<REAPER_PROJECT 0.1 "6.42/linux-x86_64" 1638618795
  RIPPLE 0
  GROUPOVERRIDE 0 0 0
  AUTOXFADE 1
  ENVATTACH 3
  POOLEDENVATTACH 0
  MIXERUIFLAGS 11 48
  PEAKGAIN 1
  FEEDBACK 0
  PANLAW 1
  PROJOFFS 0 0 0
  MAXPROJLEN 0 600
  GRID 3454 8 1 8 1 0 0 0
  TIMEMODE 1 5 -1 30 0 0 -1
  VIDEO_CONFIG 0 0 256
  PANMODE 3
  CURSOR 0
  ZOOM 18.09988511555567 0 0
  VZOOMEX 6 0
  USE_REC_CFG 0
  RECMODE 1
  SMPTESYNC 0 30 100 40 1000 300 0 0 1 0 0
  LOOP 0
  LOOPGRAN 0 4
  RECORD_PATH "" ""
  <RECORD_CFG
  >
  <APPLYFX_CFG
  >
  RENDER_FILE ""
  RENDER_PATTERN ""
  RENDER_FMT 0 2 0
  RENDER_1X 0
  RENDER_RANGE 1 0 0 18 1000
  RENDER_RESAMPLE 3 0 1
  RENDER_ADDTOPROJ 0
  RENDER_STEMS 0
  RENDER_DITHER 0
  TIMELOCKMODE 1
  TEMPOENVLOCKMODE 1
  ITEMMIX 0
  DEFPITCHMODE 589824 0
  TAKELANE 1
  SAMPLERATE 44100 0 0
  <RENDER_CFG
  >
  LOCK 1
  <METRONOME 6 2
    VOL 0.25 0.125
    FREQ 800 1600 1
    BEATLEN 4
    SAMPLES "" ""
    PATTERN 2863311530 2863311529
    MULT 1
  >
  GLOBAL_AUTO -1
  TEMPO 120 4 4
  PLAYRATE 1 0 0.25 4
  SELECTION 0 0
  SELECTION2 0 0
  MASTERAUTOMODE 0
  MASTERTRACKHEIGHT 0 0
  MASTERPEAKCOL 16576
  MASTERMUTESOLO 0
  MASTERTRACKVIEW 0 0.6667 0.5 0.5 0 0 0 0 0 0 -1 -1 0
  MASTERHWOUT 0 0 1 0 0 0 0 -1
  MASTER_NCH 2 2
  MASTER_VOLUME 1 0 -1 -1 1
  MASTER_FX 1
  MASTER_SEL 0
  <MASTERPLAYSPEEDENV
    EGUID {44539363-7712-3C01-EBEC-0CD7BC308355}
    ACT 0 -1
    VIS 0 1 1
    LANEHEIGHT 0 0
    ARM 0
    DEFSHAPE 0 -1 -1
  >
  <TEMPOENVEX
    EGUID {8038BF11-AB97-4FE3-C579-4DAFB09AEA01}
    ACT 0 -1
    VIS 1 0 1
    LANEHEIGHT 0 0
    ARM 0
    DEFSHAPE 1 -1 -1
  >
  <PROJBAY
  >
  <TRACK {CD474519-FFB0-7A71-5E82-0E798D4FD8ED}
    NAME ""
    PEAKCOL 16576
    BEAT -1
    AUTOMODE 0
    VOLPAN 1 0 -1 -1 1
    MUTESOLO 0 0 0
    IPHASE 0
    PLAYOFFS 0 1
    ISBUS 0 0
    BUSCOMP 0 0 0 0 0
    SHOWINMIX 1 0.6667 0.5 1 0.5 -1 -1 -1
    FREEMODE 0
    SEL 1
    REC 1 4096 1 0 0 0 0
    VU 2
    TRACKHEIGHT 796 0 0 0 0 0
    INQ 0 0 0 0.5 100 0 0 100
    NCHAN 2
    FX 1
    TRACKID {CD474519-FFB0-7A71-5E82-0E798D4FD8ED}
    PERF 0
    MIDIOUT -1
    MAINSEND 1 0
    <ITEM
      POSITION 2
      SNAPOFFS 0
      LENGTH 189.26927083333334
      LOOP 1
      ALLTAKES 0
      FADEIN 1 0 0 1 0 0 0
      FADEOUT 1 0 0 1 0 0 0
      MUTE 0 0
      SEL 1
      IGUID {89379400-E19E-1FFF-EF1E-FFA544810CEF}
      IID 2
      NAME "01-Recorded MIDI"
      VOLPAN 1 0 1 -1
      SOFFS 0 0
      PLAYRATE 1 1 0 -1 0 0.0025
      CHANMODE 0
      GUID {CD6AC34C-4C95-FB33-09CF-646CC86C948D}
      RECPASS 2
      <SOURCE MIDI
        HASDATA 1 960 QN
        CCINTERP 32
        POOLEDEVTS {BCE911FE-CD93-4DCA-0704-05D26FB7FA70}
        E 5940 91 2c 64
        E 0 90 34 64
        E 0 91 21 64
        E 859 90 21 64
        E 328 81 2c 64
        E 0 80 21 64
        E 0 81 21 64
        E 0 80 34 64
        E 0 91 21 64
        E 328 81 21 64
        E 0 90 34 64
        E 286 80 34 64
        E 82 90 34 64
        E 0 91 21 64
        E 0 91 2c 64
        E 492 81 21 64
        E 0 80 34 64
        E 0 81 2c 64
        E 164 91 2c 64
        E 0 90 34 64
        E 0 91 21 64
        E 573 81 21 64
        E 0 80 34 64
        E 0 81 2c 64
        E 123 90 3c 64
        E 0 91 21 64
        E 0 90 34 64
        E 533 81 21 64
        E 0 80 34 64
        E 0 80 3c 64
        E 163 90 3f 64
        E 0 90 33 64
        E 1 90 2c 64
        E 0 91 2b 64
        E 1392 81 2b 64
        E 0 80 33 64
        E 0 80 3f 64
        E 0 80 2c 64
        E 655 90 1e 64
        E 0 91 1a 64
        E 0 90 2c 64
        E 1025 90 06 64
        E 368 80 1e 64
        E 0 81 1a 64
        E 0 80 06 64
        E 0 80 2c 64
        E 0 91 03 64
        E 328 81 03 64
        E 0 91 09 64
        E 327 81 09 64
        E 0 91 1a 64
        E 0 91 14 64
        E 0 90 19 64
        E 574 81 1a 64
        E 0 81 14 64
        E 0 80 19 64
        E 123 91 1a 64
        E 0 90 19 64
        E 0 91 14 64
        E 532 81 1a 64
        E 0 81 14 64
        E 0 80 19 64
        E 164 90 28 64
        E 0 90 19 64
        E 0 91 14 64
        E 492 81 14 64
        E 0 80 28 64
        E 0 80 19 64
        E 204 90 2a 64
        E 0 90 24 64
        E 0 90 11 64
        E 0 90 1c 64
        E 1352 80 2a 64
        E 0 80 1c 64
        E 0 80 11 64
        E 0 80 24 64
        E 696 90 24 64
        E 328 80 24 64
        E 0 90 26 64
        E 369 80 26 64
        E 0 90 24 64
        E 327 80 24 64
        E 0 90 26 64
        E 328 80 26 64
        E 0 90 24 64
        E 369 80 24 64
        E 0 90 26 64
        E 327 80 26 64
        E 0 90 21 64
        E 369 80 21 64
        E 0 90 24 64
        E 328 80 24 64
        E 0 90 21 64
        E 368 80 21 64
        E 0 90 24 64
        E 328 80 24 64
        E 0 90 21 64
        E 328 80 21 64
        E 0 90 24 64
        E 368 80 24 64
        E 0 90 06 64
        E 0 90 19 64
        E 0 90 2c 64
        E 287 80 19 64
        E 41 90 1e 64
        E 164 80 06 64
        E 0 80 2c 64
        E 0 90 03 64
        E 0 90 02 64
        E 0 90 04 64
        E 0 90 04 64
        E 0 90 06 64
        E 0 90 07 64
        E 0 90 01 64
        E 0 90 00 64
        E 0 90 03 64
        E 0 90 06 64
        E 0 90 07 64
        E 0 90 01 64
        E 0 90 05 64
        E 0 90 05 64
        E 123 80 1e 64
        E 41 80 00 64
        E 0 80 07 64
        E 0 80 02 64
        E 0 80 05 64
        E 0 80 06 64
        E 0 80 04 64
        E 0 80 03 64
        E 0 80 01 64
        E 0 90 37 64
        E 0 91 2b 64
        E 0 91 1a 64
        E 0 90 24 64
        E 0 90 19 64
        E 327 80 19 64
        E 41 80 01 64
        E 0 80 06 64
        E 0 80 04 64
        E 0 80 05 64
        E 0 80 07 64
        E 0 80 03 64
        E 0 90 1e 64
        E 164 81 1a 64
        E 0 80 24 64
        E 0 81 2b 64
        E 0 80 37 64
        E 164 80 1e 64
        E 0 91 3a 64
        E 0 91 25 64
        E 0 90 1d 64
        E 0 90 48 64
        E 0 90 19 64
        E 287 80 19 64
        E 41 90 1e 64
        E 205 81 25 64
        E 0 80 48 64
        E 0 80 1d 64
        E 0 81 3a 64
        E 122 80 1e 64
        E 41 90 30 64
        E 0 91 24 64
        E 0 90 06 64
        E 0 91 3c 64
        E 0 91 14 64
        E 328 80 06 64
        E 0 81 3c 64
        E 0 80 30 64
        E 0 81 24 64
        E 0 81 14 64
        E 0 90 0b 64
        E 287 80 0b 64
        E 41 91 09 64
        E 0 90 06 64
        E 327 81 09 64
        E 0 80 06 64
        E 41 90 0b 64
        E 328 80 0b 64
        E 41 90 19 64
        E 0 90 2c 64
        E 0 91 03 64
        E 164 80 19 64
        E 82 81 03 64
        E 0 80 2c 64
        E 82 90 1e 64
        E 205 80 1e 64
        E 122 90 0a 64
        E 0 90 1d 64
        E 0 90 2a 64
        E 205 80 1d 64
        E 123 80 2a 64
        E 41 90 21 64
        E 164 80 21 64
        E 164 80 0a 64
        E 0 90 2a 64
        E 0 90 30 64
        E 0 90 1d 64
        E 204 80 1d 64
        E 82 80 2a 64
        E 0 80 30 64
        E 41 90 31 64
        E 0 90 2c 64
        E 0 90 21 64
        E 205 80 21 64
        E 123 80 2c 64
        E 0 80 31 64
        E 41 90 30 64
        E 0 90 34 64
        E 0 90 1d 64
        E 0 90 2d 64
        E 164 80 1d 64
        E 164 80 34 64
        E 0 80 2d 64
        E 0 80 30 64
        E 0 90 21 64
        E 204 80 21 64
        E 123 91 25 64
        E 0 91 1a 64
        E 0 90 19 64
        E 0 91 2b 64
        E 205 80 19 64
        E 164 90 1e 64
        E 164 81 25 64
        E 0 81 2b 64
        E 0 80 1e 64
        E 164 91 2b 64
        E 0 90 3f 64
        E 0 90 19 64
        E 327 80 19 64
        E 0 90 1e 64
        E 205 80 3f 64
        E 0 81 2b 64
        E 164 90 3f 64
        E 0 91 36 64
        E 0 80 1e 64
        E 0 90 19 64
        E 369 80 19 64
        E 0 90 1e 64
        E 123 80 3f 64
        E 0 81 36 64
        E 163 91 3c 64
        E 0 91 36 64
        E 0 81 1a 64
        E 0 80 1e 64
        E 0 90 19 64
        E 369 80 19 64
        E 0 90 1e 64
        E 205 81 36 64
        E 0 81 3c 64
        E 164 91 36 64
        E 0 90 3f 64
        E 0 80 1e 64
        E 0 90 19 64
        E 327 80 19 64
        E 0 90 1e 64
        E 164 80 3f 64
        E 0 81 36 64
        E 164 91 2b 64
        E 0 90 3f 64
        E 0 80 1e 64
        E 0 90 19 64
        E 369 80 19 64
        E 0 90 1e 64
        E 164 80 3f 64
        E 0 81 2b 64
        E 163 80 1e 64
        E 0 90 2c 64
        E 0 90 06 64
        E 205 80 06 64
        E 123 90 0b 64
        E 205 90 1b 64
        E 0 80 0b 64
        E 164 80 1b 64
        E 0 90 19 64
        E 0 90 06 64
        E 163 80 06 64
        E 164 90 0b 64
        E 205 80 0b 64
        E 123 80 19 64
        E 0 80 2c 64
        E 0 90 0d 64
        E 0 91 05 64
        E 0 90 31 64
        E 0 90 06 64
        E 246 80 06 64
        E 123 90 0b 64
        E 163 80 0b 64
        E 164 80 0d 64
        E 0 81 05 64
        E 0 80 31 64
        E 0 90 06 64
        E 0 90 3d 64
        E 0 91 30 64
        E 0 90 30 64
        E 205 80 06 64
        E 123 90 0b 64
        E 246 80 0b 64
        E 123 90 1e 64
        E 0 90 06 64
        E 163 80 06 64
        E 205 90 0b 64
        E 164 80 0b 64
        E 123 80 1e 64
        E 0 80 3d 64
        E 0 80 30 64
        E 0 81 30 64
        E 0 90 2c 64
        E 0 90 06 64
        E 0 91 3c 64
        E 246 80 06 64
        E 123 90 0b 64
        E 204 80 0b 64
        E 164 90 19 64
        E 0 91 10 64
        E 0 90 06 64
        E 0 80 2c 64
        E 0 81 3c 64
        E 0 91 29 64
        E 0 90 03 64
        E 164 80 03 64
        E 123 90 0b 64
        E 205 90 01 64
        E 0 90 02 64
        E 0 90 01 64
        E 0 90 07 64
        E 0 90 03 64
        E 0 90 04 64
        E 0 90 03 64
        E 0 90 06 64
        E 0 90 07 64
        E 0 90 04 64
        E 0 90 05 64
        E 0 90 05 64
        E 0 90 06 64
        E 0 90 00 64
        E 41 80 0b 64
        E 123 80 19 64
        E 0 80 07 64
        E 0 80 02 64
        E 0 80 06 64
        E 0 80 01 64
        E 0 80 03 64
        E 0 80 05 64
        E 0 80 06 64
        E 0 80 04 64
        E 0 81 10 64
        E 0 80 00 64
        E 0 81 29 64
        E 0 91 29 64
        E 0 90 03 64
        E 0 90 36 64
        E 0 90 22 64
        E 0 91 18 64
        E 0 91 36 64
        E 0 90 31 64
        E 0 91 25 64
        E 0 90 23 64
        E 0 90 35 64
        E 0 91 29 64
        E 0 90 44 64
        E 0 91 18 64
        E 368 80 01 64
        E 0 80 06 64
        E 0 80 07 64
        E 0 80 03 64
        E 0 80 04 64
        E 0 80 05 64
        E 0 80 03 64
        E 0 90 0b 64
        E 0 91 03 64
        E 328 81 29 64
        E 0 80 36 64
        E 0 81 29 64
        E 0 80 22 64
        E 0 81 18 64
        E 0 81 36 64
        E 0 80 0b 64
        E 0 81 03 64
        E 0 80 31 64
        E 0 80 23 64
        E 0 90 21 64
        E 0 80 35 64
        E 0 81 25 64
        E 0 80 44 64
        E 0 81 18 64
        E 0 90 39 64
        E 0 ff 18 64
        E 328 90 0b 64
        E 368 80 21 64
        E 0 80 39 64
        E 0 80 0b 64
        E 0 90 3a 64
        E 0 90 02 64
        E 328 80 02 64
        E 0 90 0a 64
        E 328 80 0a 64
        E 0 90 22 64
        E 0 90 02 64
        E 368 80 02 64
        E 0 90 0a 64
        E 369 80 22 64
        E 0 80 0a 64
        E 0 80 3a 64
        E 0 90 02 64
        E 0 90 0b 64
        E 0 90 35 64
        E 287 80 02 64
        E 0 90 0a 64
        E 368 80 0b 64
        E 0 80 35 64
        E 0 80 0a 64
        E 0 91 2a 64
        E 0 91 3b 64
        E 0 90 31 64
        E 0 91 08 64
        E 0 90 06 64
        E 369 80 06 64
        E 0 91 03 64
        E 287 81 2a 64
        E 0 81 03 64
        E 0 81 3b 64
        E 0 91 09 64
        E 0 90 06 64
        E 368 80 06 64
        E 0 91 03 64
        E 369 80 31 64
        E 0 81 09 64
        E 0 81 03 64
        E 0 91 2e 64
        E 0 90 06 64
        E 0 91 18 64
        E 0 90 2c 64
        E 287 80 06 64
        E 0 91 03 64
        E 368 81 2e 64
        E 0 81 08 64
        E 0 81 03 64
        E 0 81 18 64
        E 0 80 2c 64
        E 0 90 3f 64
        E 0 91 03 64
        E 0 91 09 64
        E 205 81 09 64
        E 164 90 1d 64
        E 164 80 1d 64
        E 164 91 09 64
        E 0 91 2e 64
        E 163 81 09 64
        E 164 90 1d 64
        E 205 80 1d 64
        E 164 90 11 64
        E 0 91 18 64
        E 0 80 3f 64
        E 0 81 03 64
        E 0 81 2e 64
        E 0 90 3c 64
        E 0 91 18 64
        E 164 80 11 64
        E 0 81 18 64
        E 205 90 1d 64
        E 0 81 18 64
        E 122 80 1d 64
        E 164 91 03 64
        E 0 80 3c 64
        E 0 91 29 64
        E 0 91 18 64
        E 0 91 25 64
        E 0 90 06 64
        E 369 81 03 64
        E 0 90 16 64
        E 0 81 18 64
        E 0 81 25 64
        E 0 91 1d 64
        E 0 90 34 64
        E 368 80 16 64
        E 0 91 03 64
        E 0 81 1d 64
        E 1 80 34 64
        E 0 90 29 64
        E 0 90 31 64
        E 286 81 03 64
        E 0 90 16 64
        E 0 90 19 64
        E 0 80 29 64
        E 0 80 31 64
        E 0 90 34 64
        E 0 91 2e 64
        E 0 90 2c 64
        E 369 80 16 64
        E 0 80 19 64
        E 0 90 0b 64
        E 0 91 0c 64
        E 0 80 34 64
        E 0 81 2e 64
        E 0 81 29 64
        E 0 80 2c 64
        E 0 90 30 64
        E 0 90 3c 64
        E 0 90 3f 64
        E 369 80 0b 64
        E 0 81 0c 64
        E 0 91 07 64
        E 0 90 16 64
        E 0 80 30 64
        E 0 80 3c 64
        E 0 90 31 64
        E 0 91 2e 64
        E 122 81 07 64
        E 1 80 16 64
        E 0 80 31 64
        E 0 81 2e 64
        E 163 80 06 64
        E 0 80 3f 64
        E 0 90 11 64
        E 0 91 0d 64
        E 0 90 1c 64
        E 0 90 42 64
        E 0 90 2f 64
        E 0 91 2f 64
        E 0 90 24 64
        E 0 90 09 64
        E 369 80 2f 64
        E 0 81 2f 64
        E 0 90 37 64
        E 164 80 37 64
        E 205 90 37 64
        E 0 91 2f 64
        E 286 80 37 64
        E 0 81 2f 64
        E 0 90 2f 64
        E 205 80 2f 64
        E 164 90 2f 64
        E 0 90 37 64
        E 0 80 24 64
        E 0 80 09 64
        E 0 81 0d 64
        E 0 80 11 64
        E 0 80 1c 64
        E 369 80 37 64
        E 0 80 2f 64
        E 0 91 1e 64
        E 327 81 1e 64
        E 0 91 2f 64
        E 0 80 42 64
        E 0 91 18 64
        E 0 91 0d 64
        E 0 ff 11 64
        E 0 90 44 64
        E 0 90 1e 64
        E 328 81 2f 64
        E 0 91 2a 64
        E 205 81 2a 64
        E 164 91 2f 64
        E 0 91 2a 64
        E 368 81 2a 64
        E 0 81 2f 64
        E 0 90 31 64
        E 123 80 31 64
        E 164 90 31 64
        E 0 91 2a 64
        E 0 81 18 64
        E 0 81 0d 64
        E 0 80 1e 64
        E 369 80 31 64
        E 0 81 2a 64
        E 0 91 1e 64
        E 368 81 1e 64
        E 0 80 44 64
        E 0 90 11 64
        E 0 90 1c 64
        E 0 91 2f 64
        E 0 90 42 64
        E 0 90 24 64
        E 287 81 2f 64
        E 0 90 37 64
        E 205 80 37 64
        E 164 91 2f 64
        E 0 90 37 64
        E 368 80 37 64
        E 0 81 2f 64
        E 0 90 2f 64
        E 164 80 2f 64
        E 123 90 37 64
        E 0 90 2f 64
        E 0 80 11 64
        E 0 80 1c 64
        E 0 80 24 64
        E 369 80 2f 64
        E 0 80 37 64
        E 0 91 1e 64
        E 368 81 1e 64
        E 0 91 32 64
        E 0 80 42 64
        E 0 90 0e 64
        E 0 90 15 64
        E 0 91 10 64
        E 0 90 21 64
        E 0 90 47 64
        E 287 81 32 64
        E 0 90 3b 64
        E 205 80 3b 64
        E 164 90 3b 64
        E 0 91 32 64
        E 368 80 3b 64
        E 0 81 32 64
        E 0 90 34 64
        E 164 80 34 64
        E 205 90 34 64
        E 0 90 3b 64
        E 0 90 44 64
        E 0 80 47 64
        E 0 80 0e 64
        E 0 80 15 64
        E 0 81 10 64
        E 0 80 21 64
        E 287 80 34 64
        E 0 80 3b 64
        E 0 80 44 64
        E 0 91 21 64
        E 368 81 21 64
        E 0 90 06 64
        E 0 90 11 64
        E 0 90 19 64
        E 0 90 1e 64
        E 0 90 24 64
        E 0 90 4a 64
        E 0 90 44 64
        E 369 80 44 64
        E 0 90 3f 64
        E 123 80 3f 64
        E 164 90 3f 64
        E 0 90 44 64
        E 368 80 3f 64
        E 0 80 44 64
        E 0 90 37 64
        E 164 80 37 64
        E 205 90 37 64
        E 0 90 3f 64
        E 0 80 06 64
        E 0 80 11 64
        E 0 80 19 64
        E 0 80 1e 64
        E 0 80 24 64
        E 287 80 37 64
        E 0 80 3f 64
        E 0 90 31 64
        E 368 80 31 64
        E 0 90 44 64
        E 0 80 4a 64
        E 0 91 0e 64
        E 0 90 1e 64
        E 0 91 19 64
        E 0 90 05 64
        E 0 91 08 64
        E 0 91 3b 64
        E 369 80 44 64
        E 0 91 30 64
        E 164 81 30 64
        E 123 91 30 64
        E 0 90 44 64
        E 368 81 30 64
        E 0 80 44 64
        E 0 91 2a 64
        E 164 81 2a 64
        E 205 91 2a 64
        E 0 91 30 64
        E 0 90 44 64
        E 0 81 08 64
        E 0 81 0e 64
        E 0 80 1e 64
        E 0 81 19 64
        E 0 80 05 64
        E 0 81 3b 64
        E 368 81 2a 64
        E 0 81 30 64
        E 0 80 44 64
        E 0 90 31 64
        E 287 80 31 64
        E 0 91 33 64
        E 0 90 3c 64
        E 0 91 07 64
        E 0 91 11 64
        E 0 91 18 64
        E 0 90 29 64
        E 369 80 3c 64
        E 0 91 29 64
        E 164 81 29 64
        E 205 91 29 64
        E 0 90 3c 64
        E 286 81 29 64
        E 0 80 3c 64
        E 0 91 22 64
        E 205 81 22 64
        E 164 91 22 64
        E 0 91 29 64
        E 0 81 07 64
        E 0 81 11 64
        E 0 81 18 64
        E 0 80 29 64
        E 369 81 22 64
        E 0 81 29 64
        E 0 90 29 64
        E 286 80 29 64
        E 0 91 18 64
        E 0 81 33 64
        E 737 91 07 64
        E 656 81 07 64
        E 0 90 0e 64
        E 655 81 18 64
        E 0 80 0e 64
        E 0 90 31 64
        E 0 91 2a 64
        E 0 91 2f 64
        E 0 90 0b 64
        E 369 80 0b 64
        E 0 91 08 64
        E 164 80 31 64
        E 0 81 2a 64
        E 0 81 2f 64
        E 204 91 1e 64
        E 0 90 31 64
        E 0 91 2a 64
        E 0 81 08 64
        E 0 91 0d 64
        E 369 81 0d 64
        E 0 90 1e 64
        E 123 81 1e 64
        E 0 80 31 64
        E 0 81 2a 64
        E 164 90 31 64
        E 0 91 2a 64
        E 0 91 2f 64
        E 0 80 1e 64
        E 0 91 19 64
        E 368 81 19 64
        E 0 91 1e 64
        E 164 80 31 64
        E 0 81 2a 64
        E 0 81 2f 64
        E 205 91 28 64
        E 0 91 33 64
        E 0 81 1e 64
        E 0 91 39 64
        E 0 90 03 64
        E 287 81 39 64
        E 0 80 03 64
        E 0 91 06 64
        E 368 81 06 64
        E 1 90 3c 64
        E 0 91 39 64
        E 0 90 16 64
        E 368 80 3c 64
        E 0 81 39 64
        E 0 80 16 64
        E 0 91 11 64
        E 287 81 11 64
        E 0 91 33 64
        E 0 91 39 64
        E 0 91 17 64
        E 368 81 33 64
        E 1 81 39 64
        E 0 81 17 64
        E 0 90 29 64
        E 368 81 28 64
        E 0 81 33 64
        E 0 80 29 64
        E 0 90 05 64
        E 0 91 08 64
        E 0 91 2a 64
        E 0 91 30 64
        E 0 90 44 64
        E 287 80 05 64
        E 0 81 08 64
        E 0 91 0e 64
        E 205 81 2a 64
        E 0 80 44 64
        E 0 81 30 64
        E 163 81 0e 64
        E 0 90 31 64
        E 0 91 2a 64
        E 0 91 30 64
        E 0 90 1e 64
        E 369 80 1e 64
        E 0 91 19 64
        E 164 80 31 64
        E 0 81 2a 64
        E 0 81 30 64
        E 164 91 2a 64
        E 0 91 30 64
        E 0 90 44 64
        E 0 81 19 64
        E 0 91 1f 64
        E 327 81 1f 64
        E 1 90 31 64
        E 163 81 2a 64
        E 0 81 30 64
        E 0 80 44 64
        E 205 91 28 64
        E 0 90 3c 64
        E 0 91 33 64
        E 0 90 29 64
        E 0 91 22 64
        E 0 80 31 64
        E 0 90 03 64
        E 0 91 06 64
        E 369 80 03 64
        E 0 81 06 64
        E 0 90 16 64
        E 286 80 16 64
        E 0 91 11 64
        E 369 81 22 64
        E 0 81 28 64
        E 0 80 3c 64
        E 0 81 33 64
        E 0 80 29 64
        E 0 81 11 64
        E 0 91 17 64
        E 369 91 28 64
        E 0 90 3c 64
        E 0 91 33 64
        E 0 81 17 64
        E 0 90 29 64
        E 286 80 29 64
        E 0 91 22 64
        E 205 81 28 64
        E 0 80 3c 64
        E 0 81 33 64
        E 164 81 22 64
        E 0 91 2f 64
        E 0 90 44 64
        E 0 91 2f 64
        E 0 90 44 64
        E 0 90 44 64
        E 0 90 1e 64
        E 0 90 0b 64
        E 0 90 31 64
        E 0 90 37 64
        E 369 81 2f 64
        E 0 80 44 64
        E 0 80 44 64
        E 0 80 1e 64
        E 0 80 0b 64
        E 0 90 1e 64
        E 286 80 37 64
        E 0 81 2f 64
        E 0 80 44 64
        E 1 80 1e 64
        E 0 80 31 64
        E 0 91 1e 64
        E 368 81 1e 64
        E 0 90 31 64
        E 369 80 31 64
        E 0 90 37 64
        E 327 80 37 64
        E 0 91 2f 64
        E 328 81 2f 64
        E 0 90 44 64
        E 2048 80 44 64
        E 0 91 1e 64
        E 0 90 31 64
        E 0 91 2a 64
        E 1024 90 0b 64
        E 369 81 1e 64
        E 0 80 31 64
        E 0 81 2a 64
        E 0 80 0b 64
        E 0 91 0d 64
        E 368 81 0d 64
        E 0 90 1e 64
        E 287 80 1e 64
        E 0 91 19 64
        E 0 91 1e 64
        E 0 90 31 64
        E 0 91 2a 64
        E 533 81 19 64
        E 0 81 1e 64
        E 0 80 31 64
        E 0 81 2a 64
        E 204 91 19 64
        E 0 91 1e 64
        E 0 90 31 64
        E 0 91 2a 64
        E 492 81 19 64
        E 0 81 1e 64
        E 0 80 31 64
        E 0 81 2a 64
        E 164 90 1e 64
        E 0 91 1e 64
        E 0 90 31 64
        E 0 90 39 64
        E 532 80 1e 64
        E 0 81 1e 64
        E 0 80 31 64
        E 0 80 39 64
        E 164 91 11 64
        E 0 91 29 64
        E 0 91 2d 64
        E 0 91 18 64
        E 0 91 1c 64
        E 1065 81 18 64
        E 0 81 1c 64
        E 287 91 1c 64
        E 737 81 1c 64
        E 0 90 26 64
        E 655 81 29 64
        E 0 81 2d 64
        E 697 80 26 64
        E 0 91 18 64
        E 696 81 11 64
        E 0 81 18 64
        E 0 91 10 64
        E 0 90 1f 64
        E 0 90 28 64
        E 0 90 0c 64
        E 1024 80 0c 64
        E 0 90 02 64
        E 328 81 10 64
        E 0 80 1f 64
        E 0 80 28 64
        E 0 80 02 64
        E 0 90 06 64
        E 327 80 06 64
        E 0 90 0c 64
        E 369 80 0c 64
        E 0 91 10 64
        E 0 90 1f 64
        E 0 90 15 64
        E 533 81 10 64
        E 0 80 1f 64
        E 0 80 15 64
        E 122 91 10 64
        E 0 90 1f 64
        E 0 90 15 64
        E 533 81 10 64
        E 0 80 1f 64
        E 0 80 15 64
        E 205 91 10 64
        E 0 90 1f 64
        E 0 90 22 64
        E 0 90 02 64
        E 491 81 10 64
        E 0 80 1f 64
        E 0 80 22 64
        E 0 80 02 64
        E 164 91 05 64
        E 0 91 0f 64
        E 0 91 16 64
        E 0 90 26 64
        E 0 91 20 64
        E 0 91 27 64
        E 0 91 31 64
        E 123 91 07 64
        E 82 81 05 64
        E 41 90 00 64
        E 0 90 13 64
        E 123 81 07 64
        E 41 90 05 64
        E 0 91 0f 64
        E 82 80 00 64
        E 0 80 13 64
        E 41 91 05 64
        E 81 80 05 64
        E 0 81 0f 64
        E 82 91 07 64
        E 0 81 0f 64
        E 0 81 16 64
        E 0 80 26 64
        E 0 81 20 64
        E 0 81 27 64
        E 0 81 31 64
        E 41 81 05 64
        E 123 90 13 64
        E 41 81 07 64
        E 82 90 16 64
        E 41 80 13 64
        E 82 91 0f 64
        E 41 80 16 64
        E 82 91 16 64
        E 41 81 0f 64
        E 123 90 26 64
        E 41 81 16 64
        E 82 91 20 64
        E 40 80 26 64
        E 82 90 31 64
        E 41 81 20 64
        E 82 91 27 64
        E 82 80 31 64
        E 82 90 39 64
        E 41 81 27 64
        E 82 90 3c 64
        E 82 80 39 64
        E 41 91 31 64
        E 82 80 3c 64
        E 82 90 3c 64
        E 82 81 31 64
        E 41 90 39 64
        E 82 80 3c 64
        E 82 91 27 64
        E 40 80 39 64
        E 82 91 20 64
        E 82 81 27 64
        E 82 90 26 64
        E 41 81 20 64
        E 82 91 18 64
        E 41 80 26 64
        E 82 91 16 64
        E 41 81 18 64
        E 123 91 0f 64
        E 41 81 16 64
        E 82 90 16 64
        E 0 90 26 64
        E 0 90 39 64
        E 41 81 0f 64
        E 82 91 05 64
        E 0 91 16 64
        E 41 80 16 64
        E 81 91 0f 64
        E 123 81 05 64
        E 0 81 16 64
        E 41 90 00 64
        E 0 90 13 64
        E 82 81 0f 64
        E 41 91 07 64
        E 82 80 00 64
        E 0 80 13 64
        E 41 80 26 64
        E 0 80 39 64
        E 0 90 2a 64
        E 0 90 2f 64
        E 0 90 36 64
        E 0 90 2f 64
        E 0 90 36 64
        E 0 90 0d 64
        E 82 81 07 64
        E 41 90 09 64
        E 123 80 0d 64
        E 82 90 10 64
        E 41 80 09 64
        E 0 80 2f 64
        E 0 80 36 64
        E 82 90 00 64
        E 0 90 13 64
        E 41 80 10 64
        E 81 90 17 64
        E 1 90 04 64
        E 41 80 00 64
        E 0 80 13 64
        E 122 90 09 64
        E 0 90 1c 64
        E 41 80 17 64
        E 0 80 04 64
        E 82 90 10 64
        E 41 80 09 64
        E 0 80 1c 64
        E 82 90 16 64
        E 41 80 10 64
        E 82 90 17 64
        E 41 80 16 64
        E 123 90 1a 64
        E 41 80 17 64
        E 82 90 1c 64
        E 0 80 2a 64
        E 0 80 2f 64
        E 0 80 36 64
        E 82 80 1a 64
        E 41 90 20 64
        E 81 80 1c 64
        E 41 90 23 64
        E 123 80 20 64
        E 41 90 26 64
        E 82 80 23 64
        E 82 90 29 64
        E 41 80 26 64
        E 82 90 2a 64
        E 41 80 29 64
        E 123 90 2f 64
        E 41 80 2a 64
        E 123 90 2d 64
        E 41 80 2f 64
        E 123 90 2a 64
        E 40 80 2d 64
        E 164 90 28 64
        E 41 80 2a 64
        E 82 90 25 64
        E 41 80 28 64
        E 82 90 23 64
        E 41 80 25 64
        E 82 90 20 64
        E 123 80 23 64
        E 41 90 1c 64
        E 82 80 20 64
        E 41 90 1a 64
        E 82 80 1c 64
        E 41 90 17 64
        E 81 80 1a 64
        E 123 90 15 64
        E 41 80 17 64
        E 82 90 12 64
        E 41 80 15 64
        E 82 90 10 64
        E 41 80 12 64
        E 82 91 36 64
        E 0 91 05 64
        E 0 91 20 64
        E 0 91 25 64
        E 0 90 39 64
        E 0 91 31 64
        E 82 80 10 64
        E 82 90 0b 64
        E 41 81 05 64
        E 82 90 00 64
        E 0 90 13 64
        E 41 80 0b 64
        E 82 90 03 64
        E 0 90 16 64
        E 41 80 00 64
        E 0 80 13 64
        <X 122 0
          /w==
        >
        E 0 91 0f 64
        E 41 80 03 64
        E 0 80 16 64
        E 82 91 03 64
        E 0 91 14 64
        E 41 81 0f 64
        E 82 90 11 64
        E 0 90 24 64
        E 82 81 03 64
        E 0 81 14 64
        E 41 90 13 64
        E 0 90 26 64
        E 82 80 11 64
        E 0 80 24 64
        E 82 91 0e 64
        E 82 80 13 64
        E 0 80 26 64
        E 41 90 1d 64
        E 82 81 0e 64
        E 82 91 14 64
        E 0 81 31 64
        E 0 81 36 64
        E 0 81 20 64
        E 0 81 25 64
        E 0 80 39 64
        E 41 80 1d 64
        E 82 90 21 64
        E 81 81 14 64
        E 82 90 24 64
        E 41 80 21 64
        E 82 90 26 64
        E 41 80 24 64
        E 82 90 29 64
        E 41 80 26 64
        E 123 91 20 64
        E 41 80 29 64
        E 82 91 25 64
        E 41 81 20 64
        E 82 90 34 64
        E 41 81 25 64
        E 82 90 39 64
        E 41 80 34 64
        E 122 91 31 64
        E 41 80 39 64
        E 82 90 3c 64
        E 82 81 31 64
        E 41 90 39 64
        E 82 80 3c 64
        E 41 91 25 64
        E 123 80 39 64
        E 41 91 20 64
        E 82 81 25 64
        E 82 90 26 64
        E 41 81 20 64
        E 82 91 18 64
        E 0 90 29 64
        E 0 90 2e 64
        E 0 90 41 64
        E 41 80 26 64
        E 122 90 21 64
        E 41 81 18 64
        E 82 91 14 64
        E 41 80 21 64
        E 82 90 1b 64
        E 41 81 14 64
        E 82 90 13 64
        E 41 80 1b 64
        E 123 80 29 64
        E 0 80 2e 64
        E 0 80 41 64
        E 0 90 2c 64
        E 0 90 33 64
        E 0 91 2b 64
        E 0 90 3f 64
        E 0 90 46 64
        E 0 90 33 64
        E 0 91 2b 64
        E 0 90 3f 64
        E 0 90 46 64
        E 0 90 46 64
        E 0 90 46 64
        E 0 91 1a 64
        E 0 90 06 64
        E 41 80 13 64
        E 82 90 0a 64
        E 41 80 06 64
        E 82 90 0d 64
        E 41 80 0a 64
        E 41 80 33 64
        E 0 81 2b 64
        E 0 80 3f 64
        E 0 80 46 64
        E 0 80 46 64
        E 41 91 09 64
        E 122 80 0d 64
        E 41 90 03 64
        E 0 90 16 64
        E 82 81 09 64
        E 41 90 0a 64
        E 0 81 1a 64
        E 0 90 1d 64
        E 82 80 03 64
        E 0 80 16 64
        E 41 90 0d 64
        E 0 90 20 64
        E 82 80 0a 64
        E 0 80 1d 64
        E 123 90 0f 64
        E 0 90 22 64
        E 41 80 0d 64
        E 0 80 20 64
        E 82 91 09 64
        E 0 91 1a 64
        E 41 80 0f 64
        E 0 80 22 64
        E 82 90 15 64
        E 0 90 28 64
        E 41 81 09 64
        E 0 81 1a 64
        E 82 90 16 64
        E 0 80 2c 64
        E 0 80 33 64
        E 0 81 2b 64
        E 0 80 3f 64
        E 0 80 46 64
        E 0 80 46 64
        E 82 80 15 64
        E 0 80 28 64
        E 81 90 19 64
        E 41 80 16 64
        E 82 90 20 64
        E 41 80 19 64
        E 82 91 1a 64
        E 41 80 20 64
        E 123 90 2c 64
        E 41 81 1a 64
        E 82 90 33 64
        E 41 80 2c 64
        E 123 91 2b 64
        E 41 80 33 64
        E 123 90 35 64
        E 0 81 2b 64
        E 204 90 33 64
        E 0 80 35 64
        E 164 90 30 64
        E 0 80 33 64
        E 123 90 2c 64
        E 82 80 30 64
        E 82 90 2a 64
        E 41 80 2c 64
        E 82 90 28 64
        E 41 80 2a 64
        E 82 91 1a 64
        E 41 80 28 64
        E 123 90 22 64
        E 41 81 1a 64
        E 81 90 20 64
        E 41 80 22 64
        E 82 90 1d 64
        E 41 80 20 64
        E 82 90 19 64
        E 41 80 1d 64
        E 123 91 09 64
        E 41 80 19 64
        E 82 91 1b 64
        E 0 90 2e 64
        E 0 91 26 64
        E 0 91 2c 64
        E 0 90 41 64
        E 0 91 37 64
        E 0 90 08 64
        E 82 81 09 64
        E 41 90 0b 64
        E 82 80 08 64
        E 41 91 04 64
        E 123 80 0b 64
        <X 41 0
          /w==
        >
        E 0 91 0a 64
        E 81 81 04 64
        E 82 90 03 64
        E 0 90 16 64
        E 41 81 0a 64
        E 82 90 06 64
        E 0 90 19 64
        E 41 80 03 64
        E 0 80 16 64
        E 123 90 0b 64
        E 0 90 1e 64
        E 41 80 06 64
        E 0 80 19 64
        E 82 91 04 64
        E 0 91 15 64
        E 41 80 0b 64
        E 0 80 1e 64
        E 82 91 07 64
        E 0 91 18 64
        E 41 81 04 64
        E 0 81 15 64
        E 82 91 0a 64
        E 41 81 07 64
        E 0 81 18 64
        E 123 90 16 64
        E 0 81 1b 64
        E 0 80 2e 64
        E 0 81 26 64
        E 0 81 2c 64
        E 0 80 41 64
        E 0 81 37 64
        E 41 81 0a 64
        E 81 91 0e 64
        E 41 80 16 64
        E 82 90 1b 64
        E 82 81 0e 64
        E 41 91 15 64
        E 123 80 1b 64
        E 41 91 1b 64
        E 82 81 15 64
        E 41 91 18 64
        E 0 91 22 64
        E 0 91 29 64
        E 0 90 3c 64
        E 0 91 33 64
        E 0 91 3a 64
        E 82 81 1b 64
        E 205 91 11 64
        E 0 91 22 64
        E 204 90 16 64
        E 1 90 29 64
        E 40 81 11 64
        E 0 81 22 64
        E 164 91 07 64
        E 0 91 18 64
        E 123 80 16 64
        E 0 80 29 64
        E 574 81 07 64
        E 0 81 18 64
        E 0 81 18 64
        E 0 81 22 64
        E 0 81 29 64
        E 0 80 3c 64
        E 0 81 33 64
        E 0 81 3a 64
        E 0 90 31 64
        E 0 90 44 64
        E 696 80 31 64
        E 0 80 44 64
        E 0 91 1b 64
        E 0 90 2e 64
        E 0 91 26 64
        E 0 91 2c 64
        E 0 90 41 64
        E 0 91 37 64
        E 0 90 08 64
        E 123 90 0b 64
        E 82 80 08 64
        E 82 91 04 64
        E 41 80 0b 64
        <X 81 0
          /w==
        >
        E 0 91 0a 64
        E 42 81 04 64
        E 81 90 03 64
        E 0 90 16 64
        E 41 81 0a 64
        <X 123 0
          /w==
        >
        E 0 91 10 64
        E 41 80 03 64
        E 0 80 16 64
        E 82 90 0b 64
        E 0 90 1e 64
        E 41 81 10 64
        E 82 91 04 64
        E 0 91 15 64
        E 41 80 0b 64
        E 0 80 1e 64
        E 82 91 07 64
        E 0 91 18 64
        E 123 81 04 64
        E 0 81 15 64
        E 41 91 0a 64
        E 82 81 07 64
        E 0 81 18 64
        E 41 90 16 64
        E 0 81 1b 64
        E 0 80 2e 64
        E 0 81 26 64
        E 0 81 2c 64
        E 0 80 41 64
        E 0 81 37 64
        E 82 81 0a 64
        E 40 91 0e 64
        E 82 80 16 64
        E 82 90 1b 64
        E 82 81 0e 64
        E 82 91 15 64
        E 41 80 1b 64
        E 82 91 1b 64
        E 41 81 15 64
        E 82 90 1f 64
        E 0 90 28 64
        E 0 90 2d 64
        E 0 90 32 64
        E 0 90 3b 64
        E 0 90 40 64
        E 41 81 1b 64
        E 205 90 1a 64
        E 0 90 2d 64
        E 204 90 15 64
        E 0 90 28 64
        E 82 80 1a 64
        E 0 80 2d 64
        E 164 90 0c 64
        E 0 90 1f 64
        E 82 80 15 64
        E 0 80 28 64
        E 615 80 0c 64
        E 0 80 1f 64
        E 0 80 1f 64
        E 0 80 28 64
        E 0 80 2d 64
        E 0 80 32 64
        E 0 80 3b 64
        E 0 80 40 64
        E 655 90 33 64
        E 0 91 2b 64
        E 0 90 3e 64
        E 0 90 20 64
        E 1393 80 33 64
        E 0 81 2b 64
        E 0 80 3e 64
        E 0 80 20 64
        E 696 90 32 64
        E 0 90 35 64
        E 0 90 3b 64
        E 0 90 1f 64
        E 1352 80 32 64
        E 0 80 35 64
        E 0 80 3b 64
        E 0 80 1f 64
        E 696 91 1f 64
        E 0 90 31 64
        E 0 91 2a 64
        E 0 91 30 64
        E 0 91 0e 64
        E 1352 81 1f 64
        E 0 80 31 64
        E 0 81 2a 64
        E 0 81 30 64
        E 0 81 0e 64
        E 0 91 23 64
        E 0 91 12 64
        E 204 81 23 64
        E 0 81 12 64
        E 492 90 2e 64
        E 0 90 1b 64
        E 205 80 2e 64
        E 0 80 1b 64
        E 1188 91 1f 64
        E 0 91 0e 64
        E 163 81 1f 64
        E 0 81 0e 64
        E 492 91 1e 64
        E 0 91 0d 64
        E 205 81 1e 64
        E 0 81 0d 64
        E 1188 90 24 64
        E 0 90 11 64
        E 696 80 24 64
        E 0 80 11 64
        E 0 90 23 64
        E 0 90 10 64
        E 1351 80 23 64
        E 1 80 10 64
        E 0 90 20 64
        E 0 90 0d 64
        E 696 80 20 64
        E 0 80 0d 64
        E 0 90 17 64
        E 0 90 04 64
        E 0 90 2a 64
        E 0 90 23 64
        E 205 80 17 64
        E 0 80 23 64
        E 82 90 1a 64
        E 0 90 1c 64
        E 163 80 1a 64
        E 0 80 1c 64
        E 41 80 2a 64
        E 0 90 17 64
        E 0 90 2f 64
        E 0 90 23 64
        E 246 80 17 64
        E 0 80 23 64
        E 41 80 2f 64
        E 0 90 23 64
        E 0 90 1a 64
        E 0 90 2d 64
        E 164 80 23 64
        E 0 80 1a 64
        E 82 90 1c 64
        E 0 90 17 64
        E 205 80 1c 64
        E 0 80 17 64
        E 41 80 2d 64
        E 0 90 23 64
        E 0 90 1a 64
        E 0 90 2a 64
        E 204 80 23 64
        E 0 80 1a 64
        E 41 80 04 64
        E 0 80 2a 64
        E 0 91 1a 64
        E 0 90 19 64
        E 0 90 1d 64
        E 0 90 29 64
        E 246 81 1a 64
        E 41 91 14 64
        E 164 81 14 64
        E 82 80 29 64
        E 0 91 1a 64
        E 0 90 2c 64
        E 205 81 1a 64
        E 41 80 19 64
        E 0 80 1d 64
        E 0 80 2c 64
        E 0 90 34 64
        E 0 90 23 64
        E 0 90 17 64
        E 204 80 23 64
        E 0 80 17 64
        E 41 90 1c 64
        E 0 90 1a 64
        E 246 80 1c 64
        E 0 80 1a 64
        E 41 90 23 64
        E 0 90 17 64
        E 164 80 23 64
        E 0 80 17 64
        E 82 90 23 64
        E 0 90 1a 64
        E 205 80 23 64
        E 0 80 1a 64
        E 41 90 1c 64
        E 0 90 17 64
        E 204 80 1c 64
        E 0 80 17 64
        E 41 90 23 64
        E 0 90 1a 64
        E 246 80 23 64
        E 0 80 1a 64
        E 41 80 34 64
        E 0 90 26 64
        E 0 90 19 64
        E 0 90 1e 64
        E 246 80 26 64
        E 0 90 21 64
        E 246 80 21 64
        E 0 90 26 64
        E 245 80 26 64
        E 0 80 19 64
        E 0 80 1e 64
        E 0 91 29 64
        E 0 90 21 64
        E 0 90 28 64
        E 0 90 16 64
        E 0 90 1b 64
        E 287 80 21 64
        E 0 80 28 64
        E 0 80 16 64
        E 0 80 1b 64
        E 0 90 1e 64
        E 0 91 18 64
        E 0 90 17 64
        E 0 90 1d 64
        E 246 81 29 64
        E 0 80 1e 64
        E 0 81 18 64
        E 0 80 17 64
        E 0 80 1d 64
        E 0 91 2e 64
        E 0 90 21 64
        E 0 90 28 64
        E 0 90 16 64
        E 0 90 1b 64
        E 123 80 21 64
        E 0 80 28 64
        E 123 81 2e 64
        E 0 80 16 64
        E 0 80 1b 64
        E 0 90 39 64
        E 0 90 21 64
        E 0 90 28 64
        E 0 90 17 64
        E 0 90 1d 64
        E 245 80 21 64
        E 0 80 28 64
        E 0 80 17 64
        E 0 80 1d 64
        E 0 90 1e 64
        E 0 91 18 64
        E 0 90 16 64
        E 0 90 1b 64
        E 287 80 39 64
        E 0 80 1e 64
        E 0 81 18 64
        E 0 80 16 64
        E 0 80 1b 64
        E 0 91 29 64
        E 0 90 21 64
        E 0 90 28 64
        E 0 90 17 64
        E 0 90 1d 64
        E 246 81 29 64
        E 0 80 21 64
        E 0 80 28 64
        E 0 80 17 64
        E 0 80 1d 64
        E 0 90 34 64
        E 0 91 18 64
        E 0 90 29 64
        E 0 91 05 64
        E 0 90 19 64
        E 0 90 1e 64
        E 246 81 18 64
        E 0 80 29 64
        E 0 90 21 64
        E 0 90 26 64
        E 245 80 34 64
        E 0 80 21 64
        E 0 80 26 64
        E 0 90 37 64
        E 0 91 18 64
        E 0 90 29 64
        E 287 80 37 64
        E 0 81 18 64
        E 0 80 29 64
        E 0 81 05 64
        E 0 80 19 64
        E 0 80 1e 64
        E 0 90 2e 64
        E 0 90 21 64
        E 0 90 28 64
        E 0 90 16 64
        E 0 90 1b 64
        E 287 80 21 64
        E 0 80 28 64
        E 0 80 16 64
        E 0 80 1b 64
        E 0 90 1e 64
        E 0 91 18 64
        E 0 90 17 64
        E 0 90 1d 64
        E 205 80 1e 64
        E 0 81 18 64
        E 0 80 17 64
        E 0 80 1d 64
        E 0 90 21 64
        E 0 90 28 64
        E 0 90 16 64
        E 0 90 1b 64
        E 122 80 21 64
        E 0 80 28 64
        E 164 80 16 64
        E 0 80 1b 64
        E 0 90 21 64
        E 0 90 28 64
        E 0 90 17 64
        E 0 90 1d 64
        E 246 80 21 64
        E 0 80 28 64
        E 0 80 17 64
        E 0 80 1d 64
        E 0 90 1e 64
        E 0 91 18 64
        E 0 90 16 64
        E 0 90 1b 64
        E 287 80 1e 64
        E 0 81 18 64
        E 0 80 16 64
        E 0 80 1b 64
        E 0 90 21 64
        E 0 90 28 64
        E 0 90 17 64
        E 0 90 1d 64
        E 82 80 17 64
        E 0 80 1d 64
        E 123 80 2e 64
        E 0 80 21 64
        E 0 80 28 64
        E 0 90 24 64
        E 0 90 2a 64
        E 0 90 0b 64
        E 0 90 13 64
        E 0 90 1d 64
        E 286 80 24 64
        E 0 80 2a 64
        E 0 90 21 64
        E 0 90 26 64
        E 246 80 21 64
        E 0 80 26 64
        E 0 80 0b 64
        E 0 80 13 64
        E 0 80 1d 64
        E 0 90 24 64
        E 0 90 2a 64
        E 246 80 24 64
        E 0 80 2a 64
        E 0 90 1e 64
        E 0 91 18 64
        E 0 90 2c 64
        E 0 90 33 64
        E 0 90 0b 64
        E 0 91 07 64
        E 0 90 16 64
        E 0 90 02 64
        E 246 80 1e 64
        E 0 81 18 64
        E 0 80 2c 64
        E 0 80 33 64
        E 0 80 0b 64
        E 0 81 07 64
        E 0 80 16 64
        E 0 91 13 64
        E 0 90 21 64
        E 0 90 28 64
        E 0 90 0e 64
        E 0 90 15 64
        E 0 90 19 64
        E 0 90 16 64
        E 123 81 13 64
        E 0 80 21 64
        E 0 80 28 64
        E 163 80 0e 64
        E 0 80 15 64
        E 0 80 19 64
        E 0 80 02 64
        E 0 91 13 64
        E 0 91 18 64
        E 0 90 2c 64
        E 0 90 0b 64
        E 0 91 07 64
        E 0 90 16 64
        E 0 90 06 64
        E 123 81 13 64
        E 0 81 18 64
        E 0 80 2c 64
        E 0 80 0b 64
        E 0 81 07 64
        E 0 80 16 64
        E 123 80 16 64
        E 0 80 06 64
        E 0 91 18 64
        E 0 90 29 64
        E 0 90 33 64
        E 0 90 39 64
        E 0 91 07 64
        E 0 90 16 64
        E 0 90 1d 64
        E 0 90 04 64
        E 246 81 18 64
        E 0 80 29 64
        E 0 80 33 64
        E 0 80 39 64
        E 0 81 07 64
        E 0 80 16 64
        E 0 80 1d 64
        E 0 90 20 64
        E 0 90 2a 64
        E 0 90 2c 64
        E 0 90 0d 64
        E 0 90 15 64
        E 0 90 19 64
        E 0 90 15 64
        E 246 80 20 64
        E 0 80 2a 64
        E 0 80 2c 64
        E 0 80 0d 64
        E 0 80 15 64
        E 0 80 19 64
        E 0 80 04 64
        E 0 91 18 64
        E 0 90 29 64
        E 0 90 33 64
        E 0 91 07 64
        E 0 90 16 64
        E 0 90 1d 64
        E 0 90 02 64
        E 122 81 18 64
        E 0 80 29 64
        E 0 80 33 64
        E 164 81 07 64
        E 0 80 16 64
        E 0 80 1d 64
        E 0 80 15 64
        E 0 80 02 64
        E 0 90 2c 64
        E 0 90 33 64
        E 0 90 3b 64
        E 0 90 3d 64
        E 0 91 07 64
        E 0 90 16 64
        E 0 90 1e 64
        E 0 90 00 64
        E 123 80 2c 64
        E 0 80 33 64
        E 0 80 3b 64
        E 0 80 3d 64
        E 123 81 07 64
        E 0 80 16 64
        E 0 80 1e 64
        E 0 90 29 64
        E 0 90 30 64
        E 0 90 33 64
        E 0 90 11 64
        E 0 90 1d 64
        E 0 90 20 64
        E 0 90 20 64
        E 164 80 29 64
        E 0 80 30 64
        E 0 80 33 64
        E 82 80 11 64
        E 0 80 1d 64
        E 0 80 20 64
        E 0 80 00 64
        E 0 90 2c 64
        E 0 90 33 64
        E 0 90 3b 64
        E 0 91 07 64
        E 0 90 16 64
        E 0 90 1e 64
        E 0 90 03 64
        E 123 80 2c 64
        E 0 80 33 64
        E 0 80 3b 64
        E 123 81 07 64
        E 0 80 16 64
        E 0 80 1e 64
        E 0 80 20 64
        E 0 80 03 64
        E 0 90 28 64
        E 0 90 33 64
        E 0 90 3b 64
        E 0 90 3f 64
        E 0 90 0d 64
        E 0 90 15 64
        E 0 90 19 64
        E 0 90 20 64
        E 81 80 0d 64
        E 0 80 15 64
        E 0 80 19 64
        E 0 80 20 64
        E 205 80 28 64
        E 0 80 33 64
        E 0 80 3b 64
        E 0 80 3f 64
        E 0 90 02 64
        E 0 90 15 64
        E 246 80 02 64
        E 0 80 15 64
        E 0 90 04 64
        E 0 90 17 64
        E 246 80 04 64
        E 0 80 17 64
        E 0 90 02 64
        E 0 90 06 64
        E 0 90 19 64
        E 246 80 02 64
        E 0 80 06 64
        E 0 80 19 64
        E 0 90 04 64
        E 0 90 0b 64
        E 0 90 1e 64
        E 286 80 04 64
        E 0 80 0b 64
        E 0 80 1e 64
        E 0 90 06 64
        E 0 90 0d 64
        E 0 90 20 64
        E 246 80 06 64
        E 0 80 0d 64
        E 0 80 20 64
        E 0 90 02 64
        E 0 90 0a 64
        E 0 90 0f 64
        E 0 90 22 64
        E 246 80 02 64
        E 0 80 0a 64
        E 0 80 0f 64
        E 0 80 22 64
        E 0 90 26 64
        E 0 90 04 64
        E 0 90 0d 64
        E 0 90 13 64
        E 246 80 26 64
        E 0 80 04 64
        E 0 80 0d 64
        E 0 80 13 64
        E 0 90 07 64
        E 0 90 0e 64
        E 0 90 15 64
        E 0 90 28 64
        E 286 80 07 64
        E 0 80 0e 64
        E 0 80 15 64
        E 0 80 28 64
        E 0 90 3c 64
        E 0 90 16 64
        E 0 90 29 64
        E 0 90 0a 64
        E 0 90 0f 64
        E 246 80 16 64
        E 0 80 29 64
        E 0 80 0a 64
        E 0 80 0f 64
        E 0 90 33 64
        E 0 90 16 64
        E 0 90 1d 64
        E 0 90 1e 64
        E 0 91 18 64
        E 0 90 03 64
        E 123 80 16 64
        E 0 80 1d 64
        E 0 80 1e 64
        E 0 81 18 64
        E 123 80 3c 64
        E 0 80 03 64
        E 0 90 43 64
        E 0 90 1a 64
        E 0 90 1d 64
        E 0 91 18 64
        E 0 90 29 64
        E 0 90 06 64
        E 123 80 1a 64
        E 0 80 1d 64
        E 0 81 18 64
        E 0 80 29 64
        E 123 80 43 64
        E 0 80 33 64
        E 0 80 06 64
        E 0 90 3f 64
        E 0 90 38 64
        E 0 91 07 64
        E 0 90 15 64
        E 0 90 16 64
        E 0 90 1d 64
        E 0 90 00 64
        E 0 90 0a 64
        E 163 81 07 64
        E 0 80 15 64
        E 0 80 16 64
        E 0 80 1d 64
        E 123 80 38 64
        E 0 80 00 64
        E 0 80 0a 64
        E 0 90 35 64
        E 0 90 0a 64
        E 0 91 07 64
        E 0 90 16 64
        E 0 90 06 64
        E 0 91 05 64
        E 123 80 0a 64
        E 0 81 07 64
        E 0 80 16 64
        E 123 80 3f 64
        E 0 80 06 64
        E 0 81 05 64
        E 0 90 3c 64
        E 0 91 07 64
        E 0 90 16 64
        E 0 90 1d 64
        E 0 90 0a 64
        E 0 91 07 64
        E 123 81 07 64
        E 0 80 16 64
        E 0 80 1d 64
        E 123 80 3c 64
        E 0 80 35 64
        E 0 80 0a 64
        E 0 81 07 64
        E 0 90 39 64
        E 0 90 33 64
        E 0 90 16 64
        E 0 90 1d 64
        E 0 91 18 64
        E 0 90 00 64
        E 0 91 05 64
        E 123 80 16 64
        E 0 80 1d 64
        E 0 81 18 64
        E 123 80 33 64
        E 0 80 00 64
        E 0 81 05 64
        E 0 90 30 64
        E 0 91 07 64
        E 0 90 16 64
        E 0 90 1d 64
        E 0 90 03 64
        E 0 90 0e 64
        E 163 81 07 64
        E 0 80 16 64
        E 0 80 1d 64
        E 123 80 39 64
        E 0 80 03 64
        E 0 80 0e 64
        E 0 91 29 64
        E 0 90 16 64
        E 0 90 1d 64
        E 0 91 16 64
        E 0 91 18 64
        E 0 90 06 64
        E 0 90 13 64
        E 123 80 16 64
        E 0 80 1d 64
        E 0 81 16 64
        E 0 81 18 64
        E 164 81 29 64
        E 0 80 30 64
        E 0 80 06 64
        E 0 80 13 64
        E 0 91 27 64
        E 0 90 2c 64
        E 0 90 0a 64
        E 0 90 16 64
        E 0 90 1d 64
        E 0 91 18 64
        E 0 90 29 64
        E 205 80 0a 64
        E 0 80 16 64
        E 0 80 1d 64
        E 0 81 18 64
        E 0 80 29 64
        E 0 90 03 64
        E 0 90 16 64
        E 246 80 03 64
        E 0 80 16 64
        E 0 90 06 64
        E 0 90 19 64
        E 286 81 27 64
        E 0 80 2c 64
        E 0 80 06 64
        E 0 80 19 64
        E 0 90 0a 64
        E 0 90 1d 64
        E 0 90 03 64
        E 205 80 0a 64
        E 0 80 1d 64
        E 0 80 03 64
        E 0 90 0b 64
        E 0 90 1e 64
        E 0 90 06 64
        E 287 80 0b 64
        E 0 80 1e 64
        E 0 80 06 64
        E 0 90 0f 64
        E 0 90 22 64
        E 0 90 0a 64
        E 287 80 0a 64
        E 0 80 0f 64
        E 0 80 22 64
        E 0 90 03 64
        E 0 90 0b 64
        E 0 90 11 64
        E 0 90 24 64
        E 245 80 03 64
        E 0 80 0b 64
        E 0 80 11 64
        E 0 80 24 64
        E 0 90 06 64
        E 0 90 0f 64
        E 0 90 15 64
        E 0 90 28 64
        E 246 80 06 64
        E 0 80 0f 64
        E 0 80 15 64
        E 0 80 28 64
        E 0 90 0a 64
        E 0 90 11 64
        E 0 90 16 64
        E 0 90 29 64
        E 246 80 0a 64
        E 0 80 11 64
        E 0 80 16 64
        E 0 80 29 64
        E 0 91 31 64
        E 0 90 39 64
        E 0 91 0f 64
        E 0 91 20 64
        E 0 91 03 64
        E 0 90 13 64
        E 246 81 31 64
        E 0 80 39 64
        E 41 81 0f 64
        E 0 81 20 64
        E 0 81 03 64
        E 0 80 13 64
        E 0 91 25 64
        E 0 90 39 64
        E 163 81 25 64
        E 0 80 39 64
        E 82 90 39 64
        E 0 91 31 64
        E 205 80 39 64
        E 0 81 31 64
        E 41 91 33 64
        E 0 91 22 64
        E 0 91 28 64
        E 205 81 33 64
        E 0 81 22 64
        E 0 81 28 64
        E 41 90 41 64
        E 0 91 33 64
        E 0 90 47 64
        E 0 91 39 64
        E 0 90 26 64
        E 0 90 1b 64
        E 0 90 21 64
        E 123 80 1b 64
        E 0 80 21 64
        E 164 80 41 64
        E 0 81 33 64
        E 0 80 47 64
        E 0 81 39 64
        E 0 91 30 64
        E 0 90 3e 64
        E 0 90 44 64
        E 0 91 36 64
        E 0 91 0e 64
        E 0 90 1e 64
        E 122 81 0e 64
        E 0 80 1e 64
        E 41 80 26 64
        E 82 81 30 64
        E 0 80 3e 64
        E 0 80 44 64
        E 0 81 36 64
        E 0 90 41 64
        E 0 90 39 64
        E 0 91 2c 64
        E 0 91 33 64
        E 0 90 13 64
        E 0 90 1b 64
        E 123 80 13 64
        E 0 80 1b 64
        E 123 80 39 64
        E 0 81 2c 64
        E 0 80 41 64
        E 0 81 33 64
        E 0 90 26 64
        E 0 90 2e 64
        E 0 90 34 64
        E 0 90 08 64
        E 0 91 0a 64
        E 0 90 1b 64
        E 0 91 17 64
        E 123 80 08 64
        E 0 81 0a 64
        E 0 80 1b 64
        E 0 81 17 64
        E 0 80 26 64
        E 0 80 2e 64
        E 0 80 34 64
        E 123 90 08 64
        E 0 90 21 64
        E 0 90 2e 64
        E 0 91 06 64
        E 0 90 1b 64
        E 123 80 21 64
        E 0 80 2e 64
        E 164 80 08 64
        E 0 81 06 64
        E 0 80 1b 64
        E 0 90 3c 64
        E 0 91 29 64
        E 0 91 07 64
        E 0 91 18 64
        E 163 80 3c 64
        E 0 81 29 64
        E 82 81 07 64
        E 0 81 18 64
        E 0 91 22 64
        E 0 91 29 64
        E 205 81 22 64
        E 0 81 29 64
        E 41 90 3c 64
        E 0 91 29 64
        E 205 80 3c 64
        E 0 81 29 64
        E 41 90 31 64
        E 0 91 2a 64
        E 0 91 30 64
        E 164 80 31 64
        E 0 81 2a 64
        E 0 81 30 64
        E 123 91 30 64
        E 0 90 3e 64
        E 0 90 44 64
        E 0 91 36 64
        E 0 91 19 64
        E 0 91 0e 64
        E 0 90 1e 64
        E 122 81 0e 64
        E 0 80 1e 64
        E 123 81 30 64
        E 0 80 3e 64
        E 0 80 44 64
        E 0 81 36 64
        E 0 90 3c 64
        E 0 91 2f 64
        E 0 90 41 64
        E 0 91 33 64
        E 0 90 16 64
        E 0 90 1b 64
        E 164 80 16 64
        E 0 80 1b 64
        E 41 81 19 64
        E 41 80 3c 64
        E 0 81 2f 64
        E 0 80 41 64
        E 0 81 33 64
        E 0 91 29 64
        E 0 90 36 64
        E 0 91 30 64
        E 0 90 3e 64
        E 0 91 08 64
        E 0 91 0e 64
        E 123 81 08 64
        E 0 81 0e 64
        E 123 81 29 64
        E 0 80 36 64
        E 0 81 30 64
        E 0 80 3e 64
        E 0 91 08 64
        E 0 91 0e 64
        E 0 90 1e 64
        E 0 90 05 64
        E 164 81 08 64
        E 0 81 0e 64
        E 0 80 1e 64
        E 0 80 05 64
        E 123 90 05 64
        E 0 90 0b 64
        E 0 91 08 64
        E 0 91 0e 64
        E 245 80 05 64
        E 0 80 0b 64
        E 0 81 08 64
        E 0 81 0e 64
        E 0 90 39 64
        E 0 91 28 64
        E 0 90 0a 64
        E 0 91 06 64
        E 0 90 13 64
        E 205 81 28 64
        E 41 80 39 64
        E 0 80 0a 64
        E 0 81 06 64
        E 0 80 13 64
        E 0 90 30 64
        E 0 91 28 64
        E 205 81 28 64
        E 41 80 30 64
        E 0 90 39 64
        E 0 91 28 64
        E 205 81 28 64
        E 82 80 39 64
        E 0 91 2e 64
        E 0 90 2e 64
        E 0 90 34 64
        E 163 80 2e 64
        E 0 80 34 64
        E 82 81 2e 64
        E 0 90 41 64
        E 0 91 33 64
        E 0 90 47 64
        E 0 91 39 64
        E 0 91 1d 64
        E 0 90 1b 64
        E 0 90 21 64
        E 123 80 1b 64
        E 0 80 21 64
        E 123 80 41 64
        E 0 81 33 64
        E 0 80 47 64
        E 0 81 39 64
        E 0 90 43 64
        E 0 91 35 64
        E 0 91 38 64
        E 0 90 45 64
        E 0 90 1d 64
        E 0 91 16 64
        E 123 80 1d 64
        E 0 81 16 64
        E 123 80 43 64
        E 0 81 35 64
        E 0 81 38 64
        E 0 80 45 64
        E 0 81 1d 64
        E 0 91 30 64
        E 0 90 3e 64
        E 0 90 44 64
        E 0 91 36 64
        E 0 91 0e 64
        E 0 90 1e 64
        E 164 81 0e 64
        E 0 80 1e 64
        E 123 81 30 64
        E 0 80 3e 64
        E 0 80 44 64
        E 0 81 36 64
        E 0 90 0e 64
        E 0 91 07 64
        E 0 91 0c 64
        E 0 90 16 64
        E 0 90 1b 64
        E 0 90 21 64
        E 122 80 0e 64
        E 0 81 07 64
        E 0 81 0c 64
        E 0 80 16 64
        E 0 80 1b 64
        E 0 80 21 64
        E 123 90 06 64
        E 0 90 08 64
        E 0 90 08 64
        E 0 91 05 64
        E 0 90 0e 64
        E 0 91 0c 64
        E 0 90 1b 64
        E 246 80 06 64
        E 0 80 08 64
        E 0 80 08 64
        E 0 81 05 64
        E 0 80 0e 64
        E 0 81 0c 64
        E 0 80 1b 64
        E 0 91 07 64
        E 0 91 18 64
        E 0 91 1d 64
        E 246 90 1d 64
        E 0 90 1e 64
        E 0 91 18 64
        E 82 81 18 64
        E 0 81 1d 64
        E 82 81 07 64
        E 0 90 02 64
        E 0 90 15 64
        E 123 90 22 64
        E 0 90 21 64
        E 0 90 28 64
        E 40 80 1d 64
        E 0 80 1e 64
        E 0 81 18 64
        E 164 80 02 64
        E 0 80 15 64
        E 0 90 28 64
        E 0 90 26 64
        E 0 90 2c 64
        E 0 90 06 64
        E 0 90 19 64
        E 0 90 00 64
        E 0 90 02 64
        E 0 90 01 64
        E 0 90 03 64
        E 0 90 04 64
        E 0 90 05 64
        E 0 90 06 64
        E 0 90 3b 64
        E 0 91 2e 64
        E 0 90 39 64
        E 0 91 2c 64
        E 0 90 3f 64
        E 0 91 32 64
        E 123 80 22 64
        E 0 80 21 64
        E 0 80 28 64
        E 41 80 00 64
        E 0 80 02 64
        E 0 80 01 64
        E 0 80 03 64
        E 0 80 04 64
        E 0 80 05 64
        E 0 80 06 64
        E 0 80 3b 64
        E 0 81 2e 64
        E 0 80 39 64
        E 0 81 2c 64
        E 0 80 3f 64
        E 0 81 32 64
        E 0 80 28 64
        E 0 80 26 64
        E 0 80 2c 64
        E 123 90 22 64
        E 0 90 28 64
        E 0 90 26 64
        E 0 90 00 64
        E 0 90 02 64
        E 0 90 01 64
        E 0 90 03 64
        E 0 90 04 64
        E 0 90 05 64
        E 0 90 06 64
        E 0 90 35 64
        E 0 91 29 64
        E 0 90 3b 64
        E 0 91 2e 64
        E 0 90 39 64
        E 0 91 2c 64
        E 123 80 06 64
        E 0 80 19 64
        E 0 80 00 64
        E 0 80 02 64
        E 0 80 01 64
        E 0 80 03 64
        E 0 80 04 64
        E 0 80 05 64
        E 0 80 06 64
        E 0 80 35 64
        E 0 81 29 64
        E 0 80 3b 64
        E 0 81 2e 64
        E 0 80 39 64
        E 0 81 2c 64
        E 0 90 16 64
        E 0 80 22 64
        E 0 80 28 64
        E 0 80 26 64
        E 164 90 28 64
        E 0 90 29 64
        E 0 90 2c 64
        E 0 90 00 64
        E 0 90 02 64
        E 0 90 01 64
        E 0 90 03 64
        E 0 90 04 64
        E 0 90 05 64
        E 0 90 06 64
        E 0 90 3b 64
        E 0 91 2e 64
        E 0 90 3c 64
        E 0 91 2f 64
        E 0 90 3f 64
        E 0 91 32 64
        E 123 80 00 64
        E 0 80 02 64
        E 0 80 01 64
        E 0 80 03 64
        E 0 80 04 64
        E 0 80 05 64
        E 0 80 06 64
        E 0 80 3b 64
        E 0 81 2e 64
        E 0 80 3c 64
        E 0 81 2f 64
        E 0 80 3f 64
        E 0 81 32 64
        E 0 80 28 64
        E 0 80 29 64
        E 0 80 2c 64
        E 123 80 16 64
        E 0 90 2c 64
        E 0 90 31 64
        E 0 90 33 64
        E 0 90 02 64
        E 0 90 15 64
        E 0 90 3f 64
        E 0 90 44 64
        E 0 90 46 64
        E 122 80 3f 64
        E 0 80 44 64
        E 0 80 46 64
        E 82 80 2c 64
        E 0 80 31 64
        E 0 80 33 64
        E 0 90 28 64
        E 0 90 2c 64
        E 0 90 3b 64
        E 0 90 3f 64
        E 164 80 02 64
        E 0 80 15 64
        E 0 90 06 64
        E 0 90 19 64
        E 0 80 3b 64
        E 0 80 3f 64
        E 123 80 28 64
        E 0 80 2c 64
        E 0 90 2a 64
        E 0 90 2c 64
        E 0 90 31 64
        E 0 90 3d 64
        E 0 90 3f 64
        E 0 90 44 64
        E 123 80 3d 64
        E 0 80 3f 64
        E 0 80 44 64
        E 164 80 2a 64
        E 0 80 2c 64
        E 0 80 31 64
        E 0 80 06 64
        E 0 80 19 64
        E 0 90 43 64
        E 0 91 35 64
        E 0 90 44 64
        E 0 91 36 64
        E 0 91 3a 64
        E 0 90 49 64
        E 0 90 30 64
        E 0 90 31 64
        E 0 91 29 64
        E 0 90 0b 64
        E 0 90 1e 64
        E 0 90 00 64
        E 0 90 02 64
        E 0 90 01 64
        E 0 90 03 64
        E 0 90 04 64
        E 0 90 05 64
        E 0 90 06 64
        E 123 80 00 64
        E 0 80 02 64
        E 0 80 01 64
        E 0 80 03 64
        E 0 80 04 64
        E 0 80 05 64
        E 0 80 06 64
        E 0 80 30 64
        E 0 81 29 64
        E 0 80 31 64
        E 123 80 43 64
        E 0 81 35 64
        E 0 80 44 64
        E 0 81 36 64
        E 0 81 3a 64
        E 0 80 49 64
        E 0 90 3f 64
        E 0 91 32 64
        E 0 90 41 64
        E 0 91 33 64
        E 0 90 44 64
        E 0 91 36 64
        E 0 90 2c 64
        E 0 90 2e 64
        E 0 90 31 64
        E 0 90 00 64
        E 0 90 02 64
        E 0 90 01 64
        E 0 90 03 64
        E 0 90 04 64
        E 0 90 05 64
        E 0 90 06 64
        E 122 80 0b 64
        E 0 80 1e 64
        E 0 80 00 64
        E 0 80 02 64
        E 0 80 01 64
        E 0 80 03 64
        E 0 80 04 64
        E 0 80 05 64
        E 0 80 06 64
        E 0 90 08 64
        E 0 90 1b 64
        E 0 80 2c 64
        E 0 80 2e 64
        E 0 80 31 64
        E 123 80 3f 64
        E 0 81 32 64
        E 0 80 41 64
        E 0 81 33 64
        E 0 80 44 64
        E 0 81 36 64
        E 0 90 43 64
        E 0 91 35 64
        E 0 90 44 64
        E 0 91 36 64
        E 0 91 3a 64
        E 0 90 49 64
        E 0 90 30 64
        E 0 90 31 64
        E 0 91 29 64
        E 0 90 00 64
        E 0 90 02 64
        E 0 90 01 64
        E 0 90 03 64
        E 0 90 04 64
        E 0 90 05 64
        E 0 90 06 64
        E 123 80 00 64
        E 0 80 02 64
        E 0 80 01 64
        E 0 80 03 64
        E 0 80 04 64
        E 0 80 05 64
        E 0 80 06 64
        E 0 80 30 64
        E 0 80 31 64
        E 0 81 29 64
        E 123 80 43 64
        E 0 81 35 64
        E 0 80 44 64
        E 0 81 36 64
        E 0 81 3a 64
        E 0 80 49 64
        E 0 80 08 64
        E 0 80 1b 64
        E 0 90 48 64
        E 0 90 47 64
        E 0 90 35 64
        E 0 90 34 64
        E 0 90 3b 64
        E 0 90 06 64
        E 0 90 19 64
        E 0 90 2c 64
        E 82 80 35 64
        E 0 80 34 64
        E 0 80 3b 64
        E 41 80 48 64
        E 0 80 47 64
        E 123 80 19 64
        E 0 80 06 64
        E 0 80 2c 64
        E 41 90 44 64
        E 0 90 48 64
        E 0 90 4a 64
        E 0 90 31 64
        E 0 90 35 64
        E 0 90 37 64
        E 82 80 31 64
        E 0 80 35 64
        E 0 80 37 64
        E 41 90 0b 64
        E 0 90 1e 64
        E 0 90 31 64
        E 0 80 44 64
        E 0 80 48 64
        E 0 80 4a 64
        E 123 90 48 64
        E 0 90 47 64
        E 0 90 35 64
        E 0 90 34 64
        E 0 90 3b 64
        E 41 80 0b 64
        E 0 80 1e 64
        E 0 80 31 64
        E 0 80 35 64
        E 0 80 34 64
        E 0 80 3b 64
        E 81 80 48 64
        E 0 80 47 64
        E 123 90 35 64
        E 0 91 29 64
        E 0 90 3b 64
        E 0 91 2e 64
        E 0 90 3f 64
        E 0 91 32 64
        E 0 90 22 64
        E 0 90 28 64
        E 0 90 2c 64
        E 0 91 07 64
        E 0 91 18 64
        E 0 90 00 64
        E 0 90 02 64
        E 0 90 01 64
        E 0 90 03 64
        E 0 90 04 64
        E 0 90 05 64
        E 0 90 06 64
        E 123 80 35 64
        E 0 81 29 64
        E 0 80 3b 64
        E 0 81 2e 64
        E 0 80 3f 64
        E 0 81 32 64
        E 0 80 00 64
        E 0 80 02 64
        E 0 80 01 64
        E 0 80 03 64
        E 0 80 04 64
        E 0 80 05 64
        E 0 80 06 64
        E 0 80 22 64
        E 0 80 28 64
        E 0 80 2c 64
        E 123 90 35 64
        E 0 91 29 64
        E 0 90 37 64
        E 0 91 2b 64
        E 0 90 3b 64
        E 0 91 2e 64
        E 0 90 22 64
        E 0 90 24 64
        E 0 90 28 64
        E 0 90 00 64
        E 0 90 02 64
        E 0 90 01 64
        E 0 90 03 64
        E 0 90 04 64
        E 0 90 05 64
        E 0 90 06 64
        E 123 80 35 64
        E 0 81 29 64
        E 0 80 37 64
        E 0 81 2b 64
        E 0 80 3b 64
        E 0 81 2e 64
        E 0 81 07 64
        E 0 81 18 64
        E 0 80 00 64
        E 0 80 02 64
        E 0 80 01 64
        E 0 80 03 64
        E 0 80 04 64
        E 0 80 05 64
        E 0 80 06 64
        E 0 90 0e 64
        E 0 90 21 64
        E 0 80 22 64
        E 0 80 24 64
        E 0 80 28 64
        E 164 90 3b 64
        E 0 91 2e 64
        E 0 90 39 64
        E 0 91 2c 64
        E 0 90 3f 64
        E 0 91 32 64
        E 0 90 28 64
        E 0 90 26 64
        E 0 90 00 64
        E 0 90 02 64
        E 0 90 01 64
        E 0 90 03 64
        E 0 90 04 64
        E 0 90 05 64
        E 0 90 06 64
        E 0 90 2c 64
        E 123 80 3b 64
        E 0 81 2e 64
        E 0 80 39 64
        E 0 81 2c 64
        E 0 80 3f 64
        E 0 81 32 64
        E 0 80 00 64
        E 0 80 02 64
        E 0 80 01 64
        E 0 80 03 64
        E 0 80 04 64
        E 0 80 05 64
        E 0 80 06 64
        E 0 80 28 64
        E 0 80 26 64
        E 0 80 2c 64
        E 123 80 0e 64
        E 0 80 21 64
        E 0 90 28 64
        E 0 90 2c 64
        E 0 90 31 64
        E 0 90 0b 64
        E 0 90 1e 64
        E 204 80 28 64
        E 0 80 2c 64
        E 0 80 31 64
        E 0 80 0b 64
        E 0 80 1e 64
        E 41 90 22 64
        E 0 90 28 64
        E 0 90 2c 64
        E 123 90 11 64
        E 0 91 18 64
        E 82 80 22 64
        E 0 80 28 64
        E 0 80 2c 64
        E 41 90 28 64
        E 0 90 2c 64
        E 0 90 31 64
        E 82 80 11 64
        E 0 81 18 64
        E 123 80 28 64
        E 0 80 2c 64
        E 0 80 31 64
        E 82 90 1d 64
        E 0 91 18 64
        E 0 90 29 64
        E 0 90 3c 64
        E 0 91 29 64
        E 0 91 07 64
        E 0 90 03 64
        E 164 81 29 64
        E 82 80 1d 64
        E 0 81 18 64
        E 0 80 29 64
        E 0 80 3c 64
        E 0 81 07 64
        E 0 90 30 64
        E 0 91 29 64
        E 204 80 30 64
        E 0 81 29 64
        E 41 91 29 64
        E 205 81 29 64
        E 41 90 1d 64
        E 0 91 18 64
        E 0 90 29 64
        E 0 90 3c 64
        E 0 91 29 64
        E 0 91 07 64
        E 205 81 29 64
        E 82 80 1d 64
        E 0 81 18 64
        E 0 80 29 64
        E 0 80 3c 64
        E 0 81 07 64
        E 0 90 30 64
        E 0 91 29 64
        E 164 80 30 64
        E 0 81 29 64
        E 82 91 29 64
        E 204 81 29 64
        E 41 80 03 64
        E 0 91 12 64
        E 0 91 19 64
        E 0 91 1f 64
        E 0 91 30 64
        E 0 91 29 64
        E 0 91 08 64
        E 205 81 29 64
        E 41 81 12 64
        E 0 81 19 64
        E 0 81 1f 64
        E 0 81 30 64
        E 0 81 08 64
        E 0 91 24 64
        E 0 91 29 64
        E 205 81 24 64
        E 0 81 29 64
        E 82 91 12 64
        E 0 91 19 64
        E 0 91 1f 64
        E 0 91 30 64
        E 0 91 29 64
        E 0 91 08 64
        E 123 81 12 64
        E 0 81 19 64
        E 0 81 1f 64
        E 0 81 30 64
        E 0 81 08 64
        E 41 81 29 64
        E 82 91 11 64
        E 0 91 18 64
        E 0 90 29 64
        E 0 90 3c 64
        E 0 91 29 64
        E 0 91 00 64
        E 0 91 07 64
        E 0 91 11 64
        E 204 81 29 64
        E 41 81 11 64
        E 0 81 18 64
        E 0 80 29 64
        E 0 80 3c 64
        E 0 91 22 64
        E 0 91 29 64
        E 205 81 22 64
        E 0 81 29 64
        E 41 91 29 64
        E 205 81 29 64
        E 82 91 18 64
        E 0 90 29 64
        E 0 91 22 64
        E 0 91 33 64
        E 0 91 29 64
        E 164 81 29 64
        E 41 81 18 64
        E 0 80 29 64
        E 0 81 22 64
        E 0 81 33 64
        E 0 90 29 64
        E 0 91 22 64
        E 245 80 29 64
        E 0 81 22 64
        E 41 90 26 64
        E 0 91 1f 64
        E 0 91 30 64
        E 0 91 22 64
        E 0 91 29 64
        E 205 81 22 64
        E 0 81 29 64
        E 41 80 26 64
        E 0 81 1f 64
        E 0 81 30 64
        E 0 81 00 64
        E 0 81 07 64
        E 0 81 11 64
        E 0 91 18 64
        E 0 90 29 64
        E 0 90 3c 64
        E 0 91 22 64
        E 205 81 22 64
        E 82 81 18 64
        E 0 80 29 64
        E 0 80 3c 64
        E 0 91 18 64
        E 0 90 29 64
        E 164 81 18 64
        E 0 80 29 64
        E 41 90 26 64
        E 0 90 39 64
        E 0 90 29 64
        E 0 91 22 64
        E 245 80 29 64
        E 0 81 22 64
        E 41 80 26 64
        E 0 80 39 64
        E 0 ff 29 64
        E 0 90 0b 64
        E 0 91 0d 64
        E 0 91 0d 64
        E 0 90 1e 64
        E 0 91 18 64
        E 0 91 29 64
        E 0 91 1e 64
        E 0 90 31 64
        E 205 81 1e 64
        E 0 80 31 64
        E 41 81 0d 64
        E 0 80 1e 64
        E 0 81 18 64
        E 0 81 29 64
        E 0 91 18 64
        E 0 91 1e 64
        E 205 81 18 64
        E 0 81 1e 64
        E 82 91 0d 64
        E 0 91 17 64
        E 0 91 28 64
        E 0 91 1e 64
        E 0 90 31 64
        E 123 81 0d 64
        E 0 81 17 64
        E 0 81 28 64
        E 41 81 1e 64
        E 0 80 31 64
        E 41 91 0d 64
        E 0 90 1e 64
        E 0 90 31 64
        E 0 91 18 64
        E 0 91 1e 64
        E 245 81 18 64
        E 0 81 1e 64
        E 41 81 0d 64
        E 0 80 1e 64
        E 0 80 31 64
        E 0 90 1e 64
        E 0 91 1e 64
        E 205 80 1e 64
        E 0 81 1e 64
        E 82 91 18 64
        E 0 91 1e 64
        E 0 91 0d 64
        E 0 91 17 64
        E 0 91 28 64
        E 123 81 0d 64
        E 0 81 17 64
        E 0 81 28 64
        E 41 81 18 64
        E 0 81 1e 64
        E 82 80 0b 64
        E 0 81 0d 64
        E 0 91 1e 64
        E 0 90 31 64
        E 0 91 0d 64
        E 0 90 1e 64
        E 0 91 18 64
        E 0 91 29 64
        E 164 81 1e 64
        E 0 80 31 64
        E 81 81 0d 64
        E 0 80 1e 64
        E 0 81 18 64
        E 1 81 29 64
        E 0 91 18 64
        E 0 91 1e 64
        E 204 81 18 64
        E 0 81 1e 64
        E 41 91 1e 64
        E 0 90 31 64
        E 0 91 0d 64
        E 0 90 1e 64
        E 0 90 26 64
        E 0 90 39 64
        E 123 81 0d 64
        E 0 80 1e 64
        E 0 80 26 64
        E 0 80 39 64
        E 82 81 1e 64
        E 0 80 31 64
        E 82 90 16 64
        E 0 90 1d 64
        E 0 91 17 64
        E 0 90 29 64
        E 0 90 3c 64
        E 0 90 03 64
        E 0 91 06 64
        E 0 90 16 64
        E 82 80 16 64
        E 0 80 1d 64
        E 0 81 17 64
        E 0 80 29 64
        E 0 80 3c 64
        E 164 91 28 64
        E 0 91 39 64
        E 246 90 30 64
        E 0 90 43 64
        E 40 81 28 64
        E 0 81 39 64
        E 205 90 29 64
        E 0 90 3c 64
        E 41 80 30 64
        E 0 80 43 64
        E 246 90 30 64
        E 41 80 29 64
        E 0 80 3c 64
        E 205 80 30 64
        E 0 90 31 64
        E 246 80 31 64
        E 0 80 03 64
        E 0 81 06 64
        E 0 80 16 64
        E 0 91 28 64
        E 245 81 28 64
        E 0 90 37 64
        E 287 80 37 64
        E 0 90 39 64
        E 246 80 39 64
        E 0 90 1e 64
        E 0 90 24 64
        E 0 91 1e 64
        E 0 91 2f 64
        E 0 90 37 64
        E 0 90 0b 64
        E 0 91 0d 64
        E 0 90 31 64
        E 82 80 31 64
        E 0 80 37 64
        E 164 91 28 64
        E 122 81 28 64
        E 123 90 31 64
        E 0 90 37 64
        E 82 80 1e 64
        E 0 80 24 64
        E 0 81 1e 64
        E 0 81 2f 64
        E 41 80 31 64
        E 0 80 37 64
        E 164 90 1e 64
        E 0 90 24 64
        E 0 91 1e 64
        E 0 91 2f 64
        E 0 91 28 64
        E 123 81 28 64
        E 123 90 31 64
        E 0 90 37 64
        E 82 80 31 64
        E 0 80 37 64
        E 164 91 28 64
        E 81 80 1e 64
        E 0 80 24 64
        E 0 81 1e 64
        E 0 81 2f 64
        E 41 81 28 64
        E 123 80 0b 64
        E 0 81 0d 64
        E 0 90 1c 64
        E 0 90 24 64
        E 0 90 2a 64
        E 0 90 3d 64
        E 0 90 2f 64
        E 0 90 37 64
        E 0 90 09 64
        E 0 90 17 64
        E 164 80 2f 64
        E 0 80 37 64
        E 123 91 28 64
        E 82 80 1c 64
        E 0 80 24 64
        E 0 80 2a 64
        E 0 80 3d 64
        E 41 81 28 64
        E 82 90 1c 64
        E 0 90 24 64
        E 0 90 2a 64
        E 0 90 3d 64
        E 0 90 2f 64
        E 0 90 37 64
        E 164 80 1c 64
        E 0 80 24 64
        E 0 80 2a 64
        E 0 80 3d 64
        E 0 80 2f 64
        E 0 80 37 64
        E 123 80 09 64
        E 0 80 17 64
        E 0 91 1e 64
        E 0 91 2f 64
        E 0 90 31 64
        E 0 90 37 64
        E 0 ff 2f 64
        E 0 90 0b 64
        E 0 91 0d 64
        E 0 90 1e 64
        E 0 90 24 64
        E 0 90 1e 64
        E 0 90 24 64
        E 0 90 1e 64
        E 0 90 24 64
        E 122 80 37 64
        E 0 80 1e 64
        E 0 80 24 64
        E 0 80 31 64
        E 123 80 1e 64
        E 0 80 24 64
        E 0 91 28 64
        E 123 81 1e 64
        E 0 81 2f 64
        E 41 81 28 64
        E 123 80 0b 64
        E 0 81 0d 64
        E 0 80 1e 64
        E 0 80 24 64
        E 0 90 31 64
        E 0 90 37 64
        E 123 80 31 64
        E 0 80 37 64
        E 82 90 37 64
        E 0 90 29 64
        E 0 91 28 64
        E 0 90 0b 64
        E 82 91 06 64
        E 82 80 29 64
        E 0 81 28 64
        E 0 80 0b 64
        E 41 90 11 64
        E 41 81 06 64
        E 40 91 0d 64
        E 0 90 24 64
        E 0 90 31 64
        E 42 80 11 64
        E 41 90 1d 64
        E 40 80 24 64
        E 0 80 31 64
        E 0 81 0d 64
        E 41 90 1e 64
        E 41 80 1d 64
        E 41 90 24 64
        E 0 90 24 64
        E 0 91 1e 64
        E 41 80 1e 64
        E 82 80 37 64
        E 0 91 1e 64
        E 41 80 24 64
        E 0 81 1e 64
        E 0 80 24 64
        E 41 90 31 64
        E 41 81 1e 64
        E 41 90 37 64
        E 0 90 1e 64
        E 0 90 24 64
        E 41 80 31 64
        E 41 91 2f 64
        E 41 80 1e 64
        E 0 80 24 64
        E 0 80 37 64
        E 0 90 3b 64
        E 41 81 2f 64
        E 41 90 37 64
        E 0 91 0d 64
        E 0 91 17 64
        E 41 80 3b 64
        E 82 91 28 64
        E 41 81 0d 64
        E 0 81 17 64
        E 0 80 37 64
        E 41 90 31 64
        E 41 81 28 64
        E 41 91 1e 64
        E 0 90 11 64
        E 0 90 1e 64
        E 41 80 31 64
        E 40 90 24 64
        E 41 80 11 64
        E 0 80 1e 64
        E 0 81 1e 64
        E 41 90 1e 64
        E 41 80 24 64
        E 41 90 24 64
        E 0 91 1e 64
        E 0 91 2f 64
        E 0 90 31 64
        E 0 90 37 64
        E 0 ff 37 64
        E 0 90 0b 64
        E 0 90 11 64
        E 0 91 0d 64
        E 82 80 1e 64
        E 82 80 31 64
        E 0 80 37 64
        E 123 90 37 64
        E 123 80 37 64
        E 82 80 24 64
        E 0 81 1e 64
        E 0 81 2f 64
        E 0 90 31 64
        E 0 90 37 64
        E 164 80 31 64
        E 0 80 37 64
        E 123 90 1e 64
        E 0 90 24 64
        E 0 91 1e 64
        E 0 91 2f 64
        E 0 90 37 64
        E 122 80 37 64
        E 123 80 0b 64
        E 0 80 11 64
        E 0 81 0d 64
        E 0 90 31 64
        E 0 90 37 64
        E 164 80 31 64
        E 0 80 37 64
        E 123 80 1e 64
        E 0 80 24 64
        E 0 81 1e 64
        E 0 81 2f 64
        E 0 90 37 64
        E 82 80 37 64
        E 123 90 1e 64
        E 0 90 24 64
        E 0 90 2c 64
        E 0 90 3f 64
        E 0 90 31 64
        E 0 90 37 64
        <X 0 0
          /w==
        >
        E 0 90 11 64
        E 164 80 31 64
        E 0 80 37 64
        E 122 90 37 64
        E 123 80 1e 64
        E 0 80 24 64
        E 0 80 2c 64
        E 0 80 3f 64
        E 0 80 37 64
        E 164 90 1e 64
        E 0 90 24 64
        E 0 90 2c 64
        E 0 90 3f 64
        E 0 90 31 64
        E 0 90 37 64
        E 123 80 1e 64
        E 0 80 24 64
        E 0 80 2c 64
        E 0 80 3f 64
        E 0 80 31 64
        E 0 80 37 64
        E 123 80 11 64
        E 0 90 30 64
        E 0 90 3a 64
        E 0 90 44 64
        E 0 90 43 64
        E 0 90 0a 64
        E 0 90 0f 64
        E 0 90 14 64
        E 0 90 1d 64
        E 0 90 22 64
        E 0 90 27 64
        E 0 90 02 64
        E 82 80 30 64
        E 0 80 3a 64
        E 0 80 44 64
        E 164 90 35 64
        E 0 90 3a 64
        E 0 90 3c 64
        E 123 80 35 64
        E 0 80 3a 64
        E 0 80 3c 64
        E 123 80 0a 64
        E 0 80 0f 64
        E 0 80 14 64
        E 0 80 1d 64
        E 0 80 22 64
        E 0 80 27 64
        E 0 90 30 64
        E 0 90 35 64
        E 0 90 37 64
        E 122 80 30 64
        E 0 80 35 64
        E 0 80 37 64
        E 164 80 43 64
        E 0 90 15 64
        E 0 90 22 64
        E 0 90 27 64
        E 0 90 30 64
        E 0 90 31 64
        E 0 90 0a 64
        E 82 90 0d 64
        E 41 80 15 64
        E 0 80 22 64
        E 0 80 27 64
        E 0 80 30 64
        E 0 80 31 64
        E 0 80 0a 64
        E 41 90 0f 64
        E 41 80 0d 64
        E 41 90 12 64
        E 0 90 22 64
        E 0 90 27 64
        E 0 90 29 64
        E 41 80 0f 64
        E 0 90 14 64
        E 41 80 22 64
        E 0 80 27 64
        E 0 80 29 64
        E 0 80 12 64
        E 41 90 1d 64
        E 41 80 14 64
        E 82 90 20 64
        E 0 90 24 64
        E 41 80 1d 64
        E 41 90 22 64
        E 41 80 24 64
        E 0 80 20 64
        E 41 90 27 64
        E 41 80 22 64
        E 41 90 2a 64
        E 0 80 02 64
        E 0 90 22 64
        E 40 80 27 64
        E 41 ff 27 64
        E 41 80 22 64
        E 0 80 2a 64
        E 41 90 30 64
        E 123 90 35 64
        E 0 90 27 64
        E 0 90 31 64
        E 41 80 30 64
        E 41 90 38 64
        E 41 80 27 64
        E 0 80 31 64
        E 0 80 35 64
        E 41 90 3a 64
        E 41 80 38 64
        E 41 90 43 64
        E 0 90 30 64
        E 0 90 35 64
        E 0 90 37 64
        E 41 80 3a 64
        E 41 80 30 64
        E 0 80 35 64
        E 0 80 37 64
        E 0 80 43 64
        E 164 90 24 64
        E 0 91 1e 64
        E 0 90 2f 64
        E 0 90 42 64
        E 0 90 37 64
        E 0 91 2f 64
        E 0 90 37 64
        E 0 90 09 64
        E 0 91 0d 64
        E 0 90 1c 64
        E 0 90 24 64
        E 82 90 35 64
        E 41 80 37 64
        E 0 81 2f 64
        E 0 80 09 64
        E 0 81 0d 64
        E 0 80 1c 64
        E 0 80 24 64
        E 0 80 37 64
        E 41 90 31 64
        E 41 80 35 64
        E 40 80 24 64
        E 0 81 1e 64
        E 0 80 2f 64
        E 0 80 42 64
        E 0 90 2f 64
        E 1 91 2f 64
        E 0 90 09 64
        E 0 91 0d 64
        E 0 90 1c 64
        E 41 80 31 64
        E 40 91 1e 64
        E 41 81 2f 64
        E 0 80 09 64
        E 0 81 0d 64
        E 0 80 1c 64
        E 0 80 2f 64
        E 82 90 28 64
        E 41 81 1e 64
        E 41 90 24 64
        E 0 90 37 64
        E 0 91 2f 64
        E 0 90 09 64
        E 0 91 0d 64
        E 41 80 28 64
        E 41 90 1e 64
        E 41 80 37 64
        E 0 81 2f 64
        E 0 80 09 64
        E 0 81 0d 64
        E 0 80 24 64
        E 41 90 1c 64
        E 41 80 1e 64
        E 0 90 1e 64
        E 0 90 24 64
        E 0 91 1e 64
        E 0 90 2f 64
        E 0 90 42 64
        E 0 91 2f 64
        E 0 90 09 64
        E 41 80 1c 64
        E 41 90 1c 64
        E 41 81 2f 64
        E 0 80 1e 64
        E 82 90 19 64
        E 41 80 1c 64
        E 41 91 0d 64
        E 0 90 37 64
        E 0 91 2f 64
        E 41 80 19 64
        E 41 90 15 64
        E 41 80 37 64
        E 0 81 2f 64
        E 0 81 0d 64
        E 41 90 11 64
        E 41 80 15 64
        E 41 90 09 64
        E 0 80 24 64
        E 0 81 1e 64
        E 0 80 2f 64
        E 0 80 42 64
        E 0 91 2f 64
        E 41 80 11 64
        E 40 80 09 64
        E 0 90 0b 64
        E 82 81 2f 64
        E 0 80 09 64
        E 41 90 06 64
        E 41 80 0b 64
        <X 41 0
          /w==
        >
        E 0 91 19 64
        E 0 91 1e 64
        E 0 90 31 64
        E 0 90 44 64
        E 0 91 2a 64
        E 0 91 2f 64
        E 0 90 0b 64
        E 0 91 08 64
        E 0 91 0d 64
        E 41 80 06 64
        E 41 90 05 64
        E 41 81 2a 64
        E 0 81 2f 64
        E 41 ff 2a 64
        E 41 80 05 64
        E 0 90 06 64
        E 0 91 2f 64
        E 82 90 0a 64
        E 41 81 19 64
        E 0 81 1e 64
        E 0 80 31 64
        E 0 80 44 64
        E 0 81 2f 64
        E 0 80 06 64
        E 82 90 0d 64
        E 41 80 0a 64
        E 41 91 19 64
        E 0 91 1e 64
        E 0 90 31 64
        E 0 90 44 64
        E 0 91 2a 64
        E 0 91 2f 64
        E 41 80 0d 64
        E 41 80 0b 64
        E 0 81 08 64
        E 0 81 0d 64
        E 41 81 19 64
        E 0 81 1e 64
        E 0 80 31 64
        E 0 80 44 64
        E 0 81 2a 64
        E 0 81 2f 64
        E 123 91 1e 64
        E 0 90 42 64
        E 0 91 2f 64
        E 0 90 44 64
        E 0 90 09 64
        E 0 90 11 64
        E 0 91 0d 64
        E 0 90 24 64
        E 0 90 1c 64
        E 81 80 1c 64
        E 0 90 23 64
        E 82 81 2f 64
        E 0 80 44 64
        E 41 90 1e 64
        E 41 80 23 64
        E 41 80 09 64
        E 0 80 11 64
        E 0 81 0d 64
        E 0 80 24 64
        E 0 90 1c 64
        E 0 90 37 64
        E 0 91 2f 64
        E 41 80 1e 64
        E 41 91 0d 64
        E 41 80 37 64
        E 0 81 2f 64
        E 0 80 1c 64
        E 41 90 15 64
        E 41 81 0d 64
        E 0 90 11 64
        E 0 90 2f 64
        E 0 90 31 64
        E 0 90 37 64
        E 0 90 03 64
        E 0 90 16 64
        E 41 80 15 64
        E 41 81 1e 64
        E 0 80 42 64
        E 0 90 0b 64
        E 82 80 2f 64
        E 0 80 31 64
        E 0 80 37 64
        E 0 80 11 64
        E 41 90 09 64
        E 41 80 0b 64
        E 41 90 0b 64
        E 0 90 1e 64
        E 0 80 03 64
        E 0 80 16 64
        E 0 91 2f 64
        E 0 90 42 64
        E 0 90 29 64
        E 0 90 2f 64
        E 0 90 31 64
        E 0 90 02 64
        E 0 90 15 64
        E 41 80 09 64
        E 41 90 09 64
        E 0 90 1c 64
        E 41 80 29 64
        E 0 80 2f 64
        E 0 80 31 64
        E 0 80 0b 64
        E 0 80 1e 64
        E 41 90 06 64
        E 0 90 19 64
        E 41 80 1c 64
        E 0 80 09 64
        E 41 90 03 64
        E 0 91 0d 64
        E 0 80 02 64
        E 0 80 15 64
        E 0 90 24 64
        E 0 91 1e 64
        E 41 80 06 64
        E 0 80 19 64
        E 81 90 15 64
        E 0 90 02 64
        E 41 80 24 64
        E 0 81 1e 64
        E 0 80 03 64
        E 0 81 0d 64
        E 41 90 11 64
        E 41 80 02 64
        E 0 80 15 64
        E 41 90 09 64
        E 0 90 1c 64
        E 0 90 24 64
        E 0 90 11 64
        E 41 80 11 64
        E 0 81 2f 64
        E 0 80 42 64
        E 41 90 0b 64
        E 41 80 1c 64
        E 0 80 24 64
        E 0 80 09 64
        E 0 90 06 64
        E 41 80 0b 64
        E 41 90 03 64
        E 0 80 11 64
        E 0 91 19 64
        E 0 91 1e 64
        E 0 90 31 64
        E 0 90 44 64
        E 0 91 0d 64
        E 0 90 1d 64
        E 0 90 1e 64
        E 0 90 08 64
        E 0 90 1b 64
        E 41 80 06 64
        E 82 90 02 64
        E 41 81 0d 64
        E 0 80 1d 64
        E 0 80 1e 64
        E 0 80 03 64
        E 41 90 03 64
        E 41 80 02 64
        E 41 90 02 64
        E 0 90 11 64
        E 0 90 15 64
        E 0 91 0d 64
        E 41 80 03 64
        E 41 81 19 64
        E 0 81 1e 64
        E 0 80 31 64
        E 0 80 44 64
        E 0 90 03 64
        E 41 80 11 64
        E 0 80 15 64
        E 0 81 0d 64
        E 0 80 02 64
        E 41 90 06 64
        E 41 80 03 64
        E 41 90 0a 64
        E 0 80 08 64
        E 0 80 1b 64
        E 0 91 19 64
        E 0 91 1e 64
        E 0 90 31 64
        E 0 90 44 64
        E 0 90 11 64
        E 0 90 02 64
        E 0 90 15 64
        E 41 80 06 64
        E 122 90 0b 64
        E 0 81 19 64
        E 0 81 1e 64
        E 0 80 31 64
        E 0 80 44 64
        E 0 80 11 64
        E 0 80 0a 64
        E 123 80 02 64
        E 0 80 15 64
        E 0 90 11 64
        E 0 90 24 64
        E 0 91 1e 64
        E 0 90 2f 64
        E 0 90 42 64
        E 0 90 37 64
        E 0 91 2f 64
        E 0 90 0a 64
        E 0 90 1d 64
        E 0 90 1d 64
        E 0 80 0b 64
        E 82 80 37 64
        E 0 81 2f 64
        E 41 90 16 64
        E 41 80 11 64
        E 41 91 2f 64
        E 0 90 11 64
        E 123 80 16 64
        E 41 81 2f 64
        E 0 90 02 64
        E 0 90 15 64
        E 0 90 10 64
        E 82 80 11 64
        E 41 80 24 64
        E 0 81 1e 64
        E 0 80 2f 64
        E 0 80 42 64
        E 0 80 1d 64
        E 0 90 0d 64
        E 0 90 37 64
        E 0 91 2f 64
        E 82 80 10 64
        E 41 80 37 64
        E 0 81 2f 64
        E 0 90 10 64
        E 82 80 0d 64
        E 41 80 02 64
        E 0 80 15 64
        E 0 80 0a 64
        E 0 80 1d 64
        E 0 90 11 64
        E 0 90 03 64
        E 0 91 0d 64
        E 0 90 24 64
        E 0 91 1e 64
        E 0 90 2f 64
        E 0 90 42 64
        E 0 91 2f 64
        E 82 80 10 64
        E 81 81 2f 64
        E 0 90 15 64
        E 41 80 11 64
        E 82 90 11 64
        E 0 90 37 64
        E 0 91 2f 64
        E 41 80 15 64
        E 41 80 03 64
        E 0 81 0d 64
        E 0 80 37 64
        E 0 81 2f 64
        E 0 90 02 64
        E 0 90 06 64
        E 0 90 19 64
        E 82 80 11 64
        E 41 80 24 64
        E 0 81 1e 64
        E 0 80 2f 64
        E 0 80 42 64
        E 0 90 03 64
        E 0 91 2f 64
        E 123 80 02 64
        E 41 81 2f 64
        E 0 90 02 64
        E 82 80 03 64
        E 41 80 06 64
        E 0 80 19 64
        E 0 90 03 64
        E 0 90 09 64
        E 0 90 1c 64
        E 0 90 1c 64
        E 0 90 24 64
        E 0 91 1e 64
        E 0 91 2f 64
        E 0 90 2f 64
        E 0 90 37 64
        E 0 90 11 64
        E 0 91 0d 64
        E 82 80 02 64
        E 41 80 2f 64
        E 0 80 37 64
        E 0 90 02 64
        E 41 80 03 64
        E 123 80 1c 64
        E 0 80 24 64
        E 0 81 1e 64
        E 0 81 2f 64
        E 0 90 03 64
        E 0 90 37 64
        E 41 80 02 64
        E 81 80 09 64
        E 0 80 1c 64
        E 0 80 37 64
        E 0 90 1e 64
        E 41 80 03 64
        E 82 90 0f 64
        E 0 90 24 64
        E 0 91 1e 64
        E 0 90 42 64
        E 0 90 2f 64
        E 0 90 37 64
        E 41 80 1e 64
        E 41 80 0f 64
        E 0 80 2f 64
        E 0 80 37 64
        E 0 90 0b 64
        E 123 80 0b 64
        E 0 80 24 64
        E 0 81 1e 64
        E 0 80 42 64
        E 0 80 11 64
        E 0 81 0d 64
        E 0 91 16 64
        E 0 90 26 64
        E 0 91 20 64
        E 0 91 27 64
        E 0 91 38 64
        E 0 90 39 64
        E 0 91 31 64
        E 0 91 05 64
        E 0 90 13 64
        E 0 91 0f 64
        E 164 80 39 64
        E 0 81 31 64
        E 0 81 05 64
        E 0 80 13 64
        E 0 81 0f 64
        E 123 90 39 64
        E 0 91 31 64
        E 0 91 05 64
        E 0 90 13 64
        E 123 80 39 64
        E 0 81 31 64
        E 0 81 05 64
        E 0 80 13 64
        E 163 91 27 64
        E 1 90 39 64
        E 0 90 13 64
        E 0 91 0e 64
        E 82 81 16 64
        E 0 80 26 64
        E 0 81 20 64
        E 0 81 27 64
        E 0 81 38 64
        E 40 81 27 64
        E 0 80 39 64
        E 0 80 13 64
        E 0 81 0e 64
        E 123 90 38 64
        E 0 90 3e 64
        E 0 90 33 64
        E 0 90 12 64
        E 0 90 18 64
        E 0 90 20 64
        E 82 80 38 64
        E 0 80 3e 64
        E 164 80 33 64
        E 0 90 33 64
        E 0 90 38 64
        E 123 80 33 64
        E 0 80 38 64
        E 123 90 38 64
        E 0 90 3e 64
        E 82 80 12 64
        E 0 80 18 64
        E 0 80 20 64
        E 41 80 38 64
        E 0 80 3e 64
        E 164 91 31 64
        E 0 91 38 64
        E 0 91 05 64
        E 0 90 13 64
        E 0 91 0f 64
        E 286 81 05 64
        E 0 80 13 64
        E 0 81 0f 64
        E 205 90 13 64
        E 0 91 0f 64
        E 0 91 16 64
        E 82 81 31 64
        E 0 81 38 64
        E 41 80 13 64
        E 0 81 0f 64
        E 0 81 16 64
        E 123 90 13 64
        E 0 91 0e 64
        E 0 90 21 64
        E 0 90 0a 64
        E 0 90 05 64
        E 287 80 05 64
        E 0 90 06 64
        E 122 80 0a 64
        E 0 91 05 64
        E 82 80 13 64
        E 0 81 0e 64
        E 0 80 21 64
        E 0 80 06 64
        E 0 90 08 64
        E 287 81 05 64
        E 0 80 08 64
        E 0 90 13 64
        E 0 91 0e 64
        E 0 90 21 64
        E 0 91 07 64
        E 0 90 0a 64
        E 246 80 0a 64
        E 0 91 05 64
        E 123 81 07 64
        E 0 90 11 64
        E 164 80 13 64
        E 0 81 0e 64
        E 0 80 21 64
        E 0 81 05 64
        E 0 90 0e 64
        E 204 80 11 64
        E 0 80 0e 64
        E 0 90 34 64
        E 0 91 28 64
        E 0 90 39 64
        E 0 91 2c 64
        E 0 90 41 64
        E 0 91 33 64
        E 0 91 0a 64
        E 0 90 21 64
        E 0 91 1b 64
        E 0 90 2e 64
        E 0 90 0b 64
        E 0 91 07 64
        E 0 90 00 64
        E 0 90 02 64
        E 0 90 01 64
        E 0 90 03 64
        E 0 90 04 64
        E 0 90 05 64
        E 0 90 06 64
        E 123 81 0a 64
        E 0 80 21 64
        E 0 81 1b 64
        E 0 80 2e 64
        E 164 80 0b 64
        E 0 81 07 64
        E 0 90 11 64
        E 123 80 34 64
        E 0 81 28 64
        E 0 80 39 64
        E 0 81 2c 64
        E 0 80 41 64
        E 0 81 33 64
        E 123 80 11 64
        E 0 80 00 64
        E 0 80 02 64
        E 0 80 01 64
        E 0 80 03 64
        E 0 80 04 64
        E 0 80 05 64
        E 0 80 06 64
        E 0 90 39 64
        E 0 91 2c 64
        E 0 90 41 64
        E 0 91 33 64
        E 0 90 47 64
        E 0 91 39 64
        E 0 90 21 64
        E 0 91 1b 64
        E 0 90 2e 64
        E 0 90 34 64
        E 0 91 0a 64
        E 164 80 39 64
        E 0 81 2c 64
        E 0 80 41 64
        E 0 81 33 64
        E 0 80 47 64
        E 0 81 39 64
        E 0 80 21 64
        E 0 81 1b 64
        E 0 80 2e 64
        E 0 80 34 64
        E 122 81 0a 64
        E 0 91 2e 64
        E 0 90 3a 64
        E 0 90 41 64
        E 0 91 33 64
        E 0 90 47 64
        E 0 91 39 64
        E 0 90 21 64
        E 0 91 1d 64
        E 0 90 2e 64
        E 0 90 34 64
        E 0 90 0e 64
        E 0 90 21 64
        E 1 90 00 64
        E 0 90 02 64
        E 0 90 01 64
        E 0 90 03 64
        E 0 90 04 64
        E 0 90 05 64
        E 0 90 06 64
        E 122 91 05 64
        E 0 91 16 64
        E 0 80 21 64
        E 0 81 1d 64
        E 0 80 2e 64
        E 0 80 34 64
        E 41 80 0e 64
        E 0 80 21 64
        E 41 90 0b 64
        E 0 90 1e 64
        E 82 81 05 64
        E 0 81 16 64
        E 82 90 0a 64
        E 0 90 1d 64
        E 82 80 0b 64
        E 0 80 1e 64
        E 41 81 2e 64
        E 0 80 3a 64
        E 0 80 41 64
        E 0 81 33 64
        E 0 80 47 64
        E 0 81 39 64
        E 0 80 00 64
        E 0 80 02 64
        E 0 80 01 64
        E 0 80 03 64
        E 0 80 04 64
        E 0 80 05 64
        E 0 80 06 64
        E 0 90 08 64
        E 0 90 1b 64
        E 82 80 0a 64
        E 0 80 1d 64
        E 41 90 19 64
        E 82 80 08 64
        E 0 80 1b 64
        E 41 90 34 64
        E 0 91 28 64
        E 0 91 2e 64
        E 0 90 3a 64
        E 0 90 41 64
        E 0 91 33 64
        E 0 91 0c 64
        E 0 90 21 64
        E 0 91 1d 64
        E 0 90 2e 64
        E 0 91 0e 64
        E 0 90 00 64
        E 0 90 02 64
        E 0 90 01 64
        E 0 90 03 64
        E 0 90 04 64
        E 0 90 05 64
        E 0 90 06 64
        E 41 80 19 64
        E 123 91 0c 64
        E 0 81 0c 64
        E 0 80 21 64
        E 0 81 1d 64
        E 0 80 2e 64
        E 41 81 0e 64
        E 82 90 11 64
        E 40 81 0c 64
        E 82 90 0e 64
        E 41 80 11 64
        E 41 80 34 64
        E 0 81 28 64
        E 0 81 2e 64
        E 0 80 3a 64
        E 0 80 41 64
        E 0 81 33 64
        E 0 80 00 64
        E 0 80 02 64
        E 0 80 01 64
        E 0 80 03 64
        E 0 80 04 64
        E 0 80 05 64
        E 0 80 06 64
        E 0 90 0b 64
        E 82 80 0e 64
        E 82 90 08 64
        E 82 80 0b 64
        E 41 90 21 64
        E 0 91 1d 64
        E 0 90 2e 64
        E 0 90 0e 64
        E 0 91 0c 64
        E 0 90 1b 64
        E 0 90 04 64
        E 82 80 08 64
        E 41 90 03 64
        E 0 80 21 64
        E 0 81 1d 64
        E 0 80 2e 64
        E 82 80 04 64
        E 41 90 0b 64
        E 41 80 03 64
        E 123 91 07 64
        E 41 80 0b 64
        E 82 80 0e 64
        E 0 81 0c 64
        E 0 80 1b 64
        E 0 90 0e 64
        E 40 81 07 64
        E 41 90 0b 64
        E 82 80 0e 64
        E 41 90 29 64
        E 0 91 1f 64
        E 0 90 31 64
        E 0 90 37 64
        E 0 90 16 64
        E 0 91 0e 64
        E 0 90 1e 64
        E 0 90 24 64
        E 0 91 07 64
        E 123 80 0b 64
        E 41 80 29 64
        E 0 81 1f 64
        E 0 80 31 64
        E 0 80 37 64
        E 123 81 07 64
        E 0 90 00 64
        E 0 90 13 64
        E 246 80 16 64
        E 0 81 0e 64
        E 0 80 1e 64
        E 0 80 24 64
        E 0 80 00 64
        E 0 80 13 64
        E 0 90 01 64
        E 0 91 0c 64
        E 286 80 01 64
        E 0 81 0c 64
        E 0 90 29 64
        E 0 91 1f 64
        E 0 90 31 64
        E 0 90 37 64
        E 0 90 16 64
        E 0 91 0e 64
        E 0 90 1e 64
        E 0 90 24 64
        E 0 90 03 64
        E 123 80 29 64
        E 0 81 1f 64
        E 0 80 31 64
        E 0 80 37 64
        E 82 80 03 64
        E 0 90 06 64
        E 287 80 16 64
        E 0 81 0e 64
        E 0 80 1e 64
        E 0 80 24 64
        E 0 80 06 64
        E 0 90 08 64
        E 246 80 08 64
        E 0 90 37 64
        E 0 90 29 64
        E 0 91 1e 64
        E 0 91 2b 64
        E 0 91 30 64
        E 0 90 3e 64
        E 0 90 44 64
        E 0 91 36 64
        E 0 90 16 64
        E 0 90 24 64
        E 0 91 1f 64
        E 0 90 31 64
        E 0 90 0a 64
        E 0 90 00 64
        E 0 90 02 64
        E 0 90 01 64
        E 0 90 03 64
        E 0 90 04 64
        E 0 90 05 64
        E 0 90 06 64
        E 164 80 16 64
        E 0 80 24 64
        E 0 81 1f 64
        E 0 80 31 64
        E 123 80 0a 64
        E 0 91 05 64
        E 81 80 29 64
        E 0 81 1e 64
        E 0 80 37 64
        E 0 81 2b 64
        E 0 81 30 64
        E 0 80 3e 64
        E 0 80 44 64
        E 0 81 36 64
        E 123 81 05 64
        E 0 80 00 64
        E 0 80 02 64
        E 0 80 01 64
        E 0 80 03 64
        E 0 80 04 64
        E 0 80 05 64
        E 0 80 06 64
        E 0 90 31 64
        E 0 91 25 64
        E 0 90 3c 64
        E 0 91 2f 64
        E 0 91 30 64
        E 0 90 3e 64
        E 0 90 4a 64
        E 0 91 3c 64
        E 0 90 1e 64
        E 0 90 29 64
        E 0 91 1f 64
        E 0 90 37 64
        E 0 91 07 64
        E 164 80 31 64
        E 0 81 25 64
        E 0 80 3c 64
        E 0 81 2f 64
        E 0 81 30 64
        E 0 80 3e 64
        E 0 80 4a 64
        E 0 81 3c 64
        E 0 80 1e 64
        E 0 80 29 64
        E 0 81 1f 64
        E 0 80 37 64
        E 123 81 07 64
        E 0 90 13 64
        E 0 90 0e 64
        E 0 90 30 64
        E 0 91 24 64
        E 0 91 30 64
        E 0 90 3e 64
        E 0 90 43 64
        E 0 91 35 64
        E 0 90 44 64
        E 0 91 36 64
        E 0 90 4b 64
        E 0 91 3d 64
        E 0 90 0a 64
        E 0 91 0e 64
        E 0 90 1d 64
        E 0 90 1e 64
        E 0 90 26 64
        E 123 90 19 64
        E 0 80 0a 64
        E 0 81 0e 64
        E 0 80 1d 64
        E 0 80 1e 64
        E 0 80 26 64
        E 41 80 13 64
        E 123 80 0e 64
        E 0 90 13 64
        E 0 91 05 64
        E 41 80 19 64
        E 82 90 0e 64
        E 0 90 34 64
        E 41 80 13 64
        E 82 81 05 64
        E 0 80 30 64
        E 0 81 24 64
        E 0 81 30 64
        E 0 80 3e 64
        E 0 80 43 64
        E 0 81 35 64
        E 0 80 44 64
        E 0 81 36 64
        E 0 80 4b 64
        E 0 81 3d 64
        E 0 90 13 64
        E 0 90 0b 64
        E 0 90 39 64
        E 40 80 0e 64
        E 0 80 34 64
        E 41 90 0e 64
        E 0 90 3f 64
        E 82 80 13 64
        E 0 80 39 64
        E 82 80 0b 64
        E 0 90 05 64
        E 0 90 0a 64
        E 0 90 38 64
        E 0 90 39 64
        E 0 90 3d 64
        E 0 91 30 64
        E 0 90 25 64
        E 0 90 34 64
        E 0 90 47 64
        E 0 90 17 64
        E 0 90 25 64
        E 82 80 0e 64
        E 0 80 3f 64
        E 41 80 38 64
        E 0 80 39 64
        E 0 80 3d 64
        E 42 81 30 64
        E 0 90 0e 64
        E 0 80 17 64
        E 0 80 25 64
        E 40 80 05 64
        E 41 80 0a 64
        E 0 90 05 64
        E 0 90 08 64
        E 0 90 38 64
        E 0 90 39 64
        E 0 90 3d 64
        E 0 91 30 64
        E 0 90 12 64
        E 0 90 17 64
        E 0 90 25 64
        E 82 80 0e 64
        E 41 80 38 64
        E 0 80 39 64
        E 0 80 3d 64
        E 0 81 30 64
        E 0 90 03 64
        E 0 80 12 64
        E 0 80 17 64
        E 0 80 25 64
        E 41 80 05 64
        E 123 80 08 64
        E 0 80 25 64
        E 0 80 34 64
        E 0 80 47 64
        E 0 90 12 64
        E 0 90 17 64
        E 0 90 05 64
        E 0 90 06 64
        E 0 90 29 64
        E 0 91 1e 64
        E 0 90 38 64
        E 0 90 39 64
        E 0 90 3d 64
        E 0 91 30 64
        E 0 90 03 64
        E 41 80 03 64
        E 82 80 29 64
        E 0 81 1e 64
        E 0 80 38 64
        E 0 80 39 64
        E 0 80 3d 64
        E 0 81 30 64
        E 0 90 00 64
        E 0 90 13 64
        E 0 80 12 64
        E 0 80 17 64
        E 0 80 03 64
        E 41 80 05 64
        E 41 80 06 64
        E 0 90 06 64
        E 0 90 0d 64
        E 0 90 13 64
        E 0 90 11 64
        E 0 90 04 64
        E 0 90 2c 64
        E 0 91 21 64
        E 0 90 33 64
        E 0 91 27 64
        E 0 90 39 64
        E 0 91 2c 64
        E 0 90 26 64
        E 0 91 1f 64
        E 0 90 34 64
        E 81 80 00 64
        E 0 80 13 64
        E 41 90 13 64
        E 0 80 06 64
        E 0 80 0d 64
        E 0 80 13 64
        E 82 80 11 64
        E 82 80 04 64
        E 0 91 02 64
        E 0 90 03 64
        E 82 80 13 64
        E 41 80 26 64
        E 0 81 1f 64
        E 0 80 34 64
        E 0 90 0e 64
        E 82 81 02 64
        E 41 80 03 64
        E 0 80 2c 64
        E 0 81 21 64
        E 0 80 33 64
        E 0 81 27 64
        E 0 80 39 64
        E 0 81 2c 64
        E 0 91 05 64
        E 0 90 02 64
        E 0 91 1f 64
        E 0 90 34 64
        E 0 90 39 64
        E 41 80 0e 64
        E 82 81 1f 64
        E 0 80 34 64
        E 0 80 39 64
        E 0 90 0b 64
        E 41 81 05 64
        E 123 80 02 64
        E 0 90 2c 64
        E 0 90 34 64
        E 0 90 19 64
        E 0 90 26 64
        E 0 90 21 64
        E 0 90 0e 64
        E 41 80 0b 64
        E 82 90 11 64
        E 0 80 0e 64
        E 41 80 2c 64
        E 0 80 34 64
        E 0 80 19 64
        E 0 80 26 64
        E 0 90 06 64
        E 0 90 19 64
        E 41 90 00 64
        E 0 90 13 64
        E 41 80 11 64
        E 81 80 21 64
        E 0 80 06 64
        E 0 80 19 64
        E 0 90 24 64
        E 0 90 03 64
        E 0 90 16 64
        E 0 80 00 64
        E 0 80 13 64
        E 164 90 2c 64
        E 0 90 39 64
        E 0 90 06 64
        E 0 90 19 64
        E 0 80 03 64
        E 0 80 16 64
        E 82 80 24 64
        E 41 90 08 64
        E 0 90 1b 64
        E 0 80 06 64
        E 0 80 19 64
        E 41 80 2c 64
        E 0 80 39 64
        E 82 90 2c 64
        E 0 90 37 64
        E 0 90 19 64
        E 0 90 21 64
        E 0 90 26 64
        E 0 90 13 64
        E 0 91 05 64
        E 0 80 08 64
        E 0 80 1b 64
        E 123 90 0e 64
        E 0 81 05 64
        E 82 80 2c 64
        E 0 80 37 64
        E 0 80 19 64
        E 0 80 21 64
        E 0 80 26 64
        E 0 80 13 64
        E 82 90 11 64
        E 0 80 0e 64
        E 123 90 19 64
        E 0 90 13 64
        E 0 80 11 64
        E 82 90 2c 64
        E 0 90 34 64
        E 0 90 16 64
        E 0 80 13 64
        E 82 80 19 64
        E 40 91 0e 64
        E 0 80 16 64
        E 123 80 2c 64
        E 0 80 34 64
        E 41 90 2c 64
        E 0 91 21 64
        E 0 90 39 64
        E 0 91 2c 64
        E 0 90 47 64
        E 0 91 39 64
        E 0 90 21 64
        E 0 90 26 64
        E 0 90 34 64
        E 0 90 13 64
        E 0 90 19 64
        E 0 90 00 64
        E 0 90 06 64
        E 0 81 0e 64
        E 123 90 1b 64
        E 0 80 21 64
        E 0 80 26 64
        E 0 80 34 64
        E 123 80 00 64
        E 0 80 06 64
        E 0 90 1d 64
        E 41 80 19 64
        E 82 80 2c 64
        E 0 81 21 64
        E 0 80 39 64
        E 0 81 2c 64
        E 0 80 47 64
        E 0 81 39 64
        E 0 80 13 64
        E 0 90 0e 64
        E 0 90 1e 64
        E 82 80 1b 64
        E 82 90 34 64
        E 0 91 28 64
        E 0 90 3f 64
        E 0 91 32 64
        E 0 90 4b 64
        E 0 91 3d 64
        E 0 90 21 64
        E 0 90 26 64
        E 0 90 2c 64
        E 0 90 39 64
        E 0 91 16 64
        E 0 90 00 64
        E 41 80 1d 64
        E 82 80 34 64
        E 0 81 28 64
        E 0 80 3f 64
        E 0 81 32 64
        E 0 80 4b 64
        E 0 81 3d 64
        E 0 90 21 64
        E 0 80 21 64
        E 0 80 26 64
        E 0 80 2c 64
        E 0 80 39 64
        E 41 80 1e 64
        E 41 80 0e 64
        E 0 80 00 64
        E 0 90 3b 64
        E 0 91 2e 64
        E 0 90 3f 64
        E 0 91 32 64
        E 0 90 46 64
        E 0 91 38 64
        E 0 90 28 64
        E 0 91 21 64
        E 0 90 32 64
        E 0 90 15 64
        E 0 90 1f 64
        E 0 90 02 64
        E 0 90 06 64
        E 41 81 16 64
        E 81 80 15 64
        E 0 80 1f 64
        E 0 80 28 64
        E 0 81 21 64
        E 0 80 32 64
        E 82 80 21 64
        E 82 90 15 64
        E 123 80 02 64
        E 0 80 06 64
        E 123 80 3b 64
        E 0 81 2e 64
        E 0 80 3f 64
        E 0 81 32 64
        E 0 80 46 64
        E 0 81 38 64
        E 0 80 15 64
        E 0 90 06 64
        E 0 90 0c 64
        E 0 90 19 64
        E 287 80 06 64
        E 0 80 0c 64
        E 0 80 19 64
        E 0 90 33 64
        E 0 91 27 64
        E 0 90 3b 64
        E 0 91 2e 64
        E 0 90 3f 64
        E 0 91 32 64
        E 0 90 46 64
        E 0 91 38 64
        E 0 90 46 64
        E 0 91 38 64
        E 0 90 1f 64
        E 0 90 28 64
        E 0 91 21 64
        E 0 90 32 64
        E 0 90 04 64
        E 0 90 06 64
        E 0 90 0a 64
        E 0 90 17 64
        E 82 80 04 64
        E 0 80 06 64
        E 0 90 02 64
        E 41 80 1f 64
        E 0 80 28 64
        E 0 81 21 64
        E 0 80 32 64
        E 82 80 33 64
        E 0 81 27 64
        E 0 80 3b 64
        E 0 81 2e 64
        E 0 80 3f 64
        E 0 81 32 64
        E 0 80 46 64
        E 0 81 38 64
        E 0 80 46 64
        E 0 81 38 64
        E 0 90 2c 64
        E 0 91 21 64
        E 0 91 10 64
        E 81 90 04 64
        E 0 80 02 64
        E 82 90 33 64
        E 0 91 27 64
        E 0 90 1f 64
        E 0 81 10 64
        E 123 80 0a 64
        E 0 80 17 64
        E 0 90 28 64
        E 0 90 3b 64
        E 0 91 2e 64
        E 0 90 02 64
        E 0 90 06 64
        E 0 90 15 64
        E 0 80 1f 64
        E 0 80 04 64
        E 41 80 2c 64
        E 0 81 21 64
        E 82 80 28 64
        E 41 80 33 64
        E 0 81 27 64
        E 0 90 04 64
        E 0 80 02 64
        E 82 80 06 64
        E 0 80 15 64
        E 0 90 3b 64
        E 0 91 21 64
        E 0 90 32 64
        E 0 91 10 64
        E 0 90 1f 64
        E 0 90 28 64
        E 0 90 0c 64
        E 0 90 13 64
        E 41 80 3b 64
        E 0 81 2e 64
        E 123 90 06 64
        E 0 81 21 64
        E 0 80 32 64
        E 0 80 3b 64
        E 0 80 04 64
        E 82 90 02 64
        E 82 80 06 64
        E 41 81 10 64
        E 0 80 1f 64
        E 0 80 28 64
        E 82 80 02 64
        E 0 90 06 64
        E 41 90 32 64
        E 0 90 3b 64
        E 0 91 32 64
        E 0 90 1f 64
        E 0 90 28 64
        E 0 91 21 64
        E 163 80 06 64
        E 0 90 0a 64
        E 0 80 1f 64
        E 0 80 28 64
        E 0 81 21 64
        E 0 80 32 64
        E 0 80 3b 64
        E 0 81 32 64
        E 123 80 0c 64
        E 0 80 13 64
        E 0 90 3f 64
        E 0 91 36 64
        E 0 91 3c 64
        E 0 90 24 64
        E 0 90 2c 64
        E 0 91 25 64
        E 0 91 2b 64
        E 0 90 06 64
        E 0 91 09 64
        E 82 80 0a 64
        E 41 90 0a 64
        E 0 80 3f 64
        E 0 81 36 64
        E 0 81 3c 64
        E 41 80 06 64
        E 41 81 09 64
        E 0 90 19 64
        E 41 80 24 64
        E 0 80 2c 64
        E 0 81 25 64
        E 0 81 2b 64
        E 0 91 03 64
        E 41 91 14 64
        E 0 80 0a 64
        E 123 91 07 64
        E 0 80 19 64
        E 0 90 1d 64
        E 41 81 03 64
        E 41 81 14 64
        E 41 90 13 64
        E 0 90 0e 64
        E 41 81 07 64
        E 41 80 1d 64
        E 0 90 02 64
        E 0 90 15 64
        E 41 90 13 64
        E 41 80 13 64
        E 41 80 0e 64
        E 0 91 2b 64
        E 0 90 3f 64
        E 0 91 36 64
        E 0 90 4b 64
        E 0 91 1a 64
        E 0 90 2c 64
        E 0 91 25 64
        E 0 90 39 64
        E 0 90 04 64
        E 40 90 11 64
        E 82 80 02 64
        E 0 80 15 64
        E 0 80 11 64
        E 41 80 13 64
        E 0 90 06 64
        E 0 81 2b 64
        E 0 80 3f 64
        E 0 81 36 64
        E 0 80 4b 64
        E 82 80 04 64
        E 41 91 07 64
        E 0 81 1a 64
        E 0 80 2c 64
        E 0 81 25 64
        E 0 80 39 64
        E 0 90 0a 64
        E 82 80 06 64
        E 41 91 03 64
        E 41 81 07 64
        E 0 91 0c 64
        E 0 80 0a 64
        E 82 81 0c 64
        E 0 90 0e 64
        E 82 81 03 64
        E 82 91 07 64
        E 41 80 0e 64
        E 82 90 3f 64
        E 0 91 32 64
        E 0 90 44 64
        E 0 91 36 64
        E 0 90 4a 64
        E 0 91 3c 64
        E 0 91 14 64
        E 0 91 1a 64
        E 0 90 2c 64
        E 0 91 25 64
        E 0 91 2b 64
        E 0 90 3c 64
        E 0 91 09 64
        E 41 81 07 64
        E 41 91 0c 64
        E 0 81 14 64
        E 0 81 1a 64
        E 0 80 2c 64
        E 0 81 25 64
        E 0 81 2b 64
        E 0 80 3c 64
        E 122 91 09 64
        E 0 90 16 64
        E 82 81 09 64
        E 41 80 3f 64
        E 0 81 32 64
        E 0 80 44 64
        E 0 81 36 64
        E 0 80 4a 64
        E 0 81 3c 64
        E 0 90 0b 64
        E 41 91 0e 64
        E 41 81 0c 64
        E 41 81 09 64
        E 41 80 0b 64
        E 0 90 06 64
        E 0 90 3f 64
        E 0 91 32 64
        E 0 90 44 64
        E 0 91 36 64
        E 0 90 4a 64
        E 0 91 3c 64
        E 0 91 1a 64
        E 0 90 2c 64
        E 0 91 25 64
        E 0 91 2b 64
        E 0 90 19 64
        E 41 80 16 64
        E 82 80 3f 64
        E 0 81 32 64
        E 0 80 44 64
        E 0 81 36 64
        E 0 80 4a 64
        E 0 81 3c 64
        E 0 90 1d 64
        E 0 81 1a 64
        E 0 80 2c 64
        E 0 81 25 64
        E 0 81 2b 64
        E 41 81 0e 64
        E 0 80 06 64
        E 82 90 2d 64
        E 0 90 33 64
        E 0 90 35 64
        E 0 90 37 64
        E 0 90 29 64
        E 0 91 05 64
        E 0 91 16 64
        E 0 90 3c 64
        E 0 91 2f 64
        E 82 80 19 64
        E 82 80 2d 64
        E 0 80 33 64
        E 0 80 35 64
        E 0 80 37 64
        E 0 80 29 64
        E 41 80 1d 64
        E 0 90 0b 64
        E 0 90 1e 64
        E 0 81 05 64
        E 0 81 16 64
        E 164 90 0a 64
        E 0 90 1d 64
        E 0 80 0b 64
        E 0 80 1e 64
        E 123 80 3c 64
        E 0 81 2f 64
        E 0 90 26 64
        E 0 90 39 64
        E 0 91 2c 64
        E 122 90 08 64
        E 0 90 1b 64
        E 0 80 0a 64
        E 0 80 1d 64
        E 41 80 26 64
        E 123 80 39 64
        E 0 81 2c 64
        E 0 90 24 64
        E 0 90 29 64
        E 0 90 2d 64
        E 0 90 33 64
        E 0 90 2c 64
        E 0 90 30 64
        E 0 90 06 64
        E 0 90 19 64
        E 0 90 3f 64
        E 0 91 32 64
        E 0 90 43 64
        E 0 91 35 64
        E 0 80 08 64
        E 0 80 1b 64
        E 123 80 24 64
        E 0 80 29 64
        E 0 80 2d 64
        E 0 80 33 64
        E 0 80 2c 64
        E 0 80 30 64
        E 41 90 05 64
        E 0 91 0e 64
        E 0 80 06 64
        E 0 80 19 64
        E 246 80 3f 64
        E 0 81 32 64
        E 0 80 43 64
        E 0 81 35 64
        E 0 90 03 64
        E 0 90 16 64
        E 0 80 05 64
        E 0 81 0e 64
        E 82 91 32 64
        E 0 90 2c 64
        E 0 90 3f 64
        E 82 90 01 64
        E 0 91 0c 64
        E 0 80 03 64
        E 0 80 16 64
        E 41 80 2c 64
        E 163 80 3f 64
        E 0 81 32 64
        E 0 90 44 64
        E 0 91 30 64
        E 0 90 31 64
        E 0 90 1e 64
        E 0 90 24 64
        E 0 90 26 64
        E 0 90 28 64
        E 0 90 00 64
        E 0 90 13 64
        E 1 80 01 64
        E 0 81 0c 64
        E 122 81 30 64
        E 0 80 00 64
        E 0 80 13 64
        E 0 80 44 64
        E 123 91 07 64
        E 123 80 1e 64
        E 0 80 24 64
        E 0 80 26 64
        E 0 80 28 64
        E 0 81 07 64
        E 164 90 39 64
        E 0 90 21 64
        E 0 90 26 64
        E 0 90 28 64
        E 0 90 2a 64
        E 123 80 39 64
        E 82 80 31 64
        E 0 80 21 64
        E 0 80 26 64
        E 0 80 28 64
        E 0 80 2a 64
        E 0 90 20 64
        E 0 90 11 64
        E 0 90 17 64
        E 287 80 20 64
        E 0 90 1e 64
        E 245 80 1e 64
        E 0 80 11 64
        E 0 80 17 64
        E 0 90 20 64
        E 287 80 20 64
        E 0 91 19 64
        E 0 90 05 64
        E 0 90 0b 64
        E 0 91 0e 64
        E 205 81 19 64
        E 0 90 20 64
        E 287 80 20 64
        E 0 80 05 64
        E 0 80 0b 64
        E 0 81 0e 64
        E 0 91 19 64
        E 245 81 19 64
        E 0 90 24 64
        E 0 91 09 64
        E 0 90 18 64
        E 0 90 20 64
        E 287 80 24 64
        E 0 90 22 64
        E 205 80 22 64
        E 0 81 09 64
        E 0 80 18 64
        E 0 80 20 64
        E 0 90 24 64
        E 287 80 24 64
        E 0 90 26 64
        E 0 90 13 64
        E 0 91 0f 64
        E 0 91 14 64
        E 122 80 13 64
        E 0 81 0f 64
        E 0 81 14 64
        E 82 80 26 64
        E 41 91 0d 64
        E 0 90 24 64
        E 205 81 0d 64
        E 0 80 24 64
        E 82 91 0f 64
        E 0 90 26 64
        E 164 81 0f 64
        E 0 80 26 64
        E 41 90 11 64
        E 0 91 1e 64
        E 0 90 0b 64
        E 0 91 0d 64
        E 0 90 1e 64
        E 123 80 0b 64
        E 0 81 0d 64
        E 0 80 1e 64
        E 123 80 11 64
        E 0 81 1e 64
        E 41 90 0e 64
        E 0 91 1b 64
        E 163 80 0e 64
        E 0 81 1b 64
        E 82 90 11 64
        E 0 91 1e 64
        E 205 80 11 64
        E 0 81 1e 64
        E 82 91 20 64
        E 0 90 13 64
        E 0 91 14 64
        E 0 90 26 64
        E 82 80 13 64
        E 0 81 14 64
        E 0 80 26 64
        E 82 81 20 64
        E 41 90 11 64
        E 0 90 1c 64
        E 0 91 1e 64
        E 246 80 11 64
        E 0 80 1c 64
        E 0 81 1e 64
        E 41 90 13 64
        E 0 91 14 64
        E 0 91 1f 64
        E 163 80 13 64
        E 0 81 14 64
        E 0 81 1f 64
        E 82 90 28 64
        E 0 91 1d 64
        E 0 90 33 64
        E 0 91 27 64
        E 0 90 3b 64
        E 0 91 2e 64
        E 0 90 3f 64
        E 0 91 32 64
        E 0 90 15 64
        E 0 90 20 64
        E 0 90 2c 64
        E 164 80 15 64
        E 0 80 20 64
        E 0 80 2c 64
        E 123 90 26 64
        E 0 91 1b 64
        E 0 91 25 64
        E 0 90 3c 64
        E 0 91 2f 64
        E 0 91 30 64
        E 0 90 3e 64
        E 0 90 13 64
        E 0 90 1e 64
        E 0 90 29 64
        E 0 91 1f 64
        E 0 90 31 64
        E 41 80 28 64
        E 0 81 1d 64
        E 0 80 33 64
        E 0 81 27 64
        E 0 80 3b 64
        E 0 81 2e 64
        E 0 80 3f 64
        E 0 81 32 64
        E 41 80 13 64
        E 0 80 1e 64
        E 0 80 29 64
        E 0 81 1f 64
        E 123 90 24 64
        E 0 91 1a 64
        E 0 90 28 64
        E 0 91 1d 64
        E 0 90 33 64
        E 0 91 27 64
        E 0 90 3b 64
        E 0 91 2e 64
        E 0 90 3f 64
        E 0 91 32 64
        E 0 90 11 64
        E 0 90 15 64
        E 0 90 20 64
        E 0 90 2c 64
        E 41 80 26 64
        E 0 81 1b 64
        E 0 80 31 64
        E 0 81 25 64
        E 0 80 3c 64
        E 0 81 2f 64
        E 0 81 30 64
        E 0 80 3e 64
        E 123 80 11 64
        E 0 80 15 64
        E 0 80 20 64
        E 0 80 2c 64
        E 122 91 18 64
        E 0 90 23 64
        E 0 90 29 64
        E 0 91 1e 64
        E 0 90 2e 64
        E 0 91 22 64
        E 0 91 29 64
        E 0 90 36 64
        E 0 90 3c 64
        E 1 91 2f 64
        E 0 90 41 64
        E 0 91 33 64
        E 0 91 07 64
        E 0 90 16 64
        E 0 90 1b 64
        E 0 90 29 64
        E 40 80 24 64
        E 0 81 1a 64
        E 0 80 28 64
        E 0 81 1d 64
        E 1 80 33 64
        E 0 81 27 64
        E 0 80 3b 64
        E 0 81 2e 64
        E 0 80 3f 64
        E 0 81 32 64
        E 81 81 07 64
        E 0 80 16 64
        E 0 80 1b 64
        E 0 80 29 64
        E 123 91 1e 64
        E 0 90 21 64
        E 0 91 17 64
        E 0 90 29 64
        E 0 90 30 64
        E 0 91 24 64
        E 0 90 37 64
        E 0 91 2b 64
        E 0 90 3b 64
        E 0 91 2e 64
        E 0 91 30 64
        E 0 90 3e 64
        E 0 90 0e 64
        E 0 90 16 64
        E 0 90 1d 64
        E 0 90 24 64
        E 0 90 28 64
        E 0 91 1f 64
        E 41 80 3c 64
        E 0 81 22 64
        E 0 81 18 64
        E 0 80 23 64
        E 0 80 29 64
        E 0 81 1e 64
        E 0 80 2e 64
        E 0 81 29 64
        E 0 80 36 64
        E 0 81 2f 64
        E 0 80 41 64
        E 0 81 33 64
        E 123 80 0e 64
        E 0 80 16 64
        E 0 80 1d 64
        E 0 80 24 64
        E 0 80 28 64
        E 0 81 1f 64
        E 82 91 16 64
        E 0 90 1f 64
        E 0 91 18 64
        E 0 90 23 64
        E 0 90 29 64
        E 0 91 1e 64
        E 0 90 2e 64
        E 0 91 22 64
        E 0 91 29 64
        E 0 90 36 64
        E 0 90 39 64
        E 0 91 2c 64
        E 0 90 41 64
        E 0 91 33 64
        E 0 91 05 64
        E 0 91 07 64
        E 0 90 16 64
        E 0 90 1b 64
        E 82 80 21 64
        E 0 81 17 64
        E 0 80 29 64
        E 0 81 1e 64
        E 0 80 30 64
        E 0 81 24 64
        E 0 80 37 64
        E 0 81 2b 64
        E 0 80 3b 64
        E 0 81 2e 64
        E 0 81 30 64
        E 0 80 3e 64
        E 41 81 05 64
        E 0 81 07 64
        E 0 80 16 64
        E 0 80 1b 64
        E 123 90 1e 64
        E 0 91 14 64
        E 0 90 24 64
        E 0 91 1a 64
        E 0 90 2c 64
        E 0 91 21 64
        E 0 90 37 64
        E 0 91 2b 64
        E 0 90 3f 64
        E 0 91 32 64
        E 0 90 44 64
        E 0 91 36 64
        E 0 90 0b 64
        E 0 90 11 64
        E 0 90 19 64
        E 0 90 31 64
        E 41 81 16 64
        E 0 80 1f 64
        E 0 81 18 64
        E 0 80 23 64
        E 0 80 29 64
        E 0 81 1e 64
        E 0 80 2e 64
        E 0 81 22 64
        E 0 81 29 64
        E 0 80 36 64
        E 0 80 39 64
        E 0 81 2c 64
        E 0 80 41 64
        E 0 81 33 64
        E 123 80 0b 64
        E 0 80 11 64
        E 0 80 19 64
        E 0 80 31 64
        E 123 90 1d 64
        E 0 91 13 64
        E 0 90 22 64
        E 0 91 18 64
        E 0 90 26 64
        E 0 91 1b 64
        E 0 90 2e 64
        E 0 91 22 64
        E 0 90 39 64
        E 0 91 2c 64
        E 0 90 3b 64
        E 0 91 2e 64
        E 0 90 43 64
        E 0 91 35 64
        E 0 90 0a 64
        E 0 90 0f 64
        E 0 90 13 64
        E 0 90 1b 64
        E 0 90 28 64
        E 0 90 30 64
        E 40 80 1e 64
        E 0 81 14 64
        E 0 80 24 64
        E 1 81 1a 64
        E 0 80 2c 64
        E 0 81 21 64
        E 0 80 37 64
        E 0 81 2b 64
        E 0 80 3f 64
        E 0 81 32 64
        E 0 80 44 64
        E 0 81 36 64
        E 81 80 0a 64
        E 0 80 0f 64
        E 0 80 13 64
        E 0 80 1b 64
        E 0 80 28 64
        E 0 80 30 64
        E 123 90 1a 64
        E 0 90 1b 64
        E 0 90 1d 64
        E 0 91 13 64
        E 0 90 24 64
        E 0 91 1a 64
        E 0 90 28 64
        E 0 91 1d 64
        E 0 90 33 64
        E 0 91 27 64
        E 0 90 34 64
        E 0 91 28 64
        E 0 90 3c 64
        E 0 91 2f 64
        E 0 90 44 64
        E 0 91 36 64
        E 0 90 07 64
        E 0 90 0a 64
        E 0 90 11 64
        E 0 90 15 64
        E 0 90 20 64
        E 0 90 21 64
        E 0 90 29 64
        E 0 90 31 64
        E 82 80 1d 64
        E 0 81 13 64
        E 0 80 22 64
        E 0 81 18 64
        E 0 80 26 64
        E 0 81 1b 64
        E 0 80 2e 64
        E 0 81 22 64
        E 0 80 39 64
        E 0 81 2c 64
        E 0 80 3b 64
        E 0 81 2e 64
        E 0 80 43 64
        E 0 81 35 64
        E 82 80 07 64
        E 0 80 0a 64
        E 0 80 11 64
        E 0 80 15 64
        E 0 80 20 64
        E 0 80 21 64
        E 0 80 29 64
        E 0 80 31 64
        E 164 80 1a 64
        E 0 80 1b 64
        E 0 80 1d 64
        E 0 81 13 64
        E 0 80 24 64
        E 0 81 1a 64
        E 0 80 28 64
        E 0 81 1d 64
        E 0 80 33 64
        E 0 81 27 64
        E 0 80 34 64
        E 0 81 28 64
        E 0 80 3c 64
        E 0 81 2f 64
        E 0 80 44 64
        E 0 81 36 64
        E 4751 90 34 64
        E 901 80 34 64
        E 0 90 3b 64
        E 942 80 3b 64
        E 0 90 41 64
        E 943 80 41 64
        E 0 90 47 64
        E 1638 80 47 64
        E 3768 90 34 64
        E 0 91 28 64
        E 942 80 34 64
        E 0 81 28 64
        E 0 90 3b 64
        E 0 91 2e 64
        E 943 80 3b 64
        E 0 81 2e 64
        E 0 90 41 64
        E 0 91 33 64
        E 942 80 41 64
        E 0 81 33 64
        E 5365 90 47 64
        E 246 80 47 64
        E 0 90 24 64
        E 205 80 24 64
        E 0 90 00 64
        E 287 80 00 64
        E 132505 b0 7b 00
        CCINTERP 32
        CHASE_CC_TAKEOFFS 1
        GUID {8B325344-0FD8-A037-56DB-42D99BC5ACF8}
        IGNTEMPO 0 120 4 4
        SRCCOLOR 5
      >
    >
  >
>
