<REAPER_PROJECT 0.1 "6.23/win64" 1641586423
  RIPPLE 0
  GROUPOVERRIDE 0 0 0
  AUTOXFADE 1
  ENVATTACH 0
  POOLEDENVATTACH 0
  MIXERUIFLAGS 11 48
  PEAKGAIN 1
  FEEDBACK 0
  PANLAW 1
  PROJOFFS 0 0 0
  MAXPROJLEN 0 600
  GRID 3454 8 1 8 1 0 0 0
  TIMEMODE 1 5 1 30 0 0 0
  VIDEO_CONFIG 0 0 256
  PANMODE 3
  CURSOR 0
  ZOOM 13.17194173176074 0 0
  VZOOMEX 14 889
  USE_REC_CFG 0
  RECMODE 1
  SMPTESYNC 0 30 100 40 1000 300 0 0 1 0 0
  LOOP 0
  LOOPGRAN 0 4
  RECORD_PATH "" ""
  <RECORD_CFG
  >
  <APPLYFX_CFG
  >
  RENDER_FILE ""
  RENDER_PATTERN ""
  RENDER_FMT 0 2 0
  RENDER_1X 0
  RENDER_RANGE 1 0 0 18 1000
  RENDER_RESAMPLE 3 0 1
  RENDER_ADDTOPROJ 0
  RENDER_STEMS 0
  RENDER_DITHER 0
  TIMELOCKMODE 1
  TEMPOENVLOCKMODE 1
  ITEMMIX 0
  DEFPITCHMODE 589824 0
  TAKELANE 1
  SAMPLERATE 44100 0 0
  <RENDER_CFG
  >
  LOCK 1
  <METRONOME 6 2
    VOL 0.25 0.125
    FREQ 800 1600 1
    BEATLEN 4
    SAMPLES "" ""
    PATTERN 2863311530 2863311529
  >
  GLOBAL_AUTO -1
  TEMPO 120 4 4
  PLAYRATE 1 0 0.25 4
  SELECTION 397 397
  SELECTION2 397 397
  MASTERAUTOMODE 0
  MASTERTRACKHEIGHT 0 0
  MASTERPEAKCOL 16576
  MASTERMUTESOLO 0
  MASTERTRACKVIEW 0 0.6667 0.5 0.5 0 -1 0 0 0 0 -1 -1 0
  MASTERHWOUT 0 0 1 0 0 0 0 -1
  MASTER_NCH 2 2
  MASTER_VOLUME 1 0 -1 -1 1
  MASTER_FX 1
  MASTER_SEL 0
  <MASTERPLAYSPEEDENV
    EGUID {2F0F104C-E300-5741-99CF-0C4FE5D9201D}
    ACT 0 -1
    VIS 0 1 1
    LANEHEIGHT 0 0
    ARM 0
    DEFSHAPE 0 -1 -1
  >
  <TEMPOENVEX
    EGUID {05F32435-1916-3C4B-9442-EFD71838E7C6}
    ACT 0 -1
    VIS 1 0 1
    LANEHEIGHT 0 0
    ARM 0
    DEFSHAPE 1 -1 -1
  >
  MARKER 2 0 "" 0 0 1 R {18AF81EB-A879-3B43-994E-B031FA05C752}
  MARKER 1 124 "" 0 0 1 R {3CCC0E82-20D3-524F-869B-6A63CF7BC9F6}
  <PROJBAY
  >
  <TRACK {265061B2-E55A-8E45-8D6F-AF9DB915101D}
    NAME electronic
    PEAKCOL 16576
    BEAT -1
    AUTOMODE 0
    VOLPAN 1 0 -1 -1 1
    MUTESOLO 0 0 0
    IPHASE 0
    PLAYOFFS 0 1
    ISBUS 0 0
    BUSCOMP 0 0 0 0 0
    SHOWINMIX 1 0.6667 0.5 1 0.5 0 -1 0
    FREEMODE 0
    SEL 0
    REC 0 0 1 0 0 0 0
    VU 2
    TRACKHEIGHT 0 0 0 0 0 0
    INQ 0 0 0 0.5 100 0 0 100
    NCHAN 2
    FX 1
    TRACKID {265061B2-E55A-8E45-8D6F-AF9DB915101D}
    PERF 0
    MIDIOUT 65
    MAINSEND 1 0
    <ITEM
      POSITION 0
      SNAPOFFS 0
      LENGTH 641
      LOOP 1
      ALLTAKES 0
      FADEIN 1 0.01 0 1 0 0 0
      FADEOUT 1 0.01 0 1 0 0 0
      MUTE 0 0
      SEL 0
      IGUID {88E54B25-CBD8-1B4F-B599-0738204CF053}
      IID 2418
      NAME "archi elektronika 31.05.wav"
      VOLPAN 1 0 1 -1
      SOFFS 0
      PLAYRATE 1 1 0 -1 0 0.0025
      CHANMODE 0
      GUID {9047B4C2-E0FE-C44D-99F5-005FD505730E}
      <SOURCE WAVE
        FILE "/Users/annasowa/Desktop/archi elektronika 31.05.wav"
      >
      <VOLENV
        EGUID {2D358D18-227E-F446-8936-C4B05D52929B}
        ACT 1 -1
        VIS 1 1 1
        LANEHEIGHT 0 0
        ARM 0
        DEFSHAPE 0 -1 -1
        VOLTYPE 1
        PT 0 2 0 0 1
      >
    >
    <ITEM
      POSITION 2144
      SNAPOFFS 0
      LENGTH 2415.2668680202178
      LOOP 1
      ALLTAKES 0
      FADEIN 1 0 0 1 0 0 0
      FADEOUT 1 0 0 1 0 0 0
      MUTE 0 0
      SEL 0
      IGUID {8186AF03-B630-954E-AC78-D70BE5D83889}
      IID 1
      NAME "untitled MIDI item"
      VOLPAN 1 0 1 -1
      SOFFS 0 0
      PLAYRATE 1 1 0 -1 0 0.0025
      CHANMODE 0
      GUID {24402E4A-B800-A347-B4B7-82C1B2F9C7BD}
      <SOURCE MIDI
        HASDATA 1 960 QN
        CCINTERP 32
        POOLEDEVTS {A84EB021-EB7D-504C-97AF-B4B06B274774}
        E 6720 90 00 7f
        E 120 80 00 00
        E 0 90 00 7f
        E 120 80 00 00
        E 240 90 00 7f
        E 120 80 00 00
        E 0 90 00 7f
        E 120 80 00 00
        E 240 90 00 7f
        E 120 80 00 00
        E 0 90 00 7f
        E 120 80 00 00
        E 240 90 00 7f
        E 120 80 00 00
        E 0 90 00 7f
        E 120 80 00 00
        E 240 90 00 7f
        E 120 80 00 00
        E 0 90 00 7f
        E 120 80 00 00
        E 240 90 00 7f
        E 120 80 00 00
        E 0 90 00 7f
        E 120 80 00 00
        E 240 90 00 7f
        E 120 80 00 00
        E 0 90 00 7f
        E 120 80 00 00
        E 240 90 00 7f
        E 120 80 00 00
        E 0 90 00 7f
        E 120 80 00 00
        E 1680 90 00 7f
        E 480 90 02 7f
        E 480 80 00 00
        E 360 80 02 00
        E 600 90 00 7f
        E 480 90 02 7f
        E 480 80 00 00
        E 480 80 02 00
        E 480 90 00 7f
        E 480 90 02 7f
        E 480 80 00 00
        E 480 80 02 00
        E 480 90 00 7f
        E 480 90 02 7f
        E 480 80 00 00
        E 360 80 02 00
        E 3960 90 00 7f
        E 0 90 02 7f
        E 0 90 04 7f
        E 0 90 06 7f
        E 0 90 08 7f
        E 480 80 00 00
        E 0 80 02 00
        E 0 80 04 00
        E 0 80 06 00
        E 480 80 08 00
        E 0 90 06 7f
        E 0 90 04 7f
        E 0 90 02 7f
        E 0 90 00 7f
        E 360 90 08 7f
        E 120 80 06 00
        E 0 80 04 00
        E 0 80 02 00
        E 0 80 00 00
        E 840 80 08 00
        E 120 90 02 7f
        E 0 90 00 7f
        E 0 90 06 7f
        E 240 90 04 7f
        E 0 90 07 7f
        E 240 80 02 00
        E 0 80 00 00
        E 0 80 06 00
        E 960 80 04 00
        E 480 80 07 00
        E 480 90 08 7f
        E 0 90 05 7f
        E 0 90 00 7f
        E 0 90 02 7f
        E 480 80 08 00
        E 0 80 05 00
        E 0 80 00 00
        E 0 90 04 7f
        E 0 90 07 7f
        E 480 80 02 00
        E 480 80 04 00
        E 0 80 07 00
        E 480 90 02 7f
        E 0 90 00 7f
        E 0 90 04 7f
        E 0 90 06 7f
        E 480 80 02 00
        E 0 80 00 00
        E 0 80 04 00
        E 0 80 06 00
        E 4320 90 00 7f
        E 0 90 06 7f
        E 120 80 00 00
        E 0 80 06 00
        E 0 90 00 7f
        E 0 90 06 7f
        E 120 80 00 00
        E 0 80 06 00
        E 0 90 08 7f
        E 240 80 08 00
        E 0 90 00 7f
        E 0 90 06 7f
        E 120 80 00 00
        E 0 80 06 00
        E 0 90 00 7f
        E 0 90 06 7f
        E 120 80 00 00
        E 0 80 06 00
        E 0 90 08 7f
        E 240 80 08 00
        E 0 90 00 7f
        E 0 90 06 7f
        E 120 80 00 00
        E 0 80 06 00
        E 0 90 00 7f
        E 0 90 06 7f
        E 120 80 00 00
        E 0 80 06 00
        E 0 90 08 7f
        E 240 80 08 00
        E 0 90 00 7f
        E 0 90 06 7f
        E 120 80 00 00
        E 0 80 06 00
        E 0 90 00 7f
        E 0 90 06 7f
        E 120 80 00 00
        E 0 80 06 00
        E 0 90 08 7f
        E 240 80 08 00
        E 0 90 06 7f
        E 0 90 00 7f
        E 120 80 06 00
        E 0 80 00 00
        E 0 90 06 7f
        E 0 90 00 7f
        E 120 80 06 00
        E 0 80 00 00
        E 0 90 08 7f
        E 240 80 08 00
        E 0 90 06 7f
        E 0 90 00 7f
        E 120 80 06 00
        E 0 80 00 00
        E 0 90 06 7f
        E 0 90 00 7f
        E 120 80 06 00
        E 0 80 00 00
        E 0 90 08 7f
        E 240 80 08 00
        E 0 90 06 7f
        E 0 90 00 7f
        E 120 80 06 00
        E 0 80 00 00
        E 0 90 06 7f
        E 0 90 00 7f
        E 120 80 06 00
        E 0 80 00 00
        E 0 90 08 7f
        E 240 80 08 00
        E 0 90 00 7f
        E 0 90 06 7f
        E 120 80 00 00
        E 0 80 06 00
        E 0 90 00 7f
        E 0 90 06 7f
        E 120 80 00 00
        E 0 80 06 00
        E 0 90 08 7f
        E 240 80 08 00
        E 3840 90 08 7f
        E 0 90 00 7f
        E 480 80 00 00
        E 0 90 03 7f
        E 0 90 05 7f
        E 0 90 0a 7f
        E 480 80 08 00
        E 0 80 03 00
        E 0 80 05 00
        E 480 90 08 7f
        E 0 90 00 7f
        E 480 80 00 00
        E 0 90 03 7f
        E 0 90 05 7f
        E 120 90 0e 7f
        E 360 80 08 00
        E 0 80 03 00
        E 0 80 05 00
        E 0 90 00 7f
        E 120 90 09 7f
        E 0 90 0b 7f
        E 240 80 0a 00
        E 240 80 0e 00
        E 0 80 09 00
        E 0 80 0b 00
        E 480 90 0e 7f
        E 0 90 05 7f
        E 480 90 09 7f
        E 0 90 0b 7f
        E 480 80 0e 00
        E 0 80 09 00
        E 0 80 0b 00
        E 240 80 00 00
        E 0 90 02 7f
        E 720 90 0e 7f
        E 0 90 09 7f
        E 0 90 0b 7f
        E 360 80 05 00
        E 120 80 09 00
        E 0 80 0b 00
        E 480 80 0e 00
        E 1320 80 02 00
        E 3840 90 07 7f
        E 0 90 02 7f
        E 120 90 0c 7f
        E 240 90 10 7f
        E 120 80 07 00
        E 0 80 02 00
        E 120 80 0c 00
        E 120 90 04 7f
        E 120 80 10 00
        E 120 90 08 7f
        E 0 90 02 7f
        E 0 90 00 7f
        E 120 90 0c 7f
        E 120 80 04 00
        E 240 80 08 00
        E 0 80 02 00
        E 0 80 00 00
        E 0 90 10 7f
        E 120 80 0c 00
        E 120 90 04 7f
        E 240 80 10 00
        E 0 90 08 7f
        E 0 90 00 7f
        E 240 80 04 00
        E 240 80 08 00
        E 0 80 00 00
        E 0 90 0c 7f
        E 0 90 02 7f
        E 360 90 04 7f
        E 120 80 0c 00
        E 0 80 02 00
        E 0 90 10 7f
        E 360 80 04 00
        E 120 80 10 00
        E 0 90 0c 7f
        E 0 90 02 7f
        E 480 80 0c 00
        E 0 80 02 00
        E 3840 90 00 7f
        E 960 80 00 00
        E 480 90 00 7f
        E 960 80 00 00
        E 480 90 00 7f
        E 960 80 00 00
        E 480 90 00 7f
        E 960 80 00 00
        E 480 90 00 7f
        E 960 80 00 00
        E 480 90 00 7f
        E 960 80 00 00
        E 480 90 00 7f
        E 960 80 00 00
        E 480 90 00 7f
        E 960 80 00 00
        E 480 90 00 7f
        E 960 80 00 00
        E 960 90 00 7f
        E 960 80 00 00
        E 480 90 00 7f
        E 960 80 00 00
        E 480 90 00 7f
        E 960 80 00 00
        E 480 90 00 7f
        E 960 80 00 00
        E 480 90 00 7f
        E 960 80 00 00
        E 480 90 00 7f
        E 960 80 00 00
        E 480 90 00 7f
        E 960 80 00 00
        E 480 90 00 7f
        E 960 80 00 00
        E 480 90 00 7f
        E 960 80 00 00
        E 960 90 00 7f
        E 960 80 00 00
        E 360 90 00 7f
        E 960 80 00 00
        E 480 90 00 7f
        E 960 80 00 00
        E 480 90 00 7f
        E 960 80 00 00
        E 480 90 00 7f
        E 960 80 00 00
        E 480 90 00 7f
        E 600 90 03 7f
        E 360 80 00 00
        E 120 80 03 00
        E 360 90 00 7f
        E 120 90 03 7f
        E 480 80 03 00
        E 360 80 00 00
        E 480 90 00 7f
        E 960 80 00 00
        E 480 90 00 7f
        E 600 90 03 7f
        E 360 80 00 00
        E 120 80 03 00
        E 480 90 03 7f
        E 360 90 00 7f
        E 120 80 03 00
        E 840 80 00 00
        E 480 90 00 7f
        E 960 80 00 00
        E 480 90 00 7f
        E 120 90 03 7f
        E 480 80 03 00
        E 360 80 00 00
        E 120 90 03 7f
        E 360 90 00 7f
        E 120 80 03 00
        E 840 80 00 00
        E 480 90 00 7f
        E 120 90 03 7f
        E 480 80 03 00
        E 360 80 00 00
        E 120 90 03 7f
        E 360 90 00 7f
        E 120 80 03 00
        E 840 80 00 00
        E 480 90 00 7f
        E 960 80 00 00
        E 480 90 00 7f
        E 120 90 03 7f
        E 480 80 03 00
        E 360 80 00 00
        E 120 90 03 7f
        E 360 90 00 7f
        E 120 80 03 00
        E 840 80 00 00
        E 1080 90 00 7f
        E 960 80 00 00
        E 0 90 03 7f
        E 480 80 03 00
        E 0 90 00 7f
        E 480 90 03 7f
        E 480 80 00 00
        E 0 80 03 00
        E 480 90 00 7f
        E 960 80 00 00
        E 480 90 00 7f
        E 960 80 00 00
        E 480 90 00 7f
        E 960 80 00 00
        E 480 90 00 7f
        E 600 90 03 7f
        E 360 80 00 00
        E 120 80 03 00
        E 360 90 00 7f
        E 120 90 03 7f
        E 480 80 03 00
        E 360 80 00 00
        E 480 90 00 7f
        E 960 80 00 00
        E 480 90 00 7f
        E 600 90 03 7f
        E 360 80 00 00
        E 120 80 03 00
        E 480 90 03 7f
        E 360 90 00 7f
        E 120 80 03 00
        E 840 80 00 00
        E 480 90 00 7f
        E 960 80 00 00
        E 480 90 00 7f
        E 120 90 03 7f
        E 480 80 03 00
        E 360 80 00 00
        E 120 90 03 7f
        E 360 90 00 7f
        E 120 80 03 00
        E 600 80 00 00
        E 720 90 00 7f
        E 120 90 03 7f
        E 480 80 03 00
        E 360 80 00 00
        E 120 90 03 7f
        E 360 90 00 7f
        E 120 80 03 00
        E 840 80 00 00
        E 480 90 00 7f
        E 960 80 00 00
        E 480 90 00 7f
        E 120 90 03 7f
        E 480 80 03 00
        E 360 80 00 00
        E 120 90 03 7f
        E 360 90 00 7f
        E 120 80 03 00
        E 840 80 00 00
        E 480 90 00 7f
        E 960 80 00 00
        E 480 90 00 7f
        E 120 90 03 7f
        E 480 80 03 00
        E 360 80 00 00
        E 120 90 03 7f
        E 360 90 00 7f
        E 120 80 03 00
        E 840 80 00 00
        E 480 90 00 7f
        E 960 80 00 00
        E 960 90 00 7f
        E 120 90 03 7f
        E 480 80 03 00
        E 360 80 00 00
        E 120 90 03 7f
        E 360 90 00 7f
        E 120 80 03 00
        E 840 80 00 00
        E 480 90 00 7f
        E 960 80 00 00
        E 480 90 00 7f
        E 120 90 03 7f
        E 480 80 03 00
        E 480 90 03 7f
        E 480 80 00 00
        E 0 80 03 00
        E 0 90 08 7f
        E 720 80 08 00
        E 240 90 00 7f
        E 840 90 08 7f
        E 120 80 00 00
        E 480 90 00 7f
        E 360 80 08 00
        E 120 90 03 7f
        E 480 80 00 00
        E 0 80 03 00
        E 480 90 00 7f
        E 0 90 03 7f
        E 480 80 03 00
        E 480 80 00 00
        E 480 90 00 7f
        E 480 90 03 7f
        E 480 80 00 00
        E 0 80 03 00
        E 480 90 00 7f
        E 0 90 03 7f
        E 480 80 03 00
        E 480 80 00 00
        E 480 90 00 7f
        E 960 80 00 00
        E 480 90 00 7f
        E 0 90 08 7f
        E 480 90 03 7f
        E 480 80 00 00
        E 0 80 08 00
        E 0 80 03 00
        E 480 90 00 7f
        E 0 90 03 7f
        E 360 90 08 7f
        E 120 80 03 00
        E 480 80 00 00
        E 480 80 08 00
        E 0 90 00 7f
        E 960 80 00 00
        E 960 90 00 7f
        E 0 90 03 7f
        E 480 80 03 00
        E 480 80 00 00
        E 0 90 03 7f
        E 480 80 03 00
        E 0 90 00 7f
        E 960 80 00 00
        E 480 90 00 7f
        E 960 80 00 00
        E 480 90 00 7f
        E 960 80 00 00
        E 480 90 00 7f
        E 960 80 00 00
        E 120 90 03 7f
        E 360 90 00 7f
        E 120 80 03 00
        E 480 90 03 7f
        E 360 80 00 00
        E 120 80 03 00
        E 240 90 08 7f
        E 120 90 00 7f
        E 840 80 08 00
        E 120 80 00 00
        E 480 90 00 7f
        E 360 90 08 7f
        E 600 80 00 00
        E 120 80 08 00
        E 0 90 03 7f
        E 360 90 00 7f
        E 120 80 03 00
        E 480 90 03 7f
        E 360 80 00 00
        E 120 80 03 00
        E 840 90 00 7f
        E 960 80 00 00
        E 360 90 00 7f
        E 720 90 03 7f
        E 240 80 00 00
        E 240 80 03 00
        E 240 90 00 7f
        E 240 90 03 7f
        E 480 80 03 00
        E 240 80 00 00
        E 480 90 00 7f
        E 480 90 08 7f
        E 240 90 03 7f
        E 240 80 00 00
        E 240 80 03 00
        E 120 80 08 00
        E 120 90 00 7f
        E 240 90 03 7f
        E 480 80 03 00
        E 240 80 00 00
        E 0 90 07 7f
        E 480 90 00 7f
        E 480 80 07 00
        E 480 80 00 00
        E 480 90 00 7f
        E 720 90 03 7f
        E 240 80 00 00
        E 240 80 03 00
        E 240 90 00 7f
        E 240 90 03 7f
        E 480 80 03 00
        E 240 80 00 00
        E 480 90 00 7f
        E 960 80 00 00
        E 960 90 00 7f
        E 240 90 03 7f
        E 480 80 03 00
        E 240 80 00 00
        E 240 90 03 7f
        E 240 90 00 7f
        E 240 80 03 00
        E 720 80 00 00
        E 480 90 00 7f
        E 960 80 00 00
        E 480 90 00 7f
        E 960 80 00 00
        E 480 90 00 7f
        E 240 90 03 7f
        E 480 80 03 00
        E 240 80 00 00
        E 240 90 03 7f
        E 240 90 00 7f
        E 240 80 03 00
        E 720 80 00 00
        E 1680 90 00 7f
        E 480 90 03 7f
        E 480 80 00 00
        E 0 80 03 00
        E 480 90 00 7f
        E 0 90 03 7f
        E 480 80 03 00
        E 480 80 00 00
        E 480 90 00 7f
        E 960 80 00 00
        E 480 90 00 7f
        E 480 90 03 7f
        E 480 80 00 00
        E 0 80 03 00
        E 480 90 00 7f
        E 0 90 03 7f
        E 480 80 03 00
        E 480 80 00 00
        E 480 90 00 7f
        E 480 90 03 7f
        E 480 80 00 00
        E 0 80 03 00
        E 480 90 00 7f
        E 0 90 03 7f
        E 480 80 03 00
        E 480 80 00 00
        E 480 90 00 7f
        E 960 80 00 00
        E 480 90 00 7f
        E 480 90 03 7f
        E 480 80 00 00
        E 0 80 03 00
        E 480 90 03 7f
        E 480 80 03 00
        E 0 90 00 7f
        E 960 80 00 00
        E 480 90 00 7f
        E 960 80 00 00
        E 240 90 03 7f
        E 240 90 00 7f
        E 480 80 03 00
        E 480 80 00 00
        E 0 90 03 7f
        E 480 80 03 00
        E 0 90 00 7f
        E 240 90 08 7f
        E 720 80 00 00
        E 0 80 08 00
        E 480 90 00 7f
        E 360 90 08 7f
        E 600 80 00 00
        E 360 80 08 00
        E 120 90 00 7f
        E 960 80 00 00
        E 480 90 00 7f
        E 960 80 00 00
        E 480 90 00 7f
        E 960 80 00 00
        E 480 90 00 7f
        E 960 80 00 00
        E 960 90 00 7f
        E 480 90 08 7f
        E 480 80 00 00
        E 360 90 00 7f
        E 120 80 08 00
        E 840 80 00 00
        E 0 90 08 7f
        E 480 90 00 7f
        E 600 80 08 00
        E 360 80 00 00
        E 480 90 00 7f
        E 960 80 00 00
        E 480 90 00 7f
        E 960 80 00 00
        E 480 90 00 7f
        E 600 90 03 7f
        E 360 80 00 00
        E 120 80 03 00
        E 360 90 00 7f
        E 120 90 03 7f
        E 480 80 03 00
        E 360 80 00 00
        E 480 90 00 7f
        E 960 80 00 00
        E 480 90 00 7f
        E 600 90 03 7f
        E 360 80 00 00
        E 120 80 03 00
        E 480 90 03 7f
        E 360 90 00 7f
        E 120 80 03 00
        E 360 90 08 7f
        E 480 80 00 00
        E 480 80 08 00
        E 0 90 00 7f
        E 960 80 00 00
        E 0 90 08 7f
        E 480 90 00 7f
        E 120 90 03 7f
        E 120 80 08 00
        E 0 90 0c 7f
        E 360 80 03 00
        E 360 80 00 00
        E 0 80 0c 00
        E 120 90 03 7f
        E 360 90 00 7f
        E 120 80 03 00
        E 480 90 0c 7f
        E 360 80 00 00
        E 480 90 00 7f
        E 120 80 0c 00
        E 0 90 03 7f
        E 480 80 03 00
        E 360 80 00 00
        E 120 90 03 7f
        E 360 90 00 7f
        E 120 80 03 00
        E 840 80 00 00
        E 480 90 00 7f
        E 960 80 00 00
        E 480 90 00 7f
        E 0 90 08 7f
        E 120 90 03 7f
        E 480 80 03 00
        E 240 80 08 00
        E 120 80 00 00
        E 120 90 03 7f
        E 360 90 00 7f
        E 120 80 03 00
        E 360 90 07 7f
        E 480 80 00 00
        E 240 90 0c 7f
        E 240 80 07 00
        E 600 90 00 7f
        E 120 80 0c 00
        E 840 80 00 00
        E 0 90 03 7f
        E 0 90 0c 7f
        E 480 80 03 00
        E 0 90 00 7f
        E 480 90 03 7f
        E 120 80 0c 00
        E 360 80 00 00
        E 0 80 03 00
        E 480 90 00 7f
        E 960 80 00 00
        E 480 90 00 7f
        E 960 80 00 00
        E 480 90 00 7f
        E 960 80 00 00
        E 480 90 00 7f
        E 600 90 03 7f
        E 360 80 00 00
        E 120 80 03 00
        E 360 90 00 7f
        E 120 90 03 7f
        E 480 80 03 00
        E 360 80 00 00
        E 480 90 00 7f
        E 960 80 00 00
        E 480 90 00 7f
        E 600 90 03 7f
        E 360 80 00 00
        E 0 90 0c 7f
        E 120 80 03 00
        E 0 90 10 7f
        E 480 90 03 7f
        E 240 80 10 00
        E 120 80 0c 00
        E 0 90 00 7f
        E 120 80 03 00
        E 840 80 00 00
        E 0 90 0c 7f
        E 0 90 10 7f
        E 480 90 00 7f
        E 240 80 0c 00
        E 240 80 10 00
        E 480 80 00 00
        E 480 90 00 7f
        E 120 90 03 7f
        E 480 80 03 00
        E 360 80 00 00
        E 120 90 03 7f
        E 360 90 00 7f
        E 120 80 03 00
        E 600 80 00 00
        E 720 90 00 7f
        E 120 90 03 7f
        E 480 80 03 00
        E 360 80 00 00
        E 120 90 03 7f
        E 360 90 00 7f
        E 120 80 03 00
        E 840 80 00 00
        E 480 90 00 7f
        E 0 90 0c 7f
        E 120 90 10 7f
        E 720 80 0c 00
        E 120 80 00 00
        E 120 80 10 00
        E 360 90 00 7f
        E 120 90 03 7f
        E 360 90 0b 7f
        E 0 90 10 7f
        E 120 80 03 00
        E 360 80 00 00
        E 120 90 03 7f
        E 360 80 0b 00
        E 0 90 00 7f
        E 120 80 10 00
        E 0 80 03 00
        E 840 80 00 00
        E 480 90 00 7f
        E 960 80 00 00
        E 480 90 00 7f
        E 120 90 03 7f
        E 480 80 03 00
        E 360 80 00 00
        E 120 90 03 7f
        E 360 90 00 7f
        E 120 80 03 00
        E 840 80 00 00
        E 480 90 00 7f
        E 960 80 00 00
        E 960 90 00 7f
        E 120 90 03 7f
        E 480 80 03 00
        E 360 80 00 00
        E 120 90 03 7f
        E 360 90 00 7f
        E 120 80 03 00
        E 840 80 00 00
        E 480 90 00 7f
        E 0 90 10 7f
        E 960 80 00 00
        E 0 80 10 00
        E 480 90 00 7f
        E 120 90 03 7f
        E 360 90 10 7f
        E 120 80 03 00
        E 480 90 03 7f
        E 120 80 10 00
        E 360 80 00 00
        E 0 80 03 00
        E 960 90 00 7f
        E 960 80 00 00
        E 480 90 00 7f
        E 480 90 03 7f
        E 480 80 00 00
        E 0 80 03 00
        E 480 90 00 7f
        E 0 90 03 7f
        E 480 80 03 00
        E 480 80 00 00
        E 480 90 00 7f
        E 480 90 03 7f
        E 480 80 00 00
        E 0 80 03 00
        E 0 90 15 7f
        E 360 90 10 7f
        E 120 90 00 7f
        E 0 90 03 7f
        E 480 80 03 00
        E 240 80 10 00
        E 240 80 00 00
        E 480 90 00 7f
        E 360 90 0f 7f
        E 600 80 00 00
        E 360 80 0f 00
        E 120 90 00 7f
        E 480 90 03 7f
        E 240 80 15 00
        E 240 80 00 00
        E 0 80 03 00
        E 480 90 00 7f
        E 0 90 03 7f
        E 480 80 03 00
        E 480 80 00 00
        E 480 90 00 7f
        E 960 80 00 00
        E 720 90 15 7f
        E 240 90 00 7f
        E 0 90 03 7f
        E 480 80 03 00
        E 480 80 00 00
        E 0 90 03 7f
        E 480 80 03 00
        E 0 90 00 7f
        E 960 80 00 00
        E 480 90 00 7f
        E 840 80 15 00
        E 120 80 00 00
        E 480 90 00 7f
        E 960 80 00 00
        E 480 90 00 7f
        E 960 80 00 00
        E 120 90 03 7f
        E 360 90 00 7f
        E 0 90 15 7f
        E 120 80 03 00
        E 480 90 03 7f
        E 360 80 00 00
        E 120 80 03 00
        E 360 90 00 7f
        E 960 80 00 00
        E 480 90 00 7f
        E 960 80 00 00
        E 120 90 03 7f
        E 240 80 15 00
        E 120 90 00 7f
        E 120 80 03 00
        E 480 90 03 7f
        E 360 80 00 00
        E 120 80 03 00
        E 840 90 00 7f
        E 960 80 00 00
        E 360 90 00 7f
        E 120 90 15 7f
        E 600 90 03 7f
        E 240 80 00 00
        E 240 80 03 00
        E 240 90 00 7f
        E 240 90 03 7f
        E 480 80 03 00
        E 240 80 00 00
        E 480 90 00 7f
        E 720 90 03 7f
        E 240 80 00 00
        E 120 80 15 00
        E 120 80 03 00
        E 240 90 00 7f
        E 240 90 03 7f
        E 480 80 03 00
        E 240 80 00 00
        E 480 90 00 7f
        E 960 80 00 00
        E 480 90 00 7f
        E 720 90 03 7f
        E 120 90 15 7f
        E 120 80 00 00
        E 240 80 03 00
        E 240 90 00 7f
        E 240 90 03 7f
        E 480 80 03 00
        E 240 80 00 00
        E 480 90 00 7f
        E 960 80 00 00
        E 960 80 15 00
        E 0 90 00 7f
        E 240 90 03 7f
        E 480 80 03 00
        E 240 80 00 00
        E 240 90 03 7f
        E 240 90 00 7f
        E 240 80 03 00
        E 720 80 00 00
        E 480 90 00 7f
        E 840 90 15 7f
        E 120 80 00 00
        E 480 90 00 7f
        E 960 80 00 00
        E 480 90 00 7f
        E 960 80 00 00
        E 480 90 00 7f
        E 360 80 15 00
        E 600 80 00 00
        E 3240 90 15 7f
        E 4080 80 15 00
        E 3840 90 15 7f
        E 3960 80 15 00
        E 3480 90 15 7f
        E 4200 80 15 00
        E 3480 90 15 7f
        E 3840 80 15 00
        E 4080 90 15 7f
        E 3960 80 15 00
        E 3120 90 15 7f
        E 4440 80 15 00
        E 3480 90 15 7f
        E 4080 80 15 00
        E 3840 90 15 7f
        E 3720 90 11 7f
        E 240 80 15 00
        E 3480 90 15 7f
        E 360 80 11 00
        E 3840 80 15 00
        E 0 90 11 7f
        E 3480 90 15 7f
        E 480 80 11 00
        E 3360 80 15 00
        E 120 90 11 7f
        E 3480 90 18 7f
        E 480 90 15 7f
        E 240 80 11 00
        E 3360 80 18 00
        E 120 90 11 7f
        E 240 80 15 00
        E 3480 90 18 7f
        E 120 80 11 00
        E 120 90 15 7f
        E 3720 80 18 00
        E 120 80 15 00
        E 120 90 11 7f
        E 3240 90 18 7f
        E 720 80 11 00
        E 3480 80 18 00
        E 240 90 11 7f
        E 3240 90 18 7f
        E 600 80 11 00
        E 3240 80 18 00
        E 600 90 11 7f
        E 3480 90 18 7f
        E 600 80 11 00
        E 3360 80 18 00
        E 480 90 11 7f
        E 3240 90 18 7f
        E 720 80 11 00
        E 3120 80 18 00
        E 360 90 11 7f
        E 3480 90 18 7f
        E 720 80 11 00
        E 3360 80 18 00
        E 120 90 11 7f
        E 3720 90 18 7f
        E 120 80 11 00
        E 3840 80 18 00
        E 240 90 11 7f
        E 3240 90 18 7f
        E 720 80 11 00
        E 3120 90 11 7f
        E 360 80 18 00
        E 3480 90 18 7f
        E 600 80 11 00
        E 3240 80 18 00
        E 240 90 11 7f
        E 3840 90 18 7f
        E 240 80 11 00
        E 3720 80 18 00
        E 120 90 11 7f
        E 3000 90 18 7f
        E 960 80 11 00
        E 3480 80 18 00
        E 0 90 11 7f
        E 3480 90 18 7f
        E 720 80 11 00
        E 3360 80 18 00
        E 120 90 11 7f
        E 3720 90 18 7f
        E 120 80 11 00
        E 3600 90 14 7f
        E 240 80 18 00
        E 0 90 1e 7f
        E 240 90 11 7f
        E 3240 90 18 7f
        E 360 80 14 00
        E 240 80 1e 00
        E 3600 80 18 00
        E 0 90 14 7f
        E 120 80 11 00
        E 120 90 1e 7f
        E 3240 90 18 7f
        E 480 80 14 00
        E 240 80 1e 00
        E 3120 80 18 00
        E 120 90 14 7f
        E 240 90 1e 7f
        E 3720 90 18 7f
        E 240 80 14 00
        E 240 80 1e 00
        E 3240 90 14 7f
        E 240 80 18 00
        E 0 90 1e 7f
        E 3600 80 14 00
        E 120 90 18 7f
        E 120 80 1e 00
        E 3720 80 18 00
        E 120 90 14 7f
        E 240 90 1e 7f
        E 3720 80 14 00
        E 240 80 1e 00
        E 3480 90 14 7f
        E 240 90 1e 7f
        E 1320 90 0e 7f
        E 120 80 0e 00
        E 2160 80 14 00
        E 240 80 1e 00
        E 3360 90 1e 7f
        E 240 90 14 7f
        E 240 90 0e 7f
        E 3840 80 14 00
        E 120 80 1e 00
        E 3240 90 1e 7f
        E 480 90 14 7f
        E 240 80 0e 00
        E 2880 90 11 7f
        E 720 90 21 7f
        E 120 80 14 00
        E 1920 80 1e 00
        E 1320 80 21 00
        E 240 90 14 7f
        E 3960 90 23 7f
        E 240 80 14 00
        E 3000 80 11 00
        E 480 90 14 7f
        E 600 90 0b 7f
        E 1680 90 27 7f
        E 1080 80 23 00
        E 0 90 1e 7f
        E 480 80 14 00
        E 480 80 27 00
        E 2160 80 1e 00
        E 120 80 0b 00
        E 1320 90 14 7f
        E 600 90 20 7f
        E 2760 90 27 7f
        E 600 80 14 00
        E 840 80 20 00
        E 1080 80 27 00
        E 1200 90 14 7f
        E 360 90 1b 7f
        E 2640 90 09 7f
        E 1440 80 14 00
        E 3360 90 21 7f
        E 120 90 14 7f
        E 360 90 1d 7f
        E 360 80 1b 00
        E 3360 80 14 00
        E 360 90 17 7f
        E 1080 80 21 00
        E 360 80 1d 00
        E 480 80 09 00
        E 1560 90 14 7f
        E 2280 80 14 00
        E 4920 90 0b 7f
        E 960 80 0b 00
        E 960 90 0b 7f
        E 720 80 0b 00
        E 1080 80 17 00
        E 4560 90 0c 7f
        E 960 90 10 7f
        E 360 90 0b 7f
        E 840 80 0b 00
        E 1080 90 0a 7f
        E 960 80 0a 00
        E 840 80 10 00
        E 2400 90 0e 7f
        E 1440 90 10 7f
        E 3960 80 10 00
        E 1320 80 0c 00
        E 2160 90 10 7f
        E 4200 80 10 00
        E 2280 80 0e 00
        E 1200 90 10 7f
        E 3840 80 10 00
        E 4080 90 10 7f
        E 3960 80 10 00
        E 3720 90 10 7f
        E 3840 80 10 00
        E 3840 90 10 7f
        E 4080 80 10 00
        E 3840 90 10 7f
        E 3960 80 10 00
        E 1920 90 27 7f
        E 1560 90 10 7f
        E 4200 80 10 00
        E 1920 90 28 7f
        E 360 80 27 00
        E 1200 90 10 7f
        E 3840 80 10 00
        E 2040 80 28 00
        E 2040 90 10 7f
        E 3960 80 10 00
        E 1920 90 25 7f
        E 1200 90 10 7f
        E 4440 80 10 00
        E 2160 90 26 7f
        E 360 80 25 00
        E 960 90 10 7f
        E 4080 80 10 00
        E 2040 80 26 00
        E 1800 90 10 7f
        E 3720 90 0c 7f
        E 240 80 10 00
        E 2040 90 23 7f
        E 1440 90 10 7f
        E 360 80 0c 00
        E 3840 80 10 00
        E 0 90 0c 7f
        E 2160 80 23 00
        E 240 90 24 7f
        E 1080 90 10 7f
        E 480 80 0c 00
        E 3360 80 10 00
        E 120 90 0c 7f
        E 2520 80 24 00
        E 960 90 13 7f
        E 480 90 10 7f
        E 240 80 0c 00
        E 3360 80 13 00
        E 120 90 0c 7f
        E 240 80 10 00
        E 1560 90 2b 7f
        E 1920 90 13 7f
        E 120 80 0c 00
        E 120 90 10 7f
        E 3720 80 13 00
        E 120 80 10 00
        E 120 90 0c 7f
        E 1320 90 2a 7f
        E 720 80 2b 00
        E 1200 90 13 7f
        E 720 80 0c 00
        E 3480 80 13 00
        E 240 90 0c 7f
        E 2160 80 2a 00
        E 1080 90 13 7f
        E 600 80 0c 00
        E 3240 80 13 00
        E 600 90 0c 7f
        E 2280 90 24 7f
        E 1200 90 13 7f
        E 600 80 0c 00
        E 3360 80 13 00
        E 480 90 0c 7f
        E 2040 90 23 7f
        E 120 80 24 00
        E 1080 90 13 7f
        E 720 80 0c 00
        E 3120 80 13 00
        E 360 90 0c 7f
        E 2160 80 23 00
        E 1320 90 13 7f
        E 720 80 0c 00
        E 3360 80 13 00
        E 120 90 0c 7f
        E 3720 90 13 7f
        E 120 80 0c 00
        E 3840 80 13 00
        E 240 90 0c 7f
        E 2400 90 24 7f
        E 840 90 13 7f
        E 720 80 0c 00
        E 3120 90 0c 7f
        E 360 80 13 00
        E 2040 90 23 7f
        E 360 80 24 00
        E 1080 90 13 7f
        E 600 80 0c 00
        E 3240 80 13 00
        E 240 90 0c 7f
        E 1920 80 23 00
        E 1920 90 13 7f
        E 240 80 0c 00
        E 3720 80 13 00
        E 120 90 0c 7f
        E 2040 90 29 7f
        E 960 90 13 7f
        E 960 80 0c 00
        E 3480 80 13 00
        E 0 90 0c 7f
        E 2160 80 29 00
        E 240 90 28 7f
        E 1080 90 13 7f
        E 720 80 0c 00
        E 3360 80 13 00
        E 120 90 0c 7f
        E 1920 80 28 00
        E 1800 90 13 7f
        E 120 80 0c 00
        E 3600 90 0f 7f
        E 240 80 13 00
        E 0 90 19 7f
        E 240 90 0c 7f
        E 2040 90 2c 7f
        E 1200 90 13 7f
        E 360 80 0f 00
        E 240 80 19 00
        E 3600 80 13 00
        E 0 90 0f 7f
        E 120 80 0c 00
        E 120 90 19 7f
        E 1080 80 2c 00
        E 1080 90 2b 7f
        E 1080 90 13 7f
        E 480 80 0f 00
        E 240 80 19 00
        E 3120 80 13 00
        E 120 90 0f 7f
        E 240 90 19 7f
        E 2160 80 2b 00
        E 360 90 24 7f
        E 1200 90 13 7f
        E 240 80 0f 00
        E 240 80 19 00
        E 3240 90 0f 7f
        E 240 80 13 00
        E 0 90 19 7f
        E 1560 80 24 00
        E 240 90 23 7f
        E 1800 80 0f 00
        E 120 90 13 7f
        E 120 80 19 00
        E 3720 80 13 00
        E 120 90 0f 7f
        E 240 90 19 7f
        E 1800 80 23 00
        E 1920 80 0f 00
        E 240 80 19 00
        E 3480 90 0f 7f
        E 240 90 19 7f
        E 1320 90 09 7f
        E 120 80 09 00
        E 1080 90 28 7f
        E 1080 80 0f 00
        E 240 80 19 00
        E 3360 90 19 7f
        E 240 90 0f 7f
        E 240 90 09 7f
        E 2280 80 28 00
        E 0 90 26 7f
        E 1560 80 0f 00
        E 120 80 19 00
        E 1800 90 20 7f
        E 1440 90 19 7f
        E 480 90 0f 7f
        E 240 80 09 00
        E 2160 80 26 00
        E 720 90 0c 7f
        E 720 90 1c 7f
        E 120 80 0f 00
        E 1920 80 19 00
        E 0 90 22 7f
        E 1320 80 1c 00
        E 240 90 0f 7f
        E 2280 90 15 7f
        E 1680 90 1e 7f
        E 240 80 0f 00
        E 120 80 0c 00
        E 0 80 1e 00
        E 1320 80 20 00
        E 120 90 06 7f
        E 3720 80 15 00
        E 360 80 06 00
        E 360 90 14 7f
        E 2400 80 22 00
        E 960 90 2f 7f
        E 120 90 06 7f
        E 3720 80 14 00
        E 240 80 06 00
        E 3480 90 06 7f
        E 120 80 2f 00
        E 4080 80 06 00
        E 360 90 15 7f
        E 2640 90 2f 7f
        E 480 90 06 7f
        E 3840 80 06 00
        E 600 80 15 00
        E 0 90 14 7f
        E 3480 90 06 7f
        E 360 80 2f 00
        E 3360 80 14 00
        E 240 80 06 00
        E 3720 90 06 7f
        E 3840 80 06 00
        E 120 90 17 7f
        E 3720 90 06 7f
        E 3480 80 17 00
        E 240 90 16 7f
        E 360 80 06 00
        E 3120 90 2f 7f
        E 720 90 06 7f
        E 3960 80 06 00
        E 240 80 16 00
        E 360 90 0b 7f
        E 2640 80 2f 00
        E 0 90 13 7f
        E 240 90 06 7f
        E 1200 80 0b 00
        E 3000 80 06 00
        E 840 90 0b 7f
        E 1920 80 13 00
        E 720 90 06 7f
        E 0 90 2f 7f
        E 0 90 12 7f
        E 1320 80 0b 00
        E 2520 80 06 00
        E 960 90 0b 7f
        E 2400 80 12 00
        E 360 80 2f 00
        E 360 90 06 7f
        E 1080 80 0b 00
        E 2880 80 06 00
        E 600 90 0b 7f
        E 2520 90 06 7f
        E 480 90 13 7f
        E 840 80 0b 00
        E 3120 80 06 00
        E 960 90 0b 7f
        E 2520 90 06 7f
        E 120 80 13 00
        E 0 90 12 7f
        E 1320 80 0b 00
        E 2640 80 06 00
        E 1080 90 0b 7f
        E 2160 80 12 00
        E 600 90 06 7f
        E 120 90 2f 7f
        E 960 80 0b 00
        E 2880 80 06 00
        E 960 90 0b 7f
        E 2400 90 15 7f
        E 120 90 06 7f
        E 240 80 2f 00
        E 1320 80 0b 00
        E 2640 80 06 00
        E 1200 90 0b 7f
        E 1680 80 15 00
        E 240 90 2f 7f
        E 0 90 14 7f
        E 360 90 06 7f
        E 1680 80 0b 00
        E 2160 80 06 00
        E 1320 90 0b 7f
        E 2520 80 2f 00
        E 0 90 26 7f
        E 240 90 06 7f
        E 120 80 14 00
        E 1320 80 0b 00
        E 2760 90 16 7f
        E 720 90 0b 7f
        E 2280 90 26 7f
        E 360 80 06 00
        E 120 80 26 00
        E 1080 80 0b 00
        E 2640 80 16 00
        E 720 90 15 7f
        E 720 90 0b 7f
        E 2640 80 26 00
        E 1320 80 0b 00
        E 2520 80 15 00
        E 600 90 0b 7f
        E 3480 90 2f 7f
        E 960 80 0b 00
        E 3240 90 16 7f
        E 240 90 0b 7f
        E 2400 90 26 7f
        E 840 80 2f 00
        E 840 80 0b 00
        E 3240 80 16 00
        E 0 90 15 7f
        E 600 90 0b 7f
        E 2400 90 2f 7f
        E 360 90 26 7f
        E 360 80 26 00
        E 840 80 0b 00
        E 2640 80 15 00
        E 840 90 0b 7f
        E 3360 80 2f 00
        E 240 80 26 00
        E 600 80 0b 00
        E 2880 90 18 7f
        E 600 90 0b 7f
        E 3840 80 0b 00
        E 2760 80 18 00
        E 240 90 17 7f
        E 1080 90 0b 7f
        E 2520 90 26 7f
        E 4800 80 17 00
        E 240 80 0b 00
        E 2040 90 2e 7f
        E 360 90 26 7f
        E 360 80 26 00
        E 0 90 14 7f
        E 7200 80 14 00
        E 480 80 26 00
        E 240 80 2e 00
        E 0 90 13 7f
        E 7200 80 13 00
        E 0 90 2e 7f
        E 7800 90 26 7f
        E 120 80 2e 00
        E 360 90 14 7f
        E 7320 80 26 00
        E 0 90 26 7f
        E 240 80 14 00
        E 0 90 13 7f
        E 7200 80 13 00
        E 480 80 26 00
        E 7440 90 16 7f
        E 7200 80 16 00
        E 240 90 15 7f
        E 120 90 26 7f
        E 7560 90 26 7f
        E 120 90 32 7f
        E 120 90 23 7f
        E 480 80 15 00
        E 840 80 26 00
        E 6120 90 23 7f
        E 480 80 26 00
        E 0 80 23 00
        E 7800 80 23 00
        E 7080 90 26 7f
        E 7680 90 23 7f
        E 600 90 26 7f
        E 360 80 26 00
        E 7320 90 23 7f
        E 360 80 23 00
        E 240 80 26 00
        E 7680 80 23 00
        E 14520 90 23 7f
        E 7440 90 23 7f
        E 360 80 23 00
        E 7680 80 23 00
        E 960 80 32 00
        E 14280 90 23 7f
        E 7800 80 23 00
        E 0 90 23 7f
        E 7920 80 23 00
        E 15000 90 23 7f
        E 7560 90 23 7f
        E 1560 80 23 00
        E 6600 80 23 00
        E 14880 90 23 7f
        E 8280 90 23 7f
        E 360 80 23 00
        E 7920 80 23 00
        E 36960 90 07 7f
        E 16440 80 07 00
        E 6480 90 07 7f
        E 15120 80 07 00
        E 8400 90 07 7f
        E 15720 80 07 00
        E 7200 90 07 7f
        E 15480 80 07 00
        E 7440 90 07 7f
        E 15720 80 07 00
        E 7800 90 07 7f
        E 14880 80 07 00
        E 7800 90 07 7f
        E 15120 80 07 00
        E 7800 90 07 7f
        E 15120 80 07 00
        E 8400 90 07 7f
        E 14520 80 07 00
        E 7800 90 07 7f
        E 14880 80 07 00
        E 8040 90 07 7f
        E 15120 80 07 00
        E 8160 90 07 7f
        E 7800 90 05 7f
        E 7560 80 07 00
        E 7680 90 07 7f
        E 240 80 05 00
        E 5520 90 05 7f
        E 8880 80 07 00
        E 6480 90 07 7f
        E 360 80 05 00
        E 5520 90 05 7f
        E 9000 80 07 00
        E 6240 90 07 7f
        E 240 80 05 00
        E 5280 90 05 7f
        E 8160 80 07 00
        E 5160 80 05 00
        E 480 90 07 7f
        E 7800 90 05 7f
        E 7560 80 07 00
        E 7680 90 07 7f
        E 240 80 05 00
        E 5520 90 05 7f
        E 8880 80 07 00
        E 6480 90 07 7f
        E 360 80 05 00
        E 5520 90 05 7f
        E 9000 80 07 00
        E 6240 90 07 7f
        E 240 80 05 00
        E 5280 90 05 7f
        E 8160 80 07 00
        E 5160 80 05 00
        E 480 90 07 7f
        E 7800 90 05 7f
        E 7560 80 07 00
        E 7680 90 07 7f
        E 240 80 05 00
        E 5520 90 05 7f
        E 8880 80 07 00
        E 6480 90 07 7f
        E 360 80 05 00
        E 5520 90 05 7f
        E 9000 80 07 00
        E 6240 90 07 7f
        E 240 80 05 00
        E 5280 90 05 7f
        E 8160 80 07 00
        E 5160 80 05 00
        E 1440 90 07 7f
        E 7800 90 05 7f
        E 7560 80 07 00
        E 7680 90 07 7f
        E 240 80 05 00
        E 5520 90 05 7f
        E 8880 80 07 00
        E 6480 90 07 7f
        E 360 80 05 00
        E 5520 90 05 7f
        E 9000 80 07 00
        E 6240 90 07 7f
        E 240 80 05 00
        E 5280 90 05 7f
        E 8160 80 07 00
        E 5160 80 05 00
        E 480 90 07 7f
        E 7800 90 05 7f
        E 7560 80 07 00
        E 7680 90 07 7f
        E 240 80 05 00
        E 5520 90 05 7f
        E 8880 80 07 00
        E 6480 90 07 7f
        E 360 80 05 00
        E 5520 90 05 7f
        E 9000 80 07 00
        E 6240 90 07 7f
        E 240 80 05 00
        E 5280 90 05 7f
        E 8160 80 07 00
        E 5160 80 05 00
        E 480 90 07 7f
        E 7800 90 05 7f
        E 7560 80 07 00
        E 7680 90 07 7f
        E 240 80 05 00
        E 5520 90 05 7f
        E 8880 80 07 00
        E 6480 90 07 7f
        E 360 80 05 00
        E 5520 90 05 7f
        E 9000 80 07 00
        E 6480 80 05 00
        E 3360 90 07 7f
        E 16440 80 07 00
        E 6480 90 07 7f
        E 15120 80 07 00
        E 8400 90 07 7f
        E 15720 80 07 00
        E 4800 90 16 7f
        E 1320 90 12 7f
        E 0 90 1a 7f
        E 1080 90 07 7f
        E 240 90 1d 7f
        E 12600 90 18 7f
        E 2640 80 07 00
        E 6360 80 12 00
        E 0 80 1a 00
        E 0 80 1d 00
        E 1080 90 07 7f
        E 120 80 16 00
        E 15600 80 07 00
        E 7800 90 07 7f
        E 1920 80 18 00
        E 12960 80 07 00
        E 7800 90 07 7f
        E 15120 80 07 00
        E 6000 90 16 7f
        E 1320 90 12 7f
        E 0 90 1a 7f
        E 480 90 07 7f
        E 840 90 1d 7f
        E 12600 90 18 7f
        E 1680 80 07 00
        E 7320 80 12 00
        E 0 80 1a 00
        E 0 80 1d 00
        E 1080 90 07 7f
        E 120 80 16 00
        E 14400 80 07 00
        E 7800 90 07 7f
        E 3120 80 18 00
        E 11760 80 07 00
        E 8040 90 07 7f
        E 15120 80 07 00
        E 5520 90 16 7f
        E 1320 90 12 7f
        E 0 90 1a 7f
        E 1320 90 1d 7f
        E 0 90 07 7f
        E 7800 90 05 7f
        E 4800 90 18 7f
        E 2760 80 07 00
        E 6240 80 12 00
        E 0 80 1a 00
        E 0 80 1d 00
        E 1200 80 16 00
        E 240 90 07 7f
        E 240 80 05 00
        E 5520 90 05 7f
        E 8880 80 07 00
        E 6480 90 07 7f
        E 360 80 05 00
        E 3600 80 18 00
        E 1920 90 05 7f
        E 9000 80 07 00
        E 6240 90 07 7f
        E 240 80 05 00
        E 5280 90 05 7f
        E 8160 80 07 00
        E 5160 80 05 00
        E 480 90 07 7f
        E 5400 90 16 7f
        E 1320 90 12 7f
        E 0 90 1a 7f
        E 1080 90 05 7f
        E 240 90 1d 7f
        E 7320 80 07 00
        E 5280 90 18 7f
        E 2400 90 07 7f
        E 240 80 05 00
        E 5520 90 05 7f
        E 840 80 12 00
        E 0 80 1a 00
        E 0 80 1d 00
        E 1200 80 16 00
        E 6840 80 07 00
        E 6480 90 07 7f
        E 360 80 05 00
        E 5520 90 05 7f
        E 6120 80 18 00
        E 2880 80 07 00
        E 6240 90 07 7f
        E 240 80 05 00
        E 5280 90 05 7f
        E 8160 80 07 00
        E 5160 80 05 00
        E 480 90 07 7f
        E 7800 90 05 7f
        E 3120 90 16 7f
        E 1320 90 12 7f
        E 0 90 1a 7f
        E 1320 90 1d 7f
        E 1800 80 07 00
        E 360 90 0c 7f
        E 7320 90 07 7f
        E 240 80 05 00
        E 2880 90 18 7f
        E 2640 90 05 7f
        E 2280 80 0c 00
        E 4080 80 12 00
        E 0 80 1a 00
        E 0 80 1d 00
        E 1200 80 16 00
        E 1320 80 07 00
        E 1080 90 0c 7f
        E 5400 90 07 7f
        E 360 80 05 00
        E 5520 90 05 7f
        E 3360 80 0c 00
        E 5640 80 07 00
        E 840 90 0c 7f
        E 1800 80 18 00
        E 3600 90 07 7f
        E 240 80 05 00
        E 5280 90 05 7f
        E 3960 80 0c 00
        E 4200 80 07 00
        E 2040 90 0c 7f
        E 3120 80 05 00
        E 1440 90 07 7f
        E 7800 90 05 7f
        E 1320 80 0c 00
        E 5640 90 0c 7f
        E 600 80 07 00
        E 2640 90 16 7f
        E 1320 90 12 7f
        E 0 90 1a 7f
        E 1320 90 1d 7f
        E 2400 90 07 7f
        E 240 80 05 00
        E 5520 90 05 7f
        E 1320 80 0c 00
        E 3120 90 18 7f
        E 4440 80 07 00
        E 120 90 0c 7f
        E 4440 80 12 00
        E 0 80 1a 00
        E 0 80 1d 00
        E 1200 80 16 00
        E 720 90 07 7f
        E 360 80 05 00
        E 5520 90 05 7f
        E 2400 80 0c 00
        E 6480 90 0c 7f
        E 120 80 07 00
        E 6240 90 07 7f
        E 240 80 05 00
        E 3240 80 18 00
        E 2040 90 05 7f
        E 3000 80 0c 00
        E 5160 80 07 00
        E 1080 90 0c 7f
        E 4080 80 05 00
        E 480 90 07 7f
        E 7800 90 05 7f
        E 1320 80 0c 00
        E 5640 90 0c 7f
        E 600 80 07 00
        E 7920 80 05 00
        E 120 90 16 7f
        E 1320 90 12 7f
        E 0 90 1a 7f
        E 1320 90 1d 7f
        E 4080 80 0c 00
        E 7680 90 0c 7f
        E 840 90 18 7f
        E 9000 80 12 00
        E 0 80 1a 00
        E 0 80 1d 00
        E 1200 80 16 00
        E 3600 80 0c 00
        E 6480 90 0c 7f
        E 14880 80 0c 00
        E 360 80 18 00
        E 5880 90 0c 7f
        E 13680 80 0c 00
        E 6600 90 0c 7f
        E 15360 80 0c 00
        E 360 90 16 7f
        E 1320 90 12 7f
        E 0 90 1a 7f
        E 1320 90 1d 7f
        E 4680 90 0c 7f
        E 7920 90 18 7f
        E 6720 80 0c 00
        E 2280 80 12 00
        E 0 80 1a 00
        E 0 80 1d 00
        E 1200 80 16 00
        E 3000 90 0c 7f
        E 14880 80 0c 00
        E 6240 90 0c 7f
        E 1200 80 18 00
        E 12480 80 0c 00
        E 5640 90 0c 7f
        E 15360 80 0c 00
        E 36720 90 16 7f
        E 1320 90 12 7f
        E 0 90 1a 7f
        E 1320 90 1d 7f
        E 12600 90 18 7f
        E 9000 80 12 00
        E 0 80 1a 00
        E 0 80 1d 00
        E 1200 80 16 00
        E 25320 80 18 00
        E 41880 90 16 7f
        E 1320 90 12 7f
        E 0 90 1a 7f
        E 1320 90 1d 7f
        E 12600 90 18 7f
        E 9000 80 12 00
        E 0 80 1a 00
        E 0 80 1d 00
        E 1200 80 16 00
        E 25320 80 18 00
        E 40440 90 16 7f
        E 1320 90 12 7f
        E 0 90 1a 7f
        E 1320 90 1d 7f
        E 12600 90 18 7f
        E 9000 80 12 00
        E 0 80 1a 00
        E 0 80 1d 00
        E 1200 80 16 00
        E 25320 80 18 00
        E 41880 90 16 7f
        E 1320 90 12 7f
        E 0 90 1a 7f
        E 1320 90 1d 7f
        E 12600 90 18 7f
        E 9000 80 12 00
        E 0 80 1a 00
        E 0 80 1d 00
        E 1200 80 16 00
        E 13800 90 25 7f
        E 1320 90 29 7f
        E 10200 80 18 00
        E 3720 90 27 7f
        E 2640 90 2c 7f
        E 6360 80 29 00
        E 1200 80 25 00
        E 14040 80 2c 00
        E 11280 80 27 00
        E 120 90 16 7f
        E 1320 90 12 7f
        E 0 90 1a 7f
        E 1320 90 1d 7f
        E 12600 90 18 7f
        E 9000 80 12 00
        E 0 80 1a 00
        E 0 80 1d 00
        E 1200 80 16 00
        E 16320 90 25 7f
        E 1320 90 29 7f
        E 7680 80 18 00
        E 6240 90 27 7f
        E 1800 90 2c 7f
        E 7200 80 29 00
        E 1200 80 25 00
        E 13200 80 2c 00
        E 12120 80 27 00
        E 120 90 16 7f
        E 1320 90 12 7f
        E 0 90 1a 7f
        E 1320 90 1d 7f
        E 12600 90 18 7f
        E 9000 80 12 00
        E 0 80 1a 00
        E 0 80 1d 00
        E 1200 80 16 00
        E 13680 90 25 7f
        E 1320 90 29 7f
        E 10320 80 18 00
        E 3600 90 27 7f
        E 3480 90 2c 7f
        E 5520 80 29 00
        E 1200 80 25 00
        E 14880 80 2c 00
        E 10440 80 27 00
        E 120 90 16 7f
        E 1320 90 12 7f
        E 0 90 1a 7f
        E 1320 90 1d 7f
        E 12600 90 18 7f
        E 9000 80 12 00
        E 0 80 1a 00
        E 0 80 1d 00
        E 1200 80 16 00
        E 16320 90 25 7f
        E 1320 90 29 7f
        E 7680 80 18 00
        E 6240 90 27 7f
        E 9000 80 29 00
        E 1200 80 25 00
        E 7680 90 2c 7f
        E 17640 80 27 00
        E 120 90 16 7f
        E 1320 90 12 7f
        E 0 90 1a 7f
        E 1320 90 1d 7f
        E 1200 80 2c 00
        E 11400 90 18 7f
        E 9000 80 12 00
        E 0 80 1a 00
        E 0 80 1d 00
        E 1200 80 16 00
        E 2400 90 25 7f
        E 1320 90 29 7f
        E 13920 90 27 7f
        E 2640 90 2c 7f
        E 5040 80 18 00
        E 1320 80 29 00
        E 1200 80 25 00
        E 14040 80 2c 00
        E 11280 80 27 00
        E 120 90 16 7f
        E 1320 90 12 7f
        E 0 90 1a 7f
        E 1320 90 1d 7f
        E 12600 90 18 7f
        E 9000 80 12 00
        E 0 80 1a 00
        E 0 80 1d 00
        E 1200 80 16 00
        E 16320 90 25 7f
        E 1320 90 29 7f
        E 7680 80 18 00
        E 6240 90 27 7f
        e 1080 90 2c 7f
        E 7920 80 29 00
        E 1200 80 25 00
        e 12480 80 2c 00
        E 10320 80 27 00
        E 2640 90 16 7f
        E 1320 90 12 7f
        E 0 90 1a 7f
        E 1320 90 1d 7f
        E 12600 90 18 7f
        E 9000 80 12 00
        E 0 80 1a 00
        E 0 80 1d 00
        E 1200 80 16 00
        E 22800 80 18 00
        E 798120 b0 7b 00
        CCINTERP 32
        CHASE_CC_TAKEOFFS 1
        GUID {E803C4E2-E7B1-5C48-8BAE-F5D658905010}
        IGNTEMPO 0 120 4 4
        SRCCOLOR 0
        VELLANE -1 100 0
        CFGEDITVIEW 40818.329252 0.000481 65 12 0 -1 0 0 0 0.5
        KEYSNAP 0
        TRACKSEL 0
        EVTFILTER 0 -1 -1 -1 -1 0 0 0 0 -1 -1 -1 -1 0 -1 0 -1 -1
        CFGEDIT 1 1 0 1 0 0 1 1 1 1 1 0.125 0 61 1792 1095 0 0 0 0 0 0 0 0 0 0.5 0 0 1 64
      >
    >
  >
  <TRACK {484F3051-3991-0947-BC30-6C8FEFEA1768}
    NAME ReaSynth
    PEAKCOL 16576
    BEAT -1
    AUTOMODE 0
    VOLPAN 1.00000000000025 0 -1 -1 1
    MUTESOLO 1 0 0
    IPHASE 0
    PLAYOFFS 0 1
    ISBUS 0 0
    BUSCOMP 0 0 0 0 0
    SHOWINMIX 1 0.6667 0.5 1 0.5 0 -1 0
    FREEMODE 0
    SEL 1
    REC 1 5088 1 0 0 0 0
    VU 2
    TRACKHEIGHT 0 0 0 0 0 0
    INQ 0 0 0 0.5 100 0 0 100
    NCHAN 2
    FX 1
    TRACKID {484F3051-3991-0947-BC30-6C8FEFEA1768}
    PERF 0
    MIDIOUT -1
    MAINSEND 1 0
    <FXCHAIN
      WNDRECT 45 568 611 495
      SHOW 0
      LASTSEL 1
      DOCKED 0
    >
    <FREEZE 0
      <FXCHAIN
        WNDRECT 45 568 611 495
        SHOW 0
        LASTSEL 1
        DOCKED 0
        BYPASS 1 0 0
        <VST "VSTi: ReaSynth (Cockos)" reasynth.vst.dylib 0 "" 1919251321<5653547265737972656173796E746800> ""
          eXNlcu9e7f4AAAAAAgAAAAEAAAAAAAAAAgAAAAAAAABAAAAAAAAAAAAAEAA=
          776t3g3wrd4aL9E+ka2ePAAAAAAAAAAAAAAAAM5NAD8CBiQ+AAAAAAAAAD8AAIA/AACAPwAAAD8AAAAAAAAAAA==
          AAAQAAAA
        >
        FLOATPOS 0 0 0 0
        FXID {C6AD6498-6001-2F49-967B-EB2FD5EAD8FA}
        WAK 0 0
        BYPASS 0 0 0
        <VST "VSTi: ReaSynth (Cockos)" reasynth.vst.dylib 0 "" 1919251321<5653547265737972656173796E746800> ""
          eXNlcu9e7f4AAAAAAgAAAAEAAAAAAAAAAgAAAAAAAABAAAAAAAAAAAAAEAA=
          776t3g3wrd6mm8Q7F7fROgAAAAAAAAAAAAAAAM5NAD/pZ4g9AAAAAAAAAD8AAIA/AACAPwAAAD8AAAAAAAAAAA==
          AAAQAAAA
        >
        FLOATPOS 0 0 0 0
        FXID {89149E2E-64DC-9C4F-9B48-C10B47E59E0D}
        WAK 0 0
      >
      <ITEM {914615E3-119E-3A4E-A510-8FA4B4C6254B}
        POSITION 0
        SNAPOFFS 0
        LENGTH 184
        LOOP 1
        ALLTAKES 0
        FADEIN 1 0 0 1 0 0 0
        FADEOUT 1 0 0 1 0 0 0
        MUTE 0 0
        SEL 1
        IGUID {914615E3-119E-3A4E-A510-8FA4B4C6254B}
        IID 1
        NAME "untitled MIDI item"
        VOLPAN 1 0 1 -1
        SOFFS 0 0
        PLAYRATE 1 1 0 -1 0 0.0025
        CHANMODE 0
        GUID {35EEA349-5EB7-1B4B-A8C3-9E835B08C931}
        <SOURCE MIDI
          HASDATA 1 960 QN
          CCINTERP 32
          POOLEDEVTS {50CF3FD0-552D-E647-850F-D773C67AA2EA}
          E 6720 90 00 7f
          E 120 80 00 00
          E 0 90 00 7f
          E 120 80 00 00
          E 240 90 00 7f
          E 120 80 00 00
          E 0 90 00 7f
          E 120 80 00 00
          E 240 90 00 7f
          E 120 80 00 00
          E 0 90 00 7f
          E 120 80 00 00
          E 240 90 00 7f
          E 120 80 00 00
          E 0 90 00 7f
          E 120 80 00 00
          E 240 90 00 7f
          E 120 80 00 00
          E 0 90 00 7f
          E 120 80 00 00
          E 240 90 00 7f
          E 120 80 00 00
          E 0 90 00 7f
          E 120 80 00 00
          E 240 90 00 7f
          E 120 80 00 00
          E 0 90 00 7f
          E 120 80 00 00
          E 240 90 00 7f
          E 120 80 00 00
          E 0 90 00 7f
          E 120 80 00 00
          E 1680 90 00 7f
          E 480 90 02 7f
          E 480 80 00 00
          E 360 80 02 00
          E 600 90 00 7f
          E 480 90 02 7f
          E 480 80 00 00
          E 480 80 02 00
          E 480 90 00 7f
          E 480 90 02 7f
          E 480 80 00 00
          E 480 80 02 00
          E 480 90 00 7f
          E 480 90 02 7f
          E 480 80 00 00
          E 360 80 02 00
          E 3960 90 00 7f
          E 0 90 02 7f
          E 0 90 04 7f
          E 0 90 06 7f
          E 0 90 08 7f
          E 480 80 00 00
          E 0 80 02 00
          E 0 80 04 00
          E 0 80 06 00
          E 480 80 08 00
          E 0 90 06 7f
          E 0 90 04 7f
          E 0 90 02 7f
          E 0 90 00 7f
          E 360 90 08 7f
          E 120 80 06 00
          E 0 80 04 00
          E 0 80 02 00
          E 0 80 00 00
          E 840 80 08 00
          E 120 90 02 7f
          E 0 90 00 7f
          E 0 90 06 7f
          E 240 90 04 7f
          E 0 90 07 7f
          E 240 80 02 00
          E 0 80 00 00
          E 0 80 06 00
          E 960 80 04 00
          E 480 80 07 00
          E 480 90 08 7f
          E 0 90 05 7f
          E 0 90 00 7f
          E 0 90 02 7f
          E 480 80 08 00
          E 0 80 05 00
          E 0 80 00 00
          E 0 90 04 7f
          E 0 90 07 7f
          E 480 80 02 00
          E 480 80 04 00
          E 0 80 07 00
          E 480 90 02 7f
          E 0 90 00 7f
          E 0 90 04 7f
          E 0 90 06 7f
          E 480 80 02 00
          E 0 80 00 00
          E 0 80 04 00
          E 0 80 06 00
          E 4320 90 00 7f
          E 0 90 06 7f
          E 120 80 00 00
          E 0 80 06 00
          E 0 90 00 7f
          E 0 90 06 7f
          E 120 80 00 00
          E 0 80 06 00
          E 0 90 08 7f
          E 240 80 08 00
          E 0 90 00 7f
          E 0 90 06 7f
          E 120 80 00 00
          E 0 80 06 00
          E 0 90 00 7f
          E 0 90 06 7f
          E 120 80 00 00
          E 0 80 06 00
          E 0 90 08 7f
          E 240 80 08 00
          E 0 90 00 7f
          E 0 90 06 7f
          E 120 80 00 00
          E 0 80 06 00
          E 0 90 00 7f
          E 0 90 06 7f
          E 120 80 00 00
          E 0 80 06 00
          E 0 90 08 7f
          E 240 80 08 00
          E 0 90 00 7f
          E 0 90 06 7f
          E 120 80 00 00
          E 0 80 06 00
          E 0 90 00 7f
          E 0 90 06 7f
          E 120 80 00 00
          E 0 80 06 00
          E 0 90 08 7f
          E 240 80 08 00
          E 0 90 06 7f
          E 0 90 00 7f
          E 120 80 06 00
          E 0 80 00 00
          E 0 90 06 7f
          E 0 90 00 7f
          E 120 80 06 00
          E 0 80 00 00
          E 0 90 08 7f
          E 240 80 08 00
          E 0 90 06 7f
          E 0 90 00 7f
          E 120 80 06 00
          E 0 80 00 00
          E 0 90 06 7f
          E 0 90 00 7f
          E 120 80 06 00
          E 0 80 00 00
          E 0 90 08 7f
          E 240 80 08 00
          E 0 90 06 7f
          E 0 90 00 7f
          E 120 80 06 00
          E 0 80 00 00
          E 0 90 06 7f
          E 0 90 00 7f
          E 120 80 06 00
          E 0 80 00 00
          E 0 90 08 7f
          E 240 80 08 00
          E 0 90 00 7f
          E 0 90 06 7f
          E 120 80 00 00
          E 0 80 06 00
          E 0 90 00 7f
          E 0 90 06 7f
          E 120 80 00 00
          E 0 80 06 00
          E 0 90 08 7f
          E 240 80 08 00
          E 3840 90 08 7f
          E 0 90 00 7f
          E 480 80 00 00
          E 0 90 03 7f
          E 0 90 05 7f
          E 0 90 0a 7f
          E 480 80 08 00
          E 0 80 03 00
          E 0 80 05 00
          E 480 90 08 7f
          E 0 90 00 7f
          E 480 80 00 00
          E 0 90 03 7f
          E 0 90 05 7f
          E 120 90 0e 7f
          E 360 80 08 00
          E 0 80 03 00
          E 0 80 05 00
          E 0 90 00 7f
          E 120 90 09 7f
          E 0 90 0b 7f
          E 240 80 0a 00
          E 240 80 0e 00
          E 0 80 09 00
          E 0 80 0b 00
          E 480 90 0e 7f
          E 0 90 05 7f
          E 480 90 09 7f
          E 0 90 0b 7f
          E 480 80 0e 00
          E 0 80 09 00
          E 0 80 0b 00
          E 240 80 00 00
          E 0 90 02 7f
          E 720 90 0e 7f
          E 0 90 09 7f
          E 0 90 0b 7f
          E 360 80 05 00
          E 120 80 09 00
          E 0 80 0b 00
          E 480 80 0e 00
          E 1320 80 02 00
          E 3840 90 07 7f
          E 0 90 02 7f
          E 120 90 0c 7f
          E 240 90 10 7f
          E 120 80 07 00
          E 0 80 02 00
          E 120 80 0c 00
          E 120 90 04 7f
          E 120 80 10 00
          E 120 90 08 7f
          E 0 90 02 7f
          E 0 90 00 7f
          E 120 90 0c 7f
          E 120 80 04 00
          E 240 80 08 00
          E 0 80 02 00
          E 0 80 00 00
          E 0 90 10 7f
          E 120 80 0c 00
          E 120 90 04 7f
          E 240 80 10 00
          E 0 90 08 7f
          E 0 90 00 7f
          E 240 80 04 00
          E 240 80 08 00
          E 0 80 00 00
          E 0 90 0c 7f
          E 0 90 02 7f
          E 360 90 04 7f
          E 120 80 0c 00
          E 0 80 02 00
          E 0 90 10 7f
          E 360 80 04 00
          E 120 80 10 00
          E 0 90 0c 7f
          E 0 90 02 7f
          E 480 80 0c 00
          E 0 80 02 00
          E 3840 90 00 7f
          E 960 80 00 00
          E 480 90 00 7f
          E 960 80 00 00
          E 480 90 00 7f
          E 960 80 00 00
          E 480 90 00 7f
          E 960 80 00 00
          E 480 90 00 7f
          E 960 80 00 00
          E 480 90 00 7f
          E 960 80 00 00
          E 480 90 00 7f
          E 960 80 00 00
          E 480 90 00 7f
          E 960 80 00 00
          E 480 90 00 7f
          E 960 80 00 00
          E 960 90 00 7f
          E 960 80 00 00
          E 480 90 00 7f
          E 960 80 00 00
          E 480 90 00 7f
          E 960 80 00 00
          E 480 90 00 7f
          E 960 80 00 00
          E 480 90 00 7f
          E 960 80 00 00
          E 480 90 00 7f
          E 960 80 00 00
          E 480 90 00 7f
          E 960 80 00 00
          E 480 90 00 7f
          E 960 80 00 00
          E 480 90 00 7f
          E 960 80 00 00
          E 960 90 00 7f
          E 960 80 00 00
          E 360 90 00 7f
          E 960 80 00 00
          E 480 90 00 7f
          E 960 80 00 00
          E 480 90 00 7f
          E 960 80 00 00
          E 480 90 00 7f
          E 960 80 00 00
          E 480 90 00 7f
          E 600 90 03 7f
          E 360 80 00 00
          E 120 80 03 00
          E 360 90 00 7f
          E 120 90 03 7f
          E 480 80 03 00
          E 360 80 00 00
          E 480 90 00 7f
          E 960 80 00 00
          E 480 90 00 7f
          E 600 90 03 7f
          E 360 80 00 00
          E 120 80 03 00
          E 480 90 03 7f
          E 360 90 00 7f
          E 120 80 03 00
          E 840 80 00 00
          E 480 90 00 7f
          E 960 80 00 00
          E 480 90 00 7f
          E 120 90 03 7f
          E 480 80 03 00
          E 360 80 00 00
          E 120 90 03 7f
          E 360 90 00 7f
          E 120 80 03 00
          E 840 80 00 00
          E 480 90 00 7f
          E 120 90 03 7f
          E 480 80 03 00
          E 360 80 00 00
          E 120 90 03 7f
          E 360 90 00 7f
          E 120 80 03 00
          E 840 80 00 00
          E 480 90 00 7f
          E 960 80 00 00
          E 480 90 00 7f
          E 120 90 03 7f
          E 480 80 03 00
          E 360 80 00 00
          E 120 90 03 7f
          E 360 90 00 7f
          E 120 80 03 00
          E 840 80 00 00
          E 1080 90 00 7f
          E 960 80 00 00
          E 0 90 03 7f
          E 480 80 03 00
          E 0 90 00 7f
          E 480 90 03 7f
          E 480 80 00 00
          E 0 80 03 00
          E 480 90 00 7f
          E 960 80 00 00
          E 480 90 00 7f
          E 960 80 00 00
          E 480 90 00 7f
          E 960 80 00 00
          E 480 90 00 7f
          E 600 90 03 7f
          E 360 80 00 00
          E 120 80 03 00
          E 360 90 00 7f
          E 120 90 03 7f
          E 480 80 03 00
          E 360 80 00 00
          E 480 90 00 7f
          E 960 80 00 00
          E 480 90 00 7f
          E 600 90 03 7f
          E 360 80 00 00
          E 120 80 03 00
          E 480 90 03 7f
          E 360 90 00 7f
          E 120 80 03 00
          E 840 80 00 00
          E 480 90 00 7f
          E 960 80 00 00
          E 480 90 00 7f
          E 120 90 03 7f
          E 480 80 03 00
          E 360 80 00 00
          E 120 90 03 7f
          E 360 90 00 7f
          E 120 80 03 00
          E 600 80 00 00
          E 720 90 00 7f
          E 120 90 03 7f
          E 480 80 03 00
          E 360 80 00 00
          E 120 90 03 7f
          E 360 90 00 7f
          E 120 80 03 00
          E 840 80 00 00
          E 480 90 00 7f
          E 960 80 00 00
          E 480 90 00 7f
          E 120 90 03 7f
          E 480 80 03 00
          E 360 80 00 00
          E 120 90 03 7f
          E 360 90 00 7f
          E 120 80 03 00
          E 840 80 00 00
          E 480 90 00 7f
          E 960 80 00 00
          E 480 90 00 7f
          E 120 90 03 7f
          E 480 80 03 00
          E 360 80 00 00
          E 120 90 03 7f
          E 360 90 00 7f
          E 120 80 03 00
          E 840 80 00 00
          E 480 90 00 7f
          E 960 80 00 00
          E 960 90 00 7f
          E 120 90 03 7f
          E 480 80 03 00
          E 360 80 00 00
          E 120 90 03 7f
          E 360 90 00 7f
          E 120 80 03 00
          E 840 80 00 00
          E 480 90 00 7f
          E 960 80 00 00
          E 480 90 00 7f
          E 120 90 03 7f
          E 480 80 03 00
          E 480 90 03 7f
          E 480 80 00 00
          E 0 80 03 00
          E 0 90 08 7f
          E 720 80 08 00
          E 240 90 00 7f
          E 840 90 08 7f
          E 120 80 00 00
          E 480 90 00 7f
          E 360 80 08 00
          E 120 90 03 7f
          E 480 80 00 00
          E 0 80 03 00
          E 480 90 00 7f
          E 0 90 03 7f
          E 480 80 03 00
          E 480 80 00 00
          E 480 90 00 7f
          E 480 90 03 7f
          E 480 80 00 00
          E 0 80 03 00
          E 480 90 00 7f
          E 0 90 03 7f
          E 480 80 03 00
          E 480 80 00 00
          E 480 90 00 7f
          E 960 80 00 00
          E 480 90 00 7f
          E 0 90 08 7f
          E 480 90 03 7f
          E 480 80 00 00
          E 0 80 08 00
          E 0 80 03 00
          E 480 90 00 7f
          E 0 90 03 7f
          E 360 90 08 7f
          E 120 80 03 00
          E 480 80 00 00
          E 480 80 08 00
          E 0 90 00 7f
          E 960 80 00 00
          E 960 90 00 7f
          E 0 90 03 7f
          E 480 80 03 00
          E 480 80 00 00
          E 0 90 03 7f
          E 480 80 03 00
          E 0 90 00 7f
          E 960 80 00 00
          E 480 90 00 7f
          E 960 80 00 00
          E 480 90 00 7f
          E 960 80 00 00
          E 480 90 00 7f
          E 960 80 00 00
          E 120 90 03 7f
          E 360 90 00 7f
          E 120 80 03 00
          E 480 90 03 7f
          E 360 80 00 00
          E 120 80 03 00
          E 240 90 08 7f
          E 120 90 00 7f
          E 840 80 08 00
          E 120 80 00 00
          E 480 90 00 7f
          E 360 90 08 7f
          E 600 80 00 00
          E 120 80 08 00
          E 0 90 03 7f
          E 360 90 00 7f
          E 120 80 03 00
          E 480 90 03 7f
          E 360 80 00 00
          E 120 80 03 00
          E 840 90 00 7f
          E 960 80 00 00
          E 360 90 00 7f
          E 720 90 03 7f
          E 240 80 00 00
          E 240 80 03 00
          E 240 90 00 7f
          E 240 90 03 7f
          E 480 80 03 00
          E 240 80 00 00
          E 480 90 00 7f
          E 480 90 08 7f
          E 240 90 03 7f
          E 240 80 00 00
          E 240 80 03 00
          E 120 80 08 00
          E 120 90 00 7f
          E 240 90 03 7f
          E 480 80 03 00
          E 240 80 00 00
          E 0 90 07 7f
          E 480 90 00 7f
          E 480 80 07 00
          E 480 80 00 00
          E 480 90 00 7f
          E 720 90 03 7f
          E 240 80 00 00
          E 240 80 03 00
          E 240 90 00 7f
          E 240 90 03 7f
          E 480 80 03 00
          E 240 80 00 00
          E 480 90 00 7f
          E 960 80 00 00
          E 960 90 00 7f
          E 240 90 03 7f
          E 480 80 03 00
          E 240 80 00 00
          E 240 90 03 7f
          E 240 90 00 7f
          E 240 80 03 00
          E 720 80 00 00
          E 480 90 00 7f
          E 960 80 00 00
          E 480 90 00 7f
          E 960 80 00 00
          E 480 90 00 7f
          E 240 90 03 7f
          E 480 80 03 00
          E 240 80 00 00
          E 240 90 03 7f
          E 240 90 00 7f
          E 240 80 03 00
          E 720 80 00 00
          E 1680 90 00 7f
          E 480 90 03 7f
          E 480 80 00 00
          E 0 80 03 00
          E 480 90 00 7f
          E 0 90 03 7f
          E 480 80 03 00
          E 480 80 00 00
          E 480 90 00 7f
          E 960 80 00 00
          E 480 90 00 7f
          E 480 90 03 7f
          E 480 80 00 00
          E 0 80 03 00
          E 480 90 00 7f
          E 0 90 03 7f
          E 480 80 03 00
          E 480 80 00 00
          E 480 90 00 7f
          E 480 90 03 7f
          E 480 80 00 00
          E 0 80 03 00
          E 480 90 00 7f
          E 0 90 03 7f
          E 480 80 03 00
          E 480 80 00 00
          E 480 90 00 7f
          E 960 80 00 00
          E 480 90 00 7f
          E 480 90 03 7f
          E 480 80 00 00
          E 0 80 03 00
          E 480 90 03 7f
          E 480 80 03 00
          E 0 90 00 7f
          E 960 80 00 00
          E 480 90 00 7f
          E 960 80 00 00
          E 240 90 03 7f
          E 240 90 00 7f
          E 480 80 03 00
          E 480 80 00 00
          E 0 90 03 7f
          E 480 80 03 00
          E 0 90 00 7f
          E 240 90 08 7f
          E 720 80 00 00
          E 0 80 08 00
          E 480 90 00 7f
          E 360 90 08 7f
          E 600 80 00 00
          E 360 80 08 00
          E 120 90 00 7f
          E 960 80 00 00
          E 480 90 00 7f
          E 960 80 00 00
          E 480 90 00 7f
          E 960 80 00 00
          E 480 90 00 7f
          E 960 80 00 00
          E 960 90 00 7f
          E 480 90 08 7f
          E 480 80 00 00
          E 360 90 00 7f
          E 120 80 08 00
          E 840 80 00 00
          E 0 90 08 7f
          E 480 90 00 7f
          E 600 80 08 00
          E 360 80 00 00
          E 480 90 00 7f
          E 960 80 00 00
          E 480 90 00 7f
          E 960 80 00 00
          E 480 90 00 7f
          E 600 90 03 7f
          E 360 80 00 00
          E 120 80 03 00
          E 360 90 00 7f
          E 120 90 03 7f
          E 480 80 03 00
          E 360 80 00 00
          E 480 90 00 7f
          E 960 80 00 00
          E 480 90 00 7f
          E 600 90 03 7f
          E 360 80 00 00
          E 120 80 03 00
          E 480 90 03 7f
          E 360 90 00 7f
          E 120 80 03 00
          E 360 90 08 7f
          E 480 80 00 00
          E 480 80 08 00
          E 0 90 00 7f
          E 960 80 00 00
          E 0 90 08 7f
          E 480 90 00 7f
          E 120 90 03 7f
          E 120 80 08 00
          E 0 90 0c 7f
          E 360 80 03 00
          E 360 80 00 00
          E 0 80 0c 00
          E 120 90 03 7f
          E 360 90 00 7f
          E 120 80 03 00
          E 480 90 0c 7f
          E 360 80 00 00
          E 480 90 00 7f
          E 120 80 0c 00
          E 0 90 03 7f
          E 480 80 03 00
          E 360 80 00 00
          E 120 90 03 7f
          E 360 90 00 7f
          E 120 80 03 00
          E 840 80 00 00
          E 480 90 00 7f
          E 960 80 00 00
          E 480 90 00 7f
          E 0 90 08 7f
          E 120 90 03 7f
          E 480 80 03 00
          E 240 80 08 00
          E 120 80 00 00
          E 120 90 03 7f
          E 360 90 00 7f
          E 120 80 03 00
          E 360 90 07 7f
          E 480 80 00 00
          E 240 90 0c 7f
          E 240 80 07 00
          E 600 90 00 7f
          E 120 80 0c 00
          E 840 80 00 00
          E 0 90 03 7f
          E 0 90 0c 7f
          E 480 80 03 00
          E 0 90 00 7f
          E 480 90 03 7f
          E 120 80 0c 00
          E 360 80 00 00
          E 0 80 03 00
          E 480 90 00 7f
          E 960 80 00 00
          E 480 90 00 7f
          E 960 80 00 00
          E 480 90 00 7f
          E 960 80 00 00
          E 480 90 00 7f
          E 600 90 03 7f
          E 360 80 00 00
          E 120 80 03 00
          E 360 90 00 7f
          E 120 90 03 7f
          E 480 80 03 00
          E 360 80 00 00
          E 480 90 00 7f
          E 960 80 00 00
          E 480 90 00 7f
          E 600 90 03 7f
          E 360 80 00 00
          E 0 90 0c 7f
          E 120 80 03 00
          E 0 90 10 7f
          E 480 90 03 7f
          E 240 80 10 00
          E 120 80 0c 00
          E 0 90 00 7f
          E 120 80 03 00
          E 840 80 00 00
          E 0 90 0c 7f
          E 0 90 10 7f
          E 480 90 00 7f
          E 240 80 0c 00
          E 240 80 10 00
          E 480 80 00 00
          E 480 90 00 7f
          E 120 90 03 7f
          E 480 80 03 00
          E 360 80 00 00
          E 120 90 03 7f
          E 360 90 00 7f
          E 120 80 03 00
          E 600 80 00 00
          E 720 90 00 7f
          E 120 90 03 7f
          E 480 80 03 00
          E 360 80 00 00
          E 120 90 03 7f
          E 360 90 00 7f
          E 120 80 03 00
          E 840 80 00 00
          E 480 90 00 7f
          E 0 90 0c 7f
          E 120 90 10 7f
          E 720 80 0c 00
          E 120 80 00 00
          E 120 80 10 00
          E 360 90 00 7f
          E 120 90 03 7f
          E 360 90 0b 7f
          E 0 90 10 7f
          E 120 80 03 00
          E 360 80 00 00
          E 120 90 03 7f
          E 360 80 0b 00
          E 0 90 00 7f
          E 120 80 10 00
          E 0 80 03 00
          E 840 80 00 00
          E 480 90 00 7f
          E 960 80 00 00
          E 480 90 00 7f
          E 120 90 03 7f
          E 480 80 03 00
          E 360 80 00 00
          E 120 90 03 7f
          E 360 90 00 7f
          E 120 80 03 00
          E 840 80 00 00
          E 480 90 00 7f
          E 960 80 00 00
          E 960 90 00 7f
          E 120 90 03 7f
          E 480 80 03 00
          E 360 80 00 00
          E 120 90 03 7f
          E 360 90 00 7f
          E 120 80 03 00
          E 840 80 00 00
          E 480 90 00 7f
          E 0 90 10 7f
          E 960 80 00 00
          E 0 80 10 00
          E 480 90 00 7f
          E 120 90 03 7f
          E 360 90 10 7f
          E 120 80 03 00
          E 480 90 03 7f
          E 120 80 10 00
          E 360 80 00 00
          E 0 80 03 00
          E 960 90 00 7f
          E 960 80 00 00
          E 480 90 00 7f
          E 480 90 03 7f
          E 480 80 00 00
          E 0 80 03 00
          E 480 90 00 7f
          E 0 90 03 7f
          E 480 80 03 00
          E 480 80 00 00
          E 480 90 00 7f
          E 480 90 03 7f
          E 480 80 00 00
          E 0 80 03 00
          E 0 90 15 7f
          E 360 90 10 7f
          E 120 90 00 7f
          E 0 90 03 7f
          E 480 80 03 00
          E 240 80 10 00
          E 240 80 00 00
          E 480 90 00 7f
          E 360 90 0f 7f
          E 600 80 00 00
          E 360 80 0f 00
          E 120 90 00 7f
          E 480 90 03 7f
          E 240 80 15 00
          E 240 80 00 00
          E 0 80 03 00
          E 480 90 00 7f
          E 0 90 03 7f
          E 480 80 03 00
          E 480 80 00 00
          E 480 90 00 7f
          E 960 80 00 00
          E 720 90 15 7f
          E 240 90 00 7f
          E 0 90 03 7f
          E 480 80 03 00
          E 480 80 00 00
          E 0 90 03 7f
          E 480 80 03 00
          E 0 90 00 7f
          E 960 80 00 00
          E 480 90 00 7f
          E 840 80 15 00
          E 120 80 00 00
          E 480 90 00 7f
          E 960 80 00 00
          E 480 90 00 7f
          E 960 80 00 00
          E 120 90 03 7f
          E 360 90 00 7f
          E 0 90 15 7f
          E 120 80 03 00
          E 480 90 03 7f
          E 360 80 00 00
          E 120 80 03 00
          E 360 90 00 7f
          E 960 80 00 00
          E 480 90 00 7f
          E 960 80 00 00
          E 120 90 03 7f
          E 240 80 15 00
          E 120 90 00 7f
          E 120 80 03 00
          E 480 90 03 7f
          E 360 80 00 00
          E 120 80 03 00
          E 840 90 00 7f
          E 960 80 00 00
          E 360 90 00 7f
          E 120 90 15 7f
          E 600 90 03 7f
          E 240 80 00 00
          E 240 80 03 00
          E 240 90 00 7f
          E 240 90 03 7f
          E 480 80 03 00
          E 240 80 00 00
          E 480 90 00 7f
          E 720 90 03 7f
          E 240 80 00 00
          E 120 80 15 00
          E 120 80 03 00
          E 240 90 00 7f
          E 240 90 03 7f
          E 480 80 03 00
          E 240 80 00 00
          E 480 90 00 7f
          E 960 80 00 00
          E 480 90 00 7f
          E 720 90 03 7f
          E 120 90 15 7f
          E 120 80 00 00
          E 240 80 03 00
          E 240 90 00 7f
          E 240 90 03 7f
          E 480 80 03 00
          E 240 80 00 00
          E 480 90 00 7f
          E 960 80 00 00
          E 960 80 15 00
          E 0 90 00 7f
          E 240 90 03 7f
          E 480 80 03 00
          E 240 80 00 00
          E 240 90 03 7f
          E 240 90 00 7f
          E 240 80 03 00
          E 720 80 00 00
          E 480 90 00 7f
          E 840 90 15 7f
          E 120 80 00 00
          E 480 90 00 7f
          E 960 80 00 00
          E 480 90 00 7f
          E 960 80 00 00
          E 480 90 00 7f
          E 360 80 15 00
          E 600 80 00 00
          E 3240 90 15 7f
          E 3720 80 15 00
          E 0 b0 7b 00
          CCINTERP 32
          CHASE_CC_TAKEOFFS 1
          GUID {E803C4E2-E7B1-5C48-8BAE-F5D658905010}
          IGNTEMPO 0 120 4 4
          SRCCOLOR 0
          VELLANE -1 100 0
          CFGEDITVIEW -11046.216613 0.003604 65 12 0 -1 0 0 0 0.5
          KEYSNAP 0
          TRACKSEL 0
          EVTFILTER 0 -1 -1 -1 -1 0 0 0 0 -1 -1 -1 -1 0 -1 0 -1 -1
          CFGEDIT 1 1 0 1 0 0 1 1 1 1 1 0.125 0 60 1792 1095 0 0 0 0 0 0 0 0 0 0.5 0 0 1 64
        >
      >
    >
    <ITEM
      POSITION 0
      SNAPOFFS 0
      LENGTH 185
      LOOP 0
      ALLTAKES 0
      FADEIN 1 0 0 1 0 0 0
      FADEOUT 1 0 0 1 0 0 0
      MUTE 0 0
      FREEZE 0 185 0
      LOCK 1
      SEL 0
      IGUID {AEE86309-257F-204E-A9DD-DBA2C58A774F}
      IID 31
      NAME "untitled MIDI item - freeze"
      VOLPAN 1 0 1 -1
      SOFFS 0
      PLAYRATE 1 1 0 -1 0 0.0025
      CHANMODE 0
      GUID {735A106A-7C5F-864D-81F9-3482A3F3C516}
      <SOURCE WAVE
        FILE "midi rhytm_freeze_ReaSynth.wav"
      >
      <VOLENV
        EGUID {F95CAECD-E2BB-B84E-BDD1-C3B7BB5BF3B7}
        ACT 1 -1
        VIS 1 1 1
        LANEHEIGHT 0 0
        ARM 0
        DEFSHAPE 0 -1 -1
        VOLTYPE 1
        PT 0 1.38366194 0 0 1
      >
    >
  >
  <TRACK {218C7E0E-F9F2-4C42-8010-6DF1A544AFC6}
    NAME TyrellN6
    PEAKCOL 16576
    BEAT -1
    AUTOMODE 0
    VOLPAN 1 0 -1 -1 1
    MUTESOLO 0 0 0
    IPHASE 0
    PLAYOFFS 0 1
    ISBUS 0 0
    BUSCOMP 0 0 0 0 0
    SHOWINMIX 1 0.6667 0.5 1 0.5 0 -1 0
    FREEMODE 0
    SEL 0
    REC 1 5088 1 0 0 0 0
    VU 2
    TRACKHEIGHT 0 0 0 0 0 0
    INQ 0 0 0 0.5 100 0 0 100
    NCHAN 2
    FX 1
    TRACKID {218C7E0E-F9F2-4C42-8010-6DF1A544AFC6}
    PERF 0
    MIDIOUT -1
    MAINSEND 1 0
    <FXCHAIN
      WNDRECT 595 412 1439 683
      SHOW 0
      LASTSEL 0
      DOCKED 0
      BYPASS 0 0 0
      <AU "AUi: TyrellN6 (u-he)" "u-he: TyrellN6" "" 1635085685 1952017974 1430808152
        6QMAAAAAAAAAAAAAAgAAAAEAAAAAAAAAAgAAAAAAAACRFwAAPD94bWwgdmVyc2lvbj0iMS4wIiBlbmNvZGluZz0iVVRGLTgiPz4KPCFET0NUWVBFIHBsaXN0IFBVQkxJ
        QyAiLS8vQXBwbGUvL0RURCBQTElTVCAxLjAvL0VOIiAiaHR0cDovL3d3dy5hcHBsZS5jb20vRFREcy9Qcm9wZXJ0eUxpc3QtMS4wLmR0ZCI+CjxwbGlzdCB2ZXJzaW9u
        PSIxLjAiPgo8ZGljdD4KCTxrZXk+QU1fU1RBVEU8L2tleT4KCTxkYXRhPgoJTHlwQWJXVjBZUW9LUVhWMGFHOXlPZ29uVkdobElGVnVjMmgxYzJoaFlteGxJRU52YTNS
        dmNpY0tDa1JsYzJOeWFYQjAKCWFXOXVPZ29uUVNCeWFIbDBhRzFwWTJGc2JIa2dZMmh2Y0hCbFpDQndZV1FnYzI5MWJtUXNJSE41Ym1ObFpDQjBieUJvCgliM04wSUhS
        bGJYQnZMZzBuQ2dwVmMyRm5aVG9LSjFabGJHOWphWFI1T2lCMGFHVWdhR0Z5WkdWeUlIbHZkU0JvYVhRZwoJZEdobElHdGxlWE1zSUhSb1pTQm9hV2RvWlhJZ2RHaGxJ
        SE4zWldWd0lHbHpJR2R2YVc1bklIUnZJSE4wWVhKMExnMU4KCWIyUjNhR1ZsYkRvZ2FXNWpjbVZoYzJWeklHTm9iM0FnYzNCbFpXUXVEVXRsZVNCUWNtVnpjM1Z5WlRv
        Z2FXNWpjbVZoCgljMlZ6SUhCaGJpQnNabThnYzNCbFpXUXVKd29LS2k4S0NpTkJUVDFVZVhKbGJHeE9OZ29qVm1WeWN6MHhNREF4TUFvagoJUlc1a2FXRnVQV3hwZEhS
        c1pRb2pibTA5TVRjS0kyMXpQVzV2Ym1VS0kyMXpQVTF2WkZkb2JBb2piWE05VUdsMFkyaFgKCUNpTnRjejFDY21WaGRHZ0tJMjF6UFZod2NtVnpjd29qYlhNOVIyRjBa
        UW9qYlhNOVZtVnNiMk5wZEhrS0kyMXpQVkJ5CglaWE56ZFhKbENpTnRjejFMWlhsR2IyeHNiM2NLSTIxelBVdGxlVVp2Ykd4dmR6SUtJMjF6UFVGc2RHVnlibUYwWlFv
        agoJYlhNOVVtRnVaRzl0Q2lOdGN6MVRkR0ZqYTFadmFXTmxDaU50Y3oxQlJGTlNNUW9qYlhNOVFVUlRVaklLSTIxelBVeEcKCVR6RUtJMjF6UFV4R1R6SUtJMjUyUFRJ
        S0kyMTJQVWRoZEdVS0kyMTJQVUZFVTFJeENpTmpiVDF0WVdsdUNrTmpUM0E5CglNVEV3TGpBd0NpTkRhSEp6TVQwd0NpTmpiVDFRUTI5eVpRcE5UVlF4UFZaRFFURTZV
        R0Z1Q2sxTlV6RTlNVFVLVFUxRQoJTVQwME5pNHdNQXBOVFZaVE1UMHdDazFOVmtReFBUQXVNREFLVFUxVU1qMVdRMEV4T2xadmJBcE5UVk15UFRrS1RVMUUKCU1qMHRN
        ekl1TURBS1RVMVdVekk5TUFwTlRWWkVNajB3TGpBd0NsTkNZWE5sUFRRS1UzZHBibWM5TUM0d01BcFRWSEpwCglaejB4Q2xCVGIyNW5QVEFLVUVadmJHUTlNQXBRUm1s
        c1pUMHhDa2RHYVd4bFBUSUtSMU5qWVd4bFBUQUtRMmhNWVhrOQoJTUFwVGRYSnlUejB4Q2xKbGRqMHpPRGs0Q2t4RlJEMHdMakF3Q2xCQlIwVTlNQXBRWVdkbGMwOXVQ
        VEFLUTI5eVpVNDkKCU13cFRiR2xqWlQwMENsVkpYMjl3UFRRS1RXbGthVUU5TlFwTmFXUnBVRDAyQ2lOamJUMVdRME1LVm05cFkybHVaejB4CglDazF2WkdVOU1BcFFi
        M0owWVUwOU1BcFFiM0owWVQwd0xqQXdDbEJ2Y25SaE1qMHdMakF3Q2xCU1lXNW5aVDB4TURBdQoJTURBS1VFSTlNZ3BRUWtROU1ncEVjbVowUFRFS1RWUjFibE05TUFw
        TlZIVnVUajAzQ2sxVWRXNVVQVGdLVkhKemNEMHcKCUNsQnlhVzl5UFRBS1RYVkRiM0psUFRBS1EyOXVkRVZ1UFRFS1VrNXZkR1U5TUFwU1ZtVnNQVEFLSTJOdFBVVk9W
        akVLCglRWFJyUFRFdU1EQUtSR1ZqUFRjNExqQXdDbE4xY3owd0xqQXdDa1pTUFRBdU1EQUtVbVZzUFRZNExqQXdDbFpsYkQwdwoJTGpBd0NsSk5iMlE5TUM0d01BcE1Z
        V0psYkQwNUNsUnlhV2M5TUFvalkyMDlSVTVXTWdwQmRHczlNQzR3TUFwRVpXTTkKCU9ERXVNREFLVTNWelBUQXVNREFLUmxJOU1DNHdNQXBTWld3OU5qWXVNREFLVm1W
        c1BUZzJMalV3Q2xKTmIyUTlNQzR3CglNQXBNWVdKbGJEMHhNQXBVY21sblBUQUtJMk50UFV4R1R6RUtVM2x1WXowMUNsUnlhV2M5TXdwWFlYWmxQVEVLVUdoegoJWlQw
        d0xqQXdDbEJ2YkdGeVBUQUtSR3g1UFRBdU1EQUtSRTFUTVQwd0NrUk5SREU5TUM0d01BcFNZWFJsUFRBdU1EQUsKCVJrMVRNVDAzQ2taTlJERTlNaTQxTUFvalkyMDlU
        RVpQTWdwVGVXNWpQVE1LVkhKcFp6MHdDbGRoZG1VOU5BcFFhSE5sCglQVEF1TURBS1VHOXNZWEk5TUFwRWJIazlNQzR3TUFwRVRWTXhQVEVLUkUxRU1UMHdMakF3Q2xK
        aGRHVTlNQzR3TUFwRwoJVFZNeFBURUtSazFFTVQweUxqQXdDaU5qYlQxVWVYSmxiR3dLVTJod01UMHpMakF3Q2xSTlUzSmpNVDB3Q2xSTlJIQjAKCU1UMHdMakF3Q2xO
        b2NESTlNaTR3TUFwVWRXNWxNajB3TGpBd0NrWnBibVV5UFRFdU1EQUtWRTFUY21NeVBURTBDbFJOCglSSEIwTWowd0xqQXdDbEJYUkhCMFBUSTBMakF3Q2xCWFUzSmpQ
        VEUyQ2tSbGRIVnVaVDB3TGpBd0NsTjVibU05TUM0dwoJTUFwV2RHOUVQVEF1TURBS1VrMXBNVDB3Q2xKTmFUSTlNUXBHUW1sdVBUQUtUbTlwYzJVOU1TNHdNQXBQYzJO
        V2Iyd3gKCVBTMHhNQzR3TUFwUGMyTldiMnd5UFMwMU15NHdNQXBUZFdKV2IydzlMVEV3TUM0d01BcE9jMlZXYjJ3OUxUY3lMakF3CglDbEpOVm05c1BTMHhNREF1TURB
        S1JrSldiMnc5TFRFd01DNHdNQXBXUTBadGIyUTlNQXBXUTBaUWIydzlNUXBEZFhSdgoJWm1ZOU9EZ3VNREFLUmsxVGNtTXhQVEUwQ2taTlJIQjBNVDAyTUM0d01BcEdU
        Vk55WXpJOU1UWUtSazFFY0hReVBTMHgKCU5pNHdNQXBMWlhsR2IydzlOREF1TURBS1VtVnpQVFkyTGpBd0NrMTRVM0E5TVRBd0xqQXdDazE0VTNCVGNtTTlNQXBCCglV
        bE55WXowd0NrRlNSR1Z6ZEQwd0NrRlNSSEIwUFRBdU1EQUtRVkpOYjJROU1Bb2pZMjA5VmtOQk1RcFdRMEU5TVFwQgoJZEhSVFBURUtJMk50UFVOb2NuTXhDbFI1Y0dV
        OU1BcFNZWFJsUFRVd0xqQXdDa1JsY0hSb1BUVXdMakF3Q2xkbGREMHgKCU1EQXVNREFLQ2dvS0NpOHZJRk5sWTNScGIyNGdabTl5SUhWbmJIa2dZMjl0Y0hKbGMzTmxa
        Q0JpYVc1aGNua2dSR0YwCglZUW92THlCRVQwNG5WQ0JVVDFWRFNDQlVTRWxUQ2dva0pDUWtNVFkxTWdvL2NIQm9jR0ZoWVdFNloyUm5ZMlZ1WldJNgoJY0c5b2NHRmhZ
        V0U2WVdGbllXRmhZV0U2WldGaFlXRmhZV0U2YjJsbmIyUnJhV0U2WVdGaFlXbGhaSEE2Q21GaFlXSmgKCVlXRmhPbUZvWVdGaFlXRmhPbWxoYjJ0dWEyRmhPbUZoT21W
        ak9tVmlPbU5oT21WaE9tbGhPbUZpT21sck9tOXdPbUZsCglPbVZrT21kcE9tOEtZVHBoY0RwbllqcG5jRHBwYVRwbFpUcG1ZVHBuWmpwbmJUcG9ZVHBvWlRwcGNEcHFZ
        VHByWVNGeQoJZUVFM1pXMVFaMlJQVlVFeWNHRkxZMmRHY1ZsTFl3cG5SbkY1UVRONmRHdHJhV2RIUVRSMmNVRnVhVXBsYVd4dWFIQkIKCU1VMURTRWx6VUdwaldFUnhR
        VGR0YUdGb1kyUkVjVUZoWTBFMlJtZHNZV1IwYm1GRkNraEpSMEV5UjA1UFFUUnVZV3BqCglUa1p4UmxocFkwZDBVMmRqUzFGeFFUZEVRa2hKYzJocVRXWnFSSEZCWlc1
        cllsRnhSMDVQUVhCd00xbHBZbEpSY1drSwoJYkZSWVJIRjJjVTVIUVRWWFEwaEpjMVpEU0VselUwTklTWE5qWmxCWVJIRnlkVUUzWm1WbVprdEVZMjVFUzB4VVoyNVgK
        CWFHTlBaMnBWYUdSamIweGtZd3BXUVdod1FURjVRVE42ZEd0cmFXZEhRVFIyY1VGdWFVcGxhV3h1YUhCQk1YSjFRVGN4CgljblZCTjI5dWIyOUpjR0Z3WW5CamNHUnda
        WEJtY0dkd2FIQnBDbkJxY0d0d2JIQnRjRzV3YjNCd1FVZGhZMkZrU21GbQoJWVdkaGFHRnBZV3BoYTJGc1lXMWhibUZ2VG1KaFltSmlZMkprWW1WaVptSm5ZbWhpYVdK
        cVltc0tZbXhpYldKdVltOWkKCWNFUmpZbU5qWTJSalpXTm1ZMmRqYUdOcFkycGphMk5zWTIxeVNrRXhNR2xpU21SalltbHllRUUzWm1WTVZFUm1abWR2CglhR1JNYUFw
        bWFHUk1UMmRqVlZSRVMxQm5iRmRRYUdOQk1qTXpja1pCTVRNNGNuVkJORE4zUVRKRlFURkZNVUV4UmtWQgoJTVZwRlFURnRZVVZCTVUxRmNrRmhZMEUxQ25kQk0zZEJN
        a1ZCTVVVeFFURkdSVUV4V2tWQk1XMWhSVUV4VFhWRFFURmkKCVlVTkJNVVJEUVRGa1lVTkJNVVZEUVRGVFEwRXhaMkZEUVRGV1EwRXhSa01LUVRGUlEwRXhXVU5CTVdw
        cFEwRXhXa05CCglNV3RwUTBFeGJHRkRRVEZzYVVOQk1XMWhRMEV4YldsRFFURnVZVU5CTVc1cFEwRXhUVU5CTVc5cFEwRXhjQXBoUTBFeAoJY0dsRFFUSkNRVEZLUWtF
        eFlXbENRVEZoYlVKQk1XSmhRa0V4WW1WQ1FURmlhVUpCTVdKdFFrRXhSRUpCTVdObFFrRXgKCVkybENRVEZqYlVKQkNqRmtZVUpCTVdSbFFrRXhaR2xDUVRGa2JVSkJN
        VVZDUVRGU1FrRXhaV2xDUVRGbGJVSkJNVk5DCglRVEZtWlVKQk1XWnBRa0V4Wm0xQ1FURm5ZVUpCTVdjS1pVSkJNVXhDUVRGVlFrRXhWa0pCTVZkQ1FURm9hVUpCTVdo
        dAoJUWtFeFJrSkJNV2xqUWtFeGFXVkNRVEZwWjBKQk1WRkNRVEZJUWtFeGFXMUNRVEZwYndwQ1FURlpRa0V4YW1OQ1FURnEKCVpVSkJNV3BuUWtFeGFtbENRVEZxYTBK
        Qk1XcHRRa0V4YW05Q1FURmFRa0V4YTJOQ1FURnJaVUpCTVd0blFrRXhhMmxDCglDa0V4YTJ0Q1FURnJiVUpCTVd0dlFrRXhiR0ZDUVRGc1kwSkJNV3hsUWtFeGJHZENR
        VEZzYVVKQk1XeHJRa0V4YkcxQwoJUVRGc2IwSkJNVzFoUWtFeGJXTUtRa0V4YldWQ1FURnRaMEpCTVcxcFFrRXhiV3RDUVRGdGJVSkJNVzF2UWtFeGJtRkMKCVFURnVZ
        MEpCTVc1bFFrRXhibWRDUVRGdWFVSkJNVzVyUWtFeGJncHRRa0V4Ym05Q1FURk5Ra0V4YjJOQ1FURnZaVUpCCglNVzluUWtFeGIybENRVEZ2YTBKQk1XOXRRa0V4YjI5
        Q1FURndZVUpCTVhCalFrRXhjR1ZDUVRGd0NtZENRVEZ3YVVKQgoJTVhCclFrRXhjRzFDUVRGd2IwSnlSRUV4TUVOU1ptUm1ZMFJrWWtFeU5YSkVRVEV3UTFKbVpHWmpS
        R1JqUVRJMVBURXcKCU5qQTRPUW9BQUE9PQoJPC9kYXRhPgoJPGtleT5kYXRhPC9rZXk+Cgk8ZGF0YT4KCUFBQUFBQUFBQUFBQUFBQmNBQUFBQUVMY0FBQUFBQUFCUVhB
        QUFBQUFBQUpDT0FBQUFBQUFBd0FBQUFBQUFBQUVBQUFBCglBQUFBQUFWQkVBQUFBQUFBQnNJQUFBQUFBQUFIQUFBQUFBQUFBQWdBQUFBQUFBQUFDVCtBQUFBQUFBQUtB
        QUFBQUFBQQoJQUFzQUFBQUFBQUFBREFBQUFBQUFBQUFOQUFBQUFBQUFBQTVDeUFBQUFBQUFEMEFBQUFBQUFBQVFRQUFBQUFBQUFCRUEKCUFBQUFBQUFBRWorQUFBQUFB
        QUFUUXB3QUFBQUFBQlFBQUFBQUFBQUFGUUFBQUFBQUFBQVdRb2dBQUFBQUFCY0FBQUFBCglBQUFBR0FBQUFBQUFBQUFaQUFBQUFBQUFBQm9BQUFBQUFBQUFHMEtpQUFB
        QUFBQWNBQUFBQUFBQUFCMEFBQUFBQUFBQQoJSGtLRUFBQUFBQUFmUXEwQUFBQUFBQ0FBQUFBQUFBQUFJUUFBQUFBQUFBQWlRS0FBQUFBQUFDTUFBQUFBQUFBQUpFQkEK
        CUFBQUFBQUFsQUFBQUFBQUFBQ1pBUUFBQUFBQUFKd0FBQUFBQUFBQW9BQUFBQUFBQUFDbEFBQUFBQUFBQUtnQUFBQUFBCglBQUFyUDRBQUFBQUFBQ3hCWUFBQUFBQUFM
        UUFBQUFBQUFBQXVRY0FBQUFBQUFDOUJnQUFBQUFBQU1BQUFBQUFBQUFBeAoJQUFBQUFBQUFBRElBQUFBQUFBQUFNd0FBQUFBQUFBQTBQNEFBQUFBQUFEVS9nQUFBQUFB
        QU5zRWdBQUFBQUFBM3dsUUEKCUFBQUFBRGpDeUFBQUFBQUFPY0tRQUFBQUFBQTZ3c2dBQUFBQUFEdkN5QUFBQUFBQVBBQUFBQUFBQUFBOVA0QUFBQUFBCglBRDVDc0FB
        QUFBQUFQMEZnQUFBQUFBQkFRbkFBQUFBQUFFRkJnQUFBQUFBQVFzR0FBQUFBQUFCRFFpQUFBQUFBQUVSQwoJaEFBQUFBQUFSVUxJQUFBQUFBQkdBQUFBQUFBQUFFY0FB
        QUFBQUFBQVNBQUFBQUFBQUFCSkFBQUFBQUFBQUVvQUFBQUEKCUFBQUFTMEpJQUFBQUFBQk1Ra2dBQUFBQUFFMUN5QUFBQUFBQVRrQkFBQUFBQUFCUFA0QUFBQUFBQUZB
        QUFBQUFBQUFBCglVUUFBQUFBQUFBQlNBQUFBQUFBQUFGTUFBQUFBQUFBQVZFQWdBQUFBQUFCVkFBQUFBQUFBQUZaQWdBQUFBQUFBVndBQQoJQUFBQUFBQllBQUFBQUFB
        QUFGa0FBQUFBQUFBQVdnQUFBQUFBQUFCYlFBQUFBQT09Cgk8L2RhdGE+Cgk8a2V5Pm1hbnVmYWN0dXJlcjwva2V5PgoJPGludGVnZXI+MTQzMDgwODE1MjwvaW50ZWdl
        cj4KCTxrZXk+bmFtZTwva2V5PgoJPHN0cmluZz5UVUMgLSBDaGVtdHJhaWxzPC9zdHJpbmc+Cgk8a2V5PnN1YnR5cGU8L2tleT4KCTxpbnRlZ2VyPjE5NTIwMTc5NzQ8
        L2ludGVnZXI+Cgk8a2V5PnR5cGU8L2tleT4KCTxpbnRlZ2VyPjE2MzUwODU2ODU8L2ludGVnZXI+Cgk8a2V5PnZlcnNpb248L2tleT4KCTxpbnRlZ2VyPjA8L2ludGVn
        ZXI+CjwvZGljdD4KPC9wbGlzdD4KAQAAAAAAAAAAAA==
      >
      FLOATPOS 443 287 1200 655
      FXID {63278E17-53CF-9F4E-8E18-0EC76070FA29}
      WAK 0 0
    >
    <ITEM
      POSITION 2720
      SNAPOFFS 0
      LENGTH 1735.875
      LOOP 1
      ALLTAKES 0
      FADEIN 1 0 0 1 0 0 0
      FADEOUT 1 0 0 1 0 0 0
      MUTE 0 0
      SEL 0
      IGUID {A9889EB3-AEF1-EC4E-9F25-5BB77838F4F9}
      IID 10
      NAME "untitled MIDI item"
      VOLPAN 1 0 1 -1
      SOFFS 576 1152
      PLAYRATE 1 1 0 -1 0 0.0025
      CHANMODE 0
      GUID {E5BE1A3E-A6A1-5F4A-B94E-9EBA3D6721B9}
      <SOURCE MIDI
        HASDATA 1 960 QN
        CCINTERP 32
        POOLEDEVTS {25F01E0C-7F38-A142-BF90-E69CF819CCD3}
        E 1231320 90 3c 60
        E 59760 80 3c 00
        E 9240 90 37 60
        E 25200 80 37 00
        E 12600 90 3c 60
        E 69000 80 3c 00
        E 12600 90 37 60
        E 22800 80 37 00
        E 17640 90 3c 60
        E 58080 80 3c 00
        E 4920 90 37 60
        E 29520 80 37 00
        E 41160 90 3c 60
        E 63960 80 3c 00
        E 3360 90 37 60
        E 48720 90 39 60
        E 20280 80 37 00
        E 6720 80 39 00
        E 21000 90 35 60
        E 19320 90 3b 60
        E 7680 80 35 00
        E 15960 80 3b 00
        E 9240 90 37 60
        E 2520 90 2e 60
        E 2520 90 27 60
        E 24360 80 37 00
        E 12720 80 2e 00
        E 6600 90 29 60
        E 120 80 29 00
        E 20040 90 3c 60
        E 21960 90 34 60
        E 5064 80 27 00
        E 13416 90 31 60
        E 5040 80 34 00
        E 13440 90 2b 60
        E 1800 80 31 00
        E 23520 80 3c 00
        E 1560 90 23 60
        E 3480 80 2b 00
        E 42840 90 39 60
        E 4200 90 31 60
        E 11760 90 3f 60
        E 9360 80 31 00
        E 2520 80 39 00
        E 43680 80 23 00
        E 2520 80 3f 00
        E 840 90 37 60
        E 34440 90 2f 60
        E 13560 80 37 00
        E 37800 80 2f 00
        E 40320 90 3a 60
        E 55560 80 3a 00
        E 24360 90 37 60
        E 24480 80 37 00
        E 10920 90 3a 60
        E 55560 80 3a 00
        E 9960 90 37 58
        E 25320 80 37 00
        E 33600 90 3a 60
        E 60600 80 3a 00
        E 11760 90 37 60
        E 29520 80 37 00
        E 15000 90 3a 58
        E 61440 80 3a 00
        E 14280 90 37 58
        E 27000 80 37 00
        E 5880 90 32 58
        E 64800 80 32 00
        E 28560 90 32 58
        E 58080 80 32 00
        E 32760 90 32 58
        E 28080 90 3e 58
        E 28320 80 32 00
        E 16920 90 2b 58
        E 12240 80 3e 00
        E 17760 80 2b 00
        E 46920 90 3a 58
        E 29880 90 35 58
        E 13800 80 3a 00
        E 31560 80 35 00
        E 840 90 31 58
        E 36360 80 31 00
        E 36360 90 3a 58
        E 33240 90 34 58
        E 11400 80 3a 00
        E 27480 80 34 00
        E 6360 90 30 58
        E 0 90 40 58
        E 36480 80 40 00
        E 8040 90 3d 58
        E 28320 80 3d 00
        E 840 80 30 00
        E 1560 90 39 58
        E 26760 80 39 00
        E 3120 90 35 58
        E 30000 80 35 00
        E 840 90 32 58
        E 30720 80 32 00
        E 1560 90 2e 58
        E 29160 90 2a 58
        E 2520 80 2e 00
        E 27480 80 2a 00
        E 720 90 25 58
        E 32400 80 25 00
        E 32280 90 3f 58
        E 29160 90 3a 58
        E 28320 90 36 58
        E 7320 80 3a 00
        E 8880 90 31 58
        E 9000 80 3f 00
        E 3960 80 36 00
        E 30720 80 31 00
        E 49320 90 39 58
        E 30000 90 32 58
        E 13800 80 39 00
        E 19320 80 32 00
        E 0 90 39 58
        E 29160 90 33 58
        E 16080 90 2e 58
        E 11400 80 39 00
        E 2520 80 33 00
        E 2280 90 3e 58
        E 30000 80 2e 00
        E 0 90 37 58
        E 10560 80 3e 00
        E 5640 80 37 00
        E 569520 b0 7b 00
        CCINTERP 32
        CHASE_CC_TAKEOFFS 1
        GUID {A29839DA-6B5D-794E-B903-4B9A02BBD845}
        IGNTEMPO 0 120 4 4
        SRCCOLOR 8
        VELLANE -1 100 0
        CFGEDITVIEW 0 0.000734 61 12 0 -1 0 0 0 0.5
        KEYSNAP 0
        TRACKSEL 0
        EVTFILTER 0 -1 -1 -1 -1 0 0 0 0 -1 -1 -1 -1 0 -1 0 -1 -1
        CFGEDIT 1 1 0 1 0 0 1 1 1 1 1 0.125 0 58 1792 1095 0 0 0 0 0 0 0 0 0 0.5 0 0 1 64
      >
    >
  >
  <TRACK {5D2A920A-D008-4B4E-937F-A462643CCBF4}
    NAME ""
    PEAKCOL 16576
    BEAT -1
    AUTOMODE 0
    VOLPAN 1 0 -1 -1 1
    MUTESOLO 0 0 0
    IPHASE 0
    PLAYOFFS 0 1
    ISBUS 0 0
    BUSCOMP 0 0 0 0 0
    SHOWINMIX 1 0.6667 0.5 1 0.5 0 -1 0
    FREEMODE 0
    SEL 0
    REC 0 0 1 0 0 0 0
    VU 2
    TRACKHEIGHT 0 0 0 0 0 0
    INQ 0 0 0 0.5 100 0 0 100
    NCHAN 2
    FX 1
    TRACKID {5D2A920A-D008-4B4E-937F-A462643CCBF4}
    PERF 0
    MIDIOUT 64
    MAINSEND 1 0
  >
  <TRACK {B16CC40A-2D51-AB4B-9789-2424B6C07001}
    NAME "Sampler 1"
    PEAKCOL 16576
    BEAT -1
    AUTOMODE 0
    VOLPAN 1 0 -1 -1 1
    MUTESOLO 1 0 0
    IPHASE 0
    PLAYOFFS 0 1
    ISBUS 0 0
    BUSCOMP 0 0 0 0 0
    SHOWINMIX 1 0.6667 0.5 1 0.5 0 -1 0
    FREEMODE 0
    SEL 0
    REC 1 5088 1 0 0 0 0
    VU 2
    TRACKHEIGHT 0 0 0 0 0 0
    INQ 0 0 0 0.5 100 0 0 100
    NCHAN 2
    FX 1
    TRACKID {B16CC40A-2D51-AB4B-9789-2424B6C07001}
    PERF 0
    MIDIOUT -1
    MAINSEND 1 0
    <FXCHAIN
      WNDRECT 21 384 1032 679
      SHOW 0
      LASTSEL 0
      DOCKED 0
      BYPASS 0 0 0
      <AU "AUi: AUSampler (Apple)" "Apple: AUSampler" "" 1635085685 1935764848 1634758764
        6QMAAAAAAAAAAAAAAgAAAAEAAAAAAAAAAgAAAAAAAACZHQAAPD94bWwgdmVyc2lvbj0iMS4wIiBlbmNvZGluZz0iVVRGLTgiPz4KPCFET0NUWVBFIHBsaXN0IFBVQkxJ
        QyAiLS8vQXBwbGUvL0RURCBQTElTVCAxLjAvL0VOIiAiaHR0cDovL3d3dy5hcHBsZS5jb20vRFREcy9Qcm9wZXJ0eUxpc3QtMS4wLmR0ZCI+CjxwbGlzdCB2ZXJzaW9u
        PSIxLjAiPgo8ZGljdD4KCTxrZXk+QVUgdmVyc2lvbjwva2V5PgoJPHJlYWw+MTwvcmVhbD4KCTxrZXk+SW5zdHJ1bWVudDwva2V5PgoJPGRpY3Q+CgkJPGtleT5MYXll
        cnM8L2tleT4KCQk8YXJyYXk+CgkJCTxkaWN0PgoJCQkJPGtleT5BbXBsaWZpZXI8L2tleT4KCQkJCTxkaWN0PgoJCQkJCTxrZXk+SUQ8L2tleT4KCQkJCQk8aW50ZWdl
        cj4wPC9pbnRlZ2VyPgoJCQkJCTxrZXk+ZW5hYmxlZDwva2V5PgoJCQkJCTx0cnVlLz4KCQkJCTwvZGljdD4KCQkJCTxrZXk+Q29ubmVjdGlvbnM8L2tleT4KCQkJCTxh
        cnJheT4KCQkJCQk8ZGljdD4KCQkJCQkJPGtleT5JRDwva2V5PgoJCQkJCQk8aW50ZWdlcj4wPC9pbnRlZ2VyPgoJCQkJCQk8a2V5PmNvbnRyb2w8L2tleT4KCQkJCQkJ
        PGludGVnZXI+MDwvaW50ZWdlcj4KCQkJCQkJPGtleT5kZXN0aW5hdGlvbjwva2V5PgoJCQkJCQk8aW50ZWdlcj44MTY4NDA3MDQ8L2ludGVnZXI+CgkJCQkJCTxrZXk+
        ZW5hYmxlZDwva2V5PgoJCQkJCQk8dHJ1ZS8+CgkJCQkJCTxrZXk+aW52ZXJzZTwva2V5PgoJCQkJCQk8ZmFsc2UvPgoJCQkJCQk8a2V5PnNjYWxlPC9rZXk+CgkJCQkJ
        CTxyZWFsPjEyODAwPC9yZWFsPgoJCQkJCQk8a2V5PnNvdXJjZTwva2V5PgoJCQkJCQk8aW50ZWdlcj4zMDA8L2ludGVnZXI+CgkJCQkJCTxrZXk+dHJhbnNmb3JtPC9r
        ZXk+CgkJCQkJCTxpbnRlZ2VyPjE8L2ludGVnZXI+CgkJCQkJPC9kaWN0PgoJCQkJCTxkaWN0PgoJCQkJCQk8a2V5PklEPC9rZXk+CgkJCQkJCTxpbnRlZ2VyPjE8L2lu
        dGVnZXI+CgkJCQkJCTxrZXk+Y29udHJvbDwva2V5PgoJCQkJCQk8aW50ZWdlcj4wPC9pbnRlZ2VyPgoJCQkJCQk8a2V5PmRlc3RpbmF0aW9uPC9rZXk+CgkJCQkJCTxp
        bnRlZ2VyPjEzNDMyMjU4NTY8L2ludGVnZXI+CgkJCQkJCTxrZXk+ZW5hYmxlZDwva2V5PgoJCQkJCQk8dHJ1ZS8+CgkJCQkJCTxrZXk+aW52ZXJzZTwva2V5PgoJCQkJ
        CQk8dHJ1ZS8+CgkJCQkJCTxrZXk+c2NhbGU8L2tleT4KCQkJCQkJPHJlYWw+LTk2PC9yZWFsPgoJCQkJCQk8a2V5PnNvdXJjZTwva2V5PgoJCQkJCQk8aW50ZWdlcj4z
        MDE8L2ludGVnZXI+CgkJCQkJCTxrZXk+dHJhbnNmb3JtPC9rZXk+CgkJCQkJCTxpbnRlZ2VyPjI8L2ludGVnZXI+CgkJCQkJPC9kaWN0PgoJCQkJCTxkaWN0PgoJCQkJ
        CQk8a2V5PklEPC9rZXk+CgkJCQkJCTxpbnRlZ2VyPjI8L2ludGVnZXI+CgkJCQkJCTxrZXk+Y29udHJvbDwva2V5PgoJCQkJCQk8aW50ZWdlcj4wPC9pbnRlZ2VyPgoJ
        CQkJCQk8a2V5PmRlc3RpbmF0aW9uPC9rZXk+CgkJCQkJCTxpbnRlZ2VyPjEzNDMyMjU4NTY8L2ludGVnZXI+CgkJCQkJCTxrZXk+ZW5hYmxlZDwva2V5PgoJCQkJCQk8
        dHJ1ZS8+CgkJCQkJCTxrZXk+aW52ZXJzZTwva2V5PgoJCQkJCQk8dHJ1ZS8+CgkJCQkJCTxrZXk+c2NhbGU8L2tleT4KCQkJCQkJPHJlYWw+LTk2PC9yZWFsPgoJCQkJ
        CQk8a2V5PnNvdXJjZTwva2V5PgoJCQkJCQk8aW50ZWdlcj43PC9pbnRlZ2VyPgoJCQkJCQk8a2V5PnRyYW5zZm9ybTwva2V5PgoJCQkJCQk8aW50ZWdlcj4yPC9pbnRl
        Z2VyPgoJCQkJCTwvZGljdD4KCQkJCQk8ZGljdD4KCQkJCQkJPGtleT5JRDwva2V5PgoJCQkJCQk8aW50ZWdlcj4zPC9pbnRlZ2VyPgoJCQkJCQk8a2V5PmNvbnRyb2w8
        L2tleT4KCQkJCQkJPGludGVnZXI+MDwvaW50ZWdlcj4KCQkJCQkJPGtleT5kZXN0aW5hdGlvbjwva2V5PgoJCQkJCQk8aW50ZWdlcj4xMzQzMjI1ODU2PC9pbnRlZ2Vy
        PgoJCQkJCQk8a2V5PmVuYWJsZWQ8L2tleT4KCQkJCQkJPHRydWUvPgoJCQkJCQk8a2V5PmludmVyc2U8L2tleT4KCQkJCQkJPHRydWUvPgoJCQkJCQk8a2V5PnNjYWxl
        PC9rZXk+CgkJCQkJCTxyZWFsPi05NjwvcmVhbD4KCQkJCQkJPGtleT5zb3VyY2U8L2tleT4KCQkJCQkJPGludGVnZXI+MTE8L2ludGVnZXI+CgkJCQkJCTxrZXk+dHJh
        bnNmb3JtPC9rZXk+CgkJCQkJCTxpbnRlZ2VyPjI8L2ludGVnZXI+CgkJCQkJPC9kaWN0PgoJCQkJCTxkaWN0PgoJCQkJCQk8a2V5PklEPC9rZXk+CgkJCQkJCTxpbnRl
        Z2VyPjQ8L2ludGVnZXI+CgkJCQkJCTxrZXk+Y29udHJvbDwva2V5PgoJCQkJCQk8aW50ZWdlcj4wPC9pbnRlZ2VyPgoJCQkJCQk8a2V5PmRlc3RpbmF0aW9uPC9rZXk+
        CgkJCQkJCTxpbnRlZ2VyPjEzNDQyNzQ0MzI8L2ludGVnZXI+CgkJCQkJCTxrZXk+ZW5hYmxlZDwva2V5PgoJCQkJCQk8dHJ1ZS8+CgkJCQkJCTxrZXk+aW52ZXJzZTwv
        a2V5PgoJCQkJCQk8ZmFsc2UvPgoJCQkJCQk8a2V5Pm1heCB2YWx1ZTwva2V5PgoJCQkJCQk8cmVhbD4wLjUwODAwMDAxNjIxMjQ2MzM4PC9yZWFsPgoJCQkJCQk8a2V5
        Pm1pbiB2YWx1ZTwva2V5PgoJCQkJCQk8cmVhbD4tMC41MDgwMDAwMTYyMTI0NjMzODwvcmVhbD4KCQkJCQkJPGtleT5zb3VyY2U8L2tleT4KCQkJCQkJPGludGVnZXI+
        MTA8L2ludGVnZXI+CgkJCQkJCTxrZXk+dHJhbnNmb3JtPC9rZXk+CgkJCQkJCTxpbnRlZ2VyPjE8L2ludGVnZXI+CgkJCQkJPC9kaWN0PgoJCQkJCTxkaWN0PgoJCQkJ
        CQk8a2V5PklEPC9rZXk+CgkJCQkJCTxpbnRlZ2VyPjc8L2ludGVnZXI+CgkJCQkJCTxrZXk+Y29udHJvbDwva2V5PgoJCQkJCQk8aW50ZWdlcj4yNDE8L2ludGVnZXI+
        CgkJCQkJCTxrZXk+ZGVzdGluYXRpb248L2tleT4KCQkJCQkJPGludGVnZXI+ODE2ODQwNzA0PC9pbnRlZ2VyPgoJCQkJCQk8a2V5PmVuYWJsZWQ8L2tleT4KCQkJCQkJ
        PHRydWUvPgoJCQkJCQk8a2V5PmludmVyc2U8L2tleT4KCQkJCQkJPGZhbHNlLz4KCQkJCQkJPGtleT5tYXggdmFsdWU8L2tleT4KCQkJCQkJPHJlYWw+MTI4MDA8L3Jl
        YWw+CgkJCQkJCTxrZXk+bWluIHZhbHVlPC9rZXk+CgkJCQkJCTxyZWFsPi0xMjgwMDwvcmVhbD4KCQkJCQkJPGtleT5zb3VyY2U8L2tleT4KCQkJCQkJPGludGVnZXI+
        MjI0PC9pbnRlZ2VyPgoJCQkJCQk8a2V5PnRyYW5zZm9ybTwva2V5PgoJCQkJCQk8aW50ZWdlcj4xPC9pbnRlZ2VyPgoJCQkJCTwvZGljdD4KCQkJCQk8ZGljdD4KCQkJ
        CQkJPGtleT5JRDwva2V5PgoJCQkJCQk8aW50ZWdlcj44PC9pbnRlZ2VyPgoJCQkJCQk8a2V5PmNvbnRyb2w8L2tleT4KCQkJCQkJPGludGVnZXI+MDwvaW50ZWdlcj4K
        CQkJCQkJPGtleT5kZXN0aW5hdGlvbjwva2V5PgoJCQkJCQk8aW50ZWdlcj44MTY4NDA3MDQ8L2ludGVnZXI+CgkJCQkJCTxrZXk+ZW5hYmxlZDwva2V5PgoJCQkJCQk8
        dHJ1ZS8+CgkJCQkJCTxrZXk+aW52ZXJzZTwva2V5PgoJCQkJCQk8ZmFsc2UvPgoJCQkJCQk8a2V5Pm1heCB2YWx1ZTwva2V5PgoJCQkJCQk8cmVhbD4xMDA8L3JlYWw+
        CgkJCQkJCTxrZXk+bWluIHZhbHVlPC9rZXk+CgkJCQkJCTxyZWFsPi0xMDA8L3JlYWw+CgkJCQkJCTxrZXk+c291cmNlPC9rZXk+CgkJCQkJCTxpbnRlZ2VyPjI0Mjwv
        aW50ZWdlcj4KCQkJCQkJPGtleT50cmFuc2Zvcm08L2tleT4KCQkJCQkJPGludGVnZXI+MTwvaW50ZWdlcj4KCQkJCQk8L2RpY3Q+CgkJCQkJPGRpY3Q+CgkJCQkJCTxr
        ZXk+SUQ8L2tleT4KCQkJCQkJPGludGVnZXI+NjwvaW50ZWdlcj4KCQkJCQkJPGtleT5jb250cm9sPC9rZXk+CgkJCQkJCTxpbnRlZ2VyPjE8L2ludGVnZXI+CgkJCQkJ
        CTxrZXk+ZGVzdGluYXRpb248L2tleT4KCQkJCQkJPGludGVnZXI+ODE2ODQwNzA0PC9pbnRlZ2VyPgoJCQkJCQk8a2V5PmVuYWJsZWQ8L2tleT4KCQkJCQkJPHRydWUv
        PgoJCQkJCQk8a2V5PmludmVyc2U8L2tleT4KCQkJCQkJPGZhbHNlLz4KCQkJCQkJPGtleT5tYXggdmFsdWU8L2tleT4KCQkJCQkJPHJlYWw+NTA8L3JlYWw+CgkJCQkJ
        CTxrZXk+bWluIHZhbHVlPC9rZXk+CgkJCQkJCTxyZWFsPi01MDwvcmVhbD4KCQkJCQkJPGtleT5zb3VyY2U8L2tleT4KCQkJCQkJPGludGVnZXI+MjY4NDM1NDU2PC9p
        bnRlZ2VyPgoJCQkJCQk8a2V5PnRyYW5zZm9ybTwva2V5PgoJCQkJCQk8aW50ZWdlcj4xPC9pbnRlZ2VyPgoJCQkJCTwvZGljdD4KCQkJCQk8ZGljdD4KCQkJCQkJPGtl
        eT5JRDwva2V5PgoJCQkJCQk8aW50ZWdlcj41PC9pbnRlZ2VyPgoJCQkJCQk8a2V5PmNvbnRyb2w8L2tleT4KCQkJCQkJPGludGVnZXI+MDwvaW50ZWdlcj4KCQkJCQkJ
        PGtleT5kZXN0aW5hdGlvbjwva2V5PgoJCQkJCQk8aW50ZWdlcj4xMzQzMjI1ODU2PC9pbnRlZ2VyPgoJCQkJCQk8a2V5PmVuYWJsZWQ8L2tleT4KCQkJCQkJPHRydWUv
        PgoJCQkJCQk8a2V5PmludmVyc2U8L2tleT4KCQkJCQkJPHRydWUvPgoJCQkJCQk8a2V5PnNjYWxlPC9rZXk+CgkJCQkJCTxyZWFsPi05NjwvcmVhbD4KCQkJCQkJPGtl
        eT5zb3VyY2U8L2tleT4KCQkJCQkJPGludGVnZXI+NTM2ODcwOTEyPC9pbnRlZ2VyPgoJCQkJCQk8a2V5PnRyYW5zZm9ybTwva2V5PgoJCQkJCQk8aW50ZWdlcj4xPC9p
        bnRlZ2VyPgoJCQkJCTwvZGljdD4KCQkJCTwvYXJyYXk+CgkJCQk8a2V5PkVudmVsb3Blczwva2V5PgoJCQkJPGFycmF5PgoJCQkJCTxkaWN0PgoJCQkJCQk8a2V5PklE
        PC9rZXk+CgkJCQkJCTxpbnRlZ2VyPjA8L2ludGVnZXI+CgkJCQkJCTxrZXk+U3RhZ2VzPC9rZXk+CgkJCQkJCTxhcnJheT4KCQkJCQkJCTxkaWN0PgoJCQkJCQkJCTxr
        ZXk+Y3VydmU8L2tleT4KCQkJCQkJCQk8aW50ZWdlcj4yMDwvaW50ZWdlcj4KCQkJCQkJCQk8a2V5PnN0YWdlPC9rZXk+CgkJCQkJCQkJPGludGVnZXI+MDwvaW50ZWdl
        cj4KCQkJCQkJCQk8a2V5PnRpbWU8L2tleT4KCQkJCQkJCQk8cmVhbD4wLjA8L3JlYWw+CgkJCQkJCQk8L2RpY3Q+CgkJCQkJCQk8ZGljdD4KCQkJCQkJCQk8a2V5PmN1
        cnZlPC9rZXk+CgkJCQkJCQkJPGludGVnZXI+MjI8L2ludGVnZXI+CgkJCQkJCQkJPGtleT5zdGFnZTwva2V5PgoJCQkJCQkJCTxpbnRlZ2VyPjE8L2ludGVnZXI+CgkJ
        CQkJCQkJPGtleT50aW1lPC9rZXk+CgkJCQkJCQkJPHJlYWw+MC4wPC9yZWFsPgoJCQkJCQkJPC9kaWN0PgoJCQkJCQkJPGRpY3Q+CgkJCQkJCQkJPGtleT5jdXJ2ZTwv
        a2V5PgoJCQkJCQkJCTxpbnRlZ2VyPjIwPC9pbnRlZ2VyPgoJCQkJCQkJCTxrZXk+c3RhZ2U8L2tleT4KCQkJCQkJCQk8aW50ZWdlcj4yPC9pbnRlZ2VyPgoJCQkJCQkJ
        CTxrZXk+dGltZTwva2V5PgoJCQkJCQkJCTxyZWFsPjAuMDwvcmVhbD4KCQkJCQkJCTwvZGljdD4KCQkJCQkJCTxkaWN0PgoJCQkJCQkJCTxrZXk+Y3VydmU8L2tleT4K
        CQkJCQkJCQk8aW50ZWdlcj4yMDwvaW50ZWdlcj4KCQkJCQkJCQk8a2V5PnN0YWdlPC9rZXk+CgkJCQkJCQkJPGludGVnZXI+MzwvaW50ZWdlcj4KCQkJCQkJCQk8a2V5
        PnRpbWU8L2tleT4KCQkJCQkJCQk8cmVhbD4wLjA8L3JlYWw+CgkJCQkJCQk8L2RpY3Q+CgkJCQkJCQk8ZGljdD4KCQkJCQkJCQk8a2V5PmxldmVsPC9rZXk+CgkJCQkJ
        CQkJPHJlYWw+MTwvcmVhbD4KCQkJCQkJCQk8a2V5PnN0YWdlPC9rZXk+CgkJCQkJCQkJPGludGVnZXI+NDwvaW50ZWdlcj4KCQkJCQkJCTwvZGljdD4KCQkJCQkJCTxk
        aWN0PgoJCQkJCQkJCTxrZXk+Y3VydmU8L2tleT4KCQkJCQkJCQk8aW50ZWdlcj4yMDwvaW50ZWdlcj4KCQkJCQkJCQk8a2V5PnN0YWdlPC9rZXk+CgkJCQkJCQkJPGlu
        dGVnZXI+NTwvaW50ZWdlcj4KCQkJCQkJCQk8a2V5PnRpbWU8L2tleT4KCQkJCQkJCQk8cmVhbD4wLjA8L3JlYWw+CgkJCQkJCQk8L2RpY3Q+CgkJCQkJCQk8ZGljdD4K
        CQkJCQkJCQk8a2V5PmN1cnZlPC9rZXk+CgkJCQkJCQkJPGludGVnZXI+MjA8L2ludGVnZXI+CgkJCQkJCQkJPGtleT5zdGFnZTwva2V5PgoJCQkJCQkJCTxpbnRlZ2Vy
        PjY8L2ludGVnZXI+CgkJCQkJCQkJPGtleT50aW1lPC9rZXk+CgkJCQkJCQkJPHJlYWw+MC4wMDQ5OTk5OTk4ODgyNDEyOTE8L3JlYWw+CgkJCQkJCQk8L2RpY3Q+CgkJ
        CQkJCTwvYXJyYXk+CgkJCQkJCTxrZXk+ZW5hYmxlZDwva2V5PgoJCQkJCQk8dHJ1ZS8+CgkJCQkJPC9kaWN0PgoJCQkJPC9hcnJheT4KCQkJCTxrZXk+RmlsdGVyczwv
        a2V5PgoJCQkJPGRpY3Q+CgkJCQkJPGtleT5JRDwva2V5PgoJCQkJCTxpbnRlZ2VyPjA8L2ludGVnZXI+CgkJCQkJPGtleT5jdXRvZmY8L2tleT4KCQkJCQk8cmVhbD4y
        MDAwMDwvcmVhbD4KCQkJCQk8a2V5PmVuYWJsZWQ8L2tleT4KCQkJCQk8ZmFsc2UvPgoJCQkJCTxrZXk+cmVzb25hbmNlPC9rZXk+CgkJCQkJPHJlYWw+LTM8L3JlYWw+
        CgkJCQk8L2RpY3Q+CgkJCQk8a2V5PklEPC9rZXk+CgkJCQk8aW50ZWdlcj4wPC9pbnRlZ2VyPgoJCQkJPGtleT5MRk9zPC9rZXk+CgkJCQk8YXJyYXk+CgkJCQkJPGRp
        Y3Q+CgkJCQkJCTxrZXk+SUQ8L2tleT4KCQkJCQkJPGludGVnZXI+MDwvaW50ZWdlcj4KCQkJCQkJPGtleT5lbmFibGVkPC9rZXk+CgkJCQkJCTx0cnVlLz4KCQkJCQk8
        L2RpY3Q+CgkJCQk8L2FycmF5PgoJCQkJPGtleT5Pc2NpbGxhdG9yPC9rZXk+CgkJCQk8ZGljdD4KCQkJCQk8a2V5PklEPC9rZXk+CgkJCQkJPGludGVnZXI+MDwvaW50
        ZWdlcj4KCQkJCQk8a2V5PmVuYWJsZWQ8L2tleT4KCQkJCQk8dHJ1ZS8+CgkJCQk8L2RpY3Q+CgkJCQk8a2V5PlpvbmVzPC9rZXk+CgkJCQk8YXJyYXk+CgkJCQkJPGRp
        Y3Q+CgkJCQkJCTxrZXk+SUQ8L2tleT4KCQkJCQkJPGludGVnZXI+MDwvaW50ZWdlcj4KCQkJCQkJPGtleT5lbmFibGVkPC9rZXk+CgkJCQkJCTx0cnVlLz4KCQkJCQkJ
        PGtleT5sb29wIGVuYWJsZWQ8L2tleT4KCQkJCQkJPHRydWUvPgoJCQkJCQk8a2V5PnJvb3Qga2V5PC9rZXk+CgkJCQkJCTxpbnRlZ2VyPjY5PC9pbnRlZ2VyPgoJCQkJ
        CQk8a2V5PndhdmVmb3JtPC9rZXk+CgkJCQkJCTxpbnRlZ2VyPi0yPC9pbnRlZ2VyPgoJCQkJCTwvZGljdD4KCQkJCTwvYXJyYXk+CgkJCTwvZGljdD4KCQk8L2FycmF5
        PgoJCTxrZXk+bmFtZTwva2V5PgoJCTxzdHJpbmc+RGVmYXVsdCBJbnN0cnVtZW50PC9zdHJpbmc+Cgk8L2RpY3Q+Cgk8a2V5PmNvYXJzZSB0dW5lPC9rZXk+Cgk8aW50
        ZWdlcj4wPC9pbnRlZ2VyPgoJPGtleT5kYXRhPC9rZXk+Cgk8ZGF0YT4KCUFBQUFBQUFBQUFBQUFBQUVBQUFEaEFBQUFBQUFBQU9GQUFBQUFBQUFBNFlBQUFBQUFBQURo
        d0FBQUFBPQoJPC9kYXRhPgoJPGtleT5maWxlLXJlZmVyZW5jZXM8L2tleT4KCTxkaWN0Lz4KCTxrZXk+ZmluZSB0dW5lPC9rZXk+Cgk8cmVhbD4wLjA8L3JlYWw+Cgk8
        a2V5PmdhaW48L2tleT4KCTxyZWFsPjAuMDwvcmVhbD4KCTxrZXk+bWFudWZhY3R1cmVyPC9rZXk+Cgk8aW50ZWdlcj4xNjM0NzU4NzY0PC9pbnRlZ2VyPgoJPGtleT5u
        YW1lPC9rZXk+Cgk8c3RyaW5nPlVudGl0bGVkPC9zdHJpbmc+Cgk8a2V5Pm91dHB1dDwva2V5PgoJPGludGVnZXI+MDwvaW50ZWdlcj4KCTxrZXk+cGFuPC9rZXk+Cgk8
        cmVhbD4wLjA8L3JlYWw+Cgk8a2V5PnN1YnR5cGU8L2tleT4KCTxpbnRlZ2VyPjE5MzU3NjQ4NDg8L2ludGVnZXI+Cgk8a2V5PnR5cGU8L2tleT4KCTxpbnRlZ2VyPjE2
        MzUwODU2ODU8L2ludGVnZXI+Cgk8a2V5PnZlcnNpb248L2tleT4KCTxpbnRlZ2VyPjA8L2ludGVnZXI+Cgk8a2V5PnZvaWNlIGNvdW50PC9rZXk+Cgk8aW50ZWdlcj42
        NDwvaW50ZWdlcj4KPC9kaWN0Pgo8L3BsaXN0PgoBAAAAAAAAAAAA
      >
      FLOATPOS 0 0 0 0
      FXID {24037278-DEFC-7243-A72C-FAE712D7FF8B}
      WAK 0 0
    >
  >
  <TRACK {FA6A81E8-0409-EB48-8AAB-D584F980FBC0}
    NAME "Sampler 2 dolna od c3"
    PEAKCOL 16576
    BEAT -1
    AUTOMODE 0
    VOLPAN 1 0 -1 -1 1
    MUTESOLO 0 2 0
    IPHASE 0
    PLAYOFFS 0 1
    ISBUS 0 0
    BUSCOMP 0 0 0 0 0
    SHOWINMIX 1 0.6667 0.5 1 0.5 0 -1 0
    FREEMODE 0
    SEL 0
    REC 1 0 1 0 0 0 0
    VU 2
    TRACKHEIGHT 0 0 0 0 0 0
    INQ 0 0 0 0.5 100 0 0 100
    NCHAN 2
    FX 0
    TRACKID {FA6A81E8-0409-EB48-8AAB-D584F980FBC0}
    PERF 0
    MIDIOUT 33
    MAINSEND 1 0
    <FXCHAIN
      WNDRECT 543 332 1032 679
      SHOW 0
      LASTSEL 0
      DOCKED 0
      BYPASS 0 0 0
      <AU "AUi: AUSampler (Apple)" "Apple: AUSampler" "" 1635085685 1935764848 1634758764
        6QMAAAAAAAAAAAAAAgAAAAEAAAAAAAAAAgAAAAAAAACZHQAAPD94bWwgdmVyc2lvbj0iMS4wIiBlbmNvZGluZz0iVVRGLTgiPz4KPCFET0NUWVBFIHBsaXN0IFBVQkxJ
        QyAiLS8vQXBwbGUvL0RURCBQTElTVCAxLjAvL0VOIiAiaHR0cDovL3d3dy5hcHBsZS5jb20vRFREcy9Qcm9wZXJ0eUxpc3QtMS4wLmR0ZCI+CjxwbGlzdCB2ZXJzaW9u
        PSIxLjAiPgo8ZGljdD4KCTxrZXk+QVUgdmVyc2lvbjwva2V5PgoJPHJlYWw+MTwvcmVhbD4KCTxrZXk+SW5zdHJ1bWVudDwva2V5PgoJPGRpY3Q+CgkJPGtleT5MYXll
        cnM8L2tleT4KCQk8YXJyYXk+CgkJCTxkaWN0PgoJCQkJPGtleT5BbXBsaWZpZXI8L2tleT4KCQkJCTxkaWN0PgoJCQkJCTxrZXk+SUQ8L2tleT4KCQkJCQk8aW50ZWdl
        cj4wPC9pbnRlZ2VyPgoJCQkJCTxrZXk+ZW5hYmxlZDwva2V5PgoJCQkJCTx0cnVlLz4KCQkJCTwvZGljdD4KCQkJCTxrZXk+Q29ubmVjdGlvbnM8L2tleT4KCQkJCTxh
        cnJheT4KCQkJCQk8ZGljdD4KCQkJCQkJPGtleT5JRDwva2V5PgoJCQkJCQk8aW50ZWdlcj4wPC9pbnRlZ2VyPgoJCQkJCQk8a2V5PmNvbnRyb2w8L2tleT4KCQkJCQkJ
        PGludGVnZXI+MDwvaW50ZWdlcj4KCQkJCQkJPGtleT5kZXN0aW5hdGlvbjwva2V5PgoJCQkJCQk8aW50ZWdlcj44MTY4NDA3MDQ8L2ludGVnZXI+CgkJCQkJCTxrZXk+
        ZW5hYmxlZDwva2V5PgoJCQkJCQk8dHJ1ZS8+CgkJCQkJCTxrZXk+aW52ZXJzZTwva2V5PgoJCQkJCQk8ZmFsc2UvPgoJCQkJCQk8a2V5PnNjYWxlPC9rZXk+CgkJCQkJ
        CTxyZWFsPjEyODAwPC9yZWFsPgoJCQkJCQk8a2V5PnNvdXJjZTwva2V5PgoJCQkJCQk8aW50ZWdlcj4zMDA8L2ludGVnZXI+CgkJCQkJCTxrZXk+dHJhbnNmb3JtPC9r
        ZXk+CgkJCQkJCTxpbnRlZ2VyPjE8L2ludGVnZXI+CgkJCQkJPC9kaWN0PgoJCQkJCTxkaWN0PgoJCQkJCQk8a2V5PklEPC9rZXk+CgkJCQkJCTxpbnRlZ2VyPjE8L2lu
        dGVnZXI+CgkJCQkJCTxrZXk+Y29udHJvbDwva2V5PgoJCQkJCQk8aW50ZWdlcj4wPC9pbnRlZ2VyPgoJCQkJCQk8a2V5PmRlc3RpbmF0aW9uPC9rZXk+CgkJCQkJCTxp
        bnRlZ2VyPjEzNDMyMjU4NTY8L2ludGVnZXI+CgkJCQkJCTxrZXk+ZW5hYmxlZDwva2V5PgoJCQkJCQk8dHJ1ZS8+CgkJCQkJCTxrZXk+aW52ZXJzZTwva2V5PgoJCQkJ
        CQk8dHJ1ZS8+CgkJCQkJCTxrZXk+c2NhbGU8L2tleT4KCQkJCQkJPHJlYWw+LTk2PC9yZWFsPgoJCQkJCQk8a2V5PnNvdXJjZTwva2V5PgoJCQkJCQk8aW50ZWdlcj4z
        MDE8L2ludGVnZXI+CgkJCQkJCTxrZXk+dHJhbnNmb3JtPC9rZXk+CgkJCQkJCTxpbnRlZ2VyPjI8L2ludGVnZXI+CgkJCQkJPC9kaWN0PgoJCQkJCTxkaWN0PgoJCQkJ
        CQk8a2V5PklEPC9rZXk+CgkJCQkJCTxpbnRlZ2VyPjI8L2ludGVnZXI+CgkJCQkJCTxrZXk+Y29udHJvbDwva2V5PgoJCQkJCQk8aW50ZWdlcj4wPC9pbnRlZ2VyPgoJ
        CQkJCQk8a2V5PmRlc3RpbmF0aW9uPC9rZXk+CgkJCQkJCTxpbnRlZ2VyPjEzNDMyMjU4NTY8L2ludGVnZXI+CgkJCQkJCTxrZXk+ZW5hYmxlZDwva2V5PgoJCQkJCQk8
        dHJ1ZS8+CgkJCQkJCTxrZXk+aW52ZXJzZTwva2V5PgoJCQkJCQk8dHJ1ZS8+CgkJCQkJCTxrZXk+c2NhbGU8L2tleT4KCQkJCQkJPHJlYWw+LTk2PC9yZWFsPgoJCQkJ
        CQk8a2V5PnNvdXJjZTwva2V5PgoJCQkJCQk8aW50ZWdlcj43PC9pbnRlZ2VyPgoJCQkJCQk8a2V5PnRyYW5zZm9ybTwva2V5PgoJCQkJCQk8aW50ZWdlcj4yPC9pbnRl
        Z2VyPgoJCQkJCTwvZGljdD4KCQkJCQk8ZGljdD4KCQkJCQkJPGtleT5JRDwva2V5PgoJCQkJCQk8aW50ZWdlcj4zPC9pbnRlZ2VyPgoJCQkJCQk8a2V5PmNvbnRyb2w8
        L2tleT4KCQkJCQkJPGludGVnZXI+MDwvaW50ZWdlcj4KCQkJCQkJPGtleT5kZXN0aW5hdGlvbjwva2V5PgoJCQkJCQk8aW50ZWdlcj4xMzQzMjI1ODU2PC9pbnRlZ2Vy
        PgoJCQkJCQk8a2V5PmVuYWJsZWQ8L2tleT4KCQkJCQkJPHRydWUvPgoJCQkJCQk8a2V5PmludmVyc2U8L2tleT4KCQkJCQkJPHRydWUvPgoJCQkJCQk8a2V5PnNjYWxl
        PC9rZXk+CgkJCQkJCTxyZWFsPi05NjwvcmVhbD4KCQkJCQkJPGtleT5zb3VyY2U8L2tleT4KCQkJCQkJPGludGVnZXI+MTE8L2ludGVnZXI+CgkJCQkJCTxrZXk+dHJh
        bnNmb3JtPC9rZXk+CgkJCQkJCTxpbnRlZ2VyPjI8L2ludGVnZXI+CgkJCQkJPC9kaWN0PgoJCQkJCTxkaWN0PgoJCQkJCQk8a2V5PklEPC9rZXk+CgkJCQkJCTxpbnRl
        Z2VyPjQ8L2ludGVnZXI+CgkJCQkJCTxrZXk+Y29udHJvbDwva2V5PgoJCQkJCQk8aW50ZWdlcj4wPC9pbnRlZ2VyPgoJCQkJCQk8a2V5PmRlc3RpbmF0aW9uPC9rZXk+
        CgkJCQkJCTxpbnRlZ2VyPjEzNDQyNzQ0MzI8L2ludGVnZXI+CgkJCQkJCTxrZXk+ZW5hYmxlZDwva2V5PgoJCQkJCQk8dHJ1ZS8+CgkJCQkJCTxrZXk+aW52ZXJzZTwv
        a2V5PgoJCQkJCQk8ZmFsc2UvPgoJCQkJCQk8a2V5Pm1heCB2YWx1ZTwva2V5PgoJCQkJCQk8cmVhbD4wLjUwODAwMDAxNjIxMjQ2MzM4PC9yZWFsPgoJCQkJCQk8a2V5
        Pm1pbiB2YWx1ZTwva2V5PgoJCQkJCQk8cmVhbD4tMC41MDgwMDAwMTYyMTI0NjMzODwvcmVhbD4KCQkJCQkJPGtleT5zb3VyY2U8L2tleT4KCQkJCQkJPGludGVnZXI+
        MTA8L2ludGVnZXI+CgkJCQkJCTxrZXk+dHJhbnNmb3JtPC9rZXk+CgkJCQkJCTxpbnRlZ2VyPjE8L2ludGVnZXI+CgkJCQkJPC9kaWN0PgoJCQkJCTxkaWN0PgoJCQkJ
        CQk8a2V5PklEPC9rZXk+CgkJCQkJCTxpbnRlZ2VyPjc8L2ludGVnZXI+CgkJCQkJCTxrZXk+Y29udHJvbDwva2V5PgoJCQkJCQk8aW50ZWdlcj4yNDE8L2ludGVnZXI+
        CgkJCQkJCTxrZXk+ZGVzdGluYXRpb248L2tleT4KCQkJCQkJPGludGVnZXI+ODE2ODQwNzA0PC9pbnRlZ2VyPgoJCQkJCQk8a2V5PmVuYWJsZWQ8L2tleT4KCQkJCQkJ
        PHRydWUvPgoJCQkJCQk8a2V5PmludmVyc2U8L2tleT4KCQkJCQkJPGZhbHNlLz4KCQkJCQkJPGtleT5tYXggdmFsdWU8L2tleT4KCQkJCQkJPHJlYWw+MTI4MDA8L3Jl
        YWw+CgkJCQkJCTxrZXk+bWluIHZhbHVlPC9rZXk+CgkJCQkJCTxyZWFsPi0xMjgwMDwvcmVhbD4KCQkJCQkJPGtleT5zb3VyY2U8L2tleT4KCQkJCQkJPGludGVnZXI+
        MjI0PC9pbnRlZ2VyPgoJCQkJCQk8a2V5PnRyYW5zZm9ybTwva2V5PgoJCQkJCQk8aW50ZWdlcj4xPC9pbnRlZ2VyPgoJCQkJCTwvZGljdD4KCQkJCQk8ZGljdD4KCQkJ
        CQkJPGtleT5JRDwva2V5PgoJCQkJCQk8aW50ZWdlcj44PC9pbnRlZ2VyPgoJCQkJCQk8a2V5PmNvbnRyb2w8L2tleT4KCQkJCQkJPGludGVnZXI+MDwvaW50ZWdlcj4K
        CQkJCQkJPGtleT5kZXN0aW5hdGlvbjwva2V5PgoJCQkJCQk8aW50ZWdlcj44MTY4NDA3MDQ8L2ludGVnZXI+CgkJCQkJCTxrZXk+ZW5hYmxlZDwva2V5PgoJCQkJCQk8
        dHJ1ZS8+CgkJCQkJCTxrZXk+aW52ZXJzZTwva2V5PgoJCQkJCQk8ZmFsc2UvPgoJCQkJCQk8a2V5Pm1heCB2YWx1ZTwva2V5PgoJCQkJCQk8cmVhbD4xMDA8L3JlYWw+
        CgkJCQkJCTxrZXk+bWluIHZhbHVlPC9rZXk+CgkJCQkJCTxyZWFsPi0xMDA8L3JlYWw+CgkJCQkJCTxrZXk+c291cmNlPC9rZXk+CgkJCQkJCTxpbnRlZ2VyPjI0Mjwv
        aW50ZWdlcj4KCQkJCQkJPGtleT50cmFuc2Zvcm08L2tleT4KCQkJCQkJPGludGVnZXI+MTwvaW50ZWdlcj4KCQkJCQk8L2RpY3Q+CgkJCQkJPGRpY3Q+CgkJCQkJCTxr
        ZXk+SUQ8L2tleT4KCQkJCQkJPGludGVnZXI+NjwvaW50ZWdlcj4KCQkJCQkJPGtleT5jb250cm9sPC9rZXk+CgkJCQkJCTxpbnRlZ2VyPjE8L2ludGVnZXI+CgkJCQkJ
        CTxrZXk+ZGVzdGluYXRpb248L2tleT4KCQkJCQkJPGludGVnZXI+ODE2ODQwNzA0PC9pbnRlZ2VyPgoJCQkJCQk8a2V5PmVuYWJsZWQ8L2tleT4KCQkJCQkJPHRydWUv
        PgoJCQkJCQk8a2V5PmludmVyc2U8L2tleT4KCQkJCQkJPGZhbHNlLz4KCQkJCQkJPGtleT5tYXggdmFsdWU8L2tleT4KCQkJCQkJPHJlYWw+NTA8L3JlYWw+CgkJCQkJ
        CTxrZXk+bWluIHZhbHVlPC9rZXk+CgkJCQkJCTxyZWFsPi01MDwvcmVhbD4KCQkJCQkJPGtleT5zb3VyY2U8L2tleT4KCQkJCQkJPGludGVnZXI+MjY4NDM1NDU2PC9p
        bnRlZ2VyPgoJCQkJCQk8a2V5PnRyYW5zZm9ybTwva2V5PgoJCQkJCQk8aW50ZWdlcj4xPC9pbnRlZ2VyPgoJCQkJCTwvZGljdD4KCQkJCQk8ZGljdD4KCQkJCQkJPGtl
        eT5JRDwva2V5PgoJCQkJCQk8aW50ZWdlcj41PC9pbnRlZ2VyPgoJCQkJCQk8a2V5PmNvbnRyb2w8L2tleT4KCQkJCQkJPGludGVnZXI+MDwvaW50ZWdlcj4KCQkJCQkJ
        PGtleT5kZXN0aW5hdGlvbjwva2V5PgoJCQkJCQk8aW50ZWdlcj4xMzQzMjI1ODU2PC9pbnRlZ2VyPgoJCQkJCQk8a2V5PmVuYWJsZWQ8L2tleT4KCQkJCQkJPHRydWUv
        PgoJCQkJCQk8a2V5PmludmVyc2U8L2tleT4KCQkJCQkJPHRydWUvPgoJCQkJCQk8a2V5PnNjYWxlPC9rZXk+CgkJCQkJCTxyZWFsPi05NjwvcmVhbD4KCQkJCQkJPGtl
        eT5zb3VyY2U8L2tleT4KCQkJCQkJPGludGVnZXI+NTM2ODcwOTEyPC9pbnRlZ2VyPgoJCQkJCQk8a2V5PnRyYW5zZm9ybTwva2V5PgoJCQkJCQk8aW50ZWdlcj4xPC9p
        bnRlZ2VyPgoJCQkJCTwvZGljdD4KCQkJCTwvYXJyYXk+CgkJCQk8a2V5PkVudmVsb3Blczwva2V5PgoJCQkJPGFycmF5PgoJCQkJCTxkaWN0PgoJCQkJCQk8a2V5PklE
        PC9rZXk+CgkJCQkJCTxpbnRlZ2VyPjA8L2ludGVnZXI+CgkJCQkJCTxrZXk+U3RhZ2VzPC9rZXk+CgkJCQkJCTxhcnJheT4KCQkJCQkJCTxkaWN0PgoJCQkJCQkJCTxr
        ZXk+Y3VydmU8L2tleT4KCQkJCQkJCQk8aW50ZWdlcj4yMDwvaW50ZWdlcj4KCQkJCQkJCQk8a2V5PnN0YWdlPC9rZXk+CgkJCQkJCQkJPGludGVnZXI+MDwvaW50ZWdl
        cj4KCQkJCQkJCQk8a2V5PnRpbWU8L2tleT4KCQkJCQkJCQk8cmVhbD4wLjA8L3JlYWw+CgkJCQkJCQk8L2RpY3Q+CgkJCQkJCQk8ZGljdD4KCQkJCQkJCQk8a2V5PmN1
        cnZlPC9rZXk+CgkJCQkJCQkJPGludGVnZXI+MjI8L2ludGVnZXI+CgkJCQkJCQkJPGtleT5zdGFnZTwva2V5PgoJCQkJCQkJCTxpbnRlZ2VyPjE8L2ludGVnZXI+CgkJ
        CQkJCQkJPGtleT50aW1lPC9rZXk+CgkJCQkJCQkJPHJlYWw+MC4wPC9yZWFsPgoJCQkJCQkJPC9kaWN0PgoJCQkJCQkJPGRpY3Q+CgkJCQkJCQkJPGtleT5jdXJ2ZTwv
        a2V5PgoJCQkJCQkJCTxpbnRlZ2VyPjIwPC9pbnRlZ2VyPgoJCQkJCQkJCTxrZXk+c3RhZ2U8L2tleT4KCQkJCQkJCQk8aW50ZWdlcj4yPC9pbnRlZ2VyPgoJCQkJCQkJ
        CTxrZXk+dGltZTwva2V5PgoJCQkJCQkJCTxyZWFsPjAuMDwvcmVhbD4KCQkJCQkJCTwvZGljdD4KCQkJCQkJCTxkaWN0PgoJCQkJCQkJCTxrZXk+Y3VydmU8L2tleT4K
        CQkJCQkJCQk8aW50ZWdlcj4yMDwvaW50ZWdlcj4KCQkJCQkJCQk8a2V5PnN0YWdlPC9rZXk+CgkJCQkJCQkJPGludGVnZXI+MzwvaW50ZWdlcj4KCQkJCQkJCQk8a2V5
        PnRpbWU8L2tleT4KCQkJCQkJCQk8cmVhbD4wLjA8L3JlYWw+CgkJCQkJCQk8L2RpY3Q+CgkJCQkJCQk8ZGljdD4KCQkJCQkJCQk8a2V5PmxldmVsPC9rZXk+CgkJCQkJ
        CQkJPHJlYWw+MTwvcmVhbD4KCQkJCQkJCQk8a2V5PnN0YWdlPC9rZXk+CgkJCQkJCQkJPGludGVnZXI+NDwvaW50ZWdlcj4KCQkJCQkJCTwvZGljdD4KCQkJCQkJCTxk
        aWN0PgoJCQkJCQkJCTxrZXk+Y3VydmU8L2tleT4KCQkJCQkJCQk8aW50ZWdlcj4yMDwvaW50ZWdlcj4KCQkJCQkJCQk8a2V5PnN0YWdlPC9rZXk+CgkJCQkJCQkJPGlu
        dGVnZXI+NTwvaW50ZWdlcj4KCQkJCQkJCQk8a2V5PnRpbWU8L2tleT4KCQkJCQkJCQk8cmVhbD4wLjA8L3JlYWw+CgkJCQkJCQk8L2RpY3Q+CgkJCQkJCQk8ZGljdD4K
        CQkJCQkJCQk8a2V5PmN1cnZlPC9rZXk+CgkJCQkJCQkJPGludGVnZXI+MjA8L2ludGVnZXI+CgkJCQkJCQkJPGtleT5zdGFnZTwva2V5PgoJCQkJCQkJCTxpbnRlZ2Vy
        PjY8L2ludGVnZXI+CgkJCQkJCQkJPGtleT50aW1lPC9rZXk+CgkJCQkJCQkJPHJlYWw+MC4wMDQ5OTk5OTk4ODgyNDEyOTE8L3JlYWw+CgkJCQkJCQk8L2RpY3Q+CgkJ
        CQkJCTwvYXJyYXk+CgkJCQkJCTxrZXk+ZW5hYmxlZDwva2V5PgoJCQkJCQk8dHJ1ZS8+CgkJCQkJPC9kaWN0PgoJCQkJPC9hcnJheT4KCQkJCTxrZXk+RmlsdGVyczwv
        a2V5PgoJCQkJPGRpY3Q+CgkJCQkJPGtleT5JRDwva2V5PgoJCQkJCTxpbnRlZ2VyPjA8L2ludGVnZXI+CgkJCQkJPGtleT5jdXRvZmY8L2tleT4KCQkJCQk8cmVhbD4y
        MDAwMDwvcmVhbD4KCQkJCQk8a2V5PmVuYWJsZWQ8L2tleT4KCQkJCQk8ZmFsc2UvPgoJCQkJCTxrZXk+cmVzb25hbmNlPC9rZXk+CgkJCQkJPHJlYWw+LTM8L3JlYWw+
        CgkJCQk8L2RpY3Q+CgkJCQk8a2V5PklEPC9rZXk+CgkJCQk8aW50ZWdlcj4wPC9pbnRlZ2VyPgoJCQkJPGtleT5MRk9zPC9rZXk+CgkJCQk8YXJyYXk+CgkJCQkJPGRp
        Y3Q+CgkJCQkJCTxrZXk+SUQ8L2tleT4KCQkJCQkJPGludGVnZXI+MDwvaW50ZWdlcj4KCQkJCQkJPGtleT5lbmFibGVkPC9rZXk+CgkJCQkJCTx0cnVlLz4KCQkJCQk8
        L2RpY3Q+CgkJCQk8L2FycmF5PgoJCQkJPGtleT5Pc2NpbGxhdG9yPC9rZXk+CgkJCQk8ZGljdD4KCQkJCQk8a2V5PklEPC9rZXk+CgkJCQkJPGludGVnZXI+MDwvaW50
        ZWdlcj4KCQkJCQk8a2V5PmVuYWJsZWQ8L2tleT4KCQkJCQk8dHJ1ZS8+CgkJCQk8L2RpY3Q+CgkJCQk8a2V5PlpvbmVzPC9rZXk+CgkJCQk8YXJyYXk+CgkJCQkJPGRp
        Y3Q+CgkJCQkJCTxrZXk+SUQ8L2tleT4KCQkJCQkJPGludGVnZXI+MDwvaW50ZWdlcj4KCQkJCQkJPGtleT5lbmFibGVkPC9rZXk+CgkJCQkJCTx0cnVlLz4KCQkJCQkJ
        PGtleT5sb29wIGVuYWJsZWQ8L2tleT4KCQkJCQkJPHRydWUvPgoJCQkJCQk8a2V5PnJvb3Qga2V5PC9rZXk+CgkJCQkJCTxpbnRlZ2VyPjY5PC9pbnRlZ2VyPgoJCQkJ
        CQk8a2V5PndhdmVmb3JtPC9rZXk+CgkJCQkJCTxpbnRlZ2VyPi0yPC9pbnRlZ2VyPgoJCQkJCTwvZGljdD4KCQkJCTwvYXJyYXk+CgkJCTwvZGljdD4KCQk8L2FycmF5
        PgoJCTxrZXk+bmFtZTwva2V5PgoJCTxzdHJpbmc+RGVmYXVsdCBJbnN0cnVtZW50PC9zdHJpbmc+Cgk8L2RpY3Q+Cgk8a2V5PmNvYXJzZSB0dW5lPC9rZXk+Cgk8aW50
        ZWdlcj4wPC9pbnRlZ2VyPgoJPGtleT5kYXRhPC9rZXk+Cgk8ZGF0YT4KCUFBQUFBQUFBQUFBQUFBQUVBQUFEaEFBQUFBQUFBQU9GQUFBQUFBQUFBNFlBQUFBQUFBQURo
        d0FBQUFBPQoJPC9kYXRhPgoJPGtleT5maWxlLXJlZmVyZW5jZXM8L2tleT4KCTxkaWN0Lz4KCTxrZXk+ZmluZSB0dW5lPC9rZXk+Cgk8cmVhbD4wLjA8L3JlYWw+Cgk8
        a2V5PmdhaW48L2tleT4KCTxyZWFsPjAuMDwvcmVhbD4KCTxrZXk+bWFudWZhY3R1cmVyPC9rZXk+Cgk8aW50ZWdlcj4xNjM0NzU4NzY0PC9pbnRlZ2VyPgoJPGtleT5u
        YW1lPC9rZXk+Cgk8c3RyaW5nPlVudGl0bGVkPC9zdHJpbmc+Cgk8a2V5Pm91dHB1dDwva2V5PgoJPGludGVnZXI+MDwvaW50ZWdlcj4KCTxrZXk+cGFuPC9rZXk+Cgk8
        cmVhbD4wLjA8L3JlYWw+Cgk8a2V5PnN1YnR5cGU8L2tleT4KCTxpbnRlZ2VyPjE5MzU3NjQ4NDg8L2ludGVnZXI+Cgk8a2V5PnR5cGU8L2tleT4KCTxpbnRlZ2VyPjE2
        MzUwODU2ODU8L2ludGVnZXI+Cgk8a2V5PnZlcnNpb248L2tleT4KCTxpbnRlZ2VyPjA8L2ludGVnZXI+Cgk8a2V5PnZvaWNlIGNvdW50PC9rZXk+Cgk8aW50ZWdlcj42
        NDwvaW50ZWdlcj4KPC9kaWN0Pgo8L3BsaXN0PgoBAAAAAAAAAAAA
      >
      FLOATPOS 0 0 0 0
      FXID {E78E7BA3-0A29-914B-B536-87EBFD7B131D}
      WAK 0 0
    >
    <ITEM
      POSITION 0
      SNAPOFFS 0
      LENGTH 2415.2668680202178
      LOOP 1
      ALLTAKES 0
      FADEIN 1 0 0 1 0 0 0
      FADEOUT 1 0 0 1 0 0 0
      MUTE 0 0
      SEL 0
      IGUID {F4CEF636-4F71-DF41-80A7-DA6B3C3FD8EE}
      IID 1
      NAME "untitled MIDI item"
      VOLPAN 1 0 1 -1
      SOFFS 0 0
      PLAYRATE 1 1 0 -1 0 0.0025
      CHANMODE 0
      GUID {77675F79-F337-CF40-A8AD-F2087B326035}
      <SOURCE MIDI
        HASDATA 1 960 QN
        CCINTERP 32
        POOLEDEVTS {768A5A90-7537-0744-B52A-123EB86F662B}
        E 0 90 30 7f
        E 120 80 30 00
        E 0 90 30 7f
        E 120 80 30 00
        E 240 90 30 7f
        E 120 80 30 00
        E 0 90 30 7f
        E 120 80 30 00
        E 240 90 30 7f
        E 120 80 30 00
        E 0 90 30 7f
        E 120 80 30 00
        E 240 90 30 7f
        E 120 80 30 00
        E 0 90 30 7f
        E 120 80 30 00
        E 240 90 30 7f
        E 120 80 30 00
        E 0 90 30 7f
        E 120 80 30 00
        E 240 90 30 7f
        E 120 80 30 00
        E 0 90 30 7f
        E 120 80 30 00
        E 240 90 30 7f
        E 120 80 30 00
        E 0 90 30 7f
        E 120 80 30 00
        E 240 90 30 7f
        E 120 80 30 00
        E 0 90 30 7f
        E 120 80 30 00
        E 240 90 30 7f
        E 120 80 30 00
        E 0 90 30 7f
        E 120 80 30 00
        E 240 90 30 7f
        E 120 80 30 00
        E 0 90 30 7f
        E 120 80 30 00
        E 720 90 30 7f
        E 120 80 30 00
        E 0 90 30 7f
        E 120 80 30 00
        E 240 90 30 7f
        E 120 80 30 00
        E 0 90 30 7f
        E 120 80 30 00
        E 240 90 30 7f
        E 120 80 30 00
        E 0 90 30 7f
        E 120 80 30 00
        E 240 90 30 7f
        E 120 80 30 00
        E 0 90 30 7f
        E 120 80 30 00
        E 240 90 30 7f
        E 120 80 30 00
        E 0 90 30 7f
        E 120 80 30 00
        E 240 90 30 7f
        E 120 80 30 00
        E 0 90 30 7f
        E 120 80 30 00
        E 720 90 30 7f
        E 120 80 30 00
        E 0 90 30 7f
        E 120 80 30 00
        E 240 90 30 7f
        E 120 80 30 00
        E 0 90 30 7f
        E 120 80 30 00
        E 240 90 30 7f
        E 120 80 30 00
        E 0 90 30 7f
        E 120 80 30 00
        E 240 90 30 7f
        E 120 80 30 00
        E 0 90 30 7f
        E 120 80 30 00
        E 240 90 30 7f
        E 120 80 30 00
        E 0 90 30 7f
        E 120 80 30 00
        E 240 90 30 7f
        E 120 80 30 00
        E 0 90 30 7f
        E 120 80 30 00
        E 240 90 30 7f
        E 120 80 30 00
        E 0 90 30 7f
        E 120 80 30 00
        E 240 90 30 7f
        E 120 80 30 00
        E 0 90 30 7f
        E 120 80 30 00
        E 240 90 30 7f
        E 120 80 30 00
        E 0 90 30 7f
        E 120 80 30 00
        E 240 90 30 7f
        E 120 80 30 00
        E 0 90 30 7f
        E 120 80 30 00
        E 240 90 30 7f
        E 120 80 30 00
        E 0 90 30 7f
        E 120 80 30 00
        E 240 90 30 7f
        E 120 80 30 00
        E 0 90 30 7f
        E 120 80 30 00
        E 240 90 30 7f
        E 120 80 30 00
        E 0 90 30 7f
        E 120 80 30 00
        E 240 90 30 7f
        E 120 80 30 00
        E 0 90 30 7f
        E 120 80 30 00
        E 240 90 30 7f
        E 120 80 30 00
        E 0 90 30 7f
        E 120 80 30 00
        E 240 90 30 7f
        E 120 80 30 00
        E 0 90 30 7f
        E 120 80 30 00
        E 240 90 30 7f
        E 120 80 30 00
        E 0 90 30 7f
        E 120 80 30 00
        E 240 90 30 7f
        E 120 80 30 00
        E 0 90 30 7f
        E 120 80 30 00
        E 240 90 30 7f
        E 120 80 30 00
        E 0 90 30 7f
        E 120 80 30 00
        E 240 90 30 7f
        E 120 80 30 00
        E 0 90 30 7f
        E 120 80 30 00
        E 240 90 30 7f
        E 120 80 30 00
        E 0 90 30 7f
        E 120 80 30 00
        E 240 90 30 7f
        E 120 80 30 00
        E 0 90 30 7f
        E 120 80 30 00
        E 240 90 30 7f
        E 120 80 30 00
        E 0 90 30 7f
        E 120 80 30 00
        E 240 90 30 7f
        E 120 80 30 00
        E 0 90 30 7f
        E 120 80 30 00
        E 240 90 30 7f
        E 120 80 30 00
        E 0 90 30 7f
        E 120 80 30 00
        E 240 90 30 7f
        E 120 80 30 00
        E 0 90 30 7f
        E 120 80 30 00
        E 240 90 30 7f
        E 120 80 30 00
        E 0 90 30 7f
        E 120 80 30 00
        E 240 90 30 7f
        E 120 80 30 00
        E 0 90 30 7f
        E 120 80 30 00
        E 240 90 30 7f
        E 120 80 30 00
        E 0 90 30 7f
        E 120 80 30 00
        E 240 90 30 7f
        E 120 80 30 00
        E 0 90 30 7f
        E 120 80 30 00
        E 240 90 30 7f
        E 120 80 30 00
        E 0 90 30 7f
        E 120 80 30 00
        E 240 90 30 7f
        E 120 80 30 00
        E 0 90 30 7f
        E 120 80 30 00
        E 240 90 30 7f
        E 120 80 30 00
        E 0 90 30 7f
        E 120 80 30 00
        E 240 90 31 7f
        E 120 80 31 00
        E 120 90 31 7f
        E 120 80 31 00
        E 0 90 30 7f
        E 120 80 30 00
        E 0 90 30 7f
        E 120 80 30 00
        E 120 90 31 7f
        E 120 80 31 00
        E 0 90 31 7f
        E 120 80 31 00
        E 0 90 31 7f
        E 120 80 31 00
        E 0 90 31 7f
        E 120 80 31 00
        E 0 90 31 7f
        E 120 80 31 00
        E 0 90 31 7f
        E 120 80 31 00
        E 0 90 31 7f
        E 120 80 31 00
        E 0 90 34 7f
        E 0 90 31 7f
        E 120 80 34 00
        E 0 80 31 00
        E 0 90 31 7f
        E 120 80 31 00
        E 0 90 34 7f
        E 0 90 31 7f
        E 120 80 34 00
        E 0 80 31 00
        E 0 90 31 7f
        E 120 80 31 00
        E 0 90 34 7f
        E 0 90 31 7f
        E 120 80 34 00
        E 0 80 31 00
        E 0 90 31 7f
        E 120 80 31 00
        E 0 90 34 7f
        E 0 90 31 7f
        E 120 80 34 00
        E 0 80 31 00
        E 0 90 31 7f
        E 120 80 31 00
        E 0 90 31 7f
        E 120 80 31 00
        E 0 90 31 7f
        E 120 80 31 00
        E 0 90 31 7f
        E 120 80 31 00
        E 0 90 31 7f
        E 120 80 31 00
        E 0 90 31 7f
        E 120 80 31 00
        E 0 90 31 7f
        E 120 80 31 00
        E 0 90 31 7f
        E 120 80 31 00
        E 0 90 34 7f
        E 120 80 34 00
        E 120 90 34 7f
        E 120 80 34 00
        E 120 90 34 7f
        E 120 80 34 00
        E 120 90 34 7f
        E 120 80 34 00
        E 120 90 30 7f
        E 120 80 30 00
        E 0 90 30 7f
        E 120 80 30 00
        E 240 90 30 7f
        E 120 80 30 00
        E 0 90 30 7f
        E 120 80 30 00
        E 240 90 30 7f
        E 120 80 30 00
        E 0 90 30 7f
        E 120 80 30 00
        E 240 90 30 7f
        E 120 80 30 00
        E 0 90 30 7f
        E 120 80 30 00
        E 240 90 30 7f
        E 120 80 30 00
        E 0 90 30 7f
        E 120 80 30 00
        E 240 90 30 7f
        E 120 80 30 00
        E 0 90 30 7f
        E 120 80 30 00
        E 0 90 32 7f
        E 120 80 32 00
        E 120 90 30 7f
        E 0 90 32 7f
        E 120 80 30 00
        E 0 80 32 00
        E 0 90 30 7f
        E 120 80 30 00
        E 0 90 32 7f
        E 120 80 32 00
        E 120 90 30 7f
        E 0 90 32 7f
        E 120 80 30 00
        E 0 80 32 00
        E 0 90 30 7f
        E 120 80 30 00
        E 0 90 32 7f
        E 120 80 32 00
        E 120 90 30 7f
        E 0 90 32 7f
        E 120 80 30 00
        E 0 80 32 00
        E 0 90 30 7f
        E 120 80 30 00
        E 0 90 32 7f
        E 120 80 32 00
        E 120 90 30 7f
        E 0 90 32 7f
        E 120 80 30 00
        E 0 80 32 00
        E 0 90 30 7f
        E 120 80 30 00
        E 0 90 32 7f
        E 120 80 32 00
        E 120 90 30 7f
        E 0 90 32 7f
        E 120 80 30 00
        E 0 80 32 00
        E 0 90 30 7f
        E 120 80 30 00
        E 0 90 32 7f
        E 120 80 32 00
        E 120 90 30 7f
        E 0 90 32 7f
        E 120 80 30 00
        E 0 80 32 00
        E 0 90 30 7f
        E 120 80 30 00
        E 0 90 32 7f
        E 120 80 32 00
        E 120 90 30 7f
        E 0 90 32 7f
        E 120 80 30 00
        E 0 80 32 00
        E 0 90 30 7f
        E 120 80 30 00
        E 0 90 32 7f
        E 120 80 32 00
        E 120 90 30 7f
        E 0 90 32 7f
        E 120 80 30 00
        E 0 80 32 00
        E 0 90 30 7f
        E 120 80 30 00
        E 0 90 32 7f
        E 120 80 32 00
        E 120 90 30 7f
        E 0 90 32 7f
        E 120 80 30 00
        E 0 80 32 00
        E 0 90 30 7f
        E 120 80 30 00
        E 0 90 32 7f
        E 120 80 32 00
        E 120 90 30 7f
        E 0 90 32 7f
        E 120 80 30 00
        E 0 80 32 00
        E 0 90 30 7f
        E 120 80 30 00
        E 0 90 32 7f
        E 120 80 32 00
        E 120 90 30 7f
        E 0 90 32 7f
        E 120 80 30 00
        E 0 80 32 00
        E 0 90 30 7f
        E 120 80 30 00
        E 0 90 32 7f
        E 120 80 32 00
        E 120 90 30 7f
        E 0 90 32 7f
        E 120 80 30 00
        E 0 80 32 00
        E 0 90 30 7f
        E 120 80 30 00
        E 0 90 31 7f
        E 240 80 31 00
        E 0 90 30 7f
        E 120 80 30 00
        E 0 90 30 7f
        E 120 80 30 00
        E 0 90 31 7f
        E 240 80 31 00
        E 0 90 30 7f
        E 120 80 30 00
        E 0 90 30 7f
        E 120 80 30 00
        E 0 90 31 7f
        E 240 80 31 00
        E 0 90 30 7f
        E 120 80 30 00
        E 0 90 30 7f
        E 120 80 30 00
        E 0 90 31 7f
        E 240 80 31 00
        E 0 90 30 7f
        E 0 90 32 7f
        E 120 80 30 00
        E 0 80 32 00
        E 0 90 30 7f
        E 120 80 30 00
        E 0 90 32 7f
        E 120 80 32 00
        E 120 90 30 7f
        E 0 90 32 7f
        E 120 80 30 00
        E 0 80 32 00
        E 0 90 30 7f
        E 120 80 30 00
        E 0 90 32 7f
        E 120 80 32 00
        E 120 90 30 7f
        E 0 90 32 7f
        E 120 80 30 00
        E 0 80 32 00
        E 0 90 30 7f
        E 120 80 30 00
        E 0 90 32 7f
        E 120 80 32 00
        E 120 90 32 7f
        E 0 90 30 7f
        E 120 80 32 00
        E 0 80 30 00
        E 0 90 30 7f
        E 120 80 30 00
        E 0 90 31 7f
        E 0 90 32 7f
        E 120 80 32 00
        E 120 80 31 00
        E 0 90 32 7f
        E 0 90 30 7f
        E 120 80 32 00
        E 0 80 30 00
        E 0 90 30 7f
        E 120 80 30 00
        E 0 90 31 7f
        E 120 90 32 7f
        E 120 80 31 00
        E 0 80 32 00
        E 0 90 30 7f
        E 120 80 30 00
        E 0 90 30 7f
        E 120 80 30 00
        E 0 90 31 7f
        E 120 90 32 7f
        E 120 80 31 00
        E 0 80 32 00
        E 0 90 30 7f
        E 120 80 30 00
        E 0 90 30 7f
        E 120 80 30 00
        E 0 90 31 7f
        E 0 90 30 7f
        E 0 90 34 7f
        E 120 80 30 00
        E 0 90 30 7f
        E 120 80 31 00
        E 0 80 30 00
        E 0 90 32 7f
        E 0 90 30 7f
        E 120 80 32 00
        E 0 80 30 00
        E 0 90 30 7f
        E 120 80 30 00
        E 0 90 30 7f
        E 0 90 32 7f
        E 120 80 30 00
        E 0 80 32 00
        E 0 90 30 7f
        E 120 80 34 00
        E 0 80 30 00
        E 0 90 30 7f
        E 0 90 32 7f
        E 120 80 30 00
        E 0 80 32 00
        E 0 90 30 7f
        E 120 80 30 00
        E 0 90 30 7f
        E 0 90 32 7f
        E 120 80 30 00
        E 0 80 32 00
        E 0 90 30 7f
        E 120 80 30 00
        E 0 90 32 7f
        E 0 90 34 7f
        E 0 90 30 7f
        E 120 80 32 00
        E 0 80 30 00
        E 0 90 30 7f
        E 120 80 30 00
        E 0 90 32 7f
        E 0 90 30 7f
        E 120 80 32 00
        E 0 80 30 00
        E 0 90 30 7f
        E 120 80 30 00
        E 0 90 32 7f
        E 0 90 30 7f
        E 120 80 32 00
        E 0 80 30 00
        E 0 90 30 7f
        E 120 80 34 00
        E 0 80 30 00
        E 0 90 32 7f
        E 0 90 30 7f
        E 120 80 32 00
        E 0 80 30 00
        E 0 90 30 7f
        E 120 80 30 00
        E 0 90 32 7f
        E 120 80 32 00
        E 120 90 32 7f
        E 0 90 34 7f
        E 0 90 32 7f
        E 120 80 32 00
        E 0 80 32 00
        E 120 90 32 7f
        E 120 80 32 00
        E 120 90 32 7f
        E 120 80 32 00
        E 120 80 34 00
        E 0 90 32 7f
        E 0 90 30 7f
        E 120 80 32 00
        E 0 80 30 00
        E 0 90 31 7f
        E 120 80 31 00
        E 0 90 32 7f
        E 0 90 30 7f
        E 120 80 32 00
        E 0 80 30 00
        E 0 90 33 7f
        E 120 80 33 00
        E 0 90 32 7f
        E 0 90 34 7f
        E 0 90 30 7f
        E 120 80 32 00
        E 0 80 34 00
        E 0 80 30 00
        E 0 90 33 7f
        E 0 90 35 7f
        E 120 80 35 00
        E 0 90 32 7f
        E 0 90 34 7f
        E 0 90 30 7f
        E 0 90 36 7f
        E 120 80 33 00
        E 0 80 32 00
        E 0 80 36 00
        E 0 90 35 7f
        E 120 80 35 00
        E 120 80 34 00
        E 0 90 33 7f
        E 120 80 33 00
        E 0 90 32 7f
        E 120 80 32 00
        E 0 90 31 7f
        E 0 90 33 7f
        E 120 80 31 00
        E 0 80 33 00
        E 0 90 32 7f
        E 0 90 34 7f
        E 120 80 32 00
        E 0 80 34 00
        E 0 90 35 7f
        E 120 80 30 00
        E 0 80 35 00
        E 0 90 32 7f
        E 0 90 34 7f
        E 0 90 36 7f
        E 120 80 32 00
        E 0 80 36 00
        E 0 90 35 7f
        E 0 90 30 7f
        E 120 80 35 00
        E 0 80 30 00
        E 0 90 32 7f
        E 0 90 38 7f
        E 120 80 34 00
        E 0 80 32 00
        E 0 90 33 7f
        E 0 90 31 7f
        E 0 90 30 7f
        E 120 80 38 00
        E 0 80 33 00
        E 0 80 31 00
        E 0 80 30 00
        E 0 90 32 7f
        E 0 90 30 7f
        E 120 80 32 00
        E 0 80 30 00
        E 0 90 33 7f
        E 120 80 33 00
        E 0 90 34 7f
        E 0 90 32 7f
        E 0 90 30 7f
        E 0 90 38 7f
        E 120 80 34 00
        E 0 80 32 00
        E 0 80 30 00
        E 0 90 35 7f
        E 0 90 30 7f
        E 120 80 38 00
        E 0 80 35 00
        E 0 80 30 00
        E 0 90 34 7f
        E 0 90 36 7f
        E 0 90 32 7f
        E 120 80 36 00
        E 0 80 32 00
        E 0 90 35 7f
        E 120 80 35 00
        E 0 90 32 7f
        E 0 90 30 7f
        E 0 90 38 7f
        E 120 80 34 00
        E 0 80 32 00
        E 0 80 30 00
        E 0 90 33 7f
        E 0 90 30 7f
        E 120 80 38 00
        E 0 80 33 00
        E 0 80 30 00
        E 0 90 32 7f
        E 120 80 32 00
        E 0 90 31 7f
        E 120 80 31 00
        E 0 90 30 7f
        E 0 90 38 7f
        E 0 90 32 7f
        E 120 80 30 00
        E 0 80 32 00
        E 0 90 30 7f
        E 0 90 33 7f
        E 120 80 38 00
        E 0 80 30 00
        E 0 80 33 00
        E 0 90 31 7f
        E 0 90 34 7f
        E 0 90 32 7f
        E 120 80 31 00
        E 0 80 34 00
        E 0 80 32 00
        E 0 90 31 7f
        E 0 90 35 7f
        E 120 80 31 00
        E 0 80 35 00
        E 0 90 30 7f
        E 0 90 38 7f
        E 0 90 31 7f
        E 0 90 34 7f
        E 0 90 32 7f
        E 0 90 36 7f
        E 120 80 30 00
        E 0 80 31 00
        E 0 80 32 00
        E 0 80 36 00
        E 0 90 30 7f
        E 0 90 31 7f
        E 0 90 35 7f
        E 120 80 38 00
        E 0 80 30 00
        E 0 80 31 00
        E 0 80 35 00
        E 0 90 31 7f
        E 0 90 32 7f
        E 120 80 34 00
        E 0 80 31 00
        E 0 80 32 00
        E 0 90 31 7f
        E 0 90 33 7f
        E 120 80 31 00
        E 0 80 33 00
        E 0 90 30 7f
        E 0 90 38 7f
        E 0 90 31 7f
        E 0 90 32 7f
        E 120 80 30 00
        E 0 80 31 00
        E 0 80 32 00
        E 0 90 34 7f
        E 0 90 30 7f
        E 0 90 31 7f
        E 120 80 38 00
        E 0 80 34 00
        E 0 80 30 00
        E 0 80 31 00
        E 0 90 31 7f
        E 0 90 35 7f
        E 120 80 31 00
        E 0 80 35 00
        E 0 90 34 7f
        E 0 90 31 7f
        E 0 90 36 7f
        E 120 80 34 00
        E 0 80 31 00
        E 0 80 36 00
        E 0 90 30 7f
        E 0 90 38 7f
        E 0 90 31 7f
        E 0 90 37 7f
        E 120 80 30 00
        E 0 80 31 00
        E 0 80 37 00
        E 0 90 30 7f
        E 0 90 31 7f
        E 0 90 34 7f
        E 0 90 39 7f
        E 120 80 38 00
        E 0 80 30 00
        E 0 80 31 00
        E 0 80 34 00
        E 0 80 39 00
        E 0 90 31 7f
        E 0 90 3a 7f
        E 0 90 36 7f
        E 120 80 31 00
        E 0 80 3a 00
        E 0 80 36 00
        E 0 90 31 7f
        E 0 90 34 7f
        E 0 90 3b 7f
        E 120 80 31 00
        E 0 80 34 00
        E 0 80 3b 00
        E 0 90 3c 7f
        E 0 90 30 7f
        E 0 90 38 7f
        E 0 90 31 7f
        E 0 90 36 7f
        E 120 80 3c 00
        E 0 80 30 00
        E 0 80 31 00
        E 0 80 36 00
        E 0 90 30 7f
        E 0 90 31 7f
        E 0 90 34 7f
        E 0 90 3d 7f
        E 120 80 38 00
        E 0 80 30 00
        E 0 80 31 00
        E 0 80 34 00
        E 0 80 3d 00
        E 0 90 30 7f
        E 0 90 31 7f
        E 0 90 3e 7f
        E 0 90 36 7f
        E 120 80 30 00
        E 0 80 31 00
        E 0 80 3e 00
        E 0 80 36 00
        E 0 90 30 7f
        E 0 90 38 7f
        E 0 90 31 7f
        E 0 90 34 7f
        E 120 80 30 00
        E 0 80 31 00
        E 0 80 34 00
        E 0 90 30 7f
        E 0 90 31 7f
        E 0 90 36 7f
        E 120 80 38 00
        E 0 80 30 00
        E 0 80 31 00
        E 0 80 36 00
        E 0 90 30 7f
        E 0 90 31 7f
        E 0 90 32 7f
        E 0 90 34 7f
        E 120 80 30 00
        E 0 80 31 00
        E 0 80 32 00
        E 0 80 34 00
        E 0 90 30 7f
        E 0 90 32 7f
        E 0 90 3e 7f
        E 0 90 36 7f
        E 120 80 30 00
        E 0 80 32 00
        E 0 80 3e 00
        E 0 80 36 00
        E 0 90 3d 7f
        E 0 90 30 7f
        E 0 90 38 7f
        E 0 90 32 7f
        E 0 90 34 7f
        E 120 80 3d 00
        E 0 80 30 00
        E 0 80 32 00
        E 0 80 34 00
        E 0 90 30 7f
        E 0 90 32 7f
        E 0 90 3c 7f
        E 0 90 36 7f
        E 120 80 38 00
        E 0 80 30 00
        E 0 80 32 00
        E 0 80 3c 00
        E 0 80 36 00
        E 0 90 3b 7f
        E 0 90 30 7f
        E 0 90 32 7f
        E 0 90 34 7f
        E 120 80 3b 00
        E 0 80 30 00
        E 0 80 32 00
        E 0 80 34 00
        E 0 90 3a 7f
        E 0 90 30 7f
        E 0 90 32 7f
        E 0 90 36 7f
        E 120 80 3a 00
        E 0 80 30 00
        E 0 80 32 00
        E 0 80 36 00
        E 0 90 30 7f
        E 0 90 32 7f
        E 0 90 34 7f
        E 0 90 39 7f
        E 120 80 30 00
        E 0 80 32 00
        E 0 80 34 00
        E 0 80 39 00
        E 0 90 30 7f
        E 0 90 32 7f
        E 0 90 38 7f
        E 0 90 36 7f
        E 120 80 30 00
        E 0 80 32 00
        E 0 80 38 00
        E 0 80 36 00
        E 0 90 30 7f
        E 0 90 32 7f
        E 0 90 37 7f
        E 120 80 30 00
        E 0 80 32 00
        E 0 80 37 00
        E 0 90 38 7f
        E 0 90 30 7f
        E 0 90 32 7f
        E 0 90 36 7f
        E 120 80 30 00
        E 0 80 32 00
        E 0 80 36 00
        E 0 90 30 7f
        E 0 90 32 7f
        E 0 90 35 7f
        E 120 80 38 00
        E 0 80 30 00
        E 0 80 32 00
        E 0 80 35 00
        E 0 90 32 7f
        E 0 90 34 7f
        E 120 80 32 00
        E 0 80 34 00
        E 0 90 32 7f
        E 0 90 33 7f
        E 0 90 38 7f
        E 120 80 32 00
        E 0 80 33 00
        E 0 90 32 7f
        E 0 90 33 7f
        E 120 80 38 00
        E 0 80 32 00
        E 0 80 33 00
        E 0 90 32 7f
        E 0 90 31 7f
        E 0 90 34 7f
        E 120 80 32 00
        E 0 80 31 00
        E 0 80 34 00
        E 0 90 32 7f
        E 0 90 33 7f
        E 0 90 35 7f
        E 120 80 32 00
        E 0 80 33 00
        E 0 80 35 00
        E 0 90 30 7f
        E 0 90 32 7f
        E 0 90 37 7f
        E 0 90 36 7f
        E 120 80 30 00
        E 0 80 32 00
        E 0 80 36 00
        E 0 90 30 7f
        E 0 90 32 7f
        E 0 90 33 7f
        E 0 90 38 7f
        E 120 80 37 00
        E 0 80 30 00
        E 0 80 32 00
        E 0 80 33 00
        E 0 80 38 00
        E 0 90 30 7f
        E 0 90 32 7f
        E 0 90 39 7f
        E 0 90 35 7f
        E 120 80 30 00
        E 0 80 32 00
        E 0 80 39 00
        E 0 80 35 00
        E 0 90 30 7f
        E 0 90 32 7f
        E 0 90 33 7f
        E 0 90 3a 7f
        E 0 90 38 7f
        E 120 80 30 00
        E 0 80 32 00
        E 0 80 33 00
        E 0 80 3a 00
        E 0 90 30 7f
        E 0 90 3b 7f
        E 0 90 37 7f
        E 0 90 35 7f
        E 120 80 38 00
        E 0 80 30 00
        E 0 80 3b 00
        E 0 80 35 00
        E 0 90 30 7f
        E 0 90 33 7f
        E 0 90 3c 7f
        E 120 80 37 00
        E 0 80 30 00
        E 0 80 33 00
        E 0 80 3c 00
        E 0 90 30 7f
        E 0 90 31 7f
        E 0 90 3d 7f
        E 0 90 35 7f
        E 0 90 38 7f
        E 120 80 30 00
        E 0 80 31 00
        E 0 80 3d 00
        E 0 80 35 00
        E 0 90 30 7f
        E 0 90 31 7f
        E 0 90 37 7f
        E 0 90 33 7f
        E 0 90 3e 7f
        E 120 80 38 00
        E 0 80 30 00
        E 0 80 31 00
        E 0 80 33 00
        E 0 80 3e 00
        E 0 90 30 7f
        E 0 90 31 7f
        E 0 90 35 7f
        E 120 80 37 00
        E 0 80 30 00
        E 0 80 31 00
        E 0 80 35 00
        E 0 90 30 7f
        E 0 90 31 7f
        E 0 90 33 7f
        E 0 90 3e 7f
        E 0 90 38 7f
        E 120 80 30 00
        E 0 80 31 00
        E 0 80 33 00
        E 0 80 3e 00
        E 0 90 31 7f
        E 0 90 3d 7f
        E 0 90 35 7f
        E 120 80 38 00
        E 0 80 31 00
        E 0 80 3d 00
        E 0 80 35 00
        E 0 90 31 7f
        E 0 90 3c 7f
        E 0 90 37 7f
        E 0 90 33 7f
        E 120 80 31 00
        E 0 80 3c 00
        E 0 80 33 00
        E 0 90 31 7f
        E 0 90 3b 7f
        E 0 90 35 7f
        E 120 80 37 00
        E 0 80 31 00
        E 0 80 3b 00
        E 0 80 35 00
        E 0 90 38 7f
        E 0 90 31 7f
        E 0 90 3a 7f
        E 0 90 33 7f
        E 120 80 31 00
        E 0 80 3a 00
        E 0 80 33 00
        E 0 90 31 7f
        E 0 90 39 7f
        E 0 90 35 7f
        E 120 80 38 00
        E 0 80 31 00
        E 0 80 39 00
        E 0 80 35 00
        E 0 90 31 7f
        E 0 90 33 7f
        E 0 90 38 7f
        E 120 80 31 00
        E 0 80 33 00
        E 0 80 38 00
        E 0 90 37 7f
        E 0 90 35 7f
        E 120 80 37 00
        E 0 80 35 00
        E 0 90 36 7f
        E 0 90 3b 7f
        E 0 90 38 7f
        E 120 80 36 00
        E 0 80 3b 00
        E 0 80 38 00
        E 0 90 35 7f
        E 0 90 3c 7f
        E 0 90 39 7f
        E 120 80 35 00
        E 0 80 3c 00
        E 0 80 39 00
        E 0 90 34 7f
        E 0 90 3b 7f
        E 0 90 3a 7f
        E 120 80 34 00
        E 0 80 3b 00
        E 0 80 3a 00
        E 0 90 33 7f
        E 0 90 3c 7f
        E 0 90 3b 7f
        E 120 80 33 00
        E 0 80 3c 00
        E 0 80 3b 00
        E 0 90 32 7f
        E 0 90 3b 7f
        E 0 90 3c 7f
        E 120 80 32 00
        E 0 80 3b 00
        E 0 80 3c 00
        E 0 90 3c 7f
        E 0 90 3d 7f
        E 0 90 31 7f
        E 120 80 3c 00
        E 0 80 3d 00
        E 0 80 31 00
        E 0 90 3b 7f
        E 0 90 3e 7f
        E 0 90 30 7f
        E 120 80 3b 00
        E 0 80 3e 00
        E 0 80 30 00
        E 0 90 3c 7f
        E 0 90 3d 7f
        E 0 90 31 7f
        E 120 80 3c 00
        E 0 80 3d 00
        E 0 80 31 00
        E 0 90 3b 7f
        E 0 90 3c 7f
        E 0 90 32 7f
        E 120 80 3b 00
        E 0 80 3c 00
        E 0 80 32 00
        E 0 90 3c 7f
        E 0 90 3a 7f
        E 0 90 33 7f
        E 120 80 3c 00
        E 0 80 3a 00
        E 0 80 33 00
        E 0 90 3b 7f
        E 0 90 39 7f
        E 0 90 34 7f
        E 120 80 3b 00
        E 0 80 39 00
        E 0 80 34 00
        E 0 90 3c 7f
        E 0 90 35 7f
        E 0 90 38 7f
        E 120 80 3c 00
        E 0 80 35 00
        E 0 80 38 00
        E 0 90 3b 7f
        E 0 90 36 7f
        E 0 90 37 7f
        E 120 80 3b 00
        E 0 80 36 00
        E 0 80 37 00
        E 0 90 3c 7f
        E 0 90 38 7f
        E 0 90 35 7f
        E 120 80 3c 00
        E 0 80 38 00
        E 0 80 35 00
        E 0 90 3b 7f
        E 0 90 39 7f
        E 0 90 34 7f
        E 120 80 3b 00
        E 0 80 39 00
        E 0 80 34 00
        E 0 90 3c 7f
        E 0 90 3a 7f
        E 0 90 33 7f
        E 120 80 3c 00
        E 0 80 3a 00
        E 0 80 33 00
        E 0 90 3b 7f
        E 0 90 32 7f
        E 120 80 3b 00
        E 0 80 32 00
        E 0 90 3c 7f
        E 0 90 31 7f
        E 120 80 3c 00
        E 0 80 31 00
        E 0 90 3b 7f
        E 0 90 3d 7f
        E 0 90 30 7f
        E 120 80 3b 00
        E 0 80 3d 00
        E 0 80 30 00
        E 0 90 3c 7f
        E 0 90 31 7f
        E 120 80 3c 00
        E 0 80 31 00
        E 0 90 32 7f
        E 0 90 3b 7f
        E 120 80 32 00
        E 0 80 3b 00
        E 0 90 33 7f
        E 0 90 3a 7f
        E 120 80 33 00
        E 0 80 3a 00
        E 0 90 34 7f
        E 0 90 39 7f
        E 120 80 34 00
        E 0 80 39 00
        E 0 90 35 7f
        E 0 90 38 7f
        E 120 80 35 00
        E 0 80 38 00
        E 0 90 37 7f
        E 0 90 36 7f
        E 120 80 37 00
        E 0 80 36 00
        E 0 90 36 7f
        E 0 90 37 7f
        E 120 80 36 00
        E 0 80 37 00
        E 0 90 38 7f
        E 0 90 35 7f
        E 120 80 38 00
        E 0 80 35 00
        E 0 90 39 7f
        E 0 90 34 7f
        E 120 80 39 00
        E 0 80 34 00
        E 0 90 3a 7f
        E 0 90 33 7f
        E 120 80 3a 00
        E 0 80 33 00
        E 0 90 3b 7f
        E 0 90 32 7f
        E 120 80 3b 00
        E 0 80 32 00
        E 0 90 3c 7f
        E 0 90 31 7f
        E 120 80 3c 00
        E 0 80 31 00
        E 0 90 3d 7f
        E 0 90 30 7f
        E 120 80 3d 00
        E 0 80 30 00
        E 0 90 3c 7f
        E 0 90 31 7f
        E 120 80 3c 00
        E 0 80 31 00
        E 0 90 32 7f
        E 0 90 3b 7f
        E 120 80 32 00
        E 0 80 3b 00
        E 0 90 33 7f
        E 0 90 3a 7f
        E 120 80 33 00
        E 0 80 3a 00
        E 0 90 34 7f
        E 0 90 39 7f
        E 120 80 34 00
        E 0 80 39 00
        E 0 90 35 7f
        E 0 90 38 7f
        E 120 80 35 00
        E 0 80 38 00
        E 0 90 37 7f
        E 0 90 36 7f
        E 120 80 37 00
        E 0 80 36 00
        E 0 90 36 7f
        E 0 90 37 7f
        E 120 80 36 00
        E 0 80 37 00
        E 0 90 38 7f
        E 0 90 35 7f
        E 120 80 38 00
        E 0 80 35 00
        E 0 90 39 7f
        E 0 90 34 7f
        E 120 80 39 00
        E 0 80 34 00
        E 0 90 3a 7f
        E 0 90 33 7f
        E 120 80 3a 00
        E 0 80 33 00
        E 0 90 3b 7f
        E 0 90 32 7f
        E 120 80 3b 00
        E 0 80 32 00
        E 0 90 3c 7f
        E 0 90 31 7f
        E 120 80 3c 00
        E 0 80 31 00
        E 0 90 3d 7f
        E 0 90 30 7f
        E 120 80 3d 00
        E 0 80 30 00
        E 0 90 3c 7f
        E 0 90 31 7f
        E 120 80 3c 00
        E 0 80 31 00
        E 0 90 32 7f
        E 0 90 3b 7f
        E 120 80 32 00
        E 0 80 3b 00
        E 0 90 33 7f
        E 0 90 3a 7f
        E 120 80 33 00
        E 0 80 3a 00
        E 0 90 34 7f
        E 0 90 39 7f
        E 120 80 34 00
        E 0 80 39 00
        E 0 90 35 7f
        E 0 90 38 7f
        E 120 80 35 00
        E 0 80 38 00
        E 0 90 37 7f
        E 0 90 36 7f
        E 120 80 37 00
        E 0 80 36 00
        E 0 90 36 7f
        E 0 90 37 7f
        E 120 80 36 00
        E 0 80 37 00
        E 0 90 38 7f
        E 0 90 35 7f
        E 120 80 38 00
        E 0 80 35 00
        E 0 90 39 7f
        E 0 90 34 7f
        E 120 80 39 00
        E 0 80 34 00
        E 0 90 3a 7f
        E 0 90 33 7f
        E 120 80 3a 00
        E 0 80 33 00
        E 0 90 3b 7f
        E 0 90 32 7f
        E 120 80 3b 00
        E 0 80 32 00
        E 0 90 3c 7f
        E 0 90 31 7f
        E 120 80 3c 00
        E 0 80 31 00
        E 0 90 3d 7f
        E 0 90 30 7f
        E 120 80 3d 00
        E 0 80 30 00
        E 0 90 3c 7f
        E 0 90 31 7f
        E 120 80 3c 00
        E 0 80 31 00
        E 0 90 32 7f
        E 0 90 3b 7f
        E 120 80 32 00
        E 0 80 3b 00
        E 0 90 33 7f
        E 0 90 3a 7f
        E 120 80 33 00
        E 0 80 3a 00
        E 0 90 34 7f
        E 0 90 39 7f
        E 120 80 34 00
        E 0 80 39 00
        E 0 90 35 7f
        E 0 90 38 7f
        E 120 80 35 00
        E 0 80 38 00
        E 0 90 37 7f
        E 0 90 36 7f
        E 120 80 37 00
        E 0 80 36 00
        E 0 90 36 7f
        E 0 90 37 7f
        E 120 80 36 00
        E 0 80 37 00
        E 0 90 38 7f
        E 0 90 35 7f
        E 120 80 38 00
        E 0 80 35 00
        E 0 90 39 7f
        E 0 90 34 7f
        E 120 80 39 00
        E 0 80 34 00
        E 0 90 3a 7f
        E 0 90 33 7f
        E 120 80 3a 00
        E 0 80 33 00
        E 0 90 3b 7f
        E 0 90 32 7f
        E 120 80 3b 00
        E 0 80 32 00
        E 0 90 3c 7f
        E 0 90 31 7f
        E 120 80 3c 00
        E 0 80 31 00
        E 0 90 3d 7f
        E 0 90 30 7f
        E 120 80 3d 00
        E 0 80 30 00
        E 0 90 3c 7f
        E 0 90 31 7f
        E 120 80 3c 00
        E 0 80 31 00
        E 0 90 32 7f
        E 0 90 3b 7f
        E 120 80 32 00
        E 0 80 3b 00
        E 0 90 33 7f
        E 0 90 3a 7f
        E 120 80 33 00
        E 0 80 3a 00
        E 0 90 34 7f
        E 0 90 39 7f
        E 120 80 34 00
        E 0 80 39 00
        E 0 90 35 7f
        E 0 90 38 7f
        E 120 80 35 00
        E 0 80 38 00
        E 0 90 37 7f
        E 0 90 36 7f
        E 120 80 37 00
        E 0 80 36 00
        E 0 90 36 7f
        E 0 90 37 7f
        E 120 80 36 00
        E 0 80 37 00
        E 0 90 38 7f
        E 0 90 35 7f
        E 120 80 38 00
        E 0 80 35 00
        E 0 90 39 7f
        E 0 90 34 7f
        E 120 80 39 00
        E 0 80 34 00
        E 0 90 3a 7f
        E 0 90 33 7f
        E 120 80 3a 00
        E 0 80 33 00
        E 0 90 3b 7f
        E 0 90 32 7f
        E 120 80 3b 00
        E 0 80 32 00
        E 0 90 3c 7f
        E 0 90 31 7f
        E 120 80 3c 00
        E 0 80 31 00
        E 0 90 3d 7f
        E 0 90 30 7f
        E 120 80 3d 00
        E 0 80 30 00
        E 0 90 3c 7f
        E 0 90 31 7f
        E 120 80 3c 00
        E 0 80 31 00
        E 0 90 32 7f
        E 0 90 3b 7f
        E 120 80 32 00
        E 0 80 3b 00
        E 0 90 33 7f
        E 0 90 3a 7f
        E 120 80 33 00
        E 0 80 3a 00
        E 0 90 34 7f
        E 0 90 39 7f
        E 120 80 34 00
        E 0 80 39 00
        E 0 90 35 7f
        E 0 90 38 7f
        E 120 80 35 00
        E 0 80 38 00
        E 0 90 37 7f
        E 0 90 36 7f
        E 120 80 37 00
        E 0 80 36 00
        E 0 90 35 7f
        E 120 80 35 00
        E 0 90 34 7f
        E 120 80 34 00
        E 0 90 33 7f
        E 120 80 33 00
        E 0 90 32 7f
        E 120 80 32 00
        E 0 90 31 7f
        E 120 80 31 00
        E 0 90 30 7f
        E 120 80 30 00
        E 0 90 34 7f
        E 0 90 36 7f
        E 0 90 30 7f
        E 120 80 34 00
        E 0 80 36 00
        E 0 80 30 00
        E 0 90 34 7f
        E 0 90 30 7f
        E 120 80 34 00
        E 0 80 30 00
        E 0 90 36 7f
        E 0 90 30 7f
        E 120 80 36 00
        E 0 80 30 00
        E 0 90 30 7f
        E 120 80 30 00
        E 0 90 34 7f
        E 0 90 36 7f
        E 0 90 30 7f
        E 120 80 34 00
        E 0 80 36 00
        E 0 80 30 00
        E 0 90 34 7f
        E 0 90 30 7f
        E 120 80 34 00
        E 0 80 30 00
        E 0 90 36 7f
        E 0 90 30 7f
        E 0 90 31 7f
        E 120 80 36 00
        E 0 80 30 00
        E 0 80 31 00
        E 0 90 30 7f
        E 0 90 31 7f
        E 120 80 30 00
        E 0 80 31 00
        E 0 90 34 7f
        E 0 90 36 7f
        E 0 90 30 7f
        E 0 90 31 7f
        E 120 80 34 00
        E 0 80 36 00
        E 0 80 30 00
        E 0 80 31 00
        E 0 90 34 7f
        E 0 90 30 7f
        E 0 90 31 7f
        E 120 80 34 00
        E 0 80 30 00
        E 0 80 31 00
        E 0 90 3a 7f
        E 0 90 36 7f
        E 0 90 3b 7f
        E 0 90 3c 7f
        E 0 90 31 7f
        E 120 80 36 00
        E 0 80 31 00
        E 0 90 31 7f
        E 120 80 31 00
        E 0 90 34 7f
        E 0 90 36 7f
        E 0 90 31 7f
        E 120 80 34 00
        E 0 80 36 00
        E 0 80 31 00
        E 0 90 34 7f
        E 0 90 31 7f
        E 120 80 34 00
        E 0 80 31 00
        E 0 90 35 7f
        E 0 90 31 7f
        E 120 80 31 00
        E 0 90 31 7f
        E 120 80 3a 00
        E 0 80 3b 00
        E 0 80 3c 00
        E 0 80 35 00
        E 0 80 31 00
        E 0 90 37 7f
        E 0 90 34 7f
        E 0 90 38 7f
        E 0 90 39 7f
        E 120 80 34 00
        E 0 90 34 7f
        E 0 90 30 7f
        E 120 80 34 00
        E 0 80 30 00
        E 0 90 35 7f
        E 0 90 30 7f
        E 120 80 30 00
        E 0 90 30 7f
        E 120 80 35 00
        E 0 80 30 00
        E 0 90 34 7f
        E 0 90 30 7f
        E 120 80 34 00
        E 0 80 30 00
        E 0 90 34 7f
        E 0 90 30 7f
        E 120 80 37 00
        E 0 80 38 00
        E 0 80 39 00
        E 0 80 34 00
        E 0 80 30 00
        E 0 90 35 7f
        E 0 90 30 7f
        E 120 80 30 00
        E 0 90 30 7f
        E 120 80 35 00
        E 0 80 30 00
        E 0 90 34 7f
        E 0 90 39 7f
        E 0 90 3a 7f
        E 0 90 3b 7f
        E 0 90 3c 7f
        E 0 90 30 7f
        E 0 90 31 7f
        E 120 80 34 00
        E 0 80 30 00
        E 0 80 31 00
        E 0 90 34 7f
        E 0 90 30 7f
        E 0 90 31 7f
        E 120 80 34 00
        E 0 80 30 00
        E 0 80 31 00
        E 0 90 35 7f
        E 0 90 30 7f
        E 0 90 31 7f
        E 120 80 30 00
        E 0 80 31 00
        E 0 90 30 7f
        E 0 90 31 7f
        E 120 80 35 00
        E 0 80 30 00
        E 0 80 31 00
        E 0 90 35 7f
        E 0 90 34 7f
        E 0 90 36 7f
        E 0 90 31 7f
        E 120 80 34 00
        E 0 80 36 00
        E 0 80 31 00
        E 0 90 34 7f
        E 0 90 31 7f
        E 120 80 39 00
        E 0 80 3a 00
        E 0 80 3b 00
        E 0 80 3c 00
        E 0 80 34 00
        E 0 80 31 00
        E 0 90 36 7f
        E 0 90 31 7f
        E 120 80 36 00
        E 0 80 31 00
        E 0 90 31 7f
        E 120 80 31 00
        E 0 90 34 7f
        E 0 90 36 7f
        E 0 90 31 7f
        E 0 90 32 7f
        E 120 80 34 00
        E 0 80 36 00
        E 0 80 31 00
        E 0 80 32 00
        E 0 90 34 7f
        E 0 90 31 7f
        E 0 90 32 7f
        E 120 80 34 00
        E 0 80 31 00
        E 0 80 32 00
        E 0 90 39 7f
        E 0 90 3a 7f
        E 0 90 3b 7f
        E 0 90 36 7f
        E 0 90 38 7f
        E 0 90 32 7f
        E 0 90 30 7f
        E 120 80 36 00
        E 0 80 32 00
        E 0 80 30 00
        E 0 90 32 7f
        E 0 90 30 7f
        E 120 80 35 00
        E 0 80 32 00
        E 0 80 30 00
        E 0 90 34 7f
        E 0 90 36 7f
        E 0 90 32 7f
        E 120 80 34 00
        E 0 80 36 00
        E 0 80 32 00
        E 0 90 34 7f
        E 0 90 32 7f
        E 120 80 34 00
        E 0 80 32 00
        E 0 90 36 7f
        E 0 90 32 7f
        E 0 90 30 7f
        E 120 80 39 00
        E 0 80 3a 00
        E 0 80 3b 00
        E 0 80 38 00
        E 0 80 36 00
        E 0 80 32 00
        E 0 80 30 00
        E 0 90 32 7f
        E 0 90 33 7f
        E 0 90 30 7f
        E 120 80 32 00
        E 0 80 33 00
        E 0 80 30 00
        E 0 90 36 7f
        E 0 90 34 7f
        E 0 90 32 7f
        E 0 90 33 7f
        E 120 80 36 00
        E 0 80 34 00
        E 0 80 32 00
        E 0 80 33 00
        E 0 90 34 7f
        E 0 90 32 7f
        E 0 90 33 7f
        E 120 80 34 00
        E 0 80 32 00
        E 0 80 33 00
        E 0 90 35 7f
        E 0 90 36 7f
        E 0 90 32 7f
        E 0 90 33 7f
        E 0 90 30 7f
        E 120 80 36 00
        E 0 80 32 00
        E 0 80 33 00
        E 0 80 30 00
        E 0 90 33 7f
        E 0 90 30 7f
        E 120 80 35 00
        E 0 80 33 00
        E 0 80 30 00
        E 0 90 39 7f
        E 0 90 35 7f
        E 0 90 36 7f
        E 0 90 34 7f
        E 0 90 3a 7f
        E 0 90 3b 7f
        E 0 90 3c 7f
        E 0 90 3d 7f
        E 0 90 33 7f
        E 120 80 36 00
        E 0 80 34 00
        E 0 80 33 00
        E 0 90 34 7f
        E 0 90 33 7f
        E 120 80 34 00
        E 0 80 33 00
        E 0 90 35 7f
        E 0 90 33 7f
        E 0 90 30 7f
        E 120 80 33 00
        E 0 80 30 00
        E 0 90 36 7f
        E 0 90 33 7f
        E 0 90 30 7f
        E 120 80 35 00
        E 0 80 36 00
        E 0 80 33 00
        E 0 80 30 00
        E 0 90 34 7f
        E 0 90 33 7f
        E 120 80 34 00
        E 0 80 33 00
        E 0 90 34 7f
        E 120 80 39 00
        E 0 80 3a 00
        E 0 80 3b 00
        E 0 80 3c 00
        E 0 80 3d 00
        E 0 80 34 00
        E 0 90 30 7f
        E 0 90 35 7f
        E 0 90 30 7f
        E 120 80 30 00
        E 0 80 30 00
        E 0 90 30 7f
        E 0 90 36 7f
        E 0 90 30 7f
        E 120 80 35 00
        E 0 80 35 00
        E 0 80 30 00
        E 0 80 36 00
        E 0 80 30 00
        E 0 90 34 7f
        E 120 80 34 00
        E 0 90 34 7f
        E 120 80 34 00
        E 0 90 30 7f
        E 0 90 35 7f
        E 0 90 34 7f
        E 0 90 30 7f
        E 120 80 30 00
        E 0 80 34 00
        E 0 80 30 00
        E 0 90 30 7f
        E 0 90 34 7f
        E 0 90 30 7f
        E 120 80 35 00
        E 0 80 30 00
        E 0 80 34 00
        E 0 80 30 00
        E 0 90 36 7f
        E 0 90 34 7f
        E 120 80 36 00
        E 0 80 34 00
        E 0 90 34 7f
        E 120 80 34 00
        E 0 90 30 7f
        E 0 90 34 7f
        E 0 90 36 7f
        E 120 80 30 00
        E 0 80 34 00
        E 0 80 36 00
        E 0 90 30 7f
        E 0 90 34 7f
        E 120 80 30 00
        E 0 80 34 00
        E 0 90 35 7f
        E 0 90 34 7f
        E 0 90 36 7f
        E 120 80 34 00
        E 0 80 36 00
        E 0 90 34 7f
        E 0 90 37 7f
        E 120 80 34 00
        E 0 90 30 7f
        E 0 90 34 7f
        E 0 90 36 7f
        E 120 80 30 00
        E 0 80 34 00
        E 0 80 36 00
        E 0 90 30 7f
        E 0 90 34 7f
        E 120 80 30 00
        E 0 80 34 00
        E 0 90 36 7f
        E 0 90 34 7f
        E 120 80 36 00
        E 0 80 34 00
        E 0 90 34 7f
        E 120 80 34 00
        E 0 90 30 7f
        E 0 90 36 7f
        E 0 90 34 7f
        E 120 80 37 00
        E 0 80 30 00
        E 0 80 36 00
        E 0 80 34 00
        E 0 90 30 7f
        E 0 90 34 7f
        E 120 80 35 00
        E 0 80 30 00
        E 0 80 34 00
        E 0 90 36 7f
        E 0 90 34 7f
        E 120 80 36 00
        E 0 80 34 00
        E 0 90 34 7f
        E 120 80 34 00
        E 0 90 30 7f
        E 0 90 36 7f
        E 0 90 34 7f
        E 120 80 30 00
        E 0 80 36 00
        E 0 80 34 00
        E 0 90 30 7f
        E 0 90 34 7f
        E 120 80 30 00
        E 0 80 34 00
        E 0 90 36 7f
        E 120 80 36 00
        E 120 90 30 7f
        E 0 90 31 7f
        E 0 90 32 7f
        E 0 90 33 7f
        E 0 90 34 7f
        E 0 90 35 7f
        E 0 90 36 7f
        E 0 90 37 7f
        E 120 80 30 00
        E 0 80 31 00
        E 0 80 32 00
        E 0 80 33 00
        E 0 80 34 00
        E 0 80 35 00
        E 0 80 36 00
        E 0 80 37 00
        E 0 90 30 7f
        E 0 90 31 7f
        E 0 90 32 7f
        E 0 90 33 7f
        E 0 90 34 7f
        E 0 90 35 7f
        E 0 90 36 7f
        E 0 90 37 7f
        E 120 80 30 00
        E 0 80 31 00
        E 0 80 32 00
        E 0 80 33 00
        E 0 80 34 00
        E 0 80 35 00
        E 0 80 36 00
        E 0 80 37 00
        E 240 90 30 7f
        E 0 90 31 7f
        E 0 90 32 7f
        E 0 90 33 7f
        E 0 90 34 7f
        E 0 90 35 7f
        E 0 90 36 7f
        E 0 90 37 7f
        E 120 80 30 00
        E 0 80 31 00
        E 0 80 32 00
        E 0 80 33 00
        E 0 80 34 00
        E 0 80 35 00
        E 0 80 36 00
        E 0 80 37 00
        E 0 90 30 7f
        E 0 90 31 7f
        E 0 90 32 7f
        E 0 90 33 7f
        E 0 90 34 7f
        E 0 90 35 7f
        E 0 90 36 7f
        E 0 90 37 7f
        E 120 80 30 00
        E 0 80 31 00
        E 0 80 32 00
        E 0 80 33 00
        E 0 80 34 00
        E 0 80 35 00
        E 0 80 36 00
        E 0 80 37 00
        E 240 90 30 7f
        E 0 90 31 7f
        E 0 90 32 7f
        E 0 90 33 7f
        E 0 90 34 7f
        E 0 90 35 7f
        E 0 90 36 7f
        E 0 90 37 7f
        E 120 80 30 00
        E 0 80 31 00
        E 0 80 32 00
        E 0 80 33 00
        E 0 80 34 00
        E 0 80 35 00
        E 0 80 36 00
        E 0 80 37 00
        E 0 90 30 7f
        E 0 90 31 7f
        E 0 90 32 7f
        E 0 90 33 7f
        E 0 90 34 7f
        E 0 90 35 7f
        E 0 90 36 7f
        E 0 90 37 7f
        E 120 80 30 00
        E 0 80 31 00
        E 0 80 32 00
        E 0 80 33 00
        E 0 80 34 00
        E 0 80 35 00
        E 0 80 36 00
        E 0 80 37 00
        E 240 90 30 7f
        E 0 90 31 7f
        E 0 90 32 7f
        E 0 90 33 7f
        E 0 90 34 7f
        E 0 90 35 7f
        E 0 90 36 7f
        E 0 90 37 7f
        E 120 80 30 00
        E 0 80 31 00
        E 0 80 32 00
        E 0 80 33 00
        E 0 80 34 00
        E 0 80 35 00
        E 0 80 36 00
        E 0 80 37 00
        E 0 90 30 7f
        E 0 90 31 7f
        E 0 90 32 7f
        E 0 90 33 7f
        E 0 90 34 7f
        E 0 90 35 7f
        E 0 90 36 7f
        E 0 90 37 7f
        E 120 80 30 00
        E 0 80 31 00
        E 0 80 32 00
        E 0 80 33 00
        E 0 80 34 00
        E 0 80 35 00
        E 0 80 36 00
        E 0 80 37 00
        E 240 90 30 7f
        E 0 90 31 7f
        E 0 90 32 7f
        E 0 90 33 7f
        E 0 90 34 7f
        E 0 90 35 7f
        E 0 90 36 7f
        E 0 90 37 7f
        E 120 80 30 00
        E 0 80 31 00
        E 0 80 32 00
        E 0 80 33 00
        E 0 80 34 00
        E 0 80 35 00
        E 0 80 36 00
        E 0 80 37 00
        E 0 90 30 7f
        E 0 90 31 7f
        E 0 90 32 7f
        E 0 90 33 7f
        E 0 90 34 7f
        E 0 90 35 7f
        E 0 90 36 7f
        E 0 90 37 7f
        E 120 80 30 00
        E 0 80 31 00
        E 0 80 32 00
        E 0 80 33 00
        E 0 80 34 00
        E 0 80 35 00
        E 0 80 36 00
        E 0 80 37 00
        E 240 90 30 7f
        E 0 90 31 7f
        E 0 90 32 7f
        E 0 90 33 7f
        E 0 90 34 7f
        E 0 90 35 7f
        E 0 90 36 7f
        E 0 90 37 7f
        E 120 80 30 00
        E 0 80 31 00
        E 0 80 32 00
        E 0 80 33 00
        E 0 80 34 00
        E 0 80 35 00
        E 0 80 36 00
        E 0 80 37 00
        E 0 90 30 7f
        E 0 90 31 7f
        E 0 90 32 7f
        E 0 90 33 7f
        E 0 90 34 7f
        E 0 90 35 7f
        E 0 90 36 7f
        E 0 90 37 7f
        E 120 80 30 00
        E 0 80 31 00
        E 0 80 32 00
        E 0 80 33 00
        E 0 80 34 00
        E 0 80 35 00
        E 0 80 36 00
        E 0 80 37 00
        E 240 90 30 7f
        E 0 90 31 7f
        E 0 90 32 7f
        E 0 90 33 7f
        E 0 90 34 7f
        E 0 90 35 7f
        E 0 90 36 7f
        E 0 90 37 7f
        E 120 80 30 00
        E 0 80 31 00
        E 0 80 32 00
        E 0 80 33 00
        E 0 80 34 00
        E 0 80 35 00
        E 0 80 36 00
        E 0 80 37 00
        E 0 90 30 7f
        E 0 90 31 7f
        E 0 90 32 7f
        E 0 90 33 7f
        E 0 90 34 7f
        E 0 90 35 7f
        E 0 90 36 7f
        E 0 90 37 7f
        E 120 80 30 00
        E 0 80 31 00
        E 0 80 32 00
        E 0 80 33 00
        E 0 80 34 00
        E 0 80 35 00
        E 0 80 36 00
        E 0 80 37 00
        E 240 90 30 7f
        E 0 90 31 7f
        E 0 90 32 7f
        E 0 90 33 7f
        E 0 90 34 7f
        E 0 90 35 7f
        E 0 90 36 7f
        E 0 90 37 7f
        E 120 80 30 00
        E 0 80 31 00
        E 0 80 32 00
        E 0 80 33 00
        E 0 80 34 00
        E 0 80 35 00
        E 0 80 36 00
        E 0 80 37 00
        E 0 90 30 7f
        E 0 90 31 7f
        E 0 90 32 7f
        E 0 90 33 7f
        E 0 90 34 7f
        E 0 90 35 7f
        E 0 90 36 7f
        E 0 90 37 7f
        E 120 80 30 00
        E 0 80 31 00
        E 0 80 32 00
        E 0 80 33 00
        E 0 80 34 00
        E 0 80 35 00
        E 0 80 36 00
        E 0 80 37 00
        E 240 90 30 7f
        E 0 90 31 7f
        E 0 90 32 7f
        E 0 90 33 7f
        E 0 90 34 7f
        E 0 90 35 7f
        E 0 90 36 7f
        E 0 90 37 7f
        E 120 80 30 00
        E 0 80 31 00
        E 0 80 32 00
        E 0 80 33 00
        E 0 80 34 00
        E 0 80 35 00
        E 0 80 36 00
        E 0 80 37 00
        E 0 90 30 7f
        E 0 90 31 7f
        E 0 90 32 7f
        E 0 90 33 7f
        E 0 90 34 7f
        E 0 90 35 7f
        E 0 90 36 7f
        E 0 90 37 7f
        E 120 80 30 00
        E 0 80 31 00
        E 0 80 32 00
        E 0 80 33 00
        E 0 80 34 00
        E 0 80 35 00
        E 0 80 36 00
        E 0 80 37 00
        E 240 90 30 7f
        E 0 90 31 7f
        E 0 90 32 7f
        E 0 90 33 7f
        E 0 90 34 7f
        E 0 90 35 7f
        E 0 90 36 7f
        E 0 90 37 7f
        E 120 80 30 00
        E 0 80 31 00
        E 0 80 32 00
        E 0 80 33 00
        E 0 80 34 00
        E 0 80 35 00
        E 0 80 36 00
        E 0 80 37 00
        E 0 90 30 7f
        E 0 90 31 7f
        E 0 90 32 7f
        E 0 90 33 7f
        E 0 90 34 7f
        E 0 90 35 7f
        E 0 90 36 7f
        E 0 90 37 7f
        E 120 80 30 00
        E 0 80 31 00
        E 0 80 32 00
        E 0 80 33 00
        E 0 80 34 00
        E 0 80 35 00
        E 0 80 36 00
        E 0 80 37 00
        E 240 90 30 7f
        E 0 90 31 7f
        E 0 90 32 7f
        E 0 90 33 7f
        E 0 90 34 7f
        E 0 90 35 7f
        E 0 90 36 7f
        E 0 90 37 7f
        E 120 80 30 00
        E 0 80 31 00
        E 0 80 32 00
        E 0 80 33 00
        E 0 80 34 00
        E 0 80 35 00
        E 0 80 36 00
        E 0 80 37 00
        E 0 90 30 7f
        E 0 90 31 7f
        E 0 90 32 7f
        E 0 90 33 7f
        E 0 90 34 7f
        E 0 90 35 7f
        E 0 90 36 7f
        E 0 90 37 7f
        E 120 80 30 00
        E 0 80 31 00
        E 0 80 32 00
        E 0 80 33 00
        E 0 80 34 00
        E 0 80 35 00
        E 0 80 36 00
        E 0 80 37 00
        E 240 90 30 7f
        E 0 90 31 7f
        E 0 90 32 7f
        E 0 90 33 7f
        E 0 90 34 7f
        E 0 90 35 7f
        E 0 90 36 7f
        E 0 90 37 7f
        E 120 80 30 00
        E 0 80 31 00
        E 0 80 32 00
        E 0 80 33 00
        E 0 80 34 00
        E 0 80 35 00
        E 0 80 36 00
        E 0 80 37 00
        E 0 90 30 7f
        E 0 90 31 7f
        E 0 90 32 7f
        E 0 90 33 7f
        E 0 90 34 7f
        E 0 90 35 7f
        E 0 90 36 7f
        E 0 90 37 7f
        E 120 80 30 00
        E 0 80 31 00
        E 0 80 32 00
        E 0 80 33 00
        E 0 80 34 00
        E 0 80 35 00
        E 0 80 36 00
        E 0 80 37 00
        E 240 90 30 7f
        E 0 90 31 7f
        E 0 90 32 7f
        E 0 90 33 7f
        E 0 90 34 7f
        E 0 90 35 7f
        E 0 90 36 7f
        E 0 90 37 7f
        E 120 80 30 00
        E 0 80 31 00
        E 0 80 32 00
        E 0 80 33 00
        E 0 80 34 00
        E 0 80 35 00
        E 0 80 36 00
        E 0 80 37 00
        E 0 90 30 7f
        E 0 90 31 7f
        E 0 90 32 7f
        E 0 90 33 7f
        E 0 90 34 7f
        E 0 90 35 7f
        E 0 90 36 7f
        E 0 90 37 7f
        E 120 80 30 00
        E 0 80 31 00
        E 0 80 32 00
        E 0 80 33 00
        E 0 80 34 00
        E 0 80 35 00
        E 0 80 36 00
        E 0 80 37 00
        E 240 90 30 7f
        E 0 90 31 7f
        E 0 90 32 7f
        E 0 90 33 7f
        E 0 90 34 7f
        E 0 90 35 7f
        E 0 90 36 7f
        E 0 90 37 7f
        E 120 80 30 00
        E 0 80 31 00
        E 0 80 32 00
        E 0 80 33 00
        E 0 80 34 00
        E 0 80 35 00
        E 0 80 36 00
        E 0 80 37 00
        E 0 90 30 7f
        E 0 90 31 7f
        E 0 90 32 7f
        E 0 90 33 7f
        E 0 90 34 7f
        E 0 90 35 7f
        E 0 90 36 7f
        E 0 90 37 7f
        E 120 80 30 00
        E 0 80 31 00
        E 0 80 32 00
        E 0 80 33 00
        E 0 80 34 00
        E 0 80 35 00
        E 0 80 36 00
        E 0 80 37 00
        E 240 90 30 7f
        E 0 90 31 7f
        E 0 90 32 7f
        E 0 90 33 7f
        E 0 90 34 7f
        E 0 90 35 7f
        E 0 90 36 7f
        E 0 90 37 7f
        E 120 80 30 00
        E 0 80 31 00
        E 0 80 32 00
        E 0 80 33 00
        E 0 80 34 00
        E 0 80 35 00
        E 0 80 36 00
        E 0 80 37 00
        E 0 90 30 7f
        E 0 90 31 7f
        E 0 90 32 7f
        E 0 90 33 7f
        E 0 90 34 7f
        E 0 90 35 7f
        E 0 90 36 7f
        E 0 90 37 7f
        E 120 80 30 00
        E 0 80 31 00
        E 0 80 32 00
        E 0 80 33 00
        E 0 80 34 00
        E 0 80 35 00
        E 0 80 36 00
        E 0 80 37 00
        E 240 90 30 7f
        E 0 90 31 7f
        E 0 90 32 7f
        E 0 90 33 7f
        E 0 90 34 7f
        E 0 90 35 7f
        E 0 90 36 7f
        E 0 90 37 7f
        E 120 80 30 00
        E 0 80 31 00
        E 0 80 32 00
        E 0 80 33 00
        E 0 80 34 00
        E 0 80 35 00
        E 0 80 36 00
        E 0 80 37 00
        E 0 90 30 7f
        E 0 90 31 7f
        E 0 90 32 7f
        E 0 90 33 7f
        E 0 90 34 7f
        E 0 90 35 7f
        E 0 90 36 7f
        E 0 90 37 7f
        E 120 80 30 00
        E 0 80 31 00
        E 0 80 32 00
        E 0 80 33 00
        E 0 80 34 00
        E 0 80 35 00
        E 0 80 36 00
        E 0 80 37 00
        E 240 90 30 7f
        E 0 90 31 7f
        E 0 90 32 7f
        E 0 90 33 7f
        E 0 90 34 7f
        E 0 90 35 7f
        E 0 90 36 7f
        E 0 90 37 7f
        E 120 80 30 00
        E 0 80 31 00
        E 0 80 32 00
        E 0 80 33 00
        E 0 80 34 00
        E 0 80 35 00
        E 0 80 36 00
        E 0 80 37 00
        E 0 90 30 7f
        E 0 90 31 7f
        E 0 90 32 7f
        E 0 90 33 7f
        E 0 90 34 7f
        E 0 90 35 7f
        E 0 90 36 7f
        E 0 90 37 7f
        E 120 80 30 00
        E 0 80 31 00
        E 0 80 32 00
        E 0 80 33 00
        E 0 80 34 00
        E 0 80 35 00
        E 0 80 36 00
        E 0 80 37 00
        E 240 90 30 7f
        E 0 90 31 7f
        E 0 90 32 7f
        E 0 90 33 7f
        E 0 90 34 7f
        E 0 90 35 7f
        E 0 90 36 7f
        E 0 90 37 7f
        E 120 80 30 00
        E 0 80 31 00
        E 0 80 32 00
        E 0 80 33 00
        E 0 80 34 00
        E 0 80 35 00
        E 0 80 36 00
        E 0 80 37 00
        E 0 90 30 7f
        E 0 90 31 7f
        E 0 90 32 7f
        E 0 90 33 7f
        E 0 90 34 7f
        E 0 90 35 7f
        E 0 90 36 7f
        E 0 90 37 7f
        E 120 80 30 00
        E 0 80 31 00
        E 0 80 32 00
        E 0 80 33 00
        E 0 80 34 00
        E 0 80 35 00
        E 0 80 36 00
        E 0 80 37 00
        E 240 90 30 7f
        E 0 90 31 7f
        E 0 90 32 7f
        E 0 90 33 7f
        E 0 90 34 7f
        E 0 90 35 7f
        E 0 90 36 7f
        E 0 90 37 7f
        E 120 80 30 00
        E 0 80 31 00
        E 0 80 32 00
        E 0 80 33 00
        E 0 80 34 00
        E 0 80 35 00
        E 0 80 36 00
        E 0 80 37 00
        E 0 90 30 7f
        E 0 90 31 7f
        E 0 90 32 7f
        E 0 90 33 7f
        E 0 90 34 7f
        E 0 90 35 7f
        E 0 90 36 7f
        E 0 90 37 7f
        E 120 80 30 00
        E 0 80 31 00
        E 0 80 32 00
        E 0 80 33 00
        E 0 80 34 00
        E 0 80 35 00
        E 0 80 36 00
        E 0 80 37 00
        E 240 90 30 7f
        E 0 90 31 7f
        E 0 90 32 7f
        E 0 90 33 7f
        E 0 90 34 7f
        E 0 90 35 7f
        E 0 90 36 7f
        E 0 90 37 7f
        E 120 80 30 00
        E 0 80 31 00
        E 0 80 32 00
        E 0 80 33 00
        E 0 80 34 00
        E 0 80 35 00
        E 0 80 36 00
        E 0 80 37 00
        E 0 90 30 7f
        E 0 90 31 7f
        E 0 90 32 7f
        E 0 90 33 7f
        E 0 90 34 7f
        E 0 90 35 7f
        E 0 90 36 7f
        E 0 90 37 7f
        E 120 80 30 00
        E 0 80 31 00
        E 0 80 32 00
        E 0 80 33 00
        E 0 80 34 00
        E 0 80 35 00
        E 0 80 36 00
        E 0 80 37 00
        E 240 90 30 7f
        E 0 90 31 7f
        E 0 90 32 7f
        E 0 90 33 7f
        E 0 90 34 7f
        E 0 90 35 7f
        E 0 90 36 7f
        E 0 90 37 7f
        E 120 80 30 00
        E 0 80 31 00
        E 0 80 32 00
        E 0 80 33 00
        E 0 80 34 00
        E 0 80 35 00
        E 0 80 36 00
        E 0 80 37 00
        E 0 90 30 7f
        E 0 90 31 7f
        E 0 90 32 7f
        E 0 90 33 7f
        E 0 90 34 7f
        E 0 90 35 7f
        E 0 90 36 7f
        E 0 90 37 7f
        E 120 80 30 00
        E 0 80 31 00
        E 0 80 32 00
        E 0 80 33 00
        E 0 80 34 00
        E 0 80 35 00
        E 0 80 36 00
        E 0 80 37 00
        E 240 90 30 7f
        E 0 90 31 7f
        E 0 90 32 7f
        E 0 90 33 7f
        E 0 90 34 7f
        E 0 90 35 7f
        E 0 90 36 7f
        E 0 90 37 7f
        E 120 80 30 00
        E 0 80 31 00
        E 0 80 32 00
        E 0 80 33 00
        E 0 80 34 00
        E 0 80 35 00
        E 0 80 36 00
        E 0 80 37 00
        E 0 90 30 7f
        E 0 90 31 7f
        E 0 90 32 7f
        E 0 90 33 7f
        E 0 90 34 7f
        E 0 90 35 7f
        E 0 90 36 7f
        E 0 90 37 7f
        E 120 80 30 00
        E 0 80 31 00
        E 0 80 32 00
        E 0 80 33 00
        E 0 80 34 00
        E 0 80 35 00
        E 0 80 36 00
        E 0 80 37 00
        E 240 90 30 7f
        E 0 90 31 7f
        E 0 90 32 7f
        E 0 90 33 7f
        E 0 90 34 7f
        E 0 90 35 7f
        E 0 90 36 7f
        E 0 90 37 7f
        E 120 80 30 00
        E 0 80 31 00
        E 0 80 32 00
        E 0 80 33 00
        E 0 80 34 00
        E 0 80 35 00
        E 0 80 36 00
        E 0 80 37 00
        E 0 90 30 7f
        E 0 90 31 7f
        E 0 90 32 7f
        E 0 90 33 7f
        E 0 90 34 7f
        E 0 90 35 7f
        E 0 90 36 7f
        E 0 90 37 7f
        E 120 80 30 00
        E 0 80 31 00
        E 0 80 32 00
        E 0 80 33 00
        E 0 80 34 00
        E 0 80 35 00
        E 0 80 36 00
        E 0 80 37 00
        E 240 90 30 7f
        E 0 90 31 7f
        E 0 90 32 7f
        E 0 90 33 7f
        E 0 90 34 7f
        E 0 90 35 7f
        E 0 90 36 7f
        E 0 90 37 7f
        E 120 80 30 00
        E 0 80 31 00
        E 0 80 32 00
        E 0 80 33 00
        E 0 80 34 00
        E 0 80 35 00
        E 0 80 36 00
        E 0 80 37 00
        E 0 90 30 7f
        E 0 90 31 7f
        E 0 90 32 7f
        E 0 90 33 7f
        E 0 90 34 7f
        E 0 90 35 7f
        E 0 90 36 7f
        E 0 90 37 7f
        E 120 80 30 00
        E 0 80 31 00
        E 0 80 32 00
        E 0 80 33 00
        E 0 80 34 00
        E 0 80 35 00
        E 0 80 36 00
        E 0 80 37 00
        E 240 90 30 7f
        E 0 90 31 7f
        E 0 90 32 7f
        E 0 90 33 7f
        E 0 90 34 7f
        E 0 90 35 7f
        E 0 90 36 7f
        E 0 90 37 7f
        E 120 80 30 00
        E 0 80 31 00
        E 0 80 32 00
        E 0 80 33 00
        E 0 80 34 00
        E 0 80 35 00
        E 0 80 36 00
        E 0 80 37 00
        E 0 90 30 7f
        E 0 90 31 7f
        E 0 90 32 7f
        E 0 90 33 7f
        E 0 90 34 7f
        E 0 90 35 7f
        E 0 90 36 7f
        E 0 90 37 7f
        E 120 80 30 00
        E 0 80 31 00
        E 0 80 32 00
        E 0 80 33 00
        E 0 80 34 00
        E 0 80 35 00
        E 0 80 36 00
        E 0 80 37 00
        E 240 90 30 7f
        E 0 90 31 7f
        E 0 90 32 7f
        E 0 90 33 7f
        E 0 90 34 7f
        E 0 90 35 7f
        E 0 90 36 7f
        E 0 90 37 7f
        E 120 80 30 00
        E 0 80 31 00
        E 0 80 32 00
        E 0 80 33 00
        E 0 80 34 00
        E 0 80 35 00
        E 0 80 36 00
        E 0 80 37 00
        E 0 90 30 7f
        E 0 90 31 7f
        E 0 90 32 7f
        E 0 90 33 7f
        E 0 90 34 7f
        E 0 90 35 7f
        E 0 90 36 7f
        E 0 90 37 7f
        E 120 80 30 00
        E 0 80 31 00
        E 0 80 32 00
        E 0 80 33 00
        E 0 80 34 00
        E 0 80 35 00
        E 0 80 36 00
        E 0 80 37 00
        E 240 90 30 7f
        E 0 90 31 7f
        E 0 90 32 7f
        E 0 90 33 7f
        E 0 90 34 7f
        E 0 90 35 7f
        E 0 90 36 7f
        E 0 90 37 7f
        E 120 80 30 00
        E 0 80 31 00
        E 0 80 32 00
        E 0 80 33 00
        E 0 80 34 00
        E 0 80 35 00
        E 0 80 36 00
        E 0 80 37 00
        E 0 90 30 7f
        E 0 90 31 7f
        E 0 90 32 7f
        E 0 90 33 7f
        E 0 90 34 7f
        E 0 90 35 7f
        E 0 90 36 7f
        E 0 90 37 7f
        E 120 80 30 00
        E 0 80 31 00
        E 0 80 32 00
        E 0 80 33 00
        E 0 80 34 00
        E 0 80 35 00
        E 0 80 36 00
        E 0 80 37 00
        E 240 90 52 72
        E 120 80 52 00
        E 0 90 51 72
        E 120 80 51 00
        E 0 90 4f 70
        E 120 80 4f 00
        E 0 90 50 72
        E 120 80 50 00
        E 0 90 4e 72
        E 120 80 4e 00
        E 0 90 4d 72
        E 120 80 4d 00
        E 0 90 4c 72
        E 120 80 4c 00
        E 0 90 4b 72
        E 120 80 4b 00
        E 0 90 49 72
        E 120 80 49 00
        E 0 90 4a 72
        E 120 80 4a 00
        E 0 90 48 72
        E 120 80 48 00
        E 0 90 47 72
        E 120 80 47 00
        E 0 90 44 72
        E 120 80 44 00
        E 0 90 45 72
        E 120 80 45 00
        E 0 90 41 72
        E 120 80 41 00
        E 0 90 42 72
        E 120 80 42 00
        E 0 90 43 72
        E 120 80 43 00
        E 120 90 40 72
        E 120 80 40 00
        E 0 90 3f 72
        E 120 80 3f 00
        E 0 90 3e 72
        E 120 80 3e 00
        E 0 90 3c 72
        E 120 80 3c 00
        E 0 90 3d 72
        E 120 80 3d 00
        E 0 90 3b 72
        E 120 80 3b 00
        E 0 90 39 72
        E 120 80 39 00
        E 0 90 3a 72
        E 120 80 3a 00
        E 0 90 52 72
        E 120 80 52 00
        E 0 90 51 72
        E 120 80 51 00
        E 0 90 4f 70
        E 120 80 4f 00
        E 0 90 50 72
        E 120 80 50 00
        E 0 90 4e 72
        E 120 80 4e 00
        E 0 90 4d 72
        E 120 80 4d 00
        E 0 90 4c 72
        E 120 80 4c 00
        E 0 90 4b 72
        E 120 80 4b 00
        E 0 90 49 72
        E 120 80 49 00
        E 0 90 4a 72
        E 120 80 4a 00
        E 0 90 48 72
        E 120 80 48 00
        E 0 90 47 72
        E 120 80 47 00
        E 0 90 44 72
        E 120 80 44 00
        E 0 90 45 72
        E 120 80 45 00
        E 0 90 41 72
        E 120 80 41 00
        E 0 90 42 72
        E 120 80 42 00
        E 0 90 43 72
        E 120 80 43 00
        E 120 90 40 72
        E 120 80 40 00
        E 0 90 3f 72
        E 120 80 3f 00
        E 0 90 3e 72
        E 120 80 3e 00
        E 0 90 3c 72
        E 120 80 3c 00
        E 0 90 3d 72
        E 120 80 3d 00
        E 0 90 3b 72
        E 120 80 3b 00
        E 0 90 39 72
        E 120 80 39 00
        E 0 90 3a 72
        E 120 80 3a 00
        E 120 90 52 72
        E 120 80 52 00
        E 0 90 51 72
        E 120 80 51 00
        E 0 90 4f 70
        E 120 80 4f 00
        E 0 90 50 72
        E 120 80 50 00
        E 0 90 4e 72
        E 120 80 4e 00
        E 0 90 4d 72
        E 120 80 4d 00
        E 0 90 4c 72
        E 120 80 4c 00
        E 0 90 4b 72
        E 120 80 4b 00
        E 0 90 49 72
        E 120 80 49 00
        E 0 90 4a 72
        E 120 80 4a 00
        E 0 90 48 72
        E 120 80 48 00
        E 0 90 47 72
        E 120 80 47 00
        E 0 90 44 72
        E 120 80 44 00
        E 0 90 45 72
        E 120 80 45 00
        E 0 90 41 72
        E 120 80 41 00
        E 0 90 42 72
        E 120 80 42 00
        E 0 90 43 72
        E 120 80 43 00
        E 120 90 40 72
        E 120 80 40 00
        E 0 90 3f 72
        E 120 80 3f 00
        E 0 90 3e 72
        E 120 80 3e 00
        E 0 90 3c 72
        E 120 80 3c 00
        E 0 90 3d 72
        E 120 80 3d 00
        E 0 90 3b 72
        E 120 80 3b 00
        E 0 90 39 72
        E 120 80 39 00
        E 0 90 3a 72
        E 120 80 3a 00
        E 120 90 52 72
        E 120 80 52 00
        E 0 90 51 72
        E 120 80 51 00
        E 0 90 4f 70
        E 120 80 4f 00
        E 0 90 50 72
        E 120 80 50 00
        E 0 90 4e 72
        E 120 80 4e 00
        E 0 90 4d 72
        E 120 80 4d 00
        E 0 90 4c 72
        E 120 80 4c 00
        E 0 90 4b 72
        E 120 80 4b 00
        E 0 90 49 72
        E 120 80 49 00
        E 0 90 4a 72
        E 120 80 4a 00
        E 0 90 48 72
        E 120 80 48 00
        E 0 90 47 72
        E 120 80 47 00
        E 0 90 44 72
        E 120 80 44 00
        E 0 90 45 72
        E 120 80 45 00
        E 0 90 41 72
        E 120 80 41 00
        E 0 90 42 72
        E 120 80 42 00
        E 0 90 43 72
        E 120 80 43 00
        E 120 90 40 72
        E 120 80 40 00
        E 0 90 3f 72
        E 120 80 3f 00
        E 0 90 3e 72
        E 120 80 3e 00
        E 0 90 3c 72
        E 120 80 3c 00
        E 0 90 3d 72
        E 120 80 3d 00
        E 0 90 3b 72
        E 120 80 3b 00
        E 0 90 39 72
        E 120 80 39 00
        E 0 90 3a 72
        E 120 80 3a 00
        E 240 90 52 72
        E 120 80 52 00
        E 0 90 51 72
        E 120 80 51 00
        E 0 90 4f 70
        E 120 80 4f 00
        E 0 90 50 72
        E 120 80 50 00
        E 0 90 4e 72
        E 120 80 4e 00
        E 0 90 4d 72
        E 120 80 4d 00
        E 0 90 4c 72
        E 120 80 4c 00
        E 0 90 4b 72
        E 120 80 4b 00
        E 0 90 49 72
        E 120 80 49 00
        E 0 90 4a 72
        E 120 80 4a 00
        E 0 90 48 72
        E 120 80 48 00
        E 0 90 47 72
        E 120 80 47 00
        E 0 90 44 72
        E 120 80 44 00
        E 0 90 45 72
        E 120 80 45 00
        E 0 90 41 72
        E 120 80 41 00
        E 0 90 42 72
        E 120 80 42 00
        E 0 90 43 72
        E 120 80 43 00
        E 120 90 40 72
        E 120 80 40 00
        E 0 90 3f 72
        E 120 80 3f 00
        E 0 90 3e 72
        E 120 80 3e 00
        E 0 90 3c 72
        E 120 80 3c 00
        E 0 90 3d 72
        E 120 80 3d 00
        E 0 90 3b 72
        E 120 80 3b 00
        E 0 90 39 72
        E 120 80 39 00
        E 0 90 3a 72
        E 120 80 3a 00
        E 0 90 52 72
        E 120 80 52 00
        E 0 90 51 72
        E 120 80 51 00
        E 0 90 4f 70
        E 120 80 4f 00
        E 0 90 50 72
        E 120 80 50 00
        E 0 90 4e 72
        E 120 80 4e 00
        E 0 90 4d 72
        E 120 80 4d 00
        E 0 90 4c 72
        E 120 80 4c 00
        E 0 90 4b 72
        E 120 80 4b 00
        E 0 90 49 72
        E 120 80 49 00
        E 0 90 4a 72
        E 120 80 4a 00
        E 0 90 48 72
        E 120 80 48 00
        E 0 90 47 72
        E 120 80 47 00
        E 0 90 44 72
        E 120 80 44 00
        E 0 90 45 72
        E 120 80 45 00
        E 0 90 41 72
        E 120 80 41 00
        E 0 90 42 72
        E 120 80 42 00
        E 0 90 43 72
        E 120 80 43 00
        E 120 90 40 72
        E 120 80 40 00
        E 0 90 3f 72
        E 120 80 3f 00
        E 0 90 3e 72
        E 120 80 3e 00
        E 0 90 3c 72
        E 120 80 3c 00
        E 0 90 3d 72
        E 120 80 3d 00
        E 0 90 3b 72
        E 120 80 3b 00
        E 0 90 39 72
        E 120 80 39 00
        E 0 90 3a 72
        E 120 80 3a 00
        E 120 90 52 72
        E 120 80 52 00
        E 0 90 51 72
        E 120 80 51 00
        E 0 90 4f 70
        E 120 80 4f 00
        E 0 90 50 72
        E 120 80 50 00
        E 0 90 4e 72
        E 120 80 4e 00
        E 0 90 4d 72
        E 120 80 4d 00
        E 0 90 4c 72
        E 120 80 4c 00
        E 0 90 4b 72
        E 120 80 4b 00
        E 0 90 49 72
        E 120 80 49 00
        E 0 90 4a 72
        E 120 80 4a 00
        E 0 90 48 72
        E 120 80 48 00
        E 0 90 47 72
        E 120 80 47 00
        E 0 90 44 72
        E 120 80 44 00
        E 0 90 45 72
        E 120 80 45 00
        E 0 90 41 72
        E 120 80 41 00
        E 0 90 42 72
        E 120 80 42 00
        E 0 90 43 72
        E 120 80 43 00
        E 120 90 40 72
        E 120 80 40 00
        E 0 90 3f 72
        E 120 80 3f 00
        E 0 90 3e 72
        E 120 80 3e 00
        E 0 90 3c 72
        E 120 80 3c 00
        E 0 90 3d 72
        E 120 80 3d 00
        E 0 90 3b 72
        E 120 80 3b 00
        E 0 90 39 72
        E 120 80 39 00
        E 0 90 3a 72
        E 120 80 3a 00
        E 120 90 52 72
        E 120 80 52 00
        E 0 90 51 72
        E 120 80 51 00
        E 0 90 4f 70
        E 120 80 4f 00
        E 0 90 50 72
        E 120 80 50 00
        E 0 90 4e 72
        E 120 80 4e 00
        E 0 90 4d 72
        E 120 80 4d 00
        E 0 90 4c 72
        E 120 80 4c 00
        E 0 90 4b 72
        E 120 80 4b 00
        E 0 90 49 72
        E 120 80 49 00
        E 0 90 4a 72
        E 120 80 4a 00
        E 0 90 48 72
        E 120 80 48 00
        E 0 90 47 72
        E 120 80 47 00
        E 0 90 44 72
        E 120 80 44 00
        E 0 90 45 72
        E 120 80 45 00
        E 0 90 41 72
        E 120 80 41 00
        E 0 90 42 72
        E 120 80 42 00
        E 0 90 43 72
        E 120 80 43 00
        E 120 90 40 72
        E 120 80 40 00
        E 0 90 3f 72
        E 120 80 3f 00
        E 0 90 3e 72
        E 120 80 3e 00
        E 0 90 3c 72
        E 120 80 3c 00
        E 0 90 3d 72
        E 120 80 3d 00
        E 0 90 3b 72
        E 120 80 3b 00
        E 0 90 39 72
        E 120 80 39 00
        E 0 90 3a 72
        E 120 80 3a 00
        E 1200 90 52 72
        E 0 90 51 72
        E 0 90 50 72
        E 0 90 4f 72
        E 0 90 4e 72
        E 0 90 30 72
        E 120 80 30 00
        E 0 90 32 72
        E 120 80 52 00
        E 0 80 51 00
        E 0 80 50 00
        E 0 80 4f 00
        E 0 80 4e 00
        E 0 80 32 00
        E 0 90 52 72
        E 0 90 51 72
        E 0 90 50 72
        E 0 90 4f 72
        E 0 90 4e 72
        E 0 90 31 72
        E 120 80 31 00
        E 0 90 33 72
        E 120 80 52 00
        E 0 80 51 00
        E 0 80 50 00
        E 0 80 4f 00
        E 0 80 4e 00
        E 0 80 33 00
        E 0 90 52 72
        E 0 90 51 72
        E 0 90 50 72
        E 0 90 4f 72
        E 0 90 4e 72
        E 0 90 34 72
        E 120 80 34 00
        E 0 90 35 72
        E 120 80 52 00
        E 0 80 51 00
        E 0 80 50 00
        E 0 80 4f 00
        E 0 80 4e 00
        E 0 80 35 00
        E 0 90 52 72
        E 0 90 51 72
        E 0 90 50 72
        E 0 90 4f 72
        E 0 90 4e 72
        E 0 90 37 72
        E 120 80 37 00
        E 0 90 36 72
        E 120 80 52 00
        E 0 80 51 00
        E 0 80 50 00
        E 0 80 4f 00
        E 0 80 4e 00
        E 0 80 36 00
        E 0 90 52 72
        E 0 90 51 72
        E 0 90 50 72
        E 0 90 4f 72
        E 0 90 4e 72
        E 0 90 38 72
        E 120 80 38 00
        E 0 90 39 72
        E 120 80 52 00
        E 0 80 51 00
        E 0 80 50 00
        E 0 80 4f 00
        E 0 80 4e 00
        E 0 80 39 00
        E 0 90 52 72
        E 0 90 51 72
        E 0 90 50 72
        E 0 90 4f 72
        E 0 90 4e 72
        E 0 90 3a 72
        E 120 80 3a 00
        E 0 90 3c 72
        E 120 80 52 00
        E 0 80 51 00
        E 0 80 50 00
        E 0 80 4f 00
        E 0 80 4e 00
        E 0 80 3c 00
        E 0 90 3b 72
        E 0 90 52 72
        E 0 90 51 72
        E 0 90 50 72
        E 0 90 4f 72
        E 0 90 4e 72
        E 120 80 3b 00
        E 0 90 3d 72
        E 120 80 52 00
        E 0 80 51 00
        E 0 80 50 00
        E 0 80 4f 00
        E 0 80 4e 00
        E 0 80 3d 00
        E 0 90 52 72
        E 0 90 51 72
        E 0 90 50 72
        E 0 90 4f 72
        E 0 90 4e 72
        E 0 90 3e 72
        E 120 80 3e 00
        E 0 90 3f 72
        E 120 80 52 00
        E 0 80 51 00
        E 0 80 50 00
        E 0 80 4f 00
        E 0 80 4e 00
        E 0 80 3f 00
        E 0 90 52 72
        E 0 90 51 72
        E 0 90 50 72
        E 0 90 4f 72
        E 0 90 4e 72
        E 0 90 41 72
        E 120 80 41 00
        E 0 90 40 72
        E 120 80 52 00
        E 0 80 51 00
        E 0 80 50 00
        E 0 80 4f 00
        E 0 80 4e 00
        E 0 80 40 00
        E 0 90 52 72
        E 0 90 51 72
        E 0 90 50 72
        E 0 90 4f 72
        E 0 90 4e 72
        E 0 90 42 72
        E 120 80 42 00
        E 0 90 43 72
        E 120 80 52 00
        E 0 80 51 00
        E 0 80 50 00
        E 0 80 4f 00
        E 0 80 4e 00
        E 0 80 43 00
        E 0 90 52 72
        E 0 90 51 72
        E 0 90 50 72
        E 0 90 4f 72
        E 0 90 4e 72
        E 0 90 44 72
        E 120 80 44 00
        E 0 90 46 72
        E 120 80 52 00
        E 0 80 51 00
        E 0 80 50 00
        E 0 80 4f 00
        E 0 80 4e 00
        E 0 80 46 00
        E 0 90 52 72
        E 0 90 51 72
        E 0 90 50 72
        E 0 90 4f 72
        E 0 90 4e 72
        E 0 90 45 72
        E 120 80 45 00
        E 0 90 47 72
        E 120 80 52 00
        E 0 80 51 00
        E 0 80 50 00
        E 0 80 4f 00
        E 0 80 4e 00
        E 0 80 47 00
        E 0 90 52 72
        E 0 90 51 72
        E 0 90 50 72
        E 0 90 4f 72
        E 0 90 4e 72
        E 0 90 48 72
        E 120 80 48 00
        E 0 90 49 72
        E 120 80 52 00
        E 0 80 51 00
        E 0 80 50 00
        E 0 80 4f 00
        E 0 80 4e 00
        E 0 80 49 00
        E 0 90 52 72
        E 0 90 51 72
        E 0 90 50 72
        E 0 90 4f 72
        E 0 90 4e 72
        E 0 90 4b 72
        E 120 80 4b 00
        E 0 90 4a 72
        E 120 80 52 00
        E 0 80 51 00
        E 0 80 50 00
        E 0 80 4f 00
        E 0 80 4e 00
        E 0 80 4a 00
        E 0 90 52 72
        E 0 90 51 72
        E 0 90 50 72
        E 0 90 4f 72
        E 0 90 4e 72
        E 0 90 4c 72
        E 120 80 4c 00
        E 0 90 4d 72
        E 120 80 52 00
        E 0 80 51 00
        E 0 80 50 00
        E 0 80 4f 00
        E 0 80 4e 00
        E 0 80 4d 00
        E 0 90 52 72
        E 0 90 51 72
        E 0 90 50 72
        E 0 90 4f 72
        E 0 90 4e 72
        E 0 90 4d 72
        E 120 80 4d 00
        E 0 90 4d 72
        E 120 80 52 00
        E 0 80 51 00
        E 0 80 50 00
        E 0 80 4f 00
        E 0 80 4e 00
        E 0 80 4d 00
        E 0 90 52 72
        E 0 90 51 72
        E 0 90 50 72
        E 0 90 4f 72
        E 0 90 4e 72
        E 0 90 4d 72
        E 240 80 52 00
        E 0 80 51 00
        E 0 80 50 00
        E 0 80 4f 00
        E 0 80 4e 00
        E 0 80 4d 00
        E 240 90 52 72
        E 0 90 51 72
        E 0 90 50 72
        E 0 90 4f 72
        E 0 90 4e 72
        E 0 90 4d 72
        E 0 90 4c 72
        E 0 90 4b 72
        E 0 90 4a 72
        E 0 90 49 72
        E 0 90 48 72
        E 0 90 47 72
        E 0 90 46 72
        E 0 90 45 72
        E 0 90 44 72
        E 0 90 43 72
        E 0 90 42 72
        E 0 90 41 72
        E 0 90 40 72
        E 0 90 3f 72
        E 0 90 3e 72
        E 0 90 3d 72
        E 0 90 3c 72
        E 0 90 3b 72
        E 0 90 3a 72
        E 0 90 39 72
        E 0 90 38 72
        E 0 90 37 72
        E 0 90 36 72
        E 0 90 35 72
        E 0 90 34 72
        E 0 90 33 72
        E 0 90 32 72
        E 0 90 31 72
        E 0 90 30 72
        E 240 80 52 00
        E 0 80 51 00
        E 0 80 50 00
        E 0 80 4f 00
        E 0 80 4e 00
        E 0 80 4d 00
        E 0 80 4c 00
        E 0 80 4b 00
        E 0 80 4a 00
        E 0 80 49 00
        E 0 80 48 00
        E 0 80 47 00
        E 0 80 46 00
        E 0 80 45 00
        E 0 80 44 00
        E 0 80 43 00
        E 0 80 42 00
        E 0 80 41 00
        E 0 80 40 00
        E 0 80 3f 00
        E 0 80 3e 00
        E 0 80 3d 00
        E 0 80 3c 00
        E 0 80 3b 00
        E 0 80 3a 00
        E 0 80 39 00
        E 0 80 38 00
        E 0 80 37 00
        E 0 80 36 00
        E 0 80 35 00
        E 0 80 34 00
        E 0 80 33 00
        E 0 80 32 00
        E 0 80 31 00
        E 0 80 30 00
        E 0 90 52 72
        E 0 90 51 72
        E 0 90 50 72
        E 0 90 4f 72
        E 0 90 4e 72
        E 0 90 4d 72
        E 0 90 4c 72
        E 0 90 4b 72
        E 0 90 4a 72
        E 0 90 49 72
        E 0 90 48 72
        E 0 90 47 72
        E 0 90 46 72
        E 0 90 45 72
        E 0 90 44 72
        E 0 90 43 72
        E 0 90 42 72
        E 0 90 41 72
        E 0 90 40 72
        E 0 90 3f 72
        E 0 90 3e 72
        E 0 90 3d 72
        E 0 90 3c 72
        E 0 90 3b 72
        E 0 90 3a 72
        E 0 90 39 72
        E 0 90 38 72
        E 0 90 37 72
        E 0 90 36 72
        E 0 90 35 72
        E 0 90 34 72
        E 0 90 33 72
        E 0 90 32 72
        E 0 90 31 72
        E 0 90 30 72
        E 240 80 52 00
        E 0 80 51 00
        E 0 80 50 00
        E 0 80 4f 00
        E 0 80 4e 00
        E 0 80 4d 00
        E 0 80 4c 00
        E 0 80 4b 00
        E 0 80 4a 00
        E 0 80 49 00
        E 0 80 48 00
        E 0 80 47 00
        E 0 80 46 00
        E 0 80 45 00
        E 0 80 44 00
        E 0 80 43 00
        E 0 80 42 00
        E 0 80 41 00
        E 0 80 40 00
        E 0 80 3f 00
        E 0 80 3e 00
        E 0 80 3d 00
        E 0 80 3c 00
        E 0 80 3b 00
        E 0 80 3a 00
        E 0 80 39 00
        E 0 80 38 00
        E 0 80 37 00
        E 0 80 36 00
        E 0 80 35 00
        E 0 80 34 00
        E 0 80 33 00
        E 0 80 32 00
        E 0 80 31 00
        E 0 80 30 00
        E 3360 90 51 72
        E 0 90 50 72
        E 0 90 4f 72
        E 0 90 4e 72
        E 0 90 4d 72
        E 0 90 4c 72
        E 0 90 4b 72
        E 0 90 4a 72
        E 0 90 49 72
        E 0 90 48 72
        E 0 90 47 72
        E 0 90 46 72
        E 0 90 45 72
        E 0 90 44 72
        E 0 90 43 72
        E 0 90 42 72
        E 0 90 41 72
        E 0 90 40 72
        E 0 90 3f 72
        E 0 90 3e 72
        E 0 90 3d 72
        E 0 90 3c 72
        E 0 90 3b 72
        E 0 90 3a 72
        E 0 90 39 72
        E 0 90 38 72
        E 0 90 37 72
        E 0 90 36 72
        E 0 90 35 72
        E 0 90 34 72
        E 0 90 33 72
        E 0 90 32 72
        E 0 90 31 72
        E 0 90 30 72
        E 0 90 52 72
        E 240 80 51 00
        E 0 80 50 00
        E 0 80 4f 00
        E 0 80 4e 00
        E 0 80 4d 00
        E 0 80 4c 00
        E 0 80 4b 00
        E 0 80 4a 00
        E 0 80 49 00
        E 0 80 48 00
        E 0 80 47 00
        E 0 80 46 00
        E 0 80 45 00
        E 0 80 44 00
        E 0 80 43 00
        E 0 80 42 00
        E 0 80 41 00
        E 0 80 40 00
        E 0 80 3f 00
        E 0 80 3e 00
        E 0 80 3d 00
        E 0 80 3c 00
        E 0 80 3b 00
        E 0 80 3a 00
        E 0 80 39 00
        E 0 80 38 00
        E 0 80 37 00
        E 0 80 36 00
        E 0 80 35 00
        E 0 80 34 00
        E 0 80 33 00
        E 0 80 32 00
        E 0 80 31 00
        E 0 80 30 00
        E 0 80 52 00
        E 0 90 51 72
        E 0 90 50 72
        E 0 90 4f 72
        E 0 90 4e 72
        E 0 90 4d 72
        E 0 90 4c 72
        E 0 90 4b 72
        E 0 90 4a 72
        E 0 90 49 72
        E 0 90 48 72
        E 0 90 47 72
        E 0 90 46 72
        E 0 90 45 72
        E 0 90 44 72
        E 0 90 43 72
        E 0 90 42 72
        E 0 90 41 72
        E 0 90 40 72
        E 0 90 3f 72
        E 0 90 3e 72
        E 0 90 3d 72
        E 0 90 3c 72
        E 0 90 3b 72
        E 0 90 3a 72
        E 0 90 39 72
        E 0 90 38 72
        E 0 90 37 72
        E 0 90 36 72
        E 0 90 35 72
        E 0 90 34 72
        E 0 90 33 72
        E 0 90 32 72
        E 0 90 31 72
        E 0 90 30 72
        E 0 90 52 72
        E 240 80 51 00
        E 0 80 50 00
        E 0 80 4f 00
        E 0 80 4e 00
        E 0 80 4d 00
        E 0 80 4c 00
        E 0 80 4b 00
        E 0 80 4a 00
        E 0 80 49 00
        E 0 80 48 00
        E 0 80 47 00
        E 0 80 46 00
        E 0 80 45 00
        E 0 80 44 00
        E 0 80 43 00
        E 0 80 42 00
        E 0 80 41 00
        E 0 80 40 00
        E 0 80 3f 00
        E 0 80 3e 00
        E 0 80 3d 00
        E 0 80 3c 00
        E 0 80 3b 00
        E 0 80 3a 00
        E 0 80 39 00
        E 0 80 38 00
        E 0 80 37 00
        E 0 80 36 00
        E 0 80 35 00
        E 0 80 34 00
        E 0 80 33 00
        E 0 80 32 00
        E 0 80 31 00
        E 0 80 30 00
        E 0 80 52 00
        E 3360 90 51 72
        E 0 90 50 72
        E 0 90 4f 72
        E 0 90 4e 72
        E 0 90 4d 72
        E 0 90 4c 72
        E 0 90 4b 72
        E 0 90 4a 72
        E 0 90 49 72
        E 0 90 48 72
        E 0 90 47 72
        E 0 90 46 72
        E 0 90 45 72
        E 0 90 44 72
        E 0 90 43 72
        E 0 90 42 72
        E 0 90 41 72
        E 0 90 40 72
        E 0 90 3f 72
        E 0 90 3e 72
        E 0 90 3d 72
        E 0 90 3c 72
        E 0 90 3b 72
        E 0 90 3a 72
        E 0 90 39 72
        E 0 90 38 72
        E 0 90 37 72
        E 0 90 36 72
        E 0 90 35 72
        E 0 90 34 72
        E 0 90 33 72
        E 0 90 32 72
        E 0 90 31 72
        E 0 90 30 72
        E 0 90 52 72
        E 240 80 51 00
        E 0 80 50 00
        E 0 80 4f 00
        E 0 80 4e 00
        E 0 80 4d 00
        E 0 80 4c 00
        E 0 80 4b 00
        E 0 80 4a 00
        E 0 80 49 00
        E 0 80 48 00
        E 0 80 47 00
        E 0 80 46 00
        E 0 80 45 00
        E 0 80 44 00
        E 0 80 43 00
        E 0 80 42 00
        E 0 80 41 00
        E 0 80 40 00
        E 0 80 3f 00
        E 0 80 3e 00
        E 0 80 3d 00
        E 0 80 3c 00
        E 0 80 3b 00
        E 0 80 3a 00
        E 0 80 39 00
        E 0 80 38 00
        E 0 80 37 00
        E 0 80 36 00
        E 0 80 35 00
        E 0 80 34 00
        E 0 80 33 00
        E 0 80 32 00
        E 0 80 31 00
        E 0 80 30 00
        E 0 80 52 00
        E 0 90 51 72
        E 0 90 50 72
        E 0 90 4f 72
        E 0 90 4e 72
        E 0 90 4d 72
        E 0 90 4c 72
        E 0 90 4b 72
        E 0 90 4a 72
        E 0 90 49 72
        E 0 90 48 72
        E 0 90 47 72
        E 0 90 46 72
        E 0 90 45 72
        E 0 90 44 72
        E 0 90 43 72
        E 0 90 42 72
        E 0 90 41 72
        E 0 90 40 72
        E 0 90 3f 72
        E 0 90 3e 72
        E 0 90 3d 72
        E 0 90 3c 72
        E 0 90 3b 72
        E 0 90 3a 72
        E 0 90 39 72
        E 0 90 38 72
        E 0 90 37 72
        E 0 90 36 72
        E 0 90 35 72
        E 0 90 34 72
        E 0 90 33 72
        E 0 90 32 72
        E 0 90 31 72
        E 0 90 30 72
        E 0 90 52 72
        E 240 80 51 00
        E 0 80 50 00
        E 0 80 4f 00
        E 0 80 4e 00
        E 0 80 4d 00
        E 0 80 4c 00
        E 0 80 4b 00
        E 0 80 4a 00
        E 0 80 49 00
        E 0 80 48 00
        E 0 80 47 00
        E 0 80 46 00
        E 0 80 45 00
        E 0 80 44 00
        E 0 80 43 00
        E 0 80 42 00
        E 0 80 41 00
        E 0 80 40 00
        E 0 80 3f 00
        E 0 80 3e 00
        E 0 80 3d 00
        E 0 80 3c 00
        E 0 80 3b 00
        E 0 80 3a 00
        E 0 80 39 00
        E 0 80 38 00
        E 0 80 37 00
        E 0 80 36 00
        E 0 80 35 00
        E 0 80 34 00
        E 0 80 33 00
        E 0 80 32 00
        E 0 80 31 00
        E 0 80 30 00
        E 0 80 52 00
        E 3360 90 51 72
        E 0 90 50 72
        E 0 90 4f 72
        E 0 90 4e 72
        E 0 90 4d 72
        E 0 90 4c 72
        E 0 90 4b 72
        E 0 90 4a 72
        E 0 90 49 72
        E 0 90 48 72
        E 0 90 47 72
        E 0 90 46 72
        E 0 90 45 72
        E 0 90 44 72
        E 0 90 43 72
        E 0 90 42 72
        E 0 90 41 72
        E 0 90 40 72
        E 0 90 3f 72
        E 0 90 3e 72
        E 0 90 3d 72
        E 0 90 3c 72
        E 0 90 3b 72
        E 0 90 3a 72
        E 0 90 39 72
        E 0 90 38 72
        E 0 90 37 72
        E 0 90 36 72
        E 0 90 35 72
        E 0 90 34 72
        E 0 90 33 72
        E 0 90 32 72
        E 0 90 31 72
        E 0 90 30 72
        E 0 90 52 72
        E 240 80 51 00
        E 0 80 50 00
        E 0 80 4f 00
        E 0 80 4e 00
        E 0 80 4d 00
        E 0 80 4c 00
        E 0 80 4b 00
        E 0 80 4a 00
        E 0 80 49 00
        E 0 80 48 00
        E 0 80 47 00
        E 0 80 46 00
        E 0 80 45 00
        E 0 80 44 00
        E 0 80 43 00
        E 0 80 42 00
        E 0 80 41 00
        E 0 80 40 00
        E 0 80 3f 00
        E 0 80 3e 00
        E 0 80 3d 00
        E 0 80 3c 00
        E 0 80 3b 00
        E 0 80 3a 00
        E 0 80 39 00
        E 0 80 38 00
        E 0 80 37 00
        E 0 80 36 00
        E 0 80 35 00
        E 0 80 34 00
        E 0 80 33 00
        E 0 80 32 00
        E 0 80 31 00
        E 0 80 30 00
        E 0 80 52 00
        E 0 90 51 72
        E 0 90 50 72
        E 0 90 4f 72
        E 0 90 4e 72
        E 0 90 4d 72
        E 0 90 4c 72
        E 0 90 4b 72
        E 0 90 4a 72
        E 0 90 49 72
        E 0 90 48 72
        E 0 90 47 72
        E 0 90 46 72
        E 0 90 45 72
        E 0 90 44 72
        E 0 90 43 72
        E 0 90 42 72
        E 0 90 41 72
        E 0 90 40 72
        E 0 90 3f 72
        E 0 90 3e 72
        E 0 90 3d 72
        E 0 90 3c 72
        E 0 90 3b 72
        E 0 90 3a 72
        E 0 90 39 72
        E 0 90 38 72
        E 0 90 37 72
        E 0 90 36 72
        E 0 90 35 72
        E 0 90 34 72
        E 0 90 33 72
        E 0 90 32 72
        E 0 90 31 72
        E 0 90 30 72
        E 0 90 52 72
        E 240 80 51 00
        E 0 80 50 00
        E 0 80 4f 00
        E 0 80 4e 00
        E 0 80 4d 00
        E 0 80 4c 00
        E 0 80 4b 00
        E 0 80 4a 00
        E 0 80 49 00
        E 0 80 48 00
        E 0 80 47 00
        E 0 80 46 00
        E 0 80 45 00
        E 0 80 44 00
        E 0 80 43 00
        E 0 80 42 00
        E 0 80 41 00
        E 0 80 40 00
        E 0 80 3f 00
        E 0 80 3e 00
        E 0 80 3d 00
        E 0 80 3c 00
        E 0 80 3b 00
        E 0 80 3a 00
        E 0 80 39 00
        E 0 80 38 00
        E 0 80 37 00
        E 0 80 36 00
        E 0 80 35 00
        E 0 80 34 00
        E 0 80 33 00
        E 0 80 32 00
        E 0 80 31 00
        E 0 80 30 00
        E 0 80 52 00
        E 2880 90 30 72
        E 0 90 38 72
        E 120 80 30 00
        E 0 80 38 00
        E 0 90 39 72
        E 0 90 32 72
        E 120 80 39 00
        E 0 80 32 00
        E 0 90 31 72
        E 0 90 3a 72
        E 120 80 31 00
        E 0 80 3a 00
        E 0 90 33 72
        E 0 90 3b 72
        E 120 80 33 00
        E 0 80 3b 00
        E 0 90 34 72
        E 0 90 3c 72
        E 120 80 34 00
        E 0 80 3c 00
        E 0 90 3d 72
        E 0 90 35 72
        E 120 80 3d 00
        E 0 80 35 00
        E 0 90 37 72
        E 0 90 3e 72
        E 120 80 37 00
        E 0 80 3e 00
        E 0 90 36 72
        E 0 90 3f 72
        E 120 80 36 00
        E 0 80 3f 00
        E 0 90 38 72
        E 0 90 40 72
        E 120 80 38 00
        E 0 80 40 00
        E 0 90 39 72
        E 0 90 41 72
        E 120 80 39 00
        E 0 80 41 00
        E 0 90 3a 72
        E 0 90 42 72
        E 120 80 3a 00
        E 0 80 42 00
        E 0 90 3c 72
        E 0 90 43 72
        E 120 80 3c 00
        E 0 80 43 00
        E 0 90 3b 72
        E 0 90 44 72
        E 120 80 3b 00
        E 0 80 44 00
        E 0 90 3d 72
        E 0 90 45 72
        E 120 80 3d 00
        E 0 80 45 00
        E 0 90 3e 72
        E 0 90 46 72
        E 120 80 3e 00
        E 0 80 46 00
        E 0 90 3f 72
        E 0 90 47 72
        E 120 80 3f 00
        E 0 80 47 00
        E 0 90 41 72
        E 0 90 48 72
        E 120 80 41 00
        E 0 80 48 00
        E 0 90 40 72
        E 0 90 49 72
        E 120 80 40 00
        E 0 80 49 00
        E 0 90 42 72
        E 0 90 4a 72
        E 120 80 42 00
        E 0 80 4a 00
        E 0 90 43 72
        E 0 90 4b 72
        E 120 80 43 00
        E 0 80 4b 00
        E 0 90 44 72
        E 0 90 4c 72
        E 120 80 44 00
        E 0 80 4c 00
        E 0 90 4d 72
        E 0 90 46 72
        E 120 80 4d 00
        E 0 80 46 00
        E 0 90 45 72
        E 0 90 4e 72
        E 120 80 45 00
        E 0 80 4e 00
        E 0 90 47 72
        E 0 90 4f 72
        E 120 80 47 00
        E 0 80 4f 00
        E 0 90 48 72
        E 0 90 50 72
        E 120 80 48 00
        E 0 80 50 00
        E 0 90 49 72
        E 0 90 51 72
        E 120 80 49 00
        E 0 80 51 00
        E 0 90 4b 72
        E 0 90 52 72
        E 120 80 4b 00
        E 0 80 52 00
        E 0 90 53 72
        E 0 90 4a 72
        E 120 80 53 00
        E 0 80 4a 00
        E 0 90 4c 72
        E 120 80 4c 00
        E 88680 90 30 60
        E 0 90 43 7f
        E 240 80 30 00
        E 0 80 43 00
        E 0 90 33 60
        E 0 90 43 7f
        E 240 80 33 00
        E 0 80 43 00
        E 0 90 35 60
        E 0 90 43 7f
        E 240 80 35 00
        E 0 80 43 00
        E 0 90 4e 60
        E 0 90 38 60
        E 0 90 51 60
        E 0 90 52 60
        E 240 80 4e 00
        E 0 80 38 00
        E 0 80 51 00
        E 0 80 52 00
        E 0 90 4e 60
        E 0 90 3b 60
        E 0 90 51 60
        E 0 90 52 60
        E 240 80 4e 00
        E 0 80 3b 00
        E 0 80 51 00
        E 0 80 52 00
        E 0 90 38 60
        E 0 90 43 7f
        E 240 80 38 00
        E 0 80 43 00
        E 0 90 35 60
        E 0 90 43 7f
        E 240 80 35 00
        E 0 80 43 00
        E 0 90 33 60
        E 0 90 43 7f
        E 240 80 33 00
        E 0 80 43 00
        E 0 90 30 60
        E 0 90 3e 7f
        E 0 90 4b 7f
        E 120 90 37 7f
        E 120 80 30 00
        E 0 80 3e 00
        E 0 80 4b 00
        E 0 80 37 00
        E 0 90 30 60
        E 240 80 30 00
        E 0 90 33 60
        E 0 90 43 7f
        E 240 80 33 00
        E 0 80 43 00
        E 0 90 35 60
        E 0 90 43 7f
        E 240 80 35 00
        E 0 80 43 00
        E 0 90 38 60
        E 0 90 43 7f
        E 120 90 4d 7f
        E 120 80 38 00
        E 0 80 43 00
        E 0 90 3b 60
        E 0 90 48 7f
        E 120 80 4d 00
        E 120 80 3b 00
        E 0 80 48 00
        E 0 90 38 60
        E 240 80 38 00
        E 0 90 35 60
        E 240 80 35 00
        E 0 90 33 60
        E 0 90 43 7f
        E 120 90 48 7f
        E 120 80 33 00
        E 0 80 43 00
        E 0 90 30 60
        E 0 90 43 7f
        E 120 90 38 7f
        E 120 80 48 00
        E 0 80 30 00
        E 0 80 43 00
        E 0 80 38 00
        E 0 90 30 60
        E 0 90 43 7f
        E 240 80 30 00
        E 0 80 43 00
        E 0 90 33 60
        E 0 90 4e 7f
        E 240 80 33 00
        E 0 90 35 60
        E 120 80 4e 00
        E 120 80 35 00
        E 0 90 38 60
        E 240 80 38 00
        E 0 90 3b 60
        E 0 90 43 7f
        E 120 90 32 7f
        E 120 80 3b 00
        E 0 80 43 00
        E 0 80 32 00
        E 0 90 38 60
        E 0 90 43 7f
        E 0 90 4a 7f
        E 240 80 38 00
        E 0 80 43 00
        E 0 80 4a 00
        E 0 90 35 60
        E 0 90 43 7f
        E 240 80 35 00
        E 0 80 43 00
        E 0 90 45 7f
        E 0 90 33 60
        E 240 80 45 00
        E 0 80 33 00
        E 0 90 30 60
        E 240 80 30 00
        E 0 90 30 60
        E 0 90 43 7f
        E 0 90 4c 7f
        E 0 90 38 7f
        E 240 80 30 00
        E 0 80 43 00
        E 0 80 38 00
        E 0 90 33 60
        E 0 90 43 7f
        E 120 80 4c 00
        E 120 80 33 00
        E 0 80 43 00
        E 0 90 35 60
        E 0 90 43 7f
        E 120 90 32 7f
        E 120 80 35 00
        E 0 80 43 00
        E 0 90 38 60
        E 0 90 46 7f
        E 120 80 32 00
        E 120 80 38 00
        E 0 80 46 00
        E 0 90 3b 60
        E 240 80 3b 00
        E 0 90 38 60
        E 0 90 43 7f
        E 240 80 38 00
        E 0 80 43 00
        E 0 90 35 60
        E 0 90 43 7f
        E 240 80 35 00
        E 0 80 43 00
        E 0 90 33 60
        E 0 90 43 7f
        E 0 90 3d 7f
        E 120 80 3d 00
        E 120 80 33 00
        E 0 80 43 00
        E 0 90 4e 60
        E 0 90 51 60
        E 0 90 52 60
        E 0 90 30 60
        E 0 90 39 7f
        E 120 80 39 00
        E 120 80 4e 00
        E 0 80 51 00
        E 0 80 52 00
        E 0 80 30 00
        E 0 90 4e 60
        E 0 90 51 60
        E 0 90 52 60
        E 120 90 30 60
        E 120 80 4e 00
        E 0 80 51 00
        E 0 80 52 00
        E 120 80 30 00
        E 0 90 33 60
        E 120 90 43 7f
        E 120 80 33 00
        E 0 90 35 60
        E 0 90 47 7f
        E 120 80 43 00
        E 0 90 43 7f
        E 120 80 35 00
        E 0 80 47 00
        E 0 90 38 60
        E 120 80 43 00
        E 0 90 43 7f
        E 0 90 33 7f
        E 120 80 38 00
        E 0 90 3b 60
        E 0 90 4d 7f
        E 120 80 43 00
        E 0 80 33 00
        E 120 80 3b 00
        E 0 90 38 60
        E 120 80 4d 00
        E 120 80 38 00
        E 0 90 35 60
        E 240 80 35 00
        E 0 90 33 60
        E 0 90 4b 7f
        E 120 90 43 7f
        E 0 90 38 7f
        E 120 80 33 00
        E 0 80 4b 00
        E 0 90 30 60
        E 120 80 43 00
        E 0 80 38 00
        E 0 90 43 7f
        E 120 80 30 00
        E 0 90 30 60
        E 120 80 43 00
        E 0 90 3e 7f
        E 0 90 43 7f
        E 120 80 30 00
        E 0 90 33 60
        E 120 80 3e 00
        E 0 80 43 00
        E 120 80 33 00
        E 0 90 35 60
        E 120 90 48 7f
        E 120 80 35 00
        E 0 90 38 60
        E 120 80 48 00
        E 0 90 43 7f
        E 0 90 33 7f
        E 0 90 40 7f
        E 0 90 50 7f
        E 120 80 38 00
        E 0 90 3b 60
        E 120 80 43 00
        E 0 80 33 00
        E 0 80 40 00
        E 0 80 50 00
        E 0 90 43 7f
        E 120 80 3b 00
        E 0 90 38 60
        E 120 80 43 00
        E 0 90 43 7f
        E 120 80 38 00
        E 0 90 35 60
        E 120 80 43 00
        E 0 90 47 7f
        E 120 80 35 00
        E 0 90 33 60
        E 0 90 37 7f
        E 120 80 47 00
        E 120 80 33 00
        E 0 80 37 00
        E 0 90 30 60
        E 120 90 43 7f
        E 0 90 39 7f
        E 0 90 4a 7f
        E 120 80 30 00
        E 0 90 30 60
        E 120 80 43 00
        E 0 80 39 00
        E 0 80 4a 00
        E 0 90 43 7f
        E 0 90 3c 7f
        E 120 80 30 00
        E 0 90 33 60
        E 120 80 43 00
        E 0 80 3c 00
        E 0 90 43 7f
        E 0 90 4f 7f
        E 120 80 33 00
        E 0 80 4f 00
        E 0 90 35 60
        E 120 80 43 00
        E 120 80 35 00
        E 0 90 38 60
        E 120 90 4c 7f
        E 120 80 38 00
        E 0 90 3b 60
        E 120 80 4c 00
        E 120 80 3b 00
        E 0 90 38 60
        E 120 90 43 7f
        E 0 90 47 7f
        E 120 80 38 00
        E 0 90 35 60
        E 120 80 43 00
        E 0 80 47 00
        E 0 90 43 7f
        E 0 90 3e 7f
        E 120 80 35 00
        E 0 90 33 60
        E 120 80 43 00
        E 0 80 3e 00
        E 0 90 43 7f
        E 120 80 33 00
        E 0 90 30 60
        E 120 80 43 00
        E 0 90 46 7f
        E 120 80 30 00
        E 0 90 30 60
        E 0 90 3e 7f
        E 120 80 46 00
        E 120 80 30 00
        E 0 80 3e 00
        E 0 90 33 60
        E 240 80 33 00
        E 0 90 35 60
        E 120 90 43 7f
        E 120 80 35 00
        E 0 90 38 60
        E 120 80 43 00
        E 0 90 4e 60
        E 0 90 51 60
        E 0 90 52 60
        E 0 90 43 7f
        E 120 80 38 00
        E 0 90 3b 60
        E 120 80 4e 00
        E 0 80 51 00
        E 0 80 52 00
        E 0 80 43 00
        E 0 90 4e 60
        E 0 90 51 60
        E 0 90 52 60
        E 0 90 43 7f
        E 120 80 3b 00
        E 0 90 38 60
        E 0 90 3e 7f
        E 120 80 4e 00
        E 0 80 51 00
        E 0 80 52 00
        E 0 80 43 00
        E 0 80 3e 00
        E 120 80 38 00
        E 0 90 35 60
        E 240 80 35 00
        E 0 90 33 60
        E 120 90 43 7f
        E 0 90 3f 7f
        E 120 80 33 00
        E 0 90 30 60
        E 0 90 4e 7f
        E 120 80 43 00
        E 0 80 3f 00
        E 0 90 30 60
        E 0 90 43 7f
        E 120 80 30 00
        E 0 80 4e 00
        E 120 80 30 00
        E 0 80 43 00
        E 0 90 33 60
        E 0 90 43 7f
        E 120 90 4c 7f
        E 120 80 33 00
        E 0 80 43 00
        E 0 90 35 60
        E 0 90 46 7f
        E 120 80 4c 00
        E 120 80 35 00
        E 0 80 46 00
        E 0 90 38 60
        E 240 80 38 00
        E 0 90 3b 60
        E 0 90 43 7f
        E 240 80 3b 00
        E 0 80 43 00
        E 0 90 38 60
        E 0 90 43 7f
        E 240 80 38 00
        E 0 80 43 00
        E 0 90 35 60
        E 0 90 43 7f
        E 240 80 35 00
        E 0 80 43 00
        E 0 90 33 60
        E 120 90 3b 7f
        E 120 80 33 00
        E 0 90 30 60
        E 0 90 37 7f
        E 120 80 3b 00
        E 0 80 37 00
        E 120 80 30 00
        E 0 90 30 60
        E 120 90 51 7f
        E 120 80 30 00
        E 0 90 33 60
        E 0 90 43 7f
        E 120 80 51 00
        E 120 80 33 00
        E 0 80 43 00
        E 0 90 35 60
        E 0 90 43 7f
        E 240 80 35 00
        E 0 80 43 00
        E 0 90 38 60
        E 0 90 43 7f
        E 240 80 38 00
        E 0 80 43 00
        E 0 90 3b 60
        E 120 90 33 7f
        E 120 80 3b 00
        E 0 90 38 60
        E 0 90 4c 7f
        E 120 80 33 00
        E 120 80 38 00
        E 0 80 4c 00
        E 0 90 35 60
        E 240 80 35 00
        E 0 90 33 60
        E 0 90 43 7f
        E 0 90 37 7f
        E 0 90 50 7f
        E 120 90 3e 7f
        E 120 80 33 00
        E 0 80 43 00
        E 0 80 37 00
        E 0 80 50 00
        E 0 90 30 60
        E 0 90 43 7f
        E 120 80 3e 00
        E 0 90 4a 7f
        E 120 80 30 00
        E 0 80 43 00
        E 0 90 30 60
        E 0 90 43 7f
        E 120 80 4a 00
        E 120 80 30 00
        E 0 80 43 00
        E 0 90 33 60
        E 240 80 33 00
        E 0 90 35 60
        E 240 80 35 00
        E 0 90 38 60
        E 0 90 43 7f
        E 240 80 38 00
        E 0 80 43 00
        E 0 90 3b 60
        E 0 90 43 7f
        E 240 80 3b 00
        E 0 80 43 00
        E 0 90 38 60
        E 0 90 43 7f
        E 240 80 38 00
        E 0 80 43 00
        E 0 90 35 60
        E 240 80 35 00
        E 0 90 33 60
        E 240 80 33 00
        E 0 90 30 60
        E 0 90 4e 60
        E 0 90 51 60
        E 0 90 52 60
        E 0 90 43 7f
        E 120 90 3b 7f
        E 0 90 3f 7f
        E 120 80 30 00
        E 0 80 4e 00
        E 0 80 51 00
        E 0 80 52 00
        E 0 80 43 00
        E 0 90 30 60
        E 0 90 4e 60
        E 0 90 51 60
        E 0 90 52 60
        E 0 90 43 7f
        E 120 80 3b 00
        E 0 80 3f 00
        E 120 80 30 00
        E 0 80 4e 00
        E 0 80 51 00
        E 0 80 52 00
        E 0 80 43 00
        E 0 90 33 60
        E 0 90 43 7f
        E 240 80 33 00
        E 0 80 43 00
        E 0 90 35 60
        E 240 80 35 00
        E 0 90 38 60
        E 240 80 38 00
        E 0 90 3b 60
        E 120 90 4f 7f
        E 120 80 3b 00
        E 0 80 4f 00
        E 0 90 38 60
        E 0 90 43 7f
        E 240 80 38 00
        E 0 80 43 00
        E 0 90 35 60
        E 0 90 43 7f
        E 0 90 4a 7f
        E 240 80 35 00
        E 0 80 43 00
        E 0 80 4a 00
        E 0 90 33 60
        E 0 90 43 7f
        E 120 90 39 7f
        E 120 80 33 00
        E 0 80 43 00
        E 0 80 39 00
        E 0 90 30 60
        E 240 80 30 00
        E 0 90 30 60
        E 120 90 3b 7f
        E 120 80 30 00
        E 0 90 33 60
        E 0 90 47 7f
        E 120 80 3b 00
        E 120 80 33 00
        E 0 80 47 00
        E 0 90 35 60
        E 0 90 43 7f
        E 240 80 35 00
        E 0 80 43 00
        E 0 90 38 60
        E 0 90 43 7f
        E 240 80 38 00
        E 0 80 43 00
        E 0 90 3b 60
        E 0 90 43 7f
        E 240 80 3b 00
        E 0 80 43 00
        E 0 90 38 60
        E 240 80 38 00
        E 0 90 35 60
        E 120 90 3d 7f
        E 120 80 35 00
        E 0 80 3d 00
        E 0 90 33 60
        E 0 90 43 7f
        E 120 90 39 7f
        E 120 80 33 00
        E 0 80 43 00
        E 0 80 39 00
        E 0 90 30 60
        E 0 90 43 7f
        E 0 90 4f 7f
        E 240 80 30 00
        E 0 80 43 00
        E 0 80 4f 00
        E 0 90 30 60
        E 0 90 43 7f
        E 0 90 3f 7f
        E 0 90 3a 7f
        E 0 90 49 7f
        E 120 80 3f 00
        E 0 80 49 00
        E 120 80 30 00
        E 0 80 43 00
        E 0 80 3a 00
        E 0 90 33 60
        E 240 80 33 00
        E 0 90 35 60
        E 0 90 4a 7f
        E 120 80 4a 00
        E 120 80 35 00
        E 0 90 38 60
        E 0 90 43 7f
        E 120 90 48 7f
        E 120 80 38 00
        E 0 80 43 00
        E 0 80 48 00
        E 0 90 3b 60
        E 0 90 43 7f
        E 120 90 4c 7f
        E 120 80 3b 00
        E 0 80 43 00
        E 0 80 4c 00
        E 0 90 38 60
        E 0 90 43 7f
        E 120 90 50 7f
        E 120 80 38 00
        E 0 80 43 00
        E 0 80 50 00
        E 0 90 35 60
        E 0 90 4e 7f
        E 120 80 4e 00
        E 120 80 35 00
        E 0 90 33 60
        E 0 90 46 7f
        E 240 80 33 00
        E 0 80 46 00
        E 0 90 30 60
        E 0 90 3b 7f
        E 120 80 3b 00
        E 120 80 30 00
        E 0 90 30 60
        E 0 90 43 7f
        E 240 80 30 00
        E 0 80 43 00
        E 0 90 33 60
        E 0 90 43 7f
        E 240 80 33 00
        E 0 80 43 00
        E 0 90 35 60
        E 0 90 43 7f
        E 240 80 35 00
        E 0 80 43 00
        E 0 90 38 60
        E 120 90 4e 60
        E 0 90 51 60
        E 0 90 52 60
        E 120 80 38 00
        E 0 90 3b 60
        E 120 80 4e 00
        E 0 80 51 00
        E 0 80 52 00
        E 0 90 4e 60
        E 0 90 51 60
        E 0 90 52 60
        E 120 80 3b 00
        E 0 90 38 60
        E 120 80 4e 00
        E 0 80 51 00
        E 0 80 52 00
        E 120 80 38 00
        E 0 90 35 60
        E 0 90 43 7f
        E 240 80 35 00
        E 0 80 43 00
        E 0 90 33 60
        E 0 90 43 7f
        E 240 80 33 00
        E 0 80 43 00
        E 0 90 30 60
        E 0 90 43 7f
        E 120 90 38 7f
        E 120 80 30 00
        E 0 80 43 00
        E 0 80 38 00
        E 0 90 30 60
        E 0 90 3d 7f
        E 120 80 3d 00
        E 120 80 30 00
        E 0 90 33 60
        E 240 80 33 00
        E 0 90 35 60
        E 0 90 43 7f
        E 0 90 4b 7f
        E 120 80 4b 00
        E 120 80 35 00
        E 0 80 43 00
        E 0 90 38 60
        E 0 90 43 7f
        E 240 80 38 00
        E 0 80 43 00
        E 0 90 3b 60
        E 0 90 43 7f
        E 0 90 49 7f
        E 240 80 3b 00
        E 0 80 43 00
        E 0 80 49 00
        E 0 90 38 60
        E 0 90 4d 7f
        E 120 80 4d 00
        E 120 80 38 00
        E 0 90 35 60
        E 0 90 50 7f
        E 240 80 35 00
        E 0 80 50 00
        E 0 90 33 60
        E 0 90 43 7f
        E 120 90 3a 7f
        E 120 80 33 00
        E 0 80 43 00
        E 0 80 3a 00
        E 0 90 30 60
        E 0 90 43 7f
        E 240 80 30 00
        E 0 80 43 00
        E 0 90 43 7f
        E 120 90 30 60
        E 0 90 3e 7f
        E 120 80 43 00
        E 0 80 3e 00
        E 0 90 3c 7f
        E 120 80 30 00
        E 0 80 3c 00
        E 0 90 33 60
        E 240 80 33 00
        E 0 90 35 60
        E 0 90 49 7f
        E 120 80 49 00
        E 120 80 35 00
        E 0 90 38 60
        E 120 90 43 7f
        E 120 80 38 00
        E 0 90 3b 60
        E 0 90 4a 7f
        E 120 80 43 00
        E 0 90 43 7f
        E 0 90 4d 7f
        E 120 80 3b 00
        E 0 80 4a 00
        E 0 90 38 60
        E 120 80 43 00
        E 0 80 4d 00
        E 0 90 43 7f
        E 120 80 38 00
        E 0 90 35 60
        E 0 90 51 7f
        E 120 80 43 00
        E 0 80 51 00
        E 120 80 35 00
        E 0 90 33 60
        E 0 90 3d 7f
        E 120 80 3d 00
        E 0 90 48 7f
        E 120 80 33 00
        E 0 80 48 00
        E 0 90 30 60
        E 240 80 30 00
        E 0 90 30 60
        E 120 90 43 7f
        E 0 90 3e 7f
        E 0 90 4b 7f
        E 120 80 30 00
        E 0 80 3e 00
        E 0 90 33 60
        E 120 80 43 00
        E 0 80 4b 00
        E 0 90 43 7f
        E 120 80 33 00
        E 0 90 35 60
        E 120 80 43 00
        E 0 90 43 7f
        E 0 90 49 7f
        E 120 80 35 00
        E 0 90 38 60
        E 0 90 50 7f
        E 120 80 43 00
        E 0 80 49 00
        E 0 80 50 00
        E 120 80 38 00
        E 0 90 3b 60
        E 0 90 4e 7f
        E 120 80 4e 00
        E 120 80 3b 00
        E 0 90 38 60
        E 120 90 43 7f
        E 120 80 38 00
        E 0 90 35 60
        E 0 90 3e 7f
        E 120 80 43 00
        E 0 80 3e 00
        E 0 90 43 7f
        E 120 80 35 00
        E 0 90 33 60
        E 0 90 39 7f
        E 120 80 43 00
        E 0 80 39 00
        E 0 90 43 7f
        E 120 80 33 00
        E 0 90 30 60
        E 120 80 43 00
        E 0 90 4e 60
        E 0 90 51 60
        E 0 90 52 60
        E 120 80 30 00
        E 0 90 30 60
        E 0 90 39 7f
        E 120 80 4e 00
        E 0 80 51 00
        E 0 80 52 00
        E 0 80 39 00
        E 0 90 4e 60
        E 0 90 51 60
        E 0 90 52 60
        E 120 80 30 00
        E 0 90 33 60
        E 0 90 3d 7f
        E 120 80 4e 00
        E 0 80 51 00
        E 0 80 52 00
        E 0 90 43 7f
        E 120 80 33 00
        E 0 80 3d 00
        E 0 90 35 60
        E 120 80 43 00
        E 0 90 43 7f
        E 0 90 3f 7f
        E 120 80 35 00
        E 0 80 3f 00
        E 0 90 38 60
        E 120 80 43 00
        E 0 90 43 7f
        E 0 90 49 7f
        E 120 80 38 00
        E 0 90 3b 60
        E 120 80 43 00
        E 0 80 49 00
        E 120 80 3b 00
        E 0 90 38 60
        E 0 90 48 7f
        E 120 80 48 00
        E 120 80 38 00
        E 0 90 35 60
        E 120 90 4e 7f
        E 120 80 35 00
        E 0 90 33 60
        E 120 80 4e 00
        E 0 90 43 7f
        E 0 90 48 7f
        E 120 80 33 00
        E 0 80 48 00
        E 0 90 30 60
        E 0 90 48 7f
        E 120 80 43 00
        E 0 90 43 7f
        E 120 80 30 00
        E 0 90 30 60
        E 120 80 48 00
        E 0 80 43 00
        E 0 90 43 7f
        E 0 90 3c 7f
        E 120 80 30 00
        E 0 80 3c 00
        E 0 90 33 60
        E 120 80 43 00
        E 0 90 4d 7f
        E 120 80 33 00
        E 0 80 4d 00
        E 0 90 35 60
        E 240 80 35 00
        E 0 90 38 60
        E 120 90 49 7f
        E 120 80 38 00
        E 0 90 3b 60
        E 120 80 49 00
        E 0 90 43 7f
        E 120 80 3b 00
        E 0 90 38 60
        E 0 90 3e 7f
        E 120 80 43 00
        E 0 80 3e 00
        E 0 90 43 7f
        E 120 80 38 00
        E 0 90 35 60
        E 0 90 46 7f
        E 0 90 4b 7f
        E 120 80 43 00
        E 0 80 46 00
        E 0 90 43 7f
        E 120 80 35 00
        E 0 80 4b 00
        E 0 90 33 60
        E 120 80 43 00
        E 0 90 3e 7f
        E 120 80 33 00
        E 0 90 30 60
        E 120 80 3e 00
        E 0 90 30 60
        E 120 80 30 00
        E 0 90 4d 7f
        E 120 80 30 00
        E 0 90 33 60
        E 0 90 43 7f
        E 120 80 4d 00
        E 0 90 4c 7f
        E 120 80 33 00
        E 0 80 43 00
        E 0 90 35 60
        E 0 90 43 7f
        E 120 80 4c 00
        E 120 80 35 00
        E 0 80 43 00
        E 0 90 38 60
        E 0 90 43 7f
        E 240 80 38 00
        E 0 80 43 00
        E 0 90 3b 60
        E 120 90 4d 7f
        E 120 80 3b 00
        E 0 80 4d 00
        E 0 90 38 60
        E 240 80 38 00
        E 0 90 35 60
        E 0 90 43 7f
        E 0 90 4a 7f
        E 240 80 35 00
        E 0 80 43 00
        E 0 80 4a 00
        E 0 90 33 60
        E 0 90 43 7f
        E 0 90 39 7f
        E 120 80 39 00
        E 0 90 47 7f
        E 120 80 33 00
        E 0 80 43 00
        E 0 90 30 60
        E 0 90 43 7f
        E 120 80 47 00
        E 0 90 3f 7f
        E 120 80 30 00
        E 0 80 43 00
        E 0 80 3f 00
        E 0 90 30 60
        E 120 90 4a 7f
        E 120 80 30 00
        E 0 90 33 60
        E 0 90 48 7f
        E 120 80 4a 00
        E 120 80 33 00
        E 0 80 48 00
        E 0 90 35 60
        E 240 80 35 00
        E 0 90 38 60
        E 0 90 43 7f
        E 240 80 38 00
        E 0 80 43 00
        E 0 90 3b 60
        E 0 90 43 7f
        E 240 80 3b 00
        E 0 80 43 00
        E 0 90 38 60
        E 0 90 4e 60
        E 0 90 51 60
        E 0 90 52 60
        E 0 90 43 7f
        E 240 80 38 00
        E 0 80 4e 00
        E 0 80 51 00
        E 0 80 52 00
        E 0 80 43 00
        E 0 90 35 60
        E 0 90 4e 60
        E 0 90 51 60
        E 0 90 52 60
        E 120 90 3c 7f
        E 120 80 35 00
        E 0 80 4e 00
        E 0 80 51 00
        E 0 80 52 00
        E 0 80 3c 00
        E 0 90 33 60
        E 120 90 49 7f
        E 120 80 33 00
        E 0 80 49 00
        E 0 90 30 60
        E 0 90 4c 7f
        E 120 80 4c 00
        E 120 80 30 00
        E 0 90 30 60
        E 0 90 43 7f
        E 240 80 30 00
        E 0 80 43 00
        E 0 90 33 60
        E 0 90 43 7f
        E 0 90 4e 7f
        E 240 80 33 00
        E 0 80 43 00
        E 0 80 4e 00
        E 0 90 35 60
        E 0 90 43 7f
        E 240 80 35 00
        E 0 80 43 00
        E 0 90 38 60
        E 240 80 38 00
        E 0 90 3b 60
        E 0 90 46 7f
        E 240 80 3b 00
        E 0 80 46 00
        E 0 90 38 60
        E 0 90 43 7f
        E 240 80 38 00
        E 0 80 43 00
        E 0 90 35 60
        E 0 90 43 7f
        E 0 90 3d 7f
        E 120 80 3d 00
        E 120 80 35 00
        E 0 80 43 00
        E 0 90 33 60
        E 0 90 43 7f
        E 240 80 33 00
        E 0 80 43 00
        E 0 90 30 60
        E 0 90 3b 7f
        E 120 80 3b 00
        E 0 90 4c 7f
        E 120 80 30 00
        E 0 80 4c 00
        E 0 90 30 60
        E 0 90 38 7f
        E 0 90 48 7f
        E 120 80 48 00
        E 120 80 30 00
        E 0 80 38 00
        E 0 90 33 60
        E 0 90 43 7f
        E 120 90 4c 7f
        E 120 80 33 00
        E 0 80 43 00
        E 0 80 4c 00
        E 0 90 35 60
        E 0 90 43 7f
        E 240 80 35 00
        E 0 80 43 00
        E 0 90 38 60
        E 0 90 43 7f
        E 0 90 49 7f
        E 240 80 38 00
        E 0 80 43 00
        E 0 80 49 00
        E 0 90 3b 60
        E 240 80 3b 00
        E 0 90 38 60
        E 240 80 38 00
        E 0 90 35 60
        E 120 90 3d 7f
        E 120 80 35 00
        E 0 80 3d 00
        E 0 90 33 60
        E 0 90 43 7f
        E 240 80 33 00
        E 0 80 43 00
        E 0 90 30 60
        E 0 90 43 7f
        E 120 90 3d 7f
        E 120 80 30 00
        E 0 80 43 00
        E 0 90 30 60
        E 0 90 43 7f
        E 120 80 3d 00
        E 0 90 3f 7f
        E 120 80 30 00
        E 0 80 43 00
        E 0 90 33 60
        E 0 90 49 7f
        E 120 80 3f 00
        E 120 80 33 00
        E 0 80 49 00
        E 0 90 35 60
        E 0 90 4c 7f
        E 240 80 35 00
        E 0 80 4c 00
        E 0 90 38 60
        E 240 80 38 00
        E 0 90 3b 60
        E 0 90 43 7f
        E 0 90 47 7f
        E 240 80 3b 00
        E 0 80 43 00
        E 0 90 38 60
        E 0 90 43 7f
        E 120 80 47 00
        E 120 80 38 00
        E 0 80 43 00
        E 0 90 35 60
        E 0 90 43 7f
        E 240 80 35 00
        E 0 80 43 00
        E 0 90 33 60
        E 240 80 33 00
        E 0 90 30 60
        E 0 90 47 7f
        E 240 80 30 00
        E 0 80 47 00
        E 0 90 30 60
        E 120 90 49 7f
        E 120 80 30 00
        E 0 90 43 7f
        E 0 90 33 60
        E 120 80 49 00
        E 120 80 43 00
        E 0 80 33 00
        E 0 90 43 7f
        E 0 90 35 60
        E 240 80 43 00
        E 0 80 35 00
        E 0 90 43 7f
        E 0 90 38 60
        E 0 90 4a 7f
        E 240 80 43 00
        E 0 80 38 00
        E 0 80 4a 00
        E 0 90 3b 60
        E 120 90 51 7f
        E 120 80 3b 00
        E 0 90 38 60
        E 0 90 43 7f
        E 120 80 51 00
        E 120 80 38 00
        E 0 80 43 00
        E 0 90 35 60
        E 0 90 43 7f
        E 240 80 35 00
        E 0 80 43 00
        E 0 90 33 60
        E 0 90 43 7f
        E 0 90 4d 7f
        E 240 80 33 00
        E 0 80 43 00
        E 0 90 30 60
        E 0 90 3e 7f
        E 120 80 4d 00
        E 120 80 30 00
        E 0 80 3e 00
        E 0 90 30 60
        E 0 90 43 7f
        E 0 90 49 7f
        E 240 80 30 00
        E 0 80 43 00
        E 0 80 49 00
        E 0 90 33 60
        E 0 90 43 7f
        E 240 80 33 00
        E 0 80 43 00
        E 0 90 35 60
        E 0 90 43 7f
        E 120 90 4c 7f
        E 120 80 35 00
        E 0 80 43 00
        E 0 90 38 60
        E 120 80 4c 00
        E 120 80 38 00
        E 0 90 3b 60
        E 0 90 43 7f
        E 120 90 47 7f
        E 120 80 3b 00
        E 0 80 43 00
        E 0 90 38 60
        E 0 90 43 7f
        E 120 80 47 00
        E 120 80 38 00
        E 0 80 43 00
        E 0 90 35 60
        E 0 90 43 7f
        E 240 80 35 00
        E 0 80 43 00
        E 0 90 33 60
        E 240 80 33 00
        E 0 90 4e 60
        E 0 90 51 60
        E 0 90 52 60
        E 0 90 30 60
        E 0 90 43 7f
        E 0 90 3e 7f
        E 120 90 47 7f
        E 120 80 4e 00
        E 0 80 51 00
        E 0 80 52 00
        E 0 80 30 00
        E 0 80 43 00
        E 0 80 47 00
        E 0 90 4e 60
        E 0 90 51 60
        E 0 90 52 60
        E 0 90 30 60
        E 0 90 43 7f
        E 120 80 3e 00
        E 120 80 4e 00
        E 0 80 51 00
        E 0 80 52 00
        E 0 80 30 00
        E 0 80 43 00
        E 0 90 33 60
        E 0 90 43 7f
        E 240 80 33 00
        E 0 80 43 00
        E 0 90 35 60
        E 240 80 35 00
        E 0 90 38 60
        E 120 90 45 7f
        E 120 80 38 00
        E 0 90 3b 60
        E 0 90 43 7f
        E 120 80 45 00
        E 120 80 3b 00
        E 0 80 43 00
        E 0 90 38 60
        E 0 90 43 7f
        E 240 80 38 00
        E 0 80 43 00
        E 0 90 35 60
        E 0 90 43 7f
        E 240 80 35 00
        E 0 80 43 00
        E 0 90 33 60
        E 0 90 3e 7f
        E 240 80 33 00
        E 0 80 3e 00
        E 0 90 30 60
        E 240 80 30 00
        E 0 90 43 7f
        E 120 90 30 60
        E 120 80 43 00
        E 0 90 43 7f
        E 0 90 48 7f
        E 120 80 30 00
        E 0 80 48 00
        E 0 90 33 60
        E 0 90 3e 7f
        E 120 80 43 00
        E 0 90 43 7f
        E 120 80 33 00
        E 0 90 35 60
        E 120 80 3e 00
        E 0 80 43 00
        E 120 80 35 00
        E 0 90 38 60
        E 240 80 38 00
        E 0 90 3b 60
        E 0 90 49 7f
        E 120 90 43 7f
        E 120 80 3b 00
        E 0 80 49 00
        E 0 90 38 60
        E 120 80 43 00
        E 0 90 43 7f
        E 120 80 38 00
        E 0 90 35 60
        E 120 80 43 00
        E 0 90 43 7f
        E 120 80 35 00
        E 0 90 33 60
        E 120 80 43 00
        E 0 90 4b 7f
        E 120 80 33 00
        E 0 80 4b 00
        E 0 90 30 60
        E 240 80 30 00
        E 0 90 30 60
        E 120 90 43 7f
        E 120 80 30 00
        E 0 90 33 60
        E 120 80 43 00
        E 0 90 43 7f
        E 120 80 33 00
        E 0 90 35 60
        E 120 80 43 00
        E 0 90 43 7f
        E 120 80 35 00
        E 0 90 38 60
        E 120 80 43 00
        E 0 90 46 7f
        E 120 80 38 00
        E 0 90 3b 60
        E 120 80 46 00
        E 0 90 3f 7f
        E 120 80 3b 00
        E 0 90 38 60
        E 120 80 3f 00
        E 0 90 43 7f
        E 120 80 38 00
        E 0 90 35 60
        E 120 80 43 00
        E 0 90 43 7f
        E 120 80 35 00
        E 0 90 33 60
        E 120 80 43 00
        E 0 90 43 7f
        E 0 90 3d 7f
        E 120 80 33 00
        E 0 90 30 60
        E 120 80 43 00
        E 0 80 3d 00
        E 120 80 30 00
        E 0 90 30 60
        E 240 80 30 00
        E 0 90 33 60
        E 0 90 3e 7f
        E 120 90 43 7f
        E 120 80 33 00
        E 0 80 3e 00
        E 0 90 35 60
        E 120 80 43 00
        E 0 90 43 7f
        E 120 80 35 00
        E 0 90 38 60
        E 120 80 43 00
        E 0 90 4e 60
        E 0 90 51 60
        E 0 90 52 60
        E 0 90 43 7f
        E 120 80 38 00
        E 0 90 3b 60
        E 120 80 4e 00
        E 0 80 51 00
        E 0 80 52 00
        E 0 80 43 00
        E 0 90 4e 60
        E 0 90 51 60
        E 0 90 52 60
        E 120 80 3b 00
        E 0 90 38 60
        E 120 80 4e 00
        E 0 80 51 00
        E 0 80 52 00
        E 120 80 38 00
        E 0 90 35 60
        E 120 90 43 7f
        E 120 80 35 00
        E 0 90 33 60
        E 0 90 48 7f
        E 120 80 43 00
        E 0 90 43 7f
        E 120 80 33 00
        E 0 80 48 00
        E 0 90 30 60
        E 120 80 43 00
        E 0 90 43 7f
        E 120 80 30 00
        E 0 90 30 60
        E 120 80 43 00
        E 120 80 30 00
        E 0 90 33 60
        E 120 90 40 7f
        E 120 80 33 00
        E 0 90 35 60
        E 120 80 40 00
        E 0 90 43 7f
        E 120 80 35 00
        E 0 90 38 60
        E 120 80 43 00
        E 0 90 43 7f
        E 0 90 49 7f
        E 120 80 38 00
        E 0 90 3b 60
        E 120 80 43 00
        E 0 80 49 00
        E 0 90 43 7f
        E 120 80 3b 00
        E 0 90 38 60
        E 120 80 43 00
        E 120 80 38 00
        E 0 90 35 60
        E 240 80 35 00
        E 0 90 33 60
        E 120 90 43 7f
        E 120 80 33 00
        E 0 90 30 60
        E 120 80 43 00
        E 0 90 30 60
        E 0 90 43 7f
        E 0 90 48 7f
        E 120 80 30 00
        E 120 80 30 00
        E 0 80 43 00
        E 0 90 33 60
        E 0 90 43 7f
        E 240 80 48 00
        E 0 80 33 00
        E 0 80 43 00
        E 0 90 35 60
        E 240 80 35 00
        E 0 90 38 60
        E 120 90 3f 7f
        E 120 80 38 00
        E 0 90 3b 60
        E 0 90 43 7f
        E 120 80 3f 00
        E 120 80 3b 00
        E 0 80 43 00
        E 0 90 38 60
        E 0 90 43 7f
        E 240 80 38 00
        E 0 80 43 00
        E 0 90 35 60
        E 0 90 43 7f
        E 0 90 3f 7f
        E 240 80 35 00
        E 0 80 43 00
        E 0 80 3f 00
        E 0 90 33 60
        E 120 90 4d 7f
        E 120 80 33 00
        E 0 90 30 60
        E 0 90 48 7f
        E 240 80 4d 00
        E 0 80 30 00
        E 0 80 48 00
        E 0 90 30 60
        E 0 90 43 7f
        E 240 80 30 00
        E 0 80 43 00
        E 0 90 33 60
        E 0 90 43 7f
        E 240 80 33 00
        E 0 80 43 00
        E 0 90 35 60
        E 0 90 43 7f
        E 240 80 35 00
        E 0 80 43 00
        E 0 90 38 60
        E 240 80 38 00
        E 0 90 3b 60
        E 0 90 48 7f
        E 240 80 3b 00
        E 0 80 48 00
        E 0 90 38 60
        E 0 90 43 7f
        E 240 80 38 00
        E 0 80 43 00
        E 0 90 35 60
        E 0 90 43 7f
        E 240 80 35 00
        E 0 80 43 00
        E 0 90 33 60
        E 0 90 43 7f
        E 120 90 3e 7f
        E 120 80 33 00
        E 0 80 43 00
        E 0 80 3e 00
        E 0 90 30 60
        E 120 90 4e 60
        E 0 90 51 60
        E 0 90 52 60
        E 120 80 30 00
        E 0 90 30 60
        E 120 80 4e 00
        E 0 80 51 00
        E 0 80 52 00
        E 0 90 4e 60
        E 0 90 51 60
        E 0 90 52 60
        E 120 80 30 00
        E 0 90 33 60
        E 0 90 43 7f
        E 120 80 4e 00
        E 0 80 51 00
        E 0 80 52 00
        E 120 80 33 00
        E 0 80 43 00
        E 0 90 35 60
        E 0 90 43 7f
        E 240 80 35 00
        E 0 80 43 00
        E 0 90 38 60
        E 0 90 43 7f
        E 240 80 38 00
        E 0 80 43 00
        E 0 90 3b 60
        E 0 90 40 7f
        E 240 80 3b 00
        E 0 80 40 00
        E 0 90 38 60
        E 240 80 38 00
        E 0 90 35 60
        E 0 90 43 7f
        E 0 90 49 7f
        E 240 80 35 00
        E 0 80 43 00
        E 0 80 49 00
        E 0 90 33 60
        E 0 90 43 7f
        E 240 80 33 00
        E 0 80 43 00
        E 0 90 30 60
        E 0 90 43 7f
        E 0 90 3b 7f
        E 0 90 4e 7f
        E 120 90 3d 7f
        E 120 80 30 00
        E 0 80 43 00
        E 0 80 3b 00
        E 0 80 4e 00
        E 0 80 3d 00
        E 0 90 30 60
        E 120 90 50 7f
        E 120 80 30 00
        E 0 90 33 60
        E 240 80 50 00
        E 0 80 33 00
        E 0 90 35 60
        E 0 90 43 7f
        E 240 80 35 00
        E 0 80 43 00
        E 0 90 38 60
        E 0 90 43 7f
        E 240 80 38 00
        E 0 80 43 00
        E 0 90 3b 60
        E 0 90 43 7f
        E 240 80 3b 00
        E 0 80 43 00
        E 0 90 38 60
        E 240 80 38 00
        E 0 90 35 60
        E 0 90 4d 7f
        E 120 90 3e 7f
        E 120 80 35 00
        E 0 80 4d 00
        E 0 80 3e 00
        E 0 90 33 60
        E 0 90 47 7f
        E 240 80 33 00
        E 0 90 30 60
        E 0 90 43 7f
        E 120 80 47 00
        E 120 80 30 00
        E 0 80 43 00
        E 0 90 30 60
        E 0 90 43 7f
        E 240 80 30 00
        E 0 80 43 00
        E 0 90 33 60
        E 0 90 43 7f
        E 120 90 3f 7f
        E 120 80 33 00
        E 0 80 43 00
        E 0 90 35 60
        E 120 80 3f 00
        E 120 80 35 00
        E 0 90 38 60
        E 240 80 38 00
        E 0 90 3b 60
        E 0 90 43 7f
        E 240 80 3b 00
        E 0 80 43 00
        E 0 90 38 60
        E 0 90 43 7f
        E 0 90 49 7f
        E 240 80 38 00
        E 0 80 43 00
        E 0 80 49 00
        E 0 90 35 60
        E 0 90 43 7f
        E 0 90 3e 7f
        E 240 80 35 00
        E 0 80 43 00
        E 0 80 3e 00
        E 0 90 33 60
        E 240 80 33 00
        E 0 90 30 60
        E 240 80 30 00
        E 0 90 30 60
        E 0 90 43 7f
        E 240 80 30 00
        E 0 80 43 00
        E 0 90 33 60
        E 0 90 43 7f
        E 240 80 33 00
        E 0 80 43 00
        E 0 90 35 60
        E 0 90 43 7f
        E 240 80 35 00
        E 0 80 43 00
        E 0 90 38 60
        E 240 80 38 00
        E 0 90 3b 60
        E 240 80 3b 00
        E 0 90 38 60
        E 0 90 4e 60
        E 0 90 51 60
        E 0 90 52 60
        E 0 90 43 7f
        E 240 80 38 00
        E 0 80 4e 00
        E 0 80 51 00
        E 0 80 52 00
        E 0 80 43 00
        E 0 90 35 60
        E 0 90 4e 60
        E 0 90 51 60
        E 0 90 52 60
        E 0 90 43 7f
        E 240 80 35 00
        E 0 80 4e 00
        E 0 80 51 00
        E 0 80 52 00
        E 0 80 43 00
        E 0 90 33 60
        E 0 90 43 7f
        E 240 80 33 00
        E 0 80 43 00
        E 0 90 30 60
        E 240 80 30 00
        E 0 90 30 60
        E 0 90 4a 7f
        E 240 80 30 00
        E 0 90 33 60
        E 0 90 43 7f
        E 120 80 4a 00
        E 120 80 33 00
        E 0 80 43 00
        E 0 90 35 60
        E 0 90 43 7f
        E 0 90 48 7f
        E 240 80 35 00
        E 0 80 43 00
        E 0 80 48 00
        E 0 90 38 60
        E 0 90 43 7f
        E 240 80 38 00
        E 0 80 43 00
        E 0 90 3b 60
        E 240 80 3b 00
        E 0 90 38 60
        E 120 90 49 7f
        E 120 80 38 00
        E 0 90 35 60
        E 0 90 43 7f
        E 120 80 49 00
        E 120 80 35 00
        E 0 80 43 00
        E 0 90 33 60
        E 0 90 43 7f
        E 120 90 3d 7f
        E 120 80 33 00
        E 0 80 43 00
        E 0 80 3d 00
        E 0 90 30 60
        E 0 90 43 7f
        E 240 80 30 00
        E 0 80 43 00
        E 0 90 30 60
        E 240 80 30 00
        E 0 90 33 60
        E 120 90 4d 7f
        E 120 80 33 00
        E 0 90 35 60
        E 0 90 43 7f
        E 120 80 4d 00
        E 120 80 35 00
        E 0 80 43 00
        E 0 90 38 60
        E 0 90 43 7f
        E 240 80 38 00
        E 0 80 43 00
        E 0 90 3b 60
        E 0 90 43 7f
        E 240 80 3b 00
        E 0 80 43 00
        E 0 90 38 60
        E 0 90 41 7f
        E 0 90 49 7f
        E 240 80 38 00
        E 0 80 41 00
        E 0 80 49 00
        E 0 90 35 60
        E 0 90 51 7f
        E 240 80 35 00
        E 0 80 51 00
        E 0 90 33 60
        E 0 90 43 7f
        E 120 90 4e 7f
        E 120 80 33 00
        E 0 80 43 00
        E 0 90 30 60
        E 0 90 43 7f
        E 120 80 4e 00
        E 120 80 30 00
        E 0 80 43 00
        E 0 90 43 7f
        E 120 90 30 60
        E 120 80 43 00
        E 120 80 30 00
        E 0 90 33 60
        E 0 90 4e 7f
        E 240 80 33 00
        E 0 90 35 60
        E 120 80 4e 00
        E 0 90 43 7f
        E 0 90 47 7f
        E 120 80 35 00
        E 0 90 38 60
        E 120 80 43 00
        E 0 80 47 00
        E 0 90 43 7f
        E 120 80 38 00
        E 0 90 3b 60
        E 120 80 43 00
        E 0 90 43 7f
        E 0 90 3e 7f
        E 0 90 50 7f
        E 120 80 3b 00
        E 0 80 50 00
        E 0 90 38 60
        E 0 90 4d 7f
        E 120 80 43 00
        E 0 80 3e 00
        E 120 80 38 00
        E 0 80 4d 00
        E 0 90 35 60
        E 240 80 35 00
        E 0 90 33 60
        E 120 90 43 7f
        E 120 80 33 00
        E 0 90 30 60
        E 120 80 43 00
        E 0 90 43 7f
        E 120 80 30 00
        E 0 90 30 60
        E 120 80 43 00
        E 0 90 4e 60
        E 0 90 51 60
        E 0 90 52 60
        E 0 90 43 7f
        E 120 80 30 00
        E 0 90 33 60
        E 120 80 4e 00
        E 0 80 51 00
        E 0 80 52 00
        E 0 80 43 00
        E 0 90 4e 60
        E 0 90 51 60
        E 0 90 52 60
        E 120 80 33 00
        E 0 90 35 60
        E 120 80 4e 00
        E 0 80 51 00
        E 0 80 52 00
        E 120 80 35 00
        E 0 90 38 60
        E 120 90 43 7f
        E 120 80 38 00
        E 0 90 3b 60
        E 0 90 3c 7f
        E 120 80 43 00
        E 0 90 43 7f
        E 120 80 3b 00
        E 0 90 38 60
        E 0 90 4b 7f
        E 120 80 3c 00
        E 0 80 43 00
        E 0 80 4b 00
        E 0 90 43 7f
        E 120 80 38 00
        E 0 90 35 60
        E 120 80 43 00
        E 120 80 35 00
        E 0 90 33 60
        E 240 80 33 00
        E 0 90 30 60
        E 0 90 48 7f
        E 120 90 43 7f
        E 120 80 30 00
        E 0 80 48 00
        E 0 90 30 60
        E 0 90 4e 7f
        E 120 80 43 00
        E 0 90 43 7f
        E 120 80 30 00
        E 0 80 4e 00
        E 0 90 33 60
        E 120 80 43 00
        E 0 90 43 7f
        E 120 80 33 00
        E 0 90 35 60
        E 120 80 43 00
        E 120 80 35 00
        E 0 90 38 60
        E 240 80 38 00
        E 0 90 3b 60
        E 240 80 3b 00
        E 3960 90 2e 60
        E 0 90 2a 60
        E 0 90 2b 60
        E 0 90 2c 60
        E 0 90 2d 60
        E 0 90 2f 60
        E 0 90 30 60
        E 0 90 31 60
        E 0 90 32 60
        E 0 90 33 60
        E 0 90 34 60
        E 0 90 35 60
        E 0 90 36 60
        E 0 90 37 60
        E 0 90 38 60
        E 0 90 39 60
        E 0 90 3a 60
        E 0 90 3b 60
        E 0 90 3c 60
        E 0 90 3d 60
        E 0 90 3e 60
        E 0 90 3f 60
        E 0 90 44 60
        E 0 90 40 60
        E 0 90 41 60
        E 0 90 42 60
        E 0 90 43 60
        E 0 90 45 60
        E 0 90 46 60
        E 0 90 47 60
        E 0 90 48 60
        E 0 90 49 60
        E 0 90 4a 60
        E 0 90 4b 60
        E 0 90 4c 60
        E 0 90 4d 60
        E 0 90 4e 60
        E 0 90 4f 60
        E 0 90 50 60
        E 0 90 51 60
        E 0 90 52 60
        E 480 80 2e 00
        E 0 80 2a 00
        E 0 80 2b 00
        E 0 80 2c 00
        E 0 80 2d 00
        E 0 80 2f 00
        E 0 80 30 00
        E 0 80 31 00
        E 0 80 32 00
        E 0 80 33 00
        E 0 80 34 00
        E 0 80 35 00
        E 0 80 36 00
        E 0 80 37 00
        E 0 80 38 00
        E 0 80 39 00
        E 0 80 3a 00
        E 0 80 3b 00
        E 0 80 3c 00
        E 0 80 3d 00
        E 0 80 3e 00
        E 0 80 3f 00
        E 0 80 44 00
        E 0 80 40 00
        E 0 80 41 00
        E 0 80 42 00
        E 0 80 43 00
        E 0 80 45 00
        E 0 80 46 00
        E 0 80 47 00
        E 0 80 48 00
        E 0 80 49 00
        E 0 80 4a 00
        E 0 80 4b 00
        E 0 80 4c 00
        E 0 80 4d 00
        E 0 80 4e 00
        E 0 80 4f 00
        E 0 80 50 00
        E 0 80 51 00
        E 0 80 52 00
        E 480 90 2e 60
        E 0 90 2a 60
        E 0 90 2b 60
        E 0 90 2c 60
        E 0 90 2d 60
        E 0 90 2f 60
        E 0 90 30 60
        E 0 90 31 60
        E 0 90 32 60
        E 0 90 33 60
        E 0 90 34 60
        E 0 90 35 60
        E 0 90 36 60
        E 0 90 37 60
        E 0 90 38 60
        E 0 90 39 60
        E 0 90 3a 60
        E 0 90 3b 60
        E 0 90 3c 60
        E 0 90 3d 60
        E 0 90 3e 60
        E 0 90 3f 60
        E 0 90 44 60
        E 0 90 40 60
        E 0 90 41 60
        E 0 90 42 60
        E 0 90 43 60
        E 0 90 45 60
        E 0 90 46 60
        E 0 90 47 60
        E 0 90 48 60
        E 0 90 49 60
        E 0 90 4a 60
        E 0 90 4b 60
        E 0 90 4c 60
        E 0 90 4d 60
        E 0 90 4e 60
        E 0 90 4f 60
        E 0 90 50 60
        E 0 90 51 60
        E 0 90 52 60
        E 480 80 2e 00
        E 0 80 2a 00
        E 0 80 2b 00
        E 0 80 2c 00
        E 0 80 2d 00
        E 0 80 2f 00
        E 0 80 30 00
        E 0 80 31 00
        E 0 80 32 00
        E 0 80 33 00
        E 0 80 34 00
        E 0 80 35 00
        E 0 80 36 00
        E 0 80 37 00
        E 0 80 38 00
        E 0 80 39 00
        E 0 80 3a 00
        E 0 80 3b 00
        E 0 80 3c 00
        E 0 80 3d 00
        E 0 80 3e 00
        E 0 80 3f 00
        E 0 80 44 00
        E 0 80 40 00
        E 0 80 41 00
        E 0 80 42 00
        E 0 80 43 00
        E 0 80 45 00
        E 0 80 46 00
        E 0 80 47 00
        E 0 80 48 00
        E 0 80 49 00
        E 0 80 4a 00
        E 0 80 4b 00
        E 0 80 4c 00
        E 0 80 4d 00
        E 0 80 4e 00
        E 0 80 4f 00
        E 0 80 50 00
        E 0 80 51 00
        E 0 80 52 00
        E 480 90 2e 60
        E 0 90 2a 60
        E 0 90 2b 60
        E 0 90 2c 60
        E 0 90 2d 60
        E 0 90 2f 60
        E 0 90 30 60
        E 0 90 31 60
        E 0 90 32 60
        E 0 90 33 60
        E 0 90 34 60
        E 0 90 35 60
        E 0 90 36 60
        E 0 90 37 60
        E 0 90 38 60
        E 0 90 39 60
        E 0 90 3a 60
        E 0 90 3b 60
        E 0 90 3c 60
        E 0 90 3d 60
        E 0 90 3e 60
        E 0 90 3f 60
        E 0 90 44 60
        E 0 90 40 60
        E 0 90 41 60
        E 0 90 42 60
        E 0 90 43 60
        E 0 90 45 60
        E 0 90 46 60
        E 0 90 47 60
        E 0 90 48 60
        E 0 90 49 60
        E 0 90 4a 60
        E 0 90 4b 60
        E 0 90 4c 60
        E 0 90 4d 60
        E 0 90 4e 60
        E 0 90 4f 60
        E 0 90 50 60
        E 0 90 51 60
        E 0 90 52 60
        E 480 80 2e 00
        E 0 80 2a 00
        E 0 80 2b 00
        E 0 80 2c 00
        E 0 80 2d 00
        E 0 80 2f 00
        E 0 80 30 00
        E 0 80 31 00
        E 0 80 32 00
        E 0 80 33 00
        E 0 80 34 00
        E 0 80 35 00
        E 0 80 36 00
        E 0 80 37 00
        E 0 80 38 00
        E 0 80 39 00
        E 0 80 3a 00
        E 0 80 3b 00
        E 0 80 3c 00
        E 0 80 3d 00
        E 0 80 3e 00
        E 0 80 3f 00
        E 0 80 44 00
        E 0 80 40 00
        E 0 80 41 00
        E 0 80 42 00
        E 0 80 43 00
        E 0 80 45 00
        E 0 80 46 00
        E 0 80 47 00
        E 0 80 48 00
        E 0 80 49 00
        E 0 80 4a 00
        E 0 80 4b 00
        E 0 80 4c 00
        E 0 80 4d 00
        E 0 80 4e 00
        E 0 80 4f 00
        E 0 80 50 00
        E 0 80 51 00
        E 0 80 52 00
        E 480 90 2e 60
        E 0 90 2a 60
        E 0 90 2b 60
        E 0 90 2c 60
        E 0 90 2d 60
        E 0 90 2f 60
        E 0 90 30 60
        E 0 90 31 60
        E 0 90 32 60
        E 0 90 33 60
        E 0 90 34 60
        E 0 90 35 60
        E 0 90 36 60
        E 0 90 37 60
        E 0 90 38 60
        E 0 90 39 60
        E 0 90 3a 60
        E 0 90 3b 60
        E 0 90 3c 60
        E 0 90 3d 60
        E 0 90 3e 60
        E 0 90 3f 60
        E 0 90 44 60
        E 0 90 40 60
        E 0 90 41 60
        E 0 90 42 60
        E 0 90 43 60
        E 0 90 45 60
        E 0 90 46 60
        E 0 90 47 60
        E 0 90 48 60
        E 0 90 49 60
        E 0 90 4a 60
        E 0 90 4b 60
        E 0 90 4c 60
        E 0 90 4d 60
        E 0 90 4e 60
        E 0 90 4f 60
        E 0 90 50 60
        E 0 90 51 60
        E 0 90 52 60
        E 480 80 2e 00
        E 0 80 2a 00
        E 0 80 2b 00
        E 0 80 2c 00
        E 0 80 2d 00
        E 0 80 2f 00
        E 0 80 30 00
        E 0 80 31 00
        E 0 80 32 00
        E 0 80 33 00
        E 0 80 34 00
        E 0 80 35 00
        E 0 80 36 00
        E 0 80 37 00
        E 0 80 38 00
        E 0 80 39 00
        E 0 80 3a 00
        E 0 80 3b 00
        E 0 80 3c 00
        E 0 80 3d 00
        E 0 80 3e 00
        E 0 80 3f 00
        E 0 80 44 00
        E 0 80 40 00
        E 0 80 41 00
        E 0 80 42 00
        E 0 80 43 00
        E 0 80 45 00
        E 0 80 46 00
        E 0 80 47 00
        E 0 80 48 00
        E 0 80 49 00
        E 0 80 4a 00
        E 0 80 4b 00
        E 0 80 4c 00
        E 0 80 4d 00
        E 0 80 4e 00
        E 0 80 4f 00
        E 0 80 50 00
        E 0 80 51 00
        E 0 80 52 00
        E 480 90 2e 60
        E 0 90 2a 60
        E 0 90 2b 60
        E 0 90 2c 60
        E 0 90 2d 60
        E 0 90 2f 60
        E 0 90 30 60
        E 0 90 31 60
        E 0 90 32 60
        E 0 90 33 60
        E 0 90 34 60
        E 0 90 35 60
        E 0 90 36 60
        E 0 90 37 60
        E 0 90 38 60
        E 0 90 39 60
        E 0 90 3a 60
        E 0 90 3b 60
        E 0 90 3c 60
        E 0 90 3d 60
        E 0 90 3e 60
        E 0 90 3f 60
        E 0 90 44 60
        E 0 90 40 60
        E 0 90 41 60
        E 0 90 42 60
        E 0 90 43 60
        E 0 90 45 60
        E 0 90 46 60
        E 0 90 47 60
        E 0 90 48 60
        E 0 90 49 60
        E 0 90 4a 60
        E 0 90 4b 60
        E 0 90 4c 60
        E 0 90 4d 60
        E 0 90 4e 60
        E 0 90 4f 60
        E 0 90 50 60
        E 0 90 51 60
        E 0 90 52 60
        E 480 80 2e 00
        E 0 80 2a 00
        E 0 80 2b 00
        E 0 80 2c 00
        E 0 80 2d 00
        E 0 80 2f 00
        E 0 80 30 00
        E 0 80 31 00
        E 0 80 32 00
        E 0 80 33 00
        E 0 80 34 00
        E 0 80 35 00
        E 0 80 36 00
        E 0 80 37 00
        E 0 80 38 00
        E 0 80 39 00
        E 0 80 3a 00
        E 0 80 3b 00
        E 0 80 3c 00
        E 0 80 3d 00
        E 0 80 3e 00
        E 0 80 3f 00
        E 0 80 44 00
        E 0 80 40 00
        E 0 80 41 00
        E 0 80 42 00
        E 0 80 43 00
        E 0 80 45 00
        E 0 80 46 00
        E 0 80 47 00
        E 0 80 48 00
        E 0 80 49 00
        E 0 80 4a 00
        E 0 80 4b 00
        E 0 80 4c 00
        E 0 80 4d 00
        E 0 80 4e 00
        E 0 80 4f 00
        E 0 80 50 00
        E 0 80 51 00
        E 0 80 52 00
        E 480 90 2e 60
        E 0 90 2a 60
        E 0 90 2b 60
        E 0 90 2c 60
        E 0 90 2d 60
        E 0 90 2f 60
        E 0 90 30 60
        E 0 90 31 60
        E 0 90 32 60
        E 0 90 33 60
        E 0 90 34 60
        E 0 90 35 60
        E 0 90 36 60
        E 0 90 37 60
        E 0 90 38 60
        E 0 90 39 60
        E 0 90 3a 60
        E 0 90 3b 60
        E 0 90 3c 60
        E 0 90 3d 60
        E 0 90 3e 60
        E 0 90 3f 60
        E 0 90 44 60
        E 0 90 40 60
        E 0 90 41 60
        E 0 90 42 60
        E 0 90 43 60
        E 0 90 45 60
        E 0 90 46 60
        E 0 90 47 60
        E 0 90 48 60
        E 0 90 49 60
        E 0 90 4a 60
        E 0 90 4b 60
        E 0 90 4c 60
        E 0 90 4d 60
        E 0 90 4e 60
        E 0 90 4f 60
        E 0 90 50 60
        E 0 90 51 60
        E 0 90 52 60
        E 480 80 2e 00
        E 0 80 2a 00
        E 0 80 2b 00
        E 0 80 2c 00
        E 0 80 2d 00
        E 0 80 2f 00
        E 0 80 30 00
        E 0 80 31 00
        E 0 80 32 00
        E 0 80 33 00
        E 0 80 34 00
        E 0 80 35 00
        E 0 80 36 00
        E 0 80 37 00
        E 0 80 38 00
        E 0 80 39 00
        E 0 80 3a 00
        E 0 80 3b 00
        E 0 80 3c 00
        E 0 80 3d 00
        E 0 80 3e 00
        E 0 80 3f 00
        E 0 80 44 00
        E 0 80 40 00
        E 0 80 41 00
        E 0 80 42 00
        E 0 80 43 00
        E 0 80 45 00
        E 0 80 46 00
        E 0 80 47 00
        E 0 80 48 00
        E 0 80 49 00
        E 0 80 4a 00
        E 0 80 4b 00
        E 0 80 4c 00
        E 0 80 4d 00
        E 0 80 4e 00
        E 0 80 4f 00
        E 0 80 50 00
        E 0 80 51 00
        E 0 80 52 00
        E 480 90 2e 60
        E 0 90 2a 60
        E 0 90 2b 60
        E 0 90 2c 60
        E 0 90 2d 60
        E 0 90 2f 60
        E 0 90 30 60
        E 0 90 31 60
        E 0 90 32 60
        E 0 90 33 60
        E 0 90 34 60
        E 0 90 35 60
        E 0 90 36 60
        E 0 90 37 60
        E 0 90 38 60
        E 0 90 39 60
        E 0 90 3a 60
        E 0 90 3b 60
        E 0 90 3c 60
        E 0 90 3d 60
        E 0 90 3e 60
        E 0 90 3f 60
        E 0 90 44 60
        E 0 90 40 60
        E 0 90 41 60
        E 0 90 42 60
        E 0 90 43 60
        E 0 90 45 60
        E 0 90 46 60
        E 0 90 47 60
        E 0 90 48 60
        E 0 90 49 60
        E 0 90 4a 60
        E 0 90 4b 60
        E 0 90 4c 60
        E 0 90 4d 60
        E 0 90 4e 60
        E 0 90 4f 60
        E 0 90 50 60
        E 0 90 51 60
        E 0 90 52 60
        E 480 80 2e 00
        E 0 80 2a 00
        E 0 80 2b 00
        E 0 80 2c 00
        E 0 80 2d 00
        E 0 80 2f 00
        E 0 80 30 00
        E 0 80 31 00
        E 0 80 32 00
        E 0 80 33 00
        E 0 80 34 00
        E 0 80 35 00
        E 0 80 36 00
        E 0 80 37 00
        E 0 80 38 00
        E 0 80 39 00
        E 0 80 3a 00
        E 0 80 3b 00
        E 0 80 3c 00
        E 0 80 3d 00
        E 0 80 3e 00
        E 0 80 3f 00
        E 0 80 44 00
        E 0 80 40 00
        E 0 80 41 00
        E 0 80 42 00
        E 0 80 43 00
        E 0 80 45 00
        E 0 80 46 00
        E 0 80 47 00
        E 0 80 48 00
        E 0 80 49 00
        E 0 80 4a 00
        E 0 80 4b 00
        E 0 80 4c 00
        E 0 80 4d 00
        E 0 80 4e 00
        E 0 80 4f 00
        E 0 80 50 00
        E 0 80 51 00
        E 0 80 52 00
        E 480 90 2e 60
        E 0 90 2a 60
        E 0 90 2b 60
        E 0 90 2c 60
        E 0 90 2d 60
        E 0 90 2f 60
        E 0 90 30 60
        E 0 90 31 60
        E 0 90 32 60
        E 0 90 33 60
        E 0 90 34 60
        E 0 90 35 60
        E 0 90 36 60
        E 0 90 37 60
        E 0 90 38 60
        E 0 90 39 60
        E 0 90 3a 60
        E 0 90 3b 60
        E 0 90 3c 60
        E 0 90 3d 60
        E 0 90 3e 60
        E 0 90 3f 60
        E 0 90 44 60
        E 0 90 40 60
        E 0 90 41 60
        E 0 90 42 60
        E 0 90 43 60
        E 0 90 45 60
        E 0 90 46 60
        E 0 90 47 60
        E 0 90 48 60
        E 0 90 49 60
        E 0 90 4a 60
        E 0 90 4b 60
        E 0 90 4c 60
        E 0 90 4d 60
        E 0 90 4e 60
        E 0 90 4f 60
        E 0 90 50 60
        E 0 90 51 60
        E 0 90 52 60
        E 480 80 2e 00
        E 0 80 2a 00
        E 0 80 2b 00
        E 0 80 2c 00
        E 0 80 2d 00
        E 0 80 2f 00
        E 0 80 30 00
        E 0 80 31 00
        E 0 80 32 00
        E 0 80 33 00
        E 0 80 34 00
        E 0 80 35 00
        E 0 80 36 00
        E 0 80 37 00
        E 0 80 38 00
        E 0 80 39 00
        E 0 80 3a 00
        E 0 80 3b 00
        E 0 80 3c 00
        E 0 80 3d 00
        E 0 80 3e 00
        E 0 80 3f 00
        E 0 80 44 00
        E 0 80 40 00
        E 0 80 41 00
        E 0 80 42 00
        E 0 80 43 00
        E 0 80 45 00
        E 0 80 46 00
        E 0 80 47 00
        E 0 80 48 00
        E 0 80 49 00
        E 0 80 4a 00
        E 0 80 4b 00
        E 0 80 4c 00
        E 0 80 4d 00
        E 0 80 4e 00
        E 0 80 4f 00
        E 0 80 50 00
        E 0 80 51 00
        E 0 80 52 00
        E 8160 90 40 60
        E 0 90 41 60
        E 0 90 52 60
        E 0 90 53 60
        E 0 90 3b 60
        E 0 90 51 60
        E 0 90 37 60
        E 0 90 4a 60
        E 0 90 38 60
        E 0 90 42 60
        E 0 90 49 60
        E 120 90 3a 60
        E 0 90 39 60
        E 15120 90 4d 60
        E 120 90 4e 60
        E 7680 90 43 60
        E 7560 90 48 60
        E 23280 90 46 60
        E 52920 90 50 60
        E 12240 90 4c 60
        E 69120 80 40 00
        E 0 80 41 00
        E 0 80 52 00
        E 0 80 53 00
        E 0 80 3b 00
        E 0 80 51 00
        E 0 80 37 00
        E 0 80 4a 00
        E 0 80 38 00
        E 0 80 42 00
        E 0 80 49 00
        E 0 80 3a 00
        E 0 80 39 00
        E 0 80 4d 00
        E 0 80 4e 00
        E 0 80 43 00
        E 0 80 48 00
        E 0 80 46 00
        E 0 80 50 00
        E 0 80 4c 00
        E 330240 90 52 7f
        E 0 90 46 7f
        E 120 90 47 7f
        E 720 90 4f 7f
        E 0 90 50 7f
        E 120 80 4f 00
        E 0 80 50 00
        E 0 90 4f 7f
        E 120 80 4f 00
        E 0 90 4f 7f
        E 0 90 50 7f
        E 120 80 4f 00
        E 0 90 4f 7f
        E 120 80 50 00
        E 0 80 4f 00
        E 0 90 4f 7f
        E 120 80 4f 00
        E 0 90 4f 7f
        E 0 90 50 7f
        E 120 80 4f 00
        E 0 80 50 00
        E 0 90 4f 7f
        E 120 80 4f 00
        E 0 90 4f 7f
        E 0 90 50 7f
        E 120 80 4f 00
        E 0 80 50 00
        E 0 90 4f 7f
        E 120 80 4f 00
        E 0 90 4f 7f
        E 0 90 50 7f
        E 120 80 4f 00
        E 0 80 50 00
        E 0 90 4f 7f
        E 120 80 4f 00
        E 0 90 4f 7f
        E 0 90 50 7f
        E 120 80 4f 00
        E 0 80 50 00
        E 0 90 4f 7f
        E 0 90 50 7f
        E 120 80 4f 00
        E 0 80 50 00
        E 0 90 4f 7f
        E 120 80 4f 00
        E 0 90 4f 7f
        E 0 90 51 7f
        E 120 80 4f 00
        E 0 90 4f 7f
        E 0 90 50 7f
        E 120 80 51 00
        E 0 80 4f 00
        E 0 80 50 00
        E 0 90 4f 7f
        E 0 90 50 7f
        E 120 80 4f 00
        E 0 80 50 00
        E 0 90 4f 7f
        E 0 90 51 7f
        E 120 80 4f 00
        E 0 80 51 00
        E 0 90 4f 7f
        E 0 90 50 7f
        E 0 90 51 7f
        E 120 80 4f 00
        E 0 80 51 00
        E 0 90 4f 7f
        E 120 80 4f 00
        E 0 90 4f 7f
        E 0 90 51 7f
        E 120 80 4f 00
        E 0 90 4f 7f
        E 120 80 50 00
        E 0 80 51 00
        E 0 80 4f 00
        E 0 90 4f 7f
        E 120 80 4f 00
        E 0 90 4f 7f
        E 0 90 51 7f
        E 120 80 4f 00
        E 0 90 50 7f
        E 120 80 51 00
        E 120 90 51 7f
        E 120 80 51 00
        E 0 90 51 7f
        E 120 80 50 00
        E 0 80 51 00
        E 120 90 51 7f
        E 120 90 50 7f
        E 120 80 51 00
        E 120 90 4f 7f
        E 0 90 51 7f
        E 120 80 4f 00
        E 0 90 4f 7f
        E 120 80 50 00
        E 0 80 51 00
        E 0 80 4f 00
        E 0 90 4f 7f
        E 120 80 4f 00
        E 0 90 4f 7f
        E 0 90 51 7f
        E 120 80 4f 00
        E 0 80 51 00
        E 0 90 4f 7f
        E 0 90 50 7f
        E 0 90 51 7f
        E 120 80 4f 00
        E 0 80 51 00
        E 0 90 4f 7f
        E 0 90 4f 7f
        E 120 80 4f 00
        E 0 90 4f 7f
        E 0 90 51 7f
        E 120 80 4f 00
        E 0 90 4f 7f
        E 120 80 50 00
        E 0 80 4f 00
        E 0 80 51 00
        E 0 90 4f 7f
        E 120 80 4f 00
        E 0 90 4f 7f
        E 0 90 50 7f
        E 0 90 51 7f
        E 120 80 4f 00
        E 0 90 4f 7f
        E 120 80 4f 00
        E 0 80 51 00
        E 0 90 4f 7f
        E 120 80 4f 00
        E 0 80 4f 00
        E 0 90 4f 7f
        E 0 90 51 7f
        E 120 80 50 00
        E 0 80 4f 00
        E 0 80 51 00
        E 0 90 4f 7f
        E 0 90 51 7f
        E 120 80 4f 00
        E 0 80 51 00
        E 0 90 4f 7f
        E 0 90 50 7f
        E 120 80 4f 00
        E 0 90 4f 7f
        E 0 90 51 7f
        E 120 80 4f 00
        E 0 90 4f 7f
        E 120 80 50 00
        E 0 80 51 00
        E 0 80 4f 00
        E 0 90 4f 7f
        E 120 80 4f 00
        E 0 90 4f 7f
        E 0 90 51 7f
        E 120 80 4f 00
        E 0 80 51 00
        E 0 90 50 7f
        E 0 90 4f 7f
        E 0 90 51 7f
        E 120 80 50 00
        E 0 80 4f 00
        E 0 80 51 00
        E 0 90 4f 7f
        E 0 90 51 7f
        E 120 80 4f 00
        E 0 80 51 00
        E 0 90 4f 7f
        E 0 90 51 7f
        E 120 80 4f 00
        E 0 80 51 00
        E 0 90 4f 7f
        E 0 90 50 7f
        E 0 90 51 7f
        E 120 80 4f 00
        E 0 80 50 00
        E 0 80 51 00
        E 0 90 4f 7f
        E 0 90 50 7f
        E 0 90 51 7f
        E 120 80 4f 00
        E 0 80 50 00
        E 0 80 51 00
        E 0 90 4f 7f
        E 0 90 50 7f
        E 0 90 51 7f
        E 120 80 4f 00
        E 0 80 50 00
        E 0 80 51 00
        E 0 90 4f 7f
        E 0 90 50 7f
        E 0 90 51 7f
        E 120 80 4f 00
        E 0 80 50 00
        E 0 80 51 00
        E 0 90 4f 7f
        E 0 90 50 7f
        E 0 90 51 7f
        E 120 80 4f 00
        E 0 80 50 00
        E 0 80 51 00
        E 0 90 4f 7f
        E 0 90 50 7f
        E 0 90 51 7f
        E 120 80 4f 00
        E 0 80 50 00
        E 0 80 51 00
        E 0 90 4f 7f
        E 0 90 50 7f
        E 0 90 51 7f
        E 120 80 4f 00
        E 0 80 50 00
        E 0 80 51 00
        E 0 90 4f 7f
        E 0 90 50 7f
        E 0 90 51 7f
        E 120 80 4f 00
        E 0 80 50 00
        E 0 80 51 00
        E 0 90 4f 7f
        E 0 90 50 7f
        E 0 90 51 7f
        E 120 80 4f 00
        E 0 80 50 00
        E 0 80 51 00
        E 0 90 4f 7f
        E 0 90 50 7f
        E 0 90 51 7f
        E 120 80 4f 00
        E 0 80 50 00
        E 0 80 51 00
        E 0 90 4f 7f
        E 0 90 50 7f
        E 120 80 4f 00
        E 0 80 50 00
        E 0 90 4f 7f
        E 0 90 50 7f
        E 0 90 51 7f
        E 120 80 4f 00
        E 0 80 50 00
        E 0 80 51 00
        E 0 90 4f 7f
        E 0 90 50 7f
        E 120 80 4f 00
        E 0 80 50 00
        E 0 90 4f 7f
        E 0 90 50 7f
        E 0 90 51 7f
        E 120 80 4f 00
        E 0 80 50 00
        E 0 90 4f 7f
        E 0 90 50 7f
        E 120 80 51 00
        E 0 80 4f 00
        E 0 80 50 00
        E 0 90 4f 7f
        E 0 90 51 7f
        E 120 80 4f 00
        E 0 80 51 00
        E 0 90 4f 7f
        E 120 80 4f 00
        E 0 90 4f 7f
        E 0 90 51 7f
        E 120 80 4f 00
        E 0 90 4f 7f
        E 120 80 4f 00
        E 0 90 4f 7f
        E 120 80 51 00
        E 0 80 4f 00
        E 0 90 4f 7f
        E 120 80 4f 00
        E 0 90 4f 7f
        E 0 90 51 7f
        E 120 80 4f 00
        E 0 80 51 00
        E 0 90 4f 7f
        E 0 90 51 7f
        E 120 80 4f 00
        E 0 80 51 00
        E 0 90 4f 7f
        E 0 90 51 7f
        E 120 80 4f 00
        E 0 80 51 00
        E 0 90 4f 7f
        E 0 90 51 7f
        E 120 80 4f 00
        E 0 80 51 00
        E 0 90 4f 7f
        E 0 90 51 7f
        E 120 80 4f 00
        E 0 80 51 00
        E 0 90 4f 7f
        E 0 90 51 7f
        E 120 80 4f 00
        E 0 80 51 00
        E 0 90 4f 7f
        E 0 90 51 7f
        E 120 80 4f 00
        E 0 80 51 00
        E 0 90 4f 7f
        E 120 80 4f 00
        E 0 90 4f 7f
        E 0 90 51 7f
        E 0 90 50 7f
        E 120 80 4f 00
        E 0 80 50 00
        E 0 90 4f 7f
        E 0 90 50 7f
        E 120 80 4f 00
        E 0 80 50 00
        E 0 90 4f 7f
        E 0 90 50 7f
        E 120 80 51 00
        E 0 80 4f 00
        E 0 80 50 00
        E 0 90 4f 7f
        E 0 90 50 7f
        E 120 80 4f 00
        E 0 80 50 00
        E 0 90 51 7f
        E 0 90 4f 7f
        E 0 90 50 7f
        E 120 80 51 00
        E 0 80 4f 00
        E 0 80 50 00
        E 0 90 4f 7f
        E 0 90 50 7f
        E 120 80 4f 00
        E 0 80 50 00
        E 0 90 4f 7f
        E 0 90 51 7f
        E 0 90 50 7f
        E 120 80 4f 00
        E 0 80 50 00
        E 0 90 4f 7f
        E 0 90 50 7f
        E 120 80 4f 00
        E 0 80 50 00
        E 0 90 4f 7f
        E 0 90 50 7f
        E 120 80 4f 00
        E 0 80 50 00
        E 0 90 4f 7f
        E 0 90 50 7f
        E 120 80 51 00
        E 0 80 4f 00
        E 0 80 50 00
        E 0 90 4f 7f
        E 0 90 50 7f
        E 120 80 4f 00
        E 0 80 50 00
        E 0 90 4f 7f
        E 0 90 51 77
        E 0 90 50 7f
        E 120 80 4f 00
        E 0 80 51 00
        E 0 80 50 00
        E 0 90 4f 7f
        E 0 90 51 77
        E 0 90 50 7f
        E 120 80 4f 00
        E 0 80 51 00
        E 0 80 50 00
        E 0 90 4f 7f
        E 0 90 51 77
        E 0 90 50 7f
        E 120 80 4f 00
        E 0 80 51 00
        E 0 80 50 00
        E 0 90 4f 7f
        E 0 90 50 7f
        E 120 80 4f 00
        E 0 80 50 00
        E 0 90 4f 7f
        E 0 90 51 77
        E 120 80 4f 00
        E 0 80 51 00
        E 0 90 4f 7f
        E 0 90 51 77
        E 120 80 4f 00
        E 0 80 51 00
        E 0 90 4f 7f
        E 0 90 51 77
        E 120 80 4f 00
        E 0 80 51 00
        E 0 90 4f 7f
        E 120 80 4f 00
        E 0 90 4f 7f
        E 0 90 51 77
        E 120 80 4f 00
        E 0 80 51 00
        E 0 90 4f 7f
        E 0 90 51 77
        E 120 80 4f 00
        E 0 80 51 00
        E 0 90 4f 7f
        E 120 80 4f 00
        E 0 90 4f 7f
        E 0 90 51 77
        E 120 80 4f 00
        E 0 80 51 00
        E 0 90 4f 7f
        E 0 90 51 77
        E 120 80 4f 00
        E 0 80 51 00
        E 0 90 4f 7f
        E 0 90 51 77
        E 120 80 4f 00
        E 0 80 51 00
        E 0 90 4f 7f
        E 120 80 4f 00
        E 0 90 4f 7f
        E 0 90 51 77
        E 120 80 4f 00
        E 0 80 51 00
        E 0 90 4f 7f
        E 0 90 51 77
        E 120 80 4f 00
        E 0 80 51 00
        E 0 90 4f 7f
        E 0 90 51 77
        E 120 80 4f 00
        E 0 80 51 00
        E 0 90 4f 7f
        E 120 80 4f 00
        E 0 90 4f 7f
        E 0 90 51 77
        E 120 80 4f 00
        E 0 80 51 00
        E 0 90 4f 7f
        E 0 90 51 77
        E 120 80 4f 00
        E 0 80 51 00
        E 0 90 4f 7f
        E 0 90 51 77
        E 0 90 50 7f
        E 120 80 4f 00
        E 0 80 51 00
        E 0 80 50 00
        E 0 90 4f 7f
        E 0 90 51 77
        E 120 80 4f 00
        E 0 80 51 00
        E 0 90 50 7f
        E 0 90 4f 7f
        E 0 90 51 77
        E 120 80 4f 00
        E 0 80 51 00
        E 0 90 4f 7f
        E 120 80 4f 00
        E 0 90 4f 7f
        E 0 90 51 77
        E 120 80 4f 00
        E 0 80 51 00
        E 0 90 4f 7f
        E 0 90 51 77
        E 120 80 4f 00
        E 0 80 51 00
        E 0 90 4f 7f
        E 0 90 51 77
        E 120 80 4f 00
        E 0 80 51 00
        E 0 90 4f 7f
        E 120 80 4f 00
        E 0 90 51 77
        E 120 80 51 00
        E 0 90 51 77
        E 120 80 50 00
        E 0 80 51 00
        E 0 90 51 77
        E 360 80 51 00
        E 0 90 51 77
        E 0 90 50 7f
        E 120 80 51 00
        E 120 90 51 77
        E 240 80 50 00
        E 0 80 51 00
        E 0 90 50 7f
        E 120 80 50 00
        E 0 90 51 77
        E 0 90 50 7f
        E 0 90 4f 7f
        E 120 80 51 00
        E 0 80 50 00
        E 0 80 4f 00
        E 0 90 50 7f
        E 0 90 4f 7f
        E 120 80 50 00
        E 0 80 4f 00
        E 0 90 51 77
        E 0 90 50 7f
        E 0 90 4f 7f
        E 120 80 50 00
        E 0 80 4f 00
        E 0 90 50 7f
        E 0 90 4f 7f
        E 120 80 51 00
        E 0 80 50 00
        E 0 80 4f 00
        E 0 90 50 7f
        E 0 90 4f 7f
        E 120 80 50 00
        E 0 80 4f 00
        E 0 90 51 77
        E 0 90 50 7f
        E 0 90 4f 7f
        E 120 80 50 00
        E 0 80 4f 00
        E 0 90 50 7f
        E 0 90 4f 7f
        E 120 80 50 00
        E 0 80 4f 00
        E 0 90 50 7f
        E 0 90 4f 7f
        E 120 80 51 00
        E 0 80 50 00
        E 0 80 4f 00
        E 0 90 50 7f
        E 0 90 4f 7f
        E 120 80 50 00
        E 0 80 4f 00
        E 0 90 51 77
        E 0 90 50 7f
        E 0 90 4f 7f
        E 120 80 51 00
        E 0 80 50 00
        E 0 80 4f 00
        E 0 90 50 7f
        E 0 90 4f 7f
        E 120 80 50 00
        E 0 80 4f 00
        E 0 90 51 7f
        E 0 90 50 7f
        E 0 90 4f 7f
        E 120 80 51 00
        E 0 80 50 00
        E 0 80 4f 00
        E 0 90 50 7f
        E 0 90 4f 7f
        E 120 80 50 00
        E 0 80 4f 00
        E 0 90 51 7f
        E 0 90 50 7f
        E 0 90 4f 7f
        E 120 80 51 00
        E 0 80 50 00
        E 0 80 4f 00
        E 0 90 50 7f
        E 0 90 4f 7f
        E 120 80 50 00
        E 0 80 4f 00
        E 0 90 51 7f
        E 0 90 50 7f
        E 0 90 4f 7f
        E 120 80 51 00
        E 0 80 50 00
        E 0 80 4f 00
        E 0 90 50 7f
        E 0 90 4f 7f
        E 120 80 50 00
        E 0 80 4f 00
        E 0 90 51 7f
        E 0 90 50 7f
        E 0 90 4f 7f
        E 120 80 50 00
        E 0 80 4f 00
        E 0 90 50 7f
        E 0 90 4f 7f
        E 120 80 51 00
        E 0 80 50 00
        E 0 80 4f 00
        E 0 90 50 7f
        E 120 80 50 00
        E 0 90 51 7f
        E 0 90 50 7f
        E 120 80 50 00
        E 0 90 50 7f
        E 120 80 51 00
        E 0 80 50 00
        E 0 90 50 7f
        E 0 90 51 7f
        E 120 80 50 00
        E 0 80 51 00
        E 0 90 50 7f
        E 0 90 51 7f
        E 120 80 50 00
        E 0 80 51 00
        E 0 90 50 7f
        E 0 90 51 7f
        E 120 80 50 00
        E 0 80 51 00
        E 0 90 51 7f
        E 0 90 50 7f
        E 120 80 51 00
        E 0 90 51 7f
        E 120 80 51 00
        E 0 90 51 7f
        E 120 80 51 00
        E 0 90 51 7f
        E 120 80 51 00
        E 0 90 51 7f
        E 120 80 51 00
        E 0 90 51 7f
        E 120 80 51 00
        E 0 90 51 7f
        E 120 80 51 00
        E 0 90 51 7f
        E 120 80 50 00
        E 0 80 51 00
        E 0 90 51 7f
        E 120 80 51 00
        E 0 90 51 7f
        E 120 80 51 00
        E 0 90 51 7f
        E 120 80 51 00
        E 0 90 51 7f
        E 0 90 50 7f
        E 120 80 51 00
        E 0 90 51 7f
        E 120 80 51 00
        E 0 90 51 7f
        E 120 80 51 00
        E 0 90 51 7f
        E 120 80 50 00
        E 0 80 51 00
        E 0 90 51 7f
        E 0 90 50 7f
        E 120 80 51 00
        E 0 80 50 00
        E 0 90 51 7f
        E 0 90 50 7f
        E 120 80 51 00
        E 0 80 50 00
        E 0 90 51 7f
        E 0 90 50 7f
        E 0 90 4f 7f
        E 120 80 51 00
        E 0 80 50 00
        E 0 80 4f 00
        E 0 90 51 7f
        E 0 90 50 7f
        E 0 90 4f 7f
        E 120 80 51 00
        E 0 80 50 00
        E 0 80 4f 00
        E 0 90 51 7f
        E 0 90 50 7f
        E 0 90 4f 7f
        E 120 80 51 00
        E 0 80 50 00
        E 0 80 4f 00
        E 0 90 51 7f
        E 0 90 50 7f
        E 0 90 4f 7f
        E 120 80 51 00
        E 0 80 50 00
        E 0 80 4f 00
        E 0 90 51 7f
        E 0 90 50 7f
        E 0 90 4f 7f
        E 120 80 51 00
        E 0 80 50 00
        E 0 80 4f 00
        E 0 90 51 7f
        E 0 90 50 7f
        E 0 90 4f 7f
        E 120 80 51 00
        E 0 80 50 00
        E 0 80 4f 00
        E 0 90 51 7f
        E 0 90 50 7f
        E 0 90 4f 7f
        E 120 80 51 00
        E 0 80 50 00
        E 0 80 4f 00
        E 0 90 51 7f
        E 0 90 50 7f
        E 0 90 4f 7f
        E 120 80 51 00
        E 0 80 50 00
        E 0 80 4f 00
        E 0 90 51 7f
        E 0 90 50 7f
        E 0 90 4f 7f
        E 120 80 51 00
        E 0 80 50 00
        E 0 80 4f 00
        E 0 90 51 7f
        E 0 90 4f 7f
        E 120 80 51 00
        E 0 80 4f 00
        E 0 90 51 7f
        E 0 90 4f 7f
        E 120 80 51 00
        E 0 80 4f 00
        E 0 90 51 7f
        E 0 90 4f 7f
        E 120 80 51 00
        E 0 80 4f 00
        E 0 90 51 7f
        E 0 90 4f 7f
        E 120 80 51 00
        E 0 80 4f 00
        E 0 90 51 7f
        E 0 90 4f 7f
        E 120 80 51 00
        E 0 80 4f 00
        E 0 90 51 7f
        E 0 90 4f 7f
        E 120 80 51 00
        E 0 80 4f 00
        E 0 90 51 7f
        E 0 90 50 7f
        E 0 90 4f 7f
        E 120 80 51 00
        E 0 80 50 00
        E 0 80 4f 00
        E 0 90 51 7f
        E 0 90 51 7f
        E 0 90 50 7f
        E 0 90 4f 7f
        E 120 80 51 00
        E 0 80 50 00
        E 0 80 4f 00
        E 0 90 51 7f
        E 0 90 50 7f
        E 0 90 4f 7f
        E 120 80 51 00
        E 0 80 50 00
        E 0 80 4f 00
        E 0 90 51 7f
        E 0 90 50 7f
        E 0 90 4f 7f
        E 120 80 51 00
        E 0 80 50 00
        E 0 80 4f 00
        E 0 90 51 7f
        E 0 90 50 7f
        E 0 90 4f 7f
        E 120 80 51 00
        E 0 80 50 00
        E 0 80 4f 00
        E 0 90 51 7f
        E 0 90 50 7f
        E 0 90 4f 7f
        E 120 80 51 00
        E 0 80 50 00
        E 0 80 4f 00
        E 0 90 51 7f
        E 0 90 50 7f
        E 0 90 4f 7f
        E 120 80 51 00
        E 0 80 50 00
        E 0 80 4f 00
        E 0 90 51 7f
        E 0 90 50 7f
        E 0 90 4f 7f
        E 120 80 51 00
        E 0 80 51 00
        E 0 80 50 00
        E 0 80 4f 00
        E 0 90 51 7f
        E 0 90 50 7f
        E 0 90 4f 7f
        E 120 80 51 00
        E 0 80 50 00
        E 0 80 4f 00
        E 0 90 51 7f
        E 0 90 4f 7f
        E 120 80 51 00
        E 0 80 4f 00
        E 0 90 51 7f
        E 0 90 4f 7f
        E 120 80 51 00
        E 0 80 4f 00
        E 0 90 51 7f
        E 0 90 50 77
        E 0 90 4f 7f
        E 120 80 51 00
        E 0 80 50 00
        E 0 80 4f 00
        E 0 90 51 7f
        E 0 90 50 77
        E 0 90 4f 7f
        E 120 80 51 00
        E 0 80 50 00
        E 0 80 4f 00
        E 0 90 51 7f
        E 0 90 50 77
        E 0 90 4f 7f
        E 120 80 51 00
        E 0 80 50 00
        E 0 80 4f 00
        E 0 90 51 7f
        E 0 90 4f 7f
        E 120 80 51 00
        E 0 80 4f 00
        E 0 90 51 7f
        E 0 90 50 77
        E 0 90 4f 7f
        E 120 80 51 00
        E 0 80 50 00
        E 0 80 4f 00
        E 0 90 51 7f
        E 0 90 50 77
        E 0 90 4f 7f
        E 120 80 51 00
        E 0 80 50 00
        E 0 80 4f 00
        E 0 90 51 7f
        E 0 90 50 77
        E 0 90 4f 7f
        E 120 80 51 00
        E 0 80 50 00
        E 0 80 4f 00
        E 0 90 51 7f
        E 0 90 4f 7f
        E 120 80 51 00
        E 0 80 4f 00
        E 0 90 51 7f
        E 0 90 50 77
        E 0 90 4f 7f
        E 120 80 51 00
        E 0 80 50 00
        E 0 80 4f 00
        E 0 90 51 7f
        E 0 90 50 77
        E 0 90 4f 7f
        E 120 80 51 00
        E 0 80 50 00
        E 0 80 4f 00
        E 0 90 4f 7f
        E 120 80 4f 00
        E 0 90 50 77
        E 0 90 4f 7f
        E 120 80 50 00
        E 0 80 4f 00
        E 0 90 50 77
        E 0 90 4f 7f
        E 120 80 50 00
        E 0 80 4f 00
        E 0 90 50 77
        E 0 90 4f 7f
        E 120 80 50 00
        E 0 80 4f 00
        E 0 90 4f 7f
        E 120 80 4f 00
        E 0 90 50 77
        E 0 90 4f 7f
        E 120 80 50 00
        E 0 80 4f 00
        E 0 90 50 77
        E 0 90 4f 7f
        E 120 80 50 00
        E 0 80 4f 00
        E 0 90 50 77
        E 0 90 4f 7f
        E 120 80 50 00
        E 0 80 4f 00
        E 0 90 4f 7f
        E 120 80 4f 00
        E 0 90 50 77
        E 0 90 4f 7f
        E 120 80 50 00
        E 0 80 4f 00
        E 0 90 50 77
        E 120 80 50 00
        E 0 90 50 77
        E 0 90 4f 7f
        E 120 80 50 00
        E 0 80 4f 00
        E 0 90 50 77
        E 0 90 4f 7f
        E 120 80 50 00
        E 0 80 4f 00
        E 0 90 50 77
        E 0 90 4f 7f
        E 120 80 50 00
        E 0 80 4f 00
        E 0 90 51 7f
        E 0 90 4f 7f
        E 120 80 51 00
        E 0 80 4f 00
        E 0 90 51 7f
        E 0 90 50 77
        E 0 90 4f 7f
        E 120 80 51 00
        E 0 80 50 00
        E 0 80 4f 00
        E 0 90 51 7f
        E 0 90 50 77
        E 0 90 4f 7f
        E 120 80 51 00
        E 0 80 50 00
        E 0 80 4f 00
        E 0 90 51 7f
        E 0 90 50 77
        E 0 90 4f 7f
        E 120 80 51 00
        E 0 80 50 00
        E 0 80 4f 00
        E 0 90 51 7f
        E 0 90 4f 77
        E 120 80 51 00
        E 0 80 4f 00
        E 0 90 51 7f
        E 0 90 50 77
        E 0 90 4f 77
        E 120 80 51 00
        E 0 80 50 00
        E 0 90 51 7f
        E 0 90 50 77
        E 120 80 51 00
        E 0 80 50 00
        E 0 90 51 7f
        E 0 90 50 77
        E 120 80 4f 00
        E 0 80 51 00
        E 0 90 51 7f
        E 0 90 4f 77
        E 120 80 51 00
        E 0 80 4f 00
        E 0 90 51 7f
        E 120 80 50 00
        E 0 80 51 00
        E 0 90 51 7f
        E 0 90 50 77
        E 0 90 4f 77
        E 120 80 51 00
        E 0 80 50 00
        E 0 90 51 7f
        E 120 80 4f 00
        E 0 80 51 00
        E 0 90 51 7f
        E 0 90 50 77
        E 120 80 51 00
        E 0 90 51 7f
        E 0 90 4f 77
        E 120 80 50 00
        E 0 80 51 00
        E 0 80 4f 00
        E 0 90 51 7f
        E 120 80 51 00
        E 0 90 51 7f
        E 0 90 50 77
        E 0 90 4f 77
        E 120 80 51 00
        E 0 80 50 00
        E 0 90 51 7f
        E 120 80 4f 00
        E 0 80 51 00
        E 0 90 51 7f
        E 0 90 50 77
        E 120 80 51 00
        E 0 90 51 7f
        E 0 90 4f 77
        E 120 80 50 00
        E 0 80 51 00
        E 0 90 51 7f
        E 120 80 51 00
        E 0 90 51 7f
        E 0 90 50 77
        E 120 80 4f 00
        E 0 80 51 00
        E 0 90 51 7f
        E 120 80 51 00
        E 0 90 51 7f
        E 0 90 4f 77
        E 120 80 50 00
        E 0 80 51 00
        E 0 80 4f 00
        E 0 90 51 7f
        E 120 80 51 00
        E 0 90 51 7f
        E 0 90 50 77
        E 0 90 4f 7f
        E 120 80 51 00
        E 0 80 50 00
        E 0 80 4f 00
        E 0 90 51 7f
        E 120 80 51 00
        E 0 90 51 7f
        E 0 90 50 7f
        E 120 80 51 00
        E 0 80 50 00
        E 0 90 51 7f
        E 0 90 4f 7f
        E 120 80 51 00
        E 0 90 51 7f
        E 0 90 50 7f
        E 120 80 4f 00
        E 0 80 51 00
        E 0 80 50 00
        E 0 90 51 7f
        E 120 80 51 00
        E 0 90 51 7f
        E 0 90 50 7f
        E 0 90 4f 7f
        E 120 80 51 00
        E 0 80 50 00
        E 0 80 4f 00
        E 0 90 51 7f
        E 120 80 51 00
        E 0 90 51 7f
        E 0 90 50 7f
        E 0 90 4f 7f
        E 120 80 51 00
        E 0 80 4f 00
        E 0 90 51 7f
        E 120 80 50 00
        E 0 80 51 00
        E 0 90 51 7f
        E 0 90 50 7f
        E 0 90 4f 7f
        E 120 80 51 00
        E 0 80 50 00
        E 0 80 4f 00
        E 0 90 51 7f
        E 120 80 51 00
        E 0 90 51 7f
        E 0 90 50 7f
        E 0 90 4f 7f
        E 120 80 51 00
        E 0 80 4f 00
        E 0 90 51 7f
        E 0 90 4f 7f
        E 120 80 50 00
        E 0 80 51 00
        E 0 80 4f 00
        E 0 90 51 7f
        E 120 80 51 00
        E 0 90 51 7f
        E 0 90 50 7f
        E 120 80 51 00
        E 0 80 50 00
        E 0 90 51 7f
        E 0 90 4f 7f
        E 120 80 51 00
        E 0 80 4f 00
        E 0 90 51 7f
        E 0 90 50 7f
        E 0 90 4f 7f
        E 120 80 51 00
        E 0 80 50 00
        E 0 80 4f 00
        E 0 90 51 7f
        E 120 80 51 00
        E 0 90 51 7f
        E 0 90 50 7f
        E 0 90 4f 7f
        E 120 80 51 00
        E 0 80 50 00
        E 0 90 51 7f
        E 120 80 51 00
        E 0 90 51 7f
        E 0 90 50 7f
        E 120 80 51 00
        E 0 80 50 00
        E 0 90 51 7f
        E 0 90 50 7f
        E 120 80 4f 00
        E 0 80 51 00
        E 0 80 50 00
        E 0 90 51 7f
        E 120 80 51 00
        E 0 90 51 7f
        E 120 80 51 00
        E 0 90 51 7f
        E 0 90 50 7f
        E 0 90 4f 7f
        E 120 80 51 00
        E 0 80 50 00
        E 0 90 51 7f
        E 0 90 50 7f
        E 120 80 51 00
        E 0 80 50 00
        E 0 90 51 7f
        E 120 80 51 00
        E 0 90 51 7f
        E 0 90 50 7f
        E 120 80 4f 00
        E 0 80 51 00
        E 0 90 51 7f
        E 120 80 51 00
        E 0 90 51 7f
        E 120 80 51 00
        E 0 90 51 7f
        E 0 90 4f 7f
        E 120 80 50 00
        E 0 80 51 00
        E 0 90 51 7f
        E 120 80 51 00
        E 0 90 51 7f
        E 120 80 51 00
        E 0 90 51 7f
        E 0 90 50 7f
        E 120 80 4f 00
        E 0 80 51 00
        E 0 90 51 7f
        E 120 80 51 00
        E 0 90 51 7f
        E 120 80 51 00
        E 0 90 51 7f
        E 0 90 4f 7f
        E 120 80 50 00
        E 0 80 51 00
        E 0 90 51 7f
        E 120 80 51 00
        E 0 90 51 7f
        E 120 80 51 00
        E 0 90 51 7f
        E 0 90 50 7f
        E 120 80 4f 00
        E 0 80 51 00
        E 0 90 51 7f
        E 120 80 51 00
        E 0 90 51 7f
        E 0 90 4f 7f
        E 120 80 51 00
        E 0 90 51 7f
        E 120 80 50 00
        E 0 80 51 00
        E 0 90 51 7f
        E 120 80 51 00
        E 0 90 51 7f
        E 120 80 4f 00
        E 0 80 51 00
        E 0 90 51 7f
        E 0 90 50 7f
        E 120 80 51 00
        E 0 90 51 7f
        E 120 80 51 00
        E 0 90 51 7f
        E 120 80 51 00
        E 0 90 51 7f
        E 120 80 50 00
        E 0 80 51 00
        E 0 90 51 7f
        E 120 80 51 00
        E 0 90 51 7f
        E 0 90 50 7f
        E 120 80 51 00
        E 0 90 51 7f
        E 120 80 51 00
        E 0 90 51 7f
        E 120 80 51 00
        E 0 90 51 7f
        E 0 90 4f 7f
        E 120 80 50 00
        E 0 80 51 00
        E 0 90 51 7f
        E 120 80 51 00
        E 0 90 51 7f
        E 0 90 50 7f
        E 120 80 4f 00
        E 0 80 51 00
        E 0 90 51 7f
        E 120 80 51 00
        E 0 90 51 7f
        E 120 80 50 00
        E 0 80 51 00
        E 0 90 51 7f
        E 0 90 4f 7f
        E 120 80 51 00
        E 0 80 4f 00
        E 0 90 51 7f
        E 120 80 51 00
        E 0 90 51 7f
        E 0 90 50 7f
        E 120 80 51 00
        E 0 80 50 00
        E 0 90 51 7f
        E 0 90 4f 7f
        E 120 80 51 00
        E 0 80 4f 00
        E 0 90 51 7f
        E 0 90 4f 7f
        E 120 80 51 00
        E 0 80 4f 00
        E 0 90 51 7f
        E 0 90 50 7f
        E 0 90 4f 7f
        E 120 80 51 00
        E 0 80 50 00
        E 0 80 4f 00
        E 0 90 50 7f
        E 0 90 4f 7f
        E 120 80 50 00
        E 0 80 4f 00
        E 0 90 50 7f
        E 0 90 4f 7f
        E 0 90 51 7f
        E 120 80 50 00
        E 0 80 4f 00
        E 0 90 50 7f
        E 0 90 4f 7f
        E 120 80 50 00
        E 0 80 4f 00
        E 0 90 50 7f
        E 0 90 4f 7f
        E 120 80 50 00
        E 0 80 4f 00
        E 0 90 50 7f
        E 120 80 51 00
        E 0 80 50 00
        E 0 90 50 7f
        E 0 90 4f 7f
        E 120 80 50 00
        E 0 80 4f 00
        E 0 90 50 7f
        E 0 90 4f 7f
        E 0 90 51 77
        E 120 80 50 00
        E 0 80 4f 00
        E 0 80 51 00
        E 0 90 50 7f
        E 0 90 4f 7f
        E 0 90 51 77
        E 120 80 50 00
        E 0 80 4f 00
        E 0 80 51 00
        E 0 90 50 7f
        E 0 90 4f 7f
        E 0 90 51 77
        E 120 80 50 00
        E 0 80 4f 00
        E 0 80 51 00
        E 0 90 50 7f
        E 120 80 50 00
        E 0 90 50 7f
        E 0 90 4f 7f
        E 0 90 51 77
        E 120 80 50 00
        E 0 80 4f 00
        E 0 80 51 00
        E 0 90 50 7f
        E 0 90 4f 7f
        E 0 90 51 77
        E 120 80 50 00
        E 0 80 4f 00
        E 0 80 51 00
        E 0 90 50 7f
        E 0 90 4f 7f
        E 0 90 51 77
        E 120 80 50 00
        E 0 80 4f 00
        E 0 80 51 00
        E 0 90 50 7f
        E 0 90 4f 7f
        E 120 80 50 00
        E 0 80 4f 00
        E 0 90 51 77
        E 120 80 51 00
        E 0 90 4f 7f
        E 0 90 51 77
        E 120 80 4f 00
        E 0 80 51 00
        E 0 90 4f 7f
        E 120 80 4f 00
        E 0 90 4f 7f
        E 0 90 51 77
        E 120 80 4f 00
        E 0 80 51 00
        E 0 90 4f 7f
        E 0 90 51 77
        E 120 80 4f 00
        E 0 80 51 00
        E 0 90 4f 7f
        E 0 90 51 77
        E 120 80 4f 00
        E 0 80 51 00
        E 0 90 4f 7f
        E 120 80 4f 00
        E 0 90 4f 7f
        E 0 90 51 77
        E 120 80 4f 00
        E 0 80 51 00
        E 0 90 4f 7f
        E 0 90 51 77
        E 120 80 4f 00
        E 0 80 51 00
        E 0 90 4f 7f
        E 0 90 51 77
        E 120 80 4f 00
        E 0 80 51 00
        E 0 90 4f 7f
        E 120 80 4f 00
        E 0 90 4f 7f
        E 0 90 51 77
        E 120 80 4f 00
        E 0 80 51 00
        E 0 90 4f 7f
        E 0 90 51 77
        E 120 80 4f 00
        E 0 80 51 00
        E 0 90 4f 7f
        E 0 90 51 77
        E 120 80 4f 00
        E 0 80 51 00
        E 0 90 4f 7f
        E 0 90 51 77
        E 120 80 4f 00
        E 0 80 51 00
        E 0 90 4f 7f
        E 0 90 51 77
        E 120 80 4f 00
        E 0 80 51 00
        E 0 90 4f 7f
        E 120 80 4f 00
        E 0 90 4f 7f
        E 0 90 51 77
        E 120 80 4f 00
        E 0 80 51 00
        E 0 90 4f 7f
        E 0 90 51 77
        E 120 80 4f 00
        E 0 80 51 00
        E 0 90 50 7f
        E 0 90 4f 7f
        E 0 90 51 77
        E 120 80 50 00
        E 0 80 4f 00
        E 0 80 51 00
        E 0 90 50 7f
        E 0 90 4f 7f
        E 120 80 50 00
        E 0 80 4f 00
        E 0 90 50 7f
        E 0 90 4f 7f
        E 0 90 51 77
        E 120 80 50 00
        E 0 80 4f 00
        E 0 80 51 00
        E 0 90 50 7f
        E 0 90 4f 7f
        E 0 90 51 77
        E 120 80 50 00
        E 0 80 4f 00
        E 0 80 51 00
        E 0 90 50 7f
        E 0 90 4f 7f
        E 0 90 51 77
        E 120 80 50 00
        E 0 80 4f 00
        E 0 90 50 7f
        E 0 90 4f 7f
        E 120 80 50 00
        E 0 80 4f 00
        E 0 90 50 7f
        E 0 90 4f 7f
        E 120 80 51 00
        E 0 80 50 00
        E 0 80 4f 00
        E 0 90 50 7f
        E 0 90 4f 7f
        E 0 90 51 77
        E 120 80 50 00
        E 0 80 4f 00
        E 0 80 51 00
        E 0 90 50 7f
        E 0 90 4f 7f
        E 120 80 50 00
        E 0 80 4f 00
        E 0 90 50 7f
        E 0 90 4f 7f
        E 0 90 51 77
        E 120 80 50 00
        E 0 80 4f 00
        E 0 90 50 7f
        E 120 80 51 00
        E 0 80 50 00
        E 0 90 50 7f
        E 120 80 50 00
        E 0 90 50 7f
        E 0 90 51 77
        E 0 90 4f 7f
        E 120 80 50 00
        E 0 80 51 00
        E 0 90 50 7f
        E 120 80 50 00
        E 0 90 50 7f
        E 0 90 51 77
        E 120 80 50 00
        E 120 80 4f 00
        E 0 80 51 00
        E 0 90 50 7f
        E 120 80 50 00
        E 0 90 51 77
        E 0 90 4f 77
        E 0 90 50 7f
        E 120 80 4f 00
        E 0 80 50 00
        E 0 90 4f 77
        E 0 90 50 7f
        E 120 80 4f 00
        E 0 80 50 00
        E 0 90 4f 77
        E 0 90 50 7f
        E 120 80 51 00
        E 0 80 4f 00
        E 0 80 50 00
        E 0 90 50 7f
        E 120 80 50 00
        E 0 90 51 77
        E 0 90 4f 77
        E 0 90 50 7f
        E 120 80 51 00
        E 0 80 4f 00
        E 0 80 50 00
        E 0 90 4f 77
        E 0 90 50 7f
        E 120 80 4f 00
        E 0 80 50 00
        E 0 90 51 7f
        E 0 90 4f 77
        E 0 90 50 7f
        E 120 80 51 00
        E 0 80 4f 00
        E 0 80 50 00
        E 0 90 50 7f
        E 120 80 50 00
        E 0 90 51 7f
        E 0 90 4f 77
        E 0 90 50 7f
        E 120 80 51 00
        E 0 80 4f 00
        E 0 80 50 00
        E 0 90 4f 77
        E 0 90 50 7f
        E 120 80 4f 00
        E 0 80 50 00
        E 0 90 51 7f
        E 0 90 50 7f
        E 120 80 51 00
        E 0 80 50 00
        E 0 90 4f 77
        E 0 90 50 7f
        E 120 80 4f 00
        E 0 80 50 00
        E 0 90 51 7f
        E 0 90 4f 77
        E 0 90 50 7f
        E 120 80 4f 00
        E 0 80 50 00
        E 0 90 4f 77
        E 0 90 50 7f
        E 120 80 51 00
        E 0 80 4f 00
        E 0 80 50 00
        E 0 90 50 7f
        E 120 90 51 7f
        E 0 90 4f 77
        E 120 80 4f 00
        E 0 90 4f 77
        E 120 80 51 00
        E 0 80 4f 00
        E 0 90 4f 77
        E 120 80 4f 00
        E 120 90 4f 77
        E 0 90 51 7f
        E 120 80 4f 00
        E 0 90 4f 77
        E 120 80 4f 00
        E 0 90 4f 77
        E 120 80 51 00
        E 0 80 4f 00
        E 0 90 4f 77
        E 120 80 4f 00
        E 0 90 4f 77
        E 0 90 51 77
        E 120 80 4f 00
        E 0 80 51 00
        E 0 90 51 77
        E 120 80 51 00
        E 0 90 4f 77
        E 0 90 51 77
        E 120 80 4f 00
        E 0 80 51 00
        E 0 90 4f 77
        E 120 80 4f 00
        E 0 90 4f 77
        E 0 90 51 77
        E 120 80 4f 00
        E 0 80 51 00
        E 0 90 51 77
        E 120 80 51 00
        E 0 90 4f 77
        E 0 90 51 77
        E 120 80 4f 00
        E 0 80 51 00
        E 0 90 4f 77
        E 120 80 4f 00
        E 0 90 4f 77
        E 0 90 51 77
        E 120 80 51 00
        E 0 90 51 77
        E 120 80 50 00
        E 0 80 51 00
        E 0 90 50 7f
        E 120 80 4f 00
        E 0 80 50 00
        E 0 90 4f 77
        E 0 90 50 7f
        E 0 90 51 77
        E 120 80 4f 00
        E 0 80 50 00
        E 0 80 51 00
        E 0 90 50 7f
        E 0 90 51 77
        E 120 80 50 00
        E 0 80 51 00
        E 0 90 4f 77
        E 0 90 50 7f
        E 0 90 51 77
        E 120 80 50 00
        E 0 80 51 00
        E 0 90 50 7f
        E 120 80 4f 00
        E 0 80 50 00
        E 0 90 50 7f
        E 0 90 51 77
        E 120 80 50 00
        E 0 80 51 00
        E 0 90 4f 77
        E 0 90 50 7f
        E 0 90 51 77
        E 120 80 4f 00
        E 0 80 50 00
        E 0 80 51 00
        E 0 90 50 7f
        E 0 90 51 77
        E 120 80 50 00
        E 0 80 51 00
        E 0 90 4f 77
        E 0 90 50 7f
        E 120 80 50 00
        E 0 90 51 77
        E 120 80 4f 00
        E 0 80 51 00
        E 0 90 50 7f
        E 0 90 51 77
        E 120 80 50 00
        E 0 80 51 00
        E 0 90 4f 77
        E 0 90 50 7f
        E 0 90 51 77
        E 120 80 50 00
        E 0 80 51 00
        E 0 90 50 7f
        E 0 90 51 77
        E 120 80 50 00
        E 0 80 51 00
        E 0 90 50 7f
        E 0 90 51 77
        E 120 80 4f 00
        E 0 80 50 00
        E 0 80 51 00
        E 0 90 50 7f
        E 120 80 50 00
        E 0 90 4f 77
        E 120 80 4f 00
        E 0 90 51 77
        E 120 80 51 00
        E 0 90 4f 7f
        E 0 90 51 77
        E 120 80 4f 00
        E 0 80 51 00
        E 0 90 50 7f
        E 120 80 50 00
        E 0 90 4f 7f
        E 0 90 51 77
        E 0 90 50 7f
        E 120 80 4f 00
        E 0 80 51 00
        E 0 80 50 00
        E 0 90 51 77
        E 0 90 50 7f
        E 120 80 51 00
        E 0 80 50 00
        E 0 90 4f 7f
        E 0 90 51 77
        E 0 90 50 7f
        E 120 80 4f 00
        E 0 80 51 00
        E 0 80 50 00
        E 0 90 50 7f
        E 120 80 50 00
        E 0 90 4f 7f
        E 0 90 51 77
        E 0 90 50 7f
        E 120 80 51 00
        E 0 80 50 00
        E 0 90 51 77
        E 0 90 50 7f
        E 120 80 4f 00
        E 0 80 51 00
        E 0 80 50 00
        E 0 90 51 77
        E 0 90 50 7f
        E 120 80 51 00
        E 0 80 50 00
        E 0 90 4f 7f
        E 0 90 50 7f
        E 120 80 50 00
        E 0 90 51 77
        E 0 90 50 7f
        E 120 80 4f 00
        E 0 80 51 00
        E 0 80 50 00
        E 0 90 51 77
        E 0 90 50 7f
        E 120 80 51 00
        E 0 80 50 00
        E 0 90 51 77
        E 0 90 50 7f
        E 120 80 51 00
        E 0 80 50 00
        E 0 90 4f 7f
        E 0 90 51 77
        E 0 90 50 7f
        E 120 80 51 00
        E 0 80 50 00
        E 0 90 51 77
        E 0 90 50 7f
        E 120 80 4f 00
        E 0 80 51 00
        E 0 80 50 00
        E 0 90 50 7f
        E 120 80 50 00
        E 0 90 4f 7f
        E 0 90 50 7f
        E 120 90 51 7f
        E 120 80 4f 00
        E 0 90 4f 7f
        E 120 80 51 00
        E 0 80 4f 00
        E 0 90 4f 7f
        E 120 80 4f 00
        E 0 90 4f 7f
        E 0 90 51 7f
        E 120 80 4f 00
        E 0 90 4f 7f
        E 120 80 51 00
        E 0 80 4f 00
        E 0 90 4f 7f
        E 0 90 51 7f
        E 120 80 4f 00
        E 0 80 51 00
        E 0 90 4f 7f
        E 0 90 51 7f
        E 120 80 4f 00
        E 0 80 51 00
        E 0 90 4f 7f
        E 0 90 51 7f
        E 120 80 4f 00
        E 0 80 51 00
        E 0 90 4f 7f
        E 0 90 51 7f
        E 120 80 4f 00
        E 0 80 51 00
        E 0 90 4f 7f
        E 0 90 51 7f
        E 120 80 4f 00
        E 0 80 51 00
        E 0 90 4f 7f
        E 0 90 51 7f
        E 120 80 4f 00
        E 0 80 51 00
        E 0 90 4f 7f
        E 0 90 51 7f
        E 120 80 4f 00
        E 0 80 51 00
        E 0 90 4f 7f
        E 0 90 51 7f
        E 120 80 4f 00
        E 0 80 51 00
        E 0 90 4f 7f
        E 0 90 51 7f
        E 120 80 4f 00
        E 0 80 51 00
        E 0 90 4f 7f
        E 0 90 51 7f
        E 120 80 4f 00
        E 0 80 51 00
        E 0 90 4f 7f
        E 0 90 51 7f
        E 120 80 4f 00
        E 0 80 51 00
        E 0 90 4f 7f
        E 0 90 51 7f
        E 120 80 4f 00
        E 0 80 51 00
        E 0 90 4f 7f
        E 0 90 51 7f
        E 120 80 50 00
        E 0 80 4f 00
        E 0 80 51 00
        E 0 90 4f 7f
        E 0 90 51 7f
        E 0 90 50 7f
        E 120 80 4f 00
        E 0 80 51 00
        E 0 80 50 00
        E 0 90 4f 7f
        E 0 90 51 7f
        E 0 90 50 7f
        E 120 80 4f 00
        E 0 80 51 00
        E 0 80 50 00
        E 0 90 4f 7f
        E 0 90 51 7f
        E 0 90 50 7f
        E 120 80 4f 00
        E 0 80 51 00
        E 0 80 50 00
        E 0 90 51 7f
        E 0 90 50 7f
        E 120 80 51 00
        E 0 80 50 00
        E 0 90 4f 7f
        E 0 90 51 7f
        E 0 90 50 7f
        E 120 80 4f 00
        E 0 80 51 00
        E 0 80 50 00
        E 0 90 4f 7f
        E 0 90 51 7f
        E 0 90 50 7f
        E 120 80 4f 00
        E 0 80 51 00
        E 0 80 50 00
        E 0 90 4f 7f
        E 0 90 51 7f
        E 0 90 50 7f
        E 120 80 4f 00
        E 0 80 51 00
        E 0 80 50 00
        E 0 90 4f 7f
        E 0 90 50 7f
        E 120 80 4f 00
        E 0 80 50 00
        E 0 90 4f 7f
        E 0 90 51 7f
        E 0 90 50 7f
        E 120 80 4f 00
        E 0 80 51 00
        E 0 80 50 00
        E 0 90 4f 7f
        E 0 90 51 7f
        E 0 90 50 7f
        E 120 80 4f 00
        E 0 80 51 00
        E 0 80 50 00
        E 0 90 4f 7f
        E 0 90 51 7f
        E 0 90 50 7f
        E 120 80 4f 00
        E 0 80 51 00
        E 0 80 50 00
        E 0 90 4f 7f
        E 0 90 51 7f
        E 0 90 50 7f
        E 120 80 4f 00
        E 0 80 51 00
        E 0 80 50 00
        E 0 90 4f 7f
        E 0 90 51 7f
        E 0 90 50 7f
        E 120 80 4f 00
        E 0 80 51 00
        E 0 80 50 00
        E 0 90 4f 7f
        E 0 90 51 7f
        E 0 90 50 7f
        E 120 80 4f 00
        E 0 80 51 00
        E 0 80 50 00
        E 0 90 4f 7f
        E 0 90 51 7f
        E 0 90 50 7f
        E 120 80 4f 00
        E 0 80 51 00
        E 0 80 50 00
        E 0 90 4f 7f
        E 0 90 51 7f
        E 120 80 4f 00
        E 0 80 51 00
        E 0 90 4f 7f
        E 0 90 51 7f
        E 120 80 4f 00
        E 0 80 51 00
        E 0 90 4f 7f
        E 0 90 51 7f
        E 120 80 4f 00
        E 0 80 51 00
        E 0 90 4f 7f
        E 0 90 51 7f
        E 0 90 50 7f
        E 120 80 4f 00
        E 0 80 51 00
        E 0 80 50 00
        E 0 90 4f 7f
        E 0 90 4f 7f
        E 0 90 51 7f
        E 120 80 4f 00
        E 0 80 51 00
        E 0 90 4f 7f
        E 0 90 51 7f
        E 0 90 50 7f
        E 120 80 4f 00
        E 0 80 51 00
        E 0 90 4f 7f
        E 0 90 51 7f
        E 120 80 4f 00
        E 0 80 50 00
        E 0 80 51 00
        E 0 90 4f 7f
        E 0 90 51 7f
        E 120 80 4f 00
        E 0 80 51 00
        E 0 90 4f 7f
        E 0 90 51 7f
        E 0 90 51 7f
        E 0 90 50 7f
        E 120 80 4f 00
        E 0 80 51 00
        E 0 80 50 00
        E 0 90 4f 7f
        E 0 90 51 7f
        E 120 80 4f 00
        E 0 80 51 00
        E 0 90 4f 7f
        E 0 90 51 7f
        E 0 90 50 7f
        E 120 80 4f 00
        E 0 80 51 00
        E 0 80 4f 00
        E 0 80 50 00
        E 0 90 4f 7f
        E 0 90 51 7f
        E 120 80 51 00
        E 0 80 4f 00
        E 0 90 4f 7f
        E 0 90 51 7f
        E 0 90 50 7f
        E 120 80 51 00
        E 0 80 4f 00
        E 0 80 50 00
        E 0 90 51 7f
        E 120 80 51 00
        E 0 90 4f 7f
        E 0 90 51 7f
        E 0 90 50 7f
        E 120 80 51 00
        E 0 80 4f 00
        E 0 80 51 00
        E 0 80 50 00
        E 0 90 4f 7f
        E 0 90 51 7f
        E 0 90 50 7f
        E 120 80 4f 00
        E 0 80 51 00
        E 0 80 50 00
        E 0 90 4f 7f
        E 0 90 51 7f
        E 120 80 4f 00
        E 0 80 51 00
        E 0 90 4f 7f
        E 0 90 51 7f
        E 120 80 4f 00
        E 0 80 51 00
        E 0 90 4f 7f
        E 0 90 51 7f
        E 0 90 50 7f
        E 120 80 4f 00
        E 0 80 51 00
        E 0 80 50 00
        E 0 90 4f 7f
        E 0 90 51 7f
        E 0 90 50 7f
        E 120 80 4f 00
        E 0 80 51 00
        E 0 80 50 00
        E 0 90 4f 7f
        E 0 90 51 7f
        E 120 80 4f 00
        E 0 80 51 00
        E 0 90 4f 7f
        E 0 90 51 7f
        E 0 90 50 7f
        E 120 80 4f 00
        E 0 80 51 00
        E 0 90 4f 7f
        E 0 90 51 7f
        E 120 80 4f 00
        E 0 80 51 00
        E 0 90 4f 7f
        E 0 90 51 7f
        E 120 80 4f 00
        E 0 80 51 00
        E 0 90 4f 7f
        E 0 90 51 7f
        E 120 80 50 00
        E 0 80 4f 00
        E 0 80 51 00
        E 0 90 4f 7f
        E 0 90 51 7f
        E 120 80 4f 00
        E 0 80 51 00
        E 0 90 4f 7f
        E 0 90 51 7f
        E 120 80 4f 00
        E 0 80 51 00
        E 0 90 4f 7f
        E 0 90 51 7f
        E 0 90 50 7f
        E 120 80 4f 00
        E 0 80 51 00
        E 0 90 4f 7f
        E 0 90 51 7f
        E 120 80 4f 00
        E 0 80 51 00
        E 0 90 4f 7f
        E 120 80 4f 00
        E 0 90 4f 7f
        E 0 90 51 7f
        E 120 80 50 00
        E 0 80 4f 00
        E 0 80 51 00
        E 0 90 4f 7f
        E 0 90 51 7f
        E 120 80 4f 00
        E 0 80 51 00
        E 0 90 4f 7f
        E 0 90 51 7f
        E 120 80 4f 00
        E 0 80 51 00
        E 0 90 4f 7f
        E 0 90 51 7f
        E 0 90 50 7f
        E 120 80 4f 00
        E 0 80 51 00
        E 0 90 4f 7f
        E 0 90 51 7f
        E 120 80 4f 00
        E 0 80 51 00
        E 0 90 4f 7f
        E 0 90 51 7f
        E 120 80 4f 00
        E 0 80 51 00
        E 0 90 4f 7f
        E 0 90 51 7f
        E 120 80 50 00
        E 0 80 4f 00
        E 0 80 51 00
        E 0 90 4f 7f
        E 120 80 4f 00
        E 0 90 4f 7f
        E 0 90 51 7f
        E 120 80 4f 00
        E 0 80 51 00
        E 0 90 4f 7f
        E 0 90 51 7f
        E 0 90 50 7f
        E 120 80 4f 00
        E 0 80 51 00
        E 0 90 4f 7f
        E 0 90 51 7f
        E 120 80 4f 00
        E 0 80 51 00
        E 0 90 4f 7f
        E 0 90 51 7f
        E 120 80 4f 00
        E 0 80 51 00
        E 0 90 4f 7f
        E 0 90 51 7f
        E 120 80 50 00
        E 0 80 4f 00
        E 0 80 51 00
        E 0 90 4f 7f
        E 0 90 51 7f
        E 120 80 4f 00
        E 0 80 51 00
        E 0 90 4f 7f
        E 0 90 51 7f
        E 0 90 50 7f
        E 120 80 4f 00
        E 0 80 51 00
        E 0 90 51 7f
        E 120 80 51 00
        E 0 90 4f 7f
        E 0 90 51 7f
        E 120 80 4f 00
        E 0 80 51 00
        E 0 90 4f 7f
        E 0 90 51 7f
        E 120 80 50 00
        E 0 80 4f 00
        E 0 80 51 00
        E 0 90 4f 7f
        E 0 90 51 7f
        E 120 80 4f 00
        E 0 80 51 00
        E 0 90 4f 7f
        E 0 90 51 7f
        E 0 90 50 7f
        E 120 80 4f 00
        E 0 80 51 00
        E 0 90 4f 7f
        E 0 90 51 7f
        E 120 80 4f 00
        E 0 80 51 00
        E 0 90 4f 7f
        E 0 90 51 7f
        E 120 80 50 00
        E 0 80 4f 00
        E 0 80 51 00
        E 0 90 4f 7f
        E 0 90 51 7f
        E 120 80 4f 00
        E 0 80 51 00
        E 0 90 4f 7f
        E 0 90 51 7f
        E 120 80 4f 00
        E 0 80 51 00
        E 0 90 4f 7f
        E 0 90 51 7f
        E 0 90 50 7f
        E 120 80 4f 00
        E 0 80 51 00
        E 0 80 50 00
        E 0 90 4f 7f
        E 0 90 51 7f
        E 120 80 4f 00
        E 0 80 51 00
        E 0 90 4f 7f
        E 0 90 51 7f
        E 120 80 4f 00
        E 0 80 51 00
        E 0 90 4f 7f
        E 0 90 51 7f
        E 0 90 50 7f
        E 120 80 4f 00
        E 0 80 51 00
        E 0 80 50 00
        E 0 90 4f 7f
        E 0 90 51 7f
        E 0 90 50 7f
        E 120 80 4f 00
        E 0 80 51 00
        E 0 80 50 00
        E 0 90 4f 7f
        E 0 90 51 7f
        E 0 90 50 7f
        E 120 80 4f 00
        E 0 80 51 00
        E 0 80 50 00
        E 0 90 4f 7f
        E 0 90 51 7f
        E 0 90 50 7f
        E 120 80 4f 00
        E 0 80 51 00
        E 0 80 50 00
        E 0 90 4f 7f
        E 0 90 51 7f
        E 0 90 50 7f
        E 120 80 4f 00
        E 0 80 51 00
        E 0 80 50 00
        E 0 90 4f 7f
        E 0 90 51 7f
        E 0 90 50 7f
        E 120 80 4f 00
        E 0 80 51 00
        E 0 80 50 00
        E 0 90 4f 7f
        E 0 90 50 7f
        E 120 80 4f 00
        E 0 80 50 00
        E 0 90 4f 7f
        E 0 90 51 7f
        E 0 90 50 7f
        E 120 80 4f 00
        E 0 80 51 00
        E 0 80 50 00
        E 0 90 4f 7f
        E 0 90 51 7f
        E 0 90 50 7f
        E 120 80 4f 00
        E 0 80 51 00
        E 0 80 50 00
        E 0 90 4f 7f
        E 0 90 51 7f
        E 0 90 50 7f
        E 120 80 4f 00
        E 0 80 51 00
        E 0 80 50 00
        E 0 90 4f 7f
        E 0 90 51 7f
        E 0 90 50 7f
        E 120 80 4f 00
        E 0 80 51 00
        E 0 80 50 00
        E 0 90 4f 7f
        E 0 90 51 7f
        E 0 90 50 7f
        E 120 80 4f 00
        E 0 80 51 00
        E 0 80 50 00
        E 0 90 4f 7f
        E 0 90 51 7f
        E 0 90 50 7f
        E 120 80 4f 00
        E 0 80 51 00
        E 0 80 50 00
        E 0 90 4f 7f
        E 0 90 51 7f
        E 120 80 4f 00
        E 0 80 51 00
        E 0 90 51 7f
        E 120 80 51 00
        E 0 90 4f 7f
        E 0 90 51 7f
        E 0 90 50 7f
        E 120 80 4f 00
        E 0 80 51 00
        E 0 90 4f 7f
        E 0 90 51 7f
        E 120 80 4f 00
        E 0 80 51 00
        E 0 90 4f 7f
        E 0 90 51 7f
        E 120 80 50 00
        E 0 80 4f 00
        E 0 80 51 00
        E 0 90 4f 7f
        E 0 90 51 7f
        E 120 80 4f 00
        E 0 80 51 00
        E 0 90 4f 7f
        E 120 80 4f 00
        E 0 90 4f 7f
        E 0 90 51 7f
        E 120 80 4f 00
        E 0 80 51 00
        E 0 90 4f 7f
        E 0 90 51 7f
        E 0 90 50 7f
        E 120 80 4f 00
        E 0 80 51 00
        E 0 90 4f 7f
        E 0 90 51 7f
        E 120 80 4f 00
        E 0 80 51 00
        E 0 90 4f 7f
        E 0 90 51 7f
        E 120 80 4f 00
        E 0 80 51 00
        E 0 90 4f 7f
        E 0 90 51 7f
        E 120 80 50 00
        E 0 80 4f 00
        E 0 80 51 00
        E 0 90 4f 7f
        E 0 90 51 7f
        E 120 80 4f 00
        E 0 80 51 00
        E 0 90 4f 7f
        E 0 90 51 7f
        E 0 90 50 7f
        E 120 80 4f 00
        E 0 80 51 00
        E 0 90 4f 7f
        E 0 90 51 7f
        E 120 80 4f 00
        E 0 80 51 00
        E 0 90 4f 7f
        E 0 90 51 7f
        E 120 80 4f 00
        E 0 80 51 00
        E 0 90 4f 7f
        E 0 90 51 7f
        E 120 80 50 00
        E 0 80 4f 00
        E 0 80 51 00
        E 0 90 4f 7f
        E 0 90 51 7f
        E 120 80 4f 00
        E 0 80 51 00
        E 0 90 4f 7f
        E 0 90 51 7f
        E 0 90 50 7f
        E 120 80 4f 00
        E 0 80 51 00
        E 0 90 4f 7f
        E 0 90 51 7f
        E 120 80 4f 00
        E 0 80 51 00
        E 0 90 4f 7f
        E 0 90 51 7f
        E 120 80 50 00
        E 0 80 4f 00
        E 0 80 51 00
        E 0 90 4f 7f
        E 0 90 51 7f
        E 120 80 4f 00
        E 0 80 51 00
        E 0 90 4f 7f
        E 0 90 51 7f
        E 120 80 4f 00
        E 0 80 51 00
        E 0 90 4f 7f
        E 0 90 51 7f
        E 0 90 50 7f
        E 120 80 4f 00
        E 0 80 51 00
        E 0 80 50 00
        E 0 90 4f 7f
        E 0 90 51 7f
        E 120 80 4f 00
        E 0 80 51 00
        E 0 90 4f 7f
        E 0 90 51 7f
        E 120 80 4f 00
        E 0 80 51 00
        E 0 90 4f 7f
        E 0 90 50 7f
        E 120 80 4f 00
        E 0 80 50 00
        E 0 90 4f 7f
        E 0 90 51 7f
        E 0 90 50 7f
        E 120 80 4f 00
        E 0 80 51 00
        E 0 80 50 00
        E 0 90 4f 7f
        E 0 90 51 7f
        E 0 90 50 7f
        E 120 80 4f 00
        E 0 80 51 00
        E 0 80 50 00
        E 0 90 51 7f
        E 0 90 50 7f
        E 120 80 51 00
        E 0 80 50 00
        E 0 90 51 7f
        E 0 90 50 7f
        E 120 80 51 00
        E 0 80 50 00
        E 0 90 51 7f
        E 0 90 4f 7f
        E 0 90 50 7f
        E 120 80 51 00
        E 0 80 50 00
        E 0 90 51 7f
        E 0 90 50 7f
        E 120 80 51 00
        E 0 80 50 00
        E 0 90 50 7f
        E 120 80 50 00
        E 0 90 50 7f
        E 120 80 4f 00
        E 0 80 50 00
        E 0 90 50 7f
        E 0 90 51 7f
        E 120 80 50 00
        E 0 80 51 00
        E 0 90 4f 77
        E 0 90 50 7f
        E 0 90 51 7f
        E 120 80 4f 00
        E 0 80 50 00
        E 0 80 51 00
        E 0 90 4f 77
        E 0 90 50 7f
        E 0 90 51 7f
        E 120 80 4f 00
        E 0 80 50 00
        E 0 80 51 00
        E 0 90 4f 77
        E 0 90 50 7f
        E 0 90 51 7f
        E 120 80 4f 00
        E 0 80 50 00
        E 0 80 51 00
        E 0 90 51 7f
        E 120 80 51 00
        E 0 90 4f 77
        E 0 90 51 7f
        E 120 80 4f 00
        E 0 80 51 00
        E 0 90 4f 77
        E 0 90 50 7f
        E 0 90 51 7f
        E 120 80 4f 00
        E 0 80 51 00
        E 0 90 4f 77
        E 0 90 51 7f
        E 120 80 4f 00
        E 0 80 51 00
        E 0 90 51 7f
        E 120 80 50 00
        E 0 80 51 00
        E 0 90 4f 77
        E 0 90 51 7f
        E 120 80 4f 00
        E 0 80 51 00
        E 0 90 4f 77
        E 0 90 51 7f
        E 0 90 50 7f
        E 120 80 4f 00
        E 0 80 51 00
        E 0 90 51 7f
        E 120 80 50 00
        E 0 80 51 00
        E 0 90 4f 77
        E 0 90 51 7f
        E 120 80 4f 00
        E 0 80 51 00
        E 0 90 4f 77
        E 0 90 51 7f
        E 0 90 50 7f
        E 120 80 4f 00
        E 0 80 51 00
        E 0 80 50 00
        E 0 90 4f 77
        E 0 90 51 7f
        E 0 90 50 7f
        E 120 80 4f 00
        E 0 80 51 00
        E 0 80 50 00
        E 0 90 51 7f
        E 120 80 51 00
        E 0 90 4f 77
        E 0 90 51 7f
        E 0 90 50 7f
        E 120 80 4f 00
        E 0 80 51 00
        E 0 90 4f 77
        E 0 90 51 7f
        E 120 80 50 00
        E 0 80 4f 00
        E 0 80 51 00
        E 0 90 4f 77
        E 0 90 51 7f
        E 120 80 4f 00
        E 0 80 51 00
        E 0 90 51 7f
        E 0 90 50 7f
        E 120 80 51 00
        E 0 90 4f 77
        E 0 90 51 7f
        E 120 80 50 00
        E 0 80 4f 00
        E 0 80 51 00
        E 0 90 4f 77
        E 120 80 4f 00
        E 0 90 4f 77
        E 0 90 51 7f
        E 0 90 50 7f
        E 120 80 4f 00
        E 0 80 50 00
        E 0 90 4f 77
        E 0 90 50 7f
        E 120 80 51 00
        E 0 80 4f 00
        E 0 80 50 00
        E 0 90 4f 77
        E 120 80 4f 00
        E 0 90 51 7f
        E 0 90 50 7f
        E 120 80 51 00
        E 0 90 4f 77
        E 0 90 51 7f
        E 120 80 50 00
        E 0 80 4f 00
        E 0 80 51 00
        E 0 90 4f 77
        E 120 80 4f 00
        E 0 90 4f 77
        E 0 90 51 7f
        E 0 90 50 7f
        E 120 80 4f 00
        E 120 80 51 00
        E 0 80 50 00
        E 0 90 4f 77
        E 120 80 4f 00
        E 0 90 4f 77
        E 0 90 51 7f
        E 0 90 50 7f
        E 120 80 4f 00
        E 0 80 50 00
        E 0 90 4f 77
        E 0 90 50 7f
        E 120 80 51 00
        E 0 80 50 00
        E 120 90 51 7f
        E 0 90 50 7f
        E 120 80 4f 00
        E 0 80 51 00
        E 0 90 4f 77
        E 0 90 51 7f
        E 120 80 50 00
        E 0 80 4f 00
        E 0 80 51 00
        E 120 90 4f 77
        E 0 90 51 7f
        E 0 90 50 7f
        E 240 80 4f 00
        E 0 80 51 00
        E 0 80 50 00
        E 120 90 4f 77
        E 0 90 51 7f
        E 0 90 50 7f
        E 120 80 4f 00
        E 0 80 50 00
        E 0 90 50 7f
        E 120 80 51 00
        E 0 80 50 00
        E 0 90 4f 77
        E 120 90 51 7f
        E 0 90 50 7f
        E 120 80 4f 00
        E 0 80 51 00
        E 0 90 51 7f
        E 120 80 50 00
        E 0 80 51 00
        E 0 90 4f 77
        E 120 90 51 7f
        E 0 90 50 7f
        E 240 80 4f 00
        E 0 80 51 00
        E 0 80 50 00
        E 120 90 4f 77
        E 0 90 51 7f
        E 0 90 50 7f
        E 120 80 4f 00
        E 0 80 50 00
        E 0 90 50 7f
        E 120 80 51 00
        E 0 80 50 00
        E 0 90 4f 7f
        E 120 80 4f 00
        E 0 90 51 7f
        E 0 90 50 7f
        E 120 80 51 00
        E 0 90 4f 7f
        E 0 90 51 7f
        E 120 80 50 00
        E 0 80 4f 00
        E 0 80 51 00
        E 120 90 4f 7f
        E 0 90 51 7f
        E 0 90 50 7f
        E 120 80 4f 00
        E 120 80 51 00
        E 0 80 50 00
        E 0 90 4f 7f
        E 120 90 51 7f
        E 0 90 50 7f
        E 120 80 4f 00
        E 0 80 50 00
        E 0 90 50 7f
        E 120 80 51 00
        E 0 80 50 00
        E 0 90 4f 7f
        E 120 90 51 7f
        E 0 90 50 7f
        E 120 80 4f 00
        E 0 80 51 00
        E 0 90 51 7f
        E 120 80 50 00
        E 0 80 51 00
        E 120 90 4f 7f
        E 0 90 51 7f
        E 0 90 50 7f
        E 120 80 50 00
        E 0 90 50 7f
        E 120 80 4f 00
        E 0 80 51 00
        E 0 80 50 00
        E 0 90 50 7f
        E 120 80 50 00
        E 0 90 4f 7f
        E 0 90 51 7f
        E 0 90 50 7f
        E 120 80 50 00
        E 0 90 50 7f
        E 120 80 4f 00
        E 0 80 51 00
        E 0 80 50 00
        E 0 90 4f 7f
        E 0 90 50 7f
        E 120 80 4f 00
        E 0 80 50 00
        E 0 90 4f 7f
        E 0 90 51 7f
        E 0 90 50 7f
        E 120 80 4f 00
        E 0 80 51 00
        E 0 80 50 00
        E 0 90 4f 7f
        E 0 90 51 7f
        E 0 90 50 7f
        E 120 80 4f 00
        E 0 80 51 00
        E 0 80 50 00
        E 0 90 4f 7f
        E 0 90 50 7f
        E 120 80 4f 00
        E 0 80 50 00
        E 0 90 4f 7f
        E 0 90 51 7f
        E 0 90 50 7f
        E 120 80 4f 00
        E 0 80 50 00
        E 0 90 4f 7f
        E 0 90 50 7f
        E 120 80 51 00
        E 0 80 4f 00
        E 0 80 50 00
        E 0 90 4f 7f
        E 0 90 50 7f
        E 120 80 4f 00
        E 0 80 50 00
        E 0 90 4f 7f
        E 0 90 51 7f
        E 0 90 50 7f
        E 120 80 4f 00
        E 0 80 51 00
        E 0 80 50 00
        E 0 90 4f 7f
        E 0 90 51 7f
        E 0 90 50 7f
        E 120 80 4f 00
        E 0 80 51 00
        E 0 80 50 00
        E 0 90 4f 7f
        E 0 90 51 7f
        E 120 80 4f 00
        E 0 80 51 00
        E 0 90 4f 7f
        E 0 90 51 7f
        E 0 90 50 7f
        E 120 80 4f 00
        E 0 80 51 00
        E 0 80 50 00
        E 0 90 4f 7f
        E 0 90 51 7f
        E 120 80 4f 00
        E 0 80 51 00
        E 0 90 4f 7f
        E 0 90 51 7f
        E 0 90 50 7f
        E 120 80 4f 00
        E 0 80 51 00
        E 0 90 4f 7f
        E 0 90 51 7f
        E 120 80 50 00
        E 0 80 4f 00
        E 0 80 51 00
        E 0 90 4f 7f
        E 0 90 51 7f
        E 0 90 50 7f
        E 120 80 4f 00
        E 0 80 51 00
        E 0 80 50 00
        E 0 90 4f 7f
        E 0 90 51 7f
        E 120 80 4f 00
        E 0 80 51 00
        E 0 90 4f 7f
        E 0 90 51 7f
        E 0 90 50 7f
        E 120 80 4f 00
        E 0 80 51 00
        E 0 90 4f 7f
        E 0 90 51 7f
        E 120 80 4f 00
        E 0 80 51 00
        E 0 90 4f 7f
        E 0 90 51 7f
        E 120 80 50 00
        E 0 80 4f 00
        E 0 80 51 00
        E 0 90 4f 7f
        E 0 90 51 7f
        E 120 80 4f 00
        E 0 80 51 00
        E 0 90 4f 7f
        E 0 90 51 7f
        E 0 90 50 7f
        E 120 80 4f 00
        E 0 80 51 00
        E 0 80 50 00
        E 0 90 4f 7f
        E 0 90 50 7f
        E 120 80 4f 00
        E 0 80 50 00
        E 0 90 4f 7f
        E 0 90 51 7f
        E 0 90 50 7f
        E 120 80 4f 00
        E 0 80 51 00
        E 0 80 50 00
        E 0 90 4f 7f
        E 0 90 50 7f
        E 120 80 4f 00
        E 0 80 50 00
        E 0 90 4f 7f
        E 0 90 51 7f
        E 0 90 50 7f
        E 120 80 4f 00
        E 0 80 50 00
        E 0 90 4f 7f
        E 0 90 50 7f
        E 120 80 51 00
        E 0 80 4f 00
        E 0 80 50 00
        E 0 90 4f 7f
        E 0 90 51 7f
        E 0 90 50 7f
        E 120 80 4f 00
        E 0 80 51 00
        E 0 80 50 00
        E 0 90 4f 7f
        E 120 80 4f 00
        E 0 90 4f 7f
        E 0 90 51 7f
        E 0 90 50 7f
        E 120 80 4f 00
        E 0 90 4f 7f
        E 120 80 4f 00
        E 0 90 4f 7f
        E 120 80 51 00
        E 0 80 50 00
        E 0 80 4f 00
        E 0 90 4f 7f
        E 120 80 4f 00
        E 0 90 4f 7f
        E 0 90 51 7f
        E 0 90 50 7f
        E 120 80 4f 00
        E 0 80 51 00
        E 0 80 50 00
        E 0 90 4f 7f
        E 0 90 51 7f
        E 120 80 4f 00
        E 0 80 51 00
        E 0 90 4f 7f
        E 0 90 51 7f
        E 0 90 50 7f
        E 120 80 4f 00
        E 0 80 51 00
        E 0 90 4f 7f
        E 0 90 51 7f
        E 120 80 4f 00
        E 0 80 51 00
        E 0 90 4f 7f
        E 0 90 4f 7f
        E 0 90 51 7f
        E 120 80 4f 00
        E 0 80 51 00
        E 0 90 4f 7f
        E 0 90 51 7f
        E 120 80 50 00
        E 0 80 4f 00
        E 0 80 51 00
        E 0 90 4f 7f
        E 0 90 51 7f
        E 120 80 4f 00
        E 0 80 51 00
        E 0 90 4f 7f
        E 0 90 50 77
        E 120 80 4f 00
        E 0 80 50 00
        E 0 90 4f 7f
        E 0 90 51 7f
        E 0 90 50 77
        E 120 80 4f 00
        E 0 80 50 00
        E 0 90 4f 7f
        E 0 90 50 77
        E 120 80 4f 00
        E 0 80 50 00
        E 0 90 4f 7f
        E 120 80 51 00
        E 0 80 4f 00
        E 0 80 4f 00
        E 0 90 4f 7f
        E 0 90 50 77
        E 120 80 4f 00
        E 0 80 50 00
        E 0 90 4f 7f
        E 0 90 51 7f
        E 0 90 50 77
        E 120 80 4f 00
        E 0 80 51 00
        E 0 80 50 00
        E 0 90 4f 7f
        E 0 90 50 77
        E 120 80 4f 00
        E 0 80 50 00
        E 0 90 4f 7f
        E 0 90 51 7f
        E 120 80 4f 00
        E 0 90 4f 7f
        E 0 90 50 77
        E 120 80 4f 00
        E 0 80 50 00
        E 0 90 4f 7f
        E 0 90 50 77
        E 120 80 4f 00
        E 0 80 50 00
        E 0 90 4f 7f
        E 120 80 51 00
        E 0 80 4f 00
        E 0 90 4f 7f
        E 0 90 50 77
        E 120 80 4f 00
        E 0 80 50 00
        E 0 90 4f 7f
        E 0 90 51 77
        E 0 90 50 77
        E 120 80 4f 00
        E 0 80 51 00
        E 0 80 50 00
        E 0 90 4f 7f
        E 0 90 51 77
        E 0 90 50 77
        E 120 80 4f 00
        E 0 80 51 00
        E 0 80 50 00
        E 0 90 4f 7f
        E 0 90 51 77
        E 120 80 4f 00
        E 0 80 51 00
        E 0 90 4f 7f
        E 0 90 50 77
        E 120 80 4f 00
        E 0 80 50 00
        E 0 90 4f 7f
        E 0 90 51 77
        E 0 90 50 77
        E 120 80 4f 00
        E 0 80 51 00
        E 0 80 50 00
        E 0 90 4f 7f
        E 0 90 51 77
        E 0 90 50 77
        E 120 80 4f 00
        E 0 80 51 00
        E 0 80 50 00
        E 0 90 4f 7f
        E 0 90 51 77
        E 120 80 4f 00
        E 0 80 51 00
        E 0 90 4f 7f
        E 0 90 50 77
        E 120 80 4f 00
        E 0 80 50 00
        E 0 90 4f 7f
        E 0 90 51 77
        E 0 90 50 77
        E 120 80 4f 00
        E 0 80 51 00
        E 0 80 50 00
        E 0 90 4f 7f
        E 0 90 51 77
        E 0 90 50 77
        E 120 80 4f 00
        E 0 80 51 00
        E 0 80 50 00
        E 0 90 4f 7f
        E 0 90 50 77
        E 120 80 4f 00
        E 0 80 50 00
        E 0 90 4f 7f
        E 0 90 51 77
        E 0 90 50 77
        E 120 80 4f 00
        E 0 80 51 00
        E 0 80 50 00
        E 0 90 4f 7f
        E 0 90 51 77
        E 120 80 4f 00
        E 0 80 51 00
        E 0 90 4f 7f
        E 0 90 51 77
        E 0 90 50 77
        E 120 80 4f 00
        E 0 80 51 00
        E 0 80 50 00
        E 0 90 4f 7f
        E 0 90 50 77
        E 120 80 4f 00
        E 0 80 50 00
        E 0 90 4f 7f
        E 0 90 51 77
        E 0 90 50 77
        E 120 80 4f 00
        E 0 80 51 00
        E 0 80 50 00
        E 0 90 4f 7f
        E 0 90 51 77
        E 120 80 4f 00
        E 0 80 51 00
        E 0 90 4f 7f
        E 0 90 51 77
        E 0 90 50 77
        E 120 80 4f 00
        E 0 80 51 00
        E 0 80 50 00
        E 0 90 4f 7f
        E 0 90 50 77
        E 120 80 4f 00
        E 0 80 50 00
        E 0 90 4f 7f
        E 0 90 51 77
        E 0 90 50 77
        E 120 80 4f 00
        E 0 80 51 00
        E 0 90 4f 7f
        E 0 90 51 77
        E 120 80 4f 00
        E 0 80 51 00
        E 0 90 4f 7f
        E 0 90 51 77
        E 120 80 50 00
        E 0 80 4f 00
        E 0 80 51 00
        E 0 90 4f 7f
        E 0 90 51 77
        E 0 90 50 77
        E 120 80 4f 00
        E 0 80 51 00
        E 0 80 50 00
        E 0 90 4f 7f
        E 0 90 51 77
        E 120 80 4f 00
        E 0 80 51 00
        E 0 90 4f 7f
        E 0 90 50 77
        E 120 80 4f 00
        E 0 90 4f 7f
        E 0 90 51 77
        E 120 80 50 00
        E 0 80 4f 00
        E 0 80 51 00
        E 0 90 4f 7f
        E 0 90 51 77
        E 120 80 4f 00
        E 0 80 51 00
        E 0 90 4f 7f
        E 0 90 51 77
        E 0 90 50 77
        E 120 80 4f 00
        E 0 80 51 00
        E 0 80 50 00
        E 0 90 4f 7f
        E 120 80 4f 00
        E 0 90 4f 7f
        E 0 90 51 77
        E 0 90 50 77
        E 120 80 4f 00
        E 0 80 51 00
        E 0 90 4f 7f
        E 0 90 51 77
        E 120 80 50 00
        E 0 80 4f 00
        E 0 80 51 00
        E 0 90 4f 7f
        E 0 90 51 77
        E 120 80 4f 00
        E 0 90 4f 7f
        E 0 90 50 77
        E 120 80 4f 00
        E 0 90 4f 7f
        E 120 80 51 00
        E 0 80 4f 00
        E 0 90 4f 7f
        E 0 90 51 77
        E 120 80 50 00
        E 0 80 4f 00
        E 0 80 51 00
        E 0 90 4f 7f
        E 120 80 4f 00
        E 0 90 4f 7f
        E 0 90 51 77
        E 0 90 50 77
        E 120 80 4f 00
        E 0 80 50 00
        E 0 90 4f 7f
        E 120 80 51 00
        E 0 80 4f 00
        E 0 90 4f 7f
        E 0 90 50 7f
        E 120 80 4f 00
        E 0 80 50 00
        E 0 90 4f 7f
        E 0 90 51 77
        E 120 80 4f 00
        E 0 80 51 00
        E 0 90 4f 7f
        E 0 90 50 7f
        E 120 80 4f 00
        E 0 80 50 00
        E 0 90 4f 7f
        E 0 90 51 77
        E 120 80 4f 00
        E 0 90 4f 7f
        E 0 90 50 7f
        E 120 80 51 00
        E 0 80 4f 00
        E 0 80 50 00
        E 0 90 4f 7f
        E 120 80 4f 00
        E 0 90 4f 7f
        E 0 90 51 77
        E 0 90 50 7f
        E 120 80 4f 00
        E 0 90 4f 7f
        E 120 80 50 00
        E 0 80 4f 00
        E 0 90 4f 7f
        E 120 80 51 00
        E 0 80 4f 00
        E 0 90 4f 7f
        E 0 90 50 7f
        E 120 80 4f 00
        E 0 90 4f 7f
        E 0 90 51 77
        E 120 80 50 00
        E 0 80 4f 00
        E 0 80 51 00
        E 0 90 4f 7f
        E 0 90 50 7f
        E 120 80 4f 00
        E 0 80 50 00
        E 0 90 4f 7f
        E 0 90 51 7f
        E 0 90 50 7f
        E 120 80 4f 00
        E 0 80 51 00
        E 0 80 50 00
        E 0 90 4f 7f
        E 0 90 50 7f
        E 120 80 4f 00
        E 0 80 50 00
        E 0 90 4f 7f
        E 0 90 51 7f
        E 0 90 50 7f
        E 120 80 4f 00
        E 0 80 51 00
        E 0 80 50 00
        E 0 90 4f 7f
        E 0 90 50 7f
        E 120 80 4f 00
        E 0 80 50 00
        E 0 90 4f 7f
        E 0 90 51 7f
        E 0 90 50 7f
        E 120 80 4f 00
        E 0 80 51 00
        E 0 80 50 00
        E 0 90 4f 7f
        E 0 90 50 7f
        E 120 80 4f 00
        E 0 80 50 00
        E 0 90 4f 7f
        E 0 90 51 7f
        E 0 90 50 7f
        E 120 80 4f 00
        E 0 80 50 00
        E 0 90 4f 7f
        E 0 90 50 7f
        E 120 80 51 00
        E 0 80 4f 00
        E 0 80 50 00
        E 0 90 4f 7f
        E 0 90 50 7f
        E 120 80 4f 00
        E 0 80 50 00
        E 0 90 4f 7f
        E 0 90 51 7f
        E 0 90 50 7f
        E 120 80 4f 00
        E 0 80 50 00
        E 0 90 4f 7f
        E 0 90 50 7f
        E 120 80 51 00
        E 0 80 4f 00
        E 0 80 50 00
        E 0 90 4f 7f
        E 0 90 51 7f
        E 0 90 50 7f
        E 120 80 4f 00
        E 0 80 51 00
        E 0 80 50 00
        E 0 90 4f 7f
        E 0 90 51 7f
        E 0 90 50 7f
        E 120 80 4f 00
        E 0 80 51 00
        E 0 80 50 00
        E 0 90 4f 7f
        E 0 90 51 7f
        E 0 90 50 7f
        E 120 80 4f 00
        E 0 80 51 00
        E 0 80 50 00
        E 0 90 4f 7f
        E 0 90 51 7f
        E 0 90 50 7f
        E 120 80 4f 00
        E 0 80 51 00
        E 0 80 50 00
        E 0 90 4f 7f
        E 0 90 51 7f
        E 0 90 50 7f
        E 120 80 4f 00
        E 0 80 51 00
        E 0 80 50 00
        E 0 90 4f 7f
        E 0 90 51 7f
        E 0 90 50 7f
        E 120 80 4f 00
        E 0 80 51 00
        E 0 80 50 00
        E 0 90 4f 7f
        E 0 90 51 7f
        E 0 90 50 7f
        E 120 80 4f 00
        E 0 80 51 00
        E 0 80 50 00
        E 0 90 4f 7f
        E 0 90 51 7f
        E 0 90 50 7f
        E 120 80 4f 00
        E 0 80 51 00
        E 0 80 50 00
        E 0 90 4f 7f
        E 0 90 51 7f
        E 0 90 50 7f
        E 120 80 4f 00
        E 0 80 51 00
        E 0 80 50 00
        E 0 90 4f 7f
        E 0 90 51 7f
        E 0 90 50 7f
        E 120 80 4f 00
        E 0 80 51 00
        E 0 80 50 00
        E 0 90 4f 7f
        E 0 90 51 7f
        E 0 90 50 7f
        E 120 80 4f 00
        E 0 80 51 00
        E 0 80 50 00
        E 0 90 4f 7f
        E 0 90 51 7f
        E 0 90 50 7f
        E 120 80 4f 00
        E 0 80 51 00
        E 0 80 50 00
        E 0 90 4f 7f
        E 0 90 51 7f
        E 0 90 50 7f
        E 120 80 4f 00
        E 0 80 51 00
        E 0 80 50 00
        E 0 90 4f 7f
        E 0 90 51 7f
        E 0 90 50 7f
        E 120 80 4f 00
        E 0 80 51 00
        E 0 80 50 00
        E 0 90 4f 7f
        E 0 90 51 7f
        E 0 90 50 7f
        E 120 80 4f 00
        E 0 80 51 00
        E 0 80 50 00
        E 0 90 4f 7f
        E 0 90 51 7f
        E 0 90 50 7f
        E 120 80 4f 00
        E 0 80 51 00
        E 0 80 50 00
        E 0 90 4f 7f
        E 0 90 51 7f
        E 0 90 50 7f
        E 120 80 4f 00
        E 0 80 51 00
        E 0 80 50 00
        E 0 90 4f 7f
        E 0 90 51 7f
        E 0 90 50 7f
        E 120 80 4f 00
        E 0 80 51 00
        E 0 80 50 00
        E 0 90 4f 7f
        E 0 90 51 7f
        E 0 90 50 7f
        E 120 80 4f 00
        E 0 80 51 00
        E 0 80 50 00
        E 0 90 51 7f
        E 0 90 50 7f
        E 120 80 51 00
        E 0 80 50 00
        E 0 90 51 7f
        E 0 90 50 7f
        E 0 90 4f 7f
        E 120 80 51 00
        E 0 80 50 00
        E 0 80 4f 00
        E 0 90 51 7f
        E 0 90 50 7f
        E 0 90 4f 7f
        E 120 80 51 00
        E 0 80 50 00
        E 0 80 4f 00
        E 0 90 51 7f
        E 0 90 50 7f
        E 0 90 4f 7f
        E 120 80 51 00
        E 0 80 50 00
        E 0 80 4f 00
        E 0 90 51 7f
        E 0 90 50 7f
        E 0 90 4f 7f
        E 120 80 51 00
        E 0 80 50 00
        E 0 80 4f 00
        E 0 90 51 7f
        E 0 90 50 7f
        E 0 90 50 7f
        E 0 90 4f 7f
        E 120 80 51 00
        E 0 80 50 00
        E 0 80 4f 00
        E 0 90 51 7f
        E 0 90 50 7f
        E 0 90 4f 7f
        E 120 80 50 00
        E 0 80 51 00
        E 0 80 4f 00
        E 0 90 51 7f
        E 0 90 50 7f
        E 0 90 4f 7f
        E 120 80 50 00
        E 0 80 51 00
        E 0 80 4f 00
        E 0 90 51 7f
        E 0 90 50 7f
        E 0 90 4f 7f
        E 120 80 50 00
        E 0 80 51 00
        E 0 80 4f 00
        E 0 90 51 7f
        E 0 90 50 7f
        E 0 90 4f 7f
        E 120 80 50 00
        E 0 80 51 00
        E 0 80 4f 00
        E 0 90 51 7f
        E 0 90 50 7f
        E 0 90 4f 7f
        E 120 80 50 00
        E 0 80 51 00
        E 0 80 4f 00
        E 0 90 51 7f
        E 0 90 50 7f
        E 0 90 4f 7f
        E 120 80 50 00
        E 0 80 51 00
        E 0 80 50 00
        E 0 80 4f 00
        E 0 90 51 7f
        E 0 90 50 7f
        E 0 90 4f 7f
        E 120 80 51 00
        E 0 80 50 00
        E 0 80 4f 00
        E 0 90 51 7f
        E 0 90 50 7f
        E 0 90 4f 7f
        E 120 80 51 00
        E 0 80 50 00
        E 0 80 4f 00
        E 0 90 51 7f
        E 0 90 50 7f
        E 0 90 4f 7f
        E 120 80 51 00
        E 0 80 50 00
        E 0 80 4f 00
        E 0 90 51 7f
        E 0 90 50 7f
        E 0 90 4f 7f
        E 120 80 51 00
        E 0 80 50 00
        E 0 80 4f 00
        E 0 90 51 7f
        E 0 90 50 7f
        E 0 90 4f 7f
        E 120 80 51 00
        E 0 80 50 00
        E 0 80 4f 00
        E 0 90 51 7f
        E 0 90 51 7f
        E 0 90 50 7f
        E 0 90 4f 7f
        E 120 80 51 00
        E 0 80 50 00
        E 0 80 4f 00
        E 0 90 51 7f
        E 0 90 50 7f
        E 0 90 4f 7f
        E 120 80 51 00
        E 0 80 50 00
        E 0 80 4f 00
        E 0 90 51 7f
        E 0 90 50 7f
        E 0 90 4f 7f
        E 120 80 51 00
        E 0 80 50 00
        E 0 80 4f 00
        E 0 90 51 7f
        E 0 90 50 7f
        E 0 90 4f 7f
        E 120 80 51 00
        E 0 80 50 00
        E 0 80 4f 00
        E 0 90 51 7f
        E 0 90 50 7f
        E 0 90 4f 7f
        E 120 80 51 00
        E 0 80 50 00
        E 0 80 4f 00
        E 0 90 51 7f
        E 0 90 50 7f
        E 0 90 4f 7f
        E 120 80 51 00
        E 0 80 50 00
        E 0 80 4f 00
        E 0 90 51 7f
        E 0 90 50 7f
        E 0 90 4f 7f
        E 120 80 51 00
        E 0 80 51 00
        E 0 80 50 00
        E 0 80 4f 00
        E 0 90 51 7f
        E 0 90 50 7f
        E 0 90 4f 7f
        E 120 80 51 00
        E 0 80 50 00
        E 0 80 4f 00
        E 0 90 51 7f
        E 0 90 50 7f
        E 0 90 4f 7f
        E 120 80 51 00
        E 0 80 50 00
        E 0 80 4f 00
        E 0 90 51 7f
        E 0 90 50 7f
        E 0 90 4f 7f
        E 120 80 51 00
        E 0 80 50 00
        E 0 80 4f 00
        E 0 90 51 7f
        E 0 90 50 7f
        E 0 90 4f 7f
        E 120 80 51 00
        E 0 80 50 00
        E 0 80 4f 00
        E 0 90 51 7f
        E 0 90 50 7f
        E 0 90 4f 7f
        E 120 80 51 00
        E 0 80 50 00
        E 0 80 4f 00
        E 0 90 51 7f
        E 0 90 50 7f
        E 0 90 4f 7f
        E 120 80 51 00
        E 0 80 50 00
        E 0 80 4f 00
        E 0 90 51 7f
        E 0 90 50 7f
        E 0 90 4f 7f
        E 120 80 51 00
        E 0 80 50 00
        E 0 80 4f 00
        E 0 90 51 7f
        E 0 90 50 7f
        E 0 90 4f 7f
        E 120 80 51 00
        E 0 80 50 00
        E 0 80 4f 00
        E 0 90 51 7f
        E 0 90 50 7f
        E 0 90 4f 7f
        E 120 80 51 00
        E 0 80 50 00
        E 0 80 4f 00
        E 0 90 51 7f
        E 0 90 50 7f
        E 0 90 4f 7f
        E 120 80 51 00
        E 0 80 50 00
        E 0 80 4f 00
        E 0 90 51 7f
        E 0 90 50 7f
        E 0 90 4f 7f
        E 120 80 51 00
        E 0 80 50 00
        E 0 80 4f 00
        E 0 90 51 7f
        E 0 90 50 7f
        E 0 90 4f 7f
        E 120 80 51 00
        E 0 80 50 00
        E 0 80 4f 00
        E 0 90 51 7f
        E 0 90 50 7f
        E 0 90 4f 7f
        E 120 80 51 00
        E 0 80 50 00
        E 0 80 4f 00
        E 0 90 51 7f
        E 0 90 50 7f
        E 0 90 4f 7f
        E 120 80 51 00
        E 0 80 50 00
        E 0 80 4f 00
        E 0 90 51 7f
        E 0 90 50 7f
        E 0 90 4f 7f
        E 0 90 4f 7f
        E 120 80 51 00
        E 0 80 50 00
        E 0 80 4f 00
        E 0 90 51 7f
        E 0 90 50 7f
        E 0 90 4f 7f
        E 120 80 4f 00
        E 0 80 51 00
        E 0 80 50 00
        E 0 90 51 7f
        E 0 90 50 7f
        E 0 90 4f 7f
        E 120 80 4f 00
        E 0 80 51 00
        E 0 80 50 00
        E 0 90 51 7f
        E 0 90 50 7f
        E 0 90 4f 7f
        E 120 80 4f 00
        E 0 80 51 00
        E 0 80 50 00
        E 0 90 51 7f
        E 0 90 50 7f
        E 0 90 4f 7f
        E 120 80 4f 00
        E 0 80 51 00
        E 0 80 50 00
        E 0 90 51 7f
        E 0 90 50 7f
        E 0 90 4f 7f
        E 120 80 4f 00
        E 0 80 51 00
        E 0 80 50 00
        E 0 90 51 7f
        E 0 90 50 7f
        E 0 90 4f 7f
        E 120 80 4f 00
        E 0 80 51 00
        E 0 80 50 00
        E 0 80 4f 00
        E 0 90 51 7f
        E 0 90 50 7f
        E 0 90 4f 7f
        E 120 80 51 00
        E 0 80 50 00
        E 0 80 4f 00
        E 0 90 51 7f
        E 0 90 50 7f
        E 0 90 4f 7f
        E 120 80 51 00
        E 0 80 50 00
        E 0 80 4f 00
        E 0 90 51 7f
        E 0 90 50 7f
        E 0 90 4f 7f
        E 120 80 51 00
        E 0 80 50 00
        E 0 80 4f 00
        E 0 90 51 7f
        E 0 90 50 7f
        E 0 90 4f 7f
        E 120 80 51 00
        E 0 80 50 00
        E 0 80 4f 00
        E 0 90 51 7f
        E 0 90 50 7f
        E 0 90 4f 7f
        E 120 80 51 00
        E 0 80 50 00
        E 0 80 4f 00
        E 0 90 51 7f
        E 0 90 50 7f
        E 0 90 4f 7f
        E 120 80 51 00
        E 0 80 50 00
        E 0 80 4f 00
        E 0 90 51 7f
        E 0 90 50 7f
        E 0 90 4f 7f
        E 120 80 51 00
        E 0 80 50 00
        E 0 80 4f 00
        E 0 90 51 7f
        E 0 90 50 7f
        E 0 90 4f 7f
        E 120 80 51 00
        E 0 80 50 00
        E 0 80 4f 00
        E 0 90 51 7f
        E 0 90 50 7f
        E 0 90 4f 7f
        E 120 80 51 00
        E 0 80 50 00
        E 0 80 4f 00
        E 0 90 51 7f
        E 0 90 50 7f
        E 0 90 4f 7f
        E 120 80 51 00
        E 0 80 50 00
        E 0 80 4f 00
        E 0 90 51 7f
        E 0 90 50 7f
        E 0 90 4f 7f
        E 120 80 51 00
        E 0 80 50 00
        E 0 80 4f 00
        E 0 90 51 7f
        E 0 90 50 7f
        E 0 90 4f 7f
        E 120 80 51 00
        E 0 80 50 00
        E 0 80 4f 00
        E 0 90 51 7f
        E 0 90 50 7f
        E 0 90 4f 7f
        E 120 80 51 00
        E 0 80 50 00
        E 0 80 4f 00
        E 0 90 51 7f
        E 0 90 50 7f
        E 0 90 4f 7f
        E 120 80 51 00
        E 0 80 50 00
        E 0 80 4f 00
        E 0 90 51 7f
        E 0 90 50 7f
        E 0 90 4f 7f
        E 120 80 51 00
        E 0 80 50 00
        E 0 80 4f 00
        E 0 90 51 7f
        E 0 90 50 7f
        E 0 90 4f 7f
        E 120 80 51 00
        E 0 80 50 00
        E 0 80 4f 00
        E 0 90 51 7f
        E 0 90 50 7f
        E 0 90 4f 7f
        E 120 80 51 00
        E 0 80 50 00
        E 0 80 4f 00
        E 0 90 51 7f
        E 0 90 50 7f
        E 0 90 4f 7f
        E 120 80 51 00
        E 0 80 50 00
        E 0 80 4f 00
        E 0 90 51 7f
        E 0 90 50 7f
        E 0 90 4f 7f
        E 120 80 51 00
        E 0 80 50 00
        E 0 80 4f 00
        E 0 90 51 7f
        E 0 90 50 7f
        E 0 90 4f 7f
        E 120 80 51 00
        E 0 80 50 00
        E 0 80 4f 00
        E 0 90 51 7f
        E 0 90 50 7f
        E 0 90 4f 7f
        E 120 80 51 00
        E 0 80 50 00
        E 0 80 4f 00
        E 0 90 51 7f
        E 0 90 50 7f
        E 0 90 4f 7f
        E 120 80 51 00
        E 0 80 50 00
        E 0 80 4f 00
        E 0 90 51 7f
        E 0 90 50 7f
        E 0 90 4f 7f
        E 120 80 51 00
        E 0 80 50 00
        E 0 80 4f 00
        E 0 90 51 7f
        E 0 90 50 7f
        E 0 90 4f 7f
        E 120 80 51 00
        E 0 80 50 00
        E 0 80 4f 00
        E 0 90 51 7f
        E 0 90 50 7f
        E 0 90 4f 7f
        E 120 80 51 00
        E 0 80 50 00
        E 0 80 4f 00
        E 0 90 51 7f
        E 0 90 50 7f
        E 0 90 4f 7f
        E 120 80 51 00
        E 0 80 50 00
        E 0 80 4f 00
        E 0 90 51 7f
        E 0 90 50 7f
        E 0 90 4f 7f
        E 120 80 51 00
        E 0 80 50 00
        E 0 80 4f 00
        E 0 90 51 7f
        E 0 90 50 7f
        E 0 90 4f 7f
        E 120 80 51 00
        E 0 80 50 00
        E 0 80 4f 00
        E 0 90 51 7f
        E 0 90 50 7f
        E 0 90 4f 7f
        E 120 80 51 00
        E 0 80 50 00
        E 0 80 4f 00
        E 0 90 51 7f
        E 0 90 50 7f
        E 0 90 4f 7f
        E 120 80 51 00
        E 0 80 50 00
        E 0 80 4f 00
        E 0 90 51 7f
        E 0 90 50 7f
        E 0 90 4f 7f
        E 120 80 51 00
        E 0 80 50 00
        E 0 80 4f 00
        E 0 90 51 7f
        E 0 90 50 7f
        E 0 90 4f 7f
        E 120 80 51 00
        E 0 80 50 00
        E 0 80 4f 00
        E 0 90 51 7f
        E 0 90 50 7f
        E 0 90 4f 7f
        E 120 80 51 00
        E 0 80 50 00
        E 0 80 4f 00
        E 0 90 51 7f
        E 0 90 50 7f
        E 0 90 4f 7f
        E 120 80 51 00
        E 0 80 50 00
        E 0 80 4f 00
        E 0 90 51 7f
        E 0 90 50 7f
        E 0 90 4f 7f
        E 120 80 51 00
        E 0 80 50 00
        E 0 80 4f 00
        E 0 90 51 7f
        E 0 90 50 7f
        E 0 90 4f 7f
        E 120 80 51 00
        E 0 80 50 00
        E 0 80 4f 00
        E 0 90 51 7f
        E 0 90 50 7f
        E 0 90 4f 7f
        E 120 80 51 00
        E 0 80 50 00
        E 0 80 4f 00
        E 0 90 51 7f
        E 0 90 50 7f
        E 0 90 4f 7f
        E 120 80 51 00
        E 0 80 50 00
        E 0 80 4f 00
        E 0 90 51 7f
        E 0 90 50 7f
        E 0 90 4f 7f
        E 120 80 51 00
        E 0 80 50 00
        E 0 80 4f 00
        E 0 90 51 7f
        E 0 90 50 7f
        E 0 90 4f 7f
        E 120 80 51 00
        E 0 80 50 00
        E 0 80 4f 00
        E 0 90 51 7f
        E 0 90 50 7f
        E 0 90 4f 7f
        E 120 80 51 00
        E 0 80 50 00
        E 0 80 4f 00
        E 0 90 51 7f
        E 0 90 50 7f
        E 0 90 4f 7f
        E 120 80 51 00
        E 0 80 50 00
        E 0 80 4f 00
        E 0 90 51 7f
        E 0 90 50 7f
        E 0 90 4f 7f
        E 120 80 51 00
        E 0 80 50 00
        E 0 80 4f 00
        E 0 90 51 7f
        E 0 90 50 7f
        E 0 90 4f 7f
        E 120 80 51 00
        E 0 80 50 00
        E 0 80 4f 00
        E 0 90 51 7f
        E 0 90 50 7f
        E 0 90 4f 7f
        E 120 80 51 00
        E 0 80 50 00
        E 0 80 4f 00
        E 0 90 51 7f
        E 0 90 50 7f
        E 0 90 4f 7f
        E 120 80 51 00
        E 0 80 50 00
        E 0 80 4f 00
        E 0 90 51 7f
        E 0 90 50 7f
        E 0 90 4f 7f
        E 120 80 51 00
        E 0 80 50 00
        E 0 80 4f 00
        E 0 90 51 7f
        E 0 90 50 7f
        E 0 90 4f 7f
        E 120 80 51 00
        E 0 80 50 00
        E 0 80 4f 00
        E 0 90 51 7f
        E 0 90 50 7f
        E 0 90 4f 7f
        E 120 80 51 00
        E 0 80 50 00
        E 0 80 4f 00
        E 0 90 51 7f
        E 0 90 50 7f
        E 0 90 4f 7f
        E 120 80 51 00
        E 0 80 50 00
        E 0 80 4f 00
        E 0 90 51 7f
        E 0 90 50 7f
        E 0 90 4f 7f
        E 120 80 51 00
        E 0 80 50 00
        E 0 80 4f 00
        E 0 90 51 7f
        E 0 90 50 7f
        E 0 90 4f 7f
        E 120 80 51 00
        E 0 80 50 00
        E 0 80 4f 00
        E 0 90 51 7f
        E 0 90 50 7f
        E 0 90 4f 7f
        E 120 80 51 00
        E 0 80 50 00
        E 0 80 4f 00
        E 0 90 51 7f
        E 0 90 50 7f
        E 0 90 4f 7f
        E 120 80 51 00
        E 0 80 50 00
        E 0 80 4f 00
        E 0 90 51 7f
        E 0 90 50 7f
        E 0 90 4f 7f
        E 120 80 51 00
        E 0 80 50 00
        E 0 80 4f 00
        E 0 90 51 7f
        E 0 90 50 7f
        E 0 90 4f 7f
        E 120 80 51 00
        E 0 80 50 00
        E 0 80 4f 00
        E 0 90 51 7f
        E 0 90 50 7f
        E 0 90 4f 7f
        E 120 80 51 00
        E 0 80 50 00
        E 0 80 4f 00
        E 0 90 51 7f
        E 0 90 50 7f
        E 0 90 4f 7f
        E 120 80 51 00
        E 0 80 50 00
        E 0 80 4f 00
        E 0 90 51 7f
        E 0 90 50 7f
        E 0 90 4f 7f
        E 120 80 51 00
        E 0 80 50 00
        E 0 80 4f 00
        E 0 90 51 7f
        E 0 90 50 7f
        E 0 90 4f 7f
        E 120 80 51 00
        E 0 80 50 00
        E 0 80 4f 00
        E 0 90 51 7f
        E 0 90 50 7f
        E 0 90 4f 7f
        E 120 80 51 00
        E 0 80 50 00
        E 0 80 4f 00
        E 0 90 51 7f
        E 0 90 50 7f
        E 0 90 4f 7f
        E 120 80 51 00
        E 0 80 50 00
        E 0 80 4f 00
        E 0 90 51 7f
        E 0 90 50 7f
        E 0 90 4f 7f
        E 120 80 51 00
        E 0 80 50 00
        E 0 80 4f 00
        E 0 90 51 7f
        E 0 90 50 7f
        E 0 90 4f 7f
        E 120 80 51 00
        E 0 80 50 00
        E 0 80 4f 00
        E 0 90 51 7f
        E 0 90 50 7f
        E 0 90 4f 7f
        E 120 80 51 00
        E 0 80 50 00
        E 0 80 4f 00
        E 0 90 51 7f
        E 0 90 50 7f
        E 0 90 4f 7f
        E 120 80 51 00
        E 0 80 50 00
        E 0 80 4f 00
        E 0 90 51 7f
        E 0 90 50 7f
        E 0 90 4f 7f
        E 120 80 51 00
        E 0 80 50 00
        E 0 80 4f 00
        E 0 90 51 7f
        E 0 90 50 7f
        E 0 90 4f 7f
        E 120 80 51 00
        E 0 80 50 00
        E 0 80 4f 00
        E 0 90 51 7f
        E 0 90 50 7f
        E 0 90 4f 7f
        E 120 80 51 00
        E 0 80 50 00
        E 0 80 4f 00
        E 0 90 51 7f
        E 0 90 50 7f
        E 0 90 4f 7f
        E 120 80 51 00
        E 0 80 50 00
        E 0 80 4f 00
        E 0 90 51 7f
        E 0 90 50 7f
        E 0 90 4f 7f
        E 120 80 51 00
        E 0 80 50 00
        E 0 80 4f 00
        E 0 90 51 7f
        E 0 90 50 7f
        E 0 90 4f 7f
        E 120 80 51 00
        E 0 80 50 00
        E 0 80 4f 00
        E 0 90 51 7f
        E 0 90 50 7f
        E 0 90 4f 7f
        E 120 80 51 00
        E 0 80 50 00
        E 0 80 4f 00
        E 0 90 51 7f
        E 0 90 50 7f
        E 0 90 4f 7f
        E 120 80 51 00
        E 0 80 50 00
        E 0 80 4f 00
        E 0 90 51 7f
        E 0 90 50 7f
        E 0 90 4f 7f
        E 120 80 51 00
        E 0 80 50 00
        E 0 80 4f 00
        E 0 90 51 7f
        E 0 90 50 7f
        E 0 90 4f 7f
        E 120 80 51 00
        E 0 80 50 00
        E 0 80 4f 00
        E 0 90 51 7f
        E 0 90 50 7f
        E 0 90 4f 7f
        E 120 80 51 00
        E 0 80 50 00
        E 0 80 4f 00
        E 0 90 51 7f
        E 0 90 50 7f
        E 0 90 4f 7f
        E 120 80 51 00
        E 0 80 50 00
        E 0 80 4f 00
        E 0 90 51 7f
        E 0 90 50 7f
        E 0 90 4f 7f
        E 120 80 51 00
        E 0 80 50 00
        E 0 80 4f 00
        E 0 90 51 7f
        E 0 90 50 7f
        E 0 90 4f 7f
        E 120 80 51 00
        E 0 80 50 00
        E 0 80 4f 00
        E 0 90 51 7f
        E 0 90 50 7f
        E 0 90 4f 7f
        E 120 80 51 00
        E 0 80 50 00
        E 0 80 4f 00
        E 0 90 51 7f
        E 0 90 50 7f
        E 0 90 4f 7f
        E 120 80 51 00
        E 0 80 50 00
        E 0 80 4f 00
        E 0 90 51 7f
        E 0 90 50 7f
        E 0 90 4f 7f
        E 120 80 51 00
        E 0 80 50 00
        E 0 80 4f 00
        E 0 90 51 7f
        E 0 90 4f 7f
        E 120 80 51 00
        E 0 80 4f 00
        E 0 90 51 7f
        E 0 90 50 7f
        E 0 90 4f 7f
        E 120 80 51 00
        E 0 80 4f 00
        E 0 90 51 7f
        E 0 90 4f 7f
        E 120 80 51 00
        E 0 80 4f 00
        E 0 90 51 7f
        E 0 90 4f 7f
        E 120 80 51 00
        E 0 80 4f 00
        E 0 90 51 7f
        E 0 90 4f 7f
        E 120 80 50 00
        E 0 80 51 00
        E 0 80 4f 00
        E 0 90 51 7f
        E 0 90 4f 7f
        E 120 80 51 00
        E 0 80 4f 00
        E 0 90 51 7f
        E 0 90 50 77
        E 0 90 4f 7f
        E 120 80 51 00
        E 0 80 50 00
        E 0 80 4f 00
        E 0 90 51 7f
        E 0 90 50 77
        E 0 90 4f 7f
        E 120 80 51 00
        E 0 80 50 00
        E 0 80 4f 00
        E 0 90 51 7f
        E 0 90 50 77
        E 0 90 4f 7f
        E 120 80 51 00
        E 0 80 50 00
        E 0 80 4f 00
        E 0 90 51 7f
        E 0 90 4f 7f
        E 120 80 51 00
        E 0 80 4f 00
        E 0 90 51 7f
        E 0 90 50 77
        E 0 90 4f 7f
        E 120 80 51 00
        E 0 80 50 00
        E 0 80 4f 00
        E 0 90 51 7f
        E 0 90 50 77
        E 0 90 4f 7f
        E 120 80 51 00
        E 0 80 50 00
        E 0 80 4f 00
        E 0 90 50 77
        E 0 90 4f 7f
        E 120 80 50 00
        E 0 80 4f 00
        E 0 90 51 7f
        E 0 90 4f 7f
        E 120 80 4f 00
        E 0 90 50 77
        E 0 90 4f 7f
        E 120 80 50 00
        E 0 80 4f 00
        E 0 90 50 77
        E 0 90 4f 7f
        E 120 80 50 00
        E 0 80 4f 00
        E 0 90 4f 7f
        E 120 80 51 00
        E 0 80 4f 00
        E 0 90 50 77
        E 0 90 4f 7f
        E 120 80 50 00
        E 0 80 4f 00
        E 0 90 51 77
        E 0 90 50 77
        E 0 90 4f 7f
        E 120 80 51 00
        E 0 80 50 00
        E 0 80 4f 00
        E 0 90 51 77
        E 0 90 50 77
        E 0 90 4f 7f
        E 120 80 51 00
        E 0 80 50 00
        E 0 80 4f 00
        E 0 90 51 77
        E 0 90 4f 7f
        E 120 80 51 00
        E 0 80 4f 00
        E 0 90 50 77
        E 0 90 4f 7f
        E 120 80 50 00
        E 0 80 4f 00
        E 0 90 51 77
        E 0 90 50 77
        E 0 90 4f 7f
        E 120 80 51 00
        E 0 80 50 00
        E 0 80 4f 00
        E 0 90 51 77
        E 0 90 50 77
        E 0 90 4f 7f
        E 120 80 51 00
        E 0 80 50 00
        E 0 80 4f 00
        E 0 90 51 77
        E 0 90 4f 7f
        E 120 80 51 00
        E 0 80 4f 00
        E 0 90 50 77
        E 0 90 4f 7f
        E 120 80 50 00
        E 0 80 4f 00
        E 0 90 51 77
        E 0 90 50 77
        E 0 90 4f 7f
        E 120 80 51 00
        E 0 80 50 00
        E 0 80 4f 00
        E 0 90 51 77
        E 0 90 50 77
        E 0 90 4f 7f
        E 120 80 51 00
        E 0 80 50 00
        E 0 80 4f 00
        E 0 90 50 77
        E 0 90 4f 7f
        E 120 80 50 00
        E 0 80 4f 00
        E 0 90 51 77
        E 0 90 50 77
        E 0 90 4f 7f
        E 120 80 51 00
        E 0 80 50 00
        E 0 80 4f 00
        E 0 90 51 77
        E 0 90 4f 7f
        E 120 80 51 00
        E 0 80 4f 00
        E 0 90 51 77
        E 0 90 50 77
        E 0 90 4f 7f
        E 120 80 51 00
        E 0 80 50 00
        E 0 80 4f 00
        E 0 90 50 77
        E 0 90 4f 7f
        E 120 80 50 00
        E 0 80 4f 00
        E 0 90 51 77
        E 0 90 50 77
        E 0 90 4f 7f
        E 120 80 51 00
        E 0 80 50 00
        E 0 80 4f 00
        E 0 90 51 77
        E 0 90 4f 7f
        E 120 80 51 00
        E 0 80 4f 00
        E 0 90 51 77
        E 0 90 50 77
        E 0 90 4f 7f
        E 120 80 51 00
        E 0 80 50 00
        E 0 80 4f 00
        E 0 90 50 77
        E 0 90 4f 7f
        E 120 80 50 00
        E 0 80 4f 00
        E 0 90 51 77
        E 0 90 50 77
        E 0 90 4f 7f
        E 120 80 51 00
        E 0 80 4f 00
        E 0 90 51 77
        E 0 90 4f 7f
        E 120 80 51 00
        E 0 80 4f 00
        E 0 90 51 77
        E 0 90 4f 7f
        E 120 80 50 00
        E 0 80 51 00
        E 0 80 4f 00
        E 0 90 51 77
        E 0 90 50 77
        E 0 90 4f 7f
        E 120 80 51 00
        E 0 80 50 00
        E 0 80 4f 00
        E 0 90 51 77
        E 0 90 4f 7f
        E 120 80 51 00
        E 0 80 4f 00
        E 0 90 50 77
        E 0 90 4f 7f
        E 120 80 4f 00
        E 0 90 51 77
        E 0 90 4f 7f
        E 120 80 50 00
        E 0 80 51 00
        E 0 80 4f 00
        E 0 90 51 77
        E 0 90 4f 7f
        E 120 80 51 00
        E 0 80 4f 00
        E 0 90 51 77
        E 0 90 50 77
        E 0 90 4f 7f
        E 120 80 51 00
        E 0 80 50 00
        E 0 80 4f 00
        E 0 90 4f 7f
        E 120 80 4f 00
        E 0 90 51 77
        E 0 90 50 77
        E 0 90 4f 7f
        E 120 80 51 00
        E 0 80 4f 00
        E 0 90 51 77
        E 0 90 4f 7f
        E 120 80 50 00
        E 0 80 51 00
        E 0 80 4f 00
        E 0 90 51 77
        E 0 90 4f 7f
        E 120 80 4f 00
        E 0 90 50 77
        E 0 90 4f 7f
        E 120 80 4f 00
        E 0 90 4f 7f
        E 120 80 51 00
        E 0 80 4f 00
        E 0 90 51 77
        E 0 90 4f 7f
        E 120 80 50 00
        E 0 80 51 00
        E 0 80 4f 00
        E 0 90 4f 7f
        E 120 80 4f 00
        E 0 90 51 77
        E 0 90 50 77
        E 0 90 4f 7f
        E 120 80 50 00
        E 0 80 4f 00
        E 0 90 4f 7f
        E 120 80 51 00
        E 0 80 4f 00
        E 0 90 50 7f
        E 0 90 4f 7f
        E 120 80 50 00
        E 0 80 4f 00
        E 0 90 51 77
        E 0 90 4f 7f
        E 120 80 51 00
        E 0 80 4f 00
        E 0 90 50 7f
        E 0 90 4f 7f
        E 120 80 50 00
        E 0 80 4f 00
        E 0 90 51 77
        E 0 90 4f 7f
        E 120 80 4f 00
        E 0 90 50 7f
        E 0 90 4f 7f
        E 120 80 51 00
        E 0 80 50 00
        E 0 80 4f 00
        E 0 90 4f 7f
        E 120 80 4f 00
        E 0 90 51 77
        E 0 90 50 7f
        E 0 90 4f 7f
        E 120 80 4f 00
        E 0 90 4f 7f
        E 120 80 50 00
        E 0 80 4f 00
        E 0 90 4f 7f
        E 120 80 51 00
        E 0 80 4f 00
        E 0 90 50 7f
        E 0 90 4f 7f
        E 120 80 4f 00
        E 0 90 51 77
        E 0 90 4f 7f
        E 120 80 50 00
        E 0 80 51 00
        E 0 80 4f 00
        E 0 90 4f 7f
        E 120 80 4f 00
        E 0 90 51 7f
        E 0 90 4f 7f
        E 120 80 51 00
        E 0 80 4f 00
        E 0 90 50 7f
        E 0 90 4f 7f
        E 120 80 4f 00
        E 0 90 51 7f
        E 0 90 4f 7f
        E 120 80 51 00
        E 0 80 4f 00
        E 0 90 4f 7f
        E 120 80 50 00
        E 0 80 4f 00
        E 0 90 51 7f
        E 0 90 4f 7f
        E 120 80 51 00
        E 0 80 4f 00
        E 0 90 50 77
        E 0 90 4f 7f
        E 120 80 50 00
        E 0 80 4f 00
        E 0 90 51 7f
        E 0 90 50 77
        E 0 90 4f 7f
        E 120 80 50 00
        E 0 80 4f 00
        E 0 90 50 77
        E 0 90 4f 7f
        E 120 80 51 00
        E 0 80 50 00
        E 0 80 4f 00
        E 0 90 4f 7f
        E 120 80 4f 00
        E 0 90 51 7f
        E 0 90 50 77
        E 0 90 4f 7f
        E 120 80 50 00
        E 0 80 4f 00
        E 0 90 50 77
        E 0 90 4f 7f
        E 120 80 51 00
        E 0 80 50 00
        E 0 80 4f 00
        E 0 90 50 77
        E 0 90 4f 7f
        E 120 80 50 00
        E 0 80 4f 00
        E 0 90 4f 7f
        E 120 80 4f 00
        E 0 90 51 7f
        E 0 90 50 77
        E 0 90 4f 7f
        E 120 80 50 00
        E 0 80 4f 00
        E 0 90 50 77
        E 0 90 4f 7f
        E 120 80 50 00
        E 0 80 4f 00
        E 0 90 4f 7f
        E 120 80 51 00
        E 0 80 4f 00
        E 0 90 50 77
        E 0 90 4f 7f
        E 120 80 50 00
        E 0 80 4f 00
        E 0 90 51 77
        E 0 90 50 77
        E 0 90 4f 7f
        E 120 80 51 00
        E 0 80 50 00
        E 0 80 4f 00
        E 0 90 51 77
        E 0 90 50 77
        E 0 90 4f 7f
        E 120 80 51 00
        E 0 80 50 00
        E 0 80 4f 00
        E 0 90 51 77
        E 0 90 4f 7f
        E 120 80 51 00
        E 0 80 4f 00
        E 0 90 50 77
        E 0 90 4f 7f
        E 120 80 50 00
        E 0 80 4f 00
        E 0 90 51 77
        E 0 90 50 77
        E 0 90 4f 7f
        E 120 80 51 00
        E 0 80 50 00
        E 0 80 4f 00
        E 0 90 51 77
        E 0 90 50 77
        E 0 90 4f 7f
        E 120 80 51 00
        E 0 80 50 00
        E 0 80 4f 00
        E 0 90 51 77
        E 0 90 4f 7f
        E 120 80 51 00
        E 0 80 4f 00
        E 0 90 50 77
        E 0 90 4f 7f
        E 120 80 50 00
        E 0 80 4f 00
        E 0 90 51 77
        E 0 90 50 77
        E 0 90 4f 7f
        E 120 80 51 00
        E 0 80 50 00
        E 0 80 4f 00
        E 0 90 51 77
        E 0 90 50 77
        E 0 90 4f 7f
        E 120 80 51 00
        E 0 80 50 00
        E 0 80 4f 00
        E 0 90 50 77
        E 0 90 4f 7f
        E 120 80 50 00
        E 0 80 4f 00
        E 0 90 51 77
        E 0 90 50 77
        E 0 90 4f 7f
        E 120 80 51 00
        E 0 80 50 00
        E 0 80 4f 00
        E 0 90 51 77
        E 0 90 4f 7f
        E 120 80 51 00
        E 0 80 4f 00
        E 0 90 51 77
        E 0 90 4f 7f
        E 120 80 51 00
        E 0 80 4f 00
        E 0 90 50 77
        E 0 90 4f 7f
        E 120 80 50 00
        E 0 80 4f 00
        E 0 90 51 77
        E 0 90 50 77
        E 0 90 4f 7f
        E 120 80 51 00
        E 0 80 50 00
        E 0 80 4f 00
        E 0 90 51 77
        E 0 90 4f 7f
        E 120 80 51 00
        E 0 80 4f 00
        E 0 90 51 77
        E 0 90 50 77
        E 0 90 4f 7f
        E 120 80 51 00
        E 0 80 50 00
        E 0 80 4f 00
        E 0 90 50 77
        E 0 90 4f 7f
        E 120 80 50 00
        E 0 80 4f 00
        E 0 90 51 77
        E 0 90 50 77
        E 0 90 4f 7f
        E 120 80 51 00
        E 0 80 50 00
        E 0 80 4f 00
        E 0 90 51 77
        E 0 90 4f 7f
        E 120 80 51 00
        E 0 80 4f 00
        E 0 90 51 77
        E 0 90 50 77
        E 0 90 4f 7f
        E 120 80 51 00
        E 0 80 50 00
        E 0 80 4f 00
        E 0 90 51 77
        E 0 90 50 77
        E 0 90 4f 77
        E 120 80 51 00
        E 0 80 50 00
        E 0 80 4f 00
        E 0 90 51 77
        E 0 90 50 77
        E 0 90 4f 77
        E 120 80 51 00
        E 0 80 50 00
        E 120 90 50 77
        E 120 80 4f 00
        E 0 80 50 00
        E 0 90 51 77
        E 0 90 50 77
        E 0 90 4f 77
        E 120 80 51 00
        E 0 80 50 00
        E 0 80 4f 00
        E 0 90 51 77
        E 0 90 50 77
        E 120 80 51 00
        E 0 80 50 00
        E 0 90 50 77
        E 0 90 4f 77
        E 120 80 50 00
        E 0 90 51 77
        E 0 90 50 77
        E 120 80 4f 00
        E 0 80 51 00
        E 0 80 50 00
        E 0 90 51 77
        E 120 80 51 00
        E 0 90 51 77
        E 0 90 4f 77
        E 120 80 51 00
        E 0 80 4f 00
        E 0 90 50 7f
        E 120 90 51 77
        E 0 90 4f 77
        E 120 80 50 00
        E 0 80 51 00
        E 0 90 51 77
        E 120 80 4f 00
        E 0 80 51 00
        E 0 90 51 77
        E 120 80 51 00
        E 0 90 4f 77
        E 0 90 50 7f
        E 120 90 51 77
        E 120 80 50 00
        E 0 80 51 00
        E 0 90 51 77
        E 0 90 50 7f
        E 120 80 4f 00
        E 0 80 51 00
        E 0 80 50 00
        E 0 90 51 77
        E 0 90 50 7f
        E 120 80 51 00
        E 0 80 50 00
        E 0 90 51 77
        E 0 90 4f 77
        E 0 90 50 7f
        E 120 80 51 00
        E 0 80 4f 00
        E 0 80 50 00
        E 0 90 51 77
        E 0 90 50 7f
        E 120 80 51 00
        E 0 80 50 00
        E 0 90 4f 7f
        E 0 90 50 7f
        E 120 80 4f 00
        E 0 80 50 00
        E 0 90 50 7f
        E 120 80 50 00
        E 0 90 51 7f
        E 0 90 4f 7f
        E 0 90 50 7f
        E 120 80 4f 00
        E 0 80 50 00
        E 0 90 50 7f
        E 120 80 51 00
        E 0 80 50 00
        E 0 90 4f 7f
        E 0 90 50 7f
        E 120 80 4f 00
        E 0 80 50 00
        E 0 90 50 7f
        E 120 80 50 00
        E 0 90 4f 7f
        E 0 90 51 7f
        E 0 90 50 7f
        E 120 80 50 00
        E 0 90 50 7f
        E 120 80 4f 00
        E 0 80 51 00
        E 0 80 50 00
        E 0 90 4f 7f
        E 0 90 51 7f
        E 0 90 50 7f
        E 120 80 4f 00
        E 0 80 51 00
        E 0 80 50 00
        E 0 90 51 7f
        E 0 90 50 7f
        E 120 80 51 00
        E 0 80 50 00
        E 0 90 4f 7f
        E 0 90 51 7f
        E 0 90 50 7f
        E 120 80 51 00
        E 0 80 50 00
        E 0 90 51 7f
        E 0 90 50 7f
        E 120 80 4f 00
        E 0 80 51 00
        E 0 80 50 00
        E 0 90 51 7f
        E 0 90 50 7f
        E 120 80 51 00
        E 0 80 50 00
        E 0 90 4f 7f
        E 0 90 51 7f
        E 0 90 50 7f
        E 120 80 4f 00
        E 0 80 51 00
        E 0 80 50 00
        E 0 90 51 7f
        E 0 90 50 7f
        E 120 80 51 00
        E 0 80 50 00
        E 0 90 4f 7f
        E 0 90 51 7f
        E 0 90 50 7f
        E 120 80 4f 00
        E 0 80 51 00
        E 0 80 50 00
        E 0 90 51 7f
        E 0 90 50 7f
        E 120 80 51 00
        E 0 80 50 00
        E 0 90 4f 7f
        E 0 90 51 7f
        E 0 90 50 7f
        E 120 80 4f 00
        E 0 80 51 00
        E 0 80 50 00
        E 0 90 51 7f
        E 0 90 50 7f
        E 120 80 51 00
        E 0 80 50 00
        E 0 90 4f 7f
        E 0 90 51 7f
        E 0 90 50 7f
        E 120 80 4f 00
        E 0 80 51 00
        E 0 80 50 00
        E 0 90 4f 7f
        E 0 90 51 7f
        E 0 90 50 7f
        E 120 80 4f 00
        E 0 80 51 00
        E 0 80 50 00
        E 0 90 51 7f
        E 0 90 50 7f
        E 120 80 51 00
        E 0 80 50 00
        E 0 90 51 7f
        E 0 90 50 7f
        E 120 80 51 00
        E 0 80 50 00
        E 0 90 4f 7f
        E 0 90 51 7f
        E 0 90 50 7f
        E 120 80 4f 00
        E 0 80 51 00
        E 0 80 50 00
        E 0 90 4f 7f
        E 0 90 51 7f
        E 0 90 50 7f
        E 120 80 4f 00
        E 0 80 51 00
        E 0 80 50 00
        E 0 90 51 7f
        E 0 90 50 7f
        E 120 80 51 00
        E 0 80 50 00
        E 0 90 4f 7f
        E 0 90 51 7f
        E 0 90 50 7f
        E 120 80 51 00
        E 0 80 50 00
        E 0 90 51 7f
        E 0 90 50 7f
        E 120 80 51 00
        E 0 80 50 00
        E 0 90 51 7f
        E 0 90 50 7f
        E 120 80 51 00
        E 0 80 50 00
        E 0 90 51 7f
        E 0 90 50 7f
        E 120 80 4f 00
        E 0 80 51 00
        E 0 80 50 00
        E 0 90 51 7f
        E 0 90 50 7f
        E 120 80 51 00
        E 0 80 50 00
        E 0 90 51 7f
        E 0 90 50 7f
        E 120 80 51 00
        E 0 80 50 00
        E 0 90 4f 7f
        E 0 90 51 7f
        E 0 90 50 7f
        E 0 90 50 7f
        E 120 80 51 00
        E 0 80 50 00
        E 0 90 51 7f
        E 0 90 50 7f
        E 120 80 50 00
        E 0 80 51 00
        E 0 90 51 7f
        E 0 90 50 7f
        E 120 80 50 00
        E 0 80 51 00
        E 0 90 51 7f
        E 0 90 50 7f
        E 120 80 4f 00
        E 0 80 50 00
        E 0 80 51 00
        E 0 90 51 7f
        E 0 90 50 7f
        E 120 80 50 00
        E 0 80 51 00
        E 0 90 51 7f
        E 0 90 50 7f
        E 120 80 50 00
        E 0 80 51 00
        E 0 90 4f 7f
        E 0 90 51 7f
        E 0 90 50 7f
        E 120 80 50 00
        E 0 80 51 00
        E 0 80 50 00
        E 0 90 51 7f
        E 0 90 50 7f
        E 120 80 51 00
        E 0 80 50 00
        E 0 90 51 7f
        E 0 90 50 7f
        E 120 80 51 00
        E 0 80 50 00
        E 0 90 51 7f
        E 0 90 50 7f
        E 120 80 4f 00
        E 0 80 51 00
        E 0 80 50 00
        E 0 90 51 7f
        E 0 90 50 7f
        E 120 80 51 00
        E 0 80 50 00
        E 0 90 51 7f
        E 0 90 50 7f
        E 120 80 51 00
        E 0 80 50 00
        E 0 90 4f 7f
        E 0 90 51 7f
        E 0 90 51 7f
        E 0 90 50 7f
        E 120 80 51 00
        E 0 80 50 00
        E 0 90 51 7f
        E 0 90 50 7f
        E 120 80 51 00
        E 0 80 50 00
        E 0 90 51 7f
        E 0 90 50 7f
        E 120 80 51 00
        E 0 80 50 00
        E 0 90 51 7f
        E 0 90 50 7f
        E 120 80 4f 00
        E 0 80 51 00
        E 0 80 50 00
        E 0 90 51 7f
        E 0 90 50 7f
        E 120 80 51 00
        E 0 80 50 00
        E 0 90 4f 7f
        E 0 90 51 7f
        E 0 90 50 7f
        E 120 80 51 00
        E 0 80 50 00
        E 0 90 51 7f
        E 0 90 50 7f
        E 120 80 51 00
        E 0 80 51 00
        E 0 80 50 00
        E 0 90 51 7f
        E 0 90 50 7f
        E 120 80 51 00
        E 0 80 50 00
        E 0 90 51 7f
        E 0 90 50 7f
        E 120 80 4f 00
        E 0 80 51 00
        E 0 80 50 00
        E 0 90 51 7f
        E 0 90 50 7f
        E 120 80 51 00
        E 0 80 50 00
        E 0 90 4f 7f
        E 0 90 51 7f
        E 0 90 50 7f
        E 120 80 51 00
        E 0 80 50 00
        E 0 90 51 7f
        E 0 90 50 7f
        E 120 80 51 00
        E 0 80 50 00
        E 0 90 51 7f
        E 0 90 50 7f
        E 120 80 4f 00
        E 0 80 51 00
        E 0 80 50 00
        E 0 90 51 7f
        E 0 90 50 7f
        E 120 80 51 00
        E 0 80 50 00
        E 0 90 51 7f
        E 0 90 50 7f
        E 120 80 51 00
        E 0 80 50 00
        E 0 90 4f 77
        E 0 90 51 7f
        E 0 90 50 7f
        E 120 80 4f 00
        E 0 80 51 00
        E 0 80 50 00
        E 0 90 4f 77
        E 0 90 51 7f
        E 0 90 50 7f
        E 120 80 4f 00
        E 0 80 51 00
        E 0 80 50 00
        E 0 90 4f 77
        E 0 90 51 7f
        E 0 90 50 7f
        E 120 80 4f 00
        E 0 80 51 00
        E 0 80 50 00
        E 0 90 51 7f
        E 0 90 50 7f
        E 120 80 51 00
        E 0 80 50 00
        E 0 90 4f 77
        E 0 90 51 7f
        E 0 90 50 7f
        E 120 80 4f 00
        E 0 80 51 00
        E 0 80 50 00
        E 0 90 4f 77
        E 0 90 51 7f
        E 0 90 50 7f
        E 120 80 4f 00
        E 0 80 51 00
        E 0 80 50 00
        E 0 90 4f 77
        E 0 90 51 7f
        E 0 90 50 7f
        E 120 80 4f 00
        E 0 80 51 00
        E 0 80 50 00
        E 0 90 51 7f
        E 0 90 50 7f
        E 120 80 51 00
        E 0 80 50 00
        E 0 90 4f 77
        E 0 90 51 7f
        E 0 90 50 7f
        E 120 80 4f 00
        E 0 80 51 00
        E 0 80 50 00
        E 0 90 4f 77
        E 0 90 51 7f
        E 0 90 50 7f
        E 120 80 4f 00
        E 0 80 51 00
        E 0 80 50 00
        E 0 90 51 7f
        E 0 90 50 7f
        E 120 80 51 00
        E 0 80 50 00
        E 0 90 4f 77
        E 0 90 51 7f
        E 0 90 50 7f
        E 120 80 4f 00
        E 0 80 51 00
        E 0 80 50 00
        E 0 90 4f 77
        E 0 90 51 7f
        E 0 90 50 7f
        E 120 80 4f 00
        E 0 80 51 00
        E 0 80 50 00
        E 0 90 4f 77
        E 0 90 51 7f
        E 0 90 50 7f
        E 120 80 4f 00
        E 0 80 51 00
        E 0 80 50 00
        E 0 90 51 7f
        E 0 90 50 7f
        E 120 80 51 00
        E 0 80 50 00
        E 0 90 4f 77
        E 0 90 51 7f
        E 0 90 50 7f
        E 120 80 4f 00
        E 0 80 51 00
        E 0 80 50 00
        E 0 90 4f 77
        E 0 90 51 7f
        E 0 90 50 7f
        E 120 80 4f 00
        E 0 80 51 00
        E 0 80 50 00
        E 0 90 4f 77
        E 0 90 51 7f
        E 0 90 50 7f
        E 120 80 4f 00
        E 0 80 51 00
        E 0 80 50 00
        E 0 90 51 7f
        E 0 90 50 7f
        E 120 80 51 00
        E 0 80 50 00
        E 0 90 4f 77
        E 0 90 51 7f
        E 0 90 50 7f
        E 120 80 4f 00
        E 0 80 51 00
        E 0 80 50 00
        E 0 90 4f 77
        E 0 90 51 7f
        E 0 90 50 7f
        E 120 80 4f 00
        E 0 80 51 00
        E 0 80 50 00
        E 0 90 4f 77
        E 0 90 51 7f
        E 0 90 50 7f
        E 120 80 4f 00
        E 0 80 51 00
        E 0 80 50 00
        E 0 90 4f 77
        E 0 90 51 7f
        E 0 90 50 7f
        E 120 80 4f 00
        E 0 80 51 00
        E 0 80 50 00
        E 0 90 4f 77
        E 0 90 51 7f
        E 0 90 50 7f
        E 120 80 4f 00
        E 0 80 51 00
        E 0 80 50 00
        E 0 90 51 7f
        E 0 90 50 7f
        E 120 80 51 00
        E 0 80 50 00
        E 0 90 4f 77
        E 0 90 51 7f
        E 0 90 50 7f
        E 120 80 4f 00
        E 0 80 51 00
        E 0 80 50 00
        E 0 90 4f 77
        E 0 90 51 7f
        E 0 90 50 7f
        E 120 80 4f 00
        E 0 80 51 00
        E 0 80 50 00
        E 0 90 4f 77
        E 0 90 51 7f
        E 0 90 50 7f
        E 120 80 4f 00
        E 0 80 51 00
        E 0 80 50 00
        E 0 90 51 7f
        E 0 90 50 7f
        E 120 80 51 00
        E 0 80 50 00
        E 0 90 4f 77
        E 0 90 51 7f
        E 0 90 50 7f
        E 120 80 4f 00
        E 0 80 51 00
        E 0 80 50 00
        E 0 90 4f 77
        E 0 90 51 7f
        E 0 90 50 7f
        E 120 80 4f 00
        E 0 80 51 00
        E 0 80 50 00
        E 0 90 4f 77
        E 0 90 51 7f
        E 0 90 50 7f
        E 120 80 51 00
        E 0 80 50 00
        E 0 90 51 7f
        E 0 90 50 7f
        E 120 80 51 00
        E 0 80 50 00
        E 0 90 51 7f
        E 0 90 50 7f
        E 120 80 4f 00
        E 0 80 51 00
        E 0 80 50 00
        E 0 90 4f 77
        E 0 90 51 7f
        E 0 90 50 7f
        E 120 80 4f 00
        E 0 80 51 00
        E 0 80 50 00
        E 0 90 51 7f
        E 0 90 50 7f
        E 120 80 51 00
        E 0 80 50 00
        E 0 90 4f 77
        E 0 90 51 7f
        E 0 90 50 7f
        E 120 80 51 00
        E 0 80 50 00
        E 0 90 51 7f
        E 0 90 50 7f
        E 120 80 4f 00
        E 0 80 51 00
        E 0 80 50 00
        E 0 90 51 7f
        E 0 90 50 7f
        E 120 80 51 00
        E 0 80 50 00
        E 0 90 4f 77
        E 0 90 51 7f
        E 0 90 50 7f
        E 120 80 4f 00
        E 0 80 51 00
        E 0 80 50 00
        E 0 90 51 7f
        E 0 90 50 7f
        E 120 80 51 00
        E 0 80 50 00
        E 0 90 4f 77
        E 0 90 51 7f
        E 0 90 50 7f
        E 120 80 51 00
        E 0 80 50 00
        E 0 90 51 7f
        E 0 90 50 7f
        E 120 80 4f 00
        E 0 80 51 00
        E 0 80 50 00
        E 0 90 51 7f
        E 0 90 50 7f
        E 120 80 51 00
        E 0 80 50 00
        E 0 90 4f 77
        E 0 90 51 7f
        E 0 90 50 7f
        E 120 80 51 00
        E 0 80 50 00
        E 0 90 51 7f
        E 0 90 50 7f
        E 120 80 51 00
        E 0 80 50 00
        E 0 90 51 7f
        E 0 90 50 7f
        E 120 80 4f 00
        E 0 80 51 00
        E 0 80 50 00
        E 0 90 51 7f
        E 0 90 50 7f
        E 120 80 51 00
        E 0 80 50 00
        E 0 90 4f 77
        E 0 90 51 7f
        E 0 90 50 7f
        E 120 80 4f 00
        E 0 80 51 00
        E 0 80 50 00
        E 0 90 51 7f
        E 0 90 50 7f
        E 120 80 51 00
        E 0 80 50 00
        E 0 90 4f 7f
        E 0 90 51 7f
        E 0 90 50 7f
        E 120 80 4f 00
        E 0 80 51 00
        E 0 80 50 00
        E 0 90 51 7f
        E 0 90 50 7f
        E 120 80 51 00
        E 0 80 50 00
        E 0 90 4f 7f
        E 0 90 51 7f
        E 0 90 50 7f
        E 120 80 4f 00
        E 0 80 51 00
        E 0 80 50 00
        E 0 90 51 7f
        E 0 90 50 7f
        E 120 80 51 00
        E 0 80 50 00
        E 0 90 4f 7f
        E 0 90 51 7f
        E 0 90 50 7f
        E 120 80 4f 00
        E 0 80 51 00
        E 0 80 50 00
        E 0 90 51 7f
        E 0 90 50 7f
        E 120 80 51 00
        E 0 80 50 00
        E 0 90 51 7f
        E 0 90 50 7f
        E 0 90 4f 77
        E 120 80 51 00
        E 0 80 50 00
        E 0 80 4f 00
        E 0 90 51 7f
        E 0 90 50 7f
        E 0 90 4f 77
        E 120 80 51 00
        E 0 80 50 00
        E 0 80 4f 00
        E 0 90 51 7f
        E 0 90 50 7f
        E 0 90 4f 77
        E 120 80 51 00
        E 0 80 50 00
        E 0 80 4f 00
        E 0 90 51 7f
        E 0 90 50 7f
        E 120 80 51 00
        E 0 80 50 00
        E 0 90 51 7f
        E 0 90 50 7f
        E 0 90 4f 77
        E 120 80 51 00
        E 0 80 50 00
        E 0 80 4f 00
        E 0 90 51 7f
        E 0 90 50 7f
        E 0 90 4f 77
        E 120 80 51 00
        E 0 80 50 00
        E 0 80 4f 00
        E 0 90 51 7f
        E 0 90 50 7f
        E 0 90 4f 77
        E 120 80 51 00
        E 0 80 50 00
        E 0 80 4f 00
        E 0 90 51 7f
        E 0 90 50 7f
        E 120 80 51 00
        E 0 80 50 00
        E 0 90 51 7f
        E 0 90 50 7f
        E 0 90 4f 77
        E 120 80 51 00
        E 0 80 50 00
        E 0 80 4f 00
        E 0 90 51 7f
        E 0 90 50 7f
        E 0 90 4f 77
        E 120 80 51 00
        E 0 80 50 00
        E 0 80 4f 00
        E 0 90 51 7f
        E 0 90 50 7f
        E 120 80 51 00
        E 0 80 50 00
        E 0 90 51 7f
        E 0 90 50 7f
        E 0 90 4f 77
        E 120 80 51 00
        E 0 80 50 00
        E 0 80 4f 00
        E 0 90 51 7f
        E 0 90 50 7f
        E 0 90 4f 77
        E 120 80 51 00
        E 0 80 50 00
        E 0 80 4f 00
        E 0 90 51 7f
        E 0 90 50 7f
        E 0 90 4f 77
        E 120 80 51 00
        E 0 80 50 00
        E 0 80 4f 00
        E 0 90 51 7f
        E 0 90 50 7f
        E 120 80 51 00
        E 0 80 50 00
        E 0 90 51 7f
        E 0 90 50 7f
        E 0 90 4f 77
        E 120 80 51 00
        E 0 80 50 00
        E 0 80 4f 00
        E 0 90 51 7f
        E 0 90 50 7f
        E 0 90 4f 77
        E 120 80 51 00
        E 0 80 50 00
        E 0 80 4f 00
        E 0 90 51 7f
        E 0 90 50 7f
        E 0 90 4f 77
        E 120 80 51 00
        E 0 80 50 00
        E 0 80 4f 00
        E 0 90 51 7f
        E 0 90 50 7f
        E 120 80 51 00
        E 0 80 50 00
        E 0 90 51 7f
        E 0 90 50 7f
        E 0 90 4f 77
        E 120 80 51 00
        E 0 80 50 00
        E 0 80 4f 00
        E 0 90 51 7f
        E 0 90 50 7f
        E 0 90 4f 77
        E 120 80 51 00
        E 0 80 50 00
        E 0 80 4f 00
        E 0 90 51 7f
        E 0 90 50 7f
        E 0 90 4f 77
        E 120 80 51 00
        E 0 80 50 00
        E 0 80 4f 00
        E 0 90 51 7f
        E 0 90 50 7f
        E 0 90 4f 77
        E 120 80 51 00
        E 0 80 50 00
        E 0 80 4f 00
        E 0 90 51 7f
        E 0 90 50 7f
        E 0 90 4f 77
        E 120 80 51 00
        E 0 80 50 00
        E 0 80 4f 00
        E 0 90 51 7f
        E 0 90 50 7f
        E 120 80 51 00
        E 0 80 50 00
        E 0 90 51 7f
        E 0 90 50 7f
        E 0 90 4f 77
        E 120 80 51 00
        E 0 80 50 00
        E 0 80 4f 00
        E 0 90 51 7f
        E 0 90 50 7f
        E 0 90 4f 77
        E 120 80 51 00
        E 0 80 50 00
        E 0 80 4f 00
        E 0 90 51 7f
        E 0 90 50 7f
        E 0 90 4f 77
        E 120 80 51 00
        E 0 80 50 00
        E 0 80 4f 00
        E 0 90 51 7f
        E 0 90 50 7f
        E 120 80 51 00
        E 0 80 50 00
        E 0 90 51 7f
        E 0 90 50 7f
        E 0 90 4f 77
        E 120 80 51 00
        E 0 80 50 00
        E 0 80 4f 00
        E 0 90 51 7f
        E 0 90 50 7f
        E 0 90 4f 77
        E 120 80 51 00
        E 0 80 50 00
        E 0 80 4f 00
        E 0 90 51 7f
        E 0 90 50 7f
        E 0 90 4f 77
        E 120 80 51 00
        E 0 80 50 00
        E 0 90 51 7f
        E 0 90 50 7f
        E 120 80 51 00
        E 0 80 50 00
        E 0 90 51 7f
        E 0 90 50 7f
        E 120 80 4f 00
        E 0 80 51 00
        E 0 80 50 00
        E 0 90 51 7f
        E 0 90 50 7f
        E 0 90 4f 77
        E 120 80 51 00
        E 0 80 50 00
        E 0 80 4f 00
        E 0 90 51 7f
        E 0 90 50 7f
        E 120 80 51 00
        E 0 80 50 00
        E 0 90 51 7f
        E 0 90 50 7f
        E 0 90 4f 77
        E 120 80 51 00
        E 0 80 50 00
        E 0 90 51 7f
        E 0 90 50 7f
        E 120 80 4f 00
        E 0 80 51 00
        E 0 80 50 00
        E 0 90 51 7f
        E 0 90 50 7f
        E 120 80 51 00
        E 0 80 50 00
        E 0 90 51 7f
        E 0 90 50 7f
        E 0 90 4f 77
        E 120 80 51 00
        E 0 80 50 00
        E 0 80 4f 00
        E 0 90 51 7f
        E 120 80 51 00
        E 0 90 51 7f
        E 0 90 4f 77
        E 120 80 51 00
        E 0 90 51 7f
        E 120 80 4f 00
        E 0 80 51 00
        E 0 90 51 7f
        E 120 80 51 00
        E 0 90 51 7f
        E 0 90 4f 77
        E 0 90 50 77
        E 120 80 51 00
        E 0 80 50 00
        E 0 90 51 7f
        E 0 90 50 77
        E 120 80 51 00
        E 0 80 50 00
        E 0 90 51 7f
        E 0 90 50 77
        E 120 80 4f 00
        E 0 80 51 00
        E 0 80 50 00
        E 0 90 51 7f
        E 120 80 51 00
        E 0 90 51 7f
        E 0 90 4f 77
        E 0 90 50 77
        E 120 80 51 00
        E 0 80 4f 00
        E 0 80 50 00
        E 0 90 51 7f
        E 0 90 50 77
        E 120 80 51 00
        E 0 80 50 00
        E 0 90 51 7f
        E 0 90 4f 7f
        E 0 90 50 77
        E 120 80 51 00
        E 0 80 4f 00
        E 0 80 50 00
        E 0 90 51 7f
        E 120 80 51 00
        E 0 90 4f 7f
        E 0 90 50 77
        E 120 80 4f 00
        E 0 80 50 00
        E 0 90 50 77
        E 120 80 50 00
        E 0 90 4f 7f
        E 120 80 4f 00
        E 0 90 50 77
        E 120 80 50 00
        E 0 90 4f 7f
        E 0 90 50 77
        E 0 90 51 7f
        E 120 80 50 00
        E 0 90 50 77
        E 120 80 4f 00
        E 0 80 51 00
        E 0 80 50 00
        E 120 90 4f 7f
        E 0 90 50 77
        E 0 90 51 7f
        E 120 80 4f 00
        E 0 80 50 00
        E 0 80 51 00
        E 0 90 4f 7f
        E 0 90 50 77
        E 0 90 51 7f
        E 120 80 4f 00
        E 0 80 50 00
        E 0 80 51 00
        E 0 90 50 77
        E 120 80 50 00
        E 0 90 4f 7f
        E 0 90 51 7f
        E 120 90 50 77
        E 120 80 4f 00
        E 0 80 51 00
        E 0 80 50 00
        E 0 90 50 77
        E 120 80 50 00
        E 0 90 4f 7f
        E 0 90 50 77
        E 0 90 51 7f
        E 120 80 50 00
        E 0 90 50 77
        E 120 80 4f 00
        E 0 80 51 00
        E 0 80 50 00
        E 0 90 50 77
        E 120 80 50 00
        E 0 90 4f 7f
        E 0 90 51 7f
        E 120 80 4f 00
        E 0 80 51 00
        E 0 90 4f 7f
        E 0 90 50 77
        E 0 90 51 7f
        E 120 80 4f 00
        E 0 80 50 00
        E 0 80 51 00
        E 0 90 50 77
        E 120 80 50 00
        E 0 90 4f 7f
        E 0 90 50 77
        E 0 90 51 7f
        E 120 80 50 00
        E 120 80 4f 00
        E 0 80 51 00
        E 0 90 50 77
        E 120 80 50 00
        E 0 90 4f 7f
        E 0 90 50 77
        E 0 90 51 7f
        E 120 80 50 00
        E 0 90 50 77
        E 120 80 4f 00
        E 0 80 51 00
        E 120 90 4f 7f
        E 0 90 51 7f
        E 120 80 50 00
        E 0 80 4f 00
        E 0 80 51 00
        E 0 90 4f 7f
        E 0 90 50 77
        E 0 90 51 7f
        E 120 80 4f 00
        E 0 80 50 00
        E 0 80 51 00
        E 120 90 4f 7f
        E 0 90 50 77
        E 0 90 51 7f
        E 240 80 4f 00
        E 0 80 50 00
        E 0 80 51 00
        E 120 90 4f 7f
        E 0 90 50 77
        E 0 90 51 7f
        E 120 80 50 00
        E 120 80 4f 00
        E 0 80 51 00
        E 0 90 50 77
        E 120 90 4f 7f
        E 0 90 51 7f
        E 120 80 50 00
        E 0 80 4f 00
        E 0 80 51 00
        E 0 90 4f 7f
        E 0 90 51 7f
        E 120 80 4f 00
        E 0 80 51 00
        E 0 90 50 77
        E 120 90 4f 7f
        E 0 90 51 7f
        E 240 80 50 00
        E 0 80 4f 00
        E 0 80 51 00
        E 120 90 4f 7f
        E 0 90 50 77
        E 0 90 51 7f
        E 120 80 50 00
        E 120 80 4f 00
        E 0 80 51 00
        E 0 90 50 7f
        E 120 80 50 00
        E 0 90 4f 7f
        E 0 90 51 7f
        E 120 80 4f 00
        E 0 80 51 00
        E 0 90 4f 7f
        E 0 90 50 7f
        E 0 90 51 7f
        E 120 80 4f 00
        E 0 80 50 00
        E 0 80 51 00
        E 120 90 4f 7f
        E 0 90 50 7f
        E 0 90 51 7f
        E 120 80 50 00
        E 120 80 4f 00
        E 0 80 51 00
        E 120 90 4f 7f
        E 0 90 51 7f
        E 0 90 50 7f
        E 240 80 4f 00
        E 0 80 51 00
        E 0 80 50 00
        E 0 90 50 7f
        E 120 80 50 00
        E 0 90 4f 7f
        E 0 90 51 7f
        E 0 90 50 7f
        E 120 80 4f 00
        E 0 80 51 00
        E 0 80 50 00
        E 0 90 4f 7f
        E 0 90 51 7f
        E 0 90 50 7f
        E 120 80 4f 00
        E 0 80 51 00
        E 0 80 50 00
        E 0 90 50 7f
        E 120 80 50 00
        E 0 90 4f 7f
        E 0 90 51 7f
        E 0 90 50 7f
        E 120 80 50 00
        E 0 90 50 7f
        E 120 80 4f 00
        E 0 80 51 00
        E 0 80 50 00
        E 0 90 50 7f
        E 120 80 50 00
        E 0 90 51 7f
        E 0 90 50 7f
        E 120 80 51 00
        E 0 80 50 00
        E 0 90 4f 7f
        E 0 90 51 7f
        E 0 90 50 7f
        E 120 80 4f 00
        E 0 80 51 00
        E 0 80 50 00
        E 0 90 4f 7f
        E 0 90 51 7f
        E 0 90 50 7f
        E 120 80 4f 00
        E 0 80 51 00
        E 0 80 50 00
        E 0 90 4f 7f
        E 0 90 51 7f
        E 0 90 50 7f
        E 120 80 4f 00
        E 0 80 51 00
        E 0 80 50 00
        E 0 90 4f 7f
        E 0 90 51 7f
        E 0 90 50 7f
        E 120 80 4f 00
        E 0 80 51 00
        E 0 80 50 00
        E 0 90 4f 7f
        E 0 90 51 7f
        E 0 90 50 7f
        E 120 80 4f 00
        E 0 80 51 00
        E 0 80 50 00
        E 0 90 4f 7f
        E 0 90 51 7f
        E 0 90 50 7f
        E 120 80 4f 00
        E 0 80 51 00
        E 0 80 50 00
        E 0 90 4f 7f
        E 0 90 51 7f
        E 0 90 50 7f
        E 120 80 4f 00
        E 0 80 51 00
        E 0 80 50 00
        E 0 90 4f 7f
        E 0 90 51 7f
        E 0 90 50 7f
        E 120 80 4f 00
        E 0 80 51 00
        E 0 80 50 00
        E 0 90 4f 7f
        E 0 90 51 7f
        E 0 90 50 7f
        E 120 80 4f 00
        E 0 80 51 00
        E 0 80 50 00
        E 0 90 4f 7f
        E 0 90 51 7f
        E 0 90 50 7f
        E 120 80 4f 00
        E 0 80 51 00
        E 0 80 50 00
        E 0 90 4f 7f
        E 0 90 51 7f
        E 0 90 50 7f
        E 120 80 4f 00
        E 0 80 51 00
        E 0 80 50 00
        E 0 90 4f 7f
        E 0 90 51 7f
        E 0 90 50 7f
        E 120 80 4f 00
        E 0 80 51 00
        E 0 80 50 00
        E 0 90 4f 7f
        E 0 90 51 7f
        E 0 90 50 7f
        E 120 80 4f 00
        E 0 80 51 00
        E 0 80 50 00
        E 0 90 4f 7f
        E 0 90 50 7f
        E 120 80 4f 00
        E 0 80 50 00
        E 0 90 51 7f
        E 0 90 50 7f
        E 120 80 51 00
        E 0 80 50 00
        E 0 90 4f 7f
        E 0 90 50 7f
        E 120 80 4f 00
        E 0 80 50 00
        E 0 90 51 7f
        E 0 90 50 7f
        E 120 80 50 00
        E 0 90 4f 7f
        E 0 90 50 7f
        E 120 80 51 00
        E 0 80 50 00
        E 0 90 51 7f
        E 0 90 50 7f
        E 120 80 4f 00
        E 0 80 51 00
        E 0 80 50 00
        E 0 90 4f 7f
        E 0 90 50 7f
        E 120 80 4f 00
        E 0 80 50 00
        E 0 90 51 7f
        E 0 90 50 7f
        E 120 80 50 00
        E 0 90 4f 7f
        E 0 90 50 7f
        E 120 80 50 00
        E 0 90 50 7f
        E 120 80 51 00
        E 0 80 50 00
        E 0 90 50 7f
        E 120 80 4f 00
        E 0 80 50 00
        E 0 90 51 7f
        E 0 90 50 7f
        E 120 80 51 00
        E 0 80 50 00
        E 0 90 4f 7f
        E 0 90 51 7f
        E 0 90 50 7f
        E 120 80 4f 00
        E 0 80 51 00
        E 0 80 50 00
        E 0 90 4f 7f
        E 0 90 51 7f
        E 0 90 50 7f
        E 120 80 4f 00
        E 0 80 51 00
        E 0 80 50 00
        E 0 90 4f 7f
        E 0 90 51 7f
        E 0 90 50 7f
        E 120 80 4f 00
        E 0 80 51 00
        E 0 80 50 00
        E 0 90 4f 7f
        E 0 90 51 7f
        E 0 90 50 7f
        E 0 90 50 7f
        E 120 80 4f 00
        E 0 80 51 00
        E 0 80 50 00
        E 0 90 4f 7f
        E 0 90 51 7f
        E 0 90 50 7f
        E 120 80 50 00
        E 0 80 4f 00
        E 0 80 51 00
        E 0 90 4f 7f
        E 0 90 51 7f
        E 0 90 50 7f
        E 120 80 50 00
        E 0 80 4f 00
        E 0 80 51 00
        E 0 90 4f 7f
        E 0 90 50 7f
        E 120 80 50 00
        E 0 80 4f 00
        E 0 90 51 7f
        E 0 90 50 7f
        E 120 80 50 00
        E 0 90 4f 7f
        E 0 90 50 7f
        E 120 80 50 00
        E 0 90 50 7f
        E 120 80 51 00
        E 0 80 50 00
        E 0 80 50 00
        E 0 90 50 7f
        E 120 80 4f 00
        E 0 80 50 00
        E 0 90 51 7f
        E 0 90 50 7f
        E 120 80 51 00
        E 0 80 50 00
        E 0 90 4f 7f
        E 0 90 50 7f
        E 120 80 4f 00
        E 0 80 50 00
        E 0 90 51 7f
        E 0 90 50 7f
        E 120 80 50 00
        E 0 90 4f 7f
        E 0 90 50 7f
        E 120 80 50 00
        E 0 90 50 7f
        E 120 80 50 00
        E 0 90 50 7f
        E 120 80 51 00
        E 0 80 50 00
        E 0 90 50 7f
        E 120 80 4f 00
        E 0 80 50 00
        E 0 90 51 77
        E 0 90 50 7f
        E 120 80 51 00
        E 0 80 50 00
        E 0 90 4f 77
        E 0 90 51 77
        E 0 90 50 7f
        E 120 80 4f 00
        E 0 80 51 00
        E 0 80 50 00
        E 0 90 4f 77
        E 0 90 51 77
        E 0 90 50 7f
        E 120 80 4f 00
        E 0 80 51 00
        E 0 80 50 00
        E 0 90 4f 77
        E 0 90 50 7f
        E 120 80 4f 00
        E 0 80 50 00
        E 0 90 51 77
        E 0 90 50 7f
        E 120 80 51 00
        E 0 80 50 00
        E 0 90 4f 77
        E 0 90 51 77
        E 0 90 50 7f
        E 120 80 4f 00
        E 0 80 51 00
        E 0 80 50 00
        E 0 90 4f 77
        E 0 90 51 77
        E 0 90 50 7f
        E 120 80 4f 00
        E 0 80 51 00
        E 0 80 50 00
        E 0 90 4f 77
        E 0 90 50 7f
        E 120 80 4f 00
        E 0 80 50 00
        E 0 90 51 77
        E 0 90 50 7f
        E 120 80 51 00
        E 0 80 50 00
        E 0 90 4f 77
        E 0 90 51 77
        E 0 90 50 7f
        E 120 80 4f 00
        E 0 80 51 00
        E 0 80 50 00
        E 0 90 4f 77
        E 0 90 50 7f
        E 120 80 4f 00
        E 0 80 50 00
        E 0 90 51 77
        E 0 90 50 7f
        E 120 80 51 00
        E 0 80 50 00
        E 0 90 4f 77
        E 0 90 51 77
        E 0 90 50 7f
        E 120 80 4f 00
        E 0 80 51 00
        E 0 80 50 00
        E 0 90 4f 77
        E 0 90 51 77
        E 0 90 50 7f
        E 120 80 4f 00
        E 0 80 51 00
        E 0 80 50 00
        E 0 90 4f 77
        E 0 90 50 7f
        E 120 80 4f 00
        E 0 80 50 00
        E 0 90 51 77
        E 0 90 50 7f
        E 120 80 51 00
        E 0 80 50 00
        E 0 90 4f 77
        E 0 90 51 77
        E 0 90 50 7f
        E 120 80 4f 00
        E 0 80 51 00
        E 0 80 50 00
        E 0 90 4f 77
        E 0 90 51 77
        E 0 90 50 7f
        E 120 80 4f 00
        E 0 80 51 00
        E 0 80 50 00
        E 0 90 4f 77
        E 0 90 50 7f
        E 120 80 4f 00
        E 0 80 50 00
        E 0 90 51 77
        E 0 90 50 7f
        E 120 80 51 00
        E 0 80 50 00
        E 0 90 4f 77
        E 0 90 51 77
        E 0 90 50 7f
        E 120 80 4f 00
        E 0 80 51 00
        E 0 80 50 00
        E 0 90 4f 77
        E 0 90 51 77
        E 0 90 50 7f
        E 120 80 4f 00
        E 0 80 51 00
        E 0 80 50 00
        E 0 90 4f 77
        E 0 90 51 77
        E 0 90 50 7f
        E 120 80 4f 00
        E 0 80 51 00
        E 0 80 50 00
        E 0 90 4f 77
        E 0 90 51 77
        E 0 90 50 7f
        E 120 80 4f 00
        E 0 80 51 00
        E 0 80 50 00
        E 0 90 4f 77
        E 0 90 50 7f
        E 120 80 4f 00
        E 0 80 50 00
        E 0 90 51 77
        E 0 90 50 7f
        E 120 80 51 00
        E 0 80 50 00
        E 0 90 4f 77
        E 0 90 51 77
        E 0 90 50 7f
        E 120 80 4f 00
        E 0 80 51 00
        E 0 80 50 00
        E 0 90 4f 77
        E 0 90 51 77
        E 0 90 50 7f
        E 120 80 4f 00
        E 0 80 51 00
        E 0 80 50 00
        E 0 90 4f 77
        E 0 90 50 7f
        E 120 80 4f 00
        E 0 80 50 00
        E 0 90 51 77
        E 0 90 50 7f
        E 120 80 51 00
        E 0 80 50 00
        E 0 90 4f 77
        E 0 90 51 77
        E 0 90 50 7f
        E 120 80 4f 00
        E 0 80 51 00
        E 0 80 50 00
        E 0 90 4f 77
        E 0 90 51 77
        E 0 90 50 7f
        E 120 80 4f 00
        E 0 80 50 00
        E 0 90 4f 77
        E 0 90 50 7f
        E 120 80 50 00
        E 0 90 50 7f
        E 120 80 51 00
        E 0 80 50 00
        E 0 90 51 77
        E 0 90 50 7f
        E 120 80 4f 00
        E 0 80 51 00
        E 0 80 50 00
        E 0 90 4f 77
        E 0 90 50 7f
        E 120 80 4f 00
        E 0 80 50 00
        E 0 90 51 77
        E 0 90 50 7f
        E 120 80 50 00
        E 0 90 4f 77
        E 0 90 50 7f
        E 120 80 51 00
        E 0 80 50 00
        E 0 90 50 7f
        E 120 80 4f 00
        E 0 80 50 00
        E 0 90 51 77
        E 0 90 50 7f
        E 120 80 51 00
        E 0 80 50 00
        E 0 90 4f 77
        E 0 90 50 7f
        E 120 80 4f 00
        E 0 80 50 00
        E 0 90 51 77
        E 0 90 50 7f
        E 120 80 50 00
        E 0 90 4f 77
        E 0 90 50 7f
        E 120 80 51 00
        E 0 80 50 00
        E 0 90 50 7f
        E 120 80 4f 00
        E 0 80 50 00
        E 0 90 51 77
        E 0 90 50 7f
        E 120 80 50 00
        E 0 90 4f 77
        E 0 90 50 7f
        E 120 80 50 00
        E 0 90 50 7f
        E 120 80 51 00
        E 0 80 50 00
        E 0 90 50 7f
        E 120 80 4f 00
        E 0 80 50 00
        E 0 90 51 77
        E 0 90 50 7f
        E 120 80 51 00
        E 0 80 50 00
        E 0 90 4f 77
        E 0 90 50 7f
        E 120 80 4f 00
        E 0 80 50 00
        E 0 90 51 7f
        E 0 90 50 7f
        E 120 80 51 00
        E 0 80 50 00
        E 0 90 4f 7f
        E 0 90 50 7f
        E 120 80 4f 00
        E 0 80 50 00
        E 0 90 51 7f
        E 0 90 50 7f
        E 120 80 51 00
        E 0 80 50 00
        E 0 90 4f 7f
        E 0 90 50 7f
        E 120 80 4f 00
        E 0 80 50 00
        E 0 90 51 7f
        E 0 90 50 7f
        E 120 80 51 00
        E 0 80 50 00
        E 0 90 4f 7f
        E 0 90 50 7f
        E 120 80 4f 00
        E 0 80 50 00
        E 120 90 4f 7f
        E 0 90 50 7f
        E 120 80 4f 00
        E 0 80 50 00
        E 0 90 4f 7f
        E 0 90 51 7f
        E 120 80 4f 00
        E 0 90 4f 7f
        E 0 90 50 7f
        E 120 80 51 00
        E 0 80 4f 00
        E 0 90 4f 7f
        E 120 80 50 00
        E 0 80 4f 00
        E 0 90 4f 7f
        E 0 90 51 7f
        E 120 80 4f 00
        E 0 80 51 00
        E 0 90 4f 7f
        E 0 90 51 7f
        E 0 90 50 7f
        E 120 80 4f 00
        E 0 80 51 00
        E 0 80 50 00
        E 0 90 4f 7f
        E 120 80 4f 00
        E 0 90 51 7f
        E 0 90 4f 7f
        E 0 90 50 7f
        E 120 80 4f 00
        E 0 80 50 00
        E 0 90 4f 7f
        E 120 80 51 00
        E 0 80 4f 00
        E 0 90 4f 7f
        E 0 90 50 7f
        E 120 80 4f 00
        E 0 80 50 00
        E 0 90 4f 7f
        E 0 90 51 7f
        E 120 80 4f 00
        E 0 90 4f 7f
        E 0 90 50 7f
        E 120 80 51 00
        E 0 80 4f 00
        E 0 80 50 00
        E 0 90 4f 7f
        E 0 90 50 7f
        E 120 80 4f 00
        E 0 80 50 00
        E 0 90 4f 7f
        E 0 90 51 7f
        E 120 80 4f 00
        E 0 80 51 00
        E 0 90 4f 7f
        E 0 90 51 7f
        E 120 80 4f 00
        E 0 80 51 00
        E 0 90 4f 7f
        E 0 90 50 7f
        E 120 80 4f 00
        E 0 80 50 00
        E 0 90 4f 7f
        E 0 90 51 7f
        E 0 90 50 7f
        E 120 80 4f 00
        E 0 80 50 00
        E 0 90 4f 7f
        E 120 80 51 00
        E 0 80 4f 00
        E 0 90 4f 7f
        E 0 90 50 7f
        E 120 80 4f 00
        E 0 90 4f 7f
        E 0 90 51 7f
        E 120 80 4f 00
        E 0 90 4f 7f
        E 120 80 51 00
        E 0 80 4f 00
        E 0 90 4f 7f
        E 120 80 50 00
        E 0 80 4f 00
        E 0 90 4f 7f
        E 0 90 51 7f
        E 120 80 4f 00
        E 0 80 51 00
        E 0 90 4f 7f
        E 0 90 51 7f
        E 120 80 4f 00
        E 0 80 51 00
        E 0 90 4f 7f
        E 0 90 50 7f
        E 120 80 4f 00
        E 0 90 4f 7f
        E 0 90 51 7f
        E 120 80 4f 00
        E 0 90 4f 7f
        E 120 80 51 00
        E 0 80 4f 00
        E 0 90 4f 7f
        E 120 80 50 00
        E 0 80 4f 00
        E 0 90 4f 7f
        E 0 90 51 7f
        E 120 80 4f 00
        E 0 90 4f 7f
        E 120 80 51 00
        E 0 80 4f 00
        E 0 90 50 7f
        E 0 90 4f 7f
        E 120 80 4f 00
        E 0 90 4f 7f
        E 0 90 51 7f
        E 120 80 4f 00
        E 0 80 51 00
        E 0 90 4f 7f
        E 0 90 51 7f
        E 120 80 4f 00
        E 0 80 51 00
        E 0 90 4f 7f
        E 120 80 50 00
        E 0 80 4f 00
        E 0 90 4f 7f
        E 0 90 51 7f
        E 120 80 4f 00
        E 0 90 4f 7f
        E 120 80 51 00
        E 0 80 4f 00
        E 0 90 4f 7f
        E 0 90 50 7f
        E 120 80 4f 00
        E 0 90 4f 7f
        E 0 90 51 7f
        E 0 90 4f 7f
        E 120 80 4f 00
        E 0 90 4f 7f
        E 120 80 51 00
        E 0 80 4f 00
        E 0 90 4f 7f
        E 120 80 50 00
        E 0 80 4f 00
        E 0 90 4f 7f
        E 0 90 51 7f
        E 120 80 4f 00
        E 0 80 51 00
        E 0 90 4f 7f
        E 0 90 51 7f
        E 0 90 50 7f
        E 120 80 4f 00
        E 0 80 51 00
        E 0 90 4f 7f
        E 120 80 4f 00
        E 0 90 4f 7f
        E 0 90 51 7f
        E 120 80 4f 00
        E 0 80 4f 00
        E 0 90 4f 7f
        E 120 80 50 00
        E 0 80 51 00
        E 0 80 4f 00
        E 0 90 4f 7f
        E 120 80 4f 00
        E 0 90 4f 7f
        E 0 90 51 7f
        E 0 90 50 7f
        E 120 80 4f 00
        E 0 90 4f 7f
        E 120 80 51 00
        E 0 80 4f 00
        E 0 90 4f 7f
        E 120 80 50 00
        E 0 80 4f 00
        E 0 90 4f 7f
        E 0 90 51 7f
        E 120 80 4f 00
        E 0 80 51 00
        E 0 90 4f 7f
        E 0 90 51 7f
        E 120 80 4f 00
        E 0 80 51 00
        E 0 90 50 7f
        E 0 90 4f 7f
        E 120 80 50 00
        E 0 80 4f 00
        E 0 90 4f 7f
        E 0 90 51 7f
        E 120 80 4f 00
        E 0 90 4f 7f
        E 120 80 51 00
        E 0 80 4f 00
        E 0 90 4f 7f
        E 0 90 50 7f
        E 120 80 4f 00
        E 0 80 50 00
        E 0 90 4f 7f
        E 0 90 51 7f
        E 0 90 50 7f
        E 120 80 4f 00
        E 0 80 51 00
        E 0 80 50 00
        E 0 90 4f 7f
        E 0 90 51 7f
        E 0 90 50 7f
        E 120 80 4f 00
        E 0 80 51 00
        E 0 80 50 00
        E 0 90 4f 7f
        E 0 90 51 7f
        E 0 90 50 7f
        E 120 80 4f 00
        E 0 80 51 00
        E 0 80 50 00
        E 0 90 4f 7f
        E 0 90 51 7f
        E 0 90 50 7f
        E 120 80 4f 00
        E 0 80 51 00
        E 0 80 50 00
        E 0 90 4f 7f
        E 0 90 51 7f
        E 0 90 50 7f
        E 120 80 4f 00
        E 0 80 51 00
        E 0 80 50 00
        E 0 90 4f 7f
        E 0 90 51 7f
        E 0 90 50 7f
        E 120 80 4f 00
        E 0 80 51 00
        E 0 80 50 00
        E 0 90 4f 7f
        E 0 90 51 7f
        E 0 90 50 7f
        E 120 80 4f 00
        E 0 80 51 00
        E 0 80 50 00
        E 0 90 4f 7f
        E 0 90 51 7f
        E 0 90 50 7f
        E 120 80 4f 00
        E 0 80 51 00
        E 0 80 50 00
        E 0 90 4f 7f
        E 0 90 51 7f
        E 0 90 50 7f
        E 120 80 4f 00
        E 0 80 51 00
        E 0 80 50 00
        E 0 90 4f 7f
        E 0 90 51 7f
        E 0 90 50 7f
        E 120 80 4f 00
        E 0 80 51 00
        E 0 80 50 00
        E 0 90 4f 7f
        E 0 90 51 7f
        E 0 90 50 7f
        E 120 80 4f 00
        E 0 80 51 00
        E 0 80 50 00
        E 0 90 4f 7f
        E 0 90 51 7f
        E 0 90 50 7f
        E 120 80 4f 00
        E 0 80 51 00
        E 0 80 50 00
        E 0 90 4f 7f
        E 0 90 51 7f
        E 0 90 50 7f
        E 120 80 4f 00
        E 0 80 51 00
        E 0 80 50 00
        E 0 90 4f 7f
        E 0 90 51 7f
        E 0 90 50 7f
        E 120 80 4f 00
        E 0 80 51 00
        E 0 80 50 00
        E 0 90 4f 7f
        E 0 90 50 7f
        E 120 80 4f 00
        E 0 90 4f 7f
        E 0 90 51 7f
        E 120 80 4f 00
        E 0 80 51 00
        E 0 90 4f 7f
        E 120 80 4f 00
        E 0 90 4f 7f
        E 0 90 51 7f
        E 120 80 4f 00
        E 0 90 4f 7f
        E 120 80 51 00
        E 0 80 4f 00
        E 0 90 4f 7f
        E 0 90 51 7f
        E 120 80 4f 00
        E 0 80 51 00
        E 0 90 4f 7f
        E 120 80 4f 00
        E 0 90 4f 7f
        E 0 90 51 7f
        E 120 80 4f 00
        E 0 90 4f 7f
        E 120 80 4f 00
        E 0 90 4f 7f
        E 120 80 51 00
        E 0 80 4f 00
        E 0 90 4f 7f
        E 120 80 4f 00
        E 0 90 4f 7f
        E 0 90 51 7f
        E 120 80 4f 00
        E 0 80 51 00
        E 0 90 4f 7f
        E 0 90 51 7f
        E 120 80 4f 00
        E 0 80 51 00
        E 0 90 4f 7f
        E 0 90 51 7f
        E 120 80 4f 00
        E 0 80 51 00
        E 0 90 4f 7f
        E 0 90 51 7f
        E 120 80 4f 00
        E 0 80 51 00
        E 0 90 4f 7f
        E 0 90 51 7f
        E 120 80 4f 00
        E 0 80 51 00
        E 0 90 4f 7f
        E 0 90 51 7f
        E 120 80 4f 00
        E 0 80 51 00
        E 0 90 4f 7f
        E 0 90 51 7f
        E 120 80 4f 00
        E 0 80 51 00
        E 0 90 4f 7f
        E 120 80 50 00
        E 0 80 4f 00
        E 0 90 4f 7f
        E 0 90 51 7f
        E 0 90 50 7f
        E 120 80 4f 00
        E 0 80 50 00
        E 0 90 4f 7f
        E 0 90 50 7f
        E 120 80 4f 00
        E 0 80 50 00
        E 0 90 4f 7f
        E 0 90 50 7f
        E 120 80 51 00
        E 0 80 4f 00
        E 0 80 50 00
        E 0 90 4f 7f
        E 0 90 50 7f
        E 120 80 4f 00
        E 0 80 50 00
        E 0 90 51 7f
        E 0 90 4f 7f
        E 0 90 50 7f
        E 120 80 51 00
        E 0 80 4f 00
        E 0 80 50 00
        E 0 90 4f 7f
        E 0 90 50 7f
        E 120 80 4f 00
        E 0 80 50 00
        E 0 90 4f 7f
        E 0 90 51 7f
        E 0 90 50 7f
        E 120 80 4f 00
        E 0 80 50 00
        E 0 90 4f 7f
        E 0 90 50 7f
        E 120 80 4f 00
        E 0 80 50 00
        E 0 90 4f 7f
        E 0 90 50 7f
        E 120 80 4f 00
        E 0 80 50 00
        E 0 90 4f 7f
        E 0 90 50 7f
        E 120 80 51 00
        E 0 80 4f 00
        E 0 80 50 00
        E 0 90 4f 7f
        E 0 90 50 7f
        E 120 80 4f 00
        E 0 80 50 00
        E 0 90 4f 7f
        E 0 90 51 77
        E 0 90 50 7f
        E 120 80 4f 00
        E 0 80 51 00
        E 0 80 50 00
        E 0 90 4f 7f
        E 0 90 51 77
        E 0 90 50 7f
        E 120 80 4f 00
        E 0 80 51 00
        E 0 80 50 00
        E 0 90 4f 7f
        E 0 90 51 77
        E 0 90 50 7f
        E 120 80 4f 00
        E 0 80 51 00
        E 0 80 50 00
        E 0 90 4f 7f
        E 0 90 50 7f
        E 120 80 4f 00
        E 0 80 50 00
        E 0 90 4f 7f
        E 0 90 51 77
        E 120 80 4f 00
        E 0 80 51 00
        E 0 90 4f 7f
        E 0 90 51 77
        E 120 80 4f 00
        E 0 80 51 00
        E 0 90 4f 7f
        E 0 90 51 77
        E 120 80 4f 00
        E 0 80 51 00
        E 0 90 50 7f
        E 0 90 4f 7f
        E 120 80 4f 00
        E 0 90 4f 7f
        E 0 90 51 77
        E 120 80 4f 00
        E 0 80 51 00
        E 0 90 4f 7f
        E 0 90 51 77
        E 120 80 4f 00
        E 0 80 51 00
        E 0 90 4f 7f
        E 120 80 4f 00
        E 0 90 4f 7f
        E 0 90 51 77
        E 120 80 4f 00
        E 0 80 51 00
        E 0 90 4f 7f
        E 0 90 51 77
        E 120 80 4f 00
        E 0 80 51 00
        E 0 90 4f 7f
        E 0 90 51 77
        E 120 80 4f 00
        E 0 80 51 00
        E 0 90 4f 7f
        E 120 80 4f 00
        E 0 90 4f 7f
        E 0 90 51 77
        E 120 80 4f 00
        E 0 80 51 00
        E 0 90 4f 7f
        E 0 90 51 77
        E 120 80 4f 00
        E 0 80 51 00
        E 0 90 4f 7f
        E 0 90 51 77
        E 120 80 4f 00
        E 0 80 51 00
        E 0 90 4f 7f
        E 120 80 4f 00
        E 0 90 4f 7f
        E 0 90 51 77
        E 120 80 4f 00
        E 0 80 51 00
        E 0 90 4f 7f
        E 0 90 51 77
        E 120 80 50 00
        E 0 80 4f 00
        E 0 80 51 00
        E 0 90 4f 7f
        E 0 90 51 77
        E 0 90 50 7f
        E 120 80 4f 00
        E 0 80 51 00
        E 0 80 50 00
        E 0 90 4f 7f
        E 0 90 51 77
        E 120 80 4f 00
        E 0 80 51 00
        E 0 90 50 7f
        E 0 90 4f 7f
        E 0 90 51 77
        E 120 80 4f 00
        E 0 80 51 00
        E 0 90 4f 7f
        E 120 80 4f 00
        E 0 90 4f 7f
        E 0 90 51 77
        E 120 80 4f 00
        E 0 80 51 00
        E 0 90 4f 7f
        E 0 90 51 77
        E 120 80 4f 00
        E 0 80 51 00
        E 0 90 4f 7f
        E 0 90 51 77
        E 120 80 4f 00
        E 0 80 51 00
        E 0 90 4f 7f
        E 120 80 4f 00
        E 0 90 4f 7f
        E 0 90 51 77
        E 120 80 4f 00
        E 0 80 51 00
        E 0 90 4f 7f
        E 0 90 51 77
        E 120 80 50 00
        E 0 80 4f 00
        E 0 80 51 00
        E 0 90 4f 7f
        E 0 90 51 77
        E 120 80 4f 00
        E 0 90 4f 7f
        E 120 80 4f 00
        E 0 90 4f 7f
        E 120 80 51 00
        E 0 80 4f 00
        E 0 90 51 77
        E 0 90 4f 7f
        E 0 90 50 7f
        E 120 80 51 00
        E 0 80 4f 00
        E 0 90 4f 7f
        E 120 80 4f 00
        E 0 90 4f 7f
        E 0 90 51 77
        E 120 80 4f 00
        E 0 90 4f 7f
        E 120 80 50 00
        E 0 80 51 00
        E 0 80 4f 00
        E 0 90 4f 7f
        E 0 90 50 7f
        E 120 80 4f 00
        E 0 80 50 00
        E 0 90 4f 7f
        E 0 90 51 77
        E 0 90 50 7f
        E 120 80 4f 00
        E 0 80 51 00
        E 0 80 50 00
        E 0 90 4f 7f
        E 0 90 50 7f
        E 120 80 4f 00
        E 0 80 50 00
        E 0 90 4f 7f
        E 0 90 51 77
        E 0 90 50 7f
        E 120 80 4f 00
        E 0 80 50 00
        E 0 90 4f 7f
        E 0 90 50 7f
        E 120 80 51 00
        E 0 80 4f 00
        E 0 80 50 00
        E 0 90 4f 7f
        E 0 90 50 7f
        E 120 80 4f 00
        E 0 80 50 00
        E 0 90 4f 7f
        E 0 90 51 77
        E 0 90 50 7f
        E 120 80 4f 00
        E 0 80 50 00
        E 0 90 4f 7f
        E 0 90 50 7f
        E 120 80 4f 00
        E 0 80 50 00
        E 0 90 4f 7f
        E 0 90 50 7f
        E 120 80 51 00
        E 0 80 4f 00
        E 0 80 50 00
        E 0 90 4f 7f
        E 0 90 50 7f
        E 120 80 4f 00
        E 0 80 50 00
        E 0 90 4f 7f
        E 0 90 51 77
        E 0 90 50 7f
        E 120 80 4f 00
        E 0 80 51 00
        E 0 80 50 00
        E 0 90 4f 7f
        E 0 90 50 7f
        E 120 80 4f 00
        E 0 80 50 00
        E 0 90 4f 7f
        E 0 90 51 7f
        E 0 90 50 7f
        E 120 80 4f 00
        E 0 80 51 00
        E 0 80 50 00
        E 0 90 4f 7f
        E 0 90 50 7f
        E 120 80 4f 00
        E 0 80 50 00
        E 0 90 4f 7f
        E 0 90 51 7f
        E 0 90 50 7f
        E 120 80 4f 00
        E 0 80 51 00
        E 0 80 50 00
        E 0 90 4f 7f
        E 0 90 50 7f
        E 120 80 4f 00
        E 0 80 50 00
        E 0 90 4f 7f
        E 0 90 51 7f
        E 0 90 50 7f
        E 120 80 4f 00
        E 0 80 51 00
        E 0 80 50 00
        E 0 90 4f 7f
        E 0 90 50 7f
        E 120 80 4f 00
        E 0 80 50 00
        E 0 90 4f 7f
        E 0 90 51 7f
        E 0 90 50 7f
        E 120 80 4f 00
        E 0 80 50 00
        E 0 90 4f 7f
        E 0 90 50 7f
        E 120 80 51 00
        E 0 80 4f 00
        E 0 80 50 00
        E 0 90 4f 7f
        E 0 90 50 7f
        E 120 80 4f 00
        E 0 80 50 00
        E 0 90 4f 7f
        E 0 90 51 7f
        E 0 90 50 7f
        E 120 80 4f 00
        E 0 80 50 00
        E 0 90 4f 7f
        E 0 90 50 7f
        E 120 80 51 00
        E 0 80 4f 00
        E 0 80 50 00
        E 0 90 50 7f
        E 0 90 51 7f
        E 0 90 4f 7f
        E 120 80 50 00
        E 0 80 51 00
        E 0 80 4f 00
        E 0 90 50 7f
        E 0 90 51 7f
        E 0 90 4f 7f
        E 120 80 50 00
        E 0 80 51 00
        E 0 80 4f 00
        E 0 90 50 7f
        E 0 90 51 7f
        E 0 90 4f 7f
        E 120 80 50 00
        E 0 80 51 00
        E 0 80 4f 00
        E 0 90 51 7f
        E 0 90 50 7f
        E 0 90 4f 7f
        E 120 80 51 00
        E 0 80 4f 00
        E 0 90 51 7f
        E 0 90 4f 7f
        E 120 80 51 00
        E 0 80 4f 00
        E 0 90 51 7f
        E 0 90 4f 7f
        E 120 80 51 00
        E 0 80 4f 00
        E 0 90 51 7f
        E 0 90 4f 7f
        E 120 80 51 00
        E 0 80 4f 00
        E 0 90 51 7f
        E 0 90 4f 7f
        E 120 80 51 00
        E 0 80 4f 00
        E 0 90 51 7f
        E 0 90 4f 7f
        E 120 80 51 00
        E 0 80 4f 00
        E 0 90 51 7f
        E 0 90 4f 7f
        E 120 80 51 00
        E 0 80 4f 00
        E 0 90 51 7f
        E 0 90 4f 7f
        E 120 80 50 00
        E 0 80 51 00
        E 0 80 4f 00
        E 0 90 51 7f
        E 0 90 4f 7f
        E 120 80 51 00
        E 0 80 4f 00
        E 0 90 51 7f
        E 0 90 4f 7f
        E 120 80 51 00
        E 0 80 4f 00
        E 0 90 51 7f
        E 0 90 4f 7f
        E 120 80 51 00
        E 0 80 4f 00
        E 0 90 51 7f
        E 0 90 50 7f
        E 0 90 4f 7f
        E 120 80 51 00
        E 0 80 4f 00
        E 0 90 51 7f
        E 0 90 4f 7f
        E 120 80 51 00
        E 0 80 4f 00
        E 0 90 51 7f
        E 0 90 4f 7f
        E 120 80 51 00
        E 0 80 4f 00
        E 0 90 51 7f
        E 0 90 4f 7f
        E 120 80 50 00
        E 0 80 51 00
        E 0 80 4f 00
        E 0 90 51 7f
        E 0 90 50 7f
        E 0 90 4f 7f
        E 120 80 51 00
        E 0 80 50 00
        E 0 80 4f 00
        E 0 90 51 7f
        E 0 90 50 7f
        E 0 90 4f 7f
        E 120 80 51 00
        E 0 80 50 00
        E 0 80 4f 00
        E 0 90 51 7f
        E 0 90 50 7f
        E 0 90 4f 7f
        E 120 80 51 00
        E 0 80 50 00
        E 0 80 4f 00
        E 0 90 51 7f
        E 0 90 50 7f
        E 0 90 4f 7f
        E 120 80 51 00
        E 0 80 50 00
        E 0 80 4f 00
        E 0 90 51 7f
        E 0 90 50 7f
        E 0 90 4f 7f
        E 120 80 51 00
        E 0 80 50 00
        E 0 80 4f 00
        E 0 90 51 7f
        E 0 90 50 7f
        E 0 90 4f 7f
        E 120 80 51 00
        E 0 80 50 00
        E 0 80 4f 00
        E 0 90 51 7f
        E 0 90 50 7f
        E 0 90 4f 7f
        E 120 80 51 00
        E 0 80 50 00
        E 0 80 4f 00
        E 0 90 51 7f
        E 0 90 50 7f
        E 0 90 4f 7f
        E 120 80 51 00
        E 0 80 50 00
        E 0 80 4f 00
        E 0 90 51 7f
        E 0 90 50 7f
        E 0 90 4f 7f
        E 120 80 51 00
        E 0 80 50 00
        E 0 80 4f 00
        E 0 90 51 7f
        E 0 90 50 7f
        E 0 90 4f 7f
        E 120 80 51 00
        E 0 80 50 00
        E 0 80 4f 00
        E 0 90 51 7f
        E 0 90 50 7f
        E 0 90 4f 7f
        E 120 80 51 00
        E 0 80 50 00
        E 0 80 4f 00
        E 0 90 51 7f
        E 0 90 50 7f
        E 0 90 4f 7f
        E 120 80 51 00
        E 0 80 50 00
        E 0 80 4f 00
        E 0 90 51 7f
        E 0 90 50 7f
        E 0 90 4f 7f
        E 120 80 51 00
        E 0 80 50 00
        E 0 80 4f 00
        E 0 90 51 7f
        E 0 90 50 7f
        E 0 90 4f 7f
        E 120 80 51 00
        E 0 80 50 00
        E 0 80 4f 00
        E 0 90 51 7f
        E 0 90 50 7f
        E 0 90 4f 7f
        E 120 80 51 00
        E 0 80 50 00
        E 0 80 4f 00
        E 0 90 51 7f
        E 0 90 50 7f
        E 0 90 4f 7f
        E 120 80 51 00
        E 0 80 50 00
        E 0 80 4f 00
        E 0 90 51 7f
        E 0 90 50 7f
        E 0 90 4f 7f
        E 120 80 51 00
        E 0 80 50 00
        E 0 80 4f 00
        E 0 90 51 7f
        E 0 90 50 7f
        E 0 90 4f 7f
        E 120 80 51 00
        E 0 80 50 00
        E 0 80 4f 00
        E 0 90 51 7f
        E 0 90 51 7f
        E 0 90 50 7f
        E 0 90 4f 7f
        E 120 80 51 00
        E 0 80 50 00
        E 0 80 4f 00
        E 0 90 51 7f
        E 0 90 50 7f
        E 0 90 4f 7f
        E 120 80 51 00
        E 0 80 50 00
        E 0 80 4f 00
        E 0 90 51 7f
        E 0 90 50 7f
        E 0 90 4f 7f
        E 120 80 51 00
        E 0 80 50 00
        E 0 80 4f 00
        E 0 90 51 7f
        E 0 90 50 7f
        E 0 90 4f 7f
        E 120 80 51 00
        E 0 80 50 00
        E 0 80 4f 00
        E 0 90 51 7f
        E 0 90 50 7f
        E 0 90 4f 7f
        E 120 80 51 00
        E 0 80 50 00
        E 0 80 4f 00
        E 0 90 51 7f
        E 0 90 50 7f
        E 0 90 4f 7f
        E 120 80 51 00
        E 0 80 50 00
        E 0 80 4f 00
        E 0 90 51 7f
        E 0 90 50 7f
        E 0 90 4f 7f
        E 120 80 51 00
        E 0 80 51 00
        E 0 80 50 00
        E 0 80 4f 00
        E 0 90 51 7f
        E 0 90 50 7f
        E 0 90 4f 7f
        E 120 80 51 00
        E 0 80 50 00
        E 0 80 4f 00
        E 0 90 51 7f
        E 0 90 4f 7f
        E 120 80 51 00
        E 0 80 4f 00
        E 0 90 51 7f
        E 0 90 4f 7f
        E 120 80 51 00
        E 0 80 4f 00
        E 0 90 51 7f
        E 0 90 50 77
        E 0 90 4f 7f
        E 120 80 51 00
        E 0 80 50 00
        E 0 80 4f 00
        E 0 90 51 7f
        E 0 90 50 77
        E 0 90 4f 7f
        E 120 80 51 00
        E 0 80 50 00
        E 0 80 4f 00
        E 0 90 51 7f
        E 0 90 50 77
        E 0 90 4f 7f
        E 120 80 51 00
        E 0 80 50 00
        E 0 80 4f 00
        E 0 90 51 7f
        E 0 90 4f 7f
        E 120 80 51 00
        E 0 80 4f 00
        E 0 90 51 7f
        E 0 90 50 77
        E 0 90 4f 7f
        E 120 80 51 00
        E 0 80 50 00
        E 0 80 4f 00
        E 0 90 51 7f
        E 0 90 50 77
        E 0 90 4f 7f
        E 120 80 51 00
        E 0 80 50 00
        E 0 80 4f 00
        E 0 90 51 7f
        E 0 90 50 77
        E 0 90 4f 7f
        E 120 80 51 00
        E 0 80 50 00
        E 0 80 4f 00
        E 0 90 51 7f
        E 0 90 4f 7f
        E 120 80 51 00
        E 0 80 4f 00
        E 0 90 51 7f
        E 0 90 50 77
        E 0 90 4f 7f
        E 120 80 51 00
        E 0 80 50 00
        E 0 80 4f 00
        E 0 90 51 7f
        E 0 90 50 77
        E 0 90 4f 7f
        E 120 80 51 00
        E 0 80 50 00
        E 0 80 4f 00
        E 0 90 51 7f
        E 0 90 4f 7f
        E 120 80 51 00
        E 0 80 4f 00
        E 0 90 51 7f
        E 0 90 50 77
        E 0 90 4f 7f
        E 120 80 51 00
        E 0 80 50 00
        E 0 80 4f 00
        E 0 90 51 7f
        E 0 90 50 77
        E 0 90 4f 7f
        E 120 80 51 00
        E 0 80 50 00
        E 0 80 4f 00
        E 0 90 51 7f
        E 0 90 50 77
        E 0 90 4f 7f
        E 120 80 51 00
        E 0 80 50 00
        E 0 80 4f 00
        E 0 90 51 7f
        E 0 90 4f 7f
        E 120 80 51 00
        E 0 80 4f 00
        E 0 90 51 7f
        E 0 90 50 77
        E 0 90 4f 7f
        E 120 80 51 00
        E 0 80 50 00
        E 0 80 4f 00
        E 0 90 51 7f
        E 0 90 50 77
        E 0 90 4f 7f
        E 120 80 51 00
        E 0 80 50 00
        E 0 80 4f 00
        E 0 90 51 7f
        E 0 90 50 77
        E 0 90 4f 7f
        E 120 80 51 00
        E 0 80 50 00
        E 0 80 4f 00
        E 0 90 51 7f
        E 0 90 4f 7f
        E 120 80 51 00
        E 0 80 4f 00
        E 0 90 51 7f
        E 0 90 50 77
        E 0 90 4f 7f
        E 120 80 51 00
        E 0 80 50 00
        E 0 80 4f 00
        E 0 90 51 7f
        E 0 90 50 77
        E 0 90 4f 7f
        E 120 80 51 00
        E 0 80 50 00
        E 0 80 4f 00
        E 0 90 51 7f
        E 0 90 50 77
        E 0 90 4f 7f
        E 120 80 51 00
        E 0 80 50 00
        E 0 80 4f 00
        E 0 90 51 7f
        E 0 90 50 77
        E 0 90 4f 7f
        E 120 80 51 00
        E 0 80 50 00
        E 0 80 4f 00
        E 0 90 51 7f
        E 0 90 50 77
        E 0 90 4f 7f
        E 120 80 51 00
        E 0 80 50 00
        E 0 80 4f 00
        E 0 90 51 7f
        E 0 90 4f 7f
        E 120 80 51 00
        E 0 80 4f 00
        E 0 90 51 7f
        E 0 90 50 77
        E 0 90 4f 7f
        E 120 80 51 00
        E 0 80 50 00
        E 0 80 4f 00
        E 0 90 51 7f
        E 0 90 50 77
        E 0 90 4f 7f
        E 120 80 51 00
        E 0 80 50 00
        E 0 80 4f 00
        E 0 90 51 7f
        E 0 90 50 77
        E 0 90 4f 7f
        E 120 80 51 00
        E 0 80 50 00
        E 0 80 4f 00
        E 0 90 51 7f
        E 0 90 4f 77
        E 120 80 51 00
        E 0 80 4f 00
        E 0 90 51 7f
        E 0 90 50 77
        E 0 90 4f 77
        E 120 80 51 00
        E 0 80 50 00
        E 0 90 51 7f
        E 0 90 50 77
        E 120 80 51 00
        E 0 80 50 00
        E 0 90 51 7f
        E 0 90 50 77
        E 120 80 4f 00
        E 0 80 51 00
        E 0 90 51 7f
        E 0 90 4f 77
        E 120 80 51 00
        E 0 80 4f 00
        E 0 90 51 7f
        E 120 80 50 00
        E 0 80 51 00
        E 0 90 51 7f
        E 0 90 50 77
        E 0 90 4f 77
        E 120 80 51 00
        E 0 80 50 00
        E 0 90 51 7f
        E 120 80 4f 00
        E 0 80 51 00
        E 0 90 51 7f
        E 0 90 50 77
        E 120 80 51 00
        E 0 90 51 7f
        E 0 90 4f 77
        E 120 80 50 00
        E 0 80 51 00
        E 0 80 4f 00
        E 0 90 51 7f
        E 120 80 51 00
        E 0 90 51 7f
        E 0 90 50 77
        E 0 90 4f 77
        E 120 80 51 00
        E 0 80 50 00
        E 0 90 51 7f
        E 120 80 4f 00
        E 0 80 51 00
        E 0 90 51 7f
        E 0 90 50 77
        E 120 80 51 00
        E 0 90 51 7f
        E 0 90 4f 77
        E 120 80 50 00
        E 0 80 51 00
        E 0 90 51 7f
        E 120 80 51 00
        E 0 90 51 7f
        E 0 90 50 77
        E 120 80 4f 00
        E 0 80 51 00
        E 0 90 51 7f
        E 120 80 51 00
        E 0 90 51 7f
        E 0 90 4f 77
        E 120 80 50 00
        E 0 80 51 00
        E 0 80 4f 00
        E 0 90 51 7f
        E 120 80 51 00
        E 0 90 51 7f
        E 0 90 50 77
        E 0 90 4f 7f
        E 120 80 51 00
        E 0 80 50 00
        E 0 80 4f 00
        E 0 90 51 7f
        E 120 80 51 00
        E 0 90 51 7f
        E 0 90 50 7f
        E 0 90 4f 7f
        E 120 80 51 00
        E 0 80 50 00
        E 0 80 4f 00
        E 0 90 51 7f
        E 120 80 51 00
        E 0 90 51 7f
        E 0 90 50 7f
        E 0 90 4f 7f
        E 120 80 51 00
        E 0 80 50 00
        E 0 80 4f 00
        E 0 90 51 7f
        E 120 80 51 00
        E 0 90 51 7f
        E 0 90 50 7f
        E 0 90 4f 7f
        E 120 80 51 00
        E 0 80 50 00
        E 0 90 51 7f
        E 120 80 4f 00
        E 0 80 51 00
        E 0 90 51 7f
        E 0 90 50 7f
        E 0 90 4f 7f
        E 120 80 51 00
        E 0 80 4f 00
        E 0 90 51 7f
        E 120 80 50 00
        E 0 80 51 00
        E 0 90 51 7f
        E 0 90 50 7f
        E 0 90 4f 7f
        E 120 80 51 00
        E 0 80 50 00
        E 0 90 51 7f
        E 120 80 4f 00
        E 0 80 51 00
        E 0 90 51 7f
        E 0 90 50 7f
        E 120 80 51 00
        E 0 90 51 7f
        E 0 90 4f 7f
        E 120 80 50 00
        E 0 80 51 00
        E 0 80 4f 00
        E 0 90 51 7f
        E 120 80 51 00
        E 0 90 51 7f
        E 0 90 50 7f
        E 0 90 4f 7f
        E 120 80 51 00
        E 0 80 50 00
        E 0 80 4f 00
        E 0 90 51 7f
        E 120 80 51 00
        E 0 90 51 7f
        E 0 90 50 7f
        E 0 90 4f 7f
        E 120 80 51 00
        E 0 80 50 00
        E 0 80 4f 00
        E 0 90 51 7f
        E 120 80 51 00
        E 0 90 51 7f
        E 0 90 50 7f
        E 0 90 4f 7f
        E 120 80 51 00
        E 0 80 50 00
        E 0 80 4f 00
        E 0 90 51 7f
        E 0 90 4f 7f
        E 120 80 51 00
        E 0 80 4f 00
        E 0 90 51 7f
        E 0 90 50 7f
        E 120 80 51 00
        E 0 80 50 00
        E 0 90 51 7f
        E 0 90 50 7f
        E 120 80 51 00
        E 0 80 50 00
        E 0 90 51 7f
        E 0 90 4f 7f
        E 120 80 51 00
        E 0 80 4f 00
        E 0 90 51 7f
        E 0 90 4f 7f
        E 120 80 51 00
        E 0 80 4f 00
        E 0 90 51 7f
        E 0 90 50 7f
        E 120 80 51 00
        E 0 80 50 00
        E 0 90 51 7f
        E 0 90 50 7f
        E 0 90 4f 7f
        E 120 80 51 00
        E 0 80 50 00
        E 0 90 51 7f
        E 120 80 51 00
        E 0 90 51 7f
        E 0 90 50 7f
        E 120 80 51 00
        E 0 90 51 7f
        E 120 80 4f 00
        E 0 80 51 00
        E 0 90 51 7f
        E 120 80 51 00
        E 0 90 51 7f
        E 120 80 50 00
        E 0 80 51 00
        E 0 90 51 7f
        E 0 90 4f 7f
        E 120 80 51 00
        E 0 90 51 7f
        E 120 80 51 00
        E 0 90 51 7f
        E 0 90 50 7f
        E 120 80 51 00
        E 0 90 51 7f
        E 120 80 4f 00
        E 0 80 51 00
        E 0 90 51 7f
        E 120 80 51 00
        E 0 90 51 7f
        E 120 80 50 00
        E 0 80 51 00
        E 0 90 51 7f
        E 0 90 4f 7f
        E 120 80 51 00
        E 0 90 51 7f
        E 120 80 51 00
        E 0 90 51 7f
        E 0 90 50 7f
        E 120 80 51 00
        E 0 90 51 7f
        E 120 80 4f 00
        E 0 80 51 00
        E 0 90 51 7f
        E 120 80 51 00
        E 0 90 51 7f
        E 120 80 50 00
        E 0 80 51 00
        E 0 90 51 7f
        E 0 90 4f 7f
        E 120 80 51 00
        E 0 90 51 7f
        E 120 80 51 00
        E 0 90 51 7f
        E 0 90 50 7f
        E 120 80 51 00
        E 0 90 51 7f
        E 120 80 4f 00
        E 0 80 51 00
        E 0 90 51 7f
        E 120 80 51 00
        E 0 90 51 7f
        E 0 90 4f 7f
        E 120 80 50 00
        E 0 80 51 00
        E 0 90 51 7f
        E 120 80 51 00
        E 0 90 51 7f
        E 0 90 50 7f
        E 120 80 51 00
        E 0 90 51 7f
        E 120 80 4f 00
        E 0 80 51 00
        E 0 90 51 7f
        E 120 80 51 00
        E 0 90 51 7f
        E 0 90 4f 7f
        E 120 80 50 00
        E 0 80 51 00
        E 0 90 51 7f
        E 120 80 51 00
        E 0 90 51 7f
        E 0 90 50 7f
        E 120 80 4f 00
        E 0 80 51 00
        E 0 90 51 7f
        E 120 80 51 00
        E 0 90 51 7f
        E 120 80 50 00
        E 0 80 51 00
        E 0 90 51 7f
        E 0 90 4f 7f
        E 120 80 51 00
        E 0 80 4f 00
        E 0 90 51 7f
        E 120 80 51 00
        E 0 90 51 7f
        E 0 90 50 7f
        E 120 80 51 00
        E 0 80 50 00
        E 0 90 4f 7f
        E 0 90 50 7f
        E 120 80 4f 00
        E 0 80 50 00
        E 0 90 4f 7f
        E 0 90 51 7f
        E 120 80 4f 00
        E 0 90 4f 7f
        E 0 90 50 7f
        E 120 80 51 00
        E 0 80 4f 00
        E 0 90 4f 7f
        E 120 80 50 00
        E 0 80 4f 00
        E 0 90 4f 7f
        E 0 90 51 7f
        E 120 80 4f 00
        E 0 80 51 00
        E 0 90 4f 7f
        E 0 90 51 7f
        E 0 90 50 7f
        E 120 80 4f 00
        E 0 80 51 00
        E 0 80 50 00
        E 0 90 4f 7f
        E 120 80 4f 00
        E 0 90 51 7f
        E 0 90 4f 7f
        E 0 90 50 7f
        E 120 80 4f 00
        E 0 80 50 00
        E 0 90 4f 7f
        E 120 80 51 00
        E 0 80 4f 00
        E 0 90 4f 7f
        E 0 90 50 7f
        E 120 80 4f 00
        E 0 80 50 00
        E 0 90 4f 7f
        E 0 90 51 7f
        E 120 80 4f 00
        E 0 90 4f 7f
        E 0 90 50 7f
        E 120 80 51 00
        E 0 80 4f 00
        E 0 80 50 00
        E 0 90 4f 7f
        E 0 90 50 7f
        E 120 80 4f 00
        E 0 80 50 00
        E 0 90 4f 7f
        E 0 90 51 7f
        E 120 80 4f 00
        E 0 80 51 00
        E 0 90 4f 7f
        E 0 90 51 7f
        E 120 80 4f 00
        E 0 80 51 00
        E 0 90 4f 7f
        E 0 90 50 7f
        E 120 80 4f 00
        E 0 80 50 00
        E 0 90 4f 7f
        E 0 90 51 7f
        E 0 90 50 7f
        E 120 80 4f 00
        E 0 80 50 00
        E 0 90 4f 7f
        E 120 80 51 00
        E 0 80 4f 00
        E 0 90 4f 7f
        E 0 90 50 7f
        E 120 80 4f 00
        E 0 90 4f 7f
        E 0 90 51 7f
        E 120 80 4f 00
        E 0 90 4f 7f
        E 120 80 51 00
        E 0 80 4f 00
        E 0 90 4f 7f
        E 120 80 50 00
        E 0 80 4f 00
        E 0 90 4f 7f
        E 0 90 51 7f
        E 120 80 4f 00
        E 0 80 51 00
        E 0 90 4f 7f
        E 0 90 51 7f
        E 120 80 4f 00
        E 0 80 51 00
        E 0 90 4f 7f
        E 0 90 50 7f
        E 120 80 4f 00
        E 0 90 4f 7f
        E 0 90 51 7f
        E 120 80 4f 00
        E 0 90 4f 7f
        E 120 80 51 00
        E 0 80 4f 00
        E 0 90 4f 7f
        E 120 80 50 00
        E 0 80 4f 00
        E 0 90 4f 7f
        E 0 90 51 7f
        E 120 80 4f 00
        E 0 90 4f 7f
        E 120 80 51 00
        E 0 80 4f 00
        E 0 90 50 7f
        E 0 90 4f 7f
        E 120 80 4f 00
        E 0 90 4f 7f
        E 0 90 51 7f
        E 120 80 4f 00
        E 0 80 51 00
        E 0 90 4f 7f
        E 0 90 51 7f
        E 120 80 4f 00
        E 0 80 51 00
        E 0 90 4f 7f
        E 120 80 50 00
        E 0 80 4f 00
        E 0 90 4f 7f
        E 0 90 51 7f
        E 120 80 4f 00
        E 0 90 4f 7f
        E 120 80 51 00
        E 0 80 4f 00
        E 0 90 4f 7f
        E 0 90 50 7f
        E 120 80 4f 00
        E 0 90 4f 7f
        E 0 90 51 7f
        E 0 90 4f 7f
        E 120 80 4f 00
        E 0 90 4f 7f
        E 120 80 51 00
        E 0 80 4f 00
        E 0 90 4f 7f
        E 120 80 50 00
        E 0 80 4f 00
        E 0 90 4f 7f
        E 0 90 51 7f
        E 120 80 4f 00
        E 0 80 51 00
        E 0 90 4f 7f
        E 0 90 51 7f
        E 0 90 50 7f
        E 120 80 4f 00
        E 0 80 51 00
        E 0 90 4f 7f
        E 120 80 4f 00
        E 0 90 4f 7f
        E 0 90 51 7f
        E 120 80 4f 00
        E 0 80 4f 00
        E 0 90 4f 7f
        E 120 80 50 00
        E 0 80 51 00
        E 0 80 4f 00
        E 0 90 4f 7f
        E 120 80 4f 00
        E 0 90 4f 7f
        E 0 90 51 7f
        E 0 90 50 7f
        E 120 80 4f 00
        E 0 90 4f 7f
        E 120 80 51 00
        E 0 80 4f 00
        E 0 90 4f 7f
        E 120 80 50 00
        E 0 80 4f 00
        E 0 90 4f 7f
        E 0 90 51 7f
        E 120 80 4f 00
        E 0 80 51 00
        E 0 90 4f 7f
        E 0 90 51 7f
        E 120 80 4f 00
        E 0 80 51 00
        E 0 90 50 7f
        E 0 90 4f 7f
        E 120 80 50 00
        E 0 80 4f 00
        E 0 90 4f 7f
        E 0 90 51 7f
        E 120 80 4f 00
        E 0 90 4f 7f
        E 120 80 51 00
        E 0 80 4f 00
        E 0 90 4f 7f
        E 0 90 50 7f
        E 120 80 4f 00
        E 0 80 50 00
        E 0 90 4f 7f
        E 0 90 51 7f
        E 0 90 50 7f
        E 120 80 4f 00
        E 0 80 51 00
        E 0 80 50 00
        E 0 90 4f 7f
        E 0 90 51 7f
        E 0 90 50 7f
        E 120 80 4f 00
        E 0 80 51 00
        E 0 80 50 00
        E 0 90 4f 7f
        E 0 90 51 7f
        E 0 90 50 7f
        E 120 80 4f 00
        E 0 80 51 00
        E 0 80 50 00
        E 0 90 4f 7f
        E 0 90 51 7f
        E 0 90 50 7f
        E 120 80 4f 00
        E 0 80 51 00
        E 0 80 50 00
        E 0 90 4f 7f
        E 0 90 51 7f
        E 0 90 50 7f
        E 120 80 4f 00
        E 0 80 51 00
        E 0 80 50 00
        E 0 90 4f 7f
        E 0 90 51 7f
        E 0 90 50 7f
        E 120 80 4f 00
        E 0 80 51 00
        E 0 80 50 00
        E 0 90 4f 7f
        E 0 90 51 7f
        E 0 90 50 7f
        E 120 80 4f 00
        E 0 80 51 00
        E 0 80 50 00
        E 0 90 4f 7f
        E 0 90 51 7f
        E 0 90 50 7f
        E 120 80 4f 00
        E 0 80 51 00
        E 0 80 50 00
        E 0 90 4f 7f
        E 0 90 51 7f
        E 0 90 50 7f
        E 120 80 4f 00
        E 0 80 51 00
        E 0 80 50 00
        E 0 90 4f 7f
        E 0 90 51 7f
        E 0 90 50 7f
        E 120 80 4f 00
        E 0 80 51 00
        E 0 80 50 00
        E 0 90 4f 7f
        E 0 90 51 7f
        E 0 90 50 7f
        E 120 80 4f 00
        E 0 80 51 00
        E 0 80 50 00
        E 0 90 4f 7f
        E 0 90 51 7f
        E 0 90 50 7f
        E 120 80 4f 00
        E 0 80 51 00
        E 0 80 50 00
        E 0 90 4f 7f
        E 0 90 51 7f
        E 0 90 50 7f
        E 120 80 4f 00
        E 0 80 51 00
        E 0 80 50 00
        E 0 90 4f 7f
        E 0 90 51 7f
        E 0 90 50 7f
        E 120 80 4f 00
        E 0 80 51 00
        E 0 80 50 00
        E 0 90 4f 7f
        E 0 90 50 7f
        E 120 80 4f 00
        E 0 90 4f 7f
        E 0 90 51 7f
        E 120 80 4f 00
        E 0 80 51 00
        E 0 90 4f 7f
        E 120 80 4f 00
        E 0 90 4f 7f
        E 0 90 51 7f
        E 120 80 4f 00
        E 0 90 4f 7f
        E 120 80 51 00
        E 0 80 4f 00
        E 0 90 4f 7f
        E 0 90 51 7f
        E 120 80 4f 00
        E 0 80 51 00
        E 0 90 4f 7f
        E 120 80 4f 00
        E 0 90 4f 7f
        E 0 90 51 7f
        E 120 80 4f 00
        E 0 90 4f 7f
        E 120 80 4f 00
        E 0 90 4f 7f
        E 120 80 51 00
        E 0 80 4f 00
        E 0 90 4f 7f
        E 120 80 4f 00
        E 0 90 4f 7f
        E 0 90 51 7f
        E 120 80 4f 00
        E 0 80 51 00
        E 0 90 4f 7f
        E 0 90 51 7f
        E 120 80 4f 00
        E 0 80 51 00
        E 0 90 4f 7f
        E 0 90 51 7f
        E 120 80 4f 00
        E 0 80 51 00
        E 0 90 4f 7f
        E 0 90 51 7f
        E 120 80 4f 00
        E 0 80 51 00
        E 0 90 4f 7f
        E 0 90 51 7f
        E 120 80 4f 00
        E 0 80 51 00
        E 0 90 4f 7f
        E 0 90 51 7f
        E 120 80 4f 00
        E 0 80 51 00
        E 0 90 4f 7f
        E 0 90 51 7f
        E 120 80 4f 00
        E 0 80 51 00
        E 0 90 4f 7f
        E 120 80 50 00
        E 0 80 4f 00
        E 0 90 4f 7f
        E 0 90 51 7f
        E 0 90 50 7f
        E 120 80 4f 00
        E 0 80 50 00
        E 0 90 4f 7f
        E 0 90 50 7f
        E 120 80 4f 00
        E 0 80 50 00
        E 0 90 4f 7f
        E 0 90 50 7f
        E 120 80 51 00
        E 0 80 4f 00
        E 0 80 50 00
        E 0 90 4f 7f
        E 0 90 50 7f
        E 120 80 4f 00
        E 0 80 50 00
        E 0 90 51 7f
        E 0 90 4f 7f
        E 0 90 50 7f
        E 120 80 51 00
        E 0 80 4f 00
        E 0 80 50 00
        E 0 90 4f 7f
        E 0 90 50 7f
        E 120 80 4f 00
        E 0 80 50 00
        E 0 90 4f 7f
        E 0 90 51 7f
        E 0 90 50 7f
        E 120 80 4f 00
        E 0 80 50 00
        E 0 90 4f 7f
        E 0 90 50 7f
        E 120 80 4f 00
        E 0 80 50 00
        E 0 90 4f 7f
        E 0 90 50 7f
        E 120 80 4f 00
        E 0 80 50 00
        E 0 90 4f 7f
        E 0 90 50 7f
        E 120 80 51 00
        E 0 80 4f 00
        E 0 80 50 00
        E 0 90 4f 7f
        E 0 90 50 7f
        E 120 80 4f 00
        E 0 80 50 00
        E 0 90 4f 7f
        E 0 90 51 77
        E 0 90 50 7f
        E 120 80 4f 00
        E 0 80 51 00
        E 0 80 50 00
        E 0 90 4f 7f
        E 0 90 51 77
        E 0 90 50 7f
        E 120 80 4f 00
        E 0 80 51 00
        E 0 80 50 00
        E 0 90 4f 7f
        E 0 90 51 77
        E 0 90 50 7f
        E 120 80 4f 00
        E 0 80 51 00
        E 0 80 50 00
        E 0 90 4f 7f
        E 0 90 50 7f
        E 120 80 4f 00
        E 0 80 50 00
        E 0 90 4f 7f
        E 0 90 51 77
        E 120 80 4f 00
        E 0 80 51 00
        E 0 90 4f 7f
        E 0 90 51 77
        E 120 80 4f 00
        E 0 80 51 00
        E 0 90 4f 7f
        E 0 90 51 77
        E 120 80 4f 00
        E 0 80 51 00
        E 0 90 50 7f
        E 0 90 4f 7f
        E 120 80 4f 00
        E 0 90 4f 7f
        E 0 90 51 77
        E 120 80 4f 00
        E 0 80 51 00
        E 0 90 4f 7f
        E 0 90 51 77
        E 120 80 4f 00
        E 0 80 51 00
        E 0 90 4f 7f
        E 120 80 4f 00
        E 0 90 4f 7f
        E 0 90 51 77
        E 120 80 4f 00
        E 0 80 51 00
        E 0 90 4f 7f
        E 0 90 51 77
        E 120 80 4f 00
        E 0 80 51 00
        E 0 90 4f 7f
        E 0 90 51 77
        E 120 80 4f 00
        E 0 80 51 00
        E 0 90 4f 7f
        E 120 80 4f 00
        E 0 90 4f 7f
        E 0 90 51 77
        E 120 80 4f 00
        E 0 80 51 00
        E 0 90 4f 7f
        E 0 90 51 77
        E 120 80 4f 00
        E 0 80 51 00
        E 0 90 4f 7f
        E 0 90 51 77
        E 120 80 4f 00
        E 0 80 51 00
        E 0 90 4f 7f
        E 120 80 4f 00
        E 0 90 4f 7f
        E 0 90 51 77
        E 120 80 4f 00
        E 0 80 51 00
        E 0 90 4f 7f
        E 0 90 51 77
        E 120 80 50 00
        E 0 80 4f 00
        E 0 80 51 00
        E 0 90 4f 7f
        E 0 90 51 77
        E 0 90 50 7f
        E 120 80 4f 00
        E 0 80 51 00
        E 0 80 50 00
        E 0 90 4f 7f
        E 0 90 51 77
        E 120 80 4f 00
        E 0 80 51 00
        E 0 90 50 7f
        E 0 90 4f 7f
        E 0 90 51 77
        E 120 80 4f 00
        E 0 80 51 00
        E 0 90 4f 7f
        E 120 80 4f 00
        E 0 90 4f 7f
        E 0 90 51 77
        E 120 80 4f 00
        E 0 80 51 00
        E 0 90 4f 7f
        E 0 90 51 77
        E 120 80 4f 00
        E 0 80 51 00
        E 0 90 4f 7f
        E 0 90 51 77
        E 120 80 4f 00
        E 0 80 51 00
        E 0 90 4f 7f
        E 120 80 4f 00
        E 0 90 4f 7f
        E 0 90 51 77
        E 120 80 4f 00
        E 0 80 51 00
        E 0 90 4f 7f
        E 0 90 51 77
        E 120 80 50 00
        E 0 80 4f 00
        E 0 80 51 00
        E 0 90 4f 7f
        E 0 90 51 77
        E 120 80 4f 00
        E 0 90 4f 7f
        E 120 80 4f 00
        E 0 90 4f 7f
        E 120 80 51 00
        E 0 80 4f 00
        E 0 90 51 77
        E 0 90 4f 7f
        E 0 90 50 7f
        E 120 80 51 00
        E 0 80 4f 00
        E 0 90 4f 7f
        E 120 80 4f 00
        E 0 90 4f 7f
        E 0 90 51 77
        E 120 80 4f 00
        E 0 90 4f 7f
        E 120 80 50 00
        E 0 80 51 00
        E 0 80 4f 00
        E 0 90 4f 7f
        E 0 90 50 7f
        E 120 80 4f 00
        E 0 80 50 00
        E 0 90 4f 7f
        E 0 90 51 77
        E 0 90 50 7f
        E 120 80 4f 00
        E 0 80 51 00
        E 0 80 50 00
        E 0 90 4f 7f
        E 0 90 50 7f
        E 120 80 4f 00
        E 0 80 50 00
        E 0 90 4f 7f
        E 0 90 51 77
        E 0 90 50 7f
        E 120 80 4f 00
        E 0 80 50 00
        E 0 90 4f 7f
        E 0 90 50 7f
        E 120 80 51 00
        E 0 80 4f 00
        E 0 80 50 00
        E 0 90 4f 7f
        E 0 90 50 7f
        E 0 90 51 7f
        E 120 80 4f 00
        E 0 80 50 00
        E 0 90 4f 7f
        E 0 90 50 7f
        E 960 80 46 00
        E 0 80 47 00
        E 3720 80 4f 00
        E 120 80 51 00
        E 0 80 50 00
        E 0 90 52 7f
        E 120 80 52 00
        E 360 80 52 00
        E 0 90 51 7f
        E 480 80 51 00
        E 0 90 50 7f
        E 480 80 50 00
        E 0 90 4f 7f
        E 480 80 4f 00
        E 0 90 4e 7f
        E 480 80 4e 00
        E 0 90 4d 7f
        E 480 80 4d 00
        E 0 90 4c 7f
        E 0 90 52 7f
        E 480 80 4c 00
        E 0 80 52 00
        E 0 90 4b 7f
        E 0 90 51 7f
        E 480 80 4b 00
        E 0 80 51 00
        E 0 90 4a 7f
        E 0 90 50 7f
        E 480 80 4a 00
        E 0 80 50 00
        E 0 90 49 7f
        E 0 90 4f 7f
        E 480 80 49 00
        E 0 80 4f 00
        E 0 90 48 7f
        E 0 90 4e 7f
        E 480 80 48 00
        E 0 80 4e 00
        E 0 90 47 7f
        E 0 90 4d 7f
        E 0 90 52 7f
        E 480 80 47 00
        E 0 80 4d 00
        E 0 80 52 00
        E 0 90 46 7f
        E 0 90 4c 7f
        E 0 90 51 7f
        E 480 80 46 00
        E 0 80 4c 00
        E 0 80 51 00
        E 0 90 45 7f
        E 0 90 4b 7f
        E 0 90 50 7f
        E 480 80 45 00
        E 0 80 4b 00
        E 0 80 50 00
        E 0 90 44 7f
        E 0 90 4a 7f
        E 0 90 4f 7f
        E 480 80 44 00
        E 0 80 4a 00
        E 0 80 4f 00
        E 0 90 43 7f
        E 0 90 49 7f
        E 0 90 4e 7f
        E 480 80 43 00
        E 0 80 49 00
        E 0 80 4e 00
        E 0 90 42 7f
        E 0 90 48 7f
        E 0 90 4d 7f
        E 0 90 52 7f
        E 0 90 44 7e
        E 480 80 42 00
        E 0 80 48 00
        E 0 80 4d 00
        E 0 80 52 00
        E 0 80 44 00
        E 0 90 45 7e
        E 0 90 41 7f
        E 0 90 47 7f
        E 0 90 4c 7f
        E 0 90 51 7f
        E 480 80 45 00
        E 0 80 41 00
        E 0 80 47 00
        E 0 80 4c 00
        E 0 80 51 00
        E 0 90 40 7f
        E 0 90 46 7f
        E 0 90 4b 7f
        E 0 90 50 7f
        E 480 80 40 00
        E 0 80 46 00
        E 0 80 4b 00
        E 0 80 50 00
        E 0 90 3f 7f
        E 0 90 45 7f
        E 0 90 4a 7f
        E 0 90 4f 7f
        E 0 90 47 7e
        E 480 80 3f 00
        E 0 80 45 00
        E 0 80 4a 00
        E 0 80 4f 00
        E 0 80 47 00
        E 0 90 3e 7f
        E 0 90 44 7f
        E 0 90 49 7f
        E 0 90 4e 7f
        E 0 90 41 7f
        E 0 90 48 7e
        E 480 80 3e 00
        E 0 80 44 00
        E 0 80 49 00
        E 0 80 4e 00
        E 0 80 41 00
        E 0 80 48 00
        E 0 90 3d 7f
        E 0 90 43 7f
        E 0 90 48 7f
        E 0 90 4d 7f
        E 0 90 52 7f
        E 0 90 40 7f
        E 0 90 49 7e
        E 480 80 3d 00
        E 0 80 43 00
        E 0 80 48 00
        E 0 80 4d 00
        E 0 80 52 00
        E 0 80 40 00
        E 0 80 49 00
        E 0 90 44 7e
        E 0 90 3c 7f
        E 0 90 42 7f
        E 0 90 47 7f
        E 0 90 4c 7f
        E 0 90 51 7f
        E 0 90 3f 7f
        E 0 90 4a 7e
        E 480 80 44 00
        E 0 80 3c 00
        E 0 80 42 00
        E 0 80 47 00
        E 0 80 4c 00
        E 0 80 51 00
        E 0 80 3f 00
        E 0 80 4a 00
        E 0 90 3b 7f
        E 0 90 41 7f
        E 0 90 46 7f
        E 0 90 4b 7f
        E 0 90 50 7f
        E 0 90 3e 7f
        E 0 90 45 7e
        E 480 80 3b 00
        E 0 80 41 00
        E 0 80 46 00
        E 0 80 4b 00
        E 0 80 50 00
        E 0 80 3e 00
        E 0 80 45 00
        E 0 90 3a 7f
        E 0 90 40 7f
        E 0 90 45 7f
        E 0 90 4a 7f
        E 0 90 4f 7f
        E 0 90 3d 7f
        E 0 90 47 7e
        E 0 90 4c 7e
        E 480 80 3a 00
        E 0 80 40 00
        E 0 80 45 00
        E 0 80 4a 00
        E 0 80 4f 00
        E 0 80 3d 00
        E 0 80 47 00
        E 0 80 4c 00
        E 0 90 39 7f
        E 0 90 3f 7f
        E 0 90 44 7f
        E 0 90 49 7f
        E 0 90 4e 7f
        E 0 90 3c 7f
        E 0 90 47 7e
        E 0 90 4d 7e
        E 480 80 39 00
        E 0 80 3f 00
        E 0 80 44 00
        E 0 80 49 00
        E 0 80 4e 00
        E 0 80 3c 00
        E 0 80 47 00
        E 0 80 4d 00
        E 0 90 38 7f
        E 0 90 3e 7f
        E 0 90 43 7f
        E 0 90 48 7f
        E 0 90 4d 7f
        E 0 90 52 7f
        E 0 90 3c 7f
        E 0 90 4e 7e
        E 480 80 38 00
        E 0 80 3e 00
        E 0 80 43 00
        E 0 80 48 00
        E 0 80 4d 00
        E 0 80 52 00
        E 0 80 3c 00
        E 0 80 4e 00
        E 0 90 49 7e
        E 0 90 37 7f
        E 0 90 3d 7f
        E 0 90 42 7f
        E 0 90 47 7f
        E 0 90 4c 7f
        E 0 90 51 7f
        E 0 90 3b 7f
        E 0 90 4f 7e
        E 480 80 49 00
        E 0 80 37 00
        E 0 80 3d 00
        E 0 80 42 00
        E 0 80 47 00
        E 0 80 4c 00
        E 0 80 51 00
        E 0 80 3b 00
        E 0 80 4f 00
        E 0 90 36 7f
        E 0 90 3c 7f
        E 0 90 41 7f
        E 0 90 46 7f
        E 0 90 4b 7f
        E 0 90 50 7f
        E 0 90 3a 7f
        E 0 90 4a 7e
        E 480 80 36 00
        E 0 80 3c 00
        E 0 80 41 00
        E 0 80 46 00
        E 0 80 4b 00
        E 0 80 50 00
        E 0 80 3a 00
        E 0 80 4a 00
        E 0 90 35 7f
        E 0 90 3b 7f
        E 0 90 40 7f
        E 0 90 45 7f
        E 0 90 4a 7f
        E 0 90 4f 7f
        E 0 90 39 7f
        E 0 90 42 7e
        E 0 90 4b 7e
        E 0 90 51 7e
        E 0 90 37 7e
        E 480 80 35 00
        E 0 80 3b 00
        E 0 80 40 00
        E 0 80 45 00
        E 0 80 4a 00
        E 0 80 4f 00
        E 0 80 39 00
        E 0 80 42 00
        E 0 80 4b 00
        E 0 80 51 00
        E 0 80 37 00
        E 0 90 34 7f
        E 0 90 3a 7f
        E 0 90 3f 7f
        E 0 90 44 7f
        E 0 90 49 7f
        E 0 90 4e 7f
        E 0 90 38 7f
        E 0 90 43 7e
        E 0 90 4c 7e
        E 0 90 52 7e
        E 480 80 34 00
        E 0 80 3a 00
        E 0 80 3f 00
        E 0 80 44 00
        E 0 80 49 00
        E 0 80 4e 00
        E 0 80 38 00
        E 0 80 43 00
        E 0 80 4c 00
        E 0 80 52 00
        E 0 90 33 7f
        E 0 90 39 7f
        E 0 90 3e 7f
        E 0 90 43 7f
        E 0 90 48 7f
        E 0 90 4d 7f
        E 0 90 52 7f
        E 0 90 37 7f
        E 0 90 44 7e
        E 480 80 33 00
        E 0 80 39 00
        E 0 80 3e 00
        E 0 80 43 00
        E 0 80 48 00
        E 0 80 4d 00
        E 0 80 52 00
        E 0 80 37 00
        E 0 80 44 00
        E 0 90 35 7f
        E 0 90 32 7f
        E 0 90 38 7f
        E 0 90 3d 7f
        E 0 90 42 7f
        E 0 90 47 7f
        E 0 90 4c 7f
        E 0 90 51 7f
        E 0 90 45 7e
        E 0 90 4e 7e
        E 0 90 3a 7e
        E 480 80 35 00
        E 0 80 32 00
        E 0 80 38 00
        E 0 80 3d 00
        E 0 80 42 00
        E 0 80 47 00
        E 0 80 4c 00
        E 0 80 51 00
        E 0 80 45 00
        E 0 80 4e 00
        E 0 80 3a 00
        E 0 90 34 7f
        E 0 90 31 7f
        E 0 90 37 7f
        E 0 90 3c 7f
        E 0 90 41 7f
        E 0 90 46 7f
        E 0 90 4b 7f
        E 0 90 50 7f
        E 0 90 4f 7e
        E 0 90 3b 7e
        E 480 80 34 00
        E 0 80 31 00
        E 0 80 37 00
        E 0 80 3c 00
        E 0 80 41 00
        E 0 80 46 00
        E 0 80 4b 00
        E 0 80 50 00
        E 0 80 4f 00
        E 0 80 3b 00
        E 0 90 33 7f
        E 0 90 30 7f
        E 0 90 36 7f
        E 0 90 3b 7f
        E 0 90 40 7f
        E 0 90 45 7f
        E 0 90 4a 7f
        E 0 90 4f 7f
        E 0 90 47 7e
        E 0 90 50 7e
        E 0 90 3c 7e
        E 480 80 33 00
        E 0 80 30 00
        E 0 80 36 00
        E 0 80 3b 00
        E 0 80 40 00
        E 0 80 45 00
        E 0 80 4a 00
        E 0 80 4f 00
        E 0 80 47 00
        E 0 80 50 00
        E 0 80 3c 00
        E 0 90 32 7f
        E 0 90 35 7f
        E 0 90 3a 7f
        E 0 90 3f 7f
        E 0 90 44 7f
        E 0 90 49 7f
        E 0 90 4e 7f
        E 0 90 48 7e
        E 0 90 51 7e
        E 0 90 3d 7e
        E 360 90 52 7f
        E 120 80 32 00
        E 0 80 35 00
        E 0 80 3a 00
        E 0 80 3f 00
        E 0 80 44 00
        E 0 80 49 00
        E 0 80 4e 00
        E 0 80 48 00
        E 0 80 51 00
        E 0 80 3d 00
        E 0 90 31 7f
        E 0 90 34 7f
        E 0 90 39 7f
        E 0 90 3e 7f
        E 0 90 43 7f
        E 0 90 48 7f
        E 0 90 4d 7f
        E 0 90 4a 7e
        E 360 80 52 00
        E 0 90 51 7f
        E 120 80 31 00
        E 0 80 34 00
        E 0 80 39 00
        E 0 80 3e 00
        E 0 80 43 00
        E 0 80 48 00
        E 0 80 4d 00
        E 0 80 4a 00
        E 0 90 30 7f
        E 0 90 33 7f
        E 0 90 38 7f
        E 0 90 3d 7f
        E 0 90 42 7f
        E 0 90 47 7f
        E 0 90 4c 7f
        E 0 90 4b 7e
        E 0 90 3f 7e
        E 360 80 51 00
        E 0 90 50 7f
        E 120 80 30 00
        E 0 80 33 00
        E 0 80 38 00
        E 0 80 3d 00
        E 0 80 42 00
        E 0 80 47 00
        E 0 80 4c 00
        E 0 80 4b 00
        E 0 80 3f 00
        E 0 90 4d 7e
        E 0 90 32 7f
        E 0 90 37 7f
        E 0 90 3c 7f
        E 0 90 41 7f
        E 0 90 46 7f
        E 0 90 4b 7f
        E 0 90 39 7f
        E 0 90 3e 7f
        E 0 90 40 7e
        E 360 80 50 00
        E 0 90 4f 7f
        E 120 80 4d 00
        E 0 80 32 00
        E 0 80 37 00
        E 0 80 3c 00
        E 0 80 41 00
        E 0 80 46 00
        E 0 80 4b 00
        E 0 80 39 00
        E 0 80 3e 00
        E 0 80 40 00
        E 0 90 31 7f
        E 0 90 36 7f
        E 0 90 3b 7f
        E 0 90 40 7f
        E 0 90 45 7f
        E 0 90 4a 7f
        E 0 90 3a 7f
        E 0 90 3f 7f
        E 0 90 4e 7e
        E 0 90 41 7e
        E 360 80 4f 00
        E 0 80 4e 00
        E 0 90 4e 7f
        E 120 80 31 00
        E 0 80 36 00
        E 0 80 3b 00
        E 0 80 40 00
        E 0 80 45 00
        E 0 80 4a 00
        E 0 80 3a 00
        E 0 80 3f 00
        E 0 80 41 00
        E 0 90 4f 7e
        E 0 90 30 7f
        E 0 90 35 7f
        E 0 90 3a 7f
        E 0 90 3f 7f
        E 0 90 44 7f
        E 0 90 49 7f
        E 0 90 40 7f
        E 0 90 42 7e
        E 360 80 4e 00
        E 0 90 4d 7f
        E 120 80 4f 00
        E 0 80 30 00
        E 0 80 35 00
        E 0 80 3a 00
        E 0 80 3f 00
        E 0 80 44 00
        E 0 80 49 00
        E 0 80 40 00
        E 0 80 42 00
        E 0 90 3b 7f
        E 0 90 34 7f
        E 0 90 39 7f
        E 0 90 3e 7f
        E 0 90 43 7f
        E 0 90 48 7f
        E 0 90 52 7f
        E 0 90 41 7f
        E 360 80 4d 00
        E 0 90 4c 7f
        E 120 80 3b 00
        E 0 80 34 00
        E 0 80 39 00
        E 0 80 3e 00
        E 0 80 43 00
        E 0 80 48 00
        E 0 80 52 00
        E 0 80 41 00
        E 0 90 33 7f
        E 0 90 38 7f
        E 0 90 3d 7f
        E 0 90 42 7f
        E 0 90 47 7f
        E 0 90 51 7f
        E 0 90 3c 7f
        E 0 90 44 7e
        E 360 80 4c 00
        E 0 90 4b 7f
        E 120 80 33 00
        E 0 80 38 00
        E 0 80 3d 00
        E 0 80 42 00
        E 0 80 47 00
        E 0 80 51 00
        E 0 80 3c 00
        E 0 80 44 00
        E 0 90 32 7f
        E 0 90 37 7f
        E 0 90 3c 7f
        E 0 90 41 7f
        E 0 90 46 7f
        E 0 90 50 7f
        E 0 90 3d 7f
        E 0 90 43 7f
        E 0 90 45 7e
        E 360 80 4b 00
        E 0 90 4a 7f
        E 120 80 32 00
        E 0 80 37 00
        E 0 80 3c 00
        E 0 80 41 00
        E 0 80 46 00
        E 0 80 50 00
        E 0 80 3d 00
        E 0 80 43 00
        E 0 90 3e 7f
        E 0 90 31 7f
        E 0 90 36 7f
        E 0 90 3b 7f
        E 0 90 40 7f
        E 0 90 45 7f
        E 0 90 4f 7f
        E 0 90 44 7f
        E 0 90 46 7e
        E 120 80 45 00
        E 240 80 4a 00
        E 0 90 49 7f
        E 120 80 3e 00
        E 0 80 31 00
        E 0 80 36 00
        E 0 80 3b 00
        E 0 80 40 00
        E 0 80 45 00
        E 0 80 4f 00
        E 0 80 44 00
        E 0 80 46 00
        E 0 90 30 7f
        E 0 90 35 7f
        E 0 90 3a 7f
        E 0 90 3f 7f
        E 0 90 44 7f
        E 0 90 4e 7f
        E 0 90 47 7e
        E 360 80 49 00
        E 0 90 48 7f
        E 120 80 30 00
        E 0 80 35 00
        E 0 80 3a 00
        E 0 80 3f 00
        E 0 80 44 00
        E 0 80 4e 00
        E 0 80 47 00
        E 0 90 34 7f
        E 0 90 39 7f
        E 0 90 3e 7f
        E 0 90 43 7f
        E 0 90 4d 7f
        E 0 90 40 7f
        E 0 90 45 7f
        E 0 90 50 7f
        E 360 80 48 00
        E 0 90 47 7f
        E 120 80 34 00
        E 0 80 39 00
        E 0 80 3e 00
        E 0 80 43 00
        E 0 80 4d 00
        E 0 80 40 00
        E 0 80 45 00
        E 0 80 50 00
        E 0 90 49 7e
        E 0 90 33 7f
        E 0 90 38 7f
        E 0 90 3d 7f
        E 0 90 42 7f
        E 0 90 4c 7f
        E 0 90 41 7f
        E 0 90 46 7f
        E 0 90 4f 7f
        E 360 80 47 00
        E 0 80 46 00
        E 0 90 46 7f
        E 120 80 49 00
        E 0 80 33 00
        E 0 80 38 00
        E 0 80 3d 00
        E 0 80 42 00
        E 0 80 4c 00
        E 0 80 41 00
        E 0 80 4f 00
        E 0 90 32 7f
        E 0 90 37 7f
        E 0 90 3c 7f
        E 0 90 41 7f
        E 0 90 4b 7f
        E 0 90 43 7f
        E 0 90 47 7f
        E 0 90 4a 7e
        E 0 90 4e 7f
        E 0 90 51 7f
        E 360 80 46 00
        E 0 90 45 7f
        E 120 80 32 00
        E 0 80 37 00
        E 0 80 3c 00
        E 0 80 41 00
        E 0 80 4b 00
        E 0 80 43 00
        E 0 80 47 00
        E 0 80 4a 00
        E 0 80 4e 00
        E 0 80 51 00
        E 0 90 31 7f
        E 0 90 36 7f
        E 0 90 3b 7f
        E 0 90 40 7f
        E 0 90 4a 7f
        E 0 90 44 7f
        E 0 90 48 7f
        E 0 90 4b 7e
        E 0 90 4d 7f
        E 0 90 50 7f
        E 360 80 45 00
        E 0 80 44 00
        E 0 90 44 7f
        E 120 80 31 00
        E 0 80 36 00
        E 0 80 3b 00
        E 0 80 40 00
        E 0 80 4a 00
        E 0 80 48 00
        E 0 80 4b 00
        E 0 80 4d 00
        E 0 80 50 00
        E 0 90 30 7f
        E 0 90 35 7f
        E 0 90 3a 7f
        E 0 90 3f 7f
        E 0 90 49 7f
        E 0 90 45 7f
        E 0 90 4c 7e
        E 0 90 4f 7f
        E 360 80 44 00
        E 0 90 43 7f
        E 120 80 30 00
        E 0 80 35 00
        E 0 80 3a 00
        E 0 80 3f 00
        E 0 80 49 00
        E 0 80 45 00
        E 0 80 4c 00
        E 0 80 4f 00
        E 0 90 4a 7f
        E 0 90 34 7f
        E 0 90 39 7f
        E 0 90 3e 7f
        E 0 90 48 7f
        E 0 90 46 7f
        E 0 90 4d 7f
        E 0 90 4e 7f
        E 0 90 51 7f
        E 360 80 43 00
        E 0 90 42 7f
        E 120 80 4a 00
        E 0 80 34 00
        E 0 80 39 00
        E 0 80 3e 00
        E 0 80 48 00
        E 0 80 46 00
        E 0 80 4d 00
        E 0 80 4e 00
        E 0 80 51 00
        E 0 90 33 7f
        E 0 90 38 7f
        E 0 90 3d 7f
        E 0 90 47 7f
        E 0 90 4b 7f
        E 0 90 4e 7f
        E 0 90 50 7f
        E 120 90 4c 7f
        E 240 80 42 00
        E 0 90 41 7f
        E 120 80 33 00
        E 0 80 38 00
        E 0 80 3d 00
        E 0 80 47 00
        E 0 80 4b 00
        E 0 80 4e 00
        E 0 80 50 00
        E 0 90 32 7f
        E 0 90 37 7f
        E 0 90 3c 7f
        E 0 90 46 7f
        E 0 90 48 7f
        E 0 90 4f 7f
        E 120 80 4c 00
        E 0 90 4d 7e
        E 0 90 4b 7f
        E 240 80 41 00
        E 0 90 40 7f
        E 120 80 32 00
        E 0 80 37 00
        E 0 80 3c 00
        E 0 80 46 00
        E 0 80 48 00
        E 0 80 4f 00
        E 0 90 31 7f
        E 0 90 36 7f
        E 0 90 3b 7f
        E 0 90 45 7f
        E 0 90 49 7f
        E 0 90 4e 7f
        E 120 80 4d 00
        E 0 80 4b 00
        E 0 90 4a 7f
        E 240 80 40 00
        E 0 90 3f 7f
        E 0 90 51 7f
        E 120 80 31 00
        E 0 80 36 00
        E 0 80 3b 00
        E 0 80 45 00
        E 0 80 49 00
        E 0 80 4e 00
        E 0 90 30 7f
        E 0 90 35 7f
        E 0 90 3a 7f
        E 0 90 44 7f
        E 0 90 4b 7f
        E 0 90 4d 7f
        E 120 80 4a 00
        E 0 90 49 7f
        E 240 80 3f 00
        E 0 80 51 00
        E 0 90 3e 7f
        E 0 90 50 7f
        E 120 80 30 00
        E 0 80 35 00
        E 0 80 3a 00
        E 0 80 44 00
        E 0 80 4b 00
        E 0 80 4d 00
        E 0 90 34 7f
        E 0 90 39 7f
        E 0 90 43 7f
        E 0 90 4c 7f
        E 120 80 49 00
        E 0 90 48 7f
        E 240 80 3e 00
        E 0 80 50 00
        E 0 90 3d 7f
        E 0 90 4f 7f
        E 120 80 34 00
        E 0 80 39 00
        E 0 80 43 00
        E 0 80 4c 00
        E 0 90 33 7f
        E 0 90 38 7f
        E 0 90 42 7f
        E 0 90 4b 7f
        E 120 80 48 00
        E 0 90 47 7f
        E 240 80 3d 00
        E 0 80 4f 00
        E 0 90 3c 7f
        E 0 90 4e 7f
        E 120 80 33 00
        E 0 80 38 00
        E 0 80 42 00
        E 0 80 4b 00
        E 0 90 32 7f
        E 0 90 37 7f
        E 0 90 41 7f
        E 0 90 30 7f
        E 0 90 4a 7f
        E 120 80 47 00
        E 0 90 46 7f
        E 0 90 48 7f
        E 240 80 3c 00
        E 0 80 4e 00
        E 0 90 3b 7f
        E 0 90 50 7f
        E 0 90 4d 7f
        E 120 80 32 00
        E 0 80 37 00
        E 0 80 41 00
        E 0 80 30 00
        E 0 80 4a 00
        E 0 90 31 7f
        E 0 90 36 7f
        E 0 90 40 7f
        E 0 90 42 7f
        E 120 80 46 00
        E 0 80 48 00
        E 0 90 45 7f
        E 0 90 49 7f
        E 240 80 3b 00
        E 0 80 50 00
        E 0 80 4d 00
        E 0 90 3a 7f
        E 0 90 3c 7f
        E 0 90 4f 7f
        E 0 90 4c 7f
        E 120 80 31 00
        E 0 80 36 00
        E 0 80 40 00
        E 0 80 42 00
        E 0 90 43 7f
        E 0 90 30 7f
        E 0 90 35 7f
        E 0 90 3f 7f
        E 0 90 32 7f
        E 120 80 45 00
        E 0 80 49 00
        E 0 90 44 7f
        E 0 90 4a 7f
        E 240 80 3a 00
        E 0 80 3c 00
        E 0 80 4f 00
        E 0 80 4c 00
        E 0 90 39 7f
        E 0 90 3d 7f
        E 0 90 4e 7f
        E 120 80 43 00
        E 0 80 30 00
        E 0 80 35 00
        E 0 80 3f 00
        E 0 80 32 00
        E 0 90 34 7f
        E 0 90 3e 7f
        E 0 90 33 7f
        E 0 90 45 7f
        E 120 80 44 00
        E 0 80 4a 00
        E 0 90 43 7f
        E 0 90 4b 7f
        E 240 80 39 00
        E 0 80 3d 00
        E 0 80 4e 00
        E 0 90 38 7f
        E 0 90 4d 7f
        E 0 90 50 7f
        E 120 80 34 00
        E 0 80 3e 00
        E 0 80 33 00
        E 0 80 45 00
        E 0 90 33 7f
        E 0 90 3d 7f
        E 0 90 35 7f
        E 0 90 3f 7f
        E 0 90 46 7f
        E 120 80 43 00
        E 0 80 4b 00
        E 0 90 42 7f
        E 0 90 4c 7f
        E 0 90 4a 7f
        E 240 80 38 00
        E 0 80 4d 00
        E 0 80 50 00
        E 0 90 37 7f
        E 120 80 33 00
        E 0 80 3d 00
        E 0 80 35 00
        E 0 80 3f 00
        E 0 80 46 00
        E 0 90 32 7f
        E 0 90 3c 7f
        E 0 90 34 7f
        E 0 90 36 7f
        E 0 90 40 7f
        E 0 90 47 7f
        E 120 80 42 00
        E 0 80 4c 00
        E 0 80 4a 00
        E 0 90 41 7f
        E 0 90 4d 7f
        E 0 90 49 7f
        E 240 80 37 00
        E 0 80 36 00
        E 0 90 36 7f
        E 0 90 38 7f
        E 120 80 32 00
        E 0 80 3c 00
        E 0 80 34 00
        E 0 80 40 00
        E 0 80 47 00
        E 0 80 4d 00
        E 0 90 31 7f
        E 0 90 3b 7f
        E 0 90 41 7f
        E 0 90 48 7f
        E 0 90 4e 7f
        E 120 80 41 00
        E 0 80 49 00
        E 0 90 40 7f
        E 240 80 36 00
        E 0 80 38 00
        E 0 80 4e 00
        E 0 90 35 7f
        E 0 90 39 7f
        E 0 90 4f 7f
        E 120 80 31 00
        E 0 80 3b 00
        E 0 80 48 00
        E 0 90 30 7f
        E 0 90 3a 7f
        E 0 90 42 7f
        E 0 90 49 7f
        E 0 90 47 7f
        E 120 80 41 00
        E 0 80 40 00
        E 0 90 3f 7f
        E 120 80 4f 00
        E 0 90 50 7f
        E 120 80 35 00
        E 0 80 39 00
        E 0 90 34 7f
        E 0 90 3b 7f
        E 120 80 30 00
        E 0 80 3a 00
        E 0 80 42 00
        E 0 80 49 00
        E 0 80 47 00
        E 0 90 39 7f
        E 0 90 43 7f
        E 0 90 4a 7f
        E 0 90 46 7f
        E 120 80 3f 00
        E 0 80 50 00
        E 0 90 3e 7f
        E 0 90 51 7f
        E 240 80 34 00
        E 0 80 3b 00
        E 0 90 33 7f
        E 0 90 3c 7f
        E 120 80 39 00
        E 0 80 43 00
        E 0 80 4a 00
        E 0 80 46 00
        E 0 80 51 00
        E 0 90 38 7f
        E 0 90 44 7f
        E 0 90 4b 7f
        E 0 90 45 7f
        E 120 80 3e 00
        E 0 90 3d 7f
        E 240 80 33 00
        E 0 80 3c 00
        E 0 90 32 7f
        E 120 80 38 00
        E 0 80 44 00
        E 0 80 4b 00
        E 0 80 45 00
        E 0 90 37 7f
        E 0 90 3e 7f
        E 0 90 45 7f
        E 0 90 4c 7f
        E 0 90 43 7f
        E 120 80 3d 00
        E 0 90 3c 7f
        E 240 80 32 00
        E 0 80 3e 00
        E 0 90 31 7f
        E 120 80 37 00
        E 0 80 45 00
        E 0 80 4c 00
        E 0 90 46 7f
        E 0 90 36 7f
        E 0 90 4d 7f
        E 120 80 43 00
        E 0 80 3c 00
        E 0 90 3b 7f
        E 0 90 42 7f
        E 240 80 31 00
        E 120 80 46 00
        E 0 80 36 00
        E 0 80 4d 00
        E 0 90 30 7f
        E 0 90 35 7f
        E 0 90 47 7f
        E 0 90 4e 7f
        E 120 80 3b 00
        E 0 80 42 00
        E 0 90 3a 7f
        E 0 90 41 7f
        E 360 80 30 00
        E 0 80 35 00
        E 0 80 47 00
        E 0 80 4e 00
        E 0 90 34 7f
        E 0 90 31 7f
        E 0 90 48 7f
        E 0 90 4f 7f
        E 120 80 3a 00
        E 0 80 41 00
        E 0 90 39 7f
        E 0 90 40 7f
        E 240 90 30 7f
        E 120 80 34 00
        E 0 80 31 00
        E 0 80 48 00
        E 0 80 4f 00
        E 0 90 50 7f
        E 0 90 33 7f
        E 0 90 32 7f
        E 0 90 49 7f
        E 0 90 37 7f
        E 0 90 3c 7f
        E 0 90 41 7f
        E 120 80 39 00
        E 0 80 40 00
        E 0 90 38 7f
        E 0 90 3f 7f
        E 240 80 30 00
        E 120 80 50 00
        E 0 80 33 00
        E 0 80 32 00
        E 0 80 49 00
        E 0 80 37 00
        E 0 80 3c 00
        E 0 80 41 00
        E 0 90 32 7f
        E 0 90 42 7f
        E 0 90 3b 7f
        E 0 90 40 7f
        E 120 80 38 00
        E 0 80 3f 00
        E 0 90 37 7f
        E 0 90 3e 7f
        E 0 90 44 7f
        E 0 90 49 7f
        E 0 90 4e 7f
        E 360 80 32 00
        E 0 80 42 00
        E 0 80 3b 00
        E 0 80 40 00
        E 0 90 33 7f
        E 0 90 31 7f
        E 0 90 3a 7f
        E 0 90 3f 7f
        E 0 90 44 7f
        E 0 90 43 7f
        E 120 80 37 00
        E 0 80 3e 00
        E 0 80 44 00
        E 0 80 49 00
        E 0 80 4e 00
        E 0 90 3d 7f
        E 0 90 4f 7f
        E 0 90 48 7f
        E 0 90 4d 7f
        E 360 80 33 00
        E 0 80 31 00
        E 0 80 3a 00
        E 0 80 3f 00
        E 0 80 44 00
        E 0 80 43 00
        E 0 90 30 7f
        E 0 90 34 7f
        E 0 90 39 7f
        E 0 90 3e 7f
        E 0 90 43 7f
        E 0 90 44 7f
        E 120 80 3d 00
        E 0 80 4f 00
        E 0 80 48 00
        E 0 80 4d 00
        E 0 90 47 7f
        E 0 90 4c 7f
        E 0 90 51 7f
        E 0 90 50 7f
        E 360 80 30 00
        E 0 80 34 00
        E 0 80 39 00
        E 0 80 3e 00
        E 0 80 43 00
        E 0 80 44 00
        E 0 90 35 7f
        E 0 90 38 7f
        E 0 90 3d 7f
        E 0 90 42 7f
        E 120 80 47 00
        E 0 80 4c 00
        E 0 80 51 00
        E 0 80 50 00
        E 0 90 46 7f
        E 0 90 4b 7f
        E 0 90 50 7f
        E 0 90 51 7f
        E 120 90 30 7f
        E 0 90 35 7f
        E 0 90 3a 7f
        E 240 80 35 00
        E 0 80 38 00
        E 0 80 3d 00
        E 0 80 42 00
        E 0 90 36 7f
        E 0 90 37 7f
        E 0 90 3c 7f
        E 0 90 41 7f
        E 120 80 46 00
        E 0 80 4b 00
        E 0 80 50 00
        E 0 80 51 00
        E 0 90 45 7f
        E 0 90 4a 7f
        E 0 90 4f 7f
        E 120 80 30 00
        E 0 80 35 00
        E 0 80 3a 00
        E 0 90 3b 7f
        E 0 90 34 7f
        E 0 90 39 7f
        E 240 80 36 00
        E 0 80 37 00
        E 0 80 3c 00
        E 0 80 41 00
        E 0 90 37 7f
        E 0 90 3b 7f
        E 0 90 40 7f
        E 120 80 45 00
        E 0 80 4a 00
        E 0 80 4f 00
        E 0 90 44 7f
        E 0 90 49 7f
        E 0 90 4e 7f
        E 120 80 3b 00
        E 0 80 34 00
        E 0 80 39 00
        E 0 90 33 7f
        E 0 90 38 7f
        E 0 90 3d 7f
        E 0 90 3c 7f
        E 240 80 37 00
        E 0 80 3b 00
        E 0 80 40 00
        E 0 90 3b 7f
        E 0 90 38 7f
        E 0 90 3a 7f
        E 0 90 3f 7f
        E 0 90 44 7f
        E 120 80 44 00
        E 0 80 49 00
        E 0 80 4e 00
        E 0 90 48 7f
        E 0 90 4d 7f
        E 120 80 33 00
        E 0 80 38 00
        E 0 80 3d 00
        E 0 80 3c 00
        E 0 90 32 7f
        E 0 90 37 7f
        E 0 90 3c 7f
        E 0 90 3d 7f
        E 240 80 3b 00
        E 0 80 38 00
        E 0 80 3a 00
        E 0 80 3f 00
        E 0 80 44 00
        E 0 90 3a 7f
        E 0 90 39 7f
        E 0 90 3e 7f
        E 0 90 43 7f
        E 120 80 48 00
        E 0 80 4d 00
        E 0 90 47 7f
        E 0 90 4c 7f
        E 0 90 51 7f
        E 120 80 32 00
        E 0 80 37 00
        E 0 80 3c 00
        E 0 80 3d 00
        E 0 90 31 7f
        E 0 90 36 7f
        E 0 90 3b 7f
        E 240 80 3a 00
        E 0 80 39 00
        E 0 80 3e 00
        E 0 80 43 00
        E 0 90 39 7f
        E 0 90 38 7f
        E 0 90 3d 7f
        E 0 90 42 7f
        E 120 80 47 00
        E 0 80 4c 00
        E 0 80 51 00
        E 0 90 46 7f
        E 0 90 4b 7f
        E 0 90 50 7f
        E 120 80 31 00
        E 0 80 36 00
        E 0 80 3b 00
        E 0 90 30 7f
        E 0 90 35 7f
        E 0 90 3a 7f
        E 240 80 39 00
        E 0 80 38 00
        E 0 80 3d 00
        E 0 80 42 00
        E 0 90 37 7f
        E 0 90 3c 7f
        E 0 90 41 7f
        E 120 80 46 00
        E 0 80 4b 00
        E 0 80 50 00
        E 0 90 45 7f
        E 0 90 4a 7f
        E 0 90 4f 7f
        E 120 80 30 00
        E 0 80 35 00
        E 0 80 3a 00
        E 0 90 34 7f
        E 0 90 39 7f
        E 240 80 37 00
        E 0 80 3c 00
        E 0 80 41 00
        E 0 90 3b 7f
        E 0 90 40 7f
        E 120 80 45 00
        E 0 80 4a 00
        E 0 80 4f 00
        E 0 90 44 7f
        E 0 90 49 7f
        E 0 90 4e 7f
        E 120 80 34 00
        E 0 80 39 00
        E 0 90 33 7f
        E 0 90 38 7f
        E 0 90 3d 7f
        E 240 80 3b 00
        E 0 80 40 00
        E 0 90 3a 7f
        E 0 90 3f 7f
        E 0 90 44 7f
        E 120 80 44 00
        E 0 80 49 00
        E 0 80 4e 00
        E 0 90 48 7f
        E 0 90 4d 7f
        E 120 80 33 00
        E 0 80 38 00
        E 0 80 3d 00
        E 0 90 32 7f
        E 0 90 37 7f
        E 0 90 3c 7f
        E 240 80 3a 00
        E 0 80 3f 00
        E 0 80 44 00
        E 0 90 39 7f
        E 0 90 3e 7f
        E 0 90 43 7f
        E 120 80 48 00
        E 0 80 4d 00
        E 0 90 47 7f
        E 0 90 4c 7f
        E 0 90 51 7f
        E 120 80 32 00
        E 0 80 37 00
        E 0 80 3c 00
        E 0 90 31 7f
        E 0 90 36 7f
        E 0 90 3b 7f
        E 240 80 39 00
        E 0 80 3e 00
        E 0 80 43 00
        E 0 90 38 7f
        E 0 90 3d 7f
        E 0 90 42 7f
        E 120 80 47 00
        E 0 80 4c 00
        E 0 80 51 00
        E 0 90 46 7f
        E 0 90 4b 7f
        E 0 90 50 7f
        E 120 80 31 00
        E 0 80 36 00
        E 0 80 3b 00
        E 0 90 30 7f
        E 0 90 35 7f
        E 0 90 3a 7f
        E 240 80 38 00
        E 0 80 3d 00
        E 0 80 42 00
        E 0 90 37 7f
        E 0 90 3c 7f
        E 0 90 41 7f
        E 120 80 46 00
        E 0 80 4b 00
        E 0 80 50 00
        E 0 90 45 7f
        E 0 90 4a 7f
        E 0 90 4f 7f
        E 120 80 30 00
        E 0 80 35 00
        E 0 80 3a 00
        E 0 90 34 7f
        E 0 90 39 7f
        E 240 80 37 00
        E 0 80 3c 00
        E 0 80 41 00
        E 0 90 3b 7f
        E 0 90 40 7f
        E 120 80 45 00
        E 0 80 4a 00
        E 0 80 4f 00
        E 0 90 44 7f
        E 0 90 49 7f
        E 0 90 4e 7f
        E 120 80 34 00
        E 0 80 39 00
        E 0 90 33 7f
        E 0 90 38 7f
        E 0 90 3d 7f
        E 240 80 3b 00
        E 0 80 40 00
        E 0 90 3a 7f
        E 0 90 3f 7f
        E 120 80 44 00
        E 0 80 49 00
        E 0 80 4e 00
        E 0 90 48 7f
        E 0 90 4d 7f
        E 120 80 33 00
        E 0 80 38 00
        E 0 80 3d 00
        E 0 90 32 7f
        E 0 90 37 7f
        E 0 90 3c 7f
        E 120 90 43 7f
        E 120 80 3a 00
        E 0 80 3f 00
        E 0 90 39 7f
        E 0 90 3e 7f
        E 0 90 37 7f
        E 0 90 51 7f
        E 120 80 48 00
        E 0 80 4d 00
        E 0 90 47 7f
        E 0 90 4c 7f
        E 120 80 32 00
        E 0 80 37 00
        E 0 80 3c 00
        E 0 90 31 7f
        E 0 90 36 7f
        E 0 90 3b 7f
        E 120 80 43 00
        E 0 90 42 7f
        E 120 80 39 00
        E 0 80 3e 00
        E 0 80 37 00
        E 0 80 51 00
        E 0 90 38 7f
        E 0 90 3d 7f
        E 0 90 50 7f
        E 120 80 47 00
        E 0 80 4c 00
        E 0 90 46 7f
        E 0 90 4b 7f
        E 0 90 44 7f
        E 120 80 31 00
        E 0 80 36 00
        E 0 80 3b 00
        E 0 90 30 7f
        E 0 90 35 7f
        E 0 90 3a 7f
        E 120 80 42 00
        E 0 90 41 7f
        E 0 90 43 7f
        E 120 80 38 00
        E 0 80 3d 00
        E 0 80 50 00
        E 0 90 37 7f
        E 0 90 3c 7f
        E 0 90 39 7f
        E 0 90 4f 7f
        E 120 80 46 00
        E 0 80 4b 00
        E 0 80 44 00
        E 0 90 45 7f
        E 0 90 4a 7f
        E 120 80 30 00
        E 0 80 35 00
        E 0 80 3a 00
        E 0 90 34 7f
        E 120 80 41 00
        E 0 80 43 00
        E 0 90 40 7f
        E 0 90 44 7f
        E 120 80 37 00
        E 0 80 3c 00
        E 0 80 39 00
        E 0 80 4f 00
        E 0 90 3b 7f
        E 0 90 3a 7f
        E 0 90 4e 7f
        E 0 90 50 7f
        E 120 80 45 00
        E 0 80 4a 00
        E 0 90 3d 7f
        E 0 90 49 7f
        E 0 90 46 7f
        E 120 80 34 00
        E 0 90 33 7f
        E 0 90 38 7f
        E 120 80 40 00
        E 0 80 44 00
        E 0 90 3f 7f
        E 120 80 3b 00
        E 0 80 3a 00
        E 0 80 4e 00
        E 0 80 50 00
        E 0 90 3a 7f
        E 0 90 44 7f
        E 0 90 3c 7f
        E 0 90 4d 7f
        E 0 90 51 7f
        E 120 80 3d 00
        E 0 80 49 00
        E 0 80 46 00
        E 0 90 48 7f
        E 0 90 47 7f
        E 120 80 33 00
        E 0 80 38 00
        E 0 90 32 7f
        E 0 90 37 7f
        E 0 90 30 7f
        E 120 80 3f 00
        E 0 90 3e 7f
        E 120 80 3a 00
        E 0 80 44 00
        E 0 80 3c 00
        E 0 80 4d 00
        E 0 80 51 00
        E 0 90 39 7f
        E 0 90 43 7f
        E 0 90 3b 7f
        E 0 90 3d 7f
        E 0 90 4c 7f
        E 120 80 48 00
        E 0 80 47 00
        E 0 90 47 7f
        E 0 90 51 7f
        E 0 90 49 7f
        E 120 80 32 00
        E 0 80 37 00
        E 0 80 30 00
        E 0 90 31 7f
        E 0 90 36 7f
        E 120 80 3e 00
        E 0 80 3d 00
        E 0 90 3d 7f
        E 0 90 3f 7f
        E 120 80 39 00
        E 0 80 43 00
        E 0 80 3b 00
        E 0 80 4c 00
        E 0 90 38 7f
        E 0 90 42 7f
        E 0 90 4b 7f
        E 120 80 47 00
        E 0 80 51 00
        E 0 80 49 00
        E 0 90 3a 7f
        E 0 90 3c 7f
        E 0 90 46 7f
        E 0 90 50 7f
        E 0 90 48 7f
        E 0 90 4a 7f
        E 120 80 31 00
        E 0 80 36 00
        E 0 90 30 7f
        E 0 90 35 7f
        E 0 90 32 7f
        E 120 80 3d 00
        E 0 80 3f 00
        E 0 90 40 7f
        E 120 80 38 00
        E 0 80 42 00
        E 0 80 4b 00
        E 0 80 4a 00
        E 0 90 37 7f
        E 0 90 41 7f
        E 0 90 4a 7f
        E 0 90 4c 7f
        E 120 80 3a 00
        E 0 80 3c 00
        E 0 80 46 00
        E 0 80 50 00
        E 0 80 48 00
        E 0 90 39 7f
        E 0 90 3d 7f
        E 0 90 45 7f
        E 0 90 4f 7f
        E 120 80 30 00
        E 0 80 35 00
        E 0 80 32 00
        E 0 90 34 7f
        E 0 90 33 7f
        E 120 80 40 00
        E 0 90 3b 7f
        E 0 90 42 7f
        E 120 80 37 00
        E 0 80 41 00
        E 0 80 4a 00
        E 0 80 4c 00
        E 0 90 40 7f
        E 0 90 49 7f
        E 0 90 4d 7f
        E 120 80 39 00
        E 0 80 3d 00
        E 0 80 45 00
        E 0 80 4f 00
        E 0 90 38 7f
        E 0 90 44 7f
        E 0 90 4e 7f
        E 120 80 34 00
        E 0 80 33 00
        E 0 90 33 7f
        E 0 90 3d 7f
        E 0 90 35 7f
        E 120 80 3b 00
        E 0 80 42 00
        E 0 90 3a 7f
        E 0 90 43 7f
        E 120 80 40 00
        E 0 80 49 00
        E 0 80 4d 00
        E 0 90 3f 7f
        E 0 90 48 7f
        E 0 90 4f 7f
        E 120 80 38 00
        E 0 80 44 00
        E 0 80 4e 00
        E 0 90 37 7f
        E 0 90 44 7f
        E 0 90 4d 7f
        E 120 80 33 00
        E 0 80 3d 00
        E 0 80 35 00
        E 0 90 32 7f
        E 0 90 3c 7f
        E 0 90 34 7f
        E 0 90 36 7f
        E 120 80 3a 00
        E 0 80 43 00
        E 0 90 39 7f
        E 120 80 3f 00
        E 0 80 48 00
        E 0 80 4f 00
        E 0 90 3e 7f
        E 0 90 47 7f
        E 0 90 50 7f
        E 120 80 37 00
        E 0 80 44 00
        E 0 80 4d 00
        E 0 80 36 00
        E 0 90 36 7f
        E 0 90 38 7f
        E 0 90 43 7f
        E 0 90 4c 7f
        E 120 80 32 00
        E 0 80 3c 00
        E 0 80 34 00
        E 0 90 31 7f
        E 0 90 3b 7f
        E 0 90 51 7f
        E 120 80 39 00
        E 120 80 3e 00
        E 0 80 47 00
        E 0 80 50 00
        E 0 90 3e 7f
        E 0 90 43 7f
        E 0 90 48 7f
        E 0 90 46 7f
        E 120 80 36 00
        E 0 80 38 00
        E 0 80 43 00
        E 0 80 4c 00
        E 0 90 35 7f
        E 0 90 39 7f
        E 0 90 4b 7f
        E 120 80 31 00
        E 0 80 3b 00
        E 0 80 51 00
        E 0 90 30 7f
        E 0 90 3a 7f
        E 0 90 50 7f
        E 240 80 3e 00
        E 0 80 43 00
        E 0 80 48 00
        E 0 80 46 00
        E 0 90 49 7f
        E 0 90 42 7f
        E 0 90 47 7f
        E 120 80 35 00
        E 0 80 39 00
        E 0 80 4b 00
        E 0 90 34 7f
        E 0 90 3b 7f
        E 120 80 30 00
        E 0 80 3a 00
        E 0 80 50 00
        E 0 90 39 7f
        E 240 80 49 00
        E 0 80 42 00
        E 0 80 47 00
        E 0 90 41 7f
        E 0 90 46 7f
        E 0 90 4b 7f
        E 0 90 4a 7f
        E 120 80 34 00
        E 0 80 3b 00
        E 0 90 33 7f
        E 0 90 3c 7f
        E 120 80 39 00
        E 0 90 38 7f
        E 120 90 3d 7f
        E 0 90 4e 7f
        E 120 80 41 00
        E 0 80 46 00
        E 0 80 4b 00
        E 0 80 4a 00
        E 0 90 40 7f
        E 0 90 45 7f
        E 0 90 4a 7f
        E 0 90 4b 7f
        E 120 80 33 00
        E 0 80 3c 00
        E 0 90 32 7f
        E 0 90 3a 7f
        E 120 80 38 00
        E 0 90 37 7f
        E 120 80 3d 00
        E 0 80 4e 00
        E 0 90 3c 7f
        E 0 90 4d 7f
        E 120 80 40 00
        E 0 80 45 00
        E 0 80 4a 00
        E 0 80 4b 00
        E 0 90 3f 7f
        E 0 90 44 7f
        E 0 90 49 7f
        E 120 80 32 00
        E 0 80 3a 00
        E 0 90 34 7f
        E 0 90 31 7f
        E 0 90 33 7f
        E 120 80 37 00
        E 0 90 3b 7f
        E 0 90 38 7f
        E 120 80 3c 00
        E 0 80 4d 00
        E 0 90 35 7f
        E 0 90 4c 7f
        E 0 90 51 7f
        E 120 80 3f 00
        E 0 80 44 00
        E 0 80 49 00
        E 0 90 3e 7f
        E 0 90 43 7f
        E 0 90 48 7f
        E 0 90 3c 7f
        E 120 80 34 00
        E 0 80 31 00
        E 0 80 33 00
        E 0 90 32 7f
        E 120 80 3b 00
        E 0 80 38 00
        E 0 90 39 7f
        E 120 80 35 00
        E 0 80 4c 00
        E 0 80 51 00
        E 0 90 34 7f
        E 0 90 4b 7f
        E 0 90 50 7f
        E 120 80 3e 00
        E 0 80 43 00
        E 0 80 48 00
        E 0 80 3c 00
        E 0 90 42 7f
        E 0 90 47 7f
        E 0 90 3b 7f
        E 120 80 32 00
        E 0 90 32 7f
        E 0 90 31 7f
        E 120 80 39 00
        E 0 90 39 7f
        E 0 90 38 7f
        E 120 80 34 00
        E 0 80 4b 00
        E 0 80 50 00
        E 0 90 33 7f
        E 0 90 4f 7f
        E 120 80 42 00
        E 0 80 47 00
        E 0 80 3b 00
        E 0 90 41 7f
        E 0 90 46 7f
        E 0 90 4b 7f
        E 0 90 3a 7f
        E 120 80 32 00
        E 0 80 31 00
        E 0 90 35 7f
        E 120 80 39 00
        E 0 80 38 00
        E 0 90 3c 7f
        E 120 80 33 00
        E 0 80 4f 00
        E 0 90 32 7f
        E 0 90 4e 7f
        E 120 80 41 00
        E 0 80 46 00
        E 0 80 4b 00
        E 0 80 3a 00
        E 0 90 40 7f
        E 0 90 45 7f
        E 0 90 4a 7f
        E 0 90 39 7f
        E 120 80 35 00
        E 0 90 34 7f
        E 120 80 3c 00
        E 0 90 3b 7f
        E 120 80 32 00
        E 0 80 4e 00
        E 0 90 31 7f
        E 0 90 4d 7f
        E 120 80 40 00
        E 0 80 45 00
        E 0 80 4a 00
        E 0 80 39 00
        E 0 90 3f 7f
        E 0 90 44 7f
        E 0 90 49 7f
        E 0 90 38 7f
        E 120 80 34 00
        E 0 90 33 7f
        E 120 80 3b 00
        E 0 90 3a 7f
        E 0 90 51 7f
        E 120 80 31 00
        E 0 80 4d 00
        E 0 90 35 7f
        E 0 90 4c 7f
        E 120 80 3f 00
        E 0 80 44 00
        E 0 80 49 00
        E 0 80 38 00
        E 0 90 3e 7f
        E 0 90 43 7f
        E 0 90 48 7f
        E 0 90 3c 7f
        E 120 80 33 00
        E 0 90 32 7f
        E 120 80 3a 00
        E 0 80 51 00
        E 0 90 39 7f
        E 0 90 50 7f
        E 120 80 35 00
        E 0 80 4c 00
        E 0 90 34 7f
        E 0 90 4b 7f
        E 120 80 3e 00
        E 0 80 43 00
        E 0 80 48 00
        E 0 80 3c 00
        E 0 90 42 7f
        E 0 90 47 7f
        E 0 90 3b 7f
        E 120 80 32 00
        E 0 90 31 7f
        E 120 80 39 00
        E 0 80 50 00
        E 0 90 38 7f
        E 0 90 4f 7f
        E 120 80 34 00
        E 0 80 4b 00
        E 0 90 33 7f
        E 120 80 42 00
        E 0 80 47 00
        E 0 80 3b 00
        E 0 90 41 7f
        E 0 90 46 7f
        E 0 90 4b 7f
        E 0 90 3a 7f
        E 120 80 31 00
        E 0 90 35 7f
        E 120 80 38 00
        E 0 80 4f 00
        E 0 90 3c 7f
        E 0 90 4e 7f
        E 0 90 50 7f
        E 120 80 33 00
        E 0 90 32 7f
        E 120 80 41 00
        E 0 80 46 00
        E 0 80 4b 00
        E 0 80 3a 00
        E 0 90 40 7f
        E 0 90 45 7f
        E 0 90 4a 7f
        E 0 90 39 7f
        E 120 80 35 00
        E 0 90 34 7f
        E 120 80 3c 00
        E 0 80 4e 00
        E 0 80 50 00
        E 0 90 3b 7f
        E 120 80 32 00
        E 0 90 31 7f
        E 120 80 40 00
        E 0 80 45 00
        E 0 80 4a 00
        E 0 80 39 00
        E 0 90 3f 7f
        E 0 90 44 7f
        E 0 90 49 7f
        E 0 90 38 7f
        E 0 90 4f 7f
        E 120 80 34 00
        E 0 90 33 7f
        E 120 80 3b 00
        E 0 90 3a 7f
        E 120 80 31 00
        E 0 90 35 7f
        E 120 80 3f 00
        E 0 80 44 00
        E 0 80 49 00
        E 0 80 38 00
        E 0 80 4f 00
        E 0 90 3e 7f
        E 0 90 43 7f
        E 0 90 48 7f
        E 0 90 3c 7f
        E 0 90 4e 7f
        E 0 90 51 7f
        E 120 80 33 00
        E 0 90 32 7f
        E 120 80 3a 00
        E 0 90 39 7f
        E 120 80 35 00
        E 0 90 34 7f
        E 120 80 3e 00
        E 0 80 43 00
        E 0 80 48 00
        E 0 80 3c 00
        E 0 80 4e 00
        E 0 80 51 00
        E 0 90 42 7f
        E 0 90 47 7f
        E 0 90 3b 7f
        E 0 90 4d 7f
        E 120 80 32 00
        E 0 90 31 7f
        E 120 80 39 00
        E 0 90 38 7f
        E 120 80 34 00
        E 0 90 4b 7f
        E 0 90 33 7f
        E 120 80 42 00
        E 0 80 47 00
        E 0 80 3b 00
        E 0 80 4d 00
        E 0 90 41 7f
        E 0 90 46 7f
        E 0 90 3a 7f
        E 0 90 4e 7f
        E 120 80 31 00
        E 0 90 35 7f
        E 0 90 32 7f
        E 120 80 38 00
        E 0 90 3c 7f
        E 0 90 39 7f
        E 120 80 4b 00
        E 0 80 33 00
        E 0 90 4a 7f
        E 120 80 41 00
        E 0 80 46 00
        E 0 80 3a 00
        E 0 80 4e 00
        E 0 90 40 7f
        E 0 90 45 7f
        E 0 90 3e 7f
        E 0 90 4f 7f
        E 120 80 35 00
        E 0 80 32 00
        E 0 90 34 7f
        E 0 90 33 7f
        E 120 80 3c 00
        E 0 80 39 00
        E 0 90 3b 7f
        E 0 90 3a 7f
        E 120 80 4a 00
        E 0 90 49 7f
        E 0 90 31 7f
        E 120 80 40 00
        E 0 80 45 00
        E 0 80 3e 00
        E 0 80 4f 00
        E 0 90 3f 7f
        E 0 90 44 7f
        E 0 90 38 7f
        E 0 90 4e 7f
        E 0 90 50 7f
        E 120 80 34 00
        E 0 80 33 00
        E 0 90 33 7f
        E 0 90 35 7f
        E 120 80 3b 00
        E 0 80 3a 00
        E 0 90 3a 7f
        E 0 90 3c 7f
        E 120 80 49 00
        E 0 80 31 00
        E 0 90 48 7f
        E 0 90 4a 7f
        E 120 80 3f 00
        E 0 80 44 00
        E 0 80 38 00
        E 0 80 4e 00
        E 0 80 50 00
        E 0 90 3e 7f
        E 0 90 43 7f
        E 0 90 40 7f
        E 120 80 33 00
        E 0 80 35 00
        E 0 90 32 7f
        E 0 90 34 7f
        E 0 90 51 7f
        E 120 80 3a 00
        E 0 80 3c 00
        E 0 90 39 7f
        E 0 90 3b 7f
        E 0 90 4f 7f
        E 120 80 48 00
        E 0 80 4a 00
        E 0 90 47 7f
        E 0 90 4b 7f
        E 120 80 3e 00
        E 0 80 43 00
        E 0 80 40 00
        E 0 90 42 7f
        E 0 90 41 7f
        E 120 80 32 00
        E 0 80 34 00
        E 0 80 51 00
        E 0 90 31 7f
        E 120 80 39 00
        E 0 80 3b 00
        E 0 80 4f 00
        E 0 90 38 7f
        E 0 90 33 7f
        E 0 90 35 7f
        E 0 90 4e 7f
        E 120 80 47 00
        E 0 80 4b 00
        E 0 90 46 7f
        E 0 90 3a 7f
        E 0 90 3c 7f
        E 120 80 42 00
        E 0 80 41 00
        E 0 90 41 7f
        E 0 90 4b 7f
        E 0 90 43 7f
        E 120 80 31 00
        E 120 80 38 00
        E 0 80 33 00
        E 0 80 35 00
        E 0 80 4e 00
        E 0 90 32 7f
        E 0 90 4d 7f
        E 120 80 46 00
        E 0 80 3a 00
        E 0 80 3c 00
        E 0 90 45 7f
        E 0 90 39 7f
        E 120 80 41 00
        E 0 80 4b 00
        E 0 80 43 00
        E 0 90 40 7f
        E 0 90 4a 7f
        E 0 90 42 7f
        E 0 90 44 7f
        E 0 90 34 7f
        E 120 90 3b 7f
        E 120 80 32 00
        E 0 80 4d 00
        E 0 90 31 7f
        E 0 90 4e 7f
        E 120 80 45 00
        E 0 80 39 00
        E 0 80 44 00
        E 0 90 44 7f
        E 0 90 46 7f
        E 0 90 38 7f
        E 120 80 40 00
        E 0 80 4a 00
        E 0 80 42 00
        E 0 80 34 00
        E 0 90 3f 7f
        E 0 90 49 7f
        E 0 90 33 7f
        E 120 80 3b 00
        E 0 90 3a 7f
        E 0 90 4f 7f
        E 120 80 31 00
        E 0 80 4e 00
        E 120 80 44 00
        E 0 80 46 00
        E 0 80 38 00
        E 0 90 43 7f
        E 0 90 47 7f
        E 0 90 35 7f
        E 120 80 3f 00
        E 0 80 49 00
        E 0 80 33 00
        E 0 90 3e 7f
        E 0 90 48 7f
        E 0 90 3c 7f
        E 0 90 32 7f
        E 0 90 51 7f
        E 120 80 3a 00
        E 0 80 4f 00
        E 0 90 39 7f
        E 0 90 4e 7f
        E 0 90 50 7f
        E 120 90 31 7f
        E 120 80 43 00
        E 0 80 47 00
        E 0 80 35 00
        E 0 90 42 7f
        E 0 90 49 7f
        E 0 90 38 7f
        E 0 90 34 7f
        E 120 80 3e 00
        E 0 80 48 00
        E 0 80 3c 00
        E 0 80 32 00
        E 0 80 51 00
        E 0 90 47 7f
        E 0 90 3b 7f
        E 120 80 39 00
        E 0 80 4e 00
        E 0 80 50 00
        E 120 80 31 00
        E 0 90 32 7f
        E 120 80 42 00
        E 0 80 49 00
        E 0 80 38 00
        E 0 80 34 00
        E 0 90 41 7f
        E 0 90 4a 7f
        E 0 90 39 7f
        E 0 90 33 7f
        E 0 90 4f 7f
        E 120 80 47 00
        E 0 80 3b 00
        E 0 90 46 7f
        E 0 90 3a 7f
        E 0 90 43 7f
        E 120 90 4b 7f
        E 120 80 32 00
        E 0 80 43 00
        E 0 90 34 7f
        E 120 80 41 00
        E 0 80 4a 00
        E 0 80 39 00
        E 0 80 33 00
        E 0 80 4f 00
        E 0 90 40 7f
        E 0 90 3b 7f
        E 0 90 32 7f
        E 0 90 4e 7f
        E 120 80 46 00
        E 0 80 3a 00
        E 0 90 45 7f
        E 0 90 39 7f
        E 0 90 44 7f
        E 120 80 4b 00
        E 0 90 4a 7f
        E 120 80 34 00
        E 0 80 44 00
        E 0 90 35 7f
        E 120 80 40 00
        E 0 80 3b 00
        E 0 80 32 00
        E 0 80 4e 00
        E 0 90 3c 7f
        E 0 90 31 7f
        E 0 90 4d 7f
        E 120 80 45 00
        E 0 80 39 00
        E 0 90 38 7f
        E 0 90 41 7f
        E 0 90 51 7f
        E 120 80 4a 00
        E 120 80 35 00
        E 0 90 4a 7f
        E 120 80 3c 00
        E 0 80 31 00
        E 0 80 4d 00
        E 0 80 41 00
        E 0 90 40 7f
        E 0 90 45 7f
        E 0 90 3e 7f
        E 0 90 4f 7f
        E 0 90 35 7f
        E 120 80 38 00
        E 0 80 51 00
        E 0 90 33 7f
        E 120 90 3b 7f
        E 120 80 4a 00
        E 0 90 49 7f
        E 0 90 31 7f
        E 120 80 40 00
        E 0 80 45 00
        E 0 80 3e 00
        E 0 80 4f 00
        E 0 80 35 00
        E 0 90 3f 7f
        E 0 90 44 7f
        E 0 90 38 7f
        E 0 90 4e 7f
        E 0 90 50 7f
        E 120 80 33 00
        E 0 90 33 7f
        E 0 90 35 7f
        E 120 80 3b 00
        E 0 90 3a 7f
        E 0 90 3c 7f
        E 120 80 49 00
        E 0 80 31 00
        E 0 90 48 7f
        E 0 90 4a 7f
        E 120 80 3f 00
        E 0 80 44 00
        E 0 80 38 00
        E 0 80 4e 00
        E 0 80 50 00
        E 0 90 3e 7f
        E 0 90 43 7f
        E 0 90 40 7f
        E 120 80 33 00
        E 0 80 35 00
        E 0 90 32 7f
        E 0 90 34 7f
        E 120 80 3a 00
        E 0 80 3c 00
        E 0 90 39 7f
        E 0 90 3b 7f
        E 0 90 4f 7f
        E 120 80 48 00
        E 0 80 4a 00
        E 0 90 47 7f
        E 0 90 4b 7f
        E 120 80 3e 00
        E 0 80 43 00
        E 0 80 40 00
        E 0 90 42 7f
        E 120 80 32 00
        E 0 80 34 00
        E 0 90 31 7f
        E 120 80 39 00
        E 0 80 3b 00
        E 0 80 4f 00
        E 0 90 38 7f
        E 0 90 33 7f
        E 0 90 35 7f
        E 0 90 4e 7f
        E 120 80 47 00
        E 0 80 4b 00
        E 0 90 46 7f
        E 0 90 3a 7f
        E 0 90 3c 7f
        E 120 80 42 00
        E 0 90 41 7f
        E 0 90 4b 7f
        E 0 90 43 7f
        E 120 80 31 00
        E 120 80 38 00
        E 0 80 33 00
        E 0 80 35 00
        E 0 80 4e 00
        E 0 90 32 7f
        E 0 90 4d 7f
        E 0 90 51 7f
        E 120 80 46 00
        E 0 80 3a 00
        E 0 80 3c 00
        E 0 90 45 7f
        E 0 90 39 7f
        E 120 80 41 00
        E 0 80 4b 00
        E 0 80 43 00
        E 0 90 40 7f
        E 0 90 4a 7f
        E 0 90 42 7f
        E 0 90 44 7f
        E 0 90 34 7f
        E 120 90 3b 7f
        E 120 80 32 00
        E 0 80 4d 00
        E 0 80 51 00
        E 0 90 31 7f
        E 0 90 4e 7f
        E 120 80 45 00
        E 0 80 39 00
        E 0 80 44 00
        E 0 90 44 7f
        E 0 90 46 7f
        E 0 90 38 7f
        E 120 80 40 00
        E 0 80 4a 00
        E 0 80 42 00
        E 0 80 34 00
        E 0 90 3f 7f
        E 0 90 49 7f
        E 0 90 33 7f
        E 120 80 3b 00
        E 0 90 3a 7f
        E 0 90 4f 7f
        E 120 80 31 00
        E 0 80 4e 00
        E 120 80 44 00
        E 0 80 46 00
        E 0 80 38 00
        E 0 90 43 7f
        E 0 90 47 7f
        E 0 90 35 7f
        E 120 80 3f 00
        E 0 80 49 00
        E 0 80 33 00
        E 0 90 3e 7f
        E 0 90 48 7f
        E 0 90 3c 7f
        E 0 90 32 7f
        E 120 80 3a 00
        E 0 80 4f 00
        E 0 90 39 7f
        E 0 90 4e 7f
        E 0 90 50 7f
        E 120 90 31 7f
        E 120 80 43 00
        E 0 80 47 00
        E 0 80 35 00
        E 0 90 42 7f
        E 0 90 49 7f
        E 0 90 38 7f
        E 0 90 34 7f
        E 120 80 3e 00
        E 0 80 48 00
        E 0 80 3c 00
        E 0 80 32 00
        E 0 90 47 7f
        E 0 90 3b 7f
        E 120 80 39 00
        E 0 80 4e 00
        E 0 80 50 00
        E 120 80 31 00
        E 0 90 32 7f
        E 120 80 42 00
        E 0 80 49 00
        E 0 80 38 00
        E 0 80 34 00
        E 0 90 41 7f
        E 0 90 4a 7f
        E 0 90 39 7f
        E 0 90 33 7f
        E 0 90 4f 7f
        E 120 80 47 00
        E 0 80 3b 00
        E 0 90 46 7f
        E 0 90 3a 7f
        E 120 90 4b 7f
        E 0 90 51 7f
        E 120 80 32 00
        E 0 90 34 7f
        E 120 80 41 00
        E 0 80 4a 00
        E 0 80 39 00
        E 0 80 33 00
        E 0 80 4f 00
        E 0 90 40 7f
        E 0 90 3b 7f
        E 0 90 32 7f
        E 0 90 4e 7f
        E 0 90 3d 7f
        E 120 80 46 00
        E 0 80 3a 00
        E 0 90 45 7f
        E 0 90 39 7f
        E 120 80 4b 00
        E 0 80 51 00
        E 0 80 3d 00
        E 0 90 4a 7f
        E 0 90 3e 7f
        E 120 80 34 00
        E 0 90 35 7f
        E 120 80 40 00
        E 0 80 3b 00
        E 0 80 32 00
        E 0 80 4e 00
        E 0 80 3e 00
        E 0 90 3f 7f
        E 0 90 3c 7f
        E 0 90 31 7f
        E 0 90 4d 7f
        E 0 90 42 7f
        E 0 90 36 7f
        E 0 90 33 7f
        E 120 80 45 00
        E 0 80 39 00
        E 120 80 4a 00
        E 0 80 3f 00
        E 0 80 42 00
        E 0 80 36 00
        E 0 80 33 00
        E 0 90 43 7f
        E 0 90 40 7f
        E 0 90 49 7f
        E 0 90 46 7f
        E 0 90 37 7f
        E 0 90 34 7f
        E 120 80 35 00
        E 120 80 3c 00
        E 0 80 31 00
        E 0 80 4d 00
        E 0 80 43 00
        E 0 80 40 00
        E 0 80 49 00
        E 0 80 46 00
        E 0 80 37 00
        E 0 80 34 00
        E 0 90 3a 7f
        E 0 90 4e 7f
        E 0 90 44 7f
        E 0 90 41 7f
        E 0 90 3f 7f
        E 0 90 3c 7f
        E 0 90 4a 7f
        E 0 90 47 7f
        E 0 90 50 7f
        E 120 90 35 7f
        E 120 80 44 00
        E 0 80 41 00
        E 0 80 3f 00
        E 0 80 3c 00
        E 0 80 4a 00
        E 0 80 47 00
        E 0 80 50 00
        E 0 90 45 7f
        E 0 90 42 7f
        E 0 90 40 7f
        E 0 90 3d 7f
        E 0 90 4b 7f
        E 0 90 48 7f
        E 0 90 51 7f
        E 240 80 3a 00
        E 0 80 4e 00
        E 0 80 45 00
        E 0 80 42 00
        E 0 80 40 00
        E 0 80 3d 00
        E 0 80 4b 00
        E 0 80 48 00
        E 0 80 51 00
        E 0 90 46 7f
        E 0 90 43 7f
        E 0 90 41 7f
        E 0 90 3e 7f
        E 0 90 52 7f
        E 0 90 33 7f
        E 0 90 31 7f
        E 120 80 35 00
        E 120 80 46 00
        E 0 80 43 00
        E 0 80 41 00
        E 0 80 3e 00
        E 0 80 52 00
        E 0 80 33 00
        E 0 80 31 00
        E 3489120 b0 7b 00
        CCINTERP 32
        CHASE_CC_TAKEOFFS 1
        GUID {E803C4E2-E7B1-5C48-8BAE-F5D658905010}
        IGNTEMPO 0 120 4 4
        SRCCOLOR 0
        VELLANE -1 100 0
        CFGEDITVIEW 446792.771029 0.009044 33 12 0 -1 0 0 0 0.5
        KEYSNAP 0
        TRACKSEL 0
        EVTFILTER 0 -1 -1 -1 -1 0 0 0 0 -1 -1 -1 -1 0 -1 0 -1 -1
        CFGEDIT 1 1 0 1 0 1 1 1 1 1 1 0.125 0 68 1792 1085 0 0 0 1 0 0 0 0 0 0.5 0 0 1 64
      >
      <VOLENV
        EGUID {B89D8D67-1DFD-DA45-B933-E584640A6E67}
        ACT 1 -1
        VIS 1 1 1
        LANEHEIGHT 0 0
        ARM 0
        DEFSHAPE 0 -1 -1
        VOLTYPE 1
        PT 0 0.37153523 0 0 1
      >
    >
    <ITEM
      POSITION 4544
      SNAPOFFS 0
      LENGTH 1472
      LOOP 1
      ALLTAKES 0
      FADEIN 1 0 0 1 0 0 0
      FADEOUT 1 0 0 1 0 0 0
      MUTE 0 0
      SEL 0
      IGUID {DB5CA493-1BF8-4942-BB2B-6DF5E7F928D8}
      IID 11
      NAME "untitled MIDI item"
      VOLPAN 1 0 1 -1
      SOFFS 0 0
      PLAYRATE 1 1 0 -1 0 0.0025
      CHANMODE 0
      GUID {C9259286-E3C0-CE42-9539-DE4E43BD7AB4}
      <SOURCE MIDI
        HASDATA 1 960 QN
        CCINTERP 32
        POOLEDEVTS {9FA246BC-2C2D-DC45-AC66-8ABE4F06F8CB}
        E 34560 90 37 60
        E 38280 80 37 00
        E 58440 90 37 60
        E 40680 80 37 00
        E 45840 90 37 60
        E 45840 80 37 00
        E 43200 90 37 60
        E 43200 80 37 00
        E 40680 90 37 60
        E 45960 80 37 00
        E 50760 90 37 60
        E 43320 80 37 00
        E 53400 90 37 60
        E 38280 80 37 00
        E 58440 90 37 60
        E 40680 80 37 00
        E 45840 90 37 60
        E 45840 80 37 00
        E 43200 90 37 60
        E 43200 80 37 00
        E 40680 90 37 60
        E 45960 80 37 00
        E 50760 90 37 60
        E 43320 80 37 00
        E 35640 90 37 60
        E 38280 80 37 00
        E 58440 90 37 60
        E 40680 80 37 00
        E 45840 90 37 60
        E 45840 80 37 00
        E 43200 90 37 60
        E 43200 80 37 00
        E 40680 90 37 60
        E 45960 80 37 00
        E 50760 90 37 60
        E 43320 80 37 00
        E 50760 90 37 60
        E 38280 80 37 00
        E 58440 90 37 60
        E 40680 80 37 00
        E 45840 90 37 60
        E 45840 80 37 00
        E 43200 90 37 60
        E 43200 80 37 00
        E 40680 90 37 60
        E 45960 80 37 00
        E 50760 90 37 60
        E 43320 80 37 00
        e 53400 90 37 60
        e 38280 80 37 00
        e 58440 90 37 60
        e 40680 80 37 00
        e 45840 90 37 60
        e 45840 80 37 00
        e 43200 90 37 60
        e 43200 80 37 00
        e 40680 90 37 60
        e 45960 80 37 00
        e 50760 90 37 60
        e 43320 80 37 00
        E 117480 b0 7b 00
        CCINTERP 32
        CHASE_CC_TAKEOFFS 1
        GUID {278F4B24-1422-F948-B35C-EC7F5DEC8402}
        IGNTEMPO 0 120 4 4
        SRCCOLOR 9
        VELLANE -1 100 0
        CFGEDITVIEW -102891.508576 0.000393 61 12 0 -1 0 0 0 0.5
        KEYSNAP 0
        TRACKSEL 0
        EVTFILTER 0 -1 -1 -1 -1 0 0 0 0 -1 -1 -1 -1 0 -1 0 -1 -1
        CFGEDIT 1 1 0 1 0 0 1 1 1 1 1 0.125 0 59 1792 1095 0 0 0 0 0 0 0 0 0 0.5 0 0 1 64
      >
    >
    <ITEM
      POSITION 6144
      SNAPOFFS 0
      LENGTH 1792
      LOOP 1
      ALLTAKES 0
      FADEIN 1 0 0 1 0 0 0
      FADEOUT 1 0 0 1 0 0 0
      MUTE 0 0
      SEL 0
      IGUID {55D46083-BE6B-2A4A-A0F3-C1BC1BAFC656}
      IID 12
      NAME "untitled MIDI item"
      VOLPAN 1 0 1 -1
      SOFFS 1472 2944
      PLAYRATE 1 1 0 -1 0 0.0025
      CHANMODE 0
      GUID {42C7A6B7-ADEC-934E-9E79-CA04895C5A99}
      <SOURCE MIDI
        HASDATA 1 960 QN
        CCINTERP 32
        POOLEDEVTS {586B2799-387A-4546-A96C-37C302BB7F69}
        E 34560 90 37 60
        E 38280 80 37 00
        E 58440 90 37 60
        E 40680 80 37 00
        E 45840 90 37 60
        E 45840 80 37 00
        E 43200 90 37 60
        E 43200 80 37 00
        E 40680 90 37 60
        E 45960 80 37 00
        E 50760 90 37 60
        E 43320 80 37 00
        E 53400 90 37 60
        E 38280 80 37 00
        E 58440 90 37 60
        E 40680 80 37 00
        E 45840 90 37 60
        E 45840 80 37 00
        E 43200 90 37 60
        E 43200 80 37 00
        E 40680 90 37 60
        E 45960 80 37 00
        E 50760 90 37 60
        E 43320 80 37 00
        E 35640 90 37 60
        E 38280 80 37 00
        E 58440 90 37 60
        E 40680 80 37 00
        E 45840 90 37 60
        E 45840 80 37 00
        E 43200 90 37 60
        E 43200 80 37 00
        E 40680 90 37 60
        E 45960 80 37 00
        E 50760 90 37 60
        E 43320 80 37 00
        E 50760 90 37 60
        E 38280 80 37 00
        E 58440 90 37 60
        E 40680 80 37 00
        E 45840 90 37 60
        E 45840 80 37 00
        E 43200 90 37 60
        E 43200 80 37 00
        E 40680 90 37 60
        E 45960 80 37 00
        E 50760 90 37 60
        E 43320 80 37 00
        E 53400 90 37 60
        E 38280 80 37 00
        E 58440 90 37 60
        E 40680 80 37 00
        E 45840 90 37 60
        E 45840 80 37 00
        E 43200 90 37 60
        E 43200 80 37 00
        E 40680 90 37 60
        E 45960 80 37 00
        E 50760 90 37 60
        E 43320 80 37 00
        E 143520 90 37 60
        E 46560 80 37 00
        E 83160 90 37 60
        E 41760 80 37 00
        E 83040 90 37 60
        E 41640 80 37 00
        E 88080 90 37 60
        E 46560 80 37 00
        E 75840 90 37 60
        E 41760 80 37 00
        E 85440 90 37 60
        E 41640 80 37 00
        E 85560 90 37 60
        E 46560 80 37 00
        E 83160 90 37 60
        E 41760 80 37 00
        E 83040 90 37 60
        E 41640 80 37 00
        E 80640 90 37 60
        E 46560 80 37 00
        E 83160 90 37 60
        E 41760 80 37 00
        E 83040 90 37 60
        E 41640 80 37 00
        E 88080 90 37 60
        E 46560 80 37 00
        E 75840 90 37 60
        E 41760 80 37 00
        E 85440 90 37 60
        E 41640 80 37 00
        E 85560 90 37 60
        E 46560 80 37 00
        E 83160 90 37 60
        E 41760 80 37 00
        E 83040 90 37 60
        E 41640 80 37 00
        e 90360 90 37 60
        e 46560 80 37 00
        e 83160 90 37 60
        e 41760 80 37 00
        e 83040 90 37 60
        e 41640 80 37 00
        e 88080 90 37 60
        e 46560 80 37 00
        e 75840 90 37 60
        e 41760 80 37 00
        e 85440 90 37 60
        e 41640 80 37 00
        e 85560 90 37 60
        e 46560 80 37 00
        e 83160 90 37 60
        e 41760 80 37 00
        e 83040 90 37 60
        e 41640 80 37 00
        E 72000 b0 7b 00
        CCINTERP 32
        CHASE_CC_TAKEOFFS 1
        GUID {446E064D-FD70-3642-86C7-4B5512932D49}
        IGNTEMPO 0 120 4 4
        SRCCOLOR 10
        VELLANE -1 100 0
        CFGEDITVIEW 2727589.124217 0.000409 61 12 0 -1 0 0 0 0.5
        KEYSNAP 0
        TRACKSEL 0
        EVTFILTER 0 -1 -1 -1 -1 0 0 0 0 -1 -1 -1 -1 0 -1 0 -1 -1
        CFGEDIT 1 1 0 1 0 0 1 1 1 1 1 0.125 0 59 1792 1095 0 0 0 0 0 0 0 0 0 0.5 0 0 1 64
      >
    >
    <ITEM
      POSITION 8448
      SNAPOFFS 0
      LENGTH 11754.4375
      LOOP 1
      ALLTAKES 0
      FADEIN 1 0 0 1 0 0 0
      FADEOUT 1 0 0 1 0 0 0
      MUTE 0 0
      SEL 0
      IGUID {F11D8AF4-C1B7-1040-AE32-3F6253DB33F0}
      IID 15
      NAME "untitled MIDI item"
      VOLPAN 1 0 1 -1
      SOFFS 0 0
      PLAYRATE 1 1 0 -1 0 0.0025
      CHANMODE 0
      GUID {553F0D27-C351-044B-AACB-E747F4B083D8}
      <SOURCE MIDI
        HASDATA 1 960 QN
        CCINTERP 32
        POOLEDEVTS {A12F3989-AAEB-CD4D-81D5-B21D5C2A605D}
        E 324720 90 32 60
        E 862560 80 32 00
        E 914760 90 32 60
        E 836520 80 32 00
        E 940920 90 32 60
        E 810360 80 32 00
        E 940920 90 32 60
        E 836520 80 32 00
        E 940920 90 32 60
        E 862560 80 32 00
        E 888600 90 32 60
        E 888840 80 32 00
        E 862440 90 32 60
        E 967200 80 32 00
        E 862440 90 32 60
        E 836520 80 32 00
        E 914880 90 32 60
        E 862560 80 32 00
        E 1045440 90 32 60
        E 836520 80 32 00
        e 784080 90 32 60
        e 810360 80 32 00
        E 967080 90 32 60
        E 836520 80 32 00
        E 1934280 b0 7b 00
        CCINTERP 32
        CHASE_CC_TAKEOFFS 1
        GUID {7D8F2434-5B65-E646-9A28-9433835E582B}
        IGNTEMPO 0 120 4 4
        SRCCOLOR 13
        VELLANE -1 100 0
        CFGEDITVIEW -616250.215815 0.000038 61 12 0 -1 0 0 0 0.5
        KEYSNAP 0
        TRACKSEL 0
        EVTFILTER 0 -1 -1 -1 -1 0 0 0 0 -1 -1 -1 -1 0 -1 0 -1 -1
        CFGEDIT 1 1 0 1 0 0 1 1 1 1 1 0.125 16 74 1792 1095 0 0 0 0 0 0 0 0 0 0.5 0 0 1 64
      >
    >
    <ITEM
      POSITION 21760
      SNAPOFFS 0
      LENGTH 205568
      LOOP 1
      ALLTAKES 0
      FADEIN 1 0 0 1 0 0 0
      FADEOUT 1 0 0 1 0 0 0
      MUTE 0 0
      SEL 0
      IGUID {6131DE4E-1401-7643-B07C-E635F695EA01}
      IID 16
      NAME "untitled MIDI item"
      VOLPAN 1 0 1 -1
      SOFFS 0 0
      PLAYRATE 1 1 0 -1 0 0.0025
      CHANMODE 0
      GUID {6B8494F9-2341-0548-A081-8CDEC6F35581}
      <SOURCE MIDI
        HASDATA 1 960 QN
        CCINTERP 32
        POOLEDEVTS {1845D2C9-762F-9C46-837B-4066F009F3D0}
        E 2622840 90 2b 60
        E 3135000 90 28 60
        E 1710120 80 2b 00
        E 1710000 90 25 60
        E 1425120 80 28 00
        E 1614960 90 22 60
        E 2090160 80 25 00
        E 1234920 90 1f 60
        E 1615200 80 22 00
        E 2945040 80 1f 00
        E 1805040 90 33 60
        E 3515040 90 30 60
        E 3040080 90 35 60
        E 190080 80 33 00
        E 3135120 80 30 00
        E 3230160 80 35 00
        E 1710000 90 33 60
        E 3515040 90 30 60
        E 3040080 90 35 60
        E 190080 80 33 00
        E 3135120 80 30 00
        E 3230160 80 35 00
        E 4370040 90 33 60
        E 3515040 90 30 60
        E 3040080 90 35 60
        E 190080 80 33 00
        E 1994400 90 29 6a
        E 1140720 80 30 00
        E 2374320 90 26 6a
        E 855840 80 35 00
        E 1710000 90 33 60
        E 474240 90 2b 6a
        E 190080 80 29 00
        E 2850720 90 30 60
        E 284400 80 26 00
        E 2755680 90 35 60
        E 190080 80 33 00
        E 284400 80 2b 00
        E 1710000 90 29 6a
        E 95040 80 30 00
        E 0 80 35 00
        E 3420000 90 26 6a
        E 1615680 90 3a 60
        E 1424400 90 2b 6a
        E 190080 80 29 00
        E 1900560 90 37 60
        E 1234560 80 26 00
        E 1805520 90 3c 60
        E 190080 80 3a 00
        E 1234560 80 2b 00
        E 759840 90 30 6a
        E 1140720 80 37 00
        E 2374320 90 2d 6a
        E 855840 80 3c 00
        E 1710000 90 3a 60
        E 474240 90 32 6a
        E 190080 80 30 00
        E 2850720 90 37 60
        E 284400 80 2d 00
        E 2755680 90 3c 60
        E 190080 80 3a 00
        E 284400 80 32 00
        E 1710000 90 30 6a
        E 95040 80 37 00
        E 0 80 3c 00
        E 3420000 90 2d 6a
        E 3040080 90 32 6a
        E 190080 80 30 00
        E 524160 90 2a 60
        E 2610960 80 2d 00
        E 904080 90 27 60
        E 2326080 80 32 00
        E 714000 90 2c 60
        E 190080 80 2a 00
        E 1994400 90 20 6a
        E 1140720 80 27 00
        E 2374320 90 1d 6a
        E 855840 80 2c 00
        E 1710000 90 2a 60
        E 62160 90 39 60
        E 412080 90 22 6a
        E 190080 80 20 00
        E 2850720 90 27 60
        E 62160 90 36 60
        E 222240 80 1d 00
        E 2755680 90 2c 60
        E 62160 90 3b 60
        E 127920 80 2a 00
        E 62160 80 39 00
        E 222240 80 22 00
        E 1710000 90 20 6a
        E 62160 90 2f 6a
        E 32880 80 27 00
        E 0 80 2c 00
        E 1107840 80 36 00
        E 2312160 90 1d 6a
        E 62160 90 2c 6a
        E 855840 80 3b 00
        E 1710000 90 39 60
        E 412080 90 22 6a
        E 62160 90 31 6a
        E 127920 80 20 00
        E 62160 80 2f 00
        E 2850720 90 36 60
        E 222240 80 1d 00
        E 62160 80 2c 00
        E 2755680 90 3b 60
        E 190080 80 39 00
        E 222240 80 22 00
        E 62160 80 31 00
        E 1710000 90 2f 6a
        E 95040 80 36 00
        E 0 80 3b 00
        e 3420000 90 2c 6a
        E 3040080 90 31 6a
        E 190080 80 2f 00
        e 3135120 80 2c 00
        E 3230160 80 31 00
        E 13164000 90 2b 60
        E 3135000 90 28 60
        E 1710120 80 2b 00
        E 1710000 90 25 60
        E 1425120 80 28 00
        E 1614960 90 22 60
        E 2090160 80 25 00
        E 1234920 90 1f 60
        E 1615200 80 22 00
        E 2945040 80 1f 00
        E 2330160 90 1d 60
        E 3135000 90 1a 60
        E 1710120 80 1d 00
        E 1710000 90 17 60
        E 1425120 80 1a 00
        E 1614960 90 14 60
        E 2090160 80 17 00
        E 1234920 90 11 60
        E 1615200 80 14 00
        E 2945040 80 11 00
        E 9061920 90 24 60
        E 85542120 90 2b 60
        E 7245120 80 2b 00
        E 2754840 90 33 60
        E 7245120 80 33 00
        E 10000080 90 30 60
        E 7245120 80 30 00
        E 6109680 90 2b 60
        E 7245120 80 2b 00
        E 27598920 80 24 00
        E 8904480 b0 7b 00
        CCINTERP 32
        CHASE_CC_TAKEOFFS 1
        GUID {54F8EA3D-410E-2347-A904-3FE7058783AF}
        IGNTEMPO 0 120 4 4
        SRCCOLOR 14
        VELLANE -1 100 0
        CFGEDITVIEW 150542097.92015 0 61 12 0 -1 0 0 0 0.5
        KEYSNAP 0
        TRACKSEL 0
        EVTFILTER 0 -1 -1 -1 -1 0 0 0 0 -1 -1 -1 -1 0 -1 0 -1 -1
        CFGEDIT 1 1 0 1 0 1 1 1 1 1 1 0.125 16 74 1792 1095 0 0 0 0 0 0 0 0 0 0.5 0 0 1 64
      >
    >
  >
  <TRACK {D573FC56-93BF-6B48-9351-753760840804}
    NAME "Sampler 3 grna od c3"
    PEAKCOL 16576
    BEAT -1
    AUTOMODE 0
    VOLPAN 1 0 -1 -1 1
    MUTESOLO 0 2 0
    IPHASE 0
    PLAYOFFS 0 1
    ISBUS 0 0
    BUSCOMP 0 0 0 0 0
    SHOWINMIX 1 0.6667 0.5 1 0.5 0 -1 0
    FREEMODE 0
    SEL 0
    REC 1 5088 1 0 0 0 0
    VU 2
    TRACKHEIGHT 0 0 0 0 0 0
    INQ 0 0 0 0.5 100 0 0 100
    NCHAN 2
    FX 0
    TRACKID {D573FC56-93BF-6B48-9351-753760840804}
    PERF 0
    MIDIOUT 34
    MAINSEND 1 0
    <FXCHAIN
      WNDRECT 21 384 1032 679
      SHOW 0
      LASTSEL 0
      DOCKED 0
      BYPASS 0 0 0
      <AU "AUi: AUSampler (Apple)" "Apple: AUSampler" "" 1635085685 1935764848 1634758764
        6QMAAAAAAAAAAAAAAgAAAAEAAAAAAAAAAgAAAAAAAACZHQAAPD94bWwgdmVyc2lvbj0iMS4wIiBlbmNvZGluZz0iVVRGLTgiPz4KPCFET0NUWVBFIHBsaXN0IFBVQkxJ
        QyAiLS8vQXBwbGUvL0RURCBQTElTVCAxLjAvL0VOIiAiaHR0cDovL3d3dy5hcHBsZS5jb20vRFREcy9Qcm9wZXJ0eUxpc3QtMS4wLmR0ZCI+CjxwbGlzdCB2ZXJzaW9u
        PSIxLjAiPgo8ZGljdD4KCTxrZXk+QVUgdmVyc2lvbjwva2V5PgoJPHJlYWw+MTwvcmVhbD4KCTxrZXk+SW5zdHJ1bWVudDwva2V5PgoJPGRpY3Q+CgkJPGtleT5MYXll
        cnM8L2tleT4KCQk8YXJyYXk+CgkJCTxkaWN0PgoJCQkJPGtleT5BbXBsaWZpZXI8L2tleT4KCQkJCTxkaWN0PgoJCQkJCTxrZXk+SUQ8L2tleT4KCQkJCQk8aW50ZWdl
        cj4wPC9pbnRlZ2VyPgoJCQkJCTxrZXk+ZW5hYmxlZDwva2V5PgoJCQkJCTx0cnVlLz4KCQkJCTwvZGljdD4KCQkJCTxrZXk+Q29ubmVjdGlvbnM8L2tleT4KCQkJCTxh
        cnJheT4KCQkJCQk8ZGljdD4KCQkJCQkJPGtleT5JRDwva2V5PgoJCQkJCQk8aW50ZWdlcj4wPC9pbnRlZ2VyPgoJCQkJCQk8a2V5PmNvbnRyb2w8L2tleT4KCQkJCQkJ
        PGludGVnZXI+MDwvaW50ZWdlcj4KCQkJCQkJPGtleT5kZXN0aW5hdGlvbjwva2V5PgoJCQkJCQk8aW50ZWdlcj44MTY4NDA3MDQ8L2ludGVnZXI+CgkJCQkJCTxrZXk+
        ZW5hYmxlZDwva2V5PgoJCQkJCQk8dHJ1ZS8+CgkJCQkJCTxrZXk+aW52ZXJzZTwva2V5PgoJCQkJCQk8ZmFsc2UvPgoJCQkJCQk8a2V5PnNjYWxlPC9rZXk+CgkJCQkJ
        CTxyZWFsPjEyODAwPC9yZWFsPgoJCQkJCQk8a2V5PnNvdXJjZTwva2V5PgoJCQkJCQk8aW50ZWdlcj4zMDA8L2ludGVnZXI+CgkJCQkJCTxrZXk+dHJhbnNmb3JtPC9r
        ZXk+CgkJCQkJCTxpbnRlZ2VyPjE8L2ludGVnZXI+CgkJCQkJPC9kaWN0PgoJCQkJCTxkaWN0PgoJCQkJCQk8a2V5PklEPC9rZXk+CgkJCQkJCTxpbnRlZ2VyPjE8L2lu
        dGVnZXI+CgkJCQkJCTxrZXk+Y29udHJvbDwva2V5PgoJCQkJCQk8aW50ZWdlcj4wPC9pbnRlZ2VyPgoJCQkJCQk8a2V5PmRlc3RpbmF0aW9uPC9rZXk+CgkJCQkJCTxp
        bnRlZ2VyPjEzNDMyMjU4NTY8L2ludGVnZXI+CgkJCQkJCTxrZXk+ZW5hYmxlZDwva2V5PgoJCQkJCQk8dHJ1ZS8+CgkJCQkJCTxrZXk+aW52ZXJzZTwva2V5PgoJCQkJ
        CQk8dHJ1ZS8+CgkJCQkJCTxrZXk+c2NhbGU8L2tleT4KCQkJCQkJPHJlYWw+LTk2PC9yZWFsPgoJCQkJCQk8a2V5PnNvdXJjZTwva2V5PgoJCQkJCQk8aW50ZWdlcj4z
        MDE8L2ludGVnZXI+CgkJCQkJCTxrZXk+dHJhbnNmb3JtPC9rZXk+CgkJCQkJCTxpbnRlZ2VyPjI8L2ludGVnZXI+CgkJCQkJPC9kaWN0PgoJCQkJCTxkaWN0PgoJCQkJ
        CQk8a2V5PklEPC9rZXk+CgkJCQkJCTxpbnRlZ2VyPjI8L2ludGVnZXI+CgkJCQkJCTxrZXk+Y29udHJvbDwva2V5PgoJCQkJCQk8aW50ZWdlcj4wPC9pbnRlZ2VyPgoJ
        CQkJCQk8a2V5PmRlc3RpbmF0aW9uPC9rZXk+CgkJCQkJCTxpbnRlZ2VyPjEzNDMyMjU4NTY8L2ludGVnZXI+CgkJCQkJCTxrZXk+ZW5hYmxlZDwva2V5PgoJCQkJCQk8
        dHJ1ZS8+CgkJCQkJCTxrZXk+aW52ZXJzZTwva2V5PgoJCQkJCQk8dHJ1ZS8+CgkJCQkJCTxrZXk+c2NhbGU8L2tleT4KCQkJCQkJPHJlYWw+LTk2PC9yZWFsPgoJCQkJ
        CQk8a2V5PnNvdXJjZTwva2V5PgoJCQkJCQk8aW50ZWdlcj43PC9pbnRlZ2VyPgoJCQkJCQk8a2V5PnRyYW5zZm9ybTwva2V5PgoJCQkJCQk8aW50ZWdlcj4yPC9pbnRl
        Z2VyPgoJCQkJCTwvZGljdD4KCQkJCQk8ZGljdD4KCQkJCQkJPGtleT5JRDwva2V5PgoJCQkJCQk8aW50ZWdlcj4zPC9pbnRlZ2VyPgoJCQkJCQk8a2V5PmNvbnRyb2w8
        L2tleT4KCQkJCQkJPGludGVnZXI+MDwvaW50ZWdlcj4KCQkJCQkJPGtleT5kZXN0aW5hdGlvbjwva2V5PgoJCQkJCQk8aW50ZWdlcj4xMzQzMjI1ODU2PC9pbnRlZ2Vy
        PgoJCQkJCQk8a2V5PmVuYWJsZWQ8L2tleT4KCQkJCQkJPHRydWUvPgoJCQkJCQk8a2V5PmludmVyc2U8L2tleT4KCQkJCQkJPHRydWUvPgoJCQkJCQk8a2V5PnNjYWxl
        PC9rZXk+CgkJCQkJCTxyZWFsPi05NjwvcmVhbD4KCQkJCQkJPGtleT5zb3VyY2U8L2tleT4KCQkJCQkJPGludGVnZXI+MTE8L2ludGVnZXI+CgkJCQkJCTxrZXk+dHJh
        bnNmb3JtPC9rZXk+CgkJCQkJCTxpbnRlZ2VyPjI8L2ludGVnZXI+CgkJCQkJPC9kaWN0PgoJCQkJCTxkaWN0PgoJCQkJCQk8a2V5PklEPC9rZXk+CgkJCQkJCTxpbnRl
        Z2VyPjQ8L2ludGVnZXI+CgkJCQkJCTxrZXk+Y29udHJvbDwva2V5PgoJCQkJCQk8aW50ZWdlcj4wPC9pbnRlZ2VyPgoJCQkJCQk8a2V5PmRlc3RpbmF0aW9uPC9rZXk+
        CgkJCQkJCTxpbnRlZ2VyPjEzNDQyNzQ0MzI8L2ludGVnZXI+CgkJCQkJCTxrZXk+ZW5hYmxlZDwva2V5PgoJCQkJCQk8dHJ1ZS8+CgkJCQkJCTxrZXk+aW52ZXJzZTwv
        a2V5PgoJCQkJCQk8ZmFsc2UvPgoJCQkJCQk8a2V5Pm1heCB2YWx1ZTwva2V5PgoJCQkJCQk8cmVhbD4wLjUwODAwMDAxNjIxMjQ2MzM4PC9yZWFsPgoJCQkJCQk8a2V5
        Pm1pbiB2YWx1ZTwva2V5PgoJCQkJCQk8cmVhbD4tMC41MDgwMDAwMTYyMTI0NjMzODwvcmVhbD4KCQkJCQkJPGtleT5zb3VyY2U8L2tleT4KCQkJCQkJPGludGVnZXI+
        MTA8L2ludGVnZXI+CgkJCQkJCTxrZXk+dHJhbnNmb3JtPC9rZXk+CgkJCQkJCTxpbnRlZ2VyPjE8L2ludGVnZXI+CgkJCQkJPC9kaWN0PgoJCQkJCTxkaWN0PgoJCQkJ
        CQk8a2V5PklEPC9rZXk+CgkJCQkJCTxpbnRlZ2VyPjc8L2ludGVnZXI+CgkJCQkJCTxrZXk+Y29udHJvbDwva2V5PgoJCQkJCQk8aW50ZWdlcj4yNDE8L2ludGVnZXI+
        CgkJCQkJCTxrZXk+ZGVzdGluYXRpb248L2tleT4KCQkJCQkJPGludGVnZXI+ODE2ODQwNzA0PC9pbnRlZ2VyPgoJCQkJCQk8a2V5PmVuYWJsZWQ8L2tleT4KCQkJCQkJ
        PHRydWUvPgoJCQkJCQk8a2V5PmludmVyc2U8L2tleT4KCQkJCQkJPGZhbHNlLz4KCQkJCQkJPGtleT5tYXggdmFsdWU8L2tleT4KCQkJCQkJPHJlYWw+MTI4MDA8L3Jl
        YWw+CgkJCQkJCTxrZXk+bWluIHZhbHVlPC9rZXk+CgkJCQkJCTxyZWFsPi0xMjgwMDwvcmVhbD4KCQkJCQkJPGtleT5zb3VyY2U8L2tleT4KCQkJCQkJPGludGVnZXI+
        MjI0PC9pbnRlZ2VyPgoJCQkJCQk8a2V5PnRyYW5zZm9ybTwva2V5PgoJCQkJCQk8aW50ZWdlcj4xPC9pbnRlZ2VyPgoJCQkJCTwvZGljdD4KCQkJCQk8ZGljdD4KCQkJ
        CQkJPGtleT5JRDwva2V5PgoJCQkJCQk8aW50ZWdlcj44PC9pbnRlZ2VyPgoJCQkJCQk8a2V5PmNvbnRyb2w8L2tleT4KCQkJCQkJPGludGVnZXI+MDwvaW50ZWdlcj4K
        CQkJCQkJPGtleT5kZXN0aW5hdGlvbjwva2V5PgoJCQkJCQk8aW50ZWdlcj44MTY4NDA3MDQ8L2ludGVnZXI+CgkJCQkJCTxrZXk+ZW5hYmxlZDwva2V5PgoJCQkJCQk8
        dHJ1ZS8+CgkJCQkJCTxrZXk+aW52ZXJzZTwva2V5PgoJCQkJCQk8ZmFsc2UvPgoJCQkJCQk8a2V5Pm1heCB2YWx1ZTwva2V5PgoJCQkJCQk8cmVhbD4xMDA8L3JlYWw+
        CgkJCQkJCTxrZXk+bWluIHZhbHVlPC9rZXk+CgkJCQkJCTxyZWFsPi0xMDA8L3JlYWw+CgkJCQkJCTxrZXk+c291cmNlPC9rZXk+CgkJCQkJCTxpbnRlZ2VyPjI0Mjwv
        aW50ZWdlcj4KCQkJCQkJPGtleT50cmFuc2Zvcm08L2tleT4KCQkJCQkJPGludGVnZXI+MTwvaW50ZWdlcj4KCQkJCQk8L2RpY3Q+CgkJCQkJPGRpY3Q+CgkJCQkJCTxr
        ZXk+SUQ8L2tleT4KCQkJCQkJPGludGVnZXI+NjwvaW50ZWdlcj4KCQkJCQkJPGtleT5jb250cm9sPC9rZXk+CgkJCQkJCTxpbnRlZ2VyPjE8L2ludGVnZXI+CgkJCQkJ
        CTxrZXk+ZGVzdGluYXRpb248L2tleT4KCQkJCQkJPGludGVnZXI+ODE2ODQwNzA0PC9pbnRlZ2VyPgoJCQkJCQk8a2V5PmVuYWJsZWQ8L2tleT4KCQkJCQkJPHRydWUv
        PgoJCQkJCQk8a2V5PmludmVyc2U8L2tleT4KCQkJCQkJPGZhbHNlLz4KCQkJCQkJPGtleT5tYXggdmFsdWU8L2tleT4KCQkJCQkJPHJlYWw+NTA8L3JlYWw+CgkJCQkJ
        CTxrZXk+bWluIHZhbHVlPC9rZXk+CgkJCQkJCTxyZWFsPi01MDwvcmVhbD4KCQkJCQkJPGtleT5zb3VyY2U8L2tleT4KCQkJCQkJPGludGVnZXI+MjY4NDM1NDU2PC9p
        bnRlZ2VyPgoJCQkJCQk8a2V5PnRyYW5zZm9ybTwva2V5PgoJCQkJCQk8aW50ZWdlcj4xPC9pbnRlZ2VyPgoJCQkJCTwvZGljdD4KCQkJCQk8ZGljdD4KCQkJCQkJPGtl
        eT5JRDwva2V5PgoJCQkJCQk8aW50ZWdlcj41PC9pbnRlZ2VyPgoJCQkJCQk8a2V5PmNvbnRyb2w8L2tleT4KCQkJCQkJPGludGVnZXI+MDwvaW50ZWdlcj4KCQkJCQkJ
        PGtleT5kZXN0aW5hdGlvbjwva2V5PgoJCQkJCQk8aW50ZWdlcj4xMzQzMjI1ODU2PC9pbnRlZ2VyPgoJCQkJCQk8a2V5PmVuYWJsZWQ8L2tleT4KCQkJCQkJPHRydWUv
        PgoJCQkJCQk8a2V5PmludmVyc2U8L2tleT4KCQkJCQkJPHRydWUvPgoJCQkJCQk8a2V5PnNjYWxlPC9rZXk+CgkJCQkJCTxyZWFsPi05NjwvcmVhbD4KCQkJCQkJPGtl
        eT5zb3VyY2U8L2tleT4KCQkJCQkJPGludGVnZXI+NTM2ODcwOTEyPC9pbnRlZ2VyPgoJCQkJCQk8a2V5PnRyYW5zZm9ybTwva2V5PgoJCQkJCQk8aW50ZWdlcj4xPC9p
        bnRlZ2VyPgoJCQkJCTwvZGljdD4KCQkJCTwvYXJyYXk+CgkJCQk8a2V5PkVudmVsb3Blczwva2V5PgoJCQkJPGFycmF5PgoJCQkJCTxkaWN0PgoJCQkJCQk8a2V5PklE
        PC9rZXk+CgkJCQkJCTxpbnRlZ2VyPjA8L2ludGVnZXI+CgkJCQkJCTxrZXk+U3RhZ2VzPC9rZXk+CgkJCQkJCTxhcnJheT4KCQkJCQkJCTxkaWN0PgoJCQkJCQkJCTxr
        ZXk+Y3VydmU8L2tleT4KCQkJCQkJCQk8aW50ZWdlcj4yMDwvaW50ZWdlcj4KCQkJCQkJCQk8a2V5PnN0YWdlPC9rZXk+CgkJCQkJCQkJPGludGVnZXI+MDwvaW50ZWdl
        cj4KCQkJCQkJCQk8a2V5PnRpbWU8L2tleT4KCQkJCQkJCQk8cmVhbD4wLjA8L3JlYWw+CgkJCQkJCQk8L2RpY3Q+CgkJCQkJCQk8ZGljdD4KCQkJCQkJCQk8a2V5PmN1
        cnZlPC9rZXk+CgkJCQkJCQkJPGludGVnZXI+MjI8L2ludGVnZXI+CgkJCQkJCQkJPGtleT5zdGFnZTwva2V5PgoJCQkJCQkJCTxpbnRlZ2VyPjE8L2ludGVnZXI+CgkJ
        CQkJCQkJPGtleT50aW1lPC9rZXk+CgkJCQkJCQkJPHJlYWw+MC4wPC9yZWFsPgoJCQkJCQkJPC9kaWN0PgoJCQkJCQkJPGRpY3Q+CgkJCQkJCQkJPGtleT5jdXJ2ZTwv
        a2V5PgoJCQkJCQkJCTxpbnRlZ2VyPjIwPC9pbnRlZ2VyPgoJCQkJCQkJCTxrZXk+c3RhZ2U8L2tleT4KCQkJCQkJCQk8aW50ZWdlcj4yPC9pbnRlZ2VyPgoJCQkJCQkJ
        CTxrZXk+dGltZTwva2V5PgoJCQkJCQkJCTxyZWFsPjAuMDwvcmVhbD4KCQkJCQkJCTwvZGljdD4KCQkJCQkJCTxkaWN0PgoJCQkJCQkJCTxrZXk+Y3VydmU8L2tleT4K
        CQkJCQkJCQk8aW50ZWdlcj4yMDwvaW50ZWdlcj4KCQkJCQkJCQk8a2V5PnN0YWdlPC9rZXk+CgkJCQkJCQkJPGludGVnZXI+MzwvaW50ZWdlcj4KCQkJCQkJCQk8a2V5
        PnRpbWU8L2tleT4KCQkJCQkJCQk8cmVhbD4wLjA8L3JlYWw+CgkJCQkJCQk8L2RpY3Q+CgkJCQkJCQk8ZGljdD4KCQkJCQkJCQk8a2V5PmxldmVsPC9rZXk+CgkJCQkJ
        CQkJPHJlYWw+MTwvcmVhbD4KCQkJCQkJCQk8a2V5PnN0YWdlPC9rZXk+CgkJCQkJCQkJPGludGVnZXI+NDwvaW50ZWdlcj4KCQkJCQkJCTwvZGljdD4KCQkJCQkJCTxk
        aWN0PgoJCQkJCQkJCTxrZXk+Y3VydmU8L2tleT4KCQkJCQkJCQk8aW50ZWdlcj4yMDwvaW50ZWdlcj4KCQkJCQkJCQk8a2V5PnN0YWdlPC9rZXk+CgkJCQkJCQkJPGlu
        dGVnZXI+NTwvaW50ZWdlcj4KCQkJCQkJCQk8a2V5PnRpbWU8L2tleT4KCQkJCQkJCQk8cmVhbD4wLjA8L3JlYWw+CgkJCQkJCQk8L2RpY3Q+CgkJCQkJCQk8ZGljdD4K
        CQkJCQkJCQk8a2V5PmN1cnZlPC9rZXk+CgkJCQkJCQkJPGludGVnZXI+MjA8L2ludGVnZXI+CgkJCQkJCQkJPGtleT5zdGFnZTwva2V5PgoJCQkJCQkJCTxpbnRlZ2Vy
        PjY8L2ludGVnZXI+CgkJCQkJCQkJPGtleT50aW1lPC9rZXk+CgkJCQkJCQkJPHJlYWw+MC4wMDQ5OTk5OTk4ODgyNDEyOTE8L3JlYWw+CgkJCQkJCQk8L2RpY3Q+CgkJ
        CQkJCTwvYXJyYXk+CgkJCQkJCTxrZXk+ZW5hYmxlZDwva2V5PgoJCQkJCQk8dHJ1ZS8+CgkJCQkJPC9kaWN0PgoJCQkJPC9hcnJheT4KCQkJCTxrZXk+RmlsdGVyczwv
        a2V5PgoJCQkJPGRpY3Q+CgkJCQkJPGtleT5JRDwva2V5PgoJCQkJCTxpbnRlZ2VyPjA8L2ludGVnZXI+CgkJCQkJPGtleT5jdXRvZmY8L2tleT4KCQkJCQk8cmVhbD4y
        MDAwMDwvcmVhbD4KCQkJCQk8a2V5PmVuYWJsZWQ8L2tleT4KCQkJCQk8ZmFsc2UvPgoJCQkJCTxrZXk+cmVzb25hbmNlPC9rZXk+CgkJCQkJPHJlYWw+LTM8L3JlYWw+
        CgkJCQk8L2RpY3Q+CgkJCQk8a2V5PklEPC9rZXk+CgkJCQk8aW50ZWdlcj4wPC9pbnRlZ2VyPgoJCQkJPGtleT5MRk9zPC9rZXk+CgkJCQk8YXJyYXk+CgkJCQkJPGRp
        Y3Q+CgkJCQkJCTxrZXk+SUQ8L2tleT4KCQkJCQkJPGludGVnZXI+MDwvaW50ZWdlcj4KCQkJCQkJPGtleT5lbmFibGVkPC9rZXk+CgkJCQkJCTx0cnVlLz4KCQkJCQk8
        L2RpY3Q+CgkJCQk8L2FycmF5PgoJCQkJPGtleT5Pc2NpbGxhdG9yPC9rZXk+CgkJCQk8ZGljdD4KCQkJCQk8a2V5PklEPC9rZXk+CgkJCQkJPGludGVnZXI+MDwvaW50
        ZWdlcj4KCQkJCQk8a2V5PmVuYWJsZWQ8L2tleT4KCQkJCQk8dHJ1ZS8+CgkJCQk8L2RpY3Q+CgkJCQk8a2V5PlpvbmVzPC9rZXk+CgkJCQk8YXJyYXk+CgkJCQkJPGRp
        Y3Q+CgkJCQkJCTxrZXk+SUQ8L2tleT4KCQkJCQkJPGludGVnZXI+MDwvaW50ZWdlcj4KCQkJCQkJPGtleT5lbmFibGVkPC9rZXk+CgkJCQkJCTx0cnVlLz4KCQkJCQkJ
        PGtleT5sb29wIGVuYWJsZWQ8L2tleT4KCQkJCQkJPHRydWUvPgoJCQkJCQk8a2V5PnJvb3Qga2V5PC9rZXk+CgkJCQkJCTxpbnRlZ2VyPjY5PC9pbnRlZ2VyPgoJCQkJ
        CQk8a2V5PndhdmVmb3JtPC9rZXk+CgkJCQkJCTxpbnRlZ2VyPi0yPC9pbnRlZ2VyPgoJCQkJCTwvZGljdD4KCQkJCTwvYXJyYXk+CgkJCTwvZGljdD4KCQk8L2FycmF5
        PgoJCTxrZXk+bmFtZTwva2V5PgoJCTxzdHJpbmc+RGVmYXVsdCBJbnN0cnVtZW50PC9zdHJpbmc+Cgk8L2RpY3Q+Cgk8a2V5PmNvYXJzZSB0dW5lPC9rZXk+Cgk8aW50
        ZWdlcj4wPC9pbnRlZ2VyPgoJPGtleT5kYXRhPC9rZXk+Cgk8ZGF0YT4KCUFBQUFBQUFBQUFBQUFBQUVBQUFEaEFBQUFBQUFBQU9GQUFBQUFBQUFBNFlBQUFBQUFBQURo
        d0FBQUFBPQoJPC9kYXRhPgoJPGtleT5maWxlLXJlZmVyZW5jZXM8L2tleT4KCTxkaWN0Lz4KCTxrZXk+ZmluZSB0dW5lPC9rZXk+Cgk8cmVhbD4wLjA8L3JlYWw+Cgk8
        a2V5PmdhaW48L2tleT4KCTxyZWFsPjAuMDwvcmVhbD4KCTxrZXk+bWFudWZhY3R1cmVyPC9rZXk+Cgk8aW50ZWdlcj4xNjM0NzU4NzY0PC9pbnRlZ2VyPgoJPGtleT5u
        YW1lPC9rZXk+Cgk8c3RyaW5nPlVudGl0bGVkPC9zdHJpbmc+Cgk8a2V5Pm91dHB1dDwva2V5PgoJPGludGVnZXI+MDwvaW50ZWdlcj4KCTxrZXk+cGFuPC9rZXk+Cgk8
        cmVhbD4wLjA8L3JlYWw+Cgk8a2V5PnN1YnR5cGU8L2tleT4KCTxpbnRlZ2VyPjE5MzU3NjQ4NDg8L2ludGVnZXI+Cgk8a2V5PnR5cGU8L2tleT4KCTxpbnRlZ2VyPjE2
        MzUwODU2ODU8L2ludGVnZXI+Cgk8a2V5PnZlcnNpb248L2tleT4KCTxpbnRlZ2VyPjA8L2ludGVnZXI+Cgk8a2V5PnZvaWNlIGNvdW50PC9rZXk+Cgk8aW50ZWdlcj42
        NDwvaW50ZWdlcj4KPC9kaWN0Pgo8L3BsaXN0PgoBAAAAAAAAAAAA
      >
      FLOATPOS 0 0 0 0
      FXID {E4EB26EE-4BF1-C140-96C0-1A8104507EBF}
      WAK 0 0
    >
    <ITEM
      POSITION 0
      SNAPOFFS 0
      LENGTH 2400
      LOOP 1
      ALLTAKES 0
      FADEIN 1 0 0 1 0 0 0
      FADEOUT 1 0 0 1 0 0 0
      MUTE 0 0
      SEL 0
      IGUID {7EED8FB5-9BBD-EE49-A998-A0BE661C41FD}
      IID 1
      NAME "untitled MIDI item"
      VOLPAN 1 0 1 -1
      SOFFS 0 0
      PLAYRATE 1 1 0 -1 0 0.0025
      CHANMODE 0
      GUID {0300DB4C-7948-384E-877D-791E10FEF22C}
      <SOURCE MIDI
        HASDATA 1 960 QN
        CCINTERP 32
        POOLEDEVTS {73C0728F-3C54-7B48-A8C5-781821F8467F}
        E 0 90 30 7f
        E 120 80 30 00
        E 0 90 30 7f
        E 120 80 30 00
        E 240 90 30 7f
        E 120 80 30 00
        E 0 90 30 7f
        E 120 80 30 00
        E 240 90 30 7f
        E 120 80 30 00
        E 0 90 30 7f
        E 120 80 30 00
        E 240 90 30 7f
        E 120 80 30 00
        E 0 90 30 7f
        E 120 80 30 00
        E 240 90 30 7f
        E 120 80 30 00
        E 0 90 30 7f
        E 120 80 30 00
        E 240 90 30 7f
        E 120 80 30 00
        E 0 90 30 7f
        E 120 80 30 00
        E 240 90 30 7f
        E 120 80 30 00
        E 0 90 30 7f
        E 120 80 30 00
        E 240 90 30 7f
        E 120 80 30 00
        E 0 90 30 7f
        E 120 80 30 00
        E 240 90 30 7f
        E 120 80 30 00
        E 0 90 30 7f
        E 120 80 30 00
        E 240 90 30 7f
        E 120 80 30 00
        E 0 90 30 7f
        E 120 80 30 00
        E 720 90 30 7f
        E 120 80 30 00
        E 0 90 30 7f
        E 120 80 30 00
        E 240 90 30 7f
        E 120 80 30 00
        E 0 90 30 7f
        E 120 80 30 00
        E 240 90 30 7f
        E 120 80 30 00
        E 0 90 30 7f
        E 120 80 30 00
        E 240 90 30 7f
        E 120 80 30 00
        E 0 90 30 7f
        E 120 80 30 00
        E 240 90 30 7f
        E 120 80 30 00
        E 0 90 30 7f
        E 120 80 30 00
        E 240 90 30 7f
        E 120 80 30 00
        E 0 90 30 7f
        E 120 80 30 00
        E 720 90 30 7f
        E 120 80 30 00
        E 0 90 30 7f
        E 120 80 30 00
        E 240 90 30 7f
        E 120 80 30 00
        E 0 90 30 7f
        E 120 80 30 00
        E 240 90 30 7f
        E 120 80 30 00
        E 0 90 30 7f
        E 120 80 30 00
        E 240 90 30 7f
        E 120 80 30 00
        E 0 90 30 7f
        E 120 80 30 00
        E 240 90 30 7f
        E 120 80 30 00
        E 0 90 30 7f
        E 120 80 30 00
        E 240 90 30 7f
        E 120 80 30 00
        E 0 90 30 7f
        E 120 80 30 00
        E 240 90 30 7f
        E 120 80 30 00
        E 0 90 30 7f
        E 120 80 30 00
        E 240 90 30 7f
        E 120 80 30 00
        E 0 90 30 7f
        E 120 80 30 00
        E 240 90 30 7f
        E 120 80 30 00
        E 0 90 30 7f
        E 120 80 30 00
        E 240 90 30 7f
        E 120 80 30 00
        E 0 90 30 7f
        E 120 80 30 00
        E 240 90 30 7f
        E 120 80 30 00
        E 0 90 30 7f
        E 120 80 30 00
        E 240 90 30 7f
        E 120 80 30 00
        E 0 90 30 7f
        E 120 80 30 00
        E 240 90 30 7f
        E 120 80 30 00
        E 0 90 30 7f
        E 120 80 30 00
        E 240 90 30 7f
        E 120 80 30 00
        E 0 90 30 7f
        E 120 80 30 00
        E 240 90 30 7f
        E 120 80 30 00
        E 0 90 30 7f
        E 120 80 30 00
        E 240 90 30 7f
        E 120 80 30 00
        E 0 90 30 7f
        E 120 80 30 00
        E 240 90 30 7f
        E 120 80 30 00
        E 0 90 30 7f
        E 120 80 30 00
        E 240 90 30 7f
        E 120 80 30 00
        E 0 90 30 7f
        E 120 80 30 00
        E 240 90 30 7f
        E 120 80 30 00
        E 0 90 30 7f
        E 120 80 30 00
        E 240 90 30 7f
        E 120 80 30 00
        E 0 90 30 7f
        E 120 80 30 00
        E 240 90 30 7f
        E 120 80 30 00
        E 0 90 30 7f
        E 120 80 30 00
        E 240 90 30 7f
        E 120 80 30 00
        E 0 90 30 7f
        E 120 80 30 00
        E 240 90 30 7f
        E 120 80 30 00
        E 0 90 30 7f
        E 120 80 30 00
        E 240 90 30 7f
        E 120 80 30 00
        E 0 90 30 7f
        E 120 80 30 00
        E 240 90 30 7f
        E 120 80 30 00
        E 0 90 30 7f
        E 120 80 30 00
        E 240 90 30 7f
        E 120 80 30 00
        E 0 90 30 7f
        E 120 80 30 00
        E 240 90 30 7f
        E 120 80 30 00
        E 0 90 30 7f
        E 120 80 30 00
        E 240 90 30 7f
        E 120 80 30 00
        E 0 90 30 7f
        E 120 80 30 00
        E 240 90 30 7f
        E 120 80 30 00
        E 0 90 30 7f
        E 120 80 30 00
        E 240 90 30 7f
        E 120 80 30 00
        E 0 90 30 7f
        E 120 80 30 00
        E 240 90 30 7f
        E 120 80 30 00
        E 0 90 30 7f
        E 120 80 30 00
        E 240 90 30 7f
        E 120 80 30 00
        E 0 90 30 7f
        E 120 80 30 00
        E 240 90 30 7f
        E 120 80 30 00
        E 0 90 30 7f
        E 120 80 30 00
        E 240 90 31 7f
        E 120 80 31 00
        E 120 90 31 7f
        E 120 80 31 00
        E 0 90 30 7f
        E 120 80 30 00
        E 0 90 30 7f
        E 120 80 30 00
        E 120 90 31 7f
        E 120 80 31 00
        E 0 90 31 7f
        E 120 80 31 00
        E 0 90 31 7f
        E 120 80 31 00
        E 0 90 31 7f
        E 120 80 31 00
        E 0 90 31 7f
        E 120 80 31 00
        E 0 90 31 7f
        E 120 80 31 00
        E 0 90 31 7f
        E 120 80 31 00
        E 0 90 34 7f
        E 0 90 31 7f
        E 120 80 34 00
        E 0 80 31 00
        E 0 90 31 7f
        E 120 80 31 00
        E 0 90 34 7f
        E 0 90 31 7f
        E 120 80 34 00
        E 0 80 31 00
        E 0 90 31 7f
        E 120 80 31 00
        E 0 90 34 7f
        E 0 90 31 7f
        E 120 80 34 00
        E 0 80 31 00
        E 0 90 31 7f
        E 120 80 31 00
        E 0 90 34 7f
        E 0 90 31 7f
        E 120 80 34 00
        E 0 80 31 00
        E 0 90 31 7f
        E 120 80 31 00
        E 0 90 31 7f
        E 120 80 31 00
        E 0 90 31 7f
        E 120 80 31 00
        E 0 90 31 7f
        E 120 80 31 00
        E 0 90 31 7f
        E 120 80 31 00
        E 0 90 31 7f
        E 120 80 31 00
        E 0 90 31 7f
        E 120 80 31 00
        E 0 90 31 7f
        E 120 80 31 00
        E 0 90 34 7f
        E 120 80 34 00
        E 120 90 34 7f
        E 120 80 34 00
        E 120 90 34 7f
        E 120 80 34 00
        E 120 90 34 7f
        E 120 80 34 00
        E 120 90 30 7f
        E 120 80 30 00
        E 0 90 30 7f
        E 120 80 30 00
        E 240 90 30 7f
        E 120 80 30 00
        E 0 90 30 7f
        E 120 80 30 00
        E 240 90 30 7f
        E 120 80 30 00
        E 0 90 30 7f
        E 120 80 30 00
        E 240 90 30 7f
        E 120 80 30 00
        E 0 90 30 7f
        E 120 80 30 00
        E 240 90 30 7f
        E 120 80 30 00
        E 0 90 30 7f
        E 120 80 30 00
        E 240 90 30 7f
        E 120 80 30 00
        E 0 90 30 7f
        E 120 80 30 00
        E 0 90 32 7f
        E 120 80 32 00
        E 120 90 30 7f
        E 0 90 32 7f
        E 120 80 30 00
        E 0 80 32 00
        E 0 90 30 7f
        E 120 80 30 00
        E 0 90 32 7f
        E 120 80 32 00
        E 120 90 30 7f
        E 0 90 32 7f
        E 120 80 30 00
        E 0 80 32 00
        E 0 90 30 7f
        E 120 80 30 00
        E 0 90 32 7f
        E 120 80 32 00
        E 120 90 30 7f
        E 0 90 32 7f
        E 120 80 30 00
        E 0 80 32 00
        E 0 90 30 7f
        E 120 80 30 00
        E 0 90 32 7f
        E 120 80 32 00
        E 120 90 30 7f
        E 0 90 32 7f
        E 120 80 30 00
        E 0 80 32 00
        E 0 90 30 7f
        E 120 80 30 00
        E 0 90 32 7f
        E 120 80 32 00
        E 120 90 30 7f
        E 0 90 32 7f
        E 120 80 30 00
        E 0 80 32 00
        E 0 90 30 7f
        E 120 80 30 00
        E 0 90 32 7f
        E 120 80 32 00
        E 120 90 30 7f
        E 0 90 32 7f
        E 120 80 30 00
        E 0 80 32 00
        E 0 90 30 7f
        E 120 80 30 00
        E 0 90 32 7f
        E 120 80 32 00
        E 120 90 30 7f
        E 0 90 32 7f
        E 120 80 30 00
        E 0 80 32 00
        E 0 90 30 7f
        E 120 80 30 00
        E 0 90 32 7f
        E 120 80 32 00
        E 120 90 30 7f
        E 0 90 32 7f
        E 120 80 30 00
        E 0 80 32 00
        E 0 90 30 7f
        E 120 80 30 00
        E 0 90 32 7f
        E 120 80 32 00
        E 120 90 30 7f
        E 0 90 32 7f
        E 120 80 30 00
        E 0 80 32 00
        E 0 90 30 7f
        E 120 80 30 00
        E 0 90 32 7f
        E 120 80 32 00
        E 120 90 30 7f
        E 0 90 32 7f
        E 120 80 30 00
        E 0 80 32 00
        E 0 90 30 7f
        E 120 80 30 00
        E 0 90 32 7f
        E 120 80 32 00
        E 120 90 30 7f
        E 0 90 32 7f
        E 120 80 30 00
        E 0 80 32 00
        E 0 90 30 7f
        E 120 80 30 00
        E 0 90 32 7f
        E 120 80 32 00
        E 120 90 30 7f
        E 0 90 32 7f
        E 120 80 30 00
        E 0 80 32 00
        E 0 90 30 7f
        E 120 80 30 00
        E 0 90 31 7f
        E 240 80 31 00
        E 0 90 30 7f
        E 120 80 30 00
        E 0 90 30 7f
        E 120 80 30 00
        E 0 90 31 7f
        E 240 80 31 00
        E 0 90 30 7f
        E 120 80 30 00
        E 0 90 30 7f
        E 120 80 30 00
        E 0 90 31 7f
        E 240 80 31 00
        E 0 90 30 7f
        E 120 80 30 00
        E 0 90 30 7f
        E 120 80 30 00
        E 0 90 31 7f
        E 240 80 31 00
        E 0 90 30 7f
        E 0 90 32 7f
        E 120 80 30 00
        E 0 80 32 00
        E 0 90 30 7f
        E 120 80 30 00
        E 0 90 32 7f
        E 120 80 32 00
        E 120 90 30 7f
        E 0 90 32 7f
        E 120 80 30 00
        E 0 80 32 00
        E 0 90 30 7f
        E 120 80 30 00
        E 0 90 32 7f
        E 120 80 32 00
        E 120 90 30 7f
        E 0 90 32 7f
        E 120 80 30 00
        E 0 80 32 00
        E 0 90 30 7f
        E 120 80 30 00
        E 0 90 32 7f
        E 120 80 32 00
        E 120 90 32 7f
        E 0 90 30 7f
        E 120 80 32 00
        E 0 80 30 00
        E 0 90 30 7f
        E 120 80 30 00
        E 0 90 31 7f
        E 0 90 32 7f
        E 120 80 32 00
        E 120 80 31 00
        E 0 90 32 7f
        E 0 90 30 7f
        E 120 80 32 00
        E 0 80 30 00
        E 0 90 30 7f
        E 120 80 30 00
        E 0 90 31 7f
        E 120 90 32 7f
        E 120 80 31 00
        E 0 80 32 00
        E 0 90 30 7f
        E 120 80 30 00
        E 0 90 30 7f
        E 120 80 30 00
        E 0 90 31 7f
        E 120 90 32 7f
        E 120 80 31 00
        E 0 80 32 00
        E 0 90 30 7f
        E 120 80 30 00
        E 0 90 30 7f
        E 120 80 30 00
        E 0 90 31 7f
        E 0 90 30 7f
        E 0 90 34 7f
        E 120 80 30 00
        E 0 90 30 7f
        E 120 80 31 00
        E 0 80 30 00
        E 0 90 32 7f
        E 0 90 30 7f
        E 120 80 32 00
        E 0 80 30 00
        E 0 90 30 7f
        E 120 80 30 00
        E 0 90 30 7f
        E 0 90 32 7f
        E 120 80 30 00
        E 0 80 32 00
        E 0 90 30 7f
        E 120 80 34 00
        E 0 80 30 00
        E 0 90 30 7f
        E 0 90 32 7f
        E 120 80 30 00
        E 0 80 32 00
        E 0 90 30 7f
        E 120 80 30 00
        E 0 90 30 7f
        E 0 90 32 7f
        E 120 80 30 00
        E 0 80 32 00
        E 0 90 30 7f
        E 120 80 30 00
        E 0 90 32 7f
        E 0 90 34 7f
        E 0 90 30 7f
        E 120 80 32 00
        E 0 80 30 00
        E 0 90 30 7f
        E 120 80 30 00
        E 0 90 32 7f
        E 0 90 30 7f
        E 120 80 32 00
        E 0 80 30 00
        E 0 90 30 7f
        E 120 80 30 00
        E 0 90 32 7f
        E 0 90 30 7f
        E 120 80 32 00
        E 0 80 30 00
        E 0 90 30 7f
        E 120 80 34 00
        E 0 80 30 00
        E 0 90 32 7f
        E 0 90 30 7f
        E 120 80 32 00
        E 0 80 30 00
        E 0 90 30 7f
        E 120 80 30 00
        E 0 90 32 7f
        E 120 80 32 00
        E 120 90 32 7f
        E 0 90 34 7f
        E 0 90 32 7f
        E 120 80 32 00
        E 0 80 32 00
        E 120 90 32 7f
        E 120 80 32 00
        E 120 90 32 7f
        E 120 80 32 00
        E 120 80 34 00
        E 0 90 32 7f
        E 0 90 30 7f
        E 120 80 32 00
        E 0 80 30 00
        E 0 90 31 7f
        E 120 80 31 00
        E 0 90 32 7f
        E 0 90 30 7f
        E 120 80 32 00
        E 0 80 30 00
        E 0 90 33 7f
        E 120 80 33 00
        E 0 90 32 7f
        E 0 90 34 7f
        E 0 90 30 7f
        E 120 80 32 00
        E 0 80 34 00
        E 0 80 30 00
        E 0 90 33 7f
        E 0 90 35 7f
        E 120 80 35 00
        E 0 90 32 7f
        E 0 90 34 7f
        E 0 90 30 7f
        E 0 90 36 7f
        E 120 80 33 00
        E 0 80 32 00
        E 0 80 36 00
        E 0 90 35 7f
        E 120 80 35 00
        E 120 80 34 00
        E 0 90 33 7f
        E 120 80 33 00
        E 0 90 32 7f
        E 120 80 32 00
        E 0 90 31 7f
        E 0 90 33 7f
        E 120 80 31 00
        E 0 80 33 00
        E 0 90 32 7f
        E 0 90 34 7f
        E 120 80 32 00
        E 0 80 34 00
        E 0 90 35 7f
        E 120 80 30 00
        E 0 80 35 00
        E 0 90 32 7f
        E 0 90 34 7f
        E 0 90 36 7f
        E 120 80 32 00
        E 0 80 36 00
        E 0 90 35 7f
        E 0 90 30 7f
        E 120 80 35 00
        E 0 80 30 00
        E 0 90 32 7f
        E 0 90 38 7f
        E 120 80 34 00
        E 0 80 32 00
        E 0 90 33 7f
        E 0 90 31 7f
        E 0 90 30 7f
        E 120 80 38 00
        E 0 80 33 00
        E 0 80 31 00
        E 0 80 30 00
        E 0 90 32 7f
        E 0 90 30 7f
        E 120 80 32 00
        E 0 80 30 00
        E 0 90 33 7f
        E 120 80 33 00
        E 0 90 34 7f
        E 0 90 32 7f
        E 0 90 30 7f
        E 0 90 38 7f
        E 120 80 34 00
        E 0 80 32 00
        E 0 80 30 00
        E 0 90 35 7f
        E 0 90 30 7f
        E 120 80 38 00
        E 0 80 35 00
        E 0 80 30 00
        E 0 90 34 7f
        E 0 90 36 7f
        E 0 90 32 7f
        E 120 80 36 00
        E 0 80 32 00
        E 0 90 35 7f
        E 120 80 35 00
        E 0 90 32 7f
        E 0 90 30 7f
        E 0 90 38 7f
        E 120 80 34 00
        E 0 80 32 00
        E 0 80 30 00
        E 0 90 33 7f
        E 0 90 30 7f
        E 120 80 38 00
        E 0 80 33 00
        E 0 80 30 00
        E 0 90 32 7f
        E 120 80 32 00
        E 0 90 31 7f
        E 120 80 31 00
        E 0 90 30 7f
        E 0 90 38 7f
        E 0 90 32 7f
        E 120 80 30 00
        E 0 80 32 00
        E 0 90 30 7f
        E 0 90 33 7f
        E 120 80 38 00
        E 0 80 30 00
        E 0 80 33 00
        E 0 90 31 7f
        E 0 90 34 7f
        E 0 90 32 7f
        E 120 80 31 00
        E 0 80 34 00
        E 0 80 32 00
        E 0 90 31 7f
        E 0 90 35 7f
        E 120 80 31 00
        E 0 80 35 00
        E 0 90 30 7f
        E 0 90 38 7f
        E 0 90 31 7f
        E 0 90 34 7f
        E 0 90 32 7f
        E 0 90 36 7f
        E 120 80 30 00
        E 0 80 31 00
        E 0 80 32 00
        E 0 80 36 00
        E 0 90 30 7f
        E 0 90 31 7f
        E 0 90 35 7f
        E 120 80 38 00
        E 0 80 30 00
        E 0 80 31 00
        E 0 80 35 00
        E 0 90 31 7f
        E 0 90 32 7f
        E 120 80 34 00
        E 0 80 31 00
        E 0 80 32 00
        E 0 90 31 7f
        E 0 90 33 7f
        E 120 80 31 00
        E 0 80 33 00
        E 0 90 30 7f
        E 0 90 38 7f
        E 0 90 31 7f
        E 0 90 32 7f
        E 120 80 30 00
        E 0 80 31 00
        E 0 80 32 00
        E 0 90 34 7f
        E 0 90 30 7f
        E 0 90 31 7f
        E 120 80 38 00
        E 0 80 34 00
        E 0 80 30 00
        E 0 80 31 00
        E 0 90 31 7f
        E 0 90 35 7f
        E 120 80 31 00
        E 0 80 35 00
        E 0 90 34 7f
        E 0 90 31 7f
        E 0 90 36 7f
        E 120 80 34 00
        E 0 80 31 00
        E 0 80 36 00
        E 0 90 30 7f
        E 0 90 38 7f
        E 0 90 31 7f
        E 0 90 37 7f
        E 120 80 30 00
        E 0 80 31 00
        E 0 80 37 00
        E 0 90 30 7f
        E 0 90 31 7f
        E 0 90 34 7f
        E 0 90 39 7f
        E 120 80 38 00
        E 0 80 30 00
        E 0 80 31 00
        E 0 80 34 00
        E 0 80 39 00
        E 0 90 31 7f
        E 0 90 3a 7f
        E 0 90 36 7f
        E 120 80 31 00
        E 0 80 3a 00
        E 0 80 36 00
        E 0 90 31 7f
        E 0 90 34 7f
        E 0 90 3b 7f
        E 120 80 31 00
        E 0 80 34 00
        E 0 80 3b 00
        E 0 90 3c 7f
        E 0 90 30 7f
        E 0 90 38 7f
        E 0 90 31 7f
        E 0 90 36 7f
        E 120 80 3c 00
        E 0 80 30 00
        E 0 80 31 00
        E 0 80 36 00
        E 0 90 30 7f
        E 0 90 31 7f
        E 0 90 34 7f
        E 0 90 3d 7f
        E 120 80 38 00
        E 0 80 30 00
        E 0 80 31 00
        E 0 80 34 00
        E 0 80 3d 00
        E 0 90 30 7f
        E 0 90 31 7f
        E 0 90 3e 7f
        E 0 90 36 7f
        E 120 80 30 00
        E 0 80 31 00
        E 0 80 3e 00
        E 0 80 36 00
        E 0 90 30 7f
        E 0 90 38 7f
        E 0 90 31 7f
        E 0 90 34 7f
        E 0 90 0f 7f
        E 120 80 30 00
        E 0 80 31 00
        E 0 80 34 00
        E 0 80 0f 00
        E 0 90 30 7f
        E 0 90 31 7f
        E 0 90 10 7f
        E 0 90 36 7f
        E 120 80 38 00
        E 0 80 30 00
        E 0 80 31 00
        E 0 80 10 00
        E 0 80 36 00
        E 0 90 30 7f
        E 0 90 31 7f
        E 0 90 32 7f
        E 0 90 34 7f
        E 0 90 0f 7f
        E 120 80 30 00
        E 0 80 31 00
        E 0 80 32 00
        E 0 80 34 00
        E 0 80 0f 00
        E 0 90 30 7f
        E 0 90 32 7f
        E 0 90 3e 7f
        E 0 90 36 7f
        E 120 80 30 00
        E 0 80 32 00
        E 0 80 3e 00
        E 0 80 36 00
        E 0 90 3d 7f
        E 0 90 30 7f
        E 0 90 38 7f
        E 0 90 32 7f
        E 0 90 34 7f
        E 120 80 3d 00
        E 0 80 30 00
        E 0 80 32 00
        E 0 80 34 00
        E 0 90 30 7f
        E 0 90 32 7f
        E 0 90 3c 7f
        E 0 90 36 7f
        E 120 80 38 00
        E 0 80 30 00
        E 0 80 32 00
        E 0 80 3c 00
        E 0 80 36 00
        E 0 90 3b 7f
        E 0 90 30 7f
        E 0 90 32 7f
        E 0 90 34 7f
        E 120 80 3b 00
        E 0 80 30 00
        E 0 80 32 00
        E 0 80 34 00
        E 0 90 3a 7f
        E 0 90 30 7f
        E 0 90 32 7f
        E 0 90 36 7f
        E 120 80 3a 00
        E 0 80 30 00
        E 0 80 32 00
        E 0 80 36 00
        E 0 90 30 7f
        E 0 90 32 7f
        E 0 90 34 7f
        E 0 90 39 7f
        E 120 80 30 00
        E 0 80 32 00
        E 0 80 34 00
        E 0 80 39 00
        E 0 90 30 7f
        E 0 90 32 7f
        E 0 90 38 7f
        E 0 90 36 7f
        E 120 80 30 00
        E 0 80 32 00
        E 0 80 38 00
        E 0 80 36 00
        E 0 90 30 7f
        E 0 90 32 7f
        E 0 90 37 7f
        E 120 80 30 00
        E 0 80 32 00
        E 0 80 37 00
        E 0 90 38 7f
        E 0 90 30 7f
        E 0 90 32 7f
        E 0 90 36 7f
        E 120 80 30 00
        E 0 80 32 00
        E 0 80 36 00
        E 0 90 30 7f
        E 0 90 32 7f
        E 0 90 35 7f
        E 120 80 38 00
        E 0 80 30 00
        E 0 80 32 00
        E 0 80 35 00
        E 0 90 32 7f
        E 0 90 34 7f
        E 120 80 32 00
        E 0 80 34 00
        E 0 90 32 7f
        E 0 90 33 7f
        E 0 90 38 7f
        E 120 80 32 00
        E 0 80 33 00
        E 0 90 32 7f
        E 0 90 33 7f
        E 120 80 38 00
        E 0 80 32 00
        E 0 80 33 00
        E 0 90 32 7f
        E 0 90 31 7f
        E 0 90 34 7f
        E 120 80 32 00
        E 0 80 31 00
        E 0 80 34 00
        E 0 90 32 7f
        E 0 90 33 7f
        E 0 90 35 7f
        E 120 80 32 00
        E 0 80 33 00
        E 0 80 35 00
        E 0 90 30 7f
        E 0 90 32 7f
        E 0 90 37 7f
        E 0 90 36 7f
        E 120 80 30 00
        E 0 80 32 00
        E 0 80 36 00
        E 0 90 30 7f
        E 0 90 32 7f
        E 0 90 33 7f
        E 0 90 38 7f
        E 120 80 37 00
        E 0 80 30 00
        E 0 80 32 00
        E 0 80 33 00
        E 0 80 38 00
        E 0 90 30 7f
        E 0 90 32 7f
        E 0 90 39 7f
        E 0 90 35 7f
        E 120 80 30 00
        E 0 80 32 00
        E 0 80 39 00
        E 0 80 35 00
        E 0 90 30 7f
        E 0 90 32 7f
        E 0 90 33 7f
        E 0 90 3a 7f
        E 0 90 38 7f
        E 120 80 30 00
        E 0 80 32 00
        E 0 80 33 00
        E 0 80 3a 00
        E 0 90 30 7f
        E 0 90 3b 7f
        E 0 90 37 7f
        E 0 90 35 7f
        E 120 80 38 00
        E 0 80 30 00
        E 0 80 3b 00
        E 0 80 35 00
        E 0 90 30 7f
        E 0 90 33 7f
        E 0 90 3c 7f
        E 120 80 37 00
        E 0 80 30 00
        E 0 80 33 00
        E 0 80 3c 00
        E 0 90 30 7f
        E 0 90 31 7f
        E 0 90 3d 7f
        E 0 90 35 7f
        E 0 90 38 7f
        E 120 80 30 00
        E 0 80 31 00
        E 0 80 3d 00
        E 0 80 35 00
        E 0 90 30 7f
        E 0 90 31 7f
        E 0 90 37 7f
        E 0 90 33 7f
        E 0 90 3e 7f
        E 120 80 38 00
        E 0 80 30 00
        E 0 80 31 00
        E 0 80 33 00
        E 0 80 3e 00
        E 0 90 30 7f
        E 0 90 31 7f
        E 0 90 35 7f
        E 120 80 37 00
        E 0 80 30 00
        E 0 80 31 00
        E 0 80 35 00
        E 0 90 30 7f
        E 0 90 31 7f
        E 0 90 33 7f
        E 0 90 3e 7f
        E 0 90 38 7f
        E 120 80 30 00
        E 0 80 31 00
        E 0 80 33 00
        E 0 80 3e 00
        E 0 90 31 7f
        E 0 90 3d 7f
        E 0 90 35 7f
        E 120 80 38 00
        E 0 80 31 00
        E 0 80 3d 00
        E 0 80 35 00
        E 0 90 31 7f
        E 0 90 3c 7f
        E 0 90 37 7f
        E 0 90 33 7f
        E 120 80 31 00
        E 0 80 3c 00
        E 0 80 33 00
        E 0 90 31 7f
        E 0 90 3b 7f
        E 0 90 35 7f
        E 120 80 37 00
        E 0 80 31 00
        E 0 80 3b 00
        E 0 80 35 00
        E 0 90 38 7f
        E 0 90 31 7f
        E 0 90 3a 7f
        E 0 90 33 7f
        E 120 80 31 00
        E 0 80 3a 00
        E 0 80 33 00
        E 0 90 31 7f
        E 0 90 39 7f
        E 0 90 35 7f
        E 120 80 38 00
        E 0 80 31 00
        E 0 80 39 00
        E 0 80 35 00
        E 0 90 31 7f
        E 0 90 33 7f
        E 0 90 38 7f
        E 120 80 31 00
        E 0 80 33 00
        E 0 80 38 00
        E 0 90 37 7f
        E 0 90 35 7f
        E 120 80 37 00
        E 0 80 35 00
        E 0 90 36 7f
        E 0 90 3b 7f
        E 0 90 38 7f
        E 120 80 36 00
        E 0 80 3b 00
        E 0 80 38 00
        E 0 90 35 7f
        E 0 90 3c 7f
        E 0 90 39 7f
        E 120 80 35 00
        E 0 80 3c 00
        E 0 80 39 00
        E 0 90 34 7f
        E 0 90 3b 7f
        E 0 90 3a 7f
        E 120 80 34 00
        E 0 80 3b 00
        E 0 80 3a 00
        E 0 90 33 7f
        E 0 90 3c 7f
        E 0 90 3b 7f
        E 120 80 33 00
        E 0 80 3c 00
        E 0 80 3b 00
        E 0 90 32 7f
        E 0 90 3b 7f
        E 0 90 3c 7f
        E 120 80 32 00
        E 0 80 3b 00
        E 0 80 3c 00
        E 0 90 3c 7f
        E 0 90 3d 7f
        E 0 90 31 7f
        E 120 80 3c 00
        E 0 80 3d 00
        E 0 80 31 00
        E 0 90 3b 7f
        E 0 90 3e 7f
        E 0 90 30 7f
        E 120 80 3b 00
        E 0 80 3e 00
        E 0 80 30 00
        E 0 90 3c 7f
        E 0 90 3d 7f
        E 0 90 31 7f
        E 120 80 3c 00
        E 0 80 3d 00
        E 0 80 31 00
        E 0 90 3b 7f
        E 0 90 3c 7f
        E 0 90 32 7f
        E 120 80 3b 00
        E 0 80 3c 00
        E 0 80 32 00
        E 0 90 3c 7f
        E 0 90 3a 7f
        E 0 90 33 7f
        E 120 80 3c 00
        E 0 80 3a 00
        E 0 80 33 00
        E 0 90 3b 7f
        E 0 90 39 7f
        E 0 90 34 7f
        E 120 80 3b 00
        E 0 80 39 00
        E 0 80 34 00
        E 0 90 3c 7f
        E 0 90 35 7f
        E 0 90 38 7f
        E 120 80 3c 00
        E 0 80 35 00
        E 0 80 38 00
        E 0 90 3b 7f
        E 0 90 36 7f
        E 0 90 37 7f
        E 120 80 3b 00
        E 0 80 36 00
        E 0 80 37 00
        E 0 90 3c 7f
        E 0 90 38 7f
        E 0 90 35 7f
        E 120 80 3c 00
        E 0 80 38 00
        E 0 80 35 00
        E 0 90 3b 7f
        E 0 90 39 7f
        E 0 90 34 7f
        E 120 80 3b 00
        E 0 80 39 00
        E 0 80 34 00
        E 0 90 3c 7f
        E 0 90 3a 7f
        E 0 90 33 7f
        E 120 80 3c 00
        E 0 80 3a 00
        E 0 80 33 00
        E 0 90 3b 7f
        E 0 90 32 7f
        E 120 80 3b 00
        E 0 80 32 00
        E 0 90 3c 7f
        E 0 90 31 7f
        E 120 80 3c 00
        E 0 80 31 00
        E 0 90 3b 7f
        E 0 90 3d 7f
        E 0 90 30 7f
        E 120 80 3b 00
        E 0 80 3d 00
        E 0 80 30 00
        E 0 90 3c 7f
        E 0 90 31 7f
        E 120 80 3c 00
        E 0 80 31 00
        E 0 90 32 7f
        E 0 90 3b 7f
        E 120 80 32 00
        E 0 80 3b 00
        E 0 90 33 7f
        E 0 90 3a 7f
        E 120 80 33 00
        E 0 80 3a 00
        E 0 90 34 7f
        E 0 90 39 7f
        E 120 80 34 00
        E 0 80 39 00
        E 0 90 35 7f
        E 0 90 38 7f
        E 120 80 35 00
        E 0 80 38 00
        E 0 90 37 7f
        E 0 90 36 7f
        E 120 80 37 00
        E 0 80 36 00
        E 0 90 36 7f
        E 0 90 37 7f
        E 120 80 36 00
        E 0 80 37 00
        E 0 90 38 7f
        E 0 90 35 7f
        E 120 80 38 00
        E 0 80 35 00
        E 0 90 39 7f
        E 0 90 34 7f
        E 120 80 39 00
        E 0 80 34 00
        E 0 90 3a 7f
        E 0 90 33 7f
        E 120 80 3a 00
        E 0 80 33 00
        E 0 90 3b 7f
        E 0 90 32 7f
        E 120 80 3b 00
        E 0 80 32 00
        E 0 90 3c 7f
        E 0 90 31 7f
        E 120 80 3c 00
        E 0 80 31 00
        E 0 90 3d 7f
        E 0 90 30 7f
        E 120 80 3d 00
        E 0 80 30 00
        E 0 90 3c 7f
        E 0 90 31 7f
        E 120 80 3c 00
        E 0 80 31 00
        E 0 90 32 7f
        E 0 90 3b 7f
        E 120 80 32 00
        E 0 80 3b 00
        E 0 90 33 7f
        E 0 90 3a 7f
        E 120 80 33 00
        E 0 80 3a 00
        E 0 90 34 7f
        E 0 90 39 7f
        E 120 80 34 00
        E 0 80 39 00
        E 0 90 35 7f
        E 0 90 38 7f
        E 120 80 35 00
        E 0 80 38 00
        E 0 90 37 7f
        E 0 90 36 7f
        E 120 80 37 00
        E 0 80 36 00
        E 0 90 36 7f
        E 0 90 37 7f
        E 120 80 36 00
        E 0 80 37 00
        E 0 90 38 7f
        E 0 90 35 7f
        E 120 80 38 00
        E 0 80 35 00
        E 0 90 39 7f
        E 0 90 34 7f
        E 120 80 39 00
        E 0 80 34 00
        E 0 90 3a 7f
        E 0 90 33 7f
        E 120 80 3a 00
        E 0 80 33 00
        E 0 90 3b 7f
        E 0 90 32 7f
        E 120 80 3b 00
        E 0 80 32 00
        E 0 90 3c 7f
        E 0 90 31 7f
        E 120 80 3c 00
        E 0 80 31 00
        E 0 90 3d 7f
        E 0 90 30 7f
        E 120 80 3d 00
        E 0 80 30 00
        E 0 90 3c 7f
        E 0 90 31 7f
        E 120 80 3c 00
        E 0 80 31 00
        E 0 90 32 7f
        E 0 90 3b 7f
        E 120 80 32 00
        E 0 80 3b 00
        E 0 90 33 7f
        E 0 90 3a 7f
        E 120 80 33 00
        E 0 80 3a 00
        E 0 90 34 7f
        E 0 90 39 7f
        E 120 80 34 00
        E 0 80 39 00
        E 0 90 35 7f
        E 0 90 38 7f
        E 120 80 35 00
        E 0 80 38 00
        E 0 90 37 7f
        E 0 90 36 7f
        E 120 80 37 00
        E 0 80 36 00
        E 0 90 36 7f
        E 0 90 37 7f
        E 120 80 36 00
        E 0 80 37 00
        E 0 90 38 7f
        E 0 90 35 7f
        E 120 80 38 00
        E 0 80 35 00
        E 0 90 39 7f
        E 0 90 34 7f
        E 120 80 39 00
        E 0 80 34 00
        E 0 90 3a 7f
        E 0 90 33 7f
        E 120 80 3a 00
        E 0 80 33 00
        E 0 90 3b 7f
        E 0 90 32 7f
        E 120 80 3b 00
        E 0 80 32 00
        E 0 90 3c 7f
        E 0 90 31 7f
        E 120 80 3c 00
        E 0 80 31 00
        E 0 90 3d 7f
        E 0 90 30 7f
        E 120 80 3d 00
        E 0 80 30 00
        E 0 90 3c 7f
        E 0 90 31 7f
        E 120 80 3c 00
        E 0 80 31 00
        E 0 90 32 7f
        E 0 90 3b 7f
        E 120 80 32 00
        E 0 80 3b 00
        E 0 90 33 7f
        E 0 90 3a 7f
        E 120 80 33 00
        E 0 80 3a 00
        E 0 90 34 7f
        E 0 90 39 7f
        E 120 80 34 00
        E 0 80 39 00
        E 0 90 35 7f
        E 0 90 38 7f
        E 120 80 35 00
        E 0 80 38 00
        E 0 90 37 7f
        E 0 90 36 7f
        E 120 80 37 00
        E 0 80 36 00
        E 0 90 36 7f
        E 0 90 37 7f
        E 120 80 36 00
        E 0 80 37 00
        E 0 90 38 7f
        E 0 90 35 7f
        E 120 80 38 00
        E 0 80 35 00
        E 0 90 39 7f
        E 0 90 34 7f
        E 120 80 39 00
        E 0 80 34 00
        E 0 90 3a 7f
        E 0 90 33 7f
        E 120 80 3a 00
        E 0 80 33 00
        E 0 90 3b 7f
        E 0 90 32 7f
        E 120 80 3b 00
        E 0 80 32 00
        E 0 90 3c 7f
        E 0 90 31 7f
        E 120 80 3c 00
        E 0 80 31 00
        E 0 90 3d 7f
        E 0 90 30 7f
        E 120 80 3d 00
        E 0 80 30 00
        E 0 90 3c 7f
        E 0 90 31 7f
        E 120 80 3c 00
        E 0 80 31 00
        E 0 90 32 7f
        E 0 90 3b 7f
        E 120 80 32 00
        E 0 80 3b 00
        E 0 90 33 7f
        E 0 90 3a 7f
        E 120 80 33 00
        E 0 80 3a 00
        E 0 90 34 7f
        E 0 90 39 7f
        E 120 80 34 00
        E 0 80 39 00
        E 0 90 35 7f
        E 0 90 38 7f
        E 120 80 35 00
        E 0 80 38 00
        E 0 90 37 7f
        E 0 90 36 7f
        E 120 80 37 00
        E 0 80 36 00
        E 0 90 36 7f
        E 0 90 37 7f
        E 120 80 36 00
        E 0 80 37 00
        E 0 90 38 7f
        E 0 90 35 7f
        E 120 80 38 00
        E 0 80 35 00
        E 0 90 39 7f
        E 0 90 34 7f
        E 120 80 39 00
        E 0 80 34 00
        E 0 90 3a 7f
        E 0 90 33 7f
        E 120 80 3a 00
        E 0 80 33 00
        E 0 90 3b 7f
        E 0 90 32 7f
        E 120 80 3b 00
        E 0 80 32 00
        E 0 90 3c 7f
        E 0 90 31 7f
        E 120 80 3c 00
        E 0 80 31 00
        E 0 90 3d 7f
        E 0 90 30 7f
        E 120 80 3d 00
        E 0 80 30 00
        E 0 90 3c 7f
        E 0 90 31 7f
        E 120 80 3c 00
        E 0 80 31 00
        E 0 90 32 7f
        E 0 90 3b 7f
        E 120 80 32 00
        E 0 80 3b 00
        E 0 90 33 7f
        E 0 90 3a 7f
        E 120 80 33 00
        E 0 80 3a 00
        E 0 90 34 7f
        E 0 90 39 7f
        E 120 80 34 00
        E 0 80 39 00
        E 0 90 35 7f
        E 0 90 38 7f
        E 120 80 35 00
        E 0 80 38 00
        E 0 90 37 7f
        E 0 90 36 7f
        E 120 80 37 00
        E 0 80 36 00
        E 0 90 35 7f
        E 120 80 35 00
        E 0 90 34 7f
        E 120 80 34 00
        E 0 90 33 7f
        E 120 80 33 00
        E 0 90 32 7f
        E 120 80 32 00
        E 0 90 31 7f
        E 120 80 31 00
        E 0 90 30 7f
        E 120 80 30 00
        E 0 90 34 7f
        E 0 90 36 7f
        E 0 90 30 7f
        E 120 80 34 00
        E 0 80 36 00
        E 0 80 30 00
        E 0 90 34 7f
        E 0 90 30 7f
        E 120 80 34 00
        E 0 80 30 00
        E 0 90 36 7f
        E 0 90 30 7f
        E 120 80 36 00
        E 0 80 30 00
        E 0 90 30 7f
        E 120 80 30 00
        E 0 90 34 7f
        E 0 90 36 7f
        E 0 90 30 7f
        E 120 80 34 00
        E 0 80 36 00
        E 0 80 30 00
        E 0 90 34 7f
        E 0 90 30 7f
        E 120 80 34 00
        E 0 80 30 00
        E 0 90 36 7f
        E 0 90 30 7f
        E 0 90 31 7f
        E 120 80 36 00
        E 0 80 30 00
        E 0 80 31 00
        E 0 90 30 7f
        E 0 90 31 7f
        E 120 80 30 00
        E 0 80 31 00
        E 0 90 34 7f
        E 0 90 36 7f
        E 0 90 30 7f
        E 0 90 31 7f
        E 120 80 34 00
        E 0 80 36 00
        E 0 80 30 00
        E 0 80 31 00
        E 0 90 34 7f
        E 0 90 30 7f
        E 0 90 31 7f
        E 120 80 34 00
        E 0 80 30 00
        E 0 80 31 00
        E 0 90 3a 7f
        E 0 90 36 7f
        E 0 90 3b 7f
        E 0 90 3c 7f
        E 0 90 31 7f
        E 120 80 36 00
        E 0 80 31 00
        E 0 90 31 7f
        E 120 80 31 00
        E 0 90 34 7f
        E 0 90 36 7f
        E 0 90 31 7f
        E 120 80 34 00
        E 0 80 36 00
        E 0 80 31 00
        E 0 90 34 7f
        E 0 90 31 7f
        E 120 80 34 00
        E 0 80 31 00
        E 0 90 35 7f
        E 0 90 31 7f
        E 120 80 31 00
        E 0 90 31 7f
        E 120 80 3a 00
        E 0 80 3b 00
        E 0 80 3c 00
        E 0 80 35 00
        E 0 80 31 00
        E 0 90 37 7f
        E 0 90 34 7f
        E 0 90 38 7f
        E 0 90 39 7f
        E 120 80 34 00
        E 0 90 34 7f
        E 0 90 30 7f
        E 120 80 34 00
        E 0 80 30 00
        E 0 90 35 7f
        E 0 90 30 7f
        E 120 80 30 00
        E 0 90 30 7f
        E 120 80 35 00
        E 0 80 30 00
        E 0 90 34 7f
        E 0 90 30 7f
        E 120 80 34 00
        E 0 80 30 00
        E 0 90 34 7f
        E 0 90 30 7f
        E 120 80 37 00
        E 0 80 38 00
        E 0 80 39 00
        E 0 80 34 00
        E 0 80 30 00
        E 0 90 35 7f
        E 0 90 30 7f
        E 120 80 30 00
        E 0 90 30 7f
        E 120 80 35 00
        E 0 80 30 00
        E 0 90 34 7f
        E 0 90 39 7f
        E 0 90 3a 7f
        E 0 90 3b 7f
        E 0 90 3c 7f
        E 0 90 30 7f
        E 0 90 31 7f
        E 120 80 34 00
        E 0 80 30 00
        E 0 80 31 00
        E 0 90 34 7f
        E 0 90 30 7f
        E 0 90 31 7f
        E 120 80 34 00
        E 0 80 30 00
        E 0 80 31 00
        E 0 90 35 7f
        E 0 90 30 7f
        E 0 90 31 7f
        E 120 80 30 00
        E 0 80 31 00
        E 0 90 30 7f
        E 0 90 31 7f
        E 120 80 35 00
        E 0 80 30 00
        E 0 80 31 00
        E 0 90 35 7f
        E 0 90 34 7f
        E 0 90 36 7f
        E 0 90 31 7f
        E 120 80 34 00
        E 0 80 36 00
        E 0 80 31 00
        E 0 90 34 7f
        E 0 90 31 7f
        E 120 80 39 00
        E 0 80 3a 00
        E 0 80 3b 00
        E 0 80 3c 00
        E 0 80 34 00
        E 0 80 31 00
        E 0 90 36 7f
        E 0 90 31 7f
        E 120 80 36 00
        E 0 80 31 00
        E 0 90 31 7f
        E 120 80 31 00
        E 0 90 34 7f
        E 0 90 36 7f
        E 0 90 31 7f
        E 0 90 32 7f
        E 120 80 34 00
        E 0 80 36 00
        E 0 80 31 00
        E 0 80 32 00
        E 0 90 34 7f
        E 0 90 31 7f
        E 0 90 32 7f
        E 120 80 34 00
        E 0 80 31 00
        E 0 80 32 00
        E 0 90 39 7f
        E 0 90 3a 7f
        E 0 90 3b 7f
        E 0 90 36 7f
        E 0 90 38 7f
        E 0 90 32 7f
        E 0 90 30 7f
        E 120 80 36 00
        E 0 80 32 00
        E 0 80 30 00
        E 0 90 32 7f
        E 0 90 30 7f
        E 120 80 35 00
        E 0 80 32 00
        E 0 80 30 00
        E 0 90 34 7f
        E 0 90 36 7f
        E 0 90 32 7f
        E 120 80 34 00
        E 0 80 36 00
        E 0 80 32 00
        E 0 90 34 7f
        E 0 90 32 7f
        E 120 80 34 00
        E 0 80 32 00
        E 0 90 36 7f
        E 0 90 32 7f
        E 0 90 30 7f
        E 120 80 39 00
        E 0 80 3a 00
        E 0 80 3b 00
        E 0 80 38 00
        E 0 80 36 00
        E 0 80 32 00
        E 0 80 30 00
        E 0 90 32 7f
        E 0 90 33 7f
        E 0 90 30 7f
        E 120 80 32 00
        E 0 80 33 00
        E 0 80 30 00
        E 0 90 36 7f
        E 0 90 34 7f
        E 0 90 32 7f
        E 0 90 33 7f
        E 120 80 36 00
        E 0 80 34 00
        E 0 80 32 00
        E 0 80 33 00
        E 0 90 34 7f
        E 0 90 32 7f
        E 0 90 33 7f
        E 120 80 34 00
        E 0 80 32 00
        E 0 80 33 00
        E 0 90 35 7f
        E 0 90 36 7f
        E 0 90 32 7f
        E 0 90 33 7f
        E 0 90 30 7f
        E 120 80 36 00
        E 0 80 32 00
        E 0 80 33 00
        E 0 80 30 00
        E 0 90 33 7f
        E 0 90 30 7f
        E 120 80 35 00
        E 0 80 33 00
        E 0 80 30 00
        E 0 90 39 7f
        E 0 90 35 7f
        E 0 90 36 7f
        E 0 90 34 7f
        E 0 90 3a 7f
        E 0 90 3b 7f
        E 0 90 3c 7f
        E 0 90 3d 7f
        E 0 90 33 7f
        E 120 80 36 00
        E 0 80 34 00
        E 0 80 33 00
        E 0 90 34 7f
        E 0 90 33 7f
        E 120 80 34 00
        E 0 80 33 00
        E 0 90 35 7f
        E 0 90 33 7f
        E 0 90 30 7f
        E 120 80 33 00
        E 0 80 30 00
        E 0 90 36 7f
        E 0 90 33 7f
        E 0 90 30 7f
        E 120 80 35 00
        E 0 80 36 00
        E 0 80 33 00
        E 0 80 30 00
        E 0 90 34 7f
        E 0 90 33 7f
        E 120 80 34 00
        E 0 80 33 00
        E 0 90 34 7f
        E 120 80 39 00
        E 0 80 3a 00
        E 0 80 3b 00
        E 0 80 3c 00
        E 0 80 3d 00
        E 0 80 34 00
        E 0 90 30 7f
        E 0 90 35 7f
        E 0 90 30 7f
        E 120 80 30 00
        E 0 80 30 00
        E 0 90 30 7f
        E 0 90 36 7f
        E 0 90 30 7f
        E 120 80 35 00
        E 0 80 35 00
        E 0 80 30 00
        E 0 80 36 00
        E 0 80 30 00
        E 0 90 34 7f
        E 120 80 34 00
        E 0 90 34 7f
        E 120 80 34 00
        E 0 90 30 7f
        E 0 90 35 7f
        E 0 90 34 7f
        E 0 90 30 7f
        E 120 80 30 00
        E 0 80 34 00
        E 0 80 30 00
        E 0 90 30 7f
        E 0 90 34 7f
        E 0 90 30 7f
        E 120 80 35 00
        E 0 80 30 00
        E 0 80 34 00
        E 0 80 30 00
        E 0 90 36 7f
        E 0 90 34 7f
        E 120 80 36 00
        E 0 80 34 00
        E 0 90 34 7f
        E 120 80 34 00
        E 0 90 30 7f
        E 0 90 34 7f
        E 0 90 36 7f
        E 120 80 30 00
        E 0 80 34 00
        E 0 80 36 00
        E 0 90 30 7f
        E 0 90 34 7f
        E 120 80 30 00
        E 0 80 34 00
        E 0 90 35 7f
        E 0 90 34 7f
        E 0 90 36 7f
        E 120 80 34 00
        E 0 80 36 00
        E 0 90 34 7f
        E 0 90 37 7f
        E 120 80 34 00
        E 0 90 30 7f
        E 0 90 34 7f
        E 0 90 36 7f
        E 120 80 30 00
        E 0 80 34 00
        E 0 80 36 00
        E 0 90 30 7f
        E 0 90 34 7f
        E 120 80 30 00
        E 0 80 34 00
        E 0 90 36 7f
        E 0 90 34 7f
        E 120 80 36 00
        E 0 80 34 00
        E 0 90 34 7f
        E 120 80 34 00
        E 0 90 30 7f
        E 0 90 36 7f
        E 0 90 34 7f
        E 120 80 37 00
        E 0 80 30 00
        E 0 80 36 00
        E 0 80 34 00
        E 0 90 30 7f
        E 0 90 34 7f
        E 120 80 35 00
        E 0 80 30 00
        E 0 80 34 00
        E 0 90 36 7f
        E 0 90 34 7f
        E 120 80 36 00
        E 0 80 34 00
        E 0 90 34 7f
        E 120 80 34 00
        E 0 90 30 7f
        E 0 90 36 7f
        E 0 90 34 7f
        E 120 80 30 00
        E 0 80 36 00
        E 0 80 34 00
        E 0 90 30 7f
        E 0 90 34 7f
        E 120 80 30 00
        E 0 80 34 00
        E 0 90 36 7f
        E 120 80 36 00
        E 120 90 30 7f
        E 0 90 31 7f
        E 0 90 32 7f
        E 0 90 33 7f
        E 0 90 34 7f
        E 0 90 35 7f
        E 0 90 36 7f
        E 0 90 37 7f
        E 120 80 30 00
        E 0 80 31 00
        E 0 80 32 00
        E 0 80 33 00
        E 0 80 34 00
        E 0 80 35 00
        E 0 80 36 00
        E 0 80 37 00
        E 0 90 30 7f
        E 0 90 31 7f
        E 0 90 32 7f
        E 0 90 33 7f
        E 0 90 34 7f
        E 0 90 35 7f
        E 0 90 36 7f
        E 0 90 37 7f
        E 120 80 30 00
        E 0 80 31 00
        E 0 80 32 00
        E 0 80 33 00
        E 0 80 34 00
        E 0 80 35 00
        E 0 80 36 00
        E 0 80 37 00
        E 240 90 30 7f
        E 0 90 31 7f
        E 0 90 32 7f
        E 0 90 33 7f
        E 0 90 34 7f
        E 0 90 35 7f
        E 0 90 36 7f
        E 0 90 37 7f
        E 120 80 30 00
        E 0 80 31 00
        E 0 80 32 00
        E 0 80 33 00
        E 0 80 34 00
        E 0 80 35 00
        E 0 80 36 00
        E 0 80 37 00
        E 0 90 30 7f
        E 0 90 31 7f
        E 0 90 32 7f
        E 0 90 33 7f
        E 0 90 34 7f
        E 0 90 35 7f
        E 0 90 36 7f
        E 0 90 37 7f
        E 120 80 30 00
        E 0 80 31 00
        E 0 80 32 00
        E 0 80 33 00
        E 0 80 34 00
        E 0 80 35 00
        E 0 80 36 00
        E 0 80 37 00
        E 240 90 30 7f
        E 0 90 31 7f
        E 0 90 32 7f
        E 0 90 33 7f
        E 0 90 34 7f
        E 0 90 35 7f
        E 0 90 36 7f
        E 0 90 37 7f
        E 120 80 30 00
        E 0 80 31 00
        E 0 80 32 00
        E 0 80 33 00
        E 0 80 34 00
        E 0 80 35 00
        E 0 80 36 00
        E 0 80 37 00
        E 0 90 30 7f
        E 0 90 31 7f
        E 0 90 32 7f
        E 0 90 33 7f
        E 0 90 34 7f
        E 0 90 35 7f
        E 0 90 36 7f
        E 0 90 37 7f
        E 120 80 30 00
        E 0 80 31 00
        E 0 80 32 00
        E 0 80 33 00
        E 0 80 34 00
        E 0 80 35 00
        E 0 80 36 00
        E 0 80 37 00
        E 240 90 30 7f
        E 0 90 31 7f
        E 0 90 32 7f
        E 0 90 33 7f
        E 0 90 34 7f
        E 0 90 35 7f
        E 0 90 36 7f
        E 0 90 37 7f
        E 120 80 30 00
        E 0 80 31 00
        E 0 80 32 00
        E 0 80 33 00
        E 0 80 34 00
        E 0 80 35 00
        E 0 80 36 00
        E 0 80 37 00
        E 0 90 30 7f
        E 0 90 31 7f
        E 0 90 32 7f
        E 0 90 33 7f
        E 0 90 34 7f
        E 0 90 35 7f
        E 0 90 36 7f
        E 0 90 37 7f
        E 120 80 30 00
        E 0 80 31 00
        E 0 80 32 00
        E 0 80 33 00
        E 0 80 34 00
        E 0 80 35 00
        E 0 80 36 00
        E 0 80 37 00
        E 240 90 30 7f
        E 0 90 31 7f
        E 0 90 32 7f
        E 0 90 33 7f
        E 0 90 34 7f
        E 0 90 35 7f
        E 0 90 36 7f
        E 0 90 37 7f
        E 120 80 30 00
        E 0 80 31 00
        E 0 80 32 00
        E 0 80 33 00
        E 0 80 34 00
        E 0 80 35 00
        E 0 80 36 00
        E 0 80 37 00
        E 0 90 30 7f
        E 0 90 31 7f
        E 0 90 32 7f
        E 0 90 33 7f
        E 0 90 34 7f
        E 0 90 35 7f
        E 0 90 36 7f
        E 0 90 37 7f
        E 120 80 30 00
        E 0 80 31 00
        E 0 80 32 00
        E 0 80 33 00
        E 0 80 34 00
        E 0 80 35 00
        E 0 80 36 00
        E 0 80 37 00
        E 240 90 30 7f
        E 0 90 31 7f
        E 0 90 32 7f
        E 0 90 33 7f
        E 0 90 34 7f
        E 0 90 35 7f
        E 0 90 36 7f
        E 0 90 37 7f
        E 120 80 30 00
        E 0 80 31 00
        E 0 80 32 00
        E 0 80 33 00
        E 0 80 34 00
        E 0 80 35 00
        E 0 80 36 00
        E 0 80 37 00
        E 0 90 30 7f
        E 0 90 31 7f
        E 0 90 32 7f
        E 0 90 33 7f
        E 0 90 34 7f
        E 0 90 35 7f
        E 0 90 36 7f
        E 0 90 37 7f
        E 120 80 30 00
        E 0 80 31 00
        E 0 80 32 00
        E 0 80 33 00
        E 0 80 34 00
        E 0 80 35 00
        E 0 80 36 00
        E 0 80 37 00
        E 240 90 30 7f
        E 0 90 31 7f
        E 0 90 32 7f
        E 0 90 33 7f
        E 0 90 34 7f
        E 0 90 35 7f
        E 0 90 36 7f
        E 0 90 37 7f
        E 120 80 30 00
        E 0 80 31 00
        E 0 80 32 00
        E 0 80 33 00
        E 0 80 34 00
        E 0 80 35 00
        E 0 80 36 00
        E 0 80 37 00
        E 0 90 30 7f
        E 0 90 31 7f
        E 0 90 32 7f
        E 0 90 33 7f
        E 0 90 34 7f
        E 0 90 35 7f
        E 0 90 36 7f
        E 0 90 37 7f
        E 120 80 30 00
        E 0 80 31 00
        E 0 80 32 00
        E 0 80 33 00
        E 0 80 34 00
        E 0 80 35 00
        E 0 80 36 00
        E 0 80 37 00
        E 240 90 30 7f
        E 0 90 31 7f
        E 0 90 32 7f
        E 0 90 33 7f
        E 0 90 34 7f
        E 0 90 35 7f
        E 0 90 36 7f
        E 0 90 37 7f
        E 120 80 30 00
        E 0 80 31 00
        E 0 80 32 00
        E 0 80 33 00
        E 0 80 34 00
        E 0 80 35 00
        E 0 80 36 00
        E 0 80 37 00
        E 0 90 30 7f
        E 0 90 31 7f
        E 0 90 32 7f
        E 0 90 33 7f
        E 0 90 34 7f
        E 0 90 35 7f
        E 0 90 36 7f
        E 0 90 37 7f
        E 120 80 30 00
        E 0 80 31 00
        E 0 80 32 00
        E 0 80 33 00
        E 0 80 34 00
        E 0 80 35 00
        E 0 80 36 00
        E 0 80 37 00
        E 240 90 30 7f
        E 0 90 31 7f
        E 0 90 32 7f
        E 0 90 33 7f
        E 0 90 34 7f
        E 0 90 35 7f
        E 0 90 36 7f
        E 0 90 37 7f
        E 120 80 30 00
        E 0 80 31 00
        E 0 80 32 00
        E 0 80 33 00
        E 0 80 34 00
        E 0 80 35 00
        E 0 80 36 00
        E 0 80 37 00
        E 0 90 30 7f
        E 0 90 31 7f
        E 0 90 32 7f
        E 0 90 33 7f
        E 0 90 34 7f
        E 0 90 35 7f
        E 0 90 36 7f
        E 0 90 37 7f
        E 120 80 30 00
        E 0 80 31 00
        E 0 80 32 00
        E 0 80 33 00
        E 0 80 34 00
        E 0 80 35 00
        E 0 80 36 00
        E 0 80 37 00
        E 240 90 30 7f
        E 0 90 31 7f
        E 0 90 32 7f
        E 0 90 33 7f
        E 0 90 34 7f
        E 0 90 35 7f
        E 0 90 36 7f
        E 0 90 37 7f
        E 120 80 30 00
        E 0 80 31 00
        E 0 80 32 00
        E 0 80 33 00
        E 0 80 34 00
        E 0 80 35 00
        E 0 80 36 00
        E 0 80 37 00
        E 0 90 30 7f
        E 0 90 31 7f
        E 0 90 32 7f
        E 0 90 33 7f
        E 0 90 34 7f
        E 0 90 35 7f
        E 0 90 36 7f
        E 0 90 37 7f
        E 120 80 30 00
        E 0 80 31 00
        E 0 80 32 00
        E 0 80 33 00
        E 0 80 34 00
        E 0 80 35 00
        E 0 80 36 00
        E 0 80 37 00
        E 240 90 30 7f
        E 0 90 31 7f
        E 0 90 32 7f
        E 0 90 33 7f
        E 0 90 34 7f
        E 0 90 35 7f
        E 0 90 36 7f
        E 0 90 37 7f
        E 120 80 30 00
        E 0 80 31 00
        E 0 80 32 00
        E 0 80 33 00
        E 0 80 34 00
        E 0 80 35 00
        E 0 80 36 00
        E 0 80 37 00
        E 0 90 30 7f
        E 0 90 31 7f
        E 0 90 32 7f
        E 0 90 33 7f
        E 0 90 34 7f
        E 0 90 35 7f
        E 0 90 36 7f
        E 0 90 37 7f
        E 120 80 30 00
        E 0 80 31 00
        E 0 80 32 00
        E 0 80 33 00
        E 0 80 34 00
        E 0 80 35 00
        E 0 80 36 00
        E 0 80 37 00
        E 240 90 30 7f
        E 0 90 31 7f
        E 0 90 32 7f
        E 0 90 33 7f
        E 0 90 34 7f
        E 0 90 35 7f
        E 0 90 36 7f
        E 0 90 37 7f
        E 120 80 30 00
        E 0 80 31 00
        E 0 80 32 00
        E 0 80 33 00
        E 0 80 34 00
        E 0 80 35 00
        E 0 80 36 00
        E 0 80 37 00
        E 0 90 30 7f
        E 0 90 31 7f
        E 0 90 32 7f
        E 0 90 33 7f
        E 0 90 34 7f
        E 0 90 35 7f
        E 0 90 36 7f
        E 0 90 37 7f
        E 120 80 30 00
        E 0 80 31 00
        E 0 80 32 00
        E 0 80 33 00
        E 0 80 34 00
        E 0 80 35 00
        E 0 80 36 00
        E 0 80 37 00
        E 240 90 30 7f
        E 0 90 31 7f
        E 0 90 32 7f
        E 0 90 33 7f
        E 0 90 34 7f
        E 0 90 35 7f
        E 0 90 36 7f
        E 0 90 37 7f
        E 120 80 30 00
        E 0 80 31 00
        E 0 80 32 00
        E 0 80 33 00
        E 0 80 34 00
        E 0 80 35 00
        E 0 80 36 00
        E 0 80 37 00
        E 0 90 30 7f
        E 0 90 31 7f
        E 0 90 32 7f
        E 0 90 33 7f
        E 0 90 34 7f
        E 0 90 35 7f
        E 0 90 36 7f
        E 0 90 37 7f
        E 120 80 30 00
        E 0 80 31 00
        E 0 80 32 00
        E 0 80 33 00
        E 0 80 34 00
        E 0 80 35 00
        E 0 80 36 00
        E 0 80 37 00
        E 240 90 30 7f
        E 0 90 31 7f
        E 0 90 32 7f
        E 0 90 33 7f
        E 0 90 34 7f
        E 0 90 35 7f
        E 0 90 36 7f
        E 0 90 37 7f
        E 120 80 30 00
        E 0 80 31 00
        E 0 80 32 00
        E 0 80 33 00
        E 0 80 34 00
        E 0 80 35 00
        E 0 80 36 00
        E 0 80 37 00
        E 0 90 30 7f
        E 0 90 31 7f
        E 0 90 32 7f
        E 0 90 33 7f
        E 0 90 34 7f
        E 0 90 35 7f
        E 0 90 36 7f
        E 0 90 37 7f
        E 120 80 30 00
        E 0 80 31 00
        E 0 80 32 00
        E 0 80 33 00
        E 0 80 34 00
        E 0 80 35 00
        E 0 80 36 00
        E 0 80 37 00
        E 240 90 30 7f
        E 0 90 31 7f
        E 0 90 32 7f
        E 0 90 33 7f
        E 0 90 34 7f
        E 0 90 35 7f
        E 0 90 36 7f
        E 0 90 37 7f
        E 120 80 30 00
        E 0 80 31 00
        E 0 80 32 00
        E 0 80 33 00
        E 0 80 34 00
        E 0 80 35 00
        E 0 80 36 00
        E 0 80 37 00
        E 0 90 30 7f
        E 0 90 31 7f
        E 0 90 32 7f
        E 0 90 33 7f
        E 0 90 34 7f
        E 0 90 35 7f
        E 0 90 36 7f
        E 0 90 37 7f
        E 120 80 30 00
        E 0 80 31 00
        E 0 80 32 00
        E 0 80 33 00
        E 0 80 34 00
        E 0 80 35 00
        E 0 80 36 00
        E 0 80 37 00
        E 240 90 30 7f
        E 0 90 31 7f
        E 0 90 32 7f
        E 0 90 33 7f
        E 0 90 34 7f
        E 0 90 35 7f
        E 0 90 36 7f
        E 0 90 37 7f
        E 120 80 30 00
        E 0 80 31 00
        E 0 80 32 00
        E 0 80 33 00
        E 0 80 34 00
        E 0 80 35 00
        E 0 80 36 00
        E 0 80 37 00
        E 0 90 30 7f
        E 0 90 31 7f
        E 0 90 32 7f
        E 0 90 33 7f
        E 0 90 34 7f
        E 0 90 35 7f
        E 0 90 36 7f
        E 0 90 37 7f
        E 120 80 30 00
        E 0 80 31 00
        E 0 80 32 00
        E 0 80 33 00
        E 0 80 34 00
        E 0 80 35 00
        E 0 80 36 00
        E 0 80 37 00
        E 240 90 30 7f
        E 0 90 31 7f
        E 0 90 32 7f
        E 0 90 33 7f
        E 0 90 34 7f
        E 0 90 35 7f
        E 0 90 36 7f
        E 0 90 37 7f
        E 120 80 30 00
        E 0 80 31 00
        E 0 80 32 00
        E 0 80 33 00
        E 0 80 34 00
        E 0 80 35 00
        E 0 80 36 00
        E 0 80 37 00
        E 0 90 30 7f
        E 0 90 31 7f
        E 0 90 32 7f
        E 0 90 33 7f
        E 0 90 34 7f
        E 0 90 35 7f
        E 0 90 36 7f
        E 0 90 37 7f
        E 120 80 30 00
        E 0 80 31 00
        E 0 80 32 00
        E 0 80 33 00
        E 0 80 34 00
        E 0 80 35 00
        E 0 80 36 00
        E 0 80 37 00
        E 240 90 30 7f
        E 0 90 31 7f
        E 0 90 32 7f
        E 0 90 33 7f
        E 0 90 34 7f
        E 0 90 35 7f
        E 0 90 36 7f
        E 0 90 37 7f
        E 120 80 30 00
        E 0 80 31 00
        E 0 80 32 00
        E 0 80 33 00
        E 0 80 34 00
        E 0 80 35 00
        E 0 80 36 00
        E 0 80 37 00
        E 0 90 30 7f
        E 0 90 31 7f
        E 0 90 32 7f
        E 0 90 33 7f
        E 0 90 34 7f
        E 0 90 35 7f
        E 0 90 36 7f
        E 0 90 37 7f
        E 120 80 30 00
        E 0 80 31 00
        E 0 80 32 00
        E 0 80 33 00
        E 0 80 34 00
        E 0 80 35 00
        E 0 80 36 00
        E 0 80 37 00
        E 240 90 30 7f
        E 0 90 31 7f
        E 0 90 32 7f
        E 0 90 33 7f
        E 0 90 34 7f
        E 0 90 35 7f
        E 0 90 36 7f
        E 0 90 37 7f
        E 120 80 30 00
        E 0 80 31 00
        E 0 80 32 00
        E 0 80 33 00
        E 0 80 34 00
        E 0 80 35 00
        E 0 80 36 00
        E 0 80 37 00
        E 0 90 30 7f
        E 0 90 31 7f
        E 0 90 32 7f
        E 0 90 33 7f
        E 0 90 34 7f
        E 0 90 35 7f
        E 0 90 36 7f
        E 0 90 37 7f
        E 120 80 30 00
        E 0 80 31 00
        E 0 80 32 00
        E 0 80 33 00
        E 0 80 34 00
        E 0 80 35 00
        E 0 80 36 00
        E 0 80 37 00
        E 240 90 30 7f
        E 0 90 31 7f
        E 0 90 32 7f
        E 0 90 33 7f
        E 0 90 34 7f
        E 0 90 35 7f
        E 0 90 36 7f
        E 0 90 37 7f
        E 120 80 30 00
        E 0 80 31 00
        E 0 80 32 00
        E 0 80 33 00
        E 0 80 34 00
        E 0 80 35 00
        E 0 80 36 00
        E 0 80 37 00
        E 0 90 30 7f
        E 0 90 31 7f
        E 0 90 32 7f
        E 0 90 33 7f
        E 0 90 34 7f
        E 0 90 35 7f
        E 0 90 36 7f
        E 0 90 37 7f
        E 120 80 30 00
        E 0 80 31 00
        E 0 80 32 00
        E 0 80 33 00
        E 0 80 34 00
        E 0 80 35 00
        E 0 80 36 00
        E 0 80 37 00
        E 240 90 30 7f
        E 0 90 31 7f
        E 0 90 32 7f
        E 0 90 33 7f
        E 0 90 34 7f
        E 0 90 35 7f
        E 0 90 36 7f
        E 0 90 37 7f
        E 120 80 30 00
        E 0 80 31 00
        E 0 80 32 00
        E 0 80 33 00
        E 0 80 34 00
        E 0 80 35 00
        E 0 80 36 00
        E 0 80 37 00
        E 0 90 30 7f
        E 0 90 31 7f
        E 0 90 32 7f
        E 0 90 33 7f
        E 0 90 34 7f
        E 0 90 35 7f
        E 0 90 36 7f
        E 0 90 37 7f
        E 120 80 30 00
        E 0 80 31 00
        E 0 80 32 00
        E 0 80 33 00
        E 0 80 34 00
        E 0 80 35 00
        E 0 80 36 00
        E 0 80 37 00
        E 240 90 30 7f
        E 0 90 31 7f
        E 0 90 32 7f
        E 0 90 33 7f
        E 0 90 34 7f
        E 0 90 35 7f
        E 0 90 36 7f
        E 0 90 37 7f
        E 120 80 30 00
        E 0 80 31 00
        E 0 80 32 00
        E 0 80 33 00
        E 0 80 34 00
        E 0 80 35 00
        E 0 80 36 00
        E 0 80 37 00
        E 0 90 30 7f
        E 0 90 31 7f
        E 0 90 32 7f
        E 0 90 33 7f
        E 0 90 34 7f
        E 0 90 35 7f
        E 0 90 36 7f
        E 0 90 37 7f
        E 120 80 30 00
        E 0 80 31 00
        E 0 80 32 00
        E 0 80 33 00
        E 0 80 34 00
        E 0 80 35 00
        E 0 80 36 00
        E 0 80 37 00
        E 240 90 30 7f
        E 0 90 31 7f
        E 0 90 32 7f
        E 0 90 33 7f
        E 0 90 34 7f
        E 0 90 35 7f
        E 0 90 36 7f
        E 0 90 37 7f
        E 120 80 30 00
        E 0 80 31 00
        E 0 80 32 00
        E 0 80 33 00
        E 0 80 34 00
        E 0 80 35 00
        E 0 80 36 00
        E 0 80 37 00
        E 0 90 30 7f
        E 0 90 31 7f
        E 0 90 32 7f
        E 0 90 33 7f
        E 0 90 34 7f
        E 0 90 35 7f
        E 0 90 36 7f
        E 0 90 37 7f
        E 120 80 30 00
        E 0 80 31 00
        E 0 80 32 00
        E 0 80 33 00
        E 0 80 34 00
        E 0 80 35 00
        E 0 80 36 00
        E 0 80 37 00
        E 240 90 30 7f
        E 0 90 31 7f
        E 0 90 32 7f
        E 0 90 33 7f
        E 0 90 34 7f
        E 0 90 35 7f
        E 0 90 36 7f
        E 0 90 37 7f
        E 120 80 30 00
        E 0 80 31 00
        E 0 80 32 00
        E 0 80 33 00
        E 0 80 34 00
        E 0 80 35 00
        E 0 80 36 00
        E 0 80 37 00
        E 0 90 30 7f
        E 0 90 31 7f
        E 0 90 32 7f
        E 0 90 33 7f
        E 0 90 34 7f
        E 0 90 35 7f
        E 0 90 36 7f
        E 0 90 37 7f
        E 120 80 30 00
        E 0 80 31 00
        E 0 80 32 00
        E 0 80 33 00
        E 0 80 34 00
        E 0 80 35 00
        E 0 80 36 00
        E 0 80 37 00
        E 240 90 30 7f
        E 0 90 31 7f
        E 0 90 32 7f
        E 0 90 33 7f
        E 0 90 34 7f
        E 0 90 35 7f
        E 0 90 36 7f
        E 0 90 37 7f
        E 120 80 30 00
        E 0 80 31 00
        E 0 80 32 00
        E 0 80 33 00
        E 0 80 34 00
        E 0 80 35 00
        E 0 80 36 00
        E 0 80 37 00
        E 0 90 30 7f
        E 0 90 31 7f
        E 0 90 32 7f
        E 0 90 33 7f
        E 0 90 34 7f
        E 0 90 35 7f
        E 0 90 36 7f
        E 0 90 37 7f
        E 120 80 30 00
        E 0 80 31 00
        E 0 80 32 00
        E 0 80 33 00
        E 0 80 34 00
        E 0 80 35 00
        E 0 80 36 00
        E 0 80 37 00
        E 240 90 30 7f
        E 0 90 31 7f
        E 0 90 32 7f
        E 0 90 33 7f
        E 0 90 34 7f
        E 0 90 35 7f
        E 0 90 36 7f
        E 0 90 37 7f
        E 120 80 30 00
        E 0 80 31 00
        E 0 80 32 00
        E 0 80 33 00
        E 0 80 34 00
        E 0 80 35 00
        E 0 80 36 00
        E 0 80 37 00
        E 0 90 30 7f
        E 0 90 31 7f
        E 0 90 32 7f
        E 0 90 33 7f
        E 0 90 34 7f
        E 0 90 35 7f
        E 0 90 36 7f
        E 0 90 37 7f
        E 120 80 30 00
        E 0 80 31 00
        E 0 80 32 00
        E 0 80 33 00
        E 0 80 34 00
        E 0 80 35 00
        E 0 80 36 00
        E 0 80 37 00
        E 240 90 30 7f
        E 0 90 31 7f
        E 0 90 32 7f
        E 0 90 33 7f
        E 0 90 34 7f
        E 0 90 35 7f
        E 0 90 36 7f
        E 0 90 37 7f
        E 120 80 30 00
        E 0 80 31 00
        E 0 80 32 00
        E 0 80 33 00
        E 0 80 34 00
        E 0 80 35 00
        E 0 80 36 00
        E 0 80 37 00
        E 0 90 30 7f
        E 0 90 31 7f
        E 0 90 32 7f
        E 0 90 33 7f
        E 0 90 34 7f
        E 0 90 35 7f
        E 0 90 36 7f
        E 0 90 37 7f
        E 120 80 30 00
        E 0 80 31 00
        E 0 80 32 00
        E 0 80 33 00
        E 0 80 34 00
        E 0 80 35 00
        E 0 80 36 00
        E 0 80 37 00
        E 13200 90 52 72
        E 120 80 52 00
        E 0 90 51 72
        E 120 80 51 00
        E 0 90 4f 70
        E 120 80 4f 00
        E 0 90 50 72
        E 120 80 50 00
        E 0 90 4e 72
        E 120 80 4e 00
        E 0 90 4d 72
        E 120 80 4d 00
        E 0 90 4c 72
        E 120 80 4c 00
        E 0 90 4b 72
        E 120 80 4b 00
        E 0 90 49 72
        E 120 80 49 00
        E 0 90 4a 72
        E 120 80 4a 00
        E 0 90 48 72
        E 120 80 48 00
        E 0 90 47 72
        E 120 80 47 00
        E 0 90 44 72
        E 120 80 44 00
        E 0 90 45 72
        E 120 80 45 00
        E 0 90 41 72
        E 120 80 41 00
        E 0 90 42 72
        E 120 80 42 00
        E 0 90 43 72
        E 120 80 43 00
        E 120 90 40 72
        E 120 80 40 00
        E 0 90 3f 72
        E 120 80 3f 00
        E 0 90 3e 72
        E 120 80 3e 00
        E 0 90 3c 72
        E 120 80 3c 00
        E 0 90 3d 72
        E 120 80 3d 00
        E 0 90 3b 72
        E 120 80 3b 00
        E 0 90 39 72
        E 120 80 39 00
        E 0 90 3a 72
        E 120 80 3a 00
        E 0 90 52 72
        E 120 80 52 00
        E 0 90 51 72
        E 120 80 51 00
        E 0 90 4f 70
        E 120 80 4f 00
        E 0 90 50 72
        E 120 80 50 00
        E 0 90 4e 72
        E 120 80 4e 00
        E 0 90 4d 72
        E 120 80 4d 00
        E 0 90 4c 72
        E 120 80 4c 00
        E 0 90 4b 72
        E 120 80 4b 00
        E 0 90 49 72
        E 120 80 49 00
        E 0 90 4a 72
        E 120 80 4a 00
        E 0 90 48 72
        E 120 80 48 00
        E 0 90 47 72
        E 120 80 47 00
        E 0 90 44 72
        E 120 80 44 00
        E 0 90 45 72
        E 120 80 45 00
        E 0 90 41 72
        E 120 80 41 00
        E 0 90 42 72
        E 120 80 42 00
        E 0 90 43 72
        E 120 80 43 00
        E 120 90 40 72
        E 120 80 40 00
        E 0 90 3f 72
        E 120 80 3f 00
        E 0 90 3e 72
        E 120 80 3e 00
        E 0 90 3c 72
        E 120 80 3c 00
        E 0 90 3d 72
        E 120 80 3d 00
        E 0 90 3b 72
        E 120 80 3b 00
        E 0 90 39 72
        E 120 80 39 00
        E 0 90 3a 72
        E 120 80 3a 00
        E 120 90 52 72
        E 120 80 52 00
        E 0 90 51 72
        E 120 80 51 00
        E 0 90 4f 70
        E 120 80 4f 00
        E 0 90 50 72
        E 120 80 50 00
        E 0 90 4e 72
        E 120 80 4e 00
        E 0 90 4d 72
        E 120 80 4d 00
        E 0 90 4c 72
        E 120 80 4c 00
        E 0 90 4b 72
        E 120 80 4b 00
        E 0 90 49 72
        E 120 80 49 00
        E 0 90 4a 72
        E 120 80 4a 00
        E 0 90 48 72
        E 120 80 48 00
        E 0 90 47 72
        E 120 80 47 00
        E 0 90 44 72
        E 120 80 44 00
        E 0 90 45 72
        E 120 80 45 00
        E 0 90 41 72
        E 120 80 41 00
        E 0 90 42 72
        E 120 80 42 00
        E 0 90 43 72
        E 120 80 43 00
        E 120 90 40 72
        E 120 80 40 00
        E 0 90 3f 72
        E 120 80 3f 00
        E 0 90 3e 72
        E 120 80 3e 00
        E 0 90 3c 72
        E 120 80 3c 00
        E 0 90 3d 72
        E 120 80 3d 00
        E 0 90 3b 72
        E 120 80 3b 00
        E 0 90 39 72
        E 120 80 39 00
        E 0 90 3a 72
        E 120 80 3a 00
        E 120 90 52 72
        E 120 80 52 00
        E 0 90 51 72
        E 120 80 51 00
        E 0 90 4f 70
        E 120 80 4f 00
        E 0 90 50 72
        E 120 80 50 00
        E 0 90 4e 72
        E 120 80 4e 00
        E 0 90 4d 72
        E 120 80 4d 00
        E 0 90 4c 72
        E 120 80 4c 00
        E 0 90 4b 72
        E 120 80 4b 00
        E 0 90 49 72
        E 120 80 49 00
        E 0 90 4a 72
        E 120 80 4a 00
        E 0 90 48 72
        E 120 80 48 00
        E 0 90 47 72
        E 120 80 47 00
        E 0 90 44 72
        E 120 80 44 00
        E 0 90 45 72
        E 120 80 45 00
        E 0 90 41 72
        E 120 80 41 00
        E 0 90 42 72
        E 120 80 42 00
        E 0 90 43 72
        E 120 80 43 00
        E 120 90 40 72
        E 120 80 40 00
        E 0 90 3f 72
        E 120 80 3f 00
        E 0 90 3e 72
        E 120 80 3e 00
        E 0 90 3c 72
        E 120 80 3c 00
        E 0 90 3d 72
        E 120 80 3d 00
        E 0 90 3b 72
        E 120 80 3b 00
        E 0 90 39 72
        E 120 80 39 00
        E 0 90 3a 72
        E 120 80 3a 00
        E 20880 90 4f 60
        E 0 90 4e 60
        E 0 90 4d 60
        E 0 90 4c 60
        E 0 90 4b 60
        E 0 90 4a 60
        E 0 90 49 60
        E 0 90 48 60
        E 0 90 47 60
        E 0 90 46 60
        E 0 90 45 60
        E 0 90 44 60
        E 0 90 43 60
        E 240 80 4f 00
        E 0 80 4e 00
        E 0 80 4d 00
        E 0 80 4c 00
        E 0 80 4b 00
        E 0 80 4a 00
        E 0 80 49 00
        E 0 80 48 00
        E 0 80 47 00
        E 0 80 46 00
        E 0 80 45 00
        E 0 80 44 00
        E 0 80 43 00
        E 0 90 4f 60
        E 0 90 4e 60
        E 0 90 4d 60
        E 0 90 4c 60
        E 0 90 4b 60
        E 0 90 4a 60
        E 0 90 49 60
        E 0 90 48 60
        E 0 90 47 60
        E 0 90 46 60
        E 0 90 45 60
        E 0 90 44 60
        E 0 90 43 60
        E 240 80 4f 00
        E 0 80 4e 00
        E 0 80 4d 00
        E 0 80 4c 00
        E 0 80 4b 00
        E 0 80 4a 00
        E 0 80 49 00
        E 0 80 48 00
        E 0 80 47 00
        E 0 80 46 00
        E 0 80 45 00
        E 0 80 44 00
        E 0 80 43 00
        E 480 90 4f 60
        E 0 90 4e 60
        E 0 90 4d 60
        E 0 90 4c 60
        E 0 90 4b 60
        E 0 90 4a 60
        E 0 90 49 60
        E 0 90 48 60
        E 0 90 47 60
        E 0 90 46 60
        E 0 90 45 60
        E 0 90 44 60
        E 0 90 43 60
        E 240 80 4f 00
        E 0 80 4e 00
        E 0 80 4d 00
        E 0 80 4c 00
        E 0 80 4b 00
        E 0 80 4a 00
        E 0 80 49 00
        E 0 80 48 00
        E 0 80 47 00
        E 0 80 46 00
        E 0 80 45 00
        E 0 80 44 00
        E 0 80 43 00
        E 0 90 4f 60
        E 0 90 4e 60
        E 0 90 4d 60
        E 0 90 4c 60
        E 0 90 4b 60
        E 0 90 4a 60
        E 0 90 49 60
        E 0 90 48 60
        E 0 90 47 60
        E 0 90 46 60
        E 0 90 45 60
        E 0 90 44 60
        E 0 90 43 60
        E 240 80 4f 00
        E 0 80 4e 00
        E 0 80 4d 00
        E 0 80 4c 00
        E 0 80 4b 00
        E 0 80 4a 00
        E 0 80 49 00
        E 0 80 48 00
        E 0 80 47 00
        E 0 80 46 00
        E 0 80 45 00
        E 0 80 44 00
        E 0 80 43 00
        E 480 90 4f 60
        E 0 90 4e 60
        E 0 90 4d 60
        E 0 90 4c 60
        E 0 90 4b 60
        E 0 90 4a 60
        E 0 90 49 60
        E 0 90 48 60
        E 0 90 47 60
        E 0 90 46 60
        E 0 90 45 60
        E 0 90 44 60
        E 0 90 43 60
        E 240 80 4f 00
        E 0 80 4e 00
        E 0 80 4d 00
        E 0 80 4c 00
        E 0 80 4b 00
        E 0 80 4a 00
        E 0 80 49 00
        E 0 80 48 00
        E 0 80 47 00
        E 0 80 46 00
        E 0 80 45 00
        E 0 80 44 00
        E 0 80 43 00
        E 0 90 4f 60
        E 0 90 4e 60
        E 0 90 4d 60
        E 0 90 4c 60
        E 0 90 4b 60
        E 0 90 4a 60
        E 0 90 49 60
        E 0 90 48 60
        E 0 90 47 60
        E 0 90 46 60
        E 0 90 45 60
        E 0 90 44 60
        E 0 90 43 60
        E 240 80 4f 00
        E 0 80 4e 00
        E 0 80 4d 00
        E 0 80 4c 00
        E 0 80 4b 00
        E 0 80 4a 00
        E 0 80 49 00
        E 0 80 48 00
        E 0 80 47 00
        E 0 80 46 00
        E 0 80 45 00
        E 0 80 44 00
        E 0 80 43 00
        E 480 90 4f 60
        E 0 90 4e 60
        E 0 90 4d 60
        E 0 90 4c 60
        E 0 90 4b 60
        E 0 90 4a 60
        E 0 90 49 60
        E 0 90 48 60
        E 0 90 47 60
        E 0 90 46 60
        E 0 90 45 60
        E 0 90 44 60
        E 0 90 43 60
        E 240 80 4f 00
        E 0 80 4e 00
        E 0 80 4d 00
        E 0 80 4c 00
        E 0 80 4b 00
        E 0 80 4a 00
        E 0 80 49 00
        E 0 80 48 00
        E 0 80 47 00
        E 0 80 46 00
        E 0 80 45 00
        E 0 80 44 00
        E 0 80 43 00
        E 0 90 4f 60
        E 0 90 4e 60
        E 0 90 4d 60
        E 0 90 4c 60
        E 0 90 4b 60
        E 0 90 4a 60
        E 0 90 49 60
        E 0 90 48 60
        E 0 90 47 60
        E 0 90 46 60
        E 0 90 45 60
        E 0 90 44 60
        E 0 90 43 60
        E 240 80 4f 00
        E 0 80 4e 00
        E 0 80 4d 00
        E 0 80 4c 00
        E 0 80 4b 00
        E 0 80 4a 00
        E 0 80 49 00
        E 0 80 48 00
        E 0 80 47 00
        E 0 80 46 00
        E 0 80 45 00
        E 0 80 44 00
        E 0 80 43 00
        E 600 90 4f 60
        E 0 90 4e 60
        E 0 90 4d 60
        E 0 90 4c 60
        E 0 90 4b 60
        E 0 90 4a 60
        E 0 90 49 60
        E 0 90 48 60
        E 0 90 47 60
        E 0 90 46 60
        E 0 90 45 60
        E 0 90 44 60
        E 0 90 43 60
        E 240 80 4f 00
        E 0 80 4e 00
        E 0 80 4d 00
        E 0 80 4c 00
        E 0 80 4b 00
        E 0 80 4a 00
        E 0 80 49 00
        E 0 80 48 00
        E 0 80 47 00
        E 0 80 46 00
        E 0 80 45 00
        E 0 80 44 00
        E 0 80 43 00
        E 0 90 4f 60
        E 0 90 4e 60
        E 0 90 4d 60
        E 0 90 4c 60
        E 0 90 4b 60
        E 0 90 4a 60
        E 0 90 49 60
        E 0 90 48 60
        E 0 90 47 60
        E 0 90 46 60
        E 0 90 45 60
        E 0 90 44 60
        E 0 90 43 60
        E 240 80 4f 00
        E 0 80 4e 00
        E 0 80 4d 00
        E 0 80 4c 00
        E 0 80 4b 00
        E 0 80 4a 00
        E 0 80 49 00
        E 0 80 48 00
        E 0 80 47 00
        E 0 80 46 00
        E 0 80 45 00
        E 0 80 44 00
        E 0 80 43 00
        E 480 90 4f 60
        E 0 90 4e 60
        E 0 90 4d 60
        E 0 90 4c 60
        E 0 90 4b 60
        E 0 90 4a 60
        E 0 90 49 60
        E 0 90 48 60
        E 0 90 47 60
        E 0 90 46 60
        E 0 90 45 60
        E 0 90 44 60
        E 0 90 43 60
        E 240 80 4f 00
        E 0 80 4e 00
        E 0 80 4d 00
        E 0 80 4c 00
        E 0 80 4b 00
        E 0 80 4a 00
        E 0 80 49 00
        E 0 80 48 00
        E 0 80 47 00
        E 0 80 46 00
        E 0 80 45 00
        E 0 80 44 00
        E 0 80 43 00
        E 0 90 4f 60
        E 0 90 4e 60
        E 0 90 4d 60
        E 0 90 4c 60
        E 0 90 4b 60
        E 0 90 4a 60
        E 0 90 49 60
        E 0 90 48 60
        E 0 90 47 60
        E 0 90 46 60
        E 0 90 45 60
        E 0 90 44 60
        E 0 90 43 60
        E 240 80 4f 00
        E 0 80 4e 00
        E 0 80 4d 00
        E 0 80 4c 00
        E 0 80 4b 00
        E 0 80 4a 00
        E 0 80 49 00
        E 0 80 48 00
        E 0 80 47 00
        E 0 80 46 00
        E 0 80 45 00
        E 0 80 44 00
        E 0 80 43 00
        E 480 90 4f 60
        E 0 90 4e 60
        E 0 90 4d 60
        E 0 90 4c 60
        E 0 90 4b 60
        E 0 90 4a 60
        E 0 90 49 60
        E 0 90 48 60
        E 0 90 47 60
        E 0 90 46 60
        E 0 90 45 60
        E 0 90 44 60
        E 0 90 43 60
        E 240 80 4f 00
        E 0 80 4e 00
        E 0 80 4d 00
        E 0 80 4c 00
        E 0 80 4b 00
        E 0 80 4a 00
        E 0 80 49 00
        E 0 80 48 00
        E 0 80 47 00
        E 0 80 46 00
        E 0 80 45 00
        E 0 80 44 00
        E 0 80 43 00
        E 0 90 4f 60
        E 0 90 4e 60
        E 0 90 4d 60
        E 0 90 4c 60
        E 0 90 4b 60
        E 0 90 4a 60
        E 0 90 49 60
        E 0 90 48 60
        E 0 90 47 60
        E 0 90 46 60
        E 0 90 45 60
        E 0 90 44 60
        E 0 90 43 60
        E 240 80 4f 00
        E 0 80 4e 00
        E 0 80 4d 00
        E 0 80 4c 00
        E 0 80 4b 00
        E 0 80 4a 00
        E 0 80 49 00
        E 0 80 48 00
        E 0 80 47 00
        E 0 80 46 00
        E 0 80 45 00
        E 0 80 44 00
        E 0 80 43 00
        E 480 90 4f 60
        E 0 90 4e 60
        E 0 90 4d 60
        E 0 90 4c 60
        E 0 90 4b 60
        E 0 90 4a 60
        E 0 90 49 60
        E 0 90 48 60
        E 0 90 47 60
        E 0 90 46 60
        E 0 90 45 60
        E 0 90 44 60
        E 0 90 43 60
        E 240 80 4f 00
        E 0 80 4e 00
        E 0 80 4d 00
        E 0 80 4c 00
        E 0 80 4b 00
        E 0 80 4a 00
        E 0 80 49 00
        E 0 80 48 00
        E 0 80 47 00
        E 0 80 46 00
        E 0 80 45 00
        E 0 80 44 00
        E 0 80 43 00
        E 0 90 4f 60
        E 0 90 4e 60
        E 0 90 4d 60
        E 0 90 4c 60
        E 0 90 4b 60
        E 0 90 4a 60
        E 0 90 49 60
        E 0 90 48 60
        E 0 90 47 60
        E 0 90 46 60
        E 0 90 45 60
        E 0 90 44 60
        E 0 90 43 60
        E 240 80 4f 00
        E 0 80 4e 00
        E 0 80 4d 00
        E 0 80 4c 00
        E 0 80 4b 00
        E 0 80 4a 00
        E 0 80 49 00
        E 0 80 48 00
        E 0 80 47 00
        E 0 80 46 00
        E 0 80 45 00
        E 0 80 44 00
        E 0 80 43 00
        E 480 90 4f 60
        E 0 90 4e 60
        E 0 90 4d 60
        E 0 90 4c 60
        E 0 90 4b 60
        E 0 90 4a 60
        E 0 90 49 60
        E 0 90 48 60
        E 0 90 47 60
        E 0 90 46 60
        E 0 90 45 60
        E 0 90 44 60
        E 0 90 43 60
        E 240 80 4f 00
        E 0 80 4e 00
        E 0 80 4d 00
        E 0 80 4c 00
        E 0 80 4b 00
        E 0 80 4a 00
        E 0 80 49 00
        E 0 80 48 00
        E 0 80 47 00
        E 0 80 46 00
        E 0 80 45 00
        E 0 80 44 00
        E 0 80 43 00
        E 0 90 4f 60
        E 0 90 4e 60
        E 0 90 4d 60
        E 0 90 4c 60
        E 0 90 4b 60
        E 0 90 4a 60
        E 0 90 49 60
        E 0 90 48 60
        E 0 90 47 60
        E 0 90 46 60
        E 0 90 45 60
        E 0 90 44 60
        E 0 90 43 60
        E 240 80 4f 00
        E 0 80 4e 00
        E 0 80 4d 00
        E 0 80 4c 00
        E 0 80 4b 00
        E 0 80 4a 00
        E 0 80 49 00
        E 0 80 48 00
        E 0 80 47 00
        E 0 80 46 00
        E 0 80 45 00
        E 0 80 44 00
        E 0 80 43 00
        E 480 90 4f 60
        E 0 90 4e 60
        E 0 90 4d 60
        E 0 90 4c 60
        E 0 90 4b 60
        E 0 90 4a 60
        E 0 90 49 60
        E 0 90 48 60
        E 0 90 47 60
        E 0 90 46 60
        E 0 90 45 60
        E 0 90 44 60
        E 0 90 43 60
        E 240 80 4f 00
        E 0 80 4e 00
        E 0 80 4d 00
        E 0 80 4c 00
        E 0 80 4b 00
        E 0 80 4a 00
        E 0 80 49 00
        E 0 80 48 00
        E 0 80 47 00
        E 0 80 46 00
        E 0 80 45 00
        E 0 80 44 00
        E 0 80 43 00
        E 0 90 4f 60
        E 0 90 4e 60
        E 0 90 4d 60
        E 0 90 4c 60
        E 0 90 4b 60
        E 0 90 4a 60
        E 0 90 49 60
        E 0 90 48 60
        E 0 90 47 60
        E 0 90 46 60
        E 0 90 45 60
        E 0 90 44 60
        E 0 90 43 60
        E 240 80 4f 00
        E 0 80 4e 00
        E 0 80 4d 00
        E 0 80 4c 00
        E 0 80 4b 00
        E 0 80 4a 00
        E 0 80 49 00
        E 0 80 48 00
        E 0 80 47 00
        E 0 80 46 00
        E 0 80 45 00
        E 0 80 44 00
        E 0 80 43 00
        E 480 90 4f 60
        E 0 90 4e 60
        E 0 90 4d 60
        E 0 90 4c 60
        E 0 90 4b 60
        E 0 90 4a 60
        E 0 90 49 60
        E 0 90 48 60
        E 0 90 47 60
        E 0 90 46 60
        E 0 90 45 60
        E 0 90 44 60
        E 0 90 43 60
        E 240 80 4f 00
        E 0 80 4e 00
        E 0 80 4d 00
        E 0 80 4c 00
        E 0 80 4b 00
        E 0 80 4a 00
        E 0 80 49 00
        E 0 80 48 00
        E 0 80 47 00
        E 0 80 46 00
        E 0 80 45 00
        E 0 80 44 00
        E 0 80 43 00
        E 0 90 4f 60
        E 0 90 4e 60
        E 0 90 4d 60
        E 0 90 4c 60
        E 0 90 4b 60
        E 0 90 4a 60
        E 0 90 49 60
        E 0 90 48 60
        E 0 90 47 60
        E 0 90 46 60
        E 0 90 45 60
        E 0 90 44 60
        E 0 90 43 60
        E 240 80 4f 00
        E 0 80 4e 00
        E 0 80 4d 00
        E 0 80 4c 00
        E 0 80 4b 00
        E 0 80 4a 00
        E 0 80 49 00
        E 0 80 48 00
        E 0 80 47 00
        E 0 80 46 00
        E 0 80 45 00
        E 0 80 44 00
        E 0 80 43 00
        E 480 90 4f 60
        E 0 90 4e 60
        E 0 90 4d 60
        E 0 90 4c 60
        E 0 90 4b 60
        E 0 90 4a 60
        E 0 90 49 60
        E 0 90 48 60
        E 0 90 47 60
        E 0 90 46 60
        E 0 90 45 60
        E 0 90 44 60
        E 0 90 43 60
        E 240 80 4f 00
        E 0 80 4e 00
        E 0 80 4d 00
        E 0 80 4c 00
        E 0 80 4b 00
        E 0 80 4a 00
        E 0 80 49 00
        E 0 80 48 00
        E 0 80 47 00
        E 0 80 46 00
        E 0 80 45 00
        E 0 80 44 00
        E 0 80 43 00
        E 0 90 4f 60
        E 0 90 4e 60
        E 0 90 4d 60
        E 0 90 4c 60
        E 0 90 4b 60
        E 0 90 4a 60
        E 0 90 49 60
        E 0 90 48 60
        E 0 90 47 60
        E 0 90 46 60
        E 0 90 45 60
        E 0 90 44 60
        E 0 90 43 60
        E 240 80 4f 00
        E 0 80 4e 00
        E 0 80 4d 00
        E 0 80 4c 00
        E 0 80 4b 00
        E 0 80 4a 00
        E 0 80 49 00
        E 0 80 48 00
        E 0 80 47 00
        E 0 80 46 00
        E 0 80 45 00
        E 0 80 44 00
        E 0 80 43 00
        E 22920 90 4d 60
        E 0 90 4e 60
        E 0 90 4f 60
        E 0 90 4c 60
        E 0 90 49 60
        E 0 90 4a 60
        E 0 90 4b 60
        E 0 90 48 60
        E 0 90 45 60
        E 0 90 46 60
        E 0 90 47 60
        E 0 90 44 60
        E 0 90 41 60
        E 0 90 42 60
        E 0 90 43 60
        E 0 90 40 60
        E 480 80 4d 00
        E 0 80 4e 00
        E 0 80 4f 00
        E 0 80 4c 00
        E 0 80 49 00
        E 0 80 4a 00
        E 0 80 4b 00
        E 0 80 48 00
        E 0 80 45 00
        E 0 80 46 00
        E 0 80 47 00
        E 0 80 44 00
        E 0 80 41 00
        E 0 80 42 00
        E 0 80 43 00
        E 0 80 40 00
        E 0 90 4d 60
        E 0 90 4e 60
        E 0 90 4f 60
        E 0 90 4c 60
        E 0 90 49 60
        E 0 90 4a 60
        E 0 90 4b 60
        E 0 90 48 60
        E 0 90 45 60
        E 0 90 46 60
        E 0 90 47 60
        E 0 90 44 60
        E 0 90 41 60
        E 0 90 42 60
        E 0 90 43 60
        E 0 90 40 60
        E 480 80 4d 00
        E 0 80 4e 00
        E 0 80 4f 00
        E 0 80 4c 00
        E 0 80 49 00
        E 0 80 4a 00
        E 0 80 4b 00
        E 0 80 48 00
        E 0 80 45 00
        E 0 80 46 00
        E 0 80 47 00
        E 0 80 44 00
        E 0 80 41 00
        E 0 80 42 00
        E 0 80 43 00
        E 0 80 40 00
        E 960 90 4d 60
        E 0 90 4e 60
        E 0 90 4f 60
        E 0 90 4c 60
        E 0 90 49 60
        E 0 90 4a 60
        E 0 90 4b 60
        E 0 90 48 60
        E 0 90 45 60
        E 0 90 46 60
        E 0 90 47 60
        E 0 90 44 60
        E 0 90 41 60
        E 0 90 42 60
        E 0 90 43 60
        E 0 90 40 60
        E 480 80 4d 00
        E 0 80 4e 00
        E 0 80 4f 00
        E 0 80 4c 00
        E 0 80 49 00
        E 0 80 4a 00
        E 0 80 4b 00
        E 0 80 48 00
        E 0 80 45 00
        E 0 80 46 00
        E 0 80 47 00
        E 0 80 44 00
        E 0 80 41 00
        E 0 80 42 00
        E 0 80 43 00
        E 0 80 40 00
        E 0 90 4d 60
        E 0 90 4e 60
        E 0 90 4f 60
        E 0 90 4c 60
        E 0 90 49 60
        E 0 90 4a 60
        E 0 90 4b 60
        E 0 90 48 60
        E 0 90 45 60
        E 0 90 46 60
        E 0 90 47 60
        E 0 90 44 60
        E 0 90 41 60
        E 0 90 42 60
        E 0 90 43 60
        E 0 90 40 60
        E 480 80 4d 00
        E 0 80 4e 00
        E 0 80 4f 00
        E 0 80 4c 00
        E 0 80 49 00
        E 0 80 4a 00
        E 0 80 4b 00
        E 0 80 48 00
        E 0 80 45 00
        E 0 80 46 00
        E 0 80 47 00
        E 0 80 44 00
        E 0 80 41 00
        E 0 80 42 00
        E 0 80 43 00
        E 0 80 40 00
        E 960 90 4d 60
        E 0 90 4e 60
        E 0 90 4f 60
        E 0 90 4c 60
        E 0 90 49 60
        E 0 90 4a 60
        E 0 90 4b 60
        E 0 90 48 60
        E 0 90 45 60
        E 0 90 46 60
        E 0 90 47 60
        E 0 90 44 60
        E 0 90 41 60
        E 0 90 42 60
        E 0 90 43 60
        E 0 90 40 60
        E 480 80 4d 00
        E 0 80 4e 00
        E 0 80 4f 00
        E 0 80 4c 00
        E 0 80 49 00
        E 0 80 4a 00
        E 0 80 4b 00
        E 0 80 48 00
        E 0 80 45 00
        E 0 80 46 00
        E 0 80 47 00
        E 0 80 44 00
        E 0 80 41 00
        E 0 80 42 00
        E 0 80 43 00
        E 0 80 40 00
        E 0 90 4d 60
        E 0 90 4e 60
        E 0 90 4f 60
        E 0 90 4c 60
        E 0 90 49 60
        E 0 90 4a 60
        E 0 90 4b 60
        E 0 90 48 60
        E 0 90 45 60
        E 0 90 46 60
        E 0 90 47 60
        E 0 90 44 60
        E 0 90 41 60
        E 0 90 42 60
        E 0 90 43 60
        E 0 90 40 60
        E 480 80 4d 00
        E 0 80 4e 00
        E 0 80 4f 00
        E 0 80 4c 00
        E 0 80 49 00
        E 0 80 4a 00
        E 0 80 4b 00
        E 0 80 48 00
        E 0 80 45 00
        E 0 80 46 00
        E 0 80 47 00
        E 0 80 44 00
        E 0 80 41 00
        E 0 80 42 00
        E 0 80 43 00
        E 0 80 40 00
        E 960 90 4d 60
        E 0 90 4e 60
        E 0 90 4f 60
        E 0 90 4c 60
        E 0 90 49 60
        E 0 90 4a 60
        E 0 90 4b 60
        E 0 90 48 60
        E 0 90 45 60
        E 0 90 46 60
        E 0 90 47 60
        E 0 90 44 60
        E 0 90 41 60
        E 0 90 42 60
        E 0 90 43 60
        E 0 90 40 60
        E 480 80 4d 00
        E 0 80 4e 00
        E 0 80 4f 00
        E 0 80 4c 00
        E 0 80 49 00
        E 0 80 4a 00
        E 0 80 4b 00
        E 0 80 48 00
        E 0 80 45 00
        E 0 80 46 00
        E 0 80 47 00
        E 0 80 44 00
        E 0 80 41 00
        E 0 80 42 00
        E 0 80 43 00
        E 0 80 40 00
        E 0 90 4d 60
        E 0 90 4e 60
        E 0 90 4f 60
        E 0 90 4c 60
        E 0 90 49 60
        E 0 90 4a 60
        E 0 90 4b 60
        E 0 90 48 60
        E 0 90 45 60
        E 0 90 46 60
        E 0 90 47 60
        E 0 90 44 60
        E 0 90 41 60
        E 0 90 42 60
        E 0 90 43 60
        E 0 90 40 60
        E 480 80 4d 00
        E 0 80 4e 00
        E 0 80 4f 00
        E 0 80 4c 00
        E 0 80 49 00
        E 0 80 4a 00
        E 0 80 4b 00
        E 0 80 48 00
        E 0 80 45 00
        E 0 80 46 00
        E 0 80 47 00
        E 0 80 44 00
        E 0 80 41 00
        E 0 80 42 00
        E 0 80 43 00
        E 0 80 40 00
        E 2880 90 4d 60
        E 0 90 4e 60
        E 0 90 4f 60
        E 0 90 4c 60
        E 0 90 49 60
        E 0 90 4a 60
        E 0 90 4b 60
        E 0 90 48 60
        E 0 90 45 60
        E 0 90 46 60
        E 0 90 47 60
        E 0 90 44 60
        E 0 90 41 60
        E 0 90 42 60
        E 0 90 43 60
        E 0 90 40 60
        E 480 80 4d 00
        E 0 80 4e 00
        E 0 80 4f 00
        E 0 80 4c 00
        E 0 80 49 00
        E 0 80 4a 00
        E 0 80 4b 00
        E 0 80 48 00
        E 0 80 45 00
        E 0 80 46 00
        E 0 80 47 00
        E 0 80 44 00
        E 0 80 41 00
        E 0 80 42 00
        E 0 80 43 00
        E 0 80 40 00
        E 480 90 4d 60
        E 0 90 4e 60
        E 0 90 4f 60
        E 0 90 4c 60
        E 0 90 49 60
        E 0 90 4a 60
        E 0 90 4b 60
        E 0 90 48 60
        E 0 90 45 60
        E 0 90 46 60
        E 0 90 47 60
        E 0 90 44 60
        E 0 90 41 60
        E 0 90 42 60
        E 0 90 43 60
        E 0 90 40 60
        E 480 80 4d 00
        E 0 80 4e 00
        E 0 80 4f 00
        E 0 80 4c 00
        E 0 80 49 00
        E 0 80 4a 00
        E 0 80 4b 00
        E 0 80 48 00
        E 0 80 45 00
        E 0 80 46 00
        E 0 80 47 00
        E 0 80 44 00
        E 0 80 41 00
        E 0 80 42 00
        E 0 80 43 00
        E 0 80 40 00
        E 2400 90 4d 60
        E 0 90 4e 60
        E 0 90 4f 60
        E 0 90 4c 60
        E 0 90 49 60
        E 0 90 4a 60
        E 0 90 4b 60
        E 0 90 48 60
        E 0 90 45 60
        E 0 90 46 60
        E 0 90 47 60
        E 0 90 44 60
        E 0 90 41 60
        E 0 90 42 60
        E 0 90 43 60
        E 0 90 40 60
        E 480 80 4d 00
        E 0 80 4e 00
        E 0 80 4f 00
        E 0 80 4c 00
        E 0 80 49 00
        E 0 80 4a 00
        E 0 80 4b 00
        E 0 80 48 00
        E 0 80 45 00
        E 0 80 46 00
        E 0 80 47 00
        E 0 80 44 00
        E 0 80 41 00
        E 0 80 42 00
        E 0 80 43 00
        E 0 80 40 00
        E 480 90 4d 60
        E 0 90 4e 60
        E 0 90 4f 60
        E 0 90 4c 60
        E 0 90 49 60
        E 0 90 4a 60
        E 0 90 4b 60
        E 0 90 48 60
        E 0 90 45 60
        E 0 90 46 60
        E 0 90 47 60
        E 0 90 44 60
        E 0 90 41 60
        E 0 90 42 60
        E 0 90 43 60
        E 0 90 40 60
        E 480 80 4d 00
        E 0 80 4e 00
        E 0 80 4f 00
        E 0 80 4c 00
        E 0 80 49 00
        E 0 80 4a 00
        E 0 80 4b 00
        E 0 80 48 00
        E 0 80 45 00
        E 0 80 46 00
        E 0 80 47 00
        E 0 80 44 00
        E 0 80 41 00
        E 0 80 42 00
        E 0 80 43 00
        E 0 80 40 00
        E 960 90 4d 60
        E 0 90 4e 60
        E 0 90 4f 60
        E 0 90 4c 60
        E 0 90 49 60
        E 0 90 4a 60
        E 0 90 4b 60
        E 0 90 48 60
        E 0 90 45 60
        E 0 90 46 60
        E 0 90 47 60
        E 0 90 44 60
        E 0 90 41 60
        E 0 90 42 60
        E 0 90 43 60
        E 0 90 40 60
        E 480 80 4d 00
        E 0 80 4e 00
        E 0 80 4f 00
        E 0 80 4c 00
        E 0 80 49 00
        E 0 80 4a 00
        E 0 80 4b 00
        E 0 80 48 00
        E 0 80 45 00
        E 0 80 46 00
        E 0 80 47 00
        E 0 80 44 00
        E 0 80 41 00
        E 0 80 42 00
        E 0 80 43 00
        E 0 80 40 00
        E 480 90 4d 60
        E 0 90 4e 60
        E 0 90 4f 60
        E 0 90 4c 60
        E 0 90 49 60
        E 0 90 4a 60
        E 0 90 4b 60
        E 0 90 48 60
        E 0 90 45 60
        E 0 90 46 60
        E 0 90 47 60
        E 0 90 44 60
        E 0 90 41 60
        E 0 90 42 60
        E 0 90 43 60
        E 0 90 40 60
        E 480 80 4d 00
        E 0 80 4e 00
        E 0 80 4f 00
        E 0 80 4c 00
        E 0 80 49 00
        E 0 80 4a 00
        E 0 80 4b 00
        E 0 80 48 00
        E 0 80 45 00
        E 0 80 46 00
        E 0 80 47 00
        E 0 80 44 00
        E 0 80 41 00
        E 0 80 42 00
        E 0 80 43 00
        E 0 80 40 00
        E 480 90 4d 60
        E 0 90 4e 60
        E 0 90 4f 60
        E 0 90 4c 60
        E 0 90 49 60
        E 0 90 4a 60
        E 0 90 4b 60
        E 0 90 48 60
        E 0 90 45 60
        E 0 90 46 60
        E 0 90 47 60
        E 0 90 44 60
        E 0 90 41 60
        E 0 90 42 60
        E 0 90 43 60
        E 0 90 40 60
        E 480 80 4d 00
        E 0 80 4e 00
        E 0 80 4f 00
        E 0 80 4c 00
        E 0 80 49 00
        E 0 80 4a 00
        E 0 80 4b 00
        E 0 80 48 00
        E 0 80 45 00
        E 0 80 46 00
        E 0 80 47 00
        E 0 80 44 00
        E 0 80 41 00
        E 0 80 42 00
        E 0 80 43 00
        E 0 80 40 00
        E 480 90 4d 60
        E 0 90 4e 60
        E 0 90 4f 60
        E 0 90 4c 60
        E 0 90 49 60
        E 0 90 4a 60
        E 0 90 4b 60
        E 0 90 48 60
        E 0 90 45 60
        E 0 90 46 60
        E 0 90 47 60
        E 0 90 44 60
        E 0 90 41 60
        E 0 90 42 60
        E 0 90 43 60
        E 0 90 40 60
        E 480 80 4d 00
        E 0 80 4e 00
        E 0 80 4f 00
        E 0 80 4c 00
        E 0 80 49 00
        E 0 80 4a 00
        E 0 80 4b 00
        E 0 80 48 00
        E 0 80 45 00
        E 0 80 46 00
        E 0 80 47 00
        E 0 80 44 00
        E 0 80 41 00
        E 0 80 42 00
        E 0 80 43 00
        E 0 80 40 00
        E 480 90 4d 60
        E 0 90 4e 60
        E 0 90 4f 60
        E 0 90 4c 60
        E 0 90 49 60
        E 0 90 4a 60
        E 0 90 4b 60
        E 0 90 48 60
        E 0 90 45 60
        E 0 90 46 60
        E 0 90 47 60
        E 0 90 44 60
        E 0 90 41 60
        E 0 90 42 60
        E 0 90 43 60
        E 0 90 40 60
        E 480 80 4d 00
        E 0 80 4e 00
        E 0 80 4f 00
        E 0 80 4c 00
        E 0 80 49 00
        E 0 80 4a 00
        E 0 80 4b 00
        E 0 80 48 00
        E 0 80 45 00
        E 0 80 46 00
        E 0 80 47 00
        E 0 80 44 00
        E 0 80 41 00
        E 0 80 42 00
        E 0 80 43 00
        E 0 80 40 00
        E 480 90 4d 60
        E 0 90 4e 60
        E 0 90 4f 60
        E 0 90 4c 60
        E 0 90 49 60
        E 0 90 4a 60
        E 0 90 4b 60
        E 0 90 48 60
        E 0 90 45 60
        E 0 90 46 60
        E 0 90 47 60
        E 0 90 44 60
        E 0 90 41 60
        E 0 90 42 60
        E 0 90 43 60
        E 0 90 40 60
        E 480 80 4d 00
        E 0 80 4e 00
        E 0 80 4f 00
        E 0 80 4c 00
        E 0 80 49 00
        E 0 80 4a 00
        E 0 80 4b 00
        E 0 80 48 00
        E 0 80 45 00
        E 0 80 46 00
        E 0 80 47 00
        E 0 80 44 00
        E 0 80 41 00
        E 0 80 42 00
        E 0 80 43 00
        E 0 80 40 00
        E 480 90 4d 60
        E 0 90 4e 60
        E 0 90 4f 60
        E 0 90 4c 60
        E 0 90 49 60
        E 0 90 4a 60
        E 0 90 4b 60
        E 0 90 48 60
        E 0 90 45 60
        E 0 90 46 60
        E 0 90 47 60
        E 0 90 44 60
        E 0 90 41 60
        E 0 90 42 60
        E 0 90 43 60
        E 0 90 40 60
        E 480 80 4d 00
        E 0 80 4e 00
        E 0 80 4f 00
        E 0 80 4c 00
        E 0 80 49 00
        E 0 80 4a 00
        E 0 80 4b 00
        E 0 80 48 00
        E 0 80 45 00
        E 0 80 46 00
        E 0 80 47 00
        E 0 80 44 00
        E 0 80 41 00
        E 0 80 42 00
        E 0 80 43 00
        E 0 80 40 00
        E 480 90 4d 60
        E 0 90 4e 60
        E 0 90 4f 60
        E 0 90 4c 60
        E 0 90 49 60
        E 0 90 4a 60
        E 0 90 4b 60
        E 0 90 48 60
        E 0 90 45 60
        E 0 90 46 60
        E 0 90 47 60
        E 0 90 44 60
        E 0 90 41 60
        E 0 90 42 60
        E 0 90 43 60
        E 0 90 40 60
        E 480 80 4d 00
        E 0 80 4e 00
        E 0 80 4f 00
        E 0 80 4c 00
        E 0 80 49 00
        E 0 80 4a 00
        E 0 80 4b 00
        E 0 80 48 00
        E 0 80 45 00
        E 0 80 46 00
        E 0 80 47 00
        E 0 80 44 00
        E 0 80 41 00
        E 0 80 42 00
        E 0 80 43 00
        E 0 80 40 00
        E 480 90 4d 60
        E 0 90 4e 60
        E 0 90 4f 60
        E 0 90 4c 60
        E 0 90 49 60
        E 0 90 4a 60
        E 0 90 4b 60
        E 0 90 48 60
        E 0 90 45 60
        E 0 90 46 60
        E 0 90 47 60
        E 0 90 44 60
        E 0 90 41 60
        E 0 90 42 60
        E 0 90 43 60
        E 0 90 40 60
        E 480 80 4d 00
        E 0 80 4e 00
        E 0 80 4f 00
        E 0 80 4c 00
        E 0 80 49 00
        E 0 80 4a 00
        E 0 80 4b 00
        E 0 80 48 00
        E 0 80 45 00
        E 0 80 46 00
        E 0 80 47 00
        E 0 80 44 00
        E 0 80 41 00
        E 0 80 42 00
        E 0 80 43 00
        E 0 80 40 00
        E 1440 90 4d 60
        E 0 90 4e 60
        E 0 90 4f 60
        E 0 90 4c 60
        E 0 90 49 60
        E 0 90 4a 60
        E 0 90 4b 60
        E 0 90 48 60
        E 0 90 45 60
        E 0 90 46 60
        E 0 90 47 60
        E 0 90 44 60
        E 0 90 41 60
        E 0 90 42 60
        E 0 90 43 60
        E 0 90 40 60
        E 480 80 4d 00
        E 0 80 4e 00
        E 0 80 4f 00
        E 0 80 4c 00
        E 0 80 49 00
        E 0 80 4a 00
        E 0 80 4b 00
        E 0 80 48 00
        E 0 80 45 00
        E 0 80 46 00
        E 0 80 47 00
        E 0 80 44 00
        E 0 80 41 00
        E 0 80 42 00
        E 0 80 43 00
        E 0 80 40 00
        E 1440 90 4d 60
        E 0 90 4e 60
        E 0 90 4f 60
        E 0 90 4c 60
        E 0 90 49 60
        E 0 90 4a 60
        E 0 90 4b 60
        E 0 90 48 60
        E 0 90 45 60
        E 0 90 46 60
        E 0 90 47 60
        E 0 90 44 60
        E 0 90 41 60
        E 0 90 42 60
        E 0 90 43 60
        E 0 90 40 60
        E 480 80 4d 00
        E 0 80 4e 00
        E 0 80 4f 00
        E 0 80 4c 00
        E 0 80 49 00
        E 0 80 4a 00
        E 0 80 4b 00
        E 0 80 48 00
        E 0 80 45 00
        E 0 80 46 00
        E 0 80 47 00
        E 0 80 44 00
        E 0 80 41 00
        E 0 80 42 00
        E 0 80 43 00
        E 0 80 40 00
        E 1440 90 4d 60
        E 0 90 4e 60
        E 0 90 4f 60
        E 0 90 4c 60
        E 0 90 49 60
        E 0 90 4a 60
        E 0 90 4b 60
        E 0 90 48 60
        E 0 90 45 60
        E 0 90 46 60
        E 0 90 47 60
        E 0 90 44 60
        E 0 90 41 60
        E 0 90 42 60
        E 0 90 43 60
        E 0 90 40 60
        E 480 80 4d 00
        E 0 80 4e 00
        E 0 80 4f 00
        E 0 80 4c 00
        E 0 80 49 00
        E 0 80 4a 00
        E 0 80 4b 00
        E 0 80 48 00
        E 0 80 45 00
        E 0 80 46 00
        E 0 80 47 00
        E 0 80 44 00
        E 0 80 41 00
        E 0 80 42 00
        E 0 80 43 00
        E 0 80 40 00
        E 1440 90 4d 60
        E 0 90 4e 60
        E 0 90 4f 60
        E 0 90 4c 60
        E 0 90 49 60
        E 0 90 4a 60
        E 0 90 4b 60
        E 0 90 48 60
        E 0 90 45 60
        E 0 90 46 60
        E 0 90 47 60
        E 0 90 44 60
        E 0 90 41 60
        E 0 90 42 60
        E 0 90 43 60
        E 0 90 40 60
        E 480 80 4d 00
        E 0 80 4e 00
        E 0 80 4f 00
        E 0 80 4c 00
        E 0 80 49 00
        E 0 80 4a 00
        E 0 80 4b 00
        E 0 80 48 00
        E 0 80 45 00
        E 0 80 46 00
        E 0 80 47 00
        E 0 80 44 00
        E 0 80 41 00
        E 0 80 42 00
        E 0 80 43 00
        E 0 80 40 00
        E 1440 90 4d 60
        E 0 90 4e 60
        E 0 90 4f 60
        E 0 90 4c 60
        E 0 90 49 60
        E 0 90 4a 60
        E 0 90 4b 60
        E 0 90 48 60
        E 0 90 45 60
        E 0 90 46 60
        E 0 90 47 60
        E 0 90 44 60
        E 0 90 41 60
        E 0 90 42 60
        E 0 90 43 60
        E 0 90 40 60
        E 480 80 4d 00
        E 0 80 4e 00
        E 0 80 4f 00
        E 0 80 4c 00
        E 0 80 49 00
        E 0 80 4a 00
        E 0 80 4b 00
        E 0 80 48 00
        E 0 80 45 00
        E 0 80 46 00
        E 0 80 47 00
        E 0 80 44 00
        E 0 80 41 00
        E 0 80 42 00
        E 0 80 43 00
        E 0 80 40 00
        E 1440 90 4d 60
        E 0 90 4e 60
        E 0 90 4f 60
        E 0 90 4c 60
        E 0 90 49 60
        E 0 90 4a 60
        E 0 90 4b 60
        E 0 90 48 60
        E 0 90 45 60
        E 0 90 46 60
        E 0 90 47 60
        E 0 90 44 60
        E 0 90 41 60
        E 0 90 42 60
        E 0 90 43 60
        E 0 90 40 60
        E 480 80 4d 00
        E 0 80 4e 00
        E 0 80 4f 00
        E 0 80 4c 00
        E 0 80 49 00
        E 0 80 4a 00
        E 0 80 4b 00
        E 0 80 48 00
        E 0 80 45 00
        E 0 80 46 00
        E 0 80 47 00
        E 0 80 44 00
        E 0 80 41 00
        E 0 80 42 00
        E 0 80 43 00
        E 0 80 40 00
        E 1440 90 4d 60
        E 0 90 4e 60
        E 0 90 4f 60
        E 0 90 4c 60
        E 0 90 49 60
        E 0 90 4a 60
        E 0 90 4b 60
        E 0 90 48 60
        E 0 90 45 60
        E 0 90 46 60
        E 0 90 47 60
        E 0 90 44 60
        E 0 90 41 60
        E 0 90 42 60
        E 0 90 43 60
        E 0 90 40 60
        E 480 80 4d 00
        E 0 80 4e 00
        E 0 80 4f 00
        E 0 80 4c 00
        E 0 80 49 00
        E 0 80 4a 00
        E 0 80 4b 00
        E 0 80 48 00
        E 0 80 45 00
        E 0 80 46 00
        E 0 80 47 00
        E 0 80 44 00
        E 0 80 41 00
        E 0 80 42 00
        E 0 80 43 00
        E 0 80 40 00
        E 1440 90 4d 60
        E 0 90 4e 60
        E 0 90 4f 60
        E 0 90 4c 60
        E 0 90 49 60
        E 0 90 4a 60
        E 0 90 4b 60
        E 0 90 48 60
        E 0 90 45 60
        E 0 90 46 60
        E 0 90 47 60
        E 0 90 44 60
        E 0 90 41 60
        E 0 90 42 60
        E 0 90 43 60
        E 0 90 40 60
        E 480 80 4d 00
        E 0 80 4e 00
        E 0 80 4f 00
        E 0 80 4c 00
        E 0 80 49 00
        E 0 80 4a 00
        E 0 80 4b 00
        E 0 80 48 00
        E 0 80 45 00
        E 0 80 46 00
        E 0 80 47 00
        E 0 80 44 00
        E 0 80 41 00
        E 0 80 42 00
        E 0 80 43 00
        E 0 80 40 00
        E 1440 90 4d 60
        E 0 90 4e 60
        E 0 90 4f 60
        E 0 90 4c 60
        E 0 90 49 60
        E 0 90 4a 60
        E 0 90 4b 60
        E 0 90 48 60
        E 0 90 45 60
        E 0 90 46 60
        E 0 90 47 60
        E 0 90 44 60
        E 0 90 41 60
        E 0 90 42 60
        E 0 90 43 60
        E 0 90 40 60
        E 480 80 4d 00
        E 0 80 4e 00
        E 0 80 4f 00
        E 0 80 4c 00
        E 0 80 49 00
        E 0 80 4a 00
        E 0 80 4b 00
        E 0 80 48 00
        E 0 80 45 00
        E 0 80 46 00
        E 0 80 47 00
        E 0 80 44 00
        E 0 80 41 00
        E 0 80 42 00
        E 0 80 43 00
        E 0 80 40 00
        E 1440 90 4d 60
        E 0 90 4e 60
        E 0 90 4f 60
        E 0 90 4c 60
        E 0 90 49 60
        E 0 90 4a 60
        E 0 90 4b 60
        E 0 90 48 60
        E 0 90 45 60
        E 0 90 46 60
        E 0 90 47 60
        E 0 90 44 60
        E 0 90 41 60
        E 0 90 42 60
        E 0 90 43 60
        E 0 90 40 60
        E 480 80 4d 00
        E 0 80 4e 00
        E 0 80 4f 00
        E 0 80 4c 00
        E 0 80 49 00
        E 0 80 4a 00
        E 0 80 4b 00
        E 0 80 48 00
        E 0 80 45 00
        E 0 80 46 00
        E 0 80 47 00
        E 0 80 44 00
        E 0 80 41 00
        E 0 80 42 00
        E 0 80 43 00
        E 0 80 40 00
        E 1440 90 4d 60
        E 0 90 4e 60
        E 0 90 4f 60
        E 0 90 4c 60
        E 0 90 49 60
        E 0 90 4a 60
        E 0 90 4b 60
        E 0 90 48 60
        E 0 90 45 60
        E 0 90 46 60
        E 0 90 47 60
        E 0 90 44 60
        E 0 90 41 60
        E 0 90 42 60
        E 0 90 43 60
        E 0 90 40 60
        E 480 80 4d 00
        E 0 80 4e 00
        E 0 80 4f 00
        E 0 80 4c 00
        E 0 80 49 00
        E 0 80 4a 00
        E 0 80 4b 00
        E 0 80 48 00
        E 0 80 45 00
        E 0 80 46 00
        E 0 80 47 00
        E 0 80 44 00
        E 0 80 41 00
        E 0 80 42 00
        E 0 80 43 00
        E 0 80 40 00
        E 1440 90 4f 62
        E 0 90 4e 62
        E 0 90 4d 62
        E 0 90 4c 62
        E 0 90 4b 62
        E 0 90 4a 62
        E 0 90 49 62
        E 0 90 48 62
        E 0 90 47 62
        E 0 90 46 62
        E 0 90 45 62
        E 0 90 44 62
        E 0 90 43 62
        E 0 90 42 62
        E 0 90 41 62
        E 0 90 40 62
        E 0 90 3f 62
        E 0 90 3e 62
        E 0 90 3d 62
        E 0 90 3c 62
        E 0 90 3b 62
        E 0 90 3a 62
        E 1440 80 4f 00
        E 0 80 4e 00
        E 0 80 4d 00
        E 0 80 4c 00
        E 0 80 4b 00
        E 0 80 4a 00
        E 0 80 49 00
        E 0 80 48 00
        E 0 80 47 00
        E 0 80 46 00
        E 0 80 45 00
        E 0 80 44 00
        E 0 80 43 00
        E 0 80 42 00
        E 0 80 41 00
        E 0 80 40 00
        E 0 80 3f 00
        E 0 80 3e 00
        E 0 80 3d 00
        E 0 80 3c 00
        E 0 80 3b 00
        E 0 80 3a 00
        E 480 90 4f 62
        E 0 90 4e 62
        E 0 90 4d 62
        E 0 90 4c 62
        E 0 90 4b 62
        E 0 90 4a 62
        E 0 90 49 62
        E 0 90 48 62
        E 0 90 47 62
        E 0 90 46 62
        E 0 90 45 62
        E 0 90 44 62
        E 0 90 43 62
        E 0 90 42 62
        E 0 90 41 62
        E 0 90 40 62
        E 0 90 3f 62
        E 0 90 3e 62
        E 0 90 3d 62
        E 0 90 3c 62
        E 0 90 3b 62
        E 0 90 3a 62
        E 1440 80 4f 00
        E 0 80 4e 00
        E 0 80 4d 00
        E 0 80 4c 00
        E 0 80 4b 00
        E 0 80 4a 00
        E 0 80 49 00
        E 0 80 48 00
        E 0 80 47 00
        E 0 80 46 00
        E 0 80 45 00
        E 0 80 44 00
        E 0 80 43 00
        E 0 80 42 00
        E 0 80 41 00
        E 0 80 40 00
        E 0 80 3f 00
        E 0 80 3e 00
        E 0 80 3d 00
        E 0 80 3c 00
        E 0 80 3b 00
        E 0 80 3a 00
        E 480 90 4f 62
        E 0 90 4e 62
        E 0 90 4d 62
        E 0 90 4c 62
        E 0 90 4b 62
        E 0 90 4a 62
        E 0 90 49 62
        E 0 90 48 62
        E 0 90 47 62
        E 0 90 46 62
        E 0 90 45 62
        E 0 90 44 62
        E 0 90 43 62
        E 0 90 42 62
        E 0 90 41 62
        E 0 90 40 62
        E 0 90 3f 62
        E 0 90 3e 62
        E 0 90 3d 62
        E 0 90 3c 62
        E 0 90 3b 62
        E 0 90 3a 62
        E 1440 80 4f 00
        E 0 80 4e 00
        E 0 80 4d 00
        E 0 80 4c 00
        E 0 80 4b 00
        E 0 80 4a 00
        E 0 80 49 00
        E 0 80 48 00
        E 0 80 47 00
        E 0 80 46 00
        E 0 80 45 00
        E 0 80 44 00
        E 0 80 43 00
        E 0 80 42 00
        E 0 80 41 00
        E 0 80 40 00
        E 0 80 3f 00
        E 0 80 3e 00
        E 0 80 3d 00
        E 0 80 3c 00
        E 0 80 3b 00
        E 0 80 3a 00
        E 480 90 4f 62
        E 0 90 4e 62
        E 0 90 4d 62
        E 0 90 4c 62
        E 0 90 4b 62
        E 0 90 4a 62
        E 0 90 49 62
        E 0 90 48 62
        E 0 90 47 62
        E 0 90 46 62
        E 0 90 45 62
        E 0 90 44 62
        E 0 90 43 62
        E 0 90 42 62
        E 0 90 41 62
        E 0 90 40 62
        E 0 90 3f 62
        E 0 90 3e 62
        E 0 90 3d 62
        E 0 90 3c 62
        E 0 90 3b 62
        E 0 90 3a 62
        E 1440 80 4f 00
        E 0 80 4e 00
        E 0 80 4d 00
        E 0 80 4c 00
        E 0 80 4b 00
        E 0 80 4a 00
        E 0 80 49 00
        E 0 80 48 00
        E 0 80 47 00
        E 0 80 46 00
        E 0 80 45 00
        E 0 80 44 00
        E 0 80 43 00
        E 0 80 42 00
        E 0 80 41 00
        E 0 80 40 00
        E 0 80 3f 00
        E 0 80 3e 00
        E 0 80 3d 00
        E 0 80 3c 00
        E 0 80 3b 00
        E 0 80 3a 00
        E 480 90 4f 62
        E 0 90 4e 62
        E 0 90 4d 62
        E 0 90 4c 62
        E 0 90 4b 62
        E 0 90 4a 62
        E 0 90 49 62
        E 0 90 48 62
        E 0 90 47 62
        E 0 90 46 62
        E 0 90 45 62
        E 0 90 44 62
        E 0 90 43 62
        E 0 90 42 62
        E 0 90 41 62
        E 0 90 40 62
        E 0 90 3f 62
        E 0 90 3e 62
        E 0 90 3d 62
        E 0 90 3c 62
        E 0 90 3b 62
        E 0 90 3a 62
        E 2880 80 4f 00
        E 0 80 4e 00
        E 0 80 4d 00
        E 0 80 4c 00
        E 0 80 4b 00
        E 0 80 4a 00
        E 0 80 49 00
        E 0 80 48 00
        E 0 80 47 00
        E 0 80 46 00
        E 0 80 45 00
        E 0 80 44 00
        E 0 80 43 00
        E 0 80 42 00
        E 0 80 41 00
        E 0 80 40 00
        E 0 80 3f 00
        E 0 80 3e 00
        E 0 80 3d 00
        E 0 80 3c 00
        E 0 80 3b 00
        E 0 80 3a 00
        E 720 90 3c 62
        E 0 90 4d 62
        E 240 80 3c 00
        E 0 80 4d 00
        E 120 90 41 62
        E 0 90 4a 62
        E 240 80 4a 00
        E 0 90 46 62
        E 120 80 41 00
        E 120 90 3c 62
        E 240 80 46 00
        E 120 80 3c 00
        E 0 90 4e 62
        E 240 80 4e 00
        E 120 90 3f 62
        E 0 90 3a 62
        E 120 90 45 62
        E 120 90 4a 62
        E 0 90 34 62
        E 120 80 3f 00
        E 0 80 3a 00
        E 120 80 45 00
        E 0 80 4a 00
        E 0 80 34 00
        E 240 90 31 62
        E 240 80 31 00
        E 0 90 3d 62
        E 120 90 3a 62
        E 0 90 43 62
        E 120 80 3d 00
        E 0 90 49 62
        E 240 80 3a 00
        E 0 80 49 00
        E 120 90 45 62
        E 0 90 4b 62
        E 360 90 32 62
        E 120 80 45 00
        E 0 80 4b 00
        E 0 90 47 62
        E 120 80 32 00
        E 120 80 43 00
        E 0 90 3f 62
        E 120 80 47 00
        E 0 90 3b 62
        E 120 80 3f 00
        E 0 90 35 62
        E 360 80 3b 00
        E 0 80 35 00
        E 0 90 4e 62
        E 120 90 47 62
        E 240 80 47 00
        E 0 90 3f 62
        E 120 80 4e 00
        E 120 90 41 62
        E 0 90 49 62
        E 120 80 3f 00
        E 0 90 3b 62
        E 240 80 41 00
        E 0 90 34 62
        E 120 80 3b 00
        E 120 80 34 00
        E 0 90 32 62
        E 240 80 49 00
        E 0 80 32 00
        E 0 90 45 62
        E 120 90 4d 62
        E 240 80 4d 00
        E 0 90 36 62
        E 120 80 45 00
        E 120 90 32 62
        E 120 80 36 00
        E 0 90 3b 62
        E 240 80 32 00
        E 0 90 40 62
        E 120 90 4b 62
        E 360 80 40 00
        E 120 80 3b 00
        E 0 80 4b 00
        E 0 90 30 62
        E 240 80 30 00
        E 0 90 31 62
        E 240 80 31 00
        E 0 90 32 62
        E 240 80 32 00
        E 0 90 33 62
        E 240 80 33 00
        E 0 90 34 62
        E 240 80 34 00
        E 0 90 35 62
        E 240 80 35 00
        E 0 90 36 62
        E 240 80 36 00
        E 0 90 37 62
        E 240 80 37 00
        E 0 90 37 62
        E 240 80 37 00
        E 0 90 36 62
        E 240 80 36 00
        E 0 90 35 62
        E 240 80 35 00
        E 0 90 34 62
        E 240 80 34 00
        E 0 90 33 62
        E 240 80 33 00
        E 0 90 32 62
        E 240 80 32 00
        E 0 90 31 62
        E 240 80 31 00
        E 0 90 30 62
        E 240 80 30 00
        E 240 90 3d 62
        E 120 80 3d 00
        E 120 90 34 62
        E 120 90 3d 62
        E 120 90 41 62
        E 120 80 34 00
        E 0 80 3d 00
        E 0 90 4e 62
        E 120 80 41 00
        E 0 90 47 62
        E 120 80 4e 00
        E 0 90 30 62
        E 120 90 3f 62
        E 0 90 3a 62
        E 120 80 47 00
        E 0 90 45 62
        E 120 80 30 00
        E 0 90 4a 62
        E 0 90 35 62
        E 120 80 3f 00
        E 0 80 3a 00
        E 120 80 45 00
        E 0 80 4a 00
        E 120 80 35 00
        E 360 90 3d 62
        E 120 90 3a 62
        E 0 90 43 62
        E 120 80 3d 00
        E 0 90 49 62
        E 240 80 3a 00
        E 0 80 49 00
        E 0 90 34 62
        E 120 90 45 62
        E 0 90 4b 62
        E 240 80 34 00
        E 0 90 32 62
        E 240 80 45 00
        E 0 80 4b 00
        E 0 80 32 00
        E 0 90 47 62
        E 120 90 35 62
        E 120 80 43 00
        E 0 90 3f 62
        E 120 80 47 00
        E 0 80 35 00
        E 0 90 3b 62
        E 120 80 3f 00
        E 360 80 3b 00
        E 0 90 4e 62
        E 120 90 47 62
        E 0 90 31 62
        E 240 80 47 00
        E 0 90 3f 62
        E 120 80 4e 00
        E 0 80 31 00
        E 120 90 41 62
        E 0 90 49 62
        E 0 90 37 62
        E 120 80 3f 00
        E 0 80 37 00
        E 0 90 3b 62
        E 240 80 41 00
        E 120 80 3b 00
        E 240 90 3b 62
        E 120 80 49 00
        E 0 90 3f 62
        E 120 80 3b 00
        E 0 90 36 62
        E 0 90 44 62
        E 120 80 3f 00
        E 120 80 36 00
        E 0 90 33 62
        E 120 80 44 00
        E 0 90 4b 62
        E 120 90 40 62
        E 120 80 33 00
        E 120 80 4b 00
        E 120 80 40 00
        E 0 90 48 62
        E 120 90 34 62
        E 0 90 4e 62
        E 240 80 48 00
        E 0 90 3f 62
        E 120 80 34 00
        E 0 80 4e 00
        E 0 90 44 62
        E 120 80 3f 00
        E 0 90 3a 62
        E 120 80 44 00
        E 120 80 3a 00
        E 0 90 30 62
        E 240 80 30 00
        E 120 90 30 62
        E 240 80 30 00
        E 0 90 31 62
        E 240 80 31 00
        E 0 90 32 62
        E 240 80 32 00
        E 0 90 33 62
        E 240 80 33 00
        E 0 90 34 62
        E 240 80 34 00
        E 0 90 35 62
        E 240 80 35 00
        E 0 90 36 62
        E 240 80 36 00
        E 0 90 37 62
        E 240 80 37 00
        E 0 90 37 62
        E 240 80 37 00
        E 0 90 36 62
        E 240 80 36 00
        E 0 90 35 62
        E 240 80 35 00
        E 0 90 34 62
        E 240 80 34 00
        E 0 90 33 62
        E 240 80 33 00
        E 0 90 32 62
        E 240 80 32 00
        E 0 90 31 62
        E 240 80 31 00
        E 0 90 30 62
        E 240 80 30 00
        E 0 90 3d 62
        E 120 80 3d 00
        E 120 90 34 62
        E 240 90 3d 62
        E 0 90 41 62
        E 120 80 34 00
        E 0 90 4e 62
        E 120 80 3d 00
        E 0 80 41 00
        E 0 90 47 62
        E 0 90 3d 62
        E 120 80 4e 00
        E 0 90 30 62
        E 120 90 3f 62
        E 0 90 3a 62
        E 120 80 47 00
        E 0 80 3d 00
        E 0 90 45 62
        E 120 80 30 00
        E 0 90 4a 62
        E 0 90 35 62
        E 120 80 3f 00
        E 0 90 3f 62
        E 120 80 45 00
        E 0 80 4a 00
        E 120 80 35 00
        E 0 80 3f 00
        E 120 80 3a 00
        E 240 90 3d 62
        E 120 90 3a 62
        E 0 90 43 62
        E 120 80 3d 00
        E 0 90 49 62
        E 240 80 3a 00
        E 0 80 49 00
        E 0 90 34 62
        E 120 90 45 62
        E 0 90 4b 62
        E 240 80 34 00
        E 0 90 32 62
        E 59 80 43 00
        E 0 80 45 00
        E 0 80 4b 00
        E 0 80 32 00
        E 0 90 47 62
        E 0 90 3f 62
        E 301 90 35 62
        E 240 80 47 00
        E 0 80 35 00
        E 0 90 3b 62
        E 120 80 3f 00
        E 360 80 3b 00
        E 0 90 4e 62
        E 120 90 47 62
        E 0 90 31 62
        E 240 80 47 00
        E 0 90 3f 62
        E 120 80 4e 00
        E 0 80 31 00
        E 120 90 41 62
        E 0 90 49 62
        E 0 90 37 62
        E 120 80 3f 00
        E 0 80 37 00
        E 0 90 3b 62
        E 0 90 35 62
        E 240 80 41 00
        E 0 90 41 62
        E 120 80 3b 00
        E 0 80 35 00
        E 0 90 32 62
        E 120 80 41 00
        E 0 90 3f 62
        E 120 80 32 00
        E 0 90 3b 62
        E 0 90 3d 62
        E 120 80 49 00
        E 0 80 3f 00
        E 120 80 3b 00
        E 0 90 36 62
        E 0 90 44 62
        E 240 80 3d 00
        E 0 80 36 00
        E 0 90 33 62
        E 120 80 44 00
        E 0 90 4b 62
        E 120 90 40 62
        E 120 80 33 00
        E 120 80 4b 00
        E 120 80 40 00
        E 0 90 48 62
        E 120 90 34 62
        E 0 90 4e 62
        E 240 80 48 00
        E 0 90 3f 62
        E 120 80 34 00
        E 0 80 4e 00
        E 0 90 44 62
        E 120 80 3f 00
        E 0 90 3a 62
        E 120 80 44 00
        E 120 80 3a 00
        E 0 90 30 62
        E 240 80 30 00
        E 360 90 30 62
        E 240 80 30 00
        E 0 90 31 62
        E 240 80 31 00
        E 0 90 32 62
        E 240 80 32 00
        E 0 90 33 62
        E 240 80 33 00
        E 0 90 34 62
        E 240 80 34 00
        E 0 90 35 62
        E 240 80 35 00
        E 0 90 36 62
        E 240 80 36 00
        E 0 90 37 62
        E 240 80 37 00
        E 0 90 37 62
        E 240 80 37 00
        E 0 90 36 62
        E 240 80 36 00
        E 0 90 35 62
        E 240 80 35 00
        E 0 90 34 62
        E 240 80 34 00
        E 0 90 33 62
        E 240 80 33 00
        E 0 90 32 62
        E 240 80 32 00
        E 0 90 31 62
        E 240 80 31 00
        E 0 90 30 62
        E 240 80 30 00
        E 0 90 4a 62
        E 120 90 3c 62
        E 120 90 48 62
        E 120 90 41 62
        E 120 80 4a 00
        E 0 80 3c 00
        E 0 90 37 62
        E 0 90 45 62
        E 120 80 48 00
        E 0 80 41 00
        E 120 80 45 00
        E 120 80 37 00
        E 120 90 34 62
        E 120 90 4f 62
        E 120 90 3d 62
        E 0 90 41 62
        E 0 90 31 62
        E 120 80 34 00
        E 0 90 4d 62
        E 120 80 4f 00
        E 0 80 3d 00
        E 0 80 41 00
        E 0 80 31 00
        E 0 90 47 62
        E 0 90 3d 62
        E 120 80 4d 00
        E 120 90 3f 62
        E 0 90 3a 62
        E 120 80 47 00
        E 0 80 3d 00
        E 0 90 45 62
        E 120 90 4a 62
        E 0 90 35 62
        E 120 80 3f 00
        E 0 90 3f 62
        E 120 80 45 00
        E 0 80 4a 00
        E 120 80 35 00
        E 0 80 3f 00
        E 120 80 3a 00
        E 0 90 32 62
        E 240 80 32 00
        E 0 90 3d 62
        E 120 90 3a 62
        E 0 90 43 62
        E 120 80 3d 00
        E 0 90 49 62
        E 240 80 3a 00
        E 0 80 49 00
        E 0 90 34 62
        E 120 90 45 62
        E 0 90 4b 62
        E 120 90 39 62
        E 0 90 4c 62
        E 120 80 34 00
        E 0 90 32 62
        E 59 80 43 00
        E 0 80 45 00
        E 0 80 4b 00
        E 0 80 32 00
        E 0 90 47 62
        E 0 90 3f 62
        E 61 80 4c 00
        E 120 80 39 00
        E 120 90 35 62
        E 240 80 47 00
        E 0 80 35 00
        E 0 90 3b 62
        E 120 80 3f 00
        E 120 90 31 62
        E 0 90 37 62
        E 0 90 4c 62
        E 240 80 3b 00
        E 0 80 37 00
        E 0 90 34 62
        E 120 80 31 00
        E 0 80 4c 00
        E 0 90 47 62
        E 240 80 47 00
        E 0 90 3f 62
        E 120 90 30 62
        E 120 80 34 00
        E 0 90 41 62
        E 0 90 49 62
        E 0 90 37 62
        E 120 80 3f 00
        E 0 80 30 00
        E 0 80 37 00
        E 0 90 3b 62
        E 0 90 35 62
        E 240 80 41 00
        E 0 90 41 62
        E 120 80 3b 00
        E 0 80 35 00
        E 0 90 32 62
        E 120 80 41 00
        E 0 90 3f 62
        E 120 80 32 00
        E 0 90 3b 62
        E 0 90 3d 62
        E 120 80 49 00
        E 0 80 3f 00
        E 120 80 3b 00
        E 0 90 36 62
        E 0 90 44 62
        E 0 90 4d 62
        E 240 80 3d 00
        E 0 80 36 00
        E 0 90 33 62
        E 120 80 44 00
        E 0 90 4b 62
        E 0 90 39 62
        E 120 90 40 62
        E 120 80 4d 00
        E 0 80 33 00
        E 0 80 39 00
        E 0 90 3c 62
        E 0 90 44 62
        E 120 80 4b 00
        E 0 90 37 62
        E 120 80 40 00
        E 0 80 3c 00
        E 0 80 44 00
        E 120 80 37 00
        E 0 90 33 62
        E 0 90 48 62
        E 120 90 30 62
        E 0 90 46 62
        E 0 90 40 62
        E 120 80 33 00
        E 0 80 48 00
        E 0 80 30 00
        E 0 90 3b 62
        E 0 90 36 62
        E 120 80 46 00
        E 0 80 40 00
        E 0 90 32 62
        E 120 80 3b 00
        E 0 80 36 00
        E 120 80 32 00
        E 0 90 30 62
        E 240 80 30 00
        E 0 90 31 62
        E 240 80 31 00
        E 0 90 32 62
        E 240 80 32 00
        E 0 90 33 62
        E 240 80 33 00
        E 0 90 34 62
        E 240 80 34 00
        E 0 90 35 62
        E 240 80 35 00
        E 0 90 36 62
        E 240 80 36 00
        E 0 90 37 62
        E 240 80 37 00
        E 0 90 37 62
        E 240 80 37 00
        E 0 90 36 62
        E 240 80 36 00
        E 0 90 35 62
        E 240 80 35 00
        E 0 90 34 62
        E 240 80 34 00
        E 0 90 33 62
        E 240 80 33 00
        E 0 90 32 62
        E 240 80 32 00
        E 0 90 31 62
        E 240 80 31 00
        E 0 90 30 62
        E 240 80 30 00
        E 0 90 4a 62
        E 0 90 3c 62
        E 120 90 48 62
        E 120 90 41 62
        E 120 80 3c 00
        E 0 90 37 62
        E 0 90 45 62
        E 120 80 4a 00
        E 0 80 48 00
        E 0 80 41 00
        E 120 80 45 00
        E 120 80 37 00
        E 120 90 34 62
        E 240 90 3d 62
        E 0 90 41 62
        E 0 90 31 62
        E 0 90 4c 62
        E 120 80 34 00
        E 0 90 4e 62
        E 120 80 3d 00
        E 0 80 41 00
        E 0 80 31 00
        E 0 90 47 62
        E 0 90 3d 62
        E 120 80 4c 00
        E 120 80 4e 00
        E 0 90 3f 62
        E 0 90 3a 62
        E 120 80 47 00
        E 0 80 3d 00
        E 0 90 45 62
        E 120 90 4a 62
        E 0 90 35 62
        E 120 80 3f 00
        E 0 90 3f 62
        E 120 80 45 00
        E 0 80 4a 00
        E 120 80 35 00
        E 0 80 3f 00
        E 120 80 3a 00
        E 0 90 32 62
        E 240 80 32 00
        E 0 90 3d 62
        E 120 90 3a 62
        E 0 90 43 62
        E 120 80 3d 00
        E 0 90 49 62
        E 0 90 4d 62
        E 240 80 3a 00
        E 0 80 49 00
        E 0 80 4d 00
        E 0 90 34 62
        E 120 90 45 62
        E 0 90 4b 62
        E 120 90 39 62
        E 120 80 34 00
        E 0 90 32 62
        E 59 80 43 00
        E 0 80 45 00
        E 0 80 4b 00
        E 0 80 32 00
        E 0 90 47 62
        E 0 90 3f 62
        E 181 80 39 00
        E 120 90 35 62
        E 120 90 4a 62
        E 120 80 47 00
        E 0 80 35 00
        E 0 90 3b 62
        E 120 80 3f 00
        E 0 80 4a 00
        E 120 90 31 62
        E 0 90 37 62
        E 0 90 44 62
        E 120 90 4d 62
        E 120 80 3b 00
        E 0 80 37 00
        E 0 80 44 00
        E 0 90 34 62
        E 120 80 31 00
        E 0 80 4d 00
        E 0 90 47 62
        E 0 90 42 62
        E 240 80 47 00
        E 0 80 42 00
        E 0 90 3f 62
        E 120 90 30 62
        E 120 80 34 00
        E 0 90 41 62
        E 0 90 49 62
        E 0 90 37 62
        E 0 90 4d 62
        E 120 80 3f 00
        E 0 80 30 00
        E 0 80 37 00
        E 0 90 3b 62
        E 0 90 35 62
        E 0 90 45 62
        E 240 80 41 00
        E 0 80 4d 00
        E 0 80 45 00
        E 0 90 41 62
        E 120 80 3b 00
        E 0 80 35 00
        E 0 90 32 62
        E 120 80 41 00
        E 0 90 3f 62
        E 120 80 32 00
        E 0 90 3b 62
        E 0 90 3d 62
        E 120 80 49 00
        E 0 80 3f 00
        E 120 80 3b 00
        E 0 90 36 62
        E 0 90 44 62
        E 240 80 3d 00
        E 0 80 36 00
        E 0 90 33 62
        E 120 80 44 00
        E 0 90 4b 62
        E 0 90 39 62
        E 120 90 40 62
        E 120 80 33 00
        E 0 80 39 00
        E 0 90 3c 62
        E 0 90 44 62
        E 120 80 4b 00
        E 0 90 37 62
        E 120 80 40 00
        E 0 80 3c 00
        E 0 80 44 00
        E 120 80 37 00
        E 0 90 33 62
        E 0 90 48 62
        E 120 90 30 62
        E 0 90 46 62
        E 0 90 40 62
        E 120 80 33 00
        E 0 80 48 00
        E 0 80 30 00
        E 0 90 3b 62
        E 0 90 36 62
        E 120 80 46 00
        E 0 80 40 00
        E 0 90 32 62
        E 120 80 3b 00
        E 0 80 36 00
        E 120 80 32 00
        E 120 90 30 62
        E 240 80 30 00
        E 0 90 31 62
        E 240 80 31 00
        E 0 90 32 62
        E 240 80 32 00
        E 0 90 33 62
        E 240 80 33 00
        E 0 90 34 62
        E 240 80 34 00
        E 0 90 35 62
        E 240 80 35 00
        E 0 90 36 62
        E 240 80 36 00
        E 0 90 37 62
        E 240 80 37 00
        E 0 90 37 62
        E 240 80 37 00
        E 0 90 36 62
        E 240 80 36 00
        E 0 90 35 62
        E 240 80 35 00
        E 0 90 34 62
        E 240 80 34 00
        E 0 90 33 62
        E 240 80 33 00
        E 0 90 32 62
        E 240 80 32 00
        E 0 90 31 62
        E 240 80 31 00
        E 0 90 30 62
        E 240 80 30 00
        E 0 90 30 62
        E 240 80 30 00
        E 0 90 31 62
        E 240 80 31 00
        E 0 90 32 62
        E 240 80 32 00
        E 0 90 33 62
        E 240 80 33 00
        E 0 90 34 62
        E 240 80 34 00
        E 0 90 35 62
        E 240 80 35 00
        E 0 90 36 62
        E 240 80 36 00
        E 0 90 37 62
        E 240 80 37 00
        E 0 90 37 62
        E 240 80 37 00
        E 0 90 36 62
        E 240 80 36 00
        E 0 90 35 62
        E 240 80 35 00
        E 0 90 34 62
        E 240 80 34 00
        E 0 90 33 62
        E 240 80 33 00
        E 0 90 32 62
        E 240 80 32 00
        E 0 90 31 62
        E 240 80 31 00
        E 0 90 30 62
        E 240 80 30 00
        E 0 90 30 62
        E 240 80 30 00
        E 0 90 31 62
        E 240 80 31 00
        E 0 90 32 62
        E 240 80 32 00
        E 0 90 33 62
        E 240 80 33 00
        E 0 90 34 62
        E 240 80 34 00
        E 0 90 35 62
        E 240 80 35 00
        E 0 90 36 62
        E 240 80 36 00
        E 0 90 37 62
        E 240 80 37 00
        E 0 90 37 62
        E 240 80 37 00
        E 0 90 36 62
        E 240 80 36 00
        E 0 90 35 62
        E 240 80 35 00
        E 0 90 34 62
        E 240 80 34 00
        E 0 90 33 62
        E 240 80 33 00
        E 0 90 32 62
        E 240 80 32 00
        E 0 90 31 62
        E 240 80 31 00
        E 0 90 30 62
        E 240 80 30 00
        E 0 90 30 62
        E 240 80 30 00
        E 0 90 31 62
        E 240 80 31 00
        E 0 90 32 62
        E 240 80 32 00
        E 0 90 33 62
        E 240 80 33 00
        E 0 90 34 62
        E 240 80 34 00
        E 0 90 35 62
        E 240 80 35 00
        E 0 90 36 62
        E 240 80 36 00
        E 0 90 37 62
        E 240 80 37 00
        E 0 90 37 62
        E 240 80 37 00
        E 0 90 36 62
        E 240 80 36 00
        E 0 90 35 62
        E 240 80 35 00
        E 0 90 34 62
        E 240 80 34 00
        E 0 90 33 62
        E 240 80 33 00
        E 0 90 32 62
        E 240 80 32 00
        E 0 90 31 62
        E 240 80 31 00
        E 0 90 30 62
        E 240 80 30 00
        E 0 90 30 62
        E 240 80 30 00
        E 0 90 31 62
        E 240 80 31 00
        E 0 90 32 62
        E 240 80 32 00
        E 0 90 33 62
        E 240 80 33 00
        E 0 90 34 62
        E 240 80 34 00
        E 0 90 35 62
        E 240 80 35 00
        E 0 90 36 62
        E 240 80 36 00
        E 0 90 37 62
        E 240 80 37 00
        E 0 90 37 62
        E 240 80 37 00
        E 0 90 36 62
        E 240 80 36 00
        E 0 90 35 62
        E 240 80 35 00
        E 0 90 34 62
        E 240 80 34 00
        E 0 90 33 62
        E 240 80 33 00
        E 0 90 32 62
        E 240 80 32 00
        E 0 90 31 62
        E 240 80 31 00
        E 0 90 30 62
        E 240 80 30 00
        E 0 90 30 62
        E 240 80 30 00
        E 0 90 31 62
        E 240 80 31 00
        E 0 90 32 62
        E 240 80 32 00
        E 0 90 33 62
        E 240 80 33 00
        E 0 90 34 62
        E 240 80 34 00
        E 0 90 35 62
        E 240 80 35 00
        E 0 90 36 62
        E 240 80 36 00
        E 0 90 37 62
        E 240 80 37 00
        E 0 90 37 62
        E 240 80 37 00
        E 0 90 36 62
        E 240 80 36 00
        E 0 90 35 62
        E 240 80 35 00
        E 0 90 34 62
        E 240 80 34 00
        E 0 90 33 62
        E 240 80 33 00
        E 0 90 32 62
        E 240 80 32 00
        E 0 90 31 62
        E 240 80 31 00
        E 0 90 30 62
        E 240 80 30 00
        E 0 90 4a 62
        E 120 90 3a 62
        E 120 80 4a 00
        E 0 90 30 62
        E 120 90 40 62
        E 120 80 3a 00
        E 240 80 40 00
        E 0 90 36 62
        E 120 90 41 62
        E 120 80 30 00
        E 0 90 4a 62
        E 120 80 36 00
        E 0 90 45 62
        E 0 90 37 62
        E 0 90 4d 62
        E 120 80 41 00
        E 0 80 37 00
        E 0 90 4c 62
        E 120 90 3b 62
        E 0 90 3f 62
        E 120 80 4a 00
        E 0 80 45 00
        E 120 80 4d 00
        E 0 80 4c 00
        E 0 80 3f 00
        E 0 90 48 62
        E 120 80 3b 00
        E 0 90 3f 62
        E 120 90 35 62
        E 120 80 35 00
        E 120 80 3f 00
        E 120 80 48 00
        E 0 90 32 62
        E 0 90 4c 62
        E 120 90 38 62
        E 0 90 3f 62
        E 0 90 44 62
        E 240 80 32 00
        E 0 80 4c 00
        E 0 80 3f 00
        E 0 90 3a 62
        E 0 90 3d 62
        E 120 80 38 00
        E 0 80 44 00
        E 0 80 3a 00
        E 240 80 3d 00
        E 120 90 49 62
        E 240 90 40 62
        E 0 90 4c 62
        E 120 80 40 00
        E 0 90 38 62
        E 0 90 4e 62
        E 120 80 49 00
        E 0 90 33 62
        E 120 80 4c 00
        E 0 80 38 00
        E 0 80 33 00
        E 0 90 44 62
        E 120 80 4e 00
        E 0 90 3c 62
        E 240 80 44 00
        E 240 80 3c 00
        E 120 90 39 62
        E 0 90 34 62
        E 120 80 39 00
        E 0 90 43 62
        E 0 90 4a 62
        E 120 90 3e 62
        E 0 90 41 62
        E 120 80 4a 00
        E 0 80 3e 00
        E 0 90 48 62
        E 120 80 34 00
        E 0 80 43 00
        E 0 80 41 00
        E 0 80 48 00
        E 120 90 37 62
        E 120 90 46 62
        E 0 90 4b 62
        E 240 90 3a 62
        E 120 80 37 00
        E 0 80 4b 00
        E 120 90 32 62
        E 0 90 41 62
        E 120 80 46 00
        E 120 80 3a 00
        E 0 80 32 00
        E 0 80 41 00
        E 0 90 3e 62
        E 240 80 3e 00
        E 0 90 4a 62
        E 120 90 31 62
        E 0 90 4c 62
        E 120 90 41 62
        E 120 80 4a 00
        E 0 80 31 00
        E 0 80 41 00
        E 120 90 45 62
        E 0 90 4e 62
        E 120 80 4c 00
        E 0 80 4e 00
        E 0 90 39 62
        E 0 90 35 62
        E 0 90 48 62
        E 120 80 48 00
        E 0 90 3e 62
        E 120 80 45 00
        E 120 90 31 62
        E 120 80 35 00
        E 0 80 3e 00
        E 0 80 31 00
        E 240 80 39 00
        E 0 90 43 62
        E 240 80 43 00
        E 120 90 34 62
        E 0 90 3f 62
        E 0 90 4d 62
        E 240 90 31 62
        E 120 80 34 00
        E 0 80 4d 00
        E 0 90 39 62
        E 0 90 47 62
        E 120 90 4a 62
        E 120 80 31 00
        E 0 80 47 00
        E 0 90 3c 62
        E 120 80 3c 00
        E 120 80 3f 00
        E 0 80 4a 00
        E 0 90 45 62
        E 120 90 42 62
        E 0 90 36 62
        E 120 80 39 00
        E 0 90 32 62
        E 0 90 48 62
        E 120 80 45 00
        E 120 80 42 00
        E 0 80 36 00
        E 120 80 32 00
        E 0 90 39 62
        E 120 80 48 00
        E 0 90 3e 62
        E 240 80 39 00
        E 0 80 3e 00
        E 240 90 35 62
        E 0 90 32 62
        E 120 90 4a 62
        E 120 80 35 00
        E 0 90 42 62
        E 120 80 32 00
        E 0 80 42 00
        E 0 90 45 62
        E 0 90 39 62
        E 120 90 3d 62
        E 120 80 4a 00
        E 0 90 30 62
        E 120 80 45 00
        E 0 90 35 62
        E 120 80 39 00
        E 0 90 32 62
        E 120 80 3d 00
        E 120 80 30 00
        E 0 80 35 00
        E 0 80 32 00
        E 360 90 3c 62
        E 600 90 39 62
        E 0 90 34 62
        E 120 90 43 62
        E 0 90 4a 62
        E 120 80 3c 00
        E 0 90 3e 62
        E 0 90 41 62
        E 120 90 48 62
        E 120 80 39 00
        E 120 90 37 62
        E 120 80 4a 00
        E 0 80 3e 00
        E 0 90 46 62
        E 0 90 4b 62
        E 120 80 34 00
        E 0 80 43 00
        E 0 80 41 00
        E 0 80 48 00
        E 120 90 3a 62
        E 240 90 32 62
        E 0 90 41 62
        E 240 80 37 00
        E 0 80 4b 00
        E 0 90 3e 62
        E 240 80 46 00
        E 0 90 4a 62
        E 120 80 3a 00
        E 0 80 32 00
        E 0 80 41 00
        E 0 90 31 62
        E 0 90 4c 62
        E 120 90 41 62
        E 120 80 3e 00
        E 120 90 45 62
        E 120 90 39 62
        E 0 90 35 62
        E 0 90 48 62
        E 120 80 4a 00
        E 0 80 31 00
        E 0 80 41 00
        E 0 90 3e 62
        E 240 80 4c 00
        E 0 90 31 62
        E 120 80 48 00
        E 120 80 45 00
        E 240 80 35 00
        E 0 80 3e 00
        E 0 80 31 00
        E 240 80 39 00
        E 7920 90 30 60
        E 0 90 31 60
        E 0 90 32 60
        E 0 90 33 60
        E 0 90 34 60
        E 0 90 35 60
        E 0 90 36 60
        E 0 90 37 60
        E 0 90 38 60
        E 0 90 39 60
        E 0 90 3a 60
        E 0 90 3b 60
        E 0 90 3c 60
        E 0 90 41 60
        E 0 90 3d 60
        E 0 90 3e 60
        E 0 90 3f 60
        E 0 90 40 60
        E 0 90 42 60
        E 0 90 43 60
        E 0 90 44 60
        E 0 90 45 60
        E 0 90 46 60
        E 0 90 47 60
        E 0 90 48 60
        E 0 90 49 60
        E 0 90 4a 60
        E 0 90 4b 60
        E 0 90 4c 60
        E 0 90 4d 60
        E 0 90 4e 60
        E 0 90 4f 60
        E 480 80 30 00
        E 0 80 31 00
        E 0 80 32 00
        E 0 80 33 00
        E 0 80 34 00
        E 0 80 35 00
        E 0 80 36 00
        E 0 80 37 00
        E 0 80 38 00
        E 0 80 39 00
        E 0 80 3a 00
        E 0 80 3b 00
        E 0 80 3c 00
        E 0 80 41 00
        E 0 80 3d 00
        E 0 80 3e 00
        E 0 80 3f 00
        E 0 80 40 00
        E 0 80 42 00
        E 0 80 43 00
        E 0 80 44 00
        E 0 80 45 00
        E 0 80 46 00
        E 0 80 47 00
        E 0 80 48 00
        E 0 80 49 00
        E 0 80 4a 00
        E 0 80 4b 00
        E 0 80 4c 00
        E 0 80 4d 00
        E 0 80 4e 00
        E 0 80 4f 00
        E 480 90 30 60
        E 0 90 31 60
        E 0 90 32 60
        E 0 90 33 60
        E 0 90 34 60
        E 0 90 35 60
        E 0 90 36 60
        E 0 90 37 60
        E 0 90 38 60
        E 0 90 39 60
        E 0 90 3a 60
        E 0 90 3b 60
        E 0 90 3c 60
        E 0 90 41 60
        E 0 90 3d 60
        E 0 90 3e 60
        E 0 90 3f 60
        E 0 90 40 60
        E 0 90 42 60
        E 0 90 43 60
        E 0 90 44 60
        E 0 90 45 60
        E 0 90 46 60
        E 0 90 47 60
        E 0 90 48 60
        E 0 90 49 60
        E 0 90 4a 60
        E 0 90 4b 60
        E 0 90 4c 60
        E 0 90 4d 60
        E 0 90 4e 60
        E 0 90 4f 60
        E 480 80 30 00
        E 0 80 31 00
        E 0 80 32 00
        E 0 80 33 00
        E 0 80 34 00
        E 0 80 35 00
        E 0 80 36 00
        E 0 80 37 00
        E 0 80 38 00
        E 0 80 39 00
        E 0 80 3a 00
        E 0 80 3b 00
        E 0 80 3c 00
        E 0 80 41 00
        E 0 80 3d 00
        E 0 80 3e 00
        E 0 80 3f 00
        E 0 80 40 00
        E 0 80 42 00
        E 0 80 43 00
        E 0 80 44 00
        E 0 80 45 00
        E 0 80 46 00
        E 0 80 47 00
        E 0 80 48 00
        E 0 80 49 00
        E 0 80 4a 00
        E 0 80 4b 00
        E 0 80 4c 00
        E 0 80 4d 00
        E 0 80 4e 00
        E 0 80 4f 00
        E 480 90 30 60
        E 0 90 31 60
        E 0 90 32 60
        E 0 90 33 60
        E 0 90 34 60
        E 0 90 35 60
        E 0 90 36 60
        E 0 90 37 60
        E 0 90 38 60
        E 0 90 39 60
        E 0 90 3a 60
        E 0 90 3b 60
        E 0 90 3c 60
        E 0 90 41 60
        E 0 90 3d 60
        E 0 90 3e 60
        E 0 90 3f 60
        E 0 90 40 60
        E 0 90 42 60
        E 0 90 43 60
        E 0 90 44 60
        E 0 90 45 60
        E 0 90 46 60
        E 0 90 47 60
        E 0 90 48 60
        E 0 90 49 60
        E 0 90 4a 60
        E 0 90 4b 60
        E 0 90 4c 60
        E 0 90 4d 60
        E 0 90 4e 60
        E 0 90 4f 60
        E 480 80 30 00
        E 0 80 31 00
        E 0 80 32 00
        E 0 80 33 00
        E 0 80 34 00
        E 0 80 35 00
        E 0 80 36 00
        E 0 80 37 00
        E 0 80 38 00
        E 0 80 39 00
        E 0 80 3a 00
        E 0 80 3b 00
        E 0 80 3c 00
        E 0 80 41 00
        E 0 80 3d 00
        E 0 80 3e 00
        E 0 80 3f 00
        E 0 80 40 00
        E 0 80 42 00
        E 0 80 43 00
        E 0 80 44 00
        E 0 80 45 00
        E 0 80 46 00
        E 0 80 47 00
        E 0 80 48 00
        E 0 80 49 00
        E 0 80 4a 00
        E 0 80 4b 00
        E 0 80 4c 00
        E 0 80 4d 00
        E 0 80 4e 00
        E 0 80 4f 00
        E 480 90 30 60
        E 0 90 31 60
        E 0 90 32 60
        E 0 90 33 60
        E 0 90 34 60
        E 0 90 35 60
        E 0 90 36 60
        E 0 90 37 60
        E 0 90 38 60
        E 0 90 39 60
        E 0 90 3a 60
        E 0 90 3b 60
        E 0 90 3c 60
        E 0 90 41 60
        E 0 90 3d 60
        E 0 90 3e 60
        E 0 90 3f 60
        E 0 90 40 60
        E 0 90 42 60
        E 0 90 43 60
        E 0 90 44 60
        E 0 90 45 60
        E 0 90 46 60
        E 0 90 47 60
        E 0 90 48 60
        E 0 90 49 60
        E 0 90 4a 60
        E 0 90 4b 60
        E 0 90 4c 60
        E 0 90 4d 60
        E 0 90 4e 60
        E 0 90 4f 60
        E 480 80 30 00
        E 0 80 31 00
        E 0 80 32 00
        E 0 80 33 00
        E 0 80 34 00
        E 0 80 35 00
        E 0 80 36 00
        E 0 80 37 00
        E 0 80 38 00
        E 0 80 39 00
        E 0 80 3a 00
        E 0 80 3b 00
        E 0 80 3c 00
        E 0 80 41 00
        E 0 80 3d 00
        E 0 80 3e 00
        E 0 80 3f 00
        E 0 80 40 00
        E 0 80 42 00
        E 0 80 43 00
        E 0 80 44 00
        E 0 80 45 00
        E 0 80 46 00
        E 0 80 47 00
        E 0 80 48 00
        E 0 80 49 00
        E 0 80 4a 00
        E 0 80 4b 00
        E 0 80 4c 00
        E 0 80 4d 00
        E 0 80 4e 00
        E 0 80 4f 00
        E 480 90 3c 60
        E 0 90 31 60
        E 0 90 42 60
        E 0 90 43 60
        E 0 90 4e 60
        E 0 90 4d 60
        E 0 90 30 60
        E 0 90 37 60
        E 0 90 38 60
        E 0 90 3a 60
        E 0 90 45 60
        E 0 90 3d 60
        E 0 90 4f 60
        E 26880 90 3e 5c
        E 7680 90 3f 5c
        E 22920 90 47 5c
        E 11880 90 46 5c
        E 45840 80 3c 00
        E 0 80 31 00
        E 0 80 42 00
        E 0 80 43 00
        E 0 80 4e 00
        E 0 80 4d 00
        E 0 80 30 00
        E 0 80 37 00
        E 0 80 38 00
        E 0 80 3a 00
        E 0 80 45 00
        E 0 80 3d 00
        E 0 80 4f 00
        E 0 80 3e 00
        E 0 80 3f 00
        E 0 80 47 00
        E 0 80 46 00
        e 410880 90 4f 7f
        e 0 90 4c 7f
        e 0 90 4d 7f
        e 120 80 4c 00
        e 0 80 4d 00
        e 0 90 4c 7f
        e 0 90 4e 7f
        e 120 80 4c 00
        e 0 90 4c 7f
        e 0 90 4d 7f
        e 120 80 4e 00
        e 0 80 4c 00
        e 0 90 4c 7f
        e 120 80 4d 00
        e 0 80 4c 00
        e 0 90 4c 7f
        e 0 90 4e 7f
        e 120 80 4c 00
        e 0 80 4e 00
        e 0 90 4c 7f
        e 0 90 4e 7f
        e 0 90 4d 7f
        e 120 80 4c 00
        e 0 80 4e 00
        e 0 80 4d 00
        e 0 90 4c 7f
        e 120 80 4c 00
        e 0 90 4e 7f
        e 0 90 4c 7f
        e 0 90 4d 7f
        e 120 80 4c 00
        e 0 80 4d 00
        e 0 90 4c 7f
        e 120 80 4e 00
        e 0 80 4c 00
        e 0 90 4c 7f
        e 0 90 4d 7f
        e 120 80 4c 00
        e 0 80 4d 00
        e 0 90 4c 7f
        e 0 90 4e 7f
        e 120 80 4c 00
        e 0 90 4c 7f
        e 0 90 4d 7f
        e 120 80 4e 00
        e 0 80 4c 00
        e 0 80 4d 00
        e 0 90 4c 7f
        e 0 90 4d 7f
        e 120 80 4c 00
        e 0 80 4d 00
        e 0 90 4c 7f
        e 0 90 4e 7f
        e 120 80 4c 00
        e 0 80 4e 00
        e 0 90 4c 7f
        e 0 90 4e 7f
        e 120 80 4c 00
        e 0 80 4e 00
        e 0 90 4c 7f
        e 0 90 4d 7f
        e 120 80 4c 00
        e 0 80 4d 00
        e 0 90 4c 7f
        e 0 90 4e 7f
        e 0 90 4d 7f
        e 120 80 4c 00
        e 0 80 4d 00
        e 0 90 4c 7f
        e 120 80 4e 00
        e 0 80 4c 00
        e 0 90 4c 7f
        e 0 90 4d 7f
        e 120 80 4c 00
        e 0 90 4c 7f
        e 0 90 4e 7f
        e 120 80 4c 00
        e 0 90 4c 7f
        e 120 80 4e 00
        e 0 80 4c 00
        e 0 90 4c 7f
        e 120 80 4d 00
        e 0 80 4c 00
        e 0 90 4c 7f
        e 0 90 4e 7f
        e 120 80 4c 00
        e 0 80 4e 00
        e 0 90 4c 7f
        e 0 90 4e 7f
        e 120 80 4c 00
        e 0 80 4e 00
        e 0 90 4c 7f
        e 0 90 4d 7f
        e 120 80 4c 00
        e 0 90 4c 7f
        e 0 90 4e 7f
        e 120 80 4c 00
        e 0 90 4c 7f
        e 120 80 4e 00
        e 0 80 4c 00
        e 0 90 4c 7f
        e 120 80 4d 00
        e 0 80 4c 00
        e 0 90 4c 7f
        e 0 90 4e 7f
        e 120 80 4c 00
        e 0 90 4c 7f
        e 120 80 4e 00
        e 0 80 4c 00
        e 0 90 4d 7f
        e 0 90 4c 7f
        e 120 80 4c 00
        e 0 90 4c 7f
        e 0 90 4e 7f
        e 120 80 4c 00
        e 0 80 4e 00
        e 0 90 4c 7f
        e 0 90 4e 7f
        e 120 80 4c 00
        e 0 80 4e 00
        e 0 90 4c 7f
        e 120 80 4d 00
        e 0 80 4c 00
        e 0 90 4c 7f
        e 0 90 4e 7f
        e 120 80 4c 00
        e 0 90 4c 7f
        e 120 80 4e 00
        e 0 80 4c 00
        e 0 90 4c 7f
        e 0 90 4d 7f
        e 120 80 4c 00
        e 0 90 4c 7f
        e 0 90 4e 7f
        e 0 90 4c 7f
        e 120 80 4c 00
        e 0 90 4c 7f
        e 120 80 4e 00
        e 0 80 4c 00
        e 0 90 4c 7f
        e 120 80 4d 00
        e 0 80 4c 00
        e 0 90 4c 7f
        e 0 90 4e 7f
        e 120 80 4c 00
        e 0 80 4e 00
        e 0 90 4c 7f
        e 0 90 4e 7f
        e 0 90 4d 7f
        e 120 80 4c 00
        e 0 80 4e 00
        e 0 90 4c 7f
        e 120 80 4c 00
        e 0 90 4c 7f
        e 0 90 4e 7f
        e 120 80 4c 00
        e 0 80 4c 00
        e 0 90 4c 7f
        e 120 80 4d 00
        e 0 80 4e 00
        e 0 80 4c 00
        e 0 90 4c 7f
        e 120 80 4c 00
        e 0 90 4c 7f
        e 0 90 4e 7f
        e 0 90 4d 7f
        e 120 80 4c 00
        e 0 90 4c 7f
        e 120 80 4e 00
        e 0 80 4c 00
        e 0 90 4c 7f
        e 120 80 4d 00
        e 0 80 4c 00
        e 0 90 4c 7f
        e 0 90 4e 7f
        e 120 80 4c 00
        e 0 80 4e 00
        e 0 90 4c 7f
        e 0 90 4e 7f
        e 120 80 4c 00
        e 0 80 4e 00
        e 0 90 4d 7f
        e 0 90 4c 7f
        e 120 80 4d 00
        e 0 80 4c 00
        e 0 90 4c 7f
        e 0 90 4e 7f
        e 120 80 4c 00
        e 0 90 4c 7f
        e 120 80 4e 00
        e 0 80 4c 00
        e 0 90 4c 7f
        e 0 90 4d 7f
        e 120 80 4c 00
        e 0 80 4d 00
        e 0 90 4c 7f
        e 0 90 4e 7f
        e 0 90 4d 7f
        e 120 80 4c 00
        e 0 80 4e 00
        e 0 80 4d 00
        e 0 90 4c 7f
        e 0 90 4e 7f
        e 0 90 4d 7f
        e 120 80 4c 00
        e 0 80 4e 00
        e 0 80 4d 00
        e 0 90 4c 7f
        e 0 90 4e 7f
        e 0 90 4d 7f
        e 120 80 4c 00
        e 0 80 4e 00
        e 0 80 4d 00
        e 0 90 4c 7f
        e 0 90 4e 7f
        e 0 90 4d 7f
        e 120 80 4c 00
        e 0 80 4e 00
        e 0 80 4d 00
        e 0 90 4c 7f
        e 0 90 4e 7f
        e 0 90 4d 7f
        e 120 80 4c 00
        e 0 80 4e 00
        e 0 80 4d 00
        e 0 90 4c 7f
        e 0 90 4e 7f
        e 0 90 4d 7f
        e 120 80 4c 00
        e 0 80 4e 00
        e 0 80 4d 00
        e 0 90 4c 7f
        e 0 90 4e 7f
        e 0 90 4d 7f
        e 120 80 4c 00
        e 0 80 4e 00
        e 0 80 4d 00
        e 0 90 4c 7f
        e 0 90 4e 7f
        e 0 90 4d 7f
        e 120 80 4c 00
        e 0 80 4e 00
        e 0 80 4d 00
        e 0 90 4c 7f
        e 0 90 4e 7f
        e 0 90 4d 7f
        e 120 80 4c 00
        e 0 80 4e 00
        e 0 80 4d 00
        e 0 90 4c 7f
        e 0 90 4e 7f
        e 0 90 4d 7f
        e 120 80 4c 00
        e 0 80 4e 00
        e 0 80 4d 00
        e 0 90 4c 7f
        e 0 90 4e 7f
        e 0 90 4d 7f
        e 120 80 4c 00
        e 0 80 4e 00
        e 0 80 4d 00
        e 0 90 4c 7f
        e 0 90 4e 7f
        e 0 90 4d 7f
        e 120 80 4c 00
        e 0 80 4e 00
        e 0 80 4d 00
        e 0 90 4c 7f
        e 0 90 4e 7f
        e 0 90 4d 7f
        e 120 80 4c 00
        e 0 80 4e 00
        e 0 80 4d 00
        e 0 90 4c 7f
        e 0 90 4e 7f
        e 0 90 4d 7f
        e 120 80 4c 00
        e 0 80 4e 00
        e 0 80 4d 00
        e 0 90 4c 7f
        e 0 90 4d 7f
        e 120 80 4c 00
        e 0 90 4c 7f
        e 0 90 4e 7f
        e 120 80 4c 00
        e 0 80 4e 00
        e 0 90 4c 7f
        e 120 80 4c 00
        e 0 90 4c 7f
        e 0 90 4e 7f
        e 120 80 4c 00
        e 0 90 4c 7f
        e 120 80 4e 00
        e 0 80 4c 00
        e 0 90 4c 7f
        e 0 90 4e 7f
        e 120 80 4c 00
        e 0 80 4e 00
        e 0 90 4c 7f
        e 120 80 4c 00
        e 0 90 4c 7f
        e 0 90 4e 7f
        e 120 80 4c 00
        e 0 90 4c 7f
        e 120 80 4c 00
        e 0 90 4c 7f
        e 120 80 4e 00
        e 0 80 4c 00
        e 0 90 4c 7f
        e 120 80 4c 00
        e 0 90 4c 7f
        e 0 90 4e 7f
        e 120 80 4c 00
        e 0 80 4e 00
        e 0 90 4c 7f
        e 0 90 4e 7f
        e 120 80 4c 00
        e 0 80 4e 00
        e 0 90 4c 7f
        e 0 90 4e 7f
        e 120 80 4c 00
        e 0 80 4e 00
        e 0 90 4c 7f
        e 0 90 4e 7f
        e 120 80 4c 00
        e 0 80 4e 00
        e 0 90 4c 7f
        e 0 90 4e 7f
        e 120 80 4c 00
        e 0 80 4e 00
        e 0 90 4c 7f
        e 0 90 4e 7f
        e 120 80 4c 00
        e 0 80 4e 00
        e 0 90 4c 7f
        e 0 90 4e 7f
        e 120 80 4c 00
        e 0 80 4e 00
        e 0 90 4c 7f
        e 120 80 4d 00
        e 0 80 4c 00
        e 0 90 4c 7f
        e 0 90 4e 7f
        e 0 90 4d 7f
        e 120 80 4c 00
        e 0 80 4d 00
        e 0 90 4c 7f
        e 0 90 4d 7f
        e 120 80 4c 00
        e 0 80 4d 00
        e 0 90 4c 7f
        e 0 90 4d 7f
        e 120 80 4e 00
        e 0 80 4c 00
        e 0 80 4d 00
        e 0 90 4c 7f
        e 0 90 4d 7f
        e 120 80 4c 00
        e 0 80 4d 00
        e 0 90 4e 7f
        e 0 90 4c 7f
        e 0 90 4d 7f
        e 120 80 4e 00
        e 0 80 4c 00
        e 0 80 4d 00
        e 0 90 4c 7f
        e 0 90 4d 7f
        e 120 80 4c 00
        e 0 80 4d 00
        e 0 90 4c 7f
        e 0 90 4e 7f
        e 0 90 4d 7f
        e 120 80 4c 00
        e 0 80 4d 00
        e 0 90 4c 7f
        e 0 90 4d 7f
        e 120 80 4c 00
        e 0 80 4d 00
        e 0 90 4c 7f
        e 0 90 4d 7f
        E 0 90 3d 7f
        e 120 80 4c 00
        e 0 80 4d 00
        e 0 90 4c 7f
        e 0 90 4d 7f
        e 120 80 4e 00
        e 0 80 4c 00
        e 0 80 4d 00
        e 0 90 4c 7f
        e 0 90 4d 7f
        e 120 80 4c 00
        e 0 80 4d 00
        e 0 90 4c 7f
        e 0 90 4e 77
        e 0 90 4d 7f
        e 120 80 4c 00
        e 0 80 4e 00
        e 0 80 4d 00
        e 0 90 4c 7f
        e 0 90 4e 77
        e 0 90 4d 7f
        e 120 80 4c 00
        e 0 80 4e 00
        e 0 80 4d 00
        e 0 90 4c 7f
        e 0 90 4e 77
        e 0 90 4d 7f
        e 120 80 4c 00
        e 0 80 4e 00
        e 0 80 4d 00
        e 0 90 4c 7f
        e 0 90 4d 7f
        e 120 80 4c 00
        e 0 80 4d 00
        e 0 90 4c 7f
        e 0 90 4e 77
        e 120 80 4c 00
        e 0 80 4e 00
        e 0 90 4c 7f
        e 0 90 4e 77
        e 120 80 4c 00
        e 0 80 4e 00
        e 0 90 4c 7f
        e 0 90 4e 77
        e 120 80 4c 00
        e 0 80 4e 00
        e 0 90 4d 7f
        e 0 90 4c 7f
        e 120 80 4c 00
        e 0 90 4c 7f
        e 0 90 4e 77
        e 120 80 4c 00
        e 0 80 4e 00
        e 0 90 4c 7f
        e 0 90 4e 77
        e 120 80 4c 00
        e 0 80 4e 00
        e 0 90 4c 7f
        e 120 80 4c 00
        e 0 90 4c 7f
        e 0 90 4e 77
        e 120 80 4c 00
        e 0 80 4e 00
        e 0 90 4c 7f
        e 0 90 4e 77
        e 120 80 4c 00
        e 0 80 4e 00
        e 0 90 4c 7f
        e 0 90 4e 77
        e 120 80 4c 00
        e 0 80 4e 00
        e 0 90 4c 7f
        e 120 80 4c 00
        e 0 90 4c 7f
        e 0 90 4e 77
        e 120 80 4c 00
        e 0 80 4e 00
        e 0 90 4c 7f
        e 0 90 4e 77
        e 120 80 4c 00
        e 0 80 4e 00
        e 0 90 4c 7f
        e 0 90 4e 77
        e 120 80 4c 00
        e 0 80 4e 00
        e 0 90 4c 7f
        e 120 80 4c 00
        e 0 90 4c 7f
        e 0 90 4e 77
        e 120 80 4c 00
        e 0 80 4e 00
        e 0 90 4c 7f
        e 0 90 4e 77
        e 120 80 4d 00
        e 0 80 4c 00
        e 0 80 4e 00
        e 0 90 4c 7f
        e 0 90 4e 77
        e 0 90 4d 7f
        e 120 80 4c 00
        e 0 80 4e 00
        e 0 80 4d 00
        e 0 90 4c 7f
        e 0 90 4e 77
        e 120 80 4c 00
        e 0 80 4e 00
        e 0 90 4d 7f
        e 0 90 4c 7f
        e 0 90 4e 77
        e 120 80 4c 00
        e 0 80 4e 00
        e 0 90 4c 7f
        e 120 80 4c 00
        e 0 90 4c 7f
        e 0 90 4e 77
        e 120 80 4c 00
        e 0 80 4e 00
        e 0 90 4c 7f
        e 0 90 4e 77
        e 120 80 4c 00
        e 0 80 4e 00
        e 0 90 4c 7f
        e 0 90 4e 77
        e 120 80 4c 00
        e 0 80 4e 00
        e 0 90 4c 7f
        e 120 80 4c 00
        e 0 90 4c 7f
        e 0 90 4e 77
        e 120 80 4c 00
        e 0 80 4e 00
        e 0 90 4c 7f
        e 0 90 4e 77
        e 120 80 4d 00
        e 0 80 4c 00
        e 0 80 4e 00
        e 0 90 4c 7f
        e 0 90 4e 77
        e 120 80 4c 00
        e 0 90 4c 7f
        e 120 80 4c 00
        e 0 90 4c 7f
        e 120 80 4e 00
        e 0 80 4c 00
        e 0 90 4e 77
        e 0 90 4c 7f
        e 0 90 4d 7f
        e 120 80 4e 00
        e 0 80 4c 00
        e 0 90 4c 7f
        e 120 80 4c 00
        e 0 90 4c 7f
        e 0 90 4e 77
        e 120 80 4c 00
        e 0 90 4c 7f
        e 120 80 4d 00
        e 0 80 4e 00
        e 0 80 4c 00
        e 0 90 4c 7f
        e 0 90 4d 7f
        e 120 80 4c 00
        e 0 80 4d 00
        e 0 90 4c 7f
        e 0 90 4e 77
        e 0 90 4d 7f
        e 120 80 4c 00
        e 0 80 4e 00
        e 0 80 4d 00
        e 0 90 4c 7f
        e 0 90 4d 7f
        e 120 80 4c 00
        e 0 80 4d 00
        e 0 90 4c 7f
        e 0 90 4e 77
        e 0 90 4d 7f
        e 120 80 4c 00
        e 0 80 4d 00
        e 0 90 4c 7f
        e 0 90 4d 7f
        e 120 80 4e 00
        e 0 80 4c 00
        e 0 80 4d 00
        e 0 90 4c 7f
        e 0 90 4d 7f
        e 120 80 4c 00
        e 0 80 4d 00
        e 0 90 4c 7f
        e 0 90 4e 77
        e 0 90 4d 7f
        e 120 80 4c 00
        e 0 80 4d 00
        e 0 90 4c 7f
        e 0 90 4d 7f
        e 120 80 4c 00
        e 0 80 4d 00
        e 0 90 4c 7f
        e 0 90 4d 7f
        e 120 80 4e 00
        e 0 80 4c 00
        e 0 80 4d 00
        e 0 90 4c 7f
        e 0 90 4d 7f
        e 120 80 4c 00
        e 0 80 4d 00
        e 0 90 4c 7f
        e 0 90 4e 77
        e 0 90 4d 7f
        e 120 80 4c 00
        e 0 80 4e 00
        e 0 80 4d 00
        e 0 90 4c 7f
        e 0 90 4d 7f
        e 120 80 4c 00
        e 0 80 4d 00
        e 0 90 4c 7f
        e 0 90 4e 7f
        e 0 90 4d 7f
        e 120 80 4c 00
        e 0 80 4e 00
        e 0 80 4d 00
        e 0 90 4c 7f
        e 0 90 4d 7f
        e 120 80 4c 00
        e 0 80 4d 00
        e 0 90 4c 7f
        e 0 90 4e 7f
        e 0 90 4d 7f
        e 120 80 4c 00
        e 0 80 4e 00
        e 0 80 4d 00
        e 0 90 4c 7f
        e 0 90 4d 7f
        e 120 80 4c 00
        e 0 80 4d 00
        e 0 90 4c 7f
        e 0 90 4e 7f
        e 0 90 4d 7f
        e 120 80 4c 00
        e 0 80 4e 00
        e 0 80 4d 00
        e 0 90 4c 7f
        e 0 90 4d 7f
        e 120 80 4c 00
        e 0 80 4d 00
        e 0 90 4c 7f
        e 0 90 4e 7f
        e 0 90 4d 7f
        e 120 80 4c 00
        e 0 80 4d 00
        e 0 90 4c 7f
        e 0 90 4d 7f
        e 120 80 4e 00
        e 0 80 4c 00
        e 0 80 4d 00
        e 0 90 4c 7f
        e 0 90 4d 7f
        e 120 80 4c 00
        e 0 80 4d 00
        e 0 90 4c 7f
        e 0 90 4e 7f
        e 0 90 4d 7f
        e 120 80 4c 00
        e 0 80 4d 00
        e 0 90 4c 7f
        e 0 90 4d 7f
        e 120 80 4e 00
        e 0 80 4c 00
        e 0 80 4d 00
        e 0 90 4d 7f
        e 0 90 4e 7f
        e 0 90 4c 7f
        e 120 80 4d 00
        e 0 80 4e 00
        e 0 80 4c 00
        e 0 90 4d 7f
        e 0 90 4e 7f
        e 0 90 4c 7f
        e 120 80 4d 00
        e 0 80 4e 00
        e 0 80 4c 00
        e 0 90 4d 7f
        e 0 90 4e 7f
        e 0 90 4c 7f
        e 120 80 4d 00
        e 0 80 4e 00
        e 0 80 4c 00
        e 0 90 4e 7f
        e 0 90 4d 7f
        e 0 90 4c 7f
        e 120 80 4e 00
        e 0 80 4c 00
        e 0 90 4e 7f
        e 0 90 4c 7f
        e 120 80 4e 00
        e 0 80 4c 00
        e 0 90 4e 7f
        e 0 90 4c 7f
        e 120 80 4e 00
        e 0 80 4c 00
        e 0 90 4e 7f
        e 0 90 4c 7f
        e 120 80 4e 00
        e 0 80 4c 00
        e 0 90 4e 7f
        e 0 90 4c 7f
        e 120 80 4e 00
        e 0 80 4c 00
        e 0 90 4e 7f
        e 0 90 4c 7f
        e 120 80 4e 00
        e 0 80 4c 00
        e 0 90 4e 7f
        e 0 90 4c 7f
        e 120 80 4e 00
        e 0 80 4c 00
        e 0 90 4e 7f
        e 0 90 4c 7f
        e 120 80 4d 00
        e 0 80 4e 00
        e 0 80 4c 00
        e 0 90 4e 7f
        e 0 90 4c 7f
        e 120 80 4e 00
        e 0 80 4c 00
        e 0 90 4e 7f
        e 0 90 4c 7f
        e 120 80 4e 00
        e 0 80 4c 00
        e 0 90 4e 7f
        e 0 90 4c 7f
        e 120 80 4e 00
        e 0 80 4c 00
        e 0 90 4e 7f
        e 0 90 4d 7f
        e 0 90 4c 7f
        e 120 80 4e 00
        e 0 80 4c 00
        e 0 90 4e 7f
        e 0 90 4c 7f
        e 120 80 4e 00
        e 0 80 4c 00
        e 0 90 4e 7f
        e 0 90 4c 7f
        e 120 80 4e 00
        e 0 80 4c 00
        e 0 90 4e 7f
        e 0 90 4c 7f
        e 120 80 4d 00
        e 0 80 4e 00
        e 0 80 4c 00
        e 0 90 4e 7f
        e 0 90 4d 7f
        e 0 90 4c 7f
        e 120 80 4e 00
        e 0 80 4d 00
        e 0 80 4c 00
        e 0 90 4e 7f
        e 0 90 4d 7f
        e 0 90 4c 7f
        e 120 80 4e 00
        e 0 80 4d 00
        e 0 80 4c 00
        e 0 90 4e 7f
        e 0 90 4d 7f
        e 0 90 4c 7f
        e 120 80 4e 00
        e 0 80 4d 00
        e 0 80 4c 00
        e 0 90 4e 7f
        e 0 90 4d 7f
        e 0 90 4c 7f
        e 120 80 4e 00
        e 0 80 4d 00
        e 0 80 4c 00
        e 0 90 4e 7f
        e 0 90 4d 7f
        e 0 90 4c 7f
        e 120 80 4e 00
        e 0 80 4d 00
        e 0 80 4c 00
        e 0 90 4e 7f
        e 0 90 4d 7f
        e 0 90 4c 7f
        e 120 80 4e 00
        e 0 80 4d 00
        e 0 80 4c 00
        e 0 90 4e 7f
        e 0 90 4d 7f
        e 0 90 4c 7f
        e 120 80 4e 00
        e 0 80 4d 00
        e 0 80 4c 00
        e 0 90 4e 7f
        e 0 90 4d 7f
        e 0 90 4c 7f
        e 120 80 4e 00
        e 0 80 4d 00
        e 0 80 4c 00
        e 0 90 4e 7f
        e 0 90 4d 7f
        e 0 90 4c 7f
        e 120 80 4e 00
        e 0 80 4d 00
        e 0 80 4c 00
        e 0 90 4e 7f
        e 0 90 4d 7f
        e 0 90 4c 7f
        e 120 80 4e 00
        e 0 80 4d 00
        e 0 80 4c 00
        e 0 90 4e 7f
        e 0 90 4d 7f
        e 0 90 4c 7f
        e 120 80 4e 00
        e 0 80 4d 00
        e 0 80 4c 00
        e 0 90 4e 7f
        e 0 90 4d 7f
        e 0 90 4c 7f
        e 120 80 4e 00
        e 0 80 4d 00
        e 0 80 4c 00
        e 0 90 4e 7f
        e 0 90 4d 7f
        e 0 90 4c 7f
        e 120 80 4e 00
        e 0 80 4d 00
        e 0 80 4c 00
        e 0 90 4e 7f
        e 0 90 4d 7f
        e 0 90 4c 7f
        e 120 80 4e 00
        e 0 80 4d 00
        e 0 80 4c 00
        e 0 90 4e 7f
        e 0 90 4d 7f
        e 0 90 4c 7f
        e 120 80 4e 00
        e 0 80 4d 00
        e 0 80 4c 00
        e 0 90 4e 7f
        e 0 90 4d 7f
        e 0 90 4c 7f
        e 120 80 4e 00
        e 0 80 4d 00
        e 0 80 4c 00
        e 0 90 4e 7f
        e 0 90 4d 7f
        e 0 90 4c 7f
        e 120 80 4e 00
        e 0 80 4d 00
        e 0 80 4c 00
        e 0 90 4e 7f
        e 0 90 4d 7f
        e 0 90 4c 7f
        e 120 80 4e 00
        e 0 80 4d 00
        e 0 80 4c 00
        e 0 90 4e 7f
        e 0 90 4e 7f
        e 0 90 4d 7f
        e 0 90 4c 7f
        e 120 80 4e 00
        e 0 80 4d 00
        e 0 80 4c 00
        e 0 90 4e 7f
        e 0 90 4d 7f
        e 0 90 4c 7f
        e 120 80 4e 00
        e 0 80 4d 00
        e 0 80 4c 00
        e 0 90 4e 7f
        e 0 90 4d 7f
        e 0 90 4c 7f
        e 120 80 4e 00
        e 0 80 4d 00
        e 0 80 4c 00
        e 0 90 4e 7f
        e 0 90 4d 7f
        e 0 90 4c 7f
        e 120 80 4e 00
        e 0 80 4d 00
        e 0 80 4c 00
        e 0 90 4e 7f
        e 0 90 4d 7f
        e 0 90 4c 7f
        e 120 80 4e 00
        e 0 80 4d 00
        e 0 80 4c 00
        e 0 90 4e 7f
        e 0 90 4d 7f
        e 0 90 4c 7f
        e 120 80 4e 00
        e 0 80 4d 00
        e 0 80 4c 00
        e 0 90 4e 7f
        e 0 90 4d 7f
        e 0 90 4c 7f
        e 120 80 4e 00
        e 0 80 4e 00
        e 0 80 4d 00
        e 0 80 4c 00
        e 0 90 4e 7f
        e 0 90 4d 7f
        e 0 90 4c 7f
        e 120 80 4e 00
        e 0 80 4d 00
        e 0 80 4c 00
        e 0 90 4e 7f
        e 0 90 4c 7f
        e 120 80 4e 00
        e 0 80 4c 00
        e 0 90 4e 7f
        e 0 90 4c 7f
        e 120 80 4e 00
        e 0 80 4c 00
        e 0 90 4e 7f
        e 0 90 4d 77
        e 0 90 4c 7f
        e 120 80 4e 00
        e 0 80 4d 00
        e 0 80 4c 00
        e 0 90 4e 7f
        e 0 90 4d 77
        e 0 90 4c 7f
        e 120 80 4e 00
        e 0 80 4d 00
        e 0 80 4c 00
        e 0 90 4e 7f
        e 0 90 4d 77
        e 0 90 4c 7f
        e 120 80 4e 00
        e 0 80 4d 00
        e 0 80 4c 00
        e 0 90 4e 7f
        e 0 90 4c 7f
        e 120 80 4e 00
        e 0 80 4c 00
        e 0 90 4e 7f
        e 0 90 4d 77
        e 0 90 4c 7f
        e 120 80 4e 00
        e 0 80 4d 00
        e 0 80 4c 00
        e 0 90 4e 7f
        e 0 90 4d 77
        e 0 90 4c 7f
        e 120 80 4e 00
        e 0 80 4d 00
        e 0 80 4c 00
        e 0 90 4e 7f
        e 0 90 4d 77
        e 0 90 4c 7f
        e 120 80 4e 00
        e 0 80 4d 00
        e 0 80 4c 00
        e 0 90 4e 7f
        e 0 90 4c 7f
        e 120 80 4e 00
        e 0 80 4c 00
        e 0 90 4e 7f
        e 0 90 4d 77
        e 0 90 4c 7f
        e 120 80 4e 00
        e 0 80 4d 00
        e 0 80 4c 00
        e 0 90 4e 7f
        e 0 90 4d 77
        e 0 90 4c 7f
        e 120 80 4e 00
        e 0 80 4d 00
        e 0 80 4c 00
        e 0 90 4e 7f
        e 0 90 4c 7f
        e 120 80 4e 00
        e 0 80 4c 00
        e 0 90 4e 7f
        e 0 90 4d 77
        e 0 90 4c 7f
        e 120 80 4e 00
        e 0 80 4d 00
        e 0 80 4c 00
        e 0 90 4e 7f
        e 0 90 4d 77
        e 0 90 4c 7f
        e 120 80 4e 00
        e 0 80 4d 00
        e 0 80 4c 00
        e 0 90 4e 7f
        e 0 90 4d 77
        e 0 90 4c 7f
        e 120 80 4e 00
        e 0 80 4d 00
        e 0 80 4c 00
        e 0 90 4e 7f
        e 0 90 4c 7f
        e 120 80 4e 00
        e 0 80 4c 00
        e 0 90 4e 7f
        e 0 90 4d 77
        e 0 90 4c 7f
        e 120 80 4e 00
        e 0 80 4d 00
        e 0 80 4c 00
        e 0 90 4e 7f
        e 0 90 4d 77
        e 0 90 4c 7f
        e 120 80 4e 00
        e 0 80 4d 00
        e 0 80 4c 00
        e 0 90 4e 7f
        e 0 90 4d 77
        e 0 90 4c 7f
        e 120 80 4e 00
        e 0 80 4d 00
        e 0 80 4c 00
        e 0 90 4e 7f
        e 0 90 4c 7f
        e 120 80 4e 00
        e 0 80 4c 00
        e 0 90 4e 7f
        e 0 90 4d 77
        e 0 90 4c 7f
        e 120 80 4e 00
        e 0 80 4d 00
        e 0 80 4c 00
        e 0 90 4e 7f
        e 0 90 4d 77
        e 0 90 4c 7f
        e 120 80 4e 00
        e 0 80 4d 00
        e 0 80 4c 00
        e 0 90 4e 7f
        e 0 90 4d 77
        e 0 90 4c 7f
        e 120 80 4e 00
        e 0 80 4d 00
        e 0 80 4c 00
        e 0 90 4e 7f
        e 0 90 4d 77
        e 0 90 4c 7f
        e 120 80 4e 00
        e 0 80 4d 00
        e 0 80 4c 00
        e 0 90 4e 7f
        e 0 90 4d 77
        e 0 90 4c 7f
        e 120 80 4e 00
        e 0 80 4d 00
        e 0 80 4c 00
        e 0 90 4e 7f
        e 0 90 4c 7f
        e 120 80 4e 00
        e 0 80 4c 00
        e 0 90 4e 7f
        e 0 90 4d 77
        e 0 90 4c 7f
        e 120 80 4e 00
        e 0 80 4d 00
        e 0 80 4c 00
        e 0 90 4e 7f
        e 0 90 4d 77
        e 0 90 4c 7f
        e 120 80 4e 00
        e 0 80 4d 00
        e 0 80 4c 00
        e 0 90 4e 7f
        e 0 90 4d 77
        e 0 90 4c 7f
        e 120 80 4e 00
        e 0 80 4d 00
        e 0 80 4c 00
        e 0 90 4e 7f
        e 0 90 4c 77
        e 120 80 4e 00
        e 0 80 4c 00
        e 0 90 4e 7f
        e 0 90 4d 77
        e 0 90 4c 77
        e 120 80 4e 00
        e 0 80 4d 00
        e 0 90 4e 7f
        e 0 90 4d 77
        e 120 80 4e 00
        e 0 80 4d 00
        e 0 90 4e 7f
        e 0 90 4d 77
        e 120 80 4c 00
        e 0 80 4e 00
        e 0 90 4e 7f
        e 0 90 4c 77
        e 120 80 4e 00
        e 0 80 4c 00
        e 0 90 4e 7f
        e 120 80 4d 00
        e 0 80 4e 00
        e 0 90 4e 7f
        e 0 90 4d 77
        e 0 90 4c 77
        e 120 80 4e 00
        e 0 80 4d 00
        e 0 90 4e 7f
        e 120 80 4c 00
        e 0 80 4e 00
        e 0 90 4e 7f
        e 0 90 4d 77
        e 120 80 4e 00
        e 0 90 4e 7f
        e 0 90 4c 77
        e 120 80 4d 00
        e 0 80 4e 00
        e 0 80 4c 00
        e 0 90 4e 7f
        e 120 80 4e 00
        e 0 90 4e 7f
        e 0 90 4d 77
        e 0 90 4c 77
        e 120 80 4e 00
        e 0 80 4d 00
        e 0 90 4e 7f
        e 120 80 4c 00
        e 0 80 4e 00
        e 0 90 4e 7f
        e 0 90 4d 77
        e 120 80 4e 00
        e 0 90 4e 7f
        e 0 90 4c 77
        e 120 80 4d 00
        e 0 80 4e 00
        e 0 90 4e 7f
        e 120 80 4e 00
        e 0 90 4e 7f
        e 0 90 4d 77
        e 120 80 4c 00
        e 0 80 4e 00
        e 0 90 4e 7f
        e 120 80 4e 00
        e 0 90 4e 7f
        e 0 90 4c 77
        e 120 80 4d 00
        e 0 80 4e 00
        e 0 80 4c 00
        e 0 90 4e 7f
        e 120 80 4e 00
        e 0 90 4e 7f
        e 0 90 4d 77
        e 0 90 4c 7f
        e 120 80 4e 00
        e 0 80 4d 00
        e 0 80 4c 00
        e 0 90 4e 7f
        e 120 80 4e 00
        E 0 90 3c 7f
        e 0 90 4e 7f
        e 0 90 4d 7f
        e 0 90 4c 7f
        e 120 80 4e 00
        e 0 80 4d 00
        e 0 80 4c 00
        e 0 90 4e 7f
        e 120 80 4e 00
        e 0 90 4e 7f
        e 0 90 4d 7f
        e 0 90 4c 7f
        e 120 80 4e 00
        e 0 80 4d 00
        e 0 80 4c 00
        e 0 90 4e 7f
        e 120 80 4e 00
        e 0 90 4e 7f
        e 0 90 4d 7f
        e 0 90 4c 7f
        e 120 80 4e 00
        e 0 80 4d 00
        e 0 90 4e 7f
        e 120 80 4c 00
        e 0 80 4e 00
        e 0 90 4e 7f
        e 0 90 4d 7f
        e 0 90 4c 7f
        e 120 80 4e 00
        e 0 80 4c 00
        e 0 90 4e 7f
        e 120 80 4d 00
        e 0 80 4e 00
        e 0 90 4e 7f
        e 0 90 4d 7f
        e 0 90 4c 7f
        e 120 80 4e 00
        e 0 80 4d 00
        e 0 90 4e 7f
        e 120 80 4c 00
        e 0 80 4e 00
        e 0 90 4e 7f
        e 0 90 4d 7f
        e 120 80 4e 00
        e 0 90 4e 7f
        e 0 90 4c 7f
        e 120 80 4d 00
        e 0 80 4e 00
        e 0 80 4c 00
        e 0 90 4e 7f
        e 120 80 4e 00
        e 0 90 4e 7f
        e 0 90 4d 7f
        e 0 90 4c 7f
        e 120 80 4e 00
        e 0 80 4d 00
        e 0 80 4c 00
        e 0 90 4e 7f
        e 120 80 4e 00
        e 0 90 4e 7f
        e 0 90 4d 7f
        e 0 90 4c 7f
        e 120 80 4e 00
        e 0 80 4d 00
        e 0 80 4c 00
        e 0 90 4e 7f
        e 120 80 4e 00
        e 0 90 4e 7f
        e 0 90 4d 7f
        e 0 90 4c 7f
        e 120 80 4e 00
        e 0 80 4d 00
        e 0 80 4c 00
        e 0 90 4e 7f
        e 0 90 4c 7f
        e 120 80 4e 00
        e 0 80 4c 00
        e 0 90 4e 7f
        e 0 90 4d 7f
        e 120 80 4e 00
        e 0 80 4d 00
        e 0 90 4e 7f
        e 0 90 4d 7f
        e 120 80 4e 00
        e 0 80 4d 00
        e 0 90 4e 7f
        e 0 90 4c 7f
        e 120 80 4e 00
        e 0 80 4c 00
        e 0 90 4e 7f
        e 0 90 4c 7f
        e 120 80 4e 00
        e 0 80 4c 00
        e 0 90 4e 7f
        e 0 90 4d 7f
        e 120 80 4e 00
        e 0 80 4d 00
        e 0 90 4e 7f
        e 0 90 4d 7f
        e 0 90 4c 7f
        e 120 80 4e 00
        e 0 80 4d 00
        e 0 90 4e 7f
        e 120 80 4e 00
        e 0 90 4e 7f
        e 0 90 4d 7f
        e 120 80 4e 00
        e 0 90 4e 7f
        e 120 80 4c 00
        e 0 80 4e 00
        e 0 90 4e 7f
        e 120 80 4e 00
        e 0 90 4e 7f
        e 120 80 4d 00
        e 0 80 4e 00
        e 0 90 4e 7f
        e 0 90 4c 7f
        e 120 80 4e 00
        e 0 90 4e 7f
        e 120 80 4e 00
        e 0 90 4e 7f
        e 0 90 4d 7f
        e 120 80 4e 00
        e 0 90 4e 7f
        e 120 80 4c 00
        e 0 80 4e 00
        e 0 90 4e 7f
        e 120 80 4e 00
        e 0 90 4e 7f
        e 120 80 4d 00
        e 0 80 4e 00
        e 0 90 4e 7f
        e 0 90 4c 7f
        e 120 80 4e 00
        e 0 90 4e 7f
        e 120 80 4e 00
        e 0 90 4e 7f
        e 0 90 4d 7f
        e 120 80 4e 00
        e 0 90 4e 7f
        e 120 80 4c 00
        e 0 80 4e 00
        e 0 90 4e 7f
        e 120 80 4e 00
        e 0 90 4e 7f
        e 120 80 4d 00
        e 0 80 4e 00
        e 0 90 4e 7f
        e 0 90 4c 7f
        e 120 80 4e 00
        e 0 90 4e 7f
        e 120 80 4e 00
        e 0 90 4e 7f
        e 0 90 4d 7f
        e 120 80 4e 00
        e 0 90 4e 7f
        e 120 80 4c 00
        e 0 80 4e 00
        e 0 90 4e 7f
        e 120 80 4e 00
        e 0 90 4e 7f
        e 0 90 4c 7f
        e 120 80 4d 00
        e 0 80 4e 00
        e 0 90 4e 7f
        e 120 80 4e 00
        e 0 90 4e 7f
        e 0 90 4d 7f
        e 120 80 4e 00
        e 0 90 4e 7f
        e 120 80 4c 00
        e 0 80 4e 00
        e 0 90 4e 7f
        e 120 80 4e 00
        e 0 90 4e 7f
        e 0 90 4c 7f
        e 120 80 4d 00
        e 0 80 4e 00
        e 0 90 4e 7f
        e 120 80 4e 00
        e 0 90 4e 7f
        e 0 90 4d 7f
        e 120 80 4c 00
        e 0 80 4e 00
        e 0 90 4e 7f
        e 120 80 4e 00
        e 0 90 4e 7f
        e 120 80 4d 00
        e 0 80 4e 00
        e 0 90 4e 7f
        e 0 90 4c 7f
        e 120 80 4e 00
        e 0 80 4c 00
        e 0 90 4e 7f
        e 120 80 4e 00
        e 0 90 4e 7f
        e 0 90 4d 7f
        e 120 80 4e 00
        e 0 80 4d 00
        e 0 90 4e 7f
        e 0 90 4c 7f
        e 120 80 4e 00
        e 0 80 4c 00
        e 0 90 4e 7f
        e 0 90 4c 7f
        e 120 80 4e 00
        e 0 80 4c 00
        e 0 90 4e 7f
        e 0 90 4d 7f
        e 0 90 4c 7f
        e 120 80 4e 00
        e 0 80 4d 00
        e 0 80 4c 00
        e 0 90 4d 7f
        e 0 90 4c 7f
        e 120 80 4d 00
        e 0 80 4c 00
        e 0 90 4d 7f
        e 0 90 4c 7f
        e 0 90 4e 7f
        e 120 80 4d 00
        e 0 80 4c 00
        e 0 90 4d 7f
        e 0 90 4c 7f
        e 120 80 4d 00
        e 0 80 4c 00
        e 0 90 4d 7f
        e 0 90 4c 7f
        e 120 80 4d 00
        e 0 80 4c 00
        e 0 90 4d 7f
        e 0 90 4c 7f
        e 120 80 4e 00
        e 0 80 4d 00
        e 0 80 4c 00
        e 0 90 4d 7f
        e 0 90 4c 7f
        e 120 80 4d 00
        e 0 80 4c 00
        e 0 90 4d 7f
        e 0 90 4c 7f
        e 0 90 4e 77
        e 120 80 4d 00
        e 0 80 4c 00
        e 0 80 4e 00
        e 0 90 4d 7f
        e 0 90 4c 7f
        e 0 90 4e 77
        e 120 80 4d 00
        e 0 80 4c 00
        e 0 80 4e 00
        e 0 90 4d 7f
        e 0 90 4c 7f
        e 0 90 4e 77
        e 120 80 4d 00
        e 0 80 4c 00
        e 0 80 4e 00
        e 0 90 4d 7f
        e 0 90 4c 7f
        e 120 80 4d 00
        e 0 80 4c 00
        e 0 90 4d 7f
        e 0 90 4c 7f
        e 0 90 4e 77
        e 120 80 4d 00
        e 0 80 4c 00
        e 0 80 4e 00
        e 0 90 4d 7f
        e 0 90 4c 7f
        e 0 90 4e 77
        e 120 80 4d 00
        e 0 80 4c 00
        e 0 80 4e 00
        e 0 90 4d 7f
        e 0 90 4c 7f
        e 0 90 4e 77
        e 120 80 4d 00
        e 0 80 4c 00
        e 0 80 4e 00
        e 0 90 4d 7f
        e 0 90 4c 7f
        e 120 80 4d 00
        e 0 80 4c 00
        e 0 90 4d 7f
        e 0 90 4c 7f
        e 0 90 4e 77
        e 120 80 4c 00
        e 0 80 4e 00
        e 0 90 4c 7f
        e 0 90 4e 77
        e 120 80 4c 00
        e 0 80 4e 00
        e 0 90 4c 7f
        e 120 80 4c 00
        e 0 90 4c 7f
        e 0 90 4e 77
        e 120 80 4c 00
        e 0 80 4e 00
        e 0 90 4c 7f
        e 0 90 4e 77
        e 120 80 4c 00
        e 0 80 4e 00
        e 0 90 4c 7f
        e 0 90 4e 77
        e 120 80 4c 00
        e 0 80 4e 00
        e 0 90 4c 7f
        e 120 80 4c 00
        e 0 90 4c 7f
        e 0 90 4e 77
        e 120 80 4c 00
        e 0 80 4e 00
        e 0 90 4c 7f
        e 0 90 4e 77
        e 120 80 4c 00
        e 0 80 4e 00
        e 0 90 4c 7f
        e 0 90 4e 77
        e 120 80 4c 00
        e 0 80 4e 00
        e 0 90 4c 7f
        e 120 80 4c 00
        e 0 90 4c 7f
        e 0 90 4e 77
        e 120 80 4c 00
        e 0 80 4e 00
        e 0 90 4c 7f
        e 0 90 4e 77
        e 120 80 4c 00
        e 0 80 4e 00
        e 0 90 4c 7f
        e 0 90 4e 77
        e 120 80 4c 00
        e 0 80 4e 00
        e 0 90 4c 7f
        e 0 90 4e 77
        e 120 80 4c 00
        e 0 80 4e 00
        e 0 90 4c 7f
        e 0 90 4e 77
        e 120 80 4c 00
        e 0 80 4e 00
        e 0 90 4c 7f
        e 120 80 4c 00
        e 0 90 4c 7f
        e 0 90 4e 77
        e 120 80 4c 00
        e 0 80 4e 00
        e 0 90 4c 7f
        e 0 90 4e 77
        e 120 80 4d 00
        e 0 80 4c 00
        e 0 80 4e 00
        e 0 90 4d 7f
        e 0 90 4c 7f
        e 0 90 4e 77
        e 120 80 4d 00
        e 0 80 4c 00
        e 0 80 4e 00
        e 0 90 4d 7f
        e 0 90 4c 7f
        e 120 80 4d 00
        e 0 80 4c 00
        e 0 90 4d 7f
        e 0 90 4c 7f
        e 0 90 4e 77
        e 120 80 4d 00
        e 0 80 4c 00
        e 0 80 4e 00
        e 0 90 4d 7f
        e 0 90 4c 7f
        e 0 90 4e 77
        e 120 80 4d 00
        e 0 80 4c 00
        e 0 80 4e 00
        e 0 90 4d 7f
        e 0 90 4c 7f
        e 0 90 4e 77
        e 120 80 4d 00
        e 0 80 4c 00
        e 0 90 4d 7f
        e 0 90 4c 7f
        e 120 80 4d 00
        e 0 80 4c 00
        e 0 90 4d 7f
        e 0 90 4c 7f
        e 120 80 4e 00
        e 0 80 4d 00
        e 0 80 4c 00
        e 0 90 4d 7f
        e 0 90 4c 7f
        e 0 90 4e 77
        e 120 80 4d 00
        e 0 80 4c 00
        e 0 80 4e 00
        e 0 90 4d 7f
        e 0 90 4c 7f
        e 120 80 4d 00
        e 0 80 4c 00
        e 0 90 4d 7f
        e 0 90 4c 7f
        e 0 90 4e 77
        e 120 80 4d 00
        e 0 80 4c 00
        e 0 90 4d 7f
        e 120 80 4e 00
        e 0 80 4d 00
        e 0 90 4d 7f
        e 120 80 4d 00
        e 0 90 4d 7f
        e 0 90 4e 77
        e 0 90 4c 7f
        e 120 80 4d 00
        e 0 80 4e 00
        e 0 90 4d 7f
        e 120 80 4d 00
        e 0 90 4d 7f
        e 0 90 4e 77
        e 120 80 4d 00
        e 120 80 4c 00
        e 0 80 4e 00
        e 0 90 4d 7f
        e 120 80 4d 00
        e 0 90 4e 77
        e 0 90 4c 77
        e 0 90 4d 7f
        e 120 80 4c 00
        e 0 80 4d 00
        e 0 90 4c 77
        e 0 90 4d 7f
        e 120 80 4c 00
        e 0 80 4d 00
        e 0 90 4c 77
        e 0 90 4d 7f
        e 120 80 4e 00
        e 0 80 4c 00
        e 0 80 4d 00
        e 0 90 4d 7f
        e 120 80 4d 00
        e 0 90 4e 77
        e 0 90 4c 77
        e 0 90 4d 7f
        e 120 80 4e 00
        e 0 80 4c 00
        e 0 80 4d 00
        e 0 90 4c 77
        e 0 90 4d 7f
        e 120 80 4c 00
        e 0 80 4d 00
        e 0 90 4e 7f
        e 0 90 4c 77
        e 0 90 4d 7f
        e 120 80 4e 00
        e 0 80 4c 00
        e 0 80 4d 00
        e 0 90 4d 7f
        e 120 80 4d 00
        e 0 90 4e 7f
        e 0 90 4c 77
        e 0 90 4d 7f
        e 120 80 4e 00
        e 0 80 4c 00
        e 0 80 4d 00
        e 0 90 4c 77
        e 0 90 4d 7f
        e 120 80 4c 00
        e 0 80 4d 00
        e 0 90 4e 7f
        e 0 90 4d 7f
        e 120 80 4e 00
        e 0 80 4d 00
        e 0 90 4c 77
        e 0 90 4d 7f
        e 120 80 4c 00
        e 0 80 4d 00
        e 0 90 4e 7f
        e 0 90 4c 77
        e 0 90 4d 7f
        e 120 80 4c 00
        e 0 80 4d 00
        e 0 90 4c 77
        e 0 90 4d 7f
        e 120 80 4e 00
        e 0 80 4c 00
        e 0 80 4d 00
        e 0 90 4d 7f
        e 120 90 4e 7f
        e 0 90 4c 77
        e 120 80 4c 00
        e 0 90 4c 77
        e 120 80 4e 00
        e 0 80 4c 00
        e 0 90 4c 77
        e 120 80 4c 00
        e 120 90 4c 77
        e 0 90 4e 7f
        e 120 80 4c 00
        e 0 90 4c 77
        e 120 80 4c 00
        e 0 90 4c 77
        e 120 80 4e 00
        e 0 80 4c 00
        e 0 90 4c 77
        e 120 80 4c 00
        e 0 90 4c 77
        e 0 90 4e 77
        e 120 80 4c 00
        e 0 80 4e 00
        e 0 90 4e 77
        e 120 80 4e 00
        e 0 90 4c 77
        e 0 90 4e 77
        e 120 80 4c 00
        e 0 80 4e 00
        e 0 90 4c 77
        e 120 80 4c 00
        e 0 90 4c 77
        e 0 90 4e 77
        e 120 80 4c 00
        e 0 80 4e 00
        e 0 90 4e 77
        e 120 80 4e 00
        e 0 90 4c 77
        e 0 90 4e 77
        e 120 80 4c 00
        e 0 80 4e 00
        e 0 90 4c 77
        e 120 80 4c 00
        e 0 90 4c 77
        e 0 90 4e 77
        e 120 80 4e 00
        e 0 90 4e 77
        e 120 80 4d 00
        e 0 80 4e 00
        e 0 90 4d 7f
        e 120 80 4c 00
        e 0 80 4d 00
        e 0 90 4c 77
        e 0 90 4d 7f
        e 0 90 4e 77
        e 120 80 4c 00
        e 0 80 4d 00
        e 0 80 4e 00
        e 0 90 4d 7f
        e 0 90 4e 77
        e 120 80 4d 00
        e 0 80 4e 00
        e 0 90 4c 77
        e 0 90 4d 7f
        e 0 90 4e 77
        e 120 80 4d 00
        e 0 80 4e 00
        e 0 90 4d 7f
        e 120 80 4c 00
        e 0 80 4d 00
        e 0 90 4d 7f
        e 0 90 4e 77
        e 120 80 4d 00
        e 0 80 4e 00
        e 0 90 4c 77
        e 0 90 4d 7f
        e 0 90 4e 77
        e 120 80 4c 00
        e 0 80 4d 00
        e 0 80 4e 00
        e 0 90 4d 7f
        e 0 90 4e 77
        e 120 80 4d 00
        e 0 80 4e 00
        e 0 90 4c 77
        e 0 90 4d 7f
        e 120 80 4d 00
        e 0 90 4d 7f
        e 0 90 4e 77
        e 120 80 4c 00
        e 0 80 4d 00
        e 0 80 4e 00
        e 0 90 4d 7f
        e 0 90 4e 77
        e 120 80 4d 00
        e 0 80 4e 00
        e 0 90 4c 77
        e 0 90 4d 7f
        e 0 90 4e 77
        e 120 80 4d 00
        e 0 80 4e 00
        e 0 90 4d 7f
        e 0 90 4e 77
        e 120 80 4d 00
        e 0 80 4e 00
        e 0 90 4d 7f
        e 0 90 4e 77
        e 120 80 4c 00
        e 0 80 4d 00
        e 0 80 4e 00
        e 0 90 4d 7f
        e 120 80 4d 00
        e 0 90 4c 77
        e 120 80 4c 00
        e 0 90 4e 77
        e 120 80 4e 00
        e 0 90 4c 7f
        e 0 90 4e 77
        e 120 80 4c 00
        e 0 80 4e 00
        e 0 90 4d 7f
        e 120 80 4d 00
        e 0 90 4c 7f
        e 0 90 4e 77
        e 0 90 4d 7f
        e 120 80 4c 00
        e 0 80 4e 00
        e 0 80 4d 00
        e 0 90 4e 77
        e 0 90 4d 7f
        e 120 80 4e 00
        e 0 80 4d 00
        e 0 90 4c 7f
        e 0 90 4e 77
        e 0 90 4d 7f
        e 120 80 4c 00
        e 0 80 4e 00
        e 0 80 4d 00
        e 0 90 4d 7f
        e 120 80 4d 00
        e 0 90 4c 7f
        e 0 90 4e 77
        e 0 90 4d 7f
        e 120 80 4e 00
        e 0 80 4d 00
        e 0 90 4e 77
        e 0 90 4d 7f
        e 120 80 4c 00
        e 0 80 4e 00
        e 0 80 4d 00
        e 0 90 4e 77
        e 0 90 4d 7f
        e 120 80 4e 00
        e 0 80 4d 00
        e 0 90 4c 7f
        e 0 90 4d 7f
        e 120 80 4d 00
        e 0 90 4e 77
        e 0 90 4d 7f
        e 120 80 4c 00
        e 0 80 4e 00
        e 0 80 4d 00
        e 0 90 4e 77
        e 0 90 4d 7f
        e 120 80 4e 00
        e 0 80 4d 00
        e 0 90 4e 77
        e 0 90 4d 7f
        e 120 80 4e 00
        e 0 80 4d 00
        e 0 90 4c 7f
        e 0 90 4e 77
        e 0 90 4d 7f
        e 120 80 4e 00
        e 0 80 4d 00
        e 0 90 4e 77
        e 0 90 4d 7f
        e 120 80 4c 00
        e 0 80 4e 00
        e 0 80 4d 00
        e 0 90 4d 7f
        e 120 80 4d 00
        e 0 90 4c 7f
        e 0 90 4d 7f
        e 120 90 4e 7f
        e 120 80 4c 00
        e 0 90 4c 7f
        e 120 80 4e 00
        e 0 80 4c 00
        e 0 90 4c 7f
        e 120 80 4c 00
        e 0 90 4c 7f
        e 0 90 4e 7f
        e 120 80 4c 00
        e 0 90 4c 7f
        e 120 80 4e 00
        e 0 80 4c 00
        e 0 90 4c 7f
        e 0 90 4e 7f
        e 120 80 4c 00
        e 0 80 4e 00
        e 0 90 4c 7f
        e 0 90 4e 7f
        e 120 80 4c 00
        e 0 80 4e 00
        e 0 90 4c 7f
        e 0 90 4e 7f
        e 120 80 4c 00
        e 0 80 4e 00
        e 0 90 4c 7f
        e 0 90 4e 7f
        e 120 80 4c 00
        e 0 80 4e 00
        e 0 90 4c 7f
        e 0 90 4e 7f
        e 120 80 4c 00
        e 0 80 4e 00
        e 0 90 4c 7f
        e 0 90 4e 7f
        e 120 80 4c 00
        e 0 80 4e 00
        e 0 90 4c 7f
        e 0 90 4e 7f
        e 120 80 4c 00
        e 0 80 4e 00
        e 0 90 4c 7f
        e 0 90 4e 7f
        e 120 80 4c 00
        e 0 80 4e 00
        e 0 90 4c 7f
        E 0 90 3b 7f
        e 0 90 4e 7f
        e 120 80 4c 00
        e 0 80 4e 00
        e 0 90 4c 7f
        e 0 90 4e 7f
        e 120 80 4c 00
        e 0 80 4e 00
        e 0 90 4c 7f
        e 0 90 4e 7f
        e 120 80 4c 00
        e 0 80 4e 00
        e 0 90 4c 7f
        e 0 90 4e 7f
        e 120 80 4c 00
        e 0 80 4e 00
        e 0 90 4c 7f
        e 0 90 4e 7f
        e 120 80 4d 00
        e 0 80 4c 00
        e 0 80 4e 00
        e 0 90 4c 7f
        e 0 90 4e 7f
        e 0 90 4d 7f
        e 120 80 4c 00
        e 0 80 4e 00
        e 0 80 4d 00
        e 0 90 4c 7f
        e 0 90 4e 7f
        e 0 90 4d 7f
        e 120 80 4c 00
        e 0 80 4e 00
        e 0 80 4d 00
        e 0 90 4c 7f
        e 0 90 4e 7f
        e 0 90 4d 7f
        e 120 80 4c 00
        e 0 80 4e 00
        e 0 80 4d 00
        e 0 90 4c 7f
        e 0 90 4e 7f
        e 0 90 4d 7f
        e 120 80 4c 00
        e 0 80 4e 00
        e 0 80 4d 00
        e 0 90 4c 7f
        e 0 90 4e 7f
        e 0 90 4d 7f
        e 120 80 4c 00
        e 0 80 4e 00
        e 0 80 4d 00
        e 0 90 4c 7f
        e 0 90 4e 7f
        e 0 90 4d 7f
        e 120 80 4c 00
        e 0 80 4e 00
        e 0 80 4d 00
        e 0 90 4c 7f
        e 0 90 4e 7f
        e 0 90 4d 7f
        e 120 80 4c 00
        e 0 80 4e 00
        e 0 80 4d 00
        e 0 90 4c 7f
        e 0 90 4e 7f
        e 0 90 4d 7f
        e 120 80 4c 00
        e 0 80 4e 00
        e 0 80 4d 00
        e 0 90 4c 7f
        e 0 90 4e 7f
        e 0 90 4d 7f
        e 120 80 4c 00
        e 0 80 4e 00
        e 0 80 4d 00
        e 0 90 4c 7f
        e 0 90 4e 7f
        e 0 90 4d 7f
        e 120 80 4c 00
        e 0 80 4e 00
        e 0 80 4d 00
        e 0 90 4c 7f
        e 0 90 4e 7f
        e 0 90 4d 7f
        e 120 80 4c 00
        e 0 80 4e 00
        e 0 80 4d 00
        e 0 90 4c 7f
        e 0 90 4e 7f
        e 0 90 4d 7f
        e 120 80 4c 00
        e 0 80 4e 00
        e 0 80 4d 00
        e 0 90 4c 7f
        e 0 90 4e 7f
        e 0 90 4d 7f
        e 120 80 4c 00
        e 0 80 4e 00
        e 0 80 4d 00
        e 0 90 4c 7f
        e 0 90 4e 7f
        e 0 90 4d 7f
        e 120 80 4c 00
        e 0 80 4e 00
        e 0 80 4d 00
        e 0 90 4c 7f
        e 0 90 4e 7f
        e 0 90 4d 7f
        e 120 80 4c 00
        e 0 80 4e 00
        e 0 80 4d 00
        e 0 90 4c 7f
        e 0 90 4e 7f
        e 120 80 4c 00
        e 0 80 4e 00
        e 0 90 4c 7f
        e 0 90 4e 7f
        e 120 80 4c 00
        e 0 80 4e 00
        e 0 90 4c 7f
        e 0 90 4e 7f
        e 120 80 4c 00
        e 0 80 4e 00
        e 0 90 4c 7f
        e 0 90 4e 7f
        e 0 90 4d 7f
        e 120 80 4c 00
        e 0 80 4e 00
        e 0 80 4d 00
        e 0 90 4c 7f
        e 0 90 4c 7f
        e 0 90 4e 7f
        e 120 80 4c 00
        e 0 80 4e 00
        e 0 90 4c 7f
        e 0 90 4e 7f
        e 0 90 4d 7f
        e 120 80 4c 00
        e 0 80 4e 00
        e 0 90 4c 7f
        e 0 90 4e 7f
        e 120 80 4c 00
        e 0 80 4d 00
        e 0 80 4e 00
        e 0 90 4c 7f
        e 0 90 4e 7f
        e 120 80 4c 00
        e 0 80 4e 00
        e 0 90 4c 7f
        e 0 90 4e 7f
        e 0 90 4e 7f
        e 0 90 4d 7f
        e 120 80 4c 00
        e 0 80 4e 00
        e 0 80 4d 00
        e 0 90 4c 7f
        e 0 90 4e 7f
        e 120 80 4c 00
        e 0 80 4e 00
        e 0 90 4c 7f
        e 0 90 4e 7f
        e 0 90 4d 7f
        e 120 80 4c 00
        e 0 80 4e 00
        e 0 80 4c 00
        e 0 80 4d 00
        e 0 90 4c 7f
        e 0 90 4e 7f
        e 120 80 4e 00
        e 0 80 4c 00
        e 0 90 4c 7f
        e 0 90 4e 7f
        e 0 90 4d 7f
        e 120 80 4e 00
        e 0 80 4c 00
        e 0 80 4d 00
        e 0 90 4c 7f
        e 0 90 4e 7f
        e 120 80 4e 00
        e 0 80 4c 00
        e 0 90 4c 7f
        e 0 90 4e 7f
        e 0 90 4d 7f
        e 120 80 4e 00
        e 0 80 4c 00
        e 0 80 4e 00
        e 0 80 4d 00
        e 0 90 4c 7f
        e 0 90 4e 7f
        e 0 90 4d 7f
        e 120 80 4c 00
        e 0 80 4e 00
        e 0 80 4d 00
        e 0 90 4c 7f
        e 0 90 4e 7f
        e 120 80 4c 00
        e 0 80 4e 00
        e 0 90 4c 7f
        e 0 90 4e 7f
        e 120 80 4c 00
        e 0 80 4e 00
        e 0 90 4c 7f
        e 0 90 4e 7f
        e 0 90 4d 7f
        e 120 80 4c 00
        e 0 80 4e 00
        e 0 80 4d 00
        e 0 90 4c 7f
        e 0 90 4e 7f
        e 0 90 4d 7f
        e 120 80 4c 00
        e 0 80 4e 00
        e 0 80 4d 00
        e 0 90 4c 7f
        e 0 90 4e 7f
        e 120 80 4c 00
        e 0 80 4e 00
        e 0 90 4c 7f
        e 0 90 4e 7f
        e 0 90 4d 7f
        e 120 80 4c 00
        e 0 80 4e 00
        e 0 90 4c 7f
        e 0 90 4e 7f
        e 120 80 4c 00
        e 0 80 4e 00
        e 0 90 4c 7f
        e 0 90 4e 7f
        e 120 80 4c 00
        e 0 80 4e 00
        e 0 90 4c 7f
        e 0 90 4e 7f
        e 120 80 4d 00
        e 0 80 4c 00
        e 0 80 4e 00
        e 0 90 4c 7f
        e 0 90 4e 7f
        e 120 80 4c 00
        e 0 80 4e 00
        e 0 90 4c 7f
        e 0 90 4e 7f
        e 120 80 4c 00
        e 0 80 4e 00
        e 0 90 4c 7f
        e 0 90 4e 7f
        e 0 90 4d 7f
        e 120 80 4c 00
        e 0 80 4e 00
        e 0 90 4c 7f
        e 0 90 4e 7f
        e 120 80 4c 00
        e 0 80 4e 00
        e 0 90 4c 7f
        e 0 90 4e 7f
        e 120 80 4c 00
        e 0 80 4e 00
        e 0 90 4c 7f
        e 0 90 4e 7f
        e 120 80 4d 00
        e 0 80 4c 00
        e 0 80 4e 00
        e 0 90 4c 7f
        e 0 90 4e 7f
        e 120 80 4c 00
        e 0 80 4e 00
        e 0 90 4c 7f
        e 0 90 4e 7f
        e 120 80 4c 00
        e 0 80 4e 00
        e 0 90 4c 7f
        e 0 90 4e 7f
        e 0 90 4d 7f
        e 120 80 4c 00
        e 0 80 4e 00
        e 0 90 4c 7f
        e 0 90 4e 7f
        e 120 80 4c 00
        e 0 80 4e 00
        e 0 90 4c 7f
        e 0 90 4e 7f
        e 120 80 4c 00
        e 0 80 4e 00
        e 0 90 4c 7f
        e 0 90 4e 7f
        e 120 80 4d 00
        e 0 80 4c 00
        e 0 80 4e 00
        e 0 90 4c 7f
        e 0 90 4e 7f
        e 120 80 4c 00
        e 0 80 4e 00
        e 0 90 4c 7f
        e 0 90 4e 7f
        e 120 80 4c 00
        e 0 80 4e 00
        e 0 90 4c 7f
        e 0 90 4e 7f
        e 0 90 4d 7f
        e 120 80 4c 00
        e 0 80 4e 00
        e 0 90 4c 7f
        e 0 90 4e 7f
        e 120 80 4c 00
        e 0 80 4e 00
        e 0 90 4c 7f
        e 0 90 4e 7f
        e 120 80 4c 00
        e 0 80 4e 00
        e 0 90 4c 7f
        e 0 90 4e 7f
        e 120 80 4d 00
        e 0 80 4c 00
        e 0 80 4e 00
        e 0 90 4c 7f
        e 0 90 4e 7f
        e 120 80 4c 00
        e 0 80 4e 00
        e 0 90 4c 7f
        e 0 90 4e 7f
        e 0 90 4d 7f
        e 120 80 4c 00
        e 0 80 4e 00
        e 0 90 4c 7f
        e 0 90 4e 7f
        e 120 80 4c 00
        e 0 80 4e 00
        e 0 90 4c 7f
        e 0 90 4e 7f
        e 120 80 4c 00
        e 0 80 4e 00
        e 0 90 4c 7f
        e 0 90 4e 7f
        e 120 80 4d 00
        e 0 80 4c 00
        e 0 80 4e 00
        e 0 90 4c 7f
        e 0 90 4e 7f
        e 120 80 4c 00
        e 0 80 4e 00
        e 0 90 4c 7f
        e 0 90 4e 7f
        e 0 90 4d 7f
        e 120 80 4c 00
        e 0 80 4e 00
        e 0 90 4c 7f
        e 0 90 4e 7f
        e 120 80 4c 00
        e 0 80 4e 00
        e 0 90 4c 7f
        e 0 90 4e 7f
        e 120 80 4d 00
        e 0 80 4c 00
        e 0 80 4e 00
        e 0 90 4c 7f
        e 0 90 4e 7f
        e 120 80 4c 00
        e 0 80 4e 00
        e 0 90 4c 7f
        e 0 90 4e 7f
        e 120 80 4c 00
        e 0 80 4e 00
        e 0 90 4c 7f
        e 0 90 4e 7f
        e 0 90 4d 7f
        e 120 80 4c 00
        e 0 80 4e 00
        e 0 80 4d 00
        e 0 90 4c 7f
        e 0 90 4e 7f
        e 120 80 4c 00
        e 0 80 4e 00
        e 0 90 4c 7f
        e 0 90 4e 7f
        e 120 80 4c 00
        e 0 80 4e 00
        e 0 90 4c 7f
        e 0 90 4e 7f
        e 0 90 4d 7f
        e 120 80 4c 00
        e 0 80 4e 00
        e 0 80 4d 00
        e 0 90 4c 7f
        e 0 90 4e 7f
        e 0 90 4d 7f
        e 120 80 4c 00
        e 0 80 4e 00
        e 0 80 4d 00
        e 0 90 4c 7f
        e 0 90 4e 7f
        e 0 90 4d 7f
        e 120 80 4c 00
        e 0 80 4e 00
        e 0 80 4d 00
        e 0 90 4c 7f
        e 0 90 4e 7f
        e 0 90 4d 7f
        e 120 80 4c 00
        e 0 80 4e 00
        e 0 80 4d 00
        e 0 90 4c 7f
        e 0 90 4e 7f
        e 0 90 4d 7f
        e 120 80 4c 00
        e 0 80 4e 00
        e 0 80 4d 00
        e 0 90 4c 7f
        e 0 90 4e 7f
        e 0 90 4d 7f
        e 120 80 4c 00
        e 0 80 4e 00
        e 0 80 4d 00
        e 0 90 4c 7f
        e 0 90 4e 7f
        e 0 90 4d 7f
        e 120 80 4c 00
        e 0 80 4e 00
        e 0 80 4d 00
        e 0 90 4c 7f
        e 0 90 4e 7f
        e 0 90 4d 7f
        e 120 80 4c 00
        e 0 80 4e 00
        e 0 80 4d 00
        e 0 90 4c 7f
        e 0 90 4e 7f
        e 0 90 4d 7f
        e 120 80 4c 00
        e 0 80 4e 00
        e 0 80 4d 00
        e 0 90 4c 7f
        e 0 90 4e 7f
        e 0 90 4d 7f
        e 120 80 4c 00
        e 0 80 4e 00
        e 0 80 4d 00
        e 0 90 4c 7f
        e 0 90 4e 7f
        e 0 90 4d 7f
        e 120 80 4c 00
        e 0 80 4e 00
        e 0 80 4d 00
        e 0 90 4c 7f
        e 0 90 4e 7f
        e 0 90 4d 7f
        e 120 80 4c 00
        e 0 80 4e 00
        e 0 80 4d 00
        e 0 90 4c 7f
        e 0 90 4e 7f
        e 0 90 4d 7f
        e 120 80 4c 00
        e 0 80 4e 00
        e 0 80 4d 00
        e 0 90 4c 7f
        e 0 90 4e 7f
        e 120 80 4c 00
        e 0 80 4e 00
        e 0 90 4c 7f
        e 0 90 4e 7f
        e 120 80 4c 00
        e 0 80 4e 00
        e 0 90 4c 7f
        e 0 90 4e 7f
        e 0 90 4d 7f
        e 120 80 4c 00
        e 0 80 4e 00
        e 0 90 4c 7f
        e 0 90 4e 7f
        e 120 80 4c 00
        e 0 80 4e 00
        e 0 90 4c 7f
        e 0 90 4e 7f
        e 120 80 4d 00
        e 0 80 4c 00
        e 0 80 4e 00
        e 0 90 4c 7f
        e 0 90 4e 7f
        e 120 80 4c 00
        e 0 80 4e 00
        e 0 90 4c 7f
        e 0 90 4e 7f
        e 120 80 4c 00
        e 0 80 4e 00
        e 0 90 4c 7f
        e 0 90 4e 7f
        e 120 80 4c 00
        e 0 80 4e 00
        e 0 90 4c 7f
        e 0 90 4e 7f
        e 0 90 4d 7f
        e 120 80 4c 00
        e 0 80 4e 00
        e 0 90 4c 7f
        e 0 90 4e 7f
        e 120 80 4c 00
        e 0 80 4e 00
        e 0 90 4c 7f
        e 0 90 4e 7f
        e 120 80 4c 00
        e 0 80 4e 00
        e 0 90 4c 7f
        e 0 90 4e 7f
        e 120 80 4d 00
        e 0 80 4c 00
        e 0 80 4e 00
        e 0 90 4c 7f
        e 0 90 4e 7f
        e 120 80 4c 00
        e 0 80 4e 00
        e 0 90 4c 7f
        e 0 90 4e 7f
        e 0 90 4d 7f
        e 120 80 4c 00
        e 0 80 4e 00
        e 0 90 4c 7f
        e 0 90 4e 7f
        e 120 80 4c 00
        e 0 80 4e 00
        e 0 90 4c 7f
        e 0 90 4e 7f
        e 120 80 4c 00
        e 0 80 4e 00
        e 0 90 4c 7f
        e 0 90 4e 7f
        e 120 80 4d 00
        e 0 80 4c 00
        e 0 80 4e 00
        e 0 90 4c 7f
        e 0 90 4e 7f
        e 120 80 4c 00
        e 0 80 4e 00
        e 0 90 4c 7f
        e 0 90 4e 7f
        e 0 90 4d 7f
        e 120 80 4c 00
        e 0 80 4e 00
        e 0 90 4c 7f
        e 0 90 4e 7f
        e 120 80 4c 00
        e 0 80 4e 00
        e 0 90 4c 7f
        e 0 90 4e 7f
        e 120 80 4d 00
        e 0 80 4c 00
        e 0 80 4e 00
        e 0 90 4c 7f
        e 0 90 4e 7f
        e 120 80 4c 00
        e 0 80 4e 00
        e 0 90 4c 7f
        e 0 90 4e 7f
        e 120 80 4c 00
        e 0 80 4e 00
        e 0 90 4c 7f
        e 0 90 4e 7f
        e 0 90 4d 7f
        e 120 80 4c 00
        e 0 80 4e 00
        e 0 80 4d 00
        e 0 90 4c 7f
        e 0 90 4e 7f
        e 120 80 4c 00
        e 0 80 4e 00
        e 0 90 4c 7f
        e 0 90 4e 7f
        e 120 80 4c 00
        e 0 80 4e 00
        e 0 90 4c 7f
        e 0 90 4e 7f
        e 0 90 4d 7f
        e 120 80 4c 00
        e 0 80 4e 00
        e 0 80 4d 00
        e 0 90 4c 7f
        e 0 90 4e 7f
        e 0 90 4d 7f
        e 120 80 4c 00
        e 0 80 4e 00
        e 0 80 4d 00
        e 0 90 4c 7f
        e 0 90 4e 7f
        e 0 90 4d 7f
        e 120 80 4c 00
        e 0 80 4e 00
        e 0 80 4d 00
        e 0 90 4e 7f
        e 0 90 4d 7f
        e 120 80 4e 00
        e 0 80 4d 00
        e 0 90 4e 7f
        e 0 90 4d 7f
        e 120 80 4e 00
        e 0 80 4d 00
        e 0 90 4e 7f
        e 0 90 4c 7f
        e 0 90 4d 7f
        e 120 80 4e 00
        e 0 80 4d 00
        e 0 90 4e 7f
        e 0 90 4d 7f
        e 120 80 4e 00
        e 0 80 4d 00
        e 0 90 4d 7f
        e 120 80 4d 00
        e 0 90 4d 7f
        e 120 80 4c 00
        e 0 80 4d 00
        e 0 90 4d 7f
        e 0 90 4e 7f
        e 120 80 4d 00
        e 0 80 4e 00
        e 0 90 4c 77
        e 0 90 4d 7f
        e 0 90 4e 7f
        e 120 80 4c 00
        e 0 80 4d 00
        e 0 80 4e 00
        e 0 90 4c 77
        e 0 90 4d 7f
        e 0 90 4e 7f
        e 120 80 4c 00
        e 0 80 4d 00
        e 0 80 4e 00
        e 0 90 4c 77
        e 0 90 4d 7f
        e 0 90 4e 7f
        e 120 80 4c 00
        e 0 80 4d 00
        e 0 80 4e 00
        e 0 90 4e 7f
        e 120 80 4e 00
        e 0 90 4c 77
        e 0 90 4e 7f
        e 120 80 4c 00
        e 0 80 4e 00
        e 0 90 4c 77
        e 0 90 4d 7f
        e 0 90 4e 7f
        e 120 80 4c 00
        e 0 80 4e 00
        e 0 90 4c 77
        e 0 90 4e 7f
        e 120 80 4c 00
        e 0 80 4e 00
        e 0 90 4e 7f
        e 120 80 4d 00
        e 0 80 4e 00
        e 0 90 4c 77
        e 0 90 4e 7f
        e 120 80 4c 00
        e 0 80 4e 00
        e 0 90 4c 77
        e 0 90 4e 7f
        e 0 90 4d 7f
        e 120 80 4c 00
        e 0 80 4e 00
        e 0 90 4e 7f
        e 120 80 4d 00
        e 0 80 4e 00
        e 0 90 4c 77
        e 0 90 4e 7f
        e 120 80 4c 00
        e 0 80 4e 00
        e 0 90 4c 77
        e 0 90 4e 7f
        e 0 90 4d 7f
        e 120 80 4c 00
        e 0 80 4e 00
        e 0 80 4d 00
        e 0 90 4c 77
        e 0 90 4e 7f
        e 0 90 4d 7f
        e 120 80 4c 00
        e 0 80 4e 00
        e 0 80 4d 00
        e 0 90 4e 7f
        e 120 80 4e 00
        e 0 90 4c 77
        e 0 90 4e 7f
        e 0 90 4d 7f
        e 120 80 4c 00
        e 0 80 4e 00
        e 0 90 4c 77
        e 0 90 4e 7f
        e 120 80 4d 00
        e 0 80 4c 00
        e 0 80 4e 00
        e 0 90 4c 77
        e 0 90 4e 7f
        e 120 80 4c 00
        e 0 80 4e 00
        e 0 90 4e 7f
        e 0 90 4d 7f
        e 120 80 4e 00
        e 0 90 4c 77
        e 0 90 4e 7f
        e 120 80 4d 00
        e 0 80 4c 00
        e 0 80 4e 00
        e 0 90 4c 77
        e 120 80 4c 00
        e 0 90 4c 77
        e 0 90 4e 7f
        e 0 90 4d 7f
        e 120 80 4c 00
        e 0 80 4d 00
        e 0 90 4c 77
        e 0 90 4d 7f
        e 120 80 4e 00
        e 0 80 4c 00
        e 0 80 4d 00
        e 0 90 4c 77
        e 120 80 4c 00
        e 0 90 4e 7f
        e 0 90 4d 7f
        e 120 80 4e 00
        e 0 90 4c 77
        e 0 90 4e 7f
        e 120 80 4d 00
        e 0 80 4c 00
        e 0 80 4e 00
        e 0 90 4c 77
        e 120 80 4c 00
        e 0 90 4c 77
        e 0 90 4e 7f
        e 0 90 4d 7f
        e 120 80 4c 00
        e 120 80 4e 00
        e 0 80 4d 00
        e 0 90 4c 77
        e 120 80 4c 00
        e 0 90 4c 77
        e 0 90 4e 7f
        e 0 90 4d 7f
        e 120 80 4c 00
        e 0 80 4d 00
        e 0 90 4c 77
        e 0 90 4d 7f
        e 120 80 4e 00
        e 0 80 4d 00
        e 120 90 4e 7f
        e 0 90 4d 7f
        e 120 80 4c 00
        e 0 80 4e 00
        e 0 90 4c 77
        e 0 90 4e 7f
        e 120 80 4d 00
        e 0 80 4c 00
        e 0 80 4e 00
        e 120 90 4c 77
        e 0 90 4e 7f
        e 0 90 4d 7f
        e 240 80 4c 00
        e 0 80 4e 00
        e 0 80 4d 00
        e 120 90 4c 77
        e 0 90 4e 7f
        e 0 90 4d 7f
        e 120 80 4c 00
        e 0 80 4d 00
        e 0 90 4d 7f
        e 120 80 4e 00
        e 0 80 4d 00
        e 0 90 4c 77
        e 120 90 4e 7f
        e 0 90 4d 7f
        e 120 80 4c 00
        e 0 80 4e 00
        e 0 90 4e 7f
        e 120 80 4d 00
        e 0 80 4e 00
        e 0 90 4c 77
        e 120 90 4e 7f
        e 0 90 4d 7f
        e 240 80 4c 00
        e 0 80 4e 00
        e 0 80 4d 00
        e 120 90 4c 77
        e 0 90 4e 7f
        e 0 90 4d 7f
        e 120 80 4c 00
        e 0 80 4d 00
        e 0 90 4d 7f
        e 120 80 4e 00
        e 0 80 4d 00
        e 0 90 4c 7f
        e 120 80 4c 00
        e 0 90 4e 7f
        e 0 90 4d 7f
        e 120 80 4e 00
        e 0 90 4c 7f
        e 0 90 4e 7f
        e 120 80 4d 00
        e 0 80 4c 00
        e 0 80 4e 00
        e 120 90 4c 7f
        e 0 90 4e 7f
        e 0 90 4d 7f
        e 120 80 4c 00
        e 120 80 4e 00
        e 0 80 4d 00
        e 0 90 4c 7f
        e 120 90 4e 7f
        e 0 90 4d 7f
        e 120 80 4c 00
        e 0 80 4d 00
        e 0 90 4d 7f
        e 120 80 4e 00
        e 0 80 4d 00
        e 0 90 4c 7f
        e 120 90 4e 7f
        e 0 90 4d 7f
        e 120 80 4c 00
        e 0 80 4e 00
        e 0 90 4e 7f
        e 120 80 4d 00
        e 0 80 4e 00
        e 120 90 4c 7f
        e 0 90 4e 7f
        e 0 90 4d 7f
        e 120 80 4d 00
        e 0 90 4d 7f
        e 120 80 4c 00
        e 0 80 4e 00
        e 0 80 4d 00
        e 0 90 4d 7f
        e 120 80 4d 00
        e 0 90 4c 7f
        e 0 90 4e 7f
        e 0 90 4d 7f
        e 120 80 4d 00
        e 0 90 4d 7f
        e 120 80 4c 00
        e 0 80 4e 00
        e 0 80 4d 00
        e 0 90 4c 7f
        e 0 90 4d 7f
        e 120 80 4c 00
        e 0 80 4d 00
        e 0 90 4c 7f
        e 0 90 4e 7f
        e 0 90 4d 7f
        e 120 80 4c 00
        e 0 80 4e 00
        e 0 80 4d 00
        e 0 90 4c 7f
        e 0 90 4e 7f
        e 0 90 4d 7f
        e 120 80 4c 00
        e 0 80 4e 00
        e 0 80 4d 00
        e 0 90 4c 7f
        e 0 90 4d 7f
        e 120 80 4c 00
        e 0 80 4d 00
        e 0 90 4c 7f
        e 0 90 4e 7f
        e 0 90 4d 7f
        e 120 80 4c 00
        e 0 80 4d 00
        e 0 90 4c 7f
        e 0 90 4d 7f
        e 120 80 4e 00
        e 0 80 4c 00
        e 0 80 4d 00
        e 0 90 4c 7f
        e 0 90 4d 7f
        e 120 80 4c 00
        e 0 80 4d 00
        e 0 90 4c 7f
        e 0 90 4e 7f
        e 0 90 4d 7f
        e 120 80 4c 00
        e 0 80 4e 00
        e 0 80 4d 00
        e 0 90 4c 7f
        e 0 90 4e 7f
        e 0 90 4d 7f
        e 120 80 4c 00
        e 0 80 4e 00
        e 0 80 4d 00
        e 0 90 4c 7f
        e 0 90 4e 7f
        e 120 80 4c 00
        e 0 80 4e 00
        e 0 90 4c 7f
        e 0 90 4e 7f
        e 0 90 4d 7f
        e 120 80 4c 00
        e 0 80 4e 00
        e 0 80 4d 00
        e 0 90 4c 7f
        e 0 90 4e 7f
        e 120 80 4c 00
        e 0 80 4e 00
        e 0 90 4c 7f
        e 0 90 4e 7f
        e 0 90 4d 7f
        e 120 80 4c 00
        e 0 80 4e 00
        e 0 90 4c 7f
        e 0 90 4e 7f
        e 120 80 4d 00
        e 0 80 4c 00
        e 0 80 4e 00
        e 0 90 4c 7f
        e 0 90 4e 7f
        e 0 90 4d 7f
        e 120 80 4c 00
        e 0 80 4e 00
        e 0 80 4d 00
        e 0 90 4c 7f
        e 0 90 4e 7f
        e 120 80 4c 00
        e 0 80 4e 00
        e 0 90 4c 7f
        e 0 90 4e 7f
        e 0 90 4d 7f
        e 120 80 4c 00
        e 0 80 4e 00
        e 0 90 4c 7f
        e 0 90 4e 7f
        e 120 80 4c 00
        e 0 80 4e 00
        e 0 90 4c 7f
        e 0 90 4e 7f
        e 120 80 4d 00
        e 0 80 4c 00
        e 0 80 4e 00
        e 0 90 4c 7f
        e 0 90 4e 7f
        e 120 80 4c 00
        e 0 80 4e 00
        e 0 90 4c 7f
        e 0 90 4e 7f
        e 0 90 4d 7f
        e 120 80 4c 00
        e 0 80 4e 00
        e 0 80 4d 00
        e 0 90 4c 7f
        e 0 90 4d 7f
        e 120 80 4c 00
        e 0 80 4d 00
        e 0 90 4c 7f
        e 0 90 4e 7f
        e 0 90 4d 7f
        e 120 80 4c 00
        e 0 80 4e 00
        e 0 80 4d 00
        e 0 90 4c 7f
        e 0 90 4d 7f
        e 120 80 4c 00
        e 0 80 4d 00
        e 0 90 4c 7f
        e 0 90 4e 7f
        e 0 90 4d 7f
        e 120 80 4c 00
        e 0 80 4d 00
        e 0 90 4c 7f
        e 0 90 4d 7f
        e 120 80 4e 00
        e 0 80 4c 00
        e 0 80 4d 00
        e 0 90 4c 7f
        e 0 90 4e 7f
        e 0 90 4d 7f
        e 120 80 4c 00
        e 0 80 4e 00
        e 0 80 4d 00
        e 0 90 4c 7f
        e 120 80 4c 00
        e 0 90 4c 7f
        e 0 90 4e 7f
        e 0 90 4d 7f
        e 120 80 4c 00
        e 0 90 4c 7f
        e 120 80 4c 00
        e 0 90 4c 7f
        e 120 80 4e 00
        e 0 80 4d 00
        e 0 80 4c 00
        e 0 90 4c 7f
        e 120 80 4c 00
        e 0 90 4c 7f
        e 0 90 4e 7f
        e 0 90 4d 7f
        e 120 80 4c 00
        e 0 80 4e 00
        e 0 80 4d 00
        e 0 90 4c 7f
        e 0 90 4e 7f
        e 120 80 4c 00
        e 0 80 4e 00
        e 0 90 4c 7f
        e 0 90 4e 7f
        e 0 90 4d 7f
        e 120 80 4c 00
        e 0 80 4e 00
        e 0 90 4c 7f
        e 0 90 4e 7f
        e 120 80 4c 00
        e 0 80 4e 00
        e 0 90 4c 7f
        e 0 90 4c 7f
        e 0 90 4e 7f
        e 120 80 4c 00
        e 0 80 4e 00
        e 0 90 4c 7f
        e 0 90 4e 7f
        e 120 80 4d 00
        e 0 80 4c 00
        e 0 80 4e 00
        e 0 90 4c 7f
        e 0 90 4e 7f
        e 120 80 4c 00
        e 0 80 4e 00
        e 0 90 4c 7f
        e 0 90 4d 77
        e 120 80 4c 00
        e 0 80 4d 00
        e 0 90 4c 7f
        e 0 90 4e 7f
        e 0 90 4d 77
        e 120 80 4c 00
        e 0 80 4d 00
        e 0 90 4c 7f
        e 0 90 4d 77
        e 120 80 4c 00
        e 0 80 4d 00
        e 0 90 4c 7f
        e 120 80 4e 00
        e 0 80 4c 00
        e 0 80 4c 00
        e 0 90 4c 7f
        e 0 90 4d 77
        e 120 80 4c 00
        e 0 80 4d 00
        e 0 90 4c 7f
        e 0 90 4e 7f
        e 0 90 4d 77
        e 120 80 4c 00
        e 0 80 4e 00
        e 0 80 4d 00
        e 0 90 4c 7f
        e 0 90 4d 77
        e 120 80 4c 00
        e 0 80 4d 00
        e 0 90 4c 7f
        e 0 90 4e 7f
        e 120 80 4c 00
        e 0 90 4c 7f
        e 0 90 4d 77
        e 120 80 4c 00
        e 0 80 4d 00
        e 0 90 4c 7f
        e 0 90 4d 77
        e 120 80 4c 00
        e 0 80 4d 00
        e 0 90 4c 7f
        e 120 80 4e 00
        e 0 80 4c 00
        e 0 90 4c 7f
        e 0 90 4d 77
        e 120 80 4c 00
        e 0 80 4d 00
        e 0 90 4c 7f
        e 0 90 4e 77
        e 0 90 4d 77
        e 120 80 4c 00
        e 0 80 4e 00
        e 0 80 4d 00
        e 0 90 4c 7f
        e 0 90 4e 77
        e 0 90 4d 77
        e 120 80 4c 00
        e 0 80 4e 00
        e 0 80 4d 00
        e 0 90 4c 7f
        e 0 90 4e 77
        e 120 80 4c 00
        e 0 80 4e 00
        e 0 90 4c 7f
        e 0 90 4d 77
        e 120 80 4c 00
        e 0 80 4d 00
        e 0 90 4c 7f
        e 0 90 4e 77
        e 0 90 4d 77
        e 120 80 4c 00
        e 0 80 4e 00
        e 0 80 4d 00
        e 0 90 4c 7f
        e 0 90 4e 77
        e 0 90 4d 77
        e 120 80 4c 00
        e 0 80 4e 00
        e 0 80 4d 00
        e 0 90 4c 7f
        e 0 90 4e 77
        e 120 80 4c 00
        e 0 80 4e 00
        e 0 90 4c 7f
        e 0 90 4d 77
        e 120 80 4c 00
        e 0 80 4d 00
        e 0 90 4c 7f
        e 0 90 4e 77
        e 0 90 4d 77
        e 120 80 4c 00
        e 0 80 4e 00
        e 0 80 4d 00
        e 0 90 4c 7f
        e 0 90 4e 77
        e 0 90 4d 77
        e 120 80 4c 00
        e 0 80 4e 00
        e 0 80 4d 00
        e 0 90 4c 7f
        e 0 90 4d 77
        e 120 80 4c 00
        e 0 80 4d 00
        e 0 90 4c 7f
        e 0 90 4e 77
        e 0 90 4d 77
        e 120 80 4c 00
        e 0 80 4e 00
        e 0 80 4d 00
        e 0 90 4c 7f
        e 0 90 4e 77
        e 120 80 4c 00
        e 0 80 4e 00
        e 0 90 4c 7f
        e 0 90 4e 77
        e 0 90 4d 77
        e 120 80 4c 00
        e 0 80 4e 00
        e 0 80 4d 00
        e 0 90 4c 7f
        e 0 90 4d 77
        e 120 80 4c 00
        e 0 80 4d 00
        e 0 90 4c 7f
        e 0 90 4e 77
        e 0 90 4d 77
        e 120 80 4c 00
        e 0 80 4e 00
        e 0 80 4d 00
        e 0 90 4c 7f
        e 0 90 4e 77
        e 120 80 4c 00
        e 0 80 4e 00
        e 0 90 4c 7f
        e 0 90 4e 77
        e 0 90 4d 77
        e 120 80 4c 00
        e 0 80 4e 00
        e 0 80 4d 00
        e 0 90 4c 7f
        e 0 90 4d 77
        e 120 80 4c 00
        e 0 80 4d 00
        e 0 90 4c 7f
        e 0 90 4e 77
        e 0 90 4d 77
        e 120 80 4c 00
        e 0 80 4e 00
        e 0 90 4c 7f
        e 0 90 4e 77
        e 120 80 4c 00
        e 0 80 4e 00
        e 0 90 4c 7f
        e 0 90 4e 77
        e 120 80 4d 00
        e 0 80 4c 00
        e 0 80 4e 00
        e 0 90 4c 7f
        e 0 90 4e 77
        e 0 90 4d 77
        e 120 80 4c 00
        e 0 80 4e 00
        e 0 80 4d 00
        e 0 90 4c 7f
        e 0 90 4e 77
        e 120 80 4c 00
        e 0 80 4e 00
        e 0 90 4c 7f
        e 0 90 4d 77
        e 120 80 4c 00
        e 0 90 4c 7f
        e 0 90 4e 77
        e 120 80 4d 00
        e 0 80 4c 00
        e 0 80 4e 00
        e 0 90 4c 7f
        e 0 90 4e 77
        e 120 80 4c 00
        e 0 80 4e 00
        e 0 90 4c 7f
        e 0 90 4e 77
        e 0 90 4d 77
        e 120 80 4c 00
        e 0 80 4e 00
        e 0 80 4d 00
        e 0 90 4c 7f
        e 120 80 4c 00
        e 0 90 4c 7f
        e 0 90 4e 77
        e 0 90 4d 77
        e 120 80 4c 00
        e 0 80 4e 00
        e 0 90 4c 7f
        e 0 90 4e 77
        e 120 80 4d 00
        e 0 80 4c 00
        e 0 80 4e 00
        e 0 90 4c 7f
        e 0 90 4e 77
        e 120 80 4c 00
        e 0 90 4c 7f
        e 0 90 4d 77
        e 120 80 4c 00
        e 0 90 4c 7f
        e 120 80 4e 00
        e 0 80 4c 00
        e 0 90 4c 7f
        e 0 90 4e 77
        e 120 80 4d 00
        e 0 80 4c 00
        e 0 80 4e 00
        e 0 90 4c 7f
        e 120 80 4c 00
        e 0 90 4c 7f
        e 0 90 4e 77
        e 0 90 4d 77
        e 120 80 4c 00
        e 0 80 4d 00
        e 0 90 4c 7f
        e 120 80 4e 00
        e 0 80 4c 00
        e 0 90 4c 7f
        e 0 90 4d 7f
        e 120 80 4c 00
        e 0 80 4d 00
        e 0 90 4c 7f
        e 0 90 4e 77
        e 120 80 4c 00
        e 0 80 4e 00
        e 0 90 4c 7f
        e 0 90 4d 7f
        e 120 80 4c 00
        e 0 80 4d 00
        e 0 90 4c 7f
        e 0 90 4e 77
        e 120 80 4c 00
        e 0 90 4c 7f
        e 0 90 4d 7f
        e 120 80 4e 00
        e 0 80 4c 00
        e 0 80 4d 00
        e 0 90 4c 7f
        e 120 80 4c 00
        e 0 90 4c 7f
        e 0 90 4e 77
        e 0 90 4d 7f
        e 120 80 4c 00
        e 0 90 4c 7f
        e 120 80 4d 00
        e 0 80 4c 00
        e 0 90 4c 7f
        e 120 80 4e 00
        e 0 80 4c 00
        e 0 90 4c 7f
        e 0 90 4d 7f
        e 120 80 4c 00
        e 0 90 4c 7f
        e 0 90 4e 77
        e 120 80 4d 00
        e 0 80 4c 00
        e 0 80 4e 00
        e 0 90 4c 7f
        e 0 90 4d 7f
        e 120 80 4c 00
        e 0 80 4d 00
        e 0 90 4c 7f
        e 0 90 4e 7f
        e 0 90 4d 7f
        e 120 80 4c 00
        e 0 80 4e 00
        e 0 80 4d 00
        e 0 90 4c 7f
        e 0 90 4d 7f
        e 120 80 4c 00
        e 0 80 4d 00
        e 0 90 4c 7f
        e 0 90 4e 7f
        e 0 90 4d 7f
        e 120 80 4c 00
        e 0 80 4e 00
        e 0 80 4d 00
        e 0 90 4c 7f
        e 0 90 4d 7f
        e 120 80 4c 00
        e 0 80 4d 00
        e 0 90 4c 7f
        e 0 90 4e 7f
        e 0 90 4d 7f
        e 120 80 4c 00
        e 0 80 4e 00
        e 0 80 4d 00
        e 0 90 4c 7f
        e 0 90 4d 7f
        e 120 80 4c 00
        e 0 80 4d 00
        e 0 90 4c 7f
        e 0 90 4e 7f
        e 0 90 4d 7f
        e 120 80 4c 00
        e 0 80 4d 00
        e 0 90 4c 7f
        e 0 90 4d 7f
        e 120 80 4e 00
        e 0 80 4c 00
        e 0 80 4d 00
        e 0 90 4c 7f
        e 0 90 4d 7f
        e 120 80 4c 00
        e 0 80 4d 00
        e 0 90 4c 7f
        e 0 90 4e 7f
        e 0 90 4d 7f
        e 120 80 4c 00
        e 0 80 4d 00
        e 0 90 4c 7f
        e 0 90 4d 7f
        e 120 80 4e 00
        e 0 80 4c 00
        e 0 80 4d 00
        e 0 90 4c 7f
        e 0 90 4e 7f
        e 0 90 4d 7f
        e 120 80 4c 00
        e 0 80 4e 00
        e 0 80 4d 00
        e 0 90 4c 7f
        e 0 90 4e 7f
        e 0 90 4d 7f
        e 120 80 4c 00
        e 0 80 4e 00
        e 0 80 4d 00
        e 0 90 4c 7f
        e 0 90 4e 7f
        e 0 90 4d 7f
        e 120 80 4c 00
        e 0 80 4e 00
        e 0 80 4d 00
        e 0 90 4c 7f
        e 0 90 4e 7f
        e 0 90 4d 7f
        e 120 80 4c 00
        e 0 80 4e 00
        e 0 80 4d 00
        e 0 90 4c 7f
        e 0 90 4e 7f
        e 0 90 4d 7f
        e 120 80 4c 00
        e 0 80 4e 00
        e 0 80 4d 00
        e 0 90 4c 7f
        e 0 90 4e 7f
        e 0 90 4d 7f
        e 120 80 4c 00
        e 0 80 4e 00
        e 0 80 4d 00
        e 0 90 4c 7f
        e 0 90 4e 7f
        e 0 90 4d 7f
        e 120 80 4c 00
        e 0 80 4e 00
        e 0 80 4d 00
        e 0 90 4c 7f
        e 0 90 4e 7f
        e 0 90 4d 7f
        e 120 80 4c 00
        e 0 80 4e 00
        e 0 80 4d 00
        e 0 90 4c 7f
        e 0 90 4e 7f
        e 0 90 4d 7f
        e 120 80 4c 00
        e 0 80 4e 00
        e 0 80 4d 00
        e 0 90 4c 7f
        e 0 90 4e 7f
        e 0 90 4d 7f
        e 120 80 4c 00
        e 0 80 4e 00
        e 0 80 4d 00
        e 0 90 4c 7f
        e 0 90 4e 7f
        e 0 90 4d 7f
        e 120 80 4c 00
        e 0 80 4e 00
        e 0 80 4d 00
        e 0 90 4c 7f
        e 0 90 4e 7f
        e 0 90 4d 7f
        e 120 80 4c 00
        e 0 80 4e 00
        e 0 80 4d 00
        e 0 90 4c 7f
        e 0 90 4e 7f
        e 0 90 4d 7f
        e 120 80 4c 00
        e 0 80 4e 00
        e 0 80 4d 00
        e 0 90 4c 7f
        e 0 90 4e 7f
        e 0 90 4d 7f
        e 120 80 4c 00
        e 0 80 4e 00
        e 0 80 4d 00
        e 0 90 4c 7f
        e 0 90 4e 7f
        e 0 90 4d 7f
        e 120 80 4c 00
        e 0 80 4e 00
        e 0 80 4d 00
        e 0 90 4c 7f
        e 0 90 4e 7f
        e 0 90 4d 7f
        e 120 80 4c 00
        e 0 80 4e 00
        e 0 80 4d 00
        e 0 90 4c 7f
        e 0 90 4e 7f
        e 0 90 4d 7f
        e 120 80 4c 00
        e 0 80 4e 00
        e 0 80 4d 00
        e 0 90 4c 7f
        e 0 90 4e 7f
        e 0 90 4d 7f
        e 120 80 4c 00
        e 0 80 4e 00
        e 0 80 4d 00
        e 0 90 4c 7f
        e 0 90 4e 7f
        e 0 90 4d 7f
        e 120 80 4c 00
        e 0 80 4e 00
        e 0 80 4d 00
        e 0 90 4e 7f
        e 0 90 4d 7f
        e 120 80 4e 00
        e 0 80 4d 00
        e 0 90 4e 7f
        e 0 90 4d 7f
        e 0 90 4c 7f
        e 120 80 4e 00
        e 0 80 4d 00
        e 0 80 4c 00
        e 0 90 4e 7f
        e 0 90 4d 7f
        e 0 90 4c 7f
        e 120 80 4e 00
        e 0 80 4d 00
        e 0 80 4c 00
        e 0 90 4e 7f
        e 0 90 4d 7f
        e 0 90 4c 7f
        e 120 80 4e 00
        e 0 80 4d 00
        e 0 80 4c 00
        e 0 90 4e 7f
        e 0 90 4d 7f
        e 0 90 4c 7f
        e 120 80 4e 00
        e 0 80 4d 00
        e 0 80 4c 00
        e 0 90 4e 7f
        e 0 90 4d 7f
        e 0 90 4d 7f
        e 0 90 4c 7f
        e 120 80 4e 00
        e 0 80 4d 00
        e 0 80 4c 00
        e 0 90 4e 7f
        e 0 90 4d 7f
        e 0 90 4c 7f
        e 120 80 4d 00
        e 0 80 4e 00
        e 0 80 4c 00
        e 0 90 4e 7f
        e 0 90 4d 7f
        e 0 90 4c 7f
        e 120 80 4d 00
        e 0 80 4e 00
        e 0 80 4c 00
        e 0 90 4e 7f
        e 0 90 4d 7f
        e 0 90 4c 7f
        e 120 80 4d 00
        e 0 80 4e 00
        e 0 80 4c 00
        e 0 90 4e 7f
        e 0 90 4d 7f
        e 0 90 4c 7f
        e 120 80 4d 00
        e 0 80 4e 00
        e 0 80 4c 00
        e 0 90 4e 7f
        e 0 90 4d 7f
        e 0 90 4c 7f
        e 120 80 4d 00
        e 0 80 4e 00
        e 0 80 4c 00
        e 0 90 4e 7f
        e 0 90 4d 7f
        e 0 90 4c 7f
        e 120 80 4d 00
        e 0 80 4e 00
        e 0 80 4d 00
        e 0 80 4c 00
        e 0 90 4e 7f
        e 0 90 4d 7f
        e 0 90 4c 7f
        e 120 80 4e 00
        e 0 80 4d 00
        e 0 80 4c 00
        e 0 90 4e 7f
        e 0 90 4d 7f
        e 0 90 4c 7f
        e 120 80 4e 00
        e 0 80 4d 00
        e 0 80 4c 00
        e 0 90 4e 7f
        e 0 90 4d 7f
        e 0 90 4c 7f
        e 120 80 4e 00
        e 0 80 4d 00
        e 0 80 4c 00
        e 0 90 4e 7f
        e 0 90 4d 7f
        e 0 90 4c 7f
        e 120 80 4e 00
        e 0 80 4d 00
        e 0 80 4c 00
        e 0 90 4e 7f
        e 0 90 4d 7f
        e 0 90 4c 7f
        e 120 80 4e 00
        e 0 80 4d 00
        e 0 80 4c 00
        e 0 90 4e 7f
        e 0 90 4e 7f
        e 0 90 4d 7f
        e 0 90 4c 7f
        e 120 80 4e 00
        e 0 80 4d 00
        e 0 80 4c 00
        e 0 90 4e 7f
        e 0 90 4d 7f
        e 0 90 4c 7f
        e 120 80 4e 00
        e 0 80 4d 00
        e 0 80 4c 00
        e 0 90 4e 7f
        e 0 90 4d 7f
        e 0 90 4c 7f
        e 120 80 4e 00
        e 0 80 4d 00
        e 0 80 4c 00
        e 0 90 4e 7f
        e 0 90 4d 7f
        e 0 90 4c 7f
        e 120 80 4e 00
        e 0 80 4d 00
        e 0 80 4c 00
        e 0 90 4e 7f
        e 0 90 4d 7f
        e 0 90 4c 7f
        e 120 80 4e 00
        e 0 80 4d 00
        e 0 80 4c 00
        e 0 90 4e 7f
        e 0 90 4d 7f
        e 0 90 4c 7f
        e 120 80 4e 00
        e 0 80 4d 00
        e 0 80 4c 00
        e 0 90 4e 7f
        e 0 90 4d 7f
        e 0 90 4c 7f
        e 120 80 4e 00
        e 0 80 4e 00
        e 0 80 4d 00
        e 0 80 4c 00
        e 0 90 4e 7f
        e 0 90 4d 7f
        e 0 90 4c 7f
        e 120 80 4e 00
        e 0 80 4d 00
        e 0 80 4c 00
        e 0 90 4e 7f
        e 0 90 4d 7f
        e 0 90 4c 7f
        e 120 80 4e 00
        e 0 80 4d 00
        e 0 80 4c 00
        e 0 90 4e 7f
        e 0 90 4d 7f
        e 0 90 4c 7f
        e 120 80 4e 00
        e 0 80 4d 00
        e 0 80 4c 00
        e 0 90 4e 7f
        e 0 90 4d 7f
        e 0 90 4c 7f
        e 120 80 4e 00
        e 0 80 4d 00
        e 0 80 4c 00
        e 0 90 4e 7f
        e 0 90 4d 7f
        e 0 90 4c 7f
        e 120 80 4e 00
        e 0 80 4d 00
        e 0 80 4c 00
        e 0 90 4e 7f
        e 0 90 4d 7f
        e 0 90 4c 7f
        e 120 80 4e 00
        e 0 80 4d 00
        e 0 80 4c 00
        e 0 90 4e 7f
        e 0 90 4d 7f
        e 0 90 4c 7f
        e 120 80 4e 00
        e 0 80 4d 00
        e 0 80 4c 00
        e 0 90 4e 7f
        e 0 90 4d 7f
        e 0 90 4c 7f
        e 120 80 4e 00
        e 0 80 4d 00
        e 0 80 4c 00
        e 0 90 4e 7f
        e 0 90 4d 7f
        e 0 90 4c 7f
        e 120 80 4e 00
        e 0 80 4d 00
        e 0 80 4c 00
        e 0 90 4e 7f
        e 0 90 4d 7f
        e 0 90 4c 7f
        e 120 80 4e 00
        e 0 80 4d 00
        e 0 80 4c 00
        e 0 90 4e 7f
        e 0 90 4d 7f
        e 0 90 4c 7f
        e 120 80 4e 00
        e 0 80 4d 00
        e 0 80 4c 00
        e 0 90 4e 7f
        e 0 90 4d 7f
        e 0 90 4c 7f
        e 120 80 4e 00
        e 0 80 4d 00
        e 0 80 4c 00
        e 0 90 4e 7f
        e 0 90 4d 7f
        e 0 90 4c 7f
        e 120 80 4e 00
        e 0 80 4d 00
        e 0 80 4c 00
        e 0 90 4e 7f
        e 0 90 4d 7f
        e 0 90 4c 7f
        e 120 80 4e 00
        e 0 80 4d 00
        e 0 80 4c 00
        e 0 90 4e 7f
        e 0 90 4d 7f
        e 0 90 4c 7f
        e 0 90 4c 7f
        e 120 80 4e 00
        e 0 80 4d 00
        e 0 80 4c 00
        e 0 90 4e 7f
        e 0 90 4d 7f
        e 0 90 4c 7f
        e 120 80 4c 00
        e 0 80 4e 00
        e 0 80 4d 00
        e 0 90 4e 7f
        e 0 90 4d 7f
        e 0 90 4c 7f
        e 120 80 4c 00
        e 0 80 4e 00
        e 0 80 4d 00
        e 0 90 4e 7f
        e 0 90 4d 7f
        e 0 90 4c 7f
        e 120 80 4c 00
        e 0 80 4e 00
        e 0 80 4d 00
        e 0 90 4e 7f
        e 0 90 4d 7f
        e 0 90 4c 7f
        e 120 80 4c 00
        e 0 80 4e 00
        e 0 80 4d 00
        e 0 90 4e 7f
        e 0 90 4d 7f
        e 0 90 4c 7f
        e 120 80 4c 00
        e 0 80 4e 00
        e 0 80 4d 00
        e 0 90 4e 7f
        e 0 90 4d 7f
        e 0 90 4c 7f
        e 120 80 4c 00
        e 0 80 4e 00
        e 0 80 4d 00
        e 0 80 4c 00
        e 0 90 4e 7f
        e 0 90 4d 7f
        e 0 90 4c 7f
        e 120 80 4e 00
        e 0 80 4d 00
        e 0 80 4c 00
        e 0 90 4e 7f
        e 0 90 4d 7f
        e 0 90 4c 7f
        e 120 80 4e 00
        e 0 80 4d 00
        e 0 80 4c 00
        e 0 90 4e 7f
        e 0 90 4d 7f
        e 0 90 4c 7f
        e 120 80 4e 00
        e 0 80 4d 00
        e 0 80 4c 00
        e 0 90 4e 7f
        e 0 90 4d 7f
        e 0 90 4c 7f
        e 120 80 4e 00
        e 0 80 4d 00
        e 0 80 4c 00
        e 0 90 4e 7f
        e 0 90 4d 7f
        e 0 90 4c 7f
        e 120 80 4e 00
        e 0 80 4d 00
        e 0 80 4c 00
        e 0 90 4e 7f
        e 0 90 4d 7f
        e 0 90 4c 7f
        e 120 80 4e 00
        e 0 80 4d 00
        e 0 80 4c 00
        e 0 90 4e 7f
        e 0 90 4d 7f
        e 0 90 4c 7f
        e 120 80 4e 00
        e 0 80 4d 00
        e 0 80 4c 00
        e 0 90 4e 7f
        e 0 90 4d 7f
        e 0 90 4c 7f
        e 120 80 4e 00
        e 0 80 4d 00
        e 0 80 4c 00
        e 0 90 4e 7f
        e 0 90 4d 7f
        e 0 90 4c 7f
        e 120 80 4e 00
        e 0 80 4d 00
        e 0 80 4c 00
        e 0 90 4e 7f
        e 0 90 4d 7f
        e 0 90 4c 7f
        e 120 80 4e 00
        e 0 80 4d 00
        e 0 80 4c 00
        e 0 90 4e 7f
        e 0 90 4d 7f
        e 0 90 4c 7f
        e 120 80 4e 00
        e 0 80 4d 00
        e 0 80 4c 00
        e 0 90 4e 7f
        e 0 90 4d 7f
        e 0 90 4c 7f
        e 120 80 4e 00
        e 0 80 4d 00
        e 0 80 4c 00
        e 0 90 4e 7f
        e 0 90 4d 7f
        e 0 90 4c 7f
        e 120 80 4e 00
        e 0 80 4d 00
        e 0 80 4c 00
        e 0 90 4e 7f
        e 0 90 4d 7f
        e 0 90 4c 7f
        e 120 80 4e 00
        e 0 80 4d 00
        e 0 80 4c 00
        e 0 90 4e 7f
        e 0 90 4d 7f
        e 0 90 4c 7f
        e 120 80 4e 00
        e 0 80 4d 00
        e 0 80 4c 00
        e 0 90 4e 7f
        e 0 90 4d 7f
        e 0 90 4c 7f
        e 120 80 4e 00
        e 0 80 4d 00
        e 0 80 4c 00
        e 0 90 4e 7f
        e 0 90 4d 7f
        e 0 90 4c 7f
        e 120 80 4e 00
        e 0 80 4d 00
        e 0 80 4c 00
        e 0 90 4e 7f
        e 0 90 4d 7f
        e 0 90 4c 7f
        e 120 80 4e 00
        e 0 80 4d 00
        e 0 80 4c 00
        e 0 90 4e 7f
        e 0 90 4d 7f
        e 0 90 4c 7f
        e 120 80 4e 00
        e 0 80 4d 00
        e 0 80 4c 00
        e 0 90 4e 7f
        e 0 90 4d 7f
        e 0 90 4c 7f
        e 120 80 4e 00
        e 0 80 4d 00
        e 0 80 4c 00
        e 0 90 4e 7f
        e 0 90 4d 7f
        e 0 90 4c 7f
        e 120 80 4e 00
        e 0 80 4d 00
        e 0 80 4c 00
        e 0 90 4e 7f
        e 0 90 4d 7f
        e 0 90 4c 7f
        e 120 80 4e 00
        e 0 80 4d 00
        e 0 80 4c 00
        e 0 90 4e 7f
        e 0 90 4d 7f
        e 0 90 4c 7f
        e 120 80 4e 00
        e 0 80 4d 00
        e 0 80 4c 00
        e 0 90 4e 7f
        e 0 90 4d 7f
        e 0 90 4c 7f
        e 120 80 4e 00
        e 0 80 4d 00
        e 0 80 4c 00
        e 0 90 4e 7f
        e 0 90 4d 7f
        e 0 90 4c 7f
        e 120 80 4e 00
        e 0 80 4d 00
        e 0 80 4c 00
        e 0 90 4e 7f
        e 0 90 4d 7f
        e 0 90 4c 7f
        e 120 80 4e 00
        e 0 80 4d 00
        e 0 80 4c 00
        e 0 90 4e 7f
        e 0 90 4d 7f
        e 0 90 4c 7f
        e 120 80 4e 00
        e 0 80 4d 00
        e 0 80 4c 00
        e 0 90 4e 7f
        e 0 90 4d 7f
        e 0 90 4c 7f
        e 120 80 4e 00
        e 0 80 4d 00
        e 0 80 4c 00
        e 0 90 4e 7f
        e 0 90 4d 7f
        e 0 90 4c 7f
        e 120 80 4e 00
        e 0 80 4d 00
        e 0 80 4c 00
        e 0 90 4e 7f
        e 0 90 4d 7f
        e 0 90 4c 7f
        e 120 80 4e 00
        e 0 80 4d 00
        e 0 80 4c 00
        e 0 90 4e 7f
        e 0 90 4d 7f
        e 0 90 4c 7f
        e 120 80 4e 00
        e 0 80 4d 00
        e 0 80 4c 00
        e 0 90 4e 7f
        e 0 90 4d 7f
        e 0 90 4c 7f
        e 120 80 4e 00
        e 0 80 4d 00
        e 0 80 4c 00
        e 0 90 4e 7f
        e 0 90 4d 7f
        e 0 90 4c 7f
        e 120 80 4e 00
        e 0 80 4d 00
        e 0 80 4c 00
        e 0 90 4e 7f
        e 0 90 4d 7f
        e 0 90 4c 7f
        e 120 80 4e 00
        e 0 80 4d 00
        e 0 80 4c 00
        e 0 90 4e 7f
        e 0 90 4d 7f
        e 0 90 4c 7f
        e 120 80 4e 00
        e 0 80 4d 00
        e 0 80 4c 00
        e 0 90 4e 7f
        e 0 90 4d 7f
        e 0 90 4c 7f
        e 120 80 4e 00
        e 0 80 4d 00
        e 0 80 4c 00
        e 0 90 4e 7f
        e 0 90 4d 7f
        e 0 90 4c 7f
        e 120 80 4e 00
        e 0 80 4d 00
        e 0 80 4c 00
        e 0 90 4e 7f
        e 0 90 4d 7f
        e 0 90 4c 7f
        e 120 80 4e 00
        e 0 80 4d 00
        e 0 80 4c 00
        e 0 90 4e 7f
        e 0 90 4d 7f
        e 0 90 4c 7f
        e 120 80 4e 00
        e 0 80 4d 00
        e 0 80 4c 00
        e 0 90 4e 7f
        e 0 90 4d 7f
        e 0 90 4c 7f
        e 120 80 4e 00
        e 0 80 4d 00
        e 0 80 4c 00
        e 0 90 4e 7f
        e 0 90 4d 7f
        e 0 90 4c 7f
        e 120 80 4e 00
        e 0 80 4d 00
        e 0 80 4c 00
        e 0 90 4e 7f
        e 0 90 4d 7f
        e 0 90 4c 7f
        e 120 80 4e 00
        e 0 80 4d 00
        e 0 80 4c 00
        e 0 90 4e 7f
        e 0 90 4d 7f
        e 0 90 4c 7f
        e 120 80 4e 00
        e 0 80 4d 00
        e 0 80 4c 00
        e 0 90 4e 7f
        e 0 90 4d 7f
        e 0 90 4c 7f
        e 120 80 4e 00
        e 0 80 4d 00
        e 0 80 4c 00
        e 0 90 4e 7f
        e 0 90 4d 7f
        e 0 90 4c 7f
        e 120 80 4e 00
        e 0 80 4d 00
        e 0 80 4c 00
        e 0 90 4e 7f
        e 0 90 4d 7f
        e 0 90 4c 7f
        e 120 80 4e 00
        e 0 80 4d 00
        e 0 80 4c 00
        e 0 90 4e 7f
        e 0 90 4d 7f
        e 0 90 4c 7f
        e 120 80 4e 00
        e 0 80 4d 00
        e 0 80 4c 00
        e 0 90 4e 7f
        e 0 90 4d 7f
        e 0 90 4c 7f
        e 120 80 4e 00
        e 0 80 4d 00
        e 0 80 4c 00
        e 0 90 4e 7f
        e 0 90 4d 7f
        e 0 90 4c 7f
        e 120 80 4e 00
        e 0 80 4d 00
        e 0 80 4c 00
        e 0 90 4e 7f
        e 0 90 4d 7f
        e 0 90 4c 7f
        e 120 80 4e 00
        e 0 80 4d 00
        e 0 80 4c 00
        e 0 90 4e 7f
        e 0 90 4d 7f
        e 0 90 4c 7f
        e 120 80 4e 00
        e 0 80 4d 00
        e 0 80 4c 00
        e 0 90 4e 7f
        e 0 90 4d 7f
        e 0 90 4c 7f
        e 120 80 4e 00
        e 0 80 4d 00
        e 0 80 4c 00
        e 0 90 4e 7f
        e 0 90 4d 7f
        e 0 90 4c 7f
        e 120 80 4e 00
        e 0 80 4d 00
        e 0 80 4c 00
        e 0 90 4e 7f
        e 0 90 4d 7f
        e 0 90 4c 7f
        e 120 80 4e 00
        e 0 80 4d 00
        e 0 80 4c 00
        e 0 90 4e 7f
        e 0 90 4d 7f
        e 0 90 4c 7f
        e 120 80 4e 00
        e 0 80 4d 00
        e 0 80 4c 00
        e 0 90 4e 7f
        e 0 90 4d 7f
        e 0 90 4c 7f
        e 120 80 4e 00
        e 0 80 4d 00
        e 0 80 4c 00
        e 0 90 4e 7f
        e 0 90 4d 7f
        e 0 90 4c 7f
        e 120 80 4e 00
        e 0 80 4d 00
        e 0 80 4c 00
        e 0 90 4e 7f
        e 0 90 4d 7f
        e 0 90 4c 7f
        e 120 80 4e 00
        e 0 80 4d 00
        e 0 80 4c 00
        e 0 90 4e 7f
        e 0 90 4d 7f
        e 0 90 4c 7f
        e 120 80 4e 00
        e 0 80 4d 00
        e 0 80 4c 00
        e 0 90 4e 7f
        e 0 90 4d 7f
        e 0 90 4c 7f
        e 120 80 4e 00
        e 0 80 4d 00
        e 0 80 4c 00
        e 0 90 4e 7f
        e 0 90 4d 7f
        e 0 90 4c 7f
        e 120 80 4e 00
        e 0 80 4d 00
        e 0 80 4c 00
        e 0 90 4e 7f
        e 0 90 4d 7f
        e 0 90 4c 7f
        e 120 80 4e 00
        e 0 80 4d 00
        e 0 80 4c 00
        e 0 90 4e 7f
        e 0 90 4d 7f
        e 0 90 4c 7f
        e 120 80 4e 00
        e 0 80 4d 00
        e 0 80 4c 00
        e 0 90 4e 7f
        e 0 90 4d 7f
        e 0 90 4c 7f
        e 120 80 4e 00
        e 0 80 4d 00
        e 0 80 4c 00
        e 0 90 4e 7f
        e 0 90 4d 7f
        e 0 90 4c 7f
        e 120 80 4e 00
        e 0 80 4d 00
        e 0 80 4c 00
        e 0 90 4e 7f
        e 0 90 4d 7f
        e 0 90 4c 7f
        e 120 80 4e 00
        e 0 80 4d 00
        e 0 80 4c 00
        e 0 90 4e 7f
        e 0 90 4d 7f
        e 0 90 4c 7f
        e 120 80 4e 00
        e 0 80 4d 00
        e 0 80 4c 00
        e 0 90 4e 7f
        e 0 90 4d 7f
        e 0 90 4c 7f
        e 120 80 4e 00
        e 0 80 4d 00
        e 0 80 4c 00
        e 0 90 4e 7f
        e 0 90 4d 7f
        e 0 90 4c 7f
        e 120 80 4e 00
        e 0 80 4d 00
        e 0 80 4c 00
        e 0 90 4e 7f
        e 0 90 4d 7f
        e 0 90 4c 7f
        e 120 80 4e 00
        e 0 80 4d 00
        e 0 80 4c 00
        e 0 90 4e 7f
        e 0 90 4d 7f
        e 0 90 4c 7f
        e 120 80 4e 00
        e 0 80 4d 00
        e 0 80 4c 00
        e 0 90 4e 7f
        e 0 90 4d 7f
        e 0 90 4c 7f
        e 120 80 4e 00
        e 0 80 4d 00
        e 0 80 4c 00
        e 0 90 4e 7f
        e 0 90 4d 7f
        e 0 90 4c 7f
        e 120 80 4e 00
        e 0 80 4d 00
        e 0 80 4c 00
        e 0 90 4e 7f
        e 0 90 4d 7f
        e 0 90 4c 7f
        e 120 80 4e 00
        e 0 80 4d 00
        e 0 80 4c 00
        e 0 90 4e 7f
        e 0 90 4d 7f
        e 0 90 4c 7f
        e 120 80 4e 00
        e 0 80 4d 00
        e 0 80 4c 00
        e 0 90 4e 7f
        e 0 90 4d 7f
        e 0 90 4c 7f
        e 120 80 4e 00
        e 0 80 4d 00
        e 0 80 4c 00
        e 0 90 4e 7f
        e 0 90 4d 7f
        e 0 90 4c 7f
        e 120 80 4e 00
        e 0 80 4d 00
        e 0 80 4c 00
        e 0 90 4e 7f
        e 0 90 4d 7f
        e 0 90 4c 7f
        e 120 80 4e 00
        e 0 80 4d 00
        e 0 80 4c 00
        e 0 90 4e 7f
        e 0 90 4d 7f
        e 0 90 4c 7f
        e 120 80 4e 00
        e 0 80 4d 00
        e 0 80 4c 00
        e 0 90 4e 7f
        e 0 90 4d 7f
        e 0 90 4c 7f
        e 120 80 4e 00
        e 0 80 4d 00
        e 0 80 4c 00
        e 0 90 4e 7f
        e 0 90 4d 7f
        e 0 90 4c 7f
        e 120 80 4e 00
        e 0 80 4d 00
        e 0 80 4c 00
        e 0 90 4e 7f
        e 0 90 4d 7f
        e 0 90 4c 7f
        e 120 80 4e 00
        e 0 80 4d 00
        e 0 80 4c 00
        e 0 90 4e 7f
        e 0 90 4d 7f
        e 0 90 4c 7f
        e 120 80 4e 00
        e 0 80 4d 00
        e 0 80 4c 00
        e 0 90 4e 7f
        e 0 90 4c 7f
        e 120 80 4e 00
        e 0 80 4c 00
        e 0 90 4e 7f
        e 0 90 4d 7f
        e 0 90 4c 7f
        e 120 80 4e 00
        e 0 80 4c 00
        e 0 90 4e 7f
        e 0 90 4c 7f
        e 120 80 4e 00
        e 0 80 4c 00
        e 0 90 4e 7f
        e 0 90 4c 7f
        e 120 80 4e 00
        e 0 80 4c 00
        e 0 90 4e 7f
        e 0 90 4c 7f
        e 120 80 4d 00
        e 0 80 4e 00
        e 0 80 4c 00
        e 0 90 4e 7f
        e 0 90 4c 7f
        e 120 80 4e 00
        e 0 80 4c 00
        e 0 90 4e 7f
        e 0 90 4d 77
        e 0 90 4c 7f
        e 120 80 4e 00
        e 0 80 4d 00
        e 0 80 4c 00
        e 0 90 4e 7f
        e 0 90 4d 77
        e 0 90 4c 7f
        e 120 80 4e 00
        e 0 80 4d 00
        e 0 80 4c 00
        e 0 90 4e 7f
        e 0 90 4d 77
        e 0 90 4c 7f
        e 120 80 4e 00
        e 0 80 4d 00
        e 0 80 4c 00
        e 0 90 4e 7f
        e 0 90 4c 7f
        e 120 80 4e 00
        e 0 80 4c 00
        e 0 90 4e 7f
        e 0 90 4d 77
        e 0 90 4c 7f
        e 120 80 4e 00
        e 0 80 4d 00
        e 0 80 4c 00
        e 0 90 4e 7f
        e 0 90 4d 77
        e 0 90 4c 7f
        e 120 80 4e 00
        e 0 80 4d 00
        e 0 80 4c 00
        e 0 90 4d 77
        e 0 90 4c 7f
        e 120 80 4d 00
        e 0 80 4c 00
        e 0 90 4e 7f
        e 0 90 4c 7f
        e 120 80 4c 00
        e 0 90 4d 77
        e 0 90 4c 7f
        e 120 80 4d 00
        e 0 80 4c 00
        e 0 90 4d 77
        e 0 90 4c 7f
        e 120 80 4d 00
        e 0 80 4c 00
        e 0 90 4c 7f
        e 120 80 4e 00
        e 0 80 4c 00
        e 0 90 4d 77
        e 0 90 4c 7f
        e 120 80 4d 00
        e 0 80 4c 00
        e 0 90 4e 77
        e 0 90 4d 77
        e 0 90 4c 7f
        e 120 80 4e 00
        e 0 80 4d 00
        e 0 80 4c 00
        e 0 90 4e 77
        e 0 90 4d 77
        e 0 90 4c 7f
        e 120 80 4e 00
        e 0 80 4d 00
        e 0 80 4c 00
        e 0 90 4e 77
        e 0 90 4c 7f
        e 120 80 4e 00
        e 0 80 4c 00
        e 0 90 4d 77
        e 0 90 4c 7f
        e 120 80 4d 00
        e 0 80 4c 00
        e 0 90 4e 77
        e 0 90 4d 77
        e 0 90 4c 7f
        e 120 80 4e 00
        e 0 80 4d 00
        e 0 80 4c 00
        e 0 90 4e 77
        e 0 90 4d 77
        e 0 90 4c 7f
        e 120 80 4e 00
        e 0 80 4d 00
        e 0 80 4c 00
        e 0 90 4e 77
        e 0 90 4c 7f
        e 120 80 4e 00
        e 0 80 4c 00
        e 0 90 4d 77
        e 0 90 4c 7f
        e 120 80 4d 00
        e 0 80 4c 00
        e 0 90 4e 77
        e 0 90 4d 77
        e 0 90 4c 7f
        e 120 80 4e 00
        e 0 80 4d 00
        e 0 80 4c 00
        e 0 90 4e 77
        e 0 90 4d 77
        e 0 90 4c 7f
        e 120 80 4e 00
        e 0 80 4d 00
        e 0 80 4c 00
        e 0 90 4d 77
        e 0 90 4c 7f
        e 120 80 4d 00
        e 0 80 4c 00
        e 0 90 4e 77
        e 0 90 4d 77
        e 0 90 4c 7f
        e 120 80 4e 00
        e 0 80 4d 00
        e 0 80 4c 00
        e 0 90 4e 77
        e 0 90 4c 7f
        e 120 80 4e 00
        e 0 80 4c 00
        e 0 90 4e 77
        e 0 90 4d 77
        e 0 90 4c 7f
        e 120 80 4e 00
        e 0 80 4d 00
        e 0 80 4c 00
        e 0 90 4d 77
        e 0 90 4c 7f
        e 120 80 4d 00
        e 0 80 4c 00
        e 0 90 4e 77
        e 0 90 4d 77
        e 0 90 4c 7f
        e 120 80 4e 00
        e 0 80 4d 00
        e 0 80 4c 00
        e 0 90 4e 77
        e 0 90 4c 7f
        e 120 80 4e 00
        e 0 80 4c 00
        e 0 90 4e 77
        e 0 90 4d 77
        e 0 90 4c 7f
        e 120 80 4e 00
        e 0 80 4d 00
        e 0 80 4c 00
        e 0 90 4d 77
        e 0 90 4c 7f
        e 120 80 4d 00
        e 0 80 4c 00
        e 0 90 4e 77
        e 0 90 4d 77
        e 0 90 4c 7f
        e 120 80 4e 00
        e 0 80 4c 00
        e 0 90 4e 77
        e 0 90 4c 7f
        e 120 80 4e 00
        e 0 80 4c 00
        e 0 90 4e 77
        e 0 90 4c 7f
        e 120 80 4d 00
        e 0 80 4e 00
        e 0 80 4c 00
        e 0 90 4e 77
        e 0 90 4d 77
        e 0 90 4c 7f
        e 120 80 4e 00
        e 0 80 4d 00
        e 0 80 4c 00
        e 0 90 4e 77
        e 0 90 4c 7f
        e 120 80 4e 00
        e 0 80 4c 00
        e 0 90 4d 77
        e 0 90 4c 7f
        e 120 80 4c 00
        e 0 90 4e 77
        e 0 90 4c 7f
        e 120 80 4d 00
        e 0 80 4e 00
        e 0 80 4c 00
        e 0 90 4e 77
        e 0 90 4c 7f
        e 120 80 4e 00
        e 0 80 4c 00
        e 0 90 4e 77
        e 0 90 4d 77
        e 0 90 4c 7f
        e 120 80 4e 00
        e 0 80 4d 00
        e 0 80 4c 00
        e 0 90 4c 7f
        e 120 80 4c 00
        e 0 90 4e 77
        e 0 90 4d 77
        e 0 90 4c 7f
        e 120 80 4e 00
        e 0 80 4c 00
        e 0 90 4e 77
        e 0 90 4c 7f
        e 120 80 4d 00
        e 0 80 4e 00
        e 0 80 4c 00
        e 0 90 4e 77
        e 0 90 4c 7f
        e 120 80 4c 00
        e 0 90 4d 77
        e 0 90 4c 7f
        e 120 80 4c 00
        e 0 90 4c 7f
        e 120 80 4e 00
        e 0 80 4c 00
        e 0 90 4e 77
        e 0 90 4c 7f
        e 120 80 4d 00
        e 0 80 4e 00
        e 0 80 4c 00
        e 0 90 4c 7f
        e 120 80 4c 00
        e 0 90 4e 77
        e 0 90 4d 77
        e 0 90 4c 7f
        e 120 80 4d 00
        e 0 80 4c 00
        e 0 90 4c 7f
        e 120 80 4e 00
        e 0 80 4c 00
        e 0 90 4d 7f
        e 0 90 4c 7f
        e 120 80 4d 00
        e 0 80 4c 00
        e 0 90 4e 77
        e 0 90 4c 7f
        e 120 80 4e 00
        e 0 80 4c 00
        e 0 90 4d 7f
        e 0 90 4c 7f
        e 120 80 4d 00
        e 0 80 4c 00
        e 0 90 4e 77
        e 0 90 4c 7f
        e 120 80 4c 00
        e 0 90 4d 7f
        e 0 90 4c 7f
        e 120 80 4e 00
        e 0 80 4d 00
        e 0 80 4c 00
        e 0 90 4c 7f
        e 120 80 4c 00
        e 0 90 4e 77
        e 0 90 4d 7f
        e 0 90 4c 7f
        e 120 80 4c 00
        e 0 90 4c 7f
        e 120 80 4d 00
        e 0 80 4c 00
        e 0 90 4c 7f
        e 120 80 4e 00
        e 0 80 4c 00
        e 0 90 4d 7f
        e 0 90 4c 7f
        e 120 80 4c 00
        e 0 90 4e 77
        e 0 90 4c 7f
        e 120 80 4d 00
        e 0 80 4e 00
        e 0 80 4c 00
        e 0 90 4c 7f
        e 120 80 4c 00
        e 0 90 4e 7f
        e 0 90 4c 7f
        e 120 80 4e 00
        e 0 80 4c 00
        e 0 90 4d 7f
        e 0 90 4c 7f
        e 120 80 4c 00
        e 0 90 4e 7f
        e 0 90 4c 7f
        e 120 80 4e 00
        e 0 80 4c 00
        e 0 90 4c 7f
        e 120 80 4d 00
        e 0 80 4c 00
        e 0 90 4e 7f
        e 0 90 4c 7f
        e 120 80 4e 00
        e 0 80 4c 00
        e 0 90 4d 77
        e 0 90 4c 7f
        e 120 80 4d 00
        e 0 80 4c 00
        e 0 90 4e 7f
        e 0 90 4d 77
        e 0 90 4c 7f
        e 120 80 4d 00
        e 0 80 4c 00
        e 0 90 4d 77
        e 0 90 4c 7f
        e 120 80 4e 00
        e 0 80 4d 00
        e 0 80 4c 00
        e 0 90 4c 7f
        e 120 80 4c 00
        e 0 90 4e 7f
        e 0 90 4d 77
        e 0 90 4c 7f
        e 120 80 4d 00
        e 0 80 4c 00
        e 0 90 4d 77
        e 0 90 4c 7f
        e 120 80 4e 00
        e 0 80 4d 00
        e 0 80 4c 00
        e 0 90 4d 77
        e 0 90 4c 7f
        e 120 80 4d 00
        e 0 80 4c 00
        e 0 90 4c 7f
        e 120 80 4c 00
        e 0 90 4e 7f
        e 0 90 4d 77
        e 0 90 4c 7f
        e 120 80 4d 00
        e 0 80 4c 00
        e 0 90 4d 77
        e 0 90 4c 7f
        e 120 80 4d 00
        e 0 80 4c 00
        e 0 90 4c 7f
        e 120 80 4e 00
        e 0 80 4c 00
        e 0 90 4d 77
        e 0 90 4c 7f
        e 120 80 4d 00
        e 0 80 4c 00
        e 0 90 4e 77
        e 0 90 4d 77
        e 0 90 4c 7f
        e 120 80 4e 00
        e 0 80 4d 00
        e 0 80 4c 00
        e 0 90 4e 77
        e 0 90 4d 77
        e 0 90 4c 7f
        e 120 80 4e 00
        e 0 80 4d 00
        e 0 80 4c 00
        e 0 90 4e 77
        e 0 90 4c 7f
        e 120 80 4e 00
        e 0 80 4c 00
        e 0 90 4d 77
        e 0 90 4c 7f
        e 120 80 4d 00
        e 0 80 4c 00
        e 0 90 4e 77
        e 0 90 4d 77
        e 0 90 4c 7f
        e 120 80 4e 00
        e 0 80 4d 00
        e 0 80 4c 00
        e 0 90 4e 77
        e 0 90 4d 77
        e 0 90 4c 7f
        e 120 80 4e 00
        e 0 80 4d 00
        e 0 80 4c 00
        e 0 90 4e 77
        e 0 90 4c 7f
        e 120 80 4e 00
        e 0 80 4c 00
        e 0 90 4d 77
        e 0 90 4c 7f
        e 120 80 4d 00
        e 0 80 4c 00
        e 0 90 4e 77
        e 0 90 4d 77
        e 0 90 4c 7f
        e 120 80 4e 00
        e 0 80 4d 00
        e 0 80 4c 00
        e 0 90 4e 77
        e 0 90 4d 77
        e 0 90 4c 7f
        e 120 80 4e 00
        e 0 80 4d 00
        e 0 80 4c 00
        e 0 90 4d 77
        e 0 90 4c 7f
        e 120 80 4d 00
        e 0 80 4c 00
        e 0 90 4e 77
        e 0 90 4d 77
        e 0 90 4c 7f
        e 120 80 4e 00
        e 0 80 4d 00
        e 0 80 4c 00
        e 0 90 4e 77
        e 0 90 4c 7f
        e 120 80 4e 00
        e 0 80 4c 00
        e 0 90 4e 77
        e 0 90 4c 7f
        e 120 80 4e 00
        e 0 80 4c 00
        e 0 90 4d 77
        e 0 90 4c 7f
        e 120 80 4d 00
        e 0 80 4c 00
        e 0 90 4e 77
        e 0 90 4d 77
        e 0 90 4c 7f
        e 120 80 4e 00
        e 0 80 4d 00
        e 0 80 4c 00
        e 0 90 4e 77
        e 0 90 4c 7f
        e 120 80 4e 00
        e 0 80 4c 00
        e 0 90 4e 77
        e 0 90 4d 77
        e 0 90 4c 7f
        e 120 80 4e 00
        e 0 80 4d 00
        e 0 80 4c 00
        e 0 90 4d 77
        e 0 90 4c 7f
        e 120 80 4d 00
        e 0 80 4c 00
        e 0 90 4e 77
        e 0 90 4d 77
        e 0 90 4c 7f
        e 120 80 4e 00
        e 0 80 4d 00
        e 0 80 4c 00
        e 0 90 4e 77
        e 0 90 4c 7f
        e 120 80 4e 00
        e 0 80 4c 00
        e 0 90 4e 77
        e 0 90 4d 77
        e 0 90 4c 7f
        e 120 80 4e 00
        e 0 80 4d 00
        e 0 80 4c 00
        e 0 90 4e 77
        e 0 90 4d 77
        e 0 90 4c 77
        e 120 80 4e 00
        e 0 80 4d 00
        e 0 80 4c 00
        e 0 90 4e 77
        e 0 90 4d 77
        e 0 90 4c 77
        e 120 80 4e 00
        e 0 80 4d 00
        e 120 90 4d 77
        e 120 80 4c 00
        e 0 80 4d 00
        e 0 90 4e 77
        e 0 90 4d 77
        e 0 90 4c 77
        e 120 80 4e 00
        e 0 80 4d 00
        e 0 80 4c 00
        e 0 90 4e 77
        e 0 90 4d 77
        e 120 80 4e 00
        e 0 80 4d 00
        e 0 90 4d 77
        e 0 90 4c 77
        e 120 80 4d 00
        e 0 90 4e 77
        e 0 90 4d 77
        e 120 80 4c 00
        e 0 80 4e 00
        e 0 80 4d 00
        e 0 90 4e 77
        e 120 80 4e 00
        e 0 90 4e 77
        e 0 90 4c 77
        e 120 80 4e 00
        e 0 80 4c 00
        e 0 90 4d 7f
        e 120 90 4e 77
        e 0 90 4c 77
        e 120 80 4d 00
        e 0 80 4e 00
        e 0 90 4e 77
        e 120 80 4c 00
        e 0 80 4e 00
        e 0 90 4e 77
        e 120 80 4e 00
        e 0 90 4c 77
        e 0 90 4d 7f
        e 120 90 4e 77
        e 120 80 4d 00
        e 0 80 4e 00
        e 0 90 4e 77
        e 0 90 4d 7f
        e 120 80 4c 00
        e 0 80 4e 00
        e 0 80 4d 00
        e 0 90 4e 77
        e 0 90 4d 7f
        e 120 80 4e 00
        e 0 80 4d 00
        e 0 90 4e 77
        e 0 90 4c 77
        e 0 90 4d 7f
        e 120 80 4e 00
        e 0 80 4c 00
        e 0 80 4d 00
        e 0 90 4e 77
        e 0 90 4d 7f
        e 120 80 4e 00
        e 0 80 4d 00
        e 0 90 4c 7f
        e 0 90 4d 7f
        e 120 80 4c 00
        e 0 80 4d 00
        e 0 90 4d 7f
        e 120 80 4d 00
        e 0 90 4e 7f
        e 0 90 4c 7f
        e 0 90 4d 7f
        e 120 80 4c 00
        e 0 80 4d 00
        e 0 90 4d 7f
        e 120 80 4e 00
        e 0 80 4d 00
        e 0 90 4c 7f
        e 0 90 4d 7f
        e 120 80 4c 00
        e 0 80 4d 00
        e 0 90 4d 7f
        e 120 80 4d 00
        e 0 90 4c 7f
        e 0 90 4e 7f
        e 0 90 4d 7f
        e 120 80 4d 00
        e 0 90 4d 7f
        e 120 80 4c 00
        e 0 80 4e 00
        e 0 80 4d 00
        e 0 90 4c 7f
        e 0 90 4e 7f
        e 0 90 4d 7f
        e 120 80 4c 00
        e 0 80 4e 00
        e 0 80 4d 00
        e 0 90 4e 7f
        e 0 90 4d 7f
        e 120 80 4e 00
        e 0 80 4d 00
        e 0 90 4c 7f
        e 0 90 4e 7f
        e 0 90 4d 7f
        e 120 80 4e 00
        e 0 80 4d 00
        e 0 90 4e 7f
        e 0 90 4d 7f
        e 120 80 4c 00
        e 0 80 4e 00
        e 0 80 4d 00
        e 0 90 4e 7f
        e 0 90 4d 7f
        e 120 80 4e 00
        e 0 80 4d 00
        e 0 90 4c 7f
        e 0 90 4e 7f
        e 0 90 4d 7f
        e 120 80 4c 00
        e 0 80 4e 00
        e 0 80 4d 00
        e 0 90 4e 7f
        e 0 90 4d 7f
        e 120 80 4e 00
        e 0 80 4d 00
        e 0 90 4c 7f
        e 0 90 4e 7f
        e 0 90 4d 7f
        e 120 80 4c 00
        e 0 80 4e 00
        e 0 80 4d 00
        e 0 90 4e 7f
        e 0 90 4d 7f
        e 120 80 4e 00
        e 0 80 4d 00
        e 0 90 4c 7f
        e 0 90 4e 7f
        e 0 90 4d 7f
        e 120 80 4c 00
        e 0 80 4e 00
        e 0 80 4d 00
        e 0 90 4e 7f
        e 0 90 4d 7f
        e 120 80 4e 00
        e 0 80 4d 00
        e 0 90 4c 7f
        e 0 90 4e 7f
        e 0 90 4d 7f
        e 120 80 4c 00
        e 0 80 4e 00
        e 0 80 4d 00
        e 0 90 4c 7f
        e 0 90 4e 7f
        e 0 90 4d 7f
        e 120 80 4c 00
        e 0 80 4e 00
        e 0 80 4d 00
        e 0 90 4e 7f
        e 0 90 4d 7f
        e 120 80 4e 00
        e 0 80 4d 00
        e 0 90 4e 7f
        e 0 90 4d 7f
        e 120 80 4e 00
        e 0 80 4d 00
        e 0 90 4c 7f
        e 0 90 4e 7f
        e 0 90 4d 7f
        e 120 80 4c 00
        e 0 80 4e 00
        e 0 80 4d 00
        e 0 90 4c 7f
        e 0 90 4e 7f
        e 0 90 4d 7f
        e 120 80 4c 00
        e 0 80 4e 00
        e 0 80 4d 00
        e 0 90 4e 7f
        e 0 90 4d 7f
        e 120 80 4e 00
        e 0 80 4d 00
        e 0 90 4c 7f
        e 0 90 4e 7f
        e 0 90 4d 7f
        e 120 80 4e 00
        e 0 80 4d 00
        e 0 90 4e 7f
        e 0 90 4d 7f
        e 120 80 4e 00
        e 0 80 4d 00
        e 0 90 4e 7f
        e 0 90 4d 7f
        e 120 80 4e 00
        e 0 80 4d 00
        e 0 90 4e 7f
        e 0 90 4d 7f
        e 120 80 4c 00
        e 0 80 4e 00
        e 0 80 4d 00
        e 0 90 4e 7f
        e 0 90 4d 7f
        e 120 80 4e 00
        e 0 80 4d 00
        e 0 90 4e 7f
        e 0 90 4d 7f
        e 120 80 4e 00
        e 0 80 4d 00
        e 0 90 4c 7f
        e 0 90 4e 7f
        e 0 90 4d 7f
        e 0 90 4d 7f
        e 120 80 4e 00
        e 0 80 4d 00
        e 0 90 4e 7f
        e 0 90 4d 7f
        e 120 80 4d 00
        e 0 80 4e 00
        e 0 90 4e 7f
        e 0 90 4d 7f
        e 120 80 4d 00
        e 0 80 4e 00
        e 0 90 4e 7f
        e 0 90 4d 7f
        e 120 80 4c 00
        e 0 80 4d 00
        e 0 80 4e 00
        e 0 90 4e 7f
        e 0 90 4d 7f
        e 120 80 4d 00
        e 0 80 4e 00
        e 0 90 4e 7f
        e 0 90 4d 7f
        e 120 80 4d 00
        e 0 80 4e 00
        e 0 90 4c 7f
        e 0 90 4e 7f
        e 0 90 4d 7f
        e 120 80 4d 00
        e 0 80 4e 00
        e 0 80 4d 00
        e 0 90 4e 7f
        e 0 90 4d 7f
        e 120 80 4e 00
        e 0 80 4d 00
        e 0 90 4e 7f
        e 0 90 4d 7f
        e 120 80 4e 00
        e 0 80 4d 00
        e 0 90 4e 7f
        e 0 90 4d 7f
        e 120 80 4c 00
        e 0 80 4e 00
        e 0 80 4d 00
        e 0 90 4e 7f
        e 0 90 4d 7f
        e 120 80 4e 00
        e 0 80 4d 00
        e 0 90 4e 7f
        e 0 90 4d 7f
        e 120 80 4e 00
        e 0 80 4d 00
        e 0 90 4c 7f
        e 0 90 4e 7f
        e 0 90 4e 7f
        e 0 90 4d 7f
        e 120 80 4e 00
        e 0 80 4d 00
        e 0 90 4e 7f
        e 0 90 4d 7f
        e 120 80 4e 00
        e 0 80 4d 00
        e 0 90 4e 7f
        e 0 90 4d 7f
        e 120 80 4e 00
        e 0 80 4d 00
        e 0 90 4e 7f
        e 0 90 4d 7f
        e 120 80 4c 00
        e 0 80 4e 00
        e 0 80 4d 00
        e 0 90 4e 7f
        e 0 90 4d 7f
        e 120 80 4e 00
        e 0 80 4d 00
        e 0 90 4c 7f
        e 0 90 4e 7f
        e 0 90 4d 7f
        e 120 80 4e 00
        e 0 80 4d 00
        e 0 90 4e 7f
        e 0 90 4d 7f
        e 120 80 4e 00
        e 0 80 4e 00
        e 0 80 4d 00
        e 0 90 4e 7f
        e 0 90 4d 7f
        e 120 80 4e 00
        e 0 80 4d 00
        e 0 90 4e 7f
        e 0 90 4d 7f
        e 120 80 4c 00
        e 0 80 4e 00
        e 0 80 4d 00
        e 0 90 4e 7f
        e 0 90 4d 7f
        e 120 80 4e 00
        e 0 80 4d 00
        e 0 90 4c 7f
        e 0 90 4e 7f
        e 0 90 4d 7f
        e 120 80 4e 00
        e 0 80 4d 00
        e 0 90 4e 7f
        e 0 90 4d 7f
        e 120 80 4e 00
        e 0 80 4d 00
        e 0 90 4e 7f
        e 0 90 4d 7f
        e 120 80 4c 00
        e 0 80 4e 00
        e 0 80 4d 00
        e 0 90 4e 7f
        e 0 90 4d 7f
        e 120 80 4e 00
        e 0 80 4d 00
        e 0 90 4e 7f
        e 0 90 4d 7f
        e 120 80 4e 00
        e 0 80 4d 00
        e 0 90 4c 77
        e 0 90 4e 7f
        e 0 90 4d 7f
        e 120 80 4c 00
        e 0 80 4e 00
        e 0 80 4d 00
        e 0 90 4c 77
        e 0 90 4e 7f
        e 0 90 4d 7f
        e 120 80 4c 00
        e 0 80 4e 00
        e 0 80 4d 00
        e 0 90 4c 77
        e 0 90 4e 7f
        e 0 90 4d 7f
        e 120 80 4c 00
        e 0 80 4e 00
        e 0 80 4d 00
        e 0 90 4e 7f
        e 0 90 4d 7f
        e 120 80 4e 00
        e 0 80 4d 00
        e 0 90 4c 77
        e 0 90 4e 7f
        e 0 90 4d 7f
        e 120 80 4c 00
        e 0 80 4e 00
        e 0 80 4d 00
        e 0 90 4c 77
        e 0 90 4e 7f
        e 0 90 4d 7f
        e 120 80 4c 00
        e 0 80 4e 00
        e 0 80 4d 00
        e 0 90 4c 77
        e 0 90 4e 7f
        e 0 90 4d 7f
        e 120 80 4c 00
        e 0 80 4e 00
        e 0 80 4d 00
        e 0 90 4e 7f
        e 0 90 4d 7f
        e 120 80 4e 00
        e 0 80 4d 00
        e 0 90 4c 77
        e 0 90 4e 7f
        e 0 90 4d 7f
        e 120 80 4c 00
        e 0 80 4e 00
        e 0 80 4d 00
        e 0 90 4c 77
        e 0 90 4e 7f
        e 0 90 4d 7f
        e 120 80 4c 00
        e 0 80 4e 00
        e 0 80 4d 00
        e 0 90 4e 7f
        e 0 90 4d 7f
        e 120 80 4e 00
        e 0 80 4d 00
        e 0 90 4c 77
        e 0 90 4e 7f
        e 0 90 4d 7f
        e 120 80 4c 00
        e 0 80 4e 00
        e 0 80 4d 00
        e 0 90 4c 77
        e 0 90 4e 7f
        e 0 90 4d 7f
        e 120 80 4c 00
        e 0 80 4e 00
        e 0 80 4d 00
        e 0 90 4c 77
        e 0 90 4e 7f
        e 0 90 4d 7f
        e 120 80 4c 00
        e 0 80 4e 00
        e 0 80 4d 00
        e 0 90 4e 7f
        e 0 90 4d 7f
        e 120 80 4e 00
        e 0 80 4d 00
        e 0 90 4c 77
        e 0 90 4e 7f
        e 0 90 4d 7f
        e 120 80 4c 00
        e 0 80 4e 00
        e 0 80 4d 00
        e 0 90 4c 77
        e 0 90 4e 7f
        e 0 90 4d 7f
        e 120 80 4c 00
        e 0 80 4e 00
        e 0 80 4d 00
        e 0 90 4c 77
        e 0 90 4e 7f
        e 0 90 4d 7f
        e 120 80 4c 00
        e 0 80 4e 00
        e 0 80 4d 00
        e 0 90 4e 7f
        e 0 90 4d 7f
        e 120 80 4e 00
        e 0 80 4d 00
        e 0 90 4c 77
        e 0 90 4e 7f
        e 0 90 4d 7f
        e 120 80 4c 00
        e 0 80 4e 00
        e 0 80 4d 00
        e 0 90 4c 77
        e 0 90 4e 7f
        e 0 90 4d 7f
        e 120 80 4c 00
        e 0 80 4e 00
        e 0 80 4d 00
        e 0 90 4c 77
        e 0 90 4e 7f
        e 0 90 4d 7f
        e 120 80 4c 00
        e 0 80 4e 00
        e 0 80 4d 00
        e 0 90 4c 77
        e 0 90 4e 7f
        e 0 90 4d 7f
        e 120 80 4c 00
        e 0 80 4e 00
        e 0 80 4d 00
        e 0 90 4c 77
        e 0 90 4e 7f
        e 0 90 4d 7f
        e 120 80 4c 00
        e 0 80 4e 00
        e 0 80 4d 00
        e 0 90 4e 7f
        e 0 90 4d 7f
        e 120 80 4e 00
        e 0 80 4d 00
        e 0 90 4c 77
        e 0 90 4e 7f
        e 0 90 4d 7f
        e 120 80 4c 00
        e 0 80 4e 00
        e 0 80 4d 00
        e 0 90 4c 77
        e 0 90 4e 7f
        e 0 90 4d 7f
        e 120 80 4c 00
        e 0 80 4e 00
        e 0 80 4d 00
        e 0 90 4c 77
        e 0 90 4e 7f
        e 0 90 4d 7f
        e 120 80 4c 00
        e 0 80 4e 00
        e 0 80 4d 00
        e 0 90 4e 7f
        e 0 90 4d 7f
        e 120 80 4e 00
        e 0 80 4d 00
        e 0 90 4c 77
        e 0 90 4e 7f
        e 0 90 4d 7f
        e 120 80 4c 00
        e 0 80 4e 00
        e 0 80 4d 00
        e 0 90 4c 77
        e 0 90 4e 7f
        e 0 90 4d 7f
        e 120 80 4c 00
        e 0 80 4e 00
        e 0 80 4d 00
        e 0 90 4c 77
        e 0 90 4e 7f
        e 0 90 4d 7f
        e 120 80 4e 00
        e 0 80 4d 00
        e 0 90 4e 7f
        e 0 90 4d 7f
        e 120 80 4e 00
        e 0 80 4d 00
        e 0 90 4e 7f
        e 0 90 4d 7f
        e 120 80 4c 00
        e 0 80 4e 00
        e 0 80 4d 00
        e 0 90 4c 77
        e 0 90 4e 7f
        e 0 90 4d 7f
        e 120 80 4c 00
        e 0 80 4e 00
        e 0 80 4d 00
        e 0 90 4e 7f
        e 0 90 4d 7f
        e 120 80 4e 00
        e 0 80 4d 00
        e 0 90 4c 77
        e 0 90 4e 7f
        e 0 90 4d 7f
        e 120 80 4e 00
        e 0 80 4d 00
        e 0 90 4e 7f
        e 0 90 4d 7f
        e 120 80 4c 00
        e 0 80 4e 00
        e 0 80 4d 00
        e 0 90 4e 7f
        e 0 90 4d 7f
        e 120 80 4e 00
        e 0 80 4d 00
        e 0 90 4c 77
        e 0 90 4e 7f
        e 0 90 4d 7f
        e 120 80 4c 00
        e 0 80 4e 00
        e 0 80 4d 00
        e 0 90 4e 7f
        e 0 90 4d 7f
        e 120 80 4e 00
        e 0 80 4d 00
        e 0 90 4c 77
        e 0 90 4e 7f
        e 0 90 4d 7f
        e 120 80 4e 00
        e 0 80 4d 00
        e 0 90 4e 7f
        e 0 90 4d 7f
        e 120 80 4c 00
        e 0 80 4e 00
        e 0 80 4d 00
        e 0 90 4e 7f
        e 0 90 4d 7f
        e 120 80 4e 00
        e 0 80 4d 00
        e 0 90 4c 77
        e 0 90 4e 7f
        e 0 90 4d 7f
        e 120 80 4e 00
        e 0 80 4d 00
        e 0 90 4e 7f
        e 0 90 4d 7f
        e 120 80 4e 00
        e 0 80 4d 00
        e 0 90 4e 7f
        e 0 90 4d 7f
        e 120 80 4c 00
        e 0 80 4e 00
        e 0 80 4d 00
        e 0 90 4e 7f
        e 0 90 4d 7f
        e 120 80 4e 00
        e 0 80 4d 00
        e 0 90 4c 77
        e 0 90 4e 7f
        e 0 90 4d 7f
        e 120 80 4c 00
        e 0 80 4e 00
        e 0 80 4d 00
        e 0 90 4e 7f
        e 0 90 4d 7f
        e 120 80 4e 00
        e 0 80 4d 00
        e 0 90 4c 7f
        e 0 90 4e 7f
        e 0 90 4d 7f
        e 120 80 4c 00
        e 0 80 4e 00
        e 0 80 4d 00
        e 0 90 4e 7f
        e 0 90 4d 7f
        e 120 80 4e 00
        e 0 80 4d 00
        e 0 90 4c 7f
        e 0 90 4e 7f
        e 0 90 4d 7f
        e 120 80 4c 00
        e 0 80 4e 00
        e 0 80 4d 00
        e 0 90 4e 7f
        e 0 90 4d 7f
        e 120 80 4e 00
        e 0 80 4d 00
        e 0 90 4c 7f
        e 0 90 4e 7f
        e 0 90 4d 7f
        e 120 80 4c 00
        e 0 80 4e 00
        e 0 80 4d 00
        e 0 90 4e 7f
        e 0 90 4d 7f
        e 120 80 4e 00
        e 0 80 4d 00
        e 0 90 4e 7f
        e 0 90 4d 7f
        e 0 90 4c 77
        e 120 80 4e 00
        e 0 80 4d 00
        e 0 80 4c 00
        e 0 90 4e 7f
        e 0 90 4d 7f
        e 0 90 4c 77
        e 120 80 4e 00
        e 0 80 4d 00
        e 0 80 4c 00
        e 0 90 4e 7f
        e 0 90 4d 7f
        e 0 90 4c 77
        e 120 80 4e 00
        e 0 80 4d 00
        e 0 80 4c 00
        e 0 90 4e 7f
        e 0 90 4d 7f
        e 120 80 4e 00
        e 0 80 4d 00
        e 0 90 4e 7f
        e 0 90 4d 7f
        e 0 90 4c 77
        e 120 80 4e 00
        e 0 80 4d 00
        e 0 80 4c 00
        e 0 90 4e 7f
        e 0 90 4d 7f
        e 0 90 4c 77
        e 120 80 4e 00
        e 0 80 4d 00
        e 0 80 4c 00
        e 0 90 4e 7f
        e 0 90 4d 7f
        e 0 90 4c 77
        e 120 80 4e 00
        e 0 80 4d 00
        e 0 80 4c 00
        e 0 90 4e 7f
        e 0 90 4d 7f
        e 120 80 4e 00
        e 0 80 4d 00
        e 0 90 4e 7f
        e 0 90 4d 7f
        e 0 90 4c 77
        e 120 80 4e 00
        e 0 80 4d 00
        e 0 80 4c 00
        e 0 90 4e 7f
        e 0 90 4d 7f
        e 0 90 4c 77
        e 120 80 4e 00
        e 0 80 4d 00
        e 0 80 4c 00
        e 0 90 4e 7f
        e 0 90 4d 7f
        e 120 80 4e 00
        e 0 80 4d 00
        e 0 90 4e 7f
        e 0 90 4d 7f
        e 0 90 4c 77
        e 120 80 4e 00
        e 0 80 4d 00
        e 0 80 4c 00
        e 0 90 4e 7f
        e 0 90 4d 7f
        e 0 90 4c 77
        e 120 80 4e 00
        e 0 80 4d 00
        e 0 80 4c 00
        e 0 90 4e 7f
        e 0 90 4d 7f
        e 0 90 4c 77
        e 120 80 4e 00
        e 0 80 4d 00
        e 0 80 4c 00
        e 0 90 4e 7f
        e 0 90 4d 7f
        e 120 80 4e 00
        e 0 80 4d 00
        e 0 90 4e 7f
        e 0 90 4d 7f
        e 0 90 4c 77
        e 120 80 4e 00
        e 0 80 4d 00
        e 0 80 4c 00
        e 0 90 4e 7f
        e 0 90 4d 7f
        e 0 90 4c 77
        e 120 80 4e 00
        e 0 80 4d 00
        e 0 80 4c 00
        e 0 90 4e 7f
        e 0 90 4d 7f
        e 0 90 4c 77
        e 120 80 4e 00
        e 0 80 4d 00
        e 0 80 4c 00
        e 0 90 4e 7f
        e 0 90 4d 7f
        e 120 80 4e 00
        e 0 80 4d 00
        e 0 90 4e 7f
        e 0 90 4d 7f
        e 0 90 4c 77
        e 120 80 4e 00
        e 0 80 4d 00
        e 0 80 4c 00
        e 0 90 4e 7f
        e 0 90 4d 7f
        e 0 90 4c 77
        e 120 80 4e 00
        e 0 80 4d 00
        e 0 80 4c 00
        e 0 90 4e 7f
        e 0 90 4d 7f
        e 0 90 4c 77
        e 120 80 4e 00
        e 0 80 4d 00
        e 0 80 4c 00
        e 0 90 4e 7f
        e 0 90 4d 7f
        e 0 90 4c 77
        e 120 80 4e 00
        e 0 80 4d 00
        e 0 80 4c 00
        e 0 90 4e 7f
        e 0 90 4d 7f
        e 0 90 4c 77
        e 120 80 4e 00
        e 0 80 4d 00
        e 0 80 4c 00
        e 0 90 4e 7f
        e 0 90 4d 7f
        e 120 80 4e 00
        e 0 80 4d 00
        e 0 90 4e 7f
        e 0 90 4d 7f
        e 0 90 4c 77
        e 120 80 4e 00
        e 0 80 4d 00
        e 0 80 4c 00
        e 0 90 4e 7f
        e 0 90 4d 7f
        e 0 90 4c 77
        e 120 80 4e 00
        e 0 80 4d 00
        e 0 80 4c 00
        e 0 90 4e 7f
        e 0 90 4d 7f
        e 0 90 4c 77
        e 120 80 4e 00
        e 0 80 4d 00
        e 0 80 4c 00
        e 0 90 4e 7f
        e 0 90 4d 7f
        e 120 80 4e 00
        e 0 80 4d 00
        e 0 90 4e 7f
        e 0 90 4d 7f
        e 0 90 4c 77
        e 120 80 4e 00
        e 0 80 4d 00
        e 0 80 4c 00
        e 0 90 4e 7f
        e 0 90 4d 7f
        e 0 90 4c 77
        e 120 80 4e 00
        e 0 80 4d 00
        e 0 80 4c 00
        e 0 90 4e 7f
        e 0 90 4d 7f
        e 0 90 4c 77
        e 120 80 4e 00
        e 0 80 4d 00
        e 0 90 4e 7f
        e 0 90 4d 7f
        e 120 80 4e 00
        e 0 80 4d 00
        e 0 90 4e 7f
        e 0 90 4d 7f
        e 120 80 4c 00
        e 0 80 4e 00
        e 0 80 4d 00
        e 0 90 4e 7f
        e 0 90 4d 7f
        e 0 90 4c 77
        e 120 80 4e 00
        e 0 80 4d 00
        e 0 80 4c 00
        e 0 90 4e 7f
        e 0 90 4d 7f
        e 120 80 4e 00
        e 0 80 4d 00
        e 0 90 4e 7f
        e 0 90 4d 7f
        e 0 90 4c 77
        e 120 80 4e 00
        e 0 80 4d 00
        e 0 90 4e 7f
        e 0 90 4d 7f
        e 120 80 4c 00
        e 0 80 4e 00
        e 0 80 4d 00
        e 0 90 4e 7f
        e 0 90 4d 7f
        e 120 80 4e 00
        e 0 80 4d 00
        e 0 90 4e 7f
        e 0 90 4d 7f
        e 0 90 4c 77
        e 120 80 4e 00
        e 0 80 4d 00
        e 0 80 4c 00
        e 0 90 4e 7f
        e 120 80 4e 00
        e 0 90 4e 7f
        e 0 90 4c 77
        e 120 80 4e 00
        e 0 90 4e 7f
        e 120 80 4c 00
        e 0 80 4e 00
        e 0 90 4e 7f
        e 120 80 4e 00
        e 0 90 4e 7f
        e 0 90 4c 77
        e 0 90 4d 77
        e 120 80 4e 00
        e 0 80 4d 00
        e 0 90 4e 7f
        e 0 90 4d 77
        e 120 80 4e 00
        e 0 80 4d 00
        e 0 90 4e 7f
        e 0 90 4d 77
        e 120 80 4c 00
        e 0 80 4e 00
        e 0 80 4d 00
        e 0 90 4e 7f
        e 120 80 4e 00
        e 0 90 4e 7f
        e 0 90 4c 77
        e 0 90 4d 77
        e 120 80 4e 00
        e 0 80 4c 00
        e 0 80 4d 00
        e 0 90 4e 7f
        e 0 90 4d 77
        e 120 80 4e 00
        e 0 80 4d 00
        e 0 90 4e 7f
        e 0 90 4c 7f
        e 0 90 4d 77
        e 120 80 4e 00
        e 0 80 4c 00
        e 0 80 4d 00
        e 0 90 4e 7f
        e 120 80 4e 00
        e 0 90 4c 7f
        e 0 90 4d 77
        e 120 80 4c 00
        e 0 80 4d 00
        e 0 90 4d 77
        e 120 80 4d 00
        e 0 90 4c 7f
        e 120 80 4c 00
        e 0 90 4d 77
        e 120 80 4d 00
        e 0 90 4c 7f
        e 0 90 4d 77
        e 0 90 4e 7f
        e 120 80 4d 00
        e 0 90 4d 77
        e 120 80 4c 00
        e 0 80 4e 00
        e 0 80 4d 00
        e 120 90 4c 7f
        e 0 90 4d 77
        e 0 90 4e 7f
        e 120 80 4c 00
        e 0 80 4d 00
        e 0 80 4e 00
        e 0 90 4c 7f
        e 0 90 4d 77
        e 0 90 4e 7f
        e 120 80 4c 00
        e 0 80 4d 00
        e 0 80 4e 00
        e 0 90 4d 77
        e 120 80 4d 00
        e 0 90 4c 7f
        e 0 90 4e 7f
        e 120 90 4d 77
        e 120 80 4c 00
        e 0 80 4e 00
        e 0 80 4d 00
        e 0 90 4d 77
        e 120 80 4d 00
        e 0 90 4c 7f
        e 0 90 4d 77
        e 0 90 4e 7f
        e 120 80 4d 00
        e 0 90 4d 77
        e 120 80 4c 00
        e 0 80 4e 00
        e 0 80 4d 00
        e 0 90 4d 77
        e 120 80 4d 00
        e 0 90 4c 7f
        e 0 90 4e 7f
        e 120 80 4c 00
        e 0 80 4e 00
        e 0 90 4c 7f
        e 0 90 4d 77
        e 0 90 4e 7f
        e 120 80 4c 00
        e 0 80 4d 00
        e 0 80 4e 00
        e 0 90 4d 77
        e 120 80 4d 00
        e 0 90 4c 7f
        e 0 90 4d 77
        e 0 90 4e 7f
        e 120 80 4d 00
        e 120 80 4c 00
        e 0 80 4e 00
        e 0 90 4d 77
        e 120 80 4d 00
        e 0 90 4c 7f
        e 0 90 4d 77
        e 0 90 4e 7f
        e 120 80 4d 00
        e 0 90 4d 77
        e 120 80 4c 00
        e 0 80 4e 00
        e 120 90 4c 7f
        e 0 90 4e 7f
        e 120 80 4d 00
        e 0 80 4c 00
        e 0 80 4e 00
        e 0 90 4c 7f
        e 0 90 4d 77
        e 0 90 4e 7f
        e 120 80 4c 00
        e 0 80 4d 00
        e 0 80 4e 00
        e 120 90 4c 7f
        e 0 90 4d 77
        e 0 90 4e 7f
        e 240 80 4c 00
        e 0 80 4d 00
        e 0 80 4e 00
        e 120 90 4c 7f
        e 0 90 4d 77
        e 0 90 4e 7f
        e 120 80 4d 00
        e 120 80 4c 00
        e 0 80 4e 00
        e 0 90 4d 77
        e 120 90 4c 7f
        e 0 90 4e 7f
        e 120 80 4d 00
        e 0 80 4c 00
        e 0 80 4e 00
        e 0 90 4c 7f
        e 0 90 4e 7f
        e 120 80 4c 00
        e 0 80 4e 00
        e 0 90 4d 77
        e 120 90 4c 7f
        e 0 90 4e 7f
        e 240 80 4d 00
        e 0 80 4c 00
        e 0 80 4e 00
        e 120 90 4c 7f
        e 0 90 4d 77
        e 0 90 4e 7f
        e 120 80 4d 00
        e 120 80 4c 00
        e 0 80 4e 00
        e 0 90 4d 7f
        e 120 80 4d 00
        e 0 90 4c 7f
        e 0 90 4e 7f
        e 120 80 4c 00
        e 0 80 4e 00
        e 0 90 4c 7f
        e 0 90 4d 7f
        e 0 90 4e 7f
        e 120 80 4c 00
        e 0 80 4d 00
        e 0 80 4e 00
        e 120 90 4c 7f
        e 0 90 4d 7f
        e 0 90 4e 7f
        e 120 80 4d 00
        e 120 80 4c 00
        e 0 80 4e 00
        e 120 90 4c 7f
        e 0 90 4e 7f
        e 0 90 4d 7f
        e 240 80 4c 00
        e 0 80 4e 00
        e 0 80 4d 00
        e 0 90 4d 7f
        e 120 80 4d 00
        e 0 90 4c 7f
        e 0 90 4e 7f
        e 0 90 4d 7f
        e 120 80 4c 00
        e 0 80 4e 00
        e 0 80 4d 00
        e 0 90 4c 7f
        e 0 90 4e 7f
        e 0 90 4d 7f
        e 120 80 4c 00
        e 0 80 4e 00
        e 0 80 4d 00
        e 0 90 4d 7f
        e 120 80 4d 00
        e 0 90 4c 7f
        e 0 90 4e 7f
        e 0 90 4d 7f
        e 120 80 4d 00
        e 0 90 4d 7f
        e 120 80 4c 00
        e 0 80 4e 00
        e 0 80 4d 00
        e 0 90 4d 7f
        e 120 80 4d 00
        e 0 90 4e 7f
        e 0 90 4d 7f
        e 120 80 4e 00
        e 0 80 4d 00
        e 0 90 4c 7f
        e 0 90 4e 7f
        e 0 90 4d 7f
        e 120 80 4c 00
        e 0 80 4e 00
        e 0 80 4d 00
        e 0 90 4c 7f
        e 0 90 4e 7f
        e 0 90 4d 7f
        e 120 80 4c 00
        e 0 80 4e 00
        e 0 80 4d 00
        e 0 90 4c 7f
        e 0 90 4e 7f
        e 0 90 4d 7f
        e 120 80 4c 00
        e 0 80 4e 00
        e 0 80 4d 00
        e 0 90 4c 7f
        e 0 90 4e 7f
        e 0 90 4d 7f
        e 120 80 4c 00
        e 0 80 4e 00
        e 0 80 4d 00
        e 0 90 4c 7f
        e 0 90 4e 7f
        e 0 90 4d 7f
        e 120 80 4c 00
        e 0 80 4e 00
        e 0 80 4d 00
        e 0 90 4c 7f
        e 0 90 4e 7f
        e 0 90 4d 7f
        e 120 80 4c 00
        e 0 80 4e 00
        e 0 80 4d 00
        e 0 90 4c 7f
        e 0 90 4e 7f
        e 0 90 4d 7f
        e 120 80 4c 00
        e 0 80 4e 00
        e 0 80 4d 00
        e 0 90 4c 7f
        e 0 90 4e 7f
        e 0 90 4d 7f
        e 120 80 4c 00
        e 0 80 4e 00
        e 0 80 4d 00
        e 0 90 4c 7f
        e 0 90 4e 7f
        e 0 90 4d 7f
        e 120 80 4c 00
        e 0 80 4e 00
        e 0 80 4d 00
        e 0 90 4c 7f
        e 0 90 4e 7f
        e 0 90 4d 7f
        e 120 80 4c 00
        e 0 80 4e 00
        e 0 80 4d 00
        e 0 90 4c 7f
        e 0 90 4e 7f
        e 0 90 4d 7f
        e 120 80 4c 00
        e 0 80 4e 00
        e 0 80 4d 00
        e 0 90 4c 7f
        e 0 90 4e 7f
        e 0 90 4d 7f
        e 120 80 4c 00
        e 0 80 4e 00
        e 0 80 4d 00
        e 0 90 4c 7f
        e 0 90 4e 7f
        e 0 90 4d 7f
        e 120 80 4c 00
        e 0 80 4e 00
        e 0 80 4d 00
        e 0 90 4c 7f
        e 0 90 4d 7f
        e 120 80 4c 00
        e 0 80 4d 00
        e 0 90 4e 7f
        e 0 90 4d 7f
        e 120 80 4e 00
        e 0 80 4d 00
        e 0 90 4c 7f
        e 0 90 4d 7f
        e 120 80 4c 00
        e 0 80 4d 00
        e 0 90 4e 7f
        e 0 90 4d 7f
        e 120 80 4d 00
        e 0 90 4c 7f
        e 0 90 4d 7f
        e 120 80 4e 00
        e 0 80 4d 00
        e 0 90 4e 7f
        e 0 90 4d 7f
        e 120 80 4c 00
        e 0 80 4e 00
        e 0 80 4d 00
        e 0 90 4c 7f
        e 0 90 4d 7f
        e 120 80 4c 00
        e 0 80 4d 00
        e 0 90 4e 7f
        e 0 90 4d 7f
        e 120 80 4d 00
        e 0 90 4c 7f
        e 0 90 4d 7f
        e 120 80 4d 00
        e 0 90 4d 7f
        e 120 80 4e 00
        e 0 80 4d 00
        e 0 90 4d 7f
        e 120 80 4c 00
        e 0 80 4d 00
        e 0 90 4e 7f
        e 0 90 4d 7f
        e 120 80 4e 00
        e 0 80 4d 00
        e 0 90 4c 7f
        e 0 90 4e 7f
        e 0 90 4d 7f
        e 120 80 4c 00
        e 0 80 4e 00
        e 0 80 4d 00
        e 0 90 4c 7f
        e 0 90 4e 7f
        e 0 90 4d 7f
        e 120 80 4c 00
        e 0 80 4e 00
        e 0 80 4d 00
        e 0 90 4c 7f
        e 0 90 4e 7f
        e 0 90 4d 7f
        e 120 80 4c 00
        e 0 80 4e 00
        e 0 80 4d 00
        e 0 90 4c 7f
        e 0 90 4e 7f
        e 0 90 4d 7f
        e 0 90 4d 7f
        e 120 80 4c 00
        e 0 80 4e 00
        e 0 80 4d 00
        e 0 90 4c 7f
        e 0 90 4e 7f
        e 0 90 4d 7f
        e 120 80 4d 00
        e 0 80 4c 00
        e 0 80 4e 00
        e 0 90 4c 7f
        e 0 90 4e 7f
        e 0 90 4d 7f
        e 120 80 4d 00
        e 0 80 4c 00
        e 0 80 4e 00
        e 0 90 4c 7f
        e 0 90 4d 7f
        e 120 80 4d 00
        e 0 80 4c 00
        e 0 90 4e 7f
        e 0 90 4d 7f
        e 120 80 4d 00
        e 0 90 4c 7f
        e 0 90 4d 7f
        e 120 80 4d 00
        e 0 90 4d 7f
        e 120 80 4e 00
        e 0 80 4d 00
        e 0 80 4d 00
        e 0 90 4d 7f
        e 120 80 4c 00
        e 0 80 4d 00
        e 0 90 4e 7f
        e 0 90 4d 7f
        e 120 80 4e 00
        e 0 80 4d 00
        e 0 90 4c 7f
        e 0 90 4d 7f
        e 120 80 4c 00
        e 0 80 4d 00
        e 0 90 4e 7f
        e 0 90 4d 7f
        e 120 80 4d 00
        e 0 90 4c 7f
        e 0 90 4d 7f
        e 120 80 4d 00
        e 0 90 4d 7f
        e 120 80 4d 00
        e 0 90 4d 7f
        e 120 80 4e 00
        e 0 80 4d 00
        e 0 90 4d 7f
        e 120 80 4c 00
        e 0 80 4d 00
        e 0 90 4e 77
        e 0 90 4d 7f
        e 120 80 4e 00
        e 0 80 4d 00
        e 0 90 4c 77
        e 0 90 4e 77
        e 0 90 4d 7f
        e 120 80 4c 00
        e 0 80 4e 00
        e 0 80 4d 00
        e 0 90 4c 77
        e 0 90 4e 77
        e 0 90 4d 7f
        e 120 80 4c 00
        e 0 80 4e 00
        e 0 80 4d 00
        e 0 90 4c 77
        e 0 90 4d 7f
        e 120 80 4c 00
        e 0 80 4d 00
        e 0 90 4e 77
        e 0 90 4d 7f
        e 120 80 4e 00
        e 0 80 4d 00
        e 0 90 4c 77
        e 0 90 4e 77
        e 0 90 4d 7f
        e 120 80 4c 00
        e 0 80 4e 00
        e 0 80 4d 00
        e 0 90 4c 77
        e 0 90 4e 77
        e 0 90 4d 7f
        e 120 80 4c 00
        e 0 80 4e 00
        e 0 80 4d 00
        e 0 90 4c 77
        e 0 90 4d 7f
        e 120 80 4c 00
        e 0 80 4d 00
        e 0 90 4e 77
        e 0 90 4d 7f
        e 120 80 4e 00
        e 0 80 4d 00
        e 0 90 4c 77
        e 0 90 4e 77
        e 0 90 4d 7f
        e 120 80 4c 00
        e 0 80 4e 00
        e 0 80 4d 00
        e 0 90 4c 77
        e 0 90 4d 7f
        e 120 80 4c 00
        e 0 80 4d 00
        e 0 90 4e 77
        e 0 90 4d 7f
        e 120 80 4e 00
        e 0 80 4d 00
        e 0 90 4c 77
        e 0 90 4e 77
        e 0 90 4d 7f
        e 120 80 4c 00
        e 0 80 4e 00
        e 0 80 4d 00
        e 0 90 4c 77
        e 0 90 4e 77
        e 0 90 4d 7f
        e 120 80 4c 00
        e 0 80 4e 00
        e 0 80 4d 00
        e 0 90 4c 77
        e 0 90 4d 7f
        e 120 80 4c 00
        e 0 80 4d 00
        e 0 90 4e 77
        e 0 90 4d 7f
        e 120 80 4e 00
        e 0 80 4d 00
        e 0 90 4c 77
        e 0 90 4e 77
        e 0 90 4d 7f
        e 120 80 4c 00
        e 0 80 4e 00
        e 0 80 4d 00
        e 0 90 4c 77
        e 0 90 4e 77
        e 0 90 4d 7f
        e 120 80 4c 00
        e 0 80 4e 00
        e 0 80 4d 00
        e 0 90 4c 77
        e 0 90 4d 7f
        e 120 80 4c 00
        e 0 80 4d 00
        e 0 90 4e 77
        e 0 90 4d 7f
        e 120 80 4e 00
        e 0 80 4d 00
        e 0 90 4c 77
        e 0 90 4e 77
        e 0 90 4d 7f
        e 120 80 4c 00
        e 0 80 4e 00
        e 0 80 4d 00
        e 0 90 4c 77
        e 0 90 4e 77
        e 0 90 4d 7f
        e 120 80 4c 00
        e 0 80 4e 00
        e 0 80 4d 00
        e 0 90 4c 77
        e 0 90 4e 77
        e 0 90 4d 7f
        e 120 80 4c 00
        e 0 80 4e 00
        e 0 80 4d 00
        e 0 90 4c 77
        e 0 90 4e 77
        e 0 90 4d 7f
        e 120 80 4c 00
        e 0 80 4e 00
        e 0 80 4d 00
        e 0 90 4c 77
        e 0 90 4d 7f
        e 120 80 4c 00
        e 0 80 4d 00
        e 0 90 4e 77
        e 0 90 4d 7f
        e 120 80 4e 00
        e 0 80 4d 00
        e 0 90 4c 77
        e 0 90 4e 77
        e 0 90 4d 7f
        e 120 80 4c 00
        e 0 80 4e 00
        e 0 80 4d 00
        e 0 90 4c 77
        e 0 90 4e 77
        e 0 90 4d 7f
        e 120 80 4c 00
        e 0 80 4e 00
        e 0 80 4d 00
        e 0 90 4c 77
        e 0 90 4d 7f
        e 120 80 4c 00
        e 0 80 4d 00
        e 0 90 4e 77
        e 0 90 4d 7f
        e 120 80 4e 00
        e 0 80 4d 00
        e 0 90 4c 77
        e 0 90 4e 77
        e 0 90 4d 7f
        e 120 80 4c 00
        e 0 80 4e 00
        e 0 80 4d 00
        e 0 90 4c 77
        e 0 90 4e 77
        e 0 90 4d 7f
        e 120 80 4c 00
        e 0 80 4d 00
        e 0 90 4c 77
        e 0 90 4d 7f
        e 120 80 4d 00
        e 0 90 4d 7f
        e 120 80 4e 00
        e 0 80 4d 00
        e 0 90 4e 77
        e 0 90 4d 7f
        e 120 80 4c 00
        e 0 80 4e 00
        e 0 80 4d 00
        e 0 90 4c 77
        e 0 90 4d 7f
        e 120 80 4c 00
        e 0 80 4d 00
        e 0 90 4e 77
        e 0 90 4d 7f
        e 120 80 4d 00
        e 0 90 4c 77
        e 0 90 4d 7f
        e 120 80 4e 00
        e 0 80 4d 00
        e 0 90 4d 7f
        e 120 80 4c 00
        e 0 80 4d 00
        e 0 90 4e 77
        e 0 90 4d 7f
        e 120 80 4e 00
        e 0 80 4d 00
        e 0 90 4c 77
        e 0 90 4d 7f
        e 120 80 4c 00
        e 0 80 4d 00
        e 0 90 4e 77
        e 0 90 4d 7f
        e 120 80 4d 00
        e 0 90 4c 77
        e 0 90 4d 7f
        e 120 80 4e 00
        e 0 80 4d 00
        e 0 90 4d 7f
        e 120 80 4c 00
        e 0 80 4d 00
        e 0 90 4e 77
        e 0 90 4d 7f
        e 120 80 4d 00
        e 0 90 4c 77
        e 0 90 4d 7f
        e 120 80 4d 00
        e 0 90 4d 7f
        e 120 80 4e 00
        e 0 80 4d 00
        e 0 90 4d 7f
        e 120 80 4c 00
        e 0 80 4d 00
        e 0 90 4e 77
        e 0 90 4d 7f
        e 120 80 4e 00
        e 0 80 4d 00
        e 0 90 4c 77
        e 0 90 4d 7f
        e 120 80 4c 00
        e 0 80 4d 00
        e 0 90 4e 7f
        e 0 90 4d 7f
        e 120 80 4e 00
        e 0 80 4d 00
        e 0 90 4c 7f
        e 0 90 4d 7f
        e 120 80 4c 00
        e 0 80 4d 00
        e 0 90 4e 7f
        e 0 90 4d 7f
        e 120 80 4e 00
        e 0 80 4d 00
        e 0 90 4c 7f
        e 0 90 4d 7f
        e 120 80 4c 00
        e 0 80 4d 00
        e 0 90 4e 7f
        e 0 90 4d 7f
        e 120 80 4e 00
        e 0 80 4d 00
        e 0 90 4c 7f
        e 0 90 4d 7f
        e 120 80 4c 00
        e 0 80 4d 00
        e 120 90 4c 7f
        e 0 90 4d 7f
        e 120 80 4c 00
        e 0 80 4d 00
        e 0 90 4c 7f
        e 0 90 4e 7f
        e 120 80 4c 00
        e 0 90 4c 7f
        e 0 90 4d 7f
        e 120 80 4e 00
        e 0 80 4c 00
        e 0 90 4c 7f
        e 120 80 4d 00
        e 0 80 4c 00
        e 0 90 4c 7f
        e 0 90 4e 7f
        e 120 80 4c 00
        e 0 80 4e 00
        e 0 90 4c 7f
        e 0 90 4e 7f
        e 0 90 4d 7f
        e 120 80 4c 00
        e 0 80 4e 00
        e 0 80 4d 00
        e 0 90 4c 7f
        e 120 80 4c 00
        e 0 90 4e 7f
        e 0 90 4c 7f
        e 0 90 4d 7f
        e 120 80 4c 00
        e 0 80 4d 00
        e 0 90 4c 7f
        e 120 80 4e 00
        e 0 80 4c 00
        e 0 90 4c 7f
        e 0 90 4d 7f
        e 120 80 4c 00
        e 0 80 4d 00
        e 0 90 4c 7f
        e 0 90 4e 7f
        e 120 80 4c 00
        e 0 90 4c 7f
        e 0 90 4d 7f
        e 120 80 4e 00
        e 0 80 4c 00
        e 0 80 4d 00
        e 0 90 4c 7f
        e 0 90 4d 7f
        e 120 80 4c 00
        e 0 80 4d 00
        e 0 90 4c 7f
        e 0 90 4e 7f
        e 120 80 4c 00
        e 0 80 4e 00
        e 0 90 4c 7f
        e 0 90 4e 7f
        e 120 80 4c 00
        e 0 80 4e 00
        e 0 90 4c 7f
        e 0 90 4d 7f
        e 120 80 4c 00
        e 0 80 4d 00
        e 0 90 4c 7f
        e 0 90 4e 7f
        e 0 90 4d 7f
        e 120 80 4c 00
        e 0 80 4d 00
        e 0 90 4c 7f
        e 120 80 4e 00
        e 0 80 4c 00
        e 0 90 4c 7f
        e 0 90 4d 7f
        e 120 80 4c 00
        e 0 90 4c 7f
        e 0 90 4e 7f
        e 120 80 4c 00
        e 0 90 4c 7f
        e 120 80 4e 00
        e 0 80 4c 00
        e 0 90 4c 7f
        e 120 80 4d 00
        e 0 80 4c 00
        e 0 90 4c 7f
        e 0 90 4e 7f
        e 120 80 4c 00
        e 0 80 4e 00
        e 0 90 4c 7f
        e 0 90 4e 7f
        e 120 80 4c 00
        e 0 80 4e 00
        e 0 90 4c 7f
        e 0 90 4d 7f
        e 120 80 4c 00
        e 0 90 4c 7f
        e 0 90 4e 7f
        e 120 80 4c 00
        e 0 90 4c 7f
        e 120 80 4e 00
        e 0 80 4c 00
        e 0 90 4c 7f
        e 120 80 4d 00
        e 0 80 4c 00
        e 0 90 4c 7f
        e 0 90 4e 7f
        e 120 80 4c 00
        e 0 90 4c 7f
        e 120 80 4e 00
        e 0 80 4c 00
        e 0 90 4d 7f
        e 0 90 4c 7f
        e 120 80 4c 00
        e 0 90 4c 7f
        e 0 90 4e 7f
        e 120 80 4c 00
        e 0 80 4e 00
        e 0 90 4c 7f
        e 0 90 4e 7f
        e 120 80 4c 00
        e 0 80 4e 00
        e 0 90 4c 7f
        e 120 80 4d 00
        e 0 80 4c 00
        e 0 90 4c 7f
        e 0 90 4e 7f
        e 120 80 4c 00
        e 0 90 4c 7f
        e 120 80 4e 00
        e 0 80 4c 00
        e 0 90 4c 7f
        e 0 90 4d 7f
        e 120 80 4c 00
        e 0 90 4c 7f
        e 0 90 4e 7f
        e 0 90 4c 7f
        e 120 80 4c 00
        e 0 90 4c 7f
        e 120 80 4e 00
        e 0 80 4c 00
        e 0 90 4c 7f
        e 120 80 4d 00
        e 0 80 4c 00
        e 0 90 4c 7f
        e 0 90 4e 7f
        e 120 80 4c 00
        e 0 80 4e 00
        e 0 90 4c 7f
        e 0 90 4e 7f
        e 0 90 4d 7f
        e 120 80 4c 00
        e 0 80 4e 00
        e 0 90 4c 7f
        e 120 80 4c 00
        e 0 90 4c 7f
        e 0 90 4e 7f
        e 120 80 4c 00
        e 0 80 4c 00
        e 0 90 4c 7f
        e 120 80 4d 00
        e 0 80 4e 00
        e 0 80 4c 00
        e 0 90 4c 7f
        e 120 80 4c 00
        e 0 90 4c 7f
        e 0 90 4e 7f
        e 0 90 4d 7f
        e 120 80 4c 00
        e 0 90 4c 7f
        e 120 80 4e 00
        e 0 80 4c 00
        e 0 90 4c 7f
        e 120 80 4d 00
        e 0 80 4c 00
        e 0 90 4c 7f
        e 0 90 4e 7f
        e 120 80 4c 00
        e 0 80 4e 00
        e 0 90 4c 7f
        e 0 90 4e 7f
        e 120 80 4c 00
        e 0 80 4e 00
        e 0 90 4d 7f
        e 0 90 4c 7f
        e 120 80 4d 00
        e 0 80 4c 00
        e 0 90 4c 7f
        e 0 90 4e 7f
        e 120 80 4c 00
        e 0 90 4c 7f
        e 120 80 4e 00
        e 0 80 4c 00
        e 0 90 4c 7f
        e 0 90 4d 7f
        e 120 80 4c 00
        e 0 80 4d 00
        e 0 90 4c 7f
        e 0 90 4e 7f
        e 0 90 4d 7f
        e 120 80 4c 00
        e 0 80 4e 00
        e 0 80 4d 00
        e 0 90 4c 7f
        e 0 90 4e 7f
        e 0 90 4d 7f
        e 120 80 4c 00
        e 0 80 4e 00
        e 0 80 4d 00
        e 0 90 4c 7f
        e 0 90 4e 7f
        e 0 90 4d 7f
        e 120 80 4c 00
        e 0 80 4e 00
        e 0 80 4d 00
        e 0 90 4c 7f
        e 0 90 4e 7f
        e 0 90 4d 7f
        e 120 80 4c 00
        e 0 80 4e 00
        e 0 80 4d 00
        e 0 90 4c 7f
        e 0 90 4e 7f
        e 0 90 4d 7f
        e 120 80 4c 00
        e 0 80 4e 00
        e 0 80 4d 00
        e 0 90 4c 7f
        e 0 90 4e 7f
        e 0 90 4d 7f
        e 120 80 4c 00
        e 0 80 4e 00
        e 0 80 4d 00
        e 0 90 4c 7f
        e 0 90 4e 7f
        e 0 90 4d 7f
        e 120 80 4c 00
        e 0 80 4e 00
        e 0 80 4d 00
        e 0 90 4c 7f
        e 0 90 4e 7f
        e 0 90 4d 7f
        e 120 80 4c 00
        e 0 80 4e 00
        e 0 80 4d 00
        e 0 90 4c 7f
        e 0 90 4e 7f
        e 0 90 4d 7f
        e 120 80 4c 00
        e 0 80 4e 00
        e 0 80 4d 00
        e 0 90 4c 7f
        e 0 90 4e 7f
        e 0 90 4d 7f
        e 120 80 4c 00
        e 0 80 4e 00
        e 0 80 4d 00
        e 0 90 4c 7f
        e 0 90 4e 7f
        e 0 90 4d 7f
        e 120 80 4c 00
        e 0 80 4e 00
        e 0 80 4d 00
        e 0 90 4c 7f
        e 0 90 4e 7f
        e 0 90 4d 7f
        e 120 80 4c 00
        e 0 80 4e 00
        e 0 80 4d 00
        e 0 90 4c 7f
        e 0 90 4e 7f
        e 0 90 4d 7f
        e 120 80 4c 00
        e 0 80 4e 00
        e 0 80 4d 00
        e 0 90 4c 7f
        e 0 90 4e 7f
        e 0 90 4d 7f
        e 120 80 4c 00
        e 0 80 4e 00
        e 0 80 4d 00
        e 0 90 4c 7f
        e 0 90 4d 7f
        e 120 80 4c 00
        e 0 90 4c 7f
        e 0 90 4e 7f
        e 120 80 4c 00
        e 0 80 4e 00
        e 0 90 4c 7f
        e 120 80 4c 00
        e 0 90 4c 7f
        e 0 90 4e 7f
        e 120 80 4c 00
        e 0 90 4c 7f
        e 120 80 4e 00
        e 0 80 4c 00
        e 0 90 4c 7f
        e 0 90 4e 7f
        e 120 80 4c 00
        e 0 80 4e 00
        e 0 90 4c 7f
        e 120 80 4c 00
        e 0 90 4c 7f
        e 0 90 4e 7f
        e 120 80 4c 00
        e 0 90 4c 7f
        e 120 80 4c 00
        e 0 90 4c 7f
        e 120 80 4e 00
        e 0 80 4c 00
        e 0 90 4c 7f
        e 120 80 4c 00
        e 0 90 4c 7f
        e 0 90 4e 7f
        e 120 80 4c 00
        e 0 80 4e 00
        e 0 90 4c 7f
        e 0 90 4e 7f
        e 120 80 4c 00
        e 0 80 4e 00
        e 0 90 4c 7f
        e 0 90 4e 7f
        e 120 80 4c 00
        e 0 80 4e 00
        e 0 90 4c 7f
        e 0 90 4e 7f
        e 120 80 4c 00
        e 0 80 4e 00
        e 0 90 4c 7f
        e 0 90 4e 7f
        e 120 80 4c 00
        e 0 80 4e 00
        e 0 90 4c 7f
        e 0 90 4e 7f
        e 120 80 4c 00
        e 0 80 4e 00
        e 0 90 4c 7f
        e 0 90 4e 7f
        e 120 80 4c 00
        e 0 80 4e 00
        e 0 90 4c 7f
        e 120 80 4d 00
        e 0 80 4c 00
        e 0 90 4c 7f
        e 0 90 4e 7f
        e 0 90 4d 7f
        e 120 80 4c 00
        e 0 80 4d 00
        e 0 90 4c 7f
        e 0 90 4d 7f
        e 120 80 4c 00
        e 0 80 4d 00
        e 0 90 4c 7f
        e 0 90 4d 7f
        e 120 80 4e 00
        e 0 80 4c 00
        e 0 80 4d 00
        e 0 90 4c 7f
        e 0 90 4d 7f
        e 120 80 4c 00
        e 0 80 4d 00
        e 0 90 4e 7f
        e 0 90 4c 7f
        e 0 90 4d 7f
        e 120 80 4e 00
        e 0 80 4c 00
        e 0 80 4d 00
        e 0 90 4c 7f
        e 0 90 4d 7f
        e 120 80 4c 00
        e 0 80 4d 00
        e 0 90 4c 7f
        e 0 90 4e 7f
        e 0 90 4d 7f
        e 120 80 4c 00
        e 0 80 4d 00
        e 0 90 4c 7f
        e 0 90 4d 7f
        e 120 80 4c 00
        e 0 80 4d 00
        e 0 90 4c 7f
        e 0 90 4d 7f
        e 120 80 4c 00
        e 0 80 4d 00
        e 0 90 4c 7f
        e 0 90 4d 7f
        e 120 80 4e 00
        e 0 80 4c 00
        e 0 80 4d 00
        e 0 90 4c 7f
        e 0 90 4d 7f
        e 120 80 4c 00
        e 0 80 4d 00
        e 0 90 4c 7f
        e 0 90 4e 77
        e 0 90 4d 7f
        e 120 80 4c 00
        e 0 80 4e 00
        e 0 80 4d 00
        e 0 90 4c 7f
        e 0 90 4e 77
        e 0 90 4d 7f
        e 120 80 4c 00
        e 0 80 4e 00
        e 0 80 4d 00
        e 0 90 4c 7f
        e 0 90 4e 77
        e 0 90 4d 7f
        e 120 80 4c 00
        e 0 80 4e 00
        e 0 80 4d 00
        e 0 90 4c 7f
        e 0 90 4d 7f
        e 120 80 4c 00
        e 0 80 4d 00
        e 0 90 4c 7f
        e 0 90 4e 77
        e 120 80 4c 00
        e 0 80 4e 00
        e 0 90 4c 7f
        e 0 90 4e 77
        e 120 80 4c 00
        e 0 80 4e 00
        e 0 90 4c 7f
        e 0 90 4e 77
        e 120 80 4c 00
        e 0 80 4e 00
        e 0 90 4d 7f
        e 0 90 4c 7f
        e 120 80 4c 00
        e 0 90 4c 7f
        e 0 90 4e 77
        e 120 80 4c 00
        e 0 80 4e 00
        e 0 90 4c 7f
        e 0 90 4e 77
        e 120 80 4c 00
        e 0 80 4e 00
        e 0 90 4c 7f
        e 120 80 4c 00
        e 0 90 4c 7f
        e 0 90 4e 77
        e 120 80 4c 00
        e 0 80 4e 00
        e 0 90 4c 7f
        e 0 90 4e 77
        e 120 80 4c 00
        e 0 80 4e 00
        e 0 90 4c 7f
        e 0 90 4e 77
        e 120 80 4c 00
        e 0 80 4e 00
        e 0 90 4c 7f
        e 120 80 4c 00
        e 0 90 4c 7f
        e 0 90 4e 77
        e 120 80 4c 00
        e 0 80 4e 00
        e 0 90 4c 7f
        e 0 90 4e 77
        e 120 80 4c 00
        e 0 80 4e 00
        e 0 90 4c 7f
        e 0 90 4e 77
        e 120 80 4c 00
        e 0 80 4e 00
        e 0 90 4c 7f
        e 120 80 4c 00
        e 0 90 4c 7f
        e 0 90 4e 77
        e 120 80 4c 00
        e 0 80 4e 00
        e 0 90 4c 7f
        e 0 90 4e 77
        e 120 80 4d 00
        e 0 80 4c 00
        e 0 80 4e 00
        e 0 90 4c 7f
        e 0 90 4e 77
        e 0 90 4d 7f
        e 120 80 4c 00
        e 0 80 4e 00
        e 0 80 4d 00
        e 0 90 4c 7f
        e 0 90 4e 77
        e 120 80 4c 00
        e 0 80 4e 00
        e 0 90 4d 7f
        e 0 90 4c 7f
        e 0 90 4e 77
        e 120 80 4c 00
        e 0 80 4e 00
        e 0 90 4c 7f
        e 120 80 4c 00
        e 0 90 4c 7f
        e 0 90 4e 77
        e 120 80 4c 00
        e 0 80 4e 00
        e 0 90 4c 7f
        e 0 90 4e 77
        e 120 80 4c 00
        e 0 80 4e 00
        e 0 90 4c 7f
        e 0 90 4e 77
        e 120 80 4c 00
        e 0 80 4e 00
        e 0 90 4c 7f
        e 120 80 4c 00
        e 0 90 4c 7f
        e 0 90 4e 77
        e 120 80 4c 00
        e 0 80 4e 00
        e 0 90 4c 7f
        e 0 90 4e 77
        e 120 80 4d 00
        e 0 80 4c 00
        e 0 80 4e 00
        e 0 90 4c 7f
        e 0 90 4e 77
        e 120 80 4c 00
        e 0 90 4c 7f
        e 120 80 4c 00
        e 0 90 4c 7f
        e 120 80 4e 00
        e 0 80 4c 00
        e 0 90 4e 77
        e 0 90 4c 7f
        e 0 90 4d 7f
        e 120 80 4e 00
        e 0 80 4c 00
        e 0 90 4c 7f
        e 120 80 4c 00
        e 0 90 4c 7f
        e 0 90 4e 77
        e 120 80 4c 00
        e 0 90 4c 7f
        e 120 80 4d 00
        e 0 80 4e 00
        e 0 80 4c 00
        e 0 90 4c 7f
        e 0 90 4d 7f
        e 120 80 4c 00
        e 0 80 4d 00
        e 0 90 4c 7f
        e 0 90 4e 77
        e 0 90 4d 7f
        e 120 80 4c 00
        e 0 80 4e 00
        e 0 80 4d 00
        e 0 90 4c 7f
        e 0 90 4d 7f
        e 120 80 4c 00
        e 0 80 4d 00
        e 0 90 4c 7f
        e 0 90 4e 77
        e 0 90 4d 7f
        e 120 80 4c 00
        e 0 80 4d 00
        e 0 90 4c 7f
        e 0 90 4d 7f
        e 120 80 4e 00
        e 0 80 4c 00
        e 0 80 4d 00
        e 0 90 4c 7f
        e 0 90 4d 7f
        e 120 80 4c 00
        e 0 80 4d 00
        e 0 90 4c 7f
        e 0 90 4e 77
        e 0 90 4d 7f
        e 120 80 4c 00
        e 0 80 4d 00
        e 0 90 4c 7f
        e 0 90 4d 7f
        e 120 80 4c 00
        e 0 80 4d 00
        e 0 90 4c 7f
        e 0 90 4d 7f
        e 120 80 4e 00
        e 0 80 4c 00
        e 0 80 4d 00
        e 0 90 4c 7f
        e 0 90 4d 7f
        e 120 80 4c 00
        e 0 80 4d 00
        e 0 90 4c 7f
        e 0 90 4e 77
        e 0 90 4d 7f
        e 120 80 4c 00
        e 0 80 4e 00
        e 0 80 4d 00
        e 0 90 4c 7f
        e 0 90 4d 7f
        e 120 80 4c 00
        e 0 80 4d 00
        e 0 90 4c 7f
        e 0 90 4e 7f
        e 0 90 4d 7f
        e 120 80 4c 00
        e 0 80 4e 00
        e 0 80 4d 00
        e 0 90 4c 7f
        e 0 90 4d 7f
        e 120 80 4c 00
        e 0 80 4d 00
        e 0 90 4c 7f
        e 0 90 4e 7f
        e 0 90 4d 7f
        e 120 80 4c 00
        e 0 80 4e 00
        e 0 80 4d 00
        e 0 90 4c 7f
        e 0 90 4d 7f
        e 120 80 4c 00
        e 0 80 4d 00
        e 0 90 4c 7f
        e 0 90 4e 7f
        e 0 90 4d 7f
        e 120 80 4c 00
        e 0 80 4e 00
        e 0 80 4d 00
        e 0 90 4c 7f
        e 0 90 4d 7f
        e 120 80 4c 00
        e 0 80 4d 00
        e 0 90 4c 7f
        e 0 90 4e 7f
        e 0 90 4d 7f
        e 120 80 4c 00
        e 0 80 4d 00
        e 0 90 4c 7f
        e 0 90 4d 7f
        e 120 80 4e 00
        e 0 80 4c 00
        e 0 80 4d 00
        e 0 90 4c 7f
        e 0 90 4d 7f
        e 120 80 4c 00
        e 0 80 4d 00
        e 0 90 4c 7f
        e 0 90 4e 7f
        e 0 90 4d 7f
        e 120 80 4c 00
        e 0 80 4d 00
        e 0 90 4c 7f
        e 0 90 4d 7f
        e 120 80 4e 00
        e 0 80 4c 00
        e 0 80 4d 00
        e 0 90 4d 7f
        e 0 90 4e 7f
        e 0 90 4c 7f
        e 120 80 4d 00
        e 0 80 4e 00
        e 0 80 4c 00
        e 0 90 4d 7f
        e 0 90 4e 7f
        e 0 90 4c 7f
        e 120 80 4d 00
        e 0 80 4e 00
        e 0 80 4c 00
        e 0 90 4d 7f
        e 0 90 4e 7f
        e 0 90 4c 7f
        e 120 80 4d 00
        e 0 80 4e 00
        e 0 80 4c 00
        e 0 90 4e 7f
        e 0 90 4d 7f
        e 0 90 4c 7f
        e 120 80 4e 00
        e 0 80 4c 00
        e 0 90 4e 7f
        e 0 90 4c 7f
        e 120 80 4e 00
        e 0 80 4c 00
        e 0 90 4e 7f
        e 0 90 4c 7f
        e 120 80 4e 00
        e 0 80 4c 00
        e 0 90 4e 7f
        e 0 90 4c 7f
        e 120 80 4e 00
        e 0 80 4c 00
        e 0 90 4e 7f
        e 0 90 4c 7f
        e 120 80 4e 00
        e 0 80 4c 00
        e 0 90 4e 7f
        e 0 90 4c 7f
        e 120 80 4e 00
        e 0 80 4c 00
        e 0 90 4e 7f
        e 0 90 4c 7f
        e 120 80 4e 00
        e 0 80 4c 00
        e 0 90 4e 7f
        e 0 90 4c 7f
        e 120 80 4d 00
        e 0 80 4e 00
        e 0 80 4c 00
        e 0 90 4e 7f
        e 0 90 4c 7f
        e 120 80 4e 00
        e 0 80 4c 00
        e 0 90 4e 7f
        e 0 90 4c 7f
        e 120 80 4e 00
        e 0 80 4c 00
        e 0 90 4e 7f
        e 0 90 4c 7f
        e 120 80 4e 00
        e 0 80 4c 00
        e 0 90 4e 7f
        e 0 90 4d 7f
        e 0 90 4c 7f
        e 120 80 4e 00
        e 0 80 4c 00
        e 0 90 4e 7f
        e 0 90 4c 7f
        e 120 80 4e 00
        e 0 80 4c 00
        e 0 90 4e 7f
        e 0 90 4c 7f
        e 120 80 4e 00
        e 0 80 4c 00
        e 0 90 4e 7f
        e 0 90 4c 7f
        e 120 80 4d 00
        e 0 80 4e 00
        e 0 80 4c 00
        e 0 90 4e 7f
        e 0 90 4d 7f
        e 0 90 4c 7f
        e 120 80 4e 00
        e 0 80 4d 00
        e 0 80 4c 00
        e 0 90 4e 7f
        e 0 90 4d 7f
        e 0 90 4c 7f
        e 120 80 4e 00
        e 0 80 4d 00
        e 0 80 4c 00
        e 0 90 4e 7f
        e 0 90 4d 7f
        e 0 90 4c 7f
        e 120 80 4e 00
        e 0 80 4d 00
        e 0 80 4c 00
        e 0 90 4e 7f
        e 0 90 4d 7f
        e 0 90 4c 7f
        e 120 80 4e 00
        e 0 80 4d 00
        e 0 80 4c 00
        e 0 90 4e 7f
        e 0 90 4d 7f
        e 0 90 4c 7f
        e 120 80 4e 00
        e 0 80 4d 00
        e 0 80 4c 00
        e 0 90 4e 7f
        e 0 90 4d 7f
        e 0 90 4c 7f
        e 120 80 4e 00
        e 0 80 4d 00
        e 0 80 4c 00
        e 0 90 4e 7f
        e 0 90 4d 7f
        e 0 90 4c 7f
        e 120 80 4e 00
        e 0 80 4d 00
        e 0 80 4c 00
        e 0 90 4e 7f
        e 0 90 4d 7f
        e 0 90 4c 7f
        e 120 80 4e 00
        e 0 80 4d 00
        e 0 80 4c 00
        e 0 90 4e 7f
        e 0 90 4d 7f
        e 0 90 4c 7f
        e 120 80 4e 00
        e 0 80 4d 00
        e 0 80 4c 00
        e 0 90 4e 7f
        e 0 90 4d 7f
        e 0 90 4c 7f
        e 120 80 4e 00
        e 0 80 4d 00
        e 0 80 4c 00
        e 0 90 4e 7f
        e 0 90 4d 7f
        e 0 90 4c 7f
        e 120 80 4e 00
        e 0 80 4d 00
        e 0 80 4c 00
        e 0 90 4e 7f
        e 0 90 4d 7f
        e 0 90 4c 7f
        e 120 80 4e 00
        e 0 80 4d 00
        e 0 80 4c 00
        e 0 90 4e 7f
        e 0 90 4d 7f
        e 0 90 4c 7f
        e 120 80 4e 00
        e 0 80 4d 00
        e 0 80 4c 00
        e 0 90 4e 7f
        e 0 90 4d 7f
        e 0 90 4c 7f
        e 120 80 4e 00
        e 0 80 4d 00
        e 0 80 4c 00
        e 0 90 4e 7f
        e 0 90 4d 7f
        e 0 90 4c 7f
        e 120 80 4e 00
        e 0 80 4d 00
        e 0 80 4c 00
        e 0 90 4e 7f
        e 0 90 4d 7f
        e 0 90 4c 7f
        e 120 80 4e 00
        e 0 80 4d 00
        e 0 80 4c 00
        e 0 90 4e 7f
        e 0 90 4d 7f
        e 0 90 4c 7f
        e 120 80 4e 00
        e 0 80 4d 00
        e 0 80 4c 00
        e 0 90 4e 7f
        e 0 90 4d 7f
        e 0 90 4c 7f
        e 120 80 4e 00
        e 0 80 4d 00
        e 0 80 4c 00
        e 0 90 4e 7f
        e 0 90 4e 7f
        e 0 90 4d 7f
        e 0 90 4c 7f
        e 120 80 4e 00
        e 0 80 4d 00
        e 0 80 4c 00
        e 0 90 4e 7f
        e 0 90 4d 7f
        e 0 90 4c 7f
        e 120 80 4e 00
        e 0 80 4d 00
        e 0 80 4c 00
        e 0 90 4e 7f
        e 0 90 4d 7f
        e 0 90 4c 7f
        e 120 80 4e 00
        e 0 80 4d 00
        e 0 80 4c 00
        e 0 90 4e 7f
        e 0 90 4d 7f
        e 0 90 4c 7f
        e 120 80 4e 00
        e 0 80 4d 00
        e 0 80 4c 00
        e 0 90 4e 7f
        e 0 90 4d 7f
        e 0 90 4c 7f
        e 120 80 4e 00
        e 0 80 4d 00
        e 0 80 4c 00
        e 0 90 4e 7f
        e 0 90 4d 7f
        e 0 90 4c 7f
        e 120 80 4e 00
        e 0 80 4d 00
        e 0 80 4c 00
        e 0 90 4e 7f
        e 0 90 4d 7f
        e 0 90 4c 7f
        e 120 80 4e 00
        e 0 80 4e 00
        e 0 80 4d 00
        e 0 80 4c 00
        e 0 90 4e 7f
        e 0 90 4d 7f
        e 0 90 4c 7f
        e 120 80 4e 00
        e 0 80 4d 00
        e 0 80 4c 00
        e 0 90 4e 7f
        e 0 90 4c 7f
        e 120 80 4e 00
        e 0 80 4c 00
        e 0 90 4e 7f
        e 0 90 4c 7f
        e 120 80 4e 00
        e 0 80 4c 00
        e 0 90 4e 7f
        e 0 90 4d 77
        e 0 90 4c 7f
        e 120 80 4e 00
        e 0 80 4d 00
        e 0 80 4c 00
        e 0 90 4e 7f
        e 0 90 4d 77
        e 0 90 4c 7f
        e 120 80 4e 00
        e 0 80 4d 00
        e 0 80 4c 00
        e 0 90 4e 7f
        e 0 90 4d 77
        e 0 90 4c 7f
        e 120 80 4e 00
        e 0 80 4d 00
        e 0 80 4c 00
        e 0 90 4e 7f
        e 0 90 4c 7f
        e 120 80 4e 00
        e 0 80 4c 00
        e 0 90 4e 7f
        e 0 90 4d 77
        e 0 90 4c 7f
        e 120 80 4e 00
        e 0 80 4d 00
        e 0 80 4c 00
        e 0 90 4e 7f
        e 0 90 4d 77
        e 0 90 4c 7f
        e 120 80 4e 00
        e 0 80 4d 00
        e 0 80 4c 00
        e 0 90 4e 7f
        e 0 90 4d 77
        e 0 90 4c 7f
        e 120 80 4e 00
        e 0 80 4d 00
        e 0 80 4c 00
        e 0 90 4e 7f
        e 0 90 4c 7f
        e 120 80 4e 00
        e 0 80 4c 00
        e 0 90 4e 7f
        e 0 90 4d 77
        e 0 90 4c 7f
        e 120 80 4e 00
        e 0 80 4d 00
        e 0 80 4c 00
        e 0 90 4e 7f
        e 0 90 4d 77
        e 0 90 4c 7f
        e 120 80 4e 00
        e 0 80 4d 00
        e 0 80 4c 00
        e 0 90 4e 7f
        e 0 90 4c 7f
        e 120 80 4e 00
        e 0 80 4c 00
        e 0 90 4e 7f
        e 0 90 4d 77
        e 0 90 4c 7f
        e 120 80 4e 00
        e 0 80 4d 00
        e 0 80 4c 00
        e 0 90 4e 7f
        e 0 90 4d 77
        e 0 90 4c 7f
        e 120 80 4e 00
        e 0 80 4d 00
        e 0 80 4c 00
        e 0 90 4e 7f
        e 0 90 4d 77
        e 0 90 4c 7f
        e 120 80 4e 00
        e 0 80 4d 00
        e 0 80 4c 00
        e 0 90 4e 7f
        e 0 90 4c 7f
        e 120 80 4e 00
        e 0 80 4c 00
        e 0 90 4e 7f
        e 0 90 4d 77
        e 0 90 4c 7f
        e 120 80 4e 00
        e 0 80 4d 00
        e 0 80 4c 00
        e 0 90 4e 7f
        e 0 90 4d 77
        e 0 90 4c 7f
        e 120 80 4e 00
        e 0 80 4d 00
        e 0 80 4c 00
        e 0 90 4e 7f
        e 0 90 4d 77
        e 0 90 4c 7f
        e 120 80 4e 00
        e 0 80 4d 00
        e 0 80 4c 00
        e 0 90 4e 7f
        e 0 90 4c 7f
        e 120 80 4e 00
        e 0 80 4c 00
        e 0 90 4e 7f
        e 0 90 4d 77
        e 0 90 4c 7f
        e 120 80 4e 00
        e 0 80 4d 00
        e 0 80 4c 00
        e 0 90 4e 7f
        e 0 90 4d 77
        e 0 90 4c 7f
        e 120 80 4e 00
        e 0 80 4d 00
        e 0 80 4c 00
        e 0 90 4e 7f
        e 0 90 4d 77
        e 0 90 4c 7f
        e 120 80 4e 00
        e 0 80 4d 00
        e 0 80 4c 00
        e 0 90 4e 7f
        e 0 90 4d 77
        e 0 90 4c 7f
        e 120 80 4e 00
        e 0 80 4d 00
        e 0 80 4c 00
        e 0 90 4e 7f
        e 0 90 4d 77
        e 0 90 4c 7f
        e 120 80 4e 00
        e 0 80 4d 00
        e 0 80 4c 00
        e 0 90 4e 7f
        e 0 90 4c 7f
        e 120 80 4e 00
        e 0 80 4c 00
        e 0 90 4e 7f
        e 0 90 4d 77
        e 0 90 4c 7f
        e 120 80 4e 00
        e 0 80 4d 00
        e 0 80 4c 00
        e 0 90 4e 7f
        e 0 90 4d 77
        e 0 90 4c 7f
        e 120 80 4e 00
        e 0 80 4d 00
        e 0 80 4c 00
        e 0 90 4e 7f
        e 0 90 4d 77
        e 0 90 4c 7f
        e 120 80 4e 00
        e 0 80 4d 00
        e 0 80 4c 00
        e 0 90 4e 7f
        e 0 90 4c 77
        e 120 80 4e 00
        e 0 80 4c 00
        e 0 90 4e 7f
        e 0 90 4d 77
        e 0 90 4c 77
        e 120 80 4e 00
        e 0 80 4d 00
        e 0 90 4e 7f
        e 0 90 4d 77
        e 120 80 4e 00
        e 0 80 4d 00
        e 0 90 4e 7f
        e 0 90 4d 77
        e 120 80 4c 00
        e 0 80 4e 00
        e 0 90 4e 7f
        e 0 90 4c 77
        e 120 80 4e 00
        e 0 80 4c 00
        e 0 90 4e 7f
        e 120 80 4d 00
        e 0 80 4e 00
        e 0 90 4e 7f
        e 0 90 4d 77
        e 0 90 4c 77
        e 120 80 4e 00
        e 0 80 4d 00
        e 0 90 4e 7f
        e 120 80 4c 00
        e 0 80 4e 00
        e 0 90 4e 7f
        e 0 90 4d 77
        e 120 80 4e 00
        e 0 90 4e 7f
        e 0 90 4c 77
        e 120 80 4d 00
        e 0 80 4e 00
        e 0 80 4c 00
        e 0 90 4e 7f
        e 120 80 4e 00
        e 0 90 4e 7f
        e 0 90 4d 77
        e 0 90 4c 77
        e 120 80 4e 00
        e 0 80 4d 00
        e 0 90 4e 7f
        e 120 80 4c 00
        e 0 80 4e 00
        e 0 90 4e 7f
        e 0 90 4d 77
        e 120 80 4e 00
        e 0 90 4e 7f
        e 0 90 4c 77
        e 120 80 4d 00
        e 0 80 4e 00
        e 0 90 4e 7f
        e 120 80 4e 00
        e 0 90 4e 7f
        e 0 90 4d 77
        e 120 80 4c 00
        e 0 80 4e 00
        e 0 90 4e 7f
        e 120 80 4e 00
        e 0 90 4e 7f
        e 0 90 4c 77
        e 120 80 4d 00
        e 0 80 4e 00
        e 0 80 4c 00
        e 0 90 4e 7f
        e 120 80 4e 00
        e 0 90 4e 7f
        e 0 90 4d 77
        e 0 90 4c 7f
        e 120 80 4e 00
        e 0 80 4d 00
        e 0 80 4c 00
        e 0 90 4e 7f
        e 120 80 4e 00
        e 0 90 4e 7f
        e 0 90 4d 7f
        e 0 90 4c 7f
        e 120 80 4e 00
        e 0 80 4d 00
        e 0 80 4c 00
        e 0 90 4e 7f
        e 120 80 4e 00
        e 0 90 4e 7f
        e 0 90 4d 7f
        e 0 90 4c 7f
        e 120 80 4e 00
        e 0 80 4d 00
        e 0 80 4c 00
        e 0 90 4e 7f
        e 120 80 4e 00
        e 0 90 4e 7f
        e 0 90 4d 7f
        e 0 90 4c 7f
        e 120 80 4e 00
        e 0 80 4d 00
        e 0 90 4e 7f
        e 120 80 4c 00
        e 0 80 4e 00
        e 0 90 4e 7f
        e 0 90 4d 7f
        e 0 90 4c 7f
        e 120 80 4e 00
        e 0 80 4c 00
        e 0 90 4e 7f
        e 120 80 4d 00
        e 0 80 4e 00
        e 0 90 4e 7f
        e 0 90 4d 7f
        e 0 90 4c 7f
        e 120 80 4e 00
        e 0 80 4d 00
        e 0 90 4e 7f
        e 120 80 4c 00
        e 0 80 4e 00
        e 0 90 4e 7f
        e 0 90 4d 7f
        e 120 80 4e 00
        e 0 90 4e 7f
        e 0 90 4c 7f
        e 120 80 4d 00
        e 0 80 4e 00
        e 0 80 4c 00
        e 0 90 4e 7f
        e 120 80 4e 00
        e 0 90 4e 7f
        e 0 90 4d 7f
        e 0 90 4c 7f
        e 120 80 4e 00
        e 0 80 4d 00
        e 0 80 4c 00
        e 0 90 4e 7f
        e 120 80 4e 00
        e 0 90 4e 7f
        e 0 90 4d 7f
        e 0 90 4c 7f
        e 120 80 4e 00
        e 0 80 4d 00
        e 0 80 4c 00
        e 0 90 4e 7f
        e 120 80 4e 00
        e 0 90 4e 7f
        e 0 90 4d 7f
        e 0 90 4c 7f
        e 120 80 4e 00
        e 0 80 4d 00
        e 0 80 4c 00
        e 0 90 4e 7f
        e 0 90 4c 7f
        e 120 80 4e 00
        e 0 80 4c 00
        e 0 90 4e 7f
        e 0 90 4d 7f
        e 120 80 4e 00
        e 0 80 4d 00
        e 0 90 4e 7f
        e 0 90 4d 7f
        e 120 80 4e 00
        e 0 80 4d 00
        e 0 90 4e 7f
        e 0 90 4c 7f
        e 120 80 4e 00
        e 0 80 4c 00
        e 0 90 4e 7f
        e 0 90 4c 7f
        e 120 80 4e 00
        e 0 80 4c 00
        e 0 90 4e 7f
        e 0 90 4d 7f
        e 120 80 4e 00
        e 0 80 4d 00
        e 0 90 4e 7f
        e 0 90 4d 7f
        e 0 90 4c 7f
        e 120 80 4e 00
        e 0 80 4d 00
        e 0 90 4e 7f
        e 120 80 4e 00
        e 0 90 4e 7f
        e 0 90 4d 7f
        e 120 80 4e 00
        e 0 90 4e 7f
        e 120 80 4c 00
        e 0 80 4e 00
        e 0 90 4e 7f
        e 120 80 4e 00
        e 0 90 4e 7f
        e 120 80 4d 00
        e 0 80 4e 00
        e 0 90 4e 7f
        e 0 90 4c 7f
        e 120 80 4e 00
        e 0 90 4e 7f
        e 120 80 4e 00
        e 0 90 4e 7f
        e 0 90 4d 7f
        e 120 80 4e 00
        e 0 90 4e 7f
        e 120 80 4c 00
        e 0 80 4e 00
        e 0 90 4e 7f
        e 120 80 4e 00
        e 0 90 4e 7f
        e 120 80 4d 00
        e 0 80 4e 00
        e 0 90 4e 7f
        e 0 90 4c 7f
        e 120 80 4e 00
        e 0 90 4e 7f
        e 120 80 4e 00
        e 0 90 4e 7f
        e 0 90 4d 7f
        e 120 80 4e 00
        e 0 90 4e 7f
        e 120 80 4c 00
        e 0 80 4e 00
        e 0 90 4e 7f
        e 120 80 4e 00
        e 0 90 4e 7f
        e 120 80 4d 00
        e 0 80 4e 00
        e 0 90 4e 7f
        e 0 90 4c 7f
        e 120 80 4e 00
        e 0 90 4e 7f
        e 120 80 4e 00
        e 0 90 4e 7f
        e 0 90 4d 7f
        e 120 80 4e 00
        e 0 90 4e 7f
        e 120 80 4c 00
        e 0 80 4e 00
        e 0 90 4e 7f
        e 120 80 4e 00
        e 0 90 4e 7f
        e 0 90 4c 7f
        e 120 80 4d 00
        e 0 80 4e 00
        e 0 90 4e 7f
        e 120 80 4e 00
        e 0 90 4e 7f
        e 0 90 4d 7f
        e 120 80 4e 00
        e 0 90 4e 7f
        e 120 80 4c 00
        e 0 80 4e 00
        e 0 90 4e 7f
        e 120 80 4e 00
        e 0 90 4e 7f
        e 0 90 4c 7f
        e 120 80 4d 00
        e 0 80 4e 00
        e 0 90 4e 7f
        e 120 80 4e 00
        e 0 90 4e 7f
        e 0 90 4d 7f
        e 120 80 4c 00
        e 0 80 4e 00
        e 0 90 4e 7f
        e 120 80 4e 00
        e 0 90 4e 7f
        e 120 80 4d 00
        e 0 80 4e 00
        e 0 90 4e 7f
        e 0 90 4c 7f
        e 120 80 4e 00
        e 0 80 4c 00
        e 0 90 4e 7f
        e 120 80 4e 00
        e 0 90 4e 7f
        e 0 90 4d 7f
        e 120 80 4e 00
        e 0 80 4d 00
        e 0 90 4c 7f
        e 0 90 4d 7f
        e 120 80 4c 00
        e 0 80 4d 00
        e 0 90 4c 7f
        e 0 90 4e 7f
        e 120 80 4c 00
        e 0 90 4c 7f
        e 0 90 4d 7f
        e 120 80 4e 00
        e 0 80 4c 00
        e 0 90 4c 7f
        e 120 80 4d 00
        e 0 80 4c 00
        e 0 90 4c 7f
        e 0 90 4e 7f
        e 120 80 4c 00
        e 0 80 4e 00
        e 0 90 4c 7f
        e 0 90 4e 7f
        e 0 90 4d 7f
        e 120 80 4c 00
        e 0 80 4e 00
        e 0 80 4d 00
        e 0 90 4c 7f
        e 120 80 4c 00
        e 0 90 4e 7f
        e 0 90 4c 7f
        e 0 90 4d 7f
        e 120 80 4c 00
        e 0 80 4d 00
        e 0 90 4c 7f
        e 120 80 4e 00
        e 0 80 4c 00
        e 0 90 4c 7f
        e 0 90 4d 7f
        e 120 80 4c 00
        e 0 80 4d 00
        e 0 90 4c 7f
        e 0 90 4e 7f
        e 120 80 4c 00
        e 0 90 4c 7f
        e 0 90 4d 7f
        e 120 80 4e 00
        e 0 80 4c 00
        e 0 80 4d 00
        e 0 90 4c 7f
        e 0 90 4d 7f
        e 120 80 4c 00
        e 0 80 4d 00
        e 0 90 4c 7f
        e 0 90 4e 7f
        e 120 80 4c 00
        e 0 80 4e 00
        e 0 90 4c 7f
        e 0 90 4e 7f
        e 120 80 4c 00
        e 0 80 4e 00
        e 0 90 4c 7f
        e 0 90 4d 7f
        e 120 80 4c 00
        e 0 80 4d 00
        e 0 90 4c 7f
        e 0 90 4e 7f
        e 0 90 4d 7f
        e 120 80 4c 00
        e 0 80 4d 00
        e 0 90 4c 7f
        e 120 80 4e 00
        e 0 80 4c 00
        e 0 90 4c 7f
        e 0 90 4d 7f
        e 120 80 4c 00
        e 0 90 4c 7f
        e 0 90 4e 7f
        e 120 80 4c 00
        e 0 90 4c 7f
        e 120 80 4e 00
        e 0 80 4c 00
        e 0 90 4c 7f
        e 120 80 4d 00
        e 0 80 4c 00
        e 0 90 4c 7f
        e 0 90 4e 7f
        e 120 80 4c 00
        e 0 80 4e 00
        e 0 90 4c 7f
        e 0 90 4e 7f
        e 120 80 4c 00
        e 0 80 4e 00
        e 0 90 4c 7f
        e 0 90 4d 7f
        e 120 80 4c 00
        e 0 90 4c 7f
        e 0 90 4e 7f
        e 120 80 4c 00
        e 0 90 4c 7f
        e 120 80 4e 00
        e 0 80 4c 00
        e 0 90 4c 7f
        e 120 80 4d 00
        e 0 80 4c 00
        e 0 90 4c 7f
        e 0 90 4e 7f
        e 120 80 4c 00
        e 0 90 4c 7f
        e 120 80 4e 00
        e 0 80 4c 00
        e 0 90 4d 7f
        e 0 90 4c 7f
        e 120 80 4c 00
        e 0 90 4c 7f
        e 0 90 4e 7f
        e 120 80 4c 00
        e 0 80 4e 00
        e 0 90 4c 7f
        e 0 90 4e 7f
        e 120 80 4c 00
        e 0 80 4e 00
        e 0 90 4c 7f
        e 120 80 4d 00
        e 0 80 4c 00
        e 0 90 4c 7f
        e 0 90 4e 7f
        e 120 80 4c 00
        e 0 90 4c 7f
        e 120 80 4e 00
        e 0 80 4c 00
        e 0 90 4c 7f
        e 0 90 4d 7f
        e 120 80 4c 00
        e 0 90 4c 7f
        e 0 90 4e 7f
        e 0 90 4c 7f
        e 120 80 4c 00
        e 0 90 4c 7f
        e 120 80 4e 00
        e 0 80 4c 00
        e 0 90 4c 7f
        e 120 80 4d 00
        e 0 80 4c 00
        e 0 90 4c 7f
        e 0 90 4e 7f
        e 120 80 4c 00
        e 0 80 4e 00
        e 0 90 4c 7f
        e 0 90 4e 7f
        e 0 90 4d 7f
        e 120 80 4c 00
        e 0 80 4e 00
        e 0 90 4c 7f
        e 120 80 4c 00
        e 0 90 4c 7f
        e 0 90 4e 7f
        e 120 80 4c 00
        e 0 80 4c 00
        e 0 90 4c 7f
        e 120 80 4d 00
        e 0 80 4e 00
        e 0 80 4c 00
        e 0 90 4c 7f
        e 120 80 4c 00
        e 0 90 4c 7f
        e 0 90 4e 7f
        e 0 90 4d 7f
        e 120 80 4c 00
        e 0 90 4c 7f
        e 120 80 4e 00
        e 0 80 4c 00
        e 0 90 4c 7f
        e 120 80 4d 00
        e 0 80 4c 00
        e 0 90 4c 7f
        e 0 90 4e 7f
        e 120 80 4c 00
        e 0 80 4e 00
        e 0 90 4c 7f
        e 0 90 4e 7f
        e 120 80 4c 00
        e 0 80 4e 00
        e 0 90 4d 7f
        e 0 90 4c 7f
        e 120 80 4d 00
        e 0 80 4c 00
        e 0 90 4c 7f
        e 0 90 4e 7f
        e 120 80 4c 00
        e 0 90 4c 7f
        e 120 80 4e 00
        e 0 80 4c 00
        e 0 90 4c 7f
        e 0 90 4d 7f
        e 120 80 4c 00
        e 0 80 4d 00
        e 0 90 4c 7f
        e 0 90 4e 7f
        e 0 90 4d 7f
        e 120 80 4c 00
        e 0 80 4e 00
        e 0 80 4d 00
        e 0 90 4c 7f
        e 0 90 4e 7f
        e 0 90 4d 7f
        e 120 80 4c 00
        e 0 80 4e 00
        e 0 80 4d 00
        e 0 90 4c 7f
        e 0 90 4e 7f
        e 0 90 4d 7f
        e 120 80 4c 00
        e 0 80 4e 00
        e 0 80 4d 00
        e 0 90 4c 7f
        e 0 90 4e 7f
        e 0 90 4d 7f
        e 120 80 4c 00
        e 0 80 4e 00
        e 0 80 4d 00
        e 0 90 4c 7f
        e 0 90 4e 7f
        e 0 90 4d 7f
        e 120 80 4c 00
        e 0 80 4e 00
        e 0 80 4d 00
        e 0 90 4c 7f
        e 0 90 4e 7f
        e 0 90 4d 7f
        e 120 80 4c 00
        e 0 80 4e 00
        e 0 80 4d 00
        e 0 90 4c 7f
        e 0 90 4e 7f
        e 0 90 4d 7f
        e 120 80 4c 00
        e 0 80 4e 00
        e 0 80 4d 00
        e 0 90 4c 7f
        e 0 90 4e 7f
        e 0 90 4d 7f
        e 120 80 4c 00
        e 0 80 4e 00
        e 0 80 4d 00
        e 0 90 4c 7f
        e 0 90 4e 7f
        e 0 90 4d 7f
        e 120 80 4c 00
        e 0 80 4e 00
        e 0 80 4d 00
        e 0 90 4c 7f
        e 0 90 4e 7f
        e 0 90 4d 7f
        e 120 80 4c 00
        e 0 80 4e 00
        e 0 80 4d 00
        e 0 90 4c 7f
        e 0 90 4e 7f
        e 0 90 4d 7f
        e 120 80 4c 00
        e 0 80 4e 00
        e 0 80 4d 00
        e 0 90 4c 7f
        e 0 90 4e 7f
        e 0 90 4d 7f
        e 120 80 4c 00
        e 0 80 4e 00
        e 0 80 4d 00
        e 0 90 4c 7f
        e 0 90 4e 7f
        e 0 90 4d 7f
        e 120 80 4c 00
        e 0 80 4e 00
        e 0 80 4d 00
        e 0 90 4c 7f
        e 0 90 4e 7f
        e 0 90 4d 7f
        e 120 80 4c 00
        e 0 80 4e 00
        e 0 80 4d 00
        e 0 90 4c 7f
        e 0 90 4d 7f
        e 120 80 4c 00
        e 0 90 4c 7f
        e 0 90 4e 7f
        e 120 80 4c 00
        e 0 80 4e 00
        e 0 90 4c 7f
        e 120 80 4c 00
        e 0 90 4c 7f
        e 0 90 4e 7f
        e 120 80 4c 00
        e 0 90 4c 7f
        e 120 80 4e 00
        e 0 80 4c 00
        e 0 90 4c 7f
        e 0 90 4e 7f
        e 120 80 4c 00
        e 0 80 4e 00
        e 0 90 4c 7f
        e 120 80 4c 00
        e 0 90 4c 7f
        e 0 90 4e 7f
        e 120 80 4c 00
        e 0 90 4c 7f
        e 120 80 4c 00
        e 0 90 4c 7f
        e 120 80 4e 00
        e 0 80 4c 00
        e 0 90 4c 7f
        e 120 80 4c 00
        e 0 90 4c 7f
        e 0 90 4e 7f
        e 120 80 4c 00
        e 0 80 4e 00
        e 0 90 4c 7f
        e 0 90 4e 7f
        e 120 80 4c 00
        e 0 80 4e 00
        e 0 90 4c 7f
        e 0 90 4e 7f
        e 120 80 4c 00
        e 0 80 4e 00
        e 0 90 4c 7f
        e 0 90 4e 7f
        e 120 80 4c 00
        e 0 80 4e 00
        e 0 90 4c 7f
        e 0 90 4e 7f
        e 120 80 4c 00
        e 0 80 4e 00
        e 0 90 4c 7f
        e 0 90 4e 7f
        e 120 80 4c 00
        e 0 80 4e 00
        e 0 90 4c 7f
        e 0 90 4e 7f
        e 120 80 4c 00
        e 0 80 4e 00
        e 0 90 4c 7f
        e 120 80 4d 00
        e 0 80 4c 00
        e 0 90 4c 7f
        e 0 90 4e 7f
        e 0 90 4d 7f
        e 120 80 4c 00
        e 0 80 4d 00
        e 0 90 4c 7f
        e 0 90 4d 7f
        e 120 80 4c 00
        e 0 80 4d 00
        e 0 90 4c 7f
        e 0 90 4d 7f
        e 120 80 4e 00
        e 0 80 4c 00
        e 0 80 4d 00
        e 0 90 4c 7f
        e 0 90 4d 7f
        e 120 80 4c 00
        e 0 80 4d 00
        e 0 90 4e 7f
        e 0 90 4c 7f
        e 0 90 4d 7f
        e 120 80 4e 00
        e 0 80 4c 00
        e 0 80 4d 00
        e 0 90 4c 7f
        e 0 90 4d 7f
        e 120 80 4c 00
        e 0 80 4d 00
        e 0 90 4c 7f
        e 0 90 4e 7f
        e 0 90 4d 7f
        e 120 80 4c 00
        e 0 80 4d 00
        e 0 90 4c 7f
        e 0 90 4d 7f
        e 120 80 4c 00
        e 0 80 4d 00
        e 0 90 4c 7f
        e 0 90 4d 7f
        e 120 80 4c 00
        e 0 80 4d 00
        e 0 90 4c 7f
        e 0 90 4d 7f
        e 120 80 4e 00
        e 0 80 4c 00
        e 0 80 4d 00
        e 0 90 4c 7f
        e 0 90 4d 7f
        e 120 80 4c 00
        e 0 80 4d 00
        e 0 90 4c 7f
        e 0 90 4e 77
        e 0 90 4d 7f
        e 120 80 4c 00
        e 0 80 4e 00
        e 0 80 4d 00
        e 0 90 4c 7f
        e 0 90 4e 77
        e 0 90 4d 7f
        e 120 80 4c 00
        e 0 80 4e 00
        e 0 80 4d 00
        e 0 90 4c 7f
        e 0 90 4e 77
        e 0 90 4d 7f
        e 120 80 4c 00
        e 0 80 4e 00
        e 0 80 4d 00
        e 0 90 4c 7f
        e 0 90 4d 7f
        e 120 80 4c 00
        e 0 80 4d 00
        e 0 90 4c 7f
        e 0 90 4e 77
        e 120 80 4c 00
        e 0 80 4e 00
        e 0 90 4c 7f
        e 0 90 4e 77
        e 120 80 4c 00
        e 0 80 4e 00
        e 0 90 4c 7f
        e 0 90 4e 77
        e 120 80 4c 00
        e 0 80 4e 00
        e 0 90 4d 7f
        e 0 90 4c 7f
        e 120 80 4c 00
        e 0 90 4c 7f
        e 0 90 4e 77
        e 120 80 4c 00
        e 0 80 4e 00
        e 0 90 4c 7f
        e 0 90 4e 77
        e 120 80 4c 00
        e 0 80 4e 00
        e 0 90 4c 7f
        e 120 80 4c 00
        e 0 90 4c 7f
        e 0 90 4e 77
        e 120 80 4c 00
        e 0 80 4e 00
        e 0 90 4c 7f
        e 0 90 4e 77
        e 120 80 4c 00
        e 0 80 4e 00
        e 0 90 4c 7f
        e 0 90 4e 77
        e 120 80 4c 00
        e 0 80 4e 00
        e 0 90 4c 7f
        e 120 80 4c 00
        e 0 90 4c 7f
        e 0 90 4e 77
        e 120 80 4c 00
        e 0 80 4e 00
        e 0 90 4c 7f
        e 0 90 4e 77
        e 120 80 4c 00
        e 0 80 4e 00
        e 0 90 4c 7f
        e 0 90 4e 77
        e 120 80 4c 00
        e 0 80 4e 00
        e 0 90 4c 7f
        e 120 80 4c 00
        e 0 90 4c 7f
        e 0 90 4e 77
        e 120 80 4c 00
        e 0 80 4e 00
        e 0 90 4c 7f
        e 0 90 4e 77
        e 120 80 4d 00
        e 0 80 4c 00
        e 0 80 4e 00
        e 0 90 4c 7f
        e 0 90 4e 77
        e 0 90 4d 7f
        e 120 80 4c 00
        e 0 80 4e 00
        e 0 80 4d 00
        e 0 90 4c 7f
        e 0 90 4e 77
        e 120 80 4c 00
        e 0 80 4e 00
        e 0 90 4d 7f
        e 0 90 4c 7f
        e 0 90 4e 77
        e 120 80 4c 00
        e 0 80 4e 00
        e 0 90 4c 7f
        e 120 80 4c 00
        e 0 90 4c 7f
        e 0 90 4e 77
        e 120 80 4c 00
        e 0 80 4e 00
        e 0 90 4c 7f
        e 0 90 4e 77
        e 120 80 4c 00
        e 0 80 4e 00
        e 0 90 4c 7f
        e 0 90 4e 77
        e 120 80 4c 00
        e 0 80 4e 00
        e 0 90 4c 7f
        e 120 80 4c 00
        e 0 90 4c 7f
        e 0 90 4e 77
        e 120 80 4c 00
        e 0 80 4e 00
        e 0 90 4c 7f
        e 0 90 4e 77
        e 120 80 4d 00
        e 0 80 4c 00
        e 0 80 4e 00
        e 0 90 4c 7f
        e 0 90 4e 77
        e 120 80 4c 00
        e 0 90 4c 7f
        e 120 80 4c 00
        e 0 90 4c 7f
        e 120 80 4e 00
        e 0 80 4c 00
        e 0 90 4e 77
        e 0 90 4c 7f
        e 0 90 4d 7f
        e 120 80 4e 00
        e 0 80 4c 00
        e 0 90 4c 7f
        e 120 80 4c 00
        e 0 90 4c 7f
        e 0 90 4e 77
        e 120 80 4c 00
        e 0 90 4c 7f
        e 120 80 4d 00
        e 0 80 4e 00
        e 0 80 4c 00
        e 0 90 4c 7f
        e 0 90 4d 7f
        e 120 80 4c 00
        e 0 80 4d 00
        e 0 90 4c 7f
        e 0 90 4e 77
        e 0 90 4d 7f
        e 120 80 4c 00
        e 0 80 4e 00
        e 0 80 4d 00
        e 0 90 4c 7f
        e 0 90 4d 7f
        e 120 80 4c 00
        e 0 80 4d 00
        e 0 90 4c 7f
        e 0 90 4e 77
        e 0 90 4d 7f
        e 120 80 4c 00
        e 0 80 4d 00
        e 0 90 4c 7f
        e 0 90 4d 7f
        e 120 80 4e 00
        e 0 80 4c 00
        e 0 80 4d 00
        e 0 90 4c 7f
        e 0 90 4d 7f
        e 120 80 4c 00
        e 0 80 4d 00
        E 0 90 4c 7f
        E 0 90 4e 77
        E 0 90 4d 7f
        E 120 80 4c 00
        E 0 80 4d 00
        E 0 90 4c 7f
        E 0 90 4d 7f
        E 120 80 4c 00
        E 0 80 4d 00
        E 0 90 4c 7f
        E 0 90 4d 7f
        E 120 80 4e 00
        E 0 80 4c 00
        E 0 80 4d 00
        E 0 90 4c 7f
        E 0 90 4d 7f
        E 120 80 4c 00
        E 0 80 4d 00
        E 0 90 4c 7f
        E 0 90 4e 77
        E 0 90 4d 7f
        E 120 80 4c 00
        E 0 80 4e 00
        E 0 80 4d 00
        E 0 90 4c 7f
        E 0 90 4d 7f
        E 120 80 4c 00
        E 0 80 4d 00
        E 0 90 4c 7f
        E 0 90 4e 7f
        E 0 90 4d 7f
        E 120 80 4c 00
        E 0 80 4e 00
        E 0 80 4d 00
        E 0 90 4c 7f
        E 0 90 4d 7f
        E 120 80 4c 00
        E 0 80 4d 00
        E 0 90 4c 7f
        E 0 90 4e 7f
        E 0 90 4d 7f
        e 120 80 4f 00
        E 0 80 4c 00
        E 0 80 4e 00
        E 0 80 4d 00
        E 0 90 4c 7f
        E 0 90 4d 7f
        E 120 80 3d 00
        E 0 80 3c 00
        E 0 80 3b 00
        E 0 80 4c 00
        E 0 80 4d 00
        E 3532800 b0 7b 00
        CCINTERP 32
        CHASE_CC_TAKEOFFS 1
        GUID {E803C4E2-E7B1-5C48-8BAE-F5D658905010}
        IGNTEMPO 0 120 4 4
        SRCCOLOR 0
        VELLANE -1 100 0
        CFGEDITVIEW -12510.471222 0.003123 39 12 0 -1 0 0 0 0.5
        KEYSNAP 0
        TRACKSEL 0
        EVTFILTER 0 -1 -1 -1 -1 0 0 0 0 -1 -1 -1 -1 0 -1 0 -1 -1
        CFGEDIT 1 1 0 1 0 0 1 1 1 1 1 0.125 0 78 1792 1095 0 0 0 0 0 0 0 0 0 0.5 0 0 1 64
      >
      <VOLENV
        EGUID {B89D8D67-1DFD-DA45-B933-E584640A6E67}
        ACT 1 -1
        VIS 1 1 1
        LANEHEIGHT 0 0
        ARM 0
        DEFSHAPE 0 -1 -1
        VOLTYPE 1
        PT 0 0.34673685 0 0 1
        PT 2400 0.34673685 0
      >
    >
  >
  <TRACK {6E3D7BD2-74EE-F745-97D3-306D7A204547}
    NAME "unten od -c1"
    PEAKCOL 16576
    BEAT -1
    AUTOMODE 0
    VOLPAN 1 0 -1 -1 1
    MUTESOLO 0 2 0
    IPHASE 0
    PLAYOFFS 0 1
    ISBUS 0 0
    BUSCOMP 0 0 0 0 0
    SHOWINMIX 1 0.6667 0.5 1 0.5 0 -1 0
    FREEMODE 0
    SEL 0
    REC 0 0 1 0 0 0 0
    VU 2
    TRACKHEIGHT 0 0 0 0 0 0
    INQ 0 0 0 0.5 100 0 0 100
    NCHAN 2
    FX 0
    TRACKID {6E3D7BD2-74EE-F745-97D3-306D7A204547}
    PERF 0
    MIDIOUT 33
    MAINSEND 1 0
    <FXCHAIN
      WNDRECT 353 366 1032 679
      SHOW 0
      LASTSEL 2
      DOCKED 0
      BYPASS 1 0 0
      <VST "VSTi: TyrellN6 (u-he)" TyrellN6.vst 0 "" 1952017974<56535474596E36747972656C6C6E3600> ""
        Nm5ZdO5e7f4CAAAAAQAAAAAAAAACAAAAAAAAAAIAAAABAAAAAAAAAAIAAAAAAAAA9gsAAAEAAAAAABAAI3BnbT1SYW5kb20gTm9uc2Vuc2UKLypAbWV0YQoKQXV0aG9y
        OgonQnJvbnRvIFNjb3JwaW8nCgoqLwoKI0FNPVR5cmVsbE42CiNWZXJzPTEwMDIwCiNFbmRpYW49bGl0dGxlCiNubT0xNwojbXM9bm9uZQojbXM9TW9kV2hsCiNtcz1Q
        aXRjaFcKI21zPUJyZWF0aAojbXM9WHByZXNzCiNtcz1HYXRlCiNtcz1WZWxvY2l0eQojbXM9UHJlc3N1cmUKI21zPUtleUZvbGxvdwojbXM9S2V5Rm9sbG93MgojbXM9
        QWx0ZXJuYXRlCiNtcz1SYW5kb20KI21zPVN0YWNrVm9pY2UKI21zPUFEU1IxCiNtcz1BRFNSMgojbXM9TEZPMQojbXM9TEZPMgojbnY9MgojbXY9R2F0ZQojbXY9QURT
        UjEKI2NtPW1haW4KQ2NPcD0xMC4wMAojQ2hyczE9MAojY209UENvcmUKTU1UMT1UeXJlbGw6VHVuZTIKTU1TMT0xMQpNTUQxPTEwMC4wMApNTVZTMT0wCk1NVkQxPTAu
        MDAKTU1UMj1UeXJlbGw6Q3V0b2ZmCk1NUzI9MTYKTU1EMj0zMC4wMApNTVZTMj0wCk1NVkQyPTAuMDAKU0Jhc2U9NApTd2luZz0wLjAwClNUcmlnPTEKUFNvbmc9MApQ
        Rm9sZD0wClBGaWxlPTEKR0ZpbGU9MgpHU2NhbGU9MApDaExheT0wClN1cnJPPTEKUmV2PTM4OTgKTEVEPTAuMDAKUEFHRT0wClBhZ2VzT249MApDb3JlTj0zClNsaWNl
        PTQKVUlfb3A9MwpNaWRpQT01Ck1pZGlQPTYKI2NtPVZDQwpWb2ljaW5nPTEKTW9kZT0xClBvcnRhTT0wClBvcnRhPTAuMDAKUG9ydGEyPTAuMDAKUFJhbmdlPTEwMC4w
        MApQQj0yClBCRD0yCkRyZnQ9MQpNVHVuUz0wCk1UdW5OPTcKTVR1blQ9OApUcnNwPTEyClByaW9yPTAKTXVDb3JlPTAKQ29udEVuPTEKUk5vdGU9MApSVmVsPTAKI2Nt
        PUVOVjEKQXRrPTEuMDAKRGVjPTU4LjAwClN1cz0wLjAwCkZSPTAuMDAKUmVsPTU3LjAwClZlbD0wLjAwClJNb2Q9MC4wMApMYWJlbD05ClRyaWc9MAojY209RU5WMgpB
        dGs9MS4wMApEZWM9MjQuMDAKU3VzPTAuMDAKRlI9MC4wMApSZWw9MjAuMDAKVmVsPTEwMC4wMApSTW9kPTAuMDAKTGFiZWw9MTAKVHJpZz0zCiNjbT1MRk8xClN5bmM9
        LTIKVHJpZz0xCldhdmU9NApQaHNlPTAuMDAKUG9sYXI9MApEbHk9MC4wMApETVMxPTExCkRNRDE9MTAwLjAwClJhdGU9My4wMApGTVMxPTExCkZNRDE9LTUuMDAKI2Nt
        PUxGTzIKU3luYz0tMgpUcmlnPTEKV2F2ZT0xClBoc2U9MC4wMApQb2xhcj0wCkRseT0wLjAwCkRNUzE9MTEKRE1EMT0wLjAwClJhdGU9MC4wMApGTVMxPTExCkZNRDE9
        LTUuMDAKI2NtPVR5cmVsbApTaHAxPTMuMDAKVE1TcmMxPTAKVE1EcHQxPTAuMDAKU2hwMj0yLjAwClR1bmUyPTAuMDAKRmluZTI9MC4wMApUTVNyYzI9MTQKVE1EcHQy
        PTE1LjAwClBXRHB0PTAuMDAKUFdTcmM9MTYKRGV0dW5lPTAuMDAKU3luYz0wLjAwClZ0b0Q9NDEuMDAKUk1pMT01ClJNaTI9MQpGQmluPTAKTm9pc2U9MS4wMApPc2NW
        b2wxPS0xMDAuMDAKT3NjVm9sMj0tMTAwLjAwClN1YlZvbD0tMTAwLjAwCk5zZVZvbD0tMTAwLjAwClJNVm9sPTI1LjAwCkZCVm9sPS0yNi4wMApWQ0Ztb2Q9MQpWQ0ZQ
        b2w9MgpDdXRvZmY9NDIuMDAKRk1TcmMxPTE0CkZNRHB0MT0tNzYuMDAKRk1TcmMyPTYKRk1EcHQyPTY2LjAwCktleUZvbD0xMDAuMDAKUmVzPTEwMC4wMApNeFNwPTAu
        MDAKTXhTcFNyYz0wCkFSU3JjPTAKQVJEZXN0PTIKQVJEcHQ9MTAwLjAwCkFSTW9kPTEKI2NtPVZDQTEKVkNBPTEKQXR0Uz0xCiNjbT1DaHJzMQpUeXBlPTAKUmF0ZT01
        MC4wMApEZXB0aD01MC4wMApXZXQ9MTAwLjAwCgoKCgoKLy8gU2VjdGlvbiBmb3IgdWdseSBjb21wcmVzc2VkIGJpbmFyeSBEYXRhCi8vIERPTidUIFRPVUNIIFRISVMK
        CiQkJCQxNjUyCj9wcGhwYWFhYTpnZGdjZW5lYjpwb2hwYWFhYTphYWdhYWFhYTplYWFhYWFhYTpvaXBvZGZpYTphYWFhaWFkcDoKYWFhYmFhYWE6YWhhYWFhYWE6ZWFj
        Z2ZjYWE6YWE6ZWM6ZWI6ZWE6Y2E6YWI6aWE6Z3A6b206a2Q6aGE6aWk6awphOm1hOm5hOmFwOmJhOmJiOmZhOmdiOmdvOmphOmxmOm1pOm9hOnBhIXJ4QTdlbUhnZFRn
        bUEyWm5kY2JHcVZuCmRjYkdxeUEzenRra2lnRkE0dnFBWGpqUk9ocEExUWxnSklzSGNjaWxFcUE3bWhqaGJvRXFBYWNBNmNlb2RhZHQKQVdKSUZBMkZQVEE0T2NjYWxH
        cU5DYW1GdFNwY2RvTHFBN1NsZ0pJc2hqS2ZmRXFBbm5qbUxxRlBUQXBwM1ZSRApMcWlscGZpa0VxdnFQRkE1a2VXSklzTVdKSXNHV0pJc2NmcHBpa0VxcnVBN2ZjVFVn
        ZUhnbkVlb0hVaGRnZlVoCmRnZmNvZ2doaUtBcXlBM3p0a2tpZ0ZBNHZxQVhqalJPaHBBMXJ1QTcxcnVBN29ub29vcFpwYnBjcGRwZXBmcGcKcGhwaXBqcGtwbHBtcG5w
        b3BwQUZhY2FkYWVhZmFnYWhhaWFqYWthbGFtYW5hb1BRUmJjYmRiZWJmYmdiaGJpYgpqYmtibGJtYm5ib2JwRWNiY2NjZGNlY2ZjZ2NoY2ljamNrY2xjbXJhZUExMG9i
        ZGVGQXJ4QTdCaGNIVWhlSEVmCmRnZEhoY0tnakhBMjQxckdBMTM4cnVBNDN3QTJEQTFEMUExR0RBMU1EQTFOREExWURyQWFjQTV3QTN3QTJEQTEKRDFBMUdEQTFNREEx
        TkRBMVl1Q0ExUUNBMUVDQTFkYUNBMURDQTFTQ0ExZ2FDQTFLQ0ExR0NBMUxDQTFWQ0ExagppQ0ExTUNBMWtpQ0ExbGFDQTFsaUNBMU5DQTFYQ0ExT0NBMW5pQ0ExWUNB
        MW9pQ0ExWkNBMXBpQ0EyQkExYWVCCkExYWlCQTFhbUJBMVFCQTFiZUJBMWJpQkExYm1CQTFFQkExY2VCQTFjaUJBMWNtQkExZGFCQTFkZUJBMWRpQkEKMWRtQkExREJB
        MWVlQkExZWlCQTFlbUJBMVNCQTFmZUJBMWZpQkExZm1CQTFnYUJBMWdlQkExZ2lCQTFnbUJBMQpLQkExaGVCQTFoaUJBMWhtQkExR0JBMWljQkExaWVCQTFpZ0JBMUxC
        QTFpa0JBMWltQkExaW9CQTFWQkExamNCCkExamVCQTFqZ0JBMWppQkExamtCQTFqbUJBMWpvQkExTUJBMWtjQkExa2VCQTFrZ0JBMWtpQkExa2tCQTFrbUIKQTFrb0JB
        MWxhQkExbGNCQTFsZUJBMWxnQkExbGlCQTFsa0JBMWxtQkExbG9CQTFOQkExbWNCQTFtZUJBMW1nQgpBMVhCQTFta0JBMW1tQkExbW9CQTFPQkExbmNCQTFuZUJBMW5n
        QkExbmlCQTFua0JBMW5tQkExbm9CQTFZQkExCm9jQkExb2VCQTFvZ0JBMW9pQkExb2tCQTFJQkExb29CQTFaQkExcGNCQTFwZUJBMXBnQkExcGlCQTFwa0JBMXAKbUJB
        MXBvQnJFQTEwQ2VlZmRmY0VkYkEyNXJFQTEwQ2VlZmRmY0VkY0EyNT0xMDUxMDEKAAAAUmFuZG9tIE5vbnNlbnNlABAAAAA=
      >
      PRESETNAME "Random Nonsense"
      FLOATPOS 0 0 0 0
      FXID {CEB02428-87D0-7D4F-B76B-3977D12172D6}
      WAK 0 0
      BYPASS 0 0 0
      <VST "VSTi: ReaSynDr (Cockos) (4 out)" reasyndr.dll 0 "" 1919251300<5653547265736472656173796E647200> ""
        ZHNlcu9e7f4AAAAABAAAAAEAAAAAAAAAAgAAAAAAAAAEAAAAAAAAAAgAAAAAAAAADAAAAAAAAAAAABAA
        776t3g3wrd4AAAAA
        AFByb2dyYW0gMQAQAAAA
      >
      PRESETNAME "Program 1"
      FLOATPOS 0 0 0 0
      FXID {A0E36BDB-0E75-8348-A7B5-EFB392CFCD50}
      WAK 0 0
      BYPASS 0 0 0
      <AU "AUi: AUSampler (Apple)" "Apple: AUSampler" "" 1635085685 1935764848 1634758764
        6QMAAAAAAAAAAAAAAgAAAAEAAAAAAAAAAgAAAAAAAACZHQAAPD94bWwgdmVyc2lvbj0iMS4wIiBlbmNvZGluZz0iVVRGLTgiPz4KPCFET0NUWVBFIHBsaXN0IFBVQkxJ
        QyAiLS8vQXBwbGUvL0RURCBQTElTVCAxLjAvL0VOIiAiaHR0cDovL3d3dy5hcHBsZS5jb20vRFREcy9Qcm9wZXJ0eUxpc3QtMS4wLmR0ZCI+CjxwbGlzdCB2ZXJzaW9u
        PSIxLjAiPgo8ZGljdD4KCTxrZXk+QVUgdmVyc2lvbjwva2V5PgoJPHJlYWw+MTwvcmVhbD4KCTxrZXk+SW5zdHJ1bWVudDwva2V5PgoJPGRpY3Q+CgkJPGtleT5MYXll
        cnM8L2tleT4KCQk8YXJyYXk+CgkJCTxkaWN0PgoJCQkJPGtleT5BbXBsaWZpZXI8L2tleT4KCQkJCTxkaWN0PgoJCQkJCTxrZXk+SUQ8L2tleT4KCQkJCQk8aW50ZWdl
        cj4wPC9pbnRlZ2VyPgoJCQkJCTxrZXk+ZW5hYmxlZDwva2V5PgoJCQkJCTx0cnVlLz4KCQkJCTwvZGljdD4KCQkJCTxrZXk+Q29ubmVjdGlvbnM8L2tleT4KCQkJCTxh
        cnJheT4KCQkJCQk8ZGljdD4KCQkJCQkJPGtleT5JRDwva2V5PgoJCQkJCQk8aW50ZWdlcj4wPC9pbnRlZ2VyPgoJCQkJCQk8a2V5PmNvbnRyb2w8L2tleT4KCQkJCQkJ
        PGludGVnZXI+MDwvaW50ZWdlcj4KCQkJCQkJPGtleT5kZXN0aW5hdGlvbjwva2V5PgoJCQkJCQk8aW50ZWdlcj44MTY4NDA3MDQ8L2ludGVnZXI+CgkJCQkJCTxrZXk+
        ZW5hYmxlZDwva2V5PgoJCQkJCQk8dHJ1ZS8+CgkJCQkJCTxrZXk+aW52ZXJzZTwva2V5PgoJCQkJCQk8ZmFsc2UvPgoJCQkJCQk8a2V5PnNjYWxlPC9rZXk+CgkJCQkJ
        CTxyZWFsPjEyODAwPC9yZWFsPgoJCQkJCQk8a2V5PnNvdXJjZTwva2V5PgoJCQkJCQk8aW50ZWdlcj4zMDA8L2ludGVnZXI+CgkJCQkJCTxrZXk+dHJhbnNmb3JtPC9r
        ZXk+CgkJCQkJCTxpbnRlZ2VyPjE8L2ludGVnZXI+CgkJCQkJPC9kaWN0PgoJCQkJCTxkaWN0PgoJCQkJCQk8a2V5PklEPC9rZXk+CgkJCQkJCTxpbnRlZ2VyPjE8L2lu
        dGVnZXI+CgkJCQkJCTxrZXk+Y29udHJvbDwva2V5PgoJCQkJCQk8aW50ZWdlcj4wPC9pbnRlZ2VyPgoJCQkJCQk8a2V5PmRlc3RpbmF0aW9uPC9rZXk+CgkJCQkJCTxp
        bnRlZ2VyPjEzNDMyMjU4NTY8L2ludGVnZXI+CgkJCQkJCTxrZXk+ZW5hYmxlZDwva2V5PgoJCQkJCQk8dHJ1ZS8+CgkJCQkJCTxrZXk+aW52ZXJzZTwva2V5PgoJCQkJ
        CQk8dHJ1ZS8+CgkJCQkJCTxrZXk+c2NhbGU8L2tleT4KCQkJCQkJPHJlYWw+LTk2PC9yZWFsPgoJCQkJCQk8a2V5PnNvdXJjZTwva2V5PgoJCQkJCQk8aW50ZWdlcj4z
        MDE8L2ludGVnZXI+CgkJCQkJCTxrZXk+dHJhbnNmb3JtPC9rZXk+CgkJCQkJCTxpbnRlZ2VyPjI8L2ludGVnZXI+CgkJCQkJPC9kaWN0PgoJCQkJCTxkaWN0PgoJCQkJ
        CQk8a2V5PklEPC9rZXk+CgkJCQkJCTxpbnRlZ2VyPjI8L2ludGVnZXI+CgkJCQkJCTxrZXk+Y29udHJvbDwva2V5PgoJCQkJCQk8aW50ZWdlcj4wPC9pbnRlZ2VyPgoJ
        CQkJCQk8a2V5PmRlc3RpbmF0aW9uPC9rZXk+CgkJCQkJCTxpbnRlZ2VyPjEzNDMyMjU4NTY8L2ludGVnZXI+CgkJCQkJCTxrZXk+ZW5hYmxlZDwva2V5PgoJCQkJCQk8
        dHJ1ZS8+CgkJCQkJCTxrZXk+aW52ZXJzZTwva2V5PgoJCQkJCQk8dHJ1ZS8+CgkJCQkJCTxrZXk+c2NhbGU8L2tleT4KCQkJCQkJPHJlYWw+LTk2PC9yZWFsPgoJCQkJ
        CQk8a2V5PnNvdXJjZTwva2V5PgoJCQkJCQk8aW50ZWdlcj43PC9pbnRlZ2VyPgoJCQkJCQk8a2V5PnRyYW5zZm9ybTwva2V5PgoJCQkJCQk8aW50ZWdlcj4yPC9pbnRl
        Z2VyPgoJCQkJCTwvZGljdD4KCQkJCQk8ZGljdD4KCQkJCQkJPGtleT5JRDwva2V5PgoJCQkJCQk8aW50ZWdlcj4zPC9pbnRlZ2VyPgoJCQkJCQk8a2V5PmNvbnRyb2w8
        L2tleT4KCQkJCQkJPGludGVnZXI+MDwvaW50ZWdlcj4KCQkJCQkJPGtleT5kZXN0aW5hdGlvbjwva2V5PgoJCQkJCQk8aW50ZWdlcj4xMzQzMjI1ODU2PC9pbnRlZ2Vy
        PgoJCQkJCQk8a2V5PmVuYWJsZWQ8L2tleT4KCQkJCQkJPHRydWUvPgoJCQkJCQk8a2V5PmludmVyc2U8L2tleT4KCQkJCQkJPHRydWUvPgoJCQkJCQk8a2V5PnNjYWxl
        PC9rZXk+CgkJCQkJCTxyZWFsPi05NjwvcmVhbD4KCQkJCQkJPGtleT5zb3VyY2U8L2tleT4KCQkJCQkJPGludGVnZXI+MTE8L2ludGVnZXI+CgkJCQkJCTxrZXk+dHJh
        bnNmb3JtPC9rZXk+CgkJCQkJCTxpbnRlZ2VyPjI8L2ludGVnZXI+CgkJCQkJPC9kaWN0PgoJCQkJCTxkaWN0PgoJCQkJCQk8a2V5PklEPC9rZXk+CgkJCQkJCTxpbnRl
        Z2VyPjQ8L2ludGVnZXI+CgkJCQkJCTxrZXk+Y29udHJvbDwva2V5PgoJCQkJCQk8aW50ZWdlcj4wPC9pbnRlZ2VyPgoJCQkJCQk8a2V5PmRlc3RpbmF0aW9uPC9rZXk+
        CgkJCQkJCTxpbnRlZ2VyPjEzNDQyNzQ0MzI8L2ludGVnZXI+CgkJCQkJCTxrZXk+ZW5hYmxlZDwva2V5PgoJCQkJCQk8dHJ1ZS8+CgkJCQkJCTxrZXk+aW52ZXJzZTwv
        a2V5PgoJCQkJCQk8ZmFsc2UvPgoJCQkJCQk8a2V5Pm1heCB2YWx1ZTwva2V5PgoJCQkJCQk8cmVhbD4wLjUwODAwMDAxNjIxMjQ2MzM4PC9yZWFsPgoJCQkJCQk8a2V5
        Pm1pbiB2YWx1ZTwva2V5PgoJCQkJCQk8cmVhbD4tMC41MDgwMDAwMTYyMTI0NjMzODwvcmVhbD4KCQkJCQkJPGtleT5zb3VyY2U8L2tleT4KCQkJCQkJPGludGVnZXI+
        MTA8L2ludGVnZXI+CgkJCQkJCTxrZXk+dHJhbnNmb3JtPC9rZXk+CgkJCQkJCTxpbnRlZ2VyPjE8L2ludGVnZXI+CgkJCQkJPC9kaWN0PgoJCQkJCTxkaWN0PgoJCQkJ
        CQk8a2V5PklEPC9rZXk+CgkJCQkJCTxpbnRlZ2VyPjc8L2ludGVnZXI+CgkJCQkJCTxrZXk+Y29udHJvbDwva2V5PgoJCQkJCQk8aW50ZWdlcj4yNDE8L2ludGVnZXI+
        CgkJCQkJCTxrZXk+ZGVzdGluYXRpb248L2tleT4KCQkJCQkJPGludGVnZXI+ODE2ODQwNzA0PC9pbnRlZ2VyPgoJCQkJCQk8a2V5PmVuYWJsZWQ8L2tleT4KCQkJCQkJ
        PHRydWUvPgoJCQkJCQk8a2V5PmludmVyc2U8L2tleT4KCQkJCQkJPGZhbHNlLz4KCQkJCQkJPGtleT5tYXggdmFsdWU8L2tleT4KCQkJCQkJPHJlYWw+MTI4MDA8L3Jl
        YWw+CgkJCQkJCTxrZXk+bWluIHZhbHVlPC9rZXk+CgkJCQkJCTxyZWFsPi0xMjgwMDwvcmVhbD4KCQkJCQkJPGtleT5zb3VyY2U8L2tleT4KCQkJCQkJPGludGVnZXI+
        MjI0PC9pbnRlZ2VyPgoJCQkJCQk8a2V5PnRyYW5zZm9ybTwva2V5PgoJCQkJCQk8aW50ZWdlcj4xPC9pbnRlZ2VyPgoJCQkJCTwvZGljdD4KCQkJCQk8ZGljdD4KCQkJ
        CQkJPGtleT5JRDwva2V5PgoJCQkJCQk8aW50ZWdlcj44PC9pbnRlZ2VyPgoJCQkJCQk8a2V5PmNvbnRyb2w8L2tleT4KCQkJCQkJPGludGVnZXI+MDwvaW50ZWdlcj4K
        CQkJCQkJPGtleT5kZXN0aW5hdGlvbjwva2V5PgoJCQkJCQk8aW50ZWdlcj44MTY4NDA3MDQ8L2ludGVnZXI+CgkJCQkJCTxrZXk+ZW5hYmxlZDwva2V5PgoJCQkJCQk8
        dHJ1ZS8+CgkJCQkJCTxrZXk+aW52ZXJzZTwva2V5PgoJCQkJCQk8ZmFsc2UvPgoJCQkJCQk8a2V5Pm1heCB2YWx1ZTwva2V5PgoJCQkJCQk8cmVhbD4xMDA8L3JlYWw+
        CgkJCQkJCTxrZXk+bWluIHZhbHVlPC9rZXk+CgkJCQkJCTxyZWFsPi0xMDA8L3JlYWw+CgkJCQkJCTxrZXk+c291cmNlPC9rZXk+CgkJCQkJCTxpbnRlZ2VyPjI0Mjwv
        aW50ZWdlcj4KCQkJCQkJPGtleT50cmFuc2Zvcm08L2tleT4KCQkJCQkJPGludGVnZXI+MTwvaW50ZWdlcj4KCQkJCQk8L2RpY3Q+CgkJCQkJPGRpY3Q+CgkJCQkJCTxr
        ZXk+SUQ8L2tleT4KCQkJCQkJPGludGVnZXI+NjwvaW50ZWdlcj4KCQkJCQkJPGtleT5jb250cm9sPC9rZXk+CgkJCQkJCTxpbnRlZ2VyPjE8L2ludGVnZXI+CgkJCQkJ
        CTxrZXk+ZGVzdGluYXRpb248L2tleT4KCQkJCQkJPGludGVnZXI+ODE2ODQwNzA0PC9pbnRlZ2VyPgoJCQkJCQk8a2V5PmVuYWJsZWQ8L2tleT4KCQkJCQkJPHRydWUv
        PgoJCQkJCQk8a2V5PmludmVyc2U8L2tleT4KCQkJCQkJPGZhbHNlLz4KCQkJCQkJPGtleT5tYXggdmFsdWU8L2tleT4KCQkJCQkJPHJlYWw+NTA8L3JlYWw+CgkJCQkJ
        CTxrZXk+bWluIHZhbHVlPC9rZXk+CgkJCQkJCTxyZWFsPi01MDwvcmVhbD4KCQkJCQkJPGtleT5zb3VyY2U8L2tleT4KCQkJCQkJPGludGVnZXI+MjY4NDM1NDU2PC9p
        bnRlZ2VyPgoJCQkJCQk8a2V5PnRyYW5zZm9ybTwva2V5PgoJCQkJCQk8aW50ZWdlcj4xPC9pbnRlZ2VyPgoJCQkJCTwvZGljdD4KCQkJCQk8ZGljdD4KCQkJCQkJPGtl
        eT5JRDwva2V5PgoJCQkJCQk8aW50ZWdlcj41PC9pbnRlZ2VyPgoJCQkJCQk8a2V5PmNvbnRyb2w8L2tleT4KCQkJCQkJPGludGVnZXI+MDwvaW50ZWdlcj4KCQkJCQkJ
        PGtleT5kZXN0aW5hdGlvbjwva2V5PgoJCQkJCQk8aW50ZWdlcj4xMzQzMjI1ODU2PC9pbnRlZ2VyPgoJCQkJCQk8a2V5PmVuYWJsZWQ8L2tleT4KCQkJCQkJPHRydWUv
        PgoJCQkJCQk8a2V5PmludmVyc2U8L2tleT4KCQkJCQkJPHRydWUvPgoJCQkJCQk8a2V5PnNjYWxlPC9rZXk+CgkJCQkJCTxyZWFsPi05NjwvcmVhbD4KCQkJCQkJPGtl
        eT5zb3VyY2U8L2tleT4KCQkJCQkJPGludGVnZXI+NTM2ODcwOTEyPC9pbnRlZ2VyPgoJCQkJCQk8a2V5PnRyYW5zZm9ybTwva2V5PgoJCQkJCQk8aW50ZWdlcj4xPC9p
        bnRlZ2VyPgoJCQkJCTwvZGljdD4KCQkJCTwvYXJyYXk+CgkJCQk8a2V5PkVudmVsb3Blczwva2V5PgoJCQkJPGFycmF5PgoJCQkJCTxkaWN0PgoJCQkJCQk8a2V5PklE
        PC9rZXk+CgkJCQkJCTxpbnRlZ2VyPjA8L2ludGVnZXI+CgkJCQkJCTxrZXk+U3RhZ2VzPC9rZXk+CgkJCQkJCTxhcnJheT4KCQkJCQkJCTxkaWN0PgoJCQkJCQkJCTxr
        ZXk+Y3VydmU8L2tleT4KCQkJCQkJCQk8aW50ZWdlcj4yMDwvaW50ZWdlcj4KCQkJCQkJCQk8a2V5PnN0YWdlPC9rZXk+CgkJCQkJCQkJPGludGVnZXI+MDwvaW50ZWdl
        cj4KCQkJCQkJCQk8a2V5PnRpbWU8L2tleT4KCQkJCQkJCQk8cmVhbD4wLjA8L3JlYWw+CgkJCQkJCQk8L2RpY3Q+CgkJCQkJCQk8ZGljdD4KCQkJCQkJCQk8a2V5PmN1
        cnZlPC9rZXk+CgkJCQkJCQkJPGludGVnZXI+MjI8L2ludGVnZXI+CgkJCQkJCQkJPGtleT5zdGFnZTwva2V5PgoJCQkJCQkJCTxpbnRlZ2VyPjE8L2ludGVnZXI+CgkJ
        CQkJCQkJPGtleT50aW1lPC9rZXk+CgkJCQkJCQkJPHJlYWw+MC4wPC9yZWFsPgoJCQkJCQkJPC9kaWN0PgoJCQkJCQkJPGRpY3Q+CgkJCQkJCQkJPGtleT5jdXJ2ZTwv
        a2V5PgoJCQkJCQkJCTxpbnRlZ2VyPjIwPC9pbnRlZ2VyPgoJCQkJCQkJCTxrZXk+c3RhZ2U8L2tleT4KCQkJCQkJCQk8aW50ZWdlcj4yPC9pbnRlZ2VyPgoJCQkJCQkJ
        CTxrZXk+dGltZTwva2V5PgoJCQkJCQkJCTxyZWFsPjAuMDwvcmVhbD4KCQkJCQkJCTwvZGljdD4KCQkJCQkJCTxkaWN0PgoJCQkJCQkJCTxrZXk+Y3VydmU8L2tleT4K
        CQkJCQkJCQk8aW50ZWdlcj4yMDwvaW50ZWdlcj4KCQkJCQkJCQk8a2V5PnN0YWdlPC9rZXk+CgkJCQkJCQkJPGludGVnZXI+MzwvaW50ZWdlcj4KCQkJCQkJCQk8a2V5
        PnRpbWU8L2tleT4KCQkJCQkJCQk8cmVhbD4wLjA8L3JlYWw+CgkJCQkJCQk8L2RpY3Q+CgkJCQkJCQk8ZGljdD4KCQkJCQkJCQk8a2V5PmxldmVsPC9rZXk+CgkJCQkJ
        CQkJPHJlYWw+MTwvcmVhbD4KCQkJCQkJCQk8a2V5PnN0YWdlPC9rZXk+CgkJCQkJCQkJPGludGVnZXI+NDwvaW50ZWdlcj4KCQkJCQkJCTwvZGljdD4KCQkJCQkJCTxk
        aWN0PgoJCQkJCQkJCTxrZXk+Y3VydmU8L2tleT4KCQkJCQkJCQk8aW50ZWdlcj4yMDwvaW50ZWdlcj4KCQkJCQkJCQk8a2V5PnN0YWdlPC9rZXk+CgkJCQkJCQkJPGlu
        dGVnZXI+NTwvaW50ZWdlcj4KCQkJCQkJCQk8a2V5PnRpbWU8L2tleT4KCQkJCQkJCQk8cmVhbD4wLjA8L3JlYWw+CgkJCQkJCQk8L2RpY3Q+CgkJCQkJCQk8ZGljdD4K
        CQkJCQkJCQk8a2V5PmN1cnZlPC9rZXk+CgkJCQkJCQkJPGludGVnZXI+MjA8L2ludGVnZXI+CgkJCQkJCQkJPGtleT5zdGFnZTwva2V5PgoJCQkJCQkJCTxpbnRlZ2Vy
        PjY8L2ludGVnZXI+CgkJCQkJCQkJPGtleT50aW1lPC9rZXk+CgkJCQkJCQkJPHJlYWw+MC4wMDQ5OTk5OTk4ODgyNDEyOTE8L3JlYWw+CgkJCQkJCQk8L2RpY3Q+CgkJ
        CQkJCTwvYXJyYXk+CgkJCQkJCTxrZXk+ZW5hYmxlZDwva2V5PgoJCQkJCQk8dHJ1ZS8+CgkJCQkJPC9kaWN0PgoJCQkJPC9hcnJheT4KCQkJCTxrZXk+RmlsdGVyczwv
        a2V5PgoJCQkJPGRpY3Q+CgkJCQkJPGtleT5JRDwva2V5PgoJCQkJCTxpbnRlZ2VyPjA8L2ludGVnZXI+CgkJCQkJPGtleT5jdXRvZmY8L2tleT4KCQkJCQk8cmVhbD4y
        MDAwMDwvcmVhbD4KCQkJCQk8a2V5PmVuYWJsZWQ8L2tleT4KCQkJCQk8ZmFsc2UvPgoJCQkJCTxrZXk+cmVzb25hbmNlPC9rZXk+CgkJCQkJPHJlYWw+LTM8L3JlYWw+
        CgkJCQk8L2RpY3Q+CgkJCQk8a2V5PklEPC9rZXk+CgkJCQk8aW50ZWdlcj4wPC9pbnRlZ2VyPgoJCQkJPGtleT5MRk9zPC9rZXk+CgkJCQk8YXJyYXk+CgkJCQkJPGRp
        Y3Q+CgkJCQkJCTxrZXk+SUQ8L2tleT4KCQkJCQkJPGludGVnZXI+MDwvaW50ZWdlcj4KCQkJCQkJPGtleT5lbmFibGVkPC9rZXk+CgkJCQkJCTx0cnVlLz4KCQkJCQk8
        L2RpY3Q+CgkJCQk8L2FycmF5PgoJCQkJPGtleT5Pc2NpbGxhdG9yPC9rZXk+CgkJCQk8ZGljdD4KCQkJCQk8a2V5PklEPC9rZXk+CgkJCQkJPGludGVnZXI+MDwvaW50
        ZWdlcj4KCQkJCQk8a2V5PmVuYWJsZWQ8L2tleT4KCQkJCQk8dHJ1ZS8+CgkJCQk8L2RpY3Q+CgkJCQk8a2V5PlpvbmVzPC9rZXk+CgkJCQk8YXJyYXk+CgkJCQkJPGRp
        Y3Q+CgkJCQkJCTxrZXk+SUQ8L2tleT4KCQkJCQkJPGludGVnZXI+MDwvaW50ZWdlcj4KCQkJCQkJPGtleT5lbmFibGVkPC9rZXk+CgkJCQkJCTx0cnVlLz4KCQkJCQkJ
        PGtleT5sb29wIGVuYWJsZWQ8L2tleT4KCQkJCQkJPHRydWUvPgoJCQkJCQk8a2V5PnJvb3Qga2V5PC9rZXk+CgkJCQkJCTxpbnRlZ2VyPjY5PC9pbnRlZ2VyPgoJCQkJ
        CQk8a2V5PndhdmVmb3JtPC9rZXk+CgkJCQkJCTxpbnRlZ2VyPi0yPC9pbnRlZ2VyPgoJCQkJCTwvZGljdD4KCQkJCTwvYXJyYXk+CgkJCTwvZGljdD4KCQk8L2FycmF5
        PgoJCTxrZXk+bmFtZTwva2V5PgoJCTxzdHJpbmc+RGVmYXVsdCBJbnN0cnVtZW50PC9zdHJpbmc+Cgk8L2RpY3Q+Cgk8a2V5PmNvYXJzZSB0dW5lPC9rZXk+Cgk8aW50
        ZWdlcj4wPC9pbnRlZ2VyPgoJPGtleT5kYXRhPC9rZXk+Cgk8ZGF0YT4KCUFBQUFBQUFBQUFBQUFBQUVBQUFEaEFBQUFBQUFBQU9GQUFBQUFBQUFBNFlBQUFBQUFBQURo
        d0FBQUFBPQoJPC9kYXRhPgoJPGtleT5maWxlLXJlZmVyZW5jZXM8L2tleT4KCTxkaWN0Lz4KCTxrZXk+ZmluZSB0dW5lPC9rZXk+Cgk8cmVhbD4wLjA8L3JlYWw+Cgk8
        a2V5PmdhaW48L2tleT4KCTxyZWFsPjAuMDwvcmVhbD4KCTxrZXk+bWFudWZhY3R1cmVyPC9rZXk+Cgk8aW50ZWdlcj4xNjM0NzU4NzY0PC9pbnRlZ2VyPgoJPGtleT5u
        YW1lPC9rZXk+Cgk8c3RyaW5nPlVudGl0bGVkPC9zdHJpbmc+Cgk8a2V5Pm91dHB1dDwva2V5PgoJPGludGVnZXI+MDwvaW50ZWdlcj4KCTxrZXk+cGFuPC9rZXk+Cgk8
        cmVhbD4wLjA8L3JlYWw+Cgk8a2V5PnN1YnR5cGU8L2tleT4KCTxpbnRlZ2VyPjE5MzU3NjQ4NDg8L2ludGVnZXI+Cgk8a2V5PnR5cGU8L2tleT4KCTxpbnRlZ2VyPjE2
        MzUwODU2ODU8L2ludGVnZXI+Cgk8a2V5PnZlcnNpb248L2tleT4KCTxpbnRlZ2VyPjA8L2ludGVnZXI+Cgk8a2V5PnZvaWNlIGNvdW50PC9rZXk+Cgk8aW50ZWdlcj42
        NDwvaW50ZWdlcj4KPC9kaWN0Pgo8L3BsaXN0PgoBAAAAAAAAAAAA
      >
      FLOATPOS 0 0 0 0
      FXID {7DB70937-03A5-634C-8F37-16D523578EF4}
      WAK 0 0
    >
    <ITEM
      POSITION 0
      SNAPOFFS 0
      LENGTH 2415.2668680202178
      LOOP 1
      ALLTAKES 0
      FADEIN 1 0 0 1 0 0 0
      FADEOUT 1 0 0 1 0 0 0
      MUTE 0 0
      SEL 0
      IGUID {D50F42B8-5076-9141-BC61-80F6DCA7B1DE}
      IID 1
      NAME "untitled MIDI item"
      VOLPAN 1 0 1 -1
      SOFFS 0 0
      PLAYRATE 1 1 0 -1 0 0.0025
      CHANMODE 0
      GUID {7F39E610-C62B-2B4D-80FD-80F8CC160EAD}
      <SOURCE MIDI
        HASDATA 1 960 QN
        CCINTERP 32
        POOLEDEVTS {B3F2DADE-12C5-4341-BC63-25DAE35F0E00}
        E 50760 90 0f 7f
        E 120 80 0f 00
        E 0 90 10 7f
        E 120 80 10 00
        E 0 90 0f 7f
        E 120 80 0f 00
        E 87120 90 00 60
        E 0 90 01 60
        E 0 90 03 60
        E 0 90 02 60
        E 0 90 04 60
        E 0 90 05 60
        E 0 90 06 60
        E 0 90 07 60
        E 0 90 08 60
        E 0 90 09 60
        E 0 90 0a 60
        E 480 80 00 00
        E 0 80 01 00
        E 0 80 03 00
        E 0 80 02 00
        E 0 80 04 00
        E 0 80 05 00
        E 0 80 06 00
        E 0 80 07 00
        E 0 80 08 00
        E 0 80 09 00
        E 0 80 0a 00
        E 480 90 00 60
        E 0 90 01 60
        E 0 90 03 60
        E 0 90 02 60
        E 0 90 04 60
        E 0 90 05 60
        E 0 90 06 60
        E 0 90 07 60
        E 0 90 08 60
        E 0 90 09 60
        E 0 90 0a 60
        E 480 80 00 00
        E 0 80 01 00
        E 0 80 03 00
        E 0 80 02 00
        E 0 80 04 00
        E 0 80 05 00
        E 0 80 06 00
        E 0 80 07 00
        E 0 80 08 00
        E 0 80 09 00
        E 0 80 0a 00
        E 480 90 00 60
        E 0 90 01 60
        E 0 90 03 60
        E 0 90 02 60
        E 0 90 04 60
        E 0 90 05 60
        E 0 90 06 60
        E 0 90 07 60
        E 0 90 08 60
        E 0 90 09 60
        E 0 90 0a 60
        E 480 80 00 00
        E 0 80 01 00
        E 0 80 03 00
        E 0 80 02 00
        E 0 80 04 00
        E 0 80 05 00
        E 0 80 06 00
        E 0 80 07 00
        E 0 80 08 00
        E 0 80 09 00
        E 0 80 0a 00
        E 480 90 00 60
        E 0 90 01 60
        E 0 90 03 60
        E 0 90 02 60
        E 0 90 04 60
        E 0 90 05 60
        E 0 90 06 60
        E 0 90 07 60
        E 0 90 08 60
        E 0 90 09 60
        E 0 90 0a 60
        E 480 80 00 00
        E 0 80 01 00
        E 0 80 03 00
        E 0 80 02 00
        E 0 80 04 00
        E 0 80 05 00
        E 0 80 06 00
        E 0 80 07 00
        E 0 80 08 00
        E 0 80 09 00
        E 0 80 0a 00
        E 480 90 00 60
        E 0 90 01 60
        E 0 90 03 60
        E 0 90 02 60
        E 0 90 04 60
        E 0 90 05 60
        E 0 90 06 60
        E 0 90 07 60
        E 0 90 08 60
        E 0 90 09 60
        E 0 90 0a 60
        E 480 80 00 00
        E 0 80 01 00
        E 0 80 03 00
        E 0 80 02 00
        E 0 80 04 00
        E 0 80 05 00
        E 0 80 06 00
        E 0 80 07 00
        E 0 80 08 00
        E 0 80 09 00
        E 0 80 0a 00
        E 480 90 00 60
        E 0 90 01 60
        E 0 90 03 60
        E 0 90 02 60
        E 0 90 04 60
        E 0 90 05 60
        E 0 90 06 60
        E 0 90 07 60
        E 0 90 08 60
        E 0 90 09 60
        E 0 90 0a 60
        E 480 80 00 00
        E 0 80 01 00
        E 0 80 03 00
        E 0 80 02 00
        E 0 80 04 00
        E 0 80 05 00
        E 0 80 06 00
        E 0 80 07 00
        E 0 80 08 00
        E 0 80 09 00
        E 0 80 0a 00
        E 480 90 00 60
        E 0 90 01 60
        E 0 90 03 60
        E 0 90 02 60
        E 0 90 04 60
        E 0 90 05 60
        E 0 90 06 60
        E 0 90 07 60
        E 0 90 08 60
        E 0 90 09 60
        E 0 90 0a 60
        E 480 80 00 00
        E 0 80 01 00
        E 0 80 03 00
        E 0 80 02 00
        E 0 80 04 00
        E 0 80 05 00
        E 0 80 06 00
        E 0 80 07 00
        E 0 80 08 00
        E 0 80 09 00
        E 0 80 0a 00
        E 480 90 00 60
        E 0 90 01 60
        E 0 90 03 60
        E 0 90 02 60
        E 0 90 04 60
        E 0 90 05 60
        E 0 90 06 60
        E 0 90 07 60
        E 0 90 08 60
        E 0 90 09 60
        E 0 90 0a 60
        E 480 80 00 00
        E 0 80 01 00
        E 0 80 03 00
        E 0 80 02 00
        E 0 80 04 00
        E 0 80 05 00
        E 0 80 06 00
        E 0 80 07 00
        E 0 80 08 00
        E 0 80 09 00
        E 0 80 0a 00
        E 480 90 00 60
        E 0 90 01 60
        E 0 90 03 60
        E 0 90 02 60
        E 0 90 04 60
        E 0 90 05 60
        E 0 90 06 60
        E 0 90 07 60
        E 0 90 08 60
        E 0 90 09 60
        E 0 90 0a 60
        E 480 80 00 00
        E 0 80 01 00
        E 0 80 03 00
        E 0 80 02 00
        E 0 80 04 00
        E 0 80 05 00
        E 0 80 06 00
        E 0 80 07 00
        E 0 80 08 00
        E 0 80 09 00
        E 0 80 0a 00
        E 480 90 00 60
        E 0 90 01 60
        E 0 90 03 60
        E 0 90 02 60
        E 0 90 04 60
        E 0 90 05 60
        E 0 90 06 60
        E 0 90 07 60
        E 0 90 08 60
        E 0 90 09 60
        E 0 90 0a 60
        E 480 80 00 00
        E 0 80 01 00
        E 0 80 03 00
        E 0 80 02 00
        E 0 80 04 00
        E 0 80 05 00
        E 0 80 06 00
        E 0 80 07 00
        E 0 80 08 00
        E 0 80 09 00
        E 0 80 0a 00
        E 480 90 00 60
        E 0 90 01 60
        E 0 90 03 60
        E 0 90 02 60
        E 0 90 04 60
        E 0 90 05 60
        E 0 90 06 60
        E 0 90 07 60
        E 0 90 08 60
        E 0 90 09 60
        E 0 90 0a 60
        E 480 80 00 00
        E 0 80 01 00
        E 0 80 03 00
        E 0 80 02 00
        E 0 80 04 00
        E 0 80 05 00
        E 0 80 06 00
        E 0 80 07 00
        E 0 80 08 00
        E 0 80 09 00
        E 0 80 0a 00
        E 480 90 00 60
        E 0 90 01 60
        E 0 90 03 60
        E 0 90 02 60
        E 0 90 04 60
        E 0 90 05 60
        E 0 90 06 60
        E 0 90 07 60
        E 0 90 08 60
        E 0 90 09 60
        E 0 90 0a 60
        E 480 80 00 00
        E 0 80 01 00
        E 0 80 03 00
        E 0 80 02 00
        E 0 80 04 00
        E 0 80 05 00
        E 0 80 06 00
        E 0 80 07 00
        E 0 80 08 00
        E 0 80 09 00
        E 0 80 0a 00
        E 480 90 00 60
        E 0 90 01 60
        E 0 90 03 60
        E 0 90 02 60
        E 0 90 04 60
        E 0 90 05 60
        E 0 90 06 60
        E 0 90 07 60
        E 0 90 08 60
        E 0 90 09 60
        E 0 90 0a 60
        E 480 80 00 00
        E 0 80 01 00
        E 0 80 03 00
        E 0 80 02 00
        E 0 80 04 00
        E 0 80 05 00
        E 0 80 06 00
        E 0 80 07 00
        E 0 80 08 00
        E 0 80 09 00
        E 0 80 0a 00
        E 480 90 00 60
        E 0 90 01 60
        E 0 90 03 60
        E 0 90 02 60
        E 0 90 04 60
        E 0 90 05 60
        E 0 90 06 60
        E 0 90 07 60
        E 0 90 08 60
        E 0 90 09 60
        E 0 90 0a 60
        E 480 80 00 00
        E 0 80 01 00
        E 0 80 03 00
        E 0 80 02 00
        E 0 80 04 00
        E 0 80 05 00
        E 0 80 06 00
        E 0 80 07 00
        E 0 80 08 00
        E 0 80 09 00
        E 0 80 0a 00
        E 480 90 00 60
        E 0 90 01 60
        E 0 90 03 60
        E 0 90 02 60
        E 0 90 04 60
        E 0 90 05 60
        E 0 90 06 60
        E 0 90 07 60
        E 0 90 08 60
        E 0 90 09 60
        E 0 90 0a 60
        E 480 80 00 00
        E 0 80 01 00
        E 0 80 03 00
        E 0 80 02 00
        E 0 80 04 00
        E 0 80 05 00
        E 0 80 06 00
        E 0 80 07 00
        E 0 80 08 00
        E 0 80 09 00
        E 0 80 0a 00
        E 480 90 00 60
        E 0 90 01 60
        E 0 90 03 60
        E 0 90 02 60
        E 0 90 04 60
        E 0 90 05 60
        E 0 90 06 60
        E 0 90 07 60
        E 0 90 08 60
        E 0 90 09 60
        E 0 90 0a 60
        E 480 80 00 00
        E 0 80 01 00
        E 0 80 03 00
        E 0 80 02 00
        E 0 80 04 00
        E 0 80 05 00
        E 0 80 06 00
        E 0 80 07 00
        E 0 80 08 00
        E 0 80 09 00
        E 0 80 0a 00
        E 960 90 00 60
        E 0 90 01 60
        E 0 90 03 60
        E 0 90 02 60
        E 0 90 04 60
        E 0 90 05 60
        E 0 90 06 60
        E 0 90 07 60
        E 0 90 08 60
        E 0 90 09 60
        E 0 90 0a 60
        E 0 90 0b 60
        E 0 90 0c 60
        E 0 90 0e 60
        E 0 90 0d 60
        E 0 90 0f 60
        E 0 90 10 60
        E 0 90 11 60
        E 0 90 12 60
        E 0 90 13 60
        E 0 90 14 60
        E 0 90 15 60
        E 480 80 00 00
        E 0 80 01 00
        E 0 80 03 00
        E 0 80 02 00
        E 0 80 04 00
        E 0 80 05 00
        E 0 80 06 00
        E 0 80 07 00
        E 0 80 08 00
        E 0 80 09 00
        E 0 80 0a 00
        E 0 80 0b 00
        E 0 80 0c 00
        E 0 80 0e 00
        E 0 80 0d 00
        E 0 80 0f 00
        E 0 80 10 00
        E 0 80 11 00
        E 0 80 12 00
        E 0 80 13 00
        E 0 80 14 00
        E 0 80 15 00
        E 480 90 00 60
        E 0 90 01 60
        E 0 90 03 60
        E 0 90 02 60
        E 0 90 04 60
        E 0 90 05 60
        E 0 90 06 60
        E 0 90 07 60
        E 0 90 08 60
        E 0 90 09 60
        E 0 90 0a 60
        E 0 90 0b 60
        E 0 90 0c 60
        E 0 90 0e 60
        E 0 90 0d 60
        E 0 90 0f 60
        E 0 90 10 60
        E 0 90 11 60
        E 0 90 12 60
        E 0 90 13 60
        E 0 90 14 60
        E 0 90 15 60
        E 480 80 00 00
        E 0 80 01 00
        E 0 80 03 00
        E 0 80 02 00
        E 0 80 04 00
        E 0 80 05 00
        E 0 80 06 00
        E 0 80 07 00
        E 0 80 08 00
        E 0 80 09 00
        E 0 80 0a 00
        E 0 80 0b 00
        E 0 80 0c 00
        E 0 80 0e 00
        E 0 80 0d 00
        E 0 80 0f 00
        E 0 80 10 00
        E 0 80 11 00
        E 0 80 12 00
        E 0 80 13 00
        E 0 80 14 00
        E 0 80 15 00
        E 480 90 00 60
        E 0 90 01 60
        E 0 90 03 60
        E 0 90 02 60
        E 0 90 04 60
        E 0 90 05 60
        E 0 90 06 60
        E 0 90 07 60
        E 0 90 08 60
        E 0 90 09 60
        E 0 90 0a 60
        E 0 90 0b 60
        E 0 90 0c 60
        E 0 90 0e 60
        E 0 90 0d 60
        E 0 90 0f 60
        E 0 90 10 60
        E 0 90 11 60
        E 0 90 12 60
        E 0 90 13 60
        E 0 90 14 60
        E 0 90 15 60
        E 480 80 00 00
        E 0 80 01 00
        E 0 80 03 00
        E 0 80 02 00
        E 0 80 04 00
        E 0 80 05 00
        E 0 80 06 00
        E 0 80 07 00
        E 0 80 08 00
        E 0 80 09 00
        E 0 80 0a 00
        E 0 80 0b 00
        E 0 80 0c 00
        E 0 80 0e 00
        E 0 80 0d 00
        E 0 80 0f 00
        E 0 80 10 00
        E 0 80 11 00
        E 0 80 12 00
        E 0 80 13 00
        E 0 80 14 00
        E 0 80 15 00
        E 480 90 00 60
        E 0 90 01 60
        E 0 90 03 60
        E 0 90 02 60
        E 0 90 04 60
        E 0 90 05 60
        E 0 90 06 60
        E 0 90 07 60
        E 0 90 08 60
        E 0 90 09 60
        E 0 90 0a 60
        E 0 90 0b 60
        E 0 90 0c 60
        E 0 90 0e 60
        E 0 90 0d 60
        E 0 90 0f 60
        E 0 90 10 60
        E 0 90 11 60
        E 0 90 12 60
        E 0 90 13 60
        E 0 90 14 60
        E 0 90 15 60
        E 480 80 00 00
        E 0 80 01 00
        E 0 80 03 00
        E 0 80 02 00
        E 0 80 04 00
        E 0 80 05 00
        E 0 80 06 00
        E 0 80 07 00
        E 0 80 08 00
        E 0 80 09 00
        E 0 80 0a 00
        E 0 80 0b 00
        E 0 80 0c 00
        E 0 80 0e 00
        E 0 80 0d 00
        E 0 80 0f 00
        E 0 80 10 00
        E 0 80 11 00
        E 0 80 12 00
        E 0 80 13 00
        E 0 80 14 00
        E 0 80 15 00
        E 480 90 0b 60
        E 0 90 0c 60
        E 0 90 0e 60
        E 0 90 0d 60
        E 0 90 0f 60
        E 0 90 10 60
        E 0 90 11 60
        E 0 90 12 60
        E 0 90 13 60
        E 0 90 14 60
        E 0 90 15 60
        E 0 90 00 60
        E 0 90 01 60
        E 0 90 03 60
        E 0 90 02 60
        E 0 90 04 60
        E 0 90 05 60
        E 0 90 06 60
        E 0 90 07 60
        E 0 90 08 60
        E 0 90 09 60
        E 0 90 0a 60
        E 480 80 0b 00
        E 0 80 0c 00
        E 0 80 0e 00
        E 0 80 0d 00
        E 0 80 0f 00
        E 0 80 10 00
        E 0 80 11 00
        E 0 80 12 00
        E 0 80 13 00
        E 0 80 14 00
        E 0 80 15 00
        E 0 80 00 00
        E 0 80 01 00
        E 0 80 03 00
        E 0 80 02 00
        E 0 80 04 00
        E 0 80 05 00
        E 0 80 06 00
        E 0 80 07 00
        E 0 80 08 00
        E 0 80 09 00
        E 0 80 0a 00
        E 480 90 0b 60
        E 0 90 0c 60
        E 0 90 0e 60
        E 0 90 0d 60
        E 0 90 0f 60
        E 0 90 10 60
        E 0 90 11 60
        E 0 90 12 60
        E 0 90 13 60
        E 0 90 14 60
        E 0 90 15 60
        E 0 90 00 60
        E 0 90 01 60
        E 0 90 03 60
        E 0 90 02 60
        E 0 90 04 60
        E 0 90 05 60
        E 0 90 06 60
        E 0 90 07 60
        E 0 90 08 60
        E 0 90 09 60
        E 0 90 0a 60
        E 480 80 0b 00
        E 0 80 0c 00
        E 0 80 0e 00
        E 0 80 0d 00
        E 0 80 0f 00
        E 0 80 10 00
        E 0 80 11 00
        E 0 80 12 00
        E 0 80 13 00
        E 0 80 14 00
        E 0 80 15 00
        E 0 80 00 00
        E 0 80 01 00
        E 0 80 03 00
        E 0 80 02 00
        E 0 80 04 00
        E 0 80 05 00
        E 0 80 06 00
        E 0 80 07 00
        E 0 80 08 00
        E 0 80 09 00
        E 0 80 0a 00
        E 480 90 0b 60
        E 0 90 0c 60
        E 0 90 0e 60
        E 0 90 0d 60
        E 0 90 0f 60
        E 0 90 10 60
        E 0 90 11 60
        E 0 90 12 60
        E 0 90 13 60
        E 0 90 14 60
        E 0 90 15 60
        E 0 90 00 60
        E 0 90 01 60
        E 0 90 03 60
        E 0 90 02 60
        E 0 90 04 60
        E 0 90 05 60
        E 0 90 06 60
        E 0 90 07 60
        E 0 90 08 60
        E 0 90 09 60
        E 0 90 0a 60
        E 480 80 0b 00
        E 0 80 0c 00
        E 0 80 0e 00
        E 0 80 0d 00
        E 0 80 0f 00
        E 0 80 10 00
        E 0 80 11 00
        E 0 80 12 00
        E 0 80 13 00
        E 0 80 14 00
        E 0 80 15 00
        E 0 80 00 00
        E 0 80 01 00
        E 0 80 03 00
        E 0 80 02 00
        E 0 80 04 00
        E 0 80 05 00
        E 0 80 06 00
        E 0 80 07 00
        E 0 80 08 00
        E 0 80 09 00
        E 0 80 0a 00
        E 480 90 0b 60
        E 0 90 0c 60
        E 0 90 0e 60
        E 0 90 0d 60
        E 0 90 0f 60
        E 0 90 10 60
        E 0 90 11 60
        E 0 90 12 60
        E 0 90 13 60
        E 0 90 14 60
        E 0 90 15 60
        E 0 90 01 60
        E 0 90 03 60
        E 0 90 02 60
        E 0 90 04 60
        E 0 90 05 60
        E 0 90 06 60
        E 0 90 07 60
        E 0 90 08 60
        E 0 90 09 60
        E 0 90 0a 60
        E 0 90 00 60
        E 480 80 0b 00
        E 0 80 0c 00
        E 0 80 0e 00
        E 0 80 0d 00
        E 0 80 0f 00
        E 0 80 10 00
        E 0 80 11 00
        E 0 80 12 00
        E 0 80 13 00
        E 0 80 14 00
        E 0 80 15 00
        E 0 80 01 00
        E 0 80 03 00
        E 0 80 02 00
        E 0 80 04 00
        E 0 80 05 00
        E 0 80 06 00
        E 0 80 07 00
        E 0 80 08 00
        E 0 80 09 00
        E 0 80 0a 00
        E 0 80 00 00
        E 0 90 0b 60
        E 0 90 0c 60
        E 0 90 0e 60
        E 0 90 0d 60
        E 0 90 0f 60
        E 0 90 10 60
        E 0 90 11 60
        E 0 90 12 60
        E 0 90 13 60
        E 0 90 14 60
        E 0 90 15 60
        E 0 90 00 60
        E 0 90 01 60
        E 0 90 03 60
        E 0 90 02 60
        E 0 90 04 60
        E 0 90 05 60
        E 0 90 06 60
        E 0 90 07 60
        E 0 90 08 60
        E 0 90 09 60
        E 0 90 0a 60
        E 480 80 0b 00
        E 0 80 0c 00
        E 0 80 0e 00
        E 0 80 0d 00
        E 0 80 0f 00
        E 0 80 10 00
        E 0 80 11 00
        E 0 80 12 00
        E 0 80 13 00
        E 0 80 14 00
        E 0 80 15 00
        E 0 80 00 00
        E 0 80 01 00
        E 0 80 03 00
        E 0 80 02 00
        E 0 80 04 00
        E 0 80 05 00
        E 0 80 06 00
        E 0 80 07 00
        E 0 80 08 00
        E 0 80 09 00
        E 0 80 0a 00
        E 0 90 0b 60
        E 0 90 0c 60
        E 0 90 0e 60
        E 0 90 0d 60
        E 0 90 0f 60
        E 0 90 10 60
        E 0 90 11 60
        E 0 90 12 60
        E 0 90 13 60
        E 0 90 14 60
        E 0 90 15 60
        E 0 90 01 60
        E 0 90 03 60
        E 0 90 02 60
        E 0 90 04 60
        E 0 90 05 60
        E 0 90 06 60
        E 0 90 07 60
        E 0 90 08 60
        E 0 90 09 60
        E 0 90 0a 60
        E 0 90 00 60
        E 480 80 0b 00
        E 0 80 0c 00
        E 0 80 0e 00
        E 0 80 0d 00
        E 0 80 0f 00
        E 0 80 10 00
        E 0 80 11 00
        E 0 80 12 00
        E 0 80 13 00
        E 0 80 14 00
        E 0 80 15 00
        E 0 80 01 00
        E 0 80 03 00
        E 0 80 02 00
        E 0 80 04 00
        E 0 80 05 00
        E 0 80 06 00
        E 0 80 07 00
        E 0 80 08 00
        E 0 80 09 00
        E 0 80 0a 00
        E 0 80 00 00
        E 960 90 0b 60
        E 0 90 0c 60
        E 0 90 0e 60
        E 0 90 0d 60
        E 0 90 0f 60
        E 0 90 10 60
        E 0 90 11 60
        E 0 90 12 60
        E 0 90 13 60
        E 0 90 14 60
        E 0 90 15 60
        E 0 90 00 60
        E 0 90 01 60
        E 0 90 03 60
        E 0 90 02 60
        E 0 90 04 60
        E 0 90 05 60
        E 0 90 06 60
        E 0 90 07 60
        E 0 90 08 60
        E 0 90 09 60
        E 0 90 0a 60
        E 480 80 0b 00
        E 0 80 0c 00
        E 0 80 0e 00
        E 0 80 0d 00
        E 0 80 0f 00
        E 0 80 10 00
        E 0 80 11 00
        E 0 80 12 00
        E 0 80 13 00
        E 0 80 14 00
        E 0 80 15 00
        E 0 80 00 00
        E 0 80 01 00
        E 0 80 03 00
        E 0 80 02 00
        E 0 80 04 00
        E 0 80 05 00
        E 0 80 06 00
        E 0 80 07 00
        E 0 80 08 00
        E 0 80 09 00
        E 0 80 0a 00
        E 0 90 0b 60
        E 0 90 0c 60
        E 0 90 0e 60
        E 0 90 0d 60
        E 0 90 0f 60
        E 0 90 10 60
        E 0 90 11 60
        E 0 90 12 60
        E 0 90 13 60
        E 0 90 14 60
        E 0 90 15 60
        E 0 90 01 60
        E 0 90 03 60
        E 0 90 02 60
        E 0 90 04 60
        E 0 90 05 60
        E 0 90 06 60
        E 0 90 07 60
        E 0 90 08 60
        E 0 90 09 60
        E 0 90 0a 60
        E 0 90 00 60
        E 480 80 0b 00
        E 0 80 0c 00
        E 0 80 0e 00
        E 0 80 0d 00
        E 0 80 0f 00
        E 0 80 10 00
        E 0 80 11 00
        E 0 80 12 00
        E 0 80 13 00
        E 0 80 14 00
        E 0 80 15 00
        E 0 80 01 00
        E 0 80 03 00
        E 0 80 02 00
        E 0 80 04 00
        E 0 80 05 00
        E 0 80 06 00
        E 0 80 07 00
        E 0 80 08 00
        E 0 80 09 00
        E 0 80 0a 00
        E 0 80 00 00
        E 960 90 0b 60
        E 0 90 0c 60
        E 0 90 0e 60
        E 0 90 0d 60
        E 0 90 0f 60
        E 0 90 10 60
        E 0 90 11 60
        E 0 90 12 60
        E 0 90 13 60
        E 0 90 14 60
        E 0 90 15 60
        E 0 90 00 60
        E 0 90 01 60
        E 0 90 03 60
        E 0 90 02 60
        E 0 90 04 60
        E 0 90 05 60
        E 0 90 06 60
        E 0 90 07 60
        E 0 90 08 60
        E 0 90 09 60
        E 0 90 0a 60
        E 480 80 0b 00
        E 0 80 0c 00
        E 0 80 0e 00
        E 0 80 0d 00
        E 0 80 0f 00
        E 0 80 10 00
        E 0 80 11 00
        E 0 80 12 00
        E 0 80 13 00
        E 0 80 14 00
        E 0 80 15 00
        E 0 80 00 00
        E 0 80 01 00
        E 0 80 03 00
        E 0 80 02 00
        E 0 80 04 00
        E 0 80 05 00
        E 0 80 06 00
        E 0 80 07 00
        E 0 80 08 00
        E 0 80 09 00
        E 0 80 0a 00
        E 0 90 0b 60
        E 0 90 0c 60
        E 0 90 0e 60
        E 0 90 0d 60
        E 0 90 0f 60
        E 0 90 10 60
        E 0 90 11 60
        E 0 90 12 60
        E 0 90 13 60
        E 0 90 14 60
        E 0 90 15 60
        E 0 90 01 60
        E 0 90 03 60
        E 0 90 02 60
        E 0 90 04 60
        E 0 90 05 60
        E 0 90 06 60
        E 0 90 07 60
        E 0 90 08 60
        E 0 90 09 60
        E 0 90 0a 60
        E 0 90 00 60
        E 480 80 0b 00
        E 0 80 0c 00
        E 0 80 0e 00
        E 0 80 0d 00
        E 0 80 0f 00
        E 0 80 10 00
        E 0 80 11 00
        E 0 80 12 00
        E 0 80 13 00
        E 0 80 14 00
        E 0 80 15 00
        E 0 80 01 00
        E 0 80 03 00
        E 0 80 02 00
        E 0 80 04 00
        E 0 80 05 00
        E 0 80 06 00
        E 0 80 07 00
        E 0 80 08 00
        E 0 80 09 00
        E 0 80 0a 00
        E 0 80 00 00
        E 960 90 0b 62
        E 0 90 0c 62
        E 0 90 0e 62
        E 0 90 0d 62
        E 0 90 0f 62
        E 0 90 10 62
        E 0 90 11 62
        E 0 90 12 62
        E 0 90 13 62
        E 0 90 14 62
        E 0 90 15 62
        E 0 90 00 62
        E 0 90 01 62
        E 0 90 03 62
        E 0 90 02 62
        E 0 90 04 62
        E 0 90 05 62
        E 0 90 06 62
        E 0 90 07 62
        E 0 90 08 62
        E 0 90 09 62
        E 0 90 0a 62
        E 480 80 0b 00
        E 0 80 0c 00
        E 0 80 0e 00
        E 0 80 0d 00
        E 0 80 0f 00
        E 0 80 10 00
        E 0 80 11 00
        E 0 80 12 00
        E 0 80 13 00
        E 0 80 14 00
        E 0 80 15 00
        E 0 80 00 00
        E 0 80 01 00
        E 0 80 03 00
        E 0 80 02 00
        E 0 80 04 00
        E 0 80 05 00
        E 0 80 06 00
        E 0 80 07 00
        E 0 80 08 00
        E 0 80 09 00
        E 0 80 0a 00
        E 0 90 0b 62
        E 0 90 0c 62
        E 0 90 0e 62
        E 0 90 0d 62
        E 0 90 0f 62
        E 0 90 10 62
        E 0 90 11 62
        E 0 90 12 62
        E 0 90 13 62
        E 0 90 14 62
        E 0 90 15 62
        E 0 90 01 62
        E 0 90 03 62
        E 0 90 02 62
        E 0 90 04 62
        E 0 90 05 62
        E 0 90 06 62
        E 0 90 07 62
        E 0 90 08 62
        E 0 90 09 62
        E 0 90 0a 62
        E 0 90 00 62
        E 480 80 0b 00
        E 0 80 0c 00
        E 0 80 0e 00
        E 0 80 0d 00
        E 0 80 0f 00
        E 0 80 10 00
        E 0 80 11 00
        E 0 80 12 00
        E 0 80 13 00
        E 0 80 14 00
        E 0 80 15 00
        E 0 80 01 00
        E 0 80 03 00
        E 0 80 02 00
        E 0 80 04 00
        E 0 80 05 00
        E 0 80 06 00
        E 0 80 07 00
        E 0 80 08 00
        E 0 80 09 00
        E 0 80 0a 00
        E 0 80 00 00
        E 960 90 0b 60
        E 0 90 0c 60
        E 0 90 0e 60
        E 0 90 0d 60
        E 0 90 0f 60
        E 0 90 10 60
        E 0 90 11 60
        E 0 90 12 60
        E 0 90 13 60
        E 0 90 14 60
        E 0 90 15 60
        E 0 90 00 60
        E 0 90 01 60
        E 0 90 03 60
        E 0 90 02 60
        E 0 90 04 60
        E 0 90 05 60
        E 0 90 06 60
        E 0 90 07 60
        E 0 90 08 60
        E 0 90 09 60
        E 0 90 0a 60
        E 480 80 0b 00
        E 0 80 0c 00
        E 0 80 0e 00
        E 0 80 0d 00
        E 0 80 0f 00
        E 0 80 10 00
        E 0 80 11 00
        E 0 80 12 00
        E 0 80 13 00
        E 0 80 14 00
        E 0 80 15 00
        E 0 80 00 00
        E 0 80 01 00
        E 0 80 03 00
        E 0 80 02 00
        E 0 80 04 00
        E 0 80 05 00
        E 0 80 06 00
        E 0 80 07 00
        E 0 80 08 00
        E 0 80 09 00
        E 0 80 0a 00
        E 0 90 0b 60
        E 0 90 0c 60
        E 0 90 0e 60
        E 0 90 0d 60
        E 0 90 0f 60
        E 0 90 10 60
        E 0 90 11 60
        E 0 90 12 60
        E 0 90 13 60
        E 0 90 14 60
        E 0 90 15 60
        E 0 90 01 60
        E 0 90 03 60
        E 0 90 02 60
        E 0 90 04 60
        E 0 90 05 60
        E 0 90 06 60
        E 0 90 07 60
        E 0 90 08 60
        E 0 90 09 60
        E 0 90 0a 60
        E 0 90 00 60
        E 480 80 0b 00
        E 0 80 0c 00
        E 0 80 0e 00
        E 0 80 0d 00
        E 0 80 0f 00
        E 0 80 10 00
        E 0 80 11 00
        E 0 80 12 00
        E 0 80 13 00
        E 0 80 14 00
        E 0 80 15 00
        E 0 80 01 00
        E 0 80 03 00
        E 0 80 02 00
        E 0 80 04 00
        E 0 80 05 00
        E 0 80 06 00
        E 0 80 07 00
        E 0 80 08 00
        E 0 80 09 00
        E 0 80 0a 00
        E 0 80 00 00
        E 960 90 0b 60
        E 0 90 0c 60
        E 0 90 0e 60
        E 0 90 0d 60
        E 0 90 0f 60
        E 0 90 10 60
        E 0 90 11 60
        E 0 90 12 60
        E 0 90 13 60
        E 0 90 14 60
        E 0 90 15 60
        E 0 90 00 60
        E 0 90 01 60
        E 0 90 03 60
        E 0 90 02 60
        E 0 90 04 60
        E 0 90 05 60
        E 0 90 06 60
        E 0 90 07 60
        E 0 90 08 60
        E 0 90 09 60
        E 0 90 0a 60
        E 480 80 0b 00
        E 0 80 0c 00
        E 0 80 0e 00
        E 0 80 0d 00
        E 0 80 0f 00
        E 0 80 10 00
        E 0 80 11 00
        E 0 80 12 00
        E 0 80 13 00
        E 0 80 14 00
        E 0 80 15 00
        E 0 80 00 00
        E 0 80 01 00
        E 0 80 03 00
        E 0 80 02 00
        E 0 80 04 00
        E 0 80 05 00
        E 0 80 06 00
        E 0 80 07 00
        E 0 80 08 00
        E 0 80 09 00
        E 0 80 0a 00
        E 0 90 0b 60
        E 0 90 0c 60
        E 0 90 0e 60
        E 0 90 0d 60
        E 0 90 0f 60
        E 0 90 10 60
        E 0 90 11 60
        E 0 90 12 60
        E 0 90 13 60
        E 0 90 14 60
        E 0 90 15 60
        E 0 90 01 60
        E 0 90 03 60
        E 0 90 02 60
        E 0 90 04 60
        E 0 90 05 60
        E 0 90 06 60
        E 0 90 07 60
        E 0 90 08 60
        E 0 90 09 60
        E 0 90 0a 60
        E 0 90 00 60
        E 480 80 0b 00
        E 0 80 0c 00
        E 0 80 0e 00
        E 0 80 0d 00
        E 0 80 0f 00
        E 0 80 10 00
        E 0 80 11 00
        E 0 80 12 00
        E 0 80 13 00
        E 0 80 14 00
        E 0 80 15 00
        E 0 80 01 00
        E 0 80 03 00
        E 0 80 02 00
        E 0 80 04 00
        E 0 80 05 00
        E 0 80 06 00
        E 0 80 07 00
        E 0 80 08 00
        E 0 80 09 00
        E 0 80 0a 00
        E 0 80 00 00
        E 960 90 0b 60
        E 0 90 0c 60
        E 0 90 0e 60
        E 0 90 0d 60
        E 0 90 0f 60
        E 0 90 10 60
        E 0 90 11 60
        E 0 90 12 60
        E 0 90 13 60
        E 0 90 14 60
        E 0 90 15 60
        E 0 90 00 60
        E 0 90 01 60
        E 0 90 03 60
        E 0 90 02 60
        E 0 90 04 60
        E 0 90 05 60
        E 0 90 06 60
        E 0 90 07 60
        E 0 90 08 60
        E 0 90 09 60
        E 0 90 0a 60
        E 480 80 0b 00
        E 0 80 0c 00
        E 0 80 0e 00
        E 0 80 0d 00
        E 0 80 0f 00
        E 0 80 10 00
        E 0 80 11 00
        E 0 80 12 00
        E 0 80 13 00
        E 0 80 14 00
        E 0 80 15 00
        E 0 80 00 00
        E 0 80 01 00
        E 0 80 03 00
        E 0 80 02 00
        E 0 80 04 00
        E 0 80 05 00
        E 0 80 06 00
        E 0 80 07 00
        E 0 80 08 00
        E 0 80 09 00
        E 0 80 0a 00
        E 0 90 0b 60
        E 0 90 0c 60
        E 0 90 0e 60
        E 0 90 0d 60
        E 0 90 0f 60
        E 0 90 10 60
        E 0 90 11 60
        E 0 90 12 60
        E 0 90 13 60
        E 0 90 14 60
        E 0 90 15 60
        E 0 90 01 60
        E 0 90 03 60
        E 0 90 02 60
        E 0 90 04 60
        E 0 90 05 60
        E 0 90 06 60
        E 0 90 07 60
        E 0 90 08 60
        E 0 90 09 60
        E 0 90 0a 60
        E 0 90 00 60
        E 480 80 0b 00
        E 0 80 0c 00
        E 0 80 0e 00
        E 0 80 0d 00
        E 0 80 0f 00
        E 0 80 10 00
        E 0 80 11 00
        E 0 80 12 00
        E 0 80 13 00
        E 0 80 14 00
        E 0 80 15 00
        E 0 80 01 00
        E 0 80 03 00
        E 0 80 02 00
        E 0 80 04 00
        E 0 80 05 00
        E 0 80 06 00
        E 0 80 07 00
        E 0 80 08 00
        E 0 80 09 00
        E 0 80 0a 00
        E 0 80 00 00
        E 960 90 0b 62
        E 0 90 0c 62
        E 0 90 0e 62
        E 0 90 0d 62
        E 0 90 0f 62
        E 0 90 10 62
        E 0 90 11 62
        E 0 90 12 62
        E 0 90 13 62
        E 0 90 14 62
        E 0 90 15 62
        E 0 90 00 62
        E 0 90 01 62
        E 0 90 03 62
        E 0 90 02 62
        E 0 90 04 62
        E 0 90 05 62
        E 0 90 06 62
        E 0 90 07 62
        E 0 90 08 62
        E 0 90 09 62
        E 0 90 0a 62
        E 480 80 0b 00
        E 0 80 0c 00
        E 0 80 0e 00
        E 0 80 0d 00
        E 0 80 0f 00
        E 0 80 10 00
        E 0 80 11 00
        E 0 80 12 00
        E 0 80 13 00
        E 0 80 14 00
        E 0 80 15 00
        E 0 80 00 00
        E 0 80 01 00
        E 0 80 03 00
        E 0 80 02 00
        E 0 80 04 00
        E 0 80 05 00
        E 0 80 06 00
        E 0 80 07 00
        E 0 80 08 00
        E 0 80 09 00
        E 0 80 0a 00
        E 0 90 0b 62
        E 0 90 0c 62
        E 0 90 0e 62
        E 0 90 0d 62
        E 0 90 0f 62
        E 0 90 10 62
        E 0 90 11 62
        E 0 90 12 62
        E 0 90 13 62
        E 0 90 14 62
        E 0 90 15 62
        E 0 90 01 62
        E 0 90 03 62
        E 0 90 02 62
        E 0 90 04 62
        E 0 90 05 62
        E 0 90 06 62
        E 0 90 07 62
        E 0 90 08 62
        E 0 90 09 62
        E 0 90 0a 62
        E 0 90 00 62
        E 480 80 0b 00
        E 0 80 0c 00
        E 0 80 0e 00
        E 0 80 0d 00
        E 0 80 0f 00
        E 0 80 10 00
        E 0 80 11 00
        E 0 80 12 00
        E 0 80 13 00
        E 0 80 14 00
        E 0 80 15 00
        E 0 80 01 00
        E 0 80 03 00
        E 0 80 02 00
        E 0 80 04 00
        E 0 80 05 00
        E 0 80 06 00
        E 0 80 07 00
        E 0 80 08 00
        E 0 80 09 00
        E 0 80 0a 00
        E 0 80 00 00
        E 3360 90 0b 62
        E 0 90 0c 62
        E 0 90 0e 62
        E 0 90 0d 62
        E 0 90 0f 62
        E 0 90 10 62
        E 0 90 11 62
        E 0 90 12 62
        E 0 90 13 62
        E 0 90 14 62
        E 0 90 15 62
        E 0 90 01 62
        E 0 90 03 62
        E 0 90 02 62
        E 0 90 04 62
        E 0 90 05 62
        E 0 90 06 62
        E 0 90 07 62
        E 0 90 08 62
        E 0 90 09 62
        E 0 90 0a 62
        E 0 90 00 62
        E 480 80 0b 00
        E 0 80 0c 00
        E 0 80 0e 00
        E 0 80 0d 00
        E 0 80 0f 00
        E 0 80 10 00
        E 0 80 11 00
        E 0 80 12 00
        E 0 80 13 00
        E 0 80 14 00
        E 0 80 15 00
        E 0 80 01 00
        E 0 80 03 00
        E 0 80 02 00
        E 0 80 04 00
        E 0 80 05 00
        E 0 80 06 00
        E 0 80 07 00
        E 0 80 08 00
        E 0 80 09 00
        E 0 80 0a 00
        E 0 80 00 00
        E 480 90 0b 62
        E 0 90 0c 62
        E 0 90 0e 62
        E 0 90 0d 62
        E 0 90 0f 62
        E 0 90 10 62
        E 0 90 11 62
        E 0 90 12 62
        E 0 90 13 62
        E 0 90 14 62
        E 0 90 15 62
        E 0 90 01 62
        E 0 90 03 62
        E 0 90 02 62
        E 0 90 04 62
        E 0 90 05 62
        E 0 90 06 62
        E 0 90 07 62
        E 0 90 08 62
        E 0 90 09 62
        E 0 90 0a 62
        E 0 90 00 62
        E 480 80 0b 00
        E 0 80 0c 00
        E 0 80 0e 00
        E 0 80 0d 00
        E 0 80 0f 00
        E 0 80 10 00
        E 0 80 11 00
        E 0 80 12 00
        E 0 80 13 00
        E 0 80 14 00
        E 0 80 15 00
        E 0 80 01 00
        E 0 80 03 00
        E 0 80 02 00
        E 0 80 04 00
        E 0 80 05 00
        E 0 80 06 00
        E 0 80 07 00
        E 0 80 08 00
        E 0 80 09 00
        E 0 80 0a 00
        E 0 80 00 00
        E 2400 90 0b 62
        E 0 90 0c 62
        E 0 90 0e 62
        E 0 90 0d 62
        E 0 90 0f 62
        E 0 90 10 62
        E 0 90 11 62
        E 0 90 12 62
        E 0 90 13 62
        E 0 90 14 62
        E 0 90 15 62
        E 0 90 01 62
        E 0 90 03 62
        E 0 90 02 62
        E 0 90 04 62
        E 0 90 05 62
        E 0 90 06 62
        E 0 90 07 62
        E 0 90 08 62
        E 0 90 09 62
        E 0 90 0a 62
        E 0 90 00 62
        E 480 80 0b 00
        E 0 80 0c 00
        E 0 80 0e 00
        E 0 80 0d 00
        E 0 80 0f 00
        E 0 80 10 00
        E 0 80 11 00
        E 0 80 12 00
        E 0 80 13 00
        E 0 80 14 00
        E 0 80 15 00
        E 0 80 01 00
        E 0 80 03 00
        E 0 80 02 00
        E 0 80 04 00
        E 0 80 05 00
        E 0 80 06 00
        E 0 80 07 00
        E 0 80 08 00
        E 0 80 09 00
        E 0 80 0a 00
        E 0 80 00 00
        E 480 90 0b 62
        E 0 90 0c 62
        E 0 90 0e 62
        E 0 90 0d 62
        E 0 90 0f 62
        E 0 90 10 62
        E 0 90 11 62
        E 0 90 12 62
        E 0 90 13 62
        E 0 90 14 62
        E 0 90 15 62
        E 0 90 01 62
        E 0 90 03 62
        E 0 90 02 62
        E 0 90 04 62
        E 0 90 05 62
        E 0 90 06 62
        E 0 90 07 62
        E 0 90 08 62
        E 0 90 09 62
        E 0 90 0a 62
        E 0 90 00 62
        E 480 80 0b 00
        E 0 80 0c 00
        E 0 80 0e 00
        E 0 80 0d 00
        E 0 80 0f 00
        E 0 80 10 00
        E 0 80 11 00
        E 0 80 12 00
        E 0 80 13 00
        E 0 80 14 00
        E 0 80 15 00
        E 0 80 01 00
        E 0 80 03 00
        E 0 80 02 00
        E 0 80 04 00
        E 0 80 05 00
        E 0 80 06 00
        E 0 80 07 00
        E 0 80 08 00
        E 0 80 09 00
        E 0 80 0a 00
        E 0 80 00 00
        E 0 90 0b 62
        E 0 90 0c 62
        E 0 90 0e 62
        E 0 90 0d 62
        E 0 90 0f 62
        E 0 90 10 62
        E 0 90 11 62
        E 0 90 12 62
        E 0 90 13 62
        E 0 90 14 62
        E 0 90 15 62
        E 0 90 01 62
        E 0 90 03 62
        E 0 90 02 62
        E 0 90 04 62
        E 0 90 05 62
        E 0 90 06 62
        E 0 90 07 62
        E 0 90 08 62
        E 0 90 09 62
        E 0 90 0a 62
        E 0 90 00 62
        E 480 80 0b 00
        E 0 80 0c 00
        E 0 80 0e 00
        E 0 80 0d 00
        E 0 80 0f 00
        E 0 80 10 00
        E 0 80 11 00
        E 0 80 12 00
        E 0 80 13 00
        E 0 80 14 00
        E 0 80 15 00
        E 0 80 01 00
        E 0 80 03 00
        E 0 80 02 00
        E 0 80 04 00
        E 0 80 05 00
        E 0 80 06 00
        E 0 80 07 00
        E 0 80 08 00
        E 0 80 09 00
        E 0 80 0a 00
        E 0 80 00 00
        E 480 90 0b 62
        E 0 90 0c 62
        E 0 90 0e 62
        E 0 90 0d 62
        E 0 90 0f 62
        E 0 90 10 62
        E 0 90 11 62
        E 0 90 12 62
        E 0 90 13 62
        E 0 90 14 62
        E 0 90 15 62
        E 0 90 01 62
        E 0 90 03 62
        E 0 90 02 62
        E 0 90 04 62
        E 0 90 05 62
        E 0 90 06 62
        E 0 90 07 62
        E 0 90 08 62
        E 0 90 09 62
        E 0 90 0a 62
        E 0 90 00 62
        E 480 80 0b 00
        E 0 80 0c 00
        E 0 80 0e 00
        E 0 80 0d 00
        E 0 80 0f 00
        E 0 80 10 00
        E 0 80 11 00
        E 0 80 12 00
        E 0 80 13 00
        E 0 80 14 00
        E 0 80 15 00
        E 0 80 01 00
        E 0 80 03 00
        E 0 80 02 00
        E 0 80 04 00
        E 0 80 05 00
        E 0 80 06 00
        E 0 80 07 00
        E 0 80 08 00
        E 0 80 09 00
        E 0 80 0a 00
        E 0 80 00 00
        E 480 90 0b 62
        E 0 90 0c 62
        E 0 90 0e 62
        E 0 90 0d 62
        E 0 90 0f 62
        E 0 90 10 62
        E 0 90 11 62
        E 0 90 12 62
        E 0 90 13 62
        E 0 90 14 62
        E 0 90 15 62
        E 0 90 01 62
        E 0 90 03 62
        E 0 90 02 62
        E 0 90 04 62
        E 0 90 05 62
        E 0 90 06 62
        E 0 90 07 62
        E 0 90 08 62
        E 0 90 09 62
        E 0 90 0a 62
        E 0 90 00 62
        E 480 80 0b 00
        E 0 80 0c 00
        E 0 80 0e 00
        E 0 80 0d 00
        E 0 80 0f 00
        E 0 80 10 00
        E 0 80 11 00
        E 0 80 12 00
        E 0 80 13 00
        E 0 80 14 00
        E 0 80 15 00
        E 0 80 01 00
        E 0 80 03 00
        E 0 80 02 00
        E 0 80 04 00
        E 0 80 05 00
        E 0 80 06 00
        E 0 80 07 00
        E 0 80 08 00
        E 0 80 09 00
        E 0 80 0a 00
        E 0 80 00 00
        E 480 90 0b 62
        E 0 90 0c 62
        E 0 90 0e 62
        E 0 90 0d 62
        E 0 90 0f 62
        E 0 90 10 62
        E 0 90 11 62
        E 0 90 12 62
        E 0 90 13 62
        E 0 90 14 62
        E 0 90 15 62
        E 0 90 01 62
        E 0 90 03 62
        E 0 90 02 62
        E 0 90 04 62
        E 0 90 05 62
        E 0 90 06 62
        E 0 90 07 62
        E 0 90 08 62
        E 0 90 09 62
        E 0 90 0a 62
        E 0 90 00 62
        E 480 80 0b 00
        E 0 80 0c 00
        E 0 80 0e 00
        E 0 80 0d 00
        E 0 80 0f 00
        E 0 80 10 00
        E 0 80 11 00
        E 0 80 12 00
        E 0 80 13 00
        E 0 80 14 00
        E 0 80 15 00
        E 0 80 01 00
        E 0 80 03 00
        E 0 80 02 00
        E 0 80 04 00
        E 0 80 05 00
        E 0 80 06 00
        E 0 80 07 00
        E 0 80 08 00
        E 0 80 09 00
        E 0 80 0a 00
        E 0 80 00 00
        E 480 90 0b 62
        E 0 90 0c 62
        E 0 90 0e 62
        E 0 90 0d 62
        E 0 90 0f 62
        E 0 90 10 62
        E 0 90 11 62
        E 0 90 12 62
        E 0 90 13 62
        E 0 90 14 62
        E 0 90 15 62
        E 0 90 01 62
        E 0 90 03 62
        E 0 90 02 62
        E 0 90 04 62
        E 0 90 05 62
        E 0 90 06 62
        E 0 90 07 62
        E 0 90 08 62
        E 0 90 09 62
        E 0 90 0a 62
        E 0 90 00 62
        E 480 80 0b 00
        E 0 80 0c 00
        E 0 80 0e 00
        E 0 80 0d 00
        E 0 80 0f 00
        E 0 80 10 00
        E 0 80 11 00
        E 0 80 12 00
        E 0 80 13 00
        E 0 80 14 00
        E 0 80 15 00
        E 0 80 01 00
        E 0 80 03 00
        E 0 80 02 00
        E 0 80 04 00
        E 0 80 05 00
        E 0 80 06 00
        E 0 80 07 00
        E 0 80 08 00
        E 0 80 09 00
        E 0 80 0a 00
        E 0 80 00 00
        E 480 90 0b 62
        E 0 90 0c 62
        E 0 90 0e 62
        E 0 90 0d 62
        E 0 90 0f 62
        E 0 90 10 62
        E 0 90 11 62
        E 0 90 12 62
        E 0 90 13 62
        E 0 90 14 62
        E 0 90 15 62
        E 0 90 01 62
        E 0 90 03 62
        E 0 90 02 62
        E 0 90 04 62
        E 0 90 05 62
        E 0 90 06 62
        E 0 90 07 62
        E 0 90 08 62
        E 0 90 09 62
        E 0 90 0a 62
        E 0 90 00 62
        E 480 80 0b 00
        E 0 80 0c 00
        E 0 80 0e 00
        E 0 80 0d 00
        E 0 80 0f 00
        E 0 80 10 00
        E 0 80 11 00
        E 0 80 12 00
        E 0 80 13 00
        E 0 80 14 00
        E 0 80 15 00
        E 0 80 01 00
        E 0 80 03 00
        E 0 80 02 00
        E 0 80 04 00
        E 0 80 05 00
        E 0 80 06 00
        E 0 80 07 00
        E 0 80 08 00
        E 0 80 09 00
        E 0 80 0a 00
        E 0 80 00 00
        E 480 90 0b 62
        E 0 90 0c 62
        E 0 90 0e 62
        E 0 90 0d 62
        E 0 90 0f 62
        E 0 90 10 62
        E 0 90 11 62
        E 0 90 12 62
        E 0 90 13 62
        E 0 90 14 62
        E 0 90 15 62
        E 0 90 01 62
        E 0 90 03 62
        E 0 90 02 62
        E 0 90 04 62
        E 0 90 05 62
        E 0 90 06 62
        E 0 90 07 62
        E 0 90 08 62
        E 0 90 09 62
        E 0 90 0a 62
        E 0 90 00 62
        E 480 80 0b 00
        E 0 80 0c 00
        E 0 80 0e 00
        E 0 80 0d 00
        E 0 80 0f 00
        E 0 80 10 00
        E 0 80 11 00
        E 0 80 12 00
        E 0 80 13 00
        E 0 80 14 00
        E 0 80 15 00
        E 0 80 01 00
        E 0 80 03 00
        E 0 80 02 00
        E 0 80 04 00
        E 0 80 05 00
        E 0 80 06 00
        E 0 80 07 00
        E 0 80 08 00
        E 0 80 09 00
        E 0 80 0a 00
        E 0 80 00 00
        E 480 90 0b 62
        E 0 90 0c 62
        E 0 90 0e 62
        E 0 90 0d 62
        E 0 90 0f 62
        E 0 90 10 62
        E 0 90 11 62
        E 0 90 12 62
        E 0 90 13 62
        E 0 90 14 62
        E 0 90 15 62
        E 0 90 01 62
        E 0 90 03 62
        E 0 90 02 62
        E 0 90 04 62
        E 0 90 05 62
        E 0 90 06 62
        E 0 90 07 62
        E 0 90 08 62
        E 0 90 09 62
        E 0 90 0a 62
        E 0 90 00 62
        E 480 80 0b 00
        E 0 80 0c 00
        E 0 80 0e 00
        E 0 80 0d 00
        E 0 80 0f 00
        E 0 80 10 00
        E 0 80 11 00
        E 0 80 12 00
        E 0 80 13 00
        E 0 80 14 00
        E 0 80 15 00
        E 0 80 01 00
        E 0 80 03 00
        E 0 80 02 00
        E 0 80 04 00
        E 0 80 05 00
        E 0 80 06 00
        E 0 80 07 00
        E 0 80 08 00
        E 0 80 09 00
        E 0 80 0a 00
        E 0 80 00 00
        E 480 90 0b 62
        E 0 90 0c 62
        E 0 90 0e 62
        E 0 90 0d 62
        E 0 90 0f 62
        E 0 90 10 62
        E 0 90 11 62
        E 0 90 12 62
        E 0 90 13 62
        E 0 90 14 62
        E 0 90 15 62
        E 0 90 01 62
        E 0 90 03 62
        E 0 90 02 62
        E 0 90 04 62
        E 0 90 05 62
        E 0 90 06 62
        E 0 90 07 62
        E 0 90 08 62
        E 0 90 09 62
        E 0 90 0a 62
        E 0 90 00 62
        E 480 80 0b 00
        E 0 80 0c 00
        E 0 80 0e 00
        E 0 80 0d 00
        E 0 80 0f 00
        E 0 80 10 00
        E 0 80 11 00
        E 0 80 12 00
        E 0 80 13 00
        E 0 80 14 00
        E 0 80 15 00
        E 0 80 01 00
        E 0 80 03 00
        E 0 80 02 00
        E 0 80 04 00
        E 0 80 05 00
        E 0 80 06 00
        E 0 80 07 00
        E 0 80 08 00
        E 0 80 09 00
        E 0 80 0a 00
        E 0 80 00 00
        E 1440 90 0b 62
        E 0 90 0c 62
        E 0 90 0e 62
        E 0 90 0d 62
        E 0 90 0f 62
        E 0 90 10 62
        E 0 90 11 62
        E 0 90 12 62
        E 0 90 13 62
        E 0 90 14 62
        E 0 90 15 62
        E 0 90 01 62
        E 0 90 03 62
        E 0 90 02 62
        E 0 90 04 62
        E 0 90 05 62
        E 0 90 06 62
        E 0 90 07 62
        E 0 90 08 62
        E 0 90 09 62
        E 0 90 0a 62
        E 0 90 00 62
        E 480 80 0b 00
        E 0 80 0c 00
        E 0 80 0e 00
        E 0 80 0d 00
        E 0 80 0f 00
        E 0 80 10 00
        E 0 80 11 00
        E 0 80 12 00
        E 0 80 13 00
        E 0 80 14 00
        E 0 80 15 00
        E 0 80 01 00
        E 0 80 03 00
        E 0 80 02 00
        E 0 80 04 00
        E 0 80 05 00
        E 0 80 06 00
        E 0 80 07 00
        E 0 80 08 00
        E 0 80 09 00
        E 0 80 0a 00
        E 0 80 00 00
        E 1440 90 0b 62
        E 0 90 0c 62
        E 0 90 0e 62
        E 0 90 0d 62
        E 0 90 0f 62
        E 0 90 10 62
        E 0 90 11 62
        E 0 90 12 62
        E 0 90 13 62
        E 0 90 14 62
        E 0 90 15 62
        E 0 90 01 62
        E 0 90 03 62
        E 0 90 02 62
        E 0 90 04 62
        E 0 90 05 62
        E 0 90 06 62
        E 0 90 07 62
        E 0 90 08 62
        E 0 90 09 62
        E 0 90 0a 62
        E 0 90 00 62
        E 480 80 0b 00
        E 0 80 0c 00
        E 0 80 0e 00
        E 0 80 0d 00
        E 0 80 0f 00
        E 0 80 10 00
        E 0 80 11 00
        E 0 80 12 00
        E 0 80 13 00
        E 0 80 14 00
        E 0 80 15 00
        E 0 80 01 00
        E 0 80 03 00
        E 0 80 02 00
        E 0 80 04 00
        E 0 80 05 00
        E 0 80 06 00
        E 0 80 07 00
        E 0 80 08 00
        E 0 80 09 00
        E 0 80 0a 00
        E 0 80 00 00
        E 1440 90 0b 62
        E 0 90 0c 62
        E 0 90 0e 62
        E 0 90 0d 62
        E 0 90 0f 62
        E 0 90 10 62
        E 0 90 11 62
        E 0 90 12 62
        E 0 90 13 62
        E 0 90 14 62
        E 0 90 15 62
        E 0 90 01 62
        E 0 90 03 62
        E 0 90 02 62
        E 0 90 04 62
        E 0 90 05 62
        E 0 90 06 62
        E 0 90 07 62
        E 0 90 08 62
        E 0 90 09 62
        E 0 90 0a 62
        E 0 90 00 62
        E 480 80 0b 00
        E 0 80 0c 00
        E 0 80 0e 00
        E 0 80 0d 00
        E 0 80 0f 00
        E 0 80 10 00
        E 0 80 11 00
        E 0 80 12 00
        E 0 80 13 00
        E 0 80 14 00
        E 0 80 15 00
        E 0 80 01 00
        E 0 80 03 00
        E 0 80 02 00
        E 0 80 04 00
        E 0 80 05 00
        E 0 80 06 00
        E 0 80 07 00
        E 0 80 08 00
        E 0 80 09 00
        E 0 80 0a 00
        E 0 80 00 00
        E 1440 90 0b 62
        E 0 90 0c 62
        E 0 90 0e 62
        E 0 90 0d 62
        E 0 90 0f 62
        E 0 90 10 62
        E 0 90 11 62
        E 0 90 12 62
        E 0 90 13 62
        E 0 90 14 62
        E 0 90 15 62
        E 0 90 01 62
        E 0 90 03 62
        E 0 90 02 62
        E 0 90 04 62
        E 0 90 05 62
        E 0 90 06 62
        E 0 90 07 62
        E 0 90 08 62
        E 0 90 09 62
        E 0 90 0a 62
        E 0 90 00 62
        E 480 80 0b 00
        E 0 80 0c 00
        E 0 80 0e 00
        E 0 80 0d 00
        E 0 80 0f 00
        E 0 80 10 00
        E 0 80 11 00
        E 0 80 12 00
        E 0 80 13 00
        E 0 80 14 00
        E 0 80 15 00
        E 0 80 01 00
        E 0 80 03 00
        E 0 80 02 00
        E 0 80 04 00
        E 0 80 05 00
        E 0 80 06 00
        E 0 80 07 00
        E 0 80 08 00
        E 0 80 09 00
        E 0 80 0a 00
        E 0 80 00 00
        E 1440 90 0b 62
        E 0 90 0c 62
        E 0 90 0e 62
        E 0 90 0d 62
        E 0 90 0f 62
        E 0 90 10 62
        E 0 90 11 62
        E 0 90 12 62
        E 0 90 13 62
        E 0 90 14 62
        E 0 90 15 62
        E 0 90 01 62
        E 0 90 03 62
        E 0 90 02 62
        E 0 90 04 62
        E 0 90 05 62
        E 0 90 06 62
        E 0 90 07 62
        E 0 90 08 62
        E 0 90 09 62
        E 0 90 0a 62
        E 0 90 00 62
        E 480 80 0b 00
        E 0 80 0c 00
        E 0 80 0e 00
        E 0 80 0d 00
        E 0 80 0f 00
        E 0 80 10 00
        E 0 80 11 00
        E 0 80 12 00
        E 0 80 13 00
        E 0 80 14 00
        E 0 80 15 00
        E 0 80 01 00
        E 0 80 03 00
        E 0 80 02 00
        E 0 80 04 00
        E 0 80 05 00
        E 0 80 06 00
        E 0 80 07 00
        E 0 80 08 00
        E 0 80 09 00
        E 0 80 0a 00
        E 0 80 00 00
        E 1440 90 0b 62
        E 0 90 0c 62
        E 0 90 0e 62
        E 0 90 0d 62
        E 0 90 0f 62
        E 0 90 10 62
        E 0 90 11 62
        E 0 90 12 62
        E 0 90 13 62
        E 0 90 14 62
        E 0 90 15 62
        E 0 90 01 62
        E 0 90 03 62
        E 0 90 02 62
        E 0 90 04 62
        E 0 90 05 62
        E 0 90 06 62
        E 0 90 07 62
        E 0 90 08 62
        E 0 90 09 62
        E 0 90 0a 62
        E 0 90 00 62
        E 480 80 0b 00
        E 0 80 0c 00
        E 0 80 0e 00
        E 0 80 0d 00
        E 0 80 0f 00
        E 0 80 10 00
        E 0 80 11 00
        E 0 80 12 00
        E 0 80 13 00
        E 0 80 14 00
        E 0 80 15 00
        E 0 80 01 00
        E 0 80 03 00
        E 0 80 02 00
        E 0 80 04 00
        E 0 80 05 00
        E 0 80 06 00
        E 0 80 07 00
        E 0 80 08 00
        E 0 80 09 00
        E 0 80 0a 00
        E 0 80 00 00
        E 1440 90 0b 62
        E 0 90 0c 62
        E 0 90 0e 62
        E 0 90 0d 62
        E 0 90 0f 62
        E 0 90 10 62
        E 0 90 11 62
        E 0 90 12 62
        E 0 90 13 62
        E 0 90 14 62
        E 0 90 15 62
        E 0 90 01 62
        E 0 90 03 62
        E 0 90 02 62
        E 0 90 04 62
        E 0 90 05 62
        E 0 90 06 62
        E 0 90 07 62
        E 0 90 08 62
        E 0 90 09 62
        E 0 90 0a 62
        E 0 90 00 62
        E 480 80 0b 00
        E 0 80 0c 00
        E 0 80 0e 00
        E 0 80 0d 00
        E 0 80 0f 00
        E 0 80 10 00
        E 0 80 11 00
        E 0 80 12 00
        E 0 80 13 00
        E 0 80 14 00
        E 0 80 15 00
        E 0 80 01 00
        E 0 80 03 00
        E 0 80 02 00
        E 0 80 04 00
        E 0 80 05 00
        E 0 80 06 00
        E 0 80 07 00
        E 0 80 08 00
        E 0 80 09 00
        E 0 80 0a 00
        E 0 80 00 00
        E 1440 90 0b 62
        E 0 90 0c 62
        E 0 90 0e 62
        E 0 90 0d 62
        E 0 90 0f 62
        E 0 90 10 62
        E 0 90 11 62
        E 0 90 12 62
        E 0 90 13 62
        E 0 90 14 62
        E 0 90 15 62
        E 0 90 01 62
        E 0 90 03 62
        E 0 90 02 62
        E 0 90 04 62
        E 0 90 05 62
        E 0 90 06 62
        E 0 90 07 62
        E 0 90 08 62
        E 0 90 09 62
        E 0 90 0a 62
        E 0 90 00 62
        E 480 80 0b 00
        E 0 80 0c 00
        E 0 80 0e 00
        E 0 80 0d 00
        E 0 80 0f 00
        E 0 80 10 00
        E 0 80 11 00
        E 0 80 12 00
        E 0 80 13 00
        E 0 80 14 00
        E 0 80 15 00
        E 0 80 01 00
        E 0 80 03 00
        E 0 80 02 00
        E 0 80 04 00
        E 0 80 05 00
        E 0 80 06 00
        E 0 80 07 00
        E 0 80 08 00
        E 0 80 09 00
        E 0 80 0a 00
        E 0 80 00 00
        E 1440 90 0b 62
        E 0 90 0c 62
        E 0 90 0e 62
        E 0 90 0d 62
        E 0 90 0f 62
        E 0 90 10 62
        E 0 90 11 62
        E 0 90 12 62
        E 0 90 13 62
        E 0 90 14 62
        E 0 90 15 62
        E 0 90 01 62
        E 0 90 03 62
        E 0 90 02 62
        E 0 90 04 62
        E 0 90 05 62
        E 0 90 06 62
        E 0 90 07 62
        E 0 90 08 62
        E 0 90 09 62
        E 0 90 0a 62
        E 0 90 00 62
        E 480 80 0b 00
        E 0 80 0c 00
        E 0 80 0e 00
        E 0 80 0d 00
        E 0 80 0f 00
        E 0 80 10 00
        E 0 80 11 00
        E 0 80 12 00
        E 0 80 13 00
        E 0 80 14 00
        E 0 80 15 00
        E 0 80 01 00
        E 0 80 03 00
        E 0 80 02 00
        E 0 80 04 00
        E 0 80 05 00
        E 0 80 06 00
        E 0 80 07 00
        E 0 80 08 00
        E 0 80 09 00
        E 0 80 0a 00
        E 0 80 00 00
        E 1440 90 0b 62
        E 0 90 0c 62
        E 0 90 0e 62
        E 0 90 0d 62
        E 0 90 0f 62
        E 0 90 10 62
        E 0 90 11 62
        E 0 90 12 62
        E 0 90 13 62
        E 0 90 14 62
        E 0 90 15 62
        E 0 90 01 62
        E 0 90 03 62
        E 0 90 02 62
        E 0 90 04 62
        E 0 90 05 62
        E 0 90 06 62
        E 0 90 07 62
        E 0 90 08 62
        E 0 90 09 62
        E 0 90 0a 62
        E 0 90 00 62
        E 480 80 0b 00
        E 0 80 0c 00
        E 0 80 0e 00
        E 0 80 0d 00
        E 0 80 0f 00
        E 0 80 10 00
        E 0 80 11 00
        E 0 80 12 00
        E 0 80 13 00
        E 0 80 14 00
        E 0 80 15 00
        E 0 80 01 00
        E 0 80 03 00
        E 0 80 02 00
        E 0 80 04 00
        E 0 80 05 00
        E 0 80 06 00
        E 0 80 07 00
        E 0 80 08 00
        E 0 80 09 00
        E 0 80 0a 00
        E 0 80 00 00
        E 1440 90 0b 62
        E 0 90 0c 62
        E 0 90 0e 62
        E 0 90 0d 62
        E 0 90 0f 62
        E 0 90 10 62
        E 0 90 11 62
        E 0 90 12 62
        E 0 90 13 62
        E 0 90 14 62
        E 0 90 15 62
        E 0 90 01 62
        E 0 90 03 62
        E 0 90 02 62
        E 0 90 04 62
        E 0 90 05 62
        E 0 90 06 62
        E 0 90 07 62
        E 0 90 08 62
        E 0 90 09 62
        E 0 90 0a 62
        E 0 90 00 62
        E 480 80 0b 00
        E 0 80 0c 00
        E 0 80 0e 00
        E 0 80 0d 00
        E 0 80 0f 00
        E 0 80 10 00
        E 0 80 11 00
        E 0 80 12 00
        E 0 80 13 00
        E 0 80 14 00
        E 0 80 15 00
        E 0 80 01 00
        E 0 80 03 00
        E 0 80 02 00
        E 0 80 04 00
        E 0 80 05 00
        E 0 80 06 00
        E 0 80 07 00
        E 0 80 08 00
        E 0 80 09 00
        E 0 80 0a 00
        E 0 80 00 00
        E 1920 90 15 62
        E 0 90 14 62
        E 0 90 13 62
        E 0 90 12 62
        E 0 90 11 62
        E 0 90 10 62
        E 0 90 0f 62
        E 0 90 0e 62
        E 0 90 0d 62
        E 0 90 0c 62
        E 0 90 0b 62
        E 0 90 0a 62
        E 0 90 09 62
        E 0 90 08 62
        E 0 90 07 62
        E 0 90 06 62
        E 0 90 05 62
        E 0 90 04 62
        E 0 90 03 62
        E 0 90 02 62
        E 0 90 01 62
        E 0 90 00 62
        E 1440 80 15 00
        E 0 80 14 00
        E 0 80 13 00
        E 0 80 12 00
        E 0 80 11 00
        E 0 80 10 00
        E 0 80 0f 00
        E 0 80 0e 00
        E 0 80 0d 00
        E 0 80 0c 00
        E 0 80 0b 00
        E 0 80 0a 00
        E 0 80 09 00
        E 0 80 08 00
        E 0 80 07 00
        E 0 80 06 00
        E 0 80 05 00
        E 0 80 04 00
        E 0 80 03 00
        E 0 80 02 00
        E 0 80 01 00
        E 0 80 00 00
        E 480 90 15 62
        E 0 90 14 62
        E 0 90 13 62
        E 0 90 12 62
        E 0 90 11 62
        E 0 90 10 62
        E 0 90 0f 62
        E 0 90 0e 62
        E 0 90 0d 62
        E 0 90 0c 62
        E 0 90 0b 62
        E 0 90 0a 62
        E 0 90 09 62
        E 0 90 08 62
        E 0 90 07 62
        E 0 90 06 62
        E 0 90 05 62
        E 0 90 04 62
        E 0 90 03 62
        E 0 90 02 62
        E 0 90 01 62
        E 0 90 00 62
        E 1440 80 15 00
        E 0 80 14 00
        E 0 80 13 00
        E 0 80 12 00
        E 0 80 11 00
        E 0 80 10 00
        E 0 80 0f 00
        E 0 80 0e 00
        E 0 80 0d 00
        E 0 80 0c 00
        E 0 80 0b 00
        E 0 80 0a 00
        E 0 80 09 00
        E 0 80 08 00
        E 0 80 07 00
        E 0 80 06 00
        E 0 80 05 00
        E 0 80 04 00
        E 0 80 03 00
        E 0 80 02 00
        E 0 80 01 00
        E 0 80 00 00
        E 480 90 15 62
        E 0 90 14 62
        E 0 90 13 62
        E 0 90 12 62
        E 0 90 11 62
        E 0 90 10 62
        E 0 90 0f 62
        E 0 90 0e 62
        E 0 90 0d 62
        E 0 90 0c 62
        E 0 90 0b 62
        E 0 90 0a 62
        E 0 90 09 62
        E 0 90 08 62
        E 0 90 07 62
        E 0 90 06 62
        E 0 90 05 62
        E 0 90 04 62
        E 0 90 03 62
        E 0 90 02 62
        E 0 90 01 62
        E 0 90 00 62
        E 1440 80 15 00
        E 0 80 14 00
        E 0 80 13 00
        E 0 80 12 00
        E 0 80 11 00
        E 0 80 10 00
        E 0 80 0f 00
        E 0 80 0e 00
        E 0 80 0d 00
        E 0 80 0c 00
        E 0 80 0b 00
        E 0 80 0a 00
        E 0 80 09 00
        E 0 80 08 00
        E 0 80 07 00
        E 0 80 06 00
        E 0 80 05 00
        E 0 80 04 00
        E 0 80 03 00
        E 0 80 02 00
        E 0 80 01 00
        E 0 80 00 00
        E 480 90 15 62
        E 0 90 14 62
        E 0 90 13 62
        E 0 90 12 62
        E 0 90 11 62
        E 0 90 10 62
        E 0 90 0f 62
        E 0 90 0e 62
        E 0 90 0d 62
        E 0 90 0c 62
        E 0 90 0b 62
        E 0 90 0a 62
        E 0 90 09 62
        E 0 90 08 62
        E 0 90 07 62
        E 0 90 06 62
        E 0 90 05 62
        E 0 90 04 62
        E 0 90 03 62
        E 0 90 02 62
        E 0 90 01 62
        E 0 90 00 62
        E 1440 80 15 00
        E 0 80 14 00
        E 0 80 13 00
        E 0 80 12 00
        E 0 80 11 00
        E 0 80 10 00
        E 0 80 0f 00
        E 0 80 0e 00
        E 0 80 0d 00
        E 0 80 0c 00
        E 0 80 0b 00
        E 0 80 0a 00
        E 0 80 09 00
        E 0 80 08 00
        E 0 80 07 00
        E 0 80 06 00
        E 0 80 05 00
        E 0 80 04 00
        E 0 80 03 00
        E 0 80 02 00
        E 0 80 01 00
        E 0 80 00 00
        E 480 90 15 62
        E 0 90 14 62
        E 0 90 13 62
        E 0 90 12 62
        E 0 90 11 62
        E 0 90 10 62
        E 0 90 0f 62
        E 0 90 0e 62
        E 0 90 0d 62
        E 0 90 0c 62
        E 0 90 0b 62
        E 0 90 0a 62
        E 0 90 09 62
        E 0 90 08 62
        E 0 90 07 62
        E 0 90 06 62
        E 0 90 05 62
        E 0 90 04 62
        E 0 90 03 62
        E 0 90 02 62
        E 0 90 01 62
        E 0 90 00 62
        E 2880 80 15 00
        E 0 80 14 00
        E 0 80 13 00
        E 0 80 12 00
        E 0 80 11 00
        E 0 80 10 00
        E 0 80 0f 00
        E 0 80 0e 00
        E 0 80 0d 00
        E 0 80 0c 00
        E 0 80 0b 00
        E 0 80 0a 00
        E 0 80 09 00
        E 0 80 08 00
        E 0 80 07 00
        E 0 80 06 00
        E 0 80 05 00
        E 0 80 04 00
        E 0 80 03 00
        E 0 80 02 00
        E 0 80 01 00
        E 0 80 00 00
        E 480 90 10 62
        E 0 90 00 62
        E 240 80 10 00
        E 120 90 04 62
        E 120 80 00 00
        E 0 90 0e 62
        E 120 80 04 00
        E 120 80 0e 00
        E 120 90 01 62
        E 120 90 04 62
        E 0 90 00 62
        E 0 90 08 7f
        E 120 90 06 62
        E 0 90 16 62
        E 120 80 01 00
        E 0 80 04 00
        E 0 80 06 00
        E 0 90 0c 62
        E 120 80 16 00
        E 120 80 00 00
        E 0 90 13 62
        E 120 80 0c 00
        E 0 90 17 62
        E 0 90 04 62
        E 120 90 06 62
        E 0 90 02 62
        E 240 80 13 00
        E 0 80 17 00
        E 0 80 04 00
        E 0 80 02 00
        E 0 90 00 62
        E 120 80 06 00
        E 120 90 10 62
        E 120 80 10 00
        E 0 90 0b 62
        E 120 80 08 00
        E 0 80 00 00
        E 0 90 04 62
        E 120 80 0b 00
        E 120 80 04 00
        E 0 90 07 62
        E 120 90 14 62
        E 0 90 0f 62
        E 120 90 00 62
        E 120 80 07 00
        E 0 80 14 00
        E 0 90 0b 62
        E 120 90 01 62
        E 240 80 0f 00
        E 0 80 00 00
        E 0 80 0b 00
        E 120 80 01 00
        E 360 90 00 62
        E 360 90 08 62
        E 120 80 00 00
        E 0 90 11 7f
        E 120 80 08 00
        E 0 90 0e 62
        E 240 80 0e 00
        E 120 80 11 00
        E 0 90 00 62
        E 0 90 08 7f
        E 120 90 0a 62
        E 240 80 0a 00
        E 120 80 00 00
        E 0 90 11 7f
        E 480 80 11 00
        E 0 90 19 7f
        E 0 90 00 62
        E 480 80 08 00
        E 0 80 19 00
        E 0 80 00 00
        E 0 90 11 7f
        E 480 80 11 00
        E 0 90 00 62
        E 480 80 00 00
        E 0 90 11 7f
        E 480 80 11 00
        E 0 90 00 62
        E 0 90 08 7f
        E 480 80 00 00
        E 0 90 11 7f
        E 480 80 11 00
        E 0 90 00 62
        E 480 80 08 00
        E 0 80 00 00
        E 0 90 11 7f
        E 480 80 11 00
        E 0 90 00 62
        E 0 90 19 7f
        E 480 80 00 00
        E 0 80 19 00
        E 0 90 08 7f
        E 0 90 11 7f
        E 480 80 11 00
        E 0 90 00 62
        E 480 80 00 00
        E 0 90 11 7f
        E 480 80 08 00
        E 0 80 11 00
        E 0 90 00 62
        E 480 80 00 00
        E 0 90 11 7f
        E 480 80 11 00
        E 0 90 00 62
        E 480 80 00 00
        E 0 90 08 7f
        E 0 90 11 7f
        E 480 80 11 00
        E 0 90 00 62
        E 0 90 19 7f
        E 480 80 00 00
        E 0 80 19 00
        E 0 90 21 7f
        E 0 90 11 7f
        E 360 80 08 00
        E 120 80 21 00
        E 0 80 11 00
        E 0 90 00 62
        E 0 90 21 7f
        E 480 80 00 00
        E 0 80 21 00
        E 0 90 11 7f
        E 480 80 11 00
        E 0 90 00 62
        E 480 80 00 00
        E 0 90 08 7f
        E 0 90 11 7f
        E 480 80 11 00
        E 0 90 00 62
        E 480 80 00 00
        E 0 90 11 7f
        E 480 80 08 00
        E 0 80 11 00
        E 0 90 00 62
        E 0 90 19 7f
        E 480 80 00 00
        E 0 80 19 00
        E 0 90 11 7f
        E 0 90 21 7f
        E 480 80 11 00
        E 0 80 21 00
        E 0 90 00 62
        E 0 90 08 7f
        E 0 90 21 7f
        E 480 80 00 00
        E 0 80 21 00
        E 0 90 11 7f
        E 480 80 11 00
        E 0 90 00 62
        E 480 80 00 00
        E 0 90 11 7f
        E 480 80 08 00
        E 0 80 11 00
        E 0 90 00 62
        E 480 80 00 00
        E 0 90 11 7f
        E 480 80 11 00
        E 0 90 00 62
        E 0 90 19 7f
        E 480 80 00 00
        E 0 80 19 00
        E 0 90 08 7f
        E 0 90 11 7f
        E 480 80 11 00
        E 0 90 00 62
        E 480 80 08 00
        E 0 80 00 00
        E 0 90 11 7f
        E 0 90 21 7f
        E 480 80 11 00
        E 0 80 21 00
        E 0 90 00 62
        E 0 90 21 7f
        E 480 80 00 00
        E 0 80 21 00
        E 0 90 08 7f
        E 0 90 11 7f
        E 480 80 11 00
        E 0 90 00 62
        E 0 90 19 7f
        E 480 80 08 00
        E 0 80 00 00
        E 0 80 19 00
        E 0 90 11 7f
        E 480 80 11 00
        E 0 90 00 62
        E 480 80 00 00
        E 0 90 11 7f
        E 480 80 11 00
        E 0 90 00 62
        E 0 90 21 7f
        E 480 80 00 00
        E 0 80 21 00
        E 0 90 11 7f
        E 0 90 21 7f
        E 120 90 08 7f
        E 360 80 11 00
        E 0 80 21 00
        E 0 90 00 62
        E 480 80 00 00
        E 0 90 11 7f
        E 480 80 11 00
        E 0 90 00 62
        E 0 90 19 7f
        E 360 80 08 00
        E 120 80 00 00
        E 0 80 19 00
        E 0 90 11 7f
        E 480 80 11 00
        E 0 90 00 62
        E 480 80 00 00
        E 0 90 11 7f
        E 0 90 21 7f
        E 480 80 11 00
        E 0 80 21 00
        E 0 90 00 62
        E 0 90 08 7f
        E 0 90 21 7f
        E 480 80 00 00
        E 0 80 21 00
        E 0 90 11 7f
        E 480 80 11 00
        E 0 90 00 62
        E 480 80 00 00
        E 0 90 11 7f
        E 480 80 11 00
        E 0 90 00 62
        E 0 90 19 7f
        E 360 80 08 00
        E 120 80 00 00
        E 0 80 19 00
        E 0 90 11 7f
        E 480 80 11 00
        E 0 90 00 62
        E 480 80 00 00
        E 0 90 11 7f
        E 480 80 11 00
        E 0 90 00 62
        E 480 80 00 00
        E 0 90 11 7f
        E 360 90 08 7f
        E 120 80 11 00
        E 0 90 00 62
        E 0 90 19 7f
        E 480 80 00 00
        E 0 80 19 00
        E 0 90 11 7f
        E 480 80 11 00
        E 0 90 00 62
        E 480 80 00 00
        E 0 90 11 7f
        E 360 90 21 7f
        E 120 80 11 00
        E 0 90 00 62
        E 360 80 21 00
        E 0 90 21 7f
        E 120 80 00 00
        E 0 90 11 7f
        E 360 80 08 00
        E 0 80 21 00
        E 120 80 11 00
        E 0 90 00 62
        E 480 80 00 00
        E 0 90 11 7f
        E 480 80 11 00
        E 0 90 00 62
        E 0 90 08 7f
        E 480 80 00 00
        E 0 90 11 7f
        E 480 80 08 00
        E 0 80 11 00
        E 0 90 00 62
        E 480 80 00 00
        E 0 90 11 7f
        E 480 80 11 00
        E 0 90 00 62
        E 0 90 19 7f
        E 120 90 08 7f
        E 360 80 00 00
        E 0 80 19 00
        E 0 90 11 7f
        E 360 80 08 00
        E 120 80 11 00
        E 0 90 00 62
        E 0 90 21 7f
        E 480 80 00 00
        E 0 80 21 00
        E 0 90 11 7f
        E 0 90 21 7f
        E 480 80 11 00
        E 0 80 21 00
        E 0 90 00 62
        E 0 90 08 7f
        E 480 80 00 00
        E 0 90 11 7f
        E 0 90 19 7f
        E 480 80 11 00
        E 0 80 19 00
        E 0 90 00 62
        E 480 80 08 00
        E 0 80 00 00
        E 0 90 11 7f
        E 480 80 11 00
        E 0 90 00 62
        E 0 90 21 7f
        E 480 80 00 00
        E 0 80 21 00
        E 0 90 11 7f
        E 0 90 21 7f
        E 480 80 11 00
        E 0 80 21 00
        E 0 90 00 62
        E 360 90 08 62
        E 120 80 00 00
        E 0 90 11 7f
        E 120 80 08 00
        E 360 80 11 00
        E 0 90 00 62
        E 0 90 08 7f
        E 480 80 00 00
        E 0 90 11 7f
        E 0 90 19 7f
        E 240 80 19 00
        E 0 90 19 7f
        E 240 80 11 00
        E 0 80 19 00
        E 0 90 00 62
        E 0 90 19 7f
        E 240 80 19 00
        E 0 90 19 7f
        E 240 80 08 00
        E 0 80 00 00
        E 0 80 19 00
        E 0 90 11 7f
        E 0 90 19 7f
        E 240 80 19 00
        E 0 90 19 7f
        E 240 80 11 00
        E 0 80 19 00
        E 0 90 00 62
        E 0 90 19 7f
        E 240 80 19 00
        E 0 90 19 7f
        E 240 80 00 00
        E 0 80 19 00
        E 0 90 11 7f
        E 480 80 11 00
        E 0 90 00 62
        E 0 90 08 7f
        E 0 90 21 7f
        E 480 80 00 00
        E 0 80 21 00
        E 0 90 11 7f
        E 0 90 21 7f
        E 480 80 11 00
        E 0 80 21 00
        E 0 90 00 62
        E 0 90 19 7f
        E 240 80 19 00
        E 240 80 08 00
        E 0 80 00 00
        E 0 90 11 7f
        E 0 90 19 7f
        E 240 80 19 00
        E 0 90 19 7f
        E 240 80 11 00
        E 0 80 19 00
        E 0 90 00 62
        E 0 90 19 7f
        E 240 80 19 00
        E 0 90 19 7f
        E 240 80 00 00
        E 0 80 19 00
        E 0 90 08 7f
        E 0 90 11 7f
        E 0 90 19 7f
        E 240 80 19 00
        E 0 90 19 7f
        E 240 80 11 00
        E 0 80 19 00
        E 0 90 00 62
        E 480 80 00 00
        E 0 90 11 7f
        E 480 80 08 00
        E 0 80 11 00
        E 0 90 00 62
        E 0 90 19 7f
        E 240 80 19 00
        E 0 90 19 7f
        E 240 80 00 00
        E 0 80 19 00
        E 0 90 11 7f
        E 0 90 19 7f
        E 240 80 19 00
        E 240 80 11 00
        E 0 90 00 62
        E 0 90 19 7f
        E 240 80 19 00
        E 0 90 19 7f
        E 240 80 00 00
        E 0 80 19 00
        E 0 90 08 7f
        E 0 90 11 7f
        E 0 90 19 7f
        E 240 80 19 00
        E 0 90 19 7f
        E 240 80 11 00
        E 0 80 19 00
        E 0 90 00 62
        E 480 80 00 00
        E 0 90 11 7f
        E 0 90 21 7f
        E 360 80 08 00
        E 120 80 11 00
        E 0 80 21 00
        E 0 90 00 62
        E 0 90 21 7f
        E 480 80 00 00
        E 0 80 21 00
        E 0 90 11 7f
        E 240 90 19 7f
        E 240 80 11 00
        E 0 80 19 00
        E 0 90 00 62
        E 0 90 19 7f
        E 240 80 19 00
        E 0 90 19 7f
        E 240 80 00 00
        E 0 80 19 00
        E 0 90 08 7f
        E 0 90 11 7f
        E 0 90 19 7f
        E 240 80 19 00
        E 0 90 19 7f
        E 240 80 11 00
        E 0 80 19 00
        E 0 90 00 62
        E 240 90 19 7f
        E 240 80 00 00
        E 0 80 19 00
        E 0 90 11 7f
        E 0 90 19 7f
        E 240 80 19 00
        E 240 80 08 00
        E 0 80 11 00
        E 0 90 00 62
        E 0 90 21 7f
        E 480 80 00 00
        E 0 80 21 00
        E 0 90 11 7f
        E 0 90 21 7f
        E 480 80 11 00
        E 0 80 21 00
        E 0 90 00 62
        E 0 90 08 7f
        E 480 80 00 00
        E 0 90 11 7f
        E 0 90 19 7f
        E 240 80 19 00
        E 0 90 19 7f
        E 240 80 11 00
        E 0 80 19 00
        E 0 90 00 62
        E 0 90 19 7f
        E 240 80 19 00
        E 240 80 00 00
        E 0 90 11 7f
        E 0 90 19 7f
        E 240 80 19 00
        E 0 90 19 7f
        E 240 80 08 00
        E 0 80 11 00
        E 0 80 19 00
        E 0 90 00 62
        E 0 90 19 7f
        E 240 80 19 00
        E 0 90 19 7f
        E 240 80 00 00
        E 0 80 19 00
        E 0 90 11 7f
        E 480 80 11 00
        E 0 90 00 62
        E 0 90 21 7f
        E 480 80 00 00
        E 0 80 21 00
        E 0 90 08 7f
        E 0 90 11 7f
        E 0 90 21 7f
        E 480 80 11 00
        E 0 80 21 00
        E 0 90 00 62
        E 0 90 19 7f
        E 240 80 19 00
        E 240 80 08 00
        E 0 80 00 00
        E 0 90 11 7f
        E 0 90 19 7f
        E 240 80 19 00
        E 240 80 11 00
        E 0 90 19 7f
        E 0 90 00 62
        E 480 80 19 00
        E 0 80 00 00
        E 0 90 08 7f
        E 0 90 11 7f
        E 480 80 11 00
        E 0 90 00 62
        E 0 90 21 7f
        E 480 80 08 00
        E 0 80 00 00
        E 0 80 21 00
        E 0 90 11 7f
        E 0 90 21 7f
        E 480 80 11 00
        E 0 80 21 00
        E 0 90 00 62
        E 0 90 19 7f
        E 240 80 19 00
        E 240 80 00 00
        E 0 90 11 7f
        E 480 80 11 00
        E 0 90 00 62
        E 0 90 19 7f
        E 240 80 19 00
        E 240 80 00 00
        E 0 90 11 7f
        E 120 90 08 7f
        E 360 80 11 00
        E 0 90 00 62
        E 0 90 19 7f
        E 240 80 19 00
        E 240 80 00 00
        E 0 90 11 7f
        E 480 80 11 00
        E 0 90 00 62
        E 0 90 21 7f
        E 360 80 08 00
        E 120 80 00 00
        E 0 80 21 00
        E 0 90 11 7f
        E 0 90 21 7f
        E 480 80 11 00
        E 0 80 21 00
        E 0 90 00 62
        E 0 90 19 7f
        E 240 80 19 00
        E 240 80 00 00
        E 0 90 11 7f
        E 480 80 11 00
        E 0 90 00 62
        E 0 90 08 7f
        E 0 90 21 7f
        E 480 80 00 00
        E 0 80 21 00
        E 0 90 11 7f
        E 0 90 21 7f
        E 480 80 11 00
        E 0 80 21 00
        E 0 90 00 62
        E 0 90 19 7f
        E 240 80 19 00
        E 240 80 00 00
        E 0 90 11 7f
        E 480 80 11 00
        E 0 90 00 62
        E 360 80 08 00
        E 120 80 00 00
        E 0 90 11 7f
        E 480 80 11 00
        E 0 90 00 62
        E 0 90 19 7f
        E 240 80 19 00
        E 240 80 00 00
        E 0 90 11 7f
        E 480 80 11 00
        E 0 90 00 62
        E 0 90 21 7f
        E 480 80 00 00
        E 0 80 21 00
        E 0 90 11 7f
        E 0 90 21 7f
        E 360 90 08 7f
        E 120 80 11 00
        E 0 80 21 00
        E 0 90 00 62
        E 120 90 19 7f
        E 240 80 19 00
        E 120 80 00 00
        E 0 90 11 7f
        E 480 80 11 00
        E 0 90 00 62
        E 480 80 00 00
        E 0 90 11 7f
        E 0 90 21 7f
        E 480 80 11 00
        E 0 80 21 00
        E 0 90 00 62
        E 0 90 21 7f
        E 480 80 00 00
        E 0 80 21 00
        E 0 90 11 7f
        E 360 80 08 00
        E 120 80 11 00
        E 0 90 00 62
        E 480 80 00 00
        E 0 90 11 7f
        E 480 80 11 00
        E 0 90 00 62
        E 0 90 08 7f
        E 0 90 19 7f
        E 240 80 19 00
        E 240 80 00 00
        E 0 90 11 7f
        E 480 80 08 00
        E 0 80 11 00
        E 0 90 00 62
        E 0 90 21 7f
        E 480 80 00 00
        E 0 80 21 00
        E 0 90 11 7f
        E 0 90 21 7f
        E 480 80 11 00
        E 0 80 21 00
        E 0 90 00 62
        E 120 90 08 7f
        E 360 80 00 00
        E 0 90 11 7f
        E 360 80 08 00
        E 120 80 11 00
        E 0 90 00 62
        E 0 90 19 7f
        E 240 80 19 00
        E 240 80 00 00
        E 0 90 11 7f
        E 480 80 11 00
        E 0 90 00 62
        E 0 90 08 7f
        E 0 90 21 7f
        E 480 80 00 00
        E 0 80 21 00
        E 0 90 11 7f
        E 0 90 21 7f
        E 360 80 08 00
        E 120 80 11 00
        E 0 80 21 00
        E 0 90 00 62
        E 480 80 00 00
        E 0 90 11 7f
        E 480 80 11 00
        E 0 90 00 62
        E 0 90 21 7f
        E 480 80 00 00
        E 0 80 21 00
        E 0 90 11 7f
        E 0 90 21 7f
        E 360 90 19 7f
        E 120 80 11 00
        E 0 80 21 00
        E 0 90 00 62
        E 120 80 19 00
        E 0 90 08 7f
        E 360 80 00 00
        E 0 90 11 7f
        E 480 80 11 00
        E 0 90 00 62
        E 0 90 21 7f
        E 120 80 08 00
        E 360 80 00 00
        E 0 80 21 00
        E 0 90 11 7f
        E 0 90 21 7f
        E 360 90 19 7f
        E 120 80 11 00
        E 0 80 21 00
        E 0 90 00 62
        E 120 80 19 00
        E 360 80 00 00
        E 0 90 11 7f
        E 360 90 08 7f
        E 120 80 11 00
        E 0 90 00 62
        E 0 90 21 7f
        E 480 80 00 00
        E 0 80 21 00
        E 0 90 11 7f
        E 0 90 21 7f
        E 480 80 11 00
        E 0 80 21 00
        E 0 90 00 62
        E 480 80 00 00
        E 0 90 11 7f
        E 480 80 11 00
        E 0 90 00 62
        E 0 90 21 7f
        E 480 80 00 00
        E 0 80 21 00
        E 0 90 11 7f
        E 0 90 21 7f
        E 360 80 08 00
        E 120 80 11 00
        E 0 80 21 00
        E 4320 90 04 60
        E 0 90 00 60
        E 0 90 01 60
        E 0 90 02 60
        E 0 90 03 60
        E 0 90 05 60
        E 0 90 06 60
        E 0 90 07 60
        E 0 90 08 60
        E 0 90 09 60
        E 0 90 0a 60
        E 0 90 0b 60
        E 0 90 0c 60
        E 0 90 0d 60
        E 0 90 0e 60
        E 0 90 0f 60
        E 0 90 10 60
        E 0 90 11 60
        E 0 90 12 60
        E 0 90 13 60
        E 0 90 14 60
        E 0 90 15 60
        E 0 90 1a 60
        E 0 90 16 60
        E 0 90 17 60
        E 0 90 18 60
        E 0 90 19 60
        E 0 90 1b 60
        E 0 90 1c 60
        E 0 90 1d 60
        E 0 90 1e 60
        E 0 90 1f 60
        E 0 90 20 60
        E 0 90 21 60
        E 0 90 22 60
        E 0 90 23 60
        E 0 90 24 60
        E 0 90 25 60
        E 0 90 26 60
        E 0 90 27 60
        E 0 90 28 60
        E 480 80 04 00
        E 0 80 00 00
        E 0 80 01 00
        E 0 80 02 00
        E 0 80 03 00
        E 0 80 05 00
        E 0 80 06 00
        E 0 80 07 00
        E 0 80 08 00
        E 0 80 09 00
        E 0 80 0a 00
        E 0 80 0b 00
        E 0 80 0c 00
        E 0 80 0d 00
        E 0 80 0e 00
        E 0 80 0f 00
        E 0 80 10 00
        E 0 80 11 00
        E 0 80 12 00
        E 0 80 13 00
        E 0 80 14 00
        E 0 80 15 00
        E 0 80 1a 00
        E 0 80 16 00
        E 0 80 17 00
        E 0 80 18 00
        E 0 80 19 00
        E 0 80 1b 00
        E 0 80 1c 00
        E 0 80 1d 00
        E 0 80 1e 00
        E 0 80 1f 00
        E 0 80 20 00
        E 0 80 21 00
        E 0 80 22 00
        E 0 80 23 00
        E 0 80 24 00
        E 0 80 25 00
        E 0 80 26 00
        E 0 80 27 00
        E 0 80 28 00
        E 480 90 04 60
        E 0 90 00 60
        E 0 90 01 60
        E 0 90 02 60
        E 0 90 03 60
        E 0 90 05 60
        E 0 90 06 60
        E 0 90 07 60
        E 0 90 08 60
        E 0 90 09 60
        E 0 90 0a 60
        E 0 90 0b 60
        E 0 90 0c 60
        E 0 90 0d 60
        E 0 90 0e 60
        E 0 90 0f 60
        E 0 90 10 60
        E 0 90 11 60
        E 0 90 12 60
        E 0 90 13 60
        E 0 90 14 60
        E 0 90 15 60
        E 0 90 1a 60
        E 0 90 16 60
        E 0 90 17 60
        E 0 90 18 60
        E 0 90 19 60
        E 0 90 1b 60
        E 0 90 1c 60
        E 0 90 1d 60
        E 0 90 1e 60
        E 0 90 1f 60
        E 0 90 20 60
        E 0 90 21 60
        E 0 90 22 60
        E 0 90 23 60
        E 0 90 24 60
        E 0 90 25 60
        E 0 90 26 60
        E 0 90 27 60
        E 0 90 28 60
        E 480 80 04 00
        E 0 80 00 00
        E 0 80 01 00
        E 0 80 02 00
        E 0 80 03 00
        E 0 80 05 00
        E 0 80 06 00
        E 0 80 07 00
        E 0 80 08 00
        E 0 80 09 00
        E 0 80 0a 00
        E 0 80 0b 00
        E 0 80 0c 00
        E 0 80 0d 00
        E 0 80 0e 00
        E 0 80 0f 00
        E 0 80 10 00
        E 0 80 11 00
        E 0 80 12 00
        E 0 80 13 00
        E 0 80 14 00
        E 0 80 15 00
        E 0 80 1a 00
        E 0 80 16 00
        E 0 80 17 00
        E 0 80 18 00
        E 0 80 19 00
        E 0 80 1b 00
        E 0 80 1c 00
        E 0 80 1d 00
        E 0 80 1e 00
        E 0 80 1f 00
        E 0 80 20 00
        E 0 80 21 00
        E 0 80 22 00
        E 0 80 23 00
        E 0 80 24 00
        E 0 80 25 00
        E 0 80 26 00
        E 0 80 27 00
        E 0 80 28 00
        E 480 90 04 60
        E 0 90 00 60
        E 0 90 01 60
        E 0 90 02 60
        E 0 90 03 60
        E 0 90 05 60
        E 0 90 06 60
        E 0 90 07 60
        E 0 90 08 60
        E 0 90 09 60
        E 0 90 0a 60
        E 0 90 0b 60
        E 0 90 0c 60
        E 0 90 0d 60
        E 0 90 0e 60
        E 0 90 0f 60
        E 0 90 10 60
        E 0 90 11 60
        E 0 90 12 60
        E 0 90 13 60
        E 0 90 14 60
        E 0 90 15 60
        E 0 90 1a 60
        E 0 90 16 60
        E 0 90 17 60
        E 0 90 18 60
        E 0 90 19 60
        E 0 90 1b 60
        E 0 90 1c 60
        E 0 90 1d 60
        E 0 90 1e 60
        E 0 90 1f 60
        E 0 90 20 60
        E 0 90 21 60
        E 0 90 22 60
        E 0 90 23 60
        E 0 90 24 60
        E 0 90 25 60
        E 0 90 26 60
        E 0 90 27 60
        E 0 90 28 60
        E 480 80 04 00
        E 0 80 00 00
        E 0 80 01 00
        E 0 80 02 00
        E 0 80 03 00
        E 0 80 05 00
        E 0 80 06 00
        E 0 80 07 00
        E 0 80 08 00
        E 0 80 09 00
        E 0 80 0a 00
        E 0 80 0b 00
        E 0 80 0c 00
        E 0 80 0d 00
        E 0 80 0e 00
        E 0 80 0f 00
        E 0 80 10 00
        E 0 80 11 00
        E 0 80 12 00
        E 0 80 13 00
        E 0 80 14 00
        E 0 80 15 00
        E 0 80 1a 00
        E 0 80 16 00
        E 0 80 17 00
        E 0 80 18 00
        E 0 80 19 00
        E 0 80 1b 00
        E 0 80 1c 00
        E 0 80 1d 00
        E 0 80 1e 00
        E 0 80 1f 00
        E 0 80 20 00
        E 0 80 21 00
        E 0 80 22 00
        E 0 80 23 00
        E 0 80 24 00
        E 0 80 25 00
        E 0 80 26 00
        E 0 80 27 00
        E 0 80 28 00
        E 480 90 04 60
        E 0 90 00 60
        E 0 90 01 60
        E 0 90 02 60
        E 0 90 03 60
        E 0 90 05 60
        E 0 90 06 60
        E 0 90 07 60
        E 0 90 08 60
        E 0 90 09 60
        E 0 90 0a 60
        E 0 90 0b 60
        E 0 90 0c 60
        E 0 90 0d 60
        E 0 90 0e 60
        E 0 90 0f 60
        E 0 90 10 60
        E 0 90 11 60
        E 0 90 12 60
        E 0 90 13 60
        E 0 90 14 60
        E 0 90 15 60
        E 0 90 1a 60
        E 0 90 16 60
        E 0 90 17 60
        E 0 90 18 60
        E 0 90 19 60
        E 0 90 1b 60
        E 0 90 1c 60
        E 0 90 1d 60
        E 0 90 1e 60
        E 0 90 1f 60
        E 0 90 20 60
        E 0 90 21 60
        E 0 90 22 60
        E 0 90 23 60
        E 0 90 24 60
        E 0 90 25 60
        E 0 90 26 60
        E 0 90 27 60
        E 0 90 28 60
        E 480 80 04 00
        E 0 80 00 00
        E 0 80 01 00
        E 0 80 02 00
        E 0 80 03 00
        E 0 80 05 00
        E 0 80 06 00
        E 0 80 07 00
        E 0 80 08 00
        E 0 80 09 00
        E 0 80 0a 00
        E 0 80 0b 00
        E 0 80 0c 00
        E 0 80 0d 00
        E 0 80 0e 00
        E 0 80 0f 00
        E 0 80 10 00
        E 0 80 11 00
        E 0 80 12 00
        E 0 80 13 00
        E 0 80 14 00
        E 0 80 15 00
        E 0 80 1a 00
        E 0 80 16 00
        E 0 80 17 00
        E 0 80 18 00
        E 0 80 19 00
        E 0 80 1b 00
        E 0 80 1c 00
        E 0 80 1d 00
        E 0 80 1e 00
        E 0 80 1f 00
        E 0 80 20 00
        E 0 80 21 00
        E 0 80 22 00
        E 0 80 23 00
        E 0 80 24 00
        E 0 80 25 00
        E 0 80 26 00
        E 0 80 27 00
        E 0 80 28 00
        E 480 90 04 60
        E 0 90 00 60
        E 0 90 01 60
        E 0 90 02 60
        E 0 90 03 60
        E 0 90 05 60
        E 0 90 06 60
        E 0 90 07 60
        E 0 90 08 60
        E 0 90 09 60
        E 0 90 0a 60
        E 0 90 0b 60
        E 0 90 0c 60
        E 0 90 0d 60
        E 0 90 0e 60
        E 0 90 0f 60
        E 0 90 10 60
        E 0 90 11 60
        E 0 90 12 60
        E 0 90 13 60
        E 0 90 14 60
        E 0 90 15 60
        E 0 90 1a 60
        E 0 90 16 60
        E 0 90 17 60
        E 0 90 18 60
        E 0 90 19 60
        E 0 90 1b 60
        E 0 90 1c 60
        E 0 90 1d 60
        E 0 90 1e 60
        E 0 90 1f 60
        E 0 90 20 60
        E 0 90 21 60
        E 0 90 22 60
        E 0 90 23 60
        E 0 90 24 60
        E 0 90 25 60
        E 0 90 26 60
        E 0 90 27 60
        E 0 90 28 60
        E 480 80 04 00
        E 0 80 00 00
        E 0 80 01 00
        E 0 80 02 00
        E 0 80 03 00
        E 0 80 05 00
        E 0 80 06 00
        E 0 80 07 00
        E 0 80 08 00
        E 0 80 09 00
        E 0 80 0a 00
        E 0 80 0b 00
        E 0 80 0c 00
        E 0 80 0d 00
        E 0 80 0e 00
        E 0 80 0f 00
        E 0 80 10 00
        E 0 80 11 00
        E 0 80 12 00
        E 0 80 13 00
        E 0 80 14 00
        E 0 80 15 00
        E 0 80 1a 00
        E 0 80 16 00
        E 0 80 17 00
        E 0 80 18 00
        E 0 80 19 00
        E 0 80 1b 00
        E 0 80 1c 00
        E 0 80 1d 00
        E 0 80 1e 00
        E 0 80 1f 00
        E 0 80 20 00
        E 0 80 21 00
        E 0 80 22 00
        E 0 80 23 00
        E 0 80 24 00
        E 0 80 25 00
        E 0 80 26 00
        E 0 80 27 00
        E 0 80 28 00
        E 480 90 04 60
        E 0 90 00 60
        E 0 90 01 60
        E 0 90 02 60
        E 0 90 03 60
        E 0 90 05 60
        E 0 90 06 60
        E 0 90 07 60
        E 0 90 08 60
        E 0 90 09 60
        E 0 90 0a 60
        E 0 90 0b 60
        E 0 90 0c 60
        E 0 90 0d 60
        E 0 90 0e 60
        E 0 90 0f 60
        E 0 90 10 60
        E 0 90 11 60
        E 0 90 12 60
        E 0 90 13 60
        E 0 90 14 60
        E 0 90 15 60
        E 0 90 1a 60
        E 0 90 16 60
        E 0 90 17 60
        E 0 90 18 60
        E 0 90 19 60
        E 0 90 1b 60
        E 0 90 1c 60
        E 0 90 1d 60
        E 0 90 1e 60
        E 0 90 1f 60
        E 0 90 20 60
        E 0 90 21 60
        E 0 90 22 60
        E 0 90 23 60
        E 0 90 24 60
        E 0 90 25 60
        E 0 90 26 60
        E 0 90 27 60
        E 0 90 28 60
        E 480 80 04 00
        E 0 80 00 00
        E 0 80 01 00
        E 0 80 02 00
        E 0 80 03 00
        E 0 80 05 00
        E 0 80 06 00
        E 0 80 07 00
        E 0 80 08 00
        E 0 80 09 00
        E 0 80 0a 00
        E 0 80 0b 00
        E 0 80 0c 00
        E 0 80 0d 00
        E 0 80 0e 00
        E 0 80 0f 00
        E 0 80 10 00
        E 0 80 11 00
        E 0 80 12 00
        E 0 80 13 00
        E 0 80 14 00
        E 0 80 15 00
        E 0 80 1a 00
        E 0 80 16 00
        E 0 80 17 00
        E 0 80 18 00
        E 0 80 19 00
        E 0 80 1b 00
        E 0 80 1c 00
        E 0 80 1d 00
        E 0 80 1e 00
        E 0 80 1f 00
        E 0 80 20 00
        E 0 80 21 00
        E 0 80 22 00
        E 0 80 23 00
        E 0 80 24 00
        E 0 80 25 00
        E 0 80 26 00
        E 0 80 27 00
        E 0 80 28 00
        E 480 90 04 60
        E 0 90 00 60
        E 0 90 01 60
        E 0 90 02 60
        E 0 90 03 60
        E 0 90 05 60
        E 0 90 06 60
        E 0 90 07 60
        E 0 90 08 60
        E 0 90 09 60
        E 0 90 0a 60
        E 0 90 0b 60
        E 0 90 0c 60
        E 0 90 0d 60
        E 0 90 0e 60
        E 0 90 0f 60
        E 0 90 10 60
        E 0 90 11 60
        E 0 90 12 60
        E 0 90 13 60
        E 0 90 14 60
        E 0 90 15 60
        E 0 90 1a 60
        E 0 90 16 60
        E 0 90 17 60
        E 0 90 18 60
        E 0 90 19 60
        E 0 90 1b 60
        E 0 90 1c 60
        E 0 90 1d 60
        E 0 90 1e 60
        E 0 90 1f 60
        E 0 90 20 60
        E 0 90 21 60
        E 0 90 22 60
        E 0 90 23 60
        E 0 90 24 60
        E 0 90 25 60
        E 0 90 26 60
        E 0 90 27 60
        E 0 90 28 60
        E 480 80 04 00
        E 0 80 00 00
        E 0 80 01 00
        E 0 80 02 00
        E 0 80 03 00
        E 0 80 05 00
        E 0 80 06 00
        E 0 80 07 00
        E 0 80 08 00
        E 0 80 09 00
        E 0 80 0a 00
        E 0 80 0b 00
        E 0 80 0c 00
        E 0 80 0d 00
        E 0 80 0e 00
        E 0 80 0f 00
        E 0 80 10 00
        E 0 80 11 00
        E 0 80 12 00
        E 0 80 13 00
        E 0 80 14 00
        E 0 80 15 00
        E 0 80 1a 00
        E 0 80 16 00
        E 0 80 17 00
        E 0 80 18 00
        E 0 80 19 00
        E 0 80 1b 00
        E 0 80 1c 00
        E 0 80 1d 00
        E 0 80 1e 00
        E 0 80 1f 00
        E 0 80 20 00
        E 0 80 21 00
        E 0 80 22 00
        E 0 80 23 00
        E 0 80 24 00
        E 0 80 25 00
        E 0 80 26 00
        E 0 80 27 00
        E 0 80 28 00
        E 480 90 04 60
        E 0 90 00 60
        E 0 90 01 60
        E 0 90 02 60
        E 0 90 03 60
        E 0 90 05 60
        E 0 90 06 60
        E 0 90 07 60
        E 0 90 08 60
        E 0 90 09 60
        E 0 90 0a 60
        E 0 90 0b 60
        E 0 90 0c 60
        E 0 90 0d 60
        E 0 90 0e 60
        E 0 90 0f 60
        E 0 90 10 60
        E 0 90 11 60
        E 0 90 12 60
        E 0 90 13 60
        E 0 90 14 60
        E 0 90 15 60
        E 0 90 1a 60
        E 0 90 16 60
        E 0 90 17 60
        E 0 90 18 60
        E 0 90 19 60
        E 0 90 1b 60
        E 0 90 1c 60
        E 0 90 1d 60
        E 0 90 1e 60
        E 0 90 1f 60
        E 0 90 20 60
        E 0 90 21 60
        E 0 90 22 60
        E 0 90 23 60
        E 0 90 24 60
        E 0 90 25 60
        E 0 90 26 60
        E 0 90 27 60
        E 0 90 28 60
        E 480 80 04 00
        E 0 80 00 00
        E 0 80 01 00
        E 0 80 02 00
        E 0 80 03 00
        E 0 80 05 00
        E 0 80 06 00
        E 0 80 07 00
        E 0 80 08 00
        E 0 80 09 00
        E 0 80 0a 00
        E 0 80 0b 00
        E 0 80 0c 00
        E 0 80 0d 00
        E 0 80 0e 00
        E 0 80 0f 00
        E 0 80 10 00
        E 0 80 11 00
        E 0 80 12 00
        E 0 80 13 00
        E 0 80 14 00
        E 0 80 15 00
        E 0 80 1a 00
        E 0 80 16 00
        E 0 80 17 00
        E 0 80 18 00
        E 0 80 19 00
        E 0 80 1b 00
        E 0 80 1c 00
        E 0 80 1d 00
        E 0 80 1e 00
        E 0 80 1f 00
        E 0 80 20 00
        E 0 80 21 00
        E 0 80 22 00
        E 0 80 23 00
        E 0 80 24 00
        E 0 80 25 00
        E 0 80 26 00
        E 0 80 27 00
        E 0 80 28 00
        E 545160 90 11 60
        E 0 90 12 60
        E 0 90 13 60
        E 0 90 10 60
        E 0 90 0f 60
        E 203640 80 11 00
        E 0 80 12 00
        E 0 80 13 00
        E 0 80 10 00
        E 0 80 0f 00
        E 0 90 10 60
        E 0 90 13 60
        E 120 90 05 60
        E 0 90 0d 60
        E 0 90 09 60
        E 360 80 10 00
        E 0 90 11 60
        E 120 80 13 00
        E 0 80 05 00
        E 0 80 0d 00
        E 0 80 09 00
        E 0 90 06 60
        E 0 90 14 60
        E 0 90 0e 60
        E 0 90 0a 60
        E 360 80 11 00
        E 0 90 12 60
        E 120 80 06 00
        E 0 80 14 00
        E 0 80 0e 00
        E 0 80 0a 00
        E 0 90 07 60
        E 0 90 15 60
        E 0 90 0f 60
        E 0 90 0b 60
        E 360 80 12 00
        E 0 90 13 60
        E 120 80 07 00
        E 0 80 15 00
        E 0 80 0f 00
        E 0 80 0b 00
        E 0 90 16 60
        E 0 90 10 60
        E 0 90 05 60
        E 0 90 0c 60
        E 0 90 08 60
        E 360 80 13 00
        E 0 90 14 60
        E 120 80 16 00
        E 0 80 10 00
        E 0 80 05 00
        E 0 80 0c 00
        E 0 80 08 00
        E 0 90 17 60
        E 0 90 11 60
        E 0 90 06 60
        E 0 90 0d 60
        E 0 90 09 60
        E 360 80 14 00
        E 0 90 15 60
        E 0 90 18 60
        E 120 80 17 00
        E 0 80 11 00
        E 0 80 06 00
        E 0 80 0d 00
        E 0 80 09 00
        E 0 90 12 60
        E 0 90 07 60
        E 0 90 0e 60
        E 0 90 0a 60
        E 360 80 15 00
        E 0 80 18 00
        E 0 90 16 60
        E 120 80 12 00
        E 0 80 07 00
        E 0 80 0e 00
        E 0 80 0a 00
        E 0 90 13 60
        E 0 90 05 60
        E 0 90 0f 60
        E 0 90 0b 60
        E 0 90 08 60
        E 360 80 16 00
        E 0 90 17 60
        E 120 80 13 00
        E 0 80 05 00
        E 0 80 0f 00
        E 0 80 0b 00
        E 0 80 08 00
        E 0 90 14 60
        E 0 90 06 60
        E 0 90 0c 60
        E 0 90 09 60
        E 0 90 10 60
        E 360 80 17 00
        E 0 90 18 60
        E 120 80 14 00
        E 0 80 06 00
        E 0 80 0c 00
        E 0 80 09 00
        E 0 80 10 00
        E 0 90 15 60
        E 0 90 07 60
        E 0 90 0d 60
        E 0 90 0a 60
        E 0 90 11 60
        E 360 80 18 00
        E 120 80 15 00
        E 0 80 07 00
        E 0 80 0d 00
        E 0 80 0a 00
        E 0 80 11 00
        E 0 90 16 60
        E 0 90 05 60
        E 0 90 0e 60
        E 0 90 0b 60
        E 0 90 08 60
        E 0 90 12 60
        E 480 80 16 00
        E 0 80 05 00
        E 0 80 0e 00
        E 0 80 0b 00
        E 0 80 08 00
        E 0 80 12 00
        E 0 90 17 60
        E 0 90 06 60
        E 0 90 0f 60
        E 0 90 0c 60
        E 0 90 09 60
        E 0 90 13 60
        E 360 90 10 60
        E 120 80 17 00
        E 0 80 06 00
        E 0 80 0f 00
        E 0 80 0c 00
        E 0 80 09 00
        E 0 80 13 00
        E 0 90 07 60
        E 0 90 0d 60
        E 0 90 0a 60
        E 0 90 14 60
        E 0 90 18 60
        E 360 80 10 00
        E 0 90 11 60
        E 120 80 07 00
        E 0 80 0d 00
        E 0 80 0a 00
        E 0 80 14 00
        E 0 80 18 00
        E 0 90 05 60
        E 0 90 0e 60
        E 0 90 0b 60
        E 0 90 15 60
        E 0 90 08 60
        E 360 80 11 00
        E 0 90 12 60
        E 120 80 05 00
        E 0 80 0e 00
        E 0 80 0b 00
        E 0 80 15 00
        E 0 80 08 00
        E 0 90 06 60
        E 0 90 0f 60
        E 0 90 0c 60
        E 0 90 16 60
        E 0 90 09 60
        E 480 80 12 00
        E 0 80 06 00
        E 0 80 0f 00
        E 0 80 0c 00
        E 0 80 16 00
        E 0 80 09 00
        E 0 90 07 60
        E 0 90 0d 60
        E 0 90 17 60
        E 0 90 10 60
        E 0 90 13 60
        E 0 90 0a 60
        E 480 80 07 00
        E 0 80 0d 00
        E 0 80 17 00
        E 0 80 10 00
        E 0 80 13 00
        E 0 80 0a 00
        E 0 90 05 60
        E 0 90 0e 60
        E 0 90 18 60
        E 0 90 11 60
        E 0 90 14 60
        E 0 90 0b 60
        E 0 90 08 60
        E 480 80 05 00
        E 0 80 0e 00
        E 0 80 18 00
        E 0 80 11 00
        E 0 80 14 00
        E 0 80 0b 00
        E 0 80 08 00
        E 0 90 06 60
        E 0 90 0f 60
        E 0 90 12 60
        E 0 90 15 60
        E 0 90 0c 60
        E 0 90 09 60
        E 480 80 06 00
        E 0 80 0f 00
        E 0 80 12 00
        E 0 80 15 00
        E 0 80 0c 00
        E 0 80 09 00
        E 0 90 07 60
        E 0 90 13 60
        E 0 90 16 60
        E 0 90 10 60
        E 0 90 0d 60
        E 0 90 0a 60
        E 480 80 07 00
        E 0 80 13 00
        E 0 80 16 00
        E 0 80 10 00
        E 0 80 0d 00
        E 0 80 0a 00
        E 0 90 05 60
        E 0 90 14 60
        E 0 90 11 60
        E 0 90 17 60
        E 0 90 0e 60
        E 0 90 0b 60
        E 0 90 08 60
        E 480 80 05 00
        E 0 80 14 00
        E 0 80 11 00
        E 0 80 17 00
        E 0 80 0e 00
        E 0 80 0b 00
        E 0 80 08 00
        E 0 90 06 60
        E 0 90 15 60
        E 0 90 12 60
        E 0 90 18 60
        E 0 90 0f 60
        E 0 90 0c 60
        E 0 90 09 60
        E 480 80 06 00
        E 0 80 15 00
        E 0 80 12 00
        E 0 80 18 00
        E 0 80 0f 00
        E 0 80 0c 00
        E 0 80 09 00
        E 0 90 12 60
        E 0 90 07 60
        E 0 90 0e 60
        E 0 90 0a 60
        E 360 90 16 60
        E 120 80 12 00
        E 0 80 07 00
        E 0 80 0e 00
        E 0 80 0a 00
        E 0 90 13 60
        E 0 90 05 60
        E 0 90 0f 60
        E 0 90 0b 60
        E 0 90 08 60
        E 360 80 16 00
        E 0 90 17 60
        E 120 80 13 00
        E 0 80 05 00
        E 0 80 0f 00
        E 0 80 0b 00
        E 0 80 08 00
        E 0 90 14 60
        E 0 90 06 60
        E 0 90 0c 60
        E 0 90 09 60
        E 0 90 10 60
        E 360 80 17 00
        E 0 90 18 60
        E 120 80 14 00
        E 0 80 06 00
        E 0 80 0c 00
        E 0 80 09 00
        E 0 80 10 00
        E 0 90 15 60
        E 0 90 07 60
        E 0 90 0d 60
        E 0 90 0a 60
        E 0 90 11 60
        E 360 80 18 00
        E 120 80 15 00
        E 0 80 07 00
        E 0 80 0d 00
        E 0 80 0a 00
        E 0 80 11 00
        E 0 90 16 60
        E 0 90 05 60
        E 0 90 0e 60
        E 0 90 0b 60
        E 0 90 08 60
        E 0 90 12 60
        E 480 80 16 00
        E 0 80 05 00
        E 0 80 0e 00
        E 0 80 0b 00
        E 0 80 08 00
        E 0 80 12 00
        E 0 90 17 60
        E 0 90 06 60
        E 0 90 0f 60
        E 0 90 0c 60
        E 0 90 09 60
        E 0 90 13 60
        E 360 90 10 60
        E 120 80 17 00
        E 0 80 06 00
        E 0 80 0f 00
        E 0 80 0c 00
        E 0 80 09 00
        E 0 80 13 00
        E 0 90 07 60
        E 0 90 0d 60
        E 0 90 0a 60
        E 0 90 14 60
        E 0 90 18 60
        E 360 80 10 00
        E 0 90 11 60
        E 120 80 07 00
        E 0 80 0d 00
        E 0 80 0a 00
        E 0 80 14 00
        E 0 80 18 00
        E 0 90 05 60
        E 0 90 0e 60
        E 0 90 0b 60
        E 0 90 15 60
        E 0 90 08 60
        E 0 90 19 60
        E 360 80 11 00
        E 0 90 12 60
        E 120 80 05 00
        E 0 80 0e 00
        E 0 80 0b 00
        E 0 80 15 00
        E 0 80 08 00
        E 0 80 19 00
        E 0 90 06 60
        E 0 90 0f 60
        E 0 90 0c 60
        E 0 90 16 60
        E 0 90 09 60
        E 0 90 1a 60
        E 480 80 12 00
        E 0 80 06 00
        E 0 80 0f 00
        E 0 80 0c 00
        E 0 80 16 00
        E 0 80 09 00
        E 0 80 1a 00
        E 0 90 07 60
        E 0 90 0d 60
        E 0 90 17 60
        E 0 90 10 60
        E 0 90 13 60
        E 0 90 0a 60
        E 480 80 07 00
        E 0 80 0d 00
        E 0 80 17 00
        E 0 80 10 00
        E 0 80 13 00
        E 0 80 0a 00
        E 0 90 05 60
        E 0 90 0e 60
        E 0 90 18 60
        E 0 90 11 60
        E 0 90 14 60
        E 0 90 0b 60
        E 0 90 08 60
        E 480 80 05 00
        E 0 80 0e 00
        E 0 80 18 00
        E 0 80 11 00
        E 0 80 14 00
        E 0 80 0b 00
        E 0 80 08 00
        E 0 90 06 60
        E 0 90 0f 60
        E 0 90 12 60
        E 0 90 15 60
        E 0 90 0c 60
        E 0 90 09 60
        E 0 90 19 60
        E 480 80 06 00
        E 0 80 0f 00
        E 0 80 12 00
        E 0 80 15 00
        E 0 80 0c 00
        E 0 80 09 00
        E 0 80 19 00
        E 0 90 07 60
        E 0 90 13 60
        E 0 90 16 60
        E 0 90 10 60
        E 0 90 0d 60
        E 0 90 0a 60
        E 0 90 1a 60
        E 360 90 05 60
        E 120 80 07 00
        E 0 80 13 00
        E 0 80 16 00
        E 0 80 10 00
        E 0 80 0d 00
        E 0 80 0a 00
        E 0 80 1a 00
        E 0 90 14 60
        E 0 90 11 60
        E 0 90 17 60
        E 0 90 0e 60
        E 0 90 0b 60
        E 0 90 08 60
        E 360 80 05 00
        E 0 90 06 60
        E 120 80 14 00
        E 0 80 11 00
        E 0 80 17 00
        E 0 80 0e 00
        E 0 80 0b 00
        E 0 90 15 60
        E 0 90 12 60
        E 0 90 18 60
        E 0 90 0f 60
        E 0 90 0c 60
        E 120 80 08 00
        E 0 90 09 60
        E 240 80 06 00
        E 0 90 07 60
        E 120 80 15 00
        E 0 80 12 00
        E 0 80 18 00
        E 0 80 0f 00
        E 0 80 0c 00
        E 0 90 19 60
        E 0 90 16 60
        E 0 90 13 60
        E 0 90 0d 60
        E 0 90 11 60
        E 120 80 09 00
        E 0 90 0a 60
        E 240 80 07 00
        E 0 90 08 60
        E 120 80 19 00
        E 0 80 16 00
        E 0 80 13 00
        E 0 80 0d 00
        E 0 80 11 00
        E 0 90 1a 60
        E 0 90 17 60
        E 0 90 14 60
        E 0 90 0e 60
        E 0 90 12 60
        E 120 80 0a 00
        E 0 90 0b 60
        E 240 80 08 00
        E 0 90 09 60
        E 120 80 1a 00
        E 0 80 17 00
        E 0 80 14 00
        E 0 80 0e 00
        E 0 80 12 00
        E 0 90 18 60
        E 0 90 15 60
        E 0 90 0f 60
        E 0 90 13 60
        E 120 80 0b 00
        E 0 90 0c 60
        E 240 80 09 00
        E 0 90 0a 60
        E 120 80 18 00
        E 0 80 15 00
        E 0 80 0f 00
        E 0 80 13 00
        E 0 90 19 60
        E 0 90 16 60
        E 0 90 10 60
        E 0 90 14 60
        E 120 80 0c 00
        E 0 90 0d 60
        E 240 80 0a 00
        E 0 90 0b 60
        E 120 80 19 00
        E 0 80 16 00
        E 0 80 10 00
        E 0 80 14 00
        E 0 90 11 60
        E 0 90 1a 60
        E 0 90 17 60
        E 0 90 15 60
        E 120 80 0d 00
        E 0 90 0e 60
        E 240 80 0b 00
        E 0 90 0c 60
        E 120 80 11 00
        E 0 80 1a 00
        E 0 80 17 00
        E 0 80 15 00
        E 0 90 12 60
        E 0 90 1b 60
        E 0 90 18 60
        E 0 90 16 60
        E 120 80 0e 00
        E 0 90 0f 60
        E 240 80 0c 00
        E 0 90 0d 60
        E 120 80 12 00
        E 0 80 1b 00
        E 0 80 18 00
        E 0 80 16 00
        E 0 90 13 60
        E 0 90 17 60
        E 0 90 19 61
        E 120 80 0f 00
        E 0 90 10 60
        E 240 80 0d 00
        E 0 90 0e 60
        E 120 80 13 00
        E 0 80 17 00
        E 0 80 19 00
        E 0 90 14 60
        E 0 90 18 60
        E 0 90 1a 60
        E 120 80 10 00
        E 0 90 11 60
        E 240 80 0e 00
        E 0 90 0f 60
        E 120 80 14 00
        E 0 80 18 00
        E 0 80 1a 00
        E 0 90 15 60
        E 0 90 19 60
        E 120 80 11 00
        E 0 90 12 60
        E 240 80 0f 00
        E 0 90 10 60
        E 120 80 15 00
        E 0 80 19 00
        E 0 90 16 60
        E 0 90 1a 60
        E 120 80 12 00
        E 0 90 13 60
        E 240 80 10 00
        E 120 80 16 00
        E 0 80 1a 00
        E 120 80 13 00
        E 3536400 b0 7b 00
        CCINTERP 32
        CHASE_CC_TAKEOFFS 1
        GUID {E803C4E2-E7B1-5C48-8BAE-F5D658905010}
        IGNTEMPO 0 120 4 4
        SRCCOLOR 0
        VELLANE -1 100 0
        CFGEDITVIEW 801272.254745 0.015293 67 12 0 -1 0 0 0 0.5
        KEYSNAP 0
        TRACKSEL 0
        EVTFILTER 0 -1 -1 -1 -1 0 0 0 0 -1 -1 -1 -1 0 -1 0 -1 -1
        CFGEDIT 1 1 0 1 0 0 1 1 1 1 1 0.125 0 78 1792 1095 0 0 0 1 0 0 0 0 0 0.5 0 0 1 64
      >
      <VOLENV
        EGUID {B89D8D67-1DFD-DA45-B933-E584640A6E67}
        ACT 1 -1
        VIS 1 1 1
        LANEHEIGHT 0 0
        ARM 0
        DEFSHAPE 0 -1 -1
        VOLTYPE 1
        PT 0 0.3801894 0 0 1
      >
    >
  >
  <TRACK {2728A5F3-0125-1544-9238-F7CF53C916F1}
    NAME "oben od - c1 "
    PEAKCOL 16576
    BEAT -1
    AUTOMODE 0
    VOLPAN 1 0 -1 -1 1
    MUTESOLO 0 2 0
    IPHASE 0
    PLAYOFFS 0 1
    ISBUS 0 0
    BUSCOMP 0 0 0 0 0
    SHOWINMIX 1 0.6667 0.5 1 0.5 0 -1 0
    FREEMODE 0
    SEL 0
    REC 0 0 1 0 0 0 0
    VU 2
    TRACKHEIGHT 0 0 0 0 0 0
    INQ 0 0 0 0.5 100 0 0 100
    NCHAN 2
    FX 0
    TRACKID {2728A5F3-0125-1544-9238-F7CF53C916F1}
    PERF 0
    MIDIOUT 34
    MAINSEND 1 0
    <FXCHAIN
      WNDRECT 32 384 1032 679
      SHOW 0
      LASTSEL 0
      DOCKED 0
      BYPASS 0 0 0
      <AU "AUi: AUSampler (Apple)" "Apple: AUSampler" "" 1635085685 1935764848 1634758764
        6QMAAAAAAAAAAAAAAgAAAAEAAAAAAAAAAgAAAAAAAACZHQAAPD94bWwgdmVyc2lvbj0iMS4wIiBlbmNvZGluZz0iVVRGLTgiPz4KPCFET0NUWVBFIHBsaXN0IFBVQkxJ
        QyAiLS8vQXBwbGUvL0RURCBQTElTVCAxLjAvL0VOIiAiaHR0cDovL3d3dy5hcHBsZS5jb20vRFREcy9Qcm9wZXJ0eUxpc3QtMS4wLmR0ZCI+CjxwbGlzdCB2ZXJzaW9u
        PSIxLjAiPgo8ZGljdD4KCTxrZXk+QVUgdmVyc2lvbjwva2V5PgoJPHJlYWw+MTwvcmVhbD4KCTxrZXk+SW5zdHJ1bWVudDwva2V5PgoJPGRpY3Q+CgkJPGtleT5MYXll
        cnM8L2tleT4KCQk8YXJyYXk+CgkJCTxkaWN0PgoJCQkJPGtleT5BbXBsaWZpZXI8L2tleT4KCQkJCTxkaWN0PgoJCQkJCTxrZXk+SUQ8L2tleT4KCQkJCQk8aW50ZWdl
        cj4wPC9pbnRlZ2VyPgoJCQkJCTxrZXk+ZW5hYmxlZDwva2V5PgoJCQkJCTx0cnVlLz4KCQkJCTwvZGljdD4KCQkJCTxrZXk+Q29ubmVjdGlvbnM8L2tleT4KCQkJCTxh
        cnJheT4KCQkJCQk8ZGljdD4KCQkJCQkJPGtleT5JRDwva2V5PgoJCQkJCQk8aW50ZWdlcj4wPC9pbnRlZ2VyPgoJCQkJCQk8a2V5PmNvbnRyb2w8L2tleT4KCQkJCQkJ
        PGludGVnZXI+MDwvaW50ZWdlcj4KCQkJCQkJPGtleT5kZXN0aW5hdGlvbjwva2V5PgoJCQkJCQk8aW50ZWdlcj44MTY4NDA3MDQ8L2ludGVnZXI+CgkJCQkJCTxrZXk+
        ZW5hYmxlZDwva2V5PgoJCQkJCQk8dHJ1ZS8+CgkJCQkJCTxrZXk+aW52ZXJzZTwva2V5PgoJCQkJCQk8ZmFsc2UvPgoJCQkJCQk8a2V5PnNjYWxlPC9rZXk+CgkJCQkJ
        CTxyZWFsPjEyODAwPC9yZWFsPgoJCQkJCQk8a2V5PnNvdXJjZTwva2V5PgoJCQkJCQk8aW50ZWdlcj4zMDA8L2ludGVnZXI+CgkJCQkJCTxrZXk+dHJhbnNmb3JtPC9r
        ZXk+CgkJCQkJCTxpbnRlZ2VyPjE8L2ludGVnZXI+CgkJCQkJPC9kaWN0PgoJCQkJCTxkaWN0PgoJCQkJCQk8a2V5PklEPC9rZXk+CgkJCQkJCTxpbnRlZ2VyPjE8L2lu
        dGVnZXI+CgkJCQkJCTxrZXk+Y29udHJvbDwva2V5PgoJCQkJCQk8aW50ZWdlcj4wPC9pbnRlZ2VyPgoJCQkJCQk8a2V5PmRlc3RpbmF0aW9uPC9rZXk+CgkJCQkJCTxp
        bnRlZ2VyPjEzNDMyMjU4NTY8L2ludGVnZXI+CgkJCQkJCTxrZXk+ZW5hYmxlZDwva2V5PgoJCQkJCQk8dHJ1ZS8+CgkJCQkJCTxrZXk+aW52ZXJzZTwva2V5PgoJCQkJ
        CQk8dHJ1ZS8+CgkJCQkJCTxrZXk+c2NhbGU8L2tleT4KCQkJCQkJPHJlYWw+LTk2PC9yZWFsPgoJCQkJCQk8a2V5PnNvdXJjZTwva2V5PgoJCQkJCQk8aW50ZWdlcj4z
        MDE8L2ludGVnZXI+CgkJCQkJCTxrZXk+dHJhbnNmb3JtPC9rZXk+CgkJCQkJCTxpbnRlZ2VyPjI8L2ludGVnZXI+CgkJCQkJPC9kaWN0PgoJCQkJCTxkaWN0PgoJCQkJ
        CQk8a2V5PklEPC9rZXk+CgkJCQkJCTxpbnRlZ2VyPjI8L2ludGVnZXI+CgkJCQkJCTxrZXk+Y29udHJvbDwva2V5PgoJCQkJCQk8aW50ZWdlcj4wPC9pbnRlZ2VyPgoJ
        CQkJCQk8a2V5PmRlc3RpbmF0aW9uPC9rZXk+CgkJCQkJCTxpbnRlZ2VyPjEzNDMyMjU4NTY8L2ludGVnZXI+CgkJCQkJCTxrZXk+ZW5hYmxlZDwva2V5PgoJCQkJCQk8
        dHJ1ZS8+CgkJCQkJCTxrZXk+aW52ZXJzZTwva2V5PgoJCQkJCQk8dHJ1ZS8+CgkJCQkJCTxrZXk+c2NhbGU8L2tleT4KCQkJCQkJPHJlYWw+LTk2PC9yZWFsPgoJCQkJ
        CQk8a2V5PnNvdXJjZTwva2V5PgoJCQkJCQk8aW50ZWdlcj43PC9pbnRlZ2VyPgoJCQkJCQk8a2V5PnRyYW5zZm9ybTwva2V5PgoJCQkJCQk8aW50ZWdlcj4yPC9pbnRl
        Z2VyPgoJCQkJCTwvZGljdD4KCQkJCQk8ZGljdD4KCQkJCQkJPGtleT5JRDwva2V5PgoJCQkJCQk8aW50ZWdlcj4zPC9pbnRlZ2VyPgoJCQkJCQk8a2V5PmNvbnRyb2w8
        L2tleT4KCQkJCQkJPGludGVnZXI+MDwvaW50ZWdlcj4KCQkJCQkJPGtleT5kZXN0aW5hdGlvbjwva2V5PgoJCQkJCQk8aW50ZWdlcj4xMzQzMjI1ODU2PC9pbnRlZ2Vy
        PgoJCQkJCQk8a2V5PmVuYWJsZWQ8L2tleT4KCQkJCQkJPHRydWUvPgoJCQkJCQk8a2V5PmludmVyc2U8L2tleT4KCQkJCQkJPHRydWUvPgoJCQkJCQk8a2V5PnNjYWxl
        PC9rZXk+CgkJCQkJCTxyZWFsPi05NjwvcmVhbD4KCQkJCQkJPGtleT5zb3VyY2U8L2tleT4KCQkJCQkJPGludGVnZXI+MTE8L2ludGVnZXI+CgkJCQkJCTxrZXk+dHJh
        bnNmb3JtPC9rZXk+CgkJCQkJCTxpbnRlZ2VyPjI8L2ludGVnZXI+CgkJCQkJPC9kaWN0PgoJCQkJCTxkaWN0PgoJCQkJCQk8a2V5PklEPC9rZXk+CgkJCQkJCTxpbnRl
        Z2VyPjQ8L2ludGVnZXI+CgkJCQkJCTxrZXk+Y29udHJvbDwva2V5PgoJCQkJCQk8aW50ZWdlcj4wPC9pbnRlZ2VyPgoJCQkJCQk8a2V5PmRlc3RpbmF0aW9uPC9rZXk+
        CgkJCQkJCTxpbnRlZ2VyPjEzNDQyNzQ0MzI8L2ludGVnZXI+CgkJCQkJCTxrZXk+ZW5hYmxlZDwva2V5PgoJCQkJCQk8dHJ1ZS8+CgkJCQkJCTxrZXk+aW52ZXJzZTwv
        a2V5PgoJCQkJCQk8ZmFsc2UvPgoJCQkJCQk8a2V5Pm1heCB2YWx1ZTwva2V5PgoJCQkJCQk8cmVhbD4wLjUwODAwMDAxNjIxMjQ2MzM4PC9yZWFsPgoJCQkJCQk8a2V5
        Pm1pbiB2YWx1ZTwva2V5PgoJCQkJCQk8cmVhbD4tMC41MDgwMDAwMTYyMTI0NjMzODwvcmVhbD4KCQkJCQkJPGtleT5zb3VyY2U8L2tleT4KCQkJCQkJPGludGVnZXI+
        MTA8L2ludGVnZXI+CgkJCQkJCTxrZXk+dHJhbnNmb3JtPC9rZXk+CgkJCQkJCTxpbnRlZ2VyPjE8L2ludGVnZXI+CgkJCQkJPC9kaWN0PgoJCQkJCTxkaWN0PgoJCQkJ
        CQk8a2V5PklEPC9rZXk+CgkJCQkJCTxpbnRlZ2VyPjc8L2ludGVnZXI+CgkJCQkJCTxrZXk+Y29udHJvbDwva2V5PgoJCQkJCQk8aW50ZWdlcj4yNDE8L2ludGVnZXI+
        CgkJCQkJCTxrZXk+ZGVzdGluYXRpb248L2tleT4KCQkJCQkJPGludGVnZXI+ODE2ODQwNzA0PC9pbnRlZ2VyPgoJCQkJCQk8a2V5PmVuYWJsZWQ8L2tleT4KCQkJCQkJ
        PHRydWUvPgoJCQkJCQk8a2V5PmludmVyc2U8L2tleT4KCQkJCQkJPGZhbHNlLz4KCQkJCQkJPGtleT5tYXggdmFsdWU8L2tleT4KCQkJCQkJPHJlYWw+MTI4MDA8L3Jl
        YWw+CgkJCQkJCTxrZXk+bWluIHZhbHVlPC9rZXk+CgkJCQkJCTxyZWFsPi0xMjgwMDwvcmVhbD4KCQkJCQkJPGtleT5zb3VyY2U8L2tleT4KCQkJCQkJPGludGVnZXI+
        MjI0PC9pbnRlZ2VyPgoJCQkJCQk8a2V5PnRyYW5zZm9ybTwva2V5PgoJCQkJCQk8aW50ZWdlcj4xPC9pbnRlZ2VyPgoJCQkJCTwvZGljdD4KCQkJCQk8ZGljdD4KCQkJ
        CQkJPGtleT5JRDwva2V5PgoJCQkJCQk8aW50ZWdlcj44PC9pbnRlZ2VyPgoJCQkJCQk8a2V5PmNvbnRyb2w8L2tleT4KCQkJCQkJPGludGVnZXI+MDwvaW50ZWdlcj4K
        CQkJCQkJPGtleT5kZXN0aW5hdGlvbjwva2V5PgoJCQkJCQk8aW50ZWdlcj44MTY4NDA3MDQ8L2ludGVnZXI+CgkJCQkJCTxrZXk+ZW5hYmxlZDwva2V5PgoJCQkJCQk8
        dHJ1ZS8+CgkJCQkJCTxrZXk+aW52ZXJzZTwva2V5PgoJCQkJCQk8ZmFsc2UvPgoJCQkJCQk8a2V5Pm1heCB2YWx1ZTwva2V5PgoJCQkJCQk8cmVhbD4xMDA8L3JlYWw+
        CgkJCQkJCTxrZXk+bWluIHZhbHVlPC9rZXk+CgkJCQkJCTxyZWFsPi0xMDA8L3JlYWw+CgkJCQkJCTxrZXk+c291cmNlPC9rZXk+CgkJCQkJCTxpbnRlZ2VyPjI0Mjwv
        aW50ZWdlcj4KCQkJCQkJPGtleT50cmFuc2Zvcm08L2tleT4KCQkJCQkJPGludGVnZXI+MTwvaW50ZWdlcj4KCQkJCQk8L2RpY3Q+CgkJCQkJPGRpY3Q+CgkJCQkJCTxr
        ZXk+SUQ8L2tleT4KCQkJCQkJPGludGVnZXI+NjwvaW50ZWdlcj4KCQkJCQkJPGtleT5jb250cm9sPC9rZXk+CgkJCQkJCTxpbnRlZ2VyPjE8L2ludGVnZXI+CgkJCQkJ
        CTxrZXk+ZGVzdGluYXRpb248L2tleT4KCQkJCQkJPGludGVnZXI+ODE2ODQwNzA0PC9pbnRlZ2VyPgoJCQkJCQk8a2V5PmVuYWJsZWQ8L2tleT4KCQkJCQkJPHRydWUv
        PgoJCQkJCQk8a2V5PmludmVyc2U8L2tleT4KCQkJCQkJPGZhbHNlLz4KCQkJCQkJPGtleT5tYXggdmFsdWU8L2tleT4KCQkJCQkJPHJlYWw+NTA8L3JlYWw+CgkJCQkJ
        CTxrZXk+bWluIHZhbHVlPC9rZXk+CgkJCQkJCTxyZWFsPi01MDwvcmVhbD4KCQkJCQkJPGtleT5zb3VyY2U8L2tleT4KCQkJCQkJPGludGVnZXI+MjY4NDM1NDU2PC9p
        bnRlZ2VyPgoJCQkJCQk8a2V5PnRyYW5zZm9ybTwva2V5PgoJCQkJCQk8aW50ZWdlcj4xPC9pbnRlZ2VyPgoJCQkJCTwvZGljdD4KCQkJCQk8ZGljdD4KCQkJCQkJPGtl
        eT5JRDwva2V5PgoJCQkJCQk8aW50ZWdlcj41PC9pbnRlZ2VyPgoJCQkJCQk8a2V5PmNvbnRyb2w8L2tleT4KCQkJCQkJPGludGVnZXI+MDwvaW50ZWdlcj4KCQkJCQkJ
        PGtleT5kZXN0aW5hdGlvbjwva2V5PgoJCQkJCQk8aW50ZWdlcj4xMzQzMjI1ODU2PC9pbnRlZ2VyPgoJCQkJCQk8a2V5PmVuYWJsZWQ8L2tleT4KCQkJCQkJPHRydWUv
        PgoJCQkJCQk8a2V5PmludmVyc2U8L2tleT4KCQkJCQkJPHRydWUvPgoJCQkJCQk8a2V5PnNjYWxlPC9rZXk+CgkJCQkJCTxyZWFsPi05NjwvcmVhbD4KCQkJCQkJPGtl
        eT5zb3VyY2U8L2tleT4KCQkJCQkJPGludGVnZXI+NTM2ODcwOTEyPC9pbnRlZ2VyPgoJCQkJCQk8a2V5PnRyYW5zZm9ybTwva2V5PgoJCQkJCQk8aW50ZWdlcj4xPC9p
        bnRlZ2VyPgoJCQkJCTwvZGljdD4KCQkJCTwvYXJyYXk+CgkJCQk8a2V5PkVudmVsb3Blczwva2V5PgoJCQkJPGFycmF5PgoJCQkJCTxkaWN0PgoJCQkJCQk8a2V5PklE
        PC9rZXk+CgkJCQkJCTxpbnRlZ2VyPjA8L2ludGVnZXI+CgkJCQkJCTxrZXk+U3RhZ2VzPC9rZXk+CgkJCQkJCTxhcnJheT4KCQkJCQkJCTxkaWN0PgoJCQkJCQkJCTxr
        ZXk+Y3VydmU8L2tleT4KCQkJCQkJCQk8aW50ZWdlcj4yMDwvaW50ZWdlcj4KCQkJCQkJCQk8a2V5PnN0YWdlPC9rZXk+CgkJCQkJCQkJPGludGVnZXI+MDwvaW50ZWdl
        cj4KCQkJCQkJCQk8a2V5PnRpbWU8L2tleT4KCQkJCQkJCQk8cmVhbD4wLjA8L3JlYWw+CgkJCQkJCQk8L2RpY3Q+CgkJCQkJCQk8ZGljdD4KCQkJCQkJCQk8a2V5PmN1
        cnZlPC9rZXk+CgkJCQkJCQkJPGludGVnZXI+MjI8L2ludGVnZXI+CgkJCQkJCQkJPGtleT5zdGFnZTwva2V5PgoJCQkJCQkJCTxpbnRlZ2VyPjE8L2ludGVnZXI+CgkJ
        CQkJCQkJPGtleT50aW1lPC9rZXk+CgkJCQkJCQkJPHJlYWw+MC4wPC9yZWFsPgoJCQkJCQkJPC9kaWN0PgoJCQkJCQkJPGRpY3Q+CgkJCQkJCQkJPGtleT5jdXJ2ZTwv
        a2V5PgoJCQkJCQkJCTxpbnRlZ2VyPjIwPC9pbnRlZ2VyPgoJCQkJCQkJCTxrZXk+c3RhZ2U8L2tleT4KCQkJCQkJCQk8aW50ZWdlcj4yPC9pbnRlZ2VyPgoJCQkJCQkJ
        CTxrZXk+dGltZTwva2V5PgoJCQkJCQkJCTxyZWFsPjAuMDwvcmVhbD4KCQkJCQkJCTwvZGljdD4KCQkJCQkJCTxkaWN0PgoJCQkJCQkJCTxrZXk+Y3VydmU8L2tleT4K
        CQkJCQkJCQk8aW50ZWdlcj4yMDwvaW50ZWdlcj4KCQkJCQkJCQk8a2V5PnN0YWdlPC9rZXk+CgkJCQkJCQkJPGludGVnZXI+MzwvaW50ZWdlcj4KCQkJCQkJCQk8a2V5
        PnRpbWU8L2tleT4KCQkJCQkJCQk8cmVhbD4wLjA8L3JlYWw+CgkJCQkJCQk8L2RpY3Q+CgkJCQkJCQk8ZGljdD4KCQkJCQkJCQk8a2V5PmxldmVsPC9rZXk+CgkJCQkJ
        CQkJPHJlYWw+MTwvcmVhbD4KCQkJCQkJCQk8a2V5PnN0YWdlPC9rZXk+CgkJCQkJCQkJPGludGVnZXI+NDwvaW50ZWdlcj4KCQkJCQkJCTwvZGljdD4KCQkJCQkJCTxk
        aWN0PgoJCQkJCQkJCTxrZXk+Y3VydmU8L2tleT4KCQkJCQkJCQk8aW50ZWdlcj4yMDwvaW50ZWdlcj4KCQkJCQkJCQk8a2V5PnN0YWdlPC9rZXk+CgkJCQkJCQkJPGlu
        dGVnZXI+NTwvaW50ZWdlcj4KCQkJCQkJCQk8a2V5PnRpbWU8L2tleT4KCQkJCQkJCQk8cmVhbD4wLjA8L3JlYWw+CgkJCQkJCQk8L2RpY3Q+CgkJCQkJCQk8ZGljdD4K
        CQkJCQkJCQk8a2V5PmN1cnZlPC9rZXk+CgkJCQkJCQkJPGludGVnZXI+MjA8L2ludGVnZXI+CgkJCQkJCQkJPGtleT5zdGFnZTwva2V5PgoJCQkJCQkJCTxpbnRlZ2Vy
        PjY8L2ludGVnZXI+CgkJCQkJCQkJPGtleT50aW1lPC9rZXk+CgkJCQkJCQkJPHJlYWw+MC4wMDQ5OTk5OTk4ODgyNDEyOTE8L3JlYWw+CgkJCQkJCQk8L2RpY3Q+CgkJ
        CQkJCTwvYXJyYXk+CgkJCQkJCTxrZXk+ZW5hYmxlZDwva2V5PgoJCQkJCQk8dHJ1ZS8+CgkJCQkJPC9kaWN0PgoJCQkJPC9hcnJheT4KCQkJCTxrZXk+RmlsdGVyczwv
        a2V5PgoJCQkJPGRpY3Q+CgkJCQkJPGtleT5JRDwva2V5PgoJCQkJCTxpbnRlZ2VyPjA8L2ludGVnZXI+CgkJCQkJPGtleT5jdXRvZmY8L2tleT4KCQkJCQk8cmVhbD4y
        MDAwMDwvcmVhbD4KCQkJCQk8a2V5PmVuYWJsZWQ8L2tleT4KCQkJCQk8ZmFsc2UvPgoJCQkJCTxrZXk+cmVzb25hbmNlPC9rZXk+CgkJCQkJPHJlYWw+LTM8L3JlYWw+
        CgkJCQk8L2RpY3Q+CgkJCQk8a2V5PklEPC9rZXk+CgkJCQk8aW50ZWdlcj4wPC9pbnRlZ2VyPgoJCQkJPGtleT5MRk9zPC9rZXk+CgkJCQk8YXJyYXk+CgkJCQkJPGRp
        Y3Q+CgkJCQkJCTxrZXk+SUQ8L2tleT4KCQkJCQkJPGludGVnZXI+MDwvaW50ZWdlcj4KCQkJCQkJPGtleT5lbmFibGVkPC9rZXk+CgkJCQkJCTx0cnVlLz4KCQkJCQk8
        L2RpY3Q+CgkJCQk8L2FycmF5PgoJCQkJPGtleT5Pc2NpbGxhdG9yPC9rZXk+CgkJCQk8ZGljdD4KCQkJCQk8a2V5PklEPC9rZXk+CgkJCQkJPGludGVnZXI+MDwvaW50
        ZWdlcj4KCQkJCQk8a2V5PmVuYWJsZWQ8L2tleT4KCQkJCQk8dHJ1ZS8+CgkJCQk8L2RpY3Q+CgkJCQk8a2V5PlpvbmVzPC9rZXk+CgkJCQk8YXJyYXk+CgkJCQkJPGRp
        Y3Q+CgkJCQkJCTxrZXk+SUQ8L2tleT4KCQkJCQkJPGludGVnZXI+MDwvaW50ZWdlcj4KCQkJCQkJPGtleT5lbmFibGVkPC9rZXk+CgkJCQkJCTx0cnVlLz4KCQkJCQkJ
        PGtleT5sb29wIGVuYWJsZWQ8L2tleT4KCQkJCQkJPHRydWUvPgoJCQkJCQk8a2V5PnJvb3Qga2V5PC9rZXk+CgkJCQkJCTxpbnRlZ2VyPjY5PC9pbnRlZ2VyPgoJCQkJ
        CQk8a2V5PndhdmVmb3JtPC9rZXk+CgkJCQkJCTxpbnRlZ2VyPi0yPC9pbnRlZ2VyPgoJCQkJCTwvZGljdD4KCQkJCTwvYXJyYXk+CgkJCTwvZGljdD4KCQk8L2FycmF5
        PgoJCTxrZXk+bmFtZTwva2V5PgoJCTxzdHJpbmc+RGVmYXVsdCBJbnN0cnVtZW50PC9zdHJpbmc+Cgk8L2RpY3Q+Cgk8a2V5PmNvYXJzZSB0dW5lPC9rZXk+Cgk8aW50
        ZWdlcj4wPC9pbnRlZ2VyPgoJPGtleT5kYXRhPC9rZXk+Cgk8ZGF0YT4KCUFBQUFBQUFBQUFBQUFBQUVBQUFEaEFBQUFBQUFBQU9GQUFBQUFBQUFBNFlBQUFBQUFBQURo
        d0FBQUFBPQoJPC9kYXRhPgoJPGtleT5maWxlLXJlZmVyZW5jZXM8L2tleT4KCTxkaWN0Lz4KCTxrZXk+ZmluZSB0dW5lPC9rZXk+Cgk8cmVhbD4wLjA8L3JlYWw+Cgk8
        a2V5PmdhaW48L2tleT4KCTxyZWFsPjAuMDwvcmVhbD4KCTxrZXk+bWFudWZhY3R1cmVyPC9rZXk+Cgk8aW50ZWdlcj4xNjM0NzU4NzY0PC9pbnRlZ2VyPgoJPGtleT5u
        YW1lPC9rZXk+Cgk8c3RyaW5nPlVudGl0bGVkPC9zdHJpbmc+Cgk8a2V5Pm91dHB1dDwva2V5PgoJPGludGVnZXI+MDwvaW50ZWdlcj4KCTxrZXk+cGFuPC9rZXk+Cgk8
        cmVhbD4wLjA8L3JlYWw+Cgk8a2V5PnN1YnR5cGU8L2tleT4KCTxpbnRlZ2VyPjE5MzU3NjQ4NDg8L2ludGVnZXI+Cgk8a2V5PnR5cGU8L2tleT4KCTxpbnRlZ2VyPjE2
        MzUwODU2ODU8L2ludGVnZXI+Cgk8a2V5PnZlcnNpb248L2tleT4KCTxpbnRlZ2VyPjA8L2ludGVnZXI+Cgk8a2V5PnZvaWNlIGNvdW50PC9rZXk+Cgk8aW50ZWdlcj42
        NDwvaW50ZWdlcj4KPC9kaWN0Pgo8L3BsaXN0PgoBAAAAAAAAAAAA
      >
      FLOATPOS 0 0 0 0
      FXID {82FDED0E-68FD-6943-9897-AEAFD763C5CC}
      WAK 0 0
    >
    <ITEM
      POSITION 0
      SNAPOFFS 0
      LENGTH 2415.2668680202178
      LOOP 1
      ALLTAKES 0
      FADEIN 1 0 0 1 0 0 0
      FADEOUT 1 0 0 1 0 0 0
      MUTE 0 0
      SEL 0
      IGUID {DC3404B4-4917-8245-A0A9-9089AE0C5C8A}
      IID 1
      NAME "untitled MIDI item"
      VOLPAN 1 0 1 -1
      SOFFS 0 0
      PLAYRATE 1 1 0 -1 0 0.0025
      CHANMODE 0
      GUID {F03A81BF-7ECF-C84E-BC50-98B92E22DC47}
      <SOURCE MIDI
        HASDATA 1 960 QN
        CCINTERP 32
        POOLEDEVTS {E75BAB59-A3E2-D745-B854-71211D3D6744}
        E 50760 90 0f 7f
        E 120 80 0f 00
        E 0 90 10 7f
        E 120 80 10 00
        E 0 90 0f 7f
        E 120 80 0f 00
        E 87120 90 00 60
        E 0 90 01 60
        E 0 90 03 60
        E 0 90 02 60
        E 0 90 04 60
        E 0 90 05 60
        E 0 90 06 60
        E 0 90 07 60
        E 0 90 08 60
        E 0 90 09 60
        E 0 90 0a 60
        E 480 80 00 00
        E 0 80 01 00
        E 0 80 03 00
        E 0 80 02 00
        E 0 80 04 00
        E 0 80 05 00
        E 0 80 06 00
        E 0 80 07 00
        E 0 80 08 00
        E 0 80 09 00
        E 0 80 0a 00
        E 480 90 00 60
        E 0 90 01 60
        E 0 90 03 60
        E 0 90 02 60
        E 0 90 04 60
        E 0 90 05 60
        E 0 90 06 60
        E 0 90 07 60
        E 0 90 08 60
        E 0 90 09 60
        E 0 90 0a 60
        E 480 80 00 00
        E 0 80 01 00
        E 0 80 03 00
        E 0 80 02 00
        E 0 80 04 00
        E 0 80 05 00
        E 0 80 06 00
        E 0 80 07 00
        E 0 80 08 00
        E 0 80 09 00
        E 0 80 0a 00
        E 480 90 00 60
        E 0 90 01 60
        E 0 90 03 60
        E 0 90 02 60
        E 0 90 04 60
        E 0 90 05 60
        E 0 90 06 60
        E 0 90 07 60
        E 0 90 08 60
        E 0 90 09 60
        E 0 90 0a 60
        E 480 80 00 00
        E 0 80 01 00
        E 0 80 03 00
        E 0 80 02 00
        E 0 80 04 00
        E 0 80 05 00
        E 0 80 06 00
        E 0 80 07 00
        E 0 80 08 00
        E 0 80 09 00
        E 0 80 0a 00
        E 480 90 00 60
        E 0 90 01 60
        E 0 90 03 60
        E 0 90 02 60
        E 0 90 04 60
        E 0 90 05 60
        E 0 90 06 60
        E 0 90 07 60
        E 0 90 08 60
        E 0 90 09 60
        E 0 90 0a 60
        E 480 80 00 00
        E 0 80 01 00
        E 0 80 03 00
        E 0 80 02 00
        E 0 80 04 00
        E 0 80 05 00
        E 0 80 06 00
        E 0 80 07 00
        E 0 80 08 00
        E 0 80 09 00
        E 0 80 0a 00
        E 480 90 00 60
        E 0 90 01 60
        E 0 90 03 60
        E 0 90 02 60
        E 0 90 04 60
        E 0 90 05 60
        E 0 90 06 60
        E 0 90 07 60
        E 0 90 08 60
        E 0 90 09 60
        E 0 90 0a 60
        E 480 80 00 00
        E 0 80 01 00
        E 0 80 03 00
        E 0 80 02 00
        E 0 80 04 00
        E 0 80 05 00
        E 0 80 06 00
        E 0 80 07 00
        E 0 80 08 00
        E 0 80 09 00
        E 0 80 0a 00
        E 480 90 00 60
        E 0 90 01 60
        E 0 90 03 60
        E 0 90 02 60
        E 0 90 04 60
        E 0 90 05 60
        E 0 90 06 60
        E 0 90 07 60
        E 0 90 08 60
        E 0 90 09 60
        E 0 90 0a 60
        E 480 80 00 00
        E 0 80 01 00
        E 0 80 03 00
        E 0 80 02 00
        E 0 80 04 00
        E 0 80 05 00
        E 0 80 06 00
        E 0 80 07 00
        E 0 80 08 00
        E 0 80 09 00
        E 0 80 0a 00
        E 480 90 00 60
        E 0 90 01 60
        E 0 90 03 60
        E 0 90 02 60
        E 0 90 04 60
        E 0 90 05 60
        E 0 90 06 60
        E 0 90 07 60
        E 0 90 08 60
        E 0 90 09 60
        E 0 90 0a 60
        E 480 80 00 00
        E 0 80 01 00
        E 0 80 03 00
        E 0 80 02 00
        E 0 80 04 00
        E 0 80 05 00
        E 0 80 06 00
        E 0 80 07 00
        E 0 80 08 00
        E 0 80 09 00
        E 0 80 0a 00
        E 480 90 00 60
        E 0 90 01 60
        E 0 90 03 60
        E 0 90 02 60
        E 0 90 04 60
        E 0 90 05 60
        E 0 90 06 60
        E 0 90 07 60
        E 0 90 08 60
        E 0 90 09 60
        E 0 90 0a 60
        E 480 80 00 00
        E 0 80 01 00
        E 0 80 03 00
        E 0 80 02 00
        E 0 80 04 00
        E 0 80 05 00
        E 0 80 06 00
        E 0 80 07 00
        E 0 80 08 00
        E 0 80 09 00
        E 0 80 0a 00
        E 480 90 00 60
        E 0 90 01 60
        E 0 90 03 60
        E 0 90 02 60
        E 0 90 04 60
        E 0 90 05 60
        E 0 90 06 60
        E 0 90 07 60
        E 0 90 08 60
        E 0 90 09 60
        E 0 90 0a 60
        E 480 80 00 00
        E 0 80 01 00
        E 0 80 03 00
        E 0 80 02 00
        E 0 80 04 00
        E 0 80 05 00
        E 0 80 06 00
        E 0 80 07 00
        E 0 80 08 00
        E 0 80 09 00
        E 0 80 0a 00
        E 480 90 00 60
        E 0 90 01 60
        E 0 90 03 60
        E 0 90 02 60
        E 0 90 04 60
        E 0 90 05 60
        E 0 90 06 60
        E 0 90 07 60
        E 0 90 08 60
        E 0 90 09 60
        E 0 90 0a 60
        E 480 80 00 00
        E 0 80 01 00
        E 0 80 03 00
        E 0 80 02 00
        E 0 80 04 00
        E 0 80 05 00
        E 0 80 06 00
        E 0 80 07 00
        E 0 80 08 00
        E 0 80 09 00
        E 0 80 0a 00
        E 480 90 00 60
        E 0 90 01 60
        E 0 90 03 60
        E 0 90 02 60
        E 0 90 04 60
        E 0 90 05 60
        E 0 90 06 60
        E 0 90 07 60
        E 0 90 08 60
        E 0 90 09 60
        E 0 90 0a 60
        E 480 80 00 00
        E 0 80 01 00
        E 0 80 03 00
        E 0 80 02 00
        E 0 80 04 00
        E 0 80 05 00
        E 0 80 06 00
        E 0 80 07 00
        E 0 80 08 00
        E 0 80 09 00
        E 0 80 0a 00
        E 480 90 00 60
        E 0 90 01 60
        E 0 90 03 60
        E 0 90 02 60
        E 0 90 04 60
        E 0 90 05 60
        E 0 90 06 60
        E 0 90 07 60
        E 0 90 08 60
        E 0 90 09 60
        E 0 90 0a 60
        E 480 80 00 00
        E 0 80 01 00
        E 0 80 03 00
        E 0 80 02 00
        E 0 80 04 00
        E 0 80 05 00
        E 0 80 06 00
        E 0 80 07 00
        E 0 80 08 00
        E 0 80 09 00
        E 0 80 0a 00
        E 480 90 00 60
        E 0 90 01 60
        E 0 90 03 60
        E 0 90 02 60
        E 0 90 04 60
        E 0 90 05 60
        E 0 90 06 60
        E 0 90 07 60
        E 0 90 08 60
        E 0 90 09 60
        E 0 90 0a 60
        E 480 80 00 00
        E 0 80 01 00
        E 0 80 03 00
        E 0 80 02 00
        E 0 80 04 00
        E 0 80 05 00
        E 0 80 06 00
        E 0 80 07 00
        E 0 80 08 00
        E 0 80 09 00
        E 0 80 0a 00
        E 480 90 00 60
        E 0 90 01 60
        E 0 90 03 60
        E 0 90 02 60
        E 0 90 04 60
        E 0 90 05 60
        E 0 90 06 60
        E 0 90 07 60
        E 0 90 08 60
        E 0 90 09 60
        E 0 90 0a 60
        E 480 80 00 00
        E 0 80 01 00
        E 0 80 03 00
        E 0 80 02 00
        E 0 80 04 00
        E 0 80 05 00
        E 0 80 06 00
        E 0 80 07 00
        E 0 80 08 00
        E 0 80 09 00
        E 0 80 0a 00
        E 480 90 00 60
        E 0 90 01 60
        E 0 90 03 60
        E 0 90 02 60
        E 0 90 04 60
        E 0 90 05 60
        E 0 90 06 60
        E 0 90 07 60
        E 0 90 08 60
        E 0 90 09 60
        E 0 90 0a 60
        E 480 80 00 00
        E 0 80 01 00
        E 0 80 03 00
        E 0 80 02 00
        E 0 80 04 00
        E 0 80 05 00
        E 0 80 06 00
        E 0 80 07 00
        E 0 80 08 00
        E 0 80 09 00
        E 0 80 0a 00
        E 480 90 00 60
        E 0 90 01 60
        E 0 90 03 60
        E 0 90 02 60
        E 0 90 04 60
        E 0 90 05 60
        E 0 90 06 60
        E 0 90 07 60
        E 0 90 08 60
        E 0 90 09 60
        E 0 90 0a 60
        E 480 80 00 00
        E 0 80 01 00
        E 0 80 03 00
        E 0 80 02 00
        E 0 80 04 00
        E 0 80 05 00
        E 0 80 06 00
        E 0 80 07 00
        E 0 80 08 00
        E 0 80 09 00
        E 0 80 0a 00
        E 960 90 00 60
        E 0 90 01 60
        E 0 90 03 60
        E 0 90 02 60
        E 0 90 04 60
        E 0 90 05 60
        E 0 90 06 60
        E 0 90 07 60
        E 0 90 08 60
        E 0 90 09 60
        E 0 90 0a 60
        E 480 80 00 00
        E 0 80 01 00
        E 0 80 03 00
        E 0 80 02 00
        E 0 80 04 00
        E 0 80 05 00
        E 0 80 06 00
        E 0 80 07 00
        E 0 80 08 00
        E 0 80 09 00
        E 0 80 0a 00
        E 480 90 00 60
        E 0 90 01 60
        E 0 90 03 60
        E 0 90 02 60
        E 0 90 04 60
        E 0 90 05 60
        E 0 90 06 60
        E 0 90 07 60
        E 0 90 08 60
        E 0 90 09 60
        E 0 90 0a 60
        E 480 80 00 00
        E 0 80 01 00
        E 0 80 03 00
        E 0 80 02 00
        E 0 80 04 00
        E 0 80 05 00
        E 0 80 06 00
        E 0 80 07 00
        E 0 80 08 00
        E 0 80 09 00
        E 0 80 0a 00
        E 480 90 00 60
        E 0 90 01 60
        E 0 90 03 60
        E 0 90 02 60
        E 0 90 04 60
        E 0 90 05 60
        E 0 90 06 60
        E 0 90 07 60
        E 0 90 08 60
        E 0 90 09 60
        E 0 90 0a 60
        E 480 80 00 00
        E 0 80 01 00
        E 0 80 03 00
        E 0 80 02 00
        E 0 80 04 00
        E 0 80 05 00
        E 0 80 06 00
        E 0 80 07 00
        E 0 80 08 00
        E 0 80 09 00
        E 0 80 0a 00
        E 480 90 00 60
        E 0 90 01 60
        E 0 90 03 60
        E 0 90 02 60
        E 0 90 04 60
        E 0 90 05 60
        E 0 90 06 60
        E 0 90 07 60
        E 0 90 08 60
        E 0 90 09 60
        E 0 90 0a 60
        E 480 80 00 00
        E 0 80 01 00
        E 0 80 03 00
        E 0 80 02 00
        E 0 80 04 00
        E 0 80 05 00
        E 0 80 06 00
        E 0 80 07 00
        E 0 80 08 00
        E 0 80 09 00
        E 0 80 0a 00
        E 480 90 00 60
        E 0 90 01 60
        E 0 90 03 60
        E 0 90 02 60
        E 0 90 04 60
        E 0 90 05 60
        E 0 90 06 60
        E 0 90 07 60
        E 0 90 08 60
        E 0 90 09 60
        E 0 90 0a 60
        E 480 80 00 00
        E 0 80 01 00
        E 0 80 03 00
        E 0 80 02 00
        E 0 80 04 00
        E 0 80 05 00
        E 0 80 06 00
        E 0 80 07 00
        E 0 80 08 00
        E 0 80 09 00
        E 0 80 0a 00
        E 480 90 00 60
        E 0 90 01 60
        E 0 90 03 60
        E 0 90 02 60
        E 0 90 04 60
        E 0 90 05 60
        E 0 90 06 60
        E 0 90 07 60
        E 0 90 08 60
        E 0 90 09 60
        E 0 90 0a 60
        E 480 80 00 00
        E 0 80 01 00
        E 0 80 03 00
        E 0 80 02 00
        E 0 80 04 00
        E 0 80 05 00
        E 0 80 06 00
        E 0 80 07 00
        E 0 80 08 00
        E 0 80 09 00
        E 0 80 0a 00
        E 480 90 00 60
        E 0 90 01 60
        E 0 90 03 60
        E 0 90 02 60
        E 0 90 04 60
        E 0 90 05 60
        E 0 90 06 60
        E 0 90 07 60
        E 0 90 08 60
        E 0 90 09 60
        E 0 90 0a 60
        E 480 80 00 00
        E 0 80 01 00
        E 0 80 03 00
        E 0 80 02 00
        E 0 80 04 00
        E 0 80 05 00
        E 0 80 06 00
        E 0 80 07 00
        E 0 80 08 00
        E 0 80 09 00
        E 0 80 0a 00
        E 480 90 00 60
        E 0 90 01 60
        E 0 90 03 60
        E 0 90 02 60
        E 0 90 04 60
        E 0 90 05 60
        E 0 90 06 60
        E 0 90 07 60
        E 0 90 08 60
        E 0 90 09 60
        E 0 90 0a 60
        E 480 80 00 00
        E 0 80 01 00
        E 0 80 03 00
        E 0 80 02 00
        E 0 80 04 00
        E 0 80 05 00
        E 0 80 06 00
        E 0 80 07 00
        E 0 80 08 00
        E 0 80 09 00
        E 0 80 0a 00
        E 480 90 00 60
        E 0 90 01 60
        E 0 90 03 60
        E 0 90 02 60
        E 0 90 04 60
        E 0 90 05 60
        E 0 90 06 60
        E 0 90 07 60
        E 0 90 08 60
        E 0 90 09 60
        E 0 90 0a 60
        E 480 80 00 00
        E 0 80 01 00
        E 0 80 03 00
        E 0 80 02 00
        E 0 80 04 00
        E 0 80 05 00
        E 0 80 06 00
        E 0 80 07 00
        E 0 80 08 00
        E 0 80 09 00
        E 0 80 0a 00
        E 480 90 00 60
        E 0 90 01 60
        E 0 90 03 60
        E 0 90 02 60
        E 0 90 04 60
        E 0 90 05 60
        E 0 90 06 60
        E 0 90 07 60
        E 0 90 08 60
        E 0 90 09 60
        E 0 90 0a 60
        E 480 80 00 00
        E 0 80 01 00
        E 0 80 03 00
        E 0 80 02 00
        E 0 80 04 00
        E 0 80 05 00
        E 0 80 06 00
        E 0 80 07 00
        E 0 80 08 00
        E 0 80 09 00
        E 0 80 0a 00
        E 480 90 00 60
        E 0 90 01 60
        E 0 90 03 60
        E 0 90 02 60
        E 0 90 04 60
        E 0 90 05 60
        E 0 90 06 60
        E 0 90 07 60
        E 0 90 08 60
        E 0 90 09 60
        E 0 90 0a 60
        E 480 80 00 00
        E 0 80 01 00
        E 0 80 03 00
        E 0 80 02 00
        E 0 80 04 00
        E 0 80 05 00
        E 0 80 06 00
        E 0 80 07 00
        E 0 80 08 00
        E 0 80 09 00
        E 0 80 0a 00
        E 480 90 00 60
        E 0 90 01 60
        E 0 90 03 60
        E 0 90 02 60
        E 0 90 04 60
        E 0 90 05 60
        E 0 90 06 60
        E 0 90 07 60
        E 0 90 08 60
        E 0 90 09 60
        E 0 90 0a 60
        E 480 80 00 00
        E 0 80 01 00
        E 0 80 03 00
        E 0 80 02 00
        E 0 80 04 00
        E 0 80 05 00
        E 0 80 06 00
        E 0 80 07 00
        E 0 80 08 00
        E 0 80 09 00
        E 0 80 0a 00
        E 480 90 00 60
        E 0 90 01 60
        E 0 90 03 60
        E 0 90 02 60
        E 0 90 04 60
        E 0 90 05 60
        E 0 90 06 60
        E 0 90 07 60
        E 0 90 08 60
        E 0 90 09 60
        E 0 90 0a 60
        E 480 80 00 00
        E 0 80 01 00
        E 0 80 03 00
        E 0 80 02 00
        E 0 80 04 00
        E 0 80 05 00
        E 0 80 06 00
        E 0 80 07 00
        E 0 80 08 00
        E 0 80 09 00
        E 0 80 0a 00
        E 480 90 00 60
        E 0 90 01 60
        E 0 90 03 60
        E 0 90 02 60
        E 0 90 04 60
        E 0 90 05 60
        E 0 90 06 60
        E 0 90 07 60
        E 0 90 08 60
        E 0 90 09 60
        E 0 90 0a 60
        E 480 80 00 00
        E 0 80 01 00
        E 0 80 03 00
        E 0 80 02 00
        E 0 80 04 00
        E 0 80 05 00
        E 0 80 06 00
        E 0 80 07 00
        E 0 80 08 00
        E 0 80 09 00
        E 0 80 0a 00
        E 480 90 00 60
        E 0 90 01 60
        E 0 90 03 60
        E 0 90 02 60
        E 0 90 04 60
        E 0 90 05 60
        E 0 90 06 60
        E 0 90 07 60
        E 0 90 08 60
        E 0 90 09 60
        E 0 90 0a 60
        E 480 80 00 00
        E 0 80 01 00
        E 0 80 03 00
        E 0 80 02 00
        E 0 80 04 00
        E 0 80 05 00
        E 0 80 06 00
        E 0 80 07 00
        E 0 80 08 00
        E 0 80 09 00
        E 0 80 0a 00
        E 480 90 00 60
        E 0 90 01 60
        E 0 90 03 60
        E 0 90 02 60
        E 0 90 04 60
        E 0 90 05 60
        E 0 90 06 60
        E 0 90 07 60
        E 0 90 08 60
        E 0 90 09 60
        E 0 90 0a 60
        E 480 80 00 00
        E 0 80 01 00
        E 0 80 03 00
        E 0 80 02 00
        E 0 80 04 00
        E 0 80 05 00
        E 0 80 06 00
        E 0 80 07 00
        E 0 80 08 00
        E 0 80 09 00
        E 0 80 0a 00
        E 960 90 0b 60
        E 0 90 0c 60
        E 0 90 0e 60
        E 0 90 0d 60
        E 0 90 0f 60
        E 0 90 10 60
        E 0 90 11 60
        E 0 90 12 60
        E 0 90 13 60
        E 0 90 14 60
        E 0 90 15 60
        E 0 90 00 60
        E 0 90 01 60
        E 0 90 03 60
        E 0 90 02 60
        E 0 90 04 60
        E 0 90 05 60
        E 0 90 06 60
        E 0 90 07 60
        E 0 90 08 60
        E 0 90 09 60
        E 0 90 0a 60
        E 480 80 0b 00
        E 0 80 0c 00
        E 0 80 0e 00
        E 0 80 0d 00
        E 0 80 0f 00
        E 0 80 10 00
        E 0 80 11 00
        E 0 80 12 00
        E 0 80 13 00
        E 0 80 14 00
        E 0 80 15 00
        E 0 80 00 00
        E 0 80 01 00
        E 0 80 03 00
        E 0 80 02 00
        E 0 80 04 00
        E 0 80 05 00
        E 0 80 06 00
        E 0 80 07 00
        E 0 80 08 00
        E 0 80 09 00
        E 0 80 0a 00
        E 0 90 0b 60
        E 0 90 0c 60
        E 0 90 0e 60
        E 0 90 0d 60
        E 0 90 0f 60
        E 0 90 10 60
        E 0 90 11 60
        E 0 90 12 60
        E 0 90 13 60
        E 0 90 14 60
        E 0 90 15 60
        E 0 90 01 60
        E 0 90 03 60
        E 0 90 02 60
        E 0 90 04 60
        E 0 90 05 60
        E 0 90 06 60
        E 0 90 07 60
        E 0 90 08 60
        E 0 90 09 60
        E 0 90 0a 60
        E 0 90 00 60
        E 480 80 0b 00
        E 0 80 0c 00
        E 0 80 0e 00
        E 0 80 0d 00
        E 0 80 0f 00
        E 0 80 10 00
        E 0 80 11 00
        E 0 80 12 00
        E 0 80 13 00
        E 0 80 14 00
        E 0 80 15 00
        E 0 80 01 00
        E 0 80 03 00
        E 0 80 02 00
        E 0 80 04 00
        E 0 80 05 00
        E 0 80 06 00
        E 0 80 07 00
        E 0 80 08 00
        E 0 80 09 00
        E 0 80 0a 00
        E 0 80 00 00
        E 960 90 0b 60
        E 0 90 0c 60
        E 0 90 0e 60
        E 0 90 0d 60
        E 0 90 0f 60
        E 0 90 10 60
        E 0 90 11 60
        E 0 90 12 60
        E 0 90 13 60
        E 0 90 14 60
        E 0 90 15 60
        E 0 90 00 60
        E 0 90 01 60
        E 0 90 03 60
        E 0 90 02 60
        E 0 90 04 60
        E 0 90 05 60
        E 0 90 06 60
        E 0 90 07 60
        E 0 90 08 60
        E 0 90 09 60
        E 0 90 0a 60
        E 480 80 0b 00
        E 0 80 0c 00
        E 0 80 0e 00
        E 0 80 0d 00
        E 0 80 0f 00
        E 0 80 10 00
        E 0 80 11 00
        E 0 80 12 00
        E 0 80 13 00
        E 0 80 14 00
        E 0 80 15 00
        E 0 80 00 00
        E 0 80 01 00
        E 0 80 03 00
        E 0 80 02 00
        E 0 80 04 00
        E 0 80 05 00
        E 0 80 06 00
        E 0 80 07 00
        E 0 80 08 00
        E 0 80 09 00
        E 0 80 0a 00
        E 0 90 0b 60
        E 0 90 0c 60
        E 0 90 0e 60
        E 0 90 0d 60
        E 0 90 0f 60
        E 0 90 10 60
        E 0 90 11 60
        E 0 90 12 60
        E 0 90 13 60
        E 0 90 14 60
        E 0 90 15 60
        E 0 90 01 60
        E 0 90 03 60
        E 0 90 02 60
        E 0 90 04 60
        E 0 90 05 60
        E 0 90 06 60
        E 0 90 07 60
        E 0 90 08 60
        E 0 90 09 60
        E 0 90 0a 60
        E 0 90 00 60
        E 480 80 0b 00
        E 0 80 0c 00
        E 0 80 0e 00
        E 0 80 0d 00
        E 0 80 0f 00
        E 0 80 10 00
        E 0 80 11 00
        E 0 80 12 00
        E 0 80 13 00
        E 0 80 14 00
        E 0 80 15 00
        E 0 80 01 00
        E 0 80 03 00
        E 0 80 02 00
        E 0 80 04 00
        E 0 80 05 00
        E 0 80 06 00
        E 0 80 07 00
        E 0 80 08 00
        E 0 80 09 00
        E 0 80 0a 00
        E 0 80 00 00
        E 960 90 0b 60
        E 0 90 0c 60
        E 0 90 0e 60
        E 0 90 0d 60
        E 0 90 0f 60
        E 0 90 10 60
        E 0 90 11 60
        E 0 90 12 60
        E 0 90 13 60
        E 0 90 14 60
        E 0 90 15 60
        E 0 90 00 60
        E 0 90 01 60
        E 0 90 03 60
        E 0 90 02 60
        E 0 90 04 60
        E 0 90 05 60
        E 0 90 06 60
        E 0 90 07 60
        E 0 90 08 60
        E 0 90 09 60
        E 0 90 0a 60
        E 480 80 0b 00
        E 0 80 0c 00
        E 0 80 0e 00
        E 0 80 0d 00
        E 0 80 0f 00
        E 0 80 10 00
        E 0 80 11 00
        E 0 80 12 00
        E 0 80 13 00
        E 0 80 14 00
        E 0 80 15 00
        E 0 80 00 00
        E 0 80 01 00
        E 0 80 03 00
        E 0 80 02 00
        E 0 80 04 00
        E 0 80 05 00
        E 0 80 06 00
        E 0 80 07 00
        E 0 80 08 00
        E 0 80 09 00
        E 0 80 0a 00
        E 0 90 0b 60
        E 0 90 0c 60
        E 0 90 0e 60
        E 0 90 0d 60
        E 0 90 0f 60
        E 0 90 10 60
        E 0 90 11 60
        E 0 90 12 60
        E 0 90 13 60
        E 0 90 14 60
        E 0 90 15 60
        E 0 90 01 60
        E 0 90 03 60
        E 0 90 02 60
        E 0 90 04 60
        E 0 90 05 60
        E 0 90 06 60
        E 0 90 07 60
        E 0 90 08 60
        E 0 90 09 60
        E 0 90 0a 60
        E 0 90 00 60
        E 480 80 0b 00
        E 0 80 0c 00
        E 0 80 0e 00
        E 0 80 0d 00
        E 0 80 0f 00
        E 0 80 10 00
        E 0 80 11 00
        E 0 80 12 00
        E 0 80 13 00
        E 0 80 14 00
        E 0 80 15 00
        E 0 80 01 00
        E 0 80 03 00
        E 0 80 02 00
        E 0 80 04 00
        E 0 80 05 00
        E 0 80 06 00
        E 0 80 07 00
        E 0 80 08 00
        E 0 80 09 00
        E 0 80 0a 00
        E 0 80 00 00
        E 960 90 0b 62
        E 0 90 0c 62
        E 0 90 0e 62
        E 0 90 0d 62
        E 0 90 0f 62
        E 0 90 10 62
        E 0 90 11 62
        E 0 90 12 62
        E 0 90 13 62
        E 0 90 14 62
        E 0 90 15 62
        E 0 90 00 62
        E 0 90 01 62
        E 0 90 03 62
        E 0 90 02 62
        E 0 90 04 62
        E 0 90 05 62
        E 0 90 06 62
        E 0 90 07 62
        E 0 90 08 62
        E 0 90 09 62
        E 0 90 0a 62
        E 480 80 0b 00
        E 0 80 0c 00
        E 0 80 0e 00
        E 0 80 0d 00
        E 0 80 0f 00
        E 0 80 10 00
        E 0 80 11 00
        E 0 80 12 00
        E 0 80 13 00
        E 0 80 14 00
        E 0 80 15 00
        E 0 80 00 00
        E 0 80 01 00
        E 0 80 03 00
        E 0 80 02 00
        E 0 80 04 00
        E 0 80 05 00
        E 0 80 06 00
        E 0 80 07 00
        E 0 80 08 00
        E 0 80 09 00
        E 0 80 0a 00
        E 0 90 0b 62
        E 0 90 0c 62
        E 0 90 0e 62
        E 0 90 0d 62
        E 0 90 0f 62
        E 0 90 10 62
        E 0 90 11 62
        E 0 90 12 62
        E 0 90 13 62
        E 0 90 14 62
        E 0 90 15 62
        E 0 90 01 62
        E 0 90 03 62
        E 0 90 02 62
        E 0 90 04 62
        E 0 90 05 62
        E 0 90 06 62
        E 0 90 07 62
        E 0 90 08 62
        E 0 90 09 62
        E 0 90 0a 62
        E 0 90 00 62
        E 480 80 0b 00
        E 0 80 0c 00
        E 0 80 0e 00
        E 0 80 0d 00
        E 0 80 0f 00
        E 0 80 10 00
        E 0 80 11 00
        E 0 80 12 00
        E 0 80 13 00
        E 0 80 14 00
        E 0 80 15 00
        E 0 80 01 00
        E 0 80 03 00
        E 0 80 02 00
        E 0 80 04 00
        E 0 80 05 00
        E 0 80 06 00
        E 0 80 07 00
        E 0 80 08 00
        E 0 80 09 00
        E 0 80 0a 00
        E 0 80 00 00
        E 2400 90 0b 62
        E 0 90 0c 62
        E 0 90 0e 62
        E 0 90 0d 62
        E 0 90 0f 62
        E 0 90 10 62
        E 0 90 11 62
        E 0 90 12 62
        E 0 90 13 62
        E 0 90 14 62
        E 0 90 15 62
        E 0 90 01 62
        E 0 90 03 62
        E 0 90 02 62
        E 0 90 04 62
        E 0 90 05 62
        E 0 90 06 62
        E 0 90 07 62
        E 0 90 08 62
        E 0 90 09 62
        E 0 90 0a 62
        E 0 90 00 62
        E 480 80 0b 00
        E 0 80 0c 00
        E 0 80 0e 00
        E 0 80 0d 00
        E 0 80 0f 00
        E 0 80 10 00
        E 0 80 11 00
        E 0 80 12 00
        E 0 80 13 00
        E 0 80 14 00
        E 0 80 15 00
        E 0 80 01 00
        E 0 80 03 00
        E 0 80 02 00
        E 0 80 04 00
        E 0 80 05 00
        E 0 80 06 00
        E 0 80 07 00
        E 0 80 08 00
        E 0 80 09 00
        E 0 80 0a 00
        E 0 80 00 00
        E 480 90 0b 62
        E 0 90 0c 62
        E 0 90 0e 62
        E 0 90 0d 62
        E 0 90 0f 62
        E 0 90 10 62
        E 0 90 11 62
        E 0 90 12 62
        E 0 90 13 62
        E 0 90 14 62
        E 0 90 15 62
        E 0 90 01 62
        E 0 90 03 62
        E 0 90 02 62
        E 0 90 04 62
        E 0 90 05 62
        E 0 90 06 62
        E 0 90 07 62
        E 0 90 08 62
        E 0 90 09 62
        E 0 90 0a 62
        E 0 90 00 62
        E 480 80 0b 00
        E 0 80 0c 00
        E 0 80 0e 00
        E 0 80 0d 00
        E 0 80 0f 00
        E 0 80 10 00
        E 0 80 11 00
        E 0 80 12 00
        E 0 80 13 00
        E 0 80 14 00
        E 0 80 15 00
        E 0 80 01 00
        E 0 80 03 00
        E 0 80 02 00
        E 0 80 04 00
        E 0 80 05 00
        E 0 80 06 00
        E 0 80 07 00
        E 0 80 08 00
        E 0 80 09 00
        E 0 80 0a 00
        E 0 80 00 00
        E 2400 90 0b 62
        E 0 90 0c 62
        E 0 90 0e 62
        E 0 90 0d 62
        E 0 90 0f 62
        E 0 90 10 62
        E 0 90 11 62
        E 0 90 12 62
        E 0 90 13 62
        E 0 90 14 62
        E 0 90 15 62
        E 0 90 01 62
        E 0 90 03 62
        E 0 90 02 62
        E 0 90 04 62
        E 0 90 05 62
        E 0 90 06 62
        E 0 90 07 62
        E 0 90 08 62
        E 0 90 09 62
        E 0 90 0a 62
        E 0 90 00 62
        E 480 80 0b 00
        E 0 80 0c 00
        E 0 80 0e 00
        E 0 80 0d 00
        E 0 80 0f 00
        E 0 80 10 00
        E 0 80 11 00
        E 0 80 12 00
        E 0 80 13 00
        E 0 80 14 00
        E 0 80 15 00
        E 0 80 01 00
        E 0 80 03 00
        E 0 80 02 00
        E 0 80 04 00
        E 0 80 05 00
        E 0 80 06 00
        E 0 80 07 00
        E 0 80 08 00
        E 0 80 09 00
        E 0 80 0a 00
        E 0 80 00 00
        E 480 90 0b 62
        E 0 90 0c 62
        E 0 90 0e 62
        E 0 90 0d 62
        E 0 90 0f 62
        E 0 90 10 62
        E 0 90 11 62
        E 0 90 12 62
        E 0 90 13 62
        E 0 90 14 62
        E 0 90 15 62
        E 0 90 01 62
        E 0 90 03 62
        E 0 90 02 62
        E 0 90 04 62
        E 0 90 05 62
        E 0 90 06 62
        E 0 90 07 62
        E 0 90 08 62
        E 0 90 09 62
        E 0 90 0a 62
        E 0 90 00 62
        E 480 80 0b 00
        E 0 80 0c 00
        E 0 80 0e 00
        E 0 80 0d 00
        E 0 80 0f 00
        E 0 80 10 00
        E 0 80 11 00
        E 0 80 12 00
        E 0 80 13 00
        E 0 80 14 00
        E 0 80 15 00
        E 0 80 01 00
        E 0 80 03 00
        E 0 80 02 00
        E 0 80 04 00
        E 0 80 05 00
        E 0 80 06 00
        E 0 80 07 00
        E 0 80 08 00
        E 0 80 09 00
        E 0 80 0a 00
        E 0 80 00 00
        E 480 90 0b 62
        E 0 90 0c 62
        E 0 90 0e 62
        E 0 90 0d 62
        E 0 90 0f 62
        E 0 90 10 62
        E 0 90 11 62
        E 0 90 12 62
        E 0 90 13 62
        E 0 90 14 62
        E 0 90 15 62
        E 0 90 01 62
        E 0 90 03 62
        E 0 90 02 62
        E 0 90 04 62
        E 0 90 05 62
        E 0 90 06 62
        E 0 90 07 62
        E 0 90 08 62
        E 0 90 09 62
        E 0 90 0a 62
        E 0 90 00 62
        E 480 80 0b 00
        E 0 80 0c 00
        E 0 80 0e 00
        E 0 80 0d 00
        E 0 80 0f 00
        E 0 80 10 00
        E 0 80 11 00
        E 0 80 12 00
        E 0 80 13 00
        E 0 80 14 00
        E 0 80 15 00
        E 0 80 01 00
        E 0 80 03 00
        E 0 80 02 00
        E 0 80 04 00
        E 0 80 05 00
        E 0 80 06 00
        E 0 80 07 00
        E 0 80 08 00
        E 0 80 09 00
        E 0 80 0a 00
        E 0 80 00 00
        E 480 90 0b 62
        E 0 90 0c 62
        E 0 90 0e 62
        E 0 90 0d 62
        E 0 90 0f 62
        E 0 90 10 62
        E 0 90 11 62
        E 0 90 12 62
        E 0 90 13 62
        E 0 90 14 62
        E 0 90 15 62
        E 0 90 01 62
        E 0 90 03 62
        E 0 90 02 62
        E 0 90 04 62
        E 0 90 05 62
        E 0 90 06 62
        E 0 90 07 62
        E 0 90 08 62
        E 0 90 09 62
        E 0 90 0a 62
        E 0 90 00 62
        E 480 80 0b 00
        E 0 80 0c 00
        E 0 80 0e 00
        E 0 80 0d 00
        E 0 80 0f 00
        E 0 80 10 00
        E 0 80 11 00
        E 0 80 12 00
        E 0 80 13 00
        E 0 80 14 00
        E 0 80 15 00
        E 0 80 01 00
        E 0 80 03 00
        E 0 80 02 00
        E 0 80 04 00
        E 0 80 05 00
        E 0 80 06 00
        E 0 80 07 00
        E 0 80 08 00
        E 0 80 09 00
        E 0 80 0a 00
        E 0 80 00 00
        E 480 90 0b 62
        E 0 90 0c 62
        E 0 90 0e 62
        E 0 90 0d 62
        E 0 90 0f 62
        E 0 90 10 62
        E 0 90 11 62
        E 0 90 12 62
        E 0 90 13 62
        E 0 90 14 62
        E 0 90 15 62
        E 0 90 01 62
        E 0 90 03 62
        E 0 90 02 62
        E 0 90 04 62
        E 0 90 05 62
        E 0 90 06 62
        E 0 90 07 62
        E 0 90 08 62
        E 0 90 09 62
        E 0 90 0a 62
        E 0 90 00 62
        E 480 80 0b 00
        E 0 80 0c 00
        E 0 80 0e 00
        E 0 80 0d 00
        E 0 80 0f 00
        E 0 80 10 00
        E 0 80 11 00
        E 0 80 12 00
        E 0 80 13 00
        E 0 80 14 00
        E 0 80 15 00
        E 0 80 01 00
        E 0 80 03 00
        E 0 80 02 00
        E 0 80 04 00
        E 0 80 05 00
        E 0 80 06 00
        E 0 80 07 00
        E 0 80 08 00
        E 0 80 09 00
        E 0 80 0a 00
        E 0 80 00 00
        E 480 90 0b 62
        E 0 90 0c 62
        E 0 90 0e 62
        E 0 90 0d 62
        E 0 90 0f 62
        E 0 90 10 62
        E 0 90 11 62
        E 0 90 12 62
        E 0 90 13 62
        E 0 90 14 62
        E 0 90 15 62
        E 0 90 01 62
        E 0 90 03 62
        E 0 90 02 62
        E 0 90 04 62
        E 0 90 05 62
        E 0 90 06 62
        E 0 90 07 62
        E 0 90 08 62
        E 0 90 09 62
        E 0 90 0a 62
        E 0 90 00 62
        E 480 80 0b 00
        E 0 80 0c 00
        E 0 80 0e 00
        E 0 80 0d 00
        E 0 80 0f 00
        E 0 80 10 00
        E 0 80 11 00
        E 0 80 12 00
        E 0 80 13 00
        E 0 80 14 00
        E 0 80 15 00
        E 0 80 01 00
        E 0 80 03 00
        E 0 80 02 00
        E 0 80 04 00
        E 0 80 05 00
        E 0 80 06 00
        E 0 80 07 00
        E 0 80 08 00
        E 0 80 09 00
        E 0 80 0a 00
        E 0 80 00 00
        E 480 90 0b 62
        E 0 90 0c 62
        E 0 90 0e 62
        E 0 90 0d 62
        E 0 90 0f 62
        E 0 90 10 62
        E 0 90 11 62
        E 0 90 12 62
        E 0 90 13 62
        E 0 90 14 62
        E 0 90 15 62
        E 0 90 01 62
        E 0 90 03 62
        E 0 90 02 62
        E 0 90 04 62
        E 0 90 05 62
        E 0 90 06 62
        E 0 90 07 62
        E 0 90 08 62
        E 0 90 09 62
        E 0 90 0a 62
        E 0 90 00 62
        E 480 80 0b 00
        E 0 80 0c 00
        E 0 80 0e 00
        E 0 80 0d 00
        E 0 80 0f 00
        E 0 80 10 00
        E 0 80 11 00
        E 0 80 12 00
        E 0 80 13 00
        E 0 80 14 00
        E 0 80 15 00
        E 0 80 01 00
        E 0 80 03 00
        E 0 80 02 00
        E 0 80 04 00
        E 0 80 05 00
        E 0 80 06 00
        E 0 80 07 00
        E 0 80 08 00
        E 0 80 09 00
        E 0 80 0a 00
        E 0 80 00 00
        E 480 90 0b 62
        E 0 90 0c 62
        E 0 90 0e 62
        E 0 90 0d 62
        E 0 90 0f 62
        E 0 90 10 62
        E 0 90 11 62
        E 0 90 12 62
        E 0 90 13 62
        E 0 90 14 62
        E 0 90 15 62
        E 0 90 01 62
        E 0 90 03 62
        E 0 90 02 62
        E 0 90 04 62
        E 0 90 05 62
        E 0 90 06 62
        E 0 90 07 62
        E 0 90 08 62
        E 0 90 09 62
        E 0 90 0a 62
        E 0 90 00 62
        E 480 80 0b 00
        E 0 80 0c 00
        E 0 80 0e 00
        E 0 80 0d 00
        E 0 80 0f 00
        E 0 80 10 00
        E 0 80 11 00
        E 0 80 12 00
        E 0 80 13 00
        E 0 80 14 00
        E 0 80 15 00
        E 0 80 01 00
        E 0 80 03 00
        E 0 80 02 00
        E 0 80 04 00
        E 0 80 05 00
        E 0 80 06 00
        E 0 80 07 00
        E 0 80 08 00
        E 0 80 09 00
        E 0 80 0a 00
        E 0 80 00 00
        E 480 90 0b 62
        E 0 90 0c 62
        E 0 90 0e 62
        E 0 90 0d 62
        E 0 90 0f 62
        E 0 90 10 62
        E 0 90 11 62
        E 0 90 12 62
        E 0 90 13 62
        E 0 90 14 62
        E 0 90 15 62
        E 0 90 01 62
        E 0 90 03 62
        E 0 90 02 62
        E 0 90 04 62
        E 0 90 05 62
        E 0 90 06 62
        E 0 90 07 62
        E 0 90 08 62
        E 0 90 09 62
        E 0 90 0a 62
        E 0 90 00 62
        E 480 80 0b 00
        E 0 80 0c 00
        E 0 80 0e 00
        E 0 80 0d 00
        E 0 80 0f 00
        E 0 80 10 00
        E 0 80 11 00
        E 0 80 12 00
        E 0 80 13 00
        E 0 80 14 00
        E 0 80 15 00
        E 0 80 01 00
        E 0 80 03 00
        E 0 80 02 00
        E 0 80 04 00
        E 0 80 05 00
        E 0 80 06 00
        E 0 80 07 00
        E 0 80 08 00
        E 0 80 09 00
        E 0 80 0a 00
        E 0 80 00 00
        E 480 90 0b 62
        E 0 90 0c 62
        E 0 90 0e 62
        E 0 90 0d 62
        E 0 90 0f 62
        E 0 90 10 62
        E 0 90 11 62
        E 0 90 12 62
        E 0 90 13 62
        E 0 90 14 62
        E 0 90 15 62
        E 0 90 01 62
        E 0 90 03 62
        E 0 90 02 62
        E 0 90 04 62
        E 0 90 05 62
        E 0 90 06 62
        E 0 90 07 62
        E 0 90 08 62
        E 0 90 09 62
        E 0 90 0a 62
        E 0 90 00 62
        E 480 80 0b 00
        E 0 80 0c 00
        E 0 80 0e 00
        E 0 80 0d 00
        E 0 80 0f 00
        E 0 80 10 00
        E 0 80 11 00
        E 0 80 12 00
        E 0 80 13 00
        E 0 80 14 00
        E 0 80 15 00
        E 0 80 01 00
        E 0 80 03 00
        E 0 80 02 00
        E 0 80 04 00
        E 0 80 05 00
        E 0 80 06 00
        E 0 80 07 00
        E 0 80 08 00
        E 0 80 09 00
        E 0 80 0a 00
        E 0 80 00 00
        E 960 90 0b 62
        E 0 90 0c 62
        E 0 90 0e 62
        E 0 90 0d 62
        E 0 90 0f 62
        E 0 90 10 62
        E 0 90 11 62
        E 0 90 12 62
        E 0 90 13 62
        E 0 90 14 62
        E 0 90 15 62
        E 0 90 01 62
        E 0 90 03 62
        E 0 90 02 62
        E 0 90 04 62
        E 0 90 05 62
        E 0 90 06 62
        E 0 90 07 62
        E 0 90 08 62
        E 0 90 09 62
        E 0 90 0a 62
        E 0 90 00 62
        E 480 80 0b 00
        E 0 80 0c 00
        E 0 80 0e 00
        E 0 80 0d 00
        E 0 80 0f 00
        E 0 80 10 00
        E 0 80 11 00
        E 0 80 12 00
        E 0 80 13 00
        E 0 80 14 00
        E 0 80 15 00
        E 0 80 01 00
        E 0 80 03 00
        E 0 80 02 00
        E 0 80 04 00
        E 0 80 05 00
        E 0 80 06 00
        E 0 80 07 00
        E 0 80 08 00
        E 0 80 09 00
        E 0 80 0a 00
        E 0 80 00 00
        E 1440 90 0b 62
        E 0 90 0c 62
        E 0 90 0e 62
        E 0 90 0d 62
        E 0 90 0f 62
        E 0 90 10 62
        E 0 90 11 62
        E 0 90 12 62
        E 0 90 13 62
        E 0 90 14 62
        E 0 90 15 62
        E 0 90 01 62
        E 0 90 03 62
        E 0 90 02 62
        E 0 90 04 62
        E 0 90 05 62
        E 0 90 06 62
        E 0 90 07 62
        E 0 90 08 62
        E 0 90 09 62
        E 0 90 0a 62
        E 0 90 00 62
        E 480 80 0b 00
        E 0 80 0c 00
        E 0 80 0e 00
        E 0 80 0d 00
        E 0 80 0f 00
        E 0 80 10 00
        E 0 80 11 00
        E 0 80 12 00
        E 0 80 13 00
        E 0 80 14 00
        E 0 80 15 00
        E 0 80 01 00
        E 0 80 03 00
        E 0 80 02 00
        E 0 80 04 00
        E 0 80 05 00
        E 0 80 06 00
        E 0 80 07 00
        E 0 80 08 00
        E 0 80 09 00
        E 0 80 0a 00
        E 0 80 00 00
        E 1440 90 0a 62
        E 0 90 0b 62
        E 0 90 0d 62
        E 0 90 0c 62
        E 0 90 0e 62
        E 0 90 0f 62
        E 0 90 10 62
        E 0 90 11 62
        E 0 90 12 62
        E 0 90 13 62
        E 0 90 14 62
        E 0 90 00 62
        E 0 90 02 62
        E 0 90 01 62
        E 0 90 03 62
        E 0 90 04 62
        E 0 90 05 62
        E 0 90 06 62
        E 0 90 07 62
        E 0 90 08 62
        E 0 90 09 62
        E 0 90 00 62
        E 0 90 15 62
        E 480 80 0a 00
        E 0 80 0b 00
        E 0 80 0d 00
        E 0 80 0c 00
        E 0 80 0e 00
        E 0 80 0f 00
        E 0 80 10 00
        E 0 80 11 00
        E 0 80 12 00
        E 0 80 13 00
        E 0 80 14 00
        E 0 80 00 00
        E 0 80 02 00
        E 0 80 01 00
        E 0 80 03 00
        E 0 80 04 00
        E 0 80 05 00
        E 0 80 06 00
        E 0 80 07 00
        E 0 80 08 00
        E 0 80 09 00
        E 0 80 00 00
        E 0 80 15 00
        E 1440 90 0a 62
        E 0 90 0b 62
        E 0 90 0d 62
        E 0 90 0c 62
        E 0 90 0e 62
        E 0 90 0f 62
        E 0 90 10 62
        E 0 90 11 62
        E 0 90 12 62
        E 0 90 13 62
        E 0 90 14 62
        E 0 90 00 62
        E 0 90 02 62
        E 0 90 01 62
        E 0 90 03 62
        E 0 90 04 62
        E 0 90 05 62
        E 0 90 06 62
        E 0 90 07 62
        E 0 90 08 62
        E 0 90 09 62
        E 0 90 00 62
        E 0 90 15 62
        E 480 80 0a 00
        E 0 80 0b 00
        E 0 80 0d 00
        E 0 80 0c 00
        E 0 80 0e 00
        E 0 80 0f 00
        E 0 80 10 00
        E 0 80 11 00
        E 0 80 12 00
        E 0 80 13 00
        E 0 80 14 00
        E 0 80 00 00
        E 0 80 02 00
        E 0 80 01 00
        E 0 80 03 00
        E 0 80 04 00
        E 0 80 05 00
        E 0 80 06 00
        E 0 80 07 00
        E 0 80 08 00
        E 0 80 09 00
        E 0 80 00 00
        E 0 80 15 00
        E 1440 90 0a 62
        E 0 90 0b 62
        E 0 90 0d 62
        E 0 90 0c 62
        E 0 90 0e 62
        E 0 90 0f 62
        E 0 90 10 62
        E 0 90 11 62
        E 0 90 12 62
        E 0 90 13 62
        E 0 90 14 62
        E 0 90 00 62
        E 0 90 02 62
        E 0 90 01 62
        E 0 90 03 62
        E 0 90 04 62
        E 0 90 05 62
        E 0 90 06 62
        E 0 90 07 62
        E 0 90 08 62
        E 0 90 09 62
        E 0 90 00 62
        E 0 90 15 62
        E 480 80 0a 00
        E 0 80 0b 00
        E 0 80 0d 00
        E 0 80 0c 00
        E 0 80 0e 00
        E 0 80 0f 00
        E 0 80 10 00
        E 0 80 11 00
        E 0 80 12 00
        E 0 80 13 00
        E 0 80 14 00
        E 0 80 00 00
        E 0 80 02 00
        E 0 80 01 00
        E 0 80 03 00
        E 0 80 04 00
        E 0 80 05 00
        E 0 80 06 00
        E 0 80 07 00
        E 0 80 08 00
        E 0 80 09 00
        E 0 80 00 00
        E 0 80 15 00
        E 1440 90 0a 62
        E 0 90 0b 62
        E 0 90 0d 62
        E 0 90 0c 62
        E 0 90 0e 62
        E 0 90 0f 62
        E 0 90 10 62
        E 0 90 11 62
        E 0 90 12 62
        E 0 90 13 62
        E 0 90 14 62
        E 0 90 00 62
        E 0 90 02 62
        E 0 90 01 62
        E 0 90 03 62
        E 0 90 04 62
        E 0 90 05 62
        E 0 90 06 62
        E 0 90 07 62
        E 0 90 08 62
        E 0 90 09 62
        E 0 90 00 62
        E 0 90 15 62
        E 480 80 0a 00
        E 0 80 0b 00
        E 0 80 0d 00
        E 0 80 0c 00
        E 0 80 0e 00
        E 0 80 0f 00
        E 0 80 10 00
        E 0 80 11 00
        E 0 80 12 00
        E 0 80 13 00
        E 0 80 14 00
        E 0 80 00 00
        E 0 80 02 00
        E 0 80 01 00
        E 0 80 03 00
        E 0 80 04 00
        E 0 80 05 00
        E 0 80 06 00
        E 0 80 07 00
        E 0 80 08 00
        E 0 80 09 00
        E 0 80 00 00
        E 0 80 15 00
        E 1440 90 0a 62
        E 0 90 0b 62
        E 0 90 0d 62
        E 0 90 0c 62
        E 0 90 0e 62
        E 0 90 0f 62
        E 0 90 10 62
        E 0 90 11 62
        E 0 90 12 62
        E 0 90 13 62
        E 0 90 14 62
        E 0 90 00 62
        E 0 90 02 62
        E 0 90 01 62
        E 0 90 03 62
        E 0 90 04 62
        E 0 90 05 62
        E 0 90 06 62
        E 0 90 07 62
        E 0 90 08 62
        E 0 90 09 62
        E 0 90 00 62
        E 0 90 15 62
        E 480 80 0a 00
        E 0 80 0b 00
        E 0 80 0d 00
        E 0 80 0c 00
        E 0 80 0e 00
        E 0 80 0f 00
        E 0 80 10 00
        E 0 80 11 00
        E 0 80 12 00
        E 0 80 13 00
        E 0 80 14 00
        E 0 80 00 00
        E 0 80 02 00
        E 0 80 01 00
        E 0 80 03 00
        E 0 80 04 00
        E 0 80 05 00
        E 0 80 06 00
        E 0 80 07 00
        E 0 80 08 00
        E 0 80 09 00
        E 0 80 00 00
        E 0 80 15 00
        E 1440 90 0a 62
        E 0 90 0b 62
        E 0 90 0d 62
        E 0 90 0c 62
        E 0 90 0e 62
        E 0 90 0f 62
        E 0 90 10 62
        E 0 90 11 62
        E 0 90 12 62
        E 0 90 13 62
        E 0 90 14 62
        E 0 90 00 62
        E 0 90 02 62
        E 0 90 01 62
        E 0 90 03 62
        E 0 90 04 62
        E 0 90 05 62
        E 0 90 06 62
        E 0 90 07 62
        E 0 90 08 62
        E 0 90 09 62
        E 0 90 00 62
        E 0 90 15 62
        E 480 80 0a 00
        E 0 80 0b 00
        E 0 80 0d 00
        E 0 80 0c 00
        E 0 80 0e 00
        E 0 80 0f 00
        E 0 80 10 00
        E 0 80 11 00
        E 0 80 12 00
        E 0 80 13 00
        E 0 80 14 00
        E 0 80 00 00
        E 0 80 02 00
        E 0 80 01 00
        E 0 80 03 00
        E 0 80 04 00
        E 0 80 05 00
        E 0 80 06 00
        E 0 80 07 00
        E 0 80 08 00
        E 0 80 09 00
        E 0 80 00 00
        E 0 80 15 00
        E 1440 90 0a 62
        E 0 90 0b 62
        E 0 90 0d 62
        E 0 90 0c 62
        E 0 90 0e 62
        E 0 90 0f 62
        E 0 90 10 62
        E 0 90 11 62
        E 0 90 12 62
        E 0 90 13 62
        E 0 90 14 62
        E 0 90 00 62
        E 0 90 02 62
        E 0 90 01 62
        E 0 90 03 62
        E 0 90 04 62
        E 0 90 05 62
        E 0 90 06 62
        E 0 90 07 62
        E 0 90 08 62
        E 0 90 09 62
        E 0 90 00 62
        E 0 90 15 62
        E 480 80 0a 00
        E 0 80 0b 00
        E 0 80 0d 00
        E 0 80 0c 00
        E 0 80 0e 00
        E 0 80 0f 00
        E 0 80 10 00
        E 0 80 11 00
        E 0 80 12 00
        E 0 80 13 00
        E 0 80 14 00
        E 0 80 00 00
        E 0 80 02 00
        E 0 80 01 00
        E 0 80 03 00
        E 0 80 04 00
        E 0 80 05 00
        E 0 80 06 00
        E 0 80 07 00
        E 0 80 08 00
        E 0 80 09 00
        E 0 80 00 00
        E 0 80 15 00
        E 1440 90 0a 62
        E 0 90 0b 62
        E 0 90 0d 62
        E 0 90 0c 62
        E 0 90 0e 62
        E 0 90 0f 62
        E 0 90 10 62
        E 0 90 11 62
        E 0 90 12 62
        E 0 90 13 62
        E 0 90 14 62
        E 0 90 00 62
        E 0 90 02 62
        E 0 90 01 62
        E 0 90 03 62
        E 0 90 04 62
        E 0 90 05 62
        E 0 90 06 62
        E 0 90 07 62
        E 0 90 08 62
        E 0 90 09 62
        E 0 90 00 62
        E 0 90 15 62
        E 480 80 0a 00
        E 0 80 0b 00
        E 0 80 0d 00
        E 0 80 0c 00
        E 0 80 0e 00
        E 0 80 0f 00
        E 0 80 10 00
        E 0 80 11 00
        E 0 80 12 00
        E 0 80 13 00
        E 0 80 14 00
        E 0 80 00 00
        E 0 80 02 00
        E 0 80 01 00
        E 0 80 03 00
        E 0 80 04 00
        E 0 80 05 00
        E 0 80 06 00
        E 0 80 07 00
        E 0 80 08 00
        E 0 80 09 00
        E 0 80 00 00
        E 0 80 15 00
        E 1440 90 0a 62
        E 0 90 0b 62
        E 0 90 0d 62
        E 0 90 0c 62
        E 0 90 0e 62
        E 0 90 0f 62
        E 0 90 10 62
        E 0 90 11 62
        E 0 90 12 62
        E 0 90 13 62
        E 0 90 14 62
        E 0 90 00 62
        E 0 90 02 62
        E 0 90 01 62
        E 0 90 03 62
        E 0 90 04 62
        E 0 90 05 62
        E 0 90 06 62
        E 0 90 07 62
        E 0 90 08 62
        E 0 90 09 62
        E 0 90 00 62
        E 0 90 15 62
        E 480 80 0a 00
        E 0 80 0b 00
        E 0 80 0d 00
        E 0 80 0c 00
        E 0 80 0e 00
        E 0 80 0f 00
        E 0 80 10 00
        E 0 80 11 00
        E 0 80 12 00
        E 0 80 13 00
        E 0 80 14 00
        E 0 80 00 00
        E 0 80 02 00
        E 0 80 01 00
        E 0 80 03 00
        E 0 80 04 00
        E 0 80 05 00
        E 0 80 06 00
        E 0 80 07 00
        E 0 80 08 00
        E 0 80 09 00
        E 0 80 00 00
        E 0 80 15 00
        E 1440 90 0a 62
        E 0 90 0b 62
        E 0 90 0d 62
        E 0 90 0c 62
        E 0 90 0e 62
        E 0 90 0f 62
        E 0 90 10 62
        E 0 90 11 62
        E 0 90 12 62
        E 0 90 13 62
        E 0 90 14 62
        E 0 90 00 62
        E 0 90 02 62
        E 0 90 01 62
        E 0 90 03 62
        E 0 90 04 62
        E 0 90 05 62
        E 0 90 06 62
        E 0 90 07 62
        E 0 90 08 62
        E 0 90 09 62
        E 0 90 00 62
        E 0 90 15 62
        E 480 80 0a 00
        E 0 80 0b 00
        E 0 80 0d 00
        E 0 80 0c 00
        E 0 80 0e 00
        E 0 80 0f 00
        E 0 80 10 00
        E 0 80 11 00
        E 0 80 12 00
        E 0 80 13 00
        E 0 80 14 00
        E 0 80 00 00
        E 0 80 02 00
        E 0 80 01 00
        E 0 80 03 00
        E 0 80 04 00
        E 0 80 05 00
        E 0 80 06 00
        E 0 80 07 00
        E 0 80 08 00
        E 0 80 09 00
        E 0 80 00 00
        E 0 80 15 00
        E 960 90 15 62
        E 0 90 14 62
        E 0 90 13 62
        E 0 90 12 62
        E 0 90 11 62
        E 0 90 10 62
        E 0 90 0f 62
        E 0 90 0e 62
        E 0 90 0d 62
        E 0 90 0c 62
        E 0 90 0b 62
        E 0 90 0a 62
        E 0 90 09 62
        E 0 90 08 62
        E 0 90 07 62
        E 0 90 06 62
        E 0 90 05 62
        E 0 90 04 62
        E 0 90 03 62
        E 0 90 02 62
        E 0 90 01 62
        E 0 90 00 62
        E 1440 80 15 00
        E 0 80 14 00
        E 0 80 13 00
        E 0 80 12 00
        E 0 80 11 00
        E 0 80 10 00
        E 0 80 0f 00
        E 0 80 0e 00
        E 0 80 0d 00
        E 0 80 0c 00
        E 0 80 0b 00
        E 0 80 0a 00
        E 0 80 09 00
        E 0 80 08 00
        E 0 80 07 00
        E 0 80 06 00
        E 0 80 05 00
        E 0 80 04 00
        E 0 80 03 00
        E 0 80 02 00
        E 0 80 01 00
        E 0 80 00 00
        E 480 90 15 62
        E 0 90 14 62
        E 0 90 13 62
        E 0 90 12 62
        E 0 90 11 62
        E 0 90 10 62
        E 0 90 0f 62
        E 0 90 0e 62
        E 0 90 0d 62
        E 0 90 0c 62
        E 0 90 0b 62
        E 0 90 0a 62
        E 0 90 09 62
        E 0 90 08 62
        E 0 90 07 62
        E 0 90 06 62
        E 0 90 05 62
        E 0 90 04 62
        E 0 90 03 62
        E 0 90 02 62
        E 0 90 01 62
        E 0 90 00 62
        E 1440 80 15 00
        E 0 80 14 00
        E 0 80 13 00
        E 0 80 12 00
        E 0 80 11 00
        E 0 80 10 00
        E 0 80 0f 00
        E 0 80 0e 00
        E 0 80 0d 00
        E 0 80 0c 00
        E 0 80 0b 00
        E 0 80 0a 00
        E 0 80 09 00
        E 0 80 08 00
        E 0 80 07 00
        E 0 80 06 00
        E 0 80 05 00
        E 0 80 04 00
        E 0 80 03 00
        E 0 80 02 00
        E 0 80 01 00
        E 0 80 00 00
        E 480 90 15 62
        E 0 90 14 62
        E 0 90 13 62
        E 0 90 12 62
        E 0 90 11 62
        E 0 90 10 62
        E 0 90 0f 62
        E 0 90 0e 62
        E 0 90 0d 62
        E 0 90 0c 62
        E 0 90 0b 62
        E 0 90 0a 62
        E 0 90 09 62
        E 0 90 08 62
        E 0 90 07 62
        E 0 90 06 62
        E 0 90 05 62
        E 0 90 04 62
        E 0 90 03 62
        E 0 90 02 62
        E 0 90 01 62
        E 0 90 00 62
        E 1440 80 15 00
        E 0 80 14 00
        E 0 80 13 00
        E 0 80 12 00
        E 0 80 11 00
        E 0 80 10 00
        E 0 80 0f 00
        E 0 80 0e 00
        E 0 80 0d 00
        E 0 80 0c 00
        E 0 80 0b 00
        E 0 80 0a 00
        E 0 80 09 00
        E 0 80 08 00
        E 0 80 07 00
        E 0 80 06 00
        E 0 80 05 00
        E 0 80 04 00
        E 0 80 03 00
        E 0 80 02 00
        E 0 80 01 00
        E 0 80 00 00
        E 480 90 15 62
        E 0 90 14 62
        E 0 90 13 62
        E 0 90 12 62
        E 0 90 11 62
        E 0 90 10 62
        E 0 90 0f 62
        E 0 90 0e 62
        E 0 90 0d 62
        E 0 90 0c 62
        E 0 90 0b 62
        E 0 90 0a 62
        E 0 90 09 62
        E 0 90 08 62
        E 0 90 07 62
        E 0 90 06 62
        E 0 90 05 62
        E 0 90 04 62
        E 0 90 03 62
        E 0 90 02 62
        E 0 90 01 62
        E 0 90 00 62
        E 1440 80 15 00
        E 0 80 14 00
        E 0 80 13 00
        E 0 80 12 00
        E 0 80 11 00
        E 0 80 10 00
        E 0 80 0f 00
        E 0 80 0e 00
        E 0 80 0d 00
        E 0 80 0c 00
        E 0 80 0b 00
        E 0 80 0a 00
        E 0 80 09 00
        E 0 80 08 00
        E 0 80 07 00
        E 0 80 06 00
        E 0 80 05 00
        E 0 80 04 00
        E 0 80 03 00
        E 0 80 02 00
        E 0 80 01 00
        E 0 80 00 00
        E 480 90 15 62
        E 0 90 14 62
        E 0 90 13 62
        E 0 90 12 62
        E 0 90 11 62
        E 0 90 10 62
        E 0 90 0f 62
        E 0 90 0e 62
        E 0 90 0d 62
        E 0 90 0c 62
        E 0 90 0b 62
        E 0 90 0a 62
        E 0 90 09 62
        E 0 90 08 62
        E 0 90 07 62
        E 0 90 06 62
        E 0 90 05 62
        E 0 90 04 62
        E 0 90 03 62
        E 0 90 02 62
        E 0 90 01 62
        E 0 90 00 62
        E 2880 80 15 00
        E 0 80 14 00
        E 0 80 13 00
        E 0 80 12 00
        E 0 80 11 00
        E 0 80 10 00
        E 0 80 0f 00
        E 0 80 0e 00
        E 0 80 0d 00
        E 0 80 0c 00
        E 0 80 0b 00
        E 0 80 0a 00
        E 0 80 09 00
        E 0 80 08 00
        E 0 80 07 00
        E 0 80 06 00
        E 0 80 05 00
        E 0 80 04 00
        E 0 80 03 00
        E 0 80 02 00
        E 0 80 01 00
        E 0 80 00 00
        E 480 90 0b 62
        E 0 90 1c 62
        E 240 80 0b 00
        E 0 80 1c 00
        E 120 90 10 62
        E 0 90 19 62
        E 240 80 19 00
        E 0 90 15 62
        E 120 80 10 00
        E 120 90 0b 62
        E 240 80 15 00
        E 120 80 0b 00
        E 0 90 1d 62
        E 240 80 1d 00
        E 120 90 0e 62
        E 0 90 09 62
        E 120 90 14 62
        E 120 90 19 62
        E 0 90 03 62
        E 120 80 0e 00
        E 0 80 09 00
        E 120 80 14 00
        E 0 80 19 00
        E 0 80 03 00
        E 240 90 00 62
        E 240 80 00 00
        E 0 90 0c 62
        E 120 90 09 62
        E 0 90 12 62
        E 120 80 0c 00
        E 0 90 18 62
        E 240 80 09 00
        E 0 80 18 00
        E 120 90 14 62
        E 0 90 1a 62
        E 360 90 01 62
        E 120 80 14 00
        E 0 80 1a 00
        E 0 90 16 62
        E 120 80 01 00
        E 120 80 12 00
        E 0 90 0e 62
        E 120 80 16 00
        E 0 90 0a 62
        E 120 80 0e 00
        E 0 90 04 62
        E 360 80 0a 00
        E 0 80 04 00
        E 0 90 1d 62
        E 120 90 16 62
        E 240 80 16 00
        E 0 90 0e 62
        E 120 80 1d 00
        E 120 90 10 62
        E 0 90 18 62
        E 120 80 0e 00
        E 0 90 0a 62
        E 240 80 10 00
        E 0 90 03 62
        E 120 80 0a 00
        E 120 80 03 00
        E 0 90 01 62
        E 240 80 18 00
        E 0 80 01 00
        E 0 90 14 62
        E 120 90 1c 62
        E 240 80 1c 00
        E 0 90 05 62
        E 120 80 14 00
        E 120 90 01 62
        E 120 80 05 00
        E 0 90 0a 62
        E 240 80 01 00
        E 0 90 0f 62
        E 120 90 1a 62
        E 360 80 0f 00
        E 120 80 0a 00
        E 0 80 1a 00
        E 240 90 1b 62
        E 240 80 1b 00
        E 0 90 1a 62
        E 240 80 1a 00
        E 0 90 19 62
        E 240 80 19 00
        E 0 90 18 62
        E 240 80 18 00
        E 0 90 17 62
        E 240 80 17 00
        E 0 90 16 62
        E 240 80 16 00
        E 0 90 15 62
        E 240 80 15 00
        E 0 90 14 62
        E 240 80 14 00
        E 0 90 14 62
        E 240 80 14 00
        E 0 90 15 62
        E 240 80 15 00
        E 0 90 16 62
        E 240 80 16 00
        E 0 90 17 62
        E 240 80 17 00
        E 0 90 18 62
        E 240 80 18 00
        E 0 90 19 62
        E 240 80 19 00
        E 0 90 1a 62
        E 240 80 1a 00
        E 0 90 1b 62
        E 240 80 1b 00
        E 0 90 0c 62
        E 120 80 0c 00
        E 120 90 03 62
        E 120 90 0c 62
        E 120 90 10 62
        E 120 80 03 00
        E 0 80 0c 00
        E 0 90 1d 62
        E 120 80 10 00
        E 0 90 16 62
        E 120 80 1d 00
        E 120 90 0e 62
        E 0 90 09 62
        E 120 80 16 00
        E 0 90 14 62
        E 120 90 19 62
        E 0 90 04 62
        E 120 80 0e 00
        E 0 80 09 00
        E 120 80 14 00
        E 0 80 19 00
        E 120 80 04 00
        E 360 90 0c 62
        E 120 90 09 62
        E 0 90 12 62
        E 120 80 0c 00
        E 0 90 18 62
        E 240 80 09 00
        E 0 80 18 00
        E 0 90 03 62
        E 120 90 14 62
        E 0 90 1a 62
        E 240 80 03 00
        E 0 90 01 62
        E 240 80 14 00
        E 0 80 1a 00
        E 0 80 01 00
        E 0 90 16 62
        E 120 90 04 62
        E 120 80 12 00
        E 0 90 0e 62
        E 120 80 16 00
        E 0 80 04 00
        E 0 90 0a 62
        E 120 80 0e 00
        E 360 80 0a 00
        E 0 90 1d 62
        E 120 90 16 62
        E 0 90 00 62
        E 240 80 16 00
        E 0 90 0e 62
        E 120 80 1d 00
        E 0 80 00 00
        E 120 90 10 62
        E 0 90 18 62
        E 0 90 06 62
        E 120 80 0e 00
        E 0 80 06 00
        E 0 90 0a 62
        E 240 80 10 00
        E 120 80 0a 00
        E 240 90 0a 62
        E 120 80 18 00
        E 0 90 0e 62
        E 120 80 0a 00
        E 0 90 05 62
        E 0 90 13 62
        E 120 80 0e 00
        E 120 80 05 00
        E 0 90 02 62
        E 120 80 13 00
        E 0 90 1a 62
        E 120 90 0f 62
        E 120 80 02 00
        E 120 80 1a 00
        E 120 80 0f 00
        E 0 90 17 62
        E 120 90 03 62
        E 0 90 1d 62
        E 240 80 17 00
        E 0 90 0e 62
        E 120 80 03 00
        E 0 80 1d 00
        E 0 90 13 62
        E 120 80 0e 00
        E 0 90 09 62
        E 120 80 13 00
        E 120 80 09 00
        E 600 90 1b 62
        E 240 80 1b 00
        E 0 90 1a 62
        E 240 80 1a 00
        E 0 90 19 62
        E 240 80 19 00
        E 0 90 18 62
        E 240 80 18 00
        E 0 90 17 62
        E 240 80 17 00
        E 0 90 16 62
        E 240 80 16 00
        E 0 90 15 62
        E 240 80 15 00
        E 0 90 14 62
        E 240 80 14 00
        E 0 90 14 62
        E 240 80 14 00
        E 0 90 15 62
        E 240 80 15 00
        E 0 90 16 62
        E 240 80 16 00
        E 0 90 17 62
        E 240 80 17 00
        E 0 90 18 62
        E 240 80 18 00
        E 0 90 19 62
        E 240 80 19 00
        E 0 90 1a 62
        E 240 80 1a 00
        E 0 90 1b 62
        E 240 80 1b 00
        E 120 90 03 62
        E 120 90 0c 62
        E 120 90 10 62
        E 120 80 03 00
        E 0 80 0c 00
        E 0 90 1d 62
        E 120 80 10 00
        E 0 90 16 62
        E 120 80 1d 00
        E 120 90 0e 62
        E 0 90 09 62
        E 120 80 16 00
        E 0 90 14 62
        E 120 90 19 62
        E 0 90 04 62
        E 120 80 0e 00
        E 0 80 09 00
        E 120 80 14 00
        E 0 80 19 00
        E 120 80 04 00
        E 360 90 0c 62
        E 120 90 09 62
        E 0 90 12 62
        E 120 80 0c 00
        E 0 90 18 62
        E 240 80 09 00
        E 0 80 18 00
        E 0 90 03 62
        E 120 90 14 62
        E 0 90 1a 62
        E 240 80 03 00
        E 0 90 01 62
        E 240 80 14 00
        E 0 80 1a 00
        E 0 80 01 00
        E 0 90 16 62
        E 120 90 04 62
        E 120 80 12 00
        E 0 90 0e 62
        E 120 80 16 00
        E 0 80 04 00
        E 0 90 0a 62
        E 120 80 0e 00
        E 360 80 0a 00
        E 0 90 1d 62
        E 120 90 16 62
        E 0 90 00 62
        E 240 80 16 00
        E 0 90 0e 62
        E 120 80 1d 00
        E 0 80 00 00
        E 120 90 10 62
        E 0 90 18 62
        E 0 90 06 62
        E 120 80 0e 00
        E 0 80 06 00
        E 0 90 0a 62
        E 240 80 10 00
        E 120 80 0a 00
        E 240 90 0a 62
        E 120 80 18 00
        E 0 90 0e 62
        E 120 80 0a 00
        E 0 90 05 62
        E 0 90 13 62
        E 120 80 0e 00
        E 120 80 05 00
        E 0 90 02 62
        E 120 80 13 00
        E 0 90 1a 62
        E 120 90 0f 62
        E 120 80 02 00
        E 120 80 1a 00
        E 120 80 0f 00
        E 0 90 17 62
        E 120 90 03 62
        E 0 90 1d 62
        E 240 80 17 00
        E 0 90 0e 62
        E 120 80 03 00
        E 0 80 1d 00
        E 0 90 13 62
        E 120 80 0e 00
        E 0 90 09 62
        E 0 90 00 62
        E 120 80 13 00
        E 0 90 0f 62
        E 120 80 09 00
        E 0 80 00 00
        E 0 90 0c 62
        E 0 90 14 62
        E 0 90 16 62
        E 0 90 19 62
        E 240 80 0f 00
        E 0 80 0c 00
        E 0 80 14 00
        E 0 80 19 00
        E 0 90 1c 62
        E 120 80 16 00
        E 0 90 07 62
        E 240 80 07 00
        E 120 80 1c 00
        E 0 90 1c 62
        E 240 80 1c 00
        E 0 90 1b 62
        E 240 80 1b 00
        E 0 90 1a 62
        E 240 80 1a 00
        E 0 90 19 62
        E 240 80 19 00
        E 0 90 18 62
        E 240 80 18 00
        E 0 90 17 62
        E 240 80 17 00
        E 0 90 16 62
        E 240 80 16 00
        E 0 90 15 62
        E 240 80 15 00
        E 0 90 15 62
        E 240 80 15 00
        E 0 90 16 62
        E 240 80 16 00
        E 0 90 17 62
        E 240 80 17 00
        E 0 90 18 62
        E 240 80 18 00
        E 0 90 19 62
        E 240 80 19 00
        E 0 90 1a 62
        E 240 80 1a 00
        E 0 90 1b 62
        E 240 80 1b 00
        E 0 90 1c 62
        E 240 80 1c 00
        E 0 90 03 62
        E 120 90 0c 62
        E 120 90 10 62
        E 120 80 03 00
        E 0 80 0c 00
        E 0 90 1d 62
        E 120 80 10 00
        E 0 90 16 62
        E 120 80 1d 00
        E 120 90 0e 62
        E 0 90 09 62
        E 120 80 16 00
        E 0 90 14 62
        E 120 90 19 62
        E 0 90 04 62
        E 120 80 0e 00
        E 0 80 09 00
        E 120 80 14 00
        E 0 80 19 00
        E 120 80 04 00
        E 360 90 0c 62
        E 120 90 09 62
        E 0 90 12 62
        E 120 80 0c 00
        E 0 90 18 62
        E 240 80 09 00
        E 0 80 18 00
        E 0 90 03 62
        E 120 90 14 62
        E 0 90 1a 62
        E 240 80 03 00
        E 0 90 01 62
        E 240 80 14 00
        E 0 80 1a 00
        E 0 80 01 00
        E 0 90 16 62
        E 120 90 04 62
        E 120 80 12 00
        E 0 90 0e 62
        E 120 80 16 00
        E 0 80 04 00
        E 0 90 0a 62
        E 120 80 0e 00
        E 360 80 0a 00
        E 0 90 1d 62
        E 120 90 16 62
        E 0 90 00 62
        E 240 80 16 00
        E 0 90 0e 62
        E 120 80 1d 00
        E 0 80 00 00
        E 120 90 10 62
        E 0 90 18 62
        E 0 90 06 62
        E 120 80 0e 00
        E 0 80 06 00
        E 0 90 0a 62
        E 240 80 10 00
        E 120 80 0a 00
        E 240 90 0a 62
        E 120 80 18 00
        E 0 90 0e 62
        E 120 80 0a 00
        E 0 90 05 62
        E 0 90 13 62
        E 120 80 0e 00
        E 120 80 05 00
        E 0 90 02 62
        E 120 80 13 00
        E 0 90 1a 62
        E 120 90 0f 62
        E 120 80 02 00
        E 120 80 1a 00
        E 120 80 0f 00
        E 0 90 17 62
        E 120 90 03 62
        E 0 90 1d 62
        E 240 80 17 00
        E 0 90 0e 62
        E 120 80 03 00
        E 0 80 1d 00
        E 0 90 13 62
        E 120 80 0e 00
        E 0 90 09 62
        E 0 90 00 62
        E 120 80 13 00
        E 0 90 0f 62
        E 120 80 09 00
        E 0 80 00 00
        E 0 90 0c 62
        E 0 90 14 62
        E 0 90 16 62
        E 0 90 19 62
        E 240 80 0f 00
        E 0 80 0c 00
        E 0 80 14 00
        E 0 80 19 00
        E 0 90 1c 62
        E 120 80 16 00
        E 0 90 07 62
        E 240 80 07 00
        E 120 80 1c 00
        E 120 90 1c 62
        E 240 80 1c 00
        E 0 90 1b 62
        E 240 80 1b 00
        E 0 90 1a 62
        E 240 80 1a 00
        E 0 90 19 62
        E 240 80 19 00
        E 0 90 18 62
        E 240 80 18 00
        E 0 90 17 62
        E 240 80 17 00
        E 0 90 16 62
        E 240 80 16 00
        E 0 90 15 62
        E 240 80 15 00
        E 0 90 15 62
        E 240 80 15 00
        E 0 90 16 62
        E 240 80 16 00
        E 0 90 17 62
        E 240 80 17 00
        E 0 90 18 62
        E 240 80 18 00
        E 0 90 19 62
        E 240 80 19 00
        E 0 90 1a 62
        E 240 80 1a 00
        E 0 90 1b 62
        E 240 80 1b 00
        E 0 90 1c 62
        E 240 80 1c 00
        E 0 90 03 62
        E 120 90 0c 62
        E 120 90 10 62
        E 120 80 03 00
        E 0 80 0c 00
        E 0 90 1d 62
        E 120 80 10 00
        E 0 90 16 62
        E 120 80 1d 00
        E 120 90 0e 62
        E 0 90 09 62
        E 120 80 16 00
        E 0 90 14 62
        E 120 90 19 62
        E 0 90 04 62
        E 120 80 0e 00
        E 0 80 09 00
        E 120 80 14 00
        E 0 80 19 00
        E 120 80 04 00
        E 360 90 0c 62
        E 120 90 09 62
        E 0 90 12 62
        E 120 80 0c 00
        E 0 90 18 62
        E 240 80 09 00
        E 0 80 18 00
        E 0 90 03 62
        E 120 90 14 62
        E 0 90 1a 62
        E 240 80 03 00
        E 0 90 01 62
        E 240 80 14 00
        E 0 80 1a 00
        E 0 80 01 00
        E 0 90 16 62
        E 120 90 04 62
        E 120 80 12 00
        E 0 90 0e 62
        E 120 80 16 00
        E 0 80 04 00
        E 0 90 0a 62
        E 120 80 0e 00
        E 360 80 0a 00
        E 0 90 1d 62
        E 120 90 16 62
        E 0 90 00 62
        E 240 80 16 00
        E 0 90 0e 62
        E 120 80 1d 00
        E 0 80 00 00
        E 120 90 10 62
        E 0 90 18 62
        E 0 90 06 62
        E 120 80 0e 00
        E 0 80 06 00
        E 0 90 0a 62
        E 240 80 10 00
        E 120 80 0a 00
        E 240 90 0a 62
        E 120 80 18 00
        E 0 90 0e 62
        E 120 80 0a 00
        E 0 90 05 62
        E 0 90 13 62
        E 120 80 0e 00
        E 120 80 05 00
        E 0 90 02 62
        E 120 80 13 00
        E 0 90 1a 62
        E 120 90 0f 62
        E 120 80 02 00
        E 120 80 1a 00
        E 120 80 0f 00
        E 0 90 17 62
        E 120 90 03 62
        E 0 90 1d 62
        E 240 80 17 00
        E 0 90 0e 62
        E 120 80 03 00
        E 0 80 1d 00
        E 0 90 13 62
        E 120 80 0e 00
        E 0 90 09 62
        E 0 90 00 62
        E 120 80 13 00
        E 0 90 0f 62
        E 120 80 09 00
        E 0 80 00 00
        E 0 90 0c 62
        E 0 90 14 62
        E 0 90 16 62
        E 0 90 19 62
        E 240 80 0f 00
        E 0 80 0c 00
        E 0 80 14 00
        E 0 80 19 00
        E 0 90 1c 62
        E 120 80 16 00
        E 0 90 07 62
        E 240 80 07 00
        E 120 80 1c 00
        E 120 90 1c 62
        E 240 80 1c 00
        E 0 90 1b 62
        E 240 80 1b 00
        E 0 90 1a 62
        E 240 80 1a 00
        E 0 90 19 62
        E 240 80 19 00
        E 0 90 18 62
        E 240 80 18 00
        E 0 90 17 62
        E 240 80 17 00
        E 0 90 16 62
        E 240 80 16 00
        E 0 90 15 62
        E 240 80 15 00
        E 0 90 15 62
        E 240 80 15 00
        E 0 90 16 62
        E 240 80 16 00
        E 0 90 17 62
        E 240 80 17 00
        E 0 90 18 62
        E 240 80 18 00
        E 0 90 19 62
        E 240 80 19 00
        E 0 90 1a 62
        E 240 80 1a 00
        E 0 90 1b 62
        E 240 80 1b 00
        E 0 90 1c 62
        E 240 80 1c 00
        E 0 90 1c 62
        E 240 80 1c 00
        E 0 90 1b 62
        E 240 80 1b 00
        E 0 90 1a 62
        E 240 80 1a 00
        E 0 90 19 62
        E 240 80 19 00
        E 0 90 18 62
        E 240 80 18 00
        E 0 90 17 62
        E 240 80 17 00
        E 0 90 16 62
        E 240 80 16 00
        E 0 90 15 62
        E 240 80 15 00
        E 0 90 15 62
        E 240 80 15 00
        E 0 90 16 62
        E 240 80 16 00
        E 0 90 17 62
        E 240 80 17 00
        E 0 90 18 62
        E 240 80 18 00
        E 0 90 19 62
        E 240 80 19 00
        E 0 90 1a 62
        E 240 80 1a 00
        E 0 90 1b 62
        E 240 80 1b 00
        E 0 90 1c 62
        E 240 80 1c 00
        E 0 90 1c 62
        E 240 80 1c 00
        E 0 90 1b 62
        E 240 80 1b 00
        E 0 90 1a 62
        E 240 80 1a 00
        E 0 90 19 62
        E 240 80 19 00
        E 0 90 18 62
        E 240 80 18 00
        E 0 90 17 62
        E 240 80 17 00
        E 0 90 16 62
        E 240 80 16 00
        E 0 90 15 62
        E 240 80 15 00
        E 0 90 15 62
        E 240 80 15 00
        E 0 90 16 62
        E 240 80 16 00
        E 0 90 17 62
        E 240 80 17 00
        E 0 90 18 62
        E 240 80 18 00
        E 0 90 19 62
        E 240 80 19 00
        E 0 90 1a 62
        E 240 80 1a 00
        E 0 90 1b 62
        E 240 80 1b 00
        E 0 90 1c 62
        E 240 80 1c 00
        E 0 90 1c 62
        E 240 80 1c 00
        E 0 90 1b 62
        E 240 80 1b 00
        E 0 90 1a 62
        E 240 80 1a 00
        E 0 90 19 62
        E 240 80 19 00
        E 0 90 18 62
        E 240 80 18 00
        E 0 90 17 62
        E 240 80 17 00
        E 0 90 16 62
        E 240 80 16 00
        E 0 90 15 62
        E 240 80 15 00
        E 0 90 15 62
        E 240 80 15 00
        E 0 90 16 62
        E 240 80 16 00
        E 0 90 17 62
        E 240 80 17 00
        E 0 90 18 62
        E 240 80 18 00
        E 0 90 19 62
        E 240 80 19 00
        E 0 90 1a 62
        E 240 80 1a 00
        E 0 90 1b 62
        E 240 80 1b 00
        E 0 90 1c 62
        E 240 80 1c 00
        E 0 90 1c 62
        E 240 80 1c 00
        E 0 90 1b 62
        E 240 80 1b 00
        E 0 90 1a 62
        E 240 80 1a 00
        E 0 90 19 62
        E 240 80 19 00
        E 0 90 18 62
        E 240 80 18 00
        E 0 90 17 62
        E 240 80 17 00
        E 0 90 16 62
        E 240 80 16 00
        E 0 90 15 62
        E 240 80 15 00
        E 0 90 15 62
        E 240 80 15 00
        E 0 90 16 62
        E 240 80 16 00
        E 0 90 17 62
        E 240 80 17 00
        E 0 90 18 62
        E 240 80 18 00
        E 0 90 19 62
        E 240 80 19 00
        E 0 90 1a 62
        E 240 80 1a 00
        E 0 90 1b 62
        E 240 80 1b 00
        E 0 90 1c 62
        E 240 80 1c 00
        E 0 90 1c 62
        E 240 80 1c 00
        E 0 90 1b 62
        E 240 80 1b 00
        E 0 90 1a 62
        E 240 80 1a 00
        E 0 90 19 62
        E 240 80 19 00
        E 0 90 18 62
        E 240 80 18 00
        E 0 90 17 62
        E 240 80 17 00
        E 0 90 16 62
        E 240 80 16 00
        E 0 90 15 62
        E 240 80 15 00
        E 0 90 15 62
        E 240 80 15 00
        E 0 90 16 62
        E 240 80 16 00
        E 0 90 17 62
        E 240 80 17 00
        E 0 90 18 62
        E 240 80 18 00
        E 0 90 19 62
        E 240 80 19 00
        E 0 90 1a 62
        E 240 80 1a 00
        E 0 90 1b 62
        E 240 80 1b 00
        E 0 90 1c 62
        E 240 80 1c 00
        E 0 90 00 62
        E 120 80 00 00
        E 0 90 01 62
        E 120 80 01 00
        E 0 90 02 62
        E 120 80 02 00
        E 0 90 03 62
        E 120 80 03 00
        E 0 90 04 62
        E 120 80 04 00
        E 0 90 05 62
        E 120 80 05 00
        E 0 90 06 62
        E 120 80 06 00
        E 0 90 07 62
        E 120 80 07 00
        E 0 90 08 62
        E 120 80 08 00
        E 0 90 09 62
        E 120 80 09 00
        E 0 90 0a 62
        E 120 80 0a 00
        E 0 90 0b 62
        E 120 80 0b 00
        E 0 90 0c 62
        E 120 80 0c 00
        E 0 90 0d 62
        E 120 80 0d 00
        E 0 90 0e 62
        E 120 80 0e 00
        E 0 90 0f 62
        E 120 80 0f 00
        E 0 90 10 62
        E 120 80 10 00
        E 0 90 11 62
        E 120 80 11 00
        E 0 90 12 62
        E 120 80 12 00
        E 0 90 13 62
        E 120 80 13 00
        E 0 90 14 62
        E 120 80 14 00
        E 0 90 15 62
        E 120 80 15 00
        E 0 90 16 62
        E 120 80 16 00
        E 0 90 17 62
        E 120 80 17 00
        E 0 90 18 62
        E 120 80 18 00
        E 0 90 19 62
        E 120 80 19 00
        E 0 90 1a 62
        E 120 80 1a 00
        E 0 90 1b 62
        E 120 80 1b 00
        E 0 90 00 62
        E 120 80 00 00
        E 0 90 01 62
        E 120 80 01 00
        E 0 90 02 62
        E 120 80 02 00
        E 0 90 03 62
        E 120 80 03 00
        E 0 90 04 62
        E 120 80 04 00
        E 0 90 05 62
        E 120 80 05 00
        E 0 90 06 62
        E 120 80 06 00
        E 0 90 07 62
        E 120 80 07 00
        E 0 90 08 62
        E 120 80 08 00
        E 0 90 09 62
        E 120 80 09 00
        E 0 90 0a 62
        E 120 80 0a 00
        E 0 90 0b 62
        E 120 80 0b 00
        E 0 90 0c 62
        E 120 80 0c 00
        E 0 90 0d 62
        E 120 80 0d 00
        E 0 90 0e 62
        E 120 80 0e 00
        E 0 90 0f 62
        E 120 80 0f 00
        E 0 90 10 62
        E 120 80 10 00
        E 0 90 11 62
        E 120 80 11 00
        E 0 90 12 62
        E 120 80 12 00
        E 0 90 13 62
        E 120 80 13 00
        E 0 90 14 62
        E 120 80 14 00
        E 0 90 15 62
        E 120 80 15 00
        E 0 90 16 62
        E 120 80 16 00
        E 0 90 17 62
        E 120 80 17 00
        E 0 90 18 62
        E 120 80 18 00
        E 0 90 19 62
        E 120 80 19 00
        E 0 90 1a 62
        E 120 80 1a 00
        E 0 90 00 62
        E 120 80 00 00
        E 0 90 01 62
        E 120 80 01 00
        E 0 90 02 62
        E 120 80 02 00
        E 0 90 03 62
        E 120 80 03 00
        E 0 90 04 62
        E 120 80 04 00
        E 0 90 05 62
        E 120 80 05 00
        E 0 90 06 62
        E 120 80 06 00
        E 0 90 07 62
        E 120 80 07 00
        E 0 90 08 62
        E 120 80 08 00
        E 0 90 09 62
        E 120 80 09 00
        E 0 90 0a 62
        E 120 80 0a 00
        E 0 90 0b 62
        E 120 80 0b 00
        E 0 90 0c 62
        E 120 80 0c 00
        E 0 90 0d 62
        E 120 80 0d 00
        E 0 90 0e 62
        E 120 80 0e 00
        E 0 90 0f 62
        E 120 80 0f 00
        E 0 90 10 62
        E 120 80 10 00
        E 0 90 11 62
        E 120 80 11 00
        E 0 90 12 62
        E 120 80 12 00
        E 0 90 13 62
        E 120 80 13 00
        E 0 90 14 62
        E 120 80 14 00
        E 0 90 15 62
        E 120 80 15 00
        E 0 90 16 62
        E 120 80 16 00
        E 0 90 17 62
        E 120 80 17 00
        E 0 90 18 62
        E 120 80 18 00
        E 0 90 19 62
        E 120 80 19 00
        E 0 90 00 62
        E 120 80 00 00
        E 0 90 01 62
        E 120 80 01 00
        E 0 90 02 62
        E 120 80 02 00
        E 0 90 03 62
        E 120 80 03 00
        E 0 90 04 62
        E 120 80 04 00
        E 0 90 05 62
        E 120 80 05 00
        E 0 90 06 62
        E 120 80 06 00
        E 0 90 07 62
        E 120 80 07 00
        E 0 90 08 62
        E 120 80 08 00
        E 0 90 09 62
        E 120 80 09 00
        E 0 90 0a 62
        E 120 80 0a 00
        E 0 90 0b 62
        E 120 80 0b 00
        E 0 90 0c 62
        E 120 80 0c 00
        E 0 90 0d 62
        E 120 80 0d 00
        E 0 90 0e 62
        E 120 80 0e 00
        E 0 90 0f 62
        E 120 80 0f 00
        E 0 90 10 62
        E 120 80 10 00
        E 0 90 11 62
        E 120 80 11 00
        E 0 90 12 62
        E 120 80 12 00
        E 0 90 13 62
        E 120 80 13 00
        E 0 90 14 62
        E 120 80 14 00
        E 0 90 15 62
        E 120 80 15 00
        E 0 90 16 62
        E 120 80 16 00
        E 0 90 17 62
        E 120 80 17 00
        E 0 90 18 62
        E 120 80 18 00
        E 0 90 19 62
        E 120 80 19 00
        E 0 90 05 62
        E 120 80 05 00
        E 0 90 06 62
        E 120 80 06 00
        E 0 90 07 62
        E 120 80 07 00
        E 0 90 08 62
        E 120 80 08 00
        E 0 90 09 62
        E 120 80 09 00
        E 0 90 0a 62
        E 120 80 0a 00
        E 0 90 0b 62
        E 120 80 0b 00
        E 0 90 0c 62
        E 120 80 0c 00
        E 0 90 0d 62
        E 120 80 0d 00
        E 0 90 0e 62
        E 120 80 0e 00
        E 0 90 0f 62
        E 120 80 0f 00
        E 0 90 10 62
        E 120 80 10 00
        E 0 90 11 62
        E 120 80 11 00
        E 0 90 12 62
        E 120 80 12 00
        E 0 90 13 62
        E 120 80 13 00
        E 0 90 14 62
        E 120 80 14 00
        E 0 90 15 62
        E 120 80 15 00
        E 0 90 16 62
        E 120 80 16 00
        E 0 90 17 62
        E 120 80 17 00
        E 0 90 18 62
        E 120 80 18 00
        E 0 90 19 62
        E 120 80 19 00
        E 8160 90 04 60
        E 0 90 00 60
        E 0 90 01 60
        E 0 90 02 60
        E 0 90 03 60
        E 0 90 05 60
        E 0 90 06 60
        E 0 90 07 60
        E 0 90 08 60
        E 0 90 09 60
        E 0 90 0a 60
        E 0 90 0b 60
        E 0 90 0c 60
        E 0 90 0d 60
        E 0 90 0e 60
        E 0 90 0f 60
        E 0 90 10 60
        E 0 90 11 60
        E 0 90 12 60
        E 0 90 13 60
        E 0 90 14 60
        E 0 90 15 60
        E 0 90 1a 60
        E 0 90 16 60
        E 0 90 17 60
        E 0 90 18 60
        E 0 90 19 60
        E 0 90 1b 60
        E 0 90 1c 60
        E 0 90 1d 60
        E 0 90 1e 60
        E 0 90 1f 60
        E 0 90 20 60
        E 0 90 21 60
        E 0 90 22 60
        E 0 90 23 60
        E 0 90 24 60
        E 0 90 25 60
        E 0 90 26 60
        E 0 90 27 60
        E 0 90 28 60
        E 480 80 04 00
        E 0 80 00 00
        E 0 80 01 00
        E 0 80 02 00
        E 0 80 03 00
        E 0 80 05 00
        E 0 80 06 00
        E 0 80 07 00
        E 0 80 08 00
        E 0 80 09 00
        E 0 80 0a 00
        E 0 80 0b 00
        E 0 80 0c 00
        E 0 80 0d 00
        E 0 80 0e 00
        E 0 80 0f 00
        E 0 80 10 00
        E 0 80 11 00
        E 0 80 12 00
        E 0 80 13 00
        E 0 80 14 00
        E 0 80 15 00
        E 0 80 1a 00
        E 0 80 16 00
        E 0 80 17 00
        E 0 80 18 00
        E 0 80 19 00
        E 0 80 1b 00
        E 0 80 1c 00
        E 0 80 1d 00
        E 0 80 1e 00
        E 0 80 1f 00
        E 0 80 20 00
        E 0 80 21 00
        E 0 80 22 00
        E 0 80 23 00
        E 0 80 24 00
        E 0 80 25 00
        E 0 80 26 00
        E 0 80 27 00
        E 0 80 28 00
        E 480 90 04 60
        E 0 90 00 60
        E 0 90 01 60
        E 0 90 02 60
        E 0 90 03 60
        E 0 90 05 60
        E 0 90 06 60
        E 0 90 07 60
        E 0 90 08 60
        E 0 90 09 60
        E 0 90 0a 60
        E 0 90 0b 60
        E 0 90 0c 60
        E 0 90 0d 60
        E 0 90 0e 60
        E 0 90 0f 60
        E 0 90 10 60
        E 0 90 11 60
        E 0 90 12 60
        E 0 90 13 60
        E 0 90 14 60
        E 0 90 15 60
        E 0 90 1a 60
        E 0 90 16 60
        E 0 90 17 60
        E 0 90 18 60
        E 0 90 19 60
        E 0 90 1b 60
        E 0 90 1c 60
        E 0 90 1d 60
        E 0 90 1e 60
        E 0 90 1f 60
        E 0 90 20 60
        E 0 90 21 60
        E 0 90 22 60
        E 0 90 23 60
        E 0 90 24 60
        E 0 90 25 60
        E 0 90 26 60
        E 0 90 27 60
        E 0 90 28 60
        E 480 80 04 00
        E 0 80 00 00
        E 0 80 01 00
        E 0 80 02 00
        E 0 80 03 00
        E 0 80 05 00
        E 0 80 06 00
        E 0 80 07 00
        E 0 80 08 00
        E 0 80 09 00
        E 0 80 0a 00
        E 0 80 0b 00
        E 0 80 0c 00
        E 0 80 0d 00
        E 0 80 0e 00
        E 0 80 0f 00
        E 0 80 10 00
        E 0 80 11 00
        E 0 80 12 00
        E 0 80 13 00
        E 0 80 14 00
        E 0 80 15 00
        E 0 80 1a 00
        E 0 80 16 00
        E 0 80 17 00
        E 0 80 18 00
        E 0 80 19 00
        E 0 80 1b 00
        E 0 80 1c 00
        E 0 80 1d 00
        E 0 80 1e 00
        E 0 80 1f 00
        E 0 80 20 00
        E 0 80 21 00
        E 0 80 22 00
        E 0 80 23 00
        E 0 80 24 00
        E 0 80 25 00
        E 0 80 26 00
        E 0 80 27 00
        E 0 80 28 00
        E 480 90 04 60
        E 0 90 00 60
        E 0 90 01 60
        E 0 90 02 60
        E 0 90 03 60
        E 0 90 05 60
        E 0 90 06 60
        E 0 90 07 60
        E 0 90 08 60
        E 0 90 09 60
        E 0 90 0a 60
        E 0 90 0b 60
        E 0 90 0c 60
        E 0 90 0d 60
        E 0 90 0e 60
        E 0 90 0f 60
        E 0 90 10 60
        E 0 90 11 60
        E 0 90 12 60
        E 0 90 13 60
        E 0 90 14 60
        E 0 90 15 60
        E 0 90 1a 60
        E 0 90 16 60
        E 0 90 17 60
        E 0 90 18 60
        E 0 90 19 60
        E 0 90 1b 60
        E 0 90 1c 60
        E 0 90 1d 60
        E 0 90 1e 60
        E 0 90 1f 60
        E 0 90 20 60
        E 0 90 21 60
        E 0 90 22 60
        E 0 90 23 60
        E 0 90 24 60
        E 0 90 25 60
        E 0 90 26 60
        E 0 90 27 60
        E 0 90 28 60
        E 480 80 04 00
        E 0 80 00 00
        E 0 80 01 00
        E 0 80 02 00
        E 0 80 03 00
        E 0 80 05 00
        E 0 80 06 00
        E 0 80 07 00
        E 0 80 08 00
        E 0 80 09 00
        E 0 80 0a 00
        E 0 80 0b 00
        E 0 80 0c 00
        E 0 80 0d 00
        E 0 80 0e 00
        E 0 80 0f 00
        E 0 80 10 00
        E 0 80 11 00
        E 0 80 12 00
        E 0 80 13 00
        E 0 80 14 00
        E 0 80 15 00
        E 0 80 1a 00
        E 0 80 16 00
        E 0 80 17 00
        E 0 80 18 00
        E 0 80 19 00
        E 0 80 1b 00
        E 0 80 1c 00
        E 0 80 1d 00
        E 0 80 1e 00
        E 0 80 1f 00
        E 0 80 20 00
        E 0 80 21 00
        E 0 80 22 00
        E 0 80 23 00
        E 0 80 24 00
        E 0 80 25 00
        E 0 80 26 00
        E 0 80 27 00
        E 0 80 28 00
        E 480 90 04 60
        E 0 90 00 60
        E 0 90 01 60
        E 0 90 02 60
        E 0 90 03 60
        E 0 90 05 60
        E 0 90 06 60
        E 0 90 07 60
        E 0 90 08 60
        E 0 90 09 60
        E 0 90 0a 60
        E 0 90 0b 60
        E 0 90 0c 60
        E 0 90 0d 60
        E 0 90 0e 60
        E 0 90 0f 60
        E 0 90 10 60
        E 0 90 11 60
        E 0 90 12 60
        E 0 90 13 60
        E 0 90 14 60
        E 0 90 15 60
        E 0 90 1a 60
        E 0 90 16 60
        E 0 90 17 60
        E 0 90 18 60
        E 0 90 19 60
        E 0 90 1b 60
        E 0 90 1c 60
        E 0 90 1d 60
        E 0 90 1e 60
        E 0 90 1f 60
        E 0 90 20 60
        E 0 90 21 60
        E 0 90 22 60
        E 0 90 23 60
        E 0 90 24 60
        E 0 90 25 60
        E 0 90 26 60
        E 0 90 27 60
        E 0 90 28 60
        E 480 80 04 00
        E 0 80 00 00
        E 0 80 01 00
        E 0 80 02 00
        E 0 80 03 00
        E 0 80 05 00
        E 0 80 06 00
        E 0 80 07 00
        E 0 80 08 00
        E 0 80 09 00
        E 0 80 0a 00
        E 0 80 0b 00
        E 0 80 0c 00
        E 0 80 0d 00
        E 0 80 0e 00
        E 0 80 0f 00
        E 0 80 10 00
        E 0 80 11 00
        E 0 80 12 00
        E 0 80 13 00
        E 0 80 14 00
        E 0 80 15 00
        E 0 80 1a 00
        E 0 80 16 00
        E 0 80 17 00
        E 0 80 18 00
        E 0 80 19 00
        E 0 80 1b 00
        E 0 80 1c 00
        E 0 80 1d 00
        E 0 80 1e 00
        E 0 80 1f 00
        E 0 80 20 00
        E 0 80 21 00
        E 0 80 22 00
        E 0 80 23 00
        E 0 80 24 00
        E 0 80 25 00
        E 0 80 26 00
        E 0 80 27 00
        E 0 80 28 00
        E 568320 90 1b 60
        E 0 90 1a 60
        E 0 90 19 60
        E 0 90 18 60
        E 71640 90 09 60
        E 105000 80 1b 00
        E 0 80 1a 00
        E 0 80 19 00
        E 0 80 18 00
        E 0 80 09 00
        E 0 90 00 60
        E 480 80 00 00
        E 0 90 01 60
        E 480 80 01 00
        E 0 90 02 60
        E 360 90 00 60
        E 120 80 02 00
        E 0 90 03 60
        E 360 80 00 00
        E 0 90 01 60
        E 120 80 03 00
        E 0 90 04 60
        E 360 80 01 00
        E 0 90 02 60
        E 120 80 04 00
        E 0 90 05 60
        E 360 80 02 00
        E 0 90 03 60
        E 120 80 05 00
        E 0 90 06 60
        E 0 90 00 60
        E 360 80 03 00
        E 0 90 04 60
        E 120 80 06 00
        E 0 80 00 00
        E 0 90 07 60
        E 0 90 01 60
        E 360 80 04 00
        E 0 90 05 60
        E 120 80 07 00
        E 0 80 01 00
        E 0 90 08 60
        E 0 90 02 60
        E 360 80 05 00
        E 0 90 06 60
        E 120 80 08 00
        E 0 80 02 00
        E 0 90 09 60
        E 0 90 03 60
        E 360 80 06 00
        E 0 90 07 60
        E 120 80 09 00
        E 0 80 03 00
        E 0 90 0a 60
        E 0 90 04 60
        E 0 90 00 60
        E 360 80 07 00
        E 0 90 08 60
        E 120 80 0a 00
        E 0 80 04 00
        E 0 80 00 00
        E 0 90 0b 60
        E 0 90 05 60
        E 0 90 01 60
        E 360 80 08 00
        E 0 90 09 60
        E 120 80 0b 00
        E 0 80 05 00
        E 0 80 01 00
        E 0 90 0c 60
        E 0 90 06 60
        E 0 90 02 60
        E 360 80 09 00
        E 0 90 0a 60
        E 120 80 0c 00
        E 0 80 06 00
        E 0 80 02 00
        E 0 90 0d 60
        E 0 90 07 60
        E 0 90 03 60
        E 360 80 0a 00
        E 0 90 0b 60
        E 120 80 0d 00
        E 0 80 07 00
        E 0 80 03 00
        E 0 90 00 60
        E 0 90 0e 60
        E 0 90 08 60
        E 0 90 04 60
        E 360 80 0b 00
        E 0 90 0c 60
        E 120 80 00 00
        E 0 80 0e 00
        E 0 80 08 00
        E 0 80 04 00
        E 0 90 01 60
        E 0 90 0f 60
        E 0 90 09 60
        E 0 90 05 60
        E 360 80 0c 00
        E 0 90 0d 60
        E 120 80 01 00
        E 0 80 0f 00
        E 0 80 09 00
        E 0 80 05 00
        E 0 90 02 60
        E 0 90 10 60
        E 0 90 0a 60
        E 0 90 06 60
        E 360 80 0d 00
        E 0 90 0e 60
        E 120 80 02 00
        E 0 80 10 00
        E 0 80 0a 00
        E 0 80 06 00
        E 0 90 03 60
        E 0 90 11 60
        E 0 90 0b 60
        E 0 90 07 60
        E 0 90 00 60
        E 360 80 0e 00
        E 0 90 0f 60
        E 120 80 03 00
        E 0 80 11 00
        E 0 80 0b 00
        E 0 80 07 00
        E 0 80 00 00
        E 0 90 04 60
        E 0 90 12 60
        E 0 90 0c 60
        E 0 90 01 60
        E 0 90 08 60
        E 360 80 0f 00
        E 0 90 10 60
        E 120 80 04 00
        E 0 80 12 00
        E 0 80 0c 00
        E 0 80 01 00
        E 0 80 08 00
        E 0 90 05 60
        E 0 90 13 60
        E 0 90 0d 60
        E 0 90 02 60
        E 0 90 09 60
        E 360 80 10 00
        E 0 90 11 60
        E 120 80 05 00
        E 0 80 13 00
        E 0 80 0d 00
        E 0 80 02 00
        E 0 80 09 00
        E 0 90 06 60
        E 0 90 14 60
        E 0 90 0e 60
        E 0 90 03 60
        E 0 90 00 60
        E 0 90 0a 60
        E 360 80 11 00
        E 0 90 12 60
        E 120 80 06 00
        E 0 80 14 00
        E 0 80 0e 00
        E 0 80 03 00
        E 0 80 00 00
        E 0 80 0a 00
        E 0 90 07 60
        E 0 90 15 60
        E 0 90 0f 60
        E 0 90 04 60
        E 0 90 01 60
        E 0 90 0b 60
        E 360 80 12 00
        E 0 90 13 60
        E 120 80 07 00
        E 0 80 15 00
        E 0 80 0f 00
        E 0 80 04 00
        E 0 80 01 00
        E 0 80 0b 00
        E 0 90 16 60
        E 0 90 10 60
        E 0 90 05 60
        E 0 90 02 60
        E 0 90 0c 60
        E 0 90 08 60
        E 360 80 13 00
        E 0 90 14 60
        E 120 80 16 00
        E 0 80 10 00
        E 0 80 05 00
        E 0 80 02 00
        E 0 80 0c 00
        E 0 80 08 00
        E 0 90 17 60
        E 0 90 11 60
        E 0 90 06 60
        E 0 90 03 60
        E 0 90 00 60
        E 0 90 0d 60
        E 0 90 09 60
        E 360 80 14 00
        E 0 90 15 60
        E 0 90 18 60
        E 120 80 17 00
        E 0 80 11 00
        E 0 80 06 00
        E 0 80 03 00
        E 0 80 00 00
        E 0 80 0d 00
        E 0 80 09 00
        E 0 90 12 60
        E 0 90 07 60
        E 0 90 04 60
        E 0 90 01 60
        E 0 90 0e 60
        E 0 90 0a 60
        E 360 80 15 00
        E 0 80 18 00
        E 0 90 16 60
        E 0 90 19 60
        E 120 80 12 00
        E 0 80 07 00
        E 0 80 04 00
        E 0 80 01 00
        E 0 80 0e 00
        E 0 80 0a 00
        E 0 90 13 60
        E 0 90 05 60
        E 0 90 02 60
        E 0 90 0f 60
        E 0 90 0b 60
        E 0 90 08 60
        E 360 80 16 00
        E 0 80 19 00
        E 0 90 17 60
        E 0 90 1a 60
        E 120 80 13 00
        E 0 80 05 00
        E 0 80 02 00
        E 0 80 0f 00
        E 0 80 0b 00
        E 0 80 08 00
        E 0 90 14 60
        E 0 90 06 60
        E 0 90 03 60
        E 0 90 00 60
        E 0 90 0c 60
        E 0 90 09 60
        E 0 90 10 60
        E 360 80 17 00
        E 0 80 1a 00
        E 0 90 18 60
        E 0 90 1b 60
        E 120 80 14 00
        E 0 80 06 00
        E 0 80 03 00
        E 0 80 00 00
        E 0 80 0c 00
        E 0 80 09 00
        E 0 80 10 00
        E 0 90 15 60
        E 0 90 07 60
        E 0 90 04 60
        E 0 90 01 60
        E 0 90 0d 60
        E 0 90 0a 60
        E 0 90 11 60
        E 360 80 18 00
        E 0 80 1b 00
        E 0 90 19 60
        E 120 80 15 00
        E 0 80 07 00
        E 0 80 04 00
        E 0 80 01 00
        E 0 80 0d 00
        E 0 80 0a 00
        E 0 80 11 00
        E 0 90 16 60
        E 0 90 05 60
        E 0 90 02 60
        E 0 90 0e 60
        E 0 90 0b 60
        E 0 90 08 60
        E 0 90 12 60
        E 360 80 19 00
        E 0 90 1a 60
        E 120 80 16 00
        E 0 80 05 00
        E 0 80 02 00
        E 0 80 0e 00
        E 0 80 0b 00
        E 0 80 08 00
        E 0 80 12 00
        E 0 90 17 60
        E 0 90 06 60
        E 0 90 03 60
        E 0 90 00 60
        E 0 90 0f 60
        E 0 90 0c 60
        E 0 90 09 60
        E 0 90 13 60
        E 360 80 1a 00
        E 0 90 1b 60
        E 0 90 10 60
        E 120 80 17 00
        E 0 80 06 00
        E 0 80 03 00
        E 0 80 00 00
        E 0 80 0f 00
        E 0 80 0c 00
        E 0 80 09 00
        E 0 80 13 00
        E 0 90 07 60
        E 0 90 04 60
        E 0 90 01 60
        E 0 90 0d 60
        E 0 90 0a 60
        E 0 90 14 60
        E 0 90 18 60
        E 360 80 1b 00
        E 0 80 10 00
        E 0 90 11 60
        E 120 80 07 00
        E 0 80 04 00
        E 0 80 01 00
        E 0 80 0d 00
        E 0 80 0a 00
        E 0 80 14 00
        E 0 80 18 00
        E 0 90 05 60
        E 0 90 02 60
        E 0 90 0e 60
        E 0 90 0b 60
        E 0 90 15 60
        E 0 90 19 60
        E 0 90 08 60
        E 360 80 11 00
        E 0 90 12 60
        E 120 80 05 00
        E 0 80 02 00
        E 0 80 0e 00
        E 0 80 0b 00
        E 0 80 15 00
        E 0 80 19 00
        E 0 80 08 00
        E 0 90 06 60
        E 0 90 03 60
        E 0 90 00 60
        E 0 90 0f 60
        E 0 90 0c 60
        E 0 90 16 60
        E 0 90 1a 60
        E 0 90 09 60
        E 480 80 12 00
        E 0 80 06 00
        E 0 80 03 00
        E 0 80 00 00
        E 0 80 0f 00
        E 0 80 0c 00
        E 0 80 16 00
        E 0 80 1a 00
        E 0 80 09 00
        E 0 90 07 60
        E 0 90 04 60
        E 0 90 01 60
        E 0 90 0d 60
        E 0 90 17 60
        E 0 90 1b 60
        E 0 90 10 60
        E 0 90 13 60
        E 0 90 0a 60
        E 480 80 07 00
        E 0 80 04 00
        E 0 80 01 00
        E 0 80 0d 00
        E 0 80 17 00
        E 0 80 1b 00
        E 0 80 10 00
        E 0 80 13 00
        E 0 80 0a 00
        E 0 90 05 60
        E 0 90 02 60
        E 0 90 0e 60
        E 0 90 18 60
        E 0 90 11 60
        E 0 90 14 60
        E 0 90 0b 60
        E 0 90 08 60
        E 480 80 05 00
        E 0 80 02 00
        E 0 80 0e 00
        E 0 80 18 00
        E 0 80 11 00
        E 0 80 14 00
        E 0 80 0b 00
        E 0 80 08 00
        E 0 90 06 60
        E 0 90 03 60
        E 0 90 00 60
        E 0 90 0f 60
        E 0 90 19 60
        E 0 90 12 60
        E 0 90 15 60
        E 0 90 0c 60
        E 0 90 09 60
        E 480 80 06 00
        E 0 80 03 00
        E 0 80 00 00
        E 0 80 0f 00
        E 0 80 19 00
        E 0 80 12 00
        E 0 80 15 00
        E 0 80 0c 00
        E 0 80 09 00
        E 0 90 07 60
        E 0 90 04 60
        E 0 90 01 60
        E 0 90 1a 60
        E 0 90 13 60
        E 0 90 16 60
        E 0 90 10 60
        E 0 90 0d 60
        E 0 90 0a 60
        E 480 80 07 00
        E 0 80 04 00
        E 0 80 01 00
        E 0 80 1a 00
        E 0 80 13 00
        E 0 80 16 00
        E 0 80 10 00
        E 0 80 0d 00
        E 0 80 0a 00
        E 0 90 05 60
        E 0 90 02 60
        E 0 90 1b 60
        E 0 90 14 60
        E 0 90 11 60
        E 0 90 17 60
        E 0 90 0e 60
        E 0 90 0b 60
        E 0 90 08 60
        E 360 90 00 60
        E 120 80 05 00
        E 0 80 02 00
        E 0 80 1b 00
        E 0 80 14 00
        E 0 80 11 00
        E 0 80 17 00
        E 0 80 0e 00
        E 0 80 0b 00
        E 0 80 08 00
        E 0 90 06 60
        E 0 90 03 60
        E 0 90 15 60
        E 0 90 12 60
        E 0 90 18 60
        E 0 90 0f 60
        E 0 90 0c 60
        E 0 90 09 60
        E 360 80 00 00
        E 0 90 01 60
        E 120 80 06 00
        E 0 80 03 00
        E 0 80 15 00
        E 0 80 12 00
        E 0 80 18 00
        E 0 80 0f 00
        E 0 80 0c 00
        E 0 80 09 00
        E 0 90 07 60
        E 0 90 04 60
        E 0 90 16 60
        E 0 90 13 60
        E 0 90 19 60
        E 0 90 10 60
        E 0 90 0d 60
        E 0 90 0a 60
        E 360 80 01 00
        E 0 90 02 60
        E 120 80 07 00
        E 0 80 04 00
        E 0 80 16 00
        E 0 80 13 00
        E 0 80 19 00
        E 0 80 10 00
        E 0 80 0d 00
        E 0 80 0a 00
        E 0 90 05 60
        E 0 90 17 60
        E 0 90 14 60
        E 0 90 1a 60
        E 0 90 11 60
        E 0 90 0b 60
        E 0 90 05 60
        E 0 90 00 60
        E 0 90 0e 60
        E 0 90 08 60
        E 360 80 02 00
        E 0 90 03 60
        E 120 80 05 00
        E 0 80 17 00
        E 0 80 14 00
        E 0 80 1a 00
        E 0 80 11 00
        E 0 80 0b 00
        E 0 80 05 00
        E 0 80 00 00
        E 0 80 0e 00
        E 0 80 08 00
        E 0 90 06 60
        E 0 90 1b 60
        E 0 90 18 60
        E 0 90 15 60
        E 0 90 12 60
        E 0 90 06 60
        E 0 90 0c 60
        E 0 90 06 60
        E 0 90 01 60
        E 0 90 0f 60
        E 0 90 09 60
        E 360 80 03 00
        E 0 90 04 60
        E 120 80 06 00
        E 0 80 1b 00
        E 0 80 18 00
        E 0 80 15 00
        E 0 80 12 00
        E 0 80 06 00
        E 0 80 0c 00
        E 0 80 06 00
        E 0 80 01 00
        E 0 80 0f 00
        E 0 80 09 00
        E 0 90 07 60
        E 0 90 19 60
        E 0 90 16 60
        E 0 90 13 60
        E 0 90 07 60
        E 0 90 0d 60
        E 0 90 07 60
        E 0 90 02 60
        E 0 90 10 60
        E 0 90 0a 60
        E 360 80 04 00
        E 0 90 05 60
        E 120 80 07 00
        E 0 80 19 00
        E 0 80 16 00
        E 0 80 13 00
        E 0 80 07 00
        E 0 80 0d 00
        E 0 80 07 00
        E 0 80 02 00
        E 0 80 10 00
        E 0 80 0a 00
        E 0 90 03 60
        E 0 90 00 60
        E 0 90 1a 60
        E 0 90 17 60
        E 0 90 14 60
        E 0 90 0e 60
        E 0 90 08 60
        E 0 90 11 60
        E 0 90 0b 60
        E 360 80 05 00
        E 0 90 06 60
        E 120 80 03 00
        E 0 80 00 00
        E 0 80 1a 00
        E 0 80 17 00
        E 0 80 14 00
        E 0 80 0e 00
        E 0 80 08 00
        E 0 80 11 00
        E 0 80 0b 00
        E 0 90 01 60
        E 0 90 1b 60
        E 0 90 18 60
        E 0 90 15 60
        E 0 90 0f 60
        E 0 90 09 60
        E 0 90 04 60
        E 0 90 12 60
        E 0 90 0c 60
        E 360 80 06 00
        E 0 90 07 60
        E 120 80 01 00
        E 0 80 1b 00
        E 0 80 18 00
        E 0 80 15 00
        E 0 80 0f 00
        E 0 80 09 00
        E 0 80 04 00
        E 0 80 12 00
        E 0 80 0c 00
        E 0 90 02 60
        E 0 90 19 60
        E 0 90 16 60
        E 0 90 10 60
        E 0 90 0a 60
        E 0 90 05 60
        E 0 90 13 60
        E 0 90 0d 60
        E 360 80 07 00
        E 0 90 00 60
        E 120 80 02 00
        E 0 80 19 00
        E 0 80 16 00
        E 0 80 10 00
        E 0 80 0a 00
        E 0 80 05 00
        E 0 80 13 00
        E 0 80 0d 00
        E 0 90 03 60
        E 0 90 1a 60
        E 0 90 17 60
        E 0 90 11 60
        E 0 90 0b 60
        E 0 90 08 60
        E 0 90 06 60
        E 0 90 14 60
        E 0 90 0e 60
        E 360 80 00 00
        E 0 90 01 60
        E 120 80 03 00
        E 0 80 1a 00
        E 0 80 17 00
        E 0 80 11 00
        E 0 80 0b 00
        E 0 80 08 00
        E 0 80 06 00
        E 0 80 14 00
        E 0 80 0e 00
        E 0 90 04 60
        E 0 90 1b 60
        E 0 90 18 60
        E 0 90 0c 60
        E 0 90 09 60
        E 0 90 07 60
        E 0 90 15 60
        E 0 90 0f 60
        E 360 80 01 00
        E 0 90 02 60
        E 120 80 04 00
        E 0 80 1b 00
        E 0 80 18 00
        E 0 80 0c 00
        E 0 80 09 00
        E 0 80 07 00
        E 0 80 15 00
        E 0 80 0f 00
        E 0 90 05 60
        E 0 90 00 60
        E 0 90 19 60
        E 0 90 0d 60
        E 0 90 0a 60
        E 0 90 10 60
        E 0 90 08 60
        E 0 90 13 60
        E 0 90 17 60
        E 360 80 02 00
        E 0 90 03 60
        E 120 80 05 00
        E 0 80 00 00
        E 0 80 19 00
        E 0 80 0d 00
        E 0 80 0a 00
        E 0 80 10 00
        E 0 80 08 00
        E 0 80 13 00
        E 0 80 17 00
        E 0 90 06 60
        E 0 90 01 60
        E 0 90 0b 60
        E 0 90 11 60
        E 0 90 09 60
        E 0 90 14 60
        E 0 90 18 60
        E 0 90 0e 60
        E 360 80 03 00
        E 0 90 04 60
        E 120 80 06 00
        E 0 80 01 00
        E 0 80 0b 00
        E 0 80 11 00
        E 0 80 09 00
        E 0 80 14 00
        E 0 80 18 00
        E 0 80 0e 00
        E 0 90 07 60
        E 0 90 02 60
        E 0 90 0c 60
        E 0 90 12 60
        E 0 90 0a 60
        E 0 90 15 60
        E 0 90 19 60
        E 0 90 0f 60
        E 240 90 00 60
        E 120 80 04 00
        E 0 90 05 60
        E 120 80 07 00
        E 0 80 02 00
        E 0 80 0c 00
        E 0 80 12 00
        E 0 80 0a 00
        E 0 80 15 00
        E 0 80 19 00
        E 0 80 0f 00
        E 0 90 03 60
        E 0 90 0d 60
        E 0 90 08 60
        E 0 90 13 60
        E 0 90 0b 60
        E 0 90 16 60
        E 0 90 1a 60
        E 0 90 10 60
        E 240 80 00 00
        E 0 90 01 60
        E 120 80 05 00
        E 0 90 06 60
        E 120 80 03 00
        E 0 80 0d 00
        E 0 80 08 00
        E 0 80 13 00
        E 0 80 0b 00
        E 0 80 16 00
        E 0 80 1a 00
        E 0 80 10 00
        E 0 90 04 60
        E 0 90 09 60
        E 0 90 0e 60
        E 0 90 11 60
        E 0 90 0c 60
        E 0 90 17 60
        E 0 90 12 60
        E 0 90 15 60
        E 240 80 01 00
        E 0 90 02 60
        E 0 90 1a 60
        E 120 80 06 00
        E 0 90 07 60
        E 120 80 04 00
        E 0 80 09 00
        E 0 80 0e 00
        E 0 80 11 00
        E 0 80 0c 00
        E 0 80 17 00
        E 0 80 12 00
        E 0 80 15 00
        E 0 90 05 60
        E 0 90 00 60
        E 0 90 0a 60
        E 0 90 0d 60
        E 0 90 18 60
        E 0 90 13 60
        E 0 90 14 60
        E 0 90 10 60
        E 240 80 02 00
        E 0 80 1a 00
        E 0 90 03 60
        E 120 80 07 00
        E 120 80 05 00
        E 0 80 00 00
        E 0 80 0a 00
        E 0 80 0d 00
        E 0 80 18 00
        E 0 80 13 00
        E 0 80 14 00
        E 0 80 10 00
        E 0 90 06 60
        E 0 90 01 60
        E 0 90 10 60
        E 0 90 0b 60
        E 0 90 0e 60
        E 0 90 16 60
        E 0 90 11 60
        E 0 90 12 60
        E 240 80 03 00
        E 0 90 04 60
        E 240 80 06 00
        E 0 80 01 00
        E 0 80 10 00
        E 0 80 0b 00
        E 0 80 0e 00
        E 0 80 16 00
        E 0 80 11 00
        E 0 80 12 00
        E 0 90 07 60
        E 0 90 02 60
        E 0 90 11 60
        E 0 90 0c 60
        E 0 90 0d 60
        E 0 90 12 60
        E 0 90 14 60
        E 0 90 09 60
        E 0 90 16 60
        E 0 90 18 60
        E 240 80 04 00
        E 0 90 05 60
        E 240 80 07 00
        E 0 80 02 00
        E 0 80 11 00
        E 0 80 0c 00
        E 0 80 0d 00
        E 0 80 12 00
        E 0 80 14 00
        E 0 80 09 00
        E 0 80 16 00
        E 0 80 18 00
        E 0 90 03 60
        E 0 90 00 60
        E 0 90 0d 60
        E 0 90 0f 60
        E 0 90 15 60
        E 0 90 17 60
        E 0 90 0b 60
        E 240 80 05 00
        E 0 90 06 60
        E 120 80 0b 00
        E 120 80 03 00
        E 0 80 00 00
        E 0 80 0d 00
        E 0 80 0f 00
        E 0 80 15 00
        E 0 80 17 00
        E 0 90 12 60
        E 0 90 14 60
        E 0 90 09 60
        E 0 90 04 60
        E 0 90 01 60
        E 0 90 0e 60
        E 0 90 18 60
        E 240 80 06 00
        E 0 80 18 00
        E 0 90 07 60
        E 240 80 12 00
        E 0 80 14 00
        E 0 80 09 00
        E 0 80 04 00
        E 0 80 01 00
        E 0 80 0e 00
        E 0 90 05 60
        E 0 90 02 60
        E 0 90 0b 60
        E 0 90 18 60
        E 240 80 07 00
        E 0 80 0b 00
        E 0 80 18 00
        E 0 90 09 60
        E 0 90 0e 60
        E 0 90 12 60
        E 0 90 16 60
        E 240 80 05 00
        E 0 80 02 00
        E 0 80 09 00
        E 0 80 0e 00
        E 0 80 12 00
        E 0 80 16 00
        E 0 90 06 60
        E 0 90 03 60
        E 0 90 0a 60
        E 0 90 0f 60
        E 0 90 13 60
        E 0 90 18 60
        E 240 80 0a 00
        E 0 80 0f 00
        E 0 80 13 00
        E 0 80 18 00
        E 0 90 0c 60
        E 0 90 10 60
        E 0 90 16 60
        E 240 80 06 00
        E 0 80 03 00
        E 0 80 0c 00
        E 0 80 10 00
        E 0 80 16 00
        E 0 90 07 60
        E 0 90 04 60
        E 0 90 09 60
        E 0 90 0d 60
        E 0 90 11 60
        E 0 90 14 60
        E 0 90 17 60
        E 0 90 19 60
        E 0 90 01 60
        E 0 90 0b 60
        E 240 80 09 00
        E 0 80 0d 00
        E 0 80 11 00
        E 0 80 14 00
        E 0 80 17 00
        E 0 80 19 00
        E 120 80 01 00
        E 0 80 0b 00
        E 120 80 07 00
        E 0 80 04 00
        E 0 90 05 60
        E 0 90 0a 60
        E 0 90 0e 60
        E 0 90 12 60
        E 0 90 15 60
        E 0 90 18 60
        E 0 90 1a 60
        E 0 90 02 60
        E 240 80 0a 00
        E 0 80 0e 00
        E 0 80 12 00
        E 0 80 15 00
        E 0 80 18 00
        E 0 80 1a 00
        E 0 80 02 00
        E 0 90 06 60
        E 0 90 0a 60
        E 0 90 0e 60
        E 0 90 11 60
        E 0 90 14 60
        E 0 90 16 60
        E 0 90 03 60
        E 240 80 05 00
        E 0 80 06 00
        E 0 80 0a 00
        E 0 80 0e 00
        E 0 80 11 00
        E 0 80 14 00
        E 0 80 16 00
        E 0 80 03 00
        E 0 90 06 60
        E 0 90 0a 60
        E 0 90 0e 60
        E 0 90 12 60
        E 0 90 15 60
        E 0 90 18 60
        E 0 90 1a 60
        E 0 90 00 60
        E 0 90 04 60
        E 120 80 00 00
        E 120 80 0a 00
        E 0 80 0e 00
        E 0 80 12 00
        E 0 80 15 00
        E 0 80 18 00
        E 0 80 1a 00
        E 0 80 04 00
        E 0 90 09 60
        E 0 90 0d 60
        E 0 90 11 60
        E 0 90 14 60
        E 0 90 17 60
        E 0 90 19 60
        E 0 90 02 60
        E 120 80 02 00
        E 120 80 06 00
        E 0 80 09 00
        E 0 80 0d 00
        E 0 80 11 00
        E 0 80 14 00
        E 0 80 17 00
        E 0 80 19 00
        E 0 90 07 60
        E 0 90 0b 60
        E 0 90 0f 60
        E 0 90 13 60
        E 0 90 16 60
        E 0 90 19 60
        E 0 90 1b 60
        E 0 90 03 60
        E 120 80 03 00
        E 120 80 0b 00
        E 0 80 0f 00
        E 0 80 13 00
        E 0 80 16 00
        E 0 80 19 00
        E 0 80 1b 00
        E 0 90 00 60
        E 240 80 07 00
        E 0 90 11 60
        E 0 90 0c 60
        E 0 90 0d 60
        E 0 90 12 60
        E 0 90 14 60
        E 0 90 16 60
        E 0 90 18 60
        E 0 90 02 60
        E 0 90 03 60
        E 0 90 05 60
        E 0 90 07 60
        E 0 90 09 60
        E 0 90 0b 60
        E 120 80 00 00
        E 120 80 0b 00
        E 240 80 11 00
        E 0 80 0c 00
        E 0 80 0d 00
        E 0 80 12 00
        E 0 80 14 00
        E 0 80 16 00
        E 0 80 18 00
        E 0 80 02 00
        E 0 80 03 00
        E 0 80 05 00
        E 0 80 07 00
        E 0 80 09 00
        E 0 90 0d 60
        E 0 90 0f 60
        E 0 90 15 60
        E 0 90 17 60
        E 0 90 06 60
        E 0 90 08 60
        E 480 80 0d 00
        E 0 80 0f 00
        E 0 80 15 00
        E 0 80 17 00
        E 0 80 06 00
        E 0 80 08 00
        E 0 90 12 60
        E 0 90 14 60
        E 0 90 0e 60
        E 0 90 18 60
        E 0 90 03 60
        E 0 90 05 60
        E 0 90 09 60
        E 0 90 00 60
        E 0 90 0c 60
        E 240 80 18 00
        E 0 80 09 00
        E 0 80 0c 00
        E 120 80 00 00
        E 0 90 0b 60
        E 120 80 12 00
        E 0 80 14 00
        E 0 80 0e 00
        E 0 80 03 00
        E 0 80 05 00
        E 0 90 18 60
        E 0 90 09 60
        E 240 80 0b 00
        E 0 80 18 00
        E 0 80 09 00
        E 0 90 0e 60
        E 0 90 12 60
        E 0 90 16 60
        E 0 90 03 60
        E 0 90 07 60
        E 240 80 0e 00
        E 0 80 12 00
        E 0 80 16 00
        E 0 80 03 00
        E 0 80 07 00
        E 0 90 0f 60
        E 0 90 13 60
        E 0 90 18 60
        E 0 90 04 60
        E 0 90 09 60
        E 0 90 0b 60
        E 120 80 0b 00
        E 120 80 0f 00
        E 0 80 13 00
        E 0 80 18 00
        E 0 80 04 00
        E 0 80 09 00
        E 0 90 0c 60
        E 0 90 10 60
        E 0 90 16 60
        E 0 90 07 60
        E 240 80 0c 00
        E 0 80 10 00
        E 0 80 16 00
        E 0 80 07 00
        E 0 90 0d 60
        E 0 90 11 60
        E 0 90 14 60
        E 0 90 17 60
        E 0 90 19 60
        E 0 90 02 60
        E 0 90 05 60
        E 0 90 08 60
        E 0 90 0a 60
        E 0 90 00 60
        E 240 80 0d 00
        E 0 80 11 00
        E 0 80 14 00
        E 0 80 17 00
        E 0 80 19 00
        E 0 80 02 00
        E 0 80 05 00
        E 0 80 08 00
        E 0 80 0a 00
        E 0 80 00 00
        E 240 90 0e 60
        E 0 90 12 60
        E 0 90 15 60
        E 0 90 18 60
        E 0 90 03 60
        E 0 90 06 60
        E 0 90 09 60
        E 240 80 0e 00
        E 0 80 12 00
        E 0 80 15 00
        E 0 80 18 00
        E 0 80 03 00
        E 0 80 06 00
        E 0 80 09 00
        E 0 90 0e 60
        E 0 90 11 60
        E 0 90 14 60
        E 0 90 16 60
        E 0 90 02 60
        E 0 90 05 60
        E 0 90 07 60
        E 240 80 0e 00
        E 0 80 11 00
        E 0 80 14 00
        E 0 80 16 00
        E 0 80 02 00
        E 0 80 05 00
        E 0 80 07 00
        E 0 90 0e 60
        E 0 90 12 60
        E 0 90 15 60
        E 0 90 18 60
        E 0 90 03 60
        E 0 90 06 60
        E 0 90 09 60
        E 0 90 0b 60
        E 0 90 0f 60
        E 240 80 0e 00
        E 0 80 12 00
        E 0 80 15 00
        E 0 80 18 00
        E 0 80 03 00
        E 0 80 06 00
        E 0 80 09 00
        E 0 80 0b 00
        E 0 80 0f 00
        E 0 90 0d 60
        E 0 90 11 60
        E 0 90 14 60
        E 0 90 17 60
        E 0 90 19 60
        E 0 90 02 60
        E 0 90 05 60
        E 0 90 08 60
        E 0 90 0a 60
        E 0 90 0c 60
        E 120 90 03 60
        E 0 90 07 60
        E 120 80 0d 00
        E 0 80 11 00
        E 0 80 14 00
        E 0 80 17 00
        E 0 80 19 00
        E 0 80 02 00
        E 0 80 05 00
        E 0 80 08 00
        E 0 80 0a 00
        E 0 80 0c 00
        E 0 90 0f 60
        E 0 90 12 60
        E 0 90 16 60
        E 120 80 03 00
        E 0 80 07 00
        E 0 90 04 60
        E 0 90 00 60
        E 120 80 0f 00
        E 0 80 12 00
        E 0 80 16 00
        E 0 90 0a 60
        E 0 90 0d 60
        E 0 90 10 60
        E 0 90 13 60
        E 120 80 04 00
        E 0 80 00 00
        E 0 90 07 60
        E 120 80 0a 00
        E 0 80 0d 00
        E 0 80 10 00
        E 0 80 13 00
        E 0 90 16 60
        E 120 80 07 00
        E 0 90 02 60
        E 0 90 05 60
        E 0 90 08 60
        E 120 80 16 00
        E 0 90 0b 60
        E 0 90 0e 60
        E 0 90 11 60
        E 0 90 14 60
        E 0 90 17 60
        E 0 90 00 60
        E 120 80 02 00
        E 0 80 05 00
        E 0 80 08 00
        E 0 90 16 60
        E 0 90 1a 60
        E 120 80 0b 00
        E 0 80 0e 00
        E 0 80 11 00
        E 0 80 14 00
        E 0 80 17 00
        E 0 90 0a 60
        E 0 90 0d 60
        E 0 90 0f 60
        E 120 80 00 00
        E 0 80 16 00
        E 0 80 1a 00
        E 0 90 03 60
        E 0 90 06 60
        E 0 90 17 60
        E 120 80 0a 00
        E 0 80 0d 00
        E 0 80 0f 00
        E 0 90 0b 60
        E 0 90 0e 60
        E 0 90 12 60
        E 0 90 15 60
        E 120 80 03 00
        E 0 80 06 00
        E 0 80 17 00
        E 0 90 02 60
        E 0 90 05 60
        E 0 90 07 60
        E 0 90 1a 60
        E 120 80 0b 00
        E 0 80 0e 00
        E 0 80 12 00
        E 0 80 15 00
        E 0 90 0a 60
        E 0 90 0d 60
        E 0 90 10 60
        E 0 90 11 60
        E 0 90 14 60
        E 0 90 16 60
        E 120 80 02 00
        E 0 80 05 00
        E 0 80 07 00
        E 0 80 1a 00
        E 0 90 03 60
        E 0 90 06 60
        E 0 90 15 60
        E 0 90 18 60
        E 0 90 1b 60
        E 120 80 0a 00
        E 0 80 0d 00
        E 0 80 10 00
        E 0 80 11 00
        E 0 80 14 00
        E 0 80 16 00
        E 0 90 12 60
        E 0 90 15 60
        E 120 80 03 00
        E 0 80 06 00
        E 0 80 15 00
        E 0 80 18 00
        E 0 80 1b 00
        E 0 90 02 60
        E 0 90 05 60
        E 0 90 08 60
        E 0 90 0a 60
        E 0 90 0e 60
        E 120 80 12 00
        E 0 80 15 00
        E 0 90 11 60
        E 0 90 14 60
        E 0 90 17 60
        E 120 80 02 00
        E 0 80 05 00
        E 0 80 08 00
        E 0 80 0a 00
        E 0 80 0e 00
        E 0 90 0b 60
        E 0 90 03 60
        E 0 90 07 60
        E 0 90 16 60
        E 0 90 19 60
        E 0 90 00 60
        E 120 80 11 00
        E 0 80 14 00
        E 0 80 17 00
        E 120 80 0b 00
        E 0 80 03 00
        E 0 80 07 00
        E 0 80 16 00
        E 0 80 19 00
        E 0 90 0e 60
        E 0 90 04 60
        E 0 90 15 60
        E 0 90 18 60
        E 0 90 1a 60
        E 240 80 00 00
        E 0 80 0e 00
        E 0 80 04 00
        E 0 80 15 00
        E 0 80 18 00
        E 0 80 1a 00
        E 0 90 09 60
        E 0 90 0c 60
        E 0 90 0f 60
        E 0 90 07 60
        E 0 90 16 60
        E 0 90 19 60
        E 240 80 09 00
        E 0 80 0c 00
        E 0 80 0f 00
        E 0 80 07 00
        E 0 80 16 00
        E 0 80 19 00
        E 0 90 02 60
        E 0 90 05 60
        E 0 90 08 60
        E 0 90 15 60
        E 0 90 18 60
        E 0 90 1b 60
        E 120 90 11 60
        E 0 90 15 60
        E 0 90 0c 60
        E 0 90 0e 60
        E 120 80 02 00
        E 0 80 05 00
        E 0 80 08 00
        E 0 80 15 00
        E 0 80 18 00
        E 0 80 1b 00
        E 0 90 0a 60
        E 0 90 0d 60
        E 120 80 11 00
        E 0 80 15 00
        E 0 80 0c 00
        E 0 80 0e 00
        E 120 80 0a 00
        E 0 80 0d 00
        E 0 90 09 60
        E 0 90 0c 60
        E 0 90 0e 60
        E 0 90 03 60
        E 0 90 06 60
        E 0 90 00 60
        E 120 80 00 00
        E 0 90 12 60
        E 0 90 16 60
        E 0 90 0a 60
        E 0 90 0d 60
        E 120 80 09 00
        E 0 80 0c 00
        E 0 80 0e 00
        E 0 80 03 00
        E 0 80 06 00
        E 0 90 0a 60
        E 0 90 0d 60
        E 0 90 02 60
        E 0 90 05 60
        E 0 90 07 60
        E 120 80 12 00
        E 0 80 16 00
        E 0 80 0a 00
        E 0 80 0d 00
        E 0 90 12 60
        E 0 90 15 60
        E 0 90 0b 60
        E 120 80 0a 00
        E 0 80 0d 00
        E 0 80 02 00
        E 0 80 05 00
        E 0 80 07 00
        E 0 90 09 60
        E 0 90 0c 60
        E 0 90 0f 60
        E 0 90 03 60
        E 0 90 06 60
        E 120 80 12 00
        E 0 80 15 00
        E 0 80 0b 00
        E 0 90 12 60
        E 0 90 16 60
        E 0 90 0a 60
        E 0 90 0d 60
        E 0 90 0f 60
        E 0 90 13 60
        E 0 90 18 60
        E 0 90 19 60
        E 120 80 09 00
        E 0 80 0c 00
        E 0 80 0f 00
        E 0 80 03 00
        E 0 80 06 00
        E 0 80 18 00
        E 0 90 02 60
        E 0 90 05 60
        E 0 90 08 60
        E 0 90 18 60
        E 120 80 12 00
        E 0 80 16 00
        E 0 80 0a 00
        E 0 80 0d 00
        E 0 80 0f 00
        E 0 80 13 00
        E 0 80 19 00
        E 0 90 00 60
        E 0 90 11 60
        E 0 90 15 60
        E 0 90 0c 60
        E 0 90 0e 60
        E 0 90 10 60
        E 120 80 02 00
        E 0 80 05 00
        E 0 80 08 00
        E 0 80 18 00
        E 0 90 0b 60
        E 0 90 1a 60
        E 120 80 00 00
        E 0 80 11 00
        E 0 80 15 00
        E 0 80 0c 00
        E 0 80 0e 00
        E 0 80 10 00
        E 0 90 13 60
        E 0 90 16 60
        E 0 90 05 60
        E 0 90 08 60
        E 120 80 0b 00
        E 0 80 1a 00
        E 0 90 02 60
        E 120 80 13 00
        E 0 80 16 00
        E 0 80 05 00
        E 0 80 08 00
        E 0 90 0e 60
        E 0 90 11 60
        E 0 90 14 60
        E 120 80 02 00
        E 0 90 0b 60
        E 0 90 03 60
        E 0 90 18 60
        E 120 80 0e 00
        E 0 80 11 00
        E 0 80 14 00
        E 0 80 18 00
        E 0 90 06 60
        E 0 90 09 60
        E 120 80 0b 00
        E 0 80 03 00
        E 0 90 0c 60
        E 120 80 06 00
        E 0 80 09 00
        E 0 90 0f 60
        E 0 90 12 60
        E 0 90 15 60
        E 0 90 05 60
        E 0 90 08 60
        E 120 80 0c 00
        E 0 90 00 60
        E 0 90 01 60
        E 120 80 0f 00
        E 0 80 12 00
        E 0 80 15 00
        E 0 80 05 00
        E 0 80 08 00
        E 0 80 00 00
        E 0 90 0e 60
        E 0 90 11 60
        E 0 90 13 60
        E 0 90 06 60
        E 0 90 09 60
        E 120 80 01 00
        E 0 90 0a 60
        E 0 90 02 60
        E 120 80 0e 00
        E 0 80 11 00
        E 0 80 13 00
        E 0 80 06 00
        E 0 80 09 00
        E 0 90 0f 60
        E 0 90 12 60
        E 0 90 16 60
        E 0 90 05 60
        E 0 90 08 60
        E 0 90 18 60
        E 120 80 0a 00
        E 0 80 02 00
        E 0 80 18 00
        E 0 90 0b 60
        E 0 90 01 60
        E 120 80 0f 00
        E 0 80 12 00
        E 0 80 16 00
        E 0 80 05 00
        E 0 80 08 00
        E 0 90 0e 60
        E 0 90 11 60
        E 0 90 15 60
        E 120 80 0b 00
        E 0 80 01 00
        E 0 90 03 60
        E 0 90 05 60
        E 0 90 09 60
        E 120 80 0e 00
        E 0 80 11 00
        E 0 80 15 00
        E 0 90 16 60
        E 120 80 03 00
        E 0 80 05 00
        E 0 80 09 00
        E 0 90 0c 60
        E 0 90 0e 60
        E 0 90 12 60
        E 0 90 06 60
        E 0 90 02 60
        E 120 80 16 00
        E 0 90 15 60
        E 0 90 05 60
        E 0 90 08 60
        E 0 90 18 60
        E 120 80 0c 00
        E 0 80 0e 00
        E 0 80 12 00
        E 0 80 06 00
        E 0 80 02 00
        E 0 90 0f 60
        E 0 90 09 60
        E 120 80 15 00
        E 0 80 05 00
        E 0 80 08 00
        E 0 80 18 00
        E 0 90 18 60
        E 120 80 0f 00
        E 0 80 09 00
        E 0 90 12 60
        E 0 90 03 60
        E 120 80 18 00
        E 0 90 06 60
        E 0 90 09 60
        E 120 80 12 00
        E 0 80 03 00
        E 0 90 13 60
        E 0 90 0b 60
        E 120 80 06 00
        E 0 80 09 00
        E 0 90 05 60
        E 0 90 08 60
        E 120 80 13 00
        E 0 80 0b 00
        E 0 90 0c 60
        E 0 90 01 60
        E 120 80 05 00
        E 0 80 08 00
        E 0 90 06 60
        E 0 90 09 60
        E 120 80 0c 00
        E 0 80 01 00
        E 0 90 0e 60
        E 0 90 11 60
        E 0 90 02 60
        E 0 90 18 60
        E 120 80 06 00
        E 0 80 09 00
        E 0 90 05 60
        E 0 90 08 60
        E 120 80 0e 00
        E 0 80 11 00
        E 0 80 02 00
        E 0 90 0d 60
        E 0 90 10 60
        E 0 90 12 60
        E 0 90 0a 60
        E 0 90 01 60
        E 120 80 18 00
        E 0 80 05 00
        E 0 80 08 00
        E 120 80 0d 00
        E 0 80 10 00
        E 0 80 12 00
        E 0 80 0a 00
        E 0 80 01 00
        E 0 90 0e 60
        E 0 90 11 60
        E 0 90 0b 60
        E 0 90 03 60
        E 0 90 05 60
        E 0 90 09 60
        E 240 80 0e 00
        E 0 80 11 00
        E 0 80 0b 00
        E 0 80 03 00
        E 0 80 05 00
        E 0 80 09 00
        E 0 90 06 60
        E 0 90 02 60
        E 0 90 12 60
        E 120 80 12 00
        E 0 90 14 60
        E 0 90 0e 60
        E 0 90 0a 60
        E 0 90 02 60
        E 120 80 06 00
        E 0 80 02 00
        E 0 80 14 00
        E 0 90 09 60
        E 120 80 0e 00
        E 0 90 10 60
        E 0 90 04 60
        E 120 80 09 00
        E 0 90 18 60
        E 120 80 0a 00
        E 0 80 02 00
        E 0 80 10 00
        E 0 80 04 00
        E 0 90 0c 60
        E 0 90 13 60
        E 0 90 02 60
        E 0 90 0b 60
        E 0 90 03 60
        E 240 80 0c 00
        E 0 80 13 00
        E 0 80 02 00
        E 0 90 07 60
        E 0 90 03 60
        E 120 80 18 00
        E 120 80 0b 00
        E 0 80 03 00
        E 0 80 07 00
        E 0 80 03 00
        E 0 90 04 60
        E 0 90 0c 60
        E 0 90 04 60
        E 240 80 04 00
        E 120 90 0a 60
        E 0 90 02 60
        E 120 80 0c 00
        E 0 80 04 00
        E 0 90 0d 60
        E 0 90 05 60
        E 120 90 12 60
        E 240 80 0a 00
        E 0 80 02 00
        E 0 90 0b 60
        E 0 90 03 60
        E 120 80 0d 00
        E 0 80 05 00
        E 0 90 0e 60
        E 0 90 06 60
        E 120 80 12 00
        E 0 90 13 60
        E 240 80 0b 00
        E 0 80 03 00
        E 0 90 0c 60
        E 0 90 04 60
        E 120 80 0e 00
        E 0 80 06 00
        E 0 90 0f 60
        E 0 90 07 60
        E 120 80 13 00
        E 0 90 14 60
        E 240 80 0c 00
        E 0 80 04 00
        E 0 90 0d 60
        E 0 90 10 60
        E 0 90 05 60
        E 0 90 08 60
        E 120 80 0f 00
        E 0 80 07 00
        E 0 90 0a 60
        E 0 90 02 60
        E 0 90 12 60
        E 120 80 14 00
        E 0 90 15 60
        E 240 80 0d 00
        E 0 80 10 00
        E 0 80 05 00
        E 0 80 08 00
        E 0 90 0e 60
        E 0 90 11 60
        E 0 90 06 60
        E 0 90 09 60
        E 120 80 0a 00
        E 0 80 02 00
        E 0 80 12 00
        E 0 90 0b 60
        E 0 90 03 60
        E 0 90 13 60
        E 120 80 15 00
        E 0 90 16 60
        E 240 80 0e 00
        E 0 80 11 00
        E 0 80 06 00
        E 0 80 09 00
        E 0 90 0f 60
        E 0 90 12 60
        E 0 90 07 60
        E 0 90 0a 60
        E 120 80 0b 00
        E 0 80 03 00
        E 0 80 13 00
        E 0 90 0c 60
        E 0 90 04 60
        E 0 90 14 60
        E 120 80 16 00
        E 0 90 17 60
        E 240 80 0f 00
        E 0 80 12 00
        E 0 80 07 00
        E 0 80 0a 00
        E 0 90 10 60
        E 0 90 13 60
        E 0 90 08 60
        E 0 90 0b 60
        E 120 80 0c 00
        E 0 80 04 00
        E 0 80 14 00
        E 0 90 0d 60
        E 0 90 05 60
        E 0 90 15 60
        E 0 90 18 60
        E 120 80 17 00
        E 0 90 12 60
        E 240 80 10 00
        E 0 80 13 00
        E 0 80 08 00
        E 0 80 0b 00
        E 0 90 11 60
        E 0 90 09 60
        E 120 80 0d 00
        E 0 80 05 00
        E 0 80 15 00
        E 0 80 18 00
        E 0 90 0e 60
        E 0 90 0a 60
        E 0 90 06 60
        E 0 90 02 60
        E 0 90 16 60
        E 0 90 19 60
        E 120 80 12 00
        E 0 90 13 60
        E 240 80 11 00
        E 0 80 09 00
        E 0 90 12 60
        E 0 90 0a 60
        E 120 80 0e 00
        E 0 80 0a 00
        E 0 80 06 00
        E 0 80 02 00
        E 0 80 16 00
        E 0 80 19 00
        E 0 90 0f 60
        E 0 90 0b 60
        E 0 90 07 60
        E 0 90 03 60
        E 0 90 17 60
        E 0 90 1a 60
        E 120 80 13 00
        E 0 90 14 60
        E 240 80 12 00
        E 0 80 0a 00
        E 0 90 13 60
        E 0 90 0b 60
        E 120 80 0f 00
        E 0 80 0b 00
        E 0 80 07 00
        E 0 80 03 00
        E 0 80 17 00
        E 0 80 1a 00
        E 0 90 0c 60
        E 0 90 10 60
        E 0 90 04 60
        E 0 90 08 60
        E 0 90 18 60
        E 0 90 1b 60
        E 120 80 14 00
        E 0 90 15 60
        E 240 80 13 00
        E 0 80 0b 00
        E 120 80 0c 00
        E 0 80 10 00
        E 0 80 04 00
        E 0 80 08 00
        E 0 80 18 00
        E 0 80 1b 00
        E 0 90 19 60
        E 0 90 0d 60
        E 120 80 15 00
        E 0 90 16 60
        E 0 90 12 60
        E 120 80 0d 00
        E 120 90 0a 60
        E 0 90 0f 60
        E 120 80 19 00
        E 0 80 0a 00
        E 0 90 1a 60
        E 120 80 16 00
        E 0 80 12 00
        E 0 80 0f 00
        E 0 90 17 60
        E 0 90 13 60
        E 0 90 03 60
        E 120 90 08 60
        E 0 90 05 60
        E 240 80 1a 00
        E 0 80 03 00
        E 0 80 05 00
        E 0 90 1b 60
        E 0 90 0c 60
        E 0 90 10 60
        E 0 90 0a 60
        E 120 80 17 00
        E 0 80 13 00
        E 0 80 08 00
        E 0 80 0c 00
        E 0 90 14 60
        E 0 90 18 60
        E 120 80 10 00
        E 0 90 0c 60
        E 120 80 0a 00
        E 120 80 1b 00
        E 120 80 14 00
        E 0 80 18 00
        E 0 80 0c 00
        E 120 90 12 60
        E 0 90 14 60
        E 0 90 09 60
        E 0 90 04 60
        E 0 90 01 60
        E 0 90 0e 60
        E 240 90 07 60
        E 240 80 12 00
        E 0 80 14 00
        E 0 80 09 00
        E 0 80 04 00
        E 0 80 01 00
        E 0 80 0e 00
        E 0 90 05 60
        E 0 90 02 60
        E 0 90 0b 60
        E 0 90 18 60
        E 240 80 07 00
        E 0 80 0b 00
        E 0 80 18 00
        E 0 90 09 60
        E 0 90 0e 60
        E 0 90 12 60
        E 0 90 16 60
        E 240 80 05 00
        E 0 80 02 00
        E 0 80 09 00
        E 0 80 0e 00
        E 0 80 12 00
        E 0 80 16 00
        E 0 90 06 60
        E 0 90 03 60
        E 0 90 0a 60
        E 0 90 0f 60
        E 0 90 13 60
        E 0 90 18 60
        E 240 80 0a 00
        E 0 80 0f 00
        E 0 80 13 00
        E 0 80 18 00
        E 0 90 0c 60
        E 0 90 10 60
        E 0 90 16 60
        E 240 80 06 00
        E 0 80 03 00
        E 0 80 0c 00
        E 0 80 10 00
        E 0 80 16 00
        E 0 90 07 60
        E 0 90 04 60
        E 0 90 09 60
        E 0 90 0d 60
        E 0 90 11 60
        E 0 90 14 60
        E 0 90 17 60
        E 0 90 19 60
        E 0 90 01 60
        E 0 90 0b 60
        E 240 80 09 00
        E 0 80 0d 00
        E 0 80 11 00
        E 0 80 14 00
        E 0 80 17 00
        E 0 80 19 00
        E 120 80 01 00
        E 0 80 0b 00
        E 120 80 07 00
        E 0 80 04 00
        E 0 90 05 60
        E 0 90 0a 60
        E 0 90 0e 60
        E 0 90 12 60
        E 0 90 15 60
        E 0 90 18 60
        E 0 90 1a 60
        E 0 90 02 60
        E 240 80 0a 00
        E 0 80 0e 00
        E 0 80 12 00
        E 0 80 15 00
        E 0 80 18 00
        E 0 80 1a 00
        E 0 80 02 00
        E 0 90 06 60
        E 0 90 0a 60
        E 0 90 0e 60
        E 0 90 11 60
        E 0 90 14 60
        E 0 90 16 60
        E 0 90 03 60
        E 240 80 05 00
        E 0 80 06 00
        E 0 80 0a 00
        E 0 80 0e 00
        E 0 80 11 00
        E 0 80 14 00
        E 0 80 16 00
        E 0 80 03 00
        E 0 90 06 60
        E 0 90 0a 60
        E 0 90 0e 60
        E 0 90 12 60
        E 0 90 15 60
        E 0 90 18 60
        E 0 90 1a 60
        E 0 90 04 60
        E 240 80 0a 00
        E 0 80 0e 00
        E 0 80 12 00
        E 0 80 15 00
        E 0 80 18 00
        E 0 80 1a 00
        E 0 80 04 00
        E 0 90 09 60
        E 0 90 0d 60
        E 0 90 11 60
        E 0 90 14 60
        E 0 90 17 60
        E 0 90 19 60
        E 0 90 02 60
        E 120 80 02 00
        E 120 80 06 00
        E 0 80 09 00
        E 0 80 0d 00
        E 0 80 11 00
        E 0 80 14 00
        E 0 80 17 00
        E 0 80 19 00
        E 0 90 07 60
        E 0 90 0b 60
        E 0 90 0f 60
        E 0 90 13 60
        E 0 90 16 60
        E 0 90 19 60
        E 0 90 03 60
        E 120 80 03 00
        E 120 80 0b 00
        E 0 80 0f 00
        E 0 80 13 00
        E 0 80 16 00
        E 0 80 19 00
        E 240 80 07 00
        E 0 90 11 60
        E 0 90 0c 60
        E 0 90 0d 60
        E 0 90 12 60
        E 0 90 14 60
        E 0 90 18 60
        E 0 90 02 60
        E 0 90 03 60
        E 0 90 05 60
        E 0 90 07 60
        E 0 90 09 60
        E 0 90 0b 60
        E 240 80 0b 00
        E 240 80 11 00
        E 0 80 0c 00
        E 0 80 0d 00
        E 0 80 12 00
        E 0 80 14 00
        E 0 80 18 00
        E 0 80 02 00
        E 0 80 03 00
        E 0 80 05 00
        E 0 80 07 00
        E 0 80 09 00
        E 0 90 0d 60
        E 0 90 0f 60
        E 0 90 15 60
        E 0 90 17 60
        E 0 90 06 60
        E 0 90 08 60
        E 480 80 0d 00
        E 0 80 0f 00
        E 0 80 15 00
        E 0 80 17 00
        E 0 80 06 00
        E 0 80 08 00
        E 0 90 12 60
        E 0 90 14 60
        E 0 90 0e 60
        E 0 90 18 60
        E 0 90 03 60
        E 0 90 05 60
        E 0 90 09 60
        E 0 90 0c 60
        E 240 80 18 00
        E 0 80 09 00
        E 0 80 0c 00
        E 120 90 0b 60
        E 120 80 12 00
        E 0 80 14 00
        E 0 80 0e 00
        E 0 80 03 00
        E 0 80 05 00
        E 0 90 18 60
        E 0 90 09 60
        E 240 80 0b 00
        E 0 80 18 00
        E 0 80 09 00
        E 0 90 0e 60
        E 0 90 12 60
        E 0 90 16 60
        E 0 90 03 60
        E 0 90 07 60
        E 240 80 0e 00
        E 0 80 12 00
        E 0 80 16 00
        E 0 80 03 00
        E 0 80 07 00
        E 0 90 0f 60
        E 0 90 13 60
        E 0 90 18 60
        E 0 90 04 60
        E 0 90 09 60
        E 0 90 0b 60
        E 120 80 0b 00
        E 120 80 0f 00
        E 0 80 13 00
        E 0 80 18 00
        E 0 80 04 00
        E 0 80 09 00
        E 0 90 0c 60
        E 0 90 10 60
        E 0 90 16 60
        E 0 90 07 60
        E 240 80 0c 00
        E 0 80 10 00
        E 0 80 16 00
        E 0 80 07 00
        E 0 90 0d 60
        E 0 90 11 60
        E 0 90 14 60
        E 0 90 17 60
        E 0 90 19 60
        E 0 90 02 60
        E 0 90 05 60
        E 0 90 08 60
        E 0 90 0a 60
        E 240 80 0d 00
        E 0 80 11 00
        E 0 80 14 00
        E 0 80 17 00
        E 0 80 19 00
        E 0 80 02 00
        E 0 80 05 00
        E 0 80 08 00
        E 0 80 0a 00
        E 240 90 0e 60
        E 0 90 12 60
        E 0 90 15 60
        E 0 90 18 60
        E 0 90 03 60
        E 0 90 06 60
        E 0 90 09 60
        E 240 80 0e 00
        E 0 80 12 00
        E 0 80 15 00
        E 0 80 18 00
        E 0 80 03 00
        E 0 80 06 00
        E 0 80 09 00
        E 0 90 0e 60
        E 0 90 11 60
        E 0 90 14 60
        E 0 90 16 60
        E 0 90 02 60
        E 0 90 05 60
        E 0 90 07 60
        E 240 80 0e 00
        E 0 80 11 00
        E 0 80 14 00
        E 0 80 16 00
        E 0 80 02 00
        E 0 80 05 00
        E 0 80 07 00
        E 0 90 0e 60
        E 0 90 12 60
        E 0 90 15 60
        E 0 90 18 60
        E 0 90 03 60
        E 0 90 06 60
        E 0 90 09 60
        E 0 90 0b 60
        E 0 90 0f 60
        E 240 80 0e 00
        E 0 80 12 00
        E 0 80 15 00
        E 0 80 18 00
        E 0 80 03 00
        E 0 80 06 00
        E 0 80 09 00
        E 0 80 0b 00
        E 0 80 0f 00
        E 0 90 0d 60
        E 0 90 11 60
        E 0 90 14 60
        E 0 90 17 60
        E 0 90 19 60
        E 0 90 02 60
        E 0 90 05 60
        E 0 90 08 60
        E 0 90 0a 60
        E 0 90 0c 60
        E 120 90 03 60
        E 0 90 07 60
        E 120 80 0d 00
        E 0 80 11 00
        E 0 80 14 00
        E 0 80 17 00
        E 0 80 19 00
        E 0 80 02 00
        E 0 80 05 00
        E 0 80 08 00
        E 0 80 0a 00
        E 0 80 0c 00
        E 0 90 0f 60
        E 0 90 12 60
        E 0 90 16 60
        E 120 80 03 00
        E 0 80 07 00
        E 0 90 04 60
        E 120 80 0f 00
        E 0 80 12 00
        E 0 80 16 00
        E 0 90 0a 60
        E 0 90 0d 60
        E 0 90 10 60
        E 0 90 13 60
        E 120 80 04 00
        E 0 90 07 60
        E 120 80 0a 00
        E 0 80 0d 00
        E 0 80 10 00
        E 0 80 13 00
        E 0 90 16 60
        E 120 80 07 00
        E 0 90 02 60
        E 0 90 05 60
        E 0 90 08 60
        E 120 80 16 00
        E 0 90 0b 60
        E 0 90 0e 60
        E 0 90 11 60
        E 0 90 14 60
        E 0 90 17 60
        E 120 80 02 00
        E 0 80 05 00
        E 0 80 08 00
        E 0 90 16 60
        E 0 90 1a 60
        E 120 80 0b 00
        E 0 80 0e 00
        E 0 80 11 00
        E 0 80 14 00
        E 0 80 17 00
        E 0 90 0a 60
        E 0 90 0d 60
        E 0 90 0f 60
        E 120 80 16 00
        E 0 80 1a 00
        E 0 90 10 60
        E 0 90 03 60
        E 0 90 06 60
        E 0 90 17 60
        E 120 80 0a 00
        E 0 80 0d 00
        E 0 80 0f 00
        E 0 80 10 00
        E 0 90 0b 60
        E 0 90 0e 60
        E 0 90 12 60
        E 0 90 15 60
        E 120 80 03 00
        E 0 80 06 00
        E 0 80 17 00
        E 0 90 02 60
        E 0 90 05 60
        E 0 90 07 60
        E 0 90 1a 60
        E 120 80 0b 00
        E 0 80 0e 00
        E 0 80 12 00
        E 0 80 15 00
        E 0 90 0a 60
        E 0 90 0d 60
        E 0 90 10 60
        E 0 90 11 60
        E 0 90 14 60
        E 0 90 16 60
        E 120 80 02 00
        E 0 80 05 00
        E 0 80 07 00
        E 0 80 1a 00
        E 0 90 03 60
        E 0 90 06 60
        E 0 90 15 60
        E 0 90 18 60
        E 120 80 0a 00
        E 0 80 0d 00
        E 0 80 10 00
        E 0 80 11 00
        E 0 80 14 00
        E 0 80 16 00
        E 0 90 12 60
        E 0 90 15 60
        E 120 80 03 00
        E 0 80 06 00
        E 0 80 15 00
        E 0 80 18 00
        E 0 90 02 60
        E 0 90 05 60
        E 0 90 08 60
        E 0 90 0a 60
        E 0 90 0e 60
        E 120 80 12 00
        E 0 80 15 00
        E 0 90 11 60
        E 0 90 14 60
        E 0 90 17 60
        E 120 80 02 00
        E 0 80 05 00
        E 0 80 08 00
        E 0 80 0a 00
        E 0 80 0e 00
        E 0 90 0b 60
        E 0 90 03 60
        E 0 90 07 60
        E 0 90 16 60
        E 0 90 19 60
        E 120 80 11 00
        E 0 80 14 00
        E 0 80 17 00
        E 120 80 0b 00
        E 0 80 03 00
        E 0 80 07 00
        E 0 80 16 00
        E 0 80 19 00
        E 0 90 0e 60
        E 0 90 04 60
        E 0 90 15 60
        E 0 90 18 60
        E 0 90 1a 60
        E 240 80 0e 00
        E 0 80 04 00
        E 0 80 15 00
        E 0 80 18 00
        E 0 80 1a 00
        E 0 90 09 60
        E 0 90 0c 60
        E 0 90 0f 60
        E 0 90 07 60
        E 0 90 16 60
        E 0 90 19 60
        E 240 80 09 00
        E 0 80 0c 00
        E 0 80 0f 00
        E 0 80 07 00
        E 0 80 16 00
        E 0 80 19 00
        E 0 90 02 60
        E 0 90 05 60
        E 0 90 08 60
        E 0 90 15 60
        E 0 90 18 60
        E 120 90 11 60
        E 0 90 15 60
        E 0 90 0c 60
        E 0 90 0e 60
        E 120 80 02 00
        E 0 80 05 00
        E 0 80 08 00
        E 0 80 15 00
        E 0 80 18 00
        E 0 90 0a 60
        E 0 90 0d 60
        E 120 80 11 00
        E 0 80 15 00
        E 0 80 0c 00
        E 0 80 0e 00
        E 120 80 0a 00
        E 0 80 0d 00
        E 0 90 09 60
        E 0 90 0c 60
        E 0 90 0e 60
        E 0 90 03 60
        E 0 90 06 60
        E 120 90 12 60
        E 0 90 16 60
        E 0 90 0a 60
        E 0 90 0d 60
        E 120 80 09 00
        E 0 80 0c 00
        E 0 80 0e 00
        E 0 80 03 00
        E 0 80 06 00
        E 0 90 0a 60
        E 0 90 0d 60
        E 0 90 02 60
        E 0 90 05 60
        E 0 90 07 60
        E 120 80 12 00
        E 0 80 16 00
        E 0 80 0a 00
        E 0 80 0d 00
        E 0 90 12 60
        E 0 90 15 60
        E 0 90 0b 60
        E 120 80 0a 00
        E 0 80 0d 00
        E 0 80 02 00
        E 0 80 05 00
        E 0 80 07 00
        E 0 90 09 60
        E 0 90 0c 60
        E 0 90 0f 60
        E 0 90 03 60
        E 0 90 06 60
        E 120 80 12 00
        E 0 80 15 00
        E 0 80 0b 00
        E 0 90 12 60
        E 0 90 16 60
        E 0 90 0a 60
        E 0 90 0d 60
        E 0 90 0f 60
        E 0 90 13 60
        E 0 90 18 60
        E 0 90 19 60
        E 120 80 09 00
        E 0 80 0c 00
        E 0 80 0f 00
        E 0 80 03 00
        E 0 80 06 00
        E 0 80 18 00
        E 0 90 02 60
        E 0 90 05 60
        E 0 90 08 60
        E 0 90 18 60
        E 120 80 12 00
        E 0 80 16 00
        E 0 80 0a 00
        E 0 80 0d 00
        E 0 80 0f 00
        E 0 80 13 00
        E 0 80 19 00
        E 0 90 11 60
        E 0 90 15 60
        E 0 90 0c 60
        E 0 90 0e 60
        E 0 90 10 60
        E 120 80 02 00
        E 0 80 05 00
        E 0 80 08 00
        E 0 80 18 00
        E 0 90 0b 60
        E 0 90 1a 60
        E 120 80 11 00
        E 0 80 15 00
        E 0 80 0c 00
        E 0 80 0e 00
        E 0 80 10 00
        E 0 90 13 60
        E 0 90 16 60
        E 0 90 05 60
        E 0 90 08 60
        E 120 80 0b 00
        E 0 80 1a 00
        E 0 90 02 60
        E 120 80 13 00
        E 0 80 16 00
        E 0 80 05 00
        E 0 80 08 00
        E 0 90 0e 60
        E 0 90 11 60
        E 0 90 14 60
        E 120 80 02 00
        E 0 90 0b 60
        E 0 90 03 60
        E 0 90 18 60
        E 120 80 0e 00
        E 0 80 11 00
        E 0 80 14 00
        E 0 80 18 00
        E 0 90 06 60
        E 0 90 09 60
        E 120 80 0b 00
        E 0 80 03 00
        E 0 90 0c 60
        E 120 80 06 00
        E 0 80 09 00
        E 0 90 0f 60
        E 0 90 12 60
        E 0 90 15 60
        E 0 90 05 60
        E 0 90 08 60
        E 120 80 0c 00
        E 0 90 01 60
        E 120 80 0f 00
        E 0 80 12 00
        E 0 80 15 00
        E 0 80 05 00
        E 0 80 08 00
        E 0 90 0e 60
        E 0 90 11 60
        E 0 90 13 60
        E 0 90 06 60
        E 0 90 09 60
        E 120 80 01 00
        E 0 90 0a 60
        E 0 90 02 60
        E 120 80 0e 00
        E 0 80 11 00
        E 0 80 13 00
        E 0 80 06 00
        E 0 80 09 00
        E 0 90 0f 60
        E 0 90 12 60
        E 0 90 16 60
        E 0 90 05 60
        E 0 90 08 60
        E 0 90 18 60
        E 120 80 0a 00
        E 0 80 02 00
        E 0 80 18 00
        E 0 90 0b 60
        E 0 90 01 60
        E 120 80 0f 00
        E 0 80 12 00
        E 0 80 16 00
        E 0 80 05 00
        E 0 80 08 00
        E 0 90 0e 60
        E 0 90 11 60
        E 0 90 15 60
        E 120 80 0b 00
        E 0 80 01 00
        E 0 90 03 60
        E 0 90 05 60
        E 0 90 09 60
        E 120 80 0e 00
        E 0 80 11 00
        E 0 80 15 00
        E 0 90 16 60
        E 120 80 03 00
        E 0 80 05 00
        E 0 80 09 00
        E 0 90 0c 60
        E 0 90 0e 60
        E 0 90 12 60
        E 0 90 06 60
        E 0 90 02 60
        E 120 80 16 00
        E 120 80 0c 00
        E 0 80 0e 00
        E 0 80 12 00
        E 0 80 06 00
        E 0 80 02 00
        E 240 90 10 60
        E 0 90 14 60
        E 0 90 19 60
        E 0 90 05 60
        E 0 90 0a 60
        E 0 90 0c 60
        E 120 80 0c 00
        E 120 80 10 00
        E 0 80 14 00
        E 0 80 19 00
        E 0 80 05 00
        E 0 80 0a 00
        E 0 90 0d 60
        E 0 90 11 60
        E 0 90 17 60
        E 0 90 08 60
        E 240 80 0d 00
        E 0 80 11 00
        E 0 80 17 00
        E 0 80 08 00
        E 0 90 0e 60
        E 0 90 12 60
        E 0 90 15 60
        E 0 90 18 60
        E 0 90 03 60
        E 0 90 06 60
        E 0 90 09 60
        E 0 90 0b 60
        E 240 80 0e 00
        E 0 80 12 00
        E 0 80 15 00
        E 0 80 18 00
        E 0 80 03 00
        E 0 80 06 00
        E 0 80 09 00
        E 0 80 0b 00
        E 240 90 0f 60
        E 0 90 13 60
        E 0 90 16 60
        E 0 90 19 60
        E 0 90 04 60
        E 0 90 07 60
        E 0 90 0a 60
        E 240 80 0f 00
        E 0 80 13 00
        E 0 80 16 00
        E 0 80 19 00
        E 0 80 04 00
        E 0 80 07 00
        E 0 80 0a 00
        E 0 90 0f 60
        E 0 90 12 60
        E 0 90 15 60
        E 0 90 17 60
        E 0 90 03 60
        E 0 90 06 60
        E 0 90 08 60
        E 240 80 0f 00
        E 0 80 12 00
        E 0 80 15 00
        E 0 80 17 00
        E 0 80 03 00
        E 0 80 06 00
        E 0 80 08 00
        E 0 90 0f 60
        E 0 90 13 60
        E 0 90 16 60
        E 0 90 19 60
        E 0 90 04 60
        E 0 90 07 60
        E 0 90 0a 60
        E 0 90 0c 60
        E 0 90 10 60
        E 240 80 0f 00
        E 0 80 13 00
        E 0 80 16 00
        E 0 80 19 00
        E 0 80 04 00
        E 0 80 07 00
        E 0 80 0a 00
        E 0 80 0c 00
        E 0 80 10 00
        E 0 90 0e 60
        E 0 90 12 60
        E 0 90 15 60
        E 0 90 18 60
        E 0 90 03 60
        E 0 90 06 60
        E 0 90 09 60
        E 0 90 0b 60
        E 0 90 0d 60
        E 120 90 04 60
        E 0 90 08 60
        E 120 80 0e 00
        E 0 80 12 00
        E 0 80 15 00
        E 0 80 18 00
        E 0 80 03 00
        E 0 80 06 00
        E 0 80 09 00
        E 0 80 0b 00
        E 0 80 0d 00
        E 0 90 10 60
        E 0 90 13 60
        E 0 90 17 60
        E 120 80 04 00
        E 0 80 08 00
        E 0 90 05 60
        E 120 80 10 00
        E 0 80 13 00
        E 0 80 17 00
        E 0 90 0b 60
        E 0 90 0e 60
        E 0 90 11 60
        E 0 90 14 60
        E 120 80 05 00
        E 0 90 08 60
        E 120 80 0b 00
        E 0 80 0e 00
        E 0 80 11 00
        E 0 80 14 00
        E 0 90 17 60
        E 120 80 08 00
        E 0 90 03 60
        E 0 90 06 60
        E 0 90 09 60
        E 120 80 17 00
        E 0 90 0c 60
        E 0 90 0f 60
        E 0 90 12 60
        E 0 90 15 60
        E 0 90 18 60
        E 120 80 03 00
        E 0 80 06 00
        E 0 80 09 00
        E 0 90 17 60
        E 120 80 0c 00
        E 0 80 0f 00
        E 0 80 12 00
        E 0 80 15 00
        E 0 80 18 00
        E 0 90 0b 60
        E 0 90 0e 60
        E 0 90 10 60
        E 120 80 17 00
        E 0 90 11 60
        E 0 90 04 60
        E 0 90 07 60
        E 0 90 18 60
        E 120 80 0b 00
        E 0 80 0e 00
        E 0 80 10 00
        E 0 80 11 00
        E 0 90 0c 60
        E 0 90 0f 60
        E 0 90 13 60
        E 0 90 16 60
        E 120 80 04 00
        E 0 80 07 00
        E 0 80 18 00
        E 0 90 03 60
        E 0 90 06 60
        E 0 90 08 60
        E 120 80 0c 00
        E 0 80 0f 00
        E 0 80 13 00
        E 0 80 16 00
        E 0 90 0b 60
        E 0 90 0e 60
        E 0 90 11 60
        E 0 90 12 60
        E 0 90 15 60
        E 0 90 17 60
        E 120 80 03 00
        E 0 80 06 00
        E 0 80 08 00
        E 0 90 04 60
        E 0 90 07 60
        E 0 90 16 60
        E 0 90 19 60
        E 120 80 0b 00
        E 0 80 0e 00
        E 0 80 11 00
        E 0 80 12 00
        E 0 80 15 00
        E 0 80 17 00
        E 0 90 13 60
        E 0 90 16 60
        E 120 80 04 00
        E 0 80 07 00
        E 0 80 16 00
        E 0 80 19 00
        E 0 90 03 60
        E 0 90 06 60
        E 0 90 09 60
        E 0 90 0b 60
        E 0 90 0f 60
        E 120 80 13 00
        E 0 80 16 00
        E 0 90 12 60
        E 0 90 15 60
        E 0 90 18 60
        E 120 80 03 00
        E 0 80 06 00
        E 0 80 09 00
        E 0 80 0b 00
        E 0 80 0f 00
        E 0 90 0c 60
        E 0 90 04 60
        E 0 90 08 60
        E 0 90 17 60
        E 120 80 12 00
        E 0 80 15 00
        E 0 80 18 00
        E 120 80 0c 00
        E 0 80 04 00
        E 0 80 08 00
        E 0 80 17 00
        E 0 90 0f 60
        E 0 90 05 60
        E 0 90 16 60
        E 0 90 19 60
        E 240 80 0f 00
        E 0 80 05 00
        E 0 80 16 00
        E 0 80 19 00
        E 0 90 0a 60
        E 0 90 0d 60
        E 0 90 10 60
        E 0 90 08 60
        E 0 90 17 60
        E 240 80 0a 00
        E 0 80 0d 00
        E 0 80 10 00
        E 0 80 08 00
        E 0 80 17 00
        E 0 90 03 60
        E 0 90 06 60
        E 0 90 09 60
        E 0 90 16 60
        E 0 90 19 60
        E 120 90 12 60
        E 0 90 16 60
        E 0 90 0d 60
        E 0 90 0f 60
        E 120 80 03 00
        E 0 80 06 00
        E 0 80 09 00
        E 0 80 16 00
        E 0 80 19 00
        E 0 90 0b 60
        E 0 90 0e 60
        E 120 80 12 00
        E 0 80 16 00
        E 0 80 0d 00
        E 0 80 0f 00
        E 120 80 0b 00
        E 0 80 0e 00
        E 0 90 0a 60
        E 0 90 0d 60
        E 0 90 0f 60
        E 0 90 04 60
        E 0 90 07 60
        E 120 90 13 60
        E 0 90 17 60
        E 0 90 0b 60
        E 0 90 0e 60
        E 120 80 0a 00
        E 0 80 0d 00
        E 0 80 0f 00
        E 0 80 04 00
        E 0 80 07 00
        E 0 90 0b 60
        E 0 90 0e 60
        E 0 90 03 60
        E 0 90 06 60
        E 0 90 08 60
        E 120 80 13 00
        E 0 80 17 00
        E 0 80 0b 00
        E 0 80 0e 00
        E 0 90 13 60
        E 0 90 16 60
        E 0 90 0c 60
        E 120 80 0b 00
        E 0 80 0e 00
        E 0 80 03 00
        E 0 80 06 00
        E 0 80 08 00
        E 0 90 0a 60
        E 0 90 0d 60
        E 0 90 10 60
        E 0 90 04 60
        E 0 90 07 60
        E 120 80 13 00
        E 0 80 16 00
        E 0 80 0c 00
        E 0 90 13 60
        E 0 90 17 60
        E 0 90 0b 60
        E 0 90 0e 60
        E 0 90 10 60
        E 0 90 14 60
        E 0 90 19 60
        E 120 80 0a 00
        E 0 80 0d 00
        E 0 80 10 00
        E 0 80 04 00
        E 0 80 07 00
        E 0 80 19 00
        E 0 90 03 60
        E 0 90 06 60
        E 0 90 09 60
        E 0 90 19 60
        E 120 80 13 00
        E 0 80 17 00
        E 0 80 0b 00
        E 0 80 0e 00
        E 0 80 10 00
        E 0 80 14 00
        E 0 90 12 60
        E 0 90 16 60
        E 0 90 0d 60
        E 0 90 0f 60
        E 0 90 11 60
        E 120 80 03 00
        E 0 80 06 00
        E 0 80 09 00
        E 0 80 19 00
        E 0 90 0c 60
        E 120 80 12 00
        E 0 80 16 00
        E 0 80 0d 00
        E 0 80 0f 00
        E 0 80 11 00
        E 0 90 14 60
        E 0 90 17 60
        E 0 90 06 60
        E 0 90 09 60
        E 120 80 0c 00
        E 0 90 03 60
        E 120 80 14 00
        E 0 80 17 00
        E 0 80 06 00
        E 0 80 09 00
        E 0 90 0f 60
        E 0 90 12 60
        E 0 90 15 60
        E 120 80 03 00
        E 0 90 0c 60
        E 0 90 04 60
        E 0 90 19 60
        E 120 80 0f 00
        E 0 80 12 00
        E 0 80 15 00
        E 0 80 19 00
        E 0 90 07 60
        E 0 90 0a 60
        E 120 80 0c 00
        E 0 80 04 00
        E 0 90 0d 60
        E 120 80 07 00
        E 0 80 0a 00
        E 0 90 10 60
        E 0 90 13 60
        E 0 90 16 60
        E 0 90 06 60
        E 0 90 09 60
        E 120 80 0d 00
        E 120 80 10 00
        E 0 80 13 00
        E 0 80 16 00
        E 0 80 06 00
        E 0 80 09 00
        E 0 90 0f 60
        E 0 90 12 60
        E 0 90 14 60
        E 0 90 07 60
        E 0 90 0a 60
        E 120 90 0b 60
        E 0 90 03 60
        E 120 80 0f 00
        E 0 80 12 00
        E 0 80 14 00
        E 0 80 07 00
        E 0 80 0a 00
        E 0 90 10 60
        E 0 90 13 60
        E 0 90 17 60
        E 0 90 06 60
        E 0 90 09 60
        E 0 90 19 60
        E 120 80 0b 00
        E 0 80 03 00
        E 0 80 19 00
        E 0 90 0c 60
        E 120 80 10 00
        E 0 80 13 00
        E 0 80 17 00
        E 0 80 06 00
        E 0 80 09 00
        E 0 90 0f 60
        E 0 90 12 60
        E 0 90 16 60
        E 120 80 0c 00
        E 0 90 04 60
        E 0 90 06 60
        E 0 90 0a 60
        E 120 80 0f 00
        E 0 80 12 00
        E 0 80 16 00
        E 120 80 04 00
        E 0 80 06 00
        E 0 80 0a 00
        E 3489600 b0 7b 00
        CCINTERP 32
        CHASE_CC_TAKEOFFS 1
        GUID {E803C4E2-E7B1-5C48-8BAE-F5D658905010}
        IGNTEMPO 0 120 4 4
        SRCCOLOR 0
        VELLANE -1 100 0
        CFGEDITVIEW -15557.019178 0.002568 67 12 0 -1 0 0 0 0.5
        KEYSNAP 0
        TRACKSEL 0
        EVTFILTER 0 -1 -1 -1 -1 0 0 0 0 -1 -1 -1 -1 0 -1 0 -1 -1
        CFGEDIT 1 1 0 1 0 0 1 1 1 1 1 0.125 0 78 1792 1095 0 0 0 0 0 0 0 0 0 0.5 0 0 1 64
      >
      <VOLENV
        EGUID {B89D8D67-1DFD-DA45-B933-E584640A6E67}
        ACT 1 -1
        VIS 1 1 1
        LANEHEIGHT 0 0
        ARM 0
        DEFSHAPE 0 -1 -1
        VOLTYPE 1
        PT 0 0.51286138 0 0 1
      >
    >
  >
  <TRACK {B7B11E50-FEE1-894E-8FB9-B72357563829}
    NAME ohne
    PEAKCOL 16576
    BEAT -1
    AUTOMODE 0
    VOLPAN 1 0 -1 -1 1
    MUTESOLO 0 2 0
    IPHASE 0
    PLAYOFFS 0 1
    ISBUS 0 0
    BUSCOMP 0 0 0 0 0
    SHOWINMIX 1 0.6667 0.5 1 0.5 0 -1 0
    FREEMODE 0
    SEL 0
    REC 0 1024 1 0 0 0 0
    VU 2
    TRACKHEIGHT 0 0 0 0 0 0
    INQ 0 0 0 0.5 100 0 0 100
    NCHAN 2
    FX 1
    TRACKID {B7B11E50-FEE1-894E-8FB9-B72357563829}
    PERF 0
    MIDIOUT -1
    MAINSEND 1 0
    <FXCHAIN
      WNDRECT 669 416 1032 679
      SHOW 0
      LASTSEL 0
      DOCKED 0
    >
    <FREEZE 0
      <FXCHAIN
        WNDRECT 669 416 1032 679
        SHOW 0
        LASTSEL 0
        DOCKED 0
        BYPASS 0 0 0
        <AU "AUi: AUSampler (Apple)" "Apple: AUSampler" "" 1635085685 1935764848 1634758764
          6QMAAAAAAAAAAAAAAgAAAAEAAAAAAAAAAgAAAAAAAACZHQAAPD94bWwgdmVyc2lvbj0iMS4wIiBlbmNvZGluZz0iVVRGLTgiPz4KPCFET0NUWVBFIHBsaXN0IFBVQkxJQyAiLS8vQXBwbGUvL0RURCBQTElTVCAxLjAvL0VOIiAiaHR0cDovL3d3dy5hcHBsZS5jb20vRFREcy9Qcm9wZXJ0eUxpc3QtMS4wLmR0ZCI+CjxwbGlzdCB2ZXJzaW9uPSIxLjAiPgo8ZGljdD4KCTxr
          ZXk+QVUgdmVyc2lvbjwva2V5PgoJPHJlYWw+MTwvcmVhbD4KCTxrZXk+SW5zdHJ1bWVudDwva2V5PgoJPGRpY3Q+CgkJPGtleT5MYXllcnM8L2tleT4KCQk8YXJyYXk+CgkJCTxkaWN0PgoJCQkJPGtleT5BbXBsaWZpZXI8L2tleT4KCQkJCTxkaWN0PgoJCQkJCTxrZXk+SUQ8L2tleT4KCQkJCQk8aW50ZWdlcj4wPC9pbnRlZ2VyPgoJCQkJCTxrZXk+ZW5hYmxlZDwva2V5
          PgoJCQkJCTx0cnVlLz4KCQkJCTwvZGljdD4KCQkJCTxrZXk+Q29ubmVjdGlvbnM8L2tleT4KCQkJCTxhcnJheT4KCQkJCQk8ZGljdD4KCQkJCQkJPGtleT5JRDwva2V5PgoJCQkJCQk8aW50ZWdlcj4wPC9pbnRlZ2VyPgoJCQkJCQk8a2V5PmNvbnRyb2w8L2tleT4KCQkJCQkJPGludGVnZXI+MDwvaW50ZWdlcj4KCQkJCQkJPGtleT5kZXN0aW5hdGlvbjwva2V5PgoJCQkJ
          CQk8aW50ZWdlcj44MTY4NDA3MDQ8L2ludGVnZXI+CgkJCQkJCTxrZXk+ZW5hYmxlZDwva2V5PgoJCQkJCQk8dHJ1ZS8+CgkJCQkJCTxrZXk+aW52ZXJzZTwva2V5PgoJCQkJCQk8ZmFsc2UvPgoJCQkJCQk8a2V5PnNjYWxlPC9rZXk+CgkJCQkJCTxyZWFsPjEyODAwPC9yZWFsPgoJCQkJCQk8a2V5PnNvdXJjZTwva2V5PgoJCQkJCQk8aW50ZWdlcj4zMDA8L2ludGVnZXI+
          CgkJCQkJCTxrZXk+dHJhbnNmb3JtPC9rZXk+CgkJCQkJCTxpbnRlZ2VyPjE8L2ludGVnZXI+CgkJCQkJPC9kaWN0PgoJCQkJCTxkaWN0PgoJCQkJCQk8a2V5PklEPC9rZXk+CgkJCQkJCTxpbnRlZ2VyPjE8L2ludGVnZXI+CgkJCQkJCTxrZXk+Y29udHJvbDwva2V5PgoJCQkJCQk8aW50ZWdlcj4wPC9pbnRlZ2VyPgoJCQkJCQk8a2V5PmRlc3RpbmF0aW9uPC9rZXk+CgkJ
          CQkJCTxpbnRlZ2VyPjEzNDMyMjU4NTY8L2ludGVnZXI+CgkJCQkJCTxrZXk+ZW5hYmxlZDwva2V5PgoJCQkJCQk8dHJ1ZS8+CgkJCQkJCTxrZXk+aW52ZXJzZTwva2V5PgoJCQkJCQk8dHJ1ZS8+CgkJCQkJCTxrZXk+c2NhbGU8L2tleT4KCQkJCQkJPHJlYWw+LTk2PC9yZWFsPgoJCQkJCQk8a2V5PnNvdXJjZTwva2V5PgoJCQkJCQk8aW50ZWdlcj4zMDE8L2ludGVnZXI+
          CgkJCQkJCTxrZXk+dHJhbnNmb3JtPC9rZXk+CgkJCQkJCTxpbnRlZ2VyPjI8L2ludGVnZXI+CgkJCQkJPC9kaWN0PgoJCQkJCTxkaWN0PgoJCQkJCQk8a2V5PklEPC9rZXk+CgkJCQkJCTxpbnRlZ2VyPjI8L2ludGVnZXI+CgkJCQkJCTxrZXk+Y29udHJvbDwva2V5PgoJCQkJCQk8aW50ZWdlcj4wPC9pbnRlZ2VyPgoJCQkJCQk8a2V5PmRlc3RpbmF0aW9uPC9rZXk+CgkJ
          CQkJCTxpbnRlZ2VyPjEzNDMyMjU4NTY8L2ludGVnZXI+CgkJCQkJCTxrZXk+ZW5hYmxlZDwva2V5PgoJCQkJCQk8dHJ1ZS8+CgkJCQkJCTxrZXk+aW52ZXJzZTwva2V5PgoJCQkJCQk8dHJ1ZS8+CgkJCQkJCTxrZXk+c2NhbGU8L2tleT4KCQkJCQkJPHJlYWw+LTk2PC9yZWFsPgoJCQkJCQk8a2V5PnNvdXJjZTwva2V5PgoJCQkJCQk8aW50ZWdlcj43PC9pbnRlZ2VyPgoJ
          CQkJCQk8a2V5PnRyYW5zZm9ybTwva2V5PgoJCQkJCQk8aW50ZWdlcj4yPC9pbnRlZ2VyPgoJCQkJCTwvZGljdD4KCQkJCQk8ZGljdD4KCQkJCQkJPGtleT5JRDwva2V5PgoJCQkJCQk8aW50ZWdlcj4zPC9pbnRlZ2VyPgoJCQkJCQk8a2V5PmNvbnRyb2w8L2tleT4KCQkJCQkJPGludGVnZXI+MDwvaW50ZWdlcj4KCQkJCQkJPGtleT5kZXN0aW5hdGlvbjwva2V5PgoJCQkJ
          CQk8aW50ZWdlcj4xMzQzMjI1ODU2PC9pbnRlZ2VyPgoJCQkJCQk8a2V5PmVuYWJsZWQ8L2tleT4KCQkJCQkJPHRydWUvPgoJCQkJCQk8a2V5PmludmVyc2U8L2tleT4KCQkJCQkJPHRydWUvPgoJCQkJCQk8a2V5PnNjYWxlPC9rZXk+CgkJCQkJCTxyZWFsPi05NjwvcmVhbD4KCQkJCQkJPGtleT5zb3VyY2U8L2tleT4KCQkJCQkJPGludGVnZXI+MTE8L2ludGVnZXI+CgkJ
          CQkJCTxrZXk+dHJhbnNmb3JtPC9rZXk+CgkJCQkJCTxpbnRlZ2VyPjI8L2ludGVnZXI+CgkJCQkJPC9kaWN0PgoJCQkJCTxkaWN0PgoJCQkJCQk8a2V5PklEPC9rZXk+CgkJCQkJCTxpbnRlZ2VyPjQ8L2ludGVnZXI+CgkJCQkJCTxrZXk+Y29udHJvbDwva2V5PgoJCQkJCQk8aW50ZWdlcj4wPC9pbnRlZ2VyPgoJCQkJCQk8a2V5PmRlc3RpbmF0aW9uPC9rZXk+CgkJCQkJ
          CTxpbnRlZ2VyPjEzNDQyNzQ0MzI8L2ludGVnZXI+CgkJCQkJCTxrZXk+ZW5hYmxlZDwva2V5PgoJCQkJCQk8dHJ1ZS8+CgkJCQkJCTxrZXk+aW52ZXJzZTwva2V5PgoJCQkJCQk8ZmFsc2UvPgoJCQkJCQk8a2V5Pm1heCB2YWx1ZTwva2V5PgoJCQkJCQk8cmVhbD4wLjUwODAwMDAxNjIxMjQ2MzM4PC9yZWFsPgoJCQkJCQk8a2V5Pm1pbiB2YWx1ZTwva2V5PgoJCQkJCQk8
          cmVhbD4tMC41MDgwMDAwMTYyMTI0NjMzODwvcmVhbD4KCQkJCQkJPGtleT5zb3VyY2U8L2tleT4KCQkJCQkJPGludGVnZXI+MTA8L2ludGVnZXI+CgkJCQkJCTxrZXk+dHJhbnNmb3JtPC9rZXk+CgkJCQkJCTxpbnRlZ2VyPjE8L2ludGVnZXI+CgkJCQkJPC9kaWN0PgoJCQkJCTxkaWN0PgoJCQkJCQk8a2V5PklEPC9rZXk+CgkJCQkJCTxpbnRlZ2VyPjc8L2ludGVnZXI+
          CgkJCQkJCTxrZXk+Y29udHJvbDwva2V5PgoJCQkJCQk8aW50ZWdlcj4yNDE8L2ludGVnZXI+CgkJCQkJCTxrZXk+ZGVzdGluYXRpb248L2tleT4KCQkJCQkJPGludGVnZXI+ODE2ODQwNzA0PC9pbnRlZ2VyPgoJCQkJCQk8a2V5PmVuYWJsZWQ8L2tleT4KCQkJCQkJPHRydWUvPgoJCQkJCQk8a2V5PmludmVyc2U8L2tleT4KCQkJCQkJPGZhbHNlLz4KCQkJCQkJPGtleT5t
          YXggdmFsdWU8L2tleT4KCQkJCQkJPHJlYWw+MTI4MDA8L3JlYWw+CgkJCQkJCTxrZXk+bWluIHZhbHVlPC9rZXk+CgkJCQkJCTxyZWFsPi0xMjgwMDwvcmVhbD4KCQkJCQkJPGtleT5zb3VyY2U8L2tleT4KCQkJCQkJPGludGVnZXI+MjI0PC9pbnRlZ2VyPgoJCQkJCQk8a2V5PnRyYW5zZm9ybTwva2V5PgoJCQkJCQk8aW50ZWdlcj4xPC9pbnRlZ2VyPgoJCQkJCTwvZGlj
          dD4KCQkJCQk8ZGljdD4KCQkJCQkJPGtleT5JRDwva2V5PgoJCQkJCQk8aW50ZWdlcj44PC9pbnRlZ2VyPgoJCQkJCQk8a2V5PmNvbnRyb2w8L2tleT4KCQkJCQkJPGludGVnZXI+MDwvaW50ZWdlcj4KCQkJCQkJPGtleT5kZXN0aW5hdGlvbjwva2V5PgoJCQkJCQk8aW50ZWdlcj44MTY4NDA3MDQ8L2ludGVnZXI+CgkJCQkJCTxrZXk+ZW5hYmxlZDwva2V5PgoJCQkJCQk8
          dHJ1ZS8+CgkJCQkJCTxrZXk+aW52ZXJzZTwva2V5PgoJCQkJCQk8ZmFsc2UvPgoJCQkJCQk8a2V5Pm1heCB2YWx1ZTwva2V5PgoJCQkJCQk8cmVhbD4xMDA8L3JlYWw+CgkJCQkJCTxrZXk+bWluIHZhbHVlPC9rZXk+CgkJCQkJCTxyZWFsPi0xMDA8L3JlYWw+CgkJCQkJCTxrZXk+c291cmNlPC9rZXk+CgkJCQkJCTxpbnRlZ2VyPjI0MjwvaW50ZWdlcj4KCQkJCQkJPGtl
          eT50cmFuc2Zvcm08L2tleT4KCQkJCQkJPGludGVnZXI+MTwvaW50ZWdlcj4KCQkJCQk8L2RpY3Q+CgkJCQkJPGRpY3Q+CgkJCQkJCTxrZXk+SUQ8L2tleT4KCQkJCQkJPGludGVnZXI+NjwvaW50ZWdlcj4KCQkJCQkJPGtleT5jb250cm9sPC9rZXk+CgkJCQkJCTxpbnRlZ2VyPjE8L2ludGVnZXI+CgkJCQkJCTxrZXk+ZGVzdGluYXRpb248L2tleT4KCQkJCQkJPGludGVn
          ZXI+ODE2ODQwNzA0PC9pbnRlZ2VyPgoJCQkJCQk8a2V5PmVuYWJsZWQ8L2tleT4KCQkJCQkJPHRydWUvPgoJCQkJCQk8a2V5PmludmVyc2U8L2tleT4KCQkJCQkJPGZhbHNlLz4KCQkJCQkJPGtleT5tYXggdmFsdWU8L2tleT4KCQkJCQkJPHJlYWw+NTA8L3JlYWw+CgkJCQkJCTxrZXk+bWluIHZhbHVlPC9rZXk+CgkJCQkJCTxyZWFsPi01MDwvcmVhbD4KCQkJCQkJPGtl
          eT5zb3VyY2U8L2tleT4KCQkJCQkJPGludGVnZXI+MjY4NDM1NDU2PC9pbnRlZ2VyPgoJCQkJCQk8a2V5PnRyYW5zZm9ybTwva2V5PgoJCQkJCQk8aW50ZWdlcj4xPC9pbnRlZ2VyPgoJCQkJCTwvZGljdD4KCQkJCQk8ZGljdD4KCQkJCQkJPGtleT5JRDwva2V5PgoJCQkJCQk8aW50ZWdlcj41PC9pbnRlZ2VyPgoJCQkJCQk8a2V5PmNvbnRyb2w8L2tleT4KCQkJCQkJPGlu
          dGVnZXI+MDwvaW50ZWdlcj4KCQkJCQkJPGtleT5kZXN0aW5hdGlvbjwva2V5PgoJCQkJCQk8aW50ZWdlcj4xMzQzMjI1ODU2PC9pbnRlZ2VyPgoJCQkJCQk8a2V5PmVuYWJsZWQ8L2tleT4KCQkJCQkJPHRydWUvPgoJCQkJCQk8a2V5PmludmVyc2U8L2tleT4KCQkJCQkJPHRydWUvPgoJCQkJCQk8a2V5PnNjYWxlPC9rZXk+CgkJCQkJCTxyZWFsPi05NjwvcmVhbD4KCQkJ
          CQkJPGtleT5zb3VyY2U8L2tleT4KCQkJCQkJPGludGVnZXI+NTM2ODcwOTEyPC9pbnRlZ2VyPgoJCQkJCQk8a2V5PnRyYW5zZm9ybTwva2V5PgoJCQkJCQk8aW50ZWdlcj4xPC9pbnRlZ2VyPgoJCQkJCTwvZGljdD4KCQkJCTwvYXJyYXk+CgkJCQk8a2V5PkVudmVsb3Blczwva2V5PgoJCQkJPGFycmF5PgoJCQkJCTxkaWN0PgoJCQkJCQk8a2V5PklEPC9rZXk+CgkJCQkJ
          CTxpbnRlZ2VyPjA8L2ludGVnZXI+CgkJCQkJCTxrZXk+U3RhZ2VzPC9rZXk+CgkJCQkJCTxhcnJheT4KCQkJCQkJCTxkaWN0PgoJCQkJCQkJCTxrZXk+Y3VydmU8L2tleT4KCQkJCQkJCQk8aW50ZWdlcj4yMDwvaW50ZWdlcj4KCQkJCQkJCQk8a2V5PnN0YWdlPC9rZXk+CgkJCQkJCQkJPGludGVnZXI+MDwvaW50ZWdlcj4KCQkJCQkJCQk8a2V5PnRpbWU8L2tleT4KCQkJ
          CQkJCQk8cmVhbD4wLjA8L3JlYWw+CgkJCQkJCQk8L2RpY3Q+CgkJCQkJCQk8ZGljdD4KCQkJCQkJCQk8a2V5PmN1cnZlPC9rZXk+CgkJCQkJCQkJPGludGVnZXI+MjI8L2ludGVnZXI+CgkJCQkJCQkJPGtleT5zdGFnZTwva2V5PgoJCQkJCQkJCTxpbnRlZ2VyPjE8L2ludGVnZXI+CgkJCQkJCQkJPGtleT50aW1lPC9rZXk+CgkJCQkJCQkJPHJlYWw+MC4wPC9yZWFsPgoJ
          CQkJCQkJPC9kaWN0PgoJCQkJCQkJPGRpY3Q+CgkJCQkJCQkJPGtleT5jdXJ2ZTwva2V5PgoJCQkJCQkJCTxpbnRlZ2VyPjIwPC9pbnRlZ2VyPgoJCQkJCQkJCTxrZXk+c3RhZ2U8L2tleT4KCQkJCQkJCQk8aW50ZWdlcj4yPC9pbnRlZ2VyPgoJCQkJCQkJCTxrZXk+dGltZTwva2V5PgoJCQkJCQkJCTxyZWFsPjAuMDwvcmVhbD4KCQkJCQkJCTwvZGljdD4KCQkJCQkJCTxk
          aWN0PgoJCQkJCQkJCTxrZXk+Y3VydmU8L2tleT4KCQkJCQkJCQk8aW50ZWdlcj4yMDwvaW50ZWdlcj4KCQkJCQkJCQk8a2V5PnN0YWdlPC9rZXk+CgkJCQkJCQkJPGludGVnZXI+MzwvaW50ZWdlcj4KCQkJCQkJCQk8a2V5PnRpbWU8L2tleT4KCQkJCQkJCQk8cmVhbD4wLjA8L3JlYWw+CgkJCQkJCQk8L2RpY3Q+CgkJCQkJCQk8ZGljdD4KCQkJCQkJCQk8a2V5PmxldmVs
          PC9rZXk+CgkJCQkJCQkJPHJlYWw+MTwvcmVhbD4KCQkJCQkJCQk8a2V5PnN0YWdlPC9rZXk+CgkJCQkJCQkJPGludGVnZXI+NDwvaW50ZWdlcj4KCQkJCQkJCTwvZGljdD4KCQkJCQkJCTxkaWN0PgoJCQkJCQkJCTxrZXk+Y3VydmU8L2tleT4KCQkJCQkJCQk8aW50ZWdlcj4yMDwvaW50ZWdlcj4KCQkJCQkJCQk8a2V5PnN0YWdlPC9rZXk+CgkJCQkJCQkJPGludGVnZXI+
          NTwvaW50ZWdlcj4KCQkJCQkJCQk8a2V5PnRpbWU8L2tleT4KCQkJCQkJCQk8cmVhbD4wLjA8L3JlYWw+CgkJCQkJCQk8L2RpY3Q+CgkJCQkJCQk8ZGljdD4KCQkJCQkJCQk8a2V5PmN1cnZlPC9rZXk+CgkJCQkJCQkJPGludGVnZXI+MjA8L2ludGVnZXI+CgkJCQkJCQkJPGtleT5zdGFnZTwva2V5PgoJCQkJCQkJCTxpbnRlZ2VyPjY8L2ludGVnZXI+CgkJCQkJCQkJPGtl
          eT50aW1lPC9rZXk+CgkJCQkJCQkJPHJlYWw+MC4wMDQ5OTk5OTk4ODgyNDEyOTE8L3JlYWw+CgkJCQkJCQk8L2RpY3Q+CgkJCQkJCTwvYXJyYXk+CgkJCQkJCTxrZXk+ZW5hYmxlZDwva2V5PgoJCQkJCQk8dHJ1ZS8+CgkJCQkJPC9kaWN0PgoJCQkJPC9hcnJheT4KCQkJCTxrZXk+RmlsdGVyczwva2V5PgoJCQkJPGRpY3Q+CgkJCQkJPGtleT5JRDwva2V5PgoJCQkJCTxp
          bnRlZ2VyPjA8L2ludGVnZXI+CgkJCQkJPGtleT5jdXRvZmY8L2tleT4KCQkJCQk8cmVhbD4yMDAwMDwvcmVhbD4KCQkJCQk8a2V5PmVuYWJsZWQ8L2tleT4KCQkJCQk8ZmFsc2UvPgoJCQkJCTxrZXk+cmVzb25hbmNlPC9rZXk+CgkJCQkJPHJlYWw+LTM8L3JlYWw+CgkJCQk8L2RpY3Q+CgkJCQk8a2V5PklEPC9rZXk+CgkJCQk8aW50ZWdlcj4wPC9pbnRlZ2VyPgoJCQkJ
          PGtleT5MRk9zPC9rZXk+CgkJCQk8YXJyYXk+CgkJCQkJPGRpY3Q+CgkJCQkJCTxrZXk+SUQ8L2tleT4KCQkJCQkJPGludGVnZXI+MDwvaW50ZWdlcj4KCQkJCQkJPGtleT5lbmFibGVkPC9rZXk+CgkJCQkJCTx0cnVlLz4KCQkJCQk8L2RpY3Q+CgkJCQk8L2FycmF5PgoJCQkJPGtleT5Pc2NpbGxhdG9yPC9rZXk+CgkJCQk8ZGljdD4KCQkJCQk8a2V5PklEPC9rZXk+CgkJ
          CQkJPGludGVnZXI+MDwvaW50ZWdlcj4KCQkJCQk8a2V5PmVuYWJsZWQ8L2tleT4KCQkJCQk8dHJ1ZS8+CgkJCQk8L2RpY3Q+CgkJCQk8a2V5PlpvbmVzPC9rZXk+CgkJCQk8YXJyYXk+CgkJCQkJPGRpY3Q+CgkJCQkJCTxrZXk+SUQ8L2tleT4KCQkJCQkJPGludGVnZXI+MDwvaW50ZWdlcj4KCQkJCQkJPGtleT5lbmFibGVkPC9rZXk+CgkJCQkJCTx0cnVlLz4KCQkJCQkJ
          PGtleT5sb29wIGVuYWJsZWQ8L2tleT4KCQkJCQkJPHRydWUvPgoJCQkJCQk8a2V5PnJvb3Qga2V5PC9rZXk+CgkJCQkJCTxpbnRlZ2VyPjY5PC9pbnRlZ2VyPgoJCQkJCQk8a2V5PndhdmVmb3JtPC9rZXk+CgkJCQkJCTxpbnRlZ2VyPi0yPC9pbnRlZ2VyPgoJCQkJCTwvZGljdD4KCQkJCTwvYXJyYXk+CgkJCTwvZGljdD4KCQk8L2FycmF5PgoJCTxrZXk+bmFtZTwva2V5
          PgoJCTxzdHJpbmc+RGVmYXVsdCBJbnN0cnVtZW50PC9zdHJpbmc+Cgk8L2RpY3Q+Cgk8a2V5PmNvYXJzZSB0dW5lPC9rZXk+Cgk8aW50ZWdlcj4wPC9pbnRlZ2VyPgoJPGtleT5kYXRhPC9rZXk+Cgk8ZGF0YT4KCUFBQUFBQUFBQUFBQUFBQUVBQUFEaEFBQUFBQUFBQU9GQUFBQUFBQUFBNFpDS2tldkFBQURoMEFBQUFBPQoJPC9kYXRhPgoJPGtleT5maWxlLXJlZmVyZW5j
          ZXM8L2tleT4KCTxkaWN0Lz4KCTxrZXk+ZmluZSB0dW5lPC9rZXk+Cgk8cmVhbD4wLjA8L3JlYWw+Cgk8a2V5PmdhaW48L2tleT4KCTxyZWFsPjAuMDwvcmVhbD4KCTxrZXk+bWFudWZhY3R1cmVyPC9rZXk+Cgk8aW50ZWdlcj4xNjM0NzU4NzY0PC9pbnRlZ2VyPgoJPGtleT5uYW1lPC9rZXk+Cgk8c3RyaW5nPlVudGl0bGVkPC9zdHJpbmc+Cgk8a2V5Pm91dHB1dDwva2V5
          PgoJPGludGVnZXI+MDwvaW50ZWdlcj4KCTxrZXk+cGFuPC9rZXk+Cgk8cmVhbD4wLjA8L3JlYWw+Cgk8a2V5PnN1YnR5cGU8L2tleT4KCTxpbnRlZ2VyPjE5MzU3NjQ4NDg8L2ludGVnZXI+Cgk8a2V5PnR5cGU8L2tleT4KCTxpbnRlZ2VyPjE2MzUwODU2ODU8L2ludGVnZXI+Cgk8a2V5PnZlcnNpb248L2tleT4KCTxpbnRlZ2VyPjA8L2ludGVnZXI+Cgk8a2V5PnZvaWNl
          IGNvdW50PC9rZXk+Cgk8aW50ZWdlcj42NDwvaW50ZWdlcj4KPC9kaWN0Pgo8L3BsaXN0PgoBAAAAAAAAAAAA
        >
        FLOATPOS 0 0 0 0
        FXID {3E06498F-169E-9847-9B5F-E1F3C678E382}
        WAK 0 0
      >
      <ITEM {FD413EBD-8EFE-DB44-91E8-DB9C1DE8F4DA}
        POSITION 0
        SNAPOFFS 0
        LENGTH 2415.2668680202178
        LOOP 1
        ALLTAKES 0
        FADEIN 1 0 0 1 0 0 0
        FADEOUT 1 0 0 1 0 0 0
        MUTE 0 0
        SEL 1
        IGUID {FD413EBD-8EFE-DB44-91E8-DB9C1DE8F4DA}
        IID 1
        NAME "untitled MIDI item"
        VOLPAN 1 0 1 -1
        SOFFS 0 0
        PLAYRATE 1 1 0 -1 0 0.0025
        CHANMODE 0
        GUID {BF497D4C-B139-8148-AD27-D1D78CEE2490}
        <SOURCE MIDI
          HASDATA 1 960 QN
          CCINTERP 32
          POOLEDEVTS {2FCA1942-1B92-1E43-8578-8AB1C2EF2E67}
          E 9240 90 35 7f
          E 120 80 35 00
          E 0 90 35 7f
          E 120 80 35 00
          E 240 90 35 7f
          E 120 80 35 00
          E 0 90 35 7f
          E 120 80 35 00
          E 240 90 35 7f
          E 120 80 35 00
          E 0 90 35 7f
          E 120 80 35 00
          E 240 90 35 7f
          E 120 80 35 00
          E 0 90 35 7f
          E 120 80 35 00
          E 240 90 35 7f
          E 120 80 35 00
          E 0 90 35 7f
          E 120 80 35 00
          E 240 90 35 7f
          E 120 80 35 00
          E 0 90 35 7f
          E 120 80 35 00
          E 240 90 35 7f
          E 120 80 35 00
          E 0 90 35 7f
          E 120 80 35 00
          E 240 90 35 7f
          E 120 80 35 00
          E 0 90 35 7f
          E 120 80 35 00
          E 240 90 35 7f
          E 120 80 35 00
          E 0 90 35 7f
          E 120 80 35 00
          E 240 90 35 7f
          E 120 80 35 00
          E 0 90 35 7f
          E 120 80 35 00
          E 240 90 35 7f
          E 120 80 35 00
          E 0 90 35 7f
          E 120 80 35 00
          E 240 90 35 7f
          E 120 80 35 00
          E 0 90 35 7f
          E 120 80 35 00
          E 240 90 35 7f
          E 120 80 35 00
          E 0 90 35 7f
          E 120 80 35 00
          E 240 90 35 7f
          E 120 80 35 00
          E 0 90 35 7f
          E 120 80 35 00
          E 240 90 35 7f
          E 120 80 35 00
          E 0 90 35 7f
          E 120 80 35 00
          E 240 90 35 7f
          E 120 80 35 00
          E 0 90 35 7f
          E 120 80 35 00
          E 240 90 35 7f
          E 120 80 35 00
          E 0 90 35 7f
          E 120 80 35 00
          E 240 90 35 7f
          E 120 80 35 00
          E 0 90 35 7f
          E 120 80 35 00
          E 240 90 35 7f
          E 120 80 35 00
          E 0 90 35 7f
          E 120 80 35 00
          E 240 90 35 7f
          E 120 80 35 00
          E 0 90 35 7f
          E 120 80 35 00
          E 240 90 35 7f
          E 120 80 35 00
          E 0 90 35 7f
          E 120 80 35 00
          E 240 90 35 7f
          E 120 80 35 00
          E 0 90 35 7f
          E 120 80 35 00
          E 240 90 35 7f
          E 120 80 35 00
          E 0 90 35 7f
          E 120 80 35 00
          E 240 90 35 7f
          E 120 80 35 00
          E 0 90 35 7f
          E 120 80 35 00
          E 240 90 35 7f
          E 120 80 35 00
          E 0 90 35 7f
          E 120 80 35 00
          E 240 90 35 7f
          E 120 80 35 00
          E 0 90 35 7f
          E 120 80 35 00
          E 240 90 35 7f
          E 120 80 35 00
          E 0 90 35 7f
          E 120 80 35 00
          E 240 90 35 7f
          E 120 80 35 00
          E 0 90 35 7f
          E 120 80 35 00
          E 240 90 35 7f
          E 120 80 35 00
          E 0 90 35 7f
          E 120 80 35 00
          E 240 90 35 7f
          E 120 80 35 00
          E 0 90 35 7f
          E 120 80 35 00
          E 240 90 35 7f
          E 120 80 35 00
          E 0 90 35 7f
          E 120 80 35 00
          E 240 90 35 7f
          E 120 80 35 00
          E 0 90 35 7f
          E 120 80 35 00
          E 240 90 35 7f
          E 120 80 35 00
          E 0 90 35 7f
          E 120 80 35 00
          E 600 90 35 7f
          E 120 80 35 00
          E 0 90 35 7f
          E 120 80 35 00
          E 1320 90 36 7f
          E 120 80 36 00
          E 120 90 36 7f
          E 120 80 36 00
          E 360 90 36 7f
          E 120 80 36 00
          E 0 90 36 7f
          E 120 80 36 00
          E 0 90 36 7f
          E 120 80 36 00
          E 0 90 36 7f
          E 120 80 36 00
          E 0 90 36 7f
          E 120 80 36 00
          E 0 90 36 7f
          E 120 80 36 00
          E 0 90 36 7f
          E 0 90 39 7f
          E 120 80 36 00
          E 0 80 39 00
          E 0 90 36 7f
          E 120 80 36 00
          E 0 90 36 7f
          E 0 90 39 7f
          E 120 80 36 00
          E 0 80 39 00
          E 0 90 36 7f
          E 120 80 36 00
          E 0 90 36 7f
          E 0 90 39 7f
          E 120 80 36 00
          E 0 80 39 00
          E 0 90 36 7f
          E 120 80 36 00
          E 0 90 36 7f
          E 0 90 39 7f
          E 120 80 36 00
          E 0 80 39 00
          E 0 90 36 7f
          E 120 80 36 00
          E 0 90 36 7f
          E 0 90 35 7f
          E 120 80 36 00
          E 0 80 35 00
          E 0 90 36 7f
          E 0 90 35 7f
          E 120 80 36 00
          E 0 80 35 00
          E 0 90 36 7f
          E 120 80 36 00
          E 0 90 36 7f
          E 120 80 36 00
          E 0 90 36 7f
          E 0 90 35 7f
          E 120 80 36 00
          E 0 80 35 00
          E 0 90 36 7f
          E 0 90 35 7f
          E 120 80 36 00
          E 0 80 35 00
          E 0 90 36 7f
          E 120 80 36 00
          E 0 90 36 7f
          E 120 80 36 00
          E 0 90 35 7f
          E 120 80 35 00
          E 0 90 35 7f
          E 120 80 35 00
          E 240 90 35 7f
          E 120 80 35 00
          E 0 90 35 7f
          E 120 80 35 00
          E 240 90 35 7f
          E 120 80 35 00
          E 0 90 35 7f
          E 120 80 35 00
          E 240 90 35 7f
          E 120 80 35 00
          E 0 90 35 7f
          E 120 80 35 00
          E 240 90 35 7f
          E 120 80 35 00
          E 0 90 35 7f
          E 120 80 35 00
          E 240 90 35 7f
          E 120 80 35 00
          E 0 90 37 7f
          E 0 90 35 7f
          E 120 80 37 00
          E 0 80 35 00
          E 120 90 37 7f
          E 120 80 37 00
          E 0 90 35 7f
          E 120 80 35 00
          E 0 90 37 7f
          E 0 90 35 7f
          E 120 80 37 00
          E 0 80 35 00
          E 120 90 37 7f
          E 120 80 37 00
          E 0 90 35 7f
          E 120 80 35 00
          E 0 90 37 7f
          E 0 90 35 7f
          E 120 80 37 00
          E 0 80 35 00
          E 120 90 37 7f
          E 120 80 37 00
          E 0 90 35 7f
          E 120 80 35 00
          E 0 90 37 7f
          E 0 90 35 7f
          E 120 80 37 00
          E 0 80 35 00
          E 120 90 37 7f
          E 120 80 37 00
          E 0 90 35 7f
          E 120 80 35 00
          E 0 90 37 7f
          E 0 90 35 7f
          E 120 80 37 00
          E 0 80 35 00
          E 120 90 37 7f
          E 120 80 37 00
          E 0 90 35 7f
          E 120 80 35 00
          E 0 90 37 7f
          E 0 90 35 7f
          E 120 80 37 00
          E 0 80 35 00
          E 120 90 37 7f
          E 120 80 37 00
          E 0 90 35 7f
          E 120 80 35 00
          E 0 90 37 7f
          E 0 90 35 7f
          E 120 80 37 00
          E 0 80 35 00
          E 120 90 37 7f
          E 120 80 37 00
          E 0 90 35 7f
          E 120 80 35 00
          E 0 90 37 7f
          E 0 90 35 7f
          E 120 80 37 00
          E 0 80 35 00
          E 120 90 37 7f
          E 120 80 37 00
          E 0 90 35 7f
          E 120 80 35 00
          E 0 90 37 7f
          E 0 90 35 7f
          E 120 80 37 00
          E 0 80 35 00
          E 120 90 37 7f
          E 120 80 37 00
          E 0 90 35 7f
          E 120 80 35 00
          E 0 90 37 7f
          E 0 90 35 7f
          E 120 80 37 00
          E 0 80 35 00
          E 120 90 37 7f
          E 120 80 37 00
          E 0 90 35 7f
          E 120 80 35 00
          E 0 90 37 7f
          E 0 90 35 7f
          E 120 80 37 00
          E 0 80 35 00
          E 0 90 36 7f
          E 120 90 37 7f
          E 120 80 36 00
          E 0 80 37 00
          E 0 90 35 7f
          E 120 80 35 00
          E 0 90 37 7f
          E 0 90 35 7f
          E 120 80 37 00
          E 0 80 35 00
          E 0 90 36 7f
          E 120 90 37 7f
          E 120 80 36 00
          E 0 80 37 00
          E 0 90 35 7f
          E 120 80 35 00
          E 0 90 35 7f
          E 120 80 35 00
          E 0 90 36 7f
          E 240 80 36 00
          E 0 90 35 7f
          E 120 80 35 00
          E 0 90 35 7f
          E 120 80 35 00
          E 0 90 36 7f
          E 240 80 36 00
          E 0 90 35 7f
          E 0 90 37 7f
          E 120 80 35 00
          E 0 80 37 00
          E 0 90 35 7f
          E 120 80 35 00
          E 0 90 37 7f
          E 120 80 37 00
          E 120 90 35 7f
          E 0 90 37 7f
          E 120 80 35 00
          E 0 80 37 00
          E 0 90 35 7f
          E 120 80 35 00
          E 0 90 37 7f
          E 120 80 37 00
          E 120 90 35 7f
          E 0 90 37 7f
          E 120 80 35 00
          E 0 80 37 00
          E 0 90 35 7f
          E 120 80 35 00
          E 0 90 37 7f
          E 120 80 37 00
          E 120 90 37 7f
          E 0 90 35 7f
          E 120 80 37 00
          E 0 80 35 00
          E 0 90 35 7f
          E 120 80 35 00
          E 0 90 36 7f
          E 0 90 37 7f
          E 120 80 37 00
          E 120 80 36 00
          E 0 90 37 7f
          E 0 90 35 7f
          E 120 80 37 00
          E 0 80 35 00
          E 0 90 35 7f
          E 120 80 35 00
          E 0 90 36 7f
          E 120 90 37 7f
          E 120 80 36 00
          E 0 80 37 00
          E 0 90 35 7f
          E 120 80 35 00
          E 0 90 35 7f
          E 120 80 35 00
          E 0 90 36 7f
          E 120 90 37 7f
          E 120 80 36 00
          E 0 80 37 00
          E 0 90 35 7f
          E 120 80 35 00
          E 0 90 35 7f
          E 120 80 35 00
          E 0 90 36 7f
          E 0 90 35 7f
          E 120 80 35 00
          E 0 90 35 7f
          E 120 80 36 00
          E 0 80 35 00
          E 0 90 37 7f
          E 0 90 35 7f
          E 120 80 37 00
          E 0 80 35 00
          E 0 90 35 7f
          E 120 80 35 00
          E 0 90 35 7f
          E 0 90 37 7f
          E 120 80 35 00
          E 0 80 37 00
          E 0 90 35 7f
          E 120 80 35 00
          E 0 90 35 7f
          E 0 90 37 7f
          E 0 90 36 7f
          E 120 80 35 00
          E 0 80 37 00
          E 0 80 36 00
          E 0 90 35 7f
          E 120 80 35 00
          E 0 90 35 7f
          E 0 90 37 7f
          E 120 80 35 00
          E 0 80 37 00
          E 0 90 35 7f
          E 120 80 35 00
          E 0 90 37 7f
          E 0 90 35 7f
          E 120 80 37 00
          E 0 80 35 00
          E 0 90 35 7f
          E 120 80 35 00
          E 0 90 37 7f
          E 0 90 35 7f
          E 120 80 37 00
          E 0 80 35 00
          E 0 90 35 7f
          E 120 80 35 00
          E 0 90 37 7f
          E 0 90 35 7f
          E 120 80 37 00
          E 0 80 35 00
          E 0 90 35 7f
          E 120 80 35 00
          E 0 90 37 7f
          E 0 90 35 7f
          E 0 90 36 7f
          E 120 80 37 00
          E 0 80 35 00
          E 0 80 36 00
          E 0 90 35 7f
          E 120 80 35 00
          E 0 90 37 7f
          E 120 80 37 00
          E 120 90 37 7f
          E 120 80 37 00
          E 120 90 37 7f
          E 0 90 36 7f
          E 120 80 37 00
          E 0 80 36 00
          E 120 90 37 7f
          E 120 80 37 00
          E 120 90 37 7f
          E 0 90 35 7f
          E 120 80 37 00
          E 0 80 35 00
          E 120 90 37 7f
          E 0 90 35 7f
          E 120 80 37 00
          E 0 80 35 00
          E 120 90 37 7f
          E 0 90 35 7f
          E 120 80 37 00
          E 0 80 35 00
          E 120 90 37 7f
          E 0 90 36 7f
          E 120 80 37 00
          E 0 80 36 00
          E 240 90 36 7f
          E 120 80 36 00
          E 0 90 37 7f
          E 0 90 36 7f
          E 120 80 37 00
          E 0 80 36 00
          E 0 90 36 7f
          E 120 80 36 00
          E 0 90 37 7f
          E 0 90 36 7f
          E 120 80 37 00
          E 0 80 36 00
          E 0 90 36 7f
          E 120 80 36 00
          E 0 90 37 7f
          E 0 90 36 7f
          E 120 80 37 00
          E 0 80 36 00
          E 0 90 35 7f
          E 0 90 36 7f
          E 120 80 35 00
          E 0 80 36 00
          E 0 90 38 7f
          E 0 90 37 7f
          E 0 90 36 7f
          E 120 80 38 00
          E 0 80 37 00
          E 0 80 36 00
          E 0 90 35 7f
          E 0 90 36 7f
          E 120 80 35 00
          E 0 80 36 00
          E 0 90 38 7f
          E 0 90 37 7f
          E 0 90 35 7f
          E 0 90 36 7f
          E 120 80 37 00
          E 0 80 35 00
          E 0 80 36 00
          E 0 90 36 7f
          E 120 80 38 00
          E 0 80 36 00
          E 0 90 37 7f
          E 0 90 35 7f
          E 0 90 36 7f
          E 120 80 37 00
          E 0 80 35 00
          E 0 80 36 00
          E 0 90 35 7f
          E 0 90 36 7f
          E 120 80 35 00
          E 0 80 36 00
          E 0 90 38 7f
          E 0 90 37 7f
          E 0 90 36 7f
          E 120 80 38 00
          E 0 80 37 00
          E 0 80 36 00
          E 0 90 36 7f
          E 120 80 36 00
          E 0 90 38 7f
          E 0 90 37 7f
          E 0 90 35 7f
          E 0 90 36 7f
          E 120 80 38 00
          E 0 80 37 00
          E 0 80 35 00
          E 0 80 36 00
          E 0 90 35 7f
          E 0 90 36 7f
          E 120 80 35 00
          E 0 80 36 00
          E 0 90 37 7f
          E 0 90 36 7f
          E 120 80 37 00
          E 0 80 36 00
          E 0 90 36 7f
          E 120 80 36 00
          E 0 90 35 7f
          E 0 90 37 7f
          E 0 90 36 7f
          E 120 80 35 00
          E 0 80 37 00
          E 0 80 36 00
          E 0 90 35 7f
          E 120 80 35 00
          E 0 90 38 7f
          E 0 90 37 7f
          E 120 80 38 00
          E 0 80 37 00
          E 120 90 38 7f
          E 0 90 35 7f
          E 0 90 37 7f
          E 120 80 38 00
          E 0 80 35 00
          E 0 80 37 00
          E 0 90 35 7f
          E 120 80 35 00
          E 0 90 37 7f
          E 120 80 37 00
          E 120 90 35 7f
          E 0 90 37 7f
          E 120 80 35 00
          E 0 80 37 00
          E 0 90 35 7f
          E 120 80 35 00
          E 0 90 38 7f
          E 120 80 38 00
          E 120 90 35 7f
          E 120 80 35 00
          E 0 90 35 7f
          E 120 80 35 00
          E 0 90 38 7f
          E 120 80 38 00
          E 120 90 35 7f
          E 120 80 35 00
          E 0 90 35 7f
          E 120 80 35 00
          E 0 90 35 7f
          E 120 80 35 00
          E 0 90 35 7f
          E 120 80 35 00
          E 0 90 38 7f
          E 0 90 35 7f
          E 120 80 38 00
          E 0 80 35 00
          E 0 90 35 7f
          E 120 80 35 00
          E 0 90 35 7f
          E 120 80 35 00
          E 0 90 35 7f
          E 120 80 35 00
          E 0 90 35 7f
          E 120 80 35 00
          E 0 90 35 7f
          E 120 80 35 00
          E 0 90 35 7f
          E 120 80 35 00
          E 0 90 35 7f
          E 120 80 35 00
          E 0 90 35 7f
          E 120 80 35 00
          E 0 90 35 7f
          E 120 80 35 00
          E 0 90 35 7f
          E 120 80 35 00
          E 0 90 35 7f
          E 120 80 35 00
          E 120 90 38 7f
          E 120 80 38 00
          E 0 90 38 7f
          E 120 80 38 00
          E 0 90 36 7f
          E 120 80 36 00
          E 0 90 38 7f
          E 120 80 38 00
          E 0 90 35 7f
          E 120 80 35 00
          E 0 90 35 7f
          E 0 90 38 7f
          E 120 80 35 00
          E 0 80 38 00
          E 0 90 35 7f
          E 120 80 35 00
          E 0 90 35 7f
          E 0 90 38 7f
          E 120 80 35 00
          E 0 80 38 00
          E 0 90 35 7f
          E 120 80 35 00
          E 0 90 35 7f
          E 0 90 38 7f
          E 120 80 35 00
          E 0 80 38 00
          E 0 90 35 7f
          E 0 90 36 7f
          E 120 80 35 00
          E 0 80 36 00
          E 0 90 35 7f
          E 0 90 36 7f
          E 0 90 38 7f
          E 120 80 35 00
          E 0 80 36 00
          E 0 80 38 00
          E 0 90 35 7f
          E 0 90 36 7f
          E 120 80 35 00
          E 0 80 36 00
          E 0 90 35 7f
          E 0 90 36 7f
          E 0 90 38 7f
          E 120 80 35 00
          E 0 80 36 00
          E 0 80 38 00
          E 0 90 36 7f
          E 120 80 36 00
          E 0 90 36 7f
          E 0 90 38 7f
          E 120 80 36 00
          E 0 80 38 00
          E 0 90 36 7f
          E 120 80 36 00
          E 0 90 36 7f
          E 0 90 38 7f
          E 120 80 36 00
          E 0 80 38 00
          E 0 90 36 7f
          E 120 80 36 00
          E 0 90 36 7f
          E 0 90 38 7f
          E 120 80 36 00
          E 0 80 38 00
          E 600 90 37 7f
          E 120 80 37 00
          E 120 90 35 7f
          E 0 90 37 7f
          E 120 80 35 00
          E 0 80 37 00
          E 120 90 37 7f
          E 120 80 37 00
          E 120 90 37 7f
          E 120 80 37 00
          E 120 90 37 7f
          E 120 80 37 00
          E 120 90 37 7f
          E 120 80 37 00
          E 120 90 37 7f
          E 120 80 37 00
          E 120 90 35 7f
          E 0 90 37 7f
          E 120 80 35 00
          E 0 80 37 00
          E 120 90 37 7f
          E 120 80 37 00
          E 120 90 37 7f
          E 120 80 37 00
          E 120 90 37 7f
          E 120 80 37 00
          E 120 90 37 7f
          E 120 80 37 00
          E 120 90 37 7f
          E 120 80 37 00
          E 120 90 37 7f
          E 120 80 37 00
          E 0 90 35 7f
          E 120 80 35 00
          E 0 90 37 7f
          E 120 80 37 00
          E 120 90 37 7f
          E 120 80 37 00
          E 120 90 37 7f
          E 120 80 37 00
          E 120 90 37 7f
          E 120 80 37 00
          E 120 90 37 7f
          E 120 80 37 00
          E 120 90 37 7f
          E 120 80 37 00
          E 120 90 35 7f
          E 0 90 37 7f
          E 120 80 35 00
          E 0 80 37 00
          E 120 90 37 7f
          E 120 80 37 00
          E 120 90 37 7f
          E 120 80 37 00
          E 120 90 37 7f
          E 120 80 37 00
          E 360 90 37 7f
          E 120 80 37 00
          E 120 90 37 7f
          E 120 80 37 00
          E 0 90 35 7f
          E 120 80 35 00
          E 0 90 37 7f
          E 120 80 37 00
          E 120 90 37 7f
          E 120 80 37 00
          E 120 90 37 7f
          E 120 80 37 00
          E 120 90 37 7f
          E 120 80 37 00
          E 120 90 37 7f
          E 120 80 37 00
          E 120 90 37 7f
          E 120 80 37 00
          E 120 90 35 7f
          E 0 90 37 7f
          E 120 80 35 00
          E 0 80 37 00
          E 120 90 37 7f
          E 120 80 37 00
          E 120 90 37 7f
          E 120 80 37 00
          E 120 90 37 7f
          E 120 80 37 00
          E 120 90 37 7f
          E 120 80 37 00
          E 120 90 37 7f
          E 120 80 37 00
          E 120 90 37 7f
          E 120 80 37 00
          E 0 90 35 7f
          E 120 80 35 00
          E 0 90 37 7f
          E 120 80 37 00
          E 120 90 37 7f
          E 120 80 37 00
          E 120 90 37 7f
          E 120 80 37 00
          E 120 90 37 7f
          E 120 80 37 00
          E 120 90 37 7f
          E 120 80 37 00
          E 120 90 36 7f
          E 0 90 37 7f
          E 120 80 36 00
          E 0 80 37 00
          E 0 90 35 7f
          E 120 80 35 00
          E 0 90 35 7f
          E 0 90 37 7f
          E 120 80 35 00
          E 0 80 37 00
          E 0 90 35 7f
          E 120 80 35 00
          E 0 90 35 7f
          E 0 90 37 7f
          E 120 80 35 00
          E 0 80 37 00
          E 0 90 35 7f
          E 120 80 35 00
          E 0 90 35 7f
          E 0 90 37 7f
          E 120 80 35 00
          E 0 80 37 00
          E 0 90 35 7f
          E 120 80 35 00
          E 0 90 35 7f
          E 0 90 36 7f
          E 120 80 35 00
          E 0 80 36 00
          E 0 90 35 7f
          E 0 90 36 7f
          E 120 80 35 00
          E 0 80 36 00
          E 0 90 35 7f
          E 0 90 36 7f
          E 120 80 35 00
          E 0 80 36 00
          E 0 90 35 7f
          E 0 90 36 7f
          E 120 80 35 00
          E 0 80 36 00
          E 0 90 36 7f
          E 120 80 36 00
          E 0 90 36 7f
          E 120 80 36 00
          E 0 90 36 7f
          E 120 80 36 00
          E 0 90 36 7f
          E 120 80 36 00
          E 0 90 36 7f
          E 120 80 36 00
          E 0 90 36 7f
          E 120 80 36 00
          E 120 90 35 7f
          E 120 80 35 00
          E 0 90 35 7f
          E 120 80 35 00
          E 0 90 35 7f
          E 120 80 35 00
          E 0 90 35 7f
          E 120 80 35 00
          E 0 90 35 7f
          E 120 80 35 00
          E 0 90 35 7f
          E 120 80 35 00
          E 0 90 35 7f
          E 120 80 35 00
          E 0 90 35 7f
          E 0 90 36 7f
          E 120 80 35 00
          E 0 80 36 00
          E 0 90 35 7f
          E 0 90 36 7f
          E 120 80 35 00
          E 0 80 36 00
          E 0 90 35 7f
          E 0 90 36 7f
          E 0 90 3c 7f
          E 120 80 35 00
          E 0 80 36 00
          E 0 90 35 7f
          E 0 90 36 7f
          E 49 80 3c 00
          E 71 80 35 00
          E 0 80 36 00
          E 0 90 36 7f
          E 120 80 36 00
          E 0 90 36 7f
          E 120 80 36 00
          E 0 90 36 7f
          E 120 80 36 00
          E 0 90 36 7f
          E 120 80 36 00
          E 0 90 36 7f
          E 120 80 36 00
          E 0 90 36 7f
          E 120 80 36 00
          E 0 90 35 7f
          E 120 80 35 00
          E 0 90 35 7f
          E 120 80 35 00
          E 240 90 35 7f
          E 120 80 35 00
          E 0 90 35 7f
          E 120 80 35 00
          E 240 90 35 7f
          E 120 80 35 00
          E 0 90 35 7f
          E 120 80 35 00
          E 240 90 35 7f
          E 120 80 35 00
          E 0 90 35 7f
          E 120 80 35 00
          E 2640 90 35 7f
          E 120 80 35 00
          E 0 90 35 7f
          E 120 80 35 00
          E 240 90 35 7f
          E 120 80 35 00
          E 0 90 35 7f
          E 120 80 35 00
          E 240 90 35 7f
          E 120 80 35 00
          E 0 90 35 7f
          E 120 80 35 00
          E 240 90 35 7f
          E 120 80 35 00
          E 0 90 35 7f
          E 120 80 35 00
          E 240 90 35 7f
          E 120 80 35 00
          E 0 90 35 7f
          E 120 80 35 00
          E 240 90 35 7f
          E 120 80 35 00
          E 0 90 35 7f
          E 120 80 35 00
          E 240 90 35 7f
          E 120 80 35 00
          E 0 90 35 7f
          E 120 80 35 00
          E 240 90 35 7f
          E 120 80 35 00
          E 0 90 35 7f
          E 120 80 35 00
          E 240 90 35 7f
          E 120 80 35 00
          E 0 90 35 7f
          E 120 80 35 00
          E 240 90 35 7f
          E 120 80 35 00
          E 0 90 35 7f
          E 120 80 35 00
          E 240 90 35 7f
          E 120 80 35 00
          E 0 90 35 7f
          E 120 80 35 00
          E 240 90 35 7f
          E 120 80 35 00
          E 0 90 35 7f
          E 120 80 35 00
          E 240 90 35 7f
          E 120 80 35 00
          E 0 90 35 7f
          E 120 80 35 00
          E 240 90 35 7f
          E 120 80 35 00
          E 0 90 35 7f
          E 120 80 35 00
          E 240 90 35 7f
          E 120 80 35 00
          E 0 90 35 7f
          E 120 80 35 00
          E 240 90 35 7f
          E 120 80 35 00
          E 0 90 35 7f
          E 120 80 35 00
          E 240 90 35 7f
          E 120 80 35 00
          E 0 90 35 7f
          E 120 80 35 00
          E 240 90 35 7f
          E 120 80 35 00
          E 0 90 35 7f
          E 120 80 35 00
          E 240 90 35 7f
          E 120 80 35 00
          E 0 90 35 7f
          E 120 80 35 00
          E 240 90 35 7f
          E 120 80 35 00
          E 0 90 35 7f
          E 120 80 35 00
          E 240 90 35 7f
          E 120 80 35 00
          E 0 90 35 7f
          E 120 80 35 00
          E 240 90 35 7f
          E 120 80 35 00
          E 0 90 35 7f
          E 120 80 35 00
          E 240 90 35 7f
          E 120 80 35 00
          E 0 90 35 7f
          E 120 80 35 00
          E 240 90 35 7f
          E 120 80 35 00
          E 0 90 35 7f
          E 120 80 35 00
          E 240 90 35 7f
          E 120 80 35 00
          E 0 90 35 7f
          E 120 80 35 00
          E 240 90 35 7f
          E 120 80 35 00
          E 0 90 35 7f
          E 120 80 35 00
          E 240 90 35 7f
          E 120 80 35 00
          E 0 90 35 7f
          E 120 80 35 00
          E 120 90 37 7f
          E 120 80 37 00
          E 0 90 35 7f
          E 120 80 35 00
          E 0 90 35 7f
          E 0 90 37 7f
          E 120 80 35 00
          E 0 80 37 00
          E 120 90 37 7f
          E 120 80 37 00
          E 120 90 37 7f
          E 120 80 37 00
          E 120 90 37 7f
          E 120 80 37 00
          E 120 90 37 7f
          E 120 80 37 00
          E 120 90 37 7f
          E 120 80 37 00
          E 120 90 37 7f
          E 120 80 37 00
          E 120 90 37 7f
          E 120 80 37 00
          E 120 90 37 7f
          E 120 80 37 00
          E 120 90 37 7f
          E 120 80 37 00
          E 120 90 37 7f
          E 120 80 37 00
          E 120 90 37 7f
          E 120 80 37 00
          E 120 90 37 7f
          E 120 80 37 00
          E 120 90 37 7f
          E 120 80 37 00
          E 120 90 37 7f
          E 0 90 35 7f
          E 120 80 37 00
          E 0 80 35 00
          E 0 90 35 7f
          E 120 80 35 00
          E 0 90 37 7f
          E 120 80 37 00
          E 120 90 37 7f
          E 0 90 35 7f
          E 120 80 37 00
          E 0 80 35 00
          E 0 90 35 7f
          E 120 80 35 00
          E 0 90 37 7f
          E 120 80 37 00
          E 120 90 35 7f
          E 120 80 35 00
          E 0 90 35 7f
          E 120 80 35 00
          E 0 90 37 7f
          E 120 80 37 00
          E 120 90 37 7f
          E 0 90 35 7f
          E 120 80 37 00
          E 0 80 35 00
          E 0 90 35 7f
          E 120 80 35 00
          E 0 90 37 7f
          E 120 80 37 00
          E 120 90 37 7f
          E 0 90 35 7f
          E 120 80 37 00
          E 0 80 35 00
          E 0 90 35 7f
          E 120 80 35 00
          E 0 90 37 7f
          E 120 80 37 00
          E 120 90 37 7f
          E 0 90 35 7f
          E 120 80 37 00
          E 0 80 35 00
          E 0 90 35 7f
          E 120 80 35 00
          E 0 90 37 7f
          E 120 80 37 00
          E 120 90 37 7f
          E 0 90 35 7f
          E 120 80 37 00
          E 0 80 35 00
          E 0 90 35 7f
          E 120 80 35 00
          E 0 90 37 7f
          E 120 80 37 00
          E 120 90 37 7f
          E 0 90 35 7f
          E 120 80 37 00
          E 0 80 35 00
          E 0 90 35 7f
          E 120 80 35 00
          E 0 90 37 7f
          E 120 80 37 00
          E 120 90 37 7f
          E 0 90 35 7f
          E 120 80 37 00
          E 0 80 35 00
          E 0 90 35 7f
          E 120 80 35 00
          E 0 90 37 7f
          E 120 80 37 00
          E 120 90 37 7f
          E 120 80 37 00
          E 120 90 37 7f
          E 120 80 37 00
          E 120 90 37 7f
          E 120 80 37 00
          E 120 90 37 7f
          E 120 80 37 00
          E 120 90 37 7f
          E 120 80 37 00
          E 120 90 37 7f
          E 120 80 37 00
          E 120 90 37 7f
          E 120 80 37 00
          E 0 90 35 7f
          E 120 80 35 00
          E 0 90 37 7f
          E 0 90 35 7f
          E 120 80 37 00
          E 0 80 35 00
          E 120 90 37 7f
          E 120 80 37 00
          E 0 90 35 7f
          E 120 80 35 00
          E 0 90 37 7f
          E 0 90 35 7f
          E 120 80 37 00
          E 0 80 35 00
          E 120 90 37 7f
          E 120 80 37 00
          E 0 90 35 7f
          E 120 80 35 00
          E 0 90 35 7f
          E 120 80 35 00
          E 240 90 35 7f
          E 120 80 35 00
          E 0 90 35 7f
          E 120 80 35 00
          E 240 90 35 7f
          E 120 80 35 00
          E 0 90 35 7f
          E 120 80 35 00
          E 240 90 35 7f
          E 120 80 35 00
          E 0 90 35 7f
          E 120 80 35 00
          E 240 90 35 7f
          E 120 80 35 00
          E 0 90 35 7f
          E 120 80 35 00
          E 240 90 35 7f
          E 120 80 35 00
          E 0 90 35 7f
          E 120 80 35 00
          E 0 90 41 7f
          E 240 80 41 00
          E 0 90 35 7f
          E 0 90 41 7f
          E 120 80 35 00
          E 0 90 35 7f
          E 120 80 41 00
          E 0 80 35 00
          E 0 90 41 7f
          E 240 80 41 00
          E 480 90 41 7f
          E 240 80 41 00
          E 0 90 41 7f
          E 240 80 41 00
          E 0 90 41 7f
          E 240 80 41 00
          E 480 90 41 7f
          E 240 80 41 00
          E 0 90 41 7f
          E 240 80 41 00
          E 0 90 41 7f
          E 240 80 41 00
          E 720 90 41 7f
          E 240 80 41 00
          E 0 90 41 7f
          E 240 80 41 00
          E 0 90 41 7f
          E 240 80 41 00
          E 720 90 41 7f
          E 240 80 41 00
          E 0 90 41 7f
          E 240 80 41 00
          E 0 90 41 7f
          E 240 80 41 00
          E 480 90 41 7f
          E 240 80 41 00
          E 0 90 41 7f
          E 240 80 41 00
          E 0 90 35 7f
          E 0 90 41 7f
          E 120 80 35 00
          E 0 90 35 7f
          E 120 80 41 00
          E 0 80 35 00
          E 240 90 35 7f
          E 120 80 35 00
          E 0 90 35 7f
          E 120 80 35 00
          E 0 90 41 7f
          E 240 80 41 00
          E 0 90 35 7f
          E 0 90 41 7f
          E 120 80 35 00
          E 0 90 35 7f
          E 0 90 46 7f
          E 120 80 41 00
          E 0 80 35 00
          E 0 80 46 00
          E 0 90 41 7f
          E 240 80 41 00
          E 0 90 35 7f
          E 120 80 35 00
          E 0 90 35 7f
          E 120 80 35 00
          E 240 90 35 7f
          E 120 80 35 00
          E 0 90 35 7f
          E 120 80 35 00
          E 240 90 35 7f
          E 120 80 35 00
          E 0 90 35 7f
          E 120 80 35 00
          E 240 90 35 7f
          E 120 80 35 00
          E 0 90 35 7f
          E 120 80 35 00
          E 0 90 3d 7f
          E 120 80 3d 00
          E 120 90 35 7f
          E 0 90 3d 7f
          E 120 80 35 00
          E 0 80 3d 00
          E 0 90 35 7f
          E 120 80 35 00
          E 0 90 3d 7f
          E 120 80 3d 00
          E 120 90 35 7f
          E 0 90 3d 7f
          E 120 80 35 00
          E 0 80 3d 00
          E 0 90 35 7f
          E 120 80 35 00
          E 0 90 3d 7f
          E 120 80 3d 00
          E 120 90 3d 7f
          E 120 80 3d 00
          E 120 90 3d 7f
          E 120 80 3d 00
          E 120 90 3d 7f
          E 120 80 3d 00
          E 120 90 3d 7f
          E 120 80 3d 00
          E 120 90 3d 7f
          E 120 80 3d 00
          E 120 90 3d 7f
          E 120 80 3d 00
          E 120 90 3d 7f
          E 120 80 3d 00
          E 0 90 4a 7f
          E 120 90 3d 7f
          E 120 80 3d 00
          E 360 80 4a 00
          E 240 90 41 7f
          E 240 80 41 00
          E 0 90 41 7f
          E 240 80 41 00
          E 0 90 41 7f
          E 240 80 41 00
          E 480 90 41 7f
          E 240 80 41 00
          E 0 90 41 7f
          E 240 80 41 00
          E 0 90 41 7f
          E 240 80 41 00
          E 480 90 41 7f
          E 240 80 41 00
          E 0 90 41 7f
          E 240 80 41 00
          E 0 90 41 7f
          E 240 80 41 00
          E 720 90 41 7f
          E 0 90 35 7f
          E 120 80 35 00
          E 0 90 35 7f
          E 120 80 41 00
          E 0 80 35 00
          E 0 90 41 7f
          E 240 80 41 00
          E 0 90 41 7f
          E 0 90 35 7f
          E 120 80 35 00
          E 0 90 35 7f
          E 120 80 41 00
          E 0 80 35 00
          E 240 90 35 7f
          E 120 80 35 00
          E 0 90 35 7f
          E 120 80 35 00
          E 240 90 41 7f
          E 0 90 35 7f
          E 120 80 35 00
          E 0 90 35 7f
          E 120 80 41 00
          E 0 80 35 00
          E 0 90 41 7f
          E 240 80 41 00
          E 0 90 41 7f
          E 0 90 35 7f
          E 120 80 35 00
          E 0 90 35 7f
          E 120 80 41 00
          E 0 80 35 00
          E 240 90 35 7f
          E 120 80 35 00
          E 0 90 3d 7f
          E 0 90 35 7f
          E 0 90 46 7f
          E 120 80 3d 00
          E 0 80 35 00
          E 0 80 46 00
          E 120 90 3d 7f
          E 120 80 3d 00
          E 0 90 35 7f
          E 120 80 35 00
          E 0 90 3d 7f
          E 0 90 35 7f
          E 120 80 3d 00
          E 0 80 35 00
          E 120 90 3d 7f
          E 120 80 3d 00
          E 0 90 35 7f
          E 120 80 35 00
          E 0 90 3d 7f
          E 0 90 35 7f
          E 120 80 3d 00
          E 0 80 35 00
          E 120 90 3d 7f
          E 120 80 3d 00
          E 0 90 35 7f
          E 120 80 35 00
          E 0 90 3d 7f
          E 0 90 35 7f
          E 120 80 3d 00
          E 0 80 35 00
          E 120 90 3d 7f
          E 120 80 3d 00
          E 120 90 3d 7f
          E 120 80 3d 00
          E 120 90 3d 7f
          E 120 80 3d 00
          E 120 90 3d 7f
          E 120 80 3d 00
          E 120 90 3d 7f
          E 120 80 3d 00
          E 120 90 3d 7f
          E 120 80 3d 00
          E 480 90 41 7f
          E 240 80 41 00
          E 0 90 41 7f
          E 240 80 41 00
          E 0 90 41 7f
          E 240 80 41 00
          E 480 90 41 7f
          E 240 80 41 00
          E 0 90 41 7f
          E 240 80 41 00
          E 0 90 41 7f
          E 240 80 41 00
          E 720 90 41 7f
          E 240 80 41 00
          E 0 90 41 7f
          E 240 80 41 00
          E 0 90 41 7f
          E 240 80 41 00
          E 720 90 41 7f
          E 240 80 41 00
          E 0 90 41 7f
          E 240 80 41 00
          E 0 90 41 7f
          E 240 80 41 00
          E 360 90 35 7f
          E 120 80 35 00
          E 0 90 41 7f
          E 0 90 35 7f
          E 120 80 35 00
          E 120 80 41 00
          E 120 90 35 7f
          E 120 80 35 00
          E 0 90 35 7f
          E 120 80 35 00
          E 240 90 35 7f
          E 120 80 35 00
          E 0 90 35 7f
          E 120 80 35 00
          E 240 90 35 7f
          E 120 80 35 00
          E 0 90 35 7f
          E 120 80 35 00
          E 240 90 35 7f
          E 120 80 35 00
          E 0 90 35 7f
          E 120 80 35 00
          E 240 90 35 7f
          E 120 80 35 00
          E 0 90 35 7f
          E 120 80 35 00
          E 240 90 35 7f
          E 120 80 35 00
          E 0 90 35 7f
          E 120 80 35 00
          E 240 90 35 7f
          E 120 80 35 00
          E 0 90 35 7f
          E 120 80 35 00
          E 240 90 35 7f
          E 120 80 35 00
          E 0 90 35 7f
          E 120 80 35 00
          E 960 90 35 7f
          E 120 80 35 00
          E 0 90 35 7f
          E 120 80 35 00
          E 240 90 35 7f
          E 120 80 35 00
          E 0 90 35 7f
          E 120 80 35 00
          E 240 90 35 7f
          E 120 80 35 00
          E 0 90 35 7f
          E 120 80 35 00
          E 240 90 35 7f
          E 120 80 35 00
          E 0 90 35 7f
          E 120 80 35 00
          E 240 90 35 7f
          E 120 80 35 00
          E 0 90 35 7f
          E 120 80 35 00
          E 240 90 35 7f
          E 120 80 35 00
          E 0 90 35 7f
          E 120 80 35 00
          E 240 90 35 7f
          E 120 80 35 00
          E 0 90 35 7f
          E 120 80 35 00
          E 0 90 41 7f
          E 240 90 35 7f
          E 120 80 35 00
          E 0 90 35 7f
          E 120 80 35 00
          E 240 90 35 7f
          E 120 80 35 00
          E 0 90 35 7f
          E 120 80 41 00
          E 0 80 35 00
          E 2760 90 33 7f
          E 120 80 33 00
          E 120 90 33 7f
          E 120 80 33 00
          E 120 90 33 7f
          E 120 80 33 00
          E 120 90 35 7f
          E 0 90 33 7f
          E 120 80 35 00
          E 0 80 33 00
          E 120 90 33 7f
          E 120 80 33 00
          E 120 90 33 7f
          E 120 80 33 00
          E 120 90 33 7f
          E 120 80 33 00
          E 120 90 33 7f
          E 120 80 33 00
          E 120 90 33 7f
          E 120 80 33 00
          E 120 90 33 7f
          E 120 80 33 00
          E 0 90 35 7f
          E 120 80 35 00
          E 0 90 33 7f
          E 120 80 33 00
          E 120 90 33 7f
          E 120 80 33 00
          E 120 90 33 7f
          E 120 80 33 00
          E 120 90 33 7f
          E 120 80 33 00
          E 120 90 33 7f
          E 120 80 33 00
          E 120 90 33 7f
          E 120 80 33 00
          E 120 90 35 7f
          E 0 90 33 7f
          E 120 80 35 00
          E 0 80 33 00
          E 120 90 33 7f
          E 120 80 33 00
          E 120 90 33 7f
          E 120 80 33 00
          E 120 90 33 7f
          E 120 80 33 00
          E 120 90 33 7f
          E 120 80 33 00
          E 360 90 33 7f
          E 120 80 33 00
          E 0 90 35 7f
          E 120 80 35 00
          E 0 90 33 7f
          E 120 80 33 00
          E 120 90 33 7f
          E 120 80 33 00
          E 120 90 33 7f
          E 120 80 33 00
          E 120 90 33 7f
          E 120 80 33 00
          E 120 90 33 7f
          E 120 80 33 00
          E 120 90 33 7f
          E 120 80 33 00
          E 120 90 35 7f
          E 0 90 33 7f
          E 120 80 35 00
          E 0 80 33 00
          E 120 90 33 7f
          E 120 80 33 00
          E 120 90 33 7f
          E 120 80 33 00
          E 120 90 33 7f
          E 120 80 33 00
          E 120 90 33 7f
          E 120 80 33 00
          E 120 90 33 7f
          E 120 80 33 00
          E 120 90 33 7f
          E 120 80 33 00
          E 0 90 35 7f
          E 120 80 35 00
          E 0 90 33 7f
          E 120 80 33 00
          E 120 90 33 7f
          E 120 80 33 00
          E 120 90 33 7f
          E 120 80 33 00
          E 120 90 33 7f
          E 120 80 33 00
          E 960 90 3d 60
          E 240 80 3d 00
          E 1680 90 3d 60
          E 240 80 3d 00
          E 0 90 3d 60
          E 240 80 3d 00
          E 1680 90 3d 60
          E 240 80 3d 00
          E 0 90 3d 60
          E 240 80 3d 00
          E 1680 90 3d 60
          E 240 80 3d 00
          E 0 90 3d 60
          E 240 80 3d 00
          E 1680 90 3d 60
          E 240 80 3d 00
          E 120 90 3d 60
          E 240 80 3d 00
          E 1680 90 3d 60
          E 240 80 3d 00
          E 0 90 3d 60
          E 240 80 3d 00
          E 1680 90 3d 60
          E 240 80 3d 00
          E 0 90 3d 60
          E 240 80 3d 00
          E 1680 90 3d 60
          E 240 80 3d 00
          E 0 90 3d 60
          E 240 80 3d 00
          E 1680 90 3d 60
          E 120 90 3d 60
          E 120 80 3d 00
          E 120 80 3d 00
          E 1680 90 3d 60
          E 240 80 3d 00
          E 0 90 3d 60
          E 240 80 3d 00
          E 1680 90 3d 60
          E 240 80 3d 00
          E 0 90 3d 60
          E 240 80 3d 00
          E 1680 90 3d 60
          E 240 80 3d 00
          E 0 90 3d 60
          E 240 80 3d 00
          E 1680 90 3d 60
          E 240 80 3d 00
          E 0 90 3d 60
          E 240 80 3d 00
          E 1680 90 3d 60
          E 240 80 3d 00
          E 0 90 3d 60
          E 240 80 3d 00
          E 1680 90 3d 60
          E 240 80 3d 00
          E 0 90 3d 60
          E 240 80 3d 00
          E 1680 90 3d 60
          E 240 80 3d 00
          E 0 90 3d 60
          E 240 80 3d 00
          E 1680 90 3d 60
          E 240 80 3d 00
          E 120 90 3d 60
          E 240 80 3d 00
          E 1680 90 3d 60
          E 240 80 3d 00
          E 0 90 3d 60
          E 240 80 3d 00
          E 1680 90 3d 60
          E 240 80 3d 00
          E 0 90 3d 60
          E 240 80 3d 00
          E 1680 90 3d 60
          E 240 80 3d 00
          E 0 90 3d 60
          E 240 80 3d 00
          E 1680 90 3d 60
          E 120 90 3d 60
          E 120 80 3d 00
          E 120 80 3d 00
          E 1680 90 43 7f
          E 240 80 43 00
          E 0 90 43 7f
          E 240 80 43 00
          E 0 90 43 7f
          E 240 80 43 00
          E 480 90 43 7f
          E 240 80 43 00
          E 0 90 43 7f
          E 240 80 43 00
          E 0 90 43 7f
          E 240 80 43 00
          E 480 90 43 7f
          E 240 80 43 00
          E 0 90 43 7f
          E 240 80 43 00
          E 0 90 43 7f
          E 240 80 43 00
          E 720 90 43 7f
          E 240 80 43 00
          E 0 90 43 7f
          E 240 80 43 00
          E 0 90 43 7f
          E 240 80 43 00
          E 1320 90 3d 60
          E 240 80 3d 00
          E 0 90 3d 60
          E 240 80 3d 00
          E 120 90 43 7f
          E 240 80 43 00
          E 0 90 43 7f
          E 240 80 43 00
          E 0 90 43 7f
          E 240 80 43 00
          E 480 90 43 7f
          E 240 80 43 00
          E 0 90 43 7f
          E 120 90 3d 60
          E 120 80 43 00
          E 0 90 43 7f
          E 120 80 3d 00
          E 0 90 3d 60
          E 120 80 43 00
          E 120 80 3d 00
          E 600 90 43 7f
          E 240 80 43 00
          E 0 90 43 7f
          E 240 80 43 00
          E 0 90 43 7f
          E 240 80 43 00
          E 720 90 43 7f
          E 240 80 43 00
          E 0 90 43 7f
          E 240 80 43 00
          E 0 90 43 7f
          E 240 80 43 00
          E 960 90 43 7f
          E 240 80 43 00
          E 0 90 3d 60
          E 240 80 3d 00
          E 0 90 3d 60
          E 240 80 3d 00
          E 0 90 43 7f
          E 240 80 43 00
          E 0 90 43 7f
          E 240 80 43 00
          E 0 90 43 7f
          E 240 80 43 00
          E 720 90 43 7f
          E 240 80 43 00
          E 0 90 43 7f
          E 0 90 3d 60
          E 240 80 43 00
          E 0 80 3d 00
          E 0 90 43 7f
          E 0 90 3d 60
          E 240 80 43 00
          E 0 80 3d 00
          E 720 90 43 7f
          E 240 80 43 00
          E 0 90 43 7f
          E 240 80 43 00
          E 0 90 43 7f
          E 240 80 43 00
          E 240 90 3d 60
          E 240 80 3d 00
          E 0 90 43 7f
          E 0 90 3d 60
          E 240 80 43 00
          E 0 80 3d 00
          E 0 90 43 7f
          E 240 80 43 00
          E 0 90 43 7f
          E 240 80 43 00
          E 480 90 43 7f
          E 240 80 43 00
          E 0 90 43 7f
          E 240 80 43 00
          E 0 90 43 7f
          E 240 80 43 00
          E 720 90 43 7f
          E 240 80 43 00
          E 0 90 43 7f
          E 0 90 38 60
          E 240 80 43 00
          E 0 80 38 00
          E 0 90 43 7f
          E 240 80 43 00
          E 0 90 38 60
          E 240 80 38 00
          E 480 90 43 7f
          E 240 80 43 00
          E 0 90 43 7f
          E 240 80 43 00
          E 0 90 43 7f
          E 240 80 43 00
          E 240 90 38 60
          E 240 80 38 00
          E 0 90 43 7f
          E 240 80 43 00
          E 0 90 38 60
          E 240 80 38 00
          E 600 90 38 7f
          E 120 80 38 00
          E 720 90 38 60
          E 240 80 38 00
          E 240 90 38 60
          E 240 80 38 00
          E 720 90 38 7f
          E 240 80 38 00
          E 480 90 38 60
          E 240 80 38 00
          E 240 90 38 60
          E 240 80 38 00
          E 480 90 39 7f
          E 120 80 39 00
          E 0 90 48 60
          E 240 80 48 00
          E 720 90 38 60
          E 240 80 38 00
          E 120 90 43 7f
          E 120 90 38 60
          E 120 80 43 00
          E 0 90 33 60
          E 0 90 43 7f
          E 120 80 38 00
          E 120 80 33 00
          E 0 80 43 00
          E 0 90 35 60
          E 240 80 35 00
          E 480 90 38 60
          E 240 80 38 00
          E 240 90 38 60
          E 240 80 38 00
          E 1440 90 38 60
          E 240 80 38 00
          E 240 90 38 60
          E 240 80 38 00
          E 600 90 38 7f
          E 120 80 38 00
          E 720 90 38 60
          E 240 80 38 00
          E 240 90 45 7f
          E 0 90 38 60
          E 240 80 45 00
          E 0 80 38 00
          E 720 90 38 7f
          E 240 80 38 00
          E 480 90 38 60
          E 240 80 38 00
          E 240 90 38 60
          E 240 80 38 00
          E 480 90 39 7f
          E 120 80 39 00
          E 240 90 3b 60
          E 240 80 3b 00
          E 480 90 38 60
          E 240 80 38 00
          E 120 90 3b 60
          E 120 90 38 60
          E 120 80 3b 00
          E 120 80 38 00
          E 120 90 3b 60
          E 240 80 3b 00
          E 120 90 45 7f
          E 360 80 45 00
          E 960 90 3b 60
          E 240 80 3b 00
          E 240 90 3b 60
          E 240 80 3b 00
          E 600 90 3b 7f
          E 120 80 3b 00
          E 720 90 3b 60
          E 240 80 3b 00
          E 240 90 3b 60
          E 240 80 3b 00
          E 720 90 3b 7f
          E 240 80 3b 00
          E 480 90 3b 60
          E 240 80 3b 00
          E 240 90 3b 60
          E 240 80 3b 00
          E 480 90 3c 7f
          E 120 80 3c 00
          E 960 90 3b 60
          E 240 80 3b 00
          E 240 90 3b 60
          E 120 90 43 7f
          E 120 80 3b 00
          E 120 80 43 00
          E 0 90 43 7f
          E 240 80 43 00
          E 240 90 3b 60
          E 240 80 3b 00
          E 480 90 43 7f
          E 240 80 43 00
          E 0 90 43 7f
          E 120 90 4a 7f
          E 120 80 43 00
          E 0 90 43 7f
          E 120 80 4a 00
          E 120 80 43 00
          E 480 90 43 7f
          E 240 80 43 00
          E 0 90 3b 60
          E 0 90 43 7f
          E 240 80 3b 00
          E 0 80 43 00
          E 0 90 43 7f
          E 240 80 43 00
          E 480 90 43 7f
          E 120 90 3f 7f
          E 120 80 43 00
          E 0 90 43 7f
          E 120 80 3f 00
          E 120 80 43 00
          E 0 90 43 7f
          E 240 80 43 00
          E 480 90 3b 60
          E 240 80 3b 00
          E 0 90 43 7f
          E 240 80 43 00
          E 0 90 43 7f
          E 240 80 43 00
          E 0 90 43 7f
          E 240 80 43 00
          E 360 90 3b 7f
          E 240 80 3b 00
          E 120 90 43 7f
          E 240 80 43 00
          E 0 90 43 7f
          E 240 80 43 00
          E 120 90 35 7f
          E 120 80 35 00
          E 0 90 35 7f
          E 120 80 35 00
          E 240 90 35 7f
          E 120 80 35 00
          E 0 90 35 7f
          E 120 80 35 00
          E 240 90 35 7f
          E 120 80 35 00
          E 0 90 35 7f
          E 120 80 35 00
          E 240 90 35 7f
          E 120 80 35 00
          E 0 90 35 7f
          E 120 80 35 00
          E 240 90 35 7f
          E 120 80 35 00
          E 0 90 37 7f
          E 0 90 35 7f
          E 120 80 37 00
          E 0 80 35 00
          E 120 90 37 7f
          E 120 80 37 00
          E 0 90 35 7f
          E 120 80 35 00
          E 0 90 37 7f
          E 0 90 35 7f
          E 120 80 37 00
          E 0 80 35 00
          E 120 90 37 7f
          E 120 80 37 00
          E 0 90 35 7f
          E 120 80 35 00
          E 0 90 37 7f
          E 0 90 35 7f
          E 120 80 37 00
          E 0 80 35 00
          E 120 90 37 7f
          E 120 80 37 00
          E 0 90 35 7f
          E 120 80 35 00
          E 0 90 37 7f
          E 0 90 35 7f
          E 120 80 37 00
          E 0 80 35 00
          E 120 90 37 7f
          E 120 80 37 00
          E 0 90 35 7f
          E 120 80 35 00
          E 0 90 37 7f
          E 0 90 35 7f
          E 120 80 37 00
          E 0 80 35 00
          E 120 90 37 7f
          E 120 80 37 00
          E 0 90 35 7f
          E 120 80 35 00
          E 0 90 37 7f
          E 0 90 35 7f
          E 120 80 37 00
          E 0 80 35 00
          E 120 90 37 7f
          E 120 80 37 00
          E 0 90 35 7f
          E 120 80 35 00
          E 0 90 37 7f
          E 0 90 35 7f
          E 120 80 37 00
          E 0 80 35 00
          E 120 90 37 7f
          E 120 80 37 00
          E 0 90 35 7f
          E 120 80 35 00
          E 0 90 37 7f
          E 0 90 35 7f
          E 120 80 37 00
          E 0 80 35 00
          E 120 90 37 7f
          E 120 80 37 00
          E 0 90 35 7f
          E 120 80 35 00
          E 0 90 37 7f
          E 0 90 35 7f
          E 120 80 37 00
          E 0 80 35 00
          E 120 90 37 7f
          E 120 80 37 00
          E 0 90 35 7f
          E 120 80 35 00
          E 0 90 37 7f
          E 0 90 35 7f
          E 120 80 37 00
          E 0 80 35 00
          E 120 90 37 7f
          E 120 80 37 00
          E 0 90 35 7f
          E 120 80 35 00
          E 0 90 37 7f
          E 0 90 35 7f
          E 120 80 37 00
          E 0 80 35 00
          E 0 90 36 7f
          E 120 90 37 7f
          E 120 80 36 00
          E 0 80 37 00
          E 0 90 35 7f
          E 120 80 35 00
          E 0 90 37 7f
          E 0 90 35 7f
          E 120 80 37 00
          E 0 80 35 00
          E 0 90 36 7f
          E 120 90 37 7f
          E 120 80 36 00
          E 0 80 37 00
          E 0 90 35 7f
          E 120 80 35 00
          E 0 90 35 7f
          E 120 80 35 00
          E 0 90 36 7f
          E 240 80 36 00
          E 0 90 35 7f
          E 120 80 35 00
          E 0 90 35 7f
          E 120 80 35 00
          E 0 90 36 7f
          E 240 80 36 00
          E 0 90 35 7f
          E 0 90 37 7f
          E 120 80 35 00
          E 0 80 37 00
          E 0 90 35 7f
          E 120 80 35 00
          E 0 90 37 7f
          E 120 80 37 00
          E 120 90 35 7f
          E 0 90 37 7f
          E 120 80 35 00
          E 0 80 37 00
          E 0 90 35 7f
          E 120 80 35 00
          E 0 90 37 7f
          E 120 80 37 00
          E 120 90 35 7f
          E 0 90 37 7f
          E 120 80 35 00
          E 0 80 37 00
          E 0 90 35 7f
          E 120 80 35 00
          E 0 90 37 7f
          E 120 80 37 00
          E 120 90 37 7f
          E 0 90 35 7f
          E 120 80 37 00
          E 0 80 35 00
          E 0 90 35 7f
          E 120 80 35 00
          E 0 90 36 7f
          E 0 90 37 7f
          E 120 80 37 00
          E 120 80 36 00
          E 0 90 37 7f
          E 0 90 35 7f
          E 120 80 37 00
          E 0 80 35 00
          E 0 90 35 7f
          E 120 80 35 00
          E 0 90 36 7f
          E 120 90 37 7f
          E 120 80 36 00
          E 0 80 37 00
          E 0 90 35 7f
          E 120 80 35 00
          E 0 90 35 7f
          E 120 80 35 00
          E 0 90 36 7f
          E 120 90 37 7f
          E 120 80 36 00
          E 0 80 37 00
          E 0 90 35 7f
          E 120 80 35 00
          E 0 90 35 7f
          E 120 80 35 00
          E 0 90 36 7f
          E 0 90 35 7f
          E 120 80 35 00
          E 0 90 35 7f
          E 120 80 36 00
          E 0 80 35 00
          E 0 90 37 7f
          E 0 90 35 7f
          E 120 80 37 00
          E 0 80 35 00
          E 0 90 35 7f
          E 120 80 35 00
          E 0 90 35 7f
          E 0 90 37 7f
          E 120 80 35 00
          E 0 80 37 00
          E 0 90 35 7f
          E 120 80 35 00
          E 0 90 35 7f
          E 0 90 37 7f
          E 0 90 36 7f
          E 120 80 35 00
          E 0 80 37 00
          E 0 80 36 00
          E 0 90 35 7f
          E 120 80 35 00
          E 0 90 35 7f
          E 0 90 37 7f
          E 120 80 35 00
          E 0 80 37 00
          E 0 90 35 7f
          E 120 80 35 00
          E 0 90 37 7f
          E 0 90 35 7f
          E 120 80 37 00
          E 0 80 35 00
          E 0 90 35 7f
          E 120 80 35 00
          E 0 90 37 7f
          E 0 90 35 7f
          E 120 80 37 00
          E 0 80 35 00
          E 0 90 35 7f
          E 120 80 35 00
          E 0 90 37 7f
          E 0 90 35 7f
          E 120 80 37 00
          E 0 80 35 00
          E 0 90 35 7f
          E 120 80 35 00
          E 0 90 37 7f
          E 0 90 35 7f
          E 0 90 36 7f
          E 120 80 37 00
          E 0 80 35 00
          E 0 80 36 00
          E 0 90 35 7f
          E 120 80 35 00
          E 0 90 37 7f
          E 120 80 37 00
          E 120 90 37 7f
          E 120 80 37 00
          E 120 90 37 7f
          E 0 90 36 7f
          E 120 80 37 00
          E 0 80 36 00
          E 120 90 37 7f
          E 120 80 37 00
          E 120 90 37 7f
          E 0 90 35 7f
          E 120 80 37 00
          E 0 80 35 00
          E 120 90 37 7f
          E 0 90 35 7f
          E 120 80 37 00
          E 0 80 35 00
          E 120 90 37 7f
          E 0 90 35 7f
          E 120 80 37 00
          E 0 80 35 00
          E 120 90 37 7f
          E 0 90 36 7f
          E 120 80 37 00
          E 0 80 36 00
          E 240 90 36 7f
          E 120 80 36 00
          E 0 90 37 7f
          E 0 90 36 7f
          E 120 80 37 00
          E 0 80 36 00
          E 0 90 36 7f
          E 120 80 36 00
          E 0 90 37 7f
          E 0 90 36 7f
          E 120 80 37 00
          E 0 80 36 00
          E 0 90 36 7f
          E 120 80 36 00
          E 0 90 37 7f
          E 0 90 36 7f
          E 120 80 37 00
          E 0 80 36 00
          E 0 90 35 7f
          E 0 90 36 7f
          E 120 80 35 00
          E 0 80 36 00
          E 0 90 38 7f
          E 0 90 37 7f
          E 0 90 36 7f
          E 120 80 38 00
          E 0 80 37 00
          E 0 80 36 00
          E 0 90 35 7f
          E 0 90 36 7f
          E 120 80 35 00
          E 0 80 36 00
          E 0 90 38 7f
          E 0 90 37 7f
          E 0 90 35 7f
          E 0 90 36 7f
          E 120 80 37 00
          E 0 80 35 00
          E 0 80 36 00
          E 0 90 36 7f
          E 120 80 38 00
          E 0 80 36 00
          E 0 90 37 7f
          E 0 90 35 7f
          E 0 90 36 7f
          E 120 80 37 00
          E 0 80 35 00
          E 0 80 36 00
          E 0 90 35 7f
          E 0 90 36 7f
          E 120 80 35 00
          E 0 80 36 00
          E 0 90 38 7f
          E 0 90 37 7f
          E 0 90 36 7f
          E 120 80 38 00
          E 0 80 37 00
          E 0 80 36 00
          E 0 90 36 7f
          E 120 80 36 00
          E 0 90 38 7f
          E 0 90 37 7f
          E 0 90 35 7f
          E 0 90 36 7f
          E 120 80 38 00
          E 0 80 37 00
          E 0 80 35 00
          E 0 80 36 00
          E 0 90 35 7f
          E 0 90 36 7f
          E 120 80 35 00
          E 0 80 36 00
          E 0 90 37 7f
          E 0 90 36 7f
          E 120 80 37 00
          E 0 80 36 00
          E 0 90 36 7f
          E 120 80 36 00
          E 0 90 35 7f
          E 0 90 37 7f
          E 0 90 36 7f
          E 120 80 35 00
          E 0 80 37 00
          E 0 80 36 00
          E 0 90 35 7f
          E 120 80 35 00
          E 0 90 38 7f
          E 0 90 37 7f
          E 120 80 38 00
          E 0 80 37 00
          E 120 90 38 7f
          E 0 90 35 7f
          E 0 90 37 7f
          E 120 80 38 00
          E 0 80 35 00
          E 0 80 37 00
          E 0 90 35 7f
          E 120 80 35 00
          E 0 90 37 7f
          E 120 80 37 00
          E 120 90 35 7f
          E 0 90 37 7f
          E 120 80 35 00
          E 0 80 37 00
          E 0 90 35 7f
          E 120 80 35 00
          E 0 90 38 7f
          E 120 80 38 00
          E 120 90 35 7f
          E 120 80 35 00
          E 0 90 35 7f
          E 120 80 35 00
          E 0 90 38 7f
          E 120 80 38 00
          E 120 90 35 7f
          E 120 80 35 00
          E 0 90 35 7f
          E 120 80 35 00
          E 0 90 35 7f
          E 120 80 35 00
          E 0 90 35 7f
          E 120 80 35 00
          E 0 90 38 7f
          E 0 90 35 7f
          E 120 80 38 00
          E 0 80 35 00
          E 0 90 35 7f
          E 120 80 35 00
          E 0 90 35 7f
          E 120 80 35 00
          E 0 90 35 7f
          E 120 80 35 00
          E 0 90 35 7f
          E 120 80 35 00
          E 0 90 35 7f
          E 120 80 35 00
          E 0 90 35 7f
          E 120 80 35 00
          E 0 90 35 7f
          E 120 80 35 00
          E 0 90 35 7f
          E 120 80 35 00
          E 0 90 35 7f
          E 120 80 35 00
          E 0 90 35 7f
          E 120 80 35 00
          E 0 90 35 7f
          E 120 80 35 00
          E 120 90 38 7f
          E 120 80 38 00
          E 0 90 38 7f
          E 120 80 38 00
          E 0 90 36 7f
          E 120 80 36 00
          E 0 90 38 7f
          E 120 80 38 00
          E 0 90 35 7f
          E 120 80 35 00
          E 0 90 35 7f
          E 0 90 38 7f
          E 120 80 35 00
          E 0 80 38 00
          E 0 90 35 7f
          E 120 80 35 00
          E 0 90 35 7f
          E 0 90 38 7f
          E 120 80 35 00
          E 0 80 38 00
          E 0 90 35 7f
          E 120 80 35 00
          E 0 90 35 7f
          E 0 90 38 7f
          E 120 80 35 00
          E 0 80 38 00
          E 0 90 35 7f
          E 0 90 36 7f
          E 120 80 35 00
          E 0 80 36 00
          E 0 90 35 7f
          E 0 90 36 7f
          E 0 90 38 7f
          E 120 80 35 00
          E 0 80 36 00
          E 0 80 38 00
          E 0 90 35 7f
          E 0 90 36 7f
          E 120 80 35 00
          E 0 80 36 00
          E 0 90 35 7f
          E 0 90 36 7f
          E 0 90 38 7f
          E 120 80 35 00
          E 0 80 36 00
          E 0 80 38 00
          E 0 90 36 7f
          E 120 80 36 00
          E 0 90 36 7f
          E 0 90 38 7f
          E 120 80 36 00
          E 0 80 38 00
          E 0 90 36 7f
          E 120 80 36 00
          E 0 90 36 7f
          E 0 90 38 7f
          E 120 80 36 00
          E 0 80 38 00
          E 0 90 36 7f
          E 120 80 36 00
          E 0 90 36 7f
          E 0 90 38 7f
          E 120 80 36 00
          E 0 80 38 00
          E 600 90 37 7f
          E 120 80 37 00
          E 120 90 35 7f
          E 0 90 37 7f
          E 120 80 35 00
          E 0 80 37 00
          E 120 90 37 7f
          E 120 80 37 00
          E 120 90 37 7f
          E 120 80 37 00
          E 120 90 37 7f
          E 120 80 37 00
          E 120 90 37 7f
          E 120 80 37 00
          E 120 90 37 7f
          E 120 80 37 00
          E 120 90 35 7f
          E 0 90 37 7f
          E 120 80 35 00
          E 0 80 37 00
          E 120 90 37 7f
          E 120 80 37 00
          E 120 90 37 7f
          E 120 80 37 00
          E 120 90 37 7f
          E 120 80 37 00
          E 120 90 37 7f
          E 120 80 37 00
          E 120 90 37 7f
          E 120 80 37 00
          E 120 90 37 7f
          E 120 80 37 00
          E 0 90 35 7f
          E 120 80 35 00
          E 0 90 37 7f
          E 120 80 37 00
          E 120 90 37 7f
          E 120 80 37 00
          E 120 90 37 7f
          E 120 80 37 00
          E 120 90 37 7f
          E 120 80 37 00
          E 120 90 37 7f
          E 120 80 37 00
          E 120 90 37 7f
          E 120 80 37 00
          E 120 90 35 7f
          E 0 90 37 7f
          E 120 80 35 00
          E 0 80 37 00
          E 120 90 37 7f
          E 120 80 37 00
          E 120 90 37 7f
          E 120 80 37 00
          E 120 90 37 7f
          E 120 80 37 00
          E 360 90 37 7f
          E 120 80 37 00
          E 120 90 37 7f
          E 120 80 37 00
          E 0 90 35 7f
          E 120 80 35 00
          E 0 90 37 7f
          E 120 80 37 00
          E 120 90 37 7f
          E 120 80 37 00
          E 120 90 37 7f
          E 120 80 37 00
          E 120 90 37 7f
          E 120 80 37 00
          E 120 90 37 7f
          E 120 80 37 00
          E 120 90 37 7f
          E 120 80 37 00
          E 120 90 35 7f
          E 0 90 37 7f
          E 120 80 35 00
          E 0 80 37 00
          E 120 90 37 7f
          E 120 80 37 00
          E 120 90 37 7f
          E 120 80 37 00
          E 120 90 37 7f
          E 120 80 37 00
          E 120 90 37 7f
          E 120 80 37 00
          E 840 90 35 7f
          E 0 90 36 7f
          E 120 80 35 00
          E 0 80 36 00
          E 0 90 35 7f
          E 0 90 36 7f
          E 0 90 38 7f
          E 120 80 35 00
          E 0 80 36 00
          E 0 80 38 00
          E 0 90 35 7f
          E 0 90 36 7f
          E 120 80 35 00
          E 0 80 36 00
          E 0 90 35 7f
          E 0 90 36 7f
          E 0 90 38 7f
          E 120 80 35 00
          E 0 80 36 00
          E 0 80 38 00
          E 0 90 36 7f
          E 120 80 36 00
          E 0 90 36 7f
          E 0 90 38 7f
          E 120 80 36 00
          E 0 80 38 00
          E 0 90 36 7f
          E 120 80 36 00
          E 0 90 36 7f
          E 0 90 38 7f
          E 120 80 36 00
          E 0 80 38 00
          E 0 90 36 7f
          E 120 80 36 00
          E 0 90 36 7f
          E 0 90 38 7f
          E 120 80 36 00
          E 0 80 38 00
          E 600 90 37 7f
          E 120 80 37 00
          E 120 90 35 7f
          E 0 90 37 7f
          E 120 80 35 00
          E 0 80 37 00
          E 120 90 37 7f
          E 120 80 37 00
          E 120 90 37 7f
          E 120 80 37 00
          E 120 90 37 7f
          E 120 80 37 00
          E 120 90 37 7f
          E 120 80 37 00
          E 120 90 37 7f
          E 120 80 37 00
          E 120 90 35 7f
          E 0 90 37 7f
          E 120 80 35 00
          E 0 80 37 00
          E 120 90 37 7f
          E 120 80 37 00
          E 120 90 37 7f
          E 120 80 37 00
          E 120 90 37 7f
          E 120 80 37 00
          E 120 90 37 7f
          E 120 80 37 00
          E 120 90 37 7f
          E 120 80 37 00
          E 120 90 37 7f
          E 120 80 37 00
          E 0 90 35 7f
          E 120 80 35 00
          E 0 90 37 7f
          E 120 80 37 00
          E 120 90 37 7f
          E 120 80 37 00
          E 120 90 37 7f
          E 120 80 37 00
          E 120 90 37 7f
          E 120 80 37 00
          E 120 90 37 7f
          E 120 80 37 00
          E 120 90 37 7f
          E 120 80 37 00
          E 120 90 35 7f
          E 0 90 37 7f
          E 120 80 35 00
          E 0 80 37 00
          E 120 90 37 7f
          E 120 80 37 00
          E 120 90 37 7f
          E 120 80 37 00
          E 120 90 37 7f
          E 120 80 37 00
          E 360 90 37 7f
          E 120 80 37 00
          E 120 90 37 7f
          E 120 80 37 00
          E 0 90 35 7f
          E 120 80 35 00
          E 0 90 37 7f
          E 120 80 37 00
          E 120 90 37 7f
          E 120 80 37 00
          E 120 90 37 7f
          E 120 80 37 00
          E 120 90 37 7f
          E 120 80 37 00
          E 120 90 37 7f
          E 120 80 37 00
          E 120 90 37 7f
          E 120 80 37 00
          E 120 90 35 7f
          E 0 90 37 7f
          E 120 80 35 00
          E 0 80 37 00
          E 720 90 3a 7f
          E 120 80 3a 00
          E 120 90 3a 7f
          E 120 80 3a 00
          E 120 90 3a 7f
          E 120 80 3a 00
          E 120 90 3a 7f
          E 120 80 3a 00
          E 120 90 3a 7f
          E 120 80 3a 00
          E 0 90 3a 7f
          E 120 90 3a 7f
          E 120 80 3a 00
          E 0 80 3a 00
          E 120 90 3a 7f
          E 120 80 3a 00
          E 360 90 3a 7f
          E 120 80 3a 00
          E 120 90 3a 7f
          E 120 80 3a 00
          E 120 90 3a 7f
          E 120 80 3a 00
          E 120 90 3a 7f
          E 120 80 3a 00
          E 120 90 3a 7f
          E 120 80 3a 00
          E 120 90 3a 7f
          E 120 80 3a 00
          E 120 90 3a 7f
          E 120 80 3a 00
          E 120 90 3a 7f
          E 120 80 3a 00
          E 120 90 3a 7f
          E 120 80 3a 00
          E 240 90 43 7f
          E 240 80 43 00
          E 0 90 43 7f
          E 240 80 43 00
          E 960 90 43 7f
          E 240 80 43 00
          E 0 90 43 7f
          E 240 80 43 00
          E 0 90 43 7f
          E 240 80 43 00
          E 480 90 43 7f
          E 240 80 43 00
          E 0 90 43 7f
          E 240 80 43 00
          E 0 90 43 7f
          E 240 80 43 00
          E 480 90 43 7f
          E 240 80 43 00
          E 0 90 43 7f
          E 240 80 43 00
          E 0 90 43 7f
          E 240 80 43 00
          E 720 90 43 7f
          E 240 80 43 00
          E 0 90 43 7f
          E 240 80 43 00
          E 0 90 43 7f
          E 240 80 43 00
          E 720 90 43 7f
          E 240 80 43 00
          E 0 90 43 7f
          E 120 90 38 60
          E 120 80 43 00
          E 120 80 38 00
          E 240 90 38 60
          E 240 80 38 00
          E 1440 90 38 60
          E 240 80 38 00
          E 240 90 38 60
          E 240 80 38 00
          E 600 90 38 7f
          E 120 80 38 00
          E 720 90 38 60
          E 240 80 38 00
          E 0 90 45 7f
          E 240 90 38 60
          E 240 80 38 00
          E 720 90 38 7f
          E 240 80 38 00
          E 480 90 38 60
          E 240 80 38 00
          E 240 90 38 60
          E 240 80 38 00
          E 480 90 39 7f
          E 120 80 39 00
          E 960 90 38 60
          E 240 80 38 00
          E 240 90 38 60
          E 240 80 38 00
          E 840 90 38 60
          E 240 80 38 00
          E 240 90 38 60
          E 240 80 38 00
          E 1080 90 38 60
          E 360 90 38 60
          E 120 80 38 00
          E 120 80 38 00
          E 240 90 38 60
          E 120 90 38 60
          E 120 80 38 00
          E 360 80 38 00
          E 240 90 38 7f
          E 120 80 38 00
          E 120 90 38 60
          E 480 80 38 00
          E 120 90 38 60
          E 240 80 38 00
          E 120 90 38 60
          E 120 90 38 60
          E 240 80 38 00
          E 120 80 38 00
          E 480 90 38 60
          E 120 90 38 7f
          E 240 80 38 00
          E 120 80 38 00
          E 360 90 38 60
          E 120 90 38 60
          E 120 80 38 00
          E 240 90 38 60
          E 120 80 38 00
          E 120 80 38 00
          E 360 90 38 60
          E 480 80 38 00
          E 480 90 38 60
          E 240 90 38 60
          E 240 80 38 00
          E 0 80 38 00
          E 240 90 38 60
          E 240 80 45 00
          E 0 80 38 00
          E 11640 90 37 7f
          E 120 80 37 00
          E 0 90 37 7f
          E 120 80 37 00
          E 240 90 37 7f
          E 120 80 37 00
          E 0 90 37 7f
          E 120 80 37 00
          E 360 90 37 7f
          E 120 80 37 00
          E 0 90 3a 7f
          E 120 80 3a 00
          E 0 90 3a 7f
          E 120 80 3a 00
          E 0 90 37 7f
          E 120 80 37 00
          E 0 90 37 7f
          E 120 80 37 00
          E 120 90 3a 7f
          E 120 80 3a 00
          E 0 90 37 7f
          E 120 80 37 00
          E 0 90 37 7f
          E 120 80 37 00
          E 0 90 3a 7f
          E 120 80 3a 00
          E 0 90 3a 7f
          E 120 80 3a 00
          E 0 90 37 7f
          E 120 80 37 00
          E 240 90 3a 7f
          E 120 80 3a 00
          E 0 90 37 7f
          E 120 80 37 00
          E 240 90 3a 7f
          E 120 80 3a 00
          E 0 90 37 7f
          E 120 80 37 00
          E 0 90 37 7f
          E 120 80 37 00
          E 120 90 3a 7f
          E 120 80 3a 00
          E 120 90 37 7f
          E 120 80 37 00
          E 240 90 37 7f
          E 120 80 37 00
          E 0 90 37 7f
          E 120 80 37 00
          E 0 90 3a 7f
          E 120 80 3a 00
          E 0 90 3a 7f
          E 120 80 3a 00
          E 0 90 37 7f
          E 120 80 37 00
          E 0 90 37 7f
          E 120 80 37 00
          E 240 90 37 7f
          E 120 80 37 00
          E 0 90 37 7f
          E 120 80 37 00
          E 240 90 37 7f
          E 120 80 37 00
          E 0 90 3c 7f
          E 120 80 3c 00
          E 0 90 3c 7f
          E 120 80 3c 00
          E 360 90 3c 7f
          E 120 80 3c 00
          E 240 90 3c 7f
          E 120 80 3c 00
          E 0 90 3c 7f
          E 120 80 3c 00
          E 360 90 3c 7f
          E 120 80 3c 00
          E 360 90 3c 7f
          E 120 80 3c 00
          E 360 90 3c 7f
          E 120 80 3c 00
          E 240 90 3c 7f
          E 120 80 3c 00
          E 0 90 3c 7f
          E 120 80 3c 00
          E 360 90 3c 7f
          E 120 80 3c 00
          E 240 90 3c 7f
          E 120 80 3c 00
          E 0 90 3c 7f
          E 120 80 3c 00
          E 360 90 3c 7f
          E 120 80 3c 00
          E 360 90 3c 7f
          E 120 80 3c 00
          E 360 90 3c 7f
          E 120 80 3c 00
          E 360 90 3c 7f
          E 120 80 3c 00
          E 0 90 3c 7f
          E 120 80 3c 00
          E 360 90 3c 7f
          E 120 80 3c 00
          E 240 90 3c 7f
          E 120 80 3c 00
          E 0 90 3c 7f
          E 120 80 3c 00
          E 360 90 3c 7f
          E 120 80 3c 00
          E 360 90 3c 7f
          E 120 80 3c 00
          E 360 90 3c 7f
          E 120 80 3c 00
          E 240 90 3c 7f
          E 120 80 3c 00
          E 0 90 3c 7f
          E 120 80 3c 00
          E 360 90 3c 7f
          E 120 80 3c 00
          E 240 90 3c 7f
          E 120 80 3c 00
          E 0 90 3c 7f
          E 120 80 3c 00
          E 360 90 3c 7f
          E 120 80 3c 00
          E 360 90 3c 7f
          E 120 80 3c 00
          E 360 90 3c 7f
          E 120 80 3c 00
          E 360 90 3a 7f
          E 120 80 3a 00
          E 120 90 3a 7f
          E 120 80 3a 00
          E 360 90 3a 7f
          E 120 80 3a 00
          E 0 90 3a 7f
          E 120 80 3a 00
          E 0 90 3a 7f
          E 120 80 3a 00
          E 0 90 3a 7f
          E 120 80 3a 00
          E 0 90 3a 7f
          E 120 80 3a 00
          E 0 90 3a 7f
          E 120 80 3a 00
          E 0 90 3a 7f
          E 0 90 3d 7f
          E 120 80 3a 00
          E 0 80 3d 00
          E 120 90 3d 7f
          E 120 80 3d 00
          E 120 90 3d 7f
          E 120 80 3d 00
          E 120 90 3d 7f
          E 120 80 3d 00
          E 120 90 3d 7f
          E 120 80 3d 00
          E 120 90 3d 7f
          E 120 80 3d 00
          E 120 90 3d 7f
          E 120 80 3d 00
          E 120 90 3d 7f
          E 120 80 3d 00
          E 120 90 39 7f
          E 120 80 39 00
          E 0 90 39 7f
          E 120 80 39 00
          E 240 90 39 7f
          E 120 80 39 00
          E 0 90 39 7f
          E 120 80 39 00
          E 240 90 39 7f
          E 120 80 39 00
          E 0 90 39 7f
          E 120 80 39 00
          E 240 90 39 7f
          E 120 80 39 00
          E 0 90 39 7f
          E 120 80 39 00
          E 240 90 39 7f
          E 120 80 39 00
          E 0 90 39 7f
          E 120 80 39 00
          E 360 90 3b 7f
          E 120 80 3b 00
          E 120 90 3b 7f
          E 120 80 3b 00
          E 120 90 3b 7f
          E 120 80 3b 00
          E 120 90 3b 7f
          E 120 80 3b 00
          E 120 90 3b 7f
          E 120 80 3b 00
          E 120 90 3b 7f
          E 120 80 3b 00
          E 120 90 3b 7f
          E 120 80 3b 00
          E 120 90 3b 7f
          E 120 80 3b 00
          E 120 90 3b 7f
          E 120 80 3b 00
          E 120 90 3b 7f
          E 120 80 3b 00
          E 120 90 3b 7f
          E 120 80 3b 00
          E 120 90 3b 7f
          E 120 80 3b 00
          E 120 90 3b 7f
          E 120 80 3b 00
          E 120 90 3b 7f
          E 120 80 3b 00
          E 120 90 3b 7f
          E 120 80 3b 00
          E 120 90 3b 7f
          E 120 80 3b 00
          E 120 90 3b 7f
          E 120 80 3b 00
          E 120 90 3b 7f
          E 120 80 3b 00
          E 120 90 3b 7f
          E 120 80 3b 00
          E 120 90 3b 7f
          E 120 80 3b 00
          E 120 90 3b 7f
          E 120 80 3b 00
          E 120 90 3b 7f
          E 120 80 3b 00
          E 120 90 3b 7f
          E 0 90 39 7f
          E 120 80 3b 00
          E 0 80 39 00
          E 120 90 3b 7f
          E 120 80 3b 00
          E 0 90 39 7f
          E 120 80 39 00
          E 0 90 39 7f
          E 120 80 39 00
          E 240 90 39 7f
          E 120 80 39 00
          E 0 90 39 7f
          E 120 80 39 00
          E 240 90 39 7f
          E 0 90 3b 7f
          E 120 80 39 00
          E 0 80 3b 00
          E 0 90 39 7f
          E 120 80 39 00
          E 0 90 3b 7f
          E 120 80 3b 00
          E 120 90 39 7f
          E 0 90 3b 7f
          E 120 80 39 00
          E 0 80 3b 00
          E 0 90 39 7f
          E 120 80 39 00
          E 0 90 3b 7f
          E 120 80 3b 00
          E 120 90 39 7f
          E 0 90 3b 7f
          E 120 80 39 00
          E 0 80 3b 00
          E 0 90 39 7f
          E 120 80 39 00
          E 0 90 3b 7f
          E 120 80 3b 00
          E 120 90 3b 7f
          E 0 90 39 7f
          E 120 80 3b 00
          E 0 80 39 00
          E 0 90 39 7f
          E 120 80 39 00
          E 0 90 3b 7f
          E 120 80 3b 00
          E 120 90 3b 7f
          E 0 90 39 7f
          E 120 80 3b 00
          E 0 80 39 00
          E 0 90 39 7f
          E 120 80 39 00
          E 120 90 3b 7f
          E 120 80 3b 00
          E 0 90 39 7f
          E 120 80 39 00
          E 0 90 39 7f
          E 120 80 39 00
          E 120 90 3b 7f
          E 120 80 3b 00
          E 0 90 39 7f
          E 120 80 39 00
          E 0 90 39 7f
          E 120 80 39 00
          E 0 90 39 7f
          E 120 80 39 00
          E 0 90 39 7f
          E 120 80 39 00
          E 0 90 3b 7f
          E 0 90 39 7f
          E 120 80 3b 00
          E 0 80 39 00
          E 0 90 39 7f
          E 120 80 39 00
          E 0 90 39 7f
          E 0 90 3b 7f
          E 120 80 39 00
          E 0 80 3b 00
          E 0 90 39 7f
          E 120 80 39 00
          E 0 90 39 7f
          E 0 90 3b 7f
          E 120 80 39 00
          E 0 80 3b 00
          E 0 90 39 7f
          E 120 80 39 00
          E 0 90 39 7f
          E 0 90 3b 7f
          E 120 80 39 00
          E 0 80 3b 00
          E 0 90 39 7f
          E 120 80 39 00
          E 0 90 3b 7f
          E 0 90 39 7f
          E 120 80 3b 00
          E 0 80 39 00
          E 0 90 39 7f
          E 120 80 39 00
          E 0 90 3b 7f
          E 0 90 39 7f
          E 120 80 3b 00
          E 0 80 39 00
          E 0 90 39 7f
          E 120 80 39 00
          E 0 90 3b 7f
          E 0 90 39 7f
          E 120 80 3b 00
          E 0 80 39 00
          E 0 90 39 7f
          E 120 80 39 00
          E 0 90 3b 7f
          E 0 90 39 7f
          E 120 80 3b 00
          E 0 80 39 00
          E 0 90 39 7f
          E 120 80 39 00
          E 0 90 3b 7f
          E 120 80 3b 00
          E 120 90 3b 7f
          E 120 80 3b 00
          E 120 90 3b 7f
          E 120 80 3b 00
          E 120 90 3b 7f
          E 120 80 3b 00
          E 120 90 3b 7f
          E 0 90 39 7f
          E 120 80 3b 00
          E 0 80 39 00
          E 120 90 3b 7f
          E 0 90 39 7f
          E 120 80 3b 00
          E 0 80 39 00
          E 120 90 3b 7f
          E 0 90 39 7f
          E 120 80 3b 00
          E 0 80 39 00
          E 120 90 3b 7f
          E 120 80 3b 00
          E 360 90 3b 7f
          E 120 80 3b 00
          E 120 90 3b 7f
          E 120 80 3b 00
          E 120 90 3b 7f
          E 120 80 3b 00
          E 0 90 39 7f
          E 120 80 39 00
          E 0 90 3c 7f
          E 0 90 3b 7f
          E 120 80 3c 00
          E 0 80 3b 00
          E 0 90 39 7f
          E 120 80 39 00
          E 0 90 3c 7f
          E 0 90 3b 7f
          E 0 90 39 7f
          E 120 80 3b 00
          E 0 80 39 00
          E 120 80 3c 00
          E 0 90 3b 7f
          E 0 90 39 7f
          E 120 80 3b 00
          E 0 80 39 00
          E 0 90 39 7f
          E 120 80 39 00
          E 0 90 3c 7f
          E 0 90 3b 7f
          E 120 80 3c 00
          E 0 80 3b 00
          E 120 90 3c 7f
          E 0 90 3b 7f
          E 0 90 39 7f
          E 120 80 3c 00
          E 0 80 3b 00
          E 0 80 39 00
          E 0 90 39 7f
          E 120 80 39 00
          E 0 90 3b 7f
          E 120 80 3b 00
          E 120 90 39 7f
          E 0 90 3b 7f
          E 120 80 39 00
          E 0 80 3b 00
          E 0 90 39 7f
          E 120 80 39 00
          E 0 90 3c 7f
          E 0 90 3b 7f
          E 120 80 3c 00
          E 0 80 3b 00
          E 120 90 3c 7f
          E 0 90 39 7f
          E 0 90 3b 7f
          E 120 80 3c 00
          E 0 80 39 00
          E 0 80 3b 00
          E 0 90 39 7f
          E 120 80 39 00
          E 0 90 3b 7f
          E 120 80 3b 00
          E 120 90 39 7f
          E 0 90 3b 7f
          E 120 80 39 00
          E 0 80 3b 00
          E 0 90 39 7f
          E 120 80 39 00
          E 0 90 3c 7f
          E 120 80 3c 00
          E 120 90 39 7f
          E 120 80 39 00
          E 0 90 39 7f
          E 120 80 39 00
          E 0 90 3c 7f
          E 120 80 3c 00
          E 120 90 39 7f
          E 120 80 39 00
          E 0 90 39 7f
          E 120 80 39 00
          E 0 90 39 7f
          E 120 80 39 00
          E 0 90 39 7f
          E 120 80 39 00
          E 0 90 3c 7f
          E 0 90 39 7f
          E 120 80 3c 00
          E 0 80 39 00
          E 0 90 39 7f
          E 120 80 39 00
          E 0 90 39 7f
          E 120 80 39 00
          E 0 90 39 7f
          E 120 80 39 00
          E 0 90 39 7f
          E 120 80 39 00
          E 0 90 39 7f
          E 120 80 39 00
          E 0 90 39 7f
          E 120 80 39 00
          E 0 90 39 7f
          E 120 80 39 00
          E 0 90 39 7f
          E 120 80 39 00
          E 0 90 39 7f
          E 120 80 39 00
          E 0 90 39 7f
          E 120 80 39 00
          E 0 90 39 7f
          E 120 80 39 00
          E 120 90 3c 7f
          E 120 80 3c 00
          E 0 90 3c 7f
          E 120 80 3c 00
          E 0 90 3a 7f
          E 120 80 3a 00
          E 0 90 3c 7f
          E 120 80 3c 00
          E 0 90 39 7f
          E 120 80 39 00
          E 0 90 39 7f
          E 0 90 3c 7f
          E 120 80 39 00
          E 0 80 3c 00
          E 0 90 39 7f
          E 120 80 39 00
          E 0 90 39 7f
          E 0 90 3c 7f
          E 120 80 39 00
          E 0 80 3c 00
          E 0 90 39 7f
          E 120 80 39 00
          E 0 90 39 7f
          E 0 90 3c 7f
          E 120 80 39 00
          E 0 80 3c 00
          E 0 90 39 7f
          E 0 90 3a 7f
          E 120 80 39 00
          E 0 80 3a 00
          E 0 90 39 7f
          E 0 90 3a 7f
          E 0 90 3c 7f
          E 120 80 39 00
          E 0 80 3a 00
          E 0 80 3c 00
          E 0 90 39 7f
          E 0 90 3a 7f
          E 120 80 39 00
          E 0 80 3a 00
          E 0 90 39 7f
          E 0 90 3a 7f
          E 0 90 3c 7f
          E 120 80 39 00
          E 0 80 3a 00
          E 0 80 3c 00
          E 0 90 3a 7f
          E 120 80 3a 00
          E 0 90 3a 7f
          E 0 90 3c 7f
          E 120 80 3a 00
          E 0 80 3c 00
          E 0 90 3a 7f
          E 120 80 3a 00
          E 0 90 3a 7f
          E 0 90 3c 7f
          E 120 80 3a 00
          E 0 80 3c 00
          E 0 90 3a 7f
          E 120 80 3a 00
          E 0 90 3a 7f
          E 0 90 3c 7f
          E 120 80 3a 00
          E 0 80 3c 00
          E 600 90 3b 7f
          E 120 80 3b 00
          E 120 90 39 7f
          E 0 90 3b 7f
          E 120 80 39 00
          E 0 80 3b 00
          E 120 90 3b 7f
          E 120 80 3b 00
          E 120 90 3b 7f
          E 120 80 3b 00
          E 120 90 3b 7f
          E 120 80 3b 00
          E 120 90 3b 7f
          E 120 80 3b 00
          E 120 90 3b 7f
          E 120 80 3b 00
          E 120 90 39 7f
          E 0 90 3b 7f
          E 120 80 39 00
          E 0 80 3b 00
          E 120 90 3b 7f
          E 120 80 3b 00
          E 120 90 3b 7f
          E 120 80 3b 00
          E 120 90 3b 7f
          E 120 80 3b 00
          E 120 90 3b 7f
          E 120 80 3b 00
          E 120 90 3b 7f
          E 120 80 3b 00
          E 120 90 3b 7f
          E 120 80 3b 00
          E 0 90 39 7f
          E 120 80 39 00
          E 0 90 3b 7f
          E 120 80 3b 00
          E 120 90 3b 7f
          E 120 80 3b 00
          E 120 90 3b 7f
          E 120 80 3b 00
          E 120 90 3b 7f
          E 120 80 3b 00
          E 120 90 3b 7f
          E 120 80 3b 00
          E 120 90 3b 7f
          E 120 80 3b 00
          E 120 90 39 7f
          E 0 90 3b 7f
          E 120 80 39 00
          E 0 80 3b 00
          E 120 90 3b 7f
          E 120 80 3b 00
          E 120 90 3b 7f
          E 120 80 3b 00
          E 120 90 3b 7f
          E 120 80 3b 00
          E 360 90 3b 7f
          E 120 80 3b 00
          E 120 90 3b 7f
          E 120 80 3b 00
          E 0 90 39 7f
          E 120 80 39 00
          E 0 90 3b 7f
          E 120 80 3b 00
          E 120 90 3b 7f
          E 120 80 3b 00
          E 120 90 3b 7f
          E 120 80 3b 00
          E 120 90 3b 7f
          E 120 80 3b 00
          E 120 90 3b 7f
          E 120 80 3b 00
          E 120 90 3b 7f
          E 120 80 3b 00
          E 120 90 39 7f
          E 0 90 3b 7f
          E 120 80 39 00
          E 0 80 3b 00
          E 120 90 3b 7f
          E 120 80 3b 00
          E 120 90 3b 7f
          E 120 80 3b 00
          E 120 90 3b 7f
          E 120 80 3b 00
          E 120 90 3b 7f
          E 120 80 3b 00
          E 120 90 3b 7f
          E 120 80 3b 00
          E 120 90 3b 7f
          E 120 80 3b 00
          E 0 90 39 7f
          E 120 80 39 00
          E 0 90 3b 7f
          E 120 80 3b 00
          E 120 90 3b 7f
          E 120 80 3b 00
          E 120 90 3b 7f
          E 120 80 3b 00
          E 120 90 3b 7f
          E 120 80 3b 00
          E 120 90 3b 7f
          E 120 80 3b 00
          E 120 90 3a 7f
          E 0 90 3b 7f
          E 120 80 3a 00
          E 0 80 3b 00
          E 0 90 39 7f
          E 120 80 39 00
          E 0 90 39 7f
          E 0 90 3b 7f
          E 120 80 39 00
          E 0 80 3b 00
          E 0 90 39 7f
          E 120 80 39 00
          E 0 90 39 7f
          E 0 90 3b 7f
          E 120 80 39 00
          E 0 80 3b 00
          E 0 90 39 7f
          E 120 80 39 00
          E 0 90 39 7f
          E 0 90 3b 7f
          E 120 80 39 00
          E 0 80 3b 00
          E 0 90 39 7f
          E 120 80 39 00
          E 0 90 39 7f
          E 0 90 3a 7f
          E 120 80 39 00
          E 0 80 3a 00
          E 0 90 39 7f
          E 0 90 3a 7f
          E 120 80 39 00
          E 0 80 3a 00
          E 0 90 39 7f
          E 0 90 3a 7f
          E 120 80 39 00
          E 0 80 3a 00
          E 0 90 39 7f
          E 0 90 3a 7f
          E 120 80 39 00
          E 0 80 3a 00
          E 0 90 3a 7f
          E 120 80 3a 00
          E 0 90 3a 7f
          E 120 80 3a 00
          E 0 90 3a 7f
          E 120 80 3a 00
          E 0 90 3a 7f
          E 120 80 3a 00
          E 0 90 3a 7f
          E 120 80 3a 00
          E 0 90 3a 7f
          E 120 80 3a 00
          E 120 90 39 7f
          E 120 80 39 00
          E 0 90 39 7f
          E 120 80 39 00
          E 0 90 39 7f
          E 120 80 39 00
          E 0 90 39 7f
          E 120 80 39 00
          E 0 90 39 7f
          E 120 80 39 00
          E 0 90 39 7f
          E 120 80 39 00
          E 0 90 39 7f
          E 120 80 39 00
          E 0 90 39 7f
          E 0 90 3a 7f
          E 120 80 39 00
          E 0 80 3a 00
          E 0 90 39 7f
          E 0 90 3a 7f
          E 120 80 39 00
          E 0 80 3a 00
          E 0 90 39 7f
          E 0 90 3a 7f
          E 120 80 39 00
          E 0 80 3a 00
          E 0 90 39 7f
          E 0 90 3a 7f
          E 120 80 39 00
          E 0 80 3a 00
          E 0 90 3a 7f
          E 120 80 3a 00
          E 0 90 3a 7f
          E 120 80 3a 00
          E 0 90 3a 7f
          E 120 80 3a 00
          E 0 90 3a 7f
          E 120 80 3a 00
          E 0 90 3a 7f
          E 120 80 3a 00
          E 0 90 3a 7f
          E 120 80 3a 00
          E 0 90 39 7f
          E 120 80 39 00
          E 0 90 39 7f
          E 120 80 39 00
          E 240 90 39 7f
          E 120 80 39 00
          E 0 90 39 7f
          E 120 80 39 00
          E 240 90 39 7f
          E 120 80 39 00
          E 0 90 39 7f
          E 120 80 39 00
          E 240 90 39 7f
          E 120 80 39 00
          E 0 90 39 7f
          E 120 80 39 00
          E 2640 90 39 7f
          E 120 80 39 00
          E 0 90 39 7f
          E 120 80 39 00
          E 240 90 39 7f
          E 120 80 39 00
          E 0 90 39 7f
          E 120 80 39 00
          E 240 90 39 7f
          E 120 80 39 00
          E 0 90 39 7f
          E 120 80 39 00
          E 240 90 39 7f
          E 120 80 39 00
          E 0 90 39 7f
          E 120 80 39 00
          E 240 90 39 7f
          E 120 80 39 00
          E 0 90 39 7f
          E 120 80 39 00
          E 240 90 39 7f
          E 120 80 39 00
          E 0 90 39 7f
          E 120 80 39 00
          E 240 90 39 7f
          E 120 80 39 00
          E 0 90 39 7f
          E 120 80 39 00
          E 240 90 39 7f
          E 120 80 39 00
          E 0 90 39 7f
          E 120 80 39 00
          E 240 90 39 7f
          E 120 80 39 00
          E 0 90 39 7f
          E 120 80 39 00
          E 240 90 39 7f
          E 120 80 39 00
          E 0 90 39 7f
          E 120 80 39 00
          E 240 90 39 7f
          E 120 80 39 00
          E 0 90 39 7f
          E 120 80 39 00
          E 240 90 39 7f
          E 120 80 39 00
          E 0 90 39 7f
          E 120 80 39 00
          E 240 90 39 7f
          E 120 80 39 00
          E 0 90 39 7f
          E 120 80 39 00
          E 240 90 39 7f
          E 120 80 39 00
          E 0 90 39 7f
          E 120 80 39 00
          E 240 90 39 7f
          E 120 80 39 00
          E 0 90 39 7f
          E 120 80 39 00
          E 240 90 39 7f
          E 120 80 39 00
          E 0 90 39 7f
          E 120 80 39 00
          E 240 90 39 7f
          E 120 80 39 00
          E 0 90 39 7f
          E 120 80 39 00
          E 240 90 39 7f
          E 120 80 39 00
          E 0 90 39 7f
          E 120 80 39 00
          E 240 90 39 7f
          E 120 80 39 00
          E 0 90 39 7f
          E 120 80 39 00
          E 240 90 39 7f
          E 120 80 39 00
          E 0 90 39 7f
          E 120 80 39 00
          E 240 90 39 7f
          E 120 80 39 00
          E 0 90 39 7f
          E 120 80 39 00
          E 240 90 39 7f
          E 120 80 39 00
          E 0 90 39 7f
          E 120 80 39 00
          E 240 90 39 7f
          E 120 80 39 00
          E 0 90 39 7f
          E 120 80 39 00
          E 240 90 39 7f
          E 120 80 39 00
          E 0 90 39 7f
          E 120 80 39 00
          E 240 90 39 7f
          E 120 80 39 00
          E 0 90 39 7f
          E 120 80 39 00
          E 240 90 39 7f
          E 120 80 39 00
          E 0 90 39 7f
          E 120 80 39 00
          E 240 90 39 7f
          E 120 80 39 00
          E 0 90 39 7f
          E 120 80 39 00
          E 120 90 3b 7f
          E 120 80 3b 00
          E 0 90 39 7f
          E 120 80 39 00
          E 0 90 39 7f
          E 0 90 3b 7f
          E 120 80 39 00
          E 0 80 3b 00
          E 120 90 3b 7f
          E 120 80 3b 00
          E 120 90 3b 7f
          E 120 80 3b 00
          E 120 90 3b 7f
          E 120 80 3b 00
          E 120 90 3b 7f
          E 120 80 3b 00
          E 120 90 3b 7f
          E 120 80 3b 00
          E 120 90 3b 7f
          E 120 80 3b 00
          E 120 90 3b 7f
          E 120 80 3b 00
          E 120 90 3b 7f
          E 120 80 3b 00
          E 120 90 3b 7f
          E 120 80 3b 00
          E 120 90 3b 7f
          E 120 80 3b 00
          E 120 90 3b 7f
          E 120 80 3b 00
          E 120 90 3b 7f
          E 120 80 3b 00
          E 120 90 3b 7f
          E 120 80 3b 00
          E 120 90 3b 7f
          E 0 90 39 7f
          E 120 80 3b 00
          E 0 80 39 00
          E 0 90 39 7f
          E 120 80 39 00
          E 0 90 3b 7f
          E 120 80 3b 00
          E 120 90 3b 7f
          E 0 90 39 7f
          E 120 80 3b 00
          E 0 80 39 00
          E 0 90 39 7f
          E 120 80 39 00
          E 0 90 3b 7f
          E 120 80 3b 00
          E 120 90 39 7f
          E 120 80 39 00
          E 0 90 39 7f
          E 120 80 39 00
          E 0 90 3b 7f
          E 120 80 3b 00
          E 120 90 3b 7f
          E 0 90 39 7f
          E 120 80 3b 00
          E 0 80 39 00
          E 0 90 39 7f
          E 120 80 39 00
          E 0 90 3b 7f
          E 120 80 3b 00
          E 120 90 3b 7f
          E 0 90 39 7f
          E 120 80 3b 00
          E 0 80 39 00
          E 0 90 39 7f
          E 120 80 39 00
          E 0 90 3b 7f
          E 120 80 3b 00
          E 120 90 3b 7f
          E 0 90 39 7f
          E 120 80 3b 00
          E 0 80 39 00
          E 0 90 39 7f
          E 120 80 39 00
          E 0 90 3b 7f
          E 120 80 3b 00
          E 120 90 3b 7f
          E 0 90 39 7f
          E 120 80 3b 00
          E 0 80 39 00
          E 0 90 39 7f
          E 120 80 39 00
          E 0 90 3b 7f
          E 120 80 3b 00
          E 120 90 3b 7f
          E 0 90 39 7f
          E 120 80 3b 00
          E 0 80 39 00
          E 0 90 39 7f
          E 120 80 39 00
          E 0 90 3b 7f
          E 120 80 3b 00
          E 120 90 3b 7f
          E 0 90 39 7f
          E 120 80 3b 00
          E 0 80 39 00
          E 0 90 39 7f
          E 120 80 39 00
          E 0 90 3b 7f
          E 120 80 3b 00
          E 120 90 3b 7f
          E 120 80 3b 00
          E 120 90 3b 7f
          E 120 80 3b 00
          E 120 90 3b 7f
          E 120 80 3b 00
          E 120 90 3b 7f
          E 120 80 3b 00
          E 120 90 3b 7f
          E 120 80 3b 00
          E 120 90 3b 7f
          E 120 80 3b 00
          E 120 90 3b 7f
          E 120 80 3b 00
          E 0 90 39 7f
          E 120 80 39 00
          E 0 90 3b 7f
          E 0 90 39 7f
          E 120 80 3b 00
          E 0 80 39 00
          E 120 90 3b 7f
          E 120 80 3b 00
          E 0 90 39 7f
          E 120 80 39 00
          E 0 90 3b 7f
          E 0 90 39 7f
          E 120 80 3b 00
          E 0 80 39 00
          E 120 90 3b 7f
          E 120 80 3b 00
          E 0 90 39 7f
          E 120 80 39 00
          E 0 90 39 7f
          E 120 80 39 00
          E 240 90 39 7f
          E 120 80 39 00
          E 0 90 39 7f
          E 120 80 39 00
          E 240 90 39 7f
          E 120 80 39 00
          E 0 90 39 7f
          E 120 80 39 00
          E 240 90 39 7f
          E 120 80 39 00
          E 0 90 39 7f
          E 120 80 39 00
          E 240 90 39 7f
          E 120 80 39 00
          E 0 90 39 7f
          E 120 80 39 00
          E 240 90 39 7f
          E 120 80 39 00
          E 0 90 39 7f
          E 120 80 39 00
          E 0 90 39 7f
          E 120 80 39 00
          E 120 90 39 7f
          E 120 80 39 00
          E 0 90 39 7f
          E 120 80 39 00
          E 0 90 39 7f
          E 120 80 39 00
          E 240 90 39 7f
          E 120 80 39 00
          E 0 90 39 7f
          E 120 80 39 00
          E 240 90 39 7f
          E 120 80 39 00
          E 0 90 39 7f
          E 120 80 39 00
          E 240 90 39 7f
          E 120 80 39 00
          E 0 90 39 7f
          E 120 80 39 00
          E 240 90 39 7f
          E 120 80 39 00
          E 0 90 39 7f
          E 120 80 39 00
          E 240 90 39 7f
          E 120 80 39 00
          E 0 90 39 7f
          E 120 80 39 00
          E 240 90 39 7f
          E 120 80 39 00
          E 0 90 39 7f
          E 120 80 39 00
          E 240 90 39 7f
          E 120 80 39 00
          E 0 90 39 7f
          E 120 80 39 00
          E 0 90 3b 7f
          E 240 80 3b 00
          E 120 90 39 7f
          E 120 80 39 00
          E 0 90 39 7f
          E 120 80 39 00
          E 240 90 39 7f
          E 120 80 39 00
          E 0 90 39 7f
          E 120 80 39 00
          E 240 90 39 7f
          E 120 80 39 00
          E 0 90 39 7f
          E 120 80 39 00
          E 240 90 39 7f
          E 120 80 39 00
          E 0 90 39 7f
          E 120 80 39 00
          E 240 90 39 7f
          E 120 80 39 00
          E 0 90 39 7f
          E 120 80 39 00
          E 240 90 39 7f
          E 120 80 39 00
          E 0 90 39 7f
          E 120 80 39 00
          E 240 90 39 7f
          E 120 80 39 00
          E 0 90 39 7f
          E 120 80 39 00
          E 240 90 39 7f
          E 120 80 39 00
          E 0 90 39 7f
          E 120 80 39 00
          E 0 90 3b 7f
          E 240 80 3b 00
          E 0 90 39 7f
          E 120 80 39 00
          E 0 90 39 7f
          E 120 80 39 00
          E 240 90 39 7f
          E 120 80 39 00
          E 0 90 39 7f
          E 120 80 39 00
          E 240 90 39 7f
          E 120 80 39 00
          E 0 90 39 7f
          E 120 80 39 00
          E 240 90 39 7f
          E 120 80 39 00
          E 0 90 39 7f
          E 120 80 39 00
          E 240 90 39 7f
          E 120 80 39 00
          E 0 90 39 7f
          E 120 80 39 00
          E 240 90 39 7f
          E 120 80 39 00
          E 0 90 39 7f
          E 120 80 39 00
          E 240 90 39 7f
          E 120 80 39 00
          E 0 90 39 7f
          E 120 80 39 00
          E 253680 90 39 7f
          E 120 80 39 00
          E 0 90 39 7f
          E 120 80 39 00
          E 720 90 39 7f
          E 120 80 39 00
          E 0 90 39 7f
          E 120 80 39 00
          E 720 90 39 7f
          E 120 80 39 00
          E 0 90 39 7f
          E 120 80 39 00
          E 720 90 39 7f
          E 120 80 39 00
          E 0 90 39 7f
          E 120 80 39 00
          E 720 90 39 7f
          E 120 80 39 00
          E 0 90 39 7f
          E 120 80 39 00
          E 0 90 39 7f
          E 120 80 39 00
          E 0 90 39 7f
          E 120 80 39 00
          E 0 90 39 7f
          E 120 80 39 00
          E 0 90 39 7f
          E 120 80 39 00
          E 0 90 39 7f
          E 120 80 39 00
          E 0 90 39 7f
          E 120 80 39 00
          E 0 90 39 7f
          E 120 80 39 00
          E 0 90 39 7f
          E 120 80 39 00
          E 0 90 39 7f
          E 120 80 39 00
          E 0 90 39 7f
          E 120 80 39 00
          E 0 90 39 7f
          E 120 80 39 00
          E 0 90 39 7f
          E 120 80 39 00
          E 0 90 39 7f
          E 120 80 39 00
          E 0 90 39 7f
          E 120 80 39 00
          E 0 90 39 7f
          E 120 80 39 00
          E 0 90 39 7f
          E 120 80 39 00
          E 240 90 3e 7f
          E 120 80 3e 00
          E 0 90 3e 7f
          E 120 80 3e 00
          E 0 90 3e 7f
          E 120 80 3e 00
          E 0 90 3e 7f
          E 120 80 3e 00
          E 0 90 3e 7f
          E 120 80 3e 00
          E 0 90 3e 7f
          E 120 80 3e 00
          E 0 90 3e 7f
          E 0 90 39 7f
          E 120 80 3e 00
          E 0 80 39 00
          E 0 90 3e 7f
          E 120 80 3e 00
          E 0 90 3e 7f
          E 0 90 39 7f
          E 120 80 3e 00
          E 0 80 39 00
          E 0 90 3e 7f
          E 120 80 3e 00
          E 0 90 3e 7f
          E 0 90 39 7f
          E 120 80 3e 00
          E 0 80 39 00
          E 0 90 3e 7f
          E 120 80 3e 00
          E 0 90 3e 7f
          E 120 80 3e 00
          E 0 90 3e 7f
          E 120 80 3e 00
          E 0 90 3e 7f
          E 120 80 3e 00
          E 0 90 3e 7f
          E 120 80 3e 00
          E 0 90 3e 7f
          E 120 80 3e 00
          E 480 90 39 7f
          E 120 80 39 00
          E 120 90 39 7f
          E 120 80 39 00
          E 0 90 39 7f
          E 120 80 39 00
          E 120 90 39 7f
          E 120 80 39 00
          E 0 90 39 7f
          E 120 80 39 00
          E 240 90 39 7f
          E 120 80 39 00
          E 0 90 39 7f
          E 120 80 39 00
          E 240 90 39 7f
          E 120 80 39 00
          E 0 90 39 7f
          E 120 80 39 00
          E 240 90 39 7f
          E 120 80 39 00
          E 0 90 39 7f
          E 120 80 39 00
          E 240 90 39 7f
          E 120 80 39 00
          E 0 90 39 7f
          E 120 80 39 00
          E 240 90 39 7f
          E 120 80 39 00
          E 0 90 39 7f
          E 120 80 39 00
          E 240 90 39 7f
          E 120 80 39 00
          E 0 90 39 7f
          E 120 80 39 00
          E 0 90 39 7f
          E 120 80 39 00
          E 0 90 39 7f
          E 120 80 39 00
          E 0 90 39 7f
          E 120 80 39 00
          E 0 90 39 7f
          E 120 80 39 00
          E 0 90 39 7f
          E 120 80 39 00
          E 0 90 39 7f
          E 120 80 39 00
          E 0 90 39 7f
          E 120 80 39 00
          E 0 90 39 7f
          E 120 80 39 00
          E 0 90 39 7f
          E 120 80 39 00
          E 0 90 39 7f
          E 120 80 39 00
          E 0 90 39 7f
          E 120 80 39 00
          E 0 90 39 7f
          E 120 80 39 00
          E 0 90 39 7f
          E 120 80 39 00
          E 0 90 39 7f
          E 0 90 3e 7f
          E 120 80 39 00
          E 0 80 3e 00
          E 0 90 3e 7f
          E 120 80 3e 00
          E 0 90 3e 7f
          E 120 80 3e 00
          E 0 90 3e 7f
          E 120 80 3e 00
          E 0 90 3e 7f
          E 120 80 3e 00
          E 0 90 3e 7f
          E 120 80 3e 00
          E 0 90 3e 7f
          E 120 80 3e 00
          E 0 90 3e 7f
          E 120 80 3e 00
          E 0 90 3e 7f
          E 120 80 3e 00
          E 0 90 3e 7f
          E 120 80 3e 00
          E 0 90 3e 7f
          E 120 80 3e 00
          e 0 90 39 7f
          E 0 90 3e 7f
          e 120 80 39 00
          E 0 80 3e 00
          e 0 90 39 7f
          E 0 90 3e 7f
          e 120 80 39 00
          E 0 80 3e 00
          e 0 90 39 7f
          E 0 90 3e 7f
          e 120 80 39 00
          E 0 80 3e 00
          e 0 90 39 7f
          E 0 90 3e 7f
          e 120 80 39 00
          E 0 80 3e 00
          e 0 90 39 7f
          E 0 90 39 7f
          E 0 90 3e 7f
          e 120 80 39 00
          E 0 80 39 00
          E 0 80 3e 00
          e 0 90 39 7f
          E 0 90 3e 7f
          e 120 80 39 00
          E 0 80 3e 00
          e 0 90 39 7f
          e 120 80 39 00
          e 0 90 39 7f
          e 120 80 39 00
          e 0 90 39 7f
          e 120 80 39 00
          E 1080 90 39 7f
          E 120 80 39 00
          E 1320 90 39 7f
          E 120 80 39 00
          E 120 90 39 7f
          E 120 80 39 00
          E 0 90 39 7f
          E 120 80 39 00
          E 720 90 39 7f
          E 120 80 39 00
          E 0 90 39 7f
          E 120 80 39 00
          E 720 90 39 7f
          E 120 80 39 00
          E 0 90 39 7f
          E 120 80 39 00
          E 720 90 39 7f
          E 120 80 39 00
          E 0 90 39 7f
          E 120 80 39 00
          E 1320 90 39 7f
          E 120 80 39 00
          E 1440 90 39 7f
          E 120 80 39 00
          E 1440 90 39 7f
          E 120 80 39 00
          E 1320 90 39 7f
          E 120 80 39 00
          E 0 90 39 7f
          E 120 80 39 00
          E 0 90 39 7f
          E 120 80 39 00
          E 0 90 39 7f
          E 120 80 39 00
          E 0 90 39 7f
          E 120 80 39 00
          E 0 90 39 7f
          E 120 80 39 00
          E 0 90 39 7f
          E 120 80 39 00
          E 0 90 39 7f
          E 120 80 39 00
          E 0 90 39 7f
          E 120 80 39 00
          E 0 90 39 7f
          E 120 80 39 00
          E 0 90 39 7f
          E 120 80 39 00
          E 840 90 39 7f
          E 120 80 39 00
          E 0 90 39 7f
          E 120 80 39 00
          E 0 90 39 7f
          E 120 80 39 00
          E 0 90 39 7f
          E 120 80 39 00
          E 0 90 39 7f
          E 120 80 39 00
          E 0 90 39 7f
          E 120 80 39 00
          E 0 90 39 7f
          E 120 80 39 00
          E 0 90 39 7f
          E 120 80 39 00
          E 0 90 39 7f
          E 120 80 39 00
          E 0 90 39 7f
          E 120 80 39 00
          E 0 90 39 7f
          E 120 80 39 00
          E 720 90 39 7f
          E 120 80 39 00
          E 0 90 39 7f
          E 120 80 39 00
          E 240 90 39 7f
          E 120 80 39 00
          E 0 90 39 7f
          E 120 80 39 00
          E 240 90 39 7f
          E 120 80 39 00
          E 0 90 39 7f
          E 120 80 39 00
          E 240 90 39 7f
          E 120 80 39 00
          E 0 90 39 7f
          E 120 80 39 00
          E 2640 90 39 7f
          E 120 80 39 00
          E 0 90 39 7f
          E 120 80 39 00
          E 240 90 39 7f
          E 120 80 39 00
          E 0 90 39 7f
          E 120 80 39 00
          E 240 90 39 7f
          E 120 80 39 00
          E 0 90 39 7f
          E 120 80 39 00
          E 1440 90 39 7f
          E 120 80 39 00
          E 0 90 39 7f
          E 120 80 39 00
          E 720 90 39 7f
          E 120 80 39 00
          E 0 90 39 7f
          E 120 80 39 00
          E 720 90 39 7f
          E 120 80 39 00
          E 0 90 39 7f
          E 120 80 39 00
          E 960 90 39 7f
          E 120 80 39 00
          E 0 90 39 7f
          E 120 80 39 00
          E 240 90 39 7f
          E 120 80 39 00
          E 0 90 39 7f
          E 120 80 39 00
          E 240 90 39 7f
          E 120 80 39 00
          E 0 90 39 7f
          E 120 80 39 00
          E 240 90 39 7f
          E 120 80 39 00
          E 0 90 39 7f
          E 120 80 39 00
          E 720 90 39 7f
          E 120 80 39 00
          E 0 90 39 7f
          E 120 80 39 00
          E 240 90 39 7f
          E 120 80 39 00
          E 0 90 39 7f
          E 120 80 39 00
          E 240 90 39 7f
          E 120 80 39 00
          E 0 90 39 7f
          E 120 80 39 00
          E 240 90 39 7f
          E 120 80 39 00
          E 0 90 39 7f
          E 120 80 39 00
          E 720 90 39 7f
          E 120 80 39 00
          E 0 90 39 7f
          E 120 80 39 00
          E 240 90 39 7f
          E 120 80 39 00
          E 0 90 39 7f
          E 120 80 39 00
          E 240 90 39 7f
          E 120 80 39 00
          E 0 90 39 7f
          E 120 80 39 00
          E 240 90 39 7f
          E 120 80 39 00
          E 0 90 39 7f
          E 120 80 39 00
          E 240 90 39 7f
          E 120 80 39 00
          E 0 90 39 7f
          E 120 80 39 00
          E 240 90 39 7f
          E 120 80 39 00
          E 0 90 39 7f
          E 120 80 39 00
          E 3240 90 39 7f
          E 120 80 39 00
          E 0 90 39 7f
          E 120 80 39 00
          E 240 90 39 7f
          E 120 80 39 00
          E 0 90 39 7f
          E 120 80 39 00
          E 720 90 39 7f
          E 120 80 39 00
          E 0 90 39 7f
          E 120 80 39 00
          E 240 90 39 7f
          E 120 80 39 00
          E 0 90 39 7f
          E 120 80 39 00
          E 240 90 39 7f
          E 120 80 39 00
          E 0 90 39 7f
          E 120 80 39 00
          E 240 90 39 7f
          E 120 80 39 00
          E 0 90 39 7f
          E 120 80 39 00
          E 720 90 39 7f
          E 120 80 39 00
          E 0 90 39 7f
          E 120 80 39 00
          E 1800 90 39 7f
          E 120 80 39 00
          E 0 90 39 7f
          E 120 80 39 00
          E 240 90 39 7f
          E 120 80 39 00
          E 0 90 39 7f
          E 120 80 39 00
          E 240 90 39 7f
          E 120 80 39 00
          E 0 90 39 7f
          E 120 80 39 00
          E 240 90 39 7f
          E 120 80 39 00
          E 840 90 39 7f
          E 120 80 39 00
          E 0 90 39 7f
          E 120 80 39 00
          E 240 90 39 7f
          E 120 80 39 00
          E 0 90 39 7f
          E 120 80 39 00
          E 240 90 39 7f
          E 120 80 39 00
          E 0 90 39 7f
          E 120 80 39 00
          E 0 90 39 7f
          E 120 80 39 00
          E 120 90 39 7f
          E 120 80 39 00
          E 0 90 39 7f
          E 120 80 39 00
          E 0 90 39 7f
          E 120 80 39 00
          E 1680 90 39 7f
          E 120 80 39 00
          E 0 90 39 7f
          E 120 80 39 00
          E 240 90 39 7f
          E 120 80 39 00
          E 0 90 39 7f
          E 120 80 39 00
          E 240 90 39 7f
          E 120 80 39 00
          E 0 90 39 7f
          E 120 80 39 00
          E 240 90 39 7f
          E 120 80 39 00
          E 0 90 39 7f
          E 120 80 39 00
          E 360 90 39 7f
          E 120 80 39 00
          E 0 90 39 7f
          E 120 80 39 00
          E 240 90 39 7f
          E 120 80 39 00
          E 0 90 39 7f
          E 120 80 39 00
          E 240 90 39 7f
          E 120 80 39 00
          E 0 90 39 7f
          E 120 80 39 00
          E 240 90 39 7f
          E 120 80 39 00
          E 0 90 39 7f
          E 120 80 39 00
          E 240 90 39 7f
          E 120 80 39 00
          E 0 90 39 7f
          E 120 80 39 00
          E 720 90 39 7f
          E 120 80 39 00
          E 0 90 39 7f
          E 120 80 39 00
          E 240 90 39 7f
          E 120 80 39 00
          E 0 90 39 7f
          E 120 80 39 00
          E 240 90 39 7f
          E 120 80 39 00
          E 0 90 39 7f
          E 120 80 39 00
          E 720 90 39 7f
          E 120 80 39 00
          E 0 90 39 7f
          E 120 80 39 00
          E 240 90 39 7f
          E 120 80 39 00
          E 0 90 39 7f
          E 120 80 39 00
          E 240 90 39 7f
          E 120 80 39 00
          E 0 90 39 7f
          E 120 80 39 00
          E 240 90 39 7f
          E 120 80 39 00
          E 0 90 39 7f
          E 120 80 39 00
          E 240 90 39 7f
          E 120 80 39 00
          E 0 90 39 7f
          E 120 80 39 00
          E 374160 90 31 7f
          E 480 80 31 00
          E 480 90 31 7f
          E 240 80 31 00
          E 3489120 b0 7b 00
          CCINTERP 32
          CHASE_CC_TAKEOFFS 1
          GUID {E803C4E2-E7B1-5C48-8BAE-F5D658905010}
          IGNTEMPO 0 120 4 4
          SRCCOLOR 0
          VELLANE -1 100 0
          CFGEDITVIEW 488240.654644 0.003635 26 12 0 -1 0 0 0 0.5
          KEYSNAP 0
          TRACKSEL 0
          EVTFILTER 0 -1 -1 -1 -1 0 0 0 0 -1 -1 -1 -1 0 -1 0 -1 -1
          CFGEDIT 1 1 0 1 0 0 1 1 1 1 1 0.125 0 78 1792 1095 0 0 0 0 0 0 0 0 0 0.5 0 0 1 64
        >
        <VOLENV
          EGUID {B89D8D67-1DFD-DA45-B933-E584640A6E67}
          ACT 1 -1
          VIS 1 1 1
          LANEHEIGHT 0 0
          ARM 0
          DEFSHAPE 0 -1 -1
          VOLTYPE 1
          PT 0 0.37153523 0 0 1
        >
      >
    >
    <ITEM
      POSITION 0
      SNAPOFFS 0
      LENGTH 2416.2668707482994
      LOOP 0
      ALLTAKES 0
      FADEIN 1 0 0 1 0 0 0
      FADEOUT 1 0 0 1 0 0 0
      MUTE 0 0
      FREEZE 0 2416.2668707482994 0
      LOCK 1
      SEL 0
      IGUID {604AF7CD-BF01-F64B-8097-3296E86A0D63}
      IID 35
      NAME "untitled MIDI item - freeze"
      VOLPAN 1 0 1 -1
      SOFFS 0
      PLAYRATE 1 1 0 -1 0 0.0025
      CHANMODE 0
      GUID {C7E5495B-4067-494B-839E-D25957EFF89F}
      <SOURCE WAVE
        FILE "midi rhytm_freeze_ohne.wav"
      >
    >
  >
  <TRACK {5A340DB2-424E-FF4F-BFBA-74C0E64724AC}
    NAME mit
    PEAKCOL 16576
    BEAT -1
    AUTOMODE 0
    VOLPAN 1 0 -1 -1 1
    MUTESOLO 0 0 0
    IPHASE 0
    PLAYOFFS 0 1
    ISBUS 0 0
    BUSCOMP 0 0 0 0 0
    SHOWINMIX 1 0.6667 0.5 1 0.5 0 -1 0
    FREEMODE 0
    SEL 0
    REC 1 0 1 0 0 0 0
    VU 2
    TRACKHEIGHT 0 0 0 0 0 0
    INQ 0 0 0 0.5 100 0 0 100
    NCHAN 2
    FX 1
    TRACKID {5A340DB2-424E-FF4F-BFBA-74C0E64724AC}
    PERF 0
    MIDIOUT -1
    MAINSEND 1 0
    <ITEM
      POSITION 672
      SNAPOFFS 0
      LENGTH 43.64172916666678
      LOOP 1
      ALLTAKES 0
      FADEIN 1 0.01 0 1 0 0 0
      FADEOUT 1 0.01 0 1 0 0 0
      MUTE 0 0
      SEL 0
      IGUID {1165B76C-CC15-D84E-B686-45F4B7620472}
      IID 22
      NAME 07-mit-210420_1250.wav
      VOLPAN 1 0 1 -1
      SOFFS 0
      PLAYRATE 1 1 0 -1 0 0.0025
      CHANMODE 0
      GUID {5C79183C-4FE6-1344-AB4F-B159C349DC8A}
      RECPASS 6
      <SOURCE WAVE
        FILE "07-mit-210420_1250.wav"
      >
    >
    <ITEM
      POSITION 746
      SNAPOFFS 0
      LENGTH 18.4577291666667
      LOOP 1
      ALLTAKES 0
      FADEIN 1 0.01 0 1 0 0 0
      FADEOUT 1 0.01 0 1 0 0 0
      MUTE 0 0
      SEL 0
      IGUID {687A43FF-B11E-4442-97E6-DDBFF87247CE}
      IID 23
      NAME 07-mit-210420_1250-01.wav
      VOLPAN 1 0 1 -1
      SOFFS 0
      PLAYRATE 1 1 0 -1 0 0.0025
      CHANMODE 0
      GUID {BFD229E3-660D-D944-A312-1D222B933AA5}
      RECPASS 7
      <SOURCE WAVE
        FILE "07-mit-210420_1250-01.wav"
      >
    >
    <ITEM
      POSITION 799
      SNAPOFFS 0
      LENGTH 52.77239583333335
      LOOP 1
      ALLTAKES 0
      FADEIN 1 0.01 0 1 0 0 0
      FADEOUT 1 0.01 0 1 0 0 0
      MUTE 0 0
      SEL 0
      IGUID {7EC0A8AC-E713-4E43-8EF9-FEBE559B33C0}
      IID 24
      NAME 07-mit-210420_1251.wav
      VOLPAN 1 0 1 -1
      SOFFS 0
      PLAYRATE 1 1 0 -1 0 0.0025
      CHANMODE 0
      GUID {24FA3EDD-DDF5-7B4D-AD12-82D5E3DE8A9C}
      RECPASS 8
      <SOURCE WAVE
        FILE "07-mit-210420_1251.wav"
      >
    >
    <ITEM
      POSITION 1152
      SNAPOFFS 0
      LENGTH 38.29772916666667
      LOOP 1
      ALLTAKES 0
      FADEIN 1 0.01 0 1 0 0 0
      FADEOUT 1 0.01 0 1 0 0 0
      MUTE 0 0
      SEL 0
      IGUID {827D76B6-FDA8-8447-B293-4ADCF7C9F9CC}
      IID 25
      NAME 07-mit-210420_1252.wav
      VOLPAN 1 0 1 -1
      SOFFS 0
      PLAYRATE 1 1 0 -1 0 0.0025
      CHANMODE 0
      GUID {AD67262F-6B86-AD4F-B9BE-9618BBE3BC01}
      RECPASS 9
      <SOURCE WAVE
        FILE "07-mit-210420_1252.wav"
      >
    >
    <ITEM
      POSITION 1688
      SNAPOFFS 0
      LENGTH 54.68172916666666
      LOOP 1
      ALLTAKES 0
      FADEIN 1 0.01 0 1 0 0 0
      FADEOUT 1 0.01 0 1 0 0 0
      MUTE 0 0
      SEL 0
      IGUID {A3366406-D9B7-7B42-9D44-015B48EA423E}
      IID 26
      NAME 07-mit-210420_1253.wav
      VOLPAN 1 0 1 -1
      SOFFS 0
      PLAYRATE 1 1 0 -1 0 0.0025
      CHANMODE 0
      GUID {4D311707-DC3D-6241-A94D-D0566B743339}
      RECPASS 10
      <SOURCE WAVE
        FILE "07-mit-210420_1253.wav"
      >
    >
  >
>
