<?xml version="1.0" standalone="no"?>
<svg viewBox="-466.6667 -750.0 2133.3335 1200" height="1200" width="2133.33"
    version="1.2" id="toplevel" xmlns="http://www.w3.org/2000/svg"
    xmlns:xlink="http://www.w3.org/1999/xlink">
  <rect x="-466.67" y="-750.00" width="2133.33" height="1200" fill="white"/>
  <line x1="0" y1="0" x2="0" y2="100" stroke="blue" stroke-width="5"/>
  <line x1="0" y1="100" x2="-100" y2="-100" stroke="blue" stroke-width="5"/>
  <line x1="-100" y1="-100" x2="100" y2="100" stroke="blue" stroke-width="5"/>
  <line x1="100" y1="100" x2="-100" y2="-100" stroke="blue" stroke-width="5"/>
  <line x1="-100" y1="-100" x2="0" y2="-200" stroke="blue" stroke-width="5"/>
  <line x1="0" y1="-200" x2="100" y2="-100" stroke="blue" stroke-width="5"/>
  <line x1="100" y1="-100" x2="0" y2="-400" stroke="blue" stroke-width="5"/>
  <line x1="0" y1="-400" x2="-200" y2="-500" stroke="blue" stroke-width="5"/>
  <line x1="-200" y1="-500" x2="-100" y2="-300" stroke="blue" stroke-width="5"/>
  <line x1="-100" y1="-300" x2="100" y2="-100" stroke="blue" stroke-width="5"/>
  <line x1="100" y1="-100" x2="300" y2="0" stroke="blue" stroke-width="5"/>
  <line x1="300" y1="0" x2="300" y2="-200" stroke="blue" stroke-width="5"/>
  <line x1="300" y1="-200" x2="400" y2="-200" stroke="blue" stroke-width="5"/>
  <line x1="400" y1="-200" x2="400" y2="0" stroke="blue" stroke-width="5"/>
  <line x1="400" y1="0" x2="200" y2="0" stroke="blue" stroke-width="5"/>
  <line x1="200" y1="0" x2="400" y2="0" stroke="blue" stroke-width="5"/>
  <line x1="400" y1="0" x2="300" y2="0" stroke="blue" stroke-width="5"/>
  <line x1="300" y1="0" x2="100" y2="-100" stroke="blue" stroke-width="5"/>
  <line x1="100" y1="-100" x2="300" y2="0" stroke="blue" stroke-width="5"/>
  <line x1="300" y1="0" x2="300" y2="-200" stroke="blue" stroke-width="5"/>
  <line x1="300" y1="-200" x2="300" y2="-100" stroke="blue" stroke-width="5"/>
  <line x1="300" y1="-100" x2="200" y2="0" stroke="blue" stroke-width="5"/>
  <line x1="200" y1="0" x2="400" y2="-100" stroke="blue" stroke-width="5"/>
  <line x1="400" y1="-100" x2="300" y2="-100" stroke="blue" stroke-width="5"/>
  <line x1="300" y1="-100" x2="400" y2="-200" stroke="blue" stroke-width="5"/>
  <line x1="400" y1="-200" x2="500" y2="-300" stroke="blue" stroke-width="5"/>
  <line x1="500" y1="-300" x2="500" y2="-200" stroke="blue" stroke-width="5"/>
  <line x1="500" y1="-200" x2="700" y2="-200" stroke="blue" stroke-width="5"/>
  <line x1="700" y1="-200" x2="500" y2="-500" stroke="blue" stroke-width="5"/>
  <line x1="500" y1="-500" x2="600" y2="-600" stroke="blue" stroke-width="5"/>
  <line x1="600" y1="-600" x2="800" y2="-300" stroke="blue" stroke-width="5"/>
  <line x1="800" y1="-300" x2="700" y2="-400" stroke="blue" stroke-width="5"/>
  <line x1="700" y1="-400" x2="500" y2="-500" stroke="blue" stroke-width="5"/>
  <line x1="500" y1="-500" x2="700" y2="-300" stroke="blue" stroke-width="5"/>
  <line x1="700" y1="-300" x2="600" y2="-300" stroke="blue" stroke-width="5"/>
  <line x1="600" y1="-300" x2="500" y2="-200" stroke="blue" stroke-width="5"/>
  <line x1="500" y1="-200" x2="500" y2="-100" stroke="blue" stroke-width="5"/>
  <line x1="500" y1="-100" x2="700" y2="100" stroke="blue" stroke-width="5"/>
  <line x1="700" y1="100" x2="900" y2="300" stroke="blue" stroke-width="5"/>
  <line x1="900" y1="300" x2="1100" y2="300" stroke="blue" stroke-width="5"/>
  <line x1="1100" y1="300" x2="1000" y2="300" stroke="blue" stroke-width="5"/>
  <line x1="1000" y1="300" x2="900" y2="200" stroke="blue" stroke-width="5"/>
  <line x1="900" y1="200" x2="1000" y2="100" stroke="blue" stroke-width="5"/>
  <line x1="1000" y1="100" x2="900" y2="100" stroke="blue" stroke-width="5"/>
  <line x1="900" y1="100" x2="1200" y2="200" stroke="blue" stroke-width="5"/>
  <line x1="1200" y1="200" x2="1300" y2="200" stroke="blue" stroke-width="5"/>
  <line x1="1300" y1="200" x2="1200" y2="200" stroke="blue" stroke-width="5"/>
  <line x1="1200" y1="200" x2="900" y2="100" stroke="blue" stroke-width="5"/>
  <line x1="900" y1="100" x2="900" y2="300" stroke="blue" stroke-width="5"/>
  <line x1="900" y1="300" x2="900" y2="100" stroke="blue" stroke-width="5"/>
  <line x1="900" y1="100" x2="1100" y2="0" stroke="blue" stroke-width="5"/>
  <line x1="1100" y1="0" x2="1000" y2="100" stroke="blue" stroke-width="5"/>
  <line x1="1000" y1="100" x2="1200" y2="0" stroke="blue" stroke-width="5"/>
  <line x1="1200" y1="0" x2="1400" y2="300" stroke="blue" stroke-width="5"/>
  <line x1="1400" y1="300" x2="1400" y2="200" stroke="blue" stroke-width="5"/>
  <line x1="1400" y1="200" x2="1200" y2="200" stroke="blue" stroke-width="5"/>
  <line x1="1200" y1="200" x2="1300" y2="100" stroke="blue" stroke-width="5"/>
  <line x1="1300" y1="100" x2="1300" y2="300" stroke="blue" stroke-width="5"/>
  <line x1="1300" y1="300" x2="1300" y2="200" stroke="blue" stroke-width="5"/>
  <line x1="1300" y1="200" x2="1300" y2="0" stroke="blue" stroke-width="5"/>
  <line x1="1300" y1="0" x2="1500" y2="-100" stroke="blue" stroke-width="5"/>
  <line x1="1500" y1="-100" x2="1400" y2="-100" stroke="blue" stroke-width="5"/>
  <line x1="1400" y1="-100" x2="1200" y2="-200" stroke="blue" stroke-width="5"/>
  <line x1="1200" y1="-200" x2="1200" y2="-100" stroke="blue" stroke-width="5"/>
  <line x1="1200" y1="-100" x2="1400" y2="100" stroke="blue" stroke-width="5"/>
  <line x1="1400" y1="100" x2="1100" y2="0" stroke="blue" stroke-width="5"/>
  <line x1="1100" y1="0" x2="1100" y2="100" stroke="blue" stroke-width="5"/>
  <line x1="1100" y1="100" x2="900" y2="200" stroke="blue" stroke-width="5"/>
  <line x1="900" y1="200" x2="1000" y2="100" stroke="blue" stroke-width="5"/>
  <line x1="1000" y1="100" x2="1100" y2="100" stroke="blue" stroke-width="5"/>
  <line x1="1100" y1="100" x2="1200" y2="100" stroke="blue" stroke-width="5"/>
  <line x1="1200" y1="100" x2="1300" y2="0" stroke="blue" stroke-width="5"/>
  <line x1="1300" y1="0" x2="1200" y2="100" stroke="blue" stroke-width="5"/>
  <line x1="1200" y1="100" x2="1400" y2="400" stroke="blue" stroke-width="5"/>
  <line x1="1400" y1="400" x2="1400" y2="200" stroke="blue" stroke-width="5"/>
  <line x1="1400" y1="200" x2="1300" y2="200" stroke="red" stroke-width="7"/>
  <line x1="0" y1="0" x2="200" y2="200" stroke="black" stroke-width="2"/>
  <line x1="0" y1="0" x2="0" y2="100" stroke="black" stroke-width="2"/>
  <line x1="0" y1="0" x2="100" y2="0" stroke="black" stroke-width="2"/>
  <circle cx="200" cy="200" r="10" fill="black"/>
  <circle cx="0" cy="100" r="10" fill="black"/>
  <circle cx="100" cy="0" r="10" fill="black"/>
  <circle cx="0" cy="0" r="10" fill="black"/>
  <line x1="0" y1="100" x2="0" y2="200" stroke="black" stroke-width="2"/>
  <line x1="0" y1="100" x2="100" y2="100" stroke="black" stroke-width="2"/>
  <circle cx="0" cy="200" r="10" fill="black"/>
  <circle cx="100" cy="100" r="10" fill="black"/>
  <circle cx="0" cy="100" r="10" fill="black"/>
  <line x1="-100" y1="-100" x2="100" y2="100" stroke="black" stroke-width="2"/>
  <line x1="-100" y1="-100" x2="-100" y2="0" stroke="black" stroke-width="2"/>
  <line x1="-100" y1="-100" x2="0" y2="-100" stroke="black" stroke-width="2"/>
  <circle cx="100" cy="100" r="10" fill="black"/>
  <circle cx="-100" cy="0" r="10" fill="black"/>
  <circle cx="0" cy="-100" r="10" fill="black"/>
  <circle cx="-100" cy="-100" r="10" fill="black"/>
  <line x1="100" y1="100" x2="-100" y2="-100" stroke="black" stroke-width="2"/>
  <line x1="100" y1="100" x2="100" y2="0" stroke="black" stroke-width="2"/>
  <line x1="100" y1="100" x2="0" y2="100" stroke="black" stroke-width="2"/>
  <circle cx="-100" cy="-100" r="10" fill="black"/>
  <circle cx="100" cy="0" r="10" fill="black"/>
  <circle cx="0" cy="100" r="10" fill="black"/>
  <circle cx="100" cy="100" r="10" fill="black"/>
  <line x1="-100" y1="-100" x2="100" y2="100" stroke="black" stroke-width="2"/>
  <line x1="-100" y1="-100" x2="-100" y2="0" stroke="black" stroke-width="2"/>
  <line x1="-100" y1="-100" x2="0" y2="-100" stroke="black" stroke-width="2"/>
  <circle cx="100" cy="100" r="10" fill="black"/>
  <circle cx="-100" cy="0" r="10" fill="black"/>
  <circle cx="0" cy="-100" r="10" fill="black"/>
  <circle cx="-100" cy="-100" r="10" fill="black"/>
  <line x1="0" y1="-200" x2="200" y2="0" stroke="black" stroke-width="2"/>
  <line x1="0" y1="-200" x2="0" y2="-100" stroke="black" stroke-width="2"/>
  <line x1="0" y1="-200" x2="100" y2="-200" stroke="black" stroke-width="2"/>
  <circle cx="200" cy="0" r="10" fill="black"/>
  <circle cx="0" cy="-100" r="10" fill="black"/>
  <circle cx="100" cy="-200" r="10" fill="black"/>
  <circle cx="0" cy="-200" r="10" fill="black"/>
  <line x1="100" y1="-100" x2="-100" y2="-300" stroke="black" stroke-width="2"/>
  <line x1="100" y1="-100" x2="100" y2="-200" stroke="black" stroke-width="2"/>
  <line x1="100" y1="-100" x2="0" y2="-100" stroke="black" stroke-width="2"/>
  <circle cx="-100" cy="-300" r="10" fill="black"/>
  <circle cx="100" cy="-200" r="10" fill="black"/>
  <circle cx="0" cy="-100" r="10" fill="black"/>
  <circle cx="100" cy="-100" r="10" fill="black"/>
  <line x1="0" y1="-400" x2="0" y2="-300" stroke="black" stroke-width="2"/>
  <line x1="0" y1="-400" x2="-100" y2="-300" stroke="black" stroke-width="2"/>
  <circle cx="0" cy="-300" r="10" fill="black"/>
  <circle cx="-100" cy="-300" r="10" fill="black"/>
  <circle cx="0" cy="-400" r="10" fill="black"/>
  <line x1="-200" y1="-500" x2="0" y2="-300" stroke="black" stroke-width="2"/>
  <line x1="-200" y1="-500" x2="-200" y2="-400" stroke="black" stroke-width="2"/>
  <line x1="-200" y1="-500" x2="-100" y2="-500" stroke="black" stroke-width="2"/>
  <circle cx="0" cy="-300" r="10" fill="black"/>
  <circle cx="-200" cy="-400" r="10" fill="black"/>
  <circle cx="-100" cy="-500" r="10" fill="black"/>
  <circle cx="-200" cy="-500" r="10" fill="black"/>
  <line x1="-100" y1="-300" x2="100" y2="-100" stroke="black" stroke-width="2"/>
  <line x1="-100" y1="-300" x2="-100" y2="-200" stroke="black" stroke-width="2"/>
  <line x1="-100" y1="-300" x2="0" y2="-300" stroke="black" stroke-width="2"/>
  <circle cx="100" cy="-100" r="10" fill="black"/>
  <circle cx="-100" cy="-200" r="10" fill="black"/>
  <circle cx="0" cy="-300" r="10" fill="black"/>
  <circle cx="-100" cy="-300" r="10" fill="black"/>
  <line x1="100" y1="-100" x2="-100" y2="-300" stroke="black" stroke-width="2"/>
  <line x1="100" y1="-100" x2="100" y2="-200" stroke="black" stroke-width="2"/>
  <line x1="100" y1="-100" x2="0" y2="-100" stroke="black" stroke-width="2"/>
  <circle cx="-100" cy="-300" r="10" fill="black"/>
  <circle cx="100" cy="-200" r="10" fill="black"/>
  <circle cx="0" cy="-100" r="10" fill="black"/>
  <circle cx="100" cy="-100" r="10" fill="black"/>
  <line x1="300" y1="0" x2="100" y2="-200" stroke="black" stroke-width="2"/>
  <line x1="300" y1="0" x2="300" y2="-100" stroke="black" stroke-width="2"/>
  <line x1="300" y1="0" x2="200" y2="0" stroke="black" stroke-width="2"/>
  <circle cx="100" cy="-200" r="10" fill="black"/>
  <circle cx="300" cy="-100" r="10" fill="black"/>
  <circle cx="200" cy="0" r="10" fill="black"/>
  <circle cx="300" cy="0" r="10" fill="black"/>
  <line x1="300" y1="-200" x2="500" y2="0" stroke="black" stroke-width="2"/>
  <line x1="300" y1="-200" x2="300" y2="-100" stroke="black" stroke-width="2"/>
  <line x1="300" y1="-200" x2="400" y2="-200" stroke="black" stroke-width="2"/>
  <circle cx="500" cy="0" r="10" fill="black"/>
  <circle cx="300" cy="-100" r="10" fill="black"/>
  <circle cx="400" cy="-200" r="10" fill="black"/>
  <circle cx="300" cy="-200" r="10" fill="black"/>
  <line x1="400" y1="-200" x2="400" y2="-100" stroke="black" stroke-width="2"/>
  <line x1="400" y1="-200" x2="500" y2="-200" stroke="black" stroke-width="2"/>
  <circle cx="400" cy="-100" r="10" fill="black"/>
  <circle cx="500" cy="-200" r="10" fill="black"/>
  <circle cx="400" cy="-200" r="10" fill="black"/>
  <line x1="400" y1="0" x2="200" y2="-200" stroke="black" stroke-width="2"/>
  <line x1="400" y1="0" x2="400" y2="-100" stroke="black" stroke-width="2"/>
  <line x1="400" y1="0" x2="300" y2="0" stroke="black" stroke-width="2"/>
  <circle cx="200" cy="-200" r="10" fill="black"/>
  <circle cx="400" cy="-100" r="10" fill="black"/>
  <circle cx="300" cy="0" r="10" fill="black"/>
  <circle cx="400" cy="0" r="10" fill="black"/>
  <line x1="200" y1="0" x2="200" y2="100" stroke="black" stroke-width="2"/>
  <line x1="200" y1="0" x2="300" y2="0" stroke="black" stroke-width="2"/>
  <circle cx="200" cy="100" r="10" fill="black"/>
  <circle cx="300" cy="0" r="10" fill="black"/>
  <circle cx="200" cy="0" r="10" fill="black"/>
  <line x1="400" y1="0" x2="200" y2="-200" stroke="black" stroke-width="2"/>
  <line x1="400" y1="0" x2="400" y2="-100" stroke="black" stroke-width="2"/>
  <line x1="400" y1="0" x2="300" y2="0" stroke="black" stroke-width="2"/>
  <circle cx="200" cy="-200" r="10" fill="black"/>
  <circle cx="400" cy="-100" r="10" fill="black"/>
  <circle cx="300" cy="0" r="10" fill="black"/>
  <circle cx="400" cy="0" r="10" fill="black"/>
  <line x1="300" y1="0" x2="100" y2="-200" stroke="black" stroke-width="2"/>
  <line x1="300" y1="0" x2="300" y2="-100" stroke="black" stroke-width="2"/>
  <line x1="300" y1="0" x2="200" y2="0" stroke="black" stroke-width="2"/>
  <circle cx="100" cy="-200" r="10" fill="black"/>
  <circle cx="300" cy="-100" r="10" fill="black"/>
  <circle cx="200" cy="0" r="10" fill="black"/>
  <circle cx="300" cy="0" r="10" fill="black"/>
  <line x1="100" y1="-100" x2="-100" y2="-300" stroke="black" stroke-width="2"/>
  <line x1="100" y1="-100" x2="100" y2="-200" stroke="black" stroke-width="2"/>
  <line x1="100" y1="-100" x2="0" y2="-100" stroke="black" stroke-width="2"/>
  <circle cx="-100" cy="-300" r="10" fill="black"/>
  <circle cx="100" cy="-200" r="10" fill="black"/>
  <circle cx="0" cy="-100" r="10" fill="black"/>
  <circle cx="100" cy="-100" r="10" fill="black"/>
  <line x1="300" y1="0" x2="100" y2="-200" stroke="black" stroke-width="2"/>
  <line x1="300" y1="0" x2="300" y2="-100" stroke="black" stroke-width="2"/>
  <line x1="300" y1="0" x2="200" y2="0" stroke="black" stroke-width="2"/>
  <circle cx="100" cy="-200" r="10" fill="black"/>
  <circle cx="300" cy="-100" r="10" fill="black"/>
  <circle cx="200" cy="0" r="10" fill="black"/>
  <circle cx="300" cy="0" r="10" fill="black"/>
  <line x1="300" y1="-200" x2="300" y2="-100" stroke="black" stroke-width="2"/>
  <line x1="300" y1="-200" x2="400" y2="-200" stroke="black" stroke-width="2"/>
  <circle cx="300" cy="-100" r="10" fill="black"/>
  <circle cx="400" cy="-200" r="10" fill="black"/>
  <circle cx="300" cy="-200" r="10" fill="black"/>
  <line x1="300" y1="-100" x2="300" y2="0" stroke="black" stroke-width="2"/>
  <line x1="300" y1="-100" x2="400" y2="-100" stroke="black" stroke-width="2"/>
  <circle cx="300" cy="0" r="10" fill="black"/>
  <circle cx="400" cy="-100" r="10" fill="black"/>
  <circle cx="300" cy="-100" r="10" fill="black"/>
  <line x1="200" y1="0" x2="200" y2="100" stroke="black" stroke-width="2"/>
  <line x1="200" y1="0" x2="300" y2="0" stroke="black" stroke-width="2"/>
  <circle cx="200" cy="100" r="10" fill="black"/>
  <circle cx="300" cy="0" r="10" fill="black"/>
  <circle cx="200" cy="0" r="10" fill="black"/>
  <line x1="400" y1="-100" x2="400" y2="0" stroke="black" stroke-width="2"/>
  <line x1="400" y1="-100" x2="300" y2="0" stroke="black" stroke-width="2"/>
  <circle cx="400" cy="0" r="10" fill="black"/>
  <circle cx="300" cy="0" r="10" fill="black"/>
  <circle cx="400" cy="-100" r="10" fill="black"/>
  <line x1="300" y1="-100" x2="300" y2="0" stroke="black" stroke-width="2"/>
  <line x1="300" y1="-100" x2="400" y2="-100" stroke="black" stroke-width="2"/>
  <circle cx="300" cy="0" r="10" fill="black"/>
  <circle cx="400" cy="-100" r="10" fill="black"/>
  <circle cx="300" cy="-100" r="10" fill="black"/>
  <line x1="400" y1="-200" x2="600" y2="0" stroke="black" stroke-width="2"/>
  <line x1="400" y1="-200" x2="400" y2="-100" stroke="black" stroke-width="2"/>
  <line x1="400" y1="-200" x2="500" y2="-200" stroke="black" stroke-width="2"/>
  <circle cx="600" cy="0" r="10" fill="black"/>
  <circle cx="400" cy="-100" r="10" fill="black"/>
  <circle cx="500" cy="-200" r="10" fill="black"/>
  <circle cx="400" cy="-200" r="10" fill="black"/>
  <line x1="500" y1="-300" x2="500" y2="-200" stroke="black" stroke-width="2"/>
  <line x1="500" y1="-300" x2="400" y2="-200" stroke="black" stroke-width="2"/>
  <circle cx="500" cy="-200" r="10" fill="black"/>
  <circle cx="400" cy="-200" r="10" fill="black"/>
  <circle cx="500" cy="-300" r="10" fill="black"/>
  <line x1="500" y1="-200" x2="500" y2="-100" stroke="black" stroke-width="2"/>
  <line x1="500" y1="-200" x2="600" y2="-200" stroke="black" stroke-width="2"/>
  <circle cx="500" cy="-100" r="10" fill="black"/>
  <circle cx="600" cy="-200" r="10" fill="black"/>
  <circle cx="500" cy="-200" r="10" fill="black"/>
  <line x1="700" y1="-200" x2="500" y2="-400" stroke="black" stroke-width="2"/>
  <line x1="700" y1="-200" x2="700" y2="-300" stroke="black" stroke-width="2"/>
  <line x1="700" y1="-200" x2="600" y2="-200" stroke="black" stroke-width="2"/>
  <circle cx="500" cy="-400" r="10" fill="black"/>
  <circle cx="700" cy="-300" r="10" fill="black"/>
  <circle cx="600" cy="-200" r="10" fill="black"/>
  <circle cx="700" cy="-200" r="10" fill="black"/>
  <line x1="500" y1="-500" x2="500" y2="-400" stroke="black" stroke-width="2"/>
  <line x1="500" y1="-500" x2="600" y2="-500" stroke="black" stroke-width="2"/>
  <circle cx="500" cy="-400" r="10" fill="black"/>
  <circle cx="600" cy="-500" r="10" fill="black"/>
  <circle cx="500" cy="-500" r="10" fill="black"/>
  <line x1="600" y1="-600" x2="800" y2="-400" stroke="black" stroke-width="2"/>
  <line x1="600" y1="-600" x2="600" y2="-500" stroke="black" stroke-width="2"/>
  <line x1="600" y1="-600" x2="700" y2="-600" stroke="black" stroke-width="2"/>
  <circle cx="800" cy="-400" r="10" fill="black"/>
  <circle cx="600" cy="-500" r="10" fill="black"/>
  <circle cx="700" cy="-600" r="10" fill="black"/>
  <circle cx="600" cy="-600" r="10" fill="black"/>
  <line x1="800" y1="-300" x2="600" y2="-500" stroke="black" stroke-width="2"/>
  <line x1="800" y1="-300" x2="800" y2="-400" stroke="black" stroke-width="2"/>
  <line x1="800" y1="-300" x2="700" y2="-300" stroke="black" stroke-width="2"/>
  <circle cx="600" cy="-500" r="10" fill="black"/>
  <circle cx="800" cy="-400" r="10" fill="black"/>
  <circle cx="700" cy="-300" r="10" fill="black"/>
  <circle cx="800" cy="-300" r="10" fill="black"/>
  <line x1="700" y1="-400" x2="700" y2="-300" stroke="black" stroke-width="2"/>
  <line x1="700" y1="-400" x2="600" y2="-300" stroke="black" stroke-width="2"/>
  <circle cx="700" cy="-300" r="10" fill="black"/>
  <circle cx="600" cy="-300" r="10" fill="black"/>
  <circle cx="700" cy="-400" r="10" fill="black"/>
  <line x1="500" y1="-500" x2="700" y2="-300" stroke="black" stroke-width="2"/>
  <line x1="500" y1="-500" x2="500" y2="-400" stroke="black" stroke-width="2"/>
  <line x1="500" y1="-500" x2="600" y2="-500" stroke="black" stroke-width="2"/>
  <circle cx="700" cy="-300" r="10" fill="black"/>
  <circle cx="500" cy="-400" r="10" fill="black"/>
  <circle cx="600" cy="-500" r="10" fill="black"/>
  <circle cx="500" cy="-500" r="10" fill="black"/>
  <line x1="700" y1="-300" x2="500" y2="-500" stroke="black" stroke-width="2"/>
  <line x1="700" y1="-300" x2="700" y2="-400" stroke="black" stroke-width="2"/>
  <line x1="700" y1="-300" x2="600" y2="-300" stroke="black" stroke-width="2"/>
  <circle cx="500" cy="-500" r="10" fill="black"/>
  <circle cx="700" cy="-400" r="10" fill="black"/>
  <circle cx="600" cy="-300" r="10" fill="black"/>
  <circle cx="700" cy="-300" r="10" fill="black"/>
  <line x1="600" y1="-300" x2="600" y2="-200" stroke="black" stroke-width="2"/>
  <line x1="600" y1="-300" x2="700" y2="-300" stroke="black" stroke-width="2"/>
  <circle cx="600" cy="-200" r="10" fill="black"/>
  <circle cx="700" cy="-300" r="10" fill="black"/>
  <circle cx="600" cy="-300" r="10" fill="black"/>
  <line x1="500" y1="-200" x2="500" y2="-100" stroke="black" stroke-width="2"/>
  <line x1="500" y1="-200" x2="600" y2="-200" stroke="black" stroke-width="2"/>
  <circle cx="500" cy="-100" r="10" fill="black"/>
  <circle cx="600" cy="-200" r="10" fill="black"/>
  <circle cx="500" cy="-200" r="10" fill="black"/>
  <line x1="500" y1="-100" x2="700" y2="100" stroke="black" stroke-width="2"/>
  <line x1="500" y1="-100" x2="500" y2="0" stroke="black" stroke-width="2"/>
  <line x1="500" y1="-100" x2="600" y2="-100" stroke="black" stroke-width="2"/>
  <circle cx="700" cy="100" r="10" fill="black"/>
  <circle cx="500" cy="0" r="10" fill="black"/>
  <circle cx="600" cy="-100" r="10" fill="black"/>
  <circle cx="500" cy="-100" r="10" fill="black"/>
  <line x1="700" y1="100" x2="900" y2="300" stroke="black" stroke-width="2"/>
  <line x1="700" y1="100" x2="700" y2="200" stroke="black" stroke-width="2"/>
  <line x1="700" y1="100" x2="800" y2="100" stroke="black" stroke-width="2"/>
  <circle cx="900" cy="300" r="10" fill="black"/>
  <circle cx="700" cy="200" r="10" fill="black"/>
  <circle cx="800" cy="100" r="10" fill="black"/>
  <circle cx="700" cy="100" r="10" fill="black"/>
  <line x1="900" y1="300" x2="900" y2="400" stroke="black" stroke-width="2"/>
  <line x1="900" y1="300" x2="1000" y2="300" stroke="black" stroke-width="2"/>
  <circle cx="900" cy="400" r="10" fill="black"/>
  <circle cx="1000" cy="300" r="10" fill="black"/>
  <circle cx="900" cy="300" r="10" fill="black"/>
  <line x1="1100" y1="300" x2="900" y2="100" stroke="black" stroke-width="2"/>
  <line x1="1100" y1="300" x2="1100" y2="200" stroke="black" stroke-width="2"/>
  <line x1="1100" y1="300" x2="1000" y2="300" stroke="black" stroke-width="2"/>
  <circle cx="900" cy="100" r="10" fill="black"/>
  <circle cx="1100" cy="200" r="10" fill="black"/>
  <circle cx="1000" cy="300" r="10" fill="black"/>
  <circle cx="1100" cy="300" r="10" fill="black"/>
  <line x1="1000" y1="300" x2="800" y2="100" stroke="black" stroke-width="2"/>
  <line x1="1000" y1="300" x2="1000" y2="200" stroke="black" stroke-width="2"/>
  <line x1="1000" y1="300" x2="900" y2="300" stroke="black" stroke-width="2"/>
  <circle cx="800" cy="100" r="10" fill="black"/>
  <circle cx="1000" cy="200" r="10" fill="black"/>
  <circle cx="900" cy="300" r="10" fill="black"/>
  <circle cx="1000" cy="300" r="10" fill="black"/>
  <line x1="900" y1="200" x2="900" y2="300" stroke="black" stroke-width="2"/>
  <line x1="900" y1="200" x2="1000" y2="200" stroke="black" stroke-width="2"/>
  <circle cx="900" cy="300" r="10" fill="black"/>
  <circle cx="1000" cy="200" r="10" fill="black"/>
  <circle cx="900" cy="200" r="10" fill="black"/>
  <line x1="1000" y1="100" x2="1000" y2="200" stroke="black" stroke-width="2"/>
  <line x1="1000" y1="100" x2="900" y2="200" stroke="black" stroke-width="2"/>
  <circle cx="1000" cy="200" r="10" fill="black"/>
  <circle cx="900" cy="200" r="10" fill="black"/>
  <circle cx="1000" cy="100" r="10" fill="black"/>
  <line x1="900" y1="100" x2="1100" y2="300" stroke="black" stroke-width="2"/>
  <line x1="900" y1="100" x2="900" y2="200" stroke="black" stroke-width="2"/>
  <line x1="900" y1="100" x2="1000" y2="100" stroke="black" stroke-width="2"/>
  <circle cx="1100" cy="300" r="10" fill="black"/>
  <circle cx="900" cy="200" r="10" fill="black"/>
  <circle cx="1000" cy="100" r="10" fill="black"/>
  <circle cx="900" cy="100" r="10" fill="black"/>
  <line x1="1200" y1="200" x2="1200" y2="300" stroke="black" stroke-width="2"/>
  <line x1="1200" y1="200" x2="1100" y2="300" stroke="black" stroke-width="2"/>
  <circle cx="1200" cy="300" r="10" fill="black"/>
  <circle cx="1100" cy="300" r="10" fill="black"/>
  <circle cx="1200" cy="200" r="10" fill="black"/>
  <line x1="1300" y1="200" x2="1300" y2="300" stroke="black" stroke-width="2"/>
  <line x1="1300" y1="200" x2="1200" y2="300" stroke="black" stroke-width="2"/>
  <circle cx="1300" cy="300" r="10" fill="black"/>
  <circle cx="1200" cy="300" r="10" fill="black"/>
  <circle cx="1300" cy="200" r="10" fill="black"/>
  <line x1="1200" y1="200" x2="1200" y2="300" stroke="black" stroke-width="2"/>
  <line x1="1200" y1="200" x2="1100" y2="300" stroke="black" stroke-width="2"/>
  <circle cx="1200" cy="300" r="10" fill="black"/>
  <circle cx="1100" cy="300" r="10" fill="black"/>
  <circle cx="1200" cy="200" r="10" fill="black"/>
  <line x1="900" y1="100" x2="1100" y2="300" stroke="black" stroke-width="2"/>
  <line x1="900" y1="100" x2="900" y2="200" stroke="black" stroke-width="2"/>
  <line x1="900" y1="100" x2="1000" y2="100" stroke="black" stroke-width="2"/>
  <circle cx="1100" cy="300" r="10" fill="black"/>
  <circle cx="900" cy="200" r="10" fill="black"/>
  <circle cx="1000" cy="100" r="10" fill="black"/>
  <circle cx="900" cy="100" r="10" fill="black"/>
  <line x1="900" y1="300" x2="700" y2="100" stroke="black" stroke-width="2"/>
  <line x1="900" y1="300" x2="900" y2="200" stroke="black" stroke-width="2"/>
  <line x1="900" y1="300" x2="800" y2="300" stroke="black" stroke-width="2"/>
  <circle cx="700" cy="100" r="10" fill="black"/>
  <circle cx="900" cy="200" r="10" fill="black"/>
  <circle cx="800" cy="300" r="10" fill="black"/>
  <circle cx="900" cy="300" r="10" fill="black"/>
  <line x1="900" y1="100" x2="900" y2="200" stroke="black" stroke-width="2"/>
  <line x1="900" y1="100" x2="1000" y2="100" stroke="black" stroke-width="2"/>
  <circle cx="900" cy="200" r="10" fill="black"/>
  <circle cx="1000" cy="100" r="10" fill="black"/>
  <circle cx="900" cy="100" r="10" fill="black"/>
  <line x1="1100" y1="0" x2="1100" y2="100" stroke="black" stroke-width="2"/>
  <line x1="1100" y1="0" x2="1000" y2="100" stroke="black" stroke-width="2"/>
  <circle cx="1100" cy="100" r="10" fill="black"/>
  <circle cx="1000" cy="100" r="10" fill="black"/>
  <circle cx="1100" cy="0" r="10" fill="black"/>
  <line x1="1000" y1="100" x2="1000" y2="200" stroke="black" stroke-width="2"/>
  <line x1="1000" y1="100" x2="1100" y2="100" stroke="black" stroke-width="2"/>
  <circle cx="1000" cy="200" r="10" fill="black"/>
  <circle cx="1100" cy="100" r="10" fill="black"/>
  <circle cx="1000" cy="100" r="10" fill="black"/>
  <line x1="1200" y1="0" x2="1200" y2="100" stroke="black" stroke-width="2"/>
  <line x1="1200" y1="0" x2="1100" y2="100" stroke="black" stroke-width="2"/>
  <circle cx="1200" cy="100" r="10" fill="black"/>
  <circle cx="1100" cy="100" r="10" fill="black"/>
  <circle cx="1200" cy="0" r="10" fill="black"/>
  <line x1="1400" y1="300" x2="1200" y2="100" stroke="black" stroke-width="2"/>
  <line x1="1400" y1="300" x2="1400" y2="200" stroke="black" stroke-width="2"/>
  <line x1="1400" y1="300" x2="1300" y2="300" stroke="black" stroke-width="2"/>
  <circle cx="1200" cy="100" r="10" fill="black"/>
  <circle cx="1400" cy="200" r="10" fill="black"/>
  <circle cx="1300" cy="300" r="10" fill="black"/>
  <circle cx="1400" cy="300" r="10" fill="black"/>
  <line x1="1400" y1="200" x2="1200" y2="0" stroke="black" stroke-width="2"/>
  <line x1="1400" y1="200" x2="1400" y2="100" stroke="black" stroke-width="2"/>
  <line x1="1400" y1="200" x2="1300" y2="200" stroke="black" stroke-width="2"/>
  <circle cx="1200" cy="0" r="10" fill="black"/>
  <circle cx="1400" cy="100" r="10" fill="black"/>
  <circle cx="1300" cy="200" r="10" fill="black"/>
  <circle cx="1400" cy="200" r="10" fill="black"/>
  <line x1="1200" y1="200" x2="1200" y2="300" stroke="black" stroke-width="2"/>
  <line x1="1200" y1="200" x2="1300" y2="200" stroke="black" stroke-width="2"/>
  <circle cx="1200" cy="300" r="10" fill="black"/>
  <circle cx="1300" cy="200" r="10" fill="black"/>
  <circle cx="1200" cy="200" r="10" fill="black"/>
  <line x1="1300" y1="100" x2="1300" y2="200" stroke="black" stroke-width="2"/>
  <line x1="1300" y1="100" x2="1400" y2="100" stroke="black" stroke-width="2"/>
  <circle cx="1300" cy="200" r="10" fill="black"/>
  <circle cx="1400" cy="100" r="10" fill="black"/>
  <circle cx="1300" cy="100" r="10" fill="black"/>
  <line x1="1300" y1="300" x2="1100" y2="100" stroke="black" stroke-width="2"/>
  <line x1="1300" y1="300" x2="1300" y2="200" stroke="black" stroke-width="2"/>
  <line x1="1300" y1="300" x2="1200" y2="300" stroke="black" stroke-width="2"/>
  <circle cx="1100" cy="100" r="10" fill="black"/>
  <circle cx="1300" cy="200" r="10" fill="black"/>
  <circle cx="1200" cy="300" r="10" fill="black"/>
  <circle cx="1300" cy="300" r="10" fill="black"/>
  <line x1="1300" y1="200" x2="1100" y2="0" stroke="black" stroke-width="2"/>
  <line x1="1300" y1="200" x2="1300" y2="100" stroke="black" stroke-width="2"/>
  <line x1="1300" y1="200" x2="1200" y2="200" stroke="black" stroke-width="2"/>
  <circle cx="1100" cy="0" r="10" fill="black"/>
  <circle cx="1300" cy="100" r="10" fill="black"/>
  <circle cx="1200" cy="200" r="10" fill="black"/>
  <circle cx="1300" cy="200" r="10" fill="black"/>
  <line x1="1300" y1="0" x2="1300" y2="100" stroke="black" stroke-width="2"/>
  <line x1="1300" y1="0" x2="1400" y2="0" stroke="black" stroke-width="2"/>
  <circle cx="1300" cy="100" r="10" fill="black"/>
  <circle cx="1400" cy="0" r="10" fill="black"/>
  <circle cx="1300" cy="0" r="10" fill="black"/>
  <line x1="1500" y1="-100" x2="1500" y2="0" stroke="black" stroke-width="2"/>
  <line x1="1500" y1="-100" x2="1400" y2="0" stroke="black" stroke-width="2"/>
  <circle cx="1500" cy="0" r="10" fill="black"/>
  <circle cx="1400" cy="0" r="10" fill="black"/>
  <circle cx="1500" cy="-100" r="10" fill="black"/>
  <line x1="1400" y1="-100" x2="1400" y2="0" stroke="black" stroke-width="2"/>
  <line x1="1400" y1="-100" x2="1500" y2="-100" stroke="black" stroke-width="2"/>
  <circle cx="1400" cy="0" r="10" fill="black"/>
  <circle cx="1500" cy="-100" r="10" fill="black"/>
  <circle cx="1400" cy="-100" r="10" fill="black"/>
  <line x1="1200" y1="-200" x2="1400" y2="0" stroke="black" stroke-width="2"/>
  <line x1="1200" y1="-200" x2="1200" y2="-100" stroke="black" stroke-width="2"/>
  <line x1="1200" y1="-200" x2="1300" y2="-200" stroke="black" stroke-width="2"/>
  <circle cx="1400" cy="0" r="10" fill="black"/>
  <circle cx="1200" cy="-100" r="10" fill="black"/>
  <circle cx="1300" cy="-200" r="10" fill="black"/>
  <circle cx="1200" cy="-200" r="10" fill="black"/>
  <line x1="1200" y1="-100" x2="1400" y2="100" stroke="black" stroke-width="2"/>
  <line x1="1200" y1="-100" x2="1200" y2="0" stroke="black" stroke-width="2"/>
  <line x1="1200" y1="-100" x2="1300" y2="-100" stroke="black" stroke-width="2"/>
  <circle cx="1400" cy="100" r="10" fill="black"/>
  <circle cx="1200" cy="0" r="10" fill="black"/>
  <circle cx="1300" cy="-100" r="10" fill="black"/>
  <circle cx="1200" cy="-100" r="10" fill="black"/>
  <line x1="1400" y1="100" x2="1400" y2="200" stroke="black" stroke-width="2"/>
  <line x1="1400" y1="100" x2="1300" y2="200" stroke="black" stroke-width="2"/>
  <circle cx="1400" cy="200" r="10" fill="black"/>
  <circle cx="1300" cy="200" r="10" fill="black"/>
  <circle cx="1400" cy="100" r="10" fill="black"/>
  <line x1="1100" y1="0" x2="1300" y2="200" stroke="black" stroke-width="2"/>
  <line x1="1100" y1="0" x2="1100" y2="100" stroke="black" stroke-width="2"/>
  <line x1="1100" y1="0" x2="1200" y2="0" stroke="black" stroke-width="2"/>
  <circle cx="1300" cy="200" r="10" fill="black"/>
  <circle cx="1100" cy="100" r="10" fill="black"/>
  <circle cx="1200" cy="0" r="10" fill="black"/>
  <circle cx="1100" cy="0" r="10" fill="black"/>
  <line x1="1100" y1="100" x2="1100" y2="200" stroke="black" stroke-width="2"/>
  <line x1="1100" y1="100" x2="1000" y2="200" stroke="black" stroke-width="2"/>
  <circle cx="1100" cy="200" r="10" fill="black"/>
  <circle cx="1000" cy="200" r="10" fill="black"/>
  <circle cx="1100" cy="100" r="10" fill="black"/>
  <line x1="900" y1="200" x2="900" y2="300" stroke="black" stroke-width="2"/>
  <line x1="900" y1="200" x2="1000" y2="200" stroke="black" stroke-width="2"/>
  <circle cx="900" cy="300" r="10" fill="black"/>
  <circle cx="1000" cy="200" r="10" fill="black"/>
  <circle cx="900" cy="200" r="10" fill="black"/>
  <line x1="1000" y1="100" x2="1000" y2="200" stroke="black" stroke-width="2"/>
  <line x1="1000" y1="100" x2="1100" y2="100" stroke="black" stroke-width="2"/>
  <circle cx="1000" cy="200" r="10" fill="black"/>
  <circle cx="1100" cy="100" r="10" fill="black"/>
  <circle cx="1000" cy="100" r="10" fill="black"/>
  <line x1="1100" y1="100" x2="1100" y2="200" stroke="black" stroke-width="2"/>
  <line x1="1100" y1="100" x2="1200" y2="100" stroke="black" stroke-width="2"/>
  <circle cx="1100" cy="200" r="10" fill="black"/>
  <circle cx="1200" cy="100" r="10" fill="black"/>
  <circle cx="1100" cy="100" r="10" fill="black"/>
  <line x1="1200" y1="100" x2="1400" y2="300" stroke="black" stroke-width="2"/>
  <line x1="1200" y1="100" x2="1200" y2="200" stroke="black" stroke-width="2"/>
  <line x1="1200" y1="100" x2="1300" y2="100" stroke="black" stroke-width="2"/>
  <circle cx="1400" cy="300" r="10" fill="black"/>
  <circle cx="1200" cy="200" r="10" fill="black"/>
  <circle cx="1300" cy="100" r="10" fill="black"/>
  <circle cx="1200" cy="100" r="10" fill="black"/>
  <line x1="1300" y1="0" x2="1300" y2="100" stroke="black" stroke-width="2"/>
  <line x1="1300" y1="0" x2="1400" y2="0" stroke="black" stroke-width="2"/>
  <circle cx="1300" cy="100" r="10" fill="black"/>
  <circle cx="1400" cy="0" r="10" fill="black"/>
  <circle cx="1300" cy="0" r="10" fill="black"/>
  <line x1="1200" y1="100" x2="1400" y2="300" stroke="black" stroke-width="2"/>
  <line x1="1200" y1="100" x2="1200" y2="200" stroke="black" stroke-width="2"/>
  <line x1="1200" y1="100" x2="1300" y2="100" stroke="black" stroke-width="2"/>
  <circle cx="1400" cy="300" r="10" fill="black"/>
  <circle cx="1200" cy="200" r="10" fill="black"/>
  <circle cx="1300" cy="100" r="10" fill="black"/>
  <circle cx="1200" cy="100" r="10" fill="black"/>
  <line x1="1400" y1="400" x2="1200" y2="200" stroke="black" stroke-width="2"/>
  <line x1="1400" y1="400" x2="1400" y2="300" stroke="black" stroke-width="2"/>
  <line x1="1400" y1="400" x2="1300" y2="400" stroke="black" stroke-width="2"/>
  <circle cx="1200" cy="200" r="10" fill="black"/>
  <circle cx="1400" cy="300" r="10" fill="black"/>
  <circle cx="1300" cy="400" r="10" fill="black"/>
  <circle cx="1400" cy="400" r="10" fill="black"/>
  <line x1="1400" y1="200" x2="1400" y2="300" stroke="black" stroke-width="2"/>
  <line x1="1400" y1="200" x2="1300" y2="300" stroke="black" stroke-width="2"/>
  <circle cx="1400" cy="300" r="10" fill="black"/>
  <circle cx="1300" cy="300" r="10" fill="black"/>
  <circle cx="1400" cy="200" r="10" fill="black"/>
  <line x1="1300" y1="200" x2="1300" y2="300" stroke="green" stroke-width="7"/>
  <line x1="1300" y1="200" x2="1400" y2="200" stroke="green" stroke-width="7"/>
  <circle cx="1300" cy="300" r="10" fill="black"/>
  <circle cx="1400" cy="200" r="10" fill="black"/>
  <circle cx="1300" cy="200" r="10" fill="black"/>
  <circle cx="0" cy="0" r="11" fill="purple"/>
</svg>
