<REAPER_PROJECT 0.1 "6.45/OSX64" 1648824561
  RIPPLE 0
  GROUPOVERRIDE 0 0 0
  AUTOXFADE 1
  ENVATTACH 3
  POOLEDENVATTACH 0
  MIXERUIFLAGS 11 48
  PEAKGAIN 1
  FEEDBACK 0
  PANLAW 1
  PROJOFFS 0 0 0
  MAXPROJLEN 0 600
  GRID 3454 8 1 8 1 0 0 0
  TIMEMODE 1 5 -1 30 0 0 -1
  VIDEO_CONFIG 0 0 256
  PANMODE 3
  CURSOR 323.46769951093148
  ZOOM 0.27637999137215 0 0
  VZOOMEX 6 0
  USE_REC_CFG 0
  RECMODE 1
  SMPTESYNC 0 30 100 40 1000 300 0 0 1 0 0
  LOOP 0
  LOOPGRAN 0 4
  RECORD_PATH "" ""
  <RECORD_CFG
  >
  <APPLYFX_CFG
  >
  RENDER_FILE ""
  RENDER_PATTERN ""
  RENDER_FMT 0 2 0
  RENDER_1X 0
  RENDER_RANGE 1 0 0 18 1000
  RENDER_RESAMPLE 3 0 1
  RENDER_ADDTOPROJ 0
  RENDER_STEMS 0
  RENDER_DITHER 0
  TIMELOCKMODE 1
  TEMPOENVLOCKMODE 1
  ITEMMIX 0
  DEFPITCHMODE 589824 0
  TAKELANE 1
  SAMPLERATE 44100 0 0
  <RENDER_CFG
  >
  LOCK 1
  <METRONOME 6 2
    VOL 0.25 0.125
    FREQ 800 1600 1
    BEATLEN 4
    SAMPLES "" ""
    PATTERN 2863311530 2863311529
    MULT 1
  >
  GLOBAL_AUTO -1
  TEMPO 120 4 4
  PLAYRATE 1 0 0.25 4
  SELECTION 2038.9782215187699 2043.104594066366
  SELECTION2 2038.9782215187699 2043.104594066366
  MASTERAUTOMODE 0
  MASTERTRACKHEIGHT 0 0
  MASTERPEAKCOL 16576
  MASTERMUTESOLO 0
  MASTERTRACKVIEW 0 0.6667 0.5 0.5 0 -1 0 0 0 0 -1 -1 0
  MASTERHWOUT 0 0 1 0 0 0 0 -1
  MASTER_NCH 2 2
  MASTER_VOLUME 1 0 -1 -1 1
  MASTER_FX 1
  MASTER_SEL 0
  <MASTERPLAYSPEEDENV
    EGUID {CA28D298-5BC6-AB99-4166-971D1A128298}
    ACT 0 -1
    VIS 0 1 1
    LANEHEIGHT 0 0
    ARM 0
    DEFSHAPE 0 -1 -1
  >
  <TEMPOENVEX
    EGUID {BFC0309C-62B8-FA7F-6066-AAE400248C74}
    ACT 0 -1
    VIS 1 0 1
    LANEHEIGHT 0 0
    ARM 0
    DEFSHAPE 1 -1 -1
  >
  MARKER 2 77.20162404809959 "" 0 0 1 B {48D13083-6245-8D4E-975E-2EF881A2B933}
  MARKER 9 113.84522347726926 "" 0 0 1 B {19F6FB73-0AF5-4E44-8048-4C8CEFAD679F}
  MARKER 1 407.56489795918418 "" 0 0 1 B {EE4B269A-9282-134C-8758-0DA779F34E30}
  MARKER 3 1029.0813151927443 "" 0 0 1 B {670340EF-C0A1-EF4D-BA96-61C8DA7C12F7}
  MARKER 4 1711.0573798648302 "" 0 0 1 B {1755AE01-1303-EB40-A064-0E19EAAB3D60}
  MARKER 5 1741.3611111111118 "" 0 0 1 B {F329B445-3A29-D049-B48B-C2607BCB0280}
  MARKER 7 1868.4634180797987 "" 0 0 1 B {24E38D29-21E1-9049-ADA0-4B1C03326A39}
  MARKER 6 1906.4108249012509 "" 0 0 1 B {3F966A60-3690-694C-BF59-821CA85A5465}
  MARKER 8 1922.6309063504418 "" 0 0 1 B {503A1FE4-8182-DB43-BE55-0DDEBD7897FC}
  <PROJBAY
  >
  <TRACK {DA8A7F10-1474-C99E-7FBC-19ED22BD6A41}
    NAME ""
    PEAKCOL 16576
    BEAT -1
    AUTOMODE 0
    VOLPAN 1 0 -1 -1 1
    MUTESOLO 0 0 0
    IPHASE 0
    PLAYOFFS 0 1
    ISBUS 0 0
    BUSCOMP 0 0 0 0 0
    SHOWINMIX 1 0.6667 0.5 1 0.5 0 -1 0
    FREEMODE 0
    SEL 0
    REC 0 4096 1 0 0 0 0
    VU 2
    TRACKHEIGHT 139 0 0 0 0 0
    INQ 0 0 0 0.5 100 0 0 100
    NCHAN 2
    FX 1
    TRACKID {DA8A7F10-1474-C99E-7FBC-19ED22BD6A41}
    PERF 0
    MIDIOUT 160
    MAINSEND 1 0
    <ITEM
      POSITION 307.46579187916359
      SNAPOFFS 0
      LENGTH 3150.6694864303108
      LOOP 1
      ALLTAKES 0
      FADEIN 1 0 0 1 0 0 0
      FADEOUT 1 0 0 1 0 0 0
      MUTE 0 0
      SEL 1
      IGUID {FFD74372-C2FA-3148-B88F-A4C8F1C06DEA}
      IID 17
      NAME "01-Recorded MIDI-glued"
      VOLPAN 1 0 1 -1
      SOFFS 0 0
      PLAYRATE 1 1 0 -1 0 0.0025
      CHANMODE 0
      GUID {D99BF1A7-6AE9-8541-8229-7A6D0E0651A2}
      <SOURCE MIDI
        HASDATA 1 960 QN
        CCINTERP 32
        POOLEDEVTS {2538A094-944B-964A-98E7-C8D7FA292052}
        E 331621 90 29 64
        E 0 90 30 64
        E 0 90 34 64
        E 0 90 3b 64
        E 19569 80 30 64
        E 0 80 34 64
        E 1 80 29 64
        E 0 80 3b 64
        E 34595 90 29 64
        E 312 90 2f 64
        E 179 90 34 64
        E 178 90 3b 64
        E 47302 80 29 64
        E 0 80 2f 64
        E 0 80 34 64
        E 0 80 3b 64
        E 13464 90 03 64
        E 0 90 16 64
        E 10566 90 29 64
        E 1337 90 2f 64
        E 401 80 29 64
        E 268 90 34 64
        E 178 80 2f 64
        E 134 90 3a 64
        E 134 80 34 64
        E 223 90 3c 64
        E 89 80 3a 64
        E 178 90 43 64
        E 89 80 3c 64
        E 179 90 47 64
        E 89 80 43 64
        E 357 91 3c 64
        E 178 80 47 64
        E 401 90 3b 64
        E 669 90 42 64
        E 3120 81 3c 64
        E 536 80 3b 64
        E 44 80 03 64
        E 0 80 16 64
        E 134 80 42 64
        E 28666 91 1e 64
        E 89 90 30 64
        E 45 91 28 64
        E 89 90 3a 64
        E 3611 81 1e 64
        E 0 80 30 64
        E 0 81 28 64
        E 0 80 3a 64
        E 446 90 3c 64
        E 0 90 43 64
        E 0 91 3d 64
        E 0 90 47 64
        E 1917 80 3c 64
        E 0 80 43 64
        E 0 81 3d 64
        E 0 80 47 64
        E 2541 91 1e 64
        E 0 90 3a 64
        E 134 90 2f 64
        E 134 91 28 64
        E 4948 90 3c 64
        E 179 80 3a 64
        E 5171 90 34 64
        E 402 80 3c 64
        E 2496 81 1e 64
        E 0 80 2f 64
        E 0 81 28 64
        E 0 80 34 64
        E 86401 91 1e 64
        E 44 90 30 64
        E 90 91 28 64
        E 44 90 3a 64
        E 7490 81 1e 64
        E 0 80 30 64
        E 0 81 28 64
        E 0 80 3a 64
        E 23049 90 03 64
        E 0 90 16 64
        E 2318 90 3a 64
        E 0 91 28 64
        E 0 91 2f 64
        E 2006 80 3a 64
        E 0 81 28 64
        E 0 81 2f 64
        E 0 91 2f 64
        E 0 90 43 64
        E 0 90 3a 64
        E 1561 81 2f 64
        E 0 80 43 64
        E 0 80 3a 64
        E 0 90 47 64
        E 0 90 3c 64
        E 0 90 42 64
        E 981 80 47 64
        E 0 80 3c 64
        E 0 80 42 64
        E 0 90 3b 64
        E 223 90 42 64
        E 223 90 47 64
        E 222 91 3c 64
        E 2898 80 3b 64
        E 0 80 42 64
        E 0 80 47 64
        E 0 81 3c 64
        E 5885 91 1e 64
        E 223 90 30 64
        E 45 81 1e 64
        E 133 91 28 64
        E 90 80 30 64
        E 133 90 3a 64
        E 90 81 28 64
        E 133 90 3c 64
        E 45 80 3a 64
        E 178 90 42 64
        E 45 80 3c 64
        E 178 90 47 64
        E 45 80 42 64
        E 133 90 4a 64
        E 90 80 47 64
        E 133 90 3b 64
        E 89 80 4a 64
        E 134 90 43 64
        E 45 80 3b 64
        E 178 80 03 64
        E 0 80 16 64
        E 45 80 43 64
        E 32589 90 03 64
        E 0 90 16 64
        E 3433 91 1e 64
        E 178 90 30 64
        E 45 81 1e 64
        E 89 91 28 64
        E 89 80 30 64
        E 90 90 3a 64
        E 44 81 28 64
        E 134 90 3c 64
        E 44 80 3a 64
        E 90 90 42 64
        E 44 80 3c 64
        E 179 80 42 64
        E 2050 90 29 64
        E 1204 90 2f 64
        E 357 80 29 64
        E 223 90 34 64
        E 312 90 3a 64
        E 89 80 34 64
        E 223 90 3c 64
        E 223 90 43 64
        E 401 90 47 64
        E 89 80 2f 64
        E 45 80 43 64
        E 356 90 3b 64
        E 134 80 47 64
        E 357 80 3a 64
        E 0 90 42 64
        E 133 80 3b 64
        E 179 80 3c 64
        E 446 80 42 64
        E 1203 80 03 64
        E 0 80 16 64
        E 3834 91 3c 64
        E 0 90 4a 64
        E 30718 81 3c 64
        E 0 80 4a 64
        E 758 91 1e 64
        E 89 90 30 64
        E 44 91 28 64
        E 89 90 3a 64
        E 7446 81 1e 64
        E 0 80 30 64
        E 0 81 28 64
        E 0 80 3a 64
        E 669 90 29 64
        E 312 90 2f 64
        E 178 91 28 64
        E 178 90 3a 64
        E 17566 80 29 64
        E 0 80 2f 64
        E 0 81 28 64
        E 0 80 3a 64
        E 42219 90 29 64
        E 89 90 2f 64
        E 45 91 28 64
        E 89 90 3a 64
        E 758 80 29 64
        E 0 80 2f 64
        E 0 81 28 64
        E 0 80 3a 64
        E 21087 90 29 64
        E 89 90 2f 64
        E 45 91 28 64
        E 89 90 3a 64
        E 1159 80 29 64
        E 0 80 2f 64
        E 0 81 28 64
        E 0 80 3a 64
        E 17254 90 29 64
        E 535 80 29 64
        E 0 90 3b 64
        E 0 90 30 64
        E 0 90 34 64
        E 535 80 3b 64
        E 0 80 30 64
        E 0 80 34 64
        E 0 91 1e 64
        E 535 81 1e 64
        E 0 90 2f 64
        E 0 90 3c 64
        E 0 90 34 64
        E 535 80 2f 64
        E 0 80 3c 64
        E 0 80 34 64
        E 0 91 1e 64
        E 579 81 1e 64
        E 0 90 3a 64
        E 0 90 34 64
        E 0 90 30 64
        E 535 80 3a 64
        E 0 80 34 64
        E 0 80 30 64
        E 0 90 29 64
        E 535 80 29 64
        E 669 91 1e 64
        E 0 90 34 64
        E 0 90 3b 64
        E 0 90 29 64
        E 0 90 3a 64
        E 0 91 2e 64
        E 119035 81 1e 64
        E 0 80 34 64
        E 0 80 3b 64
        E 0 80 29 64
        E 0 80 3a 64
        E 0 81 2e 64
        E 356 90 4a 64
        E 0 91 3c 64
        E 11503 80 4a 64
        E 0 81 3c 64
        E 1070 90 29 64
        E 89 90 30 64
        E 134 90 34 64
        E 2452 80 29 64
        E 0 80 30 64
        E 0 80 34 64
        E 23049 90 29 64
        E 0 90 2f 64
        E 0 90 34 64
        E 1649 80 29 64
        E 0 80 2f 64
        E 0 80 34 64
        E 47971 90 29 64
        E 579 80 29 64
        E 0 90 3b 64
        E 0 90 30 64
        E 0 90 34 64
        E 580 80 3b 64
        E 0 80 30 64
        E 0 80 34 64
        E 0 91 1e 64
        E 535 81 1e 64
        E 0 90 3c 64
        E 0 90 34 64
        E 0 90 2f 64
        E 579 80 3c 64
        E 0 80 34 64
        E 0 80 2f 64
        E 0 90 06 64
        E 580 80 06 64
        E 0 90 34 64
        E 0 90 3a 64
        E 0 90 30 64
        E 535 80 34 64
        E 0 80 3a 64
        E 0 80 30 64
        E 0 90 29 64
        E 580 80 29 64
        E 0 90 3b 64
        E 0 90 1d 64
        E 0 91 17 64
        E 579 80 3b 64
        E 0 80 1d 64
        E 0 81 17 64
        E 0 90 3b 64
        E 0 90 34 64
        E 0 90 30 64
        E 535 80 3b 64
        E 0 80 34 64
        E 0 80 30 64
        E 0 90 34 64
        E 0 90 30 64
        E 0 91 2f 64
        E 580 80 34 64
        E 0 80 30 64
        E 0 81 2f 64
        E 0 90 29 64
        E 579 80 29 64
        E 0 91 17 64
        E 0 90 1c 64
        E 0 90 27 64
        E 535 81 17 64
        E 0 80 1c 64
        E 0 80 27 64
        E 62728 90 29 64
        E 401 90 2f 64
        E 401 90 34 64
        E 446 80 29 64
        E 0 80 2f 64
        E 0 80 34 64
        E 0 90 29 64
        E 356 90 2f 64
        E 402 90 34 64
        E 847 80 29 64
        E 0 80 2f 64
        E 0 80 34 64
        E 0 90 29 64
        E 401 90 2f 64
        E 357 90 34 64
        E 579 80 29 64
        E 0 80 2f 64
        E 0 80 34 64
        E 15203 90 06 64
        E 535 80 06 64
        E 0 90 30 64
        E 0 90 3a 64
        E 0 90 34 64
        E 580 80 30 64
        E 0 80 3a 64
        E 0 80 34 64
        E 0 90 3c 64
        E 0 91 28 64
        E 0 90 1c 64
        E 534 80 3c 64
        E 0 81 28 64
        E 0 80 1c 64
        E 0 91 1e 64
        E 535 81 1e 64
        E 0 90 2f 64
        E 0 91 17 64
        E 0 91 2f 64
        E 535 80 2f 64
        E 0 81 17 64
        E 0 81 2f 64
        E 0 90 19 64
        E 535 80 19 64
        E 0 90 28 64
        E 0 90 1d 64
        E 0 90 21 64
        E 535 80 28 64
        E 0 80 1d 64
        E 0 80 21 64
        E 5841 90 06 64
        E 44 90 1d 64
        E 89 90 21 64
        E 45 90 3a 64
        E 82566 80 06 64
        E 0 80 1d 64
        E 0 80 21 64
        E 0 80 3a 64
        E 32635 90 03 64
        E 0 90 16 64
        E 3477 91 1e 64
        E 223 90 30 64
        E 267 91 28 64
        E 90 80 30 64
        E 178 90 3a 64
        E 45 81 28 64
        E 133 81 1e 64
        E 45 90 3c 64
        E 267 90 42 64
        E 45 80 3c 64
        E 178 90 47 64
        E 45 80 3a 64
        E 44 80 42 64
        E 179 90 3b 64
        E 89 80 47 64
        E 178 90 43 64
        E 45 80 3b 64
        E 178 91 3c 64
        E 89 80 43 64
        E 268 81 3c 64
        E 4503 90 34 64
        E 356 90 3a 64
        E 357 91 2f 64
        E 936 80 34 64
        E 0 80 3a 64
        E 0 81 2f 64
        E 0 90 3a 64
        E 312 91 2f 64
        E 357 90 43 64
        E 936 80 3a 64
        E 0 81 2f 64
        E 0 80 43 64
        E 0 90 47 64
        E 0 90 3c 64
        E 0 90 43 64
        E 3210 80 47 64
        E 0 80 3c 64
        E 0 80 43 64
        E 0 90 3b 64
        E 178 90 43 64
        E 179 90 47 64
        E 178 91 3c 64
        E 3790 80 03 64
        E 0 80 16 64
        E 0 80 3b 64
        E 0 80 43 64
        E 0 80 47 64
        E 0 81 3c 64
        E 0 90 43 64
        E 0 91 2f 64
        E 0 90 3a 64
        E 847 80 43 64
        E 0 81 2f 64
        E 0 80 3a 64
        E 0 90 43 64
        E 0 90 3c 64
        E 0 90 47 64
        E 891 80 43 64
        E 0 80 3c 64
        E 0 80 47 64
        E 0 90 43 64
        E 0 91 3c 64
        E 0 90 47 64
        E 0 90 3b 64
        E 892 80 43 64
        E 0 81 3c 64
        E 0 80 47 64
        E 0 80 3b 64
        E 44 90 03 64
        E 0 90 16 64
        E 4414 91 1e 64
        E 134 90 1d 64
        E 44 81 1e 64
        E 134 91 39 64
        E 45 80 1d 64
        E 89 90 14 64
        E 45 81 39 64
        E 133 90 3c 64
        E 45 80 14 64
        E 89 90 42 64
        E 45 80 3c 64
        E 133 90 21 64
        E 45 80 42 64
        E 89 90 3a 64
        E 45 80 21 64
        E 133 90 1d 64
        E 45 80 3a 64
        E 89 91 3c 64
        E 45 80 1d 64
        E 134 80 03 64
        E 0 80 16 64
        E 44 81 3c 64
        E 17209 90 29 64
        E 89 90 2f 64
        E 89 90 34 64
        E 89 90 3b 64
        E 223 80 29 64
        E 0 80 2f 64
        E 0 80 34 64
        E 0 80 3b 64
        E 0 90 29 64
        E 89 90 2f 64
        E 90 90 34 64
        E 89 90 3b 64
        E 178 80 29 64
        E 0 80 2f 64
        E 0 80 34 64
        E 0 80 3b 64
        E 0 90 29 64
        E 89 90 2f 64
        E 89 90 34 64
        E 90 90 3b 64
        E 178 80 29 64
        E 0 80 2f 64
        E 0 80 34 64
        E 0 80 3b 64
        E 0 90 29 64
        E 89 90 2f 64
        E 89 90 34 64
        E 89 90 3b 64
        E 223 80 29 64
        E 0 80 2f 64
        E 0 80 34 64
        E 0 80 3b 64
        E 0 90 29 64
        E 90 90 2f 64
        E 89 90 34 64
        E 89 90 3b 64
        E 178 80 29 64
        E 0 80 2f 64
        E 0 80 34 64
        E 0 80 3b 64
        E 17655 90 3b 64
        E 178 90 29 64
        E 178 90 30 64
        E 714 90 34 64
        E 7178 80 3b 64
        E 0 80 29 64
        E 0 80 30 64
        E 0 80 34 64
        E 668 90 29 64
        E 0 90 30 64
        E 45 90 24 64
        E 89 90 34 64
        E 7178 80 29 64
        E 0 80 30 64
        E 0 80 24 64
        E 0 80 34 64
        E 446 90 24 64
        E 0 90 1e 64
        E 89 90 29 64
        E 89 90 30 64
        E 7846 80 24 64
        E 0 80 1e 64
        E 0 80 29 64
        E 0 80 30 64
        E 45 90 29 64
        E 45 90 1e 64
        E 133 90 24 64
        E 45 90 19 64
        E 8337 80 29 64
        E 0 80 1e 64
        E 0 80 24 64
        E 0 80 19 64
        E 2764 90 34 64
        E 0 90 3b 64
        E 357 90 29 64
        E 0 90 30 64
        E 6509 80 34 64
        E 0 80 3b 64
        E 0 80 29 64
        E 0 80 30 64
        E 1694 91 28 64
        E 490 91 1a 64
        E 45 91 1e 64
        E 178 90 2f 64
        E 7267 81 28 64
        E 0 81 1a 64
        E 0 81 1e 64
        E 0 80 2f 64
        E 1204 90 30 64
        E 44 90 1e 64
        E 179 90 24 64
        E 44 90 29 64
        E 7847 80 30 64
        E 0 80 1e 64
        E 0 80 24 64
        E 0 80 29 64
        E 535 90 19 64
        E 579 90 1e 64
        E 580 90 24 64
        E 89 90 29 64
        E 5885 80 19 64
        E 0 80 1e 64
        E 0 80 24 64
        E 0 80 29 64
        E 0 90 3b 64
        E 490 90 30 64
        E 0 90 34 64
        E 223 90 29 64
        E 7356 80 3b 64
        E 0 80 30 64
        E 0 80 34 64
        E 0 80 29 64
        E 2675 90 2f 64
        E 446 91 28 64
        E 44 91 1a 64
        E 357 91 1e 64
        E 7445 80 2f 64
        E 0 81 28 64
        E 0 81 1a 64
        E 0 81 1e 64
        E 1917 91 1e 64
        E 45 90 2f 64
        E 312 91 14 64
        E 178 91 1a 64
        E 6465 81 1e 64
        E 0 80 2f 64
        E 0 81 14 64
        E 0 81 1a 64
        E 891 90 19 64
        E 134 90 1e 64
        E 179 90 24 64
        E 44 90 29 64
        E 7490 80 19 64
        E 0 80 1e 64
        E 0 80 24 64
        E 0 80 29 64
        E 535 90 30 64
        E 0 90 29 64
        E 0 90 3b 64
        E 268 90 34 64
        E 8203 80 30 64
        E 0 80 29 64
        E 0 80 3b 64
        E 0 80 34 64
        E 312 91 1a 64
        E 0 91 1e 64
        E 133 91 28 64
        E 45 90 2f 64
        E 6821 81 1a 64
        E 0 81 1e 64
        E 0 81 28 64
        E 0 80 2f 64
        E 2541 90 2f 64
        E 0 91 1a 64
        E 0 91 1e 64
        E 357 91 14 64
        E 7490 80 2f 64
        E 0 81 1a 64
        E 0 81 1e 64
        E 0 81 14 64
        E 1739 91 14 64
        E 44 91 1e 64
        E 89 91 1a 64
        E 936 91 10 64
        E 7446 81 14 64
        E 0 81 1e 64
        E 0 81 1a 64
        E 0 81 10 64
        E 713 90 3a 64
        E 134 90 2f 64
        E 134 91 28 64
        E 89 91 1e 64
        E 6865 80 3a 64
        E 0 80 2f 64
        E 0 81 28 64
        E 0 81 1e 64
        E 714 91 09 64
        E 89 91 17 64
        E 178 91 0d 64
        E 312 90 1c 64
        E 7178 81 09 64
        E 0 81 17 64
        E 0 81 0d 64
        E 0 80 1c 64
        E 134 90 2f 64
        E 446 91 1e 64
        E 223 91 14 64
        E 401 91 1a 64
        E 7445 80 2f 64
        E 0 81 1e 64
        E 0 81 14 64
        E 0 81 1a 64
        E 2408 91 1a 64
        E 89 91 10 64
        E 44 91 1e 64
        E 179 91 14 64
        E 6865 81 1a 64
        E 0 81 10 64
        E 0 81 1e 64
        E 0 81 14 64
        E 1739 90 3b 64
        E 0 90 30 64
        E 134 90 29 64
        E 0 90 34 64
        E 7846 80 3b 64
        E 0 80 30 64
        E 0 80 29 64
        E 0 80 34 64
        E 713 91 1a 64
        E 45 91 1e 64
        E 1025 90 2f 64
        E 134 91 28 64
        E 7356 81 1a 64
        E 0 81 1e 64
        E 0 80 2f 64
        E 0 81 28 64
        E 1026 91 1a 64
        E 490 90 2f 64
        E 312 91 14 64
        E 179 91 1e 64
        E 5706 81 1a 64
        E 0 80 2f 64
        E 0 81 14 64
        E 0 81 1e 64
        E 89 91 1e 64
        E 491 91 10 64
        E 356 91 14 64
        E 0 91 1a 64
        E 7133 81 1e 64
        E 0 81 10 64
        E 0 81 14 64
        E 0 81 1a 64
        E 2764 90 34 64
        E 45 90 29 64
        E 178 90 30 64
        E 357 90 3b 64
        E 7579 80 34 64
        E 0 80 29 64
        E 0 80 30 64
        E 0 80 3b 64
        E 1783 90 29 64
        E 45 90 34 64
        E 89 90 30 64
        E 669 90 24 64
        E 6375 80 29 64
        E 0 80 34 64
        E 0 80 30 64
        E 0 80 24 64
        E 758 91 1a 64
        E 178 91 14 64
        E 847 90 2f 64
        E 1 91 1e 64
        E 6910 81 1a 64
        E 0 81 14 64
        E 0 80 2f 64
        E 0 81 1e 64
        E 9228 90 24 64
        E 0 90 29 64
        E 0 90 2f 64
        E 2140 80 24 64
        E 0 80 29 64
        E 0 80 2f 64
        E 1026 90 26 64
        E 0 91 21 64
        E 0 90 31 64
        E 1917 80 26 64
        E 0 81 21 64
        E 0 80 31 64
        E 7311 90 24 64
        E 0 90 29 64
        E 0 90 2f 64
        E 1917 80 24 64
        E 0 80 29 64
        E 0 80 2f 64
        E 1828 90 26 64
        E 0 91 21 64
        E 0 90 31 64
        E 2006 80 26 64
        E 0 81 21 64
        E 0 80 31 64
        E 3834 90 29 64
        E 0 90 2f 64
        E 0 90 34 64
        E 6153 80 29 64
        E 0 80 2f 64
        E 0 80 34 64
        E 7801 90 24 64
        E 0 90 29 64
        E 0 90 2f 64
        E 3478 80 24 64
        E 0 80 29 64
        E 0 80 2f 64
        E 357 90 26 64
        E 0 91 21 64
        E 0 90 31 64
        E 1694 80 26 64
        E 0 81 21 64
        E 0 80 31 64
        E 2051 90 24 64
        E 0 90 29 64
        E 0 90 2f 64
        E 3655 80 24 64
        E 0 80 29 64
        E 0 80 2f 64
        E 1516 90 26 64
        E 0 91 21 64
        E 0 90 31 64
        E 535 80 26 64
        E 0 81 21 64
        E 0 80 31 64
        E 5751 90 24 64
        E 0 90 29 64
        E 0 90 2f 64
        E 446 80 24 64
        E 0 80 29 64
        E 0 80 2f 64
        E 401 90 26 64
        E 0 91 21 64
        E 0 90 31 64
        E 357 80 26 64
        E 0 81 21 64
        E 0 80 31 64
        E 32679 90 24 64
        E 0 90 29 64
        E 0 90 2f 64
        E 2140 80 24 64
        E 0 80 29 64
        E 0 80 2f 64
        E 1025 90 26 64
        E 0 91 21 64
        E 0 90 31 64
        E 1917 80 26 64
        E 0 81 21 64
        E 0 80 31 64
        E 401 90 24 64
        E 0 90 29 64
        E 0 90 2f 64
        E 2140 80 24 64
        E 0 80 29 64
        E 0 80 2f 64
        E 1026 90 26 64
        E 0 91 21 64
        E 0 90 31 64
        E 1917 80 26 64
        E 0 81 21 64
        E 0 80 31 64
        E 13464 90 24 64
        E 0 90 29 64
        E 0 90 2f 64
        E 1917 80 24 64
        E 0 80 29 64
        E 0 80 2f 64
        E 1783 90 26 64
        E 0 91 21 64
        E 0 90 31 64
        E 2006 80 26 64
        E 0 81 21 64
        E 0 80 31 64
        E 9630 90 34 64
        E 0 90 29 64
        E 0 90 2f 64
        E 6152 80 34 64
        E 0 80 29 64
        E 0 80 2f 64
        E 2007 90 24 64
        E 0 90 29 64
        E 0 90 2f 64
        E 3521 80 24 64
        E 1 80 29 64
        E 0 80 2f 64
        E 312 90 26 64
        E 0 91 21 64
        E 0 90 31 64
        E 1694 80 26 64
        E 0 81 21 64
        E 0 80 31 64
        E 2051 90 24 64
        E 0 90 29 64
        E 0 90 2f 64
        E 1738 80 24 64
        E 0 80 29 64
        E 0 80 2f 64
        E 1917 90 26 64
        E 0 91 21 64
        E 0 90 31 64
        E 2274 80 26 64
        E 0 81 21 64
        E 0 80 31 64
        E 46098 90 29 64
        E 0 90 24 64
        E 0 90 2f 64
        E 2140 80 29 64
        E 0 80 24 64
        E 0 80 2f 64
        E 1025 90 26 64
        E 0 91 21 64
        E 0 90 31 64
        E 1917 80 26 64
        E 0 81 21 64
        E 0 80 31 64
        E 402 90 24 64
        E 0 90 29 64
        E 0 90 2f 64
        E 2140 80 24 64
        E 0 80 29 64
        E 0 80 2f 64
        E 1025 90 26 64
        E 0 91 21 64
        E 0 90 31 64
        E 1917 80 26 64
        E 0 81 21 64
        E 0 80 31 64
        E 401 90 24 64
        E 0 90 29 64
        E 0 90 2f 64
        E 2185 80 24 64
        E 0 80 29 64
        E 0 80 2f 64
        E 981 90 26 64
        E 0 91 21 64
        E 0 90 31 64
        E 1961 80 26 64
        E 0 81 21 64
        E 0 80 31 64
        E 2140 90 24 64
        E 0 90 29 64
        E 0 90 2f 64
        E 3611 80 24 64
        E 0 80 29 64
        E 0 80 2f 64
        E 223 90 24 64
        E 0 90 29 64
        E 0 90 2f 64
        E 491 80 24 64
        E 0 80 29 64
        E 0 80 2f 64
        E 223 90 24 64
        E 0 90 29 64
        E 0 90 2f 64
        E 133 80 24 64
        E 0 80 29 64
        E 0 80 2f 64
        E 1695 90 24 64
        E 0 90 29 64
        E 0 90 2f 64
        E 44 80 24 64
        E 0 80 29 64
        E 0 80 2f 64
        E 5751 90 24 64
        E 0 90 29 64
        E 0 90 2f 64
        E 1917 80 24 64
        E 0 80 29 64
        E 0 80 2f 64
        E 1828 90 31 64
        E 0 90 26 64
        E 0 91 21 64
        E 2006 80 31 64
        E 0 80 26 64
        E 0 81 21 64
        E 1917 90 29 64
        E 0 90 2f 64
        E 0 90 34 64
        E 13464 80 29 64
        E 0 80 2f 64
        E 0 80 34 64
        E 2051 90 24 64
        E 0 90 29 64
        E 0 90 2f 64
        E 2318 80 24 64
        E 0 80 29 64
        E 0 80 2f 64
        E 1561 90 26 64
        E 0 91 21 64
        E 0 90 31 64
        E 1203 80 26 64
        E 0 81 21 64
        E 0 80 31 64
        E 17298 90 24 64
        E 0 90 29 64
        E 0 90 2f 64
        E 3612 80 24 64
        E 0 80 29 64
        E 0 80 2f 64
        E 222 90 24 64
        E 0 90 29 64
        E 0 90 2f 64
        E 491 80 24 64
        E 0 80 29 64
        E 0 80 2f 64
        E 223 90 24 64
        E 0 90 29 64
        E 0 90 2f 64
        E 89 80 24 64
        E 0 80 29 64
        E 0 80 2f 64
        E 1694 90 24 64
        E 0 90 29 64
        E 0 90 2f 64
        E 89 80 24 64
        E 0 80 29 64
        E 0 80 2f 64
        E 357 90 24 64
        E 0 90 29 64
        E 0 90 2f 64
        E 3611 80 24 64
        E 0 80 29 64
        E 0 80 2f 64
        E 223 90 24 64
        E 0 90 29 64
        E 0 90 2f 64
        E 490 80 24 64
        E 0 80 29 64
        E 0 80 2f 64
        E 223 90 24 64
        E 0 90 29 64
        E 0 90 2f 64
        E 134 80 24 64
        E 0 80 29 64
        E 0 80 2f 64
        E 1694 90 24 64
        E 0 90 29 64
        E 0 90 2f 64
        E 45 80 24 64
        E 0 80 29 64
        E 0 80 2f 64
        E 401 90 24 64
        E 0 90 29 64
        E 0 90 2f 64
        E 3611 80 24 64
        E 0 80 29 64
        E 0 80 2f 64
        E 223 90 2f 64
        E 0 90 24 64
        E 0 90 29 64
        E 490 80 2f 64
        E 0 80 24 64
        E 0 80 29 64
        E 223 90 24 64
        E 0 90 29 64
        E 0 90 2f 64
        E 90 80 24 64
        E 0 80 29 64
        E 0 80 2f 64
        E 1694 90 24 64
        E 0 90 29 64
        E 0 90 2f 64
        E 89 80 24 64
        E 0 80 29 64
        E 0 80 2f 64
        E 356 90 24 64
        E 0 90 29 64
        E 0 90 2f 64
        E 2185 80 24 64
        E 0 80 29 64
        E 0 80 2f 64
        E 1025 90 26 64
        E 0 91 21 64
        E 0 90 31 64
        E 1917 80 26 64
        E 0 81 21 64
        E 0 80 31 64
        E 357 90 24 64
        E 0 90 29 64
        E 0 90 2f 64
        E 2185 80 24 64
        E 0 80 29 64
        E 0 80 2f 64
        E 1025 90 26 64
        E 0 91 21 64
        E 0 90 31 64
        E 1917 80 26 64
        E 0 81 21 64
        E 0 80 31 64
        E 357 90 24 64
        E 0 90 29 64
        E 0 90 2f 64
        E 2184 80 24 64
        E 0 80 29 64
        E 0 80 2f 64
        E 1026 90 26 64
        E 0 91 21 64
        E 0 90 31 64
        E 1917 80 26 64
        E 0 81 21 64
        E 0 80 31 64
        E 401 90 24 64
        E 0 90 29 64
        E 0 90 2f 64
        E 2140 80 24 64
        E 0 80 29 64
        E 0 80 2f 64
        E 1025 90 26 64
        E 0 91 21 64
        E 0 90 31 64
        E 1917 80 26 64
        E 0 81 21 64
        E 0 80 31 64
        E 401 90 24 64
        E 1 90 29 64
        E 0 90 2f 64
        E 2139 80 24 64
        E 0 80 29 64
        E 0 80 2f 64
        E 1026 90 26 64
        E 0 91 21 64
        E 0 90 31 64
        E 1917 80 26 64
        E 0 81 21 64
        E 0 80 31 64
        E 401 90 24 64
        E 0 90 29 64
        E 0 90 2f 64
        E 2185 80 24 64
        E 0 80 29 64
        E 0 80 2f 64
        E 981 91 21 64
        E 0 90 31 64
        E 0 90 26 64
        E 1961 81 21 64
        E 0 80 31 64
        E 0 80 26 64
        E 357 90 24 64
        E 0 90 29 64
        E 0 90 2f 64
        E 2184 80 24 64
        E 0 80 29 64
        E 0 80 2f 64
        E 24966 90 24 64
        E 0 90 29 64
        E 0 90 2f 64
        E 2140 80 24 64
        E 0 80 29 64
        E 0 80 2f 64
        E 1026 90 26 64
        E 0 91 21 64
        E 0 90 31 64
        E 1917 80 26 64
        E 0 81 21 64
        E 0 80 31 64
        E 5751 90 24 64
        E 0 90 29 64
        E 0 90 2f 64
        E 2184 80 24 64
        E 0 80 29 64
        E 0 80 2f 64
        E 1026 90 26 64
        E 0 91 21 64
        E 0 90 31 64
        E 1917 80 26 64
        E 0 81 21 64
        E 0 80 31 64
        E 7668 90 24 64
        E 0 90 29 64
        E 0 90 2f 64
        E 2185 80 24 64
        E 0 80 29 64
        E 0 80 2f 64
        E 1025 91 21 64
        E 0 90 31 64
        E 0 90 26 64
        E 1917 81 21 64
        E 0 80 31 64
        E 0 80 26 64
        E 2140 90 2f 64
        E 0 90 24 64
        E 0 90 29 64
        E 3611 80 2f 64
        E 0 80 24 64
        E 0 80 29 64
        E 268 90 24 64
        E 0 90 29 64
        E 0 90 2f 64
        E 445 80 24 64
        E 0 80 29 64
        E 0 80 2f 64
        E 268 90 24 64
        E 0 90 29 64
        E 0 90 2f 64
        E 89 80 24 64
        E 0 80 29 64
        E 0 80 2f 64
        E 1694 90 24 64
        E 0 90 29 64
        E 0 90 2f 64
        E 45 80 24 64
        E 0 80 29 64
        E 0 80 2f 64
        E 13464 90 24 64
        E 0 90 29 64
        E 0 90 2f 64
        E 1917 80 24 64
        E 0 80 29 64
        E 0 80 2f 64
        E 1783 90 26 64
        E 0 91 21 64
        E 0 90 31 64
        E 2051 80 26 64
        E 0 81 21 64
        E 0 80 31 64
        E 1917 90 29 64
        E 0 90 2f 64
        E 0 90 34 64
        E 9585 80 29 64
        E 0 80 2f 64
        E 0 80 34 64
        E 2051 90 24 64
        E 0 90 29 64
        E 0 90 2f 64
        E 3477 80 24 64
        E 0 80 29 64
        E 0 80 2f 64
        E 357 90 26 64
        E 0 91 21 64
        E 0 90 31 64
        E 1694 80 26 64
        E 0 81 21 64
        E 0 80 31 64
        E 2051 90 24 64
        E 0 90 29 64
        E 0 90 2f 64
        E 9005 80 24 64
        E 0 80 29 64
        E 0 80 2f 64
        E 11547 90 26 64
        E 0 91 21 64
        E 0 90 31 64
        E 401 80 26 64
        E 0 81 21 64
        E 0 80 31 64
        E 357 90 29 64
        E 0 90 2f 64
        E 0 90 34 64
        E 17298 80 29 64
        E 0 80 2f 64
        E 0 80 34 64
        E 28800 90 24 64
        E 0 90 29 64
        E 0 90 2f 64
        E 1917 80 24 64
        E 0 80 29 64
        E 0 80 2f 64
        E 1784 90 26 64
        E 0 91 21 64
        E 0 90 31 64
        E 2050 80 26 64
        E 0 81 21 64
        E 0 80 31 64
        E 1917 90 29 64
        E 0 90 2f 64
        E 0 90 34 64
        E 42220 80 29 64
        E 0 80 2f 64
        E 0 80 34 64
        E 2051 90 24 64
        E 0 90 29 64
        E 0 90 2f 64
        E 3522 80 24 64
        E 0 80 29 64
        E 0 80 2f 64
        E 312 90 26 64
        E 0 91 21 64
        E 0 90 31 64
        E 1694 80 26 64
        E 0 81 21 64
        E 0 80 31 64
        E 2051 90 24 64
        E 0 90 29 64
        E 0 90 2f 64
        E 579 80 24 64
        E 0 80 29 64
        E 0 80 2f 64
        E 401 90 26 64
        E 0 91 21 64
        E 0 90 31 64
        E 357 80 26 64
        E 0 81 21 64
        E 0 80 31 64
        E 9630 90 24 64
        E 0 90 29 64
        E 0 90 2f 64
        E 2140 80 24 64
        E 0 80 29 64
        E 0 80 2f 64
        E 1025 90 26 64
        E 0 91 21 64
        E 0 90 31 64
        E 1917 80 26 64
        E 0 81 21 64
        E 0 80 31 64
        E 2185 90 24 64
        E 0 90 29 64
        E 0 90 2f 64
        E 3611 80 24 64
        E 0 80 29 64
        E 0 80 2f 64
        E 223 90 24 64
        E 0 90 29 64
        E 0 90 2f 64
        E 490 80 24 64
        E 0 80 29 64
        E 0 80 2f 64
        E 223 90 24 64
        E 0 90 29 64
        E 0 90 2f 64
        E 134 80 24 64
        E 0 80 29 64
        E 0 80 2f 64
        E 1694 90 24 64
        E 0 90 29 64
        E 0 90 2f 64
        E 45 80 24 64
        E 0 80 29 64
        E 0 80 2f 64
        E 3834 90 24 64
        E 0 90 29 64
        E 0 90 2f 64
        E 1917 80 24 64
        E 0 80 29 64
        E 0 80 2f 64
        E 1783 90 26 64
        E 0 91 21 64
        E 0 90 31 64
        E 2051 80 26 64
        E 0 81 21 64
        E 0 80 31 64
        E 1917 90 29 64
        E 0 90 2f 64
        E 0 90 34 64
        E 11547 80 29 64
        E 0 80 2f 64
        E 0 80 34 64
        E 2006 90 24 64
        E 0 90 29 64
        E 0 90 2f 64
        E 3522 80 24 64
        E 0 80 29 64
        E 0 80 2f 64
        E 312 90 26 64
        E 0 91 21 64
        E 0 90 31 64
        E 1694 80 26 64
        E 0 81 21 64
        E 0 80 31 64
        E 2051 90 24 64
        E 0 90 29 64
        E 0 90 2f 64
        E 3656 80 24 64
        E 0 80 29 64
        E 0 80 2f 64
        E 1917 90 26 64
        E 0 91 21 64
        E 0 90 31 64
        E 2273 80 26 64
        E 0 81 21 64
        E 0 80 31 64
        E 30718 90 24 64
        E 0 90 29 64
        E 0 90 2f 64
        E 2184 80 24 64
        E 0 80 29 64
        E 0 80 2f 64
        E 1026 90 26 64
        E 0 91 21 64
        E 0 90 31 64
        E 1917 80 26 64
        E 0 81 21 64
        E 0 80 31 64
        E 2139 90 24 64
        E 0 90 29 64
        E 1 90 2f 64
        E 3611 80 24 64
        E 0 80 29 64
        E 0 80 2f 64
        E 223 90 24 64
        E 0 90 29 64
        E 0 90 2f 64
        E 490 80 24 64
        E 0 80 29 64
        E 0 80 2f 64
        E 223 90 24 64
        E 0 90 29 64
        E 0 90 2f 64
        E 134 80 24 64
        E 0 80 29 64
        E 0 80 2f 64
        E 1694 90 24 64
        E 0 90 29 64
        E 0 90 2f 64
        E 44 80 24 64
        E 0 80 29 64
        E 0 80 2f 64
        E 3834 90 24 64
        E 1 90 29 64
        E 0 90 2f 64
        E 1917 80 24 64
        E 0 80 29 64
        E 0 80 2f 64
        E 1827 90 26 64
        E 0 91 21 64
        E 0 90 31 64
        E 2007 80 26 64
        E 0 81 21 64
        E 0 80 31 64
        E 1961 90 29 64
        E 0 90 2f 64
        E 0 90 34 64
        E 28800 80 29 64
        E 0 80 2f 64
        E 0 80 34 64
        E 73639 90 2f 64
        E 0 90 24 64
        E 0 90 29 64
        E 3611 80 2f 64
        E 0 80 24 64
        E 0 80 29 64
        E 223 90 24 64
        E 0 90 29 64
        E 0 90 2f 64
        E 490 80 24 64
        E 0 80 29 64
        E 0 80 2f 64
        E 223 90 24 64
        E 0 90 29 64
        E 0 90 2f 64
        E 134 80 24 64
        E 0 80 29 64
        E 0 80 2f 64
        E 1694 90 24 64
        E 0 90 2f 64
        E 0 90 29 64
        E 45 80 24 64
        E 0 80 2f 64
        E 0 80 29 64
        E 401 90 24 64
        E 0 90 29 64
        E 0 90 2f 64
        E 3566 80 24 64
        E 0 80 29 64
        E 0 80 2f 64
        E 268 90 24 64
        E 0 90 29 64
        E 0 90 2f 64
        E 446 80 24 64
        E 0 80 29 64
        E 0 80 2f 64
        E 267 90 24 64
        E 0 90 29 64
        E 0 90 2f 64
        E 89 80 24 64
        E 0 80 29 64
        E 0 80 2f 64
        E 1695 90 24 64
        E 0 90 29 64
        E 0 90 2f 64
        E 44 80 24 64
        E 0 80 29 64
        E 0 80 2f 64
        E 401 90 24 64
        E 0 90 29 64
        E 0 90 2f 64
        E 3612 80 24 64
        E 0 80 29 64
        E 0 80 2f 64
        E 222 90 24 64
        E 0 90 29 64
        E 0 90 2f 64
        E 491 80 24 64
        E 0 80 29 64
        E 0 80 2f 64
        E 223 90 24 64
        E 0 90 29 64
        E 0 90 2f 64
        E 134 80 24 64
        E 0 80 29 64
        E 0 80 2f 64
        E 1694 90 24 64
        E 0 90 29 64
        E 0 90 2f 64
        E 44 80 24 64
        E 0 80 29 64
        E 0 80 2f 64
        E 357 90 24 64
        E 0 90 29 64
        E 0 90 2f 64
        E 3611 80 24 64
        E 0 80 29 64
        E 0 80 2f 64
        E 268 90 24 64
        E 0 90 29 64
        E 0 90 2f 64
        E 445 80 24 64
        E 0 80 29 64
        E 0 80 2f 64
        E 223 90 24 64
        E 0 90 29 64
        E 0 90 2f 64
        E 134 80 24 64
        E 0 80 29 64
        E 0 80 2f 64
        E 1694 90 24 64
        E 0 90 29 64
        E 0 90 2f 64
        E 45 80 24 64
        E 0 80 29 64
        E 0 80 2f 64
        E 401 90 24 64
        E 0 90 29 64
        E 0 90 2f 64
        E 3611 80 24 64
        E 0 80 29 64
        E 0 80 2f 64
        E 223 90 24 64
        E 0 90 29 64
        E 0 90 2f 64
        E 490 80 24 64
        E 0 80 29 64
        E 0 80 2f 64
        E 223 90 24 64
        E 0 90 29 64
        E 0 90 2f 64
        E 134 80 24 64
        E 0 80 29 64
        E 0 80 2f 64
        E 1650 90 24 64
        E 0 90 29 64
        E 0 90 2f 64
        E 89 80 24 64
        E 0 80 29 64
        E 0 80 2f 64
        E 357 90 24 64
        E 0 90 29 64
        E 0 90 2f 64
        E 3611 80 24 64
        E 0 80 29 64
        E 0 80 2f 64
        E 223 90 24 64
        E 0 90 29 64
        E 0 90 2f 64
        E 490 80 24 64
        E 0 80 29 64
        E 0 80 2f 64
        E 223 90 24 64
        E 0 90 29 64
        E 0 90 2f 64
        E 134 80 24 64
        E 0 80 29 64
        E 0 80 2f 64
        E 1694 90 24 64
        E 0 90 29 64
        E 0 90 2f 64
        E 44 80 24 64
        E 0 80 29 64
        E 0 80 2f 64
        E 402 90 24 64
        E 0 90 29 64
        E 0 90 2f 64
        E 3611 80 24 64
        E 0 80 29 64
        E 0 80 2f 64
        E 223 90 24 64
        E 0 90 29 64
        E 0 90 2f 64
        E 490 80 24 64
        E 0 80 29 64
        E 0 80 2f 64
        E 223 90 24 64
        E 0 90 29 64
        E 0 90 2f 64
        E 89 80 24 64
        E 0 80 29 64
        E 0 80 2f 64
        E 1694 90 24 64
        E 0 90 29 64
        E 0 90 2f 64
        E 89 80 24 64
        E 0 80 29 64
        E 0 80 2f 64
        E 357 90 24 64
        E 0 90 29 64
        E 0 90 2f 64
        E 3611 80 24 64
        E 0 80 29 64
        E 0 80 2f 64
        E 223 90 24 64
        E 0 90 29 64
        E 0 90 2f 64
        E 491 80 24 64
        E 0 80 29 64
        E 0 80 2f 64
        E 222 90 24 64
        E 0 90 29 64
        E 0 90 2f 64
        E 134 80 24 64
        E 0 80 29 64
        E 0 80 2f 64
        E 1694 90 24 64
        E 0 90 29 64
        E 0 90 2f 64
        E 45 80 24 64
        E 0 80 29 64
        E 0 80 2f 64
        E 401 90 24 64
        E 0 90 29 64
        E 0 90 2f 64
        E 3611 80 24 64
        E 0 80 29 64
        E 0 80 2f 64
        E 223 90 24 64
        E 0 90 29 64
        E 0 90 2f 64
        E 491 80 24 64
        E 0 80 29 64
        E 0 80 2f 64
        E 223 90 24 64
        E 0 90 29 64
        E 0 90 2f 64
        E 89 80 24 64
        E 0 80 29 64
        E 0 80 2f 64
        E 1694 90 24 64
        E 0 90 29 64
        E 0 90 2f 64
        E 89 80 24 64
        E 0 80 29 64
        E 0 80 2f 64
        E 357 90 24 64
        E 0 90 29 64
        E 0 90 2f 64
        E 3611 80 24 64
        E 0 80 29 64
        E 0 80 2f 64
        E 223 90 24 64
        E 0 90 29 64
        E 0 90 2f 64
        E 490 80 24 64
        E 0 80 29 64
        E 0 80 2f 64
        E 223 90 24 64
        E 0 90 29 64
        E 0 90 2f 64
        E 134 80 24 64
        E 0 80 29 64
        E 0 80 2f 64
        E 1694 90 24 64
        E 0 90 29 64
        E 0 90 2f 64
        E 44 80 24 64
        E 0 80 29 64
        E 1 80 2f 64
        E 401 90 24 64
        E 0 90 29 64
        E 0 90 2f 64
        E 3611 80 24 64
        E 0 80 29 64
        E 0 80 2f 64
        E 223 90 24 64
        E 0 90 29 64
        E 0 90 2f 64
        E 490 80 24 64
        E 0 80 29 64
        E 0 80 2f 64
        E 223 90 24 64
        E 0 90 29 64
        E 0 90 2f 64
        E 89 80 24 64
        E 0 80 29 64
        E 0 80 2f 64
        E 1695 90 24 64
        E 0 90 29 64
        E 0 90 2f 64
        E 44 80 24 64
        E 0 80 29 64
        E 0 80 2f 64
        E 401 90 29 64
        E 0 90 24 64
        E 0 90 2f 64
        E 3611 80 29 64
        E 0 80 24 64
        E 0 80 2f 64
        E 223 90 24 64
        E 0 90 29 64
        E 0 90 2f 64
        E 491 80 24 64
        E 0 80 29 64
        E 0 80 2f 64
        E 223 90 24 64
        E 0 90 29 64
        E 0 90 2f 64
        E 133 80 24 64
        E 0 80 29 64
        E 0 80 2f 64
        E 1695 90 24 64
        E 0 90 29 64
        E 0 90 2f 64
        E 44 80 24 64
        E 0 80 29 64
        E 0 80 2f 64
        E 401 90 24 64
        E 0 90 29 64
        E 0 90 2f 64
        E 3567 80 24 64
        E 0 80 29 64
        E 0 80 2f 64
        E 267 90 24 64
        E 1 90 29 64
        E 0 90 2f 64
        E 445 80 24 64
        E 0 80 29 64
        E 0 80 2f 64
        E 268 90 24 64
        E 0 90 29 64
        E 0 90 2f 64
        E 89 80 24 64
        E 0 80 29 64
        E 0 80 2f 64
        E 1694 90 24 64
        E 0 90 29 64
        E 0 90 2f 64
        E 45 80 24 64
        E 0 80 29 64
        E 0 80 2f 64
        E 401 90 24 64
        E 0 90 29 64
        E 0 90 2f 64
        E 3611 80 24 64
        E 0 80 29 64
        E 0 80 2f 64
        E 223 90 24 64
        E 0 90 29 64
        E 0 90 2f 64
        E 490 80 24 64
        E 0 80 29 64
        E 0 80 2f 64
        E 223 90 24 64
        E 0 90 29 64
        E 0 90 2f 64
        E 134 80 24 64
        E 0 80 29 64
        E 0 80 2f 64
        E 1694 90 24 64
        E 0 90 29 64
        E 0 90 2f 64
        E 45 80 24 64
        E 0 80 29 64
        E 0 80 2f 64
        E 356 90 24 64
        E 0 90 29 64
        E 0 90 2f 64
        E 3612 80 24 64
        E 0 80 29 64
        E 0 80 2f 64
        E 267 90 24 64
        E 0 90 29 64
        E 0 90 2f 64
        E 446 80 24 64
        E 0 80 29 64
        E 0 80 2f 64
        E 223 90 24 64
        E 0 90 29 64
        E 0 90 2f 64
        E 133 80 24 64
        E 0 80 29 64
        E 0 80 2f 64
        E 1695 90 24 64
        E 0 90 29 64
        E 0 90 2f 64
        E 44 80 24 64
        E 0 80 29 64
        E 0 80 2f 64
        E 0 91 21 64
        E 45 91 25 64
        E 0 91 2b 64
        E 624 81 21 64
        E 0 81 25 64
        E 45 81 2b 64
        E 133 91 21 64
        E 0 91 25 64
        E 0 91 2b 64
        E 580 81 21 64
        E 0 81 2b 64
        E 89 81 25 64
        E 178 91 21 64
        E 0 91 25 64
        E 0 91 2b 64
        E 580 81 21 64
        E 0 81 2b 64
        E 89 81 25 64
        E 178 91 21 64
        E 0 91 25 64
        E 0 91 2b 64
        E 580 81 21 64
        E 45 81 25 64
        E 44 81 2b 64
        E 134 91 21 64
        E 0 91 25 64
        E 45 91 2b 64
        E 579 81 25 64
        E 0 81 2b 64
        E 45 81 21 64
        E 133 91 21 64
        E 45 91 25 64
        E 45 91 2b 64
        E 579 81 21 64
        E 0 81 25 64
        E 0 81 2b 64
        E 179 91 21 64
        E 44 91 25 64
        E 0 91 2b 64
        E 535 81 21 64
        E 45 81 2b 64
        E 44 81 25 64
        E 179 91 21 64
        E 44 91 25 64
        E 45 91 2b 64
        E 490 81 21 64
        E 134 81 25 64
        E 44 81 2b 64
        E 45 91 22 64
        E 45 91 28 64
        E 0 91 2c 64
        E 579 81 22 64
        E 45 81 28 64
        E 0 81 2c 64
        E 89 91 22 64
        E 0 90 34 64
        E 45 91 28 64
        E 44 91 2c 64
        E 134 80 34 64
        E 401 81 22 64
        E 45 81 28 64
        E 44 81 2c 64
        E 134 91 22 64
        E 0 91 28 64
        E 45 91 2c 64
        E 490 81 22 64
        E 89 81 28 64
        E 45 81 2c 64
        E 89 91 22 64
        E 0 91 28 64
        E 44 91 2c 64
        E 535 81 22 64
        E 45 81 2c 64
        E 45 81 28 64
        E 133 91 22 64
        E 0 91 28 64
        E 45 91 2c 64
        E 535 81 22 64
        E 45 81 28 64
        E 0 81 2c 64
        E 178 91 22 64
        E 45 91 28 64
        E 0 91 2c 64
        E 534 81 22 64
        E 45 81 28 64
        E 45 81 2c 64
        E 89 91 22 64
        E 89 91 28 64
        E 45 91 2c 64
        E 445 81 22 64
        E 89 81 28 64
        E 45 81 2c 64
        E 134 91 22 64
        E 0 91 28 64
        E 44 91 2c 64
        E 535 81 22 64
        E 45 81 28 64
        E 45 81 2c 64
        E 133 91 25 64
        E 45 91 2b 64
        E 0 91 2f 64
        E 535 81 2b 64
        E 44 81 25 64
        E 0 81 2f 64
        E 134 91 25 64
        E 0 91 2b 64
        E 45 91 2f 64
        E 535 81 25 64
        E 44 81 2f 64
        E 45 81 2b 64
        E 89 91 25 64
        E 89 91 2b 64
        E 45 91 2f 64
        E 446 81 25 64
        E 44 81 2b 64
        E 134 81 2f 64
        E 0 91 28 64
        E 45 91 2c 64
        E 0 91 32 64
        E 535 81 28 64
        E 0 81 2c 64
        E 44 81 32 64
        E 134 91 28 64
        E 44 91 2c 64
        E 0 91 32 64
        E 535 81 28 64
        E 90 81 2c 64
        E 0 81 32 64
        E 89 91 28 64
        E 44 91 2c 64
        E 45 91 32 64
        E 446 81 28 64
        E 89 81 2c 64
        E 89 81 32 64
        E 89 91 28 64
        E 45 91 2c 64
        E 0 91 32 64
        E 535 81 28 64
        E 44 81 32 64
        E 45 81 2c 64
        E 134 91 28 64
        E 44 91 2c 64
        E 0 91 32 64
        E 535 81 28 64
        E 45 81 2c 64
        E 44 81 32 64
        E 134 91 21 64
        E 89 91 25 64
        E 0 91 2b 64
        E 535 81 21 64
        E 0 81 25 64
        E 0 81 2b 64
        E 179 91 21 64
        E 89 91 25 64
        E 0 91 2b 64
        E 490 81 21 64
        E 89 81 25 64
        E 0 81 2b 64
        E 90 91 21 64
        E 0 91 25 64
        E 44 91 2b 64
        E 535 81 21 64
        E 0 81 25 64
        E 89 81 2b 64
        E 89 91 21 64
        E 45 91 25 64
        E 45 91 2b 64
        E 535 81 21 64
        E 0 81 25 64
        E 0 81 2b 64
        E 178 91 21 64
        E 45 91 25 64
        E 0 91 2b 64
        E 579 81 21 64
        E 45 81 25 64
        E 0 81 2b 64
        E 134 91 21 64
        E 0 91 25 64
        E 0 91 2b 64
        E 579 81 25 64
        E 45 81 21 64
        E 0 81 2b 64
        E 133 91 21 64
        E 45 91 25 64
        E 0 91 2b 64
        E 535 81 21 64
        E 0 81 25 64
        E 45 81 2b 64
        E 178 91 21 64
        E 0 91 25 64
        E 0 91 2b 64
        E 535 81 21 64
        E 0 81 25 64
        E 44 81 2b 64
        E 179 91 21 64
        E 44 91 25 64
        E 0 91 2b 64
        E 491 81 21 64
        E 89 81 25 64
        E 0 81 2b 64
        E 134 91 21 64
        E 0 91 25 64
        E 0 91 2b 64
        E 535 81 21 64
        E 44 81 25 64
        E 45 81 2b 64
        E 133 91 21 64
        E 1 91 25 64
        E 44 91 2b 64
        E 491 81 21 64
        E 89 81 25 64
        E 0 81 2b 64
        E 133 91 21 64
        E 45 91 25 64
        E 0 91 2b 64
        E 490 81 21 64
        E 90 81 25 64
        E 0 81 2b 64
        E 133 91 21 64
        E 0 91 25 64
        E 45 91 2b 64
        E 490 81 21 64
        E 0 81 25 64
        E 90 81 2b 64
        E 133 91 21 64
        E 0 91 25 64
        E 45 91 2b 64
        E 535 81 21 64
        E 44 81 25 64
        E 0 81 2b 64
        E 179 91 21 64
        E 0 91 25 64
        E 0 91 2b 64
        E 579 81 21 64
        E 0 81 25 64
        E 0 81 2b 64
        E 179 91 21 64
        E 0 91 25 64
        E 0 91 2b 64
        E 579 81 21 64
        E 45 81 25 64
        E 0 81 2b 64
        E 178 91 22 64
        E 45 91 28 64
        E 0 91 2c 64
        E 535 81 22 64
        E 89 81 28 64
        E 0 81 2c 64
        E 44 91 22 64
        E 45 91 28 64
        E 45 91 2c 64
        E 535 81 22 64
        E 0 81 2c 64
        E 44 81 28 64
        E 134 91 22 64
        E 45 91 28 64
        E 0 91 2c 64
        E 579 81 22 64
        E 0 81 2c 64
        E 45 81 28 64
        E 89 91 22 64
        E 44 91 28 64
        E 90 91 2c 64
        E 445 81 22 64
        E 45 81 28 64
        E 89 81 2c 64
        E 45 91 22 64
        E 44 91 28 64
        E 45 91 2c 64
        E 490 81 22 64
        E 45 81 28 64
        E 44 81 2c 64
        E 90 91 22 64
        E 44 91 28 64
        E 0 91 2c 64
        E 491 81 22 64
        E 89 81 28 64
        E 0 81 2c 64
        E 133 91 22 64
        E 45 91 28 64
        E 45 91 2c 64
        E 535 81 22 64
        E 0 81 2c 64
        E 44 81 28 64
        E 134 91 22 64
        E 45 91 28 64
        E 44 91 2c 64
        E 535 81 22 64
        E 0 81 28 64
        E 45 81 2c 64
        E 133 91 25 64
        E 45 91 2b 64
        E 89 91 2f 64
        E 491 81 25 64
        E 44 81 2b 64
        E 45 81 2f 64
        E 89 91 25 64
        E 45 91 2b 64
        E 44 91 2f 64
        E 446 81 25 64
        E 89 81 2b 64
        E 0 81 2f 64
        E 89 91 25 64
        E 0 91 2b 64
        E 45 91 2f 64
        E 535 81 25 64
        E 0 81 2b 64
        E 44 81 2f 64
        E 134 91 28 64
        E 45 91 2c 64
        E 44 91 32 64
        E 491 81 28 64
        E 89 81 2c 64
        E 45 81 32 64
        E 89 91 25 64
        E 0 91 2b 64
        E 0 91 2f 64
        E 401 81 25 64
        E 0 81 2b 64
        E 0 81 2f 64
        E 356 91 25 64
        E 1 91 2b 64
        E 0 91 2f 64
        E 401 81 25 64
        E 0 81 2b 64
        E 0 81 2f 64
        E 401 91 32 64
        E 0 91 28 64
        E 0 91 2c 64
        E 357 81 32 64
        E 0 81 28 64
        E 0 81 2c 64
        E 401 91 28 64
        E 0 91 2c 64
        E 0 91 32 64
        E 580 81 2c 64
        E 44 81 28 64
        E 0 81 32 64
        E 89 91 28 64
        E 45 91 2c 64
        E 89 91 32 64
        E 446 81 28 64
        E 89 81 2c 64
        E 45 81 32 64
        E 44 91 28 64
        E 45 91 2c 64
        E 89 91 32 64
        E 401 81 28 64
        E 45 81 2c 64
        E 134 81 32 64
        E 89 91 28 64
        E 44 91 2c 64
        E 89 91 32 64
        E 491 81 28 64
        E 0 81 2c 64
        E 134 81 32 64
        E 0 91 21 64
        E 44 91 25 64
        E 0 91 2b 64
        E 535 81 21 64
        E 45 81 25 64
        E 0 81 2b 64
        E 134 91 21 64
        E 44 91 25 64
        E 45 91 2b 64
        E 490 81 21 64
        E 45 81 25 64
        E 44 81 2b 64
        E 134 91 21 64
        E 45 91 25 64
        E 89 91 2b 64
        E 445 81 25 64
        E 45 81 21 64
        E 134 81 2b 64
        E 0 91 21 64
        E 44 91 25 64
        E 45 91 2b 64
        E 535 81 21 64
        E 0 81 25 64
        E 0 81 2b 64
        E 178 91 21 64
        E 0 91 25 64
        E 89 91 2b 64
        E 491 81 21 64
        E 44 81 25 64
        E 0 81 2b 64
        E 90 91 21 64
        E 89 91 25 64
        E 0 91 2b 64
        E 490 81 21 64
        E 89 81 25 64
        E 0 81 2b 64
        E 134 91 21 64
        E 0 91 25 64
        E 0 91 2b 64
        E 580 81 21 64
        E 0 81 2b 64
        E 44 81 25 64
        E 89 91 21 64
        E 45 91 25 64
        E 0 91 2b 64
        E 580 81 21 64
        E 0 81 25 64
        E 44 81 2b 64
        E 89 91 1a 64
        E 0 91 1e 64
        E 0 90 2f 64
        E 402 81 1a 64
        E 0 81 1e 64
        E 0 80 2f 64
        E 401 91 1e 64
        E 0 91 1a 64
        E 0 90 2f 64
        E 356 81 1e 64
        E 0 81 1a 64
        E 0 80 2f 64
        E 402 91 1a 64
        E 0 91 1e 64
        E 0 90 2f 64
        E 356 81 1a 64
        E 0 81 1e 64
        E 0 80 2f 64
        E 402 91 21 64
        E 0 91 25 64
        E 0 91 2b 64
        E 401 81 21 64
        E 0 81 25 64
        E 0 81 2b 64
        E 357 91 1a 64
        E 0 91 1e 64
        E 0 90 2f 64
        E 401 81 1a 64
        E 0 81 1e 64
        E 0 80 2f 64
        E 356 91 1a 64
        E 0 91 1e 64
        E 0 90 2f 64
        E 402 81 1a 64
        E 0 81 1e 64
        E 0 80 2f 64
        E 401 91 21 64
        E 0 91 25 64
        E 0 91 2b 64
        E 357 81 21 64
        E 0 81 25 64
        E 0 81 2b 64
        E 401 91 21 64
        E 0 91 25 64
        E 0 91 2b 64
        E 401 81 21 64
        E 0 81 25 64
        E 0 81 2b 64
        E 357 91 21 64
        E 0 91 25 64
        E 0 91 2b 64
        E 401 81 21 64
        E 0 81 25 64
        E 0 81 2b 64
        E 357 91 21 64
        E 0 91 25 64
        E 0 91 2b 64
        E 401 81 21 64
        E 0 81 25 64
        E 0 81 2b 64
        E 401 91 21 64
        E 0 91 25 64
        E 0 91 2b 64
        E 357 81 21 64
        E 0 81 25 64
        E 0 81 2b 64
        E 401 91 22 64
        E 45 91 28 64
        E 0 91 2c 64
        E 490 81 22 64
        E 45 81 28 64
        E 44 81 2c 64
        E 89 91 22 64
        E 45 91 28 64
        E 44 91 2c 64
        E 491 81 22 64
        E 0 81 28 64
        E 134 81 2c 64
        E 89 91 22 64
        E 0 91 28 64
        E 44 91 2c 64
        E 535 81 22 64
        E 45 81 28 64
        E 45 81 2c 64
        E 89 91 22 64
        E 44 91 28 64
        E 45 91 2c 64
        E 490 81 22 64
        E 0 81 28 64
        E 89 81 2c 64
        E 45 91 22 64
        E 89 91 28 64
        E 0 91 2c 64
        E 491 81 22 64
        E 89 81 28 64
        E 0 81 2c 64
        E 89 91 22 64
        E 44 91 28 64
        E 45 91 2c 64
        E 446 81 22 64
        E 89 81 28 64
        E 89 81 2c 64
        E 89 91 22 64
        E 0 91 28 64
        E 0 91 2c 64
        E 535 81 22 64
        E 0 81 28 64
        E 45 81 2c 64
        E 178 91 22 64
        E 0 91 28 64
        E 45 91 2c 64
        E 535 81 22 64
        E 44 81 28 64
        E 45 81 2c 64
        E 45 91 25 64
        E 89 91 2b 64
        E 0 91 2f 64
        E 535 81 25 64
        E 89 81 2b 64
        E 0 81 2f 64
        E 44 91 25 64
        E 45 91 2b 64
        E 0 91 2f 64
        E 490 81 25 64
        E 45 81 2b 64
        E 89 81 2f 64
        E 89 91 25 64
        E 0 91 2b 64
        E 45 91 2f 64
        E 580 81 25 64
        E 0 81 2f 64
        E 44 81 2b 64
        E 134 91 28 64
        E 44 91 2c 64
        E 45 91 32 64
        E 446 81 28 64
        E 134 81 2c 64
        E 0 81 32 64
        E 44 91 28 64
        E 0 91 2c 64
        E 0 91 32 64
        E 535 81 28 64
        E 45 81 2c 64
        E 0 81 32 64
        E 178 91 28 64
        E 45 91 2c 64
        E 44 91 32 64
        E 446 81 28 64
        E 45 81 2c 64
        E 89 81 32 64
        E 89 91 28 64
        E 0 91 2c 64
        E 89 91 32 64
        E 491 81 28 64
        E 44 81 2c 64
        E 45 81 32 64
        E 44 91 28 64
        E 45 91 2c 64
        E 0 91 32 64
        E 535 81 28 64
        E 0 81 2c 64
        E 89 81 32 64
        E 134 91 21 64
        E 44 91 25 64
        E 45 91 2b 64
        E 446 81 21 64
        E 44 81 25 64
        E 134 81 2b 64
        E 89 91 21 64
        E 0 91 25 64
        E 45 91 2b 64
        E 490 81 21 64
        E 89 81 25 64
        E 0 81 2b 64
        E 179 91 21 64
        E 44 91 25 64
        E 89 91 2b 64
        E 446 81 25 64
        E 45 81 21 64
        E 89 81 2b 64
        E 45 91 21 64
        E 0 91 25 64
        E 44 91 2b 64
        E 491 81 25 64
        E 89 81 21 64
        E 0 81 2b 64
        E 134 91 21 64
        E 0 90 38 64
        E 44 91 25 64
        E 45 80 38 64
        E 0 91 2b 64
        E 490 81 21 64
        E 89 81 25 64
        E 45 81 2b 64
        E 44 91 21 64
        E 0 91 25 64
        E 0 91 2b 64
        E 535 81 21 64
        E 45 81 25 64
        E 0 81 2b 64
        E 178 91 21 64
        E 45 91 25 64
        E 45 91 2b 64
        E 490 81 21 64
        E 89 81 25 64
        E 0 81 2b 64
        E 134 91 21 64
        E 0 91 25 64
        E 89 91 2b 64
        E 446 81 25 64
        E 44 81 21 64
        E 45 81 2b 64
        E 178 91 25 64
        E 0 91 2b 64
        E 0 91 2f 64
        E 402 81 25 64
        E 0 81 2b 64
        E 0 81 2f 64
        E 356 91 25 64
        E 0 91 2b 64
        E 0 91 2f 64
        E 401 81 25 64
        E 0 81 2b 64
        E 0 81 2f 64
        E 357 91 25 64
        E 0 91 2b 64
        E 0 91 2f 64
        E 401 81 25 64
        E 0 81 2b 64
        E 0 81 2f 64
        E 402 91 25 64
        E 0 91 2b 64
        E 0 91 2f 64
        E 356 81 25 64
        E 0 81 2b 64
        E 0 81 2f 64
        E 401 91 25 64
        E 1 91 2b 64
        E 0 91 2f 64
        E 401 81 25 64
        E 0 81 2b 64
        E 0 81 2f 64
        E 356 91 25 64
        E 0 91 2b 64
        E 0 91 2f 64
        E 402 81 25 64
        E 0 81 2b 64
        E 0 81 2f 64
        E 356 91 25 64
        E 0 91 2b 64
        E 0 91 2f 64
        E 402 81 25 64
        E 0 81 2b 64
        E 0 81 2f 64
        E 401 91 25 64
        E 0 91 2b 64
        E 0 91 2f 64
        E 356 81 25 64
        E 0 81 2b 64
        E 0 81 2f 64
        E 402 91 28 64
        E 0 91 2c 64
        E 0 91 32 64
        E 356 81 28 64
        E 0 81 2c 64
        E 0 81 32 64
        E 402 91 28 64
        E 0 91 2c 64
        E 0 91 32 64
        E 401 81 28 64
        E 0 81 2c 64
        E 0 81 32 64
        E 356 91 28 64
        E 0 91 2c 64
        E 0 91 32 64
        E 402 81 28 64
        E 0 81 2c 64
        E 0 81 32 64
        E 401 91 28 64
        E 0 91 2c 64
        E 0 91 32 64
        E 357 81 28 64
        E 0 81 2c 64
        E 0 81 32 64
        E 401 91 28 64
        E 0 91 2c 64
        E 0 91 32 64
        E 356 81 28 64
        E 0 81 2c 64
        E 0 81 32 64
        E 402 91 28 64
        E 0 91 2c 64
        E 0 91 32 64
        E 401 81 28 64
        E 0 81 2c 64
        E 0 81 32 64
        E 357 91 28 64
        E 0 91 2c 64
        E 0 91 32 64
        E 401 81 28 64
        E 0 81 2c 64
        E 0 81 32 64
        E 356 91 28 64
        E 0 91 2c 64
        E 0 91 32 64
        E 402 81 28 64
        E 0 81 2c 64
        E 0 81 32 64
        E 401 90 2c 64
        E 758 90 31 64
        E 535 91 25 64
        E 535 90 37 64
        E 267 90 3f 64
        E 223 91 34 64
        E 8783 80 2c 64
        E 0 80 31 64
        E 0 81 25 64
        E 0 80 37 64
        E 0 80 3f 64
        E 0 81 34 64
        E 17298 91 25 64
        E 0 91 2b 64
        E 0 91 2f 64
        E 401 81 25 64
        E 0 81 2b 64
        E 0 81 2f 64
        E 357 91 25 64
        E 0 91 2b 64
        E 0 91 2f 64
        E 401 81 25 64
        E 0 81 2b 64
        E 0 81 2f 64
        E 357 91 25 64
        E 0 91 2b 64
        E 0 91 2f 64
        E 401 81 25 64
        E 0 81 2b 64
        E 0 81 2f 64
        E 401 91 25 64
        E 0 91 2b 64
        E 0 91 2f 64
        E 357 81 25 64
        E 0 81 2b 64
        E 0 81 2f 64
        E 401 91 25 64
        E 0 91 2b 64
        E 0 91 2f 64
        E 401 81 25 64
        E 0 81 2b 64
        E 0 81 2f 64
        E 357 91 25 64
        E 0 91 2b 64
        E 0 91 2f 64
        E 401 81 25 64
        E 0 81 2b 64
        E 0 81 2f 64
        E 357 91 2b 64
        E 0 91 25 64
        E 0 91 2f 64
        E 401 81 2b 64
        E 0 81 25 64
        E 0 81 2f 64
        E 401 91 25 64
        E 0 91 2b 64
        E 0 91 2f 64
        E 357 81 25 64
        E 0 81 2b 64
        E 0 81 2f 64
        E 401 91 28 64
        E 0 91 2c 64
        E 0 91 32 64
        E 357 81 28 64
        E 0 81 2c 64
        E 0 81 32 64
        E 401 91 28 64
        E 0 91 2c 64
        E 0 91 32 64
        E 401 81 28 64
        E 0 81 2c 64
        E 0 81 32 64
        E 357 91 28 64
        E 0 91 2c 64
        E 0 91 32 64
        E 401 81 28 64
        E 0 81 2c 64
        E 0 81 32 64
        E 402 91 28 64
        E 0 91 2c 64
        E 0 91 32 64
        E 356 81 28 64
        E 0 81 2c 64
        E 0 81 32 64
        E 402 91 28 64
        E 0 91 2c 64
        E 0 91 32 64
        E 356 81 28 64
        E 0 81 2c 64
        E 0 81 32 64
        E 33437 91 28 64
        E 0 91 2c 64
        E 0 91 32 64
        E 357 81 28 64
        E 0 81 2c 64
        E 0 81 32 64
        E 401 91 28 64
        E 0 91 2c 64
        E 0 91 32 64
        E 401 81 28 64
        E 0 81 2c 64
        E 0 81 32 64
        E 357 91 28 64
        E 0 91 2c 64
        E 0 91 32 64
        E 401 81 28 64
        E 0 81 2c 64
        E 0 81 32 64
        E 357 90 2c 64
        E 222 90 31 64
        E 223 91 25 64
        E 223 90 37 64
        E 223 90 3f 64
        E 223 91 34 64
        E 12349 80 2c 64
        E 0 80 31 64
        E 0 81 25 64
        E 0 80 37 64
        E 0 80 3f 64
        E 0 81 34 64
        E 21132 90 2c 64
        E 90 90 31 64
        E 89 91 25 64
        E 134 90 37 64
        E 89 90 3f 64
        E 133 91 34 64
        E 45 80 2c 64
        E 0 80 31 64
        E 0 81 25 64
        E 0 80 37 64
        E 0 80 3f 64
        E 0 81 34 64
        E 401 90 2c 64
        E 357 90 31 64
        E 267 91 25 64
        E 268 90 37 64
        E 134 90 3f 64
        E 133 91 34 64
        E 4592 80 2c 64
        E 0 80 31 64
        E 0 81 25 64
        E 0 80 37 64
        E 0 80 3f 64
        E 0 81 34 64
        E 44137 90 2c 64
        E 1739 90 31 64
        E 1159 91 25 64
        E 1159 90 37 64
        E 535 90 3f 64
        E 579 91 34 64
        E 17878 80 2c 64
        E 0 80 31 64
        E 0 81 25 64
        E 0 80 37 64
        E 0 80 3f 64
        E 0 81 34 64
        E 15381 91 25 64
        E 0 91 2b 64
        E 0 91 2f 64
        E 356 81 25 64
        E 0 81 2b 64
        E 0 81 2f 64
        E 402 91 25 64
        E 0 91 2b 64
        E 0 91 2f 64
        E 356 81 25 64
        E 0 81 2b 64
        E 0 81 2f 64
        E 402 91 25 64
        E 0 91 2b 64
        E 0 91 2f 64
        E 401 81 25 64
        E 0 81 2b 64
        E 0 81 2f 64
        E 356 91 25 64
        E 0 91 2b 64
        E 0 91 2f 64
        E 402 81 25 64
        E 0 81 2b 64
        E 0 81 2f 64
        E 401 91 25 64
        E 0 91 2b 64
        E 0 91 2f 64
        E 357 81 25 64
        E 0 81 2b 64
        E 0 81 2f 64
        E 401 91 25 64
        E 0 91 2b 64
        E 0 91 2f 64
        E 356 81 25 64
        E 0 81 2b 64
        E 0 81 2f 64
        E 402 91 25 64
        E 0 91 2b 64
        E 0 91 2f 64
        E 401 81 25 64
        E 0 81 2b 64
        E 0 81 2f 64
        E 357 91 25 64
        E 0 91 2b 64
        E 0 91 2f 64
        E 401 81 25 64
        E 0 81 2b 64
        E 0 81 2f 64
        E 357 91 28 64
        E 0 91 2c 64
        E 0 91 32 64
        E 401 81 28 64
        E 0 81 2c 64
        E 0 81 32 64
        E 401 91 28 64
        E 0 91 2c 64
        E 0 91 32 64
        E 357 81 28 64
        E 0 81 2c 64
        E 0 81 32 64
        E 401 91 28 64
        E 0 91 2c 64
        E 0 91 32 64
        E 357 81 28 64
        E 0 81 2c 64
        E 0 81 32 64
        E 401 91 28 64
        E 0 91 2c 64
        E 0 91 32 64
        E 401 81 28 64
        E 0 81 2c 64
        E 0 81 32 64
        E 357 91 28 64
        E 0 91 2c 64
        E 0 91 32 64
        E 401 81 28 64
        E 0 81 2c 64
        E 0 81 32 64
        E 401 91 28 64
        E 0 91 2c 64
        E 0 91 32 64
        E 357 81 28 64
        E 0 81 2c 64
        E 0 81 32 64
        E 401 91 28 64
        E 0 91 32 64
        E 0 91 2c 64
        E 357 81 28 64
        E 0 81 32 64
        E 0 81 2c 64
        E 401 91 28 64
        E 0 91 2c 64
        E 0 91 32 64
        E 401 81 28 64
        E 0 81 2c 64
        E 0 81 32 64
        E 357 90 2c 64
        E 134 90 31 64
        E 89 91 25 64
        E 134 90 37 64
        E 89 90 3f 64
        E 89 91 34 64
        E 13687 80 2c 64
        E 0 80 31 64
        E 0 81 25 64
        E 0 80 37 64
        E 0 80 3f 64
        E 0 81 34 64
        E 8337 90 23 64
        E 0 90 27 64
        E 0 90 2c 64
        E 0 90 31 64
        E 713 80 23 64
        E 0 80 27 64
        E 0 80 2c 64
        E 0 80 31 64
        E 669 90 24 64
        E 0 90 29 64
        E 0 90 30 64
        E 3388 80 24 64
        E 0 80 29 64
        E 0 80 30 64
        E 669 90 21 64
        E 0 90 28 64
        E 0 90 2c 64
        E 0 90 30 64
        E 668 80 21 64
        E 0 80 28 64
        E 0 80 2c 64
        E 0 80 30 64
        E 669 91 1a 64
        E 0 91 1e 64
        E 0 91 21 64
        E 0 91 25 64
        E 3388 81 1a 64
        E 0 81 1e 64
        E 0 81 21 64
        E 0 81 25 64
        E 2319 90 2c 64
        E 223 90 31 64
        E 222 91 25 64
        E 223 90 37 64
        E 223 90 3f 64
        E 179 91 34 64
        E 10075 80 2c 64
        E 0 80 31 64
        E 0 81 25 64
        E 0 80 37 64
        E 0 80 3f 64
        E 0 81 34 64
        E 6420 90 23 64
        E 0 90 27 64
        E 0 90 2c 64
        E 0 90 31 64
        E 669 80 23 64
        E 0 80 27 64
        E 0 80 2c 64
        E 0 80 31 64
        E 713 90 24 64
        E 0 90 29 64
        E 0 90 30 64
        E 3388 80 24 64
        E 0 80 29 64
        E 0 80 30 64
        E 669 90 21 64
        E 0 90 28 64
        E 0 90 2c 64
        E 0 90 30 64
        E 669 80 21 64
        E 0 80 28 64
        E 0 80 2c 64
        E 0 80 30 64
        E 669 91 1a 64
        E 0 91 1e 64
        E 0 91 21 64
        E 0 91 25 64
        E 3388 81 1a 64
        E 0 81 1e 64
        E 0 81 21 64
        E 0 81 25 64
        E 0 90 21 64
        E 0 90 28 64
        E 0 90 2c 64
        E 0 90 30 64
        E 535 80 21 64
        E 0 80 28 64
        E 0 80 2c 64
        E 0 80 30 64
        E 134 90 21 64
        E 0 90 28 64
        E 0 90 2c 64
        E 0 90 30 64
        E 713 80 21 64
        E 0 80 28 64
        E 0 80 2c 64
        E 0 80 30 64
        E 669 90 1e 64
        E 0 90 24 64
        E 0 90 29 64
        E 0 90 2c 64
        E 6107 80 1e 64
        E 0 80 24 64
        E 0 80 29 64
        E 0 80 2c 64
        E 3389 90 23 64
        E 0 90 27 64
        E 0 90 2c 64
        E 0 90 31 64
        E 668 80 23 64
        E 0 80 27 64
        E 0 80 2c 64
        E 0 80 31 64
        E 669 90 24 64
        E 0 90 29 64
        E 0 90 30 64
        E 3388 80 24 64
        E 0 80 29 64
        E 0 80 30 64
        E 669 90 21 64
        E 0 90 28 64
        E 0 90 2c 64
        E 0 90 30 64
        E 669 80 21 64
        E 0 80 28 64
        E 0 80 2c 64
        E 0 80 30 64
        E 713 91 1a 64
        E 0 91 1e 64
        E 0 91 21 64
        E 0 91 25 64
        E 669 81 1a 64
        E 0 81 1e 64
        E 0 81 21 64
        E 0 81 25 64
        E 30717 90 24 64
        E 0 90 29 64
        E 0 90 2f 64
        E 3611 80 24 64
        E 0 80 29 64
        E 0 80 2f 64
        E 223 90 24 64
        E 0 90 29 64
        E 0 90 2f 64
        E 491 80 24 64
        E 0 80 29 64
        E 0 80 2f 64
        E 223 90 24 64
        E 0 90 29 64
        E 0 90 2f 64
        E 133 80 24 64
        E 0 80 29 64
        E 0 80 2f 64
        E 1650 90 24 64
        E 0 90 29 64
        E 0 90 2f 64
        E 89 80 24 64
        E 0 80 29 64
        E 0 80 2f 64
        E 357 90 24 64
        E 0 90 29 64
        E 0 90 2f 64
        E 3611 80 24 64
        E 0 80 29 64
        E 0 80 2f 64
        E 223 90 24 64
        E 0 90 29 64
        E 0 90 2f 64
        E 490 80 24 64
        E 0 80 29 64
        E 0 80 2f 64
        E 223 90 24 64
        E 0 90 29 64
        E 0 90 2f 64
        E 134 80 24 64
        E 0 80 29 64
        E 0 80 2f 64
        E 1694 90 24 64
        E 0 90 29 64
        E 0 90 2f 64
        E 44 80 24 64
        E 0 80 29 64
        E 0 80 2f 64
        E 402 90 24 64
        E 0 90 29 64
        E 0 90 2f 64
        E 3611 80 24 64
        E 0 80 29 64
        E 0 80 2f 64
        E 223 90 24 64
        E 0 90 29 64
        E 0 90 2f 64
        E 490 80 24 64
        E 0 80 29 64
        E 0 80 2f 64
        E 223 90 24 64
        E 0 90 29 64
        E 0 90 2f 64
        E 89 80 24 64
        E 0 80 29 64
        E 0 80 2f 64
        E 1694 90 24 64
        E 0 90 29 64
        E 0 90 2f 64
        E 90 80 24 64
        E 0 80 29 64
        E 0 80 2f 64
        E 356 90 24 64
        E 0 90 29 64
        E 0 90 2f 64
        E 3611 80 24 64
        E 0 80 29 64
        E 0 80 2f 64
        E 223 90 24 64
        E 0 90 29 64
        E 0 90 2f 64
        E 491 80 24 64
        E 0 80 29 64
        E 0 80 2f 64
        E 223 90 24 64
        E 0 90 29 64
        E 0 90 2f 64
        E 133 80 24 64
        E 0 80 29 64
        E 0 80 2f 64
        E 1695 90 24 64
        E 0 90 29 64
        E 0 90 2f 64
        E 44 80 24 64
        E 0 80 29 64
        E 0 80 2f 64
        E 401 90 24 64
        E 0 90 29 64
        E 0 90 2f 64
        E 3611 80 24 64
        E 0 80 29 64
        E 0 80 2f 64
        E 223 90 24 64
        E 0 90 29 64
        E 0 90 2f 64
        E 491 80 24 64
        E 0 80 29 64
        E 0 80 2f 64
        E 223 90 24 64
        E 0 90 29 64
        E 0 90 2f 64
        E 89 80 24 64
        E 0 80 29 64
        E 0 80 2f 64
        E 1694 90 24 64
        E 0 90 29 64
        E 0 90 2f 64
        E 89 80 24 64
        E 0 80 29 64
        E 0 80 2f 64
        E 357 90 24 64
        E 0 90 29 64
        E 0 90 2f 64
        E 3611 80 24 64
        E 0 80 29 64
        E 0 80 2f 64
        E 223 90 24 64
        E 0 90 29 64
        E 0 90 2f 64
        E 490 80 24 64
        E 0 80 29 64
        E 0 80 2f 64
        E 223 90 24 64
        E 0 90 29 64
        E 0 90 2f 64
        E 134 80 24 64
        E 0 80 29 64
        E 0 80 2f 64
        E 1694 90 24 64
        E 0 90 29 64
        E 0 90 2f 64
        E 45 80 24 64
        E 0 80 29 64
        E 0 80 2f 64
        E 401 90 24 64
        E 0 90 29 64
        E 0 90 2f 64
        E 3611 80 24 64
        E 0 80 29 64
        E 0 80 2f 64
        E 223 90 24 64
        E 0 90 29 64
        E 0 90 2f 64
        E 491 80 24 64
        E 0 80 29 64
        E 0 80 2f 64
        E 222 90 24 64
        E 0 90 29 64
        E 0 90 2f 64
        E 89 80 24 64
        E 0 80 29 64
        E 0 80 2f 64
        E 1695 90 24 64
        E 0 90 29 64
        E 0 90 2f 64
        E 44 80 24 64
        E 0 80 29 64
        E 0 80 2f 64
        E 401 90 2f 64
        E 0 90 24 64
        E 0 90 29 64
        E 3612 80 2f 64
        E 0 80 24 64
        E 0 80 29 64
        E 223 90 24 64
        E 0 90 29 64
        E 0 90 2f 64
        E 490 80 24 64
        E 0 80 29 64
        E 0 80 2f 64
        E 223 90 29 64
        E 0 90 24 64
        E 0 90 2f 64
        E 134 80 29 64
        E 0 80 24 64
        E 0 80 2f 64
        E 1694 90 24 64
        E 0 90 29 64
        E 0 90 2f 64
        E 44 80 24 64
        E 0 80 29 64
        E 0 80 2f 64
        E 402 90 24 64
        E 0 90 29 64
        E 0 90 2f 64
        E 3611 80 24 64
        E 0 80 29 64
        E 0 80 2f 64
        E 223 90 24 64
        E 0 90 29 64
        E 0 90 2f 64
        E 445 80 24 64
        E 0 80 29 64
        E 0 80 2f 64
        E 268 90 24 64
        E 0 90 29 64
        E 0 90 2f 64
        E 89 80 24 64
        E 0 80 29 64
        E 0 80 2f 64
        E 1694 90 24 64
        E 0 90 29 64
        E 0 90 2f 64
        E 45 80 24 64
        E 0 80 29 64
        E 0 80 2f 64
        E 401 90 24 64
        E 0 90 29 64
        E 0 90 2f 64
        E 3611 80 24 64
        E 0 80 29 64
        E 0 80 2f 64
        E 223 90 24 64
        E 0 90 29 64
        E 0 90 2f 64
        E 491 80 24 64
        E 0 80 29 64
        E 0 80 2f 64
        E 222 90 24 64
        E 0 90 29 64
        E 0 90 2f 64
        E 134 80 24 64
        E 91 80 29 64
        E 0 80 2f 64
        E 1603 90 24 64
        E 0 90 29 64
        E 0 90 2f 64
        E 45 80 24 64
        E 0 80 29 64
        E 0 80 2f 64
        E 357 90 24 64
        E 0 90 29 64
        E 0 90 2f 64
        E 3611 80 24 64
        E 0 80 29 64
        E 0 80 2f 64
        E 267 90 24 64
        E 0 90 29 64
        E 0 90 2f 64
        E 446 80 24 64
        E 0 80 29 64
        E 0 80 2f 64
        E 268 90 24 64
        E 0 90 29 64
        E 0 90 2f 64
        E 89 80 24 64
        E 0 80 29 64
        E 0 80 2f 64
        E 1694 90 24 64
        E 0 90 29 64
        E 0 90 2f 64
        E 44 80 24 64
        E 0 80 29 64
        E 0 80 2f 64
        E 402 90 24 64
        E 0 90 29 64
        E 0 90 2f 64
        E 3611 80 24 64
        E 0 80 29 64
        E 0 80 2f 64
        E 223 90 24 64
        E 0 90 29 64
        E 0 90 2f 64
        E 490 80 24 64
        E 0 80 29 64
        E 0 80 2f 64
        E 223 90 24 64
        E 0 90 29 64
        E 0 90 2f 64
        E 134 80 24 64
        E 0 80 29 64
        E 0 80 2f 64
        E 1649 90 24 64
        E 0 90 29 64
        E 0 90 2f 64
        E 90 80 24 64
        E 0 80 29 64
        E 0 80 2f 64
        E 356 90 24 64
        E 0 90 29 64
        E 0 90 2f 64
        E 3611 80 24 64
        E 0 80 29 64
        E 0 80 2f 64
        E 223 90 24 64
        E 0 90 29 64
        E 0 90 2f 64
        E 491 80 24 64
        E 0 80 29 64
        E 0 80 2f 64
        E 223 90 24 64
        E 0 90 29 64
        E 0 90 2f 64
        E 133 80 24 64
        E 0 80 29 64
        E 0 80 2f 64
        E 1694 90 24 64
        E 0 90 29 64
        E 0 90 2f 64
        E 45 80 24 64
        E 0 80 29 64
        E 0 80 2f 64
        E 401 90 24 64
        E 0 90 29 64
        E 0 90 2f 64
        E 3611 80 24 64
        E 0 80 29 64
        E 0 80 2f 64
        E 223 90 24 64
        E 0 90 29 64
        E 0 90 2f 64
        E 491 80 24 64
        E 0 80 29 64
        E 0 80 2f 64
        E 223 90 24 64
        E 0 90 29 64
        E 0 90 2f 64
        E 89 80 24 64
        E 0 80 29 64
        E 0 80 2f 64
        E 1694 90 24 64
        E 0 90 29 64
        E 0 90 2f 64
        E 89 80 24 64
        E 0 80 29 64
        E 0 80 2f 64
        E 357 90 24 64
        E 0 90 29 64
        E 0 90 2f 64
        E 3611 80 24 64
        E 0 80 29 64
        E 0 80 2f 64
        E 223 90 24 64
        E 0 90 29 64
        E 0 90 2f 64
        E 490 80 24 64
        E 0 80 29 64
        E 0 80 2f 64
        E 223 90 24 64
        E 0 90 29 64
        E 0 90 2f 64
        E 134 80 24 64
        E 0 80 29 64
        E 0 80 2f 64
        E 1694 90 24 64
        E 0 90 29 64
        E 0 90 2f 64
        E 45 80 24 64
        E 0 80 29 64
        E 0 80 2f 64
        E 24966 90 24 64
        E 0 90 29 64
        E 0 90 2f 64
        E 3611 80 24 64
        E 0 80 29 64
        E 0 80 2f 64
        E 223 90 24 64
        E 0 90 29 64
        E 0 90 2f 64
        E 490 80 24 64
        E 0 80 29 64
        E 0 80 2f 64
        E 223 90 24 64
        E 0 90 29 64
        E 0 90 2f 64
        E 134 80 24 64
        E 0 80 29 64
        E 0 80 2f 64
        E 1694 90 24 64
        E 0 90 29 64
        E 0 90 2f 64
        E 45 80 24 64
        E 0 80 29 64
        E 0 80 2f 64
        E 356 90 24 64
        E 0 90 29 64
        E 0 90 2f 64
        E 3611 80 24 64
        E 0 80 29 64
        E 1 80 2f 64
        E 267 90 24 64
        E 0 90 29 64
        E 0 90 2f 64
        E 446 80 24 64
        E 0 80 29 64
        E 0 80 2f 64
        E 267 90 24 64
        E 0 90 29 64
        E 0 90 2f 64
        E 89 80 24 64
        E 0 80 29 64
        E 0 80 2f 64
        E 1695 90 24 64
        E 0 90 29 64
        E 0 90 2f 64
        E 44 80 24 64
        E 0 80 29 64
        E 0 80 2f 64
        E 401 90 24 64
        E 0 90 29 64
        E 0 90 2f 64
        E 3612 80 24 64
        E 0 80 29 64
        E 0 80 2f 64
        E 222 90 2f 64
        E 0 90 24 64
        E 0 90 29 64
        E 491 80 2f 64
        E 0 80 24 64
        E 0 80 29 64
        E 223 90 24 64
        E 0 90 29 64
        E 0 90 2f 64
        E 133 80 24 64
        E 0 80 29 64
        E 0 80 2f 64
        E 1650 90 24 64
        E 0 90 29 64
        E 0 90 2f 64
        E 89 80 24 64
        E 0 80 29 64
        E 0 80 2f 64
        E 357 90 24 64
        E 0 90 29 64
        E 0 90 2f 64
        E 3611 80 24 64
        E 0 80 29 64
        E 0 80 2f 64
        E 223 90 24 64
        E 0 90 29 64
        E 0 90 2f 64
        E 490 80 24 64
        E 0 80 29 64
        E 0 80 2f 64
        E 223 90 29 64
        E 0 90 24 64
        E 0 90 2f 64
        E 134 80 29 64
        E 0 80 24 64
        E 0 80 2f 64
        E 1694 90 24 64
        E 0 90 29 64
        E 0 90 2f 64
        E 45 80 24 64
        E 0 80 29 64
        E 0 80 2f 64
        E 401 90 24 64
        E 0 90 29 64
        E 0 90 2f 64
        E 3611 80 24 64
        E 0 80 29 64
        E 0 80 2f 64
        E 223 90 24 64
        E 0 90 29 64
        E 0 90 2f 64
        E 490 80 24 64
        E 0 80 29 64
        E 0 80 2f 64
        E 223 90 24 64
        E 0 90 29 64
        E 0 90 2f 64
        E 90 80 24 64
        E 0 80 29 64
        E 0 80 2f 64
        E 1694 90 24 64
        E 0 90 29 64
        E 0 90 2f 64
        E 89 80 24 64
        E 0 80 29 64
        E 0 80 2f 64
        E 356 90 24 64
        E 1 90 29 64
        E 0 90 2f 64
        E 3611 80 24 64
        E 0 80 29 64
        E 0 80 2f 64
        E 223 90 24 64
        E 0 90 29 64
        E 0 90 2f 64
        E 490 80 24 64
        E 0 80 29 64
        E 0 80 2f 64
        E 223 90 24 64
        E 0 90 29 64
        E 0 90 2f 64
        E 134 80 24 64
        E 0 80 29 64
        E 0 80 2f 64
        E 1694 90 24 64
        E 0 90 29 64
        E 0 90 2f 64
        E 44 80 24 64
        E 0 80 29 64
        E 0 80 2f 64
        E 402 90 24 64
        E 0 90 29 64
        E 0 90 2f 64
        E 3611 80 24 64
        E 0 80 29 64
        E 0 80 2f 64
        E 223 90 24 64
        E 0 90 29 64
        E 0 90 2f 64
        E 490 80 24 64
        E 0 80 29 64
        E 0 80 2f 64
        E 223 90 24 64
        E 0 90 29 64
        E 0 90 2f 64
        E 89 80 24 64
        E 0 80 29 64
        E 0 80 2f 64
        E 1694 90 24 64
        E 0 90 29 64
        E 0 90 2f 64
        E 89 80 24 64
        E 0 80 29 64
        E 0 80 2f 64
        E 38386 90 24 64
        E 0 90 29 64
        E 0 90 2f 64
        E 3611 80 24 64
        E 0 80 29 64
        E 0 80 2f 64
        E 223 90 24 64
        E 0 90 29 64
        E 0 90 2f 64
        E 490 80 24 64
        E 0 80 29 64
        E 0 80 2f 64
        E 223 90 24 64
        E 0 90 29 64
        E 0 90 2f 64
        E 134 80 24 64
        E 0 80 29 64
        E 0 80 2f 64
        E 1649 90 24 64
        E 0 90 29 64
        E 0 90 2f 64
        E 90 80 24 64
        E 0 80 29 64
        E 0 80 2f 64
        E 356 90 24 64
        E 0 90 29 64
        E 0 90 2f 64
        E 3611 80 24 64
        E 0 80 29 64
        E 0 80 2f 64
        E 223 90 24 64
        E 0 90 29 64
        E 0 90 2f 64
        E 491 80 24 64
        E 0 80 29 64
        E 0 80 2f 64
        E 223 90 24 64
        E 0 90 29 64
        E 0 90 2f 64
        E 133 80 24 64
        E 0 80 29 64
        E 0 80 2f 64
        E 1695 90 24 64
        E 0 90 29 64
        E 0 90 2f 64
        E 44 80 24 64
        E 0 80 29 64
        E 0 80 2f 64
        E 401 90 24 64
        E 0 90 29 64
        E 0 90 2f 64
        E 3612 80 24 64
        E 0 80 29 64
        E 0 80 2f 64
        E 223 90 24 64
        E 0 90 29 64
        E 0 90 2f 64
        E 490 80 24 64
        E 0 80 29 64
        E 0 80 2f 64
        E 223 90 24 64
        E 0 90 29 64
        E 0 90 2f 64
        E 89 80 24 64
        E 0 80 29 64
        E 0 80 2f 64
        E 1694 90 24 64
        E 0 90 29 64
        E 0 90 2f 64
        E 89 80 24 64
        E 0 80 29 64
        E 0 80 2f 64
        E 357 90 24 64
        E 0 90 29 64
        E 0 90 2f 64
        E 3611 80 24 64
        E 0 80 29 64
        E 0 80 2f 64
        E 223 90 24 64
        E 0 90 29 64
        E 0 90 2f 64
        E 490 80 24 64
        E 0 80 29 64
        E 0 80 2f 64
        E 223 90 24 64
        E 0 90 29 64
        E 0 90 2f 64
        E 134 80 24 64
        E 0 80 29 64
        E 0 80 2f 64
        E 1694 90 24 64
        E 0 90 29 64
        E 0 90 2f 64
        E 45 80 24 64
        E 0 80 29 64
        E 0 80 2f 64
        E 401 90 24 64
        E 0 90 29 64
        E 0 90 2f 64
        E 3611 80 24 64
        E 0 80 29 64
        E 0 80 2f 64
        E 223 90 24 64
        E 0 90 29 64
        E 0 90 2f 64
        E 490 80 24 64
        E 0 80 29 64
        E 0 80 2f 64
        E 223 90 24 64
        E 0 90 29 64
        E 0 90 2f 64
        E 90 80 24 64
        E 0 80 29 64
        E 0 80 2f 64
        E 1694 90 24 64
        E 0 90 29 64
        E 0 90 2f 64
        E 89 80 24 64
        E 0 80 29 64
        E 0 80 2f 64
        E 356 90 24 64
        E 0 90 29 64
        E 0 90 2f 64
        E 3612 80 24 64
        E 0 80 29 64
        E 0 80 2f 64
        E 223 90 24 64
        E 0 90 29 64
        E 0 90 2f 64
        E 490 80 24 64
        E 0 80 29 64
        E 0 80 2f 64
        E 223 90 24 64
        E 0 90 29 64
        E 0 90 2f 64
        E 134 80 24 64
        E 0 80 29 64
        E 0 80 2f 64
        E 1694 90 24 64
        E 0 90 29 64
        E 0 90 2f 64
        E 44 80 24 64
        E 0 80 29 64
        E 0 80 2f 64
        E 402 90 24 64
        E 0 90 29 64
        E 0 90 2f 64
        E 3611 80 24 64
        E 0 80 29 64
        E 0 80 2f 64
        E 223 90 24 64
        E 0 90 29 64
        E 0 90 2f 64
        E 490 80 24 64
        E 0 80 29 64
        E 0 80 2f 64
        E 223 90 24 64
        E 0 90 29 64
        E 0 90 2f 64
        E 89 80 24 64
        E 0 80 29 64
        E 0 80 2f 64
        E 1694 90 24 64
        E 0 90 29 64
        E 0 90 2f 64
        E 45 80 24 64
        E 0 80 29 64
        E 0 80 2f 64
        E 401 90 24 64
        E 0 90 29 64
        E 0 90 2f 64
        E 3611 80 24 64
        E 0 80 29 64
        E 0 80 2f 64
        E 223 90 24 64
        E 0 90 29 64
        E 0 90 2f 64
        E 491 80 24 64
        E 0 80 29 64
        E 0 80 2f 64
        E 223 90 24 64
        E 0 90 29 64
        E 0 90 2f 64
        E 133 80 24 64
        E 0 80 29 64
        E 0 80 2f 64
        E 1694 90 29 64
        E 0 90 24 64
        E 0 90 2f 64
        E 45 80 29 64
        E 0 80 24 64
        E 0 80 2f 64
        E 401 90 2f 64
        E 0 90 24 64
        E 0 90 29 64
        E 3567 80 2f 64
        E 0 80 24 64
        E 0 80 29 64
        E 267 90 24 64
        E 0 90 29 64
        E 0 90 2f 64
        E 446 80 24 64
        E 0 80 29 64
        E 0 80 2f 64
        E 268 90 24 64
        E 0 90 29 64
        E 0 90 2f 64
        E 89 80 24 64
        E 0 80 29 64
        E 0 80 2f 64
        E 1694 90 24 64
        E 0 90 29 64
        E 0 90 2f 64
        E 45 80 24 64
        E 0 80 29 64
        E 0 80 2f 64
        E 9050 90 24 64
        E 0 90 29 64
        E 0 90 2f 64
        E 3611 80 24 64
        E 0 80 29 64
        E 0 80 2f 64
        E 223 90 24 64
        E 0 90 29 64
        E 0 90 2f 64
        E 490 80 24 64
        E 0 80 29 64
        E 0 80 2f 64
        E 223 90 24 64
        E 0 90 29 64
        E 0 90 2f 64
        E 89 80 24 64
        E 0 80 29 64
        E 0 80 2f 64
        E 1694 90 24 64
        E 0 90 29 64
        E 0 90 2f 64
        E 90 80 24 64
        E 0 80 29 64
        E 0 80 2f 64
        E 356 90 24 64
        E 0 90 29 64
        E 0 90 2f 64
        E 3611 80 24 64
        E 0 80 29 64
        E 0 80 2f 64
        E 223 90 24 64
        E 0 90 29 64
        E 0 90 2f 64
        E 491 80 24 64
        E 0 80 29 64
        E 0 80 2f 64
        E 223 90 24 64
        E 0 90 29 64
        E 0 90 2f 64
        E 133 80 24 64
        E 0 80 29 64
        E 0 80 2f 64
        E 1694 90 24 64
        E 0 90 29 64
        E 0 90 2f 64
        E 45 80 24 64
        E 0 80 29 64
        E 0 80 2f 64
        E 401 90 24 64
        E 0 90 29 64
        E 0 90 2f 64
        E 3611 80 24 64
        E 0 80 29 64
        E 0 80 2f 64
        E 223 90 24 64
        E 0 90 29 64
        E 0 90 2f 64
        E 491 80 24 64
        E 0 80 29 64
        E 0 80 2f 64
        E 223 90 24 64
        E 0 90 29 64
        E 0 90 2f 64
        E 89 80 24 64
        E 0 80 29 64
        E 0 80 2f 64
        E 1694 90 24 64
        E 0 90 29 64
        E 0 90 2f 64
        E 89 80 24 64
        E 0 80 29 64
        E 0 80 2f 64
        E 32634 90 24 64
        E 0 90 29 64
        E 0 90 2f 64
        E 3612 80 24 64
        E 0 80 29 64
        E 0 80 2f 64
        E 222 90 24 64
        E 0 90 29 64
        E 0 90 2f 64
        E 491 80 24 64
        E 0 80 29 64
        E 0 80 2f 64
        E 223 90 24 64
        E 0 90 29 64
        E 0 90 2f 64
        E 89 80 24 64
        E 0 80 29 64
        E 0 80 2f 64
        E 1694 90 24 64
        E 0 90 29 64
        E 0 90 2f 64
        E 45 80 24 64
        E 0 80 29 64
        E 0 80 2f 64
        E 401 90 24 64
        E 0 90 29 64
        E 0 90 2f 64
        E 3611 80 24 64
        E 0 80 29 64
        E 0 80 2f 64
        E 223 90 24 64
        E 0 90 29 64
        E 0 90 2f 64
        E 490 80 24 64
        E 0 80 29 64
        E 0 80 2f 64
        E 223 90 24 64
        E 0 90 29 64
        E 0 90 2f 64
        E 134 80 24 64
        E 0 80 29 64
        E 0 80 2f 64
        E 1694 90 24 64
        E 0 90 29 64
        E 0 90 2f 64
        E 45 80 24 64
        E 0 80 29 64
        E 0 80 2f 64
        E 401 90 24 64
        E 0 90 29 64
        E 0 90 2f 64
        E 3611 80 24 64
        E 0 80 29 64
        E 0 80 2f 64
        E 223 90 24 64
        E 0 90 29 64
        E 0 90 2f 64
        E 446 80 24 64
        E 0 80 29 64
        E 0 80 2f 64
        E 267 90 24 64
        E 0 90 29 64
        E 0 90 2f 64
        E 90 80 24 64
        E 0 80 29 64
        E 0 80 2f 64
        E 1694 90 24 64
        E 0 90 29 64
        E 0 90 2f 64
        E 44 80 24 64
        E 0 80 29 64
        E 0 80 2f 64
        E 401 90 24 64
        E 1 90 29 64
        E 0 90 2f 64
        E 3611 80 24 64
        E 0 80 29 64
        E 0 80 2f 64
        E 223 90 24 64
        E 0 90 29 64
        E 0 90 2f 64
        E 490 80 24 64
        E 0 80 29 64
        E 0 80 2f 64
        E 223 90 24 64
        E 0 90 29 64
        E 0 90 2f 64
        E 134 80 24 64
        E 0 80 29 64
        E 0 80 2f 64
        E 1694 90 24 64
        E 0 90 29 64
        E 0 90 2f 64
        E 44 80 24 64
        E 0 80 29 64
        E 0 80 2f 64
        E 357 90 24 64
        E 0 90 29 64
        E 0 90 2f 64
        E 3611 80 24 64
        E 0 80 29 64
        E 0 80 2f 64
        E 268 90 24 64
        E 0 90 29 64
        E 0 90 2f 64
        E 445 80 24 64
        E 0 80 29 64
        E 0 80 2f 64
        E 268 90 24 64
        E 0 90 29 64
        E 0 90 2f 64
        E 89 80 24 64
        E 0 80 29 64
        E 0 80 2f 64
        E 1694 90 24 64
        E 0 90 29 64
        E 0 90 2f 64
        E 45 80 24 64
        E 0 80 29 64
        E 0 80 2f 64
        E 94113 90 24 64
        E 0 90 29 64
        E 0 90 2f 64
        E 3611 80 24 64
        E 0 80 29 64
        E 0 80 2f 64
        E 223 90 24 64
        E 0 90 29 64
        E 0 90 2f 64
        E 446 80 24 64
        E 0 80 29 64
        E 0 80 2f 64
        E 268 90 24 64
        E 0 90 29 64
        E 0 90 2f 64
        E 89 80 24 64
        E 0 80 29 64
        E 0 80 2f 64
        E 1694 90 24 64
        E 0 90 29 64
        E 0 90 2f 64
        E 44 80 24 64
        E 0 80 29 64
        E 0 80 2f 64
        E 402 90 24 64
        E 0 90 29 64
        E 0 90 2f 64
        E 3611 80 24 64
        E 0 80 29 64
        E 0 80 2f 64
        E 223 90 24 64
        E 0 90 29 64
        E 0 90 2f 64
        E 490 80 24 64
        E 0 80 29 64
        E 0 80 2f 64
        E 223 90 24 64
        E 0 90 29 64
        E 0 90 2f 64
        E 134 80 24 64
        E 0 80 29 64
        E 0 80 2f 64
        E 1694 90 24 64
        E 0 90 29 64
        E 0 90 2f 64
        E 45 80 24 64
        E 0 80 29 64
        E 0 80 2f 64
        E 356 90 2f 64
        E 0 90 24 64
        E 0 90 29 64
        E 3611 80 2f 64
        E 0 80 24 64
        E 0 80 29 64
        E 268 90 24 64
        E 0 90 29 64
        E 0 90 2f 64
        E 446 80 24 64
        E 0 80 29 64
        E 0 80 2f 64
        E 267 90 24 64
        E 0 90 29 64
        E 0 90 2f 64
        E 89 80 24 64
        E 0 80 29 64
        E 0 80 2f 64
        E 1694 90 24 64
        E 0 90 29 64
        E 0 90 2f 64
        E 45 80 24 64
        E 0 80 29 64
        E 0 80 2f 64
        E 401 90 24 64
        E 0 90 29 64
        E 0 90 2f 64
        E 3611 80 24 64
        E 0 80 29 64
        E 0 80 2f 64
        E 223 90 24 64
        E 0 90 29 64
        E 0 90 2f 64
        E 491 80 24 64
        E 0 80 29 64
        E 0 80 2f 64
        E 223 90 24 64
        E 0 90 29 64
        E 0 90 2f 64
        E 133 80 24 64
        E 0 80 29 64
        E 0 80 2f 64
        E 1650 90 24 64
        E 0 90 29 64
        E 0 90 2f 64
        E 89 80 24 64
        E 0 80 29 64
        E 0 80 2f 64
        E 357 90 24 64
        E 0 90 29 64
        E 0 90 2f 64
        E 3611 80 24 64
        E 0 80 29 64
        E 0 80 2f 64
        E 267 90 24 64
        E 0 90 29 64
        E 0 90 2f 64
        E 446 80 24 64
        E 0 80 29 64
        E 0 80 2f 64
        E 223 90 24 64
        E 0 90 29 64
        E 0 90 2f 64
        E 134 80 24 64
        E 0 80 29 64
        E 0 80 2f 64
        E 1694 90 24 64
        E 0 90 29 64
        E 0 90 2f 64
        E 45 80 24 64
        E 0 80 29 64
        E 0 80 2f 64
        E 401 90 24 64
        E 0 90 29 64
        E 0 90 2f 64
        E 3611 80 24 64
        E 0 80 29 64
        E 0 80 2f 64
        E 223 90 24 64
        E 0 90 29 64
        E 0 90 2f 64
        E 490 80 24 64
        E 0 80 29 64
        E 0 80 2f 64
        E 223 90 24 64
        E 0 90 29 64
        E 0 90 2f 64
        E 89 80 24 64
        E 0 80 29 64
        E 0 80 2f 64
        E 1695 90 24 64
        E 0 90 29 64
        E 0 90 2f 64
        E 89 80 24 64
        E 0 80 29 64
        E 0 80 2f 64
        E 356 90 24 64
        E 0 90 29 64
        E 0 90 2f 64
        E 3612 80 24 64
        E 0 80 29 64
        E 0 80 2f 64
        E 223 90 24 64
        E 0 90 29 64
        E 0 90 2f 64
        E 490 80 24 64
        E 0 80 29 64
        E 0 80 2f 64
        E 223 90 24 64
        E 0 90 29 64
        E 0 90 2f 64
        E 133 80 24 64
        E 0 80 29 64
        E 1 80 2f 64
        E 1694 90 24 64
        E 0 90 29 64
        E 0 90 2f 64
        E 44 80 24 64
        E 0 80 29 64
        E 0 80 2f 64
        E 402 90 24 64
        E 0 90 29 64
        E 0 90 2f 64
        E 3611 80 24 64
        E 0 80 29 64
        E 0 80 2f 64
        E 223 90 24 64
        E 0 90 29 64
        E 0 90 2f 64
        E 490 80 24 64
        E 0 80 29 64
        E 0 80 2f 64
        E 223 90 24 64
        E 0 90 29 64
        E 0 90 2f 64
        E 89 80 24 64
        E 0 80 29 64
        E 0 80 2f 64
        E 1694 90 24 64
        E 0 90 29 64
        E 0 90 2f 64
        E 89 80 24 64
        E 0 80 29 64
        E 0 80 2f 64
        E 357 90 24 64
        E 0 90 29 64
        E 0 90 2f 64
        E 3611 80 24 64
        E 0 80 29 64
        E 0 80 2f 64
        E 223 90 24 64
        E 0 90 29 64
        E 0 90 2f 64
        E 490 80 24 64
        E 0 80 29 64
        E 0 80 2f 64
        E 223 90 24 64
        E 0 90 29 64
        E 0 90 2f 64
        E 134 80 24 64
        E 0 80 29 64
        E 0 80 2f 64
        E 1694 90 24 64
        E 0 90 29 64
        E 0 90 2f 64
        E 45 80 24 64
        E 0 80 29 64
        E 0 80 2f 64
        E 401 90 24 64
        E 0 90 29 64
        E 0 90 2f 64
        E 3611 80 24 64
        E 0 80 29 64
        E 0 80 2f 64
        E 223 90 24 64
        E 0 90 29 64
        E 0 90 2f 64
        E 491 80 24 64
        E 0 80 29 64
        E 0 80 2f 64
        E 222 90 24 64
        E 0 90 29 64
        E 0 90 2f 64
        E 90 80 24 64
        E 0 80 29 64
        E 0 80 2f 64
        E 1694 90 24 64
        E 0 90 29 64
        E 0 90 2f 64
        E 89 80 24 64
        E 0 80 29 64
        E 0 80 2f 64
        E 357 90 24 64
        E 0 90 29 64
        E 0 90 2f 64
        E 3611 80 24 64
        E 0 80 29 64
        E 0 80 2f 64
        E 223 90 24 64
        E 0 90 29 64
        E 0 90 2f 64
        E 490 80 24 64
        E 0 80 29 64
        E 0 80 2f 64
        E 223 90 24 64
        E 0 90 29 64
        E 0 90 2f 64
        E 134 80 24 64
        E 0 80 29 64
        E 0 80 2f 64
        E 1694 90 24 64
        E 0 90 29 64
        E 0 90 2f 64
        E 44 80 24 64
        E 0 80 29 64
        E 0 80 2f 64
        E 402 90 24 64
        E 0 90 29 64
        E 0 90 2f 64
        E 3611 80 24 64
        E 0 80 29 64
        E 0 80 2f 64
        E 223 90 24 64
        E 0 90 29 64
        E 0 90 2f 64
        E 446 80 24 64
        E 0 80 29 64
        E 0 80 2f 64
        E 267 90 24 64
        E 0 90 29 64
        E 0 90 2f 64
        E 89 80 24 64
        E 0 80 29 64
        E 0 80 2f 64
        E 1694 90 24 64
        E 0 90 29 64
        E 0 90 2f 64
        E 45 80 24 64
        E 0 80 29 64
        E 0 80 2f 64
        E 401 90 24 64
        E 0 90 29 64
        E 0 90 2f 64
        E 3611 80 24 64
        E 0 80 29 64
        E 0 80 2f 64
        E 223 90 29 64
        E 0 90 24 64
        E 0 90 2f 64
        E 491 80 29 64
        E 0 80 24 64
        E 0 80 2f 64
        E 223 90 24 64
        E 0 90 29 64
        E 0 90 2f 64
        E 133 80 24 64
        E 0 80 29 64
        E 0 80 2f 64
        E 1694 90 24 64
        E 1 90 29 64
        E 0 90 2f 64
        E 44 80 24 64
        E 0 80 29 64
        E 0 80 2f 64
        E 357 90 24 64
        E 0 90 29 64
        E 0 90 2f 64
        E 3611 80 24 64
        E 0 80 29 64
        E 0 80 2f 64
        E 267 90 2f 64
        E 0 90 24 64
        E 0 90 29 64
        E 446 80 2f 64
        E 0 80 24 64
        E 0 80 29 64
        E 268 90 24 64
        E 0 90 29 64
        E 0 90 2f 64
        E 89 80 24 64
        E 0 80 29 64
        E 0 80 2f 64
        E 1694 90 24 64
        E 0 90 29 64
        E 0 90 2f 64
        E 45 80 24 64
        E 0 80 29 64
        E 0 80 2f 64
        E 401 90 24 64
        E 0 90 29 64
        E 0 90 2f 64
        E 3611 80 24 64
        E 0 80 29 64
        E 0 80 2f 64
        E 223 90 24 64
        E 0 90 29 64
        E 0 90 2f 64
        E 490 80 24 64
        E 0 80 29 64
        E 0 80 2f 64
        E 223 90 24 64
        E 0 90 29 64
        E 0 90 2f 64
        E 134 80 24 64
        E 0 80 29 64
        E 0 80 2f 64
        E 1649 90 24 64
        E 0 90 29 64
        E 0 90 2f 64
        E 90 80 24 64
        E 0 80 29 64
        E 0 80 2f 64
        E 356 90 24 64
        E 0 90 29 64
        E 0 90 2f 64
        E 3611 80 24 64
        E 0 80 29 64
        E 0 80 2f 64
        E 268 90 24 64
        E 0 90 29 64
        E 0 90 2f 64
        E 446 80 24 64
        E 0 80 29 64
        E 0 80 2f 64
        E 223 90 24 64
        E 0 90 29 64
        E 0 90 2f 64
        E 134 80 24 64
        E 0 80 29 64
        E 0 80 2f 64
        E 1694 90 24 64
        E 0 90 29 64
        E 0 90 2f 64
        E 44 80 24 64
        E 0 80 29 64
        E 0 80 2f 64
        E 401 90 24 64
        E 0 90 29 64
        E 0 90 2f 64
        E 3612 80 24 64
        E 0 80 29 64
        E 0 80 2f 64
        E 222 90 24 64
        E 0 90 29 64
        E 0 90 2f 64
        E 491 80 24 64
        E 0 80 29 64
        E 0 80 2f 64
        E 223 90 24 64
        E 0 90 29 64
        E 0 90 2f 64
        E 134 80 24 64
        E 0 80 29 64
        E 0 80 2f 64
        E 1649 90 24 64
        E 0 90 29 64
        E 0 90 2f 64
        E 89 80 24 64
        E 0 80 29 64
        E 0 80 2f 64
        E 357 90 24 64
        E 0 90 29 64
        E 0 90 2f 64
        E 3611 80 24 64
        E 0 80 29 64
        E 0 80 2f 64
        E 223 90 24 64
        E 0 90 29 64
        E 0 90 2f 64
        E 490 80 24 64
        E 0 80 29 64
        E 0 80 2f 64
        E 223 90 24 64
        E 0 90 29 64
        E 0 90 2f 64
        E 134 80 24 64
        E 0 80 29 64
        E 0 80 2f 64
        E 1694 90 24 64
        E 0 90 29 64
        E 0 90 2f 64
        E 45 80 24 64
        E 0 80 29 64
        E 0 80 2f 64
        E 401 90 24 64
        E 0 90 29 64
        E 0 90 2f 64
        E 3611 80 24 64
        E 0 80 29 64
        E 0 80 2f 64
        E 223 90 24 64
        E 0 90 29 64
        E 0 90 2f 64
        E 491 80 24 64
        E 0 80 29 64
        E 0 80 2f 64
        E 222 90 24 64
        E 0 90 29 64
        E 0 90 2f 64
        E 90 80 24 64
        E 0 80 29 64
        E 0 80 2f 64
        E 1694 90 24 64
        E 0 90 29 64
        E 0 90 2f 64
        E 89 80 24 64
        E 0 80 29 64
        E 0 80 2f 64
        E 357 90 24 64
        E 0 90 29 64
        E 0 90 2f 64
        E 3611 80 24 64
        E 0 80 29 64
        E 0 80 2f 64
        E 223 90 24 64
        E 0 90 29 64
        E 0 90 2f 64
        E 490 80 24 64
        E 0 80 29 64
        E 0 80 2f 64
        E 223 90 24 64
        E 0 90 29 64
        E 0 90 2f 64
        E 134 80 24 64
        E 0 80 29 64
        E 0 80 2f 64
        E 1694 90 24 64
        E 0 90 29 64
        E 0 90 2f 64
        E 44 80 24 64
        E 0 80 29 64
        E 0 80 2f 64
        E 402 90 24 64
        E 0 90 29 64
        E 0 90 2f 64
        E 3611 80 24 64
        E 0 80 29 64
        E 0 80 2f 64
        E 223 90 24 64
        E 0 90 29 64
        E 0 90 2f 64
        E 490 80 24 64
        E 0 80 29 64
        E 0 80 2f 64
        E 223 90 24 64
        E 0 90 29 64
        E 0 90 2f 64
        E 89 80 24 64
        E 0 80 29 64
        E 0 80 2f 64
        E 1694 90 24 64
        E 0 90 29 64
        E 0 90 2f 64
        E 89 80 24 64
        E 0 80 29 64
        E 0 80 2f 64
        E 357 90 24 64
        E 0 90 29 64
        E 0 90 2f 64
        E 3611 80 24 64
        E 0 80 29 64
        E 0 80 2f 64
        E 223 90 24 64
        E 0 90 29 64
        E 0 90 2f 64
        E 491 80 24 64
        E 0 80 29 64
        E 0 80 2f 64
        E 223 90 24 64
        E 0 90 29 64
        E 0 90 2f 64
        E 133 80 24 64
        E 0 80 29 64
        E 0 80 2f 64
        E 1694 90 24 64
        E 0 90 29 64
        E 0 90 2f 64
        E 45 80 24 64
        E 0 80 29 64
        E 0 80 2f 64
        E 401 90 24 64
        E 0 90 29 64
        E 0 90 2f 64
        E 3611 80 24 64
        E 0 80 29 64
        E 0 80 2f 64
        E 223 90 24 64
        E 0 90 29 64
        E 0 90 2f 64
        E 446 80 24 64
        E 0 80 29 64
        E 0 80 2f 64
        E 268 90 24 64
        E 0 90 29 64
        E 0 90 2f 64
        E 89 80 24 64
        E 0 80 29 64
        E 0 80 2f 64
        E 1694 90 24 64
        E 0 90 29 64
        E 0 90 2f 64
        E 44 80 24 64
        E 0 80 29 64
        E 0 80 2f 64
        E 402 90 24 64
        E 0 90 29 64
        E 0 90 2f 64
        E 3611 80 24 64
        E 0 80 29 64
        E 0 80 2f 64
        E 223 90 24 64
        E 0 90 29 64
        E 0 90 2f 64
        E 490 80 24 64
        E 0 80 29 64
        E 0 80 2f 64
        E 223 90 24 64
        E 0 90 29 64
        E 0 90 2f 64
        E 134 80 24 64
        E 0 80 29 64
        E 0 80 2f 64
        E 1694 90 24 64
        E 0 90 29 64
        E 0 90 2f 64
        E 45 80 24 64
        E 0 80 29 64
        E 0 80 2f 64
        E 356 90 24 64
        E 0 90 29 64
        E 0 90 2f 64
        E 3611 80 24 64
        E 0 80 29 64
        E 0 80 2f 64
        E 268 90 24 64
        E 0 90 29 64
        E 0 90 2f 64
        E 446 80 24 64
        E 0 80 29 64
        E 0 80 2f 64
        E 267 90 24 64
        E 0 90 29 64
        E 0 90 2f 64
        E 89 80 24 64
        E 0 80 29 64
        E 0 80 2f 64
        E 1695 90 24 64
        E 0 90 29 64
        E 0 90 2f 64
        E 44 80 24 64
        E 0 80 29 64
        E 0 80 2f 64
        E 401 90 24 64
        E 0 90 29 64
        E 0 90 2f 64
        E 3612 80 24 64
        E 0 80 29 64
        E 0 80 2f 64
        E 222 90 24 64
        E 0 90 29 64
        E 0 90 2f 64
        E 491 80 24 64
        E 0 80 29 64
        E 0 80 2f 64
        E 223 90 24 64
        E 0 90 29 64
        E 0 90 2f 64
        E 133 80 24 64
        E 0 80 29 64
        E 0 80 2f 64
        E 1650 90 24 64
        E 0 90 29 64
        E 0 90 2f 64
        E 89 80 24 64
        E 0 80 29 64
        E 0 80 2f 64
        E 357 90 24 64
        E 0 90 29 64
        E 0 90 2f 64
        E 3611 80 24 64
        E 0 80 29 64
        E 0 80 2f 64
        E 268 90 24 64
        E 0 90 29 64
        E 0 90 2f 64
        E 445 80 24 64
        E 0 80 29 64
        E 0 80 2f 64
        E 223 90 24 64
        E 0 90 29 64
        E 0 90 2f 64
        E 134 80 24 64
        E 0 80 29 64
        E 0 80 2f 64
        E 1694 90 24 64
        E 0 90 29 64
        E 0 90 2f 64
        E 45 80 24 64
        E 0 80 29 64
        E 0 80 2f 64
        E 401 90 24 64
        E 0 90 29 64
        E 0 90 2f 64
        E 3611 80 24 64
        E 0 80 29 64
        E 0 80 2f 64
        E 223 90 24 64
        E 0 90 29 64
        E 0 90 2f 64
        E 490 80 24 64
        E 0 80 29 64
        E 0 80 2f 64
        E 223 90 24 64
        E 0 90 29 64
        E 0 90 2f 64
        E 134 80 24 64
        E 0 80 29 64
        E 0 80 2f 64
        E 1650 90 24 64
        E 0 90 29 64
        E 0 90 2f 64
        E 89 80 24 64
        E 0 80 29 64
        E 0 80 2f 64
        E 357 90 24 64
        E 0 90 29 64
        E 0 90 2f 64
        E 3611 80 24 64
        E 0 80 29 64
        E 0 80 2f 64
        E 223 90 24 64
        E 0 90 29 64
        E 0 90 2f 64
        E 490 80 24 64
        E 0 80 29 64
        E 0 80 2f 64
        E 223 90 24 64
        E 0 90 29 64
        E 0 90 2f 64
        E 134 80 24 64
        E 0 80 29 64
        E 0 80 2f 64
        E 1694 90 24 64
        E 0 90 29 64
        E 0 90 2f 64
        E 44 80 24 64
        E 0 80 29 64
        E 0 80 2f 64
        E 401 90 24 64
        E 1 90 29 64
        E 0 90 2f 64
        E 3611 80 24 64
        E 0 80 29 64
        E 0 80 2f 64
        E 223 90 24 64
        E 0 90 29 64
        E 0 90 2f 64
        E 490 80 24 64
        E 0 80 29 64
        E 0 80 2f 64
        E 223 90 24 64
        E 0 90 29 64
        E 0 90 2f 64
        E 89 80 24 64
        E 0 80 29 64
        E 0 80 2f 64
        E 1694 90 24 64
        E 0 90 29 64
        E 0 90 2f 64
        E 89 80 24 64
        E 0 80 29 64
        E 0 80 2f 64
        E 357 90 24 64
        E 0 90 29 64
        E 0 90 2f 64
        E 3611 80 24 64
        E 0 80 29 64
        E 0 80 2f 64
        E 223 90 24 64
        E 0 90 29 64
        E 0 90 2f 64
        E 491 80 24 64
        E 0 80 29 64
        E 0 80 2f 64
        E 223 90 24 64
        E 0 90 29 64
        E 0 90 2f 64
        E 133 80 24 64
        E 0 80 29 64
        E 0 80 2f 64
        E 1694 90 24 64
        E 0 90 29 64
        E 0 90 2f 64
        E 45 80 24 64
        E 0 80 29 64
        E 0 80 2f 64
        E 401 90 24 64
        E 0 90 29 64
        E 0 90 2f 64
        E 3611 80 24 64
        E 0 80 29 64
        E 0 80 2f 64
        E 223 90 24 64
        E 0 90 29 64
        E 0 90 2f 64
        E 491 80 24 64
        E 0 80 29 64
        E 0 80 2f 64
        E 223 90 24 64
        E 0 90 29 64
        E 0 90 2f 64
        E 89 80 24 64
        E 0 80 29 64
        E 0 80 2f 64
        E 1694 90 24 64
        E 0 90 29 64
        E 0 90 2f 64
        E 89 80 24 64
        E 0 80 29 64
        E 0 80 2f 64
        E 0 91 2b 64
        E 0 91 21 64
        E 0 91 25 64
        E 357 81 2b 64
        E 0 81 21 64
        E 0 81 25 64
        E 401 91 2b 64
        E 0 91 21 64
        E 0 91 25 64
        E 357 81 2b 64
        E 0 81 21 64
        E 0 81 25 64
        E 401 91 21 64
        E 0 91 25 64
        E 0 91 2b 64
        E 401 81 21 64
        E 0 81 25 64
        E 0 81 2b 64
        E 357 91 21 64
        E 0 91 25 64
        E 0 91 2b 64
        E 401 81 21 64
        E 0 81 25 64
        E 0 81 2b 64
        E 357 91 21 64
        E 0 91 25 64
        E 0 91 2b 64
        E 401 81 21 64
        E 0 81 25 64
        E 0 81 2b 64
        E 401 91 21 64
        E 0 91 25 64
        E 0 91 2b 64
        E 357 81 21 64
        E 0 81 25 64
        E 0 81 2b 64
        E 401 91 21 64
        E 0 91 25 64
        E 0 91 2b 64
        E 357 81 21 64
        E 0 81 25 64
        E 0 81 2b 64
        E 401 91 21 64
        E 0 91 25 64
        E 0 91 2b 64
        E 401 81 21 64
        E 0 81 25 64
        E 0 81 2b 64
        E 357 91 22 64
        E 0 91 28 64
        E 0 91 2c 64
        E 401 81 22 64
        E 0 81 28 64
        E 0 81 2c 64
        E 401 91 22 64
        E 0 91 28 64
        E 0 91 2c 64
        E 357 81 22 64
        E 0 81 28 64
        E 0 81 2c 64
        E 401 91 22 64
        E 0 91 28 64
        E 0 91 2c 64
        E 357 81 22 64
        E 0 81 28 64
        E 0 81 2c 64
        E 401 91 22 64
        E 0 91 28 64
        E 0 91 2c 64
        E 401 81 22 64
        E 0 81 28 64
        E 0 81 2c 64
        E 357 91 22 64
        E 0 91 28 64
        E 0 91 2c 64
        E 401 81 22 64
        E 0 81 28 64
        E 0 81 2c 64
        E 357 91 22 64
        E 0 91 28 64
        E 0 91 2c 64
        E 401 81 22 64
        E 0 81 28 64
        E 0 81 2c 64
        E 401 91 22 64
        E 0 91 28 64
        E 0 91 2c 64
        E 357 81 22 64
        E 0 81 28 64
        E 0 81 2c 64
        E 401 91 22 64
        E 0 91 28 64
        E 0 91 2c 64
        E 402 81 22 64
        E 0 81 28 64
        E 0 81 2c 64
        E 356 91 25 64
        E 0 91 2b 64
        E 0 91 2f 64
        E 401 81 25 64
        E 0 81 2b 64
        E 0 81 2f 64
        E 357 91 25 64
        E 0 91 2b 64
        E 0 91 2f 64
        E 401 81 25 64
        E 0 81 2b 64
        E 0 81 2f 64
        E 401 91 25 64
        E 0 91 2b 64
        E 0 91 2f 64
        E 357 81 25 64
        E 0 81 2b 64
        E 0 81 2f 64
        E 401 91 28 64
        E 0 91 2c 64
        E 0 91 32 64
        E 357 81 28 64
        E 0 81 2c 64
        E 0 81 32 64
        E 401 91 28 64
        E 0 91 2c 64
        E 0 91 32 64
        E 402 81 28 64
        E 0 81 2c 64
        E 0 81 32 64
        E 356 91 28 64
        E 0 91 2c 64
        E 0 91 32 64
        E 401 81 28 64
        E 0 81 2c 64
        E 0 81 32 64
        E 402 91 28 64
        E 0 91 2c 64
        E 0 91 32 64
        E 356 81 28 64
        E 0 81 2c 64
        E 0 81 32 64
        E 402 91 28 64
        E 0 91 2c 64
        E 0 91 32 64
        E 356 81 28 64
        E 0 81 2c 64
        E 0 81 32 64
        E 402 91 21 64
        E 0 91 25 64
        E 0 91 2b 64
        E 401 81 21 64
        E 0 81 25 64
        E 0 81 2b 64
        E 356 91 21 64
        E 0 91 25 64
        E 0 91 2b 64
        E 402 81 21 64
        E 0 81 25 64
        E 0 81 2b 64
        E 356 91 21 64
        E 0 91 25 64
        E 0 91 2b 64
        E 401 81 21 64
        E 1 81 25 64
        E 0 81 2b 64
        E 401 91 21 64
        E 0 91 25 64
        E 0 91 2b 64
        E 356 81 21 64
        E 0 81 25 64
        E 0 81 2b 64
        E 402 91 21 64
        E 0 91 25 64
        E 0 91 2b 64
        E 356 81 21 64
        E 0 81 25 64
        E 0 81 2b 64
        E 402 91 21 64
        E 0 91 25 64
        E 0 91 2b 64
        E 401 81 21 64
        E 0 81 25 64
        E 0 81 2b 64
        E 357 91 21 64
        E 0 91 25 64
        E 0 91 2b 64
        E 401 81 21 64
        E 0 81 25 64
        E 0 81 2b 64
        E 401 91 21 64
        E 0 91 25 64
        E 0 91 2b 64
        E 357 81 21 64
        E 0 81 25 64
        E 0 81 2b 64
        E 401 91 1a 64
        E 0 91 1e 64
        E 0 90 2f 64
        E 357 81 1a 64
        E 0 81 1e 64
        E 0 80 2f 64
        E 401 91 1a 64
        E 0 91 1e 64
        E 0 90 2f 64
        E 401 81 1a 64
        E 0 81 1e 64
        E 0 80 2f 64
        E 357 91 1a 64
        E 0 91 1e 64
        E 0 90 2f 64
        E 401 81 1a 64
        E 0 81 1e 64
        E 0 80 2f 64
        E 356 91 21 64
        E 1 91 25 64
        E 0 91 2b 64
        E 401 81 21 64
        E 0 81 25 64
        E 0 81 2b 64
        E 401 91 21 64
        E 0 91 25 64
        E 0 91 2b 64
        E 357 81 21 64
        E 0 81 25 64
        E 0 81 2b 64
        E 401 91 21 64
        E 0 91 25 64
        E 0 91 2b 64
        E 401 81 21 64
        E 0 81 25 64
        E 0 81 2b 64
        E 357 91 21 64
        E 0 91 25 64
        E 0 91 2b 64
        E 401 81 21 64
        E 0 81 25 64
        E 0 81 2b 64
        E 357 91 21 64
        E 0 91 25 64
        E 0 91 2b 64
        E 401 81 21 64
        E 0 81 25 64
        E 0 81 2b 64
        E 401 91 22 64
        E 0 91 28 64
        E 0 91 2c 64
        E 357 81 22 64
        E 0 81 28 64
        E 0 81 2c 64
        E 401 91 22 64
        E 0 91 28 64
        E 0 91 2c 64
        E 357 81 22 64
        E 0 81 28 64
        E 0 81 2c 64
        E 401 91 22 64
        E 0 91 28 64
        E 0 91 2c 64
        E 401 81 22 64
        E 0 81 28 64
        E 0 81 2c 64
        E 357 91 22 64
        E 0 91 28 64
        E 0 91 2c 64
        E 401 81 22 64
        E 0 81 28 64
        E 0 81 2c 64
        E 357 91 22 64
        E 0 91 28 64
        E 0 91 2c 64
        E 401 81 22 64
        E 0 81 28 64
        E 0 81 2c 64
        E 401 91 22 64
        E 0 91 28 64
        E 0 91 2c 64
        E 357 81 22 64
        E 0 81 28 64
        E 0 81 2c 64
        E 401 91 22 64
        E 0 91 28 64
        E 0 91 2c 64
        E 401 81 22 64
        E 0 81 28 64
        E 0 81 2c 64
        E 357 91 22 64
        E 0 91 28 64
        E 0 91 2c 64
        E 401 81 22 64
        E 0 81 28 64
        E 0 81 2c 64
        E 357 91 25 64
        E 0 91 2b 64
        E 0 91 2f 64
        E 401 81 25 64
        E 0 81 2b 64
        E 0 81 2f 64
        E 401 91 25 64
        E 0 91 2b 64
        E 1 91 2f 64
        E 356 81 25 64
        E 0 81 2b 64
        E 0 81 2f 64
        E 194 93 01 64
        E 207 91 25 64
        E 0 91 2b 64
        E 0 91 2f 64
        E 357 81 25 64
        E 0 81 2b 64
        E 0 81 2f 64
        E 401 91 28 64
        E 0 91 2c 64
        E 0 91 32 64
        E 402 81 28 64
        E 0 81 2c 64
        E 0 81 32 64
        E 356 91 28 64
        E 0 91 2c 64
        E 0 91 32 64
        E 149 83 01 64
        E 252 81 28 64
        E 0 81 2c 64
        E 0 81 32 64
        E 402 91 28 64
        E 0 91 2c 64
        E 0 91 32 64
        E 356 81 28 64
        E 0 81 2c 64
        E 0 81 32 64
        E 402 91 28 64
        E 0 91 2c 64
        E 0 91 32 64
        E 356 81 28 64
        E 0 81 2c 64
        E 0 81 32 64
        E 401 91 28 64
        E 0 91 2c 64
        E 0 91 32 64
        E 402 81 28 64
        E 0 81 2c 64
        E 0 81 32 64
        E 356 91 21 64
        E 0 91 25 64
        E 0 91 2b 64
        E 402 81 21 64
        E 0 81 25 64
        E 0 81 2b 64
        E 356 91 21 64
        E 0 91 25 64
        E 0 91 2b 64
        E 401 81 21 64
        E 0 81 25 64
        E 1 81 2b 64
        E 401 91 21 64
        E 0 91 25 64
        E 0 91 2b 64
        E 356 81 21 64
        E 0 81 25 64
        E 0 81 2b 64
        E 402 91 21 64
        E 0 91 25 64
        E 0 91 2b 64
        E 401 81 21 64
        E 0 81 25 64
        E 0 81 2b 64
        E 357 91 21 64
        E 0 91 25 64
        E 0 91 2b 64
        E 401 81 21 64
        E 0 81 25 64
        E 0 81 2b 64
        E 356 91 21 64
        E 0 91 25 64
        E 0 91 2b 64
        E 402 81 21 64
        E 0 81 25 64
        E 0 81 2b 64
        E 401 91 21 64
        E 0 91 25 64
        E 0 91 2b 64
        E 357 81 21 64
        E 0 81 25 64
        E 0 81 2b 64
        E 401 91 21 64
        E 0 91 25 64
        E 0 91 2b 64
        E 356 81 21 64
        E 0 81 25 64
        E 0 81 2b 64
        E 402 91 21 64
        E 0 91 25 64
        E 0 91 2b 64
        E 401 81 21 64
        E 0 81 25 64
        E 0 81 2b 64
        E 357 91 21 64
        E 0 91 25 64
        E 0 91 2b 64
        E 401 81 21 64
        E 0 81 25 64
        E 0 81 2b 64
        E 357 91 21 64
        E 0 91 25 64
        E 0 91 2b 64
        E 401 81 21 64
        E 0 81 25 64
        E 0 81 2b 64
        E 401 91 21 64
        E 0 91 25 64
        E 0 91 2b 64
        E 357 81 21 64
        E 0 81 25 64
        E 0 81 2b 64
        E 401 91 21 64
        E 0 91 25 64
        E 0 91 2b 64
        E 401 81 21 64
        E 0 81 25 64
        E 0 81 2b 64
        E 357 91 21 64
        E 0 91 25 64
        E 0 91 2b 64
        E 401 81 21 64
        E 0 81 25 64
        E 0 81 2b 64
        E 357 91 25 64
        E 0 91 21 64
        E 0 91 2b 64
        E 401 81 25 64
        E 0 81 21 64
        E 0 81 2b 64
        E 401 91 2b 64
        E 0 91 21 64
        E 0 91 25 64
        E 357 81 2b 64
        E 0 81 21 64
        E 0 81 25 64
        E 401 91 22 64
        E 0 91 28 64
        E 0 91 2c 64
        E 357 81 22 64
        E 0 81 28 64
        E 0 81 2c 64
        E 401 91 22 64
        E 0 91 28 64
        E 0 91 2c 64
        E 401 81 22 64
        E 0 81 28 64
        E 0 81 2c 64
        E 357 91 22 64
        E 0 91 28 64
        E 0 91 2c 64
        E 401 81 22 64
        E 0 81 28 64
        E 0 81 2c 64
        E 401 91 22 64
        E 0 91 28 64
        E 0 91 2c 64
        E 357 81 22 64
        E 0 81 28 64
        E 0 81 2c 64
        E 401 91 22 64
        E 0 91 28 64
        E 0 91 2c 64
        E 357 81 22 64
        E 0 81 28 64
        E 0 81 2c 64
        E 401 91 22 64
        E 0 91 28 64
        E 0 91 2c 64
        E 401 81 22 64
        E 0 81 28 64
        E 0 81 2c 64
        E 357 91 22 64
        E 0 91 28 64
        E 0 91 2c 64
        E 401 81 22 64
        E 0 81 28 64
        E 0 81 2c 64
        E 357 91 22 64
        E 0 91 28 64
        E 0 91 2c 64
        E 401 81 22 64
        E 0 81 28 64
        E 0 81 2c 64
        E 401 91 25 64
        E 0 91 2b 64
        E 0 91 2f 64
        E 357 81 25 64
        E 0 81 2b 64
        E 0 81 2f 64
        E 401 91 25 64
        E 0 91 2b 64
        E 0 91 2f 64
        E 357 81 25 64
        E 0 81 2b 64
        E 0 81 2f 64
        E 401 91 25 64
        E 0 91 2b 64
        E 0 91 2f 64
        E 402 81 25 64
        E 0 81 2b 64
        E 0 81 2f 64
        E 356 91 28 64
        E 0 91 2c 64
        E 0 91 32 64
        E 401 81 28 64
        E 0 81 2c 64
        E 0 81 32 64
        E 402 91 28 64
        E 0 91 2c 64
        E 0 91 32 64
        E 356 81 28 64
        E 0 81 2c 64
        E 0 81 32 64
        E 402 91 28 64
        E 0 91 2c 64
        E 0 91 32 64
        E 356 81 28 64
        E 0 81 2c 64
        E 0 81 32 64
        E 401 91 28 64
        E 0 91 2c 64
        E 0 91 32 64
        E 402 81 28 64
        E 0 81 2c 64
        E 0 81 32 64
        E 356 91 28 64
        E 0 91 2c 64
        E 0 91 32 64
        E 402 81 28 64
        E 0 81 2c 64
        E 0 81 32 64
        E 356 91 21 64
        E 0 91 25 64
        E 0 91 2b 64
        E 401 81 21 64
        E 0 81 25 64
        E 0 81 2b 64
        E 402 91 21 64
        E 0 91 25 64
        E 0 91 2b 64
        E 356 81 21 64
        E 0 81 25 64
        E 0 81 2b 64
        E 402 91 21 64
        E 0 91 25 64
        E 0 91 2b 64
        E 401 81 21 64
        E 0 81 25 64
        E 0 81 2b 64
        E 357 91 21 64
        E 0 91 25 64
        E 0 91 2b 64
        E 401 81 21 64
        E 0 81 25 64
        E 0 81 2b 64
        E 356 91 21 64
        E 0 91 25 64
        E 0 91 2b 64
        E 402 81 21 64
        E 0 81 25 64
        E 0 81 2b 64
        E 401 91 21 64
        E 0 91 25 64
        E 0 91 2b 64
        E 356 81 21 64
        E 1 81 25 64
        E 0 81 2b 64
        E 401 91 21 64
        E 0 91 25 64
        E 0 91 2b 64
        E 356 81 21 64
        E 0 81 25 64
        E 0 81 2b 64
        E 402 91 21 64
        E 0 91 25 64
        E 0 91 2b 64
        E 401 81 21 64
        E 0 81 25 64
        E 0 81 2b 64
        E 357 91 1a 64
        E 0 91 1e 64
        E 0 90 2f 64
        E 401 81 1a 64
        E 0 81 1e 64
        E 0 80 2f 64
        E 356 91 1a 64
        E 0 91 1e 64
        E 0 90 2f 64
        E 402 81 1a 64
        E 0 81 1e 64
        E 0 80 2f 64
        E 401 91 1a 64
        E 0 91 1e 64
        E 0 90 2f 64
        E 357 81 1a 64
        E 0 81 1e 64
        E 0 80 2f 64
        E 401 91 21 64
        E 0 91 25 64
        E 0 91 2b 64
        E 401 81 21 64
        E 0 81 25 64
        E 0 81 2b 64
        E 357 91 21 64
        E 0 91 25 64
        E 0 91 2b 64
        E 401 81 21 64
        E 0 81 25 64
        E 0 81 2b 64
        E 357 91 21 64
        E 0 91 25 64
        E 0 91 2b 64
        E 401 81 21 64
        E 0 81 25 64
        E 0 81 2b 64
        E 401 91 21 64
        E 0 91 25 64
        E 0 91 2b 64
        E 357 81 21 64
        E 0 81 25 64
        E 0 81 2b 64
        E 401 91 21 64
        E 0 91 25 64
        E 0 91 2b 64
        E 357 81 21 64
        E 0 81 25 64
        E 0 81 2b 64
        E 401 91 22 64
        E 0 91 28 64
        E 0 91 2c 64
        E 401 81 22 64
        E 0 81 28 64
        E 0 81 2c 64
        E 357 91 22 64
        E 0 91 28 64
        E 0 91 2c 64
        E 401 81 22 64
        E 0 81 28 64
        E 0 81 2c 64
        E 401 91 22 64
        E 0 91 28 64
        E 0 91 2c 64
        E 357 81 22 64
        E 0 81 28 64
        E 0 81 2c 64
        E 401 91 22 64
        E 0 91 28 64
        E 0 91 2c 64
        E 357 81 22 64
        E 0 81 28 64
        E 0 81 2c 64
        E 401 91 22 64
        E 0 91 28 64
        E 0 91 2c 64
        E 401 81 22 64
        E 0 81 28 64
        E 0 81 2c 64
        E 357 91 22 64
        E 0 91 28 64
        E 0 91 2c 64
        E 401 81 22 64
        E 0 81 28 64
        E 0 81 2c 64
        E 357 91 22 64
        E 0 91 28 64
        E 0 91 2c 64
        E 401 81 22 64
        E 0 81 28 64
        E 0 81 2c 64
        E 401 91 22 64
        E 0 91 28 64
        E 0 91 2c 64
        E 357 81 22 64
        E 0 81 28 64
        E 0 81 2c 64
        E 401 91 25 64
        E 0 91 2b 64
        E 0 91 2f 64
        E 401 81 25 64
        E 0 81 2b 64
        E 1 81 2f 64
        E 356 91 25 64
        E 0 91 2b 64
        E 0 91 2f 64
        E 401 81 25 64
        E 0 81 2b 64
        E 0 81 2f 64
        E 357 91 25 64
        E 0 91 2b 64
        E 0 91 2f 64
        E 401 81 25 64
        E 0 81 2b 64
        E 0 81 2f 64
        E 402 91 2c 64
        E 0 91 28 64
        E 0 91 32 64
        E 356 81 2c 64
        E 0 81 28 64
        E 0 81 32 64
        E 402 91 28 64
        E 0 91 2c 64
        E 0 91 32 64
        E 356 81 28 64
        E 0 81 2c 64
        E 0 81 32 64
        E 401 91 28 64
        E 0 91 2c 64
        E 0 91 32 64
        E 402 81 28 64
        E 0 81 2c 64
        E 0 81 32 64
        E 356 91 28 64
        E 0 91 2c 64
        E 0 91 32 64
        E 401 81 28 64
        E 0 81 2c 64
        E 0 81 32 64
        E 357 91 28 64
        E 0 91 2c 64
        E 0 91 32 64
        E 401 81 28 64
        E 1 81 2c 64
        E 0 81 32 64
        E 401 91 21 64
        E 0 91 25 64
        E 0 91 2b 64
        E 356 81 21 64
        E 0 81 25 64
        E 0 81 2b 64
        E 402 91 21 64
        E 0 91 25 64
        E 0 91 2b 64
        E 401 81 21 64
        E 0 81 25 64
        E 0 81 2b 64
        E 356 91 21 64
        E 0 91 25 64
        E 0 91 2b 64
        E 402 81 21 64
        E 0 81 25 64
        E 0 81 2b 64
        E 356 91 21 64
        E 0 91 25 64
        E 0 91 2b 64
        E 402 81 21 64
        E 0 81 25 64
        E 0 81 2b 64
        E 401 91 21 64
        E 0 91 25 64
        E 0 91 2b 64
        E 357 81 21 64
        E 0 81 25 64
        E 0 81 2b 64
        E 401 91 21 64
        E 0 91 25 64
        E 0 91 2b 64
        E 356 81 21 64
        E 0 81 25 64
        E 0 81 2b 64
        E 402 91 21 64
        E 0 91 25 64
        E 0 91 2b 64
        E 401 81 21 64
        E 0 81 25 64
        E 0 81 2b 64
        E 356 91 21 64
        E 0 91 25 64
        E 0 91 2b 64
        E 402 81 21 64
        E 0 81 25 64
        E 0 81 2b 64
        E 401 91 21 64
        E 0 91 25 64
        E 0 91 2b 64
        E 357 81 21 64
        E 0 81 25 64
        E 0 81 2b 64
        E 401 91 21 64
        E 0 91 25 64
        E 0 91 2b 64
        E 357 81 21 64
        E 0 81 25 64
        E 0 81 2b 64
        E 401 91 21 64
        E 0 91 25 64
        E 0 91 2b 64
        E 401 81 21 64
        E 0 81 25 64
        E 0 81 2b 64
        E 357 91 21 64
        E 0 91 25 64
        E 0 91 2b 64
        E 401 81 21 64
        E 0 81 25 64
        E 0 81 2b 64
        E 357 91 21 64
        E 0 91 25 64
        E 0 91 2b 64
        E 401 81 21 64
        E 0 81 25 64
        E 0 81 2b 64
        E 401 91 21 64
        E 0 91 25 64
        E 0 91 2b 64
        E 357 81 21 64
        E 0 81 25 64
        E 0 81 2b 64
        E 401 91 21 64
        E 0 91 25 64
        E 0 91 2b 64
        E 357 81 21 64
        E 0 81 25 64
        E 0 81 2b 64
        E 401 91 21 64
        E 0 91 25 64
        E 0 91 2b 64
        E 401 81 21 64
        E 0 81 25 64
        E 0 81 2b 64
        E 357 91 22 64
        E 0 91 28 64
        E 0 91 2c 64
        E 401 81 22 64
        E 0 81 28 64
        E 0 81 2c 64
        E 401 91 22 64
        E 0 91 28 64
        E 0 91 2c 64
        E 357 81 22 64
        E 0 81 28 64
        E 0 81 2c 64
        E 401 91 22 64
        E 0 91 28 64
        E 0 91 2c 64
        E 357 81 22 64
        E 0 81 28 64
        E 0 81 2c 64
        E 401 91 22 64
        E 0 91 28 64
        E 0 91 2c 64
        E 401 81 22 64
        E 0 81 28 64
        E 0 81 2c 64
        E 357 91 22 64
        E 0 91 28 64
        E 0 91 2c 64
        E 401 81 22 64
        E 0 81 28 64
        E 0 81 2c 64
        E 357 91 22 64
        E 0 91 28 64
        E 0 91 2c 64
        E 401 81 22 64
        E 0 81 28 64
        E 0 81 2c 64
        E 401 91 22 64
        E 0 91 28 64
        E 0 91 2c 64
        E 357 81 22 64
        E 0 81 28 64
        E 0 81 2c 64
        E 401 91 22 64
        E 0 91 28 64
        E 0 91 2c 64
        E 401 81 22 64
        E 1 81 28 64
        E 0 81 2c 64
        E 356 91 25 64
        E 0 91 2b 64
        E 0 91 2f 64
        E 401 81 25 64
        E 0 81 2b 64
        E 0 81 2f 64
        E 357 91 25 64
        E 0 91 2b 64
        E 0 91 2f 64
        E 401 81 25 64
        E 0 81 2b 64
        E 0 81 2f 64
        E 401 91 25 64
        E 0 91 2b 64
        E 1 91 2f 64
        E 356 81 25 64
        E 0 81 2b 64
        E 0 81 2f 64
        E 401 91 28 64
        E 0 91 2c 64
        E 0 91 32 64
        E 357 81 28 64
        E 0 81 2c 64
        E 0 81 32 64
        E 401 91 28 64
        E 0 91 2c 64
        E 0 91 32 64
        E 402 81 28 64
        E 0 81 2c 64
        E 0 81 32 64
        E 356 91 28 64
        E 0 91 2c 64
        E 0 91 32 64
        E 401 81 28 64
        E 0 81 2c 64
        E 0 81 32 64
        E 402 91 28 64
        E 0 91 2c 64
        E 0 91 32 64
        E 356 81 28 64
        E 0 81 2c 64
        E 0 81 32 64
        E 402 91 28 64
        E 0 91 2c 64
        E 0 91 32 64
        E 356 81 28 64
        E 0 81 2c 64
        E 0 81 32 64
        E 402 91 21 64
        E 0 91 25 64
        E 0 91 2b 64
        E 401 81 21 64
        E 0 81 25 64
        E 0 81 2b 64
        E 356 91 21 64
        E 0 91 25 64
        E 0 91 2b 64
        E 402 81 21 64
        E 0 81 25 64
        E 0 81 2b 64
        E 356 91 21 64
        E 0 91 25 64
        E 0 91 2b 64
        E 402 81 21 64
        E 0 81 25 64
        E 0 81 2b 64
        E 401 91 21 64
        E 0 91 25 64
        E 0 91 2b 64
        E 356 81 21 64
        E 0 81 25 64
        E 0 81 2b 64
        E 402 91 21 64
        E 0 91 25 64
        E 0 91 2b 64
        E 356 81 21 64
        E 0 81 25 64
        E 0 81 2b 64
        E 402 91 21 64
        E 0 91 25 64
        E 0 91 2b 64
        E 401 81 21 64
        E 0 81 25 64
        E 0 81 2b 64
        E 356 91 21 64
        E 0 91 25 64
        E 1 91 2b 64
        E 401 81 21 64
        E 0 81 25 64
        E 0 81 2b 64
        E 401 91 21 64
        E 0 91 25 64
        E 0 91 2b 64
        E 357 81 21 64
        E 0 81 25 64
        E 0 81 2b 64
        E 401 91 1a 64
        E 0 91 1e 64
        E 0 90 2f 64
        E 357 81 1a 64
        E 0 81 1e 64
        E 0 80 2f 64
        E 401 91 1a 64
        E 0 91 1e 64
        E 0 90 2f 64
        E 401 81 1a 64
        E 0 81 1e 64
        E 0 80 2f 64
        E 357 91 1a 64
        E 0 91 1e 64
        E 0 90 2f 64
        E 401 81 1a 64
        E 0 81 1e 64
        E 0 80 2f 64
        E 356 91 21 64
        E 0 91 25 64
        E 0 91 2b 64
        E 402 81 21 64
        E 0 81 25 64
        E 0 81 2b 64
        E 401 91 21 64
        E 0 91 25 64
        E 0 91 2b 64
        E 357 81 21 64
        E 0 81 25 64
        E 0 81 2b 64
        E 401 91 21 64
        E 0 91 25 64
        E 0 91 2b 64
        E 401 81 21 64
        E 0 81 25 64
        E 0 81 2b 64
        E 357 91 21 64
        E 0 91 25 64
        E 0 91 2b 64
        E 401 81 21 64
        E 0 81 25 64
        E 0 81 2b 64
        E 357 91 21 64
        E 0 91 25 64
        E 0 91 2b 64
        E 401 81 21 64
        E 0 81 25 64
        E 0 81 2b 64
        E 401 91 22 64
        E 0 91 28 64
        E 0 91 2c 64
        E 357 81 22 64
        E 0 81 28 64
        E 0 81 2c 64
        E 401 91 22 64
        E 0 91 28 64
        E 0 91 2c 64
        E 357 81 22 64
        E 0 81 28 64
        E 0 81 2c 64
        E 401 91 22 64
        E 0 91 28 64
        E 0 91 2c 64
        E 401 81 22 64
        E 0 81 28 64
        E 0 81 2c 64
        E 357 91 22 64
        E 0 91 28 64
        E 0 91 2c 64
        E 401 81 22 64
        E 0 81 28 64
        E 0 81 2c 64
        E 357 91 22 64
        E 0 91 28 64
        E 0 91 2c 64
        E 401 81 22 64
        E 0 81 28 64
        E 0 81 2c 64
        E 216 93 0a 64
        E 185 91 22 64
        E 0 91 28 64
        E 0 91 2c 64
        E 357 81 22 64
        E 0 81 28 64
        E 0 81 2c 64
        E 401 91 22 64
        E 0 91 28 64
        E 0 91 2c 64
        E 401 81 22 64
        E 0 81 28 64
        E 0 81 2c 64
        E 168 83 0a 64
        E 189 91 22 64
        E 0 91 28 64
        E 0 91 2c 64
        E 401 81 22 64
        E 0 81 28 64
        E 0 81 2c 64
        E 357 91 25 64
        E 0 91 2b 64
        E 0 91 2f 64
        E 401 81 25 64
        E 0 81 2b 64
        E 0 81 2f 64
        E 401 91 25 64
        E 0 91 2b 64
        E 0 91 2f 64
        E 357 81 25 64
        E 0 81 2b 64
        E 0 81 2f 64
        E 401 91 25 64
        E 0 91 2b 64
        E 0 91 2f 64
        E 357 81 25 64
        E 0 81 2b 64
        E 0 81 2f 64
        E 401 91 28 64
        E 0 91 2c 64
        E 0 91 32 64
        E 401 81 28 64
        E 0 81 2c 64
        E 0 81 32 64
        E 357 91 28 64
        E 0 91 2c 64
        E 0 91 32 64
        E 401 81 28 64
        E 0 81 2c 64
        E 0 81 32 64
        E 402 91 28 64
        E 0 91 2c 64
        E 0 91 32 64
        E 356 81 28 64
        E 0 81 2c 64
        E 0 81 32 64
        E 402 91 28 64
        E 0 91 2c 64
        E 0 91 32 64
        E 356 81 28 64
        E 0 81 2c 64
        E 0 81 32 64
        E 401 91 28 64
        E 0 91 2c 64
        E 0 91 32 64
        E 402 81 28 64
        E 0 81 2c 64
        E 0 81 32 64
        E 356 91 21 64
        E 0 91 25 64
        E 0 91 2b 64
        E 402 81 21 64
        E 0 81 25 64
        E 0 81 2b 64
        E 356 91 21 64
        E 0 91 25 64
        E 0 91 2b 64
        E 402 81 21 64
        E 0 81 25 64
        E 0 81 2b 64
        E 401 91 21 64
        E 0 91 25 64
        E 0 91 2b 64
        E 356 81 21 64
        E 0 81 25 64
        E 0 81 2b 64
        E 402 91 21 64
        E 0 91 25 64
        E 0 91 2b 64
        E 401 81 21 64
        E 0 81 25 64
        E 0 81 2b 64
        E 356 91 21 64
        E 0 91 25 64
        E 0 91 2b 64
        E 402 81 21 64
        E 0 81 25 64
        E 0 81 2b 64
        E 356 91 21 64
        E 0 91 25 64
        E 0 91 2b 64
        E 402 81 21 64
        E 0 81 25 64
        E 0 81 2b 64
        E 401 91 21 64
        E 0 91 25 64
        E 0 91 2b 64
        E 357 81 21 64
        E 0 81 25 64
        E 0 81 2b 64
        E 401 91 21 64
        E 0 91 25 64
        E 0 91 2b 64
        E 356 81 21 64
        E 0 81 25 64
        E 0 81 2b 64
        E 402 91 21 64
        E 0 91 25 64
        E 0 91 2b 64
        E 401 81 21 64
        E 0 81 25 64
        E 0 81 2b 64
        E 357 91 21 64
        E 0 91 25 64
        E 0 91 2b 64
        E 401 81 21 64
        E 0 81 25 64
        E 0 81 2b 64
        E 357 91 21 64
        E 0 91 25 64
        E 0 91 2b 64
        E 401 81 21 64
        E 0 81 25 64
        E 0 81 2b 64
        E 401 91 21 64
        E 0 91 25 64
        E 0 91 2b 64
        E 357 81 21 64
        E 0 81 25 64
        E 0 81 2b 64
        E 401 91 21 64
        E 0 91 25 64
        E 0 91 2b 64
        E 401 81 21 64
        E 0 81 25 64
        E 0 81 2b 64
        E 357 91 21 64
        E 0 91 25 64
        E 0 91 2b 64
        E 401 81 21 64
        E 0 81 25 64
        E 0 81 2b 64
        E 357 91 21 64
        E 0 91 25 64
        E 0 91 2b 64
        E 401 81 21 64
        E 0 81 25 64
        E 0 81 2b 64
        E 401 91 21 64
        E 0 91 25 64
        E 0 91 2b 64
        E 357 81 21 64
        E 0 81 25 64
        E 0 81 2b 64
        E 401 91 22 64
        E 0 91 28 64
        E 0 91 2c 64
        E 357 81 22 64
        E 0 81 28 64
        E 0 81 2c 64
        E 401 91 22 64
        E 0 91 28 64
        E 0 91 2c 64
        E 401 81 22 64
        E 0 81 28 64
        E 0 81 2c 64
        E 357 91 22 64
        E 0 91 28 64
        E 0 91 2c 64
        E 401 81 22 64
        E 0 81 28 64
        E 0 81 2c 64
        E 401 91 22 64
        E 0 91 28 64
        E 0 91 2c 64
        E 357 81 22 64
        E 0 81 28 64
        E 0 81 2c 64
        E 401 91 22 64
        E 0 91 28 64
        E 0 91 2c 64
        E 357 81 22 64
        E 0 81 28 64
        E 0 81 2c 64
        E 401 91 22 64
        E 0 91 28 64
        E 0 91 2c 64
        E 401 81 22 64
        E 0 81 28 64
        E 0 81 2c 64
        E 357 91 22 64
        E 0 91 28 64
        E 0 91 2c 64
        E 401 81 22 64
        E 0 81 28 64
        E 0 81 2c 64
        E 357 91 22 64
        E 0 91 28 64
        E 0 91 2c 64
        E 401 81 22 64
        E 0 81 28 64
        E 0 81 2c 64
        E 401 91 25 64
        E 0 91 2b 64
        E 0 91 2f 64
        E 357 81 25 64
        E 0 81 2b 64
        E 0 81 2f 64
        E 401 91 25 64
        E 0 91 2b 64
        E 0 91 2f 64
        E 357 81 25 64
        E 0 81 2b 64
        E 0 81 2f 64
        E 401 91 25 64
        E 0 91 2b 64
        E 0 91 2f 64
        E 401 81 25 64
        E 0 81 2b 64
        E 0 81 2f 64
        E 357 91 28 64
        E 0 91 2c 64
        E 0 91 32 64
        E 401 81 28 64
        E 0 81 2c 64
        E 0 81 32 64
        E 402 91 28 64
        E 0 91 2c 64
        E 0 91 32 64
        E 356 81 28 64
        E 0 81 2c 64
        E 0 81 32 64
        E 219 93 01 64
        E 182 91 28 64
        E 0 91 2c 64
        E 0 91 32 64
        E 357 81 28 64
        E 0 81 2c 64
        E 0 81 32 64
        E 401 91 28 64
        E 0 91 2c 64
        E 0 91 32 64
        E 402 81 28 64
        E 0 81 2c 64
        E 0 81 32 64
        E 356 91 28 64
        E 0 91 2c 64
        E 0 91 32 64
        E 174 83 01 64
        E 228 81 28 64
        E 0 81 2c 64
        E 0 81 32 64
        E 356 91 21 64
        E 0 91 25 64
        E 0 91 2b 64
        E 401 81 21 64
        E 0 81 25 64
        E 0 81 2b 64
        E 402 91 21 64
        E 0 91 25 64
        E 0 91 2b 64
        E 356 81 21 64
        E 0 81 25 64
        E 0 81 2b 64
        E 402 91 21 64
        E 0 91 25 64
        E 0 91 2b 64
        E 401 81 21 64
        E 0 81 25 64
        E 0 81 2b 64
        E 357 91 21 64
        E 0 91 25 64
        E 0 91 2b 64
        E 401 81 21 64
        E 0 81 25 64
        E 0 81 2b 64
        E 356 91 21 64
        E 0 91 25 64
        E 0 91 2b 64
        E 402 81 21 64
        E 0 81 25 64
        E 0 81 2b 64
        E 401 91 21 64
        E 0 91 25 64
        E 0 91 2b 64
        E 356 81 21 64
        E 0 81 25 64
        E 0 81 2b 64
        E 402 91 21 64
        E 0 91 25 64
        E 0 91 2b 64
        E 356 81 21 64
        E 0 81 25 64
        E 0 81 2b 64
        E 402 91 21 64
        E 0 91 25 64
        E 0 91 2b 64
        E 401 81 21 64
        E 0 81 25 64
        E 0 81 2b 64
        E 357 91 1a 64
        E 0 91 1e 64
        E 0 90 2f 64
        E 401 81 1a 64
        E 0 81 1e 64
        E 0 80 2f 64
        E 356 91 1a 64
        E 0 91 1e 64
        E 0 90 2f 64
        E 402 81 1a 64
        E 0 81 1e 64
        E 0 80 2f 64
        E 401 91 1a 64
        E 0 91 1e 64
        E 0 90 2f 64
        E 357 81 1a 64
        E 0 81 1e 64
        E 0 80 2f 64
        E 401 91 21 64
        E 0 91 25 64
        E 0 91 2b 64
        E 401 81 21 64
        E 0 81 25 64
        E 0 81 2b 64
        E 357 91 21 64
        E 0 91 25 64
        E 0 91 2b 64
        E 401 81 21 64
        E 0 81 25 64
        E 0 81 2b 64
        E 357 91 21 64
        E 0 91 25 64
        E 0 91 2b 64
        E 401 81 21 64
        E 0 81 25 64
        E 0 81 2b 64
        E 401 91 21 64
        E 0 91 25 64
        E 0 91 2b 64
        E 357 81 21 64
        E 0 81 25 64
        E 0 81 2b 64
        E 401 91 21 64
        E 0 91 25 64
        E 0 91 2b 64
        E 357 81 21 64
        E 0 81 25 64
        E 0 81 2b 64
        E 401 91 22 64
        E 0 91 28 64
        E 0 91 2c 64
        E 401 81 22 64
        E 0 81 28 64
        E 0 81 2c 64
        E 357 91 22 64
        E 0 91 28 64
        E 0 91 2c 64
        E 401 81 22 64
        E 0 81 28 64
        E 0 81 2c 64
        E 401 91 22 64
        E 0 91 28 64
        E 0 91 2c 64
        E 357 81 22 64
        E 0 81 28 64
        E 0 81 2c 64
        E 401 91 22 64
        E 0 91 28 64
        E 0 91 2c 64
        E 357 81 22 64
        E 0 81 28 64
        E 0 81 2c 64
        E 401 91 22 64
        E 0 91 28 64
        E 0 91 2c 64
        E 401 81 22 64
        E 0 81 28 64
        E 0 81 2c 64
        E 357 91 22 64
        E 0 91 28 64
        E 0 91 2c 64
        E 401 81 22 64
        E 0 81 28 64
        E 0 81 2c 64
        E 357 91 22 64
        E 0 91 28 64
        E 0 91 2c 64
        E 401 81 22 64
        E 0 81 28 64
        E 0 81 2c 64
        E 401 91 22 64
        E 0 91 28 64
        E 0 91 2c 64
        E 357 81 22 64
        E 0 81 28 64
        E 0 81 2c 64
        E 401 91 25 64
        E 0 91 2b 64
        E 0 91 2f 64
        E 401 81 25 64
        E 1 81 2b 64
        E 0 81 2f 64
        E 356 91 25 64
        E 0 91 2b 64
        E 0 91 2f 64
        E 401 81 25 64
        E 0 81 2b 64
        E 0 81 2f 64
        E 357 91 25 64
        E 0 91 2b 64
        E 0 91 2f 64
        E 401 81 25 64
        E 0 81 2b 64
        E 0 81 2f 64
        E 402 91 28 64
        E 0 91 2c 64
        E 0 91 32 64
        E 356 81 28 64
        E 0 81 2c 64
        E 0 81 32 64
        E 402 91 28 64
        E 0 91 2c 64
        E 0 91 32 64
        E 356 81 28 64
        E 0 81 2c 64
        E 0 81 32 64
        E 401 91 28 64
        E 0 91 2c 64
        E 0 91 32 64
        E 402 81 28 64
        E 0 81 2c 64
        E 0 81 32 64
        E 356 91 28 64
        E 0 91 2c 64
        E 0 91 32 64
        E 401 81 28 64
        E 0 81 2c 64
        E 1 81 32 64
        E 356 91 28 64
        E 0 91 2c 64
        E 0 91 32 64
        E 401 81 28 64
        E 0 81 2c 64
        E 0 81 32 64
        E 402 91 21 64
        E 0 91 25 64
        E 0 91 2b 64
        E 356 81 21 64
        E 0 81 25 64
        E 0 81 2b 64
        E 401 91 21 64
        E 0 91 25 64
        E 1 91 2b 64
        E 401 81 21 64
        E 0 81 25 64
        E 0 81 2b 64
        E 356 91 21 64
        E 0 91 25 64
        E 0 91 2b 64
        E 402 81 21 64
        E 0 81 25 64
        E 0 81 2b 64
        E 356 91 21 64
        E 0 91 25 64
        E 0 91 2b 64
        E 402 81 21 64
        E 0 81 25 64
        E 0 81 2b 64
        E 401 91 21 64
        E 0 91 25 64
        E 0 91 2b 64
        E 357 81 21 64
        E 0 81 25 64
        E 0 81 2b 64
        E 401 91 21 64
        E 0 91 25 64
        E 0 91 2b 64
        E 356 81 21 64
        E 0 81 25 64
        E 0 81 2b 64
        E 402 91 21 64
        E 0 91 25 64
        E 0 91 2b 64
        E 401 81 21 64
        E 0 81 25 64
        E 0 81 2b 64
        E 357 91 21 64
        E 0 91 25 64
        E 0 91 2b 64
        E 401 81 21 64
        E 0 81 25 64
        E 0 81 2b 64
        E 401 91 21 64
        E 0 91 25 64
        E 0 91 2b 64
        E 357 81 21 64
        E 0 81 25 64
        E 0 81 2b 64
        E 401 91 21 64
        E 0 91 25 64
        E 0 91 2b 64
        E 357 81 21 64
        E 0 81 25 64
        E 0 81 2b 64
        E 401 91 21 64
        E 0 91 25 64
        E 0 91 2b 64
        E 401 81 21 64
        E 0 81 25 64
        E 0 81 2b 64
        E 357 91 21 64
        E 0 91 25 64
        E 0 91 2b 64
        E 401 81 21 64
        E 0 81 25 64
        E 0 81 2b 64
        E 357 91 21 64
        E 0 91 25 64
        E 0 91 2b 64
        E 401 81 21 64
        E 0 81 25 64
        E 0 81 2b 64
        E 401 91 21 64
        E 0 91 25 64
        E 0 91 2b 64
        E 357 81 21 64
        E 0 81 25 64
        E 0 81 2b 64
        E 401 91 21 64
        E 0 91 25 64
        E 0 91 2b 64
        E 357 81 21 64
        E 0 81 25 64
        E 0 81 2b 64
        E 401 91 21 64
        E 0 91 25 64
        E 0 91 2b 64
        E 401 81 21 64
        E 0 81 25 64
        E 0 81 2b 64
        E 357 91 22 64
        E 0 91 28 64
        E 0 91 2c 64
        E 401 81 22 64
        E 0 81 28 64
        E 0 81 2c 64
        E 401 91 22 64
        E 0 91 28 64
        E 0 91 2c 64
        E 357 81 22 64
        E 0 81 28 64
        E 0 81 2c 64
        E 401 91 22 64
        E 0 91 28 64
        E 0 91 2c 64
        E 357 81 22 64
        E 0 81 28 64
        E 0 81 2c 64
        E 401 91 22 64
        E 0 91 28 64
        E 0 91 2c 64
        E 401 81 22 64
        E 0 81 28 64
        E 0 81 2c 64
        E 357 91 22 64
        E 0 91 28 64
        E 0 91 2c 64
        E 401 81 22 64
        E 0 81 28 64
        E 0 81 2c 64
        E 357 91 22 64
        E 0 91 28 64
        E 0 91 2c 64
        E 401 81 22 64
        E 0 81 28 64
        E 0 81 2c 64
        E 401 91 22 64
        E 0 91 28 64
        E 0 91 2c 64
        E 357 81 22 64
        E 0 81 28 64
        E 0 81 2c 64
        E 401 91 22 64
        E 0 91 28 64
        E 0 91 2c 64
        E 401 81 22 64
        E 0 81 28 64
        E 0 81 2c 64
        E 357 91 25 64
        E 0 91 2b 64
        E 0 91 2f 64
        E 401 81 25 64
        E 0 81 2b 64
        E 0 81 2f 64
        E 357 91 25 64
        E 0 91 2b 64
        E 0 91 2f 64
        E 401 81 25 64
        E 0 81 2b 64
        E 0 81 2f 64
        E 401 91 25 64
        E 0 91 2b 64
        E 0 91 2f 64
        E 357 81 25 64
        E 0 81 2b 64
        E 0 81 2f 64
        E 401 91 28 64
        E 0 91 2c 64
        E 0 91 32 64
        E 357 81 28 64
        E 0 81 2c 64
        E 0 81 32 64
        E 401 91 28 64
        E 0 91 2c 64
        E 0 91 32 64
        E 402 81 28 64
        E 0 81 2c 64
        E 0 81 32 64
        E 356 91 28 64
        E 0 91 2c 64
        E 0 91 32 64
        E 401 81 28 64
        E 0 81 2c 64
        E 0 81 32 64
        E 402 91 28 64
        E 0 91 2c 64
        E 0 91 32 64
        E 356 81 28 64
        E 0 81 2c 64
        E 0 81 32 64
        E 402 91 28 64
        E 0 91 2c 64
        E 0 91 32 64
        E 356 81 28 64
        E 0 81 2c 64
        E 0 81 32 64
        E 401 91 21 64
        E 1 91 25 64
        E 0 91 2b 64
        E 401 81 21 64
        E 0 81 25 64
        E 0 81 2b 64
        E 356 91 21 64
        E 0 91 25 64
        E 0 91 2b 64
        E 402 81 21 64
        E 0 81 25 64
        E 0 81 2b 64
        E 356 91 21 64
        E 0 91 25 64
        E 0 91 2b 64
        E 402 81 21 64
        E 0 81 25 64
        E 0 81 2b 64
        E 401 91 21 64
        E 0 91 25 64
        E 0 91 2b 64
        E 356 81 21 64
        E 0 81 25 64
        E 0 81 2b 64
        E 402 91 21 64
        E 0 91 25 64
        E 0 91 2b 64
        E 356 81 21 64
        E 0 81 25 64
        E 0 81 2b 64
        E 402 91 21 64
        E 0 91 25 64
        E 0 91 2b 64
        E 401 81 21 64
        E 0 81 25 64
        E 0 81 2b 64
        E 357 91 21 64
        E 0 91 25 64
        E 0 91 2b 64
        E 401 81 21 64
        E 0 81 25 64
        E 0 81 2b 64
        E 401 91 21 64
        E 0 91 25 64
        E 0 91 2b 64
        E 357 81 21 64
        E 0 81 25 64
        E 0 81 2b 64
        E 401 91 1a 64
        E 0 91 1e 64
        E 0 90 2f 64
        E 357 81 1a 64
        E 0 81 1e 64
        E 0 80 2f 64
        E 401 91 1a 64
        E 0 91 1e 64
        E 0 90 2f 64
        E 401 81 1a 64
        E 0 81 1e 64
        E 0 80 2f 64
        E 357 91 1a 64
        E 0 91 1e 64
        E 0 90 2f 64
        E 401 81 1a 64
        E 0 81 1e 64
        E 0 80 2f 64
        E 357 91 21 64
        E 0 91 25 64
        E 0 91 2b 64
        E 401 81 21 64
        E 0 81 25 64
        E 0 81 2b 64
        E 401 91 21 64
        E 0 91 25 64
        E 0 91 2b 64
        E 357 81 21 64
        E 0 81 25 64
        E 0 81 2b 64
        E 401 91 21 64
        E 0 91 25 64
        E 0 91 2b 64
        E 401 81 21 64
        E 0 81 25 64
        E 0 81 2b 64
        E 357 91 21 64
        E 0 91 25 64
        E 0 91 2b 64
        E 401 81 21 64
        E 0 81 25 64
        E 0 81 2b 64
        E 357 91 21 64
        E 0 91 25 64
        E 0 91 2b 64
        E 401 81 21 64
        E 0 81 25 64
        E 0 81 2b 64
        E 401 91 22 64
        E 0 91 28 64
        E 0 91 2c 64
        E 357 81 22 64
        E 0 81 28 64
        E 0 81 2c 64
        E 401 91 22 64
        E 0 91 28 64
        E 0 91 2c 64
        E 357 81 22 64
        E 0 81 28 64
        E 0 81 2c 64
        E 401 91 22 64
        E 0 91 28 64
        E 0 91 2c 64
        E 401 81 22 64
        E 0 81 28 64
        E 0 81 2c 64
        E 357 91 22 64
        E 0 91 28 64
        E 0 91 2c 64
        E 401 81 22 64
        E 0 81 28 64
        E 0 81 2c 64
        E 357 91 22 64
        E 0 91 28 64
        E 0 91 2c 64
        E 401 81 22 64
        E 0 81 28 64
        E 0 81 2c 64
        E 401 91 22 64
        E 0 91 28 64
        E 0 91 2c 64
        E 357 81 22 64
        E 0 81 28 64
        E 0 81 2c 64
        E 401 91 22 64
        E 0 91 28 64
        E 0 91 2c 64
        E 401 81 22 64
        E 0 81 28 64
        E 0 81 2c 64
        E 357 91 22 64
        E 0 91 28 64
        E 0 91 2c 64
        E 401 81 22 64
        E 0 81 28 64
        E 0 81 2c 64
        E 357 91 25 64
        E 0 91 2b 64
        E 0 91 2f 64
        E 401 81 25 64
        E 0 81 2b 64
        E 0 81 2f 64
        E 401 91 25 64
        E 0 91 2b 64
        E 0 91 2f 64
        E 357 81 25 64
        E 0 81 2b 64
        E 0 81 2f 64
        E 401 91 25 64
        E 0 91 2b 64
        E 0 91 2f 64
        E 357 81 25 64
        E 0 81 2b 64
        E 0 81 2f 64
        E 401 91 28 64
        E 0 91 2c 64
        E 0 91 32 64
        E 401 81 28 64
        E 0 81 2c 64
        E 0 81 32 64
        E 357 91 28 64
        E 0 91 2c 64
        E 0 91 32 64
        E 401 81 28 64
        E 0 81 2c 64
        E 0 81 32 64
        E 402 91 28 64
        E 0 91 2c 64
        E 0 91 32 64
        E 356 81 28 64
        E 0 81 2c 64
        E 0 81 32 64
        E 402 91 28 64
        E 0 91 2c 64
        E 0 91 32 64
        E 356 81 28 64
        E 0 81 2c 64
        E 0 81 32 64
        E 401 91 28 64
        E 0 91 2c 64
        E 0 91 32 64
        E 402 81 28 64
        E 0 81 2c 64
        E 0 81 32 64
        E 356 91 21 64
        E 0 91 25 64
        E 0 91 2b 64
        E 402 81 21 64
        E 0 81 25 64
        E 0 81 2b 64
        E 356 91 21 64
        E 0 91 25 64
        E 0 91 2b 64
        E 402 81 21 64
        E 0 81 25 64
        E 0 81 2b 64
        E 401 91 25 64
        E 0 91 2b 64
        E 0 91 21 64
        E 356 81 25 64
        E 0 81 2b 64
        E 0 81 21 64
        E 402 91 21 64
        E 0 91 25 64
        E 0 91 2b 64
        E 401 81 21 64
        E 0 81 25 64
        E 0 81 2b 64
        E 356 91 21 64
        E 0 91 25 64
        E 0 91 2b 64
        E 402 81 21 64
        E 0 81 25 64
        E 0 81 2b 64
        E 356 91 21 64
        E 0 91 25 64
        E 0 91 2b 64
        E 402 81 21 64
        E 0 81 25 64
        E 0 81 2b 64
        E 401 91 21 64
        E 0 91 25 64
        E 0 91 2b 64
        E 357 81 21 64
        E 0 81 25 64
        E 0 81 2b 64
        E 401 91 21 64
        E 0 91 25 64
        E 0 91 2b 64
        E 356 81 21 64
        E 0 81 25 64
        E 0 81 2b 64
        E 402 91 21 64
        E 0 91 25 64
        E 0 91 2b 64
        E 401 81 21 64
        E 0 81 25 64
        E 0 81 2b 64
        E 357 91 21 64
        E 0 91 25 64
        E 0 91 2b 64
        E 401 81 21 64
        E 0 81 25 64
        E 0 81 2b 64
        E 356 91 21 64
        E 0 91 25 64
        E 1 91 2b 64
        E 401 81 21 64
        E 0 81 25 64
        E 0 81 2b 64
        E 401 91 21 64
        E 0 91 25 64
        E 0 91 2b 64
        E 357 81 21 64
        E 0 81 25 64
        E 0 81 2b 64
        E 401 91 21 64
        E 0 91 25 64
        E 0 91 2b 64
        E 401 81 21 64
        E 0 81 25 64
        E 0 81 2b 64
        E 357 91 21 64
        E 0 91 25 64
        E 0 91 2b 64
        E 401 81 21 64
        E 0 81 25 64
        E 0 81 2b 64
        E 357 91 21 64
        E 0 91 25 64
        E 0 91 2b 64
        E 401 81 21 64
        E 0 81 25 64
        E 0 81 2b 64
        E 401 91 21 64
        E 0 91 25 64
        E 0 91 2b 64
        E 357 81 21 64
        E 0 81 25 64
        E 0 81 2b 64
        E 401 91 22 64
        E 0 91 28 64
        E 0 91 2c 64
        E 357 81 22 64
        E 0 81 28 64
        E 0 81 2c 64
        E 401 91 22 64
        E 0 91 28 64
        E 0 91 2c 64
        E 401 81 22 64
        E 0 81 28 64
        E 0 81 2c 64
        E 357 91 22 64
        E 0 91 28 64
        E 0 91 2c 64
        E 401 81 22 64
        E 0 81 28 64
        E 0 81 2c 64
        E 401 91 22 64
        E 0 91 28 64
        E 0 91 2c 64
        E 357 81 22 64
        E 0 81 28 64
        E 0 81 2c 64
        E 401 91 22 64
        E 0 91 28 64
        E 0 91 2c 64
        E 357 81 22 64
        E 0 81 28 64
        E 0 81 2c 64
        E 401 91 22 64
        E 0 91 28 64
        E 0 91 2c 64
        E 401 81 22 64
        E 0 81 28 64
        E 0 81 2c 64
        E 357 91 22 64
        E 0 91 28 64
        E 0 91 2c 64
        E 401 81 22 64
        E 0 81 28 64
        E 0 81 2c 64
        E 357 91 22 64
        E 0 91 28 64
        E 0 91 2c 64
        E 401 81 22 64
        E 0 81 28 64
        E 0 81 2c 64
        E 401 91 25 64
        E 0 91 2b 64
        E 0 91 2f 64
        E 357 81 25 64
        E 0 81 2b 64
        E 0 81 2f 64
        E 401 91 25 64
        E 0 91 2b 64
        E 0 91 2f 64
        E 357 81 25 64
        E 0 81 2b 64
        E 0 81 2f 64
        E 401 91 25 64
        E 0 91 2b 64
        E 0 91 2f 64
        E 401 81 25 64
        E 0 81 2b 64
        E 0 81 2f 64
        E 357 91 28 64
        E 0 91 2c 64
        E 0 91 32 64
        E 401 81 28 64
        E 0 81 2c 64
        E 0 81 32 64
        E 402 91 28 64
        E 0 91 2c 64
        E 0 91 32 64
        E 356 81 28 64
        E 0 81 2c 64
        E 0 81 32 64
        E 402 91 28 64
        E 0 91 2c 64
        E 0 91 32 64
        E 356 81 28 64
        E 0 81 2c 64
        E 0 81 32 64
        E 401 91 28 64
        E 0 91 2c 64
        E 0 91 32 64
        E 402 81 28 64
        E 0 81 2c 64
        E 0 81 32 64
        E 356 91 28 64
        E 0 91 2c 64
        E 0 91 32 64
        E 402 81 28 64
        E 0 81 2c 64
        E 0 81 32 64
        E 356 91 21 64
        E 0 91 25 64
        E 0 91 2b 64
        E 401 81 21 64
        E 0 81 25 64
        E 0 81 2b 64
        E 402 91 21 64
        E 0 91 25 64
        E 0 91 2b 64
        E 356 81 21 64
        E 0 81 25 64
        E 0 81 2b 64
        E 402 91 21 64
        E 0 91 25 64
        E 0 91 2b 64
        E 401 81 21 64
        E 0 81 25 64
        E 0 81 2b 64
        E 356 91 21 64
        E 1 91 25 64
        E 0 91 2b 64
        E 401 81 21 64
        E 0 81 25 64
        E 0 81 2b 64
        E 356 91 21 64
        E 0 91 25 64
        E 0 91 2b 64
        E 402 81 21 64
        E 0 81 25 64
        E 0 81 2b 64
        E 401 91 21 64
        E 0 91 25 64
        E 0 91 2b 64
        E 356 81 21 64
        E 0 81 25 64
        E 0 81 2b 64
        E 402 91 21 64
        E 0 91 25 64
        E 0 91 2b 64
        E 356 81 21 64
        E 0 81 25 64
        E 0 81 2b 64
        E 402 91 21 64
        E 0 91 25 64
        E 0 91 2b 64
        E 401 81 21 64
        E 0 81 25 64
        E 0 81 2b 64
        E 357 91 1a 64
        E 0 91 1e 64
        E 0 90 2f 64
        E 401 81 1a 64
        E 0 81 1e 64
        E 0 80 2f 64
        E 356 91 1a 64
        E 0 91 1e 64
        E 0 90 2f 64
        E 402 81 1a 64
        E 0 81 1e 64
        E 0 80 2f 64
        E 401 91 1a 64
        E 0 91 1e 64
        E 0 90 2f 64
        E 357 81 1a 64
        E 0 81 1e 64
        E 0 80 2f 64
        E 401 91 21 64
        E 0 91 25 64
        E 0 91 2b 64
        E 401 81 21 64
        E 0 81 25 64
        E 0 81 2b 64
        E 357 91 21 64
        E 0 91 25 64
        E 0 91 2b 64
        E 401 81 21 64
        E 0 81 25 64
        E 0 81 2b 64
        E 357 91 21 64
        E 0 91 25 64
        E 0 91 2b 64
        E 401 81 21 64
        E 0 81 25 64
        E 0 81 2b 64
        E 401 91 21 64
        E 0 91 25 64
        E 0 91 2b 64
        E 357 81 21 64
        E 0 81 25 64
        E 0 81 2b 64
        E 401 91 21 64
        E 0 91 25 64
        E 0 91 2b 64
        E 357 81 21 64
        E 0 81 25 64
        E 0 81 2b 64
        E 401 91 22 64
        E 0 91 28 64
        E 0 91 2c 64
        E 401 81 22 64
        E 0 81 28 64
        E 0 81 2c 64
        E 357 91 22 64
        E 0 91 28 64
        E 0 91 2c 64
        E 401 81 22 64
        E 0 81 28 64
        E 0 81 2c 64
        E 401 91 22 64
        E 0 91 28 64
        E 0 91 2c 64
        E 357 81 22 64
        E 0 81 28 64
        E 0 81 2c 64
        E 401 91 22 64
        E 0 91 28 64
        E 0 91 2c 64
        E 357 81 22 64
        E 0 81 28 64
        E 0 81 2c 64
        E 401 91 22 64
        E 0 91 28 64
        E 0 91 2c 64
        E 401 81 22 64
        E 0 81 28 64
        E 0 81 2c 64
        E 357 91 22 64
        E 0 91 28 64
        E 0 91 2c 64
        E 401 81 22 64
        E 0 81 28 64
        E 0 81 2c 64
        E 357 91 22 64
        E 0 91 28 64
        E 0 91 2c 64
        E 401 81 22 64
        E 0 81 28 64
        E 0 81 2c 64
        E 401 91 22 64
        E 0 91 28 64
        E 0 91 2c 64
        E 357 81 22 64
        E 0 81 28 64
        E 0 81 2c 64
        E 401 91 25 64
        E 0 91 2b 64
        E 0 91 2f 64
        E 401 81 25 64
        E 0 81 2b 64
        E 0 81 2f 64
        E 357 91 25 64
        E 0 91 2b 64
        E 0 91 2f 64
        E 401 81 25 64
        E 0 81 2b 64
        E 0 81 2f 64
        E 357 91 25 64
        E 0 91 2b 64
        E 0 91 2f 64
        E 401 81 25 64
        E 0 81 2b 64
        E 0 81 2f 64
        E 402 91 28 64
        E 0 91 2c 64
        E 0 91 32 64
        E 356 81 28 64
        E 0 81 2c 64
        E 0 81 32 64
        E 402 91 28 64
        E 0 91 2c 64
        E 0 91 32 64
        E 356 81 28 64
        E 0 81 2c 64
        E 0 81 32 64
        E 401 91 28 64
        E 0 91 2c 64
        E 0 91 32 64
        E 402 81 28 64
        E 0 81 2c 64
        E 0 81 32 64
        E 356 91 28 64
        E 0 91 2c 64
        E 0 91 32 64
        E 402 81 28 64
        E 0 81 2c 64
        E 0 81 32 64
        E 356 91 28 64
        E 0 91 2c 64
        E 0 91 32 64
        E 401 81 28 64
        E 0 81 2c 64
        E 0 81 32 64
        E 402 91 21 64
        E 0 91 25 64
        E 0 91 2b 64
        E 356 81 21 64
        E 0 81 25 64
        E 0 81 2b 64
        E 401 91 21 64
        E 0 91 25 64
        E 0 91 2b 64
        E 402 81 21 64
        E 0 81 25 64
        E 0 81 2b 64
        E 356 91 21 64
        E 0 91 25 64
        E 0 91 2b 64
        E 402 81 21 64
        E 0 81 25 64
        E 0 81 2b 64
        E 356 91 21 64
        E 0 91 25 64
        E 0 91 2b 64
        E 402 81 21 64
        E 0 81 25 64
        E 0 81 2b 64
        E 401 91 21 64
        E 0 91 25 64
        E 0 91 2b 64
        E 357 81 21 64
        E 0 81 25 64
        E 0 81 2b 64
        E 401 91 21 64
        E 0 91 25 64
        E 0 91 2b 64
        E 356 81 21 64
        E 0 81 25 64
        E 0 81 2b 64
        E 402 91 21 64
        E 0 91 25 64
        E 0 91 2b 64
        E 401 81 21 64
        E 0 81 25 64
        E 0 81 2b 64
        E 357 91 21 64
        E 0 91 25 64
        E 0 91 2b 64
        E 401 81 21 64
        E 0 81 25 64
        E 0 81 2b 64
        E 401 91 21 64
        E 0 91 25 64
        E 0 91 2b 64
        E 357 81 21 64
        E 0 81 25 64
        E 0 81 2b 64
        E 401 91 21 64
        E 0 91 25 64
        E 0 91 2b 64
        E 357 81 21 64
        E 0 81 25 64
        E 0 81 2b 64
        E 401 91 21 64
        E 0 91 25 64
        E 0 91 2b 64
        E 401 81 21 64
        E 0 81 25 64
        E 0 81 2b 64
        E 357 91 21 64
        E 0 91 25 64
        E 0 91 2b 64
        E 401 81 21 64
        E 0 81 25 64
        E 0 81 2b 64
        E 357 91 21 64
        E 0 91 25 64
        E 0 91 2b 64
        E 401 81 21 64
        E 0 81 25 64
        E 0 81 2b 64
        E 401 91 21 64
        E 0 91 25 64
        E 0 91 2b 64
        E 357 81 21 64
        E 0 81 25 64
        E 0 81 2b 64
        E 401 91 21 64
        E 0 91 25 64
        E 0 91 2b 64
        E 357 81 21 64
        E 0 81 25 64
        E 0 81 2b 64
        E 401 91 21 64
        E 0 91 25 64
        E 0 91 2b 64
        E 401 81 21 64
        E 0 81 25 64
        E 0 81 2b 64
        E 357 91 22 64
        E 0 91 28 64
        E 0 91 2c 64
        E 401 81 22 64
        E 0 81 28 64
        E 0 81 2c 64
        E 401 91 22 64
        E 0 91 28 64
        E 0 91 2c 64
        E 357 81 22 64
        E 0 81 28 64
        E 0 81 2c 64
        E 401 91 22 64
        E 0 91 28 64
        E 0 91 2c 64
        E 357 81 22 64
        E 0 81 28 64
        E 0 81 2c 64
        E 401 91 22 64
        E 0 91 28 64
        E 0 91 2c 64
        E 401 81 22 64
        E 0 81 28 64
        E 0 81 2c 64
        E 357 91 22 64
        E 0 91 28 64
        E 0 91 2c 64
        E 401 81 22 64
        E 0 81 28 64
        E 0 81 2c 64
        E 357 91 22 64
        E 0 91 28 64
        E 0 91 2c 64
        E 401 81 22 64
        E 0 81 28 64
        E 0 81 2c 64
        E 401 91 22 64
        E 0 91 28 64
        E 0 91 2c 64
        E 357 81 22 64
        E 0 81 28 64
        E 0 81 2c 64
        E 401 91 22 64
        E 0 91 28 64
        E 0 91 2c 64
        E 401 81 22 64
        E 0 81 28 64
        E 0 81 2c 64
        E 357 91 25 64
        E 0 91 2b 64
        E 0 91 2f 64
        E 401 81 25 64
        E 0 81 2b 64
        E 0 81 2f 64
        E 357 91 25 64
        E 0 91 2b 64
        E 0 91 2f 64
        E 401 81 25 64
        E 0 81 2b 64
        E 0 81 2f 64
        E 402 91 25 64
        E 0 91 2b 64
        E 0 91 2f 64
        E 356 81 25 64
        E 0 81 2b 64
        E 0 81 2f 64
        E 401 91 28 64
        E 0 91 2c 64
        E 0 91 32 64
        E 357 81 28 64
        E 0 81 2c 64
        E 0 81 32 64
        E 401 91 28 64
        E 0 91 2c 64
        E 0 91 32 64
        E 402 81 28 64
        E 0 81 2c 64
        E 0 81 32 64
        E 356 91 28 64
        E 0 91 2c 64
        E 0 91 32 64
        E 401 81 28 64
        E 0 81 2c 64
        E 0 81 32 64
        E 402 91 28 64
        E 0 91 2c 64
        E 0 91 32 64
        E 356 81 28 64
        E 0 81 2c 64
        E 0 81 32 64
        E 402 91 28 64
        E 0 91 2c 64
        E 0 91 32 64
        E 356 81 28 64
        E 0 81 2c 64
        E 0 81 32 64
        E 402 91 21 64
        E 0 91 25 64
        E 0 91 2b 64
        E 401 81 21 64
        E 0 81 25 64
        E 0 81 2b 64
        E 356 91 21 64
        E 0 91 25 64
        E 0 91 2b 64
        E 402 81 21 64
        E 0 81 25 64
        E 0 81 2b 64
        E 356 91 21 64
        E 0 91 25 64
        E 0 91 2b 64
        E 402 81 21 64
        E 0 81 25 64
        E 0 81 2b 64
        E 401 91 21 64
        E 0 91 25 64
        E 0 91 2b 64
        E 356 81 21 64
        E 0 81 25 64
        E 0 81 2b 64
        E 402 91 21 64
        E 0 91 25 64
        E 0 91 2b 64
        E 356 81 21 64
        E 0 81 25 64
        E 0 81 2b 64
        E 402 91 21 64
        E 0 91 25 64
        E 0 91 2b 64
        E 401 81 21 64
        E 0 81 25 64
        E 0 81 2b 64
        E 356 91 21 64
        E 1 91 25 64
        E 0 91 2b 64
        E 401 81 21 64
        E 0 81 25 64
        E 0 81 2b 64
        E 401 91 21 64
        E 0 91 25 64
        E 0 91 2b 64
        E 357 81 21 64
        E 0 81 25 64
        E 0 81 2b 64
        E 401 91 1a 64
        E 0 91 1e 64
        E 0 90 2f 64
        E 356 81 1a 64
        E 1 81 1e 64
        E 0 80 2f 64
        E 401 91 1a 64
        E 0 91 1e 64
        E 0 90 2f 64
        E 401 81 1a 64
        E 0 81 1e 64
        E 0 80 2f 64
        E 357 91 1a 64
        E 0 91 1e 64
        E 0 90 2f 64
        E 401 81 1a 64
        E 0 81 1e 64
        E 0 80 2f 64
        E 356 91 21 64
        E 0 91 25 64
        E 0 91 2b 64
        E 402 81 21 64
        E 0 81 25 64
        E 0 81 2b 64
        E 401 91 21 64
        E 0 91 25 64
        E 0 91 2b 64
        E 357 81 21 64
        E 0 81 25 64
        E 0 81 2b 64
        E 401 91 21 64
        E 0 91 25 64
        E 0 91 2b 64
        E 401 81 21 64
        E 0 81 25 64
        E 0 81 2b 64
        E 357 91 25 64
        E 0 91 2b 64
        E 0 91 21 64
        E 401 81 25 64
        E 0 81 2b 64
        E 0 81 21 64
        E 357 91 21 64
        E 0 91 25 64
        E 0 91 2b 64
        E 401 81 21 64
        E 0 81 25 64
        E 0 81 2b 64
        E 401 91 22 64
        E 0 91 28 64
        E 0 91 2c 64
        E 357 81 22 64
        E 0 81 28 64
        E 0 81 2c 64
        E 401 91 22 64
        E 0 91 28 64
        E 0 91 2c 64
        E 357 81 22 64
        E 0 81 28 64
        E 0 81 2c 64
        E 401 91 22 64
        E 0 91 28 64
        E 0 91 2c 64
        E 401 81 22 64
        E 0 81 28 64
        E 0 81 2c 64
        E 357 91 22 64
        E 0 91 28 64
        E 0 91 2c 64
        E 401 81 22 64
        E 0 81 28 64
        E 0 81 2c 64
        E 357 91 22 64
        E 0 91 28 64
        E 0 91 2c 64
        E 401 81 22 64
        E 0 81 28 64
        E 0 81 2c 64
        E 401 91 22 64
        E 0 91 28 64
        E 0 91 2c 64
        E 357 81 22 64
        E 0 81 28 64
        E 0 81 2c 64
        E 401 91 22 64
        E 0 91 28 64
        E 0 91 2c 64
        E 401 81 22 64
        E 0 81 28 64
        E 0 81 2c 64
        E 357 91 22 64
        E 0 91 28 64
        E 0 91 2c 64
        E 401 81 22 64
        E 0 81 28 64
        E 0 81 2c 64
        E 357 91 25 64
        E 0 91 2b 64
        E 0 91 2f 64
        E 401 81 25 64
        E 0 81 2b 64
        E 0 81 2f 64
        E 402 91 25 64
        E 0 91 2b 64
        E 0 91 2f 64
        E 356 81 25 64
        E 0 81 2b 64
        E 0 81 2f 64
        E 401 91 25 64
        E 0 91 2b 64
        E 0 91 2f 64
        E 357 81 25 64
        E 0 81 2b 64
        E 0 81 2f 64
        E 401 91 28 64
        E 0 91 2c 64
        E 0 91 32 64
        E 401 81 28 64
        E 0 81 2c 64
        E 0 81 32 64
        E 357 91 28 64
        E 0 91 2c 64
        E 0 91 32 64
        E 401 81 28 64
        E 0 81 2c 64
        E 0 81 32 64
        E 402 91 28 64
        E 0 91 2c 64
        E 0 91 32 64
        E 356 81 28 64
        E 0 81 2c 64
        E 0 81 32 64
        E 402 91 28 64
        E 0 91 2c 64
        E 0 91 32 64
        E 356 81 28 64
        E 0 81 2c 64
        E 0 81 32 64
        E 401 91 28 64
        E 0 91 2c 64
        E 0 91 32 64
        E 402 81 28 64
        E 0 81 2c 64
        E 0 81 32 64
        E 356 91 21 64
        E 0 91 25 64
        E 0 91 2b 64
        E 402 81 21 64
        E 0 81 25 64
        E 0 81 2b 64
        E 356 91 21 64
        E 0 91 25 64
        E 0 91 2b 64
        E 402 81 21 64
        E 0 81 25 64
        E 0 81 2b 64
        E 401 91 21 64
        E 0 91 25 64
        E 0 91 2b 64
        E 356 81 21 64
        E 0 81 25 64
        E 0 81 2b 64
        E 402 91 21 64
        E 0 91 25 64
        E 0 91 2b 64
        E 401 81 21 64
        E 0 81 25 64
        E 0 81 2b 64
        E 356 91 21 64
        E 0 91 25 64
        E 0 91 2b 64
        E 402 81 21 64
        E 0 81 25 64
        E 0 81 2b 64
        E 356 91 21 64
        E 0 91 25 64
        E 0 91 2b 64
        E 402 81 21 64
        E 0 81 25 64
        E 0 81 2b 64
        E 401 91 21 64
        E 0 91 25 64
        E 0 91 2b 64
        E 357 81 21 64
        E 0 81 25 64
        E 0 81 2b 64
        E 401 91 21 64
        E 0 91 25 64
        E 0 91 2b 64
        E 356 81 21 64
        E 0 81 25 64
        E 0 81 2b 64
        E 402 91 21 64
        E 0 91 25 64
        E 0 91 2b 64
        E 401 81 21 64
        E 0 81 25 64
        E 0 81 2b 64
        E 357 91 21 64
        E 0 91 25 64
        E 0 91 2b 64
        E 401 81 21 64
        E 0 81 25 64
        E 0 81 2b 64
        E 357 91 21 64
        E 0 91 25 64
        E 0 91 2b 64
        E 401 81 21 64
        E 0 81 25 64
        E 0 81 2b 64
        E 401 91 21 64
        E 0 91 25 64
        E 0 91 2b 64
        E 357 81 21 64
        E 0 81 25 64
        E 0 81 2b 64
        E 401 91 21 64
        E 0 91 25 64
        E 0 91 2b 64
        E 401 81 21 64
        E 0 81 25 64
        E 0 81 2b 64
        E 357 91 21 64
        E 0 91 25 64
        E 0 91 2b 64
        E 401 81 21 64
        E 0 81 25 64
        E 0 81 2b 64
        E 357 91 21 64
        E 0 91 25 64
        E 0 91 2b 64
        E 401 81 21 64
        E 0 81 25 64
        E 0 81 2b 64
        E 401 91 21 64
        E 0 91 25 64
        E 0 91 2b 64
        E 357 81 21 64
        E 0 81 25 64
        E 0 81 2b 64
        E 401 91 22 64
        E 0 91 28 64
        E 0 91 2c 64
        E 357 81 22 64
        E 0 81 28 64
        E 0 81 2c 64
        E 401 91 22 64
        E 0 91 28 64
        E 0 91 2c 64
        E 401 81 22 64
        E 0 81 28 64
        E 0 81 2c 64
        E 357 91 22 64
        E 0 91 28 64
        E 0 91 2c 64
        E 401 81 22 64
        E 0 81 28 64
        E 0 81 2c 64
        E 401 91 22 64
        E 0 91 28 64
        E 0 91 2c 64
        E 357 81 22 64
        E 0 81 28 64
        E 0 81 2c 64
        E 401 91 22 64
        E 0 91 28 64
        E 0 91 2c 64
        E 357 81 22 64
        E 0 81 28 64
        E 0 81 2c 64
        E 401 91 22 64
        E 0 91 28 64
        E 0 91 2c 64
        E 401 81 22 64
        E 0 81 28 64
        E 0 81 2c 64
        E 357 91 22 64
        E 0 91 28 64
        E 0 91 2c 64
        E 401 81 22 64
        E 0 81 28 64
        E 0 81 2c 64
        E 357 91 22 64
        E 0 91 28 64
        E 0 91 2c 64
        E 401 81 22 64
        E 0 81 28 64
        E 0 81 2c 64
        E 401 91 25 64
        E 0 91 2b 64
        E 0 91 2f 64
        E 357 81 25 64
        E 0 81 2b 64
        E 0 81 2f 64
        E 401 91 25 64
        E 0 91 2b 64
        E 0 91 2f 64
        E 357 81 25 64
        E 0 81 2b 64
        E 0 81 2f 64
        E 401 91 25 64
        E 0 91 2b 64
        E 0 91 2f 64
        E 402 81 25 64
        E 0 81 2b 64
        E 0 81 2f 64
        E 356 91 28 64
        E 0 91 2c 64
        E 0 91 32 64
        E 401 81 28 64
        E 0 81 2c 64
        E 0 81 32 64
        E 402 91 28 64
        E 0 91 2c 64
        E 0 91 32 64
        E 356 81 28 64
        E 0 81 2c 64
        E 0 81 32 64
        E 402 91 28 64
        E 0 91 2c 64
        E 0 91 32 64
        E 356 81 28 64
        E 0 81 2c 64
        E 0 81 32 64
        E 401 91 28 64
        E 0 91 2c 64
        E 0 91 32 64
        E 402 81 28 64
        E 0 81 2c 64
        E 0 81 32 64
        E 356 91 28 64
        E 0 91 2c 64
        E 0 91 32 64
        E 402 81 28 64
        E 0 81 2c 64
        E 0 81 32 64
        E 356 91 21 64
        E 0 91 25 64
        E 0 91 2b 64
        E 401 81 21 64
        E 0 81 25 64
        E 0 81 2b 64
        E 402 91 21 64
        E 0 91 25 64
        E 0 91 2b 64
        E 356 81 21 64
        E 0 81 25 64
        E 0 81 2b 64
        E 402 91 21 64
        E 0 91 25 64
        E 0 91 2b 64
        E 401 81 21 64
        E 0 81 25 64
        E 0 81 2b 64
        E 357 91 21 64
        E 0 91 25 64
        E 0 91 2b 64
        E 401 81 21 64
        E 0 81 25 64
        E 0 81 2b 64
        E 356 91 21 64
        E 0 91 25 64
        E 0 91 2b 64
        E 402 81 21 64
        E 0 81 25 64
        E 0 81 2b 64
        E 401 91 21 64
        E 0 91 25 64
        E 0 91 2b 64
        E 356 81 21 64
        E 0 81 25 64
        E 0 81 2b 64
        E 402 91 21 64
        E 0 91 25 64
        E 0 91 2b 64
        E 356 81 21 64
        E 0 81 25 64
        E 0 81 2b 64
        E 402 91 21 64
        E 0 91 25 64
        E 0 91 2b 64
        E 401 81 21 64
        E 0 81 25 64
        E 0 81 2b 64
        E 357 91 1a 64
        E 0 91 1e 64
        E 0 90 2f 64
        E 401 81 1a 64
        E 0 81 1e 64
        E 0 80 2f 64
        E 356 91 1a 64
        E 0 91 1e 64
        E 0 90 2f 64
        E 402 81 1a 64
        E 0 81 1e 64
        E 0 80 2f 64
        E 401 91 1a 64
        E 0 91 1e 64
        E 0 90 2f 64
        E 357 81 1a 64
        E 0 81 1e 64
        E 0 80 2f 64
        E 401 91 21 64
        E 0 91 25 64
        E 0 91 2b 64
        E 401 81 21 64
        E 0 81 25 64
        E 0 81 2b 64
        E 357 91 21 64
        E 0 91 25 64
        E 0 91 2b 64
        E 401 81 21 64
        E 0 81 25 64
        E 0 81 2b 64
        E 357 91 21 64
        E 0 91 25 64
        E 0 91 2b 64
        E 401 81 21 64
        E 0 81 25 64
        E 0 81 2b 64
        E 401 91 21 64
        E 0 91 25 64
        E 0 91 2b 64
        E 357 81 21 64
        E 0 81 25 64
        E 0 81 2b 64
        E 401 91 21 64
        E 0 91 25 64
        E 0 91 2b 64
        E 357 81 21 64
        E 0 81 25 64
        E 0 81 2b 64
        E 401 91 22 64
        E 0 91 28 64
        E 0 91 2c 64
        E 401 81 22 64
        E 0 81 28 64
        E 0 81 2c 64
        E 357 91 22 64
        E 0 91 28 64
        E 0 91 2c 64
        E 401 81 22 64
        E 0 81 28 64
        E 0 81 2c 64
        E 401 91 22 64
        E 0 91 28 64
        E 0 91 2c 64
        E 357 81 22 64
        E 0 81 28 64
        E 0 81 2c 64
        E 401 91 22 64
        E 0 91 28 64
        E 0 91 2c 64
        E 357 81 22 64
        E 0 81 28 64
        E 0 81 2c 64
        E 401 91 22 64
        E 0 91 28 64
        E 0 91 2c 64
        E 401 81 22 64
        E 0 81 28 64
        E 0 81 2c 64
        E 357 91 22 64
        E 0 91 28 64
        E 0 91 2c 64
        E 401 81 22 64
        E 0 81 28 64
        E 0 81 2c 64
        E 357 91 22 64
        E 0 91 28 64
        E 0 91 2c 64
        E 401 81 22 64
        E 0 81 28 64
        E 0 81 2c 64
        E 401 91 22 64
        E 0 91 28 64
        E 0 91 2c 64
        E 357 81 22 64
        E 0 81 28 64
        E 0 81 2c 64
        E 401 91 25 64
        E 0 91 2b 64
        E 0 91 2f 64
        E 401 81 25 64
        E 0 81 2b 64
        E 0 81 2f 64
        E 357 91 25 64
        E 0 91 2b 64
        E 0 91 2f 64
        E 401 81 25 64
        E 0 81 2b 64
        E 0 81 2f 64
        E 357 91 25 64
        E 0 91 2b 64
        E 0 91 2f 64
        E 401 81 25 64
        E 0 81 2b 64
        E 0 81 2f 64
        E 402 91 28 64
        E 0 91 2c 64
        E 0 91 32 64
        E 356 81 28 64
        E 0 81 2c 64
        E 0 81 32 64
        E 402 91 28 64
        E 0 91 2c 64
        E 0 91 32 64
        E 356 81 28 64
        E 0 81 2c 64
        E 0 81 32 64
        E 401 91 28 64
        E 0 91 2c 64
        E 0 91 32 64
        E 402 81 28 64
        E 0 81 2c 64
        E 0 81 32 64
        E 356 91 28 64
        E 0 91 2c 64
        E 0 91 32 64
        E 402 81 28 64
        E 0 81 2c 64
        E 0 81 32 64
        E 356 91 28 64
        E 0 91 2c 64
        E 0 91 32 64
        E 401 81 28 64
        E 0 81 2c 64
        E 0 81 32 64
        E 402 91 21 64
        E 0 91 25 64
        E 0 91 2b 64
        E 356 81 21 64
        E 0 81 25 64
        E 0 81 2b 64
        E 402 91 21 64
        E 0 91 25 64
        E 0 91 2b 64
        E 401 81 21 64
        E 0 81 25 64
        E 0 81 2b 64
        E 356 91 21 64
        E 0 91 25 64
        E 0 91 2b 64
        E 402 81 21 64
        E 0 81 25 64
        E 0 81 2b 64
        E 356 91 21 64
        E 0 91 25 64
        E 0 91 2b 64
        E 402 81 21 64
        E 0 81 25 64
        E 0 81 2b 64
        E 401 91 21 64
        E 0 91 25 64
        E 0 91 2b 64
        E 356 81 21 64
        E 0 81 25 64
        E 0 81 2b 64
        E 402 91 21 64
        E 0 91 25 64
        E 0 91 2b 64
        E 356 81 21 64
        E 0 81 25 64
        E 0 81 2b 64
        E 402 91 21 64
        E 0 91 25 64
        E 0 91 2b 64
        E 401 81 21 64
        E 0 81 25 64
        E 0 81 2b 64
        E 357 91 21 64
        E 0 91 25 64
        E 0 91 2b 64
        E 401 81 21 64
        E 0 81 25 64
        E 0 81 2b 64
        E 401 91 21 64
        E 0 91 25 64
        E 0 91 2b 64
        E 357 81 21 64
        E 0 81 25 64
        E 0 81 2b 64
        E 401 91 21 64
        E 0 91 25 64
        E 0 91 2b 64
        E 357 81 21 64
        E 0 81 25 64
        E 0 81 2b 64
        E 401 91 21 64
        E 0 91 25 64
        E 0 91 2b 64
        E 401 81 21 64
        E 0 81 25 64
        E 0 81 2b 64
        E 357 91 21 64
        E 0 91 25 64
        E 0 91 2b 64
        E 401 81 21 64
        E 0 81 25 64
        E 0 81 2b 64
        E 357 91 21 64
        E 0 91 25 64
        E 0 91 2b 64
        E 401 81 21 64
        E 0 81 25 64
        E 0 81 2b 64
        E 401 91 21 64
        E 0 91 25 64
        E 0 91 2b 64
        E 357 81 21 64
        E 0 81 25 64
        E 0 81 2b 64
        E 401 91 21 64
        E 0 91 25 64
        E 0 91 2b 64
        E 357 81 21 64
        E 0 81 25 64
        E 0 81 2b 64
        E 401 91 21 64
        E 0 91 25 64
        E 0 91 2b 64
        E 401 81 21 64
        E 0 81 25 64
        E 0 81 2b 64
        E 357 91 22 64
        E 0 91 28 64
        E 0 91 2c 64
        E 401 81 22 64
        E 0 81 28 64
        E 0 81 2c 64
        E 401 91 22 64
        E 0 91 28 64
        E 0 91 2c 64
        E 357 81 22 64
        E 0 81 28 64
        E 0 81 2c 64
        E 401 91 22 64
        E 0 91 28 64
        E 0 91 2c 64
        E 357 81 22 64
        E 0 81 28 64
        E 0 81 2c 64
        E 401 91 22 64
        E 0 91 28 64
        E 0 91 2c 64
        E 401 81 22 64
        E 0 81 28 64
        E 0 81 2c 64
        E 357 91 22 64
        E 0 91 28 64
        E 0 91 2c 64
        E 401 81 22 64
        E 0 81 28 64
        E 0 81 2c 64
        E 357 91 22 64
        E 0 91 28 64
        E 0 91 2c 64
        E 401 81 22 64
        E 0 81 28 64
        E 0 81 2c 64
        E 401 91 22 64
        E 0 91 28 64
        E 0 91 2c 64
        E 357 81 22 64
        E 0 81 28 64
        E 0 81 2c 64
        E 401 91 22 64
        E 0 91 28 64
        E 0 91 2c 64
        E 401 81 22 64
        E 0 81 28 64
        E 0 81 2c 64
        E 357 91 25 64
        E 0 91 2b 64
        E 0 91 2f 64
        E 401 81 25 64
        E 0 81 2b 64
        E 0 81 2f 64
        E 357 91 25 64
        E 0 91 2b 64
        E 0 91 2f 64
        E 401 81 25 64
        E 0 81 2b 64
        E 0 81 2f 64
        E 401 91 25 64
        E 0 91 2b 64
        E 0 91 2f 64
        E 357 81 25 64
        E 0 81 2b 64
        E 0 81 2f 64
        E 401 91 28 64
        E 0 91 2c 64
        E 0 91 32 64
        E 357 81 28 64
        E 0 81 2c 64
        E 0 81 32 64
        E 401 91 28 64
        E 0 91 2c 64
        E 0 91 32 64
        E 402 81 28 64
        E 0 81 2c 64
        E 0 81 32 64
        E 356 91 28 64
        E 0 91 2c 64
        E 0 91 32 64
        E 401 81 28 64
        E 0 81 2c 64
        E 0 81 32 64
        E 402 91 28 64
        E 0 91 2c 64
        E 0 91 32 64
        E 356 81 28 64
        E 0 81 2c 64
        E 0 81 32 64
        E 402 91 28 64
        E 0 91 2c 64
        E 0 91 32 64
        E 356 81 28 64
        E 0 81 2c 64
        E 0 81 32 64
        E 401 91 21 64
        E 1 91 25 64
        E 0 91 2b 64
        E 401 81 21 64
        E 0 81 25 64
        E 0 81 2b 64
        E 356 91 21 64
        E 0 91 25 64
        E 0 91 2b 64
        E 402 81 21 64
        E 0 81 25 64
        E 0 81 2b 64
        E 356 91 21 64
        E 0 91 25 64
        E 0 91 2b 64
        E 402 81 21 64
        E 90 81 25 64
        E 0 81 2b 64
        E 311 91 21 64
        E 0 91 25 64
        E 0 91 2b 64
        E 356 81 21 64
        E 0 81 25 64
        E 0 81 2b 64
        E 402 91 21 64
        E 0 91 25 64
        E 0 91 2b 64
        E 356 81 21 64
        E 0 81 25 64
        E 0 81 2b 64
        E 402 91 21 64
        E 0 91 25 64
        E 0 91 2b 64
        E 401 81 21 64
        E 0 81 25 64
        E 0 81 2b 64
        E 356 91 21 64
        E 0 91 25 64
        E 1 91 2b 64
        E 401 81 21 64
        E 0 81 25 64
        E 0 81 2b 64
        E 401 94 0a 64
        E 1427 84 0a 64
        E 6286 93 0a 64
        E 1872 83 0a 64
        E 451173 90 29 64
        E 0 94 01 64
        E 0 90 30 64
        E 0 90 34 64
        E 0 90 3a 64
        E 580 80 29 64
        E 0 80 30 64
        E 0 80 34 64
        E 0 80 3a 64
        E 223 90 29 64
        E 0 90 30 64
        E 0 90 34 64
        E 0 90 3a 64
        E 535 80 29 64
        E 0 80 30 64
        E 0 80 34 64
        E 0 80 3a 64
        E 133 84 01 64
        E 90 90 29 64
        E 0 90 30 64
        E 0 90 34 64
        E 0 90 3a 64
        E 534 80 29 64
        E 0 80 30 64
        E 1 80 34 64
        E 0 80 3a 64
        E 222 90 29 64
        E 0 90 30 64
        E 0 90 34 64
        E 0 90 3a 64
        E 535 80 29 64
        E 0 80 30 64
        E 0 80 34 64
        E 0 80 3a 64
        E 223 90 29 64
        E 0 91 1e 64
        E 0 90 30 64
        E 0 90 34 64
        E 0 90 3a 64
        E 535 80 29 64
        E 0 80 30 64
        E 0 80 34 64
        E 0 80 3a 64
        E 268 90 29 64
        E 0 90 30 64
        E 0 90 34 64
        E 0 90 3a 64
        E 535 80 29 64
        E 0 80 30 64
        E 0 80 34 64
        E 0 80 3a 64
        E 223 90 29 64
        E 0 91 1d 64
        E 0 90 30 64
        E 0 90 34 64
        E 0 90 3a 64
        E 535 80 29 64
        E 0 80 30 64
        E 0 80 34 64
        E 0 80 3a 64
        E 223 90 29 64
        E 0 90 30 64
        E 0 90 34 64
        E 0 90 3a 64
        E 490 81 1d 64
        E 45 80 29 64
        E 0 80 30 64
        E 0 80 34 64
        E 0 80 3a 64
        E 222 90 29 64
        E 1 90 29 64
        E 0 91 1a 64
        E 0 90 30 64
        E 0 90 34 64
        E 0 90 3a 64
        E 535 80 29 64
        E 0 80 30 64
        E 0 80 34 64
        E 0 80 3a 64
        E 267 90 29 64
        E 0 90 30 64
        E 0 90 34 64
        E 0 90 3a 64
        E 535 80 29 64
        E 0 80 30 64
        E 0 80 34 64
        E 0 80 3a 64
        E 223 90 29 64
        E 0 90 30 64
        E 0 90 34 64
        E 0 90 3a 64
        E 535 80 29 64
        E 0 80 30 64
        E 0 80 34 64
        E 0 80 3a 64
        E 223 90 29 64
        E 0 90 30 64
        E 0 90 34 64
        E 0 90 3a 64
        E 490 81 1a 64
        E 0 80 29 64
        E 45 80 29 64
        E 0 80 30 64
        E 0 80 34 64
        E 0 80 3a 64
        E 223 90 29 64
        E 0 90 24 64
        E 0 90 30 64
        E 0 90 34 64
        E 0 90 3a 64
        E 535 80 29 64
        E 0 80 30 64
        E 0 80 34 64
        E 0 80 3a 64
        E 223 90 29 64
        E 0 90 30 64
        E 0 90 34 64
        E 0 90 3a 64
        E 535 80 29 64
        E 0 80 30 64
        E 0 80 34 64
        E 0 80 3a 64
        E 267 90 29 64
        E 0 90 21 64
        E 0 90 30 64
        E 0 90 34 64
        E 0 90 3a 64
        E 535 80 29 64
        E 0 80 30 64
        E 0 80 34 64
        E 0 80 3a 64
        E 223 90 29 64
        E 0 90 30 64
        E 0 90 34 64
        E 0 90 3a 64
        E 490 80 24 64
        E 0 80 21 64
        E 45 80 29 64
        E 0 80 30 64
        E 0 80 34 64
        E 0 80 3a 64
        E 223 90 1e 64
        E 0 90 24 64
        E 0 91 1a 64
        E 0 90 29 64
        E 0 90 30 64
        E 0 90 34 64
        E 0 90 3a 64
        E 535 80 29 64
        E 0 80 30 64
        E 0 80 34 64
        E 0 80 3a 64
        E 223 90 29 64
        E 0 90 30 64
        E 0 90 34 64
        E 0 90 3a 64
        E 535 80 29 64
        E 0 80 30 64
        E 0 80 34 64
        E 0 80 3a 64
        E 267 90 29 64
        E 0 90 30 64
        E 0 90 34 64
        E 0 90 3a 64
        E 535 80 29 64
        E 0 80 30 64
        E 0 80 34 64
        E 0 80 3a 64
        E 223 90 29 64
        E 0 90 30 64
        E 0 90 34 64
        E 0 90 3a 64
        E 535 80 29 64
        E 0 80 30 64
        E 0 80 34 64
        E 0 80 3a 64
        E 223 90 29 64
        E 0 91 14 64
        E 0 90 30 64
        E 0 90 34 64
        E 0 90 3a 64
        E 535 80 29 64
        E 0 80 30 64
        E 0 80 34 64
        E 0 80 3a 64
        E 223 90 29 64
        E 0 90 30 64
        E 0 90 34 64
        E 0 90 3a 64
        E 535 81 14 64
        E 0 80 29 64
        E 0 80 30 64
        E 0 80 34 64
        E 0 80 3a 64
        E 223 90 29 64
        E 0 90 1c 64
        E 0 90 30 64
        E 0 90 34 64
        E 0 90 3a 64
        E 579 80 29 64
        E 0 80 30 64
        E 0 80 34 64
        E 0 80 3a 64
        E 223 90 29 64
        E 0 90 30 64
        E 0 90 34 64
        E 0 90 3a 64
        E 491 80 1c 64
        E 44 80 29 64
        E 0 80 30 64
        E 0 80 34 64
        E 0 80 3a 64
        E 223 90 29 64
        E 0 91 14 64
        E 0 91 10 64
        E 0 90 30 64
        E 0 90 34 64
        E 0 90 3a 64
        E 535 80 29 64
        E 0 80 30 64
        E 0 80 34 64
        E 0 80 3a 64
        E 223 90 29 64
        E 0 90 30 64
        E 0 90 34 64
        E 0 90 3a 64
        E 535 80 29 64
        E 0 80 30 64
        E 0 80 34 64
        E 0 80 3a 64
        E 223 90 29 64
        E 0 90 30 64
        E 0 90 34 64
        E 0 90 3a 64
        E 535 80 29 64
        E 0 80 30 64
        E 0 80 34 64
        E 0 80 3a 64
        E 268 90 29 64
        E 0 90 30 64
        E 0 90 34 64
        E 0 90 3a 64
        E 535 80 29 64
        E 0 80 30 64
        E 0 80 34 64
        E 0 80 3a 64
        E 222 90 29 64
        E 0 90 30 64
        E 0 90 34 64
        E 0 90 3a 64
        E 535 80 29 64
        E 0 80 30 64
        E 0 80 34 64
        E 0 80 3a 64
        E 223 90 29 64
        E 0 90 30 64
        E 0 90 34 64
        E 0 90 3a 64
        E 535 80 29 64
        E 0 80 30 64
        E 0 80 34 64
        E 0 80 3a 64
        E 223 90 29 64
        E 0 90 30 64
        E 0 90 34 64
        E 0 90 3a 64
        E 535 80 29 64
        E 0 80 30 64
        E 0 80 34 64
        E 0 80 3a 64
        E 268 90 29 64
        E 0 90 30 64
        E 0 90 34 64
        E 0 90 3a 64
        E 490 81 1e 64
        E 0 80 1e 64
        E 0 80 24 64
        E 0 81 1a 64
        E 0 81 14 64
        E 0 81 10 64
        E 45 80 29 64
        E 0 80 30 64
        E 0 80 34 64
        E 0 80 3a 64
        E 223 90 29 64
        E 0 90 30 64
        E 0 90 34 64
        E 0 90 3a 64
        E 535 80 29 64
        E 0 80 30 64
        E 0 80 34 64
        E 0 80 3a 64
        E 222 90 29 64
        E 1 90 30 64
        E 0 90 34 64
        E 0 90 3a 64
        E 534 80 29 64
        E 0 80 30 64
        E 1 80 34 64
        E 0 80 3a 64
        E 222 90 29 64
        E 0 90 30 64
        E 0 90 34 64
        E 0 90 3a 64
        E 535 80 29 64
        E 0 80 30 64
        E 0 80 34 64
        E 0 80 3a 64
        E 223 90 29 64
        E 0 90 30 64
        E 0 90 34 64
        E 0 90 3a 64
        E 535 80 29 64
        E 0 80 30 64
        E 0 80 34 64
        E 0 80 3a 64
        E 268 90 29 64
        E 0 91 1e 64
        E 0 90 30 64
        E 0 90 34 64
        E 0 90 3a 64
        E 535 80 29 64
        E 0 80 30 64
        E 0 80 34 64
        E 0 80 3a 64
        E 223 90 29 64
        E 0 90 30 64
        E 0 90 34 64
        E 0 90 3a 64
        E 535 80 29 64
        E 0 80 30 64
        E 0 80 34 64
        E 0 80 3a 64
        E 223 90 29 64
        E 0 91 1d 64
        E 0 90 30 64
        E 0 90 34 64
        E 0 90 3a 64
        E 535 80 29 64
        E 0 80 30 64
        E 0 80 34 64
        E 0 80 3a 64
        E 223 90 29 64
        E 0 90 30 64
        E 0 90 34 64
        E 0 90 3a 64
        E 534 81 1d 64
        E 0 80 29 64
        E 0 80 30 64
        E 0 80 34 64
        E 0 80 3a 64
        E 268 90 29 64
        E 0 90 29 64
        E 0 91 1a 64
        E 0 90 30 64
        E 0 90 34 64
        E 0 90 3a 64
        E 535 80 29 64
        E 0 80 30 64
        E 0 80 34 64
        E 0 80 3a 64
        E 223 90 29 64
        E 0 90 30 64
        E 0 90 34 64
        E 0 90 3a 64
        E 535 80 29 64
        E 0 80 30 64
        E 0 80 34 64
        E 0 80 3a 64
        E 223 90 29 64
        E 0 90 30 64
        E 0 90 34 64
        E 0 90 3a 64
        E 535 80 29 64
        E 0 80 30 64
        E 0 80 34 64
        E 0 80 3a 64
        E 223 90 29 64
        E 0 90 30 64
        E 0 90 34 64
        E 0 90 3a 64
        E 535 81 1a 64
        E 0 80 29 64
        E 0 80 29 64
        E 0 80 30 64
        E 0 80 34 64
        E 0 80 3a 64
        E 222 90 29 64
        E 0 90 24 64
        E 0 90 30 64
        E 0 90 34 64
        E 1 90 3a 64
        E 579 80 29 64
        E 0 80 30 64
        E 0 80 34 64
        E 0 80 3a 64
        E 223 90 29 64
        E 0 90 30 64
        E 0 90 34 64
        E 0 90 3a 64
        E 535 80 29 64
        E 0 80 30 64
        E 0 80 34 64
        E 0 80 3a 64
        E 223 90 29 64
        E 0 90 21 64
        E 0 90 30 64
        E 0 90 34 64
        E 0 90 3a 64
        E 535 80 29 64
        E 0 80 30 64
        E 0 80 34 64
        E 0 80 3a 64
        E 223 90 29 64
        E 0 90 30 64
        E 0 90 34 64
        E 0 90 3a 64
        E 490 80 24 64
        E 0 80 21 64
        E 45 80 29 64
        E 0 80 30 64
        E 0 80 34 64
        E 0 80 3a 64
        E 223 90 29 64
        E 0 90 24 64
        E 0 91 1a 64
        E 0 90 1e 64
        E 0 90 30 64
        E 0 90 34 64
        E 0 90 3a 64
        E 535 80 29 64
        E 0 80 30 64
        E 0 80 34 64
        E 0 80 3a 64
        E 267 90 29 64
        E 0 90 30 64
        E 0 90 34 64
        E 0 90 3a 64
        E 535 80 29 64
        E 0 80 30 64
        E 0 80 34 64
        E 0 80 3a 64
        E 223 90 29 64
        E 0 90 30 64
        E 0 90 34 64
        E 0 90 3a 64
        E 535 80 29 64
        E 0 80 30 64
        E 0 80 34 64
        E 0 80 3a 64
        E 223 90 29 64
        E 0 90 30 64
        E 0 90 34 64
        E 0 90 3a 64
        E 535 80 29 64
        E 0 80 30 64
        E 0 80 34 64
        E 0 80 3a 64
        E 223 90 29 64
        E 0 91 14 64
        E 0 90 30 64
        E 0 90 34 64
        E 0 90 3a 64
        E 535 80 29 64
        E 0 80 30 64
        E 0 80 34 64
        E 0 80 3a 64
        E 223 90 29 64
        E 0 90 30 64
        E 0 90 34 64
        E 0 90 3a 64
        E 535 81 14 64
        E 44 80 29 64
        E 0 80 30 64
        E 0 80 34 64
        E 0 80 3a 64
        E 223 90 29 64
        E 0 90 1c 64
        E 0 90 30 64
        E 0 90 34 64
        E 0 90 3a 64
        E 535 80 29 64
        E 0 80 30 64
        E 0 80 34 64
        E 0 80 3a 64
        E 223 90 29 64
        E 0 90 30 64
        E 0 90 34 64
        E 0 90 3a 64
        E 491 80 1c 64
        E 44 80 29 64
        E 0 80 30 64
        E 0 80 34 64
        E 0 80 3a 64
        E 223 91 14 64
        E 0 90 29 64
        E 0 91 10 64
        E 0 90 30 64
        E 0 90 34 64
        E 0 90 3a 64
        E 535 80 29 64
        E 0 80 30 64
        E 0 80 34 64
        E 0 80 3a 64
        E 223 90 29 64
        E 0 90 30 64
        E 0 90 34 64
        E 0 90 3a 64
        E 535 80 29 64
        E 0 80 30 64
        E 0 80 34 64
        E 0 80 3a 64
        E 267 90 29 64
        E 0 90 30 64
        E 0 90 34 64
        E 1 90 3a 64
        E 534 80 29 64
        E 0 80 30 64
        E 0 80 34 64
        E 0 80 3a 64
        E 223 90 29 64
        E 0 90 30 64
        E 0 90 34 64
        E 0 90 3a 64
        E 535 80 29 64
        E 0 80 30 64
        E 0 80 34 64
        E 0 80 3a 64
        E 223 90 29 64
        E 0 90 30 64
        E 0 90 34 64
        E 0 90 3a 64
        E 535 80 29 64
        E 0 80 30 64
        E 0 80 34 64
        E 0 80 3a 64
        E 223 90 29 64
        E 0 90 30 64
        E 0 90 34 64
        E 0 90 3a 64
        E 535 80 29 64
        E 0 80 30 64
        E 0 80 34 64
        E 0 80 3a 64
        E 268 90 29 64
        E 0 90 30 64
        E 0 90 34 64
        E 0 90 3a 64
        E 535 80 29 64
        E 0 80 30 64
        E 0 80 34 64
        E 0 80 3a 64
        E 223 90 29 64
        E 0 90 30 64
        E 0 90 34 64
        E 0 90 3a 64
        E 490 81 1e 64
        E 0 80 24 64
        E 0 81 1a 64
        E 0 80 1e 64
        E 0 81 14 64
        E 0 81 10 64
        E 44 80 29 64
        E 1 80 30 64
        E 0 80 34 64
        E 0 80 3a 64
        E 223 90 29 64
        E 0 90 30 64
        E 0 90 34 64
        E 0 90 3a 64
        E 534 80 29 64
        E 0 80 30 64
        E 0 80 34 64
        E 0 80 3a 64
        E 223 90 29 64
        E 0 90 30 64
        E 0 90 34 64
        E 0 90 3a 64
        E 535 80 29 64
        E 0 80 30 64
        E 0 80 34 64
        E 0 80 3a 64
        E 223 90 29 64
        E 0 90 30 64
        E 0 90 34 64
        E 0 90 3a 64
        E 535 80 29 64
        E 0 80 30 64
        E 0 80 34 64
        E 0 80 3a 64
        E 268 90 29 64
        E 0 90 30 64
        E 0 90 34 64
        E 0 90 3a 64
        E 535 80 29 64
        E 0 80 30 64
        E 0 80 34 64
        E 0 80 3a 64
        E 223 91 1e 64
        E 0 90 29 64
        E 0 90 30 64
        E 0 90 34 64
        E 0 90 3a 64
        E 535 80 29 64
        E 0 80 30 64
        E 0 80 34 64
        E 0 80 3a 64
        E 223 90 29 64
        E 0 90 30 64
        E 0 90 34 64
        E 0 90 3a 64
        E 534 80 29 64
        E 1 80 30 64
        E 0 80 34 64
        E 0 80 3a 64
        E 222 91 1d 64
        E 0 90 29 64
        E 0 90 30 64
        E 0 90 34 64
        E 1 90 3a 64
        E 534 80 29 64
        E 1 80 30 64
        E 0 80 34 64
        E 0 80 3a 64
        E 267 90 29 64
        E 0 90 30 64
        E 0 90 34 64
        E 0 90 3a 64
        E 490 81 1d 64
        E 45 80 29 64
        E 0 80 30 64
        E 0 80 34 64
        E 0 80 3a 64
        E 223 91 1a 64
        E 0 90 29 64
        E 0 90 29 64
        E 0 90 30 64
        E 0 90 34 64
        E 0 90 3a 64
        E 535 80 29 64
        E 0 80 30 64
        E 0 80 34 64
        E 0 80 3a 64
        E 223 90 29 64
        E 0 90 30 64
        E 0 90 34 64
        E 0 90 3a 64
        E 535 80 29 64
        E 0 80 30 64
        E 0 80 34 64
        E 0 80 3a 64
        E 223 90 29 64
        E 0 90 30 64
        E 0 90 34 64
        E 0 90 3a 64
        E 535 80 29 64
        E 0 80 30 64
        E 0 80 34 64
        E 0 80 3a 64
        E 222 90 29 64
        E 1 90 30 64
        E 0 90 34 64
        E 0 90 3a 64
        E 535 81 1a 64
        E 0 80 29 64
        E 44 80 29 64
        E 0 80 30 64
        E 0 80 34 64
        E 0 80 3a 64
        E 223 90 29 64
        E 0 90 24 64
        E 0 90 30 64
        E 0 90 34 64
        E 0 90 3a 64
        E 535 80 29 64
        E 0 80 30 64
        E 0 80 34 64
        E 0 80 3a 64
        E 223 90 29 64
        E 0 90 30 64
        E 0 90 34 64
        E 0 90 3a 64
        E 535 80 29 64
        E 0 80 30 64
        E 0 80 34 64
        E 0 80 3a 64
        E 223 90 29 64
        E 0 90 21 64
        E 0 90 30 64
        E 0 90 34 64
        E 0 90 3a 64
        E 535 80 29 64
        E 0 80 30 64
        E 0 80 34 64
        E 0 80 3a 64
        E 223 90 29 64
        E 0 90 30 64
        E 0 90 34 64
        E 0 90 3a 64
        E 535 80 24 64
        E 0 80 21 64
        E 0 80 29 64
        E 0 80 30 64
        E 0 80 34 64
        E 0 80 3a 64
        E 267 90 1e 64
        E 0 91 1a 64
        E 0 90 24 64
        E 0 90 29 64
        E 0 90 30 64
        E 0 90 34 64
        E 0 90 3a 64
        E 535 80 29 64
        E 0 80 30 64
        E 0 80 34 64
        E 0 80 3a 64
        E 223 90 29 64
        E 0 90 30 64
        E 0 90 34 64
        E 0 90 3a 64
        E 535 80 29 64
        E 0 80 30 64
        E 0 80 34 64
        E 0 80 3a 64
        E 223 90 29 64
        E 0 90 30 64
        E 0 90 34 64
        E 0 90 3a 64
        E 535 80 29 64
        E 0 80 30 64
        E 0 80 34 64
        E 0 80 3a 64
        E 223 90 29 64
        E 0 90 30 64
        E 0 90 34 64
        E 0 90 3a 64
        E 535 80 29 64
        E 0 80 30 64
        E 0 80 34 64
        E 0 80 3a 64
        E 267 91 14 64
        E 0 90 29 64
        E 0 90 30 64
        E 0 90 34 64
        E 0 90 3a 64
        E 535 80 29 64
        E 0 80 30 64
        E 0 80 34 64
        E 0 80 3a 64
        E 223 90 29 64
        E 0 90 30 64
        E 0 90 34 64
        E 0 90 3a 64
        E 491 81 14 64
        E 44 80 29 64
        E 0 80 30 64
        E 0 80 34 64
        E 0 80 3a 64
        E 223 90 29 64
        E 0 90 1c 64
        E 0 90 30 64
        E 0 90 34 64
        E 0 90 3a 64
        E 535 80 29 64
        E 0 80 30 64
        E 0 80 34 64
        E 0 80 3a 64
        E 223 90 29 64
        E 0 90 30 64
        E 0 90 34 64
        E 0 90 3a 64
        E 535 80 1c 64
        E 0 80 29 64
        E 0 80 30 64
        E 0 80 34 64
        E 0 80 3a 64
        E 223 90 29 64
        E 0 91 14 64
        E 0 91 10 64
        E 0 90 30 64
        E 0 90 34 64
        E 0 90 3a 64
        E 535 80 29 64
        E 0 80 30 64
        E 0 80 34 64
        E 0 80 3a 64
        E 267 90 29 64
        E 0 90 30 64
        E 0 90 34 64
        E 0 90 3a 64
        E 535 80 29 64
        E 0 80 30 64
        E 0 80 34 64
        E 0 80 3a 64
        E 223 90 29 64
        E 0 90 30 64
        E 0 90 34 64
        E 0 90 3a 64
        E 535 80 29 64
        E 0 80 30 64
        E 0 80 34 64
        E 0 80 3a 64
        E 223 90 29 64
        E 0 90 30 64
        E 0 90 34 64
        E 0 90 3a 64
        E 535 80 29 64
        E 0 80 30 64
        E 0 80 34 64
        E 0 80 3a 64
        E 223 90 29 64
        E 0 90 30 64
        E 0 90 34 64
        E 0 90 3a 64
        E 535 80 29 64
        E 0 80 30 64
        E 0 80 34 64
        E 0 80 3a 64
        E 268 90 29 64
        E 0 90 30 64
        E 0 90 34 64
        E 0 90 3a 64
        E 535 80 29 64
        E 0 80 30 64
        E 0 80 34 64
        E 0 80 3a 64
        E 223 90 29 64
        E 0 90 30 64
        E 0 90 34 64
        E 0 90 3a 64
        E 535 80 29 64
        E 0 80 30 64
        E 0 80 34 64
        E 0 80 3a 64
        E 222 90 29 64
        E 0 90 30 64
        E 0 90 34 64
        E 0 90 3a 64
        E 491 81 1e 64
        E 0 80 1e 64
        E 0 81 1a 64
        E 0 80 24 64
        E 0 81 14 64
        E 0 81 10 64
        E 44 80 29 64
        E 0 80 30 64
        E 0 80 34 64
        E 0 80 3a 64
        E 223 90 29 64
        E 0 90 30 64
        E 0 90 34 64
        E 0 90 3a 64
        E 535 80 29 64
        E 0 80 30 64
        E 0 80 34 64
        E 0 80 3a 64
        E 223 90 29 64
        E 0 90 30 64
        E 0 90 34 64
        E 0 90 3a 64
        E 580 80 29 64
        E 0 80 30 64
        E 0 80 34 64
        E 0 80 3a 64
        E 223 90 29 64
        E 0 90 30 64
        E 0 90 34 64
        E 0 90 3a 64
        E 535 80 29 64
        E 0 80 30 64
        E 0 80 34 64
        E 0 80 3a 64
        E 223 90 29 64
        E 0 90 30 64
        E 0 90 34 64
        E 0 90 3a 64
        E 535 80 29 64
        E 0 80 30 64
        E 0 80 34 64
        E 0 80 3a 64
        E 223 91 1e 64
        E 0 90 29 64
        E 0 90 30 64
        E 0 90 34 64
        E 0 90 3a 64
        E 535 80 29 64
        E 0 80 30 64
        E 0 80 34 64
        E 0 80 3a 64
        E 222 90 29 64
        E 0 90 30 64
        E 0 90 34 64
        E 0 90 3a 64
        E 535 80 29 64
        E 0 80 30 64
        E 0 80 34 64
        E 0 80 3a 64
        E 268 90 29 64
        E 0 91 1d 64
        E 0 90 30 64
        E 0 90 34 64
        E 0 90 3a 64
        E 535 80 29 64
        E 0 80 30 64
        E 0 80 34 64
        E 0 80 3a 64
        E 223 90 29 64
        E 0 90 30 64
        E 0 90 34 64
        E 0 90 3a 64
        E 490 81 1d 64
        E 45 80 29 64
        E 0 80 30 64
        E 0 80 34 64
        E 0 80 3a 64
        E 223 91 1a 64
        E 0 90 29 64
        E 0 90 29 64
        E 0 90 30 64
        E 0 90 34 64
        E 0 90 3a 64
        E 535 80 29 64
        E 0 80 30 64
        E 0 80 34 64
        E 0 80 3a 64
        E 223 90 29 64
        E 0 90 30 64
        E 0 90 34 64
        E 0 90 3a 64
        E 534 80 29 64
        E 0 80 30 64
        E 0 80 34 64
        E 0 80 3a 64
        E 224 90 29 64
        E 0 90 30 64
        E 0 90 34 64
        E 0 90 3a 64
        E 579 80 29 64
        E 0 80 30 64
        E 0 80 34 64
        E 0 80 3a 64
        E 223 90 29 64
        E 0 90 30 64
        E 0 90 34 64
        E 0 90 3a 64
        E 490 81 1a 64
        E 0 80 29 64
        E 45 80 29 64
        E 0 80 30 64
        E 0 80 34 64
        E 0 80 3a 64
        E 223 90 29 64
        E 0 90 24 64
        E 0 90 30 64
        E 0 90 34 64
        E 0 90 3a 64
        E 535 80 29 64
        E 0 80 30 64
        E 0 80 34 64
        E 0 80 3a 64
        E 223 90 29 64
        E 0 90 30 64
        E 0 90 34 64
        E 0 90 3a 64
        E 535 80 29 64
        E 0 80 30 64
        E 0 80 34 64
        E 0 80 3a 64
        E 223 90 21 64
        E 0 90 29 64
        E 0 90 30 64
        E 0 90 34 64
        E 0 90 3a 64
        E 535 80 29 64
        E 0 80 30 64
        E 0 80 34 64
        E 0 80 3a 64
        E 267 90 29 64
        E 0 90 30 64
        E 0 90 34 64
        E 0 90 3a 64
        E 490 80 24 64
        E 1 80 21 64
        E 44 80 29 64
        E 0 80 30 64
        E 0 80 34 64
        E 0 80 3a 64
        E 223 90 29 64
        E 0 90 1e 64
        E 0 90 24 64
        E 0 91 1a 64
        E 0 90 30 64
        E 0 90 34 64
        E 0 90 3a 64
        E 535 80 29 64
        E 0 80 30 64
        E 0 80 34 64
        E 0 80 3a 64
        E 223 90 29 64
        E 0 90 30 64
        E 0 90 34 64
        E 0 90 3a 64
        E 535 80 29 64
        E 0 80 30 64
        E 0 80 34 64
        E 0 80 3a 64
        E 223 90 29 64
        E 0 90 30 64
        E 0 90 34 64
        E 0 90 3a 64
        E 535 80 29 64
        E 0 80 30 64
        E 0 80 34 64
        E 0 80 3a 64
        E 267 90 29 64
        E 0 90 30 64
        E 0 90 34 64
        E 0 90 3a 64
        E 535 80 29 64
        E 0 80 30 64
        E 0 80 34 64
        E 0 80 3a 64
        E 223 91 14 64
        E 0 90 29 64
        E 0 90 30 64
        E 0 90 34 64
        E 0 90 3a 64
        E 535 80 29 64
        E 0 80 30 64
        E 0 80 34 64
        E 0 80 3a 64
        E 223 90 29 64
        E 0 90 30 64
        E 0 90 34 64
        E 0 90 3a 64
        E 491 81 14 64
        E 44 80 29 64
        E 0 80 30 64
        E 0 80 34 64
        E 0 80 3a 64
        E 223 90 29 64
        E 0 90 1c 64
        E 0 90 30 64
        E 0 90 34 64
        E 0 90 3a 64
        E 535 80 29 64
        E 0 80 30 64
        E 0 80 34 64
        E 0 80 3a 64
        E 223 90 29 64
        E 0 90 30 64
        E 0 90 34 64
        E 0 90 3a 64
        E 535 80 1c 64
        E 45 80 29 64
        E 0 80 30 64
        E 0 80 34 64
        E 0 80 3a 64
        E 222 90 29 64
        E 0 91 14 64
        E 0 91 10 64
        E 0 90 30 64
        E 0 90 34 64
        E 0 90 3a 64
        E 535 80 29 64
        E 0 80 30 64
        E 0 80 34 64
        E 0 80 3a 64
        E 223 90 29 64
        E 0 90 30 64
        E 0 90 34 64
        E 0 90 3a 64
        E 535 80 29 64
        E 0 80 30 64
        E 0 80 34 64
        E 0 80 3a 64
        E 223 90 29 64
        E 0 90 30 64
        E 0 90 34 64
        E 0 90 3a 64
        E 535 80 29 64
        E 0 80 30 64
        E 0 80 34 64
        E 0 80 3a 64
        E 223 90 29 64
        E 0 90 30 64
        E 0 90 34 64
        E 0 90 3a 64
        E 535 80 29 64
        E 0 80 30 64
        E 0 80 34 64
        E 0 80 3a 64
        E 268 90 29 64
        E 0 90 30 64
        E 0 90 34 64
        E 0 90 3a 64
        E 535 80 29 64
        E 0 80 30 64
        E 0 80 34 64
        E 0 80 3a 64
        E 223 90 29 64
        E 0 90 30 64
        E 0 90 34 64
        E 0 90 3a 64
        E 534 80 29 64
        E 0 80 30 64
        E 0 80 34 64
        E 0 80 3a 64
        E 223 90 29 64
        E 0 90 30 64
        E 0 90 34 64
        E 0 90 3a 64
        E 535 80 29 64
        E 0 80 30 64
        E 0 80 34 64
        E 0 80 3a 64
        E 223 90 29 64
        E 0 90 30 64
        E 0 90 34 64
        E 0 90 3a 64
        E 535 81 1e 64
        E 0 80 1e 64
        E 0 80 24 64
        E 0 81 1a 64
        E 0 81 14 64
        E 0 81 10 64
        E 0 80 29 64
        E 0 80 30 64
        E 0 80 34 64
        E 0 80 3a 64
        E 223 90 29 64
        E 0 90 30 64
        E 0 90 34 64
        E 0 90 3a 64
        E 580 80 29 64
        E 0 80 30 64
        E 0 80 34 64
        E 0 80 3a 64
        E 223 90 29 64
        E 0 90 30 64
        E 0 90 34 64
        E 0 90 3a 64
        E 535 80 29 64
        E 0 80 30 64
        E 0 80 34 64
        E 0 80 3a 64
        E 222 90 29 64
        E 0 90 30 64
        E 1 90 34 64
        E 0 90 3a 64
        E 535 80 29 64
        E 0 80 30 64
        E 0 80 34 64
        E 0 80 3a 64
        E 222 90 29 64
        E 0 90 30 64
        E 0 90 34 64
        E 0 90 3a 64
        E 535 80 29 64
        E 0 80 30 64
        E 0 80 34 64
        E 0 80 3a 64
        E 223 90 29 64
        E 0 91 1e 64
        E 0 90 30 64
        E 0 90 34 64
        E 0 90 3a 64
        E 0 91 15 64
        E 535 80 29 64
        E 0 80 30 64
        E 0 80 34 64
        E 0 80 3a 64
        E 0 81 15 64
        E 268 90 29 64
        E 0 90 30 64
        E 0 90 34 64
        E 0 90 3a 64
        E 0 91 15 64
        E 490 81 1e 64
        E 0 80 29 64
        E 45 80 30 64
        E 0 80 34 64
        E 0 80 3a 64
        E 0 81 15 64
        E 223 91 1d 64
        E 0 90 29 64
        E 0 90 30 64
        E 0 90 34 64
        E 0 90 3a 64
        E 0 91 15 64
        E 535 80 29 64
        E 0 80 30 64
        E 0 80 34 64
        E 0 80 3a 64
        E 0 81 15 64
        E 223 90 29 64
        E 0 90 30 64
        E 0 90 34 64
        E 0 90 3a 64
        E 0 91 15 64
        E 490 81 1d 64
        E 0 80 29 64
        E 45 80 30 64
        E 0 80 34 64
        E 0 80 3a 64
        E 0 81 15 64
        E 222 90 29 64
        E 0 91 1d 64
        E 0 90 30 64
        E 0 90 34 64
        E 1 90 3a 64
        E 0 91 15 64
        E 535 80 29 64
        E 0 80 30 64
        E 0 80 34 64
        E 0 80 3a 64
        E 0 81 15 64
        E 267 90 29 64
        E 0 90 30 64
        E 0 90 34 64
        E 0 90 3a 64
        E 0 91 15 64
        E 490 81 1d 64
        E 0 80 29 64
        E 45 80 30 64
        E 0 80 34 64
        E 0 80 3a 64
        E 0 81 15 64
        E 223 90 29 64
        E 0 91 1d 64
        E 0 90 30 64
        E 0 90 34 64
        E 0 90 3a 64
        E 0 91 15 64
        E 535 80 29 64
        E 0 80 30 64
        E 0 80 34 64
        E 0 80 3a 64
        E 0 81 15 64
        E 223 90 29 64
        E 0 90 30 64
        E 0 90 34 64
        E 0 90 3a 64
        E 0 91 15 64
        E 535 80 29 64
        E 0 80 30 64
        E 0 80 34 64
        E 0 80 3a 64
        E 0 81 15 64
        E 223 90 29 64
        E 0 91 1d 64
        E 0 90 30 64
        E 0 90 34 64
        E 0 90 3a 64
        E 0 91 15 64
        E 535 80 29 64
        E 0 80 30 64
        E 0 80 34 64
        E 0 80 3a 64
        E 0 81 15 64
        E 223 90 29 64
        E 0 90 30 64
        E 0 90 34 64
        E 0 90 3a 64
        E 0 91 15 64
        E 535 81 1d 64
        E 0 80 29 64
        E 0 80 30 64
        E 0 80 34 64
        E 0 80 3a 64
        E 0 81 15 64
        E 267 90 29 64
        E 0 90 29 64
        E 0 91 1a 64
        E 0 90 30 64
        E 0 90 34 64
        E 0 90 3a 64
        E 0 91 15 64
        E 535 80 29 64
        E 0 80 30 64
        E 0 80 34 64
        E 0 80 3a 64
        E 0 81 15 64
        E 223 90 29 64
        E 0 90 30 64
        E 0 90 34 64
        E 0 90 3a 64
        E 0 91 15 64
        E 535 80 29 64
        E 0 80 30 64
        E 0 80 34 64
        E 0 80 3a 64
        E 0 81 15 64
        E 223 90 29 64
        E 0 90 30 64
        E 0 90 34 64
        E 0 90 3a 64
        E 0 91 15 64
        E 535 80 29 64
        E 0 80 30 64
        E 0 80 34 64
        E 0 80 3a 64
        E 0 81 15 64
        E 223 90 29 64
        E 0 90 30 64
        E 0 90 34 64
        E 0 90 3a 64
        E 0 91 15 64
        E 535 81 1a 64
        E 0 80 29 64
        E 0 80 29 64
        E 0 80 30 64
        E 0 80 34 64
        E 0 80 3a 64
        E 0 81 15 64
        E 267 90 29 64
        E 0 90 24 64
        E 0 90 30 64
        E 0 90 34 64
        E 0 90 3a 64
        E 0 91 15 64
        E 535 80 29 64
        E 0 80 30 64
        E 0 80 34 64
        E 0 80 3a 64
        E 0 81 15 64
        E 223 90 29 64
        E 0 90 30 64
        E 0 90 34 64
        E 0 90 3a 64
        E 0 91 15 64
        E 535 80 29 64
        E 0 80 30 64
        E 0 80 34 64
        E 0 80 3a 64
        E 0 81 15 64
        E 223 90 29 64
        E 0 90 21 64
        E 0 90 30 64
        E 0 90 34 64
        E 0 90 3a 64
        E 0 91 15 64
        E 535 80 29 64
        E 0 80 30 64
        E 0 80 34 64
        E 0 80 3a 64
        E 0 81 15 64
        E 223 90 29 64
        E 0 90 30 64
        E 0 90 34 64
        E 0 90 3a 64
        E 0 91 15 64
        E 535 80 24 64
        E 0 80 21 64
        E 0 80 29 64
        E 0 80 30 64
        E 0 80 34 64
        E 0 80 3a 64
        E 0 81 15 64
        E 223 90 29 64
        E 0 90 1e 64
        E 0 90 24 64
        E 0 91 1a 64
        E 0 90 30 64
        E 0 90 34 64
        E 0 90 3a 64
        E 0 91 15 64
        E 579 80 29 64
        E 0 80 30 64
        E 0 80 34 64
        E 0 80 3a 64
        E 0 81 15 64
        E 223 90 29 64
        E 0 90 30 64
        E 0 90 34 64
        E 0 90 3a 64
        E 0 91 15 64
        E 535 80 29 64
        E 0 80 30 64
        E 0 80 34 64
        E 0 80 3a 64
        E 0 81 15 64
        E 223 90 29 64
        E 0 90 30 64
        E 0 90 34 64
        E 0 90 3a 64
        E 0 91 15 64
        E 535 80 29 64
        E 0 80 30 64
        E 0 80 34 64
        E 0 80 3a 64
        E 0 81 15 64
        E 223 90 29 64
        E 0 90 30 64
        E 0 90 34 64
        E 0 90 3a 64
        E 0 91 15 64
        E 535 80 29 64
        E 0 80 30 64
        E 0 80 34 64
        E 0 80 3a 64
        E 0 81 15 64
        E 223 90 29 64
        E 0 91 14 64
        E 0 90 30 64
        E 0 90 34 64
        E 0 90 3a 64
        E 0 91 15 64
        E 535 80 29 64
        E 0 80 30 64
        E 0 80 34 64
        E 0 80 3a 64
        E 0 81 15 64
        E 267 90 29 64
        E 0 90 30 64
        E 1 90 34 64
        E 0 90 3a 64
        E 0 91 15 64
        E 490 81 14 64
        E 45 80 29 64
        E 0 80 30 64
        E 0 80 34 64
        E 0 80 3a 64
        E 0 81 15 64
        E 222 90 29 64
        E 0 90 1c 64
        E 0 90 30 64
        E 0 90 34 64
        E 0 90 3a 64
        E 0 91 15 64
        E 535 80 29 64
        E 0 80 30 64
        E 0 80 34 64
        E 0 80 3a 64
        E 0 81 15 64
        E 223 90 29 64
        E 0 90 30 64
        E 0 90 34 64
        E 0 90 3a 64
        E 0 91 15 64
        E 491 80 1c 64
        E 44 80 29 64
        E 0 80 30 64
        E 0 80 34 64
        E 0 80 3a 64
        E 0 81 15 64
        E 223 90 29 64
        E 0 91 14 64
        E 0 91 10 64
        E 0 90 30 64
        E 0 90 34 64
        E 0 90 3a 64
        E 0 91 15 64
        E 535 80 29 64
        E 0 80 30 64
        E 0 80 34 64
        E 0 80 3a 64
        E 0 81 15 64
        E 268 90 29 64
        E 0 90 30 64
        E 0 90 34 64
        E 0 90 3a 64
        E 0 91 15 64
        E 490 81 1d 64
        E 0 80 1e 64
        E 0 80 24 64
        E 0 81 1a 64
        E 0 81 14 64
        E 0 80 29 64
        E 45 80 30 64
        E 0 80 34 64
        E 0 80 3a 64
        E 0 81 15 64
        E 223 90 29 64
        E 0 90 30 64
        E 0 90 34 64
        E 0 90 3a 64
        E 0 91 15 64
        E 490 80 29 64
        E 45 80 30 64
        E 0 80 34 64
        E 0 80 3a 64
        E 0 81 15 64
        E 223 90 29 64
        E 0 91 14 64
        E 0 91 10 64
        E 0 90 30 64
        E 0 90 34 64
        E 0 90 3a 64
        E 0 91 15 64
        E 490 80 29 64
        E 0 81 14 64
        E 45 80 30 64
        E 0 80 34 64
        E 0 80 3a 64
        E 0 81 15 64
        E 222 90 29 64
        E 0 90 1c 64
        E 0 90 30 64
        E 0 90 34 64
        E 0 90 3a 64
        E 0 91 15 64
        E 535 80 29 64
        E 0 80 1c 64
        E 0 80 30 64
        E 0 80 34 64
        E 0 80 3a 64
        E 0 81 15 64
        E 223 90 29 64
        E 0 91 14 64
        E 0 90 30 64
        E 0 90 34 64
        E 0 90 3a 64
        E 0 91 15 64
        E 535 80 29 64
        E 0 80 30 64
        E 0 80 34 64
        E 0 80 3a 64
        E 0 81 15 64
        E 268 90 29 64
        E 0 90 30 64
        E 0 90 34 64
        E 0 90 3a 64
        E 0 91 15 64
        E 535 80 29 64
        E 0 80 30 64
        E 0 80 34 64
        E 0 80 3a 64
        E 0 81 15 64
        E 223 90 29 64
        E 0 90 30 64
        E 0 90 34 64
        E 0 90 3a 64
        E 0 91 15 64
        E 490 81 14 64
        E 0 80 29 64
        E 45 80 30 64
        E 0 80 34 64
        E 0 80 3a 64
        E 0 81 15 64
        E 223 90 29 64
        E 0 91 14 64
        E 0 90 30 64
        E 0 90 34 64
        E 0 90 3a 64
        E 0 91 15 64
        E 490 80 29 64
        E 0 81 14 64
        E 44 80 30 64
        E 1 80 34 64
        E 0 80 3a 64
        E 0 81 15 64
        E 222 90 29 64
        E 0 90 30 64
        E 1 90 34 64
        E 0 90 3a 64
        E 0 91 15 64
        E 534 80 29 64
        E 1 80 30 64
        E 0 80 34 64
        E 0 80 3a 64
        E 0 81 15 64
        E 267 90 1e 64
        E 0 90 24 64
        E 0 91 1a 64
        E 0 90 29 64
        E 0 90 30 64
        E 0 90 34 64
        E 0 90 3a 64
        E 0 91 15 64
        E 535 80 29 64
        E 0 80 30 64
        E 0 80 34 64
        E 0 80 3a 64
        E 0 81 15 64
        E 223 90 29 64
        E 0 90 21 64
        E 0 90 30 64
        E 0 90 34 64
        E 0 90 3a 64
        E 0 91 15 64
        E 535 80 29 64
        E 0 80 30 64
        E 0 80 34 64
        E 0 80 3a 64
        E 0 81 15 64
        E 223 90 29 64
        E 0 90 30 64
        E 0 90 34 64
        E 0 90 3a 64
        E 0 91 15 64
        E 490 80 24 64
        E 0 80 21 64
        E 45 80 29 64
        E 0 80 30 64
        E 0 80 34 64
        E 0 80 3a 64
        E 0 81 15 64
        E 223 90 29 64
        E 0 90 1e 64
        E 0 90 24 64
        E 0 91 1a 64
        E 0 90 30 64
        E 0 90 34 64
        E 0 90 3a 64
        E 0 91 15 64
        E 535 80 29 64
        E 0 80 30 64
        E 0 80 34 64
        E 0 80 3a 64
        E 0 81 15 64
        E 222 90 29 64
        E 0 90 30 64
        E 1 90 34 64
        E 0 90 3a 64
        E 0 91 15 64
        E 579 80 29 64
        E 0 80 30 64
        E 0 80 34 64
        E 0 80 3a 64
        E 0 81 15 64
        E 223 90 29 64
        E 0 90 30 64
        E 0 90 34 64
        E 0 90 3a 64
        E 0 91 15 64
        E 535 80 29 64
        E 0 80 30 64
        E 0 80 34 64
        E 0 80 3a 64
        E 0 81 15 64
        E 223 90 29 64
        E 0 90 30 64
        E 0 90 34 64
        E 0 90 3a 64
        E 0 91 15 64
        E 535 80 29 64
        E 0 80 30 64
        E 0 80 34 64
        E 0 80 3a 64
        E 0 81 15 64
        E 223 90 29 64
        E 0 91 14 64
        E 0 90 30 64
        E 0 90 34 64
        E 0 90 3a 64
        E 0 91 15 64
        E 535 80 29 64
        E 0 80 30 64
        E 0 80 34 64
        E 0 80 3a 64
        E 0 81 15 64
        E 223 90 29 64
        E 0 90 30 64
        E 0 90 34 64
        E 0 90 3a 64
        E 0 91 15 64
        E 535 81 14 64
        E 0 80 29 64
        E 0 80 30 64
        E 0 80 34 64
        E 0 80 3a 64
        E 0 81 15 64
        E 267 90 29 64
        E 0 90 1c 64
        E 0 90 30 64
        E 0 90 34 64
        E 0 90 3a 64
        E 0 91 15 64
        E 535 80 29 64
        E 0 80 30 64
        E 0 80 34 64
        E 0 80 3a 64
        E 0 81 15 64
        E 223 90 29 64
        E 0 90 30 64
        E 0 90 34 64
        E 0 90 3a 64
        E 0 91 15 64
        E 491 80 1c 64
        E 44 80 29 64
        E 0 80 30 64
        E 0 80 34 64
        E 0 80 3a 64
        E 0 81 15 64
        E 223 90 29 64
        E 0 91 14 64
        E 0 91 10 64
        E 0 90 30 64
        E 0 90 34 64
        E 0 90 3a 64
        E 0 91 15 64
        E 535 80 29 64
        E 0 80 30 64
        E 0 80 34 64
        E 0 80 3a 64
        E 0 81 15 64
        E 223 90 29 64
        E 0 90 30 64
        E 0 90 34 64
        E 0 90 3a 64
        E 0 91 15 64
        E 535 80 29 64
        E 0 80 30 64
        E 0 80 34 64
        E 0 80 3a 64
        E 0 81 15 64
        E 223 90 29 64
        E 0 90 30 64
        E 0 90 34 64
        E 0 90 3a 64
        E 0 91 15 64
        E 579 80 29 64
        E 0 80 30 64
        E 0 80 34 64
        E 0 80 3a 64
        E 0 81 15 64
        E 223 90 29 64
        E 0 90 30 64
        E 0 90 34 64
        E 0 90 3a 64
        E 0 91 15 64
        E 535 80 29 64
        E 0 80 30 64
        E 0 80 34 64
        E 0 80 3a 64
        E 0 81 15 64
        E 223 90 29 64
        E 0 90 30 64
        E 0 90 34 64
        E 0 90 3a 64
        E 0 91 15 64
        E 535 80 29 64
        E 0 80 30 64
        E 0 80 34 64
        E 0 80 3a 64
        E 0 81 15 64
        E 223 90 29 64
        E 0 90 30 64
        E 0 90 34 64
        E 0 90 3a 64
        E 0 91 15 64
        E 535 80 29 64
        E 0 80 30 64
        E 0 80 34 64
        E 0 80 3a 64
        E 0 81 15 64
        E 223 90 29 64
        E 0 90 30 64
        E 0 90 34 64
        E 0 90 3a 64
        E 0 91 15 64
        E 535 80 29 64
        E 0 80 30 64
        E 0 80 34 64
        E 0 80 3a 64
        E 0 81 15 64
        E 267 90 29 64
        E 0 90 30 64
        E 0 90 34 64
        E 0 90 3a 64
        E 0 91 15 64
        E 491 81 10 64
        E 0 80 1e 64
        E 0 81 1a 64
        E 0 80 24 64
        E 0 81 14 64
        E 44 80 29 64
        E 0 80 30 64
        E 0 80 34 64
        E 0 80 3a 64
        E 1 81 15 64
        E 222 90 29 64
        E 0 90 30 64
        E 0 90 34 64
        E 0 90 3a 64
        E 0 91 15 64
        E 535 80 29 64
        E 0 80 30 64
        E 0 80 34 64
        E 0 80 3a 64
        E 0 81 15 64
        E 223 90 29 64
        E 0 90 30 64
        E 0 90 34 64
        E 0 90 3a 64
        E 0 91 15 64
        E 535 80 29 64
        E 0 80 30 64
        E 0 80 34 64
        E 0 80 3a 64
        E 0 81 15 64
        E 223 90 29 64
        E 0 90 30 64
        E 0 90 34 64
        E 0 90 3a 64
        E 0 91 15 64
        E 535 80 29 64
        E 0 80 30 64
        E 0 80 34 64
        E 0 80 3a 64
        E 0 81 15 64
        E 268 90 29 64
        E 0 90 30 64
        E 0 90 34 64
        E 0 90 3a 64
        E 0 91 15 64
        E 535 80 29 64
        E 0 80 30 64
        E 0 80 34 64
        E 0 80 3a 64
        E 0 81 15 64
        E 223 90 29 64
        E 0 91 1e 64
        E 0 90 30 64
        E 0 90 34 64
        E 0 90 3a 64
        E 0 91 15 64
        E 535 80 29 64
        E 0 80 30 64
        E 0 80 34 64
        E 0 80 3a 64
        E 0 81 15 64
        E 222 90 29 64
        E 0 90 30 64
        E 0 90 34 64
        E 0 90 3a 64
        E 0 91 15 64
        E 535 80 29 64
        E 0 80 30 64
        E 0 80 34 64
        E 0 80 3a 64
        E 0 81 15 64
        E 223 90 29 64
        E 0 91 1d 64
        E 0 90 30 64
        E 0 90 34 64
        E 0 90 3a 64
        E 0 91 15 64
        E 535 80 29 64
        E 0 80 30 64
        E 0 80 34 64
        E 0 80 3a 64
        E 0 81 15 64
        E 223 90 29 64
        E 0 90 30 64
        E 0 90 34 64
        E 0 90 3a 64
        E 0 91 15 64
        E 535 81 1d 64
        E 0 80 29 64
        E 0 80 30 64
        E 0 80 34 64
        E 0 80 3a 64
        E 0 81 15 64
        E 268 90 29 64
        E 0 90 29 64
        E 0 91 1a 64
        E 0 90 30 64
        E 0 90 34 64
        E 0 90 3a 64
        E 0 91 15 64
        E 535 80 29 64
        E 0 80 30 64
        E 0 80 34 64
        E 0 80 3a 64
        E 0 81 15 64
        E 223 90 29 64
        E 0 90 30 64
        E 0 90 34 64
        E 0 90 3a 64
        E 0 91 15 64
        E 535 80 29 64
        E 0 80 30 64
        E 0 80 34 64
        E 0 80 3a 64
        E 0 81 15 64
        E 223 90 29 64
        E 0 90 30 64
        E 0 90 34 64
        E 0 90 3a 64
        E 0 91 15 64
        E 534 80 29 64
        E 1 80 30 64
        E 0 80 34 64
        E 0 80 3a 64
        E 0 81 15 64
        E 222 90 29 64
        E 0 90 30 64
        E 0 90 34 64
        E 0 90 3a 64
        E 0 91 15 64
        E 535 81 1a 64
        E 0 80 29 64
        E 0 80 29 64
        E 0 80 30 64
        E 0 80 34 64
        E 0 80 3a 64
        E 0 81 15 64
        E 268 90 29 64
        E 0 90 24 64
        E 0 90 30 64
        E 0 90 34 64
        E 0 90 3a 64
        E 0 91 15 64
        E 535 80 29 64
        E 0 80 30 64
        E 0 80 34 64
        E 0 80 3a 64
        E 0 81 15 64
        E 223 90 29 64
        E 0 90 30 64
        E 0 90 34 64
        E 0 90 3a 64
        E 0 91 15 64
        E 535 80 29 64
        E 0 80 30 64
        E 0 80 34 64
        E 0 80 3a 64
        E 0 81 15 64
        E 223 90 29 64
        E 0 90 21 64
        E 0 90 30 64
        E 0 90 34 64
        E 0 90 3a 64
        E 0 91 15 64
        E 535 80 29 64
        E 0 80 30 64
        E 0 80 34 64
        E 0 80 3a 64
        E 0 81 15 64
        E 223 90 29 64
        E 0 90 30 64
        E 0 90 34 64
        E 0 90 3a 64
        E 0 91 15 64
        E 535 80 24 64
        E 0 80 21 64
        E 0 80 29 64
        E 0 80 30 64
        E 0 80 34 64
        E 0 80 3a 64
        E 0 81 15 64
        E 222 90 29 64
        E 0 90 1e 64
        E 1 90 24 64
        E 0 91 1a 64
        E 0 90 30 64
        E 0 90 34 64
        E 0 90 3a 64
        E 0 91 15 64
        E 579 80 29 64
        E 0 80 30 64
        E 0 80 34 64
        E 0 80 3a 64
        E 0 81 15 64
        E 223 90 29 64
        E 0 90 30 64
        E 0 90 34 64
        E 0 90 3a 64
        E 0 91 15 64
        E 535 80 29 64
        E 0 80 30 64
        E 0 80 34 64
        E 0 80 3a 64
        E 0 81 15 64
        E 223 90 29 64
        E 0 90 30 64
        E 0 90 34 64
        E 0 90 3a 64
        E 0 91 15 64
        E 535 80 29 64
        E 0 80 30 64
        E 0 80 34 64
        E 0 80 3a 64
        E 0 81 15 64
        E 223 90 29 64
        E 0 90 30 64
        E 0 90 34 64
        E 0 90 3a 64
        E 0 91 15 64
        E 0 91 17 64
        E 535 80 29 64
        E 0 80 30 64
        E 0 80 34 64
        E 0 80 3a 64
        E 0 81 15 64
        E 0 81 17 64
        E 223 90 29 64
        E 0 91 14 64
        E 0 90 30 64
        E 0 90 34 64
        E 0 90 3a 64
        E 0 91 15 64
        E 0 91 17 64
        E 535 80 1e 64
        E 0 81 1e 64
        E 0 81 1a 64
        E 0 80 24 64
        E 0 81 1a 64
        E 0 80 29 64
        E 0 81 14 64
        E 0 80 30 64
        E 0 80 34 64
        E 0 80 3a 64
        E 0 81 15 64
        E 0 81 17 64
        E 267 90 29 64
        E 0 90 30 64
        E 0 90 34 64
        E 0 90 3a 64
        E 0 91 15 64
        E 0 91 17 64
        E 491 80 1e 64
        E 0 80 29 64
        E 44 80 30 64
        E 0 80 34 64
        E 0 80 3a 64
        E 0 81 15 64
        E 0 81 17 64
        E 223 90 29 64
        E 0 90 30 64
        E 0 90 34 64
        E 0 90 3a 64
        E 0 91 15 64
        E 0 91 17 64
        E 490 80 29 64
        E 45 80 30 64
        E 0 80 34 64
        E 0 80 3a 64
        E 0 81 15 64
        E 0 81 17 64
        E 223 90 29 64
        E 0 90 30 64
        E 0 90 34 64
        E 0 90 3a 64
        E 0 91 15 64
        E 0 91 17 64
        E 535 80 29 64
        E 0 80 30 64
        E 0 80 34 64
        E 0 80 3a 64
        E 0 81 15 64
        E 0 81 17 64
        E 223 90 29 64
        E 0 90 30 64
        E 0 90 34 64
        E 0 90 3a 64
        E 0 91 15 64
        E 0 91 17 64
        E 535 80 29 64
        E 0 80 30 64
        E 0 80 34 64
        E 0 80 3a 64
        E 0 81 15 64
        E 0 81 17 64
        E 267 90 29 64
        E 0 90 1e 64
        E 0 90 24 64
        E 0 91 1a 64
        E 0 90 30 64
        E 0 90 34 64
        E 0 90 3a 64
        E 0 91 15 64
        E 0 91 17 64
        E 535 80 29 64
        E 0 80 30 64
        E 0 80 34 64
        E 0 80 3a 64
        E 0 81 15 64
        E 0 81 17 64
        E 223 90 29 64
        E 0 90 30 64
        E 0 90 34 64
        E 0 90 3a 64
        E 0 91 15 64
        E 0 91 17 64
        E 535 80 29 64
        E 0 80 30 64
        E 0 80 34 64
        E 0 80 3a 64
        E 0 81 15 64
        E 0 81 17 64
        E 223 90 29 64
        E 0 90 30 64
        E 0 90 34 64
        E 0 90 3a 64
        E 0 91 15 64
        E 0 91 17 64
        E 535 80 29 64
        E 0 80 30 64
        E 0 80 34 64
        E 0 80 3a 64
        E 0 81 15 64
        E 0 81 17 64
        E 223 90 29 64
        E 0 90 30 64
        E 0 90 34 64
        E 0 90 3a 64
        E 0 91 15 64
        E 0 91 17 64
        E 535 80 29 64
        E 0 80 30 64
        E 0 80 34 64
        E 0 80 3a 64
        E 0 81 15 64
        E 0 81 17 64
        E 223 90 29 64
        E 0 91 14 64
        E 0 90 30 64
        E 0 90 34 64
        E 0 90 3a 64
        E 0 91 15 64
        E 0 91 17 64
        E 535 80 29 64
        E 0 80 30 64
        E 0 80 34 64
        E 0 80 3a 64
        E 0 81 15 64
        E 0 81 17 64
        E 267 90 29 64
        E 0 90 30 64
        E 0 90 34 64
        E 0 90 3a 64
        E 1 91 15 64
        E 0 91 17 64
        E 490 81 14 64
        E 44 80 29 64
        E 0 80 30 64
        E 0 80 34 64
        E 0 80 3a 64
        E 0 81 15 64
        E 0 81 17 64
        E 223 90 29 64
        E 0 90 1c 64
        E 0 90 30 64
        E 0 90 34 64
        E 0 90 3a 64
        E 0 91 15 64
        E 0 91 17 64
        E 535 80 29 64
        E 0 80 30 64
        E 0 80 34 64
        E 0 80 3a 64
        E 0 81 15 64
        E 0 81 17 64
        E 223 90 29 64
        E 0 90 30 64
        E 0 90 34 64
        E 0 90 3a 64
        E 0 91 15 64
        E 0 91 17 64
        E 491 80 1c 64
        E 44 80 29 64
        E 0 80 30 64
        E 0 80 34 64
        E 0 80 3a 64
        E 0 81 15 64
        E 0 81 17 64
        E 223 90 29 64
        E 0 91 14 64
        E 0 91 10 64
        E 0 90 30 64
        E 0 90 34 64
        E 0 90 3a 64
        E 0 91 15 64
        E 0 91 17 64
        E 535 80 29 64
        E 0 80 30 64
        E 0 80 34 64
        E 0 80 3a 64
        E 0 81 15 64
        E 0 81 17 64
        E 268 90 29 64
        E 0 90 30 64
        E 0 90 34 64
        E 0 90 3a 64
        E 0 91 15 64
        E 0 91 17 64
        E 535 80 29 64
        E 0 80 30 64
        E 0 80 34 64
        E 0 80 3a 64
        E 0 81 15 64
        E 0 81 17 64
        E 222 90 29 64
        E 1 90 30 64
        E 0 90 34 64
        E 0 90 3a 64
        E 0 91 15 64
        E 0 91 17 64
        E 535 80 29 64
        E 0 80 30 64
        E 0 80 34 64
        E 0 80 3a 64
        E 0 81 15 64
        E 0 81 17 64
        E 222 90 29 64
        E 0 90 30 64
        E 0 90 34 64
        E 0 90 3a 64
        E 0 91 15 64
        E 0 91 17 64
        E 535 80 29 64
        E 0 80 30 64
        E 0 80 34 64
        E 0 80 3a 64
        E 0 81 15 64
        E 0 81 17 64
        E 223 90 29 64
        E 0 90 30 64
        E 0 90 34 64
        E 0 90 3a 64
        E 0 91 15 64
        E 0 91 17 64
        E 535 80 29 64
        E 0 80 30 64
        E 0 80 34 64
        E 0 80 3a 64
        E 0 81 15 64
        E 0 81 17 64
        E 223 90 29 64
        E 0 90 30 64
        E 0 90 34 64
        E 0 90 3a 64
        E 0 91 15 64
        E 0 91 17 64
        E 580 80 29 64
        E 0 80 30 64
        E 0 80 34 64
        E 0 80 3a 64
        E 0 81 15 64
        E 0 81 17 64
        E 223 90 29 64
        E 0 90 30 64
        E 0 90 34 64
        E 0 90 3a 64
        E 0 91 15 64
        E 0 91 17 64
        E 535 80 29 64
        E 0 80 30 64
        E 0 80 34 64
        E 0 80 3a 64
        E 0 81 15 64
        E 0 81 17 64
        E 223 90 29 64
        E 0 90 30 64
        E 0 90 34 64
        E 0 90 3a 64
        E 0 91 15 64
        E 0 91 17 64
        E 0 91 2b 64
        E 490 81 10 64
        E 0 80 1e 64
        E 0 80 24 64
        E 0 81 1a 64
        E 0 81 14 64
        E 45 80 29 64
        E 0 80 30 64
        E 0 80 34 64
        E 0 80 3a 64
        E 0 81 15 64
        E 0 81 17 64
        E 0 81 2b 64
        E 222 90 29 64
        E 0 90 30 64
        E 0 90 34 64
        E 0 90 3a 64
        E 1 91 15 64
        E 0 91 17 64
        E 0 91 2b 64
        E 534 80 29 64
        E 0 80 30 64
        E 0 80 34 64
        E 0 80 3a 64
        E 1 81 15 64
        E 0 81 17 64
        E 0 81 2b 64
        E 222 90 29 64
        E 0 90 30 64
        E 0 90 34 64
        E 0 90 3a 64
        E 0 91 15 64
        E 0 91 17 64
        E 0 91 2b 64
        E 535 80 29 64
        E 0 80 30 64
        E 0 80 34 64
        E 0 80 3a 64
        E 0 81 15 64
        E 0 81 17 64
        E 0 81 2b 64
        E 268 90 29 64
        E 0 90 30 64
        E 0 90 34 64
        E 0 90 3a 64
        E 0 91 15 64
        E 0 91 17 64
        E 0 91 2b 64
        E 535 80 29 64
        E 0 80 30 64
        E 0 80 34 64
        E 0 80 3a 64
        E 0 81 15 64
        E 0 81 17 64
        E 0 81 2b 64
        E 223 90 29 64
        E 0 90 30 64
        E 0 90 34 64
        E 0 90 3a 64
        E 0 91 15 64
        E 0 91 17 64
        E 0 91 2b 64
        E 535 80 29 64
        E 0 80 30 64
        E 0 80 34 64
        E 0 80 3a 64
        E 0 81 15 64
        E 0 81 17 64
        E 0 81 2b 64
        E 223 90 29 64
        E 0 91 1e 64
        E 0 90 30 64
        E 0 90 34 64
        E 0 90 3a 64
        E 0 91 15 64
        E 0 91 17 64
        E 0 91 2b 64
        E 535 80 29 64
        E 0 80 30 64
        E 0 80 34 64
        E 0 80 3a 64
        E 0 81 15 64
        E 0 81 17 64
        E 0 81 2b 64
        E 223 90 29 64
        E 0 90 30 64
        E 0 90 34 64
        E 0 90 3a 64
        E 0 91 15 64
        E 0 91 17 64
        E 0 91 2b 64
        E 534 81 1e 64
        E 0 80 29 64
        E 1 80 30 64
        E 0 80 34 64
        E 0 80 3a 64
        E 0 81 15 64
        E 0 81 17 64
        E 0 81 2b 64
        E 222 90 29 64
        E 0 91 1d 64
        E 0 90 30 64
        E 0 90 34 64
        E 0 90 3a 64
        E 45 91 15 64
        E 0 91 17 64
        E 0 91 2b 64
        E 535 80 29 64
        E 0 80 30 64
        E 0 80 34 64
        E 0 80 3a 64
        E 0 81 15 64
        E 0 81 17 64
        E 0 81 2b 64
        E 223 90 29 64
        E 0 90 30 64
        E 0 90 34 64
        E 0 90 3a 64
        E 0 91 15 64
        E 0 91 17 64
        E 0 91 2b 64
        E 535 80 29 64
        E 0 80 30 64
        E 0 80 34 64
        E 0 80 3a 64
        E 0 81 15 64
        E 0 81 17 64
        E 0 81 2b 64
        E 223 90 29 64
        E 0 91 1e 64
        E 0 90 30 64
        E 0 90 34 64
        E 0 90 3a 64
        E 0 91 15 64
        E 0 91 17 64
        E 0 91 2b 64
        E 535 80 29 64
        E 0 80 30 64
        E 0 80 34 64
        E 0 80 3a 64
        E 0 81 15 64
        E 0 81 17 64
        E 0 81 2b 64
        E 223 90 29 64
        E 0 90 30 64
        E 0 90 34 64
        E 0 90 3a 64
        E 0 91 15 64
        E 0 91 17 64
        E 0 91 2b 64
        E 535 81 1d 64
        E 0 81 1e 64
        E 0 80 29 64
        E 0 80 30 64
        E 0 80 34 64
        E 0 80 3a 64
        E 0 81 15 64
        E 0 81 17 64
        E 0 81 2b 64
        E 223 90 29 64
        E 0 91 1d 64
        E 0 90 30 64
        E 0 90 34 64
        E 0 90 3a 64
        E 0 91 15 64
        E 0 91 17 64
        E 0 91 2b 64
        E 535 80 29 64
        E 0 80 30 64
        E 0 80 34 64
        E 0 80 3a 64
        E 0 81 15 64
        E 0 81 17 64
        E 0 81 2b 64
        E 267 90 29 64
        E 0 90 30 64
        E 0 90 34 64
        E 0 90 3a 64
        E 0 91 15 64
        E 0 91 17 64
        E 0 91 2b 64
        E 535 80 29 64
        E 0 80 30 64
        E 0 80 34 64
        E 0 80 3a 64
        E 0 81 15 64
        E 0 81 17 64
        E 0 81 2b 64
        E 223 90 29 64
        E 0 91 1e 64
        E 0 90 30 64
        E 0 90 34 64
        E 0 90 3a 64
        E 0 91 15 64
        E 0 91 17 64
        E 0 91 2b 64
        E 535 80 29 64
        E 0 80 30 64
        E 0 80 34 64
        E 0 80 3a 64
        E 0 81 15 64
        E 0 81 17 64
        E 0 81 2b 64
        E 223 90 29 64
        E 0 90 30 64
        E 0 90 34 64
        E 0 90 3a 64
        E 0 91 15 64
        E 0 91 17 64
        E 0 91 2b 64
        E 0 90 2d 64
        E 490 81 1d 64
        E 0 81 1e 64
        E 0 80 29 64
        E 45 80 30 64
        E 0 80 34 64
        E 0 80 3a 64
        E 0 81 15 64
        E 0 81 17 64
        E 0 81 2b 64
        E 0 80 2d 64
        E 223 90 29 64
        E 0 91 1d 64
        E 0 90 30 64
        E 0 90 34 64
        E 0 90 3a 64
        E 0 91 15 64
        E 0 91 17 64
        E 0 91 2b 64
        E 0 90 2d 64
        E 535 80 29 64
        E 0 80 30 64
        E 0 80 34 64
        E 0 80 3a 64
        E 0 81 15 64
        E 0 81 17 64
        E 0 81 2b 64
        E 0 80 2d 64
        E 267 90 29 64
        E 0 90 30 64
        E 0 90 34 64
        E 0 90 3a 64
        E 0 91 15 64
        E 0 91 17 64
        E 0 91 2b 64
        E 0 90 2d 64
        E 535 80 29 64
        E 0 80 30 64
        E 0 80 34 64
        E 0 80 3a 64
        E 0 81 15 64
        E 0 81 17 64
        E 0 81 2b 64
        E 0 80 2d 64
        E 223 90 29 64
        E 0 91 1e 64
        E 0 90 30 64
        E 0 90 34 64
        E 0 90 3a 64
        E 0 91 15 64
        E 0 91 17 64
        E 0 91 2b 64
        E 0 90 2d 64
        E 535 80 29 64
        E 0 80 30 64
        E 0 80 34 64
        E 0 80 3a 64
        E 0 81 15 64
        E 0 81 17 64
        E 0 81 2b 64
        E 0 80 2d 64
        E 223 90 29 64
        E 0 90 30 64
        E 0 90 34 64
        E 0 90 3a 64
        E 0 91 15 64
        E 0 91 17 64
        E 0 91 2b 64
        E 0 90 2d 64
        E 491 81 1d 64
        E 0 81 1e 64
        E 0 80 29 64
        E 44 80 30 64
        E 0 80 34 64
        E 0 80 3a 64
        E 0 81 15 64
        E 0 81 17 64
        E 0 81 2b 64
        E 0 80 2d 64
        E 223 90 29 64
        E 0 91 1d 64
        E 0 90 30 64
        E 0 90 34 64
        E 0 90 3a 64
        E 0 91 15 64
        E 0 91 17 64
        E 0 91 2b 64
        E 0 90 2d 64
        E 535 80 29 64
        E 0 80 30 64
        E 0 80 34 64
        E 0 80 3a 64
        E 0 81 15 64
        E 0 81 17 64
        E 0 81 2b 64
        E 0 80 2d 64
        E 223 90 29 64
        E 0 90 30 64
        E 0 90 34 64
        E 0 90 3a 64
        E 0 91 15 64
        E 0 91 17 64
        E 0 91 2b 64
        E 0 90 2d 64
        E 580 80 29 64
        E 0 80 30 64
        E 0 80 34 64
        E 0 80 3a 64
        E 0 81 15 64
        E 0 81 17 64
        E 0 81 2b 64
        E 0 80 2d 64
        E 222 90 29 64
        E 0 91 1e 64
        E 0 90 30 64
        E 0 90 34 64
        E 0 90 3a 64
        E 0 91 15 64
        E 0 91 17 64
        E 0 91 2b 64
        E 0 90 2d 64
        E 535 80 29 64
        E 0 80 30 64
        E 0 80 34 64
        E 0 80 3a 64
        E 0 81 15 64
        E 0 81 17 64
        E 0 81 2b 64
        E 0 80 2d 64
        E 223 90 29 64
        E 0 90 30 64
        E 0 90 34 64
        E 0 90 3a 64
        E 0 91 15 64
        E 0 91 17 64
        E 0 91 2b 64
        E 0 90 2d 64
        E 491 81 1d 64
        E 0 81 1e 64
        E 0 80 29 64
        E 44 80 30 64
        E 0 80 34 64
        E 0 80 3a 64
        E 0 81 15 64
        E 0 81 17 64
        E 0 81 2b 64
        E 0 80 2d 64
        E 223 90 29 64
        E 0 91 1d 64
        E 0 90 30 64
        E 0 90 34 64
        E 0 90 3a 64
        E 0 91 15 64
        E 0 91 17 64
        E 0 91 2b 64
        E 0 90 2d 64
        E 535 80 29 64
        E 0 80 30 64
        E 0 80 34 64
        E 0 80 3a 64
        E 0 81 15 64
        E 0 81 17 64
        E 0 81 2b 64
        E 0 80 2d 64
        E 223 90 29 64
        E 0 90 30 64
        E 0 90 34 64
        E 0 90 3a 64
        E 0 91 15 64
        E 0 91 17 64
        E 0 91 2b 64
        E 0 90 2d 64
        E 535 80 29 64
        E 0 80 30 64
        E 0 80 34 64
        E 0 80 3a 64
        E 0 81 15 64
        E 0 81 17 64
        E 0 81 2b 64
        E 0 80 2d 64
        E 268 90 29 64
        E 0 91 1e 64
        E 0 90 30 64
        E 0 90 34 64
        E 0 90 3a 64
        E 0 91 15 64
        E 0 91 17 64
        E 0 91 2b 64
        E 0 90 2d 64
        E 535 80 29 64
        E 0 80 30 64
        E 0 80 34 64
        E 0 80 3a 64
        E 0 81 15 64
        E 0 81 17 64
        E 0 81 2b 64
        E 0 80 2d 64
        E 223 90 29 64
        E 0 90 30 64
        E 0 90 34 64
        E 0 90 3a 64
        E 0 91 15 64
        E 0 91 17 64
        E 0 91 2b 64
        E 0 90 2d 64
        E 490 81 1d 64
        E 0 81 1e 64
        E 0 80 29 64
        E 44 80 30 64
        E 0 80 34 64
        E 0 80 3a 64
        E 0 81 15 64
        E 0 81 17 64
        E 0 81 2b 64
        E 0 80 2d 64
        E 223 90 29 64
        E 0 91 1d 64
        E 0 90 30 64
        E 0 90 34 64
        E 0 90 3a 64
        E 0 91 15 64
        E 0 91 17 64
        E 0 91 2b 64
        E 0 90 2d 64
        E 535 80 29 64
        E 0 80 30 64
        E 0 80 34 64
        E 0 80 3a 64
        E 0 81 15 64
        E 0 81 17 64
        E 0 81 2b 64
        E 0 80 2d 64
        E 223 90 29 64
        E 0 91 1e 64
        E 0 90 30 64
        E 0 90 34 64
        E 0 90 3a 64
        E 0 91 15 64
        E 0 91 17 64
        E 0 91 2b 64
        E 0 90 2d 64
        E 535 80 29 64
        E 0 80 30 64
        E 0 80 34 64
        E 0 80 3a 64
        E 0 81 15 64
        E 0 81 17 64
        E 0 81 2b 64
        E 0 80 2d 64
        E 223 90 29 64
        E 0 90 30 64
        E 0 90 34 64
        E 0 90 3a 64
        E 0 91 15 64
        E 0 91 17 64
        E 0 91 2b 64
        E 0 90 2d 64
        E 535 81 1d 64
        E 0 81 1e 64
        E 0 80 29 64
        E 45 80 30 64
        E 0 80 34 64
        E 0 80 3a 64
        E 0 81 15 64
        E 0 81 17 64
        E 0 81 2b 64
        E 0 80 2d 64
        E 223 90 29 64
        E 0 91 1d 64
        E 0 90 30 64
        E 0 90 34 64
        E 0 90 3a 64
        E 0 91 15 64
        E 0 91 17 64
        E 0 91 2b 64
        E 0 90 2d 64
        E 535 80 29 64
        E 0 80 30 64
        E 0 80 34 64
        E 0 80 3a 64
        E 0 81 15 64
        E 0 81 17 64
        E 0 81 2b 64
        E 0 80 2d 64
        E 223 90 29 64
        E 0 91 1e 64
        E 0 90 30 64
        E 0 90 34 64
        E 0 90 3a 64
        E 0 91 15 64
        E 0 91 17 64
        E 0 91 2b 64
        E 0 90 2d 64
        E 535 80 29 64
        E 0 80 30 64
        E 0 80 34 64
        E 0 80 3a 64
        E 0 81 15 64
        E 0 81 17 64
        E 0 81 2b 64
        E 0 80 2d 64
        E 222 90 29 64
        E 0 90 30 64
        E 0 90 34 64
        E 0 90 3a 64
        E 0 91 15 64
        E 0 91 17 64
        E 0 91 2b 64
        E 0 90 2d 64
        E 535 81 1d 64
        E 0 81 1e 64
        E 0 80 29 64
        E 0 80 30 64
        E 0 80 34 64
        E 0 80 3a 64
        E 0 81 15 64
        E 0 81 17 64
        E 0 81 2b 64
        E 0 80 2d 64
        E 223 90 29 64
        E 0 91 1d 64
        E 0 90 30 64
        E 0 90 34 64
        E 0 90 3a 64
        E 0 91 15 64
        E 0 91 17 64
        E 0 91 2b 64
        E 0 90 2d 64
        E 535 80 29 64
        E 0 80 30 64
        E 0 80 34 64
        E 0 80 3a 64
        E 0 81 15 64
        E 0 81 17 64
        E 0 81 2b 64
        E 0 80 2d 64
        E 268 90 29 64
        E 0 91 1e 64
        E 0 90 30 64
        E 0 90 34 64
        E 0 90 3a 64
        E 0 91 15 64
        E 0 91 17 64
        E 0 91 2b 64
        E 0 90 2d 64
        E 535 80 29 64
        E 0 80 30 64
        E 0 80 34 64
        E 0 80 3a 64
        E 0 81 15 64
        E 0 81 17 64
        E 0 81 2b 64
        E 0 80 2d 64
        E 223 90 29 64
        E 0 90 30 64
        E 0 90 34 64
        E 0 90 3a 64
        E 0 91 15 64
        E 0 91 17 64
        E 0 91 2b 64
        E 0 90 2d 64
        E 490 81 1d 64
        E 0 81 1e 64
        E 0 80 29 64
        E 45 80 30 64
        E 0 80 34 64
        E 0 80 3a 64
        E 0 81 15 64
        E 0 81 17 64
        E 0 81 2b 64
        E 0 80 2d 64
        E 223 90 29 64
        E 0 91 1d 64
        E 0 90 30 64
        E 0 90 34 64
        E 0 90 3a 64
        E 0 91 15 64
        E 0 91 17 64
        E 0 91 2b 64
        E 0 90 2d 64
        E 535 80 29 64
        E 0 80 30 64
        E 0 80 34 64
        E 0 80 3a 64
        E 0 81 15 64
        E 0 81 17 64
        E 0 81 2b 64
        E 0 80 2d 64
        E 223 90 29 64
        E 0 91 1e 64
        E 0 90 30 64
        E 0 90 34 64
        E 0 90 3a 64
        E 0 91 15 64
        E 0 91 17 64
        E 0 91 2b 64
        E 0 90 2d 64
        E 535 80 29 64
        E 0 80 30 64
        E 0 80 34 64
        E 0 80 3a 64
        E 0 81 15 64
        E 0 81 17 64
        E 0 81 2b 64
        E 0 80 2d 64
        E 267 90 29 64
        E 0 90 30 64
        E 0 90 34 64
        E 0 90 3a 64
        E 0 91 15 64
        E 0 91 17 64
        E 0 91 2b 64
        E 0 90 2d 64
        E 490 81 1d 64
        E 0 81 1e 64
        E 0 80 29 64
        E 45 80 30 64
        E 0 80 34 64
        E 0 80 3a 64
        E 0 81 15 64
        E 0 81 17 64
        E 0 81 2b 64
        E 0 80 2d 64
        E 223 90 29 64
        E 0 91 1d 64
        E 0 90 30 64
        E 0 90 34 64
        E 0 90 3a 64
        E 0 91 15 64
        E 0 91 17 64
        E 0 91 2b 64
        E 0 90 2d 64
        E 535 80 29 64
        E 0 80 30 64
        E 0 80 34 64
        E 0 80 3a 64
        E 0 81 15 64
        E 0 81 17 64
        E 0 81 2b 64
        E 0 80 2d 64
        E 223 90 29 64
        E 0 91 1e 64
        E 0 90 30 64
        E 0 90 34 64
        E 0 90 3a 64
        E 0 91 15 64
        E 0 91 17 64
        E 0 91 2b 64
        E 0 90 2d 64
        E 535 80 29 64
        E 0 80 30 64
        E 0 80 34 64
        E 0 80 3a 64
        E 0 81 15 64
        E 0 81 17 64
        E 0 81 2b 64
        E 0 80 2d 64
        E 223 90 29 64
        E 0 90 30 64
        E 0 90 34 64
        E 0 90 3a 64
        E 0 91 15 64
        E 0 91 17 64
        E 0 91 2b 64
        E 0 90 2d 64
        E 535 80 29 64
        E 0 80 30 64
        E 0 80 34 64
        E 0 80 3a 64
        E 0 81 15 64
        E 0 81 17 64
        E 0 81 2b 64
        E 0 80 2d 64
        E 223 90 29 64
        E 0 91 1d 64
        E 0 90 30 64
        E 0 90 34 64
        E 0 90 3a 64
        E 0 91 15 64
        E 0 91 17 64
        E 0 91 2b 64
        E 0 90 2d 64
        E 535 80 29 64
        E 0 80 30 64
        E 0 80 34 64
        E 0 80 3a 64
        E 0 81 15 64
        E 0 81 17 64
        E 0 81 2b 64
        E 0 80 2d 64
        E 267 90 29 64
        E 0 90 30 64
        E 0 90 34 64
        E 0 90 3a 64
        E 0 91 15 64
        E 0 91 17 64
        E 0 91 2b 64
        E 0 90 2d 64
        E 490 81 1d 64
        E 45 80 29 64
        E 0 80 30 64
        E 0 80 34 64
        E 0 80 3a 64
        E 0 81 15 64
        E 0 81 17 64
        E 0 81 2b 64
        E 0 80 2d 64
        E 223 90 29 64
        E 0 90 29 64
        E 0 91 1a 64
        E 0 90 30 64
        E 0 90 34 64
        E 0 90 3a 64
        E 0 91 15 64
        E 0 91 17 64
        E 0 91 2b 64
        E 0 90 2d 64
        E 535 80 29 64
        E 0 80 30 64
        E 0 80 34 64
        E 0 80 3a 64
        E 0 81 15 64
        E 0 81 17 64
        E 0 81 2b 64
        E 0 80 2d 64
        E 223 90 29 64
        E 0 90 30 64
        E 0 90 34 64
        E 0 90 3a 64
        E 0 91 15 64
        E 0 91 17 64
        E 0 91 2b 64
        E 0 90 2d 64
        E 535 80 29 64
        E 0 80 30 64
        E 0 80 34 64
        E 0 80 3a 64
        E 0 81 15 64
        E 0 81 17 64
        E 0 81 2b 64
        E 0 80 2d 64
        E 223 90 29 64
        E 0 90 30 64
        E 0 90 34 64
        E 0 90 3a 64
        E 0 91 15 64
        E 0 91 17 64
        E 0 91 2b 64
        E 0 90 2d 64
        E 535 80 29 64
        E 0 80 30 64
        E 0 80 34 64
        E 0 80 3a 64
        E 0 81 15 64
        E 0 81 17 64
        E 0 81 2b 64
        E 0 80 2d 64
        E 267 90 29 64
        E 0 90 30 64
        E 0 90 34 64
        E 0 90 3a 64
        E 0 91 15 64
        E 0 91 17 64
        E 0 91 2b 64
        E 0 90 2d 64
        E 491 81 1a 64
        E 0 80 29 64
        E 44 80 29 64
        E 0 80 30 64
        E 0 80 34 64
        E 0 80 3a 64
        E 0 81 15 64
        E 0 81 17 64
        E 0 81 2b 64
        E 0 80 2d 64
        E 223 90 29 64
        E 0 90 24 64
        E 0 90 30 64
        E 0 90 34 64
        E 0 90 3a 64
        E 0 91 15 64
        E 0 91 17 64
        E 0 91 2b 64
        E 0 90 2d 64
        E 535 80 29 64
        E 0 80 30 64
        E 0 80 34 64
        E 0 80 3a 64
        E 0 81 15 64
        E 0 81 17 64
        E 0 81 2b 64
        E 0 80 2d 64
        E 223 90 29 64
        E 0 90 30 64
        E 0 90 34 64
        E 0 90 3a 64
        E 0 91 15 64
        E 0 91 17 64
        E 0 91 2b 64
        E 0 90 2d 64
        E 535 80 29 64
        E 0 80 30 64
        E 0 80 34 64
        E 0 80 3a 64
        E 0 81 15 64
        E 0 81 17 64
        E 0 81 2b 64
        E 0 80 2d 64
        E 223 90 29 64
        E 0 90 21 64
        E 0 90 30 64
        E 0 90 34 64
        E 0 90 3a 64
        E 0 91 15 64
        E 0 91 17 64
        E 0 91 2b 64
        E 0 90 2d 64
        E 535 80 29 64
        E 0 80 30 64
        E 0 80 34 64
        E 0 80 3a 64
        E 0 81 15 64
        E 0 81 17 64
        E 0 81 2b 64
        E 0 80 2d 64
        E 223 90 29 64
        E 0 90 30 64
        E 0 90 34 64
        E 0 90 3a 64
        E 0 91 15 64
        E 0 91 17 64
        E 0 91 2b 64
        E 0 90 2d 64
        E 535 80 24 64
        E 0 80 21 64
        E 44 80 29 64
        E 0 80 30 64
        E 0 80 34 64
        E 0 80 3a 64
        E 0 81 15 64
        E 0 81 17 64
        E 0 81 2b 64
        E 0 80 2d 64
        E 223 90 29 64
        E 0 90 1e 64
        E 0 90 24 64
        E 0 91 1a 64
        E 0 90 30 64
        E 0 90 34 64
        E 0 90 3a 64
        E 0 91 15 64
        E 0 91 17 64
        E 0 91 2b 64
        E 0 90 2d 64
        E 535 80 29 64
        E 0 80 30 64
        E 0 80 34 64
        E 0 80 3a 64
        E 0 81 15 64
        E 0 81 17 64
        E 0 81 2b 64
        E 0 80 2d 64
        E 223 90 29 64
        E 0 90 30 64
        E 0 90 34 64
        E 0 90 3a 64
        E 0 91 15 64
        E 0 91 17 64
        E 0 91 2b 64
        E 0 90 2d 64
        E 535 80 29 64
        E 0 80 30 64
        E 0 80 34 64
        E 0 80 3a 64
        E 0 81 15 64
        E 0 81 17 64
        E 0 81 2b 64
        E 0 80 2d 64
        E 223 90 29 64
        E 0 90 30 64
        E 0 90 34 64
        E 0 90 3a 64
        E 0 91 15 64
        E 0 91 17 64
        E 0 91 2b 64
        E 0 90 2d 64
        E 535 80 29 64
        E 0 80 30 64
        E 0 80 34 64
        E 0 80 3a 64
        E 0 81 15 64
        E 0 81 17 64
        E 0 81 2b 64
        E 0 80 2d 64
        E 223 90 29 64
        E 0 90 30 64
        E 0 90 34 64
        E 0 90 3a 64
        E 0 91 15 64
        E 0 91 17 64
        E 0 91 2b 64
        E 0 90 2d 64
        E 535 80 29 64
        E 0 80 30 64
        E 0 80 34 64
        E 0 80 3a 64
        E 0 81 15 64
        E 0 81 17 64
        E 0 81 2b 64
        E 0 80 2d 64
        E 267 90 29 64
        E 1 91 14 64
        E 0 90 30 64
        E 0 90 34 64
        E 0 90 3a 64
        E 0 91 15 64
        E 0 91 17 64
        E 0 91 2b 64
        E 0 90 2d 64
        E 535 80 29 64
        E 0 80 30 64
        E 0 80 34 64
        E 0 80 3a 64
        E 0 81 15 64
        E 0 81 17 64
        E 0 81 2b 64
        E 0 80 2d 64
        E 222 90 29 64
        E 0 90 30 64
        E 0 90 34 64
        E 0 90 3a 64
        E 0 91 15 64
        E 0 91 17 64
        E 0 91 2b 64
        E 0 90 2d 64
        E 491 81 14 64
        E 44 80 29 64
        E 0 80 30 64
        E 0 80 34 64
        E 0 80 3a 64
        E 0 81 15 64
        E 0 81 17 64
        E 0 81 2b 64
        E 0 80 2d 64
        E 223 90 29 64
        E 0 90 1c 64
        E 0 90 30 64
        E 0 90 34 64
        E 0 90 3a 64
        E 0 91 15 64
        E 0 91 17 64
        E 0 91 2b 64
        E 0 90 2d 64
        E 535 80 29 64
        E 0 80 30 64
        E 0 80 34 64
        E 0 80 3a 64
        E 0 81 15 64
        E 0 81 17 64
        E 0 81 2b 64
        E 0 80 2d 64
        E 223 90 29 64
        E 0 90 30 64
        E 0 90 34 64
        E 0 90 3a 64
        E 0 91 15 64
        E 0 91 17 64
        E 0 91 2b 64
        E 0 90 2d 64
        E 535 80 1c 64
        E 0 80 29 64
        E 0 80 30 64
        E 0 80 34 64
        E 0 80 3a 64
        E 0 81 15 64
        E 0 81 17 64
        E 0 81 2b 64
        E 0 80 2d 64
        E 268 90 29 64
        E 0 91 14 64
        E 0 91 10 64
        E 0 90 30 64
        E 0 90 34 64
        E 0 90 3a 64
        E 0 91 15 64
        E 0 91 17 64
        E 0 91 2b 64
        E 0 90 2d 64
        E 535 80 29 64
        E 0 80 30 64
        E 0 80 34 64
        E 0 80 3a 64
        E 0 81 15 64
        E 0 81 17 64
        E 0 81 2b 64
        E 0 80 2d 64
        E 223 90 29 64
        E 0 90 30 64
        E 0 90 34 64
        E 0 90 3a 64
        E 0 91 15 64
        E 0 91 17 64
        E 0 91 2b 64
        E 0 90 2d 64
        E 535 80 29 64
        E 0 80 30 64
        E 0 80 34 64
        E 0 80 3a 64
        E 0 81 15 64
        E 0 81 17 64
        E 0 81 2b 64
        E 0 80 2d 64
        E 222 90 29 64
        E 0 90 30 64
        E 0 90 34 64
        E 0 90 3a 64
        E 1 91 15 64
        E 0 91 17 64
        E 0 91 2b 64
        E 0 90 2d 64
        E 534 80 29 64
        E 1 80 30 64
        E 0 80 34 64
        E 0 80 3a 64
        E 0 81 15 64
        E 0 81 17 64
        E 0 81 2b 64
        E 0 80 2d 64
        E 222 90 29 64
        E 0 90 30 64
        E 0 90 34 64
        E 0 90 3a 64
        E 0 91 15 64
        E 0 91 17 64
        E 0 91 2b 64
        E 0 90 2d 64
        E 535 80 29 64
        E 0 80 30 64
        E 0 80 34 64
        E 0 80 3a 64
        E 0 81 15 64
        E 0 81 17 64
        E 0 81 2b 64
        E 0 80 2d 64
        E 223 90 29 64
        E 0 90 30 64
        E 0 90 34 64
        E 0 90 3a 64
        E 0 91 15 64
        E 0 91 17 64
        E 0 91 2b 64
        E 0 90 2d 64
        E 535 81 1e 64
        E 0 81 1d 64
        E 0 80 1e 64
        E 0 80 24 64
        E 0 81 1a 64
        E 0 81 14 64
        E 0 80 29 64
        E 0 80 30 64
        E 0 80 34 64
        E 0 80 3a 64
        E 0 81 15 64
        E 0 81 17 64
        E 0 81 2b 64
        E 0 80 2d 64
        E 268 90 29 64
        E 0 90 30 64
        E 0 90 34 64
        E 0 90 3a 64
        E 0 91 15 64
        E 0 91 17 64
        E 0 91 2b 64
        E 0 90 2d 64
        E 490 80 29 64
        E 45 80 30 64
        E 0 80 34 64
        E 0 80 3a 64
        E 0 81 15 64
        E 0 81 17 64
        E 0 81 2b 64
        E 0 80 2d 64
        E 223 90 29 64
        E 0 90 30 64
        E 0 90 34 64
        E 0 90 3a 64
        E 0 91 15 64
        E 0 91 17 64
        E 0 91 2b 64
        E 0 90 2d 64
        E 535 80 29 64
        E 0 80 30 64
        E 0 80 34 64
        E 0 80 3a 64
        E 0 81 15 64
        E 0 81 17 64
        E 0 81 2b 64
        E 0 80 2d 64
        E 223 90 29 64
        E 0 90 30 64
        E 0 90 34 64
        E 0 90 3a 64
        E 0 91 15 64
        E 0 91 17 64
        E 0 91 2b 64
        E 0 90 2d 64
        E 535 80 29 64
        E 0 80 30 64
        E 0 80 34 64
        E 0 80 3a 64
        E 0 81 15 64
        E 0 81 17 64
        E 0 81 2b 64
        E 0 80 2d 64
        E 223 90 29 64
        E 0 90 1c 64
        E 0 90 30 64
        E 0 90 34 64
        E 0 90 3a 64
        E 0 91 15 64
        E 0 91 17 64
        E 0 91 2b 64
        E 0 90 2d 64
        E 534 80 29 64
        E 0 80 30 64
        E 1 80 34 64
        E 0 80 3a 64
        E 0 81 15 64
        E 0 81 17 64
        E 0 81 2b 64
        E 0 80 2d 64
        E 267 90 29 64
        E 0 90 30 64
        E 0 90 34 64
        E 0 90 3a 64
        E 0 91 15 64
        E 0 91 17 64
        E 0 91 2b 64
        E 0 90 2d 64
        E 490 80 1c 64
        E 45 80 29 64
        E 0 80 30 64
        E 0 80 34 64
        E 0 80 3a 64
        E 0 81 15 64
        E 0 81 17 64
        E 0 81 2b 64
        E 0 80 2d 64
        E 223 90 29 64
        E 0 91 14 64
        E 0 91 10 64
        E 0 90 30 64
        E 0 90 34 64
        E 0 90 3a 64
        E 0 91 15 64
        E 0 91 17 64
        E 0 91 2b 64
        E 0 90 2d 64
        E 535 80 29 64
        E 0 80 30 64
        E 0 80 34 64
        E 0 80 3a 64
        E 0 81 15 64
        E 0 81 17 64
        E 0 81 2b 64
        E 0 80 2d 64
        E 223 90 29 64
        E 0 90 30 64
        E 0 90 34 64
        E 0 90 3a 64
        E 0 91 15 64
        E 0 91 17 64
        E 0 91 2b 64
        E 0 90 2d 64
        E 535 80 29 64
        E 0 80 30 64
        E 0 80 34 64
        E 0 80 3a 64
        E 0 81 15 64
        E 0 81 17 64
        E 0 81 2b 64
        E 0 80 2d 64
        E 223 90 29 64
        E 0 90 30 64
        E 0 90 34 64
        E 0 90 3a 64
        E 0 91 15 64
        E 0 91 17 64
        E 0 91 2b 64
        E 0 90 2d 64
        E 535 80 29 64
        E 0 80 30 64
        E 0 80 34 64
        E 0 80 3a 64
        E 0 81 15 64
        E 0 81 17 64
        E 0 81 2b 64
        E 0 80 2d 64
        E 222 90 29 64
        E 0 90 30 64
        E 0 90 34 64
        E 1 90 3a 64
        E 0 91 15 64
        E 0 91 17 64
        E 0 91 2b 64
        E 0 90 2d 64
        E 579 80 29 64
        E 0 80 30 64
        E 0 80 34 64
        E 0 80 3a 64
        E 0 81 15 64
        E 0 81 17 64
        E 0 81 2b 64
        E 0 80 2d 64
        E 223 90 29 64
        E 0 90 30 64
        E 0 90 34 64
        E 0 90 3a 64
        E 0 91 15 64
        E 0 91 17 64
        E 0 91 2b 64
        E 0 90 2d 64
        E 535 80 29 64
        E 0 80 30 64
        E 0 80 34 64
        E 0 80 3a 64
        E 0 81 15 64
        E 0 81 17 64
        E 0 81 2b 64
        E 0 80 2d 64
        E 223 90 29 64
        E 0 90 30 64
        E 0 90 34 64
        E 0 90 3a 64
        E 0 91 15 64
        E 0 91 17 64
        E 0 91 2b 64
        E 0 90 2d 64
        E 535 80 29 64
        E 0 80 30 64
        E 0 80 34 64
        E 0 80 3a 64
        E 0 81 15 64
        E 0 81 17 64
        E 0 81 2b 64
        E 0 80 2d 64
        E 223 90 29 64
        E 0 90 30 64
        E 0 90 34 64
        E 0 90 3a 64
        E 0 91 15 64
        E 0 91 17 64
        E 0 91 2b 64
        E 0 90 2d 64
        E 535 80 29 64
        E 0 80 30 64
        E 0 80 34 64
        E 0 80 3a 64
        E 0 81 15 64
        E 0 81 17 64
        E 0 81 2b 64
        E 0 80 2d 64
        E 223 90 29 64
        E 0 90 30 64
        E 0 90 34 64
        E 0 90 3a 64
        E 0 91 15 64
        E 0 91 17 64
        E 0 91 2b 64
        E 0 90 2d 64
        E 535 81 10 64
        E 0 81 14 64
        E 0 80 29 64
        E 0 80 30 64
        E 0 80 34 64
        E 0 80 3a 64
        E 0 81 15 64
        E 0 81 17 64
        E 0 81 2b 64
        E 0 80 2d 64
        E 267 90 29 64
        E 0 90 30 64
        E 0 90 34 64
        E 0 90 3a 64
        E 0 91 15 64
        E 0 91 17 64
        E 0 91 2b 64
        E 0 90 2d 64
        E 535 80 29 64
        E 0 80 30 64
        E 0 80 34 64
        E 0 80 3a 64
        E 0 81 15 64
        E 0 81 17 64
        E 0 81 2b 64
        E 0 80 2d 64
        E 223 90 29 64
        E 0 90 30 64
        E 0 90 34 64
        E 0 90 3a 64
        E 0 91 15 64
        E 0 91 17 64
        E 0 91 2b 64
        E 0 90 2d 64
        E 535 80 29 64
        E 0 80 30 64
        E 0 80 34 64
        E 0 80 3a 64
        E 0 81 15 64
        E 0 81 17 64
        E 0 81 2b 64
        E 0 80 2d 64
        E 223 90 29 64
        E 0 90 30 64
        E 0 90 34 64
        E 0 90 3a 64
        E 0 91 15 64
        E 0 91 17 64
        E 0 91 2b 64
        E 0 90 2d 64
        E 535 80 29 64
        E 0 80 30 64
        E 0 80 34 64
        E 0 80 3a 64
        E 0 81 15 64
        E 0 81 17 64
        E 0 81 2b 64
        E 0 80 2d 64
        E 223 90 29 64
        E 0 90 30 64
        E 0 90 34 64
        E 0 90 3a 64
        E 0 91 15 64
        E 0 91 17 64
        E 0 91 2b 64
        E 0 90 2d 64
        E 535 80 29 64
        E 0 80 30 64
        E 0 80 34 64
        E 0 80 3a 64
        E 0 81 15 64
        E 0 81 17 64
        E 0 81 2b 64
        E 0 80 2d 64
        E 223 90 29 64
        E 0 91 1e 64
        E 0 90 30 64
        E 0 90 34 64
        E 0 90 3a 64
        E 0 91 15 64
        E 0 91 17 64
        E 0 91 2b 64
        E 0 90 2d 64
        E 579 80 29 64
        E 0 80 30 64
        E 0 80 34 64
        E 0 80 3a 64
        E 0 81 15 64
        E 0 81 17 64
        E 0 81 2b 64
        E 0 80 2d 64
        E 223 90 29 64
        E 0 90 30 64
        E 0 90 34 64
        E 0 90 3a 64
        E 0 91 15 64
        E 0 91 17 64
        E 0 91 2b 64
        E 0 90 2d 64
        E 535 80 29 64
        E 0 80 30 64
        E 0 80 34 64
        E 0 80 3a 64
        E 0 81 15 64
        E 0 81 17 64
        E 0 81 2b 64
        E 0 80 2d 64
        E 223 90 29 64
        E 0 91 1d 64
        E 0 90 30 64
        E 0 90 34 64
        E 0 90 3a 64
        E 0 91 15 64
        E 0 91 17 64
        E 0 91 2b 64
        E 0 90 2d 64
        E 535 80 29 64
        E 0 80 30 64
        E 0 80 34 64
        E 0 80 3a 64
        E 0 81 15 64
        E 0 81 17 64
        E 0 81 2b 64
        E 0 80 2d 64
        E 223 90 29 64
        E 0 90 30 64
        E 0 90 34 64
        E 0 90 3a 64
        E 0 91 15 64
        E 0 91 17 64
        E 0 91 2b 64
        E 0 90 2d 64
        E 535 81 1d 64
        E 0 80 29 64
        E 0 80 30 64
        E 0 80 34 64
        E 0 80 3a 64
        E 0 81 15 64
        E 0 81 17 64
        E 0 81 2b 64
        E 0 80 2d 64
        E 223 90 29 64
        E 0 90 29 64
        E 0 91 1a 64
        E 0 90 30 64
        E 0 90 34 64
        E 0 90 3a 64
        E 0 91 15 64
        E 0 91 17 64
        E 0 91 2b 64
        E 0 90 2d 64
        E 535 80 29 64
        E 0 80 30 64
        E 0 80 34 64
        E 0 80 3a 64
        E 0 81 15 64
        E 0 81 17 64
        E 0 81 2b 64
        E 0 80 2d 64
        E 267 90 29 64
        E 0 90 30 64
        E 0 90 34 64
        E 1 90 3a 64
        E 0 91 15 64
        E 0 91 17 64
        E 0 91 2b 64
        E 0 90 2d 64
        E 534 80 29 64
        E 0 80 30 64
        E 0 80 34 64
        E 0 80 3a 64
        E 0 81 15 64
        E 1 81 17 64
        E 0 81 2b 64
        E 0 80 2d 64
        E 222 90 29 64
        E 0 90 30 64
        E 0 90 34 64
        E 0 90 3a 64
        E 0 91 15 64
        E 0 91 17 64
        E 0 91 2b 64
        E 0 90 2d 64
        E 535 80 29 64
        E 0 80 30 64
        E 0 80 34 64
        E 0 80 3a 64
        E 0 81 15 64
        E 0 81 17 64
        E 0 81 2b 64
        E 0 80 2d 64
        E 223 90 29 64
        E 0 90 30 64
        E 0 90 34 64
        E 0 90 3a 64
        E 0 91 15 64
        E 0 91 17 64
        E 0 91 2b 64
        E 0 90 2d 64
        E 491 81 1a 64
        E 0 80 29 64
        E 44 80 29 64
        E 0 80 30 64
        E 0 80 34 64
        E 0 80 3a 64
        E 0 81 15 64
        E 0 81 17 64
        E 0 81 2b 64
        E 0 80 2d 64
        E 223 90 29 64
        E 0 90 24 64
        E 0 90 30 64
        E 0 90 34 64
        E 0 90 3a 64
        E 0 91 15 64
        E 0 91 17 64
        E 0 91 2b 64
        E 0 90 2d 64
        E 535 80 29 64
        E 0 80 30 64
        E 0 80 34 64
        E 0 80 3a 64
        E 0 81 15 64
        E 0 81 17 64
        E 0 81 2b 64
        E 0 80 2d 64
        E 268 90 29 64
        E 0 90 30 64
        E 0 90 34 64
        E 0 90 3a 64
        E 0 91 15 64
        E 0 91 17 64
        E 0 91 2b 64
        E 0 90 2d 64
        E 535 80 29 64
        E 0 80 30 64
        E 0 80 34 64
        E 0 80 3a 64
        E 0 81 15 64
        E 0 81 17 64
        E 0 81 2b 64
        E 0 80 2d 64
        E 223 90 29 64
        E 0 90 21 64
        E 0 90 30 64
        E 0 90 34 64
        E 0 90 3a 64
        E 0 91 15 64
        E 0 91 17 64
        E 0 91 2b 64
        E 0 90 2d 64
        E 535 80 29 64
        E 0 80 30 64
        E 0 80 34 64
        E 0 80 3a 64
        E 0 81 15 64
        E 0 81 17 64
        E 0 81 2b 64
        E 0 80 2d 64
        E 222 90 29 64
        E 0 90 30 64
        E 0 90 34 64
        E 0 90 3a 64
        E 0 91 15 64
        E 0 91 17 64
        E 0 91 2b 64
        E 0 90 2d 64
        E 491 80 24 64
        E 0 80 21 64
        E 44 80 29 64
        E 0 80 30 64
        E 0 80 34 64
        E 0 80 3a 64
        E 0 81 15 64
        E 0 81 17 64
        E 0 81 2b 64
        E 1 80 2d 64
        E 222 90 29 64
        E 0 90 1e 64
        E 0 90 24 64
        E 0 91 1a 64
        E 0 90 30 64
        E 0 90 34 64
        E 0 90 3a 64
        E 0 91 15 64
        E 0 91 17 64
        E 0 91 2b 64
        E 0 90 2d 64
        E 535 80 29 64
        E 0 80 30 64
        E 0 80 34 64
        E 0 80 3a 64
        E 0 81 15 64
        E 0 81 17 64
        E 0 81 2b 64
        E 0 80 2d 64
        E 223 90 29 64
        E 0 90 30 64
        E 0 90 34 64
        E 0 90 3a 64
        E 0 91 15 64
        E 0 91 17 64
        E 0 91 2b 64
        E 0 90 2d 64
        E 535 80 29 64
        E 0 80 30 64
        E 0 80 34 64
        E 0 80 3a 64
        E 0 81 15 64
        E 0 81 17 64
        E 0 81 2b 64
        E 0 80 2d 64
        E 268 90 29 64
        E 0 90 30 64
        E 0 90 34 64
        E 0 90 3a 64
        E 0 91 15 64
        E 0 91 17 64
        E 0 91 2b 64
        E 0 90 2d 64
        E 535 80 29 64
        E 0 80 30 64
        E 0 80 34 64
        E 0 80 3a 64
        E 0 81 15 64
        E 0 81 17 64
        E 0 81 2b 64
        E 0 80 2d 64
        E 223 90 29 64
        E 0 90 30 64
        E 0 90 34 64
        E 0 90 3a 64
        E 0 91 15 64
        E 0 91 17 64
        E 0 91 2b 64
        E 0 90 2d 64
        E 535 80 29 64
        E 0 80 30 64
        E 0 80 34 64
        E 0 80 3a 64
        E 0 81 15 64
        E 0 81 17 64
        E 0 81 2b 64
        E 0 80 2d 64
        E 222 90 29 64
        E 0 91 14 64
        E 0 90 30 64
        E 0 90 34 64
        E 0 90 3a 64
        E 1 91 15 64
        E 0 91 17 64
        E 0 91 2b 64
        E 0 90 2d 64
        E 534 80 29 64
        E 1 80 30 64
        E 0 80 34 64
        E 0 80 3a 64
        E 0 81 15 64
        E 0 81 17 64
        E 0 81 2b 64
        E 0 80 2d 64
        E 222 90 29 64
        E 0 90 30 64
        E 0 90 34 64
        E 0 90 3a 64
        E 0 91 15 64
        E 0 91 17 64
        E 0 91 2b 64
        E 0 90 2d 64
        E 535 81 14 64
        E 0 80 29 64
        E 0 80 30 64
        E 0 80 34 64
        E 1 80 3a 64
        E 0 81 15 64
        E 0 81 17 64
        E 0 81 2b 64
        E 0 80 2d 64
        E 267 90 29 64
        E 0 90 1c 64
        E 0 90 30 64
        E 0 90 34 64
        E 0 90 3a 64
        E 0 91 15 64
        E 0 91 17 64
        E 0 91 2b 64
        E 0 90 2d 64
        E 535 80 29 64
        E 0 80 30 64
        E 0 80 34 64
        E 0 80 3a 64
        E 0 81 15 64
        E 0 81 17 64
        E 0 81 2b 64
        E 0 80 2d 64
        E 223 90 29 64
        E 0 90 30 64
        E 0 90 34 64
        E 0 90 3a 64
        E 0 91 15 64
        E 0 91 17 64
        E 0 91 2b 64
        E 0 90 2d 64
        E 490 80 1c 64
        E 45 80 29 64
        E 0 80 30 64
        E 0 80 34 64
        E 0 80 3a 64
        E 0 81 15 64
        E 0 81 17 64
        E 0 81 2b 64
        E 0 80 2d 64
        E 223 90 29 64
        E 0 91 14 64
        E 0 91 10 64
        E 0 90 30 64
        E 0 90 34 64
        E 0 90 3a 64
        E 0 91 15 64
        E 0 91 17 64
        E 0 91 2b 64
        E 0 90 2d 64
        E 535 80 29 64
        E 0 80 30 64
        E 0 80 34 64
        E 0 80 3a 64
        E 0 81 15 64
        E 0 81 17 64
        E 0 81 2b 64
        E 0 80 2d 64
        E 223 90 29 64
        E 0 90 30 64
        E 0 90 34 64
        E 0 90 3a 64
        E 0 91 15 64
        E 0 91 17 64
        E 0 91 2b 64
        E 0 90 2d 64
        E 535 80 29 64
        E 0 80 30 64
        E 0 80 34 64
        E 0 80 3a 64
        E 0 81 15 64
        E 0 81 17 64
        E 0 81 2b 64
        E 0 80 2d 64
        E 222 90 29 64
        E 0 90 30 64
        E 1 90 34 64
        E 0 90 3a 64
        E 0 91 15 64
        E 0 91 17 64
        E 0 91 2b 64
        E 0 90 2d 64
        E 579 80 29 64
        E 0 80 30 64
        E 0 80 34 64
        E 0 80 3a 64
        E 0 81 15 64
        E 0 81 17 64
        E 0 81 2b 64
        E 0 80 2d 64
        E 223 90 29 64
        E 0 90 30 64
        E 0 90 34 64
        E 0 90 3a 64
        E 0 91 15 64
        E 0 91 17 64
        E 0 91 2b 64
        E 0 90 2d 64
        E 535 80 29 64
        E 0 80 30 64
        E 0 80 34 64
        E 0 80 3a 64
        E 0 81 15 64
        E 0 81 17 64
        E 0 81 2b 64
        E 0 80 2d 64
        E 223 90 29 64
        E 0 90 30 64
        E 0 90 34 64
        E 0 90 3a 64
        E 0 91 15 64
        E 90 91 17 64
        E 0 91 2b 64
        E 0 90 2d 64
        E 445 80 29 64
        E 0 80 30 64
        E 0 80 34 64
        E 0 80 3a 64
        E 0 81 15 64
        E 0 81 17 64
        E 0 81 2b 64
        E 0 80 2d 64
        E 223 90 29 64
        E 0 90 30 64
        E 0 90 34 64
        E 0 90 3a 64
        E 0 91 15 64
        E 0 91 17 64
        E 0 91 2b 64
        E 0 90 2d 64
        E 535 80 29 64
        E 0 80 30 64
        E 0 80 34 64
        E 0 80 3a 64
        E 0 81 15 64
        E 0 81 17 64
        E 0 81 2b 64
        E 0 80 2d 64
        E 223 90 29 64
        E 0 90 30 64
        E 0 90 34 64
        E 0 90 3a 64
        E 0 91 15 64
        E 0 91 17 64
        E 0 91 2b 64
        E 0 90 2d 64
        E 535 80 29 64
        E 0 80 30 64
        E 0 80 34 64
        E 0 80 3a 64
        E 0 81 15 64
        E 0 81 17 64
        E 0 81 2b 64
        E 0 80 2d 64
        E 267 90 29 64
        E 0 90 30 64
        E 0 90 34 64
        E 0 90 3a 64
        E 0 91 15 64
        E 0 91 17 64
        E 0 91 2b 64
        E 0 90 2d 64
        E 491 81 10 64
        E 0 81 1e 64
        E 0 80 1e 64
        E 0 80 24 64
        E 0 81 1a 64
        E 0 81 14 64
        E 44 80 29 64
        E 0 80 30 64
        E 0 80 34 64
        E 0 80 3a 64
        E 0 81 15 64
        E 0 81 17 64
        E 0 81 2b 64
        E 0 80 2d 64
        E 223 90 29 64
        E 0 90 30 64
        E 0 90 34 64
        E 0 90 3a 64
        E 0 91 15 64
        E 0 91 17 64
        E 0 91 2b 64
        E 0 90 2d 64
        E 535 80 29 64
        E 0 80 30 64
        E 0 80 34 64
        E 0 80 3a 64
        E 0 81 15 64
        E 0 81 17 64
        E 0 81 2b 64
        E 0 80 2d 64
        E 223 90 29 64
        E 0 90 30 64
        E 0 90 34 64
        E 0 90 3a 64
        E 0 91 15 64
        E 0 91 17 64
        E 0 91 2b 64
        E 0 90 2d 64
        E 535 80 29 64
        E 0 80 30 64
        E 0 80 34 64
        E 0 80 3a 64
        E 0 81 15 64
        E 0 81 17 64
        E 0 81 2b 64
        E 0 80 2d 64
        E 223 90 29 64
        E 0 90 30 64
        E 0 90 34 64
        E 0 90 3a 64
        E 0 91 15 64
        E 0 91 17 64
        E 0 91 2b 64
        E 0 90 2d 64
        E 535 80 29 64
        E 0 80 30 64
        E 0 80 34 64
        E 0 80 3a 64
        E 0 81 15 64
        E 0 81 17 64
        E 0 81 2b 64
        E 0 80 2d 64
        E 267 90 29 64
        E 0 90 30 64
        E 0 90 34 64
        E 0 90 3a 64
        E 0 91 15 64
        E 0 91 17 64
        E 0 91 2b 64
        E 0 90 2d 64
        E 535 80 29 64
        E 0 80 30 64
        E 0 80 34 64
        E 0 80 3a 64
        E 0 81 15 64
        E 0 81 17 64
        E 0 81 2b 64
        E 0 80 2d 64
        E 223 90 29 64
        E 0 91 1e 64
        E 0 90 30 64
        E 0 90 34 64
        E 0 90 3a 64
        E 0 91 15 64
        E 0 91 17 64
        E 0 91 2b 64
        E 0 90 2d 64
        E 535 80 29 64
        E 0 80 30 64
        E 0 80 34 64
        E 0 80 3a 64
        E 0 81 15 64
        E 0 81 17 64
        E 0 81 2b 64
        E 0 80 2d 64
        E 223 90 29 64
        E 0 90 30 64
        E 0 90 34 64
        E 0 90 3a 64
        E 0 91 15 64
        E 0 91 17 64
        E 0 91 2b 64
        E 0 90 2d 64
        E 535 80 29 64
        E 0 80 30 64
        E 0 80 34 64
        E 0 80 3a 64
        E 0 81 15 64
        E 0 81 17 64
        E 0 81 2b 64
        E 0 80 2d 64
        E 223 90 29 64
        E 0 91 1d 64
        E 0 90 30 64
        E 0 90 34 64
        E 0 90 3a 64
        E 0 91 15 64
        E 0 91 17 64
        E 0 91 2b 64
        E 0 90 2d 64
        E 535 80 29 64
        E 0 80 30 64
        E 0 80 34 64
        E 0 80 3a 64
        E 0 81 15 64
        E 0 81 17 64
        E 0 81 2b 64
        E 0 80 2d 64
        E 223 90 29 64
        E 0 90 30 64
        E 0 90 34 64
        E 0 90 3a 64
        E 0 91 15 64
        E 0 91 17 64
        E 0 91 2b 64
        E 0 90 2d 64
        E 535 81 1d 64
        E 0 80 29 64
        E 0 80 30 64
        E 0 80 34 64
        E 0 80 3a 64
        E 0 81 15 64
        E 0 81 17 64
        E 0 81 2b 64
        E 0 80 2d 64
        E 267 90 29 64
        E 0 90 29 64
        E 0 91 1a 64
        E 0 90 30 64
        E 0 90 34 64
        E 0 90 3a 64
        E 0 91 15 64
        E 0 91 17 64
        E 0 91 2b 64
        E 0 90 2d 64
        E 491 81 1e 64
        E 0 80 29 64
        E 0 81 1a 64
        E 44 80 29 64
        E 0 80 30 64
        E 0 80 34 64
        E 1 80 3a 64
        E 0 81 15 64
        E 0 81 17 64
        E 0 81 2b 64
        E 0 80 2d 64
        E 222 90 29 64
        E 0 90 30 64
        E 0 90 34 64
        E 0 90 3a 64
        E 0 91 15 64
        E 0 91 17 64
        E 0 91 2b 64
        E 0 90 2d 64
        E 491 80 29 64
        E 44 80 30 64
        E 0 80 34 64
        E 0 80 3a 64
        E 0 81 15 64
        E 0 81 17 64
        E 0 81 2b 64
        E 0 80 2d 64
        E 223 90 29 64
        E 0 91 1d 64
        E 0 90 30 64
        E 0 90 34 64
        E 0 90 3a 64
        E 0 91 15 64
        E 0 91 17 64
        E 0 91 2b 64
        E 0 90 2d 64
        E 535 80 29 64
        E 0 80 30 64
        E 0 80 34 64
        E 0 80 3a 64
        E 0 81 15 64
        E 0 81 17 64
        E 0 81 2b 64
        E 0 80 2d 64
        E 223 90 29 64
        E 0 90 30 64
        E 0 90 34 64
        E 0 90 3a 64
        E 0 91 15 64
        E 0 91 17 64
        E 0 91 2b 64
        E 0 90 2d 64
        E 535 80 29 64
        E 0 80 30 64
        E 0 80 34 64
        E 0 80 3a 64
        E 0 81 15 64
        E 0 81 17 64
        E 0 81 2b 64
        E 0 80 2d 64
        E 268 90 29 64
        E 0 91 1e 64
        E 0 90 30 64
        E 0 90 34 64
        E 0 90 3a 64
        E 0 91 15 64
        E 0 91 17 64
        E 0 91 2b 64
        E 0 90 2d 64
        E 535 80 29 64
        E 0 80 30 64
        E 0 80 34 64
        E 0 80 3a 64
        E 0 81 15 64
        E 0 81 17 64
        E 0 81 2b 64
        E 0 80 2d 64
        E 222 90 29 64
        E 0 90 30 64
        E 0 90 34 64
        E 1 90 3a 64
        E 0 91 15 64
        E 0 91 17 64
        E 0 91 2b 64
        E 0 90 2d 64
        E 490 81 1d 64
        E 0 81 1e 64
        E 0 80 29 64
        E 45 80 30 64
        E 0 80 34 64
        E 0 80 3a 64
        E 0 81 15 64
        E 0 81 17 64
        E 0 81 2b 64
        E 0 80 2d 64
        E 222 90 29 64
        E 0 91 1d 64
        E 0 90 30 64
        E 0 90 34 64
        E 0 90 3a 64
        E 1 91 15 64
        E 0 91 17 64
        E 0 91 2b 64
        E 0 90 2d 64
        E 534 80 29 64
        E 0 80 30 64
        E 0 80 34 64
        E 0 80 3a 64
        E 0 81 15 64
        E 0 81 17 64
        E 0 81 2b 64
        E 0 80 2d 64
        E 223 90 29 64
        E 0 90 30 64
        E 0 90 34 64
        E 0 90 3a 64
        E 0 91 15 64
        E 0 91 17 64
        E 0 91 2b 64
        E 0 90 2d 64
        E 535 80 29 64
        E 0 80 30 64
        E 0 80 34 64
        E 0 80 3a 64
        E 0 81 15 64
        E 0 81 17 64
        E 0 81 2b 64
        E 0 80 2d 64
        E 223 90 29 64
        E 0 91 1e 64
        E 0 90 30 64
        E 0 90 34 64
        E 0 90 3a 64
        E 0 91 15 64
        E 0 91 17 64
        E 0 91 2b 64
        E 0 90 2d 64
        E 580 80 29 64
        E 0 80 30 64
        E 0 80 34 64
        E 0 80 3a 64
        E 0 81 15 64
        E 0 81 17 64
        E 0 81 2b 64
        E 0 80 2d 64
        E 223 90 29 64
        E 0 90 30 64
        E 0 90 34 64
        E 0 90 3a 64
        E 0 91 15 64
        E 0 91 17 64
        E 0 91 2b 64
        E 0 90 2d 64
        E 490 81 1d 64
        E 0 81 1e 64
        E 0 80 29 64
        E 45 80 30 64
        E 0 80 34 64
        E 0 80 3a 64
        E 0 81 15 64
        E 0 81 17 64
        E 0 81 2b 64
        E 0 80 2d 64
        E 223 90 29 64
        E 0 91 1d 64
        E 0 90 30 64
        E 0 90 34 64
        E 0 90 3a 64
        E 0 91 15 64
        E 0 91 17 64
        E 0 91 2b 64
        E 0 90 2d 64
        E 535 80 29 64
        E 0 80 30 64
        E 0 80 34 64
        E 0 80 3a 64
        E 0 81 15 64
        E 0 81 17 64
        E 0 81 2b 64
        E 0 80 2d 64
        E 222 90 29 64
        E 0 90 30 64
        E 0 90 34 64
        E 0 90 3a 64
        E 0 91 15 64
        E 1 91 17 64
        E 0 91 2b 64
        E 0 90 2d 64
        E 534 80 29 64
        E 0 80 30 64
        E 0 80 34 64
        E 0 80 3a 64
        E 0 81 15 64
        E 0 81 17 64
        E 0 81 2b 64
        E 0 80 2d 64
        E 223 90 29 64
        E 0 91 1e 64
        E 0 90 30 64
        E 0 90 34 64
        E 0 90 3a 64
        E 0 91 15 64
        E 0 91 17 64
        E 0 91 2b 64
        E 0 90 2d 64
        E 535 80 29 64
        E 0 80 30 64
        E 0 80 34 64
        E 0 80 3a 64
        E 0 81 15 64
        E 0 81 17 64
        E 0 81 2b 64
        E 0 80 2d 64
        E 268 90 29 64
        E 0 90 30 64
        E 0 90 34 64
        E 0 90 3a 64
        E 0 91 15 64
        E 0 91 17 64
        E 0 91 2b 64
        E 0 90 2d 64
        E 535 80 29 64
        E 0 80 30 64
        E 0 80 34 64
        E 0 80 3a 64
        E 0 81 15 64
        E 0 81 17 64
        E 0 81 2b 64
        E 0 80 2d 64
        E 223 90 29 64
        E 0 91 1d 64
        E 0 90 30 64
        E 0 90 34 64
        E 0 90 3a 64
        E 0 91 15 64
        E 0 91 17 64
        E 0 91 2b 64
        E 0 90 2d 64
        E 535 80 29 64
        E 0 80 30 64
        E 0 80 34 64
        E 0 80 3a 64
        E 0 81 15 64
        E 0 81 17 64
        E 0 81 2b 64
        E 0 80 2d 64
        E 223 90 29 64
        E 0 90 30 64
        E 0 90 34 64
        E 0 90 3a 64
        E 0 91 15 64
        E 0 91 17 64
        E 0 91 2b 64
        E 0 90 2d 64
        E 490 81 1d 64
        E 45 80 29 64
        E 0 80 30 64
        E 0 80 34 64
        E 0 80 3a 64
        E 0 81 15 64
        E 0 81 17 64
        E 0 81 2b 64
        E 0 80 2d 64
        E 223 90 29 64
        E 0 90 29 64
        E 0 91 1a 64
        E 0 90 30 64
        E 0 90 34 64
        E 0 90 3a 64
        E 0 91 15 64
        E 0 91 17 64
        E 0 91 2b 64
        E 0 90 2d 64
        E 534 80 29 64
        E 1 80 30 64
        E 0 80 34 64
        E 0 80 3a 64
        E 0 81 15 64
        E 0 81 17 64
        E 0 81 2b 64
        E 0 80 2d 64
        E 222 90 29 64
        E 0 90 30 64
        E 0 90 34 64
        E 0 90 3a 64
        E 45 91 15 64
        E 0 91 17 64
        E 0 91 2b 64
        E 0 90 2d 64
        E 535 80 29 64
        E 0 80 30 64
        E 0 80 34 64
        E 0 80 3a 64
        E 0 81 15 64
        E 0 81 17 64
        E 0 81 2b 64
        E 0 80 2d 64
        E 223 90 29 64
        E 0 90 30 64
        E 0 90 34 64
        E 0 90 3a 64
        E 0 91 15 64
        E 0 91 17 64
        E 0 91 2b 64
        E 0 90 2d 64
        E 535 80 29 64
        E 0 80 30 64
        E 0 80 34 64
        E 0 80 3a 64
        E 0 81 15 64
        E 0 81 17 64
        E 0 81 2b 64
        E 0 80 2d 64
        E 223 90 29 64
        E 0 90 30 64
        E 0 90 34 64
        E 0 90 3a 64
        E 0 91 15 64
        E 0 91 17 64
        E 0 91 2b 64
        E 0 90 2d 64
        E 490 81 1a 64
        E 0 80 29 64
        E 45 80 29 64
        E 0 80 30 64
        E 0 80 34 64
        E 0 80 3a 64
        E 0 81 15 64
        E 0 81 17 64
        E 0 81 2b 64
        E 0 80 2d 64
        E 223 90 29 64
        E 0 90 24 64
        E 0 90 30 64
        E 0 90 34 64
        E 0 90 3a 64
        E 0 91 15 64
        E 0 91 17 64
        E 0 91 2b 64
        E 0 90 2d 64
        E 535 80 29 64
        E 0 80 30 64
        E 0 80 34 64
        E 0 80 3a 64
        E 0 81 15 64
        E 0 81 17 64
        E 0 81 2b 64
        E 0 80 2d 64
        E 223 90 29 64
        E 0 90 30 64
        E 0 90 34 64
        E 0 90 3a 64
        E 0 91 15 64
        E 0 91 17 64
        E 0 91 2b 64
        E 0 90 2d 64
        E 535 80 29 64
        E 0 80 30 64
        E 0 80 34 64
        E 0 80 3a 64
        E 0 81 15 64
        E 0 81 17 64
        E 0 81 2b 64
        E 0 80 2d 64
        E 267 90 29 64
        E 0 90 21 64
        E 0 90 30 64
        E 0 90 34 64
        E 0 90 3a 64
        E 0 91 15 64
        E 0 91 17 64
        E 0 91 2b 64
        E 0 90 2d 64
        E 535 80 29 64
        E 0 80 30 64
        E 0 80 34 64
        E 0 80 3a 64
        E 0 81 15 64
        E 0 81 17 64
        E 0 81 2b 64
        E 0 80 2d 64
        E 223 90 29 64
        E 0 90 30 64
        E 0 90 34 64
        E 0 90 3a 64
        E 0 91 15 64
        E 0 91 17 64
        E 0 91 2b 64
        E 0 90 2d 64
        E 490 80 24 64
        E 0 80 21 64
        E 45 80 29 64
        E 0 80 30 64
        E 0 80 34 64
        E 0 80 3a 64
        E 0 81 15 64
        E 0 81 17 64
        E 0 81 2b 64
        E 0 80 2d 64
        E 223 90 29 64
        E 0 90 1e 64
        E 0 90 24 64
        E 0 91 1a 64
        E 0 90 30 64
        E 0 90 34 64
        E 0 90 3a 64
        E 0 91 15 64
        E 0 91 17 64
        E 0 91 2b 64
        E 0 90 2d 64
        E 535 80 29 64
        E 0 80 30 64
        E 0 80 34 64
        E 0 80 3a 64
        E 0 81 15 64
        E 0 81 17 64
        E 0 81 2b 64
        E 0 80 2d 64
        E 223 90 29 64
        E 0 90 30 64
        E 0 90 34 64
        E 0 90 3a 64
        E 0 91 15 64
        E 0 91 17 64
        E 0 91 2b 64
        E 0 90 2d 64
        E 535 80 29 64
        E 0 80 30 64
        E 0 80 34 64
        E 0 80 3a 64
        E 0 81 15 64
        E 0 81 17 64
        E 0 81 2b 64
        E 0 80 2d 64
        E 267 90 29 64
        E 0 90 30 64
        E 0 90 34 64
        E 0 90 3a 64
        E 0 91 15 64
        E 0 91 17 64
        E 0 91 2b 64
        E 0 90 2d 64
        E 535 80 29 64
        E 0 80 30 64
        E 0 80 34 64
        E 0 80 3a 64
        E 0 81 15 64
        E 0 81 17 64
        E 0 81 2b 64
        E 0 80 2d 64
        E 223 90 29 64
        E 0 90 30 64
        E 0 90 34 64
        E 0 90 3a 64
        E 0 91 15 64
        E 0 91 17 64
        E 0 91 2b 64
        E 0 90 2d 64
        E 535 80 29 64
        E 0 80 30 64
        E 0 80 34 64
        E 0 80 3a 64
        E 0 81 15 64
        E 0 81 17 64
        E 0 81 2b 64
        E 0 80 2d 64
        E 223 90 29 64
        E 0 91 14 64
        E 0 90 30 64
        E 0 90 34 64
        E 0 90 3a 64
        E 0 91 15 64
        E 0 91 17 64
        E 0 91 2b 64
        E 0 90 2d 64
        E 535 80 29 64
        E 0 80 30 64
        E 0 80 34 64
        E 0 80 3a 64
        E 0 81 15 64
        E 0 81 17 64
        E 0 81 2b 64
        E 0 80 2d 64
        E 223 90 29 64
        E 0 90 30 64
        E 0 90 34 64
        E 0 90 3a 64
        E 0 91 15 64
        E 0 91 17 64
        E 0 91 2b 64
        E 0 90 2d 64
        E 535 81 14 64
        E 0 80 29 64
        E 0 80 30 64
        E 0 80 34 64
        E 0 80 3a 64
        E 0 81 15 64
        E 0 81 17 64
        E 0 81 2b 64
        E 0 80 2d 64
        E 223 90 29 64
        E 0 90 1c 64
        E 0 90 30 64
        E 0 90 34 64
        E 0 90 3a 64
        E 0 91 15 64
        E 0 91 17 64
        E 0 91 2b 64
        E 0 90 2d 64
        E 579 80 29 64
        E 0 80 30 64
        E 1 80 34 64
        E 0 80 3a 64
        E 0 81 15 64
        E 0 81 17 64
        E 0 81 2b 64
        E 0 80 2d 64
        E 222 90 29 64
        E 0 90 30 64
        E 0 90 34 64
        E 0 90 3a 64
        E 0 91 15 64
        E 0 91 17 64
        E 0 91 2b 64
        E 0 90 2d 64
        E 491 80 1c 64
        E 44 80 29 64
        E 0 80 30 64
        E 0 80 34 64
        E 0 80 3a 64
        E 0 81 15 64
        E 0 81 17 64
        E 0 81 2b 64
        E 0 80 2d 64
        E 223 90 29 64
        E 0 91 14 64
        E 0 91 10 64
        E 0 90 30 64
        E 0 90 34 64
        E 0 90 3a 64
        E 0 91 15 64
        E 0 91 17 64
        E 0 91 2b 64
        E 0 90 2d 64
        E 0 90 38 64
        E 535 80 29 64
        E 0 80 30 64
        E 0 80 34 64
        E 0 80 3a 64
        E 0 81 15 64
        E 0 81 17 64
        E 0 81 2b 64
        E 0 80 2d 64
        E 0 80 38 64
        E 223 90 29 64
        E 0 90 30 64
        E 0 90 34 64
        E 0 90 3a 64
        E 0 91 15 64
        E 0 91 17 64
        E 0 91 2b 64
        E 0 90 2d 64
        E 0 90 38 64
        E 535 80 29 64
        E 0 80 30 64
        E 0 80 34 64
        E 0 80 3a 64
        E 0 81 15 64
        E 0 81 17 64
        E 0 81 2b 64
        E 0 80 2d 64
        E 0 80 38 64
        E 223 90 29 64
        E 0 90 30 64
        E 0 90 34 64
        E 0 90 3a 64
        E 0 91 15 64
        E 0 91 17 64
        E 0 91 2b 64
        E 0 90 2d 64
        E 0 90 38 64
        E 0 91 20 64
        E 535 80 29 64
        E 0 80 30 64
        E 0 80 34 64
        E 0 80 3a 64
        E 0 81 15 64
        E 0 81 17 64
        E 0 81 2b 64
        E 0 80 2d 64
        E 0 80 38 64
        E 0 81 20 64
        E 268 90 29 64
        E 0 90 30 64
        E 0 90 34 64
        E 0 90 3a 64
        E 0 91 15 64
        E 0 91 17 64
        E 0 91 2b 64
        E 0 90 2d 64
        E 0 90 38 64
        E 0 91 20 64
        E 534 80 29 64
        E 1 80 30 64
        E 0 80 34 64
        E 0 80 3a 64
        E 0 81 15 64
        E 0 81 17 64
        E 0 81 2b 64
        E 0 80 2d 64
        E 0 80 38 64
        E 0 81 20 64
        E 222 90 29 64
        E 0 90 30 64
        E 1 90 34 64
        E 0 90 3a 64
        E 0 91 15 64
        E 0 91 17 64
        E 0 91 2b 64
        E 0 90 2d 64
        E 0 90 38 64
        E 0 91 20 64
        E 0 90 1e 64
        E 534 80 29 64
        E 0 80 30 64
        E 0 80 34 64
        E 0 80 3a 64
        E 0 81 15 64
        E 0 81 17 64
        E 0 81 2b 64
        E 0 80 2d 64
        E 0 80 38 64
        E 0 81 20 64
        E 1 80 1e 64
        E 222 90 29 64
        E 0 90 30 64
        E 0 90 34 64
        E 0 90 3a 64
        E 0 91 15 64
        E 0 91 17 64
        E 1 91 2b 64
        E 0 90 2d 64
        E 0 90 38 64
        E 0 91 20 64
        E 0 90 1e 64
        E 534 80 1e 64
        E 0 80 29 64
        E 0 80 30 64
        E 0 80 34 64
        E 0 80 3a 64
        E 0 81 15 64
        E 0 81 17 64
        E 0 81 2b 64
        E 0 80 2d 64
        E 0 80 38 64
        E 0 81 20 64
        E 223 90 29 64
        E 0 90 30 64
        E 0 90 34 64
        E 0 90 3a 64
        E 0 91 15 64
        E 0 91 17 64
        E 0 91 2b 64
        E 0 90 2d 64
        E 0 90 38 64
        E 0 91 20 64
        E 0 90 1e 64
        E 535 81 1e 64
        E 0 81 1d 64
        E 0 80 24 64
        E 0 81 1a 64
        E 0 81 14 64
        E 0 80 1e 64
        E 0 80 29 64
        E 0 80 30 64
        E 0 80 34 64
        E 0 80 3a 64
        E 0 81 15 64
        E 0 81 17 64
        E 0 81 2b 64
        E 0 80 2d 64
        E 0 80 38 64
        E 0 81 20 64
        E 0 80 1e 64
        E 223 90 29 64
        E 0 90 30 64
        E 0 90 34 64
        E 0 90 3a 64
        E 0 91 15 64
        E 0 91 17 64
        E 0 91 2b 64
        E 0 90 2d 64
        E 0 90 38 64
        E 0 91 20 64
        E 0 90 1e 64
        E 535 80 29 64
        E 0 80 1e 64
        E 45 80 30 64
        E 0 80 34 64
        E 0 80 3a 64
        E 0 81 15 64
        E 0 81 17 64
        E 0 81 2b 64
        E 0 80 2d 64
        E 0 80 38 64
        E 0 81 20 64
        E 223 90 29 64
        E 0 90 30 64
        E 0 90 34 64
        E 0 90 3a 64
        E 0 91 15 64
        E 0 91 17 64
        E 0 91 2b 64
        E 0 90 2d 64
        E 0 90 38 64
        E 0 91 20 64
        E 0 90 1e 64
        E 535 80 29 64
        E 0 80 30 64
        E 0 80 34 64
        E 0 80 3a 64
        E 0 81 15 64
        E 0 81 17 64
        E 0 81 2b 64
        E 0 80 2d 64
        E 0 80 38 64
        E 0 81 20 64
        E 0 80 1e 64
        E 223 90 29 64
        E 0 90 30 64
        E 0 90 34 64
        E 0 90 3a 64
        E 0 91 15 64
        E 0 91 17 64
        E 0 91 2b 64
        E 0 90 2d 64
        E 0 90 38 64
        E 0 91 20 64
        E 0 90 1e 64
        E 534 80 29 64
        E 0 80 30 64
        E 0 80 34 64
        E 0 80 3a 64
        E 0 81 15 64
        E 0 81 17 64
        E 0 81 2b 64
        E 0 80 2d 64
        E 0 80 38 64
        E 0 81 20 64
        E 0 80 1e 64
        E 223 90 29 64
        E 0 90 30 64
        E 0 90 34 64
        E 0 90 3a 64
        E 0 91 15 64
        E 0 91 17 64
        E 0 91 2b 64
        E 0 90 2d 64
        E 0 90 38 64
        E 0 91 20 64
        E 0 90 1e 64
        E 535 80 29 64
        E 0 80 30 64
        E 0 80 34 64
        E 0 80 3a 64
        E 0 81 15 64
        E 0 81 17 64
        E 1 81 2b 64
        E 0 80 2d 64
        E 0 80 38 64
        E 0 81 20 64
        E 0 80 1e 64
        E 222 90 29 64
        E 0 90 30 64
        E 0 90 34 64
        E 0 90 3a 64
        E 0 91 15 64
        E 0 91 17 64
        E 0 91 2b 64
        E 0 90 2d 64
        E 0 90 38 64
        E 0 91 20 64
        E 0 90 1e 64
        E 535 80 29 64
        E 0 80 30 64
        E 0 80 34 64
        E 0 80 3a 64
        E 0 81 15 64
        E 0 81 17 64
        E 0 81 2b 64
        E 0 80 2d 64
        E 0 80 38 64
        E 0 81 20 64
        E 0 80 1e 64
        E 268 90 29 64
        E 0 90 30 64
        E 0 90 34 64
        E 0 90 3a 64
        E 0 91 15 64
        E 0 91 17 64
        E 0 91 2b 64
        E 0 90 2d 64
        E 0 90 38 64
        E 0 91 20 64
        E 0 90 1e 64
        E 490 80 29 64
        E 0 80 1e 64
        E 45 80 30 64
        E 0 80 34 64
        E 0 80 3a 64
        E 0 81 15 64
        E 0 81 17 64
        E 0 81 2b 64
        E 0 80 2d 64
        E 0 80 38 64
        E 0 81 20 64
        E 223 90 29 64
        E 0 90 30 64
        E 0 90 34 64
        E 0 90 3a 64
        E 0 91 15 64
        E 0 91 17 64
        E 0 91 2b 64
        E 0 90 2d 64
        E 0 90 38 64
        E 0 91 20 64
        E 0 90 1e 64
        E 490 80 29 64
        E 0 80 1e 64
        E 45 80 30 64
        E 0 80 34 64
        E 0 80 3a 64
        E 0 81 15 64
        E 0 81 17 64
        E 0 81 2b 64
        E 0 80 2d 64
        E 0 80 38 64
        E 0 81 20 64
        E 223 90 29 64
        E 0 90 30 64
        E 0 90 34 64
        E 0 90 3a 64
        E 0 91 15 64
        E 0 91 17 64
        E 0 91 2b 64
        E 0 90 2d 64
        E 0 90 38 64
        E 0 91 20 64
        E 0 90 1e 64
        E 535 80 29 64
        E 0 80 30 64
        E 0 80 34 64
        E 0 80 3a 64
        E 0 81 15 64
        E 0 81 17 64
        E 0 81 2b 64
        E 0 80 2d 64
        E 0 80 38 64
        E 0 81 20 64
        E 0 80 1e 64
        E 222 90 29 64
        E 0 90 30 64
        E 0 90 34 64
        E 0 90 3a 64
        E 0 91 15 64
        E 1 91 17 64
        E 0 91 2b 64
        E 0 90 2d 64
        E 0 90 38 64
        E 0 91 20 64
        E 0 90 1e 64
        E 535 80 29 64
        E 0 80 30 64
        E 0 80 34 64
        E 0 80 3a 64
        E 0 81 15 64
        E 0 81 17 64
        E 0 81 2b 64
        E 0 80 2d 64
        E 0 80 38 64
        E 0 81 20 64
        E 0 80 1e 64
        E 267 90 29 64
        E 0 90 30 64
        E 0 90 34 64
        E 0 90 3a 64
        E 0 91 15 64
        E 0 91 17 64
        E 0 91 2b 64
        E 0 90 2d 64
        E 0 90 38 64
        E 0 91 20 64
        E 0 90 1e 64
        E 535 80 29 64
        E 0 80 30 64
        E 0 80 34 64
        E 0 80 3a 64
        E 0 81 15 64
        E 0 81 17 64
        E 0 81 2b 64
        E 0 80 2d 64
        E 0 80 38 64
        E 0 81 20 64
        E 0 80 1e 64
        E 223 90 29 64
        E 0 90 30 64
        E 0 90 34 64
        E 0 90 3a 64
        E 0 91 15 64
        E 0 91 17 64
        E 0 91 2b 64
        E 0 90 2d 64
        E 0 90 38 64
        E 0 91 20 64
        E 0 90 1e 64
        E 490 80 29 64
        E 0 80 1e 64
        E 45 80 30 64
        E 0 80 34 64
        E 0 80 3a 64
        E 0 81 15 64
        E 0 81 17 64
        E 0 81 2b 64
        E 0 80 2d 64
        E 0 80 38 64
        E 0 81 20 64
        E 223 90 29 64
        E 0 90 30 64
        E 0 90 34 64
        E 0 90 3a 64
        E 0 91 15 64
        E 0 91 17 64
        E 0 91 2b 64
        E 0 90 2d 64
        E 0 90 38 64
        E 0 91 20 64
        E 0 90 1e 64
        E 490 80 29 64
        E 0 80 1e 64
        E 45 80 30 64
        E 0 80 34 64
        E 0 80 3a 64
        E 0 81 15 64
        E 0 81 17 64
        E 0 81 2b 64
        E 0 80 2d 64
        E 0 80 38 64
        E 0 81 20 64
        E 223 90 29 64
        E 0 90 30 64
        E 0 90 34 64
        E 0 90 3a 64
        E 0 91 15 64
        E 0 91 17 64
        E 0 91 2b 64
        E 0 90 2d 64
        E 0 90 38 64
        E 0 91 20 64
        E 0 90 1e 64
        E 535 80 29 64
        E 0 80 30 64
        E 0 80 34 64
        E 0 80 3a 64
        E 0 81 15 64
        E 0 81 17 64
        E 0 81 2b 64
        E 0 80 2d 64
        E 0 80 38 64
        E 0 81 20 64
        E 0 80 1e 64
        E 223 90 29 64
        E 0 90 30 64
        E 0 90 34 64
        E 0 90 3a 64
        E 0 91 15 64
        E 0 91 17 64
        E 0 91 2b 64
        E 0 90 2d 64
        E 0 90 38 64
        E 0 91 20 64
        E 0 90 1e 64
        E 535 80 29 64
        E 0 80 30 64
        E 0 80 34 64
        E 0 80 3a 64
        E 0 81 15 64
        E 0 81 17 64
        E 0 81 2b 64
        E 0 80 2d 64
        E 0 80 38 64
        E 0 81 20 64
        E 0 80 1e 64
        E 267 90 29 64
        E 0 90 30 64
        E 0 90 34 64
        E 0 90 3a 64
        E 0 91 15 64
        E 0 91 17 64
        E 0 91 2b 64
        E 0 90 2d 64
        E 0 90 38 64
        E 0 91 20 64
        E 0 90 1e 64
        E 490 80 29 64
        E 0 80 1e 64
        E 45 80 30 64
        E 0 80 34 64
        E 0 80 3a 64
        E 0 81 15 64
        E 0 81 17 64
        E 0 81 2b 64
        E 0 80 2d 64
        E 0 80 38 64
        E 0 81 20 64
        E 223 90 29 64
        E 0 90 30 64
        E 0 90 34 64
        E 0 90 3a 64
        E 0 91 15 64
        E 0 91 17 64
        E 0 91 2b 64
        E 0 90 2d 64
        E 0 90 38 64
        E 0 91 20 64
        E 0 90 1e 64
        E 535 80 29 64
        E 0 80 30 64
        E 0 80 34 64
        E 0 80 3a 64
        E 0 81 15 64
        E 0 81 17 64
        E 0 81 2b 64
        E 0 80 2d 64
        E 0 80 38 64
        E 0 81 20 64
        E 0 80 1e 64
        E 223 90 29 64
        E 0 90 30 64
        E 0 90 34 64
        E 0 90 3a 64
        E 0 91 15 64
        E 0 91 17 64
        E 0 91 2b 64
        E 0 90 2d 64
        E 0 90 38 64
        E 0 91 20 64
        E 0 90 1e 64
        E 535 80 29 64
        E 0 80 30 64
        E 0 80 34 64
        E 0 80 3a 64
        E 0 81 15 64
        E 0 81 17 64
        E 0 81 2b 64
        E 0 80 2d 64
        E 0 80 38 64
        E 0 81 20 64
        E 0 80 1e 64
        E 223 90 29 64
        E 0 90 30 64
        E 0 90 34 64
        E 0 90 3a 64
        E 0 91 15 64
        E 0 91 17 64
        E 0 91 2b 64
        E 0 90 2d 64
        E 0 90 38 64
        E 0 91 20 64
        E 0 90 1e 64
        E 535 80 29 64
        E 0 80 30 64
        E 0 80 34 64
        E 0 80 3a 64
        E 0 81 15 64
        E 0 81 17 64
        E 0 81 2b 64
        E 0 80 2d 64
        E 0 80 38 64
        E 0 81 20 64
        E 0 80 1e 64
        E 267 90 29 64
        E 0 90 30 64
        E 0 90 34 64
        E 0 90 3a 64
        E 0 91 15 64
        E 0 91 17 64
        E 0 91 2b 64
        E 0 90 2d 64
        E 0 90 38 64
        E 0 91 20 64
        E 0 90 1e 64
        E 535 80 29 64
        E 0 80 30 64
        E 0 80 34 64
        E 0 80 3a 64
        E 0 81 15 64
        E 0 81 17 64
        E 0 81 2b 64
        E 0 80 2d 64
        E 0 80 38 64
        E 0 81 20 64
        E 0 80 1e 64
        E 223 90 29 64
        E 0 90 30 64
        E 0 90 34 64
        E 0 90 3a 64
        E 0 91 15 64
        E 0 91 17 64
        E 0 91 2b 64
        E 0 90 2d 64
        E 0 90 38 64
        E 0 91 20 64
        E 0 90 1e 64
        E 535 80 29 64
        E 0 80 30 64
        E 0 80 34 64
        E 0 80 3a 64
        E 0 81 15 64
        E 0 81 17 64
        E 0 81 2b 64
        E 0 80 2d 64
        E 0 80 38 64
        E 0 81 20 64
        E 0 80 1e 64
        E 223 90 29 64
        E 0 90 30 64
        E 0 90 34 64
        E 0 90 3a 64
        E 0 91 15 64
        E 0 91 17 64
        E 0 91 2b 64
        E 0 90 2d 64
        E 0 90 38 64
        E 0 91 20 64
        E 0 90 1e 64
        E 535 80 29 64
        E 0 80 30 64
        E 0 80 34 64
        E 0 80 3a 64
        E 0 81 15 64
        E 0 81 17 64
        E 0 81 2b 64
        E 0 80 2d 64
        E 0 80 38 64
        E 0 81 20 64
        E 0 80 1e 64
        E 223 90 29 64
        E 0 90 30 64
        E 0 90 34 64
        E 0 90 3a 64
        E 0 91 15 64
        E 0 91 17 64
        E 0 91 2b 64
        E 0 90 2d 64
        E 0 90 38 64
        E 0 91 20 64
        E 0 90 1e 64
        E 0 91 1c 64
        E 535 80 29 64
        E 0 80 30 64
        E 0 80 34 64
        E 0 80 3a 64
        E 0 81 15 64
        E 0 81 17 64
        E 0 81 2b 64
        E 0 80 2d 64
        E 0 80 38 64
        E 0 81 20 64
        E 0 80 1e 64
        E 0 81 1c 64
        E 223 90 29 64
        E 0 90 30 64
        E 0 90 34 64
        E 0 90 3a 64
        E 0 91 15 64
        E 0 91 17 64
        E 0 91 2b 64
        E 0 90 2d 64
        E 0 90 38 64
        E 0 91 20 64
        E 0 90 1e 64
        E 0 91 1c 64
        E 0 90 21 64
        E 535 81 10 64
        E 0 80 1e 64
        E 44 80 29 64
        E 0 80 30 64
        E 0 80 34 64
        E 0 80 3a 64
        E 0 81 15 64
        E 0 81 17 64
        E 0 81 2b 64
        E 0 80 2d 64
        E 0 80 38 64
        E 0 81 20 64
        E 1 81 1c 64
        E 0 80 21 64
        E 222 90 29 64
        E 0 90 30 64
        E 0 90 34 64
        E 0 90 3a 64
        E 0 91 15 64
        E 0 91 17 64
        E 0 91 2b 64
        E 0 90 2d 64
        E 0 90 38 64
        E 0 91 20 64
        E 0 90 1e 64
        E 0 91 1c 64
        E 0 90 21 64
        E 535 80 29 64
        E 0 80 30 64
        E 0 80 34 64
        E 0 80 3a 64
        E 0 81 15 64
        E 0 81 17 64
        E 0 81 2b 64
        E 0 80 2d 64
        E 0 80 38 64
        E 0 81 20 64
        E 0 80 1e 64
        E 0 81 1c 64
        E 0 80 21 64
        E 223 90 29 64
        E 0 90 30 64
        E 0 90 34 64
        E 0 90 3a 64
        E 0 91 15 64
        E 0 91 17 64
        E 0 91 2b 64
        E 0 90 2d 64
        E 0 90 38 64
        E 0 91 20 64
        E 0 90 1e 64
        E 0 91 1c 64
        E 0 90 21 64
        E 535 80 29 64
        E 0 80 30 64
        E 0 80 34 64
        E 0 80 3a 64
        E 0 81 15 64
        E 0 81 17 64
        E 0 81 2b 64
        E 0 80 2d 64
        E 0 80 38 64
        E 0 81 20 64
        E 0 80 1e 64
        E 0 81 1c 64
        E 0 80 21 64
        E 223 90 29 64
        E 0 90 30 64
        E 0 90 34 64
        E 0 90 3a 64
        E 0 91 15 64
        E 0 91 17 64
        E 0 91 2b 64
        E 0 90 2d 64
        E 0 90 38 64
        E 0 91 20 64
        E 0 90 1e 64
        E 0 91 1c 64
        E 0 90 21 64
        E 535 80 29 64
        E 0 80 30 64
        E 0 80 34 64
        E 0 80 3a 64
        E 0 81 15 64
        E 0 81 17 64
        E 0 81 2b 64
        E 0 80 2d 64
        E 0 80 38 64
        E 0 81 20 64
        E 0 80 1e 64
        E 0 81 1c 64
        E 0 80 21 64
        E 223 90 29 64
        E 0 90 30 64
        E 0 90 34 64
        E 0 90 3a 64
        E 0 91 15 64
        E 0 91 17 64
        E 0 91 2b 64
        E 0 90 2d 64
        E 0 90 38 64
        E 0 91 20 64
        E 0 90 1e 64
        E 0 91 1c 64
        E 0 90 21 64
        E 535 80 29 64
        E 0 80 30 64
        E 0 80 34 64
        E 0 80 3a 64
        E 0 81 15 64
        E 0 81 17 64
        E 0 81 2b 64
        E 0 80 2d 64
        E 0 80 38 64
        E 0 81 20 64
        E 0 80 1e 64
        E 0 81 1c 64
        E 0 80 21 64
        E 267 90 29 64
        E 0 91 1e 64
        E 0 90 30 64
        E 0 90 34 64
        E 0 90 3a 64
        E 0 91 15 64
        E 0 91 17 64
        E 1 91 2b 64
        E 0 90 2d 64
        E 0 90 38 64
        E 0 91 20 64
        E 0 90 1e 64
        E 0 91 1c 64
        E 0 90 21 64
        E 534 80 29 64
        E 0 80 30 64
        E 0 80 34 64
        E 1 80 3a 64
        E 0 81 15 64
        E 0 81 17 64
        E 0 81 2b 64
        E 0 80 2d 64
        E 0 80 38 64
        E 0 81 20 64
        E 0 80 1e 64
        E 0 81 1c 64
        E 0 80 21 64
        E 222 90 29 64
        E 0 90 30 64
        E 0 90 34 64
        E 0 90 3a 64
        E 0 91 15 64
        E 0 91 17 64
        E 0 91 2b 64
        E 0 90 2d 64
        E 0 90 38 64
        E 0 91 20 64
        E 0 90 1e 64
        E 1 91 1c 64
        E 0 90 21 64
        E 490 81 1e 64
        E 0 80 29 64
        E 0 80 1e 64
        E 0 80 21 64
        E 44 80 30 64
        E 0 80 34 64
        E 0 80 3a 64
        E 0 81 15 64
        E 0 81 17 64
        E 0 81 2b 64
        E 0 80 2d 64
        E 0 80 38 64
        E 0 81 20 64
        E 1 81 1c 64
        E 222 90 29 64
        E 0 91 1d 64
        E 0 90 30 64
        E 0 90 34 64
        E 0 90 3a 64
        E 0 91 15 64
        E 0 91 17 64
        E 0 91 2b 64
        E 0 90 2d 64
        E 0 90 38 64
        E 0 91 20 64
        E 0 90 1e 64
        E 0 91 1c 64
        E 0 90 21 64
        E 0 90 20 64
        E 535 80 29 64
        E 0 80 30 64
        E 0 80 34 64
        E 0 80 3a 64
        E 0 81 15 64
        E 0 81 17 64
        E 0 81 2b 64
        E 0 80 2d 64
        E 0 80 38 64
        E 0 81 20 64
        E 0 80 1e 64
        E 0 81 1c 64
        E 0 80 21 64
        E 0 80 20 64
        E 223 90 29 64
        E 0 91 1e 64
        E 0 90 30 64
        E 0 90 34 64
        E 0 90 3a 64
        E 0 91 15 64
        E 0 91 17 64
        E 0 91 2b 64
        E 0 90 2d 64
        E 0 90 38 64
        E 0 91 20 64
        E 0 90 1e 64
        E 0 91 1c 64
        E 0 90 21 64
        E 0 90 20 64
        E 535 80 29 64
        E 0 80 30 64
        E 0 80 34 64
        E 0 80 3a 64
        E 0 81 15 64
        E 0 81 17 64
        E 0 81 2b 64
        E 0 80 2d 64
        E 0 80 38 64
        E 0 81 20 64
        E 0 80 1e 64
        E 0 81 1c 64
        E 0 80 21 64
        E 0 80 20 64
        E 268 90 29 64
        E 0 90 30 64
        E 0 90 34 64
        E 0 90 3a 64
        E 0 91 15 64
        E 0 91 17 64
        E 0 91 2b 64
        E 0 90 2d 64
        E 0 90 38 64
        E 0 91 20 64
        E 0 90 1e 64
        E 0 91 1c 64
        E 0 90 21 64
        E 0 90 20 64
        E 490 81 1d 64
        E 0 81 1e 64
        E 0 80 29 64
        E 0 80 1e 64
        E 0 80 21 64
        E 0 80 20 64
        E 45 80 30 64
        E 0 80 34 64
        E 0 80 3a 64
        E 0 81 15 64
        E 0 81 17 64
        E 0 81 2b 64
        E 0 80 2d 64
        E 0 80 38 64
        E 0 81 20 64
        E 0 81 1c 64
        E 223 90 29 64
        E 0 91 1d 64
        E 0 90 30 64
        E 0 90 34 64
        E 0 90 3a 64
        E 0 91 15 64
        E 0 91 17 64
        E 0 91 2b 64
        E 0 90 2d 64
        E 0 90 38 64
        E 0 91 20 64
        E 0 90 1e 64
        E 0 91 1c 64
        E 0 90 21 64
        E 0 90 20 64
        E 535 80 29 64
        E 0 80 30 64
        E 0 80 34 64
        E 0 80 3a 64
        E 0 81 15 64
        E 0 81 17 64
        E 0 81 2b 64
        E 0 80 2d 64
        E 0 80 38 64
        E 0 81 20 64
        E 0 80 1e 64
        E 0 81 1c 64
        E 0 80 21 64
        E 0 80 20 64
        E 222 90 29 64
        E 1 91 1e 64
        E 0 90 30 64
        E 0 90 34 64
        E 0 90 3a 64
        E 0 91 15 64
        E 0 91 17 64
        E 0 91 2b 64
        E 0 90 2d 64
        E 0 90 38 64
        E 0 91 20 64
        E 0 90 1e 64
        E 0 91 1c 64
        E 0 90 21 64
        E 0 90 20 64
        E 535 80 29 64
        E 0 80 30 64
        E 0 80 34 64
        E 0 80 3a 64
        E 0 81 15 64
        E 0 81 17 64
        E 0 81 2b 64
        E 0 80 2d 64
        E 0 80 38 64
        E 0 81 20 64
        E 0 80 1e 64
        E 0 81 1c 64
        E 0 80 21 64
        E 0 80 20 64
        E 222 90 29 64
        E 0 90 30 64
        E 0 90 34 64
        E 0 90 3a 64
        E 0 91 15 64
        E 0 91 17 64
        E 0 91 2b 64
        E 0 90 2d 64
        E 0 90 38 64
        E 1 91 20 64
        E 0 90 1e 64
        E 0 91 1c 64
        E 0 90 21 64
        E 0 90 20 64
        E 534 81 1d 64
        E 0 81 1e 64
        E 0 80 29 64
        E 0 80 30 64
        E 0 80 34 64
        E 0 80 1e 64
        E 0 80 21 64
        E 0 80 20 64
        E 1 80 3a 64
        E 0 81 15 64
        E 0 81 17 64
        E 0 81 2b 64
        E 0 80 2d 64
        E 0 80 38 64
        E 0 81 20 64
        E 0 81 1c 64
        E 222 90 29 64
        E 0 91 1d 64
        E 0 90 30 64
        E 0 90 34 64
        E 0 90 3a 64
        E 0 91 15 64
        E 0 91 17 64
        E 0 91 2b 64
        E 0 90 2d 64
        E 0 90 38 64
        E 0 91 20 64
        E 0 90 1e 64
        E 0 91 1c 64
        E 0 90 21 64
        E 0 90 20 64
        E 535 80 29 64
        E 0 80 30 64
        E 0 80 34 64
        E 0 80 3a 64
        E 0 81 15 64
        E 0 81 17 64
        E 0 81 2b 64
        E 0 80 2d 64
        E 0 80 38 64
        E 0 81 20 64
        E 0 80 1e 64
        E 0 81 1c 64
        E 0 80 21 64
        E 0 80 20 64
        E 268 90 29 64
        E 0 91 1e 64
        E 0 90 30 64
        E 0 90 34 64
        E 0 90 3a 64
        E 0 91 15 64
        E 0 91 17 64
        E 0 91 2b 64
        E 0 90 2d 64
        E 0 90 38 64
        E 0 91 20 64
        E 0 90 1e 64
        E 0 91 1c 64
        E 0 90 21 64
        E 0 90 20 64
        E 535 80 29 64
        E 0 80 30 64
        E 0 80 34 64
        E 0 80 3a 64
        E 0 81 15 64
        E 0 81 17 64
        E 0 81 2b 64
        E 0 80 2d 64
        E 0 80 38 64
        E 0 81 20 64
        E 0 80 1e 64
        E 0 81 1c 64
        E 0 80 21 64
        E 0 80 20 64
        E 223 90 29 64
        E 0 90 30 64
        E 0 90 34 64
        E 0 90 3a 64
        E 0 91 15 64
        E 0 91 17 64
        E 0 91 2b 64
        E 0 90 2d 64
        E 0 90 38 64
        E 0 91 20 64
        E 0 90 1e 64
        E 0 91 1c 64
        E 0 90 21 64
        E 0 90 20 64
        E 0 91 1b 64
        E 535 80 29 64
        E 0 80 30 64
        E 0 80 34 64
        E 0 80 3a 64
        E 0 81 15 64
        E 0 81 17 64
        E 0 81 2b 64
        E 0 80 2d 64
        E 0 80 38 64
        E 0 81 20 64
        E 0 80 1e 64
        E 0 81 1c 64
        E 0 80 21 64
        E 0 80 20 64
        E 0 81 1b 64
        E 223 90 29 64
        E 0 91 1d 64
        E 0 90 30 64
        E 0 90 34 64
        E 0 90 3a 64
        E 0 91 15 64
        E 0 91 17 64
        E 0 91 2b 64
        E 0 90 2d 64
        E 0 90 38 64
        E 0 91 20 64
        E 0 90 1e 64
        E 0 91 1c 64
        E 0 90 21 64
        E 0 90 20 64
        E 0 91 1b 64
        E 0 90 25 64
        E 535 80 29 64
        E 0 80 30 64
        E 0 80 34 64
        E 0 80 3a 64
        E 0 81 15 64
        E 0 81 17 64
        E 0 81 2b 64
        E 0 80 2d 64
        E 0 80 38 64
        E 0 81 20 64
        E 0 80 1e 64
        E 0 81 1c 64
        E 0 80 21 64
        E 0 80 20 64
        E 0 81 1b 64
        E 0 80 25 64
        E 223 90 29 64
        E 0 90 30 64
        E 0 90 34 64
        E 0 90 3a 64
        E 0 91 15 64
        E 0 91 17 64
        E 0 91 2b 64
        E 0 90 2d 64
        E 0 90 38 64
        E 0 91 20 64
        E 0 90 1e 64
        E 0 91 1c 64
        E 0 90 21 64
        E 0 90 20 64
        E 0 91 1b 64
        E 0 90 25 64
        E 534 81 1d 64
        E 0 80 29 64
        E 0 80 30 64
        E 0 80 34 64
        E 0 80 3a 64
        E 0 81 15 64
        E 0 81 17 64
        E 0 81 2b 64
        E 0 80 2d 64
        E 1 80 38 64
        E 0 81 20 64
        E 0 80 1e 64
        E 0 81 1c 64
        E 0 80 21 64
        E 0 80 20 64
        E 0 81 1b 64
        E 0 80 25 64
        E 267 90 29 64
        E 0 90 29 64
        E 0 91 1a 64
        E 0 90 30 64
        E 0 90 34 64
        E 0 90 3a 64
        E 0 91 15 64
        E 0 91 17 64
        E 0 91 2b 64
        E 0 90 2d 64
        E 0 90 38 64
        E 0 91 20 64
        E 0 90 1e 64
        E 0 91 1c 64
        E 0 90 21 64
        E 0 90 20 64
        E 0 91 1b 64
        E 0 90 25 64
        E 490 81 1e 64
        E 0 81 1d 64
        E 0 80 29 64
        E 0 81 1a 64
        E 0 80 1e 64
        E 0 80 21 64
        E 0 80 20 64
        E 45 80 29 64
        E 0 80 30 64
        E 0 80 34 64
        E 0 80 3a 64
        E 0 81 15 64
        E 0 81 17 64
        E 0 81 2b 64
        E 0 80 2d 64
        E 0 80 38 64
        E 0 81 20 64
        E 0 81 1c 64
        E 0 81 1b 64
        E 0 80 25 64
        E 223 90 29 64
        E 0 90 30 64
        E 0 90 34 64
        E 0 90 3a 64
        E 0 91 15 64
        E 0 91 17 64
        E 0 91 2b 64
        E 0 90 2d 64
        E 0 90 38 64
        E 0 91 20 64
        E 0 90 1e 64
        E 0 91 1c 64
        E 0 90 21 64
        E 0 90 20 64
        E 0 91 1b 64
        E 0 90 25 64
        E 535 80 29 64
        E 0 80 30 64
        E 0 80 34 64
        E 0 80 3a 64
        E 0 81 15 64
        E 0 81 17 64
        E 0 81 2b 64
        E 0 80 2d 64
        E 0 80 38 64
        E 0 81 20 64
        E 0 80 1e 64
        E 0 81 1c 64
        E 0 80 21 64
        E 0 80 20 64
        E 0 81 1b 64
        E 0 80 25 64
        E 223 90 29 64
        E 0 90 30 64
        E 0 90 34 64
        E 0 90 3a 64
        E 0 91 15 64
        E 0 91 17 64
        E 0 91 2b 64
        E 0 90 2d 64
        E 0 90 38 64
        E 0 91 20 64
        E 0 90 1e 64
        E 0 91 1c 64
        E 0 90 21 64
        E 0 90 20 64
        E 0 91 1b 64
        E 0 90 25 64
        E 490 80 29 64
        E 0 80 1e 64
        E 0 80 21 64
        E 0 80 20 64
        E 45 80 30 64
        E 0 80 34 64
        E 0 80 3a 64
        E 0 81 15 64
        E 0 81 17 64
        E 0 81 2b 64
        E 0 80 2d 64
        E 0 80 38 64
        E 0 81 20 64
        E 0 81 1c 64
        E 0 81 1b 64
        E 0 80 25 64
        E 223 90 29 64
        E 0 91 1d 64
        E 0 90 30 64
        E 0 90 34 64
        E 0 90 3a 64
        E 0 91 15 64
        E 0 91 17 64
        E 0 91 2b 64
        E 0 90 2d 64
        E 0 90 38 64
        E 0 91 20 64
        E 0 90 1e 64
        E 0 91 1c 64
        E 0 90 21 64
        E 0 90 20 64
        E 0 91 1b 64
        E 0 90 25 64
        E 535 80 29 64
        E 0 80 30 64
        E 0 80 34 64
        E 0 80 3a 64
        E 0 81 15 64
        E 0 81 17 64
        E 0 81 2b 64
        E 0 80 2d 64
        E 0 80 38 64
        E 0 81 20 64
        E 0 80 1e 64
        E 0 81 1c 64
        E 0 80 21 64
        E 0 80 20 64
        E 0 81 1b 64
        E 0 80 25 64
        E 222 90 29 64
        E 0 90 30 64
        E 0 90 34 64
        E 0 90 3a 64
        E 1 91 15 64
        E 0 91 17 64
        E 0 91 2b 64
        E 0 90 2d 64
        E 0 90 38 64
        E 0 91 20 64
        E 0 90 1e 64
        E 0 91 1c 64
        E 0 90 21 64
        E 0 90 20 64
        E 0 91 1b 64
        E 0 90 25 64
        E 0 90 27 64
        E 579 80 29 64
        E 0 80 30 64
        E 0 80 34 64
        E 0 80 3a 64
        E 0 81 15 64
        E 0 81 17 64
        E 0 81 2b 64
        E 0 80 2d 64
        E 0 80 38 64
        E 0 81 20 64
        E 0 80 1e 64
        E 0 81 1c 64
        E 0 80 21 64
        E 0 80 20 64
        E 0 81 1b 64
        E 0 80 25 64
        E 0 80 27 64
        E 223 90 29 64
        E 0 90 30 64
        E 0 90 34 64
        E 0 90 3a 64
        E 0 91 15 64
        E 0 91 17 64
        E 0 91 2b 64
        E 0 90 2d 64
        E 0 90 38 64
        E 0 91 20 64
        E 0 90 1e 64
        E 0 91 1c 64
        E 0 90 21 64
        E 0 90 20 64
        E 0 91 1b 64
        E 0 90 25 64
        E 0 90 27 64
        E 535 80 29 64
        E 0 80 30 64
        E 0 80 34 64
        E 0 80 3a 64
        E 0 81 15 64
        E 0 81 17 64
        E 0 81 2b 64
        E 0 80 2d 64
        E 0 80 38 64
        E 0 81 20 64
        E 0 80 1e 64
        E 0 81 1c 64
        E 0 80 21 64
        E 0 80 20 64
        E 0 81 1b 64
        E 0 80 25 64
        E 0 80 27 64
        E 223 90 29 64
        E 0 91 1e 64
        E 0 90 30 64
        E 0 90 34 64
        E 0 90 3a 64
        E 0 91 15 64
        E 0 91 17 64
        E 0 91 2b 64
        E 0 90 2d 64
        E 0 90 38 64
        E 0 91 20 64
        E 0 90 1e 64
        E 0 91 1c 64
        E 0 90 21 64
        E 0 90 20 64
        E 0 91 1b 64
        E 0 90 25 64
        E 0 90 27 64
        E 535 80 29 64
        E 0 80 30 64
        E 0 80 34 64
        E 0 80 3a 64
        E 0 81 15 64
        E 0 81 17 64
        E 0 81 2b 64
        E 0 80 2d 64
        E 0 80 38 64
        E 0 81 20 64
        E 0 80 1e 64
        E 0 81 1c 64
        E 0 80 21 64
        E 0 80 20 64
        E 0 81 1b 64
        E 0 80 25 64
        E 0 80 27 64
        E 223 90 29 64
        E 0 90 30 64
        E 0 90 34 64
        E 0 90 3a 64
        E 0 91 15 64
        E 0 91 17 64
        E 0 91 2b 64
        E 0 90 2d 64
        E 0 90 38 64
        E 0 91 20 64
        E 0 90 1e 64
        E 0 91 1c 64
        E 0 90 21 64
        E 0 90 20 64
        E 0 91 1b 64
        E 0 90 25 64
        E 0 90 27 64
        E 490 81 1d 64
        E 0 81 1e 64
        E 0 80 29 64
        E 45 80 30 64
        E 0 80 34 64
        E 0 80 3a 64
        E 0 81 15 64
        E 0 81 17 64
        E 0 81 2b 64
        E 0 80 2d 64
        E 0 80 38 64
        E 0 81 20 64
        E 0 80 1e 64
        E 0 81 1c 64
        E 0 80 21 64
        E 0 80 20 64
        E 0 81 1b 64
        E 0 80 25 64
        E 0 80 27 64
        E 223 90 29 64
        E 0 91 1d 64
        E 0 90 30 64
        E 0 90 34 64
        E 0 90 3a 64
        E 0 91 15 64
        E 0 91 17 64
        E 0 91 2b 64
        E 0 90 2d 64
        E 0 90 38 64
        E 0 91 20 64
        E 0 90 1e 64
        E 0 91 1c 64
        E 0 90 21 64
        E 0 90 20 64
        E 0 91 1b 64
        E 0 90 25 64
        E 0 90 27 64
        E 535 80 29 64
        E 0 80 30 64
        E 0 80 34 64
        E 0 80 3a 64
        E 0 81 15 64
        E 0 81 17 64
        E 0 81 2b 64
        E 0 80 2d 64
        E 0 80 38 64
        E 0 81 20 64
        E 0 80 1e 64
        E 0 81 1c 64
        E 0 80 21 64
        E 0 80 20 64
        E 0 81 1b 64
        E 0 80 25 64
        E 0 80 27 64
        E 267 90 29 64
        E 0 90 30 64
        E 0 90 34 64
        E 0 90 3a 64
        E 0 91 15 64
        E 0 91 17 64
        E 0 91 2b 64
        E 0 90 2d 64
        E 0 90 38 64
        E 0 91 20 64
        E 0 90 1e 64
        E 0 91 1c 64
        E 0 90 21 64
        E 0 90 20 64
        E 0 91 1b 64
        E 0 90 25 64
        E 0 90 27 64
        E 0 90 28 64
        E 535 80 29 64
        E 0 80 30 64
        E 0 80 34 64
        E 0 80 3a 64
        E 0 81 15 64
        E 0 81 17 64
        E 0 81 2b 64
        E 0 80 2d 64
        E 0 80 38 64
        E 0 81 20 64
        E 0 80 1e 64
        E 0 81 1c 64
        E 0 80 21 64
        E 0 80 20 64
        E 0 81 1b 64
        E 0 80 25 64
        E 0 80 27 64
        E 0 80 28 64
        E 223 90 29 64
        E 0 90 30 64
        E 0 90 34 64
        E 0 90 3a 64
        E 0 91 15 64
        E 0 91 17 64
        E 0 91 2b 64
        E 0 90 2d 64
        E 0 90 38 64
        E 0 91 20 64
        E 0 90 1e 64
        E 0 91 1c 64
        E 0 90 21 64
        E 0 90 20 64
        E 0 91 1b 64
        E 0 90 25 64
        E 0 90 27 64
        E 0 90 28 64
        E 0 90 36 64
        E 535 80 29 64
        E 0 80 30 64
        E 0 80 34 64
        E 0 80 3a 64
        E 0 81 15 64
        E 0 81 17 64
        E 0 81 2b 64
        E 0 80 2d 64
        E 0 80 38 64
        E 0 81 20 64
        E 0 80 1e 64
        E 0 81 1c 64
        E 0 80 21 64
        E 0 80 20 64
        E 0 81 1b 64
        E 0 80 25 64
        E 0 80 27 64
        E 0 80 28 64
        E 0 80 36 64
        E 223 90 29 64
        E 0 91 1e 64
        E 0 90 30 64
        E 0 90 34 64
        E 0 90 3a 64
        E 0 91 15 64
        E 0 91 17 64
        E 0 91 2b 64
        E 0 90 2d 64
        E 0 90 38 64
        E 0 91 20 64
        E 0 90 1e 64
        E 0 91 1c 64
        E 0 90 21 64
        E 0 90 20 64
        E 0 91 1b 64
        E 0 90 25 64
        E 0 90 27 64
        E 0 90 28 64
        E 0 90 36 64
        E 535 80 29 64
        E 0 80 30 64
        E 0 80 34 64
        E 0 80 3a 64
        E 0 81 15 64
        E 0 81 17 64
        E 0 81 2b 64
        E 0 80 2d 64
        E 0 80 38 64
        E 0 81 20 64
        E 0 80 1e 64
        E 0 81 1c 64
        E 0 80 21 64
        E 0 80 20 64
        E 0 81 1b 64
        E 0 80 25 64
        E 0 80 27 64
        E 0 80 28 64
        E 0 80 36 64
        E 223 90 29 64
        E 0 90 30 64
        E 0 90 34 64
        E 0 90 3a 64
        E 0 91 15 64
        E 0 91 17 64
        E 0 91 2b 64
        E 0 90 2d 64
        E 0 90 38 64
        E 0 91 20 64
        E 0 90 1e 64
        E 0 91 1c 64
        E 0 90 21 64
        E 0 90 20 64
        E 0 91 1b 64
        E 0 90 25 64
        E 0 90 27 64
        E 0 90 28 64
        E 0 90 36 64
        E 535 81 1d 64
        E 0 81 1e 64
        E 0 80 29 64
        E 0 80 30 64
        E 0 80 34 64
        E 0 80 3a 64
        E 0 81 15 64
        E 0 81 17 64
        E 0 81 2b 64
        E 0 80 2d 64
        E 0 80 38 64
        E 0 81 20 64
        E 0 80 1e 64
        E 0 81 1c 64
        E 0 80 21 64
        E 0 80 20 64
        E 0 81 1b 64
        E 0 80 25 64
        E 0 80 27 64
        E 0 80 28 64
        E 0 80 36 64
        E 223 90 29 64
        E 0 91 1d 64
        E 0 90 30 64
        E 0 90 34 64
        E 0 90 3a 64
        E 0 91 15 64
        E 0 91 17 64
        E 0 91 2b 64
        E 0 90 2d 64
        E 0 90 38 64
        E 0 91 20 64
        E 0 90 1e 64
        E 0 91 1c 64
        E 44 90 21 64
        E 0 90 20 64
        E 0 91 1b 64
        E 0 90 25 64
        E 0 90 27 64
        E 0 90 28 64
        E 0 90 36 64
        E 0 91 27 64
        E 535 80 29 64
        E 0 80 30 64
        E 0 80 34 64
        E 0 80 3a 64
        E 0 81 15 64
        E 0 81 17 64
        E 0 81 2b 64
        E 0 80 2d 64
        E 0 80 38 64
        E 0 81 20 64
        E 0 80 1e 64
        E 0 81 1c 64
        E 0 80 21 64
        E 0 80 20 64
        E 0 81 1b 64
        E 0 80 25 64
        E 0 80 27 64
        E 0 80 28 64
        E 0 80 36 64
        E 0 81 27 64
        E 223 90 29 64
        E 0 90 30 64
        E 0 90 34 64
        E 0 90 3a 64
        E 0 91 15 64
        E 0 91 17 64
        E 0 91 2b 64
        E 0 90 2d 64
        E 0 90 38 64
        E 0 91 20 64
        E 0 90 1e 64
        E 0 91 1c 64
        E 0 90 21 64
        E 0 90 20 64
        E 0 91 1b 64
        E 0 90 25 64
        E 0 90 27 64
        E 0 90 28 64
        E 0 90 36 64
        E 0 91 27 64
        E 535 80 29 64
        E 0 80 30 64
        E 0 80 34 64
        E 0 80 3a 64
        E 0 81 15 64
        E 0 81 17 64
        E 0 81 2b 64
        E 0 80 2d 64
        E 0 80 38 64
        E 0 81 20 64
        E 0 80 1e 64
        E 0 81 1c 64
        E 0 80 21 64
        E 0 80 20 64
        E 0 81 1b 64
        E 0 80 25 64
        E 0 80 27 64
        E 0 80 28 64
        E 0 80 36 64
        E 0 81 27 64
        E 223 90 29 64
        E 0 90 30 64
        E 0 90 34 64
        E 0 90 3a 64
        E 0 91 15 64
        E 0 91 17 64
        E 0 91 2b 64
        E 0 90 2d 64
        E 0 90 38 64
        E 0 91 20 64
        E 0 90 1e 64
        E 0 91 1c 64
        E 0 90 21 64
        E 0 90 20 64
        E 0 91 1b 64
        E 0 90 25 64
        E 0 90 27 64
        E 0 90 28 64
        E 0 90 36 64
        E 0 91 27 64
        E 535 80 29 64
        E 0 80 30 64
        E 0 80 34 64
        E 0 80 3a 64
        E 0 81 15 64
        E 0 81 17 64
        E 0 81 2b 64
        E 0 80 2d 64
        E 0 80 38 64
        E 0 81 20 64
        E 0 80 1e 64
        E 0 81 1c 64
        E 0 80 21 64
        E 0 80 20 64
        E 0 81 1b 64
        E 0 80 25 64
        E 0 80 27 64
        E 0 80 28 64
        E 0 80 36 64
        E 0 81 27 64
        E 223 90 29 64
        E 0 91 1e 64
        E 0 90 30 64
        E 0 90 34 64
        E 0 90 3a 64
        E 0 91 15 64
        E 0 91 17 64
        E 0 91 2b 64
        E 0 90 2d 64
        E 0 90 38 64
        E 0 91 20 64
        E 0 90 1e 64
        E 0 91 1c 64
        E 0 90 21 64
        E 0 90 20 64
        E 0 91 1b 64
        E 0 90 25 64
        E 0 90 27 64
        E 0 90 28 64
        E 0 90 36 64
        E 0 91 27 64
        E 535 80 29 64
        E 0 80 30 64
        E 0 80 34 64
        E 0 80 3a 64
        E 0 81 15 64
        E 0 81 17 64
        E 0 81 2b 64
        E 0 80 2d 64
        E 0 80 38 64
        E 0 81 20 64
        E 0 80 1e 64
        E 0 81 1c 64
        E 0 80 21 64
        E 0 80 20 64
        E 0 81 1b 64
        E 0 80 25 64
        E 0 80 27 64
        E 0 80 28 64
        E 0 80 36 64
        E 0 81 27 64
        E 223 90 29 64
        E 0 90 30 64
        E 0 90 34 64
        E 0 90 3a 64
        E 0 91 15 64
        E 0 91 17 64
        E 0 91 2b 64
        E 0 90 2d 64
        E 0 90 38 64
        E 0 91 20 64
        E 0 90 1e 64
        E 0 91 1c 64
        E 0 90 21 64
        E 0 90 20 64
        E 0 91 1b 64
        E 0 90 25 64
        E 0 90 27 64
        E 0 90 28 64
        E 0 90 36 64
        E 0 91 27 64
        E 535 81 1d 64
        E 0 81 1e 64
        E 0 80 29 64
        E 0 80 30 64
        E 0 80 34 64
        E 0 80 3a 64
        E 0 81 15 64
        E 0 81 17 64
        E 0 81 2b 64
        E 0 80 2d 64
        E 0 80 38 64
        E 0 81 20 64
        E 0 80 1e 64
        E 0 81 1c 64
        E 0 80 21 64
        E 0 80 20 64
        E 0 81 1b 64
        E 0 80 25 64
        E 0 80 27 64
        E 0 80 28 64
        E 0 80 36 64
        E 0 81 27 64
        E 267 90 29 64
        E 0 91 1d 64
        E 0 90 30 64
        E 0 90 34 64
        E 0 90 3a 64
        E 0 91 15 64
        E 1 91 17 64
        E 0 91 2b 64
        E 0 90 2d 64
        E 0 90 38 64
        E 0 91 20 64
        E 0 90 1e 64
        E 0 91 1c 64
        E 0 90 21 64
        E 0 90 20 64
        E 0 91 1b 64
        E 0 90 25 64
        E 0 90 27 64
        E 0 90 28 64
        E 0 90 36 64
        E 0 91 27 64
        E 534 80 29 64
        E 0 80 30 64
        E 0 80 34 64
        E 0 80 3a 64
        E 0 81 15 64
        E 0 81 17 64
        E 0 81 2b 64
        E 0 80 2d 64
        E 0 80 38 64
        E 0 81 20 64
        E 0 80 1e 64
        E 0 81 1c 64
        E 0 80 21 64
        E 0 80 20 64
        E 0 81 1b 64
        E 0 80 25 64
        E 1 80 27 64
        E 0 80 28 64
        E 0 80 36 64
        E 0 81 27 64
        E 222 90 29 64
        E 0 90 30 64
        E 0 90 34 64
        E 0 90 3a 64
        E 0 91 15 64
        E 0 91 17 64
        E 0 91 2b 64
        E 0 90 2d 64
        E 0 90 38 64
        E 0 91 20 64
        E 0 90 1e 64
        E 0 91 1c 64
        E 0 90 21 64
        E 0 90 20 64
        E 0 91 1b 64
        E 0 90 25 64
        E 0 90 27 64
        E 1 90 28 64
        E 0 90 36 64
        E 0 91 27 64
        E 534 80 29 64
        E 0 80 30 64
        E 0 80 34 64
        E 0 80 3a 64
        E 0 81 15 64
        E 0 81 17 64
        E 0 81 2b 64
        E 0 80 2d 64
        E 0 80 38 64
        E 0 81 20 64
        E 0 80 1e 64
        E 0 81 1c 64
        E 0 80 21 64
        E 0 80 20 64
        E 0 81 1b 64
        E 0 80 25 64
        E 0 80 27 64
        E 0 80 28 64
        E 0 80 36 64
        E 0 81 27 64
        E 223 90 29 64
        E 0 90 30 64
        E 0 90 34 64
        E 0 90 3a 64
        E 0 91 15 64
        E 0 91 17 64
        E 0 91 2b 64
        E 0 90 2d 64
        E 0 90 38 64
        E 0 91 20 64
        E 0 90 1e 64
        E 0 91 1c 64
        E 0 90 21 64
        E 0 90 20 64
        E 0 91 1b 64
        E 0 90 25 64
        E 0 90 27 64
        E 0 90 28 64
        E 0 90 36 64
        E 0 91 27 64
        E 535 80 29 64
        E 0 80 30 64
        E 0 80 34 64
        E 0 80 3a 64
        E 0 81 15 64
        E 0 81 17 64
        E 0 81 2b 64
        E 0 80 2d 64
        E 0 80 38 64
        E 0 81 20 64
        E 0 80 1e 64
        E 0 81 1c 64
        E 0 80 21 64
        E 0 80 20 64
        E 0 81 1b 64
        E 0 80 25 64
        E 0 80 27 64
        E 0 80 28 64
        E 0 80 36 64
        E 0 81 27 64
        E 223 90 29 64
        E 0 91 1e 64
        E 0 90 30 64
        E 0 90 34 64
        E 0 90 3a 64
        E 0 91 15 64
        E 0 91 17 64
        E 0 91 2b 64
        E 0 90 2d 64
        E 0 90 38 64
        E 0 91 20 64
        E 0 90 1e 64
        E 0 91 1c 64
        E 0 90 21 64
        E 0 90 20 64
        E 0 91 1b 64
        E 0 90 25 64
        E 0 90 27 64
        E 0 90 28 64
        E 0 90 36 64
        E 0 91 27 64
        E 535 80 29 64
        E 0 80 30 64
        E 0 80 34 64
        E 0 80 3a 64
        E 0 81 15 64
        E 0 81 17 64
        E 0 81 2b 64
        E 0 80 2d 64
        E 0 80 38 64
        E 0 81 20 64
        E 0 80 1e 64
        E 0 81 1c 64
        E 0 80 21 64
        E 0 80 20 64
        E 0 81 1b 64
        E 0 80 25 64
        E 0 80 27 64
        E 0 80 28 64
        E 0 80 36 64
        E 0 81 27 64
        E 268 90 29 64
        E 0 90 30 64
        E 0 90 34 64
        E 0 90 3a 64
        E 0 91 15 64
        E 0 91 17 64
        E 0 91 2b 64
        E 0 90 2d 64
        E 0 90 38 64
        E 0 91 20 64
        E 0 90 1e 64
        E 0 91 1c 64
        E 0 90 21 64
        E 0 90 20 64
        E 0 91 1b 64
        E 0 90 25 64
        E 0 90 27 64
        E 0 90 28 64
        E 0 90 36 64
        E 0 91 27 64
        E 535 80 29 64
        E 0 80 30 64
        E 0 80 34 64
        E 0 80 3a 64
        E 0 81 15 64
        E 0 81 17 64
        E 0 81 2b 64
        E 0 80 2d 64
        E 0 80 38 64
        E 0 81 20 64
        E 0 80 1e 64
        E 0 81 1c 64
        E 0 80 21 64
        E 0 80 20 64
        E 0 81 1b 64
        E 0 80 25 64
        E 0 80 27 64
        E 0 80 28 64
        E 0 80 36 64
        E 0 81 27 64
        E 223 90 29 64
        E 0 91 1d 64
        E 0 90 30 64
        E 0 90 34 64
        E 0 90 3a 64
        E 0 91 15 64
        E 0 91 17 64
        E 0 91 2b 64
        E 0 90 2d 64
        E 0 90 38 64
        E 0 91 20 64
        E 0 90 1e 64
        E 0 91 1c 64
        E 0 90 21 64
        E 0 90 20 64
        E 0 91 1b 64
        E 0 90 25 64
        E 0 90 27 64
        E 0 90 28 64
        E 0 90 36 64
        E 0 91 27 64
        E 535 80 29 64
        E 0 80 30 64
        E 0 80 34 64
        E 0 80 3a 64
        E 0 81 15 64
        E 0 81 17 64
        E 0 81 2b 64
        E 0 80 2d 64
        E 0 80 38 64
        E 0 81 20 64
        E 0 80 1e 64
        E 0 81 1c 64
        E 0 80 21 64
        E 0 80 20 64
        E 0 81 1b 64
        E 0 80 25 64
        E 0 80 27 64
        E 0 80 28 64
        E 0 80 36 64
        E 0 81 27 64
        E 222 90 29 64
        E 0 90 30 64
        E 0 90 34 64
        E 0 90 3a 64
        E 0 91 15 64
        E 0 91 17 64
        E 0 91 2b 64
        E 0 90 2d 64
        E 1 90 38 64
        E 0 91 20 64
        E 0 90 1e 64
        E 0 91 1c 64
        E 0 90 21 64
        E 0 90 20 64
        E 0 91 1b 64
        E 0 90 25 64
        E 0 90 27 64
        E 0 90 28 64
        E 0 90 36 64
        E 0 91 27 64
        E 0 90 2a 64
        E 490 81 1d 64
        E 44 80 29 64
        E 0 80 30 64
        E 0 80 34 64
        E 0 80 3a 64
        E 0 81 15 64
        E 0 81 17 64
        E 0 81 2b 64
        E 0 80 2d 64
        E 0 80 38 64
        E 0 81 20 64
        E 0 80 1e 64
        E 0 81 1c 64
        E 0 80 21 64
        E 0 80 20 64
        E 0 81 1b 64
        E 0 80 25 64
        E 1 80 27 64
        E 0 80 28 64
        E 0 80 36 64
        E 0 81 27 64
        E 0 80 2a 64
        E 222 90 29 64
        E 0 90 29 64
        E 0 91 1a 64
        E 0 90 30 64
        E 0 90 34 64
        E 0 90 3a 64
        E 0 91 15 64
        E 0 91 17 64
        E 0 91 2b 64
        E 0 90 2d 64
        E 0 90 38 64
        E 0 91 20 64
        E 0 90 1e 64
        E 0 91 1c 64
        E 0 90 21 64
        E 0 90 20 64
        E 0 91 1b 64
        E 0 90 25 64
        E 0 90 27 64
        E 0 90 28 64
        E 0 90 36 64
        E 0 91 27 64
        E 0 90 2a 64
        E 0 91 2e 64
        E 535 80 29 64
        E 0 80 30 64
        E 0 80 34 64
        E 0 80 3a 64
        E 0 81 15 64
        E 0 81 17 64
        E 0 81 2b 64
        E 0 80 2d 64
        E 0 80 38 64
        E 0 81 20 64
        E 0 80 1e 64
        E 0 81 1c 64
        E 0 80 21 64
        E 0 80 20 64
        E 0 81 1b 64
        E 0 80 25 64
        E 0 80 27 64
        E 0 80 28 64
        E 0 80 36 64
        E 1 81 27 64
        E 0 80 2a 64
        E 0 81 2e 64
        E 222 90 29 64
        E 0 90 30 64
        E 0 90 34 64
        E 0 90 3a 64
        E 0 91 15 64
        E 0 91 17 64
        E 0 91 2b 64
        E 0 90 2d 64
        E 0 90 38 64
        E 0 91 20 64
        E 0 90 1e 64
        E 0 91 1c 64
        E 0 90 21 64
        E 0 90 20 64
        E 0 91 1b 64
        E 0 90 25 64
        E 0 90 27 64
        E 0 90 28 64
        E 0 90 36 64
        E 0 91 27 64
        E 0 90 2a 64
        E 0 91 2e 64
        E 0 91 21 64
        E 535 80 29 64
        E 0 80 30 64
        E 0 80 34 64
        E 0 80 3a 64
        E 0 81 15 64
        E 0 81 17 64
        E 0 81 2b 64
        E 0 80 2d 64
        E 45 80 38 64
        E 0 81 20 64
        E 0 80 1e 64
        E 0 81 1c 64
        E 0 80 21 64
        E 0 80 20 64
        E 0 81 1b 64
        E 0 80 25 64
        E 0 80 27 64
        E 0 80 28 64
        E 0 80 36 64
        E 0 81 27 64
        E 0 80 2a 64
        E 0 81 2e 64
        E 0 81 21 64
        E 223 90 29 64
        E 0 90 30 64
        E 0 90 34 64
        E 0 90 3a 64
        E 0 91 15 64
        E 0 91 17 64
        E 0 91 2b 64
        E 0 90 2d 64
        E 0 90 38 64
        E 0 91 20 64
        E 0 90 1e 64
        E 0 91 1c 64
        E 0 90 21 64
        E 0 90 20 64
        E 0 91 1b 64
        E 0 90 25 64
        E 0 90 27 64
        E 0 90 28 64
        E 0 90 36 64
        E 0 91 27 64
        E 0 90 2a 64
        E 0 91 2e 64
        E 0 91 21 64
        E 535 80 29 64
        E 0 80 30 64
        E 0 80 34 64
        E 0 80 3a 64
        E 0 81 15 64
        E 0 81 17 64
        E 0 81 2b 64
        E 0 80 2d 64
        E 0 80 38 64
        E 0 81 20 64
        E 0 80 1e 64
        E 0 81 1c 64
        E 0 80 21 64
        E 0 80 20 64
        E 0 81 1b 64
        E 0 80 25 64
        E 0 80 27 64
        E 0 80 28 64
        E 0 80 36 64
        E 0 81 27 64
        E 0 80 2a 64
        E 0 81 2e 64
        E 0 81 21 64
        E 178 81 1a 64
        E 0 80 29 64
        E 45 90 29 64
        E 0 90 30 64
        E 0 90 34 64
        E 0 90 3a 64
        E 0 91 15 64
        E 0 91 17 64
        E 0 91 2b 64
        E 0 90 2d 64
        E 0 90 38 64
        E 0 91 20 64
        E 0 90 1e 64
        E 0 91 1c 64
        E 0 90 21 64
        E 0 90 20 64
        E 0 91 1b 64
        E 0 90 25 64
        E 0 90 27 64
        E 0 90 28 64
        E 0 90 36 64
        E 0 91 27 64
        E 0 90 2a 64
        E 0 91 2e 64
        E 0 91 21 64
        E 0 90 32 64
        E 178 80 29 64
        E 0 80 30 64
        E 0 80 34 64
        E 0 80 3a 64
        E 0 81 15 64
        E 0 81 17 64
        E 0 81 2b 64
        E 0 80 2d 64
        E 0 80 38 64
        E 0 81 20 64
        E 0 80 1e 64
        E 0 81 1c 64
        E 0 80 21 64
        E 0 80 20 64
        E 0 81 1b 64
        E 0 80 25 64
        E 0 80 27 64
        E 0 80 28 64
        E 0 80 36 64
        E 0 81 27 64
        E 0 80 2a 64
        E 0 81 2e 64
        E 0 81 21 64
        E 0 80 32 64
        E 45 90 29 64
        E 0 90 24 64
        E 0 90 30 64
        E 0 90 34 64
        E 0 90 3a 64
        E 0 91 15 64
        E 0 91 17 64
        E 0 91 2b 64
        E 0 90 2d 64
        E 0 90 38 64
        E 0 91 20 64
        E 0 90 1e 64
        E 0 91 1c 64
        E 0 90 21 64
        E 0 90 20 64
        E 0 91 1b 64
        E 0 90 25 64
        E 0 90 27 64
        E 0 90 28 64
        E 0 90 36 64
        E 0 91 27 64
        E 0 90 2a 64
        E 0 91 2e 64
        E 0 91 21 64
        E 0 90 32 64
        E 178 80 29 64
        E 0 80 30 64
        E 0 80 34 64
        E 0 80 3a 64
        E 0 81 15 64
        E 0 81 17 64
        E 0 81 2b 64
        E 0 80 2d 64
        E 0 80 38 64
        E 0 81 20 64
        E 0 80 1e 64
        E 0 81 1c 64
        E 0 80 21 64
        E 0 80 20 64
        E 0 81 1b 64
        E 0 80 25 64
        E 0 80 27 64
        E 0 80 28 64
        E 0 80 36 64
        E 0 81 27 64
        E 0 80 2a 64
        E 0 81 2e 64
        E 0 81 21 64
        E 0 80 32 64
        E 89 90 29 64
        E 0 90 30 64
        E 0 90 34 64
        E 0 90 3a 64
        E 0 91 15 64
        E 0 91 17 64
        E 0 91 2b 64
        E 0 90 2d 64
        E 0 90 38 64
        E 0 91 20 64
        E 0 90 1e 64
        E 0 91 1c 64
        E 0 90 21 64
        E 0 90 20 64
        E 0 91 1b 64
        E 0 90 25 64
        E 0 90 27 64
        E 0 90 28 64
        E 0 90 36 64
        E 0 91 27 64
        E 0 90 2a 64
        E 0 91 2e 64
        E 0 91 21 64
        E 0 90 32 64
        E 535 80 29 64
        E 0 80 30 64
        E 0 80 34 64
        E 0 80 3a 64
        E 0 81 15 64
        E 0 81 17 64
        E 0 81 2b 64
        E 0 80 2d 64
        E 0 80 38 64
        E 0 81 20 64
        E 0 80 1e 64
        E 0 81 1c 64
        E 0 80 21 64
        E 0 80 20 64
        E 0 81 1b 64
        E 0 80 25 64
        E 0 80 27 64
        E 0 80 28 64
        E 0 80 36 64
        E 0 81 27 64
        E 0 80 2a 64
        E 0 81 2e 64
        E 0 81 21 64
        E 0 80 32 64
        E 223 90 29 64
        E 0 90 21 64
        E 0 90 30 64
        E 0 90 34 64
        E 0 90 3a 64
        E 0 91 15 64
        E 0 91 17 64
        E 0 91 2b 64
        E 0 90 2d 64
        E 0 90 38 64
        E 0 91 20 64
        E 0 90 1e 64
        E 0 91 1c 64
        E 0 90 21 64
        E 0 90 20 64
        E 0 91 1b 64
        E 0 90 25 64
        E 0 90 27 64
        E 0 90 28 64
        E 0 90 36 64
        E 0 91 27 64
        E 0 90 2a 64
        E 0 91 2e 64
        E 0 91 21 64
        E 0 90 32 64
        E 535 80 29 64
        E 0 80 21 64
        E 0 80 30 64
        E 0 80 34 64
        E 0 80 3a 64
        E 0 81 15 64
        E 0 81 17 64
        E 0 81 2b 64
        E 0 80 2d 64
        E 0 80 38 64
        E 0 81 20 64
        E 0 80 1e 64
        E 0 81 1c 64
        E 0 80 20 64
        E 0 81 1b 64
        E 0 80 25 64
        E 0 80 27 64
        E 0 80 28 64
        E 0 80 36 64
        E 0 81 27 64
        E 0 80 2a 64
        E 0 81 2e 64
        E 0 81 21 64
        E 0 80 32 64
        E 267 90 29 64
        E 0 90 30 64
        E 0 90 34 64
        E 0 90 3a 64
        E 0 91 15 64
        E 1 91 17 64
        E 0 91 2b 64
        E 0 90 2d 64
        E 0 90 38 64
        E 0 91 20 64
        E 0 90 1e 64
        E 0 91 1c 64
        E 0 90 21 64
        E 0 90 20 64
        E 0 91 1b 64
        E 0 90 25 64
        E 0 90 27 64
        E 0 90 28 64
        E 0 90 36 64
        E 0 91 27 64
        E 0 90 2a 64
        E 0 91 2e 64
        E 0 91 21 64
        E 0 90 32 64
        E 936 80 21 64
        E 0 80 29 64
        E 0 80 30 64
        E 0 80 34 64
        E 0 80 3a 64
        E 0 81 15 64
        E 0 81 17 64
        E 0 81 2b 64
        E 0 80 2d 64
        E 0 80 38 64
        E 0 81 20 64
        E 0 80 1e 64
        E 0 81 1c 64
        E 0 80 20 64
        E 0 81 1b 64
        E 0 80 25 64
        E 0 80 27 64
        E 0 80 28 64
        E 0 80 36 64
        E 0 81 27 64
        E 0 80 2a 64
        E 0 81 2e 64
        E 0 81 21 64
        E 0 80 32 64
        E 178 80 24 64
        E 0 80 21 64
        E 267 90 29 64
        E 0 90 1e 64
        E 0 90 24 64
        E 0 91 1a 64
        E 0 90 30 64
        E 0 90 34 64
        E 0 90 3a 64
        E 0 91 15 64
        E 0 91 17 64
        E 0 91 2b 64
        E 0 90 2d 64
        E 0 90 38 64
        E 0 91 20 64
        E 0 90 1e 64
        E 0 91 1c 64
        E 1 90 21 64
        E 0 90 20 64
        E 0 91 1b 64
        E 0 90 25 64
        E 0 90 27 64
        E 0 90 28 64
        E 0 90 36 64
        E 0 91 27 64
        E 0 90 2a 64
        E 0 91 2e 64
        E 0 91 21 64
        E 0 90 32 64
        E 490 81 1e 64
        E 0 81 1d 64
        E 0 80 29 64
        E 0 80 1e 64
        E 0 80 24 64
        E 0 81 1a 64
        E 0 80 21 64
        E 0 80 20 64
        E 44 80 30 64
        E 0 80 34 64
        E 0 80 3a 64
        E 0 81 15 64
        E 0 81 17 64
        E 0 81 2b 64
        E 0 80 2d 64
        E 0 80 38 64
        E 1 81 20 64
        E 0 80 1e 64
        E 0 81 1c 64
        E 0 81 1b 64
        E 0 80 25 64
        E 0 80 27 64
        E 0 80 28 64
        E 0 80 36 64
        E 0 81 27 64
        E 0 80 2a 64
        E 0 81 2e 64
        E 0 81 21 64
        E 0 80 32 64
        E 222 90 29 64
        E 0 90 30 64
        E 0 90 34 64
        E 0 90 3a 64
        E 0 91 15 64
        E 0 91 17 64
        E 0 91 2b 64
        E 0 90 2d 64
        E 0 90 38 64
        E 0 91 20 64
        E 0 90 1e 64
        E 0 91 1c 64
        E 0 90 21 64
        E 0 90 20 64
        E 0 91 1b 64
        E 0 90 25 64
        E 0 90 27 64
        E 0 90 28 64
        E 0 90 36 64
        E 0 91 27 64
        E 0 90 2a 64
        E 0 91 2e 64
        E 0 91 21 64
        E 1 90 32 64
        E 490 80 29 64
        E 0 80 1e 64
        E 0 80 21 64
        E 0 80 20 64
        E 44 80 30 64
        E 0 80 34 64
        E 0 80 3a 64
        E 0 81 15 64
        E 0 81 17 64
        E 0 81 2b 64
        E 0 80 2d 64
        E 0 80 38 64
        E 0 81 20 64
        E 0 81 1c 64
        E 0 81 1b 64
        E 0 80 25 64
        E 0 80 27 64
        E 0 80 28 64
        E 0 80 36 64
        E 0 81 27 64
        E 0 80 2a 64
        E 0 81 2e 64
        E 0 81 21 64
        E 0 80 32 64
        E 223 90 29 64
        E 0 80 29 64
        E 0 90 30 64
        E 0 90 34 64
        E 0 90 3a 64
        E 0 91 15 64
        E 0 91 17 64
        E 0 91 2b 64
        E 0 90 2d 64
        E 0 90 38 64
        E 0 91 20 64
        E 0 90 1e 64
        E 0 91 1c 64
        E 0 90 21 64
        E 0 80 21 64
        E 0 90 20 64
        E 0 91 1b 64
        E 0 90 25 64
        E 0 90 27 64
        E 0 90 28 64
        E 0 90 36 64
        E 0 91 27 64
        E 0 90 2a 64
        E 0 91 2e 64
        E 0 91 21 64
        E 0 90 32 64
        E 0 91 14 64
        E 1 80 1e 64
        E 0 80 20 64
        E 0 81 14 64
        E 178 80 30 64
        E 0 80 34 64
        E 0 80 3a 64
        E 0 81 15 64
        E 0 81 17 64
        E 0 81 2b 64
        E 0 80 2d 64
        E 0 80 38 64
        E 0 81 20 64
        E 0 81 1c 64
        E 0 81 1b 64
        E 0 80 25 64
        E 0 80 27 64
        E 0 80 28 64
        E 0 80 36 64
        E 0 81 27 64
        E 0 80 2a 64
        E 0 81 2e 64
        E 0 81 21 64
        E 0 80 32 64
        E 89 90 29 64
        E 0 90 30 64
        E 0 90 34 64
        E 0 90 3a 64
        E 0 91 15 64
        E 0 91 17 64
        E 0 91 2b 64
        E 0 90 2d 64
        E 0 90 38 64
        E 0 91 20 64
        E 0 90 1e 64
        E 0 91 1c 64
        E 0 90 21 64
        E 0 90 20 64
        E 0 91 1b 64
        E 0 90 25 64
        E 0 90 27 64
        E 0 90 28 64
        E 0 90 36 64
        E 0 91 27 64
        E 0 90 2a 64
        E 0 91 2e 64
        E 0 91 21 64
        E 0 90 32 64
        E 0 91 14 64
        E 535 80 29 64
        E 0 80 30 64
        E 0 80 34 64
        E 0 80 3a 64
        E 0 81 15 64
        E 0 81 17 64
        E 0 81 2b 64
        E 0 80 2d 64
        E 0 80 38 64
        E 0 81 20 64
        E 0 80 1e 64
        E 0 81 1c 64
        E 0 80 21 64
        E 0 80 20 64
        E 0 81 1b 64
        E 0 80 25 64
        E 0 80 27 64
        E 0 80 28 64
        E 0 80 36 64
        E 0 81 27 64
        E 0 80 2a 64
        E 0 81 2e 64
        E 0 81 21 64
        E 0 80 32 64
        E 0 81 14 64
        E 223 90 29 64
        E 0 90 30 64
        E 0 90 34 64
        E 0 90 3a 64
        E 0 91 15 64
        E 0 91 17 64
        E 0 91 2b 64
        E 0 90 2d 64
        E 0 90 38 64
        E 0 91 20 64
        E 0 90 1e 64
        E 0 91 1c 64
        E 0 90 21 64
        E 0 90 20 64
        E 0 91 1b 64
        E 0 90 25 64
        E 0 90 27 64
        E 0 90 28 64
        E 0 90 36 64
        E 0 91 27 64
        E 0 90 2a 64
        E 0 91 2e 64
        E 0 91 21 64
        E 0 90 32 64
        E 0 91 14 64
        E 535 80 29 64
        E 0 80 30 64
        E 0 80 34 64
        E 0 80 3a 64
        E 0 81 15 64
        E 0 81 17 64
        E 0 81 2b 64
        E 0 80 2d 64
        E 0 80 38 64
        E 0 81 20 64
        E 0 80 1e 64
        E 0 81 1c 64
        E 0 80 21 64
        E 0 80 20 64
        E 0 81 1b 64
        E 0 80 25 64
        E 0 80 27 64
        E 0 80 28 64
        E 0 80 36 64
        E 0 81 27 64
        E 0 80 2a 64
        E 0 81 2e 64
        E 0 81 21 64
        E 0 80 32 64
        E 0 81 14 64
        E 223 90 29 64
        E 0 91 1d 64
        E 0 90 30 64
        E 0 90 34 64
        E 0 90 3a 64
        E 0 91 15 64
        E 0 91 17 64
        E 0 91 2b 64
        E 0 90 2d 64
        E 0 90 38 64
        E 0 91 20 64
        E 0 90 1e 64
        E 0 91 1c 64
        E 0 90 21 64
        E 0 90 20 64
        E 0 91 1b 64
        E 0 90 25 64
        E 0 90 27 64
        E 0 90 28 64
        E 0 90 36 64
        E 0 91 27 64
        E 44 90 2a 64
        E 0 91 2e 64
        E 0 91 21 64
        E 0 90 32 64
        E 0 91 14 64
        E 535 80 29 64
        E 0 80 30 64
        E 0 80 34 64
        E 0 80 3a 64
        E 0 81 15 64
        E 0 81 17 64
        E 0 81 2b 64
        E 0 80 2d 64
        E 0 80 38 64
        E 0 81 20 64
        E 0 80 1e 64
        E 0 81 1c 64
        E 0 80 21 64
        E 0 80 20 64
        E 0 81 1b 64
        E 0 80 25 64
        E 0 80 27 64
        E 0 80 28 64
        E 0 80 36 64
        E 0 81 27 64
        E 0 80 2a 64
        E 0 81 2e 64
        E 0 81 21 64
        E 0 80 32 64
        E 0 81 14 64
        E 223 90 29 64
        E 0 90 30 64
        E 0 90 34 64
        E 0 90 3a 64
        E 0 91 15 64
        E 0 91 17 64
        E 0 91 2b 64
        E 0 90 2d 64
        E 0 90 38 64
        E 0 91 20 64
        E 0 90 1e 64
        E 0 91 1c 64
        E 0 90 21 64
        E 0 90 20 64
        E 0 91 1b 64
        E 0 90 25 64
        E 0 90 27 64
        E 0 90 28 64
        E 0 90 36 64
        E 0 91 27 64
        E 0 90 2a 64
        E 0 91 2e 64
        E 0 91 21 64
        E 0 90 32 64
        E 0 91 14 64
        E 535 80 29 64
        E 0 80 30 64
        E 0 80 34 64
        E 0 80 3a 64
        E 0 81 15 64
        E 0 81 17 64
        E 0 81 2b 64
        E 0 80 2d 64
        E 0 80 38 64
        E 0 81 20 64
        E 0 80 1e 64
        E 0 81 1c 64
        E 0 80 21 64
        E 0 80 20 64
        E 0 81 1b 64
        E 0 80 25 64
        E 0 80 27 64
        E 0 80 28 64
        E 0 80 36 64
        E 0 81 27 64
        E 0 80 2a 64
        E 0 81 2e 64
        E 0 81 21 64
        E 0 80 32 64
        E 0 81 14 64
        E 223 90 29 64
        E 0 90 30 64
        E 0 90 34 64
        E 0 90 3a 64
        E 0 91 15 64
        E 0 91 17 64
        E 0 91 2b 64
        E 0 90 2d 64
        E 0 90 38 64
        E 0 91 20 64
        E 0 90 1e 64
        E 0 91 1c 64
        E 0 90 21 64
        E 0 90 20 64
        E 0 91 1b 64
        E 0 90 25 64
        E 0 90 27 64
        E 0 90 28 64
        E 0 90 36 64
        E 0 91 27 64
        E 0 90 2a 64
        E 0 91 2e 64
        E 0 91 21 64
        E 0 90 32 64
        E 0 91 14 64
        E 535 80 29 64
        E 0 80 30 64
        E 0 80 34 64
        E 0 80 3a 64
        E 0 81 15 64
        E 0 81 17 64
        E 0 81 2b 64
        E 0 80 2d 64
        E 0 80 38 64
        E 0 81 20 64
        E 0 80 1e 64
        E 0 81 1c 64
        E 0 80 21 64
        E 0 80 20 64
        E 0 81 1b 64
        E 0 80 25 64
        E 0 80 27 64
        E 0 80 28 64
        E 0 80 36 64
        E 0 81 27 64
        E 0 80 2a 64
        E 0 81 2e 64
        E 0 81 21 64
        E 0 80 32 64
        E 0 81 14 64
        E 223 90 29 64
        E 0 91 1e 64
        E 0 90 30 64
        E 0 90 34 64
        E 0 90 3a 64
        E 0 91 15 64
        E 0 91 17 64
        E 0 91 2b 64
        E 0 90 2d 64
        E 0 90 38 64
        E 0 91 20 64
        E 0 90 1e 64
        E 0 91 1c 64
        E 0 90 21 64
        E 0 90 20 64
        E 0 91 1b 64
        E 0 90 25 64
        E 0 90 27 64
        E 0 90 28 64
        E 0 90 36 64
        E 0 91 27 64
        E 0 90 2a 64
        E 0 91 2e 64
        E 0 91 21 64
        E 0 90 32 64
        E 0 91 14 64
        E 535 80 29 64
        E 0 80 30 64
        E 0 80 34 64
        E 0 80 3a 64
        E 0 81 15 64
        E 0 81 17 64
        E 0 81 2b 64
        E 0 80 2d 64
        E 0 80 38 64
        E 0 81 20 64
        E 0 80 1e 64
        E 0 81 1c 64
        E 0 80 21 64
        E 0 80 20 64
        E 0 81 1b 64
        E 0 80 25 64
        E 0 80 27 64
        E 0 80 28 64
        E 0 80 36 64
        E 0 81 27 64
        E 0 80 2a 64
        E 0 81 2e 64
        E 0 81 21 64
        E 0 80 32 64
        E 0 81 14 64
        E 223 90 29 64
        E 0 90 30 64
        E 0 90 34 64
        E 0 90 3a 64
        E 0 91 15 64
        E 0 91 17 64
        E 0 91 2b 64
        E 0 90 2d 64
        E 0 90 38 64
        E 0 91 20 64
        E 0 90 1e 64
        E 0 91 1c 64
        E 0 90 21 64
        E 0 90 20 64
        E 0 91 1b 64
        E 0 90 25 64
        E 0 90 27 64
        E 0 90 28 64
        E 0 90 36 64
        E 0 91 27 64
        E 0 90 2a 64
        E 0 91 2e 64
        E 0 91 21 64
        E 0 90 32 64
        E 0 91 14 64
        E 356 81 1d 64
        E 0 81 1e 64
        E 0 80 29 64
        E 0 80 1e 64
        E 0 80 21 64
        E 0 80 20 64
        E 0 81 14 64
        E 90 80 30 64
        E 0 80 34 64
        E 0 80 3a 64
        E 0 81 15 64
        E 0 81 17 64
        E 0 81 2b 64
        E 0 80 2d 64
        E 0 80 38 64
        E 0 81 20 64
        E 0 81 1c 64
        E 0 81 1b 64
        E 0 80 25 64
        E 0 80 27 64
        E 0 80 28 64
        E 0 80 36 64
        E 0 81 27 64
        E 0 80 2a 64
        E 0 81 2e 64
        E 0 81 21 64
        E 0 80 32 64
        E 178 90 29 64
        E 0 91 1d 64
        E 0 90 30 64
        E 0 90 34 64
        E 0 90 3a 64
        E 0 91 15 64
        E 0 91 17 64
        E 0 91 2b 64
        E 0 90 2d 64
        E 0 90 38 64
        E 0 91 20 64
        E 0 90 1e 64
        E 0 91 1c 64
        E 0 90 21 64
        E 0 90 20 64
        E 0 91 1b 64
        E 0 90 25 64
        E 0 90 27 64
        E 0 90 28 64
        E 0 90 36 64
        E 0 91 27 64
        E 0 90 2a 64
        E 0 91 2e 64
        E 0 91 21 64
        E 0 90 32 64
        E 0 91 14 64
        E 535 80 29 64
        E 0 80 30 64
        E 0 80 34 64
        E 0 80 3a 64
        E 0 81 15 64
        E 0 81 17 64
        E 0 81 2b 64
        E 0 80 2d 64
        E 0 80 38 64
        E 0 81 20 64
        E 0 80 1e 64
        E 0 81 1c 64
        E 0 80 21 64
        E 0 80 20 64
        E 0 81 1b 64
        E 0 80 25 64
        E 0 80 27 64
        E 0 80 28 64
        E 0 80 36 64
        E 0 81 27 64
        E 0 80 2a 64
        E 0 81 2e 64
        E 0 81 21 64
        E 0 80 32 64
        E 0 81 14 64
        E 223 90 29 64
        E 0 90 30 64
        E 0 90 34 64
        E 0 90 3a 64
        E 0 91 15 64
        E 0 91 17 64
        E 0 91 2b 64
        E 0 90 2d 64
        E 0 90 38 64
        E 0 91 20 64
        E 0 90 1e 64
        E 0 91 1c 64
        E 0 90 21 64
        E 0 90 20 64
        E 0 91 1b 64
        E 0 90 25 64
        E 0 90 27 64
        E 0 90 28 64
        E 0 90 36 64
        E 0 91 27 64
        E 0 90 2a 64
        E 0 91 2e 64
        E 0 91 21 64
        E 0 90 32 64
        E 0 91 14 64
        E 535 80 29 64
        E 0 80 30 64
        E 0 80 34 64
        E 0 80 3a 64
        E 0 81 15 64
        E 0 81 17 64
        E 0 81 2b 64
        E 0 80 2d 64
        E 0 80 38 64
        E 0 81 20 64
        E 0 80 1e 64
        E 0 81 1c 64
        E 0 80 21 64
        E 0 80 20 64
        E 0 81 1b 64
        E 0 80 25 64
        E 0 80 27 64
        E 0 80 28 64
        E 0 80 36 64
        E 0 81 27 64
        E 0 80 2a 64
        E 0 81 2e 64
        E 0 81 21 64
        E 0 80 32 64
        E 0 81 14 64
        E 267 90 29 64
        E 0 90 30 64
        E 0 90 34 64
        E 0 90 3a 64
        E 0 91 15 64
        E 0 91 17 64
        E 0 91 2b 64
        E 0 90 2d 64
        E 0 90 38 64
        E 0 91 20 64
        E 0 90 1e 64
        E 0 91 1c 64
        E 0 90 21 64
        E 0 90 20 64
        E 0 91 1b 64
        E 0 90 25 64
        E 0 90 27 64
        E 0 90 28 64
        E 0 90 36 64
        E 0 91 27 64
        E 0 90 2a 64
        E 0 91 2e 64
        E 1 91 21 64
        E 0 90 32 64
        E 0 91 14 64
        E 534 80 29 64
        E 0 80 30 64
        E 0 80 34 64
        E 0 80 3a 64
        E 0 81 15 64
        E 0 81 17 64
        E 0 81 2b 64
        E 0 80 2d 64
        E 0 80 38 64
        E 0 81 20 64
        E 0 80 1e 64
        E 0 81 1c 64
        E 0 80 21 64
        E 0 80 20 64
        E 0 81 1b 64
        E 0 80 25 64
        E 0 80 27 64
        E 0 80 28 64
        E 0 80 36 64
        E 0 81 27 64
        E 0 80 2a 64
        E 0 81 2e 64
        E 0 81 21 64
        E 0 80 32 64
        E 0 81 14 64
        E 223 90 29 64
        E 0 91 1e 64
        E 0 90 30 64
        E 0 90 34 64
        E 0 90 3a 64
        E 0 91 15 64
        E 0 91 17 64
        E 0 91 2b 64
        E 0 90 2d 64
        E 0 90 38 64
        E 0 91 20 64
        E 0 90 1e 64
        E 0 91 1c 64
        E 0 90 21 64
        E 0 90 20 64
        E 0 91 1b 64
        E 0 90 25 64
        E 0 90 27 64
        E 0 90 28 64
        E 0 90 36 64
        E 0 91 27 64
        E 0 90 2a 64
        E 0 91 2e 64
        E 0 91 21 64
        E 0 90 32 64
        E 0 91 14 64
        E 134 80 29 64
        E 0 80 30 64
        E 0 80 34 64
        E 0 80 3a 64
        E 0 81 15 64
        E 0 81 17 64
        E 0 81 2b 64
        E 0 80 2d 64
        E 0 80 38 64
        E 0 81 20 64
        E 0 80 1e 64
        E 0 81 1c 64
        E 0 80 21 64
        E 0 80 20 64
        E 0 81 1b 64
        E 0 80 25 64
        E 0 80 27 64
        E 0 80 28 64
        E 0 80 36 64
        E 0 81 27 64
        E 0 80 2a 64
        E 0 81 2e 64
        E 0 81 21 64
        E 0 80 32 64
        E 0 81 14 64
        E 89 90 29 64
        E 0 90 30 64
        E 0 90 34 64
        E 0 90 3a 64
        E 0 91 15 64
        E 0 91 17 64
        E 0 91 2b 64
        E 0 90 2d 64
        E 0 90 38 64
        E 0 91 20 64
        E 0 90 1e 64
        E 0 91 1c 64
        E 0 90 21 64
        E 0 90 20 64
        E 0 91 1b 64
        E 0 90 25 64
        E 0 90 27 64
        E 0 90 28 64
        E 0 90 36 64
        E 0 91 27 64
        E 0 90 2a 64
        E 0 91 2e 64
        E 0 91 21 64
        E 0 90 32 64
        E 0 91 14 64
        E 535 80 29 64
        E 0 80 30 64
        E 0 80 34 64
        E 0 80 3a 64
        E 0 81 15 64
        E 0 81 17 64
        E 0 81 2b 64
        E 0 80 2d 64
        E 0 80 38 64
        E 0 81 20 64
        E 0 80 1e 64
        E 0 81 1c 64
        E 0 80 21 64
        E 0 80 20 64
        E 0 81 1b 64
        E 0 80 25 64
        E 0 80 27 64
        E 0 80 28 64
        E 0 80 36 64
        E 0 81 27 64
        E 0 80 2a 64
        E 0 81 2e 64
        E 0 81 21 64
        E 0 80 32 64
        E 0 81 14 64
        E 223 90 29 64
        E 0 91 1d 64
        E 0 90 30 64
        E 0 90 34 64
        E 0 90 3a 64
        E 0 91 15 64
        E 0 91 17 64
        E 0 91 2b 64
        E 0 90 2d 64
        E 0 90 38 64
        E 0 91 20 64
        E 0 90 1e 64
        E 0 91 1c 64
        E 0 90 21 64
        E 0 90 20 64
        E 0 91 1b 64
        E 0 90 25 64
        E 0 90 27 64
        E 0 90 28 64
        E 0 90 36 64
        E 0 91 27 64
        E 0 90 2a 64
        E 0 91 2e 64
        E 0 91 21 64
        E 0 90 32 64
        E 0 91 14 64
        E 535 80 29 64
        E 0 80 30 64
        E 0 80 34 64
        E 0 80 3a 64
        E 0 81 15 64
        E 0 81 17 64
        E 0 81 2b 64
        E 0 80 2d 64
        E 0 80 38 64
        E 0 81 20 64
        E 0 80 1e 64
        E 0 81 1c 64
        E 0 80 21 64
        E 0 80 20 64
        E 0 81 1b 64
        E 0 80 25 64
        E 0 80 27 64
        E 0 80 28 64
        E 0 80 36 64
        E 0 81 27 64
        E 0 80 2a 64
        E 0 81 2e 64
        E 0 81 21 64
        E 0 80 32 64
        E 0 81 14 64
        E 223 90 29 64
        E 0 90 30 64
        E 0 90 34 64
        E 0 90 3a 64
        E 0 91 15 64
        E 0 91 17 64
        E 0 91 2b 64
        E 0 90 2d 64
        E 0 90 38 64
        E 0 91 20 64
        E 0 90 1e 64
        E 0 91 1c 64
        E 0 90 21 64
        E 0 90 20 64
        E 0 91 1b 64
        E 0 90 25 64
        E 0 90 27 64
        E 0 90 28 64
        E 0 90 36 64
        E 0 91 27 64
        E 0 90 2a 64
        E 0 91 2e 64
        E 0 91 21 64
        E 0 90 32 64
        E 0 91 14 64
        E 535 81 1d 64
        E 44 80 29 64
        E 0 80 30 64
        E 0 80 34 64
        E 0 80 3a 64
        E 0 81 15 64
        E 0 81 17 64
        E 0 81 2b 64
        E 0 80 2d 64
        E 1 80 38 64
        E 0 81 20 64
        E 0 80 1e 64
        E 0 81 1c 64
        E 0 80 21 64
        E 0 80 20 64
        E 0 81 1b 64
        E 0 80 25 64
        E 0 80 27 64
        E 0 80 28 64
        E 0 80 36 64
        E 0 81 27 64
        E 0 80 2a 64
        E 0 81 2e 64
        E 0 81 21 64
        E 0 80 32 64
        E 0 81 14 64
        E 222 90 29 64
        E 0 90 29 64
        E 0 91 1a 64
        E 0 90 30 64
        E 0 90 34 64
        E 0 90 3a 64
        E 0 91 15 64
        E 0 91 17 64
        E 0 91 2b 64
        E 0 90 2d 64
        E 0 90 38 64
        E 0 91 20 64
        E 0 90 1e 64
        E 0 91 1c 64
        E 0 90 21 64
        E 1 90 20 64
        E 0 91 1b 64
        E 0 90 25 64
        E 0 90 27 64
        E 0 90 28 64
        E 0 90 36 64
        E 0 91 27 64
        E 0 90 2a 64
        E 0 91 2e 64
        E 0 91 21 64
        E 0 90 32 64
        E 0 91 14 64
        E 534 80 29 64
        E 0 80 30 64
        E 0 80 34 64
        E 0 80 3a 64
        E 0 81 15 64
        E 0 81 17 64
        E 0 81 2b 64
        E 0 80 2d 64
        E 0 80 38 64
        E 0 81 20 64
        E 0 80 1e 64
        E 0 81 1c 64
        E 0 80 21 64
        E 1 80 20 64
        E 0 81 1b 64
        E 0 80 25 64
        E 0 80 27 64
        E 0 80 28 64
        E 0 80 36 64
        E 0 81 27 64
        E 0 80 2a 64
        E 0 81 2e 64
        E 0 81 21 64
        E 0 80 32 64
        E 0 81 14 64
        E 222 90 29 64
        E 0 90 30 64
        E 0 90 34 64
        E 0 90 3a 64
        E 0 91 15 64
        E 0 91 17 64
        E 0 91 2b 64
        E 0 90 2d 64
        E 0 90 38 64
        E 0 91 20 64
        E 0 90 1e 64
        E 0 91 1c 64
        E 0 90 21 64
        E 0 90 20 64
        E 0 91 1b 64
        E 0 90 25 64
        E 0 90 27 64
        E 0 90 28 64
        E 0 90 36 64
        E 0 91 27 64
        E 0 90 2a 64
        E 0 91 2e 64
        E 0 91 21 64
        E 0 90 32 64
        E 0 91 14 64
        E 535 80 29 64
        E 0 80 30 64
        E 0 80 34 64
        E 0 80 3a 64
        E 0 81 15 64
        E 0 81 17 64
        E 0 81 2b 64
        E 0 80 2d 64
        E 0 80 38 64
        E 0 81 20 64
        E 0 80 1e 64
        E 0 81 1c 64
        E 0 80 21 64
        E 0 80 20 64
        E 0 81 1b 64
        E 0 80 25 64
        E 0 80 27 64
        E 0 80 28 64
        E 0 80 36 64
        E 0 81 27 64
        E 0 80 2a 64
        E 0 81 2e 64
        E 0 81 21 64
        E 0 80 32 64
        E 0 81 14 64
        E 223 90 29 64
        E 0 90 30 64
        E 0 90 34 64
        E 0 90 3a 64
        E 0 91 15 64
        E 0 91 17 64
        E 0 91 2b 64
        E 0 90 2d 64
        E 0 90 38 64
        E 0 91 20 64
        E 0 90 1e 64
        E 0 91 1c 64
        E 0 90 21 64
        E 0 90 20 64
        E 0 91 1b 64
        E 0 90 25 64
        E 0 90 27 64
        E 0 90 28 64
        E 0 90 36 64
        E 0 91 27 64
        E 0 90 2a 64
        E 0 91 2e 64
        E 0 91 21 64
        E 0 90 32 64
        E 0 91 14 64
        E 0 90 1c 64
        E 535 80 29 64
        E 0 80 30 64
        E 0 80 34 64
        E 0 80 3a 64
        E 0 81 15 64
        E 0 81 17 64
        E 0 81 2b 64
        E 0 80 2d 64
        E 0 80 38 64
        E 0 81 20 64
        E 0 80 1e 64
        E 0 81 1c 64
        E 0 80 21 64
        E 0 80 20 64
        E 0 81 1b 64
        E 0 80 25 64
        E 0 80 27 64
        E 0 80 28 64
        E 0 80 36 64
        E 0 81 27 64
        E 0 80 2a 64
        E 0 81 2e 64
        E 0 81 21 64
        E 0 80 32 64
        E 0 81 14 64
        E 0 80 1c 64
        E 223 90 29 64
        E 0 90 30 64
        E 0 90 34 64
        E 0 90 3a 64
        E 0 91 15 64
        E 0 91 17 64
        E 0 91 2b 64
        E 0 90 2d 64
        E 0 90 38 64
        E 0 91 20 64
        E 0 90 1e 64
        E 0 91 1c 64
        E 0 90 21 64
        E 0 90 20 64
        E 0 91 1b 64
        E 0 90 25 64
        E 0 90 27 64
        E 0 90 28 64
        E 0 90 36 64
        E 0 91 27 64
        E 0 90 2a 64
        E 0 91 2e 64
        E 0 91 21 64
        E 0 90 32 64
        E 0 91 14 64
        E 0 90 1c 64
        E 535 81 1a 64
        E 0 80 29 64
        E 0 80 29 64
        E 0 80 30 64
        E 0 80 34 64
        E 0 80 3a 64
        E 0 81 15 64
        E 0 81 17 64
        E 0 81 2b 64
        E 0 80 2d 64
        E 0 80 38 64
        E 0 81 20 64
        E 0 80 1e 64
        E 0 81 1c 64
        E 0 80 21 64
        E 0 80 20 64
        E 0 81 1b 64
        E 0 80 25 64
        E 0 80 27 64
        E 0 80 28 64
        E 0 80 36 64
        E 0 81 27 64
        E 0 80 2a 64
        E 0 81 2e 64
        E 0 81 21 64
        E 0 80 32 64
        E 0 81 14 64
        E 0 80 1c 64
        E 268 90 29 64
        E 0 90 24 64
        E 0 90 30 64
        E 0 90 34 64
        E 0 90 3a 64
        E 0 91 15 64
        E 0 91 17 64
        E 0 91 2b 64
        E 0 90 2d 64
        E 0 90 38 64
        E 0 91 20 64
        E 0 90 1e 64
        E 0 91 1c 64
        E 0 90 21 64
        E 0 90 20 64
        E 0 91 1b 64
        E 0 90 25 64
        E 0 90 27 64
        E 0 90 28 64
        E 0 90 36 64
        E 0 91 27 64
        E 0 90 2a 64
        E 0 91 2e 64
        E 0 91 21 64
        E 0 90 32 64
        E 0 91 14 64
        E 0 90 1c 64
        E 535 80 29 64
        E 0 80 30 64
        E 0 80 34 64
        E 0 80 3a 64
        E 0 81 15 64
        E 0 81 17 64
        E 0 81 2b 64
        E 0 80 2d 64
        E 0 80 38 64
        E 0 81 20 64
        E 0 80 1e 64
        E 0 81 1c 64
        E 0 80 21 64
        E 0 80 20 64
        E 0 81 1b 64
        E 0 80 25 64
        E 0 80 27 64
        E 0 80 28 64
        E 0 80 36 64
        E 0 81 27 64
        E 0 80 2a 64
        E 0 81 2e 64
        E 0 81 21 64
        E 0 80 32 64
        E 0 81 14 64
        E 0 80 1c 64
        E 222 90 29 64
        E 0 90 30 64
        E 0 90 34 64
        E 0 90 3a 64
        E 0 91 15 64
        E 0 91 17 64
        E 1 91 2b 64
        E 0 90 2d 64
        E 0 90 38 64
        E 0 91 20 64
        E 0 90 1e 64
        E 0 91 1c 64
        E 0 90 21 64
        E 0 90 20 64
        E 0 91 1b 64
        E 0 90 25 64
        E 0 90 27 64
        E 0 90 28 64
        E 0 90 36 64
        E 0 91 27 64
        E 0 90 2a 64
        E 0 91 2e 64
        E 0 91 21 64
        E 0 90 32 64
        E 0 91 14 64
        E 0 90 1c 64
        E 534 80 29 64
        E 0 80 30 64
        E 0 80 34 64
        E 0 80 3a 64
        E 0 81 15 64
        E 0 81 17 64
        E 0 81 2b 64
        E 0 80 2d 64
        E 0 80 38 64
        E 0 81 20 64
        E 0 80 1e 64
        E 1 81 1c 64
        E 0 80 21 64
        E 0 80 20 64
        E 0 81 1b 64
        E 0 80 25 64
        E 0 80 27 64
        E 0 80 28 64
        E 0 80 36 64
        E 0 81 27 64
        E 0 80 2a 64
        E 0 81 2e 64
        E 0 81 21 64
        E 0 80 32 64
        E 0 81 14 64
        E 0 80 1c 64
        E 222 90 29 64
        E 0 90 21 64
        E 0 90 30 64
        E 0 90 34 64
        E 0 90 3a 64
        E 0 91 15 64
        E 0 91 17 64
        E 0 91 2b 64
        E 0 90 2d 64
        E 0 90 38 64
        E 0 91 20 64
        E 0 90 1e 64
        E 0 91 1c 64
        E 0 90 21 64
        E 0 90 20 64
        E 0 91 1b 64
        E 0 90 25 64
        E 0 90 27 64
        E 0 90 28 64
        E 0 90 36 64
        E 0 91 27 64
        E 0 90 2a 64
        E 1 91 2e 64
        E 0 91 21 64
        E 0 90 32 64
        E 0 91 14 64
        E 0 90 1c 64
        E 1560 80 29 64
        E 0 80 21 64
        E 0 80 30 64
        E 0 80 34 64
        E 0 80 3a 64
        E 0 81 15 64
        E 0 81 17 64
        E 0 81 2b 64
        E 0 80 2d 64
        E 0 80 38 64
        E 0 81 20 64
        E 0 80 1e 64
        E 0 81 1c 64
        E 0 80 20 64
        E 0 81 1b 64
        E 0 80 25 64
        E 0 80 27 64
        E 0 80 28 64
        E 0 80 36 64
        E 0 81 27 64
        E 0 80 2a 64
        E 0 81 2e 64
        E 0 81 21 64
        E 0 80 32 64
        E 0 81 14 64
        E 0 80 1c 64
        E 668 90 29 64
        E 0 90 30 64
        E 0 90 34 64
        E 0 90 3a 64
        E 0 91 15 64
        E 0 91 17 64
        E 1 91 2b 64
        E 0 90 2d 64
        E 0 90 38 64
        E 0 91 20 64
        E 0 90 1e 64
        E 0 91 1c 64
        E 0 90 21 64
        E 0 90 20 64
        E 0 91 1b 64
        E 0 90 25 64
        E 0 90 27 64
        E 0 90 28 64
        E 0 90 36 64
        E 0 91 27 64
        E 0 90 2a 64
        E 0 91 2e 64
        E 0 91 21 64
        E 0 90 32 64
        E 0 91 14 64
        E 0 90 1c 64
        E 0 91 1f 64
        E 490 80 24 64
        E 0 80 21 64
        E 44 80 29 64
        E 0 80 30 64
        E 0 80 34 64
        E 1 80 3a 64
        E 0 81 15 64
        E 0 81 17 64
        E 0 81 2b 64
        E 0 80 2d 64
        E 0 80 38 64
        E 0 81 20 64
        E 0 80 1e 64
        E 0 81 1c 64
        E 0 80 21 64
        E 0 80 20 64
        E 0 81 1b 64
        E 0 80 25 64
        E 0 80 27 64
        E 0 80 28 64
        E 0 80 36 64
        E 0 81 27 64
        E 0 80 2a 64
        E 0 81 2e 64
        E 0 81 21 64
        E 0 80 32 64
        E 0 81 14 64
        E 0 80 1c 64
        E 0 81 1f 64
        E 222 90 29 64
        E 0 90 1e 64
        E 0 90 24 64
        E 0 91 1a 64
        E 0 90 30 64
        E 0 90 34 64
        E 0 90 3a 64
        E 0 91 15 64
        E 0 91 17 64
        E 0 91 2b 64
        E 0 90 2d 64
        E 0 90 38 64
        E 0 91 20 64
        E 0 90 1e 64
        E 0 91 1c 64
        E 0 90 21 64
        E 0 90 20 64
        E 1 91 1b 64
        E 0 90 25 64
        E 0 90 27 64
        E 0 90 28 64
        E 0 90 36 64
        E 0 91 27 64
        E 0 90 2a 64
        E 0 91 2e 64
        E 0 91 21 64
        E 0 90 32 64
        E 0 91 14 64
        E 0 90 1c 64
        E 0 91 1f 64
        E 668 80 29 64
        E 0 80 1e 64
        E 0 80 30 64
        E 0 80 34 64
        E 0 80 3a 64
        E 0 81 15 64
        E 0 81 17 64
        E 0 81 2b 64
        E 0 80 2d 64
        E 0 80 38 64
        E 0 81 20 64
        E 0 81 1c 64
        E 0 80 21 64
        E 0 80 20 64
        E 0 81 1b 64
        E 0 80 25 64
        E 0 80 27 64
        E 0 80 28 64
        E 0 80 36 64
        E 0 81 27 64
        E 0 80 2a 64
        E 0 81 2e 64
        E 0 81 21 64
        E 0 80 32 64
        E 0 81 14 64
        E 0 80 1c 64
        E 0 81 1f 64
        E 268 90 29 64
        E 0 90 30 64
        E 0 90 34 64
        E 0 90 3a 64
        E 0 91 15 64
        E 0 91 17 64
        E 0 91 2b 64
        E 0 90 2d 64
        E 0 90 38 64
        E 0 91 20 64
        E 0 90 1e 64
        E 0 91 1c 64
        E 0 90 21 64
        E 0 90 20 64
        E 0 91 1b 64
        E 0 90 25 64
        E 0 90 27 64
        E 0 90 28 64
        E 0 90 36 64
        E 0 91 27 64
        E 0 90 2a 64
        E 0 91 2e 64
        E 0 91 21 64
        E 0 90 32 64
        E 0 91 14 64
        E 0 90 1c 64
        E 0 91 1f 64
        E 535 80 1e 64
        E 0 80 29 64
        E 0 80 30 64
        E 0 80 34 64
        E 0 80 3a 64
        E 0 81 15 64
        E 0 81 17 64
        E 0 81 2b 64
        E 0 80 2d 64
        E 0 80 38 64
        E 0 81 20 64
        E 0 81 1c 64
        E 0 80 21 64
        E 0 80 20 64
        E 0 81 1b 64
        E 0 80 25 64
        E 0 80 27 64
        E 0 80 28 64
        E 0 80 36 64
        E 0 81 27 64
        E 0 80 2a 64
        E 0 81 2e 64
        E 0 81 21 64
        E 0 80 32 64
        E 0 81 14 64
        E 0 80 1c 64
        E 0 81 1f 64
        E 223 90 29 64
        E 0 90 30 64
        E 0 90 34 64
        E 0 90 3a 64
        E 0 91 15 64
        E 0 91 17 64
        E 0 91 2b 64
        E 0 90 2d 64
        E 0 90 38 64
        E 0 91 20 64
        E 0 90 1e 64
        E 0 91 1c 64
        E 0 90 21 64
        E 0 90 20 64
        E 0 91 1b 64
        E 0 90 25 64
        E 0 90 27 64
        E 0 90 28 64
        E 0 90 36 64
        E 0 91 27 64
        E 0 90 2a 64
        E 0 91 2e 64
        E 0 91 21 64
        E 0 90 32 64
        E 0 91 14 64
        E 0 90 1c 64
        E 0 91 1f 64
        E 534 80 29 64
        E 0 80 30 64
        E 0 80 34 64
        E 0 80 3a 64
        E 0 81 15 64
        E 0 81 17 64
        E 1 80 1e 64
        E 0 81 2b 64
        E 0 80 2d 64
        E 0 80 38 64
        E 0 81 20 64
        E 0 81 1c 64
        E 0 80 21 64
        E 0 80 20 64
        E 0 81 1b 64
        E 0 80 25 64
        E 0 80 27 64
        E 0 80 28 64
        E 0 80 36 64
        E 0 81 27 64
        E 0 80 2a 64
        E 0 81 2e 64
        E 0 81 21 64
        E 0 80 32 64
        E 0 81 14 64
        E 0 80 1c 64
        E 0 81 1f 64
        E 222 90 29 64
        E 0 90 30 64
        E 0 90 34 64
        E 0 90 3a 64
        E 0 91 15 64
        E 0 91 17 64
        E 0 91 2b 64
        E 0 90 2d 64
        E 0 90 38 64
        E 0 91 20 64
        E 0 90 1e 64
        E 0 91 1c 64
        E 0 90 21 64
        E 0 90 20 64
        E 0 91 1b 64
        E 0 90 25 64
        E 0 90 27 64
        E 0 90 28 64
        E 1 90 36 64
        E 0 91 27 64
        E 0 90 2a 64
        E 0 91 2e 64
        E 0 91 21 64
        E 0 90 32 64
        E 0 91 14 64
        E 0 90 1c 64
        E 0 91 1f 64
        E 534 80 1e 64
        E 0 80 29 64
        E 0 80 30 64
        E 0 80 34 64
        E 0 80 3a 64
        E 0 81 15 64
        E 0 81 17 64
        E 0 81 2b 64
        E 0 80 2d 64
        E 0 80 38 64
        E 0 81 20 64
        E 0 81 1c 64
        E 1 80 21 64
        E 0 80 20 64
        E 0 81 1b 64
        E 0 80 25 64
        E 0 80 27 64
        E 0 80 28 64
        E 0 80 36 64
        E 0 81 27 64
        E 0 80 2a 64
        E 0 81 2e 64
        E 0 81 21 64
        E 0 80 32 64
        E 0 81 14 64
        E 0 80 1c 64
        E 0 81 1f 64
        E 267 90 29 64
        E 0 91 14 64
        E 0 90 30 64
        E 0 90 34 64
        E 0 90 3a 64
        E 0 91 15 64
        E 0 91 17 64
        E 0 91 2b 64
        E 0 90 2d 64
        E 0 90 38 64
        E 0 91 20 64
        E 0 90 1e 64
        E 0 91 1c 64
        E 0 90 21 64
        E 0 90 20 64
        E 0 91 1b 64
        E 0 90 25 64
        E 0 90 27 64
        E 0 90 28 64
        E 0 90 36 64
        E 0 91 27 64
        E 0 90 2a 64
        E 0 91 2e 64
        E 0 91 21 64
        E 0 90 32 64
        E 0 91 14 64
        E 0 90 1c 64
        E 0 91 1f 64
        E 535 80 1e 64
        E 0 80 29 64
        E 0 81 14 64
        E 0 80 30 64
        E 0 80 34 64
        E 0 80 3a 64
        E 0 81 15 64
        E 0 81 17 64
        E 0 81 2b 64
        E 0 80 2d 64
        E 0 80 38 64
        E 0 81 20 64
        E 0 81 1c 64
        E 0 80 21 64
        E 0 80 20 64
        E 0 81 1b 64
        E 0 80 25 64
        E 0 80 27 64
        E 0 80 28 64
        E 0 80 36 64
        E 0 81 27 64
        E 0 80 2a 64
        E 0 81 2e 64
        E 0 81 21 64
        E 0 80 32 64
        E 0 80 1c 64
        E 0 81 1f 64
        E 223 90 29 64
        E 0 90 30 64
        E 0 90 34 64
        E 0 90 3a 64
        E 0 91 15 64
        E 0 91 17 64
        E 0 91 2b 64
        E 0 90 2d 64
        E 0 90 38 64
        E 0 91 20 64
        E 0 90 1e 64
        E 0 91 1c 64
        E 0 90 21 64
        E 0 90 20 64
        E 0 91 1b 64
        E 0 90 25 64
        E 0 90 27 64
        E 0 90 28 64
        E 0 90 36 64
        E 0 91 27 64
        E 0 90 2a 64
        E 0 91 2e 64
        E 0 91 21 64
        E 0 90 32 64
        E 0 91 14 64
        E 0 90 1c 64
        E 0 91 1f 64
        E 490 81 14 64
        E 45 80 1e 64
        E 0 80 29 64
        E 0 80 30 64
        E 0 80 34 64
        E 0 80 3a 64
        E 0 81 15 64
        E 0 81 17 64
        E 0 81 2b 64
        E 0 80 2d 64
        E 0 80 38 64
        E 0 81 20 64
        E 0 81 1c 64
        E 0 80 21 64
        E 0 80 20 64
        E 0 81 1b 64
        E 0 80 25 64
        E 0 80 27 64
        E 0 80 28 64
        E 0 80 36 64
        E 0 81 27 64
        E 0 80 2a 64
        E 0 81 2e 64
        E 0 81 21 64
        E 0 80 32 64
        E 0 81 14 64
        E 0 80 1c 64
        E 0 81 1f 64
        E 223 90 29 64
        E 0 90 1c 64
        E 0 90 30 64
        E 0 90 34 64
        E 0 90 3a 64
        E 0 91 15 64
        E 0 91 17 64
        E 0 91 2b 64
        E 0 90 2d 64
        E 0 90 38 64
        E 0 91 20 64
        E 0 90 1e 64
        E 0 91 1c 64
        E 0 90 21 64
        E 0 90 20 64
        E 0 91 1b 64
        E 0 90 25 64
        E 0 90 27 64
        E 0 90 28 64
        E 0 90 36 64
        E 0 91 27 64
        E 0 90 2a 64
        E 0 91 2e 64
        E 0 91 21 64
        E 0 90 32 64
        E 0 91 14 64
        E 0 90 1c 64
        E 0 91 1f 64
        E 535 80 1e 64
        E 0 80 29 64
        E 0 80 1c 64
        E 0 80 30 64
        E 0 80 34 64
        E 0 80 3a 64
        E 0 81 15 64
        E 0 81 17 64
        E 0 81 2b 64
        E 0 80 2d 64
        E 0 80 38 64
        E 0 81 20 64
        E 0 81 1c 64
        E 0 80 21 64
        E 0 80 20 64
        E 0 81 1b 64
        E 0 80 25 64
        E 0 80 27 64
        E 0 80 28 64
        E 0 80 36 64
        E 0 81 27 64
        E 0 80 2a 64
        E 0 81 2e 64
        E 0 81 21 64
        E 0 80 32 64
        E 0 81 14 64
        E 0 81 1f 64
        E 223 90 29 64
        E 0 90 30 64
        E 0 90 34 64
        E 0 90 3a 64
        E 0 91 15 64
        E 0 91 17 64
        E 0 91 2b 64
        E 0 90 2d 64
        E 0 90 38 64
        E 0 91 20 64
        E 0 90 1e 64
        E 0 91 1c 64
        E 0 90 21 64
        E 0 90 20 64
        E 0 91 1b 64
        E 0 90 25 64
        E 0 90 27 64
        E 0 90 28 64
        E 0 90 36 64
        E 0 91 27 64
        E 0 90 2a 64
        E 0 91 2e 64
        E 0 91 21 64
        E 0 90 32 64
        E 0 91 14 64
        E 0 90 1c 64
        E 0 91 1f 64
        E 980 80 1e 64
        E 0 80 1c 64
        E 0 80 29 64
        E 0 80 30 64
        E 0 80 34 64
        E 0 80 3a 64
        E 0 81 15 64
        E 0 81 17 64
        E 0 81 2b 64
        E 0 80 2d 64
        E 0 80 38 64
        E 0 81 20 64
        E 0 81 1c 64
        E 0 80 21 64
        E 0 80 20 64
        E 0 81 1b 64
        E 0 80 25 64
        E 0 80 27 64
        E 0 80 28 64
        E 0 80 36 64
        E 0 81 27 64
        E 0 80 2a 64
        E 0 81 2e 64
        E 0 81 21 64
        E 0 80 32 64
        E 0 81 14 64
        E 0 81 1f 64
        E 134 80 1c 64
        E 268 90 29 64
        E 0 91 14 64
        E 0 91 10 64
        E 0 90 30 64
        E 0 90 34 64
        E 0 90 3a 64
        E 46 91 15 64
        E 0 91 17 64
        E 0 91 2b 64
        E 0 90 2d 64
        E 0 90 38 64
        E 0 91 20 64
        E 0 90 1e 64
        E 0 91 1c 64
        E 0 90 21 64
        E 0 90 20 64
        E 0 91 1b 64
        E 0 90 25 64
        E 0 90 27 64
        E 0 90 28 64
        E 0 90 36 64
        E 0 91 27 64
        E 0 90 2a 64
        E 0 91 2e 64
        E 0 91 21 64
        E 0 90 32 64
        E 0 91 14 64
        E 0 90 1c 64
        E 0 91 1f 64
        E 489 80 1e 64
        E 0 80 29 64
        E 0 81 14 64
        E 0 80 30 64
        E 0 80 34 64
        E 0 80 3a 64
        E 0 81 15 64
        E 0 81 17 64
        E 0 81 2b 64
        E 0 80 2d 64
        E 0 80 38 64
        E 0 81 20 64
        E 0 81 1c 64
        E 0 80 21 64
        E 0 80 20 64
        E 0 81 1b 64
        E 0 80 25 64
        E 0 80 27 64
        E 0 80 28 64
        E 0 80 36 64
        E 0 81 27 64
        E 0 80 2a 64
        E 0 81 2e 64
        E 0 81 21 64
        E 0 80 32 64
        E 0 80 1c 64
        E 0 81 1f 64
        E 267 90 29 64
        E 0 90 30 64
        E 0 90 34 64
        E 0 90 3a 64
        E 0 91 15 64
        E 0 91 17 64
        E 0 91 2b 64
        E 0 90 2d 64
        E 0 90 38 64
        E 0 91 20 64
        E 0 90 1e 64
        E 0 91 1c 64
        E 0 90 21 64
        E 0 90 20 64
        E 0 91 1b 64
        E 0 90 25 64
        E 0 90 27 64
        E 0 90 28 64
        E 0 90 36 64
        E 0 91 27 64
        E 0 90 2a 64
        E 0 91 2e 64
        E 0 91 21 64
        E 0 90 32 64
        E 0 91 14 64
        E 0 90 1c 64
        E 0 91 1f 64
        E 535 80 1e 64
        E 0 81 14 64
        E 0 80 29 64
        E 0 80 30 64
        E 0 80 34 64
        E 0 80 3a 64
        E 0 81 15 64
        E 0 81 17 64
        E 0 81 2b 64
        E 0 80 2d 64
        E 0 80 38 64
        E 0 81 20 64
        E 0 81 1c 64
        E 0 80 21 64
        E 0 80 20 64
        E 0 81 1b 64
        E 0 80 25 64
        E 0 80 27 64
        E 0 80 28 64
        E 0 80 36 64
        E 0 81 27 64
        E 0 80 2a 64
        E 0 81 2e 64
        E 0 81 21 64
        E 0 80 32 64
        E 0 80 1c 64
        E 0 81 1f 64
        E 178 81 1e 64
        E 0 81 1d 64
        E 0 80 24 64
        E 0 81 1a 64
        E 1 80 1e 64
        E 0 81 14 64
        E 44 90 29 64
        E 0 90 30 64
        E 0 90 34 64
        E 0 90 3a 64
        E 0 91 15 64
        E 0 91 17 64
        E 0 91 2b 64
        E 0 90 2d 64
        E 0 90 38 64
        E 0 91 20 64
        E 0 90 1e 64
        E 0 91 1c 64
        E 0 90 21 64
        E 0 90 20 64
        E 0 91 1b 64
        E 0 90 25 64
        E 0 90 27 64
        E 0 90 28 64
        E 0 90 36 64
        E 0 91 27 64
        E 0 90 2a 64
        E 0 91 2e 64
        E 0 91 21 64
        E 0 90 32 64
        E 0 91 14 64
        E 0 90 1c 64
        E 0 91 1f 64
        E 134 80 29 64
        E 0 80 30 64
        E 0 80 34 64
        E 0 80 3a 64
        E 0 81 15 64
        E 0 81 17 64
        E 0 81 2b 64
        E 0 80 2d 64
        E 0 80 38 64
        E 0 81 20 64
        E 0 80 1e 64
        E 0 81 1c 64
        E 0 80 21 64
        E 0 80 20 64
        E 0 81 1b 64
        E 0 80 25 64
        E 0 80 27 64
        E 0 80 28 64
        E 0 80 36 64
        E 0 81 27 64
        E 0 80 2a 64
        E 0 81 2e 64
        E 0 81 21 64
        E 0 80 32 64
        E 0 81 14 64
        E 0 80 1c 64
        E 0 81 1f 64
        E 89 90 29 64
        E 0 90 30 64
        E 0 90 34 64
        E 0 90 3a 64
        E 0 91 15 64
        E 0 91 17 64
        E 0 91 2b 64
        E 0 90 2d 64
        E 0 90 38 64
        E 0 91 20 64
        E 0 90 1e 64
        E 0 91 1c 64
        E 0 90 21 64
        E 0 90 20 64
        E 0 91 1b 64
        E 0 90 25 64
        E 0 90 27 64
        E 0 90 28 64
        E 0 90 36 64
        E 0 91 27 64
        E 0 90 2a 64
        E 0 91 2e 64
        E 0 91 21 64
        E 0 90 32 64
        E 0 91 14 64
        E 0 90 1c 64
        E 0 91 1f 64
        E 624 80 29 64
        E 0 80 30 64
        E 0 80 34 64
        E 0 80 3a 64
        E 0 81 15 64
        E 0 81 17 64
        E 0 81 2b 64
        E 0 80 2d 64
        E 0 80 38 64
        E 0 81 20 64
        E 0 80 1e 64
        E 0 81 1c 64
        E 0 80 21 64
        E 0 80 20 64
        E 0 81 1b 64
        E 0 80 25 64
        E 0 80 27 64
        E 0 80 28 64
        E 0 80 36 64
        E 0 81 27 64
        E 0 80 2a 64
        E 0 81 2e 64
        E 0 81 21 64
        E 0 80 32 64
        E 0 81 14 64
        E 0 80 1c 64
        E 0 81 1f 64
        E 312 90 29 64
        E 0 91 14 64
        E 0 91 10 64
        E 0 90 30 64
        E 0 90 34 64
        E 0 90 3a 64
        E 0 91 15 64
        E 0 91 17 64
        E 0 91 2b 64
        E 0 90 2d 64
        E 0 90 38 64
        E 0 91 20 64
        E 0 90 1e 64
        E 0 91 1c 64
        E 0 90 21 64
        E 0 90 20 64
        E 0 91 1b 64
        E 0 90 25 64
        E 0 90 27 64
        E 0 90 28 64
        E 0 90 36 64
        E 0 91 27 64
        E 0 90 2a 64
        E 0 91 2e 64
        E 0 91 21 64
        E 0 90 32 64
        E 0 91 14 64
        E 0 90 1c 64
        E 0 91 1f 64
        E 624 80 29 64
        E 0 80 30 64
        E 0 80 34 64
        E 0 80 3a 64
        E 0 81 15 64
        E 0 81 17 64
        E 0 81 2b 64
        E 0 80 2d 64
        E 0 80 38 64
        E 0 81 20 64
        E 0 80 1e 64
        E 0 81 1c 64
        E 0 80 21 64
        E 0 80 20 64
        E 0 81 1b 64
        E 0 80 25 64
        E 0 80 27 64
        E 0 80 28 64
        E 0 80 36 64
        E 0 81 27 64
        E 0 80 2a 64
        E 0 81 2e 64
        E 1 81 14 64
        E 0 81 21 64
        E 0 80 32 64
        E 0 80 1c 64
        E 0 81 1f 64
        E 267 81 14 64
        E 0 90 29 64
        E 0 90 30 64
        E 0 90 34 64
        E 0 90 3a 64
        E 0 91 15 64
        E 0 91 17 64
        E 0 91 2b 64
        E 0 90 2d 64
        E 0 90 38 64
        E 0 91 20 64
        E 0 90 1e 64
        E 0 91 1c 64
        E 0 90 21 64
        E 0 90 20 64
        E 0 91 1b 64
        E 0 90 25 64
        E 0 90 27 64
        E 0 90 28 64
        E 0 90 36 64
        E 0 91 27 64
        E 0 90 2a 64
        E 0 91 2e 64
        E 0 91 21 64
        E 0 90 32 64
        E 0 91 14 64
        E 0 90 1c 64
        E 0 91 1f 64
        E 178 80 29 64
        E 0 80 30 64
        E 0 80 34 64
        E 0 80 3a 64
        E 0 81 15 64
        E 0 81 17 64
        E 0 81 2b 64
        E 0 80 2d 64
        E 0 80 38 64
        E 0 81 20 64
        E 0 80 1e 64
        E 0 81 1c 64
        E 0 80 21 64
        E 0 80 20 64
        E 0 81 1b 64
        E 0 80 25 64
        E 0 80 27 64
        E 0 80 28 64
        E 0 80 36 64
        E 0 81 27 64
        E 0 80 2a 64
        E 0 81 2e 64
        E 0 81 21 64
        E 0 80 32 64
        E 0 81 14 64
        E 0 80 1c 64
        E 0 81 1f 64
        E 89 90 29 64
        E 0 90 1c 64
        E 0 90 30 64
        E 0 90 34 64
        E 0 90 3a 64
        E 0 91 15 64
        E 0 91 17 64
        E 0 91 2b 64
        E 0 90 2d 64
        E 0 90 38 64
        E 0 91 20 64
        E 0 90 1e 64
        E 0 91 1c 64
        E 0 90 21 64
        E 0 90 20 64
        E 0 91 1b 64
        E 0 90 25 64
        E 0 90 27 64
        E 0 90 28 64
        E 0 90 36 64
        E 0 91 27 64
        E 0 90 2a 64
        E 0 91 2e 64
        E 0 91 21 64
        E 0 90 32 64
        E 0 91 14 64
        E 0 90 1c 64
        E 0 91 1f 64
        E 669 80 29 64
        E 0 80 1c 64
        E 0 80 30 64
        E 0 80 34 64
        E 0 80 3a 64
        E 0 81 15 64
        E 0 81 17 64
        E 0 81 2b 64
        E 0 80 2d 64
        E 0 80 38 64
        E 0 81 20 64
        E 0 80 1e 64
        E 0 81 1c 64
        E 0 80 21 64
        E 0 80 20 64
        E 0 81 1b 64
        E 0 80 25 64
        E 0 80 27 64
        E 0 80 28 64
        E 0 80 36 64
        E 0 81 27 64
        E 0 80 2a 64
        E 0 81 2e 64
        E 0 81 21 64
        E 0 80 32 64
        E 0 81 14 64
        E 0 81 1f 64
        E 267 90 29 64
        E 1 90 30 64
        E 0 90 34 64
        E 0 90 3a 64
        E 0 91 15 64
        E 0 91 17 64
        E 0 91 2b 64
        E 0 90 2d 64
        E 0 90 38 64
        E 0 91 20 64
        E 0 90 1e 64
        E 0 91 1c 64
        E 0 90 21 64
        E 0 90 20 64
        E 0 91 1b 64
        E 0 90 25 64
        E 0 90 27 64
        E 0 90 28 64
        E 0 90 36 64
        E 0 91 27 64
        E 0 90 2a 64
        E 0 91 2e 64
        E 0 91 21 64
        E 0 90 32 64
        E 0 91 14 64
        E 0 90 1c 64
        E 0 91 1f 64
        E 490 80 1c 64
        E 45 80 29 64
        E 0 80 30 64
        E 0 80 34 64
        E 0 80 3a 64
        E 0 81 15 64
        E 0 81 17 64
        E 0 81 2b 64
        E 0 80 2d 64
        E 0 80 38 64
        E 0 81 20 64
        E 0 80 1e 64
        E 0 81 1c 64
        E 0 80 21 64
        E 0 80 20 64
        E 0 81 1b 64
        E 0 80 25 64
        E 0 80 27 64
        E 0 80 28 64
        E 0 80 36 64
        E 0 81 27 64
        E 0 80 2a 64
        E 0 81 2e 64
        E 0 81 21 64
        E 0 80 32 64
        E 0 81 14 64
        E 0 80 1c 64
        E 0 81 1f 64
        E 222 90 29 64
        E 0 91 14 64
        E 0 91 10 64
        E 0 90 30 64
        E 0 90 34 64
        E 0 90 3a 64
        E 0 91 15 64
        E 0 91 17 64
        E 0 91 2b 64
        E 0 90 2d 64
        E 0 90 38 64
        E 0 91 20 64
        E 0 90 1e 64
        E 0 91 1c 64
        E 0 90 21 64
        E 0 90 20 64
        E 0 91 1b 64
        E 0 90 25 64
        E 0 90 27 64
        E 0 90 28 64
        E 0 90 36 64
        E 0 91 27 64
        E 0 90 2a 64
        E 0 91 2e 64
        E 0 91 21 64
        E 0 90 32 64
        E 1 91 14 64
        E 0 90 1c 64
        E 0 91 1f 64
        E 534 80 29 64
        E 0 80 30 64
        E 0 80 34 64
        E 0 80 3a 64
        E 0 81 15 64
        E 0 81 17 64
        E 0 81 2b 64
        E 0 80 2d 64
        E 0 80 38 64
        E 1 81 14 64
        E 0 81 20 64
        E 0 80 1e 64
        E 0 81 1c 64
        E 0 80 21 64
        E 0 80 20 64
        E 0 81 1b 64
        E 0 80 25 64
        E 0 80 27 64
        E 0 80 28 64
        E 0 80 36 64
        E 0 81 27 64
        E 0 80 2a 64
        E 0 81 2e 64
        E 0 81 21 64
        E 0 80 32 64
        E 0 80 1c 64
        E 0 81 1f 64
        E 222 90 29 64
        E 0 90 30 64
        E 0 90 34 64
        E 0 90 3a 64
        E 0 91 15 64
        E 0 91 17 64
        E 0 91 2b 64
        E 0 90 2d 64
        E 0 90 38 64
        E 0 91 20 64
        E 0 90 1e 64
        E 0 91 1c 64
        E 0 90 21 64
        E 0 90 20 64
        E 0 91 1b 64
        E 0 90 25 64
        E 0 90 27 64
        E 0 90 28 64
        E 0 90 36 64
        E 0 91 27 64
        E 0 90 2a 64
        E 0 91 2e 64
        E 0 91 21 64
        E 0 90 32 64
        E 0 91 14 64
        E 1 90 1c 64
        E 0 91 1f 64
        E 0 91 12 64
        E 668 81 14 64
        E 0 80 29 64
        E 0 80 30 64
        E 0 80 34 64
        E 0 80 3a 64
        E 0 81 15 64
        E 0 81 17 64
        E 0 81 2b 64
        E 0 80 2d 64
        E 0 80 38 64
        E 0 81 20 64
        E 0 80 1e 64
        E 0 81 1c 64
        E 0 80 21 64
        E 0 80 20 64
        E 0 81 1b 64
        E 0 80 25 64
        E 0 80 27 64
        E 0 80 28 64
        E 0 80 36 64
        E 0 81 27 64
        E 0 80 2a 64
        E 0 81 2e 64
        E 0 81 21 64
        E 0 80 32 64
        E 0 80 1c 64
        E 0 81 1f 64
        E 0 81 12 64
        E 268 90 29 64
        E 0 90 30 64
        E 0 90 34 64
        E 0 90 3a 64
        E 0 91 15 64
        E 0 91 17 64
        E 0 91 2b 64
        E 0 90 2d 64
        E 0 90 38 64
        E 0 91 20 64
        E 0 90 1e 64
        E 0 91 1c 64
        E 0 90 21 64
        E 0 90 20 64
        E 0 91 1b 64
        E 0 90 25 64
        E 0 90 27 64
        E 0 90 28 64
        E 0 90 36 64
        E 0 91 27 64
        E 0 90 2a 64
        E 0 91 2e 64
        E 0 91 21 64
        E 0 90 32 64
        E 0 91 14 64
        E 0 90 1c 64
        E 0 91 1f 64
        E 0 91 12 64
        E 534 80 29 64
        E 0 80 30 64
        E 1 81 14 64
        E 0 80 34 64
        E 0 80 3a 64
        E 0 81 15 64
        E 0 81 17 64
        E 0 81 2b 64
        E 0 80 2d 64
        E 0 80 38 64
        E 0 81 20 64
        E 0 80 1e 64
        E 0 81 1c 64
        E 0 80 21 64
        E 0 80 20 64
        E 0 81 1b 64
        E 0 80 25 64
        E 0 80 27 64
        E 0 80 28 64
        E 0 80 36 64
        E 0 81 27 64
        E 0 80 2a 64
        E 0 81 2e 64
        E 0 81 21 64
        E 0 80 32 64
        E 0 80 1c 64
        E 0 81 1f 64
        E 0 81 12 64
        E 222 90 29 64
        E 0 90 30 64
        E 0 90 34 64
        E 0 90 3a 64
        E 0 91 15 64
        E 0 91 17 64
        E 1 91 2b 64
        E 0 90 2d 64
        E 0 90 38 64
        E 0 91 20 64
        E 0 90 1e 64
        E 0 91 1c 64
        E 0 90 21 64
        E 0 90 20 64
        E 0 91 1b 64
        E 0 90 25 64
        E 0 90 27 64
        E 0 90 28 64
        E 0 90 36 64
        E 0 91 27 64
        E 0 90 2a 64
        E 0 91 2e 64
        E 0 91 21 64
        E 0 90 32 64
        E 0 91 14 64
        E 0 90 1c 64
        E 0 91 1f 64
        E 0 91 12 64
        E 534 80 29 64
        E 0 80 30 64
        E 0 80 34 64
        E 0 80 3a 64
        E 0 81 15 64
        E 0 81 17 64
        E 1 81 14 64
        E 0 81 2b 64
        E 0 80 2d 64
        E 0 80 38 64
        E 0 81 20 64
        E 0 80 1e 64
        E 0 81 1c 64
        E 0 80 21 64
        E 0 80 20 64
        E 0 81 1b 64
        E 0 80 25 64
        E 0 80 27 64
        E 0 80 28 64
        E 0 80 36 64
        E 0 81 27 64
        E 0 80 2a 64
        E 0 81 2e 64
        E 0 81 21 64
        E 0 80 32 64
        E 0 80 1c 64
        E 0 81 1f 64
        E 0 81 12 64
        E 267 90 29 64
        E 0 90 30 64
        E 0 90 34 64
        E 0 90 3a 64
        E 0 91 15 64
        E 0 91 17 64
        E 0 91 2b 64
        E 0 90 2d 64
        E 0 90 38 64
        E 0 91 20 64
        E 0 90 1e 64
        E 0 91 1c 64
        E 0 90 21 64
        E 0 90 20 64
        E 0 91 1b 64
        E 0 90 25 64
        E 0 90 27 64
        E 0 90 28 64
        E 0 90 36 64
        E 0 91 27 64
        E 0 90 2a 64
        E 0 91 2e 64
        E 0 91 21 64
        E 0 90 32 64
        E 0 91 14 64
        E 0 90 1c 64
        E 0 91 1f 64
        E 0 91 12 64
        E 134 81 14 64
        E 0 80 29 64
        E 0 80 30 64
        E 0 80 34 64
        E 0 80 3a 64
        E 0 81 15 64
        E 0 81 17 64
        E 0 81 2b 64
        E 0 80 2d 64
        E 0 80 38 64
        E 0 81 20 64
        E 0 80 1e 64
        E 0 81 1c 64
        E 0 80 21 64
        E 0 80 20 64
        E 0 81 1b 64
        E 0 80 25 64
        E 0 80 27 64
        E 0 80 28 64
        E 0 80 36 64
        E 0 81 27 64
        E 0 80 2a 64
        E 0 81 2e 64
        E 0 81 21 64
        E 0 80 32 64
        E 0 80 1c 64
        E 0 81 1f 64
        E 0 81 12 64
        E 89 90 29 64
        E 0 90 30 64
        E 0 90 34 64
        E 0 90 3a 64
        E 0 91 15 64
        E 0 91 17 64
        E 0 91 2b 64
        E 0 90 2d 64
        E 0 90 38 64
        E 0 91 20 64
        E 0 90 1e 64
        E 0 91 1c 64
        E 0 90 21 64
        E 0 90 20 64
        E 0 91 1b 64
        E 0 90 25 64
        E 0 90 27 64
        E 0 90 28 64
        E 0 90 36 64
        E 0 91 27 64
        E 0 90 2a 64
        E 0 91 2e 64
        E 0 91 21 64
        E 0 90 32 64
        E 0 91 14 64
        E 0 90 1c 64
        E 0 91 1f 64
        E 0 91 12 64
        E 535 81 14 64
        E 0 80 29 64
        E 0 80 30 64
        E 0 80 34 64
        E 0 80 3a 64
        E 0 81 15 64
        E 0 81 17 64
        E 0 81 2b 64
        E 0 80 2d 64
        E 0 80 38 64
        E 0 81 20 64
        E 0 80 1e 64
        E 0 81 1c 64
        E 0 80 21 64
        E 0 80 20 64
        E 0 81 1b 64
        E 0 80 25 64
        E 0 80 27 64
        E 0 80 28 64
        E 0 80 36 64
        E 0 81 27 64
        E 0 80 2a 64
        E 0 81 2e 64
        E 0 81 21 64
        E 0 80 32 64
        E 0 80 1c 64
        E 0 81 1f 64
        E 0 81 12 64
        E 223 90 29 64
        E 0 90 30 64
        E 0 90 34 64
        E 0 90 3a 64
        E 0 91 15 64
        E 0 91 17 64
        E 0 91 2b 64
        E 0 90 2d 64
        E 0 90 38 64
        E 0 91 20 64
        E 0 90 1e 64
        E 0 91 1c 64
        E 0 90 21 64
        E 0 90 20 64
        E 0 91 1b 64
        E 0 90 25 64
        E 0 90 27 64
        E 0 90 28 64
        E 0 90 36 64
        E 0 91 27 64
        E 0 90 2a 64
        E 0 91 2e 64
        E 0 91 21 64
        E 0 90 32 64
        E 0 91 14 64
        E 0 90 1c 64
        E 0 91 1f 64
        E 0 91 12 64
        E 535 81 14 64
        E 0 80 29 64
        E 0 80 30 64
        E 0 80 34 64
        E 0 80 3a 64
        E 0 81 15 64
        E 0 81 17 64
        E 0 81 2b 64
        E 0 80 2d 64
        E 0 80 38 64
        E 0 81 20 64
        E 0 80 1e 64
        E 0 81 1c 64
        E 0 80 21 64
        E 0 80 20 64
        E 0 81 1b 64
        E 0 80 25 64
        E 0 80 27 64
        E 0 80 28 64
        E 0 80 36 64
        E 0 81 27 64
        E 0 80 2a 64
        E 0 81 2e 64
        E 0 81 21 64
        E 0 80 32 64
        E 0 80 1c 64
        E 0 81 1f 64
        E 0 81 12 64
        E 223 90 29 64
        E 0 90 30 64
        E 0 90 34 64
        E 0 90 3a 64
        E 0 91 15 64
        E 0 91 17 64
        E 0 91 2b 64
        E 0 90 2d 64
        E 0 90 38 64
        E 0 91 20 64
        E 0 90 1e 64
        E 0 91 1c 64
        E 0 90 21 64
        E 0 90 20 64
        E 0 91 1b 64
        E 0 90 25 64
        E 0 90 27 64
        E 0 90 28 64
        E 0 90 36 64
        E 0 91 27 64
        E 0 90 2a 64
        E 0 91 2e 64
        E 0 91 21 64
        E 0 90 32 64
        E 0 91 14 64
        E 0 90 1c 64
        E 0 91 1f 64
        E 0 91 12 64
        E 0 91 28 64
        E 535 81 10 64
        E 0 81 14 64
        E 0 80 29 64
        E 0 80 30 64
        E 0 80 34 64
        E 0 80 3a 64
        E 0 81 15 64
        E 0 81 17 64
        E 0 81 2b 64
        E 0 80 2d 64
        E 0 80 38 64
        E 0 81 20 64
        E 0 80 1e 64
        E 0 81 1c 64
        E 0 80 21 64
        E 0 80 20 64
        E 0 81 1b 64
        E 0 80 25 64
        E 0 80 27 64
        E 0 80 28 64
        E 0 80 36 64
        E 0 81 27 64
        E 0 80 2a 64
        E 0 81 2e 64
        E 0 81 21 64
        E 0 80 32 64
        E 0 81 14 64
        E 0 80 1c 64
        E 0 81 1f 64
        E 0 81 12 64
        E 0 81 28 64
        E 222 90 29 64
        E 0 90 30 64
        E 0 90 34 64
        E 0 90 3a 64
        E 1 91 15 64
        E 0 91 17 64
        E 0 91 2b 64
        E 0 90 2d 64
        E 0 90 38 64
        E 0 91 20 64
        E 0 90 1e 64
        E 0 91 1c 64
        E 0 90 21 64
        E 0 90 20 64
        E 0 91 1b 64
        E 0 90 25 64
        E 0 90 27 64
        E 0 90 28 64
        E 0 90 36 64
        E 0 91 27 64
        E 0 90 2a 64
        E 0 91 2e 64
        E 0 91 21 64
        E 0 90 32 64
        E 0 91 14 64
        E 0 90 1c 64
        E 0 91 1f 64
        E 0 91 12 64
        E 0 91 28 64
        E 535 80 29 64
        E 0 80 30 64
        E 0 80 34 64
        E 0 80 3a 64
        E 0 81 15 64
        E 0 81 17 64
        E 0 81 2b 64
        E 0 80 2d 64
        E 0 80 38 64
        E 0 81 20 64
        E 0 80 1e 64
        E 0 81 1c 64
        E 0 80 21 64
        E 0 80 20 64
        E 0 81 1b 64
        E 0 80 25 64
        E 0 80 27 64
        E 0 80 28 64
        E 0 80 36 64
        E 0 81 27 64
        E 0 80 2a 64
        E 0 81 2e 64
        E 0 81 21 64
        E 0 80 32 64
        E 0 81 14 64
        E 0 80 1c 64
        E 0 81 1f 64
        E 0 81 12 64
        E 0 81 28 64
        E 267 90 29 64
        E 0 90 30 64
        E 0 90 34 64
        E 0 90 3a 64
        E 0 91 15 64
        E 0 91 17 64
        E 0 91 2b 64
        E 0 90 2d 64
        E 0 90 38 64
        E 0 91 20 64
        E 0 90 1e 64
        E 0 91 1c 64
        E 0 90 21 64
        E 0 90 20 64
        E 0 91 1b 64
        E 0 90 25 64
        E 0 90 27 64
        E 0 90 28 64
        E 0 90 36 64
        E 0 91 27 64
        E 0 90 2a 64
        E 0 91 2e 64
        E 0 91 21 64
        E 0 90 32 64
        E 0 91 14 64
        E 0 90 1c 64
        E 0 91 1f 64
        E 0 91 12 64
        E 0 91 28 64
        E 535 80 29 64
        E 0 80 30 64
        E 0 80 34 64
        E 0 80 3a 64
        E 0 81 15 64
        E 0 81 17 64
        E 0 81 2b 64
        E 0 80 2d 64
        E 0 80 38 64
        E 0 81 20 64
        E 0 80 1e 64
        E 0 81 1c 64
        E 0 80 21 64
        E 0 80 20 64
        E 0 81 1b 64
        E 0 80 25 64
        E 0 80 27 64
        E 0 80 28 64
        E 0 80 36 64
        E 0 81 27 64
        E 0 80 2a 64
        E 0 81 2e 64
        E 0 81 21 64
        E 0 80 32 64
        E 0 81 14 64
        E 0 80 1c 64
        E 0 81 1f 64
        E 0 81 12 64
        E 0 81 28 64
        E 223 90 29 64
        E 0 90 30 64
        E 0 90 34 64
        E 0 90 3a 64
        E 0 91 15 64
        E 0 91 17 64
        E 0 91 2b 64
        E 0 90 2d 64
        E 0 90 38 64
        E 0 91 20 64
        E 0 90 1e 64
        E 0 91 1c 64
        E 0 90 21 64
        E 0 90 20 64
        E 0 91 1b 64
        E 0 90 25 64
        E 0 90 27 64
        E 0 90 28 64
        E 0 90 36 64
        E 0 91 27 64
        E 0 90 2a 64
        E 0 91 2e 64
        E 0 91 21 64
        E 0 90 32 64
        E 0 91 14 64
        E 0 90 1c 64
        E 0 91 1f 64
        E 0 91 12 64
        E 0 91 28 64
        E 535 80 29 64
        E 0 80 30 64
        E 0 80 34 64
        E 0 80 3a 64
        E 0 81 15 64
        E 0 81 17 64
        E 0 81 2b 64
        E 0 80 2d 64
        E 0 80 38 64
        E 0 81 20 64
        E 0 80 1e 64
        E 0 81 1c 64
        E 0 80 21 64
        E 0 80 20 64
        E 0 81 1b 64
        E 0 80 25 64
        E 0 80 27 64
        E 0 80 28 64
        E 0 80 36 64
        E 0 81 27 64
        E 0 80 2a 64
        E 0 81 2e 64
        E 0 81 21 64
        E 0 80 32 64
        E 0 81 14 64
        E 0 80 1c 64
        E 0 81 1f 64
        E 0 81 12 64
        E 0 81 28 64
        E 223 90 29 64
        E 0 90 30 64
        E 0 90 34 64
        E 0 90 3a 64
        E 0 91 15 64
        E 0 91 17 64
        E 0 91 2b 64
        E 0 90 2d 64
        E 0 90 38 64
        E 0 91 20 64
        E 0 90 1e 64
        E 0 91 1c 64
        E 0 90 21 64
        E 0 90 20 64
        E 0 91 1b 64
        E 0 90 25 64
        E 0 90 27 64
        E 0 90 28 64
        E 0 90 36 64
        E 0 91 27 64
        E 0 90 2a 64
        E 0 91 2e 64
        E 0 91 21 64
        E 0 90 32 64
        E 0 91 14 64
        E 0 90 1c 64
        E 0 91 1f 64
        E 0 91 12 64
        E 0 91 28 64
        E 535 80 29 64
        E 0 80 30 64
        E 0 80 34 64
        E 0 80 3a 64
        E 0 81 15 64
        E 0 81 17 64
        E 0 81 2b 64
        E 0 80 2d 64
        E 0 80 38 64
        E 0 81 20 64
        E 0 80 1e 64
        E 0 81 1c 64
        E 0 80 21 64
        E 0 80 20 64
        E 0 81 1b 64
        E 0 80 25 64
        E 0 80 27 64
        E 0 80 28 64
        E 0 80 36 64
        E 0 81 27 64
        E 0 80 2a 64
        E 0 81 2e 64
        E 0 81 21 64
        E 0 80 32 64
        E 0 81 14 64
        E 0 80 1c 64
        E 0 81 1f 64
        E 0 81 12 64
        E 0 81 28 64
        E 223 90 29 64
        E 0 91 1e 64
        E 0 90 30 64
        E 0 90 34 64
        E 0 90 3a 64
        E 0 91 15 64
        E 0 91 17 64
        E 0 91 2b 64
        E 0 90 2d 64
        E 0 90 38 64
        E 0 91 20 64
        E 0 90 1e 64
        E 0 91 1c 64
        E 0 90 21 64
        E 0 90 20 64
        E 0 91 1b 64
        E 0 90 25 64
        E 0 90 27 64
        E 0 90 28 64
        E 0 90 36 64
        E 0 91 27 64
        E 0 90 2a 64
        E 0 91 2e 64
        E 0 91 21 64
        E 0 90 32 64
        E 0 91 14 64
        E 0 90 1c 64
        E 0 91 1f 64
        E 0 91 12 64
        E 0 91 28 64
        E 535 80 29 64
        E 0 80 30 64
        E 0 80 34 64
        E 0 80 3a 64
        E 0 81 15 64
        E 0 81 17 64
        E 0 81 2b 64
        E 0 80 2d 64
        E 0 80 38 64
        E 0 81 20 64
        E 0 80 1e 64
        E 0 81 1c 64
        E 0 80 21 64
        E 0 80 20 64
        E 0 81 1b 64
        E 0 80 25 64
        E 0 80 27 64
        E 0 80 28 64
        E 0 80 36 64
        E 0 81 27 64
        E 0 80 2a 64
        E 0 81 2e 64
        E 0 81 21 64
        E 0 80 32 64
        E 0 81 14 64
        E 0 80 1c 64
        E 0 81 1f 64
        E 0 81 12 64
        E 0 81 28 64
        E 267 90 29 64
        E 0 90 30 64
        E 0 90 34 64
        E 0 90 3a 64
        E 0 91 15 64
        E 0 91 17 64
        E 0 91 2b 64
        E 0 90 2d 64
        E 0 90 38 64
        E 0 91 20 64
        E 0 90 1e 64
        E 0 91 1c 64
        E 0 90 21 64
        E 0 90 20 64
        E 0 91 1b 64
        E 0 90 25 64
        E 0 90 27 64
        E 0 90 28 64
        E 0 90 36 64
        E 0 91 27 64
        E 0 90 2a 64
        E 0 91 2e 64
        E 0 91 21 64
        E 0 90 32 64
        E 0 91 14 64
        E 0 90 1c 64
        E 0 91 1f 64
        E 0 91 12 64
        E 0 91 28 64
        E 535 80 29 64
        E 0 80 30 64
        E 0 80 34 64
        E 0 80 3a 64
        E 0 81 15 64
        E 0 81 17 64
        E 0 81 2b 64
        E 0 80 2d 64
        E 0 80 38 64
        E 0 81 20 64
        E 0 80 1e 64
        E 0 81 1c 64
        E 0 80 21 64
        E 0 80 20 64
        E 0 81 1b 64
        E 0 80 25 64
        E 0 80 27 64
        E 0 80 28 64
        E 0 80 36 64
        E 0 81 27 64
        E 0 80 2a 64
        E 0 81 2e 64
        E 0 81 21 64
        E 0 80 32 64
        E 0 81 14 64
        E 0 80 1c 64
        E 0 81 1f 64
        E 0 81 12 64
        E 0 81 28 64
        E 223 90 29 64
        E 0 91 1d 64
        E 0 90 30 64
        E 0 90 34 64
        E 0 90 3a 64
        E 0 91 15 64
        E 0 91 17 64
        E 0 91 2b 64
        E 0 90 2d 64
        E 0 90 38 64
        E 0 91 20 64
        E 0 90 1e 64
        E 0 91 1c 64
        E 0 90 21 64
        E 0 90 20 64
        E 0 91 1b 64
        E 0 90 25 64
        E 0 90 27 64
        E 0 90 28 64
        E 0 90 36 64
        E 0 91 27 64
        E 0 90 2a 64
        E 0 91 2e 64
        E 0 91 21 64
        E 0 90 32 64
        E 0 91 14 64
        E 0 90 1c 64
        E 0 91 1f 64
        E 0 91 12 64
        E 0 91 28 64
        E 535 80 29 64
        E 0 80 30 64
        E 0 80 34 64
        E 0 80 3a 64
        E 0 81 15 64
        E 0 81 17 64
        E 0 81 2b 64
        E 0 80 2d 64
        E 0 80 38 64
        E 0 81 20 64
        E 0 80 1e 64
        E 0 81 1c 64
        E 0 80 21 64
        E 0 80 20 64
        E 0 81 1b 64
        E 0 80 25 64
        E 0 80 27 64
        E 0 80 28 64
        E 0 80 36 64
        E 0 81 27 64
        E 0 80 2a 64
        E 0 81 2e 64
        E 0 81 21 64
        E 0 80 32 64
        E 0 81 14 64
        E 0 80 1c 64
        E 0 81 1f 64
        E 0 81 12 64
        E 0 81 28 64
        E 223 90 29 64
        E 0 90 30 64
        E 0 90 34 64
        E 0 90 3a 64
        E 0 91 15 64
        E 0 91 17 64
        E 0 91 2b 64
        E 0 90 2d 64
        E 0 90 38 64
        E 0 91 20 64
        E 0 90 1e 64
        E 0 91 1c 64
        E 0 90 21 64
        E 0 90 20 64
        E 0 91 1b 64
        E 0 90 25 64
        E 0 90 27 64
        E 0 90 28 64
        E 0 90 36 64
        E 0 91 27 64
        E 0 90 2a 64
        E 0 91 2e 64
        E 0 91 21 64
        E 0 90 32 64
        E 0 91 14 64
        E 0 90 1c 64
        E 0 91 1f 64
        E 0 91 12 64
        E 0 91 28 64
        E 624 80 29 64
        E 0 80 30 64
        E 0 80 34 64
        E 0 80 3a 64
        E 0 81 15 64
        E 0 81 17 64
        E 0 81 2b 64
        E 0 80 2d 64
        E 0 80 38 64
        E 0 81 20 64
        E 0 80 1e 64
        E 0 81 1c 64
        E 0 80 21 64
        E 0 80 20 64
        E 0 81 1b 64
        E 0 80 25 64
        E 0 80 27 64
        E 0 80 28 64
        E 0 80 36 64
        E 0 81 27 64
        E 0 80 2a 64
        E 0 81 2e 64
        E 0 81 21 64
        E 0 80 32 64
        E 0 81 14 64
        E 0 80 1c 64
        E 0 81 1f 64
        E 0 81 12 64
        E 0 81 28 64
        E 45 81 1d 64
        E 267 90 29 64
        E 0 90 29 64
        E 0 91 1a 64
        E 0 90 30 64
        E 0 90 34 64
        E 0 90 3a 64
        E 0 91 15 64
        E 0 91 17 64
        E 0 91 2b 64
        E 0 90 2d 64
        E 0 90 38 64
        E 0 91 20 64
        E 0 90 1e 64
        E 0 91 1c 64
        E 0 90 21 64
        E 0 90 20 64
        E 0 91 1b 64
        E 0 90 25 64
        E 0 90 27 64
        E 0 90 28 64
        E 0 90 36 64
        E 0 91 27 64
        E 0 90 2a 64
        E 0 91 2e 64
        E 0 91 21 64
        E 0 90 32 64
        E 0 91 14 64
        E 0 90 1c 64
        E 0 91 1f 64
        E 0 91 12 64
        E 0 91 28 64
        E 535 80 29 64
        E 0 80 30 64
        E 0 80 34 64
        E 0 80 3a 64
        E 0 81 15 64
        E 0 81 17 64
        E 0 81 2b 64
        E 0 80 2d 64
        E 0 80 38 64
        E 0 81 20 64
        E 0 80 1e 64
        E 0 81 1c 64
        E 0 80 21 64
        E 0 80 20 64
        E 0 81 1b 64
        E 0 80 25 64
        E 0 80 27 64
        E 0 80 28 64
        E 0 80 36 64
        E 0 81 27 64
        E 0 80 2a 64
        E 0 81 2e 64
        E 0 81 21 64
        E 0 80 32 64
        E 0 81 14 64
        E 0 80 1c 64
        E 0 81 1f 64
        E 0 81 12 64
        E 0 81 28 64
        E 223 90 29 64
        E 0 90 30 64
        E 0 90 34 64
        E 0 90 3a 64
        E 0 91 15 64
        E 0 91 17 64
        E 0 91 2b 64
        E 0 90 2d 64
        E 0 90 38 64
        E 0 91 20 64
        E 0 90 1e 64
        E 0 91 1c 64
        E 0 90 21 64
        E 0 90 20 64
        E 0 91 1b 64
        E 0 90 25 64
        E 0 90 27 64
        E 0 90 28 64
        E 0 90 36 64
        E 0 91 27 64
        E 0 90 2a 64
        E 0 91 2e 64
        E 0 91 21 64
        E 0 90 32 64
        E 0 91 14 64
        E 0 90 1c 64
        E 0 91 1f 64
        E 0 91 12 64
        E 0 91 28 64
        E 535 80 29 64
        E 0 80 30 64
        E 0 80 34 64
        E 0 80 3a 64
        E 0 81 15 64
        E 0 81 17 64
        E 0 81 2b 64
        E 0 80 2d 64
        E 0 80 38 64
        E 0 81 20 64
        E 0 80 1e 64
        E 0 81 1c 64
        E 0 80 21 64
        E 0 80 20 64
        E 0 81 1b 64
        E 0 80 25 64
        E 0 80 27 64
        E 0 80 28 64
        E 0 80 36 64
        E 0 81 27 64
        E 0 80 2a 64
        E 0 81 2e 64
        E 0 81 21 64
        E 0 80 32 64
        E 0 81 14 64
        E 0 80 1c 64
        E 0 81 1f 64
        E 0 81 12 64
        E 0 81 28 64
        E 223 90 29 64
        E 0 90 30 64
        E 0 90 34 64
        E 0 90 3a 64
        E 0 91 15 64
        E 0 91 17 64
        E 0 91 2b 64
        E 0 90 2d 64
        E 0 90 38 64
        E 0 91 20 64
        E 0 90 1e 64
        E 0 91 1c 64
        E 0 90 21 64
        E 0 90 20 64
        E 0 91 1b 64
        E 0 90 25 64
        E 0 90 27 64
        E 0 90 28 64
        E 0 90 36 64
        E 0 91 27 64
        E 0 90 2a 64
        E 0 91 2e 64
        E 0 91 21 64
        E 0 90 32 64
        E 0 91 14 64
        E 0 90 1c 64
        E 0 91 1f 64
        E 0 91 12 64
        E 0 91 28 64
        E 535 80 29 64
        E 0 80 30 64
        E 0 80 34 64
        E 0 80 3a 64
        E 0 81 15 64
        E 0 81 17 64
        E 0 81 2b 64
        E 0 80 2d 64
        E 0 80 38 64
        E 0 81 20 64
        E 0 80 1e 64
        E 0 81 1c 64
        E 0 80 21 64
        E 0 80 20 64
        E 0 81 1b 64
        E 0 80 25 64
        E 0 80 27 64
        E 0 80 28 64
        E 0 80 36 64
        E 0 81 27 64
        E 0 80 2a 64
        E 0 81 2e 64
        E 0 81 21 64
        E 0 80 32 64
        E 0 81 14 64
        E 0 80 1c 64
        E 0 81 1f 64
        E 0 81 12 64
        E 0 81 28 64
        E 223 90 29 64
        E 0 90 30 64
        E 0 90 34 64
        E 0 90 3a 64
        E 0 91 15 64
        E 0 91 17 64
        E 0 91 2b 64
        E 0 90 2d 64
        E 0 90 38 64
        E 0 91 20 64
        E 0 90 1e 64
        E 0 91 1c 64
        E 0 90 21 64
        E 0 90 20 64
        E 0 91 1b 64
        E 0 90 25 64
        E 0 90 27 64
        E 0 90 28 64
        E 0 90 36 64
        E 0 91 27 64
        E 0 90 2a 64
        E 0 91 2e 64
        E 0 91 21 64
        E 0 90 32 64
        E 0 91 14 64
        E 0 90 1c 64
        E 0 91 1f 64
        E 0 91 12 64
        E 0 91 28 64
        E 535 81 1a 64
        E 0 80 29 64
        E 0 80 29 64
        E 0 80 30 64
        E 0 80 34 64
        E 0 80 3a 64
        E 0 81 15 64
        E 0 81 17 64
        E 0 81 2b 64
        E 0 80 2d 64
        E 0 80 38 64
        E 0 81 20 64
        E 0 80 1e 64
        E 0 81 1c 64
        E 0 80 21 64
        E 0 80 20 64
        E 0 81 1b 64
        E 0 80 25 64
        E 0 80 27 64
        E 0 80 28 64
        E 0 80 36 64
        E 0 81 27 64
        E 0 80 2a 64
        E 0 81 2e 64
        E 0 81 21 64
        E 0 80 32 64
        E 0 81 14 64
        E 0 80 1c 64
        E 0 81 1f 64
        E 0 81 12 64
        E 0 81 28 64
        E 267 90 29 64
        E 0 90 24 64
        E 0 90 30 64
        E 0 90 34 64
        E 0 90 3a 64
        E 0 91 15 64
        E 0 91 17 64
        E 0 91 2b 64
        E 0 90 2d 64
        E 0 90 38 64
        E 0 91 20 64
        E 0 90 1e 64
        E 0 91 1c 64
        E 0 90 21 64
        E 0 90 20 64
        E 0 91 1b 64
        E 0 90 25 64
        E 1 90 27 64
        E 0 90 28 64
        E 0 90 36 64
        E 0 91 27 64
        E 0 90 2a 64
        E 0 91 2e 64
        E 0 91 21 64
        E 0 90 32 64
        E 0 91 14 64
        E 0 90 1c 64
        E 0 91 1f 64
        E 0 91 12 64
        E 0 91 28 64
        E 534 80 29 64
        E 0 80 30 64
        E 0 80 34 64
        E 0 80 3a 64
        E 0 81 15 64
        E 0 81 17 64
        E 0 81 2b 64
        E 0 80 2d 64
        E 0 80 38 64
        E 0 81 20 64
        E 0 80 1e 64
        E 0 81 1c 64
        E 0 80 21 64
        E 0 80 20 64
        E 0 81 1b 64
        E 0 80 25 64
        E 0 80 27 64
        E 0 80 28 64
        E 0 80 36 64
        E 0 81 27 64
        E 0 80 2a 64
        E 0 81 2e 64
        E 0 81 21 64
        E 0 80 32 64
        E 1 81 14 64
        E 0 80 1c 64
        E 0 81 1f 64
        E 0 81 12 64
        E 0 81 28 64
        E 222 90 29 64
        E 0 90 30 64
        E 0 90 34 64
        E 0 90 3a 64
        E 0 91 15 64
        E 0 91 17 64
        E 0 91 2b 64
        E 0 90 2d 64
        E 0 90 38 64
        E 0 91 20 64
        E 0 90 1e 64
        E 0 91 1c 64
        E 0 90 21 64
        E 0 90 20 64
        E 0 91 1b 64
        E 0 90 25 64
        E 0 90 27 64
        E 0 90 28 64
        E 0 90 36 64
        E 0 91 27 64
        E 0 90 2a 64
        E 0 91 2e 64
        E 0 91 21 64
        E 0 90 32 64
        E 0 91 14 64
        E 1 90 1c 64
        E 0 91 1f 64
        E 0 91 12 64
        E 0 91 28 64
        E 534 80 29 64
        E 0 80 30 64
        E 0 80 34 64
        E 0 80 3a 64
        E 0 81 15 64
        E 0 81 17 64
        E 0 81 2b 64
        E 0 80 2d 64
        E 0 80 38 64
        E 0 81 20 64
        E 0 80 1e 64
        E 0 81 1c 64
        E 0 80 21 64
        E 0 80 20 64
        E 0 81 1b 64
        E 0 80 25 64
        E 0 80 27 64
        E 0 80 28 64
        E 0 80 36 64
        E 0 81 27 64
        E 0 80 2a 64
        E 0 81 2e 64
        E 0 81 21 64
        E 0 80 32 64
        E 0 81 14 64
        E 1 80 1c 64
        E 0 81 1f 64
        E 0 81 12 64
        E 0 81 28 64
        E 222 90 29 64
        E 0 90 21 64
        E 0 90 30 64
        E 0 90 34 64
        E 0 90 3a 64
        E 0 91 15 64
        E 0 91 17 64
        E 0 91 2b 64
        E 0 90 2d 64
        E 0 90 38 64
        E 0 91 20 64
        E 0 90 1e 64
        E 0 91 1c 64
        E 0 90 21 64
        E 0 90 20 64
        E 0 91 1b 64
        E 0 90 25 64
        E 0 90 27 64
        E 0 90 28 64
        E 0 90 36 64
        E 0 91 27 64
        E 0 90 2a 64
        E 0 91 2e 64
        E 0 91 21 64
        E 0 90 32 64
        E 0 91 14 64
        E 0 90 1c 64
        E 0 91 1f 64
        E 0 91 12 64
        E 0 91 28 64
        E 535 80 29 64
        E 0 80 21 64
        E 0 80 30 64
        E 0 80 34 64
        E 0 80 3a 64
        E 0 81 15 64
        E 0 81 17 64
        E 0 81 2b 64
        E 0 80 2d 64
        E 0 80 38 64
        E 0 81 20 64
        E 0 80 1e 64
        E 0 81 1c 64
        E 0 80 20 64
        E 0 81 1b 64
        E 0 80 25 64
        E 0 80 27 64
        E 0 80 28 64
        E 0 80 36 64
        E 0 81 27 64
        E 0 80 2a 64
        E 0 81 2e 64
        E 0 81 21 64
        E 0 80 32 64
        E 0 81 14 64
        E 0 80 1c 64
        E 0 81 1f 64
        E 0 81 12 64
        E 0 81 28 64
        E 223 90 29 64
        E 0 90 30 64
        E 0 90 34 64
        E 0 90 3a 64
        E 0 91 15 64
        E 0 91 17 64
        E 0 91 2b 64
        E 0 90 2d 64
        E 0 90 38 64
        E 0 91 20 64
        E 0 90 1e 64
        E 0 91 1c 64
        E 0 90 21 64
        E 0 90 20 64
        E 0 91 1b 64
        E 0 90 25 64
        E 0 90 27 64
        E 0 90 28 64
        E 0 90 36 64
        E 0 91 27 64
        E 0 90 2a 64
        E 0 91 2e 64
        E 0 91 21 64
        E 0 90 32 64
        E 0 91 14 64
        E 0 90 1c 64
        E 0 91 1f 64
        E 0 91 12 64
        E 0 91 28 64
        E 535 80 24 64
        E 0 80 21 64
        E 0 80 29 64
        E 0 80 30 64
        E 0 80 34 64
        E 0 80 3a 64
        E 0 81 15 64
        E 0 81 17 64
        E 0 81 2b 64
        E 0 80 2d 64
        E 0 80 38 64
        E 0 81 20 64
        E 0 80 1e 64
        E 0 81 1c 64
        E 0 80 21 64
        E 0 80 20 64
        E 0 81 1b 64
        E 0 80 25 64
        E 0 80 27 64
        E 0 80 28 64
        E 0 80 36 64
        E 0 81 27 64
        E 0 80 2a 64
        E 0 81 2e 64
        E 0 81 21 64
        E 0 80 32 64
        E 0 81 14 64
        E 0 80 1c 64
        E 0 81 1f 64
        E 0 81 12 64
        E 0 81 28 64
        E 223 90 29 64
        E 0 90 1e 64
        E 0 90 24 64
        E 0 91 1a 64
        E 0 90 30 64
        E 0 90 34 64
        E 0 90 3a 64
        E 0 91 15 64
        E 0 91 17 64
        E 0 91 2b 64
        E 0 90 2d 64
        E 0 90 38 64
        E 0 91 20 64
        E 0 90 1e 64
        E 0 91 1c 64
        E 0 90 21 64
        E 0 90 20 64
        E 0 91 1b 64
        E 0 90 25 64
        E 0 90 27 64
        E 0 90 28 64
        E 0 90 36 64
        E 0 91 27 64
        E 0 90 2a 64
        E 0 91 2e 64
        E 0 91 21 64
        E 0 90 32 64
        E 0 91 14 64
        E 0 90 1c 64
        E 0 91 1f 64
        E 0 91 12 64
        E 0 91 28 64
        E 535 80 29 64
        E 0 80 30 64
        E 45 80 1e 64
        E 0 80 34 64
        E 0 80 3a 64
        E 0 81 15 64
        E 0 81 17 64
        E 0 81 2b 64
        E 0 80 2d 64
        E 0 80 38 64
        E 0 81 20 64
        E 0 81 1c 64
        E 0 80 21 64
        E 0 80 20 64
        E 0 81 1b 64
        E 0 80 25 64
        E 0 80 27 64
        E 0 80 28 64
        E 0 80 36 64
        E 0 81 27 64
        E 0 80 2a 64
        E 0 81 2e 64
        E 0 81 21 64
        E 0 80 32 64
        E 0 81 14 64
        E 0 80 1c 64
        E 0 81 1f 64
        E 0 81 12 64
        E 0 81 28 64
        E 222 90 29 64
        E 0 90 30 64
        E 0 90 34 64
        E 0 90 3a 64
        E 0 91 15 64
        E 1 91 17 64
        E 0 91 2b 64
        E 0 90 2d 64
        E 0 90 38 64
        E 0 91 20 64
        E 0 90 1e 64
        E 0 91 1c 64
        E 0 90 21 64
        E 0 90 20 64
        E 0 91 1b 64
        E 0 90 25 64
        E 0 90 27 64
        E 0 90 28 64
        E 0 90 36 64
        E 0 91 27 64
        E 0 90 2a 64
        E 0 91 2e 64
        E 0 91 21 64
        E 0 90 32 64
        E 0 91 14 64
        E 0 90 1c 64
        E 0 91 1f 64
        E 0 91 12 64
        E 0 91 28 64
        E 534 80 1e 64
        E 0 80 29 64
        E 0 80 30 64
        E 0 80 34 64
        E 0 80 3a 64
        E 0 81 15 64
        E 0 81 17 64
        E 0 81 2b 64
        E 0 80 2d 64
        E 0 80 38 64
        E 0 81 20 64
        E 0 81 1c 64
        E 1 80 21 64
        E 0 80 20 64
        E 0 81 1b 64
        E 0 80 25 64
        E 0 80 27 64
        E 0 80 28 64
        E 0 80 36 64
        E 0 81 27 64
        E 0 80 2a 64
        E 0 81 2e 64
        E 0 81 21 64
        E 0 80 32 64
        E 0 81 14 64
        E 0 80 1c 64
        E 0 81 1f 64
        E 0 81 12 64
        E 0 81 28 64
        E 222 90 29 64
        E 0 90 30 64
        E 0 90 34 64
        E 0 90 3a 64
        E 0 91 15 64
        E 0 91 17 64
        E 0 91 2b 64
        E 0 90 2d 64
        E 0 90 38 64
        E 0 91 20 64
        E 0 90 1e 64
        E 0 91 1c 64
        E 0 90 21 64
        E 0 90 20 64
        E 0 91 1b 64
        E 0 90 25 64
        E 0 90 27 64
        E 0 90 28 64
        E 0 90 36 64
        E 0 91 27 64
        E 1 90 2a 64
        E 0 91 2e 64
        E 0 91 21 64
        E 0 90 32 64
        E 0 91 14 64
        E 0 90 1c 64
        E 0 91 1f 64
        E 0 91 12 64
        E 0 91 28 64
        E 534 80 1e 64
        E 0 80 29 64
        E 0 80 30 64
        E 0 80 34 64
        E 0 80 3a 64
        E 0 81 15 64
        E 0 81 17 64
        E 0 81 2b 64
        E 0 80 2d 64
        E 0 80 38 64
        E 0 81 20 64
        E 0 81 1c 64
        E 0 80 21 64
        E 0 80 20 64
        E 0 81 1b 64
        E 0 80 25 64
        E 0 80 27 64
        E 0 80 28 64
        E 0 80 36 64
        E 0 81 27 64
        E 1 80 2a 64
        E 0 81 2e 64
        E 0 81 21 64
        E 0 80 32 64
        E 0 81 14 64
        E 0 80 1c 64
        E 0 81 1f 64
        E 0 81 12 64
        E 0 81 28 64
        E 222 90 29 64
        E 0 90 30 64
        E 0 90 34 64
        E 0 90 3a 64
        E 0 91 15 64
        E 0 91 17 64
        E 0 91 2b 64
        E 0 90 2d 64
        E 0 90 38 64
        E 0 91 20 64
        E 0 90 1e 64
        E 0 91 1c 64
        E 0 90 21 64
        E 0 90 20 64
        E 0 91 1b 64
        E 0 90 25 64
        E 0 90 27 64
        E 0 90 28 64
        E 0 90 36 64
        E 0 91 27 64
        E 0 90 2a 64
        E 0 91 2e 64
        E 0 91 21 64
        E 0 90 32 64
        E 0 91 14 64
        E 0 90 1c 64
        E 0 91 1f 64
        E 0 91 12 64
        E 0 91 28 64
        E 535 80 1e 64
        E 0 80 29 64
        E 0 80 30 64
        E 0 80 34 64
        E 0 80 3a 64
        E 0 81 15 64
        E 0 81 17 64
        E 0 81 2b 64
        E 0 80 2d 64
        E 0 80 38 64
        E 0 81 20 64
        E 0 81 1c 64
        E 0 80 21 64
        E 0 80 20 64
        E 0 81 1b 64
        E 0 80 25 64
        E 0 80 27 64
        E 0 80 28 64
        E 0 80 36 64
        E 0 81 27 64
        E 0 80 2a 64
        E 0 81 2e 64
        E 0 81 21 64
        E 0 80 32 64
        E 0 81 14 64
        E 0 80 1c 64
        E 0 81 1f 64
        E 0 81 12 64
        E 0 81 28 64
        E 223 90 29 64
        E 0 91 14 64
        E 0 90 30 64
        E 0 90 34 64
        E 0 90 3a 64
        E 0 91 15 64
        E 0 91 17 64
        E 0 91 2b 64
        E 0 90 2d 64
        E 0 90 38 64
        E 0 91 20 64
        E 0 90 1e 64
        E 0 91 1c 64
        E 0 90 21 64
        E 0 90 20 64
        E 0 91 1b 64
        E 0 90 25 64
        E 0 90 27 64
        E 0 90 28 64
        E 0 90 36 64
        E 0 91 27 64
        E 0 90 2a 64
        E 0 91 2e 64
        E 0 91 21 64
        E 0 90 32 64
        E 0 91 14 64
        E 0 90 1c 64
        E 0 91 1f 64
        E 0 91 12 64
        E 0 91 28 64
        E 535 80 1e 64
        E 0 80 29 64
        E 0 81 14 64
        E 0 80 30 64
        E 0 80 34 64
        E 0 80 3a 64
        E 0 81 15 64
        E 0 81 17 64
        E 0 81 2b 64
        E 0 80 2d 64
        E 0 80 38 64
        E 0 81 20 64
        E 0 81 1c 64
        E 0 80 21 64
        E 0 80 20 64
        E 0 81 1b 64
        E 0 80 25 64
        E 0 80 27 64
        E 0 80 28 64
        E 0 80 36 64
        E 0 81 27 64
        E 0 80 2a 64
        E 0 81 2e 64
        E 0 81 21 64
        E 0 80 32 64
        E 0 80 1c 64
        E 0 81 1f 64
        E 0 81 12 64
        E 0 81 28 64
        E 223 81 14 64
        E 45 90 29 64
        E 0 90 30 64
        E 0 90 34 64
        E 0 90 3a 64
        E 0 91 15 64
        E 0 91 17 64
        E 0 91 2b 64
        E 0 90 2d 64
        E 0 90 38 64
        E 0 91 20 64
        E 0 90 1e 64
        E 0 91 1c 64
        E 0 90 21 64
        E 0 90 20 64
        E 0 91 1b 64
        E 0 90 25 64
        E 0 90 27 64
        E 0 90 28 64
        E 0 90 36 64
        E 0 91 27 64
        E 0 90 2a 64
        E 0 91 2e 64
        E 0 91 21 64
        E 0 90 32 64
        E 0 91 14 64
        E 0 90 1c 64
        E 0 91 1f 64
        E 0 91 12 64
        E 0 91 28 64
        E 133 80 1e 64
        E 0 80 29 64
        E 0 80 30 64
        E 0 80 34 64
        E 0 80 3a 64
        E 0 81 15 64
        E 0 81 17 64
        E 0 81 2b 64
        E 0 80 2d 64
        E 0 80 38 64
        E 0 81 20 64
        E 0 81 1c 64
        E 0 80 21 64
        E 0 80 20 64
        E 0 81 1b 64
        E 0 80 25 64
        E 0 80 27 64
        E 0 80 28 64
        E 0 80 36 64
        E 0 81 27 64
        E 0 80 2a 64
        E 0 81 2e 64
        E 0 81 21 64
        E 0 80 32 64
        E 0 81 14 64
        E 0 80 1c 64
        E 0 81 1f 64
        E 0 81 12 64
        E 0 81 28 64
        E 90 90 29 64
        E 0 90 1c 64
        E 0 90 30 64
        E 0 90 34 64
        E 0 90 3a 64
        E 0 91 15 64
        E 0 91 17 64
        E 0 91 2b 64
        E 0 90 2d 64
        E 0 90 38 64
        E 0 91 20 64
        E 0 90 1e 64
        E 0 91 1c 64
        E 0 90 21 64
        E 0 90 20 64
        E 0 91 1b 64
        E 0 90 25 64
        E 0 90 27 64
        E 0 90 28 64
        E 0 90 36 64
        E 0 91 27 64
        E 0 90 2a 64
        E 0 91 2e 64
        E 0 91 21 64
        E 0 90 32 64
        E 0 91 14 64
        E 0 90 1c 64
        E 0 91 1f 64
        E 0 91 12 64
        E 0 91 28 64
        E 535 80 1e 64
        E 0 80 29 64
        E 0 80 1c 64
        E 0 80 30 64
        E 0 80 34 64
        E 0 80 3a 64
        E 0 81 15 64
        E 0 81 17 64
        E 0 81 2b 64
        E 0 80 2d 64
        E 0 80 38 64
        E 0 81 20 64
        E 0 81 1c 64
        E 0 80 21 64
        E 0 80 20 64
        E 0 81 1b 64
        E 0 80 25 64
        E 0 80 27 64
        E 0 80 28 64
        E 0 80 36 64
        E 0 81 27 64
        E 0 80 2a 64
        E 0 81 2e 64
        E 0 81 21 64
        E 0 80 32 64
        E 0 81 14 64
        E 0 81 1f 64
        E 0 81 12 64
        E 0 81 28 64
        E 222 90 29 64
        E 0 90 30 64
        E 0 90 34 64
        E 0 90 3a 64
        E 0 91 15 64
        E 0 91 17 64
        E 0 91 2b 64
        E 0 90 2d 64
        E 0 90 38 64
        E 0 91 20 64
        E 0 90 1e 64
        E 0 91 1c 64
        E 0 90 21 64
        E 1 90 20 64
        E 0 91 1b 64
        E 0 90 25 64
        E 0 90 27 64
        E 0 90 28 64
        E 0 90 36 64
        E 0 91 27 64
        E 0 90 2a 64
        E 0 91 2e 64
        E 0 91 21 64
        E 0 90 32 64
        E 0 91 14 64
        E 0 90 1c 64
        E 0 91 1f 64
        E 0 91 12 64
        E 0 91 28 64
        E 0 90 26 64
        E 490 80 1c 64
        E 45 80 1e 64
        E 0 80 29 64
        E 0 80 30 64
        E 0 80 34 64
        E 0 80 3a 64
        E 0 81 15 64
        E 0 81 17 64
        E 0 81 2b 64
        E 0 80 2d 64
        E 0 80 38 64
        E 0 81 20 64
        E 0 81 1c 64
        E 0 80 21 64
        E 0 80 20 64
        E 0 81 1b 64
        E 0 80 25 64
        E 0 80 27 64
        E 0 80 28 64
        E 0 80 36 64
        E 0 81 27 64
        E 0 80 2a 64
        E 0 81 2e 64
        E 0 81 21 64
        E 0 80 32 64
        E 0 81 14 64
        E 0 80 1c 64
        E 0 81 1f 64
        E 0 81 12 64
        E 0 81 28 64
        E 0 80 26 64
        E 222 90 29 64
        E 0 91 14 64
        E 0 91 10 64
        E 0 90 30 64
        E 0 90 34 64
        E 0 90 3a 64
        E 0 91 15 64
        E 0 91 17 64
        E 0 91 2b 64
        E 0 90 2d 64
        E 0 90 38 64
        E 0 91 20 64
        E 0 90 1e 64
        E 0 91 1c 64
        E 0 90 21 64
        E 0 90 20 64
        E 0 91 1b 64
        E 0 90 25 64
        E 0 90 27 64
        E 0 90 28 64
        E 0 90 36 64
        E 0 91 27 64
        E 0 90 2a 64
        E 0 91 2e 64
        E 0 91 21 64
        E 0 90 32 64
        E 0 91 14 64
        E 0 90 1c 64
        E 0 91 1f 64
        E 1 91 12 64
        E 0 91 28 64
        E 0 90 26 64
        E 534 80 1e 64
        E 0 80 29 64
        E 0 81 14 64
        E 0 80 30 64
        E 0 80 34 64
        E 0 80 3a 64
        E 0 81 15 64
        E 0 81 17 64
        E 0 81 2b 64
        E 0 80 2d 64
        E 0 80 38 64
        E 0 81 20 64
        E 0 81 1c 64
        E 0 80 21 64
        E 0 80 20 64
        E 0 81 1b 64
        E 0 80 25 64
        E 0 80 27 64
        E 0 80 28 64
        E 0 80 36 64
        E 0 81 27 64
        E 0 80 2a 64
        E 0 81 2e 64
        E 0 81 21 64
        E 0 80 32 64
        E 0 80 1c 64
        E 0 81 1f 64
        E 0 81 12 64
        E 0 81 28 64
        E 0 80 26 64
        E 223 90 29 64
        E 0 90 30 64
        E 0 90 34 64
        E 0 90 3a 64
        E 0 91 15 64
        E 0 91 17 64
        E 0 91 2b 64
        E 0 90 2d 64
        E 0 90 38 64
        E 0 91 20 64
        E 0 90 1e 64
        E 0 91 1c 64
        E 0 90 21 64
        E 0 90 20 64
        E 0 91 1b 64
        E 0 90 25 64
        E 0 90 27 64
        E 0 90 28 64
        E 0 90 36 64
        E 0 91 27 64
        E 0 90 2a 64
        E 0 91 2e 64
        E 0 91 21 64
        E 0 90 32 64
        E 0 91 14 64
        E 0 90 1c 64
        E 0 91 1f 64
        E 0 91 12 64
        E 0 91 28 64
        E 0 90 26 64
        E 535 80 1e 64
        E 0 80 29 64
        E 0 80 30 64
        E 0 80 34 64
        E 0 80 3a 64
        E 0 81 15 64
        E 0 81 17 64
        E 0 81 2b 64
        E 0 80 2d 64
        E 0 80 38 64
        E 0 81 20 64
        E 0 81 1c 64
        E 0 80 21 64
        E 0 80 20 64
        E 0 81 1b 64
        E 0 80 25 64
        E 0 80 27 64
        E 0 80 28 64
        E 0 80 36 64
        E 0 81 27 64
        E 0 80 2a 64
        E 0 81 2e 64
        E 45 81 14 64
        E 0 81 21 64
        E 0 80 32 64
        E 0 80 1c 64
        E 0 81 1f 64
        E 0 81 12 64
        E 0 81 28 64
        E 0 80 26 64
        E 223 90 29 64
        E 0 90 30 64
        E 0 90 34 64
        E 0 90 3a 64
        E 0 91 15 64
        E 0 91 17 64
        E 0 91 2b 64
        E 0 90 2d 64
        E 0 90 38 64
        E 0 91 20 64
        E 0 90 1e 64
        E 0 91 1c 64
        E 0 90 21 64
        E 0 90 20 64
        E 0 91 1b 64
        E 0 90 25 64
        E 0 90 27 64
        E 0 90 28 64
        E 0 90 36 64
        E 0 91 27 64
        E 0 90 2a 64
        E 0 91 2e 64
        E 0 91 21 64
        E 0 90 32 64
        E 0 91 14 64
        E 0 90 1c 64
        E 0 91 1f 64
        E 0 91 12 64
        E 0 91 28 64
        E 0 90 26 64
        E 6420 80 1e 64
        E 0 81 14 64
        E 0 80 29 64
        E 0 80 30 64
        E 0 80 34 64
        E 0 80 3a 64
        E 0 81 15 64
        E 0 81 17 64
        E 0 81 2b 64
        E 0 80 2d 64
        E 0 80 38 64
        E 0 81 20 64
        E 0 81 1c 64
        E 0 80 21 64
        E 0 80 20 64
        E 0 81 1b 64
        E 0 80 25 64
        E 0 80 27 64
        E 0 80 28 64
        E 0 80 36 64
        E 0 81 27 64
        E 0 80 2a 64
        E 0 81 2e 64
        E 0 81 21 64
        E 0 80 32 64
        E 0 80 1c 64
        E 0 81 1f 64
        E 0 81 12 64
        E 0 81 28 64
        E 0 80 26 64
        E 2764 90 29 64
        E 0 90 30 64
        E 0 90 34 64
        E 0 90 3a 64
        E 0 91 15 64
        E 0 91 17 64
        E 0 91 2b 64
        E 0 90 2d 64
        E 0 90 38 64
        E 0 91 20 64
        E 0 90 1e 64
        E 0 91 1c 64
        E 0 90 21 64
        E 0 90 20 64
        E 0 91 1b 64
        E 0 90 25 64
        E 0 90 27 64
        E 0 90 28 64
        E 0 90 36 64
        E 0 91 27 64
        E 0 90 2a 64
        E 0 91 2e 64
        E 0 91 21 64
        E 0 90 32 64
        E 0 91 14 64
        E 0 90 1c 64
        E 0 91 1f 64
        E 0 91 12 64
        E 0 91 28 64
        E 0 90 26 64
        E 0 91 23 64
        E 535 80 1e 64
        E 0 81 14 64
        E 0 80 29 64
        E 0 80 30 64
        E 0 80 34 64
        E 0 80 3a 64
        E 0 81 15 64
        E 0 81 17 64
        E 0 81 2b 64
        E 0 80 2d 64
        E 0 80 38 64
        E 0 81 20 64
        E 0 81 1c 64
        E 0 80 21 64
        E 0 80 20 64
        E 0 81 1b 64
        E 0 80 25 64
        E 0 80 27 64
        E 0 80 28 64
        E 0 80 36 64
        E 0 81 27 64
        E 0 80 2a 64
        E 0 81 2e 64
        E 0 81 21 64
        E 0 80 32 64
        E 0 80 1c 64
        E 0 81 1f 64
        E 0 81 12 64
        E 0 81 28 64
        E 0 80 26 64
        E 0 81 23 64
        E 267 90 29 64
        E 0 90 30 64
        E 0 90 34 64
        E 0 90 3a 64
        E 0 91 15 64
        E 0 91 17 64
        E 0 91 2b 64
        E 0 90 2d 64
        E 0 90 38 64
        E 0 91 20 64
        E 0 90 1e 64
        E 0 91 1c 64
        E 0 90 21 64
        E 0 90 20 64
        E 0 91 1b 64
        E 0 90 25 64
        E 0 90 27 64
        E 0 90 28 64
        E 0 90 36 64
        E 0 91 27 64
        E 0 90 2a 64
        E 0 91 2e 64
        E 0 91 21 64
        E 0 90 32 64
        E 0 91 14 64
        E 0 90 1c 64
        E 0 91 1f 64
        E 0 91 12 64
        E 0 91 28 64
        E 0 90 26 64
        E 0 91 23 64
        E 0 91 18 64
        E 535 80 1e 64
        E 0 81 14 64
        E 0 80 29 64
        E 0 80 30 64
        E 0 80 34 64
        E 0 80 3a 64
        E 0 81 15 64
        E 0 81 17 64
        E 0 81 2b 64
        E 0 80 2d 64
        E 0 80 38 64
        E 0 81 20 64
        E 0 81 1c 64
        E 0 80 21 64
        E 0 80 20 64
        E 0 81 1b 64
        E 0 80 25 64
        E 0 80 27 64
        E 0 80 28 64
        E 0 80 36 64
        E 0 81 27 64
        E 0 80 2a 64
        E 0 81 2e 64
        E 0 81 21 64
        E 0 80 32 64
        E 0 80 1c 64
        E 0 81 1f 64
        E 0 81 12 64
        E 0 81 28 64
        E 0 80 26 64
        E 0 81 23 64
        E 0 81 18 64
        E 223 90 29 64
        E 0 90 30 64
        E 0 90 34 64
        E 0 90 3a 64
        E 0 91 15 64
        E 0 91 17 64
        E 0 91 2b 64
        E 0 90 2d 64
        E 0 90 38 64
        E 0 91 20 64
        E 0 90 1e 64
        E 0 91 1c 64
        E 0 90 21 64
        E 0 90 20 64
        E 0 91 1b 64
        E 0 90 25 64
        E 0 90 27 64
        E 0 90 28 64
        E 0 90 36 64
        E 0 91 27 64
        E 0 90 2a 64
        E 0 91 2e 64
        E 0 91 21 64
        E 0 90 32 64
        E 0 91 14 64
        E 0 90 1c 64
        E 0 91 1f 64
        E 0 91 12 64
        E 0 91 28 64
        E 0 90 26 64
        E 0 91 23 64
        E 0 91 18 64
        E 535 80 1e 64
        E 0 81 14 64
        E 0 80 29 64
        E 0 80 30 64
        E 0 80 34 64
        E 0 80 3a 64
        E 0 81 15 64
        E 0 81 17 64
        E 0 81 2b 64
        E 0 80 2d 64
        E 0 80 38 64
        E 0 81 20 64
        E 0 81 1c 64
        E 0 80 21 64
        E 0 80 20 64
        E 0 81 1b 64
        E 0 80 25 64
        E 0 80 27 64
        E 0 80 28 64
        E 0 80 36 64
        E 0 81 27 64
        E 0 80 2a 64
        E 0 81 2e 64
        E 0 81 21 64
        E 0 80 32 64
        E 0 80 1c 64
        E 0 81 1f 64
        E 0 81 12 64
        E 0 81 28 64
        E 0 80 26 64
        E 0 81 23 64
        E 0 81 18 64
        E 223 90 29 64
        E 0 90 30 64
        E 0 90 34 64
        E 0 90 3a 64
        E 0 91 15 64
        E 0 91 17 64
        E 0 91 2b 64
        E 0 90 2d 64
        E 0 90 38 64
        E 0 91 20 64
        E 0 90 1e 64
        E 0 91 1c 64
        E 0 90 21 64
        E 0 90 20 64
        E 0 91 1b 64
        E 0 90 25 64
        E 0 90 27 64
        E 0 90 28 64
        E 0 90 36 64
        E 0 91 27 64
        E 0 90 2a 64
        E 0 91 2e 64
        E 0 91 21 64
        E 0 90 32 64
        E 0 91 14 64
        E 0 90 1c 64
        E 0 91 1f 64
        E 0 91 12 64
        E 0 91 28 64
        E 0 90 26 64
        E 0 91 23 64
        E 0 91 18 64
        E 0 90 2c 64
        E 535 80 1e 64
        E 0 81 14 64
        E 0 80 29 64
        E 0 80 30 64
        E 0 80 34 64
        E 0 80 3a 64
        E 0 81 15 64
        E 0 81 17 64
        E 0 81 2b 64
        E 0 80 2d 64
        E 0 80 38 64
        E 0 81 20 64
        E 0 81 1c 64
        E 0 80 21 64
        E 0 80 20 64
        E 0 81 1b 64
        E 0 80 25 64
        E 0 80 27 64
        E 0 80 28 64
        E 0 80 36 64
        E 0 81 27 64
        E 0 80 2a 64
        E 0 81 2e 64
        E 0 81 21 64
        E 0 80 32 64
        E 0 80 1c 64
        E 0 81 1f 64
        E 0 81 12 64
        E 0 81 28 64
        E 0 80 26 64
        E 0 81 23 64
        E 0 81 18 64
        E 0 80 2c 64
        E 223 81 10 64
        E 0 81 1e 64
        E 0 80 24 64
        E 0 81 1a 64
        E 0 80 1e 64
        E 0 81 14 64
        E 0 90 29 64
        E 0 90 30 64
        E 0 90 34 64
        E 0 90 3a 64
        E 0 91 15 64
        E 0 91 17 64
        E 0 91 2b 64
        E 0 90 2d 64
        E 0 90 38 64
        E 0 91 20 64
        E 0 90 1e 64
        E 0 91 1c 64
        E 0 90 21 64
        E 0 90 20 64
        E 0 91 1b 64
        E 0 90 25 64
        E 0 90 27 64
        E 0 90 28 64
        E 0 90 36 64
        E 0 91 27 64
        E 0 90 2a 64
        E 0 91 2e 64
        E 0 91 21 64
        E 0 90 32 64
        E 0 91 14 64
        E 0 90 1c 64
        E 0 91 1f 64
        E 0 91 12 64
        E 0 91 28 64
        E 0 90 26 64
        E 0 91 23 64
        E 0 91 18 64
        E 0 90 2c 64
        E 178 80 29 64
        E 0 80 30 64
        E 0 80 34 64
        E 0 80 3a 64
        E 0 81 15 64
        E 0 81 17 64
        E 0 81 2b 64
        E 0 80 2d 64
        E 45 80 38 64
        E 0 81 20 64
        E 0 80 1e 64
        E 0 81 1c 64
        E 0 80 21 64
        E 0 80 20 64
        E 0 81 1b 64
        E 0 80 25 64
        E 0 80 27 64
        E 0 80 28 64
        E 0 80 36 64
        E 0 81 27 64
        E 0 80 2a 64
        E 0 81 2e 64
        E 0 81 21 64
        E 0 80 32 64
        E 0 81 14 64
        E 0 80 1c 64
        E 0 81 1f 64
        E 0 81 12 64
        E 0 81 28 64
        E 0 80 26 64
        E 0 81 23 64
        E 0 81 18 64
        E 0 80 2c 64
        E 44 90 29 64
        E 0 90 30 64
        E 0 90 34 64
        E 0 90 3a 64
        E 0 91 15 64
        E 0 91 17 64
        E 0 91 2b 64
        E 0 90 2d 64
        E 0 90 38 64
        E 0 91 20 64
        E 0 90 1e 64
        E 0 91 1c 64
        E 0 90 21 64
        E 0 90 20 64
        E 0 91 1b 64
        E 0 90 25 64
        E 1 90 27 64
        E 0 90 28 64
        E 0 90 36 64
        E 0 91 27 64
        E 0 90 2a 64
        E 0 91 2e 64
        E 0 91 21 64
        E 0 90 32 64
        E 0 91 14 64
        E 0 90 1c 64
        E 0 91 1f 64
        E 0 91 12 64
        E 0 91 28 64
        E 0 90 26 64
        E 0 91 23 64
        E 0 91 18 64
        E 0 90 2c 64
        E 668 80 29 64
        E 0 80 30 64
        E 0 80 34 64
        E 0 80 3a 64
        E 0 81 15 64
        E 0 81 17 64
        E 0 81 2b 64
        E 0 80 2d 64
        E 0 80 38 64
        E 0 81 20 64
        E 0 80 1e 64
        E 0 81 1c 64
        E 0 80 21 64
        E 0 80 20 64
        E 0 81 1b 64
        E 0 80 25 64
        E 0 80 27 64
        E 0 80 28 64
        E 0 80 36 64
        E 0 81 27 64
        E 0 80 2a 64
        E 0 81 2e 64
        E 0 81 21 64
        E 0 80 32 64
        E 0 81 14 64
        E 0 80 1c 64
        E 0 81 1f 64
        E 0 81 12 64
        E 0 81 28 64
        E 0 80 26 64
        E 0 81 23 64
        E 0 81 18 64
        E 0 80 2c 64
        E 268 90 29 64
        E 0 90 30 64
        E 0 90 34 64
        E 0 90 3a 64
        E 0 91 15 64
        E 0 91 17 64
        E 0 91 2b 64
        E 0 90 2d 64
        E 0 90 38 64
        E 0 91 20 64
        E 0 90 1e 64
        E 0 91 1c 64
        E 0 90 21 64
        E 0 90 20 64
        E 0 91 1b 64
        E 0 90 25 64
        E 0 90 27 64
        E 0 90 28 64
        E 0 90 36 64
        E 0 91 27 64
        E 0 90 2a 64
        E 0 91 2e 64
        E 0 91 21 64
        E 0 90 32 64
        E 0 91 14 64
        E 0 90 1c 64
        E 0 91 1f 64
        E 0 91 12 64
        E 0 91 28 64
        E 0 90 26 64
        E 0 91 23 64
        E 0 91 18 64
        E 0 90 2c 64
        E 535 80 29 64
        E 0 80 30 64
        E 0 80 34 64
        E 0 80 3a 64
        E 0 81 15 64
        E 0 81 17 64
        E 0 81 2b 64
        E 0 80 2d 64
        E 0 80 38 64
        E 0 81 20 64
        E 0 80 1e 64
        E 0 81 1c 64
        E 0 80 21 64
        E 0 80 20 64
        E 0 81 1b 64
        E 0 80 25 64
        E 0 80 27 64
        E 0 80 28 64
        E 0 80 36 64
        E 0 81 27 64
        E 0 80 2a 64
        E 0 81 2e 64
        E 0 81 21 64
        E 0 80 32 64
        E 0 81 14 64
        E 0 80 1c 64
        E 0 81 1f 64
        E 0 81 12 64
        E 0 81 28 64
        E 0 80 26 64
        E 0 81 23 64
        E 0 81 18 64
        E 0 80 2c 64
        E 222 90 29 64
        E 0 90 30 64
        E 0 90 34 64
        E 0 90 3a 64
        E 0 91 15 64
        E 1 91 17 64
        E 0 91 2b 64
        E 0 90 2d 64
        E 0 90 38 64
        E 0 91 20 64
        E 0 90 1e 64
        E 0 91 1c 64
        E 0 90 21 64
        E 0 90 20 64
        E 0 91 1b 64
        E 0 90 25 64
        E 0 90 27 64
        E 0 90 28 64
        E 0 90 36 64
        E 0 91 27 64
        E 0 90 2a 64
        E 0 91 2e 64
        E 0 91 21 64
        E 0 90 32 64
        E 0 91 14 64
        E 0 90 1c 64
        E 0 91 1f 64
        E 0 91 12 64
        E 0 91 28 64
        E 0 90 26 64
        E 0 91 23 64
        E 0 91 18 64
        E 0 90 2c 64
        E 0 90 1f 64
        E 534 80 29 64
        E 0 80 30 64
        E 0 80 34 64
        E 0 80 3a 64
        E 0 81 15 64
        E 0 81 17 64
        E 1 81 2b 64
        E 0 80 2d 64
        E 0 80 38 64
        E 0 81 20 64
        E 0 80 1e 64
        E 0 81 1c 64
        E 0 80 21 64
        E 0 80 20 64
        E 0 81 1b 64
        E 0 80 25 64
        E 0 80 27 64
        E 0 80 28 64
        E 0 80 36 64
        E 0 81 27 64
        E 0 80 2a 64
        E 0 81 2e 64
        E 0 81 21 64
        E 0 80 32 64
        E 0 81 14 64
        E 0 80 1c 64
        E 0 81 1f 64
        E 0 81 12 64
        E 0 81 28 64
        E 0 80 26 64
        E 0 81 23 64
        E 0 81 18 64
        E 0 80 2c 64
        E 0 80 1f 64
        E 222 90 29 64
        E 0 90 30 64
        E 0 90 34 64
        E 0 90 3a 64
        E 0 91 15 64
        E 0 91 17 64
        E 0 91 2b 64
        E 0 90 2d 64
        E 0 90 38 64
        E 0 91 20 64
        E 0 90 1e 64
        E 0 91 1c 64
        E 0 90 21 64
        E 0 90 20 64
        E 0 91 1b 64
        E 0 90 25 64
        E 0 90 27 64
        E 0 90 28 64
        E 0 90 36 64
        E 1 91 27 64
        E 0 90 2a 64
        E 0 91 2e 64
        E 0 91 21 64
        E 0 90 32 64
        E 0 91 14 64
        E 0 90 1c 64
        E 0 91 1f 64
        E 0 91 12 64
        E 0 91 28 64
        E 0 90 26 64
        E 0 91 23 64
        E 0 91 18 64
        E 0 90 2c 64
        E 0 90 1f 64
        E 445 80 29 64
        E 0 80 30 64
        E 0 80 34 64
        E 0 80 3a 64
        E 0 81 15 64
        E 0 81 17 64
        E 0 81 2b 64
        E 0 80 2d 64
        E 0 80 38 64
        E 0 81 20 64
        E 0 80 1e 64
        E 0 81 1c 64
        E 0 80 21 64
        E 0 80 20 64
        E 0 81 1b 64
        E 0 80 25 64
        E 0 80 27 64
        E 0 80 28 64
        E 0 80 36 64
        E 0 81 27 64
        E 0 80 2a 64
        E 0 81 2e 64
        E 0 81 21 64
        E 0 80 32 64
        E 0 81 14 64
        E 0 80 1c 64
        E 0 81 1f 64
        E 0 81 12 64
        E 0 81 28 64
        E 0 80 26 64
        E 0 81 23 64
        E 0 81 18 64
        E 0 80 2c 64
        E 0 80 1f 64
        E 179 90 29 64
        E 0 91 1e 64
        E 0 90 30 64
        E 0 90 34 64
        E 0 90 3a 64
        E 0 91 15 64
        E 0 91 17 64
        E 0 91 2b 64
        E 0 90 2d 64
        E 0 90 38 64
        E 0 91 20 64
        E 0 90 1e 64
        E 0 91 1c 64
        E 0 90 21 64
        E 0 90 20 64
        E 0 91 1b 64
        E 0 90 25 64
        E 0 90 27 64
        E 0 90 28 64
        E 0 90 36 64
        E 0 91 27 64
        E 0 90 2a 64
        E 0 91 2e 64
        E 0 91 21 64
        E 0 90 32 64
        E 0 91 14 64
        E 0 90 1c 64
        E 0 91 1f 64
        E 0 91 12 64
        E 0 91 28 64
        E 0 90 26 64
        E 0 91 23 64
        E 0 91 18 64
        E 0 90 2c 64
        E 0 90 1f 64
        E 0 91 2a 64
        E 535 80 29 64
        E 0 80 30 64
        E 0 80 34 64
        E 0 80 3a 64
        E 0 81 15 64
        E 0 81 17 64
        E 0 81 2b 64
        E 0 80 2d 64
        E 0 80 38 64
        E 0 81 20 64
        E 0 80 1e 64
        E 0 81 1c 64
        E 0 80 21 64
        E 0 80 20 64
        E 0 81 1b 64
        E 0 80 25 64
        E 0 80 27 64
        E 0 80 28 64
        E 0 80 36 64
        E 0 81 27 64
        E 0 80 2a 64
        E 0 81 2e 64
        E 0 81 21 64
        E 0 80 32 64
        E 0 81 14 64
        E 0 80 1c 64
        E 0 81 1f 64
        E 0 81 12 64
        E 0 81 28 64
        E 0 80 26 64
        E 0 81 23 64
        E 0 81 18 64
        E 0 80 2c 64
        E 0 80 1f 64
        E 0 81 2a 64
        E 222 90 29 64
        E 0 90 30 64
        E 0 90 34 64
        E 0 90 3a 64
        E 1 91 15 64
        E 0 91 17 64
        E 0 91 2b 64
        E 0 90 2d 64
        E 0 90 38 64
        E 0 91 20 64
        E 0 90 1e 64
        E 0 91 1c 64
        E 0 90 21 64
        E 0 90 20 64
        E 0 91 1b 64
        E 0 90 25 64
        E 0 90 27 64
        E 0 90 28 64
        E 0 90 36 64
        E 0 91 27 64
        E 0 90 2a 64
        E 0 91 2e 64
        E 0 91 21 64
        E 0 90 32 64
        E 0 91 14 64
        E 0 90 1c 64
        E 0 91 1f 64
        E 0 91 12 64
        E 0 91 28 64
        E 0 90 26 64
        E 0 91 23 64
        E 0 91 18 64
        E 0 90 2c 64
        E 0 90 1f 64
        E 0 91 2a 64
        E 534 80 29 64
        E 0 80 30 64
        E 0 80 34 64
        E 0 80 3a 64
        E 0 81 15 64
        E 0 81 17 64
        E 0 81 2b 64
        E 0 80 2d 64
        E 45 80 38 64
        E 0 81 20 64
        E 0 80 1e 64
        E 0 81 1c 64
        E 0 80 21 64
        E 0 80 20 64
        E 0 81 1b 64
        E 0 80 25 64
        E 0 80 27 64
        E 0 80 28 64
        E 0 80 36 64
        E 0 81 27 64
        E 0 80 2a 64
        E 0 81 2e 64
        E 0 81 21 64
        E 0 80 32 64
        E 0 81 14 64
        E 0 80 1c 64
        E 0 81 1f 64
        E 0 81 12 64
        E 0 81 28 64
        E 0 80 26 64
        E 0 81 23 64
        E 0 81 18 64
        E 0 80 2c 64
        E 0 80 1f 64
        E 0 81 2a 64
        E 223 90 29 64
        E 0 91 1d 64
        E 0 90 30 64
        E 0 90 34 64
        E 0 90 3a 64
        E 0 91 15 64
        E 0 91 17 64
        E 0 91 2b 64
        E 0 90 2d 64
        E 0 90 38 64
        E 0 91 20 64
        E 0 90 1e 64
        E 0 91 1c 64
        E 0 90 21 64
        E 0 90 20 64
        E 0 91 1b 64
        E 0 90 25 64
        E 0 90 27 64
        E 0 90 28 64
        E 0 90 36 64
        E 0 91 27 64
        E 0 90 2a 64
        E 0 91 2e 64
        E 0 91 21 64
        E 0 90 32 64
        E 0 91 14 64
        E 0 90 1c 64
        E 0 91 1f 64
        E 0 91 12 64
        E 0 91 28 64
        E 0 90 26 64
        E 0 91 23 64
        E 0 91 18 64
        E 0 90 2c 64
        E 0 90 1f 64
        E 0 91 2a 64
        E 535 80 29 64
        E 0 80 30 64
        E 0 80 34 64
        E 0 80 3a 64
        E 0 81 15 64
        E 0 81 17 64
        E 0 81 2b 64
        E 0 80 2d 64
        E 0 80 38 64
        E 0 81 20 64
        E 0 80 1e 64
        E 0 81 1c 64
        E 0 80 21 64
        E 0 80 20 64
        E 0 81 1b 64
        E 0 80 25 64
        E 0 80 27 64
        E 0 80 28 64
        E 0 80 36 64
        E 0 81 27 64
        E 0 80 2a 64
        E 0 81 2e 64
        E 0 81 21 64
        E 0 80 32 64
        E 0 81 14 64
        E 0 80 1c 64
        E 0 81 1f 64
        E 0 81 12 64
        E 0 81 28 64
        E 0 80 26 64
        E 0 81 23 64
        E 0 81 18 64
        E 0 80 2c 64
        E 0 80 1f 64
        E 0 81 2a 64
        E 223 90 29 64
        E 0 90 30 64
        E 0 90 34 64
        E 0 90 3a 64
        E 0 91 15 64
        E 0 91 17 64
        E 0 91 2b 64
        E 0 90 2d 64
        E 0 90 38 64
        E 0 91 20 64
        E 0 90 1e 64
        E 0 91 1c 64
        E 0 90 21 64
        E 0 90 20 64
        E 0 91 1b 64
        E 0 90 25 64
        E 0 90 27 64
        E 0 90 28 64
        E 0 90 36 64
        E 0 91 27 64
        E 0 90 2a 64
        E 0 91 2e 64
        E 0 91 21 64
        E 0 90 32 64
        E 0 91 14 64
        E 0 90 1c 64
        E 0 91 1f 64
        E 0 91 12 64
        E 0 91 28 64
        E 0 90 26 64
        E 0 91 23 64
        E 0 91 18 64
        E 0 90 2c 64
        E 0 90 1f 64
        E 0 91 2a 64
        E 981 80 29 64
        E 0 80 30 64
        E 0 80 34 64
        E 0 80 3a 64
        E 0 81 15 64
        E 0 81 17 64
        E 0 81 2b 64
        E 0 80 2d 64
        E 0 80 38 64
        E 0 81 20 64
        E 0 80 1e 64
        E 0 81 1c 64
        E 0 80 21 64
        E 0 80 20 64
        E 0 81 1b 64
        E 0 80 25 64
        E 0 80 27 64
        E 0 80 28 64
        E 0 80 36 64
        E 0 81 27 64
        E 0 80 2a 64
        E 0 81 2e 64
        E 0 81 21 64
        E 0 80 32 64
        E 0 81 14 64
        E 0 80 1c 64
        E 0 81 1f 64
        E 0 81 12 64
        E 0 81 28 64
        E 0 80 26 64
        E 0 81 23 64
        E 0 81 18 64
        E 0 80 2c 64
        E 0 80 1f 64
        E 0 81 2a 64
        E 133 81 1d 64
        E 268 90 29 64
        E 0 90 29 64
        E 0 91 1a 64
        E 0 90 30 64
        E 0 90 34 64
        E 0 90 3a 64
        E 0 91 15 64
        E 0 91 17 64
        E 0 91 2b 64
        E 0 90 2d 64
        E 0 90 38 64
        E 0 91 20 64
        E 0 90 1e 64
        E 0 91 1c 64
        E 0 90 21 64
        E 0 90 20 64
        E 0 91 1b 64
        E 0 90 25 64
        E 0 90 27 64
        E 0 90 28 64
        E 0 90 36 64
        E 0 91 27 64
        E 0 90 2a 64
        E 0 91 2e 64
        E 0 91 21 64
        E 0 90 32 64
        E 0 91 14 64
        E 0 90 1c 64
        E 0 91 1f 64
        E 0 91 12 64
        E 0 91 28 64
        E 0 90 26 64
        E 0 91 23 64
        E 0 91 18 64
        E 0 90 2c 64
        E 0 90 1f 64
        E 0 91 2a 64
        E 535 80 29 64
        E 0 80 30 64
        E 0 80 34 64
        E 0 80 3a 64
        E 0 81 15 64
        E 0 81 17 64
        E 0 81 2b 64
        E 0 80 2d 64
        E 0 80 38 64
        E 0 81 20 64
        E 0 80 1e 64
        E 0 81 1c 64
        E 0 80 21 64
        E 0 80 20 64
        E 0 81 1b 64
        E 0 80 25 64
        E 0 80 27 64
        E 0 80 28 64
        E 0 80 36 64
        E 0 81 27 64
        E 0 80 2a 64
        E 0 81 2e 64
        E 0 81 21 64
        E 0 80 32 64
        E 0 81 14 64
        E 0 80 1c 64
        E 0 81 1f 64
        E 0 81 12 64
        E 0 81 28 64
        E 0 80 26 64
        E 0 81 23 64
        E 0 81 18 64
        E 0 80 2c 64
        E 0 80 1f 64
        E 0 81 2a 64
        E 223 90 29 64
        E 0 90 30 64
        E 0 90 34 64
        E 0 90 3a 64
        E 0 91 15 64
        E 0 91 17 64
        E 0 91 2b 64
        E 0 90 2d 64
        E 0 90 38 64
        E 0 91 20 64
        E 0 90 1e 64
        E 0 91 1c 64
        E 0 90 21 64
        E 0 90 20 64
        E 0 91 1b 64
        E 0 90 25 64
        E 0 90 27 64
        E 0 90 28 64
        E 0 90 36 64
        E 0 91 27 64
        E 0 90 2a 64
        E 0 91 2e 64
        E 0 91 21 64
        E 0 90 32 64
        E 0 91 14 64
        E 0 90 1c 64
        E 0 91 1f 64
        E 0 91 12 64
        E 0 91 28 64
        E 0 90 26 64
        E 0 91 23 64
        E 0 91 18 64
        E 0 90 2c 64
        E 0 90 1f 64
        E 0 91 2a 64
        E 178 80 29 64
        E 0 80 30 64
        E 0 80 34 64
        E 0 80 3a 64
        E 0 81 15 64
        E 0 81 17 64
        E 0 81 2b 64
        E 0 80 2d 64
        E 0 80 38 64
        E 0 81 20 64
        E 0 80 1e 64
        E 0 81 1c 64
        E 0 80 21 64
        E 0 80 20 64
        E 0 81 1b 64
        E 0 80 25 64
        E 0 80 27 64
        E 0 80 28 64
        E 0 80 36 64
        E 0 81 27 64
        E 0 80 2a 64
        E 0 81 2e 64
        E 0 81 21 64
        E 0 80 32 64
        E 0 81 14 64
        E 0 80 1c 64
        E 0 81 1f 64
        E 0 81 12 64
        E 0 81 28 64
        E 0 80 26 64
        E 0 81 23 64
        E 0 81 18 64
        E 0 80 2c 64
        E 0 80 1f 64
        E 0 81 2a 64
        E 45 90 29 64
        E 0 90 30 64
        E 0 90 34 64
        E 0 90 3a 64
        E 0 91 15 64
        E 0 91 17 64
        E 0 91 2b 64
        E 0 90 2d 64
        E 0 90 38 64
        E 0 91 20 64
        E 0 90 1e 64
        E 0 91 1c 64
        E 0 90 21 64
        E 0 90 20 64
        E 0 91 1b 64
        E 0 90 25 64
        E 0 90 27 64
        E 0 90 28 64
        E 0 90 36 64
        E 0 91 27 64
        E 0 90 2a 64
        E 0 91 2e 64
        E 0 91 21 64
        E 0 90 32 64
        E 0 91 14 64
        E 0 90 1c 64
        E 0 91 1f 64
        E 0 91 12 64
        E 0 91 28 64
        E 0 90 26 64
        E 0 91 23 64
        E 0 91 18 64
        E 0 90 2c 64
        E 0 90 1f 64
        E 0 91 2a 64
        E 535 80 29 64
        E 0 80 30 64
        E 0 80 34 64
        E 0 80 3a 64
        E 0 81 15 64
        E 0 81 17 64
        E 0 81 2b 64
        E 0 80 2d 64
        E 0 80 38 64
        E 0 81 20 64
        E 0 80 1e 64
        E 0 81 1c 64
        E 0 80 21 64
        E 0 80 20 64
        E 0 81 1b 64
        E 0 80 25 64
        E 0 80 27 64
        E 0 80 28 64
        E 0 80 36 64
        E 0 81 27 64
        E 0 80 2a 64
        E 0 81 2e 64
        E 0 81 21 64
        E 0 80 32 64
        E 0 81 14 64
        E 0 80 1c 64
        E 0 81 1f 64
        E 0 81 12 64
        E 0 81 28 64
        E 0 80 26 64
        E 0 81 23 64
        E 0 81 18 64
        E 0 80 2c 64
        E 0 80 1f 64
        E 0 81 2a 64
        E 267 90 29 64
        E 0 90 30 64
        E 0 90 34 64
        E 0 90 3a 64
        E 0 91 15 64
        E 0 91 17 64
        E 0 91 2b 64
        E 0 90 2d 64
        E 0 90 38 64
        E 0 91 20 64
        E 0 90 1e 64
        E 0 91 1c 64
        E 0 90 21 64
        E 0 90 20 64
        E 0 91 1b 64
        E 0 90 25 64
        E 0 90 27 64
        E 0 90 28 64
        E 0 90 36 64
        E 0 91 27 64
        E 0 90 2a 64
        E 0 91 2e 64
        E 0 91 21 64
        E 0 90 32 64
        E 0 91 14 64
        E 0 90 1c 64
        E 0 91 1f 64
        E 0 91 12 64
        E 0 91 28 64
        E 0 90 26 64
        E 0 91 23 64
        E 0 91 18 64
        E 0 90 2c 64
        E 0 90 1f 64
        E 0 91 2a 64
        E 624 80 29 64
        E 0 80 30 64
        E 0 80 34 64
        E 0 80 3a 64
        E 0 81 15 64
        E 0 81 17 64
        E 0 81 2b 64
        E 0 80 2d 64
        E 0 80 38 64
        E 0 81 20 64
        E 0 80 1e 64
        E 0 81 1c 64
        E 0 80 21 64
        E 0 80 20 64
        E 0 81 1b 64
        E 0 80 25 64
        E 0 80 27 64
        E 0 80 28 64
        E 0 80 36 64
        E 0 81 27 64
        E 0 80 2a 64
        E 0 81 2e 64
        E 0 81 21 64
        E 0 80 32 64
        E 0 81 14 64
        E 0 80 1c 64
        E 0 81 1f 64
        E 1 81 1a 64
        E 0 80 29 64
        E 0 81 12 64
        E 0 81 28 64
        E 0 80 26 64
        E 0 81 23 64
        E 0 81 18 64
        E 0 80 2c 64
        E 0 80 1f 64
        E 0 81 2a 64
        E 267 90 29 64
        E 0 90 24 64
        E 0 90 30 64
        E 0 90 34 64
        E 0 90 3a 64
        E 0 91 15 64
        E 0 91 17 64
        E 0 91 2b 64
        E 0 90 2d 64
        E 0 90 38 64
        E 0 91 20 64
        E 0 90 1e 64
        E 0 91 1c 64
        E 0 90 21 64
        E 0 90 20 64
        E 0 91 1b 64
        E 0 90 25 64
        E 0 90 27 64
        E 0 90 28 64
        E 0 90 36 64
        E 0 91 27 64
        E 0 90 2a 64
        E 0 91 2e 64
        E 0 91 21 64
        E 0 90 32 64
        E 0 91 14 64
        E 0 90 1c 64
        E 0 91 1f 64
        E 0 91 12 64
        E 0 91 28 64
        E 0 90 26 64
        E 0 91 23 64
        E 0 91 18 64
        E 0 90 2c 64
        E 0 90 1f 64
        E 0 91 2a 64
        E 0 91 29 64
        E 535 80 29 64
        E 0 80 30 64
        E 0 80 34 64
        E 0 80 3a 64
        E 0 81 15 64
        E 0 81 17 64
        E 0 81 2b 64
        E 0 80 2d 64
        E 0 80 38 64
        E 0 81 20 64
        E 0 80 1e 64
        E 0 81 1c 64
        E 0 80 21 64
        E 0 80 20 64
        E 0 81 1b 64
        E 0 80 25 64
        E 0 80 27 64
        E 0 80 28 64
        E 0 80 36 64
        E 0 81 27 64
        E 0 80 2a 64
        E 0 81 2e 64
        E 0 81 21 64
        E 0 80 32 64
        E 0 81 14 64
        E 0 80 1c 64
        E 0 81 1f 64
        E 0 81 12 64
        E 0 81 28 64
        E 0 80 26 64
        E 0 81 23 64
        E 0 81 18 64
        E 0 80 2c 64
        E 0 80 1f 64
        E 0 81 2a 64
        E 0 81 29 64
        E 223 90 29 64
        E 0 90 30 64
        E 0 90 34 64
        E 0 90 3a 64
        E 0 91 15 64
        E 0 91 17 64
        E 0 91 2b 64
        E 0 90 2d 64
        E 0 90 38 64
        E 0 91 20 64
        E 0 90 1e 64
        E 0 91 1c 64
        E 0 90 21 64
        E 0 90 20 64
        E 0 91 1b 64
        E 0 90 25 64
        E 0 90 27 64
        E 0 90 28 64
        E 0 90 36 64
        E 0 91 27 64
        E 0 90 2a 64
        E 0 91 2e 64
        E 0 91 21 64
        E 0 90 32 64
        E 0 91 14 64
        E 0 90 1c 64
        E 0 91 1f 64
        E 0 91 12 64
        E 0 91 28 64
        E 0 90 26 64
        E 0 91 23 64
        E 0 91 18 64
        E 0 90 2c 64
        E 0 90 1f 64
        E 0 91 2a 64
        E 0 91 29 64
        E 669 81 1e 64
        E 0 80 24 64
        E 0 80 29 64
        E 0 80 30 64
        E 0 80 34 64
        E 0 80 3a 64
        E 0 81 15 64
        E 0 81 17 64
        E 0 81 2b 64
        E 0 80 2d 64
        E 0 80 38 64
        E 0 81 20 64
        E 0 80 1e 64
        E 0 81 1c 64
        E 0 80 21 64
        E 0 80 20 64
        E 0 81 1b 64
        E 0 80 25 64
        E 0 80 27 64
        E 0 80 28 64
        E 0 80 36 64
        E 0 81 27 64
        E 0 80 2a 64
        E 0 81 2e 64
        E 0 81 21 64
        E 0 80 32 64
        E 0 81 14 64
        E 0 80 1c 64
        E 0 81 1f 64
        E 0 81 12 64
        E 0 81 28 64
        E 0 80 26 64
        E 0 81 23 64
        E 0 81 18 64
        E 0 80 2c 64
        E 0 80 1f 64
        E 0 81 2a 64
        E 0 81 29 64
        E 267 90 29 64
        E 0 90 21 64
        E 0 90 30 64
        E 0 90 34 64
        E 0 90 3a 64
        E 0 91 15 64
        E 0 91 17 64
        E 0 91 2b 64
        E 0 90 2d 64
        E 0 90 38 64
        E 0 91 20 64
        E 0 90 1e 64
        E 0 91 1c 64
        E 0 90 21 64
        E 0 90 20 64
        E 0 91 1b 64
        E 0 90 25 64
        E 0 90 27 64
        E 0 90 28 64
        E 0 90 36 64
        E 0 91 27 64
        E 0 90 2a 64
        E 0 91 2e 64
        E 0 91 21 64
        E 0 90 32 64
        E 0 91 14 64
        E 0 90 1c 64
        E 0 91 1f 64
        E 0 91 12 64
        E 0 91 28 64
        E 0 90 26 64
        E 0 91 23 64
        E 0 91 18 64
        E 0 90 2c 64
        E 0 90 1f 64
        E 0 91 2a 64
        E 0 91 29 64
        E 490 80 29 64
        E 0 80 21 64
        E 0 80 1e 64
        E 0 80 20 64
        E 0 81 14 64
        E 0 80 1c 64
        E 45 80 30 64
        E 0 80 34 64
        E 0 80 3a 64
        E 0 81 15 64
        E 0 81 17 64
        E 0 81 2b 64
        E 0 80 2d 64
        E 0 80 38 64
        E 0 81 20 64
        E 0 81 1c 64
        E 0 80 21 64
        E 0 81 1b 64
        E 0 80 25 64
        E 0 80 27 64
        E 0 80 28 64
        E 0 80 36 64
        E 0 81 27 64
        E 0 80 2a 64
        E 0 81 2e 64
        E 0 81 21 64
        E 0 80 32 64
        E 0 81 1f 64
        E 0 81 12 64
        E 0 81 28 64
        E 0 80 26 64
        E 0 81 23 64
        E 0 81 18 64
        E 0 80 2c 64
        E 0 80 1f 64
        E 0 81 2a 64
        E 0 81 29 64
        E 223 90 29 64
        E 0 90 30 64
        E 0 90 34 64
        E 0 90 3a 64
        E 0 91 15 64
        E 0 91 17 64
        E 0 91 2b 64
        E 0 90 2d 64
        E 0 90 38 64
        E 0 91 20 64
        E 0 90 1e 64
        E 0 91 1c 64
        E 0 90 21 64
        E 0 90 20 64
        E 0 91 1b 64
        E 0 90 25 64
        E 0 90 27 64
        E 0 90 28 64
        E 0 90 36 64
        E 0 91 27 64
        E 0 90 2a 64
        E 0 91 2e 64
        E 0 91 21 64
        E 0 90 32 64
        E 0 91 14 64
        E 0 90 1c 64
        E 0 91 1f 64
        E 0 91 12 64
        E 0 91 28 64
        E 0 90 26 64
        E 0 91 23 64
        E 0 91 18 64
        E 0 90 2c 64
        E 0 90 1f 64
        E 0 91 2a 64
        E 0 91 29 64
        E 535 80 29 64
        E 0 80 30 64
        E 0 80 34 64
        E 0 80 3a 64
        E 0 81 15 64
        E 0 81 17 64
        E 0 81 2b 64
        E 0 80 2d 64
        E 0 80 38 64
        E 0 81 20 64
        E 0 80 1e 64
        E 0 81 1c 64
        E 0 80 21 64
        E 0 80 20 64
        E 0 81 1b 64
        E 0 80 25 64
        E 0 80 27 64
        E 0 80 28 64
        E 0 80 36 64
        E 0 81 27 64
        E 0 80 2a 64
        E 0 81 2e 64
        E 0 81 21 64
        E 0 80 32 64
        E 0 81 14 64
        E 0 80 1c 64
        E 0 81 1f 64
        E 0 81 12 64
        E 0 81 28 64
        E 0 80 26 64
        E 0 81 23 64
        E 0 81 18 64
        E 0 80 2c 64
        E 0 80 1f 64
        E 0 81 2a 64
        E 0 81 29 64
        E 267 90 29 64
        E 0 90 24 64
        E 0 90 30 64
        E 0 90 34 64
        E 0 90 3a 64
        E 0 91 15 64
        E 0 91 17 64
        E 0 91 2b 64
        E 0 90 2d 64
        E 0 90 38 64
        E 0 91 20 64
        E 0 90 1e 64
        E 0 91 1c 64
        E 0 90 21 64
        E 0 90 20 64
        E 0 91 1b 64
        E 0 90 25 64
        E 0 90 27 64
        E 0 90 28 64
        E 0 90 36 64
        E 0 91 27 64
        E 1 90 2a 64
        E 0 91 2e 64
        E 0 91 21 64
        E 0 90 32 64
        E 0 91 14 64
        E 0 90 1c 64
        E 0 91 1f 64
        E 0 91 12 64
        E 0 91 28 64
        E 0 90 26 64
        E 0 91 23 64
        E 0 91 18 64
        E 0 90 2c 64
        E 0 90 1f 64
        E 0 91 2a 64
        E 0 91 29 64
        E 490 80 29 64
        E 0 80 24 64
        E 0 80 1e 64
        E 0 80 21 64
        E 0 80 20 64
        E 0 81 14 64
        E 0 80 1c 64
        E 44 80 30 64
        E 0 80 34 64
        E 0 80 3a 64
        E 0 81 15 64
        E 0 81 17 64
        E 0 81 2b 64
        E 0 80 2d 64
        E 0 80 38 64
        E 0 81 20 64
        E 0 81 1c 64
        E 0 81 1b 64
        E 0 80 25 64
        E 0 80 27 64
        E 0 80 28 64
        E 1 80 36 64
        E 0 81 27 64
        E 0 80 2a 64
        E 0 81 2e 64
        E 0 81 21 64
        E 0 80 32 64
        E 0 81 1f 64
        E 0 81 12 64
        E 0 81 28 64
        E 0 80 26 64
        E 0 81 23 64
        E 0 81 18 64
        E 0 80 2c 64
        E 0 80 1f 64
        E 0 81 2a 64
        E 0 81 29 64
        E 222 90 29 64
        E 0 90 30 64
        E 0 90 34 64
        E 0 90 3a 64
        E 0 91 15 64
        E 0 91 17 64
        E 0 91 2b 64
        E 0 90 2d 64
        E 0 90 38 64
        E 0 91 20 64
        E 0 90 1e 64
        E 0 91 1c 64
        E 0 90 21 64
        E 0 90 20 64
        E 0 91 1b 64
        E 0 90 25 64
        E 0 90 27 64
        E 0 90 28 64
        E 0 90 36 64
        E 0 91 27 64
        E 0 90 2a 64
        E 0 91 2e 64
        E 0 91 21 64
        E 0 90 32 64
        E 0 91 14 64
        E 0 90 1c 64
        E 0 91 1f 64
        E 0 91 12 64
        E 0 91 28 64
        E 0 90 26 64
        E 0 91 23 64
        E 0 91 18 64
        E 0 90 2c 64
        E 0 90 1f 64
        E 0 91 2a 64
        E 0 91 29 64
        E 0 90 1d 64
        E 134 80 29 64
        E 0 80 30 64
        E 0 80 34 64
        E 0 80 3a 64
        E 0 81 15 64
        E 0 81 17 64
        E 0 81 2b 64
        E 0 80 2d 64
        E 0 80 38 64
        E 0 81 20 64
        E 0 80 1e 64
        E 0 81 1c 64
        E 0 80 21 64
        E 0 80 20 64
        E 0 81 1b 64
        E 0 80 25 64
        E 0 80 27 64
        E 0 80 28 64
        E 0 80 36 64
        E 0 81 27 64
        E 0 80 2a 64
        E 0 81 2e 64
        E 0 81 21 64
        E 0 80 32 64
        E 0 81 14 64
        E 0 80 1c 64
        E 0 81 1f 64
        E 0 81 12 64
        E 0 81 28 64
        E 0 80 26 64
        E 0 81 23 64
        E 0 81 18 64
        E 0 80 2c 64
        E 0 80 1f 64
        E 0 81 2a 64
        E 0 81 29 64
        E 0 80 1d 64
        E 89 90 29 64
        E 0 90 30 64
        E 0 90 34 64
        E 0 90 3a 64
        E 0 91 15 64
        E 0 91 17 64
        E 0 91 2b 64
        E 0 90 2d 64
        E 0 90 38 64
        E 0 91 20 64
        E 0 90 1e 64
        E 0 91 1c 64
        E 0 90 21 64
        E 0 90 20 64
        E 0 91 1b 64
        E 0 90 25 64
        E 0 90 27 64
        E 0 90 28 64
        E 0 90 36 64
        E 0 91 27 64
        E 0 90 2a 64
        E 0 91 2e 64
        E 0 91 21 64
        E 0 90 32 64
        E 0 91 14 64
        E 0 90 1c 64
        E 0 91 1f 64
        E 0 91 12 64
        E 0 91 28 64
        E 0 90 26 64
        E 0 91 23 64
        E 0 91 18 64
        E 0 90 2c 64
        E 0 90 1f 64
        E 0 91 2a 64
        E 0 91 29 64
        E 0 90 1d 64
        E 535 80 29 64
        E 0 80 30 64
        E 0 80 34 64
        E 0 80 3a 64
        E 0 81 15 64
        E 0 81 17 64
        E 0 81 2b 64
        E 0 80 2d 64
        E 0 80 38 64
        E 0 81 20 64
        E 0 80 1e 64
        E 0 81 1c 64
        E 0 80 21 64
        E 0 80 20 64
        E 0 81 1b 64
        E 0 80 25 64
        E 0 80 27 64
        E 0 80 28 64
        E 0 80 36 64
        E 0 81 27 64
        E 0 80 2a 64
        E 0 81 2e 64
        E 0 81 21 64
        E 0 80 32 64
        E 0 81 14 64
        E 0 80 1c 64
        E 0 81 1f 64
        E 0 81 12 64
        E 0 81 28 64
        E 0 80 26 64
        E 0 81 23 64
        E 0 81 18 64
        E 0 80 2c 64
        E 0 80 1f 64
        E 0 81 2a 64
        E 0 81 29 64
        E 0 80 1d 64
        E 223 90 29 64
        E 0 90 30 64
        E 0 90 34 64
        E 0 90 3a 64
        E 0 91 15 64
        E 0 91 17 64
        E 0 91 2b 64
        E 0 90 2d 64
        E 0 90 38 64
        E 0 91 20 64
        E 0 90 1e 64
        E 0 91 1c 64
        E 0 90 21 64
        E 0 90 20 64
        E 0 91 1b 64
        E 0 90 25 64
        E 0 90 27 64
        E 0 90 28 64
        E 0 90 36 64
        E 0 91 27 64
        E 0 90 2a 64
        E 0 91 2e 64
        E 0 91 21 64
        E 0 90 32 64
        E 0 91 14 64
        E 0 90 1c 64
        E 0 91 1f 64
        E 0 91 12 64
        E 0 91 28 64
        E 0 90 26 64
        E 0 91 23 64
        E 0 91 18 64
        E 0 90 2c 64
        E 0 90 1f 64
        E 0 91 2a 64
        E 0 91 29 64
        E 0 90 1d 64
        E 535 80 29 64
        E 0 80 30 64
        E 0 80 34 64
        E 0 80 3a 64
        E 0 81 15 64
        E 0 81 17 64
        E 0 81 2b 64
        E 0 80 2d 64
        E 0 80 38 64
        E 0 81 20 64
        E 0 80 1e 64
        E 0 81 1c 64
        E 0 80 21 64
        E 0 80 20 64
        E 0 81 1b 64
        E 0 80 25 64
        E 0 80 27 64
        E 0 80 28 64
        E 0 80 36 64
        E 0 81 27 64
        E 0 80 2a 64
        E 0 81 2e 64
        E 0 81 21 64
        E 0 80 32 64
        E 0 81 14 64
        E 0 80 1c 64
        E 0 81 1f 64
        E 0 81 12 64
        E 0 81 28 64
        E 0 80 26 64
        E 0 81 23 64
        E 0 81 18 64
        E 0 80 2c 64
        E 0 80 1f 64
        E 0 81 2a 64
        E 0 81 29 64
        E 0 80 1d 64
        E 223 90 29 64
        E 0 90 24 64
        E 0 90 30 64
        E 0 90 34 64
        E 0 90 3a 64
        E 0 91 15 64
        E 0 91 17 64
        E 0 91 2b 64
        E 0 90 2d 64
        E 0 90 38 64
        E 0 91 20 64
        E 0 90 1e 64
        E 0 91 1c 64
        E 0 90 21 64
        E 0 90 20 64
        E 0 91 1b 64
        E 0 90 25 64
        E 0 90 27 64
        E 0 90 28 64
        E 0 90 36 64
        E 0 91 27 64
        E 0 90 2a 64
        E 0 91 2e 64
        E 0 91 21 64
        E 0 90 32 64
        E 0 91 14 64
        E 0 90 1c 64
        E 0 91 1f 64
        E 0 91 12 64
        E 0 91 28 64
        E 0 90 26 64
        E 0 91 23 64
        E 0 91 18 64
        E 0 90 2c 64
        E 0 90 1f 64
        E 0 91 2a 64
        E 0 91 29 64
        E 0 90 1d 64
        E 178 80 29 64
        E 0 80 30 64
        E 0 80 34 64
        E 0 80 3a 64
        E 0 81 15 64
        E 0 81 17 64
        E 0 81 2b 64
        E 0 80 2d 64
        E 0 80 38 64
        E 0 81 20 64
        E 0 80 1e 64
        E 0 81 1c 64
        E 0 80 21 64
        E 0 80 20 64
        E 0 81 1b 64
        E 0 80 25 64
        E 0 80 27 64
        E 0 80 28 64
        E 0 80 36 64
        E 0 81 27 64
        E 0 80 2a 64
        E 0 81 2e 64
        E 0 81 21 64
        E 0 80 32 64
        E 0 81 14 64
        E 0 80 1c 64
        E 0 81 1f 64
        E 0 81 12 64
        E 0 81 28 64
        E 0 80 26 64
        E 0 81 23 64
        E 0 81 18 64
        E 0 80 2c 64
        E 0 80 1f 64
        E 0 81 2a 64
        E 0 81 29 64
        E 0 80 1d 64
        E 89 90 29 64
        E 0 90 30 64
        E 0 90 34 64
        E 0 90 3a 64
        E 0 91 15 64
        E 0 91 17 64
        E 0 91 2b 64
        E 0 90 2d 64
        E 0 90 38 64
        E 0 91 20 64
        E 0 90 1e 64
        E 0 91 1c 64
        E 0 90 21 64
        E 0 90 20 64
        E 0 91 1b 64
        E 0 90 25 64
        E 0 90 27 64
        E 0 90 28 64
        E 0 90 36 64
        E 0 91 27 64
        E 0 90 2a 64
        E 0 91 2e 64
        E 0 91 21 64
        E 0 90 32 64
        E 0 91 14 64
        E 0 90 1c 64
        E 0 91 1f 64
        E 0 91 12 64
        E 0 91 28 64
        E 0 90 26 64
        E 0 91 23 64
        E 0 91 18 64
        E 0 90 2c 64
        E 0 90 1f 64
        E 0 91 2a 64
        E 0 91 29 64
        E 0 90 1d 64
        E 535 80 29 64
        E 0 80 30 64
        E 0 80 34 64
        E 0 80 3a 64
        E 0 81 15 64
        E 0 81 17 64
        E 0 81 2b 64
        E 0 80 2d 64
        E 0 80 38 64
        E 0 81 20 64
        E 0 80 1e 64
        E 0 81 1c 64
        E 0 80 21 64
        E 1 80 20 64
        E 0 81 1b 64
        E 0 80 25 64
        E 0 80 27 64
        E 0 80 28 64
        E 0 80 36 64
        E 0 81 27 64
        E 0 80 2a 64
        E 0 81 2e 64
        E 0 81 21 64
        E 0 80 32 64
        E 0 81 14 64
        E 0 80 1c 64
        E 0 81 1f 64
        E 0 81 12 64
        E 0 81 28 64
        E 0 80 26 64
        E 0 81 23 64
        E 0 81 18 64
        E 0 80 2c 64
        E 0 80 1f 64
        E 0 81 2a 64
        E 0 81 29 64
        E 0 80 1d 64
        E 222 90 29 64
        E 0 90 21 64
        E 0 90 30 64
        E 0 90 34 64
        E 0 90 3a 64
        E 0 91 15 64
        E 0 91 17 64
        E 0 91 2b 64
        E 0 90 2d 64
        E 0 90 38 64
        E 0 91 20 64
        E 0 90 1e 64
        E 0 91 1c 64
        E 0 90 21 64
        E 0 90 20 64
        E 0 91 1b 64
        E 0 90 25 64
        E 0 90 27 64
        E 0 90 28 64
        E 0 90 36 64
        E 0 91 27 64
        E 0 90 2a 64
        E 0 91 2e 64
        E 0 91 21 64
        E 0 90 32 64
        E 0 91 14 64
        E 0 90 1c 64
        E 0 91 1f 64
        E 0 91 12 64
        E 0 91 28 64
        E 0 90 26 64
        E 0 91 23 64
        E 0 91 18 64
        E 0 90 2c 64
        E 0 90 1f 64
        E 0 91 2a 64
        E 0 91 29 64
        E 0 90 1d 64
        E 535 80 29 64
        E 0 80 21 64
        E 0 80 30 64
        E 0 80 34 64
        E 0 80 3a 64
        E 0 81 15 64
        E 0 81 17 64
        E 0 81 2b 64
        E 0 80 2d 64
        E 0 80 38 64
        E 0 81 20 64
        E 0 80 1e 64
        E 0 81 1c 64
        E 0 80 20 64
        E 0 81 1b 64
        E 0 80 25 64
        E 0 80 27 64
        E 1 80 28 64
        E 0 80 36 64
        E 0 81 27 64
        E 0 80 2a 64
        E 0 81 2e 64
        E 0 81 21 64
        E 0 80 32 64
        E 0 81 14 64
        E 0 80 1c 64
        E 0 81 1f 64
        E 0 81 12 64
        E 0 81 28 64
        E 0 80 26 64
        E 0 81 23 64
        E 0 81 18 64
        E 0 80 2c 64
        E 0 80 1f 64
        E 0 81 2a 64
        E 0 81 29 64
        E 0 80 1d 64
        E 222 90 29 64
        E 0 90 30 64
        E 0 90 34 64
        E 0 90 3a 64
        E 0 91 15 64
        E 0 91 17 64
        E 0 91 2b 64
        E 0 90 2d 64
        E 0 90 38 64
        E 0 91 20 64
        E 0 90 1e 64
        E 0 91 1c 64
        E 0 90 21 64
        E 0 90 20 64
        E 0 91 1b 64
        E 0 90 25 64
        E 0 90 27 64
        E 0 90 28 64
        E 0 90 36 64
        E 0 91 27 64
        E 0 90 2a 64
        E 0 91 2e 64
        E 0 91 21 64
        E 0 90 32 64
        E 0 91 14 64
        E 0 90 1c 64
        E 0 91 1f 64
        E 0 91 12 64
        E 0 91 28 64
        E 0 90 26 64
        E 0 91 23 64
        E 0 91 18 64
        E 0 90 2c 64
        E 0 90 1f 64
        E 0 91 2a 64
        E 0 91 29 64
        E 0 90 1d 64
        E 491 80 24 64
        E 0 80 21 64
        E 44 80 29 64
        E 0 80 30 64
        E 0 80 34 64
        E 0 80 3a 64
        E 0 81 15 64
        E 0 81 17 64
        E 0 81 2b 64
        E 0 80 2d 64
        E 0 80 38 64
        E 0 81 20 64
        E 0 80 1e 64
        E 0 81 1c 64
        E 0 80 21 64
        E 0 80 20 64
        E 0 81 1b 64
        E 0 80 25 64
        E 0 80 27 64
        E 0 80 28 64
        E 0 80 36 64
        E 0 81 27 64
        E 0 80 2a 64
        E 0 81 2e 64
        E 0 81 21 64
        E 0 80 32 64
        E 0 81 14 64
        E 0 80 1c 64
        E 0 81 1f 64
        E 0 81 12 64
        E 0 81 28 64
        E 0 80 26 64
        E 0 81 23 64
        E 0 81 18 64
        E 0 80 2c 64
        E 0 80 1f 64
        E 0 81 2a 64
        E 0 81 29 64
        E 0 80 1d 64
        E 223 90 29 64
        E 0 90 1e 64
        E 0 90 24 64
        E 0 91 1a 64
        E 0 90 30 64
        E 0 90 34 64
        E 0 90 3a 64
        E 0 91 15 64
        E 0 91 17 64
        E 0 91 2b 64
        E 0 90 2d 64
        E 0 90 38 64
        E 0 91 20 64
        E 0 90 1e 64
        E 0 91 1c 64
        E 0 90 21 64
        E 0 90 20 64
        E 0 91 1b 64
        E 0 90 25 64
        E 0 90 27 64
        E 0 90 28 64
        E 0 90 36 64
        E 0 91 27 64
        E 0 90 2a 64
        E 0 91 2e 64
        E 0 91 21 64
        E 0 90 32 64
        E 0 91 14 64
        E 0 90 1c 64
        E 0 91 1f 64
        E 0 91 12 64
        E 0 91 28 64
        E 0 90 26 64
        E 0 91 23 64
        E 0 91 18 64
        E 0 90 2c 64
        E 0 90 1f 64
        E 0 91 2a 64
        E 0 91 29 64
        E 0 90 1d 64
        E 535 80 29 64
        E 0 80 1e 64
        E 0 80 30 64
        E 0 80 34 64
        E 0 80 3a 64
        E 0 81 15 64
        E 0 81 17 64
        E 0 81 2b 64
        E 0 80 2d 64
        E 0 80 38 64
        E 0 81 20 64
        E 0 81 1c 64
        E 0 80 21 64
        E 0 80 20 64
        E 0 81 1b 64
        E 0 80 25 64
        E 0 80 27 64
        E 0 80 28 64
        E 0 80 36 64
        E 0 81 27 64
        E 0 80 2a 64
        E 0 81 2e 64
        E 0 81 21 64
        E 0 80 32 64
        E 0 81 14 64
        E 0 80 1c 64
        E 0 81 1f 64
        E 0 81 12 64
        E 0 81 28 64
        E 0 80 26 64
        E 0 81 23 64
        E 0 81 18 64
        E 0 80 2c 64
        E 0 80 1f 64
        E 0 81 2a 64
        E 0 81 29 64
        E 0 80 1d 64
        E 223 90 29 64
        E 0 90 30 64
        E 0 90 34 64
        E 0 90 3a 64
        E 0 91 15 64
        E 0 91 17 64
        E 0 91 2b 64
        E 0 90 2d 64
        E 0 90 38 64
        E 0 91 20 64
        E 0 90 1e 64
        E 0 91 1c 64
        E 0 90 21 64
        E 0 90 20 64
        E 0 91 1b 64
        E 0 90 25 64
        E 0 90 27 64
        E 0 90 28 64
        E 0 90 36 64
        E 0 91 27 64
        E 0 90 2a 64
        E 0 91 2e 64
        E 0 91 21 64
        E 0 90 32 64
        E 0 91 14 64
        E 0 90 1c 64
        E 0 91 1f 64
        E 0 91 12 64
        E 0 91 28 64
        E 0 90 26 64
        E 0 91 23 64
        E 0 91 18 64
        E 0 90 2c 64
        E 0 90 1f 64
        E 0 91 2a 64
        E 0 91 29 64
        E 0 90 1d 64
        E 580 80 1e 64
        E 0 80 29 64
        E 0 80 30 64
        E 0 80 34 64
        E 0 80 3a 64
        E 0 81 15 64
        E 0 81 17 64
        E 0 81 2b 64
        E 0 80 2d 64
        E 0 80 38 64
        E 0 81 20 64
        E 0 81 1c 64
        E 0 80 21 64
        E 0 80 20 64
        E 0 81 1b 64
        E 0 80 25 64
        E 0 80 27 64
        E 0 80 28 64
        E 0 80 36 64
        E 0 81 27 64
        E 0 80 2a 64
        E 0 81 2e 64
        E 0 81 21 64
        E 0 80 32 64
        E 0 81 14 64
        E 0 80 1c 64
        E 0 81 1f 64
        E 0 81 12 64
        E 0 81 28 64
        E 0 80 26 64
        E 0 81 23 64
        E 0 81 18 64
        E 0 80 2c 64
        E 0 80 1f 64
        E 0 81 2a 64
        E 0 81 29 64
        E 0 80 1d 64
        E 222 90 29 64
        E 0 90 30 64
        E 1 90 34 64
        E 0 90 3a 64
        E 0 91 15 64
        E 0 91 17 64
        E 0 91 2b 64
        E 0 90 2d 64
        E 0 90 38 64
        E 0 91 20 64
        E 0 90 1e 64
        E 0 91 1c 64
        E 0 90 21 64
        E 0 90 20 64
        E 0 91 1b 64
        E 0 90 25 64
        E 0 90 27 64
        E 0 90 28 64
        E 0 90 36 64
        E 0 91 27 64
        E 0 90 2a 64
        E 0 91 2e 64
        E 0 91 21 64
        E 0 90 32 64
        E 0 91 14 64
        E 0 90 1c 64
        E 0 91 1f 64
        E 0 91 12 64
        E 0 91 28 64
        E 0 90 26 64
        E 0 91 23 64
        E 0 91 18 64
        E 0 90 2c 64
        E 0 90 1f 64
        E 0 91 2a 64
        E 0 91 29 64
        E 0 90 1d 64
        E 535 80 1e 64
        E 0 80 29 64
        E 0 80 30 64
        E 0 80 34 64
        E 0 80 3a 64
        E 0 81 15 64
        E 0 81 17 64
        E 0 81 2b 64
        E 0 80 2d 64
        E 0 80 38 64
        E 0 81 20 64
        E 0 81 1c 64
        E 0 80 21 64
        E 0 80 20 64
        E 0 81 1b 64
        E 0 80 25 64
        E 0 80 27 64
        E 0 80 28 64
        E 0 80 36 64
        E 0 81 27 64
        E 0 80 2a 64
        E 0 81 2e 64
        E 0 81 21 64
        E 0 80 32 64
        E 0 81 14 64
        E 0 80 1c 64
        E 0 81 1f 64
        E 0 81 12 64
        E 0 81 28 64
        E 0 80 26 64
        E 0 81 23 64
        E 0 81 18 64
        E 0 80 2c 64
        E 0 80 1f 64
        E 0 81 2a 64
        E 0 81 29 64
        E 0 80 1d 64
        E 222 90 29 64
        E 0 90 30 64
        E 0 90 34 64
        E 0 90 3a 64
        E 0 91 15 64
        E 0 91 17 64
        E 0 91 2b 64
        E 0 90 2d 64
        E 0 90 38 64
        E 0 91 20 64
        E 1 90 1e 64
        E 0 91 1c 64
        E 0 90 21 64
        E 0 90 20 64
        E 0 91 1b 64
        E 0 90 25 64
        E 0 90 27 64
        E 0 90 28 64
        E 0 90 36 64
        E 45 91 27 64
        E 0 90 2a 64
        E 0 91 2e 64
        E 0 91 21 64
        E 0 90 32 64
        E 0 91 14 64
        E 0 90 1c 64
        E 0 91 1f 64
        E 0 91 12 64
        E 0 91 28 64
        E 0 90 26 64
        E 0 91 23 64
        E 0 91 18 64
        E 0 90 2c 64
        E 0 90 1f 64
        E 0 91 2a 64
        E 0 91 29 64
        E 0 90 1d 64
        E 489 80 29 64
        E 0 80 30 64
        E 0 80 34 64
        E 0 80 3a 64
        E 0 81 15 64
        E 0 81 17 64
        E 0 81 2b 64
        E 0 80 2d 64
        E 0 80 38 64
        E 1 80 1e 64
        E 0 81 20 64
        E 0 81 1c 64
        E 0 80 21 64
        E 0 80 20 64
        E 0 81 1b 64
        E 0 80 25 64
        E 0 80 27 64
        E 0 80 28 64
        E 0 80 36 64
        E 0 81 27 64
        E 0 80 2a 64
        E 0 81 2e 64
        E 0 81 21 64
        E 0 80 32 64
        E 0 81 14 64
        E 0 80 1c 64
        E 0 81 1f 64
        E 0 81 12 64
        E 0 81 28 64
        E 0 80 26 64
        E 0 81 23 64
        E 0 81 18 64
        E 0 80 2c 64
        E 0 80 1f 64
        E 0 81 2a 64
        E 0 81 29 64
        E 0 80 1d 64
        E 222 90 29 64
        E 0 91 14 64
        E 0 90 30 64
        E 0 90 34 64
        E 0 90 3a 64
        E 0 91 15 64
        E 0 91 17 64
        E 0 91 2b 64
        E 0 90 2d 64
        E 0 90 38 64
        E 0 91 20 64
        E 0 90 1e 64
        E 0 91 1c 64
        E 0 90 21 64
        E 0 90 20 64
        E 0 91 1b 64
        E 0 90 25 64
        E 0 90 27 64
        E 0 90 28 64
        E 0 90 36 64
        E 0 91 27 64
        E 0 90 2a 64
        E 0 91 2e 64
        E 0 91 21 64
        E 0 90 32 64
        E 0 91 14 64
        E 0 90 1c 64
        E 0 91 1f 64
        E 0 91 12 64
        E 0 91 28 64
        E 0 90 26 64
        E 0 91 23 64
        E 0 91 18 64
        E 0 90 2c 64
        E 0 90 1f 64
        E 0 91 2a 64
        E 0 91 29 64
        E 0 90 1d 64
        E 981 80 1e 64
        E 0 80 29 64
        E 0 81 14 64
        E 0 80 30 64
        E 0 80 34 64
        E 0 80 3a 64
        E 0 81 15 64
        E 0 81 17 64
        E 0 81 2b 64
        E 0 80 2d 64
        E 0 80 38 64
        E 0 81 20 64
        E 0 81 1c 64
        E 0 80 21 64
        E 0 80 20 64
        E 0 81 1b 64
        E 0 80 25 64
        E 0 80 27 64
        E 0 80 28 64
        E 0 80 36 64
        E 0 81 27 64
        E 0 80 2a 64
        E 0 81 2e 64
        E 0 81 21 64
        E 0 80 32 64
        E 0 80 1c 64
        E 0 81 1f 64
        E 0 81 12 64
        E 0 81 28 64
        E 0 80 26 64
        E 0 81 23 64
        E 0 81 18 64
        E 0 80 2c 64
        E 0 80 1f 64
        E 0 81 2a 64
        E 0 81 29 64
        E 0 80 1d 64
        E 357 81 14 64
        E 44 90 29 64
        E 0 90 30 64
        E 0 90 34 64
        E 0 90 3a 64
        E 0 91 15 64
        E 0 91 17 64
        E 0 91 2b 64
        E 0 90 2d 64
        E 0 90 38 64
        E 0 91 20 64
        E 0 90 1e 64
        E 0 91 1c 64
        E 0 90 21 64
        E 0 90 20 64
        E 1 91 1b 64
        E 0 90 25 64
        E 0 90 27 64
        E 0 90 28 64
        E 0 90 36 64
        E 0 91 27 64
        E 0 90 2a 64
        E 0 91 2e 64
        E 0 91 21 64
        E 0 90 32 64
        E 0 91 14 64
        E 0 90 1c 64
        E 0 91 1f 64
        E 0 91 12 64
        E 0 91 28 64
        E 0 90 26 64
        E 0 91 23 64
        E 0 91 18 64
        E 0 90 2c 64
        E 0 90 1f 64
        E 0 91 2a 64
        E 0 91 29 64
        E 0 90 1d 64
        E 178 80 1e 64
        E 0 80 29 64
        E 0 80 30 64
        E 0 80 34 64
        E 0 80 3a 64
        E 0 81 15 64
        E 0 81 17 64
        E 0 81 2b 64
        E 0 80 2d 64
        E 0 80 38 64
        E 0 81 20 64
        E 0 81 1c 64
        E 0 80 21 64
        E 0 80 20 64
        E 0 81 1b 64
        E 0 80 25 64
        E 0 80 27 64
        E 0 80 28 64
        E 0 80 36 64
        E 0 81 27 64
        E 0 80 2a 64
        E 0 81 2e 64
        E 0 81 21 64
        E 0 80 32 64
        E 0 81 14 64
        E 0 80 1c 64
        E 0 81 1f 64
        E 0 81 12 64
        E 0 81 28 64
        E 0 80 26 64
        E 0 81 23 64
        E 0 81 18 64
        E 0 80 2c 64
        E 0 80 1f 64
        E 0 81 2a 64
        E 0 81 29 64
        E 0 80 1d 64
        E 44 90 29 64
        E 0 90 1c 64
        E 0 90 30 64
        E 0 90 34 64
        E 0 90 3a 64
        E 0 91 15 64
        E 0 91 17 64
        E 0 91 2b 64
        E 0 90 2d 64
        E 0 90 38 64
        E 0 91 20 64
        E 0 90 1e 64
        E 0 91 1c 64
        E 0 90 21 64
        E 0 90 20 64
        E 0 91 1b 64
        E 0 90 25 64
        E 0 90 27 64
        E 0 90 28 64
        E 0 90 36 64
        E 0 91 27 64
        E 0 90 2a 64
        E 0 91 2e 64
        E 0 91 21 64
        E 0 90 32 64
        E 0 91 14 64
        E 0 90 1c 64
        E 0 91 1f 64
        E 0 91 12 64
        E 0 91 28 64
        E 0 90 26 64
        E 0 91 23 64
        E 0 91 18 64
        E 0 90 2c 64
        E 0 90 1f 64
        E 0 91 2a 64
        E 0 91 29 64
        E 0 90 1d 64
        E 535 80 1e 64
        E 0 80 29 64
        E 0 80 1c 64
        E 0 80 30 64
        E 0 80 34 64
        E 0 80 3a 64
        E 0 81 15 64
        E 0 81 17 64
        E 0 81 2b 64
        E 0 80 2d 64
        E 0 80 38 64
        E 0 81 20 64
        E 0 81 1c 64
        E 0 80 21 64
        E 0 80 20 64
        E 0 81 1b 64
        E 0 80 25 64
        E 0 80 27 64
        E 0 80 28 64
        E 0 80 36 64
        E 0 81 27 64
        E 0 80 2a 64
        E 0 81 2e 64
        E 0 81 21 64
        E 0 80 32 64
        E 0 81 14 64
        E 0 81 1f 64
        E 0 81 12 64
        E 0 81 28 64
        E 0 80 26 64
        E 0 81 23 64
        E 0 81 18 64
        E 0 80 2c 64
        E 0 80 1f 64
        E 0 81 2a 64
        E 0 81 29 64
        E 0 80 1d 64
        E 268 90 29 64
        E 0 90 30 64
        E 0 90 34 64
        E 0 90 3a 64
        E 0 91 15 64
        E 0 91 17 64
        E 0 91 2b 64
        E 0 90 2d 64
        E 0 90 38 64
        E 0 91 20 64
        E 0 90 1e 64
        E 0 91 1c 64
        E 0 90 21 64
        E 0 90 20 64
        E 0 91 1b 64
        E 0 90 25 64
        E 0 90 27 64
        E 0 90 28 64
        E 0 90 36 64
        E 0 91 27 64
        E 0 90 2a 64
        E 0 91 2e 64
        E 0 91 21 64
        E 0 90 32 64
        E 0 91 14 64
        E 0 90 1c 64
        E 0 91 1f 64
        E 0 91 12 64
        E 0 91 28 64
        E 0 90 26 64
        E 0 91 23 64
        E 0 91 18 64
        E 0 90 2c 64
        E 0 90 1f 64
        E 0 91 2a 64
        E 0 91 29 64
        E 0 90 1d 64
        E 490 80 1c 64
        E 45 80 1e 64
        E 0 80 29 64
        E 0 80 30 64
        E 0 80 34 64
        E 0 80 3a 64
        E 0 81 15 64
        E 0 81 17 64
        E 0 81 2b 64
        E 0 80 2d 64
        E 0 80 38 64
        E 0 81 20 64
        E 0 81 1c 64
        E 0 80 21 64
        E 0 80 20 64
        E 0 81 1b 64
        E 0 80 25 64
        E 0 80 27 64
        E 0 80 28 64
        E 0 80 36 64
        E 0 81 27 64
        E 0 80 2a 64
        E 0 81 2e 64
        E 0 81 21 64
        E 0 80 32 64
        E 0 81 14 64
        E 0 80 1c 64
        E 0 81 1f 64
        E 0 81 12 64
        E 0 81 28 64
        E 0 80 26 64
        E 0 81 23 64
        E 0 81 18 64
        E 0 80 2c 64
        E 0 80 1f 64
        E 0 81 2a 64
        E 0 81 29 64
        E 0 80 1d 64
        E 223 90 29 64
        E 0 91 14 64
        E 0 91 10 64
        E 0 90 30 64
        E 0 90 34 64
        E 0 90 3a 64
        E 0 91 15 64
        E 0 91 17 64
        E 0 91 2b 64
        E 0 90 2d 64
        E 0 90 38 64
        E 0 91 20 64
        E 0 90 1e 64
        E 0 91 1c 64
        E 0 90 21 64
        E 0 90 20 64
        E 0 91 1b 64
        E 0 90 25 64
        E 0 90 27 64
        E 0 90 28 64
        E 0 90 36 64
        E 0 91 27 64
        E 0 90 2a 64
        E 0 91 2e 64
        E 0 91 21 64
        E 0 90 32 64
        E 0 91 14 64
        E 0 90 1c 64
        E 0 91 1f 64
        E 0 91 12 64
        E 0 91 28 64
        E 0 90 26 64
        E 0 91 23 64
        E 0 91 18 64
        E 0 90 2c 64
        E 0 90 1f 64
        E 0 91 2a 64
        E 0 91 29 64
        E 0 90 1d 64
        E 535 80 1e 64
        E 0 80 29 64
        E 0 81 14 64
        E 0 80 30 64
        E 0 80 34 64
        E 0 80 3a 64
        E 0 81 15 64
        E 0 81 17 64
        E 0 81 2b 64
        E 0 80 2d 64
        E 0 80 38 64
        E 0 81 20 64
        E 0 81 1c 64
        E 0 80 21 64
        E 0 80 20 64
        E 0 81 1b 64
        E 0 80 25 64
        E 0 80 27 64
        E 0 80 28 64
        E 0 80 36 64
        E 0 81 27 64
        E 0 80 2a 64
        E 0 81 2e 64
        E 0 81 21 64
        E 0 80 32 64
        E 0 80 1c 64
        E 0 81 1f 64
        E 0 81 12 64
        E 0 81 28 64
        E 0 80 26 64
        E 0 81 23 64
        E 0 81 18 64
        E 0 80 2c 64
        E 0 80 1f 64
        E 0 81 2a 64
        E 0 81 29 64
        E 0 80 1d 64
        E 223 90 29 64
        E 0 90 30 64
        E 0 90 34 64
        E 0 90 3a 64
        E 0 91 15 64
        E 0 91 17 64
        E 0 91 2b 64
        E 0 90 2d 64
        E 0 90 38 64
        E 0 91 20 64
        E 0 90 1e 64
        E 0 91 1c 64
        E 0 90 21 64
        E 0 90 20 64
        E 0 91 1b 64
        E 0 90 25 64
        E 0 90 27 64
        E 0 90 28 64
        E 0 90 36 64
        E 0 91 27 64
        E 0 90 2a 64
        E 0 91 2e 64
        E 0 91 21 64
        E 0 90 32 64
        E 0 91 14 64
        E 0 90 1c 64
        E 0 91 1f 64
        E 0 91 12 64
        E 0 91 28 64
        E 0 90 26 64
        E 0 91 23 64
        E 0 91 18 64
        E 0 90 2c 64
        E 0 90 1f 64
        E 0 91 2a 64
        E 0 91 29 64
        E 0 90 1d 64
        E 535 80 1e 64
        E 0 81 14 64
        E 0 80 29 64
        E 0 80 30 64
        E 0 80 34 64
        E 0 80 3a 64
        E 0 81 15 64
        E 0 81 17 64
        E 0 81 2b 64
        E 0 80 2d 64
        E 0 80 38 64
        E 0 81 20 64
        E 0 81 1c 64
        E 0 80 21 64
        E 0 80 20 64
        E 0 81 1b 64
        E 0 80 25 64
        E 0 80 27 64
        E 0 80 28 64
        E 0 80 36 64
        E 0 81 27 64
        E 0 80 2a 64
        E 0 81 2e 64
        E 0 81 21 64
        E 0 80 32 64
        E 0 80 1c 64
        E 0 81 1f 64
        E 0 81 12 64
        E 0 81 28 64
        E 0 80 26 64
        E 0 81 23 64
        E 0 81 18 64
        E 0 80 2c 64
        E 0 80 1f 64
        E 0 81 2a 64
        E 0 81 29 64
        E 0 80 1d 64
        E 223 90 29 64
        E 0 90 30 64
        E 0 90 34 64
        E 0 90 3a 64
        E 0 91 15 64
        E 0 91 17 64
        E 0 91 2b 64
        E 0 90 2d 64
        E 0 90 38 64
        E 0 91 20 64
        E 0 90 1e 64
        E 0 91 1c 64
        E 0 90 21 64
        E 0 90 20 64
        E 0 91 1b 64
        E 0 90 25 64
        E 0 90 27 64
        E 0 90 28 64
        E 0 90 36 64
        E 0 91 27 64
        E 0 90 2a 64
        E 0 91 2e 64
        E 0 91 21 64
        E 0 90 32 64
        E 0 91 14 64
        E 0 90 1c 64
        E 0 91 1f 64
        E 0 91 12 64
        E 0 91 28 64
        E 0 90 26 64
        E 0 91 23 64
        E 0 91 18 64
        E 0 90 2c 64
        E 0 90 1f 64
        E 0 91 2a 64
        E 0 91 29 64
        E 0 90 1d 64
        E 534 80 1e 64
        E 0 80 29 64
        E 0 80 30 64
        E 0 80 34 64
        E 0 80 3a 64
        E 0 81 15 64
        E 0 81 17 64
        E 0 81 2b 64
        E 0 80 2d 64
        E 0 80 38 64
        E 0 81 20 64
        E 0 81 1c 64
        E 1 81 14 64
        E 0 80 21 64
        E 0 80 20 64
        E 0 81 1b 64
        E 0 80 25 64
        E 0 80 27 64
        E 0 80 28 64
        E 0 80 36 64
        E 0 81 27 64
        E 0 80 2a 64
        E 0 81 2e 64
        E 0 81 21 64
        E 0 80 32 64
        E 0 80 1c 64
        E 0 81 1f 64
        E 0 81 12 64
        E 0 81 28 64
        E 0 80 26 64
        E 0 81 23 64
        E 0 81 18 64
        E 0 80 2c 64
        E 0 80 1f 64
        E 0 81 2a 64
        E 0 81 29 64
        E 0 80 1d 64
        E 222 90 29 64
        E 0 90 30 64
        E 0 90 34 64
        E 0 90 3a 64
        E 0 91 15 64
        E 0 91 17 64
        E 0 91 2b 64
        E 0 90 2d 64
        E 0 90 38 64
        E 0 91 20 64
        E 0 90 1e 64
        E 0 91 1c 64
        E 0 90 21 64
        E 0 90 20 64
        E 0 91 1b 64
        E 0 90 25 64
        E 0 90 27 64
        E 0 90 28 64
        E 0 90 36 64
        E 0 91 27 64
        E 0 90 2a 64
        E 0 91 2e 64
        E 0 91 21 64
        E 0 90 32 64
        E 1 91 14 64
        E 0 90 1c 64
        E 0 91 1f 64
        E 0 91 12 64
        E 0 91 28 64
        E 0 90 26 64
        E 0 91 23 64
        E 0 91 18 64
        E 0 90 2c 64
        E 0 90 1f 64
        E 0 91 2a 64
        E 0 91 29 64
        E 0 90 1d 64
        E 579 80 1e 64
        E 0 81 14 64
        E 0 80 29 64
        E 0 80 30 64
        E 0 80 34 64
        E 0 80 3a 64
        E 0 81 15 64
        E 0 81 17 64
        E 0 81 2b 64
        E 0 80 2d 64
        E 0 80 38 64
        E 0 81 20 64
        E 0 81 1c 64
        E 0 80 21 64
        E 0 80 20 64
        E 0 81 1b 64
        E 0 80 25 64
        E 0 80 27 64
        E 0 80 28 64
        E 0 80 36 64
        E 0 81 27 64
        E 0 80 2a 64
        E 0 81 2e 64
        E 0 81 21 64
        E 0 80 32 64
        E 0 80 1c 64
        E 0 81 1f 64
        E 0 81 12 64
        E 0 81 28 64
        E 0 80 26 64
        E 0 81 23 64
        E 0 81 18 64
        E 0 80 2c 64
        E 0 80 1f 64
        E 0 81 2a 64
        E 0 81 29 64
        E 0 80 1d 64
        E 223 90 29 64
        E 0 90 30 64
        E 0 90 34 64
        E 0 90 3a 64
        E 0 91 15 64
        E 0 91 17 64
        E 0 91 2b 64
        E 0 90 2d 64
        E 0 90 38 64
        E 0 91 20 64
        E 0 90 1e 64
        E 0 91 1c 64
        E 0 90 21 64
        E 0 90 20 64
        E 0 91 1b 64
        E 0 90 25 64
        E 0 90 27 64
        E 0 90 28 64
        E 0 90 36 64
        E 0 91 27 64
        E 0 90 2a 64
        E 0 91 2e 64
        E 0 91 21 64
        E 0 90 32 64
        E 0 91 14 64
        E 0 90 1c 64
        E 0 91 1f 64
        E 0 91 12 64
        E 0 91 28 64
        E 0 90 26 64
        E 0 91 23 64
        E 0 91 18 64
        E 0 90 2c 64
        E 0 90 1f 64
        E 0 91 2a 64
        E 0 91 29 64
        E 0 90 1d 64
        E 6420 80 1e 64
        E 0 81 14 64
        E 0 80 29 64
        E 0 80 30 64
        E 0 80 34 64
        E 0 80 3a 64
        E 0 81 15 64
        E 0 81 17 64
        E 0 81 2b 64
        E 0 80 2d 64
        E 0 80 38 64
        E 0 81 20 64
        E 0 81 1c 64
        E 0 80 21 64
        E 0 80 20 64
        E 0 81 1b 64
        E 0 80 25 64
        E 0 80 27 64
        E 0 80 28 64
        E 0 80 36 64
        E 0 81 27 64
        E 0 80 2a 64
        E 0 81 2e 64
        E 0 81 21 64
        E 0 80 32 64
        E 0 80 1c 64
        E 0 81 1f 64
        E 0 81 12 64
        E 0 81 28 64
        E 0 80 26 64
        E 0 81 23 64
        E 0 81 18 64
        E 0 80 2c 64
        E 0 80 1f 64
        E 0 81 2a 64
        E 0 81 29 64
        E 0 80 1d 64
        E 2764 90 29 64
        E 0 90 30 64
        E 0 90 34 64
        E 0 90 3a 64
        E 0 91 15 64
        E 0 91 17 64
        E 0 91 2b 64
        E 0 90 2d 64
        E 0 90 38 64
        E 0 91 20 64
        E 0 90 1e 64
        E 0 91 1c 64
        E 0 90 21 64
        E 0 90 20 64
        E 0 91 1b 64
        E 0 90 25 64
        E 0 90 27 64
        E 0 90 28 64
        E 0 90 36 64
        E 0 91 27 64
        E 0 90 2a 64
        E 0 91 2e 64
        E 0 91 21 64
        E 0 90 32 64
        E 0 91 14 64
        E 0 90 1c 64
        E 0 91 1f 64
        E 0 91 12 64
        E 0 91 28 64
        E 0 90 26 64
        E 0 91 23 64
        E 0 91 18 64
        E 0 90 2c 64
        E 0 90 1f 64
        E 0 91 2a 64
        E 0 91 29 64
        E 0 90 1d 64
        E 535 80 1e 64
        E 0 81 14 64
        E 0 80 29 64
        E 0 80 30 64
        E 0 80 34 64
        E 0 80 3a 64
        E 0 81 15 64
        E 0 81 17 64
        E 0 81 2b 64
        E 0 80 2d 64
        E 0 80 38 64
        E 0 81 20 64
        E 0 81 1c 64
        E 0 80 21 64
        E 0 80 20 64
        E 0 81 1b 64
        E 0 80 25 64
        E 0 80 27 64
        E 0 80 28 64
        E 0 80 36 64
        E 0 81 27 64
        E 0 80 2a 64
        E 0 81 2e 64
        E 0 81 21 64
        E 0 80 32 64
        E 0 80 1c 64
        E 0 81 1f 64
        E 0 81 12 64
        E 0 81 28 64
        E 0 80 26 64
        E 0 81 23 64
        E 0 81 18 64
        E 0 80 2c 64
        E 0 80 1f 64
        E 0 81 2a 64
        E 0 81 29 64
        E 0 80 1d 64
        E 267 90 29 64
        E 0 90 30 64
        E 0 90 34 64
        E 0 90 3a 64
        E 0 91 15 64
        E 0 91 17 64
        E 0 91 2b 64
        E 0 90 2d 64
        E 0 90 38 64
        E 0 91 20 64
        E 0 90 1e 64
        E 0 91 1c 64
        E 0 90 21 64
        E 0 90 20 64
        E 0 91 1b 64
        E 0 90 25 64
        E 0 90 27 64
        E 0 90 28 64
        E 0 90 36 64
        E 0 91 27 64
        E 0 90 2a 64
        E 0 91 2e 64
        E 0 91 21 64
        E 0 90 32 64
        E 0 91 14 64
        E 0 90 1c 64
        E 0 91 1f 64
        E 0 91 12 64
        E 0 91 28 64
        E 1 90 26 64
        E 0 91 23 64
        E 0 91 18 64
        E 0 90 2c 64
        E 0 90 1f 64
        E 0 91 2a 64
        E 0 91 29 64
        E 0 90 1d 64
        E 534 80 1e 64
        E 0 81 14 64
        E 0 80 29 64
        E 0 80 30 64
        E 0 80 34 64
        E 0 80 3a 64
        E 0 81 15 64
        E 0 81 17 64
        E 0 81 2b 64
        E 0 80 2d 64
        E 0 80 38 64
        E 0 81 20 64
        E 0 81 1c 64
        E 0 80 21 64
        E 0 80 20 64
        E 0 81 1b 64
        E 0 80 25 64
        E 0 80 27 64
        E 0 80 28 64
        E 0 80 36 64
        E 0 81 27 64
        E 0 80 2a 64
        E 0 81 2e 64
        E 0 81 21 64
        E 0 80 32 64
        E 0 80 1c 64
        E 0 81 1f 64
        E 0 81 12 64
        E 0 81 28 64
        E 0 80 26 64
        E 0 81 23 64
        E 0 81 18 64
        E 0 80 2c 64
        E 0 80 1f 64
        E 0 81 2a 64
        E 0 81 29 64
        E 0 80 1d 64
        E 223 90 29 64
        E 0 90 30 64
        E 0 90 34 64
        E 0 90 3a 64
        E 0 91 15 64
        E 0 91 17 64
        E 0 91 2b 64
        E 0 90 2d 64
        E 0 90 38 64
        E 0 91 20 64
        E 0 90 1e 64
        E 0 91 1c 64
        E 0 90 21 64
        E 0 90 20 64
        E 0 91 1b 64
        E 0 90 25 64
        E 0 90 27 64
        E 0 90 28 64
        E 0 90 36 64
        E 0 91 27 64
        E 0 90 2a 64
        E 0 91 2e 64
        E 0 91 21 64
        E 0 90 32 64
        E 0 91 14 64
        E 0 90 1c 64
        E 0 91 1f 64
        E 0 91 12 64
        E 0 91 28 64
        E 0 90 26 64
        E 0 91 23 64
        E 0 91 18 64
        E 0 90 2c 64
        E 0 90 1f 64
        E 0 91 2a 64
        E 0 91 29 64
        E 0 90 1d 64
        E 491 81 10 64
        E 0 80 24 64
        E 0 81 1a 64
        E 0 80 1e 64
        E 0 81 14 64
        E 44 80 29 64
        E 0 80 30 64
        E 0 80 34 64
        E 0 80 3a 64
        E 0 81 15 64
        E 0 81 17 64
        E 0 81 2b 64
        E 0 80 2d 64
        E 0 80 38 64
        E 0 81 20 64
        E 0 80 1e 64
        E 0 81 1c 64
        E 0 80 21 64
        E 0 80 20 64
        E 0 81 1b 64
        E 0 80 25 64
        E 0 80 27 64
        E 0 80 28 64
        E 0 80 36 64
        E 0 81 27 64
        E 0 80 2a 64
        E 0 81 2e 64
        E 0 81 21 64
        E 0 80 32 64
        E 0 81 14 64
        E 0 80 1c 64
        E 0 81 1f 64
        E 0 81 12 64
        E 0 81 28 64
        E 0 80 26 64
        E 0 81 23 64
        E 0 81 18 64
        E 0 80 2c 64
        E 0 80 1f 64
        E 0 81 2a 64
        E 0 81 29 64
        E 0 80 1d 64
        E 223 90 29 64
        E 0 90 30 64
        E 0 90 34 64
        E 0 90 3a 64
        E 0 91 15 64
        E 0 91 17 64
        E 0 91 2b 64
        E 0 90 2d 64
        E 0 90 38 64
        E 0 91 20 64
        E 0 90 1e 64
        E 0 91 1c 64
        E 0 90 21 64
        E 0 90 20 64
        E 0 91 1b 64
        E 0 90 25 64
        E 0 90 27 64
        E 0 90 28 64
        E 0 90 36 64
        E 0 91 27 64
        E 0 90 2a 64
        E 0 91 2e 64
        E 0 91 21 64
        E 0 90 32 64
        E 0 91 14 64
        E 0 90 1c 64
        E 0 91 1f 64
        E 0 91 12 64
        E 0 91 28 64
        E 0 90 26 64
        E 0 91 23 64
        E 0 91 18 64
        E 0 90 2c 64
        E 0 90 1f 64
        E 0 91 2a 64
        E 0 91 29 64
        E 0 90 1d 64
        E 446 80 29 64
        E 0 80 30 64
        E 0 80 34 64
        E 0 80 3a 64
        E 0 81 15 64
        E 0 81 17 64
        E 0 81 2b 64
        E 0 80 2d 64
        E 0 80 38 64
        E 0 81 20 64
        E 0 80 1e 64
        E 0 81 1c 64
        E 0 80 21 64
        E 0 80 20 64
        E 0 81 1b 64
        E 0 80 25 64
        E 0 80 27 64
        E 0 80 28 64
        E 0 80 36 64
        E 0 81 27 64
        E 0 80 2a 64
        E 0 81 2e 64
        E 0 81 21 64
        E 0 80 32 64
        E 0 81 14 64
        E 0 80 1c 64
        E 0 81 1f 64
        E 0 81 12 64
        E 0 81 28 64
        E 0 80 26 64
        E 0 81 23 64
        E 0 81 18 64
        E 0 80 2c 64
        E 0 80 1f 64
        E 0 81 2a 64
        E 0 81 29 64
        E 0 80 1d 64
        E 178 90 29 64
        E 0 90 30 64
        E 0 90 34 64
        E 0 90 3a 64
        E 0 91 15 64
        E 0 91 17 64
        E 0 91 2b 64
        E 0 90 2d 64
        E 0 90 38 64
        E 0 91 20 64
        E 0 90 1e 64
        E 0 91 1c 64
        E 0 90 21 64
        E 0 90 20 64
        E 0 91 1b 64
        E 0 90 25 64
        E 0 90 27 64
        E 0 90 28 64
        E 0 90 36 64
        E 0 91 27 64
        E 0 90 2a 64
        E 0 91 2e 64
        E 0 91 21 64
        E 0 90 32 64
        E 0 91 14 64
        E 0 90 1c 64
        E 0 91 1f 64
        E 0 91 12 64
        E 0 91 28 64
        E 0 90 26 64
        E 0 91 23 64
        E 0 91 18 64
        E 1 90 2c 64
        E 0 90 1f 64
        E 0 91 2a 64
        E 0 91 29 64
        E 0 90 1d 64
        E 534 80 29 64
        E 0 80 30 64
        E 0 80 34 64
        E 0 80 3a 64
        E 0 81 15 64
        E 0 81 17 64
        E 0 81 2b 64
        E 0 80 2d 64
        E 0 80 38 64
        E 0 81 20 64
        E 0 80 1e 64
        E 0 81 1c 64
        E 0 80 21 64
        E 0 80 20 64
        E 0 81 1b 64
        E 0 80 25 64
        E 0 80 27 64
        E 0 80 28 64
        E 0 80 36 64
        E 0 81 27 64
        E 0 80 2a 64
        E 0 81 2e 64
        E 0 81 21 64
        E 0 80 32 64
        E 0 81 14 64
        E 0 80 1c 64
        E 0 81 1f 64
        E 0 81 12 64
        E 0 81 28 64
        E 0 80 26 64
        E 0 81 23 64
        E 0 81 18 64
        E 0 80 2c 64
        E 0 80 1f 64
        E 0 81 2a 64
        E 0 81 29 64
        E 0 80 1d 64
        E 223 90 29 64
        E 0 90 30 64
        E 0 90 34 64
        E 0 90 3a 64
        E 0 91 15 64
        E 0 91 17 64
        E 0 91 2b 64
        E 0 90 2d 64
        E 0 90 38 64
        E 0 91 20 64
        E 0 90 1e 64
        E 0 91 1c 64
        E 0 90 21 64
        E 0 90 20 64
        E 0 91 1b 64
        E 0 90 25 64
        E 0 90 27 64
        E 0 90 28 64
        E 0 90 36 64
        E 0 91 27 64
        E 0 90 2a 64
        E 0 91 2e 64
        E 0 91 21 64
        E 0 90 32 64
        E 0 91 14 64
        E 0 90 1c 64
        E 0 91 1f 64
        E 0 91 12 64
        E 0 91 28 64
        E 0 90 26 64
        E 0 91 23 64
        E 0 91 18 64
        E 0 90 2c 64
        E 0 90 1f 64
        E 0 91 2a 64
        E 0 91 29 64
        E 0 90 1d 64
        E 446 80 29 64
        E 0 80 30 64
        E 0 80 34 64
        E 0 80 3a 64
        E 0 81 15 64
        E 0 81 17 64
        E 0 81 2b 64
        E 0 80 2d 64
        E 0 80 38 64
        E 0 81 20 64
        E 0 80 1e 64
        E 0 81 1c 64
        E 0 80 21 64
        E 0 80 20 64
        E 0 81 1b 64
        E 0 80 25 64
        E 0 80 27 64
        E 0 80 28 64
        E 0 80 36 64
        E 0 81 27 64
        E 0 80 2a 64
        E 0 81 2e 64
        E 0 81 21 64
        E 0 80 32 64
        E 0 81 14 64
        E 0 80 1c 64
        E 0 81 1f 64
        E 0 81 12 64
        E 0 81 28 64
        E 0 80 26 64
        E 0 81 23 64
        E 0 81 18 64
        E 0 80 2c 64
        E 0 80 1f 64
        E 0 81 2a 64
        E 0 81 29 64
        E 0 80 1d 64
        E 178 81 10 64
        E 0 81 10 64
        E 3834 91 10 64
        E 0 90 1a 64
        E 0 90 1a 64
        E 0 90 1b 64
        E 0 90 1b 64
        E 0 91 11 64
        E 0 91 11 64
        E 0 90 1d 64
        E 0 90 1d 64
        E 0 91 13 64
        E 0 91 13 64
        E 0 90 1c 64
        E 0 90 1c 64
        E 0 91 12 64
        E 0 91 12 64
        E 0 90 1e 64
        E 0 90 1e 64
        E 0 91 14 64
        E 0 91 14 64
        E 0 90 20 64
        E 0 90 20 64
        E 0 91 16 64
        E 0 91 16 64
        E 0 90 1f 64
        E 0 90 1f 64
        E 1 91 15 64
        E 0 91 15 64
        E 0 90 21 64
        E 0 90 21 64
        E 0 91 17 64
        E 0 91 17 64
        E 0 90 22 64
        E 0 90 22 64
        E 0 91 18 64
        E 0 91 18 64
        E 0 90 23 64
        E 0 90 23 64
        E 0 91 19 64
        E 0 91 19 64
        E 0 90 24 64
        E 0 90 24 64
        E 0 91 1a 64
        E 0 91 1a 64
        E 0 90 25 64
        E 0 90 25 64
        E 0 90 26 64
        E 0 90 26 64
        E 0 91 1b 64
        E 0 91 1b 64
        E 0 90 28 64
        E 0 90 28 64
        E 0 91 1d 64
        E 0 91 1d 64
        E 0 90 27 64
        E 0 90 27 64
        E 0 91 1c 64
        E 0 91 1c 64
        E 0 90 29 64
        E 0 91 1e 64
        E 0 90 2a 64
        E 0 91 1f 64
        E 0 90 2b 64
        E 0 91 20 64
        E 0 90 2c 64
        E 0 91 21 64
        E 0 90 2d 64
        E 0 90 2e 64
        E 0 91 22 64
        E 0 90 30 64
        E 0 91 24 64
        E 0 90 2f 64
        E 0 91 23 64
        E 0 90 31 64
        E 0 91 25 64
        E 0 90 33 64
        E 0 91 27 64
        E 0 90 32 64
        E 0 91 26 64
        E 0 90 34 64
        E 0 91 28 64
        E 0 90 35 64
        E 0 91 29 64
        E 0 90 36 64
        E 0 91 2a 64
        E 0 90 37 64
        E 0 91 2b 64
        E 0 90 38 64
        E 0 90 39 64
        E 0 91 2c 64
        E 0 90 3b 64
        E 0 91 2e 64
        E 0 90 3a 64
        E 3833 81 2a 64
        E 1739 80 30 64
        E 3433 80 2d 64
        E 1694 81 1c 64
        E 1739 81 24 64
        E 2229 80 31 64
        E 2140 80 33 64
        E 1427 80 1c 64
        E 2229 80 2b 64
        E 1961 81 28 64
        E 1962 81 27 64
        E 1159 80 37 64
        E 2095 81 2e 64
        E 2943 80 28 64
        E 2452 80 24 64
        E 2184 80 2a 64
        E 1605 81 15 64
        E 2096 80 25 64
        E 3343 80 20 64
        E 2764 81 20 64
        E 2140 80 2e 64
        E 2765 80 2f 64
        E 3076 80 34 64
        E 3388 81 12 64
        E 2229 80 26 64
        E 2853 81 14 64
        E 2809 80 32 64
        E 1293 81 13 64
        E 1739 80 1b 64
        E 2050 81 1e 64
        E 3121 81 22 64
        E 1873 80 36 64
        E 1872 81 11 64
        E 2497 80 23 64
        E 1293 81 17 64
        E 1605 80 39 64
        E 2229 80 3b 64
        E 3031 81 19 64
        E 1650 81 23 64
        E 2496 81 1d 64
        E 3344 80 35 64
        E 2095 81 1b 64
        E 2140 80 22 64
        E 1828 80 29 64
        E 2854 81 1a 64
        E 2719 80 27 64
        E 1248 80 38 64
        E 3433 81 2c 64
        E 1070 81 16 64
        E 1516 80 3a 64
        E 2720 80 21 64
        E 2407 81 21 64
        E 1337 81 29 64
        E 1695 80 1d 64
        E 2541 80 1e 64
        E 2229 80 1a 64
        E 1605 81 18 64
        E 3076 81 26 64
        E 2942 81 1f 64
        E 2809 81 10 64
        E 2229 80 1f 64
        E 21979 91 21 64
        E 9586 90 37 64
        E 9629 81 21 64
        E 9541 90 31 64
        E 1293 80 2c 64
        E 22558 80 37 64
        E 19394 90 2c 64
        E 1248 81 25 64
        E 11458 90 37 64
        E 11814 91 21 64
        E 20062 81 21 64
        E 535 80 37 64
        E 2318 91 21 64
        E 1070 80 31 64
        E 38653 90 31 64
        E 758 81 2b 64
        E 18992 91 2b 64
        E 13419 91 25 64
        E 11726 81 2b 64
        E 2897 91 2b 64
        E 892 81 21 64
        E 5439 81 25 64
        E 38029 91 25 64
        E 847 80 31 64
        E 8203 91 21 64
        E 17164 90 31 64
        E 15114 90 37 64
        E 758 80 2c 64
        E 6954 81 21 64
        E 11191 80 31 64
        E 19616 90 31 64
        E 802 80 37 64
        E 14044 90 37 64
        E 25233 90 2c 64
        E 2408 80 37 64
        E 6732 90 37 64
        E 980 80 31 64
        E 15515 80 2c 64
        E 27686 90 2c 64
        E 2095 90 31 64
        E 936 80 37 64
        E 22871 80 2c 64
        E 16674 90 2c 64
        E 10254 90 37 64
        E 446 80 31 64
        E 20775 80 2c 64
        E 8961 91 21 64
        E 22291 90 2c 64
        E 1115 80 37 64
        E 14355 81 21 64
        E 3299 91 21 64
        E 25279 90 31 64
        E 445 81 2b 64
        E 13598 91 2b 64
        E 6019 81 21 64
        E 27953 90 37 64
        E 980 80 2c 64
        E 4503 81 2b 64
        E 4904 91 21 64
        E 20464 81 21 64
        E 9139 90 2c 64
        E 713 80 37 64
        E 9496 90 37 64
        E 24610 80 37 64
        E 12483 90 37 64
        E 4993 91 21 64
        E 847 81 25 64
        E 14489 80 31 64
        E 0 80 2c 64
        E 0 80 37 64
        E 0 81 21 64
        E 168921 81 10 00
        E 0 81 10 00
        E 0 81 10 00
        E 0 80 1a 00
        E 0 80 1b 00
        E 0 81 11 00
        E 0 80 1d 00
        E 0 81 13 00
        E 0 80 1c 00
        E 0 81 12 00
        E 0 80 1e 00
        E 0 81 14 00
        E 0 80 20 00
        E 0 81 16 00
        E 0 80 1f 00
        E 0 81 15 00
        E 0 80 21 00
        E 0 81 17 00
        E 0 80 22 00
        E 0 81 18 00
        E 0 80 23 00
        E 0 81 19 00
        E 0 80 24 00
        E 0 81 1a 00
        E 0 80 25 00
        E 0 80 26 00
        E 0 81 1b 00
        E 0 80 28 00
        E 0 81 1d 00
        E 0 80 27 00
        E 0 81 1c 00
        E 31019 93 01 64
        E 1873 83 01 64
        E 53016 b0 7b 00
        CCINTERP 32
        CHASE_CC_TAKEOFFS 1
        GUID {00A83646-A8BE-7546-B9A0-6836118D9936}
        IGNTEMPO 0 120 4 4
        SRCCOLOR 33
        VELLANE 128 100 0
        CFGEDITVIEW -14525.756002 0.002744 65 12 0 -1 0 0 0 0.5
        KEYSNAP 0
        TRACKSEL 0
        EVTFILTER 0 -1 -1 -1 -1 0 0 0 0 -1 -1 -1 -1 0 -1 0 -1 -1
        CFGEDIT 1 1 0 1 0 0 1 1 1 1 1 0.125 0 0 1680 1027 0 0 0 1 0 0 0 0 0 0.5 0 0 1 64
      >
    >
  >
  <TRACK {2D20B8EA-0302-1046-9270-3A90EB043E6B}
    NAME soundcheck
    PEAKCOL 16576
    BEAT -1
    AUTOMODE 0
    VOLPAN 1 0 -1 -1 1
    MUTESOLO 1 0 0
    IPHASE 0
    PLAYOFFS 0 1
    ISBUS 0 0
    BUSCOMP 0 0 0 0 0
    SHOWINMIX 1 0.6667 0.5 1 0.5 -1 -1 -1
    FREEMODE 0
    SEL 0
    REC 0 1024 1 0 0 0 0
    VU 2
    TRACKHEIGHT 87 0 0 0 0 0
    INQ 0 0 0 0.5 100 0 0 100
    NCHAN 2
    FX 1
    TRACKID {2D20B8EA-0302-1046-9270-3A90EB043E6B}
    PERF 0
    MIDIOUT -1
    MAINSEND 1 0
    <ITEM
      POSITION 1539.0231292517008
      SNAPOFFS 0
      LENGTH 21.69707482993197
      LOOP 1
      ALLTAKES 0
      FADEIN 1 0.01 0 1 0 0 0
      FADEOUT 1 0.01 0 1 0 0 0
      MUTE 0 0
      SEL 0
      IGUID {74C9691D-474D-184B-B907-851FBAE05022}
      IID 29
      NAME 02-soundcheck-220401_1004.wav
      VOLPAN 1 0 1 -1
      SOFFS 0
      PLAYRATE 1 1 0 -1 0 0.0025
      CHANMODE 0
      GUID {40D074D8-3A3B-4440-9D50-7280F8E1D832}
      RECPASS 9
      <SOURCE WAVE
        FILE "02-soundcheck-220401_1004.wav"
      >
    >
    <ITEM
      POSITION 2179.0501587301587
      SNAPOFFS 0
      LENGTH 322.09362811791385
      LOOP 1
      ALLTAKES 0
      FADEIN 1 0.01 0 1 0 0 0
      FADEOUT 1 0.01 0 1 0 0 0
      MUTE 0 0
      SEL 0
      IGUID {8D310786-53DF-F245-965F-031709A7F4DC}
      IID 25
      NAME 02-soundcheck-220401_0955.wav
      VOLPAN 1 0 1 -1
      SOFFS 0
      PLAYRATE 1 1 0 -1 0 0.0025
      CHANMODE 0
      GUID {A9E965BC-4D36-EF43-BFED-D7F18A875443}
      RECPASS 6
      <SOURCE WAVE
        FILE "02-soundcheck-220401_0955.wav"
      >
    >
    <ITEM
      POSITION 2616.2565306122451
      SNAPOFFS 0
      LENGTH 803.33879818594107
      LOOP 1
      ALLTAKES 0
      FADEIN 1 0.01 0 1 0 0 0
      FADEOUT 1 0.01 0 1 0 0 0
      MUTE 0 0
      SEL 0
      IGUID {5509A689-C829-3B4D-9A33-17B63962547E}
      IID 18
      NAME 02-220401_0935.wav
      VOLPAN 1 0 1 -1
      SOFFS 0
      PLAYRATE 1 1 0 -1 0 0.0025
      CHANMODE 0
      GUID {73EDB78C-1BFE-274D-890C-B69846150C51}
      RECPASS 1
      <SOURCE WAVE
        FILE "02-220401_0935.wav"
      >
    >
  >
  <TRACK {E74A8391-51BF-424A-967E-2785F6DA6524}
    NAME "Take 1"
    PEAKCOL 16576
    BEAT -1
    AUTOMODE 0
    VOLPAN 1 0 -1 -1 1
    MUTESOLO 1 0 0
    IPHASE 0
    PLAYOFFS 0 1
    ISBUS 0 0
    BUSCOMP 0 0 0 0 0
    SHOWINMIX 1 0.6667 0.5 1 0.5 -1 -1 -1
    FREEMODE 0
    SEL 0
    REC 0 1024 1 0 0 0 0
    VU 2
    TRACKHEIGHT 61 0 0 0 0 0
    INQ 0 0 0 0.5 100 0 0 100
    NCHAN 2
    FX 1
    TRACKID {E74A8391-51BF-424A-967E-2785F6DA6524}
    PERF 0
    MIDIOUT -1
    MAINSEND 1 0
    <ITEM
      POSITION 344.43702947845804
      SNAPOFFS 0
      LENGTH 1167.4044671201814
      LOOP 1
      ALLTAKES 0
      FADEIN 1 0.01 0 1 0 0 0
      FADEOUT 1 0.01 0 1 0 0 0
      MUTE 0 0
      SEL 0
      IGUID {27CBF78F-AAFF-B04D-9BD7-AC58A4130F15}
      IID 38
      NAME "03-Take 1-220401_1043.wav"
      VOLPAN 1 0 1 -1
      SOFFS 0
      PLAYRATE 1 1 0 -1 0 0.0025
      CHANMODE 0
      GUID {6162C3D6-5861-054F-9ED7-E47FEB5E418B}
      RECPASS 18
      <SOURCE WAVE
        FILE "03-Take 1-220401_1043.wav"
      >
    >
    <ITEM
      POSITION 1674.0566893424036
      SNAPOFFS 0
      LENGTH 148.50124716553287
      LOOP 1
      ALLTAKES 0
      FADEIN 1 0.01 0 1 0 0 0
      FADEOUT 1 0.01 0 1 0 0 0
      MUTE 0 0
      SEL 0
      IGUID {7733ABC8-EC55-8844-BAC1-9F8BC5882102}
      IID 51
      NAME "03-Take 1-220401_1144.wav"
      VOLPAN 1 0 1 -1
      SOFFS 0
      PLAYRATE 1 1 0 -1 0 0.0025
      CHANMODE 0
      GUID {5184764A-C292-814F-93B7-0E2DDD0723CF}
      RECPASS 31
      <SOURCE WAVE
        FILE "03-Take 1-220401_1144.wav"
      >
    >
    <ITEM
      POSITION 1954.6201814058957
      SNAPOFFS 0
      LENGTH 67.46360544217687
      LOOP 1
      ALLTAKES 0
      FADEIN 1 0.01 0 1 0 0 0
      FADEOUT 1 0.01 0 1 0 0 0
      MUTE 0 0
      SEL 0
      IGUID {CFFF9CD9-82B1-A444-B217-CEF6CE053A43}
      IID 53
      NAME "03-Take 1-220401_1153.wav"
      VOLPAN 1 0 1 -1
      SOFFS 0
      PLAYRATE 1 1 0 -1 0 0.0025
      CHANMODE 0
      GUID {B3AFD6C7-BD34-6448-8ACB-5D98FC47383C}
      RECPASS 33
      <SOURCE WAVE
        FILE "03-Take 1-220401_1153.wav"
      >
    >
    <ITEM
      POSITION 2047.686984126984
      SNAPOFFS 0
      LENGTH 366.30442176870747
      LOOP 1
      ALLTAKES 0
      FADEIN 1 0.01 0 1 0 0 0
      FADEOUT 1 0.01 0 1 0 0 0
      MUTE 0 0
      SEL 0
      IGUID {D5E4167B-6601-B849-8146-BCDE9BE952F4}
      IID 60
      NAME "03-Take 1-220401_1209-01.wav"
      VOLPAN 1 0 1 -1
      SOFFS 0
      PLAYRATE 1 1 0 -1 0 0.0025
      CHANMODE 0
      GUID {18214F9C-CC43-FD48-BDA8-324B064B18FD}
      RECPASS 40
      <SOURCE WAVE
        FILE "03-Take 1-220401_1209-01.wav"
      >
    >
    <ITEM
      POSITION 2602.6497052154195
      SNAPOFFS 0
      LENGTH 814.65852607709746
      LOOP 1
      ALLTAKES 0
      FADEIN 1 0.01 0 1 0 0 0
      FADEOUT 1 0.01 0 1 0 0 0
      MUTE 0 0
      SEL 0
      IGUID {86FCF6E3-C188-B544-961D-3351CA0FCED9}
      IID 62
      NAME "03-Take 1-220401_1217.wav"
      VOLPAN 1 0 1 -1
      SOFFS 0
      PLAYRATE 1 1 0 -1 0 0.0025
      CHANMODE 0
      GUID {743CFD39-E0B0-774E-95A8-4488C11733C6}
      RECPASS 42
      <SOURCE WAVE
        FILE "03-Take 1-220401_1217.wav"
      >
    >
  >
  <TRACK {2E24E5F7-73A3-0047-9BD8-C55EE1AF73B6}
    NAME "Take 2"
    PEAKCOL 16576
    BEAT -1
    AUTOMODE 0
    VOLPAN 1 0 -1 -1 1
    MUTESOLO 1 0 0
    IPHASE 0
    PLAYOFFS 0 1
    ISBUS 0 0
    BUSCOMP 0 0 0 0 0
    SHOWINMIX 1 0.6667 0.5 1 0.5 -1 -1 -1
    FREEMODE 0
    SEL 0
    REC 0 1024 1 0 0 0 0
    VU 2
    TRACKHEIGHT 54 0 0 0 0 0
    INQ 0 0 0 0.5 100 0 0 100
    NCHAN 2
    FX 1
    TRACKID {2E24E5F7-73A3-0047-9BD8-C55EE1AF73B6}
    PERF 0
    MIDIOUT -1
    MAINSEND 1 0
    <ITEM
      POSITION 471.87721088435376
      SNAPOFFS 0
      LENGTH 286.60192743764173
      LOOP 1
      ALLTAKES 0
      FADEIN 1 0.01 0 1 0 0 0
      FADEOUT 1 0.01 0 1 0 0 0
      MUTE 0 0
      SEL 0
      IGUID {390AE598-1C0A-4B44-9439-64C219CAB14A}
      IID 40
      NAME "04-Take 2-220401_1103-01.wav"
      VOLPAN 1 0 1 -1
      SOFFS 0
      PLAYRATE 1 1 0 -1 0 0.0025
      CHANMODE 0
      GUID {9AFAA1A7-E624-FA40-926A-544F2F6B18B9}
      RECPASS 20
      <SOURCE WAVE
        FILE "04-Take 2-220401_1103-01.wav"
      >
    >
    <ITEM
      POSITION 1130.5052154195012
      SNAPOFFS 0
      LENGTH 214.34142857142857
      LOOP 1
      ALLTAKES 0
      FADEIN 1 0.01 0 1 0 0 0
      FADEOUT 1 0.01 0 1 0 0 0
      MUTE 0 0
      SEL 0
      IGUID {6B652DC0-9B63-D342-BBBC-BFFC43D0D579}
      IID 45
      NAME "04-Take 2-220401_1126-01.wav"
      VOLPAN 1 0 1 -1
      SOFFS 0
      PLAYRATE 1 1 0 -1 0 0.0025
      CHANMODE 0
      GUID {4353D70A-3555-0844-895A-209E4B0242CE}
      RECPASS 25
      <SOURCE WAVE
        FILE "04-Take 2-220401_1126-01.wav"
      >
    >
    <ITEM
      POSITION 1428.2190476190476
      SNAPOFFS 0
      LENGTH 311.27312925170065
      LOOP 1
      ALLTAKES 0
      FADEIN 1 0.01 0 1 0 0 0
      FADEOUT 1 0.01 0 1 0 0 0
      MUTE 0 0
      SEL 0
      IGUID {A3710B99-020A-0A49-AF4E-B69AE9BB0EA8}
      IID 50
      NAME "04-Take 2-220401_1138.wav"
      VOLPAN 1 0 1 -1
      SOFFS 0
      PLAYRATE 1 1 0 -1 0 0.0025
      CHANMODE 0
      GUID {CD28F486-2F87-CE45-AA66-40A0DDC547F7}
      RECPASS 30
      <SOURCE WAVE
        FILE "04-Take 2-220401_1138.wav"
      >
    >
    <ITEM
      POSITION 1954.3443537414967
      SNAPOFFS 0
      LENGTH 323.81190476190477
      LOOP 1
      ALLTAKES 0
      FADEIN 1 0.01 0 1 0 0 0
      FADEOUT 1 0.01 0 1 0 0 0
      MUTE 0 0
      SEL 0
      IGUID {D1FDFDA0-4E88-A14E-B251-17C008EFE680}
      IID 54
      NAME "04-Take 2-220401_1155.wav"
      VOLPAN 1 0 1 -1
      SOFFS 0
      PLAYRATE 1 1 0 -1 0 0.0025
      CHANMODE 0
      GUID {7C731C57-E2D1-5F4B-8D11-ED5725A15C99}
      RECPASS 34
      <SOURCE WAVE
        FILE "04-Take 2-220401_1155.wav"
      >
    >
    <ITEM
      POSITION 2597.2505442176871
      SNAPOFFS 0
      LENGTH 857.27875283446713
      LOOP 1
      ALLTAKES 0
      FADEIN 1 0.01 0 1 0 0 0
      FADEOUT 1 0.01 0 1 0 0 0
      MUTE 0 0
      SEL 0
      IGUID {704676DC-A53D-7B46-BCEF-0B0FC0A0EC4E}
      IID 70
      NAME "04-Take 2-220401_1417.wav"
      VOLPAN 1 0 1 -1
      SOFFS 0
      PLAYRATE 1 1 0 -1 0 0.0025
      CHANMODE 0
      GUID {BB236321-B41B-3D4B-97A4-2A3D55661688}
      RECPASS 49
      <SOURCE WAVE
        FILE "04-Take 2-220401_1417.wav"
      >
    >
  >
  <TRACK {CC59D3AD-9ECD-CA40-9E16-3BD7146AE335}
    NAME "Take 3"
    PEAKCOL 16576
    BEAT -1
    AUTOMODE 0
    VOLPAN 1 0 -1 -1 1
    MUTESOLO 1 0 0
    IPHASE 0
    PLAYOFFS 0 1
    ISBUS 0 0
    BUSCOMP 0 0 0 0 0
    SHOWINMIX 1 0.6667 0.5 1 0.5 -1 -1 -1
    FREEMODE 0
    SEL 0
    REC 0 1024 1 0 0 0 0
    VU 2
    TRACKHEIGHT 53 0 0 0 0 0
    INQ 0 0 0 0.5 100 0 0 100
    NCHAN 2
    FX 1
    TRACKID {CC59D3AD-9ECD-CA40-9E16-3BD7146AE335}
    PERF 0
    MIDIOUT -1
    MAINSEND 1 0
    <ITEM
      POSITION 470.99321995464851
      SNAPOFFS 0
      LENGTH 436.21970521541948
      LOOP 1
      ALLTAKES 0
      FADEIN 1 0.01 0 1 0 0 0
      FADEOUT 1 0.01 0 1 0 0 0
      MUTE 0 0
      SEL 0
      IGUID {D3703940-79F5-594A-82FC-92CA0ADCE977}
      IID 42
      NAME "05-Take 3-220401_1109-01.wav"
      VOLPAN 1 0 1 -1
      SOFFS 0
      PLAYRATE 1 1 0 -1 0 0.0025
      CHANMODE 0
      GUID {5C1F828B-1FBA-8E46-9EA8-04CB4F9FE3C3}
      RECPASS 22
      <SOURCE WAVE
        FILE "05-Take 3-220401_1109-01.wav"
      >
    >
    <ITEM
      POSITION 1267.6167800453516
      SNAPOFFS 0
      LENGTH 250.10015873015874
      LOOP 1
      ALLTAKES 0
      FADEIN 1 0.01 0 1 0 0 0
      FADEOUT 1 0.01 0 1 0 0 0
      MUTE 0 0
      SEL 0
      IGUID {09FFC115-87D6-4449-83D2-AFB5A0AD5A25}
      IID 48
      NAME "05-Take 3-220401_1132-01.wav"
      VOLPAN 1 0 1 -1
      SOFFS 0
      PLAYRATE 1 1 0 -1 0 0.0025
      CHANMODE 0
      GUID {E19322A5-4F75-5E4D-B12C-E4B281CBB682}
      RECPASS 28
      <SOURCE WAVE
        FILE "05-Take 3-220401_1132-01.wav"
      >
    >
    <ITEM
      POSITION 1673.050498866213
      SNAPOFFS 0
      LENGTH 314.53553287981862
      LOOP 1
      ALLTAKES 0
      FADEIN 1 0.01 0 1 0 0 0
      FADEOUT 1 0.01 0 1 0 0 0
      MUTE 0 0
      SEL 0
      IGUID {9EE0B306-E23E-AD42-931B-B2459CD04819}
      IID 52
      NAME "05-Take 3-220401_1147.wav"
      VOLPAN 1 0 1 -1
      SOFFS 0
      PLAYRATE 1 1 0 -1 0 0.0025
      CHANMODE 0
      GUID {1EA85D91-5BE7-5042-93FC-B9CFF8BD0029}
      RECPASS 32
      <SOURCE WAVE
        FILE "05-Take 3-220401_1147.wav"
      >
    >
    <ITEM
      POSITION 2043.0139002267574
      SNAPOFFS 0
      LENGTH 366.42052154195011
      LOOP 1
      ALLTAKES 0
      FADEIN 1 0.01 0 1 0 0 0
      FADEOUT 1 0.01 0 1 0 0 0
      MUTE 0 0
      SEL 0
      IGUID {11F93E13-E462-504A-9BE3-8C14A3CDBDF4}
      IID 58
      NAME "05-Take 3-220401_1202.wav"
      VOLPAN 1 0 1 -1
      SOFFS 0
      PLAYRATE 1 1 0 -1 0 0.0025
      CHANMODE 0
      GUID {7B36C1EF-883A-C449-8517-6F2A85130D2C}
      RECPASS 38
      <SOURCE WAVE
        FILE "05-Take 3-220401_1202.wav"
      >
    >
    <ITEM
      POSITION 2590.6141950113379
      SNAPOFFS 0
      LENGTH 866.50868480725626
      LOOP 1
      ALLTAKES 0
      FADEIN 1 0.01 0 1 0 0 0
      FADEOUT 1 0.01 0 1 0 0 0
      MUTE 0 0
      SEL 0
      IGUID {18F81183-36D7-A141-9D60-68B60A33CEBD}
      IID 71
      NAME "05-Take 3-220401_1437.wav"
      VOLPAN 1 0 1 -1
      SOFFS 0
      PLAYRATE 1 1 0 -1 0 0.0025
      CHANMODE 0
      GUID {E5B2EBF6-7E77-2144-8011-C523A3533D43}
      RECPASS 50
      <SOURCE WAVE
        FILE "05-Take 3-220401_1437.wav"
      >
    >
  >
  <TRACK {D340504D-7113-2A43-B5C7-E9E320427A34}
    NAME "Take 4"
    PEAKCOL 16576
    BEAT -1
    AUTOMODE 0
    VOLPAN 1 0 -1 -1 1
    MUTESOLO 0 2 0
    IPHASE 0
    PLAYOFFS 0 1
    ISBUS 0 0
    BUSCOMP 0 0 0 0 0
    SHOWINMIX 1 0.6667 0.5 1 0.5 -1 -1 -1
    FREEMODE 0
    SEL 0
    REC 0 1024 1 0 0 0 0
    VU 2
    TRACKHEIGHT 52 0 0 0 0 0
    INQ 0 0 0 0.5 100 0 0 100
    NCHAN 2
    FX 1
    TRACKID {D340504D-7113-2A43-B5C7-E9E320427A34}
    PERF 0
    MIDIOUT -1
    MAINSEND 1 0
    <ITEM
      POSITION 345.45077097505668
      SNAPOFFS 0
      LENGTH 146.37662131519275
      LOOP 1
      ALLTAKES 0
      FADEIN 1 0.01 0 1 0 0 0
      FADEOUT 1 0.01 0 1 0 0 0
      MUTE 0 0
      SEL 0
      IGUID {19E931B7-94DF-D64A-BB67-34F668CC3D88}
      IID 65
      NAME "06-Take 4-220401_1403.wav"
      VOLPAN 1 0 1 -1
      SOFFS 0
      PLAYRATE 1 1 0 -1 0 0.0025
      CHANMODE 0
      GUID {27C9F261-96B7-E04A-8267-DBEA0B83BEC2}
      RECPASS 45
      <SOURCE WAVE
        FILE "06-Take 4-220401_1403.wav"
      >
    >
    <ITEM
      POSITION 827.5383673469388
      SNAPOFFS 0
      LENGTH 422.72891156462583
      LOOP 1
      ALLTAKES 0
      FADEIN 1 0.01 0 1 0 0 0
      FADEOUT 1 0.01 0 1 0 0 0
      MUTE 0 0
      SEL 0
      IGUID {F5CF1C88-1FCD-6A4A-AC80-F32AC8EC2C1B}
      IID 43
      NAME "06-Take 4-220401_1118.wav"
      VOLPAN 1 0 1 -1
      SOFFS 0
      PLAYRATE 1 1 0 -1 0 0.0025
      CHANMODE 0
      GUID {94966C3E-B77D-2040-B00B-350EC87649CC}
      RECPASS 23
      <SOURCE WAVE
        FILE "06-Take 4-220401_1118.wav"
      >
    >
    <ITEM
      POSITION 1467.2497505668935
      SNAPOFFS 0
      LENGTH 184.29480725623583
      LOOP 1
      ALLTAKES 0
      FADEIN 1 0.01 0 1 0 0 0
      FADEOUT 1 0.01 0 1 0 0 0
      MUTE 0 0
      SEL 0
      IGUID {EF437E1A-ECF0-484C-804A-17498A9065B7}
      IID 76
      NAME "06-Take 4-220401_1524.wav"
      VOLPAN 1 0 1 -1
      SOFFS 0
      PLAYRATE 1 1 0 -1 0 0.0025
      CHANMODE 0
      GUID {8F56D9A5-F499-5E42-96DC-1F1A6A580113}
      RECPASS 55
      <SOURCE WAVE
        FILE "06-Take 4-220401_1524.wav"
      >
    >
    <ITEM
      POSITION 1977.0495464852609
      SNAPOFFS 0
      LENGTH 438.49526077097505
      LOOP 1
      ALLTAKES 0
      FADEIN 1 0.01 0 1 0 0 0
      FADEOUT 1 0.01 0 1 0 0 0
      MUTE 0 0
      SEL 0
      IGUID {06C60DC2-D84E-D447-9BB3-FE3095623E9C}
      IID 72
      NAME "06-Take 4-220401_1454.wav"
      VOLPAN 1 0 1 -1
      SOFFS 0
      PLAYRATE 1 1 0 -1 0 0.0025
      CHANMODE 0
      GUID {29CF5B0A-0658-8542-8553-6795B488E5DC}
      RECPASS 51
      <SOURCE WAVE
        FILE "06-Take 4-220401_1454.wav"
      >
    >
    <ITEM
      POSITION 2589.4289569160997
      SNAPOFFS 0
      LENGTH 853.99312925170068
      LOOP 1
      ALLTAKES 0
      FADEIN 1 0.01 0 1 0 0 0
      FADEOUT 1 0.01 0 1 0 0 0
      MUTE 0 0
      SEL 0
      IGUID {A8DF14A4-70B8-E54A-B280-E0C936E9CF54}
      IID 85
      NAME "06-Take 4-220401_1547.wav"
      VOLPAN 1 0 1 -1
      SOFFS 0
      PLAYRATE 1 1 0 -1 0 0.0025
      CHANMODE 0
      GUID {25DF49D1-10E8-F343-AA40-5EDCBDDB7566}
      RECPASS 64
      <SOURCE WAVE
        FILE "06-Take 4-220401_1547.wav"
      >
    >
  >
  <TRACK {9CA0E93F-23A2-1F42-AD26-C40606688873}
    NAME "Take 5"
    PEAKCOL 16576
    BEAT -1
    AUTOMODE 0
    VOLPAN 1 0 -1 -1 1
    MUTESOLO 0 0 0
    IPHASE 0
    PLAYOFFS 0 1
    ISBUS 0 0
    BUSCOMP 0 0 0 0 0
    SHOWINMIX 1 0.6667 0.5 1 0.5 -1 -1 -1
    FREEMODE 0
    SEL 0
    REC 0 1024 1 0 0 0 0
    VU 2
    TRACKHEIGHT 52 0 0 0 0 0
    INQ 0 0 0 0.5 100 0 0 100
    NCHAN 2
    FX 1
    TRACKID {9CA0E93F-23A2-1F42-AD26-C40606688873}
    PERF 0
    MIDIOUT -1
    MAINSEND 1 0
    <ITEM
      POSITION 341.52816326530615
      SNAPOFFS 0
      LENGTH 156.52374149659863
      LOOP 1
      ALLTAKES 0
      FADEIN 1 0.01 0 1 0 0 0
      FADEOUT 1 0.01 0 1 0 0 0
      MUTE 0 0
      SEL 0
      IGUID {94CFD44C-7CDF-1C4C-8BB9-3960EB5D6BF8}
      IID 66
      NAME "07-Take 5-220401_1406.wav"
      VOLPAN 1 0 1 -1
      SOFFS 0
      PLAYRATE 1 1 0 -1 0 0.0025
      CHANMODE 0
      GUID {ED389663-94F6-6E49-96CB-1B4685A0491B}
      RECPASS 46
      <SOURCE WAVE
        FILE "07-Take 5-220401_1406.wav"
      >
    >
    <ITEM
      POSITION 998.5637868480726
      SNAPOFFS 0
      LENGTH 312.23675736961451
      LOOP 1
      ALLTAKES 0
      FADEIN 1 0.01 0 1 0 0 0
      FADEOUT 1 0.01 0 1 0 0 0
      MUTE 0 0
      SEL 0
      IGUID {F8FB717E-703B-3048-B5E3-981AAE6A95E1}
      IID 75
      NAME "07-Take 5-220401_1517.wav"
      VOLPAN 1 0 1 -1
      SOFFS 0
      PLAYRATE 1 1 0 -1 0 0.0025
      CHANMODE 0
      GUID {7C3C93A0-9E37-954D-829E-E360D5BAEA82}
      RECPASS 54
      <SOURCE WAVE
        FILE "07-Take 5-220401_1517.wav"
      >
    >
    <ITEM
      POSITION 1530.4656235827665
      SNAPOFFS 0
      LENGTH 159.08954648526077
      LOOP 1
      ALLTAKES 0
      FADEIN 1 0.01 0 1 0 0 0
      FADEOUT 1 0.01 0 1 0 0 0
      MUTE 0 0
      SEL 0
      IGUID {17B59BCB-D7EF-0849-B9F1-FE3B6C358003}
      IID 77
      NAME "07-Take 5-220401_1527.wav"
      VOLPAN 1 0 1 -1
      SOFFS 0
      PLAYRATE 1 1 0 -1 0 0.0025
      CHANMODE 0
      GUID {F6846698-C63F-C54F-BF1D-21F5A0F282C5}
      RECPASS 56
      <SOURCE WAVE
        FILE "07-Take 5-220401_1527.wav"
      >
    >
    <ITEM
      POSITION 1719.0546031746032
      SNAPOFFS 0
      LENGTH 97.83530612244898
      LOOP 1
      ALLTAKES 0
      FADEIN 1 0.01 0 1 0 0 0
      FADEOUT 1 0.01 0 1 0 0 0
      MUTE 0 0
      SEL 0
      IGUID {7C6742D2-B32E-9246-96CB-14A275123E9C}
      IID 81
      NAME "07-Take 5-220401_1536.wav"
      VOLPAN 1 0 1 -1
      SOFFS 0
      PLAYRATE 1 1 0 -1 0 0.0025
      CHANMODE 0
      GUID {C0161564-FFA3-8C4D-BA42-0EE3C47A5A3C}
      RECPASS 60
      <SOURCE WAVE
        FILE "07-Take 5-220401_1536.wav"
      >
    >
    <ITEM
      POSITION 2042.1595918367348
      SNAPOFFS 0
      LENGTH 360.74324263038551
      LOOP 1
      ALLTAKES 0
      FADEIN 1 0.01 0 1 0 0 0
      FADEOUT 1 0.01 0 1 0 0 0
      MUTE 0 0
      SEL 0
      IGUID {A8356FAA-743C-A446-B7CE-E8C140C79DB6}
      IID 73
      NAME "07-Take 5-220401_1506.wav"
      VOLPAN 1 0 1 -1
      SOFFS 0
      PLAYRATE 1 1 0 -1 0 0.0025
      CHANMODE 0
      GUID {3261B696-9A64-3F47-BF91-F512BF8BC349}
      RECPASS 52
      <SOURCE WAVE
        FILE "07-Take 5-220401_1506.wav"
      >
    >
  >
  <TRACK {AA855023-75F0-F74A-9ECC-06034AF285B3}
    NAME "Take 6"
    PEAKCOL 16576
    BEAT -1
    AUTOMODE 0
    VOLPAN 1 0 -1 -1 1
    MUTESOLO 0 0 0
    IPHASE 0
    PLAYOFFS 0 1
    ISBUS 0 0
    BUSCOMP 0 0 0 0 0
    SHOWINMIX 1 0.6667 0.5 1 0.5 -1 -1 -1
    FREEMODE 0
    SEL 1
    REC 1 1024 1 0 0 0 0
    VU 2
    TRACKHEIGHT 53 0 0 0 0 0
    INQ 0 0 0 0.5 100 0 0 100
    NCHAN 2
    FX 1
    TRACKID {AA855023-75F0-F74A-9ECC-06034AF285B3}
    PERF 0
    MIDIOUT -1
    MAINSEND 1 0
    <ITEM
      POSITION 328.9392290249433
      SNAPOFFS 0
      LENGTH 176.46968253968254
      LOOP 1
      ALLTAKES 0
      FADEIN 1 0.01 0 1 0 0 0
      FADEOUT 1 0.01 0 1 0 0 0
      MUTE 0 0
      SEL 0
      IGUID {10CA6EBE-56F9-4F47-B35A-145808B6F1FA}
      IID 67
      NAME "08-Take 6-220401_1410.wav"
      VOLPAN 1 0 1 -1
      SOFFS 0
      PLAYRATE 1 1 0 -1 0 0.0025
      CHANMODE 0
      GUID {47B71198-8926-9D4F-A36E-F0925529957F}
      RECPASS 47
      <SOURCE WAVE
        FILE "08-Take 6-220401_1410.wav"
      >
    >
    <ITEM
      POSITION 1530.3587981859409
      SNAPOFFS 0
      LENGTH 159.61199546485261
      LOOP 1
      ALLTAKES 0
      FADEIN 1 0.01 0 1 0 0 0
      FADEOUT 1 0.01 0 1 0 0 0
      MUTE 0 0
      SEL 0
      IGUID {9986EEBC-74AE-714E-B422-0E352A82A8F1}
      IID 80
      NAME "08-Take 6-220401_1532.wav"
      VOLPAN 1 0 1 -1
      SOFFS 0
      PLAYRATE 1 1 0 -1 0 0.0025
      CHANMODE 0
      GUID {71A58A82-23BC-B84D-AC36-94B5717B3A01}
      RECPASS 59
      <SOURCE WAVE
        FILE "08-Take 6-220401_1532.wav"
      >
    >
    <ITEM
      POSITION 1795.9124716553288
      SNAPOFFS 0
      LENGTH 265.48337868480724
      LOOP 1
      ALLTAKES 0
      FADEIN 1 0.01 0 1 0 0 0
      FADEOUT 1 0.01 0 1 0 0 0
      MUTE 0 0
      SEL 0
      IGUID {CEED4434-43D9-B04E-9085-3634752505D3}
      IID 83
      NAME "08-Take 6-220401_1539.wav"
      VOLPAN 1 0 1 -1
      SOFFS 0
      PLAYRATE 1 1 0 -1 0 0.0025
      CHANMODE 0
      GUID {7F392AA9-64CF-9A43-809B-E23464568281}
      RECPASS 62
      <SOURCE WAVE
        FILE "08-Take 6-220401_1539.wav"
      >
    >
  >
  <EXTENSIONS
  >
>
