<REAPER_PROJECT 0.1 "6.23/win64" 1620937488
  RIPPLE 0
  GROUPOVERRIDE 0 0 0
  AUTOXFADE 1
  ENVATTACH 1
  POOLEDENVATTACH 0
  MIXERUIFLAGS 11 48
  PEAKGAIN 1
  FEEDBACK 0
  PANLAW 1
  PROJOFFS 0 0 0
  MAXPROJLEN 0 600
  GRID 3198 8 1 8 1 0 0 0
  TIMEMODE 1 5 -1 30 0 0 -1
  VIDEO_CONFIG 0 0 256
  PANMODE 3
  CURSOR 42.68638227545442
  ZOOM 3.35170487540639 405 0
  VZOOMEX 33 0
  USE_REC_CFG 0
  RECMODE 1
  SMPTESYNC 0 30 100 40 1000 300 0 0 1 0 0
  LOOP 0
  LOOPGRAN 0 4
  RECORD_PATH "" ""
  <RECORD_CFG
  >
  <APPLYFX_CFG
  >
  RENDER_FILE ""
  RENDER_PATTERN ""
  RENDER_FMT 0 2 0
  RENDER_1X 0
  RENDER_RANGE 1 0 0 18 1000
  RENDER_RESAMPLE 3 0 1
  RENDER_ADDTOPROJ 0
  RENDER_STEMS 0
  RENDER_DITHER 0
  TIMELOCKMODE 1
  TEMPOENVLOCKMODE 1
  ITEMMIX 0
  DEFPITCHMODE 589824 0
  TAKELANE 1
  SAMPLERATE 44100 0 0
  <RENDER_CFG
  >
  LOCK 1
  <METRONOME 6 2
    VOL 0.25 0.125
    FREQ 800 1600 1
    BEATLEN 4
    SAMPLES "" ""
    PATTERN 2863311530 2863311529
  >
  GLOBAL_AUTO -1
  TEMPO 120 4 4
  PLAYRATE 1 0 0.25 4
  SELECTION 0 0
  SELECTION2 0 0
  MASTERAUTOMODE 0
  MASTERTRACKHEIGHT 0 0
  MASTERPEAKCOL 16576
  MASTERMUTESOLO 0
  MASTERTRACKVIEW 0 0.6667 0.5 0.5 -1 -1 -1 0 0 0 -1 -1 0
  MASTERHWOUT 0 0 1 0 0 0 0 -1
  MASTER_NCH 2 2
  MASTER_VOLUME 1 0 -1 -1 1
  MASTER_FX 1
  MASTER_SEL 0
  <MASTERPLAYSPEEDENV
    EGUID {921C03F1-AB12-4E07-8CB7-F678FBF00C11}
    ACT 0 -1
    VIS 0 1 1
    LANEHEIGHT 0 0
    ARM 0
    DEFSHAPE 0 -1 -1
  >
  <TEMPOENVEX
    EGUID {2CA97025-E1D6-4A37-BA26-0B53113473C4}
    ACT 1 -1
    VIS 1 0 1
    LANEHEIGHT 0 0
    ARM 0
    DEFSHAPE 1 -1 -1
  >
  <PROJBAY
  >
  <TRACK {378A38C9-92F1-4DCA-AB7B-F52078A76538}
    NAME ""
    PEAKCOL 16576
    BEAT -1
    AUTOMODE 0
    VOLPAN 1 0 -1 -1 1
    MUTESOLO 0 0 0
    IPHASE 0
    PLAYOFFS 0 1
    ISBUS 0 0
    BUSCOMP 0 0 0 0 0
    SHOWINMIX 1 0.6667 0.5 1 0.5 -1 -1 -1
    FREEMODE 0
    SEL 1
    REC 1 5088 1 0 0 0 0
    VU 2
    TRACKHEIGHT 0 0 0 0 0 0
    INQ 0 0 0 0.5 100 0 0 100
    NCHAN 2
    FX 1
    TRACKID {378A38C9-92F1-4DCA-AB7B-F52078A76538}
    PERF 0
    MIDIOUT 32
    MAINSEND 1 0
    <ITEM
      POSITION 0
      SNAPOFFS 0
      LENGTH 221.75052083333333
      LOOP 1
      ALLTAKES 0
      FADEIN 1 0 0 1 0 0 0
      FADEOUT 1 0 0 1 0 0 0
      MUTE 0 0
      SEL 1
      IGUID {313DA5B1-E5A4-458C-B4C1-F532A9453A1C}
      IID 4
      NAME "01-Recorded MIDI"
      VOLPAN 1 0 1 -1
      SOFFS 0 0
      PLAYRATE 1 1 0 -1 0 0.0025
      CHANMODE 0
      GUID {A54E4644-70B3-47B6-888E-EF26C5A9AD47}
      RECPASS 4
      <SOURCE MIDI
        HASDATA 1 960 QN
        CCINTERP 32
        POOLEDEVTS {1780A3D2-DCD7-4D15-A250-C46BC859F6A4}
        E 5556 b0 7b 00
        E 0 b1 7b 00
        E 1 b2 7b 00
        E 0 b3 7b 00
        E 1 b4 7b 00
        E 1 b5 7b 00
        E 0 b6 7b 00
        E 1 b7 7b 00
        E 0 b8 7b 00
        E 0 b9 7b 00
        E 1 ba 7b 00
        E 0 bb 7b 00
        E 0 bc 7b 00
        E 0 bd 7b 00
        E 1 be 7b 00
        E 0 bf 7b 00
        E 0 b0 7b 00
        E 0 b1 7b 00
        E 0 b2 7b 00
        E 0 b3 7b 00
        E 1 b4 7b 00
        E 0 b5 7b 00
        E 0 b6 7b 00
        E 0 b7 7b 00
        E 0 b8 7b 00
        E 1 b9 7b 00
        E 0 ba 7b 00
        E 0 bb 7b 00
        E 0 bc 7b 00
        E 0 bd 7b 00
        E 0 be 7b 00
        E 0 bf 7b 00
        E 1 b3 7b 00
        E 0 b3 7b 00
        E 0 b3 7b 00
        E 0 b3 7b 00
        E 13 c9 00 00
        E 0 c0 01 00
        E 1 c1 01 00
        E 0 c2 01 00
        E 0 c3 01 00
        E 0 c4 01 00
        E 1 c5 01 00
        E 1 c6 01 00
        E 0 c7 01 00
        E 1 c8 01 00
        E 0 ca 01 00
        E 1 cb 01 00
        E 0 cc 01 00
        E 1 cd 01 00
        E 0 ce 01 00
        E 1 cf 01 00
        E 0 b3 7b 00
        E 0 b3 7b 00
        E 0 b3 7b 00
        E 1 b3 7b 00
        E 0 b3 7b 00
        E 0 b3 7b 00
        E 1 b3 7b 00
        E 0 b3 7b 00
        E 0 b3 7b 00
        E 0 b3 7b 00
        E 0 b3 7b 00
        E 1 b0 07 64
        E 0 b0 0a 40
        E 0 b3 7b 00
        E 1 b0 5b 3b
        E 0 b0 5d 00
        E 0 b1 07 64
        E 0 b1 0a 40
        E 0 b1 5b 3b
        E 1 b1 5d 00
        E 0 b2 07 64
        E 0 b2 0a 40
        E 0 b2 5b 3b
        E 0 b2 5d 00
        E 0 b3 07 64
        E 1 b3 0a 40
        E 0 b3 5b 3b
        E 0 b3 5d 00
        E 0 b4 07 64
        E 0 b4 0a 40
        E 0 b4 5b 3b
        E 1 b4 5d 00
        E 0 b5 07 64
        E 0 b5 0a 40
        E 1 b5 5b 3b
        E 0 b5 5d 00
        E 0 b6 07 63
        E 0 b6 0a 40
        E 1 b6 5b 3b
        E 0 b6 5d 00
        E 0 b7 07 64
        E 0 b7 0a 40
        E 0 b7 5b 3b
        E 1 b7 5d 00
        E 0 b8 07 64
        E 0 b8 0a 40
        E 0 b8 5b 3b
        E 1 b8 5d 00
        E 0 ba 07 64
        E 0 ba 0a 40
        E 0 ba 5b 3b
        E 0 ba 5d 00
        E 1 bb 07 64
        E 0 bb 0a 40
        E 0 bb 5b 3b
        E 0 bb 5d 00
        E 0 bc 07 64
        E 0 bc 0a 40
        E 0 bc 5b 3b
        E 1 bc 5d 00
        E 0 bd 07 64
        E 0 bd 0a 40
        E 0 bd 5b 3b
        E 0 bd 5d 00
        E 0 be 07 64
        E 0 be 0a 40
        E 0 be 5b 3b
        E 1 be 5d 00
        E 0 bf 07 64
        E 0 bf 0a 40
        E 0 bf 5b 3b
        E 0 bf 5d 00
        E 1723 c0 01 00
        E 1 c0 01 00
        E 1 c1 01 00
        E 1 c1 01 00
        E 0 c2 01 00
        E 1 c2 01 00
        E 1 c3 01 00
        E 1 c3 01 00
        E 1 c4 01 00
        E 1 c4 01 00
        E 0 c5 01 00
        E 2 c5 01 00
        E 0 c6 01 00
        E 1 c6 01 00
        E 1 c7 01 00
        E 1 c7 01 00
        E 1 c8 01 00
        E 0 c8 01 00
        E 1 ca 01 00
        E 0 ca 01 00
        E 1 cb 01 00
        E 1 cb 01 00
        E 0 cc 01 00
        E 1 cc 01 00
        E 1 cd 01 00
        E 1 cd 01 00
        E 0 ce 01 00
        E 1 ce 01 00
        E 0 cf 01 00
        E 1 cf 01 00
        E 1 9f 3e 64
        E 3435 9e 3e 65
        E 2304 9d 3f 64
        E 1152 8d 3f 64
        E 1 8e 3e 65
        E 1 8f 3e 64
        E 1 9d 3f 64
        E 0 9e 3e 65
        E 1 9f 3e 64
        E 691 9c 3f 65
        E 351 9c 3f 65
        E 169 8c 3f 65
        E 878 8c 3f 65
        E 1 9b 3f 66
        E 1 9c 3f 65
        E 1046 9a 3f 67
        E 1045 98 40 64
        E 1048 97 40 65
        E 1048 87 40 65
        E 1 88 40 64
        E 0 8a 3f 67
        E 1 8b 3f 66
        E 0 8c 3f 65
        E 1 8d 3f 64
        E 1 8e 3e 65
        E 1 8f 3e 64
        E 0 96 41 63
        E 1 97 40 65
        E 1 98 40 64
        E 0 9a 3f 67
        E 1 9b 3f 66
        E 0 9c 3f 65
        E 1 9d 3f 64
        E 1 9e 3e 65
        E 742 95 41 64
        E 248 85 41 64
        E 1 8e 3e 65
        E 0 95 41 64
        E 501 94 41 65
        E 501 84 41 65
        E 0 85 41 64
        E 1 88 40 64
        E 0 8d 3f 64
        E 1 94 41 65
        E 0 95 41 64
        E 1 98 40 64
        E 248 93 42 64
        E 750 83 42 64
        E 0 8a 3f 67
        E 1 8c 3f 65
        E 0 92 42 65
        E 0 93 42 64
        E 1 9a 3f 67
        E 662 91 42 66
        E 338 8b 3f 66
        E 333 90 42 67
        E 169 8a 3f 67
        E 500 88 40 64
        E 0 90 42 67
        E 1 91 42 66
        E 0 9a 43 64
        E 332 80 42 67
        E 169 98 43 65
        E 163 81 42 66
        E 336 80 42 67
        E 1 81 42 66
        E 0 82 42 65
        E 1 83 42 64
        E 0 84 41 65
        E 1 85 41 64
        E 0 86 41 63
        E 1 87 40 65
        E 0 88 43 65
        E 1 8a 43 64
        E 0 90 42 67
        E 1 91 42 66
        E 0 92 42 65
        E 0 93 42 64
        E 1 94 41 65
        E 0 95 41 64
        E 0 96 41 63
        E 1 97 44 64
        E 0 98 43 65
        E 0 9a 43 64
        E 473 9f 44 65
        E 481 84 41 65
        E 0 86 41 63
        E 1 8f 44 65
        E 0 9e 44 66
        E 0 9f 44 65
        E 477 9d 44 67
        E 481 83 42 64
        E 1 85 41 64
        E 0 8a 43 64
        E 0 8d 44 67
        E 1 9a 43 64
        E 0 9c 45 64
        E 1 9d 44 67
        E 478 8a 43 64
        E 5 9b 45 65
        E 475 80 42 67
        E 1 81 42 66
        E 1 82 42 65
        E 0 87 44 64
        E 0 88 43 65
        E 1 8b 45 65
        E 0 8c 45 64
        E 0 8d 44 67
        E 1 8e 44 66
        E 0 8f 44 65
        E 1 90 42 67
        E 1 91 42 66
        E 0 9a 46 64
        E 0 9b 45 65
        E 1 9c 45 64
        E 1 9d 44 67
        E 0 9e 44 66
        E 0 9f 44 65
        E 347 98 46 65
        E 352 97 46 66
        E 178 81 42 66
        E 177 96 46 67
        E 353 95 47 64
        E 356 80 42 67
        E 1 8a 46 64
        E 0 8f 44 65
        E 0 94 47 65
        E 0 95 47 64
        E 1 96 46 67
        E 0 97 46 66
        E 0 98 46 65
        E 0 9a 46 64
        E 84 85 47 64
        E 93 86 46 67
        E 84 87 46 66
        E 33 93 48 63
        E 59 88 46 65
        E 235 92 48 64
        E 295 8e 44 66
        E 1 91 48 65
        E 0 92 48 64
        E 1 93 48 63
        E 133 82 48 64
        E 140 83 48 63
        E 1 90 49 64
        E 271 9f 49 65
        E 278 86 46 67
        E 1 8b 45 65
        E 0 8c 45 64
        E 1 8d 44 67
        E 0 90 49 64
        E 0 96 46 67
        E 1 9b 45 65
        E 0 9c 45 64
        E 1 9e 49 66
        E 0 9f 49 65
        E 129 8f 49 65
        E 141 80 49 64
        E 0 9d 49 67
        E 136 8b 45 65
        E 0 8c 45 64
        E 135 9c 4a 64
        E 277 87 46 66
        E 0 88 46 65
        E 1 8a 46 64
        E 1 98 48 64
        E 0 9b 4a 65
        E 0 9c 4a 64
        E 1 9d 49 67
        E 132 8c 4a 64
        E 139 8d 49 67
        E 0 9a 4b 64
        E 137 86 46 67
        E 0 88 48 64
        E 135 98 4b 65
        E 71 80 49 64
        E 207 81 48 65
        E 1 82 48 64
        E 0 83 48 63
        E 1 84 47 65
        E 0 85 47 64
        E 1 8b 4a 65
        E 0 8c 4a 64
        E 1 8d 49 67
        E 0 8e 49 66
        E 2 8f 49 65
        E 0 91 3b 64
        E 1 92 48 64
        E 0 93 48 63
        E 1 94 47 65
        E 1 97 4b 66
        E 0 98 4b 65
        E 1 9a 4b 64
        E 0 9b 4a 65
        E 1 9c 4a 64
        E 0 9d 49 67
        E 1 9e 49 66
        E 114 88 4b 65
        E 130 8a 4b 64
        E 1 90 3b 65
        E 1 96 4b 67
        E 126 84 47 65
        E 1 8e 49 66
        E 126 95 4c 64
        E 0 9f 3c 63
        E 257 82 48 64
        E 0 83 48 63
        E 0 8c 4a 64
        E 1 8d 49 67
        E 0 90 3b 65
        E 1 92 48 64
        E 0 94 4c 65
        E 1 95 4c 64
        E 0 96 4b 67
        E 1 9c 4a 64
        E 1 9e 3c 64
        E 0 9f 3c 63
        E 122 85 4c 64
        E 1 8f 3c 63
        E 127 80 3b 65
        E 0 86 4b 67
        E 1 93 4c 65
        E 0 9d 3c 65
        E 127 81 3b 64
        E 0 82 48 64
        E 1 8b 4a 65
        E 0 8c 4a 64
        E 127 92 4d 63
        E 1 9c 3d 64
        E 253 80 3b 65
        E 0 88 4b 65
        E 1 8a 4b 64
        E 1 8f 3c 63
        E 0 91 4d 64
        E 1 92 4d 63
        E 0 93 4c 65
        E 1 98 4b 65
        E 1 9b 3d 65
        E 1 9c 3d 64
        E 0 9d 3c 65
        E 1 9f 3c 63
        E 113 82 4d 63
        E 1 8c 3d 64
        E 119 83 4c 65
        E 0 8d 3c 65
        E 1 90 4d 65
        E 1 9a 3d 66
        E 121 88 4b 65
        E 0 8e 3c 64
        E 1 8f 3c 63
        E 117 98 3d 67
        E 1 9f 4e 64
        E 241 81 4d 64
        E 1 82 4d 63
        E 0 83 4c 65
        E 1 84 4c 65
        E 0 85 4c 64
        E 1 86 4b 67
        E 0 87 4b 66
        E 1 8b 3d 65
        E 0 8c 3d 64
        E 0 8d 3c 65
        E 1 90 4d 65
        E 0 91 4d 64
        E 1 92 4d 63
        E 0 93 4c 65
        E 1 94 4c 65
        E 0 95 4c 64
        E 1 97 3e 64
        E 0 98 3d 67
        E 1 9a 3d 66
        E 0 9b 3d 65
        E 0 9c 3d 64
        E 1 9e 4e 65
        E 0 9f 4e 64
        E 106 88 3d 67
        E 1 8f 4e 64
        E 88 96 3e 65
        E 0 9d 4e 66
        E 34 80 4d 65
        E 0 8a 3d 66
        E 119 85 4c 64
        E 1 8c 3d 64
        E 51 91 4d 64
        E 0 95 3f 64
        E 1 9c 4e 67
        E 207 94 3f 65
        E 1 95 3f 64
        E 1 9b 4f 64
        E 0 9c 4e 67
        E 97 81 4d 64
        E 1 84 4c 65
        E 0 8b 3d 65
        E 50 85 3f 64
        E 1 8c 4e 67
        E 52 93 3f 66
        E 1 9a 4f 65
        E 205 92 3f 67
        E 1 98 50 64
        E 49 80 4d 65
        E 1 83 4c 65
        E 0 8a 3d 66
        E 155 91 40 64
        E 2 97 50 65
        E 205 82 4d 63
        E 1 87 3e 64
        E 0 88 3d 67
        E 1 8e 4e 65
        E 0 8f 4e 64
        E 1 90 40 65
        E 0 96 50 66
        E 1 97 50 65
        E 1 98 50 64
        E 1 9a 4f 65
        E 0 9b 4f 64
        E 0 9c 4e 67
        E 1 9e 4e 65
        E 0 9f 4e 64
        E 42 81 4d 64
        E 92 81 40 64
        E 1 87 50 65
        E 52 86 3e 65
        E 1 95 50 67
        E 0 9d 41 63
        E 93 82 3f 67
        E 0 88 50 64
        E 50 80 40 65
        E 1 8c 4e 67
        E 48 94 51 64
        E 1 9c 41 64
        E 45 83 3f 66
        E 1 8a 4f 65
        E 96 8d 41 63
        E 49 84 3f 65
        E 0 85 3f 64
        E 1 8b 4f 64
        E 0 8c 4e 67
        E 1 93 51 65
        E 1 9b 41 65
        E 93 86 50 66
        E 1 8b 4f 64
        E 0 96 50 66
        E 47 8c 41 64
        E 49 92 52 64
        E 1 9a 42 64
        E 96 8d 4e 66
        E 49 8b 41 65
        E 47 91 52 65
        E 1 9f 42 65
        E 50 88 50 64
        E 1 8a 4f 65
        E 0 8f 4e 64
        E 93 8a 42 64
        E 50 90 52 66
        E 1 9e 42 66
        E 142 81 52 65
        E 51 87 50 65
        E 0 8e 4e 65
        E 1 90 52 66
        E 2 92 52 64
        E 1 94 52 67
        E 0 95 50 67
        E 0 9d 42 67
        E 1 9e 42 66
        E 0 9f 42 65
        E 138 80 52 66
        E 1 8e 42 66
        E 26 82 52 64
        E 1 93 53 64
        E 0 9c 43 64
        E 119 8f 42 65
        E 47 86 50 66
        E 0 92 53 65
        E 1 9b 43 65
        E 49 84 51 64
        E 49 82 52 64
        E 74 80 52 66
        E 71 83 51 65
        E 98 82 53 65
        E 1 83 53 64
        E 1 84 52 67
        E 0 85 50 67
        E 0 8b 43 65
        E 1 8c 43 64
        E 0 8d 42 67
        E 1 8e 42 66
        E 0 8f 42 65
        E 1 92 53 65
        E 0 93 53 64
        E 1 94 54 64
        E 0 95 43 65
        E 1 96 43 64
        E 1 97 44 66
        E 0 98 44 65
        E 1 9a 44 64
        E 0 9b 43 65
        E 1 9c 43 64
        E 0 9d 42 67
        E 1 9e 42 66
        E 149 83 53 64
        E 1 86 43 64
        E 0 8e 42 66
        E 1 93 54 65
        E 1 96 44 67
        E 19 85 50 67
        E 135 82 53 65
        E 1 85 43 65
        E 0 8d 42 67
        E 1 95 45 64
        E 160 8a 44 64
        E 1 8c 43 64
        E 0 9a 45 65
        E 160 84 54 64
        E 1 87 44 66
        E 0 88 44 65
        E 1 8b 43 65
        E 1 97 44 66
        E 0 98 46 64
        E 156 83 54 65
        E 1 86 44 67
        E 0 87 44 66
        E 1 96 44 67
        E 0 97 46 65
        E 157 85 45 64
        E 1 86 44 67
        E 1 95 45 64
        E 0 96 46 66
        E 160 85 45 64
        E 0 8a 45 65
        E 1 95 46 67
        E 156 88 46 64
        E 1 9a 47 64
        E 162 87 46 65
        E 1 98 47 65
        E 159 86 46 66
        E 0 97 48 63
        E 157 85 46 67
        E 1 96 48 64
        E 162 8a 47 64
        E 0 95 48 65
        E 161 88 47 65
        E 0 9a 49 64
        E 158 87 48 63
        E 0 98 48 64
        E 163 86 48 64
        E 0 97 49 66
        E 1 9c 39 64
        E 156 85 48 65
        E 1 95 48 65
        E 0 96 49 67
        E 1 9b 39 65
        E 156 85 48 65
        E 0 8a 49 64
        E 0 95 4a 64
        E 1 9f 3a 64
        E 163 88 48 64
        E 1 9a 4a 65
        E 0 9e 3a 65
        E 158 87 49 66
        E 1 8c 39 64
        E 1 98 4b 64
        E 0 9c 39 64
        E 0 9d 3a 66
        E 156 86 49 67
        E 0 8b 39 65
        E 1 8c 39 64
        E 1 97 4b 65
        E 0 9b 3b 64
        E 1 9c 3a 67
        E 158 85 4a 64
        E 0 8b 3b 64
        E 1 8f 3a 64
        E 0 96 4b 66
        E 1 9b 3b 64
        E 0 9f 3a 64
        E 158 8a 4a 65
        E 0 8e 3a 65
        E 1 8f 3a 64
        E 0 95 4b 67
        E 1 9e 3a 65
        E 0 9f 3b 65
        E 158 88 4b 64
        E 1 8d 3a 66
        E 0 8e 3a 65
        E 1 9a 4c 64
        E 1 9d 3a 66
        E 1 9e 3c 63
        E 158 87 4b 65
        E 1 8c 3a 67
        E 0 8d 3a 66
        E 1 98 4c 65
        E 1 9c 3a 67
        E 0 9d 3c 64
        E 156 86 4b 66
        E 1 8b 3b 64
        E 1 8c 3a 67
        E 0 97 4d 63
        E 1 9b 3b 64
        E 1 9c 3c 65
        E 154 85 4b 67
        E 0 8a 4c 64
        E 1 8b 3b 64
        E 1 8f 3b 65
        E 1 96 4d 64
        E 0 9b 3d 64
        E 1 9f 3b 65
        E 156 88 4c 65
        E 1 8e 3c 63
        E 0 8f 3b 65
        E 1 95 4d 65
        E 1 9e 3c 63
        E 0 9f 3d 65
        E 158 87 4d 63
        E 1 8d 3c 64
        E 0 8e 3c 63
        E 1 9a 4e 64
        E 1 9d 3c 64
        E 1 9e 3d 66
        E 155 86 4d 64
        E 1 8c 3c 65
        E 1 8d 3c 64
        E 0 98 4e 65
        E 0 9c 3c 65
        E 1 9d 3d 67
        E 160 85 4d 65
        E 0 8b 3d 64
        E 1 8c 3c 65
        E 1 97 4e 66
        E 1 9b 3d 64
        E 0 9c 3e 64
        E 154 8a 4e 64
        E 0 8b 3d 64
        E 1 8f 3d 65
        E 1 96 4e 67
        E 0 9b 3e 65
        E 1 9f 3d 65
        E 158 88 4e 65
        E 1 8e 3d 66
        E 0 8f 3d 65
        E 0 95 4f 64
        E 1 9e 3d 66
        E 1 9f 3f 64
        E 157 87 4e 66
        E 1 8d 3d 67
        E 0 8e 3d 66
        E 1 9a 4f 65
        E 0 9d 3d 67
        E 1 9e 3f 65
        E 156 86 4e 67
        E 1 8c 3e 64
        E 1 8d 3d 67
        E 0 98 50 64
        E 1 9c 3e 64
        E 0 9d 3f 66
        E 157 85 4f 64
        E 1 8b 3e 65
        E 0 8c 3e 64
        E 1 97 50 65
        E 1 9b 3e 65
        E 0 9c 3f 67
        E 159 8a 4f 65
        E 1 8b 3e 65
        E 0 8f 3f 64
        E 1 96 50 66
        E 0 9b 40 64
        E 1 9f 3f 64
        E 157 88 50 64
        E 0 8e 3f 65
        E 1 8f 3f 64
        E 0 95 50 67
        E 1 9e 3f 65
        E 0 9f 40 65
        E 157 87 50 65
        E 1 8d 3f 66
        E 1 8e 3f 65
        E 0 9a 51 64
        E 1 9d 3f 66
        E 1 9e 41 63
        E 157 85 50 67
        E 1 86 50 66
        E 0 8c 3f 67
        E 1 8d 3f 66
        E 0 98 51 65
        E 1 9c 3f 67
        E 0 9d 41 64
        E 155 8a 51 64
        E 1 8b 40 64
        E 1 8c 3f 67
        E 0 97 52 64
        E 1 9b 40 64
        E 0 9c 41 65
        E 160 88 51 65
        E 0 8b 40 64
        E 1 8f 40 65
        E 1 96 52 65
        E 0 9b 42 64
        E 1 9f 40 65
        E 146 87 52 64
        E 0 8e 41 63
        E 1 8f 40 65
        E 1 95 52 66
        E 0 9e 41 63
        E 1 9f 42 65
        E 150 86 52 65
        E 1 8d 41 64
        E 0 8e 41 63
        E 1 9a 52 67
        E 1 9d 41 64
        E 0 9e 42 66
        E 148 85 52 66
        E 1 8c 41 65
        E 1 8d 41 64
        E 1 98 53 64
        E 0 9c 41 65
        E 1 9d 42 67
        E 147 8a 52 67
        E 1 8b 42 64
        E 1 8c 41 65
        E 0 97 53 65
        E 1 9b 42 64
        E 1 9c 43 64
        E 149 8b 42 64
        E 1 8f 42 65
        E 1 9b 43 65
        E 1 9f 42 65
        E 146 87 53 65
        E 1 88 53 64
        E 1 8e 42 66
        E 0 8f 42 65
        E 1 9a 54 64
        E 0 9e 42 66
        E 1 9f 44 64
        E 149 8d 42 67
        E 1 8e 42 66
        E 0 98 54 65
        E 1 9d 42 67
        E 0 9e 44 65
        E 148 8a 54 64
        E 1 8c 43 64
        E 0 8d 42 67
        E 1 9c 43 64
        E 0 9d 44 66
        E 151 88 54 65
        E 0 8b 43 65
        E 1 8c 43 64
        E 1 9b 43 65
        E 1 9c 44 67
        E 150 8b 43 65
        E 1 8f 44 64
        E 0 9b 45 64
        E 1 9f 44 64
        E 149 8e 44 65
        E 1 8f 44 64
        E 0 9e 44 65
        E 1 9f 45 65
        E 150 8d 44 66
        E 1 8e 44 65
        E 0 9d 44 66
        E 1 9e 46 64
        E 150 8c 44 67
        E 0 8d 44 66
        E 1 9c 44 67
        E 0 9d 46 65
        E 149 8b 45 64
        E 0 8c 44 67
        E 1 9b 45 64
        E 0 9c 46 66
        E 152 8b 45 64
        E 1 8f 45 65
        E 1 9b 46 67
        E 0 9f 45 65
        E 147 8e 46 64
        E 1 8f 45 65
        E 0 92 37 64
        E 1 9e 46 64
        E 1 9f 47 64
        E 151 8d 46 65
        E 1 8e 46 64
        E 0 91 37 65
        E 1 9d 46 65
        E 0 9e 47 65
        E 150 8c 46 66
        E 0 8d 46 65
        E 1 90 38 64
        E 1 9c 46 66
        E 0 9d 48 63
        E 146 8b 46 67
        E 1 8c 46 66
        E 0 94 38 65
        E 1 9b 46 67
        E 1 9c 48 64
        E 148 82 37 64
        E 1 8b 46 67
        E 1 8f 47 64
        E 0 92 37 64
        E 1 93 38 66
        E 0 9b 48 65
        E 1 9f 47 64
        E 151 81 37 65
        E 1 82 37 64
        E 1 8e 47 65
        E 1 8f 47 64
        E 0 91 37 65
        E 1 92 38 67
        E 1 9e 48 64
        E 0 9f 49 64
        E 147 80 38 64
        E 0 81 37 65
        E 1 8d 48 63
        E 1 8e 48 64
        E 0 90 38 64
        E 1 91 39 64
        E 0 9d 48 63
        E 1 9e 49 65
        E 146 80 38 64
        E 0 84 38 65
        E 1 8c 48 64
        E 1 8d 48 63
        E 1 90 39 65
        E 1 94 38 65
        E 0 9c 48 64
        E 1 9d 49 66
        E 145 83 38 66
        E 0 84 38 65
        E 1 8b 48 65
        E 1 8c 48 64
        E 0 93 38 66
        E 1 94 3a 64
        E 1 9b 48 65
        E 0 9c 49 67
        E 149 82 38 67
        E 1 83 38 66
        E 0 8b 48 65
        E 1 8f 49 64
        E 0 92 38 67
        E 1 93 3a 65
        E 0 9b 4a 64
        E 1 9f 49 64
        E 149 81 39 64
        E 0 82 38 67
        E 1 8e 49 65
        E 1 8f 49 64
        E 0 91 39 64
        E 1 92 3a 66
        E 1 9e 49 65
        E 1 9f 4a 65
        E 147 80 39 65
        E 0 81 39 64
        E 1 8d 49 66
        E 0 8e 49 65
        E 1 90 3b 64
        E 0 91 3a 67
        E 1 9d 49 66
        E 0 9e 4b 64
        E 146 80 3b 64
        E 0 84 3a 64
        E 1 8c 49 67
        E 1 8d 49 66
        E 1 90 3b 64
        E 1 94 3a 64
        E 0 9c 49 67
        E 0 9d 4b 65
        E 148 83 3a 65
        E 1 84 3a 64
        E 1 8b 4a 64
        E 0 8c 49 67
        E 1 93 3a 65
        E 1 94 3b 65
        E 0 9b 4a 64
        E 2 9c 4b 66
        E 148 82 3a 66
        E 0 83 3a 65
        E 1 8b 4a 64
        E 1 8f 4a 65
        E 1 92 3a 66
        E 0 93 3c 63
        E 1 9b 4b 67
        E 0 9f 4a 65
        E 139 81 3a 67
        E 0 82 3a 66
        E 0 8e 4b 64
        E 1 8f 4a 65
        E 1 91 3a 67
        E 1 92 3c 64
        E 1 9e 4b 64
        E 0 9f 4c 64
        E 140 80 3b 64
        E 0 81 3a 67
        E 1 8d 4b 65
        E 0 8e 4b 64
        E 1 90 3b 64
        E 1 91 3c 65
        E 0 9d 4b 65
        E 1 9e 4c 65
        E 140 80 3b 64
        E 0 84 3b 65
        E 1 8c 4b 66
        E 0 8d 4b 65
        E 0 90 3d 64
        E 1 94 3b 65
        E 0 9c 4b 66
        E 1 9d 4d 63
        E 140 83 3c 63
        E 0 84 3b 65
        E 1 8b 4b 67
        E 1 8c 4b 66
        E 0 93 3c 63
        E 1 94 3d 65
        E 1 9b 4b 67
        E 0 9c 4d 64
        E 139 82 3c 64
        E 1 83 3c 63
        E 0 8b 4b 67
        E 1 8f 4c 64
        E 0 92 3c 64
        E 1 93 3d 66
        E 0 9b 4d 65
        E 1 9f 4c 64
        E 142 81 3c 65
        E 1 82 3c 64
        E 1 8e 4c 65
        E 0 8f 4c 64
        E 1 91 3c 65
        E 0 92 3d 67
        E 1 9e 4c 65
        E 1 9f 4e 64
        E 139 80 3d 64
        E 0 81 3c 65
        E 0 8d 4d 63
        E 1 8e 4c 65
        E 1 90 3d 64
        E 1 91 3e 64
        E 0 9d 4d 63
        E 1 9e 4e 65
        E 139 80 3d 64
        E 1 84 3d 65
        E 1 8c 4d 64
        E 1 8d 4d 63
        E 0 90 3e 65
        E 1 94 3d 65
        E 1 9c 4d 64
        E 0 9d 4e 66
        E 140 83 3d 66
        E 0 84 3d 65
        E 1 8b 4d 65
        E 1 8c 4d 64
        E 0 93 3d 66
        E 1 94 3f 64
        E 0 9b 4d 65
        E 1 9c 4e 67
        E 140 82 3d 67
        E 1 83 3d 66
        E 0 8b 4d 65
        E 1 8f 4e 64
        E 1 92 3d 67
        E 0 93 3f 65
        E 1 9b 4f 64
        E 0 9f 4e 64
        E 139 81 3e 64
        E 1 82 3d 67
        E 0 8e 4e 65
        E 1 8f 4e 64
        E 1 91 3e 64
        E 0 92 3f 66
        E 1 9e 4e 65
        E 0 9f 4f 65
        E 139 80 3e 65
        E 1 81 3e 64
        E 1 8d 4e 66
        E 1 8e 4e 65
        E 0 90 3e 65
        E 1 91 3f 67
        E 1 9d 4e 66
        E 0 9e 50 64
        E 142 80 3e 65
        E 0 84 3f 64
        E 1 8c 4e 67
        E 1 8d 4e 66
        E 0 90 40 64
        E 1 94 3f 64
        E 0 9c 4e 67
        E 1 9d 50 65
        E 137 83 3f 65
        E 1 84 3f 64
        E 1 8b 4f 64
        E 0 8c 4e 67
        E 1 93 3f 65
        E 0 94 40 65
        E 1 9b 4f 64
        E 1 9c 50 66
        E 141 82 3f 66
        E 1 83 3f 65
        E 0 8b 4f 64
        E 1 8f 4f 65
        E 0 92 3f 66
        E 1 93 41 63
        E 0 9b 50 67
        E 1 9f 4f 65
        E 139 81 3f 67
        E 1 82 3f 66
        E 1 8e 50 64
        E 1 8f 4f 65
        E 1 91 3f 67
        E 0 92 41 64
        E 1 9e 50 64
        E 0 9f 51 64
        E 140 80 40 64
        E 1 81 3f 67
        E 0 8d 50 65
        E 1 8e 50 64
        E 0 90 40 64
        E 1 91 41 65
        E 0 9d 50 65
        E 1 9e 51 65
        E 138 80 40 64
        E 0 84 40 65
        E 1 8c 50 66
        E 1 8d 50 65
        E 1 90 42 64
        E 0 94 40 65
        E 1 9c 50 66
        E 0 9d 52 64
        E 141 83 41 63
        E 0 84 40 65
        E 1 8b 50 67
        E 0 8c 50 66
        E 1 93 41 63
        E 0 94 42 65
        E 1 9b 50 67
        E 1 9c 52 65
        E 140 82 41 64
        E 0 83 41 63
        E 1 8b 50 67
        E 0 8f 51 64
        E 1 92 41 64
        E 1 93 42 66
        E 3 9b 52 66
        E 1 9f 51 64
        E 138 81 41 65
        E 0 82 41 64
        E 1 8e 51 65
        E 1 8f 51 64
        E 0 91 41 65
        E 1 92 42 67
        E 0 9e 51 65
        E 0 9f 52 67
        E 139 80 42 64
        E 1 81 41 65
        E 1 8d 52 64
        E 0 8e 51 65
        E 1 90 42 64
        E 0 91 43 64
        E 1 9d 52 64
        E 0 9e 53 64
        E 143 80 42 64
        E 1 84 42 65
        E 1 8c 52 65
        E 0 8d 52 64
        E 1 90 43 65
        E 1 94 42 65
        E 0 9c 52 65
        E 1 9d 53 65
        E 137 83 42 66
        E 0 84 42 65
        E 1 8b 52 66
        E 0 8c 52 65
        E 1 93 42 66
        E 0 94 44 64
        E 1 9b 52 66
        E 143 82 42 67
        E 0 83 42 66
        E 1 8b 52 66
        E 1 8d 53 65
        E 0 8e 53 64
        E 1 8f 52 67
        E 0 92 42 67
        E 1 93 44 65
        E 0 9d 53 65
        E 1 9e 53 64
        E 0 9f 54 64
        E 136 81 43 64
        E 0 82 42 67
        E 1 8e 53 64
        E 2 91 43 64
        E 1 92 44 66
        E 0 9e 54 65
        E 142 80 43 65
        E 1 81 43 64
        E 1 8d 53 65
        E 0 90 43 65
        E 1 91 44 67
        E 1 98 35 64
        E 140 80 43 65
        E 1 84 44 64
        E 1 90 45 64
        E 1 94 44 64
        E 0 97 35 65
        E 141 83 44 65
        E 0 84 44 64
        E 1 8f 54 64
        E 0 93 44 65
        E 1 94 45 65
        E 1 96 36 64
        E 142 82 44 66
        E 1 83 44 65
        E 0 8e 54 65
        E 1 92 44 66
        E 1 93 46 64
        E 0 95 36 65
        E 139 81 44 67
        E 1 82 44 66
        E 0 88 35 64
        E 1 91 44 67
        E 0 92 46 65
        E 1 98 35 64
        E 1 9a 36 66
        E 140 80 45 64
        E 1 81 44 67
        E 1 87 35 65
        E 0 88 35 64
        E 1 90 45 64
        E 0 91 46 66
        E 1 97 35 65
        E 1 98 36 67
        E 141 80 45 64
        E 0 84 45 65
        E 1 86 36 64
        E 1 87 35 65
        E 0 90 46 67
        E 1 94 45 65
        E 0 96 36 64
        E 0 97 37 64
        E 140 83 46 64
        E 2 84 45 65
        E 0 85 36 65
        E 1 86 36 64
        E 0 93 46 64
        E 1 94 47 64
        E 0 95 36 65
        E 1 96 37 65
        E 140 82 46 65
        E 0 83 46 64
        E 1 85 36 65
        E 0 8a 36 66
        E 1 92 46 65
        E 1 93 47 65
        E 0 95 38 64
        E 1 9a 36 66
        E 137 81 46 66
        E 1 82 46 65
        E 1 88 36 67
        E 0 8a 36 66
        E 1 91 46 66
        E 1 92 48 63
        E 0 98 36 67
        E 1 9a 38 65
        E 135 80 46 67
        E 0 81 46 66
        E 1 87 37 64
        E 0 88 36 67
        E 1 90 46 67
        E 1 91 48 64
        E 1 97 37 64
        E 0 98 38 66
        E 132 80 46 67
        E 1 84 47 64
        E 0 86 37 65
        E 1 87 37 64
        E 0 90 48 65
        E 1 94 47 64
        E 0 96 37 65
        E 1 97 38 67
        E 131 83 47 65
        E 0 84 47 64
        E 1 85 38 64
        E 1 86 37 65
        E 0 93 47 65
        E 1 94 49 64
        E 0 95 38 64
        E 1 96 39 64
        E 135 82 48 63
        E 0 83 47 65
        E 0 85 38 64
        E 1 8a 38 65
        E 0 92 48 63
        E 0 93 49 65
        E 0 95 39 65
        E 1 9a 38 65
        E 136 81 48 64
        E 0 82 48 63
        E 2 88 38 66
        E 1 8a 38 65
        E 0 91 48 64
        E 1 92 49 66
        E 0 98 38 66
        E 1 9a 3a 64
        E 128 80 48 65
        E 3 81 48 64
        E 0 87 38 67
        E 1 88 38 66
        E 0 90 48 65
        E 1 91 49 67
        E 1 97 38 67
        E 0 98 3a 65
        E 136 80 48 65
        E 0 84 49 64
        E 1 86 39 64
        E 1 87 38 67
        E 1 90 4a 64
        E 1 94 49 64
        E 1 96 39 64
        E 0 97 3a 66
        E 129 83 49 65
        E 1 84 49 64
        E 1 85 39 65
        E 0 86 39 64
        E 1 93 49 65
        E 0 94 4a 65
        E 1 95 3b 64
        E 1 96 3a 67
        E 136 82 49 66
        E 0 83 49 65
        E 1 85 3b 64
        E 0 8a 3a 64
        E 1 92 49 66
        E 0 93 4b 64
        E 1 95 3b 64
        E 0 9a 3a 64
        E 132 81 49 67
        E 0 82 49 66
        E 1 88 3a 65
        E 0 8a 3a 64
        E 1 91 49 67
        E 1 92 4b 65
        E 0 98 3a 65
        E 1 9a 3b 65
        E 133 80 4a 64
        E 1 81 49 67
        E 1 87 3a 66
        E 0 88 3a 65
        E 1 90 4a 64
        E 0 91 4b 66
        E 1 97 3a 66
        E 0 98 3c 63
        E 133 80 4a 64
        E 0 84 4a 65
        E 1 86 3a 67
        E 1 87 3a 66
        E 1 90 4b 67
        E 0 94 4a 65
        E 1 96 3a 67
        E 0 97 3c 64
        E 133 83 4b 64
        E 0 84 4a 65
        E 0 85 3b 64
        E 1 86 3a 67
        E 1 93 4b 64
        E 0 94 4c 64
        E 1 95 3b 64
        E 0 96 3c 65
        E 135 82 4b 65
        E 0 83 4b 64
        E 1 85 3b 64
        E 1 8a 3b 65
        E 1 92 4b 65
        E 0 93 4c 65
        E 1 95 3d 64
        E 1 9a 3b 65
        E 130 81 4b 66
        E 1 82 4b 65
        E 1 88 3c 63
        E 1 8a 3b 65
        E 0 91 4b 66
        E 1 92 4d 63
        E 0 98 3c 63
        E 1 9a 3d 65
        E 136 80 4b 67
        E 0 81 4b 66
        E 1 87 3c 64
        E 0 88 3c 63
        E 1 90 4b 67
        E 1 91 4d 64
        E 1 97 3c 64
        E 1 98 3d 66
        E 131 80 4b 67
        E 0 84 4c 64
        E 1 86 3c 65
        E 1 87 3c 64
        E 0 90 4d 65
        E 0 94 4c 64
        E 1 96 3c 65
        E 0 97 3d 67
        E 134 83 4c 65
        E 1 84 4c 64
        E 0 85 3d 64
        E 1 86 3c 65
        E 0 93 4c 65
        E 0 94 4e 64
        E 1 95 3d 64
        E 1 96 3e 64
        E 133 82 4d 63
        E 0 83 4c 65
        E 1 85 3d 64
        E 1 8a 3d 65
        E 1 92 4d 63
        E 0 93 4e 65
        E 1 95 3e 65
        E 1 9a 3d 65
        E 131 81 4d 64
        E 0 82 4d 63
        E 1 88 3d 66
        E 1 8a 3d 65
        E 1 91 4d 64
        E 0 92 4e 66
        E 1 98 3d 66
        E 1 9a 3f 64
        E 131 80 4d 65
        E 0 81 4d 64
        E 1 87 3d 67
        E 0 88 3d 66
        E 1 90 4d 65
        E 1 91 4e 67
        E 0 97 3d 67
        E 1 98 3f 65
        E 133 80 4d 65
        E 1 84 4e 64
        E 0 86 3e 64
        E 1 87 3d 67
        E 0 90 4f 64
        E 1 94 4e 64
        E 1 96 3e 64
        E 0 97 3f 66
        E 136 83 4e 65
        E 0 84 4e 64
        E 1 85 3e 65
        E 0 86 3e 64
        E 1 93 4e 65
        E 0 94 4f 65
        E 1 95 3e 65
        E 0 96 3f 67
        E 134 82 4e 66
        E 1 83 4e 65
        E 0 85 3e 65
        E 1 8a 3f 64
        E 0 92 4e 66
        E 1 93 50 64
        E 1 95 40 64
        E 0 9a 3f 64
        E 133 81 4e 67
        E 1 82 4e 66
        E 0 88 3f 65
        E 1 8a 3f 64
        E 0 91 4e 67
        E 1 92 50 65
        E 0 98 3f 65
        E 1 9a 40 65
        E 132 80 4f 64
        E 0 81 4e 67
        E 1 87 3f 66
        E 1 88 3f 65
        E 0 90 4f 64
        E 1 91 50 66
        E 0 97 3f 66
        E 1 98 41 63
        E 133 80 4f 64
        E 1 84 4f 65
        E 1 86 3f 67
        E 0 87 3f 66
        E 1 90 50 67
        E 1 94 4f 65
        E 0 96 3f 67
        E 1 97 41 64
        E 131 83 50 64
        E 0 84 4f 65
        E 1 85 40 64
        E 1 86 3f 67
        E 0 93 50 64
        E 1 94 51 64
        E 0 95 40 64
        E 1 96 41 65
        E 135 82 50 65
        E 1 83 50 64
        E 0 85 40 64
        E 1 8a 40 65
        E 1 92 50 65
        E 0 93 51 65
        E 1 95 42 64
        E 1 9a 40 65
        E 132 81 50 66
        E 0 82 50 65
        E 0 88 41 63
        E 1 8a 40 65
        E 0 91 50 66
        E 1 92 52 64
        E 0 98 41 63
        E 1 9a 42 65
        E 134 80 50 67
        E 0 81 50 66
        E 1 87 41 64
        E 0 88 41 63
        E 1 90 50 67
        E 0 91 52 65
        E 1 97 41 64
        E 0 98 42 66
        E 0 9d 32 64
        E 134 80 50 67
        E 0 84 51 64
        E 1 86 41 65
        E 0 87 41 64
        E 0 90 52 66
        E 1 94 51 64
        E 0 96 41 65
        E 0 97 42 67
        E 1 9c 32 65
        E 135 83 51 65
        E 1 84 51 64
        E 0 85 42 64
        E 1 86 41 65
        E 0 93 51 65
        E 1 94 52 67
        E 1 95 42 64
        E 0 96 43 64
        E 1 9b 33 64
        E 130 82 52 64
        E 1 83 51 65
        E 0 85 42 64
        E 1 8a 42 65
        E 0 92 52 64
        E 1 93 53 64
        E 0 95 43 65
        E 1 9a 42 65
        E 1 9f 33 65
        E 132 81 52 65
        E 0 82 52 64
        E 1 88 42 66
        E 0 8a 42 65
        E 1 8d 32 64
        E 0 91 52 65
        E 1 92 53 65
        E 0 98 42 66
        E 0 9a 44 64
        E 0 9d 32 64
        E 1 9e 33 66
        E 133 80 52 66
        E 1 81 52 65
        E 0 87 42 67
        E 1 88 42 66
        E 0 8c 32 65
        E 1 8d 32 64
        E 0 90 52 66
        E 0 97 42 67
        E 1 98 44 65
        E 0 9c 32 65
        E 1 9d 33 67
        E 133 80 52 66
        E 1 82 53 65
        E 0 83 53 64
        E 0 84 52 67
        E 0 85 43 65
        E 0 86 43 64
        E 1 87 42 67
        E 0 88 44 65
        E 0 8a 44 64
        E 0 8b 33 64
        E 1 8c 32 65
        E 0 8d 33 67
        E 0 8e 33 66
        E 1 8f 33 65
        E 0 92 53 65
        E 0 94 54 64
        E 0 95 43 65
        E 1 96 43 64
        E 0 97 44 66
        E 0 98 44 65
        E 1 9a 44 64
        E 0 9b 33 64
        E 0 9c 34 64
        E 0 9d 33 67
        E 0 9e 33 66
        E 0 9f 33 65
        E 122 82 53 65
        E 1 86 43 64
        E 0 8b 33 64
        E 0 93 54 65
        E 0 96 44 67
        E 0 9b 34 65
        E 127 84 54 64
        E 1 85 43 65
        E 0 8f 33 65
        E 0 95 45 64
        E 0 9f 35 63
        E 128 83 54 65
        E 0 8a 44 64
        E 0 8e 33 66
        E 0 9a 45 65
        E 0 9e 35 64
        E 128 87 44 66
        E 0 88 44 65
        E 1 8c 34 64
        E 0 8d 33 67
        E 1 97 44 66
        E 0 98 46 64
        E 1 9c 34 64
        E 0 9d 35 65
        E 123 86 44 67
        E 0 87 44 66
        E 0 8b 34 65
        E 1 8c 34 64
        E 0 96 44 67
        E 0 97 46 65
        E 0 9b 34 65
        E 0 9c 36 64
        E 131 85 45 64
        E 0 86 44 67
        E 1 8b 34 65
        E 0 8f 35 63
        E 1 95 45 64
        E 0 96 46 66
        E 1 9b 36 65
        E 0 9f 35 63
        E 122 85 45 64
        E 0 8a 45 65
        E 0 8e 35 64
        E 0 8f 35 63
        E 1 95 46 67
        E 0 9e 35 64
        E 0 9f 36 66
        E 127 88 46 64
        E 0 8d 35 65
        E 1 8e 35 64
        E 0 9a 47 64
        E 0 9d 35 65
        E 0 9e 36 67
        E 128 87 46 65
        E 0 8c 36 64
        E 0 8d 35 65
        E 1 98 47 65
        E 0 9c 36 64
        E 0 9d 37 64
        E 127 86 46 66
        E 0 8b 36 65
        E 0 8c 36 64
        E 1 97 48 63
        E 0 9b 36 65
        E 0 9c 37 65
        E 125 85 46 67
        E 0 8b 36 65
        E 1 8f 36 66
        E 0 96 48 64
        E 3 9b 38 64
        E 0 9f 36 66
        E 125 8a 47 64
        E 0 8e 36 67
        E 0 8f 36 66
        E 1 95 48 65
        E 0 9e 36 67
        E 0 9f 38 65
        E 127 88 47 65
        E 0 8d 37 64
        E 0 8e 36 67
        E 1 9a 49 64
        E 0 9d 37 64
        E 1 9e 38 66
        E 127 87 48 63
        E 0 8c 37 65
        E 1 8d 37 64
        E 0 98 48 64
        E 1 9c 37 65
        E 0 9d 38 67
        E 125 86 48 64
        E 0 8b 38 64
        E 1 8c 37 65
        E 0 97 49 66
        E 0 9b 38 64
        E 0 9c 39 64
        E 128 85 48 65
        E 0 8b 38 64
        E 1 8f 38 65
        E 1 95 48 65
        E 0 96 49 67
        E 1 9b 39 65
        E 0 9f 38 65
        E 125 85 48 65
        E 0 8a 49 64
        E 1 8e 38 66
        E 0 8f 38 65
        E 1 95 4a 64
        E 0 9e 38 66
        E 1 9f 3a 64
        E 126 88 48 64
        E 0 8d 38 67
        E 1 8e 38 66
        E 1 9a 4a 65
        E 0 9d 38 67
        E 0 9e 3a 65
        E 122 87 49 66
        E 1 8c 39 64
        E 0 8d 38 67
        E 1 98 4b 64
        E 1 9c 39 64
        E 0 9d 3a 66
        E 128 86 49 67
        E 0 8b 39 65
        E 0 8c 39 64
        E 1 97 4b 65
        E 0 9b 3b 64
        E 0 9c 3a 67
        E 125 85 4a 64
        E 0 8b 3b 64
        E 0 8f 3a 64
        E 1 96 4b 66
        E 0 9b 3b 64
        E 0 9f 3a 64
        E 128 8a 4a 65
        E 0 8e 3a 65
        E 0 8f 3a 64
        E 0 95 4b 67
        E 0 9e 3a 65
        E 1 9f 3b 65
        E 129 88 4b 64
        E 0 8d 3a 66
        E 0 8e 3a 65
        E 0 9a 4c 64
        E 1 9d 3a 66
        E 0 9e 3c 63
        E 126 87 4b 65
        E 0 8c 3a 67
        E 0 8d 3a 66
        E 1 98 4c 65
        E 0 9c 3a 67
        E 0 9d 3c 64
        E 126 86 4b 66
        E 0 8b 3b 64
        E 0 8c 3a 67
        E 1 97 4d 63
        E 0 9b 3b 64
        E 0 9c 3c 65
        E 128 85 4b 67
        E 0 8a 4c 64
        E 0 8b 3b 64
        E 1 8f 3b 65
        E 0 96 4d 64
        E 0 9b 3d 64
        E 0 9f 3b 65
        E 126 88 4c 65
        E 0 8e 3c 63
        E 0 8f 3b 65
        E 0 95 4d 65
        E 1 9e 3c 63
        E 0 9f 3d 65
        E 126 87 4d 63
        E 0 8d 3c 64
        E 1 8e 3c 63
        E 0 9a 4e 64
        E 0 9d 3c 64
        E 0 9e 3d 66
        E 129 86 4d 64
        E 0 8c 3c 65
        E 0 8d 3c 64
        E 0 98 4e 65
        E 1 9c 3c 65
        E 0 9d 3d 67
        E 127 85 4d 65
        E 0 8b 3d 64
        E 1 8c 3c 65
        E 0 97 4e 66
        E 0 9b 3d 64
        E 0 9c 3e 64
        E 126 8a 4e 64
        E 0 8b 3d 64
        E 0 8f 3d 65
        E 1 93 2e 66
        E 0 96 4e 67
        E 0 9b 3e 65
        E 0 9f 3d 65
        E 127 88 4e 65
        E 1 8e 3d 66
        E 0 8f 3d 65
        E 0 92 2e 67
        E 1 95 4f 64
        E 0 9e 3d 66
        E 0 9f 3f 64
        E 124 87 4e 66
        E 1 8d 3d 67
        E 0 8e 3d 66
        E 0 91 2f 64
        E 1 9a 4f 65
        E 0 9d 3d 67
        E 0 9e 3f 65
        E 128 86 4e 67
        E 0 8c 3e 64
        E 0 8d 3d 67
        E 1 90 2f 65
        E 0 98 50 64
        E 0 9c 3e 64
        E 0 9d 3f 66
        E 120 83 2e 66
        E 0 85 4f 64
        E 0 8b 3e 65
        E 1 8c 3e 64
        E 0 94 30 63
        E 0 97 50 65
        E 0 9b 3e 65
        E 1 9c 3f 67
        E 117 82 2e 67
        E 0 8a 4f 65
        E 0 8b 3e 65
        E 1 8f 3f 64
        E 0 93 30 64
        E 1 96 50 66
        E 0 9b 40 64
        E 0 9f 3f 64
        E 120 81 2f 64
        E 0 88 50 64
        E 0 8e 3f 65
        E 1 8f 3f 64
        E 0 92 30 65
        E 0 95 50 67
        E 1 9e 3f 65
        E 0 9f 40 65
        E 116 80 2f 65
        E 1 87 50 65
        E 0 8d 3f 66
        E 0 8e 3f 65
        E 0 91 31 64
        E 0 9a 51 64
        E 1 9d 3f 66
        E 0 9e 41 63
        E 120 84 30 63
        E 0 85 50 67
        E 0 86 50 66
        E 1 8c 3f 67
        E 0 8d 3f 66
        E 1 90 31 65
        E 0 98 51 65
        E 0 9c 3f 67
        E 1 9d 41 64
        E 115 83 30 64
        E 0 8a 51 64
        E 0 8b 40 64
        E 1 8c 3f 67
        E 0 94 31 66
        E 1 97 52 64
        E 0 9b 40 64
        E 0 9c 41 65
        E 120 82 30 65
        E 1 88 51 65
        E 0 8b 40 64
        E 1 8f 40 65
        E 0 93 31 67
        E 1 96 52 65
        E 0 9b 42 64
        E 1 9f 40 65
        E 115 81 31 64
        E 0 87 52 64
        E 1 8e 41 63
        E 0 8f 40 65
        E 0 92 32 64
        E 1 95 52 66
        E 0 9e 41 63
        E 1 9f 42 65
        E 114 80 31 65
        E 0 86 52 65
        E 0 8d 41 64
        E 1 8e 41 63
        E 0 91 32 65
        E 0 9a 52 67
        E 0 9d 41 64
        E 1 9e 42 66
        E 120 84 31 66
        E 0 85 52 66
        E 0 8c 41 65
        E 0 8d 41 64
        E 0 90 33 64
        E 1 98 53 64
        E 0 9c 41 65
        E 0 9d 42 67
        E 120 83 31 67
        E 1 8a 52 67
        E 0 8b 42 64
        E 0 8c 41 65
        E 1 94 33 65
        E 0 97 53 65
        E 0 9b 42 64
        E 1 9c 43 64
        E 118 82 32 64
        E 0 8b 42 64
        E 1 8f 42 65
        E 0 93 33 66
        E 1 9b 43 65
        E 0 9f 42 65
        E 117 81 32 65
        E 1 87 53 65
        E 0 88 53 64
        E 0 8e 42 66
        E 0 8f 42 65
        E 1 92 33 67
        E 0 9a 54 64
        E 0 9e 42 66
        E 1 9f 44 64
        E 116 80 33 64
        E 0 8d 42 67
        E 0 8e 42 66
        E 0 91 34 64
        E 1 98 54 65
        E 0 9d 42 67
        E 0 9e 44 65
        E 120 84 33 65
        E 0 8a 54 64
        E 0 8c 43 64
        E 1 8d 42 67
        E 0 90 34 65
        E 0 9c 43 64
        E 1 9d 44 66
        E 115 83 33 66
        E 1 88 54 65
        E 0 8b 43 65
        E 0 8c 43 64
        E 1 94 35 63
        E 0 9b 43 65
        E 0 9c 44 67
        E 120 82 33 67
        E 0 8b 43 65
        E 0 8f 44 64
        E 1 93 35 64
        E 0 9b 45 64
        E 0 9f 44 64
        E 119 81 34 64
        E 1 8e 44 65
        E 0 8f 44 64
        E 1 92 35 65
        E 0 9e 44 65
        E 1 9f 45 65
        E 118 80 34 65
        E 0 8d 44 66
        E 0 8e 44 65
        E 0 91 36 64
        E 1 9d 44 66
        E 0 9e 46 64
        E 118 84 35 63
        E 1 8c 44 67
        E 0 8d 44 66
        E 0 90 36 65
        E 1 94 35 63
        E 0 9c 44 67
        E 0 9d 46 65
        E 116 83 35 64
        E 1 84 35 63
        E 0 8b 45 64
        E 1 8c 44 67
        E 0 93 35 64
        E 1 94 36 66
        E 0 9b 45 64
        E 1 9c 46 66
        E 119 82 35 65
        E 1 83 35 64
        E 0 8b 45 64
        E 0 8f 45 65
        E 0 92 35 65
        E 0 93 36 67
        E 1 9b 46 67
        E 0 9f 45 65
        E 119 81 36 64
        E 0 82 35 65
        E 0 8e 46 64
        E 1 8f 45 65
        E 0 91 36 64
        E 1 92 37 64
        E 0 9e 46 64
        E 0 9f 47 64
        E 118 80 36 65
        E 0 81 36 64
        E 0 8d 46 65
        E 1 8e 46 64
        E 0 90 36 65
        E 0 91 37 65
        E 0 9d 46 65
        E 1 9e 47 65
        E 117 80 36 65
        E 0 84 36 66
        E 0 8c 46 66
        E 0 8d 46 65
        E 0 90 38 64
        E 0 94 36 66
        E 1 9c 46 66
        E 0 9d 48 63
        E 117 83 36 67
        E 1 84 36 66
        E 0 8b 46 67
        E 0 8c 46 66
        E 0 93 36 67
        E 1 94 38 65
        E 0 9b 46 67
        E 0 9c 48 64
        E 120 82 37 64
        E 0 83 36 67
        E 1 8b 46 67
        E 0 8f 47 64
        E 0 92 37 64
        E 1 93 38 66
        E 0 9b 48 65
        E 0 9f 47 64
        E 117 81 37 65
        E 0 82 37 64
        E 0 8e 47 65
        E 1 8f 47 64
        E 0 91 37 65
        E 0 92 38 67
        E 0 9e 47 65
        E 0 9f 49 64
        E 121 80 38 64
        E 1 81 37 65
        E 0 8d 48 63
        E 0 8e 47 65
        E 0 90 38 64
        E 1 91 39 64
        E 0 9d 48 63
        E 0 9e 49 65
        E 114 80 38 64
        E 1 84 38 65
        E 0 8c 48 64
        E 0 8d 48 63
        E 0 90 39 65
        E 1 94 38 65
        E 0 9c 48 64
        E 0 9d 49 66
        E 120 83 38 66
        E 1 84 38 65
        E 0 8b 48 65
        E 0 8c 48 64
        E 0 93 38 66
        E 1 94 3a 64
        E 0 9b 48 65
        E 0 9c 49 67
        E 117 82 38 67
        E 1 83 38 66
        E 0 8b 48 65
        E 0 8f 49 64
        E 0 92 38 67
        E 0 93 3a 65
        E 0 9b 4a 64
        E 0 9f 49 64
        E 121 81 39 64
        E 0 82 38 67
        E 0 8e 49 65
        E 0 8f 49 64
        E 0 91 39 64
        E 0 92 3a 66
        E 1 9a 2a 67
        E 0 9e 49 65
        E 0 9f 4a 65
        E 119 80 39 65
        E 0 81 39 64
        E 0 8d 49 66
        E 1 8e 49 65
        E 0 90 3b 64
        E 0 91 3a 67
        E 0 98 2b 64
        E 0 9d 49 66
        E 0 9e 4b 64
        E 118 80 3b 64
        E 1 84 3a 64
        E 0 8c 49 67
        E 0 8d 49 66
        E 0 90 3b 64
        E 0 94 3a 64
        E 0 97 2b 65
        E 0 9c 49 67
        E 1 9d 4b 65
        E 117 83 3a 65
        E 0 84 3a 64
        E 0 8a 2a 67
        E 1 8b 4a 64
        E 0 8c 49 67
        E 0 93 3a 65
        E 0 94 3b 65
        E 0 96 2c 64
        E 0 9b 4a 64
        E 1 9c 4b 66
        E 120 82 3a 66
        E 0 83 3a 65
        E 0 88 2b 64
        E 0 8b 4a 64
        E 1 8f 4a 65
        E 0 92 3a 66
        E 0 93 3c 63
        E 0 95 2c 65
        E 0 9b 4b 67
        E 0 9f 4a 65
        E 112 81 3a 67
        E 0 82 3a 66
        E 1 87 2b 65
        E 0 8e 4b 64
        E 0 8f 4a 65
        E 0 91 3a 67
        E 0 92 3c 64
        E 0 9a 2c 66
        E 1 9e 4b 64
        E 0 9f 4c 64
        E 111 80 3b 64
        E 1 81 3a 67
        E 0 86 2c 64
        E 0 8d 4b 65
        E 0 8e 4b 64
        E 1 90 3b 64
        E 0 91 3c 65
        E 0 98 2c 67
        E 0 9d 4b 65
        E 0 9e 4c 65
        E 110 80 3b 64
        E 1 84 3b 65
        E 0 85 2c 65
        E 0 8c 4b 66
        E 1 8d 4b 65
        E 0 90 3d 64
        E 0 94 3b 65
        E 0 97 2d 64
        E 1 9c 4b 66
        E 0 9d 4d 63
        E 111 83 3c 63
        E 0 84 3b 65
        E 1 8a 2c 66
        E 0 8b 4b 67
        E 0 8c 4b 66
        E 1 93 3c 63
        E 0 94 3d 65
        E 0 96 2d 65
        E 0 9b 4b 67
        E 0 9c 4d 64
        E 111 82 3c 64
        E 0 83 3c 63
        E 0 88 2c 67
        E 1 8b 4b 67
        E 0 8f 4c 64
        E 1 92 3c 64
        E 0 93 3d 66
        E 0 95 2e 64
        E 1 9b 4d 65
        E 0 9f 4c 64
        E 111 81 3c 65
        E 0 82 3c 64
        E 1 87 2d 64
        E 0 8e 4c 65
        E 1 8f 4c 64
        E 0 91 3c 65
        E 0 92 3d 67
        E 0 9a 2e 65
        E 1 9e 4c 65
        E 0 9f 4e 64
        E 108 80 3d 64
        E 1 81 3c 65
        E 0 86 2d 65
        E 1 8d 4d 63
        E 1 8e 4c 65
        E 0 90 3d 64
        E 1 91 3e 64
        E 0 98 2e 66
        E 1 9d 4d 63
        E 1 9e 4e 65
        E 108 80 3d 64
        E 0 84 3d 65
        E 1 85 2e 64
        E 0 8c 4d 64
        E 1 8d 4d 63
        E 1 90 3e 65
        E 0 94 3d 65
        E 1 97 2e 67
        E 0 9c 4d 64
        E 0 9d 4e 66
        E 109 83 3d 66
        E 0 84 3d 65
        E 1 8b 4d 65
        E 1 8c 4d 64
        E 0 93 3d 66
        E 1 94 3f 64
        E 0 96 2f 64
        E 1 9b 4d 65
        E 0 9c 4e 67
        E 106 82 3d 67
        E 1 83 3d 66
        E 0 8a 2e 65
        E 1 8b 4d 65
        E 1 8f 4e 64
        E 1 92 3d 67
        E 0 93 3f 65
        E 1 95 2f 65
        E 1 9b 4f 64
        E 0 9f 4e 64
        E 109 81 3e 64
        E 0 82 3d 67
        E 1 88 2e 66
        E 1 8e 4e 65
        E 1 8f 4e 64
        E 0 91 3e 64
        E 1 92 3f 66
        E 0 9a 30 63
        E 1 9e 4e 65
        E 0 9f 4f 65
        E 108 80 3e 65
        E 1 81 3e 64
        E 1 87 2e 67
        E 1 8d 4e 66
        E 1 8e 4e 65
        E 0 90 3e 65
        E 0 91 3f 67
        E 1 98 30 64
        E 0 9d 4e 66
        E 1 9e 50 64
        E 109 80 3e 65
        E 0 84 3f 64
        E 1 86 2f 64
        E 0 8c 4e 67
        E 1 8d 4e 66
        E 0 90 40 64
        E 1 94 3f 64
        E 0 97 30 65
        E 1 9c 4e 67
        E 0 9d 50 65
        E 107 83 3f 65
        E 1 84 3f 64
        E 1 85 2f 65
        E 0 8b 4f 64
        E 1 8c 4e 67
        E 0 93 3f 65
        E 1 94 40 65
        E 0 96 31 64
        E 1 9b 4f 64
        E 0 9c 50 66
        E 107 82 3f 66
        E 1 83 3f 65
        E 0 8a 30 63
        E 1 8b 4f 64
        E 0 8f 4f 65
        E 1 92 3f 66
        E 0 93 41 63
        E 1 95 31 65
        E 0 9b 50 67
        E 1 9f 4f 65
        E 109 81 3f 67
        E 0 82 3f 66
        E 1 88 30 64
        E 0 8e 50 64
        E 1 8f 4f 65
        E 0 91 3f 67
        E 1 92 41 64
        E 0 9a 31 66
        E 1 9e 50 64
        E 0 9f 51 64
        E 108 80 40 64
        E 0 81 3f 67
        E 1 87 30 65
        E 0 8d 50 65
        E 1 8e 50 64
        E 0 90 40 64
        E 1 91 41 65
        E 0 98 31 67
        E 1 9d 50 65
        E 0 9e 51 65
        E 112 80 40 64
        E 0 84 40 65
        E 1 86 31 64
        E 0 8c 50 66
        E 0 8d 50 65
        E 1 90 42 64
        E 0 94 40 65
        E 1 97 32 64
        E 0 9c 50 66
        E 1 9d 52 64
        E 106 83 41 63
        E 1 84 40 65
        E 0 85 31 65
        E 1 8b 50 67
        E 0 8c 50 66
        E 1 93 41 63
        E 1 94 42 65
        E 0 96 32 65
        E 0 9b 50 67
        E 1 9c 52 65
        E 109 82 41 64
        E 1 83 41 63
        E 0 8a 31 66
        E 2 8b 50 67
        E 0 8f 51 64
        E 1 92 41 64
        E 0 93 42 66
        E 1 95 33 64
        E 0 9b 52 66
        E 1 9f 51 64
        E 106 81 41 65
        E 0 82 41 64
        E 1 88 31 67
        E 0 8e 51 65
        E 1 8f 51 64
        E 0 91 41 65
        E 1 92 42 67
        E 0 9a 33 65
        E 1 9e 51 65
        E 0 9f 52 67
        E 109 80 42 64
        E 1 81 41 65
        E 0 87 32 64
        E 1 8d 52 64
        E 0 8e 51 65
        E 1 90 42 64
        E 0 91 43 64
        E 1 98 33 66
        E 1 9d 52 64
        E 0 9e 53 64
        E 108 80 42 64
        E 1 84 42 65
        E 0 86 32 65
        E 1 8c 52 65
        E 1 8d 52 64
        E 0 90 43 65
        E 1 94 42 65
        E 0 97 33 67
        E 1 9c 52 65
        E 2 9d 53 65
        E 108 83 42 66
        E 0 84 42 65
        E 1 85 33 64
        E 0 8b 52 66
        E 1 8c 52 65
        E 1 93 42 66
        E 0 94 44 64
        E 1 96 34 64
        E 0 9b 52 66
        E 108 82 42 67
        E 0 83 42 66
        E 1 8a 33 65
        E 0 8b 52 66
        E 0 8d 53 65
        E 1 8e 53 64
        E 0 8f 52 67
        E 1 92 42 67
        E 0 93 44 65
        E 1 95 34 65
        E 0 9d 53 65
        E 1 9e 53 64
        E 0 9f 54 64
        E 105 81 43 64
        E 0 82 42 67
        E 1 88 33 66
        E 1 8e 53 64
        E 0 91 43 64
        E 1 92 44 66
        E 0 9a 35 63
        E 0 9e 54 65
        E 112 80 43 65
        E 1 81 43 64
        E 0 87 33 67
        E 0 8d 53 65
        E 1 90 43 65
        E 0 91 44 67
        E 1 98 35 64
        E 110 80 43 65
        E 1 84 44 64
        E 0 86 34 64
        E 1 90 45 64
        E 1 94 44 64
        E 0 97 35 65
        E 112 83 44 65
        E 1 84 44 64
        E 0 85 34 65
        E 0 8f 54 64
        E 1 93 44 65
        E 1 94 45 65
        E 0 96 36 64
        E 108 82 44 66
        E 0 83 44 65
        E 1 8a 35 63
        E 0 8e 54 65
        E 1 92 44 66
        E 0 93 46 64
        E 1 95 36 65
        E 0 9a 35 63
        E 110 81 44 67
        E 0 82 44 66
        E 1 88 35 64
        E 0 8a 35 63
        E 1 91 44 67
        E 0 92 46 65
        E 1 98 35 64
        E 0 9a 36 66
        E 110 80 45 64
        E 1 81 44 67
        E 0 87 35 65
        E 0 88 35 64
        E 1 90 45 64
        E 0 91 46 66
        E 1 97 35 65
        E 0 98 36 67
        E 108 80 45 64
        E 0 84 45 65
        E 0 86 36 64
        E 1 87 35 65
        E 0 90 46 67
        E 1 96 36 64
        E 0 97 37 64
        E 114 83 46 64
        E 0 85 36 65
        E 0 86 36 64
        E 1 94 47 64
        E 0 95 36 65
        E 0 96 37 65
        E 109 82 46 65
        E 1 85 36 65
        E 0 8a 36 66
        E 0 93 47 65
        E 1 95 38 64
        E 0 9a 36 66
        E 0 9f 27 66
        E 112 81 46 66
        E 1 88 36 67
        E 0 8a 36 66
        E 0 92 48 63
        E 1 98 36 67
        E 0 9a 38 65
        E 104 80 46 67
        E 0 87 37 64
        E 0 88 36 67
        E 1 8f 27 66
        E 0 91 48 64
        E 0 97 37 64
        E 1 98 38 66
        E 0 9f 27 66
        E 105 84 47 64
        E 0 86 37 65
        E 1 87 37 64
        E 0 90 48 65
        E 0 96 37 65
        E 1 97 38 67
        E 104 83 47 65
        E 0 85 38 64
        E 0 86 37 65
        E 1 8f 27 66
        E 0 94 49 64
        E 0 95 38 64
        E 0 96 39 64
        E 0 9d 28 64
        E 107 82 48 63
        E 0 85 38 64
        E 0 8a 38 65
        E 0 93 48 64
        E 0 95 39 65
        E 1 9a 38 65
        E 104 81 48 64
        E 0 88 38 66
        E 1 8a 38 65
        E 0 8d 28 64
        E 0 92 49 66
        E 0 98 38 66
        E 0 9a 3a 64
        E 0 9b 29 63
        E 109 80 48 65
        E 0 87 38 67
        E 1 88 38 66
        E 0 90 48 65
        E 0 91 49 67
        E 0 97 38 67
        E 0 98 3a 65
        E 0 9f 29 64
        E 103 80 48 65
        E 0 84 49 64
        E 0 86 39 64
        E 0 87 38 67
        E 0 8b 29 63
        E 0 90 4a 64
        E 0 96 39 64
        E 1 97 3a 66
        E 0 9e 29 65
        E 107 83 48 64
        E 0 85 39 65
        E 0 86 39 64
        E 0 94 4a 65
        E 1 95 3b 64
        E 0 96 3a 67
        E 0 9d 2a 64
        E 107 82 49 66
        E 0 85 3b 64
        E 0 8a 3a 64
        E 0 8f 29 64
        E 1 93 4b 64
        E 0 95 3b 64
        E 0 9a 3a 64
        E 0 9c 2a 65
        E 103 81 49 67
        E 0 88 3a 65
        E 1 8a 3a 64
        E 0 8e 29 65
        E 0 92 4b 65
        E 0 98 3a 65
        E 0 9a 3b 65
        E 0 9b 2a 66
        E 106 80 4a 64
        E 1 87 3a 66
        E 0 88 3a 65
        E 0 8d 2a 64
        E 1 91 4b 66
        E 0 97 3a 66
        E 0 98 3c 63
        E 0 9f 2a 67
        E 105 84 4a 65
        E 1 86 3a 67
        E 0 87 3a 66
        E 0 8c 2a 65
        E 0 90 4b 67
        E 0 96 3a 67
        E 1 97 3c 64
        E 0 9e 2b 64
        E 105 83 4b 64
        E 0 85 3b 64
        E 0 86 3a 67
        E 1 8b 2a 66
        E 0 94 4c 64
        E 0 95 3b 64
        E 0 96 3c 65
        E 1 9d 2b 65
        E 103 82 4b 65
        E 0 85 3b 64
        E 0 8a 3b 65
        E 1 8f 2a 67
        E 0 93 4c 65
        E 0 95 3d 64
        E 0 9a 3b 65
        E 0 9c 2c 64
        E 108 81 4b 66
        E 1 88 3c 63
        E 0 8a 3b 65
        E 1 8e 2b 64
        E 0 92 4d 63
        E 1 98 3c 63
        E 0 9a 3d 65
        E 1 9b 2c 65
        E 99 80 4b 67
        E 1 84 4c 64
        E 0 87 3c 64
        E 1 88 3c 63
        E 0 8d 2b 65
        E 1 91 4d 64
        E 0 97 3c 64
        E 1 98 3d 66
        E 0 9f 2c 66
        E 107 83 4c 65
        E 0 86 3c 65
        E 1 87 3c 64
        E 0 8c 2c 64
        E 1 90 4d 65
        E 0 96 3c 65
        E 1 97 3d 67
        E 1 9e 2c 67
        E 101 82 4d 63
        E 1 85 3d 64
        E 0 86 3c 65
        E 0 8b 2c 65
        E 1 94 4e 64
        E 1 95 3d 64
        E 1 96 3e 64
        E 0 9d 2d 64
        E 104 81 4d 64
        E 0 85 3d 64
        E 1 8a 3d 65
        E 0 8f 2c 66
        E 1 93 4e 65
        E 0 95 3e 65
        E 1 9a 3d 65
        E 0 9c 2d 65
        E 104 80 4d 65
        E 0 88 3d 66
        E 1 8a 3d 65
        E 0 8e 2c 67
        E 1 92 4e 66
        E 0 98 3d 66
        E 1 9a 3f 64
        E 0 9b 2e 64
        E 104 84 4e 64
        E 1 87 3d 67
        E 0 88 3d 66
        E 1 8d 2d 64
        E 0 91 4e 67
        E 2 97 3d 67
        E 0 98 3f 65
        E 2 9f 2e 65
        E 100 83 4e 65
        E 1 86 3e 64
        E 1 87 3d 67
        E 0 8c 2d 65
        E 1 90 4f 64
        E 0 96 3e 64
        E 1 97 3f 66
        E 0 9e 2e 66
        E 102 82 4e 66
        E 0 85 3e 65
        E 1 86 3e 64
        E 1 8b 2e 64
        E 0 94 4f 65
        E 1 95 3e 65
        E 1 96 3f 67
        E 0 9d 2e 67
        E 102 81 4e 67
        E 0 85 3e 65
        E 1 8a 3f 64
        E 0 93 50 64
        E 1 95 40 64
        E 0 9a 3f 64
        E 1 9c 2f 64
        E 104 80 4f 64
        E 1 88 3f 65
        E 0 8a 3f 64
        E 1 8f 2e 65
        E 0 92 50 65
        E 1 98 3f 65
        E 1 9a 40 65
        E 0 9b 2f 65
        E 101 84 4f 65
        E 1 87 3f 66
        E 0 88 3f 65
        E 1 8e 2e 66
        E 1 91 50 66
        E 1 97 3f 66
        E 0 98 41 63
        E 0 9f 30 63
        E 107 83 50 64
        E 1 86 3f 67
        E 1 87 3f 66
        E 0 8d 2e 67
        E 1 90 50 67
        E 0 96 3f 67
        E 1 97 41 64
        E 0 9e 30 64
        E 100 82 50 65
        E 1 85 40 64
        E 0 86 3f 67
        E 1 8c 2f 64
        E 0 94 51 64
        E 1 95 40 64
        E 1 96 41 65
        E 0 9d 30 65
        E 104 80 50 67
        E 0 81 50 66
        E 1 85 40 64
        E 0 8a 40 65
        E 1 8b 2f 65
        E 0 93 51 65
        E 1 95 42 64
        E 0 9a 40 65
        E 1 9c 31 64
        E 101 84 51 64
        E 1 88 41 63
        E 0 8a 40 65
        E 1 8f 30 63
        E 0 92 52 64
        E 0 98 41 63
        E 1 9a 42 65
        E 0 9b 31 65
        E 105 83 51 65
        E 1 87 41 64
        E 1 88 41 63
        E 0 8e 30 64
        E 0 91 52 65
        E 2 97 41 64
        E 1 98 42 66
        E 0 9f 31 66
        E 100 82 52 64
        E 1 86 41 65
        E 1 87 41 64
        E 1 8d 30 65
        E 0 90 52 66
        E 1 96 41 65
        E 0 97 42 67
        E 1 9e 31 67
        E 104 81 52 65
        E 0 85 42 64
        E 1 86 41 65
        E 0 8c 31 64
        E 1 94 52 67
        E 0 95 42 64
        E 1 96 43 64
        E 0 9d 32 64
        E 101 80 52 66
        E 0 85 42 64
        E 1 8a 42 65
        E 0 8b 31 65
        E 1 93 53 64
        E 0 95 43 65
        E 1 9a 42 65
        E 0 9c 32 65
        E 103 84 52 67
        E 1 88 42 66
        E 0 8a 42 65
        E 1 8f 31 66
        E 0 92 53 65
        E 1 98 42 66
        E 0 9a 44 64
        E 1 9b 33 64
        E 105 87 42 67
        E 1 88 42 66
        E 0 8e 31 67
        E 1 97 42 67
        E 0 98 44 65
        E 1 9f 33 65
        E 102 82 53 65
        E 0 83 53 64
        E 1 85 43 65
        E 0 86 43 64
        E 1 87 42 67
        E 1 88 44 65
        E 0 8a 44 64
        E 0 8b 33 64
        E 1 8c 32 65
        E 0 8d 32 64
        E 1 8f 33 65
        E 1 90 24 64
        E 0 94 54 64
        E 1 95 43 65
        E 0 96 43 64
        E 1 97 44 66
        E 0 98 44 65
        E 1 9a 44 64
        E 0 9b 33 64
        E 1 9c 32 65
        E 0 9e 33 66
        E 1 9f 33 65
        E 93 86 43 64
        E 1 8c 32 65
        E 0 93 54 65
        E 1 96 44 67
        E 0 9d 33 67
        E 97 80 24 64
        E 0 84 54 64
        E 1 85 43 65
        E 0 8b 33 64
        E 1 8d 33 67
        E 0 8e 33 66
        E 0 8f 33 65
        E 1 92 25 64
        E 0 95 45 64
        E 1 9b 34 65
        E 0 9c 34 64
        E 1 9d 33 67
        E 0 9f 35 63
        E 98 83 54 65
        E 1 8a 44 64
        E 0 8d 33 67
        E 1 9a 45 65
        E 0 9e 35 64
        E 97 82 25 64
        E 0 87 44 66
        E 1 88 44 65
        E 0 8c 34 64
        E 1 90 25 66
        E 0 97 44 66
        E 1 98 46 64
        E 0 9d 35 65
        E 97 86 44 67
        E 1 87 44 66
        E 0 8b 34 65
        E 0 96 44 67
        E 1 97 46 65
        E 1 9c 36 64
        E 98 80 25 66
        E 0 85 45 64
        E 1 86 44 67
        E 1 8f 35 63
        E 0 93 26 64
        E 0 95 45 64
        E 1 96 46 66
        E 0 9b 36 65
        E 3 9f 35 63
        E 98 85 45 64
        E 0 8a 45 65
        E 1 8e 35 64
        E 0 8f 35 63
        E 1 95 46 67
        E 0 9e 35 64
        E 1 9f 36 66
        E 97 83 26 64
        E 0 88 46 64
        E 1 8d 35 65
        E 0 8e 35 64
        E 1 91 27 64
        E 0 9a 47 64
        E 1 9d 35 65
        E 0 9e 36 67
        E 98 87 46 65
        E 1 8c 36 64
        E 0 8d 35 65
        E 1 98 47 65
        E 0 9c 36 64
        E 0 9d 37 64
        E 99 81 27 64
        E 0 86 46 66
        E 1 8b 36 65
        E 0 8c 36 64
        E 1 94 27 66
        E 1 97 48 63
        E 0 9b 36 65
        E 1 9c 37 65
        E 96 85 46 67
        E 0 8b 36 65
        E 1 8f 36 66
        E 0 96 48 64
        E 1 9b 38 64
        E 0 9f 36 66
        E 101 84 27 66
        E 0 8a 47 64
        E 1 8e 36 67
        E 0 8f 36 66
        E 1 92 28 64
        E 1 95 48 65
        E 0 9e 36 67
        E 0 9f 38 65
        E 96 88 47 65
        E 1 8d 37 64
        E 0 8e 36 67
        E 1 9a 49 64
        E 0 9d 37 64
        E 1 9e 38 66
        E 99 82 28 64
        E 0 87 48 63
        E 1 8c 37 65
        E 0 8d 37 64
        E 1 90 29 63
        E 0 98 48 64
        E 1 9c 37 65
        E 0 9d 38 67
        E 99 86 48 64
        E 1 8b 38 64
        E 1 8c 37 65
        E 0 94 29 64
        E 0 97 49 66
        E 1 9b 38 64
        E 1 9c 39 64
        E 95 80 29 63
        E 0 85 48 65
        E 1 8b 38 64
        E 0 8f 38 65
        E 1 93 29 65
        E 0 95 48 65
        E 1 96 49 67
        E 0 9b 39 65
        E 1 9f 38 65
        E 99 85 48 65
        E 0 8a 49 64
        E 1 8e 38 66
        E 0 8f 38 65
        E 1 92 2a 64
        E 0 95 4a 64
        E 1 9e 38 66
        E 0 9f 3a 64
        E 96 84 29 64
        E 0 88 48 64
        E 1 8d 38 67
        E 0 8e 38 66
        E 1 91 2a 65
        E 0 9a 4a 65
        E 1 9d 38 67
        E 0 9e 3a 65
        E 99 83 29 65
        E 1 87 49 66
        E 0 8c 39 64
        E 1 8d 38 67
        E 0 90 2a 66
        E 1 98 4b 64
        E 1 9c 39 64
        E 0 9d 3a 66
        E 96 82 2a 64
        E 1 86 49 67
        E 0 8b 39 65
        E 1 8c 39 64
        E 0 94 2a 67
        E 1 97 4b 65
        E 0 9b 3b 64
        E 1 9c 3a 67
        E 97 81 2a 65
        E 0 85 4a 64
        E 1 8b 3b 64
        E 0 8f 3a 64
        E 1 93 2b 64
        E 1 96 4b 66
        E 0 9b 3b 64
        E 3 9f 3a 64
        E 96 80 2a 66
        E 0 8a 4a 65
        E 1 8e 3a 65
        E 1 8f 3a 64
        E 0 92 2b 65
        E 1 95 4b 67
        E 0 9e 3a 65
        E 1 9f 3b 65
        E 100 84 2a 67
        E 0 88 4b 64
        E 0 8d 3a 66
        E 1 8e 3a 65
        E 0 91 2c 64
        E 1 9a 4c 64
        E 1 9d 3a 66
        E 0 9e 3c 63
        E 95 83 2b 64
        E 0 87 4b 65
        E 1 8c 3a 67
        E 0 8d 3a 66
        E 1 90 2c 65
        E 0 98 4c 65
        E 1 9c 3a 67
        E 0 9d 3c 64
        E 99 82 2b 65
        E 0 86 4b 66
        E 0 8b 3b 64
        E 1 8c 3a 67
        E 0 94 2c 66
        E 1 97 4d 63
        E 0 9b 3b 64
        E 1 9c 3c 65
        E 98 81 2c 64
        E 1 85 4b 67
        E 0 8a 4c 64
        E 1 8b 3b 64
        E 0 8f 3b 65
        E 1 93 2c 67
        E 0 96 4d 64
        E 1 9b 3d 64
        E 1 9f 3b 65
        E 96 80 2c 65
        E 0 88 4c 65
        E 1 8e 3c 63
        E 0 8f 3b 65
        E 1 92 2d 64
        E 0 95 4d 65
        E 1 9e 3c 63
        E 0 9f 3d 65
        E 96 84 2c 66
        E 1 87 4d 63
        E 0 8d 3c 64
        E 1 8e 3c 63
        E 1 91 2d 65
        E 0 9a 4e 64
        E 1 9d 3c 64
        E 0 9e 3d 66
        E 99 83 2c 67
        E 1 86 4d 64
        E 1 8c 3c 65
        E 0 8d 3c 64
        E 1 90 2e 64
        E 0 98 4e 65
        E 1 9c 3c 65
        E 0 9d 3d 67
        E 97 82 2d 64
        E 1 85 4d 65
        E 0 8b 3d 64
        E 1 8c 3c 65
        E 1 94 2e 65
        E 0 97 4e 66
        E 1 9b 3d 64
        E 0 9c 3e 64
        E 97 81 2d 65
        E 0 8a 4e 64
        E 1 8b 3d 64
        E 0 8f 3d 65
        E 1 93 2e 66
        E 0 96 4e 67
        E 1 9b 3e 65
        E 0 9f 3d 65
        E 99 80 2e 64
        E 1 88 4e 65
        E 0 8e 3d 66
        E 0 8f 3d 65
        E 1 92 2e 67
        E 1 95 4f 64
        E 0 9e 3d 66
        E 1 9f 3f 64
        E 96 87 4e 66
        E 0 8d 3d 67
        E 1 8e 3d 66
        E 0 91 2f 64
        E 2 9a 4f 65
        E 0 9d 3d 67
        E 1 9e 3f 65
        E 98 84 2e 65
        E 1 86 4e 67
        E 1 8c 3e 64
        E 0 8d 3d 67
        E 1 90 2f 65
        E 0 98 50 64
        E 1 9c 3e 64
        E 0 9d 3f 66
        E 95 83 2e 66
        E 0 85 4f 64
        E 1 8b 3e 65
        E 0 8c 3e 64
        E 1 94 30 63
        E 0 97 50 65
        E 1 9b 3e 65
        E 0 9c 3f 67
        E 101 82 2e 67
        E 1 8a 4f 65
        E 1 8b 3e 65
        E 0 8f 3f 64
        E 0 93 30 64
        E 0 96 50 66
        E 0 9b 40 64
        E 1 9f 3f 64
        E 94 81 2f 64
        E 1 88 50 64
        E 0 8e 3f 65
        E 1 8f 3f 64
        E 0 92 30 65
        E 1 95 50 67
        E 0 9e 3f 65
        E 1 9f 40 65
        E 97 80 2f 65
        E 1 87 50 65
        E 1 8d 3f 66
        E 1 8e 3f 65
        E 0 91 31 64
        E 1 9a 51 64
        E 0 9d 3f 66
        E 1 9e 41 63
        E 100 84 30 63
        E 0 85 50 67
        E 1 86 50 66
        E 0 8c 3f 67
        E 1 8d 3f 66
        E 0 90 31 65
        E 1 98 51 65
        E 0 9c 3f 67
        E 1 9d 41 64
        E 96 83 30 64
        E 0 8a 51 64
        E 0 8b 40 64
        E 0 8c 3f 67
        E 1 94 31 66
        E 0 97 52 64
        E 1 9b 40 64
        E 0 9c 41 65
        E 100 82 30 65
        E 0 88 51 65
        E 1 8b 40 64
        E 1 8f 40 65
        E 1 93 31 67
        E 0 96 52 65
        E 1 9b 42 64
        E 0 9f 40 65
        E 90 81 31 64
        E 1 87 52 64
        E 0 8e 41 63
        E 1 8f 40 65
        E 1 92 32 64
        E 0 95 52 66
        E 1 9e 41 63
        E 0 9f 42 65
        E 93 80 31 65
        E 0 86 52 65
        E 1 8d 41 64
        E 1 8e 41 63
        E 0 91 32 65
        E 1 9a 52 67
        E 0 9d 41 64
        E 1 9e 42 66
        E 92 84 31 66
        E 1 85 52 66
        E 0 8c 41 65
        E 1 8d 41 64
        E 1 90 33 64
        E 0 98 53 64
        E 1 9c 41 65
        E 0 9d 42 67
        E 92 83 31 67
        E 1 8a 52 67
        E 0 8b 42 64
        E 0 8c 41 65
        E 1 94 33 65
        E 1 97 53 65
        E 0 9b 42 64
        E 1 9c 43 64
        E 91 82 32 64
        E 0 8b 42 64
        E 1 8f 42 65
        E 1 93 33 66
        E 0 9b 43 65
        E 1 9f 42 65
        E 93 81 32 65
        E 0 87 53 65
        E 1 88 53 64
        E 1 8e 42 66
        E 1 8f 42 65
        E 0 92 33 67
        E 1 95 24 64
        E 0 9a 54 64
        E 1 9e 42 66
        E 0 9f 44 64
        E 92 80 33 64
        E 1 8d 42 67
        E 0 8e 42 66
        E 1 91 34 64
        E 1 98 54 65
        E 0 9d 42 67
        E 1 9e 44 65
        E 91 84 33 65
        E 0 85 24 64
        E 1 8a 54 64
        E 0 8c 43 64
        E 1 8d 42 67
        E 0 90 34 65
        E 1 97 25 64
        E 1 9c 43 64
        E 0 9d 44 66
        E 94 83 33 66
        E 0 88 54 65
        E 1 8b 43 65
        E 0 8c 43 64
        E 1 94 35 63
        E 0 9b 43 65
        E 1 9c 44 67
        E 92 82 33 67
        E 1 87 25 64
        E 0 8b 43 65
        E 1 8f 44 64
        E 0 93 35 64
        E 1 95 25 66
        E 0 9b 45 64
        E 1 9f 44 64
        E 91 81 34 64
        E 0 8e 44 65
        E 1 8f 44 64
        E 2 92 35 65
        E 1 9e 44 65
        E 1 9f 45 65
        E 91 80 34 65
        E 1 85 25 66
        E 0 8d 44 66
        E 1 8e 44 65
        E 1 91 36 64
        E 0 98 26 64
        E 1 9d 44 66
        E 1 9e 46 64
        E 92 84 35 63
        E 0 8c 44 67
        E 1 8d 44 66
        E 0 90 36 65
        E 1 94 35 63
        E 1 9c 44 67
        E 0 9d 46 65
        E 91 83 35 64
        E 1 84 35 63
        E 0 88 26 64
        E 1 8b 45 64
        E 0 8c 44 67
        E 1 93 35 64
        E 0 94 36 66
        E 1 96 27 64
        E 1 9b 45 64
        E 0 9c 46 66
        E 93 82 35 65
        E 1 83 35 64
        E 0 8b 45 64
        E 0 8f 45 65
        E 1 92 35 65
        E 1 93 36 67
        E 0 9b 46 67
        E 91 81 36 64
        E 0 82 35 65
        E 1 86 27 64
        E 0 8e 46 64
        E 1 91 36 64
        E 0 92 37 64
        E 1 9a 27 66
        E 0 9f 47 64
        E 94 80 36 65
        E 1 81 36 64
        E 1 8d 46 65
        E 0 90 36 65
        E 1 91 37 65
        E 0 9e 47 65
        E 93 80 36 65
        E 1 84 36 66
        E 0 8a 27 66
        E 1 8c 46 66
        E 0 90 38 64
        E 1 94 36 66
        E 1 97 28 64
        E 0 9d 48 63
        E 93 83 36 67
        E 0 84 36 66
        E 1 8b 46 67
        E 0 93 36 67
        E 1 94 38 65
        E 0 9c 48 64
        E 92 82 37 64
        E 0 83 36 67
        E 1 87 28 64
        E 1 8f 47 64
        E 0 92 37 64
        E 0 93 38 66
        E 1 95 29 63
        E 1 9b 48 65
        E 94 81 37 65
        E 1 82 37 64
        E 1 8e 47 65
        E 0 91 37 65
        E 1 92 38 67
        E 0 9a 29 64
        E 1 9f 49 64
        E 92 80 38 64
        E 0 81 37 65
        E 0 85 29 63
        E 1 8d 48 63
        E 1 90 38 64
        E 0 91 39 64
        E 2 98 29 65
        E 1 9e 48 64
        E 91 80 38 64
        E 1 84 38 65
        E 0 8c 48 64
        E 1 90 39 65
        E 1 94 38 65
        E 1 97 2a 64
        E 1 9d 49 66
        E 91 83 38 66
        E 1 84 38 65
        E 0 8a 29 64
        E 1 8b 48 65
        E 0 93 38 66
        E 0 94 3a 64
        E 1 96 2a 65
        E 0 9b 48 65
        E 0 9c 49 67
        E 91 82 38 67
        E 1 83 38 66
        E 0 88 29 65
        E 1 8b 48 65
        E 0 8f 49 64
        E 0 92 38 67
        E 0 93 3a 65
        E 1 95 2a 66
        E 0 9b 4a 64
        E 96 81 39 64
        E 0 82 38 67
        E 0 87 2a 64
        E 1 8e 48 64
        E 0 91 39 64
        E 0 92 3a 66
        E 0 9a 2a 67
        E 0 9f 4a 65
        E 93 80 39 65
        E 0 81 39 64
        E 0 86 2a 65
        E 0 8d 49 66
        E 1 90 3b 64
        E 0 91 3a 67
        E 0 98 2b 64
        E 0 9e 4b 64
        E 94 80 3b 64
        E 0 84 3a 64
        E 0 85 2a 66
        E 0 8c 49 67
        E 1 90 3b 64
        E 0 94 3a 64
        E 1 97 2b 65
        E 0 9d 4b 65
        E 94 83 3a 65
        E 1 84 3a 64
        E 0 8a 2a 67
        E 0 8b 4a 64
        E 0 93 3a 65
        E 1 94 3b 65
        E 0 96 2c 64
        E 0 9c 4b 66
        E 95 82 3a 66
        E 1 83 3a 65
        E 0 88 2b 64
        E 1 8f 4a 65
        E 0 92 3a 66
        E 0 93 3c 63
        E 1 95 2c 65
        E 0 9b 4b 67
        E 87 81 3a 67
        E 0 82 3a 66
        E 1 87 2b 65
        E 0 8e 4b 64
        E 0 91 3a 67
        E 0 92 3c 64
        E 0 9a 2c 66
        E 1 9f 4c 64
        E 89 80 3b 64
        E 1 81 3a 67
        E 0 86 2c 64
        E 0 8d 4b 65
        E 0 90 3b 64
        E 1 91 3c 65
        E 0 98 2c 67
        E 0 9e 4c 65
        E 87 80 3b 64
        E 0 84 3b 65
        E 0 85 2c 65
        E 0 8c 4b 66
        E 0 90 3d 64
        E 1 94 3b 65
        E 0 97 2d 64
        E 0 9d 4d 63
        E 89 83 3c 63
        E 0 84 3b 65
        E 0 8a 2c 66
        E 0 8b 4b 67
        E 1 8f 4c 64
        E 0 93 3c 63
        E 0 94 3d 65
        E 0 96 2d 65
        E 1 9c 4d 64
        E 87 82 3c 64
        E 0 83 3c 63
        E 0 88 2c 67
        E 0 8e 4c 65
        E 1 92 3c 64
        E 0 93 3d 66
        E 0 95 2e 64
        E 0 9b 4d 65
        E 90 81 3c 65
        E 0 82 3c 64
        E 0 87 2d 64
        E 1 8d 4d 63
        E 0 91 3c 65
        E 0 92 3d 67
        E 0 9a 2e 65
        E 1 9f 4e 64
        E 89 80 3d 64
        E 0 81 3c 65
        E 0 86 2d 65
        E 0 8c 4d 64
        E 0 90 3d 64
        E 0 91 3e 64
        E 1 98 2e 66
        E 0 9e 4e 65
        E 88 80 3d 64
        E 1 84 3d 65
        E 0 85 2e 64
        E 0 8b 4d 65
        E 1 90 3e 65
        E 0 94 3d 65
        E 1 97 2e 67
        E 0 9d 4e 66
        E 89 83 3d 66
        E 0 84 3d 65
        E 0 8f 4e 64
        E 1 93 3d 66
        E 0 94 3f 64
        E 0 96 2f 64
        E 0 9c 4e 67
        E 87 82 3d 67
        E 1 83 3d 66
        E 0 8a 2e 65
        E 0 8e 4e 65
        E 1 92 3d 67
        E 0 93 3f 65
        E 0 95 2f 65
        E 0 9b 4f 64
        E 88 81 3e 64
        E 0 82 3d 67
        E 0 88 2e 66
        E 1 8d 4e 66
        E 0 91 3e 64
        E 0 92 3f 66
        E 0 9a 30 63
        E 0 9f 4f 65
        E 88 80 3e 65
        E 0 81 3e 64
        E 0 87 2e 67
        E 1 8c 4e 67
        E 1 90 3e 65
        E 0 91 3f 67
        E 0 98 30 64
        E 1 9e 50 64
        E 87 80 3e 65
        E 0 84 3f 64
        E 1 86 2f 64
        E 0 8b 4f 64
        E 0 90 40 64
        E 1 94 3f 64
        E 0 97 30 65
        E 0 9d 50 65
        E 88 83 3f 65
        E 0 84 3f 64
        E 0 85 2f 65
        E 0 8f 4f 65
        E 1 93 3f 65
        E 0 94 40 65
        E 0 96 31 64
        E 0 9c 50 66
        E 92 82 3f 66
        E 0 83 3f 65
        E 0 8a 30 63
        E 1 8e 50 64
        E 0 92 3f 66
        E 0 93 41 63
        E 0 95 31 65
        E 0 9b 50 67
        E 87 81 3f 67
        E 0 82 3f 66
        E 1 88 30 64
        E 0 8d 50 65
        E 1 91 3f 67
        E 0 92 41 64
        E 0 9a 31 66
        E 1 9f 51 64
        E 88 80 40 64
        E 1 81 3f 67
        E 0 87 30 65
        E 0 8b 50 67
        E 1 8c 50 66
        E 0 90 40 64
        E 1 91 41 65
        E 0 98 31 67
        E 0 9e 51 65
        E 88 80 40 64
        E 0 84 40 65
        E 1 86 31 64
        E 0 8f 51 64
        E 0 90 42 64
        E 1 94 40 65
        E 0 97 32 64
        E 1 9d 52 64
        E 87 83 41 63
        E 0 84 40 65
        E 0 85 31 65
        E 1 8e 51 65
        E 0 93 41 63
        E 1 94 42 65
        E 0 96 32 65
        E 1 9c 52 65
        E 86 82 41 64
        E 0 83 41 63
        E 0 8a 31 66
        E 1 8d 52 64
        E 1 92 41 64
        E 0 93 42 66
        E 0 95 33 64
        E 1 9b 52 66
        E 86 81 41 65
        E 0 82 41 64
        E 0 88 31 67
        E 0 8c 52 65
        E 1 91 41 65
        E 0 92 42 67
        E 1 9a 33 65
        E 0 9f 52 67
        E 87 80 42 64
        E 0 81 41 65
        E 1 87 32 64
        E 0 8b 52 66
        E 1 90 42 64
        E 1 91 43 64
        E 0 98 33 66
        E 1 9e 53 64
        E 84 80 42 64
        E 1 84 42 65
        E 0 86 32 65
        E 1 8f 52 67
        E 0 90 43 65
        E 1 94 42 65
        E 0 97 33 67
        E 0 9d 53 65
        E 90 83 42 66
        E 0 84 42 65
        E 1 85 33 64
        E 1 93 42 66
        E 0 94 44 64
        E 0 96 34 64
        E 89 82 42 67
        E 0 83 42 66
        E 0 8a 33 65
        E 1 8d 53 65
        E 0 8e 53 64
        E 1 92 42 67
        E 0 93 44 65
        E 0 95 34 65
        E 1 9b 24 64
        E 0 9f 54 64
        E 87 81 43 64
        E 1 82 42 67
        E 0 88 33 66
        E 1 91 43 64
        E 0 92 44 66
        E 1 9a 35 63
        E 0 9e 54 65
        E 86 80 43 65
        E 0 81 43 64
        E 1 87 33 67
        E 0 8b 24 64
        E 1 8f 54 64
        E 0 90 43 65
        E 0 91 44 67
        E 1 98 35 64
        E 0 9d 25 64
        E 86 80 43 65
        E 0 84 44 64
        E 0 86 34 64
        E 1 8e 54 65
        E 0 90 45 64
        E 1 94 44 64
        E 0 97 35 65
        E 90 83 44 65
        E 1 84 44 64
        E 0 85 34 65
        E 1 8d 25 64
        E 0 93 44 65
        E 0 94 45 65
        E 0 96 36 64
        E 1 9b 25 66
        E 86 82 44 66
        E 0 83 44 65
        E 0 8a 35 63
        E 1 92 44 66
        E 0 93 46 64
        E 1 95 36 65
        E 0 9a 35 63
        E 89 81 44 67
        E 1 82 44 66
        E 0 88 35 64
        E 0 8a 35 63
        E 1 8b 25 66
        E 1 91 44 67
        E 0 92 46 65
        E 0 98 35 64
        E 1 9a 36 66
        E 0 9e 26 64
        E 86 80 45 64
        E 0 81 44 67
        E 1 87 35 65
        E 0 88 35 64
        E 1 90 45 64
        E 1 91 46 66
        E 0 97 35 65
        E 0 98 36 67
        E 88 80 45 64
        E 0 84 45 65
        E 0 86 36 64
        E 1 87 35 65
        E 0 8e 26 64
        E 1 90 46 67
        E 0 96 36 64
        E 1 97 37 64
        E 0 9c 27 64
        E 86 83 46 64
        E 1 85 36 65
        E 0 86 36 64
        E 1 94 47 64
        E 0 95 36 65
        E 0 96 37 65
        E 88 82 46 65
        E 0 85 36 65
        E 1 8a 36 66
        E 0 8c 27 64
        E 0 93 47 65
        E 1 95 38 64
        E 0 9a 36 66
        E 1 9f 27 66
        E 87 81 46 66
        E 1 88 36 67
        E 1 8a 36 66
        E 0 92 48 63
        E 0 98 36 67
        E 1 9a 38 65
        E 77 80 46 67
        E 0 87 37 64
        E 1 88 36 67
        E 0 8f 27 66
        E 0 91 48 64
        E 1 97 37 64
        E 0 98 38 66
        E 1 9d 28 64
        E 80 84 47 64
        E 0 86 37 65
        E 1 87 37 64
        E 1 90 48 65
        E 0 96 37 65
        E 1 97 38 67
        E 78 83 47 65
        E 0 85 38 64
        E 1 86 37 65
        E 0 8d 28 64
        E 0 94 49 64
        E 1 95 38 64
        E 1 96 39 64
        E 0 9b 29 63
        E 82 82 48 63
        E 0 85 38 64
        E 0 8a 38 65
        E 0 93 48 64
        E 0 95 39 65
        E 1 9a 38 65
        E 0 9f 29 64
        E 82 81 48 64
        E 0 88 38 66
        E 0 8a 38 65
        E 0 8b 29 63
        E 0 92 49 66
        E 0 98 38 66
        E 1 9a 3a 64
        E 0 9e 29 65
        E 80 80 48 65
        E 0 87 38 67
        E 0 88 38 66
        E 0 90 48 65
        E 1 91 49 67
        E 0 97 38 67
        E 0 98 3a 65
        E 1 9d 2a 64
        E 78 80 48 65
        E 1 84 49 64
        E 0 86 39 64
        E 1 87 38 67
        E 0 8f 29 64
        E 0 90 4a 64
        E 0 96 39 64
        E 0 97 3a 66
        E 1 9c 2a 65
        E 79 83 48 64
        E 0 85 39 65
        E 0 86 39 64
        E 0 8e 29 65
        E 1 94 4a 65
        E 0 95 3b 64
        E 0 96 3a 67
        E 0 9b 2a 66
        E 82 82 49 66
        E 1 85 3b 64
        E 0 8a 3a 64
        E 0 8d 2a 64
        E 1 93 4b 64
        E 0 95 3b 64
        E 0 9a 3a 64
        E 0 9f 2a 67
        E 82 81 49 67
        E 0 88 3a 65
        E 1 8a 3a 64
        E 1 8c 2a 65
        E 0 92 4b 65
        E 1 98 3a 65
        E 0 9a 3b 65
        E 0 9e 2b 64
        E 78 80 4a 64
        E 1 87 3a 66
        E 0 88 3a 65
        E 1 8b 2a 66
        E 0 91 4b 66
        E 1 97 3a 66
        E 0 98 3c 63
        E 0 9d 2b 65
        E 81 84 4a 65
        E 0 86 3a 67
        E 1 87 3a 66
        E 0 8f 2a 67
        E 0 90 4b 67
        E 0 96 3a 67
        E 0 97 3c 64
        E 1 9c 2c 64
        E 81 83 4b 64
        E 0 85 3b 64
        E 0 86 3a 67
        E 0 8e 2b 64
        E 1 94 4c 64
        E 0 95 3b 64
        E 0 96 3c 65
        E 1 9b 2c 65
        E 78 82 4b 65
        E 0 85 3b 64
        E 1 8a 3b 65
        E 0 8d 2b 65
        E 0 93 4c 65
        E 1 95 3d 64
        E 0 9a 3b 65
        E 1 9f 2c 66
        E 81 81 4b 66
        E 1 88 3c 63
        E 0 8a 3b 65
        E 1 8c 2c 64
        E 0 92 4d 63
        E 0 98 3c 63
        E 0 9a 3d 65
        E 1 9e 2c 67
        E 77 80 4b 67
        E 0 84 4c 64
        E 0 87 3c 64
        E 1 88 3c 63
        E 0 8b 2c 65
        E 0 91 4d 64
        E 1 97 3c 64
        E 0 98 3d 66
        E 0 9d 2d 64
        E 82 83 4c 65
        E 0 86 3c 65
        E 0 87 3c 64
        E 0 8f 2c 66
        E 0 90 4d 65
        E 1 96 3c 65
        E 0 97 3d 67
        E 0 9c 2d 65
        E 81 82 4d 63
        E 0 85 3d 64
        E 1 86 3c 65
        E 0 8e 2c 67
        E 0 94 4e 64
        E 0 95 3d 64
        E 1 96 3e 64
        E 0 9b 2e 64
        E 80 81 4d 64
        E 0 85 3d 64
        E 0 8a 3d 65
        E 1 8d 2d 64
        E 0 93 4e 65
        E 0 95 3e 65
        E 0 9a 3d 65
        E 1 9f 2e 65
        E 82 80 4d 65
        E 0 88 3d 66
        E 0 8a 3d 65
        E 0 8c 2d 65
        E 1 92 4e 66
        E 0 98 3d 66
        E 0 9a 3f 64
        E 1 9e 2e 66
        E 78 84 4e 64
        E 0 87 3d 67
        E 1 88 3d 66
        E 0 8b 2e 64
        E 1 91 4e 67
        E 0 97 3d 67
        E 0 98 3f 65
        E 1 9d 2e 67
        E 81 83 4e 65
        E 1 86 3e 64
        E 0 87 3d 67
        E 1 90 4f 64
        E 0 96 3e 64
        E 0 97 3f 66
        E 1 9c 2f 64
        E 80 82 4e 66
        E 0 85 3e 65
        E 0 86 3e 64
        E 0 8f 2e 65
        E 0 94 4f 65
        E 0 95 3e 65
        E 0 96 3f 67
        E 0 9b 2f 65
        E 80 81 4e 67
        E 1 85 3e 65
        E 0 8a 3f 64
        E 1 8e 2e 66
        E 0 93 50 64
        E 1 95 40 64
        E 0 9a 3f 64
        E 1 9f 30 63
        E 79 80 4f 64
        E 0 88 3f 65
        E 1 8a 3f 64
        E 0 8d 2e 67
        E 1 92 50 65
        E 0 98 3f 65
        E 1 9a 40 65
        E 0 9e 30 64
        E 80 84 4f 65
        E 0 87 3f 66
        E 1 88 3f 65
        E 0 8c 2f 64
        E 1 91 50 66
        E 0 97 3f 66
        E 0 98 41 63
        E 1 9d 30 65
        E 78 83 50 64
        E 0 86 3f 67
        E 1 87 3f 66
        E 1 8b 2f 65
        E 0 90 50 67
        E 1 96 3f 67
        E 0 97 41 64
        E 0 9c 31 64
        E 78 82 50 65
        E 0 85 40 64
        E 0 86 3f 67
        E 1 8f 30 63
        E 0 94 51 64
        E 1 95 40 64
        E 0 96 41 65
        E 0 9b 31 65
        E 83 80 50 67
        E 1 81 50 66
        E 0 85 40 64
        E 1 8a 40 65
        E 0 8e 30 64
        E 1 93 51 65
        E 0 95 42 64
        E 0 9a 40 65
        E 1 9f 31 66
        E 78 84 51 64
        E 0 88 41 63
        E 1 8a 40 65
        E 0 8d 30 65
        E 1 92 52 64
        E 0 98 41 63
        E 1 9a 42 65
        E 0 9e 31 67
        E 79 83 51 65
        E 0 87 41 64
        E 0 88 41 63
        E 1 8c 31 64
        E 1 91 52 65
        E 0 97 41 64
        E 0 98 42 66
        E 1 9d 32 64
        E 81 82 52 64
        E 0 86 41 65
        E 1 87 41 64
        E 1 8b 31 65
        E 0 90 52 66
        E 1 96 41 65
        E 0 97 42 67
        E 0 9c 32 65
        E 78 81 52 65
        E 0 85 42 64
        E 1 86 41 65
        E 0 8f 31 66
        E 0 94 52 67
        E 1 95 42 64
        E 0 96 43 64
        E 1 9b 33 64
        E 79 80 52 66
        E 1 85 42 64
        E 0 8a 42 65
        E 1 8e 31 67
        E 1 93 53 64
        E 0 95 43 65
        E 0 9a 42 65
        E 1 9f 33 65
        E 78 84 52 67
        E 0 88 42 66
        E 0 8a 42 65
        E 1 8d 32 64
        E 0 92 53 65
        E 1 98 42 66
        E 0 9a 44 64
        E 0 9e 33 66
        E 80 87 42 67
        E 0 88 42 66
        E 0 8c 32 65
        E 1 97 42 67
        E 0 98 44 65
        E 1 9d 33 67
        E 82 82 53 65
        E 0 83 53 64
        E 1 85 43 65
        E 0 86 43 64
        E 1 87 42 67
        E 0 88 44 65
        E 1 8a 44 64
        E 0 8b 33 64
        E 1 8d 33 67
        E 0 8e 33 66
        E 1 8f 33 65
        E 0 90 24 64
        E 0 94 54 64
        E 1 95 43 65
        E 0 96 43 64
        E 0 97 44 66
        E 0 98 44 65
        E 0 9a 44 64
        E 1 9b 33 64
        E 0 9c 32 65
        E 0 9e 33 66
        E 0 9f 33 65
        E 63 86 43 64
        E 1 8c 32 65
        E 0 93 54 65
        E 0 96 44 67
        E 0 9d 33 67
        E 71 80 24 64
        E 0 84 54 64
        E 0 85 43 65
        E 0 8b 33 64
        E 0 8d 33 67
        E 0 8e 33 66
        E 1 8f 33 65
        E 0 92 25 64
        E 0 95 45 64
        E 1 9b 34 65
        E 0 9c 34 64
        E 0 9d 33 67
        E 1 9f 35 63
        E 71 83 54 65
        E 0 8a 44 64
        E 1 8d 33 67
        E 1 9a 45 65
        E 0 9e 35 64
        E 67 82 25 64
        E 0 87 44 66
        E 0 88 44 65
        E 1 8c 34 64
        E 0 90 25 66
        E 0 97 44 66
        E 1 98 46 64
        E 0 9d 35 65
        E 73 86 44 67
        E 0 87 44 66
        E 0 8b 34 65
        E 1 96 44 67
        E 0 97 46 65
        E 0 9c 36 64
        E 70 80 25 66
        E 0 85 45 64
        E 1 86 44 67
        E 0 8f 35 63
        E 0 93 26 64
        E 1 95 45 64
        E 0 96 46 66
        E 0 9b 36 65
        E 0 9f 35 63
        E 72 85 45 64
        E 0 8a 45 65
        E 1 8e 35 64
        E 0 8f 35 63
        E 0 95 46 67
        E 1 9e 35 64
        E 0 9f 36 66
        E 68 83 26 64
        E 1 88 46 64
        E 0 8d 35 65
        E 0 8e 35 64
        E 1 91 27 64
        E 0 9a 47 64
        E 1 9d 35 65
        E 0 9e 36 67
        E 67 87 46 65
        E 0 8c 36 64
        E 1 8d 35 65
        E 0 98 47 65
        E 0 9c 36 64
        E 0 9d 37 64
        E 73 81 27 64
        E 0 86 46 66
        E 0 8b 36 65
        E 0 8c 36 64
        E 1 94 27 66
        E 1 97 48 63
        E 0 9b 36 65
        E 0 9c 37 65
        E 72 85 46 67
        E 1 8b 36 65
        E 0 8f 36 66
        E 0 96 48 64
        E 1 9b 38 64
        E 0 9f 36 66
        E 68 84 27 66
        E 0 8a 47 64
        E 0 8e 36 67
        E 1 8f 36 66
        E 0 92 28 64
        E 0 95 48 65
        E 1 9e 36 67
        E 0 9f 38 65
        E 71 88 47 65
        E 0 8d 37 64
        E 0 8e 36 67
        E 1 9a 49 64
        E 0 9d 37 64
        E 0 9e 38 66
        E 69 82 28 64
        E 0 87 48 63
        E 0 8c 37 65
        E 1 8d 37 64
        E 0 90 29 63
        E 0 98 48 64
        E 1 9c 37 65
        E 0 9d 38 67
        E 71 86 48 64
        E 0 8b 38 64
        E 0 8c 37 65
        E 1 94 29 64
        E 0 97 49 66
        E 0 9b 38 64
        E 1 9c 39 64
        E 70 80 29 63
        E 1 85 48 65
        E 0 8b 38 64
        E 0 8f 38 65
        E 1 93 29 65
        E 0 95 48 65
        E 1 96 49 67
        E 0 9b 39 65
        E 0 9f 38 65
        E 69 85 48 65
        E 0 8a 49 64
        E 1 8e 38 66
        E 0 8f 38 65
        E 1 92 2a 64
        E 0 95 4a 64
        E 1 9e 38 66
        E 0 9f 3a 64
        E 66 84 29 64
        E 1 88 48 64
        E 0 8d 38 67
        E 1 8e 38 66
        E 0 91 2a 65
        E 0 9a 4a 65
        E 0 9d 38 67
        E 1 9e 3a 65
        E 72 83 29 65
        E 0 87 49 66
        E 1 8c 39 64
        E 0 8d 38 67
        E 1 90 2a 66
        E 0 98 4b 64
        E 0 9c 39 64
        E 1 9d 3a 66
        E 69 82 2a 64
        E 1 86 49 67
        E 0 8b 39 65
        E 0 8c 39 64
        E 0 94 2a 67
        E 1 97 4b 65
        E 0 9b 3b 64
        E 0 9c 3a 67
        E 69 81 2a 65
        E 0 85 4a 64
        E 0 8b 3b 64
        E 1 8f 3a 64
        E 0 93 2b 64
        E 0 96 4b 66
        E 0 9b 3b 64
        E 1 9f 3a 64
        E 70 80 2a 66
        E 0 8a 4a 65
        E 0 8e 3a 65
        E 0 8f 3a 64
        E 1 92 2b 65
        E 0 95 4b 67
        E 1 9e 3a 65
        E 0 9f 3b 65
        E 72 84 2a 67
        E 0 88 4b 64
        E 1 8d 3a 66
        E 0 8e 3a 65
        E 0 91 2c 64
        E 0 9a 4c 64
        E 0 9d 3a 66
        E 0 9e 3c 63
        E 70 83 2b 64
        E 0 87 4b 65
        E 1 8c 3a 67
        E 0 8d 3a 66
        E 0 90 2c 65
        E 0 98 4c 65
        E 1 9c 3a 67
        E 0 9d 3c 64
        E 70 82 2b 65
        E 1 86 4b 66
        E 0 8b 3b 64
        E 0 8c 3a 67
        E 1 94 2c 66
        E 0 97 4d 63
        E 1 9b 3b 64
        E 0 9c 3c 65
        E 69 81 2c 64
        E 0 85 4b 67
        E 1 8a 4c 64
        E 0 8b 3b 64
        E 0 8f 3b 65
        E 1 93 2c 67
        E 0 96 4d 64
        E 0 9b 3d 64
        E 1 9f 3b 65
        E 70 80 2c 65
        E 0 88 4c 65
        E 1 8e 3c 63
        E 0 8f 3b 65
        E 0 92 2d 64
        E 1 95 4d 65
        E 1 9e 3c 63
        E 0 9f 3d 65
        E 68 84 2c 66
        E 0 87 4d 63
        E 0 8d 3c 64
        E 1 8e 3c 63
        E 0 91 2d 65
        E 0 9a 4e 64
        E 1 9d 3c 64
        E 0 9e 3d 66
        E 69 83 2c 67
        E 1 86 4d 64
        E 0 8c 3c 65
        E 0 8d 3c 64
        E 1 90 2e 64
        E 0 98 4e 65
        E 0 9c 3c 65
        E 1 9d 3d 67
        E 68 82 2d 64
        E 0 85 4d 65
        E 1 8b 3d 64
        E 0 8c 3c 65
        E 1 94 2e 65
        E 0 97 4e 66
        E 0 9b 3d 64
        E 1 9c 3e 64
        E 73 81 2d 65
        E 0 8a 4e 64
        E 1 8b 3d 64
        E 0 8f 3d 65
        E 1 93 2e 66
        E 2 96 4e 67
        E 0 9b 3e 65
        E 0 9f 3d 65
        E 64 80 2e 64
        E 0 88 4e 65
        E 0 8e 3d 66
        E 0 8f 3d 65
        E 1 92 2e 67
        E 0 95 4f 64
        E 1 9e 3d 66
        E 0 9f 3f 64
        E 70 87 4e 66
        E 1 8d 3d 67
        E 0 8e 3d 66
        E 1 91 2f 64
        E 0 9a 4f 65
        E 0 9d 3d 67
        E 1 9e 3f 65
        E 70 84 2e 65
        E 0 86 4e 67
        E 0 8c 3e 64
        E 1 8d 3d 67
        E 0 90 2f 65
        E 0 98 50 64
        E 0 9c 3e 64
        E 1 9d 3f 66
        E 70 83 2e 66
        E 0 85 4f 64
        E 1 8b 3e 65
        E 0 8c 3e 64
        E 1 94 30 63
        E 0 97 50 65
        E 0 9b 3e 65
        E 1 9c 3f 67
        E 68 82 2e 67
        E 0 8a 4f 65
        E 1 8b 3e 65
        E 0 8f 3f 64
        E 1 93 30 64
        E 0 96 50 66
        E 2 9b 40 64
        E 1 9f 3f 64
        E 70 81 2f 64
        E 0 88 50 64
        E 0 8e 3f 65
        E 1 8f 3f 64
        E 0 92 30 65
        E 0 95 50 67
        E 1 9e 3f 65
        E 0 9f 40 65
        E 66 80 2f 65
        E 0 87 50 65
        E 0 8d 3f 66
        E 0 8e 3f 65
        E 1 91 31 64
        E 0 9a 51 64
        E 0 9d 3f 66
        E 0 9e 41 63
        E 73 84 30 63
        E 0 85 50 67
        E 1 86 50 66
        E 0 8c 3f 67
        E 0 8d 3f 66
        E 1 90 31 65
        E 0 98 51 65
        E 0 9c 3f 67
        E 1 9d 41 64
        E 70 83 30 64
        E 0 8a 51 64
        E 1 8b 40 64
        E 0 8c 3f 67
        E 0 94 31 66
        E 0 97 52 64
        E 1 9b 40 64
        E 0 9c 41 65
        E 69 82 30 65
        E 0 88 51 65
        E 0 8b 40 64
        E 1 8f 40 65
        E 0 93 31 67
        E 1 96 52 65
        E 0 9b 42 64
        E 0 9f 40 65
        E 70 81 31 64
        E 0 87 52 64
        E 0 8e 41 63
        E 1 8f 40 65
        E 0 92 32 64
        E 0 95 52 66
        E 1 9e 41 63
        E 0 9f 42 65
        E 71 80 31 65
        E 0 86 52 65
        E 0 8d 41 64
        E 1 8e 41 63
        E 0 91 32 65
        E 0 9a 52 67
        E 0 9d 41 64
        E 1 9e 42 66
        E 69 84 31 66
        E 0 85 52 66
        E 0 8c 41 65
        E 0 8d 41 64
        E 0 90 33 64
        E 1 98 53 64
        E 0 9c 41 65
        E 0 9d 42 67
        E 74 83 31 67
        E 0 8a 52 67
        E 1 8b 42 64
        E 0 8c 41 65
        E 0 94 33 65
        E 1 97 53 65
        E 0 9b 42 64
        E 0 9c 43 64
        E 68 82 32 64
        E 0 8b 42 64
        E 0 8f 42 65
        E 1 93 33 66
        E 0 9b 43 65
        E 0 9f 42 65
        E 73 81 32 65
        E 0 87 53 65
        E 1 88 53 64
        E 0 8e 42 66
        E 1 8f 42 65
        E 1 92 33 67
        E 0 95 24 64
        E 1 9a 54 64
        E 0 9e 42 66
        E 0 9f 44 64
        E 65 80 33 64
        E 0 8d 42 67
        E 1 8e 42 66
        E 0 91 34 64
        E 1 98 54 65
        E 0 9d 42 67
        E 0 9e 44 65
        E 71 84 33 65
        E 0 85 24 64
        E 1 8a 54 64
        E 0 8c 43 64
        E 0 8d 42 67
        E 0 90 34 65
        E 1 97 25 64
        E 0 9c 43 64
        E 0 9d 44 66
        E 62 83 33 66
        E 0 88 54 65
        E 0 8b 43 65
        E 1 8c 43 64
        E 1 94 35 63
        E 0 9b 43 65
        E 0 9c 44 67
        E 62 82 33 67
        E 0 87 25 64
        E 1 8b 43 65
        E 0 8f 44 64
        E 0 93 35 64
        E 1 95 25 66
        E 0 9b 45 64
        E 1 9f 44 64
        E 61 81 34 64
        E 0 8e 44 65
        E 1 8f 44 64
        E 0 92 35 65
        E 1 9e 44 65
        E 0 9f 45 65
        E 62 80 34 65
        E 1 85 25 66
        E 0 8d 44 66
        E 1 8e 44 65
        E 0 91 36 64
        E 0 98 26 64
        E 1 9d 44 66
        E 0 9e 46 64
        E 62 84 35 63
        E 0 8c 44 67
        E 0 8d 44 66
        E 1 90 36 65
        E 0 94 35 63
        E 0 9c 44 67
        E 1 9d 46 65
        E 60 83 35 64
        E 1 84 35 63
        E 0 88 26 64
        E 1 8b 45 64
        E 0 8c 44 67
        E 1 93 35 64
        E 0 94 36 66
        E 1 96 27 64
        E 0 9b 45 64
        E 0 9c 46 66
        E 62 82 35 65
        E 0 83 35 64
        E 0 8b 45 64
        E 1 8f 45 65
        E 0 92 35 65
        E 1 93 36 67
        E 0 9b 46 67
        E 60 81 36 64
        E 0 82 35 65
        E 0 86 27 64
        E 1 8e 46 64
        E 0 91 36 64
        E 1 92 37 64
        E 0 9a 27 66
        E 1 9f 47 64
        E 64 80 36 65
        E 0 81 36 64
        E 0 8d 46 65
        E 1 90 36 65
        E 0 91 37 65
        E 0 9e 47 65
        E 60 80 36 65
        E 1 84 36 66
        E 0 8a 27 66
        E 1 8c 46 66
        E 0 90 38 64
        E 1 94 36 66
        E 0 97 28 64
        E 0 9d 48 63
        E 60 83 36 67
        E 0 84 36 66
        E 1 8b 46 67
        E 0 93 36 67
        E 1 94 38 65
        E 0 9c 48 64
        E 63 82 37 64
        E 1 83 36 67
        E 0 87 28 64
        E 1 8f 47 64
        E 1 92 37 64
        E 0 93 38 66
        E 0 95 29 63
        E 0 9b 48 65
        E 62 81 37 65
        E 0 82 37 64
        E 1 8e 47 65
        E 0 91 37 65
        E 0 92 38 67
        E 1 9a 29 64
        E 0 9f 49 64
        E 61 80 38 64
        E 0 81 37 65
        E 1 85 29 63
        E 0 8d 48 63
        E 1 90 38 64
        E 0 91 39 64
        E 1 98 29 65
        E 0 9e 48 64
        E 65 80 38 64
        E 0 84 38 65
        E 0 8c 48 64
        E 1 90 39 65
        E 0 94 38 65
        E 1 97 2a 64
        E 0 9d 49 66
        E 60 83 38 66
        E 0 84 38 65
        E 1 8a 29 64
        E 0 8b 48 65
        E 0 93 38 66
        E 1 94 3a 64
        E 0 96 2a 65
        E 0 9b 48 65
        E 1 9c 49 67
        E 59 82 38 67
        E 0 83 38 66
        E 1 88 29 65
        E 0 8b 48 65
        E 1 8f 49 64
        E 0 92 38 67
        E 1 93 3a 65
        E 0 95 2a 66
        E 0 9b 4a 64
        E 64 81 39 64
        E 0 82 38 67
        E 1 87 2a 64
        E 0 8e 48 64
        E 0 91 39 64
        E 1 92 3a 66
        E 0 9a 2a 67
        E 0 9f 4a 65
        E 58 80 39 65
        E 1 81 39 64
        E 0 86 2a 65
        E 1 8d 49 66
        E 0 90 3b 64
        E 1 91 3a 67
        E 0 98 2b 64
        E 0 9e 4b 64
        E 61 80 3b 64
        E 0 84 3a 64
        E 1 85 2a 66
        E 0 8c 49 67
        E 1 90 3b 64
        E 0 94 3a 64
        E 0 97 2b 65
        E 1 9d 4b 65
        E 64 83 3a 65
        E 0 84 3a 64
        E 1 8a 2a 67
        E 0 8b 4a 64
        E 1 93 3a 65
        E 0 94 3b 65
        E 1 96 2c 64
        E 0 9c 4b 66
        E 58 82 3a 66
        E 1 83 3a 65
        E 0 88 2b 64
        E 1 8f 4a 65
        E 0 92 3a 66
        E 0 93 3c 63
        E 1 95 2c 65
        E 0 9b 4b 67
        E 61 81 3a 67
        E 0 82 3a 66
        E 0 87 2b 65
        E 1 8e 4b 64
        E 0 91 3a 67
        E 1 92 3c 64
        E 2 9a 2c 66
        E 0 9f 4c 64
        E 63 80 3b 64
        E 0 81 3a 67
        E 1 86 2c 64
        E 0 8d 4b 65
        E 1 90 3b 64
        E 0 91 3c 65
        E 1 98 2c 67
        E 0 9e 4c 65
        E 61 80 3b 64
        E 1 84 3b 65
        E 0 85 2c 65
        E 1 8c 4b 66
        E 0 90 3d 64
        E 0 94 3b 65
        E 1 97 2d 64
        E 0 9d 4d 63
        E 60 83 3c 63
        E 0 84 3b 65
        E 0 8a 2c 66
        E 1 8b 4b 67
        E 0 8f 4c 64
        E 0 93 3c 63
        E 1 94 3d 65
        E 0 96 2d 65
        E 0 9c 4d 64
        E 60 82 3c 64
        E 1 83 3c 63
        E 0 88 2c 67
        E 0 8e 4c 65
        E 1 92 3c 64
        E 0 93 3d 66
        E 1 95 2e 64
        E 0 9b 4d 65
        E 61 81 3c 65
        E 0 82 3c 64
        E 0 87 2d 64
        E 1 8d 4d 63
        E 0 91 3c 65
        E 0 92 3d 67
        E 0 9a 2e 65
        E 0 9f 4e 64
        E 64 80 3d 64
        E 0 81 3c 65
        E 1 86 2d 65
        E 0 8c 4d 64
        E 1 90 3d 64
        E 0 91 3e 64
        E 0 98 2e 66
        E 0 9e 4e 65
        E 65 80 3d 64
        E 0 84 3d 65
        E 0 85 2e 64
        E 1 8b 4d 65
        E 0 90 3e 65
        E 0 94 3d 65
        E 1 97 2e 67
        E 0 9d 4e 66
        E 62 83 3d 66
        E 0 84 3d 65
        E 0 8f 4e 64
        E 0 93 3d 66
        E 1 94 3f 64
        E 0 96 2f 64
        E 0 9c 4e 67
        E 60 82 3d 67
        E 0 83 3d 66
        E 0 8a 2e 65
        E 0 8e 4e 65
        E 1 92 3d 67
        E 0 93 3f 65
        E 1 95 2f 65
        E 0 9b 4f 64
        E 63 81 3e 64
        E 1 82 3d 67
        E 0 88 2e 66
        E 0 8d 4e 66
        E 1 91 3e 64
        E 0 92 3f 66
        E 0 9a 30 63
        E 1 9f 4f 65
        E 60 80 3e 65
        E 0 81 3e 64
        E 1 87 2e 67
        E 0 8c 4e 67
        E 0 90 3e 65
        E 1 91 3f 67
        E 0 98 30 64
        E 0 9e 50 64
        E 62 80 3e 65
        E 0 84 3f 64
        E 0 86 2f 64
        E 1 8b 4f 64
        E 0 90 40 64
        E 0 94 3f 64
        E 1 97 30 65
        E 0 9d 50 65
        E 63 83 3f 65
        E 0 84 3f 64
        E 0 85 2f 65
        E 1 8f 4f 65
        E 0 93 3f 65
        E 0 94 40 65
        E 0 96 31 64
        E 1 9c 50 66
        E 61 82 3f 66
        E 1 83 3f 65
        E 0 8a 30 63
        E 0 8e 50 64
        E 1 92 3f 66
        E 0 93 41 63
        E 0 95 31 65
        E 1 9b 50 67
        E 60 81 3f 67
        E 1 82 3f 66
        E 0 88 30 64
        E 0 8d 50 65
        E 1 91 3f 67
        E 0 92 41 64
        E 0 9a 31 66
        E 0 9f 51 64
        E 64 80 40 64
        E 0 81 3f 67
        E 1 87 30 65
        E 0 8b 50 67
        E 2 8c 50 66
        E 1 90 40 64
        E 0 91 41 65
        E 0 98 31 67
        E 1 9e 51 65
        E 59 80 40 64
        E 1 84 40 65
        E 0 86 31 64
        E 0 8f 51 64
        E 1 90 42 64
        E 0 94 40 65
        E 0 97 32 64
        E 0 9d 52 64
        E 60 83 41 63
        E 0 84 40 65
        E 1 85 31 65
        E 0 8e 51 65
        E 1 93 41 63
        E 0 94 42 65
        E 1 96 32 65
        E 0 9c 52 65
        E 63 82 41 64
        E 1 83 41 63
        E 0 8a 31 66
        E 0 8d 52 64
        E 0 92 41 64
        E 0 93 42 66
        E 1 95 33 64
        E 0 9b 52 66
        E 61 81 41 65
        E 0 82 41 64
        E 0 88 31 67
        E 1 8c 52 65
        E 0 91 41 65
        E 0 92 42 67
        E 1 9a 33 65
        E 0 9f 52 67
        E 62 80 42 64
        E 0 81 41 65
        E 1 87 32 64
        E 0 8b 52 66
        E 1 90 42 64
        E 0 91 43 64
        E 1 98 33 66
        E 0 9e 53 64
        E 62 80 42 64
        E 0 84 42 65
        E 1 86 32 65
        E 0 8f 52 67
        E 0 90 43 65
        E 1 94 42 65
        E 0 97 33 67
        E 0 9d 53 65
        E 63 83 42 66
        E 0 84 42 65
        E 1 85 33 64
        E 0 93 42 66
        E 0 94 44 64
        E 1 96 34 64
        E 58 82 42 67
        E 1 83 42 66
        E 0 8a 33 65
        E 1 8d 53 65
        E 0 8e 53 64
        E 1 92 42 67
        E 0 93 44 65
        E 0 95 34 65
        E 1 9b 24 64
        E 0 9f 54 64
        E 63 81 43 64
        E 1 82 42 67
        E 0 88 33 66
        E 0 91 43 64
        E 1 92 44 66
        E 0 9a 35 63
        E 0 9e 54 65
        E 61 80 43 65
        E 0 81 43 64
        E 1 87 33 67
        E 0 8b 24 64
        E 1 8f 54 64
        E 0 90 43 65
        E 0 91 44 67
        E 1 98 35 64
        E 0 9d 25 64
        E 61 80 43 65
        E 0 84 44 64
        E 0 86 34 64
        E 0 8e 54 65
        E 1 90 45 64
        E 0 94 44 64
        E 0 97 35 65
        E 62 83 44 65
        E 0 84 44 64
        E 1 85 34 65
        E 0 8d 25 64
        E 0 93 44 65
        E 1 94 45 65
        E 0 96 36 64
        E 0 9b 25 66
        E 64 82 44 66
        E 0 83 44 65
        E 1 8a 35 63
        E 0 92 44 66
        E 0 93 46 64
        E 1 95 36 65
        E 0 9a 35 63
        E 61 81 44 67
        E 0 82 44 66
        E 0 88 35 64
        E 0 8a 35 63
        E 0 8b 25 66
        E 0 91 44 67
        E 1 92 46 65
        E 0 98 35 64
        E 0 9a 36 66
        E 1 9e 26 64
        E 64 80 45 64
        E 0 81 44 67
        E 0 87 35 65
        E 0 88 35 64
        E 1 90 45 64
        E 0 91 46 66
        E 0 97 35 65
        E 1 98 36 67
        E 63 80 45 64
        E 0 84 45 65
        E 1 86 36 64
        E 1 87 35 65
        E 0 8e 26 64
        E 0 90 46 67
        E 0 96 36 64
        E 0 97 37 64
        E 0 9c 27 64
        E 55 83 46 64
        E 0 85 36 65
        E 1 86 36 64
        E 0 94 47 64
        E 1 95 36 65
        E 0 96 37 65
        E 54 82 46 65
        E 0 85 36 65
        E 1 8a 36 66
        E 0 8c 27 64
        E 1 93 47 65
        E 0 95 38 64
        E 1 9a 36 66
        E 0 9f 27 66
        E 54 81 46 66
        E 0 88 36 67
        E 0 8a 36 66
        E 1 92 48 63
        E 0 98 36 67
        E 0 9a 38 65
        E 57 80 46 67
        E 0 87 37 64
        E 0 88 36 67
        E 1 8f 27 66
        E 0 91 48 64
        E 1 97 37 64
        E 0 98 38 66
        E 1 9d 28 64
        E 56 84 47 64
        E 0 86 37 65
        E 0 87 37 64
        E 1 90 48 65
        E 0 96 37 65
        E 0 97 38 67
        E 56 83 47 65
        E 1 85 38 64
        E 0 86 37 65
        E 1 8d 28 64
        E 0 94 49 64
        E 1 95 38 64
        E 0 96 39 64
        E 0 9b 29 63
        E 54 82 48 63
        E 1 85 38 64
        E 0 8a 38 65
        E 0 93 48 64
        E 0 95 39 65
        E 1 9a 38 65
        E 0 9f 29 64
        E 55 81 48 64
        E 1 88 38 66
        E 0 8a 38 65
        E 0 8b 29 63
        E 1 92 49 66
        E 0 98 38 66
        E 0 9a 3a 64
        E 1 9e 29 65
        E 54 80 48 65
        E 1 87 38 67
        E 0 88 38 66
        E 0 90 48 65
        E 0 91 49 67
        E 1 97 38 67
        E 0 98 3a 65
        E 0 9d 2a 64
        E 57 80 48 65
        E 0 84 49 64
        E 1 86 39 64
        E 0 87 38 67
        E 0 8f 29 64
        E 1 90 4a 64
        E 0 96 39 64
        E 1 97 3a 66
        E 0 9c 2a 65
        E 54 83 48 64
        E 0 85 39 65
        E 1 86 39 64
        E 0 8e 29 65
        E 1 94 4a 65
        E 0 95 3b 64
        E 1 96 3a 67
        E 0 9b 2a 66
        E 57 82 49 66
        E 0 85 3b 64
        E 1 8a 3a 64
        E 0 8d 2a 64
        E 0 93 4b 64
        E 1 95 3b 64
        E 0 9a 3a 64
        E 0 9f 2a 67
        E 54 81 49 67
        E 0 88 3a 65
        E 0 8a 3a 64
        E 0 8c 2a 65
        E 1 92 4b 65
        E 0 98 3a 65
        E 1 9a 3b 65
        E 0 9e 2b 64
        E 55 80 4a 64
        E 0 87 3a 66
        E 0 88 3a 65
        E 1 8b 2a 66
        E 0 91 4b 66
        E 0 97 3a 66
        E 1 98 3c 63
        E 0 9d 2b 65
        E 55 84 4a 65
        E 1 86 3a 67
        E 0 87 3a 66
        E 1 8f 2a 67
        E 0 90 4b 67
        E 0 96 3a 67
        E 1 97 3c 64
        E 0 9c 2c 64
        E 54 83 4b 64
        E 1 85 3b 64
        E 0 86 3a 67
        E 1 8e 2b 64
        E 0 94 4c 64
        E 1 95 3b 64
        E 0 96 3c 65
        E 0 9b 2c 65
        E 54 82 4b 65
        E 1 85 3b 64
        E 0 8a 3b 65
        E 1 8d 2b 65
        E 0 93 4c 65
        E 0 95 3d 64
        E 1 9a 3b 65
        E 0 9f 2c 66
        E 58 81 4b 66
        E 0 88 3c 63
        E 1 8a 3b 65
        E 0 8c 2c 64
        E 1 92 4d 63
        E 0 98 3c 63
        E 0 9a 3d 65
        E 1 9e 2c 67
        E 55 80 4b 67
        E 0 84 4c 64
        E 0 87 3c 64
        E 1 88 3c 63
        E 0 8b 2c 65
        E 0 91 4d 64
        E 1 97 3c 64
        E 0 98 3d 66
        E 0 9d 2d 64
        E 53 83 4c 65
        E 1 86 3c 65
        E 0 87 3c 64
        E 1 8f 2c 66
        E 0 90 4d 65
        E 0 96 3c 65
        E 1 97 3d 67
        E 0 9c 2d 65
        E 56 82 4d 63
        E 0 85 3d 64
        E 0 86 3c 65
        E 1 8e 2c 67
        E 0 94 4e 64
        E 1 95 3d 64
        E 0 96 3e 64
        E 0 9b 2e 64
        E 55 81 4d 64
        E 0 85 3d 64
        E 0 8a 3d 65
        E 1 8d 2d 64
        E 0 93 4e 65
        E 1 95 3e 65
        E 0 9a 3d 65
        E 0 9f 2e 65
        E 55 80 4d 65
        E 1 88 3d 66
        E 0 8a 3d 65
        E 1 8c 2d 65
        E 0 92 4e 66
        E 1 98 3d 66
        E 1 9a 3f 64
        E 0 9e 2e 66
        E 53 84 4e 64
        E 1 87 3d 67
        E 0 88 3d 66
        E 1 8b 2e 64
        E 0 91 4e 67
        E 0 97 3d 67
        E 0 98 3f 65
        E 1 9d 2e 67
        E 55 83 4e 65
        E 1 86 3e 64
        E 0 87 3d 67
        E 0 90 4f 64
        E 1 96 3e 64
        E 0 97 3f 66
        E 0 9c 2f 64
        E 57 82 4e 66
        E 0 85 3e 65
        E 1 86 3e 64
        E 0 8f 2e 65
        E 1 94 4f 65
        E 0 95 3e 65
        E 0 96 3f 67
        E 0 9b 2f 65
        E 55 81 4e 67
        E 0 85 3e 65
        E 1 8a 3f 64
        E 0 8e 2e 66
        E 1 93 50 64
        E 1 95 40 64
        E 0 9a 3f 64
        E 1 9f 30 63
        E 55 80 4f 64
        E 0 88 3f 65
        E 1 8a 3f 64
        E 0 8d 2e 67
        E 1 92 50 65
        E 0 98 3f 65
        E 1 9a 40 65
        E 0 9e 30 64
        E 54 84 4f 65
        E 0 87 3f 66
        E 0 88 3f 65
        E 1 8c 2f 64
        E 0 91 50 66
        E 0 97 3f 66
        E 0 98 41 63
        E 1 9d 30 65
        E 54 83 50 64
        E 0 86 3f 67
        E 1 87 3f 66
        E 0 8b 2f 65
        E 0 90 50 67
        E 1 96 3f 67
        E 0 97 41 64
        E 0 9c 31 64
        E 57 82 50 65
        E 0 85 40 64
        E 1 86 3f 67
        E 0 8f 30 63
        E 0 94 51 64
        E 1 95 40 64
        E 0 96 41 65
        E 0 9b 31 65
        E 56 80 50 67
        E 1 81 50 66
        E 0 85 40 64
        E 0 8a 40 65
        E 1 8e 30 64
        E 0 93 51 65
        E 0 95 42 64
        E 1 9a 40 65
        E 0 9f 31 66
        E 54 84 51 64
        E 1 88 41 63
        E 0 8a 40 65
        E 1 8d 30 65
        E 0 92 52 64
        E 0 98 41 63
        E 0 9a 42 65
        E 0 9e 31 67
        E 55 83 51 65
        E 1 87 41 64
        E 0 88 41 63
        E 0 8c 31 64
        E 0 91 52 65
        E 1 97 41 64
        E 0 98 42 66
        E 0 9d 32 64
        E 56 82 52 64
        E 0 86 41 65
        E 1 87 41 64
        E 0 8b 31 65
        E 0 90 52 66
        E 0 96 41 65
        E 1 97 42 67
        E 0 9c 32 65
        E 55 81 52 65
        E 1 85 42 64
        E 0 86 41 65
        E 0 8f 31 66
        E 1 94 52 67
        E 0 95 42 64
        E 1 96 43 64
        E 0 9b 33 64
        E 52 80 52 66
        E 1 85 42 64
        E 0 8a 42 65
        E 1 8e 31 67
        E 0 93 53 64
        E 1 95 43 65
        E 0 9a 42 65
        E 0 9f 33 65
        E 58 84 52 67
        E 1 88 42 66
        E 0 8a 42 65
        E 0 8d 32 64
        E 1 92 53 65
        E 0 98 42 66
        E 0 9a 44 64
        E 0 9e 33 66
        E 54 87 42 67
        E 0 88 42 66
        E 0 8c 32 65
        E 1 97 42 67
        E 0 98 44 65
        E 0 9d 33 67
        E 59 82 53 65
        E 1 83 53 64
        E 0 85 43 65
        E 0 86 43 64
        E 1 87 42 67
        E 0 88 44 65
        E 1 8a 44 64
        E 0 8b 33 64
        E 0 8d 33 67
        E 0 8e 33 66
        E 1 8f 33 65
        E 0 90 24 64
        E 0 94 54 64
        E 1 95 43 65
        E 0 96 43 64
        E 1 97 44 66
        E 0 98 44 65
        E 0 9a 44 64
        E 1 9c 34 64
        E 0 9d 33 67
        E 0 9e 33 66
        E 0 9f 33 65
        E 49 86 43 64
        E 1 8f 33 65
        E 0 93 54 65
        E 0 96 44 67
        E 0 9b 34 65
        E 57 80 24 64
        E 0 84 54 64
        E 0 85 43 65
        E 1 8e 33 66
        E 0 92 25 64
        E 0 95 45 64
        E 0 9f 35 63
        E 56 83 54 65
        E 0 8a 44 64
        E 1 8d 33 67
        E 0 9a 45 65
        E 0 9e 35 64
        E 59 82 25 64
        E 0 87 44 66
        E 0 88 44 65
        E 1 8c 34 64
        E 0 90 25 66
        E 1 97 44 66
        E 0 98 46 64
        E 0 9d 35 65
        E 53 86 44 67
        E 1 87 44 66
        E 0 8b 34 65
        E 1 96 44 67
        E 0 97 46 65
        E 0 9c 36 64
        E 56 80 25 66
        E 0 85 45 64
        E 0 86 44 67
        E 0 8f 35 63
        E 1 93 26 64
        E 0 95 45 64
        E 0 96 46 66
        E 0 9b 36 65
        E 1 9f 35 63
        E 57 85 45 64
        E 1 8a 45 65
        E 0 8e 35 64
        E 1 8f 35 63
        E 0 95 46 67
        E 0 9e 35 64
        E 0 9f 36 66
        E 55 83 26 64
        E 0 88 46 64
        E 1 8d 35 65
        E 0 8e 35 64
        E 1 91 27 64
        E 0 9a 47 64
        E 0 9d 35 65
        E 0 9e 36 67
        E 54 87 46 65
        E 0 8c 36 64
        E 1 8d 35 65
        E 0 98 47 65
        E 1 9c 36 64
        E 0 9d 37 64
        E 58 81 27 64
        E 0 86 46 66
        E 1 8b 36 65
        E 0 8c 36 64
        E 0 94 27 66
        E 1 97 48 63
        E 0 9b 36 65
        E 0 9c 37 65
        E 56 85 46 67
        E 0 8b 36 65
        E 0 8f 36 66
        E 1 96 48 64
        E 0 9b 38 64
        E 1 9f 36 66
        E 54 84 27 66
        E 0 8a 47 64
        E 0 8e 36 67
        E 0 8f 36 66
        E 0 92 28 64
        E 1 95 48 65
        E 0 9e 36 67
        E 0 9f 38 65
        E 56 88 47 65
        E 0 8d 37 64
        E 0 8e 36 67
        E 0 9a 49 64
        E 0 9d 37 64
        E 1 9e 38 66
        E 58 82 28 64
        E 0 87 48 63
        E 0 8c 37 65
        E 1 8d 37 64
        E 0 90 29 63
        E 1 98 48 64
        E 0 9c 37 65
        E 1 9d 38 67
        E 53 86 48 64
        E 0 8b 38 64
        E 0 8c 37 65
        E 0 94 29 64
        E 1 97 49 66
        E 0 9b 38 64
        E 0 9c 39 64
        E 56 80 29 63
        E 0 85 48 65
        E 1 8b 38 64
        E 0 8f 38 65
        E 0 93 29 65
        E 0 95 48 65
        E 1 96 49 67
        E 0 9b 39 65
        E 1 9f 38 65
        E 55 85 48 65
        E 0 8a 49 64
        E 0 8e 38 66
        E 1 8f 38 65
        E 0 92 2a 64
        E 0 95 4a 64
        E 1 9e 38 66
        E 0 9f 3a 64
        E 56 84 29 64
        E 0 88 48 64
        E 1 8d 38 67
        E 0 8e 38 66
        E 0 91 2a 65
        E 0 9a 4a 65
        E 1 9d 38 67
        E 0 9e 3a 65
        E 55 83 29 65
        E 0 87 49 66
        E 0 8c 39 64
        E 0 8d 38 67
        E 0 90 2a 66
        E 1 98 4b 64
        E 0 9c 39 64
        E 0 9d 3a 66
        E 59 82 2a 64
        E 0 86 49 67
        E 0 8b 39 65
        E 1 8c 39 64
        E 0 94 2a 67
        E 0 97 4b 65
        E 0 9b 3b 64
        E 0 9c 3a 67
        E 56 81 2a 65
        E 0 85 4a 64
        E 0 8b 3b 64
        E 1 8f 3a 64
        E 0 93 2b 64
        E 0 96 4b 66
        E 0 9b 3b 64
        E 1 9f 3a 64
        E 55 80 2a 66
        E 0 8a 4a 65
        E 1 8e 3a 65
        E 0 8f 3a 64
        E 1 92 2b 65
        E 0 95 4b 67
        E 0 9e 3a 65
        E 0 9f 3b 65
        E 56 84 2a 67
        E 1 88 4b 64
        E 0 8d 3a 66
        E 0 8e 3a 65
        E 1 91 2c 64
        E 0 9a 4c 64
        E 0 9d 3a 66
        E 1 9e 3c 63
        E 55 83 2b 64
        E 0 87 4b 65
        E 1 8c 3a 67
        E 0 8d 3a 66
        E 1 90 2c 65
        E 0 98 4c 65
        E 0 9c 3a 67
        E 0 9d 3c 64
        E 49 82 2b 65
        E 0 86 4b 66
        E 0 8b 3b 64
        E 0 8c 3a 67
        E 0 94 2c 66
        E 1 97 4d 63
        E 0 9b 3b 64
        E 0 9c 3c 65
        E 52 81 2c 64
        E 0 85 4b 67
        E 0 8a 4c 64
        E 0 8b 3b 64
        E 1 8f 3b 65
        E 0 93 2c 67
        E 0 96 4d 64
        E 0 9b 3d 64
        E 1 9f 3b 65
        E 50 80 2c 65
        E 0 88 4c 65
        E 1 8e 3c 63
        E 0 8f 3b 65
        E 1 92 2d 64
        E 0 95 4d 65
        E 0 9e 3c 63
        E 0 9f 3d 65
        E 51 84 2c 66
        E 0 87 4d 63
        E 1 8d 3c 64
        E 0 8e 3c 63
        E 0 91 2d 65
        E 0 9a 4e 64
        E 0 9d 3c 64
        E 0 9e 3d 66
        E 49 83 2c 67
        E 0 86 4d 64
        E 1 8c 3c 65
        E 0 8d 3c 64
        E 1 90 2e 64
        E 0 98 4e 65
        E 1 9c 3c 65
        E 0 9d 3d 67
        E 50 82 2d 64
        E 0 85 4d 65
        E 1 8b 3d 64
        E 0 8c 3c 65
        E 0 94 2e 65
        E 1 97 4e 66
        E 0 9b 3d 64
        E 0 9c 3e 64
        E 52 81 2d 65
        E 0 8a 4e 64
        E 0 8b 3d 64
        E 1 8f 3d 65
        E 0 93 2e 66
        E 1 96 4e 67
        E 0 9b 3e 65
        E 1 9f 3d 65
        E 49 80 2e 64
        E 1 88 4e 65
        E 1 8e 3d 66
        E 0 8f 3d 65
        E 0 92 2e 67
        E 0 95 4f 64
        E 1 9e 3d 66
        E 0 9f 3f 64
        E 47 87 4e 66
        E 0 8d 3d 67
        E 1 8e 3d 66
        E 0 91 2f 64
        E 0 9a 4f 65
        E 0 9d 3d 67
        E 1 9e 3f 65
        E 53 84 2e 65
        E 0 86 4e 67
        E 1 8c 3e 64
        E 0 8d 3d 67
        E 0 90 2f 65
        E 0 98 50 64
        E 1 9c 3e 64
        E 1 9d 3f 66
        E 50 83 2e 66
        E 0 85 4f 64
        E 1 8b 3e 65
        E 0 8c 3e 64
        E 0 94 30 63
        E 1 97 50 65
        E 0 9b 3e 65
        E 0 9c 3f 67
        E 50 82 2e 67
        E 1 8a 4f 65
        E 0 8b 3e 65
        E 0 8f 3f 64
        E 1 93 30 64
        E 0 96 50 66
        E 0 9b 40 64
        E 1 9f 3f 64
        E 49 81 2f 64
        E 0 88 50 64
        E 1 8e 3f 65
        E 0 8f 3f 64
        E 1 92 30 65
        E 0 95 50 67
        E 0 9e 3f 65
        E 0 9f 40 65
        E 51 80 2f 65
        E 0 87 50 65
        E 1 8d 3f 66
        E 0 8e 3f 65
        E 1 91 31 64
        E 0 9a 51 64
        E 1 9d 3f 66
        E 0 9e 41 63
        E 48 84 30 63
        E 0 85 50 67
        E 1 86 50 66
        E 0 8c 3f 67
        E 1 8d 3f 66
        E 0 90 31 65
        E 0 98 51 65
        E 1 9c 3f 67
        E 0 9d 41 64
        E 52 83 30 64
        E 0 8a 51 64
        E 0 8b 40 64
        E 0 8c 3f 67
        E 1 94 31 66
        E 0 97 52 64
        E 0 9b 40 64
        E 1 9c 41 65
        E 49 82 30 65
        E 0 88 51 65
        E 1 8b 40 64
        E 0 8f 40 65
        E 0 93 31 67
        E 0 96 52 65
        E 0 9b 42 64
        E 1 9f 40 65
        E 51 81 31 64
        E 0 87 52 64
        E 1 8e 41 63
        E 0 8f 40 65
        E 1 92 32 64
        E 0 95 52 66
        E 0 9e 41 63
        E 1 9f 42 65
        E 47 80 31 65
        E 1 86 52 65
        E 0 8d 41 64
        E 0 8e 41 63
        E 0 91 32 65
        E 0 9a 52 67
        E 0 9d 41 64
        E 1 9e 42 66
        E 50 84 31 66
        E 0 85 52 66
        E 0 8c 41 65
        E 1 8d 41 64
        E 0 90 33 64
        E 0 98 53 64
        E 0 9c 41 65
        E 1 9d 42 67
        E 52 83 31 67
        E 0 8a 52 67
        E 0 8b 42 64
        E 0 8c 41 65
        E 1 94 33 65
        E 0 97 53 65
        E 0 9b 42 64
        E 1 9c 43 64
        E 49 82 32 64
        E 0 8b 42 64
        E 0 8f 42 65
        E 1 93 33 66
        E 0 9b 43 65
        E 0 9f 42 65
        E 52 81 32 65
        E 0 87 53 65
        E 0 88 53 64
        E 1 8e 42 66
        E 0 8f 42 65
        E 0 92 33 67
        E 1 95 24 64
        E 0 9a 54 64
        E 1 9e 42 66
        E 0 9f 44 64
        E 50 80 33 64
        E 0 8d 42 67
        E 1 8e 42 66
        E 0 91 34 64
        E 0 98 54 65
        E 0 9d 42 67
        E 1 9e 44 65
        E 48 84 33 65
        E 1 85 24 64
        E 0 8a 54 64
        E 1 8c 43 64
        E 0 8d 42 67
        E 0 90 34 65
        E 1 97 25 64
        E 0 9c 43 64
        E 1 9d 44 66
        E 51 83 33 66
        E 0 88 54 65
        E 1 8b 43 65
        E 0 8c 43 64
        E 0 94 35 63
        E 0 9b 43 65
        E 1 9c 44 67
        E 50 82 33 67
        E 0 87 25 64
        E 0 8b 43 65
        E 1 8f 44 64
        E 0 93 35 64
        E 1 95 25 66
        E 0 9b 45 64
        E 0 9f 44 64
        E 52 81 34 64
        E 0 8e 44 65
        E 1 8f 44 64
        E 0 92 35 65
        E 0 9e 44 65
        E 0 9f 45 65
        E 50 80 34 65
        E 0 85 25 66
        E 0 8d 44 66
        E 1 8e 44 65
        E 0 91 36 64
        E 0 98 26 64
        E 1 9d 44 66
        E 0 9e 46 64
        E 49 84 35 63
        E 1 8c 44 67
        E 0 8d 44 66
        E 0 90 36 65
        E 0 94 35 63
        E 1 9c 44 67
        E 0 9d 46 65
        E 51 83 35 64
        E 1 84 35 63
        E 0 88 26 64
        E 0 8b 45 64
        E 1 8c 44 67
        E 0 93 35 64
        E 0 94 36 66
        E 0 96 27 64
        E 1 9b 45 64
        E 0 9c 46 66
        E 51 82 35 65
        E 0 83 35 64
        E 0 8b 45 64
        E 0 8f 45 65
        E 1 92 35 65
        E 0 93 36 67
        E 0 9b 46 67
        E 49 81 36 64
        E 0 82 35 65
        E 1 86 27 64
        E 0 8e 46 64
        E 1 91 36 64
        E 0 92 37 64
        E 0 9a 27 66
        E 0 9f 47 64
        E 50 80 36 65
        E 0 81 36 64
        E 0 8d 46 65
        E 0 90 36 65
        E 1 91 37 65
        E 0 9e 47 65
        E 53 80 36 65
        E 0 84 36 66
        E 0 8a 27 66
        E 0 8c 46 66
        E 1 90 38 64
        E 0 94 36 66
        E 1 97 28 64
        E 0 9d 48 63
        E 51 83 36 67
        E 0 84 36 66
        E 1 8b 46 67
        E 0 93 36 67
        E 0 94 38 65
        E 1 9c 48 64
        E 48 82 37 64
        E 0 83 36 67
        E 1 87 28 64
        E 0 8f 47 64
        E 0 92 37 64
        E 1 93 38 66
        E 0 95 29 63
        E 0 9b 48 65
        E 50 81 37 65
        E 0 82 37 64
        E 1 8e 47 65
        E 1 91 37 65
        E 0 92 38 67
        E 0 9a 29 64
        E 1 9f 49 64
        E 53 80 38 64
        E 0 81 37 65
        E 0 85 29 63
        E 0 8d 48 63
        E 0 90 38 64
        E 0 91 39 64
        E 1 98 29 65
        E 0 9e 48 64
        E 48 80 38 64
        E 0 84 38 65
        E 0 8c 48 64
        E 0 90 39 65
        E 1 94 38 65
        E 0 97 2a 64
        E 0 9d 49 66
        E 53 83 38 66
        E 0 84 38 65
        E 0 8a 29 64
        E 0 8b 48 65
        E 1 93 38 66
        E 0 94 3a 64
        E 0 96 2a 65
        E 0 9b 48 65
        E 0 9c 49 67
        E 50 82 38 67
        E 1 83 38 66
        E 0 88 29 65
        E 0 8b 48 65
        E 0 8f 49 64
        E 1 92 38 67
        E 0 93 3a 65
        E 0 95 2a 66
        E 1 9b 4a 64
        E 52 81 39 64
        E 0 82 38 67
        E 0 87 2a 64
        E 0 8e 48 64
        E 1 91 39 64
        E 0 92 3a 66
        E 0 9a 2a 67
        E 0 9f 4a 65
        E 51 80 39 65
        E 0 81 39 64
        E 0 86 2a 65
        E 1 8d 49 66
        E 0 90 3b 64
        E 0 91 3a 67
        E 0 98 2b 64
        E 1 9e 4b 64
        E 47 80 3b 64
        E 0 84 3a 64
        E 0 85 2a 66
        E 0 8c 49 67
        E 0 90 3b 64
        E 0 94 3a 64
        E 1 97 2b 65
        E 0 9d 4b 65
        E 54 83 3a 65
        E 0 84 3a 64
        E 0 8a 2a 67
        E 1 8b 4a 64
        E 0 93 3a 65
        E 0 94 3b 65
        E 0 96 2c 64
        E 1 9c 4b 66
        E 50 82 3a 66
        E 0 83 3a 65
        E 0 88 2b 64
        E 0 8f 4a 65
        E 1 92 3a 66
        E 0 93 3c 63
        E 0 95 2c 65
        E 1 9b 4b 67
        E 50 81 3a 67
        E 0 82 3a 66
        E 0 87 2b 65
        E 1 8e 4b 64
        E 0 91 3a 67
        E 0 92 3c 64
        E 1 9a 2c 66
        E 0 9f 4c 64
        E 50 80 3b 64
        E 0 81 3a 67
        E 0 86 2c 64
        E 0 8d 4b 65
        E 1 90 3b 64
        E 0 91 3c 65
        E 0 98 2c 67
        E 0 9e 4c 65
        E 52 80 3b 64
        E 0 84 3b 65
        E 1 85 2c 65
        E 0 8c 4b 66
        E 1 90 3d 64
        E 0 94 3b 65
        E 0 97 2d 64
        E 0 9d 4d 63
        E 50 83 3c 63
        E 0 84 3b 65
        E 1 8a 2c 66
        E 0 8b 4b 67
        E 0 8f 4c 64
        E 1 93 3c 63
        E 0 94 3d 65
        E 1 96 2d 65
        E 0 9c 4d 64
        E 50 82 3c 64
        E 0 83 3c 63
        E 0 88 2c 67
        E 0 8e 4c 65
        E 1 92 3c 64
        E 0 93 3d 66
        E 0 95 2e 64
        E 0 9b 4d 65
        E 49 81 3c 65
        E 0 82 3c 64
        E 0 87 2d 64
        E 1 8d 4d 63
        E 0 91 3c 65
        E 0 92 3d 67
        E 1 9a 2e 65
        E 0 9f 4e 64
        E 54 80 3d 64
        E 0 81 3c 65
        E 0 86 2d 65
        E 0 8c 4d 64
        E 1 90 3d 64
        E 0 91 3e 64
        E 0 98 2e 66
        E 1 9e 4e 65
        E 47 80 3d 64
        E 1 84 3d 65
        E 0 85 2e 64
        E 0 8b 4d 65
        E 0 90 3e 65
        E 1 94 3d 65
        E 0 97 2e 67
        E 1 9d 4e 66
        E 50 83 3d 66
        E 1 84 3d 65
        E 0 8f 4e 64
        E 0 93 3d 66
        E 1 94 3f 64
        E 0 96 2f 64
        E 0 9c 4e 67
        E 53 82 3d 67
        E 0 83 3d 66
        E 1 8a 2e 65
        E 0 8e 4e 65
        E 0 92 3d 67
        E 1 93 3f 65
        E 0 95 2f 65
        E 0 9b 4f 64
        E 49 81 3e 64
        E 0 82 3d 67
        E 0 88 2e 66
        E 0 8d 4e 66
        E 1 91 3e 64
        E 0 92 3f 66
        E 0 9a 30 63
        E 1 9f 4f 65
        E 51 80 3e 65
        E 0 81 3e 64
        E 0 87 2e 67
        E 0 8c 4e 67
        E 1 90 3e 65
        E 0 91 3f 67
        E 0 98 30 64
        E 0 9e 50 64
        E 52 80 3e 65
        E 0 84 3f 64
        E 1 86 2f 64
        E 0 8b 4f 64
        E 1 90 40 64
        E 0 94 3f 64
        E 0 97 30 65
        E 0 9d 50 65
        E 50 83 3f 65
        E 0 84 3f 64
        E 0 85 2f 65
        E 1 8f 4f 65
        E 0 93 3f 65
        E 0 94 40 65
        E 0 96 31 64
        E 1 9c 50 66
        E 51 82 3f 66
        E 0 83 3f 65
        E 1 8a 30 63
        E 0 8e 50 64
        E 0 92 3f 66
        E 1 93 41 63
        E 0 95 31 65
        E 0 9b 50 67
        E 49 81 3f 67
        E 0 82 3f 66
        E 1 88 30 64
        E 0 8d 50 65
        E 0 91 3f 67
        E 1 92 41 64
        E 0 9a 31 66
        E 0 9f 51 64
        E 50 80 40 64
        E 0 81 3f 67
        E 1 87 30 65
        E 0 8b 50 67
        E 0 8c 50 66
        E 0 90 40 64
        E 1 91 41 65
        E 0 98 31 67
        E 0 9e 51 65
        E 52 80 40 64
        E 0 84 40 65
        E 0 86 31 64
        E 0 8f 51 64
        E 1 90 42 64
        E 0 94 40 65
        E 0 97 32 64
        E 0 9d 52 64
        E 51 83 41 63
        E 0 84 40 65
        E 0 85 31 65
        E 0 8e 51 65
        E 1 93 41 63
        E 0 94 42 65
        E 1 96 32 65
        E 0 9c 52 65
        E 49 82 41 64
        E 0 83 41 63
        E 0 8a 31 66
        E 1 8d 52 64
        E 0 92 41 64
        E 1 93 42 66
        E 0 95 33 64
        E 0 9b 52 66
        E 53 81 41 65
        E 0 82 41 64
        E 0 88 31 67
        E 0 8c 52 65
        E 1 91 41 65
        E 0 92 42 67
        E 0 9a 33 65
        E 0 9f 52 67
        E 50 80 42 64
        E 1 81 41 65
        E 0 87 32 64
        E 1 8b 52 66
        E 0 90 42 64
        E 0 91 43 64
        E 1 98 33 66
        E 0 9e 53 64
        E 48 80 42 64
        E 0 84 42 65
        E 0 86 32 65
        E 0 8f 52 67
        E 0 90 43 65
        E 0 94 42 65
        E 1 97 33 67
        E 0 9d 53 65
        E 53 83 42 66
        E 0 84 42 65
        E 0 85 33 64
        E 0 93 42 66
        E 0 94 44 64
        E 0 96 34 64
        E 52 82 42 67
        E 0 83 42 66
        E 0 8a 33 65
        E 0 8d 53 65
        E 0 8e 53 64
        E 0 92 42 67
        E 1 93 44 65
        E 0 95 34 65
        E 0 9b 24 64
        E 0 9f 54 64
        E 51 81 43 64
        E 0 82 42 67
        E 0 88 33 66
        E 1 91 43 64
        E 0 92 44 66
        E 0 9a 35 63
        E 0 9e 54 65
        E 51 80 43 65
        E 0 81 43 64
        E 0 87 33 67
        E 0 8b 24 64
        E 1 8f 54 64
        E 0 90 43 65
        E 0 91 44 67
        E 0 98 35 64
        E 0 9d 25 64
        E 49 80 43 65
        E 0 84 44 64
        E 0 86 34 64
        E 0 8e 54 65
        E 1 90 45 64
        E 0 94 44 64
        E 0 97 35 65
        E 48 83 44 65
        E 0 84 44 64
        E 0 85 34 65
        E 1 8d 25 64
        E 0 93 44 65
        E 0 94 45 65
        E 1 96 36 64
        E 0 9b 25 66
        E 45 82 44 66
        E 1 83 44 65
        E 0 8a 35 63
        E 0 92 44 66
        E 1 93 46 64
        E 0 95 36 65
        E 1 9a 35 63
        E 46 81 44 67
        E 0 82 44 66
        E 0 88 35 64
        E 1 8a 35 63
        E 0 8b 25 66
        E 0 91 44 67
        E 1 92 46 65
        E 0 98 35 64
        E 1 9a 36 66
        E 3 9e 26 64
        E 44 80 45 64
        E 0 81 44 67
        E 0 87 35 65
        E 0 88 35 64
        E 0 90 45 64
        E 0 91 46 66
        E 0 97 35 65
        E 0 98 36 67
        E 46 80 45 64
        E 0 84 45 65
        E 0 86 36 64
        E 1 87 35 65
        E 0 8e 26 64
        E 1 90 46 67
        E 0 96 36 64
        E 0 97 37 64
        E 1 9c 27 64
        E 45 83 46 64
        E 0 85 36 65
        E 0 86 36 64
        E 1 94 47 64
        E 0 95 36 65
        E 0 96 37 65
        E 47 82 46 65
        E 1 85 36 65
        E 0 8a 36 66
        E 1 8c 27 64
        E 0 93 47 65
        E 0 95 38 64
        E 1 9a 36 66
        E 1 9f 27 66
        E 43 81 46 66
        E 0 88 36 67
        E 0 8a 36 66
        E 1 92 48 63
        E 0 98 36 67
        E 0 9a 38 65
        E 49 80 46 67
        E 0 87 37 64
        E 0 88 36 67
        E 1 8f 27 66
        E 1 91 48 64
        E 0 97 37 64
        E 1 98 38 66
        E 0 9d 28 64
        E 44 84 47 64
        E 0 86 37 65
        E 1 87 37 64
        E 0 90 48 65
        E 0 96 37 65
        E 0 97 38 67
        E 47 83 47 65
        E 0 85 38 64
        E 0 86 37 65
        E 0 8d 28 64
        E 1 94 49 64
        E 0 95 38 64
        E 0 96 39 64
        E 1 9b 29 63
        E 47 82 48 63
        E 0 85 38 64
        E 0 8a 38 65
        E 1 93 48 64
        E 0 95 39 65
        E 0 9a 38 65
        E 1 9f 29 64
        E 45 81 48 64
        E 0 88 38 66
        E 0 8a 38 65
        E 0 8b 29 63
        E 0 92 49 66
        E 0 98 38 66
        E 1 9a 3a 64
        E 0 9e 29 65
        E 48 80 48 65
        E 0 87 38 67
        E 1 88 38 66
        E 0 90 48 65
        E 1 91 49 67
        E 0 97 38 67
        E 0 98 3a 65
        E 1 9d 2a 64
        E 45 80 48 65
        E 0 84 49 64
        E 1 86 39 64
        E 0 87 38 67
        E 0 8f 29 64
        E 1 90 4a 64
        E 0 96 39 64
        E 0 97 3a 66
        E 1 9c 2a 65
        E 45 83 48 64
        E 1 85 39 65
        E 0 86 39 64
        E 0 8e 29 65
        E 1 94 4a 65
        E 0 95 3b 64
        E 0 96 3a 67
        E 1 9b 2a 66
        E 42 82 49 66
        E 0 85 3b 64
        E 1 8a 3a 64
        E 0 8d 2a 64
        E 0 93 4b 64
        E 0 95 3b 64
        E 0 9a 3a 64
        E 1 9f 2a 67
        E 47 81 49 67
        E 0 88 3a 65
        E 1 8a 3a 64
        E 0 8c 2a 65
        E 0 92 4b 65
        E 0 98 3a 65
        E 0 9a 3b 65
        E 0 9e 2b 64
        E 49 80 4a 64
        E 0 87 3a 66
        E 0 88 3a 65
        E 1 8b 2a 66
        E 0 91 4b 66
        E 0 97 3a 66
        E 0 98 3c 63
        E 1 9d 2b 65
        E 46 84 4a 65
        E 0 86 3a 67
        E 1 87 3a 66
        E 0 8f 2a 67
        E 1 90 4b 67
        E 0 96 3a 67
        E 0 97 3c 64
        E 0 9c 2c 64
        E 46 83 4b 64
        E 1 85 3b 64
        E 0 86 3a 67
        E 0 8e 2b 64
        E 0 94 4c 64
        E 1 95 3b 64
        E 0 96 3c 65
        E 0 9b 2c 65
        E 45 82 4b 65
        E 0 85 3b 64
        E 1 8a 3b 65
        E 0 8d 2b 65
        E 0 93 4c 65
        E 0 95 3d 64
        E 1 9a 3b 65
        E 0 9f 2c 66
        E 46 81 4b 66
        E 0 88 3c 63
        E 0 8a 3b 65
        E 1 8c 2c 64
        E 0 92 4d 63
        E 1 98 3c 63
        E 0 9a 3d 65
        E 1 9e 2c 67
        E 47 80 4b 67
        E 0 84 4c 64
        E 0 87 3c 64
        E 1 88 3c 63
        E 0 8b 2c 65
        E 1 91 4d 64
        E 0 97 3c 64
        E 1 98 3d 66
        E 0 9d 2d 64
        E 42 83 4c 65
        E 0 86 3c 65
        E 0 87 3c 64
        E 1 8f 2c 66
        E 0 90 4d 65
        E 0 96 3c 65
        E 1 97 3d 67
        E 0 9c 2d 65
        E 47 82 4d 63
        E 0 85 3d 64
        E 0 86 3c 65
        E 1 8e 2c 67
        E 0 94 4e 64
        E 0 95 3d 64
        E 1 96 3e 64
        E 0 9b 2e 64
        E 45 81 4d 64
        E 0 85 3d 64
        E 1 8a 3d 65
        E 0 8d 2d 64
        E 1 93 4e 65
        E 0 95 3e 65
        E 0 9a 3d 65
        E 1 9f 2e 65
        E 47 80 4d 65
        E 0 88 3d 66
        E 1 8a 3d 65
        E 1 8c 2d 65
        E 0 92 4e 66
        E 0 98 3d 66
        E 1 9a 3f 64
        E 1 9e 2e 66
        E 45 84 4e 64
        E 1 87 3d 67
        E 1 88 3d 66
        E 1 8b 2e 64
        E 0 91 4e 67
        E 1 97 3d 67
        E 0 98 3f 65
        E 0 9d 2e 67
        E 43 83 4e 65
        E 0 86 3e 64
        E 1 87 3d 67
        E 0 90 4f 64
        E 1 96 3e 64
        E 1 97 3f 66
        E 0 9c 2f 64
        E 44 82 4e 66
        E 1 85 3e 65
        E 1 86 3e 64
        E 0 8f 2e 65
        E 1 94 4f 65
        E 0 95 3e 65
        E 1 96 3f 67
        E 1 9b 2f 65
        E 44 81 4e 67
        E 1 85 3e 65
        E 0 8a 3f 64
        E 1 8e 2e 66
        E 0 93 50 64
        E 1 95 40 64
        E 0 9a 3f 64
        E 1 9f 30 63
        E 45 80 4f 64
        E 1 88 3f 65
        E 1 8a 3f 64
        E 1 8d 2e 67
        E 0 92 50 65
        E 1 98 3f 65
        E 0 9a 40 65
        E 1 9e 30 64
        E 40 84 4f 65
        E 1 87 3f 66
        E 1 88 3f 65
        E 0 8c 2f 64
        E 1 91 50 66
        E 0 97 3f 66
        E 1 98 41 63
        E 0 9d 30 65
        E 46 83 50 64
        E 1 86 3f 67
        E 0 87 3f 66
        E 1 8b 2f 65
        E 1 90 50 67
        E 0 96 3f 67
        E 1 97 41 64
        E 1 9c 31 64
        E 42 82 50 65
        E 1 85 40 64
        E 0 86 3f 67
        E 0 8f 30 63
        E 1 94 51 64
        E 1 95 40 64
        E 0 96 41 65
        E 1 9b 31 65
        E 46 80 50 67
        E 1 81 50 66
        E 1 85 40 64
        E 1 8a 40 65
        E 1 8e 30 64
        E 0 93 51 65
        E 1 95 42 64
        E 0 9a 40 65
        E 1 9f 31 66
        E 40 84 51 64
        E 0 88 41 63
        E 1 8a 40 65
        E 0 8d 30 65
        E 1 92 52 64
        E 1 98 41 63
        E 0 9a 42 65
        E 1 9e 31 67
        E 43 83 51 65
        E 1 87 41 64
        E 1 88 41 63
        E 0 8c 31 64
        E 1 91 52 65
        E 0 97 41 64
        E 1 98 42 66
        E 0 9d 32 64
        E 45 82 52 64
        E 0 86 41 65
        E 1 87 41 64
        E 1 8b 31 65
        E 0 90 52 66
        E 1 96 41 65
        E 1 97 42 67
        E 0 9c 32 65
        E 46 81 52 65
        E 1 85 42 64
        E 1 86 41 65
        E 0 8f 31 66
        E 1 94 52 67
        E 0 95 42 64
        E 1 96 43 64
        E 0 9b 33 64
        E 44 80 52 66
        E 1 85 42 64
        E 0 8a 42 65
        E 1 8e 31 67
        E 0 93 53 64
        E 1 95 43 65
        E 0 9a 42 65
        E 1 9f 33 65
        E 43 84 52 67
        E 1 88 42 66
        E 0 8a 42 65
        E 1 8d 32 64
        E 0 92 53 65
        E 0 98 42 66
        E 0 9a 44 64
        E 0 9e 33 66
        E 44 87 42 67
        E 1 88 42 66
        E 0 8c 32 65
        E 1 97 42 67
        E 1 98 44 65
        E 0 9d 33 67
        E 47 85 43 65
        E 0 86 43 64
        E 1 88 44 65
        E 1 8a 44 64
        E 0 8d 33 67
        E 1 8e 33 66
        E 1 8f 33 65
        E 0 82 53 65
        E 1 83 53 64
        E 0 87 42 67
        E 1 8b 33 64
        E 0 95 43 65
        E 1 96 43 64
        E 0 98 44 65
        E 1 9a 44 64
        E 0 9d 33 67
        E 1 9e 33 66
        E 0 9f 33 65
        E 1 90 24 64
        E 0 94 54 64
        E 1 97 44 66
        E 0 9c 34 64
        E 35 86 43 64
        E 1 8f 33 65
        E 0 96 44 67
        E 1 93 54 65
        E 0 9b 34 65
        E 48 85 43 65
        E 1 8e 33 66
        E 0 80 24 64
        E 1 84 54 64
        E 1 95 45 64
        E 0 9f 35 63
        E 1 92 25 64
        E 44 8a 44 64
        E 0 8d 33 67
        E 1 83 54 65
        E 0 9a 45 65
        E 1 9e 35 64
        E 46 88 44 65
        E 0 82 25 64
        E 1 87 44 66
        E 0 8c 34 64
        E 1 98 46 64
        E 0 9d 35 65
        E 1 90 25 66
        E 1 97 44 66
        E 44 86 44 67
        E 0 87 44 66
        E 0 8b 34 65
        E 1 96 44 67
        E 1 97 46 65
        E 0 9c 36 64
        E 45 85 45 64
        E 1 86 44 67
        E 0 8f 35 63
        E 1 80 25 66
        E 0 95 45 64
        E 0 96 46 66
        E 1 9f 35 63
        E 0 93 26 64
        E 1 9b 36 65
        E 46 85 45 64
        E 1 8a 45 65
        E 0 8e 35 64
        E 1 8f 35 63
        E 0 95 46 67
        E 1 9e 35 64
        E 1 9f 36 66
        E 43 88 46 64
        E 0 8d 35 65
        E 1 8e 35 64
        E 1 83 26 64
        E 0 9a 47 64
        E 1 9d 35 65
        E 0 9e 36 67
        E 1 91 27 64
        E 45 8d 35 65
        E 1 87 46 65
        E 0 8c 36 64
        E 1 98 47 65
        E 0 9d 37 64
        E 1 9c 36 64
        E 42 86 46 66
        E 0 81 27 64
        E 1 8b 36 65
        E 0 8c 36 64
        E 1 94 27 66
        E 1 97 48 63
        E 1 9b 36 65
        E 0 9c 37 65
        E 46 85 46 67
        E 1 8f 36 66
        E 0 8b 36 65
        E 1 96 48 64
        E 0 9f 36 66
        E 0 9b 38 64
        E 45 8a 47 64
        E 0 8e 36 67
        E 1 8f 36 66
        E 1 84 27 66
        E 0 95 48 65
        E 1 9e 36 67
        E 0 9f 38 65
        E 0 92 28 64
        E 46 88 47 65
        E 0 8d 37 64
        E 1 8e 36 67
        E 0 9a 49 64
        E 1 9d 37 64
        E 0 9e 38 66
        E 43 8d 37 64
        E 1 82 28 64
        E 1 87 48 63
        E 0 8c 37 65
        E 0 98 48 64
        E 1 9d 38 67
        E 0 90 29 63
        E 1 9c 37 65
        E 48 86 48 64
        E 0 8b 38 64
        E 1 8c 37 65
        E 0 94 29 64
        E 1 97 49 66
        E 0 9b 38 64
        E 1 9c 39 64
        E 44 85 48 65
        E 0 8f 38 65
        E 1 80 29 63
        E 0 8b 38 64
        E 1 95 48 65
        E 0 96 49 67
        E 1 9f 38 65
        E 0 93 29 65
        E 0 9b 39 65
        E 47 85 48 65
        E 0 8a 49 64
        E 0 8e 38 66
        E 1 8f 38 65
        E 1 95 4a 64
        E 0 9e 38 66
        E 1 9f 3a 64
        E 1 92 2a 64
        E 42 88 48 64
        E 0 8d 38 67
        E 1 8e 38 66
        E 0 84 29 64
        E 1 9a 4a 65
        E 1 9d 38 67
        E 0 9e 3a 65
        E 1 91 2a 65
        E 43 8d 38 67
        E 1 83 29 65
        E 0 87 49 66
        E 1 8c 39 64
        E 0 98 4b 64
        E 1 9d 3a 66
        E 0 90 2a 66
        E 1 9c 39 64
        E 45 86 49 67
        E 1 82 2a 64
        E 0 8b 39 65
        E 1 8c 39 64
        E 0 94 2a 67
        E 1 97 4b 65
        E 0 9b 3b 64
        E 1 9c 3a 67
        E 44 85 4a 64
        E 0 8f 3a 64
        E 1 81 2a 65
        E 0 8b 3b 64
        E 1 96 4b 66
        E 1 9f 3a 64
        E 0 93 2b 64
        E 1 9b 3b 64
        E 47 8a 4a 65
        E 1 8e 3a 65
        E 1 8f 3a 64
        E 1 80 2a 66
        E 0 95 4b 67
        E 1 9e 3a 65
        E 0 9f 3b 65
        E 1 92 2b 65
        E 40 88 4b 64
        E 0 8d 3a 66
        E 1 8e 3a 65
        E 0 84 2a 67
        E 1 9a 4c 64
        E 0 9d 3a 66
        E 1 9e 3c 63
        E 0 91 2c 64
        E 44 8d 3a 66
        E 1 83 2b 64
        E 1 87 4b 65
        E 0 8c 3a 67
        E 2 98 4c 65
        E 1 9d 3c 64
        E 1 90 2c 65
        E 0 9c 3a 67
        E 42 86 4b 66
        E 1 82 2b 65
        E 1 8b 3b 64
        E 0 8c 3a 67
        E 1 94 2c 66
        E 0 97 4d 63
        E 1 9b 3b 64
        E 0 9c 3c 65
        E 44 85 4b 67
        E 1 8a 4c 64
        E 1 8f 3b 65
        E 0 81 2c 64
        E 1 8b 3b 64
        E 0 96 4d 64
        E 1 9f 3b 65
        E 0 93 2c 67
        E 1 9b 3d 64
        E 42 88 4c 65
        E 1 8e 3c 63
        E 1 8f 3b 65
        E 0 80 2c 65
        E 1 95 4d 65
        E 0 9e 3c 63
        E 1 9f 3d 65
        E 1 92 2d 64
        E 46 8d 3c 64
        E 1 8e 3c 63
        E 0 84 2c 66
        E 1 87 4d 63
        E 1 9a 4e 64
        E 0 9d 3c 64
        E 1 9e 3d 66
        E 0 91 2d 65
        E 41 86 4d 64
        E 1 8d 3c 64
        E 0 83 2c 67
        E 1 8c 3c 65
        E 0 98 4e 65
        E 1 9d 3d 67
        E 1 90 2e 64
        E 0 9c 3c 65
        E 46 85 4d 65
        E 0 82 2d 64
        E 1 8b 3d 64
        E 1 8c 3c 65
        E 0 94 2e 65
        E 1 97 4e 66
        E 0 9b 3d 64
        E 1 9c 3e 64
        E 44 8a 4e 64
        E 1 8f 3d 65
        E 0 81 2d 65
        E 1 8b 3d 64
        E 0 96 4e 67
        E 1 9f 3d 65
        E 1 93 2e 66
        E 1 9b 3e 65
        E 43 88 4e 65
        E 0 8e 3d 66
        E 1 8f 3d 65
        E 1 80 2e 64
        E 1 95 4f 64
        E 0 9e 3d 66
        E 1 9f 3f 64
        E 1 92 2e 67
        E 42 8d 3d 67
        E 1 8e 3d 66
        E 0 87 4e 66
        E 1 9a 4f 65
        E 0 9d 3d 67
        E 1 9e 3f 65
        E 0 91 2f 64
        E 45 86 4e 67
        E 1 8d 3d 67
        E 0 84 2e 65
        E 1 8c 3e 64
        E 0 98 50 64
        E 1 9d 3f 66
        E 0 90 2f 65
        E 1 9c 3e 64
        E 45 85 4f 64
        E 0 83 2e 66
        E 1 8b 3e 65
        E 1 8c 3e 64
        E 1 94 30 63
        E 0 97 50 65
        E 0 9b 3e 65
        E 1 9c 3f 67
        E 44 8a 4f 65
        E 1 8f 3f 64
        E 0 82 2e 67
        E 1 8b 3e 65
        E 0 96 50 66
        E 1 9f 3f 64
        E 1 93 30 64
        E 0 9b 40 64
        E 44 88 50 64
        E 0 8e 3f 65
        E 1 8f 3f 64
        E 0 81 2f 64
        E 1 95 50 67
        E 0 9e 3f 65
        E 1 9f 40 65
        E 0 92 30 65
        E 45 8d 3f 66
        E 0 8e 3f 65
        E 1 80 2f 65
        E 0 87 50 65
        E 1 9a 51 64
        E 0 9d 3f 66
        E 1 9e 41 63
        E 1 91 31 64
        E 43 85 50 67
        E 1 86 50 66
        E 0 8d 3f 66
        E 1 84 30 63
        E 0 8c 3f 67
        E 1 98 51 65
        E 0 9d 41 64
        E 1 90 31 65
        E 0 9c 3f 67
        E 46 8a 51 64
        E 0 83 30 64
        E 1 8b 40 64
        E 0 8c 3f 67
        E 1 94 31 66
        E 0 97 52 64
        E 1 9b 40 64
        E 0 9c 41 65
        E 43 88 51 65
        E 0 8f 40 65
        E 1 82 30 65
        E 1 8b 40 64
        E 0 96 52 65
        E 1 9f 40 65
        E 1 93 31 67
        E 0 9b 42 64
        E 44 8e 41 63
        E 0 8f 40 65
        E 1 81 31 64
        E 1 87 52 64
        E 0 95 52 66
        E 1 9e 41 63
        E 1 9f 42 65
        E 0 92 32 64
        E 46 86 52 65
        E 1 8d 41 64
        E 0 8e 41 63
        E 1 80 31 65
        E 1 9a 52 67
        E 1 9d 41 64
        E 1 9e 42 66
        E 0 91 32 65
        E 41 85 52 66
        E 0 8d 41 64
        E 1 84 31 66
        E 0 8c 41 65
        E 1 98 53 64
        E 0 9d 42 67
        E 1 90 33 64
        E 0 9c 41 65
        E 45 8a 52 67
        E 1 83 31 67
        E 1 8b 42 64
        E 0 8c 41 65
        E 1 94 33 65
        E 0 97 53 65
        E 1 9b 42 64
        E 1 9c 43 64
        E 45 8f 42 65
        E 1 82 32 64
        E 0 8b 42 64
        E 1 9f 42 65
        E 0 93 33 66
        E 1 9b 43 65
        E 44 88 53 64
        E 1 8e 42 66
        E 1 8f 42 65
        E 0 81 32 65
        E 1 87 53 65
        E 1 95 24 64
        E 1 9a 54 64
        E 0 9e 42 66
        E 1 9f 44 64
        E 1 92 33 67
        E 40 8d 42 67
        E 1 8e 42 66
        E 0 80 33 64
        E 1 98 54 65
        E 1 9d 42 67
        E 0 9e 44 65
        E 1 91 34 64
        E 45 85 24 64
        E 1 8a 54 64
        E 0 8d 42 67
        E 1 84 33 65
        E 1 8c 43 64
        E 0 9d 44 66
        E 1 90 34 65
        E 0 97 25 64
        E 1 9c 43 64
        E 40 88 54 65
        E 1 83 33 66
        E 1 8b 43 65
        E 0 8c 43 64
        E 1 94 35 63
        E 3 9b 43 65
        E 0 9c 44 67
        E 40 8f 44 64
        E 1 82 33 67
        E 1 87 25 64
        E 0 8b 43 65
        E 1 95 25 66
        E 0 9f 44 64
        E 1 93 35 64
        E 0 9b 45 64
        E 40 8e 44 65
        E 0 8f 44 64
        E 1 81 34 64
        E 1 9e 44 65
        E 0 9f 45 65
        E 1 92 35 65
        E 40 85 25 66
        E 0 8d 44 66
        E 1 8e 44 65
        E 0 80 34 65
        E 1 98 26 64
        E 1 9d 44 66
        E 0 9e 46 64
        E 1 91 36 64
        E 39 8d 44 66
        E 1 84 35 63
        E 0 8c 44 67
        E 1 9d 46 65
        E 1 90 36 65
        E 1 94 35 63
        E 1 9c 44 67
        E 40 88 26 64
        E 1 83 35 64
        E 0 84 35 63
        E 0 8b 45 64
        E 1 8c 44 67
        E 1 96 27 64
        E 0 93 35 64
        E 1 94 36 66
        E 1 9b 45 64
        E 0 9c 46 66
        E 41 8f 45 65
        E 0 82 35 65
        E 1 83 35 64
        E 0 8b 45 64
        E 1 92 35 65
        E 0 93 36 67
        E 1 9b 46 67
        E 38 86 27 64
        E 0 8e 46 64
        E 1 81 36 64
        E 1 82 35 65
        E 1 9a 27 66
        E 0 9f 47 64
        E 1 91 36 64
        E 0 92 37 64
        E 42 8d 46 65
        E 0 80 36 65
        E 1 81 36 64
        E 0 9e 47 65
        E 1 90 36 65
        E 1 91 37 65
        E 41 8a 27 66
        E 1 80 36 65
        E 0 84 36 66
        E 1 8c 46 66
        E 1 9d 48 63
        E 0 90 38 64
        E 1 94 36 66
        E 0 97 28 64
        E 41 83 36 67
        E 1 84 36 66
        E 0 8b 46 67
        E 1 93 36 67
        E 1 94 38 65
        E 0 9c 48 64
        E 42 8f 47 64
        E 1 82 37 64
        E 1 83 36 67
        E 1 87 28 64
        E 0 95 29 63
        E 1 92 37 64
        E 0 93 38 66
        E 1 9b 48 65
        E 37 8e 47 65
        E 0 81 37 65
        E 1 82 37 64
        E 1 9a 29 64
        E 0 9f 49 64
        E 1 91 37 65
        E 1 92 38 67
        E 42 85 29 63
        E 1 8d 48 63
        E 1 80 38 64
        E 0 81 37 65
        E 1 98 29 65
        E 1 9e 48 64
        E 0 90 38 64
        E 1 91 39 64
        E 41 80 38 64
        E 0 84 38 65
        E 1 8c 48 64
        E 1 9d 49 66
        E 1 90 39 65
        E 0 94 38 65
        E 1 97 2a 64
        E 41 8a 29 64
        E 0 83 38 66
        E 1 84 38 65
        E 0 8b 48 65
        E 1 96 2a 65
        E 1 93 38 66
        E 0 94 3a 64
        E 1 9b 48 65
        E 0 9c 49 67
        E 38 88 29 65
        E 1 8f 49 64
        E 0 82 38 67
        E 1 83 38 66
        E 0 8b 48 65
        E 1 95 2a 66
        E 1 92 38 67
        E 0 93 3a 65
        E 1 9b 4a 64
        E 40 8e 48 64
        E 0 81 39 64
        E 1 82 38 67
        E 0 87 2a 64
        E 1 9a 2a 67
        E 1 9f 4a 65
        E 1 91 39 64
        E 0 92 3a 66
        E 40 86 2a 65
        E 0 8d 49 66
        E 1 80 39 65
        E 0 81 39 64
        E 1 98 2b 64
        E 0 9e 4b 64
        E 1 90 3b 64
        E 1 91 3a 67
        E 40 85 2a 66
        E 0 80 3b 64
        E 1 84 3a 64
        E 0 8c 49 67
        E 1 9d 4b 65
        E 0 90 3b 64
        E 1 94 3a 64
        E 0 97 2b 65
        E 41 8a 2a 67
        E 0 83 3a 65
        E 1 84 3a 64
        E 0 8b 4a 64
        E 1 96 2c 64
        E 0 93 3a 65
        E 1 94 3b 65
        E 0 9c 4b 66
        E 40 88 2b 64
        E 1 8f 4a 65
        E 0 82 3a 66
        E 1 83 3a 65
        E 1 95 2c 65
        E 0 92 3a 66
        E 1 93 3c 63
        E 1 9b 4b 67
        E 41 8e 4b 64
        E 0 81 3a 67
        E 1 82 3a 66
        E 1 87 2b 65
        E 0 9a 2c 66
        E 1 9f 4c 64
        E 1 91 3a 67
        E 0 92 3c 64
        E 39 86 2c 64
        E 1 8d 4b 65
        E 1 80 3b 64
        E 0 81 3a 67
        E 1 98 2c 67
        E 0 9e 4c 65
        E 1 90 3b 64
        E 0 91 3c 65
        E 41 85 2c 65
        E 1 80 3b 64
        E 0 84 3b 65
        E 1 8c 4b 66
        E 0 9d 4d 63
        E 1 90 3d 64
        E 1 94 3b 65
        E 0 97 2d 64
        E 39 8a 2c 66
        E 0 8f 4c 64
        E 1 83 3c 63
        E 0 84 3b 65
        E 1 8b 4b 67
        E 0 96 2d 65
        E 1 93 3c 63
        E 0 94 3d 65
        E 1 9c 4d 64
        E 43 88 2c 67
        E 1 8e 4c 65
        E 1 82 3c 64
        E 0 83 3c 63
        E 1 95 2e 64
        E 1 92 3c 64
        E 0 93 3d 66
        E 1 9b 4d 65
        E 38 8d 4d 63
        E 0 81 3c 65
        E 1 82 3c 64
        E 1 87 2d 64
        E 1 9a 2e 65
        E 1 9f 4e 64
        E 0 91 3c 65
        E 1 92 3d 67
        E 40 86 2d 65
        E 1 80 3d 64
        E 0 81 3c 65
        E 2 8c 4d 64
        E 0 98 2e 66
        E 1 9e 4e 65
        E 0 90 3d 64
        E 1 91 3e 64
        E 39 85 2e 64
        E 0 80 3d 64
        E 1 84 3d 65
        E 1 8b 4d 65
        E 0 9d 4e 66
        E 1 90 3e 65
        E 1 94 3d 65
        E 1 97 2e 67
        E 39 8f 4e 64
        E 0 83 3d 66
        E 1 84 3d 65
        E 1 96 2f 64
        E 0 93 3d 66
        E 1 94 3f 64
        E 1 9c 4e 67
        E 41 8a 2e 65
        E 1 8e 4e 65
        E 0 82 3d 67
        E 1 83 3d 66
        E 0 95 2f 65
        E 1 92 3d 67
        E 0 93 3f 65
        E 1 9b 4f 64
        E 41 88 2e 66
        E 0 8d 4e 66
        E 1 81 3e 64
        E 0 82 3d 67
        E 1 9a 30 63
        E 0 9f 4f 65
        E 1 91 3e 64
        E 0 92 3f 66
        E 41 80 3e 65
        E 1 81 3e 64
        E 1 87 2e 67
        E 1 8c 4e 67
        E 0 98 30 64
        E 1 9e 50 64
        E 1 90 3e 65
        E 0 91 3f 67
        E 38 86 2f 64
        E 1 80 3e 65
        E 1 84 3f 64
        E 0 8b 4f 64
        E 1 9d 50 65
        E 1 90 40 64
        E 0 94 3f 64
        E 1 97 30 65
        E 39 85 2f 65
        E 0 8f 4f 65
        E 1 83 3f 65
        E 0 84 3f 64
        E 0 96 31 64
        E 1 93 3f 65
        E 0 94 40 65
        E 1 9c 50 66
        E 41 8a 30 63
        E 1 8e 50 64
        E 0 82 3f 66
        E 1 83 3f 65
        E 1 95 31 65
        E 0 92 3f 66
        E 1 93 41 63
        E 0 9b 50 67
        E 40 88 30 64
        E 0 8d 50 65
        E 1 81 3f 67
        E 0 82 3f 66
        E 1 9a 31 66
        E 1 9f 51 64
        E 0 91 3f 67
        E 1 92 41 64
        E 42 80 40 64
        E 1 81 3f 67
        E 1 87 30 65
        E 0 8b 50 67
        E 1 8c 50 66
        E 1 98 31 67
        E 0 9e 51 65
        E 1 90 40 64
        E 1 91 41 65
        E 38 86 31 64
        E 0 8f 51 64
        E 1 80 40 64
        E 1 84 40 65
        E 0 9d 52 64
        E 0 90 42 64
        E 1 94 40 65
        E 0 97 32 64
        E 43 85 31 65
        E 0 8e 51 65
        E 1 83 41 63
        E 0 84 40 65
        E 1 96 32 65
        E 1 93 41 63
        E 0 94 42 65
        E 1 9c 52 65
        E 40 8a 31 66
        E 0 8d 52 64
        E 1 82 41 64
        E 1 83 41 63
        E 0 95 33 64
        E 1 92 41 64
        E 1 93 42 66
        E 0 9b 52 66
        E 41 88 31 67
        E 0 81 41 65
        E 1 82 41 64
        E 1 8c 52 65
        E 0 9a 33 65
        E 1 9f 52 67
        E 0 91 41 65
        E 1 92 42 67
        E 40 80 42 64
        E 1 81 41 65
        E 1 87 32 64
        E 0 8b 52 66
        E 1 98 33 66
        E 0 9e 53 64
        E 1 90 42 64
        E 1 91 43 64
        E 38 86 32 65
        E 0 8f 52 67
        E 1 80 42 64
        E 0 84 42 65
        E 1 9d 53 65
        E 1 90 43 65
        E 1 94 42 65
        E 0 97 33 67
        E 39 85 33 64
        E 1 83 42 66
        E 1 84 42 65
        E 0 96 34 64
        E 1 93 42 66
        E 1 94 44 64
        E 41 8a 33 65
        E 0 8d 53 65
        E 1 8e 53 64
        E 1 82 42 67
        E 1 83 42 66
        E 1 95 34 65
        E 0 9f 54 64
        E 0 92 42 67
        E 1 93 44 65
        E 1 9b 24 64
        E 38 88 33 66
        E 0 81 43 64
        E 1 82 42 67
        E 1 9a 35 63
        E 0 9e 54 65
        E 1 91 43 64
        E 0 92 44 66
        E 41 8f 54 64
        E 1 80 43 65
        E 0 81 43 64
        E 1 87 33 67
        E 1 8b 24 64
        E 1 98 35 64
        E 0 9d 25 64
        E 1 90 43 65
        E 0 91 44 67
        E 38 86 34 64
        E 1 8e 54 65
        E 1 80 43 65
        E 0 84 44 64
        E 1 90 45 64
        E 0 94 44 64
        E 1 97 35 65
        E 40 85 34 65
        E 1 8d 25 64
        E 0 83 44 65
        E 1 84 44 64
        E 1 96 36 64
        E 1 93 44 65
        E 0 94 45 65
        E 1 9b 25 66
        E 41 8a 35 63
        E 1 82 44 66
        E 0 83 44 65
        E 1 95 36 65
        E 0 9a 35 63
        E 1 92 44 66
        E 0 93 46 64
        E 44 88 35 64
        E 0 8a 35 63
        E 0 81 44 67
        E 1 82 44 66
        E 0 8b 25 66
        E 0 98 35 64
        E 0 9a 36 66
        E 0 9e 26 64
        E 0 91 44 67
        E 1 92 46 65
        E 40 88 35 64
        E 0 80 45 64
        E 0 81 44 67
        E 0 87 35 65
        E 0 98 36 67
        E 1 90 45 64
        E 0 91 46 66
        E 0 97 35 65
        E 43 86 36 64
        E 1 8e 26 64
        E 0 80 45 64
        E 0 84 45 65
        E 0 87 35 65
        E 1 96 36 64
        E 0 90 46 67
        E 0 97 37 64
        E 0 9c 27 64
        E 42 85 36 65
        E 0 86 36 64
        E 0 83 46 64
        E 1 95 36 65
        E 0 96 37 65
        E 0 94 47 64
        E 46 85 36 65
        E 0 8a 36 66
        E 0 82 46 65
        E 1 8c 27 64
        E 0 95 38 64
        E 0 9a 36 66
        E 0 9f 27 66
        E 1 93 47 65
        E 40 88 36 67
        E 0 8a 36 66
        E 0 81 46 66
        E 0 98 36 67
        E 1 9a 38 65
        E 0 92 48 63
        E 43 88 36 67
        E 0 8f 27 66
        E 1 80 46 67
        E 0 87 37 64
        E 0 98 38 66
        E 1 9d 28 64
        E 0 91 48 64
        E 0 97 37 64
        E 43 86 37 65
        E 1 84 47 64
        E 0 87 37 64
        E 1 96 37 65
        E 0 90 48 65
        E 0 97 38 67
        E 43 85 38 64
        E 0 86 37 65
        E 1 8d 28 64
        E 0 83 47 65
        E 1 95 38 64
        E 0 96 39 64
        E 0 94 49 64
        E 0 9b 29 63
        E 42 85 38 64
        E 0 8a 38 65
        E 0 82 48 63
        E 0 95 39 65
        E 1 9a 38 65
        E 0 9f 29 64
        E 0 93 48 64
        E 40 88 38 66
        E 0 8a 38 65
        E 1 81 48 64
        E 0 8b 29 63
        E 0 98 38 66
        E 1 9a 3a 64
        E 0 9e 29 65
        E 0 92 49 66
        E 44 88 38 66
        E 0 80 48 65
        E 0 87 38 67
        E 1 98 3a 65
        E 0 9d 2a 64
        E 0 90 48 65
        E 0 91 49 67
        E 0 97 38 67
        E 43 86 39 64
        E 1 8f 29 64
        E 0 80 48 65
        E 0 84 49 64
        E 0 87 38 67
        E 1 96 39 64
        E 0 90 4a 64
        E 0 97 3a 66
        E 0 9c 2a 65
        E 46 85 39 65
        E 0 86 39 64
        E 1 8e 29 65
        E 0 83 48 64
        E 0 95 3b 64
        E 1 96 3a 67
        E 0 94 4a 65
        E 0 9b 2a 66
        E 38 85 3b 64
        E 0 8a 3a 64
        E 0 8d 2a 64
        E 1 82 49 66
        E 0 95 3b 64
        E 0 9a 3a 64
        E 1 9f 2a 67
        E 0 93 4b 64
        E 45 88 3a 65
        E 1 8a 3a 64
        E 0 81 49 67
        E 1 8c 2a 65
        E 0 98 3a 65
        E 0 9a 3b 65
        E 0 9e 2b 64
        E 1 92 4b 65
        E 40 88 3a 65
        E 0 80 4a 64
        E 0 87 3a 66
        E 0 8b 2a 66
        E 0 98 3c 63
        E 1 9d 2b 65
        E 0 91 4b 66
        E 0 97 3a 66
        E 43 86 3a 67
        E 1 8f 2a 67
        E 0 84 4a 65
        E 1 87 3a 66
        E 0 96 3a 67
        E 1 90 4b 67
        E 0 97 3c 64
        E 0 9c 2c 64
        E 43 85 3b 64
        E 0 86 3a 67
        E 0 8e 2b 64
        E 1 83 4b 64
        E 0 95 3b 64
        E 0 96 3c 65
        E 0 94 4c 64
        E 1 9b 2c 65
        E 40 85 3b 64
        E 0 8a 3b 65
        E 0 8d 2b 65
        E 0 82 4b 65
        E 0 95 3d 64
        E 0 9a 3b 65
        E 0 9f 2c 66
        E 0 93 4c 65
        E 46 88 3c 63
        E 0 8a 3b 65
        E 0 81 4b 66
        E 1 8c 2c 64
        E 0 98 3c 63
        E 0 9a 3d 65
        E 0 9e 2c 67
        E 0 92 4d 63
        E 42 88 3c 63
        E 0 80 4b 67
        E 1 84 4c 64
        E 0 87 3c 64
        E 1 8b 2c 65
        E 0 98 3d 66
        E 0 9d 2d 64
        E 0 91 4d 64
        E 1 97 3c 64
        E 43 86 3c 65
        E 0 8f 2c 66
        E 1 83 4c 65
        E 0 87 3c 64
        E 0 96 3c 65
        E 1 90 4d 65
        E 0 97 3d 67
        E 0 9c 2d 65
        E 43 85 3d 64
        E 0 86 3c 65
        E 1 8e 2c 67
        E 0 82 4d 63
        E 0 95 3d 64
        E 0 96 3e 64
        E 0 94 4e 64
        E 0 9b 2e 64
        E 41 85 3d 64
        E 0 8a 3d 65
        E 0 8d 2d 64
        E 1 81 4d 64
        E 0 95 3e 65
        E 1 9a 3d 65
        E 0 9f 2e 65
        E 0 93 4e 65
        E 42 88 3d 66
        E 0 8a 3d 65
        E 1 80 4d 65
        E 0 8c 2d 65
        E 0 98 3d 66
        E 0 9a 3f 64
        E 0 9e 2e 66
        E 0 92 4e 66
        E 47 88 3d 66
        E 0 84 4e 64
        E 0 87 3d 67
        E 1 8b 2e 64
        E 0 98 3f 65
        E 0 9d 2e 67
        E 1 91 4e 67
        E 0 97 3d 67
        E 40 86 3e 64
        E 0 83 4e 65
        E 1 87 3d 67
        E 0 96 3e 64
        E 1 90 4f 64
        E 0 97 3f 66
        E 0 9c 2f 64
        E 41 85 3e 65
        E 0 86 3e 64
        E 1 8f 2e 65
        E 0 82 4e 66
        E 0 95 3e 65
        E 1 96 3f 67
        E 0 94 4f 65
        E 0 9b 2f 65
        E 44 85 3e 65
        E 0 8a 3f 64
        E 0 8e 2e 66
        E 1 81 4e 67
        E 0 95 40 64
        E 0 9a 3f 64
        E 0 9f 30 63
        E 1 93 50 64
        E 41 88 3f 65
        E 0 8a 3f 64
        E 1 8d 2e 67
        E 0 80 4f 64
        E 0 98 3f 65
        E 0 9a 40 65
        E 1 9e 30 64
        E 0 92 50 65
        E 44 88 3f 65
        E 0 84 4f 65
        E 0 87 3f 66
        E 1 8c 2f 64
        E 0 98 41 63
        E 0 9d 30 65
        E 1 91 50 66
        E 0 97 3f 66
        E 43 86 3f 67
        E 1 83 50 64
        E 0 87 3f 66
        E 1 8b 2f 65
        E 0 96 3f 67
        E 0 90 50 67
        E 0 97 41 64
        E 1 9c 31 64
        E 41 85 40 64
        E 0 86 3f 67
        E 0 8f 30 63
        E 0 82 50 65
        E 1 95 40 64
        E 0 96 41 65
        E 0 94 51 64
        E 1 9b 31 65
        E 42 85 40 64
        E 0 8a 40 65
        E 0 8e 30 64
        E 1 80 50 67
        E 0 81 50 66
        E 0 95 42 64
        E 1 9a 40 65
        E 0 9f 31 66
        E 1 93 51 65
        E 40 88 41 63
        E 1 8a 40 65
        E 0 8d 30 65
        E 0 84 51 64
        E 1 98 41 63
        E 1 9a 42 65
        E 0 9e 31 67
        E 0 92 52 64
        E 41 88 41 63
        E 0 83 51 65
        E 1 87 41 64
        E 0 8c 31 64
        E 0 98 42 66
        E 0 9d 32 64
        E 1 91 52 65
        E 0 97 41 64
        E 42 86 41 65
        E 1 82 52 64
        E 0 87 41 64
        E 1 8b 31 65
        E 0 96 41 65
        E 0 90 52 66
        E 1 97 42 67
        E 0 9c 32 65
        E 40 85 42 64
        E 1 86 41 65
        E 0 8f 31 66
        E 0 81 52 65
        E 1 95 42 64
        E 0 96 43 64
        E 1 94 52 67
        E 0 9b 33 64
        E 45 85 42 64
        E 1 8a 42 65
        E 0 8e 31 67
        E 0 80 52 66
        E 1 95 43 65
        E 0 9a 42 65
        E 0 9f 33 65
        E 1 93 53 64
        E 41 88 42 66
        E 0 8a 42 65
        E 1 8d 32 64
        E 0 84 52 67
        E 1 98 42 66
        E 0 9a 44 64
        E 0 9e 33 66
        E 0 92 53 65
        E 42 88 42 66
        E 0 87 42 67
        E 0 8c 32 65
        E 0 98 44 65
        E 0 9d 33 67
        E 1 97 42 67
        E 43 85 43 65
        E 0 86 43 64
        E 1 88 44 65
        E 0 8a 44 64
        E 0 8d 33 67
        E 0 8e 33 66
        E 0 8f 33 65
        E 1 82 53 65
        E 0 83 53 64
        E 0 87 42 67
        E 0 8b 33 64
        E 1 95 43 65
        E 0 96 43 64
        E 0 98 44 65
        E 0 9a 44 64
        E 0 9d 33 67
        E 1 9e 33 66
        E 0 9f 33 65
        E 0 90 24 64
        E 0 94 54 64
        E 0 97 44 66
        E 1 9c 34 64
        E 34 86 43 64
        E 0 8f 33 65
        E 0 96 44 67
        E 1 93 54 65
        E 0 9b 34 65
        E 42 85 43 65
        E 0 8e 33 66
        E 1 80 24 64
        E 0 84 54 64
        E 0 95 45 64
        E 0 9f 35 63
        E 1 92 25 64
        E 38 8a 44 64
        E 1 8d 33 67
        E 0 83 54 65
        E 1 9a 45 65
        E 0 9e 35 64
        E 38 88 44 65
        E 1 82 25 64
        E 0 87 44 66
        E 0 8c 34 64
        E 1 98 46 64
        E 0 9d 35 65
        E 1 90 25 66
        E 0 97 44 66
        E 38 86 44 67
        E 0 87 44 66
        E 1 8b 34 65
        E 0 96 44 67
        E 0 97 46 65
        E 0 9c 36 64
        E 40 85 45 64
        E 0 86 44 67
        E 0 8f 35 63
        E 1 80 25 66
        E 0 95 45 64
        E 0 96 46 66
        E 0 9f 35 63
        E 0 93 26 64
        E 0 9b 36 65
        E 42 85 45 64
        E 0 8a 45 65
        E 0 8e 35 64
        E 0 8f 35 63
        E 1 95 46 67
        E 0 9e 35 64
        E 0 9f 36 66
        E 41 88 46 64
        E 0 8d 35 65
        E 0 8e 35 64
        E 1 83 26 64
        E 0 9a 47 64
        E 0 9d 35 65
        E 0 9e 36 67
        E 1 91 27 64
        E 40 8d 35 65
        E 1 87 46 65
        E 0 8c 36 64
        E 1 98 47 65
        E 0 9d 37 64
        E 0 9c 36 64
        E 36 86 46 66
        E 0 81 27 64
        E 1 8b 36 65
        E 0 8c 36 64
        E 0 94 27 66
        E 0 97 48 63
        E 1 9b 36 65
        E 0 9c 37 65
        E 40 85 46 67
        E 0 8f 36 66
        E 0 8b 36 65
        E 1 96 48 64
        E 0 9f 36 66
        E 0 9b 38 64
        E 41 8a 47 64
        E 0 8e 36 67
        E 0 8f 36 66
        E 0 84 27 66
        E 1 95 48 65
        E 0 9e 36 67
        E 0 9f 38 65
        E 0 92 28 64
        E 39 88 47 65
        E 0 8d 37 64
        E 1 8e 36 67
        E 0 9a 49 64
        E 0 9d 37 64
        E 0 9e 38 66
        E 40 8d 37 64
        E 0 82 28 64
        E 0 87 48 63
        E 1 8c 37 65
        E 0 98 48 64
        E 0 9d 38 67
        E 0 90 29 63
        E 1 9c 37 65
        E 40 86 48 64
        E 0 8b 38 64
        E 1 8c 37 65
        E 0 94 29 64
        E 0 97 49 66
        E 1 9b 38 64
        E 0 9c 39 64
        E 40 85 48 65
        E 1 8f 38 65
        E 0 80 29 63
        E 0 8b 38 64
        E 0 95 48 65
        E 1 96 49 67
        E 0 9f 38 65
        E 0 93 29 65
        E 1 9b 39 65
        E 38 85 48 65
        E 0 8a 49 64
        E 1 8e 38 66
        E 0 8f 38 65
        E 1 95 4a 64
        E 0 9e 38 66
        E 1 9f 3a 64
        E 0 92 2a 64
        E 37 88 48 64
        E 1 8d 38 67
        E 0 8e 38 66
        E 0 84 29 64
        E 1 9a 4a 65
        E 0 9d 38 67
        E 0 9e 3a 65
        E 1 91 2a 65
        E 41 8d 38 67
        E 0 83 29 65
        E 1 87 49 66
        E 0 8c 39 64
        E 0 98 4b 64
        E 1 9d 3a 66
        E 0 90 2a 66
        E 1 9c 39 64
        E 36 86 49 67
        E 0 82 2a 64
        E 0 8b 39 65
        E 1 8c 39 64
        E 0 94 2a 67
        E 0 97 4b 65
        E 1 9b 3b 64
        E 0 9c 3a 67
        E 39 85 4a 64
        E 0 8f 3a 64
        E 0 81 2a 65
        E 0 8b 3b 64
        E 1 96 4b 66
        E 0 9f 3a 64
        E 0 93 2b 64
        E 1 9b 3b 64
        E 40 8a 4a 65
        E 0 8e 3a 65
        E 1 8f 3a 64
        E 0 80 2a 66
        E 1 95 4b 67
        E 0 9e 3a 65
        E 0 9f 3b 65
        E 0 92 2b 65
        E 41 88 4b 64
        E 0 8d 3a 66
        E 0 8e 3a 65
        E 1 84 2a 67
        E 0 9a 4c 64
        E 1 9d 3a 66
        E 0 9e 3c 63
        E 1 91 2c 64
        E 34 8d 3a 66
        E 0 83 2b 64
        E 1 87 4b 65
        E 0 8c 3a 67
        E 0 98 4c 65
        E 1 9d 3c 64
        E 0 90 2c 65
        E 0 9c 3a 67
        E 43 86 4b 66
        E 0 82 2b 65
        E 0 8b 3b 64
        E 1 8c 3a 67
        E 0 94 2c 66
        E 0 97 4d 63
        E 0 9b 3b 64
        E 1 9c 3c 65
        E 38 85 4b 67
        E 1 8a 4c 64
        E 0 8f 3b 65
        E 0 81 2c 64
        E 1 8b 3b 64
        E 0 96 4d 64
        E 1 9f 3b 65
        E 0 93 2c 67
        E 0 9b 3d 64
        E 37 88 4c 65
        E 0 8e 3c 63
        E 1 8f 3b 65
        E 0 80 2c 65
        E 0 95 4d 65
        E 0 9e 3c 63
        E 0 9f 3d 65
        E 1 92 2d 64
        E 41 8d 3c 64
        E 0 8e 3c 63
        E 1 84 2c 66
        E 0 87 4d 63
        E 0 9a 4e 64
        E 1 9d 3c 64
        E 0 9e 3d 66
        E 1 91 2d 65
        E 36 86 4d 64
        E 0 8d 3c 64
        E 0 83 2c 67
        E 1 8c 3c 65
        E 0 98 4e 65
        E 1 9d 3d 67
        E 0 90 2e 64
        E 0 9c 3c 65
        E 40 85 4d 65
        E 0 82 2d 64
        E 0 8b 3d 64
        E 1 8c 3c 65
        E 0 94 2e 65
        E 0 97 4e 66
        E 0 9b 3d 64
        E 0 9c 3e 64
        E 38 8a 4e 64
        E 0 8f 3d 65
        E 0 81 2d 65
        E 1 8b 3d 64
        E 1 96 4e 67
        E 0 9f 3d 65
        E 1 93 2e 66
        E 0 9b 3e 65
        E 38 88 4e 65
        E 0 8e 3d 66
        E 0 8f 3d 65
        E 1 80 2e 64
        E 0 95 4f 64
        E 0 9e 3d 66
        E 1 9f 3f 64
        E 0 92 2e 67
        E 42 8d 3d 67
        E 0 8e 3d 66
        E 0 87 4e 66
        E 1 9a 4f 65
        E 0 9d 3d 67
        E 1 9e 3f 65
        E 0 91 2f 64
        E 40 86 4e 67
        E 0 8d 3d 67
        E 0 84 2e 65
        E 1 8c 3e 64
        E 0 98 50 64
        E 0 9d 3f 66
        E 0 90 2f 65
        E 1 9c 3e 64
        E 36 85 4f 64
        E 1 83 2e 66
        E 0 8b 3e 65
        E 0 8c 3e 64
        E 0 94 30 63
        E 0 97 50 65
        E 1 9b 3e 65
        E 0 9c 3f 67
        E 41 8a 4f 65
        E 0 8f 3f 64
        E 1 82 2e 67
        E 0 8b 3e 65
        E 0 96 50 66
        E 1 9f 3f 64
        E 0 93 30 64
        E 0 9b 40 64
        E 40 88 50 64
        E 0 8e 3f 65
        E 0 8f 3f 64
        E 1 81 2f 64
        E 0 95 50 67
        E 1 9e 3f 65
        E 0 9f 40 65
        E 0 92 30 65
        E 39 8d 3f 66
        E 1 8e 3f 65
        E 0 80 2f 65
        E 1 87 50 65
        E 0 9a 51 64
        E 0 9d 3f 66
        E 0 9e 41 63
        E 1 91 31 64
        E 34 85 50 67
        E 1 86 50 66
        E 0 8d 3f 66
        E 0 84 30 63
        E 1 8c 3f 67
        E 0 98 51 65
        E 0 9d 41 64
        E 0 90 31 65
        E 1 9c 3f 67
        E 41 8a 51 64
        E 0 83 30 64
        E 0 8b 40 64
        E 1 8c 3f 67
        E 0 94 31 66
        E 1 97 52 64
        E 0 9b 40 64
        E 0 9c 41 65
        E 38 88 51 65
        E 0 8f 40 65
        E 0 82 30 65
        E 0 8b 40 64
        E 0 96 52 65
        E 0 9f 40 65
        E 1 93 31 67
        E 0 9b 42 64
        E 44 8e 41 63
        E 1 8f 40 65
        E 0 81 31 64
        E 0 87 52 64
        E 0 95 52 66
        E 0 9e 41 63
        E 0 9f 42 65
        E 0 92 32 64
        E 39 86 52 65
        E 0 8d 41 64
        E 1 8e 41 63
        E 0 80 31 65
        E 0 9a 52 67
        E 0 9d 41 64
        E 1 9e 42 66
        E 0 91 32 65
        E 41 85 52 66
        E 0 8d 41 64
        E 1 84 31 66
        E 0 8c 41 65
        E 0 98 53 64
        E 0 9d 42 67
        E 0 90 33 64
        E 0 9c 41 65
        E 36 8a 52 67
        E 0 83 31 67
        E 1 8b 42 64
        E 0 8c 41 65
        E 1 94 33 65
        E 0 97 53 65
        E 0 9b 42 64
        E 0 9c 43 64
        E 39 8f 42 65
        E 0 82 32 64
        E 0 8b 42 64
        E 1 9f 42 65
        E 0 93 33 66
        E 0 9b 43 65
        E 41 88 53 64
        E 0 8e 42 66
        E 0 8f 42 65
        E 0 81 32 65
        E 1 87 53 65
        E 0 95 24 64
        E 0 9a 54 64
        E 1 9e 42 66
        E 0 9f 44 64
        E 0 92 33 67
        E 40 8d 42 67
        E 0 8e 42 66
        E 0 80 33 64
        E 0 98 54 65
        E 0 9d 42 67
        E 0 9e 44 65
        E 1 91 34 64
        E 38 85 24 64
        E 0 8a 54 64
        E 0 8d 42 67
        E 1 84 33 65
        E 0 8c 43 64
        E 0 9d 44 66
        E 1 90 34 65
        E 0 97 25 64
        E 0 9c 43 64
        E 41 88 54 65
        E 0 83 33 66
        E 0 8b 43 65
        E 0 8c 43 64
        E 1 94 35 63
        E 0 9b 43 65
        E 0 9c 44 67
        E 41 8f 44 64
        E 0 82 33 67
        E 1 87 25 64
        E 0 8b 43 65
        E 0 95 25 66
        E 1 9f 44 64
        E 0 93 35 64
        E 0 9b 45 64
        E 37 8e 44 65
        E 1 8f 44 64
        E 0 81 34 64
        E 0 9e 44 65
        E 0 9f 45 65
        E 1 92 35 65
        E 41 85 25 66
        E 0 8d 44 66
        E 0 8e 44 65
        E 0 80 34 65
        E 1 98 26 64
        E 0 9d 44 66
        E 0 9e 46 64
        E 1 91 36 64
        E 38 8d 44 66
        E 0 84 35 63
        E 0 8c 44 67
        E 0 9d 46 65
        E 0 90 36 65
        E 1 94 35 63
        E 0 9c 44 67
        E 40 88 26 64
        E 0 83 35 64
        E 0 84 35 63
        E 0 8b 45 64
        E 0 8c 44 67
        E 0 96 27 64
        E 1 93 35 64
        E 0 94 36 66
        E 0 9b 45 64
        E 0 9c 46 66
        E 42 8f 45 65
        E 0 82 35 65
        E 1 83 35 64
        E 0 8b 45 64
        E 1 92 35 65
        E 0 93 36 67
        E 0 9b 46 67
        E 39 86 27 64
        E 0 8e 46 64
        E 1 81 36 64
        E 0 82 35 65
        E 0 9a 27 66
        E 1 9f 47 64
        E 0 91 36 64
        E 0 92 37 64
        E 38 8d 46 65
        E 0 80 36 65
        E 0 81 36 64
        E 1 9e 47 65
        E 0 90 36 65
        E 0 91 37 65
        E 40 8a 27 66
        E 0 80 36 65
        E 1 84 36 66
        E 0 8c 46 66
        E 0 9d 48 63
        E 1 90 38 64
        E 0 94 36 66
        E 0 97 28 64
        E 36 83 36 67
        E 0 84 36 66
        E 0 8b 46 67
        E 1 93 36 67
        E 0 94 38 65
        E 0 9c 48 64
        E 43 8f 47 64
        E 1 82 37 64
        E 0 83 36 67
        E 0 87 28 64
        E 1 95 29 63
        E 0 92 37 64
        E 1 93 38 66
        E 0 9b 48 65
        E 38 8e 47 65
        E 0 81 37 65
        E 0 82 37 64
        E 1 9a 29 64
        E 0 9f 49 64
        E 0 91 37 65
        E 0 92 38 67
        E 41 85 29 63
        E 0 8d 48 63
        E 0 80 38 64
        E 0 81 37 65
        E 1 98 29 65
        E 0 9e 48 64
        E 0 90 38 64
        E 1 91 39 64
        E 38 80 38 64
        E 0 84 38 65
        E 1 8c 48 64
        E 0 9d 49 66
        E 0 90 39 65
        E 0 94 38 65
        E 1 97 2a 64
        E 39 8a 29 64
        E 1 83 38 66
        E 0 84 38 65
        E 0 8b 48 65
        E 1 96 2a 65
        E 0 93 38 66
        E 1 94 3a 64
        E 0 9b 48 65
        E 0 9c 49 67
        E 38 88 29 65
        E 0 8f 49 64
        E 0 82 38 67
        E 1 83 38 66
        E 0 8b 48 65
        E 1 95 2a 66
        E 0 92 38 67
        E 0 93 3a 65
        E 1 9b 4a 64
        E 40 8e 48 64
        E 0 81 39 64
        E 0 82 38 67
        E 1 87 2a 64
        E 0 9a 2a 67
        E 1 9f 4a 65
        E 0 91 39 64
        E 0 92 3a 66
        E 38 86 2a 65
        E 0 8d 49 66
        E 0 80 39 65
        E 0 81 39 64
        E 0 98 2b 64
        E 1 9e 4b 64
        E 0 90 3b 64
        E 0 91 3a 67
        E 40 85 2a 66
        E 0 80 3b 64
        E 0 84 3a 64
        E 0 8c 49 67
        E 1 9d 4b 65
        E 0 90 3b 64
        E 0 94 3a 64
        E 1 97 2b 65
        E 39 8a 2a 67
        E 1 83 3a 65
        E 0 84 3a 64
        E 1 8b 4a 64
        E 0 96 2c 64
        E 0 93 3a 65
        E 1 94 3b 65
        E 0 9c 4b 66
        E 38 88 2b 64
        E 0 8f 4a 65
        E 1 82 3a 66
        E 0 83 3a 65
        E 1 95 2c 65
        E 0 92 3a 66
        E 0 93 3c 63
        E 1 9b 4b 67
        E 39 8e 4b 64
        E 0 81 3a 67
        E 0 82 3a 66
        E 0 87 2b 65
        E 1 9a 2c 66
        E 0 9f 4c 64
        E 0 91 3a 67
        E 0 92 3c 64
        E 41 86 2c 64
        E 1 8d 4b 65
        E 0 80 3b 64
        E 0 81 3a 67
        E 1 98 2c 67
        E 0 9e 4c 65
        E 0 90 3b 64
        E 0 91 3c 65
        E 37 85 2c 65
        E 0 80 3b 64
        E 0 84 3b 65
        E 0 8c 4b 66
        E 0 9d 4d 63
        E 0 90 3d 64
        E 1 94 3b 65
        E 0 97 2d 64
        E 37 8a 2c 66
        E 1 8f 4c 64
        E 0 83 3c 63
        E 0 84 3b 65
        E 0 8b 4b 67
        E 0 96 2d 65
        E 1 93 3c 63
        E 0 94 3d 65
        E 0 9c 4d 64
        E 38 88 2c 67
        E 0 8e 4c 65
        E 0 82 3c 64
        E 1 83 3c 63
        E 0 95 2e 64
        E 0 92 3c 64
        E 0 93 3d 66
        E 0 9b 4d 65
        E 37 8d 4d 63
        E 0 81 3c 65
        E 0 82 3c 64
        E 0 87 2d 64
        E 1 9a 2e 65
        E 0 9f 4e 64
        E 0 91 3c 65
        E 0 92 3d 67
        E 36 86 2d 65
        E 0 80 3d 64
        E 0 81 3c 65
        E 0 8c 4d 64
        E 1 98 2e 66
        E 0 9e 4e 65
        E 0 90 3d 64
        E 0 91 3e 64
        E 37 85 2e 64
        E 0 80 3d 64
        E 0 84 3d 65
        E 1 8b 4d 65
        E 0 9d 4e 66
        E 0 90 3e 65
        E 0 94 3d 65
        E 0 97 2e 67
        E 39 8f 4e 64
        E 0 83 3d 66
        E 0 84 3d 65
        E 1 96 2f 64
        E 0 93 3d 66
        E 0 94 3f 64
        E 0 9c 4e 67
        E 38 8a 2e 65
        E 0 8e 4e 65
        E 0 82 3d 67
        E 0 83 3d 66
        E 1 95 2f 65
        E 0 92 3d 67
        E 0 93 3f 65
        E 1 9b 4f 64
        E 35 88 2e 66
        E 0 8d 4e 66
        E 0 81 3e 64
        E 1 82 3d 67
        E 0 9a 30 63
        E 0 9f 4f 65
        E 1 91 3e 64
        E 0 92 3f 66
        E 36 80 3e 65
        E 1 81 3e 64
        E 0 87 2e 67
        E 0 8c 4e 67
        E 0 98 30 64
        E 1 9e 50 64
        E 0 90 3e 65
        E 0 91 3f 67
        E 36 86 2f 64
        E 0 80 3e 65
        E 0 84 3f 64
        E 0 8b 4f 64
        E 0 9d 50 65
        E 1 90 40 64
        E 0 94 3f 64
        E 0 97 30 65
        E 39 85 2f 65
        E 0 8f 4f 65
        E 1 83 3f 65
        E 0 84 3f 64
        E 0 96 31 64
        E 1 93 3f 65
        E 0 94 40 65
        E 0 9c 50 66
        E 36 8a 30 63
        E 0 8e 50 64
        E 1 82 3f 66
        E 0 83 3f 65
        E 0 95 31 65
        E 1 92 3f 66
        E 0 93 41 63
        E 0 9b 50 67
        E 35 88 30 64
        E 0 8d 50 65
        E 1 81 3f 67
        E 0 82 3f 66
        E 1 9a 31 66
        E 0 9f 51 64
        E 1 91 3f 67
        E 0 92 41 64
        E 37 80 40 64
        E 0 81 3f 67
        E 0 87 30 65
        E 1 8b 50 67
        E 0 8c 50 66
        E 1 98 31 67
        E 0 9e 51 65
        E 0 90 40 64
        E 1 91 41 65
        E 35 86 31 64
        E 1 8f 51 64
        E 0 80 40 64
        E 0 84 40 65
        E 1 9d 52 64
        E 0 90 42 64
        E 0 94 40 65
        E 0 97 32 64
        E 37 85 31 65
        E 0 8e 51 65
        E 1 83 41 63
        E 0 84 40 65
        E 0 96 32 65
        E 1 93 41 63
        E 0 94 42 65
        E 0 9c 52 65
        E 37 8a 31 66
        E 0 8d 52 64
        E 0 82 41 64
        E 1 83 41 63
        E 0 95 33 64
        E 1 92 41 64
        E 0 93 42 66
        E 0 9b 52 66
        E 36 88 31 67
        E 0 81 41 65
        E 0 82 41 64
        E 0 8c 52 65
        E 1 9a 33 65
        E 0 9f 52 67
        E 0 91 41 65
        E 1 92 42 67
        E 38 80 42 64
        E 0 81 41 65
        E 1 87 32 64
        E 0 8b 52 66
        E 0 98 33 66
        E 0 9e 53 64
        E 0 90 42 64
        E 0 91 43 64
        E 35 86 32 65
        E 0 8f 52 67
        E 1 80 42 64
        E 0 84 42 65
        E 0 9d 53 65
        E 1 90 43 65
        E 0 94 42 65
        E 0 97 33 67
        E 36 85 33 64
        E 0 83 42 66
        E 0 84 42 65
        E 1 96 34 64
        E 0 93 42 66
        E 0 94 44 64
        E 37 8a 33 65
        E 1 8d 53 65
        E 0 8e 53 64
        E 1 82 42 67
        E 0 83 42 66
        E 0 95 34 65
        E 0 9f 54 64
        E 1 92 42 67
        E 0 93 44 65
        E 0 9b 24 64
        E 36 88 33 66
        E 1 81 43 64
        E 0 82 42 67
        E 0 9a 35 63
        E 0 9e 54 65
        E 1 91 43 64
        E 0 92 44 66
        E 38 8f 54 64
        E 0 80 43 65
        E 1 81 43 64
        E 0 87 33 67
        E 0 8b 24 64
        E 1 98 35 64
        E 0 9d 25 64
        E 0 90 43 65
        E 0 91 44 67
        E 36 86 34 64
        E 0 8e 54 65
        E 1 80 43 65
        E 0 84 44 64
        E 0 90 45 64
        E 1 94 44 64
        E 0 97 35 65
        E 37 85 34 65
        E 0 8d 25 64
        E 0 83 44 65
        E 0 84 44 64
        E 0 96 36 64
        E 0 93 44 65
        E 1 94 45 65
        E 0 9b 25 66
        E 36 8a 35 63
        E 0 82 44 66
        E 1 83 44 65
        E 0 95 36 65
        E 0 9a 35 63
        E 0 92 44 66
        E 1 93 46 64
        E 35 88 35 64
        E 0 8a 35 63
        E 0 81 44 67
        E 0 82 44 66
        E 1 8b 25 66
        E 0 98 35 64
        E 0 9a 36 66
        E 1 9e 26 64
        E 0 91 44 67
        E 0 92 46 65
        E 37 88 35 64
        E 0 80 45 64
        E 1 81 44 67
        E 0 87 35 65
        E 0 98 36 67
        E 1 90 45 64
        E 0 91 46 66
        E 0 97 35 65
        E 39 86 36 64
        E 0 8e 26 64
        E 0 80 45 64
        E 1 84 45 65
        E 0 87 35 65
        E 1 96 36 64
        E 0 90 46 67
        E 0 97 37 64
        E 0 9c 27 64
        E 32 85 36 65
        E 0 86 36 64
        E 1 83 46 64
        E 0 95 36 65
        E 0 96 37 65
        E 1 94 47 64
        E 39 85 36 65
        E 1 8a 36 66
        E 0 82 46 65
        E 1 8c 27 64
        E 0 95 38 64
        E 0 9a 36 66
        E 1 9f 27 66
        E 0 93 47 65
        E 36 88 36 67
        E 0 8a 36 66
        E 0 81 46 66
        E 0 98 36 67
        E 0 9a 38 65
        E 0 92 48 63
        E 37 88 36 67
        E 0 8f 27 66
        E 0 80 46 67
        E 0 87 37 64
        E 0 98 38 66
        E 0 9d 28 64
        E 1 91 48 64
        E 0 97 37 64
        E 39 86 37 65
        E 1 84 47 64
        E 0 87 37 64
        E 0 96 37 65
        E 1 90 48 65
        E 0 97 38 67
        E 37 85 38 64
        E 1 86 37 65
        E 0 8d 28 64
        E 0 83 47 65
        E 1 95 38 64
        E 0 96 39 64
        E 1 94 49 64
        E 0 9b 29 63
        E 34 85 38 64
        E 0 8a 38 65
        E 1 82 48 63
        E 0 95 39 65
        E 0 9a 38 65
        E 0 9f 29 64
        E 1 93 48 64
        E 36 88 38 66
        E 0 8a 38 65
        E 0 81 48 64
        E 0 8b 29 63
        E 0 98 38 66
        E 1 9a 3a 64
        E 0 9e 29 65
        E 1 92 49 66
        E 37 88 38 66
        E 0 80 48 65
        E 1 87 38 67
        E 0 98 3a 65
        E 0 9d 2a 64
        E 1 90 48 65
        E 0 91 49 67
        E 0 97 38 67
        E 36 86 39 64
        E 0 8f 29 64
        E 0 80 48 65
        E 0 84 49 64
        E 1 87 38 67
        E 0 96 39 64
        E 1 90 4a 64
        E 0 97 3a 66
        E 1 9c 2a 65
        E 36 85 39 65
        E 0 86 39 64
        E 1 8e 29 65
        E 0 83 48 64
        E 0 95 3b 64
        E 0 96 3a 67
        E 1 94 4a 65
        E 0 9b 2a 66
        E 35 85 3b 64
        E 0 8a 3a 64
        E 0 8d 2a 64
        E 0 82 49 66
        E 1 95 3b 64
        E 0 9a 3a 64
        E 0 9f 2a 67
        E 0 93 4b 64
        E 39 88 3a 65
        E 0 8a 3a 64
        E 0 81 49 67
        E 0 8c 2a 65
        E 0 98 3a 65
        E 1 9a 3b 65
        E 0 9e 2b 64
        E 0 92 4b 65
        E 36 88 3a 65
        E 1 80 4a 64
        E 0 87 3a 66
        E 1 8b 2a 66
        E 0 98 3c 63
        E 1 9d 2b 65
        E 0 91 4b 66
        E 0 97 3a 66
        E 37 86 3a 67
        E 1 8f 2a 67
        E 0 84 4a 65
        E 0 87 3a 66
        E 1 96 3a 67
        E 0 90 4b 67
        E 0 97 3c 64
        E 1 9c 2c 64
        E 35 85 3b 64
        E 0 86 3a 67
        E 1 8e 2b 64
        E 0 83 4b 64
        E 0 95 3b 64
        E 0 96 3c 65
        E 1 94 4c 64
        E 0 9b 2c 65
        E 35 85 3b 64
        E 0 8a 3b 65
        E 1 8d 2b 65
        E 0 82 4b 65
        E 0 95 3d 64
        E 1 9a 3b 65
        E 0 9f 2c 66
        E 0 93 4c 65
        E 37 88 3c 63
        E 0 8a 3b 65
        E 0 81 4b 66
        E 0 8c 2c 64
        E 1 98 3c 63
        E 0 9a 3d 65
        E 1 9e 2c 67
        E 0 92 4d 63
        E 36 88 3c 63
        E 0 80 4b 67
        E 1 84 4c 64
        E 0 87 3c 64
        E 1 8b 2c 65
        E 0 98 3d 66
        E 1 9d 2d 64
        E 0 91 4d 64
        E 0 97 3c 64
        E 37 86 3c 65
        E 0 8f 2c 66
        E 1 83 4c 65
        E 0 87 3c 64
        E 0 96 3c 65
        E 0 90 4d 65
        E 0 97 3d 67
        E 1 9c 2d 65
        E 36 85 3d 64
        E 1 86 3c 65
        E 0 8e 2c 67
        E 1 82 4d 63
        E 0 95 3d 64
        E 0 96 3e 64
        E 0 94 4e 64
        E 1 9b 2e 64
        E 35 85 3d 64
        E 0 8a 3d 65
        E 0 8d 2d 64
        E 1 81 4d 64
        E 0 95 3e 65
        E 0 9a 3d 65
        E 0 9f 2e 65
        E 1 93 4e 65
        E 36 88 3d 66
        E 0 8a 3d 65
        E 1 80 4d 65
        E 0 8c 2d 65
        E 0 98 3d 66
        E 0 9a 3f 64
        E 0 9e 2e 66
        E 1 92 4e 66
        E 36 88 3d 66
        E 0 84 4e 64
        E 0 87 3d 67
        E 1 8b 2e 64
        E 0 98 3f 65
        E 0 9d 2e 67
        E 1 91 4e 67
        E 0 97 3d 67
        E 36 86 3e 64
        E 0 83 4e 65
        E 0 87 3d 67
        E 0 96 3e 64
        E 1 90 4f 64
        E 0 97 3f 66
        E 0 9c 2f 64
        E 41 85 3e 65
        E 0 86 3e 64
        E 0 8f 2e 65
        E 1 82 4e 66
        E 0 95 3e 65
        E 1 96 3f 67
        E 0 94 4f 65
        E 0 9b 2f 65
        E 35 85 3e 65
        E 0 8a 3f 64
        E 0 8e 2e 66
        E 0 81 4e 67
        E 1 95 40 64
        E 0 9a 3f 64
        E 0 9f 30 63
        E 1 93 50 64
        E 36 88 3f 65
        E 0 8a 3f 64
        E 0 8d 2e 67
        E 0 80 4f 64
        E 1 98 3f 65
        E 0 9a 40 65
        E 0 9e 30 64
        E 0 92 50 65
        E 36 88 3f 65
        E 1 84 4f 65
        E 0 87 3f 66
        E 0 8c 2f 64
        E 1 98 41 63
        E 0 9d 30 65
        E 0 91 50 66
        E 0 97 3f 66
        E 38 86 3f 67
        E 1 83 50 64
        E 0 87 3f 66
        E 1 8b 2f 65
        E 0 96 3f 67
        E 0 90 50 67
        E 0 97 41 64
        E 0 9c 31 64
        E 35 85 40 64
        E 0 86 3f 67
        E 1 8f 30 63
        E 0 82 50 65
        E 0 95 40 64
        E 0 96 41 65
        E 1 94 51 64
        E 0 9b 31 65
        E 36 85 40 64
        E 1 8a 40 65
        E 0 8e 30 64
        E 0 80 50 67
        E 1 81 50 66
        E 0 95 42 64
        E 1 9a 40 65
        E 0 9f 31 66
        E 0 93 51 65
        E 36 88 41 63
        E 0 8a 40 65
        E 1 8d 30 65
        E 0 84 51 64
        E 0 98 41 63
        E 1 9a 42 65
        E 0 9e 31 67
        E 1 92 52 64
        E 36 88 41 63
        E 0 83 51 65
        E 1 87 41 64
        E 0 8c 31 64
        E 1 98 42 66
        E 0 9d 32 64
        E 0 91 52 65
        E 1 97 41 64
        E 34 86 41 65
        E 0 82 52 64
        E 0 87 41 64
        E 0 8b 31 65
        E 1 96 41 65
        E 0 90 52 66
        E 0 97 42 67
        E 0 9c 32 65
        E 39 85 42 64
        E 0 86 41 65
        E 0 8f 31 66
        E 1 81 52 65
        E 1 95 42 64
        E 0 96 43 64
        E 0 94 52 67
        E 0 9b 33 64
        E 37 85 42 64
        E 0 8a 42 65
        E 0 8e 31 67
        E 1 80 52 66
        E 0 95 43 65
        E 0 9a 42 65
        E 1 9f 33 65
        E 0 93 53 64
        E 34 88 42 66
        E 0 8a 42 65
        E 0 8d 32 64
        E 1 84 52 67
        E 0 98 42 66
        E 0 9a 44 64
        E 1 9e 33 66
        E 0 92 53 65
        E 37 88 42 66
        E 0 87 42 67
        E 0 8c 32 65
        E 1 98 44 65
        E 0 9d 33 67
        E 0 97 42 67
        E 37 85 43 65
        E 0 86 43 64
        E 0 88 44 65
        E 1 8a 44 64
        E 0 8d 33 67
        E 0 8e 33 66
        E 1 8f 33 65
        E 0 82 53 65
        E 0 83 53 64
        E 0 87 42 67
        E 1 8b 33 64
        E 0 95 43 65
        E 0 96 43 64
        E 0 98 44 65
        E 0 9a 44 64
        E 0 9d 33 67
        E 1 9e 33 66
        E 0 9f 33 65
        E 0 90 24 64
        E 0 94 54 64
        E 0 97 44 66
        E 0 9c 34 64
        E 36 86 43 64
        E 1 8f 33 65
        E 0 96 44 67
        E 0 93 54 65
        E 0 9b 34 65
        E 38 85 43 65
        E 0 8e 33 66
        E 1 80 24 64
        E 0 84 54 64
        E 0 95 45 64
        E 0 9f 35 63
        E 1 92 25 64
        E 35 8a 44 64
        E 1 8d 33 67
        E 0 83 54 65
        E 1 9a 45 65
        E 0 9e 35 64
        E 35 88 44 65
        E 1 82 25 64
        E 0 87 44 66
        E 0 8c 34 64
        E 0 98 46 64
        E 1 9d 35 65
        E 0 90 25 66
        E 0 97 44 66
        E 37 86 44 67
        E 0 87 44 66
        E 1 8b 34 65
        E 0 96 44 67
        E 0 97 46 65
        E 1 9c 36 64
        E 38 85 45 64
        E 0 86 44 67
        E 0 8f 35 63
        E 1 80 25 66
        E 0 95 45 64
        E 0 96 46 66
        E 1 9f 35 63
        E 0 93 26 64
        E 0 9b 36 65
        E 36 85 45 64
        E 0 8a 45 65
        E 1 8e 35 64
        E 0 8f 35 63
        E 1 95 46 67
        E 0 9e 35 64
        E 0 9f 36 66
        E 38 88 46 64
        E 0 8d 35 65
        E 0 8e 35 64
        E 0 83 26 64
        E 1 9a 47 64
        E 1 9d 35 65
        E 0 9e 36 67
        E 1 91 27 64
        E 32 8d 35 65
        E 0 87 46 65
        E 0 8c 36 64
        E 1 98 47 65
        E 0 9d 37 64
        E 0 9c 36 64
        E 40 86 46 66
        E 0 81 27 64
        E 0 8b 36 65
        E 1 8c 36 64
        E 0 94 27 66
        E 0 97 48 63
        E 1 9b 36 65
        E 0 9c 37 65
        E 36 85 46 67
        E 1 8f 36 66
        E 0 8b 36 65
        E 0 96 48 64
        E 1 9f 36 66
        E 0 9b 38 64
        E 38 8a 47 64
        E 0 8e 36 67
        E 0 8f 36 66
        E 0 84 27 66
        E 1 95 48 65
        E 0 9e 36 67
        E 1 9f 38 65
        E 0 92 28 64
        E 35 88 47 65
        E 1 8d 37 64
        E 0 8e 36 67
        E 1 9a 49 64
        E 0 9d 37 64
        E 0 9e 38 66
        E 37 8d 37 64
        E 0 82 28 64
        E 1 87 48 63
        E 0 8c 37 65
        E 0 98 48 64
        E 1 9d 38 67
        E 0 90 29 63
        E 0 9c 37 65
        E 32 86 48 64
        E 0 8b 38 64
        E 0 8c 37 65
        E 1 94 29 64
        E 0 97 49 66
        E 0 9b 38 64
        E 0 9c 39 64
        E 36 85 48 65
        E 1 8f 38 65
        E 0 80 29 63
        E 0 8b 38 64
        E 1 95 48 65
        E 0 96 49 67
        E 1 9f 38 65
        E 0 93 29 65
        E 0 9b 39 65
        E 34 85 48 65
        E 0 8a 49 64
        E 0 8e 38 66
        E 0 8f 38 65
        E 1 95 4a 64
        E 0 9e 38 66
        E 0 9f 3a 64
        E 1 92 2a 64
        E 34 88 48 64
        E 0 8d 38 67
        E 1 8e 38 66
        E 0 84 29 64
        E 0 9a 4a 65
        E 0 9d 38 67
        E 1 9e 3a 65
        E 0 91 2a 65
        E 35 8d 38 67
        E 0 83 29 65
        E 0 87 49 66
        E 0 8c 39 64
        E 0 98 4b 64
        E 0 9d 3a 66
        E 0 90 2a 66
        E 0 9c 39 64
        E 35 86 49 67
        E 0 82 2a 64
        E 1 8b 39 65
        E 0 8c 39 64
        E 0 94 2a 67
        E 1 97 4b 65
        E 0 9b 3b 64
        E 0 9c 3a 67
        E 33 85 4a 64
        E 0 8f 3a 64
        E 1 81 2a 65
        E 0 8b 3b 64
        E 0 96 4b 66
        E 1 9f 3a 64
        E 0 93 2b 64
        E 0 9b 3b 64
        E 34 8a 4a 65
        E 0 8e 3a 65
        E 0 8f 3a 64
        E 1 80 2a 66
        E 0 95 4b 67
        E 0 9e 3a 65
        E 1 9f 3b 65
        E 0 92 2b 65
        E 36 88 4b 64
        E 0 8d 3a 66
        E 0 8e 3a 65
        E 0 84 2a 67
        E 1 9a 4c 64
        E 0 9d 3a 66
        E 0 9e 3c 63
        E 0 91 2c 64
        E 34 8d 3a 66
        E 0 83 2b 64
        E 0 87 4b 65
        E 1 8c 3a 67
        E 0 98 4c 65
        E 0 9d 3c 64
        E 0 90 2c 65
        E 1 9c 3a 67
        E 34 86 4b 66
        E 0 82 2b 65
        E 0 8b 3b 64
        E 1 8c 3a 67
        E 0 94 2c 66
        E 1 97 4d 63
        E 0 9b 3b 64
        E 0 9c 3c 65
        E 33 85 4b 67
        E 0 8a 4c 64
        E 0 8f 3b 65
        E 1 81 2c 64
        E 0 8b 3b 64
        E 1 96 4d 64
        E 0 9f 3b 65
        E 0 93 2c 67
        E 0 9b 3d 64
        E 32 88 4c 65
        E 0 8e 3c 63
        E 1 8f 3b 65
        E 0 80 2c 65
        E 0 95 4d 65
        E 1 9e 3c 63
        E 0 9f 3d 65
        E 1 92 2d 64
        E 35 8d 3c 64
        E 0 8e 3c 63
        E 1 84 2c 66
        E 0 87 4d 63
        E 0 9a 4e 64
        E 1 9d 3c 64
        E 0 9e 3d 66
        E 0 91 2d 65
        E 37 86 4d 64
        E 0 8d 3c 64
        E 0 83 2c 67
        E 1 8c 3c 65
        E 0 98 4e 65
        E 0 9d 3d 67
        E 0 90 2e 64
        E 0 9c 3c 65
        E 33 85 4d 65
        E 0 82 2d 64
        E 0 8b 3d 64
        E 1 8c 3c 65
        E 0 94 2e 65
        E 0 97 4e 66
        E 1 9b 3d 64
        E 0 9c 3e 64
        E 31 8a 4e 64
        E 0 8f 3d 65
        E 1 81 2d 65
        E 0 8b 3d 64
        E 0 96 4e 67
        E 0 9f 3d 65
        E 0 93 2e 66
        E 1 9b 3e 65
        E 35 88 4e 65
        E 0 8e 3d 66
        E 1 8f 3d 65
        E 0 80 2e 64
        E 1 95 4f 64
        E 0 9e 3d 66
        E 0 9f 3f 64
        E 1 92 2e 67
        E 34 8d 3d 67
        E 0 8e 3d 66
        E 0 87 4e 66
        E 1 9a 4f 65
        E 0 9d 3d 67
        E 0 9e 3f 65
        E 0 91 2f 64
        E 35 86 4e 67
        E 0 8d 3d 67
        E 0 84 2e 65
        E 1 8c 3e 64
        E 0 98 50 64
        E 0 9d 3f 66
        E 0 90 2f 65
        E 1 9c 3e 64
        E 34 85 4f 64
        E 0 83 2e 66
        E 1 8b 3e 65
        E 0 8c 3e 64
        E 1 94 30 63
        E 0 97 50 65
        E 0 9b 3e 65
        E 1 9c 3f 67
        E 35 8a 4f 65
        E 1 8f 3f 64
        E 0 82 2e 67
        E 0 8b 3e 65
        E 0 96 50 66
        E 0 9f 3f 64
        E 1 93 30 64
        E 0 9b 40 64
        E 30 88 50 64
        E 1 8e 3f 65
        E 0 8f 3f 64
        E 0 81 2f 64
        E 0 95 50 67
        E 0 9e 3f 65
        E 0 9f 40 65
        E 0 92 30 65
        E 36 8d 3f 66
        E 0 8e 3f 65
        E 0 80 2f 65
        E 0 87 50 65
        E 1 9a 51 64
        E 0 9d 3f 66
        E 0 9e 41 63
        E 1 91 31 64
        E 36 85 50 67
        E 0 86 50 66
        E 1 8d 3f 66
        E 0 84 30 63
        E 0 8c 3f 67
        E 1 98 51 65
        E 0 9d 41 64
        E 0 90 31 65
        E 0 9c 3f 67
        E 35 8a 51 64
        E 0 83 30 64
        E 0 8b 40 64
        E 1 8c 3f 67
        E 0 94 31 66
        E 0 97 52 64
        E 0 9b 40 64
        E 1 9c 41 65
        E 34 88 51 65
        E 0 8f 40 65
        E 0 82 30 65
        E 1 8b 40 64
        E 0 96 52 65
        E 1 9f 40 65
        E 0 93 31 67
        E 0 9b 42 64
        E 30 8e 41 63
        E 0 8f 40 65
        E 0 81 31 64
        E 0 87 52 64
        E 1 95 52 66
        E 0 9e 41 63
        E 0 9f 42 65
        E 1 92 32 64
        E 37 86 52 65
        E 0 8d 41 64
        E 0 8e 41 63
        E 1 80 31 65
        E 0 9a 52 67
        E 1 9d 41 64
        E 0 9e 42 66
        E 0 91 32 65
        E 35 85 52 66
        E 0 8d 41 64
        E 0 84 31 66
        E 0 8c 41 65
        E 0 98 53 64
        E 1 9d 42 67
        E 0 90 33 64
        E 0 9c 41 65
        E 35 8a 52 67
        E 1 83 31 67
        E 0 8b 42 64
        E 1 8c 41 65
        E 0 94 33 65
        E 0 97 53 65
        E 0 9b 42 64
        E 0 9c 43 64
        E 33 8f 42 65
        E 0 82 32 64
        E 0 8b 42 64
        E 1 9f 42 65
        E 0 93 33 66
        E 0 9b 43 65
        E 35 88 53 64
        E 0 8e 42 66
        E 1 8f 42 65
        E 0 81 32 65
        E 0 87 53 65
        E 1 95 24 64
        E 0 9a 54 64
        E 1 9e 42 66
        E 0 9f 44 64
        E 0 92 33 67
        E 33 8d 42 67
        E 1 8e 42 66
        E 0 80 33 64
        E 0 98 54 65
        E 0 9d 42 67
        E 0 9e 44 65
        E 1 91 34 64
        E 35 85 24 64
        E 0 8a 54 64
        E 1 8d 42 67
        E 0 84 33 65
        E 1 8c 43 64
        E 0 9d 44 66
        E 0 90 34 65
        E 1 97 25 64
        E 0 9c 43 64
        E 31 88 54 65
        E 0 83 33 66
        E 0 8b 43 65
        E 0 8c 43 64
        E 0 94 35 63
        E 1 9b 43 65
        E 0 9c 44 67
        E 36 8f 44 64
        E 1 82 33 67
        E 0 87 25 64
        E 1 8b 43 65
        E 0 95 25 66
        E 0 9f 44 64
        E 1 93 35 64
        E 0 9b 45 64
        E 34 8e 44 65
        E 0 8f 44 64
        E 0 81 34 64
        E 0 9e 44 65
        E 1 9f 45 65
        E 0 92 35 65
        E 33 85 25 66
        E 0 8d 44 66
        E 0 8e 44 65
        E 1 80 34 65
        E 0 98 26 64
        E 0 9d 44 66
        E 1 9e 46 64
        E 0 91 36 64
        E 32 8d 44 66
        E 0 84 35 63
        E 1 8c 44 67
        E 0 9d 46 65
        E 0 90 36 65
        E 1 94 35 63
        E 0 9c 44 67
        E 36 88 26 64
        E 0 83 35 64
        E 1 84 35 63
        E 0 8b 45 64
        E 0 8c 44 67
        E 1 96 27 64
        E 0 93 35 64
        E 0 94 36 66
        E 1 9b 45 64
        E 0 9c 46 66
        E 33 8f 45 65
        E 1 82 35 65
        E 0 83 35 64
        E 0 8b 45 64
        E 1 92 35 65
        E 0 93 36 67
        E 1 9b 46 67
        E 33 86 27 64
        E 1 8e 46 64
        E 0 81 36 64
        E 1 82 35 65
        E 0 9a 27 66
        E 0 9f 47 64
        E 0 91 36 64
        E 1 92 37 64
        E 34 8d 46 65
        E 1 80 36 65
        E 0 81 36 64
        E 0 9e 47 65
        E 1 90 36 65
        E 0 91 37 65
        E 32 8a 27 66
        E 0 80 36 65
        E 1 84 36 66
        E 0 8c 46 66
        E 1 9d 48 63
        E 0 90 38 64
        E 0 94 36 66
        E 0 97 28 64
        E 35 83 36 67
        E 1 84 36 66
        E 0 8b 46 67
        E 0 93 36 67
        E 1 94 38 65
        E 0 9c 48 64
        E 36 8f 47 64
        E 0 82 37 64
        E 0 83 36 67
        E 1 87 28 64
        E 0 95 29 63
        E 0 92 37 64
        E 1 93 38 66
        E 0 9b 48 65
        E 33 8e 47 65
        E 0 81 37 65
        E 0 82 37 64
        E 1 9a 29 64
        E 0 9f 49 64
        E 0 91 37 65
        E 0 92 38 67
        E 35 85 29 63
        E 1 8d 48 63
        E 0 80 38 64
        E 0 81 37 65
        E 0 98 29 65
        E 1 9e 48 64
        E 0 90 38 64
        E 0 91 39 64
        E 35 80 38 64
        E 0 84 38 65
        E 1 8c 48 64
        E 0 9d 49 66
        E 0 90 39 65
        E 1 94 38 65
        E 0 97 2a 64
        E 34 8a 29 64
        E 0 83 38 66
        E 0 84 38 65
        E 0 8b 48 65
        E 0 96 2a 65
        E 1 93 38 66
        E 0 94 3a 64
        E 0 9b 48 65
        E 0 9c 49 67
        E 33 88 29 65
        E 0 8f 49 64
        E 1 82 38 67
        E 0 83 38 66
        E 1 8b 48 65
        E 0 95 2a 66
        E 0 92 38 67
        E 1 93 3a 65
        E 0 9b 4a 64
        E 33 8e 48 64
        E 0 81 39 64
        E 1 82 38 67
        E 0 87 2a 64
        E 1 9a 2a 67
        E 0 9f 4a 65
        E 0 91 39 64
        E 0 92 3a 66
        E 35 86 2a 65
        E 0 8d 49 66
        E 0 80 39 65
        E 1 81 39 64
        E 0 98 2b 64
        E 0 9e 4b 64
        E 1 90 3b 64
        E 0 91 3a 67
        E 35 85 2a 66
        E 0 80 3b 64
        E 0 84 3a 64
        E 1 8c 49 67
        E 0 9d 4b 65
        E 0 90 3b 64
        E 0 94 3a 64
        E 1 97 2b 65
        E 31 8a 2a 67
        E 0 83 3a 65
        E 1 84 3a 64
        E 0 8b 4a 64
        E 0 96 2c 64
        E 0 93 3a 65
        E 1 94 3b 65
        E 0 9c 4b 66
        E 35 88 2b 64
        E 0 8f 4a 65
        E 1 82 3a 66
        E 0 83 3a 65
        E 0 95 2c 65
        E 1 92 3a 66
        E 0 93 3c 63
        E 0 9b 4b 67
        E 34 8e 4b 64
        E 0 81 3a 67
        E 1 82 3a 66
        E 0 87 2b 65
        E 0 9a 2c 66
        E 0 9f 4c 64
        E 0 91 3a 67
        E 0 92 3c 64
        E 37 86 2c 64
        E 1 8d 4b 65
        E 0 80 3b 64
        E 0 81 3a 67
        E 0 98 2c 67
        E 0 9e 4c 65
        E 1 90 3b 64
        E 0 91 3c 65
        E 32 85 2c 65
        E 0 80 3b 64
        E 1 84 3b 65
        E 0 8c 4b 66
        E 1 9d 4d 63
        E 0 90 3d 64
        E 0 94 3b 65
        E 0 97 2d 64
        E 36 8a 2c 66
        E 0 8f 4c 64
        E 0 83 3c 63
        E 1 84 3b 65
        E 1 8b 4b 67
        E 0 96 2d 65
        E 0 93 3c 63
        E 0 94 3d 65
        E 0 9c 4d 64
        E 33 88 2c 67
        E 0 8e 4c 65
        E 0 82 3c 64
        E 0 83 3c 63
        E 0 95 2e 64
        E 0 92 3c 64
        E 0 93 3d 66
        E 0 9b 4d 65
        E 35 8d 4d 63
        E 1 81 3c 65
        E 0 82 3c 64
        E 1 87 2d 64
        E 0 9a 2e 65
        E 0 9f 4e 64
        E 0 91 3c 65
        E 0 92 3d 67
        E 34 86 2d 65
        E 0 80 3d 64
        E 1 81 3c 65
        E 0 8c 4d 64
        E 0 98 2e 66
        E 0 9e 4e 65
        E 1 90 3d 64
        E 0 91 3e 64
        E 34 85 2e 64
        E 1 80 3d 64
        E 0 84 3d 65
        E 0 8b 4d 65
        E 0 9d 4e 66
        E 0 90 3e 65
        E 1 94 3d 65
        E 0 97 2e 67
        E 36 8f 4e 64
        E 0 83 3d 66
        E 0 84 3d 65
        E 1 96 2f 64
        E 0 93 3d 66
        E 0 94 3f 64
        E 0 9c 4e 67
        E 34 8a 2e 65
        E 0 8e 4e 65
        E 1 82 3d 67
        E 0 83 3d 66
        E 1 95 2f 65
        E 0 92 3d 67
        E 1 93 3f 65
        E 0 9b 4f 64
        E 32 88 2e 66
        E 0 8d 4e 66
        E 0 81 3e 64
        E 0 82 3d 67
        E 1 9a 30 63
        E 0 9f 4f 65
        E 0 91 3e 64
        E 0 92 3f 66
        E 36 80 3e 65
        E 0 81 3e 64
        E 0 87 2e 67
        E 0 8c 4e 67
        E 1 98 30 64
        E 0 9e 50 64
        E 0 90 3e 65
        E 0 91 3f 67
        E 34 86 2f 64
        E 0 80 3e 65
        E 1 84 3f 64
        E 0 8b 4f 64
        E 1 9d 50 65
        E 0 90 40 64
        E 0 94 3f 64
        E 0 97 30 65
        E 37 85 2f 65
        E 0 8f 4f 65
        E 0 83 3f 65
        E 0 84 3f 64
        E 0 96 31 64
        E 1 93 3f 65
        E 0 94 40 65
        E 0 9c 50 66
        E 33 8a 30 63
        E 0 8e 50 64
        E 1 82 3f 66
        E 0 83 3f 65
        E 1 95 31 65
        E 0 92 3f 66
        E 0 93 41 63
        E 1 9b 50 67
        E 34 88 30 64
        E 0 8d 50 65
        E 0 81 3f 67
        E 1 82 3f 66
        E 0 9a 31 66
        E 0 9f 51 64
        E 1 91 3f 67
        E 0 92 41 64
        E 32 80 40 64
        E 0 81 3f 67
        E 0 87 30 65
        E 1 8b 50 67
        E 0 8c 50 66
        E 0 98 31 67
        E 1 9e 51 65
        E 0 90 40 64
        E 0 91 41 65
        E 34 86 31 64
        E 0 8f 51 64
        E 1 80 40 64
        E 0 84 40 65
        E 0 9d 52 64
        E 0 90 42 64
        E 1 94 40 65
        E 0 97 32 64
        E 34 85 31 65
        E 0 8e 51 65
        E 1 83 41 63
        E 0 84 40 65
        E 0 96 32 65
        E 0 93 41 63
        E 1 94 42 65
        E 0 9c 52 65
        E 35 8a 31 66
        E 0 8d 52 64
        E 1 82 41 64
        E 0 83 41 63
        E 1 95 33 64
        E 0 92 41 64
        E 0 93 42 66
        E 0 9b 52 66
        E 34 88 31 67
        E 0 81 41 65
        E 1 82 41 64
        E 0 8c 52 65
        E 0 9a 33 65
        E 0 9f 52 67
        E 0 91 41 65
        E 1 92 42 67
        E 33 80 42 64
        E 0 81 41 65
        E 0 87 32 64
        E 0 8b 52 66
        E 1 98 33 66
        E 0 9e 53 64
        E 0 90 42 64
        E 0 91 43 64
        E 34 86 32 65
        E 0 8f 52 67
        E 0 80 42 64
        E 1 84 42 65
        E 0 9d 53 65
        E 0 90 43 65
        E 0 94 42 65
        E 1 97 33 67
        E 34 85 33 64
        E 0 83 42 66
        E 1 84 42 65
        E 0 96 34 64
        E 1 93 42 66
        E 0 94 44 64
        E 35 8a 33 65
        E 1 8d 53 65
        E 0 8e 53 64
        E 1 82 42 67
        E 0 83 42 66
        E 0 95 34 65
        E 0 9f 54 64
        E 0 92 42 67
        E 1 93 44 65
        E 0 9b 24 64
        E 36 88 33 66
        E 0 81 43 64
        E 0 82 42 67
        E 1 9a 35 63
        E 0 9e 54 65
        E 0 91 43 64
        E 0 92 44 66
        E 33 8f 54 64
        E 1 80 43 65
        E 0 81 43 64
        E 0 87 33 67
        E 0 8b 24 64
        E 0 98 35 64
        E 0 9d 25 64
        E 1 90 43 65
        E 0 91 44 67
        E 32 86 34 64
        E 0 8e 54 65
        E 0 80 43 65
        E 0 84 44 64
        E 1 90 45 64
        E 0 94 44 64
        E 1 97 35 65
        E 36 85 34 65
        E 0 8d 25 64
        E 0 83 44 65
        E 1 84 44 64
        E 0 96 36 64
        E 0 93 44 65
        E 0 94 45 65
        E 0 9b 25 66
        E 36 8a 35 63
        E 0 82 44 66
        E 0 83 44 65
        E 1 95 36 65
        E 0 9a 35 63
        E 0 92 44 66
        E 0 93 46 64
        E 34 88 35 64
        E 0 8a 35 63
        E 0 81 44 67
        E 0 82 44 66
        E 1 8b 25 66
        E 0 98 35 64
        E 0 9a 36 66
        E 0 9e 26 64
        E 1 91 44 67
        E 0 92 46 65
        E 33 88 35 64
        E 1 80 45 64
        E 0 81 44 67
        E 0 87 35 65
        E 0 98 36 67
        E 0 90 45 64
        E 0 91 46 66
        E 1 97 35 65
        E 35 86 36 64
        E 0 8e 26 64
        E 0 80 45 64
        E 0 84 45 65
        E 0 87 35 65
        E 1 96 36 64
        E 0 90 46 67
        E 0 97 37 64
        E 1 9c 27 64
        E 34 85 36 65
        E 0 86 36 64
        E 0 83 46 64
        E 0 95 36 65
        E 0 96 37 65
        E 1 94 47 64
        E 33 85 36 65
        E 1 8a 36 66
        E 0 82 46 65
        E 1 8c 27 64
        E 0 95 38 64
        E 0 9a 36 66
        E 1 9f 27 66
        E 1 93 47 65
        E 35 88 36 67
        E 0 8a 36 66
        E 0 81 46 66
        E 1 98 36 67
        E 0 9a 38 65
        E 1 92 48 63
        E 34 88 36 67
        E 0 8f 27 66
        E 0 80 46 67
        E 1 87 37 64
        E 0 98 38 66
        E 0 9d 28 64
        E 1 91 48 64
        E 0 97 37 64
        E 35 86 37 65
        E 0 84 47 64
        E 0 87 37 64
        E 1 96 37 65
        E 0 90 48 65
        E 0 97 38 67
        E 32 85 38 64
        E 0 86 37 65
        E 1 8d 28 64
        E 0 83 47 65
        E 1 95 38 64
        E 0 96 39 64
        E 0 94 49 64
        E 0 9b 29 63
        E 35 85 38 64
        E 0 8a 38 65
        E 0 82 48 63
        E 0 95 39 65
        E 0 9a 38 65
        E 1 9f 29 64
        E 0 93 48 64
        E 35 88 38 66
        E 0 8a 38 65
        E 0 81 48 64
        E 1 8b 29 63
        E 0 98 38 66
        E 0 9a 3a 64
        E 0 9e 29 65
        E 1 92 49 66
        E 35 88 38 66
        E 0 80 48 65
        E 1 87 38 67
        E 0 98 3a 65
        E 0 9d 2a 64
        E 0 90 48 65
        E 0 91 49 67
        E 1 97 38 67
        E 31 86 39 64
        E 1 8f 29 64
        E 0 80 48 65
        E 0 84 49 64
        E 1 87 38 67
        E 0 96 39 64
        E 0 90 4a 64
        E 1 97 3a 66
        E 0 9c 2a 65
        E 34 85 39 65
        E 0 86 39 64
        E 1 8e 29 65
        E 0 83 48 64
        E 0 95 3b 64
        E 1 96 3a 67
        E 0 94 4a 65
        E 0 9b 2a 66
        E 34 85 3b 64
        E 0 8a 3a 64
        E 1 8d 2a 64
        E 0 82 49 66
        E 0 95 3b 64
        E 1 9a 3a 64
        E 0 9f 2a 67
        E 0 93 4b 64
        E 34 88 3a 65
        E 0 8a 3a 64
        E 1 81 49 67
        E 0 8c 2a 65
        E 0 98 3a 65
        E 0 9a 3b 65
        E 0 9e 2b 64
        E 0 92 4b 65
        E 33 88 3a 65
        E 1 80 4a 64
        E 0 87 3a 66
        E 0 8b 2a 66
        E 0 98 3c 63
        E 0 9d 2b 65
        E 0 91 4b 66
        E 1 97 3a 66
        E 35 86 3a 67
        E 1 8f 2a 67
        E 0 84 4a 65
        E 0 87 3a 66
        E 1 96 3a 67
        E 0 90 4b 67
        E 0 97 3c 64
        E 0 9c 2c 64
        E 36 85 3b 64
        E 0 86 3a 67
        E 0 8e 2b 64
        E 0 83 4b 64
        E 1 95 3b 64
        E 0 96 3c 65
        E 1 94 4c 64
        E 0 9b 2c 65
        E 32 85 3b 64
        E 1 8a 3b 65
        E 0 8d 2b 65
        E 0 82 4b 65
        E 0 95 3d 64
        E 1 9a 3b 65
        E 1 9f 2c 66
        E 0 93 4c 65
        E 33 88 3c 63
        E 0 8a 3b 65
        E 1 81 4b 66
        E 0 8c 2c 64
        E 0 98 3c 63
        E 1 9a 3d 65
        E 0 9e 2c 67
        E 0 92 4d 63
        E 35 88 3c 63
        E 0 80 4b 67
        E 0 84 4c 64
        E 0 87 3c 64
        E 1 8b 2c 65
        E 0 98 3d 66
        E 0 9d 2d 64
        E 1 91 4d 64
        E 1 97 3c 64
        E 35 86 3c 65
        E 0 8f 2c 66
        E 1 83 4c 65
        E 0 87 3c 64
        E 0 96 3c 65
        E 1 90 4d 65
        E 0 97 3d 67
        E 0 9c 2d 65
        E 33 85 3d 64
        E 0 86 3c 65
        E 0 8e 2c 67
        E 0 82 4d 63
        E 1 95 3d 64
        E 0 96 3e 64
        E 1 94 4e 64
        E 0 9b 2e 64
        E 32 85 3d 64
        E 0 8a 3d 65
        E 1 8d 2d 64
        E 0 81 4d 64
        E 0 95 3e 65
        E 1 9a 3d 65
        E 0 9f 2e 65
        E 0 93 4e 65
        E 34 88 3d 66
        E 0 8a 3d 65
        E 1 80 4d 65
        E 0 8c 2d 65
        E 0 98 3d 66
        E 1 9a 3f 64
        E 0 9e 2e 66
        E 0 92 4e 66
        E 34 88 3d 66
        E 0 84 4e 64
        E 1 87 3d 67
        E 0 8b 2e 64
        E 0 98 3f 65
        E 1 9d 2e 67
        E 1 91 4e 67
        E 0 97 3d 67
        E 34 86 3e 64
        E 0 83 4e 65
        E 0 87 3d 67
        E 1 96 3e 64
        E 0 90 4f 64
        E 0 97 3f 66
        E 0 9c 2f 64
        E 35 85 3e 65
        E 0 86 3e 64
        E 1 8f 2e 65
        E 0 82 4e 66
        E 1 95 3e 65
        E 0 96 3f 67
        E 0 94 4f 65
        E 0 9b 2f 65
        E 36 85 3e 65
        E 0 8a 3f 64
        E 1 8e 2e 66
        E 0 81 4e 67
        E 0 95 40 64
        E 1 9a 3f 64
        E 0 9f 30 63
        E 0 93 50 64
        E 31 88 3f 65
        E 0 8a 3f 64
        E 1 8d 2e 67
        E 0 80 4f 64
        E 0 98 3f 65
        E 1 9a 40 65
        E 0 9e 30 64
        E 0 92 50 65
        E 37 88 3f 65
        E 0 84 4f 65
        E 0 87 3f 66
        E 1 8c 2f 64
        E 1 98 41 63
        E 0 9d 30 65
        E 0 91 50 66
        E 1 97 3f 66
        E 31 86 3f 67
        E 0 83 50 64
        E 1 87 3f 66
        E 0 8b 2f 65
        E 0 96 3f 67
        E 1 90 50 67
        E 0 97 41 64
        E 0 9c 31 64
        E 33 85 40 64
        E 0 86 3f 67
        E 1 8f 30 63
        E 0 82 50 65
        E 0 95 40 64
        E 1 96 41 65
        E 0 94 51 64
        E 0 9b 31 65
        E 35 85 40 64
        E 1 8a 40 65
        E 0 8e 30 64
        E 0 80 50 67
        E 1 81 50 66
        E 0 95 42 64
        E 0 9a 40 65
        E 0 9f 31 66
        E 0 93 51 65
        E 37 88 41 63
        E 0 8a 40 65
        E 0 8d 30 65
        E 1 84 51 64
        E 0 98 41 63
        E 0 9a 42 65
        E 0 9e 31 67
        E 0 92 52 64
        E 31 88 41 63
        E 0 83 51 65
        E 0 87 41 64
        E 1 8c 31 64
        E 0 98 42 66
        E 0 9d 32 64
        E 0 91 52 65
        E 1 97 41 64
        E 34 86 41 65
        E 1 82 52 64
        E 0 87 41 64
        E 0 8b 31 65
        E 1 96 41 65
        E 0 90 52 66
        E 0 97 42 67
        E 0 9c 32 65
        E 36 85 42 64
        E 0 86 41 65
        E 0 8f 31 66
        E 0 81 52 65
        E 1 95 42 64
        E 0 96 43 64
        E 1 94 52 67
        E 0 9b 33 64
        E 35 85 42 64
        E 0 8a 42 65
        E 0 8e 31 67
        E 1 80 52 66
        E 0 95 43 65
        E 0 9a 42 65
        E 0 9f 33 65
        E 0 93 53 64
        E 33 88 42 66
        E 0 8a 42 65
        E 1 8d 32 64
        E 0 84 52 67
        E 1 98 42 66
        E 0 9a 44 64
        E 1 9e 33 66
        E 0 92 53 65
        E 33 88 42 66
        E 1 87 42 67
        E 0 8c 32 65
        E 1 98 44 65
        E 0 9d 33 67
        E 0 97 42 67
        E 35 85 43 65
        E 0 86 43 64
        E 1 88 44 65
        E 0 8a 44 64
        E 0 8d 33 67
        E 0 8e 33 66
        E 0 8f 33 65
        E 1 82 53 65
        E 0 83 53 64
        E 0 87 42 67
        E 0 8b 33 64
        E 1 95 43 65
        E 0 96 43 64
        E 0 98 44 65
        E 0 9a 44 64
        E 1 9d 33 67
        E 0 9e 33 66
        E 1 9f 33 65
        E 0 90 24 64
        E 0 94 54 64
        E 0 97 44 66
        E 1 9c 34 64
        E 29 86 43 64
        E 0 8f 33 65
        E 0 96 44 67
        E 1 93 54 65
        E 0 9b 34 65
        E 31 85 43 65
        E 0 8e 33 66
        E 1 80 24 64
        E 0 84 54 64
        E 0 95 45 64
        E 0 9f 35 63
        E 0 92 25 64
        E 35 8a 44 64
        E 0 8d 33 67
        E 0 83 54 65
        E 0 9a 45 65
        E 1 9e 35 64
        E 34 88 44 65
        E 0 82 25 64
        E 0 87 44 66
        E 1 8c 34 64
        E 0 98 46 64
        E 0 9d 35 65
        E 0 90 25 66
        E 0 97 44 66
        E 31 86 44 67
        E 0 87 44 66
        E 1 8b 34 65
        E 0 96 44 67
        E 0 97 46 65
        E 0 9c 36 64
        E 31 85 45 64
        E 0 86 44 67
        E 0 8f 35 63
        E 0 80 25 66
        E 0 95 45 64
        E 0 96 46 66
        E 0 9f 35 63
        E 1 93 26 64
        E 0 9b 36 65
        E 33 85 45 64
        E 0 8a 45 65
        E 0 8e 35 64
        E 0 8f 35 63
        E 0 95 46 67
        E 0 9e 35 64
        E 0 9f 36 66
        E 36 88 46 64
        E 0 8d 35 65
        E 0 8e 35 64
        E 0 83 26 64
        E 1 9a 47 64
        E 0 9d 35 65
        E 1 9e 36 67
        E 0 91 27 64
        E 32 8d 35 65
        E 0 87 46 65
        E 0 8c 36 64
        E 0 98 47 65
        E 1 9d 37 64
        E 0 9c 36 64
        E 32 86 46 66
        E 0 81 27 64
        E 1 8b 36 65
        E 0 8c 36 64
        E 0 94 27 66
        E 0 97 48 63
        E 0 9b 36 65
        E 1 9c 37 65
        E 30 85 46 67
        E 0 8f 36 66
        E 1 8b 36 65
        E 0 96 48 64
        E 0 9f 36 66
        E 1 9b 38 64
        E 33 8a 47 64
        E 1 8e 36 67
        E 0 8f 36 66
        E 0 84 27 66
        E 0 95 48 65
        E 1 9e 36 67
        E 0 9f 38 65
        E 0 92 28 64
        E 32 88 47 65
        E 0 8d 37 64
        E 0 8e 36 67
        E 0 9a 49 64
        E 0 9d 37 64
        E 1 9e 38 66
        E 32 8d 37 64
        E 0 82 28 64
        E 1 87 48 63
        E 0 8c 37 65
        E 0 98 48 64
        E 0 9d 38 67
        E 0 90 29 63
        E 1 9c 37 65
        E 35 86 48 64
        E 0 8b 38 64
        E 0 8c 37 65
        E 0 94 29 64
        E 0 97 49 66
        E 1 9b 38 64
        E 0 9c 39 64
        E 30 85 48 65
        E 1 8f 38 65
        E 0 80 29 63
        E 0 8b 38 64
        E 0 95 48 65
        E 1 96 49 67
        E 0 9f 38 65
        E 0 93 29 65
        E 0 9b 39 65
        E 33 85 48 65
        E 0 8a 49 64
        E 1 8e 38 66
        E 0 8f 38 65
        E 1 95 4a 64
        E 0 9e 38 66
        E 0 9f 3a 64
        E 0 92 2a 64
        E 30 88 48 64
        E 1 8d 38 67
        E 0 8e 38 66
        E 0 84 29 64
        E 0 9a 4a 65
        E 0 9d 38 67
        E 1 9e 3a 65
        E 0 91 2a 65
        E 32 8d 38 67
        E 0 83 29 65
        E 0 87 49 66
        E 1 8c 39 64
        E 0 98 4b 64
        E 1 9d 3a 66
        E 0 90 2a 66
        E 0 9c 39 64
        E 33 86 49 67
        E 0 82 2a 64
        E 0 8b 39 65
        E 1 8c 39 64
        E 0 94 2a 67
        E 1 97 4b 65
        E 0 9b 3b 64
        E 0 9c 3a 67
        E 33 85 4a 64
        E 0 8f 3a 64
        E 0 81 2a 65
        E 1 8b 3b 64
        E 0 96 4b 66
        E 0 9f 3a 64
        E 0 93 2b 64
        E 0 9b 3b 64
        E 31 8a 4a 65
        E 1 8e 3a 65
        E 0 8f 3a 64
        E 0 80 2a 66
        E 1 95 4b 67
        E 0 9e 3a 65
        E 0 9f 3b 65
        E 0 92 2b 65
        E 32 88 4b 64
        E 0 8d 3a 66
        E 1 8e 3a 65
        E 1 84 2a 67
        E 0 9a 4c 64
        E 0 9d 3a 66
        E 0 9e 3c 63
        E 0 91 2c 64
        E 31 8d 3a 66
        E 1 83 2b 64
        E 0 87 4b 65
        E 0 8c 3a 67
        E 0 98 4c 65
        E 0 9d 3c 64
        E 1 90 2c 65
        E 0 9c 3a 67
        E 33 86 4b 66
        E 0 82 2b 65
        E 0 8b 3b 64
        E 0 8c 3a 67
        E 1 94 2c 66
        E 0 97 4d 63
        E 0 9b 3b 64
        E 0 9c 3c 65
        E 34 85 4b 67
        E 0 8a 4c 64
        E 0 8f 3b 65
        E 0 81 2c 64
        E 0 8b 3b 64
        E 1 96 4d 64
        E 0 9f 3b 65
        E 0 93 2c 67
        E 0 9b 3d 64
        E 31 88 4c 65
        E 0 8e 3c 63
        E 1 8f 3b 65
        E 0 80 2c 65
        E 0 95 4d 65
        E 1 9e 3c 63
        E 0 9f 3d 65
        E 0 92 2d 64
        E 33 8d 3c 64
        E 0 8e 3c 63
        E 1 84 2c 66
        E 0 87 4d 63
        E 1 9a 4e 64
        E 0 9d 3c 64
        E 0 9e 3d 66
        E 0 91 2d 65
        E 32 86 4d 64
        E 0 8d 3c 64
        E 1 83 2c 67
        E 0 8c 3c 65
        E 1 98 4e 65
        E 0 9d 3d 67
        E 0 90 2e 64
        E 0 9c 3c 65
        E 30 85 4d 65
        E 1 82 2d 64
        E 0 8b 3d 64
        E 0 8c 3c 65
        E 1 94 2e 65
        E 0 97 4e 66
        E 0 9b 3d 64
        E 0 9c 3e 64
        E 34 8a 4e 64
        E 1 8f 3d 65
        E 0 81 2d 65
        E 0 8b 3d 64
        E 1 96 4e 67
        E 0 9f 3d 65
        E 0 93 2e 66
        E 0 9b 3e 65
        E 32 88 4e 65
        E 0 8e 3d 66
        E 0 8f 3d 65
        E 0 80 2e 64
        E 1 95 4f 64
        E 0 9e 3d 66
        E 1 9f 3f 64
        E 0 92 2e 67
        E 30 8d 3d 67
        E 0 8e 3d 66
        E 0 87 4e 66
        E 0 9a 4f 65
        E 1 9d 3d 67
        E 1 9e 3f 65
        E 1 91 2f 64
        E 33 86 4e 67
        E 1 8d 3d 67
        E 0 84 2e 65
        E 0 8c 3e 64
        E 1 98 50 64
        E 0 9d 3f 66
        E 0 90 2f 65
        E 0 9c 3e 64
        E 31 85 4f 64
        E 0 83 2e 66
        E 1 8b 3e 65
        E 0 8c 3e 64
        E 1 94 30 63
        E 0 97 50 65
        E 0 9b 3e 65
        E 0 9c 3f 67
        E 32 8a 4f 65
        E 0 8f 3f 64
        E 1 82 2e 67
        E 1 8b 3e 65
        E 0 96 50 66
        E 0 9f 3f 64
        E 1 93 30 64
        E 0 9b 40 64
        E 30 88 50 64
        E 1 8e 3f 65
        E 0 8f 3f 64
        E 0 81 2f 64
        E 1 95 50 67
        E 0 9e 3f 65
        E 0 9f 40 65
        E 0 92 30 65
        E 33 8d 3f 66
        E 1 8e 3f 65
        E 0 80 2f 65
        E 0 87 50 65
        E 0 9a 51 64
        E 1 9d 3f 66
        E 0 9e 41 63
        E 0 91 31 64
        E 31 85 50 67
        E 0 86 50 66
        E 0 8d 3f 66
        E 1 84 30 63
        E 0 8c 3f 67
        E 1 98 51 65
        E 0 9d 41 64
        E 0 90 31 65
        E 0 9c 3f 67
        E 35 8a 51 64
        E 0 83 30 64
        E 0 8b 40 64
        E 1 8c 3f 67
        E 0 94 31 66
        E 0 97 52 64
        E 0 9b 40 64
        E 1 9c 41 65
        E 27 88 51 65
        E 0 8f 40 65
        E 1 82 30 65
        E 0 8b 40 64
        E 0 96 52 65
        E 0 9f 40 65
        E 1 93 31 67
        E 0 9b 42 64
        E 33 8e 41 63
        E 1 8f 40 65
        E 0 81 31 64
        E 0 87 52 64
        E 1 95 52 66
        E 0 9e 41 63
        E 0 9f 42 65
        E 0 92 32 64
        E 33 86 52 65
        E 0 8d 41 64
        E 1 8e 41 63
        E 0 80 31 65
        E 0 9a 52 67
        E 0 9d 41 64
        E 0 9e 42 66
        E 1 91 32 65
        E 32 85 52 66
        E 0 8d 41 64
        E 1 84 31 66
        E 0 8c 41 65
        E 0 98 53 64
        E 1 9d 42 67
        E 0 90 33 64
        E 0 9c 41 65
        E 32 8a 52 67
        E 0 83 31 67
        E 1 8b 42 64
        E 0 8c 41 65
        E 0 94 33 65
        E 0 97 53 65
        E 1 9b 42 64
        E 0 9c 43 64
        E 33 8f 42 65
        E 0 82 32 64
        E 0 8b 42 64
        E 1 9f 42 65
        E 0 93 33 66
        E 0 9b 43 65
        E 33 88 53 64
        E 1 8e 42 66
        E 0 8f 42 65
        E 0 81 32 65
        E 0 87 53 65
        E 0 95 24 64
        E 1 9a 54 64
        E 0 9e 42 66
        E 0 9f 44 64
        E 0 92 33 67
        E 29 8d 42 67
        E 1 8e 42 66
        E 0 80 33 64
        E 0 98 54 65
        E 1 9d 42 67
        E 0 9e 44 65
        E 0 91 34 64
        E 34 85 24 64
        E 0 8a 54 64
        E 1 8d 42 67
        E 0 84 33 65
        E 0 8c 43 64
        E 1 9d 44 66
        E 0 90 34 65
        E 0 97 25 64
        E 0 9c 43 64
        E 31 88 54 65
        E 0 83 33 66
        E 0 8b 43 65
        E 1 8c 43 64
        E 0 94 35 63
        E 1 9b 43 65
        E 1 9c 44 67
        E 32 8f 44 64
        E 0 82 33 67
        E 0 87 25 64
        E 1 8b 43 65
        E 0 95 25 66
        E 1 9f 44 64
        E 0 93 35 64
        E 0 9b 45 64
        E 34 8e 44 65
        E 0 8f 44 64
        E 0 81 34 64
        E 0 9e 44 65
        E 1 9f 45 65
        E 0 92 35 65
        E 29 85 25 66
        E 0 8d 44 66
        E 1 8e 44 65
        E 0 80 34 65
        E 0 98 26 64
        E 1 9d 44 66
        E 0 9e 46 64
        E 0 91 36 64
        E 32 8d 44 66
        E 1 84 35 63
        E 0 8c 44 67
        E 0 9d 46 65
        E 0 90 36 65
        E 1 94 35 63
        E 0 9c 44 67
        E 33 88 26 64
        E 0 83 35 64
        E 0 84 35 63
        E 0 8b 45 64
        E 1 8c 44 67
        E 0 96 27 64
        E 1 93 35 64
        E 0 94 36 66
        E 0 9b 45 64
        E 1 9c 46 66
        E 32 8f 45 65
        E 0 82 35 65
        E 0 83 35 64
        E 1 8b 45 64
        E 0 92 35 65
        E 0 93 36 67
        E 1 9b 46 67
        E 31 86 27 64
        E 0 8e 46 64
        E 1 81 36 64
        E 0 82 35 65
        E 0 9a 27 66
        E 0 9f 47 64
        E 1 91 36 64
        E 0 92 37 64
        E 30 8d 46 65
        E 0 80 36 65
        E 0 81 36 64
        E 0 9e 47 65
        E 1 90 36 65
        E 0 91 37 65
        E 35 8a 27 66
        E 0 80 36 65
        E 1 84 36 66
        E 0 8c 46 66
        E 0 9d 48 63
        E 0 90 38 64
        E 0 94 36 66
        E 0 97 28 64
        E 33 83 36 67
        E 0 84 36 66
        E 1 8b 46 67
        E 0 93 36 67
        E 0 94 38 65
        E 1 9c 48 64
        E 30 8f 47 64
        E 0 82 37 64
        E 0 83 36 67
        E 0 87 28 64
        E 0 95 29 63
        E 1 92 37 64
        E 0 93 38 66
        E 0 9b 48 65
        E 33 8e 47 65
        E 0 81 37 65
        E 0 82 37 64
        E 0 9a 29 64
        E 0 9f 49 64
        E 1 91 37 65
        E 0 92 38 67
        E 34 85 29 63
        E 0 8d 48 63
        E 0 80 38 64
        E 1 81 37 65
        E 0 98 29 65
        E 1 9e 48 64
        E 0 90 38 64
        E 0 91 39 64
        E 33 80 38 64
        E 0 84 38 65
        E 0 8c 48 64
        E 0 9d 49 66
        E 0 90 39 65
        E 1 94 38 65
        E 0 97 2a 64
        E 31 8a 29 64
        E 0 83 38 66
        E 1 84 38 65
        E 0 8b 48 65
        E 0 96 2a 65
        E 0 93 38 66
        E 0 94 3a 64
        E 1 9b 48 65
        E 0 9c 49 67
        E 34 88 29 65
        E 0 8f 49 64
        E 0 82 38 67
        E 1 83 38 66
        E 0 8b 48 65
        E 0 95 2a 66
        E 0 92 38 67
        E 1 93 3a 65
        E 0 9b 4a 64
        E 30 8e 48 64
        E 1 81 39 64
        E 0 82 38 67
        E 0 87 2a 64
        E 0 9a 2a 67
        E 1 9f 4a 65
        E 0 91 39 64
        E 0 92 3a 66
        E 33 86 2a 65
        E 0 8d 49 66
        E 0 80 39 65
        E 1 81 39 64
        E 0 98 2b 64
        E 1 9e 4b 64
        E 0 90 3b 64
        E 0 91 3a 67
        E 33 85 2a 66
        E 0 80 3b 64
        E 0 84 3a 64
        E 1 8c 49 67
        E 0 9d 4b 65
        E 1 90 3b 64
        E 0 94 3a 64
        E 0 97 2b 65
        E 30 8a 2a 67
        E 0 83 3a 65
        E 0 84 3a 64
        E 1 8b 4a 64
        E 0 96 2c 64
        E 0 93 3a 65
        E 0 94 3b 65
        E 0 9c 4b 66
        E 33 88 2b 64
        E 0 8f 4a 65
        E 1 82 3a 66
        E 0 83 3a 65
        E 0 95 2c 65
        E 1 92 3a 66
        E 0 93 3c 63
        E 0 9b 4b 67
        E 34 8e 4b 64
        E 0 81 3a 67
        E 0 82 3a 66
        E 1 87 2b 65
        E 0 9a 2c 66
        E 0 9f 4c 64
        E 1 91 3a 67
        E 0 92 3c 64
        E 30 86 2c 64
        E 0 8d 4b 65
        E 0 80 3b 64
        E 1 81 3a 67
        E 0 98 2c 67
        E 1 9e 4c 65
        E 0 90 3b 64
        E 1 91 3c 65
        E 33 85 2c 65
        E 0 80 3b 64
        E 1 84 3b 65
        E 0 8c 4b 66
        E 0 9d 4d 63
        E 1 90 3d 64
        E 0 94 3b 65
        E 1 97 2d 64
        E 29 8a 2c 66
        E 1 8f 4c 64
        E 0 83 3c 63
        E 0 84 3b 65
        E 1 8b 4b 67
        E 0 96 2d 65
        E 1 93 3c 63
        E 0 94 3d 65
        E 1 9c 4d 64
        E 32 88 2c 67
        E 1 8e 4c 65
        E 0 82 3c 64
        E 1 83 3c 63
        E 0 95 2e 64
        E 1 92 3c 64
        E 0 93 3d 66
        E 1 9b 4d 65
        E 28 8d 4d 63
        E 1 81 3c 65
        E 0 82 3c 64
        E 1 87 2d 64
        E 0 9a 2e 65
        E 0 9f 4e 64
        E 1 91 3c 65
        E 0 92 3d 67
        E 30 86 2d 65
        E 1 80 3d 64
        E 0 81 3c 65
        E 1 8c 4d 64
        E 0 98 2e 66
        E 1 9e 4e 65
        E 1 90 3d 64
        E 0 91 3e 64
        E 31 85 2e 64
        E 0 80 3d 64
        E 1 84 3d 65
        E 0 8b 4d 65
        E 1 9d 4e 66
        E 0 90 3e 65
        E 0 94 3d 65
        E 0 97 2e 67
        E 32 8f 4e 64
        E 1 83 3d 66
        E 0 84 3d 65
        E 1 96 2f 64
        E 0 93 3d 66
        E 1 94 3f 64
        E 1 9c 4e 67
        E 30 8a 2e 65
        E 0 8e 4e 65
        E 1 82 3d 67
        E 0 83 3d 66
        E 1 95 2f 65
        E 0 92 3d 67
        E 0 93 3f 65
        E 1 9b 4f 64
        E 31 88 2e 66
        E 1 8d 4e 66
        E 0 81 3e 64
        E 0 82 3d 67
        E 1 9a 30 63
        E 0 9f 4f 65
        E 1 91 3e 64
        E 0 92 3f 66
        E 31 80 3e 65
        E 1 81 3e 64
        E 1 87 2e 67
        E 0 8c 4e 67
        E 0 98 30 64
        E 1 9e 50 64
        E 1 90 3e 65
        E 0 91 3f 67
        E 30 86 2f 64
        E 0 80 3e 65
        E 0 84 3f 64
        E 1 8b 4f 64
        E 0 9d 50 65
        E 1 90 40 64
        E 0 94 3f 64
        E 1 97 30 65
        E 29 85 2f 65
        E 0 8f 4f 65
        E 1 83 3f 65
        E 0 84 3f 64
        E 1 96 31 64
        E 0 93 3f 65
        E 1 94 40 65
        E 1 9c 50 66
        E 32 8a 30 63
        E 1 8e 50 64
        E 0 82 3f 66
        E 0 83 3f 65
        E 1 95 31 65
        E 0 92 3f 66
        E 0 93 41 63
        E 1 9b 50 67
        E 30 88 30 64
        E 1 8d 50 65
        E 0 81 3f 67
        E 1 82 3f 66
        E 0 9a 31 66
        E 1 9f 51 64
        E 1 91 3f 67
        E 1 92 41 64
        E 30 80 40 64
        E 0 81 3f 67
        E 1 87 30 65
        E 0 8b 50 67
        E 1 8c 50 66
        E 0 98 31 67
        E 1 9e 51 65
        E 0 90 40 64
        E 1 91 41 65
        E 29 86 31 64
        E 1 8f 51 64
        E 1 80 40 64
        E 0 84 40 65
        E 1 9d 52 64
        E 0 90 42 64
        E 1 94 40 65
        E 0 97 32 64
        E 28 85 31 65
        E 1 8e 51 65
        E 0 83 41 63
        E 1 84 40 65
        E 1 96 32 65
        E 0 93 41 63
        E 1 94 42 65
        E 0 9c 52 65
        E 32 8a 31 66
        E 1 8d 52 64
        E 0 82 41 64
        E 1 83 41 63
        E 1 95 33 64
        E 0 92 41 64
        E 1 93 42 66
        E 0 9b 52 66
        E 29 88 31 67
        E 0 81 41 65
        E 1 82 41 64
        E 0 8c 52 65
        E 0 9a 33 65
        E 1 9f 52 67
        E 0 91 41 65
        E 1 92 42 67
        E 31 80 42 64
        E 0 81 41 65
        E 1 87 32 64
        E 0 8b 52 66
        E 1 98 33 66
        E 0 9e 53 64
        E 1 90 42 64
        E 0 91 43 64
        E 31 86 32 65
        E 0 8f 52 67
        E 1 80 42 64
        E 0 84 42 65
        E 1 9d 53 65
        E 0 90 43 65
        E 1 94 42 65
        E 0 97 33 67
        E 30 85 33 64
        E 1 83 42 66
        E 0 84 42 65
        E 1 96 34 64
        E 0 93 42 66
        E 1 94 44 64
        E 32 8a 33 65
        E 0 8d 53 65
        E 1 8e 53 64
        E 0 82 42 67
        E 1 83 42 66
        E 0 95 34 65
        E 1 9f 54 64
        E 0 92 42 67
        E 1 93 44 65
        E 0 9b 24 64
        E 32 88 33 66
        E 0 81 43 64
        E 1 82 42 67
        E 1 9a 35 63
        E 0 9e 54 65
        E 1 91 43 64
        E 0 92 44 66
        E 27 8f 54 64
        E 0 80 43 65
        E 1 81 43 64
        E 1 87 33 67
        E 0 8b 24 64
        E 0 98 35 64
        E 1 9d 25 64
        E 0 90 43 65
        E 1 91 44 67
        E 31 86 34 64
        E 0 8e 54 65
        E 1 80 43 65
        E 1 84 44 64
        E 0 90 45 64
        E 1 94 44 64
        E 0 97 35 65
        E 31 85 34 65
        E 1 8d 25 64
        E 0 83 44 65
        E 1 84 44 64
        E 0 96 36 64
        E 0 93 44 65
        E 1 94 45 65
        E 1 9b 25 66
        E 29 8a 35 63
        E 1 82 44 66
        E 0 83 44 65
        E 1 95 36 65
        E 0 9a 35 63
        E 0 92 44 66
        E 1 93 46 64
        E 32 88 35 64
        E 0 8a 35 63
        E 0 81 44 67
        E 1 82 44 66
        E 1 8b 25 66
        E 0 98 35 64
        E 1 9a 36 66
        E 0 9e 26 64
        E 1 91 44 67
        E 0 92 46 65
        E 30 88 35 64
        E 1 80 45 64
        E 1 81 44 67
        E 0 87 35 65
        E 1 98 36 67
        E 0 90 45 64
        E 1 91 46 66
        E 0 97 35 65
        E 29 86 36 64
        E 0 8e 26 64
        E 1 80 45 64
        E 1 84 45 65
        E 1 87 35 65
        E 1 96 36 64
        E 0 90 46 67
        E 0 97 37 64
        E 1 9c 27 64
        E 31 85 36 65
        E 1 86 36 64
        E 0 83 46 64
        E 0 95 36 65
        E 1 96 37 65
        E 0 94 47 64
        E 33 85 36 65
        E 0 8a 36 66
        E 1 82 46 65
        E 1 8c 27 64
        E 0 95 38 64
        E 1 9a 36 66
        E 0 9f 27 66
        E 1 93 47 65
        E 26 88 36 67
        E 1 8a 36 66
        E 0 81 46 66
        E 1 98 36 67
        E 0 9a 38 65
        E 1 92 48 63
        E 33 88 36 67
        E 0 8f 27 66
        E 0 80 46 67
        E 1 87 37 64
        E 0 98 38 66
        E 1 9d 28 64
        E 0 91 48 64
        E 1 97 37 64
        E 29 86 37 65
        E 0 84 47 64
        E 1 87 37 64
        E 0 96 37 65
        E 0 90 48 65
        E 1 97 38 67
        E 32 85 38 64
        E 1 86 37 65
        E 0 8d 28 64
        E 1 83 47 65
        E 0 95 38 64
        E 1 96 39 64
        E 0 94 49 64
        E 1 9b 29 63
        E 30 85 38 64
        E 0 8a 38 65
        E 1 82 48 63
        E 0 95 39 65
        E 1 9a 38 65
        E 1 9f 29 64
        E 0 93 48 64
        E 32 88 38 66
        E 1 8a 38 65
        E 0 81 48 64
        E 1 8b 29 63
        E 0 98 38 66
        E 1 9a 3a 64
        E 1 9e 29 65
        E 0 92 49 66
        E 31 88 38 66
        E 0 80 48 65
        E 1 87 38 67
        E 1 98 3a 65
        E 0 9d 2a 64
        E 1 90 48 65
        E 0 91 49 67
        E 1 97 38 67
        E 28 86 39 64
        E 1 8f 29 64
        E 0 80 48 65
        E 1 84 49 64
        E 1 87 38 67
        E 0 96 39 64
        E 1 90 4a 64
        E 0 97 3a 66
        E 1 9c 2a 65
        E 29 85 39 65
        E 0 86 39 64
        E 1 8e 29 65
        E 0 83 48 64
        E 1 95 3b 64
        E 0 96 3a 67
        E 0 94 4a 65
        E 1 9b 2a 66
        E 33 85 3b 64
        E 1 8a 3a 64
        E 0 8d 2a 64
        E 1 82 49 66
        E 0 95 3b 64
        E 1 9a 3a 64
        E 1 9f 2a 67
        E 0 93 4b 64
        E 30 88 3a 65
        E 0 8a 3a 64
        E 1 81 49 67
        E 0 8c 2a 65
        E 0 98 3a 65
        E 1 9a 3b 65
        E 1 9e 2b 64
        E 0 92 4b 65
        E 29 88 3a 65
        E 1 80 4a 64
        E 0 87 3a 66
        E 1 8b 2a 66
        E 0 98 3c 63
        E 1 9d 2b 65
        E 1 91 4b 66
        E 1 97 3a 66
        E 29 86 3a 67
        E 0 8f 2a 67
        E 1 84 4a 65
        E 1 87 3a 66
        E 0 96 3a 67
        E 2 90 4b 67
        E 0 97 3c 64
        E 1 9c 2c 64
        E 30 85 3b 64
        E 1 86 3a 67
        E 0 8e 2b 64
        E 1 83 4b 64
        E 1 95 3b 64
        E 0 96 3c 65
        E 1 94 4c 64
        E 0 9b 2c 65
        E 29 85 3b 64
        E 0 8a 3b 65
        E 1 8d 2b 65
        E 0 82 4b 65
        E 1 95 3d 64
        E 0 9a 3b 65
        E 1 9f 2c 66
        E 0 93 4c 65
        E 32 88 3c 63
        E 0 8a 3b 65
        E 1 81 4b 66
        E 0 8c 2c 64
        E 1 98 3c 63
        E 0 9a 3d 65
        E 1 9e 2c 67
        E 0 92 4d 63
        E 31 88 3c 63
        E 0 80 4b 67
        E 1 84 4c 64
        E 0 87 3c 64
        E 1 8b 2c 65
        E 0 98 3d 66
        E 1 9d 2d 64
        E 0 91 4d 64
        E 1 97 3c 64
        E 28 86 3c 65
        E 0 8f 2c 66
        E 1 83 4c 65
        E 1 87 3c 64
        E 0 96 3c 65
        E 1 90 4d 65
        E 1 97 3d 67
        E 0 9c 2d 65
        E 30 85 3d 64
        E 1 86 3c 65
        E 0 8e 2c 67
        E 1 82 4d 63
        E 0 95 3d 64
        E 0 96 3e 64
        E 1 94 4e 64
        E 0 9b 2e 64
        E 29 85 3d 64
        E 1 8a 3d 65
        E 0 8d 2d 64
        E 1 81 4d 64
        E 0 95 3e 65
        E 0 9a 3d 65
        E 1 9f 2e 65
        E 0 93 4e 65
        E 32 88 3d 66
        E 0 8a 3d 65
        E 1 80 4d 65
        E 0 8c 2d 65
        E 1 98 3d 66
        E 1 9a 3f 64
        E 0 9e 2e 66
        E 1 92 4e 66
        E 30 88 3d 66
        E 0 84 4e 64
        E 1 87 3d 67
        E 0 8b 2e 64
        E 1 98 3f 65
        E 0 9d 2e 67
        E 1 91 4e 67
        E 0 97 3d 67
        E 30 86 3e 64
        E 0 83 4e 65
        E 1 87 3d 67
        E 0 96 3e 64
        E 1 90 4f 64
        E 2 97 3f 66
        E 1 9c 2f 64
        E 31 85 3e 65
        E 0 86 3e 64
        E 1 8f 2e 65
        E 0 82 4e 66
        E 1 95 3e 65
        E 0 96 3f 67
        E 1 94 4f 65
        E 0 9b 2f 65
        E 31 85 3e 65
        E 0 8a 3f 64
        E 1 8e 2e 66
        E 1 81 4e 67
        E 0 95 40 64
        E 1 9a 3f 64
        E 1 9f 30 63
        E 0 93 50 64
        E 28 88 3f 65
        E 1 8a 3f 64
        E 0 8d 2e 67
        E 1 80 4f 64
        E 0 98 3f 65
        E 1 9a 40 65
        E 0 9e 30 64
        E 1 92 50 65
        E 32 88 3f 65
        E 1 84 4f 65
        E 0 87 3f 66
        E 1 8c 2f 64
        E 1 98 41 63
        E 0 9d 30 65
        E 1 91 50 66
        E 0 97 3f 66
        E 30 86 3f 67
        E 1 83 50 64
        E 0 87 3f 66
        E 1 8b 2f 65
        E 0 96 3f 67
        E 1 90 50 67
        E 1 97 41 64
        E 0 9c 31 64
        E 28 85 40 64
        E 0 86 3f 67
        E 1 8f 30 63
        E 1 82 50 65
        E 0 95 40 64
        E 1 96 41 65
        E 1 94 51 64
        E 0 9b 31 65
        E 31 85 40 64
        E 0 8a 40 65
        E 1 8e 30 64
        E 1 80 50 67
        E 0 81 50 66
        E 1 95 42 64
        E 0 9a 40 65
        E 1 9f 31 66
        E 0 93 51 65
        E 31 88 41 63
        E 0 8a 40 65
        E 1 8d 30 65
        E 0 84 51 64
        E 1 98 41 63
        E 1 9a 42 65
        E 0 9e 31 67
        E 0 92 52 64
        E 29 88 41 63
        E 1 83 51 65
        E 0 87 41 64
        E 1 8c 31 64
        E 0 98 42 66
        E 1 9d 32 64
        E 0 91 52 65
        E 0 97 41 64
        E 32 86 41 65
        E 0 82 52 64
        E 1 87 41 64
        E 0 8b 31 65
        E 0 96 41 65
        E 1 90 52 66
        E 0 97 42 67
        E 1 9c 32 65
        E 32 85 42 64
        E 0 86 41 65
        E 1 8f 31 66
        E 1 81 52 65
        E 0 95 42 64
        E 1 96 43 64
        E 0 94 52 67
        E 1 9b 33 64
        E 29 85 42 64
        E 0 8a 42 65
        E 1 8e 31 67
        E 0 80 52 66
        E 1 95 43 65
        E 0 9a 42 65
        E 1 9f 33 65
        E 0 93 53 64
        E 31 88 42 66
        E 1 8a 42 65
        E 0 8d 32 64
        E 0 84 52 67
        E 1 98 42 66
        E 0 9a 44 64
        E 1 9e 33 66
        E 0 92 53 65
        E 28 88 42 66
        E 1 87 42 67
        E 0 8c 32 65
        E 1 98 44 65
        E 0 9d 33 67
        E 1 97 42 67
        E 31 85 43 65
        E 1 86 43 64
        E 0 88 44 65
        E 1 8a 44 64
        E 1 8d 33 67
        E 0 8e 33 66
        E 0 8f 33 65
        E 1 82 53 65
        E 0 83 53 64
        E 1 87 42 67
        E 0 8b 33 64
        E 1 95 43 65
        E 0 96 43 64
        E 1 98 44 65
        E 1 9a 44 64
        E 0 9d 33 67
        E 0 9e 33 66
        E 1 9f 33 65
        E 0 90 24 64
        E 0 94 54 64
        E 1 97 44 66
        E 0 9c 34 64
        E 25 86 43 64
        E 0 8f 33 65
        E 1 96 44 67
        E 0 93 54 65
        E 0 9b 34 65
        E 29 85 43 65
        E 0 8e 33 66
        E 1 80 24 64
        E 0 84 54 64
        E 1 95 45 64
        E 0 9f 35 63
        E 1 92 25 64
        E 29 8a 44 64
        E 1 8d 33 67
        E 0 83 54 65
        E 1 9a 45 65
        E 0 9e 35 64
        E 33 88 44 65
        E 0 82 25 64
        E 1 87 44 66
        E 0 8c 34 64
        E 1 98 46 64
        E 0 9d 35 65
        E 1 90 25 66
        E 0 97 44 66
        E 27 86 44 67
        E 0 87 44 66
        E 1 8b 34 65
        E 0 96 44 67
        E 1 97 46 65
        E 0 9c 36 64
        E 29 85 45 64
        E 1 86 44 67
        E 0 8f 35 63
        E 1 80 25 66
        E 0 95 45 64
        E 1 96 46 66
        E 0 9f 35 63
        E 1 93 26 64
        E 0 9b 36 65
        E 29 85 45 64
        E 0 8a 45 65
        E 1 8e 35 64
        E 0 8f 35 63
        E 1 95 46 67
        E 0 9e 35 64
        E 0 9f 36 66
        E 28 88 46 64
        E 1 8d 35 65
        E 0 8e 35 64
        E 1 83 26 64
        E 1 9a 47 64
        E 0 9d 35 65
        E 1 9e 36 67
        E 0 91 27 64
        E 29 8d 35 65
        E 0 87 46 65
        E 1 8c 36 64
        E 1 98 47 65
        E 0 9d 37 64
        E 1 9c 36 64
        E 33 86 46 66
        E 0 81 27 64
        E 1 8b 36 65
        E 1 8c 36 64
        E 0 94 27 66
        E 1 97 48 63
        E 1 9b 36 65
        E 0 9c 37 65
        E 24 85 46 67
        E 1 8f 36 66
        E 0 8b 36 65
        E 1 96 48 64
        E 0 9f 36 66
        E 1 9b 38 64
        E 30 8a 47 64
        E 0 8e 36 67
        E 2 8f 36 66
        E 0 84 27 66
        E 1 95 48 65
        E 0 9e 36 67
        E 1 9f 38 65
        E 0 92 28 64
        E 29 88 47 65
        E 1 8d 37 64
        E 0 8e 36 67
        E 1 9a 49 64
        E 1 9d 37 64
        E 1 9e 38 66
        E 26 8d 37 64
        E 1 82 28 64
        E 0 87 48 63
        E 1 8c 37 65
        E 0 98 48 64
        E 1 9d 38 67
        E 0 90 29 63
        E 1 9c 37 65
        E 28 86 48 64
        E 1 8b 38 64
        E 0 8c 37 65
        E 1 94 29 64
        E 0 97 49 66
        E 1 9b 38 64
        E 1 9c 39 64
        E 29 85 48 65
        E 0 8f 38 65
        E 1 80 29 63
        E 0 8b 38 64
        E 1 95 48 65
        E 0 96 49 67
        E 1 9f 38 65
        E 0 93 29 65
        E 1 9b 39 65
        E 28 85 48 65
        E 0 8a 49 64
        E 1 8e 38 66
        E 0 8f 38 65
        E 0 95 4a 64
        E 1 9e 38 66
        E 0 9f 3a 64
        E 1 92 2a 64
        E 27 88 48 64
        E 1 8d 38 67
        E 0 8e 38 66
        E 1 84 29 64
        E 1 9a 4a 65
        E 0 9d 38 67
        E 1 9e 3a 65
        E 0 91 2a 65
        E 29 8d 38 67
        E 0 83 29 65
        E 1 87 49 66
        E 1 8c 39 64
        E 0 98 4b 64
        E 1 9d 3a 66
        E 0 90 2a 66
        E 1 9c 39 64
        E 27 86 49 67
        E 0 82 2a 64
        E 1 8b 39 65
        E 0 8c 39 64
        E 1 94 2a 67
        E 0 97 4b 65
        E 1 9b 3b 64
        E 0 9c 3a 67
        E 31 85 4a 64
        E 1 8f 3a 64
        E 1 81 2a 65
        E 0 8b 3b 64
        E 1 96 4b 66
        E 0 9f 3a 64
        E 1 93 2b 64
        E 0 9b 3b 64
        E 29 8a 4a 65
        E 1 8e 3a 65
        E 0 8f 3a 64
        E 1 80 2a 66
        E 0 95 4b 67
        E 1 9e 3a 65
        E 1 9f 3b 65
        E 0 92 2b 65
        E 26 88 4b 64
        E 1 8d 3a 66
        E 0 8e 3a 65
        E 1 84 2a 67
        E 1 9a 4c 64
        E 0 9d 3a 66
        E 1 9e 3c 63
        E 0 91 2c 64
        E 27 8d 3a 66
        E 1 83 2b 64
        E 0 87 4b 65
        E 1 8c 3a 67
        E 0 98 4c 65
        E 1 9d 3c 64
        E 0 90 2c 65
        E 1 9c 3a 67
        E 29 86 4b 66
        E 1 82 2b 65
        E 0 8b 3b 64
        E 1 8c 3a 67
        E 0 94 2c 66
        E 1 97 4d 63
        E 1 9b 3b 64
        E 0 9c 3c 65
        E 29 85 4b 67
        E 1 8a 4c 64
        E 1 8f 3b 65
        E 0 81 2c 64
        E 1 8b 3b 64
        E 1 96 4d 64
        E 0 9f 3b 65
        E 0 93 2c 67
        E 1 9b 3d 64
        E 28 88 4c 65
        E 0 8e 3c 63
        E 1 8f 3b 65
        E 0 80 2c 65
        E 1 95 4d 65
        E 0 9e 3c 63
        E 1 9f 3d 65
        E 0 92 2d 64
        E 29 8d 3c 64
        E 1 8e 3c 63
        E 1 84 2c 66
        E 0 87 4d 63
        E 1 9a 4e 64
        E 1 9d 3c 64
        E 0 9e 3d 66
        E 1 91 2d 65
        E 26 86 4d 64
        E 1 8d 3c 64
        E 0 83 2c 67
        E 1 8c 3c 65
        E 1 98 4e 65
        E 0 9d 3d 67
        E 1 90 2e 64
        E 0 9c 3c 65
        E 28 85 4d 65
        E 1 82 2d 64
        E 0 8b 3d 64
        E 1 8c 3c 65
        E 1 94 2e 65
        E 0 97 4e 66
        E 1 9b 3d 64
        E 0 9c 3e 64
        E 27 8a 4e 64
        E 1 8f 3d 65
        E 0 81 2d 65
        E 1 8b 3d 64
        E 1 96 4e 67
        E 1 9f 3d 65
        E 0 93 2e 66
        E 1 9b 3e 65
        E 26 88 4e 65
        E 0 8e 3d 66
        E 1 8f 3d 65
        E 0 80 2e 64
        E 1 95 4f 64
        E 1 9e 3d 66
        E 0 9f 3f 64
        E 1 92 2e 67
        E 31 8d 3d 67
        E 0 8e 3d 66
        E 1 87 4e 66
        E 1 9a 4f 65
        E 0 9d 3d 67
        E 1 9e 3f 65
        E 0 91 2f 64
        E 29 86 4e 67
        E 1 8d 3d 67
        E 1 84 2e 65
        E 0 8c 3e 64
        E 1 98 50 64
        E 1 9d 3f 66
        E 1 90 2f 65
        E 0 9c 3e 64
        E 27 85 4f 64
        E 0 83 2e 66
        E 0 8b 3e 65
        E 2 8c 3e 64
        E 0 94 30 63
        E 0 97 50 65
        E 1 9b 3e 65
        E 1 9c 3f 67
        E 29 8a 4f 65
        E 0 8f 3f 64
        E 1 82 2e 67
        E 0 8b 3e 65
        E 1 96 50 66
        E 0 9f 3f 64
        E 0 93 30 64
        E 1 9b 40 64
        E 28 88 50 64
        E 1 8e 3f 65
        E 0 8f 3f 64
        E 1 81 2f 64
        E 0 95 50 67
        E 1 9e 3f 65
        E 0 9f 40 65
        E 0 92 30 65
        E 27 8d 3f 66
        E 0 8e 3f 65
        E 1 80 2f 65
        E 0 87 50 65
        E 1 9a 51 64
        E 0 9d 3f 66
        E 1 9e 41 63
        E 1 91 31 64
        E 28 85 50 67
        E 0 86 50 66
        E 1 8d 3f 66
        E 1 84 30 63
        E 1 8c 3f 67
        E 0 98 51 65
        E 1 9d 41 64
        E 1 90 31 65
        E 1 9c 3f 67
        E 29 8a 51 64
        E 1 83 30 64
        E 0 8b 40 64
        E 1 8c 3f 67
        E 1 94 31 66
        E 0 97 52 64
        E 1 9b 40 64
        E 0 9c 41 65
        E 26 88 51 65
        E 1 8f 40 65
        E 0 82 30 65
        E 1 8b 40 64
        E 1 96 52 65
        E 0 9f 40 65
        E 1 93 31 67
        E 1 9b 42 64
        E 26 8e 41 63
        E 1 8f 40 65
        E 1 81 31 64
        E 0 87 52 64
        E 1 95 52 66
        E 0 9e 41 63
        E 1 9f 42 65
        E 0 92 32 64
        E 29 86 52 65
        E 1 8d 41 64
        E 1 8e 41 63
        E 0 80 31 65
        E 0 9a 52 67
        E 1 9d 41 64
        E 1 9e 42 66
        E 0 91 32 65
        E 27 85 52 66
        E 1 8d 41 64
        E 1 84 31 66
        E 0 8c 41 65
        E 1 98 53 64
        E 1 9d 42 67
        E 1 90 33 64
        E 1 9c 41 65
        E 27 8a 52 67
        E 2 83 31 67
        E 0 8b 42 64
        E 1 8c 41 65
        E 0 94 33 65
        E 1 97 53 65
        E 0 9b 42 64
        E 1 9c 43 64
        E 27 8f 42 65
        E 0 82 32 64
        E 0 8b 42 64
        E 1 9f 42 65
        E 1 93 33 66
        E 0 9b 43 65
        E 30 88 53 64
        E 0 8e 42 66
        E 1 8f 42 65
        E 0 81 32 65
        E 1 87 53 65
        E 1 95 24 64
        E 0 9a 54 64
        E 1 9e 42 66
        E 1 9f 44 64
        E 1 92 33 67
        E 27 8d 42 67
        E 1 8e 42 66
        E 0 80 33 64
        E 0 98 54 65
        E 1 9d 42 67
        E 1 9e 44 65
        E 0 91 34 64
        E 28 85 24 64
        E 1 8a 54 64
        E 1 8d 42 67
        E 0 84 33 65
        E 1 8c 43 64
        E 0 9d 44 66
        E 1 90 34 65
        E 1 97 25 64
        E 0 9c 43 64
        E 25 88 54 65
        E 1 83 33 66
        E 0 8b 43 65
        E 1 8c 43 64
        E 1 94 35 63
        E 0 9b 43 65
        E 1 9c 44 67
        E 30 8f 44 64
        E 1 82 33 67
        E 0 87 25 64
        E 1 8b 43 65
        E 0 95 25 66
        E 1 9f 44 64
        E 0 93 35 64
        E 1 9b 45 64
        E 28 8e 44 65
        E 1 8f 44 64
        E 1 81 34 64
        E 0 9e 44 65
        E 1 9f 45 65
        E 0 92 35 65
        E 29 85 25 66
        E 1 8d 44 66
        E 1 8e 44 65
        E 0 80 34 65
        E 0 98 26 64
        E 1 9d 44 66
        E 0 9e 46 64
        E 1 91 36 64
        E 27 8d 44 66
        E 2 84 35 63
        E 0 8c 44 67
        E 1 9d 46 65
        E 0 90 36 65
        E 1 94 35 63
        E 1 9c 44 67
        E 29 88 26 64
        E 1 83 35 64
        E 0 84 35 63
        E 1 8b 45 64
        E 1 8c 44 67
        E 0 96 27 64
        E 1 93 35 64
        E 0 94 36 66
        E 1 9b 45 64
        E 1 9c 46 66
        E 23 8f 45 65
        E 1 82 35 65
        E 1 83 35 64
        E 0 8b 45 64
        E 1 92 35 65
        E 1 93 36 67
        E 0 9b 46 67
        E 29 86 27 64
        E 1 8e 46 64
        E 1 81 36 64
        E 0 82 35 65
        E 1 9a 27 66
        E 0 9f 47 64
        E 1 91 36 64
        E 1 92 37 64
        E 28 8d 46 65
        E 0 80 36 65
        E 1 81 36 64
        E 0 9e 47 65
        E 0 90 36 65
        E 1 91 37 65
        E 28 8a 27 66
        E 1 80 36 65
        E 1 84 36 66
        E 0 8c 46 66
        E 1 9d 48 63
        E 0 90 38 64
        E 1 94 36 66
        E 1 97 28 64
        E 29 83 36 67
        E 0 84 36 66
        E 1 8b 46 67
        E 1 93 36 67
        E 1 94 38 65
        E 1 9c 48 64
        E 30 8f 47 64
        E 1 82 37 64
        E 0 83 36 67
        E 0 87 28 64
        E 1 95 29 63
        E 0 92 37 64
        E 1 93 38 66
        E 1 9b 48 65
        E 29 8e 47 65
        E 0 81 37 65
        E 1 82 37 64
        E 0 9a 29 64
        E 1 9f 49 64
        E 1 91 37 65
        E 0 92 38 67
        E 26 85 29 63
        E 1 8d 48 63
        E 0 80 38 64
        E 1 81 37 65
        E 0 98 29 65
        E 1 9e 48 64
        E 0 90 38 64
        E 1 91 39 64
        E 29 80 38 64
        E 0 84 38 65
        E 1 8c 48 64
        E 0 9d 49 66
        E 1 90 39 65
        E 1 94 38 65
        E 0 97 2a 64
        E 27 8a 29 64
        E 0 83 38 66
        E 1 84 38 65
        E 0 8b 48 65
        E 1 96 2a 65
        E 0 93 38 66
        E 1 94 3a 64
        E 0 9b 48 65
        E 1 9c 49 67
        E 29 88 29 65
        E 1 8f 49 64
        E 0 82 38 67
        E 1 83 38 66
        E 1 8b 48 65
        E 0 95 2a 66
        E 0 92 38 67
        E 1 93 3a 65
        E 1 9b 4a 64
        E 29 8e 48 64
        E 1 81 39 64
        E 0 82 38 67
        E 1 87 2a 64
        E 1 9a 2a 67
        E 0 9f 4a 65
        E 0 91 39 64
        E 1 92 3a 66
        E 24 86 2a 65
        E 1 8d 49 66
        E 1 80 39 65
        E 0 81 39 64
        E 1 98 2b 64
        E 0 9e 4b 64
        E 1 90 3b 64
        E 1 91 3a 67
        E 28 85 2a 66
        E 0 80 3b 64
        E 1 84 3a 64
        E 0 8c 49 67
        E 1 9d 4b 65
        E 0 90 3b 64
        E 1 94 3a 64
        E 1 97 2b 65
        E 29 8a 2a 67
        E 0 83 3a 65
        E 1 84 3a 64
        E 0 8b 4a 64
        E 1 96 2c 64
        E 0 93 3a 65
        E 1 94 3b 65
        E 0 9c 4b 66
        E 29 88 2b 64
        E 1 8f 4a 65
        E 1 82 3a 66
        E 0 83 3a 65
        E 1 95 2c 65
        E 0 92 3a 66
        E 1 93 3c 63
        E 0 9b 4b 67
        E 27 8e 4b 64
        E 1 81 3a 67
        E 0 82 3a 66
        E 1 87 2b 65
        E 1 9a 2c 66
        E 0 9f 4c 64
        E 0 91 3a 67
        E 1 92 3c 64
        E 30 86 2c 64
        E 0 8d 4b 65
        E 1 80 3b 64
        E 0 81 3a 67
        E 1 98 2c 67
        E 0 9e 4c 65
        E 1 90 3b 64
        E 0 91 3c 65
        E 29 85 2c 65
        E 0 80 3b 64
        E 1 84 3b 65
        E 0 8c 4b 66
        E 1 9d 4d 63
        E 1 90 3d 64
        E 0 94 3b 65
        E 0 97 2d 64
        E 26 8a 2c 66
        E 1 8f 4c 64
        E 0 83 3c 63
        E 1 84 3b 65
        E 1 8b 4b 67
        E 0 96 2d 65
        E 1 93 3c 63
        E 0 94 3d 65
        E 0 9c 4d 64
        E 29 88 2c 67
        E 0 8e 4c 65
        E 1 82 3c 64
        E 0 83 3c 63
        E 1 95 2e 64
        E 0 92 3c 64
        E 1 93 3d 66
        E 0 9b 4d 65
        E 29 8d 4d 63
        E 0 81 3c 65
        E 1 82 3c 64
        E 0 87 2d 64
        E 1 9a 2e 65
        E 1 9f 4e 64
        E 0 91 3c 65
        E 0 92 3d 67
        E 29 86 2d 65
        E 1 80 3d 64
        E 1 81 3c 65
        E 0 8c 4d 64
        E 1 98 2e 66
        E 1 9e 4e 65
        E 1 90 3d 64
        E 0 91 3e 64
        E 30 85 2e 64
        E 1 80 3d 64
        E 0 84 3d 65
        E 0 8b 4d 65
        E 1 9d 4e 66
        E 0 90 3e 65
        E 1 94 3d 65
        E 0 97 2e 67
        E 28 8f 4e 64
        E 1 83 3d 66
        E 0 84 3d 65
        E 1 96 2f 64
        E 0 93 3d 66
        E 1 94 3f 64
        E 0 9c 4e 67
        E 28 8a 2e 65
        E 1 8e 4e 65
        E 0 82 3d 67
        E 1 83 3d 66
        E 1 95 2f 65
        E 0 92 3d 67
        E 1 93 3f 65
        E 0 9b 4f 64
        E 29 88 2e 66
        E 0 8d 4e 66
        E 1 81 3e 64
        E 0 82 3d 67
        E 1 9a 30 63
        E 0 9f 4f 65
        E 1 91 3e 64
        E 0 92 3f 66
        E 27 80 3e 65
        E 1 81 3e 64
        E 0 87 2e 67
        E 1 8c 4e 67
        E 0 98 30 64
        E 1 9e 50 64
        E 0 90 3e 65
        E 1 91 3f 67
        E 28 86 2f 64
        E 1 80 3e 65
        E 0 84 3f 64
        E 1 8b 4f 64
        E 0 9d 50 65
        E 1 90 40 64
        E 0 94 3f 64
        E 1 97 30 65
        E 30 85 2f 65
        E 1 8f 4f 65
        E 0 83 3f 65
        E 1 84 3f 64
        E 0 96 31 64
        E 1 93 3f 65
        E 0 94 40 65
        E 1 9c 50 66
        E 28 8a 30 63
        E 0 8e 50 64
        E 1 82 3f 66
        E 0 83 3f 65
        E 1 95 31 65
        E 1 92 3f 66
        E 0 93 41 63
        E 1 9b 50 67
        E 29 88 30 64
        E 0 8d 50 65
        E 1 81 3f 67
        E 0 82 3f 66
        E 1 9a 31 66
        E 1 9f 51 64
        E 1 91 3f 67
        E 0 92 41 64
        E 26 80 40 64
        E 1 81 3f 67
        E 1 87 30 65
        E 0 8b 50 67
        E 0 8c 50 66
        E 1 98 31 67
        E 1 9e 51 65
        E 0 90 40 64
        E 0 91 41 65
        E 27 86 31 64
        E 1 8f 51 64
        E 0 80 40 64
        E 1 84 40 65
        E 0 9d 52 64
        E 0 90 42 64
        E 1 94 40 65
        E 0 97 32 64
        E 29 85 31 65
        E 1 8e 51 65
        E 1 83 41 63
        E 0 84 40 65
        E 1 96 32 65
        E 1 93 41 63
        E 0 94 42 65
        E 1 9c 52 65
        E 28 8a 31 66
        E 1 8d 52 64
        E 1 82 41 64
        E 0 83 41 63
        E 1 95 33 64
        E 0 92 41 64
        E 1 93 42 66
        E 0 9b 52 66
        E 27 88 31 67
        E 1 81 41 65
        E 0 82 41 64
        E 1 8c 52 65
        E 1 9a 33 65
        E 0 9f 52 67
        E 1 91 41 65
        E 0 92 42 67
        E 31 80 42 64
        E 1 81 41 65
        E 0 87 32 64
        E 1 8b 52 66
        E 1 98 33 66
        E 0 9e 53 64
        E 1 90 42 64
        E 1 91 43 64
        E 27 86 32 65
        E 1 8f 52 67
        E 0 80 42 64
        E 1 84 42 65
        E 0 9d 53 65
        E 1 90 43 65
        E 0 94 42 65
        E 1 97 33 67
        E 23 85 33 64
        E 0 83 42 66
        E 1 84 42 65
        E 0 96 34 64
        E 1 93 42 66
        E 0 94 44 64
        E 32 8a 33 65
        E 0 8d 53 65
        E 1 8e 53 64
        E 1 82 42 67
        E 0 83 42 66
        E 1 95 34 65
        E 0 9f 54 64
        E 1 92 42 67
        E 0 93 44 65
        E 1 9b 24 64
        E 27 88 33 66
        E 2 81 43 64
        E 1 82 42 67
        E 1 9a 35 63
        E 0 9e 54 65
        E 1 91 43 64
        E 0 92 44 66
        E 28 8f 54 64
        E 1 80 43 65
        E 0 81 43 64
        E 0 87 33 67
        E 1 8b 24 64
        E 0 98 35 64
        E 1 9d 25 64
        E 0 90 43 65
        E 1 91 44 67
        E 29 86 34 64
        E 1 8e 54 65
        E 0 80 43 65
        E 1 84 44 64
        E 0 90 45 64
        E 1 94 44 64
        E 0 97 35 65
        E 28 85 34 65
        E 0 8d 25 64
        E 1 83 44 65
        E 1 84 44 64
        E 0 96 36 64
        E 1 93 44 65
        E 1 94 45 65
        E 0 9b 25 66
        E 26 8a 35 63
        E 0 82 44 66
        E 1 83 44 65
        E 0 95 36 65
        E 1 9a 35 63
        E 1 92 44 66
        E 0 93 46 64
        E 29 88 35 64
        E 1 8a 35 63
        E 1 81 44 67
        E 0 82 44 66
        E 1 8b 25 66
        E 0 98 35 64
        E 1 9a 36 66
        E 0 9e 26 64
        E 1 91 44 67
        E 0 92 46 65
        E 29 88 35 64
        E 0 80 45 64
        E 1 81 44 67
        E 1 87 35 65
        E 0 98 36 67
        E 1 90 45 64
        E 0 91 46 66
        E 1 97 35 65
        E 29 86 36 64
        E 0 8e 26 64
        E 1 80 45 64
        E 0 84 45 65
        E 0 87 35 65
        E 1 96 36 64
        E 0 90 46 67
        E 1 97 37 64
        E 0 9c 27 64
        E 28 85 36 65
        E 1 86 36 64
        E 0 83 46 64
        E 1 95 36 65
        E 1 96 37 65
        E 0 94 47 64
        E 30 85 36 65
        E 1 8a 36 66
        E 1 82 46 65
        E 0 8c 27 64
        E 1 95 38 64
        E 0 9a 36 66
        E 1 9f 27 66
        E 0 93 47 65
        E 26 88 36 67
        E 1 8a 36 66
        E 0 81 46 66
        E 1 98 36 67
        E 0 9a 38 65
        E 1 92 48 63
        E 29 88 36 67
        E 1 8f 27 66
        E 0 80 46 67
        E 1 87 37 64
        E 0 98 38 66
        E 1 9d 28 64
        E 0 91 48 64
        E 1 97 37 64
        E 29 86 37 65
        E 0 84 47 64
        E 1 87 37 64
        E 0 96 37 65
        E 1 90 48 65
        E 0 97 38 67
        E 30 85 38 64
        E 0 86 37 65
        E 0 8d 28 64
        E 1 83 47 65
        E 0 95 38 64
        E 1 96 39 64
        E 0 94 49 64
        E 1 9b 29 63
        E 30 85 38 64
        E 1 8a 38 65
        E 0 82 48 63
        E 1 95 39 65
        E 1 9a 38 65
        E 0 9f 29 64
        E 0 93 48 64
        E 30 88 38 66
        E 1 8a 38 65
        E 0 81 48 64
        E 0 8b 29 63
        E 1 98 38 66
        E 1 9a 3a 64
        E 1 9e 29 65
        E 0 92 49 66
        E 24 88 38 66
        E 1 80 48 65
        E 1 87 38 67
        E 0 98 3a 65
        E 1 9d 2a 64
        E 0 90 48 65
        E 1 91 49 67
        E 0 97 38 67
        E 30 86 39 64
        E 0 8f 29 64
        E 1 80 48 65
        E 0 84 49 64
        E 1 87 38 67
        E 0 96 39 64
        E 1 90 4a 64
        E 0 97 3a 66
        E 1 9c 2a 65
        E 28 85 39 65
        E 0 86 39 64
        E 1 8e 29 65
        E 0 83 48 64
        E 1 95 3b 64
        E 0 96 3a 67
        E 1 94 4a 65
        E 0 9b 2a 66
        E 27 85 3b 64
        E 1 8a 3a 64
        E 0 8d 2a 64
        E 1 82 49 66
        E 0 95 3b 64
        E 1 9a 3a 64
        E 0 9f 2a 67
        E 1 93 4b 64
        E 31 88 3a 65
        E 1 8a 3a 64
        E 0 81 49 67
        E 1 8c 2a 65
        E 0 98 3a 65
        E 1 9a 3b 65
        E 0 9e 2b 64
        E 1 92 4b 65
        E 28 88 3a 65
        E 1 80 4a 64
        E 1 87 3a 66
        E 0 8b 2a 66
        E 1 98 3c 63
        E 0 9d 2b 65
        E 1 91 4b 66
        E 0 97 3a 66
        E 27 86 3a 67
        E 0 8f 2a 67
        E 1 84 4a 65
        E 0 87 3a 66
        E 1 96 3a 67
        E 0 90 4b 67
        E 1 97 3c 64
        E 0 9c 2c 64
        E 27 85 3b 64
        E 1 86 3a 67
        E 0 8e 2b 64
        E 1 83 4b 64
        E 0 95 3b 64
        E 1 96 3c 65
        E 0 94 4c 64
        E 1 9b 2c 65
        E 30 85 3b 64
        E 1 8a 3b 65
        E 1 8d 2b 65
        E 0 82 4b 65
        E 1 95 3d 64
        E 0 9a 3b 65
        E 0 9f 2c 66
        E 1 93 4c 65
        E 28 88 3c 63
        E 0 8a 3b 65
        E 1 81 4b 66
        E 0 8c 2c 64
        E 1 98 3c 63
        E 0 9a 3d 65
        E 1 9e 2c 67
        E 1 92 4d 63
        E 28 88 3c 63
        E 0 80 4b 67
        E 1 84 4c 64
        E 1 87 3c 64
        E 0 8b 2c 65
        E 1 98 3d 66
        E 0 9d 2d 64
        E 1 91 4d 64
        E 0 97 3c 64
        E 29 86 3c 65
        E 1 8f 2c 66
        E 0 83 4c 65
        E 1 87 3c 64
        E 0 96 3c 65
        E 1 90 4d 65
        E 0 97 3d 67
        E 1 9c 2d 65
        E 24 85 3d 64
        E 0 86 3c 65
        E 1 8e 2c 67
        E 0 82 4d 63
        E 1 95 3d 64
        E 0 96 3e 64
        E 0 94 4e 64
        E 1 9b 2e 64
        E 30 85 3d 64
        E 1 8a 3d 65
        E 0 8d 2d 64
        E 1 81 4d 64
        E 0 95 3e 65
        E 1 9a 3d 65
        E 0 9f 2e 65
        E 1 93 4e 65
        E 30 88 3d 66
        E 1 8a 3d 65
        E 0 80 4d 65
        E 1 8c 2d 65
        E 0 98 3d 66
        E 1 9a 3f 64
        E 0 9e 2e 66
        E 1 92 4e 66
        E 28 88 3d 66
        E 0 84 4e 64
        E 1 87 3d 67
        E 0 8b 2e 64
        E 1 98 3f 65
        E 0 9d 2e 67
        E 1 91 4e 67
        E 0 97 3d 67
        E 29 86 3e 64
        E 1 83 4e 65
        E 0 87 3d 67
        E 2 96 3e 64
        E 0 90 4f 64
        E 1 97 3f 66
        E 1 9c 2f 64
        E 28 85 3e 65
        E 0 86 3e 64
        E 1 8f 2e 65
        E 0 82 4e 66
        E 1 95 3e 65
        E 0 96 3f 67
        E 0 94 4f 65
        E 1 9b 2f 65
        E 28 85 3e 65
        E 1 8a 3f 64
        E 0 8e 2e 66
        E 1 81 4e 67
        E 1 95 40 64
        E 0 9a 3f 64
        E 1 9f 30 63
        E 0 93 50 64
        E 27 88 3f 65
        E 0 8a 3f 64
        E 1 8d 2e 67
        E 0 80 4f 64
        E 1 98 3f 65
        E 1 9a 40 65
        E 0 9e 30 64
        E 1 92 50 65
        E 29 88 3f 65
        E 0 84 4f 65
        E 1 87 3f 66
        E 0 8c 2f 64
        E 1 98 41 63
        E 1 9d 30 65
        E 0 91 50 66
        E 1 97 3f 66
        E 27 86 3f 67
        E 0 83 50 64
        E 1 87 3f 66
        E 0 8b 2f 65
        E 1 96 3f 67
        E 0 90 50 67
        E 1 97 41 64
        E 0 9c 31 64
        E 29 85 40 64
        E 1 86 3f 67
        E 0 8f 30 63
        E 1 82 50 65
        E 0 95 40 64
        E 1 96 41 65
        E 0 94 51 64
        E 1 9b 31 65
        E 31 85 40 64
        E 0 8a 40 65
        E 1 8e 30 64
        E 0 80 50 67
        E 0 81 50 66
        E 1 95 42 64
        E 0 9a 40 65
        E 1 9f 31 66
        E 0 93 51 65
        E 28 88 41 63
        E 0 8a 40 65
        E 1 8d 30 65
        E 0 84 51 64
        E 1 98 41 63
        E 1 9a 42 65
        E 0 9e 31 67
        E 0 92 52 64
        E 27 88 41 63
        E 1 83 51 65
        E 0 87 41 64
        E 1 8c 31 64
        E 1 98 42 66
        E 0 9d 32 64
        E 1 91 52 65
        E 0 97 41 64
        E 30 86 41 65
        E 1 82 52 64
        E 0 87 41 64
        E 1 8b 31 65
        E 0 96 41 65
        E 0 90 52 66
        E 1 97 42 67
        E 0 9c 32 65
        E 28 85 42 64
        E 1 86 41 65
        E 1 8f 31 66
        E 0 81 52 65
        E 1 95 42 64
        E 1 96 43 64
        E 0 94 52 67
        E 1 9b 33 64
        E 28 85 42 64
        E 1 8a 42 65
        E 0 8e 31 67
        E 1 80 52 66
        E 1 95 43 65
        E 0 9a 42 65
        E 1 9f 33 65
        E 0 93 53 64
        E 27 88 42 66
        E 1 8a 42 65
        E 0 8d 32 64
        E 1 84 52 67
        E 0 98 42 66
        E 1 9a 44 64
        E 1 9e 33 66
        E 0 92 53 65
        E 27 88 42 66
        E 1 87 42 67
        E 1 8c 32 65
        E 0 98 44 65
        E 1 9d 33 67
        E 0 97 42 67
        E 31 85 43 65
        E 1 86 43 64
        E 0 88 44 65
        E 1 8a 44 64
        E 0 8d 33 67
        E 1 8e 33 66
        E 1 8f 33 65
        E 1 82 53 65
        E 1 83 53 64
        E 0 87 42 67
        E 1 8b 33 64
        E 0 95 43 65
        E 1 96 43 64
        E 1 98 44 65
        E 0 9a 44 64
        E 1 9d 33 67
        E 1 9e 33 66
        E 0 9f 33 65
        E 1 90 24 64
        E 0 94 54 64
        E 0 97 44 66
        E 1 9c 34 64
        E 18 86 43 64
        E 0 8f 33 65
        E 1 96 44 67
        E 0 93 54 65
        E 1 9b 34 65
        E 28 85 43 65
        E 1 8e 33 66
        E 0 80 24 64
        E 1 84 54 64
        E 1 95 45 64
        E 0 9f 35 63
        E 0 92 25 64
        E 29 8a 44 64
        E 1 8d 33 67
        E 0 83 54 65
        E 1 9a 45 65
        E 0 9e 35 64
        E 33 88 44 65
        E 0 82 25 64
        E 1 87 44 66
        E 1 8c 34 64
        E 0 98 46 64
        E 1 9d 35 65
        E 0 90 25 66
        E 0 97 44 66
        E 28 86 44 67
        E 1 87 44 66
        E 0 8b 34 65
        E 1 96 44 67
        E 1 97 46 65
        E 0 9c 36 64
        E 28 85 45 64
        E 1 86 44 67
        E 0 8f 35 63
        E 1 80 25 66
        E 1 95 45 64
        E 0 96 46 66
        E 1 9f 35 63
        E 0 93 26 64
        E 1 9b 36 65
        E 28 85 45 64
        E 0 8a 45 65
        E 1 8e 35 64
        E 0 8f 35 63
        E 1 95 46 67
        E 0 9e 35 64
        E 1 9f 36 66
        E 27 88 46 64
        E 0 8d 35 65
        E 1 8e 35 64
        E 0 83 26 64
        E 1 9a 47 64
        E 0 9d 35 65
        E 1 9e 36 67
        E 0 91 27 64
        E 31 8d 35 65
        E 0 87 46 65
        E 1 8c 36 64
        E 0 98 47 65
        E 1 9d 37 64
        E 0 9c 36 64
        E 30 86 46 66
        E 1 81 27 64
        E 0 8b 36 65
        E 1 8c 36 64
        E 0 94 27 66
        E 1 97 48 63
        E 0 9b 36 65
        E 0 9c 37 65
        E 29 85 46 67
        E 0 8f 36 66
        E 1 8b 36 65
        E 0 96 48 64
        E 1 9f 36 66
        E 0 9b 38 64
        E 30 8a 47 64
        E 0 8e 36 67
        E 1 8f 36 66
        E 1 84 27 66
        E 1 95 48 65
        E 0 9e 36 67
        E 1 9f 38 65
        E 0 92 28 64
        E 29 88 47 65
        E 0 8d 37 64
        E 1 8e 36 67
        E 0 9a 49 64
        E 1 9d 37 64
        E 1 9e 38 66
        E 27 8d 37 64
        E 1 82 28 64
        E 0 87 48 63
        E 0 8c 37 65
        E 1 98 48 64
        E 0 9d 38 67
        E 1 90 29 63
        E 1 9c 37 65
        E 29 86 48 64
        E 1 8b 38 64
        E 1 8c 37 65
        E 0 94 29 64
        E 1 97 49 66
        E 0 9b 38 64
        E 1 9c 39 64
        E 28 85 48 65
        E 0 8f 38 65
        E 1 80 29 63
        E 1 8b 38 64
        E 1 95 48 65
        E 0 96 49 67
        E 1 9f 38 65
        E 0 93 29 65
        E 1 9b 39 65
        E 26 85 48 65
        E 0 8a 49 64
        E 1 8e 38 66
        E 1 8f 38 65
        E 0 95 4a 64
        E 1 9e 38 66
        E 0 9f 3a 64
        E 2 92 2a 64
        E 28 88 48 64
        E 1 8d 38 67
        E 0 8e 38 66
        E 1 84 29 64
        E 0 9a 4a 65
        E 1 9d 38 67
        E 0 9e 3a 65
        E 1 91 2a 65
        E 28 8d 38 67
        E 1 83 29 65
        E 0 87 49 66
        E 1 8c 39 64
        E 0 98 4b 64
        E 1 9d 3a 66
        E 0 90 2a 66
        E 1 9c 39 64
        E 28 86 49 67
        E 0 82 2a 64
        E 1 8b 39 65
        E 0 8c 39 64
        E 1 94 2a 67
        E 0 97 4b 65
        E 1 9b 3b 64
        E 0 9c 3a 67
        E 29 85 4a 64
        E 1 8f 3a 64
        E 0 81 2a 65
        E 1 8b 3b 64
        E 1 96 4b 66
        E 0 9f 3a 64
        E 0 93 2b 64
        E 1 9b 3b 64
        E 27 8a 4a 65
        E 1 8e 3a 65
        E 1 8f 3a 64
        E 0 80 2a 66
        E 1 95 4b 67
        E 1 9e 3a 65
        E 0 9f 3b 65
        E 1 92 2b 65
        E 28 88 4b 64
        E 1 8d 3a 66
        E 0 8e 3a 65
        E 1 84 2a 67
        E 1 9a 4c 64
        E 0 9d 3a 66
        E 1 9e 3c 63
        E 0 91 2c 64
        E 28 8d 3a 66
        E 1 83 2b 64
        E 0 87 4b 65
        E 1 8c 3a 67
        E 1 98 4c 65
        E 0 9d 3c 64
        E 1 90 2c 65
        E 0 9c 3a 67
        E 29 86 4b 66
        E 1 82 2b 65
        E 0 8b 3b 64
        E 1 8c 3a 67
        E 0 94 2c 66
        E 1 97 4d 63
        E 0 9b 3b 64
        E 1 9c 3c 65
        E 25 85 4b 67
        E 1 8a 4c 64
        E 1 8f 3b 65
        E 0 81 2c 64
        E 0 8b 3b 64
        E 1 96 4d 64
        E 0 9f 3b 65
        E 1 93 2c 67
        E 0 9b 3d 64
        E 30 88 4c 65
        E 0 8e 3c 63
        E 1 8f 3b 65
        E 0 80 2c 65
        E 1 95 4d 65
        E 0 9e 3c 63
        E 1 9f 3d 65
        E 0 92 2d 64
        E 29 8d 3c 64
        E 1 8e 3c 63
        E 0 84 2c 66
        E 1 87 4d 63
        E 0 9a 4e 64
        E 1 9d 3c 64
        E 0 9e 3d 66
        E 1 91 2d 65
        E 28 86 4d 64
        E 1 8d 3c 64
        E 1 83 2c 67
        E 0 8c 3c 65
        E 0 98 4e 65
        E 1 9d 3d 67
        E 1 90 2e 64
        E 0 9c 3c 65
        E 28 85 4d 65
        E 1 82 2d 64
        E 1 8b 3d 64
        E 0 8c 3c 65
        E 1 94 2e 65
        E 0 97 4e 66
        E 1 9b 3d 64
        E 0 9c 3e 64
        E 30 8a 4e 64
        E 1 8f 3d 65
        E 1 81 2d 65
        E 0 8b 3d 64
        E 1 96 4e 67
        E 0 9f 3d 65
        E 1 93 2e 66
        E 0 9b 3e 65
        E 27 88 4e 65
        E 1 8e 3d 66
        E 0 8f 3d 65
        E 1 80 2e 64
        E 0 95 4f 64
        E 1 9e 3d 66
        E 0 9f 3f 64
        E 1 92 2e 67
        E 26 8d 3d 67
        E 1 8e 3d 66
        E 0 87 4e 66
        E 1 9a 4f 65
        E 1 9d 3d 67
        E 0 9e 3f 65
        E 1 91 2f 64
        E 29 86 4e 67
        E 1 8d 3d 67
        E 1 84 2e 65
        E 0 8c 3e 64
        E 1 98 50 64
        E 0 9d 3f 66
        E 1 90 2f 65
        E 1 9c 3e 64
        E 26 85 4f 64
        E 1 83 2e 66
        E 0 8b 3e 65
        E 0 8c 3e 64
        E 1 94 30 63
        E 1 97 50 65
        E 0 9b 3e 65
        E 1 9c 3f 67
        E 29 8a 4f 65
        E 1 8f 3f 64
        E 1 82 2e 67
        E 0 8b 3e 65
        E 1 96 50 66
        E 0 9f 3f 64
        E 1 93 30 64
        E 0 9b 40 64
        E 29 88 50 64
        E 1 8e 3f 65
        E 0 8f 3f 64
        E 0 81 2f 64
        E 1 95 50 67
        E 0 9e 3f 65
        E 1 9f 40 65
        E 0 92 30 65
        E 28 8d 3f 66
        E 0 8e 3f 65
        E 0 80 2f 65
        E 0 87 50 65
        E 0 9a 51 64
        E 1 9d 3f 66
        E 1 9e 41 63
        E 0 91 31 64
        E 29 85 50 67
        E 1 86 50 66
        E 0 8d 3f 66
        E 1 84 30 63
        E 0 8c 3f 67
        E 0 98 51 65
        E 1 9d 41 64
        E 0 90 31 65
        E 1 9c 3f 67
        E 30 8a 51 64
        E 1 83 30 64
        E 0 8b 40 64
        E 1 8c 3f 67
        E 0 94 31 66
        E 1 97 52 64
        E 0 9b 40 64
        E 1 9c 41 65
        E 27 88 51 65
        E 0 8f 40 65
        E 1 82 30 65
        E 0 8b 40 64
        E 1 96 52 65
        E 0 9f 40 65
        E 1 93 31 67
        E 0 9b 42 64
        E 29 8e 41 63
        E 0 8f 40 65
        E 1 81 31 64
        E 0 87 52 64
        E 1 95 52 66
        E 0 9e 41 63
        E 1 9f 42 65
        E 1 92 32 64
        E 28 86 52 65
        E 0 8d 41 64
        E 1 8e 41 63
        E 0 80 31 65
        E 1 9a 52 67
        E 0 9d 41 64
        E 1 9e 42 66
        E 0 91 32 65
        E 28 85 52 66
        E 1 8d 41 64
        E 1 84 31 66
        E 0 8c 41 65
        E 1 98 53 64
        E 0 9d 42 67
        E 1 90 33 64
        E 0 9c 41 65
        E 28 8a 52 67
        E 1 83 31 67
        E 0 8b 42 64
        E 1 8c 41 65
        E 0 94 33 65
        E 1 97 53 65
        E 0 9b 42 64
        E 0 9c 43 64
        E 30 8f 42 65
        E 0 82 32 64
        E 1 8b 42 64
        E 1 9f 42 65
        E 0 93 33 66
        E 1 9b 43 65
        E 29 88 53 64
        E 0 8e 42 66
        E 1 8f 42 65
        E 1 81 32 65
        E 0 87 53 65
        E 1 95 24 64
        E 0 9a 54 64
        E 1 9e 42 66
        E 0 9f 44 64
        E 1 92 33 67
        E 27 8d 42 67
        E 1 8e 42 66
        E 0 80 33 64
        E 1 98 54 65
        E 0 9d 42 67
        E 0 9e 44 65
        E 1 91 34 64
        E 31 85 24 64
        E 0 8a 54 64
        E 0 8d 42 67
        E 1 84 33 65
        E 0 8c 43 64
        E 0 9d 44 66
        E 1 90 34 65
        E 0 97 25 64
        E 2 9c 43 64
        E 27 88 54 65
        E 0 83 33 66
        E 1 8b 43 65
        E 0 8c 43 64
        E 1 94 35 63
        E 0 9b 43 65
        E 1 9c 44 67
        E 26 8f 44 64
        E 1 82 33 67
        E 0 87 25 64
        E 1 8b 43 65
        E 0 95 25 66
        E 1 9f 44 64
        E 0 93 35 64
        E 1 9b 45 64
        E 28 8e 44 65
        E 1 8f 44 64
        E 0 81 34 64
        E 1 9e 44 65
        E 0 9f 45 65
        E 1 92 35 65
        E 29 85 25 66
        E 0 8d 44 66
        E 1 8e 44 65
        E 0 80 34 65
        E 1 98 26 64
        E 0 9d 44 66
        E 1 9e 46 64
        E 0 91 36 64
        E 32 8d 44 66
        E 0 84 35 63
        E 1 8c 44 67
        E 0 9d 46 65
        E 1 90 36 65
        E 0 94 35 63
        E 1 9c 44 67
        E 28 88 26 64
        E 1 83 35 64
        E 0 84 35 63
        E 0 8b 45 64
        E 1 8c 44 67
        E 0 96 27 64
        E 1 93 35 64
        E 0 94 36 66
        E 1 9b 45 64
        E 0 9c 46 66
        E 27 8f 45 65
        E 1 82 35 65
        E 1 83 35 64
        E 0 8b 45 64
        E 1 92 35 65
        E 0 93 36 67
        E 2 9b 46 67
        E 29 86 27 64
        E 1 8e 46 64
        E 0 81 36 64
        E 1 82 35 65
        E 0 9a 27 66
        E 1 9f 47 64
        E 0 91 36 64
        E 1 92 37 64
        E 28 8d 46 65
        E 0 80 36 65
        E 1 81 36 64
        E 0 9e 47 65
        E 1 90 36 65
        E 0 91 37 65
        E 27 8a 27 66
        E 1 80 36 65
        E 0 84 36 66
        E 1 8c 46 66
        E 0 9d 48 63
        E 1 90 38 64
        E 0 94 36 66
        E 1 97 28 64
        E 30 83 36 67
        E 0 84 36 66
        E 1 8b 46 67
        E 1 93 36 67
        E 0 94 38 65
        E 1 9c 48 64
        E 30 8f 47 64
        E 1 82 37 64
        E 1 83 36 67
        E 1 87 28 64
        E 0 95 29 63
        E 1 92 37 64
        E 0 93 38 66
        E 1 9b 48 65
        E 25 8e 47 65
        E 1 81 37 65
        E 0 82 37 64
        E 1 9a 29 64
        E 0 9f 49 64
        E 1 91 37 65
        E 0 92 38 67
        E 30 85 29 63
        E 1 8d 48 63
        E 0 80 38 64
        E 1 81 37 65
        E 0 98 29 65
        E 1 9e 48 64
        E 0 90 38 64
        E 0 91 39 64
        E 28 80 38 64
        E 0 84 38 65
        E 1 8c 48 64
        E 0 9d 49 66
        E 1 90 39 65
        E 0 94 38 65
        E 1 97 2a 64
        E 28 8a 29 64
        E 0 83 38 66
        E 1 84 38 65
        E 0 8b 48 65
        E 1 96 2a 65
        E 0 93 38 66
        E 1 94 3a 64
        E 0 9b 48 65
        E 1 9c 49 67
        E 30 88 29 65
        E 1 8f 49 64
        E 1 82 38 67
        E 0 83 38 66
        E 1 8b 48 65
        E 0 95 2a 66
        E 1 92 38 67
        E 1 93 3a 65
        E 0 9b 4a 64
        E 28 8e 48 64
        E 1 81 39 64
        E 0 82 38 67
        E 1 87 2a 64
        E 0 9a 2a 67
        E 1 9f 4a 65
        E 0 91 39 64
        E 1 92 3a 66
        E 26 86 2a 65
        E 0 8d 49 66
        E 1 80 39 65
        E 1 81 39 64
        E 0 98 2b 64
        E 1 9e 4b 64
        E 1 90 3b 64
        E 0 91 3a 67
        E 31 85 2a 66
        E 0 80 3b 64
        E 1 84 3a 64
        E 0 8c 49 67
        E 1 9d 4b 65
        E 0 90 3b 64
        E 1 94 3a 64
        E 0 97 2b 65
        E 29 8a 2a 67
        E 0 83 3a 65
        E 0 84 3a 64
        E 0 8b 4a 64
        E 0 96 2c 64
        E 0 93 3a 65
        E 1 94 3b 65
        E 0 9c 4b 66
        E 28 88 2b 64
        E 1 8f 4a 65
        E 0 82 3a 66
        E 1 83 3a 65
        E 0 95 2c 65
        E 1 92 3a 66
        E 0 93 3c 63
        E 0 9b 4b 67
        E 31 8e 4b 64
        E 0 81 3a 67
        E 1 82 3a 66
        E 0 87 2b 65
        E 1 9a 2c 66
        E 0 9f 4c 64
        E 1 91 3a 67
        E 0 92 3c 64
        E 30 86 2c 64
        E 0 8d 4b 65
        E 1 80 3b 64
        E 0 81 3a 67
        E 1 98 2c 67
        E 0 9e 4c 65
        E 0 90 3b 64
        E 1 91 3c 65
        E 27 85 2c 65
        E 1 80 3b 64
        E 0 84 3b 65
        E 1 8c 4b 66
        E 0 9d 4d 63
        E 1 90 3d 64
        E 0 94 3b 65
        E 1 97 2d 64
        E 27 8a 2c 66
        E 1 8f 4c 64
        E 1 83 3c 63
        E 0 84 3b 65
        E 1 8b 4b 67
        E 0 96 2d 65
        E 1 93 3c 63
        E 0 94 3d 65
        E 1 9c 4d 64
        E 29 88 2c 67
        E 0 8e 4c 65
        E 1 82 3c 64
        E 0 83 3c 63
        E 1 95 2e 64
        E 0 92 3c 64
        E 1 93 3d 66
        E 0 9b 4d 65
        E 27 8d 4d 63
        E 1 81 3c 65
        E 0 82 3c 64
        E 1 87 2d 64
        E 0 9a 2e 65
        E 1 9f 4e 64
        E 0 91 3c 65
        E 1 92 3d 67
        E 29 86 2d 65
        E 1 80 3d 64
        E 1 81 3c 65
        E 0 8c 4d 64
        E 0 98 2e 66
        E 1 9e 4e 65
        E 1 90 3d 64
        E 0 91 3e 64
        E 28 85 2e 64
        E 1 80 3d 64
        E 1 84 3d 65
        E 1 8b 4d 65
        E 0 9d 4e 66
        E 2 90 3e 65
        E 0 94 3d 65
        E 1 97 2e 67
        E 27 8f 4e 64
        E 0 83 3d 66
        E 1 84 3d 65
        E 0 96 2f 64
        E 1 93 3d 66
        E 0 94 3f 64
        E 1 9c 4e 67
        E 29 8a 2e 65
        E 0 8e 4e 65
        E 1 82 3d 67
        E 1 83 3d 66
        E 1 95 2f 65
        E 0 92 3d 67
        E 1 93 3f 65
        E 0 9b 4f 64
        E 27 88 2e 66
        E 1 8d 4e 66
        E 0 81 3e 64
        E 0 82 3d 67
        E 1 9a 30 63
        E 0 9f 4f 65
        E 1 91 3e 64
        E 0 92 3f 66
        E 28 80 3e 65
        E 1 81 3e 64
        E 1 87 2e 67
        E 0 8c 4e 67
        E 1 98 30 64
        E 0 9e 50 64
        E 1 90 3e 65
        E 0 91 3f 67
        E 30 86 2f 64
        E 1 80 3e 65
        E 0 84 3f 64
        E 1 8b 4f 64
        E 0 9d 50 65
        E 1 90 40 64
        E 0 94 3f 64
        E 1 97 30 65
        E 28 85 2f 65
        E 0 8f 4f 65
        E 1 83 3f 65
        E 1 84 3f 64
        E 0 96 31 64
        E 1 93 3f 65
        E 0 94 40 65
        E 1 9c 50 66
        E 26 8a 30 63
        E 0 8e 50 64
        E 1 82 3f 66
        E 1 83 3f 65
        E 0 95 31 65
        E 1 92 3f 66
        E 1 93 41 63
        E 0 9b 50 67
        E 29 88 30 64
        E 0 8d 50 65
        E 1 81 3f 67
        E 0 82 3f 66
        E 1 9a 31 66
        E 0 9f 51 64
        E 0 91 3f 67
        E 1 92 41 64
        E 29 80 40 64
        E 0 81 3f 67
        E 1 87 30 65
        E 0 8b 50 67
        E 1 8c 50 66
        E 1 98 31 67
        E 0 9e 51 65
        E 3 90 40 64
        E 0 91 41 65
        E 27 86 31 64
        E 1 8f 51 64
        E 0 80 40 64
        E 1 84 40 65
        E 0 9d 52 64
        E 1 90 42 64
        E 0 94 40 65
        E 1 97 32 64
        E 26 85 31 65
        E 0 8e 51 65
        E 1 83 41 63
        E 0 84 40 65
        E 0 96 32 65
        E 1 93 41 63
        E 0 94 42 65
        E 1 9c 52 65
        E 30 8a 31 66
        E 0 8d 52 64
        E 0 82 41 64
        E 1 83 41 63
        E 1 95 33 64
        E 0 92 41 64
        E 1 93 42 66
        E 0 9b 52 66
        E 27 88 31 67
        E 1 81 41 65
        E 0 82 41 64
        E 0 8c 52 65
        E 1 9a 33 65
        E 1 9f 52 67
        E 1 91 41 65
        E 0 92 42 67
        E 30 80 42 64
        E 0 81 41 65
        E 1 87 32 64
        E 0 8b 52 66
        E 1 98 33 66
        E 1 9e 53 64
        E 0 90 42 64
        E 1 91 43 64
        E 28 86 32 65
        E 1 8f 52 67
        E 1 80 42 64
        E 0 84 42 65
        E 1 9d 53 65
        E 0 90 43 65
        E 1 94 42 65
        E 0 97 33 67
        E 27 85 33 64
        E 0 83 42 66
        E 1 84 42 65
        E 1 96 34 64
        E 0 93 42 66
        E 1 94 44 64
        E 30 8a 33 65
        E 1 8d 53 65
        E 0 8e 53 64
        E 1 82 42 67
        E 0 83 42 66
        E 0 95 34 65
        E 1 9f 54 64
        E 0 92 42 67
        E 1 93 44 65
        E 0 9b 24 64
        E 29 88 33 66
        E 1 81 43 64
        E 0 82 42 67
        E 1 9a 35 63
        E 0 9e 54 65
        E 1 91 43 64
        E 1 92 44 66
        E 25 8f 54 64
        E 1 80 43 65
        E 1 81 43 64
        E 0 87 33 67
        E 0 8b 24 64
        E 1 98 35 64
        E 0 9d 25 64
        E 1 90 43 65
        E 1 91 44 67
        E 28 86 34 64
        E 0 8e 54 65
        E 1 80 43 65
        E 0 84 44 64
        E 1 90 45 64
        E 0 94 44 64
        E 1 97 35 65
        E 29 85 34 65
        E 0 8d 25 64
        E 1 83 44 65
        E 0 84 44 64
        E 1 96 36 64
        E 0 93 44 65
        E 1 94 45 65
        E 0 9b 25 66
        E 29 8a 35 63
        E 1 82 44 66
        E 1 83 44 65
        E 0 95 36 65
        E 1 9a 35 63
        E 0 92 44 66
        E 1 93 46 64
        E 28 88 35 64
        E 1 8a 35 63
        E 1 81 44 67
        E 0 82 44 66
        E 1 8b 25 66
        E 1 98 35 64
        E 0 9a 36 66
        E 1 9e 26 64
        E 0 91 44 67
        E 1 92 46 65
        E 27 88 35 64
        E 0 80 45 64
        E 1 81 44 67
        E 0 87 35 65
        E 1 98 36 67
        E 0 90 45 64
        E 1 91 46 66
        E 0 97 35 65
        E 29 86 36 64
        E 0 8e 26 64
        E 1 80 45 64
        E 0 84 45 65
        E 1 87 35 65
        E 1 96 36 64
        E 0 90 46 67
        E 1 97 37 64
        E 1 9c 27 64
        E 27 85 36 65
        E 1 86 36 64
        E 1 83 46 64
        E 0 95 36 65
        E 1 96 37 65
        E 0 94 47 64
        E 29 85 36 65
        E 1 8a 36 66
        E 1 82 46 65
        E 0 8c 27 64
        E 1 95 38 64
        E 0 9a 36 66
        E 1 9f 27 66
        E 0 93 47 65
        E 29 88 36 67
        E 1 8a 36 66
        E 0 81 46 66
        E 1 98 36 67
        E 0 9a 38 65
        E 1 92 48 63
        E 27 88 36 67
        E 1 8f 27 66
        E 0 80 46 67
        E 1 87 37 64
        E 1 98 38 66
        E 0 9d 28 64
        E 1 91 48 64
        E 1 97 37 64
        E 28 86 37 65
        E 0 84 47 64
        E 1 87 37 64
        E 0 96 37 65
        E 1 90 48 65
        E 1 97 38 67
        E 28 85 38 64
        E 0 86 37 65
        E 1 8d 28 64
        E 1 83 47 65
        E 1 95 38 64
        E 0 96 39 64
        E 1 94 49 64
        E 0 9b 29 63
        E 28 85 38 64
        E 0 8a 38 65
        E 1 82 48 63
        E 0 95 39 65
        E 1 9a 38 65
        E 1 9f 29 64
        E 0 93 48 64
        E 31 88 38 66
        E 1 8a 38 65
        E 1 81 48 64
        E 0 8b 29 63
        E 1 98 38 66
        E 0 9a 3a 64
        E 1 9e 29 65
        E 0 92 49 66
        E 28 88 38 66
        E 0 80 48 65
        E 1 87 38 67
        E 0 98 3a 65
        E 1 9d 2a 64
        E 1 90 48 65
        E 0 91 49 67
        E 1 97 38 67
        E 28 86 39 64
        E 0 8f 29 64
        E 1 80 48 65
        E 0 84 49 64
        E 1 87 38 67
        E 0 96 39 64
        E 1 90 4a 64
        E 1 97 3a 66
        E 0 9c 2a 65
        E 26 85 39 65
        E 1 86 39 64
        E 0 8e 29 65
        E 1 83 48 64
        E 0 95 3b 64
        E 1 96 3a 67
        E 0 94 4a 65
        E 1 9b 2a 66
        E 26 85 3b 64
        E 1 8a 3a 64
        E 0 8d 2a 64
        E 3 82 49 66
        E 1 95 3b 64
        E 0 9a 3a 64
        E 1 9f 2a 67
        E 1 93 4b 64
        E 28 88 3a 65
        E 1 8a 3a 64
        E 1 81 49 67
        E 0 8c 2a 65
        E 1 98 3a 65
        E 0 9a 3b 65
        E 1 9e 2b 64
        E 1 92 4b 65
        E 28 88 3a 65
        E 1 80 4a 64
        E 0 87 3a 66
        E 1 8b 2a 66
        E 1 98 3c 63
        E 0 9d 2b 65
        E 1 91 4b 66
        E 0 97 3a 66
        E 28 86 3a 67
        E 1 8f 2a 67
        E 0 84 4a 65
        E 1 87 3a 66
        E 0 96 3a 67
        E 1 90 4b 67
        E 0 97 3c 64
        E 1 9c 2c 64
        E 28 85 3b 64
        E 1 86 3a 67
        E 0 8e 2b 64
        E 1 83 4b 64
        E 0 95 3b 64
        E 1 96 3c 65
        E 0 94 4c 64
        E 1 9b 2c 65
        E 26 85 3b 64
        E 1 8a 3b 65
        E 1 8d 2b 65
        E 0 82 4b 65
        E 1 95 3d 64
        E 0 9a 3b 65
        E 1 9f 2c 66
        E 1 93 4c 65
        E 25 88 3c 63
        E 0 8a 3b 65
        E 1 81 4b 66
        E 1 8c 2c 64
        E 0 98 3c 63
        E 1 9a 3d 65
        E 1 9e 2c 67
        E 1 92 4d 63
        E 28 88 3c 63
        E 1 80 4b 67
        E 2 84 4c 64
        E 0 87 3c 64
        E 1 8b 2c 65
        E 1 98 3d 66
        E 0 9d 2d 64
        E 1 91 4d 64
        E 0 97 3c 64
        E 28 86 3c 65
        E 0 8f 2c 66
        E 1 83 4c 65
        E 1 87 3c 64
        E 0 96 3c 65
        E 1 90 4d 65
        E 0 97 3d 67
        E 1 9c 2d 65
        E 28 85 3d 64
        E 1 86 3c 65
        E 1 8e 2c 67
        E 0 82 4d 63
        E 0 95 3d 64
        E 1 96 3e 64
        E 0 94 4e 64
        E 1 9b 2e 64
        E 29 85 3d 64
        E 0 8a 3d 65
        E 1 8d 2d 64
        E 0 81 4d 64
        E 1 95 3e 65
        E 0 9a 3d 65
        E 1 9f 2e 65
        E 0 93 4e 65
        E 30 88 3d 66
        E 0 8a 3d 65
        E 1 80 4d 65
        E 1 8c 2d 65
        E 1 98 3d 66
        E 0 9a 3f 64
        E 1 9e 2e 66
        E 0 92 4e 66
        E 24 88 3d 66
        E 1 84 4e 64
        E 0 87 3d 67
        E 1 8b 2e 64
        E 0 98 3f 65
        E 0 9d 2e 67
        E 1 91 4e 67
        E 1 97 3d 67
        E 29 86 3e 64
        E 0 83 4e 65
        E 1 87 3d 67
        E 0 96 3e 64
        E 1 90 4f 64
        E 0 97 3f 66
        E 1 9c 2f 64
        E 30 85 3e 65
        E 1 86 3e 64
        E 0 8f 2e 65
        E 1 82 4e 66
        E 0 95 3e 65
        E 1 96 3f 67
        E 0 94 4f 65
        E 1 9b 2f 65
        E 27 85 3e 65
        E 1 8a 3f 64
        E 0 8e 2e 66
        E 1 81 4e 67
        E 1 95 40 64
        E 0 9a 3f 64
        E 1 9f 30 63
        E 0 93 50 64
        E 28 88 3f 65
        E 1 8a 3f 64
        E 1 8d 2e 67
        E 0 80 4f 64
        E 1 98 3f 65
        E 1 9a 40 65
        E 0 9e 30 64
        E 1 92 50 65
        E 27 88 3f 65
        E 0 84 4f 65
        E 1 87 3f 66
        E 0 8c 2f 64
        E 1 98 41 63
        E 1 9d 30 65
        E 1 91 50 66
        E 0 97 3f 66
        E 27 86 3f 67
        E 1 83 50 64
        E 0 87 3f 66
        E 1 8b 2f 65
        E 1 96 3f 67
        E 0 90 50 67
        E 1 97 41 64
        E 0 9c 31 64
        E 29 85 40 64
        E 1 86 3f 67
        E 0 8f 30 63
        E 1 82 50 65
        E 1 95 40 64
        E 0 96 41 65
        E 1 94 51 64
        E 0 9b 31 65
        E 30 85 40 64
        E 1 8a 40 65
        E 0 8e 30 64
        E 0 80 50 67
        E 1 81 50 66
        E 0 95 42 64
        E 1 9a 40 65
        E 0 9f 31 66
        E 1 93 51 65
        E 26 88 41 63
        E 0 8a 40 65
        E 1 8d 30 65
        E 0 84 51 64
        E 1 98 41 63
        E 1 9a 42 65
        E 0 9e 31 67
        E 0 92 52 64
        E 30 88 41 63
        E 1 83 51 65
        E 0 87 41 64
        E 1 8c 31 64
        E 0 98 42 66
        E 1 9d 32 64
        E 1 91 52 65
        E 0 97 41 64
        E 29 86 41 65
        E 1 82 52 64
        E 0 87 41 64
        E 0 8b 31 65
        E 1 96 41 65
        E 0 90 52 66
        E 1 97 42 67
        E 0 9c 32 65
        E 27 85 42 64
        E 1 86 41 65
        E 0 8f 31 66
        E 1 81 52 65
        E 1 95 42 64
        E 0 96 43 64
        E 1 94 52 67
        E 1 9b 33 64
        E 29 85 42 64
        E 0 8a 42 65
        E 1 8e 31 67
        E 1 80 52 66
        E 0 95 43 65
        E 1 9a 42 65
        E 0 9f 33 65
        E 1 93 53 64
        E 28 88 42 66
        E 1 8a 42 65
        E 0 8d 32 64
        E 1 84 52 67
        E 0 98 42 66
        E 1 9a 44 64
        E 0 9e 33 66
        E 1 92 53 65
        E 26 88 42 66
        E 1 87 42 67
        E 1 8c 32 65
        E 0 98 44 65
        E 1 9d 33 67
        E 1 97 42 67
        E 29 85 43 65
        E 0 86 43 64
        E 1 88 44 65
        E 0 8a 44 64
        E 1 8d 33 67
        E 0 8e 33 66
        E 0 8f 33 65
        E 1 82 53 65
        E 0 83 53 64
        E 1 87 42 67
        E 0 8b 33 64
        E 0 95 43 65
        E 1 96 43 64
        E 0 98 44 65
        E 1 9a 44 64
        E 1 9d 33 67
        E 0 9e 33 66
        E 1 9f 33 65
        E 0 90 24 64
        E 1 94 54 64
        E 1 97 44 66
        E 0 9c 34 64
        E 23 86 43 64
        E 0 8f 33 65
        E 1 96 44 67
        E 0 93 54 65
        E 1 9b 34 65
        E 26 85 43 65
        E 1 8e 33 66
        E 0 80 24 64
        E 1 84 54 64
        E 1 95 45 64
        E 0 9f 35 63
        E 0 92 25 64
        E 31 8a 44 64
        E 1 8d 33 67
        E 1 83 54 65
        E 0 9a 45 65
        E 1 9e 35 64
        E 30 88 44 65
        E 0 82 25 64
        E 1 87 44 66
        E 0 8c 34 64
        E 1 98 46 64
        E 0 9d 35 65
        E 0 90 25 66
        E 1 97 44 66
        E 27 86 44 67
        E 0 87 44 66
        E 1 8b 34 65
        E 1 96 44 67
        E 1 97 46 65
        E 0 9c 36 64
        E 30 85 45 64
        E 0 86 44 67
        E 1 8f 35 63
        E 0 80 25 66
        E 1 95 45 64
        E 0 96 46 66
        E 1 9f 35 63
        E 0 93 26 64
        E 1 9b 36 65
        E 31 85 45 64
        E 1 8a 45 65
        E 1 8e 35 64
        E 0 8f 35 63
        E 0 95 46 67
        E 1 9e 35 64
        E 1 9f 36 66
        E 27 88 46 64
        E 0 8d 35 65
        E 1 8e 35 64
        E 1 83 26 64
        E 1 9a 47 64
        E 0 9d 35 65
        E 1 9e 36 67
        E 1 91 27 64
        E 25 8d 35 65
        E 0 87 46 65
        E 1 8c 36 64
        E 1 98 47 65
        E 1 9d 37 64
        E 1 9c 36 64
        E 30 86 46 66
        E 1 81 27 64
        E 1 8b 36 65
        E 0 8c 36 64
        E 1 94 27 66
        E 0 97 48 63
        E 1 9b 36 65
        E 1 9c 37 65
        E 26 85 46 67
        E 0 8f 36 66
        E 1 8b 36 65
        E 0 96 48 64
        E 1 9f 36 66
        E 0 9b 38 64
        E 31 8a 47 64
        E 0 8e 36 67
        E 1 8f 36 66
        E 1 84 27 66
        E 0 95 48 65
        E 1 9e 36 67
        E 1 9f 38 65
        E 0 92 28 64
        E 29 88 47 65
        E 1 8d 37 64
        E 1 8e 36 67
        E 1 9a 49 64
        E 0 9d 37 64
        E 1 9e 38 66
        E 26 8d 37 64
        E 1 82 28 64
        E 0 87 48 63
        E 1 8c 37 65
        E 0 98 48 64
        E 1 9d 38 67
        E 0 90 29 63
        E 1 9c 37 65
        E 29 86 48 64
        E 0 8b 38 64
        E 1 8c 37 65
        E 0 94 29 64
        E 1 97 49 66
        E 0 9b 38 64
        E 1 9c 39 64
        E 26 85 48 65
        E 1 8f 38 65
        E 0 80 29 63
        E 1 8b 38 64
        E 0 95 48 65
        E 1 96 49 67
        E 1 9f 38 65
        E 0 93 29 65
        E 1 9b 39 65
        E 28 85 48 65
        E 0 8a 49 64
        E 1 8e 38 66
        E 0 8f 38 65
        E 1 95 4a 64
        E 1 9e 38 66
        E 0 9f 3a 64
        E 1 92 2a 64
        E 28 88 48 64
        E 1 8d 38 67
        E 0 8e 38 66
        E 1 84 29 64
        E 0 9a 4a 65
        E 1 9d 38 67
        E 1 9e 3a 65
        E 1 91 2a 65
        E 28 8d 38 67
        E 0 83 29 65
        E 1 87 49 66
        E 0 8c 39 64
        E 1 98 4b 64
        E 0 9d 3a 66
        E 1 90 2a 66
        E 1 9c 39 64
        E 28 86 49 67
        E 0 82 2a 64
        E 1 8b 39 65
        E 0 8c 39 64
        E 1 94 2a 67
        E 0 97 4b 65
        E 1 9b 3b 64
        E 0 9c 3a 67
        E 28 85 4a 64
        E 1 8f 3a 64
        E 1 81 2a 65
        E 0 8b 3b 64
        E 1 96 4b 66
        E 1 9f 3a 64
        E 0 93 2b 64
        E 1 9b 3b 64
        E 27 8a 4a 65
        E 1 8e 3a 65
        E 1 8f 3a 64
        E 1 80 2a 66
        E 1 95 4b 67
        E 0 9e 3a 65
        E 1 9f 3b 65
        E 0 92 2b 65
        E 25 88 4b 64
        E 0 8d 3a 66
        E 1 8e 3a 65
        E 0 84 2a 67
        E 1 9a 4c 64
        E 1 9d 3a 66
        E 0 9e 3c 63
        E 1 91 2c 64
        E 31 8d 3a 66
        E 1 83 2b 64
        E 0 87 4b 65
        E 1 8c 3a 67
        E 1 98 4c 65
        E 0 9d 3c 64
        E 1 90 2c 65
        E 0 9c 3a 67
        E 28 86 4b 66
        E 0 82 2b 65
        E 1 8b 3b 64
        E 1 8c 3a 67
        E 0 94 2c 66
        E 0 97 4d 63
        E 1 9b 3b 64
        E 0 9c 3c 65
        E 28 85 4b 67
        E 0 8a 4c 64
        E 1 8f 3b 65
        E 0 81 2c 64
        E 1 8b 3b 64
        E 0 96 4d 64
        E 1 9f 3b 65
        E 0 93 2c 67
        E 1 9b 3d 64
        E 30 88 4c 65
        E 1 8e 3c 63
        E 0 8f 3b 65
        E 1 80 2c 65
        E 0 95 4d 65
        E 1 9e 3c 63
        E 1 9f 3d 65
        E 0 92 2d 64
        E 28 8d 3c 64
        E 1 8e 3c 63
        E 0 84 2c 66
        E 1 87 4d 63
        E 0 9a 4e 64
        E 1 9d 3c 64
        E 0 9e 3d 66
        E 1 91 2d 65
        E 27 86 4d 64
        E 0 8d 3c 64
        E 1 83 2c 67
        E 0 8c 3c 65
        E 1 98 4e 65
        E 0 9d 3d 67
        E 1 90 2e 64
        E 0 9c 3c 65
        E 29 85 4d 65
        E 1 82 2d 64
        E 1 8b 3d 64
        E 0 8c 3c 65
        E 1 94 2e 65
        E 0 97 4e 66
        E 1 9b 3d 64
        E 1 9c 3e 64
        E 27 8a 4e 64
        E 0 8f 3d 65
        E 1 81 2d 65
        E 0 8b 3d 64
        E 0 96 4e 67
        E 1 9f 3d 65
        E 0 93 2e 66
        E 1 9b 3e 65
        E 30 88 4e 65
        E 1 8e 3d 66
        E 1 8f 3d 65
        E 0 80 2e 64
        E 1 95 4f 64
        E 1 9e 3d 66
        E 1 9f 3f 64
        E 0 92 2e 67
        E 27 8d 3d 67
        E 1 8e 3d 66
        E 1 87 4e 66
        E 0 9a 4f 65
        E 1 9d 3d 67
        E 0 9e 3f 65
        E 1 91 2f 64
        E 28 86 4e 67
        E 0 8d 3d 67
        E 1 84 2e 65
        E 0 8c 3e 64
        E 1 98 50 64
        E 0 9d 3f 66
        E 1 90 2f 65
        E 1 9c 3e 64
        E 26 85 4f 64
        E 0 83 2e 66
        E 0 8b 3e 65
        E 1 8c 3e 64
        E 1 94 30 63
        E 0 97 50 65
        E 1 9b 3e 65
        E 0 9c 3f 67
        E 29 8a 4f 65
        E 1 8f 3f 64
        E 0 82 2e 67
        E 1 8b 3e 65
        E 1 96 50 66
        E 0 9f 3f 64
        E 1 93 30 64
        E 1 9b 40 64
        E 27 88 50 64
        E 1 8e 3f 65
        E 1 8f 3f 64
        E 0 81 2f 64
        E 0 95 50 67
        E 1 9e 3f 65
        E 1 9f 40 65
        E 1 92 30 65
        E 26 8d 3f 66
        E 0 8e 3f 65
        E 1 80 2f 65
        E 0 87 50 65
        E 1 9a 51 64
        E 1 9d 3f 66
        E 0 9e 41 63
        E 1 91 31 64
        E 30 85 50 67
        E 0 86 50 66
        E 1 8d 3f 66
        E 0 84 30 63
        E 1 8c 3f 67
        E 0 98 51 65
        E 1 9d 41 64
        E 0 90 31 65
        E 1 9c 3f 67
        E 28 8a 51 64
        E 1 83 30 64
        E 1 8b 40 64
        E 0 8c 3f 67
        E 1 94 31 66
        E 1 97 52 64
        E 0 9b 40 64
        E 1 9c 41 65
        E 26 88 51 65
        E 1 8f 40 65
        E 0 82 30 65
        E 1 8b 40 64
        E 1 96 52 65
        E 0 9f 40 65
        E 1 93 31 67
        E 0 9b 42 64
        E 28 8e 41 63
        E 0 8f 40 65
        E 1 81 31 64
        E 0 87 52 64
        E 1 95 52 66
        E 0 9e 41 63
        E 1 9f 42 65
        E 1 92 32 64
        E 29 86 52 65
        E 0 8d 41 64
        E 1 8e 41 63
        E 2 80 31 65
        E 1 9a 52 67
        E 1 9d 41 64
        E 0 9e 42 66
        E 1 91 32 65
        E 27 85 52 66
        E 0 8d 41 64
        E 1 84 31 66
        E 0 8c 41 65
        E 1 98 53 64
        E 1 9d 42 67
        E 1 90 33 64
        E 0 9c 41 65
        E 28 8a 52 67
        E 0 83 31 67
        E 0 8b 42 64
        E 1 8c 41 65
        E 0 94 33 65
        E 1 97 53 65
        E 0 9b 42 64
        E 1 9c 43 64
        E 27 8f 42 65
        E 0 82 32 64
        E 1 8b 42 64
        E 0 9f 42 65
        E 1 93 33 66
        E 0 9b 43 65
        E 28 88 53 64
        E 1 8e 42 66
        E 0 8f 42 65
        E 1 81 32 65
        E 1 87 53 65
        E 0 95 24 64
        E 1 9a 54 64
        E 0 9e 42 66
        E 1 9f 44 64
        E 1 92 33 67
        E 27 8d 42 67
        E 1 8e 42 66
        E 1 80 33 64
        E 0 98 54 65
        E 1 9d 42 67
        E 1 9e 44 65
        E 1 91 34 64
        E 28 85 24 64
        E 1 8a 54 64
        E 1 8d 42 67
        E 1 84 33 65
        E 0 8c 43 64
        E 1 9d 44 66
        E 0 90 34 65
        E 1 97 25 64
        E 0 9c 43 64
        E 27 88 54 65
        E 0 83 33 66
        E 1 8b 43 65
        E 1 8c 43 64
        E 0 94 35 63
        E 1 9b 43 65
        E 0 9c 44 67
        E 29 8f 44 64
        E 1 82 33 67
        E 0 87 25 64
        E 1 8b 43 65
        E 1 95 25 66
        E 1 9f 44 64
        E 1 93 35 64
        E 0 9b 45 64
        E 28 8e 44 65
        E 1 8f 44 64
        E 1 81 34 64
        E 0 9e 44 65
        E 1 9f 45 65
        E 1 92 35 65
        E 27 85 25 66
        E 0 8d 44 66
        E 1 8e 44 65
        E 0 80 34 65
        E 1 98 26 64
        E 0 9d 44 66
        E 1 9e 46 64
        E 1 91 36 64
        E 28 8d 44 66
        E 0 84 35 63
        E 1 8c 44 67
        E 1 9d 46 65
        E 1 90 36 65
        E 0 94 35 63
        E 1 9c 44 67
        E 28 88 26 64
        E 1 83 35 64
        E 0 84 35 63
        E 1 8b 45 64
        E 0 8c 44 67
        E 1 96 27 64
        E 1 93 35 64
        E 0 94 36 66
        E 0 9b 45 64
        E 1 9c 46 66
        E 27 8f 45 65
        E 0 82 35 65
        E 1 83 35 64
        E 0 8b 45 64
        E 1 92 35 65
        E 1 93 36 67
        E 1 9b 46 67
        E 29 86 27 64
        E 0 8e 46 64
        E 1 81 36 64
        E 1 82 35 65
        E 1 9a 27 66
        E 0 9f 47 64
        E 1 91 36 64
        E 0 92 37 64
        E 28 8d 46 65
        E 1 80 36 65
        E 0 81 36 64
        E 1 9e 47 65
        E 1 90 36 65
        E 0 91 37 65
        E 28 8a 27 66
        E 1 80 36 65
        E 1 84 36 66
        E 0 8c 46 66
        E 1 9d 48 63
        E 1 90 38 64
        E 0 94 36 66
        E 1 97 28 64
        E 27 83 36 67
        E 0 84 36 66
        E 1 8b 46 67
        E 0 93 36 67
        E 1 94 38 65
        E 0 9c 48 64
        E 31 8f 47 64
        E 0 82 37 64
        E 1 83 36 67
        E 0 87 28 64
        E 1 95 29 63
        E 0 92 37 64
        E 1 93 38 66
        E 0 9b 48 65
        E 28 8e 47 65
        E 1 81 37 65
        E 0 82 37 64
        E 1 9a 29 64
        E 0 9f 49 64
        E 1 91 37 65
        E 1 92 38 67
        E 30 85 29 63
        E 0 8d 48 63
        E 1 80 38 64
        E 0 81 37 65
        E 1 98 29 65
        E 1 9e 48 64
        E 0 90 38 64
        E 1 91 39 64
        E 28 80 38 64
        E 0 84 38 65
        E 1 8c 48 64
        E 1 9d 49 66
        E 1 90 39 65
        E 0 94 38 65
        E 1 97 2a 64
        E 26 8a 29 64
        E 1 83 38 66
        E 0 84 38 65
        E 1 8b 48 65
        E 0 96 2a 65
        E 1 93 38 66
        E 0 94 3a 64
        E 1 9b 48 65
        E 0 9c 49 67
        E 27 88 29 65
        E 1 8f 49 64
        E 0 82 38 67
        E 1 83 38 66
        E 0 8b 48 65
        E 1 95 2a 66
        E 0 92 38 67
        E 1 93 3a 65
        E 1 9b 4a 64
        E 29 8e 48 64
        E 1 81 39 64
        E 0 82 38 67
        E 1 87 2a 64
        E 0 9a 2a 67
        E 1 9f 4a 65
        E 1 91 39 64
        E 1 92 3a 66
        E 27 86 2a 65
        E 0 8d 49 66
        E 1 80 39 65
        E 0 81 39 64
        E 1 98 2b 64
        E 0 9e 4b 64
        E 1 90 3b 64
        E 0 91 3a 67
        E 28 85 2a 66
        E 0 80 3b 64
        E 1 84 3a 64
        E 1 8c 49 67
        E 0 9d 4b 65
        E 1 90 3b 64
        E 0 94 3a 64
        E 1 97 2b 65
        E 31 8a 2a 67
        E 0 83 3a 65
        E 1 84 3a 64
        E 1 8b 4a 64
        E 0 96 2c 64
        E 1 93 3a 65
        E 0 94 3b 65
        E 1 9c 4b 66
        E 24 88 2b 64
        E 0 8f 4a 65
        E 0 82 3a 66
        E 0 83 3a 65
        E 1 95 2c 65
        E 0 92 3a 66
        E 1 93 3c 63
        E 1 9b 4b 67
        E 29 8e 4b 64
        E 1 81 3a 67
        E 0 82 3a 66
        E 1 87 2b 65
        E 1 9a 2c 66
        E 0 9f 4c 64
        E 1 91 3a 67
        E 0 92 3c 64
        E 30 86 2c 64
        E 0 8d 4b 65
        E 1 80 3b 64
        E 0 81 3a 67
        E 1 98 2c 67
        E 1 9e 4c 65
        E 0 90 3b 64
        E 0 91 3c 65
        E 27 85 2c 65
        E 1 80 3b 64
        E 1 84 3b 65
        E 0 8c 4b 66
        E 1 9d 4d 63
        E 0 90 3d 64
        E 1 94 3b 65
        E 1 97 2d 64
        E 28 8a 2c 66
        E 0 8f 4c 64
        E 0 83 3c 63
        E 1 84 3b 65
        E 0 8b 4b 67
        E 1 96 2d 65
        E 0 93 3c 63
        E 1 94 3d 65
        E 0 9c 4d 64
        E 30 88 2c 67
        E 0 8e 4c 65
        E 1 82 3c 64
        E 0 83 3c 63
        E 1 95 2e 64
        E 1 92 3c 64
        E 0 93 3d 66
        E 0 9b 4d 65
        E 29 8d 4d 63
        E 0 81 3c 65
        E 1 82 3c 64
        E 1 87 2d 64
        E 0 9a 2e 65
        E 1 9f 4e 64
        E 0 91 3c 65
        E 1 92 3d 67
        E 27 86 2d 65
        E 1 80 3d 64
        E 1 81 3c 65
        E 0 8c 4d 64
        E 1 98 2e 66
        E 1 9e 4e 65
        E 0 90 3d 64
        E 1 91 3e 64
        E 28 85 2e 64
        E 0 80 3d 64
        E 1 84 3d 65
        E 0 8b 4d 65
        E 1 9d 4e 66
        E 1 90 3e 65
        E 1 94 3d 65
        E 0 97 2e 67
        E 27 8f 4e 64
        E 0 83 3d 66
        E 1 84 3d 65
        E 0 96 2f 64
        E 1 93 3d 66
        E 1 94 3f 64
        E 0 9c 4e 67
        E 30 8a 2e 65
        E 1 8e 4e 65
        E 0 82 3d 67
        E 1 83 3d 66
        E 1 95 2f 65
        E 1 92 3d 67
        E 0 93 3f 65
        E 1 9b 4f 64
        E 27 88 2e 66
        E 1 8d 4e 66
        E 1 81 3e 64
        E 0 82 3d 67
        E 1 9a 30 63
        E 0 9f 4f 65
        E 0 91 3e 64
        E 1 92 3f 66
        E 29 80 3e 65
        E 0 81 3e 64
        E 1 87 2e 67
        E 0 8c 4e 67
        E 1 98 30 64
        E 0 9e 50 64
        E 1 90 3e 65
        E 0 91 3f 67
        E 30 86 2f 64
        E 0 80 3e 65
        E 1 84 3f 64
        E 0 8b 4f 64
        E 0 9d 50 65
        E 1 90 40 64
        E 0 94 3f 64
        E 1 97 30 65
        E 27 85 2f 65
        E 0 8f 4f 65
        E 1 83 3f 65
        E 1 84 3f 64
        E 0 96 31 64
        E 0 93 3f 65
        E 1 94 40 65
        E 1 9c 50 66
        E 27 8a 30 63
        E 0 8e 50 64
        E 1 82 3f 66
        E 1 83 3f 65
        E 0 95 31 65
        E 1 92 3f 66
        E 1 93 41 63
        E 0 9b 50 67
        E 29 88 30 64
        E 1 8d 50 65
        E 0 81 3f 67
        E 0 82 3f 66
        E 1 9a 31 66
        E 0 9f 51 64
        E 1 91 3f 67
        E 0 92 41 64
        E 29 80 40 64
        E 1 81 3f 67
        E 0 87 30 65
        E 1 8b 50 67
        E 1 8c 50 66
        E 1 98 31 67
        E 0 9e 51 65
        E 1 90 40 64
        E 0 91 41 65
        E 25 86 31 64
        E 1 8f 51 64
        E 1 80 40 64
        E 0 84 40 65
        E 1 9d 52 64
        E 1 90 42 64
        E 1 94 40 65
        E 0 97 32 64
        E 28 85 31 65
        E 1 8e 51 65
        E 1 83 41 63
        E 0 84 40 65
        E 1 96 32 65
        E 0 93 41 63
        E 1 94 42 65
        E 0 9c 52 65
        E 29 8a 31 66
        E 0 8d 52 64
        E 1 82 41 64
        E 0 83 41 63
        E 1 95 33 64
        E 0 92 41 64
        E 1 93 42 66
        E 0 9b 52 66
        E 28 88 31 67
        E 0 81 41 65
        E 1 82 41 64
        E 1 8c 52 65
        E 0 9a 33 65
        E 1 9f 52 67
        E 1 91 41 65
        E 0 92 42 67
        E 28 80 42 64
        E 1 81 41 65
        E 0 87 32 64
        E 1 8b 52 66
        E 0 98 33 66
        E 1 9e 53 64
        E 1 90 42 64
        E 0 91 43 64
        E 28 86 32 65
        E 1 8f 52 67
        E 1 80 42 64
        E 0 84 42 65
        E 1 9d 53 65
        E 1 90 43 65
        E 0 94 42 65
        E 1 97 33 67
        E 28 85 33 64
        E 0 83 42 66
        E 1 84 42 65
        E 0 96 34 64
        E 1 93 42 66
        E 0 94 44 64
        E 30 8a 33 65
        E 1 8d 53 65
        E 0 8e 53 64
        E 1 82 42 67
        E 0 83 42 66
        E 1 95 34 65
        E 1 9f 54 64
        E 1 92 42 67
        E 0 93 44 65
        E 1 9b 24 64
        E 26 88 33 66
        E 1 81 43 64
        E 0 82 42 67
        E 1 9a 35 63
        E 0 9e 54 65
        E 1 91 43 64
        E 0 92 44 66
        E 27 8f 54 64
        E 0 80 43 65
        E 0 81 43 64
        E 1 87 33 67
        E 0 8b 24 64
        E 1 98 35 64
        E 0 9d 25 64
        E 0 90 43 65
        E 1 91 44 67
        E 31 86 34 64
        E 0 8e 54 65
        E 1 80 43 65
        E 0 84 44 64
        E 0 90 45 64
        E 1 94 44 64
        E 0 97 35 65
        E 30 85 34 65
        E 1 8d 25 64
        E 1 83 44 65
        E 0 84 44 64
        E 1 96 36 64
        E 1 93 44 65
        E 0 94 45 65
        E 1 9b 25 66
        E 25 8a 35 63
        E 1 82 44 66
        E 1 83 44 65
        E 1 95 36 65
        E 0 9a 35 63
        E 1 92 44 66
        E 0 93 46 64
        E 31 88 35 64
        E 0 8a 35 63
        E 1 81 44 67
        E 0 82 44 66
        E 1 8b 25 66
        E 0 98 35 64
        E 1 9a 36 66
        E 0 9e 26 64
        E 1 91 44 67
        E 1 92 46 65
        E 27 88 35 64
        E 0 80 45 64
        E 1 81 44 67
        E 1 87 35 65
        E 0 98 36 67
        E 1 90 45 64
        E 0 91 46 66
        E 1 97 35 65
        E 26 86 36 64
        E 1 8e 26 64
        E 0 80 45 64
        E 1 84 45 65
        E 0 87 35 65
        E 1 96 36 64
        E 1 90 46 67
        E 0 97 37 64
        E 1 9c 27 64
        E 27 85 36 65
        E 1 86 36 64
        E 1 83 46 64
        E 0 95 36 65
        E 1 96 37 65
        E 1 94 47 64
        E 29 85 36 65
        E 0 8a 36 66
        E 1 82 46 65
        E 1 8c 27 64
        E 0 95 38 64
        E 1 9a 36 66
        E 0 9f 27 66
        E 1 93 47 65
        E 26 88 36 67
        E 0 8a 36 66
        E 1 81 46 66
        E 1 98 36 67
        E 0 9a 38 65
        E 1 92 48 63
        E 30 88 36 67
        E 1 8f 27 66
        E 1 80 46 67
        E 0 87 37 64
        E 1 98 38 66
        E 0 9d 28 64
        E 1 91 48 64
        E 0 97 37 64
        E 30 86 37 65
        E 0 84 47 64
        E 1 87 37 64
        E 1 96 37 65
        E 0 90 48 65
        E 1 97 38 67
        E 27 85 38 64
        E 0 86 37 65
        E 0 8d 28 64
        E 1 83 47 65
        E 0 95 38 64
        E 1 96 39 64
        E 1 94 49 64
        E 1 9b 29 63
        E 27 85 38 64
        E 1 8a 38 65
        E 0 82 48 63
        E 1 95 39 65
        E 0 9a 38 65
        E 0 9f 29 64
        E 1 93 48 64
        E 31 88 38 66
        E 1 8a 38 65
        E 0 81 48 64
        E 1 8b 29 63
        E 1 98 38 66
        E 0 9a 3a 64
        E 1 9e 29 65
        E 1 92 49 66
        E 27 88 38 66
        E 1 80 48 65
        E 1 87 38 67
        E 0 98 3a 65
        E 1 9d 2a 64
        E 0 90 48 65
        E 0 91 49 67
        E 1 97 38 67
        E 29 86 39 64
        E 0 8f 29 64
        E 1 80 48 65
        E 1 84 49 64
        E 0 87 38 67
        E 1 96 39 64
        E 0 90 4a 64
        E 0 97 3a 66
        E 0 9c 2a 65
        E 28 85 39 65
        E 1 86 39 64
        E 0 8e 29 65
        E 1 83 48 64
        E 1 95 3b 64
        E 0 96 3a 67
        E 1 94 4a 65
        E 0 9b 2a 66
        E 25 85 3b 64
        E 0 8a 3a 64
        E 1 8d 2a 64
        E 1 82 49 66
        E 0 95 3b 64
        E 1 9a 3a 64
        E 0 9f 2a 67
        E 1 93 4b 64
        E 31 88 3a 65
        E 1 8a 3a 64
        E 1 81 49 67
        E 0 8c 2a 65
        E 1 98 3a 65
        E 0 9a 3b 65
        E 1 9e 2b 64
        E 0 92 4b 65
        E 29 88 3a 65
        E 0 80 4a 64
        E 1 87 3a 66
        E 1 8b 2a 66
        E 0 98 3c 63
        E 1 9d 2b 65
        E 0 91 4b 66
        E 1 97 3a 66
        E 25 86 3a 67
        E 0 8f 2a 67
        E 1 84 4a 65
        E 1 87 3a 66
        E 0 96 3a 67
        E 1 90 4b 67
        E 1 97 3c 64
        E 0 9c 2c 64
        E 28 85 3b 64
        E 1 86 3a 67
        E 0 8e 2b 64
        E 1 83 4b 64
        E 0 95 3b 64
        E 1 96 3c 65
        E 0 94 4c 64
        E 1 9b 2c 65
        E 29 85 3b 64
        E 1 8a 3b 65
        E 0 8d 2b 65
        E 4 82 4b 65
        E 0 95 3d 64
        E 1 9a 3b 65
        E 0 9f 2c 66
        E 1 93 4c 65
        E 27 88 3c 63
        E 1 8a 3b 65
        E 0 81 4b 66
        E 1 8c 2c 64
        E 0 98 3c 63
        E 1 9a 3d 65
        E 1 9e 2c 67
        E 0 92 4d 63
        E 26 88 3c 63
        E 0 80 4b 67
        E 1 84 4c 64
        E 0 87 3c 64
        E 1 8b 2c 65
        E 1 98 3d 66
        E 0 9d 2d 64
        E 0 91 4d 64
        E 1 97 3c 64
        E 30 86 3c 65
        E 1 8f 2c 66
        E 1 83 4c 65
        E 0 87 3c 64
        E 1 96 3c 65
        E 1 90 4d 65
        E 0 97 3d 67
        E 1 9c 2d 65
        E 26 85 3d 64
        E 0 86 3c 65
        E 1 8e 2c 67
        E 0 82 4d 63
        E 1 95 3d 64
        E 0 96 3e 64
        E 1 94 4e 64
        E 0 9b 2e 64
        E 30 85 3d 64
        E 0 8a 3d 65
        E 1 8d 2d 64
        E 1 81 4d 64
        E 0 95 3e 65
        E 1 9a 3d 65
        E 1 9f 2e 65
        E 0 93 4e 65
        E 27 88 3d 66
        E 1 8a 3d 65
        E 0 80 4d 65
        E 1 8c 2d 65
        E 0 98 3d 66
        E 1 9a 3f 64
        E 1 9e 2e 66
        E 0 92 4e 66
        E 28 88 3d 66
        E 0 84 4e 64
        E 1 87 3d 67
        E 0 8b 2e 64
        E 1 98 3f 65
        E 0 9d 2e 67
        E 0 91 4e 67
        E 0 97 3d 67
        E 28 86 3e 64
        E 0 83 4e 65
        E 1 87 3d 67
        E 1 96 3e 64
        E 1 90 4f 64
        E 0 97 3f 66
        E 1 9c 2f 64
        E 31 85 3e 65
        E 1 86 3e 64
        E 0 8f 2e 65
        E 1 82 4e 66
        E 0 95 3e 65
        E 1 96 3f 67
        E 1 94 4f 65
        E 1 9b 2f 65
        E 24 85 3e 65
        E 0 8a 3f 64
        E 1 8e 2e 66
        E 1 81 4e 67
        E 0 95 40 64
        E 1 9a 3f 64
        E 1 9f 30 63
        E 0 93 50 64
        E 29 88 3f 65
        E 0 8a 3f 64
        E 1 8d 2e 67
        E 1 80 4f 64
        E 0 98 3f 65
        E 1 9a 40 65
        E 1 9e 30 64
        E 0 92 50 65
        E 30 88 3f 65
        E 0 84 4f 65
        E 1 87 3f 66
        E 1 8c 2f 64
        E 0 98 41 63
        E 1 9d 30 65
        E 0 91 50 66
        E 1 97 3f 66
        E 27 86 3f 67
        E 0 83 50 64
        E 1 87 3f 66
        E 1 8b 2f 65
        E 1 96 3f 67
        E 0 90 50 67
        E 1 97 41 64
        E 1 9c 31 64
        E 28 85 40 64
        E 0 86 3f 67
        E 0 8f 30 63
        E 1 82 50 65
        E 1 95 40 64
        E 0 96 41 65
        E 1 94 51 64
        E 0 9b 31 65
        E 29 85 40 64
        E 1 8a 40 65
        E 0 8e 30 64
        E 1 80 50 67
        E 0 81 50 66
        E 1 95 42 64
        E 0 9a 40 65
        E 0 9f 31 66
        E 1 93 51 65
        E 26 88 41 63
        E 0 8a 40 65
        E 1 8d 30 65
        E 0 84 51 64
        E 1 98 41 63
        E 0 9a 42 65
        E 1 9e 31 67
        E 0 92 52 64
        E 28 88 41 63
        E 1 83 51 65
        E 0 87 41 64
        E 0 8c 31 64
        E 1 98 42 66
        E 0 9d 32 64
        E 1 91 52 65
        E 0 97 41 64
        E 30 86 41 65
        E 0 82 52 64
        E 1 87 41 64
        E 0 8b 31 65
        E 1 96 41 65
        E 1 90 52 66
        E 0 97 42 67
        E 1 9c 32 65
        E 28 85 42 64
        E 0 86 41 65
        E 1 8f 31 66
        E 1 81 52 65
        E 1 95 42 64
        E 1 96 43 64
        E 0 94 52 67
        E 1 9b 33 64
        E 28 85 42 64
        E 0 8a 42 65
        E 1 8e 31 67
        E 0 80 52 66
        E 1 95 43 65
        E 1 9a 42 65
        E 0 9f 33 65
        E 1 93 53 64
        E 28 88 42 66
        E 0 8a 42 65
        E 0 8d 32 64
        E 1 84 52 67
        E 0 98 42 66
        E 1 9a 44 64
        E 0 9e 33 66
        E 1 92 53 65
        E 28 88 42 66
        E 0 87 42 67
        E 1 8c 32 65
        E 1 98 44 65
        E 0 9d 33 67
        E 1 97 42 67
        E 30 85 43 65
        E 0 86 43 64
        E 1 88 44 65
        E 1 8a 44 64
        E 0 8d 33 67
        E 1 8e 33 66
        E 1 8f 33 65
        E 0 82 53 65
        E 1 83 53 64
        E 1 87 42 67
        E 1 8b 33 64
        E 0 95 43 65
        E 0 96 43 64
        E 1 98 44 65
        E 1 9a 44 64
        E 0 9d 33 67
        E 1 9e 33 66
        E 0 9f 33 65
        E 1 90 24 64
        E 1 94 54 64
        E 1 97 44 66
        E 0 9c 34 64
        E 21 86 43 64
        E 0 8f 33 65
        E 1 96 44 67
        E 0 93 54 65
        E 1 9b 34 65
        E 29 85 43 65
        E 1 8e 33 66
        E 0 80 24 64
        E 1 84 54 64
        E 0 95 45 64
        E 1 9f 35 63
        E 0 92 25 64
        E 27 8a 44 64
        E 1 8d 33 67
        E 0 83 54 65
        E 1 9a 45 65
        E 0 9e 35 64
        E 30 88 44 65
        E 1 82 25 64
        E 0 87 44 66
        E 1 8c 34 64
        E 0 98 46 64
        E 1 9d 35 65
        E 0 90 25 66
        E 1 97 44 66
        E 26 86 44 67
        E 2 87 44 66
        E 1 8b 34 65
        E 1 96 44 67
        E 1 97 46 65
        E 0 9c 36 64
        E 31 85 45 64
        E 0 86 44 67
        E 0 8f 35 63
        E 2 80 25 66
        E 0 95 45 64
        E 1 96 46 66
        E 1 9f 35 63
        E 0 93 26 64
        E 1 9b 36 65
        E 27 85 45 64
        E 1 8a 45 65
        E 1 8e 35 64
        E 0 8f 35 63
        E 1 95 46 67
        E 1 9e 35 64
        E 1 9f 36 66
        E 26 88 46 64
        E 0 8d 35 65
        E 1 8e 35 64
        E 1 83 26 64
        E 1 9a 47 64
        E 0 9d 35 65
        E 1 9e 36 67
        E 0 91 27 64
        E 27 8d 35 65
        E 1 87 46 65
        E 0 8c 36 64
        E 1 98 47 65
        E 1 9d 37 64
        E 0 9c 36 64
        E 32 86 46 66
        E 1 81 27 64
        E 0 8b 36 65
        E 1 8c 36 64
        E 0 94 27 66
        E 1 97 48 63
        E 0 9b 36 65
        E 0 9c 37 65
        E 27 85 46 67
        E 0 8f 36 66
        E 1 8b 36 65
        E 0 96 48 64
        E 1 9f 36 66
        E 0 9b 38 64
        E 29 8a 47 64
        E 0 8e 36 67
        E 1 8f 36 66
        E 1 84 27 66
        E 1 95 48 65
        E 0 9e 36 67
        E 1 9f 38 65
        E 1 92 28 64
        E 28 88 47 65
        E 1 8d 37 64
        E 0 8e 36 67
        E 1 9a 49 64
        E 1 9d 37 64
        E 0 9e 38 66
        E 29 8d 37 64
        E 1 82 28 64
        E 0 87 48 63
        E 1 8c 37 65
        E 0 98 48 64
        E 1 9d 38 67
        E 0 90 29 63
        E 1 9c 37 65
        E 29 86 48 64
        E 1 8b 38 64
        E 0 8c 37 65
        E 1 94 29 64
        E 0 97 49 66
        E 1 9b 38 64
        E 0 9c 39 64
        E 29 85 48 65
        E 1 8f 38 65
        E 1 80 29 63
        E 1 8b 38 64
        E 0 95 48 65
        E 0 96 49 67
        E 0 9f 38 65
        E 1 93 29 65
        E 0 9b 39 65
        E 26 85 48 65
        E 1 8a 49 64
        E 1 8e 38 66
        E 0 8f 38 65
        E 1 95 4a 64
        E 0 9e 38 66
        E 1 9f 3a 64
        E 0 92 2a 64
        E 30 88 48 64
        E 0 8d 38 67
        E 0 8e 38 66
        E 1 84 29 64
        E 0 9a 4a 65
        E 1 9d 38 67
        E 0 9e 3a 65
        E 1 91 2a 65
        E 28 8d 38 67
        E 1 83 29 65
        E 1 87 49 66
        E 0 8c 39 64
        E 1 98 4b 64
        E 0 9d 3a 66
        E 1 90 2a 66
        E 0 9c 39 64
        E 27 86 49 67
        E 0 82 2a 64
        E 1 8b 39 65
        E 1 8c 39 64
        E 0 94 2a 67
        E 1 97 4b 65
        E 0 9b 3b 64
        E 0 9c 3a 67
        E 30 85 4a 64
        E 0 8f 3a 64
        E 0 81 2a 65
        E 1 8b 3b 64
        E 1 96 4b 66
        E 0 9f 3a 64
        E 1 93 2b 64
        E 0 9b 3b 64
        E 29 8a 4a 65
        E 1 8e 3a 65
        E 1 8f 3a 64
        E 0 80 2a 66
        E 1 95 4b 67
        E 0 9e 3a 65
        E 1 9f 3b 65
        E 0 92 2b 65
        E 27 88 4b 64
        E 0 8d 3a 66
        E 1 8e 3a 65
        E 0 84 2a 67
        E 1 9a 4c 64
        E 1 9d 3a 66
        E 1 9e 3c 63
        E 0 91 2c 64
        E 29 8d 3a 66
        E 0 83 2b 64
        E 1 87 4b 65
        E 1 8c 3a 67
        E 0 98 4c 65
        E 1 9d 3c 64
        E 0 90 2c 65
        E 1 9c 3a 67
        E 29 86 4b 66
        E 1 82 2b 65
        E 1 8b 3b 64
        E 0 8c 3a 67
        E 1 94 2c 66
        E 1 97 4d 63
        E 1 9b 3b 64
        E 0 9c 3c 65
        E 26 85 4b 67
        E 0 8a 4c 64
        E 1 8f 3b 65
        E 0 81 2c 64
        E 1 8b 3b 64
        E 0 96 4d 64
        E 1 9f 3b 65
        E 1 93 2c 67
        E 0 9b 3d 64
        E 28 88 4c 65
        E 0 8e 3c 63
        E 1 8f 3b 65
        E 0 80 2c 65
        E 1 95 4d 65
        E 1 9e 3c 63
        E 0 9f 3d 65
        E 1 92 2d 64
        E 31 8d 3c 64
        E 0 8e 3c 63
        E 1 84 2c 66
        E 0 87 4d 63
        E 1 9a 4e 64
        E 0 9d 3c 64
        E 1 9e 3d 66
        E 1 91 2d 65
        E 22 86 4d 64
        E 1 8d 3c 64
        E 1 83 2c 67
        E 0 8c 3c 65
        E 1 98 4e 65
        E 0 9d 3d 67
        E 1 90 2e 64
        E 1 9c 3c 65
        E 28 85 4d 65
        E 1 82 2d 64
        E 3 8b 3d 64
        E 0 8c 3c 65
        E 1 94 2e 65
        E 0 97 4e 66
        E 1 9b 3d 64
        E 0 9c 3e 64
        E 29 8a 4e 64
        E 0 8f 3d 65
        E 1 81 2d 65
        E 1 8b 3d 64
        E 0 96 4e 67
        E 1 9f 3d 65
        E 0 93 2e 66
        E 1 9b 3e 65
        E 27 88 4e 65
        E 0 8e 3d 66
        E 1 8f 3d 65
        E 1 80 2e 64
        E 0 95 4f 64
        E 1 9e 3d 66
        E 0 9f 3f 64
        E 1 92 2e 67
        E 28 8d 3d 67
        E 1 8e 3d 66
        E 0 87 4e 66
        E 1 9a 4f 65
        E 0 9d 3d 67
        E 1 9e 3f 65
        E 0 91 2f 64
        E 30 86 4e 67
        E 0 8d 3d 67
        E 1 84 2e 65
        E 0 8c 3e 64
        E 1 98 50 64
        E 1 9d 3f 66
        E 0 90 2f 65
        E 1 9c 3e 64
        E 27 85 4f 64
        E 0 83 2e 66
        E 1 8b 3e 65
        E 1 8c 3e 64
        E 0 94 30 63
        E 0 97 50 65
        E 1 9b 3e 65
        E 0 9c 3f 67
        E 29 8a 4f 65
        E 0 8f 3f 64
        E 1 82 2e 67
        E 1 8b 3e 65
        E 0 96 50 66
        E 0 9f 3f 64
        E 1 93 30 64
        E 0 9b 40 64
        E 28 88 50 64
        E 1 8e 3f 65
        E 0 8f 3f 64
        E 1 81 2f 64
        E 0 95 50 67
        E 1 9e 3f 65
        E 1 9f 40 65
        E 0 92 30 65
        E 27 8d 3f 66
        E 0 8e 3f 65
        E 1 80 2f 65
        E 0 87 50 65
        E 1 9a 51 64
        E 1 9d 3f 66
        E 0 9e 41 63
        E 1 91 31 64
        E 30 85 50 67
        E 0 86 50 66
        E 1 8d 3f 66
        E 1 84 30 63
        E 0 8c 3f 67
        E 1 98 51 65
        E 0 9d 41 64
        E 0 90 31 65
        E 1 9c 3f 67
        E 30 8a 51 64
        E 1 83 30 64
        E 0 8b 40 64
        E 1 8c 3f 67
        E 1 94 31 66
        E 0 97 52 64
        E 1 9b 40 64
        E 1 9c 41 65
        E 26 88 51 65
        E 0 8f 40 65
        E 0 82 30 65
        E 1 8b 40 64
        E 0 96 52 65
        E 1 9f 40 65
        E 0 93 31 67
        E 1 9b 42 64
        E 27 8e 41 63
        E 0 8f 40 65
        E 1 81 31 64
        E 1 87 52 64
        E 0 95 52 66
        E 1 9e 41 63
        E 0 9f 42 65
        E 1 92 32 64
        E 30 86 52 65
        E 1 8d 41 64
        E 1 8e 41 63
        E 0 80 31 65
        E 1 9a 52 67
        E 0 9d 41 64
        E 1 9e 42 66
        E 0 91 32 65
        E 26 85 52 66
        E 0 8d 41 64
        E 0 84 31 66
        E 1 8c 41 65
        E 1 98 53 64
        E 0 9d 42 67
        E 1 90 33 64
        E 1 9c 41 65
        E 28 8a 52 67
        E 0 83 31 67
        E 1 8b 42 64
        E 1 8c 41 65
        E 0 94 33 65
        E 1 97 53 65
        E 0 9b 42 64
        E 1 9c 43 64
        E 29 8f 42 65
        E 0 82 32 64
        E 1 8b 42 64
        E 0 9f 42 65
        E 1 93 33 66
        E 0 9b 43 65
        E 29 88 53 64
        E 1 8e 42 66
        E 1 8f 42 65
        E 0 81 32 65
        E 1 87 53 65
        E 0 95 24 64
        E 1 9a 54 64
        E 0 9e 42 66
        E 1 9f 44 64
        E 0 92 33 67
        E 28 8d 42 67
        E 1 8e 42 66
        E 1 80 33 64
        E 0 98 54 65
        E 1 9d 42 67
        E 0 9e 44 65
        E 1 91 34 64
        E 27 85 24 64
        E 0 8a 54 64
        E 1 8d 42 67
        E 0 84 33 65
        E 1 8c 43 64
        E 1 9d 44 66
        E 0 90 34 65
        E 1 97 25 64
        E 0 9c 43 64
        E 26 88 54 65
        E 1 83 33 66
        E 0 8b 43 65
        E 1 8c 43 64
        E 0 94 35 63
        E 1 9b 43 65
        E 1 9c 44 67
        E 31 8f 44 64
        E 1 82 33 67
        E 0 87 25 64
        E 1 8b 43 65
        E 1 95 25 66
        E 0 9f 44 64
        E 1 93 35 64
        E 1 9b 45 64
        E 27 8e 44 65
        E 1 8f 44 64
        E 0 81 34 64
        E 1 9e 44 65
        E 1 9f 45 65
        E 0 92 35 65
        E 30 85 25 66
        E 0 8d 44 66
        E 0 8e 44 65
        E 1 80 34 65
        E 0 98 26 64
        E 1 9d 44 66
        E 0 9e 46 64
        E 1 91 36 64
        E 27 8d 44 66
        E 1 84 35 63
        E 0 8c 44 67
        E 1 9d 46 65
        E 0 90 36 65
        E 1 94 35 63
        E 1 9c 44 67
        E 29 88 26 64
        E 1 83 35 64
        E 1 84 35 63
        E 0 8b 45 64
        E 1 8c 44 67
        E 1 96 27 64
        E 1 93 35 64
        E 1 94 36 66
        E 0 9b 45 64
        E 1 9c 46 66
        E 25 8f 45 65
        E 0 82 35 65
        E 1 83 35 64
        E 1 8b 45 64
        E 1 92 35 65
        E 0 93 36 67
        E 1 9b 46 67
        E 28 86 27 64
        E 0 8e 46 64
        E 1 81 36 64
        E 0 82 35 65
        E 1 9a 27 66
        E 0 9f 47 64
        E 1 91 36 64
        E 0 92 37 64
        E 31 8d 46 65
        E 0 80 36 65
        E 1 81 36 64
        E 1 9e 47 65
        E 1 90 36 65
        E 0 91 37 65
        E 27 8a 27 66
        E 0 80 36 65
        E 2 84 36 66
        E 0 8c 46 66
        E 1 9d 48 63
        E 0 90 38 64
        E 1 94 36 66
        E 1 97 28 64
        E 27 83 36 67
        E 0 84 36 66
        E 1 8b 46 67
        E 0 93 36 67
        E 1 94 38 65
        E 0 9c 48 64
        E 29 8f 47 64
        E 1 82 37 64
        E 0 83 36 67
        E 1 87 28 64
        E 0 95 29 63
        E 1 92 37 64
        E 0 93 38 66
        E 1 9b 48 65
        E 26 8e 47 65
        E 1 81 37 65
        E 1 82 37 64
        E 0 9a 29 64
        E 1 9f 49 64
        E 0 91 37 65
        E 1 92 38 67
        E 30 85 29 63
        E 1 8d 48 63
        E 1 80 38 64
        E 0 81 37 65
        E 1 98 29 65
        E 1 9e 48 64
        E 0 90 38 64
        E 1 91 39 64
        E 28 80 38 64
        E 1 84 38 65
        E 0 8c 48 64
        E 1 9d 49 66
        E 0 90 39 65
        E 1 94 38 65
        E 1 97 2a 64
        E 26 8a 29 64
        E 0 83 38 66
        E 1 84 38 65
        E 1 8b 48 65
        E 0 96 2a 65
        E 2 93 38 66
        E 0 94 3a 64
        E 1 9b 48 65
        E 0 9c 49 67
        E 28 88 29 65
        E 1 8f 49 64
        E 0 82 38 67
        E 1 83 38 66
        E 1 8b 48 65
        E 1 95 2a 66
        E 0 92 38 67
        E 1 93 3a 65
        E 1 9b 4a 64
        E 25 8e 48 64
        E 1 81 39 64
        E 1 82 38 67
        E 0 87 2a 64
        E 1 9a 2a 67
        E 0 9f 4a 65
        E 1 91 39 64
        E 1 92 3a 66
        E 28 86 2a 65
        E 0 8d 49 66
        E 1 80 39 65
        E 0 81 39 64
        E 1 98 2b 64
        E 1 9e 4b 64
        E 0 90 3b 64
        E 1 91 3a 67
        E 28 85 2a 66
        E 1 80 3b 64
        E 0 84 3a 64
        E 1 8c 49 67
        E 0 9d 4b 65
        E 1 90 3b 64
        E 0 94 3a 64
        E 0 97 2b 65
        E 29 8a 2a 67
        E 1 83 3a 65
        E 0 84 3a 64
        E 1 8b 4a 64
        E 0 96 2c 64
        E 1 93 3a 65
        E 0 94 3b 65
        E 1 9c 4b 66
        E 29 88 2b 64
        E 1 8f 4a 65
        E 0 82 3a 66
        E 1 83 3a 65
        E 0 95 2c 65
        E 1 92 3a 66
        E 1 93 3c 63
        E 1 9b 4b 67
        E 28 8e 4b 64
        E 1 81 3a 67
        E 1 82 3a 66
        E 0 87 2b 65
        E 2 9a 2c 66
        E 0 9f 4c 64
        E 1 91 3a 67
        E 0 92 3c 64
        E 28 86 2c 64
        E 0 8d 4b 65
        E 1 80 3b 64
        E 0 81 3a 67
        E 1 98 2c 67
        E 0 9e 4c 65
        E 1 90 3b 64
        E 1 91 3c 65
        E 23 85 2c 65
        E 1 80 3b 64
        E 1 84 3b 65
        E 0 8c 4b 66
        E 0 9d 4d 63
        E 1 90 3d 64
        E 0 94 3b 65
        E 1 97 2d 64
        E 31 8a 2c 66
        E 1 8f 4c 64
        E 1 83 3c 63
        E 1 84 3b 65
        E 0 8b 4b 67
        E 1 96 2d 65
        E 0 93 3c 63
        E 1 94 3d 65
        E 1 9c 4d 64
        E 27 88 2c 67
        E 0 8e 4c 65
        E 0 82 3c 64
        E 1 83 3c 63
        E 1 95 2e 64
        E 0 92 3c 64
        E 1 93 3d 66
        E 0 9b 4d 65
        E 27 8d 4d 63
        E 1 81 3c 65
        E 1 82 3c 64
        E 0 87 2d 64
        E 1 9a 2e 65
        E 0 9f 4e 64
        E 1 91 3c 65
        E 0 92 3d 67
        E 29 86 2d 65
        E 1 80 3d 64
        E 0 81 3c 65
        E 1 8c 4d 64
        E 0 98 2e 66
        E 1 9e 4e 65
        E 1 90 3d 64
        E 1 91 3e 64
        E 28 85 2e 64
        E 1 80 3d 64
        E 1 84 3d 65
        E 0 8b 4d 65
        E 0 9d 4e 66
        E 1 90 3e 65
        E 1 94 3d 65
        E 1 97 2e 67
        E 27 8f 4e 64
        E 1 83 3d 66
        E 1 84 3d 65
        E 0 96 2f 64
        E 1 93 3d 66
        E 0 94 3f 64
        E 1 9c 4e 67
        E 27 8a 2e 65
        E 0 8e 4e 65
        E 1 82 3d 67
        E 0 83 3d 66
        E 1 95 2f 65
        E 0 92 3d 67
        E 1 93 3f 65
        E 0 9b 4f 64
        E 29 88 2e 66
        E 1 8d 4e 66
        E 0 81 3e 64
        E 1 82 3d 67
        E 1 9a 30 63
        E 0 9f 4f 65
        E 0 91 3e 64
        E 1 92 3f 66
        E 27 80 3e 65
        E 0 81 3e 64
        E 1 87 2e 67
        E 1 8c 4e 67
        E 0 98 30 64
        E 1 9e 50 64
        E 0 90 3e 65
        E 1 91 3f 67
        E 29 86 2f 64
        E 1 80 3e 65
        E 1 84 3f 64
        E 0 8b 4f 64
        E 1 9d 50 65
        E 0 90 40 64
        E 1 94 3f 64
        E 0 97 30 65
        E 30 85 2f 65
        E 1 8f 4f 65
        E 0 83 3f 65
        E 1 84 3f 64
        E 0 96 31 64
        E 1 93 3f 65
        E 0 94 40 65
        E 1 9c 50 66
        E 25 8a 30 63
        E 1 8e 50 64
        E 1 82 3f 66
        E 0 83 3f 65
        E 1 95 31 65
        E 0 92 3f 66
        E 1 93 41 63
        E 1 9b 50 67
        E 26 88 30 64
        E 0 8d 50 65
        E 1 81 3f 67
        E 1 82 3f 66
        E 0 9a 31 66
        E 1 9f 51 64
        E 0 91 3f 67
        E 1 92 41 64
        E 30 80 40 64
        E 1 81 3f 67
        E 0 87 30 65
        E 1 8b 50 67
        E 0 8c 50 66
        E 1 98 31 67
        E 1 9e 51 65
        E 0 90 40 64
        E 1 91 41 65
        E 25 86 31 64
        E 1 8f 51 64
        E 0 80 40 64
        E 1 84 40 65
        E 0 9d 52 64
        E 1 90 42 64
        E 0 94 40 65
        E 1 97 32 64
        E 31 85 31 65
        E 1 8e 51 65
        E 1 83 41 63
        E 1 84 40 65
        E 0 96 32 65
        E 0 93 41 63
        E 1 94 42 65
        E 1 9c 52 65
        E 29 8a 31 66
        E 0 8d 52 64
        E 1 82 41 64
        E 0 83 41 63
        E 1 95 33 64
        E 1 92 41 64
        E 0 93 42 66
        E 1 9b 52 66
        E 24 88 31 67
        E 1 81 41 65
        E 0 82 41 64
        E 1 8c 52 65
        E 0 9a 33 65
        E 1 9f 52 67
        E 0 91 41 65
        E 1 92 42 67
        E 27 80 42 64
        E 1 81 41 65
        E 0 87 32 64
        E 1 8b 52 66
        E 0 98 33 66
        E 1 9e 53 64
        E 1 90 42 64
        E 0 91 43 64
        E 29 86 32 65
        E 0 8f 52 67
        E 1 80 42 64
        E 1 84 42 65
        E 0 9d 53 65
        E 1 90 43 65
        E 3 94 42 65
        E 0 97 33 67
        E 26 85 33 64
        E 0 83 42 66
        E 1 84 42 65
        E 0 96 34 64
        E 1 93 42 66
        E 0 94 44 64
        E 32 8a 33 65
        E 1 8d 53 65
        E 0 8e 53 64
        E 1 82 42 67
        E 0 83 42 66
        E 1 95 34 65
        E 0 9f 54 64
        E 0 92 42 67
        E 1 93 44 65
        E 1 9b 24 64
        E 27 88 33 66
        E 0 81 43 64
        E 1 82 42 67
        E 0 9a 35 63
        E 1 9e 54 65
        E 0 91 43 64
        E 1 92 44 66
        E 27 8f 54 64
        E 0 80 43 65
        E 1 81 43 64
        E 0 87 33 67
        E 1 8b 24 64
        E 1 98 35 64
        E 0 9d 25 64
        E 1 90 43 65
        E 1 91 44 67
        E 26 86 34 64
        E 0 8e 54 65
        E 1 80 43 65
        E 0 84 44 64
        E 1 90 45 64
        E 0 94 44 64
        E 1 97 35 65
        E 30 85 34 65
        E 1 8d 25 64
        E 1 83 44 65
        E 1 84 44 64
        E 0 96 36 64
        E 0 93 44 65
        E 1 94 45 65
        E 0 9b 25 66
        E 27 8a 35 63
        E 0 82 44 66
        E 1 83 44 65
        E 0 95 36 65
        E 1 9a 35 63
        E 1 92 44 66
        E 0 93 46 64
        E 30 88 35 64
        E 1 8a 35 63
        E 0 81 44 67
        E 1 82 44 66
        E 0 8b 25 66
        E 1 98 35 64
        E 0 9a 36 66
        E 1 9e 26 64
        E 1 91 44 67
        E 0 92 46 65
        E 30 88 35 64
        E 1 80 45 64
        E 0 81 44 67
        E 1 87 35 65
        E 0 98 36 67
        E 0 90 45 64
        E 1 91 46 66
        E 0 97 35 65
        E 28 86 36 64
        E 1 8e 26 64
        E 0 80 45 64
        E 1 84 45 65
        E 1 87 35 65
        E 0 96 36 64
        E 1 90 46 67
        E 0 97 37 64
        E 1 9c 27 64
        E 27 85 36 65
        E 1 86 36 64
        E 0 83 46 64
        E 1 95 36 65
        E 0 96 37 65
        E 1 94 47 64
        E 27 85 36 65
        E 0 8a 36 66
        E 1 82 46 65
        E 1 8c 27 64
        E 1 95 38 64
        E 0 9a 36 66
        E 1 9f 27 66
        E 0 93 47 65
        E 29 88 36 67
        E 1 8a 36 66
        E 0 81 46 66
        E 1 98 36 67
        E 1 9a 38 65
        E 1 92 48 63
        E 29 88 36 67
        E 0 8f 27 66
        E 1 80 46 67
        E 0 87 37 64
        E 1 98 38 66
        E 1 9d 28 64
        E 0 91 48 64
        E 0 97 37 64
        E 28 86 37 65
        E 1 84 47 64
        E 1 87 37 64
        E 0 96 37 65
        E 1 90 48 65
        E 1 97 38 67
        E 28 85 38 64
        E 1 86 37 65
        E 1 8d 28 64
        E 0 83 47 65
        E 1 95 38 64
        E 0 96 39 64
        E 1 94 49 64
        E 1 9b 29 63
        E 25 85 38 64
        E 0 8a 38 65
        E 1 82 48 63
        E 0 95 39 65
        E 1 9a 38 65
        E 1 9f 29 64
        E 0 93 48 64
        E 30 88 38 66
        E 1 8a 38 65
        E 1 81 48 64
        E 0 8b 29 63
        E 0 98 38 66
        E 1 9a 3a 64
        E 0 9e 29 65
        E 1 92 49 66
        E 26 88 38 66
        E 1 80 48 65
        E 0 87 38 67
        E 1 98 3a 65
        E 0 9d 2a 64
        E 1 90 48 65
        E 1 91 49 67
        E 0 97 38 67
        E 30 86 39 64
        E 1 8f 29 64
        E 1 80 48 65
        E 0 84 49 64
        E 1 87 38 67
        E 1 96 39 64
        E 0 90 4a 64
        E 1 97 3a 66
        E 1 9c 2a 65
        E 29 85 39 65
        E 0 86 39 64
        E 1 8e 29 65
        E 0 83 48 64
        E 1 95 3b 64
        E 0 96 3a 67
        E 1 94 4a 65
        E 1 9b 2a 66
        E 26 85 3b 64
        E 1 8a 3a 64
        E 1 8d 2a 64
        E 0 82 49 66
        E 1 95 3b 64
        E 1 9a 3a 64
        E 0 9f 2a 67
        E 1 93 4b 64
        E 28 88 3a 65
        E 0 8a 3a 64
        E 1 81 49 67
        E 0 8c 2a 65
        E 1 98 3a 65
        E 0 9a 3b 65
        E 0 9e 2b 64
        E 1 92 4b 65
        E 27 88 3a 65
        E 0 80 4a 64
        E 1 87 3a 66
        E 1 8b 2a 66
        E 0 98 3c 63
        E 1 9d 2b 65
        E 0 91 4b 66
        E 1 97 3a 66
        E 27 86 3a 67
        E 0 8f 2a 67
        E 1 84 4a 65
        E 0 87 3a 66
        E 1 96 3a 67
        E 0 90 4b 67
        E 1 97 3c 64
        E 0 9c 2c 64
        E 30 85 3b 64
        E 1 86 3a 67
        E 1 8e 2b 64
        E 0 83 4b 64
        E 1 95 3b 64
        E 0 96 3c 65
        E 1 94 4c 64
        E 0 9b 2c 65
        E 30 85 3b 64
        E 0 8a 3b 65
        E 1 8d 2b 65
        E 0 82 4b 65
        E 1 95 3d 64
        E 0 9a 3b 65
        E 1 9f 2c 66
        E 0 93 4c 65
        E 27 88 3c 63
        E 1 8a 3b 65
        E 0 81 4b 66
        E 1 8c 2c 64
        E 0 98 3c 63
        E 1 9a 3d 65
        E 0 9e 2c 67
        E 1 92 4d 63
        E 28 88 3c 63
        E 1 80 4b 67
        E 0 84 4c 64
        E 1 87 3c 64
        E 0 8b 2c 65
        E 1 98 3d 66
        E 0 9d 2d 64
        E 1 91 4d 64
        E 1 97 3c 64
        E 28 86 3c 65
        E 0 8f 2c 66
        E 1 83 4c 65
        E 0 87 3c 64
        E 1 96 3c 65
        E 0 90 4d 65
        E 1 97 3d 67
        E 0 9c 2d 65
        E 29 85 3d 64
        E 0 86 3c 65
        E 1 8e 2c 67
        E 0 82 4d 63
        E 1 95 3d 64
        E 0 96 3e 64
        E 1 94 4e 64
        E 1 9b 2e 64
        E 28 85 3d 64
        E 1 8a 3d 65
        E 0 8d 2d 64
        E 0 81 4d 64
        E 1 95 3e 65
        E 1 9a 3d 65
        E 0 9f 2e 65
        E 1 93 4e 65
        E 27 88 3d 66
        E 1 8a 3d 65
        E 0 80 4d 65
        E 1 8c 2d 65
        E 0 98 3d 66
        E 1 9a 3f 64
        E 1 9e 2e 66
        E 0 92 4e 66
        E 28 88 3d 66
        E 0 84 4e 64
        E 1 87 3d 67
        E 0 8b 2e 64
        E 1 98 3f 65
        E 0 9d 2e 67
        E 1 91 4e 67
        E 1 97 3d 67
        E 29 86 3e 64
        E 0 83 4e 65
        E 1 87 3d 67
        E 1 96 3e 64
        E 0 90 4f 64
        E 1 97 3f 66
        E 0 9c 2f 64
        E 29 85 3e 65
        E 1 86 3e 64
        E 0 8f 2e 65
        E 1 82 4e 66
        E 1 95 3e 65
        E 1 96 3f 67
        E 0 94 4f 65
        E 1 9b 2f 65
        E 25 85 3e 65
        E 0 8a 3f 64
        E 1 8e 2e 66
        E 0 81 4e 67
        E 1 95 40 64
        E 1 9a 3f 64
        E 0 9f 30 63
        E 1 93 50 64
        E 29 88 3f 65
        E 0 8a 3f 64
        E 1 8d 2e 67
        E 0 80 4f 64
        E 1 98 3f 65
        E 0 9a 40 65
        E 1 9e 30 64
        E 0 92 50 65
        E 30 88 3f 65
        E 1 84 4f 65
        E 0 87 3f 66
        E 1 8c 2f 64
        E 1 98 41 63
        E 0 9d 30 65
        E 2 91 50 66
        E 0 97 3f 66
        E 26 86 3f 67
        E 1 83 50 64
        E 0 87 3f 66
        E 1 8b 2f 65
        E 1 96 3f 67
        E 0 90 50 67
        E 1 97 41 64
        E 1 9c 31 64
        E 29 85 40 64
        E 1 86 3f 67
        E 1 8f 30 63
        E 1 82 50 65
        E 0 95 40 64
        E 1 96 41 65
        E 0 94 51 64
        E 1 9b 31 65
        E 25 85 40 64
        E 1 8a 40 65
        E 1 8e 30 64
        E 0 80 50 67
        E 1 81 50 66
        E 1 95 42 64
        E 0 9a 40 65
        E 1 9f 31 66
        E 1 93 51 65
        E 25 88 41 63
        E 0 8a 40 65
        E 1 8d 30 65
        E 0 84 51 64
        E 1 98 41 63
        E 0 9a 42 65
        E 1 9e 31 67
        E 0 92 52 64
        E 30 88 41 63
        E 1 83 51 65
        E 0 87 41 64
        E 1 8c 31 64
        E 1 98 42 66
        E 1 9d 32 64
        E 0 91 52 65
        E 1 97 41 64
        E 27 86 41 65
        E 1 82 52 64
        E 0 87 41 64
        E 1 8b 31 65
        E 1 96 41 65
        E 0 90 52 66
        E 1 97 42 67
        E 0 9c 32 65
        E 29 85 42 64
        E 0 86 41 65
        E 0 8f 31 66
        E 1 81 52 65
        E 1 95 42 64
        E 0 96 43 64
        E 0 94 52 67
        E 1 9b 33 64
        E 28 85 42 64
        E 0 8a 42 65
        E 1 8e 31 67
        E 1 80 52 66
        E 0 95 43 65
        E 1 9a 42 65
        E 1 9f 33 65
        E 0 93 53 64
        E 31 88 42 66
        E 1 8a 42 65
        E 0 8d 32 64
        E 0 84 52 67
        E 1 98 42 66
        E 0 9a 44 64
        E 1 9e 33 66
        E 1 92 53 65
        E 23 88 42 66
        E 1 87 42 67
        E 1 8c 32 65
        E 1 98 44 65
        E 0 9d 33 67
        E 1 97 42 67
        E 29 85 43 65
        E 1 86 43 64
        E 1 88 44 65
        E 0 8a 44 64
        E 1 8d 33 67
        E 1 8e 33 66
        E 0 8f 33 65
        E 1 82 53 65
        E 0 83 53 64
        E 1 87 42 67
        E 0 8b 33 64
        E 1 95 43 65
        E 1 96 43 64
        E 0 98 44 65
        E 1 9a 44 64
        E 0 9d 33 67
        E 1 9e 33 66
        E 0 9f 33 65
        E 2 90 24 64
        E 0 94 54 64
        E 1 97 44 66
        E 0 9c 34 64
        E 21 86 43 64
        E 1 8f 33 65
        E 0 96 44 67
        E 1 93 54 65
        E 1 9b 34 65
        E 27 85 43 65
        E 1 8e 33 66
        E 0 80 24 64
        E 1 84 54 64
        E 0 95 45 64
        E 1 9f 35 63
        E 1 92 25 64
        E 29 8a 44 64
        E 1 8d 33 67
        E 0 83 54 65
        E 3 9a 45 65
        E 0 9e 35 64
        E 31 88 44 65
        E 1 82 25 64
        E 0 87 44 66
        E 1 8c 34 64
        E 0 98 46 64
        E 1 9d 35 65
        E 0 90 25 66
        E 1 97 44 66
        E 25 86 44 67
        E 0 87 44 66
        E 1 8b 34 65
        E 1 96 44 67
        E 0 97 46 65
        E 1 9c 36 64
        E 28 85 45 64
        E 1 86 44 67
        E 1 8f 35 63
        E 0 80 25 66
        E 1 95 45 64
        E 0 96 46 66
        E 1 9f 35 63
        E 0 93 26 64
        E 1 9b 36 65
        E 29 85 45 64
        E 0 8a 45 65
        E 1 8e 35 64
        E 1 8f 35 63
        E 0 95 46 67
        E 1 9e 35 64
        E 1 9f 36 66
        E 27 88 46 64
        E 1 8d 35 65
        E 0 8e 35 64
        E 1 83 26 64
        E 1 9a 47 64
        E 0 9d 35 65
        E 1 9e 36 67
        E 1 91 27 64
        E 29 8d 35 65
        E 1 87 46 65
        E 0 8c 36 64
        E 1 98 47 65
        E 0 9d 37 64
        E 1 9c 36 64
        E 29 86 46 66
        E 0 81 27 64
        E 0 8b 36 65
        E 1 8c 36 64
        E 1 94 27 66
        E 0 97 48 63
        E 1 9b 36 65
        E 0 9c 37 65
        E 28 85 46 67
        E 0 8f 36 66
        E 1 8b 36 65
        E 1 96 48 64
        E 0 9f 36 66
        E 1 9b 38 64
        E 29 8a 47 64
        E 0 8e 36 67
        E 1 8f 36 66
        E 1 84 27 66
        E 0 95 48 65
        E 1 9e 36 67
        E 1 9f 38 65
        E 0 92 28 64
        E 27 88 47 65
        E 1 8d 37 64
        E 0 8e 36 67
        E 1 9a 49 64
        E 0 9d 37 64
        E 1 9e 38 66
        E 28 8d 37 64
        E 0 82 28 64
        E 1 87 48 63
        E 0 8c 37 65
        E 1 98 48 64
        E 0 9d 38 67
        E 1 90 29 63
        E 0 9c 37 65
        E 32 86 48 64
        E 1 8b 38 64
        E 0 8c 37 65
        E 0 94 29 64
        E 1 97 49 66
        E 1 9b 38 64
        E 1 9c 39 64
        E 29 85 48 65
        E 0 8f 38 65
        E 1 80 29 63
        E 1 8b 38 64
        E 0 95 48 65
        E 1 96 49 67
        E 0 9f 38 65
        E 1 93 29 65
        E 1 9b 39 65
        E 25 85 48 65
        E 0 8a 49 64
        E 1 8e 38 66
        E 0 8f 38 65
        E 1 95 4a 64
        E 0 9e 38 66
        E 1 9f 3a 64
        E 0 92 2a 64
        E 30 88 48 64
        E 0 8d 38 67
        E 1 8e 38 66
        E 0 84 29 64
        E 1 9a 4a 65
        E 0 9d 38 67
        E 1 9e 3a 65
        E 0 91 2a 65
        E 27 8d 38 67
        E 0 83 29 65
        E 1 87 49 66
        E 1 8c 39 64
        E 0 98 4b 64
        E 0 9d 3a 66
        E 1 90 2a 66
        E 0 9c 39 64
        E 30 86 49 67
        E 0 82 2a 64
        E 0 8b 39 65
        E 1 8c 39 64
        E 1 94 2a 67
        E 0 97 4b 65
        E 1 9b 3b 64
        E 1 9c 3a 67
        E 28 85 4a 64
        E 0 8f 3a 64
        E 1 81 2a 65
        E 0 8b 3b 64
        E 1 96 4b 66
        E 1 9f 3a 64
        E 0 93 2b 64
        E 1 9b 3b 64
        E 29 8a 4a 65
        E 1 8e 3a 65
        E 0 8f 3a 64
        E 1 80 2a 66
        E 0 95 4b 67
        E 1 9e 3a 65
        E 0 9f 3b 65
        E 1 92 2b 65
        E 28 88 4b 64
        E 0 8d 3a 66
        E 1 8e 3a 65
        E 0 84 2a 67
        E 1 9a 4c 64
        E 0 9d 3a 66
        E 1 9e 3c 63
        E 0 91 2c 64
        E 27 8d 3a 66
        E 1 83 2b 64
        E 0 87 4b 65
        E 1 8c 3a 67
        E 1 98 4c 65
        E 0 9d 3c 64
        E 1 90 2c 65
        E 1 9c 3a 67
        E 28 86 4b 66
        E 0 82 2b 65
        E 1 8b 3b 64
        E 1 8c 3a 67
        E 1 94 2c 66
        E 0 97 4d 63
        E 1 9b 3b 64
        E 1 9c 3c 65
        E 27 85 4b 67
        E 1 8a 4c 64
        E 1 8f 3b 65
        E 0 81 2c 64
        E 1 8b 3b 64
        E 1 96 4d 64
        E 0 9f 3b 65
        E 1 93 2c 67
        E 0 9b 3d 64
        E 26 88 4c 65
        E 1 8e 3c 63
        E 0 8f 3b 65
        E 1 80 2c 65
        E 1 95 4d 65
        E 0 9e 3c 63
        E 1 9f 3d 65
        E 0 92 2d 64
        E 29 8d 3c 64
        E 1 8e 3c 63
        E 0 84 2c 66
        E 1 87 4d 63
        E 0 9a 4e 64
        E 1 9d 3c 64
        E 0 9e 3d 66
        E 1 91 2d 65
        E 26 86 4d 64
        E 1 8d 3c 64
        E 1 83 2c 67
        E 0 8c 3c 65
        E 1 98 4e 65
        E 0 9d 3d 67
        E 1 90 2e 64
        E 0 9c 3c 65
        E 32 85 4d 65
        E 0 82 2d 64
        E 1 8b 3d 64
        E 0 8c 3c 65
        E 1 94 2e 65
        E 1 97 4e 66
        E 0 9b 3d 64
        E 1 9c 3e 64
        E 26 8a 4e 64
        E 0 8f 3d 65
        E 1 81 2d 65
        E 1 8b 3d 64
        E 0 96 4e 67
        E 1 9f 3d 65
        E 1 93 2e 66
        E 0 9b 3e 65
        E 27 88 4e 65
        E 0 8e 3d 66
        E 1 8f 3d 65
        E 0 80 2e 64
        E 1 95 4f 64
        E 0 9e 3d 66
        E 1 9f 3f 64
        E 0 92 2e 67
        E 30 8d 3d 67
        E 1 8e 3d 66
        E 1 87 4e 66
        E 1 9a 4f 65
        E 0 9d 3d 67
        E 1 9e 3f 65
        E 0 91 2f 64
        E 30 86 4e 67
        E 0 8d 3d 67
        E 1 84 2e 65
        E 1 8c 3e 64
        E 1 98 50 64
        E 0 9d 3f 66
        E 1 90 2f 65
        E 1 9c 3e 64
        E 25 85 4f 64
        E 1 83 2e 66
        E 0 8b 3e 65
        E 1 8c 3e 64
        E 1 94 30 63
        E 1 97 50 65
        E 0 9b 3e 65
        E 1 9c 3f 67
        E 28 8a 4f 65
        E 1 8f 3f 64
        E 1 82 2e 67
        E 0 8b 3e 65
        E 1 96 50 66
        E 0 9f 3f 64
        E 1 93 30 64
        E 0 9b 40 64
        E 26 88 50 64
        E 0 8e 3f 65
        E 1 8f 3f 64
        E 0 81 2f 64
        E 1 95 50 67
        E 0 9e 3f 65
        E 1 9f 40 65
        E 0 92 30 65
        E 30 8d 3f 66
        E 0 8e 3f 65
        E 1 80 2f 65
        E 0 87 50 65
        E 1 9a 51 64
        E 0 9d 3f 66
        E 1 9e 41 63
        E 0 91 31 64
        E 29 85 50 67
        E 1 86 50 66
        E 1 8d 3f 66
        E 0 84 30 63
        E 1 8c 3f 67
        E 1 98 51 65
        E 0 9d 41 64
        E 1 90 31 65
        E 0 9c 3f 67
        E 28 8a 51 64
        E 1 83 30 64
        E 1 8b 40 64
        E 0 8c 3f 67
        E 1 94 31 66
        E 0 97 52 64
        E 1 9b 40 64
        E 1 9c 41 65
        E 26 88 51 65
        E 0 8f 40 65
        E 1 82 30 65
        E 0 8b 40 64
        E 1 96 52 65
        E 1 9f 40 65
        E 0 93 31 67
        E 1 9b 42 64
        E 28 8e 41 63
        E 0 8f 40 65
        E 1 81 31 64
        E 2 87 52 64
        E 0 95 52 66
        E 1 9e 41 63
        E 0 9f 42 65
        E 1 92 32 64
        E 28 86 52 65
        E 1 8d 41 64
        E 0 8e 41 63
        E 1 80 31 65
        E 0 9a 52 67
        E 1 9d 41 64
        E 0 9e 42 66
        E 1 91 32 65
        E 27 85 52 66
        E 0 8d 41 64
        E 1 84 31 66
        E 0 8c 41 65
        E 1 98 53 64
        E 1 9d 42 67
        E 1 90 33 64
        E 0 9c 41 65
        E 28 8a 52 67
        E 0 83 31 67
        E 1 8b 42 64
        E 0 8c 41 65
        E 1 94 33 65
        E 0 97 53 65
        E 0 9b 42 64
        E 1 9c 43 64
        E 29 8f 42 65
        E 1 82 32 64
        E 0 8b 42 64
        E 1 9f 42 65
        E 0 93 33 66
        E 1 9b 43 65
        E 29 88 53 64
        E 1 8e 42 66
        E 0 8f 42 65
        E 1 81 32 65
        E 1 87 53 65
        E 0 95 24 64
        E 1 9a 54 64
        E 0 9e 42 66
        E 1 9f 44 64
        E 1 92 33 67
        E 28 8d 42 67
        E 0 8e 42 66
        E 1 80 33 64
        E 0 98 54 65
        E 1 9d 42 67
        E 0 9e 44 65
        E 1 91 34 64
        E 29 85 24 64
        E 0 8a 54 64
        E 0 8d 42 67
        E 0 84 33 65
        E 0 8c 43 64
        E 0 9d 44 66
        E 0 90 34 65
        E 0 97 25 64
        E 1 9c 43 64
        E 26 88 54 65
        E 1 83 33 66
        E 0 8b 43 65
        E 1 8c 43 64
        E 1 94 35 63
        E 0 9b 43 65
        E 1 9c 44 67
        E 30 8f 44 64
        E 1 82 33 67
        E 0 87 25 64
        E 1 8b 43 65
        E 1 95 25 66
        E 1 9f 44 64
        E 0 93 35 64
        E 1 9b 45 64
        E 29 8e 44 65
        E 0 8f 44 64
        E 0 81 34 64
        E 1 9e 44 65
        E 1 9f 45 65
        E 0 92 35 65
        E 28 85 25 66
        E 1 8d 44 66
        E 0 8e 44 65
        E 1 80 34 65
        E 0 98 26 64
        E 1 9d 44 66
        E 0 9e 46 64
        E 1 91 36 64
        E 29 8d 44 66
        E 1 84 35 63
        E 0 8c 44 67
        E 1 9d 46 65
        E 1 90 36 65
        E 0 94 35 63
        E 1 9c 44 67
        E 29 88 26 64
        E 1 83 35 64
        E 1 84 35 63
        E 1 8b 45 64
        E 0 8c 44 67
        E 1 96 27 64
        E 1 93 35 64
        E 0 94 36 66
        E 1 9b 45 64
        E 0 9c 46 66
        E 25 8f 45 65
        E 0 82 35 65
        E 1 83 35 64
        E 0 8b 45 64
        E 1 92 35 65
        E 1 93 36 67
        E 0 9b 46 67
        E 29 86 27 64
        E 1 8e 46 64
        E 0 81 36 64
        E 1 82 35 65
        E 0 9a 27 66
        E 1 9f 47 64
        E 1 91 36 64
        E 0 92 37 64
        E 28 8d 46 65
        E 0 80 36 65
        E 1 81 36 64
        E 1 9e 47 65
        E 0 90 36 65
        E 1 91 37 65
        E 27 8a 27 66
        E 1 80 36 65
        E 1 84 36 66
        E 1 8c 46 66
        E 0 9d 48 63
        E 1 90 38 64
        E 0 94 36 66
        E 1 97 28 64
        E 28 83 36 67
        E 1 84 36 66
        E 0 8b 46 67
        E 1 93 36 67
        E 0 94 38 65
        E 1 9c 48 64
        E 31 8f 47 64
        E 1 82 37 64
        E 0 83 36 67
        E 1 87 28 64
        E 0 95 29 63
        E 1 92 37 64
        E 0 93 38 66
        E 1 9b 48 65
        E 24 8e 47 65
        E 1 81 37 65
        E 0 82 37 64
        E 1 9a 29 64
        E 0 9f 49 64
        E 1 91 37 65
        E 0 92 38 67
        E 31 85 29 63
        E 0 8d 48 63
        E 1 80 38 64
        E 0 81 37 65
        E 1 98 29 65
        E 0 9e 48 64
        E 1 90 38 64
        E 0 91 39 64
        E 29 80 38 64
        E 0 84 38 65
        E 1 8c 48 64
        E 1 9d 49 66
        E 0 90 39 65
        E 0 94 38 65
        E 1 97 2a 64
        E 28 8a 29 64
        E 1 83 38 66
        E 1 84 38 65
        E 0 8b 48 65
        E 1 96 2a 65
        E 1 93 38 66
        E 0 94 3a 64
        E 1 9b 48 65
        E 0 9c 49 67
        E 29 88 29 65
        E 1 8f 49 64
        E 0 82 38 67
        E 1 83 38 66
        E 0 8b 48 65
        E 1 95 2a 66
        E 1 92 38 67
        E 0 93 3a 65
        E 1 9b 4a 64
        E 27 8e 48 64
        E 0 81 39 64
        E 1 82 38 67
        E 1 87 2a 64
        E 0 9a 2a 67
        E 1 9f 4a 65
        E 0 91 39 64
        E 1 92 3a 66
        E 27 86 2a 65
        E 0 8d 49 66
        E 1 80 39 65
        E 1 81 39 64
        E 1 98 2b 64
        E 1 9e 4b 64
        E 1 90 3b 64
        E 1 91 3a 67
        E 26 85 2a 66
        E 1 80 3b 64
        E 0 84 3a 64
        E 1 8c 49 67
        E 0 9d 4b 65
        E 0 90 3b 64
        E 1 94 3a 64
        E 0 97 2b 65
        E 30 8a 2a 67
        E 1 83 3a 65
        E 0 84 3a 64
        E 1 8b 4a 64
        E 0 96 2c 64
        E 1 93 3a 65
        E 1 94 3b 65
        E 1 9c 4b 66
        E 26 88 2b 64
        E 0 8f 4a 65
        E 1 82 3a 66
        E 0 83 3a 65
        E 1 95 2c 65
        E 0 92 3a 66
        E 1 93 3c 63
        E 0 9b 4b 67
        E 29 8e 4b 64
        E 1 81 3a 67
        E 0 82 3a 66
        E 1 87 2b 65
        E 0 9a 2c 66
        E 1 9f 4c 64
        E 0 91 3a 67
        E 1 92 3c 64
        E 29 86 2c 64
        E 0 8d 4b 65
        E 1 80 3b 64
        E 0 81 3a 67
        E 1 98 2c 67
        E 0 9e 4c 65
        E 1 90 3b 64
        E 0 91 3c 65
        E 29 85 2c 65
        E 0 80 3b 64
        E 1 84 3b 65
        E 0 8c 4b 66
        E 1 9d 4d 63
        E 0 90 3d 64
        E 1 94 3b 65
        E 0 97 2d 64
        E 29 8a 2c 66
        E 0 8f 4c 64
        E 1 83 3c 63
        E 1 84 3b 65
        E 0 8b 4b 67
        E 1 96 2d 65
        E 0 93 3c 63
        E 1 94 3d 65
        E 0 9c 4d 64
        E 28 88 2c 67
        E 1 8e 4c 65
        E 0 82 3c 64
        E 1 83 3c 63
        E 1 95 2e 64
        E 0 92 3c 64
        E 1 93 3d 66
        E 0 9b 4d 65
        E 25 8d 4d 63
        E 1 81 3c 65
        E 0 82 3c 64
        E 1 87 2d 64
        E 0 9a 2e 65
        E 1 9f 4e 64
        E 0 91 3c 65
        E 1 92 3d 67
        E 30 86 2d 65
        E 0 80 3d 64
        E 1 81 3c 65
        E 1 8c 4d 64
        E 0 98 2e 66
        E 1 9e 4e 65
        E 0 90 3d 64
        E 1 91 3e 64
        E 29 85 2e 64
        E 0 80 3d 64
        E 1 84 3d 65
        E 1 8b 4d 65
        E 1 9d 4e 66
        E 0 90 3e 65
        E 1 94 3d 65
        E 0 97 2e 67
        E 27 8f 4e 64
        E 1 83 3d 66
        E 1 84 3d 65
        E 0 96 2f 64
        E 1 93 3d 66
        E 0 94 3f 64
        E 1 9c 4e 67
        E 29 8a 2e 65
        E 1 8e 4e 65
        E 1 82 3d 67
        E 0 83 3d 66
        E 1 95 2f 65
        E 0 92 3d 67
        E 1 93 3f 65
        E 0 9b 4f 64
        E 29 88 2e 66
        E 0 8d 4e 66
        E 1 81 3e 64
        E 1 82 3d 67
        E 1 9a 30 63
        E 0 9f 4f 65
        E 1 91 3e 64
        E 1 92 3f 66
        E 24 80 3e 65
        E 0 81 3e 64
        E 1 87 2e 67
        E 1 8c 4e 67
        E 0 98 30 64
        E 0 9e 50 64
        E 1 90 3e 65
        E 1 91 3f 67
        E 28 86 2f 64
        E 1 80 3e 65
        E 1 84 3f 64
        E 1 8b 4f 64
        E 0 9d 50 65
        E 1 90 40 64
        E 1 94 3f 64
        E 0 97 30 65
        E 28 85 2f 65
        E 1 8f 4f 65
        E 0 83 3f 65
        E 1 84 3f 64
        E 0 96 31 64
        E 1 93 3f 65
        E 1 94 40 65
        E 0 9c 50 66
        E 30 8a 30 63
        E 0 8e 50 64
        E 1 82 3f 66
        E 0 83 3f 65
        E 1 95 31 65
        E 1 92 3f 66
        E 0 93 41 63
        E 1 9b 50 67
        E 29 88 30 64
        E 0 8d 50 65
        E 1 81 3f 67
        E 1 82 3f 66
        E 0 9a 31 66
        E 0 9f 51 64
        E 1 91 3f 67
        E 0 92 41 64
        E 29 80 40 64
        E 0 81 3f 67
        E 0 87 30 65
        E 0 8b 50 67
        E 0 8c 50 66
        E 1 98 31 67
        E 0 9e 51 65
        E 1 90 40 64
        E 0 91 41 65
        E 28 86 31 64
        E 0 8f 51 64
        E 1 80 40 64
        E 1 84 40 65
        E 0 9d 52 64
        E 1 90 42 64
        E 0 94 40 65
        E 1 97 32 64
        E 28 85 31 65
        E 1 8e 51 65
        E 1 83 41 63
        E 0 84 40 65
        E 1 96 32 65
        E 0 93 41 63
        E 1 94 42 65
        E 0 9c 52 65
        E 30 8a 31 66
        E 0 8d 52 64
        E 1 82 41 64
        E 0 83 41 63
        E 1 95 33 64
        E 1 92 41 64
        E 0 93 42 66
        E 1 9b 52 66
        E 27 88 31 67
        E 0 81 41 65
        E 1 82 41 64
        E 0 8c 52 65
        E 1 9a 33 65
        E 0 9f 52 67
        E 1 91 41 65
        E 0 92 42 67
        E 27 80 42 64
        E 1 81 41 65
        E 1 87 32 64
        E 0 8b 52 66
        E 1 98 33 66
        E 1 9e 53 64
        E 0 90 42 64
        E 1 91 43 64
        E 28 86 32 65
        E 0 8f 52 67
        E 1 80 42 64
        E 0 84 42 65
        E 1 9d 53 65
        E 1 90 43 65
        E 0 94 42 65
        E 1 97 33 67
        E 26 85 33 64
        E 1 83 42 66
        E 0 84 42 65
        E 1 96 34 64
        E 0 93 42 66
        E 1 94 44 64
        E 30 8a 33 65
        E 0 8d 53 65
        E 1 8e 53 64
        E 1 82 42 67
        E 0 83 42 66
        E 1 95 34 65
        E 0 9f 54 64
        E 1 92 42 67
        E 1 93 44 65
        E 1 9b 24 64
        E 27 88 33 66
        E 0 81 43 64
        E 1 82 42 67
        E 1 9a 35 63
        E 0 9e 54 65
        E 1 91 43 64
        E 0 92 44 66
        E 28 8f 54 64
        E 0 80 43 65
        E 1 81 43 64
        E 0 87 33 67
        E 1 8b 24 64
        E 1 98 35 64
        E 0 9d 25 64
        E 0 90 43 65
        E 1 91 44 67
        E 28 86 34 64
        E 0 8e 54 65
        E 1 80 43 65
        E 1 84 44 64
        E 1 90 45 64
        E 1 94 44 64
        E 0 97 35 65
        E 29 85 34 65
        E 1 8d 25 64
        E 1 83 44 65
        E 0 84 44 64
        E 1 96 36 64
        E 0 93 44 65
        E 1 94 45 65
        E 1 9b 25 66
        E 25 8a 35 63
        E 1 82 44 66
        E 0 83 44 65
        E 1 95 36 65
        E 1 9a 35 63
        E 0 92 44 66
        E 1 93 46 64
        E 29 88 35 64
        E 1 8a 35 63
        E 0 81 44 67
        E 1 82 44 66
        E 0 8b 25 66
        E 0 98 35 64
        E 1 9a 36 66
        E 1 9e 26 64
        E 0 91 44 67
        E 1 92 46 65
        E 27 88 35 64
        E 1 80 45 64
        E 0 81 44 67
        E 1 87 35 65
        E 0 98 36 67
        E 0 90 45 64
        E 1 91 46 66
        E 0 97 35 65
        E 30 86 36 64
        E 0 8e 26 64
        E 1 80 45 64
        E 0 84 45 65
        E 1 87 35 65
        E 0 96 36 64
        E 1 90 46 67
        E 0 97 37 64
        E 1 9c 27 64
        E 29 85 36 65
        E 0 86 36 64
        E 1 83 46 64
        E 0 95 36 65
        E 1 96 37 65
        E 0 94 47 64
        E 30 85 36 65
        E 1 8a 36 66
        E 0 82 46 65
        E 1 8c 27 64
        E 0 95 38 64
        E 1 9a 36 66
        E 0 9f 27 66
        E 1 93 47 65
        E 27 88 36 67
        E 0 8a 36 66
        E 1 81 46 66
        E 0 98 36 67
        E 1 9a 38 65
        E 0 92 48 63
        E 29 88 36 67
        E 1 8f 27 66
        E 1 80 46 67
        E 0 87 37 64
        E 1 98 38 66
        E 0 9d 28 64
        E 1 91 48 64
        E 0 97 37 64
        E 29 86 37 65
        E 1 84 47 64
        E 1 87 37 64
        E 0 96 37 65
        E 1 90 48 65
        E 0 97 38 67
        E 28 85 38 64
        E 0 86 37 65
        E 1 8d 28 64
        E 1 83 47 65
        E 0 95 38 64
        E 1 96 39 64
        E 0 94 49 64
        E 1 9b 29 63
        E 28 85 38 64
        E 1 8a 38 65
        E 1 82 48 63
        E 0 95 39 65
        E 1 9a 38 65
        E 1 9f 29 64
        E 0 93 48 64
        E 32 88 38 66
        E 0 8a 38 65
        E 1 81 48 64
        E 0 8b 29 63
        E 1 98 38 66
        E 0 9a 3a 64
        E 1 9e 29 65
        E 0 92 49 66
        E 27 88 38 66
        E 0 80 48 65
        E 1 87 38 67
        E 0 98 3a 65
        E 1 9d 2a 64
        E 0 90 48 65
        E 1 91 49 67
        E 0 97 38 67
        E 28 86 39 64
        E 0 8f 29 64
        E 2 80 48 65
        E 0 84 49 64
        E 1 87 38 67
        E 0 96 39 64
        E 1 90 4a 64
        E 0 97 3a 66
        E 1 9c 2a 65
        E 28 85 39 65
        E 1 86 39 64
        E 0 8e 29 65
        E 1 83 48 64
        E 0 95 3b 64
        E 0 96 3a 67
        E 1 94 4a 65
        E 1 9b 2a 66
        E 26 85 3b 64
        E 1 8a 3a 64
        E 0 8d 2a 64
        E 1 82 49 66
        E 0 95 3b 64
        E 1 9a 3a 64
        E 0 9f 2a 67
        E 1 93 4b 64
        E 29 88 3a 65
        E 0 8a 3a 64
        E 1 81 49 67
        E 1 8c 2a 65
        E 0 98 3a 65
        E 1 9a 3b 65
        E 0 9e 2b 64
        E 1 92 4b 65
        E 30 88 3a 65
        E 0 80 4a 64
        E 1 87 3a 66
        E 0 8b 2a 66
        E 0 98 3c 63
        E 1 9d 2b 65
        E 0 91 4b 66
        E 1 97 3a 66
        E 24 86 3a 67
        E 1 8f 2a 67
        E 0 84 4a 65
        E 1 87 3a 66
        E 1 96 3a 67
        E 0 90 4b 67
        E 1 97 3c 64
        E 1 9c 2c 64
        E 28 85 3b 64
        E 0 86 3a 67
        E 1 8e 2b 64
        E 1 83 4b 64
        E 0 95 3b 64
        E 1 96 3c 65
        E 0 94 4c 64
        E 3 9b 2c 65
        E 28 85 3b 64
        E 0 8a 3b 65
        E 1 8d 2b 65
        E 1 82 4b 65
        E 0 95 3d 64
        E 1 9a 3b 65
        E 1 9f 2c 66
        E 0 93 4c 65
        E 26 88 3c 63
        E 1 8a 3b 65
        E 0 81 4b 66
        E 1 8c 2c 64
        E 1 98 3c 63
        E 0 9a 3d 65
        E 1 9e 2c 67
        E 0 92 4d 63
        E 31 88 3c 63
        E 1 80 4b 67
        E 1 84 4c 64
        E 0 87 3c 64
        E 1 8b 2c 65
        E 0 98 3d 66
        E 1 9d 2d 64
        E 1 91 4d 64
        E 0 97 3c 64
        E 28 86 3c 65
        E 0 8f 2c 66
        E 1 83 4c 65
        E 0 87 3c 64
        E 1 96 3c 65
        E 0 90 4d 65
        E 1 97 3d 67
        E 1 9c 2d 65
        E 27 85 3d 64
        E 0 86 3c 65
        E 1 8e 2c 67
        E 0 82 4d 63
        E 1 95 3d 64
        E 0 96 3e 64
        E 1 94 4e 64
        E 0 9b 2e 64
        E 28 85 3d 64
        E 1 8a 3d 65
        E 0 8d 2d 64
        E 1 81 4d 64
        E 1 95 3e 65
        E 0 9a 3d 65
        E 1 9f 2e 65
        E 1 93 4e 65
        E 28 88 3d 66
        E 0 8a 3d 65
        E 2 80 4d 65
        E 0 8c 2d 65
        E 1 98 3d 66
        E 0 9a 3f 64
        E 1 9e 2e 66
        E 0 92 4e 66
        E 27 88 3d 66
        E 1 84 4e 64
        E 0 87 3d 67
        E 1 8b 2e 64
        E 1 98 3f 65
        E 0 9d 2e 67
        E 1 91 4e 67
        E 0 97 3d 67
        E 26 86 3e 64
        E 0 83 4e 65
        E 1 87 3d 67
        E 1 96 3e 64
        E 0 90 4f 64
        E 0 97 3f 66
        E 1 9c 2f 64
        E 32 85 3e 65
        E 1 86 3e 64
        E 0 8f 2e 65
        E 1 82 4e 66
        E 0 95 3e 65
        E 1 96 3f 67
        E 0 94 4f 65
        E 1 9b 2f 65
        E 26 85 3e 65
        E 1 8a 3f 64
        E 1 8e 2e 66
        E 0 81 4e 67
        E 1 95 40 64
        E 0 9a 3f 64
        E 1 9f 30 63
        E 0 93 50 64
        E 29 88 3f 65
        E 0 8a 3f 64
        E 1 8d 2e 67
        E 1 80 4f 64
        E 1 98 3f 65
        E 1 9a 40 65
        E 0 9e 30 64
        E 1 92 50 65
        E 27 88 3f 65
        E 1 84 4f 65
        E 0 87 3f 66
        E 1 8c 2f 64
        E 0 98 41 63
        E 1 9d 30 65
        E 1 91 50 66
        E 0 97 3f 66
        E 26 86 3f 67
        E 1 83 50 64
        E 1 87 3f 66
        E 0 8b 2f 65
        E 1 96 3f 67
        E 1 90 50 67
        E 0 97 41 64
        E 0 9c 31 64
        E 29 85 40 64
        E 0 86 3f 67
        E 1 8f 30 63
        E 0 82 50 65
        E 1 95 40 64
        E 0 96 41 65
        E 1 94 51 64
        E 0 9b 31 65
        E 32 85 40 64
        E 0 8a 40 65
        E 1 8e 30 64
        E 1 80 50 67
        E 0 81 50 66
        E 1 95 42 64
        E 0 9a 40 65
        E 1 9f 31 66
        E 0 93 51 65
        E 27 88 41 63
        E 0 8a 40 65
        E 1 8d 30 65
        E 1 84 51 64
        E 0 98 41 63
        E 1 9a 42 65
        E 0 9e 31 67
        E 1 92 52 64
        E 28 88 41 63
        E 1 83 51 65
        E 0 87 41 64
        E 1 8c 31 64
        E 1 98 42 66
        E 1 9d 32 64
        E 0 91 52 65
        E 1 97 41 64
        E 27 86 41 65
        E 0 82 52 64
        E 1 87 41 64
        E 0 8b 31 65
        E 1 96 41 65
        E 0 90 52 66
        E 0 97 42 67
        E 1 9c 32 65
        E 27 85 42 64
        E 1 86 41 65
        E 0 8f 31 66
        E 1 81 52 65
        E 0 95 42 64
        E 1 96 43 64
        E 1 94 52 67
        E 0 9b 33 64
        E 29 85 42 64
        E 1 8a 42 65
        E 0 8e 31 67
        E 0 80 52 66
        E 1 95 43 65
        E 1 9a 42 65
        E 0 9f 33 65
        E 0 93 53 64
        E 30 88 42 66
        E 0 8a 42 65
        E 1 8d 32 64
        E 0 84 52 67
        E 1 98 42 66
        E 1 9a 44 64
        E 0 9e 33 66
        E 1 92 53 65
        E 28 88 42 66
        E 0 87 42 67
        E 1 8c 32 65
        E 0 98 44 65
        E 1 9d 33 67
        E 0 97 42 67
        E 29 85 43 65
        E 1 86 43 64
        E 1 88 44 65
        E 0 8a 44 64
        E 1 8d 33 67
        E 1 8e 33 66
        E 1 8f 33 65
        E 0 82 53 65
        E 1 83 53 64
        E 1 87 42 67
        E 1 8b 33 64
        E 0 95 43 65
        E 0 96 43 64
        E 1 98 44 65
        E 0 9a 44 64
        E 1 9d 33 67
        E 0 9e 33 66
        E 1 9f 33 65
        E 0 90 24 64
        E 1 94 54 64
        E 0 97 44 66
        E 1 9c 34 64
        E 20 86 43 64
        E 0 8f 33 65
        E 1 96 44 67
        E 1 93 54 65
        E 0 9b 34 65
        E 28 85 43 65
        E 0 8e 33 66
        E 1 80 24 64
        E 1 84 54 64
        E 0 95 45 64
        E 1 9f 35 63
        E 0 92 25 64
        E 31 8a 44 64
        E 0 8d 33 67
        E 1 83 54 65
        E 0 9a 45 65
        E 1 9e 35 64
        E 31 88 44 65
        E 0 82 25 64
        E 1 87 44 66
        E 0 8c 34 64
        E 1 98 46 64
        E 0 9d 35 65
        E 1 90 25 66
        E 0 97 44 66
        E 27 86 44 67
        E 1 87 44 66
        E 1 8b 34 65
        E 0 96 44 67
        E 1 97 46 65
        E 0 9c 36 64
        E 30 85 45 64
        E 1 86 44 67
        E 0 8f 35 63
        E 1 80 25 66
        E 0 95 45 64
        E 1 96 46 66
        E 1 9f 35 63
        E 1 93 26 64
        E 0 9b 36 65
        E 26 85 45 64
        E 0 8a 45 65
        E 1 8e 35 64
        E 1 8f 35 63
        E 1 95 46 67
        E 0 9e 35 64
        E 1 9f 36 66
        E 29 88 46 64
        E 1 8d 35 65
        E 0 8e 35 64
        E 1 83 26 64
        E 1 9a 47 64
        E 0 9d 35 65
        E 0 9e 36 67
        E 1 91 27 64
        E 26 8d 35 65
        E 1 87 46 65
        E 1 8c 36 64
        E 0 98 47 65
        E 1 9d 37 64
        E 0 9c 36 64
        E 30 86 46 66
        E 0 81 27 64
        E 1 8b 36 65
        E 1 8c 36 64
        E 0 94 27 66
        E 0 97 48 63
        E 1 9b 36 65
        E 0 9c 37 65
        E 28 85 46 67
        E 0 8f 36 66
        E 1 8b 36 65
        E 1 96 48 64
        E 0 9f 36 66
        E 1 9b 38 64
        E 30 8a 47 64
        E 1 8e 36 67
        E 0 8f 36 66
        E 1 84 27 66
        E 0 95 48 65
        E 1 9e 36 67
        E 0 9f 38 65
        E 1 92 28 64
        E 28 88 47 65
        E 1 8d 37 64
        E 0 8e 36 67
        E 1 9a 49 64
        E 0 9d 37 64
        E 1 9e 38 66
        E 28 8d 37 64
        E 0 82 28 64
        E 1 87 48 63
        E 1 8c 37 65
        E 0 98 48 64
        E 1 9d 38 67
        E 1 90 29 63
        E 1 9c 37 65
        E 28 86 48 64
        E 0 8b 38 64
        E 1 8c 37 65
        E 0 94 29 64
        E 0 97 49 66
        E 1 9b 38 64
        E 1 9c 39 64
        E 30 85 48 65
        E 1 8f 38 65
        E 0 80 29 63
        E 1 8b 38 64
        E 1 95 48 65
        E 0 96 49 67
        E 0 9f 38 65
        E 1 93 29 65
        E 0 9b 39 65
        E 26 85 48 65
        E 1 8a 49 64
        E 1 8e 38 66
        E 0 8f 38 65
        E 1 95 4a 64
        E 0 9e 38 66
        E 1 9f 3a 64
        E 0 92 2a 64
        E 30 88 48 64
        E 1 8d 38 67
        E 1 8e 38 66
        E 0 84 29 64
        E 1 9a 4a 65
        E 0 9d 38 67
        E 1 9e 3a 65
        E 1 91 2a 65
        E 29 8d 38 67
        E 0 83 29 65
        E 1 87 49 66
        E 1 8c 39 64
        E 0 98 4b 64
        E 1 9d 3a 66
        E 0 90 2a 66
        E 1 9c 39 64
        E 23 86 49 67
        E 1 82 2a 64
        E 0 8b 39 65
        E 1 8c 39 64
        E 0 94 2a 67
        E 1 97 4b 65
        E 0 9b 3b 64
        E 1 9c 3a 67
        E 31 85 4a 64
        E 0 8f 3a 64
        E 1 81 2a 65
        E 0 8b 3b 64
        E 1 96 4b 66
        E 0 9f 3a 64
        E 1 93 2b 64
        E 1 9b 3b 64
        E 28 8a 4a 65
        E 0 8e 3a 65
        E 1 8f 3a 64
        E 1 80 2a 66
        E 1 95 4b 67
        E 0 9e 3a 65
        E 1 9f 3b 65
        E 0 92 2b 65
        E 27 88 4b 64
        E 1 8d 3a 66
        E 0 8e 3a 65
        E 1 84 2a 67
        E 1 9a 4c 64
        E 0 9d 3a 66
        E 1 9e 3c 63
        E 0 91 2c 64
        E 27 8d 3a 66
        E 1 83 2b 64
        E 0 87 4b 65
        E 1 8c 3a 67
        E 1 98 4c 65
        E 0 9d 3c 64
        E 1 90 2c 65
        E 0 9c 3a 67
        E 31 86 4b 66
        E 0 82 2b 65
        E 1 8b 3b 64
        E 1 8c 3a 67
        E 0 94 2c 66
        E 1 97 4d 63
        E 0 9b 3b 64
        E 1 9c 3c 65
        E 26 85 4b 67
        E 0 8a 4c 64
        E 1 8f 3b 65
        E 0 81 2c 64
        E 1 8b 3b 64
        E 1 96 4d 64
        E 0 9f 3b 65
        E 0 93 2c 67
        E 1 9b 3d 64
        E 27 88 4c 65
        E 0 8e 3c 63
        E 1 8f 3b 65
        E 1 80 2c 65
        E 1 95 4d 65
        E 0 9e 3c 63
        E 0 9f 3d 65
        E 1 92 2d 64
        E 29 8d 3c 64
        E 1 8e 3c 63
        E 0 84 2c 66
        E 1 87 4d 63
        E 0 9a 4e 64
        E 1 9d 3c 64
        E 1 9e 3d 66
        E 1 91 2d 65
        E 26 86 4d 64
        E 1 8d 3c 64
        E 0 83 2c 67
        E 1 8c 3c 65
        E 1 98 4e 65
        E 1 9d 3d 67
        E 0 90 2e 64
        E 1 9c 3c 65
        E 29 85 4d 65
        E 0 82 2d 64
        E 1 8b 3d 64
        E 0 8c 3c 65
        E 1 94 2e 65
        E 1 97 4e 66
        E 0 9b 3d 64
        E 1 9c 3e 64
        E 28 8a 4e 64
        E 0 8f 3d 65
        E 1 81 2d 65
        E 1 8b 3d 64
        E 1 96 4e 67
        E 0 9f 3d 65
        E 1 93 2e 66
        E 1 9b 3e 65
        E 25 88 4e 65
        E 1 8e 3d 66
        E 1 8f 3d 65
        E 0 80 2e 64
        E 1 95 4f 64
        E 0 9e 3d 66
        E 1 9f 3f 64
        E 0 92 2e 67
        E 29 8d 3d 67
        E 0 8e 3d 66
        E 1 87 4e 66
        E 0 9a 4f 65
        E 1 9d 3d 67
        E 0 9e 3f 65
        E 1 91 2f 64
        E 30 86 4e 67
        E 0 8d 3d 67
        E 1 84 2e 65
        E 0 8c 3e 64
        E 1 98 50 64
        E 1 9d 3f 66
        E 0 90 2f 65
        E 1 9c 3e 64
        E 26 85 4f 64
        E 1 83 2e 66
        E 0 8b 3e 65
        E 1 8c 3e 64
        E 1 94 30 63
        E 0 97 50 65
        E 1 9b 3e 65
        E 0 9c 3f 67
        E 30 8a 4f 65
        E 1 8f 3f 64
        E 1 82 2e 67
        E 0 8b 3e 65
        E 1 96 50 66
        E 0 9f 3f 64
        E 1 93 30 64
        E 1 9b 40 64
        E 28 88 50 64
        E 0 8e 3f 65
        E 1 8f 3f 64
        E 1 81 2f 64
        E 1 95 50 67
        E 0 9e 3f 65
        E 1 9f 40 65
        E 1 92 30 65
        E 26 8d 3f 66
        E 1 8e 3f 65
        E 0 80 2f 65
        E 0 87 50 65
        E 1 9a 51 64
        E 0 9d 3f 66
        E 1 9e 41 63
        E 1 91 31 64
        E 27 85 50 67
        E 1 86 50 66
        E 1 8d 3f 66
        E 0 84 30 63
        E 1 8c 3f 67
        E 0 98 51 65
        E 1 9d 41 64
        E 0 90 31 65
        E 1 9c 3f 67
        E 28 8a 51 64
        E 0 83 30 64
        E 1 8b 40 64
        E 1 8c 3f 67
        E 0 94 31 66
        E 1 97 52 64
        E 0 9b 40 64
        E 1 9c 41 65
        E 26 88 51 65
        E 0 8f 40 65
        E 1 82 30 65
        E 0 8b 40 64
        E 1 96 52 65
        E 1 9f 40 65
        E 0 93 31 67
        E 1 9b 42 64
        E 29 8e 41 63
        E 0 8f 40 65
        E 1 81 31 64
        E 0 87 52 64
        E 1 95 52 66
        E 1 9e 41 63
        E 1 9f 42 65
        E 0 92 32 64
        E 28 86 52 65
        E 1 8d 41 64
        E 0 8e 41 63
        E 1 80 31 65
        E 0 9a 52 67
        E 1 9d 41 64
        E 0 9e 42 66
        E 1 91 32 65
        E 27 85 52 66
        E 0 8d 41 64
        E 1 84 31 66
        E 0 8c 41 65
        E 1 98 53 64
        E 0 9d 42 67
        E 0 90 33 64
        E 1 9c 41 65
        E 30 8a 52 67
        E 0 83 31 67
        E 1 8b 42 64
        E 0 8c 41 65
        E 1 94 33 65
        E 0 97 53 65
        E 1 9b 42 64
        E 0 9c 43 64
        E 28 8f 42 65
        E 0 82 32 64
        E 1 8b 42 64
        E 1 9f 42 65
        E 1 93 33 66
        E 0 9b 43 65
        E 27 88 53 64
        E 1 8e 42 66
        E 1 8f 42 65
        E 0 81 32 65
        E 1 87 53 65
        E 0 95 24 64
        E 1 9a 54 64
        E 0 9e 42 66
        E 1 9f 44 64
        E 1 92 33 67
        E 29 8d 42 67
        E 0 8e 42 66
        E 1 80 33 64
        E 0 98 54 65
        E 1 9d 42 67
        E 0 9e 44 65
        E 1 91 34 64
        E 30 85 24 64
        E 0 8a 54 64
        E 1 8d 42 67
        E 0 84 33 65
        E 1 8c 43 64
        E 0 9d 44 66
        E 1 90 34 65
        E 0 97 25 64
        E 1 9c 43 64
        E 26 88 54 65
        E 1 83 33 66
        E 0 8b 43 65
        E 1 8c 43 64
        E 0 94 35 63
        E 1 9b 43 65
        E 1 9c 44 67
        E 28 8f 44 64
        E 1 82 33 67
        E 0 87 25 64
        E 1 8b 43 65
        E 0 95 25 66
        E 0 9f 44 64
        E 1 93 35 64
        E 0 9b 45 64
        E 31 8e 44 65
        E 0 8f 44 64
        E 1 81 34 64
        E 0 9e 44 65
        E 1 9f 45 65
        E 1 92 35 65
        E 27 85 25 66
        E 1 8d 44 66
        E 0 8e 44 65
        E 1 80 34 65
        E 1 98 26 64
        E 1 9d 44 66
        E 0 9e 46 64
        E 1 91 36 64
        E 27 8d 44 66
        E 1 84 35 63
        E 1 8c 44 67
        E 1 9d 46 65
        E 0 90 36 65
        E 1 94 35 63
        E 2 9c 44 67
        E 28 88 26 64
        E 0 83 35 64
        E 0 84 35 63
        E 1 8b 45 64
        E 0 8c 44 67
        E 1 96 27 64
        E 1 93 35 64
        E 1 94 36 66
        E 0 9b 45 64
        E 1 9c 46 66
        E 26 8f 45 65
        E 1 82 35 65
        E 0 83 35 64
        E 1 8b 45 64
        E 1 92 35 65
        E 0 93 36 67
        E 1 9b 46 67
        E 28 86 27 64
        E 0 8e 46 64
        E 1 81 36 64
        E 0 82 35 65
        E 1 9a 27 66
        E 1 9f 47 64
        E 1 91 36 64
        E 0 92 37 64
        E 28 8d 46 65
        E 1 80 36 65
        E 1 81 36 64
        E 0 9e 47 65
        E 1 90 36 65
        E 1 91 37 65
        E 27 8a 27 66
        E 1 80 36 65
        E 0 84 36 66
        E 1 8c 46 66
        E 0 9d 48 63
        E 1 90 38 64
        E 1 94 36 66
        E 0 97 28 64
        E 28 83 36 67
        E 0 84 36 66
        E 1 8b 46 67
        E 1 93 36 67
        E 1 94 38 65
        E 0 9c 48 64
        E 29 8f 47 64
        E 1 82 37 64
        E 3 83 36 67
        E 1 87 28 64
        E 0 95 29 63
        E 1 92 37 64
        E 0 93 38 66
        E 1 9b 48 65
        E 26 8e 47 65
        E 2 81 37 65
        E 0 82 37 64
        E 0 9a 29 64
        E 1 9f 49 64
        E 0 91 37 65
        E 1 92 38 67
        E 29 85 29 63
        E 1 8d 48 63
        E 1 80 38 64
        E 0 81 37 65
        E 1 98 29 65
        E 0 9e 48 64
        E 1 90 38 64
        E 0 91 39 64
        E 26 80 38 64
        E 1 84 38 65
        E 0 8c 48 64
        E 1 9d 49 66
        E 0 90 39 65
        E 0 94 38 65
        E 1 97 2a 64
        E 27 8a 29 64
        E 1 83 38 66
        E 0 84 38 65
        E 1 8b 48 65
        E 1 96 2a 65
        E 0 93 38 66
        E 1 94 3a 64
        E 0 9b 48 65
        E 1 9c 49 67
        E 29 88 29 65
        E 1 8f 49 64
        E 1 82 38 67
        E 0 83 38 66
        E 1 8b 48 65
        E 0 95 2a 66
        E 1 92 38 67
        E 0 93 3a 65
        E 1 9b 4a 64
        E 27 8e 48 64
        E 0 81 39 64
        E 1 82 38 67
        E 1 87 2a 64
        E 0 9a 2a 67
        E 1 9f 4a 65
        E 1 91 39 64
        E 0 92 3a 66
        E 27 86 2a 65
        E 1 8d 49 66
        E 3 80 39 65
        E 1 81 39 64
        E 0 98 2b 64
        E 1 9e 4b 64
        E 0 90 3b 64
        E 1 91 3a 67
        E 28 85 2a 66
        E 1 80 3b 64
        E 0 84 3a 64
        E 0 8c 49 67
        E 1 9d 4b 65
        E 1 90 3b 64
        E 0 94 3a 64
        E 1 97 2b 65
        E 27 8a 2a 67
        E 1 83 3a 65
        E 0 84 3a 64
        E 1 8b 4a 64
        E 1 96 2c 64
        E 1 93 3a 65
        E 1 94 3b 65
        E 0 9c 4b 66
        E 25 88 2b 64
        E 0 8f 4a 65
        E 1 82 3a 66
        E 0 83 3a 65
        E 1 95 2c 65
        E 1 92 3a 66
        E 0 93 3c 63
        E 0 9b 4b 67
        E 30 8e 4b 64
        E 1 81 3a 67
        E 1 82 3a 66
        E 0 87 2b 65
        E 1 9a 2c 66
        E 0 9f 4c 64
        E 1 91 3a 67
        E 1 92 3c 64
        E 28 86 2c 64
        E 1 8d 4b 65
        E 0 80 3b 64
        E 1 81 3a 67
        E 1 98 2c 67
        E 0 9e 4c 65
        E 1 90 3b 64
        E 1 91 3c 65
        E 26 85 2c 65
        E 1 80 3b 64
        E 1 84 3b 65
        E 0 8c 4b 66
        E 1 9d 4d 63
        E 0 90 3d 64
        E 1 94 3b 65
        E 1 97 2d 64
        E 29 8a 2c 66
        E 0 8f 4c 64
        E 0 83 3c 63
        E 1 84 3b 65
        E 1 8b 4b 67
        E 1 96 2d 65
        E 0 93 3c 63
        E 0 94 3d 65
        E 1 9c 4d 64
        E 27 88 2c 67
        E 1 8e 4c 65
        E 1 82 3c 64
        E 0 83 3c 63
        E 1 95 2e 64
        E 0 92 3c 64
        E 1 93 3d 66
        E 1 9b 4d 65
        E 24 8d 4d 63
        E 1 81 3c 65
        E 1 82 3c 64
        E 0 87 2d 64
        E 1 9a 2e 65
        E 0 9f 4e 64
        E 1 91 3c 65
        E 1 92 3d 67
        E 29 86 2d 65
        E 1 80 3d 64
        E 0 81 3c 65
        E 1 8c 4d 64
        E 0 98 2e 66
        E 1 9e 4e 65
        E 0 90 3d 64
        E 1 91 3e 64
        E 30 85 2e 64
        E 0 80 3d 64
        E 1 84 3d 65
        E 0 8b 4d 65
        E 1 9d 4e 66
        E 1 90 3e 65
        E 0 94 3d 65
        E 1 97 2e 67
        E 26 8f 4e 64
        E 1 83 3d 66
        E 0 84 3d 65
        E 1 96 2f 64
        E 0 93 3d 66
        E 1 94 3f 64
        E 1 9c 4e 67
        E 29 8a 2e 65
        E 1 8e 4e 65
        E 0 82 3d 67
        E 1 83 3d 66
        E 1 95 2f 65
        E 0 92 3d 67
        E 1 93 3f 65
        E 1 9b 4f 64
        E 28 88 2e 66
        E 0 8d 4e 66
        E 1 81 3e 64
        E 0 82 3d 67
        E 1 9a 30 63
        E 0 9f 4f 65
        E 1 91 3e 64
        E 0 92 3f 66
        E 28 80 3e 65
        E 0 81 3e 64
        E 1 87 2e 67
        E 1 8c 4e 67
        E 0 98 30 64
        E 1 9e 50 64
        E 1 90 3e 65
        E 0 91 3f 67
        E 26 86 2f 64
        E 1 80 3e 65
        E 0 84 3f 64
        E 2 8b 4f 64
        E 0 9d 50 65
        E 1 90 40 64
        E 0 94 3f 64
        E 1 97 30 65
        E 28 85 2f 65
        E 1 8f 4f 65
        E 0 83 3f 65
        E 1 84 3f 64
        E 0 96 31 64
        E 1 93 3f 65
        E 0 94 40 65
        E 1 9c 50 66
        E 28 8a 30 63
        E 1 8e 50 64
        E 0 82 3f 66
        E 1 83 3f 65
        E 0 95 31 65
        E 1 92 3f 66
        E 0 93 41 63
        E 1 9b 50 67
        E 30 88 30 64
        E 0 8d 50 65
        E 1 81 3f 67
        E 1 82 3f 66
        E 1 9a 31 66
        E 0 9f 51 64
        E 0 91 3f 67
        E 1 92 41 64
        E 27 80 40 64
        E 1 81 3f 67
        E 0 87 30 65
        E 1 8b 50 67
        E 1 8c 50 66
        E 0 98 31 67
        E 1 9e 51 65
        E 0 90 40 64
        E 1 91 41 65
        E 26 86 31 64
        E 0 8f 51 64
        E 0 80 40 64
        E 0 84 40 65
        E 1 9d 52 64
        E 1 90 42 64
        E 1 94 40 65
        E 0 97 32 64
        E 29 85 31 65
        E 0 8e 51 65
        E 1 83 41 63
        E 0 84 40 65
        E 1 96 32 65
        E 1 93 41 63
        E 1 94 42 65
        E 0 9c 52 65
        E 29 8a 31 66
        E 0 8d 52 64
        E 1 82 41 64
        E 0 83 41 63
        E 1 95 33 64
        E 0 92 41 64
        E 0 93 42 66
        E 1 9b 52 66
        E 29 88 31 67
        E 1 81 41 65
        E 1 82 41 64
        E 0 8c 52 65
        E 1 9a 33 65
        E 0 9f 52 67
        E 1 91 41 65
        E 0 92 42 67
        E 28 80 42 64
        E 1 81 41 65
        E 1 87 32 64
        E 0 8b 52 66
        E 1 98 33 66
        E 0 9e 53 64
        E 1 90 42 64
        E 0 91 43 64
        E 29 86 32 65
        E 0 8f 52 67
        E 1 80 42 64
        E 1 84 42 65
        E 1 9d 53 65
        E 1 90 43 65
        E 0 94 42 65
        E 1 97 33 67
        E 27 85 33 64
        E 0 83 42 66
        E 1 84 42 65
        E 0 96 34 64
        E 1 93 42 66
        E 1 94 44 64
        E 27 8a 33 65
        E 1 8d 53 65
        E 0 8e 53 64
        E 1 82 42 67
        E 1 83 42 66
        E 0 95 34 65
        E 1 9f 54 64
        E 0 92 42 67
        E 1 93 44 65
        E 1 9b 24 64
        E 27 88 33 66
        E 1 81 43 64
        E 0 82 42 67
        E 2 9a 35 63
        E 0 9e 54 65
        E 1 91 43 64
        E 0 92 44 66
        E 27 8f 54 64
        E 0 80 43 65
        E 1 81 43 64
        E 1 87 33 67
        E 1 8b 24 64
        E 0 98 35 64
        E 1 9d 25 64
        E 0 90 43 65
        E 1 91 44 67
        E 27 86 34 64
        E 0 8e 54 65
        E 1 80 43 65
        E 1 84 44 64
        E 0 90 45 64
        E 1 94 44 64
        E 1 97 35 65
        E 29 85 34 65
        E 1 8d 25 64
        E 0 83 44 65
        E 1 84 44 64
        E 0 96 36 64
        E 1 93 44 65
        E 0 94 45 65
        E 1 9b 25 66
        E 27 8a 35 63
        E 0 82 44 66
        E 1 83 44 65
        E 1 95 36 65
        E 1 9a 35 63
        E 0 92 44 66
        E 1 93 46 64
        E 29 88 35 64
        E 1 8a 35 63
        E 0 81 44 67
        E 1 82 44 66
        E 1 8b 25 66
        E 0 98 35 64
        E 1 9a 36 66
        E 0 9e 26 64
        E 1 91 44 67
        E 1 92 46 65
        E 27 88 35 64
        E 1 80 45 64
        E 0 81 44 67
        E 1 87 35 65
        E 0 98 36 67
        E 1 90 45 64
        E 1 91 46 66
        E 0 97 35 65
        E 27 86 36 64
        E 0 8e 26 64
        E 1 80 45 64
        E 0 84 45 65
        E 1 87 35 65
        E 1 96 36 64
        E 1 90 46 67
        E 0 97 37 64
        E 0 9c 27 64
        E 29 85 36 65
        E 1 86 36 64
        E 0 83 46 64
        E 1 95 36 65
        E 0 96 37 65
        E 1 94 47 64
        E 30 85 36 65
        E 0 8a 36 66
        E 1 82 46 65
        E 1 8c 27 64
        E 0 95 38 64
        E 1 9a 36 66
        E 0 9f 27 66
        E 1 93 47 65
        E 26 88 36 67
        E 1 8a 36 66
        E 1 81 46 66
        E 0 98 36 67
        E 0 9a 38 65
        E 0 92 48 63
        E 30 88 36 67
        E 0 8f 27 66
        E 1 80 46 67
        E 0 87 37 64
        E 1 98 38 66
        E 1 9d 28 64
        E 0 91 48 64
        E 1 97 37 64
        E 29 86 37 65
        E 0 84 47 64
        E 1 87 37 64
        E 1 96 37 65
        E 1 90 48 65
        E 0 97 38 67
        E 27 85 38 64
        E 1 86 37 65
        E 0 8d 28 64
        E 1 83 47 65
        E 1 95 38 64
        E 0 96 39 64
        E 0 94 49 64
        E 1 9b 29 63
        E 28 85 38 64
        E 1 8a 38 65
        E 1 82 48 63
        E 0 95 39 65
        E 1 9a 38 65
        E 1 9f 29 64
        E 0 93 48 64
        E 31 88 38 66
        E 0 8a 38 65
        E 1 81 48 64
        E 0 8b 29 63
        E 1 98 38 66
        E 1 9a 3a 64
        E 0 9e 29 65
        E 1 92 49 66
        E 25 88 38 66
        E 0 80 48 65
        E 1 87 38 67
        E 1 98 3a 65
        E 0 9d 2a 64
        E 1 90 48 65
        E 1 91 49 67
        E 0 97 38 67
        E 28 86 39 64
        E 1 8f 29 64
        E 1 80 48 65
        E 1 84 49 64
        E 0 87 38 67
        E 1 96 39 64
        E 0 90 4a 64
        E 1 97 3a 66
        E 1 9c 2a 65
        E 27 85 39 65
        E 1 86 39 64
        E 1 8e 29 65
        E 0 83 48 64
        E 1 95 3b 64
        E 0 96 3a 67
        E 0 94 4a 65
        E 1 9b 2a 66
        E 28 85 3b 64
        E 0 8a 3a 64
        E 1 8d 2a 64
        E 0 82 49 66
        E 1 95 3b 64
        E 0 9a 3a 64
        E 1 9f 2a 67
        E 0 93 4b 64
        E 28 88 3a 65
        E 0 8a 3a 64
        E 1 81 49 67
        E 1 8c 2a 65
        E 0 98 3a 65
        E 1 9a 3b 65
        E 1 9e 2b 64
        E 0 92 4b 65
        E 28 88 3a 65
        E 1 80 4a 64
        E 0 87 3a 66
        E 1 8b 2a 66
        E 1 98 3c 63
        E 0 9d 2b 65
        E 1 91 4b 66
        E 0 97 3a 66
        E 27 86 3a 67
        E 1 8f 2a 67
        E 1 84 4a 65
        E 0 87 3a 66
        E 1 96 3a 67
        E 1 90 4b 67
        E 0 97 3c 64
        E 0 9c 2c 64
        E 30 85 3b 64
        E 0 86 3a 67
        E 1 8e 2b 64
        E 1 83 4b 64
        E 1 95 3b 64
        E 1 96 3c 65
        E 0 94 4c 64
        E 1 9b 2c 65
        E 27 85 3b 64
        E 0 8a 3b 65
        E 0 8d 2b 65
        E 0 82 4b 65
        E 1 95 3d 64
        E 1 9a 3b 65
        E 0 9f 2c 66
        E 1 93 4c 65
        E 26 88 3c 63
        E 1 8a 3b 65
        E 0 81 4b 66
        E 1 8c 2c 64
        E 0 98 3c 63
        E 1 9a 3d 65
        E 0 9e 2c 67
        E 1 92 4d 63
        E 28 88 3c 63
        E 1 80 4b 67
        E 1 84 4c 64
        E 0 87 3c 64
        E 1 8b 2c 65
        E 0 98 3d 66
        E 1 9d 2d 64
        E 0 91 4d 64
        E 1 97 3c 64
        E 32 86 3c 65
        E 0 8f 2c 66
        E 1 83 4c 65
        E 0 87 3c 64
        E 1 96 3c 65
        E 0 90 4d 65
        E 1 97 3d 67
        E 0 9c 2d 65
        E 27 85 3d 64
        E 0 86 3c 65
        E 1 8e 2c 67
        E 1 82 4d 63
        E 1 95 3d 64
        E 0 96 3e 64
        E 1 94 4e 64
        E 0 9b 2e 64
        E 28 85 3d 64
        E 1 8a 3d 65
        E 0 8d 2d 64
        E 1 81 4d 64
        E 0 95 3e 65
        E 1 9a 3d 65
        E 0 9f 2e 65
        E 1 93 4e 65
        E 29 88 3d 66
        E 0 8a 3d 65
        E 1 80 4d 65
        E 0 8c 2d 65
        E 0 98 3d 66
        E 1 9a 3f 64
        E 1 9e 2e 66
        E 0 92 4e 66
        E 27 88 3d 66
        E 0 84 4e 64
        E 0 87 3d 67
        E 0 8b 2e 64
        E 1 98 3f 65
        E 0 9d 2e 67
        E 1 91 4e 67
        E 1 97 3d 67
        E 28 86 3e 64
        E 1 83 4e 65
        E 0 87 3d 67
        E 1 96 3e 64
        E 0 90 4f 64
        E 1 97 3f 66
        E 0 9c 2f 64
        E 29 85 3e 65
        E 1 86 3e 64
        E 0 8f 2e 65
        E 1 82 4e 66
        E 0 95 3e 65
        E 1 96 3f 67
        E 0 94 4f 65
        E 1 9b 2f 65
        E 30 85 3e 65
        E 1 8a 3f 64
        E 1 8e 2e 66
        E 0 81 4e 67
        E 1 95 40 64
        E 1 9a 3f 64
        E 0 9f 30 63
        E 1 93 50 64
        E 28 88 3f 65
        E 1 8a 3f 64
        E 0 8d 2e 67
        E 1 80 4f 64
        E 1 98 3f 65
        E 0 9a 40 65
        E 1 9e 30 64
        E 0 92 50 65
        E 27 88 3f 65
        E 1 84 4f 65
        E 0 87 3f 66
        E 0 8c 2f 64
        E 1 98 41 63
        E 0 9d 30 65
        E 1 91 50 66
        E 1 97 3f 66
        E 24 86 3f 67
        E 1 83 50 64
        E 1 87 3f 66
        E 0 8b 2f 65
        E 1 96 3f 67
        E 0 90 50 67
        E 1 97 41 64
        E 0 9c 31 64
        E 33 85 40 64
        E 0 86 3f 67
        E 1 8f 30 63
        E 0 82 50 65
        E 1 95 40 64
        E 1 96 41 65
        E 0 94 51 64
        E 1 9b 31 65
        E 28 85 40 64
        E 1 8a 40 65
        E 0 8e 30 64
        E 1 80 50 67
        E 0 81 50 66
        E 1 95 42 64
        E 0 9a 40 65
        E 1 9f 31 66
        E 0 93 51 65
        E 27 88 41 63
        E 0 8a 40 65
        E 1 8d 30 65
        E 1 84 51 64
        E 0 98 41 63
        E 1 9a 42 65
        E 0 9e 31 67
        E 0 92 52 64
        E 27 88 41 63
        E 1 83 51 65
        E 0 87 41 64
        E 1 8c 31 64
        E 0 98 42 66
        E 1 9d 32 64
        E 0 91 52 65
        E 0 97 41 64
        E 31 86 41 65
        E 0 82 52 64
        E 0 87 41 64
        E 1 8b 31 65
        E 1 96 41 65
        E 0 90 52 66
        E 2 97 42 67
        E 0 9c 32 65
        E 28 85 42 64
        E 0 86 41 65
        E 1 8f 31 66
        E 0 81 52 65
        E 1 95 42 64
        E 0 96 43 64
        E 1 94 52 67
        E 1 9b 33 64
        E 28 85 42 64
        E 1 8a 42 65
        E 1 8e 31 67
        E 0 80 52 66
        E 1 95 43 65
        E 0 9a 42 65
        E 1 9f 33 65
        E 1 93 53 64
        E 28 88 42 66
        E 1 8a 42 65
        E 1 8d 32 64
        E 0 84 52 67
        E 1 98 42 66
        E 0 9a 44 64
        E 1 9e 33 66
        E 0 92 53 65
        E 27 88 42 66
        E 0 87 42 67
        E 1 8c 32 65
        E 0 98 44 65
        E 1 9d 33 67
        E 1 97 42 67
        E 29 85 43 65
        E 0 86 43 64
        E 1 88 44 65
        E 0 8a 44 64
        E 1 8d 33 67
        E 1 8e 33 66
        E 0 8f 33 65
        E 0 82 53 65
        E 1 83 53 64
        E 1 87 42 67
        E 1 8b 33 64
        E 0 95 43 65
        E 1 96 43 64
        E 0 98 44 65
        E 1 9a 44 64
        E 0 9d 33 67
        E 1 9e 33 66
        E 1 9f 33 65
        E 0 90 24 64
        E 1 94 54 64
        E 0 97 44 66
        E 1 9c 34 64
        E 21 86 43 64
        E 1 8f 33 65
        E 0 96 44 67
        E 1 93 54 65
        E 1 9b 34 65
        E 29 85 43 65
        E 0 8e 33 66
        E 1 80 24 64
        E 0 84 54 64
        E 0 95 45 64
        E 0 9f 35 63
        E 1 92 25 64
        E 29 8a 44 64
        E 0 8d 33 67
        E 1 83 54 65
        E 0 9a 45 65
        E 1 9e 35 64
        E 31 88 44 65
        E 1 82 25 64
        E 0 87 44 66
        E 1 8c 34 64
        E 0 98 46 64
        E 1 9d 35 65
        E 0 90 25 66
        E 1 97 44 66
        E 25 86 44 67
        E 1 87 44 66
        E 1 8b 34 65
        E 0 96 44 67
        E 1 97 46 65
        E 0 9c 36 64
        E 31 85 45 64
        E 0 86 44 67
        E 1 8f 35 63
        E 1 80 25 66
        E 0 95 45 64
        E 1 96 46 66
        E 1 9f 35 63
        E 0 93 26 64
        E 1 9b 36 65
        E 29 85 45 64
        E 0 8a 45 65
        E 1 8e 35 64
        E 0 8f 35 63
        E 1 95 46 67
        E 0 9e 35 64
        E 1 9f 36 66
        E 26 88 46 64
        E 1 8d 35 65
        E 1 8e 35 64
        E 0 83 26 64
        E 1 9a 47 64
        E 1 9d 35 65
        E 0 9e 36 67
        E 1 91 27 64
        E 29 8d 35 65
        E 0 87 46 65
        E 0 8c 36 64
        E 0 98 47 65
        E 0 9d 37 64
        E 0 9c 36 64
        E 30 86 46 66
        E 0 81 27 64
        E 1 8b 36 65
        E 1 8c 36 64
        E 1 94 27 66
        E 0 97 48 63
        E 1 9b 36 65
        E 0 9c 37 65
        E 27 85 46 67
        E 1 8f 36 66
        E 0 8b 36 65
        E 1 96 48 64
        E 0 9f 36 66
        E 1 9b 38 64
        E 29 8a 47 64
        E 1 8e 36 67
        E 0 8f 36 66
        E 1 84 27 66
        E 1 95 48 65
        E 0 9e 36 67
        E 1 9f 38 65
        E 0 92 28 64
        E 30 88 47 65
        E 0 8d 37 64
        E 1 8e 36 67
        E 0 9a 49 64
        E 1 9d 37 64
        E 0 9e 38 66
        E 31 8d 37 64
        E 0 82 28 64
        E 1 87 48 63
        E 1 8c 37 65
        E 0 98 48 64
        E 1 9d 38 67
        E 0 90 29 63
        E 1 9c 37 65
        E 27 86 48 64
        E 0 8b 38 64
        E 1 8c 37 65
        E 1 94 29 64
        E 0 97 49 66
        E 1 9b 38 64
        E 0 9c 39 64
        E 32 85 48 65
        E 1 8f 38 65
        E 1 80 29 63
        E 1 8b 38 64
        E 0 95 48 65
        E 1 96 49 67
        E 0 9f 38 65
        E 1 93 29 65
        E 1 9b 39 65
        E 23 85 48 65
        E 0 8a 49 64
        E 1 8e 38 66
        E 0 8f 38 65
        E 1 95 4a 64
        E 0 9e 38 66
        E 1 9f 3a 64
        E 1 92 2a 64
        E 28 88 48 64
        E 0 8d 38 67
        E 1 8e 38 66
        E 1 84 29 64
        E 0 9a 4a 65
        E 1 9d 38 67
        E 1 9e 3a 65
        E 0 91 2a 65
        E 29 8d 38 67
        E 1 83 29 65
        E 0 87 49 66
        E 1 8c 39 64
        E 0 98 4b 64
        E 1 9d 3a 66
        E 0 90 2a 66
        E 1 9c 39 64
        E 27 86 49 67
        E 1 82 2a 64
        E 0 8b 39 65
        E 1 8c 39 64
        E 1 94 2a 67
        E 0 97 4b 65
        E 1 9b 3b 64
        E 0 9c 3a 67
        E 28 85 4a 64
        E 1 8f 3a 64
        E 1 81 2a 65
        E 0 8b 3b 64
        E 0 96 4b 66
        E 2 9f 3a 64
        E 0 93 2b 64
        E 0 9b 3b 64
        E 29 8a 4a 65
        E 0 8e 3a 65
        E 1 8f 3a 64
        E 1 80 2a 66
        E 0 95 4b 67
        E 1 9e 3a 65
        E 0 9f 3b 65
        E 1 92 2b 65
        E 26 88 4b 64
        E 1 8d 3a 66
        E 0 8e 3a 65
        E 1 84 2a 67
        E 0 9a 4c 64
        E 1 9d 3a 66
        E 0 9e 3c 63
        E 1 91 2c 64
        E 29 8d 3a 66
        E 1 83 2b 64
        E 1 87 4b 65
        E 0 8c 3a 67
        E 1 98 4c 65
        E 1 9d 3c 64
        E 0 90 2c 65
        E 1 9c 3a 67
        E 28 86 4b 66
        E 0 82 2b 65
        E 1 8b 3b 64
        E 0 8c 3a 67
        E 1 94 2c 66
        E 0 97 4d 63
        E 0 9b 3b 64
        E 1 9c 3c 65
        E 29 85 4b 67
        E 0 8a 4c 64
        E 1 8f 3b 65
        E 1 81 2c 64
        E 0 8b 3b 64
        E 1 96 4d 64
        E 0 9f 3b 65
        E 1 93 2c 67
        E 0 9b 3d 64
        E 28 88 4c 65
        E 1 8e 3c 63
        E 0 8f 3b 65
        E 1 80 2c 65
        E 0 95 4d 65
        E 1 9e 3c 63
        E 0 9f 3d 65
        E 1 92 2d 64
        E 25 8d 3c 64
        E 1 8e 3c 63
        E 1 84 2c 66
        E 0 87 4d 63
        E 1 9a 4e 64
        E 0 9d 3c 64
        E 1 9e 3d 66
        E 0 91 2d 65
        E 29 86 4d 64
        E 0 8d 3c 64
        E 1 83 2c 67
        E 0 8c 3c 65
        E 1 98 4e 65
        E 1 9d 3d 67
        E 0 90 2e 64
        E 1 9c 3c 65
        E 29 85 4d 65
        E 0 82 2d 64
        E 1 8b 3d 64
        E 1 8c 3c 65
        E 0 94 2e 65
        E 1 97 4e 66
        E 0 9b 3d 64
        E 1 9c 3e 64
        E 29 8a 4e 64
        E 1 8f 3d 65
        E 0 81 2d 65
        E 1 8b 3d 64
        E 1 96 4e 67
        E 1 9f 3d 65
        E 1 93 2e 66
        E 1 9b 3e 65
        E 24 88 4e 65
        E 1 8e 3d 66
        E 0 8f 3d 65
        E 1 80 2e 64
        E 1 95 4f 64
        E 0 9e 3d 66
        E 0 9f 3f 64
        E 1 92 2e 67
        E 31 8d 3d 67
        E 1 8e 3d 66
        E 0 87 4e 66
        E 0 9a 4f 65
        E 1 9d 3d 67
        E 0 9e 3f 65
        E 1 91 2f 64
        E 29 86 4e 67
        E 1 8d 3d 67
        E 0 84 2e 65
        E 1 8c 3e 64
        E 0 98 50 64
        E 0 9d 3f 66
        E 0 90 2f 65
        E 0 9c 3e 64
        E 25 85 4f 64
        E 0 83 2e 66
        E 1 8b 3e 65
        E 1 8c 3e 64
        E 0 94 30 63
        E 1 97 50 65
        E 1 9b 3e 65
        E 0 9c 3f 67
        E 32 8a 4f 65
        E 0 8f 3f 64
        E 1 82 2e 67
        E 1 8b 3e 65
        E 0 96 50 66
        E 1 9f 3f 64
        E 1 93 30 64
        E 0 9b 40 64
        E 29 88 50 64
        E 1 8e 3f 65
        E 0 8f 3f 64
        E 1 81 2f 64
        E 1 95 50 67
        E 0 9e 3f 65
        E 1 9f 40 65
        E 0 92 30 65
        E 26 8d 3f 66
        E 0 8e 3f 65
        E 1 80 2f 65
        E 1 87 50 65
        E 0 9a 51 64
        E 0 9d 3f 66
        E 1 9e 41 63
        E 0 91 31 64
        E 29 85 50 67
        E 1 86 50 66
        E 0 8d 3f 66
        E 1 84 30 63
        E 1 8c 3f 67
        E 0 98 51 65
        E 1 9d 41 64
        E 0 90 31 65
        E 1 9c 3f 67
        E 26 8a 51 64
        E 0 83 30 64
        E 1 8b 40 64
        E 0 8c 3f 67
        E 1 94 31 66
        E 1 97 52 64
        E 0 9b 40 64
        E 1 9c 41 65
        E 26 88 51 65
        E 1 8f 40 65
        E 0 82 30 65
        E 1 8b 40 64
        E 1 96 52 65
        E 0 9f 40 65
        E 1 93 31 67
        E 2 9b 42 64
        E 28 8e 41 63
        E 1 8f 40 65
        E 1 81 31 64
        E 0 87 52 64
        E 1 95 52 66
        E 0 9e 41 63
        E 1 9f 42 65
        E 1 92 32 64
        E 28 86 52 65
        E 1 8d 41 64
        E 0 8e 41 63
        E 1 80 31 65
        E 1 9a 52 67
        E 0 9d 41 64
        E 1 9e 42 66
        E 1 91 32 65
        E 28 85 52 66
        E 0 8d 41 64
        E 1 84 31 66
        E 0 8c 41 65
        E 1 98 53 64
        E 0 9d 42 67
        E 1 90 33 64
        E 1 9c 41 65
        E 28 8a 52 67
        E 0 83 31 67
        E 1 8b 42 64
        E 0 8c 41 65
        E 1 94 33 65
        E 0 97 53 65
        E 1 9b 42 64
        E 1 9c 43 64
        E 28 8f 42 65
        E 1 82 32 64
        E 1 8b 42 64
        E 0 9f 42 65
        E 1 93 33 66
        E 0 9b 43 65
        E 26 88 53 64
        E 1 8e 42 66
        E 0 8f 42 65
        E 1 81 32 65
        E 1 87 53 65
        E 1 95 24 64
        E 0 9a 54 64
        E 0 9e 42 66
        E 1 9f 44 64
        E 0 92 33 67
        E 28 8d 42 67
        E 1 8e 42 66
        E 2 80 33 64
        E 1 98 54 65
        E 0 9d 42 67
        E 1 9e 44 65
        E 0 91 34 64
        E 29 85 24 64
        E 1 8a 54 64
        E 0 8d 42 67
        E 1 84 33 65
        E 1 8c 43 64
        E 0 9d 44 66
        E 1 90 34 65
        E 1 97 25 64
        E 0 9c 43 64
        E 26 88 54 65
        E 1 83 33 66
        E 1 8b 43 65
        E 0 8c 43 64
        E 1 94 35 63
        E 0 9b 43 65
        E 1 9c 44 67
        E 27 8f 44 64
        E 0 82 33 67
        E 1 87 25 64
        E 1 8b 43 65
        E 0 95 25 66
        E 1 9f 44 64
        E 1 93 35 64
        E 0 9b 45 64
        E 29 8e 44 65
        E 1 8f 44 64
        E 0 81 34 64
        E 1 9e 44 65
        E 0 9f 45 65
        E 1 92 35 65
        E 30 85 25 66
        E 1 8d 44 66
        E 0 8e 44 65
        E 1 80 34 65
        E 0 98 26 64
        E 1 9d 44 66
        E 1 9e 46 64
        E 0 91 36 64
        E 26 8d 44 66
        E 1 84 35 63
        E 1 8c 44 67
        E 0 9d 46 65
        E 1 90 36 65
        E 0 94 35 63
        E 1 9c 44 67
        E 29 88 26 64
        E 1 83 35 64
        E 1 84 35 63
        E 0 8b 45 64
        E 1 8c 44 67
        E 0 96 27 64
        E 1 93 35 64
        E 0 94 36 66
        E 1 9b 45 64
        E 0 9c 46 66
        E 27 8f 45 65
        E 0 82 35 65
        E 0 83 35 64
        E 1 8b 45 64
        E 1 92 35 65
        E 1 93 36 67
        E 0 9b 46 67
        E 29 86 27 64
        E 1 8e 46 64
        E 0 81 36 64
        E 1 82 35 65
        E 0 9a 27 66
        E 1 9f 47 64
        E 0 91 36 64
        E 1 92 37 64
        E 29 8d 46 65
        E 1 80 36 65
        E 1 81 36 64
        E 0 9e 47 65
        E 0 90 36 65
        E 2 91 37 65
        E 27 8a 27 66
        E 0 80 36 65
        E 1 84 36 66
        E 0 8c 46 66
        E 1 9d 48 63
        E 0 90 38 64
        E 1 94 36 66
        E 1 97 28 64
        E 28 83 36 67
        E 1 84 36 66
        E 0 8b 46 67
        E 1 93 36 67
        E 0 94 38 65
        E 1 9c 48 64
        E 30 8f 47 64
        E 0 82 37 64
        E 1 83 36 67
        E 1 87 28 64
        E 0 95 29 63
        E 1 92 37 64
        E 0 93 38 66
        E 1 9b 48 65
        E 26 8e 47 65
        E 1 81 37 65
        E 0 82 37 64
        E 1 9a 29 64
        E 1 9f 49 64
        E 0 91 37 65
        E 1 92 38 67
        E 29 85 29 63
        E 0 8d 48 63
        E 1 80 38 64
        E 0 81 37 65
        E 1 98 29 65
        E 0 9e 48 64
        E 1 90 38 64
        E 1 91 39 64
        E 27 80 38 64
        E 1 84 38 65
        E 0 8c 48 64
        E 1 9d 49 66
        E 1 90 39 65
        E 1 94 38 65
        E 0 97 2a 64
        E 30 8a 29 64
        E 1 83 38 66
        E 0 84 38 65
        E 1 8b 48 65
        E 0 96 2a 65
        E 1 93 38 66
        E 0 94 3a 64
        E 1 9b 48 65
        E 0 9c 49 67
        E 28 88 29 65
        E 1 8f 49 64
        E 1 82 38 67
        E 1 83 38 66
        E 0 8b 48 65
        E 1 95 2a 66
        E 0 92 38 67
        E 0 93 3a 65
        E 1 9b 4a 64
        E 27 8e 48 64
        E 0 81 39 64
        E 1 82 38 67
        E 0 87 2a 64
        E 1 9a 2a 67
        E 1 9f 4a 65
        E 0 91 39 64
        E 0 92 3a 66
        E 25 86 2a 65
        E 1 8d 49 66
        E 1 80 39 65
        E 0 81 39 64
        E 1 98 2b 64
        E 1 9e 4b 64
        E 0 90 3b 64
        E 1 91 3a 67
        E 31 85 2a 66
        E 1 80 3b 64
        E 0 84 3a 64
        E 1 8c 49 67
        E 0 9d 4b 65
        E 1 90 3b 64
        E 0 94 3a 64
        E 1 97 2b 65
        E 29 8a 2a 67
        E 0 83 3a 65
        E 1 84 3a 64
        E 1 8b 4a 64
        E 0 96 2c 64
        E 1 93 3a 65
        E 0 94 3b 65
        E 1 9c 4b 66
        E 26 88 2b 64
        E 0 8f 4a 65
        E 1 82 3a 66
        E 0 83 3a 65
        E 1 95 2c 65
        E 0 92 3a 66
        E 1 93 3c 63
        E 1 9b 4b 67
        E 25 8e 4b 64
        E 1 81 3a 67
        E 1 82 3a 66
        E 0 87 2b 65
        E 1 9a 2c 66
        E 0 9f 4c 64
        E 1 91 3a 67
        E 0 92 3c 64
        E 29 86 2c 64
        E 1 8d 4b 65
        E 1 80 3b 64
        E 0 81 3a 67
        E 1 98 2c 67
        E 0 9e 4c 65
        E 1 90 3b 64
        E 2 91 3c 65
        E 27 85 2c 65
        E 0 80 3b 64
        E 1 84 3b 65
        E 0 8c 4b 66
        E 1 9d 4d 63
        E 1 90 3d 64
        E 0 94 3b 65
        E 1 97 2d 64
        E 28 8a 2c 66
        E 0 8f 4c 64
        E 1 83 3c 63
        E 1 84 3b 65
        E 0 8b 4b 67
        E 1 96 2d 65
        E 1 93 3c 63
        E 0 94 3d 65
        E 1 9c 4d 64
        E 29 88 2c 67
        E 1 8e 4c 65
        E 1 82 3c 64
        E 0 83 3c 63
        E 1 95 2e 64
        E 0 92 3c 64
        E 1 93 3d 66
        E 0 9b 4d 65
        E 27 8d 4d 63
        E 0 81 3c 65
        E 0 82 3c 64
        E 1 87 2d 64
        E 1 9a 2e 65
        E 0 9f 4e 64
        E 1 91 3c 65
        E 1 92 3d 67
        E 28 86 2d 65
        E 0 80 3d 64
        E 1 81 3c 65
        E 1 8c 4d 64
        E 1 98 2e 66
        E 1 9e 4e 65
        E 0 90 3d 64
        E 1 91 3e 64
        E 27 85 2e 64
        E 0 80 3d 64
        E 1 84 3d 65
        E 1 8b 4d 65
        E 1 9d 4e 66
        E 0 90 3e 65
        E 1 94 3d 65
        E 1 97 2e 67
        E 26 8f 4e 64
        E 1 83 3d 66
        E 1 84 3d 65
        E 0 96 2f 64
        E 1 93 3d 66
        E 1 94 3f 64
        E 1 9c 4e 67
        E 29 8a 2e 65
        E 0 8e 4e 65
        E 1 82 3d 67
        E 0 83 3d 66
        E 1 95 2f 65
        E 1 92 3d 67
        E 0 93 3f 65
        E 1 9b 4f 64
        E 27 88 2e 66
        E 0 8d 4e 66
        E 1 81 3e 64
        E 0 82 3d 67
        E 1 9a 30 63
        E 0 9f 4f 65
        E 1 91 3e 64
        E 1 92 3f 66
        E 29 80 3e 65
        E 0 81 3e 64
        E 1 87 2e 67
        E 1 8c 4e 67
        E 0 98 30 64
        E 1 9e 50 64
        E 0 90 3e 65
        E 1 91 3f 67
        E 27 86 2f 64
        E 0 80 3e 65
        E 1 84 3f 64
        E 0 8b 4f 64
        E 1 9d 50 65
        E 1 90 40 64
        E 0 94 3f 64
        E 1 97 30 65
        E 28 85 2f 65
        E 0 8f 4f 65
        E 1 83 3f 65
        E 0 84 3f 64
        E 1 96 31 64
        E 0 93 3f 65
        E 1 94 40 65
        E 1 9c 50 66
        E 27 8a 30 63
        E 0 8e 50 64
        E 1 82 3f 66
        E 0 83 3f 65
        E 1 95 31 65
        E 1 92 3f 66
        E 0 93 41 63
        E 1 9b 50 67
        E 29 88 30 64
        E 1 8d 50 65
        E 0 81 3f 67
        E 1 82 3f 66
        E 1 9a 31 66
        E 0 9f 51 64
        E 1 91 3f 67
        E 0 92 41 64
        E 28 80 40 64
        E 1 81 3f 67
        E 0 87 30 65
        E 1 8b 50 67
        E 1 8c 50 66
        E 1 98 31 67
        E 0 9e 51 65
        E 1 90 40 64
        E 1 91 41 65
        E 25 86 31 64
        E 0 8f 51 64
        E 1 80 40 64
        E 0 84 40 65
        E 1 9d 52 64
        E 0 90 42 64
        E 0 94 40 65
        E 1 97 32 64
        E 31 85 31 65
        E 0 8e 51 65
        E 1 83 41 63
        E 1 84 40 65
        E 0 96 32 65
        E 1 93 41 63
        E 0 94 42 65
        E 1 9c 52 65
        E 29 8a 31 66
        E 1 8d 52 64
        E 0 82 41 64
        E 2 83 41 63
        E 0 95 33 64
        E 1 92 41 64
        E 0 93 42 66
        E 1 9b 52 66
        E 23 88 31 67
        E 0 81 41 65
        E 1 82 41 64
        E 0 8c 52 65
        E 1 9a 33 65
        E 1 9f 52 67
        E 0 91 41 65
        E 0 92 42 67
        E 32 80 42 64
        E 0 81 41 65
        E 1 87 32 64
        E 1 8b 52 66
        E 0 98 33 66
        E 1 9e 53 64
        E 0 90 42 64
        E 1 91 43 64
        E 28 86 32 65
        E 0 8f 52 67
        E 1 80 42 64
        E 0 84 42 65
        E 1 9d 53 65
        E 0 90 43 65
        E 1 94 42 65
        E 1 97 33 67
        E 27 85 33 64
        E 1 83 42 66
        E 1 84 42 65
        E 0 96 34 64
        E 0 93 42 66
        E 1 94 44 64
        E 30 8a 33 65
        E 1 8d 53 65
        E 1 8e 53 64
        E 1 82 42 67
        E 0 83 42 66
        E 1 95 34 65
        E 1 9f 54 64
        E 0 92 42 67
        E 1 93 44 65
        E 0 9b 24 64
        E 25 88 33 66
        E 1 81 43 64
        E 0 82 42 67
        E 1 9a 35 63
        E 1 9e 54 65
        E 0 91 43 64
        E 1 92 44 66
        E 27 8f 54 64
        E 1 80 43 65
        E 1 81 43 64
        E 0 87 33 67
        E 0 8b 24 64
        E 1 98 35 64
        E 0 9d 25 64
        E 1 90 43 65
        E 0 91 44 67
        E 28 86 34 64
        E 1 8e 54 65
        E 0 80 43 65
        E 1 84 44 64
        E 0 90 45 64
        E 1 94 44 64
        E 0 97 35 65
        E 31 85 34 65
        E 0 8d 25 64
        E 1 83 44 65
        E 1 84 44 64
        E 1 96 36 64
        E 0 93 44 65
        E 0 94 45 65
        E 1 9b 25 66
        E 26 8a 35 63
        E 1 82 44 66
        E 0 83 44 65
        E 0 95 36 65
        E 0 9a 35 63
        E 1 92 44 66
        E 1 93 46 64
        E 29 88 35 64
        E 0 8a 35 63
        E 1 81 44 67
        E 0 82 44 66
        E 1 8b 25 66
        E 1 98 35 64
        E 0 9a 36 66
        E 1 9e 26 64
        E 1 91 44 67
        E 0 92 46 65
        E 29 88 35 64
        E 1 80 45 64
        E 0 81 44 67
        E 1 87 35 65
        E 0 98 36 67
        E 1 90 45 64
        E 1 91 46 66
        E 0 97 35 65
        E 25 86 36 64
        E 0 8e 26 64
        E 1 80 45 64
        E 0 84 45 65
        E 1 87 35 65
        E 0 96 36 64
        E 1 90 46 67
        E 0 97 37 64
        E 1 9c 27 64
        E 28 85 36 65
        E 1 86 36 64
        E 0 83 46 64
        E 1 95 36 65
        E 1 96 37 65
        E 0 94 47 64
        E 31 85 36 65
        E 1 8a 36 66
        E 0 82 46 65
        E 1 8c 27 64
        E 0 95 38 64
        E 1 9a 36 66
        E 1 9f 27 66
        E 0 93 47 65
        E 26 88 36 67
        E 1 8a 36 66
        E 1 81 46 66
        E 0 98 36 67
        E 1 9a 38 65
        E 0 92 48 63
        E 30 88 36 67
        E 0 8f 27 66
        E 1 80 46 67
        E 1 87 37 64
        E 1 98 38 66
        E 0 9d 28 64
        E 1 91 48 64
        E 1 97 37 64
        E 28 86 37 65
        E 1 84 47 64
        E 0 87 37 64
        E 1 96 37 65
        E 1 90 48 65
        E 1 97 38 67
        E 25 85 38 64
        E 1 86 37 65
        E 1 8d 28 64
        E 0 83 47 65
        E 1 95 38 64
        E 0 96 39 64
        E 1 94 49 64
        E 0 9b 29 63
        E 30 85 38 64
        E 1 8a 38 65
        E 0 82 48 63
        E 1 95 39 65
        E 1 9a 38 65
        E 0 9f 29 64
        E 1 93 48 64
        E 29 88 38 66
        E 1 8a 38 65
        E 1 81 48 64
        E 0 8b 29 63
        E 1 98 38 66
        E 0 9a 3a 64
        E 1 9e 29 65
        E 0 92 49 66
        E 26 88 38 66
        E 0 80 48 65
        E 1 87 38 67
        E 0 98 3a 65
        E 1 9d 2a 64
        E 0 90 48 65
        E 1 91 49 67
        E 0 97 38 67
        E 30 86 39 64
        E 0 8f 29 64
        E 1 80 48 65
        E 1 84 49 64
        E 1 87 38 67
        E 0 96 39 64
        E 1 90 4a 64
        E 1 97 3a 66
        E 0 9c 2a 65
        E 30 85 39 65
        E 1 86 39 64
        E 0 8e 29 65
        E 1 83 48 64
        E 0 95 3b 64
        E 1 96 3a 67
        E 0 94 4a 65
        E 1 9b 2a 66
        E 27 85 3b 64
        E 0 8a 3a 64
        E 1 8d 2a 64
        E 0 82 49 66
        E 1 95 3b 64
        E 1 9a 3a 64
        E 0 9f 2a 67
        E 1 93 4b 64
        E 26 88 3a 65
        E 1 8a 3a 64
        E 0 81 49 67
        E 0 8c 2a 65
        E 1 98 3a 65
        E 1 9a 3b 65
        E 0 9e 2b 64
        E 1 92 4b 65
        E 30 88 3a 65
        E 1 80 4a 64
        E 1 87 3a 66
        E 0 8b 2a 66
        E 1 98 3c 63
        E 0 9d 2b 65
        E 0 91 4b 66
        E 1 97 3a 66
        E 27 86 3a 67
        E 0 8f 2a 67
        E 1 84 4a 65
        E 1 87 3a 66
        E 0 96 3a 67
        E 1 90 4b 67
        E 0 97 3c 64
        E 0 9c 2c 64
        E 27 85 3b 64
        E 0 86 3a 67
        E 1 8e 2b 64
        E 0 83 4b 64
        E 1 95 3b 64
        E 0 96 3c 65
        E 1 94 4c 64
        E 0 9b 2c 65
        E 31 85 3b 64
        E 1 8a 3b 65
        E 0 8d 2b 65
        E 0 82 4b 65
        E 1 95 3d 64
        E 0 9a 3b 65
        E 1 9f 2c 66
        E 0 93 4c 65
        E 28 88 3c 63
        E 1 8a 3b 65
        E 1 81 4b 66
        E 0 8c 2c 64
        E 1 98 3c 63
        E 0 9a 3d 65
        E 1 9e 2c 67
        E 1 92 4d 63
        E 28 88 3c 63
        E 0 80 4b 67
        E 1 84 4c 64
        E 0 87 3c 64
        E 0 8b 2c 65
        E 1 98 3d 66
        E 1 9d 2d 64
        E 0 91 4d 64
        E 1 97 3c 64
        E 27 86 3c 65
        E 1 8f 2c 66
        E 0 83 4c 65
        E 1 87 3c 64
        E 0 96 3c 65
        E 1 90 4d 65
        E 0 97 3d 67
        E 1 9c 2d 65
        E 29 85 3d 64
        E 1 86 3c 65
        E 0 8e 2c 67
        E 1 82 4d 63
        E 0 95 3d 64
        E 1 96 3e 64
        E 0 94 4e 64
        E 1 9b 2e 64
        E 29 85 3d 64
        E 0 8a 3d 65
        E 1 8d 2d 64
        E 0 81 4d 64
        E 1 95 3e 65
        E 1 9a 3d 65
        E 0 9f 2e 65
        E 1 93 4e 65
        E 28 88 3d 66
        E 0 8a 3d 65
        E 1 80 4d 65
        E 0 8c 2d 65
        E 1 98 3d 66
        E 0 9a 3f 64
        E 1 9e 2e 66
        E 0 92 4e 66
        E 29 88 3d 66
        E 1 84 4e 64
        E 0 87 3d 67
        E 1 8b 2e 64
        E 0 98 3f 65
        E 1 9d 2e 67
        E 0 91 4e 67
        E 1 97 3d 67
        E 27 86 3e 64
        E 0 83 4e 65
        E 1 87 3d 67
        E 1 96 3e 64
        E 0 90 4f 64
        E 1 97 3f 66
        E 0 9c 2f 64
        E 29 85 3e 65
        E 1 86 3e 64
        E 1 8f 2e 65
        E 0 82 4e 66
        E 0 95 3e 65
        E 1 96 3f 67
        E 0 94 4f 65
        E 1 9b 2f 65
        E 28 85 3e 65
        E 0 8a 3f 64
        E 1 8e 2e 66
        E 1 81 4e 67
        E 0 95 40 64
        E 1 9a 3f 64
        E 0 9f 30 63
        E 1 93 50 64
        E 28 88 3f 65
        E 0 8a 3f 64
        E 1 8d 2e 67
        E 0 80 4f 64
        E 1 98 3f 65
        E 1 9a 40 65
        E 1 9e 30 64
        E 0 92 50 65
        E 28 88 3f 65
        E 2 84 4f 65
        E 0 87 3f 66
        E 1 8c 2f 64
        E 1 98 41 63
        E 0 9d 30 65
        E 1 91 50 66
        E 1 97 3f 66
        E 26 86 3f 67
        E 0 83 50 64
        E 1 87 3f 66
        E 0 8b 2f 65
        E 1 96 3f 67
        E 0 90 50 67
        E 1 97 41 64
        E 1 9c 31 64
        E 28 85 40 64
        E 0 86 3f 67
        E 1 8f 30 63
        E 1 82 50 65
        E 0 95 40 64
        E 1 96 41 65
        E 0 94 51 64
        E 1 9b 31 65
        E 27 85 40 64
        E 1 8a 40 65
        E 0 8e 30 64
        E 1 80 50 67
        E 1 81 50 66
        E 0 95 42 64
        E 1 9a 40 65
        E 1 9f 31 66
        E 0 93 51 65
        E 25 88 41 63
        E 1 8a 40 65
        E 1 8d 30 65
        E 0 84 51 64
        E 1 98 41 63
        E 0 9a 42 65
        E 1 9e 31 67
        E 1 92 52 64
        E 29 88 41 63
        E 0 83 51 65
        E 1 87 41 64
        E 0 8c 31 64
        E 1 98 42 66
        E 0 9d 32 64
        E 1 91 52 65
        E 0 97 41 64
        E 31 86 41 65
        E 0 82 52 64
        E 1 87 41 64
        E 1 8b 31 65
        E 0 96 41 65
        E 1 90 52 66
        E 1 97 42 67
        E 0 9c 32 65
        E 28 85 42 64
        E 1 86 41 65
        E 1 8f 31 66
        E 0 81 52 65
        E 1 95 42 64
        E 0 96 43 64
        E 1 94 52 67
        E 0 9b 33 64
        E 28 85 42 64
        E 1 8a 42 65
        E 1 8e 31 67
        E 0 80 52 66
        E 1 95 43 65
        E 0 9a 42 65
        E 1 9f 33 65
        E 0 93 53 64
        E 25 88 42 66
        E 0 8a 42 65
        E 1 8d 32 64
        E 0 84 52 67
        E 1 98 42 66
        E 0 9a 44 64
        E 1 9e 33 66
        E 0 92 53 65
        E 30 88 42 66
        E 0 87 42 67
        E 1 8c 32 65
        E 1 98 44 65
        E 0 9d 33 67
        E 0 97 42 67
        E 30 85 43 65
        E 1 86 43 64
        E 0 88 44 65
        E 1 8a 44 64
        E 0 8d 33 67
        E 1 8e 33 66
        E 1 8f 33 65
        E 0 82 53 65
        E 1 83 53 64
        E 0 87 42 67
        E 1 8b 33 64
        E 1 95 43 65
        E 1 96 43 64
        E 0 98 44 65
        E 1 9a 44 64
        E 1 9d 33 67
        E 0 9e 33 66
        E 1 9f 33 65
        E 0 90 24 64
        E 1 94 54 64
        E 1 97 44 66
        E 0 9c 34 64
        E 20 86 43 64
        E 1 8f 33 65
        E 0 96 44 67
        E 1 93 54 65
        E 0 9b 34 65
        E 28 85 43 65
        E 0 8e 33 66
        E 1 80 24 64
        E 1 84 54 64
        E 1 95 45 64
        E 0 9f 35 63
        E 1 92 25 64
        E 31 8a 44 64
        E 1 8d 33 67
        E 0 83 54 65
        E 1 9a 45 65
        E 0 9e 35 64
        E 30 88 44 65
        E 1 82 25 64
        E 1 87 44 66
        E 0 8c 34 64
        E 1 98 46 64
        E 1 9d 35 65
        E 0 90 25 66
        E 0 97 44 66
        E 25 86 44 67
        E 1 87 44 66
        E 1 8b 34 65
        E 0 96 44 67
        E 1 97 46 65
        E 0 9c 36 64
        E 32 85 45 64
        E 0 86 44 67
        E 0 8f 35 63
        E 1 80 25 66
        E 0 95 45 64
        E 1 96 46 66
        E 0 9f 35 63
        E 1 93 26 64
        E 0 9b 36 65
        E 29 85 45 64
        E 0 8a 45 65
        E 1 8e 35 64
        E 0 8f 35 63
        E 1 95 46 67
        E 0 9e 35 64
        E 1 9f 36 66
        E 27 88 46 64
        E 1 8d 35 65
        E 0 8e 35 64
        E 1 83 26 64
        E 1 9a 47 64
        E 0 9d 35 65
        E 1 9e 36 67
        E 0 91 27 64
        E 29 8d 35 65
        E 0 87 46 65
        E 1 8c 36 64
        E 0 98 47 65
        E 1 9d 37 64
        E 0 9c 36 64
        E 30 86 46 66
        E 0 81 27 64
        E 1 8b 36 65
        E 1 8c 36 64
        E 0 94 27 66
        E 1 97 48 63
        E 0 9b 36 65
        E 1 9c 37 65
        E 27 85 46 67
        E 1 8f 36 66
        E 0 8b 36 65
        E 1 96 48 64
        E 1 9f 36 66
        E 0 9b 38 64
        E 29 8a 47 64
        E 0 8e 36 67
        E 1 8f 36 66
        E 0 84 27 66
        E 1 95 48 65
        E 0 9e 36 67
        E 1 9f 38 65
        E 0 92 28 64
        E 30 88 47 65
        E 0 8d 37 64
        E 1 8e 36 67
        E 1 9a 49 64
        E 0 9d 37 64
        E 1 9e 38 66
        E 28 8d 37 64
        E 1 82 28 64
        E 0 87 48 63
        E 1 8c 37 65
        E 1 98 48 64
        E 0 9d 38 67
        E 2 90 29 63
        E 0 9c 37 65
        E 28 86 48 64
        E 1 8b 38 64
        E 0 8c 37 65
        E 1 94 29 64
        E 1 97 49 66
        E 0 9b 38 64
        E 1 9c 39 64
        E 28 85 48 65
        E 1 8f 38 65
        E 0 80 29 63
        E 1 8b 38 64
        E 1 95 48 65
        E 1 96 49 67
        E 0 9f 38 65
        E 1 93 29 65
        E 0 9b 39 65
        E 24 85 48 65
        E 0 8a 49 64
        E 1 8e 38 66
        E 0 8f 38 65
        E 1 95 4a 64
        E 0 9e 38 66
        E 1 9f 3a 64
        E 0 92 2a 64
        E 30 88 48 64
        E 1 8d 38 67
        E 0 8e 38 66
        E 1 84 29 64
        E 1 9a 4a 65
        E 0 9d 38 67
        E 1 9e 3a 65
        E 0 91 2a 65
        E 29 8d 38 67
        E 1 83 29 65
        E 1 87 49 66
        E 0 8c 39 64
        E 1 98 4b 64
        E 1 9d 3a 66
        E 0 90 2a 66
        E 1 9c 39 64
        E 27 86 49 67
        E 0 82 2a 64
        E 1 8b 39 65
        E 0 8c 39 64
        E 1 94 2a 67
        E 0 97 4b 65
        E 1 9b 3b 64
        E 1 9c 3a 67
        E 29 85 4a 64
        E 0 8f 3a 64
        E 1 81 2a 65
        E 1 8b 3b 64
        E 1 96 4b 66
        E 0 9f 3a 64
        E 1 93 2b 64
        E 0 9b 3b 64
        E 29 8a 4a 65
        E 1 8e 3a 65
        E 0 8f 3a 64
        E 1 80 2a 66
        E 0 95 4b 67
        E 1 9e 3a 65
        E 1 9f 3b 65
        E 0 92 2b 65
        E 25 88 4b 64
        E 0 8d 3a 66
        E 1 8e 3a 65
        E 0 84 2a 67
        E 1 9a 4c 64
        E 1 9d 3a 66
        E 1 9e 3c 63
        E 1 91 2c 64
        E 27 8d 3a 66
        E 1 83 2b 64
        E 1 87 4b 65
        E 0 8c 3a 67
        E 1 98 4c 65
        E 1 9d 3c 64
        E 0 90 2c 65
        E 1 9c 3a 67
        E 29 86 4b 66
        E 0 82 2b 65
        E 1 8b 3b 64
        E 1 8c 3a 67
        E 0 94 2c 66
        E 1 97 4d 63
        E 0 9b 3b 64
        E 1 9c 3c 65
        E 26 85 4b 67
        E 1 8a 4c 64
        E 1 8f 3b 65
        E 0 81 2c 64
        E 1 8b 3b 64
        E 0 96 4d 64
        E 1 9f 3b 65
        E 0 93 2c 67
        E 0 9b 3d 64
        E 30 88 4c 65
        E 0 8e 3c 63
        E 1 8f 3b 65
        E 0 80 2c 65
        E 1 95 4d 65
        E 1 9e 3c 63
        E 0 9f 3d 65
        E 1 92 2d 64
        E 30 8d 3c 64
        E 1 8e 3c 63
        E 0 84 2c 66
        E 0 87 4d 63
        E 1 9a 4e 64
        E 1 9d 3c 64
        E 0 9e 3d 66
        E 1 91 2d 65
        E 27 86 4d 64
        E 0 8d 3c 64
        E 1 83 2c 67
        E 1 8c 3c 65
        E 0 98 4e 65
        E 0 9d 3d 67
        E 1 90 2e 64
        E 0 9c 3c 65
        E 26 85 4d 65
        E 1 82 2d 64
        E 1 8b 3d 64
        E 0 8c 3c 65
        E 0 94 2e 65
        E 1 97 4e 66
        E 0 9b 3d 64
        E 1 9c 3e 64
        E 29 8a 4e 64
        E 1 8f 3d 65
        E 1 81 2d 65
        E 0 8b 3d 64
        E 1 96 4e 67
        E 0 9f 3d 65
        E 1 93 2e 66
        E 0 9b 3e 65
        E 27 88 4e 65
        E 1 8e 3d 66
        E 1 8f 3d 65
        E 0 80 2e 64
        E 1 95 4f 64
        E 0 9e 3d 66
        E 1 9f 3f 64
        E 1 92 2e 67
        E 28 8d 3d 67
        E 0 8e 3d 66
        E 1 87 4e 66
        E 1 9a 4f 65
        E 1 9d 3d 67
        E 0 9e 3f 65
        E 0 91 2f 64
        E 32 86 4e 67
        E 0 8d 3d 67
        E 1 84 2e 65
        E 1 8c 3e 64
        E 1 98 50 64
        E 0 9d 3f 66
        E 1 90 2f 65
        E 1 9c 3e 64
        E 25 85 4f 64
        E 0 83 2e 66
        E 0 8b 3e 65
        E 0 8c 3e 64
        E 0 94 30 63
        E 0 97 50 65
        E 1 9b 3e 65
        E 1 9c 3f 67
        E 29 8a 4f 65
        E 1 8f 3f 64
        E 0 82 2e 67
        E 1 8b 3e 65
        E 0 96 50 66
        E 1 9f 3f 64
        E 0 93 30 64
        E 1 9b 40 64
        E 28 88 50 64
        E 1 8e 3f 65
        E 0 8f 3f 64
        E 1 81 2f 64
        E 0 95 50 67
        E 1 9e 3f 65
        E 1 9f 40 65
        E 0 92 30 65
        E 29 8d 3f 66
        E 1 8e 3f 65
        E 0 80 2f 65
        E 1 87 50 65
        E 1 9a 51 64
        E 0 9d 3f 66
        E 1 9e 41 63
        E 0 91 31 64
        E 28 85 50 67
        E 1 86 50 66
        E 1 8d 3f 66
        E 1 84 30 63
        E 0 8c 3f 67
        E 1 98 51 65
        E 1 9d 41 64
        E 0 90 31 65
        E 1 9c 3f 67
        E 28 8a 51 64
        E 0 83 30 64
        E 1 8b 40 64
        E 1 8c 3f 67
        E 1 94 31 66
        E 1 97 52 64
        E 0 9b 40 64
        E 1 9c 41 65
        E 24 88 51 65
        E 1 8f 40 65
        E 0 82 30 65
        E 1 8b 40 64
        E 0 96 52 65
        E 1 9f 40 65
        E 0 93 31 67
        E 1 9b 42 64
        E 28 8e 41 63
        E 0 8f 40 65
        E 0 81 31 64
        E 0 87 52 64
        E 1 95 52 66
        E 0 9e 41 63
        E 1 9f 42 65
        E 1 92 32 64
        E 28 86 52 65
        E 0 8d 41 64
        E 1 8e 41 63
        E 0 80 31 65
        E 1 9a 52 67
        E 0 9d 41 64
        E 1 9e 42 66
        E 0 91 32 65
        E 30 85 52 66
        E 0 8d 41 64
        E 1 84 31 66
        E 1 8c 41 65
        E 0 98 53 64
        E 1 9d 42 67
        E 0 90 33 64
        E 1 9c 41 65
        E 28 8a 52 67
        E 0 83 31 67
        E 1 8b 42 64
        E 1 8c 41 65
        E 0 94 33 65
        E 1 97 53 65
        E 0 9b 42 64
        E 1 9c 43 64
        E 28 8f 42 65
        E 1 82 32 64
        E 1 8b 42 64
        E 0 9f 42 65
        E 1 93 33 66
        E 0 9b 43 65
        E 30 88 53 64
        E 1 8e 42 66
        E 0 8f 42 65
        E 1 81 32 65
        E 0 87 53 65
        E 1 95 24 64
        E 0 9a 54 64
        E 1 9e 42 66
        E 0 9f 44 64
        E 1 92 33 67
        E 28 8d 42 67
        E 1 8e 42 66
        E 0 80 33 64
        E 1 98 54 65
        E 0 9d 42 67
        E 1 9e 44 65
        E 0 91 34 64
        E 29 85 24 64
        E 1 8a 54 64
        E 0 8d 42 67
        E 1 84 33 65
        E 0 8c 43 64
        E 1 9d 44 66
        E 0 90 34 65
        E 1 97 25 64
        E 1 9c 43 64
        E 26 88 54 65
        E 0 83 33 66
        E 1 8b 43 65
        E 0 8c 43 64
        E 1 94 35 63
        E 0 9b 43 65
        E 1 9c 44 67
        E 30 8f 44 64
        E 0 82 33 67
        E 1 87 25 64
        E 0 8b 43 65
        E 1 95 25 66
        E 1 9f 44 64
        E 0 93 35 64
        E 1 9b 45 64
        E 27 8e 44 65
        E 0 8f 44 64
        E 1 81 34 64
        E 1 9e 44 65
        E 0 9f 45 65
        E 1 92 35 65
        E 27 85 25 66
        E 1 8d 44 66
        E 0 8e 44 65
        E 1 80 34 65
        E 0 98 26 64
        E 1 9d 44 66
        E 3 9e 46 64
        E 1 91 36 64
        E 29 8d 44 66
        E 0 84 35 63
        E 1 8c 44 67
        E 0 9d 46 65
        E 1 90 36 65
        E 0 94 35 63
        E 1 9c 44 67
        E 27 88 26 64
        E 0 83 35 64
        E 1 84 35 63
        E 1 8b 45 64
        E 0 8c 44 67
        E 1 96 27 64
        E 1 93 35 64
        E 0 94 36 66
        E 1 9b 45 64
        E 0 9c 46 66
        E 27 8f 45 65
        E 0 82 35 65
        E 1 83 35 64
        E 0 8b 45 64
        E 1 92 35 65
        E 1 93 36 67
        E 0 9b 46 67
        E 29 86 27 64
        E 1 8e 46 64
        E 1 81 36 64
        E 0 82 35 65
        E 1 9a 27 66
        E 1 9f 47 64
        E 0 91 36 64
        E 1 92 37 64
        E 28 8d 46 65
        E 1 80 36 65
        E 0 81 36 64
        E 1 9e 47 65
        E 0 90 36 65
        E 1 91 37 65
        E 28 8a 27 66
        E 1 80 36 65
        E 1 84 36 66
        E 0 8c 46 66
        E 1 9d 48 63
        E 0 90 38 64
        E 1 94 36 66
        E 0 97 28 64
        E 29 83 36 67
        E 1 84 36 66
        E 1 8b 46 67
        E 1 93 36 67
        E 1 94 38 65
        E 0 9c 48 64
        E 29 8f 47 64
        E 1 82 37 64
        E 0 83 36 67
        E 1 87 28 64
        E 0 95 29 63
        E 1 92 37 64
        E 0 93 38 66
        E 1 9b 48 65
        E 25 8e 47 65
        E 0 81 37 65
        E 1 82 37 64
        E 1 9a 29 64
        E 0 9f 49 64
        E 1 91 37 65
        E 0 92 38 67
        E 29 85 29 63
        E 0 8d 48 63
        E 1 80 38 64
        E 1 81 37 65
        E 1 98 29 65
        E 0 9e 48 64
        E 1 90 38 64
        E 0 91 39 64
        E 28 80 38 64
        E 1 84 38 65
        E 0 8c 48 64
        E 1 9d 49 66
        E 1 90 39 65
        E 0 94 38 65
        E 1 97 2a 64
        E 27 8a 29 64
        E 1 83 38 66
        E 0 84 38 65
        E 1 8b 48 65
        E 0 96 2a 65
        E 1 93 38 66
        E 0 94 3a 64
        E 1 9b 48 65
        E 0 9c 49 67
        E 31 88 29 65
        E 1 8f 49 64
        E 0 82 38 67
        E 1 83 38 66
        E 0 8b 48 65
        E 1 95 2a 66
        E 0 92 38 67
        E 1 93 3a 65
        E 0 9b 4a 64
        E 29 8e 48 64
        E 0 81 39 64
        E 0 82 38 67
        E 0 87 2a 64
        E 0 9a 2a 67
        E 0 9f 4a 65
        E 0 91 39 64
        E 1 92 3a 66
        E 27 86 2a 65
        E 1 8d 49 66
        E 1 80 39 65
        E 0 81 39 64
        E 1 98 2b 64
        E 0 9e 4b 64
        E 1 90 3b 64
        E 0 91 3a 67
        E 28 85 2a 66
        E 1 80 3b 64
        E 1 84 3a 64
        E 0 8c 49 67
        E 1 9d 4b 65
        E 1 90 3b 64
        E 0 94 3a 64
        E 1 97 2b 65
        E 30 8a 2a 67
        E 0 83 3a 65
        E 1 84 3a 64
        E 0 8b 4a 64
        E 1 96 2c 64
        E 1 93 3a 65
        E 0 94 3b 65
        E 1 9c 4b 66
        E 27 88 2b 64
        E 0 8f 4a 65
        E 1 82 3a 66
        E 0 83 3a 65
        E 1 95 2c 65
        E 1 92 3a 66
        E 0 93 3c 63
        E 0 9b 4b 67
        E 28 8e 4b 64
        E 1 81 3a 67
        E 0 82 3a 66
        E 1 87 2b 65
        E 1 9a 2c 66
        E 0 9f 4c 64
        E 1 91 3a 67
        E 1 92 3c 64
        E 29 86 2c 64
        E 1 8d 4b 65
        E 1 80 3b 64
        E 0 81 3a 67
        E 1 98 2c 67
        E 0 9e 4c 65
        E 0 90 3b 64
        E 1 91 3c 65
        E 28 85 2c 65
        E 0 80 3b 64
        E 0 84 3b 65
        E 0 8c 4b 66
        E 0 9d 4d 63
        E 0 90 3d 64
        E 0 94 3b 65
        E 1 97 2d 64
        E 28 8a 2c 66
        E 1 8f 4c 64
        E 0 83 3c 63
        E 1 84 3b 65
        E 0 8b 4b 67
        E 1 96 2d 65
        E 0 93 3c 63
        E 1 94 3d 65
        E 0 9c 4d 64
        E 31 88 2c 67
        E 0 8e 4c 65
        E 1 82 3c 64
        E 0 83 3c 63
        E 1 95 2e 64
        E 0 92 3c 64
        E 1 93 3d 66
        E 0 9b 4d 65
        E 27 8d 4d 63
        E 1 81 3c 65
        E 0 82 3c 64
        E 1 87 2d 64
        E 0 9a 2e 65
        E 1 9f 4e 64
        E 0 91 3c 65
        E 1 92 3d 67
        E 29 86 2d 65
        E 0 80 3d 64
        E 1 81 3c 65
        E 0 8c 4d 64
        E 1 98 2e 66
        E 0 9e 4e 65
        E 1 90 3d 64
        E 0 91 3e 64
        E 31 85 2e 64
        E 1 80 3d 64
        E 1 84 3d 65
        E 0 8b 4d 65
        E 1 9d 4e 66
        E 1 90 3e 65
        E 0 94 3d 65
        E 1 97 2e 67
        E 23 8f 4e 64
        E 0 83 3d 66
        E 0 84 3d 65
        E 1 96 2f 64
        E 0 93 3d 66
        E 1 94 3f 64
        E 0 9c 4e 67
        E 32 8a 2e 65
        E 1 8e 4e 65
        E 1 82 3d 67
        E 0 83 3d 66
        E 0 95 2f 65
        E 1 92 3d 67
        E 1 93 3f 65
        E 0 9b 4f 64
        E 29 88 2e 66
        E 0 8d 4e 66
        E 1 81 3e 64
        E 1 82 3d 67
        E 0 9a 30 63
        E 1 9f 4f 65
        E 0 91 3e 64
        E 1 92 3f 66
        E 25 80 3e 65
        E 1 81 3e 64
        E 0 87 2e 67
        E 1 8c 4e 67
        E 1 98 30 64
        E 0 9e 50 64
        E 1 90 3e 65
        E 1 91 3f 67
        E 30 86 2f 64
        E 1 80 3e 65
        E 0 84 3f 64
        E 1 8b 4f 64
        E 0 9d 50 65
        E 0 90 40 64
        E 1 94 3f 64
        E 0 97 30 65
        E 28 85 2f 65
        E 0 8f 4f 65
        E 1 83 3f 65
        E 0 84 3f 64
        E 1 96 31 64
        E 0 93 3f 65
        E 1 94 40 65
        E 0 9c 50 66
        E 28 8a 30 63
        E 0 8e 50 64
        E 1 82 3f 66
        E 1 83 3f 65
        E 0 95 31 65
        E 1 92 3f 66
        E 0 93 41 63
        E 1 9b 50 67
        E 27 88 30 64
        E 1 8d 50 65
        E 0 81 3f 67
        E 1 82 3f 66
        E 1 9a 31 66
        E 0 9f 51 64
        E 1 91 3f 67
        E 1 92 41 64
        E 29 80 40 64
        E 0 81 3f 67
        E 1 87 30 65
        E 0 8b 50 67
        E 1 8c 50 66
        E 0 98 31 67
        E 1 9e 51 65
        E 1 90 40 64
        E 1 91 41 65
        E 25 86 31 64
        E 0 8f 51 64
        E 1 80 40 64
        E 0 84 40 65
        E 1 9d 52 64
        E 0 90 42 64
        E 1 94 40 65
        E 0 97 32 64
        E 31 85 31 65
        E 1 8e 51 65
        E 0 83 41 63
        E 1 84 40 65
        E 0 96 32 65
        E 1 93 41 63
        E 1 94 42 65
        E 0 9c 52 65
        E 29 8a 31 66
        E 0 8d 52 64
        E 1 82 41 64
        E 0 83 41 63
        E 1 95 33 64
        E 0 92 41 64
        E 1 93 42 66
        E 0 9b 52 66
        E 29 88 31 67
        E 0 81 41 65
        E 1 82 41 64
        E 0 8c 52 65
        E 1 9a 33 65
        E 0 9f 52 67
        E 1 91 41 65
        E 0 92 42 67
        E 28 80 42 64
        E 0 81 41 65
        E 1 87 32 64
        E 0 8b 52 66
        E 1 98 33 66
        E 0 9e 53 64
        E 1 90 42 64
        E 0 91 43 64
        E 29 86 32 65
        E 1 8f 52 67
        E 0 80 42 64
        E 1 84 42 65
        E 0 9d 53 65
        E 1 90 43 65
        E 0 94 42 65
        E 1 97 33 67
        E 25 85 33 64
        E 1 83 42 66
        E 1 84 42 65
        E 0 96 34 64
        E 0 93 42 66
        E 1 94 44 64
        E 31 8a 33 65
        E 1 8d 53 65
        E 0 8e 53 64
        E 1 82 42 67
        E 0 83 42 66
        E 1 95 34 65
        E 0 9f 54 64
        E 0 92 42 67
        E 1 93 44 65
        E 0 9b 24 64
        E 29 88 33 66
        E 0 81 43 64
        E 1 82 42 67
        E 0 9a 35 63
        E 1 9e 54 65
        E 1 91 43 64
        E 1 92 44 66
        E 27 8f 54 64
        E 0 80 43 65
        E 1 81 43 64
        E 0 87 33 67
        E 1 8b 24 64
        E 1 98 35 64
        E 0 9d 25 64
        E 0 90 43 65
        E 1 91 44 67
        E 29 86 34 64
        E 1 8e 54 65
        E 1 80 43 65
        E 1 84 44 64
        E 0 90 45 64
        E 0 94 44 64
        E 0 97 35 65
        E 29 85 34 65
        E 0 8d 25 64
        E 1 83 44 65
        E 1 84 44 64
        E 0 96 36 64
        E 1 93 44 65
        E 0 94 45 65
        E 1 9b 25 66
        E 27 8a 35 63
        E 0 82 44 66
        E 1 83 44 65
        E 0 95 36 65
        E 1 9a 35 63
        E 0 92 44 66
        E 1 93 46 64
        E 29 88 35 64
        E 0 8a 35 63
        E 1 81 44 67
        E 0 82 44 66
        E 1 8b 25 66
        E 1 98 35 64
        E 0 9a 36 66
        E 1 9e 26 64
        E 0 91 44 67
        E 1 92 46 65
        E 28 88 35 64
        E 1 80 45 64
        E 0 81 44 67
        E 1 87 35 65
        E 1 98 36 67
        E 0 90 45 64
        E 0 91 46 66
        E 1 97 35 65
        E 27 86 36 64
        E 0 8e 26 64
        E 1 80 45 64
        E 0 84 45 65
        E 1 87 35 65
        E 0 96 36 64
        E 1 90 46 67
        E 0 97 37 64
        E 1 9c 27 64
        E 29 85 36 65
        E 0 86 36 64
        E 1 83 46 64
        E 0 95 36 65
        E 1 96 37 65
        E 1 94 47 64
        E 29 85 36 65
        E 1 8a 36 66
        E 0 82 46 65
        E 1 8c 27 64
        E 0 95 38 64
        E 0 9a 36 66
        E 0 9f 27 66
        E 1 93 47 65
        E 28 88 36 67
        E 0 8a 36 66
        E 1 81 46 66
        E 0 98 36 67
        E 1 9a 38 65
        E 0 92 48 63
        E 30 88 36 67
        E 1 8f 27 66
        E 0 80 46 67
        E 1 87 37 64
        E 1 98 38 66
        E 0 9d 28 64
        E 1 91 48 64
        E 0 97 37 64
        E 31 86 37 65
        E 0 84 47 64
        E 1 87 37 64
        E 1 96 37 65
        E 0 90 48 65
        E 1 97 38 67
        E 27 85 38 64
        E 1 86 37 65
        E 0 8d 28 64
        E 1 83 47 65
        E 0 95 38 64
        E 1 96 39 64
        E 1 94 49 64
        E 0 9b 29 63
        E 29 85 38 64
        E 1 8a 38 65
        E 1 82 48 63
        E 0 95 39 65
        E 1 9a 38 65
        E 0 9f 29 64
        E 1 93 48 64
        E 27 88 38 66
        E 1 8a 38 65
        E 0 81 48 64
        E 1 8b 29 63
        E 0 98 38 66
        E 1 9a 3a 64
        E 1 9e 29 65
        E 0 92 49 66
        E 26 88 38 66
        E 1 80 48 65
        E 1 87 38 67
        E 0 98 3a 65
        E 1 9d 2a 64
        E 0 90 48 65
        E 1 91 49 67
        E 1 97 38 67
        E 29 86 39 64
        E 0 8f 29 64
        E 1 80 48 65
        E 0 84 49 64
        E 0 87 38 67
        E 2 96 39 64
        E 0 90 4a 64
        E 1 97 3a 66
        E 1 9c 2a 65
        E 28 85 39 65
        E 1 86 39 64
        E 1 8e 29 65
        E 1 83 48 64
        E 0 95 3b 64
        E 1 96 3a 67
        E 0 94 4a 65
        E 1 9b 2a 66
        E 26 85 3b 64
        E 1 8a 3a 64
        E 0 8d 2a 64
        E 1 82 49 66
        E 1 95 3b 64
        E 1 9a 3a 64
        E 0 9f 2a 67
        E 1 93 4b 64
        E 27 88 3a 65
        E 1 8a 3a 64
        E 0 81 49 67
        E 1 8c 2a 65
        E 0 98 3a 65
        E 1 9a 3b 65
        E 1 9e 2b 64
        E 0 92 4b 65
        E 30 88 3a 65
        E 1 80 4a 64
        E 1 87 3a 66
        E 0 8b 2a 66
        E 1 98 3c 63
        E 0 9d 2b 65
        E 1 91 4b 66
        E 0 97 3a 66
        E 24 86 3a 67
        E 0 8f 2a 67
        E 1 84 4a 65
        E 1 87 3a 66
        E 0 96 3a 67
        E 1 90 4b 67
        E 1 97 3c 64
        E 0 9c 2c 64
        E 28 85 3b 64
        E 0 86 3a 67
        E 2 8e 2b 64
        E 0 83 4b 64
        E 1 95 3b 64
        E 0 96 3c 65
        E 1 94 4c 64
        E 0 9b 2c 65
        E 29 85 3b 64
        E 1 8a 3b 65
        E 0 8d 2b 65
        E 1 82 4b 65
        E 1 95 3d 64
        E 0 9a 3b 65
        E 0 9f 2c 66
        E 1 93 4c 65
        E 28 88 3c 63
        E 1 8a 3b 65
        E 0 81 4b 66
        E 1 8c 2c 64
        E 1 98 3c 63
        E 0 9a 3d 65
        E 0 9e 2c 67
        E 1 92 4d 63
        E 29 88 3c 63
        E 1 80 4b 67
        E 1 84 4c 64
        E 0 87 3c 64
        E 1 8b 2c 65
        E 1 98 3d 66
        E 1 9d 2d 64
        E 0 91 4d 64
        E 0 97 3c 64
        E 27 86 3c 65
        E 1 8f 2c 66
        E 0 83 4c 65
        E 0 87 3c 64
        E 1 96 3c 65
        E 0 90 4d 65
        E 1 97 3d 67
        E 1 9c 2d 65
        E 26 85 3d 64
        E 1 86 3c 65
        E 0 8e 2c 67
        E 1 82 4d 63
        E 0 95 3d 64
        E 1 96 3e 64
        E 0 94 4e 64
        E 1 9b 2e 64
        E 29 85 3d 64
        E 0 8a 3d 65
        E 1 8d 2d 64
        E 0 81 4d 64
        E 1 95 3e 65
        E 0 9a 3d 65
        E 1 9f 2e 65
        E 0 93 4e 65
        E 32 88 3d 66
        E 0 8a 3d 65
        E 1 80 4d 65
        E 0 8c 2d 65
        E 1 98 3d 66
        E 0 9a 3f 64
        E 0 9e 2e 66
        E 1 92 4e 66
        E 27 88 3d 66
        E 1 84 4e 64
        E 0 87 3d 67
        E 1 8b 2e 64
        E 1 98 3f 65
        E 0 9d 2e 67
        E 1 91 4e 67
        E 0 97 3d 67
        E 27 86 3e 64
        E 1 83 4e 65
        E 1 87 3d 67
        E 0 96 3e 64
        E 0 90 4f 64
        E 1 97 3f 66
        E 1 9c 2f 64
        E 31 85 3e 65
        E 1 86 3e 64
        E 0 8f 2e 65
        E 1 82 4e 66
        E 0 95 3e 65
        E 1 96 3f 67
        E 1 94 4f 65
        E 0 9b 2f 65
        E 27 85 3e 65
        E 0 8a 3f 64
        E 1 8e 2e 66
        E 0 81 4e 67
        E 1 95 40 64
        E 0 9a 3f 64
        E 1 9f 30 63
        E 1 93 50 64
        E 28 88 3f 65
        E 0 8a 3f 64
        E 1 8d 2e 67
        E 0 80 4f 64
        E 1 98 3f 65
        E 0 9a 40 65
        E 1 9e 30 64
        E 1 92 50 65
        E 27 88 3f 65
        E 0 84 4f 65
        E 1 87 3f 66
        E 0 8c 2f 64
        E 1 98 41 63
        E 0 9d 30 65
        E 1 91 50 66
        E 1 97 3f 66
        E 27 86 3f 67
        E 0 83 50 64
        E 1 87 3f 66
        E 0 8b 2f 65
        E 1 96 3f 67
        E 0 90 50 67
        E 1 97 41 64
        E 0 9c 31 64
        E 29 85 40 64
        E 0 86 3f 67
        E 1 8f 30 63
        E 1 82 50 65
        E 1 95 40 64
        E 0 96 41 65
        E 1 94 51 64
        E 0 9b 31 65
        E 31 85 40 64
        E 1 8a 40 65
        E 0 8e 30 64
        E 1 80 50 67
        E 0 81 50 66
        E 1 95 42 64
        E 0 9a 40 65
        E 1 9f 31 66
        E 0 93 51 65
        E 24 88 41 63
        E 0 8a 40 65
        E 0 8d 30 65
        E 1 84 51 64
        E 0 98 41 63
        E 1 9a 42 65
        E 0 9e 31 67
        E 1 92 52 64
        E 29 88 41 63
        E 0 83 51 65
        E 1 87 41 64
        E 1 8c 31 64
        E 1 98 42 66
        E 3 9d 32 64
        E 1 91 52 65
        E 0 97 41 64
        E 28 86 41 65
        E 0 82 52 64
        E 1 87 41 64
        E 0 8b 31 65
        E 1 96 41 65
        E 1 90 52 66
        E 1 97 42 67
        E 1 9c 32 65
        E 27 85 42 64
        E 0 86 41 65
        E 1 8f 31 66
        E 1 81 52 65
        E 0 95 42 64
        E 1 96 43 64
        E 0 94 52 67
        E 0 9b 33 64
        E 28 85 42 64
        E 1 8a 42 65
        E 1 8e 31 67
        E 1 80 52 66
        E 0 95 43 65
        E 1 9a 42 65
        E 1 9f 33 65
        E 0 93 53 64
        E 28 88 42 66
        E 0 8a 42 65
        E 1 8d 32 64
        E 0 84 52 67
        E 1 98 42 66
        E 1 9a 44 64
        E 1 9e 33 66
        E 0 92 53 65
        E 26 88 42 66
        E 1 87 42 67
        E 1 8c 32 65
        E 0 98 44 65
        E 1 9d 33 67
        E 0 97 42 67
        E 29 85 43 65
        E 1 86 43 64
        E 0 88 44 65
        E 1 8a 44 64
        E 0 8d 33 67
        E 1 8e 33 66
        E 1 8f 33 65
        E 0 82 53 65
        E 1 83 53 64
        E 0 87 42 67
        E 1 8b 33 64
        E 1 95 43 65
        E 0 96 43 64
        E 1 98 44 65
        E 0 9a 44 64
        E 1 9d 33 67
        E 1 9e 33 66
        E 0 9f 33 65
        E 1 90 24 64
        E 0 94 54 64
        E 1 97 44 66
        E 0 9c 34 64
        E 20 86 43 64
        E 1 8f 33 65
        E 0 96 44 67
        E 1 93 54 65
        E 0 9b 34 65
        E 29 85 43 65
        E 0 8e 33 66
        E 1 80 24 64
        E 0 84 54 64
        E 1 95 45 64
        E 0 9f 35 63
        E 1 92 25 64
        E 29 8a 44 64
        E 1 8d 33 67
        E 0 83 54 65
        E 1 9a 45 65
        E 0 9e 35 64
        E 33 88 44 65
        E 1 82 25 64
        E 0 87 44 66
        E 1 8c 34 64
        E 0 98 46 64
        E 0 9d 35 65
        E 1 90 25 66
        E 1 97 44 66
        E 27 86 44 67
        E 0 87 44 66
        E 1 8b 34 65
        E 0 96 44 67
        E 1 97 46 65
        E 0 9c 36 64
        E 28 85 45 64
        E 1 86 44 67
        E 0 8f 35 63
        E 1 80 25 66
        E 0 95 45 64
        E 1 96 46 66
        E 0 9f 35 63
        E 1 93 26 64
        E 0 9b 36 65
        E 29 85 45 64
        E 1 8a 45 65
        E 0 8e 35 64
        E 0 8f 35 63
        E 1 95 46 67
        E 1 9e 35 64
        E 0 9f 36 66
        E 28 88 46 64
        E 0 8d 35 65
        E 1 8e 35 64
        E 0 83 26 64
        E 3 9a 47 64
        E 0 9d 35 65
        E 1 9e 36 67
        E 0 91 27 64
        E 29 8d 35 65
        E 0 87 46 65
        E 1 8c 36 64
        E 0 98 47 65
        E 1 9d 37 64
        E 0 9c 36 64
        E 32 86 46 66
        E 0 81 27 64
        E 1 8b 36 65
        E 0 8c 36 64
        E 1 94 27 66
        E 1 97 48 63
        E 0 9b 36 65
        E 1 9c 37 65
        E 27 85 46 67
        E 0 8f 36 66
        E 1 8b 36 65
        E 0 96 48 64
        E 1 9f 36 66
        E 0 9b 38 64
        E 30 8a 47 64
        E 1 8e 36 67
        E 0 8f 36 66
        E 1 84 27 66
        E 0 95 48 65
        E 1 9e 36 67
        E 1 9f 38 65
        E 0 92 28 64
        E 27 88 47 65
        E 0 8d 37 64
        E 1 8e 36 67
        E 0 9a 49 64
        E 1 9d 37 64
        E 0 9e 38 66
        E 29 8d 37 64
        E 1 82 28 64
        E 1 87 48 63
        E 0 8c 37 65
        E 1 98 48 64
        E 0 9d 38 67
        E 0 90 29 63
        E 1 9c 37 65
        E 29 86 48 64
        E 1 8b 38 64
        E 0 8c 37 65
        E 1 94 29 64
        E 1 97 49 66
        E 0 9b 38 64
        E 1 9c 39 64
        E 29 85 48 65
        E 0 8f 38 65
        E 1 80 29 63
        E 0 8b 38 64
        E 1 95 48 65
        E 1 96 49 67
        E 0 9f 38 65
        E 1 93 29 65
        E 0 9b 39 65
        E 27 85 48 65
        E 1 8a 49 64
        E 0 8e 38 66
        E 1 8f 38 65
        E 0 95 4a 64
        E 1 9e 38 66
        E 0 9f 3a 64
        E 1 92 2a 64
        E 27 88 48 64
        E 0 8d 38 67
        E 1 8e 38 66
        E 1 84 29 64
        E 0 9a 4a 65
        E 1 9d 38 67
        E 1 9e 3a 65
        E 1 91 2a 65
        E 28 8d 38 67
        E 1 83 29 65
        E 1 87 49 66
        E 1 8c 39 64
        E 0 98 4b 64
        E 1 9d 3a 66
        E 0 90 2a 66
        E 1 9c 39 64
        E 27 86 49 67
        E 0 82 2a 64
        E 1 8b 39 65
        E 0 8c 39 64
        E 1 94 2a 67
        E 0 97 4b 65
        E 1 9b 3b 64
        E 1 9c 3a 67
        E 28 85 4a 64
        E 0 8f 3a 64
        E 1 81 2a 65
        E 0 8b 3b 64
        E 1 96 4b 66
        E 0 9f 3a 64
        E 1 93 2b 64
        E 1 9b 3b 64
        E 28 8a 4a 65
        E 1 8e 3a 65
        E 1 8f 3a 64
        E 0 80 2a 66
        E 1 95 4b 67
        E 0 9e 3a 65
        E 0 9f 3b 65
        E 1 92 2b 65
        E 27 88 4b 64
        E 1 8d 3a 66
        E 1 8e 3a 65
        E 0 84 2a 67
        E 1 9a 4c 64
        E 0 9d 3a 66
        E 1 9e 3c 63
        E 0 91 2c 64
        E 29 8d 3a 66
        E 1 83 2b 64
        E 0 87 4b 65
        E 1 8c 3a 67
        E 0 98 4c 65
        E 1 9d 3c 64
        E 1 90 2c 65
        E 0 9c 3a 67
        E 27 86 4b 66
        E 0 82 2b 65
        E 1 8b 3b 64
        E 1 8c 3a 67
        E 0 94 2c 66
        E 1 97 4d 63
        E 0 9b 3b 64
        E 1 9c 3c 65
        E 27 85 4b 67
        E 1 8a 4c 64
        E 0 8f 3b 65
        E 1 81 2c 64
        E 0 8b 3b 64
        E 1 96 4d 64
        E 0 9f 3b 65
        E 1 93 2c 67
        E 0 9b 3d 64
        E 30 88 4c 65
        E 0 8e 3c 63
        E 1 8f 3b 65
        E 0 80 2c 65
        E 1 95 4d 65
        E 0 9e 3c 63
        E 1 9f 3d 65
        E 1 92 2d 64
        E 30 8d 3c 64
        E 0 8e 3c 63
        E 1 84 2c 66
        E 0 87 4d 63
        E 1 9a 4e 64
        E 0 9d 3c 64
        E 1 9e 3d 66
        E 0 91 2d 65
        E 25 86 4d 64
        E 1 8d 3c 64
        E 0 83 2c 67
        E 1 8c 3c 65
        E 1 98 4e 65
        E 1 9d 3d 67
        E 0 90 2e 64
        E 1 9c 3c 65
        E 29 85 4d 65
        E 0 82 2d 64
        E 0 8b 3d 64
        E 1 8c 3c 65
        E 1 94 2e 65
        E 0 97 4e 66
        E 1 9b 3d 64
        E 0 9c 3e 64
        E 29 8a 4e 64
        E 1 8f 3d 65
        E 0 81 2d 65
        E 1 8b 3d 64
        E 0 96 4e 67
        E 1 9f 3d 65
        E 1 93 2e 66
        E 0 9b 3e 65
        E 27 88 4e 65
        E 1 8e 3d 66
        E 1 8f 3d 65
        E 0 80 2e 64
        E 1 95 4f 64
        E 0 9e 3d 66
        E 0 9f 3f 64
        E 1 92 2e 67
        E 29 8d 3d 67
        E 0 8e 3d 66
        E 1 87 4e 66
        E 1 9a 4f 65
        E 0 9d 3d 67
        E 1 9e 3f 65
        E 0 91 2f 64
        E 29 86 4e 67
        E 1 8d 3d 67
        E 1 84 2e 65
        E 0 8c 3e 64
        E 0 98 50 64
        E 1 9d 3f 66
        E 1 90 2f 65
        E 1 9c 3e 64
        E 26 85 4f 64
        E 1 83 2e 66
        E 0 8b 3e 65
        E 1 8c 3e 64
        E 0 94 30 63
        E 1 97 50 65
        E 0 9b 3e 65
        E 1 9c 3f 67
        E 29 8a 4f 65
        E 1 8f 3f 64
        E 0 82 2e 67
        E 1 8b 3e 65
        E 0 96 50 66
        E 1 9f 3f 64
        E 0 93 30 64
        E 1 9b 40 64
        E 29 88 50 64
        E 1 8e 3f 65
        E 0 8f 3f 64
        E 1 81 2f 64
        E 1 95 50 67
        E 0 9e 3f 65
        E 1 9f 40 65
        E 0 92 30 65
        E 26 8d 3f 66
        E 1 8e 3f 65
        E 0 80 2f 65
        E 1 87 50 65
        E 0 9a 51 64
        E 0 9d 3f 66
        E 1 9e 41 63
        E 1 91 31 64
        E 28 85 50 67
        E 0 86 50 66
        E 1 8d 3f 66
        E 0 84 30 63
        E 1 8c 3f 67
        E 0 98 51 65
        E 1 9d 41 64
        E 0 90 31 65
        E 1 9c 3f 67
        E 28 8a 51 64
        E 1 83 30 64
        E 0 8b 40 64
        E 1 8c 3f 67
        E 0 94 31 66
        E 1 97 52 64
        E 0 9b 40 64
        E 1 9c 41 65
        E 27 88 51 65
        E 1 8f 40 65
        E 1 82 30 65
        E 1 8b 40 64
        E 0 96 52 65
        E 1 9f 40 65
        E 0 93 31 67
        E 1 9b 42 64
        E 29 8e 41 63
        E 1 8f 40 65
        E 1 81 31 64
        E 0 87 52 64
        E 1 95 52 66
        E 1 9e 41 63
        E 1 9f 42 65
        E 0 92 32 64
        E 27 86 52 65
        E 1 8d 41 64
        E 1 8e 41 63
        E 0 80 31 65
        E 1 9a 52 67
        E 0 9d 41 64
        E 1 9e 42 66
        E 0 91 32 65
        E 27 85 52 66
        E 1 8d 41 64
        E 0 84 31 66
        E 1 8c 41 65
        E 0 98 53 64
        E 1 9d 42 67
        E 1 90 33 64
        E 0 9c 41 65
        E 28 8a 52 67
        E 1 83 31 67
        E 0 8b 42 64
        E 0 8c 41 65
        E 1 94 33 65
        E 0 97 53 65
        E 1 9b 42 64
        E 0 9c 43 64
        E 31 8f 42 65
        E 1 82 32 64
        E 1 8b 42 64
        E 0 9f 42 65
        E 1 93 33 66
        E 0 9b 43 65
        E 28 88 53 64
        E 1 8e 42 66
        E 0 8f 42 65
        E 0 81 32 65
        E 1 87 53 65
        E 0 95 24 64
        E 0 9a 54 64
        E 1 9e 42 66
        E 0 9f 44 64
        E 0 92 33 67
        E 28 8d 42 67
        E 1 8e 42 66
        E 0 80 33 64
        E 1 98 54 65
        E 1 9d 42 67
        E 0 9e 44 65
        E 1 91 34 64
        E 31 85 24 64
        E 0 8a 54 64
        E 1 8d 42 67
        E 1 84 33 65
        E 0 8c 43 64
        E 1 9d 44 66
        E 0 90 34 65
        E 1 97 25 64
        E 0 9c 43 64
        E 25 88 54 65
        E 0 83 33 66
        E 1 8b 43 65
        E 0 8c 43 64
        E 1 94 35 63
        E 0 9b 43 65
        E 0 9c 44 67
        E 30 8f 44 64
        E 0 82 33 67
        E 1 87 25 64
        E 0 8b 43 65
        E 1 95 25 66
        E 1 9f 44 64
        E 1 93 35 64
        E 0 9b 45 64
        E 27 8e 44 65
        E 1 8f 44 64
        E 0 81 34 64
        E 1 9e 44 65
        E 1 9f 45 65
        E 0 92 35 65
        E 31 85 25 66
        E 1 8d 44 66
        E 1 8e 44 65
        E 0 80 34 65
        E 1 98 26 64
        E 1 9d 44 66
        E 0 9e 46 64
        E 1 91 36 64
        E 27 8d 44 66
        E 0 84 35 63
        E 1 8c 44 67
        E 0 9d 46 65
        E 1 90 36 65
        E 0 94 35 63
        E 1 9c 44 67
        E 29 88 26 64
        E 0 83 35 64
        E 1 84 35 63
        E 1 8b 45 64
        E 0 8c 44 67
        E 1 96 27 64
        E 0 93 35 64
        E 1 94 36 66
        E 0 9b 45 64
        E 1 9c 46 66
        E 28 8f 45 65
        E 1 82 35 65
        E 0 83 35 64
        E 0 8b 45 64
        E 1 92 35 65
        E 0 93 36 67
        E 1 9b 46 67
        E 26 86 27 64
        E 1 8e 46 64
        E 1 81 36 64
        E 0 82 35 65
        E 1 9a 27 66
        E 0 9f 47 64
        E 1 91 36 64
        E 1 92 37 64
        E 28 8d 46 65
        E 0 80 36 65
        E 1 81 36 64
        E 1 9e 47 65
        E 0 90 36 65
        E 1 91 37 65
        E 29 8a 27 66
        E 0 80 36 65
        E 1 84 36 66
        E 1 8c 46 66
        E 0 9d 48 63
        E 1 90 38 64
        E 0 94 36 66
        E 1 97 28 64
        E 30 83 36 67
        E 1 84 36 66
        E 1 8b 46 67
        E 1 93 36 67
        E 1 94 38 65
        E 0 9c 48 64
        E 29 8f 47 64
        E 1 82 37 64
        E 0 83 36 67
        E 1 87 28 64
        E 1 95 29 63
        E 0 92 37 64
        E 1 93 38 66
        E 0 9b 48 65
        E 27 8e 47 65
        E 0 81 37 65
        E 1 82 37 64
        E 1 9a 29 64
        E 1 9f 49 64
        E 0 91 37 65
        E 1 92 38 67
        E 27 85 29 63
        E 0 8d 48 63
        E 1 80 38 64
        E 1 81 37 65
        E 0 98 29 65
        E 1 9e 48 64
        E 0 90 38 64
        E 1 91 39 64
        E 29 80 38 64
        E 1 84 38 65
        E 0 8c 48 64
        E 1 9d 49 66
        E 1 90 39 65
        E 1 94 38 65
        E 0 97 2a 64
        E 26 8a 29 64
        E 1 83 38 66
        E 0 84 38 65
        E 1 8b 48 65
        E 0 96 2a 65
        E 1 93 38 66
        E 0 94 3a 64
        E 1 9b 48 65
        E 1 9c 49 67
        E 28 88 29 65
        E 1 8f 49 64
        E 0 82 38 67
        E 1 83 38 66
        E 0 8b 48 65
        E 1 95 2a 66
        E 0 92 38 67
        E 1 93 3a 65
        E 0 9b 4a 64
        E 29 8e 48 64
        E 0 81 39 64
        E 1 82 38 67
        E 0 87 2a 64
        E 1 9a 2a 67
        E 1 9f 4a 65
        E 0 91 39 64
        E 1 92 3a 66
        E 29 86 2a 65
        E 0 8d 49 66
        E 1 80 39 65
        E 0 81 39 64
        E 1 98 2b 64
        E 0 9e 4b 64
        E 1 90 3b 64
        E 0 91 3a 67
        E 29 85 2a 66
        E 0 80 3b 64
        E 1 84 3a 64
        E 0 8c 49 67
        E 1 9d 4b 65
        E 0 90 3b 64
        E 1 94 3a 64
        E 0 97 2b 65
        E 25 8a 2a 67
        E 1 83 3a 65
        E 0 84 3a 64
        E 0 8b 4a 64
        E 1 96 2c 64
        E 0 93 3a 65
        E 1 94 3b 65
        E 0 9c 4b 66
        E 31 88 2b 64
        E 0 8f 4a 65
        E 1 82 3a 66
        E 1 83 3a 65
        E 0 95 2c 65
        E 1 92 3a 66
        E 0 93 3c 63
        E 1 9b 4b 67
        E 28 8e 4b 64
        E 1 81 3a 67
        E 1 82 3a 66
        E 0 87 2b 65
        E 1 9a 2c 66
        E 2 9f 4c 64
        E 0 91 3a 67
        E 1 92 3c 64
        E 28 86 2c 64
        E 0 8d 4b 65
        E 1 80 3b 64
        E 0 81 3a 67
        E 1 98 2c 67
        E 1 9e 4c 65
        E 0 90 3b 64
        E 1 91 3c 65
        E 26 85 2c 65
        E 0 80 3b 64
        E 1 84 3b 65
        E 0 8c 4b 66
        E 1 9d 4d 63
        E 0 90 3d 64
        E 1 94 3b 65
        E 0 97 2d 64
        E 28 8a 2c 66
        E 1 8f 4c 64
        E 0 83 3c 63
        E 1 84 3b 65
        E 0 8b 4b 67
        E 1 96 2d 65
        E 0 93 3c 63
        E 1 94 3d 65
        E 0 9c 4d 64
        E 28 88 2c 67
        E 1 8e 4c 65
        E 1 82 3c 64
        E 0 83 3c 63
        E 1 95 2e 64
        E 0 92 3c 64
        E 1 93 3d 66
        E 0 9b 4d 65
        E 29 8d 4d 63
        E 0 81 3c 65
        E 1 82 3c 64
        E 0 87 2d 64
        E 1 9a 2e 65
        E 1 9f 4e 64
        E 0 91 3c 65
        E 1 92 3d 67
        E 28 86 2d 65
        E 1 80 3d 64
        E 0 81 3c 65
        E 1 8c 4d 64
        E 0 98 2e 66
        E 1 9e 4e 65
        E 1 90 3d 64
        E 0 91 3e 64
        E 28 85 2e 64
        E 1 80 3d 64
        E 2 84 3d 65
        E 1 8b 4d 65
        E 0 9d 4e 66
        E 1 90 3e 65
        E 0 94 3d 65
        E 1 97 2e 67
        E 27 8f 4e 64
        E 0 83 3d 66
        E 1 84 3d 65
        E 0 96 2f 64
        E 1 93 3d 66
        E 0 94 3f 64
        E 1 9c 4e 67
        E 27 8a 2e 65
        E 0 8e 4e 65
        E 1 82 3d 67
        E 0 83 3d 66
        E 1 95 2f 65
        E 1 92 3d 67
        E 0 93 3f 65
        E 0 9b 4f 64
        E 30 88 2e 66
        E 0 8d 4e 66
        E 1 81 3e 64
        E 0 82 3d 67
        E 1 9a 30 63
        E 0 9f 4f 65
        E 1 91 3e 64
        E 0 92 3f 66
        E 28 80 3e 65
        E 0 81 3e 64
        E 1 87 2e 67
        E 0 8c 4e 67
        E 1 98 30 64
        E 0 9e 50 64
        E 1 90 3e 65
        E 0 91 3f 67
        E 30 86 2f 64
        E 0 80 3e 65
        E 0 84 3f 64
        E 1 8b 4f 64
        E 1 9d 50 65
        E 0 90 40 64
        E 1 94 3f 64
        E 0 97 30 65
        E 29 85 2f 65
        E 0 8f 4f 65
        E 1 83 3f 65
        E 0 84 3f 64
        E 1 96 31 64
        E 0 93 3f 65
        E 1 94 40 65
        E 1 9c 50 66
        E 27 8a 30 63
        E 1 8e 50 64
        E 0 82 3f 66
        E 1 83 3f 65
        E 1 95 31 65
        E 1 92 3f 66
        E 0 93 41 63
        E 1 9b 50 67
        E 28 88 30 64
        E 1 8d 50 65
        E 0 81 3f 67
        E 1 82 3f 66
        E 0 9a 31 66
        E 1 9f 51 64
        E 0 91 3f 67
        E 1 92 41 64
        E 29 80 40 64
        E 0 81 3f 67
        E 1 87 30 65
        E 1 8b 50 67
        E 0 8c 50 66
        E 1 98 31 67
        E 1 9e 51 65
        E 0 90 40 64
        E 1 91 41 65
        E 25 86 31 64
        E 1 8f 51 64
        E 0 80 40 64
        E 1 84 40 65
        E 0 9d 52 64
        E 1 90 42 64
        E 0 94 40 65
        E 1 97 32 64
        E 29 85 31 65
        E 1 8e 51 65
        E 0 83 41 63
        E 1 84 40 65
        E 0 96 32 65
        E 1 93 41 63
        E 1 94 42 65
        E 0 9c 52 65
        E 28 8a 31 66
        E 1 8d 52 64
        E 0 82 41 64
        E 1 83 41 63
        E 0 95 33 64
        E 1 92 41 64
        E 0 93 42 66
        E 1 9b 52 66
        E 26 88 31 67
        E 0 81 41 65
        E 1 82 41 64
        E 0 8c 52 65
        E 1 9a 33 65
        E 0 9f 52 67
        E 1 91 41 65
        E 0 92 42 67
        E 32 80 42 64
        E 0 81 41 65
        E 1 87 32 64
        E 1 8b 52 66
        E 0 98 33 66
        E 1 9e 53 64
        E 0 90 42 64
        E 1 91 43 64
        E 28 86 32 65
        E 1 8f 52 67
        E 1 80 42 64
        E 0 84 42 65
        E 1 9d 53 65
        E 0 90 43 65
        E 1 94 42 65
        E 0 97 33 67
        E 26 85 33 64
        E 1 83 42 66
        E 0 84 42 65
        E 1 96 34 64
        E 1 93 42 66
        E 0 94 44 64
        E 28 8a 33 65
        E 0 8d 53 65
        E 1 8e 53 64
        E 1 82 42 67
        E 0 83 42 66
        E 1 95 34 65
        E 0 9f 54 64
        E 1 92 42 67
        E 1 93 44 65
        E 0 9b 24 64
        E 30 88 33 66
        E 1 81 43 64
        E 0 82 42 67
        E 1 9a 35 63
        E 0 9e 54 65
        E 1 91 43 64
        E 1 92 44 66
        E 25 8f 54 64
        E 1 80 43 65
        E 0 81 43 64
        E 1 87 33 67
        E 0 8b 24 64
        E 1 98 35 64
        E 1 9d 25 64
        E 0 90 43 65
        E 1 91 44 67
        E 28 86 34 64
        E 1 8e 54 65
        E 1 80 43 65
        E 0 84 44 64
        E 1 90 45 64
        E 1 94 44 64
        E 0 97 35 65
        E 30 85 34 65
        E 0 8d 25 64
        E 1 83 44 65
        E 0 84 44 64
        E 1 96 36 64
        E 1 93 44 65
        E 0 94 45 65
        E 0 9b 25 66
        E 27 8a 35 63
        E 1 82 44 66
        E 0 83 44 65
        E 1 95 36 65
        E 0 9a 35 63
        E 1 92 44 66
        E 0 93 46 64
        E 29 88 35 64
        E 1 8a 35 63
        E 0 81 44 67
        E 1 82 44 66
        E 0 8b 25 66
        E 1 98 35 64
        E 0 9a 36 66
        E 0 9e 26 64
        E 1 91 44 67
        E 1 92 46 65
        E 29 88 35 64
        E 1 80 45 64
        E 0 81 44 67
        E 1 87 35 65
        E 1 98 36 67
        E 0 90 45 64
        E 1 91 46 66
        E 1 97 35 65
        E 26 86 36 64
        E 0 8e 26 64
        E 1 80 45 64
        E 1 84 45 65
        E 0 87 35 65
        E 1 96 36 64
        E 0 90 46 67
        E 1 97 37 64
        E 1 9c 27 64
        E 28 85 36 65
        E 0 86 36 64
        E 1 83 46 64
        E 1 95 36 65
        E 1 96 37 65
        E 1 94 47 64
        E 28 85 36 65
        E 1 8a 36 66
        E 1 82 46 65
        E 0 8c 27 64
        E 1 95 38 64
        E 1 9a 36 66
        E 0 9f 27 66
        E 1 93 47 65
        E 25 88 36 67
        E 0 8a 36 66
        E 0 81 46 66
        E 0 98 36 67
        E 0 9a 38 65
        E 0 92 48 63
        E 32 88 36 67
        E 0 8f 27 66
        E 1 80 46 67
        E 0 87 37 64
        E 1 98 38 66
        E 0 9d 28 64
        E 1 91 48 64
        E 0 97 37 64
        E 31 86 37 65
        E 1 84 47 64
        E 0 87 37 64
        E 1 96 37 65
        E 0 90 48 65
        E 1 97 38 67
        E 27 85 38 64
        E 1 86 37 65
        E 1 8d 28 64
        E 0 83 47 65
        E 1 95 38 64
        E 0 96 39 64
        E 1 94 49 64
        E 0 9b 29 63
        E 29 85 38 64
        E 1 8a 38 65
        E 0 82 48 63
        E 1 95 39 65
        E 0 9a 38 65
        E 1 9f 29 64
        E 0 93 48 64
        E 29 88 38 66
        E 1 8a 38 65
        E 0 81 48 64
        E 0 8b 29 63
        E 0 98 38 66
        E 0 9a 3a 64
        E 0 9e 29 65
        E 0 92 49 66
        E 32 88 38 66
        E 0 80 48 65
        E 0 87 38 67
        E 0 98 3a 65
        E 0 9d 2a 64
        E 0 90 48 65
        E 1 91 49 67
        E 0 97 38 67
        E 29 86 39 64
        E 0 8f 29 64
        E 0 80 48 65
        E 1 84 49 64
        E 0 87 38 67
        E 1 96 39 64
        E 0 90 4a 64
        E 0 97 3a 66
        E 1 9c 2a 65
        E 30 85 39 65
        E 0 86 39 64
        E 0 8e 29 65
        E 0 83 48 64
        E 0 95 3b 64
        E 1 96 3a 67
        E 0 94 4a 65
        E 0 9b 2a 66
        E 31 85 3b 64
        E 0 8a 3a 64
        E 0 8d 2a 64
        E 0 82 49 66
        E 0 95 3b 64
        E 1 9a 3a 64
        E 0 9f 2a 67
        E 0 93 4b 64
        E 31 88 3a 65
        E 0 8a 3a 64
        E 0 81 49 67
        E 1 8c 2a 65
        E 0 98 3a 65
        E 0 9a 3b 65
        E 0 9e 2b 64
        E 0 92 4b 65
        E 31 88 3a 65
        E 0 80 4a 64
        E 1 87 3a 66
        E 1 8b 2a 66
        E 0 98 3c 63
        E 0 9d 2b 65
        E 1 91 4b 66
        E 0 97 3a 66
        E 28 86 3a 67
        E 0 8f 2a 67
        E 1 84 4a 65
        E 1 87 3a 66
        E 0 96 3a 67
        E 1 90 4b 67
        E 0 97 3c 64
        E 1 9c 2c 64
        E 29 85 3b 64
        E 1 86 3a 67
        E 0 8e 2b 64
        E 1 83 4b 64
        E 0 95 3b 64
        E 1 96 3c 65
        E 0 94 4c 64
        E 1 9b 2c 65
        E 29 85 3b 64
        E 1 8a 3b 65
        E 1 8d 2b 65
        E 0 82 4b 65
        E 1 95 3d 64
        E 0 9a 3b 65
        E 1 9f 2c 66
        E 0 93 4c 65
        E 27 88 3c 63
        E 0 8a 3b 65
        E 1 81 4b 66
        E 0 8c 2c 64
        E 0 98 3c 63
        E 1 9a 3d 65
        E 0 9e 2c 67
        E 1 92 4d 63
        E 28 88 3c 63
        E 0 80 4b 67
        E 1 84 4c 64
        E 0 87 3c 64
        E 1 8b 2c 65
        E 0 98 3d 66
        E 1 9d 2d 64
        E 0 91 4d 64
        E 1 97 3c 64
        E 30 86 3c 65
        E 1 8f 2c 66
        E 0 83 4c 65
        E 0 87 3c 64
        E 1 96 3c 65
        E 0 90 4d 65
        E 1 97 3d 67
        E 0 9c 2d 65
        E 28 85 3d 64
        E 0 86 3c 65
        E 0 8e 2c 67
        E 1 82 4d 63
        E 1 95 3d 64
        E 0 96 3e 64
        E 1 94 4e 64
        E 0 9b 2e 64
        E 30 85 3d 64
        E 0 8a 3d 65
        E 1 8d 2d 64
        E 0 81 4d 64
        E 1 95 3e 65
        E 0 9a 3d 65
        E 1 9f 2e 65
        E 0 93 4e 65
        E 29 88 3d 66
        E 0 8a 3d 65
        E 1 80 4d 65
        E 0 8c 2d 65
        E 1 98 3d 66
        E 0 9a 3f 64
        E 1 9e 2e 66
        E 1 92 4e 66
        E 26 88 3d 66
        E 1 84 4e 64
        E 0 87 3d 67
        E 1 8b 2e 64
        E 1 98 3f 65
        E 0 9d 2e 67
        E 0 91 4e 67
        E 1 97 3d 67
        E 29 86 3e 64
        E 0 83 4e 65
        E 1 87 3d 67
        E 0 96 3e 64
        E 1 90 4f 64
        E 0 97 3f 66
        E 1 9c 2f 64
        E 31 85 3e 65
        E 0 86 3e 64
        E 1 8f 2e 65
        E 0 82 4e 66
        E 1 95 3e 65
        E 0 96 3f 67
        E 1 94 4f 65
        E 0 9b 2f 65
        E 26 85 3e 65
        E 1 8a 3f 64
        E 0 8e 2e 66
        E 1 81 4e 67
        E 0 95 40 64
        E 1 9a 3f 64
        E 0 9f 30 63
        E 0 93 50 64
        E 29 88 3f 65
        E 1 8a 3f 64
        E 1 8d 2e 67
        E 0 80 4f 64
        E 0 98 3f 65
        E 1 9a 40 65
        E 0 9e 30 64
        E 1 92 50 65
        E 28 88 3f 65
        E 1 84 4f 65
        E 0 87 3f 66
        E 1 8c 2f 64
        E 0 98 41 63
        E 1 9d 30 65
        E 0 91 50 66
        E 0 97 3f 66
        E 30 86 3f 67
        E 1 83 50 64
        E 0 87 3f 66
        E 1 8b 2f 65
        E 0 96 3f 67
        E 1 90 50 67
        E 0 97 41 64
        E 1 9c 31 64
        E 28 85 40 64
        E 0 86 3f 67
        E 1 8f 30 63
        E 1 82 50 65
        E 0 95 40 64
        E 1 96 41 65
        E 0 94 51 64
        E 1 9b 31 65
        E 29 85 40 64
        E 0 8a 40 65
        E 1 8e 30 64
        E 0 80 50 67
        E 1 81 50 66
        E 1 95 42 64
        E 0 9a 40 65
        E 0 9f 31 66
        E 1 93 51 65
        E 26 88 41 63
        E 0 8a 40 65
        E 0 8d 30 65
        E 1 84 51 64
        E 1 98 41 63
        E 0 9a 42 65
        E 0 9e 31 67
        E 1 92 52 64
        E 30 88 41 63
        E 0 83 51 65
        E 1 87 41 64
        E 1 8c 31 64
        E 0 98 42 66
        E 1 9d 32 64
        E 0 91 52 65
        E 0 97 41 64
        E 29 86 41 65
        E 0 82 52 64
        E 0 87 41 64
        E 0 8b 31 65
        E 1 96 41 65
        E 0 90 52 66
        E 1 97 42 67
        E 0 9c 32 65
        E 28 85 42 64
        E 0 86 41 65
        E 1 8f 31 66
        E 0 81 52 65
        E 1 95 42 64
        E 0 96 43 64
        E 1 94 52 67
        E 0 9b 33 64
        E 31 85 42 64
        E 0 8a 42 65
        E 1 8e 31 67
        E 0 80 52 66
        E 1 95 43 65
        E 0 9a 42 65
        E 1 9f 33 65
        E 0 93 53 64
        E 29 88 42 66
        E 0 8a 42 65
        E 1 8d 32 64
        E 1 84 52 67
        E 1 98 42 66
        E 0 9a 44 64
        E 1 9e 33 66
        E 0 92 53 65
        E 26 88 42 66
        E 1 87 42 67
        E 0 8c 32 65
        E 1 98 44 65
        E 1 9d 33 67
        E 0 97 42 67
        E 33 85 43 65
        E 0 86 43 64
        E 1 88 44 65
        E 0 8a 44 64
        E 1 8d 33 67
        E 0 8e 33 66
        E 0 8f 33 65
        E 1 82 53 65
        E 0 83 53 64
        E 1 87 42 67
        E 0 8b 33 64
        E 1 95 43 65
        E 1 96 43 64
        E 1 98 44 65
        E 0 9a 44 64
        E 1 9d 33 67
        E 1 9e 33 66
        E 1 9f 33 65
        E 0 90 24 64
        E 1 94 54 64
        E 1 97 44 66
        E 0 9c 34 64
        E 19 86 43 64
        E 0 8f 33 65
        E 1 96 44 67
        E 0 93 54 65
        E 1 9b 34 65
        E 32 85 43 65
        E 0 8e 33 66
        E 1 80 24 64
        E 0 84 54 64
        E 1 95 45 64
        E 1 9f 35 63
        E 0 92 25 64
        E 31 8a 44 64
        E 1 8d 33 67
        E 1 83 54 65
        E 0 9a 45 65
        E 1 9e 35 64
        E 28 88 44 65
        E 1 82 25 64
        E 1 87 44 66
        E 0 8c 34 64
        E 0 98 46 64
        E 1 9d 35 65
        E 0 90 25 66
        E 1 97 44 66
        E 33 86 44 67
        E 1 87 44 66
        E 0 8b 34 65
        E 1 96 44 67
        E 0 97 46 65
        E 1 9c 36 64
        E 33 85 45 64
        E 1 86 44 67
        E 0 8f 35 63
        E 1 80 25 66
        E 1 95 45 64
        E 0 96 46 66
        E 0 9f 35 63
        E 1 93 26 64
        E 0 9b 36 65
        E 29 85 45 64
        E 0 8a 45 65
        E 1 8e 35 64
        E 1 8f 35 63
        E 0 95 46 67
        E 1 9e 35 64
        E 0 9f 36 66
        E 29 88 46 64
        E 1 8d 35 65
        E 0 8e 35 64
        E 0 83 26 64
        E 1 9a 47 64
        E 1 9d 35 65
        E 0 9e 36 67
        E 1 91 27 64
        E 30 8d 35 65
        E 0 87 46 65
        E 1 8c 36 64
        E 0 98 47 65
        E 1 9d 37 64
        E 1 9c 36 64
        E 30 86 46 66
        E 1 81 27 64
        E 0 8b 36 65
        E 1 8c 36 64
        E 0 94 27 66
        E 1 97 48 63
        E 0 9b 36 65
        E 1 9c 37 65
        E 30 85 46 67
        E 1 8f 36 66
        E 0 8b 36 65
        E 1 96 48 64
        E 2 9f 36 66
        E 1 9b 38 64
        E 32 8a 47 64
        E 1 8e 36 67
        E 0 8f 36 66
        E 1 84 27 66
        E 0 95 48 65
        E 0 9e 36 67
        E 1 9f 38 65
        E 0 92 28 64
        E 27 88 47 65
        E 0 8d 37 64
        E 1 8e 36 67
        E 0 9a 49 64
        E 1 9d 37 64
        E 0 9e 38 66
        E 34 8d 37 64
        E 0 82 28 64
        E 1 87 48 63
        E 0 8c 37 65
        E 1 98 48 64
        E 0 9d 38 67
        E 1 90 29 63
        E 0 9c 37 65
        E 33 86 48 64
        E 0 8b 38 64
        E 1 8c 37 65
        E 0 94 29 64
        E 1 97 49 66
        E 0 9b 38 64
        E 1 9c 39 64
        E 29 85 48 65
        E 1 8f 38 65
        E 0 80 29 63
        E 1 8b 38 64
        E 0 95 48 65
        E 1 96 49 67
        E 0 9f 38 65
        E 1 93 29 65
        E 0 9b 39 65
        E 29 85 48 65
        E 1 8a 49 64
        E 0 8e 38 66
        E 0 8f 38 65
        E 1 95 4a 64
        E 1 9e 38 66
        E 0 9f 3a 64
        E 1 92 2a 64
        E 32 88 48 64
        E 1 8d 38 67
        E 0 8e 38 66
        E 1 84 29 64
        E 0 9a 4a 65
        E 1 9d 38 67
        E 0 9e 3a 65
        E 1 91 2a 65
        E 28 8d 38 67
        E 0 83 29 65
        E 1 87 49 66
        E 0 8c 39 64
        E 1 98 4b 64
        E 0 9d 3a 66
        E 1 90 2a 66
        E 1 9c 39 64
        E 30 86 49 67
        E 1 82 2a 64
        E 0 8b 39 65
        E 1 8c 39 64
        E 0 94 2a 67
        E 1 97 4b 65
        E 0 9b 3b 64
        E 1 9c 3a 67
        E 30 85 4a 64
        E 0 8f 3a 64
        E 0 81 2a 65
        E 1 8b 3b 64
        E 1 96 4b 66
        E 0 9f 3a 64
        E 1 93 2b 64
        E 0 9b 3b 64
        E 32 8a 4a 65
        E 0 8e 3a 65
        E 1 8f 3a 64
        E 1 80 2a 66
        E 0 95 4b 67
        E 1 9e 3a 65
        E 0 9f 3b 65
        E 1 92 2b 65
        E 31 88 4b 64
        E 1 8d 3a 66
        E 0 8e 3a 65
        E 1 84 2a 67
        E 0 9a 4c 64
        E 1 9d 3a 66
        E 0 9e 3c 63
        E 1 91 2c 64
        E 29 8d 3a 66
        E 0 83 2b 64
        E 1 87 4b 65
        E 0 8c 3a 67
        E 1 98 4c 65
        E 1 9d 3c 64
        E 0 90 2c 65
        E 0 9c 3a 67
        E 30 86 4b 66
        E 1 82 2b 65
        E 0 8b 3b 64
        E 1 8c 3a 67
        E 0 94 2c 66
        E 1 97 4d 63
        E 0 9b 3b 64
        E 1 9c 3c 65
        E 29 85 4b 67
        E 1 8a 4c 64
        E 0 8f 3b 65
        E 1 81 2c 64
        E 1 8b 3b 64
        E 0 96 4d 64
        E 1 9f 3b 65
        E 0 93 2c 67
        E 1 9b 3d 64
        E 30 88 4c 65
        E 0 8e 3c 63
        E 1 8f 3b 65
        E 0 80 2c 65
        E 1 95 4d 65
        E 0 9e 3c 63
        E 1 9f 3d 65
        E 0 92 2d 64
        E 31 8d 3c 64
        E 1 8e 3c 63
        E 0 84 2c 66
        E 1 87 4d 63
        E 0 9a 4e 64
        E 0 9d 3c 64
        E 1 9e 3d 66
        E 0 91 2d 65
        E 32 86 4d 64
        E 1 8d 3c 64
        E 0 83 2c 67
        E 0 8c 3c 65
        E 1 98 4e 65
        E 0 9d 3d 67
        E 1 90 2e 64
        E 0 9c 3c 65
        E 28 85 4d 65
        E 1 82 2d 64
        E 0 8b 3d 64
        E 0 8c 3c 65
        E 1 94 2e 65
        E 0 97 4e 66
        E 1 9b 3d 64
        E 0 9c 3e 64
        E 31 8a 4e 64
        E 1 8f 3d 65
        E 0 81 2d 65
        E 1 8b 3d 64
        E 0 96 4e 67
        E 1 9f 3d 65
        E 0 93 2e 66
        E 1 9b 3e 65
        E 31 88 4e 65
        E 0 8e 3d 66
        E 1 8f 3d 65
        E 0 80 2e 64
        E 1 95 4f 64
        E 0 9e 3d 66
        E 2 9f 3f 64
        E 1 92 2e 67
        E 29 8d 3d 67
        E 0 8e 3d 66
        E 1 87 4e 66
        E 1 9a 4f 65
        E 0 9d 3d 67
        E 1 9e 3f 65
        E 0 91 2f 64
        E 30 86 4e 67
        E 0 8d 3d 67
        E 1 84 2e 65
        E 1 8c 3e 64
        E 0 98 50 64
        E 1 9d 3f 66
        E 0 90 2f 65
        E 1 9c 3e 64
        E 30 85 4f 64
        E 1 83 2e 66
        E 0 8b 3e 65
        E 1 8c 3e 64
        E 0 94 30 63
        E 1 97 50 65
        E 0 9b 3e 65
        E 1 9c 3f 67
        E 29 8a 4f 65
        E 1 8f 3f 64
        E 1 82 2e 67
        E 0 8b 3e 65
        E 3 96 50 66
        E 0 9f 3f 64
        E 1 93 30 64
        E 0 9b 40 64
        E 30 88 50 64
        E 1 8e 3f 65
        E 1 8f 3f 64
        E 0 81 2f 64
        E 1 95 50 67
        E 1 9e 3f 65
        E 0 9f 40 65
        E 1 92 30 65
        E 28 8d 3f 66
        E 0 8e 3f 65
        E 1 80 2f 65
        E 0 87 50 65
        E 1 9a 51 64
        E 0 9d 3f 66
        E 1 9e 41 63
        E 0 91 31 64
        E 31 85 50 67
        E 0 86 50 66
        E 1 8d 3f 66
        E 0 84 30 63
        E 1 8c 3f 67
        E 0 98 51 65
        E 1 9d 41 64
        E 1 90 31 65
        E 0 9c 3f 67
        E 31 8a 51 64
        E 1 83 30 64
        E 0 8b 40 64
        E 0 8c 3f 67
        E 1 94 31 66
        E 0 97 52 64
        E 1 9b 40 64
        E 0 9c 41 65
        E 29 88 51 65
        E 1 8f 40 65
        E 0 82 30 65
        E 1 8b 40 64
        E 0 96 52 65
        E 1 9f 40 65
        E 0 93 31 67
        E 0 9b 42 64
        E 34 8e 41 63
        E 0 8f 40 65
        E 1 81 31 64
        E 0 87 52 64
        E 1 95 52 66
        E 0 9e 41 63
        E 0 9f 42 65
        E 1 92 32 64
        E 31 86 52 65
        E 1 8d 41 64
        E 0 8e 41 63
        E 0 80 31 65
        E 1 9a 52 67
        E 0 9d 41 64
        E 1 9e 42 66
        E 0 91 32 65
        E 28 85 52 66
        E 0 8d 41 64
        E 0 84 31 66
        E 0 8c 41 65
        E 1 98 53 64
        E 0 9d 42 67
        E 1 90 33 64
        E 0 9c 41 65
        E 31 8a 52 67
        E 0 83 31 67
        E 1 8b 42 64
        E 0 8c 41 65
        E 1 94 33 65
        E 0 97 53 65
        E 1 9b 42 64
        E 0 9c 43 64
        E 32 8f 42 65
        E 0 82 32 64
        E 1 8b 42 64
        E 0 9f 42 65
        E 1 93 33 66
        E 0 9b 43 65
        E 33 88 53 64
        E 0 8e 42 66
        E 1 8f 42 65
        E 0 81 32 65
        E 1 87 53 65
        E 0 95 24 64
        E 1 9a 54 64
        E 0 9e 42 66
        E 1 9f 44 64
        E 0 92 33 67
        E 31 8d 42 67
        E 0 8e 42 66
        E 0 80 33 64
        E 1 98 54 65
        E 0 9d 42 67
        E 1 9e 44 65
        E 0 91 34 64
        E 31 85 24 64
        E 1 8a 54 64
        E 0 8d 42 67
        E 0 84 33 65
        E 1 8c 43 64
        E 1 9d 44 66
        E 0 90 34 65
        E 1 97 25 64
        E 0 9c 43 64
        E 26 88 54 65
        E 1 83 33 66
        E 0 8b 43 65
        E 1 8c 43 64
        E 0 94 35 63
        E 1 9b 43 65
        E 1 9c 44 67
        E 34 8f 44 64
        E 0 82 33 67
        E 1 87 25 64
        E 1 8b 43 65
        E 0 95 25 66
        E 1 9f 44 64
        E 0 93 35 64
        E 1 9b 45 64
        E 30 8e 44 65
        E 0 8f 44 64
        E 1 81 34 64
        E 0 9e 44 65
        E 1 9f 45 65
        E 0 92 35 65
        E 30 85 25 66
        E 1 8d 44 66
        E 0 8e 44 65
        E 1 80 34 65
        E 0 98 26 64
        E 1 9d 44 66
        E 0 9e 46 64
        E 1 91 36 64
        E 30 8d 44 66
        E 1 84 35 63
        E 0 8c 44 67
        E 1 9d 46 65
        E 0 90 36 65
        E 1 94 35 63
        E 0 9c 44 67
        E 28 88 26 64
        E 1 83 35 64
        E 1 84 35 63
        E 0 8b 45 64
        E 0 8c 44 67
        E 1 96 27 64
        E 0 93 35 64
        E 1 94 36 66
        E 0 9b 45 64
        E 1 9c 46 66
        E 29 8f 45 65
        E 1 82 35 65
        E 0 83 35 64
        E 1 8b 45 64
        E 0 92 35 65
        E 1 93 36 67
        E 0 9b 46 67
        E 32 86 27 64
        E 0 8e 46 64
        E 1 81 36 64
        E 0 82 35 65
        E 1 9a 27 66
        E 0 9f 47 64
        E 1 91 36 64
        E 0 92 37 64
        E 33 8d 46 65
        E 1 80 36 65
        E 0 81 36 64
        E 1 9e 47 65
        E 1 90 36 65
        E 0 91 37 65
        E 30 8a 27 66
        E 0 80 36 65
        E 1 84 36 66
        E 1 8c 46 66
        E 0 9d 48 63
        E 0 90 38 64
        E 1 94 36 66
        E 1 97 28 64
        E 31 83 36 67
        E 1 84 36 66
        E 0 8b 46 67
        E 1 93 36 67
        E 0 94 38 65
        E 1 9c 48 64
        E 30 8f 47 64
        E 1 82 37 64
        E 0 83 36 67
        E 1 87 28 64
        E 1 95 29 63
        E 0 92 37 64
        E 0 93 38 66
        E 0 9b 48 65
        E 31 8e 47 65
        E 0 81 37 65
        E 0 82 37 64
        E 1 9a 29 64
        E 1 9f 49 64
        E 0 91 37 65
        E 1 92 38 67
        E 32 85 29 63
        E 0 8d 48 63
        E 1 80 38 64
        E 0 81 37 65
        E 1 98 29 65
        E 0 9e 48 64
        E 1 90 38 64
        E 1 91 39 64
        E 28 80 38 64
        E 0 84 38 65
        E 1 8c 48 64
        E 0 9d 49 66
        E 0 90 39 65
        E 1 94 38 65
        E 0 97 2a 64
        E 33 8a 29 64
        E 1 83 38 66
        E 0 84 38 65
        E 1 8b 48 65
        E 0 96 2a 65
        E 1 93 38 66
        E 0 94 3a 64
        E 1 9b 48 65
        E 0 9c 49 67
        E 30 88 29 65
        E 1 8f 49 64
        E 0 82 38 67
        E 0 83 38 66
        E 1 8b 48 65
        E 0 95 2a 66
        E 1 92 38 67
        E 0 93 3a 65
        E 1 9b 4a 64
        E 29 8e 48 64
        E 1 81 39 64
        E 0 82 38 67
        E 1 87 2a 64
        E 0 9a 2a 67
        E 1 9f 4a 65
        E 0 91 39 64
        E 1 92 3a 66
        E 30 86 2a 65
        E 0 8d 49 66
        E 0 80 39 65
        E 1 81 39 64
        E 1 98 2b 64
        E 0 9e 4b 64
        E 1 90 3b 64
        E 0 91 3a 67
        E 31 85 2a 66
        E 1 80 3b 64
        E 0 84 3a 64
        E 1 8c 49 67
        E 0 9d 4b 65
        E 1 90 3b 64
        E 0 94 3a 64
        E 1 97 2b 65
        E 29 8a 2a 67
        E 1 83 3a 65
        E 0 84 3a 64
        E 0 8b 4a 64
        E 1 96 2c 64
        E 0 93 3a 65
        E 1 94 3b 65
        E 0 9c 4b 66
        E 35 88 2b 64
        E 0 8f 4a 65
        E 1 82 3a 66
        E 0 83 3a 65
        E 1 95 2c 65
        E 0 92 3a 66
        E 1 93 3c 63
        E 0 9b 4b 67
        E 29 8e 4b 64
        E 0 81 3a 67
        E 1 82 3a 66
        E 1 87 2b 65
        E 0 9a 2c 66
        E 1 9f 4c 64
        E 0 91 3a 67
        E 1 92 3c 64
        E 28 86 2c 64
        E 0 8d 4b 65
        E 1 80 3b 64
        E 0 81 3a 67
        E 1 98 2c 67
        E 0 9e 4c 65
        E 1 90 3b 64
        E 0 91 3c 65
        E 31 85 2c 65
        E 1 80 3b 64
        E 0 84 3b 65
        E 1 8c 4b 66
        E 0 9d 4d 63
        E 0 90 3d 64
        E 1 94 3b 65
        E 1 97 2d 64
        E 29 8a 2c 66
        E 0 8f 4c 64
        E 1 83 3c 63
        E 0 84 3b 65
        E 1 8b 4b 67
        E 1 96 2d 65
        E 0 93 3c 63
        E 1 94 3d 65
        E 0 9c 4d 64
        E 33 88 2c 67
        E 1 8e 4c 65
        E 0 82 3c 64
        E 0 83 3c 63
        E 1 95 2e 64
        E 0 92 3c 64
        E 1 93 3d 66
        E 0 9b 4d 65
        E 31 8d 4d 63
        E 0 81 3c 65
        E 1 82 3c 64
        E 0 87 2d 64
        E 1 9a 2e 65
        E 0 9f 4e 64
        E 0 91 3c 65
        E 1 92 3d 67
        E 30 86 2d 65
        E 1 80 3d 64
        E 1 81 3c 65
        E 0 8c 4d 64
        E 0 98 2e 66
        E 1 9e 4e 65
        E 0 90 3d 64
        E 1 91 3e 64
        E 28 85 2e 64
        E 1 80 3d 64
        E 1 84 3d 65
        E 0 8b 4d 65
        E 1 9d 4e 66
        E 1 90 3e 65
        E 0 94 3d 65
        E 1 97 2e 67
        E 33 8f 4e 64
        E 0 83 3d 66
        E 1 84 3d 65
        E 1 96 2f 64
        E 1 93 3d 66
        E 1 94 3f 64
        E 0 9c 4e 67
        E 25 8a 2e 65
        E 1 8e 4e 65
        E 0 82 3d 67
        E 1 83 3d 66
        E 0 95 2f 65
        E 0 92 3d 67
        E 1 93 3f 65
        E 0 9b 4f 64
        E 33 88 2e 66
        E 0 8d 4e 66
        E 1 81 3e 64
        E 0 82 3d 67
        E 1 9a 30 63
        E 0 9f 4f 65
        E 1 91 3e 64
        E 0 92 3f 66
        E 32 80 3e 65
        E 0 81 3e 64
        E 1 87 2e 67
        E 0 8c 4e 67
        E 1 98 30 64
        E 1 9e 50 64
        E 0 90 3e 65
        E 1 91 3f 67
        E 30 86 2f 64
        E 0 80 3e 65
        E 1 84 3f 64
        E 0 8b 4f 64
        E 1 9d 50 65
        E 0 90 40 64
        E 0 94 3f 64
        E 1 97 30 65
        E 29 85 2f 65
        E 0 8f 4f 65
        E 1 83 3f 65
        E 0 84 3f 64
        E 1 96 31 64
        E 0 93 3f 65
        E 1 94 40 65
        E 0 9c 50 66
        E 31 8a 30 63
        E 1 8e 50 64
        E 0 82 3f 66
        E 0 83 3f 65
        E 1 95 31 65
        E 1 92 3f 66
        E 1 93 41 63
        E 0 9b 50 67
        E 30 88 30 64
        E 0 8d 50 65
        E 1 81 3f 67
        E 0 82 3f 66
        E 0 9a 31 66
        E 1 9f 51 64
        E 0 91 3f 67
        E 1 92 41 64
        E 30 80 40 64
        E 1 81 3f 67
        E 0 87 30 65
        E 1 8b 50 67
        E 1 8c 50 66
        E 0 98 31 67
        E 0 9e 51 65
        E 1 90 40 64
        E 0 91 41 65
        E 32 86 31 64
        E 0 8f 51 64
        E 1 80 40 64
        E 0 84 40 65
        E 1 9d 52 64
        E 0 90 42 64
        E 1 94 40 65
        E 0 97 32 64
        E 32 85 31 65
        E 0 8e 51 65
        E 1 83 41 63
        E 0 84 40 65
        E 0 96 32 65
        E 1 93 41 63
        E 0 94 42 65
        E 1 9c 52 65
        E 31 8a 31 66
        E 0 8d 52 64
        E 0 82 41 64
        E 0 83 41 63
        E 0 95 33 64
        E 1 92 41 64
        E 0 93 42 66
        E 0 9b 52 66
        E 31 88 31 67
        E 0 81 41 65
        E 0 82 41 64
        E 0 8c 52 65
        E 0 9a 33 65
        E 0 9f 52 67
        E 0 91 41 65
        E 1 92 42 67
        E 33 80 42 64
        E 0 81 41 65
        E 0 87 32 64
        E 0 8b 52 66
        E 1 98 33 66
        E 0 9e 53 64
        E 0 90 42 64
        E 0 91 43 64
        E 34 86 32 65
        E 0 8f 52 67
        E 1 80 42 64
        E 0 84 42 65
        E 0 9d 53 65
        E 0 90 43 65
        E 1 94 42 65
        E 0 97 33 67
        E 31 85 33 64
        E 0 83 42 66
        E 0 84 42 65
        E 0 96 34 64
        E 0 93 42 66
        E 0 94 44 64
        E 33 8a 33 65
        E 0 8d 53 65
        E 0 8e 53 64
        E 0 82 42 67
        E 1 83 42 66
        E 0 95 34 65
        E 0 9f 54 64
        E 0 92 42 67
        E 0 93 44 65
        E 0 9b 24 64
        E 32 88 33 66
        E 0 81 43 64
        E 1 82 42 67
        E 0 9a 35 63
        E 0 9e 54 65
        E 1 91 43 64
        E 0 92 44 66
        E 31 8f 54 64
        E 0 80 43 65
        E 1 81 43 64
        E 0 87 33 67
        E 0 8b 24 64
        E 0 98 35 64
        E 1 9d 25 64
        E 0 90 43 65
        E 0 91 44 67
        E 34 86 34 64
        E 0 8e 54 65
        E 0 80 43 65
        E 0 84 44 64
        E 1 90 45 64
        E 0 94 44 64
        E 0 97 35 65
        E 34 85 34 65
        E 0 8d 25 64
        E 0 83 44 65
        E 0 84 44 64
        E 1 96 36 64
        E 0 93 44 65
        E 0 94 45 65
        E 0 9b 25 66
        E 31 8a 35 63
        E 0 82 44 66
        E 0 83 44 65
        E 0 95 36 65
        E 0 9a 35 63
        E 1 92 44 66
        E 0 93 46 64
        E 33 88 35 64
        E 1 8a 35 63
        E 0 81 44 67
        E 0 82 44 66
        E 0 8b 25 66
        E 0 98 35 64
        E 1 9a 36 66
        E 0 9e 26 64
        E 0 91 44 67
        E 0 92 46 65
        E 34 88 35 64
        E 0 80 45 64
        E 0 81 44 67
        E 1 87 35 65
        E 0 98 36 67
        E 0 90 45 64
        E 0 91 46 66
        E 1 97 35 65
        E 30 86 36 64
        E 0 8e 26 64
        E 0 80 45 64
        E 1 84 45 65
        E 0 87 35 65
        E 1 96 36 64
        E 0 90 46 67
        E 0 97 37 64
        E 1 9c 27 64
        E 31 85 36 65
        E 0 86 36 64
        E 1 83 46 64
        E 0 95 36 65
        E 0 96 37 65
        E 1 94 47 64
        E 31 85 36 65
        E 0 8a 36 66
        E 1 82 46 65
        E 0 8c 27 64
        E 1 95 38 64
        E 0 9a 36 66
        E 0 9f 27 66
        E 0 93 47 65
        E 32 88 36 67
        E 1 8a 36 66
        E 0 81 46 66
        E 0 98 36 67
        E 1 9a 38 65
        E 0 92 48 63
        E 34 88 36 67
        E 0 8f 27 66
        E 0 80 46 67
        E 1 87 37 64
        E 0 98 38 66
        E 0 9d 28 64
        E 1 91 48 64
        E 0 97 37 64
        E 30 86 37 65
        E 0 84 47 64
        E 1 87 37 64
        E 0 96 37 65
        E 0 90 48 65
        E 1 97 38 67
        E 33 85 38 64
        E 0 86 37 65
        E 1 8d 28 64
        E 0 83 47 65
        E 1 95 38 64
        E 0 96 39 64
        E 0 94 49 64
        E 1 9b 29 63
        E 31 85 38 64
        E 1 8a 38 65
        E 1 82 48 63
        E 1 95 39 65
        E 0 9a 38 65
        E 1 9f 29 64
        E 1 93 48 64
        E 29 88 38 66
        E 0 8a 38 65
        E 1 81 48 64
        E 0 8b 29 63
        E 1 98 38 66
        E 0 9a 3a 64
        E 1 9e 29 65
        E 1 92 49 66
        E 29 88 38 66
        E 0 80 48 65
        E 1 87 38 67
        E 0 98 3a 65
        E 1 9d 2a 64
        E 0 90 48 65
        E 1 91 49 67
        E 0 97 38 67
        E 34 86 39 64
        E 0 8f 29 64
        E 1 80 48 65
        E 0 84 49 64
        E 1 87 38 67
        E 0 96 39 64
        E 1 90 4a 64
        E 0 97 3a 66
        E 1 9c 2a 65
        E 28 85 39 65
        E 0 86 39 64
        E 0 8e 29 65
        E 0 83 48 64
        E 1 95 3b 64
        E 0 96 3a 67
        E 1 94 4a 65
        E 0 9b 2a 66
        E 31 85 3b 64
        E 1 8a 3a 64
        E 0 8d 2a 64
        E 1 82 49 66
        E 0 95 3b 64
        E 1 9a 3a 64
        E 0 9f 2a 67
        E 0 93 4b 64
        E 30 88 3a 65
        E 1 8a 3a 64
        E 0 81 49 67
        E 1 8c 2a 65
        E 0 98 3a 65
        E 1 9a 3b 65
        E 0 9e 2b 64
        E 1 92 4b 65
        E 30 88 3a 65
        E 1 80 4a 64
        E 1 87 3a 66
        E 0 8b 2a 66
        E 0 98 3c 63
        E 1 9d 2b 65
        E 0 91 4b 66
        E 1 97 3a 66
        E 30 86 3a 67
        E 0 8f 2a 67
        E 1 84 4a 65
        E 1 87 3a 66
        E 0 96 3a 67
        E 1 90 4b 67
        E 0 97 3c 64
        E 1 9c 2c 64
        E 32 85 3b 64
        E 1 86 3a 67
        E 0 8e 2b 64
        E 1 83 4b 64
        E 0 95 3b 64
        E 1 96 3c 65
        E 0 94 4c 64
        E 1 9b 2c 65
        E 26 85 3b 64
        E 1 8a 3b 65
        E 0 8d 2b 65
        E 1 82 4b 65
        E 0 95 3d 64
        E 0 9a 3b 65
        E 1 9f 2c 66
        E 0 93 4c 65
        E 33 88 3c 63
        E 0 8a 3b 65
        E 1 81 4b 66
        E 0 8c 2c 64
        E 1 98 3c 63
        E 0 9a 3d 65
        E 0 9e 2c 67
        E 1 92 4d 63
        E 29 88 3c 63
        E 1 80 4b 67
        E 0 84 4c 64
        E 1 87 3c 64
        E 0 8b 2c 65
        E 1 98 3d 66
        E 0 9d 2d 64
        E 1 91 4d 64
        E 0 97 3c 64
        E 32 86 3c 65
        E 0 8f 2c 66
        E 1 83 4c 65
        E 0 87 3c 64
        E 0 96 3c 65
        E 1 90 4d 65
        E 0 97 3d 67
        E 1 9c 2d 65
        E 31 85 3d 64
        E 1 86 3c 65
        E 0 8e 2c 67
        E 1 82 4d 63
        E 1 95 3d 64
        E 0 96 3e 64
        E 0 94 4e 64
        E 1 9b 2e 64
        E 30 85 3d 64
        E 0 8a 3d 65
        E 0 8d 2d 64
        E 0 81 4d 64
        E 1 95 3e 65
        E 0 9a 3d 65
        E 0 9f 2e 65
        E 0 93 4e 65
        E 31 88 3d 66
        E 0 8a 3d 65
        E 0 80 4d 65
        E 0 8c 2d 65
        E 0 98 3d 66
        E 1 9a 3f 64
        E 0 9e 2e 66
        E 0 92 4e 66
        E 34 88 3d 66
        E 0 84 4e 64
        E 0 87 3d 67
        E 0 8b 2e 64
        E 0 98 3f 65
        E 0 9d 2e 67
        E 0 91 4e 67
        E 1 97 3d 67
        E 31 86 3e 64
        E 1 83 4e 65
        E 0 87 3d 67
        E 1 96 3e 64
        E 0 90 4f 64
        E 0 97 3f 66
        E 0 9c 2f 64
        E 33 85 3e 65
        E 1 86 3e 64
        E 0 8f 2e 65
        E 0 82 4e 66
        E 0 95 3e 65
        E 0 96 3f 67
        E 0 94 4f 65
        E 1 9b 2f 65
        E 35 85 3e 65
        E 0 8a 3f 64
        E 1 8e 2e 66
        E 0 81 4e 67
        E 0 95 40 64
        E 0 9a 3f 64
        E 0 9f 30 63
        E 0 93 50 64
        E 32 88 3f 65
        E 0 8a 3f 64
        E 0 8d 2e 67
        E 0 80 4f 64
        E 1 98 3f 65
        E 0 9a 40 65
        E 0 9e 30 64
        E 1 92 50 65
        E 29 88 3f 65
        E 1 84 4f 65
        E 0 87 3f 66
        E 0 8c 2f 64
        E 1 98 41 63
        E 0 9d 30 65
        E 0 91 50 66
        E 0 97 3f 66
        E 34 86 3f 67
        E 0 83 50 64
        E 0 87 3f 66
        E 0 8b 2f 65
        E 0 96 3f 67
        E 1 90 50 67
        E 0 97 41 64
        E 0 9c 31 64
        E 33 85 40 64
        E 0 86 3f 67
        E 0 8f 30 63
        E 0 82 50 65
        E 1 95 40 64
        E 0 96 41 65
        E 0 94 51 64
        E 0 9b 31 65
        E 33 85 40 64
        E 0 8a 40 65
        E 1 8e 30 64
        E 0 80 50 67
        E 0 81 50 66
        E 1 95 42 64
        E 0 9a 40 65
        E 0 9f 31 66
        E 0 93 51 65
        E 32 88 41 63
        E 0 8a 40 65
        E 1 8d 30 65
        E 0 84 51 64
        E 0 98 41 63
        E 0 9a 42 65
        E 0 9e 31 67
        E 0 92 52 64
        E 30 88 41 63
        E 1 83 51 65
        E 0 87 41 64
        E 0 8c 31 64
        E 0 98 42 66
        E 0 9d 32 64
        E 1 91 52 65
        E 0 97 41 64
        E 34 86 41 65
        E 0 82 52 64
        E 0 87 41 64
        E 0 8b 31 65
        E 0 96 41 65
        E 1 90 52 66
        E 0 97 42 67
        E 0 9c 32 65
        E 32 85 42 64
        E 0 86 41 65
        E 0 8f 31 66
        E 0 81 52 65
        E 1 95 42 64
        E 0 96 43 64
        E 0 94 52 67
        E 0 9b 33 64
        E 33 85 42 64
        E 0 8a 42 65
        E 0 8e 31 67
        E 0 80 52 66
        E 1 95 43 65
        E 0 9a 42 65
        E 0 9f 33 65
        E 0 93 53 64
        E 34 88 42 66
        E 0 8a 42 65
        E 1 8d 32 64
        E 0 84 52 67
        E 0 98 42 66
        E 1 9a 44 64
        E 0 9e 33 66
        E 0 92 53 65
        E 30 88 42 66
        E 0 87 42 67
        E 0 8c 32 65
        E 1 98 44 65
        E 0 9d 33 67
        E 0 97 42 67
        E 34 85 43 65
        E 0 86 43 64
        E 0 88 44 65
        E 0 8a 44 64
        E 1 8d 33 67
        E 0 8e 33 66
        E 0 8f 33 65
        E 0 82 53 65
        E 0 83 53 64
        E 1 87 42 67
        E 0 8b 33 64
        E 0 95 43 65
        E 0 96 43 64
        E 1 98 44 65
        E 0 9a 44 64
        E 0 9d 33 67
        E 1 9e 33 66
        E 0 9f 33 65
        E 0 90 24 64
        E 0 94 54 64
        E 1 97 44 66
        E 0 9c 34 64
        E 30 86 43 64
        E 0 8f 33 65
        E 0 96 44 67
        E 1 93 54 65
        E 0 9b 34 65
        E 31 85 43 65
        E 0 8e 33 66
        E 0 80 24 64
        E 1 84 54 64
        E 0 95 45 64
        E 1 9f 35 63
        E 0 92 25 64
        E 34 8a 44 64
        E 0 8d 33 67
        E 0 83 54 65
        E 1 9a 45 65
        E 0 9e 35 64
        E 31 88 44 65
        E 0 82 25 64
        E 1 87 44 66
        E 0 8c 34 64
        E 1 98 46 64
        E 0 9d 35 65
        E 0 90 25 66
        E 0 97 44 66
        E 31 86 44 67
        E 1 87 44 66
        E 0 8b 34 65
        E 0 96 44 67
        E 1 97 46 65
        E 0 9c 36 64
        E 35 85 45 64
        E 1 86 44 67
        E 0 8f 35 63
        E 1 80 25 66
        E 0 95 45 64
        E 0 96 46 66
        E 1 9f 35 63
        E 0 93 26 64
        E 0 9b 36 65
        E 31 85 45 64
        E 0 8a 45 65
        E 0 8e 35 64
        E 1 8f 35 63
        E 0 95 46 67
        E 0 9e 35 64
        E 0 9f 36 66
        E 30 88 46 64
        E 0 8d 35 65
        E 0 8e 35 64
        E 1 83 26 64
        E 0 9a 47 64
        E 0 9d 35 65
        E 1 9e 36 67
        E 0 91 27 64
        E 33 8d 35 65
        E 0 87 46 65
        E 0 8c 36 64
        E 1 98 47 65
        E 0 9d 37 64
        E 0 9c 36 64
        E 34 86 46 66
        E 0 81 27 64
        E 1 8b 36 65
        E 0 8c 36 64
        E 0 94 27 66
        E 1 97 48 63
        E 0 9b 36 65
        E 0 9c 37 65
        E 30 85 46 67
        E 1 8f 36 66
        E 0 8b 36 65
        E 1 96 48 64
        E 0 9f 36 66
        E 0 9b 38 64
        E 34 8a 47 64
        E 0 8e 36 67
        E 1 8f 36 66
        E 0 84 27 66
        E 0 95 48 65
        E 1 9e 36 67
        E 0 9f 38 65
        E 0 92 28 64
        E 31 88 47 65
        E 0 8d 37 64
        E 0 8e 36 67
        E 0 9a 49 64
        E 1 9d 37 64
        E 0 9e 38 66
        E 33 8d 37 64
        E 0 82 28 64
        E 0 87 48 63
        E 0 8c 37 65
        E 1 98 48 64
        E 0 9d 38 67
        E 0 90 29 63
        E 0 9c 37 65
        E 32 86 48 64
        E 0 8b 38 64
        E 1 8c 37 65
        E 0 94 29 64
        E 0 97 49 66
        E 1 9b 38 64
        E 0 9c 39 64
        E 33 85 48 65
        E 0 8f 38 65
        E 1 80 29 63
        E 0 8b 38 64
        E 0 95 48 65
        E 0 96 49 67
        E 0 9f 38 65
        E 1 93 29 65
        E 0 9b 39 65
        E 32 85 48 65
        E 1 8a 49 64
        E 0 8e 38 66
        E 0 8f 38 65
        E 0 95 4a 64
        E 1 9e 38 66
        E 0 9f 3a 64
        E 0 92 2a 64
        E 31 88 48 64
        E 0 8d 38 67
        E 1 8e 38 66
        E 0 84 29 64
        E 0 9a 4a 65
        E 1 9d 38 67
        E 0 9e 3a 65
        E 0 91 2a 65
        E 32 8d 38 67
        E 0 83 29 65
        E 0 87 49 66
        E 0 8c 39 64
        E 1 98 4b 64
        E 0 9d 3a 66
        E 1 90 2a 66
        E 0 9c 39 64
        E 32 86 49 67
        E 0 82 2a 64
        E 0 8b 39 65
        E 1 8c 39 64
        E 0 94 2a 67
        E 0 97 4b 65
        E 1 9b 3b 64
        E 0 9c 3a 67
        E 32 85 4a 64
        E 0 8f 3a 64
        E 1 81 2a 65
        E 0 8b 3b 64
        E 0 96 4b 66
        E 0 9f 3a 64
        E 0 93 2b 64
        E 0 9b 3b 64
        E 31 8a 4a 65
        E 0 8e 3a 65
        E 1 8f 3a 64
        E 0 80 2a 66
        E 1 95 4b 67
        E 0 9e 3a 65
        E 1 9f 3b 65
        E 0 92 2b 65
        E 32 88 4b 64
        E 0 8d 3a 66
        E 1 8e 3a 65
        E 0 84 2a 67
        E 0 9a 4c 64
        E 0 9d 3a 66
        E 1 9e 3c 63
        E 1 91 2c 64
        E 34 8d 3a 66
        E 0 83 2b 64
        E 1 87 4b 65
        E 0 8c 3a 67
        E 1 98 4c 65
        E 0 9d 3c 64
        E 1 90 2c 65
        E 0 9c 3a 67
        E 28 86 4b 66
        E 1 82 2b 65
        E 0 8b 3b 64
        E 0 8c 3a 67
        E 1 94 2c 66
        E 0 97 4d 63
        E 1 9b 3b 64
        E 0 9c 3c 65
        E 32 85 4b 67
        E 0 8a 4c 64
        E 1 8f 3b 65
        E 0 81 2c 64
        E 1 8b 3b 64
        E 0 96 4d 64
        E 0 9f 3b 65
        E 1 93 2c 67
        E 0 9b 3d 64
        E 31 88 4c 65
        E 0 8e 3c 63
        E 0 8f 3b 65
        E 1 80 2c 65
        E 0 95 4d 65
        E 0 9e 3c 63
        E 0 9f 3d 65
        E 1 92 2d 64
        E 32 8d 3c 64
        E 0 8e 3c 63
        E 0 84 2c 66
        E 1 87 4d 63
        E 0 9a 4e 64
        E 0 9d 3c 64
        E 0 9e 3d 66
        E 1 91 2d 65
        E 33 86 4d 64
        E 0 8d 3c 64
        E 1 83 2c 67
        E 0 8c 3c 65
        E 0 98 4e 65
        E 0 9d 3d 67
        E 1 90 2e 64
        E 0 9c 3c 65
        E 34 85 4d 65
        E 0 82 2d 64
        E 1 8b 3d 64
        E 0 8c 3c 65
        E 1 94 2e 65
        E 0 97 4e 66
        E 0 9b 3d 64
        E 1 9c 3e 64
        E 29 8a 4e 64
        E 0 8f 3d 65
        E 0 81 2d 65
        E 1 8b 3d 64
        E 0 96 4e 67
        E 0 9f 3d 65
        E 1 93 2e 66
        E 0 9b 3e 65
        E 34 88 4e 65
        E 1 8e 3d 66
        E 0 8f 3d 65
        E 0 80 2e 64
        E 1 95 4f 64
        E 0 9e 3d 66
        E 0 9f 3f 64
        E 1 92 2e 67
        E 36 8d 3d 67
        E 1 8e 3d 66
        E 0 87 4e 66
        E 1 9a 4f 65
        E 0 9d 3d 67
        E 0 9e 3f 65
        E 1 91 2f 64
        E 32 86 4e 67
        E 0 8d 3d 67
        E 0 84 2e 65
        E 1 8c 3e 64
        E 0 98 50 64
        E 1 9d 3f 66
        E 0 90 2f 65
        E 0 9c 3e 64
        E 33 85 4f 64
        E 0 83 2e 66
        E 0 8b 3e 65
        E 0 8c 3e 64
        E 0 94 30 63
        E 1 97 50 65
        E 0 9b 3e 65
        E 0 9c 3f 67
        E 37 8a 4f 65
        E 0 8f 3f 64
        E 0 82 2e 67
        E 0 8b 3e 65
        E 0 96 50 66
        E 0 9f 3f 64
        E 0 93 30 64
        E 1 9b 40 64
        E 32 88 50 64
        E 1 8e 3f 65
        E 0 8f 3f 64
        E 0 81 2f 64
        E 1 95 50 67
        E 0 9e 3f 65
        E 0 9f 40 65
        E 0 92 30 65
        E 36 8d 3f 66
        E 0 8e 3f 65
        E 1 80 2f 65
        E 0 87 50 65
        E 0 9a 51 64
        E 1 9d 3f 66
        E 0 9e 41 63
        E 1 91 31 64
        E 32 85 50 67
        E 0 86 50 66
        E 0 8d 3f 66
        E 0 84 30 63
        E 0 8c 3f 67
        E 1 98 51 65
        E 0 9d 41 64
        E 0 90 31 65
        E 0 9c 3f 67
        E 35 8a 51 64
        E 0 83 30 64
        E 1 8b 40 64
        E 0 8c 3f 67
        E 4 94 31 66
        E 0 97 52 64
        E 0 9b 40 64
        E 1 9c 41 65
        E 33 88 51 65
        E 0 8f 40 65
        E 0 82 30 65
        E 1 8b 40 64
        E 0 96 52 65
        E 0 9f 40 65
        E 1 93 31 67
        E 0 9b 42 64
        E 32 8e 41 63
        E 0 8f 40 65
        E 0 81 31 64
        E 1 87 52 64
        E 0 95 52 66
        E 0 9e 41 63
        E 0 9f 42 65
        E 1 92 32 64
        E 34 86 52 65
        E 0 8d 41 64
        E 0 8e 41 63
        E 1 80 31 65
        E 1 9a 52 67
        E 0 9d 41 64
        E 0 9e 42 66
        E 1 91 32 65
        E 34 85 52 66
        E 0 8d 41 64
        E 1 84 31 66
        E 0 8c 41 65
        E 1 98 53 64
        E 0 9d 42 67
        E 1 90 33 64
        E 0 9c 41 65
        E 33 8a 52 67
        E 0 83 31 67
        E 0 8b 42 64
        E 0 8c 41 65
        E 0 94 33 65
        E 0 97 53 65
        E 0 9b 42 64
        E 0 9c 43 64
        E 35 8f 42 65
        E 0 82 32 64
        E 1 8b 42 64
        E 0 9f 42 65
        E 0 93 33 66
        E 0 9b 43 65
        E 36 88 53 64
        E 0 8e 42 66
        E 0 8f 42 65
        E 1 81 32 65
        E 0 87 53 65
        E 0 95 24 64
        E 0 9a 54 64
        E 0 9e 42 66
        E 0 9f 44 64
        E 0 92 33 67
        E 33 8d 42 67
        E 0 8e 42 66
        E 1 80 33 64
        E 0 98 54 65
        E 0 9d 42 67
        E 0 9e 44 65
        E 0 91 34 64
        E 35 85 24 64
        E 0 8a 54 64
        E 1 8d 42 67
        E 0 84 33 65
        E 0 8c 43 64
        E 0 9d 44 66
        E 1 90 34 65
        E 0 97 25 64
        E 0 9c 43 64
        E 37 88 54 65
        E 0 83 33 66
        E 0 8b 43 65
        E 1 8c 43 64
        E 0 94 35 63
        E 1 9b 43 65
        E 0 9c 44 67
        E 32 8f 44 64
        E 0 82 33 67
        E 0 87 25 64
        E 1 8b 43 65
        E 0 95 25 66
        E 1 9f 44 64
        E 0 93 35 64
        E 0 9b 45 64
        E 35 8e 44 65
        E 0 8f 44 64
        E 1 81 34 64
        E 0 9e 44 65
        E 1 9f 45 65
        E 0 92 35 65
        E 33 85 25 66
        E 0 8d 44 66
        E 1 8e 44 65
        E 0 80 34 65
        E 0 98 26 64
        E 0 9d 44 66
        E 0 9e 46 64
        E 1 91 36 64
        E 34 8d 44 66
        E 0 84 35 63
        E 1 8c 44 67
        E 0 9d 46 65
        E 0 90 36 65
        E 1 94 35 63
        E 1 9c 44 67
        E 32 88 26 64
        E 1 83 35 64
        E 0 84 35 63
        E 0 8b 45 64
        E 0 8c 44 67
        E 1 96 27 64
        E 0 93 35 64
        E 0 94 36 66
        E 0 9b 45 64
        E 1 9c 46 66
        E 34 8f 45 65
        E 0 82 35 65
        E 1 83 35 64
        E 0 8b 45 64
        E 0 92 35 65
        E 0 93 36 67
        E 1 9b 46 67
        E 34 86 27 64
        E 0 8e 46 64
        E 0 81 36 64
        E 0 82 35 65
        E 1 9a 27 66
        E 0 9f 47 64
        E 0 91 36 64
        E 1 92 37 64
        E 36 8d 46 65
        E 0 80 36 65
        E 1 81 36 64
        E 0 9e 47 65
        E 0 90 36 65
        E 0 91 37 65
        E 31 8a 27 66
        E 0 80 36 65
        E 0 84 36 66
        E 1 8c 46 66
        E 0 9d 48 63
        E 0 90 38 64
        E 1 94 36 66
        E 0 97 28 64
        E 36 83 36 67
        E 1 84 36 66
        E 0 8b 46 67
        E 0 93 36 67
        E 1 94 38 65
        E 0 9c 48 64
        E 35 8f 47 64
        E 0 82 37 64
        E 0 83 36 67
        E 0 87 28 64
        E 1 95 29 63
        E 0 92 37 64
        E 1 93 38 66
        E 0 9b 48 65
        E 34 8e 47 65
        E 0 81 37 65
        E 0 82 37 64
        E 0 9a 29 64
        E 1 9f 49 64
        E 0 91 37 65
        E 1 92 38 67
        E 33 85 29 63
        E 0 8d 48 63
        E 0 80 38 64
        E 0 81 37 65
        E 1 98 29 65
        E 0 9e 48 64
        E 1 90 38 64
        E 0 91 39 64
        E 34 80 38 64
        E 0 84 38 65
        E 0 8c 48 64
        E 0 9d 49 66
        E 1 90 39 65
        E 0 94 38 65
        E 0 97 2a 64
        E 33 8a 29 64
        E 0 83 38 66
        E 1 84 38 65
        E 0 8b 48 65
        E 0 96 2a 65
        E 1 93 38 66
        E 0 94 3a 64
        E 0 9b 48 65
        E 0 9c 49 67
        E 35 88 29 65
        E 0 8f 49 64
        E 1 82 38 67
        E 0 83 38 66
        E 0 8b 48 65
        E 1 95 2a 66
        E 0 92 38 67
        E 2 93 3a 65
        E 1 9b 4a 64
        E 31 8e 48 64
        E 0 81 39 64
        E 1 82 38 67
        E 0 87 2a 64
        E 1 9a 2a 67
        E 0 9f 4a 65
        E 0 91 39 64
        E 0 92 3a 66
        E 34 86 2a 65
        E 1 8d 49 66
        E 0 80 39 65
        E 0 81 39 64
        E 1 98 2b 64
        E 0 9e 4b 64
        E 0 90 3b 64
        E 0 91 3a 67
        E 36 85 2a 66
        E 0 80 3b 64
        E 1 84 3a 64
        E 0 8c 49 67
        E 0 9d 4b 65
        E 1 90 3b 64
        E 0 94 3a 64
        E 0 97 2b 65
        E 33 8a 2a 67
        E 0 83 3a 65
        E 1 84 3a 64
        E 0 8b 4a 64
        E 0 96 2c 64
        E 1 93 3a 65
        E 0 94 3b 65
        E 0 9c 4b 66
        E 32 88 2b 64
        E 1 8f 4a 65
        E 0 82 3a 66
        E 0 83 3a 65
        E 0 95 2c 65
        E 1 92 3a 66
        E 0 93 3c 63
        E 0 9b 4b 67
        E 36 8e 4b 64
        E 0 81 3a 67
        E 1 82 3a 66
        E 0 87 2b 65
        E 1 9a 2c 66
        E 0 9f 4c 64
        E 0 91 3a 67
        E 1 92 3c 64
        E 34 86 2c 64
        E 0 8d 4b 65
        E 1 80 3b 64
        E 0 81 3a 67
        E 1 98 2c 67
        E 0 9e 4c 65
        E 0 90 3b 64
        E 1 91 3c 65
        E 33 85 2c 65
        E 0 80 3b 64
        E 0 84 3b 65
        E 1 8c 4b 66
        E 0 9d 4d 63
        E 0 90 3d 64
        E 0 94 3b 65
        E 1 97 2d 64
        E 32 8a 2c 66
        E 1 8f 4c 64
        E 0 83 3c 63
        E 1 84 3b 65
        E 0 8b 4b 67
        E 1 96 2d 65
        E 0 93 3c 63
        E 0 94 3d 65
        E 1 9c 4d 64
        E 33 88 2c 67
        E 0 8e 4c 65
        E 0 82 3c 64
        E 1 83 3c 63
        E 0 95 2e 64
        E 1 92 3c 64
        E 0 93 3d 66
        E 1 9b 4d 65
        E 33 8d 4d 63
        E 0 81 3c 65
        E 1 82 3c 64
        E 0 87 2d 64
        E 1 9a 2e 65
        E 0 9f 4e 64
        E 0 91 3c 65
        E 1 92 3d 67
        E 34 86 2d 65
        E 0 80 3d 64
        E 0 81 3c 65
        E 0 8c 4d 64
        E 1 98 2e 66
        E 0 9e 4e 65
        E 1 90 3d 64
        E 0 91 3e 64
        E 32 85 2e 64
        E 0 80 3d 64
        E 0 84 3d 65
        E 0 8b 4d 65
        E 1 9d 4e 66
        E 0 90 3e 65
        E 0 94 3d 65
        E 0 97 2e 67
        E 37 8f 4e 64
        E 0 83 3d 66
        E 0 84 3d 65
        E 0 96 2f 64
        E 1 93 3d 66
        E 0 94 3f 64
        E 0 9c 4e 67
        E 34 8a 2e 65
        E 0 8e 4e 65
        E 0 82 3d 67
        E 1 83 3d 66
        E 0 95 2f 65
        E 0 92 3d 67
        E 0 93 3f 65
        E 1 9b 4f 64
        E 35 88 2e 66
        E 0 8d 4e 66
        E 0 81 3e 64
        E 1 82 3d 67
        E 0 9a 30 63
        E 0 9f 4f 65
        E 1 91 3e 64
        E 0 92 3f 66
        E 33 80 3e 65
        E 0 81 3e 64
        E 1 87 2e 67
        E 0 8c 4e 67
        E 0 98 30 64
        E 1 9e 50 64
        E 0 90 3e 65
        E 1 91 3f 67
        E 32 86 2f 64
        E 1 80 3e 65
        E 0 84 3f 64
        E 0 8b 4f 64
        E 1 9d 50 65
        E 0 90 40 64
        E 0 94 3f 64
        E 1 97 30 65
        E 36 85 2f 65
        E 0 8f 4f 65
        E 0 83 3f 65
        E 1 84 3f 64
        E 0 96 31 64
        E 0 93 3f 65
        E 1 94 40 65
        E 0 9c 50 66
        E 33 8a 30 63
        E 0 8e 50 64
        E 1 82 3f 66
        E 0 83 3f 65
        E 1 95 31 65
        E 0 92 3f 66
        E 0 93 41 63
        E 1 9b 50 67
        E 31 88 30 64
        E 0 8d 50 65
        E 0 81 3f 67
        E 1 82 3f 66
        E 0 9a 31 66
        E 0 9f 51 64
        E 1 91 3f 67
        E 0 92 41 64
        E 34 80 40 64
        E 0 81 3f 67
        E 1 87 30 65
        E 0 8b 50 67
        E 0 8c 50 66
        E 1 98 31 67
        E 0 9e 51 65
        E 0 90 40 64
        E 1 91 41 65
        E 33 86 31 64
        E 0 8f 51 64
        E 1 80 40 64
        E 0 84 40 65
        E 1 9d 52 64
        E 0 90 42 64
        E 0 94 40 65
        E 1 97 32 64
        E 34 85 31 65
        E 0 8e 51 65
        E 1 83 41 63
        E 0 84 40 65
        E 1 96 32 65
        E 0 93 41 63
        E 0 94 42 65
        E 0 9c 52 65
        E 34 8a 31 66
        E 0 8d 52 64
        E 0 82 41 64
        E 1 83 41 63
        E 0 95 33 64
        E 1 92 41 64
        E 0 93 42 66
        E 0 9b 52 66
        E 35 88 31 67
        E 0 81 41 65
        E 1 82 41 64
        E 0 8c 52 65
        E 0 9a 33 65
        E 1 9f 52 67
        E 0 91 41 65
        E 0 92 42 67
        E 32 80 42 64
        E 0 81 41 65
        E 1 87 32 64
        E 0 8b 52 66
        E 0 98 33 66
        E 1 9e 53 64
        E 0 90 42 64
        E 0 91 43 64
        E 34 86 32 65
        E 1 8f 52 67
        E 0 80 42 64
        E 0 84 42 65
        E 1 9d 53 65
        E 0 90 43 65
        E 0 94 42 65
        E 0 97 33 67
        E 34 85 33 64
        E 0 83 42 66
        E 1 84 42 65
        E 0 96 34 64
        E 0 93 42 66
        E 1 94 44 64
        E 36 8a 33 65
        E 0 8d 53 65
        E 1 8e 53 64
        E 0 82 42 67
        E 0 83 42 66
        E 0 95 34 65
        E 1 9f 54 64
        E 0 92 42 67
        E 0 93 44 65
        E 0 9b 24 64
        E 35 88 33 66
        E 0 81 43 64
        E 1 82 42 67
        E 0 9a 35 63
        E 0 9e 54 65
        E 0 91 43 64
        E 1 92 44 66
        E 34 8f 54 64
        E 0 80 43 65
        E 1 81 43 64
        E 0 87 33 67
        E 0 8b 24 64
        E 0 98 35 64
        E 0 9d 25 64
        E 1 90 43 65
        E 0 91 44 67
        E 30 86 34 64
        E 1 8e 54 65
        E 0 80 43 65
        E 0 84 44 64
        E 1 90 45 64
        E 0 94 44 64
        E 0 97 35 65
        E 35 85 34 65
        E 0 8d 25 64
        E 0 83 44 65
        E 0 84 44 64
        E 1 96 36 64
        E 0 93 44 65
        E 0 94 45 65
        E 0 9b 25 66
        E 34 8a 35 63
        E 1 82 44 66
        E 0 83 44 65
        E 0 95 36 65
        E 1 9a 35 63
        E 0 92 44 66
        E 0 93 46 64
        E 37 88 35 64
        E 0 8a 35 63
        E 0 81 44 67
        E 1 82 44 66
        E 0 8b 25 66
        E 1 98 35 64
        E 0 9a 36 66
        E 0 9e 26 64
        E 0 91 44 67
        E 0 92 46 65
        E 32 88 35 64
        E 0 80 45 64
        E 0 81 44 67
        E 1 87 35 65
        E 0 98 36 67
        E 0 90 45 64
        E 1 91 46 66
        E 0 97 35 65
        E 34 86 36 64
        E 0 8e 26 64
        E 0 80 45 64
        E 0 84 45 65
        E 1 87 35 65
        E 0 96 36 64
        E 0 90 46 67
        E 1 97 37 64
        E 1 9c 27 64
        E 33 85 36 65
        E 0 86 36 64
        E 0 83 46 64
        E 1 95 36 65
        E 0 96 37 65
        E 1 94 47 64
        E 35 85 36 65
        E 0 8a 36 66
        E 0 82 46 65
        E 1 8c 27 64
        E 0 95 38 64
        E 1 9a 36 66
        E 0 9f 27 66
        E 0 93 47 65
        E 35 88 36 67
        E 0 8a 36 66
        E 0 81 46 66
        E 0 98 36 67
        E 1 9a 38 65
        E 0 92 48 63
        E 35 88 36 67
        E 0 8f 27 66
        E 0 80 46 67
        E 1 87 37 64
        E 0 98 38 66
        E 0 9d 28 64
        E 0 91 48 64
        E 1 97 37 64
        E 35 86 37 65
        E 0 84 47 64
        E 0 87 37 64
        E 1 96 37 65
        E 0 90 48 65
        E 0 97 38 67
        E 34 85 38 64
        E 0 86 37 65
        E 1 8d 28 64
        E 0 83 47 65
        E 1 95 38 64
        E 0 96 39 64
        E 0 94 49 64
        E 0 9b 29 63
        E 31 85 38 64
        E 0 8a 38 65
        E 0 82 48 63
        E 1 95 39 65
        E 0 9a 38 65
        E 1 9f 29 64
        E 0 93 48 64
        E 37 88 38 66
        E 0 8a 38 65
        E 1 81 48 64
        E 0 8b 29 63
        E 0 98 38 66
        E 1 9a 3a 64
        E 0 9e 29 65
        E 0 92 49 66
        E 34 88 38 66
        E 0 80 48 65
        E 1 87 38 67
        E 0 98 3a 65
        E 0 9d 2a 64
        E 1 90 48 65
        E 0 91 49 67
        E 0 97 38 67
        E 35 86 39 64
        E 0 8f 29 64
        E 1 80 48 65
        E 0 84 49 64
        E 0 87 38 67
        E 1 96 39 64
        E 0 90 4a 64
        E 0 97 3a 66
        E 0 9c 2a 65
        E 31 85 39 65
        E 0 86 39 64
        E 0 8e 29 65
        E 0 83 48 64
        E 1 95 3b 64
        E 0 96 3a 67
        E 0 94 4a 65
        E 1 9b 2a 66
        E 33 85 3b 64
        E 1 8a 3a 64
        E 0 8d 2a 64
        E 1 82 49 66
        E 0 95 3b 64
        E 0 9a 3a 64
        E 1 9f 2a 67
        E 0 93 4b 64
        E 36 88 3a 65
        E 1 8a 3a 64
        E 0 81 49 67
        E 0 8c 2a 65
        E 0 98 3a 65
        E 1 9a 3b 65
        E 0 9e 2b 64
        E 0 92 4b 65
        E 35 88 3a 65
        E 0 80 4a 64
        E 1 87 3a 66
        E 1 8b 2a 66
        E 0 98 3c 63
        E 0 9d 2b 65
        E 0 91 4b 66
        E 0 97 3a 66
        E 31 86 3a 67
        E 1 8f 2a 67
        E 0 84 4a 65
        E 0 87 3a 66
        E 0 96 3a 67
        E 1 90 4b 67
        E 0 97 3c 64
        E 0 9c 2c 64
        E 36 85 3b 64
        E 1 86 3a 67
        E 0 8e 2b 64
        E 0 83 4b 64
        E 1 95 3b 64
        E 0 96 3c 65
        E 0 94 4c 64
        E 1 9b 2c 65
        E 32 85 3b 64
        E 0 8a 3b 65
        E 1 8d 2b 65
        E 0 82 4b 65
        E 0 95 3d 64
        E 1 9a 3b 65
        E 0 9f 2c 66
        E 0 93 4c 65
        E 35 88 3c 63
        E 0 8a 3b 65
        E 1 81 4b 66
        E 1 8c 2c 64
        E 0 98 3c 63
        E 0 9a 3d 65
        E 1 9e 2c 67
        E 0 92 4d 63
        E 32 88 3c 63
        E 0 80 4b 67
        E 0 84 4c 64
        E 1 87 3c 64
        E 0 8b 2c 65
        E 1 98 3d 66
        E 0 9d 2d 64
        E 0 91 4d 64
        E 1 97 3c 64
        E 33 86 3c 65
        E 0 8f 2c 66
        E 1 83 4c 65
        E 0 87 3c 64
        E 1 96 3c 65
        E 0 90 4d 65
        E 0 97 3d 67
        E 1 9c 2d 65
        E 35 85 3d 64
        E 0 86 3c 65
        E 0 8e 2c 67
        E 1 82 4d 63
        E 0 95 3d 64
        E 1 96 3e 64
        E 0 94 4e 64
        E 0 9b 2e 64
        E 31 85 3d 64
        E 0 8a 3d 65
        E 1 8d 2d 64
        E 0 81 4d 64
        E 0 95 3e 65
        E 1 9a 3d 65
        E 0 9f 2e 65
        E 0 93 4e 65
        E 35 88 3d 66
        E 0 8a 3d 65
        E 1 80 4d 65
        E 0 8c 2d 65
        E 0 98 3d 66
        E 1 9a 3f 64
        E 0 9e 2e 66
        E 0 92 4e 66
        E 34 88 3d 66
        E 0 84 4e 64
        E 0 87 3d 67
        E 1 8b 2e 64
        E 0 98 3f 65
        E 1 9d 2e 67
        E 0 91 4e 67
        E 0 97 3d 67
        E 34 86 3e 64
        E 1 83 4e 65
        E 0 87 3d 67
        E 1 96 3e 64
        E 0 90 4f 64
        E 0 97 3f 66
        E 0 9c 2f 64
        E 36 85 3e 65
        E 0 86 3e 64
        E 1 8f 2e 65
        E 0 82 4e 66
        E 0 95 3e 65
        E 1 96 3f 67
        E 0 94 4f 65
        E 1 9b 2f 65
        E 30 85 3e 65
        E 0 8a 3f 64
        E 1 8e 2e 66
        E 0 81 4e 67
        E 1 95 40 64
        E 0 9a 3f 64
        E 0 9f 30 63
        E 1 93 50 64
        E 32 88 3f 65
        E 0 8a 3f 64
        E 1 8d 2e 67
        E 0 80 4f 64
        E 1 98 3f 65
        E 0 9a 40 65
        E 0 9e 30 64
        E 1 92 50 65
        E 35 88 3f 65
        E 0 84 4f 65
        E 1 87 3f 66
        E 0 8c 2f 64
        E 1 98 41 63
        E 0 9d 30 65
        E 0 91 50 66
        E 1 97 3f 66
        E 33 86 3f 67
        E 1 83 50 64
        E 0 87 3f 66
        E 0 8b 2f 65
        E 1 96 3f 67
        E 0 90 50 67
        E 1 97 41 64
        E 0 9c 31 64
        E 32 85 40 64
        E 0 86 3f 67
        E 1 8f 30 63
        E 0 82 50 65
        E 0 95 40 64
        E 1 96 41 65
        E 0 94 51 64
        E 0 9b 31 65
        E 35 85 40 64
        E 1 8a 40 65
        E 0 8e 30 64
        E 0 80 50 67
        E 1 81 50 66
        E 0 95 42 64
        E 0 9a 40 65
        E 1 9f 31 66
        E 0 93 51 65
        E 35 88 41 63
        E 1 8a 40 65
        E 0 8d 30 65
        E 0 84 51 64
        E 1 98 41 63
        E 0 9a 42 65
        E 1 9e 31 67
        E 0 92 52 64
        E 31 88 41 63
        E 1 83 51 65
        E 0 87 41 64
        E 0 8c 31 64
        E 1 98 42 66
        E 0 9d 32 64
        E 1 91 52 65
        E 0 97 41 64
        E 32 86 41 65
        E 0 82 52 64
        E 0 87 41 64
        E 1 8b 31 65
        E 0 96 41 65
        E 1 90 52 66
        E 0 97 42 67
        E 1 9c 32 65
        E 33 85 42 64
        E 0 86 41 65
        E 1 8f 31 66
        E 0 81 52 65
        E 0 95 42 64
        E 1 96 43 64
        E 0 94 52 67
        E 0 9b 33 64
        E 35 85 42 64
        E 0 8a 42 65
        E 0 8e 31 67
        E 1 80 52 66
        E 0 95 43 65
        E 1 9a 42 65
        E 0 9f 33 65
        E 1 93 53 64
        E 34 88 42 66
        E 0 8a 42 65
        E 1 8d 32 64
        E 0 84 52 67
        E 1 98 42 66
        E 0 9a 44 64
        E 0 9e 33 66
        E 1 92 53 65
        E 31 88 42 66
        E 0 87 42 67
        E 0 8c 32 65
        E 1 98 44 65
        E 0 9d 33 67
        E 1 97 42 67
        E 34 85 43 65
        E 0 86 43 64
        E 1 88 44 65
        E 0 8a 44 64
        E 0 8d 33 67
        E 1 8e 33 66
        E 0 8f 33 65
        E 0 82 53 65
        E 1 83 53 64
        E 0 87 42 67
        E 1 8b 33 64
        E 0 95 43 65
        E 1 96 43 64
        E 0 98 44 65
        E 1 9a 44 64
        E 0 9d 33 67
        E 0 9e 33 66
        E 1 9f 33 65
        E 0 90 24 64
        E 0 94 54 64
        E 1 97 44 66
        E 0 9c 34 64
        E 31 86 43 64
        E 0 8f 33 65
        E 1 96 44 67
        E 0 93 54 65
        E 0 9b 34 65
        E 38 85 43 65
        E 0 8e 33 66
        E 0 80 24 64
        E 0 84 54 64
        E 1 95 45 64
        E 0 9f 35 63
        E 0 92 25 64
        E 38 8a 44 64
        E 0 8d 33 67
        E 0 83 54 65
        E 1 9a 45 65
        E 0 9e 35 64
        E 37 88 44 65
        E 1 82 25 64
        E 0 87 44 66
        E 0 8c 34 64
        E 1 98 46 64
        E 0 9d 35 65
        E 0 90 25 66
        E 1 97 44 66
        E 34 86 44 67
        E 1 87 44 66
        E 1 8b 34 65
        E 0 96 44 67
        E 0 97 46 65
        E 1 9c 36 64
        E 34 85 45 64
        E 1 86 44 67
        E 0 8f 35 63
        E 1 80 25 66
        E 0 95 45 64
        E 1 96 46 66
        E 0 9f 35 63
        E 1 93 26 64
        E 0 9b 36 65
        E 35 85 45 64
        E 1 8a 45 65
        E 0 8e 35 64
        E 0 8f 35 63
        E 1 95 46 67
        E 0 9e 35 64
        E 1 9f 36 66
        E 36 88 46 64
        E 1 8d 35 65
        E 0 8e 35 64
        E 1 83 26 64
        E 0 9a 47 64
        E 0 9d 35 65
        E 1 9e 36 67
        E 0 91 27 64
        E 38 8d 35 65
        E 0 87 46 65
        E 1 8c 36 64
        E 0 98 47 65
        E 0 9d 37 64
        E 0 9c 36 64
        E 36 86 46 66
        E 0 81 27 64
        E 1 8b 36 65
        E 0 8c 36 64
        E 1 94 27 66
        E 0 97 48 63
        E 1 9b 36 65
        E 0 9c 37 65
        E 34 85 46 67
        E 1 8f 36 66
        E 0 8b 36 65
        E 1 96 48 64
        E 0 9f 36 66
        E 0 9b 38 64
        E 38 8a 47 64
        E 0 8e 36 67
        E 0 8f 36 66
        E 1 84 27 66
        E 0 95 48 65
        E 0 9e 36 67
        E 1 9f 38 65
        E 0 92 28 64
        E 38 88 47 65
        E 0 8d 37 64
        E 0 8e 36 67
        E 1 9a 49 64
        E 0 9d 37 64
        E 0 9e 38 66
        E 37 8d 37 64
        E 0 82 28 64
        E 0 87 48 63
        E 0 8c 37 65
        E 0 98 48 64
        E 1 9d 38 67
        E 0 90 29 63
        E 0 9c 37 65
        E 36 86 48 64
        E 0 8b 38 64
        E 1 8c 37 65
        E 0 94 29 64
        E 0 97 49 66
        E 1 9b 38 64
        E 0 9c 39 64
        E 36 85 48 65
        E 1 8f 38 65
        E 0 80 29 63
        E 1 8b 38 64
        E 0 95 48 65
        E 0 96 49 67
        E 1 9f 38 65
        E 0 93 29 65
        E 0 9b 39 65
        E 36 85 48 65
        E 1 8a 49 64
        E 0 8e 38 66
        E 0 8f 38 65
        E 1 95 4a 64
        E 0 9e 38 66
        E 0 9f 3a 64
        E 1 92 2a 64
        E 36 88 48 64
        E 0 8d 38 67
        E 1 8e 38 66
        E 0 84 29 64
        E 1 9a 4a 65
        E 0 9d 38 67
        E 0 9e 3a 65
        E 1 91 2a 65
        E 35 8d 38 67
        E 0 83 29 65
        E 1 87 49 66
        E 0 8c 39 64
        E 1 98 4b 64
        E 0 9d 3a 66
        E 0 90 2a 66
        E 1 9c 39 64
        E 35 86 49 67
        E 0 82 2a 64
        E 1 8b 39 65
        E 0 8c 39 64
        E 1 94 2a 67
        E 0 97 4b 65
        E 0 9b 3b 64
        E 1 9c 3a 67
        E 36 85 4a 64
        E 0 8f 3a 64
        E 1 81 2a 65
        E 0 8b 3b 64
        E 1 96 4b 66
        E 0 9f 3a 64
        E 0 93 2b 64
        E 1 9b 3b 64
        E 35 8a 4a 65
        E 0 8e 3a 65
        E 1 8f 3a 64
        E 0 80 2a 66
        E 1 95 4b 67
        E 0 9e 3a 65
        E 0 9f 3b 65
        E 1 92 2b 65
        E 34 88 4b 64
        E 0 8d 3a 66
        E 1 8e 3a 65
        E 1 84 2a 67
        E 0 9a 4c 64
        E 0 9d 3a 66
        E 1 9e 3c 63
        E 0 91 2c 64
        E 36 8d 3a 66
        E 0 83 2b 64
        E 0 87 4b 65
        E 1 8c 3a 67
        E 0 98 4c 65
        E 1 9d 3c 64
        E 0 90 2c 65
        E 0 9c 3a 67
        E 37 86 4b 66
        E 0 82 2b 65
        E 0 8b 3b 64
        E 1 8c 3a 67
        E 0 94 2c 66
        E 0 97 4d 63
        E 1 9b 3b 64
        E 0 9c 3c 65
        E 36 85 4b 67
        E 1 8a 4c 64
        E 0 8f 3b 65
        E 1 81 2c 64
        E 0 8b 3b 64
        E 1 96 4d 64
        E 0 9f 3b 65
        E 0 93 2c 67
        E 1 9b 3d 64
        E 35 88 4c 65
        E 1 8e 3c 63
        E 0 8f 3b 65
        E 1 80 2c 65
        E 0 95 4d 65
        E 1 9e 3c 63
        E 0 9f 3d 65
        E 1 92 2d 64
        E 33 8d 3c 64
        E 0 8e 3c 63
        E 1 84 2c 66
        E 0 87 4d 63
        E 0 9a 4e 64
        E 1 9d 3c 64
        E 0 9e 3d 66
        E 1 91 2d 65
        E 36 86 4d 64
        E 0 8d 3c 64
        E 1 83 2c 67
        E 0 8c 3c 65
        E 0 98 4e 65
        E 1 9d 3d 67
        E 0 90 2e 64
        E 0 9c 3c 65
        E 37 85 4d 65
        E 1 82 2d 64
        E 0 8b 3d 64
        E 0 8c 3c 65
        E 1 94 2e 65
        E 0 97 4e 66
        E 1 9b 3d 64
        E 0 9c 3e 64
        E 35 8a 4e 64
        E 0 8f 3d 65
        E 0 81 2d 65
        E 1 8b 3d 64
        E 0 96 4e 67
        E 0 9f 3d 65
        E 1 93 2e 66
        E 0 9b 3e 65
        E 36 88 4e 65
        E 0 8e 3d 66
        E 1 8f 3d 65
        E 0 80 2e 64
        E 0 95 4f 64
        E 1 9e 3d 66
        E 0 9f 3f 64
        E 0 92 2e 67
        E 36 8d 3d 67
        E 0 8e 3d 66
        E 0 87 4e 66
        E 1 9a 4f 65
        E 0 9d 3d 67
        E 1 9e 3f 65
        E 0 91 2f 64
        E 37 86 4e 67
        E 0 8d 3d 67
        E 0 84 2e 65
        E 0 8c 3e 64
        E 1 98 50 64
        E 0 9d 3f 66
        E 0 90 2f 65
        E 0 9c 3e 64
        E 40 85 4f 64
        E 0 83 2e 66
        E 0 8b 3e 65
        E 1 8c 3e 64
        E 0 94 30 63
        E 0 97 50 65
        E 1 9b 3e 65
        E 0 9c 3f 67
        E 36 8a 4f 65
        E 0 8f 3f 64
        E 1 82 2e 67
        E 0 8b 3e 65
        E 0 96 50 66
        E 1 9f 3f 64
        E 0 93 30 64
        E 0 9b 40 64
        E 35 88 50 64
        E 0 8e 3f 65
        E 0 8f 3f 64
        E 0 81 2f 64
        E 1 95 50 67
        E 0 9e 3f 65
        E 0 9f 40 65
        E 1 92 30 65
        E 34 8d 3f 66
        E 1 8e 3f 65
        E 0 80 2f 65
        E 0 87 50 65
        E 0 9a 51 64
        E 1 9d 3f 66
        E 0 9e 41 63
        E 0 91 31 64
        E 39 85 50 67
        E 0 86 50 66
        E 0 8d 3f 66
        E 0 84 30 63
        E 1 8c 3f 67
        E 0 98 51 65
        E 0 9d 41 64
        E 1 90 31 65
        E 0 9c 3f 67
        E 37 8a 51 64
        E 1 83 30 64
        E 0 8b 40 64
        E 0 8c 3f 67
        E 0 94 31 66
        E 1 97 52 64
        E 0 9b 40 64
        E 0 9c 41 65
        E 36 88 51 65
        E 1 8f 40 65
        E 0 82 30 65
        E 0 8b 40 64
        E 1 96 52 65
        E 0 9f 40 65
        E 0 93 31 67
        E 1 9b 42 64
        E 33 8e 41 63
        E 1 8f 40 65
        E 0 81 31 64
        E 0 87 52 64
        E 1 95 52 66
        E 0 9e 41 63
        E 1 9f 42 65
        E 0 92 32 64
        E 36 86 52 65
        E 0 8d 41 64
        E 0 8e 41 63
        E 0 80 31 65
        E 1 9a 52 67
        E 0 9d 41 64
        E 1 9e 42 66
        E 0 91 32 65
        E 36 85 52 66
        E 1 8d 41 64
        E 0 84 31 66
        E 1 8c 41 65
        E 0 98 53 64
        E 0 9d 42 67
        E 0 90 33 64
        E 1 9c 41 65
        E 36 8a 52 67
        E 1 83 31 67
        E 0 8b 42 64
        E 1 8c 41 65
        E 0 94 33 65
        E 1 97 53 65
        E 0 9b 42 64
        E 1 9c 43 64
        E 37 8f 42 65
        E 0 82 32 64
        E 1 8b 42 64
        E 0 9f 42 65
        E 1 93 33 66
        E 0 9b 43 65
        E 33 88 53 64
        E 0 8e 42 66
        E 1 8f 42 65
        E 0 81 32 65
        E 1 87 53 65
        E 0 95 24 64
        E 1 9a 54 64
        E 0 9e 42 66
        E 1 9f 44 64
        E 0 92 33 67
        E 35 8d 42 67
        E 1 8e 42 66
        E 0 80 33 64
        E 1 98 54 65
        E 0 9d 42 67
        E 0 9e 44 65
        E 1 91 34 64
        E 38 85 24 64
        E 0 8a 54 64
        E 0 8d 42 67
        E 1 84 33 65
        E 0 8c 43 64
        E 1 9d 44 66
        E 0 90 34 65
        E 0 97 25 64
        E 0 9c 43 64
        E 36 88 54 65
        E 0 83 33 66
        E 0 8b 43 65
        E 0 8c 43 64
        E 0 94 35 63
        E 0 9b 43 65
        E 1 9c 44 67
        E 36 8f 44 64
        E 0 82 33 67
        E 1 87 25 64
        E 0 8b 43 65
        E 0 95 25 66
        E 1 9f 44 64
        E 0 93 35 64
        E 0 9b 45 64
        E 36 8e 44 65
        E 1 8f 44 64
        E 0 81 34 64
        E 1 9e 44 65
        E 0 9f 45 65
        E 0 92 35 65
        E 39 85 25 66
        E 0 8d 44 66
        E 1 8e 44 65
        E 1 80 34 65
        E 0 98 26 64
        E 0 9d 44 66
        E 1 9e 46 64
        E 0 91 36 64
        E 33 8d 44 66
        E 0 84 35 63
        E 1 8c 44 67
        E 0 9d 46 65
        E 1 90 36 65
        E 0 94 35 63
        E 0 9c 44 67
        E 37 88 26 64
        E 0 83 35 64
        E 1 84 35 63
        E 0 8b 45 64
        E 0 8c 44 67
        E 0 96 27 64
        E 1 93 35 64
        E 0 94 36 66
        E 1 9b 45 64
        E 0 9c 46 66
        E 35 8f 45 65
        E 0 82 35 65
        E 1 83 35 64
        E 0 8b 45 64
        E 0 92 35 65
        E 1 93 36 67
        E 0 9b 46 67
        E 36 86 27 64
        E 0 8e 46 64
        E 0 81 36 64
        E 0 82 35 65
        E 1 9a 27 66
        E 0 9f 47 64
        E 0 91 36 64
        E 1 92 37 64
        E 35 8d 46 65
        E 0 80 36 65
        E 1 81 36 64
        E 0 9e 47 65
        E 1 90 36 65
        E 0 91 37 65
        E 39 8a 27 66
        E 0 80 36 65
        E 1 84 36 66
        E 0 8c 46 66
        E 1 9d 48 63
        E 0 90 38 64
        E 0 94 36 66
        E 1 97 28 64
        E 35 83 36 67
        E 0 84 36 66
        E 0 8b 46 67
        E 1 93 36 67
        E 0 94 38 65
        E 1 9c 48 64
        E 37 8f 47 64
        E 0 82 37 64
        E 1 83 36 67
        E 0 87 28 64
        E 0 95 29 63
        E 0 92 37 64
        E 1 93 38 66
        E 0 9b 48 65
        E 37 8e 47 65
        E 0 81 37 65
        E 0 82 37 64
        E 1 9a 29 64
        E 0 9f 49 64
        E 1 91 37 65
        E 0 92 38 67
        E 33 85 29 63
        E 1 8d 48 63
        E 0 80 38 64
        E 1 81 37 65
        E 0 98 29 65
        E 1 9e 48 64
        E 0 90 38 64
        E 0 91 39 64
        E 38 80 38 64
        E 1 84 38 65
        E 0 8c 48 64
        E 0 9d 49 66
        E 1 90 39 65
        E 0 94 38 65
        E 1 97 2a 64
        E 35 8a 29 64
        E 1 83 38 66
        E 0 84 38 65
        E 1 8b 48 65
        E 0 96 2a 65
        E 0 93 38 66
        E 1 94 3a 64
        E 0 9b 48 65
        E 1 9c 49 67
        E 35 88 29 65
        E 0 8f 49 64
        E 0 82 38 67
        E 1 83 38 66
        E 0 8b 48 65
        E 1 95 2a 66
        E 0 92 38 67
        E 0 93 3a 65
        E 1 9b 4a 64
        E 35 8e 48 64
        E 1 81 39 64
        E 0 82 38 67
        E 1 87 2a 64
        E 0 9a 2a 67
        E 1 9f 4a 65
        E 0 91 39 64
        E 1 92 3a 66
        E 33 86 2a 65
        E 0 8d 49 66
        E 1 80 39 65
        E 1 81 39 64
        E 0 98 2b 64
        E 1 9e 4b 64
        E 0 90 3b 64
        E 0 91 3a 67
        E 37 85 2a 66
        E 0 80 3b 64
        E 1 84 3a 64
        E 0 8c 49 67
        E 0 9d 4b 65
        E 1 90 3b 64
        E 0 94 3a 64
        E 0 97 2b 65
        E 39 8a 2a 67
        E 1 83 3a 65
        E 0 84 3a 64
        E 0 8b 4a 64
        E 1 96 2c 64
        E 0 93 3a 65
        E 1 94 3b 65
        E 0 9c 4b 66
        E 38 88 2b 64
        E 0 8f 4a 65
        E 0 82 3a 66
        E 0 83 3a 65
        E 1 95 2c 65
        E 1 92 3a 66
        E 0 93 3c 63
        E 0 9b 4b 67
        E 40 8e 4b 64
        E 1 81 3a 67
        E 0 82 3a 66
        E 0 87 2b 65
        E 1 9a 2c 66
        E 0 9f 4c 64
        E 1 91 3a 67
        E 0 92 3c 64
        E 38 86 2c 64
        E 0 8d 4b 65
        E 1 80 3b 64
        E 0 81 3a 67
        E 0 98 2c 67
        E 1 9e 4c 65
        E 0 90 3b 64
        E 0 91 3c 65
        E 38 85 2c 65
        E 1 80 3b 64
        E 0 84 3b 65
        E 1 8c 4b 66
        E 0 9d 4d 63
        E 0 90 3d 64
        E 1 94 3b 65
        E 0 97 2d 64
        E 40 8a 2c 66
        E 0 8f 4c 64
        E 0 83 3c 63
        E 1 84 3b 65
        E 0 8b 4b 67
        E 1 96 2d 65
        E 0 93 3c 63
        E 1 94 3d 65
        E 0 9c 4d 64
        E 36 88 2c 67
        E 0 8e 4c 65
        E 0 82 3c 64
        E 1 83 3c 63
        E 0 95 2e 64
        E 0 92 3c 64
        E 1 93 3d 66
        E 0 9b 4d 65
        E 40 8d 4d 63
        E 1 81 3c 65
        E 0 82 3c 64
        E 1 87 2d 64
        E 0 9a 2e 65
        E 1 9f 4e 64
        E 0 91 3c 65
        E 0 92 3d 67
        E 36 86 2d 65
        E 0 80 3d 64
        E 1 81 3c 65
        E 0 8c 4d 64
        E 1 98 2e 66
        E 0 9e 4e 65
        E 1 90 3d 64
        E 0 91 3e 64
        E 39 85 2e 64
        E 0 80 3d 64
        E 0 84 3d 65
        E 1 8b 4d 65
        E 0 9d 4e 66
        E 1 90 3e 65
        E 0 94 3d 65
        E 0 97 2e 67
        E 39 8f 4e 64
        E 0 83 3d 66
        E 0 84 3d 65
        E 1 96 2f 64
        E 0 93 3d 66
        E 1 94 3f 64
        E 0 9c 4e 67
        E 41 8a 2e 65
        E 0 8e 4e 65
        E 0 82 3d 67
        E 1 83 3d 66
        E 0 95 2f 65
        E 0 92 3d 67
        E 1 93 3f 65
        E 0 9b 4f 64
        E 41 88 2e 66
        E 0 8d 4e 66
        E 0 81 3e 64
        E 1 82 3d 67
        E 0 9a 30 63
        E 1 9f 4f 65
        E 0 91 3e 64
        E 1 92 3f 66
        E 34 80 3e 65
        E 0 81 3e 64
        E 0 87 2e 67
        E 1 8c 4e 67
        E 0 98 30 64
        E 0 9e 50 64
        E 1 90 3e 65
        E 0 91 3f 67
        E 41 86 2f 64
        E 0 80 3e 65
        E 0 84 3f 64
        E 1 8b 4f 64
        E 1 9d 50 65
        E 0 90 40 64
        E 0 94 3f 64
        E 1 97 30 65
        E 38 85 2f 65
        E 0 8f 4f 65
        E 1 83 3f 65
        E 1 84 3f 64
        E 0 96 31 64
        E 0 93 3f 65
        E 0 94 40 65
        E 1 9c 50 66
        E 37 8a 30 63
        E 0 8e 50 64
        E 1 82 3f 66
        E 0 83 3f 65
        E 1 95 31 65
        E 0 92 3f 66
        E 0 93 41 63
        E 1 9b 50 67
        E 39 88 30 64
        E 0 8d 50 65
        E 1 81 3f 67
        E 1 82 3f 66
        E 0 9a 31 66
        E 0 9f 51 64
        E 0 91 3f 67
        E 0 92 41 64
        E 38 80 40 64
        E 0 81 3f 67
        E 0 87 30 65
        E 1 8b 50 67
        E 1 8c 50 66
        E 0 98 31 67
        E 1 9e 51 65
        E 0 90 40 64
        E 1 91 41 65
        E 37 86 31 64
        E 1 8f 51 64
        E 0 80 40 64
        E 0 84 40 65
        E 1 9d 52 64
        E 0 90 42 64
        E 0 94 40 65
        E 1 97 32 64
        E 38 85 31 65
        E 1 8e 51 65
        E 0 83 41 63
        E 1 84 40 65
        E 0 96 32 65
        E 0 93 41 63
        E 1 94 42 65
        E 0 9c 52 65
        E 40 8a 31 66
        E 0 8d 52 64
        E 1 82 41 64
        E 0 83 41 63
        E 0 95 33 64
        E 1 92 41 64
        E 0 93 42 66
        E 0 9b 52 66
        E 39 88 31 67
        E 1 81 41 65
        E 0 82 41 64
        E 1 8c 52 65
        E 1 9a 33 65
        E 0 9f 52 67
        E 1 91 41 65
        E 0 92 42 67
        E 35 80 42 64
        E 0 81 41 65
        E 0 87 32 64
        E 1 8b 52 66
        E 0 98 33 66
        E 1 9e 53 64
        E 0 90 42 64
        E 1 91 43 64
        E 40 86 32 65
        E 0 8f 52 67
        E 1 80 42 64
        E 0 84 42 65
        E 0 9d 53 65
        E 1 90 43 65
        E 0 94 42 65
        E 1 97 33 67
        E 37 85 33 64
        E 0 83 42 66
        E 1 84 42 65
        E 1 96 34 64
        E 0 93 42 66
        E 0 94 44 64
        E 42 8a 33 65
        E 0 8d 53 65
        E 0 8e 53 64
        E 1 82 42 67
        E 0 83 42 66
        E 0 95 34 65
        E 1 9f 54 64
        E 0 92 42 67
        E 0 93 44 65
        E 1 9b 24 64
        E 36 88 33 66
        E 0 81 43 64
        E 0 82 42 67
        E 1 9a 35 63
        E 0 9e 54 65
        E 0 91 43 64
        E 0 92 44 66
        E 42 8f 54 64
        E 0 80 43 65
        E 1 81 43 64
        E 0 87 33 67
        E 0 8b 24 64
        E 0 98 35 64
        E 1 9d 25 64
        E 0 90 43 65
        E 1 91 44 67
        E 38 86 34 64
        E 0 8e 54 65
        E 1 80 43 65
        E 0 84 44 64
        E 0 90 45 64
        E 1 94 44 64
        E 0 97 35 65
        E 38 85 34 65
        E 0 8d 25 64
        E 0 83 44 65
        E 1 84 44 64
        E 1 96 36 64
        E 0 93 44 65
        E 0 94 45 65
        E 0 9b 25 66
        E 40 8a 35 63
        E 0 82 44 66
        E 1 83 44 65
        E 0 95 36 65
        E 0 9a 35 63
        E 1 92 44 66
        E 0 93 46 64
        E 37 88 35 64
        E 1 8a 35 63
        E 0 81 44 67
        E 1 82 44 66
        E 0 8b 25 66
        E 0 98 35 64
        E 1 9a 36 66
        E 0 9e 26 64
        E 0 91 44 67
        E 1 92 46 65
        E 38 88 35 64
        E 0 80 45 64
        E 1 81 44 67
        E 0 87 35 65
        E 1 98 36 67
        E 0 90 45 64
        E 1 91 46 66
        E 0 97 35 65
        E 38 86 36 64
        E 0 8e 26 64
        E 0 80 45 64
        E 0 84 45 65
        E 1 87 35 65
        E 0 96 36 64
        E 0 90 46 67
        E 1 97 37 64
        E 0 9c 27 64
        E 41 85 36 65
        E 1 86 36 64
        E 0 83 46 64
        E 1 95 36 65
        E 0 96 37 65
        E 0 94 47 64
        E 39 85 36 65
        E 0 8a 36 66
        E 1 82 46 65
        E 0 8c 27 64
        E 0 95 38 64
        E 1 9a 36 66
        E 0 9f 27 66
        E 1 93 47 65
        E 38 88 36 67
        E 1 8a 36 66
        E 0 81 46 66
        E 1 98 36 67
        E 0 9a 38 65
        E 0 92 48 63
        E 38 88 36 67
        E 0 8f 27 66
        E 1 80 46 67
        E 0 87 37 64
        E 1 98 38 66
        E 1 9d 28 64
        E 0 91 48 64
        E 0 97 37 64
        E 38 86 37 65
        E 0 84 47 64
        E 0 87 37 64
        E 1 96 37 65
        E 0 90 48 65
        E 0 97 38 67
        E 41 85 38 64
        E 1 86 37 65
        E 0 8d 28 64
        E 0 83 47 65
        E 1 95 38 64
        E 0 96 39 64
        E 1 94 49 64
        E 0 9b 29 63
        E 38 85 38 64
        E 1 8a 38 65
        E 0 82 48 63
        E 0 95 39 65
        E 1 9a 38 65
        E 0 9f 29 64
        E 1 93 48 64
        E 38 88 38 66
        E 1 8a 38 65
        E 0 81 48 64
        E 0 8b 29 63
        E 1 98 38 66
        E 0 9a 3a 64
        E 1 9e 29 65
        E 0 92 49 66
        E 38 88 38 66
        E 0 80 48 65
        E 1 87 38 67
        E 0 98 3a 65
        E 1 9d 2a 64
        E 0 90 48 65
        E 0 91 49 67
        E 0 97 38 67
        E 37 86 39 64
        E 0 8f 29 64
        E 0 80 48 65
        E 1 84 49 64
        E 0 87 38 67
        E 1 96 39 64
        E 0 90 4a 64
        E 1 97 3a 66
        E 0 9c 2a 65
        E 42 85 39 65
        E 0 86 39 64
        E 0 8e 29 65
        E 0 83 48 64
        E 1 95 3b 64
        E 1 96 3a 67
        E 0 94 4a 65
        E 0 9b 2a 66
        E 44 85 3b 64
        E 0 8a 3a 64
        E 1 8d 2a 64
        E 0 82 49 66
        E 1 95 3b 64
        E 0 9a 3a 64
        E 0 9f 2a 67
        E 1 93 4b 64
        E 42 88 3a 65
        E 0 8a 3a 64
        E 0 81 49 67
        E 0 8c 2a 65
        E 0 98 3a 65
        E 1 9a 3b 65
        E 0 9e 2b 64
        E 0 92 4b 65
        E 42 88 3a 65
        E 0 80 4a 64
        E 0 87 3a 66
        E 1 8b 2a 66
        E 0 98 3c 63
        E 1 9d 2b 65
        E 0 91 4b 66
        E 0 97 3a 66
        E 42 86 3a 67
        E 0 8f 2a 67
        E 0 84 4a 65
        E 0 87 3a 66
        E 1 96 3a 67
        E 0 90 4b 67
        E 1 97 3c 64
        E 0 9c 2c 64
        E 43 85 3b 64
        E 1 86 3a 67
        E 0 8e 2b 64
        E 1 83 4b 64
        E 0 95 3b 64
        E 0 96 3c 65
        E 1 94 4c 64
        E 0 9b 2c 65
        E 43 85 3b 64
        E 0 8a 3b 65
        E 0 8d 2b 65
        E 1 82 4b 65
        E 0 95 3d 64
        E 0 9a 3b 65
        E 1 9f 2c 66
        E 0 93 4c 65
        E 40 88 3c 63
        E 1 8a 3b 65
        E 0 81 4b 66
        E 1 8c 2c 64
        E 0 98 3c 63
        E 1 9a 3d 65
        E 0 9e 2c 67
        E 0 92 4d 63
        E 41 88 3c 63
        E 0 80 4b 67
        E 1 84 4c 64
        E 0 87 3c 64
        E 0 8b 2c 65
        E 1 98 3d 66
        E 0 9d 2d 64
        E 0 91 4d 64
        E 1 97 3c 64
        E 41 86 3c 65
        E 0 8f 2c 66
        E 1 83 4c 65
        E 0 87 3c 64
        E 0 96 3c 65
        E 1 90 4d 65
        E 0 97 3d 67
        E 1 9c 2d 65
        E 43 85 3d 64
        E 1 86 3c 65
        E 0 8e 2c 67
        E 1 82 4d 63
        E 0 95 3d 64
        E 0 96 3e 64
        E 0 94 4e 64
        E 1 9b 2e 64
        E 41 85 3d 64
        E 1 8a 3d 65
        E 0 8d 2d 64
        E 1 81 4d 64
        E 0 95 3e 65
        E 1 9a 3d 65
        E 0 9f 2e 65
        E 0 93 4e 65
        E 39 88 3d 66
        E 1 8a 3d 65
        E 0 80 4d 65
        E 1 8c 2d 65
        E 0 98 3d 66
        E 1 9a 3f 64
        E 0 9e 2e 66
        E 1 92 4e 66
        E 41 88 3d 66
        E 0 84 4e 64
        E 1 87 3d 67
        E 0 8b 2e 64
        E 0 98 3f 65
        E 1 9d 2e 67
        E 0 91 4e 67
        E 0 97 3d 67
        E 45 86 3e 64
        E 0 83 4e 65
        E 0 87 3d 67
        E 1 96 3e 64
        E 0 90 4f 64
        E 0 97 3f 66
        E 1 9c 2f 64
        E 42 85 3e 65
        E 0 86 3e 64
        E 0 8f 2e 65
        E 1 82 4e 66
        E 0 95 3e 65
        E 0 96 3f 67
        E 1 94 4f 65
        E 0 9b 2f 65
        E 41 85 3e 65
        E 0 8a 3f 64
        E 1 8e 2e 66
        E 0 81 4e 67
        E 0 95 40 64
        E 1 9a 3f 64
        E 0 9f 30 63
        E 1 93 50 64
        E 43 88 3f 65
        E 0 8a 3f 64
        E 0 8d 2e 67
        E 1 80 4f 64
        E 0 98 3f 65
        E 0 9a 40 65
        E 1 9e 30 64
        E 0 92 50 65
        E 40 88 3f 65
        E 0 84 4f 65
        E 1 87 3f 66
        E 0 8c 2f 64
        E 0 98 41 63
        E 1 9d 30 65
        E 0 91 50 66
        E 0 97 3f 66
        E 45 86 3f 67
        E 0 83 50 64
        E 0 87 3f 66
        E 1 8b 2f 65
        E 0 96 3f 67
        E 1 90 50 67
        E 0 97 41 64
        E 0 9c 31 64
        E 41 85 40 64
        E 0 86 3f 67
        E 1 8f 30 63
        E 0 82 50 65
        E 1 95 40 64
        E 0 96 41 65
        E 0 94 51 64
        E 0 9b 31 65
        E 41 85 40 64
        E 0 8a 40 65
        E 1 8e 30 64
        E 0 80 50 67
        E 0 81 50 66
        E 1 95 42 64
        E 0 9a 40 65
        E 0 9f 31 66
        E 1 93 51 65
        E 41 88 41 63
        E 0 8a 40 65
        E 0 8d 30 65
        E 1 84 51 64
        E 0 98 41 63
        E 0 9a 42 65
        E 0 9e 31 67
        E 1 92 52 64
        E 42 88 41 63
        E 0 83 51 65
        E 1 87 41 64
        E 0 8c 31 64
        E 0 98 42 66
        E 1 9d 32 64
        E 0 91 52 65
        E 0 97 41 64
        E 45 86 41 65
        E 0 82 52 64
        E 0 87 41 64
        E 1 8b 31 65
        E 0 96 41 65
        E 0 90 52 66
        E 1 97 42 67
        E 0 9c 32 65
        E 40 85 42 64
        E 1 86 41 65
        E 0 8f 31 66
        E 1 81 52 65
        E 0 95 42 64
        E 1 96 43 64
        E 0 94 52 67
        E 0 9b 33 64
        E 42 85 42 64
        E 0 8a 42 65
        E 1 8e 31 67
        E 0 80 52 66
        E 0 95 43 65
        E 1 9a 42 65
        E 0 9f 33 65
        E 0 93 53 64
        E 44 88 42 66
        E 1 8a 42 65
        E 0 8d 32 64
        E 1 84 52 67
        E 1 98 42 66
        E 0 9a 44 64
        E 0 9e 33 66
        E 0 92 53 65
        E 42 88 42 66
        E 1 87 42 67
        E 0 8c 32 65
        E 0 98 44 65
        E 1 9d 33 67
        E 0 97 42 67
        E 41 85 43 65
        E 0 86 43 64
        E 0 88 44 65
        E 0 8a 44 64
        E 1 8d 33 67
        E 0 8e 33 66
        E 0 8f 33 65
        E 0 82 53 65
        E 1 83 53 64
        E 0 87 42 67
        E 0 8b 33 64
        E 1 95 43 65
        E 0 96 43 64
        E 0 98 44 65
        E 0 9a 44 64
        E 1 9d 33 67
        E 0 9e 33 66
        E 0 9f 33 65
        E 1 90 24 64
        E 0 94 54 64
        E 0 97 44 66
        E 1 9c 34 64
        E 40 86 43 64
        E 0 8f 33 65
        E 1 96 44 67
        E 0 93 54 65
        E 1 9b 34 65
        E 47 85 43 65
        E 0 8e 33 66
        E 1 80 24 64
        E 0 84 54 64
        E 1 95 45 64
        E 0 9f 35 63
        E 1 92 25 64
        E 47 8a 44 64
        E 0 8d 33 67
        E 0 83 54 65
        E 2 9a 45 65
        E 0 9e 35 64
        E 44 88 44 65
        E 0 82 25 64
        E 1 87 44 66
        E 0 8c 34 64
        E 0 98 46 64
        E 0 9d 35 65
        E 1 90 25 66
        E 0 97 44 66
        E 44 86 44 67
        E 1 87 44 66
        E 0 8b 34 65
        E 0 96 44 67
        E 0 97 46 65
        E 1 9c 36 64
        E 48 85 45 64
        E 0 86 44 67
        E 0 8f 35 63
        E 1 80 25 66
        E 0 95 45 64
        E 0 96 46 66
        E 0 9f 35 63
        E 1 93 26 64
        E 0 9b 36 65
        E 48 85 45 64
        E 0 8a 45 65
        E 1 8e 35 64
        E 0 8f 35 63
        E 0 95 46 67
        E 0 9e 35 64
        E 1 9f 36 66
        E 45 88 46 64
        E 1 8d 35 65
        E 0 8e 35 64
        E 0 83 26 64
        E 1 9a 47 64
        E 0 9d 35 65
        E 0 9e 36 67
        E 0 91 27 64
        E 46 8d 35 65
        E 0 87 46 65
        E 1 8c 36 64
        E 0 98 47 65
        E 0 9d 37 64
        E 1 9c 36 64
        E 46 86 46 66
        E 1 81 27 64
        E 0 8b 36 65
        E 0 8c 36 64
        E 0 94 27 66
        E 1 97 48 63
        E 0 9b 36 65
        E 0 9c 37 65
        E 47 85 46 67
        E 0 8f 36 66
        E 1 8b 36 65
        E 0 96 48 64
        E 0 9f 36 66
        E 1 9b 38 64
        E 44 8a 47 64
        E 1 8e 36 67
        E 0 8f 36 66
        E 0 84 27 66
        E 0 95 48 65
        E 1 9e 36 67
        E 0 9f 38 65
        E 0 92 28 64
        E 49 88 47 65
        E 0 8d 37 64
        E 0 8e 36 67
        E 1 9a 49 64
        E 0 9d 37 64
        E 0 9e 38 66
        E 44 8d 37 64
        E 0 82 28 64
        E 1 87 48 63
        E 0 8c 37 65
        E 1 98 48 64
        E 0 9d 38 67
        E 0 90 29 63
        E 1 9c 37 65
        E 45 86 48 64
        E 0 8b 38 64
        E 1 8c 37 65
        E 0 94 29 64
        E 1 97 49 66
        E 0 9b 38 64
        E 0 9c 39 64
        E 46 85 48 65
        E 0 8f 38 65
        E 1 80 29 63
        E 0 8b 38 64
        E 0 95 48 65
        E 1 96 49 67
        E 0 9f 38 65
        E 0 93 29 65
        E 2 9b 39 65
        E 45 85 48 65
        E 0 8a 49 64
        E 1 8e 38 66
        E 0 8f 38 65
        E 0 95 4a 64
        E 0 9e 38 66
        E 1 9f 3a 64
        E 0 92 2a 64
        E 46 88 48 64
        E 0 8d 38 67
        E 0 8e 38 66
        E 0 84 29 64
        E 0 9a 4a 65
        E 1 9d 38 67
        E 0 9e 3a 65
        E 0 91 2a 65
        E 48 8d 38 67
        E 0 83 29 65
        E 0 87 49 66
        E 0 8c 39 64
        E 1 98 4b 64
        E 0 9d 3a 66
        E 0 90 2a 66
        E 0 9c 39 64
        E 46 86 49 67
        E 1 82 2a 64
        E 0 8b 39 65
        E 1 8c 39 64
        E 0 94 2a 67
        E 1 97 4b 65
        E 0 9b 3b 64
        E 0 9c 3a 67
        E 46 85 4a 64
        E 1 8f 3a 64
        E 0 81 2a 65
        E 1 8b 3b 64
        E 0 96 4b 66
        E 1 9f 3a 64
        E 0 93 2b 64
        E 0 9b 3b 64
        E 44 8a 4a 65
        E 0 8e 3a 65
        E 1 8f 3a 64
        E 1 80 2a 66
        E 0 95 4b 67
        E 1 9e 3a 65
        E 0 9f 3b 65
        E 1 92 2b 65
        E 44 88 4b 64
        E 1 8d 3a 66
        E 0 8e 3a 65
        E 1 84 2a 67
        E 1 9a 4c 64
        E 0 9d 3a 66
        E 1 9e 3c 63
        E 0 91 2c 64
        E 44 8d 3a 66
        E 1 83 2b 64
        E 0 87 4b 65
        E 1 8c 3a 67
        E 0 98 4c 65
        E 1 9d 3c 64
        E 0 90 2c 65
        E 1 9c 3a 67
        E 44 86 4b 66
        E 0 82 2b 65
        E 1 8b 3b 64
        E 0 8c 3a 67
        E 1 94 2c 66
        E 1 97 4d 63
        E 0 9b 3b 64
        E 1 9c 3c 65
        E 43 85 4b 67
        E 1 8a 4c 64
        E 0 8f 3b 65
        E 1 81 2c 64
        E 0 8b 3b 64
        E 1 96 4d 64
        E 0 9f 3b 65
        E 1 93 2c 67
        E 0 9b 3d 64
        E 45 88 4c 65
        E 0 8e 3c 63
        E 1 8f 3b 65
        E 0 80 2c 65
        E 1 95 4d 65
        E 1 9e 3c 63
        E 0 9f 3d 65
        E 1 92 2d 64
        E 49 8d 3c 64
        E 1 8e 3c 63
        E 0 84 2c 66
        E 1 87 4d 63
        E 1 9a 4e 64
        E 0 9d 3c 64
        E 1 9e 3d 66
        E 1 91 2d 65
        E 48 86 4d 64
        E 0 8d 3c 64
        E 1 83 2c 67
        E 1 8c 3c 65
        E 0 98 4e 65
        E 1 9d 3d 67
        E 0 90 2e 64
        E 1 9c 3c 65
        E 45 85 4d 65
        E 1 82 2d 64
        E 0 8b 3d 64
        E 1 8c 3c 65
        E 0 94 2e 65
        E 0 97 4e 66
        E 1 9b 3d 64
        E 0 9c 3e 64
        E 51 8a 4e 64
        E 1 8f 3d 65
        E 0 81 2d 65
        E 1 8b 3d 64
        E 1 96 4e 67
        E 0 9f 3d 65
        E 2 93 2e 66
        E 0 9b 3e 65
        E 49 88 4e 65
        E 0 8e 3d 66
        E 1 8f 3d 65
        E 0 80 2e 64
        E 1 95 4f 64
        E 1 9e 3d 66
        E 0 9f 3f 64
        E 1 92 2e 67
        E 48 8d 3d 67
        E 0 8e 3d 66
        E 1 87 4e 66
        E 0 9a 4f 65
        E 1 9d 3d 67
        E 0 9e 3f 65
        E 1 91 2f 64
        E 47 86 4e 67
        E 1 8d 3d 67
        E 0 84 2e 65
        E 1 8c 3e 64
        E 0 98 50 64
        E 1 9d 3f 66
        E 0 90 2f 65
        E 1 9c 3e 64
        E 51 85 4f 64
        E 0 83 2e 66
        E 1 8b 3e 65
        E 1 8c 3e 64
        E 1 94 30 63
        E 0 97 50 65
        E 1 9b 3e 65
        E 0 9c 3f 67
        E 46 8a 4f 65
        E 1 8f 3f 64
        E 0 82 2e 67
        E 1 8b 3e 65
        E 1 96 50 66
        E 0 9f 3f 64
        E 1 93 30 64
        E 1 9b 40 64
        E 49 88 50 64
        E 1 8e 3f 65
        E 0 8f 3f 64
        E 1 81 2f 64
        E 0 95 50 67
        E 1 9e 3f 65
        E 0 9f 40 65
        E 1 92 30 65
        E 46 8d 3f 66
        E 1 8e 3f 65
        E 1 80 2f 65
        E 0 87 50 65
        E 1 9a 51 64
        E 0 9d 3f 66
        E 1 9e 41 63
        E 0 91 31 64
        E 50 85 50 67
        E 0 86 50 66
        E 1 8d 3f 66
        E 0 84 30 63
        E 1 8c 3f 67
        E 1 98 51 65
        E 0 9d 41 64
        E 1 90 31 65
        E 0 9c 3f 67
        E 49 8a 51 64
        E 0 83 30 64
        E 1 8b 40 64
        E 1 8c 3f 67
        E 0 94 31 66
        E 0 97 52 64
        E 1 9b 40 64
        E 0 9c 41 65
        E 46 88 51 65
        E 0 8f 40 65
        E 1 82 30 65
        E 1 8b 40 64
        E 0 96 52 65
        E 1 9f 40 65
        E 1 93 31 67
        E 1 9b 42 64
        E 49 8e 41 63
        E 1 8f 40 65
        E 1 81 31 64
        E 0 87 52 64
        E 1 95 52 66
        E 0 9e 41 63
        E 1 9f 42 65
        E 0 92 32 64
        E 50 86 52 65
        E 1 8d 41 64
        E 0 8e 41 63
        E 1 80 31 65
        E 0 9a 52 67
        E 1 9d 41 64
        E 1 9e 42 66
        E 0 91 32 65
        E 47 85 52 66
        E 0 8d 41 64
        E 1 84 31 66
        E 1 8c 41 65
        E 0 98 53 64
        E 1 9d 42 67
        E 0 90 33 64
        E 1 9c 41 65
        E 49 8a 52 67
        E 1 83 31 67
        E 0 8b 42 64
        E 1 8c 41 65
        E 1 94 33 65
        E 1 97 53 65
        E 0 9b 42 64
        E 0 9c 43 64
        E 49 8f 42 65
        E 1 82 32 64
        E 0 8b 42 64
        E 1 9f 42 65
        E 0 93 33 66
        E 1 9b 43 65
        E 49 88 53 64
        E 1 8e 42 66
        E 0 8f 42 65
        E 0 81 32 65
        E 1 87 53 65
        E 1 95 24 64
        E 1 9a 54 64
        E 0 9e 42 66
        E 1 9f 44 64
        E 1 92 33 67
        E 46 8d 42 67
        E 1 8e 42 66
        E 0 80 33 64
        E 1 98 54 65
        E 1 9d 42 67
        E 0 9e 44 65
        E 1 91 34 64
        E 48 85 24 64
        E 0 8a 54 64
        E 1 8d 42 67
        E 0 84 33 65
        E 0 8c 43 64
        E 1 9d 44 66
        E 0 90 34 65
        E 1 97 25 64
        E 0 9c 43 64
        E 54 88 54 65
        E 1 83 33 66
        E 0 8b 43 65
        E 1 8c 43 64
        E 0 94 35 63
        E 0 9b 43 65
        E 1 9c 44 67
        E 58 8f 44 64
        E 0 82 33 67
        E 1 87 25 64
        E 0 8b 43 65
        E 1 95 25 66
        E 1 9f 44 64
        E 0 93 35 64
        E 1 9b 45 64
        E 54 8e 44 65
        E 0 8f 44 64
        E 1 81 34 64
        E 0 9e 44 65
        E 1 9f 45 65
        E 0 92 35 65
        E 52 85 25 66
        E 0 8d 44 66
        E 1 8e 44 65
        E 0 80 34 65
        E 1 98 26 64
        E 0 9d 44 66
        E 1 9e 46 64
        E 0 91 36 64
        E 55 8d 44 66
        E 1 84 35 63
        E 1 8c 44 67
        E 0 9d 46 65
        E 1 90 36 65
        E 0 94 35 63
        E 1 9c 44 67
        E 55 88 26 64
        E 1 83 35 64
        E 0 84 35 63
        E 1 8b 45 64
        E 1 8c 44 67
        E 1 96 27 64
        E 0 93 35 64
        E 1 94 36 66
        E 1 9b 45 64
        E 0 9c 46 66
        E 53 8f 45 65
        E 0 82 35 65
        E 1 83 35 64
        E 1 8b 45 64
        E 1 92 35 65
        E 0 93 36 67
        E 1 9b 46 67
        E 50 86 27 64
        E 1 8e 46 64
        E 0 81 36 64
        E 1 82 35 65
        E 0 9a 27 66
        E 2 9f 47 64
        E 1 91 36 64
        E 1 92 37 64
        E 53 8d 46 65
        E 0 80 36 65
        E 1 81 36 64
        E 0 9e 47 65
        E 1 90 36 65
        E 1 91 37 65
        E 56 8a 27 66
        E 0 80 36 65
        E 1 84 36 66
        E 0 8c 46 66
        E 1 9d 48 63
        E 0 90 38 64
        E 1 94 36 66
        E 0 97 28 64
        E 53 83 36 67
        E 0 84 36 66
        E 1 8b 46 67
        E 1 93 36 67
        E 0 94 38 65
        E 1 9c 48 64
        E 56 8f 47 64
        E 0 82 37 64
        E 1 83 36 67
        E 0 87 28 64
        E 1 95 29 63
        E 0 92 37 64
        E 0 93 38 66
        E 1 9b 48 65
        E 54 8e 47 65
        E 1 81 37 65
        E 1 82 37 64
        E 1 9a 29 64
        E 0 9f 49 64
        E 1 91 37 65
        E 0 92 38 67
        E 54 85 29 63
        E 1 8d 48 63
        E 0 80 38 64
        E 1 81 37 65
        E 1 98 29 65
        E 1 9e 48 64
        E 0 90 38 64
        E 1 91 39 64
        E 53 80 38 64
        E 1 84 38 65
        E 0 8c 48 64
        E 1 9d 49 66
        E 0 90 39 65
        E 1 94 38 65
        E 1 97 2a 64
        E 54 8a 29 64
        E 0 83 38 66
        E 1 84 38 65
        E 1 8b 48 65
        E 0 96 2a 65
        E 0 93 38 66
        E 1 94 3a 64
        E 0 9b 48 65
        E 1 9c 49 67
        E 54 88 29 65
        E 0 8f 49 64
        E 1 82 38 67
        E 0 83 38 66
        E 1 8b 48 65
        E 0 95 2a 66
        E 1 92 38 67
        E 0 93 3a 65
        E 0 9b 4a 64
        E 52 8e 48 64
        E 0 81 39 64
        E 1 82 38 67
        E 1 87 2a 64
        E 0 9a 2a 67
        E 1 9f 4a 65
        E 1 91 39 64
        E 0 92 3a 66
        E 54 86 2a 65
        E 0 8d 49 66
        E 1 80 39 65
        E 0 81 39 64
        E 1 98 2b 64
        E 0 9e 4b 64
        E 1 90 3b 64
        E 0 91 3a 67
        E 55 85 2a 66
        E 0 80 3b 64
        E 1 84 3a 64
        E 0 8c 49 67
        E 1 9d 4b 65
        E 0 90 3b 64
        E 1 94 3a 64
        E 0 97 2b 65
        E 55 8a 2a 67
        E 1 83 3a 65
        E 1 84 3a 64
        E 0 8b 4a 64
        E 1 96 2c 64
        E 1 93 3a 65
        E 0 94 3b 65
        E 1 9c 4b 66
        E 52 88 2b 64
        E 1 8f 4a 65
        E 0 82 3a 66
        E 1 83 3a 65
        E 0 95 2c 65
        E 1 92 3a 66
        E 0 93 3c 63
        E 1 9b 4b 67
        E 53 8e 4b 64
        E 1 81 3a 67
        E 0 82 3a 66
        E 1 87 2b 65
        E 1 9a 2c 66
        E 0 9f 4c 64
        E 1 91 3a 67
        E 1 92 3c 64
        E 52 86 2c 64
        E 1 8d 4b 65
        E 1 80 3b 64
        E 0 81 3a 67
        E 1 98 2c 67
        E 0 9e 4c 65
        E 1 90 3b 64
        E 1 91 3c 65
        E 54 85 2c 65
        E 1 80 3b 64
        E 0 84 3b 65
        E 1 8c 4b 66
        E 0 9d 4d 63
        E 1 90 3d 64
        E 0 94 3b 65
        E 1 97 2d 64
        E 61 8a 2c 66
        E 1 8f 4c 64
        E 1 83 3c 63
        E 1 84 3b 65
        E 0 8b 4b 67
        E 0 96 2d 65
        E 1 93 3c 63
        E 1 94 3d 65
        E 0 9c 4d 64
        E 57 88 2c 67
        E 1 8e 4c 65
        E 1 82 3c 64
        E 0 83 3c 63
        E 1 95 2e 64
        E 1 92 3c 64
        E 0 93 3d 66
        E 1 9b 4d 65
        E 60 8d 4d 63
        E 0 81 3c 65
        E 1 82 3c 64
        E 1 87 2d 64
        E 0 9a 2e 65
        E 1 9f 4e 64
        E 0 91 3c 65
        E 1 92 3d 67
        E 59 86 2d 65
        E 1 80 3d 64
        E 0 81 3c 65
        E 1 8c 4d 64
        E 0 98 2e 66
        E 1 9e 4e 65
        E 0 90 3d 64
        E 1 91 3e 64
        E 61 85 2e 64
        E 0 80 3d 64
        E 1 84 3d 65
        E 0 8b 4d 65
        E 1 9d 4e 66
        E 0 90 3e 65
        E 1 94 3d 65
        E 0 97 2e 67
        E 59 8f 4e 64
        E 1 83 3d 66
        E 0 84 3d 65
        E 1 96 2f 64
        E 1 93 3d 66
        E 0 94 3f 64
        E 0 9c 4e 67
        E 63 8a 2e 65
        E 1 8e 4e 65
        E 0 82 3d 67
        E 0 83 3d 66
        E 1 95 2f 65
        E 0 92 3d 67
        E 0 93 3f 65
        E 0 9b 4f 64
        E 61 88 2e 66
        E 0 8d 4e 66
        E 1 81 3e 64
        E 1 82 3d 67
        E 0 9a 30 63
        E 1 9f 4f 65
        E 0 91 3e 64
        E 1 92 3f 66
        E 62 80 3e 65
        E 0 81 3e 64
        E 1 87 2e 67
        E 0 8c 4e 67
        E 1 98 30 64
        E 1 9e 50 64
        E 1 90 3e 65
        E 1 91 3f 67
        E 58 86 2f 64
        E 1 80 3e 65
        E 0 84 3f 64
        E 0 8b 4f 64
        E 1 9d 50 65
        E 0 90 40 64
        E 1 94 3f 64
        E 0 97 30 65
        E 60 85 2f 65
        E 1 8f 4f 65
        E 1 83 3f 65
        E 0 84 3f 64
        E 1 96 31 64
        E 0 93 3f 65
        E 1 94 40 65
        E 0 9c 50 66
        E 63 8a 30 63
        E 0 8e 50 64
        E 1 82 3f 66
        E 0 83 3f 65
        E 1 95 31 65
        E 0 92 3f 66
        E 1 93 41 63
        E 0 9b 50 67
        E 58 88 30 64
        E 1 8d 50 65
        E 0 81 3f 67
        E 1 82 3f 66
        E 0 9a 31 66
        E 1 9f 51 64
        E 1 91 3f 67
        E 0 92 41 64
        E 62 80 40 64
        E 0 81 3f 67
        E 1 87 30 65
        E 0 8b 50 67
        E 0 8c 50 66
        E 1 98 31 67
        E 0 9e 51 65
        E 1 90 40 64
        E 0 91 41 65
        E 61 86 31 64
        E 1 8f 51 64
        E 0 80 40 64
        E 0 84 40 65
        E 1 9d 52 64
        E 0 90 42 64
        E 1 94 40 65
        E 1 97 32 64
        E 67 85 31 65
        E 0 8e 51 65
        E 1 83 41 63
        E 1 84 40 65
        E 1 96 32 65
        E 1 93 41 63
        E 0 94 42 65
        E 1 9c 52 65
        E 68 8a 31 66
        E 0 8d 52 64
        E 1 82 41 64
        E 1 83 41 63
        E 0 95 33 64
        E 1 92 41 64
        E 0 93 42 66
        E 1 9b 52 66
        E 68 88 31 67
        E 1 81 41 65
        E 0 82 41 64
        E 1 8c 52 65
        E 1 9a 33 65
        E 1 9f 52 67
        E 0 91 41 65
        E 1 92 42 67
        E 67 80 42 64
        E 1 81 41 65
        E 0 87 32 64
        E 1 8b 52 66
        E 0 98 33 66
        E 1 9e 53 64
        E 0 90 42 64
        E 0 91 43 64
        E 68 86 32 65
        E 1 8f 52 67
        E 1 80 42 64
        E 0 84 42 65
        E 1 9d 53 65
        E 0 90 43 65
        E 1 94 42 65
        E 1 97 33 67
        E 67 85 33 64
        E 1 83 42 66
        E 0 84 42 65
        E 1 96 34 64
        E 0 93 42 66
        E 0 94 44 64
        E 68 8a 33 65
        E 0 8d 53 65
        E 1 8e 53 64
        E 0 82 42 67
        E 1 83 42 66
        E 1 95 34 65
        E 0 9f 54 64
        E 1 92 42 67
        E 1 93 44 65
        E 69 88 33 66
        E 0 81 43 64
        E 1 82 42 67
        E 0 9a 35 63
        E 1 9e 54 65
        E 0 91 43 64
        E 1 92 44 66
        E 69 8f 54 64
        E 0 80 43 65
        E 1 81 43 64
        E 0 87 33 67
        E 0 98 35 64
        E 0 90 43 65
        E 0 91 44 67
        E 72 86 34 64
        E 0 8e 54 65
        E 1 80 43 65
        E 1 84 44 64
        E 0 90 45 64
        E 1 94 44 64
        E 0 97 35 65
        E 68 85 34 65
        E 1 83 44 65
        E 1 84 44 64
        E 1 96 36 64
        E 0 93 44 65
        E 1 94 45 65
        E 66 8a 35 63
        E 1 82 44 66
        E 0 83 44 65
        E 1 95 36 65
        E 0 9a 35 63
        E 1 92 44 66
        E 0 93 46 64
        E 69 88 35 64
        E 0 8a 35 63
        E 1 81 44 67
        E 1 82 44 66
        E 1 98 35 64
        E 0 9a 36 66
        E 1 91 44 67
        E 1 92 46 65
        E 69 88 35 64
        E 1 80 45 64
        E 0 81 44 67
        E 1 87 35 65
        E 1 98 36 67
        E 0 90 45 64
        E 1 91 46 66
        E 0 97 35 65
        E 67 86 36 64
        E 1 80 45 64
        E 0 84 45 65
        E 1 87 35 65
        E 0 96 36 64
        E 1 90 46 67
        E 0 97 37 64
        E 77 85 36 65
        E 0 86 36 64
        E 1 83 46 64
        E 0 95 36 65
        E 1 96 37 65
        E 0 94 47 64
        E 75 85 36 65
        E 0 8a 36 66
        E 1 82 46 65
        E 0 95 38 64
        E 1 9a 36 66
        E 1 93 47 65
        E 80 88 36 67
        E 1 8a 36 66
        E 1 81 46 66
        E 0 98 36 67
        E 1 9a 38 65
        E 0 92 48 63
        E 79 88 36 67
        E 1 80 46 67
        E 0 87 37 64
        E 1 98 38 66
        E 1 91 48 64
        E 1 97 37 64
        E 72 86 37 65
        E 1 84 47 64
        E 0 87 37 64
        E 1 96 37 65
        E 0 90 48 65
        E 1 97 38 67
        E 78 85 38 64
        E 1 86 37 65
        E 1 83 47 65
        E 1 95 38 64
        E 1 96 39 64
        E 0 94 49 64
        E 76 85 38 64
        E 0 8a 38 65
        E 1 82 48 63
        E 1 95 39 65
        E 0 9a 38 65
        E 1 93 48 64
        E 78 88 38 66
        E 1 8a 38 65
        E 0 81 48 64
        E 1 98 38 66
        E 1 9a 3a 64
        E 0 92 49 66
        E 76 88 38 66
        E 1 80 48 65
        E 0 87 38 67
        E 1 98 3a 65
        E 0 90 48 65
        E 1 91 49 67
        E 1 97 38 67
        E 78 86 39 64
        E 0 80 48 65
        E 1 84 49 64
        E 1 87 38 67
        E 1 96 39 64
        E 0 90 4a 64
        E 1 97 3a 66
        E 74 85 39 65
        E 0 86 39 64
        E 1 83 48 64
        E 1 95 3b 64
        E 1 96 3a 67
        E 0 94 4a 65
        E 78 85 3b 64
        E 1 8a 3a 64
        E 1 82 49 66
        E 1 95 3b 64
        E 1 9a 3a 64
        E 1 93 4b 64
        E 76 88 3a 65
        E 0 8a 3a 64
        E 0 81 49 67
        E 0 98 3a 65
        E 1 9a 3b 65
        E 0 92 4b 65
        E 76 88 3a 65
        E 0 80 4a 64
        E 1 87 3a 66
        E 0 98 3c 63
        E 1 91 4b 66
        E 1 97 3a 66
        E 80 86 3a 67
        E 0 84 4a 65
        E 1 87 3a 66
        E 1 96 3a 67
        E 0 90 4b 67
        E 1 97 3c 64
        E 85 85 3b 64
        E 0 86 3a 67
        E 1 83 4b 64
        E 1 95 3b 64
        E 0 96 3c 65
        E 0 94 4c 64
        E 84 85 3b 64
        E 1 8a 3b 65
        E 0 82 4b 65
        E 1 95 3d 64
        E 1 9a 3b 65
        E 0 93 4c 65
        E 84 88 3c 63
        E 1 8a 3b 65
        E 0 81 4b 66
        E 1 98 3c 63
        E 0 9a 3d 65
        E 1 92 4d 63
        E 85 88 3c 63
        E 1 80 4b 67
        E 0 84 4c 64
        E 1 87 3c 64
        E 0 98 3d 66
        E 1 91 4d 64
        E 1 97 3c 64
        E 83 86 3c 65
        E 0 83 4c 65
        E 1 87 3c 64
        E 1 96 3c 65
        E 1 90 4d 65
        E 0 97 3d 67
        E 85 85 3d 64
        E 0 86 3c 65
        E 1 82 4d 63
        E 1 95 3d 64
        E 0 96 3e 64
        E 1 94 4e 64
        E 81 85 3d 64
        E 1 8a 3d 65
        E 1 81 4d 64
        E 0 95 3e 65
        E 1 9a 3d 65
        E 0 93 4e 65
        E 88 88 3d 66
        E 0 8a 3d 65
        E 1 80 4d 65
        E 0 98 3d 66
        E 1 9a 3f 64
        E 0 92 4e 66
        E 84 88 3d 66
        E 1 84 4e 64
        E 0 87 3d 67
        E 1 98 3f 65
        E 0 91 4e 67
        E 1 97 3d 67
        E 93 86 3e 64
        E 0 83 4e 65
        E 1 87 3d 67
        E 1 96 3e 64
        E 0 90 4f 64
        E 1 97 3f 66
        E 92 85 3e 65
        E 1 86 3e 64
        E 1 82 4e 66
        E 1 95 3e 65
        E 0 96 3f 67
        E 1 94 4f 65
        E 93 85 3e 65
        E 0 8a 3f 64
        E 1 81 4e 67
        E 0 95 40 64
        E 1 9a 3f 64
        E 0 93 50 64
        E 94 88 3f 65
        E 1 8a 3f 64
        E 1 80 4f 64
        E 1 98 3f 65
        E 1 9a 40 65
        E 0 92 50 65
        E 90 88 3f 65
        E 0 84 4f 65
        E 4 87 3f 66
        E 1 98 41 63
        E 0 91 50 66
        E 1 97 3f 66
        E 93 86 3f 67
        E 1 83 50 64
        E 0 87 3f 66
        E 1 96 3f 67
        E 0 90 50 67
        E 1 97 41 64
        E 91 85 40 64
        E 1 86 3f 67
        E 0 82 50 65
        E 1 95 40 64
        E 1 96 41 65
        E 0 94 51 64
        E 93 85 40 64
        E 1 8a 40 65
        E 0 80 50 67
        E 1 81 50 66
        E 0 95 42 64
        E 1 9a 40 65
        E 0 93 51 65
        E 101 88 41 63
        E 0 8a 40 65
        E 1 84 51 64
        E 0 98 41 63
        E 1 9a 42 65
        E 0 92 52 64
        E 100 88 41 63
        E 1 83 51 65
        E 1 87 41 64
        E 0 98 42 66
        E 1 91 52 65
        E 0 97 41 64
        E 100 86 41 65
        E 1 82 52 64
        E 0 87 41 64
        E 1 96 41 65
        E 0 90 52 66
        E 1 97 42 67
        E 102 85 42 64
        E 1 86 41 65
        E 0 81 52 65
        E 1 95 42 64
        E 1 96 43 64
        E 0 94 52 67
        E 97 85 42 64
        E 1 8a 42 65
        E 1 80 52 66
        E 0 95 43 65
        E 1 9a 42 65
        E 0 93 53 64
        E 104 88 42 66
        E 0 8a 42 65
        E 1 84 52 67
        E 1 98 42 66
        E 0 9a 44 64
        E 1 92 53 65
        E 97 88 42 66
        E 1 87 42 67
        E 0 98 44 65
        E 1 97 42 67
        E 101 85 43 65
        E 0 86 43 64
        E 1 88 44 65
        E 0 8a 44 64
        E 1 82 53 65
        E 1 83 53 64
        E 0 87 42 67
        E 3 95 43 65
        E 0 96 43 64
        E 0 98 44 65
        E 1 9a 44 64
        E 0 90 24 64
        E 1 94 54 64
        E 1 97 44 66
        E 101 86 43 64
        E 1 96 44 67
        E 0 93 54 65
        E 112 85 43 65
        E 0 80 24 64
        E 0 84 54 64
        E 0 95 45 64
        E 1 92 25 64
        E 108 8a 44 64
        E 0 83 54 65
        E 1 9a 45 65
        E 113 88 44 65
        E 0 82 25 64
        E 0 87 44 66
        E 1 98 46 64
        E 1 90 25 66
        E 0 97 44 66
        E 106 86 44 67
        E 1 87 44 66
        E 0 96 44 67
        E 1 97 46 65
        E 108 85 45 64
        E 1 86 44 67
        E 0 80 25 66
        E 1 95 45 64
        E 0 96 46 66
        E 1 93 26 64
        E 108 85 45 64
        E 1 8a 45 65
        E 0 95 46 67
        E 110 88 46 64
        E 1 83 26 64
        E 0 9a 47 64
        E 1 91 27 64
        E 118 87 46 65
        E 1 98 47 65
        E 117 86 46 66
        E 1 81 27 64
        E 0 94 27 66
        E 1 97 48 63
        E 123 85 46 67
        E 0 96 48 64
        E 116 8a 47 64
        E 1 84 27 66
        E 1 95 48 65
        E 0 92 28 64
        E 119 88 47 65
        E 1 9a 49 64
        E 118 82 28 64
        E 0 87 48 63
        E 1 98 48 64
        E 0 90 29 63
        E 120 86 48 64
        E 0 94 29 64
        E 1 97 49 66
        E 119 85 48 65
        E 1 80 29 63
        E 0 96 49 67
        E 1 93 29 65
        E 131 8a 49 64
        E 0 95 4a 64
        E 1 92 2a 64
        E 127 88 48 64
        E 1 84 29 64
        E 0 9a 4a 65
        E 1 91 2a 65
        E 131 83 29 65
        E 0 87 49 66
        E 1 98 4b 64
        E 0 90 2a 66
        E 127 86 49 67
        E 1 82 2a 64
        E 0 94 2a 67
        E 1 97 4b 65
        E 129 85 4a 64
        E 1 81 2a 65
        E 0 96 4b 66
        E 0 93 2b 64
        E 131 8a 4a 65
        E 0 80 2a 66
        E 1 95 4b 67
        E 0 92 2b 65
        E 131 88 4b 64
        E 0 84 2a 67
        E 1 9a 4c 64
        E 0 91 2c 64
        E 129 83 2b 64
        E 1 87 4b 65
        E 1 98 4c 65
        E 0 90 2c 65
        E 144 86 4b 66
        E 0 82 2b 65
        E 1 94 2c 66
        E 0 97 4d 63
        E 142 85 4b 67
        E 0 8a 4c 64
        E 1 81 2c 64
        E 0 96 4d 64
        E 1 93 2c 67
        E 141 88 4c 65
        E 0 80 2c 65
        E 1 95 4d 65
        E 1 92 2d 64
        E 142 84 2c 66
        E 1 87 4d 63
        E 1 9a 4e 64
        E 0 91 2d 65
        E 143 86 4d 64
        E 0 83 2c 67
        E 1 98 4e 65
        E 1 90 2e 64
        E 141 85 4d 65
        E 0 82 2d 64
        E 1 94 2e 65
        E 0 97 4e 66
        E 144 8a 4e 64
        E 0 81 2d 65
        E 1 96 4e 67
        E 0 93 2e 66
        E 144 88 4e 65
        E 1 80 2e 64
        E 0 95 4f 64
        E 1 92 2e 67
        E 141 87 4e 66
        E 0 9a 4f 65
        E 1 91 2f 64
        E 142 86 4e 67
        E 0 84 2e 65
        E 0 98 50 64
        E 1 90 2f 65
        E 156 85 4f 64
        E 0 83 2e 66
        E 1 94 30 63
        E 1 97 50 65
        E 153 8a 4f 65
        E 1 82 2e 67
        E 0 96 50 66
        E 1 93 30 64
        E 155 88 50 64
        E 0 81 2f 64
        E 1 95 50 67
        E 1 92 30 65
        E 153 80 2f 65
        E 0 87 50 65
        E 0 9a 51 64
        E 1 91 31 64
        E 152 85 50 67
        E 1 86 50 66
        E 0 84 30 63
        E 1 98 51 65
        E 1 90 31 65
        E 154 8a 51 64
        E 0 83 30 64
        E 1 94 31 66
        E 0 97 52 64
        E 155 88 51 65
        E 1 82 30 65
        E 1 96 52 65
        E 0 93 31 67
        E 152 81 31 64
        E 0 87 52 64
        E 1 95 52 66
        E 1 92 32 64
        E 154 86 52 65
        E 1 80 31 65
        E 1 9a 52 67
        E 1 91 32 65
        E 154 85 52 66
        E 0 84 31 66
        E 0 98 53 64
        E 0 90 33 64
        E 170 8a 52 67
        E 0 83 31 67
        E 1 94 33 65
        E 1 97 53 65
        E 167 82 32 64
        E 0 93 33 66
        E 168 88 53 64
        E 1 81 32 65
        E 1 87 53 65
        E 1 9a 54 64
        E 0 92 33 67
        E 167 80 33 64
        E 1 98 54 65
        E 1 91 34 64
        E 169 8a 54 64
        E 0 84 33 65
        E 1 90 34 65
        E 168 88 54 65
        E 0 83 33 66
        E 1 94 35 63
        E 168 82 33 67
        E 1 93 35 64
        E 169 81 34 64
        E 0 92 35 65
        E 170 80 34 65
        E 1 91 36 64
        E 168 84 35 63
        E 0 90 36 65
        E 1 94 35 63
        E 183 83 35 64
        E 0 84 35 63
        E 1 93 35 64
        E 1 94 36 66
        E 184 82 35 65
        E 1 83 35 64
        E 0 92 35 65
        E 1 93 36 67
        E 182 81 36 64
        E 1 82 35 65
        E 0 91 36 64
        E 1 92 37 64
        E 188 80 36 65
        E 0 81 36 64
        E 1 90 36 65
        E 0 91 37 65
        E 184 80 36 65
        E 1 84 36 66
        E 0 90 38 64
        E 1 94 36 66
        E 183 83 36 67
        E 1 84 36 66
        E 1 93 36 67
        E 0 94 38 65
        E 183 82 37 64
        E 0 83 36 67
        E 1 92 37 64
        E 0 93 38 66
        E 185 81 37 65
        E 0 82 37 64
        E 1 91 37 65
        E 1 92 38 67
        E 185 80 38 64
        E 0 81 37 65
        E 1 90 38 64
        E 1 91 39 64
        E 186 80 38 64
        E 1 84 38 65
        E 0 90 39 65
        E 1 94 38 65
        E 202 83 38 66
        E 1 84 38 65
        E 0 93 38 66
        E 1 94 3a 64
        E 203 82 38 67
        E 1 83 38 66
        E 1 92 38 67
        E 1 93 3a 65
        E 200 81 39 64
        E 1 82 38 67
        E 1 91 39 64
        E 0 92 3a 66
        E 207 80 39 65
        E 0 81 39 64
        E 1 90 3b 64
        E 1 91 3a 67
        E 202 80 3b 64
        E 0 84 3a 64
        E 1 90 3b 64
        E 1 94 3a 64
        E 204 83 3a 65
        E 1 84 3a 64
        E 0 93 3a 65
        E 1 94 3b 65
        E 206 82 3a 66
        E 1 83 3a 65
        E 1 92 3a 66
        E 0 93 3c 63
        E 203 81 3a 67
        E 1 82 3a 66
        E 1 91 3a 67
        E 0 92 3c 64
        E 202 80 3b 64
        E 0 81 3a 67
        E 1 90 3b 64
        E 1 91 3c 65
        E 204 80 3b 64
        E 1 84 3b 65
        E 0 90 3d 64
        E 1 94 3b 65
        E 221 83 3c 63
        E 0 84 3b 65
        E 1 93 3c 63
        E 1 94 3d 65
        E 221 82 3c 64
        E 0 83 3c 63
        E 1 92 3c 64
        E 1 93 3d 66
        E 218 81 3c 65
        E 0 82 3c 64
        E 1 91 3c 65
        E 1 92 3d 67
        E 220 80 3d 64
        E 1 81 3c 65
        E 1 90 3d 64
        E 0 91 3e 64
        E 218 80 3d 64
        E 0 84 3d 65
        E 1 90 3e 65
        E 1 94 3d 65
        E 219 83 3d 66
        E 0 84 3d 65
        E 1 93 3d 66
        E 0 94 3f 64
        E 221 82 3d 67
        E 0 83 3d 66
        E 1 92 3d 67
        E 1 93 3f 65
        E 218 81 3e 64
        E 0 82 3d 67
        E 1 91 3e 64
        E 1 92 3f 66
        E 221 80 3e 65
        E 0 81 3e 64
        E 1 90 3e 65
        E 1 91 3f 67
        E 219 80 3e 65
        E 0 84 3f 64
        E 1 90 40 64
        E 0 94 3f 64
        E 240 83 3f 65
        E 0 84 3f 64
        E 1 93 3f 65
        E 0 94 40 65
        E 239 82 3f 66
        E 0 83 3f 65
        E 1 92 3f 66
        E 0 93 41 63
        E 237 81 3f 67
        E 0 82 3f 66
        E 1 91 3f 67
        E 1 92 41 64
        E 241 80 40 64
        E 0 81 3f 67
        E 1 90 40 64
        E 1 91 41 65
        E 236 80 40 64
        E 1 84 40 65
        E 1 90 42 64
        E 0 94 40 65
        E 239 83 41 63
        E 0 84 40 65
        E 1 93 41 63
        E 1 94 42 65
        E 239 82 41 64
        E 0 83 41 63
        E 1 92 41 64
        E 2 93 42 66
        E 238 81 41 65
        E 0 82 41 64
        E 1 91 41 65
        E 2 92 42 67
        E 232 80 42 64
        E 1 81 41 65
        E 1 90 42 64
        E 3 91 43 64
        E 238 80 42 64
        E 1 84 42 65
        E 1 90 43 65
        E 0 94 42 65
        E 259 83 42 66
        E 1 84 42 65
        E 1 93 42 66
        E 0 94 44 64
        E 260 82 42 67
        E 0 83 42 66
        E 1 92 42 67
        E 1 93 44 65
        E 259 81 43 64
        E 0 82 42 67
        E 1 91 43 64
        E 0 92 44 66
        E 261 80 43 65
        E 0 81 43 64
        E 1 90 43 65
        E 0 91 44 67
        E 262 80 43 65
        E 0 84 44 64
        E 1 90 45 64
        E 0 94 44 64
        E 260 83 44 65
        E 0 84 44 64
        E 1 93 44 65
        E 1 94 45 65
        E 260 82 44 66
        E 1 83 44 65
        E 0 92 44 66
        E 1 93 46 64
        E 261 81 44 67
        E 0 82 44 66
        E 1 91 44 67
        E 1 92 46 65
        E 258 80 45 64
        E 0 81 44 67
        E 1 90 45 64
        E 1 91 46 66
        E 262 80 45 64
        E 1 84 45 65
        E 1 90 46 67
        E 0 94 45 65
        E 287 83 46 64
        E 0 84 45 65
        E 1 93 46 64
        E 0 94 47 64
        E 285 82 46 65
        E 0 83 46 64
        E 0 92 46 65
        E 1 93 47 65
        E 287 81 46 66
        E 0 82 46 65
        E 1 91 46 66
        E 0 92 48 63
        E 289 80 46 67
        E 1 81 46 66
        E 1 90 46 67
        E 0 91 48 64
        E 284 80 46 67
        E 1 84 47 64
        E 1 90 48 65
        E 0 94 47 64
        E 288 83 47 65
        E 0 84 47 64
        E 1 93 47 65
        E 1 94 49 64
        E 285 82 48 63
        E 0 83 47 65
        E 1 92 48 63
        E 1 93 48 64
        E 287 81 48 64
        E 0 82 48 63
        E 1 91 48 64
        E 0 92 49 66
        E 286 80 48 65
        E 1 81 48 64
        E 0 90 48 65
        E 1 91 49 67
        E 286 80 48 65
        E 0 84 49 64
        E 1 90 4a 64
        E 1 94 49 64
        E 317 83 48 64
        E 0 84 49 64
        E 1 93 4a 64
        E 0 94 4a 65
        E 319 82 49 66
        E 1 83 4a 64
        E 0 92 49 66
        E 1 93 4b 64
        E 317 81 49 67
        E 1 82 49 66
        E 0 91 49 67
        E 1 92 4b 65
        E 319 80 4a 64
        E 0 81 49 67
        E 1 90 4a 64
        E 1 91 4b 66
        E 319 80 4a 64
        E 0 84 4a 65
        E 1 90 4b 67
        E 1 94 4a 65
        E 318 83 4b 64
        E 1 84 4a 65
        E 1 93 4b 64
        E 0 94 4c 64
        E 318 82 4b 65
        E 0 83 4b 64
        E 1 92 4b 65
        E 1 93 4c 65
        E 315 81 4b 66
        E 1 82 4b 65
        E 1 91 4b 66
        E 0 92 4d 63
        E 321 80 4b 67
        E 0 81 4b 66
        E 1 90 4b 67
        E 1 91 4d 64
        E 317 80 4b 67
        E 0 84 4c 64
        E 1 90 4d 65
        E 0 94 4c 64
        E 358 83 4c 65
        E 0 84 4c 64
        E 1 93 4c 65
        E 0 94 4e 64
        E 361 82 4d 63
        E 0 83 4c 65
        E 1 92 4d 63
        E 0 93 4e 65
        E 359 81 4d 64
        E 1 82 4d 63
        E 1 91 4d 64
        E 0 92 4e 66
        E 355 80 4d 65
        E 1 81 4d 64
        E 1 90 4d 65
        E 0 91 4e 67
        E 360 80 4d 65
        E 1 84 4e 64
        E 1 90 4f 64
        E 0 94 4e 64
        E 357 83 4e 65
        E 0 84 4e 64
        E 1 93 4e 65
        E 1 94 4f 65
        E 360 82 4e 66
        E 0 83 4e 65
        E 0 92 4e 66
        E 1 93 50 64
        E 359 81 4e 67
        E 0 82 4e 66
        E 1 91 4e 67
        E 1 92 50 65
        E 358 80 4f 64
        E 1 81 4e 67
        E 0 90 4f 64
        E 1 91 50 66
        E 355 80 4f 64
        E 1 84 4f 65
        E 1 90 50 67
        E 0 94 4f 65
        E 412 83 50 64
        E 0 84 4f 65
        E 1 93 50 64
        E 1 94 51 64
        E 407 82 50 65
        E 0 83 50 64
        E 1 92 50 65
        E 1 93 51 65
        E 411 81 50 66
        E 0 82 50 65
        E 1 91 50 66
        E 0 92 52 64
        E 409 80 50 67
        E 1 81 50 66
        E 0 90 50 67
        E 1 91 52 65
        E 412 80 50 67
        E 0 84 51 64
        E 1 90 52 66
        E 1 94 51 64
        E 408 83 51 65
        E 1 84 51 64
        E 0 93 51 65
        E 1 94 52 67
        E 409 82 52 64
        E 1 83 51 65
        E 1 92 52 64
        E 0 93 53 64
        E 412 81 52 65
        E 1 82 52 64
        E 0 91 52 65
        E 1 92 53 65
        E 409 80 52 66
        E 0 81 52 65
        E 1 90 52 66
        E 407 82 53 65
        E 0 83 53 64
        E 0 84 52 67
        E 1 80 52 66
        E 1 92 53 65
        E 0 93 53 64
        E 1 94 52 67
        E 0 90 54 65
        E 1 91 54 64
        E 959 84 52 67
        E 961 83 53 64
        E 1 93 53 64
        E 477 83 53 64
        E 1439 82 53 65
        E 1 92 53 65
        E 958 82 53 65
        E 2882 80 54 65
        E 1 81 54 64
        E 241 90 54 65
        E 1919 80 54 65
        E 238 90 54 65
        E 481 80 54 65
        E 241 90 54 65
        E 960 80 54 65
        E 241 90 54 65
        E 479 80 54 65
        E 239 90 54 65
        E 241 80 54 65
        E 240 90 54 65
        E 241 80 54 65
        E 240 90 54 65
        E 1679 80 54 65
        E 2793 90 54 65
        E 215 80 54 65
        E 1396 90 54 65
        E 108 80 54 65
        E 647 90 54 65
        E 107 80 54 65
        E 323 90 54 65
        E 107 80 54 65
        E 859 90 54 65
        E 108 80 54 65
        E 321 90 54 65
        E 105 80 54 65
        E 109 90 54 65
        E 107 80 54 65
        E 110 90 54 65
        E 106 80 54 65
        E 110 90 54 65
        E 105 80 54 65
        E 108 90 54 65
        E 106 80 54 65
        E 109 90 54 65
        E 110 80 54 65
        E 105 90 54 65
        E 107 80 54 65
        E 109 90 54 65
        E 107 80 54 65
        E 108 90 54 65
        E 108 80 54 65
        E 107 90 54 65
        E 107 80 54 65
        E 107 90 54 65
        E 108 80 54 65
        E 107 90 54 65
        E 108 80 54 65
        E 108 90 54 65
        E 108 80 54 65
        E 106 90 54 65
        E 106 80 54 65
        E 110 90 54 65
        E 107 80 54 65
        E 107 90 54 65
        E 105 80 54 65
        E 110 90 54 65
        E 61 93 4c 65
        E 44 80 54 65
        E 110 90 54 65
        E 62 83 4c 65
        E 43 80 54 65
        E 81 93 4c 65
        E 27 90 54 65
        E 106 80 54 65
        E 82 83 4c 65
        E 29 90 54 65
        E 106 80 54 65
        E 0 93 4c 65
        E 108 90 54 65
        E 106 80 54 65
        E 0 83 4c 65
        E 108 90 54 65
        E 22 93 4c 65
        E 87 80 54 65
        E 107 90 54 65
        E 19 83 4c 65
        E 87 80 54 65
        E 43 93 4c 65
        E 68 90 54 65
        E 105 80 54 65
        E 1 9b 37 65
        E 40 83 4c 65
        E 68 90 54 65
        E 57 93 4c 65
        E 48 80 54 65
        E 109 90 54 65
        E 59 83 4c 65
        E 49 80 54 65
        E 60 94 46 66
        E 18 93 4c 65
        E 28 90 54 65
        E 109 80 54 65
        E 79 83 4c 65
        E 27 90 54 65
        E 109 80 54 65
        E 1 8b 37 65
        E 0 93 4c 65
        E 60 84 46 66
        E 46 90 54 65
        E 15 94 46 66
        E 92 80 54 65
        E 1 83 4c 65
        E 66 9b 37 65
        E 40 90 54 65
        E 21 93 4c 65
        E 86 80 54 65
        E 106 90 54 65
        E 13 84 46 66
        E 8 83 4c 65
        E 56 94 46 66
        E 33 80 54 65
        E 39 93 4c 65
        E 67 90 54 65
        E 109 80 54 65
        E 38 83 4c 65
        E 70 90 54 65
        E 13 91 52 66
        E 35 92 4e 64
        E 1 95 42 64
        E 12 93 4c 65
        E 14 84 46 66
        E 31 80 54 65
        E 27 94 46 66
        E 41 8b 37 65
        E 40 90 54 65
        E 13 81 52 66
        E 8 97 40 65
        E 20 91 52 66
        E 7 82 4e 64
        E 1 85 42 64
        E 12 83 4c 65
        E 46 80 54 65
        E 1 9a 3c 65
        E 35 92 4e 64
        E 0 95 42 64
        E 45 93 4c 65
        E 27 90 54 65
        E 34 9c 37 65
        E 5 81 52 66
        E 33 91 52 66
        E 33 80 54 65
        E 27 84 46 66
        E 8 82 4e 64
        E 0 85 42 64
        E 47 83 4c 65
        E 10 94 46 66
        E 19 90 54 65
        E 21 87 40 65
        E 4 92 4e 64
        E 1 95 42 64
        E 46 81 52 66
        E 32 80 54 65
        E 1 8a 3c 65
        E 0 91 52 66
        E 1 93 4c 65
        E 0 9d 30 65
        E 109 90 54 65
        E 26 82 4e 64
        E 1 85 42 64
        E 33 97 40 65
        E 46 80 54 65
        E 1 81 52 66
        E 1 83 4c 65
        E 12 92 4e 64
        E 0 95 42 64
        E 12 91 52 66
        E 63 84 46 66
        E 19 90 54 65
        E 21 93 4c 65
        E 19 94 46 66
        E 65 80 54 65
        E 0 9a 3c 65
        E 14 82 4e 64
        E 0 85 42 64
        E 15 81 52 66
        E 32 91 52 66
        E 49 90 54 65
        E 5 92 4e 64
        E 1 95 42 64
        E 14 83 4c 65
        E 13 8c 37 65
        E 25 87 40 65
        E 48 80 54 65
        E 41 93 4c 65
        E 19 81 52 66
        E 29 91 52 66
        E 21 90 54 65
        E 5 82 4e 64
        E 1 85 42 64
        E 34 84 46 66
        E 57 94 46 66
        E 1 97 40 65
        E 8 80 54 65
        E 1 8a 3c 65
        E 1 8d 30 65
        E 0 92 4e 64
        E 1 95 42 64
        E 0 9c 37 65
        E 38 83 4c 65
        E 48 81 52 66
        E 20 90 54 65
        E 14 91 52 66
        E 43 93 4c 65
        E 48 80 54 65
        E 1 82 4e 64
        E 0 85 42 64
        E 94 92 4e 64
        E 1 95 42 64
        E 13 90 54 65
        E 13 81 52 66
        E 26 91 52 66
        E 19 83 4c 65
        E 41 84 46 66
        E 1 87 40 65
        E 6 80 54 65
        E 1 9a 3c 65
        E 61 94 46 66
        E 21 93 4c 65
        E 14 82 4e 64
        E 0 85 42 64
        E 12 90 54 65
        E 39 81 52 66
        E 32 91 52 66
        E 16 92 4e 64
        E 1 95 42 64
        E 21 80 54 65
        E 39 97 40 65
        E 39 83 4c 65
        E 27 90 54 65
        E 75 81 52 66
        E 13 82 4e 64
        E 0 85 42 64
        E 22 80 54 65
        E 0 8a 3c 65
        E 1 8c 37 65
        E 1 91 52 66
        E 0 93 4c 65
        E 1 9d 30 65
        E 57 84 46 66
        E 10 92 4e 64
        E 0 95 42 64
        E 34 90 54 65
        E 15 94 46 66
        E 94 80 54 65
        E 0 81 52 66
        E 1 83 4c 65
        E 26 91 52 66
        E 14 87 40 65
        E 26 9c 37 65
        E 6 82 4e 64
        E 1 85 42 64
        E 32 90 54 65
        E 21 93 4c 65
        E 49 92 4e 64
        E 0 95 42 64
        E 40 80 54 65
        E 1 9a 3c 65
        E 24 81 52 66
        E 32 91 52 66
        E 20 97 40 65
        E 28 90 54 65
        E 13 84 46 66
        E 8 83 4c 65
        E 46 82 4e 64
        E 0 85 42 64
        E 7 94 46 66
        E 34 80 54 65
        E 39 93 4c 65
        E 13 92 4e 64
        E 1 95 42 64
        E 6 81 52 66
        E 27 91 52 66
        E 21 90 54 65
        E 107 80 54 65
        E 1 8a 3c 65
        E 0 8d 30 65
        E 40 83 4c 65
        E 13 82 4e 64
        E 1 85 42 64
        E 27 87 40 65
        E 7 81 52 66
        E 19 90 54 65
        E 14 91 52 66
        E 36 92 4e 64
        E 1 95 42 64
        E 12 93 4c 65
        E 13 84 46 66
        E 32 80 54 65
        E 27 94 46 66
        E 39 8c 37 65
        E 40 90 54 65
        E 14 81 52 66
        E 7 97 40 65
        E 21 91 52 66
        E 8 82 4e 64
        E 1 85 42 64
        E 13 83 4c 65
        E 44 80 54 65
        E 1 9a 3c 65
        E 37 92 4e 64
        E 0 95 42 64
        E 43 93 4c 65
        E 26 90 54 65
        E 35 9c 37 65
        E 6 81 52 66
        E 37 91 52 66
        E 30 80 54 65
        E 27 84 46 66
        E 7 82 4e 64
        E 1 85 42 64
        E 46 83 4c 65
        E 8 94 46 66
        E 20 90 54 65
        E 20 87 40 65
        E 6 92 4e 64
        E 1 95 42 64
        E 47 81 52 66
        E 33 80 54 65
        E 0 8a 3c 65
        E 1 91 52 66
        E 0 93 4c 65
        E 0 9d 30 65
        E 108 90 54 65
        E 26 82 4e 64
        E 0 85 42 64
        E 34 97 40 65
        E 45 80 54 65
        E 0 81 52 66
        E 1 83 4c 65
        E 12 92 4e 64
        E 1 95 42 64
        E 12 91 52 66
        E 64 84 46 66
        E 19 90 54 65
        E 22 93 4c 65
        E 16 94 46 66
        E 67 80 54 65
        E 1 9a 3c 65
        E 13 82 4e 64
        E 0 85 42 64
        E 16 81 52 66
        E 34 91 52 66
        E 45 90 54 65
        E 5 92 4e 64
        E 1 95 42 64
        E 12 83 4c 65
        E 14 8c 37 65
        E 27 87 40 65
        E 48 80 54 65
        E 41 93 4c 65
        E 18 81 52 66
        E 29 91 52 66
        E 21 90 54 65
        E 5 82 4e 64
        E 1 85 42 64
        E 34 84 46 66
        E 60 94 46 66
        E 1 97 40 65
        E 6 80 54 65
        E 0 8a 3c 65
        E 1 8d 30 65
        E 1 92 4e 64
        E 1 95 42 64
        E 0 9c 37 65
        E 37 83 4c 65
        E 46 81 52 66
        E 21 90 54 65
        E 13 91 52 66
        E 47 93 4c 65
        E 46 80 54 65
        E 1 82 4e 64
        E 0 85 42 64
        E 95 92 4e 64
        E 1 95 42 64
        E 12 90 54 65
        E 13 81 52 66
        E 26 91 52 66
        E 19 83 4c 65
        E 40 84 46 66
        E 0 87 40 65
        E 9 80 54 65
        E 0 9a 3c 65
        E 61 94 46 66
        E 20 93 4c 65
        E 13 82 4e 64
        E 1 85 42 64
        E 13 90 54 65
        E 41 81 52 66
        E 33 91 52 66
        E 12 92 4e 64
        E 1 95 42 64
        E 20 80 54 65
        E 43 97 40 65
        E 38 83 4c 65
        E 27 90 54 65
        E 74 81 52 66
        E 14 82 4e 64
        E 0 85 42 64
        E 21 80 54 65
        E 0 8a 3c 65
        E 1 8c 37 65
        E 0 91 52 66
        E 1 93 4c 65
        E 1 9d 30 65
        E 56 84 46 66
        E 13 92 4e 64
        E 0 95 42 64
        E 35 90 54 65
        E 14 94 46 66
        E 92 80 54 65
        E 1 81 52 66
        E 1 83 4c 65
        E 25 91 52 66
        E 15 87 40 65
        E 28 9c 37 65
        E 4 82 4e 64
        E 0 85 42 64
        E 33 90 54 65
        E 21 93 4c 65
        E 47 92 4e 64
        E 1 95 42 64
        E 42 80 54 65
        E 0 9a 3c 65
        E 26 81 52 66
        E 30 91 52 66
        E 21 97 40 65
        E 28 90 54 65
        E 13 84 46 66
        E 7 83 4c 65
        E 47 82 4e 64
        E 0 85 42 64
        E 7 94 46 66
        E 34 80 54 65
        E 41 93 4c 65
        E 9 92 4e 64
        E 1 95 42 64
        E 7 81 52 66
        E 27 91 52 66
        E 21 90 54 65
        E 108 80 54 65
        E 0 8a 3c 65
        E 1 8d 30 65
        E 39 83 4c 65
        E 13 82 4e 64
        E 1 85 42 64
        E 26 87 40 65
        E 7 81 52 66
        E 20 90 54 65
        E 13 91 52 66
        E 34 92 4e 64
        E 1 95 42 64
        E 12 93 4c 65
        E 14 84 46 66
        E 34 80 54 65
        E 24 94 46 66
        E 43 8c 37 65
        E 39 90 54 65
        E 13 81 52 66
        E 8 97 40 65
        E 19 91 52 66
        E 10 82 4e 64
        E 1 85 42 64
        E 13 83 4c 65
        E 43 80 54 65
        E 1 9a 3c 65
        E 34 92 4e 64
        E 0 95 42 64
        E 47 93 4c 65
        E 27 90 54 65
        E 36 9c 37 65
        E 5 81 52 66
        E 34 91 52 66
        E 30 80 54 65
        E 27 84 46 66
        E 9 82 4e 64
        E 0 85 42 64
        E 46 83 4c 65
        E 8 94 46 66
        E 19 90 54 65
        E 22 87 40 65
        E 5 92 4e 64
        E 1 95 42 64
        E 45 81 52 66
        E 34 80 54 65
        E 1 8a 3c 65
        E 1 91 52 66
        E 0 93 4c 65
        E 1 9d 30 65
        E 107 90 54 65
        E 27 82 4e 64
        E 0 85 42 64
        E 34 97 40 65
        E 46 80 54 65
        E 1 81 52 66
        E 1 83 4c 65
        E 11 92 4e 64
        E 0 95 42 64
        E 12 91 52 66
        E 64 84 46 66
        E 18 90 54 65
        E 21 93 4c 65
        E 20 94 46 66
        E 66 80 54 65
        E 1 9a 3c 65
        E 12 82 4e 64
        E 0 85 42 64
        E 13 81 52 66
        E 36 91 52 66
        E 47 90 54 65
        E 6 92 4e 64
        E 1 95 42 64
        E 12 83 4c 65
        E 14 8c 37 65
        E 26 87 40 65
        E 48 80 54 65
        E 38 93 4c 65
        E 20 81 52 66
        E 29 91 52 66
        E 22 90 54 65
        E 6 82 4e 64
        E 0 85 42 64
        E 34 84 46 66
        E 57 94 46 66
        E 1 97 40 65
        E 7 80 54 65
        E 0 8a 3c 65
        E 1 8d 30 65
        E 0 92 4e 64
        E 1 95 42 64
        E 1 9c 37 65
        E 38 83 4c 65
        E 46 81 52 66
        E 21 90 54 65
        E 12 91 52 66
        E 46 93 4c 65
        E 50 80 54 65
        E 0 82 4e 64
        E 1 85 42 64
        E 94 92 4e 64
        E 0 95 42 64
        E 14 90 54 65
        E 13 81 52 66
        E 24 91 52 66
        E 19 83 4c 65
        E 42 84 46 66
        E 0 87 40 65
        E 7 80 54 65
        E 0 9a 3c 65
        E 61 94 46 66
        E 21 93 4c 65
        E 10 82 4e 64
        E 0 85 42 64
        E 13 90 54 65
        E 42 81 52 66
        E 34 91 52 66
        E 14 92 4e 64
        E 0 95 42 64
        E 20 80 54 65
        E 40 97 40 65
        E 42 83 4c 65
        E 27 90 54 65
        E 72 81 52 66
        E 14 82 4e 64
        E 0 85 42 64
        E 21 80 54 65
        E 0 8a 3c 65
        E 1 8c 37 65
        E 1 91 52 66
        E 0 93 4c 65
        E 1 9d 30 65
        E 56 84 46 66
        E 13 92 4e 64
        E 1 95 42 64
        E 35 90 54 65
        E 13 94 46 66
        E 94 80 54 65
        E 0 81 52 66
        E 1 83 4c 65
        E 27 91 52 66
        E 13 87 40 65
        E 27 9c 37 65
        E 5 82 4e 64
        E 0 85 42 64
        E 34 90 54 65
        E 20 93 4c 65
        E 47 92 4e 64
        E 0 95 42 64
        E 42 80 54 65
        E 1 9a 3c 65
        E 26 81 52 66
        E 29 91 52 66
        E 21 97 40 65
        E 28 90 54 65
        E 14 84 46 66
        E 6 83 4c 65
        E 49 82 4e 64
        E 0 85 42 64
        E 6 94 46 66
        E 35 80 54 65
        E 38 93 4c 65
        E 14 92 4e 64
        E 1 95 42 64
        E 4 81 52 66
        E 27 91 52 66
        E 21 90 54 65
        E 106 80 54 65
        E 1 8a 3c 65
        E 1 8d 30 65
        E 39 83 4c 65
        E 13 82 4e 64
        E 0 85 42 64
        E 27 87 40 65
        E 8 81 52 66
        E 20 90 54 65
        E 13 91 52 66
        E 35 92 4e 64
        E 1 95 42 64
        E 26 84 46 66
        E 33 80 54 65
        E 25 94 46 66
        E 39 8c 37 65
        E 43 90 54 65
        E 14 81 52 66
        E 7 97 40 65
        E 20 91 52 66
        E 7 82 4e 64
        E 0 85 42 64
        E 59 80 54 65
        E 0 9a 3c 65
        E 35 92 4e 64
        E 0 95 42 64
        E 73 90 54 65
        E 34 9c 37 65
        E 5 81 52 66
        E 36 91 52 66
        E 31 80 54 65
        E 26 84 46 66
        E 8 82 4e 64
        E 1 85 42 64
        E 54 94 46 66
        E 20 90 54 65
        E 21 87 40 65
        E 5 92 4e 64
        E 1 95 42 64
        E 48 81 52 66
        E 31 80 54 65
        E 0 8a 3c 65
        E 1 91 52 66
        E 0 9d 30 65
        E 107 90 54 65
        E 28 82 4e 64
        E 0 85 42 64
        E 34 97 40 65
        E 46 80 54 65
        E 0 81 52 66
        E 14 92 4e 64
        E 1 95 42 64
        E 12 91 52 66
        E 63 84 46 66
        E 19 90 54 65
        E 41 94 46 66
        E 65 80 54 65
        E 1 9a 3c 65
        E 11 82 4e 64
        E 1 85 42 64
        E 13 81 52 66
        E 36 91 52 66
        E 46 90 54 65
        E 8 92 4e 64
        E 1 95 42 64
        E 23 8c 37 65
        E 26 87 40 65
        E 49 80 54 65
        E 62 81 52 66
        E 27 91 52 66
        E 21 90 54 65
        E 7 82 4e 64
        E 0 85 42 64
        E 30 84 46 66
        E 59 94 46 66
        E 0 97 40 65
        E 8 80 54 65
        E 0 8a 3c 65
        E 1 8d 30 65
        E 1 92 4e 64
        E 1 95 42 64
        E 0 9c 37 65
        E 84 81 52 66
        E 22 90 54 65
        E 15 91 52 66
        E 92 80 54 65
        E 1 82 4e 64
        E 1 85 42 64
        E 93 92 4e 64
        E 1 95 42 64
        E 13 90 54 65
        E 10 81 52 66
        E 27 91 52 66
        E 62 84 46 66
        E 1 87 40 65
        E 7 80 54 65
        E 1 9a 3c 65
        E 59 94 46 66
        E 34 82 4e 64
        E 1 85 42 64
        E 13 90 54 65
        E 38 81 52 66
        E 34 91 52 66
        E 13 92 4e 64
        E 1 95 42 64
        E 22 80 54 65
        E 41 97 40 65
        E 65 90 54 65
        E 73 81 52 66
        E 13 82 4e 64
        E 1 85 42 64
        E 20 80 54 65
        E 1 8a 3c 65
        E 0 8c 37 65
        E 1 91 52 66
        E 1 9d 30 65
        E 59 84 46 66
        E 13 92 4e 64
        E 1 95 42 64
        E 31 90 54 65
        E 14 94 46 66
        E 95 80 54 65
        E 0 81 52 66
        E 27 91 52 66
        E 13 87 40 65
        E 24 9c 37 65
        E 5 82 4e 64
        E 1 85 42 64
        E 38 90 54 65
        E 67 92 4e 64
        E 1 95 42 64
        E 40 80 54 65
        E 1 9a 3c 65
        E 26 81 52 66
        E 33 91 52 66
        E 19 97 40 65
        E 26 90 54 65
        E 15 84 46 66
        E 53 82 4e 64
        E 0 85 42 64
        E 6 94 46 66
        E 33 80 54 65
        E 53 92 4e 64
        E 1 95 42 64
        E 5 81 52 66
        E 28 91 52 66
        E 21 90 54 65
        E 110 80 54 65
        E 1 8a 3c 65
        E 1 8d 30 65
        E 50 82 4e 64
        E 0 85 42 64
        E 24 87 40 65
        E 9 81 52 66
        E 19 90 54 65
        E 13 91 52 66
        E 36 92 4e 64
        E 1 95 42 64
        E 12 93 4c 65
        E 14 84 46 66
        E 33 80 54 65
        E 25 94 46 66
        E 41 8c 37 65
        E 41 90 54 65
        E 13 81 52 66
        E 8 97 40 65
        E 19 91 52 66
        E 7 82 4e 64
        E 1 85 42 64
        E 13 83 4c 65
        E 45 80 54 65
        E 1 9a 3c 65
        E 35 92 4e 64
        E 0 95 42 64
        E 44 93 4c 65
        E 29 90 54 65
        E 35 9c 37 65
        E 6 81 52 66
        E 34 91 52 66
        E 32 80 54 65
        E 26 84 46 66
        E 8 82 4e 64
        E 0 85 42 64
        E 46 83 4c 65
        E 8 94 46 66
        E 20 90 54 65
        E 20 87 40 65
        E 6 92 4e 64
        E 1 95 42 64
        E 49 81 52 66
        E 30 80 54 65
        E 1 8a 3c 65
        E 0 91 52 66
        E 1 93 4c 65
        E 1 9d 30 65
        E 104 90 54 65
        E 30 82 4e 64
        E 0 85 42 64
        E 34 97 40 65
        E 45 80 54 65
        E 1 81 52 66
        E 1 83 4c 65
        E 12 92 4e 64
        E 0 95 42 64
        E 13 91 52 66
        E 63 84 46 66
        E 19 90 54 65
        E 20 93 4c 65
        E 19 94 46 66
        E 67 80 54 65
        E 1 9a 3c 65
        E 13 82 4e 64
        E 0 85 42 64
        E 13 81 52 66
        E 35 91 52 66
        E 46 90 54 65
        E 8 92 4e 64
        E 1 95 42 64
        E 13 83 4c 65
        E 12 8c 37 65
        E 28 87 40 65
        E 43 80 54 65
        E 42 93 4c 65
        E 21 81 52 66
        E 27 91 52 66
        E 20 90 54 65
        E 7 82 4e 64
        E 0 85 42 64
        E 33 84 46 66
        E 62 94 46 66
        E 0 97 40 65
        E 6 80 54 65
        E 0 8a 3c 65
        E 1 8d 30 65
        E 1 92 4e 64
        E 0 95 42 64
        E 0 9c 37 65
        E 37 83 4c 65
        E 47 81 52 66
        E 22 90 54 65
        E 14 91 52 66
        E 45 93 4c 65
        E 47 80 54 65
        E 0 82 4e 64
        E 1 85 42 64
        E 95 92 4e 64
        E 0 95 42 64
        E 13 90 54 65
        E 9 81 52 66
        E 28 91 52 66
        E 20 83 4c 65
        E 42 84 46 66
        E 1 87 40 65
        E 7 80 54 65
        E 0 9a 3c 65
        E 58 94 46 66
        E 25 93 4c 65
        E 12 82 4e 64
        E 0 85 42 64
        E 13 90 54 65
        E 38 81 52 66
        E 33 91 52 66
        E 13 92 4e 64
        E 1 95 42 64
        E 21 80 54 65
        E 40 97 40 65
        E 41 83 4c 65
        E 25 90 54 65
        E 75 81 52 66
        E 13 82 4e 64
        E 0 85 42 64
        E 21 80 54 65
        E 0 8a 3c 65
        E 1 8c 37 65
        E 0 91 52 66
        E 1 93 4c 65
        E 0 9d 30 65
        E 58 84 46 66
        E 14 92 4e 64
        E 0 95 42 64
        E 32 90 54 65
        E 14 94 46 66
        E 94 80 54 65
        E 1 81 52 66
        E 1 83 4c 65
        E 28 91 52 66
        E 13 87 40 65
        E 27 9c 37 65
        E 5 82 4e 64
        E 0 85 42 64
        E 33 90 54 65
        E 19 93 4c 65
        E 49 92 4e 64
        E 0 95 42 64
        E 41 80 54 65
        E 1 9a 3c 65
        E 27 81 52 66
        E 32 91 52 66
        E 18 97 40 65
        E 27 90 54 65
        E 16 84 46 66
        E 5 83 4c 65
        E 48 82 4e 64
        E 0 85 42 64
        E 6 94 46 66
        E 35 80 54 65
        E 42 93 4c 65
        E 13 92 4e 64
        E 1 95 42 64
        E 5 81 52 66
        E 25 91 52 66
        E 21 90 54 65
        E 107 80 54 65
        E 1 8a 3c 65
        E 0 8d 30 65
        E 38 83 4c 65
        E 14 82 4e 64
        E 1 85 42 64
        E 26 87 40 65
        E 6 81 52 66
        E 21 90 54 65
        E 14 91 52 66
        E 31 92 4e 64
        E 1 95 42 64
        E 29 84 46 66
        E 31 80 54 65
        E 28 94 46 66
        E 39 8c 37 65
        E 41 90 54 65
        E 12 81 52 66
        E 8 97 40 65
        E 20 91 52 66
        E 8 82 4e 64
        E 0 85 42 64
        E 62 80 54 65
        E 0 9a 3c 65
        E 33 92 4e 64
        E 0 95 42 64
        E 73 90 54 65
        E 35 9c 37 65
        E 6 81 52 66
        E 34 91 52 66
        E 32 80 54 65
        E 26 84 46 66
        E 7 82 4e 64
        E 1 85 42 64
        E 55 94 46 66
        E 18 90 54 65
        E 22 87 40 65
        E 6 92 4e 64
        E 1 95 42 64
        E 47 81 52 66
        E 30 80 54 65
        E 0 8a 3c 65
        E 1 91 52 66
        E 1 9d 30 65
        E 106 90 54 65
        E 28 82 4e 64
        E 1 85 42 64
        E 35 97 40 65
        E 44 80 54 65
        E 1 81 52 66
        E 12 92 4e 64
        E 1 95 42 64
        E 12 91 52 66
        E 64 84 46 66
        E 19 90 54 65
        E 39 94 46 66
        E 67 80 54 65
        E 1 9a 3c 65
        E 12 82 4e 64
        E 1 85 42 64
        E 13 81 52 66
        E 35 91 52 66
        E 45 90 54 65
        E 8 92 4e 64
        E 1 95 42 64
        E 28 8c 37 65
        E 27 87 40 65
        E 43 80 54 65
        E 63 81 52 66
        E 27 91 52 66
        E 21 90 54 65
        E 7 82 4e 64
        E 1 85 42 64
        E 32 84 46 66
        E 59 94 46 66
        E 1 97 40 65
        E 5 80 54 65
        E 1 8a 3c 65
        E 0 8d 30 65
        E 1 92 4e 64
        E 0 95 42 64
        E 1 9c 37 65
        E 86 81 52 66
        E 20 90 54 65
        E 12 91 52 66
        E 93 80 54 65
        E 1 82 4e 64
        E 0 85 42 64
        E 95 92 4e 64
        E 1 95 42 64
        E 12 90 54 65
        E 13 81 52 66
        E 29 91 52 66
        E 59 84 46 66
        E 0 87 40 65
        E 7 80 54 65
        E 1 9a 3c 65
        E 59 94 46 66
        E 36 82 4e 64
        E 0 85 42 64
        E 13 90 54 65
        E 38 81 52 66
        E 33 91 52 66
        E 13 92 4e 64
        E 0 95 42 64
        E 21 80 54 65
        E 42 97 40 65
        E 68 90 54 65
        E 71 81 52 66
        E 14 82 4e 64
        E 1 85 42 64
        E 19 80 54 65
        E 1 8a 3c 65
        E 0 8c 37 65
        E 1 91 52 66
        E 1 9d 30 65
        E 58 84 46 66
        E 13 92 4e 64
        E 1 95 42 64
        E 31 90 54 65
        E 14 94 46 66
        E 96 80 54 65
        E 0 81 52 66
        E 26 91 52 66
        E 13 87 40 65
        E 28 9c 37 65
        E 6 82 4e 64
        E 0 85 42 64
        E 32 90 54 65
        E 70 92 4e 64
        E 1 95 42 64
        E 38 80 54 65
        E 1 9a 3c 65
        E 27 81 52 66
        E 33 91 52 66
        E 20 97 40 65
        E 26 90 54 65
        E 13 84 46 66
        E 55 82 4e 64
        E 0 85 42 64
        E 6 94 46 66
        E 35 80 54 65
        E 55 92 4e 64
        E 0 95 42 64
        E 5 81 52 66
        E 25 91 52 66
        E 21 90 54 65
        E 110 80 54 65
        E 0 8a 3c 65
        E 1 8d 30 65
        E 51 82 4e 64
        E 0 85 42 64
        E 26 87 40 65
        E 6 81 52 66
        E 21 90 54 65
        E 75 84 46 66
        E 36 80 54 65
        E 65 8c 37 65
        E 39 90 54 65
        E 109 80 54 65
        E 107 90 54 65
        E 34 9c 37 65
        E 72 80 54 65
        E 107 90 54 65
        E 110 80 54 65
        E 1 9d 30 65
        E 105 90 54 65
        E 105 80 54 65
        E 109 90 54 65
        E 107 80 54 65
        E 109 90 54 65
        E 34 8c 37 65
        E 74 80 54 65
        E 106 90 54 65
        E 107 80 54 65
        E 1 8d 30 65
        E 862 9d 30 65
        E 860 8d 30 65
        E 4403 90 54 65
        E 109 80 54 65
        E 106 90 54 65
        E 107 80 54 65
        E 426 97 40 65
        E 112 90 54 65
        E 109 80 54 65
        E 106 90 54 65
        E 102 87 40 65
        E 6 80 54 65
        E 109 90 54 65
        E 107 80 54 65
        E 39 97 40 65
        E 68 90 54 65
        E 106 80 54 65
        E 76 92 4e 64
        E 34 90 54 65
        E 107 80 54 65
        E 39 87 40 65
        E 32 82 4e 64
        E 37 90 54 65
        E 67 92 4e 64
        E 38 80 54 65
        E 83 97 40 65
        E 26 90 54 65
        E 67 82 4e 64
        E 6 94 46 66
        E 34 80 54 65
        E 56 92 4e 64
        E 51 90 54 65
        E 108 80 54 65
        E 54 82 4e 64
        E 26 87 40 65
        E 28 90 54 65
        E 43 92 4e 64
        E 28 84 46 66
        E 36 80 54 65
        E 27 94 46 66
        E 80 90 54 65
        E 19 97 40 65
        E 28 82 4e 64
        E 62 80 54 65
        E 31 92 4e 64
        E 75 90 54 65
        E 34 9c 37 65
        E 75 80 54 65
        E 27 84 46 66
        E 6 82 4e 64
        E 51 94 46 66
        E 22 90 54 65
        E 21 87 40 65
        E 7 92 4e 64
        E 79 80 54 65
        E 1 93 4c 65
        E 0 9d 30 65
        E 106 90 54 65
        E 26 82 4e 64
        E 35 97 40 65
        E 48 80 54 65
        E 0 83 4c 65
        E 11 92 4e 64
        E 76 84 46 66
        E 20 90 54 65
        E 21 93 4c 65
        E 19 94 46 66
        E 68 80 54 65
        E 0 9a 3c 65
        E 13 82 4e 64
        E 92 90 54 65
        E 8 92 4e 64
        E 0 95 42 64
        E 13 83 4c 65
        E 13 8c 37 65
        E 27 87 40 65
        E 45 80 54 65
        E 43 93 4c 65
        E 66 90 54 65
        E 9 82 4e 64
        E 0 85 42 64
        E 32 84 46 66
        E 62 94 46 66
        E 0 97 40 65
        E 6 80 54 65
        E 0 8a 3c 65
        E 0 8d 30 65
        E 1 92 4e 64
        E 0 95 42 64
        E 1 9c 37 65
        E 38 83 4c 65
        E 69 90 54 65
        E 59 93 4c 65
        E 46 80 54 65
        E 0 82 4e 64
        E 1 85 42 64
        E 95 92 4e 64
        E 0 95 42 64
        E 13 90 54 65
        E 62 83 4c 65
        E 37 84 46 66
        E 0 87 40 65
        E 6 80 54 65
        E 0 9a 3c 65
        E 63 94 46 66
        E 18 93 4c 65
        E 14 82 4e 64
        E 0 85 42 64
        E 14 90 54 65
        E 89 92 4e 64
        E 0 95 42 64
        E 19 80 54 65
        E 39 97 40 65
        E 40 83 4c 65
        E 30 90 54 65
        E 85 82 4e 64
        E 0 85 42 64
        E 19 80 54 65
        E 0 8a 3c 65
        E 0 8c 37 65
        E 1 93 4c 65
        E 0 9d 30 65
        E 62 84 46 66
        E 11 92 4e 64
        E 0 95 42 64
        E 35 90 54 65
        E 13 94 46 66
        E 95 80 54 65
        E 0 83 4c 65
        E 40 87 40 65
        E 27 9c 37 65
        E 4 82 4e 64
        E 1 85 42 64
        E 34 90 54 65
        E 20 93 4c 65
        E 47 92 4e 64
        E 0 95 42 64
        E 42 80 54 65
        E 0 9a 3c 65
        E 82 97 40 65
        E 27 90 54 65
        E 13 84 46 66
        E 2 83 4c 65
        E 49 82 4e 64
        E 1 85 42 64
        E 5 94 46 66
        E 35 80 54 65
        E 40 93 4c 65
        E 14 92 4e 64
        E 0 95 42 64
        E 53 90 54 65
        E 109 80 54 65
        E 0 8a 3c 65
        E 1 8d 30 65
        E 40 83 4c 65
        E 14 82 4e 64
        E 1 85 42 64
        E 26 87 40 65
        E 25 90 54 65
        E 13 91 52 66
        E 33 92 4e 64
        E 0 95 42 64
        E 14 93 4c 65
        E 13 84 46 66
        E 35 80 54 65
        E 28 94 46 66
        E 38 8c 37 65
        E 42 90 54 65
        E 12 81 52 66
        E 6 97 40 65
        E 22 91 52 66
        E 6 82 4e 64
        E 0 85 42 64
        E 13 83 4c 65
        E 49 80 54 65
        E 1 9a 3c 65
        E 33 92 4e 64
        E 1 95 42 64
        E 44 93 4c 65
        E 28 90 54 65
        E 33 9c 37 65
        E 7 81 52 66
        E 33 91 52 66
        E 33 80 54 65
        E 27 84 46 66
        E 6 82 4e 64
        E 1 85 42 64
        E 47 83 4c 65
        E 6 94 46 66
        E 21 90 54 65
        E 21 87 40 65
        E 7 92 4e 64
        E 1 95 42 64
        E 46 81 52 66
        E 32 80 54 65
        E 1 8a 3c 65
        E 0 91 52 66
        E 1 93 4c 65
        E 0 9d 30 65
        E 108 90 54 65
        E 26 82 4e 64
        E 0 85 42 64
        E 32 97 40 65
        E 47 80 54 65
        E 0 81 52 66
        E 0 83 4c 65
        E 10 92 4e 64
        E 1 95 42 64
        E 14 91 52 66
        E 62 84 46 66
        E 20 90 54 65
        E 21 93 4c 65
        E 18 94 46 66
        E 69 80 54 65
        E 0 9a 3c 65
        E 11 82 4e 64
        E 0 85 42 64
        E 13 81 52 66
        E 37 91 52 66
        E 45 90 54 65
        E 8 92 4e 64
        E 0 95 42 64
        E 13 83 4c 65
        E 13 8c 37 65
        E 30 87 40 65
        E 44 80 54 65
        E 40 93 4c 65
        E 20 81 52 66
        E 30 91 52 66
        E 18 90 54 65
        E 8 82 4e 64
        E 0 85 42 64
        E 32 84 46 66
        E 60 94 46 66
        E 0 97 40 65
        E 5 80 54 65
        E 1 8a 3c 65
        E 0 8d 30 65
        E 1 92 4e 64
        E 1 95 42 64
        E 0 9c 37 65
        E 40 83 4c 65
        E 47 81 52 66
        E 20 90 54 65
        E 61 93 4c 65
        E 46 80 54 65
        E 0 82 4e 64
        E 1 85 42 64
        E 94 92 4e 64
        E 1 95 42 64
        E 13 90 54 65
        E 60 83 4c 65
        E 40 84 46 66
        E 0 87 40 65
        E 5 80 54 65
        E 1 9a 3c 65
        E 61 94 46 66
        E 20 93 4c 64
        E 15 82 4e 64
        E 1 85 42 64
        E 13 90 54 65
        E 85 92 4e 64
        E 0 95 42 64
        E 19 80 54 65
        E 82 83 4c 64
        E 26 90 54 65
        E 88 82 4e 64
        E 0 85 42 64
        E 19 80 54 65
        E 1 8a 3c 65
        E 1 8c 37 65
        E 0 93 4c 64
        E 1 9d 30 65
        E 59 84 46 66
        E 15 92 4e 64
        E 0 95 42 64
        E 32 90 54 65
        E 13 94 46 66
        E 94 80 54 65
        E 0 83 4c 64
        E 69 9c 38 64
        E 5 82 4e 64
        E 1 85 42 64
        E 34 90 54 65
        E 17 93 4c 64
        E 48 92 4e 64
        E 0 95 42 64
        E 43 80 54 65
        E 1 9a 3c 65
        E 107 90 54 65
        E 11 84 46 66
        E 5 83 4c 64
        E 48 82 4e 64
        E 0 85 42 64
        E 6 94 46 66
        E 35 80 54 65
        E 41 93 4b 67
        E 13 92 4e 64
        E 0 95 42 64
        E 54 90 54 65
        E 108 80 54 65
        E 1 8a 3c 65
        E 0 8d 30 65
        E 24 83 4b 67
        E 7 82 4e 64
        E 1 85 42 64
        E 61 94 42 66
        E 8 90 54 65
        E 7 84 46 66
        E 39 92 4e 66
        E 26 8c 38 64
        E 18 93 4b 67
        E 21 95 48 65
        E 16 84 42 66
        E 9 80 54 65
        E 28 96 44 67
        E 19 94 42 66
        E 16 97 42 66
        E 14 90 54 65
        E 102 82 4e 66
        E 4 84 42 66
        E 4 9b 3c 65
        E 25 80 54 65
        E 4 92 4e 66
        E 6 83 4b 67
        E 19 85 48 65
        E 6 94 42 66
        E 48 86 44 67
        E 0 90 54 65
        E 0 9c 38 65
        E 43 93 4b 67
        E 39 84 42 66
        E 24 95 48 65
        E 29 80 54 65
        E 7 94 42 66
        E 45 82 4e 66
        E 25 90 54 65
        E 13 92 4e 66
        E 40 96 44 67
        E 10 84 42 66
        E 29 87 42 66
        E 9 83 4b 67
        E 25 94 42 66
        E 9 80 54 65
        E 23 85 48 65
        E 8 97 42 66
        E 47 8b 3c 65
        E 1 90 54 65
        E 7 93 4b 66
        E 37 84 42 66
        E 22 82 4e 66
        E 36 92 4e 66
        E 1 95 48 65
        E 2 86 44 67
        E 1 8c 38 65
        E 0 94 42 66
        E 4 9e 2c 67
        E 23 80 54 65
        E 79 90 54 65
        E 28 84 42 66
        E 32 83 4b 66
        E 28 94 42 66
        E 21 9b 3c 65
        E 23 80 54 65
        E 25 82 4e 66
        E 1 85 48 65
        E 3 96 44 67
        E 21 93 4b 66
        E 18 92 4e 66
        E 11 90 54 65
        E 8 84 42 66
        E 56 87 42 66
        E 8 94 42 66
        E 38 95 48 65
        E 24 80 54 65
        E 4 97 42 66
        E 67 84 42 66
        E 11 86 44 67
        E 1 90 54 65
        E 0 9c 38 66
        E 22 83 4b 66
        E 17 82 4e 66
        E 8 94 42 66
        E 28 92 4e 66
        E 59 80 54 65
        E 7 93 4b 66
        E 17 85 48 65
        E 15 9a 3f 67
        E 4 84 42 66
        E 36 8b 3c 65
        E 0 90 54 65
        E 29 94 42 66
        E 25 96 44 67
        E 49 95 48 65
        E 24 82 4e 66
        E 4 80 54 65
        E 31 84 42 66
        E 6 92 4e 66
        E 29 83 4b 66
        E 17 90 54 65
        E 8 94 42 66
        E 20 87 42 66
        E 78 86 44 67
        E 1 8c 38 66
        E 0 8e 2c 67
        E 1 93 4b 65
        E 0 97 42 66
        E 1 9b 3c 65
        E 21 80 54 65
        E 8 84 42 66
        E 17 85 48 65
        E 50 94 42 66
        E 7 90 54 65
        E 9 82 4e 66
        E 35 92 4e 66
        E 25 8a 3f 67
        E 38 95 48 65
        E 15 84 42 66
        E 9 80 54 65
        E 29 83 4b 65
        E 0 96 44 67
        E 23 94 42 66
        E 30 90 54 65
        E 36 9a 3f 67
        E 31 93 4b 65
        E 30 82 4e 66
        E 3 84 42 66
        E 29 80 54 65
        E 6 92 4e 66
        E 27 85 48 65
        E 3 94 42 66
        E 51 86 44 67
        E 0 87 42 66
        E 1 8b 3c 65
        E 1 90 54 65
        E 0 9c 38 67
        E 72 97 42 66
        E 7 84 42 66
        E 21 95 48 65
        E 18 83 4b 65
        E 10 80 54 65
        E 9 94 42 66
        E 48 82 4e 66
        E 24 90 54 65
        E 14 92 4e 66
        E 17 93 4b 65
        E 26 96 44 67
        E 6 84 42 66
        E 43 9b 3c 65
        E 19 94 42 66
        E 9 80 54 65
        E 7 8a 3f 67
        E 19 85 48 65
        E 54 90 54 65
        E 46 84 42 66
        E 21 82 4e 66
        E 14 83 4b 65
        E 21 92 4e 66
        E 0 95 48 65
        E 4 86 44 67
        E 0 8c 38 67
        E 1 94 42 66
        E 0 9a 3f 67
        E 1 9e 2c 67
        E 25 80 54 65
        E 51 87 42 66
        E 19 93 4b 64
        E 11 90 54 65
        E 29 84 42 66
        E 14 97 42 66
        E 42 94 42 66
        E 46 80 54 65
        E 25 82 4e 66
        E 0 85 48 65
        E 3 96 44 67
        E 41 92 4e 66
        E 10 8b 3c 65
        E 1 90 54 65
        E 7 84 42 66
        E 36 83 4b 64
        E 26 94 42 66
        E 38 95 48 65
        E 24 80 54 65
        E 34 93 4b 64
        E 38 84 42 66
        E 12 86 44 67
        E 0 8a 3f 67
        E 1 90 54 65
        E 0 9c 38 67
        E 38 82 4e 66
        E 8 94 42 66
        E 28 92 4e 66
        E 29 9b 3c 65
        E 30 80 54 65
        E 16 87 42 66
        E 10 85 48 65
        E 15 9a 3f 67
        E 6 84 42 66
        E 32 90 54 65
        E 4 83 4b 64
        E 8 97 42 66
        E 16 94 42 66
        E 26 96 44 67
        E 49 95 48 65
        E 24 93 4b 64
        E 3 82 4e 66
        E 4 80 54 65
        E 31 84 42 66
        E 4 92 4e 66
        E 43 90 54 65
        E 8 94 42 66
        E 100 86 44 67
        E 1 8c 38 67
        E 1 8e 2c 67
        E 26 80 54 65
        E 7 84 42 66
        E 17 85 48 65
        E 20 83 4b 64
        E 25 94 42 66
        E 8 8b 3c 65
        E 0 90 54 65
        E 9 82 4e 66
        E 38 92 4e 66
        E 24 8a 3f 67
        E 17 93 4b 64
        E 21 95 48 65
        E 12 87 42 66
        E 3 84 42 66
        E 11 80 54 65
        E 28 96 44 67
        E 20 94 42 66
        E 16 97 42 66
        E 14 90 54 65
        E 39 9a 3f 67
        E 60 82 4e 66
        E 5 84 42 66
        E 4 9b 3c 65
        E 25 80 54 65
        E 5 92 4e 66
        E 4 83 4b 64
        E 21 85 48 65
        E 4 94 42 66
        E 48 86 44 67
        E 0 90 54 65
        E 1 9c 38 67
        E 47 93 4b 64
        E 36 84 42 66
        E 21 95 48 65
        E 30 80 54 65
        E 9 94 42 66
        E 44 82 4e 66
        E 26 90 54 65
        E 13 92 4e 66
        E 42 96 44 67
        E 8 84 42 66
        E 29 87 42 66
        E 10 83 4b 64
        E 24 94 42 66
        E 7 80 54 65
        E 8 8a 3f 67
        E 18 85 48 65
        E 7 97 42 66
        E 45 8b 3c 65
        E 0 90 54 65
        E 10 93 4b 64
        E 36 84 42 66
        E 21 82 4e 66
        E 37 92 4e 66
        E 1 95 48 65
        E 5 86 44 67
        E 0 8c 38 67
        E 1 94 42 66
        E 1 9a 3f 67
        E 0 9e 2c 67
        E 22 80 54 65
        E 81 90 54 65
        E 28 84 42 66
        E 33 83 4b 64
        E 26 94 42 66
        E 22 9b 3c 65
        E 24 80 54 65
        E 23 82 4e 66
        E 0 85 48 65
        E 4 96 44 67
        E 21 93 4b 64
        E 17 92 4e 66
        E 13 90 54 65
        E 8 84 42 66
        E 56 87 42 66
        E 8 94 42 66
        E 35 95 48 65
        E 25 80 54 65
        E 3 97 42 66
        E 69 84 42 66
        E 12 86 44 67
        E 1 8a 3f 67
        E 1 90 54 65
        E 0 9c 38 67
        E 20 83 4b 64
        E 18 82 4e 66
        E 7 94 42 66
        E 29 92 4e 66
        E 58 80 54 65
        E 8 93 4b 64
        E 16 85 48 65
        E 18 9a 3f 67
        E 3 84 42 66
        E 34 8b 3c 65
        E 0 90 54 65
        E 29 94 42 66
        E 26 96 44 67
        E 49 95 48 65
        E 24 82 4e 66
        E 4 80 54 65
        E 33 84 42 66
        E 4 92 4e 66
        E 28 83 4b 64
        E 18 90 54 65
        E 7 94 42 66
        E 21 87 42 66
        E 76 86 44 67
        E 1 8c 38 67
        E 0 8e 2c 67
        E 1 93 4b 64
        E 1 97 42 66
        E 1 9b 3c 65
        E 23 80 54 65
        E 9 84 42 66
        E 15 85 48 65
        E 47 94 42 66
        E 8 90 54 65
        E 9 82 4e 66
        E 36 92 4e 66
        E 24 8a 3f 67
        E 39 95 48 65
        E 18 84 42 66
        E 7 80 54 65
        E 29 83 4b 64
        E 0 96 44 67
        E 21 94 42 66
        E 29 90 54 65
        E 41 9a 3f 67
        E 30 93 4b 64
        E 28 82 4e 66
        E 4 84 42 66
        E 33 80 54 65
        E 4 92 4e 66
        E 24 85 48 65
        E 4 94 42 66
        E 51 86 44 67
        E 1 87 42 66
        E 1 8b 3c 65
        E 0 90 54 65
        E 1 9c 38 67
        E 71 97 42 66
        E 8 84 42 66
        E 21 95 48 65
        E 17 83 4b 64
        E 11 80 54 65
        E 10 94 42 66
        E 45 82 4e 66
        E 26 90 54 65
        E 11 92 4e 66
        E 17 93 4b 64
        E 24 96 44 67
        E 7 84 42 66
        E 43 9b 3c 65
        E 20 94 42 66
        E 8 80 54 65
        E 7 8a 3f 67
        E 19 85 48 65
        E 57 90 54 65
        E 43 84 42 66
        E 22 82 4e 66
        E 17 83 4b 64
        E 21 92 4e 66
        E 0 95 48 65
        E 4 86 44 67
        E 0 8c 38 67
        E 0 94 42 66
        E 1 9a 3f 67
        E 0 9e 2c 67
        E 24 80 54 65
        E 50 87 42 66
        E 22 93 4b 64
        E 7 90 54 65
        E 27 84 42 66
        E 17 97 42 66
        E 43 94 42 66
        E 45 80 54 65
        E 26 82 4e 66
        E 1 85 48 65
        E 5 96 44 67
        E 37 92 4e 66
        E 13 8b 3c 65
        E 1 90 54 65
        E 8 84 42 66
        E 35 83 4b 64
        E 27 94 42 66
        E 34 95 48 65
        E 26 80 54 65
        E 34 93 4b 64
        E 37 84 42 66
        E 12 86 44 67
        E 0 8a 3f 67
        E 0 90 54 65
        E 1 9c 38 67
        E 38 82 4e 66
        E 8 94 42 66
        E 31 92 4e 66
        E 29 9b 3c 65
        E 28 80 54 65
        E 17 87 42 66
        E 9 85 48 65
        E 18 9a 3f 67
        E 3 84 42 66
        E 32 90 54 65
        E 3 83 4b 64
        E 10 97 42 66
        E 15 94 42 66
        E 24 96 44 67
        E 53 95 48 65
        E 22 93 4b 64
        E 2 82 4e 66
        E 5 80 54 65
        E 29 84 42 66
        E 4 92 4e 66
        E 46 90 54 65
        E 8 94 42 66
        E 100 86 44 67
        E 0 8c 38 67
        E 1 8e 2c 67
        E 38 80 54 65
        E 14 84 42 66
        E 26 85 48 65
        E 27 90 54 65
        E 9 83 4b 64
        E 6 91 52 66
        E 34 92 4e 64
        E 1 95 42 64
        E 11 8b 3c 65
        E 1 93 4c 65
        E 12 82 4e 66
        E 35 80 54 65
        E 26 94 46 66
        E 39 8a 3f 67
        E 41 90 54 65
        E 14 81 52 66
        E 8 97 40 65
        E 19 87 42 66
        E 0 91 52 66
        E 7 82 4e 64
        E 1 85 42 64
        E 14 83 4c 65
        E 45 80 54 65
        E 1 9a 3c 65
        E 34 92 4e 64
        E 0 95 42 64
        E 46 93 4c 65
        E 27 90 54 65
        E 35 9c 37 65
        E 5 81 52 66
        E 35 91 52 66
        E 33 80 54 65
        E 25 84 46 66
        E 7 82 4e 64
        E 1 85 42 64
        E 46 83 4c 65
        E 8 94 46 66
        E 20 90 54 65
        E 21 87 40 65
        E 5 92 4e 64
        E 1 95 42 64
        E 49 81 52 66
        E 32 80 54 65
        E 1 8a 3c 65
        E 1 91 52 66
        E 0 93 4c 65
        E 1 9d 30 65
        E 104 90 54 65
        E 27 82 4e 64
        E 0 85 42 64
        E 33 97 40 65
        E 49 80 54 65
        E 0 81 52 66
        E 1 83 4c 65
        E 12 92 4e 64
        E 1 95 42 64
        E 10 91 52 66
        E 60 84 46 66
        E 21 90 54 65
        E 21 93 4c 65
        E 21 94 46 66
        E 64 80 54 65
        E 1 9a 3c 65
        E 13 82 4e 64
        E 0 85 42 64
        E 13 81 52 66
        E 34 91 52 66
        E 50 90 54 65
        E 5 92 4e 64
        E 1 95 42 64
        E 12 83 4c 65
        E 13 8c 37 65
        E 29 87 40 65
        E 45 80 54 65
        E 43 93 4c 65
        E 19 81 52 66
        E 26 91 52 66
        E 22 90 54 65
        E 5 82 4e 64
        E 0 85 42 64
        E 36 84 46 66
        E 58 94 46 66
        E 1 97 40 65
        E 6 80 54 65
        E 1 8a 3c 65
        E 0 8d 30 65
        E 1 92 4e 64
        E 0 95 42 64
        E 1 9c 37 65
        E 38 83 4c 65
        E 47 81 52 66
        E 20 90 54 65
        E 14 91 52 66
        E 45 93 4c 65
        E 47 80 54 65
        E 0 82 4e 64
        E 1 85 42 64
        E 94 92 4e 64
        E 1 95 42 64
        E 13 90 54 65
        E 13 81 52 66
        E 27 91 52 66
        E 19 83 4c 65
        E 40 84 46 66
        E 1 87 40 65
        E 7 80 54 65
        E 0 9a 3c 65
        E 59 94 46 66
        E 23 93 4c 65
        E 14 82 4e 64
        E 0 85 42 64
        E 14 90 54 65
        E 40 81 52 66
        E 29 91 52 66
        E 13 92 4e 64
        E 1 95 42 64
        E 22 80 54 65
        E 41 97 40 65
        E 40 83 4c 65
        E 28 90 54 65
        E 72 81 52 66
        E 13 82 4e 64
        E 0 85 42 64
        E 22 80 54 65
        E 0 8a 3c 65
        E 1 8c 37 65
        E 0 91 52 66
        E 1 93 4c 65
        E 0 9d 30 65
        E 57 84 46 66
        E 14 92 4e 64
        E 0 95 42 64
        E 36 90 54 65
        E 11 94 46 66
        E 92 80 54 65
        E 0 81 52 66
        E 0 83 4c 65
        E 26 91 52 66
        E 17 87 40 65
        E 27 9c 37 65
        E 7 82 4e 64
        E 0 85 42 64
        E 31 90 54 65
        E 21 93 4c 65
        E 46 92 4e 64
        E 0 95 42 64
        E 40 80 54 65
        E 0 9a 3c 65
        E 27 81 52 66
        E 37 91 52 66
        E 19 97 40 65
        E 25 90 54 65
        E 13 84 46 66
        E 7 83 4c 65
        E 48 82 4e 64
        E 1 85 42 64
        E 6 94 46 66
        E 32 80 54 65
        E 41 93 4c 65
        E 13 92 4e 64
        E 1 95 42 64
        E 8 81 52 66
        E 28 91 52 66
        E 17 90 54 65
        E 107 80 54 65
        E 1 8a 3c 65
        E 1 8d 30 65
        E 39 83 4c 65
        E 13 82 4e 64
        E 1 85 42 64
        E 24 87 40 65
        E 8 81 52 66
        E 20 90 54 65
        E 15 91 52 66
        E 35 92 4e 64
        E 0 95 42 64
        E 13 93 4c 65
        E 13 84 46 66
        E 33 80 54 65
        E 27 94 46 66
        E 41 8c 37 65
        E 40 90 54 65
        E 14 81 52 66
        E 8 97 40 65
        E 18 91 52 66
        E 8 82 4e 64
        E 0 85 42 64
        E 14 83 4c 65
        E 45 80 54 65
        E 0 9a 3c 65
        E 35 92 4e 64
        E 0 95 42 64
        E 46 93 4c 65
        E 27 90 54 65
        E 34 9c 37 65
        E 6 81 52 66
        E 35 91 52 66
        E 33 80 54 65
        E 27 84 46 66
        E 7 82 4e 64
        E 1 85 42 64
        E 44 83 4c 65
        E 8 94 46 66
        E 20 90 54 65
        E 20 87 40 65
        E 8 92 4e 64
        E 0 95 42 64
        E 48 81 52 66
        E 32 80 54 65
        E 1 8a 3c 65
        E 1 91 52 66
        E 1 93 4c 65
        E 0 9d 30 65
        E 105 90 54 65
        E 26 82 4e 64
        E 1 85 42 64
        E 32 97 40 65
        E 48 80 54 65
        E 0 81 52 66
        E 1 83 4c 65
        E 12 92 4e 64
        E 1 95 42 64
        E 10 91 52 66
        E 61 84 46 66
        E 21 90 54 65
        E 19 93 4c 65
        E 23 94 46 66
        E 67 80 54 65
        E 0 9a 3c 65
        E 13 82 4e 64
        E 0 85 42 64
        E 13 81 52 66
        E 32 91 52 66
        E 49 90 54 65
        E 6 92 4e 64
        E 0 95 42 64
        E 13 83 4c 65
        E 13 8c 37 65
        E 28 87 40 65
        E 46 80 54 65
        E 42 93 4c 65
        E 19 81 52 66
        E 26 91 52 66
        E 21 90 54 65
        E 5 82 4e 64
        E 1 85 42 64
        E 35 84 46 66
        E 60 94 46 66
        E 1 97 40 65
        E 5 80 54 65
        E 0 8a 3c 65
        E 1 8d 30 65
        E 0 92 4e 64
        E 1 95 42 64
        E 0 9c 37 65
        E 39 83 4c 65
        E 48 81 52 66
        E 21 90 54 65
        E 13 91 52 66
        E 48 93 4c 65
        E 44 80 54 65
        E 1 82 4e 64
        E 1 85 42 64
        E 93 92 4e 64
        E 1 95 42 64
        E 12 90 54 65
        E 14 81 52 66
        E 29 91 52 66
        E 19 83 4c 65
        E 38 84 46 66
        E 1 87 40 65
        E 6 80 54 65
        E 1 9a 3c 65
        E 60 94 46 66
        E 21 93 4c 65
        E 14 82 4e 64
        E 1 85 42 64
        E 12 90 54 65
        E 40 81 52 66
        E 33 91 52 66
        E 13 92 4e 64
        E 1 95 42 64
        E 21 80 54 65
        E 41 97 40 65
        E 39 83 4c 65
        E 26 90 54 65
        E 74 81 52 66
        E 13 82 4e 64
        E 1 85 42 64
        E 20 80 54 65
        E 1 8a 3c 65
        E 0 8c 37 65
        E 1 91 52 66
        E 1 93 4c 65
        E 0 9d 30 65
        E 58 84 46 66
        E 12 92 4e 64
        E 1 95 42 64
        E 33 90 54 65
        E 11 94 46 66
        E 97 80 54 65
        E 1 81 52 66
        E 1 83 4c 65
        E 25 91 52 66
        E 15 87 40 65
        E 27 9c 37 65
        E 5 82 4e 64
        E 1 85 42 64
        E 34 90 54 65
        E 17 93 4c 65
        E 48 92 4e 64
        E 1 95 42 64
        E 38 80 54 65
        E 1 9a 3c 65
        E 27 81 52 66
        E 35 91 52 66
        E 20 97 40 65
        E 24 90 54 65
        E 12 84 46 66
        E 8 83 4c 65
        E 47 82 4e 64
        E 1 85 42 64
        E 8 94 46 66
        E 33 80 54 65
        E 42 93 4c 65
        E 12 92 4e 64
        E 1 95 42 64
        E 7 81 52 66
        E 28 91 52 66
        E 18 90 54 65
        E 107 80 54 65
        E 0 8a 3c 65
        E 1 8d 30 65
        E 39 83 4c 65
        E 13 82 4e 64
        E 1 85 42 64
        E 25 87 40 65
        E 8 81 52 66
        E 19 90 54 65
        E 14 91 52 66
        E 35 92 4e 64
        E 1 95 42 64
        E 12 93 4c 65
        E 14 84 46 66
        E 32 80 54 65
        E 28 94 46 66
        E 39 8c 37 65
        E 40 90 54 65
        E 13 81 52 66
        E 8 97 40 65
        E 19 91 52 66
        E 8 82 4e 64
        E 2 85 42 64
        E 12 83 4c 65
        E 48 80 54 65
        E 0 9a 3c 65
        E 33 92 4e 64
        E 1 95 42 64
        E 45 93 4c 65
        E 26 90 54 65
        E 35 9c 37 65
        E 5 81 52 66
        E 35 91 52 66
        E 35 80 54 65
        E 27 84 46 66
        E 8 82 4e 64
        E 0 85 42 64
        E 44 83 4c 65
        E 7 94 46 66
        E 19 90 54 65
        E 21 87 40 65
        E 6 92 4e 64
        E 1 95 42 64
        E 49 81 52 66
        E 34 80 54 65
        E 0 8a 3c 65
        E 1 91 52 66
        E 1 93 4c 65
        E 0 9d 30 65
        E 130 82 4e 64
        E 1 85 42 64
        E 34 97 40 65
        E 47 81 52 66
        E 1 83 4c 65
        E 10 92 4e 64
        E 0 95 42 64
        E 13 91 52 66
        E 63 84 46 66
        E 41 93 4c 65
        E 19 94 46 66
        E 68 9a 3c 65
        E 15 82 4e 64
        E 1 85 42 64
        E 8 81 52 66
        E 33 91 52 66
        E 54 92 4e 64
        E 1 95 42 64
        E 12 83 4c 65
        E 14 8c 37 65
        E 30 87 40 65
        E 86 93 4c 65
        E 19 81 52 66
        E 27 91 52 66
        E 27 82 4e 64
        E 0 85 42 64
        E 35 84 46 66
        E 58 94 46 66
        E 1 97 40 65
        E 6 8a 3c 65
        E 1 8d 30 65
        E 1 92 4e 64
        E 1 95 42 64
        E 0 9c 37 65
        E 39 83 4c 65
        E 46 81 52 66
        E 34 91 52 66
        E 46 93 4c 65
        E 49 82 4e 64
        E 0 85 42 64
        E 94 92 4e 64
        E 1 95 42 64
        E 26 81 52 66
        E 27 91 52 66
        E 19 83 4c 65
        E 40 84 46 66
        E 1 87 40 65
        E 7 9a 3c 65
        E 60 94 46 66
        E 20 93 4c 65
        E 16 82 4e 64
        E 1 85 42 64
        E 49 81 52 66
        E 32 91 52 66
        E 15 92 4e 64
        E 1 95 42 64
        E 61 97 40 65
        E 40 83 4c 65
        E 99 81 52 66
        E 14 82 4e 64
        E 0 85 42 64
        E 21 8a 3c 65
        E 0 8c 37 65
        E 1 91 52 66
        E 1 93 4c 65
        E 0 9d 30 65
        E 60 84 46 66
        E 11 92 4e 64
        E 1 95 42 64
        E 50 94 46 66
        E 92 81 52 66
        E 0 83 4c 65
        E 27 91 52 66
        E 12 87 40 65
        E 27 9c 37 65
        E 8 82 4e 64
        E 0 85 42 64
        E 52 93 4c 65
        E 48 92 4e 64
        E 0 95 42 64
        E 42 9a 3c 65
        E 27 81 52 66
        E 31 91 52 66
        E 22 97 40 65
        E 40 84 46 66
        E 5 83 4c 65
        E 48 82 4e 64
        E 0 85 42 64
        E 8 94 46 66
        E 73 93 4c 65
        E 12 92 4e 64
        E 1 95 42 64
        E 6 81 52 66
        E 28 91 52 66
        E 127 8a 3c 65
        E 1 8d 30 65
        E 40 83 4c 65
        E 14 82 4e 64
        E 0 85 42 64
        E 27 87 40 65
        E 7 81 52 66
        E 32 91 52 66
        E 35 92 4e 64
        E 0 95 42 64
        E 13 93 4c 65
        E 13 84 46 66
        E 60 94 46 66
        E 40 8c 37 65
        E 53 81 52 66
        E 10 97 40 65
        E 18 91 52 66
        E 6 82 4e 64
        E 0 85 42 64
        E 13 83 4c 65
        E 48 9a 3c 65
        E 35 92 4e 64
        E 0 95 42 64
        E 45 93 4c 65
        E 61 9c 37 65
        E 5 81 52 66
        E 37 91 52 66
        E 58 84 46 66
        E 6 82 4e 64
        E 1 85 42 64
        E 45 83 4c 65
        E 9 94 46 66
        E 41 87 40 65
        E 6 92 4e 64
        E 0 95 42 64
        E 49 81 52 66
        E 31 8a 3c 65
        E 1 91 52 66
        E 0 93 4c 65
        E 1 9d 30 65
        E 134 82 4e 64
        E 0 85 42 64
        E 35 97 40 65
        E 44 81 52 66
        E 0 83 4c 65
        E 13 92 4e 64
        E 0 95 42 64
        E 12 91 52 66
        E 64 84 46 66
        E 39 93 4c 65
        E 21 94 46 66
        E 69 9a 3c 65
        E 11 82 4e 64
        E 1 85 42 64
        E 13 81 52 66
        E 34 91 52 66
        E 52 92 4e 64
        E 1 95 42 64
        E 13 83 4c 65
        E 11 8c 37 65
        E 29 87 40 65
        E 87 93 4c 65
        E 19 81 52 66
        E 29 91 52 66
        E 25 82 4e 64
        E 1 85 42 64
        E 33 84 46 66
        E 60 94 46 66
        E 1 97 40 65
        E 7 8a 3c 65
        E 0 8d 30 65
        E 1 92 4e 64
        E 0 95 42 64
        E 1 9c 37 65
        E 38 83 4c 65
        E 48 81 52 66
        E 35 91 52 66
        E 44 93 4c 65
        E 47 82 4e 64
        E 1 85 42 64
        E 96 92 4d 65
        E 1 95 42 64
        E 26 81 52 66
        E 27 91 52 66
        E 19 83 4c 65
        E 39 84 46 66
        E 0 87 40 65
        E 8 9a 3c 65
        E 60 94 46 66
        E 21 93 4c 65
        E 12 82 4d 65
        E 1 85 42 64
        E 53 81 52 66
        E 33 91 52 66
        E 13 92 4d 65
        E 1 95 42 64
        E 60 97 40 65
        E 42 83 4c 65
        E 99 81 52 66
        E 14 82 4d 65
        E 0 85 42 64
        E 21 8a 3c 65
        E 1 8c 37 65
        E 0 91 52 66
        E 1 93 4c 65
        E 0 9d 30 65
        E 57 84 46 66
        E 14 92 4d 65
        E 0 95 42 64
        E 48 94 46 66
        E 94 81 52 66
        E 1 83 4c 65
        E 26 91 52 66
        E 14 87 40 65
        E 28 9c 37 65
        E 5 82 4d 65
        E 1 85 42 64
        E 52 93 4c 65
        E 49 92 4d 65
        E 0 95 42 64
        E 40 9a 3c 65
        E 26 81 52 66
        E 34 91 52 66
        E 21 97 40 65
        E 37 84 46 66
        E 6 83 4c 65
        E 50 82 4d 65
        E 0 85 42 64
        E 5 94 46 66
        E 73 93 4c 65
        E 13 92 4d 64
        E 1 95 42 64
        E 7 81 52 66
        E 26 91 52 66
        E 129 8a 3c 65
        E 0 8d 30 65
        E 31 83 4c 65
        E 11 82 4d 64
        E 1 85 42 64
        E 22 87 40 65
        E 5 81 52 66
        E 54 94 40 64
        E 9 91 52 66
        E 12 84 46 66
        E 49 92 4d 64
        E 32 8c 37 65
        E 22 93 48 65
        E 26 95 46 66
        E 20 84 40 64
        E 10 81 52 66
        E 39 96 42 66
        E 27 94 40 64
        E 21 97 40 64
        E 16 91 52 66
        E 48 98 3d 66
        E 78 82 4d 64
        E 8 84 40 64
        E 6 9b 3a 66
        E 32 81 52 66
        E 6 92 4d 64
        E 4 83 48 65
        E 27 85 46 66
        E 6 94 40 64
        E 66 86 42 66
        E 1 91 52 66
        E 0 9c 36 66
        E 55 93 48 65
        E 37 9d 34 64
        E 10 84 40 64
        E 28 95 46 66
        E 40 81 52 66
        E 9 94 40 64
        E 58 82 4d 64
        E 32 91 52 66
        E 16 92 4d 64
        E 56 96 42 66
        E 11 84 40 64
        E 35 87 40 64
        E 12 83 48 65
        E 31 94 40 64
        E 9 81 52 66
        E 12 88 3d 66
        E 21 85 46 66
        E 10 97 40 64
        E 60 8b 3a 66
        E 0 91 52 66
        E 11 93 48 65
        E 49 84 40 64
        E 26 82 4d 64
        E 49 92 4d 63
        E 1 95 46 66
        E 5 86 42 66
        E 0 8c 36 66
        E 1 94 40 64
        E 1 98 3d 66
        E 0 9e 2a 66
        E 27 81 52 66
        E 103 91 52 66
        E 38 84 40 64
        E 43 83 48 65
        E 33 94 40 64
        E 27 9b 3a 66
        E 32 81 52 66
        E 33 82 4d 63
        E 0 85 46 66
        E 4 96 42 66
        E 28 93 48 65
        E 20 92 4d 63
        E 18 91 52 66
        E 9 84 40 64
        E 71 87 40 64
        E 9 94 40 64
        E 49 95 46 66
        E 30 81 52 66
        E 5 97 40 64
        E 90 84 40 64
        E 15 86 42 66
        E 0 88 3d 66
        E 1 91 52 66
        E 0 9c 36 66
        E 25 83 48 65
        E 19 82 4d 63
        E 12 94 40 64
        E 37 8d 34 64
        E 1 92 4d 63
        E 76 81 52 66
        E 10 93 48 65
        E 22 85 46 66
        E 22 98 3d 66
        E 5 84 40 64
        E 41 8b 3a 66
        E 1 91 52 66
        E 17 9d 34 64
        E 21 94 40 64
        E 31 96 42 66
        E 66 95 46 66
        E 32 82 4d 63
        E 4 81 52 66
        E 38 84 40 64
        E 5 92 4d 63
        E 37 83 48 65
        E 20 91 52 66
        E 11 94 40 64
        E 28 87 40 64
        E 103 86 42 66
        E 0 8c 36 66
        E 1 8e 2a 66
        E 1 93 48 65
        E 0 97 40 64
        E 0 9b 3a 66
        E 30 81 52 66
        E 9 84 40 64
        E 21 85 46 66
        E 62 94 40 64
        E 11 91 52 66
        E 10 82 4d 63
        E 47 92 4d 63
        E 32 88 3d 66
        E 48 95 46 66
        E 22 84 40 64
        E 11 81 52 66
        E 38 83 48 65
        E 1 96 42 66
        E 26 94 40 64
        E 37 91 52 66
        E 47 98 3d 66
        E 46 93 48 65
        E 35 82 4d 63
        E 5 84 40 64
        E 38 81 52 66
        E 7 92 4d 63
        E 29 85 46 66
        E 6 94 40 64
        E 65 86 42 66
        E 0 87 40 64
        E 1 8b 3a 66
        E 1 91 52 66
        E 0 9c 36 66
        E 94 97 40 64
        E 11 84 40 64
        E 28 95 46 66
        E 21 83 48 65
        E 15 81 52 66
        E 12 94 40 64
        E 60 82 4d 63
        E 31 91 52 66
        E 17 8d 34 64
        E 1 92 4d 63
        E 20 93 48 65
        E 32 96 42 66
        E 9 84 40 64
        E 54 9b 3a 66
        E 26 94 40 64
        E 11 81 52 66
        E 12 88 3d 66
        E 22 85 46 66
        E 11 9d 34 64
        E 58 91 52 66
        E 58 84 40 64
        E 27 82 4d 63
        E 23 83 48 65
        E 28 92 4d 63
        E 0 95 46 66
        E 4 86 42 66
        E 0 8c 36 66
        E 1 94 40 64
        E 0 98 3d 66
        E 1 9e 2a 66
        E 30 81 52 66
        E 65 87 40 64
        E 25 93 48 65
        E 10 91 52 66
        E 39 84 40 64
        E 21 97 40 64
        E 53 94 40 64
        E 59 81 52 66
        E 33 82 4d 63
        E 1 85 46 66
        E 5 96 42 66
        E 47 92 4d 63
        E 16 8b 3a 66
        E 1 91 52 66
        E 11 84 40 64
        E 47 83 48 65
        E 33 94 40 64
        E 49 95 46 66
        E 31 81 52 66
        E 44 93 48 65
        E 47 84 40 64
        E 15 86 42 66
        E 1 88 3d 66
        E 0 91 52 66
        E 1 9c 36 66
        E 48 82 4d 63
        E 9 94 40 64
        E 38 92 4d 63
        E 39 9b 3a 66
        E 36 81 52 66
        E 21 87 40 64
        E 11 85 46 66
        E 23 98 3d 66
        E 4 84 40 64
        E 43 91 52 66
        E 5 83 48 65
        E 10 97 40 64
        E 22 94 40 64
        E 33 96 42 66
        E 62 95 46 66
        E 27 93 48 65
        E 6 82 4d 63
        E 6 81 52 66
        E 38 84 40 64
        E 4 8d 34 64
        E 0 92 4d 63
        E 62 91 52 66
        E 8 94 40 64
        E 131 86 42 66
        E 1 8c 36 66
        E 0 8e 2a 66
        E 1 9d 34 64
        E 28 81 52 66
        E 13 84 40 64
        E 21 85 46 66
        E 25 83 48 65
        E 33 94 40 64
        E 11 8b 3a 66
        E 0 91 52 66
        E 11 82 4d 63
        E 49 92 4d 63
        E 30 88 3d 66
        E 22 93 48 65
        E 25 95 46 66
        E 15 87 40 64
        E 6 84 40 64
        E 11 81 52 66
        E 38 96 42 66
        E 27 94 40 64
        E 21 97 40 64
        E 19 91 52 66
        E 46 98 3d 66
        E 83 82 4d 63
        E 3 84 40 64
        E 6 9b 3a 66
        E 33 81 52 66
        E 4 92 4d 63
        E 6 83 48 65
        E 25 85 46 66
        E 6 94 40 64
        E 65 86 42 66
        E 0 91 52 66
        E 1 9c 36 66
        E 57 93 48 65
        E 49 84 40 64
        E 26 95 46 66
        E 40 81 52 66
        E 11 94 40 64
        E 56 82 4d 63
        E 34 91 52 66
        E 15 92 4d 63
        E 56 96 42 66
        E 10 84 40 64
        E 35 87 40 64
        E 12 83 48 65
        E 32 94 40 64
        E 10 81 52 66
        E 11 88 3d 66
        E 21 85 46 66
        E 11 97 40 64
        E 58 8b 3a 66
        E 1 91 52 66
        E 11 93 48 65
        E 49 84 40 64
        E 27 82 4d 63
        E 48 92 4d 63
        E 1 95 46 66
        E 5 86 42 66
        E 0 8c 36 66
        E 1 8d 34 64
        E 0 94 40 64
        E 1 98 3d 66
        E 0 9e 2a 66
        E 29 81 52 66
        E 103 91 52 66
        E 36 84 40 64
        E 21 9d 34 64
        E 21 83 48 65
        E 32 94 40 64
        E 27 9b 3a 66
        E 34 81 52 66
        E 30 82 4d 63
        E 1 85 46 66
        E 3 96 42 66
        E 28 93 48 65
        E 23 92 4d 63
        E 16 91 52 66
        E 11 84 40 64
        E 70 87 40 64
        E 10 94 40 64
        E 47 95 46 66
        E 31 81 52 66
        E 6 97 40 64
        E 89 84 40 64
        E 14 86 42 66
        E 1 88 3d 66
        E 0 91 52 66
        E 1 9c 36 66
        E 25 83 48 65
        E 22 82 4d 63
        E 11 94 40 64
        E 35 92 4d 63
        E 77 81 52 66
        E 12 93 48 65
        E 21 85 46 66
        E 21 98 3d 66
        E 7 84 40 64
        E 39 8b 3a 66
        E 0 91 52 66
        E 39 94 40 64
        E 33 96 42 66
        E 65 95 46 66
        E 31 82 4d 63
        E 5 81 52 66
        E 37 84 40 64
        E 7 92 4d 63
        E 36 83 48 65
        E 21 91 52 66
        E 10 94 40 64
        E 29 87 40 64
        E 102 86 42 66
        E 0 8c 36 66
        E 1 8e 2a 66
        E 1 93 48 65
        E 0 97 40 64
        E 1 9b 3a 66
        E 28 81 52 66
        E 9 84 40 64
        E 23 85 46 66
        E 60 94 40 64
        E 11 91 52 66
        E 9 82 4d 63
        E 48 8d 34 64
        E 0 92 4d 63
        E 33 88 3d 66
        E 47 95 46 66
        E 24 84 40 64
        E 10 81 52 66
        E 39 83 48 65
        E 1 96 42 66
        E 26 94 40 64
        E 20 9d 34 64
        E 15 91 52 66
        E 48 98 3d 66
        E 45 93 48 65
        E 37 82 4d 63
        E 6 84 40 64
        E 34 81 52 66
        E 7 92 4d 63
        E 33 85 46 66
        E 6 94 40 64
        E 63 86 42 66
        E 1 87 40 64
        E 0 8b 3a 66
        E 1 91 52 66
        E 0 9c 36 66
        E 94 97 40 64
        E 9 84 40 64
        E 28 95 46 66
        E 22 83 48 65
        E 17 81 52 66
        E 10 94 40 64
        E 58 82 4d 63
        E 35 91 52 66
        E 16 92 4d 63
        E 21 93 48 65
        E 30 96 42 66
        E 9 84 40 64
        E 55 9b 3a 66
        E 26 94 40 64
        E 12 81 52 66
        E 11 88 3d 66
        E 23 85 46 66
        E 69 91 52 66
        E 57 84 40 64
        E 30 82 4d 63
        E 20 83 48 65
        E 27 92 4d 63
        E 1 95 46 66
        E 3 86 42 66
        E 1 8c 36 66
        E 1 94 40 64
        E 0 98 3d 66
        E 1 9e 2a 66
        E 29 81 52 66
        E 65 87 40 64
        E 28 93 48 65
        E 10 91 52 66
        E 37 84 40 64
        E 22 97 40 64
        E 54 94 40 64
        E 58 81 52 66
        E 33 82 4d 63
        E 0 85 46 66
        E 6 96 42 66
        E 49 8d 34 64
        E 0 92 4d 63
        E 15 8b 3a 66
        E 1 91 52 66
        E 10 84 40 64
        E 45 83 48 65
        E 33 94 40 64
        E 51 95 46 66
        E 31 81 52 66
        E 6 9d 34 64
        E 34 93 48 65
        E 50 84 40 64
        E 18 86 42 66
        E 0 88 3d 66
        E 1 91 52 66
        E 0 9c 36 66
        E 46 82 4d 63
        E 9 94 40 64
        E 39 92 4d 63
        E 39 9b 3a 66
        E 35 81 52 66
        E 22 87 40 64
        E 11 85 46 66
        E 20 98 3d 66
        E 6 84 40 64
        E 45 91 52 66
        E 5 83 48 65
        E 10 97 40 64
        E 22 94 40 64
        E 31 96 42 66
        E 66 95 46 66
        E 26 93 48 65
        E 3 82 4d 63
        E 6 81 52 66
        E 40 84 40 64
        E 4 92 4d 63
        E 59 91 52 66
        E 10 94 40 64
        E 130 86 42 66
        E 1 8c 36 66
        E 1 8e 2a 66
        E 21 81 52 66
        E 8 84 40 64
        E 17 85 46 66
        E 17 83 48 65
        E 28 8b 3a 66
        E 9 82 4d 63
        E 19 91 52 66
        E 37 88 3d 66
        E 22 92 4b 64
        E 23 87 40 64
        E 41 81 52 66
        E 0 93 52 66
        E 60 94 42 66
        E 60 82 4b 64
        E 0 84 42 66
        E 0 91 52 66
        E 1 94 42 66
        E 0 95 3f 65
        E 49 8d 34 64
        E 11 96 3c 65
        E 62 81 52 66
        E 0 83 52 66
        E 0 97 3a 66
        E 61 92 4b 64
        E 63 84 42 66
        E 1 91 52 66
        E 0 98 36 66
        E 118 81 52 66
        E 0 82 4b 64
        E 1 85 3f 65
        E 0 88 36 66
        E 1 93 52 66
        E 1 98 36 66
        E 0 9a 33 65
        E 121 86 3c 65
        E 1 91 52 66
        E 1 9b 30 65
        E 56 92 4b 64
        E 1 94 42 66
        E 62 81 52 66
        E 1 83 52 66
        E 2 84 42 66
        E 1 87 3a 66
        E 0 94 42 66
        E 1 9c 2e 66
        E 117 82 4b 64
        E 0 91 52 66
        E 1 95 3f 65
        E 122 81 52 66
        E 1 84 42 66
        E 1 88 36 66
        E 0 93 52 66
        E 1 9d 2a 66
        E 57 92 4b 64
        E 1 96 3c 65
        E 62 91 52 66
        E 119 81 52 66
        E 0 82 4b 64
        E 1 83 52 66
        E 1 85 3f 65
        E 0 8a 33 65
        E 1 8d 2a 66
        E 1 97 3a 66
        E 0 9d 2a 66
        E 58 94 42 66
        E 62 84 42 66
        E 1 91 52 66
        E 1 94 42 66
        E 59 92 4b 64
        E 61 81 52 66
        E 1 86 3c 65
        E 1 8b 30 65
        E 1 93 52 66
        E 120 82 4b 64
        E 0 84 42 66
        E 1 91 52 66
        E 1 95 3f 65
        E 0 98 36 66
        E 120 81 52 66
        E 0 83 52 66
        E 1 87 3a 66
        E 0 88 36 66
        E 1 8c 2e 66
        E 0 98 36 66
        E 56 92 4b 64
        E 63 91 52 66
        E 59 94 42 66
        E 1 96 3c 65
        E 63 81 52 66
        E 1 82 4b 64
        E 0 84 42 66
        E 1 85 3f 65
        E 0 93 52 66
        E 1 94 42 66
        E 0 9a 33 65
        E 116 91 52 66
        E 63 92 4b 64
        E 60 81 52 66
        E 1 83 52 66
        E 0 84 42 66
        E 1 88 36 66
        E 0 8d 2a 66
        E 1 97 3a 66
        E 119 82 4b 64
        E 0 86 3c 65
        E 1 91 52 66
        E 1 95 3f 65
        E 0 9b 30 65
        E 121 81 52 66
        E 1 93 52 66
        E 61 92 4b 64
        E 1 94 42 66
        E 59 84 42 66
        E 1 91 52 66
        E 0 94 42 66
        E 121 81 52 66
        E 0 82 4b 64
        E 1 83 52 66
        E 1 85 3f 65
        E 0 87 3a 66
        E 1 8a 33 65
        E 1 9c 2e 66
        E 57 96 3c 65
        E 63 84 42 66
        E 0 91 52 66
        E 1 98 36 66
        E 59 92 4b 64
        E 58 81 52 66
        E 1 88 36 66
        E 1 93 52 66
        E 0 98 36 66
        E 122 82 4b 64
        E 1 91 52 66
        E 1 95 3f 65
        E 61 94 42 66
        E 57 81 52 66
        E 1 83 52 66
        E 0 84 42 66
        E 1 86 3c 65
        E 1 8b 30 65
        E 1 94 42 66
        E 0 97 3a 66
        E 60 92 4b 64
        E 58 91 52 66
        E 127 81 52 66
        E 0 82 4b 64
        E 1 84 42 66
        E 1 85 3f 65
        E 0 88 36 66
        E 1 93 52 66
        E 1 9a 33 65
        E 0 9d 2a 66
        E 116 91 52 66
        E 61 92 4b 64
        E 1 96 3c 65
        E 62 81 52 66
        E 0 83 52 66
        E 1 87 3a 66
        E 0 8c 2e 66
        E 1 8d 2a 66
        E 0 9d 2a 66
        E 56 94 42 66
        E 61 82 4b 64
        E 0 84 42 66
        E 1 91 52 66
        E 1 94 42 66
        E 0 95 3f 65
        E 120 81 52 66
        E 0 93 52 66
        E 62 92 4b 64
        E 61 84 42 66
        E 0 86 3c 65
        E 1 91 52 66
        E 1 98 36 66
        E 1 9b 30 65
        E 119 81 52 66
        E 0 82 4b 64
        E 1 83 52 66
        E 1 85 3f 65
        E 0 88 36 66
        E 1 8a 33 65
        E 0 97 3a 66
        E 1 98 36 66
        E 118 91 52 66
        E 59 92 4b 64
        E 0 94 42 66
        E 64 81 52 66
        E 0 84 42 66
        E 1 93 52 66
        E 1 94 42 66
        E 59 96 3c 65
        E 59 82 4b 64
        E 1 91 52 66
        E 1 95 3f 65
        E 121 81 52 66
        E 1 83 52 66
        E 0 84 42 66
        E 1 87 3a 66
        E 0 88 36 66
        E 1 8d 2a 66
        E 1 9c 2e 66
        E 59 92 4b 64
        E 60 91 52 66
        E 120 81 52 66
        E 0 82 4b 64
        E 0 85 3f 65
        E 1 86 3c 65
        E 1 8b 30 65
        E 0 93 52 66
        E 1 9a 33 65
        E 58 94 42 66
        E 62 84 42 66
        E 1 91 52 66
        E 1 94 42 66
        E 60 92 4b 64
        E 59 81 52 66
        E 0 83 52 66
        E 1 97 3a 66
        E 124 82 4b 64
        E 0 84 42 66
        E 1 91 52 66
        E 1 95 3f 65
        E 0 98 36 66
        E 56 96 3c 65
        E 61 81 52 66
        E 1 88 36 66
        E 0 93 52 66
        E 1 98 36 66
        E 60 92 4b 64
        E 61 91 52 66
        E 60 94 42 66
        E 64 81 52 66
        E 1 82 4b 64
        E 0 83 52 66
        E 1 84 42 66
        E 0 85 3f 65
        E 1 87 3a 66
        E 1 8a 33 65
        E 0 8c 2e 66
        E 0 94 42 66
        E 116 86 3c 65
        E 1 91 52 66
        E 1 9b 30 65
        E 58 92 4b 64
        E 63 81 52 66
        E 1 84 42 66
        E 0 88 36 66
        E 1 93 52 66
        E 0 9d 2a 66
        E 119 82 4b 64
        E 1 91 52 66
        E 1 95 3f 65
        E 119 81 52 66
        E 0 83 52 66
        E 0 8d 2a 66
        E 1 97 3a 66
        E 1 9d 2a 66
        E 59 92 4b 64
        E 1 94 42 66
        E 1 96 3c 65
        E 59 84 42 66
        E 1 91 52 66
        E 0 94 42 66
        E 122 81 52 66
        E 1 82 4b 64
        E 0 85 3f 65
        E 1 93 52 66
        E 0 9a 33 65
        E 121 84 42 66
        E 1 91 52 66
        E 0 98 36 66
        E 59 92 4b 64
        E 61 81 52 66
        E 1 83 52 66
        E 0 86 3c 65
        E 1 87 3a 66
        E 0 88 36 66
        E 1 8b 30 65
        E 1 98 36 66
        E 1 9c 2e 66
        E 118 82 4b 64
        E 1 91 52 66
        E 1 95 3f 65
        E 57 94 42 66
        E 62 81 52 66
        E 1 84 42 66
        E 0 93 52 66
        E 1 94 42 66
        E 61 92 4b 64
        E 58 91 52 66
        E 65 96 3c 65
        E 59 81 52 66
        E 1 82 4b 64
        E 0 83 52 66
        E 1 84 42 66
        E 0 85 3f 65
        E 1 88 36 66
        E 0 8a 33 65
        E 1 8d 2a 66
        E 1 97 3a 66
        E 116 91 52 66
        E 64 92 4b 64
        E 59 81 52 66
        E 1 93 52 66
        E 60 94 42 66
        E 60 82 4b 64
        E 1 84 42 66
        E 0 86 3c 65
        E 1 91 52 66
        E 1 94 42 66
        E 0 95 3f 65
        E 1 9b 30 65
        E 118 81 52 66
        E 0 83 52 66
        E 1 87 3a 66
        E 0 8c 2e 66
        E 60 92 4b 64
        E 61 84 42 66
        E 1 91 52 66
        E 0 98 36 66
        E 122 81 52 66
        E 0 82 4b 64
        E 1 85 3f 65
        E 0 88 36 66
        E 1 93 52 66
        E 0 98 36 66
        E 1 9a 33 65
        E 58 96 3c 65
        E 59 91 52 66
        E 62 92 4b 64
        E 1 94 42 66
        E 62 81 52 66
        E 0 83 52 66
        E 1 84 42 66
        E 1 94 42 66
        E 1 97 3a 66
        E 117 82 4b 64
        E 0 91 52 66
        E 1 95 3f 65
        E 123 81 52 66
        E 1 84 42 66
        E 0 86 3c 65
        E 1 88 36 66
        E 0 8b 30 65
        E 1 93 52 66
        E 1 9d 2a 66
        E 57 92 4b 64
        E 58 91 52 66
        E 122 81 52 66
        E 1 82 4b 64
        E 0 83 52 66
        E 1 85 3f 65
        E 1 87 3a 66
        E 0 8a 33 65
        E 0 8d 2a 66
        E 1 9c 2e 66
        E 1 9d 2a 66
        E 57 94 42 66
        E 62 84 42 66
        E 0 91 52 66
        E 1 94 42 66
        E 60 92 4b 64
        E 1 96 3c 65
        E 58 81 52 66
        E 1 93 52 66
        E 123 82 4b 64
        E 1 84 42 66
        E 1 91 52 66
        E 0 95 3f 65
        E 1 98 36 66
        E 118 81 52 66
        E 0 83 52 66
        E 1 88 36 66
        E 0 97 3a 66
        E 1 98 36 66
        E 62 92 4b 64
        E 61 86 3c 65
        E 0 91 52 66
        E 1 9b 30 65
        E 59 94 42 66
        E 60 81 52 66
        E 1 82 4b 64
        E 1 84 42 66
        E 0 85 3f 65
        E 1 88 36 66
        E 1 93 52 66
        E 0 94 42 66
        E 1 9a 33 65
        E 116 91 52 66
        E 63 92 4b 64
        E 59 81 52 66
        E 1 83 52 66
        E 0 84 42 66
        E 1 87 3a 66
        E 1 8c 2e 66
        E 0 8d 2a 66
        E 58 96 3c 65
        E 61 82 4b 64
        E 0 91 52 66
        E 1 95 3f 65
        E 121 81 52 66
        E 0 93 52 66
        E 60 92 4b 64
        E 1 94 42 66
        E 62 84 42 66
        E 0 8b 30 65
        E 1 91 52 66
        E 1 94 42 66
        E 121 81 52 66
        E 0 82 4b 64
        E 1 83 52 66
        E 0 85 3f 65
        E 1 86 3c 65
        E 0 8a 33 65
        E 1 97 3a 66
        E 117 84 42 66
        E 1 91 52 66
        E 0 98 36 66
        E 60 92 4b 64
        E 64 81 52 66
        E 0 88 36 66
        E 1 93 52 66
        E 1 98 36 66
        E 116 82 4b 64
        E 0 88 36 66
        E 1 91 52 66
        E 1 95 3f 65
        E 59 94 42 66
        E 1 96 3c 65
        E 62 81 52 66
        E 1 83 52 66
        E 0 84 42 66
        E 1 87 3a 66
        E 1 94 42 66
        E 1 9c 2e 66
        E 56 92 4b 64
        E 186 82 4b 64
        E 0 84 42 66
        E 1 85 3f 65
        E 0 93 52 66
        E 1 9a 33 65
        E 118 86 3c 65
        E 1 9b 30 65
        E 121 83 52 66
        E 61 94 42 66
        E 61 84 42 66
        E 1 94 42 66
        E 1 95 3f 65
        E 244 84 42 66
        E 0 8b 30 65
        E 2 98 36 66
        E 118 85 3f 65
        E 1 88 36 66
        E 0 8a 33 65
        E 1 8c 2e 66
        E 1098 98 36 66
        E 0 9b 30 65
        E 121 88 36 66
        E 244 8b 30 65
        E 857 98 36 66
        E 121 88 36 66
        E 365 9b 30 65
        E 242 8b 30 65
        E 491 98 36 66
        E 121 88 36 66
        E 857 9b 30 65
        E 180 8b 30 65
        E 62 98 36 66
        E 123 88 36 66
        E 1097 98 36 66
        E 122 88 36 66
        E 121 9b 30 65
        E 121 8b 30 65
        E 853 98 36 66
        E 124 88 36 66
        E 1099 98 36 66
        E 131 88 36 66
        E 108 9b 30 65
        E 135 8b 30 65
        E 843 98 36 66
        E 131 88 36 66
        E 601 9b 30 65
        E 132 8b 30 65
        E 356 98 36 66
        E 131 88 36 66
        E 1088 98 36 66
        E 0 9b 30 65
        E 102 8b 30 65
        E 33 88 36 66
        E 1083 98 36 66
        E 135 88 36 66
        E 351 9b 30 65
        E 100 8b 30 65
        E 634 98 36 66
        E 101 88 36 66
        E 875 9b 30 65
        E 98 8b 30 65
        E 141 98 36 66
        E 103 88 36 66
        E 1118 98 36 66
        E 136 88 36 66
        E 105 9b 30 65
        E 65 97 42 66
        E 72 8b 30 65
        E 272 94 42 66
        E 135 84 42 66
        E 54 87 42 66
        E 6 94 42 66
        E 71 97 42 66
        E 64 84 42 66
        E 59 94 42 66
        E 130 9a 3f 67
        E 4 84 42 66
        E 43 98 36 66
        E 17 94 42 66
        E 76 95 48 65
        E 45 88 36 66
        E 14 84 42 66
        E 59 94 42 66
        E 20 87 42 66
        E 81 97 42 66
        E 1 9c 3c 65
        E 31 84 42 66
        E 17 85 48 65
        E 45 94 42 66
        E 54 92 4e 66
        E 25 8a 3f 67
        E 39 95 48 65
        E 17 84 42 66
        E 56 94 42 66
        E 68 9a 3f 67
        E 62 82 4e 66
        E 3 84 42 66
        E 5 9b 30 65
        E 29 92 4e 66
        E 25 85 48 65
        E 4 94 42 66
        E 49 87 42 66
        E 1 8c 3c 65
        E 1 9d 38 67
        E 74 97 42 66
        E 10 84 42 66
        E 22 95 48 65
        E 37 94 42 66
        E 16 8b 30 65
        E 27 82 4e 66
        E 38 92 4e 66
        E 50 84 42 66
        E 42 9c 3c 65
        E 21 94 42 66
        E 16 8a 3f 67
        E 17 85 48 65
        E 8 98 36 66
        E 92 84 42 66
        E 23 82 4e 66
        E 20 88 36 66
        E 16 92 4e 66
        E 0 95 48 65
        E 4 8d 38 67
        E 0 94 42 66
        E 1 9a 3f 67
        E 0 9f 2c 67
        E 72 87 42 66
        E 24 93 4b 64
        E 9 90 54 65
        E 27 84 42 66
        E 15 97 42 66
        E 45 94 42 66
        E 43 80 54 65
        E 26 82 4e 66
        E 0 85 48 65
        E 4 96 44 67
        E 38 92 4e 66
        E 12 8c 3c 65
        E 1 90 54 65
        E 8 84 42 66
        E 36 83 4b 64
        E 26 94 42 66
        E 39 95 48 65
        E 23 80 54 65
        E 34 93 4b 64
        E 38 84 42 66
        E 11 86 44 67
        E 1 8a 3f 67
        E 0 90 54 65
        E 1 9d 38 67
        E 38 82 4e 66
        E 8 94 42 66
        E 29 92 4e 66
        E 27 9c 3c 65
        E 31 80 54 65
        E 16 87 42 66
        E 10 85 48 65
        E 16 9a 3f 67
        E 3 84 42 66
        E 35 90 54 65
        E 3 83 4b 64
        E 7 97 42 66
        E 18 94 42 66
        E 25 96 44 67
        E 48 95 48 65
        E 21 93 4b 64
        E 4 82 4e 66
        E 4 80 54 65
        E 31 84 42 66
        E 6 92 4e 66
        E 44 90 54 65
        E 9 94 42 66
        E 100 86 44 67
        E 0 8d 38 67
        E 1 8f 2c 67
        E 1 98 36 66
        E 22 80 54 65
        E 8 84 42 66
        E 16 85 48 65
        E 22 83 4b 64
        E 28 94 42 66
        E 7 8c 3c 65
        E 0 90 54 65
        E 7 82 4e 66
        E 22 88 36 66
        E 17 92 4e 66
        E 23 8a 3f 67
        E 19 93 4b 64
        E 19 95 48 65
        E 13 87 42 66
        E 4 84 42 66
        E 9 80 54 65
        E 29 96 44 67
        E 21 94 42 66
        E 15 97 42 66
        E 15 90 54 65
        E 36 9a 3f 67
        E 61 82 4e 66
        E 5 84 42 66
        E 3 9c 3c 65
        E 27 80 54 65
        E 4 92 4e 66
        E 5 83 4b 64
        E 20 85 48 65
        E 5 94 42 66
        E 51 86 44 67
        E 1 90 54 65
        E 0 9d 38 67
        E 44 93 4b 64
        E 36 84 42 66
        E 22 95 48 65
        E 31 80 54 65
        E 6 94 42 66
        E 46 82 4e 66
        E 25 90 54 65
        E 14 92 4e 66
        E 41 96 44 67
        E 7 84 42 66
        E 29 87 42 66
        E 6 83 4b 64
        E 25 94 42 66
        E 10 80 54 65
        E 7 8a 3f 67
        E 18 85 48 65
        E 8 97 42 66
        E 49 8c 3c 65
        E 0 90 54 65
        E 7 93 4b 64
        E 35 84 42 66
        E 23 82 4e 66
        E 37 92 4e 66
        E 0 95 48 65
        E 3 86 44 67
        E 1 8d 38 67
        E 0 94 42 66
        E 1 9a 3f 67
        E 0 9f 2c 67
        E 23 80 54 65
        E 82 90 54 65
        E 26 84 42 66
        E 18 98 36 66
        E 15 83 4b 64
        E 28 94 42 66
        E 21 9c 3c 65
        E 23 80 54 65
        E 25 82 4e 66
        E 0 85 48 65
        E 5 96 44 67
        E 17 88 36 66
        E 4 93 4b 64
        E 20 92 4e 66
        E 7 90 54 65
        E 9 84 42 66
        E 54 87 42 66
        E 8 94 42 66
        E 41 95 48 65
        E 23 80 54 65
        E 4 97 42 66
        E 69 84 42 66
        E 10 86 44 67
        E 0 8a 3f 67
        E 0 90 54 65
        E 0 9d 38 67
        E 20 83 4b 64
        E 17 82 4e 66
        E 8 94 42 66
        E 29 92 4e 66
        E 61 80 54 65
        E 8 93 4b 64
        E 17 85 48 65
        E 15 9a 3f 67
        E 6 84 42 66
        E 32 8c 3c 65
        E 1 90 54 65
        E 28 94 42 66
        E 25 96 44 67
        E 50 95 48 65
        E 24 82 4e 66
        E 4 80 54 65
        E 32 84 42 66
        E 5 92 4e 66
        E 28 83 4b 64
        E 16 90 54 65
        E 8 94 42 66
        E 20 87 42 66
        E 80 86 44 67
        E 0 8d 38 67
        E 1 8f 2c 67
        E 1 93 4b 64
        E 0 97 42 66
        E 1 9c 3c 65
        E 21 80 54 65
        E 8 84 42 66
        E 18 85 48 65
        E 26 91 52 66
        E 19 94 42 66
        E 7 90 54 65
        E 9 82 4e 66
        E 38 92 4e 66
        E 24 8a 3f 67
        E 36 81 52 66
        E 5 95 48 65
        E 13 91 52 66
        E 3 84 42 66
        E 10 80 54 65
        E 28 83 4b 64
        E 0 96 44 67
        E 19 94 42 66
        E 30 90 54 65
        E 36 9a 3f 67
        E 6 81 52 66
        E 20 91 52 66
        E 9 93 4b 64
        E 28 82 4e 66
        E 4 84 42 66
        E 29 80 54 65
        E 6 92 4e 66
        E 24 85 48 65
        E 5 94 42 66
        E 29 81 52 66
        E 21 86 44 67
        E 1 87 42 66
        E 1 8c 3c 65
        E 0 90 54 65
        E 0 91 52 66
        E 0 9d 38 67
        E 74 97 42 66
        E 7 84 42 66
        E 21 95 48 65
        E 16 83 4b 64
        E 12 80 54 65
        E 0 81 52 66
        E 9 94 42 66
        E 8 91 52 66
        E 36 82 4e 66
        E 25 90 54 65
        E 13 92 4e 66
        E 18 93 4b 64
        E 26 96 44 67
        E 8 84 42 66
        E 8 81 52 66
        E 21 91 52 66
        E 13 9c 3c 65
        E 21 94 42 66
        E 7 80 54 65
        E 8 8a 3f 67
        E 15 85 48 65
        E 56 90 54 65
        E 13 81 52 66
        E 16 91 52 66
        E 17 84 42 66
        E 22 82 4e 66
        E 17 83 4b 64
        E 20 92 4e 66
        E 0 95 48 65
        E 5 86 44 67
        E 1 8d 38 67
        E 0 94 42 66
        E 1 9a 3f 67
        E 0 9f 2c 67
        E 21 80 54 65
        E 31 81 52 66
        E 21 87 42 66
        E 1 91 52 66
        E 19 93 4b 64
        E 38 84 42 66
        E 17 97 42 66
        E 39 94 42 66
        E 17 81 52 66
        E 18 91 52 66
        E 36 82 4e 66
        E 1 85 48 65
        E 3 96 44 67
        E 38 92 4e 66
        E 12 8c 3c 65
        E 9 84 42 66
        E 33 81 52 66
        E 4 83 4b 64
        E 18 91 52 66
        E 8 94 42 66
        E 36 95 48 65
        E 58 93 4b 64
        E 31 81 52 66
        E 9 84 42 66
        E 11 86 44 67
        E 1 8a 3f 67
        E 1 91 52 66
        E 0 9d 38 67
        E 37 82 4e 66
        E 8 94 42 66
        E 29 92 4e 66
        E 31 9c 3c 65
        E 28 81 52 66
        E 16 87 42 66
        E 1 91 52 66
        E 8 85 48 65
        E 16 9a 3f 67
        E 5 84 42 66
        E 36 83 4b 64
        E 7 97 42 66
        E 20 94 42 66
        E 25 96 44 67
        E 16 81 52 66
        E 21 91 52 66
        E 12 95 48 65
        E 20 93 4b 64
        E 4 82 4e 66
        E 34 84 42 66
        E 4 92 4e 66
        E 55 94 42 66
        E 3 81 52 66
        E 19 91 52 66
        E 77 86 44 67
        E 1 8d 38 67
        E 0 8f 2c 67
        E 29 84 42 66
        E 15 85 48 65
        E 3 81 52 66
        E 16 83 4b 64
        E 31 8c 3c 65
        E 9 82 4e 66
        E 20 91 52 66
        E 36 8a 3f 67
        E 21 92 4b 64
        E 23 87 42 66
        E 39 81 52 66
        E 1 93 52 66
        E 62 94 42 66
        E 59 82 4b 64
        E 1 84 42 66
        E 0 91 52 66
        E 1 94 42 66
        E 0 95 3f 65
        E 61 96 3c 65
        E 61 81 52 66
        E 0 83 52 66
        E 1 97 3a 66
        E 56 92 4b 64
        E 65 84 42 66
        E 1 91 52 66
        E 1 98 36 66
        E 119 81 52 66
        E 0 82 4b 64
        E 1 85 3f 65
        E 1 88 36 66
        E 0 93 52 66
        E 1 98 36 66
        E 1 9a 33 65
        E 119 86 3c 65
        E 1 91 52 66
        E 0 9b 30 65
        E 60 92 4b 64
        E 1 94 42 66
        E 61 81 52 66
        E 0 83 52 66
        E 1 84 42 66
        E 0 87 3a 66
        E 1 94 42 66
        E 1 9c 2e 66
        E 117 82 4b 64
        E 0 91 52 66
        E 1 95 3f 65
        E 122 81 52 66
        E 1 84 42 66
        E 0 88 36 66
        E 1 93 52 66
        E 1 9d 2a 66
        E 57 92 4b 64
        E 1 96 3c 65
        E 62 91 52 66
        E 121 81 52 66
        E 0 82 4b 64
        E 1 83 52 66
        E 1 85 3f 65
        E 0 8a 33 65
        E 1 8d 2a 66
        E 1 97 3a 66
        E 0 9d 2a 66
        E 59 94 42 66
        E 56 84 42 66
        E 1 91 52 66
        E 0 94 42 66
        E 61 92 4b 64
        E 62 81 52 66
        E 1 86 3c 65
        E 0 8b 30 65
        E 1 93 52 66
        E 118 82 4b 64
        E 1 84 42 66
        E 0 91 52 66
        E 1 95 3f 65
        E 1 98 36 66
        E 123 81 52 66
        E 1 83 52 66
        E 1 87 3a 66
        E 0 88 36 66
        E 1 8c 2e 66
        E 0 98 36 66
        E 58 92 4b 64
        E 61 91 52 66
        E 60 94 42 66
        E 0 96 3c 65
        E 59 81 52 66
        E 0 82 4b 64
        E 1 84 42 66
        E 1 85 3f 65
        E 1 93 52 66
        E 0 94 42 66
        E 0 9a 33 65
        E 120 91 52 66
        E 59 92 4b 64
        E 64 81 52 66
        E 0 83 52 66
        E 1 84 42 66
        E 0 88 36 66
        E 1 8d 2a 66
        E 1 97 3a 66
        E 120 82 4b 64
        E 1 86 3c 65
        E 0 91 52 66
        E 1 95 3f 65
        E 1 9b 30 65
        E 117 81 52 66
        E 0 93 52 66
        E 63 92 4b 64
        E 1 94 42 66
        E 59 84 42 66
        E 1 91 52 66
        E 1 94 42 66
        E 123 81 52 66
        E 1 82 4b 64
        E 0 83 52 66
        E 1 85 3f 65
        E 1 87 3a 66
        E 0 8a 33 65
        E 1 9c 2e 66
        E 54 96 3c 65
        E 61 84 42 66
        E 1 91 52 66
        E 1 98 36 66
        E 60 92 4b 64
        E 60 81 52 66
        E 1 88 36 66
        E 0 93 52 66
        E 1 98 36 66
        E 119 82 4b 64
        E 1 91 52 66
        E 1 95 3f 65
        E 60 94 42 66
        E 60 81 52 66
        E 0 83 52 66
        E 1 84 42 66
        E 1 86 3c 65
        E 0 8b 30 65
        E 1 94 42 66
        E 0 97 3a 66
        E 61 92 4b 64
        E 60 91 52 66
        E 121 81 52 66
        E 1 82 4b 64
        E 0 84 42 66
        E 1 85 3f 65
        E 1 88 36 66
        E 0 93 52 66
        E 1 9a 33 65
        E 0 9d 2a 66
        E 120 91 52 66
        E 59 92 4b 64
        E 0 96 3c 65
        E 62 81 52 66
        E 1 83 52 66
        E 1 87 3a 66
        E 0 8c 2e 66
        E 0 8d 2a 66
        E 1 9d 2a 66
        E 59 94 42 66
        E 60 82 4b 64
        E 0 84 42 66
        E 1 91 52 66
        E 0 94 42 66
        E 1 95 3f 65
        E 118 81 52 66
        E 1 93 52 66
        E 61 92 4b 64
        E 61 84 42 66
        E 0 86 3c 65
        E 1 91 52 66
        E 1 98 36 66
        E 0 9b 30 65
        E 119 81 52 66
        E 1 82 4b 64
        E 1 83 52 66
        E 0 85 3f 65
        E 1 88 36 66
        E 0 8a 33 65
        E 1 97 3a 66
        E 0 98 36 66
        E 122 91 52 66
        E 59 92 4b 64
        E 1 94 42 66
        E 57 81 52 66
        E 0 84 42 66
        E 1 93 52 66
        E 1 94 42 66
        E 61 96 3c 65
        E 61 82 4b 64
        E 1 91 52 66
        E 1 95 3f 65
        E 119 81 52 66
        E 0 83 52 66
        E 1 84 42 66
        E 1 87 3a 66
        E 0 88 36 66
        E 1 8d 2a 66
        E 0 9c 2e 66
        E 59 92 4b 64
        E 62 91 52 66
        E 122 81 52 66
        E 1 82 4b 64
        E 1 85 3f 65
        E 0 86 3c 65
        E 1 8b 30 65
        E 0 93 52 66
        E 1 9a 33 65
        E 55 94 42 66
        E 62 84 42 66
        E 0 91 52 66
        E 1 94 42 66
        E 61 92 4b 64
        E 62 81 52 66
        E 1 83 52 66
        E 1 97 3a 66
        E 119 82 4b 64
        E 0 84 42 66
        E 1 91 52 66
        E 0 95 3f 65
        E 1 98 36 66
        E 58 96 3c 65
        E 63 81 52 66
        E 0 88 36 66
        E 1 93 52 66
        E 1 98 36 66
        E 57 92 4b 64
        E 61 91 52 66
        E 61 94 42 66
        E 61 81 52 66
        E 1 82 4b 64
        E 1 83 52 66
        E 0 84 42 66
        E 1 85 3f 65
        E 0 87 3a 66
        E 0 8a 33 65
        E 1 8c 2e 66
        E 0 94 42 66
        E 118 86 3c 65
        E 0 91 52 66
        E 3 9b 30 65
        E 57 92 4b 64
        E 62 81 52 66
        E 1 84 42 66
        E 1 88 36 66
        E 0 93 52 66
        E 1 9d 2a 66
        E 121 82 4b 64
        E 1 91 52 66
        E 1 95 3f 65
        E 120 81 52 66
        E 0 83 52 66
        E 1 8d 2a 66
        E 1 97 3a 66
        E 0 9d 2a 66
        E 59 92 4b 64
        E 1 94 42 66
        E 1 96 3c 65
        E 58 84 42 66
        E 0 91 52 66
        E 1 94 42 66
        E 121 81 52 66
        E 1 82 4b 64
        E 1 85 3f 65
        E 0 93 52 66
        E 1 9a 33 65
        E 120 84 42 66
        E 1 91 52 66
        E 1 98 36 66
        E 59 92 4b 64
        E 59 81 52 66
        E 1 83 52 66
        E 0 86 3c 65
        E 1 87 3a 66
        E 0 88 36 66
        E 1 8b 30 65
        E 1 98 36 66
        E 0 9c 2e 66
        E 118 82 4b 64
        E 1 91 52 66
        E 0 95 3f 65
        E 62 94 42 66
        E 61 81 52 66
        E 0 84 42 66
        E 1 93 52 66
        E 1 94 42 66
        E 58 92 4b 64
        E 62 91 52 66
        E 61 96 3c 65
        E 60 81 52 66
        E 1 82 4b 64
        E 0 83 52 66
        E 1 84 42 66
        E 0 85 3f 65
        E 1 88 36 66
        E 1 8a 33 65
        E 0 8d 2a 66
        E 1 97 3a 66
        E 117 91 52 66
        E 62 92 4b 64
        E 61 81 52 66
        E 1 93 52 66
        E 60 94 42 66
        E 58 82 4b 64
        E 1 84 42 66
        E 1 86 3c 65
        E 0 91 52 66
        E 1 94 42 66
        E 1 95 3f 65
        E 0 9b 30 65
        E 122 81 52 66
        E 0 83 52 66
        E 1 87 3a 66
        E 1 8c 2e 66
        E 0 9f 2e 66
        E 56 92 4b 64
        E 61 84 42 66
        E 1 91 52 66
        E 0 98 36 66
        E 123 81 52 66
        E 1 82 4b 64
        E 1 85 3f 65
        E 0 88 36 66
        E 1 93 52 66
        E 0 98 36 66
        E 1 9a 33 65
        E 57 96 3c 65
        E 62 91 52 66
        E 59 92 4b 64
        E 1 94 42 66
        E 59 81 52 66
        E 1 83 52 66
        E 0 84 42 66
        E 1 94 42 66
        E 1 97 3a 66
        E 122 82 4b 64
        E 0 91 52 66
        E 1 95 3f 65
        E 119 81 52 66
        E 0 84 42 66
        E 1 86 3c 65
        E 1 88 36 66
        E 1 8b 30 65
        E 0 93 52 66
        E 0 9d 2a 66
        E 59 92 4b 64
        E 59 91 52 66
        E 124 81 52 66
        E 0 82 4b 64
        E 1 83 52 66
        E 0 85 3f 65
        E 1 87 3a 66
        E 0 8d 2a 66
        E 2 9c 2e 66
        E 0 9d 2a 66
        E 59 94 42 66
        E 58 84 42 66
        E 1 91 52 66
        E 0 94 42 66
        E 63 92 4b 64
        E 0 96 3c 65
        E 57 81 52 66
        E 1 8a 33 65
        E 1 93 52 66
        E 122 82 4b 64
        E 0 84 42 66
        E 1 91 52 66
        E 1 95 3f 65
        E 1 98 36 66
        E 121 81 52 66
        E 0 83 52 66
        E 1 88 36 66
        E 0 97 3a 66
        E 1 98 36 66
        E 56 92 4b 64
        E 63 86 3c 65
        E 1 91 52 66
        E 0 9b 30 65
        E 61 94 42 66
        E 59 81 52 66
        E 0 82 4b 64
        E 1 84 42 66
        E 1 85 3f 65
        E 0 88 36 66
        E 1 93 52 66
        E 1 94 42 66
        E 0 9a 33 65
        E 118 91 52 66
        E 61 92 4b 64
        E 61 81 52 66
        E 1 83 52 66
        E 1 84 42 66
        E 0 87 3a 66
        E 1 8c 2e 66
        E 1 8d 2a 66
        E 58 96 3c 65
        E 61 82 4b 64
        E 1 91 52 66
        E 1 95 3f 65
        E 119 81 52 66
        E 1 93 52 66
        E 62 92 4b 64
        E 1 94 42 66
        E 59 84 42 66
        E 0 8b 30 65
        E 1 91 52 66
        E 1 94 42 66
        E 120 81 52 66
        E 1 82 4b 64
        E 0 83 52 66
        E 1 85 3f 65
        E 0 86 3c 65
        E 1 97 3a 66
        E 120 84 42 66
        E 0 91 52 66
        E 1 98 36 66
        E 57 92 4b 64
        E 61 81 52 66
        E 0 88 36 66
        E 1 8a 33 65
        E 1 93 52 66
        E 0 98 36 66
        E 122 82 4b 64
        E 0 88 36 66
        E 0 91 52 66
        E 1 95 3f 65
        E 59 94 42 66
        E 1 96 3c 65
        E 60 81 52 66
        E 1 83 52 66
        E 1 84 42 66
        E 0 87 3a 66
        E 1 94 42 66
        E 0 9c 2e 66
        E 58 92 4b 64
        E 183 82 4b 64
        E 1 84 42 66
        E 0 85 3f 65
        E 1 93 52 66
        E 1 9a 33 65
        E 121 86 3c 65
        E 0 9b 30 65
        E 121 83 52 66
        E 59 94 42 66
        E 62 84 42 66
        E 1 94 42 66
        E 0 95 3f 65
        E 242 84 42 66
        E 0 8b 30 65
        E 0 98 36 66
        E 126 85 3f 65
        E 1 88 36 66
        E 0 8c 2e 66
        E 1 9e 2e 67
        E 973 8a 33 65
        E 1 9a 33 65
        E 120 98 36 66
        E 0 9b 30 65
        E 122 88 36 66
        E 242 8b 30 65
        E 489 8a 33 65
        E 0 9a 33 65
        E 366 98 36 66
        E 122 88 36 66
        E 370 9b 30 65
        E 242 8b 30 65
        E 487 98 36 66
        E 122 88 36 66
        E 854 9b 30 65
        E 182 8b 30 65
        E 64 98 36 66
        E 121 88 36 66
        E 1097 98 36 66
        E 124 88 36 66
        E 122 9b 30 65
        E 122 8b 30 65
        E 854 98 36 66
        E 120 88 36 66
        E 491 8a 33 65
        E 0 8e 2e 67
        E 1 8f 2e 66
        E 1 9a 33 65
        E 1 9e 2e 67
        E 1 9f 2e 66
        E 7805 8a 33 65
        E 1 8e 2e 67
        E 3903 8f 2e 66
        E 7924 b0 7b 00
        E 1 b1 7b 00
        E 0 b2 7b 00
        E 0 b3 7b 00
        E 1 b4 7b 00
        E 0 b5 7b 00
        E 0 b6 7b 00
        E 0 b7 7b 00
        E 0 b8 7b 00
        E 0 b9 7b 00
        E 0 ba 7b 00
        E 0 bb 7b 00
        E 0 bc 7b 00
        E 0 bd 7b 00
        E 1 be 7b 00
        E 0 bf 7b 00
        E 0 b0 7b 00
        E 1 b1 7b 00
        E 1 b2 7b 00
        E 2 b3 7b 00
        E 0 b3 7b 00
        E 1 b3 7b 00
        E 1 b3 7b 00
        E 1 b3 7b 00
        E 2 b4 7b 00
        E 1 b5 7b 00
        E 0 b6 7b 00
        E 1 b7 7b 00
        E 2 b8 7b 00
        E 0 b9 7b 00
        E 0 b3 7b 00
        E 0 b3 7b 00
        E 1 ba 7b 00
        E 0 bb 7b 00
        E 1 b3 7b 00
        E 1 b3 7b 00
        E 0 bc 7b 00
        E 1 bd 7b 00
        E 0 be 7b 00
        E 1 bf 7b 00
        E 0 b3 7b 00
        E 1 b3 7b 00
        E 0 b3 7b 00
        E 1 b3 7b 00
        E 0 b3 7b 00
        E 1 b3 7b 00
        E 0 b3 7b 00
        E 1 b0 79 00
        E 1 b3 7b 00
        E 1 b1 79 00
        E 0 b2 79 00
        E 0 b3 79 00
        E 1 b4 79 00
        E 0 b5 79 00
        E 1 b6 79 00
        E 0 b7 79 00
        E 1 b8 79 00
        E 1 b9 79 00
        E 0 ba 79 00
        E 1 bb 79 00
        E 0 bc 79 00
        E 0 bd 79 00
        E 0 be 79 00
        E 1 bf 79 00
        E 0 b0 79 00
        E 1 b1 79 00
        E 1 b2 79 00
        E 0 b3 79 00
        E 1 b3 79 00
        E 0 b3 79 00
        E 1 b4 79 00
        E 1 b3 79 00
        E 0 b3 79 00
        E 1 b5 79 00
        E 0 b3 79 00
        E 3 b6 79 00
        E 0 b7 79 00
        E 1 b8 79 00
        E 1 b3 79 00
        E 0 b9 79 00
        E 1 b3 79 00
        E 0 ba 79 00
        E 1 b3 79 00
        E 0 bb 79 00
        E 2 bc 79 00
        E 0 bd 79 00
        E 0 be 79 00
        E 1 b3 79 00
        E 0 bf 79 00
        E 1 b3 79 00
        E 2 b3 79 00
        E 1 b3 79 00
        E 0 b3 79 00
        E 1 b3 79 00
        E 0 b3 79 00
        E 1 b3 79 00
        E 10175 b0 7b 00
        E 1 b1 7b 00
        E 0 b2 7b 00
        E 1 b3 7b 00
        E 1 b4 7b 00
        E 0 b5 7b 00
        E 0 b6 7b 00
        E 1 b7 7b 00
        E 0 b8 7b 00
        E 1 b9 7b 00
        E 0 ba 7b 00
        E 0 bb 7b 00
        E 0 bc 7b 00
        E 1 bd 7b 00
        E 0 be 7b 00
        E 0 bf 7b 00
        E 0 b0 7b 00
        E 0 b1 7b 00
        E 0 b2 7b 00
        E 0 b3 7b 00
        E 1 b4 7b 00
        E 0 b5 7b 00
        E 0 b6 7b 00
        E 0 b7 7b 00
        E 0 b8 7b 00
        E 0 b9 7b 00
        E 0 ba 7b 00
        E 1 bb 7b 00
        E 0 bc 7b 00
        E 0 bd 7b 00
        E 0 be 7b 00
        E 0 bf 7b 00
        E 0 b3 7b 00
        E 1 b3 7b 00
        E 0 b3 7b 00
        E 0 b3 7b 00
        E 0 b3 7b 00
        E 0 b3 7b 00
        E 0 b3 7b 00
        E 1 b3 7b 00
        E 0 b3 7b 00
        E 0 b3 7b 00
        E 0 b3 7b 00
        E 0 b3 7b 00
        E 0 b3 7b 00
        E 0 b3 7b 00
        E 1 b3 7b 00
        E 0 b0 79 00
        E 0 b1 79 00
        E 0 b2 79 00
        E 0 b3 79 00
        E 0 b4 79 00
        E 0 b5 79 00
        E 0 b6 79 00
        E 0 b7 79 00
        E 0 b8 79 00
        E 0 b9 79 00
        E 0 ba 79 00
        E 0 bb 79 00
        E 0 bc 79 00
        E 0 bd 79 00
        E 0 be 79 00
        E 0 bf 79 00
        E 0 b0 79 00
        E 0 b1 79 00
        E 0 b2 79 00
        E 0 b3 79 00
        E 0 b4 79 00
        E 0 b5 79 00
        E 0 b6 79 00
        E 0 b7 79 00
        E 0 b8 79 00
        E 0 b9 79 00
        E 1 ba 79 00
        E 0 bb 79 00
        E 0 bc 79 00
        E 0 bd 79 00
        E 0 be 79 00
        E 0 bf 79 00
        E 1 b3 7b 00
        E 0 b3 79 00
        E 0 b3 79 00
        E 0 b3 79 00
        E 2 b3 79 00
        E 0 b3 79 00
        E 0 b3 79 00
        E 1 b3 79 00
        E 0 b3 79 00
        E 0 b3 79 00
        E 0 b3 79 00
        E 0 b3 79 00
        E 0 b3 79 00
        E 0 b3 79 00
        E 0 b3 79 00
        E 1 b3 79 00
        E 0 b3 79 00
        E 9267 b0 7b 00
        CCINTERP 32
        CHASE_CC_TAKEOFFS 1
        GUID {ACAFF76F-D969-457A-A19E-10E01062F07D}
        IGNTEMPO 0 120 4 4
        SRCCOLOR 14
        VELLANE -1 100 0
        CFGEDITVIEW 149395.330612 0.023438 43 12 0 -1 0 0 0 0.5
        KEYSNAP 0
        TRACKSEL 0
        EVTFILTER 0 -1 -1 -1 -1 0 0 0 0 -1 -1 -1 -1 0 -1 0 -1 -1
        CFGEDIT 1 1 0 1 0 1 1 1 1 1 1 1 16 16 1924 811 0 0 0 1 0 0 0 0 0 0.5 0 0 1 64
      >
    >
    <ITEM
      POSITION 230.10221921400327
      SNAPOFFS 0
      LENGTH 893.52708333333635
      LOOP 1
      ALLTAKES 0
      FADEIN 1 0 0 1 0 0 0
      FADEOUT 1 0 0 1 0 0 0
      MUTE 0 0
      SEL 0
      IGUID {CC3CAEFB-17DA-449C-A095-1D2FBF3FE3B9}
      IID 7
      NAME "01-Recorded MIDI"
      VOLPAN 1 0 1 -1
      SOFFS 0 0
      PLAYRATE 1 1 0 -1 0 0.0025
      CHANMODE 0
      GUID {A76DA2B7-7345-4A22-A42E-DB590AD220AE}
      RECPASS 7
      <SOURCE MIDI
        HASDATA 1 960 QN
        CCINTERP 32
        POOLEDEVTS {C385C773-32CC-4246-B44C-586CAE005460}
        E 11165 b0 7b 00
        E 0 b1 7b 00
        E 1 b2 7b 00
        E 0 b3 7b 00
        E 1 b4 7b 00
        E 0 b5 7b 00
        E 1 b6 7b 00
        E 0 b7 7b 00
        E 1 b8 7b 00
        E 0 b9 7b 00
        E 1 ba 7b 00
        E 0 bb 7b 00
        E 1 bc 7b 00
        E 0 bd 7b 00
        E 1 be 7b 00
        E 0 bf 7b 00
        E 0 b0 7b 00
        E 0 b1 7b 00
        E 0 b2 7b 00
        E 1 b3 7b 00
        E 0 b4 7b 00
        E 0 b5 7b 00
        E 0 b6 7b 00
        E 0 b7 7b 00
        E 1 b8 7b 00
        E 0 b9 7b 00
        E 0 ba 7b 00
        E 0 bb 7b 00
        E 0 bc 7b 00
        E 0 bd 7b 00
        E 0 be 7b 00
        E 1 bf 7b 00
        E 0 bd 7b 00
        E 0 bd 7b 00
        E 4 c9 00 00
        E 0 c1 34 00
        E 0 c2 34 00
        E 1 c3 39 00
        E 0 c4 30 00
        E 0 c5 30 00
        E 0 c5 2d 00
        E 1 c0 00 00
        E 0 c6 30 00
        E 0 c7 30 00
        E 0 c8 30 00
        E 1 ca 01 00
        E 0 ca 00 00
        E 0 cb 01 00
        E 1 cb 00 00
        E 0 cc 01 00
        E 0 cc 00 00
        E 0 cd 01 00
        E 0 ce 01 00
        E 0 cf 01 00
        E 0 c0 01 00
        E 1 c1 01 00
        E 0 c2 01 00
        E 0 c3 01 00
        E 0 bd 7b 00
        E 0 bd 7b 00
        E 0 bd 7b 00
        E 1 cd 01 00
        E 0 cd 01 00
        E 0 bd 7b 00
        E 0 bd 7b 00
        E 0 bd 7b 00
        E 0 bd 7b 00
        E 0 bd 7b 00
        E 1 bd 7b 00
        E 0 bd 7b 00
        E 0 bd 7b 00
        E 0 bd 7b 00
        E 0 bd 7b 00
        E 0 bd 7b 00
        E 1 cd 01 00
        E 1 b1 07 64
        E 0 b1 0a 10
        E 0 b1 5b 3b
        E 0 b1 5d 00
        E 0 b2 07 64
        E 0 b2 0a 10
        E 0 b2 5b 3b
        E 0 b2 5d 00
        E 1 b3 07 69
        E 0 b3 0a 4a
        E 1 b3 5b 3b
        E 0 b3 5d 00
        E 1 b4 07 5a
        E 0 b4 0a 5f
        E 0 b4 5b 3b
        E 0 b4 5d 00
        E 0 b5 07 5a
        E 0 b5 0a 5f
        E 1 b5 5b 3b
        E 0 b5 5d 00
        E 0 b0 07 64
        E 0 b0 0a 33
        E 0 b0 5b 3b
        E 0 b0 5d 00
        E 0 b6 07 64
        E 0 b6 0a 10
        E 1 b6 5b 3b
        E 0 b6 5d 00
        E 0 b7 07 64
        E 0 b7 0a 10
        E 0 b7 5b 3b
        E 0 b7 5d 00
        E 1 b8 07 64
        E 0 b8 0a 10
        E 0 b8 5b 3b
        E 0 b8 5d 00
        E 0 ba 07 64
        E 0 ba 0a 40
        E 0 ba 5b 3b
        E 0 ba 5d 00
        E 1 bb 07 64
        E 0 bb 0a 40
        E 0 bb 5b 3b
        E 0 bb 5d 00
        E 0 bc 07 64
        E 0 bc 0a 40
        E 1 bc 5b 3b
        E 0 bc 5d 00
        E 0 bd 07 64
        E 0 bd 0a 40
        E 0 bd 5b 3b
        E 0 bd 5d 00
        E 0 be 07 64
        E 1 be 0a 40
        E 0 be 5b 3b
        E 0 be 5d 00
        E 0 bf 07 64
        E 0 bf 0a 40
        E 0 bf 5b 3b
        E 0 bf 5d 00
        E 0 b0 07 64
        E 1 b0 0a 40
        E 0 b0 5b 3b
        E 0 b0 5d 00
        E 0 b1 07 64
        E 0 b1 0a 40
        E 0 b1 5b 3b
        E 0 b1 5d 00
        E 1 b2 07 64
        E 0 b2 0a 40
        E 0 b2 5b 3b
        E 0 b2 5d 00
        E 0 b3 07 64
        E 0 b3 0a 40
        E 0 b3 5b 3b
        E 1 b3 5d 00
        E 1976 bd 5b 3b
        E 1 bd 5b 3b
        E 0 bd 5b 3b
        E 1 bd 5b 3b
        E 1 cd 01 00
        E 0 cd 01 00
        E 1 9d 43 65
        E 1 ce 01 00
        E 1 ce 01 00
        E 0 cf 01 00
        E 1 cf 01 00
        E 1 9f 3c 65
        E 1 c0 01 00
        E 1 c0 01 00
        E 0 c1 01 00
        E 1 c1 01 00
        E 0 c2 01 00
        E 0 91 34 65
        E 1 c2 01 00
        E 0 c3 01 00
        E 1 c3 01 00
        E 0 93 2e 66
        E 1 bd 5d 00
        E 0 bd 5d 00
        E 1 bd 5d 00
        E 1 bd 5d 00
        E 1 cd 01 00
        E 0 cd 01 00
        E 1 cd 01 00
        E 2 cd 01 00
        E 0 cd 01 00
        E 1 cd 01 00
        E 1 cd 01 00
        E 0 9d 34 65
        E 3 cd 01 00
        E 1 cd 01 00
        E 0 cd 01 00
        E 1 9d 2e 66
        E 451 92 2e 67
        E 4 9d 2e 67
        E 476 8d 43 65
        E 1 8f 3c 65
        E 0 83 2e 66
        E 1 9d 42 67
        E 1 9f 3d 67
        E 2 8d 2e 66
        E 474 81 34 65
        E 0 93 2e 66
        E 4 8d 34 65
        E 1 9d 2e 66
        E 475 8d 42 67
        E 1 8f 3d 67
        E 0 82 2e 67
        E 1 83 2e 66
        E 1 9d 31 66
        E 1 9f 43 65
        E 1 90 3d 66
        E 1 91 35 64
        E 0 93 2e 66
        E 6 8d 2e 67
        E 0 8d 2e 66
        E 1 9d 3d 66
        E 0 9d 35 64
        E 1 9d 2e 66
        E 467 92 2e 67
        E 3 9d 2e 67
        E 477 8f 43 65
        E 0 80 3d 66
        E 1 81 35 64
        E 0 82 2e 67
        E 1 83 2e 66
        E 1 8d 3d 66
        E 2 8d 35 64
        E 4 8d 2e 67
        E 0 8d 2e 66
        E 951 8d 31 66
        E 1 9d 43 64
        E 1 9f 3d 65
        E 1 91 33 66
        E 0 92 2e 67
        E 3 9d 33 66
        E 1 9d 2e 67
        E 472 93 2e 66
        E 4 9d 2e 66
        E 476 8d 43 64
        E 1 8f 3d 65
        E 1 81 33 66
        E 1 82 2e 67
        E 0 83 2e 66
        E 1 9d 31 66
        E 0 9e 40 64
        E 1 9f 42 66
        E 1 90 3d 66
        E 1 91 34 64
        E 0 93 2e 66
        E 4 8d 33 66
        E 1 8d 2e 67
        E 1 9d 3d 66
        E 1 8d 2e 66
        E 0 9d 34 64
        E 1 9d 2e 66
        E 465 80 3d 66
        E 1 92 2e 67
        E 1 8d 3d 66
        E 2 9d 2e 67
        E 477 8f 42 66
        E 1 81 34 64
        E 0 82 2e 67
        E 0 83 2e 66
        E 3 8d 34 64
        E 0 8d 2e 67
        E 1 8d 2e 66
        E 476 8d 31 66
        E 1 8e 40 64
        E 478 9f 42 67
        E 1 91 33 66
        E 1 92 2e 67
        E 2 9d 33 66
        E 0 9d 2e 67
        E 474 93 2e 66
        E 2 9d 2e 66
        E 481 8f 42 67
        E 1 81 33 66
        E 0 82 2e 67
        E 0 83 2e 66
        E 1 9d 3e 64
        E 1 91 34 65
        E 1 93 2e 66
        E 3 8d 33 66
        E 1 8d 2e 67
        E 1 8d 2e 66
        E 1 9d 34 65
        E 0 9d 2e 66
        E 468 92 2e 67
        E 4 9d 2e 67
        E 477 81 34 65
        E 1 82 2e 67
        E 1 83 2e 66
        E 1 8d 34 65
        E 1 8d 2e 67
        E 1 8d 2e 66
        E 954 8d 3e 64
        E 1 9f 3d 67
        E 0 91 35 65
        E 0 92 2e 67
        E 3 9d 35 65
        E 0 9d 2e 67
        E 476 93 2e 66
        E 2 9d 2e 66
        E 478 8f 3d 67
        E 1 81 35 65
        E 0 82 2e 67
        E 1 9d 44 64
        E 1 9e 3e 64
        E 1 9f 3e 64
        E 0 91 35 64
        E 1 92 2c 64
        E 2 8d 35 65
        E 1 8d 2e 67
        E 1 9d 35 64
        E 2 9d 2c 64
        E 469 82 2c 64
        E 0 92 2e 67
        E 4 8d 2c 64
        E 0 9d 2e 67
        E 477 8d 44 64
        E 1 8e 3e 64
        E 0 8f 3e 64
        E 1 81 35 64
        E 0 82 2e 67
        E 1 83 2e 66
        E 0 9d 44 65
        E 1 9f 3d 65
        E 1 91 34 65
        E 0 92 2e 67
        E 0 8d 35 64
        E 1 8d 2e 67
        E 1 8d 2e 66
        E 1 9d 34 65
        E 1 9d 2e 67
        E 469 82 2e 67
        E 1 93 2e 66
        E 1 8d 2e 67
        E 2 9d 2e 66
        E 478 8d 44 65
        E 0 8f 3d 65
        E 1 81 34 65
        E 1 9d 31 66
        E 0 9e 3d 66
        E 1 9f 43 65
        E 1 91 35 64
        E 1 8d 34 65
        E 1 9d 35 64
        E 475 92 2e 67
        E 4 9d 2e 67
        E 474 8e 3d 66
        E 1 8f 43 65
        E 0 81 35 64
        E 1 82 2e 67
        E 0 83 2e 66
        E 3 8d 35 64
        E 1 8d 2e 67
        E 1 8d 2e 66
        E 957 8d 31 66
        E 1 9d 43 64
        E 0 9f 3d 65
        E 1 91 33 66
        E 1 92 2e 67
        E 2 9d 33 66
        E 2 9d 2e 67
        E 470 93 2e 66
        E 1 9d 2e 66
        E 481 8d 43 64
        E 1 8f 3d 65
        E 1 81 33 66
        E 0 82 2e 67
        E 0 83 2e 66
        E 1 9d 43 65
        E 1 9f 3c 65
        E 1 91 34 65
        E 0 93 2e 66
        E 4 8d 33 66
        E 0 8d 2e 67
        E 1 9d 34 65
        E 0 8d 2e 66
        E 1 9d 2e 66
        E 626 92 2e 67
        E 2 9d 2e 67
        E 633 9d 42 67
        E 1 9f 3d 67
        E 644 8d 43 65
        E 1 8f 3c 65
        E 1 81 34 65
        E 1 83 2e 66
        E 0 92 2e 67
        E 1 93 2e 66
        E 1 8d 34 65
        E 4 8d 2e 66
        E 1 9d 2e 66
        E 0 9d 2e 67
        E 307 8d 42 67
        E 1 8f 3d 67
        E 319 82 2e 67
        E 2 8d 2e 67
        E 323 82 2e 67
        E 1 9d 31 66
        E 0 9f 43 65
        E 1 90 3d 66
        E 0 91 35 64
        E 2 8d 2e 67
        E 1 9d 3d 66
        E 0 9d 35 64
        E 954 8f 43 65
        E 0 80 3d 66
        E 1 81 35 64
        E 1 90 3d 66
        E 0 92 2e 67
        E 1 8d 3d 66
        E 2 8d 35 64
        E 1 9d 3d 66
        E 1 9d 2e 67
        E 953 83 2e 66
        E 3 8d 2e 66
        E 958 8d 31 66
        E 1 80 3d 66
        E 1 82 2e 67
        E 1 90 3d 66
        E 2 8d 3d 66
        E 0 8d 2e 67
        E 2 9d 3d 66
        E 1268 9f 3d 65
        E 1 91 33 66
        E 1 92 2e 67
        E 3 9d 33 66
        E 0 9d 2e 67
        E 638 80 3d 66
        E 1 9f 3d 65
        E 1 91 33 66
        E 0 92 2e 67
        E 1 8d 3d 66
        E 1 9d 33 66
        E 2 9d 2e 67
        E 310 8f 3d 65
        E 0 81 33 66
        E 1 82 2e 67
        E 1 8d 33 66
        E 2 8d 2e 67
        E 957 9d 43 64
        E 0 93 2e 66
        E 4 9d 2e 66
        E 640 8f 3d 65
        E 1 81 33 66
        E 1 9d 43 64
        E 0 93 2e 66
        E 1 8d 33 66
        E 3 9d 2e 66
        E 310 8d 43 64
        E 0 83 2e 66
        E 3 8d 2e 66
        E 1602 8d 43 64
        E 1 82 2e 67
        E 1 83 2e 66
        E 3 8d 2e 67
        E 1 8d 2e 66
        E 3832 9d 43 65
        E 1 9e 54 65
        E 1 9f 3c 65
        E 1 91 34 65
        E 0 93 2e 66
        E 3 9d 34 65
        E 1 9d 2e 66
        E 111 8e 54 65
        E 39 9f 3d 64
        E 85 8d 43 65
        E 0 8f 3c 65
        E 1 9d 43 64
        E 0 92 2e 67
        E 0 9d 2e 67
        E 77 9e 49 65
        E 0 9f 3d 65
        E 78 8f 3d 64
        E 41 8e 49 65
        E 41 8d 43 64
        E 1 83 2e 66
        E 0 9d 42 67
        E 1 9e 4e 67
        E 1 9f 3d 67
        E 1 8d 2e 66
        E 74 8f 3d 65
        E 40 8e 4e 67
        E 124 8d 42 67
        E 0 81 34 65
        E 0 9d 43 64
        E 1 91 35 63
        E 1 93 2e 66
        E 1 8d 34 65
        E 3 9d 35 63
        E 0 9d 2e 66
        E 232 8d 43 64
        E 0 8f 3d 67
        E 1 81 35 63
        E 0 82 2e 67
        E 1 83 2e 66
        E 0 9d 31 66
        E 1 9e 3d 66
        E 1 9f 43 65
        E 0 91 35 64
        E 1 92 29 64
        E 0 93 2e 66
        E 1 8d 35 63
        E 1 8d 2e 67
        E 4 8d 2e 66
        E 0 9d 29 64
        E 1 9d 35 64
        E 0 9d 2e 66
        E 195 91 35 63
        E 3 9d 35 63
        E 53 8f 43 65
        E 1 81 35 64
        E 0 82 29 64
        E 0 92 2e 67
        E 4 8d 35 64
        E 0 8d 29 64
        E 1 9d 2e 67
        E 122 9f 4c 65
        E 25 91 34 65
        E 2 9d 34 65
        E 54 81 35 63
        E 2 8d 35 63
        E 49 8f 4c 65
        E 1 82 2e 67
        E 0 83 2e 66
        E 0 92 28 64
        E 3 8d 2e 67
        E 1 8d 2e 66
        E 0 9d 28 64
        E 98 91 34 64
        E 4 9d 34 64
        E 50 81 34 65
        E 1 8d 34 65
        E 105 8d 31 66
        E 0 82 28 64
        E 1 9f 3f 67
        E 1 8d 28 64
        E 46 91 33 67
        E 2 9d 33 67
        E 52 81 34 64
        E 2 8d 34 64
        E 157 8e 3d 66
        E 1 8f 3f 67
        E 0 9d 43 64
        E 1 9f 3d 65
        E 0 91 33 66
        E 1 92 2e 67
        E 0 93 27 66
        E 3 9d 33 66
        E 0 9d 2e 67
        E 0 9d 27 66
        E 47 81 33 67
        E 3 8d 33 67
        E 234 8d 43 64
        E 0 81 33 66
        E 1 83 27 66
        E 0 9d 42 67
        E 1 91 33 67
        E 1 93 2e 66
        E 0 8d 33 66
        E 3 8d 27 66
        E 0 9d 33 67
        E 0 9d 2e 66
        E 278 8d 42 67
        E 1 8f 3d 65
        E 1 81 33 67
        E 0 82 2e 67
        E 0 83 2e 66
        E 1 9d 31 66
        E 1 9e 40 64
        E 0 9f 42 66
        E 1 90 3d 66
        E 0 91 34 64
        E 0 92 25 66
        E 1 93 2e 66
        E 0 8d 33 67
        E 4 8d 2e 67
        E 0 9d 3d 66
        E 1 8d 2e 66
        E 1 9d 34 64
        E 0 9d 2e 66
        E 1 9d 25 66
        E 278 8f 42 66
        E 0 80 3d 66
        E 1 82 25 66
        E 0 92 2e 67
        E 1 8d 3d 66
        E 0 8d 25 66
        E 0 9d 2e 67
        E 285 81 34 64
        E 0 82 2e 67
        E 1 83 2e 66
        E 0 91 33 67
        E 4 8d 34 64
        E 1 8d 2e 67
        E 0 8d 2e 66
        E 1 9d 33 67
        E 314 8d 31 66
        E 1 8e 40 64
        E 316 81 33 67
        E 0 9f 42 67
        E 1 91 33 66
        E 1 92 2e 67
        E 1 8d 33 67
        E 1 9d 33 66
        E 1 9d 2e 67
        E 209 91 33 67
        E 3 9d 33 67
        E 106 8f 42 67
        E 1 81 33 66
        E 0 93 2e 66
        E 3 8d 33 66
        E 0 9d 2e 66
        E 102 91 34 64
        E 3 9d 34 64
        E 101 81 33 67
        E 4 8d 33 67
        E 106 82 2e 67
        E 0 83 2e 66
        E 1 9d 3e 64
        E 1 91 34 65
        E 0 92 26 64
        E 1 93 2e 66
        E 4 8d 2e 67
        E 1 8d 2e 66
        E 1 9d 26 64
        E 0 9d 34 65
        E 0 9d 2e 66
        E 109 81 34 64
        E 1 8d 34 64
        E 238 82 26 64
        E 0 92 2e 67
        E 2 8d 26 64
        E 1 9d 2e 67
        E 118 91 35 63
        E 2 9d 35 63
        E 242 81 34 65
        E 0 82 2e 67
        E 1 83 2e 66
        E 0 8d 34 65
        E 2 8d 2e 67
        E 1 8d 2e 66
        E 228 91 35 64
        E 2 9d 35 64
        E 124 8d 3e 64
        E 118 81 35 63
        E 2 8d 35 63
        E 241 9f 3d 67
        E 1 91 35 65
        E 0 92 2e 67
        E 3 9d 35 65
        E 1 9d 2e 67
        E 245 81 35 64
        E 2 8d 35 64
        E 129 93 2e 66
        E 2 9d 2e 66
        E 124 91 35 64
        E 2 9d 35 64
        E 257 8f 3d 67
        E 0 81 35 65
        E 1 82 2e 67
        E 0 9d 44 64
        E 0 9f 3e 64
        E 1 92 2c 64
        E 0 8d 35 65
        E 2 8d 2e 67
        E 0 9d 2c 64
        E 146 9e 49 67
        E 102 9f 3d 67
        E 0 91 35 63
        E 4 9d 35 63
        E 130 8f 3e 64
        E 0 82 2c 64
        E 1 92 2e 67
        E 2 8d 2c 64
        E 1 9d 2e 67
        E 119 81 35 64
        E 1 9f 3d 66
        E 0 8d 35 64
        E 24 8e 49 67
        E 103 8f 3d 67
        E 134 8d 44 64
        E 1 82 2e 67
        E 0 83 2e 66
        E 0 9d 44 65
        E 1 9f 3d 65
        E 0 91 34 65
        E 1 92 2e 67
        E 0 8d 2e 67
        E 1 8d 2e 66
        E 0 9d 34 65
        E 1 9d 2e 67
        E 129 8f 3d 66
        E 132 81 35 63
        E 2 8d 35 63
        E 141 8d 44 65
        E 0 81 34 65
        E 1 82 2e 67
        E 1 9d 44 64
        E 0 91 35 63
        E 1 92 29 64
        E 0 93 2e 66
        E 3 8d 34 65
        E 0 8d 2e 67
        E 1 9d 29 64
        E 0 9d 35 63
        E 1 9d 2e 66
        E 400 8d 44 64
        E 1 8f 3d 65
        E 0 81 35 63
        E 1 82 29 64
        E 0 9d 31 66
        E 1 9f 43 65
        E 1 90 3d 66
        E 0 91 35 64
        E 0 92 29 64
        E 2 8d 35 63
        E 1 8d 29 64
        E 0 9d 35 64
        E 1 9d 3d 66
        E 0 9d 29 64
        E 322 91 35 63
        E 2 9d 35 63
        E 80 81 35 64
        E 0 82 29 64
        E 1 92 2e 67
        E 0 8d 35 64
        E 3 8d 29 64
        E 0 9d 2e 67
        E 204 9e 40 65
        E 40 91 34 65
        E 2 9d 34 65
        E 81 81 35 63
        E 2 8d 35 63
        E 79 8e 40 65
        E 1 82 2e 67
        E 0 83 2e 66
        E 1 92 28 64
        E 2 8d 2e 67
        E 0 8d 2e 66
        E 1 9d 28 64
        E 171 91 34 64
        E 2 9d 34 64
        E 87 81 34 65
        E 2 8d 34 65
        E 179 8d 31 66
        E 83 91 33 67
        E 1 9d 33 67
        E 89 81 34 64
        E 2 8d 34 64
        E 46 82 28 64
        E 2 8d 28 64
        E 218 8f 43 65
        E 1 80 3d 66
        E 1 9d 43 64
        E 0 9f 3d 65
        E 0 91 33 66
        E 1 92 2e 67
        E 0 93 27 66
        E 1 8d 3d 66
        E 2 9d 33 66
        E 0 9d 27 66
        E 1 9d 2e 67
        E 77 81 33 67
        E 2 8d 33 67
        E 205 91 33 67
        E 2 9d 33 67
        E 151 8f 3d 65
        E 0 81 33 66
        E 1 83 27 66
        E 0 9f 3d 64
        E 1 93 2e 66
        E 2 8d 33 66
        E 0 8d 27 66
        E 0 9d 2e 66
        E 143 91 34 64
        E 1 9d 34 64
        E 142 81 33 67
        E 2 8d 33 67
        E 151 8d 43 64
        E 1 8f 3d 64
        E 0 82 2e 67
        E 1 83 2e 66
        E 0 9d 43 65
        E 1 9e 54 65
        E 1 9f 3c 65
        E 0 91 34 65
        E 0 93 2e 66
        E 4 8d 2e 67
        E 0 8d 2e 66
        E 1 9d 2e 66
        E 0 9d 34 65
        E 149 81 34 64
        E 2 8d 34 64
        E 80 8e 54 65
        E 75 9f 3d 64
        E 165 8f 3c 65
        E 160 9d 43 64
        E 0 9f 3d 65
        E 0 92 2e 67
        E 3 9d 2e 67
        E 154 8f 3d 64
        E 163 8d 43 65
        E 1 9f 3d 66
        E 0 93 27 66
        E 2 9d 27 66
        E 154 8f 3d 65
        E 157 9d 42 67
        E 1 9f 3d 67
        E 165 8f 3d 66
        E 0 81 34 65
        E 1 83 2e 66
        E 0 83 27 66
        E 0 91 35 63
        E 1 8d 34 65
        E 2 8d 2e 66
        E 0 9d 35 63
        E 0 8d 27 66
        E 154 8d 43 64
        E 322 9d 43 64
        E 0 9f 3d 67
        E 0 92 2e 67
        E 0 93 2e 66
        E 1 9d 2e 67
        E 1 9d 2e 66
        E 314 8d 42 67
        E 0 8f 3d 67
        E 322 82 2e 67
        E 2 8d 2e 67
        E 319 8d 43 64
        E 1 8f 3d 67
        E 0 81 35 63
        E 0 82 2e 67
        E 0 9d 31 66
        E 0 9f 43 65
        E 1 90 3d 66
        E 0 91 35 64
        E 1 8d 35 63
        E 0 9d 3d 66
        E 0 8d 2e 67
        E 0 9d 35 64
        E 720 81 35 64
        E 1 91 35 63
        E 0 8d 35 64
        E 2 9d 35 63
        E 235 8f 43 65
        E 1 92 2e 67
        E 3 9d 2e 67
        E 476 81 35 63
        E 0 91 34 65
        E 2 8d 35 63
        E 0 9d 34 65
        E 479 83 2e 66
        E 0 93 28 64
        E 3 8d 2e 66
        E 1 9d 28 64
        E 237 81 34 65
        E 0 91 34 64
        E 3 8d 34 65
        E 1 9d 34 64
        E 716 8d 31 66
        E 0 80 3d 66
        E 1 81 34 64
        E 0 82 2e 67
        E 1 83 28 64
        E 0 9d 31 66
        E 1 90 3d 66
        E 1 91 33 67
        E 2 8d 3d 66
        E 1 8d 34 64
        E 1 8d 2e 67
        E 0 9d 3d 66
        E 1 8d 28 64
        E 1 9d 33 67
        E 1266 9f 3d 65
        E 1 91 33 66
        E 1 92 2e 67
        E 1 9d 33 66
        E 2 9d 2e 67
        E 639 8d 31 66
        E 1 80 3d 66
        E 0 81 33 67
        E 1 9f 3d 65
        E 0 91 33 66
        E 1 92 2e 67
        E 2 8d 3d 66
        E 1 8d 33 67
        E 1 9d 2e 67
        E 0 9d 33 66
        E 306 8f 3d 65
        E 0 81 33 66
        E 1 82 2e 67
        E 2 8d 33 66
        E 1 8d 2e 67
        E 957 9d 43 64
        E 1 90 33 65
        E 0 93 2e 66
        E 2 9d 33 65
        E 1 9d 2e 66
        E 641 8f 3d 65
        E 0 81 33 66
        E 1 9d 43 64
        E 1 90 33 65
        E 0 93 2e 66
        E 4 8d 33 66
        E 1 9d 33 65
        E 1 9d 2e 66
        E 308 8d 43 64
        E 1 80 33 65
        E 0 83 2e 66
        E 1 8d 33 65
        E 1 8d 2e 66
        E 1601 8d 43 64
        E 1 82 2e 67
        E 3 8d 2e 67
        E 1915 83 2e 66
        E 1 8d 2e 66
        E 1921 80 33 65
        E 0 90 33 65
        E 1 93 2e 64
        E 1 8d 33 65
        E 1 9d 33 65
        E 1 9d 2e 64
        E 3836 91 2e 67
        E 4 9d 2e 67
        E 3836 80 33 65
        E 1 81 2e 67
        E 0 83 2e 64
        E 1 90 33 65
        E 1 91 2e 67
        E 0 92 2e 65
        E 1 93 2e 64
        E 4 8d 33 65
        E 1 8d 2e 67
        E 0 9d 33 65
        E 1 9d 2e 65
        E 1 8d 2e 64
        E 0 9d 2e 67
        E 1 9d 2e 64
        E 3826 83 2e 64
        E 0 93 2e 66
        E 2 8d 2e 64
        E 0 9d 2e 66
        E 3837 80 33 65
        E 1 81 2e 67
        E 0 82 2e 65
        E 1 83 2e 66
        E 0 90 33 65
        E 1 91 2e 67
        E 0 93 2e 66
        E 5 8d 33 65
        E 0 8d 2e 67
        E 1 8d 2e 66
        E 0 8d 2e 65
        E 1 9d 33 65
        E 0 9d 2e 66
        E 1 9d 2e 67
        E 230392 80 33 65
        E 0 81 2e 67
        E 0 83 2e 66
        E 1 90 33 65
        E 0 91 2e 67
        E 6 8d 33 65
        E 0 8d 2e 67
        E 1 8d 2e 66
        E 1 9d 33 65
        E 1 9d 2e 67
        E 3830 80 33 65
        E 0 81 2e 67
        E 3 8d 33 65
        E 1 8d 2e 67
        E 3835 93 2e 66
        E 3 9d 2e 66
        E 3838 83 2e 66
        E 0 90 33 65
        E 0 91 2e 67
        E 1 93 2e 66
        E 5 8d 2e 66
        E 0 9d 33 65
        E 1 9d 2e 66
        E 1 9d 2e 67
        E 3829 83 2e 66
        E 3 8d 2e 66
        E 1918 92 2d 64
        E 3 9d 2d 64
        E 1918 80 33 65
        E 1 81 2e 67
        E 1 82 2d 64
        E 1 9e 42 64
        E 0 90 33 65
        E 0 92 2d 64
        E 4 8d 33 65
        E 1 8d 2e 67
        E 0 8d 2d 64
        E 1 9d 33 65
        E 1 9d 2d 64
        E 1910 8e 42 64
        E 0 9d 42 65
        E 2 9e 42 64
        E 1273 9e 42 66
        E 1 9f 3c 65
        E 645 8d 42 65
        E 1 8e 42 64
        E 1 80 33 65
        E 1 9d 42 65
        E 1 9e 42 66
        E 0 9f 3c 65
        E 1 90 33 65
        E 1 91 33 66
        E 0 8d 33 65
        E 2 9d 33 65
        E 2 9d 33 66
        E 304 8e 42 66
        E 1 8f 3c 65
        E 164 8d 42 65
        E 0 9d 42 67
        E 478 80 33 65
        E 1 90 33 67
        E 3 8d 33 65
        E 3 9d 33 67
        E 956 8d 42 67
        E 0 8e 42 66
        E 1 8f 3c 65
        E 1 80 33 67
        E 1 81 33 66
        E 0 82 2d 64
        E 1 9d 42 67
        E 0 9e 43 64
        E 1 9f 3c 65
        E 1 90 33 67
        E 0 91 33 66
        E 1 8d 33 67
        E 5 8d 33 66
        E 0 8d 2d 64
        E 1 9d 33 66
        E 0 9d 33 67
        E 465 8f 3c 65
        E 1 81 33 66
        E 0 9f 3d 64
        E 1 91 34 64
        E 4 8d 33 66
        E 1 9d 34 64
        E 790 9d 43 65
        E 646 8d 42 67
        E 0 8e 43 64
        E 2 8f 3d 64
        E 0 80 33 67
        E 1 81 34 64
        E 1 9d 43 65
        E 0 9e 3d 65
        E 1 9f 3d 64
        E 1 90 34 65
        E 0 91 34 64
        E 4 8d 33 67
        E 1 8d 34 64
        E 1 9d 34 65
        E 0 9d 34 64
        E 299 8d 43 65
        E 648 8f 3d 64
        E 1 81 34 64
        E 1 9f 3d 66
        E 1 8d 34 64
        E 954 8e 3d 65
        E 1 8f 3d 66
        E 0 9e 3d 67
        E 1 93 2e 66
        E 3 9d 2e 66
        E 1918 8d 43 65
        E 0 8e 3d 67
        E 1918 80 34 65
        E 0 83 2e 66
        E 1 9d 43 65
        E 1 9f 3c 65
        E 1 90 34 65
        E 0 93 2e 66
        E 2 8d 34 65
        E 1 8d 2e 66
        E 2 9d 34 65
        E 1 9d 2e 66
        E 1913 92 2e 67
        E 3 9d 2e 67
        E 956 9e 3d 64
        E 1 91 37 64
        E 2 9d 37 64
        E 957 8d 43 65
        E 1 8e 3d 64
        E 2 81 37 64
        E 0 9e 3d 64
        E 1 91 37 64
        E 3 8d 37 64
        E 0 9d 37 64
        E 1914 8f 3c 65
        E 0 83 2e 66
        E 3 8d 2e 66
        E 956 81 37 64
        E 3 8d 37 64
        E 955 8e 3d 64
        E 4 80 34 65
        E 0 82 2e 67
        E 1 9d 36 67
        E 1 9f 3d 67
        E 0 90 34 65
        E 1 92 2e 67
        E 1 8d 34 65
        E 4 8d 2e 67
        E 1 9d 2e 67
        E 0 9d 34 65
        E 1909 8f 3d 67
        E 1 93 2e 66
        E 2 9d 2e 66
        E 1918 80 34 65
        E 2 8d 34 65
        E 1918 8d 36 67
        E 1 82 2e 67
        E 0 83 2e 66
        E 1 9d 36 67
        E 1 92 2e 67
        E 2 8d 2e 67
        E 1 8d 2e 66
        E 1 9d 2e 67
        E 6711 93 2a 67
        E 3 9d 2a 67
        E 958 8d 36 67
        E 0 82 2e 67
        E 1 83 2a 67
        E 1 9d 36 67
        E 1 9e 49 67
        E 1 9f 3d 67
        E 0 91 34 65
        E 1 92 2e 67
        E 0 93 2a 67
        E 2 8d 2e 67
        E 0 8d 2a 67
        E 2 9d 34 65
        E 2 9d 2e 67
        E 0 9d 2a 67
        E 229 8e 49 67
        E 239 9e 52 67
        E 241 8e 52 67
        E 1 90 3a 67
        E 3 9d 3a 67
        E 474 80 3a 67
        E 1 9e 40 65
        E 1 8d 3a 67
        E 239 8e 40 65
        E 481 8f 3d 67
        E 1 83 2a 67
        E 1 93 2e 66
        E 3 8d 2a 67
        E 0 9d 2e 66
        E 634 90 29 63
        E 3 9d 29 63
        E 318 81 34 65
        E 1 91 35 63
        E 1 8d 34 65
        E 2 9d 35 63
        E 633 80 29 63
        E 2 8d 29 63
        E 319 9e 49 66
        E 241 8e 49 66
        E 719 9e 41 63
        E 0 90 25 66
        E 2 9d 25 66
        E 238 8e 41 63
        E 483 9e 52 66
        E 238 8d 36 67
        E 1 8e 52 66
        E 0 80 25 66
        E 1 81 35 63
        E 0 82 2e 67
        E 1 83 2e 66
        E 0 9d 3d 66
        E 0 9f 43 65
        E 1 90 25 66
        E 0 91 35 64
        E 1 93 2e 66
        E 0 8d 25 66
        E 4 8d 35 63
        E 1 8d 2e 66
        E 0 8d 2e 67
        E 1 9d 25 66
        E 0 9d 35 64
        E 0 9d 2e 66
        E 628 92 29 64
        E 2 9d 29 64
        E 321 80 25 66
        E 1 8d 25 66
        E 955 8d 3d 66
        E 1 8f 43 65
        E 1 81 35 64
        E 2 8d 35 64
        E 155 82 29 64
        E 2 8d 29 64
        E 1762 91 25 66
        E 3 9d 25 66
        E 3838 81 25 66
        E 1 83 2e 66
        E 1 91 25 66
        E 0 93 2e 66
        E 2 92 2e 67
        E 5 8d 25 66
        E 1 8d 2e 66
        E 0 9d 25 66
        E 1 9d 2e 66
        E 1 9d 2e 67
        E 5747 81 25 66
        E 0 83 2e 66
        E 1 82 2e 67
        E 0 91 25 66
        E 1 93 2e 66
        E 1 92 2e 67
        E 0 8d 25 66
        E 6 8d 2e 66
        E 0 8d 2e 67
        E 1 9d 2e 66
        E 0 9d 25 66
        E 2 9d 2e 67
        E 5749 81 25 66
        E 1 83 2e 66
        E 0 82 2e 67
        E 1 91 25 66
        E 1 93 2e 66
        E 0 92 2e 67
        E 3 8d 25 66
        E 0 8d 2e 66
        E 1 8d 2e 67
        E 5 9d 25 66
        E 1 9d 2e 66
        E 1 9d 2e 67
        E 230385 81 25 66
        E 0 83 2e 66
        E 1 82 2e 67
        E 0 91 25 66
        E 1 93 2e 66
        E 0 92 2e 67
        E 2 8d 25 66
        E 1 8d 2e 66
        E 1 8d 2e 67
        E 2 9d 25 66
        E 1 9d 2e 66
        E 1 9d 2e 67
        E 5750 81 25 66
        E 1 82 2e 67
        E 0 83 2e 66
        E 4 8d 25 66
        E 0 8d 2e 67
        E 2 8d 2e 66
        E 6714 91 27 66
        E 1 9d 27 66
        E 957 81 27 66
        E 1 91 27 66
        E 1 92 2e 67
        E 2 8d 27 66
        E 1 9d 27 66
        E 1 9d 2e 67
        E 632 93 2e 66
        E 2 9d 2e 66
        E 318 81 27 66
        E 1 91 2f 64
        E 2 8d 27 66
        E 1 9d 2f 64
        E 478 82 2e 67
        E 4 8d 2e 67
        E 477 93 2e 66
        E 3 9d 2e 66
        E 238 83 2e 66
        E 1 8d 2e 66
        E 396 83 2e 66
        E 3 8d 2e 66
        E 320 90 34 64
        E 0 93 2e 66
        E 2 9d 34 64
        E 1 9d 2e 66
        E 956 81 2f 64
        E 1 83 2e 66
        E 0 93 2e 66
        E 3 8d 2f 64
        E 1 8d 2e 66
        E 1 9d 2e 66
        E 631 92 2e 67
        E 4 9d 2e 67
        E 634 91 28 64
        E 1 9d 28 64
        E 164 83 2e 66
        E 0 9f 36 66
        E 2 8d 2e 66
        E 479 8f 36 66
        E 1 80 34 64
        E 0 9f 36 66
        E 1 91 28 64
        E 0 92 2e 67
        E 0 8d 34 64
        E 0 9d 28 64
        E 1 9d 2e 67
        E 236 90 2a 66
        E 4 9d 2a 66
        E 69 81 28 64
        E 3 8d 28 64
        E 320 82 2e 67
        E 2 8d 2e 67
        E 321 81 28 64
        E 1 8d 28 64
        E 315 93 2e 66
        E 2 9d 2e 66
        E 644 8f 36 66
        E 1 80 2a 66
        E 1 82 2e 67
        E 1 90 2a 66
        E 0 93 2e 66
        E 4 8d 2a 66
        E 1 8d 2e 67
        E 1 9d 2a 66
        E 1 9d 2e 66
        E 302 83 2e 66
        E 2 8d 2e 66
        E 322 92 2e 67
        E 3 9d 2e 67
        E 319 80 2a 66
        E 2 8d 2a 66
        E 957 83 2e 66
        E 1 92 2e 67
        E 1 93 2e 66
        E 1 8d 2e 66
        E 3 9d 2e 67
        E 0 9d 2e 66
        E 632 82 2e 67
        E 2 8d 2e 67
        E 323 83 2e 66
        E 1 8d 2e 66
        E 311 93 2e 66
        E 1 9d 2e 66
        E 646 82 2e 67
        E 0 93 2e 66
        E 2 8d 2e 67
        E 0 9d 2e 66
        E 313 83 2e 66
        E 2 8d 2e 66
        E 644 92 2e 67
        E 3 9d 2e 67
        E 959 83 2e 66
        E 0 93 2e 66
        E 2 8d 2e 66
        E 1 9d 2e 66
        E 953 83 2e 66
        E 1 8d 2e 66
        E 959 82 2e 67
        E 1 92 2e 67
        E 2 8d 2e 67
        E 1 9d 2e 67
        E 633 93 2e 66
        E 2 9d 2e 66
        E 1283 93 2e 66
        E 4 9d 2e 66
        E 635 83 2e 66
        E 3 8d 2e 66
        E 316 82 2e 67
        E 2 8d 2e 67
        E 1921 83 2e 66
        E 1 8d 2e 66
        E 1918 9e 37 64
        E 313 92 2e 67
        E 2 9d 2e 67
        E 644 8e 37 64
        E 0 9e 37 64
        E 1 91 27 66
        E 0 92 2e 67
        E 3 9d 27 66
        E 1 9d 2e 67
        E 234 90 3d 65
        E 2 9d 3d 65
        E 75 82 2e 67
        E 1 8d 2e 67
        E 318 93 2e 66
        E 3 9d 2e 66
        E 319 8e 37 64
        E 318 91 2e 65
        E 1 9d 2e 65
        E 164 81 27 66
        E 0 82 2e 67
        E 3 8d 27 66
        E 1 8d 2e 67
        E 235 80 3d 65
        E 0 90 24 64
        E 1 8d 3d 65
        E 3 9d 24 64
        E 238 80 24 64
        E 0 90 24 64
        E 1 91 2e 65
        E 1 8d 24 64
        E 2 9d 24 64
        E 0 9d 2e 65
        E 308 81 2e 65
        E 2 8d 2e 65
        E 323 83 2e 66
        E 2 8d 2e 66
        E 318 81 2e 65
        E 0 91 28 64
        E 1 93 2e 66
        E 2 8d 2e 65
        E 1 9d 28 64
        E 0 9d 2e 66
        E 635 90 2a 66
        E 2 9d 2a 66
        E 319 80 24 64
        E 0 81 28 64
        E 1 90 2a 66
        E 1 91 28 64
        E 4 8d 24 64
        E 1 8d 28 64
        E 0 9d 28 64
        E 1 9d 2a 66
        E 149 80 2a 66
        E 2 8d 2a 66
        E 321 81 28 64
        E 2 8d 28 64
        E 155 92 2e 67
        E 5 9d 2e 67
        E 1281 83 2e 66
        E 1 92 2e 67
        E 2 8d 2e 66
        E 1 9d 2e 67
        E 634 82 2e 67
        E 3 8d 2e 67
        E 1277 80 2a 66
        E 1 82 2e 67
        E 0 90 2a 66
        E 1 92 2e 67
        E 3 8d 2a 66
        E 1 8d 2e 67
        E 0 9d 2e 67
        E 1 9d 2a 66
        E 5755 80 2a 66
        E 1 91 3a 67
        E 3 8d 2a 66
        E 0 9d 3a 67
        E 1914 81 3a 67
        E 1 82 2e 67
        E 0 91 3a 67
        E 1 92 2e 67
        E 1 93 2e 66
        E 1 8d 3a 67
        E 2 8d 2e 67
        E 0 9d 2e 67
        E 1 9d 3a 67
        E 0 9d 2e 66
        E 3835 81 3a 67
        E 3 8d 3a 67
        E 1916 82 2e 67
        E 0 9e 3d 66
        E 1 8d 2e 67
        E 957 92 29 64
        E 3 9d 29 64
        E 960 8e 3d 66
        E 1 82 29 64
        E 1 83 2e 66
        E 1 9d 49 66
        E 0 9e 3d 66
        E 1 90 25 66
        E 0 91 35 64
        E 1 92 29 64
        E 0 93 2e 66
        E 1 8d 29 64
        E 1 8d 2e 66
        E 1 9d 25 66
        E 1 9d 35 64
        E 2 9d 29 64
        E 1 9d 2e 66
        E 226 8d 49 66
        E 1 9d 4f 65
        E 240 8d 4f 65
        E 480 81 35 64
        E 0 82 29 64
        E 1 91 35 63
        E 0 92 2e 67
        E 2 8d 35 64
        E 0 9d 35 63
        E 1 8d 29 64
        E 1 9d 2e 67
        E 472 81 35 63
        E 1 91 34 65
        E 1 8d 35 63
        E 2 9d 34 65
        E 478 8e 3d 66
        E 0 81 34 65
        E 1 91 34 64
        E 1 8d 34 65
        E 2 9d 34 64
        E 477 81 34 64
        E 1 91 33 67
        E 3 8d 34 64
        E 0 9d 33 67
        E 239 9e 52 67
        E 236 8e 52 67
        E 1 80 25 66
        E 0 81 33 67
        E 1 82 2e 67
        E 0 83 2e 66
        E 1 9d 37 64
        E 0 90 31 65
        E 0 91 33 66
        E 1 92 2e 67
        E 0 93 27 66
        E 5 8d 25 66
        E 0 8d 33 67
        E 1 8d 2e 67
        E 0 9d 31 65
        E 1 8d 2e 66
        E 0 9d 33 66
        E 1 9d 2e 67
        E 0 9d 27 66
        E 1429 83 27 66
        E 3 8d 27 66
        E 478 93 2e 66
        E 3 9d 2e 66
        E 113 9e 46 67
        E 243 8e 46 67
        E 599 81 33 66
        E 3 8d 33 66
        E 956 9e 52 67
        E 240 8e 52 67
        E 1203 9e 46 67
        E 240 8e 46 67
        E 238 8d 37 64
        E 721 9e 52 67
        E 120 8e 52 67
        E 120 91 33 66
        E 3 9d 33 66
        E 718 9e 46 67
        E 116 8e 46 67
        E 122 80 31 65
        E 1 81 33 66
        E 0 82 2e 67
        E 1 83 2e 66
        E 0 9d 49 65
        E 1 90 31 65
        E 0 91 33 66
        E 0 92 2e 67
        E 1 8d 31 65
        E 3 8d 33 66
        E 1 8d 2e 67
        E 0 8d 2e 66
        E 1 9d 31 65
        E 2 9d 33 66
        E 0 9d 2e 67
        E 228 8d 49 65
        E 1 9d 43 65
        E 240 8d 43 65
        E 0 9e 52 67
        E 121 8e 52 67
        E 1321 80 31 65
        E 1 9d 36 67
        E 1 93 2e 66
        E 3 8d 31 65
        E 1 9d 2e 66
        E 1910 81 33 66
        E 1 82 2e 67
        E 1 91 33 67
        E 5 8d 33 66
        E 1 8d 2e 67
        E 0 9d 33 67
        E 955 92 28 64
        E 2 9d 28 64
        E 960 8d 36 67
        E 0 81 33 67
        E 0 82 28 64
        E 1 83 2e 66
        E 1 9d 25 66
        E 0 9f 42 66
        E 1 90 28 64
        E 0 91 34 64
        E 1 92 28 64
        E 0 93 2e 66
        E 1 8d 33 67
        E 2 8d 28 64
        E 0 9d 28 64
        E 1 8d 2e 66
        E 3 9d 34 64
        E 0 9d 28 64
        E 1 9d 2e 66
        E 1908 8f 42 66
        E 0 81 34 64
        E 3 8d 34 64
        E 955 82 28 64
        E 3 8d 28 64
        E 4796 8d 25 66
        E 0 80 28 64
        E 0 83 2e 66
        E 0 9d 25 66
        E 0 9f 42 66
        E 0 90 28 64
        E 0 93 2e 66
        E 1 8d 28 64
        E 0 9d 28 64
        E 0 8d 2e 66
        E 1 9d 2e 66
        E 1921 8f 42 66
        E 1 80 28 64
        E 0 90 3d 66
        E 2 91 33 67
        E 1 92 2e 67
        E 0 8d 28 64
        E 4 9d 3d 66
        E 1 9d 33 67
        E 1 9d 2e 67
        E 1906 8d 25 66
        E 1 83 2e 66
        E 3 8d 2e 66
        E 956 93 27 66
        E 3 9d 27 66
        E 960 80 3d 66
        E 1 81 33 67
        E 1 82 2e 67
        E 0 83 27 66
        E 1 9f 42 67
        E 1 91 33 66
        E 0 92 2e 67
        E 0 93 27 66
        E 6 8d 3d 66
        E 0 8d 33 67
        E 1 8d 2e 67
        E 1 8d 27 66
        E 1 9d 33 66
        E 0 9d 27 66
        E 1 9d 2e 67
        E 945 83 27 66
        E 4 8d 27 66
        E 956 8f 42 67
        E 0 93 2e 66
        E 4 9d 2e 66
        E 1917 81 33 66
        E 1 82 2e 67
        E 1 91 31 64
        E 0 92 24 64
        E 4 8d 33 66
        E 0 8d 2e 67
        E 1 9d 31 64
        E 1 9d 24 64
        E 1911 83 2e 66
        E 4 8d 2e 66
        E 1915 81 31 64
        E 0 82 24 64
        E 1 92 24 64
        E 2 8d 31 64
        E 1 8d 24 64
        E 0 9d 24 64
        E 3836 82 24 64
        E 2 8d 24 64
        E 238078 92 24 64
        E 4 9d 24 64
        E 3835 91 33 66
        E 5 9d 33 66
        E 1918 81 33 66
        E 1 82 24 64
        E 1 9f 42 67
        E 0 91 33 66
        E 1 92 2e 67
        E 1 8d 33 66
        E 3 8d 24 64
        E 1 9d 33 66
        E 1 9d 2e 67
        E 1909 81 33 66
        E 1 91 33 66
        E 0 93 2e 66
        E 3 8d 33 66
        E 0 9d 33 66
        E 1 9d 2e 66
        E 633 91 33 67
        E 4 9d 33 67
        E 319 81 33 66
        E 2 8d 33 66
        E 314 91 34 64
        E 2 9d 34 64
        E 321 81 33 67
        E 2 8d 33 67
        E 319 83 2e 66
        E 1 90 3d 67
        E 1 91 34 65
        E 2 8d 2e 66
        E 1 9d 3d 67
        E 1 9d 34 65
        E 308 81 34 64
        E 2 8d 34 64
        E 1606 8f 42 67
        E 1918 80 3d 67
        E 1 81 34 65
        E 1 82 2e 67
        E 0 9d 3e 64
        E 1 91 34 65
        E 1 93 2e 66
        E 1 8d 3d 67
        E 4 8d 34 65
        E 1 8d 2e 67
        E 0 9d 34 65
        E 1 9d 2e 66
        E 1908 81 34 65
        E 1 92 2e 67
        E 3 8d 34 65
        E 0 9d 2e 67
        E 1919 82 2e 67
        E 0 83 2e 66
        E 5 8d 2e 67
        E 0 8d 2e 66
        E 1436 9e 52 67
        E 0 9f 42 67
        E 237 8e 52 67
        E 239 8f 42 67
        E 0 9f 42 67
        E 962 93 27 66
        E 3 9d 27 66
        E 955 8f 42 67
        E 1 83 27 66
        E 1 8d 3e 64
        E 0 9f 42 67
        E 1 93 27 66
        E 0 9e 36 67
        E 1 91 33 66
        E 1 92 2e 67
        E 1 8d 27 66
        E 1 9d 27 66
        E 4 9d 33 66
        E 0 9d 2e 67
        E 230 8e 36 67
        E 481 9e 4b 66
        E 239 83 27 66
        E 0 8e 4b 66
        E 0 93 2e 66
        E 3 8d 27 66
        E 1 9d 2e 66
        E 311 90 2a 67
        E 2 9d 2a 67
        E 161 81 33 66
        E 1 91 33 67
        E 1 8d 33 66
        E 3 9d 33 67
        E 476 8f 42 67
        E 0 82 2e 67
        E 1 90 2a 67
        E 0 92 32 64
        E 2 8d 2e 67
        E 1 9d 32 64
        E 0 9d 2a 67
        E 236 81 33 67
        E 0 91 34 64
        E 2 8d 33 67
        E 1 9d 34 64
        E 71 80 2a 67
        E 2 8d 2a 67
        E 163 80 2a 67
        E 2 8d 2a 67
        E 479 83 2e 66
        E 0 81 34 64
        E 0 82 32 64
        E 1 93 2e 66
        E 1 9d 3e 64
        E 0 91 34 65
        E 0 92 32 64
        E 1 8d 2e 66
        E 4 8d 34 64
        E 2 8d 32 64
        E 1 9d 34 65
        E 0 9d 2e 66
        E 1 9d 32 64
        E 948 82 32 64
        E 2 8d 32 64
        E 960 92 2e 67
        E 2 9d 2e 67
        E 1918 83 2e 66
        E 1 82 2e 67
        E 1 9e 52 66
        E 2 8d 2e 66
        E 0 8d 2e 67
        E 956 92 26 64
        E 2 9d 26 64
        E 957 8d 3e 64
        E 1 8e 52 66
        E 0 81 34 65
        E 0 82 26 64
        E 1 9d 3e 64
        E 0 9e 4a 64
        E 1 91 34 65
        E 1 92 26 64
        E 0 93 2e 66
        E 3 8d 34 65
        E 1 8d 26 64
        E 1 9d 34 65
        E 0 9d 26 64
        E 1 9d 2e 66
        E 228 8e 4a 64
        E 400 9e 40 65
        E 322 82 26 64
        E 1 8d 26 64
        E 158 8e 40 65
        E 157 9e 3a 66
        E 646 8d 3e 64
        E 1 81 34 65
        E 0 91 35 63
        E 1 92 2e 67
        E 1 8d 34 65
        E 0 9d 35 63
        E 4 9d 2e 67
        E 306 8e 3a 66
        E 2566 81 35 63
        E 1 91 35 64
        E 1 8d 35 63
        E 3 9d 35 64
        E 956 83 2e 66
        E 1 8d 2e 66
        E 958 90 29 65
        E 1 9d 29 65
        E 960 80 29 65
        E 0 81 35 64
        E 0 82 2e 67
        E 1 9f 3d 67
        E 0 90 29 65
        E 1 91 35 65
        E 0 92 2e 67
        E 1 8d 29 65
        E 1 8d 35 64
        E 0 8d 2e 67
        E 2 9d 29 65
        E 1 9d 35 65
        E 1 9d 2e 67
        E 950 80 29 65
        E 1 8d 29 65
        E 960 8f 3d 67
        E 1 81 35 65
        E 1 93 2e 66
        E 0 8d 35 65
        E 2 9d 2e 66
        E 1916 82 2e 67
        E 2 8d 2e 67
        E 1918 83 2e 66
        E 2 8d 2e 66
        E 6719 93 29 65
        E 4 9d 29 65
        E 714 9e 52 67
        E 119 8e 52 67
        E 122 83 29 65
        E 0 9e 41 65
        E 1 9f 3d 67
        E 0 91 35 65
        E 1 92 2e 67
        E 0 93 29 65
        E 3 8d 29 65
        E 1 9d 35 65
        E 1 9d 2e 67
        E 0 9d 29 65
        E 232 8e 41 65
        E 242 9e 49 67
        E 240 8e 49 67
        E 238 83 29 65
        E 1 93 2e 66
        E 2 8d 29 65
        E 1 9d 2e 66
        E 634 9e 3e 64
        E 324 81 35 65
        E 0 82 2e 67
        E 0 91 35 64
        E 1 8d 35 65
        E 2 8d 2e 67
        E 1 9d 35 64
        E 152 8e 3e 64
        E 158 9e 41 64
        E 481 8e 41 64
        E 164 8f 3d 67
        E 0 81 35 64
        E 1 83 2e 66
        E 0 9e 4a 64
        E 0 9f 26 64
        E 1 90 2c 64
        E 0 91 35 64
        E 0 93 2e 66
        E 1 8d 35 64
        E 2 8d 2e 66
        E 0 9d 35 64
        E 1 9d 2c 64
        E 0 9d 2e 66
        E 234 8e 4a 64
        E 239 9e 4d 64
        E 240 8e 4d 64
        E 1 9e 44 64
        E 181 8e 44 64
        E 1020 9e 38 64
        E 1 92 2e 67
        E 3 9d 2e 67
        E 114 8e 38 64
        E 841 81 35 64
        E 2 8d 35 64
        E 958 8f 26 64
        E 1 80 2c 64
        E 3 8d 2c 64
        E 2876 90 29 64
        E 2 9d 29 64
        E 959 80 29 64
        E 1 82 2e 67
        E 0 83 2e 66
        E 1 9f 3e 64
        E 1 90 29 64
        E 0 91 35 64
        E 1 92 2c 64
        E 0 93 2e 66
        E 3 8d 29 64
        E 1 8d 2e 67
        E 0 8d 2e 66
        E 2 9d 29 64
        E 1 9d 35 64
        E 1 9d 2c 64
        E 1 9d 2e 66
        E 1906 8f 3e 64
        E 1 80 29 64
        E 0 9f 3d 67
        E 1 90 3a 64
        E 4 8d 29 64
        E 1 9d 3a 64
        E 953 81 35 64
        E 0 82 2c 64
        E 1 83 2e 66
        E 0 91 35 63
        E 3 8d 35 64
        E 0 8d 2e 66
        E 1 8d 2c 64
        E 0 9d 35 63
        E 956 8f 3d 67
        E 1 9f 3d 66
        E 956 80 3a 64
        E 0 90 3a 66
        E 3 8d 3a 64
        E 1 9d 3a 66
        E 957 8f 3d 66
        E 1 80 3a 66
        E 1 81 35 63
        E 0 9f 3d 65
        E 1 90 3a 66
        E 1 91 34 65
        E 0 92 2e 67
        E 6 8d 3a 66
        E 1 8d 35 63
        E 1 9d 34 65
        E 0 9d 3a 66
        E 2 9d 2e 67
        E 624 9d 38 65
        E 1 90 3a 67
        E 1 9d 3a 67
        E 320 80 3a 66
        E 1 8d 3a 66
        E 959 9d 38 65
        E 1 93 2e 66
        E 2 9d 2e 66
        E 634 8d 38 65
        E 1 80 3a 67
        E 4 8d 3a 67
        E 319 8d 38 65
        E 1 8f 3d 65
        E 4798 81 34 65
        E 0 82 2e 67
        E 1 83 2e 66
        E 0 92 2e 67
        E 1 93 2e 66
        E 6 8d 34 65
        E 0 8d 2e 67
        E 1 8d 2e 66
        E 1 9d 2e 67
        E 0 9d 2e 66
        E 7672 82 2e 67
        E 0 83 2e 66
        E 1 92 2e 67
        E 1 93 2e 66
        E 2 8d 2e 67
        E 1 8d 2e 66
        E 1 9d 2e 66
        E 1 9d 2e 67
        E 230392 82 2e 67
        E 1 83 2e 66
        E 0 92 2e 67
        E 1 93 2e 66
        E 1 8d 2e 67
        E 0 8d 2e 66
        E 2 9d 2e 67
        E 1 9d 2e 66
        E 5755 83 2e 66
        E 3 8d 2e 66
        E 1917 82 2e 67
        E 1 9d 44 65
        E 1 90 3d 65
        E 1 91 34 65
        E 0 92 2e 67
        E 5 8d 2e 67
        E 1 9d 3d 65
        E 1 9d 34 65
        E 1 9d 2e 67
        E 1907 80 3d 65
        E 1 93 2e 66
        E 2 8d 3d 65
        E 1 9d 2e 66
        E 1918 82 2e 67
        E 0 83 2e 66
        E 1 90 3e 64
        E 1 92 2f 65
        E 1 8d 2e 67
        E 3 8d 2e 66
        E 2 9d 3e 64
        E 0 9d 2f 65
        E 3831 8d 44 65
        E 1 80 3e 64
        E 1 81 34 65
        E 0 82 2f 65
        E 1 9d 44 65
        E 1 90 3e 64
        E 1 91 34 65
        E 0 92 2f 65
        E 1 93 2e 66
        E 6 8d 3e 64
        E 1 8d 34 65
        E 1 8d 2f 65
        E 1 9d 3e 64
        E 0 9d 34 65
        E 1 9d 2e 66
        E 1 9d 2f 65
        E 1902 82 2f 65
        E 3 8d 2f 65
        E 5757 8d 44 65
        E 1 80 3e 64
        E 0 81 34 65
        E 1 83 2e 66
        E 1 9d 44 65
        E 1 90 3e 64
        E 0 91 35 63
        E 1 93 2e 66
        E 2 8d 3e 64
        E 1 8d 34 65
        E 1 8d 2e 66
        E 1 9d 3e 64
        E 1 9d 35 63
        E 1 9d 2e 66
        E 1909 81 35 63
        E 1 91 35 64
        E 2 8d 35 63
        E 1 9d 35 64
        E 1917 8d 44 65
        E 1 9d 44 64
        E 1919 80 3e 64
        E 1 90 3e 64
        E 2 8d 3e 64
        E 1 9d 3e 64
        E 633 90 3d 67
        E 4 9d 3d 67
        E 317 80 3e 64
        E 2 8d 3e 64
        E 959 8d 44 64
        E 1 81 35 64
        E 0 83 2e 66
        E 1 9d 31 66
        E 1 90 3d 67
        E 0 91 35 64
        E 1 93 2e 66
        E 3 8d 35 64
        E 1 8d 2e 66
        E 1 9d 3d 67
        E 0 9d 35 64
        E 2 9d 2e 66
        E 626 80 3d 67
        E 4 8d 3d 67
        E 320 9f 43 65
        E 957 80 3d 67
        E 1 81 35 64
        E 1 90 3d 67
        E 4 8d 3d 67
        E 1 8d 35 64
        E 0 9d 3d 67
        E 476 80 3d 67
        E 1 90 3d 66
        E 1 8d 3d 67
        E 2 9d 3d 66
        E 1437 8f 43 65
        E 0 80 3d 66
        E 1 83 2e 66
        E 1 9f 43 65
        E 0 90 3d 66
        E 1 92 2e 67
        E 1 8d 3d 66
        E 3 8d 2e 66
        E 1 9d 2e 67
        E 0 9d 3d 66
        E 1910 8f 43 65
        E 961 80 3d 66
        E 1 90 3d 65
        E 2 8d 3d 66
        E 1 9d 3d 65
        E 957 8d 31 66
        E 1 80 3d 65
        E 1 82 2e 67
        E 1 90 3d 65
        E 1 91 33 66
        E 0 92 2e 67
        E 2 8d 3d 65
        E 1 8d 2e 67
        E 1 9d 3d 65
        E 2 9d 33 66
        E 1 9d 2e 67
        E 1906 81 33 66
        E 1 91 33 66
        E 0 93 2e 66
        E 3 8d 33 66
        E 0 9d 33 66
        E 1 9d 2e 66
        E 634 91 33 67
        E 4 9d 33 67
        E 318 81 33 66
        E 3 8d 33 66
        E 311 91 34 64
        E 4 9d 34 64
        E 320 81 33 67
        E 3 8d 33 67
        E 320 9d 44 65
        E 1 91 34 65
        E 5 9d 34 65
        E 308 81 34 64
        E 2 8d 34 64
        E 641 83 2e 66
        E 2 8d 2e 66
        E 960 80 3d 65
        E 1 90 3d 64
        E 3 8d 3d 65
        E 1 9d 3d 64
        E 1915 8d 44 65
        E 1 80 3d 64
        E 0 81 34 65
        E 0 82 2e 67
        E 1 9d 43 65
        E 1 90 3d 64
        E 1 91 34 65
        E 1 93 2e 66
        E 2 8d 3d 64
        E 1 8d 34 65
        E 0 8d 2e 67
        E 3 9d 3d 64
        E 0 9d 34 65
        E 1 9d 2e 66
        E 947 80 3d 64
        E 1 90 3c 65
        E 2 8d 3d 64
        E 1 9d 3c 65
        E 957 8d 43 65
        E 1 80 3c 65
        E 0 90 3c 65
        E 1 92 2e 67
        E 0 8d 3c 65
        E 3 9d 3c 65
        E 1 9d 2e 67
        E 1913 80 3c 65
        E 2 8d 3c 65
        E 479 9f 2c 65
        E 1439 8f 2c 65
        E 0 81 34 65
        E 1 9f 2c 65
        E 3 8d 34 65
        E 1272 9d 44 65
        E 1 90 38 65
        E 3 9d 38 65
        E 642 8f 2c 65
        E 1 82 2e 67
        E 1 83 2e 66
        E 1 9d 44 65
        E 0 9f 2c 65
        E 1 90 38 65
        E 0 92 2e 67
        E 2 8d 2e 67
        E 2 8d 2e 66
        E 0 9d 2e 67
        E 1 9d 38 65
        E 303 8d 44 65
        E 0 80 38 65
        E 1 8d 38 65
        E 165 91 31 65
        E 2 9d 31 65
        E 281 9e 31 65
        E 1157 8f 2c 65
        E 1 80 38 65
        E 0 81 31 65
        E 1 9e 31 65
        E 1 9f 2c 65
        E 1 91 31 65
        E 1 8d 38 65
        E 1 8d 31 65
        E 1 9d 31 65
        E 277 8e 31 65
        E 197 90 34 65
        E 3 9d 34 65
        E 475 8e 31 65
        E 1 8f 2c 65
        E 315 9e 32 64
        E 647 80 34 65
        E 1 81 31 65
        E 0 82 2e 67
        E 2 9e 32 64
        E 1 90 34 65
        E 1 8d 34 65
        E 3 8d 31 65
        E 0 9d 34 65
        E 1 8d 2e 67
        E 302 8e 32 64
        E 646 93 2e 66
        E 2 9d 2e 66
        E 961 8d 44 65
        E 1 83 2e 66
        E 1 9d 44 65
        E 1 93 2e 66
        E 3 8d 2e 66
        E 1 9d 2e 66
        E 472 92 26 64
        E 4 9d 26 64
        E 151 9f 38 65
        E 0 91 3a 66
        E 4 9d 3a 66
        E 79 82 26 64
        E 2 8d 26 64
        E 482 92 2c 65
        E 1 9d 2c 65
        E 239 8d 44 65
        E 0 82 2c 65
        E 1 9d 44 64
        E 2 8d 2c 65
        E 235 92 29 64
        E 2 9d 29 64
        E 118 82 29 64
        E 1 8d 29 64
        E 117 8d 44 64
        E 1 8e 32 64
        E 0 80 34 65
        E 1 83 2e 66
        E 1 9d 44 64
        E 0 9f 38 64
        E 1 90 35 64
        E 0 91 3a 66
        E 0 93 2e 66
        E 4 8d 34 65
        E 0 8d 2e 66
        E 0 9d 3a 66
        E 1 9d 35 64
        E 0 9d 2e 66
        E 233 9e 38 64
        E 117 8e 38 64
        E 279 8f 38 65
        E 1 81 3a 66
        E 3 8d 3a 66
        E 81 9e 4d 64
        E 42 9f 37 65
        E 76 8e 4d 64
        E 0 92 2b 65
        E 4 9d 2b 65
        E 115 8f 38 64
        E 1 81 3a 66
        E 1 82 2b 65
        E 1 8d 3a 66
        E 1 8d 2b 65
        E 313 9d 43 65
        E 646 8d 44 64
        E 1 9d 43 65
        E 0 9f 37 65
        E 280 8f 37 65
        E 33 8d 43 65
        E 644 92 2e 67
        E 2 9d 2e 67
        E 958 82 2e 67
        E 1 92 2e 67
        E 3 8d 2e 67
        E 1 9d 2e 67
        E 955 8d 43 65
        E 960 80 35 64
        E 3 8d 35 64
        E 1916 8f 37 65
        E 1 82 2e 67
        E 0 83 2e 66
        E 1 92 2e 67
        E 1 93 2e 66
        E 2 8d 2e 67
        E 0 8d 2e 66
        E 1 9d 2e 67
        E 2 9d 2e 66
        E 7673 82 2e 67
        E 1 83 2e 66
        E 0 9f 3d 65
        E 2 90 3a 66
        E 0 91 34 65
        E 0 92 2e 67
        E 1 8d 2e 67
        E 2 8d 2e 66
        E 1 9d 3a 66
        E 1 9d 34 65
        E 2 9d 2e 67
        E 629 9d 38 65
        E 1 90 3a 67
        E 2 9d 3a 67
        E 318 80 3a 66
        E 2 8d 3a 66
        E 962 9d 38 65
        E 0 93 2e 66
        E 4 9d 2e 66
        E 630 8d 38 65
        E 1 80 3a 67
        E 2 8d 3a 67
        E 319 8d 38 65
        E 1 8f 3d 65
        E 961 82 2e 67
        E 3 8d 2e 67
        E 1916 83 2e 66
        E 3 8d 2e 66
        E 957 90 2c 65
        E 2 9d 2c 65
        E 717 9e 52 67
        E 239 8e 52 67
        E 1 80 2c 65
        E 0 81 34 65
        E 0 9d 44 65
        E 1 9f 3d 65
        E 0 90 2c 65
        E 1 91 34 65
        E 0 92 2e 67
        E 2 8d 2c 65
        E 1 8d 34 65
        E 1 9d 2c 65
        E 1 9d 34 65
        E 1 9d 2e 67
        E 1914 8f 3d 65
        E 1 93 2e 66
        E 2 9d 2e 66
        E 113 9e 46 67
        E 240 8e 46 67
        E 603 8d 44 65
        E 0 81 34 65
        E 1 91 35 63
        E 3 8d 34 65
        E 0 9d 35 63
        E 476 80 2c 65
        E 0 90 29 63
        E 2 8d 2c 65
        E 0 9d 29 63
        E 237 80 29 63
        E 2 8d 29 63
        E 238 82 2e 67
        E 0 9e 52 67
        E 1 8d 2e 67
        E 239 8e 52 67
        E 599 9e 41 64
        E 122 8e 41 64
        E 0 90 29 64
        E 2 9d 29 64
        E 478 9e 46 66
        E 238 8e 46 66
        E 241 80 29 64
        E 1 83 2e 66
        E 1 81 35 63
        E 0 90 29 64
        E 1 93 2e 66
        E 0 9d 31 66
        E 1 9f 43 65
        E 1 91 35 64
        E 2 8d 29 64
        E 0 8d 2e 66
        E 1 9d 29 64
        E 1 8d 35 63
        E 1 9d 2e 66
        E 1 9d 35 64
        E 710 9e 52 66
        E 119 8e 52 66
        E 844 9e 46 66
        E 115 8e 46 66
        E 121 8f 43 65
        E 0 81 35 64
        E 0 92 2e 67
        E 2 8d 35 64
        E 1 9d 2e 67
        E 476 9e 52 66
        E 122 8e 52 66
        E 360 80 29 64
        E 2 8d 29 64
        E 238 9e 3a 66
        E 241 8e 3a 66
        E 1 9e 46 66
        E 178 8e 46 66
        E 60 9e 3a 66
        E 241 83 2e 66
        E 1 8e 3a 66
        E 1 82 2e 67
        E 1 9e 46 66
        E 1 8d 2e 66
        E 1 8d 2e 67
        E 111 8e 46 66
        E 121 9e 3a 66
        E 241 8e 3a 66
        E 1 9e 46 66
        E 120 8e 46 66
        E 120 9e 3a 66
        E 239 8e 3a 66
        E 1 9e 46 66
        E 119 8e 46 66
        E 123 9e 3a 66
        E 238 8e 3a 66
        E 1 9e 46 66
        E 116 8e 46 66
        E 123 9e 3a 66
        E 239 8e 3a 66
        E 1 9e 46 66
        E 119 8e 46 66
        E 125 9e 3a 66
        E 237 8e 3a 66
        E 0 9e 46 66
        E 119 8e 46 66
        E 119 9e 3a 66
        E 240 8e 3a 66
        E 1 9e 46 66
        E 0 92 25 66
        E 3 9d 25 66
        E 116 8e 46 66
        E 122 9e 3a 66
        E 240 8e 3a 66
        E 1 9e 46 66
        E 115 8e 46 66
        E 122 9e 52 66
        E 180 8e 52 66
        E 60 8d 31 66
        E 1 82 25 66
        E 0 9d 31 66
        E 0 9e 41 64
        E 1 9f 3d 66
        E 0 90 43 65
        E 1 91 35 64
        E 0 92 25 66
        E 0 93 2e 66
        E 1 8d 25 66
        E 0 9d 43 65
        E 1 9d 35 64
        E 1 9d 25 66
        E 1 9d 2e 66
        E 234 8e 41 64
        E 1 9e 49 66
        E 238 8e 49 66
        E 89 91 35 63
        E 3 9d 35 63
        E 148 81 35 64
        E 0 9e 4f 65
        E 2 8d 35 64
        E 239 8e 4f 65
        E 0 82 25 66
        E 1 92 2e 67
        E 2 8d 25 66
        E 1 9d 2e 67
        E 184 91 34 65
        E 1 9d 34 65
        E 140 81 35 63
        E 3 8d 35 63
        E 432 91 34 64
        E 2 9d 34 64
        E 142 81 34 65
        E 2 8d 34 65
        E 49 8d 31 66
        E 1 8f 3d 66
        E 0 80 43 65
        E 1 83 2e 66
        E 0 9e 3a 67
        E 0 93 27 66
        E 2 8d 43 65
        E 0 8d 2e 66
        E 1 9d 27 66
        E 235 8e 3a 67
        E 0 9e 43 64
        E 143 91 33 67
        E 1 9d 33 67
        E 95 8e 43 64
        E 0 9e 3a 67
        E 45 81 34 64
        E 2 8d 34 64
        E 195 8e 3a 67
        E 119 9e 48 65
        E 122 8e 48 65
        E 0 82 2e 67
        E 0 83 27 66
        E 1 9e 3a 67
        E 0 9f 3d 65
        E 1 90 2b 64
        E 0 91 33 66
        E 0 92 2e 67
        E 1 93 27 66
        E 2 8d 2e 67
        E 1 8d 27 66
        E 0 9d 33 66
        E 0 9d 27 66
        E 1 9d 2b 64
        E 0 9d 2e 67
        E 133 81 33 67
        E 2 8d 33 67
        E 96 8e 3a 67
        E 239 9e 3a 67
        E 241 8e 3a 67
        E 239 83 27 66
        E 2 8d 27 66
        E 239 9e 3a 67
        E 242 8e 3a 67
        E 480 81 33 66
        E 0 9e 3a 67
        E 1 93 2e 66
        E 1 8d 33 66
        E 1 9d 2e 66
        E 235 8e 3a 67
        E 722 9e 3a 67
        E 0 91 2b 64
        E 3 9d 2b 64
        E 235 8e 3a 67
        E 720 8f 3d 65
        E 1 80 2b 64
        E 0 81 2b 64
        E 1 82 2e 67
        E 0 83 2e 66
        E 1 9e 3f 66
        E 0 9f 3d 65
        E 1 91 2b 64
        E 0 92 2e 67
        E 1 8d 2b 64
        E 2 8d 2b 64
        E 1 8d 2e 67
        E 0 9d 2b 64
        E 1 8d 2e 66
        E 1 9d 2e 67
        E 471 90 3a 67
        E 1 9d 3a 67
        E 237 80 3a 67
        E 1 8d 3a 67
        E 1203 8e 3f 66
        E 0 9e 3f 67
        E 1 93 2e 66
        E 2 9d 2e 66
        E 955 8f 3d 65
        E 0 81 2b 64
        E 1 9f 3d 64
        E 1 90 3a 66
        E 1 91 33 65
        E 2 8d 2b 64
        E 1 9d 3a 66
        E 0 9d 33 65
        E 953 8e 3f 67
        E 1 82 2e 67
        E 1 9e 40 64
        E 1 8d 2e 67
        E 1920 8e 40 64
        E 1 8f 3d 64
        E 0 80 3a 66
        E 1 81 33 65
        E 1 83 2e 66
        E 0 9d 37 65
        E 1 9e 40 65
        E 1 9f 3c 65
        E 1 91 31 66
        E 0 93 2e 66
        E 2 8d 3a 66
        E 1 8d 33 65
        E 1 9d 31 66
        E 0 8d 2e 66
        E 2 9d 2e 66
        E 1906 8f 3c 65
        E 1 92 2e 67
        E 2 9d 2e 67
        E 955 81 31 66
        E 2 8d 31 66
        E 961 8d 37 65
        E 1916 8e 40 65
        E 1 82 2e 67
        E 1 83 2e 66
        E 0 90 37 65
        E 1 8d 2e 67
        E 1 8d 2e 66
        E 2 9d 37 65
        E 1917 80 37 65
        E 1 9f 43 65
        E 1 90 37 65
        E 1 91 35 64
        E 0 93 2e 66
        E 2 8d 37 65
        E 2 9d 37 65
        E 1 9d 2e 66
        E 1 9d 35 64
        E 627 92 2e 67
        E 2 9d 2e 67
        E 321 80 37 65
        E 1 8d 37 65
        E 481 83 2e 66
        E 1 90 2f 64
        E 4 8d 2e 66
        E 1 9d 2f 64
        E 471 8f 43 65
        E 3 80 2f 64
        E 1 81 35 64
        E 0 90 2f 64
        E 2 8d 2f 64
        E 0 8d 35 64
        E 1 9d 2f 64
        E 475 91 34 64
        E 1 9d 34 64
        E 156 82 2e 67
        E 0 9d 31 65
        E 1 9f 2b 64
        E 1 92 2e 67
        E 2 8d 2e 67
        E 0 9d 2e 67
        E 318 9e 33 66
        E 961 8e 33 66
        E 1 80 2f 64
        E 0 81 34 64
        E 1 9d 31 65
        E 1 9e 33 66
        E 1 9f 2b 64
        E 1 93 2e 66
        E 2 8d 2f 64
        E 0 8d 34 64
        E 2 9d 2e 66
        E 628 8d 31 65
        E 1 8f 2b 64
        E 1 82 2e 67
        E 4 8d 2e 67
        E 315 8e 33 66
        E 0 8f 2b 64
        E 483 8d 31 65
        E 2400 83 2e 66
        E 1 93 2e 66
        E 1 8d 2e 66
        E 1 9d 2e 66
        E 1916 83 2e 66
        E 3 8d 2e 66
        E 11517 93 2e 66
        E 3 9d 2e 66
        E 1918 92 2e 67
        E 3 9d 2e 67
        E 3835 82 2e 67
        E 1 83 2e 66
        E 0 92 2e 67
        E 1 93 2e 66
        E 2 8d 2e 67
        E 0 8d 2e 66
        E 1 9d 2e 66
        E 1 9d 2e 67
        E 230396 82 2e 67
        E 0 83 2e 66
        E 1 90 33 65
        E 0 92 2e 67
        E 1 93 2e 66
        E 3 8d 2e 67
        E 0 8d 2e 66
        E 1 9d 2e 67
        E 1 9d 33 65
        E 1 9d 2e 66
        E 2870 91 33 66
        E 2 9d 33 66
        E 2879 80 33 65
        E 0 81 33 66
        E 0 82 2e 67
        E 1 83 2e 66
        E 1 9f 3d 65
        E 0 91 33 66
        E 1 92 2e 67
        E 2 8d 33 65
        E 1 8d 33 66
        E 1 8d 2e 66
        E 0 8d 2e 67
        E 2 9d 33 66
        E 0 9d 2e 67
        E 1911 81 33 66
        E 1 91 33 66
        E 1 93 2e 66
        E 2 8d 33 66
        E 0 9d 33 66
        E 1 9d 2e 66
        E 632 91 33 67
        E 3 9d 33 67
        E 322 81 33 66
        E 0 9d 44 65
        E 1 8d 33 66
        E 310 91 34 64
        E 2 9d 34 64
        E 321 81 33 67
        E 2 8d 33 67
        E 323 8d 44 65
        E 1 9d 44 65
        E 1 91 34 65
        E 1 9d 34 65
        E 310 81 34 64
        E 2 8d 34 64
        E 642 83 2e 66
        E 1 93 2b 64
        E 1 8d 2e 66
        E 2 9d 2b 64
        E 313 91 35 63
        E 1 9d 35 63
        E 643 8d 44 65
        E 0 81 34 65
        E 1 9d 44 65
        E 1 91 35 63
        E 1 8d 34 65
        E 1 9d 35 63
        E 312 81 35 63
        E 3 8d 35 63
        E 318 9d 44 64
        E 325 8d 44 65
        E 1 81 35 63
        E 1 83 2b 64
        E 0 90 40 65
        E 1 8d 35 63
        E 2 8d 2b 64
        E 1 9d 40 65
        E 953 8f 3d 65
        E 1 80 40 65
        E 1 82 2e 67
        E 1 9d 43 65
        E 0 9f 3c 65
        E 1 90 40 65
        E 1 91 31 66
        E 0 93 2e 66
        E 2 8d 40 65
        E 1 8d 2e 67
        E 1 9d 31 66
        E 0 9d 40 65
        E 1 9d 2e 66
        E 628 8d 44 64
        E 637 92 2e 67
        E 2 9d 2e 67
        E 645 92 2e 67
        E 3 9d 2e 67
        E 309 82 2e 67
        E 3 8d 2e 67
        E 643 81 31 66
        E 0 82 2e 67
        E 1 92 25 66
        E 2 8d 31 66
        E 1 8d 2e 67
        E 1 9d 25 66
        E 956 8d 43 65
        E 0 8f 3c 65
        E 1 80 40 65
        E 1 82 25 66
        E 1 83 2e 66
        E 0 9d 43 65
        E 1 9f 3c 65
        E 1 90 40 65
        E 0 91 34 65
        E 1 92 25 66
        E 1 93 2e 66
        E 1 8d 40 65
        E 2 8d 25 66
        E 1 9d 40 65
        E 0 8d 2e 66
        E 1 9d 34 65
        E 2 9d 25 66
        E 0 9d 2e 66
        E 705 8f 3c 65
        E 1 9f 3d 64
        E 237 82 25 66
        E 0 92 2e 67
        E 1 8d 25 66
        E 2 9d 2e 67
        E 479 8d 43 65
        E 1 8f 3d 64
        E 1 9d 43 64
        E 0 9f 3d 65
        E 479 81 34 65
        E 2 8d 34 65
        E 236 8f 3d 65
        E 1 9f 3d 66
        E 722 8d 43 64
        E 0 8f 3d 66
        E 1 80 40 65
        E 1 82 2e 67
        E 0 83 2e 66
        E 1 9d 42 67
        E 1 9f 3d 67
        E 0 91 34 65
        E 1 92 2e 67
        E 1 8d 40 65
        E 2 8d 2e 67
        E 1 8d 2e 66
        E 0 9d 2e 67
        E 1 9d 34 65
        E 2042 81 34 65
        E 0 93 2e 66
        E 2 8d 34 65
        E 1 9d 2e 66
        E 1783 82 2e 67
        E 1 83 2e 66
        E 2 8d 2e 67
        E 1 8d 2e 66
        E 3835 8d 42 67
        E 0 8f 3d 67
        E 1 9d 42 67
        E 1 9f 3d 67
        E 1 91 34 65
        E 0 92 2e 67
        E 1 9d 34 65
        E 0 9d 2e 67
        E 1916 8d 42 67
        E 1 8f 3d 67
        E 1 81 34 65
        E 0 93 2e 66
        E 2 8d 34 65
        E 1 9d 2e 66
        E 1917 82 2e 67
        E 0 83 2e 66
        E 1 8d 2e 67
        E 1 8d 2e 66
        E 13536 b0 7b 00
        E 1 b1 7b 00
        E 0 b2 7b 00
        E 2 b3 7b 00
        E 0 b4 7b 00
        E 1 b5 7b 00
        E 1 b6 7b 00
        E 0 b7 7b 00
        E 1 b8 7b 00
        E 1 b9 7b 00
        E 1 ba 7b 00
        E 0 bb 7b 00
        E 1 bc 7b 00
        E 1 bd 7b 00
        E 1 be 7b 00
        E 1 bf 7b 00
        E 1 b0 7b 00
        E 0 b1 7b 00
        E 1 b2 7b 00
        E 0 b3 7b 00
        E 1 b4 7b 00
        E 0 b5 7b 00
        E 1 b6 7b 00
        E 0 b7 7b 00
        E 1 b8 7b 00
        E 0 b9 7b 00
        E 0 ba 7b 00
        E 1 bb 7b 00
        E 0 bc 7b 00
        E 1 bd 7b 00
        E 0 be 7b 00
        E 0 bf 7b 00
        E 1 bd 7b 00
        E 1 bd 7b 00
        E 0 bd 7b 00
        E 1 bd 7b 00
        E 1 b0 79 00
        E 0 b1 79 00
        E 1 b2 79 00
        E 0 b3 79 00
        E 2 bd 7b 00
        E 0 bd 7b 00
        E 1 bd 7b 00
        E 0 bd 7b 00
        E 2 b4 79 00
        E 1 b5 79 00
        E 0 b6 79 00
        E 1 b7 79 00
        E 0 b8 79 00
        E 1 bd 7b 00
        E 1 b9 79 00
        E 0 ba 79 00
        E 1 bb 79 00
        E 1 bc 79 00
        E 0 bd 79 00
        E 1 be 79 00
        E 1 bf 79 00
        E 1 b0 79 00
        E 1 b1 79 00
        E 0 b2 79 00
        E 0 b3 79 00
        E 1 b4 79 00
        E 0 b5 79 00
        E 1 b6 79 00
        E 0 b7 79 00
        E 0 b8 79 00
        E 0 b9 79 00
        E 1 ba 79 00
        E 0 bb 79 00
        E 1 bc 79 00
        E 0 bd 79 00
        E 0 be 79 00
        E 1 bf 79 00
        E 0 bd 7b 00
        E 1 bd 7b 00
        E 1 bd 7b 00
        E 2 bd 7b 00
        E 1 bd 7b 00
        E 0 bd 7b 00
        E 1 bd 79 00
        E 1 bd 79 00
        E 0 bd 7b 00
        E 1 bd 79 00
        E 0 bd 79 00
        E 1 bd 79 00
        E 1 bd 79 00
        E 0 bd 79 00
        E 2 bd 79 00
        E 0 bd 79 00
        E 1 bd 79 00
        E 1 bd 79 00
        E 0 bd 79 00
        E 2 bd 79 00
        E 0 bd 79 00
        E 1 bd 79 00
        E 1 bd 79 00
        E 18124 b0 7b 00
        CCINTERP 32
        CHASE_CC_TAKEOFFS 1
        GUID {9B870A32-D415-4563-99D5-4FB259D9A90F}
        IGNTEMPO 0 120 4 4
        SRCCOLOR 23
        VELLANE -1 100 0
      >
    >
  >
>
