<REAPER_PROJECT 0.1 "6.45/win64" 1642416335
  <NOTES 0 2
  >
  RIPPLE 0
  GROUPOVERRIDE 0 0 0
  AUTOXFADE 1
  ENVATTACH 3
  POOLEDENVATTACH 0
  MIXERUIFLAGS 11 48
  PEAKGAIN 1
  FEEDBACK 0
  PANLAW 1
  PROJOFFS 0 0 0
  MAXPROJLEN 0 600
  GRID 3454 8 1 8 1 0 0 0
  TIMEMODE 1 5 -1 30 0 0 -1
  VIDEO_CONFIG 0 0 256
  PANMODE 3
  CURSOR 0
  ZOOM 100 24945 0
  VZOOMEX 6 0
  USE_REC_CFG 0
  RECMODE 1
  SMPTESYNC 0 30 100 40 1000 300 0 0 1 0 0
  LOOP 0
  LOOPGRAN 0 4
  RECORD_PATH "" ""
  <RECORD_CFG
    ZXZhdxgAAA==
  >
  <APPLYFX_CFG
  >
  RENDER_FILE ""
  RENDER_PATTERN ""
  RENDER_FMT 0 2 0
  RENDER_1X 0
  RENDER_RANGE 1 0 0 18 1000
  RENDER_RESAMPLE 3 0 1
  RENDER_ADDTOPROJ 0
  RENDER_STEMS 0
  RENDER_DITHER 0
  TIMELOCKMODE 1
  TEMPOENVLOCKMODE 1
  ITEMMIX 0
  DEFPITCHMODE 589824 0
  TAKELANE 1
  SAMPLERATE 44100 0 0
  <RENDER_CFG
    ZXZhdxgAAA==
  >
  LOCK 1
  <METRONOME 6 2
    VOL 0.25 0.125
    FREQ 800 1600 1
    BEATLEN 4
    SAMPLES "" ""
    PATTERN 2863311530 2863311529
    MULT 1
  >
  GLOBAL_AUTO -1
  TEMPO 120 4 4
  PLAYRATE 1 0 0.25 4
  SELECTION 0 0
  SELECTION2 0 0
  MASTERAUTOMODE 0
  MASTERTRACKHEIGHT 0 0
  MASTERPEAKCOL 16576
  MASTERMUTESOLO 0
  MASTERTRACKVIEW 0 0.6667 0.5 0.5 -1 -1 -1 0 0 0 -1 -1 0
  MASTERHWOUT 0 0 1 0 0 0 0 -1
  MASTER_NCH 2 2
  MASTER_VOLUME 1 0 -1 -1 1
  MASTER_FX 1
  MASTER_SEL 0
  <MASTERPLAYSPEEDENV
    EGUID {24CA7CE9-D538-43A6-9482-50A2C21F3BD2}
    ACT 0 -1
    VIS 0 1 1
    LANEHEIGHT 0 0
    ARM 0
    DEFSHAPE 0 -1 -1
  >
  <TEMPOENVEX
    EGUID {78B23087-D546-49EC-97AE-2AFA9E3FC441}
    ACT 1 -1
    VIS 1 0 1
    LANEHEIGHT 0 0
    ARM 0
    DEFSHAPE 1 -1 -1
  >
  <PROJBAY
  >
  <TRACK {26FA5023-AB96-45CA-9DC2-5D83881C5255}
    NAME ""
    PEAKCOL 16576
    BEAT -1
    AUTOMODE 0
    VOLPAN 1 0 -1 -1 1
    MUTESOLO 0 0 0
    IPHASE 0
    PLAYOFFS 0 1
    ISBUS 0 0
    BUSCOMP 0 0 0 0 0
    SHOWINMIX 1 0.6667 0.5 1 0.5 -1 -1 -1
    FREEMODE 0
    SEL 1
    REC 1 4096 1 0 0 0 0
    VU 2
    TRACKHEIGHT 211 0 0 0 0 0
    INQ 0 0 0 0.5 100 0 0 100
    NCHAN 2
    FX 1
    TRACKID {26FA5023-AB96-45CA-9DC2-5D83881C5255}
    PERF 0
    MIDIOUT -1
    MAINSEND 1 0
    <ITEM
      POSITION 0
      SNAPOFFS 0
      LENGTH 264.89322916666669
      LOOP 1
      ALLTAKES 0
      FADEIN 1 0 0 1 0 0 0
      FADEOUT 1 0 0 1 0 0 0
      MUTE 0 0
      SEL 1
      IGUID {F0A68AAD-B168-4CF2-843F-20B8B50DB19E}
      IID 3
      NAME "01-Recorded MIDI"
      VOLPAN 1 0 1 -1
      SOFFS 0 0
      PLAYRATE 1 1 0 -1 0 0.0025
      CHANMODE 0
      GUID {A0FAAEA3-CF19-4D03-A0A2-E9DAF6DD6ECC}
      RECPASS 2
      <SOURCE MIDI
        HASDATA 1 960 QN
        CCINTERP 32
        POOLEDEVTS {3919EC4E-F563-4DD4-90F2-F76D427116CC}
        E 6498 b0 7b 00
        E 0 b1 7b 00
        E 0 b2 7b 00
        E 1 b3 7b 00
        E 0 b4 7b 00
        E 0 b5 7b 00
        E 0 b6 7b 00
        E 0 b7 7b 00
        E 0 b8 7b 00
        E 0 b9 7b 00
        E 0 ba 7b 00
        E 0 bb 7b 00
        E 0 bc 7b 00
        E 0 bd 7b 00
        E 0 be 7b 00
        E 0 bf 7b 00
        E 5 c9 00 00
        E 0 c0 00 00
        E 1 b0 07 64
        E 0 b0 0a 33
        E 0 b0 5b 3b
        E 0 b0 5d 00
        E 1371 c0 00 00
        E 0 c0 00 00
        E 0 c0 00 00
        E 0 c0 00 00
        E 0 c0 00 00
        E 0 c0 00 00
        E 0 c0 00 00
        E 0 c0 00 00
        E 0 c0 00 00
        E 0 c0 00 00
        E 0 c0 00 00
        E 0 c0 00 00
        E 0 c0 00 00
        E 0 c0 00 00
        E 1 c0 00 00
        E 0 c0 00 00
        E 0 90 46 67
        E 0 c0 00 00
        E 0 c0 00 00
        E 0 90 42 67
        E 0 c0 00 00
        E 0 c0 00 00
        E 0 90 47 64
        E 0 c0 00 00
        E 0 c0 00 00
        E 0 c0 00 00
        E 1 c0 00 00
        E 0 c0 00 00
        E 0 c0 00 00
        E 0 c0 00 00
        E 0 c0 00 00
        E 0 c0 00 00
        E 0 c0 00 00
        E 0 c0 00 00
        E 1 c0 00 00
        E 0 c0 00 00
        E 0 c0 00 00
        E 0 c0 00 00
        E 0 c0 00 00
        E 0 c0 00 00
        E 0 c0 00 00
        E 158 80 47 64
        E 19 90 44 66
        E 30 90 46 65
        E 0 90 42 65
        E 109 80 46 67
        E 0 80 42 67
        E 22 80 44 66
        E 25 90 46 66
        E 56 90 45 65
        E 1 90 41 65
        E 100 80 46 66
        E 8 80 46 65
        E 0 80 42 65
        E 13 90 44 64
        E 95 90 47 65
        E 0 90 43 65
        E 64 80 44 64
        E 28 90 46 64
        E 15 80 45 65
        E 0 80 41 65
        E 103 90 46 65
        E 0 90 42 65
        E 38 80 46 64
        E 22 90 43 64
        E 52 80 47 65
        E 0 80 43 65
        E 103 90 46 67
        E 0 90 42 67
        E 6 80 43 64
        E 23 90 45 64
        E 74 80 46 65
        E 0 80 42 65
        E 88 80 45 64
        E 24 90 48 65
        E 0 90 44 67
        E 0 90 42 66
        E 104 80 46 67
        E 0 80 42 67
        E 57 80 42 66
        E 19 90 44 66
        E 30 90 47 65
        E 0 90 43 65
        E 112 80 48 65
        E 0 80 44 67
        E 19 80 44 66
        E 23 90 42 64
        E 62 90 46 67
        E 0 90 42 67
        E 99 80 42 64
        E 4 80 47 65
        E 0 80 43 65
        E 15 90 44 64
        E 97 90 46 65
        E 1 90 42 65
        E 64 80 44 64
        E 25 90 41 64
        E 15 80 46 67
        E 1 80 42 67
        E 103 90 45 65
        E 0 90 41 65
        E 38 80 41 64
        E 21 90 43 64
        E 52 80 46 65
        E 0 80 42 65
        E 105 90 44 64
        E 0 90 40 65
        E 4 80 43 64
        E 25 90 41 63
        E 78 80 45 65
        E 0 80 41 65
        E 83 80 41 63
        E 25 90 45 65
        E 1 90 41 65
        E 0 90 47 64
        E 106 80 44 64
        E 0 80 40 65
        E 50 80 47 64
        E 24 90 44 66
        E 28 90 48 65
        E 0 90 44 67
        E 111 80 45 65
        E 0 80 41 65
        E 19 80 44 66
        E 24 90 46 66
        E 62 90 46 65
        E 0 90 42 65
        E 98 80 46 66
        E 6 80 48 65
        E 0 80 44 67
        E 14 90 44 64
        E 97 90 47 65
        E 0 90 43 65
        E 64 80 44 64
        E 24 90 46 64
        E 16 80 46 65
        E 0 80 42 65
        E 107 90 46 67
        E 0 90 42 67
        E 39 80 46 64
        E 21 90 43 64
        E 49 80 47 65
        E 0 80 43 65
        E 106 90 48 65
        E 1 90 44 67
        E 3 80 43 64
        E 25 90 45 64
        E 74 80 46 67
        E 0 80 42 67
        E 85 80 45 64
        E 27 90 47 65
        E 0 90 43 65
        E 1 90 42 66
        E 100 80 48 65
        E 0 80 44 67
        E 59 80 42 66
        E 19 90 44 66
        E 31 90 46 67
        E 0 90 42 67
        E 104 80 47 65
        E 0 80 43 65
        E 24 80 44 66
        E 27 90 42 64
        E 58 90 46 65
        E 0 90 42 65
        E 101 80 42 64
        E 6 80 46 67
        E 0 80 42 67
        E 13 90 44 64
        E 95 90 46 67
        E 1 90 42 67
        E 63 80 44 64
        E 27 90 41 64
        E 16 80 46 65
        E 0 80 42 65
        E 102 90 45 65
        E 1 90 41 65
        E 39 80 41 64
        E 20 90 43 64
        E 53 80 46 67
        E 0 80 42 67
        E 104 90 46 65
        E 0 90 42 65
        E 6 80 43 64
        E 24 90 41 63
        E 73 80 45 65
        E 0 80 41 65
        E 87 80 41 63
        E 26 90 46 67
        E 0 90 42 67
        E 0 90 47 64
        E 0 90 54 64
        E 0 90 50 66
        E 103 80 46 65
        E 1 80 42 65
        E 57 80 47 64
        E 19 90 44 66
        E 28 90 46 65
        E 0 90 42 65
        E 110 80 46 67
        E 0 80 42 67
        E 19 80 44 66
        E 25 90 46 66
        E 60 90 45 65
        E 0 90 41 65
        E 101 80 46 66
        E 4 80 46 65
        E 0 80 42 65
        E 17 90 44 64
        E 95 80 54 64
        E 0 80 50 66
        E 0 90 47 65
        E 0 90 43 65
        E 1 90 51 64
        E 0 90 4d 64
        E 62 80 44 64
        E 25 90 46 64
        E 17 80 45 65
        E 0 80 41 65
        E 105 90 46 65
        E 0 90 42 65
        E 40 80 46 64
        E 20 90 43 64
        E 48 80 47 65
        E 0 80 43 65
        E 107 90 46 67
        E 0 90 42 67
        E 4 80 43 64
        E 23 90 45 64
        E 80 80 46 65
        E 0 80 42 65
        E 81 80 45 64
        E 27 80 51 64
        E 0 80 4d 64
        E 1 90 48 65
        E 0 90 44 67
        E 0 90 42 66
        E 0 90 4e 64
        E 0 90 4a 64
        E 104 80 46 67
        E 0 80 42 67
        E 54 80 42 66
        E 22 90 44 66
        E 29 90 47 65
        E 0 90 43 65
        E 110 80 48 65
        E 0 80 44 67
        E 20 80 44 66
        E 23 90 42 64
        E 59 90 46 67
        E 1 90 42 67
        E 100 80 42 64
        E 6 80 47 65
        E 0 80 43 65
        E 14 90 44 64
        E 97 80 4e 64
        E 0 80 4a 64
        E 0 90 46 65
        E 0 90 42 65
        E 0 90 4b 64
        E 0 90 47 64
        E 66 80 44 64
        E 25 90 41 64
        E 15 80 46 67
        E 0 80 42 67
        E 106 90 45 65
        E 0 90 41 65
        E 36 80 41 64
        E 21 90 43 64
        E 48 80 46 65
        E 1 80 42 65
        E 107 90 44 64
        E 0 90 40 65
        E 3 80 43 64
        E 25 90 41 63
        E 76 80 45 65
        E 0 80 41 65
        E 85 80 41 63
        E 27 80 4b 64
        E 0 80 47 64
        E 0 90 45 65
        E 0 90 41 65
        E 0 90 47 64
        E 0 90 48 63
        E 1 90 44 64
        E 102 80 44 64
        E 0 80 40 65
        E 54 80 47 64
        E 20 90 44 66
        E 31 90 48 65
        E 0 90 44 67
        E 109 80 45 65
        E 0 80 41 65
        E 21 80 44 66
        E 27 90 46 66
        E 60 90 46 65
        E 0 90 42 65
        E 99 80 46 66
        E 5 80 48 65
        E 0 80 44 67
        E 12 90 44 64
        E 95 80 48 63
        E 0 80 44 64
        E 0 90 4e 67
        E 0 90 47 65
        E 0 90 43 65
        E 1 90 4b 66
        E 65 80 44 64
        E 27 90 46 64
        E 15 80 46 65
        E 1 80 42 65
        E 104 90 46 67
        E 0 90 42 67
        E 39 80 46 64
        E 20 90 43 64
        E 52 80 47 65
        E 0 80 43 65
        E 104 90 48 65
        E 0 90 44 67
        E 6 80 43 64
        E 22 90 45 64
        E 77 80 46 67
        E 0 80 42 67
        E 84 80 45 64
        E 25 80 4e 67
        E 0 80 4b 66
        E 0 90 4b 67
        E 0 90 47 65
        E 0 90 43 65
        E 0 90 42 66
        E 0 90 48 64
        E 106 80 48 65
        E 0 80 44 67
        E 57 80 42 66
        E 19 90 44 66
        E 29 90 46 67
        E 0 90 42 67
        E 110 80 47 65
        E 0 80 43 65
        E 18 80 44 66
        E 25 90 42 64
        E 62 90 46 65
        E 0 90 42 65
        E 101 80 42 64
        E 4 80 46 67
        E 0 80 42 67
        E 15 90 44 64
        E 93 80 4b 67
        E 0 80 48 64
        E 0 90 48 65
        E 0 90 46 67
        E 0 90 42 67
        E 0 90 45 64
        E 66 80 44 64
        E 25 90 41 64
        E 14 80 46 65
        E 0 80 42 65
        E 107 90 45 65
        E 0 90 41 65
        E 39 80 41 64
        E 19 90 43 64
        E 52 80 46 67
        E 0 80 42 67
        E 105 90 46 65
        E 0 90 42 65
        E 4 80 43 64
        E 23 90 41 63
        E 75 80 45 65
        E 1 80 41 65
        E 84 80 41 63
        E 28 80 48 65
        E 0 80 45 64
        E 0 90 45 65
        E 0 90 41 65
        E 0 90 46 66
        E 104 80 46 65
        E 0 80 42 65
        E 56 80 41 65
        E 0 80 46 66
        E 18 90 49 65
        E 0 90 42 64
        E 161 80 42 64
        E 23 90 46 64
        E 138 80 49 65
        E 24 80 46 64
        E 21 90 3c 65
        E 0 90 41 64
        E 161 80 3c 65
        E 0 80 41 64
        E 25 90 4c 65
        E 0 90 45 64
        E 159 80 45 64
        E 21 90 41 63
        E 137 80 4c 65
        E 20 80 41 63
        E 25 90 3f 67
        E 0 90 44 66
        E 161 80 3f 67
        E 0 80 44 66
        E 24 80 45 65
        E 0 90 47 65
        E 0 90 40 64
        E 160 80 40 64
        E 21 90 44 64
        E 138 80 47 65
        E 21 80 44 64
        E 28 90 46 67
        E 0 90 3f 66
        E 159 80 3f 66
        E 17 90 43 64
        E 142 80 46 67
        E 21 80 43 64
        E 26 90 3a 65
        E 0 90 3f 64
        E 158 80 3a 65
        E 0 80 3f 64
        E 18 90 49 67
        E 0 90 42 66
        E 162 80 49 67
        E 1 80 42 66
        E 24 90 45 65
        E 1 90 3e 64
        E 159 80 45 65
        E 0 80 3e 64
        E 24 90 4d 65
        E 1 90 46 66
        E 159 80 4d 65
        E 0 80 46 66
        E 21 90 3d 65
        E 0 90 42 64
        E 159 80 3d 65
        E 0 80 42 64
        E 25 90 49 65
        E 0 90 46 64
        E 161 80 49 65
        E 0 80 46 64
        E 22 90 3c 65
        E 0 90 41 64
        E 156 80 3c 65
        E 0 80 41 64
        E 28 90 40 65
        E 0 90 45 64
        E 160 80 40 65
        E 0 80 45 64
        E 16 90 4b 67
        E 0 90 41 63
        E 164 80 41 63
        E 22 90 44 66
        E 139 80 4b 67
        E 22 80 44 66
        E 25 90 3b 65
        E 0 90 40 64
        E 161 80 3b 65
        E 0 80 40 64
        E 21 90 3a 67
        E 0 90 44 64
        E 160 80 3a 67
        E 1 80 44 64
        E 24 90 49 65
        E 0 90 3f 66
        E 161 80 49 65
        E 0 80 3f 66
        E 20 90 46 67
        E 0 90 43 64
        E 158 80 46 67
        E 0 80 43 64
        E 24 90 46 65
        E 0 90 3f 64
        E 160 80 46 65
        E 0 80 3f 64
        E 21 90 49 67
        E 0 90 42 66
        E 161 80 49 67
        E 0 80 42 66
        E 26 90 39 65
        E 0 90 3e 64
        E 158 80 39 65
        E 0 80 3e 64
        E 24 90 40 65
        E 0 90 3a 67
        E 0 90 46 64
        E 255 90 3f 66
        E 62 80 46 64
        E 194 90 44 66
        E 66 80 3f 66
        E 190 90 4b 65
        E 0 90 45 65
        E 0 90 3e 64
        E 64 80 44 66
        E 130 80 40 65
        E 0 80 3a 67
        E 60 90 44 64
        E 69 80 3e 64
        E 191 90 3e 65
        E 0 90 38 67
        E 0 90 3d 66
        E 58 80 44 64
        E 68 80 4b 65
        E 0 80 45 65
        E 129 90 50 65
        E 0 90 4a 65
        E 0 90 43 64
        E 63 80 3e 65
        E 0 80 38 67
        E 0 80 3d 66
        E 193 90 3d 64
        E 66 80 43 64
        E 188 90 43 65
        E 0 90 3d 65
        E 0 90 42 64
        E 64 80 3d 64
        E 66 80 50 65
        E 0 80 4a 65
        E 122 90 3c 63
        E 66 80 42 64
        E 196 90 40 65
        E 0 90 3a 67
        E 0 90 46 64
        E 62 80 3c 63
        E 66 80 43 65
        E 0 80 3d 65
        E 128 90 3f 66
        E 63 80 46 64
        E 191 90 44 66
        E 65 80 3f 66
        E 190 90 4b 65
        E 0 90 45 65
        E 0 90 3e 64
        E 67 80 44 66
        E 128 80 40 65
        E 0 80 3a 67
        E 61 90 44 64
        E 64 80 3e 64
        E 196 90 3e 65
        E 0 90 38 67
        E 0 90 3d 66
        E 62 80 44 64
        E 60 80 4b 65
        E 0 80 45 65
        E 134 90 50 65
        E 0 90 4a 65
        E 0 90 43 64
        E 64 80 3e 65
        E 0 80 38 67
        E 0 80 3d 66
        E 192 90 3d 64
        E 64 80 43 64
        E 186 90 43 65
        E 0 90 3d 65
        E 0 90 42 64
        E 68 80 3d 64
        E 68 80 50 65
        E 0 80 4a 65
        E 124 90 3c 63
        E 63 80 42 64
        E 195 90 3e 65
        E 0 90 38 67
        E 0 90 3d 66
        E 58 80 3c 63
        E 67 80 43 65
        E 0 80 3d 65
        E 128 90 50 65
        E 0 90 4a 65
        E 0 90 43 64
        E 68 80 3e 65
        E 0 80 38 67
        E 0 80 3d 66
        E 190 90 3d 64
        E 64 80 43 64
        E 192 90 43 65
        E 0 90 3d 65
        E 0 90 42 64
        E 62 80 3d 64
        E 66 80 50 65
        E 0 80 4a 65
        E 126 90 3c 63
        E 64 80 42 64
        E 196 90 48 65
        E 0 90 45 64
        E 60 80 3c 63
        E 65 80 43 65
        E 0 80 3d 65
        E 34 80 48 65
        E 0 80 45 64
        E 0 90 3f 67
        E 0 90 3d 66
        E 158 80 3f 67
        E 0 80 3d 66
        E 1 90 47 65
        E 0 90 44 64
        E 158 80 47 65
        E 1 80 44 64
        E 0 90 3e 65
        E 0 90 3c 64
        E 162 80 3e 65
        E 1 80 3c 64
        E 0 90 45 65
        E 0 90 42 64
        E 156 80 45 65
        E 0 80 42 64
        E 0 90 3c 65
        E 0 90 3a 66
        E 165 80 3c 65
        E 0 80 3a 66
        E 0 90 44 67
        E 0 90 41 64
        E 159 80 44 67
        E 0 80 41 64
        E 0 90 43 65
        E 0 90 3a 64
        E 157 80 43 65
        E 0 80 3a 64
        E 0 90 48 65
        E 0 90 45 64
        E 161 80 48 65
        E 0 80 45 64
        E 19 90 3f 67
        E 0 90 3d 66
        E 161 80 3f 67
        E 0 80 3d 66
        E 25 90 47 65
        E 0 90 44 64
        E 162 80 47 65
        E 0 80 44 64
        E 18 90 3e 65
        E 0 90 3c 64
        E 164 80 3e 65
        E 0 80 3c 64
        E 24 90 45 65
        E 1 90 42 64
        E 157 80 45 65
        E 0 80 42 64
        E 19 90 44 67
        E 0 90 41 64
        E 163 80 44 67
        E 0 80 41 64
        E 23 90 43 65
        E 0 90 3a 64
        E 161 80 43 65
        E 0 80 3a 64
        E 25 90 3f 67
        E 1 90 3d 66
        E 210 90 47 65
        E 0 90 44 64
        E 105 80 3f 67
        E 0 80 3d 66
        E 109 90 3e 65
        E 0 90 3c 64
        E 103 80 47 65
        E 0 80 44 64
        E 110 90 45 65
        E 0 90 42 64
        E 106 80 3e 65
        E 0 80 3c 64
        E 103 90 44 67
        E 1 90 41 64
        E 110 80 45 65
        E 0 80 42 64
        E 105 90 43 65
        E 0 90 3a 64
        E 108 80 44 67
        E 0 80 41 64
        E 108 90 4b 67
        E 0 90 3e 65
        E 1 90 44 66
        E 106 80 43 65
        E 0 80 3a 64
        E 149 90 3b 64
        E 65 80 44 66
        E 189 90 4a 65
        E 0 90 43 64
        E 64 80 3b 64
        E 66 80 4b 67
        E 0 80 3e 65
        E 125 90 3d 65
        E 0 90 3a 64
        E 65 80 4a 65
        E 0 80 43 64
        E 188 90 49 67
        E 0 90 3c 65
        E 0 90 42 66
        E 68 80 3d 65
        E 0 80 3a 64
        E 194 90 49 67
        E 0 90 3c 65
        E 0 90 39 64
        E 60 80 49 67
        E 0 80 3c 65
        E 0 80 42 66
        E 194 90 45 65
        E 0 90 3f 67
        E 0 90 42 64
        E 64 80 49 67
        E 0 80 3c 65
        E 0 80 39 64
        E 192 90 45 65
        E 0 90 3f 67
        E 0 90 38 66
        E 66 80 45 65
        E 0 80 3f 67
        E 0 80 42 64
        E 189 90 47 65
        E 0 90 44 65
        E 1 90 41 63
        E 66 80 45 65
        E 0 80 3f 67
        E 0 80 38 66
        E 188 90 4a 65
        E 0 90 3a 67
        E 0 90 37 64
        E 67 80 47 65
        E 0 80 44 65
        E 0 80 41 63
        E 194 90 4b 67
        E 0 90 3e 65
        E 0 90 44 66
        E 58 80 4a 65
        E 0 80 3a 67
        E 0 80 37 64
        E 262 80 44 66
        E 0 90 3b 64
        E 318 80 4b 67
        E 0 80 3e 65
        E 0 80 3b 64
        E 0 90 4a 65
        E 0 90 43 64
        E 320 80 4a 65
        E 0 80 43 64
        E 0 90 3d 65
        E 0 90 3a 64
        E 321 80 3d 65
        E 0 80 3a 64
        E 0 90 49 67
        E 0 90 3c 65
        E 0 90 42 66
        E 319 80 49 67
        E 0 80 3c 65
        E 0 80 42 66
        E 0 90 49 67
        E 0 90 3c 65
        E 0 90 39 64
        E 321 80 49 67
        E 1 80 3c 65
        E 0 80 39 64
        E 0 90 45 65
        E 0 90 3f 67
        E 0 90 42 64
        E 321 80 45 65
        E 0 80 3f 67
        E 0 80 42 64
        E 1 90 45 65
        E 0 90 3f 67
        E 0 90 38 66
        E 316 80 45 65
        E 0 80 3f 67
        E 0 80 38 66
        E 0 90 47 65
        E 0 90 44 65
        E 0 90 41 63
        E 320 80 47 65
        E 0 80 44 65
        E 0 80 41 63
        E 1 90 4a 65
        E 0 90 3a 67
        E 0 90 37 64
        E 320 80 4a 65
        E 0 80 3a 67
        E 0 80 37 64
        E 0 90 45 65
        E 0 90 3f 67
        E 0 90 42 64
        E 426 90 47 65
        E 0 90 44 65
        E 0 90 41 63
        E 215 80 45 65
        E 0 80 3f 67
        E 0 80 42 64
        E 208 90 4a 65
        E 0 90 3a 67
        E 0 90 37 64
        E 219 80 47 65
        E 0 80 44 65
        E 0 80 41 63
        E 210 90 47 65
        E 0 90 44 65
        E 0 90 41 63
        E 214 80 4a 65
        E 0 80 3a 67
        E 0 80 37 64
        E 266 80 47 65
        E 0 80 44 65
        E 0 80 41 63
        E 0 90 4a 65
        E 0 90 3a 67
        E 0 90 37 64
        E 480 80 4a 65
        E 0 80 3a 67
        E 0 80 37 64
        E 0 90 47 65
        E 1 90 44 65
        E 0 90 41 63
        E 643 80 47 65
        E 0 80 44 65
        E 0 80 41 63
        E 0 90 4a 65
        E 0 90 3a 67
        E 0 90 37 64
        E 638 80 4a 65
        E 0 80 3a 67
        E 0 80 37 64
        E 0 90 45 65
        E 0 90 3f 67
        E 0 90 42 64
        E 849 90 47 65
        E 0 90 44 65
        E 0 90 41 63
        E 430 80 45 65
        E 0 80 3f 67
        E 0 80 42 64
        E 423 90 4a 65
        E 0 90 3a 67
        E 0 90 37 64
        E 428 80 47 65
        E 0 80 44 65
        E 0 80 41 63
        E 430 90 3e 65
        E 0 90 44 64
        E 320 80 4a 65
        E 0 80 3a 67
        E 0 80 37 64
        E 0 90 4b 67
        E 162 80 3e 65
        E 0 80 44 64
        E 0 90 38 66
        E 0 90 4d 63
        E 158 90 45 65
        E 0 90 4e 66
        E 79 80 4d 63
        E 82 80 4b 67
        E 0 90 50 64
        E 79 80 4e 66
        E 77 80 38 66
        E 1 90 3a 67
        E 0 90 43 64
        E 0 90 52 64
        E 85 80 50 64
        E 73 80 45 65
        E 82 80 52 64
        E 82 90 47 65
        E 160 80 3a 67
        E 0 80 43 64
        E 0 90 38 64
        E 1 90 48 64
        E 156 90 3e 65
        E 1 90 4a 64
        E 81 80 48 64
        E 81 80 47 65
        E 0 90 4b 66
        E 79 80 4a 64
        E 82 80 38 64
        E 0 90 3e 65
        E 0 90 44 64
        E 0 90 4d 64
        E 80 80 4b 66
        E 79 80 3e 65
        E 79 80 4d 64
        E 82 90 4b 67
        E 157 80 3e 65
        E 0 80 44 64
        E 0 90 38 66
        E 0 90 4e 64
        E 160 90 45 65
        E 0 90 50 66
        E 80 80 4e 64
        E 82 80 4b 67
        E 0 90 53 64
        E 77 80 50 66
        E 82 80 38 66
        E 0 90 3a 67
        E 0 90 43 64
        E 79 80 53 64
        E 80 80 45 65
        E 160 90 47 65
        E 163 80 3a 67
        E 0 80 43 64
        E 0 90 38 64
        E 0 90 49 66
        E 157 90 3e 65
        E 0 90 4c 64
        E 82 80 49 66
        E 81 80 47 65
        E 0 90 4e 66
        E 78 80 4c 64
        E 82 80 38 64
        E 0 90 3c 65
        E 0 90 42 66
        E 0 90 51 64
        E 79 80 4e 66
        E 77 80 3e 65
        E 83 80 51 64
        E 82 90 4a 65
        E 157 80 3c 65
        E 0 80 42 66
        E 0 90 37 64
        E 0 90 4b 66
        E 161 90 44 67
        E 0 90 4d 64
        E 81 80 4b 66
        E 77 80 4a 65
        E 1 90 4e 66
        E 79 80 4d 64
        E 82 80 37 64
        E 0 90 3e 65
        E 0 90 44 64
        E 0 90 50 66
        E 81 80 4e 66
        E 77 80 44 67
        E 82 80 50 66
        E 141 90 4b 67
        E 97 80 3e 65
        E 0 90 38 67
        E 0 90 4f 64
        E 159 90 53 64
        E 80 80 4f 64
        E 50 90 45 65
        E 97 80 4b 67
        E 14 80 53 64
        E 81 80 44 64
        E 0 90 43 64
        E 194 90 3a 67
        E 46 90 3f 66
        E 45 80 45 65
        E 196 80 38 67
        E 0 80 3f 66
        E 1 90 38 65
        E 92 90 47 65
        E 99 80 3a 67
        E 46 90 4c 64
        E 243 80 38 65
        E 0 80 43 64
        E 0 80 4c 64
        E 0 90 3c 65
        E 0 90 42 66
        E 91 80 47 65
        E 292 90 4a 65
        E 97 80 3c 65
        E 0 80 42 66
        E 0 90 37 64
        E 0 90 4d 63
        E 159 90 4f 64
        E 78 80 4d 63
        E 48 90 44 67
        E 33 90 52 64
        E 66 80 4a 65
        E 15 80 4f 64
        E 78 80 37 64
        E 0 90 42 64
        E 0 90 54 64
        E 83 80 52 64
        E 111 90 3d 65
        E 47 80 54 64
        E 48 80 44 67
        E 193 80 42 64
        E 1 90 36 66
        E 0 90 43 64
        E 91 90 48 65
        E 70 90 4b 64
        E 30 80 3d 65
        E 49 80 43 64
        E 77 90 51 64
        E 82 80 4b 64
        E 80 80 36 66
        E 0 90 42 65
        E 0 90 3d 65
        E 85 80 51 64
        E 17 80 48 65
        E 246 90 48 65
        E 177 80 3d 65
        E 0 90 36 66
        E 0 90 4b 64
        E 169 90 3d 67
        E 0 90 4e 64
        E 92 80 4b 64
        E 82 80 48 65
        E 0 90 50 66
        E 89 80 4e 64
        E 91 80 42 65
        E 0 80 36 66
        E 0 90 41 65
        E 0 90 3b 65
        E 87 80 50 66
        E 83 80 3d 67
        E 179 90 49 65
        E 174 80 3b 65
        E 0 90 36 64
        E 1 90 4b 66
        E 168 90 43 65
        E 0 90 4e 66
        E 91 80 4b 66
        E 88 80 49 65
        E 0 90 51 64
        E 87 80 4e 66
        E 89 80 41 65
        E 0 80 36 64
        E 0 90 41 63
        E 0 90 3c 65
        E 87 80 51 64
        E 85 80 43 65
        E 175 90 47 65
        E 178 80 3c 65
        E 0 90 35 64
        E 0 90 49 66
        E 170 90 3f 67
        E 1 90 4d 63
        E 87 80 49 66
        E 87 80 47 65
        E 0 90 4f 64
        E 87 80 4d 63
        E 92 80 41 63
        E 0 80 35 64
        E 0 90 4a 65
        E 0 90 3a 67
        E 0 90 43 64
        E 83 80 4f 64
        E 85 80 3f 67
        E 355 80 4a 65
        E 0 80 3a 67
        E 0 80 43 64
        E 0 90 49 65
        E 0 90 43 65
        E 0 90 3a 64
        E 521 80 49 65
        E 0 80 43 65
        E 0 80 3a 64
        E 0 90 52 66
        E 1 90 3e 64
        E 0 90 2a 66
        E 522 80 52 66
        E 0 80 3e 64
        E 0 80 2a 66
        E 1 90 3d 67
        E 0 90 52 64
        E 0 90 2a 64
        E 525 80 3d 67
        E 0 80 52 64
        E 0 80 2a 64
        E 0 90 51 64
        E 0 90 41 63
        E 0 90 3d 64
        E 523 80 51 64
        E 0 80 41 63
        E 0 80 3d 64
        E 0 90 51 65
        E 1 90 41 65
        E 0 90 32 64
        E 523 80 51 65
        E 0 80 41 65
        E 0 80 32 64
        E 0 90 50 65
        E 0 90 49 64
        E 0 90 41 63
        E 416 90 44 67
        E 0 90 3d 66
        E 0 90 35 64
        E 109 80 50 65
        E 0 80 49 64
        E 0 80 41 63
        E 308 90 42 67
        E 0 90 3c 63
        E 0 90 38 66
        E 105 80 44 67
        E 0 80 3d 66
        E 0 80 35 64
        E 315 90 41 63
        E 0 90 3c 64
        E 0 90 38 64
        E 0 90 33 64
        E 106 80 42 67
        E 0 80 3c 63
        E 0 80 38 66
        E 313 90 37 65
        E 0 90 40 64
        E 0 90 3c 63
        E 1 90 32 64
        E 104 80 41 63
        E 0 80 3c 64
        E 0 80 38 64
        E 0 80 33 64
        E 316 90 36 67
        E 0 90 3f 66
        E 0 90 3b 64
        E 0 90 35 64
        E 103 80 37 65
        E 0 80 40 64
        E 0 80 3c 63
        E 0 80 32 64
        E 161 80 36 67
        E 0 80 3f 66
        E 0 80 3b 64
        E 0 80 35 64
        E 1 90 36 65
        E 0 90 3f 64
        E 0 90 3c 63
        E 0 90 35 63
        E 260 80 36 65
        E 0 80 3f 64
        E 0 80 3c 63
        E 0 80 35 63
        E 0 90 3e 65
        E 0 90 3a 67
        E 0 90 37 64
        E 0 90 34 64
        E 260 80 3e 65
        E 0 80 3a 67
        E 0 80 37 64
        E 0 80 34 64
        E 1 90 3d 67
        E 0 90 39 65
        E 0 90 36 66
        E 0 90 33 66
        E 263 80 3d 67
        E 0 80 39 65
        E 0 80 36 66
        E 0 80 33 66
        E 0 90 3e 65
        E 0 90 3d 64
        E 435 90 37 64
        E 148 90 38 67
        E 289 90 31 66
        E 291 90 33 65
        E 145 90 2c 64
        E 437 80 3e 65
        E 0 80 38 67
        E 0 80 33 65
        E 0 80 3d 64
        E 1 90 3d 65
        E 0 90 3c 63
        E 142 80 2c 64
        E 149 80 31 66
        E 141 80 37 64
        E 0 90 36 64
        E 148 90 37 65
        E 292 90 30 64
        E 293 90 31 67
        E 142 90 2a 66
        E 440 80 3d 65
        E 0 80 37 65
        E 0 80 31 67
        E 0 80 3c 63
        E 0 90 3b 65
        E 0 90 3a 66
        E 145 80 2a 66
        E 142 80 30 64
        E 148 80 36 64
        E 0 90 35 63
        E 144 90 36 65
        E 289 90 2f 64
        E 295 90 30 65
        E 145 90 29 64
        E 435 80 3b 65
        E 0 80 36 65
        E 1 80 30 65
        E 0 80 3a 66
        E 0 90 3a 65
        E 0 90 39 64
        E 145 80 29 64
        E 144 80 2f 64
        E 35 90 33 66
        E 112 80 35 63
        E 0 90 34 65
        E 217 90 2e 64
        E 219 80 3a 65
        E 0 80 39 64
        E 0 90 3a 65
        E 0 90 2e 67
        E 1 90 39 64
        E 106 90 28 64
        E 221 80 33 66
        E 37 80 2e 64
        E 35 80 28 64
        E 38 80 3a 65
        E 1 80 34 65
        E 0 80 2e 67
        E 0 80 39 64
        E 0 90 38 67
        E 0 90 38 64
        E 323 90 32 64
        E 111 90 33 65
        E 219 90 2c 66
        E 217 80 38 67
        E 0 80 38 64
        E 0 90 38 67
        E 0 90 2d 65
        E 0 90 38 64
        E 110 90 27 64
        E 219 80 32 64
        E 35 80 2c 66
        E 35 80 27 64
        E 35 80 38 67
        E 0 80 33 65
        E 0 80 2d 65
        E 0 80 38 64
        E 0 90 37 65
        E 0 90 36 66
        E 299 90 31 64
        E 92 90 31 67
        E 200 80 36 66
        E 0 90 36 66
        E 1 90 2b 64
        E 191 90 2c 65
        E 103 90 25 66
        E 145 80 36 66
        E 146 80 37 65
        E 0 80 31 64
        E 0 80 2b 64
        E 0 80 25 66
        E 0 90 36 66
        E 191 80 2c 65
        E 103 90 31 64
        E 97 80 31 67
        E 198 80 36 66
        E 0 90 2a 65
        E 0 90 36 66
        E 0 90 2c 64
        E 294 90 2d 65
        E 0 90 26 64
        E 144 80 36 66
        E 151 80 2a 65
        E 0 80 2d 65
        E 0 80 31 64
        E 0 80 2c 64
        E 0 80 26 64
        E 0 90 36 66
        E 215 90 31 64
        E 220 80 36 66
        E 0 90 2a 67
        E 0 90 36 66
        E 0 90 2c 66
        E 218 90 2e 65
        E 1 90 27 64
        E 110 80 36 66
        E 109 80 2a 67
        E 0 80 2e 65
        E 0 80 31 64
        E 0 80 2c 66
        E 0 80 27 64
        E 0 90 36 66
        E 215 90 31 64
        E 220 80 36 66
        E 0 90 2b 65
        E 1 90 36 66
        E 0 90 2d 64
        E 214 90 2e 67
        E 0 90 27 66
        E 109 80 36 66
        E 111 80 2b 65
        E 0 80 2e 67
        E 0 80 31 64
        E 0 80 2d 64
        E 0 80 27 66
        E 0 90 36 66
        E 221 90 31 64
        E 213 80 36 66
        E 0 90 2c 65
        E 0 90 36 66
        E 0 90 2e 64
        E 221 90 2f 65
        E 0 90 28 64
        E 110 80 36 66
        E 109 80 2c 65
        E 0 80 2f 65
        E 0 80 31 64
        E 1 80 2e 64
        E 0 80 28 64
        E 0 90 36 66
        E 212 90 31 64
        E 221 80 36 66
        E 0 90 29 65
        E 1 90 36 66
        E 0 90 2e 66
        E 220 90 2c 65
        E 0 90 29 63
        E 107 80 36 66
        E 110 80 29 65
        E 0 80 2c 65
        E 0 80 31 64
        E 0 80 2e 66
        E 0 80 29 63
        E 0 90 36 66
        E 164 90 31 64
        E 166 80 36 66
        E 0 90 2a 65
        E 0 90 36 66
        E 1 90 2f 64
        E 160 90 2c 67
        E 0 90 29 64
        E 81 80 36 66
        E 83 80 2a 65
        E 0 80 2c 67
        E 0 80 31 64
        E 0 80 2f 64
        E 0 80 29 64
        E 0 90 36 66
        E 161 90 31 64
        E 167 80 36 66
        E 0 90 2e 65
        E 0 90 36 66
        E 0 90 30 63
        E 163 90 31 65
        E 0 90 2a 64
        E 81 80 36 66
        E 84 80 2e 65
        E 0 80 31 65
        E 0 80 31 64
        E 0 80 30 63
        E 0 80 2a 64
        E 0 90 36 66
        E 160 90 31 64
        E 161 80 36 66
        E 0 90 2e 67
        E 1 90 36 66
        E 0 90 30 64
        E 168 90 31 67
        E 0 90 2a 66
        E 81 80 36 66
        E 81 80 2e 67
        E 0 80 31 67
        E 1 80 31 64
        E 0 80 30 64
        E 0 80 2a 66
        E 0 90 36 66
        E 162 90 2b 65
        E 1 90 30 64
        E 164 80 36 66
        E 0 90 2e 65
        E 1 90 36 66
        E 0 90 30 63
        E 164 90 31 67
        E 0 90 2a 66
        E 81 80 36 66
        E 80 80 2b 65
        E 0 80 2e 65
        E 0 80 31 67
        E 0 80 30 64
        E 0 80 30 63
        E 0 80 2a 66
        E 0 90 33 65
        E 0 90 2c 64
        E 131 90 34 65
        E 0 90 2d 64
        E 132 90 31 67
        E 0 90 2e 66
        E 130 90 2e 65
        E 0 90 30 63
        E 132 80 2e 65
        E 0 80 31 67
        E 0 80 34 65
        E 0 80 30 63
        E 1 80 2d 64
        E 0 90 2e 65
        E 0 90 31 67
        E 0 90 34 65
        E 0 90 31 64
        E 0 90 30 63
        E 0 90 2d 64
        E 100 90 2d 65
        E 0 90 32 64
        E 109 90 33 66
        E 102 90 2e 67
        E 0 90 35 63
        E 105 90 2f 65
        E 0 90 36 64
        E 107 80 2e 65
        E 0 80 31 67
        E 0 80 34 65
        E 1 80 33 65
        E 0 80 31 64
        E 0 80 30 63
        E 0 80 2e 66
        E 0 80 2d 64
        E 0 80 2c 64
        E 0 90 2f 65
        E 1 90 2e 67
        E 0 90 2d 65
        E 0 90 2e 65
        E 0 90 31 67
        E 0 90 34 65
        E 0 90 33 65
        E 0 90 36 64
        E 0 90 35 63
        E 0 90 33 66
        E 0 90 32 64
        E 0 90 31 64
        E 0 90 30 63
        E 0 90 2e 66
        E 0 90 2d 64
        E 0 90 2c 64
        E 50 80 2f 65
        E 0 80 36 64
        E 62 80 2e 67
        E 0 80 35 63
        E 52 80 33 66
        E 64 80 2d 65
        E 0 80 32 64
        E 4375 80 2f 65
        E 0 80 2e 67
        E 1 80 2d 65
        E 0 80 2e 65
        E 0 80 31 67
        E 1 80 34 65
        E 0 80 33 65
        E 0 80 36 64
        E 0 80 35 63
        E 0 80 33 66
        E 0 80 32 64
        E 0 80 31 64
        E 0 80 30 63
        E 0 80 2e 66
        E 0 80 2d 64
        E 0 80 2c 64
        E 0 90 2f 65
        E 0 90 2e 67
        E 1 90 2d 65
        E 0 90 2e 65
        E 0 90 31 67
        E 0 90 34 65
        E 0 90 33 65
        E 0 90 36 64
        E 0 90 35 63
        E 0 90 33 66
        E 0 90 31 64
        E 0 90 30 63
        E 0 90 2e 66
        E 1 90 2d 64
        E 0 90 2c 64
        E 1151 80 31 67
        E 1148 80 34 65
        E 1155 80 2e 67
        E 1153 80 2f 65
        E 0 80 2d 65
        E 0 80 2e 65
        E 0 80 33 65
        E 0 80 36 64
        E 0 80 35 63
        E 0 80 33 66
        E 1 80 31 64
        E 0 80 30 63
        E 0 80 2e 66
        E 0 80 2d 64
        E 0 80 2c 64
        E 0 90 2f 65
        E 0 90 2d 65
        E 0 90 2e 65
        E 0 90 33 65
        E 0 90 36 64
        E 0 90 35 63
        E 0 90 31 64
        E 0 90 30 63
        E 1 90 2e 66
        E 0 90 2d 64
        E 0 90 2c 64
        E 1148 80 2e 66
        E 1152 80 2d 64
        E 1155 80 31 64
        E 1151 80 2f 65
        E 0 80 2d 65
        E 0 80 2e 65
        E 1 80 33 65
        E 0 80 36 64
        E 0 80 35 63
        E 0 80 30 63
        E 0 80 2c 64
        E 0 90 2d 65
        E 1 90 2e 65
        E 0 90 33 65
        E 0 90 36 64
        E 0 90 35 63
        E 0 90 30 63
        E 0 90 2c 64
        E 1150 80 2c 64
        E 1153 80 2d 65
        E 1149 80 33 65
        E 1152 80 2e 65
        E 0 80 36 64
        E 0 80 35 63
        E 0 80 30 63
        E 1 90 2e 65
        E 0 90 36 64
        E 0 90 35 63
        E 0 90 30 63
        E 2303 80 36 64
        E 0 90 36 64
        E 291 80 36 64
        E 0 90 36 66
        E 287 80 36 66
        E 0 90 36 64
        E 286 80 36 64
        E 1 90 36 66
        E 287 80 36 66
        E 0 80 30 63
        E 0 90 36 64
        E 0 90 30 63
        E 290 80 36 64
        E 0 80 30 63
        E 0 90 36 66
        E 1 90 30 64
        E 284 80 36 66
        E 0 80 30 64
        E 0 90 36 64
        E 0 90 30 63
        E 289 80 36 64
        E 0 80 30 63
        E 0 90 36 66
        E 0 90 30 64
        E 289 80 2e 65
        E 0 80 36 66
        E 0 80 35 63
        E 0 80 30 64
        E 0 90 30 65
        E 0 90 36 64
        E 0 90 35 63
        E 0 90 30 63
        E 285 80 36 64
        E 0 80 30 63
        E 0 90 36 66
        E 0 90 30 64
        E 291 80 36 66
        E 0 80 30 64
        E 0 90 36 64
        E 0 90 30 63
        E 287 80 36 64
        E 0 80 30 63
        E 0 90 36 66
        E 0 90 30 64
        E 288 80 36 66
        E 0 80 30 64
        E 1 90 36 64
        E 0 90 30 63
        E 286 80 36 64
        E 0 80 30 63
        E 0 90 36 66
        E 1 90 30 64
        E 290 80 36 66
        E 0 80 30 64
        E 0 90 36 64
        E 0 90 30 63
        E 287 80 36 64
        E 0 80 30 63
        E 0 90 36 66
        E 0 90 30 64
        E 285 80 36 66
        E 0 80 35 63
        E 0 80 30 64
        E 0 90 36 64
        E 0 90 35 63
        E 0 90 30 63
        E 384 90 36 66
        E 0 90 30 64
        E 195 80 36 64
        E 0 80 35 63
        E 0 80 30 63
        E 190 90 36 64
        E 0 90 30 63
        E 191 80 36 66
        E 0 80 30 64
        E 195 90 36 66
        E 0 90 30 64
        E 192 80 36 64
        E 0 80 30 63
        E 192 90 36 64
        E 0 90 30 63
        E 192 80 36 66
        E 0 80 30 64
        E 190 90 36 66
        E 0 90 30 64
        E 190 80 36 64
        E 0 80 30 63
        E 197 80 30 65
        E 1 90 36 66
        E 0 90 30 64
        E 189 80 36 66
        E 0 80 30 64
        E 960 80 36 66
        E 0 80 30 64
        E 0 90 38 64
        E 0 90 31 66
        E 897 90 2a 65
        E 257 80 38 64
        E 0 80 31 66
        E 0 90 38 66
        E 0 90 31 64
        E 253 90 2b 65
        E 68 80 2a 65
        E 446 90 2c 67
        E 62 80 2b 65
        E 321 80 38 66
        E 0 80 31 64
        E 1 90 38 66
        E 0 90 33 64
        E 127 90 2e 65
        E 0 90 29 65
        E 65 80 2c 67
        E 447 90 2f 65
        E 1 90 2a 65
        E 61 80 2e 65
        E 0 80 29 65
        E 450 80 38 66
        E 0 80 33 64
        E 0 90 31 65
        E 0 90 2a 67
        E 0 90 39 64
        E 0 90 33 64
        E 63 80 2f 65
        E 0 80 2a 65
        E 447 90 32 65
        E 0 90 2b 65
        E 66 80 31 65
        E 0 80 2a 67
        E 447 90 33 67
        E 0 90 2c 65
        E 64 80 32 65
        E 0 80 2b 65
        E 64 80 39 64
        E 0 80 33 64
        E 0 90 38 66
        E 1 90 33 64
        E 383 90 35 65
        E 0 90 2c 67
        E 62 80 33 67
        E 0 80 2c 65
        E 452 90 36 67
        E 0 90 2d 65
        E 62 80 35 65
        E 0 80 2c 67
        E 194 80 38 66
        E 0 80 33 64
        E 0 90 39 64
        E 0 90 33 66
        E 255 90 38 65
        E 0 90 2e 65
        E 65 80 36 67
        E 0 80 2d 65
        E 445 90 39 65
        E 0 90 2e 67
        E 66 80 38 65
        E 0 80 2e 65
        E 318 80 39 64
        E 0 80 33 66
        E 0 90 3a 64
        E 0 90 33 66
        E 130 90 3a 67
        E 0 90 2f 65
        E 64 80 39 65
        E 0 80 2e 67
        E 450 90 3c 65
        E 0 90 30 65
        E 61 80 3a 67
        E 0 80 2f 65
        E 450 80 3a 64
        E 0 80 33 66
        E 0 90 3a 64
        E 0 90 35 63
        E 58 80 3c 65
        E 0 80 30 65
        E 398 90 2a 67
        E 0 90 29 65
        E 455 90 2c 65
        E 1 90 2a 65
        E 59 80 2a 67
        E 0 80 29 65
        E 57 80 3a 64
        E 0 80 35 63
        E 0 90 3a 66
        E 0 90 35 63
        E 343 90 2d 65
        E 0 90 2a 67
        E 54 80 2c 65
        E 0 80 2a 65
        E 401 90 2e 67
        E 0 90 2b 65
        E 60 80 2d 65
        E 1 80 2a 67
        E 172 80 3a 66
        E 0 80 35 63
        E 0 90 3a 66
        E 0 90 34 64
        E 223 90 30 65
        E 0 90 2c 65
        E 62 80 2e 67
        E 0 80 2b 65
        E 395 90 31 67
        E 0 90 2c 67
        E 60 80 30 65
        E 0 80 2c 65
        E 285 80 3a 66
        E 0 80 34 64
        E 1 90 3c 64
        E 0 90 35 63
        E 115 90 33 65
        E 1 90 2d 65
        E 52 80 31 67
        E 0 80 2c 67
        E 403 90 34 65
        E 0 90 2e 65
        E 58 80 33 65
        E 0 80 2d 65
        E 402 80 3c 64
        E 0 80 35 63
        E 0 90 36 65
        E 0 90 2e 67
        E 0 90 3b 64
        E 0 90 35 63
        E 44 80 34 65
        E 0 80 2e 65
        E 318 90 37 65
        E 0 90 2f 65
        E 46 80 36 65
        E 0 80 2e 67
        E 320 90 38 67
        E 0 90 30 65
        E 45 80 37 65
        E 0 80 2f 65
        E 50 80 3b 64
        E 0 80 35 63
        E 0 90 3b 64
        E 0 90 35 64
        E 271 90 3a 65
        E 0 90 31 65
        E 44 80 38 67
        E 0 80 30 65
        E 321 90 3b 65
        E 0 90 31 67
        E 45 80 3a 65
        E 0 80 31 65
        E 139 80 3b 64
        E 0 80 35 64
        E 0 90 3c 63
        E 0 90 35 64
        E 181 90 3d 65
        E 0 90 32 65
        E 48 80 3b 65
        E 0 80 31 67
        E 316 90 3e 65
        E 0 90 33 65
        E 48 80 3d 65
        E 0 80 32 65
        E 233 80 3c 63
        E 0 80 35 64
        E 0 90 3c 63
        E 0 90 36 64
        E 87 90 3f 67
        E 0 90 33 67
        E 46 80 3e 65
        E 0 80 33 65
        E 324 90 41 65
        E 0 90 34 65
        E 44 80 3f 67
        E 0 80 33 67
        E 319 80 3c 63
        E 0 80 36 64
        E 0 90 2c 65
        E 1 90 3b 64
        E 0 90 36 66
        E 35 80 41 65
        E 0 80 34 65
        E 255 90 2e 67
        E 0 90 2c 67
        E 36 80 2c 65
        E 258 90 30 65
        E 0 90 2d 65
        E 37 80 2e 67
        E 0 80 2c 67
        E 37 80 3b 64
        E 0 80 36 66
        E 0 90 3c 63
        E 0 90 36 66
        E 219 90 31 67
        E 0 90 2e 65
        E 35 80 30 65
        E 0 80 2d 65
        E 258 90 33 65
        E 0 90 2e 67
        E 35 80 31 67
        E 0 80 2e 65
        E 112 80 3c 63
        E 0 80 36 66
        E 0 90 3c 64
        E 0 90 36 64
        E 145 90 34 65
        E 0 90 2f 65
        E 35 80 33 65
        E 0 80 2e 67
        E 258 90 36 65
        E 0 90 30 65
        E 35 80 34 65
        E 0 80 2f 65
        E 185 80 3c 64
        E 0 80 36 64
        E 0 90 3c 64
        E 1 90 36 66
        E 72 90 37 65
        E 0 90 31 65
        E 34 80 36 65
        E 0 80 30 65
        E 258 90 38 67
        E 0 90 31 67
        E 37 80 37 65
        E 0 80 31 65
        E 256 80 3c 64
        E 0 80 36 66
        E 0 90 3a 65
        E 1 90 32 65
        E 0 90 3d 64
        E 0 90 36 66
        E 28 80 38 67
        E 0 80 31 67
        E 206 90 3b 65
        E 0 90 33 65
        E 29 80 3a 65
        E 0 80 32 65
        E 207 90 3d 65
        E 0 90 33 67
        E 27 80 3b 65
        E 0 80 33 65
        E 31 80 3d 64
        E 0 80 36 66
        E 0 90 3d 64
        E 0 90 37 64
        E 172 90 3e 65
        E 1 90 34 65
        E 29 80 3d 65
        E 0 80 33 67
        E 209 90 3f 67
        E 0 90 35 65
        E 29 80 3e 65
        E 0 80 34 65
        E 89 80 3d 64
        E 0 80 37 64
        E 0 90 3d 66
        E 0 90 36 64
        E 115 90 41 65
        E 0 90 36 65
        E 31 80 3f 67
        E 0 80 35 65
        E 203 90 42 67
        E 0 90 36 67
        E 31 80 41 65
        E 0 80 36 65
        E 149 80 3d 66
        E 1 80 36 64
        E 0 90 3d 66
        E 0 90 37 64
        E 58 90 44 65
        E 0 90 37 65
        E 29 80 42 67
        E 0 80 36 67
        E 203 90 45 65
        E 1 90 38 65
        E 28 80 44 65
        E 0 80 37 65
        E 206 80 3d 66
        E 0 80 37 64
        E 0 90 44 67
        E 0 90 37 65
        E 0 90 45 65
        E 0 90 38 65
        E 0 90 44 66
        E 0 90 3d 66
        E 0 90 39 64
        E 1 90 37 64
        E 103 80 45 65
        E 0 80 38 65
        E 3738 80 44 67
        E 0 80 37 65
        E 0 80 45 65
        E 0 80 38 65
        E 1 80 44 66
        E 0 80 3d 66
        E 0 80 39 64
        E 0 80 37 64
        E 0 90 44 66
        E 0 90 3d 66
        E 0 90 39 64
        E 0 90 37 64
        E 1027 80 44 66
        E 0 80 3d 66
        E 1 80 39 64
        E 0 80 37 64
        E 0 90 3e 65
        E 0 90 46 66
        E 0 90 38 64
        E 0 90 35 64
        E 1027 80 3e 65
        E 0 80 46 66
        E 0 80 38 64
        E 0 80 35 64
        E 0 90 47 64
        E 0 90 41 63
        E 1 90 37 64
        E 0 90 33 66
        E 1028 80 47 64
        E 0 80 41 63
        E 0 80 37 64
        E 0 80 33 66
        E 1 90 36 67
        E 0 90 48 63
        E 0 90 40 64
        E 0 90 33 64
        E 1029 80 36 67
        E 0 80 48 63
        E 0 80 40 64
        E 0 80 33 64
        E 0 90 3f 67
        E 0 90 48 64
        E 0 90 36 64
        E 0 90 32 64
        E 2055 80 3f 67
        E 0 80 48 64
        E 0 80 36 64
        E 0 80 32 64
        E 2056 90 43 65
        E 0 90 3b 65
        E 1 90 3c 64
        E 0 90 36 64
        E 824 80 43 65
        E 0 80 3b 65
        E 0 80 3c 64
        E 0 80 36 64
        E 0 90 44 65
        E 0 90 3a 67
        E 0 90 3d 64
        E 0 90 35 63
        E 825 80 44 65
        E 0 80 3a 67
        E 0 80 3d 64
        E 0 80 35 63
        E 0 90 44 67
        E 0 90 3a 65
        E 0 90 3d 66
        E 0 90 33 64
        E 819 80 44 67
        E 0 80 3a 65
        E 0 80 3d 66
        E 1 80 33 64
        E 0 90 45 65
        E 0 90 32 65
        E 0 90 3f 66
        E 0 90 37 64
        E 825 80 45 65
        E 0 80 32 65
        E 0 80 3f 66
        E 1 80 37 64
        E 0 90 46 65
        E 0 90 40 64
        E 0 90 36 66
        E 0 90 30 64
        E 656 80 46 65
        E 0 80 40 64
        E 0 80 36 66
        E 0 80 30 64
        E 1 90 48 63
        E 0 90 41 63
        E 0 90 36 64
        E 1 90 2e 66
        E 655 80 48 63
        E 0 80 41 63
        E 1 80 36 64
        E 0 80 2e 66
        E 0 90 43 65
        E 0 90 49 66
        E 0 90 35 64
        E 0 90 2d 64
        E 657 80 43 65
        E 0 80 49 66
        E 0 80 35 64
        E 0 80 2d 64
        E 0 90 48 65
        E 0 90 44 67
        E 0 90 36 65
        E 0 90 4d 64
        E 1 90 2f 64
        E 660 80 48 65
        E 0 80 44 67
        E 0 80 36 65
        E 0 80 4d 64
        E 0 80 2f 64
        E 0 90 4b 65
        E 0 90 42 67
        E 1 90 3d 65
        E 0 90 4d 63
        E 0 90 43 64
        E 0 90 2d 64
        E 0 90 35 63
        E 525 80 4b 65
        E 1 80 42 67
        E 0 80 3d 65
        E 0 80 4d 63
        E 0 80 43 64
        E 0 80 2d 64
        E 0 80 35 63
        E 0 90 4d 65
        E 0 90 50 64
        E 0 90 46 66
        E 0 90 40 64
        E 0 90 3c 64
        E 0 90 32 64
        E 529 80 4d 65
        E 0 80 50 64
        E 0 80 46 66
        E 0 80 40 64
        E 0 80 3c 64
        E 0 80 32 64
        E 1 90 52 65
        E 0 90 44 67
        E 0 90 3f 67
        E 0 90 4e 66
        E 0 90 49 66
        E 0 90 30 64
        E 528 80 52 65
        E 0 80 44 67
        E 0 80 3f 67
        E 0 80 4e 66
        E 0 80 49 66
        E 0 80 30 64
        E 0 90 43 65
        E 0 90 33 65
        E 1 90 54 64
        E 0 90 46 66
        E 0 90 41 63
        E 0 90 30 63
        E 7679 80 43 65
        E 0 80 33 65
        E 0 80 54 64
        E 0 80 46 66
        E 0 80 41 63
        E 0 80 30 63
        E 0 90 52 65
        E 0 90 3e 65
        E 0 90 33 67
        E 0 90 48 63
        E 0 90 43 64
        E 0 90 3c 64
        E 0 90 2c 66
        E 3838 80 52 65
        E 0 80 3e 65
        E 1 80 33 67
        E 0 80 48 63
        E 0 80 43 64
        E 0 80 3c 64
        E 0 80 2c 66
        E 0 90 54 65
        E 0 90 3e 65
        E 0 90 4f 64
        E 1 90 41 64
        E 0 90 30 63
        E 3838 80 54 65
        E 0 80 3e 65
        E 0 80 4f 64
        E 0 80 41 64
        E 0 80 30 63
        E 0 90 4f 65
        E 0 90 41 65
        E 0 90 45 65
        E 1 90 52 66
        E 0 90 48 64
        E 0 90 33 64
        E 3841 80 4f 65
        E 0 80 41 65
        E 0 80 45 65
        E 0 80 52 66
        E 0 80 48 64
        E 0 80 33 64
        E 0 90 43 65
        E 0 90 33 65
        E 0 90 54 64
        E 0 90 46 66
        E 0 90 41 63
        E 0 90 30 63
        E 7677 80 43 65
        E 1 80 33 65
        E 0 80 54 64
        E 0 80 46 66
        E 0 80 41 63
        E 0 80 30 63
        E 0 90 52 65
        E 0 90 3e 65
        E 0 90 33 67
        E 0 90 48 63
        E 0 90 43 64
        E 1 90 3c 64
        E 0 90 2c 66
        E 3840 80 52 65
        E 0 80 3e 65
        E 0 80 33 67
        E 0 80 48 63
        E 1 80 43 64
        E 0 80 3c 64
        E 1 80 2c 66
        E 0 90 54 65
        E 0 90 3e 65
        E 0 90 4f 64
        E 0 90 41 64
        E 0 90 30 63
        E 3836 80 54 65
        E 0 80 3e 65
        E 0 80 4f 64
        E 0 80 41 64
        E 1 80 30 63
        E 0 90 4f 65
        E 0 90 41 65
        E 0 90 45 65
        E 0 90 52 66
        E 1 90 48 64
        E 0 90 33 64
        E 3840 80 4f 65
        E 0 80 41 65
        E 1 80 45 65
        E 0 80 52 66
        E 0 80 48 64
        E 0 80 33 64
        E 0 90 43 65
        E 1 90 33 65
        E 0 90 54 64
        E 0 90 46 66
        E 0 90 41 63
        E 0 90 30 63
        E 7678 80 43 65
        E 0 80 33 65
        E 0 80 54 64
        E 0 80 46 66
        E 0 80 41 63
        E 0 80 30 63
        E 1 90 30 63
        E 239 80 30 63
        E 0 90 33 64
        E 241 80 33 64
        E 0 90 36 64
        E 238 80 36 64
        E 0 90 39 64
        E 242 80 39 64
        E 0 90 3c 64
        E 237 80 3c 64
        E 0 90 3f 66
        E 240 80 3f 66
        E 0 90 30 63
        E 0 90 42 66
        E 240 80 30 63
        E 0 80 42 66
        E 0 90 33 64
        E 0 90 46 64
        E 241 80 33 64
        E 0 80 46 64
        E 0 90 36 64
        E 0 90 49 64
        E 242 80 36 64
        E 0 80 49 64
        E 0 90 39 64
        E 0 90 4c 64
        E 241 80 39 64
        E 0 80 4c 64
        E 0 90 3c 64
        E 0 90 4f 64
        E 236 80 3c 64
        E 0 80 4f 64
        E 0 90 3f 66
        E 0 90 52 66
        E 240 80 3f 66
        E 0 80 52 66
        E 1 90 30 63
        E 0 90 42 66
        E 0 90 4e 66
        E 240 80 30 63
        E 0 80 42 66
        E 0 80 4e 66
        E 0 90 33 64
        E 0 90 46 64
        E 0 90 4b 64
        E 240 80 33 64
        E 0 80 46 64
        E 0 80 4b 64
        E 0 90 36 64
        E 0 90 49 64
        E 0 90 47 64
        E 241 80 36 64
        E 0 80 49 64
        E 0 80 47 64
        E 0 90 39 64
        E 0 90 4c 64
        E 0 90 43 64
        E 238 80 39 64
        E 0 80 4c 64
        E 0 80 43 64
        E 0 90 3c 64
        E 0 90 4f 64
        E 1 90 3f 66
        E 239 80 3c 64
        E 0 80 4f 64
        E 0 80 3f 66
        E 0 90 3f 66
        E 1 90 52 66
        E 0 90 3c 63
        E 240 80 3f 66
        E 0 80 52 66
        E 0 80 3c 63
        E 0 90 30 63
        E 0 90 42 66
        E 0 90 4e 66
        E 0 90 38 64
        E 238 80 30 63
        E 0 80 42 66
        E 0 80 4e 66
        E 0 80 38 64
        E 0 90 33 64
        E 0 90 46 64
        E 0 90 4b 64
        E 1 90 34 64
        E 244 80 33 64
        E 0 80 46 64
        E 0 80 4b 64
        E 0 80 34 64
        E 0 90 36 64
        E 0 90 49 64
        E 0 90 47 64
        E 0 90 30 64
        E 238 80 36 64
        E 0 80 49 64
        E 0 80 47 64
        E 0 80 30 64
        E 0 90 39 64
        E 0 90 4c 64
        E 0 90 43 64
        E 0 90 2c 66
        E 238 80 39 64
        E 0 80 4c 64
        E 0 80 43 64
        E 0 80 2c 66
        E 0 90 3c 64
        E 0 90 4f 64
        E 0 90 3f 66
        E 1 90 29 63
        E 240 80 3c 64
        E 0 80 4f 64
        E 0 80 3f 66
        E 0 80 29 63
        E 0 90 3f 66
        E 1 90 52 66
        E 0 90 3c 63
        E 0 90 25 64
        E 241 80 3f 66
        E 1 80 52 66
        E 0 80 3c 63
        E 0 80 25 64
        E 0 90 42 66
        E 0 90 4e 66
        E 0 90 38 64
        E 0 90 33 64
        E 239 80 42 66
        E 0 80 4e 66
        E 0 80 38 64
        E 0 80 33 64
        E 0 90 46 64
        E 0 90 4b 64
        E 0 90 34 64
        E 0 90 37 64
        E 239 80 46 64
        E 0 80 4b 64
        E 0 80 34 64
        E 0 80 37 64
        E 0 90 49 64
        E 0 90 47 64
        E 1 90 30 64
        E 0 90 3c 63
        E 241 80 49 64
        E 0 80 47 64
        E 0 80 30 64
        E 0 80 3c 63
        E 0 90 4c 64
        E 0 90 43 64
        E 0 90 2c 66
        E 0 90 40 64
        E 237 80 4c 64
        E 0 80 43 64
        E 0 80 2c 66
        E 0 80 40 64
        E 0 90 4f 64
        E 0 90 3f 66
        E 0 90 29 63
        E 0 90 44 66
        E 240 80 4f 64
        E 0 80 3f 66
        E 0 80 29 63
        E 0 80 44 66
        E 0 90 52 66
        E 0 90 3c 63
        E 0 90 25 64
        E 0 90 49 64
        E 242 80 52 66
        E 0 80 3c 63
        E 0 80 25 64
        E 0 80 49 64
        E 0 90 4e 66
        E 0 90 38 64
        E 0 90 33 64
        E 0 90 4d 64
        E 240 80 4e 66
        E 1 80 38 64
        E 0 80 33 64
        E 0 80 4d 64
        E 0 90 4b 64
        E 0 90 34 64
        E 0 90 37 64
        E 0 90 52 64
        E 238 80 4b 64
        E 0 80 34 64
        E 0 80 37 64
        E 0 80 52 64
        E 0 90 47 64
        E 0 90 30 64
        E 1 90 3c 63
        E 0 90 4d 63
        E 239 80 47 64
        E 0 80 30 64
        E 0 80 3c 63
        E 0 80 4d 63
        E 1 90 43 64
        E 0 90 2c 66
        E 0 90 40 64
        E 0 90 48 63
        E 239 80 43 64
        E 0 80 2c 66
        E 0 80 40 64
        E 0 80 48 63
        E 1 90 3f 66
        E 0 90 29 63
        E 0 90 44 66
        E 0 90 42 66
        E 240 80 3f 66
        E 0 80 29 63
        E 0 80 44 66
        E 0 80 42 66
        E 1 90 3c 63
        E 0 90 25 64
        E 0 90 49 64
        E 0 90 3d 66
        E 238 80 3c 63
        E 0 80 25 64
        E 0 80 49 64
        E 0 80 3d 66
        E 0 90 38 64
        E 0 90 33 64
        E 0 90 4d 64
        E 0 90 38 66
        E 241 80 38 64
        E 0 80 33 64
        E 0 80 4d 64
        E 1 80 38 66
        E 0 90 34 64
        E 0 90 37 64
        E 0 90 52 64
        E 0 90 33 66
        E 240 80 34 64
        E 0 80 37 64
        E 0 80 52 64
        E 0 80 33 66
        E 0 90 30 64
        E 0 90 3c 63
        E 0 90 4d 63
        E 0 90 2e 66
        E 236 80 30 64
        E 0 80 3c 63
        E 0 80 4d 63
        E 1 80 2e 66
        E 0 90 2c 66
        E 0 90 40 64
        E 0 90 48 63
        E 0 90 29 64
        E 242 80 2c 66
        E 0 80 40 64
        E 0 80 48 63
        E 0 80 29 64
        E 0 90 29 63
        E 0 90 44 66
        E 0 90 42 66
        E 0 90 24 64
        E 238 80 29 63
        E 0 80 44 66
        E 0 80 42 66
        E 0 80 24 64
        E 0 90 25 64
        E 1 90 49 64
        E 0 90 3d 66
        E 0 90 36 64
        E 241 80 25 64
        E 0 80 49 64
        E 0 80 3d 66
        E 0 80 36 64
        E 1 90 33 64
        E 0 90 4d 64
        E 0 90 38 66
        E 0 90 3c 63
        E 240 80 33 64
        E 0 80 4d 64
        E 0 80 38 66
        E 0 80 3c 63
        E 0 90 37 64
        E 0 90 52 64
        E 0 90 33 66
        E 0 90 41 64
        E 236 80 37 64
        E 0 80 52 64
        E 0 80 33 66
        E 1 80 41 64
        E 0 90 3c 63
        E 0 90 4d 63
        E 0 90 2e 66
        E 0 90 47 64
        E 241 80 3c 63
        E 0 80 4d 63
        E 1 80 2e 66
        E 0 80 47 64
        E 0 90 40 64
        E 0 90 48 63
        E 0 90 29 64
        E 0 90 4d 63
        E 238 80 40 64
        E 0 80 48 63
        E 0 80 29 64
        E 0 80 4d 63
        E 0 90 44 66
        E 0 90 42 66
        E 0 90 24 64
        E 0 90 52 66
        E 242 80 44 66
        E 0 80 42 66
        E 0 80 24 64
        E 0 80 52 66
        E 1 90 49 64
        E 0 90 3d 66
        E 0 90 36 64
        E 0 90 4c 64
        E 239 80 49 64
        E 0 80 3d 66
        E 0 80 36 64
        E 0 80 4c 64
        E 1 90 4d 64
        E 0 90 38 66
        E 0 90 3c 63
        E 0 90 46 64
        E 238 80 4d 64
        E 1 80 38 66
        E 0 80 3c 63
        E 0 80 46 64
        E 1 90 52 64
        E 0 90 33 66
        E 0 90 41 64
        E 0 90 3f 66
        E 236 80 52 64
        E 0 80 33 66
        E 1 80 41 64
        E 0 80 3f 66
        E 0 90 4d 63
        E 0 90 2e 66
        E 0 90 47 64
        E 0 90 39 64
        E 242 80 4d 63
        E 0 80 2e 66
        E 0 80 47 64
        E 0 80 39 64
        E 0 90 48 63
        E 1 90 29 64
        E 0 90 4d 63
        E 0 90 33 64
        E 239 80 48 63
        E 0 80 29 64
        E 0 80 4d 63
        E 0 80 33 64
        E 0 90 42 66
        E 0 90 24 64
        E 1 90 52 66
        E 0 90 2c 66
        E 237 80 42 66
        E 1 80 24 64
        E 0 80 52 66
        E 0 80 2c 66
        E 0 90 3d 66
        E 0 90 36 64
        E 0 90 4c 64
        E 1 90 26 64
        E 239 80 3d 66
        E 0 80 36 64
        E 0 80 4c 64
        E 0 80 26 64
        E 0 90 38 66
        E 0 90 3c 63
        E 0 90 46 64
        E 0 90 39 64
        E 240 80 38 66
        E 0 80 3c 63
        E 1 80 46 64
        E 0 80 39 64
        E 0 90 33 66
        E 0 90 41 64
        E 0 90 3f 66
        E 0 90 40 64
        E 239 80 33 66
        E 0 80 41 64
        E 0 80 3f 66
        E 1 80 40 64
        E 0 90 2e 66
        E 0 90 47 64
        E 0 90 39 64
        E 0 90 47 64
        E 238 80 2e 66
        E 0 80 47 64
        E 0 80 39 64
        E 1 80 47 64
        E 0 90 29 64
        E 0 90 4d 63
        E 1 90 33 64
        E 0 90 4e 64
        E 238 80 29 64
        E 0 80 4d 63
        E 0 80 33 64
        E 0 80 4e 64
        E 1 90 24 64
        E 0 90 52 66
        E 0 90 2c 66
        E 0 90 46 66
        E 241 80 24 64
        E 0 80 52 66
        E 1 80 2c 66
        E 0 80 46 66
        E 1 90 36 64
        E 0 90 4c 64
        E 0 90 26 64
        E 0 90 3f 64
        E 235 80 36 64
        E 0 80 4c 64
        E 0 80 26 64
        E 0 80 3f 64
        E 1 90 3c 63
        E 0 90 46 64
        E 0 90 39 64
        E 1 90 37 64
        E 238 80 3c 63
        E 0 80 46 64
        E 0 80 39 64
        E 0 80 37 64
        E 1 90 41 64
        E 0 90 3f 66
        E 0 90 40 64
        E 0 90 30 63
        E 242 80 41 64
        E 0 80 3f 66
        E 0 80 40 64
        E 0 80 30 63
        E 0 90 47 64
        E 0 90 39 64
        E 0 90 47 64
        E 0 90 28 64
        E 238 80 47 64
        E 0 80 39 64
        E 1 80 47 64
        E 0 80 28 64
        E 0 90 4d 63
        E 1 90 33 64
        E 0 90 4e 64
        E 0 90 3c 64
        E 238 80 4d 63
        E 0 80 33 64
        E 1 80 4e 64
        E 0 80 3c 64
        E 0 90 52 66
        E 1 90 2c 66
        E 0 90 46 66
        E 0 90 44 66
        E 239 80 52 66
        E 0 80 2c 66
        E 0 80 46 66
        E 0 80 44 66
        E 0 90 4c 64
        E 0 90 26 64
        E 0 90 3f 64
        E 0 90 4d 63
        E 238 80 4c 64
        E 0 80 26 64
        E 0 80 3f 64
        E 0 80 4d 63
        E 0 90 46 64
        E 0 90 39 64
        E 1 90 37 64
        E 0 90 44 64
        E 242 80 46 64
        E 0 80 39 64
        E 0 80 37 64
        E 0 80 44 64
        E 0 90 3f 66
        E 0 90 40 64
        E 0 90 30 63
        E 0 90 3b 64
        E 238 80 3f 66
        E 0 80 40 64
        E 1 80 30 63
        E 0 80 3b 64
        E 0 90 39 64
        E 1 90 47 64
        E 0 90 28 64
        E 0 90 32 64
        E 239 80 39 64
        E 0 80 47 64
        E 0 80 28 64
        E 0 80 32 64
        E 0 90 33 64
        E 1 90 4e 64
        E 0 90 3c 64
        E 0 90 29 64
        E 239 80 33 64
        E 0 80 4e 64
        E 0 80 3c 64
        E 0 80 29 64
        E 0 90 2c 66
        E 0 90 46 66
        E 0 90 44 66
        E 0 90 3f 66
        E 238 80 2c 66
        E 0 80 46 66
        E 0 80 44 66
        E 0 80 3f 66
        E 0 90 26 64
        E 0 90 3f 64
        E 0 90 4d 63
        E 0 90 49 64
        E 242 80 26 64
        E 0 80 3f 64
        E 1 80 4d 63
        E 0 80 49 64
        E 0 90 39 64
        E 1 90 37 64
        E 0 90 44 64
        E 0 90 52 66
        E 237 80 39 64
        E 0 80 37 64
        E 0 80 44 64
        E 0 80 52 66
        E 0 90 40 64
        E 0 90 30 63
        E 0 90 3b 64
        E 0 90 48 64
        E 242 80 40 64
        E 0 80 30 63
        E 0 80 3b 64
        E 0 80 48 64
        E 0 90 47 64
        E 0 90 28 64
        E 1 90 32 64
        E 0 90 3e 64
        E 240 80 47 64
        E 0 80 28 64
        E 0 80 32 64
        E 0 80 3e 64
        E 0 90 4e 64
        E 0 90 3c 64
        E 0 90 29 64
        E 0 90 34 64
        E 236 80 4e 64
        E 0 80 3c 64
        E 0 80 29 64
        E 0 80 34 64
        E 1 90 46 66
        E 0 90 44 66
        E 0 90 3f 66
        E 0 90 2a 64
        E 239 80 46 66
        E 0 80 44 66
        E 0 80 3f 66
        E 0 80 2a 64
        E 0 90 3f 64
        E 0 90 4d 63
        E 0 90 49 64
        E 0 90 42 66
        E 241 80 3f 64
        E 0 80 4d 63
        E 0 80 49 64
        E 0 80 42 66
        E 0 90 37 64
        E 0 90 44 64
        E 0 90 52 66
        E 0 90 4d 64
        E 240 80 37 64
        E 0 80 44 64
        E 0 80 52 66
        E 1 80 4d 64
        E 0 90 30 63
        E 0 90 3b 64
        E 0 90 48 64
        E 0 90 42 64
        E 239 80 30 63
        E 0 80 3b 64
        E 1 80 48 64
        E 0 80 42 64
        E 0 90 28 64
        E 1 90 32 64
        E 0 90 3e 64
        E 0 90 36 66
        E 239 80 28 64
        E 0 80 32 64
        E 0 80 3e 64
        E 0 80 36 66
        E 0 90 3c 64
        E 0 90 29 64
        E 1 90 34 64
        E 0 90 2b 64
        E 239 80 3c 64
        E 0 80 29 64
        E 1 80 34 64
        E 0 80 2b 64
        E 0 90 44 66
        E 0 90 3f 66
        E 0 90 2a 64
        E 236 80 44 66
        E 0 80 3f 66
        E 0 80 2a 64
        E 0 90 4d 63
        E 0 90 49 64
        E 0 90 42 66
        E 242 80 4d 63
        E 0 80 49 64
        E 0 80 42 66
        E 0 90 44 64
        E 0 90 52 66
        E 0 90 4d 64
        E 240 80 44 64
        E 0 80 52 66
        E 0 80 4d 64
        E 0 90 3b 64
        E 0 90 48 64
        E 0 90 42 64
        E 241 80 3b 64
        E 0 80 48 64
        E 0 80 42 64
        E 0 90 32 64
        E 0 90 3e 64
        E 0 90 36 66
        E 239 80 32 64
        E 0 80 3e 64
        E 0 80 36 66
        E 0 90 29 64
        E 0 90 34 64
        E 0 90 2b 64
        E 242 80 29 64
        E 0 80 34 64
        E 0 80 2b 64
        E 0 90 3f 66
        E 0 90 2a 64
        E 0 90 30 63
        E 238 80 3f 66
        E 0 80 2a 64
        E 0 80 30 63
        E 0 90 49 64
        E 0 90 42 66
        E 0 90 30 64
        E 242 80 49 64
        E 0 80 42 66
        E 0 80 30 64
        E 0 90 52 66
        E 1 90 4d 64
        E 0 90 31 66
        E 239 80 52 66
        E 0 80 4d 64
        E 1 80 31 66
        E 0 90 2a 67
        E 0 90 48 64
        E 0 90 42 64
        E 0 90 33 66
        E 240 80 2a 67
        E 0 80 48 64
        E 0 80 42 64
        E 0 80 33 66
        E 0 90 2d 65
        E 0 90 3e 64
        E 0 90 36 66
        E 1 90 36 64
        E 237 80 2d 65
        E 0 80 3e 64
        E 0 80 36 66
        E 0 80 36 64
        E 0 90 30 65
        E 0 90 34 64
        E 0 90 2b 64
        E 0 90 39 64
        E 241 80 30 65
        E 0 80 34 64
        E 0 80 2b 64
        E 0 80 39 64
        E 1 90 34 65
        E 0 90 2a 64
        E 0 90 4f 64
        E 0 90 3d 64
        E 237 80 34 65
        E 0 80 2a 64
        E 0 80 4f 64
        E 0 80 3d 64
        E 0 90 38 67
        E 0 90 42 66
        E 0 90 48 64
        E 0 90 41 64
        E 241 80 38 67
        E 0 80 42 66
        E 0 80 48 64
        E 0 80 41 64
        E 0 90 3d 67
        E 0 90 4d 64
        E 0 90 42 64
        E 0 90 46 66
        E 240 80 3d 67
        E 0 80 4d 64
        E 0 80 42 64
        E 0 80 46 66
        E 0 90 43 65
        E 0 90 42 64
        E 0 90 3c 64
        E 0 90 4c 64
        E 238 80 43 65
        E 0 80 42 64
        E 0 80 3c 64
        E 1 80 4c 64
        E 0 90 49 67
        E 0 90 36 66
        E 0 90 37 64
        E 0 90 52 66
        E 240 80 49 67
        E 0 80 36 66
        E 0 80 37 64
        E 0 80 52 66
        E 0 90 2b 64
        E 1 90 35 64
        E 0 90 33 64
        E 0 90 2d 64
        E 241 80 2b 64
        E 0 80 35 64
        E 0 80 33 64
        E 0 80 2d 64
        E 0 90 36 64
        E 1 90 2f 64
        E 0 90 2e 64
        E 239 80 36 64
        E 0 80 2f 64
        E 0 80 2e 64
        E 0 90 37 64
        E 1 90 2c 64
        E 0 90 2f 64
        E 240 80 37 64
        E 0 80 2c 64
        E 0 80 2f 64
        E 0 90 39 64
        E 0 90 29 64
        E 0 90 31 64
        E 240 80 39 64
        E 0 80 29 64
        E 0 80 31 64
        E 0 90 3a 67
        E 0 90 27 66
        E 0 90 33 66
        E 235 80 3a 67
        E 0 80 27 66
        E 0 80 33 66
        E 0 90 3d 67
        E 0 90 26 64
        E 0 90 36 66
        E 245 80 3d 67
        E 0 80 26 64
        E 0 80 36 66
        E 0 90 41 65
        E 0 90 25 66
        E 0 90 3a 66
        E 235 80 41 65
        E 0 80 25 66
        E 0 80 3a 66
        E 0 90 46 65
        E 1 90 52 64
        E 0 90 3f 64
        E 243 80 46 65
        E 0 80 52 64
        E 0 80 3f 64
        E 1 90 4b 65
        E 0 90 4b 64
        E 0 90 44 64
        E 238 80 4b 65
        E 0 80 4b 64
        E 0 80 44 64
        E 0 90 50 67
        E 0 90 44 66
        E 0 90 49 66
        E 236 80 50 67
        E 0 80 44 66
        E 0 80 49 66
        E 1 90 4b 65
        E 0 90 3f 64
        E 0 90 50 64
        E 241 80 4b 65
        E 1 80 3f 64
        E 0 80 50 64
        E 0 90 2e 66
        E 0 90 3a 64
        E 0 90 2a 66
        E 242 80 2e 66
        E 0 80 3a 64
        E 0 80 2a 66
        E 0 90 2f 64
        E 0 90 35 64
        E 0 90 2b 64
        E 238 80 2f 64
        E 0 80 35 64
        E 0 80 2b 64
        E 0 90 30 64
        E 1 90 31 66
        E 0 90 2c 66
        E 239 80 30 64
        E 0 80 31 66
        E 1 80 2c 66
        E 0 90 32 64
        E 0 90 2e 66
        E 240 80 32 64
        E 0 80 2e 66
        E 0 90 35 63
        E 1 90 2c 64
        E 0 90 31 64
        E 237 80 35 63
        E 0 80 2c 64
        E 1 80 31 64
        E 0 90 38 64
        E 0 90 2a 64
        E 0 90 34 64
        E 240 80 38 64
        E 0 80 2a 64
        E 0 80 34 64
        E 0 90 3c 63
        E 0 90 29 63
        E 0 90 38 64
        E 242 80 3c 63
        E 0 80 29 63
        E 0 80 38 64
        E 0 90 40 64
        E 0 90 28 64
        E 1 90 3c 64
        E 237 80 40 64
        E 0 80 28 64
        E 0 80 3c 64
        E 0 90 45 64
        E 1 90 54 64
        E 0 90 41 64
        E 240 80 45 64
        E 0 80 54 64
        E 0 80 41 64
        E 0 90 4b 64
        E 0 90 4d 64
        E 0 90 47 64
        E 238 80 4b 64
        E 0 80 4d 64
        E 1 80 47 64
        E 0 90 51 64
        E 0 90 47 64
        E 0 90 4d 64
        E 239 80 51 64
        E 0 80 47 64
        E 1 80 4d 64
        E 0 90 41 64
        E 0 90 54 64
        E 240 80 41 64
        E 1 80 54 64
        E 0 90 2c 64
        E 0 90 3c 64
        E 0 90 28 64
        E 241 80 2c 64
        E 0 80 3c 64
        E 0 80 28 64
        E 0 90 38 64
        E 1 90 29 63
        E 240 80 38 64
        E 0 80 29 63
        E 0 90 2e 64
        E 0 90 34 64
        E 0 90 2a 64
        E 238 80 2e 64
        E 0 80 34 64
        E 0 80 2a 64
        E 1 90 30 63
        E 0 90 31 64
        E 0 90 2c 64
        E 239 80 30 63
        E 1 80 31 64
        E 0 80 2c 64
        E 0 90 32 64
        E 0 90 2e 66
        E 238 80 32 64
        E 0 80 2e 66
        E 0 90 35 64
        E 0 90 2c 66
        E 0 90 31 66
        E 240 80 35 64
        E 0 80 2c 66
        E 1 80 31 66
        E 0 90 39 64
        E 0 90 2b 64
        E 0 90 35 64
        E 239 80 39 64
        E 0 80 2b 64
        E 0 80 35 64
        E 0 90 2a 66
        E 1 90 3a 64
        E 238 80 2a 66
        E 0 80 3a 64
        E 0 90 46 65
        E 0 90 50 64
        E 1 90 3f 64
        E 240 80 46 65
        E 0 80 50 64
        E 0 80 3f 64
        E 1 90 4c 65
        E 0 90 49 66
        E 1 90 44 66
        E 237 80 4c 65
        E 0 80 49 66
        E 0 80 44 66
        E 0 90 52 65
        E 1 90 44 64
        E 0 90 4b 64
        E 242 80 52 65
        E 0 80 44 64
        E 0 80 4b 64
        E 0 90 3f 64
        E 0 90 52 64
        E 240 80 3f 64
        E 0 80 52 64
        E 0 90 2c 67
        E 1 90 3a 66
        E 0 90 25 66
        E 240 80 2c 67
        E 0 80 3a 66
        E 0 80 25 66
        E 0 90 2d 65
        E 0 90 36 66
        E 0 90 26 64
        E 238 80 2d 65
        E 0 80 36 66
        E 0 80 26 64
        E 0 90 2e 67
        E 0 90 33 66
        E 0 90 27 66
        E 240 80 2e 67
        E 0 80 33 66
        E 0 80 27 66
        E 0 90 30 65
        E 0 90 31 64
        E 0 90 29 64
        E 239 80 30 65
        E 0 80 31 64
        E 0 80 29 64
        E 0 90 33 65
        E 0 90 2f 64
        E 0 90 2c 64
        E 238 80 33 65
        E 0 80 2f 64
        E 0 80 2c 64
        E 0 90 36 65
        E 0 90 2e 64
        E 0 90 2f 64
        E 244 80 36 65
        E 0 80 2e 64
        E 0 80 2f 64
        E 0 90 3a 65
        E 0 90 2d 64
        E 0 90 33 64
        E 239 80 3a 65
        E 0 80 2d 64
        E 0 80 33 64
        E 0 90 3e 65
        E 0 90 52 66
        E 0 90 37 64
        E 238 80 3e 65
        E 0 80 52 66
        E 0 80 37 64
        E 0 90 43 65
        E 0 90 4c 64
        E 0 90 3c 64
        E 243 80 43 65
        E 0 80 4c 64
        E 0 80 3c 64
        E 0 90 49 65
        E 0 90 46 66
        E 0 90 42 64
        E 238 80 49 65
        E 0 80 46 66
        E 0 80 42 64
        E 0 90 4f 65
        E 0 90 40 64
        E 0 90 41 64
        E 0 90 48 64
        E 240 80 4f 65
        E 0 80 40 64
        E 0 80 41 64
        E 0 80 48 64
        E 0 90 40 65
        E 1 90 50 65
        E 0 90 3d 64
        E 0 90 4f 64
        E 242 80 40 65
        E 0 80 50 65
        E 0 80 3d 64
        E 0 80 4f 64
        E 0 90 4c 65
        E 0 90 3d 64
        E 0 90 39 64
        E 238 80 4c 65
        E 0 80 3d 64
        E 0 80 39 64
        E 0 90 45 65
        E 0 90 49 65
        E 0 90 36 64
        E 241 80 45 65
        E 0 80 49 65
        E 0 80 36 64
        E 0 90 46 67
        E 0 90 37 64
        E 0 90 33 66
        E 239 80 46 67
        E 0 80 37 64
        E 0 80 33 66
        E 0 90 44 67
        E 0 90 35 64
        E 0 90 31 66
        E 241 80 44 67
        E 0 80 35 64
        E 0 80 31 66
        E 0 90 3f 67
        E 0 90 43 65
        E 0 90 30 64
        E 241 80 3f 67
        E 0 80 43 65
        E 0 80 30 64
        E 0 90 30 63
        E 238 80 30 63
        E 0 90 51 65
        E 0 90 42 64
        E 0 90 32 64
        E 238 80 42 64
        E 0 80 32 64
        E 0 90 52 67
        E 1 90 4f 65
        E 0 90 54 64
        E 0 90 35 63
        E 242 80 51 65
        E 0 80 35 63
        E 0 90 4a 65
        E 0 90 47 64
        E 0 90 37 64
        E 240 80 52 67
        E 0 80 4f 65
        E 0 80 54 64
        E 0 80 47 64
        E 1 80 37 64
        E 0 90 50 67
        E 0 90 54 65
        E 0 90 4f 64
        E 0 90 3a 64
        E 238 80 4a 65
        E 0 80 3a 64
        E 0 90 43 65
        E 0 90 4c 64
        E 0 90 3c 64
        E 242 80 50 67
        E 0 80 54 65
        E 0 80 4f 64
        E 0 80 4c 64
        E 1 80 3c 64
        E 0 90 4d 65
        E 0 90 4f 65
        E 0 90 48 64
        E 0 90 3f 64
        E 235 80 43 65
        E 0 80 3f 64
        E 0 90 3c 65
        E 0 90 51 64
        E 0 90 41 64
        E 239 80 4d 65
        E 0 80 4f 65
        E 0 80 48 64
        E 0 80 51 64
        E 0 80 41 64
        E 1 90 46 67
        E 0 90 48 65
        E 0 90 41 64
        E 0 90 48 63
        E 0 90 44 64
        E 241 80 46 67
        E 0 80 48 65
        E 1 80 3c 65
        E 0 80 41 64
        E 0 80 48 63
        E 0 80 44 64
        E 0 90 46 67
        E 1 90 48 65
        E 0 90 35 65
        E 0 90 41 64
        E 0 90 3e 64
        E 0 90 46 66
        E 240 80 46 67
        E 1 80 48 65
        E 0 80 41 64
        E 0 80 3e 64
        E 1 80 46 66
        E 0 90 3f 67
        E 0 90 41 65
        E 1 90 3a 66
        E 0 90 41 63
        E 0 90 49 64
        E 238 80 35 65
        E 0 80 41 63
        E 0 80 49 64
        E 0 90 2e 67
        E 0 90 43 64
        E 0 90 27 66
        E 242 80 3f 67
        E 0 80 41 65
        E 0 80 3a 66
        E 0 80 43 64
        E 0 80 27 66
        E 0 90 46 64
        E 0 90 2a 64
        E 235 80 2e 67
        E 0 80 46 64
        E 0 80 2a 64
        E 0 90 33 67
        E 0 90 48 64
        E 0 90 2c 66
        E 242 80 48 64
        E 0 80 2c 66
        E 0 90 4b 64
        E 0 90 2f 64
        E 238 80 33 67
        E 0 80 4b 64
        E 0 80 2f 64
        E 0 90 38 67
        E 0 90 4d 64
        E 1 90 31 66
        E 240 80 4d 64
        E 0 80 31 66
        E 0 90 50 64
        E 0 90 34 64
        E 240 80 38 67
        E 0 80 50 64
        E 0 80 34 64
        E 0 90 3d 67
        E 0 90 52 66
        E 0 90 36 66
        E 241 80 3d 67
        E 0 80 52 66
        E 0 80 36 66
        E 0 90 40 65
        E 0 90 49 64
        E 0 90 39 64
        E 236 80 40 65
        E 0 80 49 64
        E 0 80 39 64
        E 0 90 43 65
        E 0 90 40 64
        E 0 90 24 64
        E 242 80 43 65
        E 0 80 40 64
        E 0 80 24 64
        E 0 90 46 65
        E 0 90 27 64
        E 240 80 46 65
        E 0 80 27 64
        E 1 90 48 65
        E 0 90 39 64
        E 0 90 29 64
        E 241 80 48 65
        E 0 80 39 64
        E 0 80 29 64
        E 1 90 4b 65
        E 0 90 3c 63
        E 0 90 2c 64
        E 238 80 4b 65
        E 0 80 3c 63
        E 0 80 2c 64
        E 0 90 4d 65
        E 0 90 3e 64
        E 0 90 2e 66
        E 238 80 4d 65
        E 0 80 3e 64
        E 0 80 2e 66
        E 0 90 50 65
        E 1 90 41 63
        E 0 90 31 64
        E 240 80 50 65
        E 0 80 41 63
        E 0 80 31 64
        E 0 90 4a 65
        E 0 90 53 64
        E 0 90 33 66
        E 241 80 4a 65
        E 0 80 53 64
        E 0 80 33 66
        E 0 90 47 65
        E 0 90 50 66
        E 1 90 36 64
        E 240 80 47 65
        E 1 80 50 66
        E 0 80 36 64
        E 0 90 45 65
        E 0 90 4e 64
        E 0 90 36 66
        E 239 80 45 65
        E 0 80 4e 64
        E 0 90 42 67
        E 0 90 4b 66
        E 78 90 33 66
        E 161 80 42 67
        E 1 80 4b 66
        E 0 80 36 66
        E 0 90 40 65
        E 0 90 49 64
        E 156 90 30 64
        E 84 80 40 65
        E 0 80 49 64
        E 0 90 3d 67
        E 0 90 46 66
        E 77 80 33 66
        E 161 80 3d 67
        E 0 80 46 66
        E 1 90 3b 65
        E 0 90 44 64
        E 0 90 2d 64
        E 156 80 30 64
        E 83 80 3b 65
        E 0 80 44 64
        E 1 90 38 67
        E 0 90 41 64
        E 79 90 2a 64
        E 161 80 38 67
        E 0 80 41 64
        E 0 80 2d 64
        E 0 90 36 65
        E 0 90 3f 64
        E 159 90 27 64
        E 80 80 36 65
        E 0 80 3f 64
        E 0 90 33 67
        E 0 90 3c 64
        E 80 80 2a 64
        E 162 80 33 67
        E 0 80 3c 64
        E 0 90 31 65
        E 0 90 3a 64
        E 153 80 27 64
        E 87 80 31 65
        E 0 80 3a 64
        E 0 90 2e 67
        E 1 90 37 64
        E 237 80 2e 67
        E 0 80 37 64
        E 0 90 2c 65
        E 1 90 35 63
        E 239 80 2c 65
        E 1 80 35 63
        E 0 90 29 65
        E 0 90 32 64
        E 143 90 31 66
        E 97 80 29 65
        E 0 80 32 64
        E 0 90 30 63
        E 240 80 30 63
        E 0 90 2d 64
        E 44 90 2e 66
        E 98 80 31 66
        E 97 80 2d 64
        E 0 90 2a 66
        E 190 90 2b 64
        E 50 80 2a 66
        E 0 90 28 64
        E 47 80 2e 66
        E 195 80 28 64
        E 0 90 25 66
        E 91 90 28 64
        E 97 80 2b 64
        E 51 80 25 66
        E 0 90 24 64
        E 240 80 24 64
        E 0 90 25 66
        E 0 90 25 64
        E 93 80 28 64
        E 227 90 29 64
        E 62 90 2e 66
        E 97 80 25 66
        E 0 80 25 64
        E 157 90 2d 64
        E 128 90 2b 64
        E 34 80 29 64
        E 63 80 2e 66
        E 98 90 31 64
        E 159 80 2d 64
        E 33 90 28 64
        E 94 80 2b 64
        E 35 90 35 63
        E 161 80 31 64
        E 94 90 25 64
        E 62 90 31 64
        E 33 80 28 64
        E 128 80 35 63
        E 159 90 2d 64
        E 0 90 28 64
        E 95 80 25 64
        E 64 80 31 64
        E 160 90 29 64
        E 68 90 25 64
        E 96 80 2d 64
        E 0 80 28 64
        E 157 90 25 66
        E 127 90 28 64
        E 34 80 29 64
        E 64 80 25 64
        E 97 90 27 64
        E 157 80 25 66
        E 34 90 25 64
        E 95 80 28 64
        E 34 90 25 66
        E 162 80 27 64
        E 91 90 28 64
        E 63 90 27 64
        E 36 80 25 64
        E 126 80 25 66
        E 161 90 25 66
        E 0 90 27 66
        E 97 80 28 64
        E 62 80 27 64
        E 163 90 27 64
        E 60 90 25 64
        E 99 80 25 66
        E 0 80 27 66
        E 0 90 2e 67
        E 0 90 2e 65
        E 0 90 2a 67
        E 0 90 2a 65
        E 0 90 29 65
        E 159 90 25 66
        E 125 90 27 66
        E 34 80 27 64
        E 65 80 25 64
        E 98 80 2e 67
        E 0 80 2e 65
        E 0 80 2a 67
        E 0 80 2a 65
        E 1 80 29 65
        E 0 90 2e 67
        E 0 90 2e 65
        E 0 90 2a 67
        E 0 90 2a 65
        E 0 90 29 65
        E 0 90 27 64
        E 157 80 25 66
        E 31 90 25 64
        E 95 80 27 66
        E 35 90 25 66
        E 159 80 27 64
        E 98 90 27 66
        E 63 90 27 64
        E 31 80 25 64
        E 130 80 25 66
        E 161 90 25 66
        E 0 90 25 64
        E 95 80 27 66
        E 60 80 27 64
        E 161 90 27 64
        E 66 90 27 66
        E 97 80 25 66
        E 0 80 25 64
        E 156 90 25 66
        E 127 90 25 64
        E 34 80 27 64
        E 67 80 27 66
        E 97 80 2e 65
        E 0 90 27 64
        E 156 80 25 66
        E 32 90 28 64
        E 94 80 25 64
        E 33 90 25 66
        E 163 80 27 64
        E 93 90 24 64
        E 64 90 27 64
        E 33 80 28 64
        E 130 80 25 66
        E 163 80 2e 67
        E 0 80 2a 67
        E 0 80 2a 65
        E 1 80 29 65
        E 0 90 2e 67
        E 0 90 2e 65
        E 0 90 2a 67
        E 0 90 29 65
        E 0 90 25 66
        E 0 90 27 66
        E 93 80 24 64
        E 63 80 27 64
        E 161 90 27 64
        E 63 90 24 64
        E 96 80 25 66
        E 0 80 27 66
        E 159 90 25 66
        E 125 90 27 66
        E 37 80 27 64
        E 62 80 24 64
        E 99 90 2a 65
        E 0 90 27 64
        E 155 80 25 66
        E 31 90 25 64
        E 97 80 27 66
        E 33 90 25 66
        E 164 80 27 64
        E 92 90 28 64
        E 66 90 27 64
        E 32 80 25 64
        E 129 80 25 66
        E 161 80 29 65
        E 0 90 25 66
        E 0 90 25 64
        E 93 80 28 64
        E 63 80 27 64
        E 161 90 27 64
        E 63 90 27 66
        E 99 80 25 66
        E 0 80 25 64
        E 157 90 25 66
        E 127 90 25 64
        E 33 80 27 64
        E 65 80 27 66
        E 98 80 2a 67
        E 0 90 29 65
        E 0 90 27 64
        E 159 80 25 66
        E 29 90 26 64
        E 93 80 25 64
        E 37 90 25 66
        E 161 80 27 64
        E 0 90 2a 67
        E 95 90 25 64
        E 62 90 27 64
        E 35 80 26 64
        E 126 80 25 66
        E 166 80 2e 67
        E 0 80 2e 65
        E 0 80 2a 67
        E 0 80 2a 65
        E 0 80 29 65
        E 0 90 2e 67
        E 0 90 2e 65
        E 0 90 2a 67
        E 0 90 2a 65
        E 0 90 29 65
        E 0 90 25 66
        E 0 90 24 64
        E 92 80 25 64
        E 62 80 27 64
        E 0 90 26 64
        E 35 90 25 64
        E 47 80 25 66
        E 0 80 24 64
        E 0 90 27 64
        E 80 90 29 63
        E 0 90 27 66
        E 64 90 27 66
        E 16 80 26 64
        E 31 80 25 64
        E 48 80 27 64
        E 1 90 25 66
        E 0 90 2a 66
        E 77 80 29 63
        E 15 90 29 64
        E 53 80 27 66
        E 14 90 28 64
        E 0 90 2d 64
        E 0 90 2a 66
        E 83 80 25 66
        E 0 80 2a 66
        E 1 90 26 64
        E 43 90 2c 64
        E 33 80 27 66
        E 0 90 2b 64
        E 0 90 2f 64
        E 16 80 29 64
        E 64 80 28 64
        E 0 80 2d 64
        E 82 80 29 65
        E 0 80 26 64
        E 0 90 2e 64
        E 0 90 31 66
        E 0 90 29 63
        E 0 90 2e 66
        E 46 80 2c 64
        E 31 80 2b 64
        E 0 80 2f 64
        E 81 80 2a 66
        E 0 90 31 64
        E 0 90 33 66
        E 31 90 30 64
        E 53 80 2e 64
        E 0 80 31 66
        E 0 80 29 63
        E 0 90 2c 64
        E 75 90 33 66
        E 0 90 36 64
        E 0 90 31 66
        E 66 90 32 64
        E 14 80 31 64
        E 0 80 33 66
        E 35 80 30 64
        E 48 80 2c 64
        E 0 80 2e 66
        E 0 90 36 66
        E 0 90 38 64
        E 1 90 2e 66
        E 76 80 33 66
        E 0 80 36 64
        E 16 90 35 63
        E 51 80 32 64
        E 15 90 39 64
        E 0 90 3a 66
        E 0 90 35 64
        E 81 80 36 66
        E 0 80 38 64
        E 1 80 2e 66
        E 0 90 31 66
        E 44 90 36 66
        E 33 80 31 66
        E 0 90 3c 64
        E 15 80 35 63
        E 63 80 39 64
        E 0 80 3a 66
        E 82 80 2e 67
        E 1 80 2e 65
        E 0 80 2a 67
        E 0 80 2a 65
        E 0 80 31 66
        E 0 90 39 64
        E 0 90 3f 64
        E 0 90 34 64
        E 0 90 38 66
        E 46 80 36 66
        E 33 80 3c 64
        E 80 80 35 64
        E 0 90 42 64
        E 0 90 41 63
        E 31 90 3b 64
        E 52 80 39 64
        E 0 80 3f 64
        E 0 80 34 64
        E 0 90 37 64
        E 76 90 44 66
        E 0 90 43 64
        E 0 90 3c 64
        E 62 90 3d 66
        E 15 80 42 64
        E 0 80 41 63
        E 35 80 3b 64
        E 48 80 37 64
        E 0 80 38 66
        E 1 90 48 63
        E 0 90 45 64
        E 0 90 3a 64
        E 81 80 44 66
        E 0 80 43 64
        E 62 80 3d 66
        E 18 90 4a 64
        E 0 90 48 63
        E 0 90 3f 66
        E 81 80 48 63
        E 0 80 45 64
        E 0 80 3a 64
        E 0 90 3d 64
        E 43 90 42 64
        E 34 80 3c 64
        E 0 90 4d 64
        E 0 90 49 66
        E 80 80 4a 64
        E 0 80 48 63
        E 83 80 3d 64
        E 0 90 2e 67
        E 0 90 2e 65
        E 0 90 2a 67
        E 1 90 2a 65
        E 0 90 29 65
        E 0 90 50 64
        E 0 90 44 64
        E 0 90 4c 64
        E 0 90 3f 66
        E 0 90 43 64
        E 42 80 42 64
        E 37 80 4d 64
        E 0 80 49 66
        E 77 80 3f 66
        E 0 90 53 64
        E 0 90 4e 64
        E 32 90 46 66
        E 50 80 2e 67
        E 0 80 2e 65
        E 0 80 2a 67
        E 0 80 2a 65
        E 0 80 29 65
        E 0 80 50 64
        E 1 80 44 64
        E 0 80 4c 64
        E 0 80 3f 66
        E 0 90 42 66
        E 33 90 31 65
        E 0 90 30 65
        E 0 90 2c 67
        E 1 90 2c 65
        E 0 90 2b 65
        E 44 90 50 66
        E 64 90 48 64
        E 16 80 4e 64
        E 31 80 46 66
        E 53 80 42 66
        E 0 80 43 64
        E 0 90 53 64
        E 0 90 52 66
        E 0 90 45 64
        E 32 80 31 65
        E 0 80 30 65
        E 0 80 2c 67
        E 0 80 2c 65
        E 0 80 2b 65
        E 33 90 33 67
        E 0 90 33 65
        E 0 90 2f 65
        E 0 90 2e 67
        E 0 90 2e 65
        E 11 80 50 66
        E 16 90 4b 64
        E 48 80 48 64
        E 16 80 53 64
        E 0 90 4f 64
        E 0 90 4a 64
        E 79 80 53 64
        E 0 80 45 64
        E 0 90 48 64
        E 49 90 4d 63
        E 21 80 33 67
        E 0 80 33 65
        E 1 80 2f 65
        E 0 80 2e 67
        E 0 80 2e 65
        E 11 90 53 64
        E 15 80 4b 64
        E 8 90 36 65
        E 0 90 35 65
        E 0 90 31 67
        E 0 90 31 65
        E 1 90 30 65
        E 55 80 4f 64
        E 82 80 48 64
        E 0 90 4f 64
        E 0 90 52 66
        E 0 90 4b 64
        E 0 90 4d 64
        E 44 80 4d 63
        E 35 80 53 64
        E 22 80 36 65
        E 0 80 35 65
        E 0 80 31 67
        E 0 80 31 65
        E 0 80 30 65
        E 35 90 38 67
        E 0 90 38 65
        E 0 90 34 65
        E 0 90 33 67
        E 0 90 33 65
        E 23 80 4a 64
        E 0 90 53 64
        E 0 90 4e 66
        E 31 90 51 64
        E 48 80 4f 64
        E 0 80 52 66
        E 0 80 52 66
        E 0 80 4b 64
        E 0 90 4e 64
        E 80 90 4f 64
        E 0 90 52 66
        E 0 90 51 64
        E 58 80 38 67
        E 0 80 38 65
        E 0 80 34 65
        E 0 80 33 67
        E 0 80 33 65
        E 22 80 53 64
        E 0 80 4e 66
        E 7 90 3a 67
        E 0 90 3a 65
        E 0 90 36 67
        E 0 90 36 65
        E 0 90 35 65
        E 73 80 4e 64
        E 0 80 4d 64
        E 0 90 53 64
        E 0 90 4e 66
        E 1 90 50 66
        E 81 80 4f 64
        E 0 80 52 66
        E 76 90 4f 64
        E 0 90 52 66
        E 0 90 54 64
        E 11 80 3a 67
        E 0 80 3a 65
        E 0 80 36 67
        E 0 80 36 65
        E 0 80 35 65
        E 35 90 3d 67
        E 0 90 3d 65
        E 0 90 39 65
        E 0 90 38 67
        E 0 90 38 65
        E 37 80 53 64
        E 0 80 4e 66
        E 79 80 51 64
        E 0 90 53 64
        E 0 90 4e 66
        E 78 80 4f 64
        E 0 80 52 66
        E 44 80 3d 67
        E 0 80 3d 65
        E 1 80 39 65
        E 0 80 38 67
        E 0 80 38 65
        E 38 80 50 66
        E 0 90 3f 67
        E 0 90 3f 65
        E 0 90 3b 65
        E 1 90 3a 67
        E 0 90 3a 65
        E 0 90 4f 64
        E 0 90 51 64
        E 0 90 52 66
        E 0 90 4c 64
        E 0 90 54 64
        E 79 80 53 64
        E 0 80 4e 66
        E 77 80 54 64
        E 0 90 53 64
        E 1 90 4e 66
        E 32 80 51 64
        E 0 90 4d 63
        E 52 80 3f 67
        E 0 80 3f 65
        E 1 80 3b 65
        E 0 80 3a 67
        E 0 80 3a 65
        E 1 80 4f 64
        E 0 80 51 64
        E 0 80 52 66
        E 1 80 4c 64
        E 0 90 50 66
        E 28 90 42 67
        E 0 90 42 65
        E 0 90 3e 65
        E 0 90 3d 67
        E 0 90 3d 65
        E 47 90 4f 64
        E 0 90 52 66
        E 0 90 50 64
        E 62 90 51 64
        E 15 80 53 64
        E 0 80 4e 66
        E 34 80 4d 63
        E 48 80 50 66
        E 0 80 54 64
        E 0 90 53 64
        E 0 90 4e 66
        E 0 90 4c 64
        E 33 80 42 67
        E 0 80 42 65
        E 0 80 3e 65
        E 0 80 3d 67
        E 0 80 3d 65
        E 34 90 44 67
        E 1 90 44 65
        E 0 90 40 65
        E 0 90 3f 67
        E 0 90 3f 65
        E 11 80 4f 64
        E 1 80 52 66
        E 15 90 4d 63
        E 49 80 51 64
        E 15 90 4f 64
        E 0 90 52 66
        E 0 90 54 64
        E 83 80 53 64
        E 0 80 4e 66
        E 0 80 4c 64
        E 0 90 50 66
        E 42 90 51 64
        E 26 80 44 67
        E 0 80 44 65
        E 0 80 40 65
        E 0 80 3f 67
        E 0 80 3f 65
        E 12 80 50 64
        E 0 90 53 64
        E 0 90 4e 66
        E 15 80 4d 63
        E 7 90 47 65
        E 0 90 46 67
        E 0 90 43 65
        E 1 90 42 67
        E 0 90 42 65
        E 52 80 4f 64
        E 1 80 52 66
        E 83 80 50 66
        E 0 90 4f 64
        E 1 90 4d 63
        E 0 90 52 66
        E 0 90 4c 64
        E 0 90 50 64
        E 45 80 51 64
        E 35 80 53 64
        E 0 80 4e 66
        E 21 80 47 65
        E 1 80 46 67
        E 0 80 43 65
        E 0 80 42 67
        E 0 80 42 65
        E 31 90 49 67
        E 0 90 49 65
        E 0 90 45 65
        E 0 90 44 67
        E 0 90 44 65
        E 23 80 54 64
        E 0 90 53 64
        E 0 90 4e 66
        E 33 90 51 64
        E 52 80 4f 64
        E 0 80 4d 63
        E 0 80 52 66
        E 0 80 4c 64
        E 0 90 50 66
        E 76 90 4f 64
        E 0 90 52 66
        E 0 90 54 64
        E 58 80 49 67
        E 0 80 49 65
        E 0 80 45 65
        E 0 80 44 67
        E 0 80 44 65
        E 7 90 4d 63
        E 16 80 53 64
        E 0 80 4e 66
        E 10 90 4c 65
        E 0 90 4b 67
        E 0 90 48 65
        E 0 90 47 65
        E 0 90 46 67
        E 21 80 51 64
        E 52 80 50 66
        E 0 80 50 64
        E 0 90 53 64
        E 1 90 4e 66
        E 0 90 4c 64
        E 75 80 4f 64
        E 0 80 52 66
        E 15 90 51 64
        E 51 80 4d 63
        E 15 90 4f 64
        E 0 90 52 66
        E 1 90 50 64
        E 11 80 4c 65
        E 0 80 4b 67
        E 0 80 48 65
        E 0 80 47 65
        E 0 80 46 67
        E 33 90 4e 67
        E 0 90 4e 65
        E 0 90 4a 65
        E 0 90 49 67
        E 0 90 49 65
        E 36 80 53 64
        E 0 80 4e 66
        E 0 80 4c 64
        E 0 90 50 66
        E 46 90 4d 63
        E 35 80 54 64
        E 0 90 53 64
        E 0 90 4e 66
        E 15 80 51 64
        E 62 80 4f 64
        E 0 80 52 66
        E 46 80 4e 67
        E 0 80 4e 65
        E 0 80 4a 65
        E 0 80 49 67
        E 0 80 49 65
        E 37 80 50 66
        E 0 90 51 65
        E 0 90 50 67
        E 0 90 4d 65
        E 0 90 4c 65
        E 0 90 4b 67
        E 0 90 25 66
        E 1 90 24 64
        E 42 80 4d 63
        E 35 80 53 64
        E 0 80 4e 66
        E 79 80 50 64
        E 0 90 26 64
        E 33 90 25 64
        E 48 80 51 65
        E 0 80 50 67
        E 0 80 4d 65
        E 0 80 4c 65
        E 0 80 4b 67
        E 0 80 25 66
        E 0 80 24 64
        E 1 90 27 64
        E 30 90 4d 65
        E 1 90 52 67
        E 0 90 4f 65
        E 0 90 4e 67
        E 0 90 4e 65
        E 49 90 29 63
        E 0 90 27 66
        E 65 90 27 66
        E 13 80 26 64
        E 32 80 25 64
        E 52 80 27 64
        E 0 90 25 66
        E 0 90 2a 66
        E 31 80 4d 65
        E 0 80 52 67
        E 0 80 4f 65
        E 0 80 4e 67
        E 0 80 4e 65
        E 35 90 51 65
        E 0 90 54 65
        E 0 90 52 65
        E 0 90 51 65
        E 0 90 50 67
        E 13 80 29 63
        E 16 90 29 64
        E 44 80 27 66
        E 15 90 28 64
        E 0 90 2d 64
        E 0 90 2a 66
        E 84 80 25 66
        E 0 80 2a 66
        E 0 90 26 64
        E 45 90 2c 64
        E 21 80 51 65
        E 0 80 54 65
        E 0 80 52 65
        E 0 80 51 65
        E 0 80 50 67
        E 11 80 27 66
        E 0 90 2b 64
        E 0 90 2f 64
        E 16 80 29 64
        E 10 90 4d 65
        E 0 90 50 67
        E 0 90 4e 65
        E 0 90 53 65
        E 0 90 52 67
        E 55 80 28 64
        E 0 80 2d 64
        E 83 80 26 64
        E 0 90 2e 64
        E 0 90 31 66
        E 0 90 29 63
        E 0 90 2e 66
        E 44 80 2c 64
        E 35 80 2b 64
        E 0 80 2f 64
        E 21 80 4d 65
        E 0 80 50 67
        E 0 80 4e 65
        E 1 80 53 65
        E 0 80 52 67
        E 32 90 51 65
        E 0 90 54 65
        E 1 90 52 65
        E 0 90 50 65
        E 0 90 4f 65
        E 22 80 2a 66
        E 0 90 31 64
        E 0 90 33 66
        E 35 90 30 64
        E 49 80 2e 64
        E 0 80 31 66
        E 0 80 29 63
        E 0 90 2c 64
        E 79 90 33 66
        E 0 90 36 64
        E 1 90 31 66
        E 53 80 51 65
        E 1 80 54 65
        E 0 80 52 65
        E 0 80 50 65
        E 0 80 4f 65
        E 7 90 32 64
        E 16 80 31 64
        E 0 80 33 66
        E 10 90 4d 65
        E 0 90 50 67
        E 0 90 4e 65
        E 0 90 53 65
        E 0 90 52 67
        E 21 80 30 64
        E 48 80 2c 64
        E 0 80 2e 66
        E 0 90 36 66
        E 0 90 38 64
        E 1 90 2e 66
        E 79 80 33 66
        E 0 80 36 64
        E 15 90 35 63
        E 49 80 32 64
        E 15 90 39 64
        E 0 90 3a 66
        E 1 90 35 64
        E 11 80 4d 65
        E 0 80 50 67
        E 0 80 4e 65
        E 0 80 53 65
        E 0 80 52 67
        E 35 90 51 65
        E 0 90 54 65
        E 0 90 52 65
        E 0 90 50 65
        E 0 90 4f 65
        E 37 80 36 66
        E 0 80 38 64
        E 0 80 2e 66
        E 0 90 31 66
        E 47 90 36 66
        E 34 80 31 66
        E 0 90 3c 64
        E 16 80 35 63
        E 61 80 39 64
        E 0 80 3a 66
        E 43 80 51 65
        E 0 80 54 65
        E 0 80 52 65
        E 0 80 50 65
        E 0 80 4f 65
        E 39 80 31 66
        E 0 90 4d 65
        E 0 90 50 67
        E 0 90 4e 65
        E 1 90 53 65
        E 0 90 52 67
        E 0 90 39 64
        E 0 90 3f 64
        E 0 90 34 64
        E 0 90 38 66
        E 45 80 36 66
        E 34 80 3c 64
        E 77 80 35 64
        E 0 90 42 64
        E 1 90 41 63
        E 34 90 3b 64
        E 51 80 4d 65
        E 0 80 50 67
        E 0 80 4e 65
        E 0 80 53 65
        E 0 80 52 67
        E 0 80 39 64
        E 0 80 3f 64
        E 0 80 34 64
        E 1 90 51 65
        E 0 90 54 65
        E 0 90 52 65
        E 0 90 50 65
        E 0 90 4f 65
        E 0 90 37 64
        E 76 90 44 66
        E 0 90 43 64
        E 0 90 3c 64
        E 60 90 3d 66
        E 15 80 42 64
        E 0 80 41 63
        E 37 80 3b 64
        E 49 80 51 65
        E 0 80 54 65
        E 0 80 52 65
        E 1 80 50 65
        E 0 80 4f 65
        E 1 80 37 64
        E 0 80 38 66
        E 0 90 4d 65
        E 1 90 50 67
        E 0 90 4e 65
        E 0 90 53 65
        E 0 90 52 67
        E 0 90 48 63
        E 0 90 45 64
        E 0 90 3a 64
        E 77 80 44 66
        E 0 80 43 64
        E 63 80 3d 66
        E 15 90 4a 64
        E 0 90 48 63
        E 0 90 3f 66
        E 80 80 4d 65
        E 0 80 50 67
        E 0 80 4e 65
        E 0 80 53 65
        E 0 80 52 67
        E 0 80 48 63
        E 1 80 45 64
        E 0 80 3a 64
        E 1 90 51 65
        E 0 90 54 65
        E 0 90 52 65
        E 1 90 50 65
        E 0 90 4f 65
        E 0 90 3d 64
        E 44 90 42 64
        E 33 80 3c 64
        E 0 90 4d 64
        E 0 90 49 66
        E 81 80 4a 64
        E 0 80 48 63
        E 80 80 51 65
        E 0 80 54 65
        E 0 80 52 65
        E 0 80 50 65
        E 0 80 4f 65
        E 0 80 3d 64
        E 0 90 4d 65
        E 0 90 50 67
        E 0 90 4e 65
        E 0 90 53 65
        E 0 90 52 67
        E 1 90 50 64
        E 0 90 44 64
        E 0 90 4c 64
        E 1 90 3f 66
        E 0 90 43 64
        E 44 80 42 64
        E 34 80 4d 64
        E 1 80 49 66
        E 76 80 3f 66
        E 0 90 53 64
        E 0 90 4e 64
        E 35 90 51 65
        E 0 90 54 65
        E 0 90 52 65
        E 0 90 50 65
        E 0 90 4f 65
        E 0 90 46 66
        E 50 80 4d 65
        E 0 80 50 67
        E 0 80 4e 65
        E 0 80 53 65
        E 1 80 52 67
        E 0 80 50 64
        E 0 80 44 64
        E 0 80 4c 64
        E 0 80 3f 66
        E 0 90 42 66
        E 76 90 50 66
        E 62 90 4d 65
        E 0 90 50 67
        E 0 90 4e 65
        E 0 90 53 65
        E 0 90 52 67
        E 1 90 48 64
        E 17 80 4e 64
        E 33 80 51 65
        E 0 80 54 65
        E 0 80 52 65
        E 0 80 50 65
        E 0 80 4f 65
        E 0 80 46 66
        E 48 80 42 66
        E 0 80 43 64
        E 0 90 53 64
        E 1 90 52 66
        E 0 90 45 64
        E 79 80 50 66
        E 15 90 51 65
        E 0 90 54 65
        E 0 90 52 65
        E 1 90 50 65
        E 0 90 4f 65
        E 0 90 4b 64
        E 48 80 4d 65
        E 0 80 50 67
        E 0 80 4e 65
        E 0 80 53 65
        E 0 80 52 67
        E 0 80 48 64
        E 15 80 53 64
        E 0 90 4f 64
        E 0 90 4a 64
        E 80 80 53 64
        E 0 80 45 64
        E 0 90 48 64
        E 47 90 4d 65
        E 0 90 50 67
        E 0 90 4e 65
        E 0 90 53 65
        E 0 90 52 67
        E 0 90 4d 63
        E 34 90 53 64
        E 15 80 51 65
        E 0 80 54 65
        E 1 80 52 65
        E 0 80 50 65
        E 1 80 4f 65
        E 0 80 4b 64
        E 60 80 4f 64
        E 84 80 48 64
        E 0 90 51 65
        E 0 90 54 65
        E 0 90 52 65
        E 0 90 50 65
        E 0 90 4f 65
        E 0 90 4f 64
        E 0 90 52 66
        E 0 90 4b 64
        E 0 90 4d 64
        E 42 80 4d 65
        E 0 80 50 67
        E 0 80 4e 65
        E 1 80 53 65
        E 0 80 52 67
        E 0 80 4d 63
        E 36 80 53 64
        E 80 80 4a 64
        E 0 90 4d 65
        E 0 90 50 67
        E 0 90 4e 65
        E 0 90 53 65
        E 1 90 52 67
        E 0 90 53 64
        E 0 90 4e 66
        E 32 90 51 64
        E 49 80 51 65
        E 0 80 54 65
        E 0 80 52 65
        E 0 80 50 65
        E 1 80 4f 65
        E 0 80 4f 64
        E 0 80 52 66
        E 0 80 52 66
        E 0 80 4b 64
        E 0 90 4e 64
        E 76 90 51 65
        E 0 90 54 65
        E 0 90 52 65
        E 0 90 50 65
        E 0 90 4f 65
        E 0 90 4f 64
        E 0 90 52 66
        E 0 90 51 64
        E 80 80 4d 65
        E 0 80 50 67
        E 0 80 4e 65
        E 1 80 53 65
        E 0 80 52 67
        E 0 80 53 64
        E 0 80 4e 66
        E 82 80 4e 64
        E 0 80 4d 64
        E 0 90 4d 65
        E 0 90 50 67
        E 0 90 4e 65
        E 0 90 53 65
        E 0 90 52 67
        E 1 90 53 64
        E 0 90 4e 66
        E 0 90 50 66
        E 76 80 51 65
        E 0 80 54 65
        E 0 80 52 65
        E 1 80 50 65
        E 0 80 4f 65
        E 0 80 4f 64
        E 0 80 52 66
        E 79 90 51 65
        E 0 90 54 65
        E 0 90 52 65
        E 0 90 50 65
        E 0 90 4f 65
        E 0 90 4f 64
        E 0 90 52 66
        E 1 90 54 64
        E 79 80 4d 65
        E 0 80 50 67
        E 0 80 4e 65
        E 0 80 53 65
        E 0 80 52 67
        E 0 80 53 64
        E 0 80 4e 66
        E 80 80 51 64
        E 0 90 4d 65
        E 0 90 50 67
        E 0 90 4e 65
        E 1 90 53 65
        E 0 90 52 67
        E 0 90 53 64
        E 0 90 4e 66
        E 79 80 51 65
        E 0 80 54 65
        E 0 80 52 65
        E 0 80 50 65
        E 0 80 4f 65
        E 0 80 4f 64
        E 0 80 52 66
        E 84 80 50 66
        E 0 90 51 65
        E 0 90 54 65
        E 0 90 52 65
        E 0 90 50 65
        E 0 90 4f 65
        E 0 90 4f 64
        E 0 90 51 64
        E 0 90 52 66
        E 0 90 4c 64
        E 0 90 54 64
        E 77 80 4d 65
        E 0 80 50 67
        E 0 80 4e 65
        E 0 80 53 65
        E 0 80 52 67
        E 0 80 53 64
        E 1 80 4e 66
        E 76 80 54 64
        E 0 90 4d 65
        E 0 90 50 67
        E 1 90 4e 65
        E 0 90 53 65
        E 0 90 52 67
        E 0 90 53 64
        E 0 90 4e 66
        E 32 80 51 64
        E 0 90 4d 63
        E 53 80 51 65
        E 0 80 54 65
        E 0 80 52 65
        E 0 80 50 65
        E 0 80 4f 65
        E 1 80 4f 64
        E 0 80 51 64
        E 0 80 52 66
        E 0 80 4c 64
        E 0 90 50 66
        E 74 90 51 65
        E 1 90 54 65
        E 0 90 52 65
        E 0 90 50 65
        E 0 90 4f 65
        E 1 90 4f 64
        E 0 90 52 66
        E 0 90 50 64
        E 62 90 51 64
        E 18 80 4d 65
        E 0 80 50 67
        E 0 80 4e 65
        E 0 80 53 65
        E 0 80 52 67
        E 0 80 53 64
        E 1 80 4e 66
        E 31 80 4d 63
        E 49 80 50 66
        E 0 80 54 64
        E 0 90 4d 65
        E 0 90 50 67
        E 0 90 4e 65
        E 0 90 53 65
        E 0 90 52 67
        E 0 90 53 64
        E 0 90 4e 66
        E 0 90 4c 64
        E 79 80 51 65
        E 1 80 54 65
        E 0 80 52 65
        E 0 80 50 65
        E 0 80 4f 65
        E 0 80 4f 64
        E 1 80 52 66
        E 12 90 4d 63
        E 51 80 51 64
        E 15 90 51 65
        E 0 90 54 65
        E 0 90 52 65
        E 0 90 50 65
        E 0 90 4f 65
        E 0 90 4f 64
        E 0 90 52 66
        E 0 90 54 64
        E 79 80 4d 65
        E 1 80 50 67
        E 0 80 4e 65
        E 0 80 53 65
        E 0 80 52 67
        E 0 80 53 64
        E 0 80 4e 66
        E 0 80 4c 64
        E 0 90 50 66
        E 44 90 51 64
        E 37 80 50 64
        E 0 90 4d 65
        E 0 90 50 67
        E 0 90 4e 65
        E 1 90 53 65
        E 0 90 52 67
        E 0 90 53 64
        E 0 90 4e 66
        E 15 80 4d 63
        E 61 80 51 65
        E 0 80 54 65
        E 0 80 52 65
        E 1 80 50 65
        E 0 80 4f 65
        E 0 80 4f 64
        E 0 80 52 66
        E 81 80 50 66
        E 0 90 51 65
        E 0 90 54 65
        E 0 90 52 65
        E 0 90 50 65
        E 0 90 4f 65
        E 0 90 4f 64
        E 0 90 4d 63
        E 0 90 52 66
        E 1 90 4c 64
        E 0 90 50 64
        E 43 80 51 64
        E 35 80 4d 65
        E 0 80 50 67
        E 0 80 4e 65
        E 1 80 53 65
        E 0 80 52 67
        E 0 80 53 64
        E 0 80 4e 66
        E 77 80 54 64
        E 0 90 4d 65
        E 0 90 50 67
        E 1 90 4e 65
        E 0 90 53 65
        E 0 90 52 67
        E 0 90 53 64
        E 0 90 4e 66
        E 33 90 51 64
        E 51 80 51 65
        E 0 80 54 65
        E 1 80 52 65
        E 0 80 50 65
        E 0 80 4f 65
        E 0 80 4f 64
        E 1 80 4d 63
        E 0 80 52 66
        E 0 80 4c 64
        E 0 90 50 66
        E 75 90 51 65
        E 1 90 54 65
        E 0 90 52 65
        E 0 90 50 65
        E 0 90 4f 65
        E 0 90 4f 64
        E 0 90 52 66
        E 0 90 54 64
        E 62 90 4d 63
        E 15 80 4d 65
        E 0 80 50 67
        E 0 80 4e 65
        E 1 80 53 65
        E 0 80 52 67
        E 0 80 53 64
        E 0 80 4e 66
        E 30 80 51 64
        E 51 80 50 66
        E 0 80 50 64
        E 0 90 4d 65
        E 0 90 50 67
        E 0 90 4e 65
        E 0 90 53 65
        E 0 90 52 67
        E 1 90 53 64
        E 0 90 4e 66
        E 0 90 4c 64
        E 80 80 51 65
        E 0 80 54 65
        E 0 80 52 65
        E 1 80 50 65
        E 0 80 4f 65
        E 0 80 4f 64
        E 0 80 52 66
        E 14 90 51 64
        E 47 80 4d 63
        E 18 90 51 65
        E 0 90 54 65
        E 0 90 52 65
        E 0 90 50 65
        E 0 90 4f 65
        E 0 90 4f 64
        E 0 90 52 66
        E 0 90 50 64
        E 81 80 4d 65
        E 0 80 50 67
        E 0 80 4e 65
        E 0 80 53 65
        E 1 80 52 67
        E 0 80 53 64
        E 0 80 4e 66
        E 0 80 4c 64
        E 0 90 50 66
        E 43 90 4d 63
        E 35 80 54 64
        E 0 90 4d 65
        E 0 90 50 67
        E 0 90 4e 65
        E 1 90 53 65
        E 0 90 52 67
        E 0 90 53 64
        E 0 90 4e 66
        E 13 80 51 64
        E 66 80 51 65
        E 0 80 54 65
        E 0 80 52 65
        E 0 80 50 65
        E 0 80 4f 65
        E 0 80 4f 64
        E 0 80 52 66
        E 80 80 50 66
        E 0 90 51 64
        E 46 80 4d 63
        E 35 80 4d 65
        E 0 80 50 67
        E 0 80 4e 65
        E 0 80 53 65
        E 1 80 52 67
        E 0 80 53 64
        E 0 80 4e 66
        E 76 80 50 64
        E 31 90 4d 63
        E 49 80 51 64
        E 0 90 40 65
        E 143 90 51 64
        E 51 80 4d 63
        E 50 80 40 65
        E 0 90 43 65
        E 1 90 24 64
        E 90 90 4d 63
        E 51 80 51 64
        E 98 80 43 65
        E 1 80 24 64
        E 0 90 46 65
        E 0 90 27 64
        E 42 90 51 64
        E 49 80 4d 63
        E 147 80 46 65
        E 0 80 27 64
        E 0 90 48 65
        E 0 90 39 64
        E 0 90 29 64
        E 42 80 51 64
        E 196 80 48 65
        E 1 80 39 64
        E 0 80 29 64
        E 0 90 4b 65
        E 0 90 3c 63
        E 0 90 2c 64
        E 242 80 4b 65
        E 0 80 3c 63
        E 0 80 2c 64
        E 0 90 4d 65
        E 0 90 3e 64
        E 0 90 2e 66
        E 240 80 4d 65
        E 0 80 3e 64
        E 0 80 2e 66
        E 0 90 50 65
        E 1 90 41 63
        E 0 90 31 64
        E 239 80 50 65
        E 0 80 41 63
        E 0 80 31 64
        E 1 90 52 67
        E 0 90 43 64
        E 0 90 33 66
        E 239 80 52 67
        E 0 80 43 64
        E 0 80 33 66
        E 1 90 31 65
        E 0 90 46 64
        E 0 90 36 64
        E 238 80 31 65
        E 0 80 46 64
        E 0 80 36 64
        E 0 90 33 67
        E 0 90 3c 64
        E 1 90 38 66
        E 239 80 33 67
        E 0 80 3c 64
        E 0 80 38 66
        E 0 90 36 65
        E 1 90 3f 64
        E 0 90 3b 64
        E 238 80 36 65
        E 0 80 3f 64
        E 0 80 3b 64
        E 0 90 38 67
        E 0 90 41 64
        E 0 90 3d 66
        E 242 80 38 67
        E 0 80 41 64
        E 0 80 3d 66
        E 0 90 3b 65
        E 1 90 44 64
        E 0 90 40 64
        E 239 80 3b 65
        E 0 80 44 64
        E 0 80 40 64
        E 0 90 3d 67
        E 1 90 46 66
        E 0 90 42 66
        E 236 80 3d 67
        E 0 80 46 66
        E 0 80 42 66
        E 0 90 40 65
        E 1 90 49 64
        E 0 90 45 64
        E 239 80 40 65
        E 0 80 49 64
        E 0 80 45 64
        E 0 90 48 63
        E 240 80 48 63
        E 0 90 51 65
        E 1 90 42 64
        E 0 90 4a 64
        E 240 80 51 65
        E 0 80 42 64
        E 1 80 4a 64
        E 0 90 50 65
        E 0 90 4d 63
        E 239 80 50 65
        E 0 80 4d 63
        E 0 90 4a 65
        E 0 90 47 64
        E 0 90 4f 64
        E 240 80 4a 65
        E 1 80 47 64
        E 0 80 4f 64
        E 0 90 49 65
        E 0 90 52 64
        E 238 80 49 65
        E 0 80 52 64
        E 0 90 43 65
        E 1 90 4c 64
        E 0 90 54 64
        E 240 80 43 65
        E 0 80 4c 64
        E 0 80 54 64
        E 0 90 4b 67
        E 1 90 42 65
        E 0 90 50 66
        E 0 90 24 64
        E 191 90 4d 65
        E 0 90 52 66
        E 48 80 4b 67
        E 0 80 42 65
        E 1 80 50 66
        E 0 80 24 64
        E 0 90 3c 65
        E 0 90 27 64
        E 143 90 49 65
        E 0 90 4e 64
        E 46 80 4d 65
        E 0 80 52 66
        E 50 80 3c 65
        E 0 80 27 64
        E 0 90 29 64
        E 95 90 47 65
        E 0 90 4c 64
        E 49 80 49 65
        E 0 80 4e 64
        E 96 80 29 64
        E 0 90 2c 64
        E 44 90 49 65
        E 0 90 4e 64
        E 52 80 47 65
        E 0 80 4c 64
        E 143 80 2c 64
        E 0 90 44 67
        E 0 90 49 66
        E 0 90 2e 66
        E 45 80 49 65
        E 0 80 4e 64
        E 146 90 42 65
        E 0 90 48 63
        E 49 80 44 67
        E 0 80 49 66
        E 0 80 2e 66
        E 0 90 31 64
        E 144 90 44 67
        E 0 90 49 66
        E 46 80 42 65
        E 0 80 48 63
        E 51 80 31 64
        E 0 90 33 66
        E 95 90 40 65
        E 0 90 45 64
        E 48 80 44 67
        E 0 80 49 66
        E 99 80 33 66
        E 0 90 36 64
        E 43 90 3e 65
        E 0 90 43 64
        E 50 80 40 65
        E 0 80 45 64
        E 146 80 36 64
        E 0 90 4c 65
        E 0 90 45 64
        E 0 90 38 66
        E 44 80 3e 65
        E 0 80 43 64
        E 147 90 47 65
        E 1 90 41 63
        E 48 80 4c 65
        E 0 80 45 64
        E 0 80 38 66
        E 0 90 3b 64
        E 143 90 46 65
        E 0 90 3f 64
        E 47 80 47 65
        E 0 80 41 63
        E 48 80 3b 64
        E 0 90 3d 66
        E 93 90 47 65
        E 0 90 41 63
        E 52 80 46 65
        E 0 80 3f 64
        E 95 80 3d 66
        E 0 90 40 64
        E 47 90 43 65
        E 0 90 3c 64
        E 51 80 47 65
        E 0 80 41 63
        E 145 80 40 64
        E 0 90 41 65
        E 0 90 3a 66
        E 0 90 42 66
        E 44 80 43 65
        E 0 80 3c 64
        E 144 90 43 65
        E 0 90 3c 64
        E 52 80 41 65
        E 0 80 3a 66
        E 0 80 42 66
        E 0 90 45 64
        E 141 90 3f 65
        E 1 90 38 64
        E 48 80 43 65
        E 0 80 3c 64
        E 49 80 45 64
        E 0 90 48 63
        E 93 90 3d 65
        E 0 90 36 64
        E 48 80 3f 65
        E 0 80 38 64
        E 97 80 48 63
        E 0 90 4a 64
        E 45 90 3f 65
        E 0 90 38 64
        E 50 80 3d 65
        E 0 80 36 64
        E 145 80 4a 64
        E 0 90 3a 67
        E 0 90 33 66
        E 0 90 4d 63
        E 47 80 3f 65
        E 0 80 38 64
        E 146 90 38 67
        E 0 90 31 66
        E 48 80 3a 67
        E 0 80 33 66
        E 0 80 4d 63
        E 0 90 4f 64
        E 143 90 3a 67
        E 0 90 33 66
        E 49 80 38 67
        E 0 80 31 66
        E 48 80 4f 64
        E 0 90 52 64
        E 95 90 36 65
        E 0 90 2f 64
        E 48 80 3a 67
        E 0 80 33 66
        E 98 80 52 64
        E 0 90 54 64
        E 44 90 34 65
        E 0 90 2d 64
        E 51 80 36 65
        E 0 80 2f 64
        E 145 80 54 64
        E 0 90 36 65
        E 0 90 2f 64
        E 0 90 52 64
        E 45 80 34 65
        E 0 80 2d 64
        E 145 90 31 67
        E 0 90 2a 66
        E 48 80 36 65
        E 0 80 2f 64
        E 0 80 52 64
        E 0 90 4e 66
        E 146 90 2f 65
        E 0 90 29 63
        E 45 80 31 67
        E 0 80 2a 66
        E 52 80 4e 66
        E 0 90 4c 64
        E 93 90 31 67
        E 0 90 2a 66
        E 48 80 2f 65
        E 0 80 29 63
        E 97 80 4c 64
        E 0 90 49 64
        E 45 90 2d 65
        E 0 90 26 64
        E 52 80 31 67
        E 0 80 2a 66
        E 145 80 49 64
        E 0 90 46 66
        E 0 90 30 63
        E 42 80 2d 65
        E 1 80 26 64
        E 114 90 33 64
        E 84 80 46 66
        E 0 80 30 63
        E 0 90 43 64
        E 77 90 36 64
        E 77 80 33 64
        E 84 80 43 64
        E 0 90 41 63
        E 0 90 39 64
        E 79 80 36 64
        E 78 90 3c 64
        E 82 80 41 63
        E 0 80 39 64
        E 0 90 3d 66
        E 80 90 3f 66
        E 76 80 3c 64
        E 84 80 3d 66
        E 0 90 49 67
        E 0 90 3b 64
        E 0 90 42 66
        E 79 80 3f 66
        E 77 90 46 67
        E 1 90 3f 66
        E 82 80 49 67
        E 0 80 3b 64
        E 0 80 42 66
        E 0 90 38 64
        E 79 90 43 65
        E 0 90 3c 64
        E 81 80 46 67
        E 0 80 3f 66
        E 80 80 38 64
        E 0 90 40 65
        E 0 90 35 64
        E 0 90 39 64
        E 77 80 43 65
        E 0 80 3c 64
        E 83 90 3d 65
        E 1 90 36 64
        E 81 80 40 65
        E 0 80 35 64
        E 0 80 39 64
        E 0 90 32 64
        E 79 90 3a 65
        E 0 90 33 64
        E 80 80 3d 65
        E 0 80 36 64
        E 82 80 32 64
        E 0 90 30 63
        E 78 80 3a 65
        E 1 80 33 64
        E 161 80 30 63
        E 0 90 2c 66
        E 240 80 2c 66
        E 0 90 2a 64
        E 239 80 2a 64
        E 0 90 27 64
        E 242 80 27 64
        E 0 90 2c 64
        E 0 90 24 64
        E 0 90 30 63
        E 155 90 2f 64
        E 0 90 33 64
        E 81 80 2c 64
        E 0 80 24 64
        E 0 80 30 63
        E 0 90 27 66
        E 82 90 32 64
        E 0 90 36 64
        E 77 80 2f 64
        E 0 80 33 64
        E 83 80 27 66
        E 1 90 35 64
        E 0 90 2b 64
        E 0 90 39 64
        E 77 80 32 64
        E 0 80 36 64
        E 77 90 38 66
        E 1 90 3c 64
        E 85 80 35 64
        E 0 80 2b 64
        E 0 80 39 64
        E 0 90 2e 66
        E 77 90 43 64
        E 0 90 3f 66
        E 78 80 38 66
        E 0 80 3c 64
        E 82 80 2e 66
        E 0 90 46 66
        E 0 90 32 64
        E 0 90 42 66
        E 78 80 43 64
        E 0 80 3f 66
        E 80 90 43 64
        E 0 90 3f 66
        E 83 80 46 66
        E 0 80 32 64
        E 0 80 42 66
        E 0 90 35 64
        E 78 90 40 64
        E 0 90 3c 64
        E 82 80 43 64
        E 0 80 3f 66
        E 83 80 35 64
        E 0 90 3d 64
        E 0 90 39 64
        E 75 80 40 64
        E 0 80 3c 64
        E 79 90 3a 65
        E 1 90 36 65
        E 0 90 3a 64
        E 82 80 3d 64
        E 0 80 39 64
        E 0 90 3c 64
        E 81 90 33 64
        E 79 80 3a 64
        E 80 80 3c 64
        E 0 90 3a 65
        E 0 90 36 65
        E 0 90 40 64
        E 0 90 33 64
        E 79 80 33 64
        E 80 80 3a 65
        E 0 80 36 65
        E 0 90 3d 65
        E 0 90 39 65
        E 83 80 3a 65
        E 0 80 36 65
        E 0 80 40 64
        E 0 90 43 64
        E 79 90 40 65
        E 0 90 3c 65
        E 74 80 3d 65
        E 0 80 39 65
        E 85 80 43 64
        E 0 80 33 64
        E 1 90 43 65
        E 0 90 3f 67
        E 0 90 47 64
        E 0 90 33 64
        E 77 80 40 65
        E 0 80 3c 65
        E 81 90 46 67
        E 0 90 42 67
        E 1 90 36 64
        E 81 80 43 65
        E 0 80 3f 67
        E 0 80 47 64
        E 0 80 33 64
        E 1 90 4a 64
        E 75 90 49 67
        E 0 90 33 64
        E 81 80 46 67
        E 0 80 42 67
        E 0 80 36 64
        E 83 80 4a 64
        E 0 90 4e 64
        E 0 90 30 63
        E 79 80 49 67
        E 0 80 33 64
        E 80 90 33 64
        E 80 80 4e 64
        E 0 80 30 63
        E 0 90 51 64
        E 79 90 30 63
        E 78 80 33 64
        E 83 80 51 64
        E 0 90 37 65
        E 0 90 24 64
        E 0 90 34 64
        E 81 80 30 63
        E 161 80 37 65
        E 0 80 24 64
        E 0 80 34 64
        E 1 90 3b 65
        E 0 90 28 64
        E 0 90 38 64
        E 240 80 3b 65
        E 0 80 28 64
        E 0 80 38 64
        E 0 90 3f 67
        E 0 90 2c 66
        E 0 90 3c 64
        E 238 80 3f 67
        E 0 80 2c 66
        E 0 80 3c 64
        E 0 90 43 65
        E 1 90 30 64
        E 0 90 40 64
        E 238 80 43 65
        E 0 80 30 64
        E 0 80 40 64
        E 0 90 35 63
        E 0 90 48 63
        E 240 80 35 63
        E 0 80 48 63
        E 0 90 4b 67
        E 1 90 38 66
        E 0 90 48 64
        E 241 80 4b 67
        E 0 80 38 66
        E 1 80 48 64
        E 0 90 50 65
        E 0 90 3d 64
        E 0 90 4d 63
        E 238 80 50 65
        E 0 80 3d 64
        E 0 80 4d 63
        E 0 90 38 65
        E 0 90 41 63
        E 242 80 38 65
        E 0 80 41 63
        E 0 90 34 65
        E 0 90 3c 65
        E 0 90 45 64
        E 238 80 34 65
        E 1 80 3c 65
        E 0 80 45 64
        E 0 90 38 65
        E 0 90 40 65
        E 0 90 49 64
        E 238 80 38 65
        E 0 80 40 65
        E 0 80 49 64
        E 1 90 3c 65
        E 0 90 44 67
        E 0 90 4d 64
        E 239 80 3c 65
        E 0 80 44 67
        E 0 80 4d 64
        E 0 90 40 65
        E 0 90 48 65
        E 1 90 51 64
        E 241 80 40 65
        E 0 80 48 65
        E 0 80 51 64
        E 1 90 53 65
        E 0 90 4f 65
        E 0 90 4b 67
        E 0 90 44 65
        E 0 90 24 64
        E 0 90 28 64
        E 157 90 52 67
        E 0 90 4e 67
        E 0 90 4b 65
        E 81 80 53 65
        E 0 80 4f 65
        E 0 80 4b 67
        E 0 80 44 65
        E 0 80 24 64
        E 0 90 29 63
        E 77 90 52 65
        E 0 90 4e 65
        E 0 90 4a 65
        E 80 80 52 67
        E 0 80 4e 67
        E 0 80 4b 65
        E 81 80 29 63
        E 0 80 28 64
        E 0 90 51 65
        E 0 90 4d 65
        E 1 90 49 67
        E 0 90 31 65
        E 0 90 2e 64
        E 0 90 28 64
        E 79 80 52 65
        E 0 80 4e 65
        E 0 80 4a 65
        E 81 90 50 67
        E 0 90 4c 65
        E 0 90 49 65
        E 79 80 51 65
        E 0 80 4d 65
        E 0 80 49 67
        E 0 80 31 65
        E 1 80 2e 64
        E 0 80 28 64
        E 0 90 35 65
        E 0 90 32 64
        E 0 90 2c 66
        E 79 90 50 65
        E 0 90 4b 67
        E 0 90 48 65
        E 76 80 50 67
        E 0 80 4c 65
        E 0 80 49 65
        E 85 80 35 65
        E 0 80 32 64
        E 0 80 2c 66
        E 1 90 4f 65
        E 0 90 4b 65
        E 0 90 47 65
        E 0 90 3a 67
        E 0 90 37 64
        E 0 90 31 66
        E 80 80 50 65
        E 0 80 4b 67
        E 0 80 48 65
        E 76 90 4e 67
        E 0 90 4a 65
        E 0 90 46 67
        E 83 80 4f 65
        E 0 80 4b 65
        E 0 80 47 65
        E 0 80 3a 67
        E 0 80 37 64
        E 1 80 31 66
        E 0 90 3f 65
        E 0 90 3c 63
        E 0 90 36 64
        E 77 90 4e 65
        E 0 90 49 67
        E 0 90 46 65
        E 81 80 4e 67
        E 0 80 4a 65
        E 0 80 46 67
        E 81 80 3f 65
        E 0 80 3c 63
        E 1 80 36 64
        E 0 90 4d 65
        E 0 90 49 65
        E 0 90 45 65
        E 0 90 44 65
        E 0 90 41 63
        E 0 90 3b 64
        E 75 80 4e 65
        E 0 80 49 67
        E 0 80 46 65
        E 82 90 4c 65
        E 0 90 48 65
        E 0 90 44 67
        E 82 80 4d 65
        E 0 80 49 65
        E 0 80 45 65
        E 0 80 44 65
        E 1 80 41 63
        E 0 80 3b 64
        E 1 90 48 65
        E 0 90 45 64
        E 0 90 3f 66
        E 76 90 4b 67
        E 0 90 47 65
        E 0 90 44 65
        E 82 80 4c 65
        E 0 80 48 65
        E 0 80 44 67
        E 79 80 48 65
        E 0 80 45 64
        E 0 80 3f 66
        E 0 90 4b 65
        E 1 90 46 67
        E 0 90 43 65
        E 0 90 4d 65
        E 0 90 4a 64
        E 0 90 44 66
        E 79 80 4b 67
        E 0 80 47 65
        E 0 80 44 65
        E 43 80 4a 64
        E 35 90 4a 65
        E 0 90 46 65
        E 0 90 42 67
        E 84 80 4b 65
        E 0 80 46 67
        E 1 80 43 65
        E 0 80 4d 65
        E 1 80 44 66
        E 0 90 4e 66
        E 0 90 52 66
        E 78 90 49 67
        E 0 90 45 65
        E 0 90 42 65
        E 76 80 4a 65
        E 0 80 46 65
        E 0 80 42 67
        E 83 80 4e 66
        E 0 80 52 66
        E 0 90 54 65
        E 0 90 49 67
        E 0 90 3f 65
        E 0 90 34 65
        E 1 90 49 65
        E 0 90 44 67
        E 0 90 41 65
        E 0 90 29 65
        E 0 90 24 64
        E 0 90 28 64
        E 77 80 49 67
        E 0 80 45 65
        E 0 80 42 65
        E 79 90 48 65
        E 0 90 44 65
        E 0 90 40 65
        E 83 80 49 65
        E 0 80 44 67
        E 0 80 41 65
        E 0 80 24 64
        E 0 80 28 64
        E 0 90 29 64
        E 1 90 2d 64
        E 77 90 47 65
        E 0 90 43 65
        E 0 90 3f 67
        E 79 80 48 65
        E 0 80 44 65
        E 0 80 40 65
        E 80 80 29 64
        E 0 80 2d 64
        E 0 90 2f 64
        E 1 90 33 64
        E 80 80 47 65
        E 0 80 43 65
        E 0 80 3f 67
        E 163 80 2f 64
        E 0 80 33 64
        E 0 90 34 64
        E 0 90 38 64
        E 240 80 54 65
        E 0 80 49 67
        E 0 80 3f 65
        E 0 80 34 65
        E 0 80 29 65
        E 1 80 34 64
        E 0 80 38 64
        E 0 90 3d 65
        E 0 90 3a 64
        E 240 80 3d 65
        E 0 80 3a 64
        E 0 90 42 65
        E 0 90 3f 64
        E 238 80 42 65
        E 0 80 3f 64
        E 0 90 44 66
        E 0 90 48 64
        E 241 80 44 66
        E 0 80 48 64
        E 0 90 49 66
        E 0 90 4d 64
        E 240 80 49 66
        E 0 80 4d 64
        E 0 90 4f 64
        E 0 90 53 64
        E 240 80 4f 64
        E 0 80 53 64
        E 0 90 54 64
        E 241 80 54 64
        E 0 90 54 65
        E 0 90 4e 65
        E 0 90 48 65
        E 0 90 30 65
        E 0 90 2a 65
        E 0 90 24 64
        E 238 80 24 64
        E 0 90 2a 64
        E 240 80 2a 64
        E 1 90 30 64
        E 240 80 30 64
        E 1 90 36 64
        E 237 80 54 65
        E 0 80 4e 65
        E 0 80 48 65
        E 0 80 30 65
        E 0 80 2a 65
        E 0 80 36 64
        E 1 90 3c 64
        E 238 80 3c 64
        E 0 90 42 64
        E 244 80 42 64
        E 0 90 48 64
        E 238 80 48 64
        E 0 90 4e 64
        E 240 80 4e 64
        E 0 90 54 64
        E 239 80 54 64
        E 0 90 52 67
        E 0 90 4c 65
        E 1 90 45 65
        E 0 90 3f 65
        E 0 90 31 67
        E 1 90 2a 67
        E 0 90 24 64
        E 240 80 52 67
        E 0 80 4c 65
        E 0 80 45 65
        E 0 80 3f 65
        E 0 80 31 67
        E 0 80 2a 67
        E 0 80 24 64
        E 0 90 52 67
        E 0 90 4c 65
        E 0 90 45 65
        E 0 90 3f 65
        E 0 90 31 67
        E 1 90 2a 67
        E 0 90 2a 66
        E 238 80 2a 66
        E 0 90 31 66
        E 242 80 52 67
        E 0 80 4c 65
        E 0 80 45 65
        E 0 80 3f 65
        E 0 80 31 67
        E 0 80 2a 67
        E 0 80 31 66
        E 1 90 46 67
        E 0 90 42 67
        E 0 90 3f 65
        E 0 90 38 64
        E 154 90 46 65
        E 0 90 42 65
        E 0 90 3e 65
        E 84 80 46 67
        E 0 80 42 67
        E 0 80 3f 65
        E 0 80 38 64
        E 0 90 3f 64
        E 77 90 45 65
        E 0 90 41 65
        E 0 90 3d 67
        E 81 80 46 65
        E 0 80 42 65
        E 0 80 3e 65
        E 84 80 3f 64
        E 0 90 44 67
        E 0 90 40 65
        E 0 90 3d 65
        E 0 90 45 64
        E 76 80 45 65
        E 0 80 41 65
        E 0 80 3d 67
        E 81 90 44 65
        E 0 90 3f 67
        E 0 90 3c 65
        E 81 80 44 67
        E 0 80 40 65
        E 0 80 3d 65
        E 0 80 45 64
        E 1 90 4c 64
        E 76 90 43 65
        E 0 90 3f 65
        E 0 90 3b 65
        E 82 80 44 65
        E 0 80 3f 67
        E 0 80 3c 65
        E 80 80 4c 64
        E 0 90 52 66
        E 79 80 43 65
        E 0 80 3f 65
        E 0 80 3b 65
        E 163 80 52 66
        E 0 90 50 65
        E 0 90 48 65
        E 0 90 41 65
        E 0 90 3a 65
        E 0 90 33 65
        E 0 90 2b 65
        E 1 90 24 64
        E 238 80 50 65
        E 0 80 48 65
        E 0 80 41 65
        E 0 80 3a 65
        E 1 80 33 65
        E 0 80 2b 65
        E 0 80 24 64
        E 0 90 50 65
        E 0 90 48 65
        E 0 90 41 65
        E 0 90 3a 65
        E 0 90 33 65
        E 0 90 2b 65
        E 1 90 2b 64
        E 238 80 2b 64
        E 0 90 33 64
        E 238 80 33 64
        E 0 90 3a 64
        E 242 80 50 65
        E 0 80 48 65
        E 0 80 41 65
        E 1 80 3a 65
        E 0 80 33 65
        E 0 80 2b 65
        E 0 80 3a 64
        E 0 90 41 64
        E 240 80 41 64
        E 0 90 48 64
        E 240 80 48 64
        E 0 90 50 64
        E 240 80 50 64
        E 1 90 4b 67
        E 0 90 44 65
        E 0 90 34 65
        E 0 90 2c 65
        E 0 90 24 64
        E 240 80 24 64
        E 0 90 2c 64
        E 236 80 4b 67
        E 1 80 44 65
        E 0 80 34 65
        E 0 80 2c 65
        E 0 80 2c 64
        E 0 90 4b 67
        E 0 90 44 65
        E 0 90 34 65
        E 0 90 2c 65
        E 0 90 34 64
        E 241 80 34 64
        E 0 90 3c 63
        E 239 80 4b 67
        E 0 80 44 65
        E 0 80 34 65
        E 0 80 2c 65
        E 0 80 3c 63
        E 1 90 44 64
        E 241 80 44 64
        E 0 90 4b 66
        E 239 80 4b 66
        E 0 90 4e 67
        E 0 90 46 67
        E 0 90 3d 67
        E 0 90 35 65
        E 1 90 2c 67
        E 0 90 24 64
        E 237 80 24 64
        E 0 90 2c 66
        E 242 80 2c 66
        E 1 90 35 64
        E 238 80 35 64
        E 0 90 3d 66
        E 240 80 4e 67
        E 0 80 46 67
        E 1 80 3d 67
        E 0 80 35 65
        E 1 80 2c 67
        E 0 80 3d 66
        E 0 90 46 66
        E 239 80 46 66
        E 0 90 4e 66
        E 241 80 4e 66
        E 0 90 52 65
        E 0 90 49 65
        E 0 90 3f 67
        E 0 90 36 67
        E 1 90 2d 65
        E 0 90 24 64
        E 237 80 24 64
        E 0 90 2d 64
        E 241 80 52 65
        E 0 80 49 65
        E 1 80 3f 67
        E 0 80 36 67
        E 0 80 2d 65
        E 0 80 2d 64
        E 0 90 36 66
        E 236 80 36 66
        E 0 90 3f 66
        E 243 80 3f 66
        E 0 90 49 64
        E 240 80 49 64
        E 0 90 52 64
        E 238 80 52 64
        E 0 90 4b 67
        E 0 90 41 65
        E 0 90 38 65
        E 1 90 2e 65
        E 0 90 24 64
        E 241 80 24 64
        E 0 90 2e 64
        E 241 80 2e 64
        E 0 90 38 64
        E 238 80 38 64
        E 0 90 41 64
        E 241 80 4b 67
        E 0 80 41 65
        E 0 80 38 65
        E 0 80 2e 65
        E 0 80 41 64
        E 0 90 4b 66
        E 240 80 4b 66
        E 0 90 4e 65
        E 0 90 43 65
        E 1 90 39 65
        E 0 90 2e 67
        E 1 90 24 64
        E 234 80 24 64
        E 1 90 2e 66
        E 242 80 2e 66
        E 0 90 39 64
        E 240 80 4e 65
        E 1 80 43 65
        E 0 80 39 65
        E 0 80 2e 67
        E 0 80 39 64
        E 0 90 43 64
        E 240 80 43 64
        E 0 90 4e 64
        E 238 80 4e 64
        E 0 90 50 67
        E 0 90 45 65
        E 0 90 3a 67
        E 0 90 2f 65
        E 1 90 24 64
        E 241 80 24 64
        E 0 90 2f 64
        E 238 80 50 67
        E 0 80 45 65
        E 0 80 3a 67
        E 1 80 2f 65
        E 0 80 2f 64
        E 0 90 50 67
        E 0 90 45 65
        E 0 90 3a 67
        E 0 90 2f 65
        E 0 90 3a 66
        E 242 80 3a 66
        E 0 90 45 64
        E 238 80 50 67
        E 0 80 45 65
        E 0 80 3a 67
        E 0 80 2f 65
        E 0 80 45 64
        E 1 90 50 66
        E 239 80 50 66
        E 0 90 54 65
        E 0 90 48 65
        E 1 90 3c 65
        E 0 90 30 65
        E 0 90 24 64
        E 240 80 54 65
        E 0 80 48 65
        E 0 80 3c 65
        E 0 80 30 65
        E 0 80 24 64
        E 1 90 54 65
        E 0 90 48 65
        E 0 90 3c 65
        E 0 90 30 65
        E 0 90 30 63
        E 237 80 30 63
        E 0 90 3c 63
        E 241 80 3c 63
        E 0 90 47 64
        E 242 80 47 64
        E 0 90 53 64
        E 239 80 54 65
        E 0 80 48 65
        E 0 80 3c 65
        E 1 80 30 65
        E 0 80 53 64
        E 0 90 54 64
        E 0 90 4f 64
        E 0 90 49 66
        E 0 90 44 66
        E 0 90 3a 64
        E 0 90 34 64
        E 1 90 2f 64
        E 0 90 29 64
        E 0 90 3f 64
        E 0 90 24 64
        E 236 80 24 64
        E 82 80 54 64
        E 0 80 4f 64
        E 0 80 49 66
        E 0 80 44 66
        E 0 80 3a 64
        E 0 80 34 64
        E 0 80 2f 64
        E 0 80 29 64
        E 1 80 3f 64
        E 0 90 54 64
        E 0 90 4e 64
        E 0 90 48 64
        E 0 90 42 64
        E 0 90 3c 64
        E 0 90 36 64
        E 0 90 30 64
        E 0 90 2a 64
        E 1 90 24 64
        E 238 80 24 64
        E 77 80 54 64
        E 0 80 4e 64
        E 0 80 48 64
        E 1 80 42 64
        E 0 80 3c 64
        E 1 80 36 64
        E 0 80 30 64
        E 0 80 2a 64
        E 0 90 52 66
        E 0 90 4c 64
        E 0 90 45 64
        E 0 90 3f 64
        E 0 90 38 64
        E 0 90 31 66
        E 1 90 2a 66
        E 0 90 24 64
        E 240 80 24 64
        E 77 80 52 66
        E 0 80 4c 64
        E 0 80 45 64
        E 1 80 3f 64
        E 0 80 38 64
        E 1 80 31 66
        E 0 80 2a 66
        E 0 90 50 64
        E 0 90 48 64
        E 0 90 41 64
        E 1 90 3a 64
        E 0 90 33 64
        E 0 90 2b 64
        E 0 90 24 64
        E 239 80 24 64
        E 82 80 50 64
        E 0 80 48 64
        E 0 80 41 64
        E 0 80 3a 64
        E 1 80 33 64
        E 0 80 2b 64
        E 0 90 4b 66
        E 0 90 44 64
        E 0 90 3c 63
        E 0 90 34 64
        E 0 90 2c 64
        E 0 90 24 64
        E 237 80 24 64
        E 81 80 4b 66
        E 0 80 44 64
        E 1 80 3c 63
        E 0 80 34 64
        E 0 80 2c 64
        E 0 90 46 66
        E 0 90 3d 66
        E 0 90 35 64
        E 1 90 2c 66
        E 0 90 24 64
        E 239 80 24 64
        E 80 80 46 66
        E 0 80 3d 66
        E 0 80 35 64
        E 0 80 2c 66
        E 0 90 49 64
        E 1 90 3f 66
        E 0 90 36 66
        E 0 90 2d 64
        E 0 90 24 64
        E 237 80 24 64
        E 82 80 49 64
        E 0 80 3f 66
        E 0 80 36 66
        E 0 80 2d 64
        E 0 90 4b 66
        E 1 90 41 64
        E 0 90 38 64
        E 0 90 2e 64
        E 0 90 24 64
        E 237 80 24 64
        E 79 80 4b 66
        E 0 80 41 64
        E 0 80 38 64
        E 1 80 2e 64
        E 0 90 4e 64
        E 0 90 43 64
        E 0 90 39 64
        E 0 90 2e 66
        E 0 90 24 64
        E 237 80 24 64
        E 84 80 4e 64
        E 0 80 43 64
        E 0 80 39 64
        E 0 80 2e 66
        E 1 90 50 66
        E 0 90 45 64
        E 0 90 3a 66
        E 1 90 2f 64
        E 0 90 24 64
        E 238 80 24 64
        E 78 80 50 66
        E 0 80 45 64
        E 0 80 3a 66
        E 0 80 2f 64
        E 0 90 53 64
        E 0 90 47 64
        E 0 90 3c 63
        E 0 90 30 63
        E 0 90 24 64
        E 244 80 24 64
        E 75 80 53 64
        E 1 80 47 64
        E 0 80 3c 63
        E 0 80 30 63
        E 0 90 54 64
        E 1 90 4f 64
        E 0 90 49 66
        E 0 90 44 66
        E 0 90 3a 64
        E 0 90 34 64
        E 0 90 2f 64
        E 1 90 29 64
        E 0 90 3f 64
        E 0 90 24 64
        E 271 80 24 64
        E 91 80 54 64
        E 0 80 4f 64
        E 0 80 49 66
        E 0 80 44 66
        E 0 80 3a 64
        E 0 80 34 64
        E 0 80 2f 64
        E 0 80 29 64
        E 0 80 3f 64
        E 0 90 54 64
        E 0 90 4e 64
        E 0 90 48 64
        E 0 90 42 64
        E 0 90 3c 64
        E 0 90 36 64
        E 1 90 30 64
        E 0 90 2a 64
        E 0 90 24 64
        E 266 80 24 64
        E 92 80 54 64
        E 0 80 4e 64
        E 0 80 48 64
        E 0 80 42 64
        E 0 80 3c 64
        E 0 80 36 64
        E 0 80 30 64
        E 0 80 2a 64
        E 0 90 52 66
        E 0 90 4c 64
        E 1 90 45 64
        E 0 90 3f 64
        E 0 90 38 64
        E 0 90 31 66
        E 0 90 2a 66
        E 0 90 24 64
        E 266 80 24 64
        E 93 80 52 66
        E 0 80 4c 64
        E 1 80 45 64
        E 0 80 3f 64
        E 0 80 38 64
        E 1 80 31 66
        E 0 80 2a 66
        E 0 90 50 64
        E 0 90 48 64
        E 0 90 41 64
        E 0 90 3a 64
        E 0 90 33 64
        E 0 90 2b 64
        E 0 90 24 64
        E 266 80 24 64
        E 91 80 50 64
        E 0 80 48 64
        E 0 80 41 64
        E 0 80 3a 64
        E 0 80 33 64
        E 0 80 2b 64
        E 0 90 4b 66
        E 0 90 44 64
        E 0 90 3c 63
        E 0 90 34 64
        E 1 90 2c 64
        E 0 90 24 64
        E 268 80 24 64
        E 92 80 4b 66
        E 0 80 44 64
        E 0 80 3c 63
        E 0 80 34 64
        E 0 80 2c 64
        E 0 90 46 66
        E 1 90 3d 66
        E 0 90 35 64
        E 0 90 2c 66
        E 0 90 24 64
        E 268 80 24 64
        E 91 80 46 66
        E 0 80 3d 66
        E 1 80 35 64
        E 0 80 2c 66
        E 0 90 49 64
        E 0 90 3f 66
        E 0 90 36 66
        E 0 90 2d 64
        E 0 90 24 64
        E 266 80 24 64
        E 92 80 49 64
        E 0 80 3f 66
        E 0 80 36 66
        E 0 80 2d 64
        E 0 90 4b 66
        E 0 90 41 64
        E 0 90 38 64
        E 0 90 2e 64
        E 1 90 24 64
        E 270 80 24 64
        E 87 80 4b 66
        E 0 80 41 64
        E 0 80 38 64
        E 0 80 2e 64
        E 0 90 4e 64
        E 0 90 43 64
        E 1 90 39 64
        E 0 90 2e 66
        E 0 90 24 64
        E 270 80 24 64
        E 90 80 4e 64
        E 0 80 43 64
        E 0 80 39 64
        E 0 80 2e 66
        E 0 90 50 66
        E 0 90 45 64
        E 0 90 3a 66
        E 0 90 2f 64
        E 0 90 24 64
        E 269 80 24 64
        E 91 80 50 66
        E 0 80 45 64
        E 0 80 3a 66
        E 0 80 2f 64
        E 1 90 53 64
        E 0 90 47 64
        E 0 90 3c 63
        E 0 90 30 63
        E 0 90 24 64
        E 278 80 53 64
        E 0 80 30 63
        E 0 80 24 64
        E 97 80 47 64
        E 0 80 3c 63
        E 0 90 53 64
        E 1 90 48 63
        E 0 90 3a 66
        E 0 90 30 63
        E 0 90 24 64
        E 277 80 53 64
        E 0 80 3a 66
        E 94 80 48 63
        E 1 80 30 63
        E 0 80 24 64
        E 0 90 54 64
        E 0 90 47 64
        E 1 90 3a 66
        E 0 90 30 64
        E 0 90 25 64
        E 374 80 54 64
        E 0 80 47 64
        E 0 80 3a 66
        E 0 80 30 64
        E 0 80 25 64
        E 0 90 53 64
        E 1 90 48 64
        E 0 90 3c 63
        E 0 90 31 64
        E 0 90 25 66
        E 279 80 31 64
        E 93 80 53 64
        E 0 80 48 64
        E 0 80 3c 63
        E 0 80 25 66
        E 0 90 52 66
        E 0 90 48 63
        E 0 90 3b 64
        E 1 90 31 64
        E 0 90 24 64
        E 282 80 24 64
        E 89 80 52 66
        E 0 80 48 63
        E 0 80 3b 64
        E 1 80 31 64
        E 0 90 53 64
        E 0 90 47 64
        E 0 90 3c 63
        E 0 90 30 63
        E 0 90 24 64
        E 352 80 53 64
        E 0 80 47 64
        E 0 80 3c 63
        E 0 80 30 63
        E 0 80 24 64
        E 116 90 53 64
        E 0 90 47 64
        E 0 90 3c 63
        E 0 90 30 63
        E 1 90 24 64
        E 349 80 53 64
        E 0 80 47 64
        E 1 80 3c 63
        E 0 80 30 63
        E 0 80 24 64
        E 120 90 53 64
        E 0 90 47 64
        E 0 90 3c 63
        E 0 90 30 63
        E 1 90 24 64
        E 348 80 53 64
        E 0 80 3c 63
        E 0 80 30 63
        E 116 80 47 64
        E 0 80 24 64
        E 0 90 46 67
        E 1 90 53 64
        E 0 90 48 64
        E 0 90 3c 63
        E 0 90 32 64
        E 0 90 30 63
        E 0 90 26 64
        E 354 80 46 67
        E 0 80 53 64
        E 0 80 48 64
        E 0 80 3c 63
        E 1 80 32 64
        E 0 80 30 63
        E 0 80 26 64
        E 115 90 46 67
        E 0 90 53 64
        E 0 90 48 64
        E 0 90 3c 63
        E 0 90 32 64
        E 0 90 30 63
        E 0 90 26 64
        E 349 80 53 64
        E 0 80 3c 63
        E 0 80 32 64
        E 0 80 30 63
        E 119 80 46 67
        E 0 80 48 64
        E 0 80 26 64
        E 0 90 46 65
        E 0 90 53 64
        E 1 90 46 66
        E 0 90 3c 63
        E 0 90 32 64
        E 0 90 30 63
        E 0 90 29 63
        E 351 80 46 65
        E 0 80 53 64
        E 0 80 46 66
        E 0 80 3c 63
        E 0 80 32 64
        E 0 80 30 63
        E 0 80 29 63
        E 114 90 46 65
        E 0 90 53 64
        E 1 90 46 66
        E 0 90 3c 63
        E 0 90 32 64
        E 0 90 30 63
        E 0 90 29 63
        E 352 80 46 65
        E 0 80 53 64
        E 1 80 46 66
        E 0 80 3c 63
        E 0 80 32 64
        E 0 80 30 63
        E 0 80 29 63
        E 116 90 46 65
        E 0 90 53 64
        E 0 90 46 66
        E 0 90 3c 63
        E 0 90 32 64
        E 0 90 30 63
        E 0 90 29 63
        E 350 80 46 66
        E 0 80 32 64
        E 0 80 30 63
        E 116 80 46 65
        E 0 80 53 64
        E 0 80 3c 63
        E 1 80 29 63
        E 0 90 44 67
        E 0 90 54 63
        E 0 90 46 66
        E 0 90 3a 66
        E 0 90 32 64
        E 0 90 30 63
        E 0 90 2a 66
        E 527 80 44 67
        E 0 80 54 63
        E 0 80 46 66
        E 1 80 3a 66
        E 0 80 32 64
        E 0 80 30 63
        E 0 80 2a 66
        E 173 90 44 67
        E 0 90 54 63
        E 0 90 46 66
        E 1 90 3a 66
        E 0 90 32 64
        E 0 90 30 63
        E 0 90 2a 66
        E 705 80 44 67
        E 0 80 54 63
        E 0 80 46 66
        E 0 80 3a 66
        E 0 80 32 64
        E 0 80 30 63
        E 0 80 2a 66
        E 0 90 44 65
        E 0 90 32 65
        E 1 90 54 64
        E 0 90 48 63
        E 0 90 3b 64
        E 0 90 2d 64
        E 524 80 44 65
        E 0 80 32 65
        E 1 80 54 64
        E 0 80 48 63
        E 3 80 3b 64
        E 0 80 2d 64
        E 173 90 44 65
        E 0 90 32 65
        E 0 90 54 64
        E 0 90 48 63
        E 1 90 3b 64
        E 0 90 2d 64
        E 526 80 54 64
        E 174 80 44 65
        E 0 80 32 65
        E 0 80 48 63
        E 0 80 3b 64
        E 1 80 2d 64
        E 0 90 41 65
        E 0 90 54 64
        E 0 90 47 64
        E 0 90 46 66
        E 0 90 3c 63
        E 0 90 32 64
        E 0 90 30 63
        E 523 80 41 65
        E 0 80 54 64
        E 0 80 47 64
        E 0 80 46 66
        E 1 80 3c 63
        E 0 80 32 64
        E 0 80 30 63
        E 34 90 41 65
        E 0 90 54 64
        E 0 90 48 63
        E 0 90 46 66
        E 0 90 3c 64
        E 0 90 32 64
        E 0 90 2f 64
        E 531 80 41 65
        E 0 80 54 64
        E 0 80 48 63
        E 0 80 46 66
        E 1 80 3c 64
        E 0 80 32 64
        E 0 80 2f 64
        E 32 90 43 65
        E 0 90 54 64
        E 0 90 48 63
        E 0 90 46 64
        E 0 90 3c 64
        E 0 90 32 64
        E 0 90 30 63
        E 523 80 43 65
        E 0 80 54 64
        E 0 80 48 63
        E 0 80 46 64
        E 0 80 3c 64
        E 0 80 32 64
        E 0 80 30 63
        E 38 90 43 65
        E 1 90 54 64
        E 0 90 47 64
        E 0 90 46 64
        E 0 90 3c 63
        E 0 90 32 64
        E 1 90 30 64
        E 528 80 43 65
        E 0 80 54 64
        E 0 80 47 64
        E 0 80 46 64
        E 1 80 3c 63
        E 0 80 32 64
        E 0 80 30 64
        E 31 90 41 65
        E 0 90 54 64
        E 0 90 47 64
        E 0 90 46 66
        E 1 90 3c 64
        E 0 90 32 64
        E 0 90 30 63
        E 525 80 54 64
        E 0 80 32 64
        E 0 80 30 63
        E 37 90 43 65
        E 0 90 54 64
        E 0 90 46 66
        E 0 90 41 63
        E 0 90 32 64
        E 1 90 30 63
        E 208 80 41 65
        E 0 80 47 64
        E 0 80 46 66
        E 0 80 3c 64
        E 591 80 43 65
        E 0 80 54 64
        E 0 80 46 66
        E 1 80 41 63
        E 0 80 32 64
        E 0 80 30 63
        E 269 90 43 65
        E 0 90 54 64
        E 0 90 46 66
        E 0 90 41 63
        E 0 90 32 64
        E 0 90 30 63
        E 797 80 43 65
        E 0 80 54 64
        E 0 80 46 66
        E 0 80 41 63
        E 0 80 32 64
        E 0 80 30 63
        E 267 90 43 65
        E 0 90 54 64
        E 0 90 46 66
        E 0 90 41 63
        E 1 90 32 64
        E 0 90 30 63
        E 800 80 54 64
        E 0 80 32 64
        E 0 80 30 63
        E 265 80 43 65
        E 0 80 46 66
        E 1 80 41 63
        E 0 90 41 65
        E 0 90 54 64
        E 0 90 47 64
        E 0 90 46 66
        E 0 90 3c 63
        E 1 90 32 64
        E 0 90 30 63
        E 1066 80 41 65
        E 0 80 54 64
        E 0 80 47 64
        E 0 80 46 66
        E 1 80 3c 63
        E 0 80 32 64
        E 0 80 30 63
        E 267 90 41 65
        E 0 90 54 64
        E 0 90 47 64
        E 0 90 46 66
        E 0 90 3c 63
        E 0 90 32 64
        E 0 90 30 63
        E 1599 80 41 65
        E 0 80 54 64
        E 0 80 47 64
        E 0 80 46 66
        E 0 80 3c 63
        E 0 80 32 64
        E 0 80 30 63
        E 265 90 43 65
        E 0 90 54 64
        E 0 90 46 66
        E 1 90 41 63
        E 0 90 32 64
        E 0 90 30 63
        E 800 80 43 65
        E 0 80 54 64
        E 0 80 46 66
        E 1 80 41 63
        E 0 80 32 64
        E 0 80 30 63
        E 0 90 43 65
        E 0 90 54 64
        E 0 90 46 66
        E 0 90 41 63
        E 0 90 32 64
        E 0 90 30 63
        E 532 80 43 65
        E 0 80 54 64
        E 0 80 46 66
        E 0 80 41 63
        E 1 80 32 64
        E 0 80 30 63
        E 176 90 43 65
        E 0 90 54 64
        E 0 90 46 66
        E 0 90 41 63
        E 0 90 32 64
        E 0 90 30 63
        E 358 90 43 65
        E 0 90 54 64
        E 0 90 46 66
        E 0 90 41 63
        E 0 90 32 64
        E 1 90 30 63
        E 174 80 43 65
        E 0 80 54 64
        E 0 80 46 66
        E 0 80 41 63
        E 0 80 32 64
        E 0 80 30 63
        E 891 80 43 65
        E 0 80 54 64
        E 0 80 46 66
        E 0 80 41 63
        E 0 80 32 64
        E 0 80 30 63
        E 0 90 43 65
        E 0 90 54 64
        E 0 90 46 66
        E 0 90 41 63
        E 0 90 32 64
        E 0 90 30 63
        E 533 80 43 65
        E 0 80 54 64
        E 0 80 46 66
        E 1 80 41 63
        E 0 80 32 64
        E 0 80 30 63
        E 264 90 43 65
        E 0 90 47 65
        E 0 90 54 64
        E 1 90 46 66
        E 0 90 41 63
        E 1 90 35 64
        E 0 90 30 63
        E 268 80 43 65
        E 0 80 47 65
        E 0 80 54 64
        E 0 80 46 66
        E 0 80 41 63
        E 0 80 35 64
        E 1 80 30 63
        E 0 90 43 65
        E 0 90 47 65
        E 0 90 54 64
        E 0 90 46 66
        E 0 90 41 63
        E 0 90 35 64
        E 0 90 30 63
        E 1063 80 43 65
        E 0 80 47 65
        E 1 80 54 64
        E 0 80 46 66
        E 0 80 41 63
        E 0 80 35 64
        E 0 80 30 63
        E 0 90 43 65
        E 0 90 47 65
        E 0 90 54 64
        E 0 90 46 66
        E 0 90 41 63
        E 1 90 35 64
        E 0 90 30 63
        E 801 80 43 65
        E 0 80 47 65
        E 0 80 54 64
        E 0 80 46 66
        E 0 80 41 63
        E 0 80 35 64
        E 1 80 30 63
        E 262 90 43 65
        E 0 90 33 65
        E 0 90 54 64
        E 0 90 46 66
        E 0 90 41 63
        E 1 90 30 63
        E 6402 80 43 65
        E 2132 80 33 65
        E 0 80 54 64
        E 0 80 46 66
        E 0 80 41 63
        E 0 80 30 63
        E 0 90 33 65
        E 0 90 54 64
        E 1 90 46 66
        E 0 90 41 63
        E 4265 80 33 65
        E 4268 80 54 64
        E 0 80 46 66
        E 1 80 41 63
        E 0 90 54 64
        E 0 90 41 63
        E 8530 80 54 64
        E 0 80 41 63
        E 0 90 40 65
        E 0 90 54 64
        E 0 90 41 63
        E 4268 90 54 65
        E 4267 80 54 65
        E 0 80 40 65
        E 0 80 54 64
        E 0 80 41 63
        E 0 90 54 65
        E 0 90 54 64
        E 1 90 41 63
        E 6399 90 40 65
        E 2132 80 54 65
        E 0 80 40 65
        E 0 80 54 64
        E 0 80 41 63
        E 0 90 54 65
        E 0 90 40 65
        E 0 90 54 64
        E 0 90 41 63
        E 4269 90 41 64
        E 4268 80 54 65
        E 0 80 40 65
        E 0 80 54 64
        E 0 80 41 63
        E 0 80 41 64
        E 0 90 54 65
        E 1 90 40 65
        E 0 90 54 64
        E 0 90 41 63
        E 0 90 41 64
        E 2130 80 54 65
        E 2133 90 47 64
        E 4267 80 40 65
        E 0 80 54 64
        E 0 80 47 64
        E 0 80 41 63
        E 0 80 41 64
        E 0 90 54 64
        E 0 90 47 64
        E 0 90 41 63
        E 0 90 41 64
        E 2132 90 54 63
        E 2132 80 41 64
        E 4271 80 54 64
        E 0 80 47 64
        E 0 80 41 63
        E 0 80 54 63
        E 0 90 54 65
        E 0 90 54 64
        E 0 90 47 64
        E 0 90 41 63
        E 0 90 54 63
        E 1 90 41 64
        E 4263 80 47 64
        E 4264 80 54 65
        E 0 80 54 64
        E 0 80 41 63
        E 1 80 54 63
        E 0 80 41 64
        E 0 90 54 65
        E 0 90 54 64
        E 0 90 41 63
        E 0 90 54 63
        E 4268 80 54 63
        E 2135 90 47 64
        E 2130 80 54 65
        E 0 80 54 64
        E 1 80 47 64
        E 0 80 41 63
        E 0 90 54 65
        E 1 90 40 65
        E 0 90 54 64
        E 0 90 47 64
        E 0 90 41 63
        E 6403 90 54 63
        E 2131 80 54 65
        E 0 80 40 65
        E 0 80 54 64
        E 0 80 47 64
        E 1 80 41 63
        E 0 80 54 63
        E 0 90 54 65
        E 0 90 40 65
        E 0 90 54 64
        E 0 90 47 64
        E 0 90 41 63
        E 0 90 54 63
        E 8533 80 54 65
        E 0 80 40 65
        E 0 80 54 64
        E 0 80 47 64
        E 0 80 41 63
        E 0 80 54 63
        E 1 90 54 65
        E 0 90 40 65
        E 0 90 54 64
        E 0 90 47 64
        E 0 90 41 63
        E 0 90 54 63
        E 8531 80 54 65
        E 1 80 40 65
        E 0 80 54 64
        E 0 80 47 64
        E 1 80 41 63
        E 0 80 54 63
        E 1 90 54 65
        E 0 90 40 65
        E 0 90 54 64
        E 1 90 41 63
        E 0 90 54 63
        E 8532 80 54 65
        E 1 80 40 65
        E 0 80 54 64
        E 1 80 41 63
        E 0 80 54 63
        E 1 90 54 65
        E 0 90 54 64
        E 0 90 41 63
        E 1 90 54 63
        E 0 90 41 64
        E 2128 90 41 65
        E 2133 80 54 63
        E 4269 80 54 65
        E 0 80 41 65
        E 0 80 54 64
        E 0 80 41 63
        E 0 80 41 64
        E 0 90 54 65
        E 1 90 41 65
        E 0 90 54 64
        E 0 90 41 64
        E 6396 80 54 64
        E 2136 80 54 65
        E 0 80 41 65
        E 0 80 41 64
        E 0 90 54 65
        E 0 90 41 65
        E 0 90 41 64
        E 2130 80 41 65
        E 6659 b0 7b 00
        E 0 b1 7b 00
        E 0 b2 7b 00
        E 1 b3 7b 00
        E 0 b4 7b 00
        E 0 b5 7b 00
        E 0 b6 7b 00
        E 0 b7 7b 00
        E 0 b8 7b 00
        E 0 b9 7b 00
        E 0 ba 7b 00
        E 0 bb 7b 00
        E 0 bc 7b 00
        E 1 bd 7b 00
        E 0 be 7b 00
        E 1 bf 7b 00
        E 0 80 54 00
        E 0 80 41 00
        E 0 b0 79 00
        E 1 b1 79 00
        E 0 b2 79 00
        E 0 b3 79 00
        E 0 b4 79 00
        E 1 b5 79 00
        E 0 b6 79 00
        E 1 b7 79 00
        E 0 b8 79 00
        E 0 b9 79 00
        E 0 ba 79 00
        E 1 bb 79 00
        E 0 bc 79 00
        E 0 bd 79 00
        E 0 be 79 00
        E 0 bf 79 00
        E 25117 b0 7b 00
        CCINTERP 32
        CHASE_CC_TAKEOFFS 1
        GUID {ECFDF2C5-F61D-4664-B420-B843B3124523}
        IGNTEMPO 0 120 4 4
        SRCCOLOR 6
      >
    >
  >
>
