<REAPER_PROJECT 0.1 "6.43/OSX64" 1641556913
  <NOTES 2
  >
  RIPPLE 0
  GROUPOVERRIDE 0 0 0
  AUTOXFADE 1
  ENVATTACH 3
  POOLEDENVATTACH 0
  MIXERUIFLAGS 11 48
  PEAKGAIN 1
  FEEDBACK 0
  PANLAW 1
  PROJOFFS 0 0 0
  MAXPROJLEN 0 600
  GRID 3454 8 1 8 1 0 0 0
  TIMEMODE 1 5 -1 30 0 0 -1
  VIDEO_CONFIG 0 0 256
  PANMODE 3
  CURSOR 11.70220766051003
  ZOOM 10.71592674117138 0 0
  VZOOMEX 6 0
  USE_REC_CFG 0
  RECMODE 1
  SMPTESYNC 0 30 100 40 1000 300 0 0 1 0 0
  LOOP 0
  LOOPGRAN 0 4
  RECORD_PATH "" ""
  <RECORD_CFG
  >
  <APPLYFX_CFG
  >
  RENDER_FILE ""
  RENDER_PATTERN ""
  RENDER_FMT 0 2 0
  RENDER_1X 0
  RENDER_RANGE 1 0 0 18 1000
  RENDER_RESAMPLE 3 0 1
  RENDER_ADDTOPROJ 0
  RENDER_STEMS 0
  RENDER_DITHER 0
  TIMELOCKMODE 1
  TEMPOENVLOCKMODE 1
  ITEMMIX 0
  DEFPITCHMODE 589824 0
  TAKELANE 1
  SAMPLERATE 44100 0 0
  <RENDER_CFG
  >
  LOCK 1
  <METRONOME 6 2
    VOL 0.25 0.125
    FREQ 800 1600 1
    BEATLEN 4
    SAMPLES "" ""
    PATTERN 2863311530 2863311529
    MULT 1
  >
  GLOBAL_AUTO -1
  TEMPO 120 4 4
  PLAYRATE 1 0 0.25 4
  SELECTION 0 0
  SELECTION2 0 0
  MASTERAUTOMODE 0
  MASTERTRACKHEIGHT 0 0
  MASTERPEAKCOL 16576
  MASTERMUTESOLO 0
  MASTERTRACKVIEW 0 0.6667 0.5 0.5 0 -1 0 0 0 0 -1 -1 0
  MASTERHWOUT 0 0 1 0 0 0 0 -1
  MASTER_NCH 2 2
  MASTER_VOLUME 1 0 -1 -1 1
  MASTER_FX 1
  MASTER_SEL 0
  <MASTERPLAYSPEEDENV
    EGUID {CA28D298-5BC6-AB99-4166-971D1A128298}
    ACT 0 -1
    VIS 0 1 1
    LANEHEIGHT 0 0
    ARM 0
    DEFSHAPE 0 -1 -1
  >
  <TEMPOENVEX
    EGUID {BFC0309C-62B8-FA7F-6066-AAE400248C74}
    ACT 0 -1
    VIS 1 0 1
    LANEHEIGHT 0 0
    ARM 0
    DEFSHAPE 1 -1 -1
  >
  <PROJBAY
  >
  <TRACK {31562577-D202-7F46-B03D-6D2C27C221DF}
    NAME "vivaldi olimpiade"
    PEAKCOL 16576
    BEAT -1
    AUTOMODE 0
    VOLPAN 1 0 -1 -1 1
    MUTESOLO 0 0 0
    IPHASE 0
    PLAYOFFS 0 1
    ISBUS 0 0
    BUSCOMP 0 0 0 0 0
    SHOWINMIX 1 0.6667 0.5 1 0.5 -1 -1 -1
    FREEMODE 0
    SEL 1
    REC 0 4192 1 0 0 0 0
    VU 2
    TRACKHEIGHT 251 0 0 0 0 0
    INQ 0 0 0 0.5 100 0 0 100
    NCHAN 2
    FX 1
    TRACKID {31562577-D202-7F46-B03D-6D2C27C221DF}
    PERF 0
    MIDIOUT -1
    MAINSEND 1 0
    <ITEM
      POSITION 0
      SNAPOFFS 0
      LENGTH 10697.717708333334
      LOOP 1
      ALLTAKES 0
      FADEIN 1 0 0 1 0 0 0
      FADEOUT 1 0 0 1 0 0 0
      MUTE 0 0
      SEL 1
      IGUID {7F872707-775A-6D44-B9B9-EB7B0CF77BBB}
      IID 1
      NAME "01-vivaldi olimpiade-Recorded MIDI"
      VOLPAN 1 0 1 -1
      SOFFS 0 0
      PLAYRATE 1 1 0 -1 0 0.0025
      CHANMODE 0
      GUID {C476D4D1-EE48-8747-9F85-AE5457F41D8B}
      RECPASS 1
      <SOURCE MIDI
        HASDATA 1 960 QN
        CCINTERP 32
        POOLEDEVTS {93E13960-6A19-4C49-BB2A-A75AE734CB7B}
        E 23997 92 48 64
        E 0 93 40 5a
        E 0 9f 30 5a
        E 119 82 48 64
        E 0 92 48 64
        E 120 82 48 64
        E 0 92 4a 64
        E 120 82 4a 64
        E 1 92 48 64
        E 120 82 48 64
        E 0 83 40 64
        E 0 8f 30 64
        E 0 92 48 64
        E 0 93 40 5a
        E 1 9f 30 5a
        E 116 82 48 64
        E 0 92 48 64
        E 123 82 48 64
        E 0 92 4a 64
        E 119 82 4a 64
        E 0 92 48 64
        E 119 82 48 64
        E 1 83 40 64
        E 1 8f 30 64
        E 1 92 48 64
        E 0 93 40 5a
        E 0 9f 30 5a
        E 117 82 48 64
        E 0 92 48 64
        E 121 82 48 64
        E 0 92 4a 64
        E 119 82 4a 64
        E 0 92 48 64
        E 123 82 48 64
        E 0 83 40 64
        E 0 8f 30 64
        E 0 92 48 64
        E 0 93 40 5a
        E 0 9f 30 5a
        E 116 82 48 64
        E 1 92 48 64
        E 120 82 48 64
        E 0 92 4a 64
        E 120 82 4a 64
        E 0 92 48 64
        E 122 82 48 64
        E 0 83 40 64
        E 0 8f 30 64
        E 0 92 48 64
        E 0 93 40 5a
        E 0 9f 30 5a
        E 119 82 48 64
        E 0 92 48 64
        E 120 82 48 64
        E 0 92 4a 64
        E 119 82 4a 64
        E 0 92 48 64
        E 121 82 48 64
        E 0 83 40 64
        E 0 8f 30 64
        E 2 92 48 64
        E 0 93 40 5a
        E 1 9f 30 5a
        E 116 82 48 64
        E 0 92 48 64
        E 121 82 48 64
        E 0 92 4a 64
        E 119 82 4a 64
        E 0 92 48 64
        E 122 82 48 64
        E 1 83 40 64
        E 0 8f 30 64
        E 2 92 48 64
        E 0 93 40 5a
        E 0 9f 30 5a
        E 115 82 48 64
        E 0 92 48 64
        E 122 82 48 64
        E 0 92 4a 64
        E 118 82 4a 64
        E 0 92 48 64
        E 120 82 48 64
        E 0 83 40 64
        E 0 8f 30 64
        E 0 92 48 64
        E 0 93 40 5a
        E 0 9f 30 5a
        E 120 82 48 64
        E 0 92 48 64
        E 121 82 48 64
        E 0 92 4a 64
        E 119 82 4a 64
        E 0 92 48 64
        E 121 82 48 64
        E 0 83 40 64
        E 0 8f 30 64
        E 0 92 4f 64
        E 0 93 3e 5a
        E 0 9f 2f 5a
        E 119 82 4f 64
        E 0 92 4f 64
        E 121 82 4f 64
        E 0 92 51 64
        E 119 82 51 64
        E 1 92 4f 64
        E 120 82 4f 64
        E 0 83 3e 64
        E 0 8f 2f 64
        E 0 92 4f 64
        E 0 93 3e 5a
        E 0 9f 2f 5a
        E 119 82 4f 64
        E 0 92 4f 64
        E 121 82 4f 64
        E 0 92 51 64
        E 120 82 51 64
        E 1 92 4f 64
        E 120 82 4f 64
        E 0 83 3e 64
        E 0 8f 2f 64
        E 0 92 4f 64
        E 0 93 3e 5a
        E 0 9f 2f 5a
        E 118 82 4f 64
        E 0 92 4f 64
        E 121 82 4f 64
        E 0 92 51 64
        E 119 82 51 64
        E 1 92 4f 64
        E 121 82 4f 64
        E 0 83 3e 64
        E 0 8f 2f 64
        E 0 92 4f 64
        E 1 93 3e 5a
        E 1 9f 2f 5a
        E 115 82 4f 64
        E 0 92 4f 64
        E 122 82 4f 64
        E 1 92 51 64
        E 118 82 51 64
        E 1 92 4f 64
        E 120 82 4f 64
        E 0 83 3e 64
        E 0 8f 2f 64
        E 0 92 4f 64
        E 0 93 3e 5a
        E 0 9f 2f 5a
        E 120 82 4f 64
        E 0 92 4f 64
        E 119 82 4f 64
        E 1 92 51 64
        E 120 82 51 64
        E 0 92 4f 64
        E 120 82 4f 64
        E 0 83 3e 64
        E 0 8f 2f 64
        E 0 92 4f 64
        E 0 93 3e 5a
        E 0 9f 2f 5a
        E 120 82 4f 64
        E 0 92 4f 64
        E 119 82 4f 64
        E 1 92 51 64
        E 121 82 51 64
        E 1 92 4f 64
        E 119 82 4f 64
        E 0 83 3e 64
        E 0 8f 2f 64
        E 2 92 4f 64
        E 0 93 3e 5a
        E 0 9f 2f 5a
        E 119 82 4f 64
        E 0 92 4f 64
        E 118 82 4f 64
        E 1 92 51 64
        E 119 82 51 64
        E 0 92 4f 64
        E 121 82 4f 64
        E 0 83 3e 64
        E 0 8f 2f 64
        E 0 92 4f 64
        E 0 93 3e 5a
        E 0 9f 2f 5a
        E 119 82 4f 64
        E 0 92 4f 64
        E 121 82 4f 64
        E 0 92 51 64
        E 119 82 51 64
        E 0 92 4f 64
        E 121 82 4f 64
        E 0 83 3e 64
        E 0 8f 2f 64
        E 0 92 54 64
        E 0 93 3c 5a
        E 0 9f 2d 5a
        E 117 82 54 64
        E 1 92 54 64
        E 120 82 54 64
        E 0 92 56 64
        E 120 82 56 64
        E 0 92 54 64
        E 120 82 54 64
        E 2 83 3c 64
        E 0 8f 2d 64
        E 0 92 54 64
        E 0 93 3c 5a
        E 0 9f 2d 5a
        E 118 82 54 64
        E 1 92 54 64
        E 120 82 54 64
        E 0 92 56 64
        E 120 82 56 64
        E 1 92 54 64
        E 119 82 54 64
        E 0 83 3c 64
        E 0 8f 2d 64
        E 0 92 54 64
        E 0 93 3c 5a
        E 0 9f 2d 5a
        E 119 82 54 64
        E 0 92 54 64
        E 122 82 54 64
        E 0 92 56 64
        E 118 82 56 64
        E 0 92 54 64
        E 121 82 54 64
        E 0 83 3c 64
        E 0 8f 2d 64
        E 0 92 54 64
        E 0 93 3c 5a
        E 0 9f 2d 5a
        E 119 82 54 64
        E 0 92 54 64
        E 122 82 54 64
        E 0 92 56 64
        E 120 82 56 64
        E 0 92 54 64
        E 119 82 54 64
        E 0 83 3c 64
        E 0 8f 2d 64
        E 0 92 54 64
        E 1 93 3c 5a
        E 0 9f 2d 5a
        E 118 82 54 64
        E 0 92 54 64
        E 121 82 54 64
        E 0 92 56 64
        E 119 82 56 64
        E 0 92 54 64
        E 121 82 54 64
        E 0 83 3c 64
        E 0 8f 2d 64
        E 1 92 54 64
        E 0 93 3c 5a
        E 0 9f 2d 5a
        E 119 82 54 64
        E 0 92 54 64
        E 120 82 54 64
        E 0 92 56 64
        E 120 82 56 64
        E 0 92 54 64
        E 120 82 54 64
        E 0 83 3c 64
        E 0 8f 2d 64
        E 0 92 54 64
        E 0 93 3c 5a
        E 0 9f 2d 5a
        E 119 82 54 64
        E 0 92 54 64
        E 121 82 54 64
        E 0 92 56 64
        E 118 82 56 64
        E 0 92 54 64
        E 122 82 54 64
        E 0 83 3c 64
        E 0 8f 2d 64
        E 0 92 54 64
        E 0 93 3c 5a
        E 0 9f 2d 5a
        E 119 82 54 64
        E 0 92 54 64
        E 122 82 54 64
        E 0 92 56 64
        E 118 82 56 64
        E 0 92 54 64
        E 120 82 54 64
        E 0 83 3c 64
        E 0 8f 2d 64
        E 0 92 53 64
        E 1 93 3b 5a
        E 0 9f 2b 5a
        E 120 8f 2b 64
        E 0 9f 2b 5a
        E 121 83 3b 64
        E 0 8f 2b 64
        E 0 93 3b 5a
        E 0 9f 2d 5a
        E 117 8f 2d 64
        E 0 9f 2b 5a
        E 123 82 53 64
        E 0 83 3b 64
        E 0 8f 2b 64
        E 0 92 37 64
        E 0 93 3b 5a
        E 0 9f 2b 5a
        E 118 8f 2b 64
        E 0 9f 2b 5a
        E 122 83 3b 64
        E 0 8f 2b 64
        E 0 93 3b 5a
        E 0 9f 2d 5a
        E 119 8f 2d 64
        E 0 9f 2b 5a
        E 122 82 37 64
        E 0 83 3b 64
        E 0 8f 2b 64
        E 0 93 3b 5a
        E 0 9f 2b 5a
        E 118 8f 2b 64
        E 0 9f 2b 5a
        E 120 83 3b 64
        E 0 8f 2b 64
        E 0 92 4f 64
        E 0 93 3b 5a
        E 0 9f 2d 5a
        E 120 8f 2d 64
        E 0 9f 2b 5a
        E 119 82 4f 64
        E 0 83 3b 64
        E 0 8f 2b 64
        E 0 92 4a 64
        E 0 93 3b 5a
        E 0 9f 2b 5a
        E 119 8f 2b 64
        E 1 9f 2b 5a
        E 121 82 4a 64
        E 0 83 3b 64
        E 0 8f 2b 64
        E 0 92 47 64
        E 1 93 3b 5a
        E 0 9f 2d 5a
        E 119 8f 2d 64
        E 0 9f 2b 5a
        E 119 82 47 64
        E 0 83 3b 64
        E 0 8f 2b 64
        E 0 92 37 64
        E 0 93 3b 5a
        E 0 9f 2b 5a
        E 120 8f 2b 64
        E 0 9f 2b 5a
        E 122 83 3b 64
        E 0 8f 2b 64
        E 0 93 3b 5a
        E 0 9f 2d 5a
        E 118 8f 2d 64
        E 0 9f 2b 5a
        E 122 83 3b 64
        E 1 8f 2b 64
        E 0 93 3b 5a
        E 0 9f 2b 5a
        E 117 8f 2b 64
        E 1 9f 2b 5a
        E 120 83 3b 64
        E 0 8f 2b 64
        E 0 93 3b 5a
        E 0 9f 2d 5a
        E 119 8f 2d 64
        E 0 9f 2b 5a
        E 122 82 37 64
        E 0 83 3b 64
        E 0 8f 2b 64
        E 1 93 3b 5a
        E 0 9f 2b 5a
        E 118 8f 2b 64
        E 0 9f 2b 5a
        E 121 83 3b 64
        E 1 8f 2b 64
        E 0 92 4d 64
        E 0 93 3b 5a
        E 0 9f 2d 5a
        E 117 8f 2d 64
        E 0 9f 2b 5a
        E 121 82 4d 64
        E 0 83 3b 64
        E 0 8f 2b 64
        E 2 92 4a 64
        E 5 93 3b 5a
        E 1 9f 2b 5a
        E 113 8f 2b 64
        E 1 9f 2b 5a
        E 118 82 4a 64
        E 0 83 3b 64
        E 0 8f 2b 64
        E 0 92 47 64
        E 0 93 3b 5a
        E 1 9f 2d 5a
        E 118 8f 2d 64
        E 1 9f 2b 5a
        E 120 82 47 64
        E 0 83 3b 64
        E 0 8f 2b 64
        E 0 92 37 64
        E 0 93 3c 5a
        E 0 9f 2b 5a
        E 119 8f 2b 64
        E 0 9f 2b 5a
        E 121 83 3c 64
        E 0 8f 2b 64
        E 0 93 3c 5a
        E 0 9f 2d 5a
        E 119 8f 2d 64
        E 0 9f 2b 5a
        E 123 83 3c 64
        E 0 8f 2b 64
        E 0 93 3c 5a
        E 0 9f 2b 5a
        E 116 8f 2b 64
        E 1 9f 2b 5a
        E 122 83 3c 64
        E 0 8f 2b 64
        E 0 93 3c 5a
        E 0 9f 2d 5a
        E 118 8f 2d 64
        E 0 9f 2b 5a
        E 121 82 37 64
        E 0 83 3c 64
        E 0 8f 2b 64
        E 0 93 3c 5a
        E 0 9f 2b 5a
        E 119 8f 2b 64
        E 0 9f 2b 5a
        E 122 83 3c 64
        E 0 8f 2b 64
        E 0 92 4c 64
        E 0 93 3c 5a
        E 0 9f 2d 5a
        E 118 8f 2d 64
        E 0 9f 2b 5a
        E 124 82 4c 64
        E 0 83 3c 64
        E 0 8f 2b 64
        E 2 92 48 64
        E 1 93 3c 5a
        E 1 9f 2b 5a
        E 113 8f 2b 64
        E 0 9f 2b 5a
        E 120 82 48 64
        E 0 83 3c 64
        E 0 8f 2b 64
        E 0 92 43 64
        E 0 93 3c 5a
        E 0 9f 2d 5a
        E 120 8f 2d 64
        E 1 9f 2b 5a
        E 123 82 43 64
        E 0 83 3c 64
        E 0 8f 2b 64
        E 0 92 37 64
        E 1 93 37 5a
        E 0 9f 2b 5a
        E 955 82 37 64
        E 0 83 37 64
        E 0 8f 2b 64
        E 1441 92 48 64
        E 1 93 3c 5a
        E 0 9f 34 5a
        E 118 82 48 64
        E 1 92 48 64
        E 119 82 48 64
        E 0 83 3c 64
        E 0 8f 34 64
        E 0 92 4a 64
        E 1 93 3c 5a
        E 0 9f 34 5a
        E 119 82 4a 64
        E 0 92 48 64
        E 120 82 48 64
        E 0 83 3c 64
        E 0 8f 34 64
        E 0 92 48 64
        E 0 93 3c 5a
        E 0 9f 34 5a
        E 118 82 48 64
        E 0 92 48 64
        E 122 82 48 64
        E 0 83 3c 64
        E 0 8f 34 64
        E 0 92 4a 64
        E 0 93 3c 5a
        E 0 9f 34 5a
        E 118 82 4a 64
        E 0 92 48 64
        E 122 82 48 64
        E 0 83 3c 64
        E 0 8f 34 64
        E 0 92 48 64
        E 1 93 3c 5a
        E 0 9f 34 5a
        E 119 82 48 64
        E 0 92 48 64
        E 120 82 48 64
        E 0 83 3c 64
        E 0 8f 34 64
        E 0 92 4a 64
        E 0 93 3c 5a
        E 0 9f 34 5a
        E 118 82 4a 64
        E 1 92 48 64
        E 121 82 48 64
        E 0 83 3c 64
        E 0 8f 34 64
        E 0 92 48 64
        E 0 93 3c 5a
        E 0 9f 34 5a
        E 120 82 48 64
        E 0 92 48 64
        E 121 82 48 64
        E 0 83 3c 64
        E 0 8f 34 64
        E 0 92 4a 64
        E 0 93 3c 5a
        E 0 9f 34 5a
        E 117 82 4a 64
        E 0 92 48 64
        E 124 82 48 64
        E 0 83 3c 64
        E 0 8f 34 64
        E 0 92 46 66
        E 0 93 3c 5a
        E 0 9f 34 5a
        E 118 82 46 66
        E 0 92 46 66
        E 120 82 46 66
        E 0 83 3c 64
        E 0 8f 34 64
        E 0 92 48 64
        E 0 93 3c 5a
        E 0 9f 34 5a
        E 119 82 48 64
        E 0 92 46 66
        E 122 82 46 66
        E 0 83 3c 64
        E 0 8f 34 64
        E 0 92 46 66
        E 0 93 3c 5a
        E 0 9f 34 5a
        E 118 82 46 66
        E 1 92 46 66
        E 120 82 46 66
        E 0 83 3c 64
        E 0 8f 34 64
        E 0 92 48 64
        E 0 93 3c 5a
        E 0 9f 34 5a
        E 120 82 48 64
        E 0 92 46 66
        E 121 82 46 66
        E 1 83 3c 64
        E 0 8f 34 64
        E 0 92 46 66
        E 0 93 3c 5a
        E 0 9f 34 5a
        E 118 82 46 66
        E 0 92 46 66
        E 120 82 46 66
        E 0 83 3c 64
        E 1 8f 34 64
        E 0 92 48 64
        E 0 93 3c 5a
        E 0 9f 34 5a
        E 117 82 48 64
        E 0 92 46 66
        E 122 82 46 66
        E 0 83 3c 64
        E 0 8f 34 64
        E 0 92 46 66
        E 0 93 3c 5a
        E 0 9f 34 5a
        E 119 82 46 66
        E 0 92 46 66
        E 121 82 46 66
        E 0 83 3c 64
        E 0 8f 34 64
        E 0 92 48 64
        E 0 93 3c 5a
        E 0 9f 34 5a
        E 120 82 48 64
        E 0 92 46 66
        E 120 82 46 66
        E 0 83 3c 64
        E 0 8f 34 64
        E 0 92 45 64
        E 0 93 3c 5a
        E 0 9f 35 5a
        E 120 82 45 64
        E 0 8f 35 64
        E 0 92 41 64
        E 0 9f 35 5a
        E 121 82 41 64
        E 0 83 3c 64
        E 0 8f 35 64
        E 0 92 43 64
        E 0 93 39 5a
        E 0 9f 37 5a
        E 118 82 43 64
        E 0 8f 37 64
        E 0 92 41 64
        E 0 9f 35 5a
        E 121 82 41 64
        E 0 83 39 64
        E 0 8f 35 64
        E 0 92 41 64
        E 0 93 39 5a
        E 0 9f 35 5a
        E 120 82 41 64
        E 0 8f 35 64
        E 0 92 41 64
        E 2 9f 35 5a
        E 118 82 41 64
        E 0 83 39 64
        E 0 8f 35 64
        E 0 92 43 64
        E 0 93 39 5a
        E 1 9f 37 5a
        E 119 82 43 64
        E 0 8f 37 64
        E 1 92 41 64
        E 0 9f 35 5a
        E 119 82 41 64
        E 0 83 39 64
        E 0 8f 35 64
        E 1 92 41 64
        E 0 93 39 5a
        E 0 9f 35 5a
        E 119 82 41 64
        E 0 8f 35 64
        E 0 92 41 64
        E 1 9f 35 5a
        E 119 82 41 64
        E 0 83 39 64
        E 0 8f 35 64
        E 0 92 43 64
        E 0 93 39 5a
        E 0 9f 37 5a
        E 120 82 43 64
        E 0 8f 37 64
        E 0 92 41 64
        E 0 9f 35 5a
        E 121 82 41 64
        E 0 83 39 64
        E 0 8f 35 64
        E 1 92 41 64
        E 0 93 39 5a
        E 0 9f 35 5a
        E 119 82 41 64
        E 0 8f 35 64
        E 0 92 41 64
        E 0 9f 35 5a
        E 119 82 41 64
        E 0 83 39 64
        E 0 8f 35 64
        E 0 92 43 64
        E 0 93 39 5a
        E 0 9f 37 5a
        E 119 82 43 64
        E 0 8f 37 64
        E 0 92 41 64
        E 0 9f 35 5a
        E 123 82 41 64
        E 0 83 39 64
        E 0 8f 35 64
        E 0 92 4a 64
        E 0 93 3e 5a
        E 0 9f 36 5a
        E 118 82 4a 64
        E 0 92 4a 64
        E 121 82 4a 64
        E 0 83 3e 64
        E 0 8f 36 64
        E 0 92 4c 64
        E 0 93 3e 5a
        E 0 9f 36 5a
        E 118 82 4c 64
        E 0 92 4a 64
        E 121 82 4a 64
        E 0 83 3e 64
        E 1 8f 36 64
        E 0 92 4a 64
        E 0 93 3e 5a
        E 0 9f 36 5a
        E 118 82 4a 64
        E 0 92 4a 64
        E 120 82 4a 64
        E 0 83 3e 64
        E 0 8f 36 64
        E 1 92 4c 64
        E 0 93 3e 5a
        E 0 9f 36 5a
        E 120 82 4c 64
        E 0 92 4a 64
        E 121 82 4a 64
        E 0 83 3e 64
        E 0 8f 36 64
        E 0 92 4a 64
        E 0 93 3e 5a
        E 0 9f 36 5a
        E 118 82 4a 64
        E 0 92 4a 64
        E 121 82 4a 64
        E 0 83 3e 64
        E 0 8f 36 64
        E 1 92 4c 64
        E 0 93 3e 5a
        E 0 9f 36 5a
        E 119 82 4c 64
        E 0 92 4a 64
        E 120 82 4a 64
        E 0 83 3e 64
        E 0 8f 36 64
        E 1 92 4a 64
        E 0 93 3e 5a
        E 0 9f 36 5a
        E 118 82 4a 64
        E 0 92 4a 64
        E 122 82 4a 64
        E 0 83 3e 64
        E 0 8f 36 64
        E 1 92 4c 64
        E 0 93 3e 5a
        E 0 9f 36 5a
        E 118 82 4c 64
        E 0 92 4a 64
        E 120 82 4a 64
        E 0 83 3e 64
        E 0 8f 36 64
        E 0 92 48 64
        E 0 93 3e 5a
        E 0 9f 36 5a
        E 119 82 48 64
        E 0 92 48 64
        E 121 82 48 64
        E 0 83 3e 64
        E 0 8f 36 64
        E 0 92 4a 64
        E 0 93 3e 5a
        E 0 9f 36 5a
        E 118 82 4a 64
        E 0 92 48 64
        E 122 82 48 64
        E 0 83 3e 64
        E 0 8f 36 64
        E 0 92 48 64
        E 0 93 3e 5a
        E 0 9f 36 5a
        E 119 82 48 64
        E 0 92 48 64
        E 120 82 48 64
        E 1 83 3e 64
        E 0 8f 36 64
        E 0 92 4a 64
        E 0 93 3e 5a
        E 0 9f 36 5a
        E 119 82 4a 64
        E 0 92 48 64
        E 121 82 48 64
        E 0 83 3e 64
        E 0 8f 36 64
        E 1 92 48 64
        E 0 93 3e 5a
        E 0 9f 36 5a
        E 118 82 48 64
        E 0 92 48 64
        E 121 82 48 64
        E 0 83 3e 64
        E 0 8f 36 64
        E 1 92 4a 64
        E 0 93 3e 5a
        E 0 9f 36 5a
        E 120 82 4a 64
        E 0 92 48 64
        E 120 82 48 64
        E 0 83 3e 64
        E 0 8f 36 64
        E 0 92 48 64
        E 1 93 3e 5a
        E 0 9f 36 5a
        E 118 82 48 64
        E 0 92 48 64
        E 121 82 48 64
        E 0 83 3e 64
        E 0 8f 36 64
        E 0 92 4a 64
        E 0 93 3e 5a
        E 0 9f 36 5a
        E 118 82 4a 64
        E 0 92 48 64
        E 122 82 48 64
        E 0 83 3e 64
        E 0 8f 36 64
        E 0 92 47 64
        E 1 93 3e 5a
        E 0 9f 37 5a
        E 117 82 47 64
        E 0 8f 37 64
        E 0 92 43 64
        E 0 9f 37 5a
        E 122 82 43 64
        E 0 83 3e 64
        E 0 8f 37 64
        E 0 92 45 64
        E 0 93 3b 5a
        E 0 9f 39 5a
        E 119 82 45 64
        E 0 8f 39 64
        E 0 92 43 64
        E 0 9f 37 5a
        E 121 82 43 64
        E 0 83 3b 64
        E 0 8f 37 64
        E 1 92 43 64
        E 0 93 3b 5a
        E 0 9f 37 5a
        E 116 82 43 64
        E 0 8f 37 64
        E 0 92 43 64
        E 0 9f 37 5a
        E 123 82 43 64
        E 0 83 3b 64
        E 0 8f 37 64
        E 0 92 45 64
        E 0 93 3b 5a
        E 1 9f 39 5a
        E 116 82 45 64
        E 0 8f 39 64
        E 1 92 43 64
        E 0 9f 37 5a
        E 122 82 43 64
        E 0 83 3b 64
        E 0 8f 37 64
        E 0 92 43 64
        E 0 93 3b 5a
        E 0 9f 37 5a
        E 118 82 43 64
        E 0 8f 37 64
        E 0 92 43 64
        E 0 9f 37 5a
        E 121 82 43 64
        E 0 83 3b 64
        E 0 8f 37 64
        E 0 92 45 64
        E 1 93 3b 5a
        E 0 9f 39 5a
        E 119 82 45 64
        E 0 8f 39 64
        E 0 92 43 64
        E 0 9f 37 5a
        E 120 82 43 64
        E 0 83 3b 64
        E 0 8f 37 64
        E 0 92 43 64
        E 0 93 3b 5a
        E 0 9f 37 5a
        E 119 82 43 64
        E 0 8f 37 64
        E 0 92 43 64
        E 0 9f 37 5a
        E 121 82 43 64
        E 0 83 3b 64
        E 0 8f 37 64
        E 0 92 45 64
        E 0 93 3b 5a
        E 0 9f 39 5a
        E 118 82 45 64
        E 0 8f 39 64
        E 1 92 43 64
        E 0 9f 37 5a
        E 122 82 43 64
        E 0 83 3b 64
        E 0 8f 37 64
        E 0 93 43 5a
        E 0 9f 2b 5a
        E 119 8f 2b 64
        E 1 9f 2b 5a
        E 119 8f 2b 64
        E 0 9f 2c 5b
        E 119 8f 2c 66
        E 0 9f 2b 5a
        E 120 83 43 64
        E 0 8f 2b 64
        E 0 93 43 5a
        E 0 9f 2b 5a
        E 483 83 43 64
        E 0 8f 2b 64
        E 0 93 43 5a
        E 478 83 43 64
        E 0 93 43 5a
        E 480 83 43 64
        E 0 92 54 64
        E 0 93 44 5b
        E 0 9f 2b 5a
        E 120 8f 2b 64
        E 0 9f 2b 5a
        E 38 92 53 64
        E 81 82 54 64
        E 0 8f 2b 64
        E 0 9f 2c 5b
        E 81 92 54 64
        E 39 8f 2c 66
        E 0 9f 2b 5a
        E 38 82 53 64
        E 83 83 44 66
        E 1 8f 2b 64
        E 0 92 54 64
        E 0 93 44 5b
        E 0 9f 2b 5a
        E 77 82 54 64
        E 79 92 53 64
        E 89 82 54 64
        E 74 92 54 64
        E 77 82 53 64
        E 91 83 44 66
        E 0 8f 2b 64
        E 2 92 54 64
        E 0 93 44 5b
        E 68 82 54 64
        E 81 92 53 64
        E 82 82 54 64
        E 78 92 54 64
        E 77 82 53 64
        E 84 83 44 66
        E 0 92 54 64
        E 0 93 44 5b
        E 79 82 54 64
        E 78 92 53 64
        E 83 82 54 64
        E 78 92 54 64
        E 81 82 53 64
        E 82 83 44 66
        E 0 92 54 64
        E 0 93 3e 5a
        E 0 9f 2b 5a
        E 82 82 54 64
        E 37 8f 2b 64
        E 0 9f 2b 5a
        E 121 82 54 64
        E 0 8f 2b 64
        E 0 92 54 64
        E 1 9f 2c 5b
        E 117 8f 2c 66
        E 0 9f 2b 5a
        E 121 82 54 64
        E 0 83 3e 64
        E 0 8f 2b 64
        E 0 92 50 66
        E 0 93 3e 5a
        E 0 9f 2b 5a
        E 241 82 50 66
        E 0 92 50 66
        E 240 82 50 66
        E 0 83 3e 64
        E 0 8f 2b 64
        E 0 92 4d 64
        E 0 93 3e 5a
        E 240 82 4d 64
        E 0 92 4d 64
        E 239 82 4d 64
        E 0 83 3e 64
        E 1 92 4a 64
        E 0 93 3e 5a
        E 240 82 4a 64
        E 0 92 4a 64
        E 238 82 4a 64
        E 0 83 3e 64
        E 3 92 52 66
        E 0 93 43 5a
        E 0 9f 2b 5a
        E 118 8f 2b 64
        E 0 9f 2b 5a
        E 39 92 51 64
        E 81 82 52 66
        E 0 8f 2b 64
        E 0 9f 2c 5b
        E 79 92 52 66
        E 40 8f 2c 66
        E 0 9f 2b 5a
        E 39 82 51 64
        E 82 83 43 64
        E 0 8f 2b 64
        E 0 92 52 66
        E 0 93 43 5a
        E 0 9f 2b 5a
        E 80 82 52 66
        E 77 92 51 64
        E 83 82 52 66
        E 80 92 52 66
        E 77 82 51 64
        E 85 83 43 64
        E 0 8f 2b 64
        E 0 92 52 66
        E 0 93 43 5a
        E 77 82 52 66
        E 81 92 51 64
        E 81 82 52 66
        E 77 92 52 66
        E 79 82 51 64
        E 83 83 43 64
        E 0 92 52 66
        E 1 93 43 5a
        E 77 82 52 66
        E 81 92 51 64
        E 81 82 52 66
        E 79 92 52 66
        E 80 82 51 64
        E 81 83 43 64
        E 0 92 52 66
        E 0 93 3c 5a
        E 0 9f 2b 5a
        E 80 82 52 66
        E 40 8f 2b 64
        E 0 9f 2b 5a
        E 120 82 52 66
        E 0 8f 2b 64
        E 0 92 52 66
        E 0 9f 2c 5b
        E 120 8f 2c 66
        E 0 9f 2b 5a
        E 121 82 52 66
        E 0 83 3c 64
        E 0 8f 2b 64
        E 0 92 4f 64
        E 0 93 3c 5a
        E 0 9f 2b 5a
        E 239 82 4f 64
        E 0 92 4f 64
        E 239 82 4f 64
        E 0 83 3c 64
        E 0 8f 2b 64
        E 1 92 4b 66
        E 0 93 3c 5a
        E 241 82 4b 66
        E 0 92 4b 66
        E 239 82 4b 66
        E 0 83 3c 64
        E 1 92 48 64
        E 0 93 3c 5a
        E 240 82 48 64
        E 0 92 48 64
        E 239 82 48 64
        E 0 83 3c 64
        E 0 92 50 66
        E 0 93 41 5a
        E 0 9f 2b 5a
        E 119 8f 2b 64
        E 0 9f 2b 5a
        E 38 92 4f 64
        E 83 82 50 66
        E 0 8f 2b 64
        E 0 9f 2c 5b
        E 80 92 50 66
        E 40 8f 2c 66
        E 0 9f 2b 5a
        E 37 82 4f 64
        E 82 83 41 64
        E 1 8f 2b 64
        E 0 92 50 66
        E 0 93 41 5a
        E 0 9f 2b 5a
        E 80 82 50 66
        E 79 92 4f 64
        E 81 82 50 66
        E 80 92 50 66
        E 77 82 4f 64
        E 83 83 41 64
        E 0 8f 2b 64
        E 0 92 50 66
        E 0 93 41 5a
        E 78 82 50 66
        E 79 92 4f 64
        E 82 82 50 66
        E 81 92 50 66
        E 77 82 4f 64
        E 84 83 41 64
        E 1 92 50 66
        E 0 93 41 5a
        E 76 82 50 66
        E 80 92 4f 64
        E 82 82 50 66
        E 80 92 50 66
        E 77 82 4f 64
        E 83 83 41 64
        E 1 92 4e 64
        E 0 93 44 5b
        E 0 9f 2b 5a
        E 77 82 50 66
        E 41 8f 2b 64
        E 0 9f 2b 5a
        E 40 92 4c 64
        E 81 82 4e 64
        E 0 8f 2b 64
        E 0 9f 2c 5b
        E 78 92 4e 64
        E 41 8f 2c 66
        E 0 9f 2b 5a
        E 39 82 4c 64
        E 83 83 44 66
        E 0 8f 2b 64
        E 1 92 4e 64
        E 0 93 44 5b
        E 0 9f 2b 5a
        E 76 82 4e 64
        E 79 92 4c 64
        E 83 82 4e 64
        E 80 92 4e 64
        E 79 82 4c 64
        E 81 83 44 66
        E 0 8f 2b 64
        E 0 92 4e 64
        E 0 93 44 5b
        E 78 82 4e 64
        E 79 92 4c 64
        E 85 82 4e 64
        E 78 92 4e 64
        E 78 82 4c 64
        E 81 83 44 66
        E 0 92 4e 64
        E 0 93 44 5b
        E 80 82 4e 64
        E 79 92 4c 64
        E 83 82 4e 64
        E 78 92 4e 64
        E 79 82 4c 64
        E 84 83 44 66
        E 0 92 4f 64
        E 0 93 43 5a
        E 0 9f 2b 5a
        E 77 82 4e 64
        E 39 82 4f 64
        E 0 92 4f 64
        E 122 82 4f 64
        E 0 83 43 64
        E 0 8f 2b 64
        E 0 92 51 64
        E 0 93 43 5a
        E 0 9f 2b 5a
        E 120 82 51 64
        E 0 92 4f 64
        E 120 82 4f 64
        E 0 83 43 64
        E 0 8f 2b 64
        E 0 92 4a 64
        E 0 93 43 5a
        E 0 9f 2b 5a
        E 121 82 4a 64
        E 0 92 4a 64
        E 120 82 4a 64
        E 0 83 43 64
        E 0 8f 2b 64
        E 0 92 4c 64
        E 0 93 43 5a
        E 0 9f 2b 5a
        E 118 82 4c 64
        E 0 92 4a 64
        E 121 82 4a 64
        E 0 83 43 64
        E 0 8f 2b 64
        E 0 92 47 64
        E 1 93 3e 5a
        E 0 9f 2b 5a
        E 118 82 47 64
        E 0 92 47 64
        E 122 82 47 64
        E 0 83 3e 64
        E 0 8f 2b 64
        E 0 92 48 64
        E 0 93 3e 5a
        E 0 9f 2b 5a
        E 118 82 48 64
        E 0 92 47 64
        E 122 82 47 64
        E 0 83 3e 64
        E 0 8f 2b 64
        E 0 92 43 64
        E 0 93 3b 5a
        E 0 9f 2b 5a
        E 119 82 43 64
        E 0 92 43 64
        E 120 82 43 64
        E 0 83 3b 64
        E 0 8f 2b 64
        E 0 92 45 64
        E 0 93 3b 5a
        E 0 9f 2b 5a
        E 119 82 45 64
        E 0 92 43 64
        E 121 82 43 64
        E 0 83 3b 64
        E 0 8f 2b 64
        E 1 92 3e 64
        E 0 93 3e 5a
        E 0 9f 32 5a
        E 118 8f 32 64
        E 0 9f 32 5a
        E 121 82 3e 64
        E 0 83 3e 64
        E 0 8f 32 64
        E 0 92 51 64
        E 0 93 3e 5a
        E 0 9f 34 5a
        E 120 8f 34 64
        E 0 9f 32 5a
        E 120 82 51 64
        E 0 83 3e 64
        E 0 8f 32 64
        E 0 92 4e 64
        E 0 93 3e 5a
        E 0 9f 32 5a
        E 119 8f 32 64
        E 0 9f 32 5a
        E 121 82 4e 64
        E 0 83 3e 64
        E 0 8f 32 64
        E 0 92 4a 64
        E 0 93 3e 5a
        E 0 9f 34 5a
        E 119 8f 34 64
        E 0 9f 32 5a
        E 121 82 4a 64
        E 0 83 3e 64
        E 0 8f 32 64
        E 0 92 3e 64
        E 0 93 3e 5a
        E 0 9f 32 5a
        E 119 8f 32 64
        E 0 9f 32 5a
        E 122 82 3e 64
        E 0 83 3e 64
        E 0 8f 32 64
        E 0 92 53 64
        E 0 93 3e 5a
        E 0 9f 34 5a
        E 119 8f 34 64
        E 0 9f 32 5a
        E 121 82 53 64
        E 0 83 3e 64
        E 0 8f 32 64
        E 0 92 4f 64
        E 0 93 3e 5a
        E 0 9f 32 5a
        E 118 8f 32 64
        E 0 9f 32 5a
        E 122 82 4f 64
        E 0 83 3e 64
        E 0 8f 32 64
        E 0 92 4a 64
        E 1 93 3e 5a
        E 0 9f 34 5a
        E 118 8f 34 64
        E 0 9f 32 5a
        E 122 82 4a 64
        E 0 83 3e 64
        E 1 8f 32 64
        E 0 92 3e 64
        E 0 93 3e 5a
        E 0 9f 32 5a
        E 117 8f 32 64
        E 0 9f 32 5a
        E 120 82 3e 64
        E 0 83 3e 64
        E 0 8f 32 64
        E 0 92 51 64
        E 0 93 3e 5a
        E 0 9f 34 5a
        E 118 8f 34 64
        E 1 9f 32 5a
        E 121 82 51 64
        E 0 83 3e 64
        E 0 8f 32 64
        E 0 92 4e 64
        E 0 93 3e 5a
        E 1 9f 32 5a
        E 118 8f 32 64
        E 0 9f 32 5a
        E 121 82 4e 64
        E 0 83 3e 64
        E 0 8f 32 64
        E 0 92 4a 64
        E 0 93 3e 5a
        E 0 9f 34 5a
        E 120 8f 34 64
        E 0 9f 32 5a
        E 120 82 4a 64
        E 0 83 3e 64
        E 0 8f 32 64
        E 0 92 3e 64
        E 0 93 3e 5a
        E 0 9f 32 5a
        E 119 8f 32 64
        E 0 9f 32 5a
        E 122 82 3e 64
        E 0 83 3e 64
        E 0 8f 32 64
        E 0 92 53 64
        E 0 93 3e 5a
        E 0 9f 34 5a
        E 118 8f 34 64
        E 0 9f 32 5a
        E 121 82 53 64
        E 0 83 3e 64
        E 0 8f 32 64
        E 0 92 4f 64
        E 0 93 3e 5a
        E 0 9f 32 5a
        E 119 8f 32 64
        E 0 9f 32 5a
        E 121 82 4f 64
        E 0 83 3e 64
        E 0 8f 32 64
        E 0 92 4a 64
        E 0 93 3e 5a
        E 0 9f 34 5a
        E 119 8f 34 64
        E 0 9f 32 5a
        E 122 82 4a 64
        E 0 83 3e 64
        E 0 8f 32 64
        E 0 92 3e 64
        E 0 93 42 5a
        E 0 9f 32 5a
        E 239 82 3e 64
        E 0 83 42 64
        E 0 8f 32 64
        E 0 92 48 64
        E 0 93 42 5a
        E 0 9f 32 5a
        E 239 82 48 64
        E 0 83 42 64
        E 0 8f 32 64
        E 0 92 4a 64
        E 0 92 48 64
        E 1 93 42 5a
        E 0 9f 32 5a
        E 240 82 48 64
        E 0 83 42 64
        E 0 8f 32 64
        E 0 92 47 64
        E 0 93 42 5a
        E 0 9f 32 5a
        E 120 82 47 64
        E 0 92 45 64
        E 119 82 4a 64
        E 1 82 45 64
        E 0 83 42 64
        E 0 8f 32 64
        E 0 92 4a 64
        E 1 92 48 64
        E 1 93 42 5a
        E 2 9f 32 5a
        E 236 82 48 64
        E 0 83 42 64
        E 0 8f 32 64
        E 1 92 47 64
        E 0 93 42 5a
        E 0 9f 32 5a
        E 118 82 47 64
        E 0 92 45 64
        E 121 82 4a 64
        E 0 82 45 64
        E 0 83 42 64
        E 0 8f 32 64
        E 0 92 4a 64
        E 0 92 48 64
        E 1 93 42 5a
        E 0 9f 32 5a
        E 238 82 48 64
        E 0 83 42 64
        E 0 8f 32 64
        E 1 92 47 64
        E 0 93 42 5a
        E 0 9f 32 5a
        E 120 82 47 64
        E 0 92 45 64
        E 121 82 4a 64
        E 0 82 45 64
        E 0 83 42 64
        E 0 8f 32 64
        E 0 92 47 64
        E 0 93 3e 5a
        E 0 9f 2b 5a
        E 240 82 47 64
        E 0 83 3e 64
        E 0 8f 2b 64
        E 0 92 4f 64
        E 1 93 3e 5a
        E 0 9f 2b 5a
        E 117 82 4f 64
        E 0 92 4e 64
        E 122 82 4e 64
        E 0 83 3e 64
        E 0 8f 2b 64
        E 0 92 4c 64
        E 0 93 3e 5a
        E 0 9f 2b 5a
        E 119 82 4c 64
        E 0 92 4a 64
        E 119 82 4a 64
        E 0 83 3e 64
        E 0 8f 2b 64
        E 0 92 48 64
        E 1 93 3e 5a
        E 0 9f 2b 5a
        E 120 82 48 64
        E 0 92 47 64
        E 119 82 47 64
        E 0 83 3e 64
        E 0 8f 2b 64
        E 0 92 45 64
        E 0 93 42 5a
        E 0 9f 32 5a
        E 241 82 45 64
        E 0 83 42 64
        E 0 8f 32 64
        E 0 92 42 64
        E 0 93 42 5a
        E 0 9f 32 5a
        E 240 82 42 64
        E 0 83 42 64
        E 0 8f 32 64
        E 0 92 3e 64
        E 1 93 42 5a
        E 1 9f 32 5a
        E 239 82 3e 64
        E 0 83 42 64
        E 0 8f 32 64
        E 0 92 4e 64
        E 0 93 42 5a
        E 0 9f 32 5a
        E 241 82 4e 64
        E 0 83 42 64
        E 0 8f 32 64
        E 0 92 4a 64
        E 0 92 48 64
        E 0 93 42 5a
        E 0 9f 32 5a
        E 239 82 48 64
        E 0 83 42 64
        E 0 8f 32 64
        E 0 92 47 64
        E 0 93 42 5a
        E 0 9f 32 5a
        E 120 82 47 64
        E 0 92 45 64
        E 119 82 4a 64
        E 0 82 45 64
        E 0 83 42 64
        E 0 8f 32 64
        E 0 92 4a 64
        E 0 92 48 64
        E 0 93 42 5a
        E 0 9f 32 5a
        E 240 82 48 64
        E 0 83 42 64
        E 0 8f 32 64
        E 1 92 47 64
        E 0 93 42 5a
        E 0 9f 32 5a
        E 119 82 47 64
        E 0 92 45 64
        E 121 82 4a 64
        E 0 82 45 64
        E 0 83 42 64
        E 0 8f 32 64
        E 0 92 4a 64
        E 0 92 48 64
        E 0 93 42 5a
        E 0 9f 32 5a
        E 240 82 48 64
        E 0 83 42 64
        E 0 8f 32 64
        E 1 92 47 64
        E 0 93 42 5a
        E 0 9f 32 5a
        E 117 82 47 64
        E 0 92 45 64
        E 123 82 4a 64
        E 0 82 45 64
        E 0 83 42 64
        E 0 8f 32 64
        E 0 92 4a 64
        E 0 92 48 64
        E 0 93 42 5a
        E 0 9f 32 5a
        E 238 82 48 64
        E 0 83 42 64
        E 0 8f 32 64
        E 0 92 47 64
        E 1 93 42 5a
        E 0 9f 32 5a
        E 119 82 47 64
        E 0 92 45 64
        E 121 82 4a 64
        E 0 82 45 64
        E 0 83 42 64
        E 0 8f 32 64
        E 0 92 47 64
        E 0 93 3e 5a
        E 0 9f 2b 5a
        E 240 82 47 64
        E 0 83 3e 64
        E 0 8f 2b 64
        E 0 92 4f 64
        E 0 93 3e 5a
        E 0 9f 2b 5a
        E 119 82 4f 64
        E 0 92 4e 64
        E 119 82 4e 64
        E 0 83 3e 64
        E 0 8f 2b 64
        E 0 92 4c 64
        E 0 93 3e 5a
        E 1 9f 2b 5a
        E 119 82 4c 64
        E 0 92 4a 64
        E 121 82 4a 64
        E 0 83 3e 64
        E 0 8f 2b 64
        E 0 92 48 64
        E 0 93 3e 5a
        E 0 9f 2b 5a
        E 119 82 48 64
        E 0 92 47 64
        E 122 82 47 64
        E 0 83 3e 64
        E 0 8f 2b 64
        E 1 92 45 64
        E 0 93 3e 5a
        E 0 9f 32 5a
        E 238 82 45 64
        E 0 83 3e 64
        E 0 8f 32 64
        E 0 92 42 64
        E 0 93 3e 5a
        E 0 9f 32 5a
        E 241 82 42 64
        E 0 83 3e 64
        E 0 8f 32 64
        E 0 92 3e 64
        E 0 93 3e 5a
        E 0 9f 32 5a
        E 239 82 3e 64
        E 0 83 3e 64
        E 0 8f 32 64
        E 0 92 4e 64
        E 0 93 3e 5a
        E 1 9f 32 5a
        E 238 82 4e 64
        E 0 83 3e 64
        E 1 8f 32 64
        E 0 92 43 64
        E 0 93 3b 5a
        E 0 9f 37 5a
        E 119 82 43 64
        E 0 92 43 64
        E 122 82 43 64
        E 0 83 3b 64
        E 0 92 45 64
        E 0 93 3b 5a
        E 119 82 45 64
        E 0 92 43 64
        E 121 82 43 64
        E 0 83 3b 64
        E 0 8f 37 64
        E 0 92 43 64
        E 0 93 3b 5a
        E 0 9f 37 5a
        E 118 82 43 64
        E 0 92 43 64
        E 121 82 43 64
        E 0 83 3b 64
        E 0 92 45 64
        E 0 93 3b 5a
        E 118 82 45 64
        E 0 92 43 64
        E 123 82 43 64
        E 1 83 3b 64
        E 0 8f 37 64
        E 0 92 43 64
        E 0 93 3b 5a
        E 0 9f 37 5a
        E 117 82 43 64
        E 0 92 43 64
        E 121 82 43 64
        E 0 83 3b 64
        E 0 92 45 64
        E 0 93 3b 5a
        E 120 82 45 64
        E 0 92 43 64
        E 121 82 43 64
        E 0 83 3b 64
        E 0 8f 37 64
        E 0 92 43 64
        E 0 93 3b 5a
        E 0 9f 37 5a
        E 118 82 43 64
        E 0 92 43 64
        E 121 82 43 64
        E 0 83 3b 64
        E 0 92 45 64
        E 0 93 3b 5a
        E 119 82 45 64
        E 0 92 43 64
        E 121 82 43 64
        E 0 83 3b 64
        E 0 8f 37 64
        E 0 92 43 64
        E 0 93 3b 5a
        E 0 9f 37 5a
        E 120 82 43 64
        E 0 92 43 64
        E 119 82 43 64
        E 0 83 3b 64
        E 1 92 45 64
        E 0 93 3b 5a
        E 119 82 45 64
        E 0 92 43 64
        E 123 82 43 64
        E 0 83 3b 64
        E 0 8f 37 64
        E 0 92 43 64
        E 0 93 3b 5a
        E 0 9f 37 5a
        E 117 82 43 64
        E 0 92 43 64
        E 122 82 43 64
        E 0 83 3b 64
        E 0 92 45 64
        E 0 93 3b 5a
        E 118 82 45 64
        E 0 92 43 64
        E 121 82 43 64
        E 0 83 3b 64
        E 0 8f 37 64
        E 0 92 43 64
        E 0 93 3b 5a
        E 0 9f 37 5a
        E 126 82 43 64
        E 1 92 43 64
        E 114 82 43 64
        E 0 83 3b 64
        E 1 92 45 64
        E 1 93 3b 5a
        E 118 82 45 64
        E 2 92 43 64
        E 118 82 43 64
        E 0 83 3b 64
        E 0 8f 37 64
        E 0 92 43 64
        E 0 93 3b 5a
        E 0 9f 37 5a
        E 118 82 43 64
        E 1 92 43 64
        E 120 82 43 64
        E 0 83 3b 64
        E 0 92 45 64
        E 0 93 3b 5a
        E 119 82 45 64
        E 1 92 43 64
        E 121 82 43 64
        E 1 83 3b 64
        E 0 8f 37 64
        E 1 92 4a 64
        E 2 93 39 5a
        E 0 9f 36 5a
        E 114 82 4a 64
        E 1 92 4a 64
        E 121 82 4a 64
        E 0 83 39 64
        E 0 92 4c 64
        E 0 93 39 5a
        E 118 82 4c 64
        E 0 92 4a 64
        E 121 82 4a 64
        E 0 83 39 64
        E 0 8f 36 64
        E 0 92 4a 64
        E 0 93 39 5a
        E 0 9f 36 5a
        E 118 82 4a 64
        E 1 92 4a 64
        E 122 82 4a 64
        E 1 83 39 64
        E 0 92 4c 64
        E 0 93 39 5a
        E 118 82 4c 64
        E 1 92 4a 64
        E 122 82 4a 64
        E 0 83 39 64
        E 0 8f 36 64
        E 0 92 4a 64
        E 1 93 39 5a
        E 0 9f 36 5a
        E 115 82 4a 64
        E 0 92 4a 64
        E 122 82 4a 64
        E 0 83 39 64
        E 0 92 4c 64
        E 1 93 39 5a
        E 118 82 4c 64
        E 0 92 4a 64
        E 120 82 4a 64
        E 0 83 39 64
        E 0 8f 36 64
        E 0 92 4a 64
        E 0 93 39 5a
        E 0 9f 36 5a
        E 119 82 4a 64
        E 1 92 4a 64
        E 122 82 4a 64
        E 0 83 39 64
        E 0 92 4c 64
        E 0 93 39 5a
        E 117 82 4c 64
        E 1 92 4a 64
        E 121 82 4a 64
        E 0 83 39 64
        E 0 8f 36 64
        E 0 92 4f 64
        E 0 93 37 5a
        E 0 9f 34 5a
        E 117 82 4f 64
        E 0 92 4f 64
        E 122 82 4f 64
        E 0 83 37 64
        E 1 92 51 64
        E 0 93 37 5a
        E 117 82 51 64
        E 0 92 4f 64
        E 123 82 4f 64
        E 0 83 37 64
        E 0 8f 34 64
        E 0 92 4f 64
        E 0 93 37 5a
        E 0 9f 34 5a
        E 118 82 4f 64
        E 0 92 4f 64
        E 121 82 4f 64
        E 0 83 37 64
        E 0 92 51 64
        E 0 93 37 5a
        E 119 82 51 64
        E 0 92 4f 64
        E 121 82 4f 64
        E 0 83 37 64
        E 0 8f 34 64
        E 0 92 4f 64
        E 0 93 37 5a
        E 0 9f 34 5a
        E 120 82 4f 64
        E 0 92 4f 64
        E 120 82 4f 64
        E 0 83 37 64
        E 0 92 51 64
        E 0 93 37 5a
        E 119 82 51 64
        E 0 92 4f 64
        E 121 82 4f 64
        E 0 83 37 64
        E 0 8f 34 64
        E 1 92 4f 64
        E 0 93 37 5a
        E 0 9f 34 5a
        E 119 82 4f 64
        E 0 92 4f 64
        E 121 82 4f 64
        E 0 83 37 64
        E 1 92 51 64
        E 0 93 37 5a
        E 118 82 51 64
        E 0 92 4f 64
        E 121 82 4f 64
        E 0 83 37 64
        E 1 8f 34 64
        E 0 92 56 64
        E 0 93 42 5a
        E 0 9f 32 5a
        E 119 8f 32 64
        E 0 9f 32 5a
        E 120 83 42 64
        E 0 8f 32 64
        E 0 93 42 5a
        E 0 9f 34 5a
        E 119 8f 34 64
        E 0 9f 32 5a
        E 120 82 56 64
        E 0 83 42 64
        E 0 8f 32 64
        E 1 92 4a 64
        E 0 93 42 5a
        E 0 9f 32 5a
        E 118 8f 32 64
        E 0 9f 32 5a
        E 121 83 42 64
        E 0 8f 32 64
        E 0 93 42 5a
        E 0 9f 34 5a
        E 119 8f 34 64
        E 0 9f 32 5a
        E 122 82 4a 64
        E 0 83 42 64
        E 0 8f 32 64
        E 0 93 42 5a
        E 0 9f 32 5a
        E 118 8f 32 64
        E 0 9f 32 5a
        E 122 83 42 64
        E 0 8f 32 64
        E 0 92 56 64
        E 1 93 42 5a
        E 0 9f 34 5a
        E 117 8f 34 64
        E 0 9f 32 5a
        E 122 82 56 64
        E 0 83 42 64
        E 0 8f 32 64
        E 0 92 51 64
        E 0 93 42 5a
        E 0 9f 32 5a
        E 118 8f 32 64
        E 0 9f 32 5a
        E 122 82 51 64
        E 0 83 42 64
        E 0 8f 32 64
        E 0 92 4e 64
        E 0 93 42 5a
        E 0 9f 34 5a
        E 119 8f 34 64
        E 0 9f 32 5a
        E 119 82 4e 64
        E 0 83 42 64
        E 0 8f 32 64
        E 0 92 3e 64
        E 0 93 42 5a
        E 0 9f 32 5a
        E 119 8f 32 64
        E 1 9f 32 5a
        E 121 83 42 64
        E 0 8f 32 64
        E 0 93 42 5a
        E 0 9f 34 5a
        E 118 8f 34 64
        E 1 9f 32 5a
        E 122 83 42 64
        E 0 8f 32 64
        E 1 93 42 5a
        E 0 9f 32 5a
        E 116 8f 32 64
        E 0 9f 32 5a
        E 122 83 42 64
        E 0 8f 32 64
        E 0 93 42 5a
        E 0 9f 34 5a
        E 121 8f 34 64
        E 0 9f 32 5a
        E 119 82 3e 64
        E 0 83 42 64
        E 0 8f 32 64
        E 0 93 42 5a
        E 0 9f 32 5a
        E 120 8f 32 64
        E 0 9f 32 5a
        E 120 83 42 64
        E 0 8f 32 64
        E 0 92 54 64
        E 0 93 42 5a
        E 0 9f 34 5a
        E 119 8f 34 64
        E 0 9f 32 5a
        E 121 82 54 64
        E 0 83 42 64
        E 0 8f 32 64
        E 0 92 51 64
        E 0 93 42 5a
        E 0 9f 32 5a
        E 119 8f 32 64
        E 0 9f 32 5a
        E 122 82 51 64
        E 0 83 42 64
        E 0 8f 32 64
        E 0 92 4e 64
        E 0 93 42 5a
        E 1 9f 34 5a
        E 117 8f 34 64
        E 0 9f 32 5a
        E 123 82 4e 64
        E 0 83 42 64
        E 0 8f 32 64
        E 0 92 3e 64
        E 0 93 43 5a
        E 0 9f 32 5a
        E 117 8f 32 64
        E 0 9f 32 5a
        E 121 83 43 64
        E 0 8f 32 64
        E 0 93 43 5a
        E 0 9f 34 5a
        E 118 8f 34 64
        E 0 9f 32 5a
        E 124 83 43 64
        E 0 8f 32 64
        E 0 93 43 5a
        E 0 9f 32 5a
        E 118 8f 32 64
        E 0 9f 32 5a
        E 119 83 43 64
        E 0 8f 32 64
        E 0 93 43 5a
        E 0 9f 34 5a
        E 121 8f 34 64
        E 1 9f 32 5a
        E 118 82 3e 64
        E 0 83 43 64
        E 0 8f 32 64
        E 0 93 43 5a
        E 1 9f 32 5a
        E 119 8f 32 64
        E 0 9f 32 5a
        E 122 83 43 64
        E 0 8f 32 64
        E 0 92 53 64
        E 0 93 43 5a
        E 0 9f 34 5a
        E 118 8f 34 64
        E 0 9f 32 5a
        E 121 82 53 64
        E 0 83 43 64
        E 0 8f 32 64
        E 0 92 4f 64
        E 0 93 43 5a
        E 0 9f 32 5a
        E 119 8f 32 64
        E 0 9f 32 5a
        E 121 82 4f 64
        E 0 83 43 64
        E 0 8f 32 64
        E 0 92 4a 64
        E 0 93 43 5a
        E 0 9f 34 5a
        E 120 8f 34 64
        E 0 9f 32 5a
        E 119 82 4a 64
        E 0 83 43 64
        E 0 8f 32 64
        E 1 92 3e 64
        E 0 93 42 5a
        E 0 9f 32 5a
        E 241 82 3e 64
        E 0 92 45 64
        E 239 82 45 64
        E 0 83 42 64
        E 0 8f 32 64
        E 0 92 4a 64
        E 0 93 42 5a
        E 0 9f 32 5a
        E 241 82 4a 64
        E 0 92 4e 64
        E 241 82 4e 64
        E 0 83 42 64
        E 0 8f 32 64
        E 0 92 51 64
        E 0 93 42 5a
        E 0 9f 32 5a
        E 238 82 51 64
        E 0 92 4e 64
        E 239 82 4e 64
        E 0 83 42 64
        E 0 8f 32 64
        E 0 92 4a 64
        E 0 93 42 5a
        E 0 9f 32 5a
        E 240 82 4a 64
        E 1 92 45 64
        E 240 82 45 64
        E 0 83 42 64
        E 0 8f 32 64
        E 0 92 3f 64
        E 0 93 42 5a
        E 0 9f 2f 5a
        E 241 82 3f 64
        E 0 92 42 64
        E 241 82 42 64
        E 0 83 42 64
        E 0 8f 2f 64
        E 0 92 47 64
        E 0 93 42 5a
        E 0 9f 2f 5a
        E 240 82 47 64
        E 1 92 4b 64
        E 237 82 4b 64
        E 0 83 42 64
        E 0 8f 2f 64
        E 1 92 4e 64
        E 0 93 3f 5a
        E 0 9f 2f 5a
        E 240 82 4e 64
        E 0 92 51 64
        E 239 82 51 64
        E 0 83 3f 64
        E 0 8f 2f 64
        E 0 92 53 64
        E 0 93 3f 5a
        E 0 9f 2f 5a
        E 240 82 53 64
        E 0 92 4e 64
        E 241 82 4e 64
        E 0 83 3f 64
        E 0 8f 2f 64
        E 0 92 40 64
        E 0 93 3b 5a
        E 0 9f 34 5a
        E 238 82 40 64
        E 0 92 43 64
        E 241 82 43 64
        E 0 83 3b 64
        E 0 8f 34 64
        E 0 92 47 64
        E 0 93 3b 5a
        E 0 9f 34 5a
        E 240 82 47 64
        E 3 92 4c 64
        E 238 82 4c 64
        E 0 83 3b 64
        E 0 8f 34 64
        E 0 92 4f 64
        E 0 93 3b 5a
        E 0 9f 34 5a
        E 239 82 4f 64
        E 0 92 53 64
        E 240 82 53 64
        E 0 83 3b 64
        E 0 8f 34 64
        E 0 92 4f 64
        E 1 93 3b 5a
        E 0 9f 34 5a
        E 239 82 4f 64
        E 0 92 4c 64
        E 240 82 4c 64
        E 1 83 3b 64
        E 0 8f 34 64
        E 0 92 39 64
        E 0 93 3c 5a
        E 0 9f 2d 5a
        E 240 82 39 64
        E 0 92 3c 64
        E 238 82 3c 64
        E 0 83 3c 64
        E 0 8f 2d 64
        E 0 92 40 64
        E 1 93 3c 5a
        E 0 9f 2d 5a
        E 240 82 40 64
        E 0 92 45 64
        E 240 82 45 64
        E 0 83 3c 64
        E 0 8f 2d 64
        E 0 92 48 64
        E 0 93 3c 5a
        E 0 9f 2d 5a
        E 241 82 48 64
        E 0 92 4c 64
        E 240 82 4c 64
        E 0 83 3c 64
        E 0 8f 2d 64
        E 0 92 51 64
        E 0 93 48 5a
        E 0 9f 2d 5a
        E 239 82 51 64
        E 0 92 4c 64
        E 240 82 4c 64
        E 0 83 48 64
        E 0 8f 2d 64
        E 0 92 4c 64
        E 0 92 4b 64
        E 0 93 42 5a
        E 0 9f 2f 5a
        E 241 82 4b 64
        E 0 83 42 64
        E 0 8f 2f 64
        E 0 92 49 64
        E 0 93 42 5a
        E 0 9f 2f 5a
        E 119 82 49 64
        E 0 92 47 64
        E 122 82 4c 64
        E 0 82 47 64
        E 0 83 42 64
        E 0 8f 2f 64
        E 0 92 4c 64
        E 0 92 4b 64
        E 0 93 42 5a
        E 0 9f 2f 5a
        E 239 82 4b 64
        E 0 83 42 64
        E 0 8f 2f 64
        E 0 92 49 64
        E 0 93 42 5a
        E 1 9f 2f 5a
        E 118 82 49 64
        E 0 92 47 64
        E 120 82 4c 64
        E 0 82 47 64
        E 0 83 42 64
        E 0 8f 2f 64
        E 0 92 4c 64
        E 1 92 4b 64
        E 1 93 42 5a
        E 0 9f 2f 5a
        E 238 82 4b 64
        E 0 83 42 64
        E 1 8f 2f 64
        E 0 92 49 64
        E 0 93 42 5a
        E 0 9f 2f 5a
        E 118 82 49 64
        E 0 92 47 64
        E 122 82 4c 64
        E 0 82 47 64
        E 0 83 42 64
        E 0 8f 2f 64
        E 0 92 4c 64
        E 0 92 4b 64
        E 0 93 42 5a
        E 0 9f 2f 5a
        E 239 82 4b 64
        E 0 83 42 64
        E 0 8f 2f 64
        E 0 92 49 64
        E 0 93 42 5a
        E 0 9f 2f 5a
        E 119 82 49 64
        E 0 92 47 64
        E 123 82 4c 64
        E 0 82 47 64
        E 0 83 42 64
        E 0 8f 2f 64
        E 0 92 53 64
        E 0 92 51 64
        E 0 93 42 5a
        E 0 9f 2f 5a
        E 239 82 51 64
        E 0 83 42 64
        E 0 8f 2f 64
        E 0 92 4f 64
        E 1 93 42 5a
        E 0 9f 2f 5a
        E 117 82 4f 64
        E 0 92 4e 64
        E 121 82 53 64
        E 1 82 4e 64
        E 0 83 42 64
        E 0 8f 2f 64
        E 0 92 53 64
        E 0 92 51 64
        E 0 93 42 5a
        E 0 9f 2f 5a
        E 241 82 51 64
        E 0 83 42 64
        E 0 8f 2f 64
        E 0 92 4f 64
        E 0 93 42 5a
        E 0 9f 2f 5a
        E 119 82 4f 64
        E 0 92 4e 64
        E 120 82 53 64
        E 0 82 4e 64
        E 0 83 42 64
        E 0 8f 2f 64
        E 0 92 53 64
        E 0 92 51 64
        E 0 93 42 5a
        E 0 9f 2f 5a
        E 239 82 51 64
        E 0 83 42 64
        E 0 8f 2f 64
        E 0 92 4f 64
        E 0 93 42 5a
        E 0 9f 2f 5a
        E 120 82 4f 64
        E 0 92 4e 64
        E 120 82 53 64
        E 0 82 4e 64
        E 0 83 42 64
        E 0 8f 2f 64
        E 0 92 53 64
        E 0 92 51 64
        E 0 93 3f 5a
        E 0 9f 2f 5a
        E 242 82 51 64
        E 0 83 3f 64
        E 0 8f 2f 64
        E 0 92 4f 64
        E 0 93 3f 5a
        E 0 9f 2f 5a
        E 117 82 4f 64
        E 0 92 4e 64
        E 121 82 53 64
        E 0 82 4e 64
        E 0 83 3f 64
        E 0 8f 2f 64
        E 0 92 4f 64
        E 0 93 3b 5a
        E 0 9f 34 5a
        E 119 82 4f 64
        E 1 92 4f 64
        E 120 82 4f 64
        E 0 83 3b 64
        E 0 8f 34 64
        E 0 92 53 64
        E 0 93 3b 5a
        E 0 9f 34 5a
        E 119 82 53 64
        E 0 92 4f 64
        E 122 82 4f 64
        E 1 83 3b 64
        E 0 8f 34 64
        E 0 92 4c 64
        E 0 93 3b 5a
        E 0 9f 34 5a
        E 118 82 4c 64
        E 0 92 4c 64
        E 121 82 4c 64
        E 0 83 3b 64
        E 0 8f 34 64
        E 0 92 4f 64
        E 0 93 3b 5a
        E 1 9f 34 5a
        E 118 82 4f 64
        E 1 92 4c 64
        E 120 82 4c 64
        E 0 83 3b 64
        E 0 8f 34 64
        E 0 92 47 64
        E 0 93 3b 5a
        E 0 9f 34 5a
        E 119 82 47 64
        E 0 92 47 64
        E 121 82 47 64
        E 0 83 3b 64
        E 0 8f 34 64
        E 0 92 4c 64
        E 0 93 3b 5a
        E 1 9f 34 5a
        E 116 82 4c 64
        E 1 92 47 64
        E 122 82 47 64
        E 1 83 3b 64
        E 0 8f 34 64
        E 0 92 43 64
        E 0 93 3b 5a
        E 0 9f 34 5a
        E 117 82 43 64
        E 0 92 43 64
        E 121 82 43 64
        E 0 83 3b 64
        E 0 8f 34 64
        E 0 92 47 64
        E 0 93 3b 5a
        E 0 9f 34 5a
        E 119 82 47 64
        E 1 92 43 64
        E 122 82 43 64
        E 0 83 3b 64
        E 0 8f 34 64
        E 0 92 40 64
        E 0 93 34 5a
        E 0 9f 34 5a
        E 118 82 40 64
        E 0 83 34 64
        E 0 8f 34 64
        E 0 92 40 64
        E 0 93 34 5a
        E 0 9f 34 5a
        E 120 82 40 64
        E 0 83 34 64
        E 0 8f 34 64
        E 0 92 42 64
        E 0 93 36 5a
        E 0 9f 36 5a
        E 118 82 42 64
        E 0 83 36 64
        E 0 8f 36 64
        E 0 92 40 64
        E 0 93 34 5a
        E 1 9f 34 5a
        E 121 82 40 64
        E 0 83 34 64
        E 0 8f 34 64
        E 1 92 40 64
        E 0 93 34 5a
        E 0 9f 34 5a
        E 118 82 40 64
        E 0 83 34 64
        E 0 8f 34 64
        E 0 92 40 64
        E 0 93 34 5a
        E 0 9f 34 5a
        E 122 82 40 64
        E 0 83 34 64
        E 0 8f 34 64
        E 0 92 42 64
        E 0 93 36 5a
        E 0 9f 36 5a
        E 118 82 42 64
        E 0 83 36 64
        E 0 8f 36 64
        E 0 92 40 64
        E 0 93 34 5a
        E 0 9f 34 5a
        E 122 82 40 64
        E 0 83 34 64
        E 0 8f 34 64
        E 0 92 40 64
        E 0 93 34 5a
        E 0 9f 34 5a
        E 118 82 40 64
        E 0 83 34 64
        E 0 8f 34 64
        E 0 92 40 64
        E 0 93 34 5a
        E 0 9f 34 5a
        E 120 82 40 64
        E 0 83 34 64
        E 0 8f 34 64
        E 0 92 42 64
        E 0 93 36 5a
        E 0 9f 36 5a
        E 122 82 42 64
        E 0 83 36 64
        E 0 8f 36 64
        E 1 92 40 64
        E 0 93 34 5a
        E 0 9f 34 5a
        E 121 82 40 64
        E 0 83 34 64
        E 0 8f 34 64
        E 0 92 40 64
        E 0 93 34 5a
        E 0 9f 34 5a
        E 116 82 40 64
        E 0 83 34 64
        E 0 8f 34 64
        E 0 92 40 64
        E 0 93 34 5a
        E 0 9f 34 5a
        E 122 82 40 64
        E 0 83 34 64
        E 0 8f 34 64
        E 0 92 42 64
        E 0 93 36 5a
        E 0 9f 36 5a
        E 119 82 42 64
        E 0 83 36 64
        E 0 8f 36 64
        E 1 92 40 64
        E 0 93 34 5a
        E 0 9f 34 5a
        E 119 82 40 64
        E 0 83 34 64
        E 0 8f 34 64
        E 0 93 47 5a
        E 0 9f 2f 5a
        E 120 8f 2f 64
        E 1 9f 2f 5a
        E 119 8f 2f 64
        E 0 9f 30 5a
        E 120 8f 30 64
        E 0 9f 2f 5a
        E 121 83 47 64
        E 0 8f 2f 64
        E 0 93 47 5a
        E 0 9f 2f 5a
        E 479 83 47 64
        E 0 8f 2f 64
        E 0 93 47 5a
        E 481 83 47 64
        E 0 93 47 5a
        E 479 83 47 64
        E 0 92 58 64
        E 0 93 48 5a
        E 0 9f 2f 5a
        E 120 8f 2f 64
        E 0 9f 2f 5a
        E 38 92 57 64
        E 82 82 58 64
        E 0 8f 2f 64
        E 1 9f 30 5a
        E 78 92 58 64
        E 40 8f 30 64
        E 0 9f 2f 5a
        E 38 82 57 64
        E 84 83 48 64
        E 0 8f 2f 64
        E 0 92 58 64
        E 1 93 48 5a
        E 0 9f 2f 5a
        E 77 82 58 64
        E 79 92 57 64
        E 83 82 58 64
        E 78 92 58 64
        E 79 82 57 64
        E 84 83 48 64
        E 0 8f 2f 64
        E 0 92 58 64
        E 0 93 48 5a
        E 77 82 58 64
        E 79 92 57 64
        E 83 82 58 64
        E 80 92 58 64
        E 77 82 57 64
        E 82 83 48 64
        E 0 92 58 64
        E 0 93 48 5a
        E 79 82 58 64
        E 80 92 57 64
        E 81 82 58 64
        E 79 92 58 64
        E 78 82 57 64
        E 82 83 48 64
        E 0 92 58 64
        E 0 93 42 5a
        E 1 9f 2f 5a
        E 80 82 58 64
        E 39 8f 2f 64
        E 0 9f 2f 5a
        E 122 82 58 64
        E 0 8f 2f 64
        E 1 92 58 64
        E 0 9f 30 5a
        E 117 8f 30 64
        E 1 9f 2f 5a
        E 120 82 58 64
        E 0 83 42 64
        E 0 8f 2f 64
        E 0 92 54 64
        E 0 93 42 5a
        E 0 9f 2f 5a
        E 241 82 54 64
        E 0 92 54 64
        E 240 82 54 64
        E 0 83 42 64
        E 1 8f 2f 64
        E 0 92 51 64
        E 0 93 42 5a
        E 238 82 51 64
        E 0 92 51 64
        E 240 82 51 64
        E 0 83 42 64
        E 0 92 4e 64
        E 0 93 42 5a
        E 240 82 4e 64
        E 0 92 4e 64
        E 240 82 4e 64
        E 0 83 42 64
        E 0 92 56 64
        E 1 93 47 5a
        E 0 9f 2f 5a
        E 118 8f 2f 64
        E 0 9f 2f 5a
        E 40 92 54 64
        E 81 82 56 64
        E 0 8f 2f 64
        E 0 9f 30 5a
        E 78 92 56 64
        E 41 8f 30 64
        E 0 9f 2f 5a
        E 39 82 54 64
        E 81 83 47 64
        E 0 8f 2f 64
        E 1 92 56 64
        E 0 93 47 5a
        E 0 9f 2f 5a
        E 80 82 56 64
        E 79 92 54 64
        E 82 82 56 64
        E 79 92 56 64
        E 77 82 54 64
        E 84 83 47 64
        E 2 8f 2f 64
        E 0 92 56 64
        E 1 93 47 5a
        E 76 82 56 64
        E 78 92 54 64
        E 82 82 56 64
        E 79 92 56 64
        E 78 82 54 64
        E 83 83 47 64
        E 1 92 56 64
        E 0 93 47 5a
        E 79 82 56 64
        E 77 92 54 64
        E 83 82 56 64
        E 80 92 56 64
        E 79 82 54 64
        E 83 83 47 64
        E 0 92 56 64
        E 0 93 40 5a
        E 0 9f 2f 5a
        E 77 82 56 64
        E 41 8f 2f 64
        E 0 9f 2f 5a
        E 120 82 56 64
        E 0 8f 2f 64
        E 0 92 56 64
        E 0 9f 30 5a
        E 119 8f 30 64
        E 0 9f 2f 5a
        E 121 82 56 64
        E 0 83 40 64
        E 0 8f 2f 64
        E 0 92 53 64
        E 0 93 40 5a
        E 0 9f 2f 5a
        E 240 82 53 64
        E 0 92 53 64
        E 241 82 53 64
        E 0 83 40 64
        E 0 8f 2f 64
        E 0 92 4f 64
        E 0 93 40 5a
        E 240 82 4f 64
        E 1 92 4f 64
        E 239 82 4f 64
        E 0 83 40 64
        E 0 92 4c 64
        E 1 93 40 5a
        E 239 82 4c 64
        E 0 92 4c 64
        E 241 82 4c 64
        E 0 83 40 64
        E 0 92 54 64
        E 0 93 45 5a
        E 0 9f 2f 5a
        E 116 8f 2f 64
        E 1 9f 2f 5a
        E 39 92 53 64
        E 82 82 54 64
        E 0 8f 2f 64
        E 0 9f 30 5a
        E 78 92 54 64
        E 41 8f 30 64
        E 0 9f 2f 5a
        E 39 82 53 64
        E 83 83 45 64
        E 1 8f 2f 64
        E 0 92 54 64
        E 0 93 45 5a
        E 0 9f 2f 5a
        E 77 82 54 64
        E 79 92 53 64
        E 82 82 54 64
        E 78 92 54 64
        E 79 82 53 64
        E 83 83 45 64
        E 0 8f 2f 64
        E 0 92 54 64
        E 0 93 45 5a
        E 80 82 54 64
        E 77 92 53 64
        E 83 82 54 64
        E 79 92 54 64
        E 80 82 53 64
        E 82 83 45 64
        E 0 92 54 64
        E 0 93 45 5a
        E 78 82 54 64
        E 78 92 53 64
        E 83 82 54 64
        E 81 92 54 64
        E 77 82 53 64
        E 82 83 45 64
        E 0 92 54 64
        E 0 93 3f 5a
        E 0 9f 2f 5a
        E 78 82 54 64
        E 40 8f 2f 64
        E 0 9f 2f 5a
        E 123 82 54 64
        E 0 8f 2f 64
        E 0 92 54 64
        E 0 9f 30 5a
        E 119 8f 30 64
        E 1 9f 2f 5a
        E 120 82 54 64
        E 0 83 3f 64
        E 0 8f 2f 64
        E 0 92 51 64
        E 0 93 3f 5a
        E 0 9f 2f 5a
        E 240 82 51 64
        E 0 92 51 64
        E 239 82 51 64
        E 0 83 3f 64
        E 0 8f 2f 64
        E 0 92 4e 64
        E 0 93 3f 5a
        E 241 82 4e 64
        E 0 92 4e 64
        E 19250 82 4e 64
        E 1 83 3f 64
        E 0 92 4b 64
        E 0 93 3f 5a
        E 0 82 4b 64
        E 0 92 4b 64
        E 0 82 4b 64
        E 0 83 3f 64
        E 0 92 37 64
        E 0 93 37 5a
        E 1 9f 34 5a
        E 0 82 37 64
        E 0 92 40 64
        E 0 82 40 64
        E 0 92 47 64
        E 0 82 47 64
        E 0 92 47 64
        E 0 82 47 64
        E 0 83 37 64
        E 0 8f 34 64
        E 0 92 37 64
        E 0 93 37 5a
        E 1 9f 34 5a
        E 0 82 37 64
        E 0 92 40 64
        E 0 82 40 64
        E 0 92 47 64
        E 0 82 47 64
        E 0 92 47 64
        E 0 82 47 64
        E 0 83 37 64
        E 0 8f 34 64
        E 0 92 37 64
        E 0 93 37 5a
        E 0 9f 34 5a
        E 0 82 37 64
        E 0 92 40 64
        E 0 82 40 64
        E 0 92 47 64
        E 0 82 47 64
        E 0 92 47 64
        E 0 82 47 64
        E 0 83 37 64
        E 0 8f 34 64
        E 0 92 37 64
        E 0 93 37 5a
        E 0 9f 34 5a
        E 0 82 37 64
        E 0 92 40 64
        E 0 82 40 64
        E 0 92 47 64
        E 0 82 47 64
        E 0 92 47 64
        E 0 82 47 64
        E 0 83 37 64
        E 0 8f 34 64
        E 0 92 39 64
        E 0 93 39 5a
        E 0 9f 34 5a
        E 1 82 39 64
        E 0 92 40 64
        E 0 82 40 64
        E 0 92 48 64
        E 0 82 48 64
        E 0 92 48 64
        E 0 82 48 64
        E 1 83 39 64
        E 0 8f 34 64
        E 0 92 39 64
        E 0 93 39 5a
        E 0 9f 34 5a
        E 0 82 39 64
        E 0 92 40 64
        E 0 82 40 64
        E 0 92 48 64
        E 0 82 48 64
        E 0 92 48 64
        E 0 82 48 64
        E 0 83 39 64
        E 0 8f 34 64
        E 0 92 39 64
        E 0 93 39 5a
        E 0 9f 34 5a
        E 0 82 39 64
        E 0 92 40 64
        E 0 82 40 64
        E 0 92 48 64
        E 0 82 48 64
        E 0 92 48 64
        E 0 82 48 64
        E 0 83 39 64
        E 0 8f 34 64
        E 0 92 39 64
        E 0 93 39 5a
        E 1 9f 34 5a
        E 0 82 39 64
        E 0 92 40 64
        E 0 82 40 64
        E 0 92 48 64
        E 0 82 48 64
        E 0 92 48 64
        E 0 82 48 64
        E 0 83 39 64
        E 0 8f 34 64
        E 0 92 37 64
        E 0 93 37 5a
        E 0 9f 34 5a
        E 0 82 37 64
        E 0 92 40 64
        E 0 82 40 64
        E 0 92 47 64
        E 1 82 47 64
        E 0 92 47 64
        E 0 82 47 64
        E 0 83 37 64
        E 0 8f 34 64
        E 0 92 37 64
        E 0 93 37 5a
        E 0 9f 34 5a
        E 0 82 37 64
        E 0 92 40 64
        E 0 82 40 64
        E 0 92 47 64
        E 0 82 47 64
        E 0 92 47 64
        E 0 82 47 64
        E 0 83 37 64
        E 0 8f 34 64
        E 0 92 37 64
        E 1 93 37 5a
        E 0 9f 34 5a
        E 0 82 37 64
        E 0 92 40 64
        E 0 82 40 64
        E 0 92 47 64
        E 0 82 47 64
        E 0 92 47 64
        E 0 82 47 64
        E 0 83 37 64
        E 0 8f 34 64
        E 0 92 37 64
        E 0 93 37 5a
        E 0 9f 34 5a
        E 0 82 37 64
        E 0 92 40 64
        E 0 82 40 64
        E 0 92 47 64
        E 0 82 47 64
        E 0 92 47 64
        E 0 82 47 64
        E 0 83 37 64
        E 0 8f 34 64
        E 0 92 39 64
        E 0 93 39 5a
        E 0 9f 34 5a
        E 0 82 39 64
        E 0 92 40 64
        E 0 82 40 64
        E 0 92 48 64
        E 0 82 48 64
        E 0 92 48 64
        E 0 82 48 64
        E 1 83 39 64
        E 0 8f 34 64
        E 0 92 39 64
        E 0 93 39 5a
        E 0 9f 34 5a
        E 0 82 39 64
        E 0 92 40 64
        E 0 82 40 64
        E 0 92 48 64
        E 0 82 48 64
        E 0 92 48 64
        E 0 82 48 64
        E 0 83 39 64
        E 0 8f 34 64
        E 0 92 39 64
        E 0 93 39 5a
        E 0 9f 34 5a
        E 0 82 39 64
        E 0 92 40 64
        E 0 82 40 64
        E 0 92 48 64
        E 0 82 48 64
        E 0 92 48 64
        E 0 82 48 64
        E 0 83 39 64
        E 0 8f 34 64
        E 0 92 39 64
        E 0 93 39 5a
        E 0 9f 34 5a
        E 0 82 39 64
        E 0 92 40 64
        E 0 82 40 64
        E 0 92 48 64
        E 0 82 48 64
        E 1 92 48 64
        E 0 82 48 64
        E 0 83 39 64
        E 0 8f 34 64
        E 0 92 40 64
        E 0 92 47 64
        E 0 92 37 64
        E 0 93 37 5a
        E 0 9f 34 5a
        E 0 82 37 64
        E 0 92 4c 64
        E 0 82 4c 64
        E 0 83 37 64
        E 0 8f 34 64
        E 0 92 47 64
        E 0 93 37 5a
        E 0 9f 34 5a
        E 0 82 47 64
        E 0 92 43 64
        E 0 82 40 64
        E 0 82 47 64
        E 0 82 43 64
        E 0 83 37 64
        E 0 8f 34 64
        E 0 92 37 64
        E 0 93 37 5a
        E 0 9f 2b 5a
        E 0 82 37 64
        E 1 92 4c 64
        E 0 82 4c 64
        E 0 83 37 64
        E 0 8f 2b 64
        E 0 92 47 64
        E 0 93 37 5a
        E 0 9f 2b 5a
        E 0 82 47 64
        E 0 92 43 64
        E 0 82 43 64
        E 0 83 37 64
        E 0 8f 2b 64
        E 1 92 39 64
        E 0 93 39 5a
        E 0 9f 2d 5a
        E 0 82 39 64
        E 0 92 4c 64
        E 0 82 4c 64
        E 0 83 39 64
        E 0 8f 2d 64
        E 0 92 48 64
        E 0 93 39 5a
        E 0 9f 2d 5a
        E 0 82 48 64
        E 0 92 45 64
        E 0 82 45 64
        E 0 83 39 64
        E 0 8f 2d 64
        E 0 92 3b 64
        E 0 93 3b 5a
        E 0 9f 2f 5a
        E 0 82 3b 64
        E 0 92 4b 64
        E 0 82 4b 64
        E 0 83 3b 64
        E 0 8f 2f 64
        E 0 92 47 64
        E 0 93 3b 5a
        E 1 9f 2f 5a
        E 0 82 47 64
        E 1 92 3b 64
        E 0 82 3b 64
        E 0 83 3b 64
        E 0 8f 2f 64
        E 0 92 40 64
        E 0 93 34 5a
        E 0 9f 28 5a
        E 0 82 40 64
        E 0 83 34 64
        E 0 8f 28 64
        E 0 92 48 64
        E 0 93 40 5a
        E 0 9f 30 5a
        E 0 82 48 64
        E 0 92 48 64
        E 0 82 48 64
        E 0 92 4a 64
        E 0 82 4a 64
        E 0 92 48 64
        E 0 82 48 64
        E 0 83 40 64
        E 0 8f 30 64
        E 0 92 48 64
        E 0 93 40 5a
        E 0 9f 30 5a
        E 0 82 48 64
        E 0 92 48 64
        E 0 82 48 64
        E 0 92 4a 64
        E 0 82 4a 64
        E 0 92 48 64
        E 0 82 48 64
        E 0 83 40 64
        E 0 8f 30 64
        E 0 92 48 64
        E 0 93 40 5a
        E 0 9f 30 5a
        E 0 82 48 64
        E 0 92 48 64
        E 0 82 48 64
        E 1 92 4a 64
        E 0 82 4a 64
        E 0 92 48 64
        E 0 82 48 64
        E 0 83 40 64
        E 0 8f 30 64
        E 0 92 48 64
        E 0 93 40 5a
        E 0 9f 30 5a
        E 0 82 48 64
        E 0 92 48 64
        E 0 82 48 64
        E 0 92 4a 64
        E 0 82 4a 64
        E 0 92 48 64
        E 0 82 48 64
        E 0 83 40 64
        E 0 8f 30 64
        E 0 92 4f 64
        E 0 93 3e 5a
        E 0 9f 2f 5a
        E 0 82 4f 64
        E 0 92 4f 64
        E 0 82 4f 64
        E 0 92 51 64
        E 0 82 51 64
        E 0 92 4f 64
        E 0 82 4f 64
        E 0 83 3e 64
        E 0 8f 2f 64
        E 0 92 4f 64
        E 0 93 3e 5a
        E 0 9f 2f 5a
        E 0 82 4f 64
        E 0 92 4f 64
        E 0 82 4f 64
        E 0 92 51 64
        E 0 82 51 64
        E 0 92 4f 64
        E 0 82 4f 64
        E 0 83 3e 64
        E 0 8f 2f 64
        E 0 92 4f 64
        E 1 93 3e 5a
        E 0 9f 2f 5a
        E 0 82 4f 64
        E 0 92 4f 64
        E 0 82 4f 64
        E 0 92 51 64
        E 0 82 51 64
        E 0 92 4f 64
        E 0 82 4f 64
        E 0 83 3e 64
        E 0 8f 2f 64
        E 0 92 4f 64
        E 0 93 3e 5a
        E 0 9f 2f 5a
        E 0 82 4f 64
        E 1 92 4f 64
        E 0 82 4f 64
        E 0 92 51 64
        E 0 82 51 64
        E 0 92 4f 64
        E 0 82 4f 64
        E 0 83 3e 64
        E 0 8f 2f 64
        E 0 92 54 64
        E 0 93 3c 5a
        E 0 9f 2d 5a
        E 0 82 54 64
        E 0 92 54 64
        E 0 82 54 64
        E 0 92 56 64
        E 0 82 56 64
        E 0 92 54 64
        E 1 82 54 64
        E 0 83 3c 64
        E 0 8f 2d 64
        E 0 92 54 64
        E 0 93 3c 5a
        E 0 9f 2d 5a
        E 0 82 54 64
        E 0 92 54 64
        E 0 82 54 64
        E 0 92 56 64
        E 0 82 56 64
        E 0 92 54 64
        E 0 82 54 64
        E 0 83 3c 64
        E 0 8f 2d 64
        E 0 92 54 64
        E 0 93 3c 5a
        E 0 9f 2d 5a
        E 0 82 54 64
        E 0 92 54 64
        E 0 82 54 64
        E 0 92 56 64
        E 11474 82 56 64
        E 1 92 54 64
        E 0 82 54 64
        E 0 83 3c 64
        E 0 8f 2d 64
        E 0 92 54 64
        E 0 93 3c 5a
        E 0 9f 2d 5a
        E 0 82 54 64
        E 0 92 54 64
        E 0 82 54 64
        E 0 92 56 64
        E 0 82 56 64
        E 0 92 54 64
        E 0 82 54 64
        E 0 83 3c 64
        E 0 8f 2d 64
        E 0 92 53 64
        E 0 93 3e 5a
        E 0 9f 2b 5a
        E 0 82 53 64
        E 0 92 4f 64
        E 0 82 4f 64
        E 0 83 3e 64
        E 0 8f 2b 64
        E 0 92 51 64
        E 0 92 4f 64
        E 0 93 4c 5a
        E 0 9f 3c 5a
        E 0 82 4f 64
        E 0 92 4d 64
        E 0 82 4d 64
        E 0 92 4f 64
        E 0 82 51 64
        E 0 82 4f 64
        E 0 83 4c 64
        E 0 8f 3c 64
        E 0 92 4c 64
        E 1 93 4c 5a
        E 0 9f 3c 5a
        E 0 82 4c 64
        E 0 92 4f 64
        E 0 82 4f 64
        E 0 83 4c 64
        E 0 8f 3c 64
        E 0 92 51 64
        E 0 92 4f 64
        E 0 93 4c 5a
        E 0 9f 3c 5a
        E 0 82 4f 64
        E 0 92 4d 64
        E 0 82 4d 64
        E 0 92 4f 64
        E 0 82 51 64
        E 0 82 4f 64
        E 0 83 4c 64
        E 0 8f 3c 64
        E 0 92 4a 64
        E 0 93 4a 5a
        E 0 9f 3b 5a
        E 0 82 4a 64
        E 0 92 4f 64
        E 0 82 4f 64
        E 0 83 4a 64
        E 0 8f 3b 64
        E 0 92 51 64
        E 0 92 4f 64
        E 0 93 4a 5a
        E 0 9f 3b 5a
        E 0 82 4f 64
        E 0 92 4d 64
        E 0 82 4d 64
        E 1 92 4f 64
        E 0 82 51 64
        E 0 82 4f 64
        E 0 83 4a 64
        E 0 8f 3b 64
        E 0 92 48 64
        E 0 93 48 5a
        E 0 9f 39 5a
        E 0 82 48 64
        E 0 92 4f 64
        E 0 82 4f 64
        E 0 83 48 64
        E 0 8f 39 64
        E 0 92 51 64
        E 0 92 4f 64
        E 0 93 48 5a
        E 0 9f 39 5a
        E 0 82 4f 64
        E 0 92 4d 64
        E 0 82 4d 64
        E 0 92 4f 64
        E 0 82 51 64
        E 0 82 4f 64
        E 0 83 48 64
        E 0 8f 39 64
        E 0 92 47 64
        E 0 93 47 5a
        E 0 9f 37 5a
        E 0 82 47 64
        E 0 92 4f 64
        E 1 82 4f 64
        E 0 83 47 64
        E 0 8f 37 64
        E 0 92 51 64
        E 0 92 4f 64
        E 0 93 4c 5a
        E 0 9f 3c 5a
        E 0 82 4f 64
        E 0 92 4d 64
        E 0 82 4d 64
        E 0 92 4f 64
        E 0 82 51 64
        E 0 82 4f 64
        E 0 83 4c 64
        E 0 8f 3c 64
        E 0 92 4c 64
        E 0 93 4c 5a
        E 0 9f 3c 5a
        E 0 82 4c 64
        E 0 92 4f 64
        E 0 82 4f 64
        E 0 83 4c 64
        E 0 8f 3c 64
        E 0 92 51 64
        E 0 92 4f 64
        E 0 93 4c 5a
        E 0 9f 3c 5a
        E 0 82 4f 64
        E 0 92 4d 64
        E 1 82 4d 64
        E 0 92 4f 64
        E 0 82 51 64
        E 0 82 4f 64
        E 0 83 4c 64
        E 0 8f 3c 64
        E 0 92 4a 64
        E 0 93 4a 5a
        E 0 9f 3b 5a
        E 0 82 4a 64
        E 0 92 4f 64
        E 0 82 4f 64
        E 0 83 4a 64
        E 0 8f 3b 64
        E 0 92 51 64
        E 0 92 4f 64
        E 0 93 4a 5a
        E 0 9f 3b 5a
        E 0 82 4f 64
        E 0 92 4d 64
        E 0 82 4d 64
        E 0 92 4f 64
        E 0 82 51 64
        E 0 82 4f 64
        E 0 83 4a 64
        E 0 8f 3b 64
        E 1 92 48 64
        E 0 93 48 5a
        E 0 9f 39 5a
        E 0 82 48 64
        E 0 92 4f 64
        E 0 82 4f 64
        E 0 83 48 64
        E 0 8f 39 64
        E 0 92 51 64
        E 0 92 4f 64
        E 0 93 48 5a
        E 0 9f 39 5a
        E 0 82 4f 64
        E 0 92 4d 64
        E 0 82 4d 64
        E 0 92 4f 64
        E 0 82 51 64
        E 0 82 4f 64
        E 0 83 48 64
        E 0 8f 39 64
        E 0 92 47 64
        E 0 93 47 5a
        E 0 9f 37 5a
        E 0 82 47 64
        E 0 83 47 64
        E 0 8f 37 64
        E 0 92 43 64
        E 0 93 43 5a
        E 0 9f 37 5a
        E 0 82 43 64
        E 0 83 43 64
        E 0 8f 37 64
        E 0 92 41 64
        E 0 93 41 5a
        E 0 9f 35 5a
        E 0 82 41 64
        E 0 83 41 64
        E 0 8f 35 64
        E 0 92 40 64
        E 1 93 40 5a
        E 0 9f 34 5a
        E 0 82 40 64
        E 0 83 40 64
        E 0 8f 34 64
        E 0 92 3e 64
        E 0 93 3e 5a
        E 0 9f 32 5a
        E 0 82 3e 64
        E 0 83 3e 64
        E 0 8f 32 64
        E 0 92 3c 64
        E 0 93 3c 5a
        E 0 9f 30 5a
        E 0 82 3c 64
        E 0 83 3c 64
        E 0 8f 30 64
        E 0 92 3b 64
        E 0 93 3b 5a
        E 0 9f 2f 5a
        E 0 82 3b 64
        E 0 83 3b 64
        E 0 8f 2f 64
        E 0 92 39 64
        E 0 93 39 5a
        E 0 9f 2d 5a
        E 0 82 39 64
        E 0 83 39 64
        E 0 8f 2d 64
        E 0 92 37 64
        E 0 93 37 5a
        E 0 9f 2b 5a
        E 0 8f 2b 64
        E 0 9f 2b 5a
        E 0 82 37 64
        E 0 83 37 64
        E 0 8f 2b 64
        E 0 92 4f 64
        E 0 93 3b 5a
        E 0 9f 2d 5a
        E 0 8f 2d 64
        E 0 9f 2b 5a
        E 0 82 4f 64
        E 0 83 3b 64
        E 0 8f 2b 64
        E 0 92 4a 64
        E 0 93 3b 5a
        E 0 9f 2b 5a
        E 0 8f 2b 64
        E 0 9f 2b 5a
        E 0 82 4a 64
        E 0 83 3b 64
        E 0 8f 2b 64
        E 0 92 47 64
        E 0 93 3b 5a
        E 0 9f 2d 5a
        E 0 8f 2d 64
        E 0 9f 2b 5a
        E 0 82 47 64
        E 0 83 3b 64
        E 0 8f 2b 64
        E 0 92 43 64
        E 0 93 37 5a
        E 0 9f 2b 5a
        E 0 8f 2b 64
        E 0 9f 2b 5a
        E 0 82 43 64
        E 0 83 37 64
        E 0 8f 2b 64
        E 0 92 4d 64
        E 0 93 3b 5a
        E 0 9f 2d 5a
        E 0 8f 2d 64
        E 0 9f 2b 5a
        E 0 82 4d 64
        E 1 83 3b 64
        E 0 8f 2b 64
        E 0 92 4a 64
        E 0 93 3b 5a
        E 0 9f 2b 5a
        E 0 8f 2b 64
        E 0 9f 2b 5a
        E 0 82 4a 64
        E 0 83 3b 64
        E 0 8f 2b 64
        E 0 92 47 64
        E 0 93 3b 5a
        E 0 9f 2d 5a
        E 0 8f 2d 64
        E 0 9f 2b 5a
        E 0 82 47 64
        E 0 83 3b 64
        E 0 8f 2b 64
        E 0 92 37 64
        E 0 93 37 5a
        E 0 9f 2b 5a
        E 0 8f 2b 64
        E 0 9f 2b 5a
        E 0 82 37 64
        E 0 83 37 64
        E 0 8f 2b 64
        E 0 92 4c 64
        E 0 93 43 5a
        E 0 9f 2d 5a
        E 7340 8f 2d 64
        E 0 9f 2b 5a
        E 1 82 4c 64
        E 0 83 43 64
        E 0 8f 2b 64
        E 0 92 48 64
        E 0 93 40 5a
        E 0 9f 2b 5a
        E 0 8f 2b 64
        E 0 9f 2b 5a
        E 0 82 48 64
        E 0 83 40 64
        E 0 8f 2b 64
        E 0 92 43 64
        E 0 93 3c 5a
        E 0 9f 2d 5a
        E 0 8f 2d 64
        E 0 9f 2b 5a
        E 0 82 43 64
        E 0 83 3c 64
        E 0 8f 2b 64
        E 0 92 4f 64
        E 0 92 4d 64
        E 0 82 4f 64
        E 0 92 4f 64
        E 0 82 4d 64
        E 0 92 4f 64
        E 0 82 4f 64
        E 0 92 4d 64
        E 0 82 4f 64
        E 0 92 4f 64
        E 0 82 4d 64
        E 0 92 4f 64
        E 0 82 4f 64
        E 1 92 4d 64
        E 0 82 4f 64
        E 0 92 4f 64
        E 0 82 4d 64
        E 0 92 4f 64
        E 0 82 4f 64
        E 0 92 4d 64
        E 0 82 4f 64
        E 0 92 4f 64
        E 0 82 4d 64
        E 0 92 4c 64
        E 0 93 30 5a
        E 0 9f 30 5a
        E 0 82 4f 64
        E 0 82 4c 64
        E 0 92 48 64
        E 0 82 48 64
        E 0 83 30 64
        E 1 8f 30 64
        E 0 92 47 64
        E 0 93 30 5a
        E 0 9f 30 5a
        E 0 82 47 64
        E 0 92 48 64
        E 0 82 48 64
        E 0 83 30 64
        E 0 8f 30 64
        E 0 92 40 64
        E 0 93 34 5a
        E 0 9f 34 5a
        E 0 82 40 64
        E 0 92 48 64
        E 0 82 48 64
        E 0 83 34 64
        E 0 8f 34 64
        E 0 92 47 64
        E 0 93 34 5a
        E 0 9f 34 5a
        E 0 82 47 64
        E 0 92 48 64
        E 0 82 48 64
        E 0 83 34 64
        E 0 8f 34 64
        E 0 92 41 64
        E 0 93 35 5a
        E 0 9f 35 5a
        E 0 82 41 64
        E 0 92 48 64
        E 0 82 48 64
        E 0 83 35 64
        E 0 8f 35 64
        E 0 92 47 64
        E 0 93 35 5a
        E 0 9f 35 5a
        E 1 82 47 64
        E 0 92 48 64
        E 0 82 48 64
        E 0 83 35 64
        E 0 8f 35 64
        E 0 92 43 64
        E 0 93 37 5a
        E 0 9f 37 5a
        E 0 82 43 64
        E 0 92 47 64
        E 0 82 47 64
        E 0 83 37 64
        E 0 8f 37 64
        E 0 92 45 64
        E 0 93 37 5a
        E 0 9f 37 5a
        E 0 82 45 64
        E 0 92 47 64
        E 0 82 47 64
        E 0 83 37 64
        E 0 8f 37 64
        E 0 92 4f 64
        E 0 93 30 5a
        E 0 9f 30 5a
        E 0 92 4d 64
        E 0 82 4f 64
        E 0 92 4f 64
        E 0 82 4d 64
        E 0 92 4f 64
        E 0 82 4f 64
        E 0 92 4d 64
        E 0 82 4f 64
        E 0 92 4f 64
        E 0 82 4d 64
        E 0 83 30 64
        E 0 8f 30 64
        E 0 92 4f 64
        E 0 82 4f 64
        E 0 92 4d 64
        E 0 82 4f 64
        E 0 92 4f 64
        E 0 82 4d 64
        E 0 92 4f 64
        E 0 82 4f 64
        E 0 92 4d 64
        E 0 82 4f 64
        E 0 92 4f 64
        E 0 82 4d 64
        E 0 92 4c 64
        E 0 93 30 5a
        E 0 9f 30 5a
        E 0 82 4f 64
        E 0 82 4c 64
        E 0 92 48 64
        E 0 82 48 64
        E 0 83 30 64
        E 0 8f 30 64
        E 0 92 47 64
        E 0 93 30 5a
        E 0 9f 30 5a
        E 0 82 47 64
        E 0 92 48 64
        E 0 82 48 64
        E 0 83 30 64
        E 0 8f 30 64
        E 0 92 40 64
        E 0 93 34 5a
        E 0 9f 34 5a
        E 0 82 40 64
        E 0 92 48 64
        E 0 82 48 64
        E 0 83 34 64
        E 0 8f 34 64
        E 0 92 47 64
        E 0 93 34 5a
        E 0 9f 34 5a
        E 0 82 47 64
        E 0 92 48 64
        E 2954 82 48 64
        E 0 83 34 64
        E 0 8f 34 64
        E 0 92 41 64
        E 0 93 35 5a
        E 0 9f 35 5a
        E 1 82 41 64
        E 0 92 48 64
        E 0 82 48 64
        E 0 83 35 64
        E 0 8f 35 64
        E 0 92 47 64
        E 0 93 35 5a
        E 0 9f 35 5a
        E 0 82 47 64
        E 20 92 48 64
        E 4 82 48 64
        E 0 83 35 64
        E 0 8f 35 64
        E 0 92 43 64
        E 0 93 37 5a
        E 0 9f 37 5a
        E 0 82 43 64
        E 0 92 47 64
        E 0 82 47 64
        E 0 83 37 64
        E 0 8f 37 64
        E 0 92 45 64
        E 1 93 37 5a
        E 0 9f 37 5a
        E 0 82 45 64
        E 0 92 47 64
        E 0 82 47 64
        E 0 83 37 64
        E 0 8f 37 64
        E 0 92 3c 64
        E 0 93 30 5a
        E 0 9f 30 5a
        E 3805 82 3c 64
        E 0 83 30 64
        E 0 8f 30 64
        E 5041 92 4f 64
        E 0 93 3f 5b
        E 719 82 4f 64
        E 0 83 3f 66
        E 0 92 4f 64
        E 0 93 3f 5b
        E 0 9f 30 5a
        E 719 83 3f 66
        E 0 8f 30 64
        E 0 93 3f 5b
        E 1 9f 30 5a
        E 359 82 4f 64
        E 0 92 4d 64
        E 180 82 4d 64
        E 0 92 4f 64
        E 181 82 4f 64
        E 0 83 3f 66
        E 0 8f 30 64
        E 0 92 50 66
        E 0 93 41 5a
        E 0 9f 30 5a
        E 721 82 50 66
        E 0 83 41 64
        E 0 8f 30 64
        E 0 92 48 64
        E 0 93 3f 5b
        E 0 9f 30 5a
        E 720 82 48 64
        E 0 83 3f 66
        E 0 8f 30 64
        E 0 92 47 64
        E 0 93 3e 5a
        E 1 9f 37 5a
        E 717 82 47 64
        E 1 83 3e 64
        E 0 8f 37 64
        E 0 92 48 64
        E 0 93 3f 5b
        E 0 9f 30 5a
        E 720 82 48 64
        E 0 83 3f 66
        E 0 8f 30 64
        E 1 92 4d 64
        E 0 93 3e 5a
        E 0 9f 2b 5a
        E 719 83 3e 64
        E 0 8f 2b 64
        E 0 93 47 5a
        E 0 9f 2b 5a
        E 360 82 4d 64
        E 0 92 4f 64
        E 180 82 4f 64
        E 0 92 50 66
        E 182 82 50 66
        E 0 83 47 64
        E 0 8f 2b 64
        E 0 92 50 66
        E 0 93 47 5a
        E 0 9f 2b 5a
        E 718 83 47 64
        E 0 8f 2b 64
        E 0 93 47 5a
        E 0 9f 2b 5a
        E 721 82 50 66
        E 0 83 47 64
        E 0 8f 2b 64
        E 0 92 4f 64
        E 0 93 47 5a
        E 0 9f 2b 5a
        E 359 82 4f 64
        E 0 92 4d 64
        E 180 82 4d 64
        E 0 92 4b 66
        E 180 82 4b 66
        E 0 83 47 64
        E 0 8f 2b 64
        E 0 92 4d 64
        E 0 93 47 5a
        E 0 9f 2b 5a
        E 360 82 4d 64
        E 0 92 4a 64
        E 361 82 4a 64
        E 0 83 47 64
        E 0 8f 2b 64
        E 0 92 4b 66
        E 0 93 43 5a
        E 0 9f 30 5a
        E 719 82 4b 66
        E 0 83 43 64
        E 0 8f 30 64
        E 0 92 4a 64
        E 0 93 47 5a
        E 0 9f 2b 5a
        E 719 82 4a 64
        E 0 83 47 64
        E 0 8f 2b 64
        E 1 92 4d 64
        E 0 93 47 5a
        E 0 9f 2b 5a
        E 721 83 47 64
        E 0 8f 2b 64
        E 0 93 47 5a
        E 0 9f 2b 5a
        E 358 82 4d 64
        E 0 92 4f 64
        E 181 82 4f 64
        E 0 92 50 66
        E 180 82 50 66
        E 0 83 47 64
        E 0 8f 2b 64
        E 0 92 50 66
        E 0 93 47 5a
        E 0 9f 2b 5a
        E 721 83 47 64
        E 0 8f 2b 64
        E 0 93 47 5a
        E 0 9f 2b 5a
        E 721 82 50 66
        E 0 83 47 64
        E 0 8f 2b 64
        E 0 92 4f 64
        E 0 93 47 5a
        E 0 9f 2b 5a
        E 356 82 4f 64
        E 0 92 4d 64
        E 181 82 4d 64
        E 1 92 4b 66
        E 180 82 4b 66
        E 0 83 47 64
        E 0 8f 2b 64
        E 0 92 4d 64
        E 0 93 47 5a
        E 0 9f 2b 5a
        E 361 82 4d 64
        E 0 92 4a 64
        E 359 82 4a 64
        E 0 83 47 64
        E 0 8f 2b 64
        E 0 92 4b 66
        E 0 93 43 5a
        E 1 9f 30 5a
        E 720 82 4b 66
        E 0 83 43 64
        E 0 8f 30 64
        E 0 92 48 64
        E 0 93 3f 5b
        E 0 9f 30 5a
        E 719 82 48 64
        E 0 83 3f 66
        E 0 8f 30 64
        E 0 93 3f 5b
        E 0 9f 30 5a
        E 720 83 3f 66
        E 0 8f 30 64
        E 0 92 4f 64
        E 0 93 3f 5b
        E 0 9f 30 5a
        E 721 82 4f 64
        E 0 83 3f 66
        E 0 8f 30 64
        E 0 92 52 66
        E 0 93 40 5a
        E 0 9f 30 5a
        E 357 82 52 66
        E 1 92 50 66
        E 362 82 50 66
        E 0 83 40 64
        E 0 8f 30 64
        E 0 92 4f 64
        E 0 93 40 5a
        E 0 9f 30 5a
        E 358 82 4f 64
        E 0 92 4d 64
        E 360 82 4d 64
        E 0 83 40 64
        E 0 8f 30 64
        E 0 92 4c 64
        E 0 93 40 5a
        E 0 9f 30 5a
        E 359 82 4c 64
        E 0 92 49 66
        E 363 82 49 66
        E 0 83 40 64
        E 0 8f 30 64
        E 0 92 48 64
        E 0 93 40 5a
        E 0 9f 30 5a
        E 358 82 48 64
        E 0 92 46 66
        E 361 82 46 66
        E 0 83 40 64
        E 0 8f 30 64
        E 0 92 3c 64
        E 0 93 40 5a
        E 0 9f 30 5a
        E 721 82 3c 64
        E 0 83 40 64
        E 0 8f 30 64
        E 0 92 52 66
        E 0 93 40 5a
        E 1 9f 30 5a
        E 234 92 4f 64
        E 123 82 52 66
        E 119 92 4c 64
        E 117 82 4f 64
        E 125 83 40 64
        E 0 8f 30 64
        E 1 92 52 66
        E 0 93 40 5a
        E 0 9f 30 5a
        E 116 82 4c 64
        E 119 92 4f 64
        E 122 82 52 66
        E 119 92 4c 64
        E 120 82 4f 64
        E 122 83 40 64
        E 0 8f 30 64
        E 0 92 52 66
        E 0 93 40 5a
        E 0 9f 30 5a
        E 119 82 4c 64
        E 118 92 4f 64
        E 123 82 52 66
        E 120 92 4c 64
        E 117 82 4f 64
        E 123 83 40 64
        E 0 8f 30 64
        E 0 92 55 66
        E 0 93 40 5a
        E 0 9f 30 5a
        E 119 82 4c 64
        E 602 83 40 64
        E 0 8f 30 64
        E 0 93 40 5a
        E 1 9f 30 5a
        E 720 82 55 66
        E 0 83 40 64
        E 0 8f 30 64
        E 0 92 55 66
        E 0 93 40 5a
        E 0 9f 30 5a
        E 360 82 55 66
        E 0 92 54 64
        E 180 82 54 64
        E 0 92 52 66
        E 181 82 52 66
        E 0 83 40 64
        E 0 8f 30 64
        E 0 92 50 66
        E 0 93 40 5a
        E 0 9f 30 5a
        E 356 82 50 66
        E 0 92 4f 64
        E 363 82 4f 64
        E 0 83 40 64
        E 0 8f 30 64
        E 0 92 50 66
        E 0 93 3c 5a
        E 0 9f 35 5a
        E 359 82 50 66
        E 0 92 4d 64
        E 361 82 4d 64
        E 0 83 3c 64
        E 0 8f 35 64
        E 0 92 48 64
        E 0 93 38 5b
        E 0 9f 35 5a
        E 359 82 48 64
        E 0 92 44 66
        E 361 82 44 66
        E 0 83 38 66
        E 0 8f 35 64
        E 0 92 41 64
        E 0 93 38 5b
        E 0 9f 35 5a
        E 720 82 41 64
        E 0 83 38 66
        E 0 8f 35 64
        E 0 92 4d 64
        E 0 93 38 5b
        E 0 9f 35 5a
        E 719 82 4d 64
        E 0 83 38 66
        E 0 8f 35 64
        E 0 92 50 66
        E 0 93 3c 5a
        E 0 9f 35 5a
        E 360 82 50 66
        E 1 92 4f 64
        E 360 82 4f 64
        E 0 83 3c 64
        E 0 8f 35 64
        E 0 92 4d 64
        E 0 93 3c 5a
        E 0 9f 35 5a
        E 358 82 4d 64
        E 1 92 4b 66
        E 360 82 4b 66
        E 0 83 3c 64
        E 0 8f 35 64
        E 0 92 4a 64
        E 0 93 3c 5a
        E 0 9f 35 5a
        E 358 82 4a 64
        E 0 92 48 64
        E 361 82 48 64
        E 0 83 3c 64
        E 0 8f 35 64
        E 0 92 46 66
        E 0 93 3c 5a
        E 1 9f 35 5a
        E 360 82 46 66
        E 0 92 44 66
        E 361 82 44 66
        E 0 83 3c 64
        E 0 8f 35 64
        E 0 92 3a 66
        E 0 93 3e 5a
        E 0 9f 2e 5b
        E 719 82 3a 66
        E 0 83 3e 64
        E 0 8f 2e 66
        E 0 92 4d 64
        E 0 93 3e 5a
        E 0 9f 2e 5b
        E 720 82 4d 64
        E 0 83 3e 64
        E 0 8f 2e 66
        E 0 92 4d 64
        E 1 93 3e 5a
        E 0 9f 2e 5b
        E 720 82 4d 64
        E 0 83 3e 64
        E 0 8f 2e 66
        E 0 92 4d 64
        E 0 93 3e 5a
        E 1 9f 2e 5b
        E 176 82 4d 64
        E 1 92 4c 64
        E 181 82 4c 64
        E 0 92 4d 64
        E 180 82 4d 64
        E 1 92 4f 64
        E 179 82 4f 64
        E 0 83 3e 64
        E 0 8f 2e 66
        E 0 92 50 66
        E 0 93 3e 5a
        E 0 9f 2e 5b
        E 720 83 3e 64
        E 0 8f 2e 66
        E 0 93 3e 5a
        E 0 9f 2e 5b
        E 721 83 3e 64
        E 0 8f 2e 66
        E 0 93 3e 5a
        E 0 9f 2e 5b
        E 718 83 3e 64
        E 0 8f 2e 66
        E 1 93 3e 5a
        E 0 9f 2e 5b
        E 720 82 50 66
        E 0 83 3e 64
        E 0 8f 2e 66
        E 0 92 51 64
        E 0 93 3c 5a
        E 0 9f 35 5a
        E 721 83 3c 64
        E 0 8f 35 64
        E 0 93 3c 5a
        E 0 9f 35 5a
        E 720 83 3c 64
        E 0 8f 35 64
        E 0 93 3c 5a
        E 0 9f 33 5b
        E 719 83 3c 64
        E 0 8f 33 66
        E 0 93 3c 5a
        E 0 9f 33 5b
        E 720 82 51 64
        E 0 83 3c 64
        E 0 8f 33 66
        E 0 92 52 66
        E 0 93 41 5a
        E 0 9f 32 5a
        E 359 82 52 66
        E 0 92 4d 64
        E 362 82 4d 64
        E 0 83 41 64
        E 0 8f 32 64
        E 0 92 4f 64
        E 0 93 3e 5a
        E 0 9f 2e 5b
        E 357 82 4f 64
        E 1 92 4a 64
        E 362 82 4a 64
        E 0 83 3e 64
        E 0 8f 2e 66
        E 0 92 4b 66
        E 0 93 3a 5b
        E 0 9f 2e 5b
        E 359 82 4b 66
        E 0 92 46 66
        E 360 82 46 66
        E 0 83 3a 66
        E 0 8f 2e 66
        E 0 92 48 64
        E 0 93 3a 5b
        E 0 9f 2e 5b
        E 358 82 48 64
        E 1 92 43 64
        E 361 82 43 64
        E 0 83 3a 66
        E 0 8f 2e 66
        E 0 92 44 66
        E 0 93 3a 5b
        E 0 9f 2e 5b
        E 360 82 44 66
        E 0 92 41 64
        E 361 82 41 64
        E 0 83 3a 66
        E 0 8f 2e 66
        E 0 92 43 64
        E 0 93 3a 5b
        E 0 9f 2e 5b
        E 359 82 43 64
        E 0 92 3f 66
        E 360 82 3f 66
        E 0 83 3a 66
        E 0 8f 2e 66
        E 0 92 41 64
        E 0 93 3a 5b
        E 0 9f 2e 5b
        E 359 82 41 64
        E 0 92 3e 64
        E 361 82 3e 64
        E 0 83 3a 66
        E 0 8f 2e 66
        E 0 92 3f 66
        E 1 93 3a 5b
        E 0 9f 2e 5b
        E 358 82 3f 66
        E 0 92 3c 64
        E 362 82 3c 64
        E 0 83 3a 66
        E 0 8f 2e 66
        E 0 92 3a 66
        E 0 93 3a 5b
        E 0 9f 2e 5b
        E 720 82 3a 66
        E 0 83 3a 66
        E 0 8f 2e 66
        E 0 93 3a 5b
        E 0 9f 2e 5b
        E 719 83 3a 66
        E 0 8f 2e 66
        E 0 92 50 66
        E 0 93 41 5a
        E 0 9f 2e 5b
        E 720 83 41 64
        E 0 8f 2e 66
        E 0 93 3e 5a
        E 0 9f 2e 5b
        E 360 82 50 66
        E 0 92 4f 64
        E 179 82 4f 64
        E 1 92 4d 64
        E 180 82 4d 64
        E 1 83 3e 64
        E 0 8f 2e 66
        E 0 92 4f 64
        E 0 93 3f 5b
        E 0 9f 2e 5b
        E 720 82 4f 64
        E 0 83 3f 66
        E 0 8f 2e 66
        E 0 93 3f 5b
        E 0 9f 2e 5b
        E 720 83 3f 66
        E 0 8f 2e 66
        E 0 92 50 66
        E 0 93 41 5a
        E 0 9f 2e 5b
        E 719 83 41 64
        E 0 8f 2e 66
        E 0 93 3e 5a
        E 0 9f 2e 5b
        E 359 82 50 66
        E 0 92 4f 64
        E 180 82 4f 64
        E 0 92 4d 64
        E 181 82 4d 64
        E 0 83 3e 64
        E 0 8f 2e 66
        E 0 92 4f 64
        E 0 93 3f 5b
        E 0 9f 2e 5b
        E 539 82 4f 64
        E 1 92 52 66
        E 180 82 52 66
        E 0 83 3f 66
        E 0 8f 2e 66
        E 0 92 46 66
        E 0 93 3f 5b
        E 0 9f 2e 5b
        E 539 82 46 66
        E 1 92 50 66
        E 180 82 50 66
        E 0 83 3f 66
        E 0 8f 2e 66
        E 0 92 4f 64
        E 1 93 3f 5b
        E 0 9f 2d 5a
        E 720 83 3f 66
        E 0 8f 2d 64
        E 0 93 3f 5b
        E 0 9f 2d 5a
        E 718 82 4f 64
        E 1 83 3f 66
        E 0 8f 2d 64
        E 0 92 4d 64
        E 0 93 3e 5a
        E 0 9f 2e 5b
        E 540 82 4d 64
        E 0 92 52 66
        E 180 82 52 66
        E 0 83 3e 64
        E 0 8f 2e 66
        E 0 92 46 66
        E 0 93 3e 5a
        E 0 9f 2e 5b
        E 540 82 46 66
        E 1 92 50 66
        E 179 82 50 66
        E 0 83 3e 64
        E 0 8f 2e 66
        E 0 92 4f 64
        E 0 93 3f 5b
        E 0 9f 2d 5a
        E 720 83 3f 66
        E 0 8f 2d 64
        E 0 93 3f 5b
        E 0 9f 2d 5a
        E 720 82 4f 64
        E 0 83 3f 66
        E 0 8f 2d 64
        E 0 92 4d 64
        E 0 93 3e 5a
        E 0 9f 2e 5b
        E 719 83 3e 64
        E 1 8f 2e 66
        E 0 93 3e 5a
        E 0 9f 2e 5b
        E 719 82 4d 64
        E 0 83 3e 64
        E 0 8f 2e 66
        E 0 92 4d 64
        E 1 93 3c 5a
        E 0 9f 2c 5b
        E 720 82 4d 64
        E 0 83 3c 64
        E 0 8f 2c 66
        E 0 92 4d 64
        E 0 93 3c 5a
        E 0 9f 2c 5b
        E 178 82 4d 64
        E 0 92 4d 64
        E 180 82 4d 64
        E 1 92 4f 64
        E 180 82 4f 64
        E 0 92 50 66
        E 180 82 50 66
        E 0 83 3c 64
        E 0 8f 2c 66
        E 1 92 52 66
        E 0 93 3a 5b
        E 0 9f 2b 5a
        E 360 82 52 66
        E 0 92 50 66
        E 361 82 50 66
        E 0 83 3a 66
        E 0 8f 2b 64
        E 1 92 4f 64
        E 0 93 3a 5b
        E 0 9f 2b 5a
        E 358 82 4f 64
        E 0 92 4d 64
        E 361 82 4d 64
        E 0 83 3a 66
        E 0 8f 2b 64
        E 0 92 4f 64
        E 0 93 3a 5b
        E 0 9f 2b 5a
        E 357 82 4f 64
        E 1 92 4d 64
        E 362 82 4d 64
        E 0 83 3a 66
        E 0 8f 2b 64
        E 0 92 4b 66
        E 0 93 3a 5b
        E 0 9f 2b 5a
        E 359 82 4b 66
        E 0 92 4a 64
        E 361 82 4a 64
        E 0 83 3a 66
        E 0 8f 2b 64
        E 0 92 4b 66
        E 0 93 3a 5b
        E 1 9f 2b 5a
        E 357 82 4b 66
        E 0 92 4a 64
        E 363 82 4a 64
        E 0 83 3a 66
        E 0 8f 2b 64
        E 0 92 48 64
        E 0 93 3a 5b
        E 0 9f 2b 5a
        E 357 82 48 64
        E 0 92 46 66
        E 363 82 46 66
        E 0 83 3a 66
        E 0 8f 2b 64
        E 0 92 44 66
        E 0 93 3c 5a
        E 0 9f 2c 5b
        E 358 82 44 66
        E 0 92 43 64
        E 359 82 43 64
        E 0 83 3c 64
        E 1 8f 2c 66
        E 0 92 41 64
        E 0 93 3c 5a
        E 0 9f 2c 5b
        E 359 82 41 64
        E 0 92 3f 66
        E 360 82 3f 66
        E 0 83 3c 64
        E 0 8f 2c 66
        E 1 92 3a 66
        E 0 93 3a 5b
        E 0 9f 2e 5b
        E 721 82 3a 66
        E 0 83 3a 66
        E 0 8f 2e 66
        E 0 92 3f 66
        E 0 93 3a 5b
        E 1 9f 2b 5a
        E 538 82 3f 66
        E 0 92 41 64
        E 182 82 41 64
        E 0 83 3a 66
        E 0 8f 2b 64
        E 0 92 41 64
        E 0 93 3c 5a
        E 0 9f 2c 5b
        E 718 83 3c 64
        E 0 8f 2c 66
        E 0 93 3a 5b
        E 0 9f 2e 5b
        E 720 82 41 64
        E 0 83 3a 66
        E 1 8f 2e 66
        E 0 92 3f 66
        E 0 93 37 5a
        E 0 9f 33 5b
        E 720 82 3f 66
        E 0 83 37 64
        E 0 8f 33 66
        E 0 93 3a 5b
        E 0 9f 2b 5a
        E 719 83 3a 66
        E 0 8f 2b 64
        E 0 92 52 66
        E 0 93 3a 5b
        E 0 9f 2b 5a
        E 178 82 52 66
        E 0 92 50 66
        E 182 82 50 66
        E 0 92 4f 64
        E 180 82 4f 64
        E 0 92 4d 64
        E 180 82 4d 64
        E 0 83 3a 66
        E 0 8f 2b 64
        E 1 92 4f 64
        E 0 93 3a 5b
        E 0 9f 2b 5a
        E 177 82 4f 64
        E 0 92 4d 64
        E 181 82 4d 64
        E 0 92 4b 66
        E 181 82 4b 66
        E 1 92 4a 64
        E 179 82 4a 64
        E 0 83 3a 66
        E 0 8f 2b 64
        E 0 92 4b 66
        E 0 93 3a 5b
        E 0 9f 2b 5a
        E 179 82 4b 66
        E 6 92 4a 64
        E 184 82 4a 64
        E 2 92 48 64
        E 169 82 48 64
        E 0 92 46 66
        E 180 82 46 66
        E 0 83 3a 66
        E 1 8f 2b 64
        E 1 92 48 64
        E 1 93 43 5a
        E 1 9f 33 5b
        E 175 82 48 64
        E 0 92 46 66
        E 180 82 46 66
        E 0 92 44 66
        E 181 82 44 66
        E 1 92 43 64
        E 179 82 43 64
        E 0 83 43 64
        E 0 8f 33 66
        E 0 92 44 66
        E 0 93 3f 5b
        E 0 9f 30 5a
        E 180 82 44 66
        E 0 92 43 64
        E 179 82 43 64
        E 0 92 41 64
        E 182 82 41 64
        E 0 92 3f 66
        E 180 82 3f 66
        E 1 83 3f 66
        E 0 8f 30 64
        E 0 92 41 64
        E 0 93 3c 5a
        E 0 9f 2d 5a
        E 176 82 41 64
        E 1 92 3f 66
        E 180 82 3f 66
        E 0 92 3e 64
        E 182 82 3e 64
        E 2 92 3c 64
        E 177 82 3c 64
        E 0 83 3c 64
        E 0 8f 2d 64
        E 0 92 3a 66
        E 0 93 35 5a
        E 0 9f 2e 5b
        E 720 82 3a 66
        E 0 83 35 64
        E 0 8f 2e 66
        E 0 92 3f 66
        E 0 93 3a 5b
        E 0 9f 2b 5a
        E 539 82 3f 66
        E 1 92 41 64
        E 181 82 41 64
        E 0 83 3a 66
        E 0 8f 2b 64
        E 0 92 41 64
        E 0 93 3c 5a
        E 1 9f 2c 5b
        E 719 83 3c 64
        E 0 8f 2c 66
        E 0 93 3a 5b
        E 0 9f 2e 5b
        E 720 82 41 64
        E 0 83 3a 66
        E 0 8f 2e 66
        E 0 92 3f 66
        E 0 93 37 5a
        E 0 9f 27 5b
        E 1441 82 3f 66
        E 0 83 37 64
        E 0 8f 27 66
        E 719 92 4f 64
        E 0 93 3f 5b
        E 0 9f 30 5a
        E 721 82 4f 64
        E 0 83 3f 66
        E 0 8f 30 64
        E 0 92 4f 64
        E 0 93 3f 5b
        E 0 9f 30 5a
        E 717 83 3f 66
        E 0 8f 30 64
        E 1 93 3f 5b
        E 0 9f 30 5a
        E 359 82 4f 64
        E 0 92 4d 64
        E 183 82 4d 64
        E 0 92 4f 64
        E 178 82 4f 64
        E 0 83 3f 66
        E 0 8f 30 64
        E 0 92 50 66
        E 0 93 41 5a
        E 0 9f 30 5a
        E 720 82 50 66
        E 0 83 41 64
        E 0 8f 30 64
        E 0 92 48 64
        E 2 93 3f 5b
        E 1 9f 30 5a
        E 717 82 48 64
        E 0 83 3f 66
        E 0 8f 30 64
        E 0 92 47 64
        E 0 93 3e 5a
        E 0 9f 37 5a
        E 724 82 47 64
        E 0 83 3e 64
        E 0 8f 37 64
        E 1 92 48 64
        E 0 93 3f 5b
        E 0 9f 30 5a
        E 716 82 48 64
        E 0 83 3f 66
        E 0 8f 30 64
        E 0 92 50 66
        E 1 93 3c 5a
        E 0 9f 35 5a
        E 234 92 4d 64
        E 123 82 50 66
        E 119 92 4f 64
        E 118 82 4d 64
        E 125 83 3c 64
        E 1 8f 35 64
        E 0 92 50 66
        E 1 93 41 5a
        E 0 9f 35 5a
        E 114 82 4f 64
        E 119 92 4d 64
        E 124 82 50 66
        E 124 92 4a 64
        E 112 82 4d 64
        E 124 83 41 64
        E 0 8f 35 64
        E 0 92 47 64
        E 0 93 3e 5a
        E 0 9f 37 5a
        E 117 82 4a 64
        E 603 82 47 64
        E 0 83 3e 64
        E 0 8f 37 64
        E 0 92 48 64
        E 0 93 3f 5b
        E 0 9f 30 5a
        E 720 82 48 64
        E 0 83 3f 66
        E 0 8f 30 64
        E 1 92 50 66
        E 0 93 3c 5a
        E 0 9f 35 5a
        E 240 92 4d 64
        E 119 82 50 66
        E 119 92 4f 64
        E 116 82 4d 64
        E 125 83 3c 64
        E 0 8f 35 64
        E 0 92 50 66
        E 1 93 41 5a
        E 0 9f 35 5a
        E 117 82 4f 64
        E 119 92 4d 64
        E 122 82 50 66
        E 119 92 4a 64
        E 117 82 4d 64
        E 126 83 41 64
        E 0 8f 35 64
        E 1 92 47 64
        E 0 93 3e 5a
        E 0 9f 37 5a
        E 115 82 4a 64
        E 604 82 47 64
        E 0 83 3e 64
        E 0 8f 37 64
        E 1 92 48 64
        E 1 93 3f 5b
        E 1 9f 30 5a
        E 716 82 48 64
        E 0 83 3f 66
        E 0 8f 30 64
        E 0 93 3f 5b
        E 0 9f 30 5a
        E 720 83 3f 66
        E 0 8f 30 64
        E 0 92 4f 64
        E 0 93 3f 5b
        E 1 9f 30 5a
        E 720 82 4f 64
        E 0 83 3f 66
        E 0 8f 30 64
        E 0 92 4f 64
        E 0 93 3c 5a
        E 0 9f 33 5b
        E 358 82 4f 64
        E 0 92 48 64
        E 362 82 48 64
        E 0 83 3c 64
        E 0 8f 33 66
        E 0 92 3f 66
        E 0 93 3c 5a
        E 0 9f 33 5b
        E 358 82 3f 66
        E 0 92 48 64
        E 361 82 48 64
        E 0 83 3c 64
        E 0 8f 33 66
        E 0 92 4f 64
        E 0 93 3c 5a
        E 0 9f 33 5b
        E 720 82 4f 64
        E 0 83 3c 64
        E 0 8f 33 66
        E 1 93 3c 5a
        E 0 9f 33 5b
        E 718 83 3c 64
        E 0 8f 33 66
        E 1 92 50 66
        E 0 93 3c 5a
        E 0 9f 35 5a
        E 359 82 50 66
        E 0 92 48 64
        E 361 82 48 64
        E 0 83 3c 64
        E 0 8f 35 64
        E 0 92 41 64
        E 0 93 3c 5a
        E 0 9f 35 5a
        E 360 82 41 64
        E 0 92 48 64
        E 360 82 48 64
        E 0 83 3c 64
        E 0 8f 35 64
        E 0 92 50 66
        E 0 93 3c 5a
        E 0 9f 35 5a
        E 720 82 50 66
        E 0 83 3c 64
        E 0 8f 35 64
        E 1 93 3c 5a
        E 0 9f 35 5a
        E 720 83 3c 64
        E 1 8f 35 64
        E 0 92 51 64
        E 0 93 3e 5a
        E 0 9f 36 5a
        E 357 82 51 64
        E 0 92 48 64
        E 362 82 48 64
        E 2 83 3e 64
        E 0 8f 36 64
        E 0 92 42 64
        E 0 93 3e 5a
        E 0 9f 36 5a
        E 356 82 42 64
        E 0 92 48 64
        E 362 82 48 64
        E 0 83 3e 64
        E 0 8f 36 64
        E 0 92 51 64
        E 0 93 3e 5a
        E 0 9f 36 5a
        E 719 82 51 64
        E 0 83 3e 64
        E 0 8f 36 64
        E 0 93 3e 5a
        E 0 9f 36 5a
        E 721 83 3e 64
        E 0 8f 36 64
        E 0 92 53 64
        E 0 93 3e 5a
        E 0 9f 37 5a
        E 358 82 53 64
        E 0 92 4a 64
        E 360 82 4a 64
        E 0 83 3e 64
        E 0 8f 37 64
        E 1 92 43 64
        E 0 93 3e 5a
        E 0 9f 37 5a
        E 359 82 43 64
        E 1 92 4a 64
        E 360 82 4a 64
        E 0 83 3e 64
        E 0 8f 37 64
        E 0 92 53 64
        E 0 93 3e 5a
        E 0 9f 37 5a
        E 720 82 53 64
        E 0 83 3e 64
        E 0 8f 37 64
        E 0 93 3e 5a
        E 0 9f 37 5a
        E 719 83 3e 64
        E 1 8f 37 64
        E 1 92 4f 64
        E 0 93 3c 5a
        E 0 9f 33 5b
        E 359 82 4f 64
        E 0 92 4f 64
        E 179 82 4f 64
        E 1 92 4d 64
        E 181 82 4d 64
        E 0 83 3c 64
        E 0 8f 33 66
        E 0 92 4b 66
        E 0 93 3c 5a
        E 0 9f 33 5b
        E 358 82 4b 66
        E 0 92 4b 66
        E 181 82 4b 66
        E 0 92 4a 64
        E 180 82 4a 64
        E 0 83 3c 64
        E 0 8f 33 66
        E 0 92 48 64
        E 0 93 3c 5a
        E 0 9f 33 5b
        E 360 82 48 64
        E 0 92 48 64
        E 180 82 48 64
        E 0 92 46 66
        E 181 82 46 66
        E 0 83 3c 64
        E 0 8f 33 66
        E 0 92 44 66
        E 1 93 3c 5a
        E 0 9f 33 5b
        E 356 82 44 66
        E 1 92 44 66
        E 180 82 44 66
        E 0 92 43 64
        E 181 82 43 64
        E 0 83 3c 64
        E 0 8f 33 66
        E 0 92 41 64
        E 0 93 3c 5a
        E 0 9f 2c 5b
        E 358 82 41 64
        E 0 92 41 64
        E 181 82 41 64
        E 0 92 40 64
        E 181 82 40 64
        E 0 83 3c 64
        E 0 8f 2c 66
        E 1 92 41 64
        E 0 93 3c 5a
        E 0 9f 2c 5b
        E 358 82 41 64
        E 0 92 41 64
        E 181 82 41 64
        E 1 92 40 64
        E 179 82 40 64
        E 0 83 3c 64
        E 0 8f 2c 66
        E 1 92 41 64
        E 0 93 3c 5a
        E 0 9f 2c 5b
        E 720 83 3c 64
        E 0 8f 2c 66
        E 0 93 3c 5a
        E 0 9f 2c 5b
        E 719 82 41 64
        E 0 83 3c 64
        E 0 8f 2c 66
        E 1 92 50 66
        E 0 93 3e 5a
        E 0 9f 35 5a
        E 234 92 50 66
        E 125 82 50 66
        E 118 92 4f 64
        E 119 82 50 66
        E 124 83 3e 64
        E 0 8f 35 64
        E 2 92 4d 64
        E 2 93 3e 5a
        E 1 9f 35 5a
        E 112 82 4f 64
        E 119 92 4d 64
        E 122 82 4d 64
        E 119 92 4b 66
        E 118 82 4d 64
        E 125 83 3e 64
        E 0 8f 35 64
        E 0 92 4a 64
        E 1 93 3e 5a
        E 0 9f 35 5a
        E 116 82 4b 66
        E 119 92 4a 64
        E 123 82 4a 64
        E 118 92 48 64
        E 118 82 4a 64
        E 124 83 3e 64
        E 1 8f 35 64
        E 0 92 47 64
        E 0 93 3e 5a
        E 0 9f 35 5a
        E 116 82 48 64
        E 119 92 47 64
        E 123 82 47 64
        E 119 92 45 64
        E 118 82 47 64
        E 124 83 3e 64
        E 0 8f 35 64
        E 0 92 43 64
        E 0 93 3e 5a
        E 1 9f 37 5a
        E 117 82 45 64
        E 118 92 43 64
        E 123 82 43 64
        E 119 92 42 64
        E 119 82 43 64
        E 124 83 3e 64
        E 0 8f 37 64
        E 0 92 43 64
        E 0 93 3e 5a
        E 0 9f 37 5a
        E 115 82 42 64
        E 120 92 43 64
        E 123 82 43 64
        E 119 92 42 64
        E 117 82 43 64
        E 125 83 3e 64
        E 0 8f 37 64
        E 0 92 43 64
        E 0 93 3e 5a
        E 0 9f 37 5a
        E 119 82 42 64
        E 601 82 43 64
        E 0 83 3e 64
        E 0 8f 37 64
        E 0 93 3e 5a
        E 0 9f 35 5a
        E 720 83 3e 64
        E 1 8f 35 64
        E 0 92 48 64
        E 0 93 43 5a
        E 0 9f 33 5b
        E 358 82 48 64
        E 0 92 48 64
        E 181 82 48 64
        E 0 92 47 64
        E 182 82 47 64
        E 0 83 43 64
        E 0 8f 33 66
        E 0 92 48 64
        E 0 93 43 5a
        E 0 9f 33 5b
        E 358 82 48 64
        E 0 92 48 64
        E 179 82 48 64
        E 1 92 47 64
        E 182 82 47 64
        E 0 83 43 64
        E 0 8f 33 66
        E 0 92 48 64
        E 0 93 43 5a
        E 0 9f 33 5b
        E 718 82 48 64
        E 0 83 43 64
        E 0 8f 33 66
        E 0 92 4f 64
        E 0 93 43 5a
        E 0 9f 33 5b
        E 719 82 4f 64
        E 0 83 43 64
        E 0 8f 33 66
        E 0 92 49 66
        E 1 93 44 5b
        E 0 9f 35 5a
        E 358 82 49 66
        E 0 92 49 66
        E 182 82 49 66
        E 0 92 48 64
        E 181 82 48 64
        E 0 83 44 66
        E 0 8f 35 64
        E 0 92 49 66
        E 0 93 44 5b
        E 0 9f 35 5a
        E 359 82 49 66
        E 0 92 49 66
        E 179 82 49 66
        E 0 92 48 64
        E 182 82 48 64
        E 0 83 44 66
        E 0 8f 35 64
        E 0 92 49 66
        E 0 93 44 5b
        E 0 9f 35 5a
        E 719 82 49 66
        E 0 83 44 66
        E 0 8f 35 64
        E 0 92 50 66
        E 0 93 44 5b
        E 0 9f 35 5a
        E 720 82 50 66
        E 0 83 44 66
        E 1 8f 35 64
        E 0 92 4c 64
        E 0 93 46 5b
        E 0 9f 37 5a
        E 358 82 4c 64
        E 0 92 52 66
        E 179 82 52 66
        E 1 92 4f 64
        E 181 82 4f 64
        E 0 83 46 66
        E 0 8f 37 64
        E 0 92 4c 64
        E 0 93 46 5b
        E 1 9f 37 5a
        E 358 82 4c 64
        E 0 92 52 66
        E 180 82 52 66
        E 0 92 4f 64
        E 180 82 4f 64
        E 0 83 46 66
        E 0 8f 37 64
        E 0 92 4c 64
        E 0 93 46 5b
        E 0 9f 37 5a
        E 361 82 4c 64
        E 0 92 52 66
        E 180 82 52 66
        E 0 92 4f 64
        E 181 82 4f 64
        E 0 83 46 66
        E 0 8f 37 64
        E 0 92 4c 64
        E 0 93 46 5b
        E 0 9f 37 5a
        E 358 82 4c 64
        E 0 92 52 66
        E 180 82 52 66
        E 1 92 4f 64
        E 181 82 4f 64
        E 0 83 46 66
        E 0 8f 37 64
        E 0 92 50 66
        E 0 93 48 5a
        E 0 9f 35 5a
        E 358 82 50 66
        E 0 92 50 66
        E 181 82 50 66
        E 1 92 4f 64
        E 179 82 4f 64
        E 0 83 48 64
        E 0 8f 35 64
        E 0 92 4d 64
        E 0 93 48 5a
        E 0 9f 35 5a
        E 359 82 4d 64
        E 0 92 4d 64
        E 181 82 4d 64
        E 0 92 4b 66
        E 179 82 4b 66
        E 0 83 48 64
        E 0 8f 35 64
        E 0 92 4a 64
        E 0 93 47 5a
        E 1 9f 36 5a
        E 361 82 4a 64
        E 0 92 4a 64
        E 179 82 4a 64
        E 1 92 48 64
        E 179 82 48 64
        E 0 83 47 64
        E 0 8f 36 64
        E 0 92 47 64
        E 1 93 47 5a
        E 0 9f 36 5a
        E 358 82 47 64
        E 0 92 47 64
        E 180 82 47 64
        E 1 92 45 64
        E 180 82 45 64
        E 0 83 47 64
        E 0 8f 36 64
        E 0 92 43 64
        E 0 93 3e 5a
        E 0 9f 37 5a
        E 720 83 3e 64
        E 0 8f 37 64
        E 0 93 3b 5a
        E 0 9f 37 5a
        E 720 82 43 64
        E 0 83 3b 64
        E 0 8f 37 64
        E 0 93 3c 5a
        E 0 9f 39 5a
        E 722 83 3c 64
        E 0 8f 39 64
        E 0 93 3e 5a
        E 0 9f 3b 5a
        E 719 83 3e 64
        E 0 8f 3b 64
        E 0 92 48 64
        E 0 93 3f 5b
        E 0 9f 3c 5a
        E 235 92 4b 66
        E 124 82 48 64
        E 119 92 4a 64
        E 117 82 4b 66
        E 123 83 3f 66
        E 0 8f 3c 64
        E 0 92 48 64
        E 0 93 3f 5b
        E 0 9f 3c 5a
        E 118 82 4a 64
        E 120 92 47 64
        E 122 82 48 64
        E 120 92 48 64
        E 115 82 47 64
        E 126 83 3f 66
        E 0 8f 3c 64
        E 0 92 48 64
        E 0 93 3e 5a
        E 0 9f 3a 5b
        E 117 82 48 64
        E 119 92 4b 66
        E 123 82 48 64
        E 119 92 4a 64
        E 117 82 4b 66
        E 125 83 3e 64
        E 0 8f 3a 66
        E 0 92 48 64
        E 0 93 3e 5a
        E 0 9f 3a 5b
        E 117 82 4a 64
        E 119 92 47 64
        E 122 82 48 64
        E 121 92 48 64
        E 117 82 47 64
        E 124 83 3e 64
        E 0 8f 3a 66
        E 0 92 48 64
        E 0 93 3c 5a
        E 0 9f 38 5b
        E 116 82 48 64
        E 120 92 4b 66
        E 126 82 48 64
        E 117 92 4a 64
        E 116 82 4b 66
        E 125 83 3c 64
        E 0 8f 38 66
        E 0 92 48 64
        E 0 93 3c 5a
        E 0 9f 38 5b
        E 118 82 4a 64
        E 118 92 47 64
        E 124 82 48 64
        E 119 92 48 64
        E 116 82 47 64
        E 125 83 3c 64
        E 0 8f 38 66
        E 0 92 48 64
        E 0 93 3e 5a
        E 0 9f 37 5a
        E 117 82 48 64
        E 119 92 4b 66
        E 123 82 48 64
        E 118 92 4a 64
        E 117 82 4b 66
        E 126 83 3e 64
        E 0 8f 37 64
        E 0 92 48 64
        E 1 93 3e 5a
        E 0 9f 36 5a
        E 116 82 4a 64
        E 119 92 46 66
        E 122 82 48 64
        E 120 92 44 66
        E 118 82 46 66
        E 123 83 3e 64
        E 0 8f 36 64
        E 0 92 43 64
        E 0 93 3e 5a
        E 0 9f 37 5a
        E 120 82 44 66
        E 602 82 43 64
        E 0 83 3e 64
        E 0 8f 37 64
        E 0 92 48 64
        E 0 93 43 5a
        E 0 9f 33 5b
        E 539 82 48 64
        E 0 92 4a 64
        E 180 82 4a 64
        E 0 83 43 64
        E 0 8f 33 66
        E 0 92 4a 64
        E 0 93 44 5b
        E 0 9f 35 5a
        E 721 83 44 66
        E 0 8f 35 64
        E 0 93 43 5a
        E 0 9f 37 5a
        E 719 82 4a 64
        E 1 83 43 64
        E 0 8f 37 64
        E 0 92 48 64
        E 0 93 3f 5b
        E 0 9f 30 5a
        E 719 83 3f 66
        E 0 8f 30 64
        E 0 93 43 5a
        E 0 9f 3f 5b
        E 719 83 43 64
        E 0 8f 3f 66
        E 0 93 43 5a
        E 0 9f 3f 5b
        E 721 83 43 64
        E 0 8f 3f 66
        E 0 93 41 5a
        E 0 9f 3e 5a
        E 721 82 48 64
        E 0 83 41 64
        E 0 8f 3e 64
        E 0 92 4f 64
        E 0 93 3f 5b
        E 1 9f 3c 5a
        E 234 92 4b 66
        E 124 82 4f 64
        E 120 92 4a 64
        E 116 82 4b 66
        E 124 83 3f 66
        E 0 8f 3c 64
        E 0 92 48 64
        E 0 93 3f 5b
        E 0 9f 3c 5a
        E 119 82 4a 64
        E 117 92 47 64
        E 124 82 48 64
        E 118 92 48 64
        E 117 82 47 64
        E 126 83 3f 66
        E 0 8f 3c 64
        E 0 92 4f 64
        E 0 93 3e 5a
        E 0 9f 3a 5b
        E 117 82 48 64
        E 118 92 4b 66
        E 124 82 4f 64
        E 118 92 4a 64
        E 116 82 4b 66
        E 127 83 3e 64
        E 0 8f 3a 66
        E 0 92 48 64
        E 0 93 3e 5a
        E 0 9f 3a 5b
        E 117 82 4a 64
        E 120 92 47 64
        E 121 82 48 64
        E 120 92 48 64
        E 116 82 47 64
        E 125 83 3e 64
        E 0 8f 3a 66
        E 0 92 4f 64
        E 0 93 3c 5a
        E 0 9f 38 5b
        E 118 82 48 64
        E 118 92 4b 66
        E 122 82 4f 64
        E 120 92 4a 64
        E 118 82 4b 66
        E 124 83 3c 64
        E 0 8f 38 66
        E 0 92 48 64
        E 0 93 3c 5a
        E 0 9f 38 5b
        E 118 82 4a 64
        E 118 92 47 64
        E 123 82 48 64
        E 118 92 48 64
        E 120 82 47 64
        E 124 83 3c 64
        E 0 8f 38 66
        E 0 92 4f 64
        E 0 93 3e 5a
        E 0 9f 37 5a
        E 117 82 48 64
        E 119 92 4b 66
        E 121 82 4f 64
        E 119 92 4a 64
        E 118 82 4b 66
        E 126 83 3e 64
        E 0 8f 37 64
        E 0 92 48 64
        E 0 93 3e 5a
        E 0 9f 36 5a
        E 116 82 4a 64
        E 120 92 47 64
        E 122 82 48 64
        E 119 92 45 64
        E 118 82 47 64
        E 123 83 3e 64
        E 0 8f 36 64
        E 1 92 43 64
        E 0 93 3f 5b
        E 0 9f 37 5a
        E 117 82 45 64
        E 603 82 43 64
        E 0 83 3f 66
        E 0 8f 37 64
        E 0 92 48 64
        E 0 93 43 5a
        E 0 9f 33 5b
        E 540 82 48 64
        E 0 92 4a 64
        E 180 82 4a 64
        E 0 83 43 64
        E 0 8f 33 66
        E 0 92 4a 64
        E 0 93 44 5b
        E 0 9f 35 5a
        E 722 83 44 66
        E 0 8f 35 64
        E 0 93 43 5a
        E 0 9f 37 5a
        E 718 82 4a 64
        E 1 83 43 64
        E 0 8f 37 64
        E 0 92 48 64
        E 0 93 3f 5b
        E 0 9f 30 5a
        E 8639 82 48 64
        E 0 83 3f 66
        E 0 8f 30 64
        E 960 92 4f 64
        E 1 93 40 5a
        E 0 9f 30 5a
        E 480 82 4f 64
        E 0 83 40 64
        E 0 8f 30 64
        E 0 92 47 64
        E 0 93 3e 5a
        E 0 9f 37 5a
        E 480 82 47 64
        E 0 83 3e 64
        E 0 8f 37 64
        E 0 92 48 64
        E 1 93 40 5a
        E 0 9f 30 5a
        E 239 8f 30 64
        E 0 9f 32 5a
        E 240 82 48 64
        E 0 83 40 64
        E 0 8f 32 64
        E 0 92 4f 64
        E 0 93 40 5a
        E 0 9f 34 5a
        E 240 8f 34 64
        E 0 9f 30 5a
        E 238 82 4f 64
        E 0 83 40 64
        E 0 8f 30 64
        E 0 92 4d 64
        E 0 93 3b 5a
        E 0 9f 2b 5a
        E 481 82 4d 64
        E 0 83 3b 64
        E 0 8f 2b 64
        E 0 92 4c 64
        E 0 93 37 5a
        E 0 9f 30 5a
        E 240 8f 30 64
        E 0 9f 32 5a
        E 240 82 4c 64
        E 0 83 37 64
        E 0 8f 32 64
        E 0 92 48 64
        E 0 93 43 5a
        E 1 9f 34 5a
        E 241 8f 34 64
        E 0 9f 35 5a
        E 240 82 48 64
        E 0 83 43 64
        E 0 8f 35 64
        E 0 92 47 64
        E 0 93 3e 5a
        E 0 9f 37 5a
        E 239 82 47 64
        E 0 92 48 64
        E 238 82 48 64
        E 0 83 3e 64
        E 0 8f 37 64
        E 0 92 4a 64
        E 0 93 3b 5a
        E 1 9f 2b 5a
        E 241 82 4a 64
        E 0 92 41 64
        E 238 82 41 64
        E 0 83 3b 64
        E 0 8f 2b 64
        E 0 92 40 64
        E 1 93 3e 5a
        E 0 9f 2f 5a
        E 241 82 40 64
        E 0 92 3e 64
        E 239 82 3e 64
        E 0 83 3e 64
        E 0 8f 2f 64
        E 0 92 40 64
        E 0 93 37 5a
        E 0 9f 30 5a
        E 239 8f 30 64
        E 0 9f 2f 5a
        E 241 82 40 64
        E 0 8f 2f 64
        E 0 92 3c 64
        E 1 9f 30 5a
        E 239 8f 30 64
        E 0 9f 32 5a
        E 241 82 3c 64
        E 0 83 37 64
        E 0 8f 32 64
        E 0 92 48 64
        E 0 93 40 5a
        E 0 9f 34 5a
        E 240 8f 34 64
        E 0 9f 30 5a
        E 241 82 48 64
        E 0 83 40 64
        E 0 8f 30 64
        E 0 92 47 64
        E 0 92 48 64
        E 0 92 4a 64
        E 0 93 41 5a
        E 0 9f 37 5a
        E 240 82 47 64
        E 0 82 48 64
        E 238 82 4a 64
        E 0 83 41 64
        E 0 8f 37 64
        E 0 92 48 64
        E 0 93 40 5a
        E 0 9f 30 5a
        E 242 8f 30 64
        E 0 9f 32 5a
        E 240 82 48 64
        E 0 83 40 64
        E 0 8f 32 64
        E 0 92 48 64
        E 0 93 40 5a
        E 0 9f 34 5a
        E 239 8f 34 64
        E 0 9f 30 5a
        E 240 82 48 64
        E 0 83 40 64
        E 0 8f 30 64
        E 0 92 47 64
        E 0 92 48 64
        E 0 92 4a 64
        E 0 93 41 5a
        E 0 9f 37 5a
        E 240 82 47 64
        E 0 82 48 64
        E 238 82 4a 64
        E 1 83 41 64
        E 0 8f 37 64
        E 1 92 48 64
        E 0 93 40 5a
        E 1 9f 30 5a
        E 238 8f 30 64
        E 0 9f 32 5a
        E 242 82 48 64
        E 0 83 40 64
        E 0 8f 32 64
        E 0 92 40 64
        E 0 93 3c 5a
        E 0 9f 34 5a
        E 238 8f 34 64
        E 0 9f 30 5a
        E 239 82 40 64
        E 0 83 3c 64
        E 0 8f 30 64
        E 0 92 3e 64
        E 1 93 3b 5a
        E 0 9f 37 5a
        E 240 82 3e 64
        E 0 92 40 64
        E 240 82 40 64
        E 0 83 3b 64
        E 0 8f 37 64
        E 0 92 41 64
        E 0 93 3e 5a
        E 0 9f 2f 5a
        E 240 82 41 64
        E 0 92 3e 64
        E 241 82 3e 64
        E 0 83 3e 64
        E 0 8f 2f 64
        E 1 92 40 64
        E 0 93 37 5a
        E 0 9f 30 5a
        E 239 82 40 64
        E 0 92 3c 64
        E 239 82 3c 64
        E 0 83 37 64
        E 0 8f 30 64
        E 0 92 37 64
        E 0 93 37 5a
        E 0 9f 2b 5a
        E 962 82 37 64
        E 0 83 37 64
        E 0 8f 2b 64
        E 0 92 4f 64
        E 0 93 48 5a
        E 478 82 4f 64
        E 0 83 48 64
        E 0 92 50 66
        E 0 93 47 5a
        E 480 82 50 66
        E 0 83 47 64
        E 0 92 4f 64
        E 0 93 48 5a
        E 240 83 48 64
        E 0 93 47 5a
        E 241 83 47 64
        E 1 93 48 5a
        E 477 82 4f 64
        E 0 83 48 64
        E 0 92 4d 64
        E 0 93 43 5a
        E 480 82 4d 64
        E 1 83 43 64
        E 0 92 4b 66
        E 0 93 48 5a
        E 240 83 48 64
        E 0 93 47 5a
        E 240 83 47 64
        E 0 93 48 5a
        E 480 82 4b 66
        E 0 83 48 64
        E 0 92 4a 64
        E 0 93 43 5a
        E 240 82 4a 64
        E 0 92 4b 66
        E 241 82 4b 66
        E 0 83 43 64
        E 0 92 4d 64
        E 1 93 37 5a
        E 479 82 4d 64
        E 0 83 37 64
        E 0 92 4f 64
        E 0 93 48 5a
        E 479 82 4f 64
        E 0 83 48 64
        E 0 92 50 66
        E 0 93 41 5a
        E 480 82 50 66
        E 0 83 41 64
        E 1 92 47 64
        E 0 93 43 5a
        E 480 82 47 64
        E 0 83 43 64
        E 0 92 48 64
        E 1 93 3c 5a
        E 479 82 48 64
        E 0 83 3c 64
        E 0 92 4a 64
        E 0 93 37 5a
        E 240 82 4a 64
        E 0 92 4b 66
        E 239 82 4b 66
        E 0 83 37 64
        E 0 92 4d 64
        E 0 93 43 5a
        E 480 82 4d 64
        E 0 83 43 64
        E 0 92 4f 64
        E 0 93 48 5a
        E 481 82 4f 64
        E 0 83 48 64
        E 0 92 50 66
        E 0 93 41 5a
        E 479 82 50 66
        E 1 83 41 64
        E 0 92 47 64
        E 0 93 43 5a
        E 480 82 47 64
        E 0 83 43 64
        E 0 92 48 64
        E 0 93 3c 5a
        E 479 82 48 64
        E 0 83 3c 64
        E 0 92 4a 64
        E 0 93 37 5a
        E 241 82 4a 64
        E 0 92 4b 66
        E 240 82 4b 66
        E 0 83 37 64
        E 1 92 4d 64
        E 0 93 43 5a
        E 478 82 4d 64
        E 0 83 43 64
        E 0 92 4b 66
        E 0 93 3c 5a
        E 480 82 4b 66
        E 0 83 3c 64
        E 0 92 4b 66
        E 0 93 43 5a
        E 480 82 4b 66
        E 0 83 43 64
        E 1 92 4a 64
        E 0 93 37 5a
        E 480 82 4a 64
        E 1 83 37 64
        E 0 92 43 64
        E 1 93 37 5a
        E 477 82 43 64
        E 0 83 37 64
        E 1 92 4f 64
        E 1 93 43 5a
        E 0 9f 37 5a
        E 238 82 4f 64
        E 0 83 43 64
        E 0 8f 37 64
        E 1 92 4e 64
        E 0 93 42 5a
        E 0 9f 36 5a
        E 239 82 4e 64
        E 0 83 42 64
        E 0 8f 36 64
        E 0 92 4c 64
        E 0 93 40 5a
        E 0 9f 34 5a
        E 240 82 4c 64
        E 0 83 40 64
        E 0 8f 34 64
        E 0 92 4a 64
        E 0 93 3e 5a
        E 1 9f 32 5a
        E 239 82 4a 64
        E 0 83 3e 64
        E 1 8f 32 64
        E 0 92 48 64
        E 0 93 3c 5a
        E 0 9f 30 5a
        E 239 82 48 64
        E 0 83 3c 64
        E 0 8f 30 64
        E 1 92 47 64
        E 0 93 3b 5a
        E 0 9f 2f 5a
        E 240 82 47 64
        E 0 83 3b 64
        E 0 8f 2f 64
        E 0 92 51 64
        E 0 93 45 5a
        E 0 9f 39 5a
        E 240 82 51 64
        E 0 83 45 64
        E 0 8f 39 64
        E 1 92 4f 64
        E 0 93 43 5a
        E 0 9f 37 5a
        E 238 82 4f 64
        E 0 83 43 64
        E 0 8f 37 64
        E 0 92 4e 64
        E 0 93 42 5a
        E 0 9f 36 5a
        E 240 82 4e 64
        E 0 83 42 64
        E 0 8f 36 64
        E 0 92 4c 64
        E 0 93 40 5a
        E 0 9f 34 5a
        E 241 82 4c 64
        E 0 83 40 64
        E 0 8f 34 64
        E 0 92 4a 64
        E 0 93 3e 5a
        E 0 9f 32 5a
        E 479 82 4a 64
        E 0 83 3e 64
        E 0 8f 32 64
        E 0 92 4f 64
        E 0 93 43 5a
        E 0 9f 37 5a
        E 480 82 4f 64
        E 0 83 43 64
        E 0 8f 37 64
        E 0 92 48 64
        E 0 93 3c 5a
        E 0 9f 30 5a
        E 482 82 48 64
        E 0 83 3c 64
        E 0 8f 30 64
        E 0 92 4a 64
        E 0 93 3e 5a
        E 0 9f 32 5a
        E 478 82 4a 64
        E 0 83 3e 64
        E 0 8f 32 64
        E 0 92 43 64
        E 0 93 37 5a
        E 0 9f 2b 5a
        E 1440 82 43 64
        E 0 83 37 64
        E 0 8f 2b 64
        E 960 92 4a 64
        E 0 93 3e 5a
        E 0 9f 37 5a
        E 481 82 4a 64
        E 0 83 3e 64
        E 0 8f 37 64
        E 0 92 47 64
        E 0 93 3e 5a
        E 0 9f 2b 5a
        E 239 82 47 64
        E 0 92 48 64
        E 239 82 48 64
        E 0 8f 2b 64
        E 1 92 4a 64
        E 0 9f 37 5a
        E 481 82 4a 64
        E 0 83 3e 64
        E 0 8f 37 64
        E 0 92 4c 64
        E 1 93 45 5a
        E 0 9f 36 5a
        E 479 82 4c 64
        E 1 83 45 64
        E 0 8f 36 64
        E 0 92 4a 64
        E 0 93 47 5a
        E 0 9f 37 5a
        E 479 82 4a 64
        E 0 83 47 64
        E 0 8f 37 64
        E 1 92 4e 64
        E 0 93 45 5a
        E 0 9f 32 5a
        E 478 82 4e 64
        E 0 83 45 64
        E 0 8f 32 64
        E 0 92 4f 64
        E 0 93 47 5a
        E 0 9f 2b 5a
        E 481 82 4f 64
        E 0 83 47 64
        E 0 8f 2b 64
        E 0 92 45 64
        E 0 93 45 5a
        E 0 9f 26 5a
        E 239 82 45 64
        E 0 92 47 64
        E 240 82 47 64
        E 0 8f 26 64
        E 0 92 48 64
        E 0 9f 32 5a
        E 480 82 48 64
        E 0 83 45 64
        E 0 8f 32 64
        E 0 92 4a 64
        E 0 93 45 5a
        E 0 9f 36 5a
        E 480 82 4a 64
        E 0 83 45 64
        E 0 8f 36 64
        E 0 92 47 64
        E 1 93 3e 5a
        E 0 9f 37 5a
        E 479 82 47 64
        E 0 83 3e 64
        E 0 8f 37 64
        E 0 92 4e 64
        E 0 93 45 5a
        E 0 9f 32 5a
        E 480 82 4e 64
        E 0 83 45 64
        E 0 8f 32 64
        E 0 92 4f 64
        E 0 93 47 5a
        E 0 9f 2b 5a
        E 482 82 4f 64
        E 0 83 47 64
        E 0 8f 2b 64
        E 0 92 45 64
        E 0 93 45 5a
        E 0 9f 26 5a
        E 239 82 45 64
        E 0 92 47 64
        E 240 82 47 64
        E 0 8f 26 64
        E 1 92 48 64
        E 0 9f 32 5a
        E 479 82 48 64
        E 0 83 45 64
        E 0 8f 32 64
        E 0 92 4a 64
        E 0 93 42 5a
        E 0 9f 36 5a
        E 479 82 4a 64
        E 0 83 42 64
        E 0 8f 36 64
        E 0 92 47 64
        E 0 93 3e 5a
        E 0 9f 37 5a
        E 240 82 47 64
        E 0 83 3e 64
        E 0 8f 37 64
        E 0 92 4a 64
        E 0 93 4a 5a
        E 0 9f 3e 5a
        E 242 82 4a 64
        E 0 83 4a 64
        E 0 8f 3e 64
        E 0 92 48 64
        E 0 93 48 5a
        E 0 9f 3c 5a
        E 239 82 48 64
        E 0 83 48 64
        E 0 8f 3c 64
        E 0 92 47 64
        E 0 93 47 5a
        E 0 9f 3b 5a
        E 239 82 47 64
        E 1 83 47 64
        E 0 8f 3b 64
        E 0 92 45 64
        E 0 93 45 5a
        E 0 9f 39 5a
        E 239 82 45 64
        E 0 83 45 64
        E 0 8f 39 64
        E 0 92 43 64
        E 1 93 43 5a
        E 0 9f 37 5a
        E 239 82 43 64
        E 0 83 43 64
        E 0 8f 37 64
        E 0 92 47 64
        E 0 93 47 5a
        E 0 9f 3b 5a
        E 240 82 47 64
        E 0 83 47 64
        E 0 8f 3b 64
        E 0 92 4a 64
        E 0 93 4a 5a
        E 0 9f 3e 5a
        E 241 82 4a 64
        E 0 83 4a 64
        E 0 8f 3e 64
        E 0 92 48 64
        E 0 93 48 5a
        E 0 9f 3c 5a
        E 239 82 48 64
        E 0 83 48 64
        E 0 8f 3c 64
        E 1 92 47 64
        E 0 93 47 5a
        E 0 9f 3b 5a
        E 239 82 47 64
        E 0 83 47 64
        E 0 8f 3b 64
        E 0 92 45 64
        E 1 93 45 5a
        E 0 9f 39 5a
        E 240 82 45 64
        E 0 83 45 64
        E 0 8f 39 64
        E 0 92 43 64
        E 1 93 43 5a
        E 0 9f 37 5a
        E 238 82 43 64
        E 0 83 43 64
        E 0 8f 37 64
        E 0 92 42 64
        E 0 93 42 5a
        E 0 9f 36 5a
        E 479 82 42 64
        E 0 83 42 64
        E 0 8f 36 64
        E 1 92 40 64
        E 0 93 40 5a
        E 0 9f 34 5a
        E 480 82 40 64
        E 0 83 40 64
        E 0 8f 34 64
        E 0 92 3e 64
        E 0 93 3e 5a
        E 0 9f 32 5a
        E 480 82 3e 64
        E 0 83 3e 64
        E 0 8f 32 64
        E 0 92 4f 64
        E 0 93 48 5a
        E 479 82 4f 64
        E 0 83 48 64
        E 1 92 50 66
        E 0 93 48 5a
        E 481 82 50 66
        E 0 83 48 64
        E 0 92 4b 66
        E 0 93 48 5a
        E 480 82 4b 66
        E 0 83 48 64
        E 0 92 4d 64
        E 0 93 48 5a
        E 480 82 4d 64
        E 0 83 48 64
        E 1 92 4f 64
        E 0 93 46 5b
        E 478 82 4f 64
        E 0 83 46 66
        E 0 92 4a 64
        E 0 93 46 5b
        E 480 82 4a 64
        E 0 83 46 66
        E 0 92 4b 66
        E 0 93 46 5b
        E 480 82 4b 66
        E 0 83 46 66
        E 0 92 4d 64
        E 0 93 44 5b
        E 482 82 4d 64
        E 0 83 44 66
        E 0 92 48 64
        E 0 93 44 5b
        E 479 82 48 64
        E 0 83 44 66
        E 0 92 47 64
        E 0 93 43 5a
        E 481 82 47 64
        E 0 83 43 64
        E 0 92 45 64
        E 0 93 37 5a
        E 239 82 45 64
        E 0 92 47 64
        E 239 82 47 64
        E 0 83 37 64
        E 0 92 43 64
        E 0 93 37 5a
        E 480 82 43 64
        E 0 83 37 64
        E 0 92 48 64
        E 0 93 48 5a
        E 0 9f 3c 5a
        E 241 82 48 64
        E 0 83 48 64
        E 0 8f 3c 64
        E 0 92 47 64
        E 0 93 47 5a
        E 1 9f 3b 5a
        E 238 82 47 64
        E 0 83 47 64
        E 0 8f 3b 64
        E 0 92 45 64
        E 0 93 45 5a
        E 0 9f 39 5a
        E 240 82 45 64
        E 0 83 45 64
        E 0 8f 39 64
        E 1 92 43 64
        E 0 93 43 5a
        E 0 9f 37 5a
        E 241 82 43 64
        E 0 83 43 64
        E 0 8f 37 64
        E 0 92 41 64
        E 0 93 41 5a
        E 0 9f 35 5a
        E 239 82 41 64
        E 0 83 41 64
        E 0 8f 35 64
        E 0 92 40 64
        E 0 93 40 5a
        E 0 9f 34 5a
        E 241 82 40 64
        E 0 83 40 64
        E 0 8f 34 64
        E 0 92 45 64
        E 0 93 45 5a
        E 0 9f 39 5a
        E 238 82 45 64
        E 0 83 45 64
        E 0 8f 39 64
        E 0 92 43 64
        E 0 93 43 5a
        E 0 9f 37 5a
        E 240 82 43 64
        E 0 83 43 64
        E 0 8f 37 64
        E 0 92 41 64
        E 0 93 41 5a
        E 0 9f 35 5a
        E 240 82 41 64
        E 1 83 41 64
        E 0 8f 35 64
        E 0 92 40 64
        E 0 93 40 5a
        E 0 9f 34 5a
        E 239 82 40 64
        E 0 83 40 64
        E 0 8f 34 64
        E 0 92 3e 64
        E 0 93 3e 5a
        E 0 9f 32 5a
        E 241 82 3e 64
        E 0 83 3e 64
        E 0 8f 32 64
        E 0 92 3c 64
        E 1 93 3c 5a
        E 0 9f 30 5a
        E 239 82 3c 64
        E 0 83 3c 64
        E 0 8f 30 64
        E 0 92 41 64
        E 1 93 41 5a
        E 0 9f 35 5a
        E 478 82 41 64
        E 0 83 41 64
        E 0 8f 35 64
        E 0 92 43 64
        E 1 93 43 5a
        E 0 9f 37 5a
        E 479 82 43 64
        E 0 83 43 64
        E 0 8f 37 64
        E 0 92 37 64
        E 0 93 37 5a
        E 0 9f 2b 5a
        E 480 82 37 64
        E 0 83 37 64
        E 0 8f 2b 64
        E 0 92 3c 64
        E 0 93 3c 5a
        E 0 9f 30 5a
        E 1441 82 3c 64
        E 0 83 3c 64
        E 0 8f 30 64
        E 1440 92 48 64
        E 479 82 48 64
        E 0 92 4c 64
        E 0 93 3c 5a
        E 0 9f 30 5a
        E 482 82 4c 64
        E 0 83 3c 64
        E 0 8f 30 64
        E 0 92 4a 64
        E 0 93 3e 5a
        E 0 9f 32 5a
        E 239 82 4a 64
        E 1 92 48 64
        E 238 82 48 64
        E 0 83 3e 64
        E 0 8f 32 64
        E 0 92 4f 64
        E 0 93 40 5a
        E 0 9f 34 5a
        E 480 82 4f 64
        E 0 83 40 64
        E 0 8f 34 64
        E 0 92 4c 64
        E 1 93 3c 5a
        E 0 9f 30 5a
        E 480 82 4c 64
        E 0 83 3c 64
        E 0 8f 30 64
        E 0 92 4a 64
        E 0 93 43 5a
        E 0 9f 37 5a
        E 479 82 4a 64
        E 0 83 43 64
        E 0 8f 37 64
        E 0 92 47 64
        E 0 93 37 5a
        E 0 9f 2b 5a
        E 481 82 47 64
        E 0 83 37 64
        E 0 8f 2b 64
        E 0 92 45 64
        E 1 93 39 5a
        E 0 9f 2d 5a
        E 477 82 45 64
        E 0 83 39 64
        E 0 8f 2d 64
        E 0 92 43 64
        E 1 93 3b 5a
        E 0 9f 2f 5a
        E 481 82 43 64
        E 0 83 3b 64
        E 0 8f 2f 64
        E 0 92 4c 64
        E 0 93 3c 5a
        E 0 9f 30 5a
        E 480 82 4c 64
        E 0 83 3c 64
        E 0 8f 30 64
        E 0 92 4a 64
        E 0 93 3e 5a
        E 0 9f 32 5a
        E 238 82 4a 64
        E 1 92 48 64
        E 241 82 48 64
        E 0 83 3e 64
        E 0 8f 32 64
        E 0 92 4f 64
        E 0 93 40 5a
        E 0 9f 34 5a
        E 480 82 4f 64
        E 0 83 40 64
        E 0 8f 34 64
        E 0 92 4c 64
        E 0 93 3c 5a
        E 0 9f 30 5a
        E 480 82 4c 64
        E 0 83 3c 64
        E 0 8f 30 64
        E 1 92 4a 64
        E 0 93 43 5a
        E 0 9f 37 5a
        E 479 82 4a 64
        E 0 83 43 64
        E 0 8f 37 64
        E 0 92 47 64
        E 0 93 37 5a
        E 0 9f 2b 5a
        E 480 82 47 64
        E 0 83 37 64
        E 0 8f 2b 64
        E 0 92 45 64
        E 0 93 39 5a
        E 0 9f 2d 5a
        E 480 82 45 64
        E 0 83 39 64
        E 0 8f 2d 64
        E 0 92 43 64
        E 1 93 3b 5a
        E 0 9f 2f 5a
        E 479 82 43 64
        E 0 83 3b 64
        E 0 8f 2f 64
        E 0 92 4f 64
        E 0 93 3c 5a
        E 0 9f 30 5a
        E 478 82 4f 64
        E 0 83 3c 64
        E 0 8f 30 64
        E 2 92 4d 64
        E 0 93 48 5a
        E 0 9f 3c 5a
        E 239 82 4d 64
        E 0 92 4c 64
        E 241 82 4c 64
        E 0 83 48 64
        E 0 8f 3c 64
        E 0 92 4d 64
        E 0 93 47 5a
        E 0 9f 3b 5a
        E 239 82 4d 64
        E 0 92 4f 64
        E 241 82 4f 64
        E 0 83 47 64
        E 0 8f 3b 64
        E 0 92 51 64
        E 0 93 43 5a
        E 0 9f 37 5a
        E 240 82 51 64
        E 1 92 53 64
        E 239 82 53 64
        E 0 83 43 64
        E 0 8f 37 64
        E 0 92 54 64
        E 0 93 40 5a
        E 0 9f 34 5a
        E 480 82 54 64
        E 0 83 40 64
        E 0 8f 34 64
        E 0 92 53 64
        E 0 93 3c 5a
        E 0 9f 30 5a
        E 238 82 53 64
        E 0 92 51 64
        E 243 82 51 64
        E 0 83 3c 64
        E 0 8f 30 64
        E 0 92 4f 64
        E 0 93 3b 5a
        E 0 9f 2f 5a
        E 478 82 4f 64
        E 0 83 3b 64
        E 0 8f 2f 64
        E 0 92 4d 64
        E 0 93 37 5a
        E 0 9f 2b 5a
        E 480 82 4d 64
        E 0 83 37 64
        E 0 8f 2b 64
        E 0 92 4c 64
        E 0 93 3c 5a
        E 0 9f 30 5a
        E 482 82 4c 64
        E 0 83 3c 64
        E 0 8f 30 64
        E 0 92 4a 64
        E 0 93 48 5a
        E 0 9f 3c 5a
        E 238 82 4a 64
        E 0 92 48 64
        E 240 82 48 64
        E 0 83 48 64
        E 0 8f 3c 64
        E 0 92 4a 64
        E 0 93 43 5a
        E 0 9f 37 5a
        E 480 82 4a 64
        E 0 83 43 64
        E 0 8f 37 64
        E 0 92 47 64
        E 1 93 37 5a
        E 0 9f 2b 5a
        E 479 82 47 64
        E 0 83 37 64
        E 0 8f 2b 64
        E 0 92 48 64
        E 0 93 30 5a
        E 0 9f 24 5a
        E 480 82 48 64
        E 0 83 30 64
        E 0 8f 24 64
        E 1 92 43 64
        E 0 93 3c 5a
        E 0 9f 30 5a
        E 481 82 43 64
        E 0 83 3c 64
        E 0 8f 30 64
        E 0 92 40 64
        E 0 93 40 5a
        E 1 9f 34 5a
        E 479 82 40 64
        E 0 83 40 64
        E 0 8f 34 64
        E 0 92 3c 64
        E 0 93 41 5a
        E 0 9f 35 5a
        E 478 82 3c 64
        E 0 83 41 64
        E 0 8f 35 64
        E 0 92 4a 64
        E 0 93 43 5a
        E 0 9f 37 5a
        E 481 82 4a 64
        E 0 83 43 64
        E 0 8f 37 64
        E 0 92 48 64
        E 0 93 41 5a
        E 0 9f 35 5a
        E 239 82 48 64
        E 0 92 47 64
        E 240 82 47 64
        E 0 83 41 64
        E 0 8f 35 64
        E 0 92 48 64
        E 0 93 40 5a
        E 0 9f 34 5a
        E 481 82 48 64
        E 0 83 40 64
        E 0 8f 34 64
        E 0 92 4a 64
        E 0 93 3e 5a
        E 0 9f 32 5a
        E 479 82 4a 64
        E 0 83 3e 64
        E 0 8f 32 64
        E 0 92 4c 64
        E 0 93 3c 5a
        E 0 9f 30 5a
        E 482 82 4c 64
        E 0 83 3c 64
        E 0 8f 30 64
        E 0 92 4a 64
        E 0 93 40 5a
        E 0 9f 34 5a
        E 238 82 4a 64
        E 0 92 48 64
        E 240 82 48 64
        E 0 83 40 64
        E 0 8f 34 64
        E 0 92 4c 64
        E 0 93 3e 5a
        E 0 9f 32 5a
        E 481 82 4c 64
        E 0 83 3e 64
        E 0 8f 32 64
        E 0 92 4e 64
        E 0 93 3c 5a
        E 1 9f 30 5a
        E 478 82 4e 64
        E 1 83 3c 64
        E 0 8f 30 64
        E 0 92 4f 64
        E 0 93 3b 5a
        E 0 9f 2f 5a
        E 478 82 4f 64
        E 0 83 3b 64
        E 0 8f 2f 64
        E 0 92 4d 64
        E 0 93 43 5a
        E 0 9f 37 5a
        E 242 82 4d 64
        E 0 92 4c 64
        E 239 82 4c 64
        E 0 83 43 64
        E 0 8f 37 64
        E 0 92 4a 64
        E 0 93 42 5a
        E 0 9f 36 5a
        E 240 82 4a 64
        E 0 92 48 64
        E 240 82 48 64
        E 0 83 42 64
        E 0 8f 36 64
        E 0 92 47 64
        E 0 93 3e 5a
        E 0 9f 32 5a
        E 240 82 47 64
        E 0 92 45 64
        E 239 82 45 64
        E 0 83 3e 64
        E 0 8f 32 64
        E 0 92 47 64
        E 0 93 43 5a
        E 0 9f 37 5a
        E 482 82 47 64
        E 0 83 43 64
        E 0 8f 37 64
        E 0 92 45 64
        E 0 93 3b 5a
        E 0 9f 2f 5a
        E 239 82 45 64
        E 0 92 43 64
        E 241 82 43 64
        E 0 83 3b 64
        E 0 8f 2f 64
        E 0 92 45 64
        E 0 93 3c 5a
        E 0 9f 30 5a
        E 480 82 45 64
        E 0 83 3c 64
        E 0 8f 30 64
        E 0 92 42 64
        E 0 93 3e 5a
        E 0 9f 32 5a
        E 479 82 42 64
        E 0 83 3e 64
        E 0 8f 32 64
        E 0 92 4f 64
        E 0 93 37 5a
        E 0 9f 2b 5a
        E 481 82 4f 64
        E 0 83 37 64
        E 0 8f 2b 64
        E 0 92 4d 64
        E 0 93 43 5a
        E 0 9f 37 5a
        E 241 82 4d 64
        E 0 92 4c 64
        E 240 82 4c 64
        E 0 83 43 64
        E 0 8f 37 64
        E 0 92 4a 64
        E 0 93 42 5a
        E 0 9f 36 5a
        E 239 82 4a 64
        E 1 92 48 64
        E 238 82 48 64
        E 1 83 42 64
        E 0 8f 36 64
        E 0 92 47 64
        E 0 93 3e 5a
        E 0 9f 32 5a
        E 239 82 47 64
        E 0 92 45 64
        E 240 82 45 64
        E 0 83 3e 64
        E 0 8f 32 64
        E 0 92 47 64
        E 0 93 43 5a
        E 0 9f 37 5a
        E 480 82 47 64
        E 0 83 43 64
        E 0 8f 37 64
        E 0 92 45 64
        E 0 93 3b 5a
        E 0 9f 2f 5a
        E 241 82 45 64
        E 0 92 43 64
        E 239 82 43 64
        E 0 83 3b 64
        E 0 8f 2f 64
        E 0 92 45 64
        E 0 93 3c 5a
        E 0 9f 30 5a
        E 481 82 45 64
        E 0 83 3c 64
        E 0 8f 30 64
        E 0 92 42 64
        E 0 93 3e 5a
        E 0 9f 32 5a
        E 480 82 42 64
        E 0 83 3e 64
        E 0 8f 32 64
        E 0 92 4f 64
        E 0 93 37 5a
        E 0 9f 2b 5a
        E 479 82 4f 64
        E 0 83 37 64
        E 0 8f 2b 64
        E 0 92 4d 64
        E 1 93 43 5a
        E 0 9f 37 5a
        E 241 82 4d 64
        E 1 92 4c 64
        E 237 82 4c 64
        E 0 83 43 64
        E 0 8f 37 64
        E 0 92 4a 64
        E 0 93 42 5a
        E 0 9f 36 5a
        E 240 82 4a 64
        E 0 92 48 64
        E 240 82 48 64
        E 0 83 42 64
        E 0 8f 36 64
        E 0 92 47 64
        E 0 93 3e 5a
        E 0 9f 32 5a
        E 240 82 47 64
        E 0 92 45 64
        E 240 82 45 64
        E 0 83 3e 64
        E 0 8f 32 64
        E 0 92 47 64
        E 0 93 43 5a
        E 0 9f 37 5a
        E 479 82 47 64
        E 0 83 43 64
        E 0 8f 37 64
        E 0 92 45 64
        E 0 93 3b 5a
        E 0 9f 2f 5a
        E 242 82 45 64
        E 0 92 43 64
        E 239 82 43 64
        E 0 83 3b 64
        E 0 8f 2f 64
        E 0 92 45 64
        E 0 93 3c 5a
        E 0 9f 30 5a
        E 480 82 45 64
        E 0 83 3c 64
        E 0 8f 30 64
        E 1 92 42 64
        E 0 93 3e 5a
        E 0 9f 32 5a
        E 479 82 42 64
        E 0 83 3e 64
        E 0 8f 32 64
        E 0 92 43 64
        E 0 93 37 5a
        E 0 9f 2b 5a
        E 1439 82 43 64
        E 0 83 37 64
        E 0 8f 2b 64
        E 1921 92 4f 64
        E 480 82 4f 64
        E 0 92 53 64
        E 0 93 37 5a
        E 0 9f 2b 5a
        E 480 82 53 64
        E 0 83 37 64
        E 0 8f 2b 64
        E 0 92 51 64
        E 0 93 43 5a
        E 0 9f 37 5a
        E 241 82 51 64
        E 0 92 4f 64
        E 240 82 4f 64
        E 0 83 43 64
        E 0 8f 37 64
        E 0 92 51 64
        E 0 93 4a 5a
        E 0 9f 3e 5a
        E 479 82 51 64
        E 0 83 4a 64
        E 0 8f 3e 64
        E 0 92 4e 64
        E 0 93 3e 5a
        E 0 9f 32 5a
        E 482 82 4e 64
        E 0 83 3e 64
        E 0 8f 32 64
        E 0 92 4f 64
        E 0 93 37 5a
        E 0 9f 2b 5a
        E 479 82 4f 64
        E 0 83 37 64
        E 0 8f 2b 64
        E 0 92 4a 64
        E 0 93 47 5a
        E 0 9f 3b 5a
        E 479 82 4a 64
        E 0 83 47 64
        E 0 8f 3b 64
        E 0 92 48 64
        E 0 93 45 5a
        E 0 9f 39 5a
        E 481 82 48 64
        E 0 83 45 64
        E 0 8f 39 64
        E 0 92 47 64
        E 1 93 43 5a
        E 0 9f 37 5a
        E 478 82 47 64
        E 0 83 43 64
        E 0 8f 37 64
        E 0 92 53 64
        E 0 93 37 5a
        E 0 9f 2b 5a
        E 482 82 53 64
        E 0 83 37 64
        E 1 8f 2b 64
        E 0 92 51 64
        E 0 93 43 5a
        E 0 9f 37 5a
        E 239 82 51 64
        E 0 92 4f 64
        E 238 82 4f 64
        E 0 83 43 64
        E 0 8f 37 64
        E 0 92 51 64
        E 0 93 4a 5a
        E 0 9f 3e 5a
        E 481 82 51 64
        E 0 83 4a 64
        E 0 8f 3e 64
        E 0 92 4e 64
        E 0 93 3e 5a
        E 0 9f 32 5a
        E 480 82 4e 64
        E 0 83 3e 64
        E 0 8f 32 64
        E 0 92 4f 64
        E 0 93 37 5a
        E 0 9f 2b 5a
        E 480 82 4f 64
        E 0 83 37 64
        E 0 8f 2b 64
        E 0 92 4a 64
        E 0 93 47 5a
        E 0 9f 3b 5a
        E 479 82 4a 64
        E 0 83 47 64
        E 0 8f 3b 64
        E 0 92 48 64
        E 0 93 45 5a
        E 0 9f 39 5a
        E 481 82 48 64
        E 0 83 45 64
        E 0 8f 39 64
        E 0 92 47 64
        E 0 93 43 5a
        E 0 9f 37 5a
        E 479 82 47 64
        E 0 83 43 64
        E 0 8f 37 64
        E 0 92 4c 64
        E 0 93 3c 5a
        E 0 9f 30 5a
        E 481 82 4c 64
        E 0 83 3c 64
        E 0 8f 30 64
        E 0 92 4a 64
        E 0 93 3e 5a
        E 0 9f 32 5a
        E 240 82 4a 64
        E 0 92 48 64
        E 239 82 48 64
        E 0 83 3e 64
        E 0 8f 32 64
        E 0 92 4f 64
        E 0 93 40 5a
        E 0 9f 34 5a
        E 481 82 4f 64
        E 0 83 40 64
        E 0 8f 34 64
        E 0 92 4c 64
        E 0 93 3c 5a
        E 0 9f 30 5a
        E 479 82 4c 64
        E 0 83 3c 64
        E 0 8f 30 64
        E 0 92 4a 64
        E 0 93 43 5a
        E 0 9f 37 5a
        E 481 82 4a 64
        E 0 83 43 64
        E 0 8f 37 64
        E 1 92 47 64
        E 0 93 37 5a
        E 0 9f 2b 5a
        E 479 82 47 64
        E 0 83 37 64
        E 0 8f 2b 64
        E 0 92 45 64
        E 0 93 39 5a
        E 0 9f 2d 5a
        E 478 82 45 64
        E 0 83 39 64
        E 0 8f 2d 64
        E 0 92 43 64
        E 0 93 3b 5a
        E 0 9f 2f 5a
        E 481 82 43 64
        E 0 83 3b 64
        E 0 8f 2f 64
        E 0 92 4c 64
        E 0 93 3c 5a
        E 0 9f 30 5a
        E 481 82 4c 64
        E 0 83 3c 64
        E 0 8f 30 64
        E 0 92 4a 64
        E 0 93 3e 5a
        E 0 9f 32 5a
        E 240 82 4a 64
        E 0 92 48 64
        E 239 82 48 64
        E 0 83 3e 64
        E 3 8f 32 64
        E 0 92 4f 64
        E 1 93 40 5a
        E 0 9f 34 5a
        E 477 82 4f 64
        E 0 83 40 64
        E 0 8f 34 64
        E 0 92 4c 64
        E 0 93 3c 5a
        E 0 9f 30 5a
        E 480 82 4c 64
        E 0 83 3c 64
        E 0 8f 30 64
        E 0 92 4a 64
        E 0 93 43 5a
        E 0 9f 37 5a
        E 478 83 43 64
        E 0 8f 37 64
        E 0 93 41 5a
        E 0 9f 35 5a
        E 480 82 4a 64
        E 0 83 41 64
        E 0 8f 35 64
        E 0 93 3f 5b
        E 0 9f 33 5b
        E 481 83 3f 66
        E 0 8f 33 66
        E 0 92 43 64
        E 0 93 3e 5a
        E 0 9f 32 5a
        E 481 82 43 64
        E 0 83 3e 64
        E 0 8f 32 64
        E 0 92 4b 66
        E 0 93 3c 5a
        E 0 9f 30 5a
        E 480 82 4b 66
        E 0 83 3c 64
        E 1 8f 30 64
        E 0 92 4a 64
        E 0 93 48 5a
        E 0 9f 3c 5a
        E 240 82 4a 64
        E 0 92 48 64
        E 238 82 48 64
        E 0 83 48 64
        E 0 8f 3c 64
        E 0 92 4a 64
        E 0 93 43 5a
        E 0 9f 37 5a
        E 481 82 4a 64
        E 0 83 43 64
        E 0 8f 37 64
        E 0 92 47 64
        E 0 93 37 5a
        E 0 9f 2b 5a
        E 480 82 47 64
        E 0 83 37 64
        E 0 8f 2b 64
        E 0 92 48 64
        E 1 93 3c 5a
        E 0 9f 30 5a
        E 238 82 48 64
        E 0 92 4a 64
        E 240 82 4a 64
        E 0 83 3c 64
        E 0 8f 30 64
        E 0 92 4b 66
        E 0 93 3e 5a
        E 0 9f 32 5a
        E 241 82 4b 66
        E 0 92 4d 64
        E 240 82 4d 64
        E 0 83 3e 64
        E 0 8f 32 64
        E 0 92 4f 64
        E 0 93 3f 5b
        E 0 9f 33 5b
        E 480 82 4f 64
        E 0 83 3f 66
        E 0 8f 33 66
        E 0 92 48 64
        E 0 93 3c 5a
        E 0 9f 30 5a
        E 481 82 48 64
        E 0 83 3c 64
        E 0 8f 30 64
        E 0 92 4b 66
        E 0 93 3c 5a
        E 0 9f 30 5a
        E 477 82 4b 66
        E 0 83 3c 64
        E 0 8f 30 64
        E 0 92 4a 64
        E 1 93 48 5a
        E 0 9f 3c 5a
        E 239 82 4a 64
        E 0 92 48 64
        E 242 82 48 64
        E 0 83 48 64
        E 0 8f 3c 64
        E 0 92 4a 64
        E 0 93 43 5a
        E 0 9f 37 5a
        E 480 82 4a 64
        E 0 83 43 64
        E 0 8f 37 64
        E 0 92 47 64
        E 0 93 37 5a
        E 0 9f 2b 5a
        E 481 82 47 64
        E 0 83 37 64
        E 0 8f 2b 64
        E 0 92 48 64
        E 0 93 3c 5a
        E 0 9f 30 5a
        E 238 82 48 64
        E 0 92 4a 64
        E 241 82 4a 64
        E 0 83 3c 64
        E 0 8f 30 64
        E 0 92 4b 66
        E 0 93 48 5a
        E 0 9f 3c 5a
        E 239 82 4b 66
        E 0 92 4d 64
        E 240 82 4d 64
        E 0 83 48 64
        E 0 8f 3c 64
        E 0 92 4f 64
        E 0 93 47 5a
        E 0 9f 3b 5a
        E 481 82 4f 64
        E 0 83 47 64
        E 0 8f 3b 64
        E 0 92 4d 64
        E 0 93 43 5a
        E 0 9f 37 5a
        E 480 82 4d 64
        E 0 83 43 64
        E 0 8f 37 64
        E 0 92 4c 64
        E 0 93 3c 5a
        E 0 9f 30 5a
        E 479 82 4c 64
        E 0 83 3c 64
        E 0 8f 30 64
        E 0 92 4a 64
        E 0 93 3e 5a
        E 0 9f 32 5a
        E 239 82 4a 64
        E 0 92 48 64
        E 242 82 48 64
        E 0 83 3e 64
        E 0 8f 32 64
        E 1 92 4f 64
        E 0 93 40 5a
        E 0 9f 34 5a
        E 478 82 4f 64
        E 0 83 40 64
        E 0 8f 34 64
        E 1 92 4d 64
        E 0 93 3e 5a
        E 0 9f 32 5a
        E 239 82 4d 64
        E 0 92 4c 64
        E 241 82 4c 64
        E 0 83 3e 64
        E 0 8f 32 64
        E 0 92 54 64
        E 0 93 3c 5a
        E 0 9f 30 5a
        E 480 82 54 64
        E 0 83 3c 64
        E 0 8f 30 64
        E 1 92 53 64
        E 0 93 48 5a
        E 0 9f 3c 5a
        E 239 82 53 64
        E 0 92 51 64
        E 239 82 51 64
        E 0 83 48 64
        E 0 8f 3c 64
        E 0 92 4f 64
        E 0 93 47 5a
        E 0 9f 3b 5a
        E 242 82 4f 64
        E 0 92 4d 64
        E 238 82 4d 64
        E 0 83 47 64
        E 0 8f 3b 64
        E 0 92 4c 64
        E 0 93 43 5a
        E 0 9f 37 5a
        E 240 82 4c 64
        E 0 92 4a 64
        E 240 82 4a 64
        E 0 83 43 64
        E 0 8f 37 64
        E 0 92 4c 64
        E 0 93 48 5a
        E 0 9f 3c 5a
        E 481 82 4c 64
        E 0 83 48 64
        E 0 8f 3c 64
        E 0 92 4a 64
        E 0 93 40 5a
        E 0 9f 34 5a
        E 239 82 4a 64
        E 0 92 48 64
        E 241 82 48 64
        E 0 83 40 64
        E 0 8f 34 64
        E 0 92 4a 64
        E 0 93 41 5a
        E 0 9f 35 5a
        E 479 82 4a 64
        E 0 83 41 64
        E 0 8f 35 64
        E 0 92 47 64
        E 0 93 43 5a
        E 0 9f 37 5a
        E 480 82 47 64
        E 0 83 43 64
        E 0 8f 37 64
        E 0 92 48 64
        E 0 93 3c 5a
        E 0 9f 30 5a
        E 480 82 48 64
        E 0 83 3c 64
        E 0 8f 30 64
        E 0 92 47 64
        E 0 93 3c 5a
        E 0 9f 30 5a
        E 241 82 47 64
        E 0 92 45 64
        E 239 82 45 64
        E 0 83 3c 64
        E 0 8f 30 64
        E 1 92 43 64
        E 0 93 3b 5a
        E 0 9f 2f 5a
        E 240 82 43 64
        E 0 92 41 64
        E 239 82 41 64
        E 0 83 3b 64
        E 0 8f 2f 64
        E 0 92 40 64
        E 1 93 37 5a
        E 0 9f 2b 5a
        E 241 82 40 64
        E 0 92 3e 64
        E 238 82 3e 64
        E 0 83 37 64
        E 0 8f 2b 64
        E 0 92 40 64
        E 0 93 3c 5a
        E 0 9f 30 5a
        E 480 82 40 64
        E 0 83 3c 64
        E 0 8f 30 64
        E 0 92 3e 64
        E 0 93 34 5a
        E 0 9f 28 5a
        E 239 82 3e 64
        E 0 92 3c 64
        E 241 82 3c 64
        E 0 83 34 64
        E 0 8f 28 64
        E 0 92 3e 64
        E 0 93 35 5a
        E 0 9f 29 5a
        E 481 82 3e 64
        E 0 83 35 64
        E 0 8f 29 64
        E 0 92 3b 64
        E 0 93 37 5a
        E 0 9f 2b 5a
        E 478 82 3b 64
        E 0 83 37 64
        E 0 8f 2b 64
        E 0 92 3c 64
        E 1 93 30 5a
        E 0 9f 24 5a
        E 1920 82 3c 64
        E 0 83 30 64
        E 0 8f 24 64
        E 0 96 47 64
        E 0 9d 47 64
        E 0 9f 34 5a
        E 480 86 47 64
        E 0 8d 47 64
        E 0 96 47 64
        E 0 9d 47 64
        E 242 86 47 64
        E 0 8d 47 64
        E 0 96 47 64
        E 0 9d 47 64
        E 239 86 47 64
        E 0 8d 47 64
        E 0 96 45 64
        E 0 9d 45 64
        E 480 86 45 64
        E 0 8d 45 64
        E 1 96 47 64
        E 0 9d 47 64
        E 478 86 47 64
        E 0 8d 47 64
        E 0 96 43 64
        E 0 9d 43 64
        E 481 86 43 64
        E 1 8d 43 64
        E 0 96 43 64
        E 0 9d 43 64
        E 478 86 43 64
        E 0 8d 43 64
        E 962 8f 34 64
        E 0 96 48 64
        E 0 9d 48 64
        E 0 9f 2d 5a
        E 478 86 48 64
        E 0 8d 48 64
        E 0 96 48 64
        E 0 9d 48 64
        E 481 86 48 64
        E 0 8d 48 64
        E 1 96 45 64
        E 0 9d 45 64
        E 477 86 45 64
        E 1 8d 45 64
        E 0 96 45 64
        E 0 9d 45 64
        E 241 86 45 64
        E 0 8d 45 64
        E 0 96 43 64
        E 0 9d 43 64
        E 241 86 43 64
        E 0 8d 43 64
        E 0 8f 2d 64
        E 0 96 40 64
        E 0 9d 40 64
        E 0 9f 2f 5a
        E 958 86 40 64
        E 0 8d 40 64
        E 0 8f 2f 64
        E 0 9f 34 5a
        E 960 8f 34 64
        E 0 98 37 64
        E 0 9d 43 64
        E 0 9f 34 5a
        E 480 88 37 64
        E 0 8d 43 64
        E 0 98 37 64
        E 0 9d 43 64
        E 480 88 37 64
        E 0 8d 43 64
        E 1 98 37 64
        E 0 9d 43 64
        E 479 88 37 64
        E 0 8d 43 64
        E 0 98 3b 64
        E 0 9d 47 64
        E 481 88 3b 64
        E 0 8d 47 64
        E 0 98 34 64
        E 0 9d 40 64
        E 480 88 34 64
        E 0 8d 40 64
        E 0 98 34 64
        E 0 9d 40 64
        E 480 88 34 64
        E 0 8d 40 64
        E 478 98 3b 64
        E 0 9d 47 64
        E 481 88 3b 64
        E 0 8d 47 64
        E 0 8f 34 64
        E 0 98 37 64
        E 0 9d 43 64
        E 0 9f 34 5a
        E 480 88 37 64
        E 0 8d 43 64
        E 0 98 37 64
        E 0 9d 43 64
        E 480 88 37 64
        E 0 8d 43 64
        E 0 98 37 64
        E 0 9d 43 64
        E 480 88 37 64
        E 0 8d 43 64
        E 1 98 36 64
        E 0 9d 42 64
        E 479 88 36 64
        E 0 8d 42 64
        E 0 8f 34 64
        E 0 98 36 64
        E 0 9d 42 64
        E 0 9f 2e 5a
        E 480 88 36 64
        E 0 8d 42 64
        E 0 98 36 64
        E 0 9d 42 64
        E 480 88 36 64
        E 0 8d 42 64
        E 961 8f 2e 64
        E 0 98 36 64
        E 0 9d 42 64
        E 0 9f 2e 5a
        E 479 88 36 64
        E 0 8d 42 64
        E 1 98 36 64
        E 0 9d 42 64
        E 479 88 36 64
        E 0 8d 42 64
        E 0 98 36 64
        E 0 9d 42 64
        E 480 88 36 64
        E 0 8d 42 64
        E 0 98 36 64
        E 0 9d 42 64
        E 240 88 36 64
        E 0 8d 42 64
        E 0 98 38 64
        E 0 9d 44 64
        E 241 88 38 64
        E 0 8d 44 64
        E 0 8f 2e 64
        E 0 98 34 64
        E 0 9d 45 64
        E 0 9f 29 5a
        E 480 88 34 64
        E 0 8d 45 64
        E 1 98 34 64
        E 0 9d 45 64
        E 478 88 34 64
        E 0 8d 45 64
        E 961 8f 29 64
        E 0 98 3a 64
        E 1 9d 49 64
        E 0 9f 29 5a
        E 478 88 3a 64
        E 1 8d 49 64
        E 0 98 3a 64
        E 0 9d 49 64
        E 241 88 3a 64
        E 0 8d 49 64
        E 0 98 3a 64
        E 0 9d 49 64
        E 238 88 3a 64
        E 0 8d 49 64
        E 0 98 3a 64
        E 0 9d 49 64
        E 480 88 3a 64
        E 0 8d 49 64
        E 0 98 3b 64
        E 0 9d 4a 64
        E 480 88 3b 64
        E 0 8d 4a 64
        E 0 8f 29 64
        E 0 98 36 64
        E 0 9d 47 64
        E 0 9f 32 5a
        E 481 88 36 64
        E 0 8d 47 64
        E 0 98 36 64
        E 0 9d 47 64
        E 480 88 36 64
        E 0 8d 47 64
        E 239 96 47 64
        E 0 9d 47 64
        E 241 86 47 64
        E 0 8d 47 64
        E 0 96 47 64
        E 0 9d 47 64
        E 241 86 47 64
        E 0 8d 47 64
        E 0 96 47 64
        E 0 9d 47 64
        E 239 86 47 64
        E 0 8d 47 64
        E 0 8f 32 64
        E 0 96 43 64
        E 0 9d 43 64
        E 0 9f 34 5a
        E 479 86 43 64
        E 0 8d 43 64
        E 0 96 43 64
        E 0 9d 43 64
        E 481 86 43 64
        E 0 8d 43 64
        E 479 96 40 64
        E 0 9d 40 64
        E 242 86 40 64
        E 0 8d 40 64
        E 0 96 40 64
        E 0 9d 40 64
        E 237 86 40 64
        E 0 8d 40 64
        E 0 8f 34 64
        E 0 96 45 64
        E 0 9d 45 64
        E 0 9f 30 5a
        E 962 86 45 64
        E 0 8d 45 64
        E 0 96 45 64
        E 0 9d 45 64
        E 479 86 45 64
        E 0 8d 45 64
        E 0 96 40 64
        E 0 9d 40 64
        E 481 86 40 64
        E 0 8d 40 64
        E 0 8f 30 64
        E 0 96 42 64
        E 0 9d 42 64
        E 0 9f 2f 5a
        E 959 86 42 64
        E 0 8d 42 64
        E 239 96 47 64
        E 0 9d 47 64
        E 241 86 47 64
        E 0 8d 47 64
        E 0 96 47 64
        E 0 9d 47 64
        E 240 86 47 64
        E 0 8d 47 64
        E 0 96 47 64
        E 0 9d 47 64
        E 241 86 47 64
        E 0 8d 47 64
        E 0 96 42 64
        E 0 9d 42 64
        E 478 86 42 64
        E 0 8d 42 64
        E 0 96 42 64
        E 0 9d 42 64
        E 481 86 42 64
        E 0 8d 42 64
        E 481 96 48 64
        E 1 9d 48 64
        E 478 86 48 64
        E 0 8d 48 64
        E 0 8f 2f 64
        E 0 96 45 64
        E 0 9d 45 64
        E 0 9f 2f 5a
        E 480 86 45 64
        E 0 8d 45 64
        E 0 96 45 64
        E 0 9d 45 64
        E 480 86 45 64
        E 0 8d 45 64
        E 0 96 45 64
        E 0 9d 45 64
        E 481 86 45 64
        E 0 8d 45 64
        E 0 96 47 64
        E 0 9d 47 64
        E 479 86 47 64
        E 0 8d 47 64
        E 0 8f 2f 64
        E 0 96 44 64
        E 0 9d 44 64
        E 0 9f 32 5a
        E 480 86 44 64
        E 0 8d 44 64
        E 0 96 44 64
        E 0 9d 44 64
        E 479 86 44 64
        E 0 8d 44 64
        E 481 96 40 64
        E 0 9d 40 64
        E 241 86 40 64
        E 0 8d 40 64
        E 0 96 40 64
        E 0 9d 40 64
        E 241 86 40 64
        E 0 8d 40 64
        E 0 8f 32 64
        E 0 96 47 64
        E 0 9d 47 64
        E 0 9f 32 5a
        E 958 86 47 64
        E 0 8d 47 64
        E 2 96 47 64
        E 0 9d 47 64
        E 481 86 47 64
        E 0 8d 47 64
        E 1 96 48 64
        E 1 9d 48 64
        E 474 86 48 64
        E 0 8d 48 64
        E 0 8f 32 64
        E 0 96 45 64
        E 1 9d 45 64
        E 0 9f 30 5a
        E 479 86 45 64
        E 0 8d 45 64
        E 0 96 45 64
        E 0 9d 45 64
        E 482 86 45 64
        E 0 8d 45 64
        E 478 96 45 64
        E 0 9d 45 64
        E 483 86 45 64
        E 0 8d 45 64
        E 0 8f 30 64
        E 0 96 40 64
        E 0 9d 40 64
        E 0 9f 30 5a
        E 958 86 40 64
        E 0 8d 40 64
        E 480 96 45 64
        E 0 9d 45 64
        E 482 86 45 64
        E 0 8d 45 64
        E 0 8f 30 64
        E 0 96 41 64
        E 0 9d 41 64
        E 0 9f 32 5a
        E 479 86 41 64
        E 0 8d 41 64
        E 0 96 41 64
        E 0 9d 41 64
        E 480 86 41 64
        E 0 8d 41 64
        E 480 96 45 64
        E 0 9d 45 64
        E 239 86 45 64
        E 0 8d 45 64
        E 1 96 45 64
        E 0 9d 45 64
        E 239 8f 32 64
        E 0 86 45 64
        E 0 8d 45 64
        E 0 9f 32 5a
        E 0 96 4a 64
        E 0 9d 4a 64
        E 961 86 4a 64
        E 0 8d 4a 64
        E 0 96 4a 64
        E 0 9d 4a 64
        E 478 86 4a 64
        E 0 8d 4a 64
        E 0 96 48 64
        E 0 9d 48 64
        E 482 8f 32 64
        E 0 86 48 64
        E 0 8d 48 64
        E 0 9f 34 5a
        E 0 96 45 64
        E 0 9d 45 64
        E 479 86 45 64
        E 0 8d 45 64
        E 0 96 45 64
        E 0 9d 45 64
        E 480 8f 34 64
        E 0 86 45 64
        E 0 8d 45 64
        E 0 9f 2d 5a
        E 241 98 39 64
        E 0 9d 45 64
        E 239 88 39 64
        E 0 8d 45 64
        E 1 98 39 64
        E 0 9d 45 64
        E 240 88 39 64
        E 0 8d 45 64
        E 0 98 37 64
        E 0 9d 43 64
        E 239 88 37 64
        E 0 8d 43 64
        E 0 8f 2d 64
        E 0 98 37 64
        E 0 9d 43 64
        E 0 9f 2f 5a
        E 480 88 37 64
        E 0 8d 43 64
        E 0 98 37 64
        E 0 9d 43 64
        E 481 88 37 64
        E 0 8d 43 64
        E 479 98 37 64
        E 1 9d 43 64
        E 240 88 37 64
        E 0 8d 43 64
        E 0 98 37 64
        E 0 9d 43 64
        E 239 88 37 64
        E 0 8d 43 64
        E 0 98 3b 64
        E 0 9d 47 64
        E 960 88 3b 64
        E 0 8d 47 64
        E 0 98 3b 64
        E 0 9d 47 64
        E 481 88 3b 64
        E 0 8d 47 64
        E 0 98 3c 64
        E 0 9d 48 64
        E 479 88 3c 64
        E 0 8d 48 64
        E 0 8f 2f 64
        E 0 98 37 64
        E 0 9d 43 64
        E 0 9f 30 5a
        E 959 88 37 64
        E 0 8d 43 64
        E 961 98 34 64
        E 0 9d 4c 64
        E 960 88 34 64
        E 0 8d 4c 64
        E 0 98 34 64
        E 0 9d 4c 64
        E 480 88 34 64
        E 0 8d 4c 64
        E 1 98 35 64
        E 0 9d 4c 64
        E 479 88 35 64
        E 0 8d 4c 64
        E 0 8f 30 64
        E 0 98 37 64
        E 0 9d 48 64
        E 0 9f 30 5a
        E 480 88 37 64
        E 0 8d 48 64
        E 0 98 37 64
        E 0 9d 48 64
        E 480 88 37 64
        E 0 8d 48 64
        E 960 98 37 64
        E 0 9d 48 64
        E 481 88 37 64
        E 0 8d 48 64
        E 1 98 37 64
        E 0 9d 48 64
        E 478 88 37 64
        E 0 8d 48 64
        E 0 98 37 64
        E 0 9d 48 64
        E 480 88 37 64
        E 1 8d 48 64
        E 0 98 37 64
        E 1 9d 48 64
        E 239 88 37 64
        E 0 8d 48 64
        E 0 98 39 64
        E 1 9d 4a 64
        E 240 88 39 64
        E 0 8d 4a 64
        E 0 8f 30 64
        E 0 98 3a 66
        E 0 9d 46 66
        E 1 9f 30 5a
        E 478 88 3a 66
        E 1 8d 46 66
        E 0 98 3a 66
        E 0 9d 46 66
        E 478 88 3a 66
        E 0 8d 46 66
        E 960 98 3a 66
        E 0 9d 46 66
        E 481 88 3a 66
        E 0 8d 46 66
        E 0 98 3a 66
        E 0 9d 46 66
        E 240 88 3a 66
        E 0 8d 46 66
        E 0 98 3a 66
        E 0 9d 46 66
        E 241 88 3a 66
        E 0 8d 46 66
        E 0 98 3a 66
        E 0 9d 46 66
        E 478 88 3a 66
        E 0 8d 46 66
        E 0 98 39 64
        E 0 9d 45 64
        E 480 88 39 64
        E 0 8d 45 64
        E 0 8f 30 64
        E 0 98 39 64
        E 0 9d 45 64
        E 0 9f 31 5a
        E 481 88 39 64
        E 0 8d 45 64
        E 0 98 39 64
        E 1 9d 45 64
        E 480 88 39 64
        E 0 8d 45 64
        E 480 98 34 64
        E 0 9d 45 64
        E 478 88 34 64
        E 0 8d 45 64
        E 0 98 37 64
        E 0 9d 49 64
        E 479 88 37 64
        E 0 8d 49 64
        E 0 98 37 64
        E 0 9d 49 64
        E 481 88 37 64
        E 0 8d 49 64
        E 0 98 37 64
        E 0 9d 49 64
        E 480 88 37 64
        E 0 8d 49 64
        E 0 98 35 64
        E 0 9d 4a 64
        E 480 88 35 64
        E 0 8d 4a 64
        E 0 8f 31 64
        E 0 98 32 64
        E 0 9d 45 64
        E 0 9f 32 5a
        E 962 88 32 64
        E 0 8d 45 64
        E 960 98 39 64
        E 0 9d 45 64
        E 958 88 39 64
        E 0 8d 45 64
        E 0 98 39 64
        E 0 9d 45 64
        E 480 88 39 64
        E 0 8d 45 64
        E 0 98 39 64
        E 0 9d 45 64
        E 480 88 39 64
        E 0 8d 45 64
        E 0 8f 32 64
        E 0 98 36 64
        E 0 9d 42 64
        E 0 9f 33 5a
        E 481 88 36 64
        E 0 8d 42 64
        E 0 98 36 64
        E 0 9d 42 64
        E 479 88 36 64
        E 0 8d 42 64
        E 480 98 3c 64
        E 1 9d 48 64
        E 480 88 3c 64
        E 0 8d 48 64
        E 0 98 39 64
        E 0 9d 45 64
        E 479 88 39 64
        E 1 8d 45 64
        E 0 98 39 64
        E 0 9d 45 64
        E 481 88 39 64
        E 0 8d 45 64
        E 0 98 39 64
        E 0 9d 45 64
        E 477 88 39 64
        E 0 8d 45 64
        E 0 98 37 64
        E 1 9d 43 64
        E 479 88 37 64
        E 0 8d 43 64
        E 0 8f 33 64
        E 0 98 34 64
        E 0 9d 40 64
        E 0 9f 34 5a
        E 960 88 34 64
        E 0 8d 40 64
        E 483 98 3b 64
        E 0 9d 47 64
        E 480 88 3b 64
        E 0 8d 47 64
        E 0 98 3b 64
        E 0 9d 47 64
        E 478 88 3b 64
        E 0 8d 47 64
        E 0 98 3b 64
        E 0 9d 47 64
        E 480 88 3b 64
        E 0 8d 47 64
        E 0 98 39 64
        E 0 9d 45 64
        E 481 88 39 64
        E 0 8d 45 64
        E 0 98 3b 64
        E 0 9d 47 64
        E 479 88 3b 64
        E 0 8d 47 64
        E 0 8f 34 64
        E 0 98 34 64
        E 0 9d 43 64
        E 0 9f 34 5a
        E 960 88 34 64
        E 0 8d 43 64
        E 242 98 34 64
        E 0 9d 4c 64
        E 237 88 34 64
        E 0 8d 4c 64
        E 1 98 34 64
        E 0 9d 4c 64
        E 241 88 34 64
        E 0 8d 4c 64
        E 0 98 36 64
        E 0 9d 4c 64
        E 239 88 36 64
        E 0 8d 4c 64
        E 0 98 37 64
        E 0 9d 47 64
        E 481 88 37 64
        E 0 8d 47 64
        E 0 98 37 64
        E 0 9d 47 64
        E 481 88 37 64
        E 0 8d 47 64
        E 958 8f 34 64
        E 0 98 37 64
        E 0 9d 47 64
        E 0 9f 34 5a
        E 481 88 37 64
        E 1 8d 47 64
        E 0 98 37 64
        E 0 9d 47 64
        E 480 88 37 64
        E 0 8d 47 64
        E 0 98 37 64
        E 0 9d 47 64
        E 479 88 37 64
        E 0 8d 47 64
        E 0 98 35 64
        E 1 9d 47 64
        E 238 88 35 64
        E 0 8d 47 64
        E 0 98 34 64
        E 0 9d 49 64
        E 241 88 34 64
        E 0 8d 49 64
        E 0 98 3a 64
        E 0 9d 46 64
        E 479 88 3a 64
        E 0 8d 46 64
        E 0 98 3a 64
        E 0 9d 46 64
        E 480 88 3a 64
        E 0 8d 46 64
        E 0 98 3a 64
        E 0 9d 46 64
        E 480 88 3a 64
        E 0 8d 46 64
        E 0 98 38 64
        E 0 9d 44 64
        E 241 88 38 64
        E 0 8d 44 64
        E 0 98 36 64
        E 0 9d 42 64
        E 239 88 36 64
        E 0 8d 42 64
        E 0 8f 34 64
        E 0 98 3b 64
        E 0 9d 47 64
        E 0 9f 32 5a
        E 481 88 3b 64
        E 0 8d 47 64
        E 0 98 3b 64
        E 0 9d 47 64
        E 479 88 3b 64
        E 0 8d 47 64
        E 481 98 3b 64
        E 0 9d 47 64
        E 480 88 3b 64
        E 0 8d 47 64
        E 0 8f 32 64
        E 0 98 37 64
        E 0 9d 43 64
        E 0 9f 34 5a
        E 478 88 37 64
        E 0 8d 43 64
        E 0 98 37 64
        E 0 9d 43 64
        E 481 88 37 64
        E 0 8d 43 64
        E 0 98 39 64
        E 0 9d 45 64
        E 480 88 39 64
        E 0 8d 45 64
        E 0 98 3b 64
        E 1 9d 47 64
        E 479 88 3b 64
        E 0 8d 47 64
        E 0 8f 34 64
        E 1 98 36 64
        E 0 9d 42 64
        E 0 9f 36 5a
        E 479 88 36 64
        E 0 8d 42 64
        E 0 98 36 64
        E 0 9d 42 64
        E 480 88 36 64
        E 0 8d 42 64
        E 0 8f 36 64
        E 0 9f 2f 5a
        E 480 96 3e 64
        E 0 9d 3e 64
        E 480 86 3e 64
        E 0 8d 3e 64
        E 0 8f 2f 64
        E 0 96 42 64
        E 0 9d 42 64
        E 0 9f 2f 5a
        E 480 86 42 64
        E 0 8d 42 64
        E 0 96 42 64
        E 0 9d 42 64
        E 481 86 42 64
        E 0 8d 42 64
        E 0 96 42 64
        E 0 9d 42 64
        E 479 86 42 64
        E 0 8d 42 64
        E 0 96 44 64
        E 0 9d 44 64
        E 479 86 44 64
        E 0 8d 44 64
        E 0 8f 2f 64
        E 0 96 44 64
        E 0 9d 44 64
        E 0 9f 35 59
        E 481 86 44 64
        E 0 8d 44 64
        E 0 96 44 64
        E 0 9d 44 64
        E 480 86 44 64
        E 0 8d 44 64
        E 480 96 44 64
        E 0 9d 44 64
        E 481 86 44 64
        E 0 8d 44 64
        E 0 96 44 64
        E 0 9d 44 64
        E 479 86 44 64
        E 0 8d 44 64
        E 0 96 44 64
        E 0 9d 44 64
        E 480 86 44 64
        E 0 8d 44 64
        E 0 96 42 64
        E 0 9d 42 64
        E 480 86 42 64
        E 0 8d 42 64
        E 0 96 44 64
        E 0 9d 44 64
        E 481 86 44 64
        E 0 8d 44 64
        E 0 8f 35 63
        E 0 96 45 64
        E 0 9d 45 64
        E 1 9f 36 5a
        E 477 86 45 64
        E 1 8d 45 64
        E 0 96 45 64
        E 1 9d 45 64
        E 479 86 45 64
        E 0 8d 45 64
        E 0 96 45 64
        E 0 9d 45 64
        E 480 86 45 64
        E 0 8d 45 64
        E 0 96 45 64
        E 0 9d 45 64
        E 240 86 45 64
        E 0 8d 45 64
        E 0 96 49 64
        E 0 9d 49 64
        E 241 86 49 64
        E 1 8d 49 64
        E 0 96 42 64
        E 0 9d 42 64
        E 478 86 42 64
        E 0 8d 42 64
        E 0 96 42 64
        E 1 9d 42 64
        E 480 86 42 64
        E 0 8d 42 64
        E 959 8f 36 64
        E 0 96 47 64
        E 0 9d 47 64
        E 0 9f 32 5a
        E 480 86 47 64
        E 0 8d 47 64
        E 0 96 47 64
        E 0 9d 47 64
        E 240 86 47 64
        E 0 8d 47 64
        E 0 96 47 64
        E 0 9d 47 64
        E 241 86 47 64
        E 0 8d 47 64
        E 0 96 47 64
        E 0 9d 47 64
        E 479 86 47 64
        E 0 8d 47 64
        E 0 96 42 64
        E 0 9d 42 64
        E 480 86 42 64
        E 0 8d 42 64
        E 0 8f 32 64
        E 0 96 44 64
        E 0 9d 44 64
        E 0 9f 31 5a
        E 241 86 44 64
        E 0 8d 44 64
        E 0 96 44 64
        E 0 9d 44 64
        E 240 86 44 64
        E 0 8d 44 64
        E 0 96 44 64
        E 1 9d 44 64
        E 479 86 44 64
        E 0 8d 44 64
        E 478 96 49 64
        E 0 9d 49 64
        E 482 86 49 64
        E 0 8d 49 64
        E 0 8f 31 64
        E 0 96 44 64
        E 0 9d 44 64
        E 0 9f 31 5a
        E 479 86 44 64
        E 0 8d 44 64
        E 0 96 44 64
        E 0 9d 44 64
        E 480 86 44 64
        E 0 8d 44 64
        E 481 96 49 64
        E 0 9d 49 64
        E 480 86 49 64
        E 0 8d 49 64
        E 0 8f 31 64
        E 0 96 45 64
        E 0 9d 45 64
        E 0 9f 36 5a
        E 479 86 45 64
        E 1 8d 45 64
        E 0 96 45 64
        E 0 9d 45 64
        E 481 86 45 64
        E 0 8d 45 64
        E 479 96 42 64
        E 0 9d 42 64
        E 480 86 42 64
        E 0 8d 42 64
        E 0 8f 36 64
        E 0 96 45 64
        E 0 9d 45 64
        E 0 9f 36 5a
        E 479 86 45 64
        E 0 8d 45 64
        E 0 96 45 64
        E 0 9d 45 64
        E 480 86 45 64
        E 0 8d 45 64
        E 0 96 45 64
        E 1 9d 45 64
        E 479 86 45 64
        E 0 8d 45 64
        E 0 96 44 64
        E 0 9d 44 64
        E 480 86 44 64
        E 0 8d 44 64
        E 0 8f 36 64
        E 0 96 47 64
        E 0 9d 47 64
        E 0 9f 34 5a
        E 960 86 47 64
        E 0 8d 47 64
        E 239 96 47 64
        E 1 9d 47 64
        E 240 86 47 64
        E 0 8d 47 64
        E 0 96 47 64
        E 1 9d 47 64
        E 240 86 47 64
        E 1 8d 47 64
        E 0 96 47 64
        E 0 9d 47 64
        E 237 86 47 64
        E 0 8d 47 64
        E 0 8f 34 64
        E 0 96 44 64
        E 0 9d 44 64
        E 0 9f 30 59
        E 481 86 44 64
        E 0 8d 44 64
        E 0 96 44 64
        E 0 9d 44 64
        E 480 86 44 64
        E 0 8d 44 64
        E 481 96 45 64
        E 0 9d 45 64
        E 479 86 45 64
        E 0 8d 45 64
        E 1 96 42 64
        E 0 9d 42 64
        E 480 86 42 64
        E 0 8d 42 64
        E 0 96 42 64
        E 1 9d 42 64
        E 478 86 42 64
        E 0 8d 42 64
        E 0 96 42 64
        E 0 9d 42 64
        E 480 86 42 64
        E 0 8d 42 64
        E 0 96 44 64
        E 0 9d 44 64
        E 480 86 44 64
        E 0 8d 44 64
        E 0 8f 30 63
        E 0 96 40 64
        E 0 9d 40 64
        E 0 9f 31 5a
        E 480 86 40 64
        E 0 8d 40 64
        E 0 96 40 64
        E 1 9d 40 64
        E 481 86 40 64
        E 0 8d 40 64
        E 478 96 49 64
        E 0 9d 49 64
        E 480 86 49 64
        E 0 8d 49 64
        E 0 8f 31 64
        E 0 96 42 64
        E 0 9d 42 64
        E 0 9f 2d 5a
        E 479 86 42 64
        E 0 8d 42 64
        E 0 96 42 64
        E 1 9d 42 64
        E 481 86 42 64
        E 0 8d 42 64
        E 0 96 42 64
        E 0 9d 42 64
        E 479 86 42 64
        E 0 8d 42 64
        E 0 96 44 64
        E 0 9d 44 64
        E 480 86 44 64
        E 0 8d 44 64
        E 0 8f 2d 64
        E 0 96 44 64
        E 0 9d 44 64
        E 0 9f 2c 5a
        E 480 86 44 64
        E 0 8d 44 64
        E 0 96 44 64
        E 0 9d 44 64
        E 480 86 44 64
        E 0 8d 44 64
        E 479 98 3c 63
        E 0 9d 48 63
        E 480 88 3c 63
        E 0 8d 48 63
        E 0 98 38 64
        E 0 9d 44 64
        E 961 88 38 64
        E 1 8d 44 64
        E 480 96 44 64
        E 0 9d 44 64
        E 479 86 44 64
        E 0 8d 44 64
        E 0 8f 2c 64
        E 0 96 49 64
        E 0 9d 49 64
        E 0 9f 34 5a
        E 480 86 49 64
        E 0 8d 49 64
        E 0 96 49 64
        E 0 9d 49 64
        E 480 86 49 64
        E 0 8d 49 64
        E 482 96 49 64
        E 0 9d 49 64
        E 478 86 49 64
        E 0 8d 49 64
        E 0 96 46 64
        E 0 9d 46 64
        E 480 86 46 64
        E 0 8d 46 64
        E 0 96 46 64
        E 0 9d 46 64
        E 480 86 46 64
        E 0 8d 46 64
        E 0 96 46 64
        E 1 9d 46 64
        E 478 86 46 64
        E 1 8d 46 64
        E 0 96 44 64
        E 0 9d 44 64
        E 240 86 44 64
        E 0 8d 44 64
        E 0 96 42 64
        E 0 9d 42 64
        E 240 86 42 64
        E 0 8d 42 64
        E 0 8f 34 64
        E 0 96 47 64
        E 0 9d 47 64
        E 0 9f 32 5a
        E 480 86 47 64
        E 0 8d 47 64
        E 0 96 47 64
        E 0 9d 47 64
        E 480 86 47 64
        E 0 8d 47 64
        E 961 96 47 64
        E 0 9d 47 64
        E 479 86 47 64
        E 0 8d 47 64
        E 0 96 47 64
        E 0 9d 47 64
        E 481 86 47 64
        E 0 8d 47 64
        E 0 96 47 64
        E 0 9d 47 64
        E 480 86 47 64
        E 0 8d 47 64
        E 0 96 47 64
        E 0 9d 47 64
        E 240 86 47 64
        E 0 8d 47 64
        E 1 96 48 64
        E 0 9d 48 64
        E 238 86 48 64
        E 0 8d 48 64
        E 0 8f 32 64
        E 0 96 45 64
        E 0 9d 45 64
        E 0 9f 30 5a
        E 481 86 45 64
        E 0 8d 45 64
        E 0 96 45 64
        E 0 9d 45 64
        E 480 86 45 64
        E 0 8d 45 64
        E 478 96 40 64
        E 0 9d 40 64
        E 242 86 40 64
        E 0 8d 40 64
        E 0 96 40 64
        E 0 9d 40 64
        E 240 86 40 64
        E 0 8d 40 64
        E 0 96 45 64
        E 0 9d 45 64
        E 961 86 45 64
        E 0 8d 45 64
        E 0 96 45 64
        E 0 9d 45 64
        E 479 86 45 64
        E 0 8d 45 64
        E 0 96 45 64
        E 0 9d 45 64
        E 479 86 45 64
        E 0 8d 45 64
        E 0 8f 30 64
        E 0 96 42 64
        E 0 9d 42 64
        E 0 9f 2f 5a
        E 961 86 42 64
        E 0 8d 42 64
        E 960 8f 2f 64
        E 0 96 47 64
        E 0 9d 47 64
        E 0 9f 33 5a
        E 480 86 47 64
        E 0 8d 47 64
        E 0 96 42 64
        E 0 9d 42 64
        E 479 86 42 64
        E 0 8d 42 64
        E 482 96 42 64
        E 0 9d 42 64
        E 478 86 42 64
        E 0 8d 42 64
        E 0 8f 33 64
        E 0 96 42 64
        E 0 9d 42 64
        E 0 9f 33 5a
        E 480 86 42 64
        E 0 8d 42 64
        E 1 96 42 64
        E 0 9d 42 64
        E 480 86 42 64
        E 0 8d 42 64
        E 0 96 40 64
        E 0 9d 40 64
        E 479 86 40 64
        E 0 8d 40 64
        E 0 96 42 64
        E 1 9d 42 64
        E 480 86 42 64
        E 0 8d 42 64
        E 0 8f 33 64
        E 0 96 43 64
        E 0 9d 43 64
        E 0 9f 34 5a
        E 959 86 43 64
        E 0 8d 43 64
        E 240 96 48 64
        E 0 9d 48 64
        E 241 86 48 64
        E 0 8d 48 64
        E 0 96 48 64
        E 0 9d 48 64
        E 240 86 48 64
        E 0 8d 48 64
        E 0 96 43 64
        E 0 9d 43 64
        E 239 86 43 64
        E 0 8d 43 64
        E 0 8f 34 64
        E 0 96 45 64
        E 0 9d 45 64
        E 0 9f 32 5a
        E 962 86 45 64
        E 0 8d 45 64
        E 478 9d 45 64
        E 482 8d 45 64
        E 0 98 32 64
        E 0 9d 4a 64
        E 478 88 32 64
        E 0 8d 4a 64
        E 0 98 39 64
        E 0 9d 4a 64
        E 480 88 39 64
        E 0 8d 4a 64
        E 0 98 39 64
        E 480 88 39 64
        E 1 98 39 64
        E 0 9d 45 64
        E 480 88 39 64
        E 0 8d 45 64
        E 0 8f 32 64
        E 0 98 39 64
        E 0 9d 45 64
        E 0 9f 32 5a
        E 480 88 39 64
        E 0 8d 45 64
        E 0 98 39 64
        E 0 9d 45 64
        E 479 88 39 64
        E 0 8d 45 64
        E 0 98 37 64
        E 0 9d 43 64
        E 480 88 37 64
        E 0 8d 43 64
        E 0 98 39 64
        E 0 9d 45 64
        E 480 88 39 64
        E 0 8d 45 64
        E 0 8f 32 64
        E 0 98 3b 64
        E 0 9d 47 64
        E 0 9f 2b 5a
        E 481 88 3b 64
        E 0 8d 47 64
        E 0 98 3b 64
        E 0 9d 47 64
        E 480 88 3b 64
        E 1 8d 47 64
        E 239 96 43 64
        E 0 9d 43 64
        E 239 86 43 64
        E 0 8d 43 64
        E 0 96 43 64
        E 0 9d 43 64
        E 240 86 43 64
        E 1 8d 43 64
        E 0 96 45 64
        E 0 9d 45 64
        E 239 86 45 64
        E 0 8d 45 64
        E 0 8f 2b 64
        E 1 96 41 64
        E 0 9d 41 64
        E 0 9f 2b 5a
        E 479 86 41 64
        E 0 8d 41 64
        E 0 96 41 64
        E 0 9d 41 64
        E 481 86 41 64
        E 0 8d 41 64
        E 960 96 3e 64
        E 0 9d 3e 64
        E 479 86 3e 64
        E 0 8d 3e 64
        E 0 96 40 64
        E 0 9d 40 64
        E 481 86 40 64
        E 0 8d 40 64
        E 0 96 41 64
        E 0 9d 41 64
        E 478 86 41 64
        E 0 8d 41 64
        E 1 96 41 64
        E 0 9d 41 64
        E 242 86 41 64
        E 0 8d 41 64
        E 0 96 40 64
        E 0 9d 40 64
        E 238 86 40 64
        E 1 8d 40 64
        E 0 8f 2b 64
        E 0 96 3c 64
        E 0 9d 3c 64
        E 0 9f 30 5a
        E 479 86 3c 64
        E 0 8d 3c 64
        E 0 96 3c 64
        E 0 9d 3c 64
        E 480 86 3c 64
        E 0 8d 3c 64
        E 480 98 34 64
        E 0 9d 48 64
        E 482 88 34 64
        E 0 8d 48 64
        E 0 98 37 64
        E 0 9d 4c 64
        E 478 88 37 64
        E 0 8d 4c 64
        E 0 98 37 64
        E 0 9d 4c 64
        E 480 88 37 64
        E 0 8d 4c 64
        E 482 96 48 64
        E 0 9d 48 64
        E 479 86 48 64
        E 0 8d 48 64
        E 0 8f 30 64
        E 0 96 43 64
        E 0 9d 43 64
        E 0 9f 30 5a
        E 481 86 43 64
        E 0 8d 43 64
        E 0 96 43 64
        E 0 9d 43 64
        E 478 86 43 64
        E 1 8d 43 64
        E 959 96 43 64
        E 0 9d 43 64
        E 482 86 43 64
        E 0 8d 43 64
        E 0 96 45 64
        E 0 9d 45 64
        E 478 86 45 64
        E 0 8d 45 64
        E 0 96 46 66
        E 0 9d 46 66
        E 479 86 46 66
        E 0 8d 46 66
        E 0 96 46 66
        E 0 9d 46 66
        E 242 86 46 66
        E 0 8d 46 66
        E 1 96 45 64
        E 0 9d 45 64
        E 238 86 45 64
        E 0 8d 45 64
        E 0 8f 30 64
        E 0 96 41 64
        E 0 9d 41 64
        E 0 9f 35 5a
        E 959 86 41 64
        E 1 8d 41 64
        E 241 96 48 64
        E 1 9d 48 64
        E 238 86 48 64
        E 0 8d 48 64
        E 0 96 48 64
        E 1 9d 48 64
        E 241 86 48 64
        E 0 8d 48 64
        E 0 96 48 64
        E 0 9d 48 64
        E 239 86 48 64
        E 0 8d 48 64
        E 1 96 45 64
        E 0 9d 45 64
        E 478 86 45 64
        E 0 8d 45 64
        E 0 96 45 64
        E 0 9d 45 64
        E 240 86 45 64
        E 0 8d 45 64
        E 0 96 45 64
        E 0 9d 45 64
        E 240 86 45 64
        E 0 8d 45 64
        E 0 96 45 64
        E 0 9d 45 64
        E 481 86 45 64
        E 0 8d 45 64
        E 0 96 47 64
        E 0 9d 47 64
        E 480 86 47 64
        E 0 8d 47 64
        E 0 8f 35 64
        E 0 96 48 64
        E 0 9d 48 64
        E 0 9f 36 5a
        E 480 86 48 64
        E 0 8d 48 64
        E 0 96 48 64
        E 0 9d 48 64
        E 479 86 48 64
        E 1 8d 48 64
        E 480 96 48 64
        E 0 9d 48 64
        E 480 86 48 64
        E 0 8d 48 64
        E 2 96 45 64
        E 0 9d 45 64
        E 477 86 45 64
        E 0 8d 45 64
        E 0 96 45 64
        E 0 9d 45 64
        E 480 86 45 64
        E 0 8d 45 64
        E 0 96 43 64
        E 0 9d 43 64
        E 481 86 43 64
        E 0 8d 43 64
        E 0 96 45 64
        E 0 9d 45 64
        E 479 86 45 64
        E 0 8d 45 64
        E 0 8f 36 64
        E 0 96 47 64
        E 0 9d 47 64
        E 0 9f 37 5a
        E 481 86 47 64
        E 0 8d 47 64
        E 0 96 47 64
        E 1 9d 47 64
        E 479 86 47 64
        E 0 8d 47 64
        E 480 96 43 64
        E 0 9d 43 64
        E 479 86 43 64
        E 0 8d 43 64
        E 0 96 49 64
        E 0 9d 49 64
        E 480 86 49 64
        E 1 8d 49 64
        E 0 96 49 64
        E 1 9d 49 64
        E 480 86 49 64
        E 0 8d 49 64
        E 0 96 49 64
        E 0 9d 49 64
        E 479 86 49 64
        E 0 8d 49 64
        E 1 96 4a 64
        E 0 9d 4a 64
        E 478 86 4a 64
        E 0 8d 4a 64
        E 0 8f 37 64
        E 0 96 45 64
        E 0 9d 45 64
        E 0 9f 39 5a
        E 962 86 45 64
        E 0 8d 45 64
        E 0 8f 39 64
        E 0 9f 32 5a
        E 959 8f 32 64
        E 0 96 42 64
        E 0 9d 42 64
        E 0 9f 32 5a
        E 958 86 42 64
        E 0 8d 42 64
        E 0 96 42 64
        E 1 9d 42 64
        E 480 86 42 64
        E 0 8d 42 64
        E 0 96 43 64
        E 0 9d 43 64
        E 480 86 43 64
        E 0 8d 43 64
        E 0 8f 32 64
        E 0 96 45 64
        E 0 9d 45 64
        E 0 9f 32 5a
        E 479 86 45 64
        E 1 8d 45 64
        E 0 96 45 64
        E 1 9d 45 64
        E 481 86 45 64
        E 0 8d 45 64
        E 240 96 48 64
        E 0 9d 48 64
        E 239 86 48 64
        E 0 8d 48 64
        E 0 96 48 64
        E 0 9d 48 64
        E 240 86 48 64
        E 0 8d 48 64
        E 0 96 45 64
        E 0 9d 45 64
        E 239 86 45 64
        E 0 8d 45 64
        E 0 8f 32 64
        E 0 96 47 64
        E 0 9d 47 64
        E 0 9f 2b 5a
        E 480 86 47 64
        E 0 8d 47 64
        E 0 96 47 64
        E 0 9d 47 64
        E 481 86 47 64
        E 0 8d 47 64
        E 959 8f 2b 64
        E 0 96 3e 64
        E 0 9d 3e 64
        E 0 9f 2b 5a
        E 481 86 3e 64
        E 0 8d 3e 64
        E 0 96 3e 64
        E 0 9d 3e 64
        E 240 86 3e 64
        E 0 8d 3e 64
        E 0 96 3e 64
        E 0 9d 3e 64
        E 240 86 3e 64
        E 0 8d 3e 64
        E 0 96 43 64
        E 0 9d 43 64
        E 480 86 43 64
        E 0 8d 43 64
        E 0 96 45 64
        E 0 9d 45 64
        E 479 86 45 64
        E 0 8d 45 64
        E 0 96 47 64
        E 0 9d 47 64
        E 480 86 47 64
        E 0 8d 47 64
        E 0 96 47 64
        E 0 9d 47 64
        E 480 86 47 64
        E 0 8d 47 64
        E 0 96 47 64
        E 0 9d 47 64
        E 480 86 47 64
        E 0 8d 47 64
        E 0 96 48 64
        E 0 9d 48 64
        E 242 86 48 64
        E 0 8d 48 64
        E 0 96 4a 64
        E 0 9d 4a 64
        E 240 86 4a 64
        E 0 8d 4a 64
        E 0 8f 2b 64
        E 0 96 43 64
        E 0 9d 43 64
        E 0 9f 2b 5a
        E 478 86 43 64
        E 0 8d 43 64
        E 0 96 43 64
        E 0 9d 43 64
        E 480 86 43 64
        E 0 8d 43 64
        E 961 96 43 64
        E 0 9d 43 64
        E 479 86 43 64
        E 0 8d 43 64
        E 1 96 43 64
        E 0 9d 43 64
        E 479 86 43 64
        E 0 8d 43 64
        E 0 96 43 64
        E 0 9d 43 64
        E 480 86 43 64
        E 0 8d 43 64
        E 1 96 45 64
        E 0 9d 45 64
        E 479 86 45 64
        E 0 8d 45 64
        E 0 8f 2b 64
        E 0 96 41 64
        E 0 9d 41 64
        E 0 9f 2b 5a
        E 480 86 41 64
        E 1 8d 41 64
        E 0 96 41 64
        E 0 9d 41 64
        E 480 86 41 64
        E 0 8d 41 64
        E 479 96 41 64
        E 0 9d 41 64
        E 482 86 41 64
        E 0 8d 41 64
        E 0 96 47 64
        E 0 9d 47 64
        E 478 86 47 64
        E 0 8d 47 64
        E 1 96 47 64
        E 0 9d 47 64
        E 479 86 47 64
        E 0 8d 47 64
        E 0 96 47 64
        E 0 9d 47 64
        E 481 86 47 64
        E 0 8d 47 64
        E 0 96 48 64
        E 0 9d 48 64
        E 479 86 48 64
        E 0 8d 48 64
        E 0 8f 2b 64
        E 0 96 43 64
        E 0 9d 43 64
        E 1 9f 30 5a
        E 480 86 43 64
        E 0 8d 43 64
        E 0 96 43 64
        E 0 9d 43 64
        E 479 86 43 64
        E 0 8d 43 64
        E 240 96 40 64
        E 0 9d 40 64
        E 240 86 40 64
        E 0 8d 40 64
        E 0 96 40 64
        E 0 9d 40 64
        E 242 86 40 64
        E 0 8d 40 64
        E 0 96 41 64
        E 0 9d 41 64
        E 237 86 41 64
        E 1 8d 41 64
        E 0 96 43 64
        E 0 9d 43 64
        E 479 86 43 64
        E 1 8d 43 64
        E 0 96 43 64
        E 0 9d 43 64
        E 480 86 43 64
        E 0 8d 43 64
        E 961 8f 30 64
        E 0 96 43 64
        E 0 9d 43 64
        E 0 9f 30 5a
        E 479 86 43 64
        E 0 8d 43 64
        E 0 96 45 64
        E 0 9d 45 64
        E 480 86 45 64
        E 0 8d 45 64
        E 0 96 46 66
        E 0 9d 46 66
        E 480 86 46 66
        E 0 8d 46 66
        E 0 96 46 66
        E 0 9d 46 66
        E 240 86 46 66
        E 0 8d 46 66
        E 0 96 45 64
        E 0 9d 45 64
        E 240 86 45 64
        E 0 8d 45 64
        E 0 8f 30 64
        E 0 96 41 64
        E 0 9d 41 64
        E 0 9f 35 5a
        E 480 86 41 64
        E 0 8d 41 64
        E 0 96 41 64
        E 0 9d 41 64
        E 482 86 41 64
        E 0 8d 41 64
        E 0 96 48 64
        E 0 9d 48 64
        E 478 86 48 64
        E 0 8d 48 64
        E 0 96 48 64
        E 0 9d 48 64
        E 239 86 48 64
        E 0 8d 48 64
        E 0 96 48 64
        E 0 9d 48 64
        E 241 86 48 64
        E 0 8d 48 64
        E 0 8f 35 64
        E 0 96 45 64
        E 0 9d 45 64
        E 0 9f 36 5a
        E 481 86 45 64
        E 0 8d 45 64
        E 0 96 45 64
        E 0 9d 45 64
        E 480 86 45 64
        E 0 8d 45 64
        E 479 96 45 64
        E 0 9d 45 64
        E 240 86 45 64
        E 0 8d 45 64
        E 0 96 47 64
        E 0 9d 47 64
        E 242 86 47 64
        E 0 8d 47 64
        E 0 96 48 64
        E 0 9d 48 64
        E 959 86 48 64
        E 0 8d 48 64
        E 0 96 48 64
        E 0 9d 48 64
        E 479 86 48 64
        E 1 8d 48 64
        E 0 96 47 64
        E 0 9d 47 64
        E 480 86 47 64
        E 0 8d 47 64
        E 0 8f 36 64
        E 0 96 43 64
        E 0 9d 43 64
        E 0 9f 37 5a
        E 479 86 43 64
        E 0 8d 43 64
        E 0 96 43 64
        E 0 9d 43 64
        E 482 86 43 64
        E 0 8d 43 64
        E 239 96 43 64
        E 0 9d 43 64
        E 239 86 43 64
        E 0 8d 43 64
        E 0 96 43 64
        E 1 9d 43 64
        E 240 86 43 64
        E 0 8d 43 64
        E 0 96 45 64
        E 0 9d 45 64
        E 239 86 45 64
        E 0 8d 45 64
        E 0 8f 37 64
        E 0 96 47 64
        E 0 9d 47 64
        E 0 9f 38 5a
        E 480 86 47 64
        E 0 8d 47 64
        E 0 96 47 64
        E 0 9d 47 64
        E 480 86 47 64
        E 0 8d 47 64
        E 960 8f 38 64
        E 0 96 47 64
        E 0 9d 47 64
        E 0 9f 38 5a
        E 479 86 47 64
        E 1 8d 47 64
        E 0 96 47 64
        E 0 9d 47 64
        E 481 86 47 64
        E 0 8d 47 64
        E 0 96 47 64
        E 0 9d 47 64
        E 479 86 47 64
        E 0 8d 47 64
        E 1 96 47 64
        E 1 9d 47 64
        E 238 86 47 64
        E 0 8d 47 64
        E 0 96 48 64
        E 1 9d 48 64
        E 240 86 48 64
        E 0 8d 48 64
        E 0 8f 38 64
        E 0 96 45 64
        E 0 9d 45 64
        E 0 9f 39 5a
        E 479 86 45 64
        E 0 8d 45 64
        E 0 96 45 64
        E 0 9d 45 64
        E 480 86 45 64
        E 0 8d 45 64
        E 960 8f 39 64
        E 0 96 40 64
        E 0 9d 40 64
        E 0 9f 39 5a
        E 961 86 40 64
        E 0 8d 40 64
        E 0 96 40 64
        E 0 9d 40 64
        E 479 86 40 64
        E 0 8d 40 64
        E 0 96 40 64
        E 0 9d 40 64
        E 480 86 40 64
        E 0 8d 40 64
        E 0 8f 39 64
        E 0 96 46 64
        E 0 9d 46 64
        E 0 9f 34 5a
        E 481 86 46 64
        E 0 8d 46 64
        E 0 96 46 64
        E 0 9d 46 64
        E 480 86 46 64
        E 0 8d 46 64
        E 961 8f 34 64
        E 0 96 46 64
        E 0 9d 46 64
        E 0 9f 34 5a
        E 479 86 46 64
        E 0 8d 46 64
        E 0 96 46 64
        E 0 9d 46 64
        E 240 86 46 64
        E 0 8d 46 64
        E 0 96 46 64
        E 0 9d 46 64
        E 238 86 46 64
        E 0 8d 46 64
        E 0 96 44 64
        E 0 9d 44 64
        E 481 86 44 64
        E 0 8d 44 64
        E 0 96 42 64
        E 0 9d 42 64
        E 480 86 42 64
        E 0 8d 42 64
        E 0 8f 34 64
        E 0 96 47 64
        E 2 9d 47 64
        E 0 9f 35 59
        E 959 86 47 64
        E 0 8d 47 64
        E 241 96 47 64
        E 0 9d 47 64
        E 239 86 47 64
        E 0 8d 47 64
        E 0 96 46 64
        E 0 9d 46 64
        E 239 86 46 64
        E 0 8d 46 64
        E 0 96 47 64
        E 0 9d 47 64
        E 240 86 47 64
        E 0 8d 47 64
        E 0 8f 35 63
        E 0 96 42 64
        E 0 9d 42 64
        E 0 9f 36 5a
        E 480 86 42 64
        E 0 8d 42 64
        E 0 96 42 64
        E 1 9d 42 64
        E 479 86 42 64
        E 0 8d 42 64
        E 0 8f 36 64
        E 0 9f 2f 5a
        E 480 98 36 64
        E 0 9d 42 64
        E 239 88 36 64
        E 0 8d 42 64
        E 0 98 36 64
        E 0 9d 42 64
        E 241 88 36 64
        E 0 8d 42 64
        E 0 8f 2f 64
        E 1 98 3b 64
        E 0 9d 47 64
        E 0 9f 2f 5a
        E 479 88 3b 64
        E 0 8d 47 64
        E 0 98 3b 64
        E 0 9d 47 64
        E 481 88 3b 64
        E 0 8d 47 64
        E 480 96 42 64
        E 0 9d 42 64
        E 239 86 42 64
        E 0 8d 42 64
        E 0 96 43 64
        E 0 9d 43 64
        E 241 86 43 64
        E 0 8d 43 64
        E 0 8f 2f 64
        E 0 96 45 64
        E 0 9d 45 64
        E 0 9f 31 5a
        E 479 86 45 64
        E 0 8d 45 64
        E 0 96 45 64
        E 2 9d 45 64
        E 478 86 45 64
        E 0 8d 45 64
        E 962 96 45 64
        E 0 9d 45 64
        E 478 86 45 64
        E 0 8d 45 64
        E 0 96 40 64
        E 0 9d 40 64
        E 240 86 40 64
        E 0 8d 40 64
        E 0 96 40 64
        E 0 9d 40 64
        E 242 86 40 64
        E 0 8d 40 64
        E 0 96 43 64
        E 0 9d 43 64
        E 478 86 43 64
        E 0 8d 43 64
        E 0 96 42 64
        E 0 9d 42 64
        E 480 86 42 64
        E 0 8d 42 64
        E 0 8f 31 64
        E 0 96 3e 64
        E 0 9d 3e 64
        E 0 9f 32 5a
        E 480 86 3e 64
        E 0 8d 3e 64
        E 0 96 3e 64
        E 0 9d 3e 64
        E 482 86 3e 64
        E 0 8d 3e 64
        E 239 96 45 64
        E 0 9d 45 64
        E 238 86 45 64
        E 0 8d 45 64
        E 0 96 45 64
        E 1 9d 45 64
        E 239 86 45 64
        E 1 8d 45 64
        E 0 96 45 64
        E 0 9d 45 64
        E 240 86 45 64
        E 0 8d 45 64
        E 0 96 42 64
        E 0 9d 42 64
        E 480 86 42 64
        E 0 8d 42 64
        E 1 96 42 64
        E 0 9d 42 64
        E 480 86 42 64
        E 0 8d 42 64
        E 479 96 48 64
        E 0 9d 48 64
        E 240 86 48 64
        E 0 8d 48 64
        E 0 96 48 64
        E 0 9d 48 64
        E 242 86 48 64
        E 0 8d 48 64
        E 0 8f 32 64
        E 0 96 45 64
        E 0 9d 45 64
        E 0 9f 32 5a
        E 959 86 45 64
        E 0 8d 45 64
        E 0 96 45 64
        E 0 9d 45 64
        E 480 86 45 64
        E 0 8d 45 64
        E 1 96 47 64
        E 0 9d 47 64
        E 478 86 47 64
        E 0 8d 47 64
        E 0 8f 32 64
        E 0 96 43 64
        E 0 9d 43 64
        E 0 9f 2b 5a
        E 479 86 43 64
        E 0 8d 43 64
        E 0 96 43 64
        E 0 9d 43 64
        E 481 86 43 64
        E 0 8d 43 64
        E 240 98 32 64
        E 0 9d 4a 64
        E 240 88 32 64
        E 0 8d 4a 64
        E 0 98 32 64
        E 0 9d 4a 64
        E 239 88 32 64
        E 0 8d 4a 64
        E 1 98 32 64
        E 0 9d 4a 64
        E 240 88 32 64
        E 0 8d 4a 64
        E 0 8f 2b 64
        E 0 98 37 64
        E 0 9d 47 64
        E 0 9f 2b 5a
        E 480 88 37 64
        E 0 8d 47 64
        E 0 98 37 64
        E 0 9d 47 64
        E 480 88 37 64
        E 0 8d 47 64
        E 0 98 37 64
        E 0 9d 48 64
        E 480 88 37 64
        E 0 8d 48 64
        E 1 98 39 64
        E 0 9d 4a 64
        E 479 88 39 64
        E 0 8d 4a 64
        E 0 98 3b 64
        E 0 9d 43 64
        E 482 88 3b 64
        E 0 8d 43 64
        E 0 98 3b 64
        E 0 9d 43 64
        E 478 88 3b 64
        E 0 8d 43 64
        E 481 96 43 64
        E 0 9d 43 64
        E 479 86 43 64
        E 0 8d 43 64
        E 0 8f 2b 64
        E 0 96 3e 64
        E 0 9d 3e 64
        E 0 9f 2b 5a
        E 480 86 3e 64
        E 0 8d 3e 64
        E 0 96 3e 64
        E 0 9d 3e 64
        E 481 86 3e 64
        E 0 8d 3e 64
        E 240 96 43 64
        E 0 9d 43 64
        E 239 86 43 64
        E 0 8d 43 64
        E 0 96 43 64
        E 0 9d 43 64
        E 241 86 43 64
        E 0 8d 43 64
        E 0 96 47 64
        E 0 9d 47 64
        E 239 86 47 64
        E 0 8d 47 64
        E 0 8f 2b 64
        E 0 96 44 64
        E 0 9d 44 64
        E 0 9f 32 5a
        E 480 86 44 64
        E 1 8d 44 64
        E 0 96 44 64
        E 0 9d 44 64
        E 480 86 44 64
        E 0 8d 44 64
        E 960 8f 32 64
        E 0 96 44 64
        E 0 9d 44 64
        E 0 9f 32 5a
        E 480 86 44 64
        E 0 8d 44 64
        E 0 96 44 64
        E 0 9d 44 64
        E 480 86 44 64
        E 0 8d 44 64
        E 0 96 44 64
        E 0 9d 44 64
        E 479 86 44 64
        E 1 8d 44 64
        E 1 96 44 64
        E 0 9d 44 64
        E 238 86 44 64
        E 0 8d 44 64
        E 0 96 45 64
        E 0 9d 45 64
        E 239 86 45 64
        E 0 8d 45 64
        E 0 8f 32 64
        E 0 96 47 64
        E 1 9d 47 64
        E 0 9f 2c 5a
        E 479 86 47 64
        E 1 8d 47 64
        E 0 96 47 64
        E 0 9d 47 64
        E 480 86 47 64
        E 0 8d 47 64
        E 961 8f 2c 64
        E 0 96 47 64
        E 0 9d 47 64
        E 0 9f 2c 5a
        E 481 86 47 64
        E 1 8d 47 64
        E 0 96 47 64
        E 0 9d 47 64
        E 478 86 47 64
        E 0 8d 47 64
        E 0 96 47 64
        E 0 9d 47 64
        E 479 86 47 64
        E 0 8d 47 64
        E 0 96 47 64
        E 0 9d 47 64
        E 241 86 47 64
        E 0 8d 47 64
        E 0 96 48 64
        E 0 9d 48 64
        E 240 86 48 64
        E 0 8d 48 64
        E 0 8f 2c 64
        E 0 96 45 64
        E 0 9d 45 64
        E 0 9f 2d 5a
        E 479 86 45 64
        E 1 8d 45 64
        E 0 96 45 64
        E 0 9d 45 64
        E 479 86 45 64
        E 0 8d 45 64
        E 481 96 45 64
        E 0 9d 45 64
        E 480 86 45 64
        E 0 8d 45 64
        E 0 8f 2d 64
        E 0 96 45 64
        E 1 9d 45 64
        E 0 9f 2d 5a
        E 478 86 45 64
        E 0 8d 45 64
        E 0 96 40 64
        E 0 9d 40 64
        E 480 86 40 64
        E 0 8d 40 64
        E 481 98 3c 64
        E 0 9d 48 64
        E 479 88 3c 64
        E 0 8d 48 64
        E 0 98 39 64
        E 0 9d 45 64
        E 480 88 39 64
        E 0 8d 45 64
        E 1 98 39 64
        E 0 9d 45 64
        E 479 88 39 64
        E 0 8d 45 64
        E 481 96 40 64
        E 0 9d 40 64
        E 480 86 40 64
        E 0 8d 40 64
        E 0 8f 2d 64
        E 0 96 45 64
        E 0 9d 45 64
        E 0 9f 2d 5a
        E 959 86 45 64
        E 0 8d 45 64
        E 1 98 34 64
        E 0 9d 4c 64
        E 479 88 34 64
        E 0 8d 4c 64
        E 0 98 34 64
        E 1 9d 4c 64
        E 240 88 34 64
        E 0 8d 4c 64
        E 0 98 36 64
        E 1 9d 4c 64
        E 239 88 36 64
        E 0 8d 4c 64
        E 0 8f 2d 64
        E 0 98 36 64
        E 0 9d 4a 64
        E 0 9f 32 5a
        E 479 88 36 64
        E 0 8d 4a 64
        E 1 98 36 64
        E 0 9d 4a 64
        E 479 88 36 64
        E 0 8d 4a 64
        E 0 96 45 64
        E 1 9d 45 64
        E 960 86 45 64
        E 0 8d 45 64
        E 0 8f 32 64
        E 0 98 3e 64
        E 0 9d 4a 64
        E 0 9f 32 5a
        E 482 88 3e 64
        E 0 8d 4a 64
        E 0 98 3b 64
        E 0 9d 45 64
        E 477 88 3b 64
        E 0 8d 45 64
        E 0 98 3b 64
        E 0 9d 45 64
        E 480 88 3b 64
        E 0 8d 45 64
        E 480 8f 32 64
        E 0 9f 32 5a
        E 480 96 45 64
        E 0 9d 45 64
        E 482 86 45 64
        E 0 8d 45 64
        E 0 8f 32 64
        E 0 96 47 64
        E 0 9d 47 64
        E 0 9f 2b 5a
        E 1007 86 47 64
        E 0 8d 47 64
        E 0 8f 2b 64
        E 0 98 37 64
        E 0 9d 43 64
        E 0 9f 2b 5a
        E 911 88 37 64
        E 0 8d 43 64
        E 0 98 37 64
        E 0 9d 43 64
        E 481 88 37 64
        E 0 8d 43 64
        E 0 98 39 64
        E 0 9d 45 64
        E 478 88 39 64
        E 0 8d 45 64
        E 0 98 35 64
        E 1 9d 41 64
        E 479 88 35 64
        E 1 8d 41 64
        E 0 98 35 64
        E 0 9d 41 64
        E 480 88 35 64
        E 0 8d 41 64
        E 962 8f 2b 64
        E 0 98 3b 64
        E 0 9d 47 64
        E 0 9f 2b 5a
        E 480 88 3b 64
        E 0 8d 47 64
        E 0 98 3b 64
        E 0 9d 47 64
        E 478 88 3b 64
        E 0 8d 47 64
        E 961 98 35 64
        E 0 9d 4a 64
        E 959 88 35 64
        E 0 8d 4a 64
        E 0 98 35 64
        E 0 9d 47 64
        E 481 88 35 64
        E 0 8d 47 64
        E 0 98 34 64
        E 0 9d 48 64
        E 479 88 34 64
        E 1 8d 48 64
        E 0 8f 2b 64
        E 0 98 30 64
        E 0 9d 43 64
        E 0 9f 30 5a
        E 480 88 30 64
        E 0 8d 43 64
        E 0 98 30 64
        E 0 9d 43 64
        E 481 88 30 64
        E 0 8d 43 64
        E 0 96 43 64
        E 0 9d 43 64
        E 478 86 43 64
        E 0 8d 43 64
        E 0 96 43 64
        E 1 9d 43 64
        E 240 86 43 64
        E 0 8d 43 64
        E 0 96 48 64
        E 0 9d 48 64
        E 239 86 48 64
        E 0 8d 48 64
        E 0 8f 30 64
        E 0 96 45 64
        E 0 9d 45 64
        E 0 9f 35 5a
        E 481 86 45 64
        E 0 8d 45 64
        E 0 96 45 64
        E 1 9d 45 64
        E 479 86 45 64
        E 0 8d 45 64
        E 960 8f 35 64
        E 0 96 45 64
        E 0 9d 45 64
        E 0 9f 35 5a
        E 480 86 45 64
        E 1 8d 45 64
        E 0 96 45 64
        E 0 9d 45 64
        E 480 86 45 64
        E 0 8d 45 64
        E 0 96 45 64
        E 0 9d 45 64
        E 478 86 45 64
        E 0 8d 45 64
        E 0 96 44 64
        E 0 9d 44 64
        E 240 86 44 64
        E 0 8d 44 64
        E 0 96 45 64
        E 0 9d 45 64
        E 240 86 45 64
        E 0 8d 45 64
        E 0 8f 35 64
        E 0 96 40 64
        E 0 9d 40 64
        E 0 9f 34 5a
        E 480 86 40 64
        E 0 8d 40 64
        E 1 96 40 64
        E 0 9d 40 64
        E 480 86 40 64
        E 0 8d 40 64
        E 0 8f 34 64
        E 1 9f 2d 5a
        E 239 96 45 64
        E 0 9d 45 64
        E 238 86 45 64
        E 0 8d 45 64
        E 0 96 45 64
        E 0 9d 45 64
        E 241 86 45 64
        E 0 8d 45 64
        E 0 96 45 64
        E 1 9d 45 64
        E 241 86 45 64
        E 0 8d 45 64
        E 0 8f 2d 64
        E 0 96 42 64
        E 0 9d 42 64
        E 0 9f 30 5a
        E 479 86 42 64
        E 0 8d 42 64
        E 0 96 42 64
        E 0 9d 42 64
        E 479 86 42 64
        E 0 8d 42 64
        E 961 96 45 64
        E 0 9d 45 64
        E 478 86 45 64
        E 0 8d 45 64
        E 0 96 46 66
        E 0 9d 46 66
        E 481 86 46 66
        E 0 8d 46 66
        E 0 96 48 64
        E 0 9d 48 64
        E 481 86 48 64
        E 0 8d 48 64
        E 0 96 48 64
        E 0 9d 48 64
        E 239 86 48 64
        E 0 8d 48 64
        E 0 96 46 66
        E 0 9d 46 66
        E 242 86 46 66
        E 0 8d 46 66
        E 1 8f 30 64
        E 0 96 43 64
        E 0 9d 43 64
        E 0 9f 2e 5b
        E 478 86 43 64
        E 0 8d 43 64
        E 0 96 43 64
        E 0 9d 43 64
        E 479 86 43 64
        E 0 8d 43 64
        E 959 8f 2e 66
        E 1922 9f 2e 5b
        E 1439 97 43 64
        E 0 9d 43 64
        E 481 87 43 64
        E 0 8d 43 64
        E 0 97 49 64
        E 0 9d 49 64
        E 959 87 49 64
        E 0 8d 49 64
        E 0 97 49 64
        E 0 9d 49 64
        E 480 87 49 64
        E 0 8d 49 64
        E 0 97 4a 64
        E 0 9d 4a 64
        E 479 87 4a 64
        E 1 8d 4a 64
        E 0 8f 2e 66
        E 0 97 45 64
        E 0 9d 45 64
        E 0 9f 2d 5a
        E 480 87 45 64
        E 0 8d 45 64
        E 0 97 45 64
        E 0 9d 45 64
        E 481 87 45 64
        E 0 8d 45 64
        E 0 8f 2d 64
        E 0 9f 32 5a
        E 480 96 41 64
        E 0 9d 41 64
        E 239 86 41 64
        E 0 8d 41 64
        E 0 96 45 64
        E 0 9d 45 64
        E 240 86 45 64
        E 0 8d 45 64
        E 0 8f 32 64
        E 0 96 3e 64
        E 0 9d 3e 64
        E 0 9f 32 5a
        E 480 86 3e 64
        E 0 8d 3e 64
        E 0 96 3e 64
        E 0 9d 3e 64
        E 481 86 3e 64
        E 0 8d 3e 64
        E 960 8f 32 64
        E 0 97 4a 64
        E 0 9d 4a 64
        E 0 9f 32 5a
        E 480 87 4a 64
        E 0 8d 4a 64
        E 1 97 45 64
        E 0 9d 45 64
        E 478 87 45 64
        E 0 8d 45 64
        E 240 96 45 64
        E 0 9d 45 64
        E 240 86 45 64
        E 0 8d 45 64
        E 0 96 45 64
        E 0 9d 45 64
        E 241 86 45 64
        E 0 8d 45 64
        E 0 96 45 64
        E 0 9d 45 64
        E 239 86 45 64
        E 0 8d 45 64
        E 0 8f 32 64
        E 0 96 42 64
        E 0 9d 42 64
        E 0 9f 33 5a
        E 480 86 42 64
        E 0 8d 42 64
        E 0 96 42 64
        E 0 9d 42 64
        E 480 86 42 64
        E 0 8d 42 64
        E 960 8f 33 64
        E 0 96 48 64
        E 0 9d 48 64
        E 0 9f 33 5a
        E 960 86 48 64
        E 0 8d 48 64
        E 0 96 45 64
        E 0 9d 45 64
        E 480 86 45 64
        E 0 8d 45 64
        E 0 96 43 64
        E 0 9d 43 64
        E 480 86 43 64
        E 0 8d 43 64
        E 0 8f 33 64
        E 0 96 40 64
        E 0 9d 40 64
        E 0 9f 34 5a
        E 480 86 40 64
        E 0 8d 40 64
        E 1 96 40 64
        E 0 9d 40 64
        E 479 86 40 64
        E 0 8d 40 64
        E 960 8f 34 64
        E 0 96 47 64
        E 0 9d 47 64
        E 0 9f 34 5a
        E 960 86 47 64
        E 0 8d 47 64
        E 0 96 47 64
        E 0 9d 47 64
        E 480 86 47 64
        E 0 8d 47 64
        E 1 96 48 64
        E 0 9d 48 64
        E 481 86 48 64
        E 0 8d 48 64
        E 0 8f 34 64
        E 0 96 48 64
        E 0 9d 48 64
        E 0 9f 2d 5a
        E 478 86 48 64
        E 0 8d 48 64
        E 0 96 48 64
        E 0 9d 48 64
        E 480 86 48 64
        E 0 8d 48 64
        E 961 8f 2d 64
        E 0 96 45 64
        E 0 9d 45 64
        E 0 9f 2d 5a
        E 479 86 45 64
        E 0 8d 45 64
        E 0 96 45 64
        E 0 9d 45 64
        E 480 86 45 64
        E 0 8d 45 64
        E 0 96 45 64
        E 0 9d 45 64
        E 480 86 45 64
        E 0 8d 45 64
        E 0 96 45 64
        E 0 9d 45 64
        E 241 86 45 64
        E 0 8d 45 64
        E 1 96 43 64
        E 0 9d 43 64
        E 238 86 43 64
        E 0 8d 43 64
        E 0 8f 2d 64
        E 0 96 40 64
        E 0 9d 40 64
        E 0 9f 2f 5a
        E 481 86 40 64
        E 0 8d 40 64
        E 0 96 40 64
        E 0 9d 40 64
        E 480 86 40 64
        E 0 8d 40 64
        E 0 8f 2f 64
        E 0 9f 34 5a
        E 239 97 47 64
        E 0 9d 47 64
        E 240 87 47 64
        E 0 8d 47 64
        E 0 97 47 64
        E 0 9d 47 64
        E 240 87 47 64
        E 0 8d 47 64
        E 0 97 47 64
        E 0 9d 47 64
        E 241 87 47 64
        E 0 8d 47 64
        E 0 8f 34 64
        E 0 97 44 64
        E 0 9d 44 64
        E 0 9f 32 5a
        E 479 87 44 64
        E 0 8d 44 64
        E 0 97 44 64
        E 0 9d 44 64
        E 482 87 44 64
        E 0 8d 44 64
        E 478 97 4a 64
        E 0 9d 4a 64
        E 479 87 4a 64
        E 0 8d 4a 64
        E 0 97 47 64
        E 1 9d 47 64
        E 960 87 47 64
        E 0 8d 47 64
        E 0 97 47 64
        E 0 9d 47 64
        E 480 87 47 64
        E 0 8d 47 64
        E 0 97 45 64
        E 0 9d 45 64
        E 241 87 45 64
        E 0 8d 45 64
        E 0 97 47 64
        E 0 9d 47 64
        E 240 87 47 64
        E 0 8d 47 64
        E 0 8f 32 64
        E 0 97 48 64
        E 0 9d 48 64
        E 0 9f 2d 5a
        E 479 87 48 64
        E 0 8d 48 64
        E 1 97 48 64
        E 0 9d 48 64
        E 478 87 48 64
        E 0 8d 48 64
        E 481 97 45 64
        E 0 9d 45 64
        E 481 87 45 64
        E 0 8d 45 64
        E 0 8f 2d 64
        E 0 97 4a 64
        E 0 9d 4a 64
        E 0 9f 35 5a
        E 479 87 4a 64
        E 0 8d 4a 64
        E 1 97 45 64
        E 0 9d 45 64
        E 481 87 45 64
        E 0 8d 45 64
        E 0 97 45 64
        E 0 9d 45 64
        E 478 87 45 64
        E 0 8d 45 64
        E 0 97 45 64
        E 0 9d 45 64
        E 241 87 45 64
        E 0 8d 45 64
        E 1 97 44 64
        E 0 9d 44 64
        E 239 87 44 64
        E 0 8d 44 64
        E 0 8f 35 64
        E 0 97 47 64
        E 0 9d 47 64
        E 0 9f 34 5a
        E 481 87 47 64
        E 0 8d 47 64
        E 0 97 47 64
        E 1 9d 47 64
        E 478 87 47 64
        E 0 8d 47 64
        E 479 96 47 64
        E 0 9d 47 64
        E 480 86 47 64
        E 0 8d 47 64
        E 0 96 44 64
        E 0 9d 44 64
        E 481 86 44 64
        E 0 8d 44 64
        E 0 96 44 64
        E 0 9d 44 64
        E 479 86 44 64
        E 0 8d 44 64
        E 481 96 40 64
        E 0 9d 40 64
        E 478 86 40 64
        E 0 8d 40 64
        E 0 8f 34 64
        E 1 96 48 64
        E 0 9d 48 64
        E 0 9f 39 5a
        E 480 86 48 64
        E 0 8d 48 64
        E 0 96 48 64
        E 0 9d 48 64
        E 481 86 48 64
        E 1 8d 48 64
        E 959 96 45 64
        E 0 9d 45 64
        E 479 86 45 64
        E 0 8d 45 64
        E 0 96 45 64
        E 0 9d 45 64
        E 480 86 45 64
        E 0 8d 45 64
        E 0 96 45 64
        E 0 9d 45 64
        E 480 86 45 64
        E 0 8d 45 64
        E 0 96 47 64
        E 1 9d 47 64
        E 240 86 47 64
        E 0 8d 47 64
        E 0 96 48 64
        E 0 9d 48 64
        E 239 86 48 64
        E 0 8d 48 64
        E 0 8f 39 64
        E 0 96 43 64
        E 0 9d 43 64
        E 1 9f 37 5a
        E 479 86 43 64
        E 0 8d 43 64
        E 0 96 43 64
        E 0 9d 43 64
        E 480 86 43 64
        E 0 8d 43 64
        E 1 8f 37 64
        E 0 97 4c 64
        E 0 9d 4c 64
        E 0 9f 30 5a
        E 479 87 4c 64
        E 0 8d 4c 64
        E 1 97 48 64
        E 0 9d 48 64
        E 479 87 48 64
        E 0 8d 48 64
        E 0 8f 30 64
        E 0 9f 30 5a
        E 482 96 40 64
        E 0 9d 40 64
        E 479 86 40 64
        E 0 8d 40 64
        E 0 96 43 64
        E 0 9d 43 64
        E 479 86 43 64
        E 0 8d 43 64
        E 0 96 43 64
        E 0 9d 43 64
        E 480 86 43 64
        E 0 8d 43 64
        E 0 8f 30 64
        E 0 96 43 64
        E 1 9d 43 64
        E 0 9f 30 5a
        E 480 86 43 64
        E 0 8d 43 64
        E 0 96 45 64
        E 0 9d 45 64
        E 480 86 45 64
        E 0 8d 45 64
        E 0 96 46 66
        E 0 9d 46 66
        E 480 86 46 66
        E 0 8d 46 66
        E 0 96 46 66
        E 0 9d 46 66
        E 239 86 46 66
        E 0 8d 46 66
        E 0 96 45 64
        E 0 9d 45 64
        E 241 86 45 64
        E 0 8d 45 64
        E 1 8f 30 64
        E 0 96 45 64
        E 2 9d 45 64
        E 1 9f 35 5a
        E 476 86 45 64
        E 0 8d 45 64
        E 0 96 45 64
        E 0 9d 45 64
        E 479 86 45 64
        E 0 8d 45 64
        E 482 96 4a 64
        E 0 9d 4a 64
        E 478 86 4a 64
        E 0 8d 4a 64
        E 0 8f 35 64
        E 0 96 46 66
        E 0 9d 46 66
        E 0 9f 32 5a
        E 480 86 46 66
        E 0 8d 46 66
        E 0 96 46 66
        E 0 9d 46 66
        E 482 86 46 66
        E 0 8d 46 66
        E 1 96 46 66
        E 1 9d 46 66
        E 477 86 46 66
        E 0 8d 46 66
        E 0 96 45 64
        E 0 9d 45 64
        E 481 86 45 64
        E 0 8d 45 64
        E 0 8f 32 64
        E 0 96 41 64
        E 0 9d 41 64
        E 0 9f 30 5a
        E 480 86 41 64
        E 0 8d 41 64
        E 1 96 41 64
        E 0 9d 41 64
        E 476 86 41 64
        E 0 8d 41 64
        E 0 8f 30 64
        E 0 9f 35 5a
        E 241 97 48 64
        E 0 9d 48 64
        E 240 87 48 64
        E 0 8d 48 64
        E 0 97 48 64
        E 0 9d 48 64
        E 240 87 48 64
        E 0 8d 48 64
        E 0 97 48 64
        E 1 9d 48 64
        E 239 87 48 64
        E 0 8d 48 64
        E 0 8f 35 64
        E 0 97 45 64
        E 0 9d 45 64
        E 0 9f 35 5a
        E 480 87 45 64
        E 0 8d 45 64
        E 0 97 45 64
        E 0 9d 45 64
        E 480 87 45 64
        E 0 8d 45 64
        E 480 97 45 64
        E 0 9d 45 64
        E 239 87 45 64
        E 0 8d 45 64
        E 0 97 45 64
        E 1 9d 45 64
        E 240 87 45 64
        E 0 8d 45 64
        E 0 8f 35 64
        E 0 97 4a 64
        E 0 9d 4a 64
        E 0 9f 2e 5b
        E 962 87 4a 64
        E 0 8d 4a 64
        E 0 97 4a 64
        E 0 9d 4a 64
        E 479 87 4a 64
        E 1 8d 4a 64
        E 0 97 43 64
        E 0 9d 43 64
        E 477 87 43 64
        E 0 8d 43 64
        E 0 8f 2e 66
        E 0 97 45 64
        E 0 9d 45 64
        E 0 9f 2d 5a
        E 481 87 45 64
        E 0 8d 45 64
        E 480 96 40 64
        E 0 9d 40 64
        E 961 86 40 64
        E 0 8d 40 64
        E 1439 97 45 64
        E 1 9d 45 64
        E 239 87 45 64
        E 0 8d 45 64
        E 0 97 47 64
        E 0 9d 47 64
        E 240 87 47 64
        E 0 8d 47 64
        E 0 8f 2d 64
        E 0 97 49 64
        E 0 9d 49 64
        E 0 9f 2b 5a
        E 480 87 49 64
        E 0 8d 49 64
        E 0 97 49 64
        E 0 9d 49 64
        E 479 87 49 64
        E 0 8d 49 64
        E 0 97 47 64
        E 0 9d 47 64
        E 481 87 47 64
        E 0 8d 47 64
        E 0 97 45 64
        E 0 9d 45 64
        E 481 87 45 64
        E 0 8d 45 64
        E 0 8f 2b 64
        E 0 97 4a 64
        E 0 9d 4a 64
        E 0 9f 2a 5a
        E 480 87 4a 64
        E 0 8d 4a 64
        E 0 97 4a 64
        E 0 9d 4a 64
        E 479 87 4a 64
        E 0 8d 4a 64
        E 240 96 45 64
        E 0 9d 45 64
        E 239 86 45 64
        E 1 8d 45 64
        E 0 96 48 64
        E 0 9d 48 64
        E 240 86 48 64
        E 0 8d 48 64
        E 0 96 47 64
        E 0 9d 47 64
        E 241 86 47 64
        E 0 8d 47 64
        E 0 8f 2a 64
        E 0 96 43 64
        E 0 9d 43 64
        E 0 9f 2b 5a
        E 480 86 43 64
        E 0 8d 43 64
        E 0 96 43 64
        E 0 9d 43 64
        E 480 86 43 64
        E 0 8d 43 64
        E 480 96 3e 64
        E 0 9d 3e 64
        E 480 86 3e 64
        E 0 8d 3e 64
        E 0 96 43 64
        E 0 9d 43 64
        E 479 86 43 64
        E 0 8d 43 64
        E 0 96 43 64
        E 0 9d 43 64
        E 480 86 43 64
        E 0 8d 43 64
        E 961 8f 2b 64
        E 0 96 43 64
        E 0 9d 43 64
        E 0 9f 29 5a
        E 479 86 43 64
        E 0 8d 43 64
        E 0 96 43 64
        E 0 9d 43 64
        E 480 86 43 64
        E 0 8d 43 64
        E 0 96 47 64
        E 0 9d 47 64
        E 480 86 47 64
        E 0 8d 47 64
        E 0 96 47 64
        E 0 9d 47 64
        E 241 86 47 64
        E 0 8d 47 64
        E 1 96 48 64
        E 0 9d 48 64
        E 238 86 48 64
        E 0 8d 48 64
        E 0 8f 29 64
        E 0 96 43 64
        E 0 9d 43 64
        E 0 9f 28 5a
        E 480 86 43 64
        E 0 8d 43 64
        E 0 96 43 64
        E 0 9d 43 64
        E 481 86 43 64
        E 0 8d 43 64
        E 959 8f 28 64
        E 0 9f 28 5a
        E 482 96 40 64
        E 0 9d 40 64
        E 477 86 40 64
        E 0 8d 40 64
        E 0 96 40 64
        E 0 9d 40 64
        E 481 86 40 64
        E 1 8d 40 64
        E 0 96 41 64
        E 0 9d 41 64
        E 479 86 41 64
        E 0 8d 41 64
        E 0 96 43 64
        E 0 9d 43 64
        E 480 86 43 64
        E 0 8d 43 64
        E 0 96 43 64
        E 1 9d 43 64
        E 479 86 43 64
        E 0 8d 43 64
        E 960 8f 28 64
        E 0 96 43 64
        E 0 9d 43 64
        E 0 9f 28 5a
        E 480 86 43 64
        E 0 8d 43 64
        E 0 96 43 64
        E 0 9d 43 64
        E 240 86 43 64
        E 0 8d 43 64
        E 0 96 43 64
        E 0 9d 43 64
        E 241 86 43 64
        E 0 8d 43 64
        E 0 96 43 64
        E 0 9d 43 64
        E 479 86 43 64
        E 0 8d 43 64
        E 0 96 45 64
        E 0 9d 45 64
        E 480 86 45 64
        E 0 8d 45 64
        E 0 8f 28 64
        E 0 96 45 64
        E 0 9d 45 64
        E 0 9f 31 5a
        E 480 86 45 64
        E 0 8d 45 64
        E 0 96 45 64
        E 0 9d 45 64
        E 480 86 45 64
        E 0 8d 45 64
        E 960 8f 31 64
        E 0 96 40 64
        E 0 9d 40 64
        E 0 9f 31 5a
        E 479 86 40 64
        E 0 8d 40 64
        E 2 96 42 64
        E 1 9d 42 64
        E 478 86 42 64
        E 0 8d 42 64
        E 0 96 43 64
        E 0 9d 43 64
        E 480 86 43 64
        E 0 8d 43 64
        E 0 96 43 64
        E 0 9d 43 64
        E 241 86 43 64
        E 0 8d 43 64
        E 0 96 42 64
        E 0 9d 42 64
        E 241 86 42 64
        E 0 8d 42 64
        E 0 8f 31 64
        E 0 96 3e 64
        E 0 9d 3e 64
        E 0 9f 32 5a
        E 480 86 3e 64
        E 0 8d 3e 64
        E 0 96 3e 64
        E 0 9d 3e 64
        E 480 86 3e 64
        E 0 8d 3e 64
        E 959 8f 32 64
        E 0 96 47 64
        E 0 9d 47 64
        E 1 9f 33 5a
        E 960 86 47 64
        E 0 8d 47 64
        E 0 96 42 64
        E 0 9d 42 64
        E 478 86 42 64
        E 0 8d 42 64
        E 0 96 43 64
        E 0 9d 43 64
        E 480 86 43 64
        E 0 8d 43 64
        E 0 8f 33 64
        E 0 96 40 64
        E 0 9d 40 64
        E 0 9f 34 5a
        E 480 86 40 64
        E 0 8d 40 64
        E 0 96 40 64
        E 1 9d 40 64
        E 480 86 40 64
        E 0 8d 40 64
        E 958 8f 34 64
        E 0 96 47 64
        E 0 9d 47 64
        E 1 9f 34 5a
        E 480 86 47 64
        E 0 8d 47 64
        E 0 96 47 64
        E 0 9d 47 64
        E 481 86 47 64
        E 0 8d 47 64
        E 0 96 47 64
        E 0 9d 47 64
        E 479 86 47 64
        E 1 8d 47 64
        E 0 96 45 64
        E 0 9d 45 64
        E 240 86 45 64
        E 0 8d 45 64
        E 0 96 47 64
        E 0 9d 47 64
        E 238 86 47 64
        E 0 8d 47 64
        E 0 96 43 64
        E 0 9d 43 64
        E 481 86 43 64
        E 0 8d 43 64
        E 0 96 43 64
        E 0 9d 43 64
        E 480 86 43 64
        E 0 8d 43 64
        E 240 96 47 64
        E 0 9d 47 64
        E 239 86 47 64
        E 0 8d 47 64
        E 0 96 47 64
        E 0 9d 47 64
        E 241 86 47 64
        E 0 8d 47 64
        E 0 96 49 64
        E 0 9d 49 64
        E 240 86 49 64
        E 0 8d 49 64
        E 0 8f 34 64
        E 0 96 45 64
        E 0 9d 45 64
        E 0 9f 36 5a
        E 480 86 45 64
        E 0 8d 45 64
        E 0 96 45 64
        E 0 9d 45 64
        E 480 86 45 64
        E 0 8d 45 64
        E 481 96 42 64
        E 0 9d 42 64
        E 481 86 42 64
        E 0 8d 42 64
        E 0 96 45 64
        E 0 9d 45 64
        E 479 86 45 64
        E 0 8d 45 64
        E 0 96 45 64
        E 0 9d 45 64
        E 478 86 45 64
        E 0 8d 45 64
        E 1 96 45 64
        E 0 9d 45 64
        E 479 86 45 64
        E 0 8d 45 64
        E 3 96 47 64
        E 0 9d 47 64
        E 477 86 47 64
        E 0 8d 47 64
        E 0 8f 36 64
        E 0 96 48 64
        E 0 9d 48 64
        E 0 9f 36 5a
        E 482 86 48 64
        E 0 8d 48 64
        E 0 96 48 64
        E 0 9d 48 64
        E 480 86 48 64
        E 0 8d 48 64
        E 0 96 48 64
        E 0 9d 48 64
        E 480 86 48 64
        E 1 8d 48 64
        E 0 96 47 64
        E 0 9d 47 64
        E 479 86 47 64
        E 0 8d 47 64
        E 0 8f 36 64
        E 0 96 43 64
        E 0 9d 43 64
        E 0 9f 37 5a
        E 479 86 43 64
        E 0 8d 43 64
        E 0 96 43 64
        E 0 9d 43 64
        E 480 86 43 64
        E 0 8d 43 64
        E 962 8f 37 64
        E 0 96 48 64
        E 0 9d 48 64
        E 0 9f 34 5a
        E 478 86 48 64
        E 0 8d 48 64
        E 0 96 43 64
        E 0 9d 43 64
        E 480 86 43 64
        E 1 8d 43 64
        E 960 96 46 66
        E 0 9d 46 66
        E 960 86 46 66
        E 0 8d 46 66
        E 0 96 46 66
        E 0 9d 46 66
        E 479 86 46 66
        E 0 8d 46 66
        E 0 96 45 64
        E 0 9d 45 64
        E 481 86 45 64
        E 0 8d 45 64
        E 0 8f 34 64
        E 0 96 45 64
        E 0 9d 45 64
        E 0 9f 35 5a
        E 481 86 45 64
        E 0 8d 45 64
        E 0 96 45 64
        E 0 9d 45 64
        E 478 86 45 64
        E 0 8d 45 64
        E 0 8f 35 64
        E 0 96 4a 64
        E 0 9d 4a 64
        E 0 9f 2e 5b
        E 480 86 4a 64
        E 0 8d 4a 64
        E 0 96 46 66
        E 0 9d 46 66
        E 239 86 46 66
        E 0 8d 46 66
        E 1 96 45 64
        E 0 9d 45 64
        E 240 86 45 64
        E 0 8d 45 64
        E 0 8f 2e 66
        E 0 96 41 64
        E 0 9d 41 64
        E 0 9f 30 5a
        E 480 86 41 64
        E 0 8d 41 64
        E 0 96 41 64
        E 0 9d 41 64
        E 480 86 41 64
        E 0 8d 41 64
        E 0 8f 30 64
        E 0 9f 29 5a
        E 1440 8f 29 64
        E 3362 92 43 64
        E 0 93 43 5a
        E 0 9f 37 5a
        E 478 82 43 64
        E 0 83 43 64
        E 0 8f 37 64
        E 0 92 48 64
        E 0 93 48 5a
        E 0 9f 3c 5a
        E 480 82 48 64
        E 0 83 48 64
        E 0 8f 3c 64
        E 0 92 40 64
        E 0 93 40 5a
        E 0 9f 34 5a
        E 480 82 40 64
        E 0 83 40 64
        E 0 8f 34 64
        E 0 92 41 64
        E 0 93 41 5a
        E 0 9f 35 5a
        E 481 82 41 64
        E 0 83 41 64
        E 0 8f 35 64
        E 0 92 43 64
        E 1 93 43 5a
        E 0 9f 37 5a
        E 480 82 43 64
        E 0 83 43 64
        E 0 8f 37 64
        E 0 92 40 64
        E 0 93 40 5a
        E 0 9f 34 5a
        E 479 82 40 64
        E 0 83 40 64
        E 0 8f 34 64
        E 0 92 3c 64
        E 0 93 3c 5a
        E 0 9f 30 5a
        E 240 8f 30 64
        E 0 9f 32 5a
        E 240 82 3c 64
        E 0 83 3c 64
        E 0 8f 32 64
        E 0 93 43 5a
        E 0 9f 34 5a
        E 480 83 43 64
        E 0 8f 34 64
        E 0 92 4f 64
        E 0 93 40 5a
        E 0 9f 30 5a
        E 479 82 4f 64
        E 1 83 40 64
        E 0 8f 30 64
        E 0 92 54 64
        E 240 82 54 64
        E 0 92 4f 64
        E 240 82 4f 64
        E 0 92 4c 64
        E 0 93 40 5a
        E 0 9f 30 5a
        E 239 82 4c 64
        E 1 92 48 64
        E 239 82 48 64
        E 0 83 40 64
        E 0 8f 30 64
        E 0 92 3e 64
        E 0 93 3e 5a
        E 0 9f 2f 5a
        E 480 82 3e 64
        E 0 83 3e 64
        E 0 8f 2f 64
        E 1 92 41 64
        E 0 93 3b 5a
        E 0 9f 2b 5a
        E 479 82 41 64
        E 0 83 3b 64
        E 0 8f 2b 64
        E 0 92 40 64
        E 481 82 40 64
        E 0 92 3c 64
        E 0 93 40 5a
        E 0 9f 30 5a
        E 239 83 40 64
        E 1 8f 30 64
        E 0 93 41 5a
        E 0 9f 32 5a
        E 239 82 3c 64
        E 0 83 41 64
        E 0 8f 32 64
        E 0 93 43 5a
        E 0 9f 34 5a
        E 481 83 43 64
        E 0 8f 34 64
        E 0 92 4f 64
        E 0 93 40 5a
        E 0 9f 30 5a
        E 480 82 4f 64
        E 0 83 40 64
        E 0 8f 30 64
        E 0 92 54 64
        E 239 82 54 64
        E 0 92 4f 64
        E 240 82 4f 64
        E 0 92 4c 64
        E 0 93 40 5a
        E 0 9f 30 5a
        E 240 82 4c 64
        E 0 92 48 64
        E 240 82 48 64
        E 0 83 40 64
        E 0 8f 30 64
        E 0 92 3e 64
        E 0 93 3e 5a
        E 0 9f 2f 5a
        E 481 82 3e 64
        E 0 83 3e 64
        E 0 8f 2f 64
        E 0 92 41 64
        E 0 93 3b 5a
        E 0 9f 2b 5a
        E 479 82 41 64
        E 1 83 3b 64
        E 0 8f 2b 64
        E 0 92 40 64
        E 479 82 40 64
        E 0 92 3c 64
        E 0 93 40 5a
        E 0 9f 30 5a
        E 240 83 40 64
        E 0 8f 30 64
        E 0 93 41 5a
        E 0 9f 32 5a
        E 240 82 3c 64
        E 0 83 41 64
        E 0 8f 32 64
        E 0 93 43 5a
        E 0 9f 34 5a
        E 480 83 43 64
        E 0 8f 34 64
        E 0 92 4c 64
        E 0 93 40 5a
        E 0 9f 30 5a
        E 481 82 4c 64
        E 0 83 40 64
        E 0 8f 30 64
        E 0 92 4d 64
        E 0 93 48 5a
        E 0 9f 39 5a
        E 156 92 51 64
        E 83 82 4d 64
        E 79 92 4d 64
        E 80 82 51 64
        E 82 83 48 64
        E 0 8f 39 64
        E 0 92 4c 64
        E 0 93 47 5a
        E 0 9f 37 5a
        E 77 82 4d 64
        E 80 92 4f 64
        E 82 82 4c 64
        E 79 92 4c 64
        E 78 82 4f 64
        E 83 83 47 64
        E 0 8f 37 64
        E 0 92 4a 64
        E 0 93 45 5a
        E 1 9f 35 5a
        E 77 82 4c 64
        E 80 92 4d 64
        E 83 82 4a 64
        E 78 92 4a 64
        E 78 82 4d 64
        E 84 83 45 64
        E 0 8f 35 64
        E 0 92 48 64
        E 0 93 43 5a
        E 0 9f 34 5a
        E 79 82 4a 64
        E 79 92 4c 64
        E 81 82 48 64
        E 79 92 48 64
        E 78 82 4c 64
        E 85 83 43 64
        E 0 8f 34 64
        E 0 92 47 64
        E 0 93 41 5a
        E 0 9f 32 5a
        E 78 82 48 64
        E 79 92 4a 64
        E 82 82 47 64
        E 78 92 47 64
        E 78 82 4a 64
        E 83 83 41 64
        E 0 8f 32 64
        E 0 92 45 64
        E 0 93 40 5a
        E 0 9f 30 5a
        E 78 82 47 64
        E 80 92 48 64
        E 83 82 45 64
        E 78 92 45 64
        E 79 82 48 64
        E 82 83 40 64
        E 0 8f 30 64
        E 0 92 43 64
        E 0 93 3e 5a
        E 0 9f 2f 5a
        E 79 82 45 64
        E 79 92 47 64
        E 82 82 43 64
        E 81 92 43 64
        E 77 82 47 64
        E 83 83 3e 64
        E 0 8f 2f 64
        E 0 92 41 64
        E 0 93 3b 5a
        E 0 9f 2b 5a
        E 78 82 43 64
        E 79 92 45 64
        E 82 82 41 64
        E 79 92 41 64
        E 79 82 45 64
        E 82 83 3b 64
        E 0 8f 2b 64
        E 0 92 40 64
        E 0 93 37 5a
        E 0 9f 30 5a
        E 79 82 41 64
        E 402 82 40 64
        E 1 83 37 64
        E 0 8f 30 64
        E 0 92 48 64
        E 0 93 41 5a
        E 0 9f 32 5a
        E 480 82 48 64
        E 0 83 41 64
        E 0 8f 32 64
        E 0 92 48 64
        E 0 93 43 5a
        E 0 9f 34 5a
        E 480 83 43 64
        E 0 8f 34 64
        E 0 93 41 5a
        E 0 9f 32 5a
        E 239 82 48 64
        E 0 92 47 64
        E 117 82 47 64
        E 1 92 48 64
        E 121 82 48 64
        E 0 83 41 64
        E 0 8f 32 64
        E 0 92 4f 64
        E 0 93 40 5a
        E 0 9f 30 5a
        E 480 83 40 64
        E 0 8f 30 64
        E 0 93 41 5a
        E 1 9f 32 5a
        E 480 82 4f 64
        E 0 83 41 64
        E 0 8f 32 64
        E 0 93 43 5a
        E 0 9f 34 5a
        E 158 92 4d 64
        E 159 92 4c 64
        E 81 82 4d 64
        E 82 83 43 64
        E 0 8f 34 64
        E 0 92 4a 64
        E 0 93 40 5a
        E 0 9f 30 5a
        E 77 82 4c 64
        E 81 92 48 64
        E 81 82 4a 64
        E 79 92 46 66
        E 79 82 48 64
        E 82 83 40 64
        E 0 8f 30 64
        E 0 92 45 64
        E 0 93 3c 5a
        E 0 9f 35 5a
        E 78 82 46 66
        E 403 82 45 64
        E 0 83 3c 64
        E 0 8f 35 64
        E 1 92 4a 64
        E 0 93 47 5a
        E 0 9f 37 5a
        E 479 82 4a 64
        E 0 83 47 64
        E 0 8f 37 64
        E 0 92 4a 64
        E 1 93 45 5a
        E 0 9f 36 5a
        E 479 83 45 64
        E 0 8f 36 64
        E 0 93 43 5a
        E 0 9f 34 5a
        E 240 82 4a 64
        E 1 92 49 64
        E 118 82 49 64
        E 0 92 4a 64
        E 121 82 4a 64
        E 0 83 43 64
        E 0 8f 34 64
        E 0 92 51 64
        E 0 93 42 5a
        E 0 9f 32 5a
        E 481 83 42 64
        E 0 8f 32 64
        E 0 93 43 5a
        E 0 9f 34 5a
        E 479 82 51 64
        E 0 83 43 64
        E 0 8f 34 64
        E 0 93 45 5a
        E 0 9f 36 5a
        E 157 92 4f 64
        E 161 92 4e 64
        E 79 82 4f 64
        E 82 83 45 64
        E 0 8f 36 64
        E 0 92 4c 64
        E 1 93 42 5a
        E 0 9f 32 5a
        E 77 82 4e 64
        E 80 92 4a 64
        E 83 82 4c 64
        E 78 92 48 64
        E 80 82 4a 64
        E 82 83 42 64
        E 0 8f 32 64
        E 0 92 37 64
        E 0 93 3e 5a
        E 0 9f 37 5a
        E 79 82 48 64
        E 161 82 37 64
        E 0 92 3e 64
        E 240 82 3e 64
        E 0 8f 37 64
        E 0 92 47 64
        E 0 9f 39 5a
        E 482 82 47 64
        E 0 8f 39 64
        E 0 92 47 64
        E 0 9f 37 5a
        E 478 83 3e 64
        E 0 8f 37 64
        E 1 93 3e 5a
        E 0 9f 35 5a
        E 239 82 47 64
        E 0 92 45 64
        E 118 82 45 64
        E 0 92 47 64
        E 121 82 47 64
        E 0 83 3e 64
        E 0 8f 35 64
        E 1 92 37 64
        E 0 93 3c 5a
        E 0 9f 34 5a
        E 241 82 37 64
        E 0 92 40 64
        E 238 82 40 64
        E 0 8f 34 64
        E 0 92 48 64
        E 0 9f 32 5a
        E 481 82 48 64
        E 0 83 3c 64
        E 0 8f 32 64
        E 0 92 48 64
        E 0 93 43 5a
        E 0 9f 34 5a
        E 480 83 43 64
        E 0 8f 34 64
        E 0 93 45 5a
        E 0 9f 36 5a
        E 239 82 48 64
        E 0 92 47 64
        E 120 82 47 64
        E 0 92 48 64
        E 120 82 48 64
        E 1 83 45 64
        E 1 8f 36 64
        E 0 92 37 64
        E 1 93 3e 5a
        E 0 9f 37 5a
        E 237 82 37 64
        E 0 92 41 64
        E 241 82 41 64
        E 0 8f 37 64
        E 0 92 4a 64
        E 0 9f 39 5a
        E 479 82 4a 64
        E 0 83 3e 64
        E 1 8f 39 64
        E 0 92 4a 64
        E 0 93 47 5a
        E 0 9f 3b 5a
        E 481 8f 3b 64
        E 0 9f 37 5a
        E 239 82 4a 64
        E 0 92 48 64
        E 118 82 48 64
        E 0 92 4a 64
        E 121 82 4a 64
        E 0 83 47 64
        E 0 8f 37 64
        E 0 92 4c 64
        E 0 93 43 5a
        E 0 9f 3c 5a
        E 240 82 4c 64
        E 0 92 4d 64
        E 240 82 4d 64
        E 0 83 43 64
        E 1 8f 3c 64
        E 0 92 4f 64
        E 240 82 4f 64
        E 0 92 4a 64
        E 239 82 4a 64
        E 1 92 4c 64
        E 0 93 43 5a
        E 0 9f 30 5a
        E 239 82 4c 64
        E 0 92 47 64
        E 241 82 47 64
        E 0 83 43 64
        E 0 8f 30 64
        E 0 92 48 64
        E 239 82 48 64
        E 0 92 40 64
        E 241 82 40 64
        E 0 92 41 64
        E 0 93 3b 5a
        E 0 9f 2b 5a
        E 480 82 41 64
        E 0 92 4d 64
        E 478 82 4d 64
        E 1 92 4f 64
        E 481 82 4f 64
        E 0 92 51 64
        E 480 82 51 64
        E 0 83 3b 64
        E 0 8f 2b 64
        E 0 92 47 64
        E 0 93 3b 5a
        E 0 9f 2b 5a
        E 156 92 48 64
        E 83 82 47 64
        E 78 92 4a 64
        E 79 82 48 64
        E 83 83 3b 64
        E 0 8f 2b 64
        E 0 92 41 64
        E 0 93 3b 5a
        E 0 9f 2b 5a
        E 79 82 4a 64
        E 79 92 43 64
        E 83 82 41 64
        E 78 92 45 64
        E 78 82 43 64
        E 84 83 3b 64
        E 0 8f 2b 64
        E 0 92 37 64
        E 0 93 37 5a
        E 1 9f 37 5a
        E 77 82 45 64
        E 401 82 37 64
        E 1 83 37 64
        E 0 8f 37 64
        E 0 92 47 64
        E 0 93 43 5a
        E 0 9f 2b 5a
        E 479 82 47 64
        E 0 83 43 64
        E 0 8f 2b 64
        E 0 92 48 64
        E 0 93 40 5a
        E 0 9f 30 5a
        E 961 82 48 64
        E 0 83 40 64
        E 0 8f 30 64
        E 481 92 43 64
        E 0 93 43 5a
        E 0 97 43 64
        E 0 9f 37 5a
        E 478 82 43 64
        E 0 83 43 64
        E 0 87 43 64
        E 0 8f 37 64
        E 0 92 48 64
        E 0 93 48 5a
        E 0 97 48 64
        E 0 9f 3c 5a
        E 480 82 48 64
        E 0 83 48 64
        E 0 87 48 64
        E 0 8f 3c 64
        E 0 92 40 64
        E 0 93 40 5a
        E 0 97 40 64
        E 0 9f 34 5a
        E 480 82 40 64
        E 0 83 40 64
        E 0 87 40 64
        E 0 8f 34 64
        E 0 92 41 64
        E 0 93 41 5a
        E 0 97 41 64
        E 0 9f 35 5a
        E 479 82 41 64
        E 0 83 41 64
        E 0 87 41 64
        E 0 8f 35 64
        E 0 92 43 64
        E 0 93 43 5a
        E 1 97 43 64
        E 0 9f 37 5a
        E 480 82 43 64
        E 0 83 43 64
        E 0 87 43 64
        E 1 8f 37 64
        E 0 92 40 64
        E 0 93 40 5a
        E 0 97 40 64
        E 0 9f 34 5a
        E 479 82 40 64
        E 0 83 40 64
        E 0 87 40 64
        E 0 8f 34 64
        E 0 92 3c 64
        E 0 93 3c 5a
        E 0 97 3c 64
        E 0 9f 30 5a
        E 240 8f 30 64
        E 1 9f 32 5a
        E 239 82 3c 64
        E 1 83 3c 64
        E 0 87 3c 64
        E 0 8f 32 64
        E 0 9f 34 5a
        E 479 8f 34 64
        E 0 92 43 64
        E 0 93 40 5a
        E 0 97 43 64
        E 0 9f 30 5a
        E 481 82 43 64
        E 0 83 40 64
        E 0 87 43 64
        E 0 8f 30 64
        E 0 92 37 64
        E 0 93 40 5a
        E 0 97 48 64
        E 0 9f 30 5a
        E 240 82 37 64
        E 0 92 40 64
        E 241 82 40 64
        E 0 87 48 64
        E 0 8f 30 64
        E 0 92 48 64
        E 0 97 48 64
        E 0 9f 32 5a
        E 478 82 48 64
        E 0 87 48 64
        E 0 8f 32 64
        E 0 92 48 64
        E 0 97 48 64
        E 0 9f 34 5a
        E 480 83 40 64
        E 0 87 48 64
        E 0 8f 34 64
        E 0 93 40 5a
        E 0 97 47 64
        E 0 9f 30 5a
        E 240 82 48 64
        E 0 87 47 64
        E 0 92 47 64
        E 0 97 48 64
        E 119 82 47 64
        E 0 92 48 64
        E 121 82 48 64
        E 0 83 40 64
        E 0 87 48 64
        E 0 8f 30 64
        E 0 92 37 64
        E 0 93 3e 5a
        E 0 97 4a 64
        E 0 9f 2b 5a
        E 241 82 37 64
        E 0 92 3e 64
        E 241 82 3e 64
        E 0 87 4a 64
        E 0 8f 2b 64
        E 0 92 47 64
        E 0 97 43 64
        E 0 9f 2d 5a
        E 479 82 47 64
        E 0 87 43 64
        E 0 8f 2d 64
        E 0 92 47 64
        E 0 9f 2f 5a
        E 479 83 3e 64
        E 0 8f 2f 64
        E 0 93 3e 5a
        E 0 97 43 64
        E 0 9f 2d 5a
        E 241 82 47 64
        E 0 92 45 64
        E 120 82 45 64
        E 0 92 47 64
        E 119 82 47 64
        E 0 83 3e 64
        E 0 87 43 64
        E 0 8f 2d 64
        E 0 92 37 64
        E 0 93 3b 5a
        E 0 97 4a 64
        E 0 9f 2b 5a
        E 240 82 37 64
        E 0 92 41 64
        E 239 82 41 64
        E 0 87 4a 64
        E 0 8f 2b 64
        E 1 92 4a 64
        E 0 97 4a 64
        E 0 9f 2d 5a
        E 482 82 4a 64
        E 0 87 4a 64
        E 0 8f 2d 64
        E 0 92 4a 64
        E 0 97 4a 64
        E 0 9f 2f 5a
        E 480 83 3b 64
        E 0 87 4a 64
        E 0 8f 2f 64
        E 0 93 3b 5a
        E 0 97 48 64
        E 0 9f 2b 5a
        E 239 82 4a 64
        E 0 87 48 64
        E 0 92 48 64
        E 0 97 4a 64
        E 118 82 48 64
        E 0 92 4a 64
        E 122 82 4a 64
        E 0 83 3b 64
        E 0 87 4a 64
        E 0 8f 2b 64
        E 0 92 3c 64
        E 0 93 37 5a
        E 0 97 4c 64
        E 0 9f 30 5a
        E 239 82 3c 64
        E 0 87 4c 64
        E 0 92 43 64
        E 0 97 4a 64
        E 241 82 43 64
        E 0 87 4a 64
        E 0 8f 30 64
        E 0 92 4c 64
        E 0 97 48 64
        E 0 9f 32 5a
        E 479 82 4c 64
        E 0 87 48 64
        E 0 8f 32 64
        E 0 92 4c 64
        E 0 9f 34 5a
        E 479 83 37 64
        E 0 8f 34 64
        E 1 93 43 5a
        E 0 97 43 64
        E 0 9f 30 5a
        E 241 82 4c 64
        E 0 92 4a 64
        E 120 82 4a 64
        E 0 92 4c 64
        E 120 82 4c 64
        E 0 83 43 64
        E 0 87 43 64
        E 0 8f 30 64
        E 0 92 4c 64
        E 0 93 43 5a
        E 0 97 4c 64
        E 0 9f 30 5a
        E 239 82 4c 64
        E 0 87 4c 64
        E 0 92 4a 64
        E 0 97 4a 64
        E 239 82 4a 64
        E 0 87 4a 64
        E 0 8f 30 64
        E 0 92 48 64
        E 0 97 48 64
        E 0 9f 2f 5a
        E 243 82 48 64
        E 0 87 48 64
        E 0 92 47 64
        E 0 97 47 64
        E 239 82 47 64
        E 0 87 47 64
        E 0 8f 2f 64
        E 0 92 45 64
        E 0 97 45 64
        E 0 9f 30 5a
        E 480 82 45 64
        E 0 83 43 64
        E 0 87 45 64
        E 0 8f 30 64
        E 0 92 43 64
        E 0 93 40 5a
        E 0 97 43 64
        E 0 9f 31 5a
        E 479 82 43 64
        E 0 83 40 64
        E 0 87 43 64
        E 0 8f 31 64
        E 0 92 43 64
        E 0 93 39 5a
        E 0 97 43 64
        E 0 9f 32 5a
        E 481 82 43 64
        E 0 83 39 64
        E 0 87 43 64
        E 0 8f 32 64
        E 1 92 42 64
        E 0 93 43 5a
        E 0 97 42 64
        E 0 9f 34 5a
        E 478 82 42 64
        E 0 83 43 64
        E 0 87 42 64
        E 0 8f 34 64
        E 0 93 45 5a
        E 0 9f 36 5a
        E 480 83 45 64
        E 0 8f 36 64
        E 0 92 4a 64
        E 0 93 42 5a
        E 0 97 4a 64
        E 0 9f 32 5a
        E 480 82 4a 64
        E 0 83 42 64
        E 0 87 4a 64
        E 0 8f 32 64
        E 1 92 48 64
        E 0 93 45 5a
        E 0 97 48 64
        E 0 9f 39 5a
        E 157 92 4c 64
        E 83 82 48 64
        E 80 92 48 64
        E 78 82 4c 64
        E 83 83 45 64
        E 0 87 48 64
        E 0 8f 39 64
        E 0 92 47 64
        E 0 93 43 5a
        E 0 97 47 64
        E 0 9f 37 5a
        E 77 82 48 64
        E 79 92 4a 64
        E 83 82 47 64
        E 77 92 47 64
        E 81 82 4a 64
        E 82 83 43 64
        E 0 87 47 64
        E 0 8f 37 64
        E 2 92 45 64
        E 0 93 42 5a
        E 0 97 45 64
        E 0 9f 36 5a
        E 76 82 47 64
        E 78 92 48 64
        E 84 82 45 64
        E 78 92 45 64
        E 78 82 48 64
        E 83 83 42 64
        E 0 87 45 64
        E 0 8f 36 64
        E 0 92 43 64
        E 0 93 40 5a
        E 0 97 43 64
        E 1 9f 34 5a
        E 79 82 45 64
        E 78 92 47 64
        E 82 82 43 64
        E 79 92 43 64
        E 78 82 47 64
        E 83 83 40 64
        E 0 87 43 64
        E 0 8f 34 64
        E 0 92 42 64
        E 0 93 3e 5a
        E 0 97 42 64
        E 0 9f 32 5a
        E 80 82 43 64
        E 78 92 45 64
        E 83 82 42 64
        E 80 92 42 64
        E 76 82 45 64
        E 83 83 3e 64
        E 0 87 42 64
        E 0 8f 32 64
        E 0 92 40 64
        E 0 93 3c 5a
        E 0 97 40 64
        E 0 9f 30 5a
        E 79 82 42 64
        E 80 92 43 64
        E 82 82 40 64
        E 79 92 40 64
        E 77 82 43 64
        E 83 83 3c 64
        E 0 87 40 64
        E 0 8f 30 64
        E 0 92 3e 64
        E 0 93 3b 5a
        E 0 97 3e 64
        E 0 9f 2f 5a
        E 80 82 40 64
        E 77 92 42 64
        E 83 82 3e 64
        E 79 92 3e 64
        E 78 82 42 64
        E 82 83 3b 64
        E 0 87 3e 64
        E 0 8f 2f 64
        E 0 92 3c 64
        E 1 93 39 5a
        E 0 97 3c 64
        E 0 9f 2d 5a
        E 79 82 3e 64
        E 79 92 40 64
        E 82 82 3c 64
        E 78 92 3c 64
        E 81 82 40 64
        E 81 83 39 64
        E 0 87 3c 64
        E 0 8f 2d 64
        E 0 92 3b 64
        E 0 93 37 5a
        E 0 97 3b 64
        E 0 9f 2b 5a
        E 79 82 3c 64
        E 400 82 3b 64
        E 0 83 37 64
        E 0 87 3b 64
        E 0 8f 2b 64
        E 0 92 37 64
        E 1 93 43 5a
        E 0 97 37 64
        E 0 9f 37 5a
        E 481 82 37 64
        E 0 83 43 64
        E 0 87 37 64
        E 0 8f 37 64
        E 0 92 43 64
        E 0 93 47 5a
        E 1 97 43 64
        E 0 9f 3b 5a
        E 480 83 47 64
        E 0 8f 3b 64
        E 0 93 43 5a
        E 0 9f 37 5a
        E 478 82 43 64
        E 0 83 43 64
        E 0 87 43 64
        E 0 8f 37 64
        E 0 92 43 64
        E 0 93 40 5a
        E 0 97 43 64
        E 0 9f 34 5a
        E 480 82 43 64
        E 0 83 40 64
        E 0 87 43 64
        E 0 8f 34 64
        E 0 92 45 64
        E 0 93 43 5a
        E 0 97 45 64
        E 0 9f 37 5a
        E 241 82 45 64
        E 0 87 45 64
        E 0 92 47 64
        E 0 97 47 64
        E 239 82 47 64
        E 1 83 43 64
        E 0 87 47 64
        E 0 8f 37 64
        E 0 92 48 64
        E 0 93 45 5a
        E 0 97 48 64
        E 0 9f 39 5a
        E 479 82 48 64
        E 0 83 45 64
        E 0 87 48 64
        E 0 8f 39 64
        E 0 92 47 64
        E 0 93 3e 5a
        E 0 97 47 64
        E 0 9f 32 5a
        E 242 82 47 64
        E 0 87 47 64
        E 0 92 45 64
        E 0 97 45 64
        E 238 82 45 64
        E 0 83 3e 64
        E 0 87 45 64
        E 0 8f 32 64
        E 0 92 47 64
        E 0 93 43 5a
        E 0 97 47 64
        E 0 9f 37 5a
        E 481 82 47 64
        E 0 83 43 64
        E 0 87 47 64
        E 0 8f 37 64
        E 0 92 45 64
        E 0 93 45 5a
        E 0 97 45 64
        E 0 9f 39 5a
        E 479 82 45 64
        E 0 83 45 64
        E 0 87 45 64
        E 0 8f 39 64
        E 0 92 43 64
        E 0 93 47 5a
        E 0 97 43 64
        E 0 9f 3b 5a
        E 481 83 47 64
        E 0 8f 3b 64
        E 0 93 43 5a
        E 0 9f 37 5a
        E 480 82 43 64
        E 0 83 43 64
        E 0 87 43 64
        E 0 8f 37 64
        E 0 92 43 64
        E 0 93 40 5a
        E 0 97 43 64
        E 0 9f 34 5a
        E 480 82 43 64
        E 0 83 40 64
        E 0 87 43 64
        E 0 8f 34 64
        E 0 92 45 64
        E 0 93 43 5a
        E 0 97 45 64
        E 0 9f 37 5a
        E 241 82 45 64
        E 0 87 45 64
        E 0 92 47 64
        E 0 97 47 64
        E 238 82 47 64
        E 0 83 43 64
        E 0 87 47 64
        E 0 8f 37 64
        E 0 92 48 64
        E 0 93 45 5a
        E 0 97 48 64
        E 0 9f 39 5a
        E 480 82 48 64
        E 0 83 45 64
        E 0 87 48 64
        E 0 8f 39 64
        E 0 92 47 64
        E 0 93 3e 5a
        E 0 97 47 64
        E 0 9f 32 5a
        E 241 82 47 64
        E 1 87 47 64
        E 0 92 45 64
        E 0 97 45 64
        E 239 82 45 64
        E 0 83 3e 64
        E 0 87 45 64
        E 0 8f 32 64
        E 0 92 47 64
        E 0 93 43 5a
        E 0 97 47 64
        E 0 9f 37 5a
        E 480 82 47 64
        E 0 83 43 64
        E 0 87 47 64
        E 0 8f 37 64
        E 0 92 43 64
        E 0 93 45 5a
        E 0 97 43 64
        E 1 9f 39 5a
        E 480 82 43 64
        E 0 83 45 64
        E 1 87 43 64
        E 0 8f 39 64
        E 1 92 4f 64
        E 0 93 47 5a
        E 0 97 4f 64
        E 0 9f 3b 5a
        E 477 83 47 64
        E 0 8f 3b 64
        E 0 93 43 5a
        E 0 9f 37 5a
        E 481 82 4f 64
        E 0 83 43 64
        E 0 87 4f 64
        E 0 8f 37 64
        E 0 92 4f 64
        E 0 93 45 5a
        E 0 97 4f 64
        E 0 9f 39 5a
        E 479 82 4f 64
        E 0 83 45 64
        E 0 87 4f 64
        E 0 8f 39 64
        E 0 92 4e 64
        E 0 93 43 5a
        E 0 97 4e 64
        E 0 9f 37 5a
        E 240 82 4e 64
        E 0 87 4e 64
        E 0 92 4c 64
        E 0 97 4c 64
        E 240 82 4c 64
        E 0 83 43 64
        E 0 87 4c 64
        E 0 8f 37 64
        E 0 92 4a 64
        E 0 93 42 5a
        E 0 97 4a 64
        E 0 9f 36 5a
        E 480 82 4a 64
        E 0 83 42 64
        E 0 87 4a 64
        E 0 8f 36 64
        E 0 92 49 64
        E 0 93 40 5a
        E 0 97 49 64
        E 0 9f 34 5a
        E 480 82 49 64
        E 0 83 40 64
        E 0 87 49 64
        E 0 8f 34 64
        E 0 92 4a 64
        E 0 93 3e 5a
        E 0 97 4a 64
        E 0 9f 32 5a
        E 480 83 3e 64
        E 0 8f 32 64
        E 0 93 40 5a
        E 0 9f 34 5a
        E 480 82 4a 64
        E 0 83 40 64
        E 0 87 4a 64
        E 0 8f 34 64
        E 0 92 45 64
        E 0 93 42 5a
        E 0 97 45 64
        E 0 9f 36 5a
        E 479 83 42 64
        E 0 8f 36 64
        E 0 93 3e 5a
        E 0 9f 32 5a
        E 239 82 45 64
        E 0 87 45 64
        E 1 92 47 64
        E 0 97 47 64
        E 121 82 47 64
        E 0 87 47 64
        E 0 92 48 64
        E 0 97 48 64
        E 120 82 48 64
        E 0 83 3e 64
        E 0 87 48 64
        E 0 8f 32 64
        E 0 92 47 64
        E 0 93 37 5a
        E 1 97 47 64
        E 0 9f 2b 5a
        E 478 82 47 64
        E 0 83 37 64
        E 0 87 47 64
        E 0 8f 2b 64
        E 0 92 45 64
        E 0 93 43 5a
        E 0 97 45 64
        E 0 9f 37 5a
        E 240 82 45 64
        E 0 87 45 64
        E 0 92 43 64
        E 0 97 43 64
        E 240 82 43 64
        E 0 83 43 64
        E 0 87 43 64
        E 0 8f 37 64
        E 2 92 45 64
        E 0 93 3c 5a
        E 0 97 45 64
        E 0 9f 30 5a
        E 478 82 45 64
        E 0 83 3c 64
        E 0 87 45 64
        E 0 8f 30 64
        E 0 92 43 64
        E 0 93 3e 5a
        E 0 97 43 64
        E 0 9f 32 5a
        E 241 82 43 64
        E 0 87 43 64
        E 0 92 42 64
        E 1 97 42 64
        E 237 82 42 64
        E 0 83 3e 64
        E 0 87 42 64
        E 0 8f 32 64
        E 1 92 43 64
        E 0 93 37 5a
        E 0 97 43 64
        E 0 9f 2b 5a
        E 480 83 37 64
        E 0 8f 2b 64
        E 0 93 43 5a
        E 0 9f 37 5a
        E 480 82 43 64
        E 0 83 43 64
        E 0 87 43 64
        E 0 8f 37 64
        E 0 92 45 64
        E 0 93 3e 5a
        E 0 97 45 64
        E 0 9f 32 5a
        E 481 83 3e 64
        E 1 8f 32 64
        E 0 93 32 5a
        E 0 9f 26 5a
        E 238 82 45 64
        E 0 87 45 64
        E 0 92 47 64
        E 0 97 47 64
        E 121 82 47 64
        E 0 87 47 64
        E 0 92 48 64
        E 0 97 48 64
        E 120 82 48 64
        E 0 83 32 64
        E 0 87 48 64
        E 0 8f 26 64
        E 0 92 47 64
        E 1 93 37 5a
        E 0 97 47 64
        E 0 9f 2b 5a
        E 479 82 47 64
        E 0 83 37 64
        E 0 87 47 64
        E 0 8f 2b 64
        E 0 92 45 64
        E 1 93 43 5a
        E 0 97 45 64
        E 0 9f 37 5a
        E 238 82 45 64
        E 0 87 45 64
        E 0 92 43 64
        E 0 97 43 64
        E 241 82 43 64
        E 0 83 43 64
        E 0 87 43 64
        E 0 8f 37 64
        E 0 92 45 64
        E 0 93 3c 5a
        E 0 97 45 64
        E 0 9f 30 5a
        E 481 82 45 64
        E 0 83 3c 64
        E 0 87 45 64
        E 0 8f 30 64
        E 0 92 43 64
        E 0 93 3e 5a
        E 0 97 43 64
        E 0 9f 32 5a
        E 240 82 43 64
        E 0 87 43 64
        E 0 92 42 64
        E 0 97 42 64
        E 239 82 42 64
        E 0 83 3e 64
        E 0 87 42 64
        E 0 8f 32 64
        E 0 92 4f 64
        E 0 93 3e 5a
        E 0 97 43 64
        E 0 9f 2b 5a
        E 239 82 4f 64
        E 0 92 4a 64
        E 240 82 4a 64
        E 0 83 3e 64
        E 0 8f 2b 64
        E 0 92 47 64
        E 0 93 3e 5a
        E 0 9f 37 5a
        E 240 82 47 64
        E 0 92 43 64
        E 240 82 43 64
        E 0 83 3e 64
        E 0 87 43 64
        E 0 8f 37 64
        E 0 92 3e 64
        E 0 93 3e 5a
        E 1 9f 3e 5a
        E 480 82 3e 64
        E 0 83 3e 64
        E 0 8f 3e 64
        E 0 92 48 64
        E 0 93 3e 5a
        E 0 9f 32 5a
        E 479 82 48 64
        E 0 83 3e 64
        E 0 8f 32 64
        E 0 92 47 64
        E 0 93 3e 5a
        E 481 82 47 64
        E 0 83 3e 64
        E 0 92 43 64
        E 0 93 3b 5a
        E 0 9f 37 5a
        E 239 8f 37 64
        E 0 9f 39 5a
        E 241 82 43 64
        E 0 83 3b 64
        E 0 8f 39 64
        E 0 9f 3b 5a
        E 480 8f 3b 64
        E 0 92 4a 64
        E 0 93 43 5a
        E 0 9f 37 5a
        E 479 82 4a 64
        E 0 83 43 64
        E 0 8f 37 64
        E 0 92 4f 64
        E 0 93 47 5a
        E 242 82 4f 64
        E 0 92 4a 64
        E 240 82 4a 64
        E 0 83 47 64
        E 0 92 47 64
        E 0 93 3e 5a
        E 0 9f 2b 5a
        E 238 82 47 64
        E 0 92 43 64
        E 240 82 43 64
        E 0 83 3e 64
        E 0 8f 2b 64
        E 0 92 3e 64
        E 0 93 3e 5a
        E 0 9f 32 5a
        E 480 82 3e 64
        E 0 83 3e 64
        E 0 8f 32 64
        E 0 92 54 64
        E 0 93 3e 5a
        E 1 9f 26 5a
        E 478 82 54 64
        E 1 83 3e 64
        E 0 8f 26 64
        E 0 92 53 64
        E 0 93 43 5a
        E 0 9f 37 5a
        E 159 92 56 64
        E 82 82 53 64
        E 78 92 53 64
        E 80 82 56 64
        E 83 83 43 64
        E 0 8f 37 64
        E 0 92 51 64
        E 0 93 42 5a
        E 0 9f 36 5a
        E 77 82 53 64
        E 79 92 54 64
        E 83 82 51 64
        E 77 92 51 64
        E 80 82 54 64
        E 83 83 42 64
        E 0 8f 36 64
        E 0 92 4f 64
        E 2 93 40 5a
        E 0 9f 34 5a
        E 77 82 51 64
        E 77 92 53 64
        E 83 82 4f 64
        E 80 92 4f 64
        E 78 82 53 64
        E 82 83 40 64
        E 0 8f 34 64
        E 0 92 4e 64
        E 0 93 3e 5a
        E 1 9f 32 5a
        E 79 82 4f 64
        E 79 92 51 64
        E 81 82 4e 64
        E 79 92 4e 64
        E 78 82 51 64
        E 83 83 3e 64
        E 0 8f 32 64
        E 0 92 4c 64
        E 0 93 3c 5a
        E 0 9f 30 5a
        E 80 82 4e 64
        E 77 92 4f 64
        E 84 82 4c 64
        E 80 92 4c 64
        E 76 82 4f 64
        E 85 83 3c 64
        E 0 8f 30 64
        E 0 92 4a 64
        E 0 93 3b 5a
        E 0 9f 2f 5a
        E 76 82 4c 64
        E 79 92 4e 64
        E 84 82 4a 64
        E 79 92 4a 64
        E 78 82 4e 64
        E 82 83 3b 64
        E 0 8f 2f 64
        E 0 92 48 64
        E 0 93 39 5a
        E 0 9f 2d 5a
        E 80 82 4a 64
        E 77 92 4c 64
        E 82 82 48 64
        E 79 92 48 64
        E 79 82 4c 64
        E 83 83 39 64
        E 0 8f 2d 64
        E 0 92 47 64
        E 0 93 37 5a
        E 0 9f 2b 5a
        E 81 82 48 64
        E 77 92 4a 64
        E 82 82 47 64
        E 80 92 47 64
        E 76 82 4a 64
        E 85 83 37 64
        E 0 8f 2b 64
        E 0 92 45 64
        E 0 93 3e 5a
        E 0 9f 32 5a
        E 78 82 47 64
        E 161 82 45 64
        E 0 92 4e 64
        E 240 82 4e 64
        E 0 83 3e 64
        E 0 8f 32 64
        E 0 92 4f 64
        E 0 93 3c 5a
        E 0 9f 30 5a
        E 242 82 4f 64
        E 0 92 51 64
        E 239 82 51 64
        E 0 83 3c 64
        E 0 8f 30 64
        E 0 92 4a 64
        E 0 93 3e 5a
        E 0 9f 32 5a
        E 479 82 4a 64
        E 0 83 3e 64
        E 0 8f 32 64
        E 0 92 4e 64
        E 0 93 32 5a
        E 0 97 4a 64
        E 0 9f 26 5a
        E 480 82 4e 64
        E 0 83 32 64
        E 0 87 4a 64
        E 0 8f 26 64
        E 0 92 4f 64
        E 0 93 43 5a
        E 0 97 4f 64
        E 0 9f 37 5a
        E 480 82 4f 64
        E 0 83 43 64
        E 0 87 4f 64
        E 0 8f 37 64
        E 0 92 47 64
        E 0 93 47 5a
        E 0 97 47 64
        E 0 9f 3b 5a
        E 480 82 47 64
        E 0 83 47 64
        E 0 87 47 64
        E 0 8f 3b 64
        E 1 92 48 64
        E 0 93 48 5a
        E 0 97 48 64
        E 0 9f 3c 5a
        E 480 82 48 64
        E 0 83 48 64
        E 0 87 48 64
        E 0 8f 3c 64
        E 1 92 4a 64
        E 0 93 4a 5a
        E 0 97 4a 64
        E 0 9f 3e 5a
        E 480 82 4a 64
        E 0 83 4a 64
        E 0 87 4a 64
        E 0 8f 3e 64
        E 0 92 47 64
        E 0 93 47 5a
        E 0 97 47 64
        E 0 9f 3b 5a
        E 478 82 47 64
        E 0 83 47 64
        E 0 87 47 64
        E 0 8f 3b 64
        E 0 92 43 64
        E 0 93 3b 5a
        E 0 97 43 64
        E 0 9f 37 5a
        E 240 83 3b 64
        E 0 8f 37 64
        E 0 93 3c 5a
        E 0 9f 39 5a
        E 240 82 43 64
        E 0 83 3c 64
        E 0 87 43 64
        E 0 8f 39 64
        E 0 93 3e 5a
        E 0 9f 3b 5a
        E 481 83 3e 64
        E 0 8f 3b 64
        E 1 92 4f 64
        E 0 93 3b 5a
        E 0 97 3e 64
        E 0 9f 37 5a
        E 478 82 4f 64
        E 0 83 3b 64
        E 0 87 3e 64
        E 0 8f 37 64
        E 0 92 3e 64
        E 0 93 3e 5a
        E 0 97 43 64
        E 240 82 3e 64
        E 0 92 47 64
        E 241 82 47 64
        E 0 87 43 64
        E 0 92 4f 64
        E 0 97 43 64
        E 0 9f 2b 5a
        E 239 8f 2b 64
        E 0 9f 2d 5a
        E 241 82 4f 64
        E 0 87 43 64
        E 0 8f 2d 64
        E 0 92 4f 64
        E 0 97 43 64
        E 0 9f 2f 5a
        E 480 83 3e 64
        E 0 87 43 64
        E 0 8f 2f 64
        E 0 93 3e 5a
        E 0 97 42 64
        E 0 9f 2b 5a
        E 239 82 4f 64
        E 0 87 42 64
        E 0 92 4e 64
        E 0 97 43 64
        E 118 82 4e 64
        E 1 92 4f 64
        E 121 82 4f 64
        E 0 83 3e 64
        E 0 87 43 64
        E 0 8f 2b 64
        E 0 92 3e 64
        E 0 93 3e 5a
        E 0 97 45 64
        E 241 82 3e 64
        E 0 87 45 64
        E 0 92 45 64
        E 1 97 43 64
        E 239 82 45 64
        E 0 87 43 64
        E 0 92 4e 64
        E 0 97 45 64
        E 0 9f 32 5a
        E 239 8f 32 64
        E 0 9f 34 5a
        E 241 82 4e 64
        E 1 87 45 64
        E 0 8f 34 64
        E 0 92 4e 64
        E 0 9f 36 5a
        E 478 83 3e 64
        E 0 8f 36 64
        E 0 93 3e 5a
        E 0 97 3e 64
        E 0 9f 32 5a
        E 239 82 4e 64
        E 0 92 4c 64
        E 120 82 4c 64
        E 0 92 4e 64
        E 121 82 4e 64
        E 0 83 3e 64
        E 0 87 3e 64
        E 0 8f 32 64
        E 0 92 3e 64
        E 0 93 42 5a
        E 0 97 48 64
        E 241 82 3e 64
        E 0 92 45 64
        E 239 82 45 64
        E 0 87 48 64
        E 0 92 51 64
        E 0 97 48 64
        E 1 9f 32 5a
        E 240 8f 32 64
        E 0 9f 34 5a
        E 239 82 51 64
        E 0 87 48 64
        E 0 8f 34 64
        E 0 92 51 64
        E 0 97 48 64
        E 0 9f 36 5a
        E 482 83 42 64
        E 0 87 48 64
        E 0 8f 36 64
        E 0 93 42 5a
        E 0 97 47 64
        E 0 9f 32 5a
        E 239 82 51 64
        E 1 87 47 64
        E 0 92 4f 64
        E 0 97 45 64
        E 118 82 4f 64
        E 0 92 51 64
        E 120 82 51 64
        E 0 83 42 64
        E 0 87 45 64
        E 0 8f 32 64
        E 0 92 3e 64
        E 0 93 3e 5a
        E 1 97 47 64
        E 241 82 3e 64
        E 0 87 47 64
        E 0 92 47 64
        E 0 97 45 64
        E 238 82 47 64
        E 0 87 45 64
        E 1 92 4f 64
        E 0 97 43 64
        E 0 9f 37 5a
        E 239 8f 37 64
        E 1 9f 39 5a
        E 239 82 4f 64
        E 0 87 43 64
        E 0 8f 39 64
        E 0 92 4f 64
        E 0 9f 3b 5a
        E 480 83 3e 64
        E 0 8f 3b 64
        E 0 93 3e 5a
        E 1 97 43 64
        E 0 9f 37 5a
        E 241 82 4f 64
        E 0 92 4e 64
        E 117 82 4e 64
        E 0 92 4f 64
        E 121 82 4f 64
        E 0 83 3e 64
        E 0 87 43 64
        E 0 8f 37 64
        E 0 92 4d 64
        E 0 93 48 5a
        E 0 97 4d 64
        E 0 9f 39 5a
        E 158 92 51 64
        E 84 82 4d 64
        E 77 92 4d 64
        E 78 82 51 64
        E 83 83 48 64
        E 0 87 4d 64
        E 0 8f 39 64
        E 0 92 4c 64
        E 0 93 47 5a
        E 0 97 4c 64
        E 0 9f 37 5a
        E 79 82 4d 64
        E 78 92 4f 64
        E 83 82 4c 64
        E 79 92 4c 64
        E 80 82 4f 64
        E 81 83 47 64
        E 2 87 4c 64
        E 0 8f 37 64
        E 0 92 4a 64
        E 1 93 45 5a
        E 0 97 4a 64
        E 0 9f 35 5a
        E 76 82 4c 64
        E 80 92 4d 64
        E 82 82 4a 64
        E 79 92 4a 64
        E 79 82 4d 64
        E 83 83 45 64
        E 0 87 4a 64
        E 0 8f 35 64
        E 0 92 48 64
        E 0 93 43 5a
        E 0 97 48 64
        E 0 9f 34 5a
        E 76 82 4a 64
        E 80 92 4c 64
        E 82 82 48 64
        E 78 92 48 64
        E 79 82 4c 64
        E 84 83 43 64
        E 0 87 48 64
        E 0 8f 34 64
        E 0 92 47 64
        E 0 93 41 5a
        E 0 97 47 64
        E 0 9f 32 5a
        E 77 82 48 64
        E 79 92 4a 64
        E 84 82 47 64
        E 78 92 47 64
        E 80 82 4a 64
        E 82 83 41 64
        E 1 87 47 64
        E 0 8f 32 64
        E 0 92 45 64
        E 0 93 40 5a
        E 0 97 45 64
        E 0 9f 30 5a
        E 77 82 47 64
        E 78 92 48 64
        E 84 82 45 64
        E 79 92 45 64
        E 77 82 48 64
        E 83 83 40 64
        E 0 87 45 64
        E 0 8f 30 64
        E 0 92 43 64
        E 0 93 3e 5a
        E 0 97 43 64
        E 0 9f 2f 5a
        E 79 82 45 64
        E 78 92 47 64
        E 83 82 43 64
        E 80 92 43 64
        E 77 82 47 64
        E 83 83 3e 64
        E 0 87 43 64
        E 0 8f 2f 64
        E 0 92 41 64
        E 0 93 3b 5a
        E 0 97 41 64
        E 0 9f 2b 5a
        E 80 82 43 64
        E 78 92 45 64
        E 83 82 41 64
        E 79 92 41 64
        E 77 82 45 64
        E 84 83 3b 64
        E 0 87 41 64
        E 0 8f 2b 64
        E 0 92 40 64
        E 0 93 3c 5a
        E 0 97 40 64
        E 0 9f 30 5a
        E 79 82 41 64
        E 401 82 40 64
        E 0 83 3c 64
        E 0 87 40 64
        E 0 8f 30 64
        E 0 92 3c 64
        E 0 93 3c 5a
        E 0 97 3c 64
        E 0 9f 30 5a
        E 240 83 3c 64
        E 0 8f 30 64
        E 0 93 3e 5a
        E 0 9f 32 5a
        E 240 82 3c 64
        E 0 83 3e 64
        E 0 87 3c 64
        E 0 8f 32 64
        E 0 92 43 64
        E 0 93 40 5a
        E 0 97 43 64
        E 0 9f 34 5a
        E 480 83 40 64
        E 0 8f 34 64
        E 0 93 3c 5a
        E 0 9f 30 5a
        E 482 82 43 64
        E 0 83 3c 64
        E 2 87 43 64
        E 0 8f 30 64
        E 0 92 43 64
        E 0 93 40 5a
        E 0 97 43 64
        E 0 9f 34 5a
        E 475 82 43 64
        E 0 83 40 64
        E 0 87 43 64
        E 0 8f 34 64
        E 0 92 45 64
        E 1 93 3e 5a
        E 0 97 45 64
        E 0 9f 32 5a
        E 241 82 45 64
        E 0 87 45 64
        E 0 92 47 64
        E 0 97 47 64
        E 239 82 47 64
        E 0 83 3e 64
        E 0 87 47 64
        E 0 8f 32 64
        E 0 92 48 64
        E 0 93 40 5a
        E 0 97 48 64
        E 0 9f 34 5a
        E 480 82 48 64
        E 0 83 40 64
        E 0 87 48 64
        E 0 8f 34 64
        E 0 92 46 66
        E 0 93 3c 5a
        E 0 97 46 66
        E 1 9f 30 5a
        E 479 82 46 66
        E 0 83 3c 64
        E 0 87 46 66
        E 0 8f 30 64
        E 0 92 45 64
        E 0 93 41 5a
        E 0 97 45 64
        E 0 9f 35 5a
        E 478 82 45 64
        E 0 83 41 64
        E 0 87 45 64
        E 0 8f 35 64
        E 0 92 43 64
        E 1 93 40 5a
        E 0 97 43 64
        E 0 9f 34 5a
        E 241 82 43 64
        E 0 87 43 64
        E 0 92 41 64
        E 0 97 41 64
        E 240 82 41 64
        E 0 83 40 64
        E 0 87 41 64
        E 0 8f 34 64
        E 0 92 45 64
        E 0 93 41 5a
        E 0 97 45 64
        E 0 9f 35 5a
        E 481 83 41 64
        E 0 8f 35 64
        E 0 93 35 5a
        E 0 9f 29 5a
        E 478 82 45 64
        E 0 87 45 64
        E 0 83 35 64
        E 0 8f 29 64
        E 0 92 45 64
        E 0 97 45 64
        E 0 93 42 5a
        E 0 9f 36 5a
        E 480 82 45 64
        E 0 87 45 64
        E 0 83 42 64
        E 0 8f 36 64
        E 0 92 47 64
        E 0 97 47 64
        E 0 93 40 5a
        E 0 9f 34 5a
        E 240 82 47 64
        E 0 87 47 64
        E 0 92 48 64
        E 0 97 48 64
        E 240 82 48 64
        E 0 87 48 64
        E 0 83 40 64
        E 0 8f 34 64
        E 0 92 4a 64
        E 0 97 4a 64
        E 0 93 42 5a
        E 0 9f 36 5a
        E 480 82 4a 64
        E 0 87 4a 64
        E 0 83 42 64
        E 0 8f 36 64
        E 0 92 48 64
        E 0 97 48 64
        E 0 93 3e 5a
        E 0 9f 32 5a
        E 480 82 48 64
        E 0 87 48 64
        E 0 83 3e 64
        E 0 8f 32 64
        E 0 92 47 64
        E 0 97 47 64
        E 0 93 43 5a
        E 0 9f 37 5a
        E 480 82 47 64
        E 0 87 47 64
        E 0 83 43 64
        E 0 8f 37 64
        E 0 92 45 64
        E 0 97 45 64
        E 0 93 42 5a
        E 0 9f 36 5a
        E 242 82 45 64
        E 0 87 45 64
        E 0 92 43 64
        E 0 97 43 64
        E 239 82 43 64
        E 0 87 43 64
        E 0 83 42 64
        E 1 8f 36 64
        E 0 92 47 64
        E 0 97 47 64
        E 0 93 43 5a
        E 0 9f 37 5a
        E 479 83 43 64
        E 0 8f 37 64
        E 0 93 37 5a
        E 0 9f 2b 5a
        E 479 82 47 64
        E 0 87 47 64
        E 0 83 37 64
        E 0 8f 2b 64
        E 0 92 47 64
        E 0 97 47 64
        E 0 93 44 5a
        E 0 9f 38 5a
        E 481 82 47 64
        E 0 87 47 64
        E 0 83 44 64
        E 0 8f 38 64
        E 0 92 48 64
        E 0 97 48 64
        E 0 93 42 5a
        E 0 9f 36 5a
        E 239 82 48 64
        E 0 87 48 64
        E 0 92 4a 64
        E 0 97 4a 64
        E 241 82 4a 64
        E 0 87 4a 64
        E 0 83 42 64
        E 0 8f 36 64
        E 0 92 4c 64
        E 0 97 4c 64
        E 0 93 44 5a
        E 0 9f 38 5a
        E 479 82 4c 64
        E 0 87 4c 64
        E 0 83 44 64
        E 0 8f 38 64
        E 0 92 4a 64
        E 0 97 4a 64
        E 1 93 40 5a
        E 0 9f 34 5a
        E 479 82 4a 64
        E 0 87 4a 64
        E 0 83 40 64
        E 2 8f 34 64
        E 1 92 48 64
        E 0 97 48 64
        E 0 93 45 5a
        E 0 9f 39 5a
        E 476 82 48 64
        E 0 87 48 64
        E 0 83 45 64
        E 0 8f 39 64
        E 0 92 45 64
        E 0 97 45 64
        E 0 93 44 5a
        E 0 9f 38 5a
        E 481 82 45 64
        E 0 87 45 64
        E 0 83 44 64
        E 0 8f 38 64
        E 0 93 45 5a
        E 0 9f 39 5a
        E 484 83 45 64
        E 0 8f 39 64
        E 0 92 45 64
        E 1 97 45 64
        E 12 93 39 5a
        E 0 9f 2d 5a
        E 463 82 45 64
        E 1 83 39 64
        E 0 87 45 64
        E 0 8f 2d 64
        E 0 92 41 64
        E 0 93 45 5a
        E 0 97 41 64
        E 0 9f 39 5a
        E 239 82 41 64
        E 0 87 41 64
        E 0 92 43 64
        E 1 97 43 64
        E 239 82 43 64
        E 0 83 45 64
        E 0 87 43 64
        E 0 8f 39 64
        E 1 92 45 64
        E 0 93 43 5a
        E 0 97 45 64
        E 0 9f 37 5a
        E 240 82 45 64
        E 0 87 45 64
        E 0 92 47 64
        E 0 97 47 64
        E 246 82 47 64
        E 1 83 43 64
        E 0 87 47 64
        E 0 8f 37 64
        E 0 92 48 64
        E 11 93 45 5a
        E 1 97 48 64
        E 0 9f 39 5a
        E 220 82 48 64
        E 1 87 48 64
        E 0 92 4a 64
        E 0 97 4a 64
        E 239 82 4a 64
        E 0 83 45 64
        E 0 87 4a 64
        E 0 8f 39 64
        E 0 92 4c 64
        E 0 93 41 5a
        E 0 97 4c 64
        E 1 9f 35 5a
        E 240 82 4c 64
        E 0 87 4c 64
        E 0 92 4d 64
        E 0 97 4d 64
        E 240 82 4d 64
        E 0 83 41 64
        E 0 87 4d 64
        E 0 8f 35 64
        E 0 92 47 64
        E 0 93 43 5a
        E 0 97 47 64
        E 0 9f 37 5a
        E 481 82 47 64
        E 0 83 43 64
        E 0 87 47 64
        E 0 8f 37 64
        E 0 92 43 64
        E 0 93 41 5a
        E 0 97 43 64
        E 0 9f 35 5a
        E 478 82 43 64
        E 0 83 41 64
        E 0 87 43 64
        E 0 8f 35 64
        E 1 92 4a 64
        E 0 93 43 5a
        E 0 97 4a 64
        E 0 9f 37 5a
        E 480 83 43 64
        E 0 8f 37 64
        E 0 93 37 5a
        E 0 9f 2b 5a
        E 239 82 4a 64
        E 0 87 4a 64
        E 0 92 4c 64
        E 0 97 4c 64
        E 120 82 4c 64
        E 0 87 4c 64
        E 0 92 4d 64
        E 0 97 4d 64
        E 123 82 4d 64
        E 0 83 37 64
        E 0 87 4d 64
        E 0 8f 2b 64
        E 1 92 4c 64
        E 0 93 37 5a
        E 2 97 4c 64
        E 1 9f 24 5a
        E 480 82 4c 64
        E 0 83 37 64
        E 0 87 4c 64
        E 0 8f 24 64
        E 1 92 4a 64
        E 0 93 37 5a
        E 1 97 4a 64
        E 0 9f 30 5a
        E 232 82 4a 64
        E 0 87 4a 64
        E 1 92 48 64
        E 0 97 48 64
        E 237 82 48 64
        E 0 83 37 64
        E 0 87 48 64
        E 0 8f 30 64
        E 0 92 4a 64
        E 1 93 39 5a
        E 0 97 4a 64
        E 0 9f 29 5a
        E 481 82 4a 64
        E 0 83 39 64
        E 0 87 4a 64
        E 0 8f 29 64
        E 0 92 48 64
        E 1 93 37 5a
        E 0 97 48 64
        E 0 9f 2b 5a
        E 237 82 48 64
        E 0 87 48 64
        E 1 92 47 64
        E 0 97 47 64
        E 241 82 47 64
        E 0 83 37 64
        E 0 87 47 64
        E 0 8f 2b 64
        E 0 92 48 64
        E 0 93 37 5a
        E 0 97 48 64
        E 0 9f 24 5a
        E 479 8f 24 64
        E 1 9f 30 5a
        E 239 8f 30 64
        E 1 9f 2f 5a
        E 239 82 48 64
        E 0 83 37 64
        E 0 87 48 64
        E 0 8f 2f 64
        E 0 9f 30 5a
        E 480 8f 30 64
        E 0 92 43 64
        E 0 97 43 64
        E 0 9f 30 5a
        E 481 82 43 64
        E 0 87 43 64
        E 0 8f 30 64
        E 0 92 4d 64
        E 0 93 48 5a
        E 0 97 4d 64
        E 0 9f 39 5a
        E 156 92 51 64
        E 83 82 4d 64
        E 79 92 4d 64
        E 80 82 51 64
        E 81 83 48 64
        E 0 87 4d 64
        E 0 8f 39 64
        E 0 92 4c 64
        E 0 93 47 5a
        E 1 97 4c 64
        E 0 9f 37 5a
        E 78 82 4d 64
        E 78 92 4f 64
        E 84 82 4c 64
        E 77 92 4c 64
        E 79 82 4f 64
        E 84 83 47 64
        E 1 87 4c 64
        E 0 8f 37 64
        E 0 92 4a 64
        E 0 93 45 5a
        E 0 97 4a 64
        E 0 9f 35 5a
        E 79 82 4c 64
        E 76 92 4d 64
        E 84 82 4a 64
        E 78 92 4a 64
        E 80 82 4d 64
        E 81 83 45 64
        E 0 87 4a 64
        E 0 8f 35 64
        E 0 92 48 64
        E 0 93 43 5a
        E 0 97 48 64
        E 0 9f 34 5a
        E 79 82 4a 64
        E 79 92 4c 64
        E 82 82 48 64
        E 79 92 48 64
        E 80 82 4c 64
        E 83 83 43 64
        E 0 87 48 64
        E 0 8f 34 64
        E 0 92 47 64
        E 0 93 41 5a
        E 0 97 47 64
        E 0 9f 32 5a
        E 76 82 48 64
        E 80 92 4a 64
        E 84 82 47 64
        E 77 92 47 64
        E 79 82 4a 64
        E 82 83 41 64
        E 0 87 47 64
        E 0 8f 32 64
        E 0 92 45 64
        E 0 93 40 5a
        E 0 97 45 64
        E 0 9f 30 5a
        E 79 82 47 64
        E 80 92 48 64
        E 82 82 45 64
        E 78 92 45 64
        E 78 82 48 64
        E 83 83 40 64
        E 0 87 45 64
        E 0 8f 30 64
        E 0 92 43 64
        E 0 93 3e 5a
        E 0 97 43 64
        E 0 9f 2f 5a
        E 79 82 45 64
        E 78 92 47 64
        E 83 82 43 64
        E 78 92 43 64
        E 81 82 47 64
        E 81 83 3e 64
        E 0 87 43 64
        E 0 8f 2f 64
        E 0 92 41 64
        E 0 93 3b 5a
        E 0 97 41 64
        E 0 9f 2b 5a
        E 79 82 43 64
        E 79 92 45 64
        E 83 82 41 64
        E 78 92 41 64
        E 78 82 45 64
        E 84 83 3b 64
        E 0 87 41 64
        E 0 8f 2b 64
        E 0 92 40 64
        E 0 93 37 5a
        E 0 97 40 64
        E 0 9f 30 5a
        E 77 82 41 64
        E 402 82 40 64
        E 0 83 37 64
        E 0 87 40 64
        E 0 8f 30 64
        E 0 92 3c 64
        E 0 93 37 5a
        E 0 97 3c 64
        E 0 9f 34 5a
        E 480 82 3c 64
        E 0 83 37 64
        E 1 87 3c 64
        E 1 8f 34 64
        E 1 92 4a 64
        E 0 93 37 5a
        E 0 97 4a 64
        E 0 9f 2f 5a
        E 478 8f 2f 64
        E 0 9f 2b 5a
        E 240 82 4a 64
        E 0 87 4a 64
        E 0 92 4c 64
        E 0 97 4c 64
        E 118 82 4c 64
        E 0 87 4c 64
        E 0 92 4d 64
        E 0 97 4d 64
        E 122 82 4d 64
        E 0 83 37 64
        E 0 87 4d 64
        E 0 8f 2b 64
        E 0 92 48 64
        E 0 93 37 5a
        E 0 97 4c 64
        E 0 9f 24 5a
        E 478 82 48 64
        E 1 83 37 64
        E 0 87 4c 64
        E 0 8f 24 64
        E 0 92 40 64
        E 0 93 37 5a
        E 0 97 4a 64
        E 0 9f 30 5a
        E 240 87 4a 64
        E 0 97 48 64
        E 240 82 40 64
        E 0 83 37 64
        E 0 87 48 64
        E 0 8f 30 64
        E 0 92 41 64
        E 0 93 39 5a
        E 0 97 4a 64
        E 0 9f 29 5a
        E 479 82 41 64
        E 0 83 39 64
        E 0 87 4a 64
        E 0 8f 29 64
        E 1 92 3e 64
        E 0 93 37 5a
        E 1 97 48 64
        E 0 9f 2b 5a
        E 239 87 48 64
        E 0 97 47 64
        E 242 82 3e 64
        E 0 83 37 64
        E 0 87 47 64
        E 1 8f 2b 64
        E 0 92 40 64
        E 0 93 37 5a
        E 0 97 48 64
        E 0 9f 30 5a
        E 477 87 48 64
        E 0 8f 30 64
        E 0 97 43 64
        E 0 9f 34 5a
        E 481 82 40 64
        E 0 83 37 64
        E 0 87 43 64
        E 0 8f 34 64
        E 0 92 47 64
        E 0 93 37 5a
        E 1 97 4a 64
        E 0 9f 2f 5a
        E 479 8f 2f 64
        E 0 9f 2b 5a
        E 239 82 47 64
        E 0 87 4a 64
        E 0 92 48 64
        E 0 97 4c 64
        E 119 82 48 64
        E 0 87 4c 64
        E 0 92 4a 64
        E 1 97 4d 64
        E 124 82 4a 64
        E 0 83 37 64
        E 0 87 4d 64
        E 0 8f 2b 64
        E 0 92 4c 64
        E 0 93 37 5a
        E 0 97 4c 64
        E 0 9f 24 5a
        E 477 82 4c 64
        E 1 83 37 64
        E 0 87 4c 64
        E 0 8f 24 64
        E 1 92 4a 64
        E 0 93 37 5a
        E 0 97 4a 64
        E 0 9f 30 5a
        E 237 82 4a 64
        E 1 87 4a 64
        E 0 92 48 64
        E 0 97 48 64
        E 241 82 48 64
        E 0 83 37 64
        E 0 87 48 64
        E 0 8f 30 64
        E 1 92 4a 64
        E 1 93 39 5a
        E 0 97 4a 64
        E 0 9f 29 5a
        E 475 82 4a 64
        E 2 83 39 64
        E 0 87 4a 64
        E 0 8f 29 64
        E 1 92 48 64
        E 1 93 37 5a
        E 1 97 48 64
        E 0 9f 2b 5a
        E 236 82 48 64
        E 0 87 48 64
        E 0 92 47 64
        E 1 97 47 64
        E 240 82 47 64
        E 0 83 37 64
        E 0 87 47 64
        E 0 8f 2b 64
        E 0 92 48 64
        E 0 93 3c 5a
        E 1 97 48 64
        E 0 9f 30 5a
        E 478 87 48 64
        E 0 8f 30 64
        E 0 97 43 64
        E 0 9f 34 5a
        E 483 82 48 64
        E 0 83 3c 64
        E 0 87 43 64
        E 0 8f 34 64
        E 0 92 47 64
        E 0 93 37 5a
        E 1 97 4a 64
        E 0 9f 2f 5a
        E 479 8f 2f 64
        E 0 9f 2b 5a
        E 238 82 47 64
        E 1 87 4a 64
        E 1 92 48 64
        E 0 97 4c 64
        E 117 82 48 64
        E 0 87 4c 64
        E 0 92 4a 64
        E 1 97 4d 64
        E 119 82 4a 64
        E 1 83 37 64
        E 0 87 4d 64
        E 0 8f 2b 64
        E 0 92 4c 64
        E 0 93 37 5a
        E 0 97 4c 64
        E 0 9f 24 5a
        E 478 82 4c 64
        E 0 83 37 64
        E 0 87 4c 64
        E 0 8f 24 64
        E 1 92 4a 64
        E 0 93 37 5a
        E 0 97 4a 64
        E 0 9f 30 5a
        E 240 82 4a 64
        E 0 87 4a 64
        E 0 92 48 64
        E 0 97 48 64
        E 244 82 48 64
        E 0 83 37 64
        E 0 87 48 64
        E 0 8f 30 64
        E 0 92 4a 64
        E 1 93 39 5a
        E 0 97 4a 64
        E 0 9f 29 5a
        E 475 82 4a 64
        E 0 83 39 64
        E 0 87 4a 64
        E 0 8f 29 64
        E 0 92 48 64
        E 0 93 37 5a
        E 0 97 48 64
        E 0 9f 2b 5a
        E 240 82 48 64
        E 0 87 48 64
        E 0 92 47 64
        E 0 97 47 64
        E 241 82 47 64
        E 0 83 37 64
        E 0 87 47 64
        E 0 8f 2b 64
        E 0 92 48 64
        E 0 93 3c 5a
        E 0 97 48 64
        E 0 9f 3c 5a
        E 479 82 48 64
        E 0 83 3c 64
        E 0 8f 3c 64
        E 0 92 40 64
        E 0 93 34 5a
        E 0 9f 34 5a
        E 482 82 40 64
        E 1 83 34 64
        E 0 87 48 64
        E 0 8f 34 64
        E 0 92 41 64
        E 0 93 35 5a
        E 0 9f 35 5a
        E 477 82 41 64
        E 0 83 35 64
        E 0 8f 35 64
        E 0 92 43 64
        E 1 93 37 5a
        E 0 9f 37 5a
        E 480 82 43 64
        E 0 83 37 64
        E 0 8f 37 64
        E 0 92 40 64
        E 0 93 34 5a
        E 0 9f 34 5a
        E 481 82 40 64
        E 0 83 34 64
        E 0 8f 34 64
        E 0 92 3c 64
        E 0 93 30 5a
        E 0 9f 30 5a
        E 237 83 30 64
        E 0 8f 30 64
        E 0 93 32 5a
        E 0 9f 32 5a
        E 241 82 3c 64
        E 0 83 32 64
        E 0 8f 32 64
        E 0 93 34 5a
        E 1 9f 34 5a
        E 479 83 34 64
        E 0 8f 34 64
        E 0 92 4f 64
        E 0 93 30 5a
        E 0 9f 30 5a
        E 480 82 4f 64
        E 0 83 30 64
        E 0 8f 30 64
        E 0 92 54 64
        E 240 82 54 64
        E 0 92 4f 64
        E 241 82 4f 64
        E 0 92 4c 64
        E 0 93 40 5a
        E 0 9f 30 5a
        E 239 82 4c 64
        E 0 92 48 64
        E 241 82 48 64
        E 0 83 40 64
        E 0 8f 30 64
        E 0 92 3e 64
        E 0 93 3e 5a
        E 0 9f 2f 5a
        E 478 82 3e 64
        E 0 83 3e 64
        E 0 8f 2f 64
        E 0 92 41 64
        E 1 93 3b 5a
        E 0 9f 2b 5a
        E 480 82 41 64
        E 0 83 3b 64
        E 0 8f 2b 64
        E 1 92 40 64
        E 480 82 40 64
        E 0 92 3c 64
        E 0 93 40 5a
        E 0 9f 30 5a
        E 240 83 40 64
        E 0 8f 30 64
        E 0 93 41 5a
        E 1 9f 32 5a
        E 238 82 3c 64
        E 0 83 41 64
        E 0 8f 32 64
        E 0 93 43 5a
        E 0 9f 34 5a
        E 480 83 43 64
        E 0 8f 34 64
        E 0 92 4c 64
        E 0 93 40 5a
        E 0 9f 30 5a
        E 481 82 4c 64
        E 0 83 40 64
        E 0 8f 30 64
        E 0 92 4d 64
        E 0 93 48 5a
        E 0 9f 39 5a
        E 157 92 51 64
        E 82 82 4d 64
        E 80 92 4d 64
        E 77 82 51 64
        E 82 83 48 64
        E 0 8f 39 64
        E 0 92 4c 64
        E 1 93 47 5a
        E 0 9f 37 5a
        E 79 82 4d 64
        E 81 92 4f 64
        E 80 82 4c 64
        E 80 92 4c 64
        E 78 82 4f 64
        E 83 83 47 64
        E 0 8f 37 64
        E 1 92 4a 64
        E 0 93 45 5a
        E 0 9f 35 5a
        E 77 82 4c 64
        E 79 92 4d 64
        E 83 82 4a 64
        E 79 92 4a 64
        E 77 82 4d 64
        E 83 83 45 64
        E 0 8f 35 64
        E 0 92 48 64
        E 0 93 43 5a
        E 0 9f 34 5a
        E 78 82 4a 64
        E 79 92 4c 64
        E 84 82 48 64
        E 78 92 48 64
        E 78 82 4c 64
        E 84 83 43 64
        E 0 8f 34 64
        E 1 92 47 64
        E 0 93 41 5a
        E 1 9f 32 5a
        E 77 82 48 64
        E 77 92 4a 64
        E 84 82 47 64
        E 79 92 47 64
        E 77 82 4a 64
        E 84 83 41 64
        E 0 8f 32 64
        E 0 92 45 64
        E 0 93 40 5a
        E 0 9f 30 5a
        E 78 82 47 64
        E 79 92 48 64
        E 83 82 45 64
        E 78 92 45 64
        E 79 82 48 64
        E 82 83 40 64
        E 0 8f 30 64
        E 0 92 43 64
        E 0 93 3e 5a
        E 0 9f 2f 5a
        E 80 82 45 64
        E 79 92 47 64
        E 81 82 43 64
        E 80 92 43 64
        E 78 82 47 64
        E 82 83 3e 64
        E 0 8f 2f 64
        E 0 92 41 64
        E 0 93 3b 5a
        E 0 9f 2b 5a
        E 80 82 43 64
        E 78 92 45 64
        E 82 82 41 64
        E 79 92 41 64
        E 79 82 45 64
        E 83 83 3b 64
        E 0 8f 2b 64
        E 0 92 40 64
        E 0 93 37 5a
        E 0 9f 30 5a
        E 78 82 41 64
        E 161 82 40 64
        E 0 92 4c 64
        E 240 82 4c 64
        E 0 83 37 64
        E 0 8f 30 64
        E 0 92 4f 64
        E 239 82 4f 64
        E 0 92 4a 64
        E 241 82 4a 64
        E 0 92 4c 64
        E 0 93 37 5a
        E 0 9f 30 5a
        E 241 82 4c 64
        E 0 92 47 64
        E 238 82 47 64
        E 0 83 37 64
        E 0 8f 30 64
        E 0 92 48 64
        E 242 82 48 64
        E 0 92 40 64
        E 240 82 40 64
        E 0 92 41 64
        E 0 93 3b 5a
        E 0 9f 2b 5a
        E 480 82 41 64
        E 0 92 4d 64
        E 480 82 4d 64
        E 0 92 4f 64
        E 478 82 4f 64
        E 0 92 51 64
        E 492 82 51 64
        E 0 83 3b 64
        E 1 8f 2b 64
        E 0 92 47 64
        E 0 93 3b 5a
        E 0 9f 2b 5a
        E 146 92 48 64
        E 82 82 47 64
        E 79 92 4a 64
        E 79 82 48 64
        E 81 83 3b 64
        E 0 8f 2b 64
        E 0 92 41 64
        E 0 93 3b 5a
        E 0 9f 37 5a
        E 80 82 4a 64
        E 79 92 43 64
        E 82 82 41 64
        E 78 92 45 64
        E 79 82 43 64
        E 83 83 3b 64
        E 0 8f 37 64
        E 0 92 37 64
        E 0 93 3b 5a
        E 0 9f 37 5a
        E 78 82 45 64
        E 404 82 37 64
        E 0 83 3b 64
        E 0 8f 37 64
        E 0 92 47 64
        E 0 93 3b 5a
        E 0 9f 2b 5a
        E 477 82 47 64
        E 1 83 3b 64
        E 0 8f 2b 64
        E 0 92 48 64
        E 0 93 37 5a
        E 0 9f 30 5a
        E 1439 82 48 64
        E 0 83 37 64
        E 1 8f 30 64
        E 479 92 45 64
        E 0 93 45 5a
        E 0 97 45 64
        E 0 9f 39 5a
        E 481 82 45 64
        E 0 83 45 64
        E 0 87 45 64
        E 0 8f 39 64
        E 0 92 48 64
        E 0 93 48 5a
        E 0 97 48 64
        E 0 9f 3c 5a
        E 481 82 48 64
        E 0 83 48 64
        E 0 87 48 64
        E 0 8f 3c 64
        E 0 92 45 64
        E 0 93 45 5a
        E 0 97 45 64
        E 0 9f 39 5a
        E 480 82 45 64
        E 0 83 45 64
        E 0 87 45 64
        E 0 8f 39 64
        E 1 92 4c 64
        E 0 93 4c 5a
        E 0 97 4c 64
        E 0 9f 40 5a
        E 478 82 4c 64
        E 0 83 4c 64
        E 0 87 4c 64
        E 0 8f 40 64
        E 1 92 40 64
        E 0 93 40 5a
        E 0 97 40 64
        E 0 9f 34 5a
        E 480 82 40 64
        E 0 83 40 64
        E 0 87 40 64
        E 0 8f 34 64
        E 0 92 45 64
        E 0 93 45 5a
        E 0 97 45 64
        E 0 9f 39 5a
        E 479 82 45 64
        E 0 83 45 64
        E 0 87 45 64
        E 0 8f 39 64
        E 0 92 39 64
        E 0 93 3c 5a
        E 0 97 39 64
        E 0 9f 2d 5a
        E 242 83 3c 64
        E 0 8f 2d 64
        E 0 93 3e 5a
        E 0 9f 2f 5a
        E 238 82 39 64
        E 0 83 3e 64
        E 0 87 39 64
        E 0 8f 2f 64
        E 0 93 40 5a
        E 0 9f 30 5a
        E 480 83 40 64
        E 0 8f 30 64
        E 0 92 45 64
        E 0 93 3c 5a
        E 0 97 45 64
        E 0 9f 2d 5a
        E 480 82 45 64
        E 0 83 3c 64
        E 0 87 45 64
        E 0 8f 2d 64
        E 0 92 47 64
        E 0 97 47 64
        E 480 82 47 64
        E 0 87 47 64
        E 1 92 45 64
        E 0 92 44 64
        E 0 93 38 5a
        E 0 97 45 64
        E 0 97 44 64
        E 0 9f 34 5a
        E 239 83 38 64
        E 0 8f 34 64
        E 0 93 39 5a
        E 0 9f 36 5a
        E 240 82 45 64
        E 0 82 44 64
        E 0 83 39 64
        E 0 87 45 64
        E 0 87 44 64
        E 0 8f 36 64
        E 0 92 42 64
        E 0 92 40 64
        E 0 93 3b 5a
        E 0 97 42 64
        E 0 97 40 64
        E 0 9f 38 5a
        E 481 82 42 64
        E 0 82 40 64
        E 0 83 3b 64
        E 0 87 42 64
        E 0 87 40 64
        E 0 8f 38 64
        E 0 92 4a 64
        E 0 93 38 5a
        E 0 97 4a 64
        E 0 9f 34 5a
        E 480 82 4a 64
        E 0 83 38 64
        E 0 87 4a 64
        E 0 8f 34 64
        E 0 92 4c 64
        E 0 97 48 64
        E 156 92 51 64
        E 83 82 4c 64
        E 80 92 4c 64
        E 77 82 51 64
        E 84 87 48 64
        E 1 92 48 64
        E 0 93 40 5a
        E 0 97 45 64
        E 0 9f 2d 5a
        E 76 82 4c 64
        E 80 92 4c 64
        E 82 82 48 64
        E 0 8f 2d 64
        E 0 9f 2c 5a
        E 79 92 48 64
        E 79 82 4c 64
        E 83 83 40 64
        E 0 87 45 64
        E 0 8f 2c 64
        E 0 92 45 64
        E 0 93 3c 5a
        E 0 9f 2d 5a
        E 77 82 48 64
        E 79 92 48 64
        E 84 82 45 64
        E 78 92 45 64
        E 78 82 48 64
        E 83 83 3c 64
        E 0 8f 2d 64
        E 1 92 40 64
        E 0 93 3c 5a
        E 0 9f 2d 5a
        E 77 82 45 64
        E 80 92 45 64
        E 83 82 40 64
        E 79 92 40 64
        E 78 82 45 64
        E 82 83 3c 64
        E 0 8f 2d 64
        E 0 92 39 64
        E 0 97 49 64
        E 79 82 40 64
        E 401 87 49 64
        E 0 93 40 5a
        E 0 97 45 64
        E 0 9f 39 5a
        E 241 87 45 64
        E 0 8f 39 64
        E 0 97 45 64
        E 0 9f 37 5a
        E 239 82 39 64
        E 0 83 40 64
        E 0 87 45 64
        E 0 8f 37 64
        E 0 93 40 5a
        E 0 97 45 64
        E 0 9f 39 5a
        E 479 83 40 64
        E 0 87 45 64
        E 0 8f 39 64
        E 0 93 3d 5a
        E 0 97 4c 64
        E 1 9f 2d 5a
        E 481 83 3d 64
        E 0 87 4c 64
        E 0 8f 2d 64
        E 0 92 4d 64
        E 0 97 4d 64
        E 158 92 51 64
        E 82 82 4d 64
        E 78 92 4d 64
        E 79 82 51 64
        E 83 87 4d 64
        E 1 92 4a 64
        E 0 93 41 5a
        E 0 97 4a 64
        E 0 9f 32 5a
        E 77 82 4d 64
        E 78 92 4d 64
        E 83 82 4a 64
        E 0 8f 32 64
        E 0 9f 31 5a
        E 80 92 4a 64
        E 78 82 4d 64
        E 82 83 41 64
        E 0 87 4a 64
        E 0 8f 31 64
        E 0 92 45 64
        E 0 93 41 5a
        E 0 9f 32 5a
        E 78 82 4a 64
        E 80 92 4a 64
        E 83 82 45 64
        E 77 92 45 64
        E 79 82 4a 64
        E 83 83 41 64
        E 0 8f 32 64
        E 0 92 41 64
        E 0 93 41 5a
        E 0 97 45 64
        E 0 9f 26 5a
        E 80 82 45 64
        E 80 92 45 64
        E 81 82 41 64
        E 77 92 41 64
        E 79 82 45 64
        E 86 83 41 64
        E 0 87 45 64
        E 0 8f 26 64
        E 0 92 4f 64
        E 0 97 46 66
        E 85 82 41 64
        E 70 92 52 66
        E 83 82 4f 64
        E 79 92 4f 64
        E 78 82 52 66
        E 81 87 46 66
        E 1 92 4a 64
        E 0 93 3e 5a
        E 0 97 43 64
        E 0 9f 37 5a
        E 79 82 4f 64
        E 79 92 4f 64
        E 84 82 4a 64
        E 0 8f 37 64
        E 0 9f 35 5a
        E 77 92 4a 64
        E 80 82 4f 64
        E 81 83 3e 64
        E 0 87 43 64
        E 0 8f 35 64
        E 0 92 46 66
        E 0 93 3e 5a
        E 0 9f 37 5a
        E 79 82 4a 64
        E 79 92 4a 64
        E 82 82 46 66
        E 78 92 46 66
        E 79 82 4a 64
        E 84 83 3e 64
        E 0 8f 37 64
        E 0 92 43 64
        E 1 93 3a 5b
        E 0 97 4a 64
        E 0 9f 2b 5a
        E 77 82 46 66
        E 79 92 46 66
        E 82 82 43 64
        E 79 92 43 64
        E 78 82 46 66
        E 84 83 3a 66
        E 0 87 4a 64
        E 0 8f 2b 64
        E 1 92 49 64
        E 0 97 49 64
        E 0 9f 2d 5a
        E 76 82 43 64
        E 163 82 49 64
        E 0 87 49 64
        E 1 92 45 64
        E 0 97 45 64
        E 237 82 45 64
        E 0 87 45 64
        E 0 8f 2d 64
        E 1 92 4d 64
        E 1 93 41 5a
        E 0 97 4d 64
        E 0 9f 32 5a
        E 239 82 4d 64
        E 0 87 4d 64
        E 0 92 4a 64
        E 0 97 4a 64
        E 242 82 4a 64
        E 0 83 41 64
        E 0 87 4a 64
        E 0 8f 32 64
        E 0 92 49 64
        E 0 93 41 5a
        E 0 97 49 64
        E 0 9f 39 5a
        E 478 83 41 64
        E 0 8f 39 64
        E 0 93 40 5a
        E 0 9f 2d 5a
        E 240 82 49 64
        E 0 87 49 64
        E 0 92 4a 64
        E 1 97 4a 64
        E 239 82 4a 64
        E 0 83 40 64
        E 0 87 4a 64
        E 0 8f 2d 64
        E 0 92 4a 64
        E 0 93 41 5a
        E 0 97 4a 64
        E 0 9f 26 5a
        E 480 83 41 64
        E 0 8f 26 64
        E 0 93 41 5a
        E 2 9f 32 5a
        E 239 83 41 64
        E 0 8f 32 64
        E 0 93 40 5a
        E 0 9f 31 5a
        E 239 82 4a 64
        E 0 83 40 64
        E 0 87 4a 64
        E 0 8f 31 64
        E 0 93 41 5a
        E 0 9f 32 5a
        E 480 83 41 64
        E 0 8f 32 64
        E 0 92 45 64
        E 0 93 45 5a
        E 0 97 45 64
        E 0 9f 39 5a
        E 480 82 45 64
        E 0 83 45 64
        E 0 87 45 64
        E 0 8f 39 64
        E 1 92 4d 64
        E 0 93 41 5a
        E 0 97 4d 64
        E 0 9f 41 5a
        E 481 82 4d 64
        E 0 83 41 64
        E 0 87 4d 64
        E 0 8f 41 64
        E 0 92 44 64
        E 0 93 44 5a
        E 1 97 44 64
        E 0 9f 38 5a
        E 479 82 44 64
        E 0 83 44 64
        E 0 87 44 64
        E 0 8f 38 64
        E 0 92 45 64
        E 1 93 45 5a
        E 0 97 45 64
        E 0 9f 39 5a
        E 478 82 45 64
        E 1 83 45 64
        E 0 87 45 64
        E 0 8f 39 64
        E 1 92 47 64
        E 0 93 47 5a
        E 0 97 47 64
        E 0 9f 3b 5a
        E 478 82 47 64
        E 0 83 47 64
        E 0 87 47 64
        E 0 8f 3b 64
        E 0 92 48 64
        E 0 93 48 5a
        E 0 97 48 64
        E 0 9f 3c 5a
        E 480 82 48 64
        E 0 83 48 64
        E 0 87 48 64
        E 0 8f 3c 64
        E 0 92 45 64
        E 0 93 40 5a
        E 0 97 45 64
        E 0 9f 39 5a
        E 238 8f 39 64
        E 1 9f 38 5a
        E 242 82 45 64
        E 0 83 40 64
        E 0 87 45 64
        E 0 8f 38 64
        E 0 93 40 5a
        E 2 9f 39 5a
        E 475 83 40 64
        E 0 8f 39 64
        E 0 92 4c 64
        E 1 93 40 5a
        E 0 97 45 64
        E 0 9f 2d 5a
        E 479 82 4c 64
        E 0 83 40 64
        E 0 87 45 64
        E 0 8f 2d 64
        E 0 92 4d 64
        E 0 93 48 5a
        E 0 97 4d 64
        E 1 9f 39 5a
        E 157 92 51 64
        E 83 82 4d 64
        E 79 92 4d 64
        E 80 82 51 64
        E 81 83 48 64
        E 0 87 4d 64
        E 0 8f 39 64
        E 1 92 4c 64
        E 3 93 47 5a
        E 3 97 4c 64
        E 5 9f 37 5a
        E 71 82 4d 64
        E 76 92 4f 64
        E 82 82 4c 64
        E 78 92 4c 64
        E 78 82 4f 64
        E 84 83 47 64
        E 0 87 4c 64
        E 0 8f 37 64
        E 0 92 4a 64
        E 0 93 45 5a
        E 0 97 4a 64
        E 0 9f 35 5a
        E 79 82 4c 64
        E 78 92 4d 64
        E 83 82 4a 64
        E 79 92 4a 64
        E 79 82 4d 64
        E 81 83 45 64
        E 0 87 4a 64
        E 0 8f 35 64
        E 0 92 48 64
        E 0 93 43 5a
        E 0 97 48 64
        E 0 9f 34 5a
        E 79 82 4a 64
        E 78 92 4c 64
        E 83 82 48 64
        E 81 92 48 64
        E 77 82 4c 64
        E 84 83 43 64
        E 0 87 48 64
        E 0 8f 34 64
        E 0 92 47 64
        E 0 93 41 5a
        E 0 97 47 64
        E 0 9f 32 5a
        E 78 82 48 64
        E 79 92 4a 64
        E 82 82 47 64
        E 77 92 47 64
        E 79 82 4a 64
        E 84 83 41 64
        E 0 87 47 64
        E 0 8f 32 64
        E 0 92 45 64
        E 0 93 40 5a
        E 0 97 45 64
        E 0 9f 30 5a
        E 78 82 47 64
        E 81 92 48 64
        E 81 82 45 64
        E 78 92 45 64
        E 80 82 48 64
        E 81 83 40 64
        E 0 87 45 64
        E 0 8f 30 64
        E 0 92 44 64
        E 0 93 3e 5a
        E 0 97 44 64
        E 0 9f 2f 5a
        E 79 82 45 64
        E 79 92 47 64
        E 82 82 44 64
        E 79 92 44 64
        E 78 82 47 64
        E 83 83 3e 64
        E 0 87 44 64
        E 0 8f 2f 64
        E 0 92 42 64
        E 0 93 3c 5a
        E 0 97 42 64
        E 0 9f 2d 5a
        E 80 82 44 64
        E 78 92 45 64
        E 84 82 42 64
        E 77 92 42 64
        E 78 82 45 64
        E 86 83 3c 64
        E 0 87 42 64
        E 0 8f 2d 64
        E 0 92 40 64
        E 0 93 3b 5a
        E 0 97 40 64
        E 1 9f 2c 5a
        E 75 82 42 64
        E 402 83 3b 64
        E 0 8f 2c 64
        E 3 93 3b 5a
        E 2 9f 34 5a
        E 474 82 40 64
        E 0 83 3b 64
        E 0 87 40 64
        E 0 8f 34 64
        E 0 92 47 64
        E 0 93 3b 5a
        E 0 97 47 64
        E 0 9f 38 5a
        E 480 83 3b 64
        E 0 8f 38 64
        E 0 93 3b 5a
        E 0 9f 36 5a
        E 482 82 47 64
        E 0 83 3b 64
        E 0 87 47 64
        E 0 8f 36 64
        E 0 92 47 64
        E 0 93 44 5a
        E 0 97 47 64
        E 0 9f 34 5a
        E 481 82 47 64
        E 0 87 47 64
        E 0 92 48 64
        E 0 97 48 64
        E 237 82 48 64
        E 0 87 48 64
        E 0 92 4a 64
        E 0 97 4a 64
        E 241 82 4a 64
        E 0 87 4a 64
        E 0 92 4c 64
        E 0 97 4c 64
        E 478 82 4c 64
        E 0 83 44 64
        E 3 87 4c 64
        E 0 8f 34 64
        E 0 92 47 64
        E 0 93 40 5a
        E 0 97 47 64
        E 0 9f 38 5a
        E 480 82 47 64
        E 0 83 40 64
        E 0 87 47 64
        E 0 8f 38 64
        E 0 92 48 64
        E 0 93 40 5a
        E 0 97 48 64
        E 0 9f 39 5a
        E 478 82 48 64
        E 1 83 40 64
        E 0 87 48 64
        E 0 8f 39 64
        E 0 92 45 64
        E 0 93 3c 5a
        E 0 97 45 64
        E 0 9f 2d 5a
        E 480 82 45 64
        E 0 83 3c 64
        E 0 87 45 64
        E 0 8f 2d 64
        E 1 93 3b 5a
        E 0 9f 2c 5a
        E 477 83 3b 64
        E 0 8f 2c 64
        E 1 92 4c 64
        E 0 93 47 5a
        E 0 97 4c 64
        E 1 9f 38 5a
        E 481 82 4c 64
        E 0 83 47 64
        E 0 87 4c 64
        E 0 8f 38 64
        E 0 92 48 64
        E 0 93 40 5a
        E 0 97 48 64
        E 0 9f 39 5a
        E 478 82 48 64
        E 0 87 48 64
        E 0 92 47 64
        E 0 97 47 64
        E 240 82 47 64
        E 0 87 47 64
        E 0 92 45 64
        E 1 97 45 64
        E 239 82 45 64
        E 0 83 40 64
        E 0 87 45 64
        E 0 8f 39 64
        E 0 92 47 64
        E 0 93 44 5a
        E 0 97 47 64
        E 1 9f 34 5a
        E 718 82 47 64
        E 0 87 47 64
        E 1 92 45 64
        E 0 97 45 64
        E 242 82 45 64
        E 0 83 44 64
        E 0 87 45 64
        E 0 8f 34 64
        E 0 92 45 64
        E 0 93 40 5a
        E 0 97 45 64
        E 0 9f 2d 5a
        E 2878 82 45 64
        E 1 83 40 64
        E 0 87 45 64
        E 0 8f 2d 64
        E 0 96 46 66
        E 0 9d 46 66
        E 0 9f 34 5a
        E 478 86 46 66
        E 0 8d 46 66
        E 0 96 46 66
        E 0 9d 46 66
        E 241 86 46 66
        E 0 8d 46 66
        E 1 96 46 66
        E 0 9d 46 66
        E 239 86 46 66
        E 0 8e 46 66
        E 0 96 46 66
        E 0 ce 34 00
        E 0 be 07 64
        E 0 be 0a 40
        E 0 be 5b 3b
        E 0 9e 46 66
        E 481 86 46 66
        E 0 8e 46 66
        E 0 96 46 66
        E 0 9e 46 66
        E 481 86 46 66
        E 0 8e 46 66
        E 0 96 43 64
        E 0 9e 43 64
        E 480 86 43 64
        E 0 8e 43 64
        E 0 96 43 64
        E 0 9e 43 64
        E 478 86 43 64
        E 0 8e 43 64
        E 480 96 46 66
        E 0 9e 46 66
        E 239 86 46 66
        E 1 8e 46 66
        E 0 96 48 64
        E 0 9e 48 64
        E 239 8f 34 64
        E 0 86 48 64
        E 0 8e 48 64
        E 0 9f 34 5a
        E 0 96 43 64
        E 0 9e 43 64
        E 961 86 43 64
        E 0 8e 43 64
        E 0 96 43 64
        E 0 9e 43 64
        E 481 86 43 64
        E 0 8e 43 64
        E 0 96 45 64
        E 0 9e 45 64
        E 479 8f 34 64
        E 0 86 45 64
        E 0 8e 45 64
        E 0 9f 35 5a
        E 0 96 41 64
        E 0 9e 41 64
        E 961 86 41 64
        E 0 8e 41 64
        E 239 98 35 64
        E 0 9e 41 64
        E 239 88 35 64
        E 0 8e 41 64
        E 0 98 35 64
        E 0 9e 41 64
        E 241 88 35 64
        E 0 8e 41 64
        E 0 98 37 64
        E 0 9e 43 64
        E 241 8f 35 64
        E 0 88 37 64
        E 0 8e 43 64
        E 0 9f 35 5a
        E 0 98 39 64
        E 0 9e 45 64
        E 960 88 39 64
        E 0 8e 45 64
        E 961 8f 35 64
        E 0 9f 35 5a
        E 0 98 39 64
        E 1 9e 45 64
        E 477 88 39 64
        E 0 8e 45 64
        E 0 98 39 64
        E 0 9e 45 64
        E 480 88 39 64
        E 0 8e 45 64
        E 0 98 39 64
        E 0 9e 45 64
        E 480 88 39 64
        E 0 8e 45 64
        E 0 98 3b 64
        E 0 9e 47 64
        E 241 88 3b 64
        E 0 8e 47 64
        E 1 98 3c 64
        E 0 9e 48 64
        E 238 88 3c 64
        E 0 8e 48 64
        E 0 8f 35 64
        E 0 98 37 64
        E 0 9e 43 64
        E 0 9f 37 5a
        E 480 88 37 64
        E 0 8e 43 64
        E 0 98 37 64
        E 0 9e 43 64
        E 481 88 37 64
        E 0 8e 43 64
        E 0 8f 37 64
        E 0 9f 30 5a
        E 959 8f 30 64
        E 0 96 40 64
        E 0 9e 40 64
        E 0 9f 30 5a
        E 966 86 40 64
        E 0 8e 40 64
        E 0 96 40 64
        E 0 9e 40 64
        E 474 86 40 64
        E 0 8e 40 64
        E 1 96 40 64
        E 0 9e 40 64
        E 479 86 40 64
        E 0 8e 40 64
        E 0 8f 30 64
        E 0 96 45 64
        E 0 9e 45 64
        E 0 9f 31 5a
        E 480 86 45 64
        E 0 8e 45 64
        E 1 96 45 64
        E 0 9e 45 64
        E 480 86 45 64
        E 0 8e 45 64
        E 959 96 45 64
        E 0 9e 45 64
        E 480 86 45 64
        E 0 8e 45 64
        E 0 96 46 66
        E 1 9e 46 66
        E 480 86 46 66
        E 0 8e 46 66
        E 0 96 43 64
        E 0 9e 43 64
        E 479 86 43 64
        E 0 8e 43 64
        E 0 96 43 64
        E 0 9e 43 64
        E 240 86 43 64
        E 0 8e 43 64
        E 0 96 41 64
        E 0 9e 41 64
        E 240 86 41 64
        E 0 8e 41 64
        E 0 8f 31 64
        E 0 96 3e 64
        E 0 9e 3e 64
        E 0 9f 32 5a
        E 481 86 3e 64
        E 0 8e 3e 64
        E 0 96 3e 64
        E 0 9e 3e 64
        E 480 86 3e 64
        E 0 8e 3e 64
        E 960 96 45 64
        E 0 9e 45 64
        E 478 86 45 64
        E 0 8e 45 64
        E 0 96 3e 64
        E 0 9e 3e 64
        E 481 86 3e 64
        E 0 8e 3e 64
        E 241 96 45 64
        E 0 9e 45 64
        E 239 86 45 64
        E 0 8e 45 64
        E 0 96 45 64
        E 0 9e 45 64
        E 241 86 45 64
        E 0 8e 45 64
        E 0 96 45 64
        E 0 9e 45 64
        E 240 86 45 64
        E 0 8e 45 64
        E 0 8f 32 64
        E 0 96 42 64
        E 0 9e 42 64
        E 0 9f 30 5a
        E 480 86 42 64
        E 0 8e 42 64
        E 0 96 42 64
        E 1 9e 42 64
        E 478 86 42 64
        E 0 8e 42 64
        E 961 96 48 64
        E 0 9e 48 64
        E 479 86 48 64
        E 0 8e 48 64
        E 0 96 48 64
        E 0 9e 48 64
        E 480 86 48 64
        E 0 8e 48 64
        E 0 96 45 64
        E 0 9e 45 64
        E 481 86 45 64
        E 0 8e 45 64
        E 0 96 45 64
        E 1 9e 45 64
        E 238 86 45 64
        E 0 8e 45 64
        E 0 96 46 66
        E 0 9e 46 66
        E 240 86 46 66
        E 0 8e 46 66
        E 0 8f 30 64
        E 0 96 43 64
        E 0 9e 43 64
        E 0 9f 2e 5b
        E 482 86 43 64
        E 0 8e 43 64
        E 0 96 43 64
        E 0 9e 43 64
        E 479 86 43 64
        E 0 8e 43 64
        E 961 96 46 66
        E 0 9e 46 66
        E 959 86 46 66
        E 1 8e 46 66
        E 0 96 46 66
        E 0 9e 46 66
        E 477 86 46 66
        E 0 8e 46 66
        E 1 96 45 64
        E 0 9e 45 64
        E 480 86 45 64
        E 0 8e 45 64
        E 0 8f 2e 66
        E 0 96 44 64
        E 0 9e 44 64
        E 0 9f 32 5a
        E 481 86 44 64
        E 0 8e 44 64
        E 0 96 44 64
        E 0 9e 44 64
        E 480 86 44 64
        E 0 8e 44 64
        E 959 96 44 64
        E 0 9e 44 64
        E 482 86 44 64
        E 0 8e 44 64
        E 0 96 44 64
        E 0 9e 44 64
        E 238 86 44 64
        E 0 8e 44 64
        E 0 96 44 64
        E 0 9e 44 64
        E 241 86 44 64
        E 0 8e 44 64
        E 0 96 45 64
        E 0 9e 45 64
        E 479 86 45 64
        E 0 8e 45 64
        E 0 96 47 64
        E 1 9e 47 64
        E 481 86 47 64
        E 0 8e 47 64
        E 0 8f 32 64
        E 1 96 40 64
        E 0 9e 40 64
        E 0 9f 32 5a
        E 478 86 40 64
        E 0 8e 40 64
        E 0 96 40 64
        E 0 9e 40 64
        E 480 86 40 64
        E 0 8e 40 64
        E 478 96 40 64
        E 0 9e 40 64
        E 242 86 40 64
        E 0 8e 40 64
        E 0 96 40 64
        E 0 9e 40 64
        E 238 86 40 64
        E 0 8e 40 64
        E 0 96 47 64
        E 0 9e 47 64
        E 961 86 47 64
        E 0 8e 47 64
        E 0 96 47 64
        E 0 9e 47 64
        E 479 86 47 64
        E 0 8e 47 64
        E 1 96 48 64
        E 0 9e 48 64
        E 481 86 48 64
        E 0 8e 48 64
        E 0 8f 32 64
        E 0 96 45 64
        E 0 9e 45 64
        E 0 9f 34 5a
        E 959 86 45 64
        E 0 8e 45 64
        E 0 8f 34 64
        E 0 9f 2d 5a
        E 481 98 34 64
        E 0 9e 40 64
        E 479 88 34 64
        E 0 8e 40 64
        E 0 8f 2d 64
        E 0 98 39 64
        E 0 9e 45 64
        E 0 9f 2d 5a
        E 960 88 39 64
        E 0 8e 45 64
        E 1 98 39 64
        E 0 9e 45 64
        E 480 88 39 64
        E 0 8e 45 64
        E 0 98 39 64
        E 0 9e 45 64
        E 479 88 39 64
        E 0 8e 45 64
        E 0 8f 2d 64
        E 0 98 36 64
        E 0 9e 42 64
        E 0 9f 33 5a
        E 480 88 36 64
        E 0 8e 42 64
        E 0 98 36 64
        E 0 9e 42 64
        E 479 88 36 64
        E 0 8e 42 64
        E 480 98 3c 64
        E 1 9e 48 64
        E 480 88 3c 64
        E 0 8e 48 64
        E 0 98 39 64
        E 0 9e 45 64
        E 479 88 39 64
        E 0 8e 45 64
        E 0 98 39 64
        E 0 9e 45 64
        E 483 88 39 64
        E 0 8e 45 64
        E 0 98 39 64
        E 0 9e 45 64
        E 480 88 39 64
        E 0 8e 45 64
        E 0 98 37 64
        E 0 9e 43 64
        E 478 88 37 64
        E 0 8e 43 64
        E 0 8f 33 64
        E 0 98 34 64
        E 0 9e 40 64
        E 0 9f 34 5a
        E 480 88 34 64
        E 0 8e 40 64
        E 0 98 34 64
        E 0 9e 40 64
        E 480 88 34 64
        E 0 8e 40 64
        E 241 98 3b 64
        E 0 9e 47 64
        E 240 88 3b 64
        E 0 8e 47 64
        E 1 98 3b 64
        E 0 9e 47 64
        E 238 88 3b 64
        E 0 8e 47 64
        E 0 98 3b 64
        E 0 9e 47 64
        E 239 88 3b 64
        E 0 8e 47 64
        E 0 98 37 64
        E 0 9e 43 64
        E 481 88 37 64
        E 0 8e 43 64
        E 0 98 37 64
        E 0 9e 43 64
        E 480 88 37 64
        E 0 8e 43 64
        E 960 8f 34 64
        E 0 98 37 64
        E 1 9e 43 64
        E 0 9f 34 5a
        E 479 88 37 64
        E 0 8e 43 64
        E 0 98 37 64
        E 0 9e 43 64
        E 240 88 37 64
        E 0 8e 43 64
        E 0 98 37 64
        E 0 9e 43 64
        E 239 88 37 64
        E 0 8e 43 64
        E 0 98 39 64
        E 0 9e 45 64
        E 482 88 39 64
        E 0 8e 45 64
        E 0 98 3b 64
        E 1 9e 47 64
        E 478 88 3b 64
        E 0 8e 47 64
        E 0 98 34 64
        E 0 9e 40 64
        E 960 88 34 64
        E 0 8e 40 64
        E 239 98 3b 64
        E 0 9e 47 64
        E 240 88 3b 64
        E 0 8e 47 64
        E 1 98 3b 64
        E 0 9e 47 64
        E 240 88 3b 64
        E 0 8e 47 64
        E 0 98 3d 64
        E 0 9e 49 64
        E 241 88 3d 64
        E 0 8e 49 64
        E 0 8f 34 64
        E 0 98 38 64
        E 0 9e 44 64
        E 0 9f 35 59
        E 479 88 38 64
        E 0 8e 44 64
        E 1 98 38 64
        E 0 9e 44 64
        E 479 88 38 64
        E 0 8e 44 64
        E 0 98 3b 64
        E 0 9e 47 64
        E 480 88 3b 64
        E 0 8e 47 64
        E 0 98 3b 64
        E 1 9e 47 64
        E 239 88 3b 64
        E 0 8e 47 64
        E 0 98 39 64
        E 0 9e 45 64
        E 245 88 39 64
        E 0 8e 45 64
        E 1 8f 35 63
        E 0 98 36 64
        E 0 9e 42 64
        E 0 9f 36 5a
        E 474 88 36 64
        E 0 8e 42 64
        E 0 98 36 64
        E 0 9e 42 64
        E 480 88 36 64
        E 1 8e 42 64
        E 960 8f 36 64
        E 0 98 39 64
        E 0 9e 45 64
        E 0 9f 36 5a
        E 479 88 39 64
        E 0 8e 45 64
        E 1 98 39 64
        E 0 9e 45 64
        E 240 88 39 64
        E 0 8e 45 64
        E 0 98 39 64
        E 0 9e 45 64
        E 240 88 39 64
        E 1 8e 45 64
        E 1 98 39 64
        E 0 9e 45 64
        E 477 88 39 64
        E 0 8e 45 64
        E 1 98 38 64
        E 0 9e 44 64
        E 480 88 38 64
        E 0 8e 44 64
        E 0 8f 36 64
        E 0 98 38 64
        E 0 9e 44 64
        E 0 9f 30 59
        E 481 88 38 64
        E 0 8e 44 64
        E 0 98 38 64
        E 0 9e 44 64
        E 478 88 38 64
        E 0 8e 44 64
        E 480 98 38 64
        E 0 9e 44 64
        E 481 88 38 64
        E 0 8e 44 64
        E 0 8f 30 63
        E 0 98 3c 63
        E 0 9e 48 63
        E 0 9f 30 59
        E 479 88 3c 63
        E 0 8e 48 63
        E 0 98 3c 63
        E 0 9e 48 63
        E 480 88 3c 63
        E 0 8e 48 63
        E 0 98 3c 63
        E 0 9e 48 63
        E 481 88 3c 63
        E 0 8e 48 63
        E 0 98 3d 64
        E 0 9e 49 64
        E 481 88 3d 64
        E 0 8e 49 64
        E 0 8f 30 63
        E 0 98 38 64
        E 0 9e 44 64
        E 0 9f 34 5a
        E 960 88 38 64
        E 0 8e 44 64
        E 958 8f 34 64
        E 0 98 34 64
        E 0 9e 40 64
        E 0 9f 34 5a
        E 960 88 34 64
        E 0 8e 40 64
        E 0 98 34 64
        E 0 9e 40 64
        E 479 88 34 64
        E 0 8e 40 64
        E 1 98 34 64
        E 1 9e 40 64
        E 480 88 34 64
        E 0 8e 40 64
        E 0 8f 34 64
        E 0 98 39 64
        E 0 9e 45 64
        E 0 9f 31 5a
        E 479 88 39 64
        E 0 8e 45 64
        E 0 98 39 64
        E 0 9e 45 64
        E 480 88 39 64
        E 0 8e 45 64
        E 240 98 3b 64
        E 1 9e 49 64
        E 240 88 3b 64
        E 0 8e 49 64
        E 0 98 37 64
        E 0 9e 49 64
        E 238 88 37 64
        E 0 8e 49 64
        E 0 98 36 64
        E 0 9e 4a 64
        E 242 88 36 64
        E 0 8e 4a 64
        E 0 8f 31 64
        E 0 98 32 64
        E 0 9e 45 64
        E 0 9f 32 5a
        E 960 88 32 64
        E 0 8e 45 64
        E 960 98 36 64
        E 0 9e 42 64
        E 960 88 36 64
        E 0 8e 42 64
        E 479 98 36 64
        E 0 9e 42 64
        E 481 88 36 64
        E 0 8e 42 64
        E 0 8f 32 64
        E 0 98 36 64
        E 0 9e 42 64
        E 0 9f 32 5a
        E 479 88 36 64
        E 0 8e 42 64
        E 0 98 36 64
        E 0 9e 42 64
        E 480 88 36 64
        E 0 8e 42 64
        E 0 98 36 64
        E 1 9e 42 64
        E 480 88 36 64
        E 0 8e 42 64
        E 0 98 37 64
        E 0 9e 43 64
        E 479 88 37 64
        E 0 8e 43 64
        E 0 98 39 64
        E 0 9e 45 64
        E 480 88 39 64
        E 1 8e 45 64
        E 0 98 39 64
        E 0 9e 45 64
        E 480 88 39 64
        E 0 8e 45 64
        E 959 8f 32 64
        E 0 98 39 64
        E 0 9e 45 64
        E 0 9f 32 5a
        E 480 88 39 64
        E 0 8e 45 64
        E 0 98 39 64
        E 0 9e 45 64
        E 241 88 39 64
        E 0 8e 45 64
        E 0 98 39 64
        E 0 9e 45 64
        E 241 88 39 64
        E 0 8e 45 64
        E 0 98 3b 64
        E 0 9e 47 64
        E 479 88 3b 64
        E 0 8e 47 64
        E 0 98 3c 64
        E 0 9e 48 64
        E 479 88 3c 64
        E 0 8e 48 64
        E 0 8f 32 64
        E 0 98 36 64
        E 0 9e 42 64
        E 0 9f 30 5a
        E 481 88 36 64
        E 0 8e 42 64
        E 0 98 36 64
        E 0 9e 42 64
        E 481 88 36 64
        E 0 8e 42 64
        E 480 98 39 64
        E 0 9e 4a 64
        E 479 88 39 64
        E 0 8e 4a 64
        E 0 8f 30 64
        E 0 98 32 64
        E 0 9e 45 64
        E 0 9f 30 5a
        E 480 88 32 64
        E 0 8e 45 64
        E 0 98 32 64
        E 0 9e 45 64
        E 479 88 32 64
        E 0 8e 45 64
        E 480 98 3b 64
        E 0 9e 47 64
        E 480 88 3b 64
        E 0 8e 47 64
        E 0 8f 30 64
        E 0 98 37 64
        E 0 9e 43 64
        E 0 9f 2f 5a
        E 480 88 37 64
        E 0 8e 43 64
        E 1 98 37 64
        E 0 9e 43 64
        E 479 88 37 64
        E 0 8e 43 64
        E 480 98 32 64
        E 0 9e 43 64
        E 481 88 32 64
        E 0 8e 43 64
        E 0 8f 2f 64
        E 0 98 37 64
        E 0 9e 47 64
        E 0 9f 2f 5a
        E 479 88 37 64
        E 0 8e 47 64
        E 0 98 37 64
        E 0 9e 47 64
        E 479 88 37 64
        E 0 8e 47 64
        E 1 98 35 64
        E 0 9e 48 64
        E 480 88 35 64
        E 0 8e 48 64
        E 1 98 37 64
        E 0 9e 4a 64
        E 479 88 37 64
        E 0 8e 4a 64
        E 0 8f 2f 64
        E 0 98 34 64
        E 0 9e 4c 64
        E 1 9f 30 5a
        E 960 88 34 64
        E 0 8e 4c 64
        E 239 98 3c 64
        E 1 9e 4c 64
        E 240 88 3c 64
        E 0 8e 4c 64
        E 0 98 39 64
        E 0 9e 4b 64
        E 239 88 39 64
        E 0 8e 4b 64
        E 0 98 37 64
        E 0 9e 4c 64
        E 240 88 37 64
        E 0 8e 4c 64
        E 0 8f 30 64
        E 0 98 34 64
        E 0 9e 47 64
        E 0 9f 2f 5a
        E 480 88 34 64
        E 0 8e 47 64
        E 0 98 34 64
        E 0 9e 47 64
        E 480 88 34 64
        E 0 8e 47 64
        E 0 8f 2f 64
        E 0 9f 34 5a
        E 960 8f 34 64
        E 0 96 47 64
        E 0 9e 47 64
        E 0 9f 34 5a
        E 479 86 47 64
        E 0 8e 47 64
        E 0 96 47 64
        E 0 9e 47 64
        E 482 86 47 64
        E 0 8e 47 64
        E 0 96 43 64
        E 0 9e 43 64
        E 479 86 43 64
        E 0 8e 43 64
        E 0 96 43 64
        E 0 9e 43 64
        E 241 86 43 64
        E 0 8e 43 64
        E 1 96 42 64
        E 0 9e 42 64
        E 238 86 42 64
        E 0 8e 42 64
        E 0 8f 34 64
        E 0 96 42 64
        E 0 9e 42 64
        E 0 9f 2e 5a
        E 483 86 42 64
        E 0 8e 42 64
        E 0 96 42 64
        E 0 9e 42 64
        E 477 86 42 64
        E 0 8e 42 64
        E 480 96 42 64
        E 0 9e 42 64
        E 481 86 42 64
        E 1 8e 42 64
        E 0 96 42 64
        E 0 9e 42 64
        E 478 86 42 64
        E 0 8e 42 64
        E 0 96 42 64
        E 0 9e 42 64
        E 482 86 42 64
        E 0 8e 42 64
        E 0 96 42 64
        E 0 9e 42 64
        E 478 86 42 64
        E 0 8e 42 64
        E 0 96 43 64
        E 0 9e 43 64
        E 479 8f 2e 64
        E 0 86 43 64
        E 0 8e 43 64
        E 0 9f 2e 5a
        E 0 96 40 64
        E 0 9e 40 64
        E 481 86 40 64
        E 0 8e 40 64
        E 0 96 40 64
        E 0 9e 40 64
        E 480 86 40 64
        E 0 8e 40 64
        E 480 96 40 64
        E 0 9e 40 64
        E 481 86 40 64
        E 0 8e 40 64
        E 0 96 46 64
        E 0 9e 46 64
        E 479 86 46 64
        E 0 8e 46 64
        E 0 96 46 64
        E 2 9e 46 64
        E 478 86 46 64
        E 0 8e 46 64
        E 0 96 46 64
        E 0 9e 46 64
        E 480 86 46 64
        E 0 8e 46 64
        E 0 96 47 64
        E 1 9e 47 64
        E 480 86 47 64
        E 0 8e 47 64
        E 0 8f 2e 64
        E 0 96 42 64
        E 0 9e 42 64
        E 0 9f 32 5a
        E 961 86 42 64
        E 1 8e 42 64
        E 1438 96 47 64
        E 0 9e 47 64
        E 480 86 47 64
        E 0 8e 47 64
        E 0 96 47 64
        E 0 9e 47 64
        E 480 86 47 64
        E 0 8e 47 64
        E 1 96 47 64
        E 0 9e 47 64
        E 477 86 47 64
        E 0 8e 47 64
        E 1 8f 32 64
        E 0 96 44 64
        E 0 9e 44 64
        E 0 9f 32 5a
        E 481 86 44 64
        E 0 8e 44 64
        E 0 96 44 64
        E 0 9e 44 64
        E 480 86 44 64
        E 0 8e 44 64
        E 480 96 40 64
        E 0 9e 40 64
        E 239 86 40 64
        E 0 8e 40 64
        E 0 96 40 64
        E 0 9e 40 64
        E 240 86 40 64
        E 0 8e 40 64
        E 0 96 47 64
        E 0 9e 47 64
        E 959 86 47 64
        E 0 8e 47 64
        E 1 96 47 64
        E 0 9e 47 64
        E 480 86 47 64
        E 1 8e 47 64
        E 0 96 48 64
        E 0 9e 48 64
        E 480 86 48 64
        E 0 8e 48 64
        E 0 8f 32 64
        E 0 96 45 64
        E 0 9e 45 64
        E 0 9f 30 5a
        E 480 86 45 64
        E 0 8e 45 64
        E 0 96 45 64
        E 0 9e 45 64
        E 479 86 45 64
        E 0 8e 45 64
        E 240 96 40 64
        E 0 9e 40 64
        E 240 86 40 64
        E 0 8e 40 64
        E 0 96 40 64
        E 0 9e 40 64
        E 240 86 40 64
        E 0 8e 40 64
        E 0 96 41 64
        E 0 9e 41 64
        E 241 86 41 64
        E 0 8e 41 64
        E 0 8f 30 64
        E 0 96 41 64
        E 0 9e 41 64
        E 0 9f 2b 5a
        E 479 86 41 64
        E 0 8e 41 64
        E 1 96 41 64
        E 0 9e 41 64
        E 481 86 41 64
        E 0 8e 41 64
        E 479 96 3e 64
        E 0 9e 3e 64
        E 480 86 3e 64
        E 1 8e 3e 64
        E 0 8f 2b 64
        E 0 96 41 64
        E 0 9e 41 64
        E 0 9f 2b 5a
        E 478 86 41 64
        E 0 8e 41 64
        E 0 96 41 64
        E 0 9e 41 64
        E 481 86 41 64
        E 0 8e 41 64
        E 0 96 41 64
        E 0 9e 41 64
        E 479 86 41 64
        E 0 8e 41 64
        E 1 96 40 64
        E 1 9e 40 64
        E 479 86 40 64
        E 0 8e 40 64
        E 0 8f 2b 64
        E 0 96 40 64
        E 0 9e 40 64
        E 0 9f 30 5a
        E 478 86 40 64
        E 0 8e 40 64
        E 1 96 40 64
        E 0 9e 40 64
        E 482 86 40 64
        E 0 8e 40 64
        E 958 8f 30 64
        E 0 96 43 64
        E 0 9e 43 64
        E 0 9f 30 5a
        E 480 86 43 64
        E 0 8e 43 64
        E 0 96 43 64
        E 0 9e 43 64
        E 481 86 43 64
        E 0 8e 43 64
        E 0 96 43 64
        E 0 9e 43 64
        E 480 86 43 64
        E 0 8e 43 64
        E 0 96 41 64
        E 0 9e 41 64
        E 239 86 41 64
        E 1 8e 41 64
        E 0 96 43 64
        E 0 9e 43 64
        E 239 86 43 64
        E 0 8e 43 64
        E 0 8f 30 64
        E 0 96 45 64
        E 0 9e 45 64
        E 0 9f 35 5a
        E 480 86 45 64
        E 0 8e 45 64
        E 0 96 45 64
        E 0 9e 45 64
        E 480 86 45 64
        E 0 8e 45 64
        E 961 8f 35 64
        E 0 96 48 64
        E 0 9e 48 64
        E 0 9f 35 5a
        E 960 86 48 64
        E 0 8e 48 64
        E 1 96 47 64
        E 0 9e 47 64
        E 479 86 47 64
        E 0 8e 47 64
        E 0 96 48 64
        E 0 9e 48 64
        E 480 86 48 64
        E 0 8e 48 64
        E 0 8f 35 64
        E 0 96 43 64
        E 0 9e 43 64
        E 0 9f 37 5a
        E 479 86 43 64
        E 1 8e 43 64
        E 1 96 43 64
        E 1 9e 43 64
        E 478 86 43 64
        E 0 8e 43 64
        E 0 8f 37 64
        E 0 9f 30 5a
        E 1439 8f 30 64
        E 0 92 43 64
        E 0 93 3e 5a
        E 0 9f 37 5a
        E 240 8f 37 64
        E 0 9f 37 5a
        E 240 82 43 64
        E 0 83 3e 64
        E 0 8f 37 64
        E 0 92 45 64
        E 1 93 3e 5a
        E 0 9f 37 5a
        E 239 8f 37 64
        E 1 9f 37 5a
        E 240 82 45 64
        E 0 83 3e 64
        E 0 8f 37 64
        E 0 92 47 64
        E 1 93 3e 5a
        E 0 9f 37 5a
        E 239 8f 37 64
        E 1 9f 37 5a
        E 239 82 47 64
        E 0 83 3e 64
        E 0 8f 37 64
        E 0 92 48 64
        E 0 93 3e 5a
        E 0 9f 37 5a
        E 239 8f 37 64
        E 0 9f 37 5a
        E 243 82 48 64
        E 0 83 3e 64
        E 1 8f 37 64
        E 0 92 4a 64
        E 1 93 47 5a
        E 0 9f 37 5a
        E 235 8f 37 64
        E 0 9f 37 5a
        E 240 83 47 64
        E 0 8f 37 64
        E 0 93 47 5a
        E 0 9f 37 5a
        E 241 8f 37 64
        E 0 9f 37 5a
        E 239 82 4a 64
        E 0 83 47 64
        E 2 8f 37 64
        E 0 92 4a 64
        E 0 93 47 5a
        E 0 9f 37 5a
        E 237 8f 37 64
        E 0 9f 37 5a
        E 241 82 4a 64
        E 0 83 47 64
        E 0 8f 37 64
        E 0 92 4f 64
        E 0 93 47 5a
        E 0 9f 37 5a
        E 240 8f 37 64
        E 0 9f 37 5a
        E 240 82 4f 64
        E 1 83 47 64
        E 0 8f 37 64
        E 0 92 48 64
        E 0 93 45 5a
        E 0 9f 39 5a
        E 238 8f 39 64
        E 0 9f 39 5a
        E 242 83 45 64
        E 0 8f 39 64
        E 0 93 45 5a
        E 0 9f 39 5a
        E 239 8f 39 64
        E 0 9f 39 5a
        E 241 82 48 64
        E 0 83 45 64
        E 0 8f 39 64
        E 0 92 48 64
        E 0 93 42 5a
        E 0 9f 32 5a
        E 240 8f 32 64
        E 0 9f 32 5a
        E 240 82 48 64
        E 0 83 42 64
        E 0 8f 32 64
        E 0 92 51 64
        E 0 93 42 5a
        E 0 9f 32 5a
        E 239 8f 32 64
        E 0 9f 32 5a
        E 240 82 51 64
        E 0 83 42 64
        E 2 8f 32 64
        E 1 92 47 64
        E 0 93 3e 5a
        E 1 9f 2b 5a
        E 237 8f 2b 64
        E 0 9f 2b 5a
        E 238 82 47 64
        E 0 83 3e 64
        E 0 8f 2b 64
        E 0 92 45 64
        E 0 93 3e 5a
        E 1 9f 2b 5a
        E 245 8f 2b 64
        E 0 9f 2b 5a
        E 235 82 45 64
        E 1 83 3e 64
        E 2 8f 2b 64
        E 0 92 43 64
        E 0 93 3e 5a
        E 0 9f 2b 5a
        E 237 8f 2b 64
        E 0 9f 2b 5a
        E 241 83 3e 64
        E 0 8f 2b 64
        E 1 93 3e 5a
        E 0 9f 2b 5a
        E 238 8f 2b 64
        E 1 9f 2b 5a
        E 239 82 43 64
        E 0 83 3e 64
        E 0 8f 2b 64
        E 0 92 43 64
        E 0 93 3e 5a
        E 0 9f 2b 5a
        E 241 8f 2b 64
        E 0 9f 2b 5a
        E 238 82 43 64
        E 0 83 3e 64
        E 0 8f 2b 64
        E 0 92 42 64
        E 1 93 3e 5a
        E 0 9f 2b 5a
        E 241 8f 2b 64
        E 1 9f 2b 5a
        E 239 82 42 64
        E 0 83 3e 64
        E 0 8f 2b 64
        E 1 92 40 64
        E 0 93 3e 5a
        E 2 9f 2b 5a
        E 235 8f 2b 64
        E 1 9f 2b 5a
        E 240 82 40 64
        E 0 83 3e 64
        E 0 8f 2b 64
        E 0 92 3e 64
        E 1 93 3e 5a
        E 0 9f 2b 5a
        E 239 8f 2b 64
        E 1 9f 2b 5a
        E 240 82 3e 64
        E 0 83 3e 64
        E 0 8f 2b 64
        E 0 92 40 64
        E 0 93 3c 5a
        E 0 9f 2b 5a
        E 240 8f 2b 64
        E 0 9f 2b 5a
        E 241 83 3c 64
        E 0 8f 2b 64
        E 0 93 3c 5a
        E 1 9f 2b 5a
        E 238 8f 2b 64
        E 0 9f 2b 5a
        E 239 82 40 64
        E 0 83 3c 64
        E 0 8f 2b 64
        E 0 92 3e 64
        E 0 93 37 5a
        E 0 9f 2b 5a
        E 241 8f 2b 64
        E 0 9f 2b 5a
        E 239 82 3e 64
        E 0 83 37 64
        E 0 8f 2b 64
        E 0 92 43 64
        E 0 93 37 5a
        E 1 9f 2b 5a
        E 239 8f 2b 64
        E 0 9f 2b 5a
        E 241 82 43 64
        E 0 83 37 64
        E 0 8f 2b 64
        E 0 92 40 64
        E 0 93 3c 5a
        E 0 9f 2b 5a
        E 241 8f 2b 64
        E 1 9f 2b 5a
        E 238 83 3c 64
        E 0 8f 2b 64
        E 1 93 3c 5a
        E 0 9f 2b 5a
        E 239 8f 2b 64
        E 0 9f 2b 5a
        E 242 82 40 64
        E 0 83 3c 64
        E 0 8f 2b 64
        E 0 92 3e 64
        E 0 93 37 5a
        E 0 9f 2b 5a
        E 236 8f 2b 64
        E 0 9f 2b 5a
        E 241 82 3e 64
        E 0 83 37 64
        E 1 8f 2b 64
        E 1 92 43 64
        E 0 93 37 5a
        E 0 9f 2b 5a
        E 238 8f 2b 64
        E 0 9f 2b 5a
        E 240 82 43 64
        E 0 83 37 64
        E 0 8f 2b 64
        E 0 92 40 64
        E 0 93 3c 5a
        E 1 9f 2b 5a
        E 240 8f 2b 64
        E 0 9f 2b 5a
        E 241 83 3c 64
        E 0 8f 2b 64
        E 0 93 3c 5a
        E 0 9f 2b 5a
        E 238 8f 2b 64
        E 0 9f 2b 5a
        E 241 82 40 64
        E 1 83 3c 64
        E 0 8f 2b 64
        E 0 92 3e 64
        E 0 93 37 5a
        E 0 9f 2b 5a
        E 239 8f 2b 64
        E 0 9f 2b 5a
        E 240 83 37 64
        E 0 8f 2b 64
        E 0 93 37 5a
        E 0 9f 2b 5a
        E 240 8f 2b 64
        E 0 9f 2b 5a
        E 239 82 3e 64
        E 0 83 37 64
        E 0 8f 2b 64
        E 0 92 4a 64
        E 0 93 42 5a
        E 0 9f 32 5a
        E 240 8f 32 64
        E 0 9f 32 5a
        E 239 82 4a 64
        E 0 83 42 64
        E 0 8f 32 64
        E 1 92 49 64
        E 0 93 42 5a
        E 0 9f 32 5a
        E 241 8f 32 64
        E 0 9f 32 5a
        E 240 82 49 64
        E 0 83 42 64
        E 0 8f 32 64
        E 0 92 47 64
        E 0 93 42 5a
        E 0 9f 32 5a
        E 239 8f 32 64
        E 0 9f 32 5a
        E 239 82 47 64
        E 0 83 42 64
        E 0 8f 32 64
        E 1 92 45 64
        E 0 93 42 5a
        E 0 9f 32 5a
        E 241 8f 32 64
        E 0 9f 32 5a
        E 239 82 45 64
        E 0 83 42 64
        E 0 8f 32 64
        E 0 92 47 64
        E 0 93 43 5a
        E 0 9f 32 5a
        E 239 8f 32 64
        E 0 9f 32 5a
        E 241 83 43 64
        E 0 8f 32 64
        E 0 93 43 5a
        E 0 9f 32 5a
        E 242 8f 32 64
        E 0 9f 32 5a
        E 239 82 47 64
        E 0 83 43 64
        E 0 8f 32 64
        E 1 92 45 64
        E 0 93 3e 5a
        E 0 9f 32 5a
        E 239 8f 32 64
        E 0 9f 32 5a
        E 239 82 45 64
        E 0 83 3e 64
        E 0 8f 32 64
        E 0 92 4a 64
        E 0 93 3e 5a
        E 0 9f 32 5a
        E 241 8f 32 64
        E 0 9f 32 5a
        E 241 82 4a 64
        E 0 83 3e 64
        E 0 8f 32 64
        E 0 92 47 64
        E 0 93 43 5a
        E 0 9f 32 5a
        E 238 8f 32 64
        E 0 9f 32 5a
        E 242 83 43 64
        E 0 8f 32 64
        E 0 93 43 5a
        E 0 9f 32 5a
        E 238 8f 32 64
        E 0 9f 32 5a
        E 240 82 47 64
        E 0 83 43 64
        E 0 8f 32 64
        E 0 92 45 64
        E 0 93 3e 5a
        E 1 9f 32 5a
        E 239 8f 32 64
        E 0 9f 32 5a
        E 240 82 45 64
        E 0 83 3e 64
        E 0 8f 32 64
        E 0 92 4a 64
        E 0 93 3e 5a
        E 0 9f 32 5a
        E 241 8f 32 64
        E 0 9f 32 5a
        E 239 82 4a 64
        E 0 83 3e 64
        E 0 8f 32 64
        E 0 92 47 64
        E 0 93 43 5a
        E 0 9f 32 5a
        E 241 8f 32 64
        E 1 9f 32 5a
        E 239 83 43 64
        E 0 8f 32 64
        E 1 93 43 5a
        E 0 9f 32 5a
        E 239 8f 32 64
        E 0 9f 32 5a
        E 240 82 47 64
        E 0 83 43 64
        E 0 8f 32 64
        E 0 92 45 64
        E 0 93 3e 5a
        E 0 9f 32 5a
        E 239 8f 32 64
        E 0 9f 32 5a
        E 242 83 3e 64
        E 0 8f 32 64
        E 0 93 3e 5a
        E 0 9f 32 5a
        E 238 8f 32 64
        E 0 9f 32 5a
        E 241 82 45 64
        E 0 83 3e 64
        E 0 8f 32 64
        E 0 92 56 64
        E 0 93 42 5a
        E 0 9f 3e 5a
        E 240 8f 3e 64
        E 0 9f 3e 5a
        E 240 83 42 64
        E 0 8f 3e 64
        E 0 93 42 5a
        E 0 9f 3e 5a
        E 239 8f 3e 64
        E 0 9f 3e 5a
        E 241 82 56 64
        E 0 83 42 64
        E 0 8f 3e 64
        E 0 92 56 64
        E 0 93 40 5a
        E 1 9f 3d 5a
        E 238 8f 3d 64
        E 0 9f 3d 5a
        E 241 83 40 64
        E 0 8f 3d 64
        E 0 93 40 5a
        E 0 9f 3d 5a
        E 240 8f 3d 64
        E 0 9f 3d 5a
        E 239 82 56 64
        E 0 83 40 64
        E 0 8f 3d 64
        E 1 92 56 64
        E 0 93 3e 5a
        E 0 9f 3b 5a
        E 239 8f 3b 64
        E 0 9f 3b 5a
        E 240 83 3e 64
        E 0 8f 3b 64
        E 0 93 3e 5a
        E 0 9f 3b 5a
        E 240 8f 3b 64
        E 0 9f 3b 5a
        E 240 82 56 64
        E 0 83 3e 64
        E 0 8f 3b 64
        E 0 92 56 64
        E 5 93 3d 5a
        E 0 9f 39 5a
        E 236 8f 39 64
        E 0 9f 39 5a
        E 240 83 3d 64
        E 0 8f 39 64
        E 0 93 3d 5a
        E 1 9f 39 5a
        E 237 8f 39 64
        E 0 9f 39 5a
        E 256 82 56 64
        E 0 83 3d 64
        E 0 8f 39 64
        E 0 92 56 64
        E 0 93 3b 5a
        E 0 9f 37 5a
        E 225 8f 37 64
        E 0 9f 37 5a
        E 241 83 3b 64
        E 0 8f 37 64
        E 0 93 3b 5a
        E 0 9f 37 5a
        E 240 8f 37 64
        E 0 9f 37 5a
        E 239 82 56 64
        E 0 83 3b 64
        E 0 8f 37 64
        E 0 92 56 64
        E 0 93 39 5a
        E 0 9f 36 5a
        E 240 8f 36 64
        E 0 9f 36 5a
        E 240 83 39 64
        E 0 8f 36 64
        E 0 93 39 5a
        E 0 9f 36 5a
        E 241 8f 36 64
        E 0 9f 36 5a
        E 240 82 56 64
        E 0 83 39 64
        E 0 8f 36 64
        E 0 92 56 64
        E 0 93 37 5a
        E 0 9f 34 5a
        E 239 8f 34 64
        E 0 9f 34 5a
        E 240 83 37 64
        E 0 8f 34 64
        E 0 93 37 5a
        E 0 9f 34 5a
        E 239 8f 34 64
        E 0 9f 34 5a
        E 243 82 56 64
        E 0 83 37 64
        E 0 8f 34 64
        E 0 92 56 64
        E 0 93 36 5a
        E 0 9f 32 5a
        E 237 8f 32 64
        E 0 9f 32 5a
        E 242 82 56 64
        E 1 83 36 64
        E 0 8f 32 64
        E 0 92 51 64
        E 0 93 36 5a
        E 1 9f 32 5a
        E 237 8f 32 64
        E 0 9f 32 5a
        E 241 82 51 64
        E 0 83 36 64
        E 0 8f 32 64
        E 0 92 4f 64
        E 0 93 3e 5a
        E 0 9f 32 5a
        E 239 8f 32 64
        E 0 9f 31 5a
        E 241 82 4f 64
        E 0 83 3e 64
        E 0 8f 31 64
        E 2 92 4e 64
        E 0 93 3e 5a
        E 0 9f 32 5a
        E 237 8f 32 64
        E 0 9f 34 5a
        E 240 82 4e 64
        E 2 83 3e 64
        E 1 8f 34 64
        E 1 92 4c 64
        E 0 93 3e 5a
        E 0 9f 36 5a
        E 237 8f 36 64
        E 0 9f 34 5a
        E 239 82 4c 64
        E 0 83 3e 64
        E 0 8f 34 64
        E 0 92 4a 64
        E 1 93 3e 5a
        E 0 9f 36 5a
        E 239 8f 36 64
        E 0 9f 37 5a
        E 241 82 4a 64
        E 0 83 3e 64
        E 0 8f 37 64
        E 1 92 51 64
        E 0 93 3d 5a
        E 0 9f 39 5a
        E 238 8f 39 64
        E 0 9f 37 5a
        E 242 83 3d 64
        E 0 8f 37 64
        E 0 93 3d 5a
        E 1 9f 39 5a
        E 237 8f 39 64
        E 0 9f 3b 5a
        E 241 82 51 64
        E 0 83 3d 64
        E 0 8f 3b 64
        E 0 93 39 5a
        E 0 9f 39 5a
        E 240 8f 39 64
        E 1 9f 37 5a
        E 239 83 39 64
        E 0 8f 37 64
        E 1 92 45 64
        E 0 93 3e 5a
        E 1 9f 36 5a
        E 237 8f 36 64
        E 0 9f 34 5a
        E 240 82 45 64
        E 0 83 3e 64
        E 0 8f 34 64
        E 0 92 47 64
        E 0 93 3e 5a
        E 0 9f 32 5a
        E 240 8f 32 64
        E 0 9f 32 5a
        E 240 83 3e 64
        E 0 8f 32 64
        E 0 93 3e 5a
        E 0 9f 32 5a
        E 241 8f 32 64
        E 0 9f 32 5a
        E 244 82 47 64
        E 0 83 3e 64
        E 0 8f 32 64
        E 0 92 45 64
        E 0 93 3e 5a
        E 0 9f 32 5a
        E 237 8f 32 64
        E 0 9f 32 5a
        E 239 82 45 64
        E 0 83 3e 64
        E 0 8f 32 64
        E 0 92 4a 64
        E 0 93 3e 5a
        E 1 9f 32 5a
        E 238 8f 32 64
        E 0 9f 32 5a
        E 242 82 4a 64
        E 0 83 3e 64
        E 0 8f 32 64
        E 1 92 43 64
        E 0 93 3e 5a
        E 0 9f 32 5a
        E 237 8f 32 64
        E 2 9f 32 5a
        E 237 83 3e 64
        E 0 8f 32 64
        E 1 93 3e 5a
        E 3 9f 32 5a
        E 237 8f 32 64
        E 0 9f 32 5a
        E 240 82 43 64
        E 0 83 3e 64
        E 0 8f 32 64
        E 0 92 42 64
        E 0 93 3e 5a
        E 0 9f 32 5a
        E 240 8f 32 64
        E 0 9f 32 5a
        E 241 82 42 64
        E 0 83 3e 64
        E 0 8f 32 64
        E 0 92 45 64
        E 0 93 3e 5a
        E 1 9f 32 5a
        E 239 8f 32 64
        E 0 9f 32 5a
        E 239 82 45 64
        E 0 83 3e 64
        E 0 8f 32 64
        E 0 92 4a 64
        E 0 93 42 5a
        E 0 9f 32 5a
        E 240 8f 32 64
        E 0 9f 32 5a
        E 240 82 4a 64
        E 0 83 42 64
        E 0 8f 32 64
        E 1 92 49 64
        E 0 93 42 5a
        E 0 9f 32 5a
        E 238 82 49 64
        E 0 8f 32 64
        E 0 92 4a 64
        E 0 9f 32 5a
        E 241 82 4a 64
        E 0 83 42 64
        E 0 8f 32 64
        E 0 92 40 64
        E 0 93 3d 5a
        E 0 9f 2d 5a
        E 240 8f 2d 64
        E 0 9f 2d 5a
        E 240 82 40 64
        E 0 83 3d 64
        E 0 8f 2d 64
        E 0 92 43 64
        E 0 93 3d 5a
        E 0 9f 2d 5a
        E 240 8f 2d 64
        E 0 9f 2d 5a
        E 240 82 43 64
        E 0 83 3d 64
        E 0 8f 2d 64
        E 0 92 42 64
        E 0 93 39 5a
        E 0 9f 32 5a
        E 240 8f 32 64
        E 0 9f 32 5a
        E 240 82 42 64
        E 0 83 39 64
        E 0 8f 32 64
        E 0 92 40 64
        E 0 93 39 5a
        E 0 9f 32 5a
        E 239 8f 32 64
        E 0 9f 32 5a
        E 244 82 40 64
        E 0 83 39 64
        E 0 8f 32 64
        E 0 92 3e 64
        E 0 93 39 5a
        E 0 9f 32 5a
        E 236 8f 32 64
        E 0 9f 32 5a
        E 240 82 3e 64
        E 1 83 39 64
        E 0 8f 32 64
        E 0 92 51 64
        E 0 93 39 5a
        E 0 9f 32 5a
        E 240 8f 32 64
        E 0 9f 32 5a
        E 240 82 51 64
        E 0 83 39 64
        E 0 8f 32 64
        E 0 92 51 64
        E 0 93 48 5a
        E 0 9f 39 5a
        E 240 8f 39 64
        E 0 9f 39 5a
        E 242 83 48 64
        E 0 8f 39 64
        E 0 93 48 5a
        E 0 9f 39 5a
        E 239 8f 39 64
        E 1 9f 39 5a
        E 239 82 51 64
        E 0 83 48 64
        E 0 8f 39 64
        E 0 92 51 64
        E 0 93 47 5a
        E 0 9f 37 5a
        E 238 8f 37 64
        E 1 9f 37 5a
        E 240 83 47 64
        E 0 8f 37 64
        E 0 93 47 5a
        E 0 9f 37 5a
        E 240 8f 37 64
        E 0 9f 37 5a
        E 240 82 51 64
        E 0 83 47 64
        E 0 8f 37 64
        E 0 92 51 64
        E 0 93 45 5a
        E 0 9f 36 5a
        E 239 8f 36 64
        E 0 9f 36 5a
        E 242 83 45 64
        E 0 8f 36 64
        E 0 93 45 5a
        E 1 9f 36 5a
        E 238 8f 36 64
        E 0 9f 36 5a
        E 241 82 51 64
        E 0 83 45 64
        E 0 8f 36 64
        E 0 92 51 64
        E 0 93 43 5a
        E 0 9f 34 5a
        E 240 8f 34 64
        E 0 9f 34 5a
        E 238 83 43 64
        E 1 8f 34 64
        E 0 93 43 5a
        E 0 9f 34 5a
        E 241 8f 34 64
        E 0 9f 34 5a
        E 239 82 51 64
        E 0 83 43 64
        E 0 8f 34 64
        E 0 92 51 64
        E 0 93 42 5a
        E 0 9f 32 5a
        E 241 8f 32 64
        E 0 9f 32 5a
        E 238 83 42 64
        E 0 8f 32 64
        E 0 93 42 5a
        E 0 9f 32 5a
        E 241 8f 32 64
        E 0 9f 32 5a
        E 240 82 51 64
        E 0 83 42 64
        E 0 8f 32 64
        E 0 92 51 64
        E 1 93 40 5a
        E 0 9f 31 5a
        E 240 8f 31 64
        E 0 9f 31 5a
        E 240 83 40 64
        E 0 8f 31 64
        E 0 93 40 5a
        E 0 9f 31 5a
        E 241 8f 31 64
        E 0 9f 31 5a
        E 237 82 51 64
        E 0 83 40 64
        E 0 8f 31 64
        E 0 92 56 64
        E 0 93 42 5a
        E 0 9f 32 5a
        E 241 8f 32 64
        E 1 9f 32 5a
        E 240 82 56 64
        E 0 83 42 64
        E 0 8f 32 64
        E 1 92 55 64
        E 0 93 42 5a
        E 0 9f 32 5a
        E 238 82 55 64
        E 0 8f 32 64
        E 0 92 53 64
        E 0 9f 32 5a
        E 240 82 53 64
        E 0 83 42 64
        E 0 8f 32 64
        E 0 92 51 64
        E 0 93 40 5a
        E 0 9f 31 5a
        E 240 8f 31 64
        E 0 9f 31 5a
        E 240 82 51 64
        E 0 83 40 64
        E 0 8f 31 64
        E 0 92 4f 64
        E 0 93 40 5a
        E 0 9f 31 5a
        E 241 8f 31 64
        E 0 9f 31 5a
        E 240 82 4f 64
        E 0 83 40 64
        E 0 8f 31 64
        E 0 92 4e 64
        E 0 93 39 5a
        E 0 9f 32 5a
        E 239 8f 32 64
        E 0 9f 32 5a
        E 241 82 4e 64
        E 0 83 39 64
        E 0 8f 32 64
        E 0 92 4c 64
        E 0 93 39 5a
        E 0 9f 32 5a
        E 240 82 4c 64
        E 0 8f 32 64
        E 0 92 4a 64
        E 0 9f 32 5a
        E 239 82 4a 64
        E 0 83 39 64
        E 0 8f 32 64
        E 0 92 4c 64
        E 0 93 3d 5a
        E 1 9f 2d 5a
        E 241 8f 2d 64
        E 0 9f 2d 5a
        E 238 83 3d 64
        E 0 8f 2d 64
        E 0 93 3d 5a
        E 1 9f 2d 5a
        E 239 8f 2d 64
        E 0 9f 2d 5a
        E 240 82 4c 64
        E 0 83 3d 64
        E 0 8f 2d 64
        E 0 92 4a 64
        E 0 93 3e 5a
        E 0 9f 32 5a
        E 961 82 4a 64
        E 1 83 3e 64
        E 0 8f 32 64
        E 957 92 43 64
        E 1 93 3e 5a
        E 0 96 43 64
        E 0 9f 37 5a
        E 241 8f 37 64
        E 0 9f 37 5a
        E 239 82 43 64
        E 0 83 3e 64
        E 0 86 43 64
        E 0 8f 37 64
        E 0 92 45 64
        E 0 93 3e 5a
        E 0 96 45 64
        E 0 9f 37 5a
        E 241 8f 37 64
        E 0 9f 37 5a
        E 240 82 45 64
        E 0 83 3e 64
        E 0 86 45 64
        E 0 8f 37 64
        E 0 92 47 64
        E 0 93 3e 5a
        E 0 96 47 64
        E 0 9f 37 5a
        E 238 8f 37 64
        E 1 9f 37 5a
        E 240 82 47 64
        E 0 83 3e 64
        E 0 86 47 64
        E 0 8f 37 64
        E 0 92 48 64
        E 0 93 3e 5a
        E 0 96 48 64
        E 1 9f 37 5a
        E 238 8f 37 64
        E 1 9f 37 5a
        E 244 82 48 64
        E 0 83 3e 64
        E 0 86 48 64
        E 0 8f 37 64
        E 0 92 4a 64
        E 0 93 47 5a
        E 0 96 4a 64
        E 0 9f 37 5a
        E 236 8f 37 64
        E 0 9f 37 5a
        E 242 83 47 64
        E 0 8f 37 64
        E 0 93 47 5a
        E 1 9f 37 5a
        E 238 8f 37 64
        E 1 9f 37 5a
        E 241 82 4a 64
        E 0 83 47 64
        E 0 86 4a 64
        E 0 8f 37 64
        E 0 92 4a 64
        E 0 93 47 5a
        E 0 96 4a 64
        E 0 9f 37 5a
        E 236 8f 37 64
        E 0 9f 37 5a
        E 243 82 4a 64
        E 0 83 47 64
        E 0 86 4a 64
        E 0 8f 37 64
        E 0 92 4f 64
        E 0 93 47 5a
        E 0 96 48 64
        E 0 9f 37 5a
        E 238 86 48 64
        E 0 8f 37 64
        E 0 96 47 64
        E 0 9f 37 5a
        E 240 82 4f 64
        E 0 83 47 64
        E 0 86 47 64
        E 0 8f 37 64
        E 0 92 48 64
        E 0 93 45 5a
        E 0 96 48 64
        E 0 9f 39 5a
        E 240 8f 39 64
        E 0 9f 39 5a
        E 240 83 45 64
        E 0 8f 39 64
        E 0 93 45 5a
        E 0 9f 39 5a
        E 240 8f 39 64
        E 0 9f 39 5a
        E 240 82 48 64
        E 0 83 45 64
        E 0 86 48 64
        E 0 8f 39 64
        E 0 92 48 64
        E 1 93 42 5a
        E 0 96 48 64
        E 0 9f 32 5a
        E 239 8f 32 64
        E 1 9f 32 5a
        E 239 82 48 64
        E 0 83 42 64
        E 0 86 48 64
        E 0 8f 32 64
        E 0 92 51 64
        E 0 93 42 5a
        E 0 96 47 64
        E 0 9f 32 5a
        E 241 86 47 64
        E 0 8f 32 64
        E 0 96 45 64
        E 0 9f 32 5a
        E 240 82 51 64
        E 0 83 42 64
        E 0 86 45 64
        E 0 8f 32 64
        E 0 92 47 64
        E 0 93 3e 5a
        E 0 96 47 64
        E 0 9f 2b 5a
        E 240 8f 2b 64
        E 0 9f 2b 5a
        E 239 82 47 64
        E 0 83 3e 64
        E 0 86 47 64
        E 0 8f 2b 64
        E 0 92 45 64
        E 0 93 3e 5a
        E 0 96 45 64
        E 0 9f 2b 5a
        E 241 8f 2b 64
        E 0 9f 2b 5a
        E 239 82 45 64
        E 0 83 3e 64
        E 0 86 45 64
        E 0 8f 2b 64
        E 0 92 43 64
        E 0 93 3e 5a
        E 0 96 43 64
        E 0 9f 2b 5a
        E 242 8f 2b 64
        E 0 9f 2b 5a
        E 237 83 3e 64
        E 0 8f 2b 64
        E 0 93 3e 5a
        E 0 9f 2b 5a
        E 241 8f 2b 64
        E 0 9f 2b 5a
        E 247 82 43 64
        E 0 83 3e 64
        E 0 86 43 64
        E 0 8f 2b 64
        E 0 92 43 64
        E 0 93 3e 5a
        E 0 96 43 64
        E 0 9f 2b 5a
        E 236 8f 2b 64
        E 1 9f 2b 5a
        E 235 82 43 64
        E 0 83 3e 64
        E 0 86 43 64
        E 0 8f 2b 64
        E 1 92 42 64
        E 0 93 3e 5a
        E 1 96 42 64
        E 0 9f 2b 5a
        E 239 8f 2b 64
        E 1 9f 2b 5a
        E 239 82 42 64
        E 0 83 3e 64
        E 0 86 42 64
        E 0 8f 2b 64
        E 0 92 40 64
        E 1 93 3e 5a
        E 0 96 40 64
        E 8 9f 2b 5a
        E 231 8f 2b 64
        E 0 9f 2b 5a
        E 240 82 40 64
        E 0 83 3e 64
        E 0 86 40 64
        E 1 8f 2b 64
        E 0 92 3e 64
        E 0 93 3e 5a
        E 0 96 3e 64
        E 0 9f 2b 5a
        E 239 8f 2b 64
        E 0 9f 2b 5a
        E 240 82 3e 64
        E 0 83 3e 64
        E 0 86 3e 64
        E 0 8f 2b 64
        E 0 92 40 64
        E 0 93 3c 5a
        E 0 96 40 64
        E 0 9f 2b 5a
        E 240 8f 2b 64
        E 0 9f 2b 5a
        E 240 83 3c 64
        E 0 8f 2b 64
        E 0 93 3c 5a
        E 0 9f 2b 5a
        E 240 8f 2b 64
        E 0 9f 2b 5a
        E 240 82 40 64
        E 0 83 3c 64
        E 0 86 40 64
        E 0 8f 2b 64
        E 1 92 3e 64
        E 0 93 37 5a
        E 0 96 3e 64
        E 0 9f 2b 5a
        E 239 8f 2b 64
        E 0 9f 2b 5a
        E 241 82 3e 64
        E 0 83 37 64
        E 0 86 3e 64
        E 0 8f 2b 64
        E 0 92 43 64
        E 0 93 37 5a
        E 0 96 43 64
        E 0 9f 2b 5a
        E 240 8f 2b 64
        E 0 9f 2b 5a
        E 239 82 43 64
        E 1 83 37 64
        E 0 86 43 64
        E 0 8f 2b 64
        E 0 92 40 64
        E 0 93 3c 5a
        E 0 96 40 64
        E 0 9f 2b 5a
        E 239 8f 2b 64
        E 0 9f 2b 5a
        E 240 83 3c 64
        E 0 8f 2b 64
        E 0 93 3c 5a
        E 0 9f 2b 5a
        E 241 8f 2b 64
        E 0 9f 2b 5a
        E 240 82 40 64
        E 0 83 3c 64
        E 0 86 40 64
        E 0 8f 2b 64
        E 0 92 3e 64
        E 0 93 37 5a
        E 0 96 3e 64
        E 1 9f 2b 5a
        E 238 8f 2b 64
        E 0 9f 2b 5a
        E 240 82 3e 64
        E 0 83 37 64
        E 0 86 3e 64
        E 0 8f 2b 64
        E 0 92 43 64
        E 1 93 37 5a
        E 0 96 43 64
        E 0 9f 2b 5a
        E 239 8f 2b 64
        E 1 9f 2b 5a
        E 240 82 43 64
        E 0 83 37 64
        E 0 86 43 64
        E 0 8f 2b 64
        E 0 92 40 64
        E 0 93 3c 5a
        E 0 96 40 64
        E 0 9f 2b 5a
        E 240 8f 2b 64
        E 1 9f 2b 5a
        E 239 83 3c 64
        E 0 8f 2b 64
        E 0 93 3c 5a
        E 0 9f 2b 5a
        E 239 8f 2b 64
        E 0 9f 2b 5a
        E 240 82 40 64
        E 0 83 3c 64
        E 0 86 40 64
        E 0 8f 2b 64
        E 0 92 3e 64
        E 0 93 37 5a
        E 0 96 3e 64
        E 0 9f 2b 5a
        E 241 8f 2b 64
        E 1 9f 2b 5a
        E 238 83 37 64
        E 0 8f 2b 64
        E 0 93 37 5a
        E 0 9f 2b 5a
        E 240 8f 2b 64
        E 0 9f 2b 5a
        E 241 82 3e 64
        E 0 83 37 64
        E 0 86 3e 64
        E 0 8f 2b 64
        E 1 92 4a 64
        E 0 93 42 5a
        E 0 96 4a 64
        E 0 9f 32 5a
        E 239 8f 32 64
        E 0 9f 32 5a
        E 240 82 4a 64
        E 0 83 42 64
        E 0 86 4a 64
        E 0 8f 32 64
        E 0 92 48 64
        E 0 93 42 5a
        E 0 96 48 64
        E 0 9f 32 5a
        E 238 8f 32 64
        E 0 9f 32 5a
        E 242 82 48 64
        E 0 83 42 64
        E 0 86 48 64
        E 0 8f 32 64
        E 0 92 47 64
        E 0 93 42 5a
        E 0 96 47 64
        E 1 9f 32 5a
        E 237 8f 32 64
        E 0 9f 32 5a
        E 240 82 47 64
        E 0 83 42 64
        E 0 86 47 64
        E 1 8f 32 64
        E 0 92 45 64
        E 0 93 42 5a
        E 0 96 45 64
        E 0 9f 32 5a
        E 240 8f 32 64
        E 1 9f 32 5a
        E 239 82 45 64
        E 0 83 42 64
        E 0 86 45 64
        E 0 8f 32 64
        E 0 92 47 64
        E 0 93 43 5a
        E 0 96 47 64
        E 0 9f 32 5a
        E 240 8f 32 64
        E 0 9f 32 5a
        E 239 83 43 64
        E 0 8f 32 64
        E 0 93 43 5a
        E 0 9f 32 5a
        E 242 8f 32 64
        E 0 9f 32 5a
        E 241 82 47 64
        E 0 83 43 64
        E 0 86 47 64
        E 0 8f 32 64
        E 0 92 45 64
        E 0 93 3e 5a
        E 0 96 45 64
        E 0 9f 32 5a
        E 237 8f 32 64
        E 0 9f 32 5a
        E 241 82 45 64
        E 0 83 3e 64
        E 0 86 45 64
        E 0 8f 32 64
        E 0 92 4a 64
        E 0 93 3e 5a
        E 0 96 4a 64
        E 0 9f 32 5a
        E 240 8f 32 64
        E 0 9f 32 5a
        E 242 82 4a 64
        E 0 83 3e 64
        E 0 86 4a 64
        E 0 8f 32 64
        E 0 92 47 64
        E 0 93 43 5a
        E 0 96 47 64
        E 0 9f 32 5a
        E 238 8f 32 64
        E 0 9f 32 5a
        E 240 83 43 64
        E 0 8f 32 64
        E 0 93 43 5a
        E 0 9f 32 5a
        E 241 8f 32 64
        E 0 9f 32 5a
        E 241 82 47 64
        E 0 83 43 64
        E 0 86 47 64
        E 0 8f 32 64
        E 0 92 45 64
        E 0 93 3e 5a
        E 0 96 45 64
        E 0 9f 32 5a
        E 238 8f 32 64
        E 0 9f 32 5a
        E 242 82 45 64
        E 0 83 3e 64
        E 0 86 45 64
        E 0 8f 32 64
        E 0 92 4a 64
        E 0 93 3e 5a
        E 0 96 4a 64
        E 0 9f 32 5a
        E 239 8f 32 64
        E 1 9f 32 5a
        E 237 82 4a 64
        E 1 83 3e 64
        E 0 86 4a 64
        E 0 8f 32 64
        E 0 92 47 64
        E 0 93 43 5a
        E 0 96 47 64
        E 0 9f 32 5a
        E 240 8f 32 64
        E 0 9f 32 5a
        E 240 83 43 64
        E 0 8f 32 64
        E 0 93 43 5a
        E 0 9f 32 5a
        E 241 8f 32 64
        E 0 9f 32 5a
        E 240 82 47 64
        E 0 83 43 64
        E 0 86 47 64
        E 0 8f 32 64
        E 0 92 45 64
        E 0 93 3e 5a
        E 0 96 45 64
        E 1 9f 32 5a
        E 239 8f 32 64
        E 0 9f 32 5a
        E 239 83 3e 64
        E 0 8f 32 64
        E 0 93 3e 5a
        E 0 9f 32 5a
        E 241 8f 32 64
        E 0 9f 32 5a
        E 238 82 45 64
        E 0 83 3e 64
        E 0 86 45 64
        E 0 8f 32 64
        E 0 92 56 64
        E 0 93 42 5a
        E 0 96 4a 64
        E 1 9f 3e 5a
        E 241 8f 3e 64
        E 1 9f 3e 5a
        E 238 83 42 64
        E 0 8f 3e 64
        E 0 93 42 5a
        E 0 9f 3e 5a
        E 241 8f 3e 64
        E 0 9f 3e 5a
        E 239 82 56 64
        E 0 83 42 64
        E 0 86 4a 64
        E 0 8f 3e 64
        E 0 92 56 64
        E 0 93 40 5a
        E 0 96 4a 64
        E 0 9f 3d 5a
        E 240 8f 3d 64
        E 0 9f 3d 5a
        E 239 83 40 64
        E 0 8f 3d 64
        E 0 93 40 5a
        E 0 9f 3d 5a
        E 241 8f 3d 64
        E 0 9f 3d 5a
        E 241 82 56 64
        E 0 83 40 64
        E 0 86 4a 64
        E 0 8f 3d 64
        E 0 92 56 64
        E 0 93 3e 5a
        E 0 96 4a 64
        E 0 9f 3b 5a
        E 239 8f 3b 64
        E 0 9f 3b 5a
        E 240 83 3e 64
        E 0 8f 3b 64
        E 0 93 3e 5a
        E 0 9f 3b 5a
        E 241 8f 3b 64
        E 1 9f 3b 5a
        E 239 82 56 64
        E 0 83 3e 64
        E 0 86 4a 64
        E 0 8f 3b 64
        E 0 92 56 64
        E 0 93 3d 5a
        E 0 96 4a 64
        E 0 9f 39 5a
        E 239 8f 39 64
        E 0 9f 39 5a
        E 241 83 3d 64
        E 0 8f 39 64
        E 0 93 3d 5a
        E 0 9f 39 5a
        E 240 8f 39 64
        E 0 9f 39 5a
        E 238 82 56 64
        E 0 83 3d 64
        E 0 86 4a 64
        E 0 8f 39 64
        E 0 92 56 64
        E 0 93 3b 5a
        E 0 96 4a 64
        E 0 9f 37 5a
        E 242 8f 37 64
        E 1 9f 37 5a
        E 239 83 3b 64
        E 0 8f 37 64
        E 0 93 3b 5a
        E 0 9f 37 5a
        E 238 8f 37 64
        E 1 9f 37 5a
        E 240 82 56 64
        E 0 83 3b 64
        E 0 86 4a 64
        E 0 8f 37 64
        E 0 92 56 64
        E 0 93 39 5a
        E 0 96 4a 64
        E 0 9f 36 5a
        E 240 8f 36 64
        E 0 9f 36 5a
        E 241 83 39 64
        E 0 8f 36 64
        E 0 93 39 5a
        E 0 9f 36 5a
        E 239 8f 36 64
        E 0 9f 36 5a
        E 240 82 56 64
        E 0 83 39 64
        E 0 86 4a 64
        E 0 8f 36 64
        E 0 92 56 64
        E 0 93 37 5a
        E 0 96 4a 64
        E 0 9f 34 5a
        E 240 8f 34 64
        E 0 9f 34 5a
        E 240 83 37 64
        E 0 8f 34 64
        E 1 93 37 5a
        E 0 9f 34 5a
        E 240 8f 34 64
        E 0 9f 34 5a
        E 239 82 56 64
        E 0 83 37 64
        E 0 86 4a 64
        E 0 8f 34 64
        E 0 92 56 64
        E 0 93 36 5a
        E 0 96 4a 64
        E 0 9f 32 5a
        E 240 8f 32 64
        E 0 9f 32 5a
        E 241 82 56 64
        E 0 83 36 64
        E 0 86 4a 64
        E 0 8f 32 64
        E 0 92 51 64
        E 0 93 36 5a
        E 0 96 45 64
        E 0 9f 32 5a
        E 238 8f 32 64
        E 0 9f 32 5a
        E 245 82 51 64
        E 0 83 36 64
        E 0 86 45 64
        E 0 8f 32 64
        E 1 92 4f 64
        E 0 93 3e 5a
        E 0 96 43 64
        E 0 9f 32 5a
        E 235 8f 32 64
        E 0 9f 31 5a
        E 240 82 4f 64
        E 0 83 3e 64
        E 0 86 43 64
        E 0 8f 31 64
        E 0 92 4e 64
        E 0 93 3e 5a
        E 0 96 42 64
        E 0 9f 32 5a
        E 240 8f 32 64
        E 0 9f 34 5a
        E 241 82 4e 64
        E 0 83 3e 64
        E 0 86 42 64
        E 0 8f 34 64
        E 0 92 4c 64
        E 0 93 3e 5a
        E 0 96 40 64
        E 0 9f 36 5a
        E 240 8f 36 64
        E 0 9f 34 5a
        E 240 82 4c 64
        E 0 83 3e 64
        E 0 86 40 64
        E 0 8f 34 64
        E 0 92 4a 64
        E 0 93 3e 5a
        E 0 96 3e 64
        E 0 9f 36 5a
        E 240 8f 36 64
        E 0 9f 37 5a
        E 240 82 4a 64
        E 0 83 3e 64
        E 0 86 3e 64
        E 0 8f 37 64
        E 0 92 51 64
        E 0 93 3d 5a
        E 0 96 45 64
        E 0 9f 39 5a
        E 238 8f 39 64
        E 1 9f 37 5a
        E 239 83 3d 64
        E 0 8f 37 64
        E 1 93 3d 5a
        E 0 9f 39 5a
        E 240 8f 39 64
        E 0 9f 3b 5a
        E 240 82 51 64
        E 0 83 3d 64
        E 0 86 45 64
        E 0 8f 3b 64
        E 0 93 39 5a
        E 0 9f 39 5a
        E 242 8f 39 64
        E 0 9f 37 5a
        E 238 83 39 64
        E 0 8f 37 64
        E 0 92 4a 64
        E 0 93 39 5a
        E 0 96 4a 64
        E 0 9f 36 5a
        E 240 8f 36 64
        E 1 9f 34 5a
        E 239 82 4a 64
        E 1 83 39 64
        E 0 86 4a 64
        E 0 8f 34 64
        E 0 92 47 64
        E 0 93 3e 5a
        E 0 96 47 64
        E 0 9f 32 5a
        E 238 8f 32 64
        E 0 9f 32 5a
        E 242 83 3e 64
        E 0 8f 32 64
        E 0 93 3e 5a
        E 0 9f 32 5a
        E 239 8f 32 64
        E 0 9f 32 5a
        E 245 82 47 64
        E 0 83 3e 64
        E 0 86 47 64
        E 1 8f 32 64
        E 0 92 45 64
        E 0 93 3e 5a
        E 0 96 45 64
        E 0 9f 32 5a
        E 233 8f 32 64
        E 2 9f 32 5a
        E 247 82 45 64
        E 1 83 3e 64
        E 0 86 45 64
        E 0 8f 32 64
        E 0 92 4a 64
        E 0 93 3e 5a
        E 0 96 4a 64
        E 1 9f 32 5a
        E 230 8f 32 64
        E 0 9f 32 5a
        E 240 82 4a 64
        E 0 83 3e 64
        E 0 86 4a 64
        E 0 8f 32 64
        E 0 92 43 64
        E 0 93 3e 5a
        E 0 96 43 64
        E 0 9f 32 5a
        E 241 8f 32 64
        E 0 9f 32 5a
        E 239 83 3e 64
        E 0 8f 32 64
        E 0 93 3e 5a
        E 0 9f 32 5a
        E 240 8f 32 64
        E 0 9f 32 5a
        E 240 82 43 64
        E 0 83 3e 64
        E 0 86 43 64
        E 0 8f 32 64
        E 0 92 42 64
        E 0 93 3e 5a
        E 0 96 42 64
        E 0 9f 32 5a
        E 240 8f 32 64
        E 0 9f 32 5a
        E 240 82 42 64
        E 0 83 3e 64
        E 0 86 42 64
        E 0 8f 32 64
        E 0 92 4a 64
        E 0 93 3e 5a
        E 0 96 4a 64
        E 0 9f 32 5a
        E 240 8f 32 64
        E 0 9f 32 5a
        E 242 82 4a 64
        E 0 83 3e 64
        E 0 86 4a 64
        E 0 8f 32 64
        E 0 92 47 64
        E 0 93 3e 5a
        E 0 96 47 64
        E 0 9f 32 5a
        E 238 8f 32 64
        E 0 9f 32 5a
        E 240 83 3e 64
        E 0 8f 32 64
        E 0 93 3e 5a
        E 0 9f 32 5a
        E 240 8f 32 64
        E 1 9f 32 5a
        E 240 82 47 64
        E 0 83 3e 64
        E 1 86 47 64
        E 0 8f 32 64
        E 1 92 45 64
        E 0 93 3e 5a
        E 0 96 45 64
        E 0 9f 32 5a
        E 237 8f 32 64
        E 0 9f 32 5a
        E 239 82 45 64
        E 0 83 3e 64
        E 0 86 45 64
        E 0 8f 32 64
        E 0 92 4c 64
        E 0 93 3e 5a
        E 1 96 4c 64
        E 0 9f 32 5a
        E 241 8f 32 64
        E 0 9f 32 5a
        E 239 82 4c 64
        E 0 83 3e 64
        E 0 86 4c 64
        E 0 8f 32 64
        E 0 92 43 64
        E 0 93 3e 5a
        E 0 96 43 64
        E 0 9f 32 5a
        E 240 8f 32 64
        E 1 9f 32 5a
        E 239 83 3e 64
        E 0 8f 32 64
        E 0 93 3e 5a
        E 0 9f 32 5a
        E 240 8f 32 64
        E 0 9f 32 5a
        E 241 82 43 64
        E 0 83 3e 64
        E 0 86 43 64
        E 0 8f 32 64
        E 0 92 42 64
        E 0 93 3e 5a
        E 1 96 42 64
        E 0 9f 32 5a
        E 239 8f 32 64
        E 0 9f 32 5a
        E 238 83 3e 64
        E 0 8f 32 64
        E 0 93 3e 5a
        E 0 9f 32 5a
        E 242 8f 32 64
        E 0 9f 32 5a
        E 239 82 42 64
        E 0 83 3e 64
        E 0 86 42 64
        E 0 8f 32 64
        E 0 92 45 64
        E 0 93 3e 5a
        E 0 96 45 64
        E 0 9f 32 5a
        E 241 8f 32 64
        E 1 9f 32 5a
        E 238 83 3e 64
        E 0 8f 32 64
        E 0 93 3e 5a
        E 0 9f 32 5a
        E 240 8f 32 64
        E 0 9f 32 5a
        E 240 82 45 64
        E 0 83 3e 64
        E 0 86 45 64
        E 0 8f 32 64
        E 0 92 45 64
        E 0 93 3e 5a
        E 0 96 45 64
        E 0 9f 32 5a
        E 241 8f 32 64
        E 0 9f 32 5a
        E 240 83 3e 64
        E 0 8f 32 64
        E 0 93 3e 5a
        E 0 9f 32 5a
        E 240 8f 32 64
        E 0 9f 32 5a
        E 238 82 45 64
        E 0 83 3e 64
        E 0 86 45 64
        E 0 8f 32 64
        E 1 92 51 64
        E 0 93 49 5a
        E 0 96 45 64
        E 0 9f 39 5a
        E 241 8f 39 64
        E 0 9f 39 5a
        E 241 83 49 64
        E 0 8f 39 64
        E 0 93 49 5a
        E 0 9f 39 5a
        E 240 8f 39 64
        E 0 9f 39 5a
        E 239 82 51 64
        E 0 83 49 64
        E 1 86 45 64
        E 0 8f 39 64
        E 0 92 51 64
        E 0 93 47 5a
        E 0 96 45 64
        E 0 9f 37 5a
        E 237 8f 37 64
        E 0 9f 37 5a
        E 241 83 47 64
        E 0 8f 37 64
        E 0 93 47 5a
        E 0 9f 37 5a
        E 241 8f 37 64
        E 0 9f 37 5a
        E 238 82 51 64
        E 0 83 47 64
        E 0 86 45 64
        E 0 8f 37 64
        E 0 92 51 64
        E 0 93 45 5a
        E 0 96 45 64
        E 0 9f 36 5a
        E 241 8f 36 64
        E 0 9f 36 5a
        E 240 82 51 64
        E 0 83 45 64
        E 0 8f 36 64
        E 0 92 51 64
        E 0 93 45 5a
        E 0 9f 36 5a
        E 241 8f 36 64
        E 0 9f 36 5a
        E 238 82 51 64
        E 0 83 45 64
        E 0 86 45 64
        E 0 8f 36 64
        E 0 92 4f 64
        E 0 93 43 5a
        E 0 96 45 64
        E 1 9f 34 5a
        E 240 8f 34 64
        E 0 9f 34 5a
        E 242 82 4f 64
        E 0 83 43 64
        E 0 8f 34 64
        E 0 92 4f 64
        E 0 93 43 5a
        E 0 9f 34 5a
        E 238 8f 34 64
        E 0 9f 34 5a
        E 241 82 4f 64
        E 0 83 43 64
        E 0 86 45 64
        E 0 8f 34 64
        E 0 92 4e 64
        E 0 93 42 5a
        E 0 96 4a 64
        E 0 9f 32 5a
        E 239 8f 32 64
        E 0 9f 32 5a
        E 239 82 4e 64
        E 0 83 42 64
        E 0 86 4a 64
        E 0 8f 32 64
        E 1 92 4e 64
        E 0 93 42 5a
        E 0 96 49 64
        E 0 9f 32 5a
        E 240 86 49 64
        E 0 8f 32 64
        E 0 96 47 64
        E 0 9f 32 5a
        E 240 82 4e 64
        E 0 83 42 64
        E 0 86 47 64
        E 0 8f 32 64
        E 0 92 4c 64
        E 0 93 40 5a
        E 0 96 45 64
        E 0 9f 31 5a
        E 241 8f 31 64
        E 0 9f 31 5a
        E 239 82 4c 64
        E 0 83 40 64
        E 0 86 45 64
        E 0 8f 31 64
        E 0 92 4c 64
        E 0 93 40 5a
        E 0 96 43 64
        E 0 9f 31 5a
        E 240 8f 31 64
        E 0 9f 31 5a
        E 241 82 4c 64
        E 0 83 40 64
        E 0 86 43 64
        E 0 8f 31 64
        E 0 92 4e 64
        E 0 93 42 5a
        E 0 96 42 64
        E 0 9f 32 5a
        E 239 8f 32 64
        E 0 9f 32 5a
        E 241 82 4e 64
        E 0 83 42 64
        E 0 86 42 64
        E 0 8f 32 64
        E 0 92 4e 64
        E 0 93 42 5a
        E 0 96 40 64
        E 0 9f 32 5a
        E 239 86 40 64
        E 0 8f 32 64
        E 0 96 3e 64
        E 0 9f 32 5a
        E 240 82 4e 64
        E 0 83 42 64
        E 0 86 3e 64
        E 0 8f 32 64
        E 0 92 4c 64
        E 0 93 40 5a
        E 1 96 40 64
        E 0 9f 31 5a
        E 238 8f 31 64
        E 0 9f 31 5a
        E 242 82 4c 64
        E 0 83 40 64
        E 0 86 40 64
        E 0 8f 31 64
        E 0 92 4c 64
        E 0 93 40 5a
        E 0 96 3d 64
        E 0 9f 31 5a
        E 239 8f 31 64
        E 0 9f 31 5a
        E 241 82 4c 64
        E 0 83 40 64
        E 0 86 3d 64
        E 0 8f 31 64
        E 0 92 45 64
        E 0 93 39 5a
        E 0 96 3e 64
        E 1 9f 32 5a
        E 239 8f 32 64
        E 0 9f 32 5a
        E 239 82 45 64
        E 0 83 39 64
        E 1 8f 32 64
        E 0 92 45 64
        E 1 93 39 5a
        E 0 9f 32 5a
        E 239 8f 32 64
        E 0 9f 32 5a
        E 239 82 45 64
        E 0 83 39 64
        E 0 86 3e 64
        E 0 8f 32 64
        E 0 92 45 64
        E 0 93 39 5a
        E 0 9f 2d 5a
        E 241 8f 2d 64
        E 0 9f 2d 5a
        E 240 82 45 64
        E 0 83 39 64
        E 0 8f 2d 64
        E 0 92 45 64
        E 0 93 39 5a
        E 0 9f 2d 5a
        E 241 8f 2d 64
        E 0 9f 2d 5a
        E 238 82 45 64
        E 1 83 39 64
        E 0 8f 2d 64
        E 1 92 4a 64
        E 0 93 39 5a
        E 0 9f 32 5a
        E 239 8f 32 64
        E 0 9f 32 5a
        E 239 82 4a 64
        E 0 83 39 64
        E 0 8f 32 64
        E 0 92 4c 64
        E 0 93 39 5a
        E 0 9f 32 5a
        E 241 8f 32 64
        E 1 9f 32 5a
        E 239 82 4c 64
        E 0 83 39 64
        E 0 8f 32 64
        E 0 92 4e 64
        E 0 93 39 5a
        E 0 9f 32 5a
        E 239 8f 32 64
        E 0 9f 32 5a
        E 240 82 4e 64
        E 0 83 39 64
        E 0 8f 32 64
        E 0 92 4f 64
        E 0 93 39 5a
        E 0 9f 32 5a
        E 241 8f 32 64
        E 0 9f 32 5a
        E 239 82 4f 64
        E 0 83 39 64
        E 0 8f 32 64
        E 0 92 51 64
        E 0 93 42 5a
        E 0 9f 32 5a
        E 240 8f 32 64
        E 0 9f 32 5a
        E 241 83 42 64
        E 0 8f 32 64
        E 0 93 42 5a
        E 0 9f 32 5a
        E 239 8f 32 64
        E 0 9f 32 5a
        E 241 82 51 64
        E 0 83 42 64
        E 0 8f 32 64
        E 0 92 51 64
        E 0 93 42 5a
        E 0 9f 32 5a
        E 240 8f 32 64
        E 0 9f 32 5a
        E 239 82 51 64
        E 0 83 42 64
        E 0 8f 32 64
        E 0 92 4f 64
        E 0 93 42 5a
        E 1 9f 32 5a
        E 239 82 4f 64
        E 0 8f 32 64
        E 1 92 4e 64
        E 0 9f 32 5a
        E 240 82 4e 64
        E 0 83 42 64
        E 0 8f 32 64
        E 0 92 4f 64
        E 0 93 40 5a
        E 0 9f 34 5a
        E 239 8f 34 64
        E 0 9f 34 5a
        E 240 83 40 64
        E 0 8f 34 64
        E 0 93 40 5a
        E 0 9f 34 5a
        E 240 8f 34 64
        E 0 9f 34 5a
        E 240 82 4f 64
        E 0 83 40 64
        E 0 8f 34 64
        E 0 92 4f 64
        E 0 93 3d 5a
        E 0 9f 2d 5a
        E 241 8f 2d 64
        E 0 9f 2d 5a
        E 239 82 4f 64
        E 0 83 3d 64
        E 0 8f 2d 64
        E 0 92 4e 64
        E 0 93 3d 5a
        E 0 9f 2d 5a
        E 240 82 4e 64
        E 0 8f 2d 64
        E 0 92 4c 64
        E 0 9f 2d 5a
        E 239 82 4c 64
        E 1 83 3d 64
        E 0 8f 2d 64
        E 0 92 4e 64
        E 0 93 39 5a
        E 0 9f 32 5a
        E 240 8f 32 64
        E 0 9f 32 5a
        E 240 82 4e 64
        E 0 83 39 64
        E 0 8f 32 64
        E 0 92 4c 64
        E 0 93 39 5a
        E 0 9f 32 5a
        E 240 8f 32 64
        E 0 9f 32 5a
        E 241 82 4c 64
        E 0 83 39 64
        E 0 8f 32 64
        E 0 92 4a 64
        E 0 93 42 5a
        E 0 9f 32 5a
        E 239 8f 32 64
        E 0 9f 32 5a
        E 241 82 4a 64
        E 0 83 42 64
        E 0 8f 32 64
        E 0 92 49 64
        E 0 93 42 5a
        E 0 9f 32 5a
        E 238 8f 32 64
        E 1 9f 32 5a
        E 240 82 49 64
        E 0 83 42 64
        E 0 8f 32 64
        E 0 92 47 64
        E 0 93 43 5a
        E 0 9f 32 5a
        E 240 8f 32 64
        E 0 9f 32 5a
        E 240 83 43 64
        E 0 8f 32 64
        E 0 93 43 5a
        E 0 9f 32 5a
        E 240 8f 32 64
        E 0 9f 32 5a
        E 240 82 47 64
        E 0 83 43 64
        E 0 8f 32 64
        E 0 92 45 64
        E 0 93 3e 5a
        E 0 9f 32 5a
        E 241 8f 32 64
        E 0 9f 32 5a
        E 240 82 45 64
        E 0 83 3e 64
        E 0 8f 32 64
        E 0 92 4a 64
        E 0 93 3e 5a
        E 0 9f 32 5a
        E 240 8f 32 64
        E 0 9f 32 5a
        E 239 82 4a 64
        E 0 83 3e 64
        E 0 8f 32 64
        E 0 92 47 64
        E 0 93 43 5a
        E 1 9f 32 5a
        E 238 8f 32 64
        E 0 9f 32 5a
        E 242 83 43 64
        E 0 8f 32 64
        E 0 93 43 5a
        E 0 9f 32 5a
        E 240 8f 32 64
        E 0 9f 32 5a
        E 239 82 47 64
        E 0 83 43 64
        E 0 8f 32 64
        E 0 92 45 64
        E 0 93 3e 5a
        E 0 9f 32 5a
        E 241 8f 32 64
        E 0 9f 32 5a
        E 239 82 45 64
        E 0 83 3e 64
        E 0 8f 32 64
        E 0 92 51 64
        E 0 93 3e 5a
        E 0 9f 32 5a
        E 240 8f 32 64
        E 1 9f 32 5a
        E 240 82 51 64
        E 1 83 3e 64
        E 0 8f 32 64
        E 0 92 56 64
        E 0 93 42 5a
        E 0 9f 32 5a
        E 239 8f 32 64
        E 0 9f 32 5a
        E 241 82 56 64
        E 0 83 42 64
        E 0 8f 32 64
        E 0 92 55 64
        E 0 93 42 5a
        E 0 9f 32 5a
        E 240 82 55 64
        E 0 8f 32 64
        E 0 92 53 64
        E 0 9f 32 5a
        E 239 82 53 64
        E 0 83 42 64
        E 0 8f 32 64
        E 0 92 51 64
        E 0 93 40 5a
        E 0 9f 31 5a
        E 240 8f 31 64
        E 1 9f 31 5a
        E 238 82 51 64
        E 0 83 40 64
        E 0 8f 31 64
        E 0 92 4f 64
        E 0 93 40 5a
        E 0 9f 31 5a
        E 240 8f 31 64
        E 0 9f 31 5a
        E 240 82 4f 64
        E 0 83 40 64
        E 0 8f 31 64
        E 0 92 4e 64
        E 0 93 42 5a
        E 0 9f 32 5a
        E 241 8f 32 64
        E 0 9f 32 5a
        E 239 82 4e 64
        E 0 83 42 64
        E 0 8f 32 64
        E 0 92 4c 64
        E 0 93 42 5a
        E 1 9f 32 5a
        E 240 82 4c 64
        E 0 8f 32 64
        E 0 92 4a 64
        E 0 9f 32 5a
        E 241 82 4a 64
        E 0 83 42 64
        E 0 8f 32 64
        E 0 92 4c 64
        E 0 93 3d 5a
        E 0 9f 2d 5a
        E 238 8f 2d 64
        E 0 9f 2d 5a
        E 239 82 4c 64
        E 1 83 3d 64
        E 0 8f 2d 64
        E 0 92 49 64
        E 0 93 3d 5a
        E 0 9f 2d 5a
        E 240 8f 2d 64
        E 0 9f 2d 5a
        E 240 82 49 64
        E 0 83 3d 64
        E 0 8f 2d 64
        E 0 92 4a 64
        E 0 93 39 5a
        E 0 96 3e 64
        E 0 9f 32 5a
        E 240 8f 32 64
        E 0 9f 32 5a
        E 240 82 4a 64
        E 0 83 39 64
        E 0 86 3e 64
        E 0 8f 32 64
        E 0 92 4c 64
        E 1 93 39 5a
        E 0 96 40 64
        E 0 9f 32 5a
        E 240 8f 32 64
        E 0 9f 32 5a
        E 239 82 4c 64
        E 0 83 39 64
        E 0 86 40 64
        E 0 8f 32 64
        E 0 92 4e 64
        E 0 93 39 5a
        E 0 96 42 64
        E 0 9f 32 5a
        E 240 8f 32 64
        E 0 9f 32 5a
        E 242 82 4e 64
        E 0 83 39 64
        E 0 86 42 64
        E 0 8f 32 64
        E 0 92 4f 64
        E 0 93 39 5a
        E 0 96 43 64
        E 0 9f 32 5a
        E 239 8f 32 64
        E 0 9f 32 5a
        E 240 82 4f 64
        E 0 83 39 64
        E 0 86 43 64
        E 0 8f 32 64
        E 0 92 51 64
        E 1 93 42 5a
        E 0 96 45 64
        E 0 9f 32 5a
        E 238 8f 32 64
        E 0 9f 32 5a
        E 240 83 42 64
        E 0 8f 32 64
        E 0 93 42 5a
        E 0 9f 32 5a
        E 240 8f 32 64
        E 2 9f 32 5a
        E 239 82 51 64
        E 0 83 42 64
        E 0 86 45 64
        E 0 8f 32 64
        E 0 92 51 64
        E 0 93 42 5a
        E 0 96 45 64
        E 0 9f 32 5a
        E 239 8f 32 64
        E 1 9f 32 5a
        E 240 82 51 64
        E 0 83 42 64
        E 0 86 45 64
        E 0 8f 32 64
        E 0 92 56 64
        E 0 93 42 5a
        E 0 96 43 64
        E 0 9f 32 5a
        E 239 86 43 64
        E 0 8f 32 64
        E 0 96 42 64
        E 0 9f 32 5a
        E 241 82 56 64
        E 0 83 42 64
        E 0 86 42 64
        E 0 8f 32 64
        E 0 92 4f 64
        E 0 93 40 5a
        E 0 96 43 64
        E 0 9f 34 5a
        E 240 8f 34 64
        E 1 9f 34 5a
        E 240 83 40 64
        E 0 8f 34 64
        E 0 93 40 5a
        E 0 9f 34 5a
        E 238 8f 34 64
        E 0 9f 34 5a
        E 240 82 4f 64
        E 0 83 40 64
        E 0 86 43 64
        E 1 8f 34 64
        E 0 92 4f 64
        E 1 93 3d 5a
        E 0 96 43 64
        E 0 9f 2d 5a
        E 238 8f 2d 64
        E 0 9f 2d 5a
        E 240 82 4f 64
        E 0 83 3d 64
        E 0 86 43 64
        E 0 8f 2d 64
        E 0 92 4e 64
        E 0 93 3d 5a
        E 0 96 42 64
        E 0 9f 2d 5a
        E 240 82 4e 64
        E 0 86 42 64
        E 0 8f 2d 64
        E 0 92 4c 64
        E 0 96 40 64
        E 0 9f 2d 5a
        E 241 82 4c 64
        E 0 83 3d 64
        E 0 86 40 64
        E 0 8f 2d 64
        E 0 92 4e 64
        E 0 93 39 5a
        E 0 96 42 64
        E 0 9f 32 5a
        E 239 8f 32 64
        E 0 9f 32 5a
        E 242 82 4e 64
        E 0 83 39 64
        E 0 86 42 64
        E 0 8f 32 64
        E 0 92 4c 64
        E 0 93 39 5a
        E 0 96 40 64
        E 0 9f 32 5a
        E 240 8f 32 64
        E 0 9f 32 5a
        E 237 82 4c 64
        E 0 83 39 64
        E 0 86 40 64
        E 0 8f 32 64
        E 0 92 4a 64
        E 0 93 42 5a
        E 0 96 3e 64
        E 1 9f 32 5a
        E 241 8f 32 64
        E 0 9f 32 5a
        E 239 83 42 64
        E 0 8f 32 64
        E 0 93 42 5a
        E 0 9f 34 5a
        E 240 8f 34 64
        E 0 9f 36 5a
        E 241 82 4a 64
        E 0 83 42 64
        E 0 86 3e 64
        E 0 8f 36 64
        E 0 92 43 64
        E 0 93 3e 5a
        E 0 96 43 64
        E 0 9f 37 5a
        E 240 8f 37 64
        E 0 9f 37 5a
        E 239 82 43 64
        E 0 83 3e 64
        E 0 86 43 64
        E 0 8f 37 64
        E 0 92 45 64
        E 0 93 3e 5a
        E 0 96 45 64
        E 0 9f 37 5a
        E 240 8f 37 64
        E 0 9f 37 5a
        E 241 82 45 64
        E 0 83 3e 64
        E 0 86 45 64
        E 0 8f 37 64
        E 0 92 47 64
        E 0 93 3e 5a
        E 1 96 47 64
        E 0 9f 37 5a
        E 240 8f 37 64
        E 0 9f 37 5a
        E 240 82 47 64
        E 0 83 3e 64
        E 0 86 47 64
        E 0 8f 37 64
        E 0 92 48 64
        E 0 93 3e 5a
        E 0 96 48 64
        E 0 9f 37 5a
        E 240 8f 37 64
        E 0 9f 37 5a
        E 238 82 48 64
        E 0 83 3e 64
        E 0 86 48 64
        E 0 8f 37 64
        E 0 92 4a 64
        E 1 93 47 5a
        E 0 96 4a 64
        E 0 9f 37 5a
        E 239 8f 37 64
        E 0 9f 37 5a
        E 240 83 47 64
        E 0 8f 37 64
        E 0 93 47 5a
        E 0 9f 37 5a
        E 241 8f 37 64
        E 0 9f 37 5a
        E 239 82 4a 64
        E 0 83 47 64
        E 0 86 4a 64
        E 0 8f 37 64
        E 0 92 4a 64
        E 0 93 47 5a
        E 0 96 4a 64
        E 0 9f 37 5a
        E 241 8f 37 64
        E 0 9f 37 5a
        E 239 82 4a 64
        E 0 83 47 64
        E 0 86 4a 64
        E 0 8f 37 64
        E 0 92 4f 64
        E 0 93 47 5a
        E 0 96 48 64
        E 0 9f 37 5a
        E 241 86 48 64
        E 0 8f 37 64
        E 0 96 47 64
        E 0 9f 37 5a
        E 239 82 4f 64
        E 0 83 47 64
        E 0 86 47 64
        E 0 8f 37 64
        E 0 92 48 64
        E 0 93 45 5a
        E 0 96 48 64
        E 0 9f 39 5a
        E 240 8f 39 64
        E 0 9f 39 5a
        E 240 83 45 64
        E 0 8f 39 64
        E 0 93 45 5a
        E 0 9f 39 5a
        E 239 8f 39 64
        E 0 9f 39 5a
        E 241 82 48 64
        E 0 83 45 64
        E 0 86 48 64
        E 0 8f 39 64
        E 0 92 48 64
        E 0 93 42 5a
        E 0 96 48 64
        E 0 9f 32 5a
        E 241 8f 32 64
        E 0 9f 32 5a
        E 239 82 48 64
        E 0 83 42 64
        E 0 86 48 64
        E 0 8f 32 64
        E 0 92 51 64
        E 0 93 42 5a
        E 0 96 47 64
        E 0 9f 32 5a
        E 241 86 47 64
        E 0 8f 32 64
        E 0 96 45 64
        E 0 9f 32 5a
        E 240 82 51 64
        E 0 83 42 64
        E 0 86 45 64
        E 0 8f 32 64
        E 1 92 47 64
        E 0 93 3e 5a
        E 0 96 47 64
        E 0 9f 37 5a
        E 238 8f 37 64
        E 1 9f 2b 5a
        E 238 82 47 64
        E 0 83 3e 64
        E 0 86 47 64
        E 0 8f 2b 64
        E 0 92 45 64
        E 0 93 3e 5a
        E 0 96 45 64
        E 1 9f 2b 5a
        E 242 8f 2b 64
        E 0 9f 2b 5a
        E 238 82 45 64
        E 0 83 3e 64
        E 0 86 45 64
        E 0 8f 2b 64
        E 0 92 43 64
        E 1 93 3e 5a
        E 0 96 43 64
        E 0 9f 2b 5a
        E 239 8f 2b 64
        E 0 9f 2b 5a
        E 240 83 3e 64
        E 0 8f 2b 64
        E 0 93 3e 5a
        E 0 9f 2b 5a
        E 240 8f 2b 64
        E 0 9f 2b 5a
        E 241 82 43 64
        E 0 83 3e 64
        E 0 86 43 64
        E 0 8f 2b 64
        E 0 92 4a 64
        E 0 93 37 5a
        E 0 96 4a 64
        E 0 9f 2b 5a
        E 239 8f 2b 64
        E 0 9f 2b 5a
        E 240 82 4a 64
        E 1 83 37 64
        E 0 86 4a 64
        E 0 8f 2b 64
        E 0 92 47 64
        E 0 93 37 5a
        E 0 96 47 64
        E 0 9f 2b 5a
        E 240 8f 2b 64
        E 1 9f 2b 5a
        E 239 82 47 64
        E 0 83 37 64
        E 0 86 47 64
        E 0 8f 2b 64
        E 1 92 45 64
        E 0 93 37 5a
        E 0 96 45 64
        E 0 9f 2b 5a
        E 239 8f 2b 64
        E 0 9f 2b 5a
        E 239 82 45 64
        E 0 83 37 64
        E 0 86 45 64
        E 0 8f 2b 64
        E 0 92 43 64
        E 1 93 37 5a
        E 0 96 43 64
        E 0 9f 2b 5a
        E 238 8f 2b 64
        E 1 9f 2b 5a
        E 240 82 43 64
        E 0 83 37 64
        E 0 86 43 64
        E 0 8f 2b 64
        E 0 92 41 64
        E 0 93 37 5a
        E 0 96 41 64
        E 0 9f 2b 5a
        E 241 8f 2b 64
        E 0 9f 2b 5a
        E 239 83 37 64
        E 0 8f 2b 64
        E 0 93 37 5a
        E 0 9f 2b 5a
        E 241 8f 2b 64
        E 0 9f 2b 5a
        E 239 82 41 64
        E 0 83 37 64
        E 0 86 41 64
        E 0 8f 2b 64
        E 0 92 40 64
        E 0 93 37 5a
        E 0 96 40 64
        E 0 9f 30 5a
        E 240 8f 30 64
        E 0 9f 30 5a
        E 240 82 40 64
        E 0 83 37 64
        E 0 86 40 64
        E 0 8f 30 64
        E 0 92 43 64
        E 0 93 37 5a
        E 0 96 43 64
        E 0 9f 30 5a
        E 240 8f 30 64
        E 0 9f 30 5a
        E 244 82 43 64
        E 1 83 37 64
        E 0 86 43 64
        E 0 8f 30 64
        E 0 92 41 64
        E 0 93 37 5a
        E 0 96 41 64
        E 0 9f 2b 5a
        E 234 8f 2b 64
        E 1 9f 2b 5a
        E 240 83 37 64
        E 0 8f 2b 64
        E 0 93 37 5a
        E 0 9f 2b 5a
        E 239 8f 2b 64
        E 1 9f 2b 5a
        E 240 82 41 64
        E 0 83 37 64
        E 0 86 41 64
        E 0 8f 2b 64
        E 0 92 40 64
        E 0 93 37 5a
        E 0 96 40 64
        E 0 9f 30 5a
        E 242 8f 30 64
        E 0 9f 30 5a
        E 237 82 40 64
        E 0 83 37 64
        E 0 86 40 64
        E 0 8f 30 64
        E 1 92 43 64
        E 0 93 37 5a
        E 0 96 43 64
        E 0 9f 30 5a
        E 240 8f 30 64
        E 0 9f 30 5a
        E 239 82 43 64
        E 0 83 37 64
        E 0 86 43 64
        E 0 8f 30 64
        E 0 92 41 64
        E 0 93 37 5a
        E 0 96 41 64
        E 0 9f 2b 5a
        E 241 8f 2b 64
        E 0 9f 2b 5a
        E 240 83 37 64
        E 0 8f 2b 64
        E 0 93 37 5a
        E 0 9f 2b 5a
        E 240 8f 2b 64
        E 0 9f 2b 5a
        E 241 82 41 64
        E 0 83 37 64
        E 0 86 41 64
        E 0 8f 2b 64
        E 0 92 40 64
        E 0 93 37 5a
        E 1 96 40 64
        E 0 9f 30 5a
        E 239 8f 30 64
        E 0 9f 30 5a
        E 239 83 37 64
        E 0 8f 30 64
        E 0 93 37 5a
        E 0 9f 30 5a
        E 240 8f 30 64
        E 0 9f 30 5a
        E 240 82 40 64
        E 1 83 37 64
        E 0 86 40 64
        E 0 8f 30 64
        E 0 92 4c 64
        E 0 93 39 5a
        E 0 96 4c 64
        E 0 9f 2d 5a
        E 239 8f 2d 64
        E 0 9f 2d 5a
        E 240 82 4c 64
        E 0 83 39 64
        E 0 86 4c 64
        E 0 8f 2d 64
        E 1 92 49 64
        E 0 93 39 5a
        E 0 96 49 64
        E 0 9f 2d 5a
        E 238 8f 2d 64
        E 0 9f 2d 5a
        E 241 82 49 64
        E 0 83 39 64
        E 0 86 49 64
        E 0 8f 2d 64
        E 0 92 47 64
        E 0 93 39 5a
        E 0 96 47 64
        E 0 9f 2d 5a
        E 241 8f 2d 64
        E 0 9f 2d 5a
        E 239 82 47 64
        E 0 83 39 64
        E 0 86 47 64
        E 0 8f 2d 64
        E 0 92 45 64
        E 0 93 39 5a
        E 0 96 45 64
        E 0 9f 2d 5a
        E 240 8f 2d 64
        E 0 9f 2d 5a
        E 241 82 45 64
        E 0 83 39 64
        E 0 86 45 64
        E 0 8f 2d 64
        E 0 92 43 64
        E 0 93 39 5a
        E 0 96 43 64
        E 0 9f 2d 5a
        E 240 8f 2d 64
        E 0 9f 2d 5a
        E 240 83 39 64
        E 0 8f 2d 64
        E 0 93 39 5a
        E 0 9f 2d 5a
        E 239 8f 2d 64
        E 0 9f 2d 5a
        E 241 82 43 64
        E 0 83 39 64
        E 0 86 43 64
        E 0 8f 2d 64
        E 0 92 42 64
        E 0 93 39 5a
        E 0 96 42 64
        E 0 9f 32 5a
        E 239 8f 32 64
        E 0 9f 32 5a
        E 240 82 42 64
        E 0 83 39 64
        E 1 86 42 64
        E 0 8f 32 64
        E 0 92 45 64
        E 0 93 39 5a
        E 0 96 45 64
        E 0 9f 32 5a
        E 240 8f 32 64
        E 0 9f 32 5a
        E 239 82 45 64
        E 0 83 39 64
        E 0 86 45 64
        E 0 8f 32 64
        E 0 92 43 64
        E 0 93 39 5a
        E 0 96 43 64
        E 0 9f 2d 5a
        E 241 8f 2d 64
        E 0 9f 2d 5a
        E 240 83 39 64
        E 0 8f 2d 64
        E 0 93 39 5a
        E 1 9f 2d 5a
        E 239 8f 2d 64
        E 0 9f 2d 5a
        E 239 82 43 64
        E 0 83 39 64
        E 0 86 43 64
        E 0 8f 2d 64
        E 1 92 42 64
        E 0 93 39 5a
        E 0 96 42 64
        E 0 9f 32 5a
        E 240 8f 32 64
        E 1 9f 32 5a
        E 238 82 42 64
        E 0 83 39 64
        E 0 86 42 64
        E 0 8f 32 64
        E 0 92 45 64
        E 1 93 39 5a
        E 0 96 45 64
        E 0 9f 32 5a
        E 239 8f 32 64
        E 0 9f 32 5a
        E 240 82 45 64
        E 0 83 39 64
        E 0 86 45 64
        E 0 8f 32 64
        E 0 92 43 64
        E 0 93 39 5a
        E 0 96 43 64
        E 0 9f 2d 5a
        E 240 8f 2d 64
        E 0 9f 2d 5a
        E 240 83 39 64
        E 0 8f 2d 64
        E 0 93 39 5a
        E 0 9f 2d 5a
        E 241 8f 2d 64
        E 0 9f 2d 5a
        E 238 82 43 64
        E 0 83 39 64
        E 0 86 43 64
        E 0 8f 2d 64
        E 0 92 42 64
        E 0 93 39 5a
        E 1 96 42 64
        E 0 9f 32 5a
        E 240 8f 32 64
        E 0 9f 32 5a
        E 241 83 39 64
        E 0 8f 32 64
        E 1 93 39 5a
        E 0 9f 32 5a
        E 240 8f 32 64
        E 0 9f 32 5a
        E 238 82 42 64
        E 0 83 39 64
        E 0 86 42 64
        E 0 8f 32 64
        E 0 92 56 64
        E 0 93 47 5a
        E 0 96 4a 64
        E 0 9f 2b 5a
        E 240 8f 2b 64
        E 0 9f 2b 5a
        E 240 83 47 64
        E 0 8f 2b 64
        E 0 93 47 5a
        E 0 9f 2b 5a
        E 240 8f 2b 64
        E 0 9f 2b 5a
        E 240 82 56 64
        E 0 83 47 64
        E 0 86 4a 64
        E 0 8f 2b 64
        E 0 92 56 64
        E 0 93 47 5a
        E 0 96 4a 64
        E 1 9f 37 5a
        E 241 8f 37 64
        E 0 9f 37 5a
        E 239 83 47 64
        E 0 8f 37 64
        E 0 93 47 5a
        E 0 9f 37 5a
        E 240 8f 37 64
        E 1 9f 37 5a
        E 240 82 56 64
        E 0 83 47 64
        E 0 86 4a 64
        E 0 8f 37 64
        E 0 92 45 64
        E 0 93 45 5a
        E 0 96 4a 64
        E 0 9f 36 5a
        E 238 8f 36 64
        E 0 9f 36 5a
        E 240 82 45 64
        E 0 83 45 64
        E 0 8f 36 64
        E 0 92 45 64
        E 0 93 45 5a
        E 0 9f 36 5a
        E 240 8f 36 64
        E 0 9f 36 5a
        E 241 82 45 64
        E 1 83 45 64
        E 0 86 4a 64
        E 0 8f 36 64
        E 0 92 43 64
        E 0 93 43 5a
        E 0 96 4a 64
        E 0 9f 34 5a
        E 238 8f 34 64
        E 0 9f 34 5a
        E 241 82 43 64
        E 0 83 43 64
        E 0 8f 34 64
        E 0 92 43 64
        E 1 93 43 5a
        E 0 9f 34 5a
        E 238 8f 34 64
        E 0 9f 34 5a
        E 240 82 43 64
        E 0 83 43 64
        E 0 86 4a 64
        E 0 8f 34 64
        E 0 92 42 64
        E 0 93 42 5a
        E 0 96 4a 64
        E 0 9f 32 5a
        E 241 8f 32 64
        E 0 9f 32 5a
        E 241 82 42 64
        E 0 83 42 64
        E 0 8f 32 64
        E 0 92 42 64
        E 0 93 42 5a
        E 0 9f 32 5a
        E 240 8f 32 64
        E 0 9f 32 5a
        E 237 82 42 64
        E 0 83 42 64
        E 0 86 4a 64
        E 0 8f 32 64
        E 0 92 40 64
        E 1 93 40 5a
        E 0 96 4a 64
        E 0 9f 30 5a
        E 240 8f 30 64
        E 0 9f 30 5a
        E 240 82 40 64
        E 0 83 40 64
        E 0 8f 30 64
        E 0 92 40 64
        E 0 93 40 5a
        E 0 9f 30 5a
        E 240 8f 30 64
        E 0 9f 30 5a
        E 241 82 40 64
        E 0 83 40 64
        E 0 86 4a 64
        E 0 8f 30 64
        E 0 92 3e 64
        E 0 93 3e 5a
        E 0 96 4a 64
        E 0 9f 2f 5a
        E 239 8f 2f 64
        E 0 9f 2f 5a
        E 240 82 3e 64
        E 0 83 3e 64
        E 0 8f 2f 64
        E 0 92 3e 64
        E 0 93 3e 5a
        E 0 9f 2f 5a
        E 241 8f 2f 64
        E 0 9f 2f 5a
        E 238 82 3e 64
        E 0 83 3e 64
        E 0 86 4a 64
        E 0 8f 2f 64
        E 0 92 42 64
        E 0 93 42 5a
        E 0 96 3e 64
        E 0 9f 2d 5a
        E 242 8f 2d 64
        E 0 9f 2d 5a
        E 239 82 42 64
        E 0 83 42 64
        E 0 86 3e 64
        E 0 8f 2d 64
        E 0 92 42 64
        E 0 93 42 5a
        E 0 96 48 64
        E 0 9f 2d 5a
        E 241 8f 2d 64
        E 1 9f 2d 5a
        E 239 82 42 64
        E 0 83 42 64
        E 0 86 48 64
        E 0 8f 2d 64
        E 0 92 3e 64
        E 0 93 3e 5a
        E 0 96 47 64
        E 0 9f 2b 5a
        E 239 8f 2b 64
        E 0 9f 2b 5a
        E 240 82 3e 64
        E 0 83 3e 64
        E 0 86 47 64
        E 0 8f 2b 64
        E 0 92 3e 64
        E 0 93 3e 5a
        E 1 96 45 64
        E 0 9f 2b 5a
        E 240 86 45 64
        E 0 8f 2b 64
        E 0 96 43 64
        E 0 9f 2b 5a
        E 239 82 3e 64
        E 0 83 3e 64
        E 0 86 43 64
        E 0 8f 2b 64
        E 0 92 3e 64
        E 1 93 3e 5a
        E 0 96 45 64
        E 0 9f 32 5a
        E 240 8f 32 64
        E 1 9f 32 5a
        E 238 82 3e 64
        E 0 83 3e 64
        E 0 86 45 64
        E 0 8f 32 64
        E 0 92 3e 64
        E 0 93 3e 5a
        E 0 96 43 64
        E 0 9f 32 5a
        E 241 86 43 64
        E 0 8f 32 64
        E 0 96 42 64
        E 0 9f 32 5a
        E 238 82 3e 64
        E 0 83 3e 64
        E 0 86 42 64
        E 0 8f 32 64
        E 0 92 4f 64
        E 0 93 3b 5a
        E 0 96 43 64
        E 0 9f 2b 5a
        E 242 8f 2b 64
        E 0 9f 2b 5a
        E 239 83 3b 64
        E 0 8f 2b 64
        E 1 93 3b 5a
        E 0 9f 2b 5a
        E 239 8f 2b 64
        E 0 9f 2b 5a
        E 240 82 4f 64
        E 0 83 3b 64
        E 0 86 43 64
        E 0 8f 2b 64
        E 0 93 3b 5a
        E 0 9f 2b 5a
        E 240 8f 2b 64
        E 0 9f 2b 5a
        E 240 83 3b 64
        E 0 8f 2b 64
        E 0 92 43 64
        E 0 93 3b 5a
        E 0 96 43 64
        E 0 9f 2b 5a
        E 241 8f 2b 64
        E 0 9f 2b 5a
        E 239 82 43 64
        E 0 83 3b 64
        E 0 86 43 64
        E 0 8f 2b 64
        E 0 92 40 64
        E 0 93 3c 5a
        E 0 96 40 64
        E 0 9f 2b 5a
        E 239 8f 2b 64
        E 1 9f 2b 5a
        E 239 83 3c 64
        E 1 8f 2b 64
        E 0 93 3c 5a
        E 0 9f 2b 5a
        E 240 8f 2b 64
        E 1 9f 2b 5a
        E 240 82 40 64
        E 0 83 3c 64
        E 0 86 40 64
        E 0 8f 2b 64
        E 0 92 3e 64
        E 0 93 37 5a
        E 0 96 3e 64
        E 0 9f 2b 5a
        E 239 8f 2b 64
        E 0 9f 2b 5a
        E 240 82 3e 64
        E 0 83 37 64
        E 0 86 3e 64
        E 0 8f 2b 64
        E 0 92 43 64
        E 1 93 37 5a
        E 0 96 43 64
        E 0 9f 2b 5a
        E 240 8f 2b 64
        E 0 9f 2b 5a
        E 240 82 43 64
        E 0 83 37 64
        E 0 86 43 64
        E 0 8f 2b 64
        E 0 92 40 64
        E 0 93 3c 5a
        E 0 96 40 64
        E 0 9f 2b 5a
        E 241 8f 2b 64
        E 0 9f 2b 5a
        E 238 83 3c 64
        E 0 8f 2b 64
        E 0 93 3c 5a
        E 0 9f 2b 5a
        E 242 8f 2b 64
        E 0 9f 2b 5a
        E 240 82 40 64
        E 0 83 3c 64
        E 0 86 40 64
        E 0 8f 2b 64
        E 0 92 3e 64
        E 0 93 37 5a
        E 0 96 3e 64
        E 0 9f 2b 5a
        E 238 8f 2b 64
        E 0 9f 2b 5a
        E 240 83 37 64
        E 0 8f 2b 64
        E 0 93 37 5a
        E 0 9f 2b 5a
        E 240 8f 2b 64
        E 0 9f 2b 5a
        E 241 82 3e 64
        E 0 83 37 64
        E 0 86 3e 64
        E 0 8f 2b 64
        E 0 92 56 64
        E 0 93 47 5a
        E 0 96 4a 64
        E 0 9f 2b 5a
        E 239 8f 2b 64
        E 0 9f 2b 5a
        E 240 83 47 64
        E 0 8f 2b 64
        E 0 93 47 5a
        E 0 9f 2b 5a
        E 241 8f 2b 64
        E 0 9f 2b 5a
        E 239 82 56 64
        E 0 83 47 64
        E 0 86 4a 64
        E 0 8f 2b 64
        E 1 92 56 64
        E 0 93 47 5a
        E 0 96 4a 64
        E 0 9f 37 5a
        E 240 8f 37 64
        E 0 9f 37 5a
        E 239 83 47 64
        E 0 8f 37 64
        E 0 93 47 5a
        E 0 9f 37 5a
        E 240 8f 37 64
        E 0 9f 37 5a
        E 241 82 56 64
        E 0 83 47 64
        E 0 86 4a 64
        E 0 8f 37 64
        E 0 92 45 64
        E 0 93 45 5a
        E 0 96 4a 64
        E 0 9f 36 5a
        E 239 8f 36 64
        E 0 9f 36 5a
        E 240 82 45 64
        E 0 83 45 64
        E 0 8f 36 64
        E 0 92 45 64
        E 0 93 45 5a
        E 0 9f 36 5a
        E 240 8f 36 64
        E 0 9f 36 5a
        E 241 82 45 64
        E 0 83 45 64
        E 0 86 4a 64
        E 0 8f 36 64
        E 0 92 43 64
        E 0 93 43 5a
        E 0 96 4a 64
        E 0 9f 34 5a
        E 240 8f 34 64
        E 0 9f 34 5a
        E 240 82 43 64
        E 0 83 43 64
        E 0 8f 34 64
        E 0 92 43 64
        E 0 93 43 5a
        E 1 9f 34 5a
        E 239 8f 34 64
        E 0 9f 34 5a
        E 239 82 43 64
        E 0 83 43 64
        E 0 86 4a 64
        E 0 8f 34 64
        E 1 92 42 64
        E 0 93 42 5a
        E 0 96 4a 64
        E 0 9f 32 5a
        E 239 8f 32 64
        E 0 9f 32 5a
        E 241 82 42 64
        E 0 83 42 64
        E 0 8f 32 64
        E 0 92 42 64
        E 0 93 42 5a
        E 0 9f 32 5a
        E 240 8f 32 64
        E 0 9f 32 5a
        E 240 82 42 64
        E 0 83 42 64
        E 0 86 4a 64
        E 0 8f 32 64
        E 0 92 40 64
        E 0 93 40 5a
        E 0 96 4a 64
        E 0 9f 30 5a
        E 240 8f 30 64
        E 0 9f 30 5a
        E 241 82 40 64
        E 0 83 40 64
        E 0 8f 30 64
        E 0 92 40 64
        E 0 93 40 5a
        E 0 9f 30 5a
        E 238 8f 30 64
        E 0 9f 30 5a
        E 241 82 40 64
        E 0 83 40 64
        E 0 86 4a 64
        E 0 8f 30 64
        E 0 92 3e 64
        E 1 93 3e 5a
        E 0 96 4a 64
        E 0 9f 2f 5a
        E 238 8f 2f 64
        E 0 9f 2f 5a
        E 240 82 3e 64
        E 0 83 3e 64
        E 0 8f 2f 64
        E 0 92 3e 64
        E 0 93 3e 5a
        E 0 9f 2f 5a
        E 240 8f 2f 64
        E 0 9f 2f 5a
        E 240 82 3e 64
        E 0 83 3e 64
        E 0 86 4a 64
        E 0 8f 2f 64
        E 0 92 42 64
        E 0 93 42 5a
        E 0 96 3e 64
        E 0 9f 2d 5a
        E 240 8f 2d 64
        E 0 9f 2d 5a
        E 240 82 42 64
        E 0 83 42 64
        E 0 86 3e 64
        E 0 8f 2d 64
        E 0 92 42 64
        E 0 93 42 5a
        E 0 96 48 64
        E 0 9f 2d 5a
        E 240 8f 2d 64
        E 0 9f 2d 5a
        E 241 82 42 64
        E 0 83 42 64
        E 0 86 48 64
        E 0 8f 2d 64
        E 0 92 3e 64
        E 0 93 3e 5a
        E 1 96 47 64
        E 0 9f 2b 5a
        E 238 8f 2b 64
        E 0 9f 2b 5a
        E 240 82 3e 64
        E 0 83 3e 64
        E 0 86 47 64
        E 0 8f 2b 64
        E 0 92 3e 64
        E 0 93 3e 5a
        E 0 96 45 64
        E 0 9f 2b 5a
        E 240 86 45 64
        E 0 8f 2b 64
        E 0 96 43 64
        E 0 9f 2b 5a
        E 240 82 3e 64
        E 1 83 3e 64
        E 0 86 43 64
        E 0 8f 2b 64
        E 0 92 3e 64
        E 0 93 3e 5a
        E 0 96 45 64
        E 0 9f 32 5a
        E 240 8f 32 64
        E 0 9f 32 5a
        E 239 82 3e 64
        E 0 83 3e 64
        E 1 86 45 64
        E 0 8f 32 64
        E 0 92 3e 64
        E 0 93 3e 5a
        E 0 96 43 64
        E 0 9f 32 5a
        E 239 86 43 64
        E 0 8f 32 64
        E 0 96 42 64
        E 0 9f 32 5a
        E 240 82 3e 64
        E 0 83 3e 64
        E 0 86 42 64
        E 0 8f 32 64
        E 0 92 4f 64
        E 0 93 3e 5a
        E 0 96 43 64
        E 0 9f 37 5a
        E 240 8f 37 64
        E 0 9f 37 5a
        E 240 82 4f 64
        E 0 83 3e 64
        E 0 86 43 64
        E 0 8f 37 64
        E 0 92 4e 64
        E 0 93 3e 5a
        E 0 96 42 64
        E 0 9f 37 5a
        E 240 82 4e 64
        E 0 86 42 64
        E 0 8f 37 64
        E 0 92 4c 64
        E 0 96 40 64
        E 0 9f 37 5a
        E 241 82 4c 64
        E 1 83 3e 64
        E 0 86 40 64
        E 0 8f 37 64
        E 0 92 4a 64
        E 0 93 3e 5a
        E 0 96 3e 64
        E 0 9f 36 5a
        E 240 8f 36 64
        E 0 9f 36 5a
        E 238 82 4a 64
        E 1 83 3e 64
        E 0 86 3e 64
        E 0 8f 36 64
        E 0 92 48 64
        E 0 93 3e 5a
        E 0 96 48 64
        E 0 9f 36 5a
        E 238 8f 36 64
        E 1 9f 36 5a
        E 240 82 48 64
        E 1 83 3e 64
        E 0 86 48 64
        E 0 8f 36 64
        E 0 92 47 64
        E 0 93 3e 5a
        E 0 96 47 64
        E 0 9f 37 5a
        E 239 8f 37 64
        E 0 9f 37 5a
        E 241 82 47 64
        E 0 83 3e 64
        E 0 86 47 64
        E 0 8f 37 64
        E 0 92 45 64
        E 0 93 3e 5a
        E 0 96 45 64
        E 0 9f 37 5a
        E 239 82 45 64
        E 0 86 45 64
        E 0 8f 37 64
        E 0 92 43 64
        E 0 96 43 64
        E 0 9f 37 5a
        E 239 82 43 64
        E 0 83 3e 64
        E 0 86 43 64
        E 0 8f 37 64
        E 0 92 45 64
        E 0 93 3e 5a
        E 0 96 45 64
        E 0 9f 32 5a
        E 242 8f 32 64
        E 0 9f 32 5a
        E 240 82 45 64
        E 0 83 3e 64
        E 0 86 45 64
        E 0 8f 32 64
        E 0 92 42 64
        E 0 93 3e 5a
        E 0 96 43 64
        E 0 9f 32 5a
        E 239 86 43 64
        E 0 8f 32 64
        E 0 96 42 64
        E 0 9f 32 5a
        E 241 82 42 64
        E 0 83 3e 64
        E 0 86 42 64
        E 0 8f 32 64
        E 0 92 43 64
        E 0 93 3e 5a
        E 0 96 43 64
        E 0 9f 2b 5a
        E 240 8f 2b 64
        E 0 9f 37 5a
        E 239 82 43 64
        E 0 83 3e 64
        E 0 8f 37 64
        E 0 92 45 64
        E 0 93 3e 5a
        E 0 9f 37 5a
        E 240 8f 37 64
        E 0 9f 37 5a
        E 241 82 45 64
        E 0 83 3e 64
        E 0 86 43 64
        E 0 8f 37 64
        E 0 92 47 64
        E 0 93 3e 5a
        E 0 9f 37 5a
        E 239 8f 37 64
        E 0 9f 37 5a
        E 240 82 47 64
        E 0 83 3e 64
        E 0 8f 37 64
        E 0 92 48 64
        E 0 93 3e 5a
        E 0 9f 37 5a
        E 241 8f 37 64
        E 0 9f 37 5a
        E 239 82 48 64
        E 0 83 3e 64
        E 0 8f 37 64
        E 0 92 4a 64
        E 0 93 47 5a
        E 0 9f 37 5a
        E 240 8f 37 64
        E 0 9f 37 5a
        E 240 83 47 64
        E 0 8f 37 64
        E 0 93 47 5a
        E 0 9f 37 5a
        E 240 8f 37 64
        E 0 9f 37 5a
        E 242 82 4a 64
        E 0 83 47 64
        E 0 8f 37 64
        E 0 92 4a 64
        E 0 93 47 5a
        E 0 9f 37 5a
        E 238 8f 37 64
        E 0 9f 37 5a
        E 242 82 4a 64
        E 0 83 47 64
        E 0 8f 37 64
        E 0 92 4f 64
        E 0 93 47 5a
        E 0 9f 37 5a
        E 239 8f 37 64
        E 0 9f 37 5a
        E 241 82 4f 64
        E 0 83 47 64
        E 0 8f 37 64
        E 0 92 48 64
        E 0 93 45 5a
        E 0 9f 39 5a
        E 238 8f 39 64
        E 0 9f 39 5a
        E 242 83 45 64
        E 0 8f 39 64
        E 0 93 45 5a
        E 0 9f 39 5a
        E 238 8f 39 64
        E 0 9f 39 5a
        E 240 82 48 64
        E 0 83 45 64
        E 0 8f 39 64
        E 0 92 48 64
        E 0 93 42 5a
        E 0 9f 32 5a
        E 241 8f 32 64
        E 0 9f 32 5a
        E 240 82 48 64
        E 0 83 42 64
        E 0 8f 32 64
        E 0 92 51 64
        E 0 93 42 5a
        E 0 9f 32 5a
        E 239 8f 32 64
        E 1 9f 32 5a
        E 240 82 51 64
        E 0 83 42 64
        E 0 8f 32 64
        E 0 92 47 64
        E 0 93 3e 5a
        E 0 9f 37 5a
        E 240 8f 37 64
        E 0 9f 2b 5a
        E 239 82 47 64
        E 0 83 3e 64
        E 0 8f 2b 64
        E 0 92 45 64
        E 0 93 3e 5a
        E 0 9f 2b 5a
        E 241 8f 2b 64
        E 1 9f 2b 5a
        E 239 82 45 64
        E 0 83 3e 64
        E 0 8f 2b 64
        E 0 92 43 64
        E 0 93 3e 5a
        E 0 9f 2b 5a
        E 240 8f 2b 64
        E 0 9f 2b 5a
        E 239 83 3e 64
        E 0 8f 2b 64
        E 0 93 3e 5a
        E 0 9f 2b 5a
        E 240 8f 2b 64
        E 0 9f 2b 5a
        E 240 82 43 64
        E 0 83 3e 64
        E 0 8f 2b 64
        E 0 92 43 64
        E 0 93 3e 5a
        E 0 9f 2b 5a
        E 240 8f 2b 64
        E 0 9f 2b 5a
        E 240 82 43 64
        E 0 83 3e 64
        E 0 8f 2b 64
        E 0 92 42 64
        E 0 93 3e 5a
        E 0 9f 2b 5a
        E 241 8f 2b 64
        E 0 9f 2b 5a
        E 240 82 42 64
        E 0 83 3e 64
        E 0 8f 2b 64
        E 1 92 40 64
        E 0 93 3e 5a
        E 0 9f 2b 5a
        E 237 8f 2b 64
        E 0 9f 2b 5a
        E 242 82 40 64
        E 0 83 3e 64
        E 0 8f 2b 64
        E 0 92 3e 64
        E 0 93 3e 5a
        E 0 9f 2b 5a
        E 238 8f 2b 64
        E 1 9f 2b 5a
        E 240 82 3e 64
        E 0 83 3e 64
        E 0 8f 2b 64
        E 0 92 40 64
        E 0 93 3c 5a
        E 0 9f 2b 5a
        E 241 8f 2b 64
        E 0 9f 2b 5a
        E 240 83 3c 64
        E 0 8f 2b 64
        E 0 93 3c 5a
        E 0 9f 2b 5a
        E 240 8f 2b 64
        E 1 9f 2b 5a
        E 238 82 40 64
        E 0 83 3c 64
        E 0 8f 2b 64
        E 0 92 3e 64
        E 0 93 37 5a
        E 0 9f 2b 5a
        E 241 8f 2b 64
        E 0 9f 2b 5a
        E 239 82 3e 64
        E 0 83 37 64
        E 0 8f 2b 64
        E 0 92 43 64
        E 1 93 37 5a
        E 0 9f 2b 5a
        E 240 8f 2b 64
        E 0 9f 2b 5a
        E 239 82 43 64
        E 0 83 37 64
        E 0 8f 2b 64
        E 0 92 40 64
        E 1 93 3c 5a
        E 0 9f 2b 5a
        E 240 8f 2b 64
        E 0 9f 2b 5a
        E 240 83 3c 64
        E 0 8f 2b 64
        E 0 93 3c 5a
        E 0 9f 2b 5a
        E 240 8f 2b 64
        E 0 9f 2b 5a
        E 239 82 40 64
        E 0 83 3c 64
        E 0 8f 2b 64
        E 0 92 3e 64
        E 0 93 37 5a
        E 0 9f 2b 5a
        E 240 8f 2b 64
        E 0 9f 2b 5a
        E 241 82 3e 64
        E 0 83 37 64
        E 0 8f 2b 64
        E 0 92 43 64
        E 0 93 37 5a
        E 0 9f 2b 5a
        E 240 8f 2b 64
        E 0 9f 2b 5a
        E 239 82 43 64
        E 0 83 37 64
        E 0 8f 2b 64
        E 0 92 40 64
        E 0 93 3c 5a
        E 0 9f 2b 5a
        E 241 8f 2b 64
        E 0 9f 2b 5a
        E 240 83 3c 64
        E 0 8f 2b 64
        E 0 93 3c 5a
        E 0 9f 2b 5a
        E 240 8f 2b 64
        E 1 9f 2b 5a
        E 238 82 40 64
        E 0 83 3c 64
        E 0 8f 2b 64
        E 0 92 3e 64
        E 0 93 37 5a
        E 0 9f 2b 5a
        E 241 8f 2b 64
        E 0 9f 2b 5a
        E 239 82 3e 64
        E 0 83 37 64
        E 0 8f 2b 64
        E 1 92 4a 64
        E 0 93 37 5a
        E 0 9f 2b 5a
        E 239 8f 2b 64
        E 0 9f 2b 5a
        E 240 82 4a 64
        E 0 83 37 64
        E 0 8f 2b 64
        E 0 92 4f 64
        E 0 93 3b 5a
        E 0 9f 37 5a
        E 242 8f 37 64
        E 0 9f 37 5a
        E 238 82 4f 64
        E 0 83 3b 64
        E 0 8f 37 64
        E 1 92 4e 64
        E 0 93 3b 5a
        E 0 9f 37 5a
        E 239 82 4e 64
        E 0 8f 37 64
        E 0 92 4f 64
        E 0 9f 37 5a
        E 240 82 4f 64
        E 0 83 3b 64
        E 0 8f 37 64
        E 0 92 45 64
        E 0 93 3e 5a
        E 0 9f 36 5a
        E 241 8f 36 64
        E 0 9f 36 5a
        E 239 82 45 64
        E 0 83 3e 64
        E 0 8f 36 64
        E 0 92 48 64
        E 0 93 3e 5a
        E 0 9f 36 5a
        E 240 8f 36 64
        E 0 9f 36 5a
        E 240 82 48 64
        E 0 83 3e 64
        E 0 8f 36 64
        E 0 92 47 64
        E 0 93 3e 5a
        E 0 9f 37 5a
        E 241 8f 37 64
        E 0 9f 2b 5a
        E 241 82 47 64
        E 0 83 3e 64
        E 0 8f 2b 64
        E 0 92 45 64
        E 0 93 3e 5a
        E 0 9f 2b 5a
        E 238 8f 2b 64
        E 0 9f 2b 5a
        E 241 82 45 64
        E 0 83 3e 64
        E 0 8f 2b 64
        E 0 92 43 64
        E 0 93 3b 5a
        E 0 9f 2b 5a
        E 239 8f 2b 64
        E 0 9f 2b 5a
        E 241 82 43 64
        E 0 83 3b 64
        E 0 8f 2b 64
        E 1 92 4a 64
        E 0 93 3b 5a
        E 0 9f 2b 5a
        E 239 8f 2b 64
        E 0 9f 2b 5a
        E 239 82 4a 64
        E 0 83 3b 64
        E 0 8f 2b 64
        E 1 92 4f 64
        E 0 93 3b 5a
        E 0 9f 37 5a
        E 239 8f 37 64
        E 0 9f 37 5a
        E 240 82 4f 64
        E 0 83 3b 64
        E 0 8f 37 64
        E 0 92 4e 64
        E 0 93 3b 5a
        E 0 9f 37 5a
        E 241 82 4e 64
        E 0 8f 37 64
        E 0 92 4f 64
        E 0 9f 37 5a
        E 239 82 4f 64
        E 1 83 3b 64
        E 0 8f 37 64
        E 0 92 45 64
        E 0 93 3e 5a
        E 0 9f 36 5a
        E 238 8f 36 64
        E 0 9f 36 5a
        E 242 82 45 64
        E 0 83 3e 64
        E 0 8f 36 64
        E 0 92 48 64
        E 0 93 3e 5a
        E 0 9f 36 5a
        E 241 8f 36 64
        E 0 9f 36 5a
        E 240 82 48 64
        E 0 83 3e 64
        E 0 8f 36 64
        E 0 92 47 64
        E 0 93 3e 5a
        E 0 9f 37 5a
        E 238 8f 37 64
        E 1 9f 2b 5a
        E 239 82 47 64
        E 0 83 3e 64
        E 0 8f 2b 64
        E 0 92 45 64
        E 0 93 3e 5a
        E 0 9f 2b 5a
        E 240 8f 2b 64
        E 0 9f 2b 5a
        E 241 82 45 64
        E 0 83 3e 64
        E 0 8f 2b 64
        E 0 92 43 64
        E 0 93 3b 5a
        E 0 9f 2b 5a
        E 239 8f 2b 64
        E 0 9f 2b 5a
        E 241 82 43 64
        E 0 83 3b 64
        E 0 8f 2b 64
        E 0 92 4a 64
        E 0 93 3b 5a
        E 0 9f 2b 5a
        E 239 8f 2b 64
        E 0 9f 2b 5a
        E 241 82 4a 64
        E 0 83 3b 64
        E 0 8f 2b 64
        E 0 92 4f 64
        E 0 93 3b 5a
        E 0 9f 37 5a
        E 238 8f 37 64
        E 1 9f 37 5a
        E 240 83 3b 64
        E 0 8f 37 64
        E 0 93 3b 5a
        E 0 9f 37 5a
        E 240 8f 37 64
        E 0 9f 37 5a
        E 240 82 4f 64
        E 0 83 3b 64
        E 0 8f 37 64
        E 0 92 4f 64
        E 0 93 3e 5a
        E 0 9f 3b 5a
        E 240 8f 3b 64
        E 0 9f 3b 5a
        E 240 83 3e 64
        E 0 8f 3b 64
        E 0 93 3e 5a
        E 1 9f 3b 5a
        E 239 8f 3b 64
        E 0 9f 3b 5a
        E 240 82 4f 64
        E 0 83 3e 64
        E 0 8f 3b 64
        E 1 92 4f 64
        E 0 93 40 5a
        E 0 9f 3c 5a
        E 239 8f 3c 64
        E 0 9f 3c 5a
        E 239 82 4f 64
        E 0 83 40 64
        E 0 8f 3c 64
        E 0 92 4e 64
        E 0 93 40 5a
        E 1 9f 3c 5a
        E 240 82 4e 64
        E 0 8f 3c 64
        E 0 92 4c 64
        E 0 9f 3c 5a
        E 240 82 4c 64
        E 0 83 40 64
        E 0 8f 3c 64
        E 0 92 4a 64
        E 0 93 45 5a
        E 0 9f 36 5a
        E 240 8f 36 64
        E 0 9f 36 5a
        E 240 82 4a 64
        E 0 83 45 64
        E 0 8f 36 64
        E 0 92 48 64
        E 0 93 45 5a
        E 0 9f 36 5a
        E 240 8f 36 64
        E 0 9f 36 5a
        E 240 82 48 64
        E 0 83 45 64
        E 0 8f 36 64
        E 0 92 47 64
        E 0 93 3e 5a
        E 0 9f 37 5a
        E 240 8f 37 64
        E 0 9f 37 5a
        E 241 82 47 64
        E 0 83 3e 64
        E 0 8f 37 64
        E 0 92 45 64
        E 0 93 3e 5a
        E 0 9f 37 5a
        E 240 82 45 64
        E 0 8f 37 64
        E 0 92 43 64
        E 0 9f 37 5a
        E 239 82 43 64
        E 0 83 3e 64
        E 0 8f 37 64
        E 0 92 45 64
        E 0 93 3e 5a
        E 0 9f 32 5a
        E 241 8f 32 64
        E 0 9f 32 5a
        E 239 82 45 64
        E 0 83 3e 64
        E 0 8f 32 64
        E 0 92 42 64
        E 0 93 3e 5a
        E 0 9f 32 5a
        E 240 8f 32 64
        E 0 9f 32 5a
        E 241 82 42 64
        E 0 83 3e 64
        E 0 8f 32 64
        E 0 92 37 64
        E 0 93 3b 5a
        E 1 9f 2b 5a
        E 1439 82 37 64
        E 0 83 3b 64
        E 0 8f 2b 64
        E 959 92 40 64
        E 0 93 40 5a
        E 0 96 40 64
        E 0 9f 34 5a
        E 480 82 40 64
        E 0 86 40 64
        E 1 92 42 64
        E 0 96 42 64
        E 478 82 42 64
        E 0 83 40 64
        E 0 86 42 64
        E 0 8f 34 64
        E 0 92 43 64
        E 0 96 43 64
        E 481 82 43 64
        E 0 86 43 64
        E 0 92 45 64
        E 0 96 45 64
        E 480 82 45 64
        E 0 86 45 64
        E 0 92 47 64
        E 0 93 40 5a
        E 0 96 47 64
        E 0 9f 34 5a
        E 479 83 40 64
        E 1 8f 34 64
        E 0 93 42 5a
        E 0 9f 36 5a
        E 481 82 47 64
        E 0 83 42 64
        E 0 86 47 64
        E 0 8f 36 64
        E 0 92 47 64
        E 0 93 43 5a
        E 0 96 47 64
        E 0 9f 37 5a
        E 480 82 47 64
        E 0 83 43 64
        E 0 86 47 64
        E 0 8f 37 64
        E 0 92 45 64
        E 0 93 40 5a
        E 0 96 45 64
        E 0 9f 34 5a
        E 240 82 45 64
        E 0 86 45 64
        E 1 92 43 64
        E 0 96 43 64
        E 237 82 43 64
        E 0 83 40 64
        E 0 86 43 64
        E 0 8f 34 64
        E 0 92 45 64
        E 0 93 42 5a
        E 0 96 45 64
        E 0 9f 36 5a
        E 481 83 42 64
        E 0 8f 36 64
        E 0 93 40 5a
        E 0 9f 34 5a
        E 480 82 45 64
        E 0 83 40 64
        E 0 86 45 64
        E 0 8f 34 64
        E 0 92 45 64
        E 0 93 42 5a
        E 0 96 45 64
        E 0 9f 36 5a
        E 481 82 45 64
        E 0 83 42 64
        E 0 86 45 64
        E 0 8f 36 64
        E 0 92 43 64
        E 0 93 3b 5a
        E 0 96 43 64
        E 0 9f 2f 5a
        E 240 82 43 64
        E 0 86 43 64
        E 0 92 42 64
        E 0 96 42 64
        E 239 82 42 64
        E 0 83 3b 64
        E 0 86 42 64
        E 0 8f 2f 64
        E 0 92 43 64
        E 0 93 40 5a
        E 0 96 43 64
        E 0 9f 34 5a
        E 481 82 43 64
        E 0 83 40 64
        E 0 86 43 64
        E 0 8f 34 64
        E 0 92 42 64
        E 1 93 42 5a
        E 0 96 42 64
        E 0 9f 36 5a
        E 480 82 42 64
        E 0 83 42 64
        E 0 86 42 64
        E 0 8f 36 64
        E 0 92 40 64
        E 0 93 43 5a
        E 0 96 40 64
        E 0 9f 37 5a
        E 478 83 43 64
        E 0 8f 37 64
        E 0 93 42 5a
        E 0 9f 36 5a
        E 479 82 40 64
        E 0 83 42 64
        E 0 86 40 64
        E 0 8f 36 64
        E 0 92 4c 64
        E 0 93 40 5a
        E 0 96 4c 64
        E 0 9f 34 5a
        E 483 83 40 64
        E 0 8f 34 64
        E 0 93 42 5a
        E 0 9f 36 5a
        E 478 82 4c 64
        E 0 83 42 64
        E 0 86 4c 64
        E 0 8f 36 64
        E 0 92 40 64
        E 0 93 44 5a
        E 0 96 40 64
        E 0 9f 38 5a
        E 480 83 44 64
        E 0 8f 38 64
        E 0 93 40 5a
        E 0 9f 34 5a
        E 480 82 40 64
        E 0 83 40 64
        E 0 86 40 64
        E 0 8f 34 64
        E 0 92 48 64
        E 0 93 39 5a
        E 0 96 48 64
        E 0 9f 2d 5a
        E 480 82 48 64
        E 0 83 39 64
        E 0 86 48 64
        E 0 8f 2d 64
        E 0 92 47 64
        E 0 93 3b 5a
        E 0 96 47 64
        E 0 9f 2f 5a
        E 479 82 47 64
        E 0 83 3b 64
        E 0 86 47 64
        E 0 8f 2f 64
        E 0 92 45 64
        E 0 93 3c 5a
        E 0 96 45 64
        E 0 9f 30 5a
        E 481 82 45 64
        E 0 83 3c 64
        E 0 86 45 64
        E 0 8f 30 64
        E 0 92 40 64
        E 0 93 39 5a
        E 0 96 40 64
        E 0 9f 2d 5a
        E 481 82 40 64
        E 1 83 39 64
        E 0 86 40 64
        E 0 8f 2d 64
        E 0 92 41 64
        E 1 93 3e 5a
        E 0 96 41 64
        E 0 9f 32 5a
        E 478 82 41 64
        E 0 83 3e 64
        E 0 86 41 64
        E 0 8f 32 64
        E 0 92 40 64
        E 5 93 40 5a
        E 0 96 40 64
        E 0 9f 34 5a
        E 474 82 40 64
        E 0 83 40 64
        E 0 86 40 64
        E 0 8f 34 64
        E 0 92 3e 64
        E 0 93 41 5a
        E 0 96 3e 64
        E 0 9f 35 5a
        E 480 82 3e 64
        E 0 83 41 64
        E 0 86 3e 64
        E 0 8f 35 64
        E 0 92 4a 64
        E 0 93 3e 5a
        E 0 96 4a 64
        E 0 9f 32 5a
        E 479 82 4a 64
        E 0 83 3e 64
        E 0 86 4a 64
        E 0 8f 32 64
        E 0 92 44 64
        E 1 93 40 5a
        E 0 96 44 64
        E 0 9f 34 5a
        E 480 82 44 64
        E 0 83 40 64
        E 0 86 44 64
        E 0 8f 34 64
        E 1 92 42 64
        E 0 93 42 5a
        E 0 96 42 64
        E 0 9f 36 5a
        E 480 82 42 64
        E 0 83 42 64
        E 1 86 42 64
        E 0 8f 36 64
        E 0 92 40 64
        E 0 93 44 5a
        E 0 96 40 64
        E 0 9f 38 5a
        E 481 83 44 64
        E 0 8f 38 64
        E 0 93 40 5a
        E 0 9f 34 5a
        E 477 82 40 64
        E 0 83 40 64
        E 0 86 40 64
        E 0 8f 34 64
        E 0 92 45 64
        E 0 93 3c 5a
        E 0 96 45 64
        E 0 9f 30 5a
        E 480 82 45 64
        E 0 83 3c 64
        E 0 86 45 64
        E 0 8f 30 64
        E 0 92 43 64
        E 0 93 3b 5a
        E 0 96 43 64
        E 0 9f 2f 5a
        E 480 82 43 64
        E 0 83 3b 64
        E 0 86 43 64
        E 0 8f 2f 64
        E 1 92 41 64
        E 0 93 39 5a
        E 0 96 41 64
        E 0 9f 2d 5a
        E 479 82 41 64
        E 0 83 39 64
        E 0 86 41 64
        E 1 8f 2d 64
        E 0 92 40 64
        E 0 93 3c 5a
        E 0 96 40 64
        E 0 9f 30 5a
        E 479 82 40 64
        E 0 83 3c 64
        E 0 86 40 64
        E 0 8f 30 64
        E 0 92 41 64
        E 1 93 3e 5a
        E 0 96 41 64
        E 0 9f 32 5a
        E 479 83 3e 64
        E 1 8f 32 64
        E 0 93 38 5a
        E 0 9f 2c 5a
        E 478 82 41 64
        E 0 83 38 64
        E 0 86 41 64
        E 0 8f 2c 64
        E 0 92 40 64
        E 0 93 39 5a
        E 0 96 40 64
        E 0 9f 2d 5a
        E 482 82 40 64
        E 0 83 39 64
        E 0 86 40 64
        E 0 8f 2d 64
        E 0 92 45 64
        E 0 93 41 5a
        E 0 96 45 64
        E 0 9f 35 5a
        E 481 82 45 64
        E 0 83 41 64
        E 0 86 45 64
        E 0 8f 35 64
        E 0 92 41 64
        E 0 93 3e 5a
        E 0 96 41 64
        E 0 9f 32 5a
        E 479 83 3e 64
        E 0 8f 32 64
        E 0 93 38 5a
        E 0 9f 2c 5a
        E 480 82 41 64
        E 0 83 38 64
        E 1 86 41 64
        E 0 8f 2c 64
        E 0 92 40 64
        E 0 93 39 5a
        E 0 96 40 64
        E 0 9f 2d 5a
        E 479 82 40 64
        E 0 83 39 64
        E 0 86 40 64
        E 0 8f 2d 64
        E 0 92 45 64
        E 0 93 41 5a
        E 0 96 45 64
        E 0 9f 35 5a
        E 479 82 45 64
        E 0 83 41 64
        E 0 86 45 64
        E 0 8f 35 64
        E 0 92 41 64
        E 0 93 3e 5a
        E 0 96 41 64
        E 0 9f 32 5a
        E 481 83 3e 64
        E 0 8f 32 64
        E 0 93 38 5a
        E 0 9f 2c 5a
        E 479 82 41 64
        E 0 83 38 64
        E 0 86 41 64
        E 0 8f 2c 64
        E 0 92 40 64
        E 0 93 39 5a
        E 0 96 40 64
        E 0 9f 2d 5a
        E 480 83 39 64
        E 0 8f 2d 64
        E 1 93 3c 5a
        E 0 9f 30 5a
        E 479 82 40 64
        E 0 83 3c 64
        E 0 86 40 64
        E 0 8f 30 64
        E 0 92 45 64
        E 0 93 41 5a
        E 0 96 45 64
        E 0 9f 35 5a
        E 481 83 41 64
        E 0 8f 35 64
        E 1 93 41 5a
        E 0 9f 35 5a
        E 478 82 45 64
        E 0 83 41 64
        E 0 86 45 64
        E 1 8f 35 64
        E 0 92 45 64
        E 0 93 40 5a
        E 0 96 45 64
        E 0 9f 34 5a
        E 479 83 40 64
        E 1 8f 34 64
        E 0 93 40 5a
        E 0 9f 34 5a
        E 480 82 45 64
        E 0 83 40 64
        E 0 86 45 64
        E 0 8f 34 64
        E 0 92 45 64
        E 0 93 3e 5a
        E 1 96 45 64
        E 0 9f 32 5a
        E 477 83 3e 64
        E 0 8f 32 64
        E 0 93 3e 5a
        E 0 9f 32 5a
        E 480 82 45 64
        E 0 83 3e 64
        E 0 86 45 64
        E 0 8f 32 64
        E 1 92 45 64
        E 0 93 3c 5a
        E 0 96 45 64
        E 0 9f 30 5a
        E 480 83 3c 64
        E 1 8f 30 64
        E 0 93 3c 5a
        E 1 9f 30 5a
        E 478 82 45 64
        E 0 83 3c 64
        E 0 86 45 64
        E 0 8f 30 64
        E 0 92 45 64
        E 0 93 3b 5a
        E 0 96 45 64
        E 0 9f 2f 5a
        E 481 83 3b 64
        E 0 8f 2f 64
        E 0 93 3b 5a
        E 0 9f 2f 5a
        E 479 82 45 64
        E 0 83 3b 64
        E 0 86 45 64
        E 0 8f 2f 64
        E 0 92 45 64
        E 0 93 39 5a
        E 0 96 45 64
        E 0 9f 2d 5a
        E 481 83 39 64
        E 0 8f 2d 64
        E 0 93 39 5a
        E 0 9f 2d 5a
        E 479 82 45 64
        E 0 83 39 64
        E 0 86 45 64
        E 0 8f 2d 64
        E 0 92 4a 64
        E 0 93 38 5a
        E 0 96 4a 64
        E 1 9f 2c 5a
        E 480 83 38 64
        E 0 8f 2c 64
        E 0 93 36 5a
        E 0 9f 2a 5a
        E 480 82 4a 64
        E 0 83 36 64
        E 0 86 4a 64
        E 0 8f 2a 64
        E 0 92 40 64
        E 0 93 38 5a
        E 0 96 40 64
        E 0 9f 2c 5a
        E 480 82 40 64
        E 0 83 38 64
        E 0 86 40 64
        E 0 8f 2c 64
        E 0 92 47 64
        E 1 93 34 5a
        E 1 96 47 64
        E 0 9f 28 5a
        E 478 82 47 64
        E 0 83 34 64
        E 0 86 47 64
        E 0 8f 28 64
        E 1 92 48 64
        E 0 93 39 5a
        E 0 96 48 64
        E 0 9f 2d 5a
        E 477 82 48 64
        E 0 83 39 64
        E 0 86 48 64
        E 0 8f 2d 64
        E 1 92 47 64
        E 0 93 3c 5a
        E 0 96 47 64
        E 0 9f 30 5a
        E 240 82 47 64
        E 0 86 47 64
        E 0 92 45 64
        E 0 96 45 64
        E 241 82 45 64
        E 0 83 3c 64
        E 0 86 45 64
        E 0 8f 30 64
        E 0 92 47 64
        E 0 93 3e 5a
        E 0 96 47 64
        E 0 9f 32 5a
        E 480 82 47 64
        E 0 83 3e 64
        E 0 86 47 64
        E 0 8f 32 64
        E 0 92 45 64
        E 0 93 40 5a
        E 0 96 45 64
        E 0 9f 34 5a
        E 239 82 45 64
        E 1 86 45 64
        E 0 92 44 64
        E 0 96 44 64
        E 239 82 44 64
        E 0 83 40 64
        E 0 86 44 64
        E 0 8f 34 64
        E 1 92 45 64
        E 0 93 39 5a
        E 0 96 45 64
        E 0 9f 2d 5a
        E 480 83 39 64
        E 1 8f 2d 64
        E 0 93 3b 5a
        E 0 9f 2f 5a
        E 478 82 45 64
        E 0 83 3b 64
        E 0 86 45 64
        E 0 8f 2f 64
        E 0 93 3c 5a
        E 0 9f 30 5a
        E 480 83 3c 64
        E 0 8f 30 64
        E 0 92 45 64
        E 0 93 39 5a
        E 0 96 45 64
        E 0 9f 2d 5a
        E 481 82 45 64
        E 0 83 39 64
        E 0 86 45 64
        E 0 8f 2d 64
        E 0 92 3e 64
        E 2 93 3e 5a
        E 0 96 41 64
        E 0 9f 32 5a
        E 478 82 3e 64
        E 0 83 3e 64
        E 0 8f 32 64
        E 0 92 38 64
        E 1 93 38 5a
        E 0 9f 2c 5a
        E 479 82 38 64
        E 0 83 38 64
        E 0 86 41 64
        E 0 8f 2c 64
        E 0 92 39 64
        E 0 93 39 5a
        E 0 96 40 64
        E 0 9f 2d 5a
        E 479 82 39 64
        E 0 83 39 64
        E 0 86 40 64
        E 0 8f 2d 64
        E 0 92 41 64
        E 0 93 41 5a
        E 0 96 45 64
        E 0 9f 35 5a
        E 480 82 41 64
        E 0 83 41 64
        E 0 86 45 64
        E 0 8f 35 64
        E 0 92 3e 64
        E 0 93 3e 5a
        E 0 96 41 64
        E 0 9f 32 5a
        E 480 82 3e 64
        E 1 83 3e 64
        E 0 8f 32 64
        E 0 92 38 64
        E 0 93 38 5a
        E 0 9f 2c 5a
        E 480 82 38 64
        E 0 83 38 64
        E 0 86 41 64
        E 0 8f 2c 64
        E 0 92 39 64
        E 0 93 39 5a
        E 0 96 40 64
        E 0 9f 2d 5a
        E 480 82 39 64
        E 0 83 39 64
        E 0 86 40 64
        E 0 8f 2d 64
        E 0 92 45 64
        E 0 93 45 5a
        E 0 96 48 64
        E 0 9f 39 5a
        E 479 82 45 64
        E 0 83 45 64
        E 0 86 48 64
        E 0 8f 39 64
        E 0 92 40 64
        E 1 93 40 5a
        E 0 96 47 64
        E 0 9f 34 5a
        E 480 82 40 64
        E 0 83 40 64
        E 0 86 47 64
        E 0 8f 34 64
        E 0 92 3c 64
        E 0 93 3c 5a
        E 0 96 45 64
        E 0 9f 30 5a
        E 479 82 3c 64
        E 0 83 3c 64
        E 0 86 45 64
        E 0 8f 30 64
        E 0 92 3e 64
        E 0 93 3e 5a
        E 0 96 47 64
        E 0 9f 32 5a
        E 479 82 3e 64
        E 0 83 3e 64
        E 0 86 47 64
        E 0 8f 32 64
        E 0 92 40 64
        E 0 93 40 5a
        E 0 96 45 64
        E 0 9f 34 5a
        E 242 86 45 64
        E 0 96 44 64
        E 239 82 40 64
        E 0 83 40 64
        E 0 86 44 64
        E 0 8f 34 64
        E 0 92 39 64
        E 0 93 39 5a
        E 0 96 45 64
        E 0 9f 2d 5a
        E 2881 82 39 64
        E 0 83 39 64
        E 0 86 45 64
        E 0 8f 2d 64
        E 0 98 45 64
        E 0 9e 45 64
        E 0 9f 32 5a
        E 480 88 45 64
        E 0 8e 45 64
        E 2 98 45 64
        E 0 9e 45 64
        E 477 88 45 64
        E 0 8e 45 64
        E 0 98 42 64
        E 0 9e 42 64
        E 481 88 42 64
        E 0 8e 42 64
        E 0 98 42 64
        E 0 9e 42 64
        E 239 88 42 64
        E 0 8e 42 64
        E 0 98 43 64
        E 0 9e 43 64
        E 240 88 43 64
        E 0 8e 43 64
        E 0 98 45 64
        E 0 9e 45 64
        E 960 88 45 64
        E 0 8e 45 64
        E 0 98 48 64
        E 0 9e 48 64
        E 480 88 48 64
        E 1 8e 48 64
        E 0 98 48 64
        E 0 9e 48 64
        E 239 88 48 64
        E 0 8e 48 64
        E 0 98 47 64
        E 0 9e 47 64
        E 240 88 47 64
        E 0 8e 47 64
        E 0 8f 32 64
        E 0 98 47 64
        E 0 9e 47 64
        E 0 9f 33 5a
        E 480 88 47 64
        E 0 8e 47 64
        E 0 98 47 64
        E 0 9e 47 64
        E 480 88 47 64
        E 0 8e 47 64
        E 961 98 47 64
        E 0 9e 47 64
        E 480 88 47 64
        E 0 8e 47 64
        E 0 98 48 64
        E 0 9e 48 64
        E 481 88 48 64
        E 0 8e 48 64
        E 0 98 45 64
        E 0 9e 45 64
        E 478 88 45 64
        E 0 8e 45 64
        E 0 98 45 64
        E 0 9e 45 64
        E 241 88 45 64
        E 0 8e 45 64
        E 0 98 43 64
        E 0 9e 43 64
        E 239 88 43 64
        E 0 8e 43 64
        E 0 8f 33 64
        E 0 98 43 64
        E 0 9e 43 64
        E 0 9f 2e 5a
        E 481 88 43 64
        E 0 8e 43 64
        E 0 98 43 64
        E 0 9e 43 64
        E 480 88 43 64
        E 0 8e 43 64
        E 239 98 4c 64
        E 1 9e 4c 64
        E 239 88 4c 64
        E 0 8e 4c 64
        E 1 98 4b 66
        E 0 9e 4b 66
        E 239 88 4b 66
        E 0 8e 4b 66
        E 0 98 4c 64
        E 0 9e 4c 64
        E 240 88 4c 64
        E 0 8e 4c 64
        E 0 8f 2e 64
        E 0 98 47 64
        E 0 9e 47 64
        E 0 9f 2f 5a
        E 481 88 47 64
        E 0 8e 47 64
        E 0 98 47 64
        E 0 9e 47 64
        E 480 88 47 64
        E 0 8e 47 64
        E 0 8f 2f 64
        E 0 9f 34 5a
        E 479 98 43 64
        E 0 9e 43 64
        E 480 88 43 64
        E 0 8e 43 64
        E 0 8f 34 64
        E 0 98 47 64
        E 0 9e 47 64
        E 0 9f 34 5a
        E 481 88 47 64
        E 0 8e 47 64
        E 0 98 47 64
        E 0 9e 47 64
        E 480 88 47 64
        E 0 8e 47 64
        E 0 98 47 64
        E 0 9e 47 64
        E 480 88 47 64
        E 0 8e 47 64
        E 0 98 49 64
        E 0 9e 49 64
        E 480 88 49 64
        E 0 8e 49 64
        E 0 8f 34 64
        E 0 98 49 64
        E 0 9e 49 64
        E 0 9f 2e 5a
        E 479 88 49 64
        E 0 8e 49 64
        E 0 98 49 64
        E 1 9e 49 64
        E 480 88 49 64
        E 0 8e 49 64
        E 960 8f 2e 64
        E 1 98 4c 64
        E 0 9e 4c 64
        E 0 9f 2e 5a
        E 479 88 4c 64
        E 0 8e 4c 64
        E 0 98 49 64
        E 1 9e 49 64
        E 238 88 49 64
        E 0 8e 49 64
        E 0 98 49 64
        E 0 9e 49 64
        E 239 88 49 64
        E 0 8e 49 64
        E 1 98 47 64
        E 0 9e 47 64
        E 481 88 47 64
        E 0 8e 47 64
        E 0 98 49 64
        E 0 9e 49 64
        E 479 88 49 64
        E 0 8e 49 64
        E 0 8f 2e 64
        E 0 98 4a 64
        E 0 9e 4a 64
        E 0 9f 2f 5a
        E 481 88 4a 64
        E 0 8e 4a 64
        E 1 98 4a 64
        E 0 9e 4a 64
        E 478 88 4a 64
        E 0 8e 4a 64
        E 0 98 47 64
        E 1 9e 47 64
        E 481 88 47 64
        E 0 8e 47 64
        E 0 98 45 64
        E 0 9e 45 64
        E 239 88 45 64
        E 0 8e 45 64
        E 0 98 47 64
        E 0 9e 47 64
        E 239 88 47 64
        E 0 8e 47 64
        E 0 8f 2f 64
        E 0 98 43 64
        E 0 9e 43 64
        E 0 9f 34 5a
        E 481 88 43 64
        E 0 8e 43 64
        E 0 98 43 64
        E 0 9e 43 64
        E 479 88 43 64
        E 0 8e 43 64
        E 960 98 4c 64
        E 0 9e 4c 64
        E 480 88 4c 64
        E 0 8e 4c 64
        E 0 98 46 64
        E 0 9e 46 64
        E 241 88 46 64
        E 0 8e 46 64
        E 0 98 46 64
        E 0 9e 46 64
        E 240 88 46 64
        E 0 8e 46 64
        E 0 98 46 64
        E 1 9e 46 64
        E 477 88 46 64
        E 0 8e 46 64
        E 0 98 47 64
        E 0 9e 47 64
        E 481 88 47 64
        E 0 8e 47 64
        E 0 8f 34 64
        E 0 98 42 64
        E 0 9e 42 64
        E 0 9f 36 5a
        E 480 88 42 64
        E 0 8e 42 64
        E 0 98 42 64
        E 0 9e 42 64
        E 480 88 42 64
        E 0 8e 42 64
        E 960 8f 36 64
        E 0 9f 2f 5a
        E 2880 8f 2f 64
        E 0 93 40 5a
        E 0 9f 39 5a
        E 1151 83 40 64
        E 0 8f 39 64
        E 1 92 4c 64
        E 0 93 3d 5a
        E 0 9f 2d 5a
        E 1152 82 4c 64
        E 0 83 3d 64
        E 0 8f 2d 64
        E 0 92 51 64
        E 2303 82 51 64
        E 1 92 51 64
        E 289 82 51 64
        E 0 92 51 64
        E 287 82 51 64
        E 1 92 50 64
        E 287 82 50 64
        E 0 92 51 64
        E 288 82 51 64
        E 0 92 49 64
        E 0 93 3d 5a
        E 0 9f 2d 5a
        E 289 82 49 64
        E 0 92 49 64
        E 287 82 49 64
        E 0 92 4a 64
        E 289 82 4a 64
        E 0 92 4c 64
        E 287 82 4c 64
        E 0 83 3d 64
        E 0 8f 2d 64
        E 0 92 4a 64
        E 0 93 42 5a
        E 0 9f 32 5a
        E 289 82 4a 64
        E 0 92 4a 64
        E 287 82 4a 64
        E 0 92 4c 64
        E 288 82 4c 64
        E 0 92 4e 64
        E 289 82 4e 64
        E 0 83 42 64
        E 0 8f 32 64
        E 0 92 47 64
        E 0 93 40 5a
        E 0 9f 34 5a
        E 286 82 47 64
        E 1 92 47 64
        E 289 82 47 64
        E 0 92 49 64
        E 287 82 49 64
        E 0 92 4a 64
        E 290 82 4a 64
        E 0 83 40 64
        E 0 8f 34 64
        E 0 92 49 64
        E 0 93 40 5a
        E 0 9f 39 5a
        E 1151 82 49 64
        E 0 83 40 64
        E 0 8f 39 64
        E 1 92 45 64
        E 0 93 3d 5a
        E 0 9f 2d 5a
        E 1152 82 45 64
        E 0 83 3d 64
        E 0 8f 2d 64
        E 0 92 50 64
        E 0 92 51 64
        E 1151 82 50 64
        E 1153 82 51 64
        E 0 92 51 64
        E 287 82 51 64
        E 0 92 51 64
        E 288 82 51 64
        E 1 92 50 64
        E 287 82 50 64
        E 1 92 51 64
        E 287 82 51 64
        E 0 92 49 64
        E 0 93 3d 5a
        E 0 9f 2d 5a
        E 287 82 49 64
        E 1 92 49 64
        E 286 82 49 64
        E 0 92 4a 64
        E 290 82 4a 64
        E 1 92 4c 64
        E 286 82 4c 64
        E 0 83 3d 64
        E 0 8f 2d 64
        E 0 92 4a 64
        E 0 93 42 5a
        E 0 9f 32 5a
        E 288 82 4a 64
        E 0 92 4a 64
        E 287 82 4a 64
        E 0 92 4c 64
        E 289 82 4c 64
        E 0 92 4e 64
        E 289 82 4e 64
        E 0 83 42 64
        E 0 8f 32 64
        E 0 92 47 64
        E 1 93 40 5a
        E 0 9f 34 5a
        E 285 82 47 64
        E 1 92 47 64
        E 290 82 47 64
        E 0 92 49 64
        E 287 82 49 64
        E 0 92 4a 64
        E 288 82 4a 64
        E 0 83 40 64
        E 0 8f 34 64
        E 1 92 49 64
        E 0 93 40 5a
        E 0 9f 39 5a
        E 1151 83 40 64
        E 0 8f 39 64
        E 0 93 3d 5a
        E 0 9f 2d 5a
        E 574 82 49 64
        E 0 92 47 64
        E 289 82 47 64
        E 0 92 45 64
        E 290 82 45 64
        E 0 83 3d 64
        E 0 8f 2d 64
        E 0 92 51 64
        E 0 93 40 5a
        E 0 9f 31 5a
        E 1150 82 51 64
        E 0 83 40 64
        E 0 8f 31 64
        E 0 92 39 64
        E 0 93 39 5a
        E 0 9f 2d 5a
        E 1151 82 39 64
        E 1 83 39 64
        E 0 8f 2d 64
        E 0 92 50 64
        E 0 93 3b 5a
        E 0 9f 28 5a
        E 1154 83 3b 64
        E 0 8f 28 64
        E 0 93 44 5a
        E 0 9f 34 5a
        E 573 82 50 64
        E 0 92 4e 64
        E 290 82 4e 64
        E 0 92 4c 64
        E 287 82 4c 64
        E 0 83 44 64
        E 0 8f 34 64
        E 0 92 53 64
        E 0 93 40 5a
        E 0 9f 38 5a
        E 1151 82 53 64
        E 0 83 40 64
        E 0 8f 38 64
        E 0 92 40 64
        E 0 93 40 5a
        E 1 9f 34 5a
        E 1154 82 40 64
        E 0 83 40 64
        E 0 8f 34 64
        E 0 92 49 64
        E 0 93 40 5a
        E 0 9f 2d 5a
        E 574 82 49 64
        E 0 92 45 64
        E 576 82 45 64
        E 0 83 40 64
        E 0 8f 2d 64
        E 0 92 50 64
        E 0 93 40 5a
        E 0 9f 34 5a
        E 576 82 50 64
        E 0 92 51 64
        E 577 82 51 64
        E 0 83 40 64
        E 0 8f 34 64
        E 1 92 49 64
        E 0 93 40 5a
        E 0 9f 2d 5a
        E 574 82 49 64
        E 0 92 4a 64
        E 575 82 4a 64
        E 0 83 40 64
        E 0 8f 2d 64
        E 0 92 52 64
        E 1 93 42 5a
        E 0 9f 36 5a
        E 576 82 52 64
        E 0 92 53 64
        E 575 82 53 64
        E 0 83 42 64
        E 0 8f 36 64
        E 0 92 4b 64
        E 0 93 42 5a
        E 0 9f 2f 5a
        E 578 82 4b 64
        E 0 92 4c 64
        E 575 82 4c 64
        E 0 83 42 64
        E 0 8f 2f 64
        E 0 92 54 63
        E 0 93 44 5a
        E 0 9f 38 5a
        E 576 82 54 63
        E 0 92 55 64
        E 577 82 55 64
        E 0 83 44 64
        E 0 8f 38 64
        E 0 92 4d 63
        E 0 93 44 5a
        E 0 9f 31 5a
        E 575 82 4d 63
        E 0 92 4e 64
        E 576 82 4e 64
        E 0 83 44 64
        E 0 8f 31 64
        E 0 92 55 64
        E 0 93 45 5a
        E 0 9f 39 5a
        E 577 82 55 64
        E 1 92 56 64
        E 574 82 56 64
        E 0 83 45 64
        E 0 8f 39 64
        E 0 92 50 64
        E 0 93 47 5a
        E 0 9f 34 5a
        E 288 82 50 64
        E 1 92 4c 64
        E 287 82 4c 64
        E 0 8f 34 64
        E 0 92 4e 64
        E 0 9f 32 5a
        E 290 82 4e 64
        E 0 92 50 64
        E 285 82 50 64
        E 1 83 47 64
        E 0 8f 32 64
        E 0 92 51 64
        E 0 93 40 5a
        E 0 9f 31 5a
        E 289 82 51 64
        E 0 92 49 64
        E 288 82 49 64
        E 0 8f 31 64
        E 0 92 47 64
        E 0 9f 32 5a
        E 287 82 47 64
        E 0 92 45 64
        E 289 82 45 64
        E 0 83 40 64
        E 0 8f 32 64
        E 0 92 44 64
        E 0 93 3b 5a
        E 0 9f 34 5a
        E 287 82 44 64
        E 0 92 47 64
        E 288 82 47 64
        E 0 8f 34 64
        E 0 92 4c 64
        E 0 9f 36 5a
        E 289 82 4c 64
        E 1 92 50 64
        E 287 82 50 64
        E 0 83 3b 64
        E 0 8f 36 64
        E 0 92 53 64
        E 0 93 40 5a
        E 0 9f 38 5a
        E 575 82 53 64
        E 0 8f 38 64
        E 0 9f 34 5a
        E 577 83 40 64
        E 0 8f 34 64
        E 0 92 49 64
        E 0 93 40 5a
        E 0 9f 39 5a
        E 287 82 49 64
        E 0 92 4c 64
        E 288 82 4c 64
        E 0 8f 39 64
        E 0 92 4e 64
        E 0 9f 34 5a
        E 289 82 4e 64
        E 0 92 50 64
        E 286 82 50 64
        E 0 83 40 64
        E 0 8f 34 64
        E 0 92 51 64
        E 0 93 40 5a
        E 0 9f 31 5a
        E 289 82 51 64
        E 0 92 49 64
        E 290 82 49 64
        E 0 8f 31 64
        E 0 92 47 64
        E 0 9f 32 5a
        E 287 82 47 64
        E 0 92 45 64
        E 288 82 45 64
        E 0 83 40 64
        E 0 8f 32 64
        E 0 92 44 64
        E 0 93 3b 5a
        E 0 9f 34 5a
        E 286 82 44 64
        E 0 92 47 64
        E 288 82 47 64
        E 0 8f 34 64
        E 0 92 4c 64
        E 0 9f 36 5a
        E 290 82 4c 64
        E 0 92 50 64
        E 287 82 50 64
        E 0 83 3b 64
        E 0 8f 36 64
        E 0 92 53 64
        E 0 93 40 5a
        E 0 9f 38 5a
        E 578 82 53 64
        E 0 8f 38 64
        E 0 9f 34 5a
        E 573 83 40 64
        E 0 8f 34 64
        E 0 92 49 64
        E 0 93 40 5a
        E 0 9f 39 5a
        E 188 92 47 64
        E 101 82 49 64
        E 89 92 45 64
        E 98 82 47 64
        E 102 8f 39 64
        E 0 92 4c 64
        E 0 9f 2d 5a
        E 87 82 45 64
        E 102 92 4a 64
        E 98 82 4c 64
        E 90 92 49 64
        E 99 82 4a 64
        E 99 83 40 64
        E 0 8f 2d 64
        E 0 92 51 64
        E 0 93 40 5a
        E 0 9f 31 5a
        E 89 82 49 64
        E 487 82 51 64
        E 0 83 40 64
        E 0 8f 31 64
        E 0 92 45 64
        E 0 93 42 5a
        E 0 9f 32 5a
        E 575 82 45 64
        E 0 83 42 64
        E 0 8f 32 64
        E 1 92 40 64
        E 0 93 3b 5a
        E 0 9f 34 5a
        E 1154 82 40 64
        E 0 83 3b 64
        E 0 8f 34 64
        E 0 92 47 64
        E 0 93 44 5a
        E 0 9f 28 5a
        E 1149 82 47 64
        E 0 83 44 64
        E 0 8f 28 64
        E 0 92 45 64
        E 0 93 40 5a
        E 1 9f 2d 5a
        E 2304 82 45 64
        E 0 83 40 64
        E 0 8f 2d 64
        E 0 98 4c 64
        E 1151 88 4c 64
        E 1 98 40 64
        E 1152 88 40 64
        E 0 98 45 64
        E 0 9f 2d 5a
        E 4607 88 45 64
        E 0 98 45 64
        E 1154 88 45 64
        E 1 98 4e 64
        E 1152 88 4e 64
        E 0 98 4c 64
        E 574 88 4c 64
        E 0 98 4a 64
        E 577 88 4a 64
        E 0 98 49 64
        E 576 88 49 64
        E 0 98 47 64
        E 575 88 47 64
        E 0 8f 2d 64
        E 0 98 49 64
        E 0 9f 2d 5a
        E 866 88 49 64
        E 1 98 47 64
        E 576 88 47 64
        E 1 98 45 64
        E 1149 88 45 64
        E 0 8f 2d 64
        E 1152 92 49 64
        E 0 93 40 5a
        E 0 98 45 64
        E 0 9f 2d 5a
        E 575 88 45 64
        E 0 98 49 64
        E 575 82 49 64
        E 0 83 40 64
        E 1 88 49 64
        E 0 8f 2d 64
        E 0 92 47 64
        E 0 93 40 5a
        E 0 98 47 64
        E 3 9f 34 5a
        E 1150 82 47 64
        E 0 83 40 64
        E 0 88 47 64
        E 0 8f 34 64
        E 0 92 47 64
        E 1 93 40 5a
        E 0 98 40 64
        E 0 9f 34 5a
        E 1151 82 47 64
        E 0 83 40 64
        E 0 88 40 64
        E 0 8f 34 64
        E 1 92 47 64
        E 0 93 40 5a
        E 0 98 4a 64
        E 0 9f 34 5a
        E 1150 82 47 64
        E 0 83 40 64
        E 0 88 4a 64
        E 0 8f 34 64
        E 2 92 47 64
        E 0 93 40 5a
        E 1 98 49 64
        E 0 9f 34 5a
        E 574 88 49 64
        E 0 98 47 64
        E 574 82 47 64
        E 1 83 40 64
        E 0 88 47 64
        E 0 8f 34 64
        E 0 92 49 64
        E 0 93 40 5a
        E 0 98 49 64
        E 0 9f 2d 5a
        E 288 82 49 64
        E 0 92 51 64
        E 288 82 51 64
        E 1 88 49 64
        E 2 92 50 64
        E 0 98 47 64
        E 287 82 50 64
        E 0 92 51 64
        E 286 82 51 64
        E 1 83 40 64
        E 0 88 47 64
        E 0 8f 2d 64
        E 0 92 49 64
        E 0 93 40 5a
        E 1 98 45 64
        E 0 9f 2d 5a
        E 286 82 49 64
        E 0 92 49 64
        E 289 82 49 64
        E 1 92 4a 64
        E 287 82 4a 64
        E 0 92 4c 64
        E 292 82 4c 64
        E 0 83 40 64
        E 0 88 45 64
        E 0 8f 2d 64
        E 1 92 45 64
        E 0 93 3d 5a
        E 0 9f 2d 5a
        E 281 82 45 64
        E 0 92 51 64
        E 295 82 51 64
        E 2 92 50 64
        E 282 82 50 64
        E 1 92 51 64
        E 286 82 51 64
        E 0 83 3d 64
        E 1 8f 2d 64
        E 0 92 49 64
        E 7 93 40 5a
        E 1 98 45 64
        E 1 9f 2d 5a
        E 277 82 49 64
        E 1 92 49 64
        E 289 82 49 64
        E 0 88 45 64
        E 0 92 4a 64
        E 1 98 49 64
        E 284 82 4a 64
        E 0 92 4c 64
        E 295 82 4c 64
        E 0 83 40 64
        E 0 88 49 64
        E 0 8f 2d 64
        E 0 92 44 64
        E 0 93 40 5a
        E 0 98 47 64
        E 0 9f 34 5a
        E 1149 82 44 64
        E 0 83 40 64
        E 0 88 47 64
        E 0 8f 34 64
        E 0 92 47 64
        E 1 93 40 5a
        E 0 98 4c 64
        E 0 9f 34 5a
        E 1157 82 47 64
        E 0 83 40 64
        E 0 88 4c 64
        E 0 8f 34 64
        E 1 92 47 64
        E 0 93 40 5a
        E 2 98 4c 64
        E 0 9f 34 5a
        E 1145 82 47 64
        E 0 83 40 64
        E 0 88 4c 64
        E 0 8f 34 64
        E 0 92 47 64
        E 1 93 40 5a
        E 0 98 44 64
        E 0 9f 34 5a
        E 1155 82 47 64
        E 0 83 40 64
        E 0 88 44 64
        E 0 8f 34 64
        E 0 92 4b 64
        E 0 93 3f 5a
        E 0 98 45 64
        E 0 9f 36 5a
        E 1144 82 4b 64
        E 0 83 3f 64
        E 0 88 45 64
        E 0 8f 36 64
        E 0 92 4b 64
        E 0 93 3f 5a
        E 0 98 44 64
        E 1 9f 36 5a
        E 577 88 44 64
        E 2 98 42 64
        E 572 82 4b 64
        E 1 83 3f 64
        E 0 88 42 64
        E 0 8f 36 64
        E 1 92 4b 64
        E 0 93 42 5a
        E 0 98 4e 64
        E 0 9f 2f 5a
        E 1150 82 4b 64
        E 0 83 42 64
        E 0 88 4e 64
        E 0 8f 2f 64
        E 0 92 4b 64
        E 0 93 42 5a
        E 0 98 45 64
        E 0 9f 2f 5a
        E 1154 82 4b 64
        E 0 83 42 64
        E 0 88 45 64
        E 0 8f 2f 64
        E 0 92 47 64
        E 0 93 40 5a
        E 0 98 44 64
        E 0 9f 34 5a
        E 284 82 47 64
        E 1 92 50 64
        E 289 82 50 64
        E 0 88 44 64
        E 0 92 51 64
        E 0 98 42 64
        E 287 82 51 64
        E 0 92 53 64
        E 288 82 53 64
        E 0 83 40 64
        E 0 88 42 64
        E 0 8f 34 64
        E 0 92 4c 64
        E 0 93 44 5a
        E 0 98 44 64
        E 0 9f 34 5a
        E 288 82 4c 64
        E 0 92 4c 64
        E 288 82 4c 64
        E 1 92 4e 64
        E 288 82 4e 64
        E 0 92 50 64
        E 287 82 50 64
        E 0 83 44 64
        E 0 88 44 64
        E 0 8f 34 64
        E 1 92 47 64
        E 0 93 44 5a
        E 0 9f 34 5a
        E 287 82 47 64
        E 0 92 47 64
        E 290 82 47 64
        E 4 92 49 64
        E 286 82 49 64
        E 1 92 4a 64
        E 284 82 4a 64
        E 1 83 44 64
        E 0 8f 34 64
        E 0 92 44 64
        E 0 93 44 5a
        E 0 98 40 64
        E 0 9f 34 5a
        E 286 82 44 64
        E 0 92 47 64
        E 289 82 47 64
        E 0 88 40 64
        E 0 92 49 64
        E 0 98 47 64
        E 286 82 49 64
        E 1 92 4a 64
        E 288 82 4a 64
        E 0 83 44 64
        E 0 88 47 64
        E 0 8f 34 64
        E 0 92 49 64
        E 0 93 40 5a
        E 0 98 49 64
        E 0 9f 2d 5a
        E 288 82 49 64
        E 0 92 4c 64
        E 288 82 4c 64
        E 0 92 4a 64
        E 289 82 4a 64
        E 0 92 49 64
        E 287 82 49 64
        E 0 83 40 64
        E 0 8f 2d 64
        E 1 92 51 64
        E 1 93 3d 5a
        E 0 9f 2d 5a
        E 287 82 51 64
        E 0 92 4c 64
        E 288 82 4c 64
        E 0 92 4a 64
        E 287 82 4a 64
        E 0 92 49 64
        E 287 82 49 64
        E 0 83 3d 64
        E 0 88 49 64
        E 0 8f 2d 64
        E 16 92 51 64
        E 0 93 3d 5a
        E 0 98 49 64
        E 1 9f 2d 5a
        E 560 88 49 64
        E 0 98 47 64
        E 288 88 47 64
        E 0 98 45 64
        E 290 82 51 64
        E 0 83 3d 64
        E 0 88 45 64
        E 0 8f 2d 64
        E 0 92 3d 64
        E 0 93 36 5a
        E 0 98 44 64
        E 0 9f 2d 5a
        E 574 88 44 64
        E 1 98 42 64
        E 576 82 3d 64
        E 0 83 36 64
        E 0 88 42 64
        E 0 8f 2d 64
        E 0 93 42 5a
        E 0 98 4b 64
        E 0 9f 2f 5a
        E 286 92 4e 64
        E 289 82 4e 64
        E 1 92 4c 64
        E 286 82 4c 64
        E 0 92 4b 64
        E 290 82 4b 64
        E 0 83 42 64
        E 0 8f 2f 64
        E 0 92 53 64
        E 1 93 3f 5a
        E 0 9f 2f 5a
        E 285 82 53 64
        E 0 92 4e 64
        E 297 82 4e 64
        E 1 92 4c 64
        E 281 82 4c 64
        E 0 92 4b 64
        E 286 82 4b 64
        E 0 83 3f 64
        E 0 88 4b 64
        E 0 8f 2f 64
        E 0 92 53 64
        E 0 93 3f 5a
        E 0 98 4b 64
        E 0 9f 2f 5a
        E 576 88 4b 64
        E 1 98 49 64
        E 288 88 49 64
        E 0 98 47 64
        E 288 82 53 64
        E 0 83 3f 64
        E 0 88 47 64
        E 0 8f 2f 64
        E 0 92 3f 64
        E 0 93 38 5a
        E 0 98 45 64
        E 0 9f 2f 5a
        E 575 88 45 64
        E 0 98 44 64
        E 576 82 3f 64
        E 0 83 38 64
        E 1 88 44 64
        E 0 8f 2f 64
        E 0 93 44 5a
        E 0 98 4c 64
        E 0 9f 31 5a
        E 289 92 50 64
        E 286 82 50 64
        E 1 92 4e 64
        E 288 82 4e 64
        E 0 92 4c 64
        E 287 82 4c 64
        E 0 83 44 64
        E 0 8f 31 64
        E 0 92 55 64
        E 0 93 40 5a
        E 0 9f 31 5a
        E 288 82 55 64
        E 0 92 50 64
        E 289 82 50 64
        E 1 92 4e 64
        E 286 82 4e 64
        E 0 92 4c 64
        E 288 82 4c 64
        E 0 83 40 64
        E 0 88 4c 64
        E 0 8f 31 64
        E 0 92 55 64
        E 0 93 40 5a
        E 0 98 4c 64
        E 0 9f 31 5a
        E 577 88 4c 64
        E 0 98 4b 64
        E 286 88 4b 64
        E 1 98 49 64
        E 289 82 55 64
        E 0 83 40 64
        E 0 88 49 64
        E 0 8f 31 64
        E 0 92 40 64
        E 0 93 39 5a
        E 1 98 47 64
        E 0 9f 31 5a
        E 573 88 47 64
        E 1 98 45 64
        E 579 82 40 64
        E 0 83 39 64
        E 0 88 45 64
        E 0 8f 31 64
        E 0 93 45 5a
        E 0 98 4e 64
        E 0 9f 33 5a
        E 573 88 4e 64
        E 0 92 50 64
        E 1 98 4c 64
        E 575 82 50 64
        E 0 83 45 64
        E 0 88 4c 64
        E 0 8f 33 64
        E 0 92 4e 64
        E 0 93 42 5a
        E 0 98 4b 64
        E 0 9f 33 5a
        E 576 82 4e 64
        E 0 88 4b 64
        E 0 92 4c 64
        E 1 98 49 64
        E 575 82 4c 64
        E 0 83 42 64
        E 0 88 49 64
        E 0 8f 33 64
        E 0 92 4b 64
        E 0 93 42 5a
        E 0 98 47 64
        E 1 9f 33 5a
        E 577 82 4b 64
        E 0 88 47 64
        E 0 92 49 64
        E 1 98 45 64
        E 573 82 49 64
        E 0 83 42 64
        E 1 88 45 64
        E 0 8f 33 64
        E 0 92 47 64
        E 0 93 3b 5a
        E 0 98 44 64
        E 0 9f 33 5a
        E 592 82 47 64
        E 0 88 44 64
        E 0 92 45 64
        E 1 98 42 64
        E 558 82 45 64
        E 0 83 3b 64
        E 0 88 42 64
        E 0 8f 33 64
        E 0 92 44 64
        E 0 93 3b 5a
        E 0 98 44 64
        E 0 9f 34 5a
        E 1153 82 44 64
        E 0 83 3b 64
        E 0 88 44 64
        E 0 8f 34 64
        E 0 92 4c 64
        E 0 93 3b 5a
        E 0 98 4c 64
        E 0 9f 34 5a
        E 1151 82 4c 64
        E 0 83 3b 64
        E 0 88 4c 64
        E 0 8f 34 64
        E 0 92 44 64
        E 0 93 3b 5a
        E 0 98 44 64
        E 0 9f 2f 5a
        E 1153 82 44 64
        E 0 83 3b 64
        E 0 88 44 64
        E 0 8f 2f 64
        E 0 92 42 64
        E 0 93 3b 5a
        E 0 98 42 64
        E 0 9f 2f 5a
        E 1151 82 42 64
        E 1 83 3b 64
        E 0 88 42 64
        E 0 8f 2f 64
        E 0 92 4c 64
        E 0 93 3b 5a
        E 5 98 40 64
        E 2 9f 34 5a
        E 280 82 4c 64
        E 0 92 4e 64
        E 288 82 4e 64
        E 0 92 50 64
        E 287 82 50 64
        E 1 92 51 64
        E 289 82 51 64
        E 0 83 3b 64
        E 0 8f 34 64
        E 0 92 53 64
        E 1 93 3b 5a
        E 0 9f 34 5a
        E 286 82 53 64
        E 0 92 50 64
        E 288 82 50 64
        E 0 92 4e 64
        E 290 82 4e 64
        E 0 92 4c 64
        E 287 82 4c 64
        E 0 83 3b 64
        E 0 88 40 64
        E 0 8f 34 64
        E 0 92 47 64
        E 0 93 3b 5a
        E 0 9f 33 5a
        E 287 82 47 64
        E 0 92 4b 64
        E 291 82 4b 64
        E 0 92 4e 64
        E 287 82 4e 64
        E 0 92 51 64
        E 286 82 51 64
        E 0 83 3b 64
        E 0 8f 33 64
        E 0 92 53 64
        E 0 93 3b 5a
        E 0 9f 33 5a
        E 575 82 53 64
        E 579 83 3b 64
        E 1 8f 33 64
        E 0 92 50 64
        E 0 93 3b 5a
        E 0 9f 34 5a
        E 285 82 50 64
        E 0 92 4c 64
        E 289 82 4c 64
        E 1 92 50 64
        E 288 82 50 64
        E 0 92 51 64
        E 287 82 51 64
        E 0 83 3b 64
        E 0 8f 34 64
        E 0 92 53 64
        E 1 93 3b 5a
        E 0 9f 38 5a
        E 286 82 53 64
        E 0 92 50 64
        E 289 82 50 64
        E 0 92 4e 64
        E 287 82 4e 64
        E 0 92 4c 64
        E 289 82 4c 64
        E 0 83 3b 64
        E 0 8f 38 64
        E 0 92 47 64
        E 0 93 3f 5a
        E 0 9f 3b 5a
        E 1151 82 47 64
        E 1 83 3f 64
        E 0 8f 3b 64
        E 0 92 4e 64
        E 0 93 3f 5a
        E 0 9f 2f 5a
        E 1152 82 4e 64
        E 0 83 3f 64
        E 0 8f 2f 64
        E 1 92 4c 64
        E 0 93 3b 5a
        E 0 9f 34 5a
        E 1151 82 4c 64
        E 0 83 3b 64
        E 0 8f 34 64
        E 0 92 47 64
        E 0 93 3b 5a
        E 0 9f 34 5a
        E 1154 82 47 64
        E 0 83 3b 64
        E 0 8f 34 64
        E 0 92 47 64
        E 0 93 3b 5a
        E 0 98 4c 64
        E 0 9f 34 5a
        E 1149 82 47 64
        E 0 83 3b 64
        E 0 88 4c 64
        E 0 8f 34 64
        E 0 92 47 64
        E 0 93 3b 5a
        E 0 98 50 64
        E 0 9f 34 5a
        E 1153 82 47 64
        E 0 83 3b 64
        E 0 88 50 64
        E 0 8f 34 64
        E 0 92 53 64
        E 0 93 3b 5a
        E 0 98 4e 64
        E 0 9f 2f 5a
        E 574 82 53 64
        E 1 88 4e 64
        E 0 92 51 64
        E 0 98 4b 64
        E 576 82 51 64
        E 2 83 3b 64
        E 0 88 4b 64
        E 0 8f 2f 64
        E 1 92 4b 64
        E 0 93 3b 5a
        E 0 98 47 64
        E 0 9f 2f 5a
        E 574 82 4b 64
        E 0 92 4e 64
        E 575 82 4e 64
        E 0 83 3b 64
        E 0 88 47 64
        E 0 8f 2f 64
        E 1 92 45 64
        E 0 93 3b 5a
        E 0 98 45 64
        E 0 9f 2f 5a
        E 575 82 45 64
        E 1 92 49 64
        E 575 82 49 64
        E 0 83 3b 64
        E 0 8f 2f 64
        E 0 92 42 64
        E 0 93 3b 5a
        E 1 9f 2f 5a
        E 575 82 42 64
        E 1 92 45 64
        E 582 82 45 64
        E 0 83 3b 64
        E 0 88 45 64
        E 0 8f 2f 64
        E 1 92 42 64
        E 0 93 3b 5a
        E 0 98 45 64
        E 0 9f 2f 5a
        E 1153 83 3b 64
        E 0 88 45 64
        E 0 8f 2f 64
        E 1 93 3b 5a
        E 0 98 4b 64
        E 1 9f 2f 5a
        E 1142 82 42 64
        E 0 83 3b 64
        E 0 88 4b 64
        E 0 8f 2f 64
        E 0 92 51 64
        E 0 93 3b 5a
        E 0 98 4e 64
        E 0 9f 2f 5a
        E 1151 83 3b 64
        E 1 88 4e 64
        E 0 8f 2f 64
        E 0 93 3b 5a
        E 0 98 45 64
        E 0 9f 2f 5a
        E 577 82 51 64
        E 0 92 50 64
        E 286 82 50 64
        E 0 92 4e 64
        E 289 82 4e 64
        E 0 83 3b 64
        E 0 88 45 64
        E 0 8f 2f 64
        E 0 92 50 64
        E 0 93 3b 5a
        E 0 98 44 64
        E 0 9f 34 5a
        E 577 82 50 64
        E 0 88 44 64
        E 0 92 53 64
        E 1 98 42 64
        E 574 82 53 64
        E 0 83 3b 64
        E 0 88 42 64
        E 0 8f 34 64
        E 0 92 4c 64
        E 0 93 3b 5a
        E 0 98 40 64
        E 0 9f 34 5a
        E 576 82 4c 64
        E 0 92 50 64
        E 576 82 50 64
        E 0 83 3b 64
        E 0 88 40 64
        E 0 8f 34 64
        E 0 92 47 64
        E 0 93 3b 5a
        E 0 9f 34 5a
        E 578 82 47 64
        E 0 92 4c 64
        E 574 82 4c 64
        E 1 83 3b 64
        E 0 8f 34 64
        E 0 92 44 64
        E 1 93 3b 5a
        E 0 98 47 64
        E 0 9f 34 5a
        E 573 82 44 64
        E 0 88 47 64
        E 0 92 47 64
        E 1 98 4c 64
        E 575 82 47 64
        E 0 83 3b 64
        E 0 88 4c 64
        E 0 8f 34 64
        E 0 92 3e 64
        E 0 93 38 5a
        E 0 98 4a 64
        E 0 9f 34 5a
        E 1153 83 38 64
        E 0 88 4a 64
        E 0 8f 34 64
        E 0 93 38 5a
        E 0 98 47 64
        E 0 9f 34 5a
        E 1151 82 3e 64
        E 0 83 38 64
        E 0 88 47 64
        E 0 8f 34 64
        E 0 92 4a 64
        E 0 93 38 5a
        E 0 98 40 64
        E 0 9f 34 5a
        E 1153 83 38 64
        E 0 88 40 64
        E 0 8f 34 64
        E 0 93 38 5a
        E 0 98 4a 64
        E 0 9f 34 5a
        E 576 82 4a 64
        E 0 92 49 64
        E 287 82 49 64
        E 0 92 47 64
        E 289 82 47 64
        E 0 83 38 64
        E 0 88 4a 64
        E 0 8f 34 64
        E 0 92 49 64
        E 0 93 40 5a
        E 0 98 49 64
        E 0 9f 2d 5a
        E 288 82 49 64
        E 0 92 49 64
        E 287 82 49 64
        E 0 88 49 64
        E 3 92 4a 64
        E 0 98 47 64
        E 286 82 4a 64
        E 0 92 4c 64
        E 288 82 4c 64
        E 0 83 40 64
        E 0 88 47 64
        E 0 8f 2d 64
        E 0 92 45 64
        E 1 93 40 5a
        E 0 98 45 64
        E 1 9f 2d 5a
        E 285 82 45 64
        E 0 92 4c 64
        E 288 82 4c 64
        E 0 92 4e 64
        E 288 82 4e 64
        E 0 92 50 64
        E 288 82 50 64
        E 0 83 40 64
        E 0 88 45 64
        E 0 8f 2d 64
        E 0 92 49 64
        E 0 93 40 5a
        E 0 9f 2d 5a
        E 288 82 49 64
        E 0 92 49 64
        E 288 82 49 64
        E 0 92 4a 64
        E 289 82 4a 64
        E 1 92 4c 64
        E 286 82 4c 64
        E 0 83 40 64
        E 0 8f 2d 64
        E 0 92 45 64
        E 0 93 3d 5a
        E 0 98 45 64
        E 0 9f 2d 5a
        E 288 82 45 64
        E 0 92 4c 64
        E 288 82 4c 64
        E 1 88 45 64
        E 0 92 4e 64
        E 0 98 40 64
        E 288 82 4e 64
        E 0 92 4f 64
        E 288 82 4f 64
        E 0 83 3d 64
        E 0 88 40 64
        E 0 8f 2d 64
        E 1 92 4e 64
        E 0 93 39 5a
        E 0 98 42 64
        E 0 9f 32 5a
        E 573 82 4e 64
        E 1 92 51 64
        E 577 82 51 64
        E 0 83 39 64
        E 0 8f 32 64
        E 0 92 4a 64
        E 0 93 39 5a
        E 0 9f 32 5a
        E 576 82 4a 64
        E 0 92 4e 64
        E 575 82 4e 64
        E 0 83 39 64
        E 0 88 42 64
        E 0 8f 32 64
        E 0 92 47 64
        E 0 93 3e 5a
        E 0 98 42 64
        E 0 9f 32 5a
        E 576 88 42 64
        E 0 98 4a 64
        E 576 82 47 64
        E 1 83 3e 64
        E 0 88 4a 64
        E 0 8f 32 64
        E 0 92 47 64
        E 0 93 3e 5a
        E 0 98 47 64
        E 0 9f 32 5a
        E 575 88 47 64
        E 0 98 45 64
        E 576 82 47 64
        E 0 83 3e 64
        E 0 88 45 64
        E 0 8f 32 64
        E 0 92 50 64
        E 0 93 3b 5a
        E 0 98 44 64
        E 0 9f 34 5a
        E 576 82 50 64
        E 0 92 53 64
        E 576 82 53 64
        E 0 83 3b 64
        E 0 8f 34 64
        E 0 92 4c 64
        E 0 93 3b 5a
        E 0 9f 34 5a
        E 576 82 4c 64
        E 1 92 50 64
        E 577 82 50 64
        E 0 83 3b 64
        E 0 88 44 64
        E 0 8f 34 64
        E 0 92 49 64
        E 0 93 40 5a
        E 0 98 44 64
        E 0 9f 34 5a
        E 574 88 44 64
        E 0 98 4c 64
        E 576 82 49 64
        E 0 83 40 64
        E 0 88 4c 64
        E 0 8f 34 64
        E 0 92 49 64
        E 0 93 40 5a
        E 0 98 49 64
        E 0 9f 34 5a
        E 577 88 49 64
        E 1 98 47 64
        E 574 82 49 64
        E 1 83 40 64
        E 0 88 47 64
        E 0 8f 34 64
        E 0 92 51 64
        E 0 93 3d 5a
        E 0 98 45 64
        E 0 9f 36 5a
        E 575 82 51 64
        E 1 92 55 64
        E 577 82 55 64
        E 0 83 3d 64
        E 0 8f 36 64
        E 1 92 4e 64
        E 0 93 3d 5a
        E 0 9f 36 5a
        E 573 82 4e 64
        E 2 92 51 64
        E 574 82 51 64
        E 0 83 3d 64
        E 0 88 45 64
        E 0 8f 36 64
        E 0 92 4a 64
        E 0 93 42 5a
        E 0 98 45 64
        E 0 9f 36 5a
        E 576 88 45 64
        E 0 98 4e 64
        E 577 82 4a 64
        E 0 83 42 64
        E 0 88 4e 64
        E 0 8f 36 64
        E 1 92 4a 64
        E 0 93 42 5a
        E 0 98 4a 64
        E 0 9f 36 5a
        E 574 88 4a 64
        E 0 98 49 64
        E 578 82 4a 64
        E 0 83 42 64
        E 0 88 49 64
        E 0 8f 36 64
        E 1 92 53 64
        E 0 93 3e 5a
        E 0 98 47 64
        E 0 9f 38 5a
        E 573 82 53 64
        E 0 92 56 64
        E 576 82 56 64
        E 0 83 3e 64
        E 0 8f 38 64
        E 1 92 50 64
        E 0 93 3e 5a
        E 0 9f 38 5a
        E 575 82 50 64
        E 0 92 53 64
        E 577 82 53 64
        E 0 83 3e 64
        E 0 88 47 64
        E 0 8f 38 64
        E 0 92 4c 64
        E 0 93 44 5a
        E 0 98 47 64
        E 0 9f 38 5a
        E 576 88 47 64
        E 1 98 50 64
        E 575 82 4c 64
        E 0 83 44 64
        E 0 88 50 64
        E 0 8f 38 64
        E 0 92 4c 64
        E 0 93 44 5a
        E 0 98 4c 64
        E 0 9f 38 5a
        E 575 88 4c 64
        E 1 98 4a 64
        E 575 82 4c 64
        E 0 83 44 64
        E 0 88 4a 64
        E 0 8f 38 64
        E 0 92 4c 64
        E 0 93 40 5a
        E 0 98 49 64
        E 0 9f 39 5a
        E 578 88 49 64
        E 0 98 47 64
        E 575 82 4c 64
        E 0 83 40 64
        E 0 88 47 64
        E 0 8f 39 64
        E 0 92 4c 64
        E 1 93 44 5a
        E 0 98 45 64
        E 0 9f 34 5a
        E 574 88 45 64
        E 0 98 44 64
        E 576 82 4c 64
        E 0 83 44 64
        E 0 88 44 64
        E 0 8f 34 64
        E 0 92 4a 64
        E 0 93 42 5a
        E 0 98 45 64
        E 0 9f 36 5a
        E 1152 82 4a 64
        E 0 83 42 64
        E 0 88 45 64
        E 0 8f 36 64
        E 0 92 4a 64
        E 0 93 40 5a
        E 1 98 4a 64
        E 0 9f 2c 5a
        E 1151 82 4a 64
        E 0 83 40 64
        E 0 88 4a 64
        E 0 8f 2c 64
        E 0 92 49 64
        E 0 93 40 5a
        E 1 98 49 64
        E 0 9f 2d 5a
        E 1151 82 49 64
        E 0 83 40 64
        E 0 88 49 64
        E 0 8f 2d 64
        E 0 92 49 64
        E 0 93 40 5a
        E 0 98 47 64
        E 0 9f 39 5a
        E 577 88 47 64
        E 0 98 45 64
        E 575 82 49 64
        E 0 83 40 64
        E 0 88 45 64
        E 0 8f 39 64
        E 0 92 47 64
        E 0 93 40 5a
        E 0 98 47 64
        E 0 9f 34 5a
        E 1152 82 47 64
        E 1 83 40 64
        E 0 8f 34 64
        E 0 92 47 64
        E 0 93 40 5a
        E 0 9f 28 5a
        E 1160 82 47 64
        E 0 83 40 64
        E 17 88 47 64
        E 0 8f 28 64
        E 2 92 49 64
        E 0 93 40 5a
        E 0 98 45 64
        E 0 9f 39 5a
        E 261 82 49 64
        E 0 92 4c 64
        E 286 82 4c 64
        E 0 8f 39 64
        E 1 92 4e 64
        E 1 9f 34 5a
        E 288 82 4e 64
        E 0 92 50 64
        E 288 82 50 64
        E 0 83 40 64
        E 0 8f 34 64
        E 0 92 51 64
        E 0 93 40 5a
        E 0 9f 31 5a
        E 287 82 51 64
        E 0 92 49 64
        E 289 82 49 64
        E 0 8f 31 64
        E 0 92 47 64
        E 1 9f 32 5a
        E 287 82 47 64
        E 1 92 45 64
        E 286 82 45 64
        E 0 83 40 64
        E 0 88 45 64
        E 0 8f 32 64
        E 0 92 44 64
        E 0 93 3b 5a
        E 0 9f 34 5a
        E 288 82 44 64
        E 0 92 47 64
        E 288 82 47 64
        E 0 8f 34 64
        E 0 92 4c 64
        E 1 9f 36 5a
        E 287 82 4c 64
        E 0 92 50 64
        E 288 82 50 64
        E 0 83 3b 64
        E 0 8f 36 64
        E 0 92 53 64
        E 0 93 40 5a
        E 0 98 4c 64
        E 0 9f 38 5a
        E 576 82 53 64
        E 0 8f 38 64
        E 1 9f 34 5a
        E 575 83 40 64
        E 0 88 4c 64
        E 0 8f 34 64
        E 0 92 49 64
        E 0 93 40 5a
        E 0 98 40 64
        E 0 9f 39 5a
        E 288 82 49 64
        E 0 92 4c 64
        E 289 82 4c 64
        E 1 8f 39 64
        E 0 92 4e 64
        E 0 9f 34 5a
        E 287 82 4e 64
        E 0 92 50 64
        E 288 82 50 64
        E 0 83 40 64
        E 0 8f 34 64
        E 0 92 51 64
        E 0 93 40 5a
        E 0 9f 31 5a
        E 288 82 51 64
        E 0 92 49 64
        E 287 82 49 64
        E 0 8f 31 64
        E 0 92 47 64
        E 0 9f 32 5a
        E 288 82 47 64
        E 0 92 45 64
        E 290 82 45 64
        E 0 83 40 64
        E 0 8f 32 64
        E 0 92 44 64
        E 0 93 40 5a
        E 0 9f 34 5a
        E 287 82 44 64
        E 0 92 47 64
        E 288 82 47 64
        E 0 8f 34 64
        E 1 92 4c 64
        E 0 9f 36 5a
        E 286 82 4c 64
        E 0 92 50 64
        E 288 82 50 64
        E 0 83 40 64
        E 0 88 40 64
        E 0 8f 36 64
        E 0 92 53 64
        E 0 93 40 5a
        E 0 98 4a 64
        E 0 9f 38 5a
        E 576 82 53 64
        E 0 8f 38 64
        E 0 9f 34 5a
        E 577 83 40 64
        E 0 88 4a 64
        E 0 8f 34 64
        E 1 92 49 64
        E 0 93 40 5a
        E 0 98 49 64
        E 0 9f 39 5a
        E 1151 83 40 64
        E 0 8f 39 64
        E 1 93 40 5a
        E 0 9f 2d 5a
        E 1152 82 49 64
        E 0 83 40 64
        E 0 88 49 64
        E 0 8f 2d 64
        E 0 92 47 64
        E 0 93 40 5a
        E 0 98 47 64
        E 0 9f 34 5a
        E 1150 83 40 64
        E 0 8f 34 64
        E 0 93 40 5a
        E 1 9f 28 5a
        E 1152 82 47 64
        E 0 83 40 64
        E 0 88 47 64
        E 0 8f 28 64
        E 0 92 45 64
        E 0 93 3d 5a
        E 0 98 45 64
        E 0 9f 2d 5a
        E 1151 82 45 64
        E 0 83 3d 64
        E 0 8f 2d 64
        E 0 92 4c 64
        E 0 93 3e 5a
        E 0 9f 2f 5a
        E 1154 82 4c 64
        E 0 83 3e 64
        E 0 8f 2f 64
        E 0 92 51 64
        E 0 93 40 5a
        E 0 9f 31 5a
        E 1151 83 40 64
        E 0 8f 31 64
        E 0 93 3d 5a
        E 0 9f 2d 5a
        E 1152 82 51 64
        E 0 83 3d 64
        E 0 88 45 64
        E 0 8f 2d 64
        E 0 92 51 64
        E 287 82 51 64
        E 0 92 51 64
        E 290 82 51 64
        E 0 92 50 64
        E 286 82 50 64
        E 0 92 51 64
        E 288 82 51 64
        E 0 92 49 64
        E 0 93 3d 5a
        E 0 9f 2d 5a
        E 288 82 49 64
        E 0 92 49 64
        E 287 82 49 64
        E 1 92 4a 64
        E 290 82 4a 64
        E 0 92 4c 64
        E 286 82 4c 64
        E 2 83 3d 64
        E 0 8f 2d 64
        E 0 92 4a 64
        E 0 93 42 5a
        E 0 9f 32 5a
        E 287 82 4a 64
        E 0 92 4a 64
        E 288 82 4a 64
        E 0 92 4c 64
        E 288 82 4c 64
        E 0 92 4e 64
        E 287 82 4e 64
        E 0 83 42 64
        E 0 8f 32 64
        E 0 92 47 64
        E 0 93 40 5a
        E 0 9f 34 5a
        E 287 82 47 64
        E 0 92 47 64
        E 289 82 47 64
        E 2 92 49 64
        E 286 82 49 64
        E 0 92 4a 64
        E 288 82 4a 64
        E 0 83 40 64
        E 0 8f 34 64
        E 0 92 49 64
        E 0 93 40 5a
        E 0 9f 2d 5a
        E 577 82 49 64
        E 0 92 45 64
        E 575 82 45 64
        E 0 83 40 64
        E 0 8f 2d 64
        E 0 92 50 64
        E 0 93 40 5a
        E 0 9f 34 5a
        E 576 82 50 64
        E 0 92 51 64
        E 576 82 51 64
        E 0 83 40 64
        E 1 8f 34 64
        E 0 92 49 64
        E 0 93 40 5a
        E 0 9f 2d 5a
        E 576 82 49 64
        E 0 92 4a 64
        E 578 82 4a 64
        E 0 83 40 64
        E 0 8f 2d 64
        E 0 92 52 64
        E 0 93 42 5a
        E 0 9f 36 5a
        E 573 82 52 64
        E 0 92 53 64
        E 577 82 53 64
        E 0 83 42 64
        E 0 8f 36 64
        E 0 92 4b 64
        E 0 93 42 5a
        E 0 9f 2f 5a
        E 576 82 4b 64
        E 0 92 4c 64
        E 575 82 4c 64
        E 0 83 42 64
        E 0 8f 2f 64
        E 0 92 54 63
        E 0 93 44 5a
        E 0 9f 38 5a
        E 575 82 54 63
        E 0 92 55 64
        E 578 82 55 64
        E 0 83 44 64
        E 0 8f 38 64
        E 1 92 4d 63
        E 0 93 44 5a
        E 0 9f 31 5a
        E 574 82 4d 63
        E 0 92 4e 64
        E 576 82 4e 64
        E 0 83 44 64
        E 0 8f 31 64
        E 0 92 55 64
        E 0 93 45 5a
        E 0 9f 39 5a
        E 577 82 55 64
        E 1 92 56 64
        E 574 82 56 64
        E 0 83 45 64
        E 0 8f 39 64
        E 0 92 50 64
        E 0 93 47 5a
        E 0 9f 34 5a
        E 287 82 50 64
        E 0 92 4c 64
        E 289 82 4c 64
        E 1 8f 34 64
        E 0 92 4e 64
        E 0 9f 32 5a
        E 286 82 4e 64
        E 1 92 50 64
        E 288 82 50 64
        E 1 83 47 64
        E 0 8f 32 64
        E 0 92 51 64
        E 1 93 40 5a
        E 0 9f 31 5a
        E 285 82 51 64
        E 0 92 49 64
        E 289 82 49 64
        E 0 8f 31 64
        E 0 92 47 64
        E 1 9f 32 5a
        E 287 82 47 64
        E 0 92 45 64
        E 289 82 45 64
        E 0 83 40 64
        E 0 8f 32 64
        E 0 92 44 64
        E 0 93 3b 5a
        E 0 9f 34 5a
        E 286 82 44 64
        E 1 92 47 64
        E 288 82 47 64
        E 0 8f 34 64
        E 1 92 4c 64
        E 1 9f 36 5a
        E 285 82 4c 64
        E 1 92 50 64
        E 288 82 50 64
        E 0 83 3b 64
        E 0 8f 36 64
        E 0 92 53 64
        E 0 93 40 5a
        E 0 9f 38 5a
        E 288 82 53 64
        E 1 92 4a 64
        E 286 82 4a 64
        E 0 8f 38 64
        E 1 92 49 64
        E 0 9f 34 5a
        E 287 82 49 64
        E 0 92 47 64
        E 289 82 47 64
        E 1 83 40 64
        E 0 8f 34 64
        E 0 92 49 64
        E 0 93 40 5a
        E 0 9f 39 5a
        E 864 82 49 64
        E 0 92 4c 64
        E 288 82 4c 64
        E 0 83 40 64
        E 0 8f 39 64
        E 0 92 51 64
        E 0 93 40 5a
        E 0 9f 2d 5a
        E 864 82 51 64
        E 0 92 45 64
        E 287 82 45 64
        E 0 83 40 64
        E 0 8f 2d 64
        E 0 92 47 64
        E 1 93 44 5a
        E 0 9f 34 5a
        E 1151 83 44 64
        E 3 8f 34 64
        E 0 93 44 5a
        E 1 9f 28 5a
        E 573 82 47 64
        E 0 92 45 64
        E 576 82 45 64
        E 0 83 44 64
        E 0 8f 28 64
        E 0 92 45 64
        E 0 93 40 5a
        E 0 9f 2d 5a
        E 1150 98 49 64
        E 2305 82 45 64
        E 0 83 40 64
        E 0 88 49 64
        E 0 8f 2d 64
        E 0 98 45 64
        E 1153 88 45 64
        E 1 98 42 64
        E 1151 88 42 64
        E 0 98 4a 64
        E 1151 88 4a 64
        E 0 92 4a 64
        E 0 93 42 5a
        E 0 98 4a 64
        E 0 9f 36 5a
        E 1151 82 4a 64
        E 0 83 42 64
        E 0 88 4a 64
        E 0 8f 36 64
        E 0 92 4a 64
        E 0 93 42 5a
        E 1 98 4a 64
        E 0 9f 36 5a
        E 1153 82 4a 64
        E 1 83 42 64
        E 1 88 4a 64
        E 0 8f 36 64
        E 0 92 4a 64
        E 0 93 42 5a
        E 0 98 4a 64
        E 0 9f 36 5a
        E 1150 82 4a 64
        E 0 83 42 64
        E 0 88 4a 64
        E 0 8f 36 64
        E 0 92 4a 64
        E 1 93 42 5a
        E 0 98 4a 64
        E 0 9f 36 5a
        E 1153 82 4a 64
        E 0 83 42 64
        E 0 88 4a 64
        E 0 8f 36 64
        E 1 92 49 64
        E 0 93 42 5a
        E 0 98 49 64
        E 0 9f 36 5a
        E 1150 82 49 64
        E 0 83 42 64
        E 0 88 49 64
        E 1 8f 36 64
        E 0 92 49 64
        E 0 93 42 5a
        E 0 98 49 64
        E 0 9f 36 5a
        E 1152 82 49 64
        E 0 83 42 64
        E 4 88 49 64
        E 0 8f 36 64
        E 2 92 49 64
        E 0 93 42 5a
        E 1 98 42 64
        E 0 9f 36 5a
        E 1143 82 49 64
        E 0 83 42 64
        E 0 88 42 64
        E 0 8f 36 64
        E 0 92 51 64
        E 0 93 49 5a
        E 0 98 51 64
        E 0 9f 36 5a
        E 1151 82 51 64
        E 0 83 49 64
        E 0 88 51 64
        E 0 8f 36 64
        E 0 92 4e 64
        E 0 93 45 5a
        E 0 98 50 64
        E 0 98 4e 64
        E 0 9f 36 5a
        E 1152 82 4e 64
        E 0 83 45 64
        E 0 88 50 64
        E 0 88 4e 64
        E 0 8f 36 64
        E 0 92 4e 64
        E 0 93 45 5a
        E 1 98 4c 64
        E 0 98 4b 64
        E 0 9f 36 5a
        E 1150 82 4e 64
        E 0 83 45 64
        E 0 88 4c 64
        E 0 88 4b 64
        E 0 8f 36 64
        E 0 92 4c 64
        E 0 93 46 5a
        E 0 98 49 64
        E 0 9f 36 5a
        E 1153 82 4c 64
        E 0 83 46 64
        E 0 88 49 64
        E 0 8f 36 64
        E 0 92 4c 64
        E 0 93 44 5a
        E 0 98 4b 64
        E 0 98 49 64
        E 0 9f 38 5a
        E 1154 82 4c 64
        E 0 83 44 64
        E 0 88 4b 64
        E 0 88 49 64
        E 0 8f 38 64
        E 1 92 4b 64
        E 0 93 44 5a
        E 0 98 48 63
        E 0 9f 38 5a
        E 1150 82 4b 64
        E 1 83 44 64
        E 0 88 48 63
        E 0 8f 38 64
        E 0 92 4e 64
        E 0 93 44 5a
        E 0 9f 38 5a
        E 286 82 4e 64
        E 0 92 4e 64
        E 288 82 4e 64
        E 1 92 50 64
        E 287 82 50 64
        E 0 92 51 64
        E 289 82 51 64
        E 1 83 44 64
        E 0 8f 38 64
        E 0 92 4b 64
        E 0 93 44 5a
        E 0 98 4b 64
        E 0 9f 38 5a
        E 286 82 4b 64
        E 0 92 4b 64
        E 288 82 4b 64
        E 0 88 4b 64
        E 0 92 4c 64
        E 0 98 4e 64
        E 287 82 4c 64
        E 0 92 4e 64
        E 290 82 4e 64
        E 0 83 44 64
        E 0 88 4e 64
        E 1 8f 38 64
        E 1 92 4c 64
        E 0 93 44 5a
        E 0 98 4c 64
        E 0 9f 31 5a
        E 1150 82 4c 64
        E 0 83 44 64
        E 0 88 4c 64
        E 0 8f 31 64
        E 0 92 4c 64
        E 0 93 44 5a
        E 0 98 4b 64
        E 0 9f 31 5a
        E 574 88 4b 64
        E 1 98 49 64
        E 577 82 4c 64
        E 0 83 44 64
        E 0 88 49 64
        E 0 8f 31 64
        E 0 92 4b 64
        E 0 93 45 5a
        E 0 98 4b 64
        E 1 9f 36 5a
        E 1150 82 4b 64
        E 0 83 45 64
        E 0 88 4b 64
        E 0 8f 36 64
        E 0 92 4b 64
        E 0 93 44 5a
        E 0 98 49 64
        E 0 9f 38 5a
        E 579 88 49 64
        E 0 98 48 63
        E 574 82 4b 64
        E 0 83 44 64
        E 0 88 48 63
        E 0 8f 38 64
        E 0 92 4c 64
        E 0 93 44 5a
        E 0 98 49 64
        E 0 9f 31 5a
        E 287 82 4c 64
        E 0 92 4c 64
        E 289 82 4c 64
        E 1 92 4e 64
        E 288 82 4e 64
        E 0 92 50 64
        E 286 82 50 64
        E 1 83 44 64
        E 0 8f 31 64
        E 0 92 50 64
        E 0 93 40 5a
        E 0 9f 31 5a
        E 288 82 50 64
        E 0 92 4c 64
        E 287 82 4c 64
        E 0 92 4e 64
        E 288 82 4e 64
        E 0 92 50 64
        E 289 82 50 64
        E 0 83 40 64
        E 0 88 49 64
        E 0 8f 31 64
        E 0 92 50 64
        E 0 93 40 5a
        E 0 9f 31 5a
        E 576 98 50 64
        E 576 82 50 64
        E 0 83 40 64
        E 0 88 50 64
        E 0 8f 31 64
        E 0 92 49 64
        E 0 93 40 5a
        E 0 98 4c 64
        E 0 9f 31 5a
        E 575 88 4c 64
        E 0 98 49 64
        E 576 82 49 64
        E 0 83 40 64
        E 0 88 49 64
        E 0 8f 31 64
        E 0 93 3f 5a
        E 0 98 45 64
        E 0 9f 36 5a
        E 288 92 4e 64
        E 289 82 4e 64
        E 0 92 50 64
        E 287 82 50 64
        E 0 92 51 64
        E 289 82 51 64
        E 0 83 3f 64
        E 0 8f 36 64
        E 0 92 51 64
        E 0 93 3f 5a
        E 0 9f 36 5a
        E 287 82 51 64
        E 0 92 4e 64
        E 290 82 4e 64
        E 0 92 50 64
        E 287 82 50 64
        E 0 92 51 64
        E 288 82 51 64
        E 1 83 3f 64
        E 0 88 45 64
        E 0 8f 36 64
        E 0 92 51 64
        E 0 93 3f 5a
        E 0 98 45 64
        E 0 9f 36 5a
        E 574 88 45 64
        E 0 98 51 64
        E 576 82 51 64
        E 0 83 3f 64
        E 0 88 51 64
        E 0 8f 36 64
        E 0 92 4b 64
        E 0 93 3f 5a
        E 0 98 4e 64
        E 0 9f 36 5a
        E 576 88 4e 64
        E 0 98 49 64
        E 576 82 4b 64
        E 0 83 3f 64
        E 0 88 49 64
        E 0 8f 36 64
        E 0 93 3f 5a
        E 0 98 48 63
        E 0 9f 38 5a
        E 287 92 4b 64
        E 290 82 4b 64
        E 0 92 4c 64
        E 288 82 4c 64
        E 0 92 4e 64
        E 287 82 4e 64
        E 0 83 3f 64
        E 0 8f 38 64
        E 0 92 4e 64
        E 0 93 3f 5a
        E 0 9f 38 5a
        E 289 82 4e 64
        E 0 92 4b 64
        E 288 82 4b 64
        E 0 92 4c 64
        E 287 82 4c 64
        E 0 92 4e 64
        E 289 82 4e 64
        E 1 83 3f 64
        E 0 88 48 63
        E 0 8f 38 64
        E 0 92 4e 64
        E 0 93 3c 59
        E 0 98 48 63
        E 0 9f 38 5a
        E 575 88 48 63
        E 0 98 44 64
        E 575 82 4e 64
        E 0 83 3c 63
        E 0 88 44 64
        E 0 8f 38 64
        E 0 92 4b 64
        E 1 93 3c 59
        E 0 98 48 63
        E 0 9f 38 5a
        E 574 88 48 63
        E 1 98 4e 64
        E 577 82 4b 64
        E 0 83 3c 63
        E 0 88 4e 64
        E 0 8f 38 64
        E 0 92 4c 64
        E 1 93 38 5a
        E 0 98 4c 64
        E 0 9f 31 5a
        E 287 82 4c 64
        E 0 92 4c 64
        E 287 82 4c 64
        E 0 88 4c 64
        E 0 92 4e 64
        E 0 98 4b 64
        E 290 82 4e 64
        E 0 92 50 64
        E 285 82 50 64
        E 0 83 38 64
        E 0 88 4b 64
        E 0 8f 31 64
        E 0 92 49 64
        E 1 93 38 5a
        E 0 98 49 64
        E 0 9f 31 5a
        E 288 82 49 64
        E 0 92 49 64
        E 288 82 49 64
        E 0 92 4b 64
        E 287 82 4b 64
        E 0 92 4c 64
        E 289 82 4c 64
        E 1 83 38 64
        E 0 88 49 64
        E 0 8f 31 64
        E 0 92 44 64
        E 0 93 38 5a
        E 0 98 44 64
        E 0 9f 31 5a
        E 287 82 44 64
        E 0 92 4c 64
        E 289 82 4c 64
        E 0 92 4e 64
        E 286 82 4e 64
        E 0 92 50 64
        E 290 82 50 64
        E 1 83 38 64
        E 0 8f 31 64
        E 0 92 49 64
        E 0 93 38 5a
        E 0 9f 31 5a
        E 286 82 49 64
        E 0 92 49 64
        E 288 82 49 64
        E 0 92 4b 64
        E 287 82 4b 64
        E 1 92 4c 64
        E 288 82 4c 64
        E 0 83 38 64
        E 0 88 44 64
        E 0 8f 31 64
        E 0 92 44 64
        E 0 93 38 5a
        E 0 98 44 64
        E 0 9f 2c 5a
        E 1152 82 44 64
        E 0 83 38 64
        E 0 88 44 64
        E 0 8f 2c 64
        E 1 92 49 64
        E 0 93 38 5a
        E 0 98 40 64
        E 0 9f 2c 5a
        E 575 88 40 64
        E 1 98 49 64
        E 576 83 38 64
        E 0 88 49 64
        E 0 8f 2c 64
        E 0 93 38 5a
        E 0 98 4c 64
        E 0 9f 2c 5a
        E 1150 82 49 64
        E 1 83 38 64
        E 0 88 4c 64
        E 0 8f 2c 64
        E 0 92 48 63
        E 0 93 38 5a
        E 0 98 4b 64
        E 0 9f 2c 5a
        E 1153 82 48 63
        E 0 83 38 64
        E 0 88 4b 64
        E 0 8f 2c 64
        E 0 92 49 64
        E 0 93 38 5a
        E 0 98 49 64
        E 0 9f 31 5a
        E 1151 83 38 64
        E 0 8f 31 64
        E 0 93 38 5a
        E 0 9f 31 5a
        E 1152 82 49 64
        E 0 83 38 64
        E 0 88 49 64
        E 0 8f 31 64
        E 1 92 50 64
        E 0 93 38 5a
        E 0 98 50 64
        E 0 9f 30 59
        E 1151 83 38 64
        E 0 8f 30 63
        E 0 93 38 5a
        E 0 9f 30 59
        E 1154 82 50 64
        E 0 83 38 64
        E 0 88 50 64
        E 0 8f 30 63
        E 0 92 4c 64
        E 0 93 38 5a
        E 0 98 4c 64
        E 0 9f 31 5a
        E 1150 83 38 64
        E 0 88 4c 64
        E 0 8f 31 64
        E 0 93 38 5a
        E 0 98 4b 64
        E 0 9f 31 5a
        E 577 88 4b 64
        E 0 98 49 64
        E 577 82 4c 64
        E 0 83 38 64
        E 0 88 49 64
        E 0 8f 31 64
        E 0 92 4b 64
        E 0 93 38 5a
        E 0 98 4b 64
        E 0 9f 2c 5a
        E 1151 83 38 64
        E 0 8f 2c 64
        E 0 93 38 5a
        E 0 9f 2c 5a
        E 1152 82 4b 64
        E 1 83 38 64
        E 0 88 4b 64
        E 0 8f 2c 64
        E 0 92 49 64
        E 0 93 38 5a
        E 0 98 49 64
        E 0 9f 31 5a
        E 6910 82 49 64
        E 0 83 38 64
        E 0 88 49 64
        E 0 8f 31 64
        E 3456 92 40 64
        E 1152 82 40 64
        E 0 92 45 64
        E 1 93 3d 5a
        E 1 9f 2d 5a
        E 1151 82 45 64
        E 0 83 3d 64
        E 0 8f 2d 64
        E 0 92 44 64
        E 0 93 40 5a
        E 0 9f 39 5a
        E 577 82 44 64
        E 0 92 45 64
        E 574 82 45 64
        E 0 83 40 64
        E 0 8f 39 64
        E 0 92 47 64
        E 0 93 40 5a
        E 0 9f 38 5a
        E 1153 82 47 64
        E 0 83 40 64
        E 0 8f 38 64
        E 0 92 49 64
        E 0 93 44 5a
        E 0 9f 34 5a
        E 576 82 49 64
        E 1 92 4a 64
        E 574 82 4a 64
        E 0 83 44 64
        E 0 8f 34 64
        E 0 92 49 64
        E 0 93 40 5a
        E 0 9f 2d 5a
        E 1156 82 49 64
        E 0 8f 2d 64
        E 0 92 47 64
        E 1 9f 2f 5a
        E 1147 82 47 64
        E 0 8f 2f 64
        E 0 92 45 64
        E 0 9f 31 5a
        E 1151 82 45 64
        E 0 83 40 64
        E 0 8f 31 64
        E 1 92 4e 64
        E 0 93 4a 5a
        E 0 9f 2c 5a
        E 1151 82 4e 64
        E 1 83 4a 64
        E 1 8f 2c 64
        E 0 92 4c 64
        E 0 93 49 5a
        E 0 9f 2d 5a
        E 1152 82 4c 64
        E 1 83 49 64
        E 0 8f 2d 64
        E 0 92 4a 64
        E 0 93 40 5a
        E 0 9f 39 5a
        E 574 82 4a 64
        E 1 92 49 64
        E 576 82 49 64
        E 0 83 40 64
        E 0 8f 39 64
        E 0 92 4a 64
        E 0 93 42 5a
        E 0 9f 32 5a
        E 1151 82 4a 64
        E 0 83 42 64
        E 0 8f 32 64
        E 0 92 49 64
        E 0 93 40 5a
        E 0 9f 34 5a
        E 575 82 49 64
        E 4 92 47 64
        E 573 82 47 64
        E 1 83 40 64
        E 0 8f 34 64
        E 0 92 49 64
        E 0 93 40 5a
        E 1 9f 2d 5a
        E 1150 82 49 64
        E 0 8f 2d 64
        E 0 92 47 64
        E 0 9f 2f 5a
        E 1152 82 47 64
        E 0 8f 2f 64
        E 1 92 45 64
        E 0 9f 31 5a
        E 1150 82 45 64
        E 0 83 40 64
        E 0 8f 31 64
        E 1 92 4e 64
        E 0 93 4a 5a
        E 0 9f 2c 5a
        E 1153 82 4e 64
        E 0 83 4a 64
        E 0 8f 2c 64
        E 0 92 4c 64
        E 0 93 49 5a
        E 0 9f 2d 5a
        E 1152 82 4c 64
        E 0 83 49 64
        E 0 8f 2d 64
        E 1 92 4a 64
        E 0 93 40 5a
        E 0 9f 39 5a
        E 574 82 4a 64
        E 1 92 49 64
        E 575 82 49 64
        E 0 83 40 64
        E 0 8f 39 64
        E 0 92 4a 64
        E 0 93 42 5a
        E 0 9f 32 5a
        E 1152 82 4a 64
        E 0 83 42 64
        E 0 8f 32 64
        E 0 92 49 64
        E 0 93 40 5a
        E 0 9f 34 5a
        E 578 82 49 64
        E 0 92 47 64
        E 575 82 47 64
        E 0 83 40 64
        E 0 8f 34 64
        E 0 92 49 64
        E 0 93 40 5a
        E 0 9f 2d 5a
        E 1151 82 49 64
        E 0 8f 2d 64
        E 0 92 47 64
        E 0 9f 2f 5a
        E 1152 82 47 64
        E 0 8f 2f 64
        E 0 92 45 64
        E 0 9f 31 5a
        E 1153 82 45 64
        E 0 83 40 64
        E 0 8f 31 64
        E 1 92 4c 64
        E 0 93 45 5a
        E 0 9f 2f 5a
        E 1150 82 4c 64
        E 1 83 45 64
        E 0 8f 2f 64
        E 0 92 51 64
        E 0 93 49 5a
        E 0 9f 2d 5a
        E 1150 82 51 64
        E 0 83 49 64
        E 0 8f 2d 64
        E 1 92 50 64
        E 0 93 45 5a
        E 0 9f 3e 5a
        E 579 82 50 64
        E 3 92 4e 64
        E 571 82 4e 64
        E 0 83 45 64
        E 1 8f 3e 64
        E 0 92 4c 64
        E 0 93 47 5a
        E 0 9f 38 5a
        E 1151 82 4c 64
        E 0 83 47 64
        E 0 8f 38 64
        E 0 92 4a 64
        E 1 93 44 5a
        E 0 9f 34 5a
        E 1150 82 4a 64
        E 0 83 44 64
        E 0 8f 34 64
        E 1 92 49 64
        E 0 93 40 5a
        E 0 9f 39 5a
        E 1151 82 49 64
        E 0 83 40 64
        E 0 8f 39 64
        E 0 92 47 64
        E 1 93 40 5a
        E 0 9f 31 5a
        E 574 82 47 64
        E 0 92 45 64
        E 580 82 45 64
        E 0 83 40 64
        E 0 8f 31 64
        E 0 92 47 64
        E 0 93 42 5a
        E 1 9f 32 5a
        E 1147 82 47 64
        E 0 83 42 64
        E 0 8f 32 64
        E 0 92 45 64
        E 1 93 3b 5a
        E 0 9f 34 5a
        E 577 82 45 64
        E 1 92 44 64
        E 575 82 44 64
        E 0 83 3b 64
        E 0 8f 34 64
        E 0 92 45 64
        E 0 93 3d 5a
        E 0 9f 2d 5a
        E 2304 82 45 64
        E 0 83 3d 64
        E 0 8f 2d 64
        E 5759 92 40 64
        E 0 94 40 64
        E 1153 82 40 64
        E 0 84 40 64
        E 0 92 45 64
        E 0 93 3d 5a
        E 0 94 45 64
        E 0 9f 2d 5a
        E 1151 82 45 64
        E 0 83 3d 64
        E 0 84 45 64
        E 0 8f 2d 64
        E 0 92 44 64
        E 0 93 3d 5a
        E 0 94 44 64
        E 0 9f 39 5a
        E 577 82 44 64
        E 0 84 44 64
        E 1 92 45 64
        E 0 94 45 64
        E 574 82 45 64
        E 1 83 3d 64
        E 0 84 45 64
        E 0 8f 39 64
        E 0 92 47 64
        E 0 93 40 5a
        E 0 94 47 64
        E 1 9f 38 5a
        E 1151 82 47 64
        E 0 83 40 64
        E 0 84 47 64
        E 0 8f 38 64
        E 0 92 49 64
        E 1 93 44 5a
        E 0 94 49 64
        E 0 9f 34 5a
        E 573 82 49 64
        E 0 84 49 64
        E 1 92 4a 64
        E 1 94 4a 64
        E 576 82 4a 64
        E 0 83 44 64
        E 0 84 4a 64
        E 0 8f 34 64
        E 0 92 49 64
        E 0 93 40 5a
        E 0 94 49 64
        E 0 9f 2d 5a
        E 1152 82 49 64
        E 0 84 49 64
        E 0 8f 2d 64
        E 0 92 47 64
        E 0 94 47 64
        E 0 9f 2f 5a
        E 1152 82 47 64
        E 0 84 47 64
        E 0 8f 2f 64
        E 0 92 45 64
        E 0 94 45 64
        E 0 9f 31 5a
        E 1151 82 45 64
        E 0 83 40 64
        E 0 84 45 64
        E 0 8f 31 64
        E 0 92 4a 64
        E 0 93 47 5a
        E 0 94 4a 64
        E 0 9f 2c 5a
        E 1152 82 4a 64
        E 0 83 47 64
        E 0 84 4a 64
        E 0 8f 2c 64
        E 0 92 49 64
        E 0 93 40 5a
        E 0 94 49 64
        E 0 9f 2d 5a
        E 1152 82 49 64
        E 0 84 49 64
        E 0 8f 2d 64
        E 0 92 44 64
        E 1 94 44 64
        E 0 9f 34 5a
        E 1151 82 44 64
        E 0 83 40 64
        E 1 84 44 64
        E 0 8f 34 64
        E 0 92 45 64
        E 1 93 40 5a
        E 0 94 45 64
        E 0 9f 31 5a
        E 1151 82 45 64
        E 0 83 40 64
        E 0 84 45 64
        E 0 8f 31 64
        E 0 92 4c 64
        E 0 93 47 5a
        E 0 94 4c 64
        E 0 9f 2c 5a
        E 1150 82 4c 64
        E 0 83 47 64
        E 0 84 4c 64
        E 0 8f 2c 64
        E 0 92 49 64
        E 0 93 40 5a
        E 0 94 49 64
        E 0 9f 2d 5a
        E 1154 82 49 64
        E 0 83 40 64
        E 0 84 49 64
        E 0 8f 2d 64
        E 0 92 47 64
        E 0 93 40 5a
        E 0 94 47 64
        E 0 9f 39 5a
        E 575 82 47 64
        E 0 84 47 64
        E 0 92 45 64
        E 0 94 45 64
        E 575 82 45 64
        E 0 83 40 64
        E 0 84 45 64
        E 0 8f 39 64
        E 1 92 47 64
        E 0 93 42 5a
        E 0 94 47 64
        E 0 9f 32 5a
        E 1151 82 47 64
        E 0 83 42 64
        E 0 84 47 64
        E 0 8f 32 64
        E 1 92 45 64
        E 0 93 40 5a
        E 0 94 45 64
        E 0 9f 34 5a
        E 577 82 45 64
        E 1 84 45 64
        E 0 92 44 64
        E 0 94 44 64
        E 574 82 44 64
        E 0 83 40 64
        E 0 84 44 64
        E 0 8f 34 64
        E 0 92 45 64
        E 0 93 3d 5a
        E 0 94 45 64
        E 0 9f 2d 5a
        E 2304 82 45 64
        E 0 83 3d 64
        E 0 84 45 64
        E 0 8f 2d 64
        E 1154 92 3d 64
        E 0 93 39 5a
        E 0 95 3d 64
        E 1151 82 3d 64
        E 0 83 39 64
        E 0 85 3d 64
        E 0 92 45 64
        E 0 93 39 5a
        E 0 95 45 64
        E 1152 82 45 64
        E 0 83 39 64
        E 0 85 45 64
        E 0 92 45 64
        E 0 93 39 5a
        E 0 95 45 64
        E 1151 82 45 64
        E 0 83 39 64
        E 0 85 45 64
        E 0 92 49 64
        E 0 93 39 5a
        E 0 95 49 64
        E 1152 82 49 64
        E 0 83 39 64
        E 0 85 49 64
        E 0 92 47 64
        E 1 93 39 5a
        E 0 95 47 64
        E 575 82 47 64
        E 0 85 47 64
        E 1 92 45 64
        E 1 95 45 64
        E 575 82 45 64
        E 0 83 39 64
        E 0 85 45 64
        E 0 92 47 64
        E 0 93 40 5a
        E 0 95 47 64
        E 1151 82 47 64
        E 0 83 40 64
        E 0 85 47 64
        E 0 92 44 64
        E 0 93 40 5a
        E 0 95 44 64
        E 1151 82 44 64
        E 1 83 40 64
        E 0 85 44 64
        E 0 92 42 64
        E 0 93 40 5a
        E 0 95 42 64
        E 1152 82 42 64
        E 0 83 40 64
        E 0 85 42 64
        E 0 92 40 64
        E 0 93 40 5a
        E 0 95 40 64
        E 1153 82 40 64
        E 0 83 40 64
        E 0 85 40 64
        E 0 92 47 64
        E 0 93 40 5a
        E 0 95 47 64
        E 1152 82 47 64
        E 0 83 40 64
        E 0 85 47 64
        E 1 92 47 64
        E 0 93 40 5a
        E 0 95 47 64
        E 574 82 47 64
        E 0 85 47 64
        E 1 92 49 64
        E 0 95 49 64
        E 576 82 49 64
        E 0 83 40 64
        E 0 85 49 64
        E 0 92 4a 64
        E 0 93 40 5a
        E 0 95 4a 64
        E 1152 82 4a 64
        E 0 83 40 64
        E 0 85 4a 64
        E 0 92 49 64
        E 1 93 40 5a
        E 0 95 49 64
        E 573 82 49 64
        E 0 85 49 64
        E 2 92 47 64
        E 2 95 47 64
        E 574 82 47 64
        E 0 83 40 64
        E 0 85 47 64
        E 0 92 49 64
        E 0 93 39 5a
        E 0 95 49 64
        E 575 82 49 64
        E 0 85 49 64
        E 0 92 47 64
        E 1 95 47 64
        E 575 82 47 64
        E 0 83 39 64
        E 0 85 47 64
        E 0 92 49 64
        E 0 93 39 5a
        E 0 95 45 64
        E 575 82 49 64
        E 2 92 4a 64
        E 576 82 4a 64
        E 0 83 39 64
        E 1 85 45 64
        E 0 92 4c 64
        E 0 93 39 5a
        E 1151 82 4c 64
        E 0 83 39 64
        E 0 92 45 64
        E 0 93 39 5a
        E 0 95 45 64
        E 1151 82 45 64
        E 1 83 39 64
        E 0 85 45 64
        E 0 92 45 64
        E 0 93 45 5a
        E 0 95 45 64
        E 1150 82 45 64
        E 1 83 45 64
        E 0 85 45 64
        E 1 92 45 64
        E 2 93 42 5a
        E 0 95 45 64
        E 1150 82 45 64
        E 0 83 42 64
        E 0 85 45 64
        E 0 92 45 64
        E 0 93 40 5a
        E 0 95 45 64
        E 1151 82 45 64
        E 0 83 40 64
        E 0 85 45 64
        E 0 92 45 64
        E 0 93 3f 5a
        E 0 95 45 64
        E 1156 82 45 64
        E 0 83 3f 64
        E 0 85 45 64
        E 0 92 4c 64
        E 0 93 40 5a
        E 0 95 4c 64
        E 1149 82 4c 64
        E 0 83 40 64
        E 0 85 4c 64
        E 0 92 4b 64
        E 0 93 45 5a
        E 0 95 4b 64
        E 576 82 4b 64
        E 0 85 4b 64
        E 0 92 49 64
        E 0 95 49 64
        E 576 82 49 64
        E 0 83 45 64
        E 0 85 49 64
        E 0 92 47 64
        E 0 93 3f 5a
        E 0 95 47 64
        E 1152 82 47 64
        E 1 83 3f 64
        E 0 85 47 64
        E 0 92 45 64
        E 0 93 3b 5a
        E 0 95 45 64
        E 1150 82 45 64
        E 0 83 3b 64
        E 0 85 45 64
        E 0 92 44 64
        E 0 93 40 5a
        E 0 95 44 64
        E 1153 82 44 64
        E 0 83 40 64
        E 0 85 44 64
        E 0 92 42 64
        E 0 93 38 5a
        E 1 95 42 64
        E 574 82 42 64
        E 0 85 42 64
        E 0 92 40 64
        E 1 95 40 64
        E 575 82 40 64
        E 1 83 38 64
        E 0 85 40 64
        E 0 92 42 64
        E 0 93 39 5a
        E 0 95 42 64
        E 1151 82 42 64
        E 0 83 39 64
        E 0 85 42 64
        E 0 92 40 64
        E 0 93 3b 5a
        E 0 95 40 64
        E 576 82 40 64
        E 0 85 40 64
        E 0 92 3f 64
        E 0 95 3f 64
        E 577 82 3f 64
        E 0 83 3b 64
        E 0 85 3f 64
        E 0 92 40 64
        E 0 93 34 5a
        E 0 95 40 64
        E 2303 82 40 64
        E 0 83 34 64
        E 0 85 40 64
        E 1152 92 40 64
        E 0 94 40 64
        E 1154 82 40 64
        E 0 84 40 64
        E 0 92 45 64
        E 0 93 3d 5a
        E 0 94 45 64
        E 0 9f 2d 5a
        E 1150 82 45 64
        E 0 83 3d 64
        E 0 84 45 64
        E 0 8f 2d 64
        E 0 92 44 64
        E 0 93 3d 5a
        E 0 94 44 64
        E 0 9f 39 5a
        E 576 82 44 64
        E 0 84 44 64
        E 0 92 45 64
        E 1 94 45 64
        E 576 82 45 64
        E 0 83 3d 64
        E 0 84 45 64
        E 0 8f 39 64
        E 0 92 47 64
        E 0 93 40 5a
        E 0 94 47 64
        E 0 9f 38 5a
        E 1152 82 47 64
        E 0 83 40 64
        E 0 84 47 64
        E 0 8f 38 64
        E 0 92 49 64
        E 0 93 44 5a
        E 0 94 49 64
        E 0 9f 34 5a
        E 576 82 49 64
        E 1 84 49 64
        E 0 92 4a 64
        E 1 94 4a 64
        E 573 82 4a 64
        E 0 83 44 64
        E 0 84 4a 64
        E 0 8f 34 64
        E 0 92 49 64
        E 0 93 40 5a
        E 0 94 49 64
        E 0 9f 2d 5a
        E 1153 82 49 64
        E 0 84 49 64
        E 0 8f 2d 64
        E 0 92 47 64
        E 0 94 47 64
        E 0 9f 2f 5a
        E 1151 82 47 64
        E 0 84 47 64
        E 0 8f 2f 64
        E 1 92 45 64
        E 0 94 45 64
        E 0 9f 31 5a
        E 1154 82 45 64
        E 0 83 40 64
        E 0 84 45 64
        E 0 8f 31 64
        E 0 92 4a 64
        E 0 93 47 5a
        E 0 94 4a 64
        E 0 9f 2c 5a
        E 1149 82 4a 64
        E 0 83 47 64
        E 0 84 4a 64
        E 0 8f 2c 64
        E 0 92 49 64
        E 0 93 40 5a
        E 0 94 49 64
        E 0 9f 2d 5a
        E 1153 82 49 64
        E 0 84 49 64
        E 0 8f 2d 64
        E 0 92 44 64
        E 0 94 44 64
        E 0 9f 34 5a
        E 1154 82 44 64
        E 0 83 40 64
        E 0 84 44 64
        E 0 8f 34 64
        E 1 92 45 64
        E 0 93 40 5a
        E 0 94 45 64
        E 0 9f 31 5a
        E 1150 82 45 64
        E 0 83 40 64
        E 0 84 45 64
        E 0 8f 31 64
        E 0 92 4c 64
        E 0 93 47 5a
        E 0 94 4c 64
        E 0 9f 2c 5a
        E 1151 82 4c 64
        E 1 83 47 64
        E 0 84 4c 64
        E 0 8f 2c 64
        E 1 92 49 64
        E 0 93 40 5a
        E 0 94 49 64
        E 0 9f 2d 5a
        E 1150 82 49 64
        E 1 83 40 64
        E 0 84 49 64
        E 0 8f 2d 64
        E 0 92 47 64
        E 0 93 40 5a
        E 0 94 47 64
        E 0 9f 39 5a
        E 575 82 47 64
        E 0 84 47 64
        E 0 92 45 64
        E 1 94 45 64
        E 574 82 45 64
        E 0 83 40 64
        E 0 84 45 64
        E 0 8f 39 64
        E 0 92 47 64
        E 0 93 42 5a
        E 0 94 47 64
        E 0 9f 32 5a
        E 1151 82 47 64
        E 0 83 42 64
        E 0 84 47 64
        E 0 8f 32 64
        E 0 92 45 64
        E 0 93 40 5a
        E 0 94 45 64
        E 0 9f 34 5a
        E 577 82 45 64
        E 1 84 45 64
        E 0 92 44 64
        E 0 94 44 64
        E 577 82 44 64
        E 0 83 40 64
        E 1 84 44 64
        E 0 8f 34 64
        E 0 92 45 64
        E 0 93 3d 5a
        E 0 94 45 64
        E 0 9f 2d 5a
        E 2301 82 45 64
        E 0 83 3d 64
        E 0 84 45 64
        E 0 8f 2d 64
        E 1155 92 3d 64
        E 0 93 39 5a
        E 0 95 3d 64
        E 1149 82 3d 64
        E 0 83 39 64
        E 0 85 3d 64
        E 0 92 45 64
        E 0 93 39 5a
        E 0 95 45 64
        E 1152 82 45 64
        E 0 83 39 64
        E 0 85 45 64
        E 0 92 45 64
        E 0 93 39 5a
        E 0 95 45 64
        E 1152 82 45 64
        E 0 83 39 64
        E 0 85 45 64
        E 0 92 49 64
        E 0 93 39 5a
        E 0 95 49 64
        E 1152 82 49 64
        E 0 83 39 64
        E 0 85 49 64
        E 0 92 47 64
        E 0 93 39 5a
        E 0 95 47 64
        E 576 82 47 64
        E 0 85 47 64
        E 0 92 45 64
        E 0 95 45 64
        E 576 82 45 64
        E 0 83 39 64
        E 0 85 45 64
        E 0 92 47 64
        E 0 93 40 5a
        E 0 95 47 64
        E 1152 82 47 64
        E 0 83 40 64
        E 0 85 47 64
        E 0 92 44 64
        E 0 93 40 5a
        E 0 95 44 64
        E 1152 82 44 64
        E 0 83 40 64
        E 0 85 44 64
        E 1 92 42 64
        E 0 93 40 5a
        E 0 95 42 64
        E 1152 82 42 64
        E 0 83 40 64
        E 0 85 42 64
        E 1 92 40 64
        E 0 93 40 5a
        E 0 95 40 64
        E 1151 82 40 64
        E 0 83 40 64
        E 0 85 40 64
        E 0 92 47 64
        E 0 93 40 5a
        E 0 95 47 64
        E 1152 82 47 64
        E 0 83 40 64
        E 0 85 47 64
        E 0 92 47 64
        E 1 93 40 5a
        E 0 95 47 64
        E 575 82 47 64
        E 1 85 47 64
        E 0 92 49 64
        E 0 95 49 64
        E 575 82 49 64
        E 0 83 40 64
        E 0 85 49 64
        E 0 92 4a 64
        E 0 93 40 5a
        E 0 95 4a 64
        E 1152 82 4a 64
        E 0 83 40 64
        E 0 85 4a 64
        E 0 92 49 64
        E 0 93 40 5a
        E 0 95 49 64
        E 575 82 49 64
        E 1 85 49 64
        E 0 92 47 64
        E 0 95 47 64
        E 576 82 47 64
        E 0 83 40 64
        E 0 85 47 64
        E 0 92 49 64
        E 1 93 39 5a
        E 0 95 49 64
        E 574 82 49 64
        E 0 85 49 64
        E 1 92 47 64
        E 1 95 47 64
        E 575 82 47 64
        E 0 83 39 64
        E 0 85 47 64
        E 0 92 49 64
        E 0 93 39 5a
        E 0 95 45 64
        E 576 82 49 64
        E 0 92 4a 64
        E 575 82 4a 64
        E 1 83 39 64
        E 0 85 45 64
        E 0 92 4c 64
        E 0 93 39 5a
        E 1151 82 4c 64
        E 0 83 39 64
        E 1 92 45 64
        E 0 93 39 5a
        E 0 95 45 64
        E 1151 82 45 64
        E 0 83 39 64
        E 0 85 45 64
        E 1 92 45 64
        E 0 93 45 5a
        E 0 95 45 64
        E 1150 82 45 64
        E 1 83 45 64
        E 0 85 45 64
        E 1 92 45 64
        E 1 93 42 5a
        E 0 95 45 64
        E 1150 82 45 64
        E 0 83 42 64
        E 0 85 45 64
        E 0 92 45 64
        E 0 93 40 5a
        E 0 95 45 64
        E 1153 82 45 64
        E 1 83 40 64
        E 0 85 45 64
        E 0 92 45 64
        E 0 93 3f 5a
        E 0 95 45 64
        E 1150 82 45 64
        E 1 83 3f 64
        E 0 85 45 64
        E 0 92 4c 64
        E 0 93 40 5a
        E 0 95 4c 64
        E 1151 82 4c 64
        E 0 83 40 64
        E 0 85 4c 64
        E 0 92 4b 64
        E 0 93 45 5a
        E 0 95 4b 64
        E 576 82 4b 64
        E 0 85 4b 64
        E 0 92 49 64
        E 0 95 49 64
        E 576 82 49 64
        E 0 83 45 64
        E 0 85 49 64
        E 1 92 47 64
        E 0 93 3f 5a
        E 0 95 47 64
        E 1152 82 47 64
        E 0 83 3f 64
        E 0 85 47 64
        E 1 92 45 64
        E 1 93 3b 5a
        E 0 95 45 64
        E 1150 82 45 64
        E 0 83 3b 64
        E 0 85 45 64
        E 1 92 44 64
        E 1 93 40 5a
        E 0 95 44 64
        E 1150 82 44 64
        E 0 83 40 64
        E 0 85 44 64
        E 0 92 42 64
        E 0 93 38 5a
        E 0 95 42 64
        E 577 82 42 64
        E 0 85 42 64
        E 0 92 40 64
        E 0 95 40 64
        E 575 82 40 64
        E 0 83 38 64
        E 0 85 40 64
        E 0 92 42 64
        E 0 93 39 5a
        E 0 95 42 64
        E 1150 82 42 64
        E 0 83 39 64
        E 0 85 42 64
        E 1 92 40 64
        E 0 93 3b 5a
        E 0 95 40 64
        E 577 82 40 64
        E 0 85 40 64
        E 1 92 3f 64
        E 1 95 3f 64
        E 573 82 3f 64
        E 0 83 3b 64
        E 0 85 3f 64
        E 0 92 40 64
        E 0 93 34 5a
        E 0 95 40 64
        E 2305 82 40 64
        E 0 83 34 64
        E 0 85 40 64
        E 1153 92 40 64
        E 0 94 40 64
        E 1150 82 40 64
        E 1 84 40 64
        E 1 92 45 64
        E 0 93 3d 5a
        E 1 94 45 64
        E 0 9f 2d 5a
        E 1149 82 45 64
        E 0 83 3d 64
        E 0 84 45 64
        E 0 8f 2d 64
        E 0 92 44 64
        E 0 93 3d 5a
        E 0 94 44 64
        E 0 9f 39 5a
        E 576 82 44 64
        E 0 84 44 64
        E 0 92 45 64
        E 1 94 45 64
        E 575 82 45 64
        E 0 83 3d 64
        E 0 84 45 64
        E 0 8f 39 64
        E 0 92 47 64
        E 0 93 40 5a
        E 0 94 47 64
        E 0 9f 38 5a
        E 1153 82 47 64
        E 0 83 40 64
        E 0 84 47 64
        E 0 8f 38 64
        E 0 92 49 64
        E 0 93 44 5a
        E 0 94 49 64
        E 0 9f 34 5a
        E 575 82 49 64
        E 0 84 49 64
        E 0 92 4a 64
        E 1 94 4a 64
        E 576 82 4a 64
        E 0 83 44 64
        E 0 84 4a 64
        E 0 8f 34 64
        E 0 92 49 64
        E 0 93 40 5a
        E 0 94 49 64
        E 0 9f 2d 5a
        E 1151 82 49 64
        E 0 84 49 64
        E 0 8f 2d 64
        E 1 92 47 64
        E 0 94 47 64
        E 0 9f 2f 5a
        E 1154 82 47 64
        E 0 84 47 64
        E 0 8f 2f 64
        E 0 92 45 64
        E 0 94 45 64
        E 0 9f 31 5a
        E 1149 82 45 64
        E 0 83 40 64
        E 0 84 45 64
        E 0 8f 31 64
        E 0 92 4a 64
        E 0 93 47 5a
        E 1 94 4a 64
        E 0 9f 2c 5a
        E 1150 82 4a 64
        E 1 83 47 64
        E 0 84 4a 64
        E 0 8f 2c 64
        E 0 92 49 64
        E 0 93 40 5a
        E 0 94 49 64
        E 0 9f 2d 5a
        E 1151 82 49 64
        E 0 84 49 64
        E 0 8f 2d 64
        E 1 92 44 64
        E 1 94 44 64
        E 0 9f 34 5a
        E 1151 82 44 64
        E 0 83 40 64
        E 0 84 44 64
        E 0 8f 34 64
        E 0 92 45 64
        E 0 93 40 5a
        E 0 94 45 64
        E 0 9f 31 5a
        E 1152 82 45 64
        E 0 83 40 64
        E 0 84 45 64
        E 1 8f 31 64
        E 1 92 4c 64
        E 0 93 47 5a
        E 0 94 4c 64
        E 0 9f 2c 5a
        E 1150 82 4c 64
        E 0 83 47 64
        E 0 84 4c 64
        E 0 8f 2c 64
        E 0 92 49 64
        E 0 93 40 5a
        E 0 94 49 64
        E 0 9f 2d 5a
        E 1152 82 49 64
        E 0 83 40 64
        E 0 84 49 64
        E 1 8f 2d 64
        E 0 92 47 64
        E 0 93 40 5a
        E 0 94 47 64
        E 0 9f 39 5a
        E 574 82 47 64
        E 0 84 47 64
        E 0 92 45 64
        E 0 94 45 64
        E 581 82 45 64
        E 0 83 40 64
        E 0 84 45 64
        E 0 8f 39 64
        E 0 92 47 64
        E 0 93 42 5a
        E 0 94 47 64
        E 0 9f 32 5a
        E 1148 82 47 64
        E 0 83 42 64
        E 0 84 47 64
        E 0 8f 32 64
        E 1 92 45 64
        E 0 93 40 5a
        E 0 94 45 64
        E 0 9f 34 5a
        E 576 82 45 64
        E 0 84 45 64
        E 1 92 44 64
        E 0 94 44 64
        E 575 82 44 64
        E 0 83 40 64
        E 0 84 44 64
        E 0 8f 34 64
        E 0 92 45 64
        E 0 93 3d 5a
        E 0 94 45 64
        E 1 9f 2d 5a
        E 2303 82 45 64
        E 0 83 3d 64
        E 0 84 45 64
        E 0 8f 2d 64
        E 1151 92 3d 64
        E 0 93 39 5a
        E 0 95 3d 64
        E 1153 82 3d 64
        E 0 83 39 64
        E 0 85 3d 64
        E 0 92 45 64
        E 0 93 39 5a
        E 1 95 45 64
        E 1150 82 45 64
        E 1 83 39 64
        E 0 85 45 64
        E 0 92 45 64
        E 0 93 39 5a
        E 0 95 45 64
        E 1152 82 45 64
        E 0 83 39 64
        E 0 85 45 64
        E 1 92 49 64
        E 0 93 39 5a
        E 0 95 49 64
        E 1149 82 49 64
        E 0 83 39 64
        E 1 85 49 64
        E 0 92 47 64
        E 0 93 39 5a
        E 0 95 47 64
        E 576 82 47 64
        E 0 85 47 64
        E 0 92 45 64
        E 0 95 45 64
        E 578 82 45 64
        E 0 83 39 64
        E 0 85 45 64
        E 0 92 47 64
        E 0 93 40 5a
        E 0 95 47 64
        E 1149 82 47 64
        E 0 83 40 64
        E 0 85 47 64
        E 0 92 44 64
        E 1 93 40 5a
        E 0 95 44 64
        E 1153 82 44 64
        E 0 83 40 64
        E 0 85 44 64
        E 0 92 42 64
        E 1 93 40 5a
        E 0 95 42 64
        E 1151 82 42 64
        E 0 83 40 64
        E 0 85 42 64
        E 0 92 40 64
        E 0 93 40 5a
        E 0 95 40 64
        E 1151 82 40 64
        E 0 83 40 64
        E 0 85 40 64
        E 0 92 47 64
        E 0 93 40 5a
        E 0 95 47 64
        E 1152 82 47 64
        E 1 83 40 64
        E 0 85 47 64
        E 0 92 47 64
        E 0 93 40 5a
        E 0 95 47 64
        E 574 82 47 64
        E 0 85 47 64
        E 1 92 49 64
        E 0 95 49 64
        E 576 82 49 64
        E 0 83 40 64
        E 0 85 49 64
        E 1 92 4a 64
        E 0 93 40 5a
        E 0 95 4a 64
        E 1151 82 4a 64
        E 0 83 40 64
        E 0 85 4a 64
        E 0 92 49 64
        E 0 93 40 5a
        E 0 95 49 64
        E 577 82 49 64
        E 0 85 49 64
        E 0 92 47 64
        E 0 95 47 64
        E 576 82 47 64
        E 1 83 40 64
        E 0 85 47 64
        E 0 92 49 64
        E 0 93 39 5a
        E 0 95 49 64
        E 574 82 49 64
        E 0 85 49 64
        E 1 92 47 64
        E 0 95 47 64
        E 576 82 47 64
        E 0 83 39 64
        E 0 85 47 64
        E 0 92 49 64
        E 0 93 39 5a
        E 0 95 45 64
        E 576 82 49 64
        E 0 92 4a 64
        E 576 82 4a 64
        E 0 83 39 64
        E 0 85 45 64
        E 1 92 4c 64
        E 0 93 39 5a
        E 1150 82 4c 64
        E 0 83 39 64
        E 0 92 45 64
        E 1 93 39 5a
        E 0 95 45 64
        E 1151 82 45 64
        E 1 83 39 64
        E 0 85 45 64
        E 1 92 45 64
        E 0 93 45 5a
        E 0 95 45 64
        E 1149 82 45 64
        E 1 83 45 64
        E 0 85 45 64
        E 0 92 45 64
        E 1 93 42 5a
        E 1 95 45 64
        E 1150 82 45 64
        E 1 83 42 64
        E 0 85 45 64
        E 0 92 45 64
        E 0 93 40 5a
        E 0 95 45 64
        E 1151 82 45 64
        E 0 83 40 64
        E 0 85 45 64
        E 0 92 45 64
        E 0 93 3f 5a
        E 0 95 45 64
        E 1152 82 45 64
        E 0 83 3f 64
        E 0 85 45 64
        E 0 92 4c 64
        E 0 93 40 5a
        E 0 95 4c 64
        E 1152 82 4c 64
        E 1 83 40 64
        E 0 85 4c 64
        E 0 92 4b 64
        E 0 93 45 5a
        E 0 95 4b 64
        E 576 82 4b 64
        E 0 85 4b 64
        E 0 92 49 64
        E 0 95 49 64
        E 575 82 49 64
        E 0 83 45 64
        E 0 85 49 64
        E 0 92 47 64
        E 0 93 3f 5a
        E 0 95 47 64
        E 1152 82 47 64
        E 0 83 3f 64
        E 0 85 47 64
        E 0 92 45 64
        E 0 93 3b 5a
        E 0 95 45 64
        E 1153 82 45 64
        E 0 83 3b 64
        E 0 85 45 64
        E 0 92 44 64
        E 0 93 40 5a
        E 0 95 44 64
        E 1152 82 44 64
        E 0 83 40 64
        E 0 85 44 64
        E 0 92 42 64
        E 1 93 38 5a
        E 0 95 42 64
        E 574 82 42 64
        E 0 85 42 64
        E 0 92 40 64
        E 0 95 40 64
        E 577 82 40 64
        E 0 83 38 64
        E 0 85 40 64
        E 0 92 42 64
        E 0 93 39 5a
        E 0 95 42 64
        E 1151 82 42 64
        E 0 83 39 64
        E 0 85 42 64
        E 0 92 40 64
        E 0 93 3b 5a
        E 0 95 40 64
        E 576 82 40 64
        E 0 85 40 64
        E 1 92 3f 64
        E 0 95 3f 64
        E 574 82 3f 64
        E 0 83 3b 64
        E 0 85 3f 64
        E 0 92 40 64
        E 1 93 34 5a
        E 0 95 40 64
        E 2304 82 40 64
        E 0 83 34 64
        E 0 85 40 64
        E 1154 92 40 64
        E 0 94 40 64
        E 1152 82 40 64
        E 0 84 40 64
        E 0 92 45 64
        E 0 93 3d 5a
        E 0 94 45 64
        E 0 9f 2d 5a
        E 1150 82 45 64
        E 0 83 3d 64
        E 0 84 45 64
        E 0 8f 2d 64
        E 1 92 44 64
        E 0 93 3d 5a
        E 0 94 44 64
        E 0 9f 39 5a
        E 574 82 44 64
        E 0 84 44 64
        E 0 92 45 64
        E 0 94 45 64
        E 578 82 45 64
        E 0 83 3d 64
        E 0 84 45 64
        E 0 8f 39 64
        E 0 92 47 64
        E 0 93 40 5a
        E 0 94 47 64
        E 0 9f 38 5a
        E 1152 82 47 64
        E 0 83 40 64
        E 0 84 47 64
        E 0 8f 38 64
        E 0 92 49 64
        E 1 93 44 5a
        E 0 94 49 64
        E 0 9f 34 5a
        E 576 82 49 64
        E 0 84 49 64
        E 0 92 4a 64
        E 0 94 4a 64
        E 574 82 4a 64
        E 0 83 44 64
        E 0 84 4a 64
        E 0 8f 34 64
        E 0 92 49 64
        E 0 93 40 5a
        E 0 94 49 64
        E 0 9f 2d 5a
        E 1152 82 49 64
        E 0 84 49 64
        E 0 8f 2d 64
        E 0 92 47 64
        E 0 94 47 64
        E 0 9f 2f 5a
        E 1152 82 47 64
        E 0 84 47 64
        E 0 8f 2f 64
        E 0 92 45 64
        E 0 94 45 64
        E 0 9f 31 5a
        E 1152 82 45 64
        E 0 83 40 64
        E 0 84 45 64
        E 0 8f 31 64
        E 0 92 4a 64
        E 0 93 47 5a
        E 0 94 4a 64
        E 0 9f 2c 5a
        E 1153 82 4a 64
        E 0 83 47 64
        E 0 84 4a 64
        E 0 8f 2c 64
        E 0 92 49 64
        E 0 93 40 5a
        E 0 94 49 64
        E 0 9f 2d 5a
        E 1151 82 49 64
        E 0 84 49 64
        E 0 8f 2d 64
        E 0 92 44 64
        E 0 94 44 64
        E 0 9f 34 5a
        E 1152 82 44 64
        E 0 83 40 64
        E 0 84 44 64
        E 0 8f 34 64
        E 0 92 45 64
        E 0 93 40 5a
        E 0 94 45 64
        E 0 9f 31 5a
        E 1153 82 45 64
        E 0 83 40 64
        E 0 84 45 64
        E 0 8f 31 64
        E 1 92 4c 64
        E 0 93 47 5a
        E 0 94 4c 64
        E 0 9f 2c 5a
        E 1151 82 4c 64
        E 0 83 47 64
        E 0 84 4c 64
        E 0 8f 2c 64
        E 0 92 49 64
        E 0 93 40 5a
        E 0 94 49 64
        E 0 9f 2d 5a
        E 1152 82 49 64
        E 0 83 40 64
        E 1 84 49 64
        E 0 8f 2d 64
        E 0 92 47 64
        E 0 93 40 5a
        E 0 94 47 64
        E 0 9f 39 5a
        E 574 82 47 64
        E 0 84 47 64
        E 0 92 45 64
        E 0 94 45 64
        E 576 82 45 64
        E 0 83 40 64
        E 0 84 45 64
        E 0 8f 39 64
        E 0 92 47 64
        E 0 93 42 5a
        E 0 94 47 64
        E 0 9f 32 5a
        E 1152 82 47 64
        E 0 83 42 64
        E 0 84 47 64
        E 0 8f 32 64
        E 0 92 45 64
        E 0 93 40 5a
        E 0 94 45 64
        E 0 9f 34 5a
        E 576 82 45 64
        E 0 84 45 64
        E 1 92 44 64
        E 0 94 44 64
        E 577 82 44 64
        E 0 83 40 64
        E 0 84 44 64
        E 0 8f 34 64
        E 0 92 45 64
        E 0 93 3d 5a
        E 0 94 45 64
        E 0 9f 2d 5a
        E 2303 82 45 64
        E 0 83 3d 64
        E 0 84 45 64
        E 0 8f 2d 64
        E 1152 92 3d 64
        E 0 93 39 5a
        E 0 95 3d 64
        E 1161 82 3d 64
        E 0 83 39 64
        E 0 85 3d 64
        E 1 92 45 64
        E 0 93 39 5a
        E 0 95 45 64
        E 1141 82 45 64
        E 0 83 39 64
        E 0 85 45 64
        E 1 92 45 64
        E 0 93 39 5a
        E 0 95 45 64
        E 1151 82 45 64
        E 0 83 39 64
        E 0 85 45 64
        E 0 92 49 64
        E 0 93 39 5a
        E 0 95 49 64
        E 1152 82 49 64
        E 0 83 39 64
        E 0 85 49 64
        E 0 92 47 64
        E 0 93 39 5a
        E 0 95 47 64
        E 577 82 47 64
        E 0 85 47 64
        E 0 92 45 64
        E 0 95 45 64
        E 575 82 45 64
        E 0 83 39 64
        E 0 85 45 64
        E 0 92 47 64
        E 0 93 40 5a
        E 0 95 47 64
        E 1152 82 47 64
        E 0 83 40 64
        E 0 85 47 64
        E 0 92 44 64
        E 0 93 40 5a
        E 0 95 44 64
        E 1152 82 44 64
        E 0 83 40 64
        E 0 85 44 64
        E 0 92 42 64
        E 1 93 40 5a
        E 1 95 42 64
        E 1150 82 42 64
        E 0 83 40 64
        E 0 85 42 64
        E 0 92 40 64
        E 0 93 40 5a
        E 0 95 40 64
        E 1152 82 40 64
        E 0 83 40 64
        E 0 85 40 64
        E 0 92 47 64
        E 0 93 40 5a
        E 0 95 47 64
        E 1153 82 47 64
        E 0 83 40 64
        E 0 85 47 64
        E 0 92 47 64
        E 0 93 40 5a
        E 0 95 47 64
        E 1151 82 47 64
        E 0 83 40 64
        E 0 85 47 64
        E 2305 9f 32 5a
        E 2304 95 45 64
        E 0 9e 45 64
        E 1151 85 45 64
        E 0 8e 45 64
        E 0 95 45 64
        E 0 9e 45 64
        E 576 85 45 64
        E 0 8e 45 64
        E 1 95 45 64
        E 0 9e 45 64
        E 575 85 45 64
        E 0 8e 45 64
        E 0 95 42 64
        E 0 9e 42 64
        E 1152 85 42 64
        E 1 8e 42 64
        E 0 95 42 64
        E 1 9e 42 64
        E 1152 85 42 64
        E 0 8e 42 64
        E 0 9a 45 64
        E 0 9e 45 64
        E 1150 8a 45 64
        E 0 8e 45 64
        E 0 9a 45 64
        E 0 9e 45 64
        E 575 8a 45 64
        E 0 8e 45 64
        E 0 9a 47 64
        E 1 9e 47 64
        E 576 8a 47 64
        E 0 8e 47 64
        E 0 8f 32 64
        E 0 9a 43 64
        E 0 9e 43 64
        E 0 9f 2b 5a
        E 1153 8a 43 64
        E 0 8e 43 64
        E 0 9a 43 64
        E 0 9e 43 64
        E 1151 8a 43 64
        E 0 8e 43 64
        E 1151 95 3e 64
        E 0 9e 3e 64
        E 1153 85 3e 64
        E 0 8e 3e 64
        E 0 95 43 64
        E 0 9e 43 64
        E 1151 85 43 64
        E 0 8e 43 64
        E 0 95 43 64
        E 0 9e 43 64
        E 1153 85 43 64
        E 0 8e 43 64
        E 0 95 43 64
        E 0 9e 43 64
        E 1152 85 43 64
        E 0 8e 43 64
        E 0 95 45 64
        E 0 9e 45 64
        E 1152 85 45 64
        E 0 8e 45 64
        E 0 8f 2b 64
        E 0 95 47 64
        E 0 9e 47 64
        E 0 9f 2b 5a
        E 1152 85 47 64
        E 0 8e 47 64
        E 1 95 47 64
        E 0 9e 47 64
        E 1151 85 47 64
        E 0 8e 47 64
        E 2306 95 47 64
        E 0 9e 47 64
        E 1150 85 47 64
        E 0 8e 47 64
        E 0 95 47 64
        E 0 9e 47 64
        E 1152 85 47 64
        E 0 8e 47 64
        E 1 95 43 64
        E 0 9e 43 64
        E 1151 85 43 64
        E 1 8e 43 64
        E 0 95 42 64
        E 0 9e 42 64
        E 576 85 42 64
        E 0 8e 42 64
        E 0 95 40 64
        E 0 9e 40 64
        E 575 85 40 64
        E 0 8e 40 64
        E 0 8f 2b 64
        E 0 95 45 64
        E 0 9e 45 64
        E 0 9f 30 5a
        E 1152 85 45 64
        E 0 8e 45 64
        E 0 95 45 64
        E 0 9e 45 64
        E 1152 85 45 64
        E 0 8e 45 64
        E 0 95 45 64
        E 0 9e 45 64
        E 1152 85 45 64
        E 0 8e 45 64
        E 0 95 40 64
        E 0 9e 40 64
        E 1153 85 40 64
        E 0 8e 40 64
        E 0 8f 30 64
        E 0 95 42 64
        E 0 9e 42 64
        E 0 9f 2f 5a
        E 1153 85 42 64
        E 0 8e 42 64
        E 0 95 42 64
        E 0 9e 42 64
        E 1151 85 42 64
        E 0 8e 42 64
        E 2303 8f 2f 64
        E 0 9a 3f 64
        E 0 9e 3f 64
        E 0 9f 2f 5a
        E 1152 8a 3f 64
        E 0 8e 3f 64
        E 0 9a 3f 64
        E 0 9e 3f 64
        E 1152 8a 3f 64
        E 0 8e 3f 64
        E 0 9a 42 64
        E 0 9e 42 64
        E 1152 8a 42 64
        E 0 8e 42 64
        E 0 9a 42 64
        E 0 9e 42 64
        E 576 8a 42 64
        E 0 8e 42 64
        E 0 9a 43 64
        E 0 9e 43 64
        E 575 8a 43 64
        E 0 8e 43 64
        E 1 9a 45 64
        E 0 9e 45 64
        E 1153 8a 45 64
        E 0 8e 45 64
        E 0 9a 45 64
        E 0 9e 45 64
        E 1151 8a 45 64
        E 0 8e 45 64
        E 576 9a 45 64
        E 0 9e 45 64
        E 577 8a 45 64
        E 0 8e 45 64
        E 0 9a 47 64
        E 0 9e 47 64
        E 576 8a 47 64
        E 0 8e 47 64
        E 0 9a 48 64
        E 0 9e 48 64
        E 575 8a 48 64
        E 0 8e 48 64
        E 0 8f 2f 64
        E 0 9a 42 64
        E 0 9e 42 64
        E 0 9f 2f 5a
        E 2305 8a 42 64
        E 0 8e 42 64
        E 1 9a 45 64
        E 0 9e 45 64
        E 1152 8a 45 64
        E 0 8e 45 64
        E 0 9a 45 64
        E 0 9e 45 64
        E 575 8a 45 64
        E 0 8e 45 64
        E 0 9a 43 64
        E 0 9e 43 64
        E 576 8a 43 64
        E 0 8e 43 64
        E 0 8f 2f 64
        E 0 9a 40 64
        E 0 9e 40 64
        E 0 9f 34 5a
        E 1151 8a 40 64
        E 0 8e 40 64
        E 0 9a 40 64
        E 0 9e 40 64
        E 1152 8a 40 64
        E 0 8e 40 64
        E 1152 9a 47 64
        E 0 9e 47 64
        E 1152 8a 47 64
        E 0 8e 47 64
        E 0 8f 34 64
        E 1 9a 44 64
        E 0 9e 44 64
        E 0 9f 32 5a
        E 1152 8a 44 64
        E 0 8e 44 64
        E 1 9a 44 64
        E 0 9e 44 64
        E 1150 8a 44 64
        E 0 8e 44 64
        E 2306 9a 40 64
        E 0 9e 40 64
        E 1149 8a 40 64
        E 0 8e 40 64
        E 0 9a 40 64
        E 0 9e 40 64
        E 1155 8a 40 64
        E 0 8e 40 64
        E 0 9a 47 64
        E 0 9e 47 64
        E 1150 8a 47 64
        E 0 8e 47 64
        E 0 9a 47 64
        E 0 9e 47 64
        E 576 8a 47 64
        E 0 8e 47 64
        E 0 9a 48 64
        E 0 9e 48 64
        E 576 8a 48 64
        E 0 8e 48 64
        E 0 8f 32 64
        E 0 9a 45 64
        E 0 9e 45 64
        E 0 9f 35 5a
        E 1152 8a 45 64
        E 1 8e 45 64
        E 0 9a 45 64
        E 0 9e 45 64
        E 1151 8a 45 64
        E 0 8e 45 64
        E 2303 9a 45 64
        E 1 9e 45 64
        E 1152 8a 45 64
        E 0 8e 45 64
        E 0 9a 45 64
        E 0 9e 45 64
        E 576 8a 45 64
        E 0 8e 45 64
        E 0 9a 45 64
        E 0 9e 45 64
        E 577 8a 45 64
        E 1 8e 45 64
        E 1 9a 47 64
        E 2 9e 47 64
        E 1148 8a 47 64
        E 0 8e 47 64
        E 0 9a 48 64
        E 0 9e 48 64
        E 1151 8a 48 64
        E 0 8e 48 64
        E 0 8f 35 64
        E 0 9a 43 64
        E 0 9e 43 64
        E 0 9f 37 5a
        E 1153 8a 43 64
        E 1 8e 43 64
        E 0 9a 43 64
        E 0 9e 43 64
        E 1149 8a 43 64
        E 0 8e 43 64
        E 0 8f 37 64
        E 0 9f 30 5a
        E 577 95 40 64
        E 0 9e 40 64
        E 578 85 40 64
        E 0 8e 40 64
        E 0 95 40 64
        E 0 9e 40 64
        E 574 85 40 64
        E 0 8e 40 64
        E 0 95 41 64
        E 0 9e 41 64
        E 576 85 41 64
        E 0 8e 41 64
        E 0 8f 30 64
        E 0 95 43 64
        E 0 9e 43 64
        E 0 9f 30 5a
        E 1153 85 43 64
        E 0 8e 43 64
        E 0 95 43 64
        E 0 9e 43 64
        E 1152 85 43 64
        E 0 8e 43 64
        E 1151 95 46 66
        E 0 9e 46 66
        E 576 85 46 66
        E 0 8e 46 66
        E 0 95 46 66
        E 0 9e 46 66
        E 576 85 46 66
        E 0 8e 46 66
        E 0 8f 30 64
        E 0 95 43 64
        E 0 9e 43 64
        E 0 9f 30 5a
        E 2305 85 43 64
        E 0 8e 43 64
        E 1 95 43 64
        E 0 9e 43 64
        E 1149 85 43 64
        E 0 8e 43 64
        E 0 95 45 64
        E 0 9e 45 64
        E 1153 85 45 64
        E 0 8e 45 64
        E 0 8f 30 64
        E 0 95 41 64
        E 0 9e 41 64
        E 0 9f 35 5a
        E 2306 85 41 64
        E 0 8e 41 64
        E 574 95 48 64
        E 0 9e 48 64
        E 576 85 48 64
        E 0 8e 48 64
        E 0 95 48 64
        E 0 9e 48 64
        E 576 85 48 64
        E 0 8e 48 64
        E 1 95 48 64
        E 0 9e 48 64
        E 576 85 48 64
        E 0 8e 48 64
        E 2 8f 35 64
        E 0 95 45 64
        E 0 9e 45 64
        E 0 9f 35 5a
        E 1149 85 45 64
        E 0 8e 45 64
        E 0 95 45 64
        E 0 9e 45 64
        E 1153 85 45 64
        E 0 8e 45 64
        E 1152 95 45 64
        E 0 9e 45 64
        E 1152 85 45 64
        E 0 8e 45 64
        E 1 95 45 64
        E 0 9e 45 64
        E 1150 85 45 64
        E 0 8e 45 64
        E 0 95 45 64
        E 0 9e 45 64
        E 1151 85 45 64
        E 1 8e 45 64
        E 0 95 43 64
        E 0 9e 43 64
        E 1153 85 43 64
        E 0 8e 43 64
        E 1 95 41 64
        E 0 9e 41 64
        E 1151 85 41 64
        E 0 8e 41 64
        E 0 8f 35 64
        E 1 95 46 66
        E 0 9e 46 66
        E 0 9f 32 5a
        E 1151 85 46 66
        E 0 8e 46 66
        E 0 95 46 66
        E 0 9e 46 66
        E 1152 85 46 66
        E 0 8e 46 66
        E 1151 95 46 66
        E 0 9e 46 66
        E 578 85 46 66
        E 0 8e 46 66
        E 0 95 46 66
        E 0 9e 46 66
        E 575 85 46 66
        E 0 8e 46 66
        E 0 8f 32 64
        E 0 95 43 64
        E 0 9e 43 64
        E 0 9f 33 5b
        E 2302 85 43 64
        E 0 8e 43 64
        E 0 95 43 64
        E 0 9e 43 64
        E 1155 85 43 64
        E 0 8e 43 64
        E 0 95 42 64
        E 0 9e 42 64
        E 1150 85 42 64
        E 0 8e 42 64
        E 0 8f 33 66
        E 0 95 45 64
        E 0 9e 45 64
        E 0 9f 32 5a
        E 1152 85 45 64
        E 1 8e 45 64
        E 0 95 45 64
        E 0 9e 45 64
        E 1152 85 45 64
        E 0 8e 45 64
        E 576 95 45 64
        E 0 9e 45 64
        E 574 85 45 64
        E 0 8e 45 64
        E 0 95 48 64
        E 0 9e 48 64
        E 579 85 48 64
        E 0 8e 48 64
        E 0 95 47 64
        E 0 9e 47 64
        E 576 85 47 64
        E 0 8e 47 64
        E 0 8f 32 64
        E 0 95 47 64
        E 0 9e 47 64
        E 0 9f 33 5a
        E 1150 85 47 64
        E 0 8e 47 64
        E 0 95 47 64
        E 0 9e 47 64
        E 1152 85 47 64
        E 0 8e 47 64
        E 2304 8f 33 64
        E 0 95 42 64
        E 0 9e 42 64
        E 0 9f 33 5a
        E 1153 85 42 64
        E 0 8e 42 64
        E 0 95 43 64
        E 0 9e 43 64
        E 1152 85 43 64
        E 0 8e 43 64
        E 0 95 45 64
        E 0 9e 45 64
        E 1151 85 45 64
        E 0 8e 45 64
        E 0 95 45 64
        E 0 9e 45 64
        E 576 85 45 64
        E 0 8e 45 64
        E 0 95 43 64
        E 0 9e 43 64
        E 577 85 43 64
        E 0 8e 43 64
        E 0 8f 33 64
        E 0 95 43 64
        E 0 9e 43 64
        E 0 9f 34 5a
        E 1151 85 43 64
        E 0 8e 43 64
        E 0 95 43 64
        E 0 9e 43 64
        E 1154 85 43 64
        E 0 8e 43 64
        E 2302 8f 34 64
        E 0 95 47 64
        E 0 9e 47 64
        E 0 9f 34 5a
        E 1152 85 47 64
        E 0 8e 47 64
        E 0 95 47 64
        E 0 9e 47 64
        E 1153 85 47 64
        E 0 8e 47 64
        E 0 95 47 64
        E 0 9e 47 64
        E 19455 85 47 64
        E 0 8e 47 64
        E 0 95 45 64
        E 0 9e 45 64
        E 0 85 45 64
        E 0 8e 45 64
        E 0 95 47 64
        E 0 9e 47 64
        E 0 85 47 64
        E 0 8e 47 64
        E 0 8f 34 64
        E 0 95 48 64
        E 0 9e 48 64
        E 0 9f 2d 5a
        E 0 85 48 64
        E 0 8e 48 64
        E 0 95 48 64
        E 0 9e 48 64
        E 0 85 48 64
        E 1 8e 48 64
        E 0 95 45 64
        E 0 9e 45 64
        E 0 85 45 64
        E 0 8e 45 64
        E 0 95 45 64
        E 0 9e 45 64
        E 0 85 45 64
        E 0 8e 45 64
        E 0 95 43 64
        E 0 9e 43 64
        E 0 85 43 64
        E 0 8e 43 64
        E 0 8f 2d 64
        E 0 95 40 64
        E 0 9e 40 64
        E 0 9f 2f 5a
        E 0 85 40 64
        E 0 8e 40 64
        E 0 95 40 64
        E 0 9e 40 64
        E 0 85 40 64
        E 0 8e 40 64
        E 0 8f 2f 64
        E 0 9f 34 5a
        E 0 8f 34 64
        E 0 9a 43 64
        E 0 9e 43 64
        E 0 9f 34 5a
        E 0 8a 43 64
        E 0 8e 43 64
        E 0 9a 43 64
        E 0 9e 43 64
        E 0 8a 43 64
        E 0 8e 43 64
        E 0 9a 43 64
        E 0 9e 43 64
        E 0 8a 43 64
        E 0 8e 43 64
        E 0 9a 43 64
        E 0 9e 43 64
        E 0 8a 43 64
        E 0 8e 43 64
        E 0 9a 45 64
        E 0 9e 45 64
        E 0 8a 45 64
        E 0 8e 45 64
        E 0 8f 34 64
        E 0 9a 40 64
        E 1 9e 40 64
        E 0 9f 34 5a
        E 0 8a 40 64
        E 0 8e 40 64
        E 19202 9a 43 64
        E 0 9e 43 64
        E 0 8a 43 64
        E 0 8e 43 64
        E 0 9a 43 64
        E 0 9e 43 64
        E 0 8a 43 64
        E 0 8e 43 64
        E 0 9a 45 64
        E 0 9e 45 64
        E 0 8a 45 64
        E 0 8e 45 64
        E 0 8f 34 64
        E 0 9a 45 64
        E 0 9e 45 64
        E 0 9f 31 5a
        E 0 8a 45 64
        E 0 8e 45 64
        E 0 9a 45 64
        E 0 9e 45 64
        E 0 8a 45 64
        E 0 8e 45 64
        E 0 9a 40 64
        E 0 9e 40 64
        E 0 8a 40 64
        E 0 8e 40 64
        E 0 9a 40 64
        E 0 9e 40 64
        E 0 8a 40 64
        E 1 8e 40 64
        E 0 9a 40 64
        E 0 9e 40 64
        E 0 8a 40 64
        E 0 8e 40 64
        E 0 9a 40 64
        E 0 9e 40 64
        E 0 8a 40 64
        E 0 8e 40 64
        E 0 9a 42 64
        E 0 9e 42 64
        E 0 8a 42 64
        E 0 8e 42 64
        E 0 8f 31 64
        E 0 9a 43 64
        E 0 9e 43 64
        E 0 9f 31 5a
        E 0 8a 43 64
        E 0 8e 43 64
        E 0 9a 43 64
        E 0 9e 43 64
        E 0 8a 43 64
        E 0 8e 43 64
        E 0 9a 43 64
        E 0 9e 43 64
        E 0 8a 43 64
        E 0 8e 43 64
        E 0 9a 47 64
        E 0 9e 47 64
        E 15732 8a 47 64
        E 0 8e 47 64
        E 0 9a 43 64
        E 0 9e 43 64
        E 0 8a 43 64
        E 0 8e 43 64
        E 0 9a 43 64
        E 0 9e 43 64
        E 0 8a 43 64
        E 0 8e 43 64
        E 0 9a 43 64
        E 0 9e 43 64
        E 0 8a 43 64
        E 0 8e 43 64
        E 0 9a 42 64
        E 1 9e 42 64
        E 0 8a 42 64
        E 0 8e 42 64
        E 0 8f 31 64
        E 0 9a 3e 64
        E 0 9e 3e 64
        E 1 9f 32 5a
        E 0 8a 3e 64
        E 0 8e 3e 64
        E 0 9a 45 64
        E 0 9e 45 64
        E 0 8a 45 64
        E 0 8e 45 64
        E 0 9a 43 64
        E 0 9e 43 64
        E 0 8a 43 64
        E 0 8e 43 64
        E 0 9a 45 64
        E 0 9e 45 64
        E 0 8a 45 64
        E 0 8e 45 64
        E 0 8f 32 64
        E 0 9a 42 64
        E 0 9e 42 64
        E 0 9f 32 5a
        E 0 8a 42 64
        E 0 8e 42 64
        E 0 9a 42 64
        E 1 9e 42 64
        E 930 8a 42 64
        E 0 8e 42 64
        E 2294 9a 3e 64
        E 0 9e 3e 64
        E 1194 8a 3e 64
        E 0 8e 3e 64
        E 0 9a 3e 64
        E 0 9e 3e 64
        E 1101 8a 3e 64
        E 0 8e 3e 64
        E 2 9a 42 64
        E 1 9e 42 64
        E 1190 8a 42 64
        E 1 8e 42 64
        E 0 9a 42 64
        E 0 9e 42 64
        E 590 8a 42 64
        E 0 8e 42 64
        E 1 9a 43 64
        E 0 9e 43 64
        E 599 8a 43 64
        E 0 8e 43 64
        E 1 8f 32 64
        E 2 9a 45 64
        E 5 9e 45 64
        E 0 9f 32 5a
        E 1091 8a 45 64
        E 0 8e 45 64
        E 1 9a 45 64
        E 0 9e 45 64
        E 19807 8a 45 64
        E 0 8e 45 64
        E 0 9a 48 64
        E 0 9e 48 64
        E 0 8a 48 64
        E 0 8e 48 64
        E 0 9a 45 64
        E 0 9e 45 64
        E 0 8a 45 64
        E 0 8e 45 64
        E 0 9a 45 64
        E 0 9e 45 64
        E 0 8a 45 64
        E 0 8e 45 64
        E 0 9a 47 64
        E 0 9e 47 64
        E 0 8a 47 64
        E 0 8e 47 64
        E 0 8f 32 64
        E 0 9a 43 64
        E 0 9e 43 64
        E 0 9f 2b 5a
        E 0 8a 43 64
        E 0 8e 43 64
        E 0 9a 43 64
        E 0 9e 43 64
        E 0 8a 43 64
        E 0 8e 43 64
        E 0 9a 3e 64
        E 0 9e 3e 64
        E 0 8a 3e 64
        E 0 8e 3e 64
        E 0 9a 3e 64
        E 0 9e 3e 64
        E 0 8a 3e 64
        E 0 8e 3e 64
        E 0 9a 3e 64
        E 0 9e 3e 64
        E 0 8a 3e 64
        E 0 8e 3e 64
        E 0 9a 43 64
        E 0 9e 43 64
        E 0 8a 43 64
        E 0 8e 43 64
        E 0 9a 43 64
        E 0 9e 43 64
        E 0 8a 43 64
        E 0 8e 43 64
        E 0 9a 45 64
        E 0 9e 45 64
        E 0 8a 45 64
        E 0 8e 45 64
        E 0 8f 2b 64
        E 1 9a 41 64
        E 0 9e 41 64
        E 0 9f 2b 5a
        E 0 8a 41 64
        E 0 8e 41 64
        E 0 9a 41 64
        E 0 9e 41 64
        E 0 8a 41 64
        E 0 8e 41 64
        E 19202 9a 3e 64
        E 0 9e 3e 64
        E 0 8a 3e 64
        E 0 8e 3e 64
        E 0 9a 3e 64
        E 0 9e 3e 64
        E 0 8a 3e 64
        E 0 8e 3e 64
        E 0 9a 41 64
        E 0 9e 41 64
        E 0 8a 41 64
        E 0 8e 41 64
        E 0 9a 41 64
        E 0 9e 41 64
        E 0 8a 41 64
        E 0 8e 41 64
        E 0 9a 40 64
        E 1 9e 40 64
        E 0 8a 40 64
        E 0 8e 40 64
        E 0 8f 2b 64
        E 0 9a 3c 64
        E 0 9e 3c 64
        E 0 9f 30 5a
        E 0 8a 3c 64
        E 0 8e 3c 64
        E 0 9a 3c 64
        E 0 9e 3c 64
        E 0 8a 3c 64
        E 0 8e 3c 64
        E 0 9a 40 64
        E 0 9e 40 64
        E 0 8a 40 64
        E 0 8e 40 64
        E 0 9a 40 64
        E 0 9e 40 64
        E 0 8a 40 64
        E 0 8e 40 64
        E 0 9a 41 64
        E 0 9e 41 64
        E 0 8a 41 64
        E 0 8e 41 64
        E 0 9a 43 64
        E 0 9e 43 64
        E 0 8a 43 64
        E 0 8e 43 64
        E 0 9a 43 64
        E 0 9e 43 64
        E 0 8a 43 64
        E 0 8e 43 64
        E 0 9a 46 66
        E 0 9e 46 66
        E 0 8a 46 66
        E 0 8e 46 66
        E 0 9a 43 64
        E 0 9e 43 64
        E 0 8a 43 64
        E 0 8e 43 64
        E 0 9a 45 64
        E 0 9e 45 64
        E 0 8a 45 64
        E 0 8e 45 64
        E 0 8f 30 64
        E 0 9a 41 64
        E 0 9e 41 64
        E 0 9f 35 5a
        E 0 8a 41 64
        E 0 8e 41 64
        E 0 9a 41 64
        E 0 9e 41 64
        E 0 8a 41 64
        E 0 8e 41 64
        E 11922 9a 45 64
        E 0 9e 45 64
        E 0 8a 45 64
        E 0 8e 45 64
        E 0 9a 45 64
        E 0 9e 45 64
        E 0 8a 45 64
        E 0 8e 45 64
        E 0 9a 45 64
        E 0 9e 45 64
        E 0 8a 45 64
        E 0 8e 45 64
        E 0 9a 46 66
        E 1 9e 46 66
        E 0 8a 46 66
        E 0 8e 46 66
        E 0 9a 48 64
        E 0 9e 48 64
        E 0 8a 48 64
        E 0 8e 48 64
        E 0 8f 35 64
        E 0 9a 41 64
        E 0 9e 41 64
        E 0 9f 35 5a
        E 0 8a 41 64
        E 1 8e 41 64
        E 0 9a 41 64
        E 0 9e 41 64
        E 0 8a 41 64
        E 0 8e 41 64
        E 0 9a 41 64
        E 0 9e 41 64
        E 0 8a 41 64
        E 0 8e 41 64
        E 0 9a 41 64
        E 0 9e 41 64
        E 19203 8a 41 64
        E 0 8e 41 64
        E 0 9a 41 64
        E 0 9e 41 64
        E 0 8a 41 64
        E 0 8e 41 64
        E 0 9a 41 64
        E 0 9e 41 64
        E 0 8a 41 64
        E 0 8e 41 64
        E 0 9a 43 64
        E 0 9e 43 64
        E 0 8a 43 64
        E 0 8e 43 64
        E 0 8f 35 64
        E 0 9a 45 64
        E 0 9e 45 64
        E 0 9f 33 5b
        E 0 8a 45 64
        E 0 8e 45 64
        E 0 9a 45 64
        E 0 9e 45 64
        E 0 8a 45 64
        E 0 8e 45 64
        E 0 9a 43 64
        E 0 9e 43 64
        E 0 8a 43 64
        E 0 8e 43 64
        E 0 9a 41 64
        E 0 9e 41 64
        E 0 8a 41 64
        E 0 8e 41 64
        E 0 8f 33 66
        E 0 9a 46 66
        E 0 9e 46 66
        E 0 9f 32 5a
        E 0 8a 46 66
        E 0 8e 46 66
        E 0 9a 46 66
        E 0 9e 46 66
        E 0 8a 46 66
        E 0 8e 46 66
        E 0 8f 32 64
        E 0 9a 43 64
        E 0 9e 43 64
        E 0 9f 33 5b
        E 0 8a 43 64
        E 0 8e 43 64
        E 1 9a 43 64
        E 0 9e 43 64
        E 0 8a 43 64
        E 0 8e 43 64
        E 0 9a 43 64
        E 0 9e 43 64
        E 0 8a 43 64
        E 0 8e 43 64
        E 0 9a 45 64
        E 0 9e 45 64
        E 0 8a 45 64
        E 0 8e 45 64
        E 0 9a 46 66
        E 0 9e 46 66
        E 0 8a 46 66
        E 0 8e 46 66
        E 0 8f 33 66
        E 0 9a 41 64
        E 0 9e 41 64
        E 0 9f 35 5a
        E 0 8a 41 64
        E 0 8e 41 64
        E 0 9a 41 64
        E 0 9e 41 64
        E 3600 8a 41 64
        E 0 8e 41 64
        E 0 8f 35 64
        E 0 9f 2e 5b
        E 0 8f 2e 66
        E 0 95 46 66
        E 0 9e 46 66
        E 0 9f 2e 5b
        E 0 85 46 66
        E 0 8e 46 66
        E 0 95 46 66
        E 0 9e 46 66
        E 19203 85 46 66
        E 1 8e 46 66
        E 0 95 46 66
        E 0 9e 46 66
        E 0 85 46 66
        E 0 8e 46 66
        E 0 95 46 66
        E 0 9e 46 66
        E 0 85 46 66
        E 0 8e 46 66
        E 0 95 48 64
        E 0 9e 48 64
        E 0 85 48 64
        E 0 8e 48 64
        E 0 95 44 66
        E 0 9e 44 66
        E 0 85 44 66
        E 0 8e 44 66
        E 0 8f 2e 66
        E 0 95 41 64
        E 0 9e 41 64
        E 0 9f 2e 5b
        E 0 85 41 64
        E 0 8e 41 64
        E 0 95 41 64
        E 0 9e 41 64
        E 0 85 41 64
        E 0 8e 41 64
        E 0 95 43 64
        E 0 9e 43 64
        E 0 85 43 64
        E 0 8e 43 64
        E 0 95 44 66
        E 0 9e 44 66
        E 0 85 44 66
        E 0 8e 44 66
        E 0 95 44 66
        E 0 9e 44 66
        E 0 85 44 66
        E 0 8e 44 66
        E 0 95 48 64
        E 1 9e 48 64
        E 0 85 48 64
        E 0 8e 48 64
        E 0 8f 2e 66
        E 0 95 44 66
        E 0 9e 44 66
        E 0 9f 2e 5b
        E 0 85 44 66
        E 0 8e 44 66
        E 0 95 44 66
        E 0 9e 44 66
        E 1586 85 44 66
        E 0 8e 44 66
        E 0 95 44 66
        E 1 9e 44 66
        E 0 85 44 66
        E 0 8e 44 66
        E 0 95 43 64
        E 0 9e 43 64
        E 1176 85 43 64
        E 0 8e 43 64
        E 0 8f 2e 66
        E 1 95 3f 66
        E 0 9e 3f 66
        E 0 9f 33 5b
        E 19398 85 3f 66
        E 0 8e 3f 66
        E 0 95 3f 66
        E 0 9e 3f 66
        E 0 85 3f 66
        E 0 8e 3f 66
        E 0 95 46 66
        E 0 9e 46 66
        E 0 85 46 66
        E 0 8e 46 66
        E 0 95 46 66
        E 0 9e 46 66
        E 0 85 46 66
        E 0 8e 46 66
        E 0 95 46 66
        E 0 9e 46 66
        E 0 85 46 66
        E 0 8e 46 66
        E 0 8f 33 66
        E 0 95 43 64
        E 0 9e 43 64
        E 0 9f 33 5b
        E 0 85 43 64
        E 0 8e 43 64
        E 1 95 43 64
        E 0 9e 43 64
        E 0 85 43 64
        E 0 8e 43 64
        E 0 95 49 66
        E 0 9e 49 66
        E 0 85 49 66
        E 0 8e 49 66
        E 0 8f 33 66
        E 0 95 46 66
        E 0 9e 46 66
        E 0 9f 33 5b
        E 0 85 46 66
        E 0 8e 46 66
        E 0 95 46 66
        E 0 9e 46 66
        E 0 85 46 66
        E 0 8e 46 66
        E 0 95 46 66
        E 0 9e 46 66
        E 0 85 46 66
        E 0 8e 46 66
        E 0 95 48 64
        E 0 9e 48 64
        E 0 85 48 64
        E 0 8e 48 64
        E 0 8f 33 66
        E 0 95 44 66
        E 0 9e 44 66
        E 0 9f 2c 5b
        E 0 85 44 66
        E 0 8e 44 66
        E 0 95 44 66
        E 0 9e 44 66
        E 0 85 44 66
        E 0 8e 44 66
        E 0 95 48 64
        E 1 9e 48 64
        E 0 85 48 64
        E 0 8e 48 64
        E 0 95 48 64
        E 0 9e 48 64
        E 0 85 48 64
        E 0 8e 48 64
        E 0 95 48 64
        E 0 9e 48 64
        E 0 85 48 64
        E 0 8e 48 64
        E 0 8f 2c 66
        E 0 95 43 64
        E 0 9e 43 64
        E 0 9f 34 5a
        E 19203 85 43 64
        E 0 8e 43 64
        E 0 95 43 64
        E 0 9e 43 64
        E 0 85 43 64
        E 0 8e 43 64
        E 0 95 43 64
        E 0 9e 43 64
        E 0 85 43 64
        E 0 8e 43 64
        E 0 95 46 66
        E 0 9e 46 66
        E 0 85 46 66
        E 0 8e 46 66
        E 0 95 44 66
        E 0 9e 44 66
        E 0 85 44 66
        E 0 8e 44 66
        E 0 8f 34 64
        E 0 95 41 64
        E 0 9e 41 64
        E 0 9f 35 5a
        E 0 85 41 64
        E 0 8e 41 64
        E 0 95 41 64
        E 0 9e 41 64
        E 0 85 41 64
        E 0 8e 41 64
        E 0 95 44 66
        E 0 9e 44 66
        E 0 85 44 66
        E 0 8e 44 66
        E 0 95 44 66
        E 0 9e 44 66
        E 0 85 44 66
        E 0 8e 44 66
        E 0 95 44 66
        E 0 9e 44 66
        E 0 85 44 66
        E 0 8e 44 66
        E 0 95 44 66
        E 0 9e 44 66
        E 0 85 44 66
        E 0 8e 44 66
        E 1 95 46 66
        E 0 9e 46 66
        E 0 85 46 66
        E 0 8e 46 66
        E 0 8f 35 64
        E 0 95 48 64
        E 0 9e 48 64
        E 0 9f 35 5a
        E 0 85 48 64
        E 0 8e 48 64
        E 0 95 48 64
        E 0 9e 48 64
        E 0 85 48 64
        E 0 8e 48 64
        E 0 95 48 64
        E 0 9e 48 64
        E 0 85 48 64
        E 0 8e 48 64
        E 0 95 48 64
        E 0 9e 48 64
        E 9218 85 48 64
        E 0 8e 48 64
        E 0 95 44 64
        E 0 9e 44 64
        E 0 85 44 64
        E 0 8e 44 64
        E 0 95 43 64
        E 1 9e 43 64
        E 0 85 43 64
        E 0 8e 43 64
        E 0 95 41 64
        E 0 9e 41 64
        E 0 85 41 64
        E 0 8e 41 64
        E 0 8f 35 64
        E 0 95 47 64
        E 0 9e 47 64
        E 0 9f 35 5a
        E 0 85 47 64
        E 0 8e 47 64
        E 0 95 47 64
        E 0 9e 47 64
        E 0 85 47 64
        E 0 8e 47 64
        E 0 95 47 64
        E 0 9e 47 64
        E 0 85 47 64
        E 0 8e 47 64
        E 0 95 48 64
        E 0 9e 48 64
        E 0 85 48 64
        E 0 8e 48 64
        E 0 8f 35 64
        E 0 95 43 64
        E 0 9e 43 64
        E 0 9f 37 5a
        E 0 85 43 64
        E 0 8e 43 64
        E 0 95 43 64
        E 0 9e 43 64
        E 17905 85 43 64
        E 0 8e 43 64
        E 0 8f 37 64
        E 0 9a 3f 66
        E 0 9e 3f 66
        E 0 9f 30 5a
        E 0 8a 3f 66
        E 0 8e 3f 66
        E 0 9a 43 64
        E 1 9e 43 64
        E 0 8a 43 64
        E 0 8e 43 64
        E 0 8f 30 64
        E 0 9a 3c 64
        E 0 9e 3c 64
        E 0 9f 30 5a
        E 0 8a 3c 64
        E 0 8e 3c 64
        E 0 95 48 64
        E 0 9e 48 64
        E 0 85 48 64
        E 0 8e 48 64
        E 1 95 48 64
        E 0 9e 48 64
        E 0 85 48 64
        E 0 8e 48 64
        E 0 8f 30 64
        E 0 95 45 64
        E 0 9e 45 64
        E 0 9f 2a 5a
        E 0 85 45 64
        E 0 8e 45 64
        E 0 95 45 64
        E 0 9e 45 64
        E 0 85 45 64
        E 0 8e 45 64
        E 0 95 4a 64
        E 0 9e 4a 64
        E 0 85 4a 64
        E 0 8e 4a 64
        E 0 95 45 64
        E 0 9e 45 64
        E 0 85 45 64
        E 0 8e 45 64
        E 0 95 46 66
        E 1 9e 46 66
        E 0 85 46 66
        E 0 8e 46 66
        E 0 8f 2a 64
        E 0 95 43 64
        E 0 9e 43 64
        E 0 9f 2b 5a
        E 0 85 43 64
        E 0 8e 43 64
        E 0 95 43 64
        E 0 9e 43 64
        E 0 85 43 64
        E 0 8e 43 64
        E 0 95 43 64
        E 0 9e 43 64
        E 0 85 43 64
        E 0 8e 43 64
        E 0 95 3e 64
        E 0 9e 3e 64
        E 1 85 3e 64
        E 0 8e 3e 64
        E 0 95 3e 64
        E 0 9e 3e 64
        E 19203 85 3e 64
        E 0 8e 3e 64
        E 0 95 3e 64
        E 0 9e 3e 64
        E 0 85 3e 64
        E 0 8e 3e 64
        E 0 95 3e 64
        E 0 9e 3e 64
        E 0 85 3e 64
        E 0 8e 3e 64
        E 0 8f 2b 64
        E 0 95 43 64
        E 0 9e 43 64
        E 0 9f 2b 5a
        E 0 85 43 64
        E 0 8e 43 64
        E 0 95 43 64
        E 0 9e 43 64
        E 0 85 43 64
        E 0 8e 43 64
        E 0 95 46 66
        E 0 9e 46 66
        E 0 85 46 66
        E 0 8e 46 66
        E 0 95 46 66
        E 0 9e 46 66
        E 0 85 46 66
        E 0 8e 46 66
        E 0 95 46 66
        E 0 9e 46 66
        E 0 85 46 66
        E 0 8e 46 66
        E 0 95 46 66
        E 0 9e 46 66
        E 0 85 46 66
        E 0 8e 46 66
        E 0 95 45 64
        E 0 9e 45 64
        E 0 85 45 64
        E 0 8e 45 64
        E 0 8f 2b 64
        E 0 95 45 64
        E 0 9e 45 64
        E 0 9f 2b 5a
        E 0 85 45 64
        E 0 8e 45 64
        E 0 95 45 64
        E 0 9e 45 64
        E 0 85 45 64
        E 0 8e 45 64
        E 0 95 45 64
        E 0 9e 45 64
        E 0 85 45 64
        E 1 8e 45 64
        E 0 95 45 64
        E 0 9e 45 64
        E 0 85 45 64
        E 0 8e 45 64
        E 0 95 46 66
        E 0 9e 46 66
        E 0 85 46 66
        E 0 8e 46 66
        E 0 95 48 64
        E 0 9e 48 64
        E 0 85 48 64
        E 0 8e 48 64
        E 0 95 48 64
        E 0 9e 48 64
        E 19202 85 48 64
        E 0 8e 48 64
        E 1 95 48 64
        E 0 9e 48 64
        E 0 85 48 64
        E 0 8e 48 64
        E 0 95 45 64
        E 0 9e 45 64
        E 0 85 45 64
        E 0 8e 45 64
        E 0 95 46 66
        E 0 9e 46 66
        E 0 8f 2b 64
        E 0 85 46 66
        E 0 8e 46 66
        E 0 9f 2b 5a
        E 0 95 43 64
        E 0 9e 43 64
        E 0 85 43 64
        E 0 8e 43 64
        E 0 95 43 64
        E 0 9e 43 64
        E 0 85 43 64
        E 0 8e 43 64
        E 0 95 46 66
        E 0 9e 46 66
        E 0 85 46 66
        E 0 8e 46 66
        E 0 8f 2b 64
        E 0 95 43 64
        E 0 9e 43 64
        E 0 9f 31 5a
        E 0 85 43 64
        E 0 8e 43 64
        E 0 95 43 64
        E 0 9e 43 64
        E 0 85 43 64
        E 0 8e 43 64
        E 0 95 40 64
        E 1 9e 40 64
        E 0 85 40 64
        E 0 8e 40 64
        E 0 95 40 64
        E 0 9e 40 64
        E 0 85 40 64
        E 0 8e 40 64
        E 0 95 41 64
        E 0 9e 41 64
        E 0 85 41 64
        E 0 8e 41 64
        E 0 95 43 64
        E 0 9e 43 64
        E 0 85 43 64
        E 0 8e 43 64
        E 0 95 43 64
        E 0 9e 43 64
        E 0 85 43 64
        E 0 8e 43 64
        E 0 95 43 64
        E 0 9e 43 64
        E 0 85 43 64
        E 0 8e 43 64
        E 0 95 43 64
        E 0 9e 43 64
        E 0 85 43 64
        E 0 8e 43 64
        E 0 95 41 64
        E 0 9e 41 64
        E 0 85 41 64
        E 0 8e 41 64
        E 0 8f 31 64
        E 0 95 3e 64
        E 0 9e 3e 64
        E 0 9f 32 5a
        E 0 85 3e 64
        E 0 8e 3e 64
        E 19203 95 45 64
        E 1 9e 45 64
        E 0 85 45 64
        E 0 8e 45 64
        E 0 95 41 64
        E 0 9e 41 64
        E 0 85 41 64
        E 0 8e 41 64
        E 0 95 41 64
        E 0 9e 41 64
        E 0 85 41 64
        E 0 8e 41 64
        E 0 95 43 64
        E 0 9e 43 64
        E 0 85 43 64
        E 0 8e 43 64
        E 0 95 45 64
        E 0 9e 45 64
        E 0 85 45 64
        E 0 8e 45 64
        E 0 8f 32 64
        E 0 95 3e 64
        E 0 9e 3e 64
        E 0 9f 32 5a
        E 0 85 3e 64
        E 0 8e 3e 64
        E 0 95 3e 64
        E 0 9e 3e 64
        E 0 85 3e 64
        E 0 8e 3e 64
        E 0 95 45 64
        E 0 9e 45 64
        E 0 85 45 64
        E 0 8e 45 64
        E 0 95 45 64
        E 0 9e 45 64
        E 0 85 45 64
        E 0 8e 45 64
        E 0 95 45 64
        E 0 9e 45 64
        E 0 85 45 64
        E 0 8e 45 64
        E 0 95 45 64
        E 0 9e 45 64
        E 0 85 45 64
        E 0 8e 45 64
        E 1 95 47 64
        E 0 9e 47 64
        E 0 85 47 64
        E 0 8e 47 64
        E 0 8f 32 64
        E 0 95 44 64
        E 0 9e 44 64
        E 0 9f 32 5a
        E 0 85 44 64
        E 0 8e 44 64
        E 0 95 44 64
        E 0 9e 44 64
        E 0 85 44 64
        E 0 8e 44 64
        E 19202 95 44 64
        E 0 9e 44 64
        E 0 85 44 64
        E 0 8e 44 64
        E 0 95 44 64
        E 0 9e 44 64
        E 0 85 44 64
        E 0 8e 44 64
        E 0 95 44 64
        E 0 9e 44 64
        E 0 85 44 64
        E 0 8e 44 64
        E 0 95 44 64
        E 0 9e 44 64
        E 0 85 44 64
        E 0 8e 44 64
        E 0 95 45 64
        E 0 9e 45 64
        E 0 85 45 64
        E 0 8e 45 64
        E 0 8f 32 64
        E 0 95 40 64
        E 0 9e 40 64
        E 0 9f 34 5a
        E 0 85 40 64
        E 0 8e 40 64
        E 0 8f 34 64
        E 0 9f 2d 5a
        E 0 95 45 64
        E 1 9e 45 64
        E 0 85 45 64
        E 0 8e 45 64
        E 0 95 45 64
        E 0 9e 45 64
        E 0 85 45 64
        E 0 8e 45 64
        E 0 95 43 64
        E 0 9e 43 64
        E 0 85 43 64
        E 0 8e 43 64
        E 0 8f 2d 64
        E 0 95 43 64
        E 0 9e 43 64
        E 0 9f 2f 5a
        E 0 85 43 64
        E 0 8e 43 64
        E 0 95 43 64
        E 0 9e 43 64
        E 0 85 43 64
        E 0 8e 43 64
        E 0 95 43 64
        E 0 9e 43 64
        E 0 85 43 64
        E 0 8e 43 64
        E 0 95 43 64
        E 0 9e 43 64
        E 0 85 43 64
        E 0 8e 43 64
        E 0 95 43 64
        E 0 9e 43 64
        E 0 85 43 64
        E 0 8e 43 64
        E 0 8f 2f 64
        E 0 95 47 64
        E 0 9e 47 64
        E 0 9f 35 5a
        E 0 85 47 64
        E 0 8e 47 64
        E 0 95 47 64
        E 0 9e 47 64
        E 0 85 47 64
        E 0 8e 47 64
        E 0 95 47 64
        E 0 9e 47 64
        E 0 85 47 64
        E 0 8e 47 64
        E 1 95 48 64
        E 0 9e 48 64
        E 5754 85 48 64
        E 1 8e 48 64
        E 0 8f 35 64
        E 0 95 43 64
        E 0 9e 43 64
        E 0 9f 34 5a
        E 0 85 43 64
        E 0 8e 43 64
        E 0 95 43 64
        E 0 9e 43 64
        E 0 85 43 64
        E 0 8e 43 64
        E 0 95 48 64
        E 0 9e 48 64
        E 0 85 48 64
        E 0 8e 48 64
        E 0 8f 34 64
        E 0 95 45 64
        E 1 9e 45 64
        E 0 9f 33 5b
        E 19202 85 45 64
        E 0 8e 45 64
        E 0 95 45 64
        E 0 9e 45 64
        E 1 85 45 64
        E 0 8e 45 64
        E 0 95 45 64
        E 0 9e 45 64
        E 0 85 45 64
        E 0 8e 45 64
        E 0 8f 33 66
        E 0 95 45 64
        E 0 9e 45 64
        E 0 9f 33 5b
        E 0 85 45 64
        E 0 8e 45 64
        E 0 95 45 64
        E 0 9e 45 64
        E 0 85 45 64
        E 0 8e 45 64
        E 0 95 45 64
        E 0 9e 45 64
        E 0 85 45 64
        E 0 8e 45 64
        E 0 95 46 66
        E 0 9e 46 66
        E 0 85 46 66
        E 0 8e 46 66
        E 0 8f 33 66
        E 0 95 41 64
        E 0 9e 41 64
        E 0 9f 2e 5b
        E 0 85 41 64
        E 0 8e 41 64
        E 0 95 3e 64
        E 0 9e 3e 64
        E 0 85 3e 64
        E 0 8e 3e 64
        E 0 95 3e 64
        E 0 9e 3e 64
        E 0 85 3e 64
        E 0 8e 3e 64
        E 0 95 3f 66
        E 0 9e 3f 66
        E 0 85 3f 66
        E 0 8e 3f 66
        E 0 95 41 64
        E 0 9e 41 64
        E 0 85 41 64
        E 0 8e 41 64
        E 0 95 41 64
        E 0 9e 41 64
        E 0 85 41 64
        E 0 8e 41 64
        E 0 8f 2e 66
        E 0 95 41 64
        E 0 9e 41 64
        E 0 9f 2e 5b
        E 0 85 41 64
        E 0 8e 41 64
        E 0 95 41 64
        E 0 9e 41 64
        E 14936 85 41 64
        E 0 8e 41 64
        E 0 95 41 64
        E 0 9e 41 64
        E 0 85 41 64
        E 0 8e 41 64
        E 0 95 41 64
        E 0 9e 41 64
        E 0 85 41 64
        E 0 8e 41 64
        E 0 95 43 64
        E 1 9e 43 64
        E 0 85 43 64
        E 0 8e 43 64
        E 0 95 44 66
        E 0 9e 44 66
        E 0 85 44 66
        E 0 8e 44 66
        E 0 95 44 66
        E 0 9e 44 66
        E 0 85 44 66
        E 0 8e 44 66
        E 0 8f 2e 66
        E 0 95 44 66
        E 0 9e 44 66
        E 0 9f 2e 5b
        E 0 85 44 66
        E 0 8e 44 66
        E 0 95 44 66
        E 0 9e 44 66
        E 0 85 44 66
        E 0 8e 44 66
        E 0 95 44 66
        E 0 9e 44 66
        E 0 85 44 66
        E 0 8e 44 66
        E 0 95 44 66
        E 0 9e 44 66
        E 0 85 44 66
        E 0 8e 44 66
        E 0 8f 2e 66
        E 0 95 43 64
        E 0 9e 43 64
        E 0 9f 33 5b
        E 0 85 43 64
        E 0 8e 43 64
        E 0 95 43 64
        E 0 9e 43 64
        E 0 85 43 64
        E 0 8e 43 64
        E 19202 95 43 64
        E 1 9e 43 64
        E 0 85 43 64
        E 0 8e 43 64
        E 0 95 44 66
        E 0 9e 44 66
        E 0 85 44 66
        E 0 8e 44 66
        E 0 95 46 66
        E 0 9e 46 66
        E 0 85 46 66
        E 0 8e 46 66
        E 0 8f 33 66
        E 0 95 41 64
        E 0 9e 41 64
        E 0 9f 35 5a
        E 0 85 41 64
        E 0 8e 41 64
        E 0 95 41 64
        E 0 9e 41 64
        E 0 85 41 64
        E 0 8e 41 64
        E 0 8f 35 64
        E 0 9f 2e 5b
        E 0 95 41 64
        E 0 9e 41 64
        E 0 85 41 64
        E 0 8e 41 64
        E 0 95 41 64
        E 0 9e 41 64
        E 0 85 41 64
        E 0 8e 41 64
        E 0 95 41 64
        E 0 9e 41 64
        E 0 85 41 64
        E 0 8e 41 64
        E 0 8f 2e 66
        E 0 95 3e 64
        E 1 9e 3e 64
        E 0 9f 2e 5b
        E 0 85 3e 64
        E 0 8e 3e 64
        E 0 95 41 64
        E 0 9e 41 64
        E 0 85 41 64
        E 0 8e 41 64
        E 0 95 46 66
        E 0 9e 46 66
        E 0 85 46 66
        E 0 8e 46 66
        E 0 95 4a 64
        E 0 9e 4a 64
        E 0 85 4a 64
        E 0 8e 4a 64
        E 0 8f 2e 66
        E 0 95 46 66
        E 0 9e 46 66
        E 0 9f 2e 5b
        E 0 85 46 66
        E 0 8e 46 66
        E 0 95 46 66
        E 0 9e 46 66
        E 0 85 46 66
        E 0 8e 46 66
        E 0 95 46 66
        E 0 9e 46 66
        E 0 85 46 66
        E 0 8e 46 66
        E 0 95 46 66
        E 0 9e 46 66
        E 0 85 46 66
        E 0 8e 46 66
        E 0 95 46 66
        E 0 9e 46 66
        E 0 85 46 66
        E 0 8e 46 66
        E 0 8f 2e 66
        E 0 95 43 64
        E 0 9e 43 64
        E 0 9f 34 5a
        E 0 85 43 64
        E 1 8e 43 64
        E 0 95 43 64
        E 0 9e 43 64
        E 0 85 43 64
        E 0 8e 43 64
        E 0 95 46 66
        E 0 9e 46 66
        E 0 85 46 66
        E 0 8e 46 66
        E 0 95 44 66
        E 0 9e 44 66
        E 19202 85 44 66
        E 0 8e 44 66
        E 0 8f 34 64
        E 0 95 41 64
        E 0 9e 41 64
        E 0 9f 35 5a
        E 0 85 41 64
        E 0 8e 41 64
        E 1 95 41 64
        E 0 9e 41 64
        E 0 85 41 64
        E 0 8e 41 64
        E 0 95 41 64
        E 0 9e 41 64
        E 0 85 41 64
        E 0 8e 41 64
        E 0 95 41 64
        E 0 9e 41 64
        E 0 85 41 64
        E 0 8e 41 64
        E 0 95 43 64
        E 0 9e 43 64
        E 0 85 43 64
        E 0 8e 43 64
        E 0 95 44 66
        E 0 9e 44 66
        E 0 85 44 66
        E 0 8e 44 66
        E 0 95 44 66
        E 0 9e 44 66
        E 0 85 44 66
        E 0 8e 44 66
        E 0 95 44 66
        E 0 9e 44 66
        E 0 85 44 66
        E 0 8e 44 66
        E 0 95 41 64
        E 0 9e 41 64
        E 0 85 41 64
        E 0 8e 41 64
        E 0 8f 35 64
        E 0 95 47 64
        E 0 9e 47 64
        E 0 9f 35 5a
        E 0 85 47 64
        E 0 8e 47 64
        E 0 95 47 64
        E 0 9e 47 64
        E 0 85 47 64
        E 0 8e 47 64
        E 0 95 48 64
        E 0 9e 48 64
        E 0 85 48 64
        E 0 8e 48 64
        E 0 8f 35 64
        E 0 95 43 64
        E 0 9e 43 64
        E 0 9f 37 5a
        E 0 85 43 64
        E 0 8e 43 64
        E 0 95 43 64
        E 0 9e 43 64
        E 0 85 43 64
        E 0 8e 43 64
        E 0 8f 37 64
        E 0 9f 30 5a
        E 15449 8f 30 64
        E 0 95 3f 66
        E 0 9e 3f 66
        E 0 9f 30 5a
        E 0 85 3f 66
        E 0 8e 3f 66
        E 0 95 3f 66
        E 0 9e 3f 66
        E 0 85 3f 66
        E 0 8e 3f 66
        E 0 95 41 64
        E 1 9e 41 64
        E 0 85 41 64
        E 0 8e 41 64
        E 0 95 43 64
        E 0 9e 43 64
        E 0 85 43 64
        E 0 8e 43 64
        E 0 95 43 64
        E 0 9e 43 64
        E 0 85 43 64
        E 0 8e 43 64
        E 0 95 43 64
        E 0 9e 43 64
        E 0 85 43 64
        E 0 8e 43 64
        E 0 95 45 64
        E 0 9e 45 64
        E 0 85 45 64
        E 0 8e 45 64
        E 0 8f 30 64
        E 0 95 45 64
        E 0 9e 45 64
        E 0 9f 36 5a
        E 0 85 45 64
        E 0 8e 45 64
        E 0 95 45 64
        E 0 9e 45 64
        E 0 85 45 64
        E 0 8e 45 64
        E 0 95 45 64
        E 0 9e 45 64
        E 0 85 45 64
        E 0 8e 45 64
        E 0 95 4a 64
        E 0 9e 4a 64
        E 0 85 4a 64
        E 0 8e 4a 64
        E 0 95 45 64
        E 0 9e 45 64
        E 0 85 45 64
        E 0 8e 45 64
        E 1 95 45 64
        E 0 9e 45 64
        E 19202 85 45 64
        E 0 8e 45 64
        E 0 95 45 64
        E 0 9e 45 64
        E 0 85 45 64
        E 0 8e 45 64
        E 0 95 46 66
        E 0 9e 46 66
        E 0 85 46 66
        E 0 8e 46 66
        E 0 8f 36 64
        E 0 95 48 64
        E 0 9e 48 64
        E 0 9f 36 5a
        E 0 85 48 64
        E 0 8e 48 64
        E 0 95 48 64
        E 0 9e 48 64
        E 0 85 48 64
        E 0 8e 48 64
        E 0 95 46 66
        E 1 9e 46 66
        E 0 85 46 66
        E 0 8e 46 66
        E 0 8f 36 64
        E 0 95 43 64
        E 0 9e 43 64
        E 0 9f 37 5a
        E 0 85 43 64
        E 0 8e 43 64
        E 0 8f 37 64
        E 0 95 3e 64
        E 0 9e 3e 64
        E 0 9f 37 5a
        E 0 85 3e 64
        E 0 8e 3e 64
        E 0 95 3e 64
        E 0 9e 3e 64
        E 0 85 3e 64
        E 0 8e 3e 64
        E 0 95 3e 64
        E 0 9e 3e 64
        E 0 85 3e 64
        E 0 8e 3e 64
        E 0 95 43 64
        E 0 9e 43 64
        E 0 85 43 64
        E 0 8e 43 64
        E 0 95 43 64
        E 0 9e 43 64
        E 6753 85 43 64
        E 0 8e 43 64
        E 0 95 46 66
        E 0 9e 46 66
        E 0 85 46 66
        E 0 8e 46 66
        E 0 95 46 66
        E 0 9e 46 66
        E 0 85 46 66
        E 0 8e 46 66
        E 0 95 45 64
        E 0 9e 45 64
        E 0 85 45 64
        E 0 8e 45 64
        E 0 8f 37 64
        E 0 95 45 64
        E 0 9e 45 64
        E 0 9f 31 5a
        E 0 85 45 64
        E 0 8e 45 64
        E 0 95 45 64
        E 0 9e 45 64
        E 0 85 45 64
        E 0 8e 45 64
        E 0 95 49 64
        E 0 9e 49 64
        E 0 85 49 64
        E 0 8e 49 64
        E 0 95 49 64
        E 0 9e 49 64
        E 0 85 49 64
        E 0 8e 49 64
        E 0 95 4a 64
        E 0 9e 4a 64
        E 19202 85 4a 64
        E 0 8e 4a 64
        E 0 8f 31 64
        E 0 95 45 64
        E 0 9e 45 64
        E 0 9f 35 5a
        E 0 85 45 64
        E 0 8e 45 64
        E 0 95 45 64
        E 1 9e 45 64
        E 0 85 45 64
        E 0 8e 45 64
        E 0 95 47 64
        E 0 9e 47 64
        E 0 85 47 64
        E 0 8e 47 64
        E 0 8f 35 64
        E 0 95 44 64
        E 0 9e 44 64
        E 0 9f 32 5a
        E 0 85 44 64
        E 0 8e 44 64
        E 0 95 44 64
        E 0 9e 44 64
        E 0 85 44 64
        E 0 8e 44 64
        E 0 95 44 64
        E 0 9e 44 64
        E 0 85 44 64
        E 0 8e 44 64
        E 0 95 44 64
        E 0 9e 44 64
        E 0 85 44 64
        E 0 8e 44 64
        E 0 95 45 64
        E 0 9e 45 64
        E 0 85 45 64
        E 0 8e 45 64
        E 0 95 47 64
        E 0 9e 47 64
        E 0 85 47 64
        E 0 8e 47 64
        E 0 95 47 64
        E 0 9e 47 64
        E 0 85 47 64
        E 0 8e 47 64
        E 0 95 47 64
        E 0 9e 47 64
        E 0 85 47 64
        E 0 8e 47 64
        E 0 95 4a 64
        E 0 9e 4a 64
        E 0 85 4a 64
        E 0 8e 4a 64
        E 0 95 48 64
        E 0 9e 48 64
        E 0 85 48 64
        E 0 8e 48 64
        E 0 8f 32 64
        E 1 95 45 64
        E 0 9e 45 64
        E 0 9f 39 5a
        E 0 85 45 64
        E 0 8e 45 64
        E 0 95 45 64
        E 0 9e 45 64
        E 0 85 45 64
        E 0 8e 45 64
        E 0 95 45 64
        E 0 9e 45 64
        E 0 85 45 64
        E 0 8e 45 64
        E 0 8f 39 64
        E 0 95 42 64
        E 0 9e 42 64
        E 0 9f 33 5a
        E 19202 85 42 64
        E 0 8e 42 64
        E 0 95 42 64
        E 0 9e 42 64
        E 0 85 42 64
        E 0 8e 42 64
        E 0 95 42 64
        E 0 9e 42 64
        E 0 85 42 64
        E 0 8e 42 64
        E 0 8f 33 64
        E 0 95 42 64
        E 0 9e 42 64
        E 0 9f 33 5a
        E 0 85 42 64
        E 0 8e 42 64
        E 0 95 42 64
        E 0 9e 42 64
        E 0 85 42 64
        E 0 8e 42 64
        E 0 95 42 64
        E 0 9e 42 64
        E 1 85 42 64
        E 0 8e 42 64
        E 0 95 43 64
        E 0 9e 43 64
        E 0 85 43 64
        E 0 8e 43 64
        E 0 95 45 64
        E 0 9e 45 64
        E 0 85 45 64
        E 0 8e 45 64
        E 0 95 45 64
        E 0 9e 45 64
        E 0 85 45 64
        E 0 8e 45 64
        E 0 95 48 64
        E 0 9e 48 64
        E 0 85 48 64
        E 0 8e 48 64
        E 0 95 48 64
        E 0 9e 48 64
        E 0 85 48 64
        E 0 8e 48 64
        E 0 8f 33 64
        E 0 95 45 64
        E 0 9e 45 64
        E 1 9f 33 5a
        E 0 85 45 64
        E 0 8e 45 64
        E 0 95 45 64
        E 0 9e 45 64
        E 0 85 45 64
        E 0 8e 45 64
        E 0 95 43 64
        E 0 9e 43 64
        E 0 85 43 64
        E 0 8e 43 64
        E 0 8f 33 64
        E 0 95 40 64
        E 0 9e 40 64
        E 0 9f 34 5a
        E 0 85 40 64
        E 0 8e 40 64
        E 0 95 40 64
        E 0 9e 40 64
        E 19203 85 40 64
        E 1 8e 40 64
        E 0 95 47 64
        E 0 9e 47 64
        E 0 85 47 64
        E 0 8e 47 64
        E 0 95 47 64
        E 0 9e 47 64
        E 0 85 47 64
        E 0 8e 47 64
        E 0 95 49 64
        E 0 9e 49 64
        E 0 85 49 64
        E 0 8e 49 64
        E 0 8f 34 64
        E 0 95 49 64
        E 0 9e 49 64
        E 0 9f 2e 5a
        E 0 85 49 64
        E 1 8e 49 64
        E 0 95 42 64
        E 0 9e 42 64
        E 0 85 42 64
        E 0 8e 42 64
        E 0 95 42 64
        E 0 9e 42 64
        E 0 85 42 64
        E 0 8e 42 64
        E 0 95 42 64
        E 0 9e 42 64
        E 0 85 42 64
        E 0 8e 42 64
        E 0 95 42 64
        E 1 9e 42 64
        E 0 85 42 64
        E 0 8e 42 64
        E 0 95 42 64
        E 0 9e 42 64
        E 0 85 42 64
        E 0 8e 42 64
        E 0 95 43 64
        E 0 9e 43 64
        E 0 85 43 64
        E 0 8e 43 64
        E 0 8f 2e 64
        E 0 95 40 64
        E 0 9e 40 64
        E 0 9f 2e 5a
        E 0 85 40 64
        E 0 8e 40 64
        E 0 95 40 64
        E 0 9e 40 64
        E 0 85 40 64
        E 0 8e 40 64
        E 0 95 46 64
        E 0 9e 46 64
        E 0 85 46 64
        E 0 8e 46 64
        E 0 95 46 64
        E 0 9e 46 64
        E 1 85 46 64
        E 0 8e 46 64
        E 0 95 47 64
        E 0 9e 47 64
        E 0 85 47 64
        E 0 8e 47 64
        E 0 8f 2e 64
        E 0 95 42 64
        E 0 9e 42 64
        E 0 9f 32 5a
        E 0 85 42 64
        E 0 8e 42 64
        E 0 95 42 64
        E 0 9e 42 64
        E 19204 85 42 64
        E 0 8e 42 64
        E 1 8f 32 64
        E 0 95 47 64
        E 0 9e 47 64
        E 0 9f 32 5a
        E 1 85 47 64
        E 0 8e 47 64
        E 0 95 47 64
        E 0 9e 47 64
        E 0 85 47 64
        E 0 8e 47 64
        E 0 95 4a 64
        E 0 9e 4a 64
        E 0 85 4a 64
        E 0 8e 4a 64
        E 0 95 47 64
        E 0 9e 47 64
        E 0 85 47 64
        E 0 8e 47 64
        E 0 95 47 64
        E 0 9e 47 64
        E 0 85 47 64
        E 0 8e 47 64
        E 0 8f 32 64
        E 0 95 42 64
        E 0 9e 42 64
        E 0 9f 32 5a
        E 0 85 42 64
        E 0 8e 42 64
        E 0 95 42 64
        E 0 9e 42 64
        E 0 85 42 64
        E 0 8e 42 64
        E 0 95 44 64
        E 0 9e 44 64
        E 0 85 44 64
        E 0 8e 44 64
        E 0 8f 32 64
        E 0 95 44 64
        E 0 9e 44 64
        E 0 9f 29 59
        E 0 85 44 64
        E 0 8e 44 64
        E 0 95 44 64
        E 0 9e 44 64
        E 0 85 44 64
        E 0 8e 44 64
        E 19203 95 44 64
        E 0 9e 44 64
        E 0 85 44 64
        E 0 8e 44 64
        E 0 95 45 64
        E 0 9e 45 64
        E 0 85 45 64
        E 0 8e 45 64
        E 0 8f 29 63
        E 0 95 47 64
        E 0 9e 47 64
        E 0 9f 29 5a
        E 0 85 47 64
        E 0 8e 47 64
        E 0 95 47 64
        E 0 9e 47 64
        E 0 85 47 64
        E 0 8e 47 64
        E 0 95 47 64
        E 0 9e 47 64
        E 0 85 47 64
        E 0 8e 47 64
        E 1 95 44 64
        E 0 9e 44 64
        E 0 85 44 64
        E 0 8e 44 64
        E 0 8f 29 64
        E 0 95 41 63
        E 0 9e 41 63
        E 0 9f 2f 5a
        E 0 85 41 63
        E 0 8e 41 63
        E 0 95 41 63
        E 0 9e 41 63
        E 0 85 41 63
        E 0 8e 41 63
        E 0 8f 2f 64
        E 0 95 41 63
        E 0 9e 41 63
        E 0 9f 2f 5a
        E 0 85 41 63
        E 0 8e 41 63
        E 0 95 42 64
        E 0 9e 42 64
        E 0 85 42 64
        E 0 8e 42 64
        E 0 95 44 64
        E 0 9e 44 64
        E 0 85 44 64
        E 0 8e 44 64
        E 0 95 44 64
        E 0 9e 44 64
        E 0 85 44 64
        E 0 8e 44 64
        E 0 95 45 64
        E 0 9e 45 64
        E 0 85 45 64
        E 0 8e 45 64
        E 0 8f 2f 64
        E 0 95 42 64
        E 0 9e 42 64
        E 0 9f 2d 5a
        E 0 85 42 64
        E 0 8e 42 64
        E 0 95 42 64
        E 0 9e 42 64
        E 0 85 42 64
        E 0 8e 42 64
        E 0 95 49 64
        E 0 9e 49 64
        E 0 85 49 64
        E 0 8e 49 64
        E 1 95 49 64
        E 0 9e 49 64
        E 19202 85 49 64
        E 0 8e 49 64
        E 0 95 49 64
        E 0 9e 49 64
        E 0 85 49 64
        E 0 8e 49 64
        E 0 8f 2d 64
        E 0 95 45 64
        E 0 9e 45 64
        E 0 9f 2d 5a
        E 0 85 45 64
        E 0 8e 45 64
        E 1 95 45 64
        E 0 9e 45 64
        E 0 85 45 64
        E 0 8e 45 64
        E 0 95 45 64
        E 0 9e 45 64
        E 0 85 45 64
        E 0 8e 45 64
        E 0 95 45 64
        E 0 9e 45 64
        E 0 85 45 64
        E 0 8e 45 64
        E 0 95 47 64
        E 0 9e 47 64
        E 0 85 47 64
        E 0 8e 47 64
        E 0 8f 2d 64
        E 0 95 44 64
        E 0 9e 44 64
        E 0 9f 32 5a
        E 0 85 44 64
        E 0 8e 44 64
        E 0 95 44 64
        E 0 9e 44 64
        E 0 85 44 64
        E 0 8e 44 64
        E 0 95 47 64
        E 0 9e 47 64
        E 0 85 47 64
        E 0 8e 47 64
        E 0 95 4a 64
        E 0 9e 4a 64
        E 0 85 4a 64
        E 0 8e 4a 64
        E 0 95 49 64
        E 0 9e 49 64
        E 0 85 49 64
        E 0 8e 49 64
        E 0 8f 32 64
        E 0 95 45 64
        E 1 9e 45 64
        E 0 9f 31 5a
        E 0 85 45 64
        E 0 8e 45 64
        E 0 95 45 64
        E 0 9e 45 64
        E 0 85 45 64
        E 0 8e 45 64
        E 0 95 45 64
        E 0 9e 45 64
        E 0 85 45 64
        E 0 8e 45 64
        E 0 95 40 64
        E 0 9e 40 64
        E 0 85 40 64
        E 0 8e 40 64
        E 0 95 40 64
        E 0 9e 40 64
        E 0 85 40 64
        E 0 8e 40 64
        E 0 95 40 64
        E 0 9e 40 64
        E 38403 85 40 64
        E 0 8e 40 64
        E 0 8f 31 64
        E 0 95 43 64
        E 0 9e 43 64
        E 0 9f 31 5a
        E 0 85 43 64
        E 0 8e 43 64
        E 0 95 43 64
        E 0 9e 43 64
        E 0 85 43 64
        E 0 8e 43 64
        E 0 95 43 64
        E 0 9e 43 64
        E 0 85 43 64
        E 0 8e 43 64
        E 0 95 42 64
        E 0 9e 42 64
        E 0 85 42 64
        E 0 8e 42 64
        E 0 8f 31 64
        E 0 95 3e 64
        E 0 9e 3e 64
        E 0 9f 32 5a
        E 0 85 3e 64
        E 0 8e 3e 64
        E 0 95 3e 64
        E 0 9e 3e 64
        E 0 85 3e 64
        E 0 8e 3e 64
        E 0 95 45 64
        E 0 9e 45 64
        E 0 85 45 64
        E 0 8e 45 64
        E 0 95 45 64
        E 0 9e 45 64
        E 0 85 45 64
        E 0 8e 45 64
        E 0 95 45 64
        E 0 9e 45 64
        E 0 85 45 64
        E 0 8e 45 64
        E 0 8f 32 64
        E 0 95 42 64
        E 0 9e 42 64
        E 0 9f 30 5a
        E 0 85 42 64
        E 0 8e 42 64
        E 0 95 42 64
        E 0 9e 42 64
        E 0 85 42 64
        E 0 8e 42 64
        E 1 95 45 64
        E 0 9e 45 64
        E 0 85 45 64
        E 0 8e 45 64
        E 0 95 47 64
        E 0 9e 47 64
        E 0 85 47 64
        E 0 8e 47 64
        E 0 95 48 64
        E 0 9e 48 64
        E 0 85 48 64
        E 0 8e 48 64
        E 0 95 48 64
        E 0 9e 48 64
        E 0 85 48 64
        E 0 8e 48 64
        E 0 95 47 64
        E 0 9e 47 64
        E 0 85 47 64
        E 0 8e 47 64
        E 0 8f 30 64
        E 0 95 43 64
        E 0 9e 43 64
        E 0 9f 2b 5a
        E 0 85 43 64
        E 0 8e 43 64
        E 0 95 3e 64
        E 0 9e 3e 64
        E 0 85 3e 64
        E 0 8e 3e 64
        E 0 95 3e 64
        E 0 9e 3e 64
        E 0 85 3e 64
        E 0 8e 3e 64
        E 0 95 3e 64
        E 1 9e 3e 64
        E 0 85 3e 64
        E 0 8e 3e 64
        E 0 8f 2b 64
        E 0 95 43 64
        E 0 9e 43 64
        E 2 9f 2b 5a
        E 0 85 43 64
        E 0 8e 43 64
        E 0 95 43 64
        E 0 9e 43 64
        E 0 85 43 64
        E 0 8e 43 64
        E 0 95 47 64
        E 0 9e 47 64
        E 0 85 47 64
        E 0 8e 47 64
        E 0 95 47 64
        E 0 9e 47 64
        E 0 85 47 64
        E 0 8e 47 64
        E 0 95 43 64
        E 0 9e 43 64
        E 0 85 43 64
        E 0 8e 43 64
        E 0 95 42 64
        E 0 9e 42 64
        E 0 85 42 64
        E 0 8e 42 64
        E 0 95 43 64
        E 0 9e 43 64
        E 0 85 43 64
        E 0 8e 43 64
        E 0 8f 2b 64
        E 0 95 40 64
        E 0 9e 40 64
        E 0 9f 30 5a
        E 0 85 40 64
        E 0 8e 40 64
        E 0 95 40 64
        E 0 9e 40 64
        E 38404 85 40 64
        E 0 8e 40 64
        E 0 95 48 64
        E 0 9e 48 64
        E 0 85 48 64
        E 0 8e 48 64
        E 0 95 42 64
        E 0 9e 42 64
        E 0 85 42 64
        E 0 8e 42 64
        E 0 95 43 64
        E 1 9e 43 64
        E 0 85 43 64
        E 0 8e 43 64
        E 0 8f 30 64
        E 0 95 3e 64
        E 0 9e 3e 64
        E 0 9f 32 5a
        E 0 85 3e 64
        E 0 8e 3e 64
        E 0 95 3e 64
        E 0 9e 3e 64
        E 0 85 3e 64
        E 0 8e 3e 64
        E 0 8f 32 64
        E 0 9f 2b 5a
        E 0 8f 2b 64
        E 0 9f 2b 5a
        E 0 9a 43 64
        E 0 9e 43 64
        E 0 8a 43 64
        E 0 8e 43 64
        E 0 9a 47 64
        E 0 9e 47 64
        E 0 8a 47 64
        E 0 8e 47 64
        E 0 9a 47 64
        E 0 9e 47 64
        E 0 8a 47 64
        E 0 8e 47 64
        E 0 9a 47 64
        E 0 9e 47 64
        E 0 8a 47 64
        E 0 8e 47 64
        E 0 9a 48 64
        E 0 9e 48 64
        E 0 8a 48 64
        E 0 8e 48 64
        E 1 8f 2b 64
        E 0 9a 43 64
        E 0 9e 43 64
        E 0 9f 30 5a
        E 0 8a 43 64
        E 0 8e 43 64
        E 0 9a 40 64
        E 0 9e 40 64
        E 0 8a 40 64
        E 0 8e 40 64
        E 0 9a 40 64
        E 0 9e 40 64
        E 0 8a 40 64
        E 0 8e 40 64
        E 0 9a 41 64
        E 0 9e 41 64
        E 0 8a 41 64
        E 0 8e 41 64
        E 0 8f 30 64
        E 0 9a 43 64
        E 0 9e 43 64
        E 0 9f 30 5a
        E 0 8a 43 64
        E 0 8e 43 64
        E 0 9a 43 64
        E 0 9e 43 64
        E 0 8a 43 64
        E 0 8e 43 64
        E 0 9a 46 66
        E 0 9e 46 66
        E 0 8a 46 66
        E 0 8e 46 66
        E 0 9a 46 66
        E 0 9e 46 66
        E 0 8a 46 66
        E 0 8e 46 66
        E 0 9a 43 64
        E 0 9e 43 64
        E 0 8a 43 64
        E 0 8e 43 64
        E 0 9a 43 64
        E 0 9e 43 64
        E 0 8a 43 64
        E 0 8e 43 64
        E 0 9a 45 64
        E 1 9e 45 64
        E 0 8a 45 64
        E 0 8e 45 64
        E 0 8f 30 64
        E 0 9a 41 64
        E 0 9e 41 64
        E 0 9f 35 5a
        E 0 8a 41 64
        E 0 8e 41 64
        E 38402 9a 45 64
        E 0 9e 45 64
        E 0 8a 45 64
        E 0 8e 45 64
        E 0 9a 45 64
        E 0 9e 45 64
        E 0 8a 45 64
        E 0 8e 45 64
        E 1 9a 43 64
        E 0 9e 43 64
        E 0 8a 43 64
        E 0 8e 43 64
        E 0 8f 35 64
        E 0 9a 43 64
        E 0 9e 43 64
        E 0 9f 2f 5a
        E 0 8a 43 64
        E 0 8e 43 64
        E 0 9a 43 64
        E 0 9e 43 64
        E 0 8a 43 64
        E 0 8e 43 64
        E 0 9a 3e 64
        E 0 9e 3e 64
        E 0 8a 3e 64
        E 0 8e 3e 64
        E 0 8f 2f 64
        E 0 9a 41 64
        E 0 9e 41 64
        E 0 9f 2f 5a
        E 0 8a 41 64
        E 0 8e 41 64
        E 0 9a 41 64
        E 0 9e 41 64
        E 0 8a 41 64
        E 0 8e 41 64
        E 0 9a 41 64
        E 0 9e 41 64
        E 0 8a 41 64
        E 0 8e 41 64
        E 0 9a 40 64
        E 0 9e 40 64
        E 0 8a 40 64
        E 0 8e 40 64
        E 0 8f 2f 64
        E 0 9a 40 64
        E 0 9e 40 64
        E 0 9f 2e 5b
        E 0 8a 40 64
        E 0 8e 40 64
        E 0 9a 40 64
        E 0 9e 40 64
        E 0 8a 40 64
        E 0 8e 40 64
        E 0 9a 43 64
        E 0 9e 43 64
        E 0 8a 43 64
        E 0 8e 43 64
        E 0 9a 43 64
        E 0 9e 43 64
        E 0 8a 43 64
        E 0 8e 43 64
        E 0 9a 45 64
        E 0 9e 45 64
        E 0 8a 45 64
        E 0 8e 45 64
        E 0 8f 2e 66
        E 0 9a 46 66
        E 0 9e 46 66
        E 1 9f 2e 5b
        E 0 8a 46 66
        E 0 8e 46 66
        E 0 95 43 64
        E 0 9e 43 64
        E 0 85 43 64
        E 0 8e 43 64
        E 0 95 43 64
        E 0 9e 43 64
        E 0 85 43 64
        E 0 8e 43 64
        E 0 95 43 64
        E 0 9e 43 64
        E 0 85 43 64
        E 0 8e 43 64
        E 0 95 43 64
        E 0 9e 43 64
        E 0 85 43 64
        E 0 8e 43 64
        E 0 95 43 64
        E 0 9e 43 64
        E 0 85 43 64
        E 0 8e 43 64
        E 0 8f 2e 66
        E 0 95 48 64
        E 0 9e 48 64
        E 0 9f 33 5b
        E 0 85 48 64
        E 0 8e 48 64
        E 0 95 48 64
        E 0 9e 48 64
        E 0 85 48 64
        E 0 8e 48 64
        E 0 95 48 64
        E 0 9e 48 64
        E 0 85 48 64
        E 0 8e 48 64
        E 0 95 48 64
        E 0 9e 48 64
        E 0 85 48 64
        E 0 8e 48 64
        E 0 95 43 64
        E 0 9e 43 64
        E 0 85 43 64
        E 0 8e 43 64
        E 0 95 43 64
        E 0 9e 43 64
        E 0 85 43 64
        E 0 8e 43 64
        E 0 95 42 64
        E 0 9e 42 64
        E 1 85 42 64
        E 0 8e 42 64
        E 0 8f 33 66
        E 0 95 45 64
        E 0 9e 45 64
        E 0 9f 32 5a
        E 0 85 45 64
        E 0 8e 45 64
        E 0 9a 3e 64
        E 0 9e 3e 64
        E 38402 8a 3e 64
        E 0 8e 3e 64
        E 0 9a 42 64
        E 0 9e 42 64
        E 0 8a 42 64
        E 0 8e 42 64
        E 1 9a 42 64
        E 0 9e 42 64
        E 0 8a 42 64
        E 0 8e 42 64
        E 0 9a 45 64
        E 0 9e 45 64
        E 0 8a 45 64
        E 0 8e 45 64
        E 0 8f 32 64
        E 0 9a 3e 64
        E 0 9e 3e 64
        E 0 9f 32 5a
        E 0 8a 3e 64
        E 0 8e 3e 64
        E 0 9a 3e 64
        E 0 9e 3e 64
        E 0 8a 3e 64
        E 0 8e 3e 64
        E 0 8f 32 64
        E 0 9a 45 64
        E 0 9e 45 64
        E 0 9f 35 5a
        E 0 8a 45 64
        E 0 8e 45 64
        E 0 9a 45 64
        E 0 9e 45 64
        E 0 8a 45 64
        E 0 8e 45 64
        E 0 9a 45 64
        E 0 9e 45 64
        E 0 8a 45 64
        E 0 8e 45 64
        E 0 9a 45 64
        E 0 9e 45 64
        E 0 8a 45 64
        E 0 8e 45 64
        E 0 9a 44 64
        E 0 9e 44 64
        E 0 8a 44 64
        E 0 8e 44 64
        E 0 8f 35 64
        E 0 9a 47 64
        E 0 9e 47 64
        E 1 9f 34 5a
        E 0 8a 47 64
        E 0 8e 47 64
        E 0 9a 47 64
        E 0 9e 47 64
        E 0 8a 47 64
        E 0 8e 47 64
        E 0 95 40 64
        E 0 9e 40 64
        E 0 85 40 64
        E 0 8e 40 64
        E 0 95 40 64
        E 0 9e 40 64
        E 0 85 40 64
        E 0 8e 40 64
        E 0 95 40 64
        E 0 9e 40 64
        E 0 85 40 64
        E 0 8e 40 64
        E 0 95 40 64
        E 0 9e 40 64
        E 0 85 40 64
        E 0 8e 40 64
        E 0 95 42 64
        E 0 9e 42 64
        E 0 85 42 64
        E 0 8e 42 64
        E 0 8f 34 64
        E 1 95 44 64
        E 0 9e 44 64
        E 0 9f 34 5a
        E 0 85 44 64
        E 0 8e 44 64
        E 0 95 44 64
        E 0 9e 44 64
        E 0 85 44 64
        E 0 8e 44 64
        E 0 95 44 64
        E 0 9e 44 64
        E 0 85 44 64
        E 0 8e 44 64
        E 0 95 47 64
        E 0 9e 47 64
        E 0 85 47 64
        E 0 8e 47 64
        E 0 95 47 64
        E 0 9e 47 64
        E 0 85 47 64
        E 0 8e 47 64
        E 0 95 47 64
        E 0 9e 47 64
        E 0 85 47 64
        E 0 8e 47 64
        E 0 95 49 64
        E 0 9e 49 64
        E 0 85 49 64
        E 0 8e 49 64
        E 0 8f 34 64
        E 0 95 45 64
        E 0 9e 45 64
        E 0 9f 31 5a
        E 0 85 45 64
        E 0 8e 45 64
        E 0 95 40 64
        E 0 9e 40 64
        E 0 85 40 64
        E 0 8e 40 64
        E 0 95 40 64
        E 0 9e 40 64
        E 38403 85 40 64
        E 0 8e 40 64
        E 0 95 40 64
        E 1 9e 40 64
        E 0 85 40 64
        E 0 8e 40 64
        E 0 95 40 64
        E 0 9e 40 64
        E 0 85 40 64
        E 0 8e 40 64
        E 0 95 40 64
        E 0 9e 40 64
        E 0 85 40 64
        E 0 8e 40 64
        E 0 8f 31 64
        E 0 95 45 64
        E 0 9e 45 64
        E 0 9f 31 5a
        E 0 85 45 64
        E 0 8e 45 64
        E 0 9a 40 64
        E 0 9e 40 64
        E 0 8a 40 64
        E 0 8e 40 64
        E 0 9a 43 64
        E 0 9e 43 64
        E 0 8a 43 64
        E 0 8e 43 64
        E 0 9a 42 64
        E 0 9e 42 64
        E 0 8a 42 64
        E 0 8e 42 64
        E 0 8f 31 64
        E 0 9a 42 64
        E 0 9e 42 64
        E 0 9f 32 5a
        E 0 8a 42 64
        E 0 8e 42 64
        E 0 9a 42 64
        E 0 9e 42 64
        E 0 8a 42 64
        E 0 8e 42 64
        E 0 9a 42 64
        E 1 9e 42 64
        E 0 8a 42 64
        E 0 8e 42 64
        E 0 95 45 64
        E 0 9e 45 64
        E 0 85 45 64
        E 0 8e 45 64
        E 0 8f 32 64
        E 0 95 3e 64
        E 0 9e 3e 64
        E 0 9f 32 5a
        E 0 85 3e 64
        E 0 8e 3e 64
        E 0 95 3e 64
        E 0 9e 3e 64
        E 0 85 3e 64
        E 0 8e 3e 64
        E 0 9a 45 64
        E 0 9e 45 64
        E 0 8a 45 64
        E 0 8e 45 64
        E 0 8f 32 64
        E 0 9a 45 64
        E 0 9e 45 64
        E 0 9f 2e 5b
        E 0 8a 45 64
        E 0 8e 45 64
        E 0 9a 43 64
        E 0 9e 43 64
        E 0 8a 43 64
        E 0 8e 43 64
        E 0 9a 43 64
        E 0 9e 43 64
        E 0 8a 43 64
        E 0 8e 43 64
        E 0 9a 3e 64
        E 0 9e 3e 64
        E 0 8a 3e 64
        E 0 8e 3e 64
        E 0 8f 2e 66
        E 0 9a 40 64
        E 0 9e 40 64
        E 1 9f 2d 5a
        E 0 8a 40 64
        E 0 8e 40 64
        E 0 9a 40 64
        E 0 9e 40 64
        E 0 8a 40 64
        E 0 8e 40 64
        E 0 95 45 64
        E 0 9e 45 64
        E 0 85 45 64
        E 0 8e 45 64
        E 0 95 45 64
        E 0 9e 45 64
        E 0 85 45 64
        E 0 8e 45 64
        E 0 95 45 64
        E 0 9e 45 64
        E 0 85 45 64
        E 0 8e 45 64
        E 0 8f 2d 64
        E 0 95 42 64
        E 0 9e 42 64
        E 0 9f 30 5a
        E 0 85 42 64
        E 0 8e 42 64
        E 0 95 42 64
        E 1 9e 42 64
        E 0 85 42 64
        E 0 8e 42 64
        E 0 8f 30 64
        E 0 95 42 64
        E 0 9e 42 64
        E 0 9f 30 5a
        E 0 85 42 64
        E 0 8e 42 64
        E 0 95 42 64
        E 0 9e 42 64
        E 0 85 42 64
        E 0 8e 42 64
        E 1 95 42 64
        E 0 9e 42 64
        E 0 85 42 64
        E 0 8e 42 64
        E 0 95 42 64
        E 0 9e 42 64
        E 0 85 42 64
        E 0 8e 42 64
        E 0 95 43 64
        E 0 9e 43 64
        E 0 85 43 64
        E 0 8e 43 64
        E 0 95 45 64
        E 0 9e 45 64
        E 0 85 45 64
        E 0 8e 45 64
        E 1 95 45 64
        E 0 9e 45 64
        E 1 85 45 64
        E 1 8e 45 64
        E 38402 95 48 64
        E 0 9e 48 64
        E 0 85 48 64
        E 0 8e 48 64
        E 0 8f 30 64
        E 0 95 45 64
        E 0 9e 45 64
        E 0 9f 30 5a
        E 0 85 45 64
        E 0 8e 45 64
        E 0 95 45 64
        E 1 9e 45 64
        E 0 85 45 64
        E 0 8e 45 64
        E 0 95 46 66
        E 0 9e 46 66
        E 0 85 46 66
        E 0 8e 46 66
        E 0 8f 30 64
        E 0 95 43 64
        E 0 9e 43 64
        E 0 9f 2e 5b
        E 0 85 43 64
        E 0 8e 43 64
        E 0 95 43 64
        E 0 9e 43 64
        E 0 85 43 64
        E 0 8e 43 64
        E 0 8f 2e 66
        E 0 9f 2e 5b
        E 0 95 3e 64
        E 0 9e 3e 64
        E 0 85 3e 64
        E 0 8e 3e 64
        E 0 95 41 64
        E 0 9e 41 64
        E 0 85 41 64
        E 0 8e 41 64
        E 0 95 41 64
        E 0 9e 41 64
        E 0 85 41 64
        E 0 8e 41 64
        E 0 95 41 64
        E 0 9e 41 64
        E 0 85 41 64
        E 0 8e 41 64
        E 0 95 43 64
        E 0 9e 43 64
        E 0 85 43 64
        E 0 8e 43 64
        E 0 95 44 66
        E 0 9e 44 66
        E 1 85 44 66
        E 0 8e 44 66
        E 0 95 44 66
        E 0 9e 44 66
        E 0 85 44 66
        E 0 8e 44 66
        E 0 95 48 64
        E 0 9e 48 64
        E 0 85 48 64
        E 0 8e 48 64
        E 0 8f 2e 66
        E 0 95 44 66
        E 0 9e 44 66
        E 0 9f 2e 5b
        E 0 85 44 66
        E 0 8e 44 66
        E 0 95 44 66
        E 0 9e 44 66
        E 0 85 44 66
        E 0 8e 44 66
        E 0 95 44 66
        E 0 9e 44 66
        E 0 85 44 66
        E 0 8e 44 66
        E 0 95 43 64
        E 0 9e 43 64
        E 0 85 43 64
        E 0 8e 43 64
        E 0 8f 2e 66
        E 0 95 3f 66
        E 0 9e 3f 66
        E 0 9f 33 5b
        E 0 85 3f 66
        E 0 8e 3f 66
        E 0 95 3f 66
        E 0 9e 3f 66
        E 0 85 3f 66
        E 0 8e 3f 66
        E 0 95 46 66
        E 0 9e 46 66
        E 0 85 46 66
        E 0 8e 46 66
        E 0 95 46 66
        E 1 9e 46 66
        E 0 85 46 66
        E 0 8e 46 66
        E 0 95 48 64
        E 0 9e 48 64
        E 0 85 48 64
        E 0 8e 48 64
        E 0 8f 33 66
        E 0 95 48 64
        E 0 9e 48 64
        E 0 9f 2c 5b
        E 0 85 48 64
        E 0 8e 48 64
        E 0 95 48 64
        E 0 9e 48 64
        E 0 85 48 64
        E 0 8e 48 64
        E 0 95 48 64
        E 0 9e 48 64
        E 0 85 48 64
        E 0 8e 48 64
        E 0 95 44 66
        E 0 9e 44 66
        E 0 85 44 66
        E 0 8e 44 66
        E 0 95 44 66
        E 0 9e 44 66
        E 0 85 44 66
        E 0 8e 44 66
        E 0 95 44 66
        E 0 9e 44 66
        E 0 85 44 66
        E 0 8e 44 66
        E 0 95 43 64
        E 0 9e 43 64
        E 38403 85 43 64
        E 0 8e 43 64
        E 0 8f 2c 66
        E 0 95 3f 66
        E 0 9e 3f 66
        E 0 9f 2e 5b
        E 0 85 3f 66
        E 0 8e 3f 66
        E 0 95 3f 66
        E 0 9e 3f 66
        E 0 85 3f 66
        E 0 8e 3f 66
        E 0 8f 2e 66
        E 0 9f 33 5b
        E 0 8f 33 66
        E 0 95 46 66
        E 0 9e 46 66
        E 0 85 46 66
        E 0 8e 46 66
        E 0 95 46 66
        E 0 9e 46 66
        E 0 85 46 66
        E 0 8e 46 66
        E 0 95 45 64
        E 0 9e 45 64
        E 0 85 45 64
        E 0 8e 45 64
        E 0 95 45 64
        E 0 9e 45 64
        E 0 9f 31 5a
        E 0 85 45 64
        E 0 8e 45 64
        E 0 95 45 64
        E 0 9e 45 64
        E 0 85 45 64
        E 0 8e 45 64
        E 0 95 45 64
        E 0 9e 45 64
        E 0 85 45 64
        E 0 8e 45 64
        E 0 95 46 66
        E 0 9e 46 66
        E 0 85 46 66
        E 0 8e 46 66
        E 0 95 43 64
        E 1 9e 43 64
        E 0 85 43 64
        E 0 8e 43 64
        E 0 95 43 64
        E 0 9e 43 64
        E 0 85 43 64
        E 0 8e 43 64
        E 0 95 41 64
        E 0 9e 41 64
        E 0 85 41 64
        E 0 8e 41 64
        E 0 8f 31 64
        E 0 95 3e 64
        E 0 9e 3e 64
        E 0 9f 32 5a
        E 0 85 3e 64
        E 0 8e 3e 64
        E 0 95 45 64
        E 0 9e 45 64
        E 0 85 45 64
        E 0 8e 45 64
        E 0 95 45 64
        E 0 9e 45 64
        E 0 85 45 64
        E 0 8e 45 64
        E 0 95 45 64
        E 0 9e 45 64
        E 0 85 45 64
        E 0 8e 45 64
        E 0 8f 32 64
        E 0 95 41 64
        E 0 9e 41 64
        E 0 9f 32 5a
        E 0 85 41 64
        E 0 8e 41 64
        E 0 95 41 64
        E 1 9e 41 64
        E 0 85 41 64
        E 0 8e 41 64
        E 0 95 41 64
        E 0 9e 41 64
        E 0 85 41 64
        E 0 8e 41 64
        E 0 95 41 64
        E 0 9e 41 64
        E 0 85 41 64
        E 0 8e 41 64
        E 0 95 41 64
        E 0 9e 41 64
        E 0 85 41 64
        E 0 8e 41 64
        E 0 95 43 64
        E 0 9e 43 64
        E 0 85 43 64
        E 0 8e 43 64
        E 0 95 45 64
        E 0 9e 45 64
        E 0 85 45 64
        E 0 8e 45 64
        E 0 8f 32 64
        E 0 95 3e 64
        E 0 9e 3e 64
        E 0 9f 32 5a
        E 0 85 3e 64
        E 0 8e 3e 64
        E 0 95 3e 64
        E 0 9e 3e 64
        E 38403 85 3e 64
        E 0 8e 3e 64
        E 0 95 45 64
        E 0 9e 45 64
        E 0 85 45 64
        E 0 8e 45 64
        E 0 95 45 64
        E 0 9e 45 64
        E 0 85 45 64
        E 0 8e 45 64
        E 0 95 47 64
        E 0 9e 47 64
        E 0 85 47 64
        E 0 8e 47 64
        E 0 8f 32 64
        E 0 95 47 64
        E 0 9e 47 64
        E 0 9f 2c 5a
        E 0 85 47 64
        E 0 8e 47 64
        E 0 95 47 64
        E 0 9e 47 64
        E 0 85 47 64
        E 0 8e 47 64
        E 0 95 47 64
        E 0 9e 47 64
        E 0 85 47 64
        E 0 8e 47 64
        E 0 95 47 64
        E 0 9e 47 64
        E 0 85 47 64
        E 0 8e 47 64
        E 0 95 48 64
        E 0 9e 48 64
        E 0 85 48 64
        E 0 8e 48 64
        E 0 8f 2c 64
        E 0 95 45 64
        E 1 9e 45 64
        E 0 9f 2d 5a
        E 0 85 45 64
        E 0 8e 45 64
        E 0 95 45 64
        E 0 9e 45 64
        E 0 85 45 64
        E 0 8e 45 64
        E 0 8f 2d 64
        E 0 95 40 64
        E 0 9e 40 64
        E 0 9f 2d 5a
        E 0 85 40 64
        E 0 8e 40 64
        E 0 95 40 64
        E 0 9e 40 64
        E 0 85 40 64
        E 0 8e 40 64
        E 0 95 40 64
        E 0 9e 40 64
        E 0 85 40 64
        E 0 8e 40 64
        E 0 95 40 64
        E 0 9e 40 64
        E 0 85 40 64
        E 0 8e 40 64
        E 0 95 40 64
        E 0 9e 40 64
        E 0 85 40 64
        E 0 8e 40 64
        E 0 95 45 64
        E 0 9e 45 64
        E 0 85 45 64
        E 0 8e 45 64
        E 0 95 45 64
        E 0 9e 45 64
        E 0 85 45 64
        E 0 8e 45 64
        E 0 8f 2d 64
        E 0 95 45 64
        E 0 9e 45 64
        E 0 9f 2d 5a
        E 0 85 45 64
        E 0 8e 45 64
        E 0 95 45 64
        E 0 9e 45 64
        E 0 85 45 64
        E 0 8e 45 64
        E 0 95 45 64
        E 0 9e 45 64
        E 0 85 45 64
        E 0 8e 45 64
        E 1 95 43 64
        E 0 9e 43 64
        E 0 85 43 64
        E 0 8e 43 64
        E 0 95 45 64
        E 0 9e 45 64
        E 0 85 45 64
        E 0 8e 45 64
        E 0 8f 2d 64
        E 0 95 41 64
        E 0 9e 41 64
        E 0 9f 32 5a
        E 0 85 41 64
        E 0 8e 41 64
        E 0 95 45 64
        E 0 9e 45 64
        E 0 85 45 64
        E 0 8e 45 64
        E 0 95 4a 64
        E 0 9e 4a 64
        E 0 85 4a 64
        E 0 8e 4a 64
        E 0 95 48 64
        E 0 9e 48 64
        E 0 85 48 64
        E 0 8e 48 64
        E 0 8f 32 64
        E 0 95 45 64
        E 0 9e 45 64
        E 0 9f 34 5a
        E 0 85 45 64
        E 0 8e 45 64
        E 0 95 45 64
        E 0 9e 45 64
        E 0 85 45 64
        E 0 8e 45 64
        E 0 8f 34 64
        E 0 9a 40 64
        E 0 9e 40 64
        E 0 9f 2d 5a
        E 38403 8a 40 64
        E 0 8e 40 64
        E 0 8f 2d 64
        E 0 9a 40 64
        E 0 9e 40 64
        E 0 9f 2d 5a
        E 0 8a 40 64
        E 0 8e 40 64
        E 0 9a 40 64
        E 0 9e 40 64
        E 0 8a 40 64
        E 0 8e 40 64
        E 0 9a 45 64
        E 0 9e 45 64
        E 0 8a 45 64
        E 0 8e 45 64
        E 0 9a 45 64
        E 0 9e 45 64
        E 0 8a 45 64
        E 0 8e 45 64
        E 0 8f 2d 64
        E 0 9a 41 64
        E 0 9e 41 64
        E 1 9f 32 5a
        E 0 8a 41 64
        E 0 8e 41 64
        E 0 9a 41 64
        E 0 9e 41 64
        E 0 8a 41 64
        E 0 8e 41 64
        E 0 9a 41 64
        E 0 9e 41 64
        E 0 8a 41 64
        E 0 8e 41 64
        E 0 9a 41 64
        E 0 9e 41 64
        E 0 8a 41 64
        E 0 8e 41 64
        E 0 9a 40 64
        E 0 9e 40 64
        E 0 8a 40 64
        E 0 8e 40 64
        E 0 8f 32 64
        E 0 9a 43 64
        E 0 9e 43 64
        E 0 9f 30 5a
        E 0 8a 43 64
        E 0 8e 43 64
        E 0 9a 43 64
        E 0 9e 43 64
        E 0 8a 43 64
        E 0 8e 43 64
        E 0 95 46 66
        E 0 9e 46 66
        E 0 85 46 66
        E 0 8e 46 66
        E 0 95 46 66
        E 0 9e 46 66
        E 0 85 46 66
        E 0 8e 46 66
        E 0 95 45 64
        E 0 9e 45 64
        E 0 85 45 64
        E 0 8e 45 64
        E 0 8f 30 64
        E 0 95 41 64
        E 0 9e 41 64
        E 0 9f 35 5a
        E 0 85 41 64
        E 0 8e 41 64
        E 0 95 41 64
        E 0 9e 41 64
        E 0 85 41 64
        E 0 8e 41 64
        E 0 95 3c 64
        E 0 9e 3c 64
        E 0 85 3c 64
        E 0 8e 3c 64
        E 0 95 3c 64
        E 1 9e 3c 64
        E 0 85 3c 64
        E 0 8e 3c 64
        E 0 95 41 64
        E 0 9e 41 64
        E 0 85 41 64
        E 0 8e 41 64
        E 0 95 41 64
        E 0 9e 41 64
        E 0 85 41 64
        E 0 8e 41 64
        E 0 95 43 64
        E 0 9e 43 64
        E 0 85 43 64
        E 0 8e 43 64
        E 0 8f 35 64
        E 0 95 45 64
        E 0 9e 45 64
        E 0 9f 35 5a
        E 0 85 45 64
        E 0 8e 45 64
        E 0 95 45 64
        E 0 9e 45 64
        E 0 85 45 64
        E 0 8e 45 64
        E 0 95 45 64
        E 0 9e 45 64
        E 0 85 45 64
        E 0 8e 45 64
        E 0 95 46 66
        E 0 9e 46 66
        E 0 85 46 66
        E 0 8e 46 66
        E 0 95 48 64
        E 0 9e 48 64
        E 0 85 48 64
        E 0 8e 48 64
        E 0 95 41 64
        E 0 9e 41 64
        E 0 85 41 64
        E 0 8e 41 64
        E 0 95 41 64
        E 0 9e 41 64
        E 0 85 41 64
        E 0 8e 41 64
        E 0 95 41 64
        E 0 9e 41 64
        E 0 85 41 64
        E 0 8e 41 64
        E 0 8f 35 64
        E 0 95 46 66
        E 0 9e 46 66
        E 0 9f 32 5a
        E 0 85 46 66
        E 0 8e 46 66
        E 0 95 46 66
        E 0 9e 46 66
        E 0 85 46 66
        E 0 8e 46 66
        E 0 95 46 66
        E 0 9e 46 66
        E 0 85 46 66
        E 0 8e 46 66
        E 0 95 46 66
        E 0 9e 46 66
        E 0 85 46 66
        E 0 8e 46 66
        E 0 95 45 64
        E 0 9e 45 64
        E 38405 85 45 64
        E 0 8e 45 64
        E 0 95 44 64
        E 0 9e 44 64
        E 0 85 44 64
        E 0 8e 44 64
        E 0 95 47 64
        E 0 9e 47 64
        E 0 85 47 64
        E 0 8e 47 64
        E 0 95 47 64
        E 0 9e 47 64
        E 0 85 47 64
        E 0 8e 47 64
        E 0 95 48 64
        E 0 9e 48 64
        E 0 85 48 64
        E 0 8e 48 64
        E 0 8f 32 64
        E 1 95 45 64
        E 0 9e 45 64
        E 0 9f 30 5a
        E 0 85 45 64
        E 0 8e 45 64
        E 0 95 45 64
        E 0 9e 45 64
        E 0 85 45 64
        E 0 8e 45 64
        E 0 95 45 64
        E 0 9e 45 64
        E 0 85 45 64
        E 0 8e 45 64
        E 1 8f 30 64
        E 0 95 42 64
        E 0 9e 42 64
        E 0 9f 33 5a
        E 0 85 42 64
        E 0 8e 42 64
        E 0 95 42 64
        E 0 9e 42 64
        E 0 85 42 64
        E 0 8e 42 64
        E 1 95 45 64
        E 0 9e 45 64
        E 0 85 45 64
        E 0 8e 45 64
        E 0 95 45 64
        E 0 9e 45 64
        E 0 85 45 64
        E 0 8e 45 64
        E 0 95 43 64
        E 0 9e 43 64
        E 0 85 43 64
        E 0 8e 43 64
        E 0 8f 33 64
        E 0 95 40 64
        E 0 9e 40 64
        E 0 9f 34 5a
        E 0 85 40 64
        E 0 8e 40 64
        E 0 95 47 64
        E 0 9e 47 64
        E 0 85 47 64
        E 0 8e 47 64
        E 0 95 43 64
        E 0 9e 43 64
        E 0 85 43 64
        E 1 8e 43 64
        E 0 95 43 64
        E 0 9e 43 64
        E 0 85 43 64
        E 0 8e 43 64
        E 0 95 43 64
        E 0 9e 43 64
        E 0 85 43 64
        E 0 8e 43 64
        E 0 95 45 64
        E 0 9e 45 64
        E 0 85 45 64
        E 0 8e 45 64
        E 0 95 47 64
        E 0 9e 47 64
        E 0 8f 34 64
        E 0 85 47 64
        E 0 8e 47 64
        E 0 9f 34 5a
        E 0 95 40 64
        E 0 9e 40 64
        E 0 85 40 64
        E 0 8e 40 64
        E 1 95 40 64
        E 0 9e 40 64
        E 0 85 40 64
        E 0 8e 40 64
        E 0 95 47 64
        E 0 9e 47 64
        E 0 85 47 64
        E 0 8e 47 64
        E 0 95 47 64
        E 0 9e 47 64
        E 0 85 47 64
        E 0 8e 47 64
        E 0 95 47 64
        E 0 9e 47 64
        E 0 85 47 64
        E 0 8e 47 64
        E 0 95 47 64
        E 0 9e 47 64
        E 0 85 47 64
        E 0 8e 47 64
        E 0 95 49 64
        E 0 9e 49 64
        E 0 85 49 64
        E 0 8e 49 64
        E 0 8f 34 64
        E 0 95 44 64
        E 0 9e 44 64
        E 0 9f 35 59
        E 0 85 44 64
        E 0 8e 44 64
        E 1 95 44 64
        E 0 9e 44 64
        E 0 85 44 64
        E 0 8e 44 64
        E 0 95 44 64
        E 0 9e 44 64
        E 0 85 44 64
        E 0 8e 44 64
        E 0 95 44 64
        E 0 9e 44 64
        E 38402 85 44 64
        E 1 8e 44 64
        E 0 95 44 64
        E 0 9e 44 64
        E 0 85 44 64
        E 0 8e 44 64
        E 0 95 44 64
        E 0 9e 44 64
        E 0 85 44 64
        E 0 8e 44 64
        E 0 95 45 64
        E 0 9e 45 64
        E 0 85 45 64
        E 0 8e 45 64
        E 0 8f 35 63
        E 0 95 42 64
        E 0 9e 42 64
        E 0 9f 36 5a
        E 0 85 42 64
        E 0 8e 42 64
        E 0 95 45 64
        E 0 9e 45 64
        E 0 85 45 64
        E 0 8e 45 64
        E 0 95 45 64
        E 0 9e 45 64
        E 0 85 45 64
        E 0 8e 45 64
        E 0 95 47 64
        E 0 9e 47 64
        E 0 85 47 64
        E 0 8e 47 64
        E 0 8f 36 64
        E 0 95 49 64
        E 0 9e 49 64
        E 0 9f 36 5a
        E 0 85 49 64
        E 0 8e 49 64
        E 0 95 49 64
        E 0 9e 49 64
        E 0 85 49 64
        E 0 8e 49 64
        E 0 95 49 64
        E 0 9e 49 64
        E 0 85 49 64
        E 0 8e 49 64
        E 0 95 45 64
        E 0 9e 45 64
        E 0 85 45 64
        E 0 8e 45 64
        E 0 95 45 64
        E 0 9e 45 64
        E 0 85 45 64
        E 0 8e 45 64
        E 0 95 44 64
        E 0 9e 44 64
        E 1 85 44 64
        E 0 8e 44 64
        E 0 95 42 64
        E 0 9e 42 64
        E 0 85 42 64
        E 0 8e 42 64
        E 0 8f 36 64
        E 0 95 47 64
        E 0 9e 47 64
        E 0 9f 32 5a
        E 0 85 47 64
        E 0 8e 47 64
        E 0 95 42 64
        E 0 9e 42 64
        E 0 85 42 64
        E 0 8e 42 64
        E 0 8f 32 64
        E 0 95 44 64
        E 0 9e 44 64
        E 0 9f 31 5a
        E 0 85 44 64
        E 0 8e 44 64
        E 0 95 44 64
        E 0 9e 44 64
        E 0 85 44 64
        E 0 8e 44 64
        E 0 9a 47 64
        E 0 9e 47 64
        E 0 8a 47 64
        E 0 8e 47 64
        E 0 8f 31 64
        E 0 9a 46 64
        E 0 9e 46 64
        E 0 9f 34 5a
        E 0 8a 46 64
        E 0 8e 46 64
        E 0 9a 46 64
        E 0 9e 46 64
        E 0 8a 46 64
        E 0 8e 46 64
        E 0 9a 42 64
        E 0 9e 42 64
        E 0 8a 42 64
        E 0 8e 42 64
        E 0 9a 42 64
        E 0 9e 42 64
        E 0 8a 42 64
        E 0 8e 42 64
        E 0 9a 42 64
        E 0 9e 42 64
        E 38403 8a 42 64
        E 0 8e 42 64
        E 0 9a 42 64
        E 0 9e 42 64
        E 0 8a 42 64
        E 0 8e 42 64
        E 0 9a 42 64
        E 0 9e 42 64
        E 0 8a 42 64
        E 0 8e 42 64
        E 0 8f 34 64
        E 0 9a 47 64
        E 0 9e 47 64
        E 0 9f 35 59
        E 0 8a 47 64
        E 0 8e 47 64
        E 0 9a 47 64
        E 0 9e 47 64
        E 0 8a 47 64
        E 0 8e 47 64
        E 0 9a 47 64
        E 0 9e 47 64
        E 1 8a 47 64
        E 0 8e 47 64
        E 0 9a 46 64
        E 0 9e 46 64
        E 0 8a 46 64
        E 0 8e 46 64
        E 0 9a 47 64
        E 0 9e 47 64
        E 0 8a 47 64
        E 0 8e 47 64
        E 0 8f 35 63
        E 0 9a 42 64
        E 0 9e 42 64
        E 0 9f 36 5a
        E 0 8a 42 64
        E 0 8e 42 64
        E 0 9a 42 64
        E 0 9e 42 64
        E 0 8a 42 64
        E 0 8e 42 64
        E 0 8f 36 64
        E 0 9f 2f 5a
        E 0 95 3e 64
        E 0 9e 3e 64
        E 0 85 3e 64
        E 0 8e 3e 64
        E 0 8f 2f 64
        E 0 95 42 64
        E 0 9e 42 64
        E 0 9f 2f 5a
        E 0 85 42 64
        E 0 8e 42 64
        E 0 95 42 64
        E 0 9e 42 64
        E 0 85 42 64
        E 0 8e 42 64
        E 0 9a 47 64
        E 0 9e 47 64
        E 0 8a 47 64
        E 0 8e 47 64
        E 0 9a 43 64
        E 0 9e 43 64
        E 0 8a 43 64
        E 0 8e 43 64
        E 0 9a 43 64
        E 0 9e 43 64
        E 0 8a 43 64
        E 0 8e 43 64
        E 0 9a 3e 64
        E 0 9e 3e 64
        E 0 8a 3e 64
        E 0 8e 3e 64
        E 0 8f 2f 64
        E 0 9a 43 64
        E 0 9e 43 64
        E 0 9f 2f 5a
        E 0 8a 43 64
        E 0 8e 43 64
        E 0 9a 43 64
        E 0 9e 43 64
        E 0 8a 43 64
        E 0 8e 43 64
        E 0 9a 43 64
        E 0 9e 43 64
        E 0 8a 43 64
        E 0 8e 43 64
        E 0 9a 45 64
        E 0 9e 45 64
        E 0 8a 45 64
        E 0 8e 45 64
        E 0 9a 41 64
        E 0 9e 41 64
        E 0 8a 41 64
        E 0 8e 41 64
        E 0 8f 2f 64
        E 0 9a 41 64
        E 0 9e 41 64
        E 0 9f 2f 5a
        E 1 8a 41 64
        E 0 8e 41 64
        E 0 9a 41 64
        E 0 9e 41 64
        E 0 8a 41 64
        E 0 8e 41 64
        E 0 9a 41 64
        E 0 9e 41 64
        E 0 8a 41 64
        E 0 8e 41 64
        E 0 9a 41 64
        E 0 9e 41 64
        E 0 8a 41 64
        E 0 8e 41 64
        E 0 9a 40 64
        E 0 9e 40 64
        E 0 8a 40 64
        E 0 8e 40 64
        E 0 8f 2f 64
        E 0 9a 40 64
        E 0 9e 40 64
        E 0 9f 30 5a
        E 0 8a 40 64
        E 0 8e 40 64
        E 0 9a 40 64
        E 0 9e 40 64
        E 0 8a 40 64
        E 0 8e 40 64
        E 38406 8f 30 64
        E 1 9a 40 64
        E 0 9e 40 64
        E 0 9f 30 5a
        E 0 8a 40 64
        E 0 8e 40 64
        E 0 9a 40 64
        E 0 9e 40 64
        E 0 8a 40 64
        E 0 8e 40 64
        E 0 9a 40 64
        E 0 9e 40 64
        E 0 8a 40 64
        E 0 8e 40 64
        E 1 9a 40 64
        E 0 9e 40 64
        E 0 8a 40 64
        E 0 8e 40 64
        E 0 9a 42 64
        E 0 9e 42 64
        E 0 8a 42 64
        E 0 8e 42 64
        E 0 9a 42 64
        E 0 9e 42 64
        E 0 8a 42 64
        E 0 8e 42 64
        E 0 9a 42 64
        E 0 9e 42 64
        E 0 8a 42 64
        E 0 8e 42 64
        E 0 9a 45 64
        E 0 9e 45 64
        E 0 8a 45 64
        E 0 8e 45 64
        E 0 8f 30 64
        E 0 9a 42 64
        E 0 9e 42 64
        E 0 9f 30 5a
        E 0 8a 42 64
        E 0 8e 42 64
        E 1 9a 42 64
        E 0 9e 42 64
        E 0 8a 42 64
        E 0 8e 42 64
        E 0 9a 42 64
        E 0 9e 42 64
        E 0 8a 42 64
        E 0 8e 42 64
        E 0 9a 43 64
        E 0 9e 43 64
        E 0 8a 43 64
        E 0 8e 43 64
        E 0 8f 30 64
        E 0 9a 3e 64
        E 0 9e 3e 64
        E 0 9f 2f 5a
        E 0 8a 3e 64
        E 0 8e 3e 64
        E 0 9a 3e 64
        E 0 9e 3e 64
        E 0 8a 3e 64
        E 0 8e 3e 64
        E 0 9a 43 64
        E 0 9e 43 64
        E 0 8a 43 64
        E 0 8e 43 64
        E 0 9a 43 64
        E 0 9e 43 64
        E 0 8a 43 64
        E 0 8e 43 64
        E 0 9a 45 64
        E 0 9e 45 64
        E 0 8a 45 64
        E 0 8e 45 64
        E 0 8f 2f 64
        E 0 9a 47 64
        E 0 9e 47 64
        E 0 9f 2f 5a
        E 0 8a 47 64
        E 0 8e 47 64
        E 0 9a 47 64
        E 1 9e 47 64
        E 0 8a 47 64
        E 0 8e 47 64
        E 0 9a 47 64
        E 0 9e 47 64
        E 0 8a 47 64
        E 0 8e 47 64
        E 0 8f 2f 64
        E 0 9a 44 64
        E 0 9e 44 64
        E 0 9f 32 5a
        E 0 8a 44 64
        E 0 8e 44 64
        E 0 9a 44 64
        E 0 9e 44 64
        E 0 8a 44 64
        E 0 8e 44 64
        E 0 9a 44 64
        E 0 9e 44 64
        E 0 8a 44 64
        E 0 8e 44 64
        E 0 9a 40 64
        E 0 9e 40 64
        E 0 8a 40 64
        E 0 8e 40 64
        E 0 8f 32 64
        E 0 9a 45 64
        E 0 9e 45 64
        E 0 9f 30 5a
        E 0 8a 45 64
        E 0 8e 45 64
        E 0 9a 45 64
        E 0 9e 45 64
        E 0 8a 45 64
        E 0 8e 45 64
        E 0 9a 48 64
        E 0 9e 48 64
        E 0 8a 48 64
        E 0 8e 48 64
        E 0 9a 48 64
        E 0 9e 48 64
        E 0 8a 48 64
        E 0 8e 48 64
        E 0 9a 45 64
        E 0 9e 45 64
        E 0 8a 45 64
        E 0 8e 45 64
        E 0 9a 45 64
        E 0 9e 45 64
        E 0 8a 45 64
        E 0 8e 45 64
        E 0 9a 43 64
        E 0 9e 43 64
        E 0 8a 43 64
        E 0 8e 43 64
        E 0 8f 30 64
        E 0 9a 40 64
        E 0 9e 40 64
        E 0 9f 2f 5a
        E 0 8a 40 64
        E 0 8e 40 64
        E 0 9a 40 64
        E 0 9e 40 64
        E 38403 8a 40 64
        E 0 8e 40 64
        E 0 8f 2f 64
        E 0 9f 34 5a
        E 0 8f 34 64
        E 0 9a 46 66
        E 0 9e 46 66
        E 0 9f 34 5a
        E 0 8a 46 66
        E 0 8e 46 66
        E 0 9a 46 66
        E 0 9e 46 66
        E 1 8a 46 66
        E 0 8e 46 66
        E 0 9a 45 64
        E 0 9e 45 64
        E 0 8a 45 64
        E 0 8e 45 64
        E 0 8f 34 64
        E 0 9a 45 64
        E 0 9e 45 64
        E 0 9f 31 5a
        E 0 8a 45 64
        E 0 8e 45 64
        E 0 9a 45 64
        E 0 9e 45 64
        E 0 8a 45 64
        E 0 8e 45 64
        E 0 9a 40 64
        E 0 9e 40 64
        E 0 8a 40 64
        E 0 8e 40 64
        E 0 9a 43 64
        E 0 9e 43 64
        E 0 8a 43 64
        E 0 8e 43 64
        E 0 9a 41 64
        E 0 9e 41 64
        E 0 8a 41 64
        E 0 8e 41 64
        E 0 8f 31 64
        E 0 9a 3e 64
        E 0 9e 3e 64
        E 0 9f 32 5a
        E 0 8a 3e 64
        E 0 8e 3e 64
        E 0 8f 32 64
        E 0 9a 41 64
        E 0 9e 41 64
        E 0 9f 32 5a
        E 0 8a 41 64
        E 0 8e 41 64
        E 0 9a 41 64
        E 0 9e 41 64
        E 0 8a 41 64
        E 0 8e 41 64
        E 0 9a 45 64
        E 0 9e 45 64
        E 0 8a 45 64
        E 0 8e 45 64
        E 0 9a 3e 64
        E 0 9e 3e 64
        E 0 8a 3e 64
        E 0 8e 3e 64
        E 1 9a 3e 64
        E 0 9e 3e 64
        E 0 8a 3e 64
        E 0 8e 3e 64
        E 0 9a 45 64
        E 0 9e 45 64
        E 0 8a 45 64
        E 0 8e 45 64
        E 0 8f 32 64
        E 0 9a 45 64
        E 0 9e 45 64
        E 0 9f 32 5a
        E 0 8a 45 64
        E 0 8e 45 64
        E 0 9a 45 64
        E 0 9e 45 64
        E 0 8a 45 64
        E 0 8e 45 64
        E 0 9a 45 64
        E 0 9e 45 64
        E 0 8a 45 64
        E 0 8e 45 64
        E 0 9a 43 64
        E 0 9e 43 64
        E 0 8a 43 64
        E 0 8e 43 64
        E 0 9a 45 64
        E 0 9e 45 64
        E 0 8a 45 64
        E 0 8e 45 64
        E 0 8f 32 64
        E 0 9a 46 66
        E 0 9e 46 66
        E 0 9f 2b 5a
        E 0 8a 46 66
        E 0 8e 46 66
        E 0 8f 2b 64
        E 0 9a 43 64
        E 0 9e 43 64
        E 0 9f 2b 5a
        E 0 8a 43 64
        E 0 8e 43 64
        E 0 9a 43 64
        E 0 9e 43 64
        E 0 8a 43 64
        E 0 8e 43 64
        E 0 9a 43 64
        E 0 9e 43 64
        E 0 8a 43 64
        E 0 8e 43 64
        E 0 9a 43 64
        E 0 9e 43 64
        E 38403 8a 43 64
        E 0 8e 43 64
        E 0 9a 41 64
        E 0 9e 41 64
        E 0 8a 41 64
        E 0 8e 41 64
        E 0 8f 2b 64
        E 0 9a 3e 64
        E 0 9e 3e 64
        E 0 9f 2d 5a
        E 0 8a 3e 64
        E 0 8e 3e 64
        E 1 9a 3e 64
        E 0 9e 3e 64
        E 0 8a 3e 64
        E 0 8e 3e 64
        E 0 8f 2d 64
        E 0 9f 32 5a
        E 0 8f 32 64
        E 0 9f 32 5a
        E 0 95 41 64
        E 0 9e 41 64
        E 0 85 41 64
        E 0 8e 41 64
        E 0 95 3e 64
        E 0 9e 3e 64
        E 0 85 3e 64
        E 0 8e 3e 64
        E 0 95 41 64
        E 0 9e 41 64
        E 0 85 41 64
        E 0 8e 41 64
        E 0 95 41 64
        E 0 9e 41 64
        E 0 85 41 64
        E 0 8e 41 64
        E 0 95 41 64
        E 0 9e 41 64
        E 0 85 41 64
        E 0 8e 41 64
        E 0 8f 32 64
        E 0 95 46 66
        E 0 9e 46 66
        E 0 9f 32 5a
        E 0 85 46 66
        E 0 8e 46 66
        E 0 95 46 66
        E 0 9e 46 66
        E 0 85 46 66
        E 0 8e 46 66
        E 0 95 46 66
        E 0 9e 46 66
        E 0 85 46 66
        E 0 8e 46 66
        E 0 95 48 64
        E 0 9e 48 64
        E 0 85 48 64
        E 0 8e 48 64
        E 0 95 45 64
        E 0 9e 45 64
        E 0 85 45 64
        E 0 8e 45 64
        E 0 95 45 64
        E 0 9e 45 64
        E 0 85 45 64
        E 0 8e 45 64
        E 0 95 43 64
        E 0 9e 43 64
        E 0 85 43 64
        E 0 8e 43 64
        E 0 8f 32 64
        E 0 95 3f 66
        E 0 9e 3f 66
        E 0 9f 33 5b
        E 0 85 3f 66
        E 0 8e 3f 66
        E 0 95 3f 66
        E 0 9e 3f 66
        E 0 85 3f 66
        E 0 8e 3f 66
        E 0 9a 43 64
        E 0 9e 43 64
        E 0 8a 43 64
        E 0 8e 43 64
        E 0 9a 43 64
        E 0 9e 43 64
        E 0 8a 43 64
        E 0 8e 43 64
        E 0 9a 45 64
        E 0 9e 45 64
        E 0 8a 45 64
        E 0 8e 45 64
        E 0 8f 33 66
        E 0 9a 45 64
        E 0 9e 45 64
        E 0 9f 31 5a
        E 0 8a 45 64
        E 0 8e 45 64
        E 0 9a 45 64
        E 0 9e 45 64
        E 0 8a 45 64
        E 0 8e 45 64
        E 0 8f 31 64
        E 0 9a 42 64
        E 0 9e 42 64
        E 1 9f 31 5a
        E 0 8a 42 64
        E 0 8e 42 64
        E 0 9a 42 64
        E 0 9e 42 64
        E 0 8a 42 64
        E 0 8e 42 64
        E 0 9a 43 64
        E 0 9e 43 64
        E 38402 8a 43 64
        E 0 8e 43 64
        E 0 9a 45 64
        E 0 9e 45 64
        E 1 8a 45 64
        E 0 8e 45 64
        E 0 9a 48 64
        E 0 9e 48 64
        E 0 8a 48 64
        E 0 8e 48 64
        E 0 8f 31 64
        E 0 9a 48 64
        E 0 9e 48 64
        E 0 9f 2e 5b
        E 0 8a 48 64
        E 0 8e 48 64
        E 0 9a 46 66
        E 0 9e 46 66
        E 0 8a 46 66
        E 0 8e 46 66
        E 0 9a 43 64
        E 0 9e 43 64
        E 0 8a 43 64
        E 0 8e 43 64
        E 0 9a 43 64
        E 0 9e 43 64
        E 0 8a 43 64
        E 0 8e 43 64
        E 0 8f 2e 66
        E 0 95 46 66
        E 0 9e 46 66
        E 1 9f 33 5b
        E 0 85 46 66
        E 0 8e 46 66
        E 0 95 45 64
        E 0 9e 45 64
        E 0 85 45 64
        E 0 8e 45 64
        E 0 95 45 64
        E 0 9e 45 64
        E 0 85 45 64
        E 0 8e 45 64
        E 0 8f 33 66
        E 0 9f 33 5b
        E 0 95 41 64
        E 0 9e 41 64
        E 0 85 41 64
        E 0 8e 41 64
        E 0 95 41 64
        E 0 9e 41 64
        E 0 85 41 64
        E 0 8e 41 64
        E 0 95 45 64
        E 0 9e 45 64
        E 0 85 45 64
        E 0 8e 45 64
        E 0 95 45 64
        E 0 9e 45 64
        E 0 85 45 64
        E 0 8e 45 64
        E 0 95 46 66
        E 0 9e 46 66
        E 0 8f 33 66
        E 0 85 46 66
        E 0 8e 46 66
        E 0 9f 32 5a
        E 0 95 41 64
        E 0 9e 41 64
        E 1 85 41 64
        E 0 8e 41 64
        E 0 95 41 64
        E 0 9e 41 64
        E 0 85 41 64
        E 0 8e 41 64
        E 0 95 46 66
        E 0 9e 46 66
        E 0 85 46 66
        E 0 8e 46 66
        E 0 95 46 66
        E 0 9e 46 66
        E 0 85 46 66
        E 0 8e 46 66
        E 0 95 46 66
        E 0 9e 46 66
        E 0 85 46 66
        E 0 8e 46 66
        E 0 8f 32 64
        E 0 95 43 64
        E 0 9e 43 64
        E 0 9f 33 5b
        E 0 85 43 64
        E 0 8e 43 64
        E 0 95 43 64
        E 0 9e 43 64
        E 0 85 43 64
        E 0 8e 43 64
        E 0 95 43 64
        E 0 9e 43 64
        E 0 85 43 64
        E 0 8e 43 64
        E 0 95 43 64
        E 0 9e 43 64
        E 0 85 43 64
        E 0 8e 43 64
        E 0 95 43 64
        E 0 9e 43 64
        E 0 85 43 64
        E 0 8e 43 64
        E 0 95 45 64
        E 1 9e 45 64
        E 0 85 45 64
        E 0 8e 45 64
        E 0 95 46 66
        E 0 9e 46 66
        E 0 85 46 66
        E 0 8e 46 66
        E 0 8f 33 66
        E 0 95 41 64
        E 0 9e 41 64
        E 0 9f 35 5a
        E 0 85 41 64
        E 0 8e 41 64
        E 0 8f 35 64
        E 0 9f 2e 5b
        E 0 8f 2e 66
        E 0 9a 41 64
        E 0 9e 41 64
        E 0 9f 2e 5b
        E 0 8a 41 64
        E 0 8e 41 64
        E 0 9a 3e 64
        E 0 9e 3e 64
        E 38403 8a 3e 64
        E 0 8e 3e 64
        E 0 95 46 66
        E 1 9e 46 66
        E 0 85 46 66
        E 0 8e 46 66
        E 0 8f 2e 66
        E 0 95 43 64
        E 0 9e 43 64
        E 0 9f 2f 5a
        E 0 85 43 64
        E 0 8e 43 64
        E 0 95 43 64
        E 0 9e 43 64
        E 0 85 43 64
        E 0 8e 43 64
        E 0 95 43 64
        E 0 9e 43 64
        E 0 85 43 64
        E 0 8e 43 64
        E 0 95 43 64
        E 0 9e 43 64
        E 0 85 43 64
        E 0 8e 43 64
        E 0 8f 2f 64
        E 0 95 40 64
        E 0 9e 40 64
        E 0 9f 30 5a
        E 0 85 40 64
        E 0 8e 40 64
        E 0 95 40 64
        E 0 9e 40 64
        E 0 85 40 64
        E 0 8e 40 64
        E 0 95 43 64
        E 1 9e 43 64
        E 0 85 43 64
        E 0 8e 43 64
        E 0 8f 30 64
        E 0 95 46 66
        E 0 9e 46 66
        E 1 9f 30 5a
        E 0 85 46 66
        E 0 8e 46 66
        E 0 95 46 66
        E 0 9e 46 66
        E 0 85 46 66
        E 0 8e 46 66
        E 0 95 46 66
        E 0 9e 46 66
        E 0 85 46 66
        E 0 8e 46 66
        E 0 95 45 64
        E 0 9e 45 64
        E 0 85 45 64
        E 0 8e 45 64
        E 0 8f 30 64
        E 0 95 45 64
        E 0 9e 45 64
        E 0 9f 31 5a
        E 0 85 45 64
        E 0 8e 45 64
        E 0 95 45 64
        E 0 9e 45 64
        E 0 85 45 64
        E 0 8e 45 64
        E 0 8f 31 64
        E 0 95 45 64
        E 0 9e 45 64
        E 0 9f 31 5a
        E 0 85 45 64
        E 0 8e 45 64
        E 0 95 40 64
        E 0 9e 40 64
        E 0 85 40 64
        E 0 8e 40 64
        E 0 95 40 64
        E 0 9e 40 64
        E 0 85 40 64
        E 0 8e 40 64
        E 0 95 43 64
        E 0 9e 43 64
        E 0 85 43 64
        E 0 8e 43 64
        E 0 95 41 64
        E 0 9e 41 64
        E 0 85 41 64
        E 0 8e 41 64
        E 0 8f 31 64
        E 0 95 3e 64
        E 0 9e 3e 64
        E 0 9f 32 5a
        E 0 85 3e 64
        E 0 8e 3e 64
        E 0 95 3e 64
        E 1 9e 3e 64
        E 0 85 3e 64
        E 0 8e 3e 64
        E 0 95 45 64
        E 0 9e 45 64
        E 0 85 45 64
        E 0 8e 45 64
        E 0 95 43 64
        E 0 9e 43 64
        E 0 85 43 64
        E 0 8e 43 64
        E 0 95 45 64
        E 0 9e 45 64
        E 0 85 45 64
        E 0 8e 45 64
        E 0 8f 32 64
        E 0 95 41 64
        E 0 9e 41 64
        E 0 9f 32 5a
        E 0 85 41 64
        E 0 8e 41 64
        E 0 95 41 64
        E 0 9e 41 64
        E 0 85 41 64
        E 0 8e 41 64
        E 0 9a 45 64
        E 0 9e 45 64
        E 0 8a 45 64
        E 0 8e 45 64
        E 0 9a 44 64
        E 0 9e 44 64
        E 0 8a 44 64
        E 0 8e 44 64
        E 0 9a 45 64
        E 0 9e 45 64
        E 0 8a 45 64
        E 0 8e 45 64
        E 0 8f 32 64
        E 0 9a 40 64
        E 0 9e 40 64
        E 0 9f 34 5a
        E 0 8a 40 64
        E 0 8e 40 64
        E 0 8f 34 64
        E 0 9f 2d 5a
        E 38403 95 48 64
        E 0 9e 48 64
        E 0 85 48 64
        E 0 8e 48 64
        E 0 8f 2d 64
        E 0 95 45 64
        E 1 9e 45 64
        E 0 9f 2d 5a
        E 0 85 45 64
        E 0 8e 45 64
        E 0 95 45 64
        E 0 9e 45 64
        E 0 85 45 64
        E 0 8e 45 64
        E 0 95 45 64
        E 0 9e 45 64
        E 0 85 45 64
        E 0 8e 45 64
        E 0 95 45 64
        E 0 9e 45 64
        E 0 85 45 64
        E 0 8e 45 64
        E 0 95 45 64
        E 0 9e 45 64
        E 0 85 45 64
        E 0 8e 45 64
        E 0 95 45 64
        E 0 9e 45 64
        E 0 85 45 64
        E 0 8e 45 64
        E 0 95 44 64
        E 0 9e 44 64
        E 0 85 44 64
        E 0 8e 44 64
        E 0 8f 2d 64
        E 0 95 47 64
        E 0 9e 47 64
        E 0 9f 34 5a
        E 0 85 47 64
        E 0 8e 47 64
        E 0 95 47 64
        E 0 9e 47 64
        E 0 85 47 64
        E 0 8e 47 64
        E 0 9a 44 64
        E 0 9e 44 64
        E 0 8a 44 64
        E 0 8e 44 64
        E 0 9a 40 64
        E 0 9e 40 64
        E 0 8a 40 64
        E 0 8e 40 64
        E 0 9a 48 64
        E 0 9e 48 64
        E 0 8a 48 64
        E 0 8e 48 64
        E 0 8f 34 64
        E 0 9a 45 64
        E 1 9e 45 64
        E 0 9f 30 5a
        E 0 8a 45 64
        E 0 8e 45 64
        E 0 9a 45 64
        E 0 9e 45 64
        E 0 8a 45 64
        E 0 8e 45 64
        E 0 9a 45 64
        E 0 9e 45 64
        E 1 8a 45 64
        E 0 8e 45 64
        E 0 9a 45 64
        E 0 9e 45 64
        E 0 8a 45 64
        E 0 8e 45 64
        E 0 9a 45 64
        E 0 9e 45 64
        E 0 8a 45 64
        E 0 8e 45 64
        E 0 9a 45 64
        E 0 9e 45 64
        E 0 8a 45 64
        E 0 8e 45 64
        E 0 9a 43 64
        E 0 9e 43 64
        E 0 8a 43 64
        E 0 8e 43 64
        E 0 8f 30 64
        E 0 9a 40 64
        E 0 9e 40 64
        E 0 9f 2f 5a
        E 0 8a 40 64
        E 0 8e 40 64
        E 0 8f 2f 64
        E 0 9f 34 5a
        E 0 8f 34 64
        E 0 95 44 64
        E 0 9e 44 64
        E 0 9f 34 5a
        E 0 85 44 64
        E 0 8e 44 64
        E 0 95 40 64
        E 0 9e 40 64
        E 0 85 40 64
        E 0 8e 40 64
        E 0 95 40 64
        E 0 9e 40 64
        E 0 85 40 64
        E 0 8e 40 64
        E 0 95 49 64
        E 0 9e 49 64
        E 38403 85 49 64
        E 0 8e 49 64
        E 0 8f 34 64
        E 0 95 45 64
        E 0 9e 45 64
        E 0 9f 2d 5a
        E 0 85 45 64
        E 0 8e 45 64
        E 0 95 45 64
        E 0 9e 45 64
        E 0 85 45 64
        E 0 8e 45 64
        E 0 8f 2d 64
        E 0 9b 3d 64
        E 0 9e 49 64
        E 0 9f 2d 5a
        E 0 8b 3d 64
        E 0 8e 49 64
        E 0 9b 39 64
        E 0 9e 45 64
        E 0 8b 39 64
        E 0 8e 45 64
        E 0 9b 39 64
        E 0 9e 45 64
        E 0 8b 39 64
        E 0 8e 45 64
        E 0 9b 39 64
        E 0 9e 45 64
        E 0 8b 39 64
        E 0 8e 45 64
        E 0 9b 39 64
        E 0 9e 45 64
        E 0 8b 39 64
        E 0 8e 45 64
        E 0 8f 2d 64
        E 0 9b 36 64
        E 0 9e 42 64
        E 0 9f 32 5a
        E 0 8b 36 64
        E 0 8e 42 64
        E 0 9b 36 64
        E 0 9e 42 64
        E 0 8b 36 64
        E 0 8e 42 64
        E 0 9b 39 64
        E 0 9e 45 64
        E 0 8b 39 64
        E 0 8e 45 64
        E 0 9b 39 64
        E 0 9e 45 64
        E 1 8b 39 64
        E 0 8e 45 64
        E 0 9b 3b 64
        E 0 9e 47 64
        E 0 8b 3b 64
        E 0 8e 47 64
        E 0 9b 3c 64
        E 0 9e 48 64
        E 0 8b 3c 64
        E 0 8e 48 64
        E 0 9b 3c 64
        E 0 9e 48 64
        E 0 8b 3c 64
        E 0 8e 48 64
        E 0 9b 3c 64
        E 0 9e 48 64
        E 0 8b 3c 64
        E 0 8e 48 64
        E 0 8f 32 64
        E 0 9b 39 64
        E 0 9e 45 64
        E 0 9f 32 5a
        E 0 8b 39 64
        E 0 8e 45 64
        E 0 9b 39 64
        E 0 9e 45 64
        E 0 8b 39 64
        E 0 8e 45 64
        E 0 9b 39 64
        E 0 9e 45 64
        E 0 8b 39 64
        E 0 8e 45 64
        E 0 9b 3b 64
        E 0 9e 47 64
        E 0 8b 3b 64
        E 0 8e 47 64
        E 0 8f 32 64
        E 0 9b 37 64
        E 0 9e 43 64
        E 0 9f 37 5a
        E 0 8b 37 64
        E 0 8e 43 64
        E 1 9b 37 64
        E 0 9e 43 64
        E 0 8b 37 64
        E 0 8e 43 64
        E 0 9b 37 64
        E 0 9e 43 64
        E 0 8b 37 64
        E 0 8e 43 64
        E 0 9b 37 64
        E 0 9e 43 64
        E 0 8b 37 64
        E 0 8e 43 64
        E 0 9b 39 64
        E 0 9e 45 64
        E 0 8b 39 64
        E 0 8e 45 64
        E 0 8f 37 64
        E 0 9b 3b 64
        E 0 9e 47 64
        E 0 9f 37 5a
        E 0 8b 3b 64
        E 0 8e 47 64
        E 0 9b 3b 64
        E 0 9e 47 64
        E 0 8b 3b 64
        E 0 8e 47 64
        E 0 9b 3b 64
        E 0 9e 47 64
        E 0 8b 3b 64
        E 0 8e 47 64
        E 0 9b 3d 64
        E 0 9e 49 64
        E 0 8b 3d 64
        E 0 8e 49 64
        E 0 9b 3e 64
        E 0 9e 4a 64
        E 0 8b 3e 64
        E 0 8e 4a 64
        E 0 8f 37 64
        E 0 9b 39 64
        E 0 9e 45 64
        E 0 9f 39 5a
        E 0 8b 39 64
        E 0 8e 45 64
        E 0 9b 39 64
        E 0 9e 45 64
        E 38403 8b 39 64
        E 1 8e 45 64
        E 0 8f 39 64
        E 0 9f 32 5a
        E 0 9b 32 64
        E 0 9e 3e 64
        E 0 8b 32 64
        E 0 8e 3e 64
        E 0 8f 32 64
        E 0 9b 36 64
        E 0 9e 42 64
        E 0 9f 32 5a
        E 0 8b 36 64
        E 0 8e 42 64
        E 0 9b 36 64
        E 0 9e 42 64
        E 0 8b 36 64
        E 0 8e 42 64
        E 1 9b 36 64
        E 0 9e 42 64
        E 0 8b 36 64
        E 0 8e 42 64
        E 0 9b 37 64
        E 0 9e 43 64
        E 0 8b 37 64
        E 0 8e 43 64
        E 0 9b 39 64
        E 0 9e 45 64
        E 0 8b 39 64
        E 0 8e 45 64
        E 0 9b 39 64
        E 0 9e 45 64
        E 0 8b 39 64
        E 0 8e 45 64
        E 0 8f 32 64
        E 0 9b 39 64
        E 0 9e 45 64
        E 0 9f 32 5a
        E 0 8b 39 64
        E 0 8e 45 64
        E 0 9b 39 64
        E 0 9e 45 64
        E 0 8b 39 64
        E 0 8e 45 64
        E 0 9b 3c 64
        E 0 9e 48 64
        E 0 8b 3c 64
        E 0 8e 48 64
        E 0 9b 3c 64
        E 0 9e 48 64
        E 0 8b 3c 64
        E 0 8e 48 64
        E 0 9b 3b 64
        E 0 9e 47 64
        E 0 8b 3b 64
        E 0 8e 47 64
        E 0 8f 32 64
        E 0 9b 3b 64
        E 0 9e 47 64
        E 0 9f 33 5a
        E 0 8b 3b 64
        E 0 8e 47 64
        E 0 9b 3b 64
        E 0 9e 47 64
        E 0 8b 3b 64
        E 0 8e 47 64
        E 0 8f 33 64
        E 0 9b 3b 64
        E 0 9e 47 64
        E 0 9f 33 5a
        E 0 8b 3b 64
        E 0 8e 47 64
        E 1 9b 3b 64
        E 0 9e 47 64
        E 0 8b 3b 64
        E 0 8e 47 64
        E 0 9b 3b 64
        E 0 9e 47 64
        E 0 8b 3b 64
        E 0 8e 47 64
        E 0 9b 3b 64
        E 0 9e 47 64
        E 0 8b 3b 64
        E 0 8e 47 64
        E 0 9b 3c 64
        E 0 9e 48 64
        E 0 8b 3c 64
        E 0 8e 48 64
        E 0 9b 39 64
        E 0 9e 45 64
        E 0 8b 39 64
        E 0 8e 45 64
        E 0 9b 39 64
        E 0 9e 45 64
        E 0 8b 39 64
        E 0 8e 45 64
        E 0 9b 37 64
        E 0 9e 43 64
        E 0 8b 37 64
        E 0 8e 43 64
        E 0 9b 36 64
        E 0 9e 42 64
        E 0 8b 36 64
        E 0 8e 42 64
        E 0 8f 33 64
        E 0 9b 37 64
        E 0 9e 43 64
        E 0 9f 34 5a
        E 0 8b 37 64
        E 0 8e 43 64
        E 0 9b 37 64
        E 0 9e 43 64
        E 0 8b 37 64
        E 0 8e 43 64
        E 0 9b 3b 64
        E 0 9e 47 64
        E 0 8b 3b 64
        E 0 8e 47 64
        E 0 9b 3b 64
        E 0 9e 47 64
        E 0 8b 3b 64
        E 0 8e 47 64
        E 0 9b 3b 64
        E 0 9e 47 64
        E 38403 8b 3b 64
        E 0 8e 47 64
        E 0 9b 3a 64
        E 0 9e 46 64
        E 0 8b 3a 64
        E 0 8e 46 64
        E 0 9b 3b 64
        E 0 9e 47 64
        E 0 8b 3b 64
        E 0 8e 47 64
        E 0 8f 34 64
        E 0 9b 36 64
        E 0 9e 42 64
        E 0 9f 36 5a
        E 0 8b 36 64
        E 0 8e 42 64
        E 0 8f 36 64
        E 0 9f 2f 5a
        E 0 9a 47 64
        E 0 9e 47 64
        E 0 8a 47 64
        E 0 8e 47 64
        E 0 8f 2f 64
        E 0 9a 41 63
        E 0 9e 41 63
        E 0 9f 2f 5a
        E 0 8a 41 63
        E 0 8e 41 63
        E 0 9a 41 63
        E 0 9e 41 63
        E 0 8a 41 63
        E 0 8e 41 63
        E 0 9a 45 64
        E 0 9e 45 64
        E 0 8a 45 64
        E 0 8e 45 64
        E 0 8f 2f 64
        E 1 9a 42 64
        E 0 9e 42 64
        E 0 9f 31 5a
        E 0 8a 42 64
        E 0 8e 42 64
        E 0 9a 42 64
        E 0 9e 42 64
        E 0 8a 42 64
        E 0 8e 42 64
        E 0 8f 31 64
        E 0 9f 2a 5a
        E 0 9b 3d 64
        E 0 9e 49 64
        E 0 8b 3d 64
        E 0 8e 49 64
        E 0 8f 2a 64
        E 0 9b 39 64
        E 0 9e 45 64
        E 0 9f 2a 5a
        E 0 8b 39 64
        E 0 8e 45 64
        E 0 9b 39 64
        E 0 9e 45 64
        E 0 8b 39 64
        E 0 8e 45 64
        E 0 9b 39 64
        E 0 9e 45 64
        E 0 8b 39 64
        E 0 8e 45 64
        E 0 9b 38 64
        E 0 9e 44 64
        E 0 8b 38 64
        E 0 8e 44 64
        E 0 8f 2a 64
        E 0 9b 38 64
        E 0 9e 44 64
        E 0 9f 30 59
        E 0 8b 38 64
        E 0 8e 44 64
        E 0 9b 38 64
        E 0 9e 44 64
        E 0 8b 38 64
        E 1 8e 44 64
        E 0 9b 3c 63
        E 0 9e 48 63
        E 0 8b 3c 63
        E 0 8e 48 63
        E 0 9b 3c 63
        E 0 9e 48 63
        E 0 8b 3c 63
        E 0 8e 48 63
        E 0 9b 3d 64
        E 0 9e 49 64
        E 0 8b 3d 64
        E 0 8e 49 64
        E 0 8f 30 63
        E 0 9b 38 64
        E 1 9e 44 64
        E 0 9f 34 5a
        E 0 8b 38 64
        E 0 8e 44 64
        E 0 9b 38 64
        E 0 9e 44 64
        E 2 8b 38 64
        E 0 8e 44 64
        E 0 8f 34 64
        E 1 9b 3d 64
        E 0 9e 49 64
        E 0 9f 34 5a
        E 0 8b 3d 64
        E 0 8e 49 64
        E 1 9b 3d 64
        E 0 9e 49 64
        E 0 8b 3d 64
        E 0 8e 49 64
        E 0 9b 3d 64
        E 0 9e 49 64
        E 0 8b 3d 64
        E 0 8e 49 64
        E 0 9b 3d 64
        E 0 9e 49 64
        E 0 8b 3d 64
        E 0 8e 49 64
        E 2 9b 3b 64
        E 0 9e 47 64
        E 0 8b 3b 64
        E 0 8e 47 64
        E 0 8f 34 64
        E 0 9b 3b 64
        E 0 9e 47 64
        E 0 9f 2c 5a
        E 0 8b 3b 64
        E 0 8e 47 64
        E 0 9b 3b 64
        E 0 9e 47 64
        E 0 8b 3b 64
        E 0 8e 47 64
        E 0 9b 3b 64
        E 0 9e 47 64
        E 0 8b 3b 64
        E 0 8e 47 64
        E 0 9b 38 64
        E 0 9e 44 64
        E 0 8b 38 64
        E 0 8e 44 64
        E 0 9b 39 64
        E 1 9e 45 64
        E 38402 8f 2c 64
        E 0 8b 39 64
        E 0 8e 45 64
        E 0 9f 2c 5a
        E 0 9b 3b 64
        E 0 9e 47 64
        E 0 8b 3b 64
        E 0 8e 47 64
        E 0 9b 3e 64
        E 0 9e 4a 64
        E 0 8b 3e 64
        E 0 8e 4a 64
        E 0 9b 3e 64
        E 0 9e 4a 64
        E 0 8b 3e 64
        E 0 8e 4a 64
        E 0 9b 3b 64
        E 0 9e 47 64
        E 0 8b 3b 64
        E 0 8e 47 64
        E 0 9b 3b 64
        E 1 9e 47 64
        E 0 8b 3b 64
        E 0 8e 47 64
        E 0 9b 3d 64
        E 0 9e 49 64
        E 0 8b 3d 64
        E 0 8e 49 64
        E 0 8f 2c 64
        E 0 9b 39 64
        E 0 9e 45 64
        E 0 9f 2d 5a
        E 0 8b 39 64
        E 0 8e 45 64
        E 0 9b 39 64
        E 0 9e 45 64
        E 0 8b 39 64
        E 0 8e 45 64
        E 0 9b 40 64
        E 0 9e 4c 64
        E 0 8b 40 64
        E 0 8e 4c 64
        E 0 9b 3d 64
        E 0 9e 49 64
        E 0 8b 3d 64
        E 0 8e 49 64
        E 0 9b 3d 64
        E 0 9e 49 64
        E 0 8b 3d 64
        E 0 8e 49 64
        E 0 9b 3b 64
        E 0 9e 47 64
        E 0 8b 3b 64
        E 0 8e 47 64
        E 0 9b 3d 64
        E 0 9e 49 64
        E 0 8b 3d 64
        E 0 8e 49 64
        E 0 8f 2d 64
        E 0 9b 39 64
        E 0 9e 45 64
        E 0 9f 2d 5a
        E 0 8b 39 64
        E 0 8e 45 64
        E 0 9b 39 64
        E 0 9e 45 64
        E 0 8b 39 64
        E 0 8e 45 64
        E 0 9b 34 64
        E 1 9e 40 64
        E 0 8b 34 64
        E 0 8e 40 64
        E 0 9b 34 64
        E 0 9e 40 64
        E 0 8b 34 64
        E 0 8e 40 64
        E 0 9b 34 64
        E 0 9e 40 64
        E 0 8b 34 64
        E 0 8e 40 64
        E 0 9b 34 64
        E 0 9e 40 64
        E 0 8b 34 64
        E 0 8e 40 64
        E 0 9b 34 64
        E 0 9e 40 64
        E 0 8b 34 64
        E 0 8e 40 64
        E 0 8f 2d 64
        E 0 9b 39 64
        E 0 9e 45 64
        E 0 9f 2d 5a
        E 0 8b 39 64
        E 0 8e 45 64
        E 0 9b 39 64
        E 0 9e 45 64
        E 0 8b 39 64
        E 0 8e 45 64
        E 0 9b 3d 64
        E 0 9e 49 64
        E 0 8b 3d 64
        E 0 8e 49 64
        E 0 9b 3b 64
        E 0 9e 47 64
        E 0 8b 3b 64
        E 0 8e 47 64
        E 0 9b 39 64
        E 0 9e 45 64
        E 0 8b 39 64
        E 0 8e 45 64
        E 0 8f 2d 64
        E 0 9b 3e 64
        E 0 9e 4a 64
        E 0 9f 2a 5a
        E 0 8b 3e 64
        E 0 8e 4a 64
        E 0 9b 3e 64
        E 0 9e 4a 64
        E 0 8b 3e 64
        E 0 8e 4a 64
        E 0 8f 2a 64
        E 0 9b 3c 64
        E 0 9e 48 64
        E 0 9f 2a 5a
        E 0 8b 3c 64
        E 0 8e 48 64
        E 0 9b 3c 64
        E 0 9e 48 64
        E 38403 8b 3c 64
        E 0 8e 48 64
        E 0 9b 3c 64
        E 0 9e 48 64
        E 0 8b 3c 64
        E 0 8e 48 64
        E 0 9b 3c 64
        E 0 9e 48 64
        E 0 8b 3c 64
        E 0 8e 48 64
        E 0 9b 3b 64
        E 0 9e 47 64
        E 0 8b 3b 64
        E 0 8e 47 64
        E 0 8f 2a 64
        E 0 9b 37 64
        E 0 9e 43 64
        E 0 9f 2b 5a
        E 0 8b 37 64
        E 0 8e 43 64
        E 0 9b 37 64
        E 0 9e 43 64
        E 0 8b 37 64
        E 0 8e 43 64
        E 0 9b 3b 64
        E 1 9e 47 64
        E 0 8b 3b 64
        E 0 8e 47 64
        E 0 9b 3b 64
        E 0 9e 47 64
        E 0 8b 3b 64
        E 0 8e 47 64
        E 0 9b 3c 64
        E 0 9e 48 64
        E 0 8b 3c 64
        E 0 8e 48 64
        E 0 8f 2b 64
        E 0 9b 3c 64
        E 0 9e 48 64
        E 0 9f 2d 5a
        E 0 8b 3c 64
        E 0 8e 48 64
        E 0 9b 3c 64
        E 0 9e 48 64
        E 0 8b 3c 64
        E 0 8e 48 64
        E 0 9b 39 64
        E 0 9e 45 64
        E 0 8b 39 64
        E 0 8e 45 64
        E 0 9b 39 64
        E 0 9e 45 64
        E 0 8b 39 64
        E 0 8e 45 64
        E 0 9b 37 64
        E 0 9e 43 64
        E 0 8b 37 64
        E 0 8e 43 64
        E 0 8f 2d 64
        E 0 9b 34 64
        E 0 9e 40 64
        E 0 9f 2f 5a
        E 0 8b 34 64
        E 0 8e 40 64
        E 0 9b 34 64
        E 0 9e 40 64
        E 0 8b 34 64
        E 0 8e 40 64
        E 0 8f 2f 64
        E 0 95 47 64
        E 0 9e 47 64
        E 0 9f 34 5a
        E 0 85 47 64
        E 0 8e 47 64
        E 1 8f 34 64
        E 0 9b 3b 64
        E 0 9e 47 64
        E 0 9f 34 5a
        E 0 8b 3b 64
        E 0 8e 47 64
        E 0 9b 3b 64
        E 0 9e 47 64
        E 0 8b 3b 64
        E 0 8e 47 64
        E 0 9b 3b 64
        E 0 9e 47 64
        E 0 8b 3b 64
        E 0 8e 47 64
        E 0 9b 3d 64
        E 0 9e 49 64
        E 0 8b 3d 64
        E 0 8e 49 64
        E 0 9b 3a 64
        E 0 9e 46 64
        E 0 8b 3a 64
        E 0 8e 46 64
        E 0 9b 3a 64
        E 0 9e 46 64
        E 0 8b 3a 64
        E 0 8e 46 64
        E 0 9b 3a 64
        E 0 9e 46 64
        E 0 8b 3a 64
        E 0 8e 46 64
        E 0 9b 3a 64
        E 1 9e 46 64
        E 0 8b 3a 64
        E 0 8e 46 64
        E 0 9b 3b 64
        E 0 9e 47 64
        E 0 8b 3b 64
        E 0 8e 47 64
        E 0 8f 34 64
        E 0 9b 36 64
        E 0 9e 42 64
        E 0 9f 36 5a
        E 0 8b 36 64
        E 0 8e 42 64
        E 0 9b 36 64
        E 0 9e 42 64
        E 0 8b 36 64
        E 0 8e 42 64
        E 0 8f 36 64
        E 0 9f 32 5a
        E 0 9a 42 64
        E 0 9e 42 64
        E 0 8a 42 64
        E 0 8e 42 64
        E 0 9a 42 64
        E 0 9e 42 64
        E 0 8a 42 64
        E 0 8e 42 64
        E 0 9a 41 63
        E 0 9e 41 63
        E 0 8a 41 63
        E 0 8e 41 63
        E 0 8f 32 64
        E 0 9a 42 64
        E 0 9e 42 64
        E 0 9f 31 5a
        E 0 8a 42 64
        E 0 8e 42 64
        E 0 9a 42 64
        E 0 9e 42 64
        E 0 8a 42 64
        E 0 8e 42 64
        E 0 9b 3d 64
        E 0 9e 49 64
        E 0 8b 3d 64
        E 0 8e 49 64
        E 0 8f 31 64
        E 0 9b 38 64
        E 0 9e 44 64
        E 0 9f 31 5a
        E 0 8b 38 64
        E 1 8e 44 64
        E 0 9b 38 64
        E 0 9e 44 64
        E 0 8b 38 64
        E 0 8e 44 64
        E 0 9b 38 64
        E 0 9e 44 64
        E 38402 8b 38 64
        E 0 8e 44 64
        E 0 9b 3b 64
        E 0 9e 47 64
        E 0 8b 3b 64
        E 0 8e 47 64
        E 0 9b 39 64
        E 0 9e 45 64
        E 0 8b 39 64
        E 0 8e 45 64
        E 0 8f 31 64
        E 0 9b 36 64
        E 0 9e 42 64
        E 0 9f 36 5a
        E 0 8b 36 64
        E 0 8e 42 64
        E 0 9b 36 64
        E 0 9e 42 64
        E 0 8b 36 64
        E 0 8e 42 64
        E 0 8f 36 64
        E 0 95 43 64
        E 1 9e 45 64
        E 0 9f 36 5a
        E 0 85 43 64
        E 0 8e 45 64
        E 0 95 45 64
        E 0 9e 45 64
        E 0 85 45 64
        E 0 8e 45 64
        E 0 95 45 64
        E 0 9e 45 64
        E 0 85 45 64
        E 0 8e 45 64
        E 0 95 44 64
        E 0 9e 44 64
        E 0 85 44 64
        E 0 8e 44 64
        E 0 95 45 64
        E 0 9e 45 64
        E 0 85 45 64
        E 0 8e 45 64
        E 0 8f 36 64
        E 0 95 40 64
        E 0 9e 40 64
        E 0 9f 34 5a
        E 0 85 40 64
        E 0 8e 40 64
        E 0 95 40 64
        E 0 9e 40 64
        E 0 85 40 64
        E 0 8e 40 64
        E 0 8f 34 64
        E 0 9b 3d 64
        E 0 9e 49 64
        E 0 9f 2d 5a
        E 0 8b 3d 64
        E 0 8e 49 64
        E 0 9b 3b 64
        E 0 9e 47 64
        E 0 8b 3b 64
        E 0 8e 47 64
        E 0 9b 3d 64
        E 0 9e 49 64
        E 0 8b 3d 64
        E 0 8e 49 64
        E 0 8f 2d 64
        E 0 9b 39 64
        E 0 9e 45 64
        E 0 9f 2d 5a
        E 0 8b 39 64
        E 0 8e 45 64
        E 0 9b 39 64
        E 0 9e 45 64
        E 0 8b 39 64
        E 0 8e 45 64
        E 1 9a 40 64
        E 0 9e 40 64
        E 0 8a 40 64
        E 0 8e 40 64
        E 0 9a 40 64
        E 0 9e 40 64
        E 0 8a 40 64
        E 0 8e 40 64
        E 0 9a 40 64
        E 0 9e 40 64
        E 0 8a 40 64
        E 0 8e 40 64
        E 0 9a 45 64
        E 0 9e 45 64
        E 0 8a 45 64
        E 0 8e 45 64
        E 0 9a 45 64
        E 0 9e 45 64
        E 0 8a 45 64
        E 0 8e 45 64
        E 0 8f 2d 64
        E 0 9a 42 64
        E 0 9e 42 64
        E 0 9f 33 5a
        E 0 8a 42 64
        E 0 8e 42 64
        E 0 9a 42 64
        E 0 9e 42 64
        E 0 8a 42 64
        E 0 8e 42 64
        E 0 9a 42 64
        E 0 9e 42 64
        E 0 8a 42 64
        E 0 8e 42 64
        E 0 9a 45 64
        E 0 9e 45 64
        E 0 8a 45 64
        E 0 8e 45 64
        E 0 9a 44 64
        E 0 9e 44 64
        E 0 8a 44 64
        E 0 8e 44 64
        E 0 8f 33 64
        E 0 9a 40 64
        E 0 9e 40 64
        E 0 9f 34 5a
        E 0 8a 40 64
        E 0 8e 40 64
        E 0 9a 40 64
        E 0 9e 40 64
        E 0 8a 40 64
        E 0 8e 40 64
        E 0 8f 34 64
        E 0 9b 3b 64
        E 0 9e 47 64
        E 0 9f 34 5a
        E 0 8b 3b 64
        E 0 8e 47 64
        E 0 9b 3b 64
        E 0 9e 47 64
        E 0 8b 3b 64
        E 0 8e 47 64
        E 0 9b 3b 64
        E 0 9e 47 64
        E 0 8b 3b 64
        E 0 8e 47 64
        E 0 9b 3b 64
        E 0 9e 47 64
        E 0 8b 3b 64
        E 0 8e 47 64
        E 0 9b 3b 64
        E 0 9e 47 64
        E 38403 8b 3b 64
        E 0 8e 47 64
        E 0 9b 38 64
        E 0 9e 44 64
        E 0 8b 38 64
        E 0 8e 44 64
        E 0 9b 38 64
        E 1 9e 44 64
        E 0 8b 38 64
        E 0 8e 44 64
        E 0 9b 3e 64
        E 0 9e 4a 64
        E 0 8b 3e 64
        E 0 8e 4a 64
        E 0 9b 3b 64
        E 0 9e 47 64
        E 0 8b 3b 64
        E 0 8e 47 64
        E 0 9b 3d 64
        E 0 9e 49 64
        E 0 8b 3d 64
        E 0 8e 49 64
        E 0 8f 34 64
        E 0 9b 39 64
        E 0 9e 45 64
        E 0 9f 2d 5a
        E 0 8b 39 64
        E 0 8e 45 64
        E 0 9b 3d 64
        E 0 9e 49 64
        E 0 8b 3d 64
        E 0 8e 49 64
        E 0 9b 3d 64
        E 0 9e 49 64
        E 0 8b 3d 64
        E 0 8e 49 64
        E 0 9b 3d 64
        E 0 9e 49 64
        E 0 8b 3d 64
        E 0 8e 49 64
        E 0 9b 3d 64
        E 0 9e 49 64
        E 0 8b 3d 64
        E 0 8e 49 64
        E 0 9b 3e 64
        E 0 9e 4a 64
        E 0 8b 3e 64
        E 0 8e 4a 64
        E 0 8f 2d 64
        E 1 9b 39 64
        E 0 9e 45 64
        E 0 9f 2a 5a
        E 0 8b 39 64
        E 0 8e 45 64
        E 0 9b 39 64
        E 0 9e 45 64
        E 0 8b 39 64
        E 0 8e 45 64
        E 0 9b 39 64
        E 0 9e 45 64
        E 0 8b 39 64
        E 0 8e 45 64
        E 0 9b 3c 64
        E 0 9e 48 64
        E 0 8b 3c 64
        E 0 8e 48 64
        E 0 9b 3b 64
        E 0 9e 47 64
        E 0 8b 3b 64
        E 0 8e 47 64
        E 0 8f 2a 64
        E 0 9b 37 64
        E 0 9e 43 64
        E 0 9f 2b 5a
        E 0 8b 37 64
        E 0 8e 43 64
        E 0 9b 37 64
        E 0 9e 43 64
        E 0 8b 37 64
        E 0 8e 43 64
        E 0 8f 2b 64
        E 0 9a 3e 64
        E 0 9e 3e 64
        E 0 9f 2b 5a
        E 0 8a 3e 64
        E 0 8e 3e 64
        E 0 9a 3e 64
        E 0 9e 3e 64
        E 0 8a 3e 64
        E 0 8e 3e 64
        E 0 9a 3e 64
        E 0 9e 3e 64
        E 0 8a 3e 64
        E 0 8e 3e 64
        E 0 9a 43 64
        E 0 9e 43 64
        E 0 8a 43 64
        E 0 8e 43 64
        E 0 9a 45 64
        E 0 9e 45 64
        E 0 8a 45 64
        E 0 8e 45 64
        E 0 9a 47 64
        E 0 9e 47 64
        E 0 8a 47 64
        E 0 8e 47 64
        E 0 9a 47 64
        E 0 9e 47 64
        E 0 8a 47 64
        E 0 8e 47 64
        E 0 9a 47 64
        E 0 9e 47 64
        E 0 8a 47 64
        E 0 8e 47 64
        E 0 9a 47 64
        E 1 9e 47 64
        E 0 8a 47 64
        E 0 8e 47 64
        E 0 9a 48 64
        E 0 9e 48 64
        E 0 8a 48 64
        E 0 8e 48 64
        E 0 8f 2b 64
        E 0 9a 43 64
        E 0 9e 43 64
        E 0 9f 34 5a
        E 0 8a 43 64
        E 0 8e 43 64
        E 0 9a 43 64
        E 0 9e 43 64
        E 0 8a 43 64
        E 0 8e 43 64
        E 0 9a 40 64
        E 0 9e 40 64
        E 0 8a 40 64
        E 0 8e 40 64
        E 0 9a 40 64
        E 0 9e 40 64
        E 38403 8a 40 64
        E 0 8e 40 64
        E 0 9a 40 64
        E 0 9e 40 64
        E 0 8a 40 64
        E 0 8e 40 64
        E 0 9a 43 64
        E 0 9e 43 64
        E 0 8a 43 64
        E 0 8e 43 64
        E 0 9a 45 64
        E 0 9e 45 64
        E 0 8a 45 64
        E 0 8e 45 64
        E 0 8f 34 64
        E 0 9a 46 66
        E 0 9e 46 66
        E 0 9f 34 5a
        E 1 8a 46 66
        E 0 8e 46 66
        E 0 9a 46 66
        E 0 9e 46 66
        E 0 8a 46 66
        E 0 8e 46 66
        E 0 9a 46 66
        E 0 9e 46 66
        E 0 8a 46 66
        E 0 8e 46 66
        E 0 8f 34 64
        E 0 9a 46 66
        E 0 9e 46 66
        E 0 9f 30 5a
        E 0 8a 46 66
        E 0 8e 46 66
        E 0 9a 40 64
        E 0 9e 40 64
        E 0 8a 40 64
        E 0 8e 40 64
        E 0 9a 45 64
        E 0 9e 45 64
        E 0 8a 45 64
        E 0 8e 45 64
        E 0 8f 30 64
        E 0 9a 41 64
        E 0 9e 41 64
        E 1 9f 35 5a
        E 0 8a 41 64
        E 0 8e 41 64
        E 0 9a 41 64
        E 0 9e 41 64
        E 0 8a 41 64
        E 0 8e 41 64
        E 0 9a 48 64
        E 0 9e 48 64
        E 0 8a 48 64
        E 0 8e 48 64
        E 1 9a 45 64
        E 0 9e 45 64
        E 0 8a 45 64
        E 0 8e 45 64
        E 0 9a 45 64
        E 0 9e 45 64
        E 0 8a 45 64
        E 0 8e 45 64
        E 0 9a 45 64
        E 0 9e 45 64
        E 0 8a 45 64
        E 0 8e 45 64
        E 0 9a 45 64
        E 0 9e 45 64
        E 0 8a 45 64
        E 0 8e 45 64
        E 0 8f 35 64
        E 0 9a 42 64
        E 0 9e 42 64
        E 0 9f 30 5a
        E 0 8a 42 64
        E 0 8e 42 64
        E 0 9a 42 64
        E 0 9e 42 64
        E 0 8a 42 64
        E 0 8e 42 64
        E 0 9a 42 64
        E 0 9e 42 64
        E 0 8a 42 64
        E 0 8e 42 64
        E 0 9a 43 64
        E 1 9e 43 64
        E 0 8a 43 64
        E 0 8e 43 64
        E 0 8f 30 64
        E 0 9a 45 64
        E 0 9e 45 64
        E 0 9f 30 5a
        E 0 8a 45 64
        E 0 8e 45 64
        E 0 9a 45 64
        E 0 9e 45 64
        E 0 8a 45 64
        E 0 8e 45 64
        E 0 9a 46 66
        E 0 9e 46 66
        E 1 8a 46 66
        E 0 8e 46 66
        E 0 8f 30 64
        E 0 9a 43 64
        E 0 9e 43 64
        E 0 9f 2e 5b
        E 0 8a 43 64
        E 0 8e 43 64
        E 0 9a 43 64
        E 0 9e 43 64
        E 0 8a 43 64
        E 0 8e 43 64
        E 0 8f 2e 66
        E 0 9a 43 64
        E 0 9e 43 64
        E 0 9f 2e 5b
        E 0 8a 43 64
        E 0 8e 43 64
        E 0 9a 43 64
        E 0 9e 43 64
        E 0 8a 43 64
        E 0 8e 43 64
        E 0 9a 43 64
        E 0 9e 43 64
        E 38403 8a 43 64
        E 0 8e 43 64
        E 0 9a 41 64
        E 0 9e 41 64
        E 0 8a 41 64
        E 0 8e 41 64
        E 0 9a 43 64
        E 0 9e 43 64
        E 0 8a 43 64
        E 0 8e 43 64
        E 0 8f 2e 66
        E 0 9a 3f 66
        E 0 9e 3f 66
        E 0 9f 30 5a
        E 0 8a 3f 66
        E 0 8e 3f 66
        E 0 9a 48 64
        E 0 9e 48 64
        E 0 8a 48 64
        E 0 8e 48 64
        E 0 9a 42 64
        E 0 9e 42 64
        E 0 8a 42 64
        E 0 8e 42 64
        E 0 9a 43 64
        E 0 9e 43 64
        E 0 8a 43 64
        E 0 8e 43 64
        E 0 8f 30 64
        E 0 9a 3e 64
        E 0 9e 3e 64
        E 0 9f 32 5a
        E 0 8a 3e 64
        E 0 8e 3e 64
        E 0 9a 3e 64
        E 1 9e 3e 64
        E 0 8a 3e 64
        E 0 8e 3e 64
        E 0 8f 32 64
        E 0 9f 2b 5a
        E 0 8f 2b 64
        E 0 9b 3a 66
        E 0 9e 46 66
        E 0 9f 2b 5a
        E 0 8b 3a 66
        E 0 8e 46 66
        E 0 9b 3a 66
        E 0 9e 46 66
        E 0 8b 3a 66
        E 0 8e 46 66
        E 0 9b 3a 66
        E 0 9e 46 66
        E 0 8b 3a 66
        E 0 8e 46 66
        E 0 9b 39 64
        E 0 9e 45 64
        E 0 8b 39 64
        E 0 8e 45 64
        E 0 9b 3a 66
        E 0 9e 46 66
        E 0 8b 3a 66
        E 0 8e 46 66
        E 0 8f 2b 64
        E 0 9b 37 64
        E 0 9e 43 64
        E 0 9f 2b 5a
        E 0 8b 37 64
        E 0 8e 43 64
        E 0 9b 3f 66
        E 0 9e 4b 66
        E 0 8b 3f 66
        E 0 8e 4b 66
        E 0 9b 39 64
        E 0 9e 45 64
        E 0 8b 39 64
        E 0 8e 45 64
        E 0 9b 3a 66
        E 0 9e 46 66
        E 0 8b 3a 66
        E 0 8e 46 66
        E 0 8f 2b 64
        E 0 9b 35 64
        E 0 9e 41 64
        E 0 9f 29 5a
        E 0 8b 35 64
        E 0 8e 41 64
        E 0 9b 35 64
        E 0 9e 41 64
        E 0 8b 35 64
        E 0 8e 41 64
        E 0 8f 29 64
        E 0 9f 2e 5b
        E 0 8f 2e 66
        E 0 92 3f 66
        E 0 93 37 5a
        E 0 9f 33 5b
        E 0 82 3f 66
        E 0 8f 33 66
        E 0 92 48 64
        E 0 9f 32 5a
        E 0 82 48 64
        E 0 83 37 64
        E 0 8f 32 64
        E 0 92 46 66
        E 0 93 37 5a
        E 0 9f 33 5b
        E 0 82 46 66
        E 0 92 44 66
        E 0 82 44 66
        E 0 83 37 64
        E 0 8f 33 66
        E 0 92 43 64
        E 0 93 37 5a
        E 0 9f 27 5b
        E 0 82 43 64
        E 0 92 41 64
        E 0 82 41 64
        E 0 83 37 64
        E 0 8f 27 66
        E 0 92 3f 66
        E 0 93 37 5a
        E 1 9f 33 5b
        E 0 82 3f 66
        E 0 8f 33 66
        E 0 92 4b 66
        E 0 9f 32 5a
        E 0 82 4b 66
        E 0 83 37 64
        E 0 8f 32 64
        E 0 92 4a 64
        E 0 93 37 5a
        E 0 9f 33 5b
        E 0 82 4a 64
        E 0 92 48 64
        E 0 82 48 64
        E 0 83 37 64
        E 0 8f 33 66
        E 0 92 46 66
        E 0 93 37 5a
        E 0 9f 27 5b
        E 0 82 46 66
        E 0 92 44 66
        E 0 82 44 66
        E 0 83 37 64
        E 0 8f 27 66
        E 0 92 43 64
        E 0 93 37 5a
        E 0 9f 33 5b
        E 0 82 43 64
        E 0 8f 33 66
        E 0 92 4f 64
        E 0 9f 32 5a
        E 0 82 4f 64
        E 0 83 37 64
        E 0 8f 32 64
        E 0 92 4d 64
        E 1 93 37 5a
        E 0 9f 33 5b
        E 0 82 4d 64
        E 0 92 4b 66
        E 0 82 4b 66
        E 0 83 37 64
        E 0 8f 33 66
        E 0 92 4a 64
        E 0 93 37 5a
        E 0 9f 27 5b
        E 0 82 4a 64
        E 0 92 48 64
        E 0 82 48 64
        E 0 83 37 64
        E 0 8f 27 66
        E 0 92 46 66
        E 0 93 37 5a
        E 0 9f 33 5b
        E 0 8f 33 66
        E 0 9f 32 5a
        E 0 83 37 64
        E 0 8f 32 64
        E 0 93 37 5a
        E 0 9f 33 5b
        E 0 82 46 66
        E 0 83 37 64
        E 0 8f 33 66
        E 0 92 48 64
        E 0 93 37 5a
        E 0 9f 27 5b
        E 0 82 48 64
        E 0 92 4a 64
        E 0 82 4a 64
        E 0 83 37 64
        E 0 8f 27 66
        E 0 92 4b 66
        E 0 82 4b 66
        E 0 92 3f 66
        E 0 93 37 5a
        E 0 9f 33 5b
        E 0 8f 33 66
        E 0 9f 32 5a
        E 0 82 3f 66
        E 0 83 37 64
        E 0 8f 32 64
        E 0 93 37 5a
        E 0 9f 33 5b
        E 0 83 37 64
        E 0 8f 33 66
        E 0 92 43 64
        E 0 93 37 5a
        E 0 9f 27 5b
        E 0 82 43 64
        E 0 83 37 64
        E 0 8f 27 66
        E 0 92 44 66
        E 0 82 44 66
        E 0 92 41 64
        E 0 82 41 64
        E 0 92 3a 66
        E 0 93 3e 5a
        E 1 9f 3a 5b
        E 0 8f 3a 66
        E 0 9f 38 5b
        E 0 82 3a 66
        E 0 83 3e 64
        E 0 8f 38 66
        E 0 92 3a 66
        E 0 93 3e 5a
        E 0 9f 3a 5b
        E 0 82 3a 66
        E 0 92 48 64
        E 0 82 48 64
        E 0 83 3e 64
        E 0 8f 3a 66
        E 0 92 46 66
        E 0 93 3e 5a
        E 0 9f 2e 5b
        E 0 82 46 66
        E 0 92 44 66
        E 0 82 44 66
        E 0 83 3e 64
        E 0 8f 2e 66
        E 0 92 43 64
        E 0 82 43 64
        E 0 92 3f 66
        E 0 82 3f 66
        E 0 92 37 64
        E 0 93 3f 5b
        E 0 9f 3a 5b
        E 0 8f 3a 66
        E 0 9f 38 5b
        E 0 82 37 64
        E 0 83 3f 66
        E 0 8f 38 66
        E 0 92 37 64
        E 0 93 3f 5b
        E 0 9f 3a 5b
        E 38403 82 37 64
        E 0 92 46 66
        E 0 82 46 66
        E 0 83 3f 66
        E 0 8f 3a 66
        E 0 92 4b 66
        E 0 93 3f 5b
        E 0 9f 2e 5b
        E 0 82 4b 66
        E 0 92 43 64
        E 0 82 43 64
        E 0 83 3f 66
        E 0 8f 2e 66
        E 0 92 44 66
        E 0 82 44 66
        E 1 92 41 64
        E 0 82 41 64
        E 0 92 3a 66
        E 0 93 3e 5a
        E 0 9f 3a 5b
        E 0 8f 3a 66
        E 0 9f 38 5b
        E 0 82 3a 66
        E 0 83 3e 64
        E 0 8f 38 66
        E 0 92 3a 66
        E 0 93 3e 5a
        E 0 9f 3a 5b
        E 0 82 3a 66
        E 0 92 48 64
        E 0 82 48 64
        E 0 83 3e 64
        E 0 8f 3a 66
        E 0 92 46 66
        E 0 93 3e 5a
        E 0 9f 2e 5b
        E 0 82 46 66
        E 0 92 44 66
        E 0 82 44 66
        E 0 83 3e 64
        E 0 8f 2e 66
        E 0 92 43 64
        E 0 82 43 64
        E 0 92 41 64
        E 0 82 41 64
        E 0 92 3f 66
        E 0 93 3a 5b
        E 0 9f 33 5b
        E 0 8f 33 66
        E 0 9f 32 5a
        E 0 82 3f 66
        E 0 83 3a 66
        E 0 8f 32 64
        E 0 93 3a 5b
        E 0 9f 33 5b
        E 0 83 3a 66
        E 0 8f 33 66
        E 0 93 3a 5b
        E 0 9f 27 5b
        E 0 83 3a 66
        E 0 8f 27 66
        E 0 92 52 66
        E 0 82 52 66
        E 0 92 51 64
        E 0 82 51 64
        E 0 92 4f 64
        E 1 82 4f 64
        E 0 92 4d 64
        E 0 82 4d 64
        E 0 92 4b 66
        E 0 82 4b 66
        E 0 92 4a 64
        E 0 82 4a 64
        E 0 92 48 64
        E 0 82 48 64
        E 0 92 46 66
        E 0 93 46 5b
        E 0 9f 3a 5b
        E 0 82 46 66
        E 0 83 46 66
        E 0 8f 3a 66
        E 0 92 3a 66
        E 0 93 45 5a
        E 0 9f 39 5a
        E 0 83 45 64
        E 0 8f 39 64
        E 0 93 43 5a
        E 0 9f 37 5a
        E 0 82 3a 66
        E 0 83 43 64
        E 0 8f 37 64
        E 0 92 3e 64
        E 0 93 41 5a
        E 0 9f 35 5a
        E 0 83 41 64
        E 0 8f 35 64
        E 0 93 3f 5b
        E 0 9f 33 5b
        E 0 82 3e 64
        E 0 83 3f 66
        E 0 8f 33 66
        E 0 92 41 64
        E 0 93 3e 5a
        E 0 9f 32 5a
        E 0 83 3e 64
        E 0 8f 32 64
        E 0 93 3c 5a
        E 0 9f 30 5a
        E 0 82 41 64
        E 0 83 3c 64
        E 0 8f 30 64
        E 1 92 46 66
        E 0 93 3a 5b
        E 0 9f 2e 5b
        E 0 82 46 66
        E 0 92 48 64
        E 0 82 48 64
        E 0 83 3a 66
        E 0 8f 2e 66
        E 0 92 4a 64
        E 0 93 3a 5b
        E 0 9f 2e 5b
        E 0 82 4a 64
        E 0 83 3a 66
        E 0 8f 2e 66
        E 0 92 4b 66
        E 0 93 3c 5a
        E 0 9f 30 5a
        E 0 82 4b 66
        E 0 83 3c 64
        E 0 8f 30 64
        E 0 92 4d 64
        E 0 93 3e 5a
        E 0 9f 32 5a
        E 0 82 4d 64
        E 0 83 3e 64
        E 0 8f 32 64
        E 0 92 41 64
        E 0 93 3a 5b
        E 0 9f 2e 5b
        E 0 82 41 64
        E 0 83 3a 66
        E 0 8f 2e 66
        E 0 92 43 64
        E 0 82 43 64
        E 0 92 3f 66
        E 0 82 3f 66
        E 0 92 37 64
        E 0 93 3a 5b
        E 0 9f 33 5b
        E 0 8f 33 66
        E 0 9f 32 5a
        E 0 82 37 64
        E 0 83 3a 66
        E 0 8f 32 64
        E 0 92 37 64
        E 0 93 3a 5b
        E 0 9f 33 5b
        E 0 82 37 64
        E 0 92 4a 64
        E 0 82 4a 64
        E 0 83 3a 66
        E 0 8f 33 66
        E 0 92 48 64
        E 0 93 3c 5a
        E 1 9f 34 5a
        E 0 82 48 64
        E 0 92 46 66
        E 0 82 46 66
        E 0 83 3c 64
        E 0 8f 34 64
        E 0 92 45 64
        E 0 82 45 64
        E 0 92 41 64
        E 0 82 41 64
        E 0 92 39 64
        E 0 93 3c 5a
        E 0 9f 35 5a
        E 0 8f 35 64
        E 0 9f 34 5a
        E 0 82 39 64
        E 0 83 3c 64
        E 0 8f 34 64
        E 0 92 39 64
        E 0 93 3c 5a
        E 0 9f 35 5a
        E 0 82 39 64
        E 0 92 4b 66
        E 0 82 4b 66
        E 0 83 3c 64
        E 0 8f 35 64
        E 0 92 4a 64
        E 0 93 3e 5a
        E 0 9f 36 5b
        E 0 82 4a 64
        E 0 92 48 64
        E 0 82 48 64
        E 0 83 3e 64
        E 0 8f 36 66
        E 0 92 46 66
        E 0 82 46 66
        E 0 92 43 64
        E 0 82 43 64
        E 0 92 3a 66
        E 0 93 3e 5a
        E 0 9f 37 5a
        E 0 8f 37 64
        E 0 9f 35 5a
        E 0 82 3a 66
        E 0 83 3e 64
        E 0 8f 35 64
        E 0 92 3a 66
        E 0 93 3e 5a
        E 0 9f 37 5a
        E 0 82 3a 66
        E 0 92 4d 64
        E 0 82 4d 64
        E 0 83 3e 64
        E 0 8f 37 64
        E 0 92 4b 66
        E 0 93 43 5a
        E 0 9f 33 5b
        E 1 82 4b 66
        E 0 92 4a 64
        E 0 82 4a 64
        E 0 83 43 64
        E 0 8f 33 66
        E 0 92 48 64
        E 0 82 48 64
        E 0 92 45 64
        E 0 82 45 64
        E 0 92 41 64
        E 0 93 3c 5a
        E 0 9f 35 5a
        E 0 8f 35 64
        E 0 9f 33 5b
        E 0 82 41 64
        E 0 83 3c 64
        E 0 8f 33 66
        E 0 92 41 64
        E 0 93 3c 5a
        E 0 9f 35 5a
        E 0 82 41 64
        E 0 92 4b 66
        E 0 82 4b 66
        E 0 83 3c 64
        E 0 8f 35 64
        E 0 92 4a 64
        E 0 93 3c 5a
        E 0 9f 29 5a
        E 0 82 4a 64
        E 0 92 48 64
        E 0 82 48 64
        E 0 83 3c 64
        E 0 8f 29 64
        E 0 92 4a 64
        E 0 82 4a 64
        E 0 92 46 66
        E 0 82 46 66
        E 0 92 41 64
        E 0 93 3e 5a
        E 0 9f 35 5a
        E 0 8f 35 64
        E 0 9f 33 5b
        E 0 82 41 64
        E 0 83 3e 64
        E 0 8f 33 66
        E 0 92 41 64
        E 0 93 3e 5a
        E 0 9f 35 5a
        E 0 82 41 64
        E 0 92 52 66
        E 0 82 52 66
        E 0 83 3e 64
        E 0 8f 35 64
        E 0 92 4d 64
        E 0 93 3e 5a
        E 0 9f 29 5a
        E 0 82 4d 64
        E 0 92 4a 64
        E 0 82 4a 64
        E 0 83 3e 64
        E 0 8f 29 64
        E 0 92 48 64
        E 0 82 48 64
        E 0 92 45 64
        E 0 82 45 64
        E 0 92 41 64
        E 0 93 3c 5a
        E 1 9f 35 5a
        E 0 8f 35 64
        E 0 9f 33 5b
        E 0 82 41 64
        E 0 83 3c 64
        E 0 8f 33 66
        E 0 92 41 64
        E 0 93 3c 5a
        E 0 9f 35 5a
        E 0 82 41 64
        E 0 92 4b 66
        E 0 82 4b 66
        E 0 83 3c 64
        E 0 8f 35 64
        E 0 92 4a 64
        E 0 93 41 5a
        E 0 9f 29 5a
        E 0 82 4a 64
        E 0 92 48 64
        E 0 82 48 64
        E 0 83 41 64
        E 0 8f 29 64
        E 0 92 4a 64
        E 0 93 41 5a
        E 0 9f 2e 5b
        E 0 82 4a 64
        E 0 8f 2e 66
        E 0 92 46 66
        E 0 9f 30 5a
        E 0 82 46 66
        E 0 83 41 64
        E 0 8f 30 64
        E 0 92 41 64
        E 0 93 46 5b
        E 0 9f 32 5a
        E 0 82 41 64
        E 0 8f 32 64
        E 0 92 4a 64
        E 1 9f 33 5b
        E 0 82 4a 64
        E 0 83 46 66
        E 0 8f 33 66
        E 0 92 48 64
        E 0 93 46 5b
        E 0 9f 35 5a
        E 0 82 48 64
        E 0 92 45 64
        E 0 82 45 64
        E 0 83 46 66
        E 0 8f 35 64
        E 0 92 41 64
        E 0 93 45 5a
        E 0 9f 29 5a
        E 0 82 41 64
        E 0 92 48 64
        E 0 82 48 64
        E 0 83 45 64
        E 0 8f 29 64
        E 0 92 4a 64
        E 0 93 46 5b
        E 0 9f 2e 5b
        E 0 82 4a 64
        E 0 8f 2e 66
        E 0 92 46 66
        E 0 9f 30 5a
        E 0 82 46 66
        E 0 83 46 66
        E 0 8f 30 64
        E 0 92 41 64
        E 0 93 46 5b
        E 0 9f 32 5a
        E 0 82 41 64
        E 0 8f 32 64
        E 0 92 4a 64
        E 0 9f 33 5b
        E 0 82 4a 64
        E 0 83 46 66
        E 0 8f 33 66
        E 0 92 48 64
        E 0 93 46 5b
        E 0 9f 35 5a
        E 0 82 48 64
        E 0 92 45 64
        E 0 82 45 64
        E 0 83 46 66
        E 0 8f 35 64
        E 0 92 41 64
        E 0 93 45 5a
        E 0 9f 29 5a
        E 0 82 41 64
        E 0 92 48 64
        E 0 82 48 64
        E 0 83 45 64
        E 0 8f 29 64
        E 0 92 46 66
        E 0 93 46 5b
        E 1 9f 2e 5b
        E 0 82 46 66
        E 0 83 46 66
        E 0 8f 2e 66
        E 0 92 46 66
        E 0 9b 46 66
        E 0 9f 27 5b
        E 0 8f 27 66
        E 0 93 37 5a
        E 0 9f 33 5b
        E 0 82 46 66
        E 0 8f 33 66
        E 0 92 48 64
        E 0 9f 32 5a
        E 0 82 48 64
        E 0 83 37 64
        E 0 8b 46 66
        E 0 8f 32 64
        E 0 92 46 66
        E 0 93 37 5a
        E 0 9b 43 64
        E 0 9f 33 5b
        E 0 82 46 66
        E 0 92 44 66
        E 0 82 44 66
        E 0 83 37 64
        E 0 8f 33 66
        E 0 92 43 64
        E 0 93 37 5a
        E 0 9f 27 5b
        E 0 82 43 64
        E 0 92 41 64
        E 0 82 41 64
        E 0 83 37 64
        E 0 8b 43 64
        E 0 8f 27 66
        E 0 92 3f 66
        E 0 9b 3f 66
        E 0 93 37 5a
        E 0 9f 33 5b
        E 0 82 3f 66
        E 0 8f 33 66
        E 0 92 4b 66
        E 0 9f 32 5a
        E 0 82 4b 66
        E 0 83 37 64
        E 0 8f 32 64
        E 0 92 4a 64
        E 0 93 37 5a
        E 0 9f 33 5b
        E 0 82 4a 64
        E 0 92 48 64
        E 0 82 48 64
        E 0 83 37 64
        E 0 8f 33 66
        E 0 92 46 66
        E 0 93 37 5a
        E 0 9f 27 5b
        E 0 82 46 66
        E 0 92 44 66
        E 0 82 44 66
        E 0 83 37 64
        E 0 8b 3f 66
        E 0 8f 27 66
        E 0 92 43 64
        E 0 9b 43 64
        E 0 93 3a 5b
        E 0 9f 33 5b
        E 0 82 43 64
        E 0 8f 33 66
        E 0 92 4f 64
        E 0 9f 32 5a
        E 0 82 4f 64
        E 0 83 3a 66
        E 0 8f 32 64
        E 0 92 4d 64
        E 0 93 3a 5b
        E 0 9f 33 5b
        E 0 82 4d 64
        E 0 92 4b 66
        E 0 82 4b 66
        E 0 83 3a 66
        E 0 8f 33 66
        E 0 92 4a 64
        E 0 93 3a 5b
        E 0 9f 27 5b
        E 0 82 4a 64
        E 0 92 48 64
        E 0 82 48 64
        E 0 83 3a 66
        E 0 8b 43 64
        E 0 8f 27 66
        E 0 92 46 66
        E 0 9b 46 66
        E 0 93 3a 5b
        E 0 9f 33 5b
        E 0 8f 33 66
        E 0 9f 32 5a
        E 0 83 3a 66
        E 0 8f 32 64
        E 1 93 3a 5b
        E 0 9f 33 5b
        E 0 82 46 66
        E 0 83 3a 66
        E 0 8b 46 66
        E 0 8f 33 66
        E 0 92 48 64
        E 0 93 3a 5b
        E 0 9b 48 64
        E 0 9f 27 5b
        E 0 82 48 64
        E 0 8b 48 64
        E 0 92 4a 64
        E 0 9b 4a 64
        E 0 82 4a 64
        E 0 83 3a 66
        E 0 8b 4a 64
        E 0 8f 27 66
        E 0 92 4b 66
        E 0 9b 4b 66
        E 0 82 4b 66
        E 0 8b 4b 66
        E 0 92 3f 66
        E 0 93 3a 5b
        E 0 9b 3f 66
        E 0 9f 33 5b
        E 0 8f 33 66
        E 0 9f 32 5a
        E 0 82 3f 66
        E 0 83 3a 66
        E 0 8b 3f 66
        E 0 8f 32 64
        E 0 93 3a 5b
        E 0 9f 33 5b
        E 0 83 3a 66
        E 0 8f 33 66
        E 0 92 43 64
        E 0 93 3a 5b
        E 0 9b 43 64
        E 0 9f 27 5b
        E 0 82 43 64
        E 0 83 3a 66
        E 0 8b 43 64
        E 0 8f 27 66
        E 0 92 44 66
        E 0 9b 44 66
        E 0 82 44 66
        E 0 8b 44 66
        E 0 92 41 64
        E 0 9b 41 64
        E 0 82 41 64
        E 0 8b 41 64
        E 0 92 3a 66
        E 0 93 3e 5a
        E 0 9b 46 66
        E 0 9f 2e 5b
        E 0 8f 2e 66
        E 0 9f 2d 5a
        E 0 82 3a 66
        E 0 83 3e 64
        E 0 8b 46 66
        E 0 8f 2d 64
        E 0 92 3a 66
        E 0 93 3e 5a
        E 0 9b 46 66
        E 1 9f 2e 5b
        E 38404 82 3a 66
        E 0 8b 46 66
        E 0 92 48 64
        E 0 9b 44 66
        E 0 82 48 64
        E 0 83 3e 64
        E 0 8b 44 66
        E 0 8f 2e 66
        E 0 92 46 66
        E 0 93 3e 5a
        E 0 9b 43 64
        E 0 9f 2e 5b
        E 0 82 46 66
        E 0 8b 43 64
        E 0 92 44 66
        E 0 9b 41 64
        E 0 82 44 66
        E 0 83 3e 64
        E 0 8b 41 64
        E 0 8f 2e 66
        E 0 92 43 64
        E 0 9b 43 64
        E 0 82 43 64
        E 0 8b 43 64
        E 0 92 3f 66
        E 0 9b 3f 66
        E 0 82 3f 66
        E 0 8b 3f 66
        E 0 92 37 64
        E 0 93 37 5a
        E 0 9b 4b 66
        E 0 9f 2e 5b
        E 0 8f 2e 66
        E 0 9f 2d 5a
        E 0 82 37 64
        E 0 83 37 64
        E 0 8f 2d 64
        E 0 92 37 64
        E 1 93 37 5a
        E 0 9f 2e 5b
        E 0 82 37 64
        E 0 92 46 66
        E 0 82 46 66
        E 0 83 37 64
        E 0 8b 4b 66
        E 0 8f 2e 66
        E 0 92 4b 66
        E 0 93 37 5a
        E 0 9b 43 64
        E 0 9f 2e 5b
        E 0 82 4b 66
        E 0 92 43 64
        E 0 82 43 64
        E 0 83 37 64
        E 0 8b 43 64
        E 0 8f 2e 66
        E 0 92 46 66
        E 0 9b 44 66
        E 0 82 46 66
        E 0 8b 44 66
        E 0 92 41 64
        E 0 9b 41 64
        E 0 82 41 64
        E 0 8b 41 64
        E 0 92 3a 66
        E 0 93 3e 5a
        E 0 9b 46 66
        E 0 9f 2e 5b
        E 0 8f 2e 66
        E 0 9f 2d 5a
        E 0 82 3a 66
        E 0 83 3e 64
        E 0 8b 46 66
        E 0 8f 2d 64
        E 0 92 3a 66
        E 0 93 3e 5a
        E 0 9b 46 66
        E 0 9f 2e 5b
        E 0 82 3a 66
        E 0 8b 46 66
        E 0 92 48 64
        E 0 9b 44 66
        E 0 82 48 64
        E 0 83 3e 64
        E 0 8b 44 66
        E 0 8f 2e 66
        E 0 92 46 66
        E 0 93 3e 5a
        E 0 9b 43 64
        E 0 9f 2e 5b
        E 0 82 46 66
        E 0 8b 43 64
        E 0 92 44 66
        E 0 9b 41 64
        E 0 82 44 66
        E 0 83 3e 64
        E 0 8b 41 64
        E 0 8f 2e 66
        E 0 92 43 64
        E 0 9b 43 64
        E 0 82 43 64
        E 0 8b 43 64
        E 0 92 3f 66
        E 0 9b 41 64
        E 0 82 3f 66
        E 0 8b 41 64
        E 0 92 3a 66
        E 0 93 37 5a
        E 0 9b 3f 66
        E 0 9f 33 5b
        E 0 8f 33 66
        E 0 9f 32 5a
        E 0 82 3a 66
        E 0 83 37 64
        E 0 8b 3f 66
        E 0 8f 32 64
        E 0 92 3a 66
        E 0 93 37 5a
        E 0 9f 33 5b
        E 0 82 3a 66
        E 1 92 46 66
        E 0 82 46 66
        E 0 83 37 64
        E 0 8f 33 66
        E 0 92 4b 66
        E 0 93 37 5a
        E 0 9f 33 5b
        E 0 82 4b 66
        E 0 92 4f 64
        E 0 82 4f 64
        E 0 83 37 64
        E 0 8f 33 66
        E 0 92 4a 64
        E 1 93 41 5a
        E 0 9b 46 66
        E 0 9f 2e 5b
        E 0 8f 2e 66
        E 0 9f 2d 5a
        E 0 82 4a 64
        E 0 83 41 64
        E 0 8b 46 66
        E 0 8f 2d 64
        E 0 92 4a 64
        E 0 93 41 5a
        E 0 9b 46 66
        E 0 9f 2e 5b
        E 0 8f 2e 66
        E 0 9f 2e 5b
        E 0 82 4a 64
        E 0 83 41 64
        E 0 8b 46 66
        E 0 8f 2e 66
        E 1 92 4a 64
        E 0 93 41 5a
        E 0 9b 46 66
        E 0 9f 2e 5b
        E 0 82 4a 64
        E 0 83 41 64
        E 0 8b 46 66
        E 0 8f 2e 66
        E 0 92 48 64
        E 0 93 41 5a
        E 0 9b 45 64
        E 0 9f 2e 5b
        E 0 82 48 64
        E 0 8b 45 64
        E 0 92 4a 64
        E 0 9b 46 66
        E 0 82 4a 64
        E 0 83 41 64
        E 0 8b 46 66
        E 0 8f 2e 66
        E 1 92 4b 66
        E 0 93 45 5a
        E 0 9b 48 64
        E 0 9f 35 5a
        E 0 82 4b 66
        E 0 8b 48 64
        E 0 92 4a 64
        E 0 9b 46 66
        E 0 82 4a 64
        E 0 83 45 64
        E 0 8b 46 66
        E 0 8f 35 64
        E 0 92 4b 66
        E 0 93 45 5a
        E 0 9b 48 64
        E 0 9f 29 5a
        E 0 82 4b 66
        E 0 8b 48 64
        E 0 92 48 64
        E 0 9b 45 64
        E 0 82 48 64
        E 0 83 45 64
        E 0 8b 45 64
        E 0 8f 29 64
        E 0 92 4a 64
        E 0 93 41 5a
        E 0 9b 46 66
        E 0 9f 2e 5b
        E 0 82 4a 64
        E 0 83 41 64
        E 0 8b 46 66
        E 0 8f 2e 66
        E 0 92 48 64
        E 0 93 41 5a
        E 0 9b 45 64
        E 0 9f 2e 5b
        E 0 82 48 64
        E 0 8b 45 64
        E 0 92 4a 64
        E 0 9b 46 66
        E 0 82 4a 64
        E 0 83 41 64
        E 0 8b 46 66
        E 0 8f 2e 66
        E 0 92 4b 66
        E 0 93 45 5a
        E 0 9b 48 64
        E 0 9f 35 5a
        E 0 82 4b 66
        E 0 8b 48 64
        E 0 92 4a 64
        E 0 9b 46 66
        E 1 82 4a 64
        E 0 83 45 64
        E 0 8b 46 66
        E 0 8f 35 64
        E 0 92 4b 66
        E 0 93 45 5a
        E 0 9b 48 64
        E 0 9f 29 5a
        E 0 82 4b 66
        E 0 8b 48 64
        E 0 92 48 64
        E 0 9b 45 64
        E 0 82 48 64
        E 0 83 45 64
        E 0 8b 45 64
        E 0 8f 29 64
        E 0 92 4a 64
        E 0 93 41 5a
        E 0 9b 46 66
        E 0 9f 2e 5b
        E 1 82 4a 64
        E 0 8b 46 66
        E 0 92 48 64
        E 0 9b 45 64
        E 0 82 48 64
        E 0 8b 45 64
        E 0 92 46 66
        E 0 9b 43 64
        E 0 82 46 66
        E 0 83 41 64
        E 0 8b 43 64
        E 0 8f 2e 66
        E 0 92 45 64
        E 0 93 41 5a
        E 0 9b 41 64
        E 0 9f 2e 5b
        E 0 82 45 64
        E 0 8b 41 64
        E 0 92 43 64
        E 0 9b 3f 66
        E 0 82 43 64
        E 0 83 41 64
        E 0 8b 3f 66
        E 0 8f 2e 66
        E 0 92 43 64
        E 0 93 3a 5b
        E 0 9b 3e 64
        E 0 9f 2e 5b
        E 0 82 43 64
        E 0 83 3a 66
        E 0 8b 3e 64
        E 0 8f 2e 66
        E 0 92 41 64
        E 0 93 3e 5a
        E 0 9b 3c 64
        E 0 9f 2e 5b
        E 0 83 3e 64
        E 0 8f 2e 66
        E 0 93 3c 5a
        E 0 9f 2d 5a
        E 0 82 41 64
        E 0 83 3c 64
        E 0 8b 3c 64
        E 0 8f 2d 64
        E 0 93 3e 5a
        E 0 9f 2e 5b
        E 0 83 3e 64
        E 0 8f 2e 66
        E 0 93 3e 5a
        E 0 9f 2e 5b
        E 0 83 3e 64
        E 0 8f 2e 66
        E 0 92 3a 66
        E 0 93 3a 5b
        E 0 9b 3a 66
        E 0 9f 2e 5b
        E 0 82 3a 66
        E 0 83 3a 66
        E 0 8b 3a 66
        E 0 8f 2e 66
        E 0 92 3e 64
        E 0 93 3e 5a
        E 0 9b 3e 64
        E 0 9f 32 5a
        E 0 82 3e 64
        E 0 83 3e 64
        E 0 8b 3e 64
        E 0 8f 32 64
        E 0 92 41 64
        E 0 93 41 5a
        E 1 9b 41 64
        E 0 9f 35 5a
        E 0 82 41 64
        E 0 83 41 64
        E 0 8b 41 64
        E 0 8f 35 64
        E 0 92 46 66
        E 0 93 46 5b
        E 0 9b 46 66
        E 0 9f 3a 5b
        E 0 82 46 66
        E 0 83 46 66
        E 0 8b 46 66
        E 0 8f 3a 66
        E 0 92 4a 64
        E 0 93 4a 5a
        E 0 9b 4a 64
        E 0 9f 3e 5a
        E 0 82 4a 64
        E 0 83 4a 64
        E 0 8b 4a 64
        E 0 8f 3e 64
        E 0 92 4b 66
        E 0 93 4b 5b
        E 0 9b 4b 66
        E 0 9f 3f 5b
        E 0 82 4b 66
        E 0 83 4b 66
        E 0 8b 4b 66
        E 0 8f 3f 66
        E 0 92 4d 64
        E 0 93 4d 5a
        E 0 9b 4d 64
        E 0 9f 41 5a
        E 0 82 4d 64
        E 0 83 4d 64
        E 0 8b 4d 64
        E 0 8f 41 64
        E 0 92 41 64
        E 0 93 41 5a
        E 0 9b 41 64
        E 0 9f 35 5a
        E 0 82 41 64
        E 0 83 41 64
        E 0 8b 41 64
        E 0 8f 35 64
        E 0 92 43 64
        E 0 93 3a 5b
        E 0 9b 43 64
        E 0 9f 33 5b
        E 0 82 43 64
        E 0 92 3f 66
        E 0 82 3f 66
        E 0 83 3a 66
        E 0 8b 43 64
        E 0 8f 33 66
        E 0 92 3a 66
        E 0 93 37 5a
        E 0 9b 3f 66
        E 0 9f 33 5b
        E 0 8b 3f 66
        E 0 9b 41 64
        E 0 82 3a 66
        E 0 83 37 64
        E 0 8b 41 64
        E 0 8f 33 66
        E 0 92 3a 66
        E 0 93 37 5a
        E 0 9b 43 64
        E 0 9f 33 5b
        E 0 82 3a 66
        E 0 8b 43 64
        E 0 92 43 64
        E 0 9b 45 64
        E 0 82 43 64
        E 0 83 37 64
        E 0 8b 45 64
        E 0 8f 33 66
        E 1 92 45 64
        E 0 93 37 5a
        E 0 9b 46 66
        E 0 9f 27 5b
        E 0 82 45 64
        E 0 8b 46 66
        E 0 92 46 66
        E 0 9b 48 64
        E 0 82 46 66
        E 0 83 37 64
        E 0 8b 48 64
        E 0 8f 27 66
        E 0 92 45 64
        E 0 9b 45 64
        E 0 82 45 64
        E 0 92 41 64
        E 0 82 41 64
        E 0 8b 45 64
        E 0 92 3c 64
        E 0 93 39 5a
        E 0 9b 41 64
        E 0 9f 35 5a
        E 0 8b 41 64
        E 0 9b 43 64
        E 0 82 3c 64
        E 0 83 39 64
        E 0 8b 43 64
        E 0 8f 35 64
        E 0 92 3c 64
        E 0 93 39 5a
        E 0 9b 45 64
        E 0 9f 35 5a
        E 0 82 3c 64
        E 0 8b 45 64
        E 0 92 45 64
        E 0 9b 46 66
        E 0 82 45 64
        E 0 83 39 64
        E 0 8b 46 66
        E 0 8f 35 64
        E 0 92 46 66
        E 0 93 39 5a
        E 0 9b 48 64
        E 0 9f 29 5a
        E 0 82 46 66
        E 0 92 48 64
        E 0 82 48 64
        E 0 83 39 64
        E 0 8b 48 64
        E 0 8f 29 64
        E 0 92 46 66
        E 0 9b 46 66
        E 0 82 46 66
        E 0 92 43 64
        E 0 82 43 64
        E 1 8b 46 66
        E 0 92 3e 64
        E 0 93 3a 5b
        E 0 9b 43 64
        E 0 9f 37 5a
        E 0 8b 43 64
        E 0 9b 45 64
        E 0 82 3e 64
        E 0 83 3a 66
        E 0 8b 45 64
        E 0 8f 37 64
        E 0 92 3e 64
        E 0 93 3a 5b
        E 0 9b 46 66
        E 0 9f 37 5a
        E 0 82 3e 64
        E 0 8b 46 66
        E 0 92 46 66
        E 0 9b 48 64
        E 0 82 46 66
        E 0 83 3a 66
        E 0 8b 48 64
        E 0 8f 37 64
        E 0 92 48 64
        E 0 93 3a 5b
        E 0 9b 4a 64
        E 0 9f 2b 5a
        E 0 82 48 64
        E 0 92 4a 64
        E 0 82 4a 64
        E 0 83 3a 66
        E 0 8b 4a 64
        E 0 8f 2b 64
        E 0 92 48 64
        E 0 9b 48 64
        E 0 82 48 64
        E 0 92 45 64
        E 0 82 45 64
        E 0 8b 48 64
        E 0 92 3f 66
        E 0 93 3c 5a
        E 0 9b 45 64
        E 0 9f 39 5a
        E 0 8b 45 64
        E 0 9b 46 66
        E 0 82 3f 66
        E 0 83 3c 64
        E 0 8b 46 66
        E 0 8f 39 64
        E 0 92 3f 66
        E 0 93 3c 5a
        E 0 9b 48 64
        E 0 9f 39 5a
        E 0 82 3f 66
        E 0 8b 48 64
        E 0 92 48 64
        E 0 9b 4a 64
        E 0 82 48 64
        E 0 83 3c 64
        E 0 8b 4a 64
        E 0 8f 39 64
        E 0 92 4a 64
        E 0 93 39 5a
        E 0 9b 4b 66
        E 0 9f 35 5a
        E 0 82 4a 64
        E 0 92 4b 66
        E 0 82 4b 66
        E 0 83 39 64
        E 0 8b 4b 66
        E 0 8f 35 64
        E 0 92 4a 64
        E 0 93 46 5b
        E 0 9b 4a 64
        E 0 9f 3a 5b
        E 0 82 4a 64
        E 0 83 46 66
        E 0 8b 4a 64
        E 0 8f 3a 66
        E 0 92 48 64
        E 0 93 45 5a
        E 0 9b 48 64
        E 0 9f 39 5a
        E 0 82 48 64
        E 0 83 45 64
        E 0 8b 48 64
        E 0 8f 39 64
        E 0 92 46 66
        E 0 93 43 5a
        E 0 9b 46 66
        E 0 9f 37 5a
        E 0 82 46 66
        E 0 83 43 64
        E 0 8b 46 66
        E 0 8f 37 64
        E 0 92 45 64
        E 0 93 41 5a
        E 0 9b 45 64
        E 0 9f 35 5a
        E 0 82 45 64
        E 0 83 41 64
        E 0 8b 45 64
        E 0 8f 35 64
        E 0 92 43 64
        E 0 93 3f 5b
        E 0 9b 43 64
        E 0 9f 33 5b
        E 0 82 43 64
        E 0 83 3f 66
        E 0 8b 43 64
        E 0 8f 33 66
        E 0 92 41 64
        E 1 93 3e 5a
        E 0 9b 41 64
        E 0 9f 32 5a
        E 0 82 41 64
        E 0 83 3e 64
        E 0 8b 41 64
        E 0 8f 32 64
        E 0 92 3f 66
        E 0 93 3c 5a
        E 0 9b 3f 66
        E 0 9f 30 5a
        E 0 82 3f 66
        E 0 83 3c 64
        E 0 8b 3f 66
        E 0 8f 30 64
        E 0 92 3e 64
        E 0 93 3a 5b
        E 0 9b 3e 64
        E 0 9f 2e 5b
        E 0 82 3e 64
        E 0 83 3a 66
        E 0 8b 3e 64
        E 0 8f 2e 66
        E 0 92 46 66
        E 0 93 46 5b
        E 0 9b 46 66
        E 0 9f 3a 5b
        E 0 82 46 66
        E 0 83 46 66
        E 0 8b 46 66
        E 0 8f 3a 66
        E 0 92 48 64
        E 0 93 3f 5b
        E 0 9b 48 64
        E 0 9f 33 5b
        E 0 82 48 64
        E 0 83 3f 66
        E 0 8b 48 64
        E 0 8f 33 66
        E 0 92 46 66
        E 0 93 41 5a
        E 0 9b 46 66
        E 0 9f 35 5a
        E 0 82 46 66
        E 0 8b 46 66
        E 0 92 45 64
        E 0 9b 45 64
        E 0 82 45 64
        E 0 83 41 64
        E 0 8b 45 64
        E 0 8f 35 64
        E 0 92 46 66
        E 0 93 3a 5b
        E 0 9b 46 66
        E 0 9f 2e 5b
        E 0 83 3a 66
        E 0 8f 2e 66
        E 0 93 3e 5a
        E 0 9f 2e 5b
        E 0 82 46 66
        E 0 83 3e 64
        E 0 8f 2e 66
        E 0 92 43 64
        E 0 93 3c 5a
        E 0 9f 2d 5a
        E 0 82 43 64
        E 0 83 3c 64
        E 0 8b 46 66
        E 0 8f 2d 64
        E 0 92 41 64
        E 0 93 3e 5a
        E 0 9f 2e 5b
        E 0 82 41 64
        E 0 92 3f 66
        E 0 82 3f 66
        E 0 83 3e 64
        E 0 8f 2e 66
        E 0 92 3e 64
        E 0 93 3e 5a
        E 1 9f 2e 5b
        E 0 82 3e 64
        E 0 92 3c 64
        E 0 82 3c 64
        E 0 83 3e 64
        E 0 8f 2e 66
        E 0 92 3a 66
        E 0 93 3e 5a
        E 0 9f 2e 5b
        E 0 82 3a 66
        E 0 83 3e 64
        E 0 8f 2e 66
        E 0 92 46 66
        E 0 93 3c 5a
        E 0 9f 2d 5a
        E 0 82 46 66
        E 0 83 3c 64
        E 0 8f 2d 64
        E 0 92 45 64
        E 0 93 3e 5a
        E 0 9f 2e 5b
        E 0 82 45 64
        E 0 92 43 64
        E 0 82 43 64
        E 0 83 3e 64
        E 0 8f 2e 66
        E 0 92 41 64
        E 0 93 3e 5a
        E 0 9f 2e 5b
        E 0 82 41 64
        E 0 92 3f 66
        E 0 82 3f 66
        E 0 83 3e 64
        E 0 8f 2e 66
        E 0 92 3e 64
        E 0 93 3e 5a
        E 0 9f 2e 5b
        E 0 82 3e 64
        E 0 83 3e 64
        E 0 8f 2e 66
        E 0 92 4a 64
        E 0 93 3c 5a
        E 0 9f 2d 5a
        E 0 82 4a 64
        E 0 83 3c 64
        E 0 8f 2d 64
        E 0 92 48 64
        E 0 93 3e 5a
        E 0 9f 2e 5b
        E 0 82 48 64
        E 0 92 46 66
        E 0 82 46 66
        E 0 83 3e 64
        E 0 8f 2e 66
        E 0 92 45 64
        E 0 93 3e 5a
        E 0 9f 2e 5b
        E 0 82 45 64
        E 0 92 43 64
        E 0 82 43 64
        E 0 83 3e 64
        E 0 8f 2e 66
        E 0 92 41 64
        E 0 93 3e 5a
        E 0 9f 2e 5b
        E 0 82 41 64
        E 0 83 3e 64
        E 0 8f 2e 66
        E 0 92 4f 64
        E 0 93 3c 5a
        E 0 9f 2d 5a
        E 0 82 4f 64
        E 0 83 3c 64
        E 0 8f 2d 64
        E 0 92 4d 64
        E 0 93 3e 5a
        E 0 9f 2e 5b
        E 38404 82 4d 64
        E 0 92 4b 66
        E 0 82 4b 66
        E 0 83 3e 64
        E 0 8f 2e 66
        E 0 92 4a 64
        E 0 93 3e 5a
        E 0 9f 2e 5b
        E 0 82 4a 64
        E 0 92 48 64
        E 0 82 48 64
        E 0 83 3e 64
        E 0 8f 2e 66
        E 0 92 4a 64
        E 0 82 4a 64
        E 0 92 46 66
        E 0 82 46 66
        E 0 92 41 64
        E 0 93 3e 5a
        E 0 9f 2e 5b
        E 0 83 3e 64
        E 0 8f 2e 66
        E 0 93 3c 5a
        E 0 9f 2d 5a
        E 0 82 41 64
        E 0 83 3c 64
        E 0 8f 2d 64
        E 0 92 41 64
        E 0 93 3e 5a
        E 0 9f 2e 5b
        E 0 82 41 64
        E 0 92 4d 64
        E 0 82 4d 64
        E 0 83 3e 64
        E 0 8f 2e 66
        E 0 92 52 66
        E 0 93 3e 5a
        E 1 9f 2e 5b
        E 0 82 52 66
        E 0 92 4a 64
        E 0 82 4a 64
        E 0 83 3e 64
        E 0 8f 2e 66
        E 0 92 48 64
        E 0 82 48 64
        E 0 92 45 64
        E 0 82 45 64
        E 0 92 41 64
        E 0 93 39 5a
        E 0 9f 35 5a
        E 0 83 39 64
        E 0 8f 35 64
        E 0 93 37 5a
        E 0 9f 33 5b
        E 0 82 41 64
        E 0 83 37 64
        E 0 8f 33 66
        E 0 92 41 64
        E 0 93 39 5a
        E 0 9f 35 5a
        E 0 82 41 64
        E 0 92 4d 64
        E 0 82 4d 64
        E 0 83 39 64
        E 0 8f 35 64
        E 0 92 51 64
        E 0 93 39 5a
        E 0 9f 35 5a
        E 0 82 51 64
        E 0 92 48 64
        E 0 82 48 64
        E 0 83 39 64
        E 0 8f 35 64
        E 0 92 4a 64
        E 0 93 35 5a
        E 0 9f 2e 5b
        E 0 82 4a 64
        E 0 83 35 64
        E 0 8f 2e 66
        E 0 92 52 66
        E 0 93 41 5a
        E 0 9f 2e 5b
        E 0 82 52 66
        E 0 83 41 64
        E 0 8f 2e 66
        E 0 92 48 64
        E 0 93 41 5a
        E 0 9f 35 5a
        E 0 82 48 64
        E 0 83 41 64
        E 0 8f 35 64
        E 0 92 51 64
        E 0 93 41 5a
        E 0 9f 29 5a
        E 0 82 51 64
        E 0 83 41 64
        E 0 8f 29 64
        E 0 92 46 66
        E 0 93 3e 5a
        E 0 9f 2e 5b
        E 0 83 3e 64
        E 0 8f 2e 66
        E 0 93 3e 5a
        E 0 9f 2e 5b
        E 0 82 46 66
        E 0 83 3e 64
        E 0 8f 2e 66
        E 0 92 4f 64
        E 0 93 3c 5a
        E 0 9f 2d 5a
        E 0 82 4f 64
        E 0 83 3c 64
        E 0 8f 2d 64
        E 0 92 4d 64
        E 0 93 3e 5a
        E 0 9f 2e 5b
        E 0 82 4d 64
        E 0 92 4b 66
        E 0 82 4b 66
        E 0 83 3e 64
        E 0 8f 2e 66
        E 0 92 4a 64
        E 0 93 3e 5a
        E 0 9f 2e 5b
        E 0 82 4a 64
        E 0 92 48 64
        E 0 82 48 64
        E 0 83 3e 64
        E 0 8f 2e 66
        E 0 92 46 66
        E 0 9b 46 66
        E 0 93 37 5a
        E 1 9f 33 5b
        E 0 82 46 66
        E 0 8f 33 66
        E 0 92 48 64
        E 0 9f 32 5a
        E 0 82 48 64
        E 0 83 37 64
        E 0 8b 46 66
        E 0 8f 32 64
        E 0 92 46 66
        E 0 93 37 5a
        E 0 9b 43 64
        E 0 9f 33 5b
        E 0 82 46 66
        E 0 92 44 66
        E 0 82 44 66
        E 0 83 37 64
        E 0 8f 33 66
        E 0 92 43 64
        E 0 93 37 5a
        E 0 9f 27 5b
        E 0 82 43 64
        E 0 92 41 64
        E 0 82 41 64
        E 0 83 37 64
        E 0 8b 43 64
        E 0 8f 27 66
        E 0 92 3f 66
        E 0 9b 3f 66
        E 0 93 37 5a
        E 0 9f 35 5a
        E 0 82 3f 66
        E 0 8f 35 64
        E 0 92 4b 66
        E 0 9f 33 5b
        E 0 82 4b 66
        E 0 83 37 64
        E 0 8f 33 66
        E 0 92 4a 64
        E 0 93 37 5a
        E 0 9f 35 5a
        E 0 82 4a 64
        E 0 92 48 64
        E 0 82 48 64
        E 0 83 37 64
        E 0 8f 35 64
        E 0 92 46 66
        E 0 93 37 5a
        E 0 9f 29 5a
        E 0 82 46 66
        E 0 92 44 66
        E 0 82 44 66
        E 0 83 37 64
        E 0 8b 3f 66
        E 0 8f 29 64
        E 0 92 43 64
        E 0 9b 43 64
        E 0 93 3a 5b
        E 0 9f 33 5b
        E 1 82 43 64
        E 0 8f 33 66
        E 0 92 4f 64
        E 0 9f 32 5a
        E 0 82 4f 64
        E 0 83 3a 66
        E 0 8f 32 64
        E 0 92 4d 64
        E 0 93 3a 5b
        E 0 9f 33 5b
        E 0 82 4d 64
        E 0 92 4b 66
        E 0 82 4b 66
        E 0 83 3a 66
        E 0 8f 33 66
        E 0 92 4a 64
        E 0 93 3a 5b
        E 0 9f 27 5b
        E 0 82 4a 64
        E 0 92 48 64
        E 0 82 48 64
        E 0 83 3a 66
        E 0 8b 43 64
        E 0 8f 27 66
        E 0 92 46 66
        E 0 9b 46 66
        E 0 93 37 5a
        E 0 9f 33 5b
        E 0 8f 33 66
        E 0 9f 32 5a
        E 0 83 37 64
        E 0 8f 32 64
        E 0 93 37 5a
        E 0 9f 33 5b
        E 0 82 46 66
        E 0 83 37 64
        E 0 8b 46 66
        E 0 8f 33 66
        E 0 92 48 64
        E 0 93 37 5a
        E 0 9b 48 64
        E 0 9f 27 5b
        E 0 82 48 64
        E 0 8b 48 64
        E 0 92 49 66
        E 0 9b 49 66
        E 0 82 49 66
        E 0 83 37 64
        E 0 8b 49 66
        E 0 8f 27 66
        E 0 92 48 64
        E 0 9b 48 64
        E 0 8b 48 64
        E 0 9b 46 66
        E 0 8b 46 66
        E 0 93 3f 5b
        E 0 9b 44 66
        E 0 9f 38 5b
        E 0 82 48 64
        E 0 8f 38 66
        E 0 92 50 66
        E 1 9f 37 5a
        E 0 82 50 66
        E 0 83 3f 66
        E 0 8b 44 66
        E 0 8f 37 64
        E 0 92 4f 64
        E 0 93 3f 5b
        E 0 9f 38 5b
        E 0 82 4f 64
        E 0 92 4d 64
        E 0 82 4d 64
        E 0 83 3f 66
        E 0 8f 38 66
        E 0 92 4b 66
        E 0 93 3f 5b
        E 0 9f 2c 5b
        E 0 82 4b 66
        E 0 92 49 66
        E 0 82 49 66
        E 0 83 3f 66
        E 0 8f 2c 66
        E 0 92 48 64
        E 0 9b 48 64
        E 0 93 39 5a
        E 0 9f 35 5a
        E 0 82 48 64
        E 0 8f 35 64
        E 0 92 4a 64
        E 0 9f 33 5b
        E 0 82 4a 64
        E 0 83 39 64
        E 0 8b 48 64
        E 0 8f 33 66
        E 0 92 48 64
        E 0 93 39 5a
        E 0 9b 45 64
        E 0 9f 35 5a
        E 0 82 48 64
        E 0 92 46 66
        E 0 82 46 66
        E 0 83 39 64
        E 0 8f 35 64
        E 0 92 45 64
        E 0 93 39 5a
        E 0 9f 29 5a
        E 0 82 45 64
        E 0 92 43 64
        E 0 82 43 64
        E 0 83 39 64
        E 0 8b 45 64
        E 0 8f 29 64
        E 0 92 41 64
        E 0 9b 41 64
        E 0 93 39 5a
        E 0 9f 35 5a
        E 0 82 41 64
        E 0 8f 35 64
        E 0 92 4d 64
        E 0 9f 33 5b
        E 0 82 4d 64
        E 0 83 39 64
        E 0 8f 33 66
        E 1 92 4b 66
        E 0 93 39 5a
        E 0 9f 35 5a
        E 0 82 4b 66
        E 0 92 4a 64
        E 0 82 4a 64
        E 0 83 39 64
        E 0 8f 35 64
        E 0 92 48 64
        E 0 93 39 5a
        E 0 9f 29 5a
        E 0 82 48 64
        E 0 92 46 66
        E 0 82 46 66
        E 0 83 39 64
        E 0 8b 41 64
        E 0 8f 29 64
        E 0 92 45 64
        E 0 9b 45 64
        E 0 93 3c 5a
        E 0 9f 35 5a
        E 0 82 45 64
        E 0 8f 35 64
        E 0 92 51 64
        E 0 9f 33 5b
        E 0 82 51 64
        E 0 83 3c 64
        E 0 8f 33 66
        E 0 92 4f 64
        E 0 93 3c 5a
        E 0 9f 35 5a
        E 0 82 4f 64
        E 0 92 4d 64
        E 0 82 4d 64
        E 0 83 3c 64
        E 0 8f 35 64
        E 0 92 4b 66
        E 0 93 3c 5a
        E 0 9f 29 5a
        E 0 82 4b 66
        E 0 92 4a 64
        E 0 82 4a 64
        E 0 83 3c 64
        E 0 8b 45 64
        E 0 8f 29 64
        E 0 92 48 64
        E 0 9b 48 64
        E 1 93 39 5a
        E 0 9f 35 5a
        E 0 8f 35 64
        E 0 9f 33 5b
        E 0 83 39 64
        E 0 8f 33 66
        E 0 93 39 5a
        E 0 9f 35 5a
        E 0 82 48 64
        E 0 83 39 64
        E 0 8b 48 64
        E 0 8f 35 64
        E 0 92 4a 64
        E 0 93 39 5a
        E 0 9b 4a 64
        E 0 9f 29 5a
        E 0 82 4a 64
        E 0 8b 4a 64
        E 0 92 4b 66
        E 0 9b 4b 66
        E 0 82 4b 66
        E 0 83 39 64
        E 0 8b 4b 66
        E 0 8f 29 64
        E 0 92 4a 64
        E 0 9b 4a 64
        E 0 82 4a 64
        E 0 8b 4a 64
        E 0 92 48 64
        E 0 9b 48 64
        E 0 82 48 64
        E 0 8b 48 64
        E 0 92 46 66
        E 0 93 41 5a
        E 0 9b 46 66
        E 0 9f 3a 5b
        E 0 8f 3a 66
        E 0 9f 38 5b
        E 0 82 46 66
        E 0 83 41 64
        E 0 8b 46 66
        E 0 8f 38 66
        E 0 93 3a 5b
        E 0 9f 37 5a
        E 0 83 3a 66
        E 0 8f 37 64
        E 0 92 43 64
        E 0 93 37 5a
        E 0 9b 43 64
        E 0 9f 33 5b
        E 0 82 43 64
        E 0 83 37 64
        E 0 8b 43 64
        E 0 8f 33 66
        E 0 92 44 66
        E 0 9b 44 66
        E 0 82 44 66
        E 0 8b 44 66
        E 0 92 41 64
        E 0 9b 41 64
        E 0 82 41 64
        E 0 8b 41 64
        E 0 92 3a 66
        E 0 93 3e 5a
        E 0 9b 46 66
        E 0 9f 2e 5b
        E 0 8f 2e 66
        E 0 9f 2d 5a
        E 0 82 3a 66
        E 0 83 3e 64
        E 0 8f 2d 64
        E 0 92 3a 66
        E 0 93 3e 5a
        E 0 9f 2e 5b
        E 0 82 3a 66
        E 0 92 48 64
        E 0 82 48 64
        E 0 83 3e 64
        E 0 8b 46 66
        E 0 8f 2e 66
        E 1 92 46 66
        E 0 93 3e 5a
        E 0 9b 41 64
        E 0 9f 2e 5b
        E 0 82 46 66
        E 0 92 44 66
        E 0 82 44 66
        E 0 83 3e 64
        E 0 8b 41 64
        E 0 8f 2e 66
        E 0 92 43 64
        E 0 9b 43 64
        E 0 82 43 64
        E 0 8b 43 64
        E 0 92 3f 66
        E 0 9b 41 64
        E 0 82 3f 66
        E 0 8b 41 64
        E 0 92 3a 66
        E 0 93 37 5a
        E 0 9b 4b 66
        E 0 9f 2e 5b
        E 0 8f 2e 66
        E 0 9f 2d 5a
        E 0 82 3a 66
        E 0 83 37 64
        E 0 8f 2d 64
        E 0 92 3a 66
        E 0 93 37 5a
        E 0 9f 2e 5b
        E 0 82 3a 66
        E 0 92 46 66
        E 0 82 46 66
        E 0 83 37 64
        E 0 8b 4b 66
        E 0 8f 2e 66
        E 0 92 4b 66
        E 0 93 37 5a
        E 0 9b 43 64
        E 0 9f 2e 5b
        E 0 82 4b 66
        E 0 92 43 64
        E 0 82 43 64
        E 0 83 37 64
        E 0 8b 43 64
        E 0 8f 2e 66
        E 0 92 44 66
        E 0 9b 44 66
        E 0 82 44 66
        E 0 8b 44 66
        E 0 92 41 64
        E 1 9b 41 64
        E 0 82 41 64
        E 0 8b 41 64
        E 0 92 3a 66
        E 0 93 3e 5a
        E 0 9b 46 66
        E 0 9f 2e 5b
        E 0 8f 2e 66
        E 0 9f 2d 5a
        E 0 82 3a 66
        E 0 83 3e 64
        E 0 8f 2d 64
        E 0 92 3a 66
        E 0 93 3e 5a
        E 0 9f 2e 5b
        E 0 82 3a 66
        E 0 92 48 64
        E 0 82 48 64
        E 0 83 3e 64
        E 0 8b 46 66
        E 0 8f 2e 66
        E 0 92 46 66
        E 0 93 3e 5a
        E 0 9b 41 64
        E 0 9f 2e 5b
        E 0 82 46 66
        E 0 92 44 66
        E 0 82 44 66
        E 0 83 3e 64
        E 0 8b 41 64
        E 0 8f 2e 66
        E 0 92 43 64
        E 0 9b 43 64
        E 0 82 43 64
        E 0 8b 43 64
        E 0 92 41 64
        E 0 9b 41 64
        E 0 82 41 64
        E 0 8b 41 64
        E 0 92 3f 66
        E 0 93 3a 5b
        E 0 9b 3f 66
        E 0 9f 33 5b
        E 0 8f 33 66
        E 0 9f 32 5a
        E 1 82 3f 66
        E 0 83 3a 66
        E 0 8b 3f 66
        E 0 8f 32 64
        E 0 92 46 66
        E 0 93 43 5a
        E 0 9b 46 66
        E 0 9f 33 5b
        E 0 82 46 66
        E 0 83 43 64
        E 0 8b 46 66
        E 0 8f 33 66
        E 0 92 46 66
        E 0 93 43 5a
        E 0 9b 46 66
        E 0 9f 27 5b
        E 0 82 46 66
        E 0 83 43 64
        E 0 8b 46 66
        E 0 8f 27 66
        E 0 92 48 64
        E 0 9b 48 64
        E 0 82 48 64
        E 0 8b 48 64
        E 0 92 46 66
        E 0 9b 46 66
        E 0 82 46 66
        E 0 8b 46 66
        E 0 92 44 66
        E 0 93 3f 5b
        E 0 9b 44 66
        E 0 9f 38 5b
        E 0 82 44 66
        E 0 8b 44 66
        E 0 8f 38 66
        E 0 92 46 66
        E 0 9b 46 66
        E 0 9f 37 5a
        E 0 82 46 66
        E 0 83 3f 66
        E 0 8b 46 66
        E 0 8f 37 64
        E 0 92 48 64
        E 0 93 3f 5b
        E 0 9b 48 64
        E 0 9f 38 5b
        E 0 82 48 64
        E 0 83 3f 66
        E 0 8b 48 64
        E 0 8f 38 66
        E 0 92 48 64
        E 0 93 3c 5a
        E 0 9b 48 64
        E 0 9f 2c 5b
        E 0 82 48 64
        E 0 83 3c 64
        E 0 8b 48 64
        E 0 8f 2c 66
        E 0 92 4a 64
        E 0 9b 4a 64
        E 0 82 4a 64
        E 0 8b 4a 64
        E 0 92 48 64
        E 0 9b 48 64
        E 0 82 48 64
        E 0 8b 48 64
        E 0 92 46 66
        E 0 93 41 5a
        E 0 9b 46 66
        E 0 9f 3a 5b
        E 0 82 46 66
        E 0 8b 46 66
        E 0 8f 3a 66
        E 0 92 48 64
        E 0 9b 48 64
        E 0 9f 3c 5a
        E 0 82 48 64
        E 0 83 41 64
        E 0 8b 48 64
        E 0 8f 3c 64
        E 0 92 4a 64
        E 1 93 41 5a
        E 0 9b 4a 64
        E 0 9f 3a 5b
        E 38403 82 4a 64
        E 0 83 41 64
        E 0 8b 4a 64
        E 1 8f 3a 66
        E 0 92 4a 64
        E 0 93 41 5a
        E 0 9b 4a 64
        E 0 9f 38 5b
        E 0 82 4a 64
        E 0 83 41 64
        E 0 8b 4a 64
        E 0 8f 38 66
        E 0 92 4b 66
        E 0 93 3a 5b
        E 0 9b 4b 66
        E 0 9f 37 5a
        E 0 82 4b 66
        E 0 83 3a 66
        E 0 8b 4b 66
        E 0 8f 37 64
        E 0 92 4a 64
        E 0 93 3c 5a
        E 0 9b 4a 64
        E 0 9f 38 5b
        E 0 82 4a 64
        E 0 8b 4a 64
        E 0 92 48 64
        E 0 9b 48 64
        E 0 82 48 64
        E 0 83 3c 64
        E 0 8b 48 64
        E 0 8f 38 66
        E 0 92 46 66
        E 0 93 41 5a
        E 0 9b 46 66
        E 0 9f 32 5a
        E 0 82 46 66
        E 0 8b 46 66
        E 0 92 44 66
        E 0 9b 44 66
        E 0 82 44 66
        E 0 83 41 64
        E 0 8b 44 66
        E 0 8f 32 64
        E 0 92 43 64
        E 0 93 3e 5a
        E 1 9b 43 64
        E 0 9f 2e 5b
        E 0 82 43 64
        E 0 8b 43 64
        E 0 92 41 64
        E 0 9b 41 64
        E 0 82 41 64
        E 0 83 3e 64
        E 0 8b 41 64
        E 0 8f 2e 66
        E 0 92 43 64
        E 0 93 3a 5b
        E 0 9b 43 64
        E 0 9f 33 5b
        E 0 82 43 64
        E 0 83 3a 66
        E 0 8b 43 64
        E 0 8f 33 66
        E 0 92 41 64
        E 0 93 3a 5b
        E 0 9b 41 64
        E 0 9f 2b 5a
        E 0 82 41 64
        E 0 8b 41 64
        E 0 92 3f 66
        E 0 9b 3f 66
        E 0 82 3f 66
        E 0 83 3a 66
        E 0 8b 3f 66
        E 0 8f 2b 64
        E 0 92 41 64
        E 0 93 3c 5a
        E 0 9b 41 64
        E 0 9f 2c 5b
        E 0 82 41 64
        E 0 83 3c 64
        E 0 8b 41 64
        E 0 8f 2c 66
        E 0 92 3e 64
        E 0 93 3a 5b
        E 0 9b 3e 64
        E 0 9f 2e 5b
        E 0 82 3e 64
        E 0 83 3a 66
        E 0 8b 3e 64
        E 0 8f 2e 66
        E 0 92 3f 66
        E 0 93 3a 5b
        E 0 9b 3f 66
        E 0 9f 27 5b
        E 0 83 3a 66
        E 0 8f 27 66
        E 0 93 37 5a
        E 0 9f 33 5b
        E 0 8f 33 66
        E 0 9f 32 5a
        E 0 82 3f 66
        E 0 83 37 64
        E 0 8b 3f 66
        E 0 8f 32 64
        E 0 93 37 5a
        E 0 9f 33 5b
        E 0 83 37 64
        E 1 8f 33 66
        E 0 92 43 64
        E 0 93 37 5a
        E 0 9b 43 64
        E 0 9f 27 5b
        E 0 82 43 64
        E 0 83 37 64
        E 0 8b 43 64
        E 0 8f 27 66
        E 0 92 41 64
        E 0 9b 41 64
        E 0 82 41 64
        E 0 92 3e 64
        E 0 82 3e 64
        E 0 8b 41 64
        E 0 92 3a 66
        E 0 93 3e 5a
        E 0 9b 3e 64
        E 0 9f 2e 5b
        E 0 8b 3e 64
        E 0 9b 3f 66
        E 0 82 3a 66
        E 0 83 3e 64
        E 0 8b 3f 66
        E 0 8f 2e 66
        E 0 92 3a 66
        E 0 93 3e 5a
        E 0 9b 41 64
        E 0 9f 2e 5b
        E 0 82 3a 66
        E 0 8b 41 64
        E 0 92 41 64
        E 0 9b 43 64
        E 0 82 41 64
        E 0 83 3e 64
        E 0 8b 43 64
        E 0 8f 2e 66
        E 0 92 43 64
        E 0 93 3e 5a
        E 0 9b 44 66
        E 0 9f 2e 5b
        E 0 82 43 64
        E 0 92 44 66
        E 0 82 44 66
        E 0 83 3e 64
        E 0 8b 44 66
        E 0 8f 2e 66
        E 0 92 43 64
        E 0 9b 43 64
        E 1 82 43 64
        E 0 92 3f 66
        E 0 82 3f 66
        E 0 8b 43 64
        E 0 92 3a 66
        E 0 93 3f 5b
        E 0 9b 3f 66
        E 0 9f 2e 5b
        E 0 8b 3f 66
        E 0 9b 41 64
        E 0 82 3a 66
        E 0 83 3f 66
        E 0 8b 41 64
        E 0 8f 2e 66
        E 0 92 3a 66
        E 0 93 3f 5b
        E 0 9b 43 64
        E 0 9f 2e 5b
        E 0 82 3a 66
        E 0 8b 43 64
        E 0 92 43 64
        E 0 9b 44 66
        E 0 82 43 64
        E 0 83 3f 66
        E 0 8b 44 66
        E 0 8f 2e 66
        E 0 92 44 66
        E 0 93 3f 5b
        E 0 9b 46 66
        E 0 9f 2e 5b
        E 0 82 44 66
        E 0 92 46 66
        E 0 82 46 66
        E 0 83 3f 66
        E 0 8b 46 66
        E 0 8f 2e 66
        E 0 92 44 66
        E 0 9b 44 66
        E 0 82 44 66
        E 0 92 41 64
        E 0 82 41 64
        E 0 8b 44 66
        E 0 92 3a 66
        E 0 93 41 5a
        E 0 9b 41 64
        E 0 9f 2e 5b
        E 0 8b 41 64
        E 0 9b 43 64
        E 0 82 3a 66
        E 0 83 41 64
        E 0 8b 43 64
        E 0 8f 2e 66
        E 0 92 3a 66
        E 1 93 41 5a
        E 0 9b 44 66
        E 0 9f 2e 5b
        E 0 82 3a 66
        E 0 8b 44 66
        E 0 92 44 66
        E 0 9b 46 66
        E 0 82 44 66
        E 0 83 41 64
        E 0 8b 46 66
        E 0 8f 2e 66
        E 0 92 46 66
        E 0 93 41 5a
        E 0 9b 48 64
        E 0 9f 2e 5b
        E 0 82 46 66
        E 0 92 48 64
        E 0 82 48 64
        E 0 83 41 64
        E 0 8b 48 64
        E 0 8f 2e 66
        E 0 92 46 66
        E 0 9b 46 66
        E 0 82 46 66
        E 0 92 43 64
        E 0 82 43 64
        E 0 8b 46 66
        E 0 92 3a 66
        E 0 93 43 5a
        E 0 9b 43 64
        E 0 9f 2e 5b
        E 0 8b 43 64
        E 0 9b 44 66
        E 0 82 3a 66
        E 0 83 43 64
        E 0 8b 44 66
        E 0 8f 2e 66
        E 0 92 3a 66
        E 0 93 43 5a
        E 0 9b 46 66
        E 0 9f 2e 5b
        E 0 82 3a 66
        E 0 8b 46 66
        E 0 92 46 66
        E 0 9b 48 64
        E 0 82 46 66
        E 0 83 43 64
        E 0 8b 48 64
        E 0 8f 2e 66
        E 0 92 48 64
        E 0 93 43 5a
        E 0 9b 4a 64
        E 0 9f 2e 5b
        E 1 82 48 64
        E 0 92 4a 64
        E 0 82 4a 64
        E 0 83 43 64
        E 0 8b 4a 64
        E 0 8f 2e 66
        E 0 92 4b 66
        E 0 93 4b 5b
        E 0 9b 4b 66
        E 0 9f 3f 5b
        E 0 82 4b 66
        E 0 83 4b 66
        E 0 8b 4b 66
        E 0 8f 3f 66
        E 0 92 4a 64
        E 0 93 4a 5a
        E 0 9b 4a 64
        E 0 9f 3e 5a
        E 0 82 4a 64
        E 0 83 4a 64
        E 0 8b 4a 64
        E 0 8f 3e 64
        E 0 92 48 64
        E 0 93 48 5a
        E 0 9b 48 64
        E 0 9f 3c 5a
        E 0 82 48 64
        E 0 83 48 64
        E 0 8b 48 64
        E 0 8f 3c 64
        E 0 92 46 66
        E 1 93 46 5b
        E 0 9b 46 66
        E 0 9f 3a 5b
        E 0 82 46 66
        E 0 83 46 66
        E 0 8b 46 66
        E 0 8f 3a 66
        E 0 92 44 66
        E 0 93 44 5b
        E 0 9b 44 66
        E 0 9f 38 5b
        E 0 82 44 66
        E 0 83 44 66
        E 0 8b 44 66
        E 0 8f 38 66
        E 0 92 43 64
        E 0 93 43 5a
        E 0 9b 43 64
        E 0 9f 37 5a
        E 0 82 43 64
        E 0 83 43 64
        E 0 8b 43 64
        E 0 8f 37 64
        E 0 92 41 64
        E 0 93 41 5a
        E 0 9b 41 64
        E 0 9f 35 5a
        E 0 82 41 64
        E 0 83 41 64
        E 0 8b 41 64
        E 0 8f 35 64
        E 1 92 3f 66
        E 0 93 3f 5b
        E 0 9b 3f 66
        E 0 9f 33 5b
        E 0 82 3f 66
        E 0 83 3f 66
        E 0 8b 3f 66
        E 0 8f 33 66
        E 0 92 46 66
        E 0 93 46 5b
        E 0 9b 46 66
        E 0 9f 3a 5b
        E 0 83 46 66
        E 0 8f 3a 66
        E 0 93 3a 5b
        E 0 9f 2e 5b
        E 0 83 3a 66
        E 0 8f 2e 66
        E 0 93 39 5a
        E 0 9f 2d 5a
        E 0 83 39 64
        E 0 8b 46 66
        E 0 8f 2d 64
        E 0 93 3a 5b
        E 0 9f 2e 5b
        E 0 83 3a 66
        E 0 8f 2e 66
        E 0 93 3a 5b
        E 0 9f 2e 5b
        E 0 82 46 66
        E 0 83 3a 66
        E 0 8f 2e 66
        E 0 92 48 64
        E 0 92 46 66
        E 0 93 46 5b
        E 0 9b 48 64
        E 0 9b 46 66
        E 0 9f 3a 5b
        E 0 82 46 66
        E 0 8b 46 66
        E 0 92 45 64
        E 0 9b 45 64
        E 0 82 48 64
        E 0 82 45 64
        E 0 83 46 66
        E 0 8b 48 64
        E 0 8b 45 64
        E 0 8f 3a 66
        E 0 92 46 66
        E 0 93 46 5b
        E 0 9b 46 66
        E 0 9f 3a 5b
        E 0 82 46 66
        E 0 83 46 66
        E 0 8b 46 66
        E 0 8f 3a 66
        E 0 92 48 64
        E 0 92 46 66
        E 0 93 44 5b
        E 0 9b 48 64
        E 0 9b 46 66
        E 1 9f 38 5b
        E 0 82 46 66
        E 0 8b 46 66
        E 0 92 45 64
        E 0 9b 45 64
        E 0 82 48 64
        E 0 82 45 64
        E 0 83 44 66
        E 0 8b 48 64
        E 0 8b 45 64
        E 0 8f 38 66
        E 0 92 46 66
        E 0 93 44 5b
        E 0 9b 46 66
        E 0 9f 38 5b
        E 0 82 46 66
        E 0 83 44 66
        E 0 8b 46 66
        E 0 8f 38 66
        E 0 92 48 64
        E 0 92 46 66
        E 0 93 43 5a
        E 0 9b 48 64
        E 0 9b 46 66
        E 0 9f 37 5a
        E 0 82 46 66
        E 0 8b 46 66
        E 0 92 45 64
        E 0 9b 45 64
        E 0 82 48 64
        E 0 82 45 64
        E 0 83 43 64
        E 0 8b 48 64
        E 0 8b 45 64
        E 0 8f 37 64
        E 0 92 46 66
        E 0 93 43 5a
        E 0 9b 46 66
        E 0 9f 37 5a
        E 0 82 46 66
        E 0 83 43 64
        E 0 8b 46 66
        E 0 8f 37 64
        E 0 92 48 64
        E 0 92 46 66
        E 0 93 41 5a
        E 0 9b 48 64
        E 0 9b 46 66
        E 0 9f 35 5a
        E 0 82 46 66
        E 0 8b 46 66
        E 0 92 45 64
        E 0 9b 45 64
        E 0 82 48 64
        E 0 82 45 64
        E 0 83 41 64
        E 0 8b 48 64
        E 0 8b 45 64
        E 0 8f 35 64
        E 0 92 46 66
        E 0 93 41 5a
        E 0 9b 46 66
        E 0 9f 35 5a
        E 0 82 46 66
        E 0 83 41 64
        E 0 8b 46 66
        E 0 8f 35 64
        E 1 92 48 64
        E 0 92 46 66
        E 0 93 3f 5b
        E 0 9b 48 64
        E 0 9b 46 66
        E 0 9f 33 5b
        E 0 82 46 66
        E 0 8b 46 66
        E 0 92 45 64
        E 0 9b 45 64
        E 0 82 48 64
        E 0 82 45 64
        E 0 83 3f 66
        E 0 8b 48 64
        E 0 8b 45 64
        E 0 8f 33 66
        E 0 92 46 66
        E 0 93 3f 5b
        E 0 9b 46 66
        E 0 9f 33 5b
        E 0 82 46 66
        E 0 83 3f 66
        E 0 8b 46 66
        E 0 8f 33 66
        E 0 92 48 64
        E 0 92 46 66
        E 0 93 3e 5a
        E 0 9b 48 64
        E 0 9b 46 66
        E 0 9f 32 5a
        E 0 82 46 66
        E 0 8b 46 66
        E 0 92 45 64
        E 0 9b 45 64
        E 0 82 48 64
        E 0 82 45 64
        E 0 83 3e 64
        E 0 8b 48 64
        E 0 8b 45 64
        E 0 8f 32 64
        E 0 92 46 66
        E 0 93 3e 5a
        E 0 9b 46 66
        E 1 9f 32 5a
        E 0 82 46 66
        E 0 83 3e 64
        E 0 8b 46 66
        E 0 8f 32 64
        E 0 92 4b 66
        E 0 93 3c 5a
        E 0 9b 4b 66
        E 0 9f 30 5a
        E 0 82 4b 66
        E 0 83 3c 64
        E 0 8b 4b 66
        E 0 8f 30 64
        E 0 92 4a 64
        E 0 93 3c 5a
        E 0 9b 4a 64
        E 0 9f 30 5a
        E 0 82 4a 64
        E 0 8b 4a 64
        E 0 92 48 64
        E 0 9b 48 64
        E 0 82 48 64
        E 0 83 3c 64
        E 0 8b 48 64
        E 0 8f 30 64
        E 0 92 46 66
        E 0 93 3e 5a
        E 0 9b 46 66
        E 0 9f 32 5a
        E 0 82 46 66
        E 0 83 3e 64
        E 0 8b 46 66
        E 0 8f 32 64
        E 0 92 44 66
        E 0 93 3e 5a
        E 0 9b 44 66
        E 0 9f 32 5a
        E 0 82 44 66
        E 0 83 3e 64
        E 0 8b 44 66
        E 0 8f 32 64
        E 0 92 43 64
        E 0 93 3f 5b
        E 0 9b 43 64
        E 0 9f 33 5b
        E 0 82 43 64
        E 0 83 3f 66
        E 0 8b 43 64
        E 0 8f 33 66
        E 0 92 41 64
        E 0 93 37 5a
        E 0 9b 41 64
        E 0 9f 2b 5a
        E 1 82 41 64
        E 0 8b 41 64
        E 0 92 3f 66
        E 0 9b 3f 66
        E 0 82 3f 66
        E 0 83 37 64
        E 0 8b 3f 66
        E 0 8f 2b 64
        E 0 92 41 64
        E 0 93 38 5b
        E 0 9b 41 64
        E 0 9f 2c 5b
        E 0 82 41 64
        E 0 83 38 66
        E 0 8b 41 64
        E 0 8f 2c 66
        E 0 92 3e 64
        E 0 93 3a 5b
        E 0 9b 3e 64
        E 0 9f 2e 5b
        E 0 82 3e 64
        E 0 83 3a 66
        E 0 8b 3e 64
        E 0 8f 2e 66
        E 0 92 3f 66
        E 0 93 3a 5b
        E 0 9b 3f 66
        E 0 9f 27 5b
        E 0 83 3a 66
        E 0 8f 27 66
        E 0 93 37 5a
        E 0 9f 33 5b
        E 0 82 3f 66
        E 0 8f 33 66
        E 0 92 48 64
        E 0 9f 32 5a
        E 0 82 48 64
        E 0 83 37 64
        E 0 8b 3f 66
        E 0 8f 32 64
        E 1 92 46 66
        E 0 93 37 5a
        E 0 9f 33 5b
        E 0 82 46 66
        E 0 92 44 66
        E 0 82 44 66
        E 0 83 37 64
        E 0 8f 33 66
        E 0 92 43 64
        E 0 93 37 5a
        E 0 9f 27 5b
        E 0 82 43 64
        E 0 92 41 64
        E 0 82 41 64
        E 0 83 37 64
        E 0 8f 27 66
        E 0 92 3f 66
        E 0 93 37 5a
        E 0 9f 33 5b
        E 0 82 3f 66
        E 0 8f 33 66
        E 0 92 4b 66
        E 0 9f 32 5a
        E 0 82 4b 66
        E 0 83 37 64
        E 0 8f 32 64
        E 0 92 4a 64
        E 0 93 37 5a
        E 0 9f 33 5b
        E 0 82 4a 64
        E 0 92 48 64
        E 0 82 48 64
        E 0 83 37 64
        E 0 8f 33 66
        E 0 92 46 66
        E 0 93 37 5a
        E 0 9f 27 5b
        E 0 82 46 66
        E 0 92 44 66
        E 0 82 44 66
        E 0 83 37 64
        E 0 8f 27 66
        E 0 92 43 64
        E 0 93 3a 5b
        E 0 9f 33 5b
        E 1 82 43 64
        E 0 8f 33 66
        E 0 92 4f 64
        E 0 9f 32 5a
        E 0 82 4f 64
        E 0 83 3a 66
        E 0 8f 32 64
        E 0 92 4d 64
        E 0 93 3a 5b
        E 0 9f 33 5b
        E 0 82 4d 64
        E 0 92 4b 66
        E 0 82 4b 66
        E 0 83 3a 66
        E 0 8f 33 66
        E 0 92 4a 64
        E 0 93 3a 5b
        E 0 9f 27 5b
        E 0 82 4a 64
        E 0 92 48 64
        E 0 82 48 64
        E 0 83 3a 66
        E 0 8f 27 66
        E 0 92 46 66
        E 0 93 37 5a
        E 0 9f 33 5b
        E 0 8f 33 66
        E 0 9f 32 5a
        E 0 83 37 64
        E 0 8f 32 64
        E 0 93 37 5a
        E 0 9f 33 5b
        E 0 82 46 66
        E 0 83 37 64
        E 0 8f 33 66
        E 0 92 48 64
        E 0 93 37 5a
        E 0 9f 27 5b
        E 0 82 48 64
        E 0 92 4a 64
        E 0 82 4a 64
        E 0 83 37 64
        E 0 8f 27 66
        E 0 92 4b 66
        E 0 82 4b 66
        E 0 92 3f 66
        E 0 93 37 5a
        E 0 9f 33 5b
        E 0 8f 33 66
        E 0 9f 32 5a
        E 0 82 3f 66
        E 0 83 37 64
        E 0 8f 32 64
        E 0 93 37 5a
        E 0 9f 33 5b
        E 38408 83 37 64
        E 0 8f 33 66
        E 0 92 43 64
        E 0 93 37 5a
        E 0 9f 27 5b
        E 0 82 43 64
        E 0 83 37 64
        E 0 8f 27 66
        E 0 92 44 66
        E 1 82 44 66
        E 0 92 41 64
        E 0 82 41 64
        E 0 92 3a 66
        E 0 93 3e 5a
        E 0 9f 2e 5b
        E 0 8f 2e 66
        E 0 9f 2d 5a
        E 1 82 3a 66
        E 0 83 3e 64
        E 0 8f 2d 64
        E 0 92 3a 66
        E 0 93 3e 5a
        E 0 9f 2e 5b
        E 0 82 3a 66
        E 0 92 48 64
        E 0 82 48 64
        E 0 83 3e 64
        E 0 8f 2e 66
        E 0 92 46 66
        E 0 93 3e 5a
        E 0 9f 2e 5b
        E 0 82 46 66
        E 0 92 44 66
        E 0 82 44 66
        E 0 83 3e 64
        E 0 8f 2e 66
        E 0 92 43 64
        E 0 82 43 64
        E 0 92 3f 66
        E 0 82 3f 66
        E 0 92 37 64
        E 0 93 3f 5b
        E 0 9f 2e 5b
        E 0 8f 2e 66
        E 0 9f 2d 5a
        E 0 82 37 64
        E 0 83 3f 66
        E 0 8f 2d 64
        E 0 92 37 64
        E 0 93 3f 5b
        E 0 9f 2e 5b
        E 0 82 37 64
        E 0 92 46 66
        E 0 82 46 66
        E 0 83 3f 66
        E 0 8f 2e 66
        E 0 92 4b 66
        E 0 93 3f 5b
        E 0 9f 2e 5b
        E 0 82 4b 66
        E 0 92 43 64
        E 0 82 43 64
        E 0 83 3f 66
        E 0 8f 2e 66
        E 0 92 44 66
        E 0 82 44 66
        E 1 92 41 64
        E 0 82 41 64
        E 0 92 3a 66
        E 0 93 3e 5a
        E 0 9f 2e 5b
        E 0 8f 2e 66
        E 0 9f 2d 5a
        E 0 82 3a 66
        E 0 83 3e 64
        E 0 8f 2d 64
        E 0 92 3a 66
        E 0 93 3e 5a
        E 0 9f 2e 5b
        E 0 82 3a 66
        E 0 92 48 64
        E 0 82 48 64
        E 0 83 3e 64
        E 0 8f 2e 66
        E 0 92 46 66
        E 0 93 3e 5a
        E 0 9f 2e 5b
        E 0 82 46 66
        E 0 92 44 66
        E 0 82 44 66
        E 0 83 3e 64
        E 0 8f 2e 66
        E 0 92 43 64
        E 0 9f 33 5b
        E 0 82 43 64
        E 0 8f 33 66
        E 0 92 3f 66
        E 0 93 3f 5b
        E 0 9f 33 5b
        E 0 82 3f 66
        E 0 83 3f 66
        E 0 8f 33 66
        E 0 92 43 64
        E 0 93 43 5a
        E 0 9f 37 5a
        E 0 82 43 64
        E 0 83 43 64
        E 0 8f 37 64
        E 1 92 46 66
        E 0 93 46 5b
        E 0 9f 3a 5b
        E 0 82 46 66
        E 0 83 46 66
        E 0 8f 3a 66
        E 0 92 4b 66
        E 0 93 4b 5b
        E 0 9f 3f 5b
        E 0 82 4b 66
        E 0 83 4b 66
        E 0 8f 3f 66
        E 0 92 4a 64
        E 0 93 4a 5a
        E 0 9f 3e 5a
        E 0 82 4a 64
        E 0 83 4a 64
        E 0 8f 3e 64
        E 0 92 48 64
        E 0 93 48 5a
        E 0 9f 3c 5a
        E 0 82 48 64
        E 0 83 48 64
        E 0 8f 3c 64
        E 0 92 46 66
        E 0 93 46 5b
        E 0 9f 3a 5b
        E 0 82 46 66
        E 0 83 46 66
        E 0 8f 3a 66
        E 0 92 44 66
        E 0 93 44 5b
        E 0 9f 38 5b
        E 0 82 44 66
        E 0 83 44 66
        E 0 8f 38 66
        E 0 92 43 64
        E 0 93 43 5a
        E 0 9f 37 5a
        E 0 82 43 64
        E 0 83 43 64
        E 0 8f 37 64
        E 0 92 41 64
        E 0 93 41 5a
        E 1 9f 35 5a
        E 0 82 41 64
        E 0 83 41 64
        E 0 8f 35 64
        E 0 92 43 64
        E 0 93 3f 5b
        E 0 9f 33 5b
        E 0 82 43 64
        E 0 83 3f 66
        E 0 8f 33 66
        E 0 92 3f 66
        E 0 93 37 5a
        E 0 9f 2b 5a
        E 0 82 3f 66
        E 0 83 37 64
        E 0 8f 2b 64
        E 0 92 41 64
        E 0 93 38 5b
        E 0 9f 2c 5b
        E 0 82 41 64
        E 0 83 38 66
        E 0 8f 2c 66
        E 0 92 3e 64
        E 0 93 3a 5b
        E 0 9f 2e 5b
        E 0 82 3e 64
        E 0 83 3a 66
        E 0 8f 2e 66
        E 0 92 3f 66
        E 0 93 33 5b
        E 0 9f 27 5b
        E 0 82 3f 66
        E 0 83 33 66
        E 0 8f 27 66
        E 0 92 4a 64
        E 0 9b 4a 64
        E 0 93 3a 5b
        E 0 9f 37 5a
        E 0 82 4a 64
        E 0 8f 37 64
        E 0 92 4b 66
        E 0 9f 36 5a
        E 0 82 4b 66
        E 0 83 3a 66
        E 0 8b 4a 64
        E 0 8f 36 64
        E 0 92 4a 64
        E 0 93 3a 5b
        E 0 9b 46 66
        E 0 9f 37 5a
        E 0 82 4a 64
        E 0 92 48 64
        E 0 82 48 64
        E 0 83 3a 66
        E 0 8f 37 64
        E 0 92 46 66
        E 0 93 3a 5b
        E 0 9f 2b 5a
        E 0 82 46 66
        E 0 92 45 64
        E 0 82 45 64
        E 0 83 3a 66
        E 0 8b 46 66
        E 0 8f 2b 64
        E 0 92 43 64
        E 1 9b 43 64
        E 0 93 3a 5b
        E 0 9f 37 5a
        E 0 82 43 64
        E 0 8f 37 64
        E 0 92 4a 64
        E 0 9f 36 5a
        E 0 82 4a 64
        E 0 83 3a 66
        E 0 8b 43 64
        E 0 8f 36 64
        E 0 92 48 64
        E 0 93 3a 5b
        E 0 9f 37 5a
        E 0 82 48 64
        E 0 92 46 66
        E 0 82 46 66
        E 0 83 3a 66
        E 0 8f 37 64
        E 0 92 45 64
        E 0 93 3a 5b
        E 0 9b 43 64
        E 0 9f 2b 5a
        E 0 82 45 64
        E 0 92 43 64
        E 0 82 43 64
        E 0 83 3a 66
        E 0 8b 43 64
        E 0 8f 2b 64
        E 0 92 42 64
        E 0 9b 42 64
        E 0 82 42 64
        E 0 8b 42 64
        E 0 92 43 64
        E 0 9b 43 64
        E 0 82 43 64
        E 1 8b 43 64
        E 0 92 45 64
        E 0 93 39 5a
        E 0 9b 45 64
        E 0 9f 36 5a
        E 0 82 45 64
        E 0 8b 45 64
        E 0 8f 36 64
        E 0 92 46 66
        E 0 9b 46 66
        E 0 9f 34 5a
        E 0 82 46 66
        E 0 83 39 64
        E 0 8b 46 66
        E 0 8f 34 64
        E 0 92 48 64
        E 0 93 42 5a
        E 0 9b 48 64
        E 0 9f 32 5a
        E 0 82 48 64
        E 0 83 42 64
        E 0 8b 48 64
        E 0 8f 32 64
        E 0 92 45 64
        E 0 93 42 5a
        E 0 9b 45 64
        E 0 9f 26 5a
        E 0 82 45 64
        E 0 83 42 64
        E 1 8b 45 64
        E 0 8f 26 64
        E 0 92 46 66
        E 0 9b 46 66
        E 0 8b 46 66
        E 0 9b 45 64
        E 0 8b 45 64
        E 0 93 3e 5a
        E 0 9b 43 64
        E 0 9f 37 5a
        E 0 82 46 66
        E 0 8f 37 64
        E 0 92 4f 64
        E 0 9f 36 5a
        E 0 82 4f 64
        E 0 83 3e 64
        E 0 8b 43 64
        E 0 8f 36 64
        E 0 92 4d 64
        E 0 93 3e 5a
        E 0 9f 37 5a
        E 0 82 4d 64
        E 0 92 4b 66
        E 0 82 4b 66
        E 0 83 3e 64
        E 0 8f 37 64
        E 0 92 4a 64
        E 0 93 3e 5a
        E 0 9f 2b 5a
        E 0 82 4a 64
        E 0 92 48 64
        E 0 82 48 64
        E 0 83 3e 64
        E 0 8f 2b 64
        E 0 92 46 66
        E 0 9b 4a 64
        E 0 93 3e 5a
        E 0 9f 37 5a
        E 0 82 46 66
        E 0 8f 37 64
        E 0 92 4b 66
        E 0 9f 36 5a
        E 0 82 4b 66
        E 0 83 3e 64
        E 0 8b 4a 64
        E 0 8f 36 64
        E 0 92 4a 64
        E 0 93 3e 5a
        E 0 9b 46 66
        E 1 9f 37 5a
        E 0 82 4a 64
        E 0 92 48 64
        E 0 82 48 64
        E 0 83 3e 64
        E 0 8f 37 64
        E 0 92 46 66
        E 0 93 3e 5a
        E 0 9f 2b 5a
        E 0 82 46 66
        E 0 92 45 64
        E 0 82 45 64
        E 0 83 3e 64
        E 0 8b 46 66
        E 0 8f 2b 64
        E 0 92 43 64
        E 0 9b 43 64
        E 0 93 3e 5a
        E 0 9f 37 5a
        E 0 82 43 64
        E 0 8f 37 64
        E 0 92 4f 64
        E 0 9f 36 5a
        E 0 82 4f 64
        E 0 83 3e 64
        E 0 8f 36 64
        E 0 92 4d 64
        E 0 93 3e 5a
        E 0 9f 37 5a
        E 0 82 4d 64
        E 0 92 4b 66
        E 0 82 4b 66
        E 0 83 3e 64
        E 0 8f 37 64
        E 0 92 4a 64
        E 0 93 3e 5a
        E 0 9f 2b 5a
        E 0 82 4a 64
        E 0 92 48 64
        E 0 82 48 64
        E 0 83 3e 64
        E 0 8b 43 64
        E 0 8f 2b 64
        E 0 92 46 66
        E 0 9b 46 66
        E 0 93 3e 5a
        E 1 9f 37 5a
        E 0 82 46 66
        E 0 8f 37 64
        E 0 92 52 66
        E 0 9f 36 5a
        E 0 82 52 66
        E 0 83 3e 64
        E 0 8f 36 64
        E 0 92 51 64
        E 0 93 3e 5a
        E 0 9f 37 5a
        E 0 82 51 64
        E 0 92 4f 64
        E 0 82 4f 64
        E 0 83 3e 64
        E 0 8f 37 64
        E 0 92 4e 64
        E 0 93 3e 5a
        E 0 9f 2b 5a
        E 0 82 4e 64
        E 0 92 4c 64
        E 0 82 4c 64
        E 0 83 3e 64
        E 0 8b 46 66
        E 0 8f 2b 64
        E 0 92 4a 64
        E 0 9b 4a 64
        E 0 93 3a 5b
        E 0 9f 37 5a
        E 0 82 4a 64
        E 0 8f 37 64
        E 0 92 48 64
        E 0 9f 36 5a
        E 0 82 48 64
        E 0 83 3a 66
        E 0 8b 4a 64
        E 0 8f 36 64
        E 0 92 46 66
        E 0 93 3a 5b
        E 0 9b 3e 64
        E 0 9f 37 5a
        E 0 82 46 66
        E 0 92 45 64
        E 0 82 45 64
        E 0 83 3a 66
        E 0 8f 37 64
        E 0 92 43 64
        E 0 93 3a 5b
        E 0 9f 2b 5a
        E 0 82 43 64
        E 0 92 41 64
        E 0 82 41 64
        E 0 83 3a 66
        E 1 8b 3e 64
        E 0 8f 2b 64
        E 0 92 3f 66
        E 0 9b 3f 66
        E 0 93 37 5a
        E 0 9f 30 5a
        E 0 8f 30 64
        E 0 9f 2f 5a
        E 0 82 3f 66
        E 0 83 37 64
        E 0 8b 3f 66
        E 0 8f 2f 64
        E 0 92 3c 64
        E 0 93 37 5a
        E 0 9b 3c 64
        E 0 9f 30 5a
        E 0 83 37 64
        E 0 8f 30 64
        E 0 93 37 5a
        E 0 9f 24 5a
        E 0 82 3c 64
        E 0 83 37 64
        E 0 8b 3c 64
        E 0 8f 24 64
        E 0 92 43 64
        E 0 9b 43 64
        E 0 93 3e 5a
        E 0 9f 3a 5b
        E 0 8f 3a 66
        E 0 9f 39 5a
        E 0 83 3e 64
        E 0 8f 39 64
        E 1 93 3e 5a
        E 0 9f 3a 5b
        E 0 82 43 64
        E 0 83 3e 64
        E 0 8b 43 64
        E 0 8f 3a 66
        E 0 92 43 64
        E 0 93 3a 5b
        E 0 9b 43 64
        E 0 9f 37 5a
        E 0 82 43 64
        E 0 83 3a 66
        E 0 8b 43 64
        E 0 8f 37 64
        E 0 92 4b 66
        E 0 9b 4b 66
        E 0 82 4b 66
        E 0 8b 4b 66
        E 0 92 4a 64
        E 0 92 48 64
        E 0 93 37 5a
        E 0 9b 4a 64
        E 0 9b 48 64
        E 0 9f 3c 5a
        E 0 8f 3c 64
        E 0 9f 3a 5b
        E 0 82 4a 64
        E 0 82 48 64
        E 0 83 37 64
        E 0 8b 4a 64
        E 0 8b 48 64
        E 0 8f 3a 66
        E 0 92 46 66
        E 0 92 45 64
        E 0 93 39 5a
        E 0 9b 46 66
        E 0 9b 45 64
        E 0 9f 3c 5a
        E 0 82 46 66
        E 0 82 45 64
        E 0 83 39 64
        E 0 8b 46 66
        E 0 8b 45 64
        E 0 8f 3c 64
        E 0 92 43 64
        E 1 93 39 5a
        E 0 9b 43 64
        E 0 9f 30 5a
        E 0 82 43 64
        E 0 83 39 64
        E 0 8b 43 64
        E 0 8f 30 64
        E 0 92 43 64
        E 0 9b 43 64
        E 0 82 43 64
        E 0 8b 43 64
        E 0 92 42 64
        E 0 93 39 5a
        E 0 9b 42 64
        E 0 9f 32 5a
        E 0 8f 32 64
        E 0 9f 30 5a
        E 0 82 42 64
        E 0 83 39 64
        E 0 8b 42 64
        E 0 8f 30 64
        E 0 92 4a 64
        E 0 93 37 5a
        E 0 9b 4a 64
        E 0 9f 2e 5b
        E 0 82 4a 64
        E 0 83 37 64
        E 0 8b 4a 64
        E 0 8f 2e 66
        E 0 92 3e 64
        E 0 93 37 5a
        E 0 9b 3e 64
        E 0 9f 2b 5a
        E 0 82 3e 64
        E 0 83 37 64
        E 0 8b 3e 64
        E 0 8f 2b 64
        E 0 92 3f 66
        E 0 9b 3f 66
        E 0 93 37 5a
        E 0 9f 30 5a
        E 38404 82 3f 66
        E 0 8b 3f 66
        E 0 8f 30 64
        E 0 92 4a 64
        E 0 9b 4a 64
        E 0 9f 2e 5b
        E 0 82 4a 64
        E 0 83 37 64
        E 0 8b 4a 64
        E 0 8f 2e 66
        E 0 92 48 64
        E 0 93 37 5a
        E 0 9b 48 64
        E 0 9f 30 5a
        E 0 82 48 64
        E 0 8b 48 64
        E 0 92 46 66
        E 0 9b 46 66
        E 0 82 46 66
        E 0 83 37 64
        E 0 8b 46 66
        E 0 8f 30 64
        E 0 92 45 64
        E 0 93 33 5b
        E 0 9b 45 64
        E 0 9f 24 5a
        E 0 82 45 64
        E 0 8b 45 64
        E 0 92 43 64
        E 0 9b 43 64
        E 0 82 43 64
        E 0 83 33 66
        E 0 8b 43 64
        E 0 8f 24 64
        E 0 92 42 64
        E 0 9b 42 64
        E 0 93 42 5a
        E 0 9f 32 5a
        E 0 82 42 64
        E 0 8b 42 64
        E 0 8f 32 64
        E 0 92 4b 66
        E 0 9b 4b 66
        E 1 9f 30 5a
        E 0 82 4b 66
        E 0 83 42 64
        E 0 8b 4b 66
        E 0 8f 30 64
        E 0 92 4a 64
        E 0 93 42 5a
        E 0 9b 4a 64
        E 0 9f 32 5a
        E 0 82 4a 64
        E 0 8b 4a 64
        E 0 92 48 64
        E 0 9b 48 64
        E 0 82 48 64
        E 0 83 42 64
        E 0 8b 48 64
        E 0 8f 32 64
        E 0 92 46 66
        E 0 93 42 5a
        E 0 9b 46 66
        E 0 9f 26 5a
        E 0 82 46 66
        E 0 8b 46 66
        E 0 92 45 64
        E 0 9b 45 64
        E 0 82 45 64
        E 0 83 42 64
        E 0 8b 45 64
        E 0 8f 26 64
        E 0 92 46 66
        E 0 93 3e 5a
        E 0 9b 46 66
        E 0 9f 2b 5a
        E 0 82 46 66
        E 0 83 3e 64
        E 0 8b 46 66
        E 0 8f 2b 64
        E 0 92 45 64
        E 0 93 3a 5b
        E 0 9b 45 64
        E 0 9f 2e 5b
        E 0 82 45 64
        E 0 8b 45 64
        E 0 92 43 64
        E 0 9b 43 64
        E 0 82 43 64
        E 0 83 3a 66
        E 0 8b 43 64
        E 0 8f 2e 66
        E 0 92 45 64
        E 0 93 3c 5a
        E 0 9b 45 64
        E 0 9f 30 5a
        E 0 82 45 64
        E 0 83 3c 64
        E 0 8b 45 64
        E 0 8f 30 64
        E 0 92 42 64
        E 0 93 3e 5a
        E 0 9b 42 64
        E 0 9f 32 5a
        E 0 82 42 64
        E 0 83 3e 64
        E 0 8b 42 64
        E 0 8f 32 64
        E 0 92 43 64
        E 0 93 37 5a
        E 0 9b 43 64
        E 0 9f 2b 5a
        E 0 82 43 64
        E 0 83 37 64
        E 0 8b 43 64
        E 0 8f 2b 64
        E 0 92 3a 66
        E 0 93 3a 5b
        E 0 9b 3a 66
        E 0 9f 2e 5b
        E 0 82 3a 66
        E 0 83 3a 66
        E 0 8b 3a 66
        E 0 8f 2e 66
        E 0 92 3c 64
        E 1 93 3c 5a
        E 0 9b 3c 64
        E 0 9f 30 5a
        E 0 82 3c 64
        E 0 83 3c 64
        E 0 8b 3c 64
        E 0 8f 30 64
        E 0 92 3e 64
        E 0 93 3e 5a
        E 0 9b 3e 64
        E 0 9f 32 5a
        E 0 82 3e 64
        E 0 83 3e 64
        E 0 8b 3e 64
        E 0 8f 32 64
        E 0 92 37 64
        E 0 93 37 5a
        E 0 9b 37 64
        E 0 9f 2b 5a
        E 0 82 37 64
        E 0 83 37 64
        E 0 8b 37 64
        E 0 8f 2b 64
        E 0 9f 2b 5a
        E 0 95 43 64
        E 0 9e 43 64
        E 0 85 43 64
        E 0 8e 43 64
        E 0 95 46 66
        E 0 9e 46 66
        E 0 85 46 66
        E 0 8e 46 66
        E 0 95 46 66
        E 0 9e 46 66
        E 0 85 46 66
        E 0 8e 46 66
        E 0 95 46 66
        E 0 9e 46 66
        E 0 85 46 66
        E 0 8e 46 66
        E 0 95 43 64
        E 0 9e 43 64
        E 0 85 43 64
        E 0 8e 43 64
        E 0 8f 2b 64
        E 0 95 45 64
        E 0 9e 45 64
        E 0 9f 32 5a
        E 0 85 45 64
        E 0 8e 45 64
        E 0 95 45 64
        E 0 9e 45 64
        E 0 85 45 64
        E 0 8e 45 64
        E 0 9a 48 64
        E 0 9e 48 64
        E 0 8a 48 64
        E 0 8e 48 64
        E 0 9a 45 64
        E 0 9e 45 64
        E 0 8a 45 64
        E 0 8e 45 64
        E 0 9a 45 64
        E 0 9e 45 64
        E 0 8a 45 64
        E 0 8e 45 64
        E 0 9a 47 64
        E 0 9e 47 64
        E 0 8a 47 64
        E 0 8e 47 64
        E 0 8f 32 64
        E 0 9a 43 64
        E 1 9e 43 64
        E 0 9f 2b 5a
        E 0 8a 43 64
        E 0 8e 43 64
        E 0 9a 43 64
        E 0 9e 43 64
        E 0 8a 43 64
        E 0 8e 43 64
        E 0 9a 3e 64
        E 0 9e 3e 64
        E 0 8a 3e 64
        E 0 8e 3e 64
        E 0 9a 41 64
        E 0 9e 41 64
        E 0 8a 41 64
        E 0 8e 41 64
        E 0 9a 41 64
        E 0 9e 41 64
        E 0 8a 41 64
        E 0 8e 41 64
        E 0 9a 41 64
        E 0 9e 41 64
        E 0 8a 41 64
        E 0 8e 41 64
        E 0 9a 40 64
        E 0 9e 40 64
        E 0 8a 40 64
        E 0 8e 40 64
        E 0 8f 2b 64
        E 0 9a 3c 64
        E 0 9e 3c 64
        E 0 9f 30 5a
        E 0 8a 3c 64
        E 0 8e 3c 64
        E 0 9a 3c 64
        E 0 9e 3c 64
        E 0 8a 3c 64
        E 0 8e 3c 64
        E 0 9a 43 64
        E 0 9e 43 64
        E 0 8a 43 64
        E 0 8e 43 64
        E 0 9a 43 64
        E 0 9e 43 64
        E 0 8a 43 64
        E 0 8e 43 64
        E 0 9a 43 64
        E 0 9e 43 64
        E 0 8a 43 64
        E 0 8e 43 64
        E 0 8f 30 64
        E 0 9a 40 64
        E 0 9e 40 64
        E 0 9f 30 5a
        E 0 8a 40 64
        E 0 8e 40 64
        E 0 9a 40 64
        E 0 9e 40 64
        E 0 8a 40 64
        E 0 8e 40 64
        E 0 9a 43 64
        E 0 9e 43 64
        E 0 8a 43 64
        E 0 8e 43 64
        E 0 9a 46 66
        E 0 9e 46 66
        E 0 8a 46 66
        E 0 8e 46 66
        E 0 9a 46 66
        E 0 9e 46 66
        E 0 8a 46 66
        E 0 8e 46 66
        E 0 9a 46 66
        E 0 9e 46 66
        E 0 8a 46 66
        E 0 8e 46 66
        E 0 9a 45 64
        E 0 9e 45 64
        E 0 8a 45 64
        E 0 8e 45 64
        E 0 8f 30 64
        E 1 9a 45 64
        E 0 9e 45 64
        E 0 9f 31 5a
        E 0 8a 45 64
        E 0 8e 45 64
        E 0 9a 45 64
        E 0 9e 45 64
        E 0 8a 45 64
        E 0 8e 45 64
        E 0 9a 40 64
        E 0 9e 40 64
        E 0 8a 40 64
        E 0 8e 40 64
        E 0 9a 40 64
        E 0 9e 40 64
        E 0 8a 40 64
        E 0 8e 40 64
        E 0 9a 40 64
        E 0 9e 40 64
        E 0 8a 40 64
        E 0 8e 40 64
        E 0 9a 40 64
        E 0 9e 40 64
        E 0 8a 40 64
        E 0 8e 40 64
        E 0 9a 41 64
        E 0 9e 41 64
        E 0 8a 41 64
        E 0 8e 41 64
        E 0 8f 31 64
        E 0 9a 43 64
        E 0 9e 43 64
        E 0 9f 31 5a
        E 0 8a 43 64
        E 0 8e 43 64
        E 0 9a 43 64
        E 0 9e 43 64
        E 0 8a 43 64
        E 0 8e 43 64
        E 0 9a 46 66
        E 0 9e 46 66
        E 0 8a 46 66
        E 0 8e 46 66
        E 0 9a 43 64
        E 0 9e 43 64
        E 0 8a 43 64
        E 0 8e 43 64
        E 0 9a 41 64
        E 0 9e 41 64
        E 0 8a 41 64
        E 0 8e 41 64
        E 0 8f 31 64
        E 0 9a 41 64
        E 0 9e 41 64
        E 0 9f 32 5a
        E 0 8a 41 64
        E 0 8e 41 64
        E 0 9a 41 64
        E 0 9e 41 64
        E 0 8a 41 64
        E 0 8e 41 64
        E 0 8f 32 64
        E 0 9a 45 64
        E 0 9e 45 64
        E 0 9f 32 5a
        E 0 8a 45 64
        E 0 8e 45 64
        E 0 9a 45 64
        E 0 9e 45 64
        E 0 8a 45 64
        E 0 8e 45 64
        E 0 9a 45 64
        E 0 9e 45 64
        E 0 8a 45 64
        E 0 8e 45 64
        E 0 9a 43 64
        E 0 9e 43 64
        E 0 8a 43 64
        E 0 8e 43 64
        E 0 9a 45 64
        E 0 9e 45 64
        E 38408 8a 45 64
        E 1 8e 45 64
        E 0 8f 32 64
        E 0 9a 46 66
        E 0 9e 46 66
        E 0 9f 37 5a
        E 0 8a 46 66
        E 0 8e 46 66
        E 0 9a 46 66
        E 0 9e 46 66
        E 0 8a 46 66
        E 0 8e 46 66
        E 0 9a 46 66
        E 0 9e 46 66
        E 0 8a 46 66
        E 0 8e 46 66
        E 0 9a 48 64
        E 0 9e 48 64
        E 0 8a 48 64
        E 0 8e 48 64
        E 1 9a 4a 64
        E 0 9e 4a 64
        E 0 8a 4a 64
        E 0 8e 4a 64
        E 0 8f 37 64
        E 0 9a 45 64
        E 0 9e 45 64
        E 0 9f 39 5a
        E 0 8a 45 64
        E 0 8e 45 64
        E 0 9a 45 64
        E 0 9e 45 64
        E 0 8a 45 64
        E 0 8e 45 64
        E 0 8f 39 64
        E 0 9f 32 5a
        E 0 8f 32 64
        E 0 92 41 64
        E 0 93 45 5a
        E 0 9f 29 5a
        E 0 82 41 64
        E 0 83 45 64
        E 0 8f 29 64
        E 1 92 41 64
        E 0 93 45 5a
        E 0 9f 29 5a
        E 0 82 41 64
        E 0 8f 29 64
        E 0 92 43 64
        E 0 9f 35 5a
        E 0 82 43 64
        E 0 83 45 64
        E 0 8f 35 64
        E 0 92 45 64
        E 0 93 41 5a
        E 0 9f 35 5a
        E 0 8f 35 64
        E 0 9f 35 5a
        E 0 82 45 64
        E 0 8f 35 64
        E 0 92 41 64
        E 0 9f 29 5a
        E 0 8f 29 64
        E 0 9f 35 5a
        E 0 82 41 64
        E 0 83 41 64
        E 0 8f 35 64
        E 0 92 43 64
        E 0 93 40 5a
        E 0 9f 24 5a
        E 0 83 40 64
        E 0 8f 24 64
        E 0 93 3e 5a
        E 0 9f 30 5a
        E 0 82 43 64
        E 0 83 3e 64
        E 0 8f 30 64
        E 0 92 4c 64
        E 0 93 3c 5a
        E 0 9f 30 5a
        E 0 8f 30 64
        E 0 9f 30 5a
        E 0 82 4c 64
        E 0 83 3c 64
        E 0 8f 30 64
        E 0 92 4f 64
        E 0 93 3c 5a
        E 0 9f 24 5a
        E 0 8f 24 64
        E 0 9f 30 5a
        E 0 82 4f 64
        E 0 83 3c 64
        E 0 8f 30 64
        E 0 92 43 64
        E 0 93 3c 5a
        E 0 9f 24 5a
        E 0 82 43 64
        E 0 8f 24 64
        E 0 92 45 64
        E 0 9f 30 5a
        E 0 82 45 64
        E 0 83 3c 64
        E 0 8f 30 64
        E 0 92 46 66
        E 0 93 3c 5a
        E 0 9f 30 5a
        E 0 8f 30 64
        E 0 9f 30 5a
        E 0 82 46 66
        E 0 8f 30 64
        E 0 92 43 64
        E 0 9f 24 5a
        E 0 8f 24 64
        E 0 9f 30 5a
        E 0 82 43 64
        E 0 83 3c 64
        E 0 8f 30 64
        E 0 92 45 64
        E 0 93 3c 5a
        E 1 9f 29 5a
        E 0 83 3c 64
        E 0 8f 29 64
        E 0 93 3a 5b
        E 0 9f 35 5a
        E 0 82 45 64
        E 0 83 3a 66
        E 0 8f 35 64
        E 0 92 4d 64
        E 0 93 39 5a
        E 0 9f 35 5a
        E 0 8f 35 64
        E 0 9f 35 5a
        E 0 82 4d 64
        E 0 83 39 64
        E 0 8f 35 64
        E 0 92 51 64
        E 0 93 3c 5a
        E 0 9f 29 5a
        E 0 8f 29 64
        E 0 9f 35 5a
        E 0 82 51 64
        E 0 83 3c 64
        E 0 8f 35 64
        E 0 92 45 64
        E 0 93 3c 5a
        E 0 9f 29 5a
        E 0 82 45 64
        E 0 8f 29 64
        E 0 92 46 66
        E 0 9f 35 5a
        E 0 82 46 66
        E 0 83 3c 64
        E 0 8f 35 64
        E 0 92 48 64
        E 0 93 3c 5a
        E 0 9f 35 5a
        E 0 8f 35 64
        E 0 9f 35 5a
        E 0 82 48 64
        E 0 8f 35 64
        E 0 92 45 64
        E 0 9f 29 5a
        E 0 8f 29 64
        E 0 9f 35 5a
        E 0 82 45 64
        E 0 83 3c 64
        E 0 8f 35 64
        E 0 92 43 64
        E 0 93 3c 5a
        E 0 9f 24 5a
        E 0 8f 24 64
        E 0 9f 30 5a
        E 0 8f 30 64
        E 0 9f 30 5a
        E 0 8f 30 64
        E 0 9f 30 5a
        E 0 82 43 64
        E 0 83 3c 64
        E 0 8f 30 64
        E 0 92 48 64
        E 0 93 40 5a
        E 0 9f 24 5a
        E 0 8f 24 64
        E 0 9f 30 5a
        E 0 82 48 64
        E 0 83 40 64
        E 0 8f 30 64
        E 0 92 48 64
        E 0 93 40 5a
        E 0 9f 24 5a
        E 0 82 48 64
        E 0 8f 24 64
        E 0 92 4c 64
        E 0 9f 30 5a
        E 0 82 4c 64
        E 0 8f 30 64
        E 0 92 4f 64
        E 0 9f 30 5a
        E 0 8f 30 64
        E 1 9f 30 5a
        E 0 82 4f 64
        E 0 83 40 64
        E 0 8f 30 64
        E 0 92 48 64
        E 0 93 40 5a
        E 0 9f 24 5a
        E 0 8f 24 64
        E 0 9f 30 5a
        E 0 82 48 64
        E 0 83 40 64
        E 0 8f 30 64
        E 0 92 46 66
        E 0 93 40 5a
        E 0 9f 24 5a
        E 0 82 46 66
        E 0 8f 24 64
        E 0 92 4c 64
        E 0 9f 2e 5b
        E 0 82 4c 64
        E 0 8f 2e 66
        E 0 92 4f 64
        E 0 9f 2e 5b
        E 0 8f 2e 66
        E 0 9f 2e 5b
        E 0 82 4f 64
        E 0 83 40 64
        E 0 8f 2e 66
        E 0 92 46 66
        E 0 93 40 5a
        E 0 9f 24 5a
        E 0 8f 24 64
        E 0 9f 2e 5b
        E 0 82 46 66
        E 0 83 40 64
        E 0 8f 2e 66
        E 0 92 45 64
        E 0 93 41 5a
        E 0 9f 24 5a
        E 0 82 45 64
        E 0 8f 24 64
        E 0 92 48 64
        E 0 9f 2d 5a
        E 0 82 48 64
        E 0 8f 2d 64
        E 0 92 4d 64
        E 0 9f 2d 5a
        E 0 8f 2d 64
        E 0 9f 2d 5a
        E 0 82 4d 64
        E 1 83 41 64
        E 0 8f 2d 64
        E 0 92 45 64
        E 0 93 41 5a
        E 0 9f 24 5a
        E 0 8f 24 64
        E 0 9f 2d 5a
        E 0 82 45 64
        E 0 83 41 64
        E 0 8f 2d 64
        E 0 92 43 64
        E 0 93 40 5a
        E 0 9f 24 5a
        E 0 82 43 64
        E 0 8f 24 64
        E 0 92 4c 64
        E 0 9f 2b 5a
        E 0 82 4c 64
        E 0 8f 2b 64
        E 0 92 4f 64
        E 0 9f 2b 5a
        E 0 8f 2b 64
        E 0 9f 2b 5a
        E 0 82 4f 64
        E 0 83 40 64
        E 0 8f 2b 64
        E 0 92 48 64
        E 0 93 40 5a
        E 0 9f 24 5a
        E 0 8f 24 64
        E 1 9f 30 5a
        E 0 82 48 64
        E 0 83 40 64
        E 0 8f 30 64
        E 0 92 46 66
        E 0 93 40 5a
        E 0 9f 24 5a
        E 0 82 46 66
        E 0 8f 24 64
        E 0 92 4c 64
        E 0 9f 2e 5b
        E 0 82 4c 64
        E 0 8f 2e 66
        E 0 92 4f 64
        E 0 9f 2e 5b
        E 0 8f 2e 66
        E 0 9f 2e 5b
        E 0 82 4f 64
        E 0 83 40 64
        E 0 8f 2e 66
        E 0 92 46 66
        E 0 93 40 5a
        E 0 9f 24 5a
        E 0 8f 24 64
        E 0 9f 2e 5b
        E 0 82 46 66
        E 0 83 40 64
        E 0 8f 2e 66
        E 0 92 45 64
        E 0 93 41 5a
        E 0 9f 24 5a
        E 0 82 45 64
        E 0 8f 24 64
        E 0 92 48 64
        E 0 9f 2d 5a
        E 0 82 48 64
        E 0 8f 2d 64
        E 0 92 4d 64
        E 0 9f 2d 5a
        E 0 8f 2d 64
        E 0 9f 2d 5a
        E 0 82 4d 64
        E 0 83 41 64
        E 0 8f 2d 64
        E 0 92 45 64
        E 0 93 41 5a
        E 0 9f 24 5a
        E 0 8f 24 64
        E 0 9f 2d 5a
        E 0 82 45 64
        E 0 83 41 64
        E 0 8f 2d 64
        E 0 92 43 64
        E 0 93 40 5a
        E 0 9f 24 5a
        E 0 82 43 64
        E 0 8f 24 64
        E 0 92 3c 64
        E 0 9f 30 5a
        E 0 82 3c 64
        E 0 83 40 64
        E 0 8f 30 64
        E 0 92 45 64
        E 1 93 45 5a
        E 0 9f 39 5a
        E 0 82 45 64
        E 0 83 45 64
        E 0 8f 39 64
        E 0 92 46 66
        E 0 93 46 5b
        E 0 9f 3a 5b
        E 0 82 46 66
        E 0 83 46 66
        E 0 8f 3a 66
        E 0 92 43 64
        E 0 93 43 5a
        E 0 9f 37 5a
        E 0 82 43 64
        E 0 83 43 64
        E 0 8f 37 64
        E 0 92 48 64
        E 0 93 48 5a
        E 0 9f 3c 5a
        E 0 82 48 64
        E 0 83 48 64
        E 0 8f 3c 64
        E 0 92 41 64
        E 0 93 35 5a
        E 0 9f 29 5a
        E 0 83 35 64
        E 0 8f 29 64
        E 0 93 41 5a
        E 0 9f 35 5a
        E 0 83 41 64
        E 0 8f 35 64
        E 0 93 41 5a
        E 0 9f 35 5a
        E 0 83 41 64
        E 0 8f 35 64
        E 0 93 41 5a
        E 0 9f 35 5a
        E 0 82 41 64
        E 0 83 41 64
        E 0 8f 35 64
        E 0 92 45 64
        E 1 93 35 5a
        E 0 9f 29 5a
        E 0 83 35 64
        E 0 8f 29 64
        E 0 93 41 5a
        E 0 9f 35 5a
        E 0 82 45 64
        E 0 83 41 64
        E 0 8f 35 64
        E 0 92 46 66
        E 0 93 46 5b
        E 0 9f 3a 5b
        E 0 82 46 66
        E 0 83 46 66
        E 0 8f 3a 66
        E 0 92 43 64
        E 0 93 43 5a
        E 0 9f 37 5a
        E 0 82 43 64
        E 0 83 43 64
        E 0 8f 37 64
        E 0 92 48 64
        E 0 93 48 5a
        E 0 9f 3c 5a
        E 0 82 48 64
        E 0 83 48 64
        E 0 8f 3c 64
        E 1 92 41 64
        E 0 93 41 5a
        E 0 9f 35 5a
        E 0 82 41 64
        E 0 83 41 64
        E 0 8f 35 64
        E 0 92 41 64
        E 0 93 41 5a
        E 0 9a 41 64
        E 0 9f 29 5a
        E 0 82 41 64
        E 0 83 41 64
        E 0 8a 41 64
        E 0 8f 29 64
        E 0 92 41 64
        E 0 93 41 5a
        E 0 9a 41 64
        E 0 9f 29 5a
        E 0 82 41 64
        E 0 83 41 64
        E 0 8a 41 64
        E 0 8f 29 64
        E 0 92 43 64
        E 0 93 43 5a
        E 0 9a 43 64
        E 0 9f 35 5a
        E 0 82 43 64
        E 0 83 43 64
        E 0 8a 43 64
        E 0 8f 35 64
        E 0 92 45 64
        E 0 93 45 5a
        E 0 9a 45 64
        E 0 9f 35 5a
        E 0 8f 35 64
        E 0 9f 35 5a
        E 0 82 45 64
        E 0 83 45 64
        E 0 8a 45 64
        E 0 8f 35 64
        E 0 92 41 64
        E 0 93 41 5a
        E 0 9a 41 64
        E 0 9f 29 5a
        E 0 8f 29 64
        E 0 9f 35 5a
        E 0 82 41 64
        E 0 83 41 64
        E 0 8a 41 64
        E 0 8f 35 64
        E 0 92 43 64
        E 0 93 43 5a
        E 0 9a 43 64
        E 0 9f 24 5a
        E 0 8f 24 64
        E 0 9f 30 5a
        E 0 82 43 64
        E 0 83 43 64
        E 0 8a 43 64
        E 0 8f 30 64
        E 0 92 4c 64
        E 1 93 3c 5a
        E 0 9a 3c 64
        E 0 9f 30 5a
        E 0 8f 30 64
        E 0 9f 30 5a
        E 0 82 4c 64
        E 0 83 3c 64
        E 0 8a 3c 64
        E 0 8f 30 64
        E 0 92 4f 64
        E 0 93 43 5a
        E 0 9a 43 64
        E 0 9f 24 5a
        E 0 8f 24 64
        E 0 9f 30 5a
        E 0 82 4f 64
        E 0 83 43 64
        E 0 8a 43 64
        E 0 8f 30 64
        E 0 92 43 64
        E 0 93 43 5a
        E 0 9a 43 64
        E 0 9f 24 5a
        E 0 82 43 64
        E 0 83 43 64
        E 0 8a 43 64
        E 0 8f 24 64
        E 0 92 45 64
        E 0 93 45 5a
        E 0 9a 45 64
        E 0 9f 30 5a
        E 0 82 45 64
        E 0 83 45 64
        E 0 8a 45 64
        E 0 8f 30 64
        E 0 92 46 66
        E 0 93 46 5b
        E 0 9a 46 66
        E 0 9f 30 5a
        E 0 8f 30 64
        E 0 9f 30 5a
        E 0 82 46 66
        E 0 83 46 66
        E 0 8a 46 66
        E 0 8f 30 64
        E 0 92 43 64
        E 0 93 43 5a
        E 0 9a 43 64
        E 0 9f 24 5a
        E 0 8f 24 64
        E 0 9f 30 5a
        E 0 82 43 64
        E 0 83 43 64
        E 0 8a 43 64
        E 0 8f 30 64
        E 0 92 45 64
        E 0 93 45 5a
        E 0 9a 45 64
        E 0 9f 29 5a
        E 0 8f 29 64
        E 0 9f 35 5a
        E 0 82 45 64
        E 1 83 45 64
        E 0 8a 45 64
        E 0 8f 35 64
        E 0 92 41 64
        E 0 93 41 5a
        E 0 9a 41 64
        E 0 9f 35 5a
        E 0 8f 35 64
        E 0 9f 35 5a
        E 0 82 41 64
        E 0 83 41 64
        E 0 8a 41 64
        E 0 8f 35 64
        E 0 92 48 64
        E 0 93 48 5a
        E 0 9a 48 64
        E 0 9f 29 5a
        E 0 8f 29 64
        E 0 9f 35 5a
        E 0 82 48 64
        E 0 83 48 64
        E 0 8a 48 64
        E 0 8f 35 64
        E 0 92 48 64
        E 0 93 48 5a
        E 0 9a 48 64
        E 0 9f 24 5a
        E 0 82 48 64
        E 0 8f 24 64
        E 0 92 4c 64
        E 0 9f 30 5a
        E 0 82 4c 64
        E 0 83 48 64
        E 0 8a 48 64
        E 0 8f 30 64
        E 0 92 4f 64
        E 0 93 3c 5a
        E 0 9a 3c 64
        E 0 9f 30 5a
        E 0 8f 30 64
        E 0 9f 30 5a
        E 0 82 4f 64
        E 0 83 3c 64
        E 0 8a 3c 64
        E 0 8f 30 64
        E 0 92 48 64
        E 1 93 48 5a
        E 0 9a 48 64
        E 0 9f 24 5a
        E 0 8f 24 64
        E 0 9f 30 5a
        E 0 82 48 64
        E 0 83 48 64
        E 0 8a 48 64
        E 0 8f 30 64
        E 0 92 46 66
        E 0 93 46 5b
        E 0 9a 46 66
        E 0 9f 24 5a
        E 0 82 46 66
        E 0 8f 24 64
        E 0 92 4c 64
        E 0 9f 2e 5b
        E 0 82 4c 64
        E 0 83 46 66
        E 0 8a 46 66
        E 0 8f 2e 66
        E 0 92 4f 64
        E 0 93 3c 5a
        E 0 9a 3c 64
        E 0 9f 2e 5b
        E 0 8f 2e 66
        E 0 9f 2e 5b
        E 0 82 4f 64
        E 0 83 3c 64
        E 0 8a 3c 64
        E 0 8f 2e 66
        E 0 92 46 66
        E 0 93 46 5b
        E 0 9a 46 66
        E 0 9f 24 5a
        E 0 8f 24 64
        E 0 9f 2e 5b
        E 0 82 46 66
        E 0 83 46 66
        E 0 8a 46 66
        E 0 8f 2e 66
        E 0 92 45 64
        E 0 93 45 5a
        E 0 9a 45 64
        E 0 9f 24 5a
        E 0 82 45 64
        E 0 8f 24 64
        E 0 92 48 64
        E 0 9f 2d 5a
        E 0 82 48 64
        E 0 83 45 64
        E 0 8a 45 64
        E 0 8f 2d 64
        E 0 92 4d 64
        E 0 93 3c 5a
        E 0 9a 3c 64
        E 0 9f 2d 5a
        E 0 8f 2d 64
        E 0 9f 2d 5a
        E 0 82 4d 64
        E 0 83 3c 64
        E 0 8a 3c 64
        E 0 8f 2d 64
        E 0 92 45 64
        E 0 93 45 5a
        E 0 9a 45 64
        E 0 9f 24 5a
        E 0 8f 24 64
        E 0 9f 2d 5a
        E 0 82 45 64
        E 0 83 45 64
        E 0 8a 45 64
        E 0 8f 2d 64
        E 0 92 43 64
        E 0 93 43 5a
        E 0 9a 43 64
        E 0 9f 24 5a
        E 0 82 43 64
        E 0 8f 24 64
        E 0 92 41 64
        E 0 9f 30 5a
        E 0 82 41 64
        E 0 83 43 64
        E 1 8a 43 64
        E 0 8f 30 64
        E 0 92 40 64
        E 0 93 3c 5a
        E 0 9a 3c 64
        E 0 9f 30 5a
        E 0 8f 30 64
        E 0 9f 30 5a
        E 0 83 3c 64
        E 0 8a 3c 64
        E 0 8f 30 64
        E 0 93 3c 5a
        E 0 9a 3c 64
        E 0 9f 24 5a
        E 0 8f 24 64
        E 0 9f 30 5a
        E 0 82 40 64
        E 0 83 3c 64
        E 0 8a 3c 64
        E 0 8f 30 64
        E 0 92 4f 64
        E 0 93 3c 5a
        E 0 9a 3c 64
        E 0 9f 24 5a
        E 0 82 4f 64
        E 0 8f 24 64
        E 0 92 4d 64
        E 0 9f 30 5a
        E 0 82 4d 64
        E 0 83 3c 64
        E 0 8a 3c 64
        E 0 8f 30 64
        E 0 92 4c 64
        E 0 93 3c 5a
        E 0 9a 3c 64
        E 0 9f 30 5a
        E 0 8f 30 64
        E 0 9f 30 5a
        E 0 83 3c 64
        E 0 8a 3c 64
        E 0 8f 30 64
        E 0 93 3c 5a
        E 0 9a 3c 64
        E 0 9f 24 5a
        E 0 8f 24 64
        E 0 9f 30 5a
        E 0 82 4c 64
        E 1 83 3c 64
        E 0 8a 3c 64
        E 0 8f 30 64
        E 0 92 43 64
        E 0 93 3c 5a
        E 0 9a 3c 64
        E 0 9f 24 5a
        E 0 82 43 64
        E 0 83 3c 64
        E 0 8a 3c 64
        E 0 8f 24 64
        E 0 92 41 64
        E 0 93 3e 5a
        E 0 9a 3e 64
        E 0 9f 30 5a
        E 0 82 41 64
        E 0 83 3e 64
        E 0 8a 3e 64
        E 0 8f 30 64
        E 0 92 40 64
        E 0 93 40 5a
        E 0 9a 40 64
        E 0 9f 30 5a
        E 0 8f 30 64
        E 0 9f 30 5a
        E 0 83 40 64
        E 0 8a 40 64
        E 0 8f 30 64
        E 0 93 40 5a
        E 0 9a 40 64
        E 0 9f 24 5a
        E 0 8f 24 64
        E 0 9f 30 5a
        E 0 82 40 64
        E 0 83 40 64
        E 0 8a 40 64
        E 0 8f 30 64
        E 0 92 4f 64
        E 0 93 40 5a
        E 0 9a 40 64
        E 0 9f 24 5a
        E 0 82 4f 64
        E 0 8f 24 64
        E 0 92 4d 64
        E 0 9f 30 5a
        E 0 82 4d 64
        E 0 83 40 64
        E 0 8a 40 64
        E 0 8f 30 64
        E 0 92 4c 64
        E 0 93 40 5a
        E 0 9a 40 64
        E 0 9f 30 5a
        E 0 8f 30 64
        E 0 9f 30 5a
        E 0 83 40 64
        E 0 8a 40 64
        E 0 8f 30 64
        E 1 93 40 5a
        E 0 9a 40 64
        E 0 9f 24 5a
        E 0 8f 24 64
        E 0 9f 30 5a
        E 0 82 4c 64
        E 0 83 40 64
        E 0 8a 40 64
        E 0 8f 30 64
        E 0 92 43 64
        E 0 93 40 5a
        E 0 9a 40 64
        E 0 9f 24 5a
        E 38404 82 43 64
        E 0 83 40 64
        E 0 8a 40 64
        E 0 8f 24 64
        E 0 92 41 64
        E 0 93 41 5a
        E 1 9a 41 64
        E 0 9f 30 5a
        E 0 82 41 64
        E 0 83 41 64
        E 0 8a 41 64
        E 0 8f 30 64
        E 0 92 40 64
        E 0 93 43 5a
        E 0 9a 43 64
        E 0 9f 30 5a
        E 0 8f 30 64
        E 0 9f 30 5a
        E 0 82 40 64
        E 0 83 43 64
        E 0 8a 43 64
        E 0 8f 30 64
        E 0 92 48 64
        E 0 93 48 5a
        E 0 9a 48 64
        E 0 9f 3c 5a
        E 0 82 48 64
        E 0 83 48 64
        E 0 8a 48 64
        E 0 8f 3c 64
        E 0 92 41 64
        E 0 93 41 5a
        E 0 9a 41 64
        E 0 9f 35 5a
        E 0 82 41 64
        E 0 83 41 64
        E 0 8a 41 64
        E 0 8f 35 64
        E 0 92 3e 64
        E 0 93 3e 5a
        E 0 9a 3e 64
        E 0 9f 32 5a
        E 0 82 3e 64
        E 0 83 3e 64
        E 0 8a 3e 64
        E 0 8f 32 64
        E 0 92 43 64
        E 0 93 43 5a
        E 0 9a 43 64
        E 0 9f 37 5a
        E 0 82 43 64
        E 0 83 43 64
        E 0 8a 43 64
        E 0 8f 37 64
        E 0 92 40 64
        E 0 93 40 5a
        E 0 9a 40 64
        E 0 9f 24 5a
        E 0 8f 24 64
        E 0 9f 30 5a
        E 0 8f 30 64
        E 0 9f 30 5a
        E 0 8f 30 64
        E 0 9f 30 5a
        E 0 82 40 64
        E 0 83 40 64
        E 0 8a 40 64
        E 0 8f 30 64
        E 0 92 48 64
        E 1 93 48 5a
        E 0 9a 48 64
        E 0 9f 3c 5a
        E 0 82 48 64
        E 0 83 48 64
        E 0 8a 48 64
        E 0 8f 3c 64
        E 0 92 41 64
        E 0 93 41 5a
        E 0 9a 41 64
        E 0 9f 35 5a
        E 0 82 41 64
        E 0 83 41 64
        E 0 8a 41 64
        E 0 8f 35 64
        E 0 92 3e 64
        E 0 93 3e 5a
        E 0 9a 3e 64
        E 0 9f 32 5a
        E 0 82 3e 64
        E 0 83 3e 64
        E 0 8a 3e 64
        E 0 8f 32 64
        E 0 92 43 64
        E 0 93 43 5a
        E 0 9a 43 64
        E 0 9f 37 5a
        E 0 82 43 64
        E 0 83 43 64
        E 0 8a 43 64
        E 0 8f 37 64
        E 0 92 48 64
        E 0 93 3c 5a
        E 0 9a 3c 64
        E 0 9f 24 5a
        E 0 82 48 64
        E 0 8f 24 64
        E 0 92 4a 64
        E 0 9f 30 5a
        E 0 82 4a 64
        E 0 8f 30 64
        E 0 92 4c 64
        E 0 9f 30 5a
        E 0 8f 30 64
        E 0 9f 30 5a
        E 0 82 4c 64
        E 0 8f 30 64
        E 0 92 48 64
        E 0 9f 24 5a
        E 0 8f 24 64
        E 0 9f 30 5a
        E 0 82 48 64
        E 0 83 3c 64
        E 0 8a 3c 64
        E 0 8f 30 64
        E 0 92 4a 64
        E 0 93 3b 5a
        E 0 9f 2b 5a
        E 0 83 3b 64
        E 0 8f 2b 64
        E 0 93 39 5a
        E 0 9f 37 5a
        E 0 82 4a 64
        E 0 83 39 64
        E 0 8f 37 64
        E 0 92 53 64
        E 0 93 37 5a
        E 0 9f 37 5a
        E 1 8f 37 64
        E 0 9f 37 5a
        E 0 82 53 64
        E 0 83 37 64
        E 0 8f 37 64
        E 0 92 56 64
        E 0 93 37 5a
        E 0 9f 2b 5a
        E 0 8f 2b 64
        E 0 9f 37 5a
        E 0 82 56 64
        E 0 83 37 64
        E 0 8f 37 64
        E 0 92 4a 64
        E 0 93 43 5a
        E 0 9f 2b 5a
        E 0 82 4a 64
        E 0 8f 2b 64
        E 0 92 4c 64
        E 0 9f 37 5a
        E 0 82 4c 64
        E 0 83 43 64
        E 0 8f 37 64
        E 0 92 4d 64
        E 0 93 43 5a
        E 0 9f 37 5a
        E 0 8f 37 64
        E 0 9f 37 5a
        E 0 82 4d 64
        E 0 8f 37 64
        E 0 92 4a 64
        E 0 9f 2b 5a
        E 0 8f 2b 64
        E 0 9f 37 5a
        E 0 82 4a 64
        E 0 83 43 64
        E 0 8f 37 64
        E 0 92 4c 64
        E 0 93 43 5a
        E 0 9f 30 5a
        E 0 82 4c 64
        E 0 83 43 64
        E 0 8f 30 64
        E 0 92 4a 64
        E 0 93 41 5a
        E 0 9f 3c 5a
        E 0 82 4a 64
        E 0 83 41 64
        E 0 8f 3c 64
        E 0 92 48 64
        E 0 93 40 5a
        E 0 9f 3c 5a
        E 0 8f 3c 64
        E 0 9f 3c 5a
        E 0 82 48 64
        E 0 83 40 64
        E 0 8f 3c 64
        E 0 92 43 64
        E 0 93 40 5a
        E 0 9f 30 5a
        E 0 8f 30 64
        E 0 9f 3c 5a
        E 0 82 43 64
        E 0 83 40 64
        E 0 8f 3c 64
        E 0 92 43 64
        E 1 93 3b 5a
        E 0 9f 2b 5a
        E 0 82 43 64
        E 0 8f 2b 64
        E 0 92 47 64
        E 0 9f 37 5a
        E 0 82 47 64
        E 0 8f 37 64
        E 0 92 4a 64
        E 0 9f 37 5a
        E 0 8f 37 64
        E 0 9f 37 5a
        E 0 82 4a 64
        E 0 83 3b 64
        E 0 8f 37 64
        E 0 92 43 64
        E 0 93 3b 5a
        E 0 9f 2b 5a
        E 0 8f 2b 64
        E 0 9f 37 5a
        E 0 82 43 64
        E 0 83 3b 64
        E 0 8f 37 64
        E 0 92 41 64
        E 0 93 3b 5a
        E 0 9f 2b 5a
        E 0 82 41 64
        E 0 8f 2b 64
        E 0 92 47 64
        E 0 9f 35 5a
        E 0 82 47 64
        E 0 8f 35 64
        E 0 92 4a 64
        E 0 9f 35 5a
        E 0 8f 35 64
        E 0 9f 35 5a
        E 0 82 4a 64
        E 0 83 3b 64
        E 0 8f 35 64
        E 0 92 41 64
        E 0 93 3b 5a
        E 0 9f 2b 5a
        E 0 8f 2b 64
        E 0 9f 35 5a
        E 0 82 41 64
        E 0 83 3b 64
        E 0 8f 35 64
        E 0 92 40 64
        E 0 93 3c 5a
        E 0 9f 2b 5a
        E 0 82 40 64
        E 0 8f 2b 64
        E 0 92 43 64
        E 0 9f 34 5a
        E 0 82 43 64
        E 0 8f 34 64
        E 0 92 48 64
        E 0 9f 34 5a
        E 0 8f 34 64
        E 0 9f 34 5a
        E 0 82 48 64
        E 0 83 3c 64
        E 0 8f 34 64
        E 0 92 40 64
        E 0 93 40 5a
        E 0 9f 2b 5a
        E 0 8f 2b 64
        E 0 9f 34 5a
        E 0 82 40 64
        E 0 83 40 64
        E 0 8f 34 64
        E 0 92 41 64
        E 0 93 41 5a
        E 0 9f 35 5a
        E 0 82 41 64
        E 0 83 41 64
        E 0 8f 35 64
        E 0 92 3e 64
        E 0 93 3e 5a
        E 0 9f 32 5a
        E 0 82 3e 64
        E 0 83 3e 64
        E 0 8f 32 64
        E 0 92 43 64
        E 0 93 43 5a
        E 0 9f 37 5a
        E 0 82 43 64
        E 0 83 43 64
        E 0 8f 37 64
        E 0 92 3c 64
        E 0 93 3c 5a
        E 0 9f 30 5a
        E 0 82 3c 64
        E 0 83 3c 64
        E 0 8f 30 64
        E 0 92 3c 64
        E 0 93 3c 5a
        E 0 9a 3c 64
        E 0 9f 30 5a
        E 0 82 3c 64
        E 0 83 3c 64
        E 0 8a 3c 64
        E 0 8f 30 64
        E 0 92 3c 64
        E 0 93 3c 5a
        E 0 9a 3c 64
        E 0 9f 30 5a
        E 0 82 3c 64
        E 0 83 3c 64
        E 0 8a 3c 64
        E 0 8f 30 64
        E 0 92 3e 64
        E 0 93 3e 5a
        E 0 9a 3e 64
        E 0 9f 3c 5a
        E 0 82 3e 64
        E 0 83 3e 64
        E 0 8a 3e 64
        E 0 8f 3c 64
        E 0 92 40 64
        E 1 93 40 5a
        E 0 9a 40 64
        E 0 9f 3c 5a
        E 0 8f 3c 64
        E 0 9f 3c 5a
        E 0 82 40 64
        E 0 83 40 64
        E 0 8a 40 64
        E 0 8f 3c 64
        E 0 92 3c 64
        E 0 93 3c 5a
        E 0 9a 3c 64
        E 0 9f 30 5a
        E 0 8f 30 64
        E 0 9f 3c 5a
        E 0 82 3c 64
        E 0 83 3c 64
        E 0 8a 3c 64
        E 0 8f 3c 64
        E 0 92 43 64
        E 0 93 43 5a
        E 0 9a 43 64
        E 0 9f 2f 5a
        E 0 8f 2f 64
        E 0 9f 3b 5a
        E 0 82 43 64
        E 0 83 43 64
        E 0 8a 43 64
        E 0 8f 3b 64
        E 0 92 43 64
        E 0 93 43 5a
        E 0 9a 43 64
        E 0 9f 3b 5a
        E 0 8f 3b 64
        E 0 9f 3b 5a
        E 0 82 43 64
        E 0 83 43 64
        E 0 8a 43 64
        E 0 8f 3b 64
        E 0 92 43 64
        E 0 93 43 5a
        E 0 9a 43 64
        E 0 9f 2f 5a
        E 0 8f 2f 64
        E 0 9f 3b 5a
        E 0 82 43 64
        E 0 83 43 64
        E 0 8a 43 64
        E 0 8f 3b 64
        E 0 92 45 64
        E 0 93 45 5a
        E 0 9a 45 64
        E 0 9f 2d 5a
        E 0 82 45 64
        E 0 83 45 64
        E 0 8a 45 64
        E 0 8f 2d 64
        E 0 92 47 64
        E 0 93 47 5a
        E 0 9a 47 64
        E 0 9f 39 5a
        E 0 82 47 64
        E 0 83 47 64
        E 0 8a 47 64
        E 0 8f 39 64
        E 0 92 48 64
        E 0 93 48 5a
        E 0 9a 48 64
        E 0 9f 39 5a
        E 0 8f 39 64
        E 0 9f 39 5a
        E 0 82 48 64
        E 0 83 48 64
        E 0 8a 48 64
        E 0 8f 39 64
        E 0 92 48 64
        E 0 93 48 5a
        E 0 9a 48 64
        E 0 9f 2d 5a
        E 0 8f 2d 64
        E 0 9f 39 5a
        E 0 82 48 64
        E 0 83 48 64
        E 0 8a 48 64
        E 0 8f 39 64
        E 0 92 4a 64
        E 0 93 47 5a
        E 0 9a 47 64
        E 0 9f 2b 5a
        E 0 8f 2b 64
        E 0 9f 37 5a
        E 0 82 4a 64
        E 0 83 47 64
        E 0 8a 47 64
        E 0 8f 37 64
        E 0 92 4f 64
        E 0 93 43 5a
        E 0 9a 43 64
        E 0 9f 37 5a
        E 0 8f 37 64
        E 0 9f 37 5a
        E 1 82 4f 64
        E 0 83 43 64
        E 0 8a 43 64
        E 0 8f 37 64
        E 0 92 43 64
        E 0 93 43 5a
        E 0 9a 43 64
        E 0 9f 2b 5a
        E 0 8f 2b 64
        E 0 9f 37 5a
        E 0 82 43 64
        E 0 83 43 64
        E 0 8a 43 64
        E 0 8f 37 64
        E 0 92 43 64
        E 0 93 43 5a
        E 0 9a 43 64
        E 0 9f 2b 5a
        E 0 82 43 64
        E 0 8f 2b 64
        E 0 92 47 64
        E 0 9f 37 5a
        E 0 82 47 64
        E 0 83 43 64
        E 0 8a 43 64
        E 0 8f 37 64
        E 0 92 4a 64
        E 0 93 43 5a
        E 0 9a 43 64
        E 0 9f 37 5a
        E 0 8f 37 64
        E 0 9f 37 5a
        E 0 82 4a 64
        E 0 83 43 64
        E 0 8a 43 64
        E 0 8f 37 64
        E 0 92 43 64
        E 0 93 43 5a
        E 0 9a 43 64
        E 0 9f 2b 5a
        E 0 8f 2b 64
        E 0 9f 37 5a
        E 0 82 43 64
        E 0 83 43 64
        E 0 8a 43 64
        E 0 8f 37 64
        E 0 92 41 64
        E 0 93 41 5a
        E 0 9a 41 64
        E 0 9f 2b 5a
        E 0 82 41 64
        E 0 8f 2b 64
        E 0 92 47 64
        E 0 9f 35 5a
        E 0 82 47 64
        E 0 83 41 64
        E 0 8a 41 64
        E 0 8f 35 64
        E 0 92 4a 64
        E 0 93 41 5a
        E 0 9a 41 64
        E 0 9f 35 5a
        E 0 8f 35 64
        E 0 9f 35 5a
        E 0 82 4a 64
        E 0 83 41 64
        E 0 8a 41 64
        E 0 8f 35 64
        E 0 92 41 64
        E 0 93 41 5a
        E 0 9a 41 64
        E 0 9f 2b 5a
        E 0 8f 2b 64
        E 0 9f 35 5a
        E 0 82 41 64
        E 0 83 41 64
        E 0 8a 41 64
        E 0 8f 35 64
        E 0 92 40 64
        E 0 93 40 5a
        E 0 9a 40 64
        E 0 9f 2b 5a
        E 0 82 40 64
        E 0 8f 2b 64
        E 0 92 43 64
        E 0 9f 34 5a
        E 0 82 43 64
        E 0 83 40 64
        E 0 8a 40 64
        E 0 8f 34 64
        E 0 92 48 64
        E 0 93 40 5a
        E 0 9a 40 64
        E 0 9f 34 5a
        E 1 8f 34 64
        E 0 9f 34 5a
        E 0 82 48 64
        E 0 83 40 64
        E 0 8a 40 64
        E 0 8f 34 64
        E 0 92 40 64
        E 0 93 40 5a
        E 0 9a 40 64
        E 0 9f 2b 5a
        E 0 8f 2b 64
        E 0 9f 34 5a
        E 0 82 40 64
        E 0 83 40 64
        E 0 8a 40 64
        E 0 8f 34 64
        E 0 92 3e 64
        E 0 93 3e 5a
        E 0 9a 3e 64
        E 0 9f 2b 5a
        E 0 82 3e 64
        E 0 83 3e 64
        E 0 8a 3e 64
        E 0 8f 2b 64
        E 0 92 47 64
        E 0 93 3c 5a
        E 0 9a 3c 64
        E 0 9f 32 5a
        E 0 82 47 64
        E 0 83 3c 64
        E 0 8a 3c 64
        E 0 8f 32 64
        E 0 92 4a 64
        E 0 93 3e 5a
        E 0 9a 3e 64
        E 0 9f 32 5a
        E 0 8f 32 64
        E 0 9f 32 5a
        E 0 82 4a 64
        E 0 83 3e 64
        E 0 8a 3e 64
        E 0 8f 32 64
        E 0 92 47 64
        E 0 9f 2b 5a
        E 0 8f 2b 64
        E 0 9f 32 5a
        E 0 82 47 64
        E 0 8f 32 64
        E 0 92 48 64
        E 0 9f 24 5a
        E 0 82 48 64
        E 0 8f 24 64
        E 0 92 4c 64
        E 0 9f 30 5a
        E 0 82 4c 64
        E 0 8f 30 64
        E 0 92 4f 64
        E 0 9f 30 5a
        E 0 8f 30 64
        E 0 9f 30 5a
        E 0 82 4f 64
        E 0 8f 30 64
        E 0 92 4c 64
        E 0 93 48 5a
        E 0 9a 48 64
        E 0 9f 24 5a
        E 0 8f 24 64
        E 0 9f 30 5a
        E 0 82 4c 64
        E 0 83 48 64
        E 0 8a 48 64
        E 0 8f 30 64
        E 0 92 48 64
        E 0 93 48 5a
        E 0 9a 48 64
        E 0 9f 24 5a
        E 0 82 48 64
        E 0 8f 24 64
        E 0 92 4c 64
        E 0 9f 30 5a
        E 0 82 4c 64
        E 0 83 48 64
        E 0 8a 48 64
        E 0 8f 30 64
        E 0 92 4f 64
        E 0 93 3c 5a
        E 0 9a 3c 64
        E 0 9f 30 5a
        E 0 8f 30 64
        E 0 9f 30 5a
        E 0 82 4f 64
        E 0 83 3c 64
        E 0 8a 3c 64
        E 0 8f 30 64
        E 0 92 48 64
        E 1 93 48 5a
        E 0 9a 48 64
        E 0 9f 24 5a
        E 0 8f 24 64
        E 0 9f 30 5a
        E 0 82 48 64
        E 0 83 48 64
        E 0 8a 48 64
        E 0 8f 30 64
        E 0 92 46 66
        E 0 93 46 5b
        E 0 9a 46 66
        E 0 9f 24 5a
        E 0 82 46 66
        E 0 8f 24 64
        E 0 92 4c 64
        E 0 9f 2e 5b
        E 0 82 4c 64
        E 0 83 46 66
        E 0 8a 46 66
        E 0 8f 2e 66
        E 0 92 4f 64
        E 0 93 3c 5a
        E 0 9a 3c 64
        E 0 9f 2e 5b
        E 0 8f 2e 66
        E 0 9f 2e 5b
        E 0 82 4f 64
        E 0 83 3c 64
        E 0 8a 3c 64
        E 0 8f 2e 66
        E 0 92 46 66
        E 0 93 46 5b
        E 0 9a 46 66
        E 0 9f 24 5a
        E 0 8f 24 64
        E 0 9f 2e 5b
        E 0 82 46 66
        E 0 83 46 66
        E 0 8a 46 66
        E 0 8f 2e 66
        E 0 92 45 64
        E 0 93 45 5a
        E 0 9a 45 64
        E 0 9f 24 5a
        E 0 82 45 64
        E 0 8f 24 64
        E 0 92 48 64
        E 0 9f 2d 5a
        E 0 82 48 64
        E 0 83 45 64
        E 0 8a 45 64
        E 0 8f 2d 64
        E 0 92 4d 64
        E 0 93 3c 5a
        E 0 9a 3c 64
        E 0 9f 2d 5a
        E 0 8f 2d 64
        E 0 9f 2d 5a
        E 0 82 4d 64
        E 0 83 3c 64
        E 0 8a 3c 64
        E 0 8f 2d 64
        E 0 92 45 64
        E 0 93 45 5a
        E 0 9a 45 64
        E 0 9f 24 5a
        E 0 8f 24 64
        E 0 9f 2d 5a
        E 0 82 45 64
        E 0 83 45 64
        E 0 8a 45 64
        E 0 8f 2d 64
        E 0 92 43 64
        E 0 93 43 5a
        E 0 9a 43 64
        E 0 9f 24 5a
        E 0 82 43 64
        E 0 83 43 64
        E 0 8a 43 64
        E 0 8f 24 64
        E 0 92 4c 64
        E 0 93 41 5a
        E 0 9a 41 64
        E 0 9f 30 5a
        E 0 82 4c 64
        E 0 83 41 64
        E 0 8a 41 64
        E 0 8f 30 64
        E 1 92 4f 64
        E 0 93 43 5a
        E 0 9a 43 64
        E 0 9f 30 5a
        E 0 8f 30 64
        E 0 9f 30 5a
        E 0 82 4f 64
        E 0 83 43 64
        E 0 8a 43 64
        E 0 8f 30 64
        E 0 92 48 64
        E 0 9f 24 5a
        E 0 8f 24 64
        E 0 9f 30 5a
        E 0 82 48 64
        E 0 8f 30 64
        E 0 92 48 64
        E 0 9f 29 5a
        E 0 82 48 64
        E 0 8f 29 64
        E 0 92 46 66
        E 0 9f 35 5a
        E 0 82 46 66
        E 0 8f 35 64
        E 0 92 45 64
        E 0 9f 35 5a
        E 0 8f 35 64
        E 0 9f 35 5a
        E 0 8f 35 64
        E 0 93 41 5a
        E 0 9a 41 64
        E 0 9f 29 5a
        E 0 8f 29 64
        E 0 9f 35 5a
        E 0 82 45 64
        E 0 83 41 64
        E 0 8a 41 64
        E 0 8f 35 64
        E 0 92 54 64
        E 0 93 41 5a
        E 0 9a 41 64
        E 0 9f 29 5a
        E 0 82 54 64
        E 0 8f 29 64
        E 0 92 52 66
        E 0 9f 35 5a
        E 0 82 52 66
        E 0 83 41 64
        E 0 8a 41 64
        E 0 8f 35 64
        E 0 92 51 64
        E 0 93 41 5a
        E 0 9a 41 64
        E 0 9f 35 5a
        E 0 8f 35 64
        E 0 9f 35 5a
        E 0 83 41 64
        E 0 8a 41 64
        E 0 8f 35 64
        E 0 93 41 5a
        E 0 9a 41 64
        E 0 9f 29 5a
        E 0 8f 29 64
        E 0 9f 35 5a
        E 0 82 51 64
        E 0 83 41 64
        E 0 8a 41 64
        E 0 8f 35 64
        E 0 92 48 64
        E 0 93 41 5a
        E 0 9a 41 64
        E 0 9f 29 5a
        E 0 82 48 64
        E 0 83 41 64
        E 0 8a 41 64
        E 0 8f 29 64
        E 0 92 46 66
        E 0 93 43 5a
        E 0 9a 43 64
        E 1 9f 35 5a
        E 0 82 46 66
        E 0 83 43 64
        E 0 8a 43 64
        E 0 8f 35 64
        E 0 92 45 64
        E 0 93 45 5a
        E 0 9a 45 64
        E 0 9f 35 5a
        E 0 8f 35 64
        E 0 9f 35 5a
        E 0 83 45 64
        E 0 8a 45 64
        E 0 8f 35 64
        E 0 93 45 5a
        E 0 9a 45 64
        E 0 9f 29 5a
        E 0 8f 29 64
        E 0 9f 35 5a
        E 0 82 45 64
        E 0 83 45 64
        E 0 8a 45 64
        E 0 8f 35 64
        E 0 92 54 64
        E 0 93 45 5a
        E 0 9a 45 64
        E 0 9f 29 5a
        E 0 82 54 64
        E 0 8f 29 64
        E 0 92 52 66
        E 0 9f 35 5a
        E 0 82 52 66
        E 0 83 45 64
        E 0 8a 45 64
        E 0 8f 35 64
        E 0 92 51 64
        E 0 93 45 5a
        E 0 9a 45 64
        E 0 9f 35 5a
        E 0 8f 35 64
        E 0 9f 35 5a
        E 0 83 45 64
        E 0 8a 45 64
        E 0 8f 35 64
        E 0 93 45 5a
        E 0 9a 45 64
        E 0 9f 29 5a
        E 0 8f 29 64
        E 0 9f 35 5a
        E 0 82 51 64
        E 0 83 45 64
        E 0 8a 45 64
        E 0 8f 35 64
        E 0 92 45 64
        E 0 93 3c 5a
        E 0 9a 45 64
        E 0 9f 29 5a
        E 0 82 45 64
        E 0 8a 45 64
        E 0 8f 29 64
        E 0 92 46 66
        E 0 9a 46 66
        E 0 9f 35 5a
        E 0 82 46 66
        E 0 8a 46 66
        E 0 8f 35 64
        E 0 92 48 64
        E 0 9a 48 64
        E 0 9f 35 5a
        E 0 8f 35 64
        E 0 9f 35 5a
        E 0 82 48 64
        E 0 83 3c 64
        E 0 8a 48 64
        E 0 8f 35 64
        E 0 92 41 64
        E 0 93 41 5a
        E 0 9a 41 64
        E 0 9f 29 5a
        E 0 8f 29 64
        E 0 9f 35 5a
        E 38410 82 41 64
        E 0 83 41 64
        E 0 8a 41 64
        E 0 8f 35 64
        E 0 92 43 64
        E 0 93 43 5a
        E 0 9a 43 64
        E 0 9f 37 5a
        E 0 82 43 64
        E 0 83 43 64
        E 0 8a 43 64
        E 0 8f 37 64
        E 0 92 3c 64
        E 0 93 3c 5a
        E 0 9a 3c 64
        E 0 9f 30 5a
        E 0 82 3c 64
        E 0 83 3c 64
        E 0 8a 3c 64
        E 0 8f 30 64
        E 0 92 40 64
        E 0 93 40 5a
        E 0 9a 40 64
        E 0 9f 24 5a
        E 0 82 40 64
        E 0 83 40 64
        E 0 8a 40 64
        E 0 8f 24 64
        E 0 92 41 64
        E 0 93 41 5a
        E 0 9a 41 64
        E 0 9f 29 5a
        E 0 8f 29 64
        E 0 9f 35 5a
        E 0 8f 35 64
        E 0 9f 35 5a
        E 0 8f 35 64
        E 0 9f 35 5a
        E 0 82 41 64
        E 0 83 41 64
        E 0 8a 41 64
        E 0 8f 35 64
        E 0 92 41 64
        E 0 9a 41 64
        E 0 9f 29 5a
        E 0 8f 29 64
        E 0 9f 35 5a
        E 0 82 41 64
        E 0 8a 41 64
        E 0 8f 35 64
        E 0 92 41 64
        E 0 9a 41 64
        E 0 9f 29 5a
        E 0 82 41 64
        E 0 8a 41 64
        E 0 8f 29 64
        E 0 92 43 64
        E 0 9a 43 64
        E 1 9f 35 5a
        E 0 82 43 64
        E 0 8a 43 64
        E 0 8f 35 64
        E 0 92 45 64
        E 0 9a 45 64
        E 0 9f 35 5a
        E 0 82 45 64
        E 0 8a 45 64
        E 0 8f 35 64
        E 0 92 46 66
        E 0 9a 46 66
        E 0 9f 35 5a
        E 0 82 46 66
        E 0 8a 46 66
        E 0 8f 35 64
        E 0 92 48 64
        E 0 9a 48 64
        E 0 9f 29 5a
        E 0 82 48 64
        E 0 8a 48 64
        E 0 8f 29 64
        E 0 92 4a 64
        E 0 9a 4a 64
        E 0 9f 35 5a
        E 0 82 4a 64
        E 0 8a 4a 64
        E 0 8f 35 64
        E 0 92 47 64
        E 0 93 47 5a
        E 0 9a 47 64
        E 0 9f 2b 5a
        E 0 8f 2b 64
        E 0 9f 37 5a
        E 0 82 47 64
        E 0 8a 47 64
        E 0 8f 37 64
        E 0 92 4a 64
        E 1 9a 4a 64
        E 0 9f 37 5a
        E 0 8f 37 64
        E 0 9f 37 5a
        E 0 82 4a 64
        E 0 8a 4a 64
        E 0 8f 37 64
        E 0 92 41 64
        E 0 9a 41 64
        E 0 9f 2b 5a
        E 0 8f 2b 64
        E 0 9f 37 5a
        E 0 82 41 64
        E 0 83 47 64
        E 0 8a 41 64
        E 0 8f 37 64
        E 0 92 40 64
        E 0 93 46 5b
        E 0 9a 40 64
        E 0 9f 30 5a
        E 0 82 40 64
        E 0 8a 40 64
        E 0 8f 30 64
        E 0 92 41 64
        E 0 9a 41 64
        E 0 9f 3c 5a
        E 0 82 41 64
        E 0 8a 41 64
        E 0 8f 3c 64
        E 0 92 43 64
        E 0 9a 43 64
        E 0 9f 3c 5a
        E 0 82 43 64
        E 0 8a 43 64
        E 0 8f 3c 64
        E 0 92 45 64
        E 0 9a 45 64
        E 0 9f 3c 5a
        E 0 82 45 64
        E 0 8a 45 64
        E 0 8f 3c 64
        E 0 92 46 66
        E 1 9a 46 66
        E 0 9f 30 5a
        E 0 82 46 66
        E 0 8a 46 66
        E 0 8f 30 64
        E 0 92 48 64
        E 0 9a 48 64
        E 0 9f 3c 5a
        E 0 82 48 64
        E 0 83 46 66
        E 0 8a 48 64
        E 0 8f 3c 64
        E 0 92 45 64
        E 0 93 45 5a
        E 0 9a 45 64
        E 0 9f 29 5a
        E 0 8f 29 64
        E 0 9f 35 5a
        E 0 82 45 64
        E 0 8a 45 64
        E 0 8f 35 64
        E 0 92 48 64
        E 0 9a 48 64
        E 0 9f 35 5a
        E 0 8f 35 64
        E 1 9f 35 5a
        E 0 82 48 64
        E 0 8a 48 64
        E 0 8f 35 64
        E 0 92 3f 66
        E 0 9a 3f 66
        E 0 9f 29 5a
        E 0 8f 29 64
        E 0 9f 35 5a
        E 0 82 3f 66
        E 0 83 45 64
        E 0 8a 3f 66
        E 1 8f 35 64
        E 0 92 3e 64
        E 0 93 45 5a
        E 0 9a 3e 64
        E 0 9f 2e 5b
        E 0 82 3e 64
        E 0 8a 3e 64
        E 0 8f 2e 66
        E 0 92 3f 66
        E 0 9a 3f 66
        E 0 9f 3a 5b
        E 0 82 3f 66
        E 0 8a 3f 66
        E 0 8f 3a 66
        E 0 92 41 64
        E 0 9a 41 64
        E 0 9f 3a 5b
        E 0 82 41 64
        E 0 8a 41 64
        E 0 8f 3a 66
        E 0 92 43 64
        E 0 9a 43 64
        E 0 9f 3a 5b
        E 0 82 43 64
        E 0 8a 43 64
        E 0 8f 3a 66
        E 0 92 45 64
        E 0 9a 45 64
        E 0 9f 2e 5b
        E 0 82 45 64
        E 0 8a 45 64
        E 0 8f 2e 66
        E 1 92 46 66
        E 0 9a 46 66
        E 0 9f 3a 5b
        E 0 82 46 66
        E 0 83 45 64
        E 0 8a 46 66
        E 0 8f 3a 66
        E 0 92 43 64
        E 0 93 43 5a
        E 0 9a 43 64
        E 0 9f 28 5a
        E 0 8f 28 64
        E 0 9f 34 5a
        E 0 82 43 64
        E 0 8a 43 64
        E 0 8f 34 64
        E 0 92 46 66
        E 0 9a 46 66
        E 0 9f 34 5a
        E 0 8f 34 64
        E 0 9f 34 5a
        E 0 82 46 66
        E 0 8a 46 66
        E 0 8f 34 64
        E 0 92 3e 64
        E 0 9a 3e 64
        E 0 9f 28 5a
        E 0 8f 28 64
        E 0 9f 34 5a
        E 0 82 3e 64
        E 0 83 43 64
        E 0 8a 3e 64
        E 0 8f 34 64
        E 0 92 3c 64
        E 0 93 43 5a
        E 0 9a 3c 64
        E 0 9f 2d 5a
        E 0 82 3c 64
        E 0 8a 3c 64
        E 0 8f 2d 64
        E 0 92 3e 64
        E 0 9a 3e 64
        E 0 9f 39 5a
        E 0 82 3e 64
        E 0 8a 3e 64
        E 0 8f 39 64
        E 0 92 40 64
        E 0 9a 40 64
        E 0 9f 39 5a
        E 0 82 40 64
        E 0 8a 40 64
        E 0 8f 39 64
        E 1 92 41 64
        E 0 9a 41 64
        E 0 9f 39 5a
        E 0 82 41 64
        E 0 8a 41 64
        E 0 8f 39 64
        E 0 92 43 64
        E 0 9a 43 64
        E 0 9f 2d 5a
        E 0 82 43 64
        E 0 8a 43 64
        E 0 8f 2d 64
        E 0 92 45 64
        E 0 9a 45 64
        E 0 9f 39 5a
        E 0 82 45 64
        E 0 83 43 64
        E 0 8a 45 64
        E 0 8f 39 64
        E 0 92 46 66
        E 0 93 43 5a
        E 1 9a 46 66
        E 0 9f 2b 5a
        E 0 82 46 66
        E 0 8a 46 66
        E 0 8f 2b 64
        E 0 92 4a 64
        E 0 9a 4a 64
        E 0 9f 30 5a
        E 0 82 4a 64
        E 0 8a 4a 64
        E 0 8f 30 64
        E 0 92 48 64
        E 0 9a 48 64
        E 0 9f 30 5a
        E 0 82 48 64
        E 0 8a 48 64
        E 0 8f 30 64
        E 0 92 46 66
        E 0 9a 46 66
        E 0 9f 30 5a
        E 0 82 46 66
        E 0 83 43 64
        E 0 8a 46 66
        E 0 8f 30 64
        E 0 92 45 64
        E 0 93 40 5a
        E 0 9a 45 64
        E 0 9f 24 5a
        E 0 82 45 64
        E 0 8a 45 64
        E 0 8f 24 64
        E 0 92 43 64
        E 0 9a 43 64
        E 0 9f 30 5a
        E 0 82 43 64
        E 0 83 40 64
        E 0 8a 43 64
        E 0 8f 30 64
        E 0 92 45 64
        E 0 93 3c 5a
        E 0 9a 45 64
        E 0 9f 29 5a
        E 0 82 45 64
        E 0 83 3c 64
        E 0 8a 45 64
        E 0 8f 29 64
        E 0 92 41 64
        E 0 93 41 5a
        E 0 9a 41 64
        E 0 9f 35 5a
        E 0 82 41 64
        E 0 83 41 64
        E 0 8a 41 64
        E 0 8f 35 64
        E 0 92 45 64
        E 0 93 45 5a
        E 0 9a 45 64
        E 0 9f 39 5a
        E 0 82 45 64
        E 0 83 45 64
        E 0 8a 45 64
        E 0 8f 39 64
        E 0 92 46 66
        E 0 93 46 5b
        E 0 9a 46 66
        E 0 9f 3a 5b
        E 0 82 46 66
        E 0 83 46 66
        E 0 8a 46 66
        E 0 8f 3a 66
        E 0 92 43 64
        E 0 93 43 5a
        E 0 9a 43 64
        E 0 9f 37 5a
        E 0 82 43 64
        E 0 83 43 64
        E 0 8a 43 64
        E 0 8f 37 64
        E 0 92 48 64
        E 0 93 48 5a
        E 1 9a 48 64
        E 0 9f 3c 5a
        E 0 82 48 64
        E 0 83 48 64
        E 0 8a 48 64
        E 0 8f 3c 64
        E 0 92 41 64
        E 0 93 41 5a
        E 0 9a 41 64
        E 0 9f 29 5a
        E 0 8f 29 64
        E 0 9f 35 5a
        E 0 8f 35 64
        E 0 9f 35 5a
        E 0 8f 35 64
        E 0 9f 35 5a
        E 0 82 41 64
        E 0 83 41 64
        E 0 8a 41 64
        E 0 8f 35 64
        E 0 92 45 64
        E 0 93 45 5a
        E 0 9a 45 64
        E 0 9f 29 5a
        E 0 8f 29 64
        E 0 9f 39 5a
        E 0 82 45 64
        E 0 83 45 64
        E 0 8a 45 64
        E 0 8f 39 64
        E 0 92 46 66
        E 0 93 46 5b
        E 0 9a 46 66
        E 0 9f 3a 5b
        E 0 82 46 66
        E 0 83 46 66
        E 0 8a 46 66
        E 0 8f 3a 66
        E 0 92 43 64
        E 0 93 43 5a
        E 0 9a 43 64
        E 0 9f 37 5a
        E 0 82 43 64
        E 0 83 43 64
        E 0 8a 43 64
        E 0 8f 37 64
        E 0 92 48 64
        E 0 93 48 5a
        E 0 9a 48 64
        E 0 9f 3c 5a
        E 0 82 48 64
        E 0 83 48 64
        E 0 8a 48 64
        E 0 8f 3c 64
        E 0 92 41 64
        E 0 93 45 5a
        E 0 9a 41 64
        E 0 9f 29 5a
        E 0 82 41 64
        E 0 8f 29 64
        E 0 92 43 64
        E 0 9f 35 5a
        E 0 82 43 64
        E 0 83 45 64
        E 0 8f 35 64
        E 0 92 45 64
        E 0 93 41 5a
        E 0 9f 35 5a
        E 0 8f 35 64
        E 0 9f 35 5a
        E 0 82 45 64
        E 0 8a 41 64
        E 0 8f 35 64
        E 0 92 41 64
        E 0 9f 29 5a
        E 0 8f 29 64
        E 0 9f 35 5a
        E 0 82 41 64
        E 0 83 41 64
        E 0 8f 35 64
        E 0 92 43 64
        E 0 93 40 5a
        E 0 9f 24 5a
        E 0 83 40 64
        E 0 8f 24 64
        E 0 93 3e 5a
        E 0 9f 30 5a
        E 0 82 43 64
        E 0 83 3e 64
        E 0 8f 30 64
        E 0 92 4c 64
        E 0 93 3c 5a
        E 0 9f 30 5a
        E 0 8f 30 64
        E 0 9f 30 5a
        E 0 82 4c 64
        E 0 83 3c 64
        E 0 8f 30 64
        E 0 92 4f 64
        E 0 93 3c 5a
        E 0 9f 24 5a
        E 0 8f 24 64
        E 0 9f 30 5a
        E 0 82 4f 64
        E 0 83 3c 64
        E 0 8f 30 64
        E 0 92 43 64
        E 0 93 3c 5a
        E 0 9f 24 5a
        E 0 82 43 64
        E 0 8f 24 64
        E 1 92 45 64
        E 0 9f 30 5a
        E 0 82 45 64
        E 0 83 3c 64
        E 0 8f 30 64
        E 0 92 46 66
        E 0 93 3c 5a
        E 0 9f 30 5a
        E 0 8f 30 64
        E 0 9f 30 5a
        E 0 82 46 66
        E 0 8f 30 64
        E 0 92 43 64
        E 0 9f 24 5a
        E 0 8f 24 64
        E 0 9f 30 5a
        E 0 82 43 64
        E 0 83 3c 64
        E 0 8f 30 64
        E 0 92 45 64
        E 0 93 3c 5a
        E 0 9f 29 5a
        E 0 83 3c 64
        E 0 8f 29 64
        E 0 93 3a 5b
        E 0 9f 35 5a
        E 0 82 45 64
        E 0 83 3a 66
        E 0 8f 35 64
        E 0 92 4d 64
        E 0 93 39 5a
        E 0 9f 35 5a
        E 0 8f 35 64
        E 0 9f 35 5a
        E 0 82 4d 64
        E 0 83 39 64
        E 0 8f 35 64
        E 0 92 51 64
        E 0 93 3c 5a
        E 0 9f 29 5a
        E 0 8f 29 64
        E 0 9f 35 5a
        E 0 82 51 64
        E 0 83 3c 64
        E 0 8f 35 64
        E 0 92 45 64
        E 0 93 3c 5a
        E 0 9f 29 5a
        E 0 82 45 64
        E 0 8f 29 64
        E 0 92 46 66
        E 0 9f 35 5a
        E 0 82 46 66
        E 0 83 3c 64
        E 0 8f 35 64
        E 0 92 48 64
        E 0 93 3c 5a
        E 0 9f 35 5a
        E 0 8f 35 64
        E 0 9f 35 5a
        E 0 82 48 64
        E 0 8f 35 64
        E 0 92 45 64
        E 0 9f 29 5a
        E 0 8f 29 64
        E 0 9f 35 5a
        E 0 82 45 64
        E 0 83 3c 64
        E 0 8f 35 64
        E 0 92 43 64
        E 0 93 3c 5a
        E 0 9f 24 5a
        E 0 8f 24 64
        E 0 9f 30 5a
        E 0 83 3c 64
        E 0 8f 30 64
        E 1 93 40 5a
        E 0 9f 30 5a
        E 0 8f 30 64
        E 0 9f 30 5a
        E 0 82 43 64
        E 0 8f 30 64
        E 0 92 48 64
        E 0 9f 24 5a
        E 0 8f 24 64
        E 0 9f 30 5a
        E 0 82 48 64
        E 0 83 40 64
        E 0 8f 30 64
        E 0 92 48 64
        E 0 93 40 5a
        E 0 9f 24 5a
        E 0 82 48 64
        E 0 8f 24 64
        E 0 92 4c 64
        E 0 9f 30 5a
        E 0 82 4c 64
        E 0 83 40 64
        E 0 8f 30 64
        E 0 92 4f 64
        E 0 93 40 5a
        E 0 9f 30 5a
        E 0 8f 30 64
        E 0 9f 30 5a
        E 0 82 4f 64
        E 0 8f 30 64
        E 0 92 48 64
        E 0 9f 24 5a
        E 0 8f 24 64
        E 0 9f 30 5a
        E 0 82 48 64
        E 0 83 40 64
        E 0 8f 30 64
        E 0 92 46 66
        E 0 93 40 5a
        E 0 9f 24 5a
        E 0 82 46 66
        E 0 8f 24 64
        E 0 92 4c 64
        E 0 9f 2e 5b
        E 0 82 4c 64
        E 0 83 40 64
        E 0 8f 2e 66
        E 0 92 4f 64
        E 0 93 40 5a
        E 0 9f 2e 5b
        E 0 8f 2e 66
        E 0 9f 2e 5b
        E 0 82 4f 64
        E 0 8f 2e 66
        E 0 92 46 66
        E 0 9f 24 5a
        E 0 8f 24 64
        E 0 9f 2e 5b
        E 1 82 46 66
        E 0 83 40 64
        E 0 8f 2e 66
        E 0 92 45 64
        E 0 93 41 5a
        E 0 9f 24 5a
        E 0 82 45 64
        E 0 8f 24 64
        E 0 92 48 64
        E 0 9f 2d 5a
        E 0 82 48 64
        E 0 83 41 64
        E 0 8f 2d 64
        E 0 92 4d 64
        E 0 93 41 5a
        E 0 9f 2d 5a
        E 0 8f 2d 64
        E 0 9f 2d 5a
        E 0 82 4d 64
        E 0 8f 2d 64
        E 0 92 45 64
        E 0 9f 24 5a
        E 0 8f 24 64
        E 0 9f 2d 5a
        E 0 82 45 64
        E 0 83 41 64
        E 0 8f 2d 64
        E 0 92 46 66
        E 0 93 46 5b
        E 0 9f 2e 5b
        E 0 82 46 66
        E 0 83 46 66
        E 0 8f 2e 66
        E 0 92 43 64
        E 0 93 43 5a
        E 0 9f 2b 5a
        E 0 82 43 64
        E 0 83 43 64
        E 0 8f 2b 64
        E 0 92 48 64
        E 0 93 48 5a
        E 0 9f 30 5a
        E 0 82 48 64
        E 0 83 48 64
        E 0 8f 30 64
        E 0 92 41 64
        E 0 93 41 5a
        E 0 9f 29 5a
        E 0 82 41 64
        E 0 83 41 64
        E 0 8f 29 64
        E 0 93 3e 5a
        E 0 9a 3e 64
        E 0 83 3e 64
        E 0 8a 3e 64
        E 0 92 41 64
        E 0 93 3e 5a
        E 0 9a 3e 64
        E 0 82 41 64
        E 0 92 43 64
        E 0 82 43 64
        E 0 83 3e 64
        E 0 8a 3e 64
        E 0 92 41 64
        E 0 93 3e 5a
        E 0 9a 41 64
        E 0 82 41 64
        E 0 92 43 64
        E 0 82 43 64
        E 0 83 3e 64
        E 0 8a 41 64
        E 0 92 41 64
        E 0 93 3e 5a
        E 1 9a 45 64
        E 0 82 41 64
        E 0 92 43 64
        E 0 82 43 64
        E 0 83 3e 64
        E 0 8a 45 64
        E 0 92 45 64
        E 0 93 3e 5a
        E 0 9a 4a 64
        E 0 82 45 64
        E 0 92 46 66
        E 0 82 46 66
        E 0 83 3e 64
        E 0 8a 4a 64
        E 0 92 45 64
        E 0 93 3e 5a
        E 0 9a 3e 64
        E 0 82 45 64
        E 0 92 46 66
        E 0 82 46 66
        E 0 83 3e 64
        E 0 8a 3e 64
        E 0 92 45 64
        E 0 93 3e 5a
        E 0 9a 3e 64
        E 0 82 45 64
        E 0 92 43 64
        E 0 82 43 64
        E 0 83 3e 64
        E 0 8a 3e 64
        E 0 92 41 64
        E 0 93 3e 5a
        E 0 9a 3e 64
        E 0 82 41 64
        E 0 92 43 64
        E 0 82 43 64
        E 0 83 3e 64
        E 0 8a 3e 64
        E 0 92 41 64
        E 0 93 3e 5a
        E 0 9a 41 64
        E 0 82 41 64
        E 0 92 43 64
        E 0 82 43 64
        E 0 83 3e 64
        E 0 8a 41 64
        E 0 92 41 64
        E 0 93 3e 5a
        E 0 9a 45 64
        E 0 82 41 64
        E 0 92 43 64
        E 0 82 43 64
        E 0 83 3e 64
        E 0 8a 45 64
        E 0 92 45 64
        E 0 93 3e 5a
        E 0 9a 4a 64
        E 0 82 45 64
        E 0 92 46 66
        E 0 82 46 66
        E 0 83 3e 64
        E 0 8a 4a 64
        E 0 92 45 64
        E 0 93 3e 5a
        E 0 9a 3e 64
        E 0 82 45 64
        E 0 92 46 66
        E 0 82 46 66
        E 0 83 3e 64
        E 0 8a 3e 64
        E 0 92 45 64
        E 1 93 3e 5a
        E 0 9a 45 64
        E 0 9f 39 5a
        E 0 82 45 64
        E 0 92 43 64
        E 0 82 43 64
        E 0 83 3e 64
        E 0 8a 45 64
        E 0 8f 39 64
        E 0 92 41 64
        E 0 93 4a 5a
        E 0 9a 4a 64
        E 0 9f 3e 5a
        E 0 83 4a 64
        E 0 8a 4a 64
        E 0 8f 3e 64
        E 0 93 48 5a
        E 0 9a 48 64
        E 0 9f 3c 5a
        E 0 83 48 64
        E 0 8a 48 64
        E 0 8f 3c 64
        E 0 93 46 5b
        E 0 9a 46 66
        E 0 9f 3a 5b
        E 0 83 46 66
        E 0 8a 46 66
        E 0 8f 3a 66
        E 0 93 45 5a
        E 0 9a 45 64
        E 0 9f 39 5a
        E 0 82 41 64
        E 0 83 45 64
        E 0 8a 45 64
        E 0 8f 39 64
        E 0 93 43 5a
        E 0 9a 43 64
        E 0 9f 37 5a
        E 0 83 43 64
        E 0 8a 43 64
        E 0 8f 37 64
        E 0 93 41 5a
        E 0 9a 41 64
        E 0 9f 35 5a
        E 0 83 41 64
        E 0 8a 41 64
        E 0 8f 35 64
        E 0 92 46 66
        E 0 93 43 5a
        E 0 9a 43 64
        E 0 9f 37 5a
        E 0 82 46 66
        E 1 92 48 64
        E 0 82 48 64
        E 0 83 43 64
        E 0 8a 43 64
        E 0 8f 37 64
        E 0 92 4a 64
        E 0 93 40 5a
        E 0 9a 40 64
        E 0 9f 34 5a
        E 0 82 4a 64
        E 0 92 4c 64
        E 0 82 4c 64
        E 0 83 40 64
        E 0 8a 40 64
        E 0 8f 34 64
        E 0 92 4d 64
        E 0 93 3c 5a
        E 0 9a 40 64
        E 0 9f 30 5a
        E 0 82 4d 64
        E 0 92 4f 64
        E 0 82 4f 64
        E 0 83 3c 64
        E 0 8a 40 64
        E 0 8f 30 64
        E 0 92 4f 64
        E 0 93 48 5a
        E 0 9a 48 64
        E 0 9f 3c 5a
        E 0 83 48 64
        E 0 8a 48 64
        E 0 8f 3c 64
        E 0 93 46 5b
        E 0 9a 46 66
        E 0 9f 3a 5b
        E 0 83 46 66
        E 0 8a 46 66
        E 0 8f 3a 66
        E 0 93 45 5a
        E 0 9a 45 64
        E 0 9f 39 5a
        E 0 83 45 64
        E 0 8a 45 64
        E 0 8f 39 64
        E 0 93 43 5a
        E 0 9a 43 64
        E 0 9f 37 5a
        E 0 82 4f 64
        E 0 83 43 64
        E 0 8a 43 64
        E 0 8f 37 64
        E 0 93 41 5a
        E 0 9a 41 64
        E 0 9f 35 5a
        E 0 83 41 64
        E 0 8a 41 64
        E 0 8f 35 64
        E 0 93 40 5a
        E 0 9a 40 64
        E 0 9f 34 5a
        E 0 83 40 64
        E 0 8a 40 64
        E 0 8f 34 64
        E 0 92 45 64
        E 0 93 41 5a
        E 0 9a 41 64
        E 0 9f 35 5a
        E 0 82 45 64
        E 0 92 46 66
        E 0 82 46 66
        E 0 83 41 64
        E 0 8a 41 64
        E 0 8f 35 64
        E 0 92 48 64
        E 0 93 3e 5a
        E 0 9a 3e 64
        E 0 9f 32 5a
        E 0 82 48 64
        E 0 92 4a 64
        E 0 82 4a 64
        E 0 83 3e 64
        E 0 8a 3e 64
        E 0 8f 32 64
        E 0 92 4c 64
        E 0 93 3a 5b
        E 0 9a 3e 64
        E 0 9f 2e 5b
        E 0 82 4c 64
        E 0 92 4d 64
        E 0 82 4d 64
        E 0 83 3a 66
        E 0 8a 3e 64
        E 0 8f 2e 66
        E 0 92 4d 64
        E 0 93 46 5b
        E 0 9a 46 66
        E 1 9f 3a 5b
        E 0 83 46 66
        E 0 8a 46 66
        E 0 8f 3a 66
        E 0 93 45 5a
        E 0 9a 45 64
        E 0 9f 39 5a
        E 0 83 45 64
        E 0 8a 45 64
        E 0 8f 39 64
        E 0 93 43 5a
        E 0 9a 43 64
        E 0 9f 37 5a
        E 0 83 43 64
        E 0 8a 43 64
        E 0 8f 37 64
        E 0 93 41 5a
        E 0 9a 41 64
        E 0 9f 35 5a
        E 0 82 4d 64
        E 0 83 41 64
        E 0 8a 41 64
        E 0 8f 35 64
        E 0 93 40 5a
        E 0 9a 40 64
        E 0 9f 34 5a
        E 0 83 40 64
        E 0 8a 40 64
        E 0 8f 34 64
        E 0 93 3e 5a
        E 0 9a 3e 64
        E 0 9f 32 5a
        E 0 83 3e 64
        E 0 8a 3e 64
        E 0 8f 32 64
        E 0 92 43 64
        E 0 93 3d 5a
        E 0 9a 3d 64
        E 0 9f 31 5a
        E 0 82 43 64
        E 0 92 45 64
        E 0 82 45 64
        E 0 83 3d 64
        E 0 8a 3d 64
        E 0 8f 31 64
        E 0 92 47 64
        E 0 93 39 5a
        E 0 9a 39 64
        E 0 9f 2d 5a
        E 0 82 47 64
        E 0 92 49 64
        E 0 82 49 64
        E 0 83 39 64
        E 0 8a 39 64
        E 0 8f 2d 64
        E 0 92 4a 64
        E 0 93 45 5a
        E 0 9a 45 64
        E 0 9f 39 5a
        E 0 82 4a 64
        E 0 92 4c 64
        E 0 82 4c 64
        E 0 83 45 64
        E 0 8a 45 64
        E 0 8f 39 64
        E 0 92 4d 64
        E 0 93 4a 5a
        E 0 9a 4a 64
        E 0 9f 3e 5a
        E 0 82 4d 64
        E 0 83 4a 64
        E 0 8a 4a 64
        E 0 8f 3e 64
        E 0 92 43 64
        E 0 93 43 5a
        E 0 9a 43 64
        E 0 9f 37 5a
        E 0 82 43 64
        E 0 83 43 64
        E 0 8a 43 64
        E 0 8f 37 64
        E 0 92 45 64
        E 0 93 45 5a
        E 0 9a 45 64
        E 0 9f 39 5a
        E 0 82 45 64
        E 0 83 45 64
        E 0 8a 45 64
        E 0 8f 39 64
        E 0 92 3e 64
        E 0 93 3e 5a
        E 0 9a 3e 64
        E 0 9f 32 5a
        E 0 82 3e 64
        E 0 83 3e 64
        E 0 8f 32 64
        E 0 92 3d 64
        E 0 93 3d 5a
        E 0 9f 31 5a
        E 0 82 3d 64
        E 0 83 3d 64
        E 0 8f 31 64
        E 1 92 3e 64
        E 0 93 3e 5a
        E 0 9f 32 5a
        E 0 82 3e 64
        E 0 83 3e 64
        E 0 8f 32 64
        E 0 92 40 64
        E 0 93 40 5a
        E 0 9f 34 5a
        E 0 82 40 64
        E 0 83 40 64
        E 0 8a 3e 64
        E 0 8f 34 64
        E 0 92 41 64
        E 0 93 41 5a
        E 0 9a 45 64
        E 0 9f 35 5a
        E 0 82 41 64
        E 0 83 41 64
        E 0 8f 35 64
        E 0 92 3e 64
        E 0 93 3e 5a
        E 0 9f 32 5a
        E 0 82 3e 64
        E 0 83 3e 64
        E 0 8a 45 64
        E 0 8f 32 64
        E 0 92 4a 64
        E 0 93 4a 5a
        E 0 9a 4a 64
        E 0 9f 3e 5a
        E 0 82 4a 64
        E 0 83 4a 64
        E 0 8a 4a 64
        E 0 8f 3e 64
        E 0 92 48 64
        E 0 93 48 5a
        E 0 9a 48 64
        E 0 9f 3c 5a
        E 0 82 48 64
        E 0 83 48 64
        E 0 8a 48 64
        E 0 8f 3c 64
        E 0 92 47 64
        E 0 93 47 5a
        E 0 9a 47 64
        E 0 9f 3b 5a
        E 0 82 47 64
        E 0 83 47 64
        E 0 8a 47 64
        E 0 8f 3b 64
        E 0 92 45 64
        E 0 93 45 5a
        E 0 9a 45 64
        E 0 9f 39 5a
        E 0 82 45 64
        E 0 83 45 64
        E 0 8a 45 64
        E 0 8f 39 64
        E 0 92 44 64
        E 0 93 44 5a
        E 0 9a 44 64
        E 0 9f 38 5a
        E 0 82 44 64
        E 0 83 44 64
        E 0 8a 44 64
        E 0 8f 38 64
        E 1 92 42 64
        E 0 93 42 5a
        E 0 9a 42 64
        E 0 9f 36 5a
        E 0 82 42 64
        E 0 83 42 64
        E 0 8a 42 64
        E 0 8f 36 64
        E 0 92 40 64
        E 0 93 40 5a
        E 0 9a 40 64
        E 0 9f 34 5a
        E 0 82 40 64
        E 0 83 40 64
        E 0 8a 40 64
        E 0 8f 34 64
        E 0 92 3e 64
        E 0 93 3e 5a
        E 0 9a 3e 64
        E 0 9f 32 5a
        E 0 82 3e 64
        E 0 83 3e 64
        E 0 8a 3e 64
        E 0 8f 32 64
        E 0 92 40 64
        E 0 93 40 5a
        E 0 9a 40 64
        E 0 9f 34 5a
        E 0 82 40 64
        E 0 83 40 64
        E 0 8a 40 64
        E 0 8f 34 64
        E 0 92 42 64
        E 0 93 42 5a
        E 0 9a 42 64
        E 0 9f 36 5a
        E 0 82 42 64
        E 0 83 42 64
        E 0 8a 42 64
        E 0 8f 36 64
        E 0 92 44 64
        E 0 93 44 5a
        E 0 9a 44 64
        E 0 9f 38 5a
        E 0 82 44 64
        E 0 83 44 64
        E 0 8a 44 64
        E 0 8f 38 64
        E 0 92 40 64
        E 0 93 40 5a
        E 0 9a 40 64
        E 0 9f 34 5a
        E 0 82 40 64
        E 0 83 40 64
        E 0 8a 40 64
        E 0 8f 34 64
        E 0 92 45 64
        E 0 93 45 5a
        E 0 9a 45 64
        E 0 9f 39 5a
        E 0 82 45 64
        E 0 83 45 64
        E 0 8a 45 64
        E 0 8f 39 64
        E 0 92 39 64
        E 0 93 39 5a
        E 0 9a 39 64
        E 0 9f 2d 5a
        E 0 82 39 64
        E 0 83 39 64
        E 0 8a 39 64
        E 0 8f 2d 64
        E 0 92 3c 64
        E 0 93 3c 5a
        E 0 9a 3c 64
        E 0 9f 30 5a
        E 38404 82 3c 64
        E 0 83 3c 64
        E 0 8a 3c 64
        E 0 8f 30 64
        E 0 92 3e 64
        E 0 93 3e 5a
        E 0 9a 3e 64
        E 0 9f 32 5a
        E 0 82 3e 64
        E 0 83 3e 64
        E 0 8a 3e 64
        E 0 8f 32 64
        E 0 92 40 64
        E 0 93 40 5a
        E 0 9a 40 64
        E 0 9f 34 5a
        E 0 82 40 64
        E 0 83 40 64
        E 0 8a 40 64
        E 0 8f 34 64
        E 0 92 40 64
        E 0 93 40 5a
        E 0 9a 40 64
        E 0 9f 34 5a
        E 0 82 40 64
        E 0 83 40 64
        E 0 8a 40 64
        E 0 8f 34 64
        E 0 92 39 64
        E 0 93 39 5a
        E 0 9a 39 64
        E 0 9f 2d 5a
        E 0 82 39 64
        E 0 83 39 64
        E 0 8a 39 64
        E 0 8f 2d 64
        E 0 95 40 64
        E 0 9e 40 64
        E 0 9f 2d 5a
        E 0 85 40 64
        E 0 8e 40 64
        E 0 95 40 64
        E 1 9e 40 64
        E 0 85 40 64
        E 0 8e 40 64
        E 0 95 45 64
        E 0 9e 45 64
        E 0 85 45 64
        E 0 8e 45 64
        E 0 95 45 64
        E 0 9e 45 64
        E 0 85 45 64
        E 0 8e 45 64
        E 0 95 47 64
        E 0 9e 47 64
        E 0 85 47 64
        E 0 8e 47 64
        E 0 95 48 64
        E 0 9e 48 64
        E 0 85 48 64
        E 0 8e 48 64
        E 0 95 48 64
        E 0 9e 48 64
        E 0 85 48 64
        E 0 8e 48 64
        E 0 95 48 64
        E 0 9e 48 64
        E 0 85 48 64
        E 0 8e 48 64
        E 0 95 48 64
        E 0 9e 48 64
        E 0 85 48 64
        E 0 8e 48 64
        E 0 8f 2d 64
        E 0 95 45 64
        E 0 9e 45 64
        E 0 9f 2d 5a
        E 0 85 45 64
        E 0 8e 45 64
        E 0 95 45 64
        E 0 9e 45 64
        E 0 85 45 64
        E 0 8e 45 64
        E 0 95 44 64
        E 0 9e 44 64
        E 0 85 44 64
        E 0 8e 44 64
        E 0 8f 2d 64
        E 0 95 47 64
        E 0 9e 47 64
        E 0 9f 34 5a
        E 0 85 47 64
        E 0 8e 47 64
        E 0 8f 34 64
        E 0 95 44 64
        E 0 9e 44 64
        E 0 9f 34 5a
        E 0 85 44 64
        E 0 8e 44 64
        E 0 95 44 64
        E 0 9e 44 64
        E 0 85 44 64
        E 0 8e 44 64
        E 0 95 49 64
        E 0 9e 49 64
        E 0 85 49 64
        E 0 8e 49 64
        E 0 95 46 64
        E 0 9e 46 64
        E 0 85 46 64
        E 0 8e 46 64
        E 0 95 46 64
        E 0 9e 46 64
        E 0 85 46 64
        E 0 8e 46 64
        E 0 8f 34 64
        E 0 95 42 64
        E 0 9e 42 64
        E 0 9f 34 5a
        E 0 85 42 64
        E 0 8e 42 64
        E 0 95 42 64
        E 0 9e 42 64
        E 0 85 42 64
        E 1 8e 42 64
        E 0 95 42 64
        E 0 9e 42 64
        E 0 85 42 64
        E 0 8e 42 64
        E 0 95 42 64
        E 0 9e 42 64
        E 0 85 42 64
        E 0 8e 42 64
        E 0 95 42 64
        E 0 9e 42 64
        E 0 85 42 64
        E 0 8e 42 64
        E 0 8f 34 64
        E 0 95 47 64
        E 0 9e 47 64
        E 0 9f 32 5a
        E 0 85 47 64
        E 0 8e 47 64
        E 0 95 47 64
        E 0 9e 47 64
        E 0 85 47 64
        E 0 8e 47 64
        E 0 95 47 64
        E 0 9e 47 64
        E 0 85 47 64
        E 0 8e 47 64
        E 0 95 42 64
        E 0 9e 42 64
        E 0 85 42 64
        E 0 8e 42 64
        E 0 8f 32 64
        E 0 95 44 64
        E 0 9e 44 64
        E 0 9f 31 5a
        E 0 85 44 64
        E 0 8e 44 64
        E 0 95 44 64
        E 0 9e 44 64
        E 0 85 44 64
        E 0 8e 44 64
        E 0 95 49 64
        E 0 9e 49 64
        E 0 85 49 64
        E 0 8e 49 64
        E 0 95 49 64
        E 0 9e 49 64
        E 0 85 49 64
        E 0 8e 49 64
        E 0 95 44 64
        E 0 9e 44 64
        E 0 85 44 64
        E 0 8e 44 64
        E 0 95 44 64
        E 0 9e 44 64
        E 0 85 44 64
        E 0 8e 44 64
        E 0 95 44 64
        E 0 9e 44 64
        E 0 85 44 64
        E 0 8e 44 64
        E 0 8f 31 64
        E 0 95 41 63
        E 0 9e 41 63
        E 0 9f 2f 5a
        E 0 85 41 63
        E 0 8e 41 63
        E 0 95 41 63
        E 0 9e 41 63
        E 0 85 41 63
        E 0 8e 41 63
        E 0 95 44 64
        E 0 9e 44 64
        E 0 85 44 64
        E 0 8e 44 64
        E 0 95 45 64
        E 0 9e 45 64
        E 0 85 45 64
        E 0 8e 45 64
        E 0 95 47 64
        E 0 9e 47 64
        E 0 85 47 64
        E 0 8e 47 64
        E 0 95 47 64
        E 0 9e 47 64
        E 0 85 47 64
        E 0 8e 47 64
        E 0 95 45 64
        E 0 9e 45 64
        E 0 85 45 64
        E 0 8e 45 64
        E 0 8f 2f 64
        E 0 95 42 64
        E 0 9e 42 64
        E 0 9f 2d 5a
        E 0 85 42 64
        E 0 8e 42 64
        E 1 95 42 64
        E 0 9e 42 64
        E 0 85 42 64
        E 0 8e 42 64
        E 0 95 49 64
        E 0 9e 49 64
        E 0 85 49 64
        E 0 8e 49 64
        E 0 95 49 64
        E 0 9e 49 64
        E 0 85 49 64
        E 0 8e 49 64
        E 0 95 49 64
        E 0 9e 49 64
        E 0 85 49 64
        E 0 8e 49 64
        E 0 8f 2d 64
        E 0 95 45 64
        E 0 9e 45 64
        E 0 9f 31 5a
        E 0 85 45 64
        E 0 8e 45 64
        E 0 95 45 64
        E 0 9e 45 64
        E 0 85 45 64
        E 0 8e 45 64
        E 0 95 40 64
        E 0 9e 40 64
        E 0 85 40 64
        E 0 8e 40 64
        E 0 95 43 64
        E 0 9e 43 64
        E 0 85 43 64
        E 0 8e 43 64
        E 0 95 43 64
        E 0 9e 43 64
        E 0 85 43 64
        E 0 8e 43 64
        E 0 95 43 64
        E 0 9e 43 64
        E 0 85 43 64
        E 0 8e 43 64
        E 0 95 42 64
        E 0 9e 42 64
        E 0 85 42 64
        E 0 8e 42 64
        E 0 8f 31 64
        E 0 95 3e 64
        E 0 9e 3e 64
        E 0 9f 32 5a
        E 0 85 3e 64
        E 0 8e 3e 64
        E 0 95 3e 64
        E 0 9e 3e 64
        E 0 85 3e 64
        E 0 8e 3e 64
        E 0 95 42 64
        E 0 9e 42 64
        E 0 85 42 64
        E 0 8e 42 64
        E 0 95 42 64
        E 0 9e 42 64
        E 0 85 42 64
        E 0 8e 42 64
        E 0 95 43 64
        E 0 9e 43 64
        E 0 85 43 64
        E 0 8e 43 64
        E 0 95 45 64
        E 0 9e 45 64
        E 0 85 45 64
        E 0 8e 45 64
        E 0 95 45 64
        E 0 9e 45 64
        E 0 85 45 64
        E 0 8e 45 64
        E 0 95 45 64
        E 0 9e 45 64
        E 0 85 45 64
        E 0 8e 45 64
        E 0 8f 32 64
        E 0 95 42 64
        E 0 9e 42 64
        E 0 9f 32 5a
        E 0 85 42 64
        E 0 8e 42 64
        E 0 95 45 64
        E 1 9e 45 64
        E 0 85 45 64
        E 0 8e 45 64
        E 0 95 3e 64
        E 0 9e 3e 64
        E 0 85 3e 64
        E 0 8e 3e 64
        E 0 95 3e 64
        E 0 9e 3e 64
        E 0 85 3e 64
        E 0 8e 3e 64
        E 0 95 48 64
        E 0 9e 48 64
        E 0 85 48 64
        E 0 8e 48 64
        E 0 95 48 64
        E 0 9e 48 64
        E 0 85 48 64
        E 0 8e 48 64
        E 0 95 47 64
        E 0 9e 47 64
        E 0 85 47 64
        E 0 8e 47 64
        E 0 8f 32 64
        E 0 95 43 64
        E 0 9e 43 64
        E 0 9f 2b 5a
        E 0 85 43 64
        E 0 8e 43 64
        E 0 95 43 64
        E 0 9e 43 64
        E 0 85 43 64
        E 0 8e 43 64
        E 0 95 43 64
        E 0 9e 43 64
        E 0 85 43 64
        E 0 8e 43 64
        E 0 95 43 64
        E 0 9e 43 64
        E 0 85 43 64
        E 0 8e 43 64
        E 0 95 45 64
        E 0 9e 45 64
        E 0 85 45 64
        E 0 8e 45 64
        E 0 95 47 64
        E 0 9e 47 64
        E 0 85 47 64
        E 0 8e 47 64
        E 0 95 47 64
        E 0 9e 47 64
        E 0 85 47 64
        E 0 8e 47 64
        E 0 95 47 64
        E 0 9e 47 64
        E 0 85 47 64
        E 0 8e 47 64
        E 0 95 48 64
        E 0 9e 48 64
        E 0 85 48 64
        E 0 8e 48 64
        E 0 95 4a 64
        E 0 9e 4a 64
        E 0 85 4a 64
        E 0 8e 4a 64
        E 0 8f 2b 64
        E 0 95 43 64
        E 0 9e 43 64
        E 0 9f 2b 5a
        E 0 85 43 64
        E 0 8e 43 64
        E 0 95 43 64
        E 0 9e 43 64
        E 0 85 43 64
        E 0 8e 43 64
        E 0 95 43 64
        E 0 9e 43 64
        E 0 85 43 64
        E 0 8e 43 64
        E 0 95 43 64
        E 0 9e 43 64
        E 0 85 43 64
        E 0 8e 43 64
        E 0 95 45 64
        E 0 9e 45 64
        E 0 85 45 64
        E 0 8e 45 64
        E 0 95 41 64
        E 0 9e 41 64
        E 1 85 41 64
        E 0 8e 41 64
        E 0 95 47 64
        E 0 9e 47 64
        E 0 85 47 64
        E 0 8e 47 64
        E 0 95 47 64
        E 0 9e 47 64
        E 0 85 47 64
        E 0 8e 47 64
        E 0 95 48 64
        E 0 9e 48 64
        E 0 85 48 64
        E 0 8e 48 64
        E 0 8f 2b 64
        E 0 95 43 64
        E 0 9e 43 64
        E 0 9f 2b 5a
        E 0 85 43 64
        E 0 8e 43 64
        E 0 95 43 64
        E 0 9e 43 64
        E 0 85 43 64
        E 0 8e 43 64
        E 38407 95 43 64
        E 0 9e 43 64
        E 0 85 43 64
        E 0 8e 43 64
        E 0 95 47 64
        E 0 9e 47 64
        E 0 85 47 64
        E 0 8e 47 64
        E 0 95 47 64
        E 0 9e 47 64
        E 0 85 47 64
        E 0 8e 47 64
        E 1 95 47 64
        E 0 9e 47 64
        E 0 85 47 64
        E 0 8e 47 64
        E 0 95 47 64
        E 0 9e 47 64
        E 0 85 47 64
        E 0 8e 47 64
        E 0 95 48 64
        E 0 9e 48 64
        E 0 85 48 64
        E 0 8e 48 64
        E 0 8f 2b 64
        E 0 95 45 64
        E 0 9e 45 64
        E 0 9f 33 5a
        E 0 85 45 64
        E 1 8e 45 64
        E 0 95 45 64
        E 0 9e 45 64
        E 0 85 45 64
        E 0 8e 45 64
        E 0 95 45 64
        E 0 9e 45 64
        E 0 85 45 64
        E 0 8e 45 64
        E 0 95 43 64
        E 0 9e 43 64
        E 0 85 43 64
        E 0 8e 43 64
        E 0 8f 33 64
        E 0 95 40 64
        E 0 9e 40 64
        E 0 9f 34 5a
        E 0 85 40 64
        E 0 8e 40 64
        E 0 95 47 64
        E 0 9e 47 64
        E 0 85 47 64
        E 0 8e 47 64
        E 0 8f 34 64
        E 0 95 43 64
        E 0 9e 43 64
        E 1 9f 34 5a
        E 0 85 43 64
        E 0 8e 43 64
        E 0 95 43 64
        E 0 9e 43 64
        E 0 85 43 64
        E 0 8e 43 64
        E 0 95 43 64
        E 0 9e 43 64
        E 0 85 43 64
        E 0 8e 43 64
        E 0 95 43 64
        E 0 9e 43 64
        E 0 85 43 64
        E 0 8e 43 64
        E 0 95 43 64
        E 0 9e 43 64
        E 0 85 43 64
        E 0 8e 43 64
        E 0 95 43 64
        E 0 9e 43 64
        E 0 85 43 64
        E 0 8e 43 64
        E 0 95 42 64
        E 0 9e 42 64
        E 0 85 42 64
        E 0 8e 42 64
        E 0 8f 34 64
        E 0 95 42 64
        E 1 9e 42 64
        E 0 9f 2e 5a
        E 0 85 42 64
        E 0 8e 42 64
        E 0 95 42 64
        E 0 9e 42 64
        E 0 85 42 64
        E 0 8e 42 64
        E 0 95 42 64
        E 0 9e 42 64
        E 0 85 42 64
        E 0 8e 42 64
        E 0 95 42 64
        E 0 9e 42 64
        E 0 85 42 64
        E 0 8e 42 64
        E 0 95 43 64
        E 0 9e 43 64
        E 0 85 43 64
        E 0 8e 43 64
        E 0 95 40 64
        E 0 9e 40 64
        E 0 85 40 64
        E 0 8e 40 64
        E 0 8f 2e 64
        E 0 95 46 64
        E 0 9e 46 64
        E 0 9f 2e 5a
        E 0 85 46 64
        E 0 8e 46 64
        E 0 95 46 64
        E 0 9e 46 64
        E 0 85 46 64
        E 0 8e 46 64
        E 0 95 46 64
        E 0 9e 46 64
        E 0 85 46 64
        E 0 8e 46 64
        E 0 95 46 64
        E 0 9e 46 64
        E 0 85 46 64
        E 0 8e 46 64
        E 0 95 47 64
        E 0 9e 47 64
        E 0 85 47 64
        E 0 8e 47 64
        E 0 8f 2e 64
        E 0 95 42 64
        E 0 9e 42 64
        E 0 9f 32 5a
        E 0 85 42 64
        E 0 8e 42 64
        E 0 95 42 64
        E 1 9e 42 64
        E 0 85 42 64
        E 0 8e 42 64
        E 0 95 4a 64
        E 0 9e 4a 64
        E 0 85 4a 64
        E 0 8e 4a 64
        E 0 8f 32 64
        E 0 95 47 64
        E 0 9e 47 64
        E 0 9f 32 5a
        E 0 85 47 64
        E 0 8e 47 64
        E 0 95 47 64
        E 0 9e 47 64
        E 0 85 47 64
        E 0 8e 47 64
        E 0 95 45 64
        E 0 9e 45 64
        E 0 85 45 64
        E 0 8e 45 64
        E 0 95 47 64
        E 0 9e 47 64
        E 0 85 47 64
        E 0 8e 47 64
        E 0 8f 32 64
        E 0 95 43 64
        E 0 9e 43 64
        E 0 9f 34 5a
        E 0 85 43 64
        E 0 8e 43 64
        E 0 95 47 64
        E 0 9e 47 64
        E 0 85 47 64
        E 0 8e 47 64
        E 0 95 46 64
        E 0 9e 46 64
        E 0 85 46 64
        E 0 8e 46 64
        E 0 95 47 64
        E 0 9e 47 64
        E 0 85 47 64
        E 1 8e 47 64
        E 0 8f 34 64
        E 0 95 42 64
        E 0 9e 42 64
        E 0 9f 36 5a
        E 0 85 42 64
        E 0 8e 42 64
        E 0 95 42 64
        E 0 9e 42 64
        E 0 85 42 64
        E 0 8e 42 64
        E 0 8f 36 64
        E 0 9f 2f 5a
        E 0 8f 2f 64
        E 0 92 47 64
        E 0 93 43 5a
        E 0 9f 28 5a
        E 0 83 43 64
        E 0 8f 28 64
        E 0 93 43 5a
        E 0 9f 34 5a
        E 0 82 47 64
        E 0 83 43 64
        E 0 8f 34 64
        E 0 92 4a 64
        E 0 92 48 64
        E 0 93 40 5a
        E 0 9f 2d 5a
        E 0 82 4a 64
        E 0 82 48 64
        E 0 83 40 64
        E 0 8f 2d 64
        E 0 92 47 64
        E 0 93 3f 5a
        E 0 9f 2f 5a
        E 0 82 47 64
        E 0 92 45 64
        E 0 82 45 64
        E 0 83 3f 64
        E 0 8f 2f 64
        E 0 92 47 64
        E 0 93 43 5a
        E 0 9f 28 5a
        E 0 83 43 64
        E 0 8f 28 64
        E 0 93 43 5a
        E 0 9f 34 5a
        E 0 82 47 64
        E 0 83 43 64
        E 0 8f 34 64
        E 0 92 4a 64
        E 0 92 48 64
        E 1 93 40 5a
        E 0 9f 2d 5a
        E 0 82 4a 64
        E 0 82 48 64
        E 0 83 40 64
        E 0 8f 2d 64
        E 0 92 47 64
        E 0 93 3f 5a
        E 0 9f 2f 5a
        E 0 82 47 64
        E 0 92 45 64
        E 0 82 45 64
        E 0 83 3f 64
        E 0 8f 2f 64
        E 0 92 47 64
        E 0 93 43 5a
        E 0 9f 34 5a
        E 0 82 47 64
        E 0 83 43 64
        E 0 8f 34 64
        E 0 92 53 64
        E 0 93 43 5a
        E 0 9f 37 5a
        E 0 82 53 64
        E 0 83 43 64
        E 0 8f 37 64
        E 0 92 51 64
        E 0 93 45 5a
        E 0 9f 36 5a
        E 0 82 51 64
        E 0 83 45 64
        E 0 8f 36 64
        E 0 92 4f 64
        E 0 93 47 5a
        E 0 9f 34 5a
        E 0 82 4f 64
        E 0 83 47 64
        E 0 8f 34 64
        E 0 92 4e 64
        E 0 93 3f 5a
        E 0 9f 2f 5a
        E 0 83 3f 64
        E 0 8f 2f 64
        E 0 93 3f 5a
        E 0 9f 3b 5a
        E 0 82 4e 64
        E 0 83 3f 64
        E 0 8f 3b 64
        E 0 92 51 64
        E 0 92 4f 64
        E 0 93 3b 5a
        E 0 9f 34 5a
        E 0 82 51 64
        E 0 82 4f 64
        E 0 83 3b 64
        E 0 8f 34 64
        E 0 92 4e 64
        E 1 93 3b 5a
        E 0 9f 28 5a
        E 0 82 4e 64
        E 0 92 4c 64
        E 0 82 4c 64
        E 0 83 3b 64
        E 0 8f 28 64
        E 0 92 4e 64
        E 0 93 3f 5a
        E 0 9f 2f 5a
        E 0 83 3f 64
        E 0 8f 2f 64
        E 0 93 3f 5a
        E 0 9f 3b 5a
        E 0 82 4e 64
        E 0 83 3f 64
        E 0 8f 3b 64
        E 1 92 51 64
        E 0 92 4f 64
        E 0 93 3b 5a
        E 0 9f 34 5a
        E 0 82 51 64
        E 0 82 4f 64
        E 0 83 3b 64
        E 0 8f 34 64
        E 0 92 4e 64
        E 0 93 3d 5a
        E 0 9f 2e 5a
        E 0 82 4e 64
        E 0 92 4c 64
        E 0 82 4c 64
        E 0 83 3d 64
        E 0 8f 2e 64
        E 0 92 4b 64
        E 0 93 36 5a
        E 1 9f 2f 5a
        E 2 82 4b 64
        E 0 92 49 64
        E 0 82 49 64
        E 0 8f 2f 64
        E 0 92 47 64
        E 0 9f 3b 5a
        E 0 82 47 64
        E 0 83 36 64
        E 0 8f 3b 64
        E 0 9f 39 5a
        E 0 8f 39 64
        E 0 92 47 64
        E 0 93 43 5a
        E 0 9f 37 5a
        E 0 82 47 64
        E 0 83 43 64
        E 0 8f 37 64
        E 0 92 4a 64
        E 0 92 48 64
        E 0 93 42 5a
        E 0 9f 39 5a
        E 0 82 4a 64
        E 0 82 48 64
        E 0 83 42 64
        E 0 8f 39 64
        E 0 92 47 64
        E 0 93 42 5a
        E 0 9f 32 5a
        E 0 82 47 64
        E 0 92 48 64
        E 0 82 48 64
        E 0 83 42 64
        E 0 8f 32 64
        E 0 92 4a 64
        E 1 93 45 5a
        E 0 9f 36 5a
        E 0 82 4a 64
        E 0 83 45 64
        E 0 8f 36 64
        E 0 92 48 64
        E 0 93 42 5a
        E 0 9f 32 5a
        E 0 82 48 64
        E 0 83 42 64
        E 0 8f 32 64
        E 0 92 47 64
        E 0 93 3e 5a
        E 0 9f 37 5a
        E 0 82 47 64
        E 0 8f 37 64
        E 0 92 4e 64
        E 0 9f 36 5a
        E 0 82 4e 64
        E 0 83 3e 64
        E 0 8f 36 64
        E 0 92 4f 64
        E 0 9f 34 5a
        E 0 82 4f 64
        E 0 8f 34 64
        E 0 92 51 64
        E 0 93 42 5a
        E 0 9f 32 5a
        E 0 82 51 64
        E 0 83 42 64
        E 0 8f 32 64
        E 0 92 48 64
        E 0 93 42 5a
        E 0 9f 39 5a
        E 0 82 48 64
        E 0 83 42 64
        E 0 8f 39 64
        E 0 92 47 64
        E 0 93 42 5a
        E 0 9f 32 5a
        E 0 82 47 64
        E 0 92 48 64
        E 0 82 48 64
        E 0 83 42 64
        E 0 8f 32 64
        E 0 92 4a 64
        E 0 93 45 5a
        E 1 9f 36 5a
        E 0 82 4a 64
        E 0 83 45 64
        E 0 8f 36 64
        E 0 92 48 64
        E 0 93 42 5a
        E 0 9f 32 5a
        E 0 82 48 64
        E 0 83 42 64
        E 0 8f 32 64
        E 0 92 47 64
        E 0 93 3e 5a
        E 0 9f 37 5a
        E 0 82 47 64
        E 0 8f 37 64
        E 0 92 4e 64
        E 0 9f 36 5a
        E 0 82 4e 64
        E 0 83 3e 64
        E 0 8f 36 64
        E 0 92 4f 64
        E 0 9f 34 5a
        E 38405 82 4f 64
        E 0 8f 34 64
        E 0 92 51 64
        E 0 93 42 5a
        E 0 9f 32 5a
        E 0 82 51 64
        E 0 83 42 64
        E 0 8f 32 64
        E 0 92 4f 64
        E 0 93 3e 5a
        E 0 9f 2b 5a
        E 0 82 4f 64
        E 0 83 3e 64
        E 0 8f 2b 64
        E 0 92 43 64
        E 0 93 3b 5a
        E 0 9f 37 5a
        E 0 82 43 64
        E 0 92 45 64
        E 0 82 45 64
        E 0 83 3b 64
        E 0 8f 37 64
        E 0 92 47 64
        E 0 93 39 5a
        E 1 9f 36 5a
        E 0 82 47 64
        E 0 83 39 64
        E 0 8f 36 64
        E 0 92 48 64
        E 0 93 37 5a
        E 0 9f 34 5a
        E 0 82 48 64
        E 0 83 37 64
        E 0 8f 34 64
        E 0 92 4a 64
        E 0 93 42 5a
        E 0 9f 32 5a
        E 0 83 42 64
        E 0 8f 32 64
        E 0 93 43 5a
        E 0 9f 34 5a
        E 0 83 43 64
        E 0 8f 34 64
        E 0 93 45 5a
        E 0 9f 36 5a
        E 0 83 45 64
        E 0 8f 36 64
        E 0 93 42 5a
        E 0 9f 32 5a
        E 0 82 4a 64
        E 0 83 42 64
        E 0 8f 32 64
        E 0 92 4c 64
        E 0 92 4a 64
        E 0 93 47 5a
        E 0 9f 37 5a
        E 0 82 4c 64
        E 0 82 4a 64
        E 0 83 47 64
        E 0 8f 37 64
        E 0 92 48 64
        E 0 93 43 5a
        E 0 9f 2b 5a
        E 0 82 48 64
        E 0 92 47 64
        E 0 82 47 64
        E 0 83 43 64
        E 0 8f 2b 64
        E 0 92 4a 64
        E 0 92 48 64
        E 0 93 40 5a
        E 0 9f 30 5a
        E 0 82 4a 64
        E 0 82 48 64
        E 0 83 40 64
        E 0 8f 30 64
        E 1 92 47 64
        E 0 93 42 5a
        E 0 9f 32 5a
        E 0 82 47 64
        E 0 92 45 64
        E 0 82 45 64
        E 0 83 42 64
        E 0 8f 32 64
        E 0 92 48 64
        E 0 92 47 64
        E 0 93 3e 5a
        E 0 9f 37 5a
        E 0 82 48 64
        E 0 82 47 64
        E 0 83 3e 64
        E 0 8f 37 64
        E 0 92 45 64
        E 0 93 3e 5a
        E 0 9f 2b 5a
        E 0 82 45 64
        E 0 92 43 64
        E 0 82 43 64
        E 0 83 3e 64
        E 0 8f 2b 64
        E 0 92 47 64
        E 0 92 45 64
        E 0 93 40 5a
        E 0 9f 30 5a
        E 0 82 47 64
        E 0 82 45 64
        E 0 83 40 64
        E 0 8f 30 64
        E 0 92 43 64
        E 0 93 3e 5a
        E 0 9f 32 5a
        E 0 82 43 64
        E 0 92 42 64
        E 0 82 42 64
        E 0 83 3e 64
        E 0 8f 32 64
        E 0 92 43 64
        E 0 93 3b 5a
        E 0 9f 37 5a
        E 0 82 43 64
        E 0 92 45 64
        E 0 82 45 64
        E 0 83 3b 64
        E 0 8f 37 64
        E 0 92 47 64
        E 0 93 3c 5a
        E 0 9f 39 5a
        E 0 82 47 64
        E 0 92 48 64
        E 0 82 48 64
        E 0 83 3c 64
        E 0 8f 39 64
        E 0 92 4a 64
        E 0 93 3e 5a
        E 0 9f 3b 5a
        E 0 82 4a 64
        E 0 83 3e 64
        E 0 8f 3b 64
        E 0 92 4f 64
        E 0 93 47 5a
        E 0 9f 37 5a
        E 0 82 4f 64
        E 0 83 47 64
        E 0 8f 37 64
        E 0 92 4e 64
        E 0 93 45 5a
        E 0 9f 3e 5a
        E 0 82 4e 64
        E 0 92 4f 64
        E 0 82 4f 64
        E 0 8f 3e 64
        E 0 92 51 64
        E 0 9f 3c 5a
        E 0 82 51 64
        E 0 92 4f 64
        E 0 82 4f 64
        E 0 8f 3c 64
        E 0 92 4e 64
        E 0 9f 3e 5a
        E 0 82 4e 64
        E 0 92 4c 64
        E 0 82 4c 64
        E 0 83 45 64
        E 0 8f 3e 64
        E 0 92 4a 64
        E 0 93 42 5a
        E 0 9f 32 5a
        E 0 82 4a 64
        E 0 92 48 64
        E 0 82 48 64
        E 0 83 42 64
        E 0 8f 32 64
        E 0 92 47 64
        E 1 93 3e 5a
        E 0 9f 37 5a
        E 0 82 47 64
        E 0 8f 37 64
        E 0 92 45 64
        E 0 9f 30 5a
        E 0 82 45 64
        E 0 92 43 64
        E 0 82 43 64
        E 0 8f 30 64
        E 0 92 3e 64
        E 0 9f 32 5a
        E 0 82 3e 64
        E 0 83 3e 64
        E 0 8f 32 64
        E 0 92 4e 64
        E 0 93 3e 5a
        E 0 9f 26 5a
        E 0 82 4e 64
        E 0 83 3e 64
        E 0 8f 26 64
        E 0 92 4f 64
        E 0 93 3b 5a
        E 0 9f 2b 5a
        E 0 82 4f 64
        E 0 83 3b 64
        E 0 8f 2b 64
        E 0 92 47 64
        E 0 93 43 5a
        E 0 95 47 64
        E 0 9f 28 5a
        E 0 83 43 64
        E 0 8f 28 64
        E 0 93 43 5a
        E 0 9f 34 5a
        E 0 82 47 64
        E 0 83 43 64
        E 0 85 47 64
        E 0 8f 34 64
        E 0 92 4a 64
        E 0 92 48 64
        E 0 93 40 5a
        E 0 95 4a 64
        E 1 95 48 64
        E 0 9f 2d 5a
        E 0 82 4a 64
        E 0 82 48 64
        E 0 83 40 64
        E 0 85 4a 64
        E 0 85 48 64
        E 0 8f 2d 64
        E 0 92 47 64
        E 0 93 3f 5a
        E 0 95 47 64
        E 0 9f 2f 5a
        E 0 82 47 64
        E 0 85 47 64
        E 0 92 45 64
        E 0 95 45 64
        E 0 82 45 64
        E 0 83 3f 64
        E 0 85 45 64
        E 0 8f 2f 64
        E 0 92 47 64
        E 0 93 37 5a
        E 0 95 47 64
        E 0 9f 34 5a
        E 0 82 47 64
        E 0 83 37 64
        E 0 85 47 64
        E 0 8f 34 64
        E 0 92 45 64
        E 0 92 43 64
        E 0 93 39 5a
        E 0 95 45 64
        E 0 95 43 64
        E 0 9f 36 5a
        E 0 82 45 64
        E 0 82 43 64
        E 0 83 39 64
        E 0 85 45 64
        E 0 85 43 64
        E 0 8f 36 64
        E 0 92 42 64
        E 0 92 40 64
        E 0 93 3b 5a
        E 0 95 42 64
        E 0 95 40 64
        E 0 9f 37 5a
        E 0 82 42 64
        E 0 83 3b 64
        E 0 85 42 64
        E 0 8f 37 64
        E 0 93 37 5a
        E 0 9f 34 5a
        E 0 82 40 64
        E 0 83 37 64
        E 0 85 40 64
        E 0 8f 34 64
        E 0 92 47 64
        E 0 93 43 5a
        E 1 95 47 64
        E 0 9f 28 5a
        E 0 83 43 64
        E 0 8f 28 64
        E 0 93 43 5a
        E 0 9f 34 5a
        E 0 82 47 64
        E 0 83 43 64
        E 0 85 47 64
        E 0 8f 34 64
        E 0 92 4a 64
        E 0 92 48 64
        E 0 93 40 5a
        E 0 95 4a 64
        E 0 95 48 64
        E 0 9f 2d 5a
        E 0 82 4a 64
        E 0 82 48 64
        E 0 83 40 64
        E 0 85 4a 64
        E 0 85 48 64
        E 0 8f 2d 64
        E 0 92 47 64
        E 0 93 3f 5a
        E 0 95 47 64
        E 0 9f 2f 5a
        E 0 82 47 64
        E 0 85 47 64
        E 0 92 45 64
        E 0 95 45 64
        E 0 82 45 64
        E 0 83 3f 64
        E 0 85 45 64
        E 0 8f 2f 64
        E 0 92 47 64
        E 0 93 37 5a
        E 0 95 47 64
        E 0 9f 28 5a
        E 0 82 47 64
        E 0 83 37 64
        E 0 85 47 64
        E 0 8f 28 64
        E 0 92 43 64
        E 0 93 37 5a
        E 0 95 43 64
        E 0 9f 34 5a
        E 0 82 43 64
        E 0 83 37 64
        E 0 85 43 64
        E 0 8f 34 64
        E 0 92 42 64
        E 0 93 39 5a
        E 0 95 42 64
        E 0 9f 36 5a
        E 0 82 42 64
        E 0 83 39 64
        E 0 85 42 64
        E 0 8f 36 64
        E 0 92 40 64
        E 0 93 3b 5a
        E 0 95 40 64
        E 0 9f 37 5a
        E 0 82 40 64
        E 0 83 3b 64
        E 0 85 40 64
        E 0 8f 37 64
        E 0 92 47 64
        E 1 93 36 5a
        E 0 95 47 64
        E 0 9f 33 5a
        E 0 82 47 64
        E 0 83 36 64
        E 0 85 47 64
        E 0 8f 33 64
        E 0 92 45 64
        E 0 93 3b 5a
        E 0 95 45 64
        E 0 9f 34 5a
        E 0 82 45 64
        E 0 85 45 64
        E 0 92 43 64
        E 0 95 43 64
        E 0 82 43 64
        E 0 83 3b 64
        E 0 85 43 64
        E 0 8f 34 64
        E 0 92 45 64
        E 0 93 39 5a
        E 0 95 45 64
        E 0 9f 36 5a
        E 0 82 45 64
        E 0 83 39 64
        E 0 85 45 64
        E 0 8f 36 64
        E 0 92 43 64
        E 0 93 3f 5a
        E 0 95 43 64
        E 0 9f 2f 5a
        E 0 82 43 64
        E 0 85 43 64
        E 0 92 42 64
        E 0 95 42 64
        E 0 82 42 64
        E 0 83 3f 64
        E 0 85 42 64
        E 0 8f 2f 64
        E 0 92 43 64
        E 0 93 3b 5a
        E 0 95 43 64
        E 0 9f 34 5a
        E 1 82 43 64
        E 0 85 43 64
        E 0 8f 34 64
        E 0 92 42 64
        E 0 95 42 64
        E 0 9f 32 5a
        E 0 82 42 64
        E 0 83 3b 64
        E 0 85 42 64
        E 0 8f 32 64
        E 0 92 40 64
        E 0 95 40 64
        E 0 9f 34 5a
        E 0 8f 34 64
        E 0 9f 36 5a
        E 0 82 40 64
        E 0 85 40 64
        E 0 8f 36 64
        E 0 92 43 64
        E 0 93 3e 5a
        E 0 95 43 64
        E 0 9f 37 5a
        E 0 8f 37 64
        E 0 9f 3b 5a
        E 0 82 43 64
        E 0 85 43 64
        E 0 8f 3b 64
        E 0 92 47 64
        E 0 95 47 64
        E 0 9f 39 5a
        E 0 83 3e 64
        E 0 8f 39 64
        E 0 93 40 5a
        E 0 9f 37 5a
        E 0 82 47 64
        E 0 85 47 64
        E 0 92 49 64
        E 0 95 49 64
        E 0 82 49 64
        E 0 83 40 64
        E 0 85 49 64
        E 0 8f 37 64
        E 0 92 4a 64
        E 0 93 45 5a
        E 0 95 4a 64
        E 0 9f 36 5a
        E 0 83 45 64
        E 0 8f 36 64
        E 0 93 42 5a
        E 0 9f 32 5a
        E 0 82 4a 64
        E 0 85 4a 64
        E 0 92 3e 64
        E 0 95 3e 64
        E 0 82 3e 64
        E 0 83 42 64
        E 0 85 3e 64
        E 0 8f 32 64
        E 0 92 3e 64
        E 0 93 43 5a
        E 0 95 3e 64
        E 0 9f 34 5a
        E 0 83 43 64
        E 0 8f 34 64
        E 0 93 45 5a
        E 0 9f 36 5a
        E 0 82 3e 64
        E 0 83 45 64
        E 0 85 3e 64
        E 0 8f 36 64
        E 0 92 43 64
        E 0 93 3e 5a
        E 0 95 43 64
        E 0 9f 37 5a
        E 0 8f 37 64
        E 1 9f 3b 5a
        E 0 82 43 64
        E 0 85 43 64
        E 0 8f 3b 64
        E 0 92 47 64
        E 0 95 47 64
        E 0 9f 39 5a
        E 0 83 3e 64
        E 0 8f 39 64
        E 0 93 40 5a
        E 0 9f 37 5a
        E 0 82 47 64
        E 0 85 47 64
        E 0 92 49 64
        E 0 95 49 64
        E 0 82 49 64
        E 0 83 40 64
        E 0 85 49 64
        E 0 8f 37 64
        E 0 92 4a 64
        E 0 93 45 5a
        E 0 95 4a 64
        E 0 9f 36 5a
        E 0 83 45 64
        E 0 8f 36 64
        E 0 93 43 5a
        E 0 9f 34 5a
        E 0 82 4a 64
        E 0 83 43 64
        E 0 85 4a 64
        E 0 8f 34 64
        E 0 92 3e 64
        E 0 93 45 5a
        E 0 95 3e 64
        E 0 9f 36 5a
        E 0 82 3e 64
        E 0 83 45 64
        E 0 85 3e 64
        E 0 8f 36 64
        E 0 92 3e 64
        E 0 93 42 5a
        E 0 95 3e 64
        E 0 9f 32 5a
        E 0 82 3e 64
        E 0 83 42 64
        E 0 85 3e 64
        E 0 8f 32 64
        E 0 92 4a 64
        E 0 92 48 64
        E 1 93 42 5a
        E 0 95 48 64
        E 0 9f 39 5a
        E 0 82 4a 64
        E 0 82 48 64
        E 0 83 42 64
        E 0 85 48 64
        E 0 8f 39 64
        E 0 92 47 64
        E 0 93 42 5a
        E 0 95 47 64
        E 0 9f 32 5a
        E 0 82 47 64
        E 0 85 47 64
        E 0 92 48 64
        E 0 95 48 64
        E 0 82 48 64
        E 0 83 42 64
        E 0 85 48 64
        E 0 8f 32 64
        E 0 92 4a 64
        E 0 93 45 5a
        E 0 95 4a 64
        E 0 9f 36 5a
        E 0 82 4a 64
        E 0 83 45 64
        E 0 85 4a 64
        E 0 8f 36 64
        E 0 92 48 64
        E 0 93 42 5a
        E 0 95 48 64
        E 0 9f 32 5a
        E 0 82 48 64
        E 0 83 42 64
        E 0 85 48 64
        E 0 8f 32 64
        E 0 92 47 64
        E 0 93 3e 5a
        E 0 95 47 64
        E 0 9f 37 5a
        E 0 82 47 64
        E 0 8f 37 64
        E 0 92 4e 64
        E 0 9f 32 5a
        E 0 85 47 64
        E 0 95 45 64
        E 0 82 4e 64
        E 0 83 3e 64
        E 0 85 45 64
        E 0 8f 32 64
        E 0 92 4f 64
        E 0 95 43 64
        E 1 9f 2b 5a
        E 38402 82 4f 64
        E 0 85 43 64
        E 0 8f 2b 64
        E 0 92 51 64
        E 0 95 3e 64
        E 1 9f 36 5a
        E 0 82 51 64
        E 0 85 3e 64
        E 0 8f 36 64
        E 0 92 4a 64
        E 0 92 48 64
        E 0 93 42 5a
        E 0 95 48 64
        E 0 9f 39 5a
        E 0 82 4a 64
        E 0 82 48 64
        E 0 83 42 64
        E 0 85 48 64
        E 0 8f 39 64
        E 0 92 47 64
        E 0 93 42 5a
        E 0 95 47 64
        E 0 9f 32 5a
        E 0 82 47 64
        E 0 85 47 64
        E 0 92 48 64
        E 0 95 48 64
        E 0 82 48 64
        E 0 83 42 64
        E 0 85 48 64
        E 0 8f 32 64
        E 0 92 4a 64
        E 0 93 45 5a
        E 0 95 4a 64
        E 0 9f 36 5a
        E 0 82 4a 64
        E 1 83 45 64
        E 0 85 4a 64
        E 0 8f 36 64
        E 0 92 48 64
        E 0 93 42 5a
        E 0 95 48 64
        E 0 9f 32 5a
        E 0 82 48 64
        E 0 83 42 64
        E 1 85 48 64
        E 0 8f 32 64
        E 0 92 47 64
        E 0 93 3e 5a
        E 0 95 47 64
        E 0 9f 37 5a
        E 0 82 47 64
        E 0 8f 37 64
        E 0 92 4e 64
        E 1 9f 32 5a
        E 0 85 47 64
        E 0 95 45 64
        E 0 82 4e 64
        E 0 83 3e 64
        E 0 85 45 64
        E 0 8f 32 64
        E 0 92 4f 64
        E 0 95 43 64
        E 0 9f 2b 5a
        E 0 82 4f 64
        E 0 85 43 64
        E 0 8f 2b 64
        E 0 92 51 64
        E 1 95 48 64
        E 0 9f 36 5a
        E 0 82 51 64
        E 0 85 48 64
        E 0 8f 36 64
        E 0 92 47 64
        E 0 93 3e 5a
        E 0 95 47 64
        E 0 9f 37 5a
        E 0 82 47 64
        E 0 83 3e 64
        E 0 85 47 64
        E 0 8f 37 64
        E 0 92 45 64
        E 0 93 3e 5a
        E 0 95 45 64
        E 0 9f 2b 5a
        E 0 82 45 64
        E 0 85 45 64
        E 1 92 43 64
        E 0 95 43 64
        E 0 82 43 64
        E 0 83 3e 64
        E 0 85 43 64
        E 0 8f 2b 64
        E 0 92 45 64
        E 0 93 40 5a
        E 0 95 45 64
        E 0 9f 30 5a
        E 0 82 45 64
        E 0 83 40 64
        E 0 85 45 64
        E 0 8f 30 64
        E 0 92 43 64
        E 0 93 39 5a
        E 0 95 43 64
        E 0 9f 32 5a
        E 0 82 43 64
        E 0 85 43 64
        E 0 92 42 64
        E 0 95 42 64
        E 0 82 42 64
        E 0 83 39 64
        E 0 85 42 64
        E 0 8f 32 64
        E 0 92 43 64
        E 0 93 3b 5a
        E 0 95 43 64
        E 1 9f 37 5a
        E 0 83 3b 64
        E 0 8f 37 64
        E 0 93 3c 5a
        E 0 9f 39 5a
        E 0 82 43 64
        E 1 83 3c 64
        E 0 85 43 64
        E 0 8f 39 64
        E 0 93 3e 5a
        E 0 9f 3b 5a
        E 0 83 3e 64
        E 0 8f 3b 64
        E 0 92 43 64
        E 0 93 3b 5a
        E 0 95 43 64
        E 0 9f 37 5a
        E 0 82 43 64
        E 0 83 3b 64
        E 0 85 43 64
        E 0 8f 37 64
        E 0 92 4a 64
        E 0 93 39 5a
        E 0 95 4a 64
        E 0 9f 36 5a
        E 0 82 4a 64
        E 0 83 39 64
        E 0 85 4a 64
        E 0 8f 36 64
        E 0 92 48 64
        E 1 93 3e 5a
        E 1 95 48 64
        E 0 9f 37 5a
        E 0 82 48 64
        E 0 85 48 64
        E 0 92 47 64
        E 0 95 47 64
        E 0 82 47 64
        E 0 83 3e 64
        E 1 85 47 64
        E 0 8f 37 64
        E 0 92 48 64
        E 0 93 3c 5a
        E 0 95 48 64
        E 0 9f 39 5a
        E 0 82 48 64
        E 0 83 3c 64
        E 0 85 48 64
        E 0 8f 39 64
        E 0 92 47 64
        E 0 93 42 5a
        E 0 95 47 64
        E 0 9f 32 5a
        E 0 82 47 64
        E 0 85 47 64
        E 1 92 45 64
        E 0 95 45 64
        E 0 82 45 64
        E 0 83 42 64
        E 0 85 45 64
        E 0 8f 32 64
        E 0 92 47 64
        E 0 93 3e 5a
        E 0 95 47 64
        E 0 9f 37 5a
        E 0 82 47 64
        E 0 83 3e 64
        E 0 85 47 64
        E 0 8f 37 64
        E 1 92 45 64
        E 0 93 3e 5a
        E 0 95 45 64
        E 0 9f 32 5a
        E 0 82 45 64
        E 0 83 3e 64
        E 0 85 45 64
        E 0 8f 32 64
        E 0 92 43 64
        E 0 93 3b 5a
        E 0 95 43 64
        E 0 9f 2b 5a
        E 0 82 43 64
        E 0 83 3b 64
        E 0 85 43 64
        E 0 8f 2b 64
        E 0 92 45 64
        E 0 93 3e 5a
        E 0 95 45 64
        E 1 9f 36 5a
        E 0 82 45 64
        E 0 85 45 64
        E 1 92 47 64
        E 0 95 47 64
        E 0 82 47 64
        E 0 83 3e 64
        E 0 85 47 64
        E 0 8f 36 64
        E 0 92 48 64
        E 0 93 3e 5a
        E 0 95 48 64
        E 0 9f 39 5a
        E 0 82 48 64
        E 0 83 3e 64
        E 0 85 48 64
        E 0 8f 39 64
        E 0 92 47 64
        E 0 93 3e 5a
        E 0 95 47 64
        E 0 9f 36 5a
        E 0 82 47 64
        E 0 85 47 64
        E 0 92 45 64
        E 0 95 45 64
        E 0 82 45 64
        E 0 83 3e 64
        E 0 85 45 64
        E 0 8f 36 64
        E 1 92 47 64
        E 0 93 3e 5a
        E 0 95 47 64
        E 0 9f 37 5a
        E 0 82 47 64
        E 0 83 3e 64
        E 0 85 47 64
        E 0 8f 37 64
        E 0 92 45 64
        E 0 93 3e 5a
        E 0 95 45 64
        E 0 9f 32 5a
        E 0 82 45 64
        E 0 83 3e 64
        E 0 85 45 64
        E 0 8f 32 64
        E 0 92 43 64
        E 0 93 3b 5a
        E 0 95 43 64
        E 0 9f 2b 5a
        E 0 82 43 64
        E 0 83 3b 64
        E 0 85 43 64
        E 0 8f 2b 64
        E 0 92 45 64
        E 0 93 3e 5a
        E 0 95 45 64
        E 0 9f 36 5a
        E 0 82 45 64
        E 0 85 45 64
        E 0 92 47 64
        E 0 95 47 64
        E 0 82 47 64
        E 0 83 3e 64
        E 0 85 47 64
        E 0 8f 36 64
        E 0 92 48 64
        E 0 93 3e 5a
        E 1 95 48 64
        E 0 9f 39 5a
        E 0 82 48 64
        E 0 83 3e 64
        E 0 85 48 64
        E 0 8f 39 64
        E 0 92 47 64
        E 0 93 3e 5a
        E 0 95 47 64
        E 0 9f 36 5a
        E 0 82 47 64
        E 0 85 47 64
        E 0 92 45 64
        E 0 95 45 64
        E 0 82 45 64
        E 0 83 3e 64
        E 0 85 45 64
        E 0 8f 36 64
        E 0 92 47 64
        E 0 93 3e 5a
        E 0 95 47 64
        E 1 9f 37 5a
        E 0 82 47 64
        E 0 83 3e 64
        E 0 85 47 64
        E 0 8f 37 64
        E 0 92 45 64
        E 0 93 3e 5a
        E 0 95 45 64
        E 0 9f 32 5a
        E 0 82 45 64
        E 0 83 3e 64
        E 0 85 45 64
        E 0 8f 32 64
        E 0 92 43 64
        E 0 93 3b 5a
        E 0 95 43 64
        E 0 9f 2b 5a
        E 0 82 43 64
        E 0 83 3b 64
        E 0 85 43 64
        E 0 8f 2b 64
        E 0 92 43 64
        E 0 93 3b 5a
        E 0 95 43 64
        E 0 9f 2b 5a
        E 0 82 43 64
        E 0 83 3b 64
        E 0 85 43 64
        E 0 8f 2b 64
        E 0 92 4c 64
        E 0 93 37 5a
        E 0 95 4c 64
        E 0 9f 30 5a
        E 0 82 4c 64
        E 0 85 4c 64
        E 0 8f 30 64
        E 0 92 4c 64
        E 0 95 4c 64
        E 0 9f 32 5a
        E 0 82 4c 64
        E 0 85 4c 64
        E 0 8f 32 64
        E 0 92 4c 64
        E 0 95 4c 64
        E 0 9f 34 5a
        E 0 82 4c 64
        E 0 83 37 64
        E 0 85 4c 64
        E 0 8f 34 64
        E 1 92 4c 64
        E 0 93 40 5a
        E 0 95 4c 64
        E 0 9f 30 5a
        E 0 82 4c 64
        E 0 83 40 64
        E 0 85 4c 64
        E 0 8f 30 64
        E 0 92 42 64
        E 0 93 39 5a
        E 0 95 42 64
        E 0 9f 32 5a
        E 0 82 42 64
        E 0 83 39 64
        E 0 85 42 64
        E 0 8f 32 64
        E 0 92 43 64
        E 0 93 39 5a
        E 0 95 43 64
        E 0 9f 30 5a
        E 0 82 43 64
        E 0 85 43 64
        E 0 92 42 64
        E 0 95 42 64
        E 0 82 42 64
        E 0 83 39 64
        E 0 85 42 64
        E 0 8f 30 64
        E 0 92 43 64
        E 0 93 3e 5a
        E 0 95 43 64
        E 0 9f 2f 5a
        E 0 82 43 64
        E 0 83 3e 64
        E 0 85 43 64
        E 0 8f 2f 64
        E 0 92 48 64
        E 0 93 42 5a
        E 0 95 48 64
        E 0 9f 2d 5a
        E 0 82 48 64
        E 0 83 42 64
        E 0 85 48 64
        E 0 8f 2d 64
        E 0 92 47 64
        E 0 93 3e 5a
        E 0 95 47 64
        E 0 9f 2b 5a
        E 0 82 47 64
        E 0 83 3e 64
        E 0 85 47 64
        E 0 8f 2b 64
        E 1 92 45 64
        E 0 93 3e 5a
        E 0 95 45 64
        E 0 9f 2f 5a
        E 0 82 45 64
        E 0 85 45 64
        E 0 92 43 64
        E 0 95 43 64
        E 0 82 43 64
        E 0 83 3e 64
        E 0 85 43 64
        E 0 8f 2f 64
        E 0 92 45 64
        E 0 93 40 5a
        E 0 95 45 64
        E 0 9f 30 5a
        E 0 82 45 64
        E 0 83 40 64
        E 0 85 45 64
        E 0 8f 30 64
        E 0 92 43 64
        E 0 93 39 5a
        E 0 95 43 64
        E 0 9f 32 5a
        E 0 82 43 64
        E 0 85 43 64
        E 0 92 42 64
        E 0 95 42 64
        E 0 82 42 64
        E 0 83 39 64
        E 0 85 42 64
        E 0 8f 32 64
        E 0 92 43 64
        E 0 93 3b 5a
        E 0 95 43 64
        E 0 9f 2b 5a
        E 0 82 43 64
        E 0 83 3b 64
        E 0 8f 2b 64
        E 0 92 4f 64
        E 0 93 3b 5a
        E 0 9f 37 5a
        E 0 82 4f 64
        E 0 83 3b 64
        E 0 85 43 64
        E 0 8f 37 64
        E 0 92 51 64
        E 0 93 39 5a
        E 0 9f 36 5a
        E 0 82 51 64
        E 0 83 39 64
        E 0 8f 36 64
        E 0 92 53 64
        E 0 93 37 5a
        E 0 9f 34 5a
        E 0 82 53 64
        E 0 83 37 64
        E 0 8f 34 64
        E 0 92 47 64
        E 0 93 43 5a
        E 0 9f 28 5a
        E 0 83 43 64
        E 0 8f 28 64
        E 0 93 43 5a
        E 1 9f 34 5a
        E 0 82 47 64
        E 0 83 43 64
        E 0 8f 34 64
        E 0 92 4a 64
        E 0 92 48 64
        E 0 93 40 5a
        E 0 9f 2d 5a
        E 0 82 4a 64
        E 0 82 48 64
        E 0 83 40 64
        E 0 8f 2d 64
        E 0 92 47 64
        E 0 93 3f 5a
        E 0 9f 2f 5a
        E 0 82 47 64
        E 0 92 45 64
        E 0 82 45 64
        E 0 83 3f 64
        E 0 8f 2f 64
        E 0 92 47 64
        E 0 93 43 5a
        E 0 9f 28 5a
        E 0 83 43 64
        E 0 8f 28 64
        E 0 93 43 5a
        E 0 9f 34 5a
        E 0 82 47 64
        E 0 83 43 64
        E 0 8f 34 64
        E 0 92 4a 64
        E 0 92 48 64
        E 0 93 40 5a
        E 0 9f 2d 5a
        E 0 82 4a 64
        E 0 82 48 64
        E 0 83 40 64
        E 0 8f 2d 64
        E 0 92 47 64
        E 0 93 3f 5a
        E 0 9f 2f 5a
        E 0 82 47 64
        E 0 92 45 64
        E 0 82 45 64
        E 0 83 3f 64
        E 0 8f 2f 64
        E 0 92 47 64
        E 0 93 43 5a
        E 0 9f 28 5a
        E 0 82 47 64
        E 0 83 43 64
        E 0 8f 28 64
        E 1 92 53 64
        E 0 93 43 5a
        E 0 9f 37 5a
        E 0 82 53 64
        E 0 83 43 64
        E 0 8f 37 64
        E 0 92 51 64
        E 0 93 45 5a
        E 0 9f 36 5a
        E 0 82 51 64
        E 0 83 45 64
        E 0 8f 36 64
        E 0 92 4f 64
        E 0 93 47 5a
        E 0 9f 34 5a
        E 0 82 4f 64
        E 0 83 47 64
        E 0 8f 34 64
        E 0 92 4e 64
        E 0 93 3f 5a
        E 0 9f 2f 5a
        E 0 83 3f 64
        E 0 8f 2f 64
        E 0 93 3f 5a
        E 0 9f 3b 5a
        E 0 82 4e 64
        E 0 83 3f 64
        E 0 8f 3b 64
        E 0 92 51 64
        E 0 92 4f 64
        E 0 93 47 5a
        E 0 9f 40 5a
        E 0 82 51 64
        E 0 82 4f 64
        E 0 83 47 64
        E 0 8f 40 64
        E 0 92 4e 64
        E 0 93 47 5a
        E 0 9f 34 5a
        E 0 82 4e 64
        E 0 92 4c 64
        E 0 82 4c 64
        E 0 83 47 64
        E 0 8f 34 64
        E 0 92 4e 64
        E 0 93 3f 5a
        E 0 9f 2f 5a
        E 0 83 3f 64
        E 0 8f 2f 64
        E 0 93 3f 5a
        E 0 9f 3b 5a
        E 0 82 4e 64
        E 0 83 3f 64
        E 0 8f 3b 64
        E 0 92 51 64
        E 0 92 4f 64
        E 0 93 47 5a
        E 0 9f 34 5a
        E 0 82 51 64
        E 0 82 4f 64
        E 0 83 47 64
        E 0 8f 34 64
        E 0 92 4e 64
        E 0 93 49 5a
        E 0 9f 2e 5a
        E 0 82 4e 64
        E 0 92 4c 64
        E 0 82 4c 64
        E 0 83 49 64
        E 0 8f 2e 64
        E 0 92 4b 64
        E 0 93 42 5a
        E 0 9f 2f 5a
        E 0 82 4b 64
        E 0 92 49 64
        E 0 82 49 64
        E 0 8f 2f 64
        E 0 92 47 64
        E 0 9f 2d 5a
        E 0 82 47 64
        E 0 8f 2d 64
        E 0 9f 2b 5a
        E 38405 83 42 64
        E 0 8f 2b 64
        E 0 93 42 5a
        E 0 9f 2a 5a
        E 0 83 42 64
        E 0 8f 2a 64
        E 0 92 47 64
        E 0 93 43 5a
        E 0 95 47 64
        E 0 9f 28 5a
        E 0 83 43 64
        E 0 8f 28 64
        E 0 93 43 5a
        E 0 9f 34 5a
        E 0 82 47 64
        E 0 83 43 64
        E 0 85 47 64
        E 0 8f 34 64
        E 0 92 4a 64
        E 0 92 48 64
        E 0 93 40 5a
        E 0 95 4a 64
        E 0 95 48 64
        E 0 9f 2d 5a
        E 0 82 4a 64
        E 0 82 48 64
        E 0 83 40 64
        E 0 85 4a 64
        E 0 85 48 64
        E 0 8f 2d 64
        E 0 92 47 64
        E 0 93 3f 5a
        E 0 95 47 64
        E 1 9f 2f 5a
        E 0 82 47 64
        E 0 85 47 64
        E 0 92 45 64
        E 0 95 45 64
        E 0 82 45 64
        E 0 83 3f 64
        E 0 85 45 64
        E 0 8f 2f 64
        E 0 92 47 64
        E 0 93 37 5a
        E 0 95 47 64
        E 0 9f 34 5a
        E 0 82 47 64
        E 0 83 37 64
        E 0 85 47 64
        E 0 8f 34 64
        E 0 92 45 64
        E 0 92 43 64
        E 0 93 39 5a
        E 0 95 45 64
        E 0 95 43 64
        E 0 9f 36 5a
        E 0 82 45 64
        E 0 82 43 64
        E 0 83 39 64
        E 0 85 45 64
        E 0 85 43 64
        E 0 8f 36 64
        E 0 92 42 64
        E 0 92 40 64
        E 0 93 3b 5a
        E 0 95 42 64
        E 0 95 40 64
        E 0 9f 37 5a
        E 0 82 42 64
        E 0 83 3b 64
        E 0 85 42 64
        E 0 8f 37 64
        E 0 93 37 5a
        E 0 9f 34 5a
        E 0 82 40 64
        E 0 83 37 64
        E 0 85 40 64
        E 0 8f 34 64
        E 0 92 47 64
        E 0 93 43 5a
        E 0 95 47 64
        E 0 9f 28 5a
        E 0 83 43 64
        E 0 8f 28 64
        E 0 93 43 5a
        E 0 9f 34 5a
        E 0 82 47 64
        E 0 83 43 64
        E 0 85 47 64
        E 0 8f 34 64
        E 0 92 4a 64
        E 0 92 48 64
        E 0 93 40 5a
        E 0 95 4a 64
        E 0 95 48 64
        E 0 9f 2d 5a
        E 0 82 4a 64
        E 0 82 48 64
        E 0 83 40 64
        E 0 85 4a 64
        E 0 85 48 64
        E 0 8f 2d 64
        E 0 92 47 64
        E 0 93 3f 5a
        E 0 95 47 64
        E 0 9f 2f 5a
        E 0 82 47 64
        E 0 85 47 64
        E 0 92 45 64
        E 0 95 45 64
        E 0 82 45 64
        E 0 83 3f 64
        E 0 85 45 64
        E 0 8f 2f 64
        E 0 92 47 64
        E 0 93 37 5a
        E 0 95 47 64
        E 0 9f 28 5a
        E 0 82 47 64
        E 0 83 37 64
        E 0 85 47 64
        E 1 8f 28 64
        E 0 92 43 64
        E 0 93 37 5a
        E 0 95 43 64
        E 0 9f 34 5a
        E 0 82 43 64
        E 0 83 37 64
        E 0 85 43 64
        E 0 8f 34 64
        E 0 92 42 64
        E 0 93 39 5a
        E 0 95 42 64
        E 0 9f 36 5a
        E 0 82 42 64
        E 0 83 39 64
        E 0 85 42 64
        E 0 8f 36 64
        E 0 92 40 64
        E 0 93 3b 5a
        E 0 95 40 64
        E 0 9f 37 5a
        E 0 82 40 64
        E 0 83 3b 64
        E 0 85 40 64
        E 0 8f 37 64
        E 0 92 47 64
        E 0 93 36 5a
        E 0 95 47 64
        E 0 9f 33 5a
        E 0 82 47 64
        E 0 85 47 64
        E 0 8f 33 64
        E 0 92 45 64
        E 0 95 45 64
        E 0 9f 34 5a
        E 0 82 45 64
        E 0 85 45 64
        E 0 92 43 64
        E 0 95 43 64
        E 0 82 43 64
        E 0 83 36 64
        E 0 85 43 64
        E 0 8f 34 64
        E 0 92 45 64
        E 0 93 3f 5a
        E 0 95 45 64
        E 1 9f 36 5a
        E 0 82 45 64
        E 0 85 45 64
        E 0 8f 36 64
        E 0 92 43 64
        E 0 95 43 64
        E 0 9f 2f 5a
        E 0 82 43 64
        E 0 85 43 64
        E 0 92 42 64
        E 0 95 42 64
        E 0 82 42 64
        E 0 83 3f 64
        E 0 85 42 64
        E 0 8f 2f 64
        E 0 92 43 64
        E 0 93 3b 5a
        E 0 95 43 64
        E 0 9f 34 5a
        E 0 82 43 64
        E 0 85 43 64
        E 0 8f 34 64
        E 0 92 42 64
        E 0 95 42 64
        E 0 9f 36 5a
        E 0 82 42 64
        E 0 85 42 64
        E 0 8f 36 64
        E 0 92 40 64
        E 0 95 40 64
        E 0 9f 37 5a
        E 0 83 3b 64
        E 0 8f 37 64
        E 0 93 39 5a
        E 0 9f 36 5a
        E 0 82 40 64
        E 0 83 39 64
        E 0 85 40 64
        E 0 8f 36 64
        E 0 92 44 64
        E 0 93 3b 5a
        E 0 95 44 64
        E 0 9f 34 5a
        E 0 82 44 64
        E 0 92 47 64
        E 0 82 47 64
        E 0 8f 34 64
        E 0 92 4c 64
        E 0 9f 32 5a
        E 0 82 4c 64
        E 0 92 50 64
        E 0 82 50 64
        E 0 85 44 64
        E 0 8f 32 64
        E 0 92 53 64
        E 0 95 44 64
        E 0 9f 34 5a
        E 0 82 53 64
        E 0 83 3b 64
        E 0 85 44 64
        E 0 8f 34 64
        E 0 92 4a 64
        E 0 93 40 5a
        E 0 95 44 64
        E 0 9f 28 5a
        E 0 82 4a 64
        E 0 83 40 64
        E 0 85 44 64
        E 0 8f 28 64
        E 0 92 45 64
        E 0 93 40 5a
        E 0 95 45 64
        E 0 9f 39 5a
        E 0 82 45 64
        E 0 85 45 64
        E 0 92 47 64
        E 0 95 47 64
        E 0 82 47 64
        E 0 85 47 64
        E 0 8f 39 64
        E 0 92 48 64
        E 0 95 48 64
        E 0 9f 38 5a
        E 0 82 48 64
        E 0 85 48 64
        E 0 92 47 64
        E 0 95 47 64
        E 0 82 47 64
        E 0 85 47 64
        E 0 8f 38 64
        E 0 92 45 64
        E 0 95 45 64
        E 0 9f 39 5a
        E 0 82 45 64
        E 0 83 40 64
        E 0 85 45 64
        E 0 8f 39 64
        E 0 93 3c 5a
        E 0 9f 2d 5a
        E 0 83 3c 64
        E 0 8f 2d 64
        E 0 92 46 64
        E 0 93 3d 5a
        E 0 95 46 64
        E 0 9f 36 5a
        E 0 82 46 64
        E 1 92 49 64
        E 0 82 49 64
        E 0 8f 36 64
        E 0 92 4c 64
        E 0 9f 34 5a
        E 0 82 4c 64
        E 0 92 52 64
        E 0 82 52 64
        E 0 85 46 64
        E 0 8f 34 64
        E 0 92 55 64
        E 0 95 46 64
        E 0 9f 36 5a
        E 0 82 55 64
        E 0 83 3d 64
        E 0 85 46 64
        E 0 8f 36 64
        E 0 92 4c 64
        E 0 93 42 5a
        E 0 95 46 64
        E 0 9f 2a 5a
        E 0 82 4c 64
        E 0 83 42 64
        E 0 85 46 64
        E 0 8f 2a 64
        E 0 92 47 64
        E 0 93 42 5a
        E 0 95 47 64
        E 0 9f 3b 5a
        E 0 82 47 64
        E 0 85 47 64
        E 0 92 49 64
        E 0 95 49 64
        E 0 82 49 64
        E 0 85 49 64
        E 0 8f 3b 64
        E 0 92 4b 64
        E 0 95 4b 64
        E 0 9f 39 5a
        E 0 82 4b 64
        E 0 85 4b 64
        E 0 92 49 64
        E 0 95 49 64
        E 0 82 49 64
        E 0 85 49 64
        E 0 8f 39 64
        E 0 92 47 64
        E 0 95 47 64
        E 0 9f 3b 5a
        E 0 82 47 64
        E 0 83 42 64
        E 0 85 47 64
        E 0 8f 3b 64
        E 0 92 47 64
        E 0 93 3f 5a
        E 0 95 47 64
        E 0 9f 2f 5a
        E 0 82 47 64
        E 0 83 3f 64
        E 0 85 47 64
        E 0 8f 2f 64
        E 0 92 48 64
        E 0 92 47 64
        E 0 93 40 5a
        E 0 95 48 64
        E 0 95 47 64
        E 0 9f 3b 5a
        E 0 82 48 64
        E 0 82 47 64
        E 0 85 48 64
        E 0 85 47 64
        E 0 8f 3b 64
        E 0 92 45 64
        E 1 95 45 64
        E 0 9f 2f 5a
        E 0 82 45 64
        E 0 85 45 64
        E 0 92 47 64
        E 0 95 47 64
        E 0 82 47 64
        E 0 85 47 64
        E 0 8f 2f 64
        E 0 92 48 64
        E 0 95 48 64
        E 0 9f 2f 5a
        E 0 82 48 64
        E 0 83 40 64
        E 0 85 48 64
        E 0 8f 2f 64
        E 0 92 47 64
        E 0 93 40 5a
        E 0 95 47 64
        E 0 9f 3b 5a
        E 0 82 47 64
        E 0 83 40 64
        E 0 85 47 64
        E 0 8f 3b 64
        E 0 92 45 64
        E 0 93 40 5a
        E 0 95 45 64
        E 0 9f 3b 5a
        E 0 82 45 64
        E 0 8f 3b 64
        E 0 92 4b 64
        E 0 9f 2f 5a
        E 0 85 45 64
        E 0 95 45 64
        E 0 82 4b 64
        E 0 85 45 64
        E 0 8f 2f 64
        E 0 92 4c 64
        E 0 95 45 64
        E 0 9f 2f 5a
        E 0 82 4c 64
        E 0 83 40 64
        E 0 85 45 64
        E 0 8f 2f 64
        E 0 92 4e 64
        E 0 93 40 5a
        E 0 95 45 64
        E 0 9f 3b 5a
        E 0 82 4e 64
        E 0 83 40 64
        E 0 85 45 64
        E 0 8f 3b 64
        E 0 92 45 64
        E 0 93 40 5a
        E 0 95 45 64
        E 0 9f 3b 5a
        E 0 82 45 64
        E 0 85 45 64
        E 0 8f 3b 64
        E 0 92 43 64
        E 0 95 43 64
        E 0 9f 2f 5a
        E 0 82 43 64
        E 0 85 43 64
        E 0 92 45 64
        E 0 95 45 64
        E 0 82 45 64
        E 0 85 45 64
        E 0 8f 2f 64
        E 0 92 47 64
        E 0 95 47 64
        E 0 9f 2f 5a
        E 0 82 47 64
        E 0 83 40 64
        E 0 85 47 64
        E 0 8f 2f 64
        E 0 92 45 64
        E 1 93 40 5a
        E 0 95 45 64
        E 0 9f 3b 5a
        E 0 82 45 64
        E 0 83 40 64
        E 0 85 45 64
        E 0 8f 3b 64
        E 0 92 43 64
        E 0 93 3b 5a
        E 0 95 43 64
        E 0 9f 34 5a
        E 0 82 43 64
        E 0 8f 34 64
        E 0 92 4f 64
        E 0 9f 37 5a
        E 0 85 43 64
        E 0 95 43 64
        E 0 82 4f 64
        E 0 85 43 64
        E 0 8f 37 64
        E 0 92 51 64
        E 0 95 43 64
        E 0 9f 36 5a
        E 0 82 51 64
        E 0 83 3b 64
        E 0 85 43 64
        E 0 8f 36 64
        E 0 92 53 64
        E 0 93 43 5a
        E 0 95 47 64
        E 0 9f 34 5a
        E 0 82 53 64
        E 0 83 43 64
        E 0 85 47 64
        E 0 8f 34 64
        E 0 92 48 64
        E 0 93 40 5a
        E 0 95 48 64
        E 0 9f 2d 5a
        E 0 82 48 64
        E 0 83 40 64
        E 0 8f 2d 64
        E 0 92 47 64
        E 0 93 3c 5a
        E 0 9f 39 5a
        E 0 82 47 64
        E 0 92 45 64
        E 0 82 45 64
        E 0 83 3c 64
        E 0 85 48 64
        E 0 8f 39 64
        E 0 92 4b 64
        E 0 93 42 5a
        E 0 95 4b 64
        E 0 9f 3b 5a
        E 0 82 4b 64
        E 0 83 42 64
        E 0 8f 3b 64
        E 0 92 48 64
        E 0 93 3f 5a
        E 0 9f 39 5a
        E 0 82 48 64
        E 0 92 47 64
        E 0 82 47 64
        E 0 83 3f 64
        E 0 85 4b 64
        E 0 8f 39 64
        E 0 92 4c 64
        E 0 93 3b 5a
        E 0 95 4c 64
        E 0 9f 37 5a
        E 0 82 4c 64
        E 0 83 3b 64
        E 0 85 4c 64
        E 0 8f 37 64
        E 0 92 4a 64
        E 0 93 40 5a
        E 0 95 4a 64
        E 0 9f 39 5a
        E 0 82 4a 64
        E 0 85 4a 64
        E 0 92 48 64
        E 0 95 48 64
        E 0 82 48 64
        E 0 83 40 64
        E 0 85 48 64
        E 0 8f 39 64
        E 0 92 47 64
        E 0 93 3f 5a
        E 0 95 47 64
        E 0 9f 33 5a
        E 0 82 47 64
        E 0 83 3f 64
        E 0 85 47 64
        E 0 8f 33 64
        E 0 92 45 64
        E 0 93 3b 5a
        E 1 95 45 64
        E 0 9f 2f 5a
        E 0 82 45 64
        E 0 83 3b 64
        E 0 85 45 64
        E 0 8f 2f 64
        E 0 92 43 64
        E 0 93 37 5a
        E 0 95 43 64
        E 0 9f 34 5a
        E 0 82 43 64
        E 0 83 37 64
        E 0 85 43 64
        E 0 8f 34 64
        E 0 92 42 64
        E 0 93 3b 5a
        E 0 95 42 64
        E 0 9f 2b 5a
        E 0 82 42 64
        E 0 85 42 64
        E 0 92 40 64
        E 0 95 40 64
        E 0 82 40 64
        E 0 83 3b 64
        E 0 85 40 64
        E 0 8f 2b 64
        E 0 92 42 64
        E 0 93 3c 5a
        E 0 95 42 64
        E 0 9f 2d 5a
        E 0 82 42 64
        E 0 83 3c 64
        E 0 85 42 64
        E 0 8f 2d 64
        E 0 92 3f 64
        E 0 93 3b 5a
        E 0 95 3f 64
        E 0 9f 2f 5a
        E 0 82 3f 64
        E 0 83 3b 64
        E 0 85 3f 64
        E 0 8f 2f 64
        E 0 92 40 64
        E 0 93 3b 5a
        E 0 95 40 64
        E 0 9f 34 5a
        E 0 83 3b 64
        E 0 8f 34 64
        E 0 93 39 5a
        E 0 9f 36 5a
        E 0 82 40 64
        E 0 83 39 64
        E 0 85 40 64
        E 0 8f 36 64
        E 0 93 3b 5a
        E 0 9f 37 5a
        E 0 83 3b 64
        E 0 8f 37 64
        E 0 92 40 64
        E 0 93 37 5a
        E 0 95 40 64
        E 0 9f 34 5a
        E 0 82 40 64
        E 0 83 37 64
        E 0 85 40 64
        E 0 8f 34 64
        E 0 92 47 64
        E 0 93 36 5a
        E 0 95 47 64
        E 0 9f 33 5a
        E 0 82 47 64
        E 0 85 47 64
        E 0 8f 33 64
        E 0 92 45 64
        E 0 95 45 64
        E 0 9f 34 5a
        E 0 82 45 64
        E 0 85 45 64
        E 0 92 43 64
        E 0 95 43 64
        E 0 82 43 64
        E 0 83 36 64
        E 0 85 43 64
        E 0 8f 34 64
        E 0 92 45 64
        E 0 93 3f 5a
        E 0 95 45 64
        E 0 9f 36 5a
        E 0 82 45 64
        E 0 85 45 64
        E 0 8f 36 64
        E 1 92 43 64
        E 0 95 43 64
        E 0 9f 2f 5a
        E 0 82 43 64
        E 0 85 43 64
        E 0 92 42 64
        E 0 95 42 64
        E 0 82 42 64
        E 0 83 3f 64
        E 0 85 42 64
        E 0 8f 2f 64
        E 0 92 43 64
        E 0 93 3b 5a
        E 0 95 43 64
        E 0 9f 34 5a
        E 0 82 43 64
        E 0 83 3b 64
        E 0 85 43 64
        E 0 8f 34 64
        E 0 92 42 64
        E 0 93 3b 5a
        E 0 95 42 64
        E 0 9f 3b 5a
        E 0 82 42 64
        E 0 83 3b 64
        E 0 85 42 64
        E 0 8f 3b 64
        E 0 92 40 64
        E 0 93 3b 5a
        E 0 95 40 64
        E 0 9f 34 5a
        E 38407 8f 34 64
        E 0 82 40 64
        E 0 83 3b 64
        E 0 85 40 64
        E 0 92 42 64
        E 0 93 3b 5a
        E 0 95 42 64
        E 0 9f 33 5a
        E 0 82 42 64
        E 0 85 42 64
        E 0 92 43 64
        E 0 95 43 64
        E 0 82 43 64
        E 0 83 3b 64
        E 0 85 43 64
        E 0 8f 33 64
        E 0 92 45 64
        E 1 93 3b 5a
        E 0 95 45 64
        E 0 9f 36 5a
        E 0 82 45 64
        E 0 83 3b 64
        E 0 85 45 64
        E 0 8f 36 64
        E 0 92 43 64
        E 0 93 3b 5a
        E 0 95 43 64
        E 0 9f 2f 5a
        E 0 82 43 64
        E 0 85 43 64
        E 0 92 42 64
        E 0 95 42 64
        E 0 82 42 64
        E 0 83 3b 64
        E 0 85 42 64
        E 0 8f 2f 64
        E 0 92 43 64
        E 0 93 3b 5a
        E 0 95 43 64
        E 0 9f 34 5a
        E 0 82 43 64
        E 0 83 3b 64
        E 0 85 43 64
        E 0 8f 34 64
        E 0 92 42 64
        E 0 93 3b 5a
        E 0 95 42 64
        E 0 9f 3b 5a
        E 0 82 42 64
        E 0 83 3b 64
        E 0 85 42 64
        E 0 8f 3b 64
        E 0 92 40 64
        E 0 93 3b 5a
        E 0 95 40 64
        E 0 9f 34 5a
        E 0 8f 34 64
        E 0 82 40 64
        E 0 83 3b 64
        E 0 85 40 64
        E 0 92 42 64
        E 1 93 3b 5a
        E 0 95 42 64
        E 0 9f 33 5a
        E 0 82 42 64
        E 0 85 42 64
        E 0 92 43 64
        E 0 95 43 64
        E 0 82 43 64
        E 0 83 3b 64
        E 0 85 43 64
        E 0 8f 33 64
        E 0 92 45 64
        E 0 93 3b 5a
        E 0 95 45 64
        E 0 9f 36 5a
        E 0 82 45 64
        E 0 83 3b 64
        E 0 85 45 64
        E 0 8f 36 64
        E 0 92 43 64
        E 0 93 3b 5a
        E 0 95 43 64
        E 0 9f 2f 5a
        E 0 82 43 64
        E 0 85 43 64
        E 0 92 42 64
        E 0 95 42 64
        E 0 82 42 64
        E 0 83 3b 64
        E 0 85 42 64
        E 0 8f 2f 64
        E 0 92 43 64
        E 0 93 3b 5a
        E 0 95 43 64
        E 0 9f 34 5a
        E 0 82 43 64
        E 0 83 3b 64
        E 0 85 43 64
        E 0 8f 34 64
        E 0 92 42 64
        E 0 93 3b 5a
        E 0 95 42 64
        E 0 9f 2f 5a
        E 0 82 42 64
        E 0 83 3b 64
        E 0 85 42 64
        E 0 8f 2f 64
        E 0 92 40 64
        E 0 93 3b 5a
        E 0 95 40 64
        E 0 9f 28 5a
        E 0 82 40 64
        E 0 83 3b 64
        E 0 85 40 64
        E 0 8f 28 64
        E 0 92 40 64
        E 1 93 37 5a
        E 0 95 40 64
        E 0 9f 34 5a
        E 0 82 40 64
        E 0 83 37 64
        E 0 85 40 64
        E 0 8f 34 64
        E 0 92 48 64
        E 0 93 40 5a
        E 0 95 48 64
        E 0 9f 2d 5a
        E 0 82 48 64
        E 0 83 40 64
        E 0 85 48 64
        E 0 8f 2d 64
        E 0 92 48 64
        E 0 93 3c 5a
        E 0 95 48 64
        E 0 9f 39 5a
        E 0 82 48 64
        E 0 83 3c 64
        E 0 85 48 64
        E 0 8f 39 64
        E 0 92 4b 64
        E 0 93 42 5a
        E 0 95 4b 64
        E 0 9f 3b 5a
        E 0 82 4b 64
        E 0 83 42 64
        E 0 85 4b 64
        E 0 8f 3b 64
        E 0 92 4b 64
        E 0 93 3f 5a
        E 0 95 4b 64
        E 0 9f 39 5a
        E 0 82 4b 64
        E 0 83 3f 64
        E 0 85 4b 64
        E 0 8f 39 64
        E 0 92 4c 64
        E 0 93 3b 5a
        E 0 95 4c 64
        E 0 9f 37 5a
        E 0 82 4c 64
        E 0 83 3b 64
        E 0 85 4c 64
        E 0 8f 37 64
        E 0 92 4a 64
        E 0 93 40 5a
        E 0 95 4a 64
        E 0 9f 39 5a
        E 0 82 4a 64
        E 0 85 4a 64
        E 0 92 48 64
        E 0 95 48 64
        E 0 82 48 64
        E 0 83 40 64
        E 0 85 48 64
        E 0 8f 39 64
        E 0 92 47 64
        E 0 93 42 5a
        E 0 95 47 64
        E 0 9f 33 5a
        E 0 82 47 64
        E 0 83 42 64
        E 0 85 47 64
        E 0 8f 33 64
        E 0 92 45 64
        E 0 93 3f 5a
        E 0 95 45 64
        E 0 9f 2f 5a
        E 0 82 45 64
        E 0 83 3f 64
        E 0 85 45 64
        E 0 8f 2f 64
        E 0 92 43 64
        E 0 93 3b 5a
        E 0 95 43 64
        E 0 9f 34 5a
        E 0 82 43 64
        E 0 83 3b 64
        E 0 85 43 64
        E 0 8f 34 64
        E 0 92 42 64
        E 1 93 3b 5a
        E 0 95 42 64
        E 0 9f 2b 5a
        E 0 82 42 64
        E 0 85 42 64
        E 0 92 40 64
        E 0 95 40 64
        E 0 82 40 64
        E 0 83 3b 64
        E 0 85 40 64
        E 0 8f 2b 64
        E 0 92 42 64
        E 0 93 3c 5a
        E 0 95 42 64
        E 0 9f 2d 5a
        E 0 82 42 64
        E 0 83 3c 64
        E 0 85 42 64
        E 0 8f 2d 64
        E 0 92 3f 64
        E 0 93 3b 5a
        E 0 95 3f 64
        E 0 9f 2f 5a
        E 0 82 3f 64
        E 0 83 3b 64
        E 0 85 3f 64
        E 0 8f 2f 64
        E 0 92 47 64
        E 0 93 43 5a
        E 0 95 40 64
        E 0 9f 28 5a
        E 0 83 43 64
        E 0 8f 28 64
        E 0 93 43 5a
        E 0 9f 34 5a
        E 0 82 47 64
        E 0 83 43 64
        E 0 85 40 64
        E 0 8f 34 64
        E 0 92 4a 64
        E 0 92 48 64
        E 0 93 40 5a
        E 0 9f 2d 5a
        E 0 82 4a 64
        E 0 82 48 64
        E 0 83 40 64
        E 0 8f 2d 64
        E 0 92 47 64
        E 0 93 3f 5a
        E 0 9f 2f 5a
        E 0 82 47 64
        E 0 92 45 64
        E 0 82 45 64
        E 0 83 3f 64
        E 0 8f 2f 64
        E 0 92 47 64
        E 0 93 43 5a
        E 0 9f 28 5a
        E 0 83 43 64
        E 0 8f 28 64
        E 0 93 43 5a
        E 0 9f 34 5a
        E 0 82 47 64
        E 0 83 43 64
        E 0 8f 34 64
        E 0 92 4a 64
        E 0 92 48 64
        E 0 93 40 5a
        E 0 9f 2d 5a
        E 0 82 4a 64
        E 0 82 48 64
        E 0 83 40 64
        E 0 8f 2d 64
        E 0 92 47 64
        E 0 93 3f 5a
        E 0 9f 2f 5a
        E 0 82 47 64
        E 0 92 45 64
        E 0 82 45 64
        E 0 83 3f 64
        E 0 8f 2f 64
        E 0 92 47 64
        E 0 93 43 5a
        E 0 9f 28 5a
        E 0 82 47 64
        E 0 83 43 64
        E 0 8f 28 64
        E 0 92 53 64
        E 0 93 43 5a
        E 0 9f 37 5a
        E 0 82 53 64
        E 0 83 43 64
        E 0 8f 37 64
        E 0 92 51 64
        E 0 93 45 5a
        E 0 9f 36 5a
        E 0 82 51 64
        E 0 83 45 64
        E 0 8f 36 64
        E 0 92 4f 64
        E 0 93 47 5a
        E 0 9f 34 5a
        E 0 82 4f 64
        E 0 83 47 64
        E 0 8f 34 64
        E 0 92 4e 64
        E 0 93 3f 5a
        E 0 9f 2f 5a
        E 0 83 3f 64
        E 0 8f 2f 64
        E 1 93 3f 5a
        E 0 9f 3b 5a
        E 0 82 4e 64
        E 0 83 3f 64
        E 0 8f 3b 64
        E 0 92 51 64
        E 0 92 4f 64
        E 0 93 47 5a
        E 0 9f 34 5a
        E 0 82 51 64
        E 0 82 4f 64
        E 0 83 47 64
        E 0 8f 34 64
        E 0 92 4e 64
        E 0 93 47 5a
        E 0 9f 28 5a
        E 0 82 4e 64
        E 0 92 4c 64
        E 0 82 4c 64
        E 0 83 47 64
        E 0 8f 28 64
        E 0 92 4e 64
        E 0 93 3f 5a
        E 0 9f 2f 5a
        E 0 83 3f 64
        E 0 8f 2f 64
        E 0 93 3f 5a
        E 0 9f 3b 5a
        E 0 82 4e 64
        E 0 83 3f 64
        E 0 8f 3b 64
        E 0 92 51 64
        E 0 92 4f 64
        E 0 93 47 5a
        E 0 9f 34 5a
        E 0 82 51 64
        E 0 82 4f 64
        E 0 83 47 64
        E 0 8f 34 64
        E 0 92 4e 64
        E 0 93 49 5a
        E 0 9f 2e 5a
        E 0 82 4e 64
        E 0 92 4c 64
        E 0 82 4c 64
        E 0 83 49 64
        E 0 8f 2e 64
        E 0 92 4b 64
        E 0 93 42 5a
        E 0 9f 2f 5a
        E 0 82 4b 64
        E 0 92 49 64
        E 0 82 49 64
        E 0 83 42 64
        E 0 8f 2f 64
        E 0 92 47 64
        E 0 93 40 5a
        E 0 9f 31 5a
        E 1 82 47 64
        E 0 83 40 64
        E 0 8f 31 64
        E 0 93 42 5a
        E 0 9f 33 5a
        E 0 83 42 64
        E 0 8f 33 64
        E 0 92 4e 64
        E 0 93 40 5a
        E 0 9f 31 5a
        E 0 82 4e 64
        E 0 83 40 64
        E 0 8f 31 64
        E 0 92 45 64
        E 0 93 3e 5a
        E 0 9f 2f 5a
        E 0 82 45 64
        E 0 83 3e 64
        E 0 8f 2f 64
        E 0 92 43 64
        E 0 93 42 5a
        E 0 9f 3b 5a
        E 0 82 43 64
        E 0 92 45 64
        E 0 82 45 64
        E 0 83 42 64
        E 0 8f 3b 64
        E 0 92 47 64
        E 0 93 42 5a
        E 0 9f 3b 5a
        E 0 82 47 64
        E 0 83 42 64
        E 0 8f 3b 64
        E 0 92 45 64
        E 0 93 42 5a
        E 0 9f 2f 5a
        E 0 82 45 64
        E 0 83 42 64
        E 0 8f 2f 64
        E 0 92 43 64
        E 0 93 40 5a
        E 0 9f 2f 5a
        E 0 82 43 64
        E 0 8f 2f 64
        E 0 92 4b 64
        E 0 9f 3b 5a
        E 0 82 4b 64
        E 0 83 40 64
        E 0 8f 3b 64
        E 0 92 4c 64
        E 0 9f 3b 5a
        E 0 82 4c 64
        E 0 8f 3b 64
        E 0 92 4e 64
        E 0 9f 2f 5a
        E 0 82 4e 64
        E 0 8f 2f 64
        E 0 92 45 64
        E 1 93 42 5a
        E 0 9f 2f 5a
        E 0 82 45 64
        E 0 83 42 64
        E 0 8f 2f 64
        E 0 92 43 64
        E 0 93 42 5a
        E 0 9f 3b 5a
        E 0 82 43 64
        E 0 92 45 64
        E 0 82 45 64
        E 0 83 42 64
        E 0 8f 3b 64
        E 0 92 47 64
        E 0 93 42 5a
        E 0 9f 3b 5a
        E 0 82 47 64
        E 0 83 42 64
        E 0 8f 3b 64
        E 0 92 45 64
        E 0 93 42 5a
        E 0 9f 2f 5a
        E 0 82 45 64
        E 0 83 42 64
        E 0 8f 2f 64
        E 0 92 43 64
        E 0 93 40 5a
        E 0 9f 2f 5a
        E 0 82 43 64
        E 0 8f 2f 64
        E 0 92 4b 64
        E 0 9f 3b 5a
        E 0 82 4b 64
        E 0 83 40 64
        E 0 8f 3b 64
        E 0 92 4c 64
        E 0 9f 3b 5a
        E 0 82 4c 64
        E 0 8f 3b 64
        E 0 92 4e 64
        E 0 9f 2f 5a
        E 0 82 4e 64
        E 0 8f 2f 64
        E 0 92 4f 64
        E 0 93 40 5a
        E 0 9f 28 5a
        E 0 82 4f 64
        E 1 92 53 64
        E 0 82 53 64
        E 0 83 40 64
        E 0 8f 28 64
        E 0 92 51 64
        E 0 93 3b 5a
        E 0 9f 34 5a
        E 0 82 51 64
        E 0 92 4f 64
        E 0 82 4f 64
        E 0 83 3b 64
        E 0 8f 34 64
        E 0 92 4e 64
        E 0 93 3b 5a
        E 0 9f 33 5a
        E 0 82 4e 64
        E 0 92 4c 64
        E 0 82 4c 64
        E 0 83 3b 64
        E 0 8f 33 64
        E 0 92 4b 64
        E 0 93 3b 5a
        E 0 9f 2f 5a
        E 0 82 4b 64
        E 0 92 49 64
        E 0 82 49 64
        E 0 83 3b 64
        E 0 8f 2f 64
        E 0 92 47 64
        E 0 93 3b 5a
        E 0 9f 2b 5a
        E 0 82 47 64
        E 0 8f 2b 64
        E 0 92 4c 64
        E 0 9f 34 5a
        E 0 82 4c 64
        E 0 8f 34 64
        E 0 92 43 64
        E 0 9f 3b 5a
        E 0 82 43 64
        E 0 83 3b 64
        E 0 8f 3b 64
        E 0 92 42 64
        E 0 93 3b 5a
        E 0 9f 2f 5a
        E 0 82 42 64
        E 0 83 3b 64
        E 0 8f 2f 64
        E 0 92 40 64
        E 0 93 37 5a
        E 0 9f 28 5a
        E 38404 82 40 64
        E 0 83 37 64
        E 0 8f 28 64
        E 0 92 43 64
        E 0 93 3e 5a
        E 0 95 43 64
        E 0 9f 2b 5a
        E 0 83 3e 64
        E 0 8f 2b 64
        E 0 93 47 5a
        E 0 9f 37 5a
        E 0 82 43 64
        E 0 83 47 64
        E 0 85 43 64
        E 0 8f 37 64
        E 0 92 47 64
        E 0 93 45 5a
        E 0 95 47 64
        E 0 9f 36 5a
        E 0 83 45 64
        E 0 8f 36 64
        E 0 93 43 5a
        E 0 9f 34 5a
        E 0 82 47 64
        E 0 85 47 64
        E 0 92 48 64
        E 0 95 48 64
        E 0 82 48 64
        E 0 83 43 64
        E 0 85 48 64
        E 0 8f 34 64
        E 0 92 4a 64
        E 0 93 42 5a
        E 0 95 4a 64
        E 0 9f 32 5a
        E 0 83 42 64
        E 0 8f 32 64
        E 0 93 43 5a
        E 0 9f 34 5a
        E 0 82 4a 64
        E 0 83 43 64
        E 0 85 4a 64
        E 0 8f 34 64
        E 0 92 3e 64
        E 0 93 45 5a
        E 0 95 3e 64
        E 0 9f 36 5a
        E 0 83 45 64
        E 0 8f 36 64
        E 0 93 41 5a
        E 0 9f 32 5a
        E 1 82 3e 64
        E 0 83 41 64
        E 0 85 3e 64
        E 0 8f 32 64
        E 0 92 45 64
        E 0 93 40 5a
        E 0 95 45 64
        E 0 9f 30 5a
        E 0 83 40 64
        E 0 8f 30 64
        E 0 93 48 5a
        E 0 9f 39 5a
        E 0 82 45 64
        E 0 83 48 64
        E 0 85 45 64
        E 0 8f 39 64
        E 0 92 48 64
        E 0 93 47 5a
        E 0 95 48 64
        E 0 9f 37 5a
        E 0 83 47 64
        E 0 8f 37 64
        E 0 93 45 5a
        E 0 9f 35 5a
        E 0 82 48 64
        E 0 85 48 64
        E 0 92 4a 64
        E 0 95 4a 64
        E 0 82 4a 64
        E 0 83 45 64
        E 0 85 4a 64
        E 0 8f 35 64
        E 0 92 4c 64
        E 0 93 44 5a
        E 0 95 4c 64
        E 0 9f 34 5a
        E 0 83 44 64
        E 0 8f 34 64
        E 0 93 45 5a
        E 0 9f 36 5a
        E 0 82 4c 64
        E 0 83 45 64
        E 0 85 4c 64
        E 0 8f 36 64
        E 0 92 40 64
        E 0 93 47 5a
        E 0 95 40 64
        E 0 9f 38 5a
        E 0 83 47 64
        E 0 8f 38 64
        E 0 93 44 5a
        E 0 9f 34 5a
        E 0 82 40 64
        E 0 83 44 64
        E 0 85 40 64
        E 0 8f 34 64
        E 0 93 40 5a
        E 0 9f 39 5a
        E 0 8f 39 64
        E 0 92 45 64
        E 0 95 45 64
        E 0 9f 3b 5a
        E 0 82 45 64
        E 0 85 45 64
        E 0 8f 3b 64
        E 0 92 45 64
        E 0 95 45 64
        E 0 9f 3c 5a
        E 0 82 45 64
        E 0 83 40 64
        E 0 85 45 64
        E 0 8f 3c 64
        E 0 92 45 64
        E 0 93 3c 5a
        E 0 95 45 64
        E 0 9f 39 5a
        E 0 82 45 64
        E 0 83 3c 64
        E 0 85 45 64
        E 0 8f 39 64
        E 0 92 45 64
        E 0 93 3b 5a
        E 0 95 45 64
        E 0 9f 34 5a
        E 0 82 45 64
        E 0 85 45 64
        E 0 8f 34 64
        E 0 92 44 64
        E 0 95 44 64
        E 0 9f 36 5a
        E 0 82 44 64
        E 0 85 44 64
        E 1 92 45 64
        E 0 95 45 64
        E 0 82 45 64
        E 0 85 45 64
        E 0 8f 36 64
        E 0 92 47 64
        E 0 95 47 64
        E 0 9f 38 5a
        E 0 82 47 64
        E 0 83 3b 64
        E 0 85 47 64
        E 0 8f 38 64
        E 0 92 47 64
        E 0 93 44 5a
        E 0 95 47 64
        E 0 9f 34 5a
        E 0 82 47 64
        E 0 83 44 64
        E 0 85 47 64
        E 0 8f 34 64
        E 0 92 47 64
        E 0 93 40 5a
        E 0 95 47 64
        E 0 9f 39 5a
        E 0 82 47 64
        E 0 85 47 64
        E 0 8f 39 64
        E 0 92 45 64
        E 0 95 45 64
        E 0 9f 38 5a
        E 0 82 45 64
        E 0 85 45 64
        E 0 92 47 64
        E 0 95 47 64
        E 0 82 47 64
        E 0 85 47 64
        E 0 8f 38 64
        E 0 92 48 64
        E 0 95 48 64
        E 0 9f 39 5a
        E 0 82 48 64
        E 0 83 40 64
        E 0 85 48 64
        E 0 8f 39 64
        E 0 92 48 64
        E 0 93 3c 5a
        E 0 95 48 64
        E 0 9f 2d 5a
        E 0 82 48 64
        E 0 83 3c 64
        E 0 85 48 64
        E 0 8f 2d 64
        E 0 92 48 64
        E 1 93 3e 5a
        E 0 95 48 64
        E 0 9f 3b 5a
        E 0 82 48 64
        E 0 85 48 64
        E 0 8f 3b 64
        E 0 92 47 64
        E 0 95 47 64
        E 0 9f 3c 5a
        E 0 82 47 64
        E 0 85 47 64
        E 0 92 48 64
        E 0 95 48 64
        E 0 82 48 64
        E 0 85 48 64
        E 0 8f 3c 64
        E 0 92 4a 64
        E 0 95 4a 64
        E 0 9f 3b 5a
        E 0 82 4a 64
        E 0 83 3e 64
        E 0 85 4a 64
        E 0 8f 3b 64
        E 0 92 4a 64
        E 0 93 3e 5a
        E 0 95 4a 64
        E 0 9f 39 5a
        E 0 82 4a 64
        E 0 83 3e 64
        E 0 85 4a 64
        E 0 8f 39 64
        E 0 92 40 64
        E 0 93 3b 5a
        E 0 95 40 64
        E 0 9f 38 5a
        E 0 82 40 64
        E 0 85 40 64
        E 0 8f 38 64
        E 0 92 44 64
        E 0 95 44 64
        E 0 9f 34 5a
        E 0 82 44 64
        E 0 85 44 64
        E 0 8f 34 64
        E 0 92 47 64
        E 0 95 47 64
        E 0 9f 36 5a
        E 0 82 47 64
        E 0 83 3b 64
        E 0 85 47 64
        E 0 8f 36 64
        E 0 92 4a 64
        E 0 93 40 5a
        E 0 95 4a 64
        E 0 9f 38 5a
        E 0 82 4a 64
        E 0 83 40 64
        E 0 85 4a 64
        E 0 8f 38 64
        E 0 92 48 64
        E 0 93 40 5a
        E 0 95 48 64
        E 0 9f 39 5a
        E 0 82 48 64
        E 0 83 40 64
        E 0 85 48 64
        E 0 8f 39 64
        E 0 92 47 64
        E 0 93 40 5a
        E 0 95 47 64
        E 0 9f 30 5a
        E 0 82 47 64
        E 0 85 47 64
        E 1 92 45 64
        E 0 95 45 64
        E 0 82 45 64
        E 0 83 40 64
        E 0 85 45 64
        E 0 8f 30 64
        E 0 92 47 64
        E 0 93 41 5a
        E 0 95 47 64
        E 0 9f 32 5a
        E 0 82 47 64
        E 0 83 41 64
        E 0 85 47 64
        E 0 8f 32 64
        E 0 92 45 64
        E 0 93 3b 5a
        E 0 95 45 64
        E 0 9f 34 5a
        E 0 82 45 64
        E 0 85 45 64
        E 0 92 44 64
        E 0 95 44 64
        E 0 82 44 64
        E 0 83 3b 64
        E 0 85 44 64
        E 0 8f 34 64
        E 1 92 45 64
        E 0 93 3c 5a
        E 0 95 45 64
        E 0 9f 2d 5a
        E 0 83 3c 64
        E 0 8f 2d 64
        E 0 93 40 5a
        E 0 9f 3c 5a
        E 0 82 45 64
        E 0 83 40 64
        E 0 85 45 64
        E 0 8f 3c 64
        E 0 93 3e 5a
        E 0 9f 3b 5a
        E 0 83 3e 64
        E 0 8f 3b 64
        E 0 93 3d 5a
        E 0 9f 3a 5a
        E 0 83 3d 64
        E 0 8f 3a 64
        E 0 93 3e 5a
        E 0 9f 3b 5a
        E 0 83 3e 64
        E 0 8f 3b 64
        E 0 92 47 64
        E 0 93 40 5a
        E 0 95 47 64
        E 1 9f 3d 5a
        E 0 82 47 64
        E 0 83 40 64
        E 0 85 47 64
        E 0 8f 3d 64
        E 0 92 47 64
        E 0 93 42 5a
        E 0 95 47 64
        E 0 9f 3e 5a
        E 0 82 47 64
        E 0 83 42 64
        E 0 85 47 64
        E 0 8f 3e 64
        E 0 92 47 64
        E 0 93 3e 5a
        E 0 95 47 64
        E 0 9f 3b 5a
        E 0 82 47 64
        E 0 83 3e 64
        E 0 85 47 64
        E 0 8f 3b 64
        E 0 92 47 64
        E 0 93 3d 5a
        E 0 95 47 64
        E 0 9f 36 5a
        E 0 82 47 64
        E 0 85 47 64
        E 0 8f 36 64
        E 0 92 46 64
        E 0 95 46 64
        E 0 9f 38 5a
        E 0 82 46 64
        E 0 85 46 64
        E 0 92 47 64
        E 0 95 47 64
        E 0 82 47 64
        E 0 85 47 64
        E 0 8f 38 64
        E 0 92 49 64
        E 0 95 49 64
        E 0 9f 3a 5a
        E 0 82 49 64
        E 0 83 3d 64
        E 0 85 49 64
        E 0 8f 3a 64
        E 0 92 49 64
        E 0 93 46 5a
        E 0 95 49 64
        E 0 9f 36 5a
        E 0 82 49 64
        E 0 83 46 64
        E 0 85 49 64
        E 0 8f 36 64
        E 0 92 49 64
        E 0 93 42 5a
        E 0 95 49 64
        E 0 9f 3b 5a
        E 0 82 49 64
        E 0 85 49 64
        E 0 8f 3b 64
        E 0 92 47 64
        E 1 95 47 64
        E 0 9f 3a 5a
        E 0 82 47 64
        E 0 85 47 64
        E 0 92 49 64
        E 0 95 49 64
        E 0 82 49 64
        E 0 85 49 64
        E 0 8f 3a 64
        E 0 92 4a 64
        E 0 95 4a 64
        E 0 9f 3b 5a
        E 0 82 4a 64
        E 0 83 42 64
        E 0 85 4a 64
        E 0 8f 3b 64
        E 0 92 4a 64
        E 0 93 42 5a
        E 0 95 4a 64
        E 0 9f 2f 5a
        E 0 82 4a 64
        E 0 83 42 64
        E 0 85 4a 64
        E 0 8f 2f 64
        E 0 92 49 64
        E 0 93 3a 5a
        E 0 95 49 64
        E 0 9f 36 5a
        E 0 82 49 64
        E 0 85 49 64
        E 0 8f 36 64
        E 0 92 42 64
        E 0 95 42 64
        E 0 9f 34 5a
        E 0 82 42 64
        E 0 83 3a 64
        E 0 85 42 64
        E 0 8f 34 64
        E 0 9f 32 5a
        E 0 8f 32 64
        E 0 92 42 64
        E 0 93 3e 5a
        E 0 95 42 64
        E 1 9f 2f 5a
        E 0 82 42 64
        E 0 83 3e 64
        E 0 85 42 64
        E 0 8f 2f 64
        E 0 92 44 64
        E 0 93 40 5a
        E 0 95 44 64
        E 0 9f 34 5a
        E 0 82 44 64
        E 0 83 40 64
        E 0 85 44 64
        E 0 8f 34 64
        E 0 92 46 64
        E 0 93 42 5a
        E 0 95 46 64
        E 0 9f 36 5a
        E 0 82 46 64
        E 1 83 42 64
        E 0 85 46 64
        E 0 8f 36 64
        E 0 92 47 64
        E 0 93 43 5a
        E 0 95 47 64
        E 0 9f 37 5a
        E 0 82 47 64
        E 0 83 43 64
        E 0 85 47 64
        E 0 8f 37 64
        E 0 92 49 64
        E 0 93 40 5a
        E 0 95 49 64
        E 0 9f 34 5a
        E 0 82 49 64
        E 0 83 40 64
        E 0 85 49 64
        E 0 8f 34 64
        E 0 92 42 64
        E 0 93 42 5a
        E 0 95 42 64
        E 0 9f 36 5a
        E 0 82 42 64
        E 0 83 42 64
        E 0 85 42 64
        E 0 8f 36 64
        E 0 92 49 64
        E 0 93 42 5a
        E 0 95 49 64
        E 0 9f 2a 5a
        E 0 82 49 64
        E 0 83 42 64
        E 0 85 49 64
        E 0 8f 2a 64
        E 0 92 47 64
        E 0 93 3b 5a
        E 0 95 47 64
        E 0 9f 2f 5a
        E 38404 82 47 64
        E 0 83 3b 64
        E 0 85 47 64
        E 0 8f 2f 64
        E 0 97 48 64
        E 0 9e 48 64
        E 0 9f 30 5a
        E 0 87 48 64
        E 0 8e 48 64
        E 0 97 43 64
        E 0 9e 43 64
        E 0 87 43 64
        E 0 8e 43 64
        E 0 97 43 64
        E 0 9e 43 64
        E 0 87 43 64
        E 0 8e 43 64
        E 0 96 4c 64
        E 0 9e 4c 64
        E 0 86 4c 64
        E 0 8e 4c 64
        E 0 96 48 64
        E 0 9e 48 64
        E 0 86 48 64
        E 1 8e 48 64
        E 0 96 48 64
        E 0 9e 48 64
        E 0 86 48 64
        E 0 8e 48 64
        E 0 97 43 64
        E 0 9e 43 64
        E 0 87 43 64
        E 0 8e 43 64
        E 0 97 43 64
        E 0 9e 43 64
        E 1 87 43 64
        E 0 8e 43 64
        E 3 97 48 64
        E 0 9e 48 64
        E 0 87 48 64
        E 0 8e 48 64
        E 0 8f 30 64
        E 0 97 45 64
        E 0 9e 45 64
        E 0 9f 35 5a
        E 1 87 45 64
        E 0 8e 45 64
        E 0 96 41 64
        E 0 9e 41 64
        E 0 86 41 64
        E 0 8e 41 64
        E 0 96 45 64
        E 0 9e 45 64
        E 0 86 45 64
        E 0 8e 45 64
        E 0 96 45 64
        E 0 9e 45 64
        E 0 86 45 64
        E 0 8e 45 64
        E 0 8f 35 64
        E 0 97 48 64
        E 0 9e 48 64
        E 0 9f 35 5a
        E 0 87 48 64
        E 0 8e 48 64
        E 0 97 48 64
        E 0 9e 48 64
        E 0 87 48 64
        E 0 8e 48 64
        E 0 97 4a 64
        E 0 9e 4a 64
        E 0 87 4a 64
        E 0 8e 4a 64
        E 0 8f 35 64
        E 0 97 46 66
        E 0 9e 46 66
        E 0 9f 2e 5b
        E 0 87 46 66
        E 0 8e 46 66
        E 0 8f 2e 66
        E 0 97 41 64
        E 0 9e 41 64
        E 0 9f 2e 5b
        E 0 87 41 64
        E 0 8e 41 64
        E 1 97 41 64
        E 0 9e 41 64
        E 0 87 41 64
        E 0 8e 41 64
        E 0 97 41 64
        E 0 9e 41 64
        E 0 87 41 64
        E 0 8e 41 64
        E 0 97 46 66
        E 0 9e 46 66
        E 0 87 46 66
        E 0 8e 46 66
        E 0 97 48 64
        E 0 9e 48 64
        E 0 87 48 64
        E 0 8e 48 64
        E 0 8f 2e 66
        E 0 97 4a 64
        E 0 9e 4a 64
        E 0 9f 36 5a
        E 0 87 4a 64
        E 0 8e 4a 64
        E 0 97 4a 64
        E 0 9e 4a 64
        E 0 87 4a 64
        E 0 8e 4a 64
        E 0 97 4a 64
        E 0 9e 4a 64
        E 0 87 4a 64
        E 0 8e 4a 64
        E 0 8f 36 64
        E 0 97 45 64
        E 0 9e 45 64
        E 0 9f 36 5a
        E 0 87 45 64
        E 0 8e 45 64
        E 0 97 45 64
        E 0 9e 45 64
        E 0 87 45 64
        E 0 8e 45 64
        E 0 97 48 64
        E 0 9e 48 64
        E 1 87 48 64
        E 0 8e 48 64
        E 0 97 46 66
        E 0 9e 46 66
        E 0 87 46 66
        E 0 8e 46 66
        E 0 8f 36 64
        E 0 97 43 64
        E 0 9e 43 64
        E 0 9f 37 5a
        E 0 87 43 64
        E 0 8e 43 64
        E 0 97 43 64
        E 0 9e 43 64
        E 0 87 43 64
        E 0 8e 43 64
        E 0 97 4a 64
        E 0 9e 4a 64
        E 0 87 4a 64
        E 0 8e 4a 64
        E 0 97 4a 64
        E 0 9e 4a 64
        E 0 87 4a 64
        E 0 8e 4a 64
        E 0 97 48 64
        E 0 9e 48 64
        E 0 87 48 64
        E 0 8e 48 64
        E 0 8f 37 64
        E 0 97 48 64
        E 0 9e 48 64
        E 0 9f 34 5a
        E 0 87 48 64
        E 0 8e 48 64
        E 1 97 48 64
        E 0 9e 48 64
        E 0 87 48 64
        E 0 8e 48 64
        E 0 97 48 64
        E 0 9e 48 64
        E 0 87 48 64
        E 0 8e 48 64
        E 0 97 43 64
        E 0 9e 43 64
        E 0 87 43 64
        E 0 8e 43 64
        E 0 97 45 64
        E 0 9e 45 64
        E 0 87 45 64
        E 1 8e 45 64
        E 0 8f 34 64
        E 0 97 41 64
        E 0 9e 41 64
        E 0 9f 35 5a
        E 0 87 41 64
        E 0 8e 41 64
        E 0 97 41 64
        E 1 9e 41 64
        E 0 87 41 64
        E 0 8e 41 64
        E 0 97 41 64
        E 0 9e 41 64
        E 0 87 41 64
        E 0 8e 41 64
        E 0 8f 35 64
        E 0 97 45 64
        E 0 9e 45 64
        E 0 9f 35 5a
        E 0 87 45 64
        E 0 8e 45 64
        E 0 97 45 64
        E 0 9e 45 64
        E 0 87 45 64
        E 0 8e 45 64
        E 1 97 45 64
        E 0 9e 45 64
        E 0 87 45 64
        E 0 8e 45 64
        E 0 97 47 64
        E 0 9e 47 64
        E 0 87 47 64
        E 0 8e 47 64
        E 0 97 47 64
        E 0 9e 47 64
        E 0 87 47 64
        E 0 8e 47 64
        E 0 97 47 64
        E 0 9e 47 64
        E 0 87 47 64
        E 0 8e 47 64
        E 1 97 4a 64
        E 0 9e 4a 64
        E 0 87 4a 64
        E 0 8e 4a 64
        E 0 97 4a 64
        E 0 9e 4a 64
        E 0 87 4a 64
        E 0 8e 4a 64
        E 0 8f 35 64
        E 0 97 47 64
        E 1 9e 47 64
        E 0 9f 35 5a
        E 0 87 47 64
        E 0 8e 47 64
        E 0 97 45 64
        E 0 9e 45 64
        E 0 87 45 64
        E 0 8e 45 64
        E 0 97 43 64
        E 0 9e 43 64
        E 0 87 43 64
        E 0 8e 43 64
        E 0 8f 35 64
        E 0 97 48 64
        E 0 9e 48 64
        E 0 9f 34 5a
        E 0 87 48 64
        E 0 8e 48 64
        E 1 97 48 64
        E 0 9e 48 64
        E 0 87 48 64
        E 0 8e 48 64
        E 0 97 4c 64
        E 1 9e 4c 64
        E 0 87 4c 64
        E 0 8e 4c 64
        E 0 97 4c 64
        E 0 9e 4c 64
        E 0 87 4c 64
        E 0 8e 4c 64
        E 0 97 4c 64
        E 0 9e 4c 64
        E 0 87 4c 64
        E 0 8e 4c 64
        E 0 8f 34 64
        E 0 97 49 64
        E 0 9e 49 64
        E 0 9f 37 5a
        E 0 87 49 64
        E 0 8e 49 64
        E 1 97 49 64
        E 0 9e 49 64
        E 0 87 49 64
        E 0 8e 49 64
        E 0 97 49 64
        E 0 9e 49 64
        E 0 87 49 64
        E 0 8e 49 64
        E 0 97 49 64
        E 0 9e 49 64
        E 0 87 49 64
        E 0 8e 49 64
        E 0 97 49 64
        E 0 9e 49 64
        E 0 87 49 64
        E 0 8e 49 64
        E 0 97 49 64
        E 0 9e 49 64
        E 0 87 49 64
        E 0 8e 49 64
        E 0 97 4a 64
        E 0 9e 4a 64
        E 0 87 4a 64
        E 0 8e 4a 64
        E 0 8f 37 64
        E 1 97 45 64
        E 0 9e 45 64
        E 0 9f 39 5a
        E 0 87 45 64
        E 0 8e 45 64
        E 0 97 45 64
        E 0 9e 45 64
        E 0 87 45 64
        E 0 8e 45 64
        E 0 8f 39 64
        E 0 9f 32 5a
        E 0 8f 32 64
        E 0 96 41 64
        E 0 9e 41 64
        E 0 9f 32 5a
        E 0 86 41 64
        E 0 8e 41 64
        E 0 96 41 64
        E 0 9e 41 64
        E 0 86 41 64
        E 0 8e 41 64
        E 0 96 43 64
        E 1 9e 43 64
        E 35040 86 43 64
        E 0 8e 43 64
        E 0 8f 32 64
        E 0 96 45 64
        E 0 9e 45 64
        E 0 9f 32 5a
        E 0 86 45 64
        E 0 8e 45 64
        E 0 96 45 64
        E 0 9e 45 64
        E 0 86 45 64
        E 0 8e 45 64
        E 0 96 45 64
        E 0 9e 45 64
        E 0 86 45 64
        E 0 8e 45 64
        E 0 96 45 64
        E 0 9e 45 64
        E 0 86 45 64
        E 0 8e 45 64
        E 0 96 46 66
        E 0 9e 46 66
        E 0 86 46 66
        E 0 8e 46 66
        E 0 8f 32 64
        E 0 96 48 64
        E 0 9e 48 64
        E 0 9f 36 5a
        E 0 86 48 64
        E 1 8e 48 64
        E 0 96 48 64
        E 0 9e 48 64
        E 0 86 48 64
        E 0 8e 48 64
        E 0 96 45 64
        E 0 9e 45 64
        E 0 86 45 64
        E 0 8e 45 64
        E 0 96 45 64
        E 0 9e 45 64
        E 0 86 45 64
        E 0 8e 45 64
        E 0 96 45 64
        E 0 9e 45 64
        E 0 86 45 64
        E 0 8e 45 64
        E 0 96 43 64
        E 0 9e 43 64
        E 0 86 43 64
        E 0 8e 43 64
        E 0 8f 36 64
        E 0 96 42 64
        E 0 9e 42 64
        E 0 9f 30 5a
        E 0 86 42 64
        E 0 8e 42 64
        E 0 96 42 64
        E 0 9e 42 64
        E 0 86 42 64
        E 0 8e 42 64
        E 0 96 45 64
        E 1 9e 45 64
        E 0 86 45 64
        E 0 8e 45 64
        E 0 96 46 66
        E 0 9e 46 66
        E 0 86 46 66
        E 0 8e 46 66
        E 0 96 48 64
        E 0 9e 48 64
        E 0 86 48 64
        E 0 8e 48 64
        E 0 96 48 64
        E 0 9e 48 64
        E 0 86 48 64
        E 0 8e 48 64
        E 0 96 46 66
        E 0 9e 46 66
        E 0 86 46 66
        E 0 8e 46 66
        E 0 8f 30 64
        E 0 96 43 64
        E 0 9e 43 64
        E 0 9f 2b 5a
        E 0 86 43 64
        E 0 8e 43 64
        E 0 97 46 66
        E 0 9e 46 66
        E 0 87 46 66
        E 1 8e 46 66
        E 0 97 4a 64
        E 0 9e 4a 64
        E 0 87 4a 64
        E 0 8e 4a 64
        E 0 96 3e 64
        E 0 9e 3e 64
        E 0 86 3e 64
        E 0 8e 3e 64
        E 0 96 3e 64
        E 0 9e 3e 64
        E 0 86 3e 64
        E 0 8e 3e 64
        E 0 96 3e 64
        E 0 9e 3e 64
        E 0 86 3e 64
        E 0 8e 3e 64
        E 0 8f 2b 64
        E 0 96 43 64
        E 0 9e 43 64
        E 0 9f 2b 5a
        E 0 86 43 64
        E 0 8e 43 64
        E 0 96 43 64
        E 0 9e 43 64
        E 0 86 43 64
        E 0 8e 43 64
        E 0 96 43 64
        E 0 9e 43 64
        E 0 86 43 64
        E 0 8e 43 64
        E 0 96 45 64
        E 0 9e 45 64
        E 0 86 45 64
        E 0 8e 45 64
        E 0 8f 2b 64
        E 0 96 45 64
        E 0 9e 45 64
        E 0 9f 31 5a
        E 0 86 45 64
        E 0 8e 45 64
        E 0 96 45 64
        E 0 9e 45 64
        E 0 86 45 64
        E 0 8e 45 64
        E 0 8f 31 64
        E 0 96 45 64
        E 0 9e 45 64
        E 0 9f 31 5a
        E 0 86 45 64
        E 0 8e 45 64
        E 0 96 40 64
        E 0 9e 40 64
        E 0 86 40 64
        E 1 8e 40 64
        E 0 96 40 64
        E 0 9e 40 64
        E 0 86 40 64
        E 0 8e 40 64
        E 0 96 43 64
        E 0 9e 43 64
        E 1 86 43 64
        E 0 8e 43 64
        E 0 96 41 64
        E 0 9e 41 64
        E 0 86 41 64
        E 0 8e 41 64
        E 0 8f 31 64
        E 1 96 3e 64
        E 0 9e 3e 64
        E 0 9f 32 5a
        E 0 86 3e 64
        E 0 8e 3e 64
        E 0 96 45 64
        E 0 9e 45 64
        E 1 86 45 64
        E 0 8e 45 64
        E 0 96 45 64
        E 0 9e 45 64
        E 0 86 45 64
        E 0 8e 45 64
        E 0 96 47 64
        E 0 9e 47 64
        E 0 86 47 64
        E 0 8e 47 64
        E 0 8f 32 64
        E 0 96 44 64
        E 0 9e 44 64
        E 0 9f 32 5a
        E 3 86 44 64
        E 1 8e 44 64
        E 0 96 44 64
        E 0 9e 44 64
        E 0 86 44 64
        E 0 8e 44 64
        E 0 96 40 64
        E 0 9e 40 64
        E 0 86 40 64
        E 0 8e 40 64
        E 0 96 47 64
        E 0 9e 47 64
        E 0 86 47 64
        E 0 8e 47 64
        E 0 96 47 64
        E 1 9e 47 64
        E 2 86 47 64
        E 0 8e 47 64
        E 2 96 47 64
        E 3 9e 47 64
        E 0 86 47 64
        E 0 8e 47 64
        E 0 96 48 64
        E 0 9e 48 64
        E 0 86 48 64
        E 0 8e 48 64
        E 0 8f 32 64
        E 0 96 45 64
        E 0 9e 45 64
        E 0 9f 2d 5a
        E 0 86 45 64
        E 0 8e 45 64
        E 0 96 45 64
        E 0 9e 45 64
        E 0 86 45 64
        E 0 8e 45 64
        E 0 96 48 64
        E 0 9e 48 64
        E 0 86 48 64
        E 0 8e 48 64
        E 0 96 48 64
        E 0 9e 48 64
        E 1 86 48 64
        E 0 8e 48 64
        E 0 96 47 64
        E 0 9e 47 64
        E 0 86 47 64
        E 0 8e 47 64
        E 0 8f 2d 64
        E 0 96 47 64
        E 0 9e 47 64
        E 0 9f 33 5a
        E 0 86 47 64
        E 0 8e 47 64
        E 0 96 47 64
        E 0 9e 47 64
        E 0 86 47 64
        E 0 8e 47 64
        E 0 96 47 64
        E 1 9e 47 64
        E 0 86 47 64
        E 0 8e 47 64
        E 1 96 48 64
        E 0 9e 48 64
        E 0 86 48 64
        E 0 8e 48 64
        E 0 96 45 64
        E 0 9e 45 64
        E 0 86 45 64
        E 0 8e 45 64
        E 0 96 45 64
        E 0 9e 45 64
        E 0 86 45 64
        E 0 8e 45 64
        E 0 96 43 64
        E 0 9e 43 64
        E 0 86 43 64
        E 0 8e 43 64
        E 0 8f 33 64
        E 0 96 43 64
        E 0 9e 43 64
        E 0 9f 34 5a
        E 0 86 43 64
        E 0 8e 43 64
        E 1 96 43 64
        E 0 9e 43 64
        E 0 86 43 64
        E 0 8e 43 64
        E 0 97 4c 64
        E 0 9e 4c 64
        E 0 87 4c 64
        E 0 8e 4c 64
        E 0 97 47 64
        E 0 9e 47 64
        E 0 87 47 64
        E 0 8e 47 64
        E 0 97 47 64
        E 0 9e 47 64
        E 0 87 47 64
        E 0 8e 47 64
        E 0 97 43 64
        E 0 9e 43 64
        E 1280 87 43 64
        E 0 8e 43 64
        E 0 8f 34 64
        E 0 97 48 64
        E 0 9e 48 64
        E 0 9f 2d 5a
        E 0 87 48 64
        E 0 8e 48 64
        E 0 97 48 64
        E 0 9e 48 64
        E 0 87 48 64
        E 0 8e 48 64
        E 38403 97 48 64
        E 0 9e 48 64
        E 0 87 48 64
        E 0 8e 48 64
        E 0 97 48 64
        E 0 9e 48 64
        E 0 87 48 64
        E 0 8e 48 64
        E 0 97 48 64
        E 0 9e 48 64
        E 0 87 48 64
        E 0 8e 48 64
        E 0 97 4a 64
        E 0 9e 4a 64
        E 0 87 4a 64
        E 0 8e 4a 64
        E 0 97 4c 64
        E 0 9e 4c 64
        E 0 87 4c 64
        E 0 8e 4c 64
        E 0 8f 2d 64
        E 0 97 47 64
        E 0 9e 47 64
        E 0 9f 2f 5a
        E 0 87 47 64
        E 1 8e 47 64
        E 0 8f 2f 64
        E 0 9f 34 5a
        E 0 8f 34 64
        E 0 96 40 64
        E 0 9e 40 64
        E 0 9f 34 5a
        E 0 86 40 64
        E 0 8e 40 64
        E 0 96 43 64
        E 0 9e 43 64
        E 0 86 43 64
        E 0 8e 43 64
        E 0 96 45 64
        E 0 9e 45 64
        E 0 8f 34 64
        E 0 86 45 64
        E 0 8e 45 64
        E 0 9f 34 5a
        E 0 96 47 64
        E 0 9e 47 64
        E 0 86 47 64
        E 0 8e 47 64
        E 0 96 47 64
        E 0 9e 47 64
        E 0 86 47 64
        E 0 8e 47 64
        E 0 96 47 64
        E 0 9e 47 64
        E 0 86 47 64
        E 0 8e 47 64
        E 0 96 47 64
        E 0 9e 47 64
        E 0 86 47 64
        E 0 8e 47 64
        E 0 96 43 64
        E 0 9e 43 64
        E 0 86 43 64
        E 0 8e 43 64
        E 0 96 43 64
        E 0 9e 43 64
        E 0 86 43 64
        E 0 8e 43 64
        E 0 96 43 64
        E 0 9e 43 64
        E 0 86 43 64
        E 0 8e 43 64
        E 0 96 42 64
        E 0 9e 42 64
        E 0 86 42 64
        E 0 8e 42 64
        E 0 8f 34 64
        E 0 96 42 64
        E 0 9e 42 64
        E 0 9f 2e 5a
        E 0 86 42 64
        E 0 8e 42 64
        E 0 96 42 64
        E 0 9e 42 64
        E 0 86 42 64
        E 0 8e 42 64
        E 0 96 46 64
        E 0 9e 46 64
        E 0 86 46 64
        E 0 8e 46 64
        E 0 96 44 64
        E 0 9e 44 64
        E 0 86 44 64
        E 0 8e 44 64
        E 0 96 42 64
        E 0 9e 42 64
        E 0 86 42 64
        E 0 8e 42 64
        E 0 8f 2e 64
        E 0 96 47 64
        E 0 9e 47 64
        E 0 9f 32 5a
        E 0 86 47 64
        E 0 8e 47 64
        E 0 96 47 64
        E 1 9e 47 64
        E 0 86 47 64
        E 0 8e 47 64
        E 0 8f 32 64
        E 0 96 47 64
        E 0 9e 47 64
        E 0 9f 32 5a
        E 0 86 47 64
        E 0 8e 47 64
        E 0 96 42 64
        E 0 9e 42 64
        E 0 86 42 64
        E 0 8e 42 64
        E 0 96 42 64
        E 0 9e 42 64
        E 0 86 42 64
        E 0 8e 42 64
        E 0 96 42 64
        E 0 9e 42 64
        E 0 86 42 64
        E 0 8e 42 64
        E 0 96 44 64
        E 0 9e 44 64
        E 0 86 44 64
        E 0 8e 44 64
        E 0 8f 32 64
        E 0 96 41 63
        E 0 9e 41 63
        E 0 9f 2f 5a
        E 0 86 41 63
        E 0 8e 41 63
        E 0 96 41 63
        E 0 9e 41 63
        E 0 86 41 63
        E 0 8e 41 63
        E 0 96 49 64
        E 0 9e 49 64
        E 0 86 49 64
        E 0 8e 49 64
        E 0 8f 2f 64
        E 0 96 45 64
        E 0 9e 45 64
        E 0 9f 36 5a
        E 0 86 45 64
        E 0 8e 45 64
        E 1 96 45 64
        E 0 9e 45 64
        E 0 86 45 64
        E 0 8e 45 64
        E 0 96 42 64
        E 0 9e 42 64
        E 0 86 42 64
        E 0 8e 42 64
        E 0 8f 36 64
        E 0 96 47 64
        E 0 9e 47 64
        E 0 9f 32 5a
        E 0 86 47 64
        E 0 8e 47 64
        E 0 96 47 64
        E 0 9e 47 64
        E 0 86 47 64
        E 0 8e 47 64
        E 0 96 4a 64
        E 0 9e 4a 64
        E 0 86 4a 64
        E 0 8e 4a 64
        E 0 96 4a 64
        E 0 9e 4a 64
        E 0 86 4a 64
        E 0 8e 4a 64
        E 0 8f 32 64
        E 0 96 47 64
        E 0 9e 47 64
        E 0 9f 32 5a
        E 0 86 47 64
        E 0 8e 47 64
        E 0 96 47 64
        E 0 9e 47 64
        E 0 86 47 64
        E 0 8e 47 64
        E 0 96 45 64
        E 0 9e 45 64
        E 0 86 45 64
        E 0 8e 45 64
        E 0 8f 32 64
        E 0 96 42 64
        E 0 9e 42 64
        E 0 9f 31 5a
        E 0 86 42 64
        E 0 8e 42 64
        E 0 8f 31 64
        E 0 9f 2a 5a
        E 0 8f 2a 64
        E 0 9f 2a 5a
        E 0 97 49 64
        E 0 9e 49 64
        E 0 87 49 64
        E 0 8e 49 64
        E 0 97 49 64
        E 0 9e 49 64
        E 0 87 49 64
        E 0 8e 49 64
        E 0 97 49 64
        E 0 9e 49 64
        E 0 87 49 64
        E 0 8e 49 64
        E 0 97 45 64
        E 0 9e 45 64
        E 1 87 45 64
        E 0 8e 45 64
        E 0 97 45 64
        E 0 9e 45 64
        E 0 87 45 64
        E 0 8e 45 64
        E 0 8f 2a 64
        E 0 97 45 64
        E 0 9e 45 64
        E 0 9f 2a 5a
        E 0 87 45 64
        E 0 8e 45 64
        E 0 97 45 64
        E 0 9e 45 64
        E 0 87 45 64
        E 0 8e 45 64
        E 0 97 45 64
        E 0 9e 45 64
        E 0 87 45 64
        E 0 8e 45 64
        E 0 97 45 64
        E 0 9e 45 64
        E 0 87 45 64
        E 0 8e 45 64
        E 0 97 45 64
        E 0 9e 45 64
        E 0 87 45 64
        E 0 8e 45 64
        E 0 97 4a 64
        E 0 9e 4a 64
        E 0 87 4a 64
        E 0 8e 4a 64
        E 0 97 4a 64
        E 0 9e 4a 64
        E 0 87 4a 64
        E 0 8e 4a 64
        E 0 97 4a 64
        E 0 9e 4a 64
        E 0 87 4a 64
        E 0 8e 4a 64
        E 0 97 4a 64
        E 0 9e 4a 64
        E 0 87 4a 64
        E 0 8e 4a 64
        E 0 97 4c 64
        E 0 9e 4c 64
        E 0 87 4c 64
        E 0 8e 4c 64
        E 0 8f 2a 64
        E 0 97 48 64
        E 0 9e 48 64
        E 0 9f 2a 5a
        E 0 87 48 64
        E 0 8e 48 64
        E 0 97 48 64
        E 0 9e 48 64
        E 0 87 48 64
        E 0 8e 48 64
        E 0 97 45 64
        E 0 9e 45 64
        E 0 87 45 64
        E 0 8e 45 64
        E 0 97 48 64
        E 0 9e 48 64
        E 0 87 48 64
        E 0 8e 48 64
        E 0 97 47 64
        E 0 9e 47 64
        E 0 87 47 64
        E 0 8e 47 64
        E 0 8f 2a 64
        E 0 97 43 64
        E 0 9e 43 64
        E 0 9f 2b 5a
        E 0 87 43 64
        E 0 8e 43 64
        E 0 97 43 64
        E 0 9e 43 64
        E 0 87 43 64
        E 0 8e 43 64
        E 0 97 4a 64
        E 0 9e 4a 64
        E 0 87 4a 64
        E 0 8e 4a 64
        E 0 8f 2b 64
        E 0 97 47 64
        E 0 9e 47 64
        E 0 9f 2b 5a
        E 0 87 47 64
        E 0 8e 47 64
        E 0 97 47 64
        E 0 9e 47 64
        E 0 87 47 64
        E 0 8e 47 64
        E 0 97 47 64
        E 0 9e 47 64
        E 38404 87 47 64
        E 0 8e 47 64
        E 0 97 47 64
        E 0 9e 47 64
        E 0 87 47 64
        E 0 8e 47 64
        E 0 97 48 64
        E 0 9e 48 64
        E 0 87 48 64
        E 0 8e 48 64
        E 0 97 4a 64
        E 0 9e 4a 64
        E 0 87 4a 64
        E 0 8e 4a 64
        E 0 97 4a 64
        E 0 9e 4a 64
        E 0 87 4a 64
        E 0 8e 4a 64
        E 0 97 4a 64
        E 0 9e 4a 64
        E 0 87 4a 64
        E 0 8e 4a 64
        E 0 97 4d 64
        E 0 9e 4d 64
        E 0 87 4d 64
        E 0 8e 4d 64
        E 0 97 4c 64
        E 0 9e 4c 64
        E 0 87 4c 64
        E 0 8e 4c 64
        E 0 8f 2b 64
        E 0 97 48 64
        E 0 9e 48 64
        E 0 9f 30 5a
        E 0 87 48 64
        E 0 8e 48 64
        E 0 97 48 64
        E 0 9e 48 64
        E 0 87 48 64
        E 0 8e 48 64
        E 0 97 48 64
        E 0 9e 48 64
        E 0 87 48 64
        E 0 8e 48 64
        E 0 8f 30 64
        E 0 97 47 64
        E 0 9e 47 64
        E 1 9f 2c 5a
        E 0 87 47 64
        E 0 8e 47 64
        E 0 97 47 64
        E 0 9e 47 64
        E 0 87 47 64
        E 0 8e 47 64
        E 0 97 44 64
        E 0 9e 44 64
        E 0 87 44 64
        E 0 8e 44 64
        E 0 8f 2c 64
        E 0 97 47 64
        E 0 9e 47 64
        E 0 9f 2c 5a
        E 0 87 47 64
        E 0 8e 47 64
        E 0 97 47 64
        E 0 9e 47 64
        E 0 87 47 64
        E 0 8e 47 64
        E 0 97 47 64
        E 0 9e 47 64
        E 0 87 47 64
        E 0 8e 47 64
        E 0 97 48 64
        E 0 9e 48 64
        E 0 87 48 64
        E 0 8e 48 64
        E 0 8f 2c 64
        E 0 97 45 64
        E 0 9e 45 64
        E 0 9f 2d 5a
        E 0 87 45 64
        E 0 8e 45 64
        E 0 97 45 64
        E 0 9e 45 64
        E 0 87 45 64
        E 0 8e 45 64
        E 0 97 45 64
        E 0 9e 45 64
        E 0 87 45 64
        E 0 8e 45 64
        E 0 97 45 64
        E 0 9e 45 64
        E 0 87 45 64
        E 0 8e 45 64
        E 0 97 45 64
        E 0 9e 45 64
        E 0 87 45 64
        E 0 8e 45 64
        E 0 8f 2d 64
        E 0 97 42 64
        E 0 9e 42 64
        E 1 9f 30 5a
        E 0 87 42 64
        E 0 8e 42 64
        E 0 97 42 64
        E 0 9e 42 64
        E 0 87 42 64
        E 0 8e 42 64
        E 0 97 48 64
        E 0 9e 48 64
        E 0 87 48 64
        E 0 8e 48 64
        E 0 97 48 64
        E 0 9e 48 64
        E 0 87 48 64
        E 0 8e 48 64
        E 0 97 47 64
        E 1 9e 47 64
        E 0 87 47 64
        E 0 8e 47 64
        E 0 8f 30 64
        E 0 97 43 64
        E 0 9e 43 64
        E 0 9f 2b 5a
        E 0 87 43 64
        E 0 8e 43 64
        E 0 8f 2b 64
        E 0 97 4a 64
        E 0 9e 4a 64
        E 0 9f 2b 5a
        E 0 87 4a 64
        E 0 8e 4a 64
        E 0 97 43 64
        E 0 9e 43 64
        E 0 87 43 64
        E 0 8e 43 64
        E 0 97 43 64
        E 0 9e 43 64
        E 0 87 43 64
        E 0 8e 43 64
        E 0 97 43 64
        E 0 9e 43 64
        E 0 87 43 64
        E 0 8e 43 64
        E 0 97 45 64
        E 0 9e 45 64
        E 0 87 45 64
        E 0 8e 45 64
        E 0 8f 2b 64
        E 0 97 46 66
        E 0 9e 46 66
        E 0 9f 34 5a
        E 0 87 46 66
        E 0 8e 46 66
        E 0 97 46 66
        E 0 9e 46 66
        E 0 87 46 66
        E 0 8e 46 66
        E 0 97 4a 64
        E 0 9e 4a 64
        E 0 87 4a 64
        E 0 8e 4a 64
        E 0 8f 34 64
        E 0 97 46 66
        E 0 9e 46 66
        E 0 9f 34 5a
        E 0 87 46 66
        E 0 8e 46 66
        E 0 97 46 66
        E 0 9e 46 66
        E 0 87 46 66
        E 0 8e 46 66
        E 0 97 46 66
        E 0 9e 46 66
        E 0 87 46 66
        E 0 8e 46 66
        E 0 97 45 64
        E 0 9e 45 64
        E 0 87 45 64
        E 0 8e 45 64
        E 0 8f 34 64
        E 0 97 41 64
        E 0 9e 41 64
        E 1 9f 35 5a
        E 0 87 41 64
        E 0 8e 41 64
        E 0 96 48 64
        E 0 9e 48 64
        E 0 86 48 64
        E 0 8e 48 64
        E 0 96 48 64
        E 0 9e 48 64
        E 0 86 48 64
        E 0 8e 48 64
        E 0 96 48 64
        E 0 9e 48 64
        E 0 86 48 64
        E 0 8e 48 64
        E 0 8f 35 64
        E 0 96 45 64
        E 0 9e 45 64
        E 0 9f 35 5a
        E 0 86 45 64
        E 0 8e 45 64
        E 0 96 45 64
        E 0 9e 45 64
        E 0 86 45 64
        E 0 8e 45 64
        E 0 96 41 64
        E 0 9e 41 64
        E 0 86 41 64
        E 0 8e 41 64
        E 0 8f 35 64
        E 0 96 45 64
        E 0 9e 45 64
        E 0 9f 33 5b
        E 0 86 45 64
        E 0 8e 45 64
        E 0 96 45 64
        E 0 9e 45 64
        E 0 86 45 64
        E 0 8e 45 64
        E 0 8f 33 66
        E 0 96 45 64
        E 0 9e 45 64
        E 0 9f 33 5b
        E 0 86 45 64
        E 0 8e 45 64
        E 0 96 45 64
        E 0 9e 45 64
        E 0 86 45 64
        E 0 8e 45 64
        E 0 96 45 64
        E 0 9e 45 64
        E 0 86 45 64
        E 0 8e 45 64
        E 0 96 45 64
        E 0 9e 45 64
        E 0 86 45 64
        E 0 8e 45 64
        E 0 96 46 66
        E 0 9e 46 66
        E 0 86 46 66
        E 0 8e 46 66
        E 0 8f 33 66
        E 0 96 41 64
        E 0 9e 41 64
        E 0 9f 32 5a
        E 0 86 41 64
        E 0 8e 41 64
        E 0 96 41 64
        E 0 9e 41 64
        E 0 86 41 64
        E 0 8e 41 64
        E 0 97 46 66
        E 1 9e 46 66
        E 0 87 46 66
        E 0 8e 46 66
        E 0 8f 32 64
        E 0 96 41 64
        E 0 9e 41 64
        E 0 9f 32 5a
        E 0 86 41 64
        E 0 8e 41 64
        E 0 96 43 64
        E 0 9e 43 64
        E 0 86 43 64
        E 0 8e 43 64
        E 0 96 44 64
        E 0 9e 44 64
        E 0 86 44 64
        E 0 8e 44 64
        E 0 96 44 64
        E 0 9e 44 64
        E 0 86 44 64
        E 0 8e 44 64
        E 0 96 44 64
        E 0 9e 44 64
        E 0 86 44 64
        E 0 8e 44 64
        E 0 96 43 64
        E 0 9e 43 64
        E 0 86 43 64
        E 0 8e 43 64
        E 0 8f 32 64
        E 0 96 3f 66
        E 0 9e 3f 66
        E 0 9f 33 5b
        E 0 86 3f 66
        E 0 8e 3f 66
        E 0 96 3f 66
        E 0 9e 3f 66
        E 0 86 3f 66
        E 0 8e 3f 66
        E 0 8f 33 66
        E 0 97 48 64
        E 0 9e 48 64
        E 0 9f 33 5b
        E 0 87 48 64
        E 0 8e 48 64
        E 0 97 43 64
        E 0 9e 43 64
        E 0 87 43 64
        E 0 8e 43 64
        E 0 97 43 64
        E 0 9e 43 64
        E 0 87 43 64
        E 0 8e 43 64
        E 0 97 43 64
        E 0 9e 43 64
        E 0 87 43 64
        E 0 8e 43 64
        E 0 8f 33 66
        E 0 97 42 64
        E 0 9e 42 64
        E 0 9f 32 5a
        E 0 87 42 64
        E 0 8e 42 64
        E 0 97 45 64
        E 0 9e 45 64
        E 0 87 45 64
        E 0 8e 45 64
        E 0 97 45 64
        E 0 9e 45 64
        E 0 87 45 64
        E 0 8e 45 64
        E 0 96 45 64
        E 0 9e 45 64
        E 0 86 45 64
        E 0 8e 45 64
        E 0 8f 32 64
        E 0 96 3e 64
        E 0 9e 3e 64
        E 0 9f 32 5a
        E 0 86 3e 64
        E 0 8e 3e 64
        E 0 96 3e 64
        E 1 9e 3e 64
        E 0 86 3e 64
        E 0 8e 3e 64
        E 0 97 46 66
        E 0 9e 46 66
        E 38403 87 46 66
        E 0 8e 46 66
        E 0 97 46 66
        E 0 9e 46 66
        E 0 87 46 66
        E 0 8e 46 66
        E 0 97 41 64
        E 0 9e 41 64
        E 0 87 41 64
        E 0 8e 41 64
        E 0 8f 32 64
        E 0 97 43 64
        E 0 9e 43 64
        E 0 9f 30 5a
        E 0 87 43 64
        E 0 8e 43 64
        E 0 97 43 64
        E 0 9e 43 64
        E 0 87 43 64
        E 0 8e 43 64
        E 0 96 48 64
        E 0 9e 48 64
        E 0 86 48 64
        E 0 8e 48 64
        E 0 96 48 64
        E 0 9e 48 64
        E 0 86 48 64
        E 0 8e 48 64
        E 0 96 48 64
        E 0 9e 48 64
        E 0 86 48 64
        E 0 8e 48 64
        E 0 8f 30 64
        E 0 96 43 64
        E 0 9e 43 64
        E 0 9f 30 5a
        E 0 86 43 64
        E 0 8e 43 64
        E 0 96 43 64
        E 0 9e 43 64
        E 0 86 43 64
        E 0 8e 43 64
        E 0 96 43 64
        E 1 9e 43 64
        E 0 86 43 64
        E 0 8e 43 64
        E 0 96 45 64
        E 0 9e 45 64
        E 0 86 45 64
        E 0 8e 45 64
        E 0 96 46 66
        E 0 9e 46 66
        E 0 86 46 66
        E 0 8e 46 66
        E 0 96 46 66
        E 1 9e 46 66
        E 0 86 46 66
        E 0 8e 46 66
        E 0 96 45 64
        E 0 9e 45 64
        E 0 86 45 64
        E 0 8e 45 64
        E 0 8f 30 64
        E 0 96 41 64
        E 0 9e 41 64
        E 0 9f 35 5a
        E 0 86 41 64
        E 0 8e 41 64
        E 0 96 41 64
        E 0 9e 41 64
        E 0 86 41 64
        E 0 8e 41 64
        E 0 96 45 64
        E 0 9e 45 64
        E 0 86 45 64
        E 0 8e 45 64
        E 0 96 45 64
        E 0 9e 45 64
        E 0 86 45 64
        E 0 8e 45 64
        E 0 96 46 66
        E 0 9e 46 66
        E 0 86 46 66
        E 0 8e 46 66
        E 0 8f 35 64
        E 0 96 46 66
        E 0 9e 46 66
        E 0 9f 37 5a
        E 0 86 46 66
        E 0 8e 46 66
        E 0 96 46 66
        E 0 9e 46 66
        E 0 86 46 66
        E 0 8e 46 66
        E 0 96 46 66
        E 0 9e 46 66
        E 0 86 46 66
        E 0 8e 46 66
        E 0 96 48 64
        E 0 9e 48 64
        E 0 86 48 64
        E 0 8e 48 64
        E 0 96 4a 64
        E 0 9e 4a 64
        E 0 86 4a 64
        E 0 8e 4a 64
        E 0 8f 37 64
        E 0 96 45 64
        E 0 9e 45 64
        E 0 9f 39 5a
        E 0 86 45 64
        E 0 8e 45 64
        E 1 96 45 64
        E 0 9e 45 64
        E 0 86 45 64
        E 0 8e 45 64
        E 0 8f 39 64
        E 0 9f 32 5a
        E 0 97 4d 64
        E 0 9e 4d 64
        E 0 87 4d 64
        E 0 8e 4d 64
        E 0 8f 32 64
        E 0 97 4a 64
        E 0 9e 4a 64
        E 0 9f 32 5a
        E 0 87 4a 64
        E 0 8e 4a 64
        E 0 97 45 64
        E 0 9e 45 64
        E 0 87 45 64
        E 0 8e 45 64
        E 0 97 43 64
        E 0 9e 43 64
        E 0 87 43 64
        E 0 8e 43 64
        E 0 97 45 64
        E 0 9e 45 64
        E 0 87 45 64
        E 0 8e 45 64
        E 0 97 41 64
        E 0 9e 41 64
        E 0 87 41 64
        E 0 8e 41 64
        E 0 97 41 64
        E 0 9e 41 64
        E 0 87 41 64
        E 0 8e 41 64
        E 0 97 45 64
        E 0 9e 45 64
        E 0 87 45 64
        E 0 8e 45 64
        E 0 97 45 64
        E 0 9e 45 64
        E 0 87 45 64
        E 0 8e 45 64
        E 0 8f 32 64
        E 0 97 4a 64
        E 0 9e 4a 64
        E 0 9f 2e 5b
        E 0 87 4a 64
        E 0 8e 4a 64
        E 0 97 4a 64
        E 0 9e 4a 64
        E 0 87 4a 64
        E 0 8e 4a 64
        E 0 97 43 64
        E 0 9e 43 64
        E 0 87 43 64
        E 0 8e 43 64
        E 0 8f 2e 66
        E 1 97 45 64
        E 0 9e 45 64
        E 0 9f 2d 5a
        E 0 87 45 64
        E 0 8e 45 64
        E 0 97 45 64
        E 0 9e 45 64
        E 0 87 45 64
        E 0 8e 45 64
        E 0 96 49 64
        E 0 9e 49 64
        E 0 8f 2d 64
        E 0 86 49 64
        E 0 8e 49 64
        E 0 9f 2d 5a
        E 0 96 45 64
        E 0 9e 45 64
        E 0 86 45 64
        E 0 8e 45 64
        E 0 96 45 64
        E 0 9e 45 64
        E 0 86 45 64
        E 0 8e 45 64
        E 0 97 45 64
        E 0 9e 45 64
        E 0 87 45 64
        E 0 8e 45 64
        E 0 97 45 64
        E 0 9e 45 64
        E 0 87 45 64
        E 0 8e 45 64
        E 0 97 45 64
        E 0 9e 45 64
        E 0 8f 2d 64
        E 0 87 45 64
        E 0 8e 45 64
        E 0 9f 35 5a
        E 0 97 4a 64
        E 0 9e 4a 64
        E 0 87 4a 64
        E 0 8e 4a 64
        E 0 97 4a 64
        E 0 9e 4a 64
        E 0 87 4a 64
        E 0 8e 4a 64
        E 1 97 4a 64
        E 0 9e 4a 64
        E 0 87 4a 64
        E 0 8e 4a 64
        E 0 97 4a 64
        E 0 9e 4a 64
        E 0 8f 35 64
        E 0 87 4a 64
        E 0 8e 4a 64
        E 0 9f 35 5a
        E 0 97 45 64
        E 0 9e 45 64
        E 0 87 45 64
        E 0 8e 45 64
        E 0 97 45 64
        E 0 9e 45 64
        E 0 87 45 64
        E 0 8e 45 64
        E 0 97 44 64
        E 0 9e 44 64
        E 0 8f 35 64
        E 0 87 44 64
        E 0 8e 44 64
        E 0 9f 34 5a
        E 0 97 48 64
        E 0 9e 48 64
        E 0 87 48 64
        E 0 8e 48 64
        E 0 97 47 64
        E 0 9e 47 64
        E 0 87 47 64
        E 0 8e 47 64
        E 1 96 44 64
        E 0 9e 44 64
        E 0 86 44 64
        E 0 8e 44 64
        E 0 96 40 64
        E 0 9e 40 64
        E 0 8f 34 64
        E 0 86 40 64
        E 0 8e 40 64
        E 0 9f 34 5a
        E 0 97 47 64
        E 0 9e 47 64
        E 0 87 47 64
        E 0 8e 47 64
        E 0 97 47 64
        E 0 9e 47 64
        E 0 87 47 64
        E 0 8e 47 64
        E 0 97 47 64
        E 0 9e 47 64
        E 0 87 47 64
        E 0 8e 47 64
        E 0 97 48 64
        E 0 9e 48 64
        E 0 87 48 64
        E 0 8e 48 64
        E 0 97 4a 64
        E 0 9e 4a 64
        E 0 87 4a 64
        E 0 8e 4a 64
        E 0 97 4a 64
        E 0 9e 4a 64
        E 0 87 4a 64
        E 0 8e 4a 64
        E 0 97 48 64
        E 0 9e 48 64
        E 0 87 48 64
        E 0 8e 48 64
        E 0 97 47 64
        E 0 9e 47 64
        E 0 87 47 64
        E 0 8e 47 64
        E 0 8f 34 64
        E 0 97 48 64
        E 0 9e 48 64
        E 0 9f 2d 5a
        E 0 87 48 64
        E 0 8e 48 64
        E 0 97 48 64
        E 0 9e 48 64
        E 0 87 48 64
        E 0 8e 48 64
        E 0 97 41 64
        E 0 9e 41 64
        E 0 87 41 64
        E 0 8e 41 64
        E 0 97 41 64
        E 0 9e 41 64
        E 0 87 41 64
        E 0 8e 41 64
        E 0 97 43 64
        E 0 9e 43 64
        E 0 87 43 64
        E 0 8e 43 64
        E 0 8f 2d 64
        E 0 97 43 64
        E 0 9e 43 64
        E 0 9f 2b 5a
        E 0 87 43 64
        E 0 8e 43 64
        E 0 97 43 64
        E 0 9e 43 64
        E 0 87 43 64
        E 0 8e 43 64
        E 0 96 47 64
        E 0 9e 47 64
        E 0 86 47 64
        E 0 8e 47 64
        E 0 96 47 64
        E 0 9e 47 64
        E 0 86 47 64
        E 0 8e 47 64
        E 0 96 48 64
        E 0 9e 48 64
        E 0 86 48 64
        E 0 8e 48 64
        E 0 8f 2b 64
        E 0 96 43 64
        E 0 9e 43 64
        E 0 9f 30 5a
        E 0 86 43 64
        E 0 8e 43 64
        E 0 96 43 64
        E 0 9e 43 64
        E 0 86 43 64
        E 0 8e 43 64
        E 0 97 4c 64
        E 0 9e 4c 64
        E 0 87 4c 64
        E 0 8e 4c 64
        E 0 8f 30 64
        E 0 97 47 64
        E 0 9e 47 64
        E 1 9f 2f 5a
        E 0 87 47 64
        E 0 8e 47 64
        E 0 97 47 64
        E 0 9e 47 64
        E 0 87 47 64
        E 0 8e 47 64
        E 0 8f 2f 64
        E 0 9f 34 5a
        E 0 96 43 64
        E 0 9e 43 64
        E 38402 86 43 64
        E 0 8e 43 64
        E 0 96 43 64
        E 0 9e 43 64
        E 0 86 43 64
        E 0 8e 43 64
        E 0 96 47 64
        E 0 9e 47 64
        E 0 86 47 64
        E 0 8e 47 64
        E 0 8f 34 64
        E 0 96 40 64
        E 0 9e 40 64
        E 0 9f 34 5a
        E 0 86 40 64
        E 0 8e 40 64
        E 1 96 47 64
        E 0 9e 47 64
        E 0 86 47 64
        E 0 8e 47 64
        E 0 96 47 64
        E 0 9e 47 64
        E 0 86 47 64
        E 0 8e 47 64
        E 0 96 47 64
        E 0 9e 47 64
        E 0 86 47 64
        E 0 8e 47 64
        E 0 96 47 64
        E 0 9e 47 64
        E 0 86 47 64
        E 0 8e 47 64
        E 0 96 48 64
        E 0 9e 48 64
        E 0 86 48 64
        E 0 8e 48 64
        E 0 8f 34 64
        E 0 96 48 64
        E 0 9e 48 64
        E 0 9f 34 5a
        E 0 86 48 64
        E 0 8e 48 64
        E 0 96 48 64
        E 0 9e 48 64
        E 0 86 48 64
        E 0 8e 48 64
        E 0 96 48 64
        E 0 9e 48 64
        E 0 86 48 64
        E 0 8e 48 64
        E 0 96 43 64
        E 0 9e 43 64
        E 0 86 43 64
        E 0 8e 43 64
        E 0 96 43 64
        E 0 9e 43 64
        E 0 86 43 64
        E 0 8e 43 64
        E 0 96 46 66
        E 0 9e 46 66
        E 0 86 46 66
        E 0 8e 46 66
        E 0 96 45 64
        E 0 9e 45 64
        E 0 86 45 64
        E 0 8e 45 64
        E 0 8f 34 64
        E 0 96 41 64
        E 0 9e 41 64
        E 0 9f 35 5a
        E 0 86 41 64
        E 0 8e 41 64
        E 0 96 41 64
        E 0 9e 41 64
        E 0 86 41 64
        E 0 8e 41 64
        E 0 96 48 64
        E 1 9e 48 64
        E 0 86 48 64
        E 0 8e 48 64
        E 0 96 48 64
        E 0 9e 48 64
        E 0 86 48 64
        E 0 8e 48 64
        E 0 96 48 64
        E 0 9e 48 64
        E 0 86 48 64
        E 0 8e 48 64
        E 0 8f 35 64
        E 0 96 45 64
        E 0 9e 45 64
        E 0 9f 33 5b
        E 0 86 45 64
        E 0 8e 45 64
        E 0 96 45 64
        E 0 9e 45 64
        E 0 86 45 64
        E 0 8e 45 64
        E 0 96 45 64
        E 0 9e 45 64
        E 0 86 45 64
        E 0 8e 45 64
        E 0 96 45 64
        E 0 9e 45 64
        E 0 86 45 64
        E 0 8e 45 64
        E 0 96 45 64
        E 0 9e 45 64
        E 0 86 45 64
        E 0 8e 45 64
        E 0 96 46 66
        E 0 9e 46 66
        E 0 86 46 66
        E 0 8e 46 66
        E 0 96 48 64
        E 0 9e 48 64
        E 0 86 48 64
        E 0 8e 48 64
        E 0 8f 33 66
        E 0 96 41 64
        E 0 9e 41 64
        E 0 9f 33 5b
        E 0 86 41 64
        E 0 8e 41 64
        E 0 96 41 64
        E 0 9e 41 64
        E 0 86 41 64
        E 0 8e 41 64
        E 0 96 45 64
        E 0 9e 45 64
        E 0 86 45 64
        E 0 8e 45 64
        E 0 96 45 64
        E 0 9e 45 64
        E 0 86 45 64
        E 0 8e 45 64
        E 0 96 46 66
        E 0 9e 46 66
        E 0 86 46 66
        E 0 8e 46 66
        E 0 8f 33 66
        E 0 96 41 64
        E 0 9e 41 64
        E 0 9f 32 5a
        E 0 86 41 64
        E 0 8e 41 64
        E 0 96 41 64
        E 0 9e 41 64
        E 0 86 41 64
        E 0 8e 41 64
        E 0 8f 32 64
        E 0 97 4a 64
        E 0 9e 4a 64
        E 0 9f 32 5a
        E 0 87 4a 64
        E 0 8e 4a 64
        E 0 97 4d 64
        E 0 9e 4d 64
        E 0 87 4d 64
        E 0 8e 4d 64
        E 0 97 48 64
        E 0 9e 48 64
        E 0 87 48 64
        E 0 8e 48 64
        E 0 97 48 64
        E 0 9e 48 64
        E 0 87 48 64
        E 0 8e 48 64
        E 0 97 4a 64
        E 1 9e 4a 64
        E 0 87 4a 64
        E 0 8e 4a 64
        E 0 97 46 66
        E 0 9e 46 66
        E 0 87 46 66
        E 0 8e 46 66
        E 0 97 46 66
        E 0 9e 46 66
        E 0 87 46 66
        E 0 8e 46 66
        E 0 96 41 64
        E 0 9e 41 64
        E 0 86 41 64
        E 0 8e 41 64
        E 0 96 41 64
        E 0 9e 41 64
        E 0 86 41 64
        E 0 8e 41 64
        E 0 96 41 64
        E 0 9e 41 64
        E 0 86 41 64
        E 0 8e 41 64
        E 0 8f 32 64
        E 0 96 46 66
        E 0 9e 46 66
        E 0 9f 32 5a
        E 0 86 46 66
        E 0 8e 46 66
        E 0 96 46 66
        E 0 9e 46 66
        E 0 86 46 66
        E 0 8e 46 66
        E 0 96 46 66
        E 0 9e 46 66
        E 0 86 46 66
        E 0 8e 46 66
        E 0 96 46 66
        E 0 9e 46 66
        E 0 86 46 66
        E 0 8e 46 66
        E 0 8f 32 64
        E 0 96 48 64
        E 0 9e 48 64
        E 0 9f 33 5b
        E 0 86 48 64
        E 0 8e 48 64
        E 0 96 48 64
        E 0 9e 48 64
        E 0 86 48 64
        E 0 8e 48 64
        E 0 96 43 64
        E 0 9e 43 64
        E 0 86 43 64
        E 0 8e 43 64
        E 0 8f 33 66
        E 0 96 45 64
        E 0 9e 45 64
        E 0 9f 32 5a
        E 0 86 45 64
        E 0 8e 45 64
        E 0 96 42 64
        E 0 9e 42 64
        E 0 86 42 64
        E 0 8e 42 64
        E 0 96 42 64
        E 0 9e 42 64
        E 0 86 42 64
        E 0 8e 42 64
        E 0 96 43 64
        E 0 9e 43 64
        E 0 86 43 64
        E 0 8e 43 64
        E 0 8f 32 64
        E 0 96 45 64
        E 0 9e 45 64
        E 0 9f 32 5a
        E 0 86 45 64
        E 0 8e 45 64
        E 0 96 45 64
        E 0 9e 45 64
        E 0 86 45 64
        E 0 8e 45 64
        E 0 96 48 64
        E 0 9e 48 64
        E 0 86 48 64
        E 0 8e 48 64
        E 0 96 48 64
        E 0 9e 48 64
        E 0 86 48 64
        E 0 8e 48 64
        E 0 96 45 64
        E 0 9e 45 64
        E 0 86 45 64
        E 0 8e 45 64
        E 0 96 45 64
        E 0 9e 45 64
        E 0 86 45 64
        E 0 8e 45 64
        E 0 96 46 66
        E 0 9e 46 66
        E 0 86 46 66
        E 0 8e 46 66
        E 0 8f 32 64
        E 0 96 43 64
        E 0 9e 43 64
        E 0 9f 2b 5a
        E 0 86 43 64
        E 0 8e 43 64
        E 0 96 46 66
        E 0 9e 46 66
        E 0 86 46 66
        E 0 8e 46 66
        E 38404 96 46 66
        E 0 9e 46 66
        E 0 86 46 66
        E 0 8e 46 66
        E 0 96 4a 64
        E 0 9e 4a 64
        E 0 86 4a 64
        E 0 8e 4a 64
        E 0 8f 2b 64
        E 0 96 43 64
        E 1 9e 43 64
        E 0 9f 2b 5a
        E 0 86 43 64
        E 0 8e 43 64
        E 0 96 43 64
        E 0 9e 43 64
        E 0 86 43 64
        E 0 8e 43 64
        E 0 96 43 64
        E 0 9e 43 64
        E 0 86 43 64
        E 0 8e 43 64
        E 0 96 46 66
        E 0 9e 46 66
        E 0 86 46 66
        E 0 8e 46 66
        E 0 96 46 66
        E 0 9e 46 66
        E 0 86 46 66
        E 0 8e 46 66
        E 0 96 46 66
        E 0 9e 46 66
        E 0 86 46 66
        E 0 8e 46 66
        E 0 96 45 64
        E 0 9e 45 64
        E 0 86 45 64
        E 0 8e 45 64
        E 0 8f 2b 64
        E 0 96 48 64
        E 0 9e 48 64
        E 0 9f 29 5a
        E 0 86 48 64
        E 0 8e 48 64
        E 0 96 48 64
        E 0 9e 48 64
        E 0 86 48 64
        E 0 8e 48 64
        E 0 97 45 64
        E 0 9e 45 64
        E 0 87 45 64
        E 0 8e 45 64
        E 0 97 41 64
        E 0 9e 41 64
        E 0 87 41 64
        E 0 8e 41 64
        E 0 8f 29 64
        E 0 9f 29 5a
        E 0 96 45 64
        E 0 9e 45 64
        E 0 86 45 64
        E 1 8e 45 64
        E 0 96 46 66
        E 0 9e 46 66
        E 0 86 46 66
        E 0 8e 46 66
        E 0 8f 29 64
        E 0 96 48 64
        E 0 9e 48 64
        E 0 9f 2a 5a
        E 0 86 48 64
        E 0 8e 48 64
        E 0 96 48 64
        E 0 9e 48 64
        E 0 86 48 64
        E 0 8e 48 64
        E 0 8f 2a 64
        E 0 9f 2a 5a
        E 0 96 48 64
        E 0 9e 48 64
        E 0 86 48 64
        E 0 8e 48 64
        E 0 96 48 64
        E 0 9e 48 64
        E 0 86 48 64
        E 0 8e 48 64
        E 0 96 48 64
        E 0 9e 48 64
        E 0 86 48 64
        E 0 8e 48 64
        E 0 96 46 66
        E 0 9e 46 66
        E 0 86 46 66
        E 0 8e 46 66
        E 0 96 45 64
        E 0 9e 45 64
        E 0 86 45 64
        E 0 8e 45 64
        E 0 8f 2a 64
        E 0 96 46 66
        E 0 9e 46 66
        E 0 9f 2b 5a
        E 0 86 46 66
        E 0 8e 46 66
        E 0 96 46 66
        E 0 9e 46 66
        E 0 86 46 66
        E 0 8e 46 66
        E 0 96 46 66
        E 0 9e 46 66
        E 0 86 46 66
        E 0 8e 46 66
        E 0 96 45 64
        E 1 9e 45 64
        E 0 86 45 64
        E 0 8e 45 64
        E 0 96 46 66
        E 0 9e 46 66
        E 0 86 46 66
        E 0 8e 46 66
        E 0 8f 2b 64
        E 0 96 43 64
        E 0 9e 43 64
        E 0 9f 2b 5a
        E 0 86 43 64
        E 0 8e 43 64
        E 0 8f 2b 64
        E 0 96 4a 64
        E 0 9e 4a 64
        E 0 9f 2e 5b
        E 0 86 4a 64
        E 0 8e 4a 64
        E 0 96 43 64
        E 0 9e 43 64
        E 0 86 43 64
        E 0 8e 43 64
        E 0 96 43 64
        E 0 9e 43 64
        E 0 86 43 64
        E 0 8e 43 64
        E 0 96 43 64
        E 0 9e 43 64
        E 0 86 43 64
        E 0 8e 43 64
        E 0 96 45 64
        E 0 9e 45 64
        E 0 86 45 64
        E 0 8e 45 64
        E 0 8f 2e 66
        E 0 96 45 64
        E 0 9e 45 64
        E 0 9f 2d 5a
        E 0 86 45 64
        E 0 8e 45 64
        E 0 96 45 64
        E 0 9e 45 64
        E 0 86 45 64
        E 0 8e 45 64
        E 0 97 49 64
        E 0 9e 49 64
        E 0 87 49 64
        E 0 8e 49 64
        E 0 97 4c 64
        E 0 9e 4c 64
        E 0 87 4c 64
        E 0 8e 4c 64
        E 0 97 45 64
        E 0 9e 45 64
        E 0 87 45 64
        E 0 8e 45 64
        E 0 97 45 64
        E 0 9e 45 64
        E 0 87 45 64
        E 0 8e 45 64
        E 0 97 45 64
        E 1 9e 45 64
        E 0 87 45 64
        E 0 8e 45 64
        E 0 97 45 64
        E 0 9e 45 64
        E 0 87 45 64
        E 0 8e 45 64
        E 0 8f 2d 64
        E 0 97 42 64
        E 0 9e 42 64
        E 0 9f 30 5a
        E 0 87 42 64
        E 0 8e 42 64
        E 0 97 42 64
        E 0 9e 42 64
        E 0 87 42 64
        E 0 8e 42 64
        E 0 96 45 64
        E 0 9e 45 64
        E 0 86 45 64
        E 0 8e 45 64
        E 0 96 45 64
        E 0 9e 45 64
        E 0 86 45 64
        E 0 8e 45 64
        E 0 96 47 64
        E 0 9e 47 64
        E 0 86 47 64
        E 0 8e 47 64
        E 0 96 48 64
        E 0 9e 48 64
        E 0 86 48 64
        E 0 8e 48 64
        E 0 96 48 64
        E 0 9e 48 64
        E 0 86 48 64
        E 0 8e 48 64
        E 0 8f 30 64
        E 0 96 45 64
        E 0 9e 45 64
        E 0 9f 30 5a
        E 0 86 45 64
        E 0 8e 45 64
        E 0 96 45 64
        E 0 9e 45 64
        E 0 86 45 64
        E 0 8e 45 64
        E 1 96 45 64
        E 0 9e 45 64
        E 0 86 45 64
        E 0 8e 45 64
        E 0 96 43 64
        E 0 9e 43 64
        E 0 86 43 64
        E 0 8e 43 64
        E 0 96 42 64
        E 0 9e 42 64
        E 0 86 42 64
        E 0 8e 42 64
        E 0 8f 30 64
        E 0 96 47 64
        E 0 9e 47 64
        E 0 9f 33 5a
        E 0 86 47 64
        E 0 8e 47 64
        E 0 96 47 64
        E 0 9e 47 64
        E 0 86 47 64
        E 0 8e 47 64
        E 0 96 48 64
        E 0 9e 48 64
        E 0 86 48 64
        E 0 8e 48 64
        E 0 8f 33 64
        E 0 96 45 64
        E 0 9e 45 64
        E 0 9f 33 5a
        E 0 86 45 64
        E 0 8e 45 64
        E 0 96 45 64
        E 0 9e 45 64
        E 0 86 45 64
        E 0 8e 45 64
        E 0 96 43 64
        E 0 9e 43 64
        E 0 86 43 64
        E 0 8e 43 64
        E 1 96 42 64
        E 0 9e 42 64
        E 0 86 42 64
        E 0 8e 42 64
        E 0 8f 33 64
        E 0 96 43 64
        E 0 9e 43 64
        E 0 9f 34 5a
        E 0 86 43 64
        E 0 8e 43 64
        E 0 97 4c 64
        E 0 9e 4c 64
        E 0 87 4c 64
        E 0 8e 4c 64
        E 0 8f 34 64
        E 0 97 47 64
        E 0 9e 47 64
        E 0 9f 34 5a
        E 0 87 47 64
        E 0 8e 47 64
        E 0 97 47 64
        E 0 9e 47 64
        E 0 87 47 64
        E 0 8e 47 64
        E 0 96 43 64
        E 0 9e 43 64
        E 0 86 43 64
        E 0 8e 43 64
        E 0 96 40 64
        E 0 9e 40 64
        E 0 86 40 64
        E 0 8e 40 64
        E 0 97 47 64
        E 0 9e 47 64
        E 0 87 47 64
        E 0 8e 47 64
        E 0 97 47 64
        E 0 9e 47 64
        E 0 87 47 64
        E 0 8e 47 64
        E 0 97 4c 64
        E 0 9e 4c 64
        E 0 87 4c 64
        E 0 8e 4c 64
        E 0 8f 34 64
        E 0 97 48 64
        E 0 9e 48 64
        E 0 9f 2d 5a
        E 0 87 48 64
        E 0 8e 48 64
        E 0 97 48 64
        E 0 9e 48 64
        E 0 87 48 64
        E 0 8e 48 64
        E 0 97 45 64
        E 0 9e 45 64
        E 0 87 45 64
        E 0 8e 45 64
        E 0 8f 2d 64
        E 0 97 48 64
        E 0 9e 48 64
        E 0 9f 2d 5a
        E 0 87 48 64
        E 0 8e 48 64
        E 0 97 48 64
        E 1 9e 48 64
        E 0 87 48 64
        E 0 8e 48 64
        E 0 97 47 64
        E 0 9e 47 64
        E 27452 87 47 64
        E 0 8e 47 64
        E 1 97 45 64
        E 0 9e 45 64
        E 0 87 45 64
        E 0 8e 45 64
        E 0 8f 2d 64
        E 7 97 47 64
        E 0 9e 47 64
        E 0 9f 35 5a
        E 0 87 47 64
        E 0 8e 47 64
        E 0 97 47 64
        E 1 9e 47 64
        E 0 87 47 64
        E 0 8e 47 64
        E 0 97 47 64
        E 0 9e 47 64
        E 0 87 47 64
        E 0 8e 47 64
        E 0 97 4a 64
        E 0 9e 4a 64
        E 0 87 4a 64
        E 0 8e 4a 64
        E 0 8f 35 64
        E 0 97 48 64
        E 0 9e 48 64
        E 0 9f 33 5b
        E 0 87 48 64
        E 0 8e 48 64
        E 0 97 48 64
        E 0 9e 48 64
        E 0 87 48 64
        E 0 8e 48 64
        E 0 97 48 64
        E 0 9e 48 64
        E 0 87 48 64
        E 0 8e 48 64
        E 0 97 43 64
        E 0 9e 43 64
        E 0 87 43 64
        E 0 8e 43 64
        E 0 8f 33 66
        E 0 97 45 64
        E 0 9e 45 64
        E 0 9f 32 5a
        E 0 87 45 64
        E 0 8e 45 64
        E 0 97 45 64
        E 0 9e 45 64
        E 0 87 45 64
        E 0 8e 45 64
        E 0 96 42 64
        E 0 9e 42 64
        E 0 86 42 64
        E 0 8e 42 64
        E 0 96 42 64
        E 0 9e 42 64
        E 0 86 42 64
        E 0 8e 42 64
        E 0 96 43 64
        E 0 9e 43 64
        E 0 86 43 64
        E 0 8e 43 64
        E 1 96 45 64
        E 0 9e 45 64
        E 0 86 45 64
        E 0 8e 45 64
        E 0 96 45 64
        E 0 9e 45 64
        E 0 86 45 64
        E 0 8e 45 64
        E 0 96 48 64
        E 0 9e 48 64
        E 0 86 48 64
        E 0 8e 48 64
        E 0 96 48 64
        E 0 9e 48 64
        E 0 86 48 64
        E 0 8e 48 64
        E 0 96 46 66
        E 0 9e 46 66
        E 0 86 46 66
        E 0 8e 46 66
        E 0 8f 32 64
        E 0 96 43 64
        E 0 9e 43 64
        E 0 9f 2b 5a
        E 0 86 43 64
        E 0 8e 43 64
        E 0 96 3e 64
        E 0 9e 3e 64
        E 0 86 3e 64
        E 0 8e 3e 64
        E 0 96 3e 64
        E 0 9e 3e 64
        E 0 86 3e 64
        E 0 8e 3e 64
        E 1 96 3e 64
        E 0 9e 3e 64
        E 0 86 3e 64
        E 0 8e 3e 64
        E 0 96 43 64
        E 0 9e 43 64
        E 0 86 43 64
        E 0 8e 43 64
        E 0 96 43 64
        E 0 9e 43 64
        E 0 86 43 64
        E 0 8e 43 64
        E 0 8f 2b 64
        E 0 96 40 64
        E 0 9e 40 64
        E 0 9f 31 5a
        E 0 86 40 64
        E 0 8e 40 64
        E 0 96 40 64
        E 0 9e 40 64
        E 0 86 40 64
        E 0 8e 40 64
        E 0 96 46 66
        E 0 9e 46 66
        E 0 86 46 66
        E 0 8e 46 66
        E 0 96 43 64
        E 0 9e 43 64
        E 0 86 43 64
        E 0 8e 43 64
        E 0 96 43 64
        E 0 9e 43 64
        E 0 86 43 64
        E 1 8e 43 64
        E 0 96 43 64
        E 0 9e 43 64
        E 0 86 43 64
        E 0 8e 43 64
        E 0 96 41 64
        E 0 9e 41 64
        E 0 86 41 64
        E 0 8e 41 64
        E 0 8f 31 64
        E 0 96 41 64
        E 0 9e 41 64
        E 0 9f 32 5a
        E 0 86 41 64
        E 0 8e 41 64
        E 0 96 41 64
        E 1 9e 41 64
        E 0 86 41 64
        E 0 8e 41 64
        E 0 96 45 64
        E 0 9e 45 64
        E 0 86 45 64
        E 0 8e 45 64
        E 0 96 46 66
        E 0 9e 46 66
        E 0 86 46 66
        E 0 8e 46 66
        E 0 8f 32 64
        E 0 96 43 64
        E 0 9e 43 64
        E 0 9f 2e 5b
        E 0 86 43 64
        E 0 8e 43 64
        E 0 96 43 64
        E 0 9e 43 64
        E 0 86 43 64
        E 0 8e 43 64
        E 1 96 43 64
        E 0 9e 43 64
        E 0 86 43 64
        E 0 8e 43 64
        E 0 96 41 64
        E 0 9e 41 64
        E 0 86 41 64
        E 0 8e 41 64
        E 0 8f 2e 66
        E 0 96 3e 64
        E 0 9e 3e 64
        E 0 9f 2d 5a
        E 0 86 3e 64
        E 0 8e 3e 64
        E 0 96 3e 64
        E 0 9e 3e 64
        E 0 86 3e 64
        E 0 8e 3e 64
        E 0 8f 2d 64
        E 0 9f 32 5a
        E 0 97 45 64
        E 0 9e 45 64
        E 0 87 45 64
        E 0 8e 45 64
        E 0 8f 32 64
        E 0 97 41 64
        E 0 9e 41 64
        E 1 9f 32 5a
        E 0 87 41 64
        E 0 8e 41 64
        E 0 97 4a 64
        E 0 9e 4a 64
        E 0 87 4a 64
        E 0 8e 4a 64
        E 0 8f 32 64
        E 0 97 45 64
        E 0 9e 45 64
        E 0 9f 32 5a
        E 0 87 45 64
        E 0 8e 45 64
        E 0 97 45 64
        E 0 9e 45 64
        E 0 87 45 64
        E 0 8e 45 64
        E 1 96 41 64
        E 0 9e 41 64
        E 0 86 41 64
        E 0 8e 41 64
        E 0 96 41 64
        E 0 9e 41 64
        E 0 86 41 64
        E 0 8e 41 64
        E 0 96 45 64
        E 0 9e 45 64
        E 0 86 45 64
        E 1 8e 45 64
        E 0 96 3e 64
        E 0 9e 3e 64
        E 0 86 3e 64
        E 0 8e 3e 64
        E 0 96 3e 64
        E 0 9e 3e 64
        E 0 86 3e 64
        E 0 8e 3e 64
        E 0 96 45 64
        E 0 9e 45 64
        E 0 86 45 64
        E 0 8e 45 64
        E 0 96 47 64
        E 0 9e 47 64
        E 0 86 47 64
        E 0 8e 47 64
        E 0 8f 32 64
        E 0 96 47 64
        E 0 9e 47 64
        E 0 9f 35 5a
        E 466 86 47 64
        E 0 8e 47 64
        E 0 96 47 64
        E 1 9e 47 64
        E 568 86 47 64
        E 2 8e 47 64
        E 0 96 47 64
        E 0 9e 47 64
        E 579 86 47 64
        E 0 8e 47 64
        E 0 96 47 64
        E 0 9e 47 64
        E 290 86 47 64
        E 0 8e 47 64
        E 0 96 48 64
        E 0 9e 48 64
        E 0 86 48 64
        E 0 8e 48 64
        E 0 8f 35 64
        E 0 96 43 64
        E 0 9e 43 64
        E 0 9f 34 5a
        E 1163 86 43 64
        E 0 8e 43 64
        E 874 8f 34 64
        E 1 96 48 64
        E 0 9e 48 64
        E 0 9f 34 5a
        E 581 86 48 64
        E 0 8e 48 64
        E 0 96 48 64
        E 0 9e 48 64
        E 302 86 48 64
        E 0 8e 48 64
        E 1 96 48 64
        E 0 9e 48 64
        E 0 86 48 64
        E 0 8e 48 64
        E 0 96 48 64
        E 0 9e 48 64
        E 568 86 48 64
        E 0 8e 48 64
        E 1 96 47 64
        E 0 9e 47 64
        E 582 86 47 64
        E 0 8e 47 64
        E 0 8f 34 64
        E 0 96 47 64
        E 1 9e 47 64
        E 0 9f 33 5b
        E 292 86 47 64
        E 0 8e 47 64
        E 0 96 47 64
        E 0 9e 47 64
        E 581 86 47 64
        E 3 8e 47 64
        E 299 96 41 64
        E 1 9e 41 64
        E 277 86 41 64
        E 0 8e 41 64
        E 0 96 45 64
        E 0 9e 45 64
        E 0 86 45 64
        E 0 8e 45 64
        E 0 96 43 64
        E 1 9e 43 64
        E 297 86 43 64
        E 0 8e 43 64
        E 0 8f 33 66
        E 0 96 40 64
        E 0 9e 40 64
        E 0 9f 34 5a
        E 591 86 40 64
        E 0 8e 40 64
        E 0 96 40 64
        E 0 9e 40 64
        E 567 86 40 64
        E 0 8e 40 64
        E 0 97 43 64
        E 2 9e 43 64
        E 288 87 43 64
        E 0 8e 43 64
        E 0 97 43 64
        E 0 9e 43 64
        E 296 87 43 64
        E 0 8e 43 64
        E 2 97 47 64
        E 1 9e 47 64
        E 38404 87 47 64
        E 0 8e 47 64
        E 0 97 40 64
        E 1 9e 40 64
        E 0 87 40 64
        E 0 8e 40 64
        E 0 97 40 64
        E 0 9e 40 64
        E 0 87 40 64
        E 0 8e 40 64
        E 0 96 47 64
        E 0 9e 47 64
        E 0 86 47 64
        E 0 8e 47 64
        E 0 8f 34 64
        E 0 96 49 64
        E 0 9e 49 64
        E 0 9f 2e 5a
        E 0 86 49 64
        E 0 8e 49 64
        E 0 96 42 64
        E 0 9e 42 64
        E 0 86 42 64
        E 0 8e 42 64
        E 0 97 4a 64
        E 0 9e 4a 64
        E 0 87 4a 64
        E 0 8e 4a 64
        E 0 8f 2e 64
        E 0 97 47 64
        E 0 9e 47 64
        E 0 9f 2f 5a
        E 0 87 47 64
        E 0 8e 47 64
        E 0 97 47 64
        E 0 9e 47 64
        E 0 87 47 64
        E 0 8e 47 64
        E 0 97 4a 64
        E 0 9e 4a 64
        E 0 87 4a 64
        E 0 8e 4a 64
        E 0 97 4a 64
        E 0 9e 4a 64
        E 0 87 4a 64
        E 0 8e 4a 64
        E 0 97 4e 64
        E 0 9e 4e 64
        E 0 87 4e 64
        E 0 8e 4e 64
        E 0 8f 2f 64
        E 0 97 47 64
        E 0 9e 47 64
        E 0 9f 2f 5a
        E 0 87 47 64
        E 0 8e 47 64
        E 0 97 47 64
        E 0 9e 47 64
        E 0 87 47 64
        E 0 8e 47 64
        E 0 97 47 64
        E 0 9e 47 64
        E 0 87 47 64
        E 0 8e 47 64
        E 1 97 47 64
        E 0 9e 47 64
        E 0 87 47 64
        E 0 8e 47 64
        E 0 97 47 64
        E 0 9e 47 64
        E 0 87 47 64
        E 0 8e 47 64
        E 0 8f 2f 64
        E 0 97 44 64
        E 0 9e 44 64
        E 0 9f 35 59
        E 0 87 44 64
        E 0 8e 44 64
        E 0 97 44 64
        E 0 9e 44 64
        E 0 87 44 64
        E 0 8e 44 64
        E 0 8f 35 63
        E 0 97 49 64
        E 0 9e 49 64
        E 0 9f 35 59
        E 0 87 49 64
        E 0 8e 49 64
        E 0 97 49 64
        E 0 9e 49 64
        E 0 87 49 64
        E 0 8e 49 64
        E 0 97 49 64
        E 0 9e 49 64
        E 0 87 49 64
        E 0 8e 49 64
        E 0 97 47 64
        E 0 9e 47 64
        E 0 87 47 64
        E 0 8e 47 64
        E 0 97 49 64
        E 0 9e 49 64
        E 0 87 49 64
        E 0 8e 49 64
        E 0 8f 35 63
        E 0 97 45 64
        E 0 9e 45 64
        E 0 9f 36 5a
        E 0 87 45 64
        E 0 8e 45 64
        E 0 97 45 64
        E 0 9e 45 64
        E 0 87 45 64
        E 0 8e 45 64
        E 0 97 42 64
        E 0 9e 42 64
        E 0 87 42 64
        E 0 8e 42 64
        E 0 8f 36 64
        E 0 97 45 64
        E 0 9e 45 64
        E 0 9f 36 5a
        E 0 87 45 64
        E 0 8e 45 64
        E 0 97 45 64
        E 0 9e 45 64
        E 0 87 45 64
        E 0 8e 45 64
        E 0 96 42 64
        E 1 9e 42 64
        E 0 86 42 64
        E 0 8e 42 64
        E 0 96 42 64
        E 0 9e 42 64
        E 0 86 42 64
        E 0 8e 42 64
        E 0 96 42 64
        E 0 9e 42 64
        E 0 86 42 64
        E 0 8e 42 64
        E 0 8f 36 64
        E 0 96 47 64
        E 0 9e 47 64
        E 0 9f 32 5a
        E 0 86 47 64
        E 0 8e 47 64
        E 0 96 47 64
        E 0 9e 47 64
        E 0 86 47 64
        E 0 8e 47 64
        E 0 96 4a 64
        E 0 9e 4a 64
        E 0 86 4a 64
        E 0 8e 4a 64
        E 0 96 47 64
        E 0 9e 47 64
        E 0 86 47 64
        E 0 8e 47 64
        E 0 96 42 64
        E 0 9e 42 64
        E 0 86 42 64
        E 0 8e 42 64
        E 0 8f 32 64
        E 0 96 44 64
        E 0 9e 44 64
        E 0 9f 31 5a
        E 0 86 44 64
        E 0 8e 44 64
        E 0 96 44 64
        E 0 9e 44 64
        E 0 86 44 64
        E 0 8e 44 64
        E 0 97 49 64
        E 0 9e 49 64
        E 0 87 49 64
        E 0 8e 49 64
        E 0 97 49 64
        E 0 9e 49 64
        E 0 87 49 64
        E 0 8e 49 64
        E 0 97 49 64
        E 0 9e 49 64
        E 0 87 49 64
        E 0 8e 49 64
        E 0 97 49 64
        E 1 9e 49 64
        E 0 87 49 64
        E 0 8e 49 64
        E 0 97 44 64
        E 0 9e 44 64
        E 0 87 44 64
        E 0 8e 44 64
        E 0 8f 31 64
        E 0 97 45 64
        E 0 9e 45 64
        E 0 9f 36 5a
        E 0 87 45 64
        E 0 8e 45 64
        E 0 97 45 64
        E 0 9e 45 64
        E 0 87 45 64
        E 0 8e 45 64
        E 0 97 49 64
        E 0 9e 49 64
        E 0 87 49 64
        E 0 8e 49 64
        E 0 97 49 64
        E 0 9e 49 64
        E 0 87 49 64
        E 0 8e 49 64
        E 0 97 47 64
        E 0 9e 47 64
        E 0 87 47 64
        E 0 8e 47 64
        E 0 8f 36 64
        E 0 97 47 64
        E 0 9e 47 64
        E 0 9f 38 5a
        E 0 87 47 64
        E 0 8e 47 64
        E 0 97 47 64
        E 1 9e 47 64
        E 0 87 47 64
        E 0 8e 47 64
        E 0 8f 38 64
        E 0 97 44 64
        E 0 9e 44 64
        E 0 9f 38 5a
        E 0 87 44 64
        E 0 8e 44 64
        E 0 97 45 64
        E 0 9e 45 64
        E 0 87 45 64
        E 0 8e 45 64
        E 0 97 47 64
        E 0 9e 47 64
        E 0 87 47 64
        E 0 8e 47 64
        E 0 97 47 64
        E 0 9e 47 64
        E 0 87 47 64
        E 0 8e 47 64
        E 0 97 49 64
        E 0 9e 49 64
        E 0 87 49 64
        E 0 8e 49 64
        E 0 8f 38 64
        E 0 97 45 64
        E 0 9e 45 64
        E 0 9f 39 5a
        E 0 87 45 64
        E 0 8e 45 64
        E 0 97 45 64
        E 0 9e 45 64
        E 0 87 45 64
        E 0 8e 45 64
        E 0 97 45 64
        E 0 9e 45 64
        E 0 87 45 64
        E 0 8e 45 64
        E 0 97 49 64
        E 0 9e 49 64
        E 0 87 49 64
        E 0 8e 49 64
        E 0 97 47 64
        E 1 9e 47 64
        E 0 87 47 64
        E 0 8e 47 64
        E 0 8f 39 64
        E 0 97 47 64
        E 0 9e 47 64
        E 0 9f 33 5b
        E 0 87 47 64
        E 0 8e 47 64
        E 0 97 47 64
        E 0 9e 47 64
        E 0 87 47 64
        E 0 8e 47 64
        E 0 97 4b 64
        E 0 9e 4b 64
        E 0 87 4b 64
        E 0 8e 4b 64
        E 0 97 4b 64
        E 0 9e 4b 64
        E 0 87 4b 64
        E 0 8e 4b 64
        E 0 97 4c 64
        E 0 9e 4c 64
        E 0 87 4c 64
        E 0 8e 4c 64
        E 0 8f 33 66
        E 0 97 47 64
        E 0 9e 47 64
        E 0 9f 34 5a
        E 0 87 47 64
        E 0 8e 47 64
        E 0 97 47 64
        E 0 9e 47 64
        E 0 87 47 64
        E 1 8e 47 64
        E 0 8f 34 64
        E 0 97 44 64
        E 0 9e 44 64
        E 0 9f 34 5a
        E 0 87 44 64
        E 0 8e 44 64
        E 0 97 44 64
        E 0 9e 44 64
        E 0 87 44 64
        E 0 8e 44 64
        E 0 97 47 64
        E 0 9e 47 64
        E 0 87 47 64
        E 0 8e 47 64
        E 0 97 40 64
        E 0 9e 40 64
        E 0 87 40 64
        E 0 8e 40 64
        E 0 97 44 64
        E 0 9e 44 64
        E 0 87 44 64
        E 0 8e 44 64
        E 0 8f 34 64
        E 0 97 47 64
        E 0 9e 47 64
        E 0 9f 34 5a
        E 0 87 47 64
        E 0 8e 47 64
        E 0 97 47 64
        E 0 9e 47 64
        E 0 87 47 64
        E 0 8e 47 64
        E 0 97 47 64
        E 0 9e 47 64
        E 0 87 47 64
        E 0 8e 47 64
        E 0 97 47 64
        E 0 9e 47 64
        E 38403 87 47 64
        E 0 8e 47 64
        E 0 97 4a 64
        E 0 9e 4a 64
        E 0 87 4a 64
        E 0 8e 4a 64
        E 0 97 4a 64
        E 0 9e 4a 64
        E 0 87 4a 64
        E 0 8e 4a 64
        E 0 97 49 64
        E 0 9e 49 64
        E 0 87 49 64
        E 0 8e 49 64
        E 0 8f 34 64
        E 0 97 49 64
        E 0 9e 49 64
        E 0 9f 39 5a
        E 0 87 49 64
        E 0 8e 49 64
        E 0 97 49 64
        E 0 9e 49 64
        E 0 87 49 64
        E 0 8e 49 64
        E 0 97 45 64
        E 0 9e 45 64
        E 0 87 45 64
        E 0 8e 45 64
        E 0 97 4b 64
        E 0 9e 4b 64
        E 0 87 4b 64
        E 0 8e 4b 64
        E 0 97 4c 64
        E 0 9e 4c 64
        E 1 87 4c 64
        E 0 8e 4c 64
        E 0 8f 39 64
        E 0 97 47 64
        E 0 9e 47 64
        E 0 9f 3b 5a
        E 0 87 47 64
        E 0 8e 47 64
        E 0 97 47 64
        E 0 9e 47 64
        E 0 87 47 64
        E 0 8e 47 64
        E 0 8f 3b 64
        E 0 9f 34 5a
        E 0 8f 34 64
        E 0 96 44 64
        E 0 9e 44 64
        E 0 9f 34 5a
        E 0 86 44 64
        E 0 8e 44 64
        E 0 96 44 64
        E 0 9e 44 64
        E 0 86 44 64
        E 0 8e 44 64
        E 0 96 44 64
        E 0 9e 44 64
        E 0 86 44 64
        E 0 8e 44 64
        E 0 96 44 64
        E 0 9e 44 64
        E 0 86 44 64
        E 0 8e 44 64
        E 0 96 44 64
        E 0 9e 44 64
        E 0 86 44 64
        E 0 8e 44 64
        E 0 8f 34 64
        E 0 96 49 64
        E 0 9e 49 64
        E 0 9f 2d 5a
        E 0 86 49 64
        E 0 8e 49 64
        E 0 96 49 64
        E 0 9e 49 64
        E 0 86 49 64
        E 0 8e 49 64
        E 0 96 49 64
        E 1 9e 49 64
        E 0 86 49 64
        E 0 8e 49 64
        E 0 96 49 64
        E 0 9e 49 64
        E 0 86 49 64
        E 0 8e 49 64
        E 0 8f 2d 64
        E 0 96 42 64
        E 0 9e 42 64
        E 0 9f 2d 5a
        E 0 86 42 64
        E 0 8e 42 64
        E 0 96 42 64
        E 0 9e 42 64
        E 0 86 42 64
        E 0 8e 42 64
        E 0 96 44 64
        E 0 9e 44 64
        E 0 86 44 64
        E 0 8e 44 64
        E 0 8f 2d 64
        E 0 96 44 64
        E 0 9e 44 64
        E 0 9f 2c 5a
        E 0 86 44 64
        E 0 8e 44 64
        E 0 96 44 64
        E 0 9e 44 64
        E 0 86 44 64
        E 0 8e 44 64
        E 0 97 48 63
        E 0 9e 48 63
        E 0 87 48 63
        E 0 8e 48 63
        E 0 97 48 63
        E 0 9e 48 63
        E 0 87 48 63
        E 0 8e 48 63
        E 0 97 49 64
        E 0 9e 49 64
        E 0 87 49 64
        E 0 8e 49 64
        E 0 8f 2c 64
        E 0 97 49 64
        E 0 9e 49 64
        E 0 9f 28 5a
        E 0 87 49 64
        E 0 8e 49 64
        E 0 97 44 64
        E 0 9e 44 64
        E 0 87 44 64
        E 0 8e 44 64
        E 0 96 40 64
        E 1 9e 40 64
        E 0 86 40 64
        E 0 8e 40 64
        E 0 8f 28 64
        E 0 96 44 64
        E 0 9e 44 64
        E 0 9f 28 5a
        E 0 86 44 64
        E 0 8e 44 64
        E 0 96 44 64
        E 0 9e 44 64
        E 0 86 44 64
        E 0 8e 44 64
        E 0 96 42 64
        E 0 9e 42 64
        E 0 86 42 64
        E 0 8e 42 64
        E 0 96 44 64
        E 0 9e 44 64
        E 0 86 44 64
        E 0 8e 44 64
        E 0 8f 28 64
        E 0 96 45 64
        E 0 9e 45 64
        E 0 9f 2a 5a
        E 0 86 45 64
        E 0 8e 45 64
        E 0 97 42 64
        E 0 9e 42 64
        E 0 87 42 64
        E 0 8e 42 64
        E 0 96 45 64
        E 0 9e 45 64
        E 0 86 45 64
        E 0 8e 45 64
        E 0 96 45 64
        E 0 9e 45 64
        E 0 86 45 64
        E 0 8e 45 64
        E 0 8f 2a 64
        E 0 96 45 64
        E 0 9e 45 64
        E 0 9f 2a 5a
        E 0 86 45 64
        E 0 8e 45 64
        E 0 96 45 64
        E 0 9e 45 64
        E 0 86 45 64
        E 0 8e 45 64
        E 0 96 45 64
        E 0 9e 45 64
        E 0 86 45 64
        E 0 8e 45 64
        E 1 96 45 64
        E 0 9e 45 64
        E 0 86 45 64
        E 0 8e 45 64
        E 0 96 44 64
        E 0 9e 44 64
        E 0 86 44 64
        E 0 8e 44 64
        E 0 8f 2a 64
        E 0 96 47 64
        E 0 9e 47 64
        E 0 9f 28 5a
        E 0 86 47 64
        E 0 8e 47 64
        E 0 97 40 64
        E 0 9e 40 64
        E 0 87 40 64
        E 0 8e 40 64
        E 0 96 47 64
        E 0 9e 47 64
        E 0 86 47 64
        E 0 8e 47 64
        E 0 96 47 64
        E 0 9e 47 64
        E 0 86 47 64
        E 0 8e 47 64
        E 0 96 47 64
        E 0 9e 47 64
        E 0 86 47 64
        E 0 8e 47 64
        E 0 96 48 64
        E 0 9e 48 64
        E 0 86 48 64
        E 0 8e 48 64
        E 0 8f 28 64
        E 0 96 45 64
        E 0 9e 45 64
        E 0 9f 30 5a
        E 0 86 45 64
        E 0 8e 45 64
        E 1 96 45 64
        E 0 9e 45 64
        E 0 86 45 64
        E 0 8e 45 64
        E 0 96 45 64
        E 0 9e 45 64
        E 0 86 45 64
        E 0 8e 45 64
        E 0 96 45 64
        E 0 9e 45 64
        E 0 86 45 64
        E 0 8e 45 64
        E 0 96 40 64
        E 0 9e 40 64
        E 0 86 40 64
        E 0 8e 40 64
        E 0 8f 30 64
        E 0 96 42 64
        E 0 9e 42 64
        E 0 9f 2f 5a
        E 0 86 42 64
        E 0 8e 42 64
        E 0 96 42 64
        E 0 9e 42 64
        E 0 86 42 64
        E 0 8e 42 64
        E 0 97 47 64
        E 0 9e 47 64
        E 0 87 47 64
        E 0 8e 47 64
        E 0 8f 2f 64
        E 0 9f 2f 5a
        E 0 96 42 64
        E 0 9e 42 64
        E 0 86 42 64
        E 0 8e 42 64
        E 0 96 42 64
        E 0 9e 42 64
        E 0 86 42 64
        E 0 8e 42 64
        E 0 96 43 64
        E 0 9e 43 64
        E 0 86 43 64
        E 0 8e 43 64
        E 0 8f 2f 64
        E 0 96 43 64
        E 0 9e 43 64
        E 0 9f 34 5a
        E 0 86 43 64
        E 0 8e 43 64
        E 0 96 43 64
        E 0 9e 43 64
        E 0 86 43 64
        E 0 8e 43 64
        E 0 97 40 64
        E 0 9e 40 64
        E 0 87 40 64
        E 0 8e 40 64
        E 0 8f 34 64
        E 0 9f 34 5a
        E 0 96 47 64
        E 0 9e 47 64
        E 0 86 47 64
        E 0 8e 47 64
        E 0 96 48 64
        E 0 9e 48 64
        E 0 86 48 64
        E 0 8e 48 64
        E 0 8f 34 64
        E 0 96 45 64
        E 0 9e 45 64
        E 0 9f 30 5a
        E 0 86 45 64
        E 0 8e 45 64
        E 0 96 45 64
        E 0 9e 45 64
        E 0 86 45 64
        E 0 8e 45 64
        E 0 96 45 64
        E 0 9e 45 64
        E 38404 86 45 64
        E 0 8e 45 64
        E 0 8f 30 64
        E 0 96 41 64
        E 0 9e 41 64
        E 0 9f 32 5a
        E 0 86 41 64
        E 0 8e 41 64
        E 0 96 4a 64
        E 0 9e 4a 64
        E 0 86 4a 64
        E 0 8e 4a 64
        E 0 8f 32 64
        E 0 96 47 64
        E 0 9e 47 64
        E 0 9f 35 5a
        E 0 86 47 64
        E 0 8e 47 64
        E 0 96 47 64
        E 0 9e 47 64
        E 0 86 47 64
        E 0 8e 47 64
        E 0 96 48 64
        E 0 9e 48 64
        E 0 86 48 64
        E 0 8e 48 64
        E 0 8f 35 64
        E 0 96 43 64
        E 0 9e 43 64
        E 0 9f 37 5a
        E 0 86 43 64
        E 0 8e 43 64
        E 0 96 43 64
        E 0 9e 43 64
        E 0 86 43 64
        E 0 8e 43 64
        E 0 8f 37 64
        E 0 9f 30 5a
        E 0 8f 30 64
        E 1 90 4d 64
        E 0 91 4d 64
        E 0 92 41 64
        E 0 93 39 5a
        E 0 9f 35 5a
        E 0 83 39 64
        E 0 8f 35 64
        E 0 93 39 5a
        E 0 9f 35 5a
        E 0 83 39 64
        E 0 8f 35 64
        E 0 93 39 5a
        E 0 9f 35 5a
        E 0 83 39 64
        E 0 8f 35 64
        E 0 93 39 5a
        E 0 9f 35 5a
        E 0 82 41 64
        E 0 83 39 64
        E 0 8f 35 64
        E 0 92 48 64
        E 0 93 41 5a
        E 1 9f 35 5a
        E 0 83 41 64
        E 0 8f 35 64
        E 0 93 41 5a
        E 0 9f 35 5a
        E 0 83 41 64
        E 0 8f 35 64
        E 0 93 41 5a
        E 0 9f 35 5a
        E 0 83 41 64
        E 0 8f 35 64
        E 0 93 41 5a
        E 1 9f 35 5a
        E 0 80 4d 64
        E 0 81 4d 64
        E 0 82 48 64
        E 0 83 41 64
        E 0 8f 35 64
        E 0 90 4d 64
        E 0 91 4d 64
        E 0 92 51 64
        E 0 93 48 5a
        E 1 9f 35 5a
        E 0 82 51 64
        E 0 92 4f 64
        E 0 82 4f 64
        E 0 92 4d 64
        E 0 83 48 64
        E 0 8f 35 64
        E 0 93 45 5a
        E 0 9f 35 5a
        E 0 82 4d 64
        E 0 83 45 64
        E 0 8f 35 64
        E 0 92 48 64
        E 0 93 41 5a
        E 0 9f 35 5a
        E 0 82 48 64
        E 0 92 46 66
        E 0 82 46 66
        E 0 92 45 64
        E 0 83 41 64
        E 0 8f 35 64
        E 0 93 3c 5a
        E 0 9f 35 5a
        E 0 82 45 64
        E 0 83 3c 64
        E 0 8f 35 64
        E 0 92 45 64
        E 0 93 3c 5a
        E 0 9f 35 5a
        E 0 82 45 64
        E 0 92 43 64
        E 0 82 43 64
        E 0 92 41 64
        E 0 83 3c 64
        E 0 8f 35 64
        E 0 93 39 5a
        E 0 9f 35 5a
        E 0 82 41 64
        E 0 83 39 64
        E 0 8f 35 64
        E 0 92 48 64
        E 0 93 41 5a
        E 0 9f 35 5a
        E 0 82 48 64
        E 0 92 46 66
        E 0 82 46 66
        E 0 92 45 64
        E 0 83 41 64
        E 0 8f 35 64
        E 0 93 3c 5a
        E 0 9f 35 5a
        E 0 80 4d 64
        E 0 81 4d 64
        E 0 82 45 64
        E 0 83 3c 64
        E 0 8f 35 64
        E 0 90 4d 64
        E 0 91 4d 64
        E 0 92 4a 64
        E 0 93 41 5a
        E 0 9f 35 5a
        E 1 82 4a 64
        E 0 83 41 64
        E 0 8f 35 64
        E 0 92 4a 64
        E 0 93 41 5a
        E 0 9f 35 5a
        E 0 82 4a 64
        E 0 92 4c 64
        E 0 82 4c 64
        E 0 92 4d 64
        E 0 82 4d 64
        E 0 92 4f 64
        E 0 82 4f 64
        E 0 92 51 64
        E 0 82 51 64
        E 0 83 41 64
        E 0 8f 35 64
        E 0 92 52 66
        E 0 93 41 5a
        E 0 9f 35 5a
        E 0 82 52 66
        E 0 83 41 64
        E 0 8f 35 64
        E 0 92 4a 64
        E 0 93 41 5a
        E 0 9f 35 5a
        E 0 82 4a 64
        E 0 83 41 64
        E 0 8f 35 64
        E 0 92 48 64
        E 0 93 41 5a
        E 1 9f 35 5a
        E 0 82 48 64
        E 0 83 41 64
        E 0 8f 35 64
        E 0 92 48 64
        E 0 93 41 5a
        E 0 9f 35 5a
        E 0 82 48 64
        E 0 92 4a 64
        E 0 82 4a 64
        E 0 92 4c 64
        E 0 82 4c 64
        E 0 92 4d 64
        E 0 82 4d 64
        E 0 92 4f 64
        E 0 82 4f 64
        E 0 83 41 64
        E 0 8f 35 64
        E 0 92 51 64
        E 0 93 3c 5a
        E 0 9f 35 5a
        E 0 82 51 64
        E 0 83 3c 64
        E 0 8f 35 64
        E 0 92 48 64
        E 0 93 3c 5a
        E 0 9f 35 5a
        E 0 80 4d 64
        E 0 81 4d 64
        E 0 82 48 64
        E 0 83 3c 64
        E 0 8f 35 64
        E 0 90 48 64
        E 0 91 48 64
        E 0 92 46 66
        E 0 93 40 5a
        E 0 9f 30 5a
        E 0 82 46 66
        E 0 83 40 64
        E 0 8f 30 64
        E 0 92 46 66
        E 0 93 40 5a
        E 0 9f 30 5a
        E 0 82 46 66
        E 0 92 48 64
        E 0 82 48 64
        E 0 92 4a 64
        E 0 82 4a 64
        E 0 92 4c 64
        E 0 82 4c 64
        E 0 92 4d 64
        E 0 82 4d 64
        E 0 83 40 64
        E 0 8f 30 64
        E 0 92 4f 64
        E 0 93 40 5a
        E 0 9f 30 5a
        E 0 82 4f 64
        E 0 83 40 64
        E 0 8f 30 64
        E 0 92 46 66
        E 0 93 40 5a
        E 0 9f 30 5a
        E 0 82 46 66
        E 0 83 40 64
        E 0 8f 30 64
        E 0 92 45 64
        E 0 93 3c 5a
        E 0 9f 35 5a
        E 0 82 45 64
        E 0 83 3c 64
        E 0 8f 35 64
        E 0 92 41 64
        E 0 93 3c 5a
        E 0 9f 35 5a
        E 0 82 41 64
        E 0 83 3c 64
        E 0 8f 35 64
        E 0 93 39 5a
        E 0 9f 35 5a
        E 0 83 39 64
        E 0 8f 35 64
        E 0 93 39 5a
        E 0 9f 35 5a
        E 0 80 48 64
        E 0 81 48 64
        E 0 83 39 64
        E 0 8f 35 64
        E 0 90 48 64
        E 0 91 48 64
        E 0 92 4f 64
        E 1 93 3c 5a
        E 0 9f 30 5a
        E 0 83 3c 64
        E 0 8f 30 64
        E 0 93 3c 5a
        E 0 9f 30 5a
        E 0 83 3c 64
        E 0 8f 30 64
        E 0 93 3c 5a
        E 0 9f 30 5a
        E 0 83 3c 64
        E 0 8f 30 64
        E 0 93 3c 5a
        E 0 9f 30 5a
        E 0 82 4f 64
        E 0 83 3c 64
        E 0 8f 30 64
        E 0 92 51 64
        E 0 93 3c 5a
        E 0 9f 30 5a
        E 0 83 3c 64
        E 0 8f 30 64
        E 0 93 3c 5a
        E 0 9f 30 5a
        E 0 83 3c 64
        E 0 8f 30 64
        E 0 93 3c 5a
        E 0 9f 30 5a
        E 0 83 3c 64
        E 0 8f 30 64
        E 0 93 3c 5a
        E 0 9f 30 5a
        E 0 80 48 64
        E 0 81 48 64
        E 0 82 51 64
        E 0 83 3c 64
        E 0 8f 30 64
        E 0 90 48 64
        E 0 91 48 64
        E 0 92 52 66
        E 0 93 3c 5a
        E 0 9f 30 5a
        E 0 83 3c 64
        E 0 8f 30 64
        E 0 93 3c 5a
        E 0 9f 30 5a
        E 0 83 3c 64
        E 0 8f 30 64
        E 0 93 3c 5a
        E 0 9f 30 5a
        E 0 83 3c 64
        E 0 8f 30 64
        E 0 93 3c 5a
        E 0 9f 30 5a
        E 0 82 52 66
        E 0 83 3c 64
        E 0 8f 30 64
        E 0 92 54 64
        E 0 93 3c 5a
        E 0 9f 30 5a
        E 0 82 54 64
        E 0 92 54 64
        E 0 82 54 64
        E 0 83 3c 64
        E 0 8f 30 64
        E 0 92 56 64
        E 0 92 54 64
        E 0 93 3c 5a
        E 0 9f 30 5a
        E 0 82 54 64
        E 0 92 52 66
        E 0 82 52 66
        E 0 92 54 64
        E 0 82 56 64
        E 0 82 54 64
        E 0 83 3c 64
        E 0 8f 30 64
        E 0 93 3c 5a
        E 0 9f 30 5a
        E 0 92 52 66
        E 0 82 52 66
        E 0 83 3c 64
        E 0 8f 30 64
        E 0 92 54 64
        E 0 92 52 66
        E 0 93 3c 5a
        E 0 9f 30 5a
        E 0 82 52 66
        E 0 92 50 66
        E 0 82 50 66
        E 0 92 52 66
        E 0 80 48 64
        E 0 81 48 64
        E 0 82 54 64
        E 0 82 52 66
        E 0 83 3c 64
        E 0 8f 30 64
        E 0 90 48 64
        E 0 91 48 64
        E 0 93 3c 5a
        E 0 9f 30 5a
        E 0 92 50 66
        E 0 82 50 66
        E 0 83 3c 64
        E 0 8f 30 64
        E 0 92 52 66
        E 0 92 50 66
        E 0 93 3c 5a
        E 0 9f 30 5a
        E 0 82 50 66
        E 0 92 4f 64
        E 0 82 4f 64
        E 0 92 50 66
        E 1 82 52 66
        E 0 82 50 66
        E 0 83 3c 64
        E 0 8f 30 64
        E 0 93 3c 5a
        E 0 9f 30 5a
        E 0 92 4f 64
        E 0 82 4f 64
        E 0 83 3c 64
        E 0 8f 30 64
        E 0 92 50 66
        E 0 92 4f 64
        E 0 93 3c 5a
        E 0 9f 30 5a
        E 0 82 4f 64
        E 0 92 4d 64
        E 0 82 4d 64
        E 0 92 4f 64
        E 0 80 48 64
        E 0 81 48 64
        E 0 82 50 66
        E 0 82 4f 64
        E 0 83 3c 64
        E 0 8f 30 64
        E 0 90 48 64
        E 0 91 48 64
        E 0 92 51 64
        E 0 93 3c 5a
        E 0 9f 35 5a
        E 0 82 51 64
        E 0 92 48 64
        E 0 82 48 64
        E 0 83 3c 64
        E 0 8f 35 64
        E 0 92 48 64
        E 0 93 3c 5a
        E 0 9f 35 5a
        E 0 82 48 64
        E 1 92 48 64
        E 0 82 48 64
        E 0 83 3c 64
        E 0 8f 35 64
        E 0 92 48 64
        E 0 93 3c 5a
        E 0 9f 35 5a
        E 2 82 48 64
        E 0 92 48 64
        E 0 82 48 64
        E 0 83 3c 64
        E 0 8f 35 64
        E 0 92 48 64
        E 0 93 3c 5a
        E 0 9f 35 5a
        E 0 82 48 64
        E 0 92 48 64
        E 0 82 48 64
        E 0 83 3c 64
        E 0 8f 35 64
        E 0 92 4d 64
        E 0 93 39 5a
        E 0 9f 35 5a
        E 0 82 4d 64
        E 0 83 39 64
        E 0 8f 35 64
        E 0 92 48 64
        E 0 93 39 5a
        E 0 9f 35 5a
        E 0 82 48 64
        E 0 92 41 64
        E 0 82 41 64
        E 0 83 39 64
        E 0 8f 35 64
        E 0 92 43 64
        E 0 93 3c 5a
        E 0 9f 30 5a
        E 0 83 3c 64
        E 0 8f 30 64
        E 0 93 3c 5a
        E 0 9f 30 5a
        E 0 80 48 64
        E 0 81 48 64
        E 0 82 43 64
        E 0 83 3c 64
        E 0 8f 30 64
        E 0 90 41 64
        E 0 91 41 64
        E 0 92 41 64
        E 0 93 39 5a
        E 0 9f 35 5a
        E 0 82 41 64
        E 0 83 39 64
        E 0 8f 35 64
        E 0 92 48 64
        E 0 93 39 5a
        E 0 9f 35 5a
        E 0 82 48 64
        E 0 92 41 64
        E 38404 80 41 64
        E 0 81 41 64
        E 0 82 41 64
        E 0 83 39 64
        E 0 8f 35 64
        E 0 90 48 64
        E 0 91 48 64
        E 0 92 43 64
        E 0 93 3c 5a
        E 0 9f 30 5a
        E 0 83 3c 64
        E 0 8f 30 64
        E 0 93 3c 5a
        E 0 9f 30 5a
        E 0 80 48 64
        E 0 81 48 64
        E 0 82 43 64
        E 0 83 3c 64
        E 0 8f 30 64
        E 0 90 41 64
        E 0 91 41 64
        E 0 92 41 64
        E 0 93 39 5a
        E 0 96 41 64
        E 0 9f 35 5a
        E 0 8f 35 64
        E 0 9f 35 5a
        E 0 8f 35 64
        E 0 9f 35 5a
        E 0 8f 35 64
        E 1 9f 35 5a
        E 0 80 41 64
        E 0 81 41 64
        E 0 82 41 64
        E 0 83 39 64
        E 0 86 41 64
        E 0 8f 35 64
        E 0 90 41 64
        E 0 91 41 64
        E 0 92 48 64
        E 0 93 41 5a
        E 0 96 45 64
        E 0 9f 35 5a
        E 0 8f 35 64
        E 0 9f 35 5a
        E 0 8f 35 64
        E 0 9f 35 5a
        E 0 8f 35 64
        E 0 9f 35 5a
        E 0 82 48 64
        E 0 83 41 64
        E 0 86 45 64
        E 0 8f 35 64
        E 0 92 51 64
        E 0 93 41 5a
        E 0 96 48 64
        E 0 9f 35 5a
        E 0 82 51 64
        E 0 92 4f 64
        E 0 82 4f 64
        E 0 86 48 64
        E 0 92 4d 64
        E 0 96 45 64
        E 0 83 41 64
        E 0 86 45 64
        E 0 8f 35 64
        E 0 93 3c 5a
        E 0 96 43 64
        E 0 96 41 64
        E 0 9f 35 5a
        E 0 82 4d 64
        E 0 83 3c 64
        E 0 86 43 64
        E 0 8f 35 64
        E 0 92 48 64
        E 0 93 41 5a
        E 0 9f 35 5a
        E 0 82 48 64
        E 0 92 46 66
        E 0 82 46 66
        E 0 92 45 64
        E 0 83 41 64
        E 0 86 41 64
        E 0 8f 35 64
        E 0 93 3c 5a
        E 0 96 41 64
        E 0 9f 35 5a
        E 0 80 41 64
        E 0 81 41 64
        E 0 82 45 64
        E 0 83 3c 64
        E 0 86 41 64
        E 0 8f 35 64
        E 0 90 41 64
        E 0 91 41 64
        E 0 92 4a 64
        E 0 93 41 5a
        E 0 96 4a 64
        E 0 9f 35 5a
        E 0 82 4a 64
        E 0 83 41 64
        E 0 86 4a 64
        E 0 8f 35 64
        E 1 92 4a 64
        E 0 93 41 5a
        E 0 96 48 64
        E 0 96 46 66
        E 0 9f 35 5a
        E 0 82 4a 64
        E 0 92 4c 64
        E 0 82 4c 64
        E 0 92 4d 64
        E 0 82 4d 64
        E 0 92 4f 64
        E 0 82 4f 64
        E 0 92 51 64
        E 0 82 51 64
        E 0 83 41 64
        E 0 86 48 64
        E 0 8f 35 64
        E 0 92 52 66
        E 0 93 41 5a
        E 0 9f 35 5a
        E 0 82 52 66
        E 0 83 41 64
        E 0 86 46 66
        E 0 8f 35 64
        E 0 92 4a 64
        E 0 93 41 5a
        E 0 96 4a 64
        E 0 9f 35 5a
        E 0 82 4a 64
        E 0 83 41 64
        E 0 86 4a 64
        E 0 8f 35 64
        E 0 92 48 64
        E 0 93 41 5a
        E 0 96 48 64
        E 0 9f 35 5a
        E 0 82 48 64
        E 0 83 41 64
        E 0 86 48 64
        E 0 8f 35 64
        E 0 92 48 64
        E 0 93 41 5a
        E 0 96 46 66
        E 0 96 45 64
        E 0 9f 35 5a
        E 0 82 48 64
        E 0 92 4a 64
        E 0 82 4a 64
        E 0 92 4c 64
        E 0 82 4c 64
        E 0 92 4d 64
        E 0 82 4d 64
        E 0 92 4f 64
        E 0 82 4f 64
        E 0 83 41 64
        E 0 86 46 66
        E 0 8f 35 64
        E 0 92 51 64
        E 0 93 3c 5a
        E 0 9f 35 5a
        E 0 82 51 64
        E 0 83 3c 64
        E 0 86 45 64
        E 0 8f 35 64
        E 0 92 48 64
        E 0 93 3c 5a
        E 0 96 48 64
        E 0 9f 35 5a
        E 0 80 41 64
        E 0 81 41 64
        E 0 82 48 64
        E 0 83 3c 64
        E 0 86 48 64
        E 0 8f 35 64
        E 0 90 48 64
        E 0 91 48 64
        E 0 92 46 66
        E 0 93 40 5a
        E 0 96 46 66
        E 0 9f 30 5a
        E 0 82 46 66
        E 0 83 40 64
        E 0 86 46 66
        E 0 8f 30 64
        E 0 92 46 66
        E 0 93 40 5a
        E 0 96 45 64
        E 0 96 43 64
        E 0 9f 30 5a
        E 0 82 46 66
        E 0 92 48 64
        E 0 82 48 64
        E 0 92 4a 64
        E 0 82 4a 64
        E 0 92 4c 64
        E 0 82 4c 64
        E 0 92 4d 64
        E 0 82 4d 64
        E 0 83 40 64
        E 0 86 45 64
        E 0 8f 30 64
        E 0 92 4f 64
        E 0 93 40 5a
        E 1 9f 30 5a
        E 0 82 4f 64
        E 0 83 40 64
        E 0 86 43 64
        E 0 8f 30 64
        E 0 92 46 66
        E 0 93 40 5a
        E 0 96 46 66
        E 0 9f 30 5a
        E 0 82 46 66
        E 0 83 40 64
        E 0 86 46 66
        E 0 8f 30 64
        E 0 92 45 64
        E 0 93 3c 5a
        E 0 96 45 64
        E 0 9f 35 5a
        E 0 86 45 64
        E 0 96 43 64
        E 0 82 45 64
        E 0 83 3c 64
        E 0 86 43 64
        E 0 8f 35 64
        E 0 92 48 64
        E 0 93 41 5a
        E 0 96 41 64
        E 0 9f 35 5a
        E 0 82 48 64
        E 0 83 41 64
        E 0 86 41 64
        E 0 8f 35 64
        E 0 92 48 64
        E 0 93 41 5a
        E 0 9f 35 5a
        E 0 82 48 64
        E 0 83 41 64
        E 0 8f 35 64
        E 0 92 48 64
        E 0 93 41 5a
        E 0 96 41 64
        E 0 9f 35 5a
        E 0 86 41 64
        E 0 96 41 64
        E 0 80 48 64
        E 0 81 48 64
        E 0 82 48 64
        E 0 83 41 64
        E 0 86 41 64
        E 0 8f 35 64
        E 0 92 4a 64
        E 0 93 41 5a
        E 0 96 4a 64
        E 0 9f 2f 5a
        E 0 82 4a 64
        E 0 83 41 64
        E 0 86 4a 64
        E 0 8f 2f 64
        E 0 92 4a 64
        E 0 93 41 5a
        E 0 96 48 64
        E 0 96 47 64
        E 0 9f 2f 5a
        E 0 82 4a 64
        E 0 83 41 64
        E 0 86 48 64
        E 0 86 47 64
        E 0 8f 2f 64
        E 0 92 4a 64
        E 0 93 3e 5a
        E 0 96 45 64
        E 0 96 43 64
        E 0 9f 2f 5a
        E 0 82 4a 64
        E 0 83 3e 64
        E 0 86 45 64
        E 0 86 43 64
        E 0 8f 2f 64
        E 1 92 47 64
        E 0 93 3e 5a
        E 0 96 41 64
        E 0 9f 2f 5a
        E 0 82 47 64
        E 0 83 3e 64
        E 0 86 41 64
        E 0 8f 2f 64
        E 0 92 43 64
        E 0 93 3c 5a
        E 0 96 41 64
        E 0 9f 30 5a
        E 0 82 43 64
        E 0 83 3c 64
        E 0 86 41 64
        E 0 8f 30 64
        E 0 92 43 64
        E 0 93 3c 5a
        E 0 96 40 64
        E 0 9f 30 5a
        E 0 82 43 64
        E 0 83 3c 64
        E 0 86 40 64
        E 0 8f 30 64
        E 0 93 3c 5a
        E 0 96 43 64
        E 0 9f 30 5a
        E 0 83 3c 64
        E 0 86 43 64
        E 0 8f 30 64
        E 0 93 3c 5a
        E 0 96 46 66
        E 0 9f 30 5a
        E 0 83 3c 64
        E 0 86 46 66
        E 0 8f 30 64
        E 0 92 45 64
        E 0 93 3c 5a
        E 0 96 45 64
        E 0 9f 35 5a
        E 0 83 3c 64
        E 0 86 45 64
        E 0 8f 35 64
        E 0 93 3c 5a
        E 0 96 46 66
        E 0 96 45 64
        E 0 9f 35 5a
        E 0 86 45 64
        E 0 96 43 64
        E 0 86 43 64
        E 0 96 45 64
        E 0 83 3c 64
        E 0 86 46 66
        E 0 86 45 64
        E 0 8f 35 64
        E 0 93 3c 5a
        E 0 9f 35 5a
        E 0 96 41 64
        E 0 96 43 64
        E 0 86 41 64
        E 0 83 3c 64
        E 0 8f 35 64
        E 0 93 3c 5a
        E 0 96 45 64
        E 0 9f 35 5a
        E 0 86 43 64
        E 0 96 47 64
        E 0 86 45 64
        E 0 96 48 64
        E 0 86 47 64
        E 0 82 45 64
        E 0 83 3c 64
        E 0 8f 35 64
        E 0 92 47 64
        E 0 93 37 5a
        E 0 96 47 64
        E 0 9f 2b 5a
        E 0 86 48 64
        E 0 83 37 64
        E 0 86 47 64
        E 0 8f 2b 64
        E 0 93 37 5a
        E 0 96 48 64
        E 0 96 47 64
        E 0 9f 2b 5a
        E 0 86 47 64
        E 0 96 45 64
        E 0 86 45 64
        E 0 96 47 64
        E 0 83 37 64
        E 0 86 48 64
        E 0 86 47 64
        E 0 8f 2b 64
        E 0 93 37 5a
        E 0 9f 2b 5a
        E 0 96 43 64
        E 0 96 45 64
        E 0 86 43 64
        E 0 83 37 64
        E 0 8f 2b 64
        E 0 93 37 5a
        E 0 96 47 64
        E 0 9f 2b 5a
        E 0 86 45 64
        E 0 96 48 64
        E 0 86 47 64
        E 0 96 4a 64
        E 0 86 48 64
        E 0 82 47 64
        E 0 83 37 64
        E 0 8f 2b 64
        E 1 92 48 64
        E 0 93 37 5a
        E 0 96 48 64
        E 0 9f 2b 5a
        E 0 86 4a 64
        E 0 83 37 64
        E 0 8f 2b 64
        E 0 93 37 5a
        E 0 9f 2b 5a
        E 0 83 37 64
        E 0 8f 2b 64
        E 0 93 37 5a
        E 0 9f 2b 5a
        E 0 83 37 64
        E 0 8f 2b 64
        E 0 93 37 5a
        E 0 9f 2b 5a
        E 0 82 48 64
        E 0 83 37 64
        E 0 86 48 64
        E 0 8f 2b 64
        E 0 92 4a 64
        E 0 93 37 5a
        E 0 96 4a 64
        E 0 9f 2b 5a
        E 0 83 37 64
        E 0 86 4a 64
        E 0 8f 2b 64
        E 0 93 37 5a
        E 0 96 48 64
        E 0 96 47 64
        E 0 9f 2b 5a
        E 0 83 37 64
        E 0 86 48 64
        E 0 86 47 64
        E 0 8f 2b 64
        E 0 93 37 5a
        E 0 96 45 64
        E 0 96 43 64
        E 0 9f 2b 5a
        E 0 83 37 64
        E 0 86 45 64
        E 0 86 43 64
        E 0 8f 2b 64
        E 0 93 37 5a
        E 0 96 41 64
        E 0 9f 2b 5a
        E 0 82 4a 64
        E 0 83 37 64
        E 0 86 41 64
        E 0 8f 2b 64
        E 0 92 4c 64
        E 0 93 37 5a
        E 0 96 40 64
        E 0 9f 2b 5a
        E 0 82 4c 64
        E 0 83 37 64
        E 0 86 40 64
        E 0 8f 2b 64
        E 0 92 40 64
        E 0 93 37 5a
        E 0 96 48 64
        E 0 9f 2b 5a
        E 0 82 40 64
        E 0 83 37 64
        E 0 86 48 64
        E 0 8f 2b 64
        E 0 92 3e 64
        E 0 93 37 5a
        E 0 96 40 64
        E 0 9f 2b 5a
        E 0 82 3e 64
        E 0 83 37 64
        E 0 86 40 64
        E 0 8f 2b 64
        E 0 92 3e 64
        E 1 93 37 5a
        E 0 96 3e 64
        E 0 9f 2b 5a
        E 0 86 3e 64
        E 0 96 3c 64
        E 0 82 3e 64
        E 0 83 37 64
        E 0 86 3c 64
        E 0 8f 2b 64
        E 0 90 48 64
        E 0 91 48 64
        E 0 92 3c 64
        E 0 93 40 5a
        E 0 96 3c 64
        E 0 9f 30 5a
        E 0 83 40 64
        E 0 8f 30 64
        E 0 93 40 5a
        E 0 9f 30 5a
        E 0 83 40 64
        E 0 86 3c 64
        E 0 8f 30 64
        E 0 93 40 5a
        E 0 9f 30 5a
        E 0 83 40 64
        E 0 8f 30 64
        E 0 93 40 5a
        E 0 9f 30 5a
        E 0 80 48 64
        E 0 81 48 64
        E 0 82 3c 64
        E 0 83 40 64
        E 0 8f 30 64
        E 0 90 48 64
        E 0 91 48 64
        E 0 92 43 64
        E 0 93 3c 5a
        E 0 9f 30 5a
        E 0 83 3c 64
        E 0 8f 30 64
        E 0 93 3c 5a
        E 0 9f 30 5a
        E 0 83 3c 64
        E 0 8f 30 64
        E 0 93 3c 5a
        E 0 9f 30 5a
        E 0 83 3c 64
        E 0 8f 30 64
        E 0 93 3c 5a
        E 0 9f 30 5a
        E 0 82 43 64
        E 0 83 3c 64
        E 0 8f 30 64
        E 0 92 4c 64
        E 1 93 43 5a
        E 0 9f 30 5a
        E 0 82 4c 64
        E 0 92 4a 64
        E 0 82 4a 64
        E 0 92 48 64
        E 0 83 43 64
        E 0 8f 30 64
        E 0 93 40 5a
        E 0 9f 30 5a
        E 0 82 48 64
        E 0 83 40 64
        E 0 8f 30 64
        E 0 92 43 64
        E 0 93 3c 5a
        E 0 9f 30 5a
        E 0 82 43 64
        E 0 92 41 64
        E 0 82 41 64
        E 0 92 40 64
        E 0 83 3c 64
        E 0 8f 30 64
        E 0 93 37 5a
        E 0 9f 30 5a
        E 0 80 48 64
        E 0 81 48 64
        E 0 82 40 64
        E 0 83 37 64
        E 0 8f 30 64
        E 0 90 48 64
        E 0 91 48 64
        E 0 92 4c 64
        E 0 93 43 5a
        E 0 9f 30 5a
        E 0 82 4c 64
        E 0 92 4a 64
        E 0 82 4a 64
        E 0 92 48 64
        E 0 83 43 64
        E 0 8f 30 64
        E 0 93 40 5a
        E 0 9f 30 5a
        E 0 82 48 64
        E 0 83 40 64
        E 0 8f 30 64
        E 0 92 4f 64
        E 0 93 3c 5a
        E 0 9f 30 5a
        E 0 82 4f 64
        E 0 92 4d 64
        E 0 82 4d 64
        E 0 92 4c 64
        E 0 83 3c 64
        E 0 8f 30 64
        E 0 93 37 5a
        E 0 9f 30 5a
        E 0 82 4c 64
        E 0 83 37 64
        E 0 8f 30 64
        E 0 92 54 64
        E 0 93 40 5a
        E 0 9f 30 5a
        E 0 82 54 64
        E 0 92 4f 64
        E 0 82 4f 64
        E 0 83 40 64
        E 0 8f 30 64
        E 0 92 4f 64
        E 0 93 3c 5a
        E 0 9f 30 5a
        E 1 82 4f 64
        E 0 92 4f 64
        E 0 82 4f 64
        E 0 83 3c 64
        E 0 8f 30 64
        E 0 92 4f 64
        E 0 93 3c 5a
        E 0 9f 30 5a
        E 0 82 4f 64
        E 0 92 4f 64
        E 0 82 4f 64
        E 0 83 3c 64
        E 0 8f 30 64
        E 0 92 4f 64
        E 0 93 3c 5a
        E 0 9f 30 5a
        E 0 82 4f 64
        E 0 92 4f 64
        E 0 80 48 64
        E 0 81 48 64
        E 0 82 4f 64
        E 0 83 3c 64
        E 0 8f 30 64
        E 0 90 48 64
        E 0 91 48 64
        E 0 92 54 64
        E 0 93 3c 5a
        E 0 9f 30 5a
        E 0 82 54 64
        E 0 83 3c 64
        E 0 8f 30 64
        E 0 92 4c 64
        E 0 93 37 5a
        E 0 9f 30 5a
        E 0 82 4c 64
        E 0 92 4d 64
        E 38403 80 48 64
        E 0 81 48 64
        E 0 82 4d 64
        E 0 83 37 64
        E 0 8f 30 64
        E 0 90 4f 64
        E 0 91 4f 64
        E 0 92 4a 64
        E 0 93 37 5a
        E 0 9f 37 5a
        E 0 83 37 64
        E 0 8f 37 64
        E 0 93 37 5a
        E 0 9f 2b 5a
        E 0 80 4f 64
        E 0 81 4f 64
        E 0 82 4a 64
        E 0 83 37 64
        E 0 8f 2b 64
        E 0 90 48 64
        E 0 91 48 64
        E 0 92 3c 64
        E 0 93 40 5a
        E 0 96 3c 64
        E 0 9f 30 5a
        E 0 83 40 64
        E 0 8f 30 64
        E 0 93 40 5a
        E 0 9f 30 5a
        E 1 83 40 64
        E 0 8f 30 64
        E 0 93 40 5a
        E 0 9f 30 5a
        E 0 83 40 64
        E 0 8f 30 64
        E 0 93 40 5a
        E 0 9f 30 5a
        E 0 80 48 64
        E 0 81 48 64
        E 0 82 3c 64
        E 0 83 40 64
        E 0 86 3c 64
        E 0 8f 30 64
        E 0 90 48 64
        E 0 91 48 64
        E 0 92 43 64
        E 0 93 3c 5a
        E 0 96 43 64
        E 0 9f 30 5a
        E 0 83 3c 64
        E 0 8f 30 64
        E 0 93 3c 5a
        E 0 9f 30 5a
        E 0 83 3c 64
        E 0 8f 30 64
        E 0 93 3c 5a
        E 0 9f 30 5a
        E 0 83 3c 64
        E 0 8f 30 64
        E 0 93 3c 5a
        E 0 9f 30 5a
        E 0 82 43 64
        E 0 83 3c 64
        E 0 86 43 64
        E 0 8f 30 64
        E 0 92 4c 64
        E 0 93 3c 5a
        E 0 96 48 64
        E 0 9f 30 5a
        E 0 82 4c 64
        E 0 92 4a 64
        E 0 82 4a 64
        E 0 92 48 64
        E 0 83 3c 64
        E 0 8f 30 64
        E 0 93 3c 5a
        E 0 9f 30 5a
        E 0 86 48 64
        E 0 96 47 64
        E 0 86 47 64
        E 0 96 48 64
        E 0 82 48 64
        E 0 83 3c 64
        E 0 86 48 64
        E 0 8f 30 64
        E 0 92 4f 64
        E 0 93 3c 5a
        E 0 96 3c 64
        E 0 9f 30 5a
        E 0 82 4f 64
        E 0 92 4d 64
        E 0 82 4d 64
        E 0 92 4c 64
        E 0 83 3c 64
        E 0 86 3c 64
        E 0 8f 30 64
        E 0 93 3c 5a
        E 0 96 48 64
        E 0 9f 34 5a
        E 0 80 48 64
        E 0 81 48 64
        E 0 82 4c 64
        E 0 83 3c 64
        E 0 86 48 64
        E 0 8f 34 64
        E 0 92 4e 64
        E 0 93 3e 5a
        E 0 96 3e 64
        E 0 9f 32 5a
        E 0 82 4e 64
        E 0 92 4c 64
        E 0 82 4c 64
        E 0 92 4a 64
        E 0 83 3e 64
        E 0 86 3e 64
        E 0 8f 32 64
        E 1 93 3e 5a
        E 0 96 42 64
        E 0 9f 32 5a
        E 0 82 4a 64
        E 0 83 3e 64
        E 0 86 42 64
        E 0 8f 32 64
        E 0 92 51 64
        E 0 93 3e 5a
        E 0 96 45 64
        E 0 9f 32 5a
        E 0 82 51 64
        E 0 92 4f 64
        E 0 82 4f 64
        E 0 92 4e 64
        E 0 83 3e 64
        E 0 86 45 64
        E 0 8f 32 64
        E 0 93 3e 5a
        E 0 96 48 64
        E 0 9f 32 5a
        E 0 82 4e 64
        E 0 83 3e 64
        E 0 86 48 64
        E 0 8f 32 64
        E 0 92 52 66
        E 0 93 3e 5a
        E 0 96 46 66
        E 0 9f 37 5a
        E 0 82 52 66
        E 0 86 46 66
        E 0 92 51 64
        E 0 96 45 64
        E 0 82 51 64
        E 0 86 45 64
        E 0 92 4f 64
        E 0 96 43 64
        E 0 83 3e 64
        E 0 86 43 64
        E 0 8f 37 64
        E 0 93 3e 5a
        E 0 9f 37 5a
        E 0 82 4f 64
        E 0 83 3e 64
        E 0 8f 37 64
        E 0 92 4a 64
        E 0 93 3e 5a
        E 0 9f 37 5a
        E 0 82 4a 64
        E 0 92 48 64
        E 0 82 48 64
        E 0 92 46 66
        E 0 83 3e 64
        E 0 8f 37 64
        E 0 93 3e 5a
        E 0 96 46 66
        E 0 9f 37 5a
        E 0 82 46 66
        E 0 83 3e 64
        E 0 86 46 66
        E 0 8f 37 64
        E 0 92 4c 64
        E 0 93 3c 5a
        E 0 96 3c 64
        E 0 9f 30 5a
        E 0 82 4c 64
        E 0 92 4a 64
        E 0 82 4a 64
        E 0 92 48 64
        E 0 83 3c 64
        E 0 86 3c 64
        E 0 8f 30 64
        E 0 93 3c 5a
        E 0 96 40 64
        E 0 9f 30 5a
        E 0 82 48 64
        E 0 83 3c 64
        E 0 86 40 64
        E 0 8f 30 64
        E 0 92 4f 64
        E 0 93 3c 5a
        E 0 96 43 64
        E 0 9f 30 5a
        E 0 82 4f 64
        E 0 92 4d 64
        E 0 82 4d 64
        E 0 92 4c 64
        E 0 83 3c 64
        E 0 86 43 64
        E 0 8f 30 64
        E 0 93 3c 5a
        E 0 96 46 66
        E 0 9f 30 5a
        E 0 82 4c 64
        E 0 83 3c 64
        E 0 86 46 66
        E 0 8f 30 64
        E 0 90 48 64
        E 0 91 48 64
        E 0 92 51 64
        E 0 93 3c 5a
        E 0 96 45 64
        E 0 9f 35 5a
        E 0 82 51 64
        E 0 86 45 64
        E 0 92 4f 64
        E 0 96 43 64
        E 0 82 4f 64
        E 0 86 43 64
        E 0 92 4d 64
        E 0 96 41 64
        E 0 83 3c 64
        E 1 8f 35 64
        E 0 93 3c 5a
        E 0 9f 35 5a
        E 0 86 41 64
        E 0 82 4d 64
        E 0 83 3c 64
        E 0 8f 35 64
        E 0 93 3c 5a
        E 0 96 41 64
        E 0 9f 35 5a
        E 0 83 3c 64
        E 0 86 41 64
        E 0 8f 35 64
        E 0 93 3c 5a
        E 0 96 41 64
        E 0 9f 35 5a
        E 0 80 48 64
        E 0 81 48 64
        E 0 83 3c 64
        E 0 86 41 64
        E 0 8f 35 64
        E 0 90 48 64
        E 0 91 48 64
        E 0 92 4f 64
        E 0 93 3c 5a
        E 0 96 41 64
        E 0 9f 30 5a
        E 0 83 3c 64
        E 0 86 41 64
        E 0 8f 30 64
        E 0 93 3c 5a
        E 0 96 40 64
        E 0 9f 30 5a
        E 0 86 40 64
        E 0 96 41 64
        E 0 83 3c 64
        E 0 86 41 64
        E 0 8f 30 64
        E 0 93 3c 5a
        E 0 96 43 64
        E 0 9f 30 5a
        E 0 83 3c 64
        E 0 86 43 64
        E 0 8f 30 64
        E 0 93 3c 5a
        E 0 96 43 64
        E 0 9f 30 5a
        E 0 82 4f 64
        E 0 83 3c 64
        E 0 86 43 64
        E 0 8f 30 64
        E 0 92 51 64
        E 0 93 3c 5a
        E 0 96 43 64
        E 0 9f 30 5a
        E 0 83 3c 64
        E 0 86 43 64
        E 0 8f 30 64
        E 0 93 3c 5a
        E 0 96 41 64
        E 0 9f 30 5a
        E 0 86 41 64
        E 0 96 43 64
        E 0 83 3c 64
        E 0 86 43 64
        E 0 8f 30 64
        E 0 93 3c 5a
        E 0 96 45 64
        E 0 9f 30 5a
        E 0 83 3c 64
        E 0 86 45 64
        E 0 8f 30 64
        E 1 93 3c 5a
        E 0 96 45 64
        E 0 9f 30 5a
        E 0 80 48 64
        E 0 81 48 64
        E 0 82 51 64
        E 0 83 3c 64
        E 0 86 45 64
        E 0 8f 30 64
        E 0 90 48 64
        E 0 91 48 64
        E 0 92 52 66
        E 0 93 3c 5a
        E 0 96 45 64
        E 0 9f 30 5a
        E 0 83 3c 64
        E 0 86 45 64
        E 0 8f 30 64
        E 0 93 3c 5a
        E 0 96 43 64
        E 0 9f 30 5a
        E 0 86 43 64
        E 0 96 45 64
        E 0 83 3c 64
        E 0 86 45 64
        E 0 8f 30 64
        E 0 93 3c 5a
        E 0 96 46 66
        E 0 9f 30 5a
        E 0 83 3c 64
        E 0 86 46 66
        E 0 8f 30 64
        E 0 93 3c 5a
        E 0 96 46 66
        E 0 9f 30 5a
        E 0 82 52 66
        E 0 83 3c 64
        E 0 86 46 66
        E 0 8f 30 64
        E 0 92 54 64
        E 0 93 3c 5a
        E 0 96 44 66
        E 0 9f 30 5a
        E 0 96 48 64
        E 0 82 54 64
        E 0 86 44 66
        E 0 92 54 64
        E 0 96 46 66
        E 0 86 48 64
        E 0 82 54 64
        E 0 83 3c 64
        E 0 8f 30 64
        E 0 92 56 64
        E 0 92 54 64
        E 0 93 3c 5a
        E 0 96 44 66
        E 0 9f 30 5a
        E 0 86 46 66
        E 0 82 54 64
        E 0 92 52 66
        E 0 96 43 64
        E 0 82 52 66
        E 0 86 44 66
        E 0 92 54 64
        E 0 96 41 64
        E 0 86 43 64
        E 0 82 56 64
        E 0 82 54 64
        E 0 83 3c 64
        E 0 8f 30 64
        E 0 93 3c 5a
        E 0 96 43 64
        E 0 9f 30 5a
        E 0 86 41 64
        E 0 96 46 66
        E 0 86 43 64
        E 0 92 52 66
        E 0 96 44 66
        E 0 86 46 66
        E 0 82 52 66
        E 0 83 3c 64
        E 0 8f 30 64
        E 0 92 54 64
        E 0 92 52 66
        E 0 93 3c 5a
        E 0 96 43 64
        E 0 9f 30 5a
        E 0 86 44 66
        E 0 82 52 66
        E 1 92 50 66
        E 0 96 41 64
        E 0 82 50 66
        E 0 86 43 64
        E 0 92 52 66
        E 0 96 40 64
        E 0 86 41 64
        E 0 80 48 64
        E 0 81 48 64
        E 0 82 54 64
        E 0 82 52 66
        E 0 83 3c 64
        E 0 8f 30 64
        E 0 90 48 64
        E 0 91 48 64
        E 0 93 3c 5a
        E 0 96 44 66
        E 0 9f 30 5a
        E 0 86 40 64
        E 0 96 48 64
        E 0 86 44 66
        E 0 92 50 66
        E 0 96 46 66
        E 0 86 48 64
        E 0 82 50 66
        E 0 83 3c 64
        E 0 8f 30 64
        E 0 92 52 66
        E 0 92 50 66
        E 0 93 3c 5a
        E 0 96 44 66
        E 0 9f 30 5a
        E 0 86 46 66
        E 0 82 50 66
        E 0 92 4f 64
        E 0 96 43 64
        E 0 82 4f 64
        E 0 86 44 66
        E 0 92 50 66
        E 0 96 41 64
        E 0 86 43 64
        E 0 82 52 66
        E 0 82 50 66
        E 0 83 3c 64
        E 0 8f 30 64
        E 0 93 3c 5a
        E 0 96 43 64
        E 0 9f 30 5a
        E 0 86 41 64
        E 0 96 46 66
        E 0 86 43 64
        E 0 92 4f 64
        E 0 96 44 66
        E 0 86 46 66
        E 0 82 4f 64
        E 0 83 3c 64
        E 0 8f 30 64
        E 0 92 50 66
        E 0 92 4f 64
        E 0 93 3c 5a
        E 0 96 43 64
        E 0 9f 30 5a
        E 0 86 44 66
        E 0 82 4f 64
        E 0 92 4d 64
        E 0 96 41 64
        E 0 82 4d 64
        E 0 86 43 64
        E 0 92 4f 64
        E 0 96 40 64
        E 1 86 41 64
        E 0 82 50 66
        E 0 82 4f 64
        E 0 83 3c 64
        E 0 8f 30 64
        E 0 92 51 64
        E 0 93 3c 5a
        E 0 96 41 64
        E 0 9f 35 5a
        E 0 86 40 64
        E 0 82 51 64
        E 0 92 48 64
        E 0 82 48 64
        E 0 83 3c 64
        E 0 86 41 64
        E 0 8f 35 64
        E 0 92 48 64
        E 0 93 3c 5a
        E 0 96 41 64
        E 0 9f 35 5a
        E 0 86 41 64
        E 0 96 43 64
        E 0 82 48 64
        E 0 86 43 64
        E 0 92 48 64
        E 0 96 45 64
        E 0 86 45 64
        E 0 96 46 66
        E 0 82 48 64
        E 0 83 3c 64
        E 0 86 46 66
        E 0 8f 35 64
        E 0 92 48 64
        E 0 93 3c 5a
        E 0 96 48 64
        E 0 9f 35 5a
        E 0 82 48 64
        E 0 92 48 64
        E 0 82 48 64
        E 0 83 3c 64
        E 0 86 48 64
        E 0 8f 35 64
        E 0 92 48 64
        E 0 93 3c 5a
        E 0 9f 35 5a
        E 0 82 48 64
        E 0 92 48 64
        E 0 80 48 64
        E 0 81 48 64
        E 0 82 48 64
        E 0 83 3c 64
        E 0 8f 35 64
        E 0 90 48 64
        E 0 91 48 64
        E 0 92 51 64
        E 0 93 3c 5a
        E 0 96 48 64
        E 0 9f 35 5a
        E 0 82 51 64
        E 0 92 48 64
        E 0 82 48 64
        E 0 83 3c 64
        E 0 8f 35 64
        E 0 92 48 64
        E 1 93 3c 5a
        E 0 9f 35 5a
        E 0 82 48 64
        E 0 92 48 64
        E 0 82 48 64
        E 0 83 3c 64
        E 0 86 48 64
        E 0 8f 35 64
        E 0 92 48 64
        E 0 93 3c 5a
        E 0 96 3c 64
        E 0 9f 35 5a
        E 0 82 48 64
        E 0 92 48 64
        E 0 82 48 64
        E 0 83 3c 64
        E 0 8f 35 64
        E 0 92 48 64
        E 0 93 3c 5a
        E 0 9f 35 5a
        E 0 82 48 64
        E 0 92 48 64
        E 0 82 48 64
        E 0 83 3c 64
        E 0 86 3c 64
        E 0 8f 35 64
        E 0 92 4a 64
        E 0 93 3a 5b
        E 0 96 3e 64
        E 0 9f 2e 5b
        E 0 82 4a 64
        E 0 83 3a 66
        E 0 8f 2e 66
        E 0 92 4a 64
        E 0 93 3a 5b
        E 0 9f 2e 5b
        E 0 82 4a 64
        E 0 83 3a 66
        E 0 86 3e 64
        E 0 8f 2e 66
        E 0 92 4a 64
        E 0 93 3a 5b
        E 0 96 3e 64
        E 0 9f 2e 5b
        E 0 86 3e 64
        E 0 96 46 66
        E 0 82 4a 64
        E 0 83 3a 66
        E 0 86 46 66
        E 0 8f 2e 66
        E 0 92 4a 64
        E 0 93 3e 5a
        E 0 96 43 64
        E 0 9f 2e 5b
        E 0 86 43 64
        E 0 96 41 64
        E 0 80 48 64
        E 0 81 48 64
        E 0 82 4a 64
        E 0 83 3e 64
        E 0 86 41 64
        E 0 8f 2e 66
        E 0 90 48 64
        E 0 91 48 64
        E 0 92 4c 64
        E 0 93 3c 5a
        E 0 96 40 64
        E 0 9f 30 5a
        E 0 82 4c 64
        E 0 83 3c 64
        E 0 8f 30 64
        E 0 92 4c 64
        E 0 93 3c 5a
        E 0 9f 30 5a
        E 0 82 4c 64
        E 0 83 3c 64
        E 0 86 40 64
        E 0 8f 30 64
        E 1 92 4c 64
        E 0 93 3c 5a
        E 0 96 40 64
        E 0 9f 30 5a
        E 0 86 40 64
        E 0 96 48 64
        E 0 82 4c 64
        E 0 83 3c 64
        E 0 86 48 64
        E 0 8f 30 64
        E 0 92 4c 64
        E 0 93 40 5a
        E 0 96 45 64
        E 0 9f 30 5a
        E 0 86 45 64
        E 0 96 43 64
        E 0 82 4c 64
        E 0 83 40 64
        E 0 86 43 64
        E 0 8f 30 64
        E 0 92 4d 64
        E 0 93 3e 5a
        E 0 96 41 64
        E 0 9f 32 5a
        E 0 82 4d 64
        E 0 83 3e 64
        E 0 8f 32 64
        E 0 92 4d 64
        E 0 93 3e 5a
        E 0 9f 32 5a
        E 0 82 4d 64
        E 0 83 3e 64
        E 0 86 41 64
        E 0 8f 32 64
        E 0 92 4d 64
        E 0 93 3e 5a
        E 0 96 41 64
        E 0 9f 32 5a
        E 0 86 41 64
        E 0 96 4a 64
        E 0 82 4d 64
        E 0 83 3e 64
        E 0 86 4a 64
        E 0 8f 32 64
        E 0 92 4d 64
        E 0 93 41 5a
        E 0 96 46 66
        E 0 9f 32 5a
        E 0 86 46 66
        E 0 96 43 64
        E 0 80 48 64
        E 0 81 48 64
        E 0 82 4d 64
        E 0 83 41 64
        E 0 86 43 64
        E 0 8f 32 64
        E 0 90 48 64
        E 0 91 48 64
        E 0 92 4f 64
        E 0 93 3c 5a
        E 0 96 40 64
        E 0 9f 30 5a
        E 0 82 4f 64
        E 0 83 3c 64
        E 0 8f 30 64
        E 0 92 4f 64
        E 0 93 3c 5a
        E 0 9f 30 5a
        E 0 82 4f 64
        E 0 83 3c 64
        E 0 86 40 64
        E 0 8f 30 64
        E 0 92 4f 64
        E 0 93 3c 5a
        E 0 96 40 64
        E 0 9f 30 5a
        E 0 86 40 64
        E 0 96 3c 64
        E 0 82 4f 64
        E 0 83 3c 64
        E 0 86 3c 64
        E 0 8f 30 64
        E 0 92 4f 64
        E 0 93 3c 5a
        E 0 96 40 64
        E 0 9f 30 5a
        E 0 86 40 64
        E 0 96 43 64
        E 0 80 48 64
        E 0 81 48 64
        E 0 82 4f 64
        E 0 83 3c 64
        E 0 86 43 64
        E 0 8f 30 64
        E 0 90 48 64
        E 0 91 48 64
        E 0 92 51 64
        E 0 93 3c 5a
        E 0 96 45 64
        E 0 9f 35 5a
        E 0 82 51 64
        E 0 83 3c 64
        E 0 86 45 64
        E 0 8f 35 64
        E 0 92 45 64
        E 0 93 3c 5a
        E 0 96 43 64
        E 1 9f 35 5a
        E 0 86 43 64
        E 0 96 41 64
        E 0 82 45 64
        E 0 83 3c 64
        E 0 86 41 64
        E 0 8f 35 64
        E 0 92 43 64
        E 0 93 3c 5a
        E 0 96 43 64
        E 0 9f 30 5a
        E 0 82 43 64
        E 0 83 3c 64
        E 0 8f 30 64
        E 0 92 43 64
        E 0 93 3c 5a
        E 0 9f 30 5a
        E 0 86 43 64
        E 0 96 41 64
        E 0 80 48 64
        E 0 81 48 64
        E 0 82 43 64
        E 0 83 3c 64
        E 0 86 41 64
        E 0 8f 30 64
        E 0 90 41 64
        E 0 91 41 64
        E 0 92 41 64
        E 0 93 39 5a
        E 0 96 41 64
        E 0 9f 35 5a
        E 0 83 39 64
        E 0 8f 35 64
        E 0 93 39 5a
        E 0 9f 35 5a
        E 38403 82 41 64
        E 0 83 39 64
        E 0 86 41 64
        E 0 8f 35 64
        E 1 92 48 64
        E 0 93 41 5a
        E 0 9f 35 5a
        E 0 83 41 64
        E 0 8f 35 64
        E 0 93 41 5a
        E 0 9f 35 5a
        E 0 80 41 64
        E 0 81 41 64
        E 0 82 48 64
        E 0 83 41 64
        E 0 8f 35 64
        E 0 90 41 64
        E 0 91 41 64
        E 0 92 51 64
        E 0 93 41 5a
        E 0 9f 35 5a
        E 0 82 51 64
        E 0 92 4f 64
        E 0 82 4f 64
        E 0 92 4d 64
        E 0 83 41 64
        E 0 8f 35 64
        E 0 93 3c 5a
        E 0 9f 35 5a
        E 0 82 4d 64
        E 0 83 3c 64
        E 0 8f 35 64
        E 0 92 48 64
        E 0 93 41 5a
        E 0 9f 35 5a
        E 0 82 48 64
        E 0 92 46 66
        E 0 82 46 66
        E 0 92 45 64
        E 0 83 41 64
        E 0 8f 35 64
        E 0 93 3c 5a
        E 0 9f 35 5a
        E 0 82 45 64
        E 0 83 3c 64
        E 0 8f 35 64
        E 0 92 4a 64
        E 0 93 41 5a
        E 0 9f 35 5a
        E 0 82 4a 64
        E 0 83 41 64
        E 0 8f 35 64
        E 1 92 4a 64
        E 0 93 41 5a
        E 0 9f 35 5a
        E 0 82 4a 64
        E 0 92 4c 64
        E 0 82 4c 64
        E 0 92 4d 64
        E 0 82 4d 64
        E 0 92 4f 64
        E 0 82 4f 64
        E 0 92 51 64
        E 0 82 51 64
        E 0 83 41 64
        E 0 8f 35 64
        E 0 92 52 66
        E 0 93 41 5a
        E 0 9f 35 5a
        E 0 82 52 66
        E 0 83 41 64
        E 0 8f 35 64
        E 0 92 4a 64
        E 0 93 41 5a
        E 0 9f 35 5a
        E 0 80 41 64
        E 0 81 41 64
        E 0 82 4a 64
        E 0 83 41 64
        E 0 8f 35 64
        E 0 90 41 64
        E 0 91 41 64
        E 0 92 48 64
        E 0 93 41 5a
        E 0 9f 35 5a
        E 0 82 48 64
        E 0 83 41 64
        E 0 8f 35 64
        E 0 92 48 64
        E 0 93 41 5a
        E 0 9f 35 5a
        E 0 82 48 64
        E 0 92 4a 64
        E 0 82 4a 64
        E 0 92 4c 64
        E 0 82 4c 64
        E 0 92 4d 64
        E 0 82 4d 64
        E 0 92 4f 64
        E 0 82 4f 64
        E 0 83 41 64
        E 0 8f 35 64
        E 0 92 51 64
        E 0 93 3c 5a
        E 0 9f 35 5a
        E 0 82 51 64
        E 0 83 3c 64
        E 0 8f 35 64
        E 0 92 48 64
        E 1 93 3c 5a
        E 0 9f 35 5a
        E 0 80 41 64
        E 0 81 41 64
        E 0 82 48 64
        E 0 83 3c 64
        E 0 8f 35 64
        E 0 90 48 64
        E 0 91 48 64
        E 0 92 46 66
        E 0 93 40 5a
        E 0 9f 30 5a
        E 0 82 46 66
        E 0 83 40 64
        E 0 8f 30 64
        E 0 92 46 66
        E 0 93 40 5a
        E 0 9f 30 5a
        E 0 82 46 66
        E 0 92 48 64
        E 0 82 48 64
        E 0 92 4a 64
        E 0 82 4a 64
        E 0 92 4c 64
        E 0 82 4c 64
        E 0 92 4d 64
        E 0 82 4d 64
        E 0 83 40 64
        E 0 8f 30 64
        E 0 92 4f 64
        E 0 93 40 5a
        E 0 9f 30 5a
        E 0 82 4f 64
        E 0 83 40 64
        E 0 8f 30 64
        E 0 92 46 66
        E 0 93 40 5a
        E 0 9f 30 5a
        E 0 80 48 64
        E 0 81 48 64
        E 0 82 46 66
        E 0 83 40 64
        E 0 8f 30 64
        E 0 90 48 64
        E 0 91 48 64
        E 0 92 45 64
        E 0 93 3c 5a
        E 0 9f 35 5a
        E 0 82 45 64
        E 0 83 3c 64
        E 0 8f 35 64
        E 0 92 41 64
        E 0 93 3c 5a
        E 0 9f 35 5a
        E 0 82 41 64
        E 0 83 3c 64
        E 0 8f 35 64
        E 0 93 3c 5a
        E 0 9f 35 5a
        E 0 83 3c 64
        E 0 8f 35 64
        E 0 93 3c 5a
        E 0 9f 35 5a
        E 0 83 3c 64
        E 0 8f 35 64
        E 0 92 4f 64
        E 0 93 3c 5a
        E 0 9f 30 5a
        E 0 83 3c 64
        E 0 8f 30 64
        E 0 93 3c 5a
        E 0 9f 30 5a
        E 0 83 3c 64
        E 0 8f 30 64
        E 0 93 3c 5a
        E 0 9f 30 5a
        E 0 83 3c 64
        E 0 8f 30 64
        E 0 93 3c 5a
        E 0 9f 30 5a
        E 0 80 48 64
        E 0 81 48 64
        E 0 82 4f 64
        E 0 83 3c 64
        E 0 8f 30 64
        E 0 90 48 64
        E 1 91 48 64
        E 0 92 51 64
        E 0 93 3c 5a
        E 0 9f 30 5a
        E 0 83 3c 64
        E 0 8f 30 64
        E 0 93 3c 5a
        E 0 9f 30 5a
        E 0 83 3c 64
        E 0 8f 30 64
        E 0 93 3c 5a
        E 0 9f 30 5a
        E 0 83 3c 64
        E 0 8f 30 64
        E 0 93 3c 5a
        E 0 9f 30 5a
        E 0 82 51 64
        E 0 83 3c 64
        E 0 8f 30 64
        E 0 92 52 66
        E 0 93 3c 5a
        E 0 9f 30 5a
        E 0 82 52 66
        E 0 92 51 64
        E 0 82 51 64
        E 0 83 3c 64
        E 0 8f 30 64
        E 0 92 4f 64
        E 0 93 3c 5a
        E 0 9f 30 5a
        E 0 82 4f 64
        E 0 92 4d 64
        E 0 82 4d 64
        E 0 83 3c 64
        E 0 8f 30 64
        E 0 92 4c 64
        E 0 93 3c 5a
        E 0 9f 30 5a
        E 0 82 4c 64
        E 0 92 4a 64
        E 0 82 4a 64
        E 0 83 3c 64
        E 0 8f 30 64
        E 0 92 48 64
        E 0 93 3c 5a
        E 0 9f 30 5a
        E 0 82 48 64
        E 0 92 46 66
        E 0 80 48 64
        E 0 81 48 64
        E 0 82 46 66
        E 0 83 3c 64
        E 0 8f 30 64
        E 0 90 41 64
        E 0 91 41 64
        E 0 92 45 64
        E 0 93 3c 5a
        E 0 9f 35 5a
        E 0 82 45 64
        E 0 83 3c 64
        E 0 8f 35 64
        E 0 92 48 64
        E 0 93 3c 5a
        E 0 9f 35 5a
        E 0 82 48 64
        E 0 92 41 64
        E 0 80 41 64
        E 0 81 41 64
        E 0 82 41 64
        E 0 83 3c 64
        E 0 8f 35 64
        E 0 90 48 64
        E 0 91 48 64
        E 0 92 43 64
        E 0 93 3c 5a
        E 0 9f 30 5a
        E 0 83 3c 64
        E 0 8f 30 64
        E 0 93 3c 5a
        E 0 9f 30 5a
        E 0 80 48 64
        E 0 81 48 64
        E 0 82 43 64
        E 0 83 3c 64
        E 0 8f 30 64
        E 0 90 41 64
        E 0 91 41 64
        E 0 92 41 64
        E 1 93 3c 5a
        E 0 9f 35 5a
        E 0 82 41 64
        E 0 83 3c 64
        E 0 8f 35 64
        E 0 92 48 64
        E 0 93 3c 5a
        E 0 9f 35 5a
        E 0 82 48 64
        E 0 92 41 64
        E 0 80 41 64
        E 0 81 41 64
        E 0 82 41 64
        E 0 83 3c 64
        E 0 8f 35 64
        E 0 90 48 64
        E 0 91 48 64
        E 0 92 43 64
        E 0 93 3c 5a
        E 0 9f 30 5a
        E 0 83 3c 64
        E 0 8f 30 64
        E 0 93 3c 5a
        E 0 9f 30 5a
        E 0 80 48 64
        E 0 81 48 64
        E 0 82 43 64
        E 0 83 3c 64
        E 0 8f 30 64
        E 0 90 41 64
        E 0 91 41 64
        E 0 92 41 64
        E 0 93 39 5a
        E 0 9f 29 5a
        E 0 80 41 64
        E 0 81 41 64
        E 0 82 41 64
        E 0 83 39 64
        E 0 8f 29 64
        E 0 92 45 64
        E 0 93 3e 5a
        E 0 96 45 64
        E 0 82 45 64
        E 0 83 3e 64
        E 0 92 45 64
        E 0 93 3e 5a
        E 0 82 45 64
        E 0 83 3e 64
        E 0 92 45 64
        E 0 93 3e 5a
        E 0 82 45 64
        E 0 83 3e 64
        E 0 92 45 64
        E 0 93 3e 5a
        E 0 82 45 64
        E 0 83 3e 64
        E 0 86 45 64
        E 0 92 45 64
        E 0 93 3e 5a
        E 0 96 4a 64
        E 0 82 45 64
        E 0 83 3e 64
        E 0 92 45 64
        E 0 93 3e 5a
        E 0 82 45 64
        E 0 83 3e 64
        E 0 92 45 64
        E 0 93 3e 5a
        E 0 82 45 64
        E 0 83 3e 64
        E 0 92 45 64
        E 0 93 3e 5a
        E 0 82 45 64
        E 0 83 3e 64
        E 0 86 4a 64
        E 0 92 49 64
        E 0 93 39 5a
        E 0 96 49 64
        E 0 82 49 64
        E 0 83 39 64
        E 0 92 49 64
        E 0 93 39 5a
        E 0 82 49 64
        E 0 83 39 64
        E 0 86 49 64
        E 0 92 49 64
        E 0 93 39 5a
        E 0 96 45 64
        E 0 82 49 64
        E 0 83 39 64
        E 0 92 49 64
        E 0 93 39 5a
        E 0 82 49 64
        E 0 83 39 64
        E 0 86 45 64
        E 0 92 49 64
        E 0 93 39 5a
        E 0 96 43 64
        E 0 82 49 64
        E 0 83 39 64
        E 0 92 49 64
        E 0 93 39 5a
        E 0 82 49 64
        E 1 83 39 64
        E 0 92 49 64
        E 0 93 39 5a
        E 0 82 49 64
        E 0 83 39 64
        E 0 92 49 64
        E 0 93 39 5a
        E 0 82 49 64
        E 0 83 39 64
        E 0 86 43 64
        E 0 92 49 64
        E 0 93 39 5a
        E 0 96 43 64
        E 0 82 49 64
        E 0 83 39 64
        E 0 92 49 64
        E 0 93 39 5a
        E 0 82 49 64
        E 0 83 39 64
        E 0 86 43 64
        E 0 92 49 64
        E 0 93 39 5a
        E 0 96 46 66
        E 0 82 49 64
        E 0 83 39 64
        E 0 92 49 64
        E 0 93 39 5a
        E 0 82 49 64
        E 0 83 39 64
        E 0 86 46 66
        E 0 92 49 64
        E 0 93 39 5a
        E 0 96 45 64
        E 0 82 49 64
        E 0 83 39 64
        E 0 86 45 64
        E 0 92 49 64
        E 0 93 39 5a
        E 0 96 43 64
        E 0 82 49 64
        E 0 83 39 64
        E 0 86 43 64
        E 0 92 49 64
        E 0 93 39 5a
        E 0 96 41 64
        E 0 82 49 64
        E 0 83 39 64
        E 0 86 41 64
        E 0 92 49 64
        E 0 93 39 5a
        E 0 96 40 64
        E 0 82 49 64
        E 0 83 39 64
        E 0 86 40 64
        E 0 92 45 64
        E 0 93 3e 5a
        E 0 96 41 64
        E 0 82 45 64
        E 0 83 3e 64
        E 0 92 45 64
        E 0 93 3e 5a
        E 0 82 45 64
        E 0 83 3e 64
        E 0 86 41 64
        E 0 92 45 64
        E 0 93 3e 5a
        E 0 96 3e 64
        E 0 82 45 64
        E 0 83 3e 64
        E 0 92 45 64
        E 0 93 3e 5a
        E 1 82 45 64
        E 0 83 3e 64
        E 0 86 3e 64
        E 0 92 45 64
        E 0 93 41 5a
        E 0 96 45 64
        E 0 82 45 64
        E 0 83 41 64
        E 0 92 45 64
        E 0 93 41 5a
        E 0 82 45 64
        E 0 83 41 64
        E 0 86 45 64
        E 0 92 45 64
        E 0 93 41 5a
        E 0 96 45 64
        E 0 82 45 64
        E 0 83 41 64
        E 0 92 45 64
        E 0 93 41 5a
        E 0 82 45 64
        E 0 83 41 64
        E 0 86 45 64
        E 0 92 45 64
        E 0 93 40 5a
        E 0 96 45 64
        E 0 82 45 64
        E 0 83 40 64
        E 0 92 45 64
        E 0 93 40 5a
        E 0 82 45 64
        E 0 83 40 64
        E 0 86 45 64
        E 0 92 45 64
        E 0 93 40 5a
        E 0 96 45 64
        E 0 82 45 64
        E 0 83 40 64
        E 0 92 45 64
        E 0 93 40 5a
        E 0 82 45 64
        E 0 83 40 64
        E 0 86 45 64
        E 0 92 45 64
        E 0 93 3e 5a
        E 0 96 45 64
        E 0 82 45 64
        E 0 83 3e 64
        E 0 92 45 64
        E 0 93 3e 5a
        E 0 82 45 64
        E 0 83 3e 64
        E 0 86 45 64
        E 0 92 45 64
        E 0 93 3c 5a
        E 0 96 45 64
        E 0 82 45 64
        E 0 83 3c 64
        E 0 92 45 64
        E 0 93 3c 5a
        E 0 82 45 64
        E 0 83 3c 64
        E 0 86 45 64
        E 0 92 4a 64
        E 0 93 3a 5b
        E 0 96 4a 64
        E 0 82 4a 64
        E 0 83 3a 66
        E 0 92 4a 64
        E 0 93 3a 5b
        E 0 82 4a 64
        E 0 83 3a 66
        E 0 86 4a 64
        E 0 92 4a 64
        E 0 93 37 5a
        E 0 96 48 64
        E 0 82 4a 64
        E 0 83 37 64
        E 0 86 48 64
        E 0 92 4a 64
        E 0 93 37 5a
        E 0 96 46 66
        E 1 82 4a 64
        E 0 83 37 64
        E 0 86 46 66
        E 0 92 4c 64
        E 0 93 3d 5a
        E 0 96 45 64
        E 0 82 4c 64
        E 0 83 3d 64
        E 0 86 45 64
        E 0 92 4c 64
        E 0 93 3d 5a
        E 0 96 43 64
        E 1 82 4c 64
        E 0 83 3d 64
        E 0 86 43 64
        E 0 92 4c 64
        E 0 93 39 5a
        E 1 96 41 64
        E 0 82 4c 64
        E 0 83 39 64
        E 0 86 41 64
        E 0 92 4c 64
        E 0 93 39 5a
        E 0 96 40 64
        E 0 82 4c 64
        E 0 83 39 64
        E 0 86 40 64
        E 0 92 4a 64
        E 0 93 3e 5a
        E 0 96 41 64
        E 0 82 4a 64
        E 1 83 3e 64
        E 0 92 4a 64
        E 0 93 3e 5a
        E 0 82 4a 64
        E 0 83 3e 64
        E 0 86 41 64
        E 0 92 4a 64
        E 0 93 3e 5a
        E 0 96 40 64
        E 0 82 4a 64
        E 0 83 3e 64
        E 0 86 40 64
        E 0 92 4a 64
        E 0 93 3e 5a
        E 0 96 3e 64
        E 0 82 4a 64
        E 0 83 3e 64
        E 0 86 3e 64
        E 0 92 49 64
        E 0 93 39 5a
        E 0 96 40 64
        E 0 82 49 64
        E 0 83 39 64
        E 0 92 49 64
        E 0 93 39 5a
        E 0 82 49 64
        E 0 83 39 64
        E 0 92 49 64
        E 0 93 39 5a
        E 0 82 49 64
        E 0 83 39 64
        E 0 86 40 64
        E 0 92 49 64
        E 0 93 39 5a
        E 0 96 3e 64
        E 0 82 49 64
        E 0 83 39 64
        E 0 86 3e 64
        E 0 92 45 64
        E 0 93 3e 5a
        E 0 96 3e 64
        E 0 82 45 64
        E 0 83 3e 64
        E 0 92 45 64
        E 0 93 3e 5a
        E 0 82 45 64
        E 0 83 3e 64
        E 0 92 45 64
        E 0 93 3e 5a
        E 0 82 45 64
        E 0 83 3e 64
        E 0 92 45 64
        E 0 93 3e 5a
        E 0 82 45 64
        E 0 83 3e 64
        E 0 86 3e 64
        E 0 92 45 64
        E 0 93 3c 5a
        E 0 96 45 64
        E 0 82 45 64
        E 0 83 3c 64
        E 0 92 45 64
        E 0 93 3c 5a
        E 0 82 45 64
        E 0 83 3c 64
        E 0 86 45 64
        E 0 92 45 64
        E 0 93 3c 5a
        E 0 96 45 64
        E 1 82 45 64
        E 0 83 3c 64
        E 0 92 45 64
        E 0 93 3c 5a
        E 0 82 45 64
        E 0 83 3c 64
        E 0 86 45 64
        E 0 92 45 64
        E 0 93 3e 5a
        E 0 96 45 64
        E 0 82 45 64
        E 0 83 3e 64
        E 0 92 45 64
        E 0 93 3e 5a
        E 38403 82 45 64
        E 1 83 3e 64
        E 0 86 45 64
        E 0 92 45 64
        E 0 93 3e 5a
        E 0 96 45 64
        E 0 82 45 64
        E 0 83 3e 64
        E 0 92 45 64
        E 0 93 3e 5a
        E 0 82 45 64
        E 0 83 3e 64
        E 0 86 45 64
        E 0 92 45 64
        E 0 93 3f 5a
        E 0 96 48 64
        E 0 82 45 64
        E 0 83 3f 64
        E 0 92 45 64
        E 0 93 3f 5a
        E 0 82 45 64
        E 0 83 3f 64
        E 0 86 48 64
        E 0 92 45 64
        E 0 93 3f 5a
        E 0 96 45 64
        E 0 82 45 64
        E 0 83 3f 64
        E 0 92 45 64
        E 0 93 3f 5a
        E 0 82 45 64
        E 0 83 3f 64
        E 0 86 45 64
        E 0 92 45 64
        E 0 93 40 5a
        E 0 96 45 64
        E 0 82 45 64
        E 0 83 40 64
        E 0 92 45 64
        E 0 93 40 5a
        E 0 82 45 64
        E 0 83 40 64
        E 0 86 45 64
        E 0 92 44 66
        E 0 93 40 5a
        E 0 96 44 64
        E 0 82 44 66
        E 0 83 40 64
        E 0 92 44 66
        E 0 93 40 5a
        E 0 82 44 66
        E 0 83 40 64
        E 0 86 44 64
        E 0 92 40 64
        E 0 93 39 5a
        E 0 96 40 64
        E 0 82 40 64
        E 0 83 39 64
        E 0 92 40 64
        E 0 93 39 5a
        E 0 82 40 64
        E 0 83 39 64
        E 0 86 40 64
        E 0 92 40 64
        E 0 93 39 5a
        E 0 96 40 64
        E 0 82 40 64
        E 0 83 39 64
        E 0 92 40 64
        E 0 93 39 5a
        E 0 82 40 64
        E 0 83 39 64
        E 0 86 40 64
        E 0 92 41 64
        E 0 93 3e 5a
        E 0 96 41 64
        E 0 82 41 64
        E 0 83 3e 64
        E 0 92 41 64
        E 0 93 3e 5a
        E 0 82 41 64
        E 0 83 3e 64
        E 1 92 41 64
        E 0 93 3e 5a
        E 0 82 41 64
        E 0 83 3e 64
        E 0 92 41 64
        E 0 93 3e 5a
        E 0 82 41 64
        E 0 83 3e 64
        E 0 86 41 64
        E 0 92 41 64
        E 0 93 3e 5a
        E 0 96 41 64
        E 0 82 41 64
        E 0 83 3e 64
        E 0 86 41 64
        E 0 92 41 64
        E 0 93 3e 5a
        E 0 96 4a 64
        E 0 82 41 64
        E 0 83 3e 64
        E 0 86 4a 64
        E 0 92 41 64
        E 0 93 3e 5a
        E 0 96 47 64
        E 0 82 41 64
        E 0 83 3e 64
        E 0 86 47 64
        E 0 92 41 64
        E 0 93 3e 5a
        E 0 96 45 64
        E 0 82 41 64
        E 0 83 3e 64
        E 0 86 45 64
        E 0 92 44 64
        E 0 93 40 5a
        E 0 96 44 64
        E 0 82 44 64
        E 0 83 40 64
        E 0 92 44 64
        E 0 93 40 5a
        E 0 82 44 64
        E 0 83 40 64
        E 0 92 44 64
        E 0 93 40 5a
        E 0 82 44 64
        E 0 83 40 64
        E 1 92 44 64
        E 0 93 40 5a
        E 0 82 44 64
        E 0 83 40 64
        E 0 86 44 64
        E 0 92 44 64
        E 0 93 40 5a
        E 0 96 44 64
        E 0 82 44 64
        E 0 83 40 64
        E 0 86 44 64
        E 0 92 44 64
        E 0 93 40 5a
        E 0 96 40 64
        E 0 82 44 64
        E 0 83 40 64
        E 0 86 40 64
        E 0 92 47 64
        E 0 93 40 5a
        E 0 96 44 64
        E 0 82 47 64
        E 0 83 40 64
        E 0 86 44 64
        E 0 92 47 64
        E 0 93 40 5a
        E 0 96 47 64
        E 0 82 47 64
        E 0 83 40 64
        E 0 86 47 64
        E 0 92 48 64
        E 0 93 39 5a
        E 0 96 48 64
        E 0 82 48 64
        E 0 83 39 64
        E 0 92 48 64
        E 0 93 39 5a
        E 0 82 48 64
        E 0 83 39 64
        E 0 86 48 64
        E 0 92 48 64
        E 0 93 39 5a
        E 0 96 47 64
        E 0 82 48 64
        E 0 83 39 64
        E 0 86 47 64
        E 0 92 48 64
        E 0 93 39 5a
        E 0 96 45 64
        E 0 82 48 64
        E 0 83 39 64
        E 0 86 45 64
        E 0 92 47 64
        E 0 93 40 5a
        E 0 96 44 64
        E 0 82 47 64
        E 0 83 40 64
        E 0 92 47 64
        E 0 93 40 5a
        E 0 82 47 64
        E 0 83 40 64
        E 0 92 47 64
        E 0 93 40 5a
        E 0 82 47 64
        E 0 83 40 64
        E 0 86 44 64
        E 0 92 47 64
        E 0 93 40 5a
        E 0 96 45 64
        E 0 82 47 64
        E 1 83 40 64
        E 0 86 45 64
        E 0 92 48 64
        E 0 93 39 5a
        E 0 96 45 64
        E 0 82 48 64
        E 0 83 39 64
        E 0 86 45 64
        E 0 92 3f 66
        E 0 93 3f 5b
        E 0 9f 33 5b
        E 0 82 3f 66
        E 0 83 3f 66
        E 0 8f 33 66
        E 0 97 4b 66
        E 0 87 4b 66
        E 0 97 48 64
        E 0 87 48 64
        E 0 97 48 64
        E 0 87 48 64
        E 0 97 48 64
        E 0 87 48 64
        E 0 97 43 64
        E 0 87 43 64
        E 0 92 3e 64
        E 0 93 3e 5a
        E 0 97 45 64
        E 0 9f 32 5a
        E 0 87 45 64
        E 0 97 45 64
        E 0 82 3e 64
        E 0 83 3e 64
        E 0 87 45 64
        E 0 8f 32 64
        E 0 97 45 64
        E 0 87 45 64
        E 0 97 45 64
        E 0 87 45 64
        E 0 97 45 64
        E 0 87 45 64
        E 0 97 45 64
        E 0 87 45 64
        E 0 97 45 64
        E 0 87 45 64
        E 0 92 3a 66
        E 0 93 3a 5b
        E 0 97 4a 64
        E 0 9f 2e 5b
        E 0 87 4a 64
        E 0 97 43 64
        E 0 87 43 64
        E 0 97 43 64
        E 0 82 3a 66
        E 0 83 3a 66
        E 0 87 43 64
        E 0 8f 2e 66
        E 0 97 43 64
        E 0 87 43 64
        E 0 97 45 64
        E 0 87 45 64
        E 0 92 39 64
        E 0 93 39 5a
        E 0 97 45 64
        E 0 9f 2d 5a
        E 0 82 39 64
        E 1 83 39 64
        E 0 87 45 64
        E 0 8f 2d 64
        E 0 97 45 64
        E 0 87 45 64
        E 0 97 45 64
        E 0 87 45 64
        E 0 97 46 66
        E 0 87 46 66
        E 0 92 42 64
        E 0 93 42 5a
        E 0 97 48 64
        E 0 9f 36 5a
        E 0 87 48 64
        E 0 97 48 64
        E 0 82 42 64
        E 0 83 42 64
        E 0 87 48 64
        E 0 8f 36 64
        E 1 97 45 64
        E 0 87 45 64
        E 0 97 43 64
        E 0 87 43 64
        E 0 97 45 64
        E 0 87 45 64
        E 0 92 43 64
        E 0 93 43 5a
        E 0 97 46 66
        E 0 9f 37 5a
        E 0 87 46 66
        E 0 97 46 66
        E 0 82 43 64
        E 0 83 43 64
        E 0 87 46 66
        E 0 8f 37 64
        E 0 97 43 64
        E 0 87 43 64
        E 0 97 46 66
        E 0 87 46 66
        E 0 97 46 66
        E 0 87 46 66
        E 0 97 46 66
        E 0 87 46 66
        E 0 97 48 64
        E 0 87 48 64
        E 0 92 41 64
        E 0 93 41 5a
        E 0 97 4a 64
        E 0 9f 35 5a
        E 0 87 4a 64
        E 0 97 4a 64
        E 0 82 41 64
        E 0 83 41 64
        E 0 87 4a 64
        E 0 8f 35 64
        E 0 97 4a 64
        E 0 87 4a 64
        E 0 97 45 64
        E 0 87 45 64
        E 0 97 45 64
        E 0 87 45 64
        E 0 97 45 64
        E 0 87 45 64
        E 0 97 44 64
        E 0 87 44 64
        E 0 92 40 64
        E 0 93 40 5a
        E 0 97 47 64
        E 0 9f 34 5a
        E 0 82 40 64
        E 0 83 40 64
        E 0 87 47 64
        E 0 8f 34 64
        E 38403 97 47 64
        E 0 87 47 64
        E 0 97 4a 64
        E 0 87 4a 64
        E 0 97 49 64
        E 0 87 49 64
        E 0 92 41 63
        E 0 93 41 59
        E 0 97 49 64
        E 0 9f 35 59
        E 0 87 49 64
        E 0 97 49 64
        E 0 82 41 63
        E 0 83 41 63
        E 0 87 49 64
        E 0 8f 35 63
        E 0 97 44 64
        E 0 87 44 64
        E 1 97 44 64
        E 0 87 44 64
        E 0 97 44 64
        E 0 87 44 64
        E 0 97 42 64
        E 0 87 42 64
        E 0 97 44 64
        E 0 87 44 64
        E 0 92 42 64
        E 0 93 42 5a
        E 0 97 45 64
        E 0 9f 36 5a
        E 0 87 45 64
        E 0 97 45 64
        E 0 82 42 64
        E 0 83 42 64
        E 0 87 45 64
        E 0 8f 36 64
        E 0 97 49 64
        E 0 87 49 64
        E 0 97 49 64
        E 0 87 49 64
        E 0 97 4c 64
        E 0 87 4c 64
        E 0 92 40 64
        E 0 93 40 5a
        E 0 97 46 64
        E 0 9f 34 5a
        E 0 87 46 64
        E 0 97 46 64
        E 0 82 40 64
        E 0 83 40 64
        E 0 87 46 64
        E 0 8f 34 64
        E 0 97 42 64
        E 0 87 42 64
        E 0 97 46 64
        E 0 87 46 64
        E 0 97 47 64
        E 0 87 47 64
        E 1 97 49 64
        E 0 87 49 64
        E 0 97 49 64
        E 0 87 49 64
        E 0 97 49 64
        E 0 87 49 64
        E 0 97 49 64
        E 0 87 49 64
        E 0 97 47 64
        E 0 87 47 64
        E 0 97 49 64
        E 0 87 49 64
        E 0 92 41 63
        E 0 93 41 59
        E 0 97 4a 64
        E 0 9f 35 59
        E 0 87 4a 64
        E 0 97 4a 64
        E 0 82 41 63
        E 0 83 41 63
        E 0 87 4a 64
        E 0 8f 35 63
        E 0 97 47 64
        E 0 87 47 64
        E 0 97 47 64
        E 0 87 47 64
        E 0 97 47 64
        E 0 87 47 64
        E 0 97 46 64
        E 0 87 46 64
        E 0 97 47 64
        E 0 87 47 64
        E 0 92 3a 64
        E 0 93 3a 5a
        E 0 97 43 64
        E 0 9f 2e 5a
        E 0 87 43 64
        E 0 97 43 64
        E 0 82 3a 64
        E 0 83 3a 64
        E 0 87 43 64
        E 0 8f 2e 64
        E 0 97 4c 64
        E 0 87 4c 64
        E 0 97 4b 64
        E 0 87 4b 64
        E 0 97 4c 64
        E 0 87 4c 64
        E 0 92 3b 64
        E 0 93 3b 5a
        E 0 97 47 64
        E 0 9f 2f 5a
        E 0 87 47 64
        E 0 97 47 64
        E 0 82 3b 64
        E 0 83 3b 64
        E 0 87 47 64
        E 0 8f 2f 64
        E 0 92 40 64
        E 0 93 40 5a
        E 0 9f 34 5a
        E 0 82 40 64
        E 0 83 40 64
        E 0 8f 34 64
        E 0 97 40 64
        E 0 87 40 64
        E 0 97 43 64
        E 0 87 43 64
        E 0 97 43 64
        E 0 87 43 64
        E 0 97 45 64
        E 0 87 45 64
        E 0 97 47 64
        E 0 87 47 64
        E 0 92 40 64
        E 0 93 40 5a
        E 0 97 40 64
        E 0 9f 34 5a
        E 0 82 40 64
        E 0 83 40 64
        E 0 87 40 64
        E 0 8f 34 64
        E 0 97 47 64
        E 0 87 47 64
        E 0 97 47 64
        E 0 87 47 64
        E 0 97 48 64
        E 0 87 48 64
        E 0 92 3e 64
        E 0 93 3e 5a
        E 0 97 48 64
        E 1 9f 32 5a
        E 0 87 48 64
        E 0 97 48 64
        E 0 82 3e 64
        E 0 83 3e 64
        E 0 87 48 64
        E 0 8f 32 64
        E 0 97 4b 66
        E 0 87 4b 66
        E 0 97 48 64
        E 0 87 48 64
        E 0 97 48 64
        E 0 87 48 64
        E 0 97 48 64
        E 0 87 48 64
        E 0 97 46 66
        E 0 87 46 66
        E 0 92 37 64
        E 0 93 37 5a
        E 0 97 43 64
        E 0 9f 2b 5a
        E 0 82 37 64
        E 0 83 37 64
        E 0 87 43 64
        E 0 8f 2b 64
        E 0 97 46 66
        E 0 87 46 66
        E 0 97 46 66
        E 1 87 46 66
        E 0 97 4a 64
        E 0 87 4a 64
        E 0 92 3f 66
        E 0 93 3f 5b
        E 0 97 43 64
        E 0 9f 33 5b
        E 0 87 43 64
        E 0 97 43 64
        E 0 82 3f 66
        E 0 83 3f 66
        E 0 87 43 64
        E 0 8f 33 66
        E 0 97 4b 66
        E 0 87 4b 66
        E 0 97 4b 66
        E 0 87 4b 66
        E 0 97 45 64
        E 0 87 45 64
        E 0 97 45 64
        E 0 87 45 64
        E 0 97 46 66
        E 0 87 46 66
        E 0 92 41 64
        E 0 93 41 5a
        E 0 97 41 64
        E 0 9f 35 5a
        E 38403 87 41 64
        E 0 97 41 64
        E 0 82 41 64
        E 0 83 41 64
        E 0 87 41 64
        E 0 8f 35 64
        E 0 92 3a 66
        E 0 93 3a 5b
        E 0 9f 2e 5b
        E 0 82 3a 66
        E 0 83 3a 66
        E 0 8f 2e 66
        E 0 97 46 66
        E 0 87 46 66
        E 0 97 46 66
        E 1 87 46 66
        E 0 97 4a 64
        E 0 87 4a 64
        E 0 92 3f 66
        E 0 93 3f 5b
        E 0 97 43 64
        E 0 9f 33 5b
        E 0 87 43 64
        E 0 97 43 64
        E 0 82 3f 66
        E 0 83 3f 66
        E 0 87 43 64
        E 0 8f 33 66
        E 0 92 38 64
        E 0 93 38 5a
        E 0 97 48 64
        E 0 9f 2c 5a
        E 0 87 48 64
        E 0 97 41 64
        E 0 87 41 64
        E 0 97 41 64
        E 0 82 38 64
        E 0 83 38 64
        E 0 87 41 64
        E 0 8f 2c 64
        E 0 97 48 64
        E 0 87 48 64
        E 0 97 47 64
        E 0 87 47 64
        E 0 92 37 64
        E 0 93 37 5a
        E 0 97 4a 64
        E 0 9f 2b 5a
        E 0 87 4a 64
        E 0 97 4a 64
        E 0 82 37 64
        E 0 83 37 64
        E 0 87 4a 64
        E 0 8f 2b 64
        E 0 92 37 64
        E 0 92 3f 66
        E 0 92 46 66
        E 0 93 3f 5b
        E 0 97 46 66
        E 0 9f 33 5b
        E 0 87 46 66
        E 0 97 3f 66
        E 0 87 3f 66
        E 1 97 3f 66
        E 0 87 3f 66
        E 0 97 3f 66
        E 0 82 37 64
        E 0 82 3f 66
        E 0 82 46 66
        E 0 83 3f 66
        E 0 87 3f 66
        E 0 8f 33 66
        E 0 92 37 64
        E 0 92 3f 66
        E 0 92 46 66
        E 0 93 3f 5b
        E 0 97 49 66
        E 0 9f 33 5b
        E 0 87 49 66
        E 0 97 49 66
        E 0 87 49 66
        E 0 97 46 66
        E 0 87 46 66
        E 0 97 46 66
        E 0 87 46 66
        E 0 97 48 64
        E 0 82 37 64
        E 0 82 3f 66
        E 0 82 46 66
        E 0 83 3f 66
        E 0 87 48 64
        E 0 8f 33 66
        E 0 92 38 66
        E 0 92 3f 66
        E 0 92 48 64
        E 0 93 38 5b
        E 0 97 44 66
        E 0 9f 2c 5b
        E 0 87 44 66
        E 0 97 44 66
        E 0 87 44 66
        E 0 97 48 64
        E 0 82 38 66
        E 0 82 3f 66
        E 0 82 48 64
        E 0 83 38 66
        E 0 87 48 64
        E 0 8f 2c 66
        E 0 92 39 64
        E 0 92 41 64
        E 0 92 48 64
        E 1 93 41 5a
        E 0 97 41 64
        E 0 9f 35 5a
        E 0 87 41 64
        E 0 97 41 64
        E 0 87 41 64
        E 0 97 41 64
        E 0 87 41 64
        E 0 97 41 64
        E 0 87 41 64
        E 0 97 41 64
        E 0 82 39 64
        E 0 82 41 64
        E 0 82 48 64
        E 0 83 41 64
        E 0 87 41 64
        E 0 8f 35 64
        E 0 92 39 64
        E 0 92 41 64
        E 0 92 48 64
        E 0 93 41 5a
        E 0 97 4b 66
        E 0 9f 35 5a
        E 0 87 4b 66
        E 0 97 49 66
        E 0 82 39 64
        E 0 82 41 64
        E 0 82 48 64
        E 0 83 41 64
        E 0 87 49 66
        E 0 8f 35 64
        E 0 92 3a 66
        E 0 92 41 64
        E 0 92 49 66
        E 0 93 3a 5b
        E 0 97 46 66
        E 0 9f 2e 5b
        E 0 87 46 66
        E 0 97 46 66
        E 0 87 46 66
        E 0 97 49 66
        E 0 82 3a 66
        E 0 82 41 64
        E 0 82 49 66
        E 0 83 3a 66
        E 0 87 49 66
        E 0 8f 2e 66
        E 0 92 3a 66
        E 0 92 42 66
        E 0 92 49 66
        E 0 93 3f 5b
        E 0 97 49 66
        E 0 9f 33 5b
        E 0 87 49 66
        E 0 97 42 66
        E 0 87 42 66
        E 0 97 42 66
        E 0 87 42 66
        E 0 97 4b 66
        E 0 82 3a 66
        E 0 82 42 66
        E 0 82 49 66
        E 0 83 3f 66
        E 0 87 4b 66
        E 0 8f 33 66
        E 0 92 39 64
        E 0 92 41 64
        E 0 92 4b 66
        E 0 93 41 5a
        E 1 97 4b 66
        E 0 9f 35 5a
        E 0 87 4b 66
        E 0 97 45 64
        E 0 87 45 64
        E 0 82 39 64
        E 0 82 41 64
        E 0 82 4b 66
        E 0 83 41 64
        E 0 8f 35 64
        E 0 92 3a 66
        E 0 92 41 64
        E 0 92 49 66
        E 1 93 3a 5b
        E 0 97 49 66
        E 0 9f 2e 5b
        E 0 82 3a 66
        E 0 82 41 64
        E 0 82 49 66
        E 0 83 3a 66
        E 0 87 49 66
        E 0 8f 2e 66
        E 0 92 3f 66
        E 0 93 3f 5b
        E 0 97 42 66
        E 0 9f 33 5b
        E 0 82 3f 66
        E 0 83 3f 66
        E 0 87 42 66
        E 0 8f 33 66
        E 0 97 4b 66
        E 0 87 4b 66
        E 0 97 49 66
        E 0 87 49 66
        E 0 92 41 64
        E 0 93 41 5a
        E 0 97 46 66
        E 0 9f 35 5a
        E 0 87 46 66
        E 0 97 46 66
        E 0 87 46 66
        E 0 82 41 64
        E 0 83 41 64
        E 0 8f 35 64
        E 0 92 3a 66
        E 0 93 3a 5b
        E 0 9f 2e 5b
        E 0 82 3a 66
        E 0 83 3a 66
        E 0 8f 2e 66
        E 0 9f 2e 5b
        E 0 9a 41 64
        E 0 9e 41 64
        E 0 8a 41 64
        E 0 8e 41 64
        E 0 9a 46 66
        E 0 9e 46 66
        E 0 8a 46 66
        E 0 8e 46 66
        E 0 97 49 66
        E 0 9e 49 66
        E 0 87 49 66
        E 0 8e 49 66
        E 0 97 46 66
        E 0 9e 46 66
        E 0 87 46 66
        E 0 8e 46 66
        E 0 97 45 64
        E 0 9e 45 64
        E 0 87 45 64
        E 0 8e 45 64
        E 0 8f 2e 66
        E 0 97 48 64
        E 0 9e 48 64
        E 0 9f 35 5a
        E 29554 87 48 64
        E 0 8e 48 64
        E 0 97 48 64
        E 0 9e 48 64
        E 0 87 48 64
        E 0 8e 48 64
        E 0 9a 41 64
        E 0 9e 41 64
        E 0 8a 41 64
        E 0 8e 41 64
        E 0 9a 45 64
        E 0 9e 45 64
        E 0 8a 45 64
        E 0 8e 45 64
        E 0 9a 45 64
        E 0 9e 45 64
        E 0 8a 45 64
        E 0 8e 45 64
        E 0 97 4a 64
        E 2 9e 4a 64
        E 0 87 4a 64
        E 0 8e 4a 64
        E 0 8f 35 64
        E 0 97 4a 64
        E 0 9e 4a 64
        E 0 9f 36 5a
        E 0 87 4a 64
        E 0 8e 4a 64
        E 0 97 45 64
        E 0 9e 45 64
        E 0 87 45 64
        E 0 8e 45 64
        E 0 9a 42 64
        E 0 9e 42 64
        E 0 8a 42 64
        E 0 8e 42 64
        E 1 9a 45 64
        E 0 9e 45 64
        E 0 8a 45 64
        E 0 8e 45 64
        E 1 9a 45 64
        E 0 9e 45 64
        E 0 8a 45 64
        E 0 8e 45 64
        E 0 9a 48 64
        E 0 9e 48 64
        E 0 8a 48 64
        E 0 8e 48 64
        E 0 9a 46 66
        E 0 9e 46 66
        E 0 8a 46 66
        E 0 8e 46 66
        E 0 8f 36 64
        E 0 9a 43 64
        E 0 9e 43 64
        E 0 9f 37 5a
        E 0 8a 43 64
        E 0 8e 43 64
        E 0 9a 43 64
        E 0 9e 43 64
        E 0 8a 43 64
        E 0 8e 43 64
        E 0 9a 3e 64
        E 0 9e 3e 64
        E 0 8a 3e 64
        E 0 8e 3e 64
        E 0 9a 43 64
        E 0 9e 43 64
        E 0 8a 43 64
        E 0 8e 43 64
        E 1 9a 43 64
        E 0 9e 43 64
        E 0 8a 43 64
        E 0 8e 43 64
        E 0 9a 46 66
        E 0 9e 46 66
        E 0 8a 46 66
        E 0 8e 46 66
        E 0 8f 37 64
        E 0 9a 44 64
        E 0 9e 44 64
        E 0 9f 32 5a
        E 0 8a 44 64
        E 3 8e 44 64
        E 1 9a 44 64
        E 0 9e 44 64
        E 0 8a 44 64
        E 0 8e 44 64
        E 0 9a 44 64
        E 0 9e 44 64
        E 0 8a 44 64
        E 0 8e 44 64
        E 0 9a 44 64
        E 1 9e 44 64
        E 0 8a 44 64
        E 0 8e 44 64
        E 0 9a 44 64
        E 0 9e 44 64
        E 0 8a 44 64
        E 0 8e 44 64
        E 0 9a 45 64
        E 0 9e 45 64
        E 0 8a 45 64
        E 0 8e 45 64
        E 0 9a 47 64
        E 0 9e 47 64
        E 1 8a 47 64
        E 0 8e 47 64
        E 0 8f 32 64
        E 0 9a 40 64
        E 0 9e 40 64
        E 0 9f 32 5a
        E 0 8a 40 64
        E 1 8e 40 64
        E 0 9a 40 64
        E 0 9e 40 64
        E 0 8a 40 64
        E 0 8e 40 64
        E 0 9a 40 64
        E 0 9e 40 64
        E 0 8a 40 64
        E 0 8e 40 64
        E 0 9a 40 64
        E 0 9e 40 64
        E 0 8a 40 64
        E 0 8e 40 64
        E 0 9a 40 64
        E 0 9e 40 64
        E 0 8a 40 64
        E 0 8e 40 64
        E 0 9a 47 64
        E 0 9e 47 64
        E 0 8a 47 64
        E 0 8e 47 64
        E 0 9a 48 64
        E 0 9e 48 64
        E 0 8a 48 64
        E 0 8e 48 64
        E 0 8f 32 64
        E 0 9a 45 64
        E 0 9e 45 64
        E 1 9f 30 5a
        E 0 8a 45 64
        E 0 8e 45 64
        E 0 9a 45 64
        E 0 9e 45 64
        E 0 8a 45 64
        E 0 8e 45 64
        E 0 9a 40 64
        E 0 9e 40 64
        E 0 8a 40 64
        E 0 8e 40 64
        E 0 9a 40 64
        E 0 9e 40 64
        E 0 8a 40 64
        E 0 8e 40 64
        E 0 9a 45 64
        E 1 9e 45 64
        E 0 8a 45 64
        E 1 8e 45 64
        E 0 8f 30 64
        E 0 9a 42 64
        E 0 9e 42 64
        E 0 9f 2f 5a
        E 0 8a 42 64
        E 0 8e 42 64
        E 0 9a 42 64
        E 0 9e 42 64
        E 0 8a 42 64
        E 0 8e 42 64
        E 0 9a 48 64
        E 0 9e 48 64
        E 0 8a 48 64
        E 0 8e 48 64
        E 0 8f 2f 64
        E 0 9a 45 64
        E 0 9e 45 64
        E 0 9f 2f 5a
        E 0 8a 45 64
        E 0 8e 45 64
        E 0 9a 45 64
        E 1 9e 45 64
        E 0 8a 45 64
        E 0 8e 45 64
        E 0 9a 45 64
        E 0 9e 45 64
        E 0 8a 45 64
        E 0 8e 45 64
        E 0 9a 43 64
        E 0 9e 43 64
        E 0 8a 43 64
        E 0 8e 43 64
        E 0 8f 2f 64
        E 0 9a 40 64
        E 0 9e 40 64
        E 0 9f 34 5a
        E 0 8a 40 64
        E 0 8e 40 64
        E 0 9a 40 64
        E 0 9e 40 64
        E 0 8a 40 64
        E 0 8e 40 64
        E 0 9a 47 64
        E 0 9e 47 64
        E 0 8a 47 64
        E 0 8e 47 64
        E 0 8f 34 64
        E 0 9a 43 64
        E 0 9e 43 64
        E 1 9f 34 5a
        E 0 8a 43 64
        E 0 8e 43 64
        E 0 9a 43 64
        E 0 9e 43 64
        E 0 8a 43 64
        E 0 8e 43 64
        E 0 9a 48 64
        E 0 9e 48 64
        E 0 8a 48 64
        E 0 8e 48 64
        E 0 8f 34 64
        E 0 9a 45 64
        E 0 9e 45 64
        E 0 9f 30 5a
        E 0 8a 45 64
        E 0 8e 45 64
        E 0 9a 45 64
        E 0 9e 45 64
        E 0 8a 45 64
        E 0 8e 45 64
        E 839 8f 30 64
        E 0 9a 45 64
        E 0 9e 45 64
        E 1 9f 30 5a
        E 333 8a 45 64
        E 0 8e 45 64
        E 0 9a 45 64
        E 0 9e 45 64
        E 476 8a 45 64
        E 0 8e 45 64
        E 0 9a 45 64
        E 0 9e 45 64
        E 486 8a 45 64
        E 0 8e 45 64
        E 0 9a 45 64
        E 0 9e 45 64
        E 327 8a 45 64
        E 0 8e 45 64
        E 0 9a 43 64
        E 0 9e 43 64
        E 178 8a 43 64
        E 1 8e 43 64
        E 0 8f 30 64
        E 0 9a 40 64
        E 1 9e 40 64
        E 0 9f 2f 5a
        E 486 8a 40 64
        E 0 8e 40 64
        E 1 9a 40 64
        E 1 9e 40 64
        E 476 8a 40 64
        E 0 8e 40 64
        E 0 8f 2f 64
        E 0 9f 29 59
        E 974 8f 29 63
        E 0 9f 29 59
        E 485 9a 44 64
        E 0 9e 44 64
        E 489 8a 44 64
        E 0 8e 44 64
        E 0 9a 44 64
        E 0 9e 44 64
        E 487 8a 44 64
        E 0 8e 44 64
        E 0 9a 49 64
        E 1 9e 49 64
        E 488 8a 49 64
        E 0 8e 49 64
        E 0 8f 29 63
        E 0 9a 44 64
        E 1 9e 44 64
        E 2 9f 29 59
        E 499 8a 44 64
        E 0 8e 44 64
        E 1 9a 44 64
        E 0 9e 44 64
        E 472 8a 44 64
        E 0 8e 44 64
        E 981 9a 44 64
        E 0 9e 44 64
        E 485 8a 44 64
        E 0 8e 44 64
        E 0 9a 45 64
        E 0 9e 45 64
        E 490 8a 45 64
        E 1 8e 45 64
        E 0 9a 47 64
        E 0 9e 47 64
        E 38402 8a 47 64
        E 0 8e 47 64
        E 0 9a 47 64
        E 0 9e 47 64
        E 0 8a 47 64
        E 0 8e 47 64
        E 1 9a 45 64
        E 0 9e 45 64
        E 0 8a 45 64
        E 0 8e 45 64
        E 0 8f 29 63
        E 0 9a 42 64
        E 0 9e 42 64
        E 0 9f 2a 5a
        E 0 8a 42 64
        E 0 8e 42 64
        E 0 9a 42 64
        E 0 9e 42 64
        E 0 8a 42 64
        E 0 8e 42 64
        E 0 9a 49 64
        E 0 9e 49 64
        E 0 8a 49 64
        E 0 8e 49 64
        E 0 9a 42 64
        E 0 9e 42 64
        E 0 8a 42 64
        E 0 8e 42 64
        E 0 9a 42 64
        E 0 9e 42 64
        E 0 8a 42 64
        E 0 8e 42 64
        E 0 9a 40 64
        E 0 9e 40 64
        E 0 8a 40 64
        E 0 8e 40 64
        E 0 9a 42 64
        E 0 9e 42 64
        E 0 8a 42 64
        E 1 8e 42 64
        E 0 8f 2a 64
        E 0 9a 3e 64
        E 0 9e 3e 64
        E 0 9f 2f 5a
        E 0 8a 3e 64
        E 0 8e 3e 64
        E 0 9a 47 64
        E 0 9e 47 64
        E 0 8a 47 64
        E 0 8e 47 64
        E 0 9a 41 63
        E 0 9e 41 63
        E 0 8a 41 63
        E 0 8e 41 63
        E 0 9a 47 64
        E 0 9e 47 64
        E 0 8a 47 64
        E 0 8e 47 64
        E 0 9a 45 64
        E 0 9e 45 64
        E 0 8a 45 64
        E 0 8e 45 64
        E 0 8f 2f 64
        E 0 9a 42 64
        E 0 9e 42 64
        E 0 9f 31 5a
        E 0 8a 42 64
        E 0 8e 42 64
        E 0 9a 42 64
        E 0 9e 42 64
        E 0 8a 42 64
        E 0 8e 42 64
        E 0 8f 31 64
        E 0 9f 2a 5a
        E 0 97 42 64
        E 0 9e 42 64
        E 0 87 42 64
        E 0 8e 42 64
        E 0 8f 2a 64
        E 0 97 4c 64
        E 0 9e 4c 64
        E 0 9f 2a 5a
        E 0 87 4c 64
        E 0 8e 4c 64
        E 0 97 4c 64
        E 0 9e 4c 64
        E 0 87 4c 64
        E 0 8e 4c 64
        E 0 97 4c 64
        E 0 9e 4c 64
        E 0 87 4c 64
        E 0 8e 4c 64
        E 0 97 4a 64
        E 1 9e 4a 64
        E 0 87 4a 64
        E 0 8e 4a 64
        E 0 8f 2a 64
        E 0 97 47 64
        E 0 9e 47 64
        E 0 9f 2f 5a
        E 0 87 47 64
        E 0 8e 47 64
        E 0 97 47 64
        E 0 9e 47 64
        E 0 87 47 64
        E 0 8e 47 64
        E 0 9a 42 64
        E 0 9e 42 64
        E 0 8a 42 64
        E 0 8e 42 64
        E 0 9a 40 64
        E 0 9e 40 64
        E 0 8a 40 64
        E 0 8e 40 64
        E 0 9a 42 64
        E 0 9e 42 64
        E 0 8a 42 64
        E 0 8e 42 64
        E 0 9a 3e 64
        E 0 9e 3e 64
        E 0 8a 3e 64
        E 0 8e 3e 64
        E 0 9a 3e 64
        E 0 9e 3e 64
        E 0 8a 3e 64
        E 0 8e 3e 64
        E 0 9a 47 64
        E 0 9e 47 64
        E 0 8a 47 64
        E 0 8e 47 64
        E 0 9a 47 64
        E 0 9e 47 64
        E 0 8a 47 64
        E 0 8e 47 64
        E 0 8f 2f 64
        E 0 9a 43 64
        E 0 9e 43 64
        E 0 9f 34 5a
        E 1 8a 43 64
        E 0 8e 43 64
        E 0 9a 43 64
        E 0 9e 43 64
        E 0 8a 43 64
        E 0 8e 43 64
        E 0 9a 42 64
        E 0 9e 42 64
        E 0 8a 42 64
        E 0 8e 42 64
        E 0 8f 34 64
        E 0 9a 45 64
        E 0 9e 45 64
        E 0 9f 32 5a
        E 0 8a 45 64
        E 0 8e 45 64
        E 0 9a 45 64
        E 0 9e 45 64
        E 0 8a 45 64
        E 0 8e 45 64
        E 0 9a 42 64
        E 0 9e 42 64
        E 0 8a 42 64
        E 0 8e 42 64
        E 0 9a 40 64
        E 0 9e 40 64
        E 1 8a 40 64
        E 0 8e 40 64
        E 0 9a 3e 64
        E 0 9e 3e 64
        E 0 8a 3e 64
        E 0 8e 3e 64
        E 0 8f 32 64
        E 0 9a 43 64
        E 0 9e 43 64
        E 0 9f 2f 5a
        E 0 8a 43 64
        E 0 8e 43 64
        E 0 9a 47 64
        E 0 9e 47 64
        E 0 8a 47 64
        E 0 8e 47 64
        E 0 9a 43 64
        E 0 9e 43 64
        E 0 8a 43 64
        E 0 8e 43 64
        E 0 9a 43 64
        E 0 9e 43 64
        E 0 8a 43 64
        E 0 8e 43 64
        E 0 9a 43 64
        E 0 9e 43 64
        E 0 8a 43 64
        E 0 8e 43 64
        E 0 9a 43 64
        E 0 9e 43 64
        E 0 8a 43 64
        E 0 8e 43 64
        E 0 8f 2f 64
        E 0 9a 48 64
        E 0 9e 48 64
        E 0 9f 33 5b
        E 0 8a 48 64
        E 0 8e 48 64
        E 0 9a 48 64
        E 0 9e 48 64
        E 0 8a 48 64
        E 0 8e 48 64
        E 0 9a 43 64
        E 0 9e 43 64
        E 0 8a 43 64
        E 0 8e 43 64
        E 0 9a 43 64
        E 0 9e 43 64
        E 0 8a 43 64
        E 0 8e 43 64
        E 1 9a 43 64
        E 0 9e 43 64
        E 0 8a 43 64
        E 0 8e 43 64
        E 0 9a 43 64
        E 0 9e 43 64
        E 0 8a 43 64
        E 0 8e 43 64
        E 0 9a 42 64
        E 0 9e 42 64
        E 0 8a 42 64
        E 0 8e 42 64
        E 0 8f 33 66
        E 0 9a 45 64
        E 0 9e 45 64
        E 0 9f 32 5a
        E 0 8a 45 64
        E 0 8e 45 64
        E 0 9a 45 64
        E 0 9e 45 64
        E 0 8a 45 64
        E 0 8e 45 64
        E 0 9a 45 64
        E 0 9e 45 64
        E 0 8a 45 64
        E 0 8e 45 64
        E 0 9a 47 64
        E 0 9e 47 64
        E 0 8a 47 64
        E 0 8e 47 64
        E 0 9a 42 64
        E 0 9e 42 64
        E 0 8a 42 64
        E 0 8e 42 64
        E 0 9a 42 64
        E 0 9e 42 64
        E 0 8a 42 64
        E 0 8e 42 64
        E 0 9a 42 64
        E 0 9e 42 64
        E 0 8a 42 64
        E 0 8e 42 64
        E 0 8f 32 64
        E 0 9a 42 64
        E 0 9e 42 64
        E 0 9f 32 5a
        E 0 8a 42 64
        E 0 8e 42 64
        E 0 9a 42 64
        E 0 9e 42 64
        E 0 8a 42 64
        E 0 8e 42 64
        E 0 9a 43 64
        E 0 9e 43 64
        E 0 8a 43 64
        E 0 8e 43 64
        E 0 9a 45 64
        E 0 9e 45 64
        E 0 8a 45 64
        E 0 8e 45 64
        E 0 8f 32 64
        E 0 9a 46 66
        E 0 9e 46 66
        E 0 9f 37 5a
        E 0 8a 46 66
        E 0 8e 46 66
        E 0 9a 46 66
        E 0 9e 46 66
        E 0 8a 46 66
        E 0 8e 46 66
        E 0 9a 43 64
        E 0 9e 43 64
        E 0 8a 43 64
        E 0 8e 43 64
        E 0 9a 43 64
        E 0 9e 43 64
        E 0 8a 43 64
        E 0 8e 43 64
        E 0 9a 44 66
        E 0 9e 44 66
        E 0 8a 44 66
        E 0 8e 44 66
        E 0 8f 37 64
        E 0 9a 41 64
        E 0 9e 41 64
        E 0 9f 2c 5a
        E 0 8a 41 64
        E 0 8e 41 64
        E 0 9a 41 64
        E 1 9e 41 64
        E 0 8a 41 64
        E 0 8e 41 64
        E 0 9a 41 64
        E 0 9e 41 64
        E 0 8a 41 64
        E 0 8e 41 64
        E 0 9a 41 64
        E 0 9e 41 64
        E 0 8a 41 64
        E 0 8e 41 64
        E 0 9a 41 64
        E 0 9e 41 64
        E 0 8a 41 64
        E 0 8e 41 64
        E 0 9a 41 64
        E 0 9e 41 64
        E 7127 8a 41 64
        E 1 8e 41 64
        E 0 9a 43 64
        E 1 9e 43 64
        E 0 8a 43 64
        E 0 8e 43 64
        E 0 8f 2c 64
        E 0 9a 43 64
        E 0 9e 43 64
        E 0 9f 2b 5a
        E 0 8a 43 64
        E 0 8e 43 64
        E 0 9a 43 64
        E 1 9e 43 64
        E 0 8a 43 64
        E 0 8e 43 64
        E 0 9a 47 64
        E 0 9e 47 64
        E 0 8a 47 64
        E 0 8e 47 64
        E 0 9a 43 64
        E 0 9e 43 64
        E 0 8a 43 64
        E 0 8e 43 64
        E 0 9a 43 64
        E 0 9e 43 64
        E 0 8a 43 64
        E 0 8e 43 64
        E 0 8f 2b 64
        E 0 9a 43 64
        E 0 9e 43 64
        E 0 9f 31 5a
        E 0 8a 43 64
        E 0 8e 43 64
        E 0 9a 43 64
        E 1 9e 43 64
        E 0 8a 43 64
        E 0 8e 43 64
        E 0 9a 43 64
        E 0 9e 43 64
        E 0 8a 43 64
        E 0 8e 43 64
        E 0 9a 43 64
        E 0 9e 43 64
        E 277 8a 43 64
        E 0 8e 43 64
        E 0 9a 43 64
        E 0 9e 43 64
        E 203 8a 43 64
        E 1 8e 43 64
        E 0 9a 45 64
        E 0 9e 45 64
        E 411 8a 45 64
        E 0 8e 45 64
        E 0 9a 40 64
        E 1 9e 40 64
        E 592 8a 40 64
        E 0 8e 40 64
        E 0 8f 31 64
        E 0 9a 42 64
        E 0 9e 42 64
        E 0 9f 32 5a
        E 401 8a 42 64
        E 0 8e 42 64
        E 1 9a 42 64
        E 0 9e 42 64
        E 604 8a 42 64
        E 0 8e 42 64
        E 805 9a 45 64
        E 0 9e 45 64
        E 623 8a 45 64
        E 0 8e 45 64
        E 0 9a 3e 64
        E 0 9e 3e 64
        E 385 8a 3e 64
        E 0 8e 3e 64
        E 602 97 45 64
        E 0 9e 45 64
        E 451 87 45 64
        E 1 8e 45 64
        E 0 8f 32 64
        E 0 97 47 64
        E 0 9e 47 64
        E 0 9f 2b 5a
        E 442 87 47 64
        E 0 8e 47 64
        E 0 97 47 64
        E 0 9e 47 64
        E 448 87 47 64
        E 0 8e 47 64
        E 895 97 43 64
        E 0 9e 43 64
        E 676 87 43 64
        E 0 8e 43 64
        E 0 97 3e 64
        E 0 9e 3e 64
        E 442 87 3e 64
        E 1 8e 3e 64
        E 895 8f 2b 64
        E 0 97 47 64
        E 0 9e 47 64
        E 0 9f 2b 5a
        E 452 87 47 64
        E 0 8e 47 64
        E 0 97 43 64
        E 0 9e 43 64
        E 444 87 43 64
        E 0 8e 43 64
        E 446 97 4c 64
        E 1 9e 4c 64
        E 465 87 4c 64
        E 4 8e 4c 64
        E 2 8f 2b 64
        E 0 97 48 64
        E 0 9e 48 64
        E 0 9f 34 5a
        E 655 87 48 64
        E 0 8e 48 64
        E 0 97 48 64
        E 0 9e 48 64
        E 456 87 48 64
        E 0 8e 48 64
        E 220 97 48 64
        E 0 9e 48 64
        E 225 87 48 64
        E 0 8e 48 64
        E 1 97 43 64
        E 0 9e 43 64
        E 209 87 43 64
        E 0 8e 43 64
        E 0 97 44 66
        E 1 9e 44 66
        E 222 87 44 66
        E 0 8e 44 66
        E 0 8f 34 64
        E 0 97 41 64
        E 0 9e 41 64
        E 0 9f 35 5a
        E 898 87 41 64
        E 0 8e 41 64
        E 38402 97 48 64
        E 0 9e 48 64
        E 0 87 48 64
        E 0 8e 48 64
        E 0 8f 35 64
        E 0 97 49 66
        E 0 9e 49 66
        E 0 9f 2e 5b
        E 0 87 49 66
        E 0 8e 49 66
        E 0 97 46 66
        E 0 9e 46 66
        E 0 87 46 66
        E 0 8e 46 66
        E 0 97 46 66
        E 0 9e 46 66
        E 0 87 46 66
        E 0 8e 46 66
        E 0 97 44 66
        E 0 9e 44 66
        E 0 87 44 66
        E 0 8e 44 66
        E 0 8f 2e 66
        E 0 97 41 64
        E 0 9e 41 64
        E 0 9f 30 5a
        E 0 87 41 64
        E 0 8e 41 64
        E 0 97 41 64
        E 0 9e 41 64
        E 0 87 41 64
        E 0 8e 41 64
        E 0 8f 30 64
        E 0 9f 29 5a
        E 0 8f 29 64
        E 0 9a 44 66
        E 1 9e 44 66
        E 0 9f 29 5a
        E 0 8a 44 66
        E 0 8e 44 66
        E 0 9a 44 66
        E 0 9e 44 66
        E 0 8a 44 66
        E 0 8e 44 66
        E 0 9a 44 66
        E 0 9e 44 66
        E 0 8a 44 66
        E 0 8e 44 66
        E 0 9a 46 66
        E 0 9e 46 66
        E 0 8a 46 66
        E 0 8e 46 66
        E 0 9a 48 64
        E 0 9e 48 64
        E 0 8a 48 64
        E 0 8e 48 64
        E 0 8f 29 64
        E 0 9a 41 64
        E 0 9e 41 64
        E 0 9f 29 5a
        E 0 8a 41 64
        E 0 8e 41 64
        E 0 8f 29 64
        E 0 9a 45 64
        E 0 9e 45 64
        E 0 9f 32 5a
        E 0 8a 45 64
        E 0 8e 45 64
        E 0 9a 3e 64
        E 0 9e 3e 64
        E 0 8a 3e 64
        E 0 8e 3e 64
        E 0 9a 45 64
        E 0 9e 45 64
        E 0 8a 45 64
        E 0 8e 45 64
        E 0 8f 32 64
        E 0 9a 46 66
        E 0 9e 46 66
        E 0 9f 37 5a
        E 0 8a 46 66
        E 0 8e 46 66
        E 0 9a 46 66
        E 0 9e 46 66
        E 0 8a 46 66
        E 0 8e 46 66
        E 0 8f 37 64
        E 0 9a 43 64
        E 0 9e 43 64
        E 0 9f 33 5b
        E 0 8a 43 64
        E 0 8e 43 64
        E 0 9a 43 64
        E 0 9e 43 64
        E 0 8a 43 64
        E 1 8e 43 64
        E 0 9a 43 64
        E 0 9e 43 64
        E 0 8a 43 64
        E 0 8e 43 64
        E 0 9a 43 64
        E 0 9e 43 64
        E 0 8a 43 64
        E 0 8e 43 64
        E 0 9a 42 64
        E 0 9e 42 64
        E 0 8a 42 64
        E 0 8e 42 64
        E 0 8f 33 66
        E 0 9a 45 64
        E 0 9e 45 64
        E 0 9f 32 5a
        E 0 8a 45 64
        E 0 8e 45 64
        E 0 9a 45 64
        E 0 9e 45 64
        E 0 8a 45 64
        E 0 8e 45 64
        E 0 97 4a 64
        E 0 9e 4a 64
        E 0 87 4a 64
        E 0 8e 4a 64
        E 0 97 45 64
        E 0 9e 45 64
        E 0 87 45 64
        E 0 8e 45 64
        E 0 9a 42 64
        E 0 9e 42 64
        E 0 8a 42 64
        E 0 8e 42 64
        E 0 8f 32 64
        E 0 9a 45 64
        E 0 9e 45 64
        E 0 9f 32 5a
        E 0 8a 45 64
        E 0 8e 45 64
        E 0 9a 45 64
        E 0 9e 45 64
        E 0 8a 45 64
        E 0 8e 45 64
        E 0 9a 45 64
        E 0 9e 45 64
        E 0 8a 45 64
        E 0 8e 45 64
        E 0 9a 48 64
        E 0 9e 48 64
        E 0 8a 48 64
        E 0 8e 48 64
        E 0 8f 32 64
        E 0 9a 45 64
        E 0 9e 45 64
        E 0 9f 33 5a
        E 0 8a 45 64
        E 0 8e 45 64
        E 0 9a 44 64
        E 0 9e 44 64
        E 0 8a 44 64
        E 0 8e 44 64
        E 0 9a 42 64
        E 1 9e 42 64
        E 0 8a 42 64
        E 0 8e 42 64
        E 0 8f 33 64
        E 0 9a 44 64
        E 0 9e 44 64
        E 0 9f 34 5a
        E 0 8a 44 64
        E 0 8e 44 64
        E 0 97 47 64
        E 0 9e 47 64
        E 0 87 47 64
        E 0 8e 47 64
        E 0 9a 44 64
        E 0 9e 44 64
        E 0 8a 44 64
        E 0 8e 44 64
        E 0 9a 42 64
        E 0 9e 42 64
        E 0 8a 42 64
        E 0 8e 42 64
        E 0 9a 40 64
        E 0 9e 40 64
        E 0 8a 40 64
        E 0 8e 40 64
        E 0 8f 34 64
        E 0 9a 45 64
        E 0 9e 45 64
        E 0 9f 30 5a
        E 0 8a 45 64
        E 0 8e 45 64
        E 0 9a 45 64
        E 0 9e 45 64
        E 0 8a 45 64
        E 0 8e 45 64
        E 0 9a 45 64
        E 0 9e 45 64
        E 0 8a 45 64
        E 0 8e 45 64
        E 0 9a 45 64
        E 0 9e 45 64
        E 0 8a 45 64
        E 0 8e 45 64
        E 0 9a 40 64
        E 0 9e 40 64
        E 0 8a 40 64
        E 0 8e 40 64
        E 0 8f 30 64
        E 0 9a 42 64
        E 0 9e 42 64
        E 0 9f 2f 5a
        E 0 8a 42 64
        E 0 8e 42 64
        E 0 9a 42 64
        E 0 9e 42 64
        E 0 8a 42 64
        E 0 8e 42 64
        E 0 9a 42 64
        E 0 9e 42 64
        E 0 8a 42 64
        E 0 8e 42 64
        E 0 8f 2f 64
        E 0 9a 3f 64
        E 0 9e 3f 64
        E 0 9f 2f 5a
        E 0 8a 3f 64
        E 0 8e 3f 64
        E 0 9a 3f 64
        E 0 9e 3f 64
        E 0 8a 3f 64
        E 0 8e 3f 64
        E 0 9a 40 64
        E 0 9e 40 64
        E 0 8a 40 64
        E 0 8e 40 64
        E 0 9a 47 64
        E 0 9e 47 64
        E 0 8a 47 64
        E 0 8e 47 64
        E 0 9a 42 64
        E 0 9e 42 64
        E 1 8a 42 64
        E 0 8e 42 64
        E 0 9a 42 64
        E 0 9e 42 64
        E 0 8a 42 64
        E 0 8e 42 64
        E 0 9a 47 64
        E 0 9e 47 64
        E 0 8a 47 64
        E 0 8e 47 64
        E 0 8f 2f 64
        E 0 9a 43 64
        E 0 9e 43 64
        E 0 9f 34 5a
        E 0 8a 43 64
        E 0 8e 43 64
        E 0 97 43 64
        E 0 9e 43 64
        E 0 87 43 64
        E 0 8e 43 64
        E 0 97 43 64
        E 0 9e 43 64
        E 0 87 43 64
        E 0 8e 43 64
        E 0 97 42 64
        E 0 9e 42 64
        E 0 87 42 64
        E 0 8e 42 64
        E 0 8f 34 64
        E 0 97 45 64
        E 0 9e 45 64
        E 0 9f 32 5a
        E 0 87 45 64
        E 0 8e 45 64
        E 0 9c 36 64
        E 0 9e 36 64
        E 0 8c 36 64
        E 0 8e 36 64
        E 0 9c 36 64
        E 0 9e 36 64
        E 0 8c 36 64
        E 0 8e 36 64
        E 0 9c 37 64
        E 0 9e 37 64
        E 0 8c 37 64
        E 0 8e 37 64
        E 0 8f 32 64
        E 0 9c 39 64
        E 0 9e 39 64
        E 0 9f 32 5a
        E 0 8c 39 64
        E 0 8e 39 64
        E 0 9c 39 64
        E 0 9e 39 64
        E 0 8c 39 64
        E 0 8e 39 64
        E 38403 9c 39 64
        E 0 9e 39 64
        E 0 8c 39 64
        E 0 8e 39 64
        E 0 9c 3b 64
        E 0 9e 3b 64
        E 0 8c 3b 64
        E 0 8e 3b 64
        E 0 9c 3c 64
        E 0 9e 3c 64
        E 0 8c 3c 64
        E 0 8e 3c 64
        E 0 9c 3c 64
        E 0 9e 3c 64
        E 0 8c 3c 64
        E 0 8e 3c 64
        E 0 9c 3b 64
        E 0 9e 3b 64
        E 0 8c 3b 64
        E 0 8e 3b 64
        E 0 8f 32 64
        E 0 9c 37 64
        E 0 9e 37 64
        E 0 9f 37 5a
        E 0 8c 37 64
        E 0 8e 37 64
        E 0 9c 37 64
        E 0 9e 37 64
        E 0 8c 37 64
        E 0 8e 37 64
        E 0 9c 3b 64
        E 0 9e 3b 64
        E 0 8c 3b 64
        E 0 8e 3b 64
        E 0 9c 3b 64
        E 0 9e 3b 64
        E 1 8c 3b 64
        E 0 8e 3b 64
        E 0 9c 3c 64
        E 0 9e 3c 64
        E 0 8c 3c 64
        E 0 8e 3c 64
        E 0 8f 37 64
        E 0 9c 37 64
        E 0 9e 37 64
        E 0 9f 34 5a
        E 0 8c 37 64
        E 0 8e 37 64
        E 0 9c 37 64
        E 0 9e 37 64
        E 0 8c 37 64
        E 0 8e 37 64
        E 0 8f 34 64
        E 0 9f 34 5a
        E 0 9c 37 64
        E 0 9e 37 64
        E 0 8c 37 64
        E 0 8e 37 64
        E 0 9c 37 64
        E 0 9e 37 64
        E 0 8c 37 64
        E 0 8e 37 64
        E 0 9c 39 64
        E 0 9e 39 64
        E 0 8c 39 64
        E 0 8e 39 64
        E 0 8f 34 64
        E 0 9c 39 64
        E 0 9e 39 64
        E 0 9f 35 5a
        E 0 8c 39 64
        E 0 8e 39 64
        E 0 9c 39 64
        E 0 9e 39 64
        E 0 8c 39 64
        E 0 8e 39 64
        E 0 8f 35 64
        E 0 9c 39 64
        E 0 9e 39 64
        E 0 9f 35 5a
        E 0 8c 39 64
        E 0 8e 39 64
        E 0 9c 39 64
        E 0 9e 39 64
        E 0 8c 39 64
        E 0 8e 39 64
        E 0 9c 39 64
        E 0 9e 39 64
        E 0 8c 39 64
        E 0 8e 39 64
        E 0 9c 3b 64
        E 0 9e 3b 64
        E 0 8c 3b 64
        E 0 8e 3b 64
        E 0 9c 3c 64
        E 0 9e 3c 64
        E 0 8c 3c 64
        E 0 8e 3c 64
        E 0 8f 35 64
        E 0 9c 37 64
        E 0 9e 37 64
        E 0 9f 37 5a
        E 0 8c 37 64
        E 1 8e 37 64
        E 0 9c 37 64
        E 0 9e 37 64
        E 0 8c 37 64
        E 0 8e 37 64
        E 0 8f 37 64
        E 0 9f 30 5a
        E 0 8f 30 64
        E 0 97 48 64
        E 0 9e 48 64
        E 0 9f 30 5a
        E 0 87 48 64
        E 0 8e 48 64
        E 0 97 4a 64
        E 0 9e 4a 64
        E 0 87 4a 64
        E 0 8e 4a 64
        E 0 97 46 66
        E 0 9e 46 66
        E 0 87 46 66
        E 0 8e 46 66
        E 0 97 46 66
        E 0 9e 46 66
        E 0 87 46 66
        E 0 8e 46 66
        E 0 97 45 64
        E 0 9e 45 64
        E 0 87 45 64
        E 0 8e 45 64
        E 0 8f 30 64
        E 0 97 41 64
        E 0 9e 41 64
        E 0 9f 35 5a
        E 0 87 41 64
        E 0 8e 41 64
        E 0 97 41 64
        E 0 9e 41 64
        E 0 87 41 64
        E 0 8e 41 64
        E 0 97 48 64
        E 0 9e 48 64
        E 0 87 48 64
        E 0 8e 48 64
        E 0 97 4b 66
        E 0 9e 4b 66
        E 0 87 4b 66
        E 0 8e 4b 66
        E 0 97 4a 64
        E 0 9e 4a 64
        E 0 87 4a 64
        E 0 8e 4a 64
        E 0 8f 35 64
        E 0 97 46 66
        E 0 9e 46 66
        E 0 9f 2e 5b
        E 0 87 46 66
        E 0 8e 46 66
        E 0 97 46 66
        E 0 9e 46 66
        E 0 87 46 66
        E 0 8e 46 66
        E 1 9a 41 64
        E 0 9e 41 64
        E 0 8a 41 64
        E 0 8e 41 64
        E 0 9a 41 64
        E 0 9e 41 64
        E 0 8a 41 64
        E 0 8e 41 64
        E 0 9a 46 66
        E 0 9e 46 66
        E 0 8a 46 66
        E 0 8e 46 66
        E 0 9a 46 66
        E 0 9e 46 66
        E 0 8a 46 66
        E 0 8e 46 66
        E 0 9a 45 64
        E 0 9e 45 64
        E 0 8a 45 64
        E 0 8e 45 64
        E 0 8f 2e 66
        E 0 9a 48 64
        E 0 9e 48 64
        E 0 9f 35 5a
        E 0 8a 48 64
        E 0 8e 48 64
        E 0 8f 35 64
        E 0 9a 42 64
        E 0 9e 42 64
        E 0 9f 30 5a
        E 0 8a 42 64
        E 0 8e 42 64
        E 0 9a 48 64
        E 0 9e 48 64
        E 0 8a 48 64
        E 0 8e 48 64
        E 0 9a 46 66
        E 0 9e 46 66
        E 0 8a 46 66
        E 0 8e 46 66
        E 0 8f 30 64
        E 0 9a 43 64
        E 0 9e 43 64
        E 0 9f 2e 5b
        E 0 8a 43 64
        E 0 8e 43 64
        E 0 9a 43 64
        E 0 9e 43 64
        E 0 8a 43 64
        E 1 8e 43 64
        E 0 9a 43 64
        E 0 9e 43 64
        E 0 8a 43 64
        E 0 8e 43 64
        E 0 9a 43 64
        E 0 9e 43 64
        E 0 8a 43 64
        E 0 8e 43 64
        E 0 8f 2e 66
        E 0 9a 48 64
        E 0 9e 48 64
        E 0 9f 33 5b
        E 0 8a 48 64
        E 0 8e 48 64
        E 0 9a 48 64
        E 0 9e 48 64
        E 0 8a 48 64
        E 0 8e 48 64
        E 0 9a 46 66
        E 0 9e 46 66
        E 0 8a 46 66
        E 0 8e 46 66
        E 0 8f 33 66
        E 0 9a 43 64
        E 0 9e 43 64
        E 0 9f 32 5a
        E 0 8a 43 64
        E 0 8e 43 64
        E 0 9a 43 64
        E 0 9e 43 64
        E 0 8a 43 64
        E 0 8e 43 64
        E 0 8f 32 64
        E 0 9f 2b 5a
        E 0 8f 2b 64
        E 0 97 4a 64
        E 0 9e 4a 64
        E 0 9f 2b 5a
        E 0 87 4a 64
        E 0 8e 4a 64
        E 0 97 46 66
        E 0 9e 46 66
        E 0 87 46 66
        E 0 8e 46 66
        E 0 97 48 64
        E 0 9e 48 64
        E 0 87 48 64
        E 0 8e 48 64
        E 0 8f 2b 64
        E 0 97 44 66
        E 1 9e 44 66
        E 0 9f 2e 5b
        E 0 87 44 66
        E 0 8e 44 66
        E 0 97 44 66
        E 0 9e 44 66
        E 0 87 44 66
        E 0 8e 44 66
        E 0 97 44 66
        E 0 9e 44 66
        E 0 87 44 66
        E 0 8e 44 66
        E 0 97 44 66
        E 0 9e 44 66
        E 0 87 44 66
        E 0 8e 44 66
        E 0 97 43 64
        E 0 9e 43 64
        E 0 87 43 64
        E 0 8e 43 64
        E 0 8f 2e 66
        E 0 97 3f 66
        E 0 9e 3f 66
        E 0 9f 33 5b
        E 0 87 3f 66
        E 0 8e 3f 66
        E 0 9a 46 66
        E 0 9e 46 66
        E 0 8a 46 66
        E 0 8e 46 66
        E 0 9a 43 64
        E 0 9e 43 64
        E 0 8a 43 64
        E 0 8e 43 64
        E 0 8f 33 66
        E 0 9f 33 5b
        E 0 9a 43 64
        E 0 9e 43 64
        E 0 8a 43 64
        E 0 8e 43 64
        E 0 9a 43 64
        E 0 9e 43 64
        E 38404 8a 43 64
        E 0 8e 43 64
        E 0 9a 42 64
        E 0 9e 42 64
        E 0 8a 42 64
        E 0 8e 42 64
        E 0 8f 33 66
        E 0 9a 45 64
        E 0 9e 45 64
        E 0 9f 32 5a
        E 0 8a 45 64
        E 0 8e 45 64
        E 0 9a 45 64
        E 0 9e 45 64
        E 0 8a 45 64
        E 0 8e 45 64
        E 0 8f 32 64
        E 0 97 48 64
        E 0 9e 48 64
        E 0 9f 32 5a
        E 0 87 48 64
        E 0 8e 48 64
        E 0 97 48 64
        E 0 9e 48 64
        E 0 87 48 64
        E 0 8e 48 64
        E 0 97 45 64
        E 0 9e 45 64
        E 0 87 45 64
        E 0 8e 45 64
        E 1 97 45 64
        E 0 9e 45 64
        E 0 87 45 64
        E 0 8e 45 64
        E 0 97 46 66
        E 0 9e 46 66
        E 0 87 46 66
        E 0 8e 46 66
        E 0 8f 32 64
        E 0 97 43 64
        E 0 9e 43 64
        E 0 9f 2e 5b
        E 0 87 43 64
        E 0 8e 43 64
        E 0 97 43 64
        E 0 9e 43 64
        E 0 87 43 64
        E 0 8e 43 64
        E 0 9a 43 64
        E 0 9e 43 64
        E 0 8a 43 64
        E 0 8e 43 64
        E 0 9a 43 64
        E 0 9e 43 64
        E 0 8a 43 64
        E 0 8e 43 64
        E 0 9a 45 64
        E 0 9e 45 64
        E 0 8a 45 64
        E 0 8e 45 64
        E 0 8f 2e 66
        E 0 9a 45 64
        E 0 9e 45 64
        E 0 9f 2d 5a
        E 0 8a 45 64
        E 0 8e 45 64
        E 0 9a 45 64
        E 0 9e 45 64
        E 0 8a 45 64
        E 0 8e 45 64
        E 0 97 49 64
        E 0 9e 49 64
        E 0 87 49 64
        E 0 8e 49 64
        E 0 97 49 64
        E 0 9e 49 64
        E 0 87 49 64
        E 0 8e 49 64
        E 0 97 4a 64
        E 0 9e 4a 64
        E 0 87 4a 64
        E 0 8e 4a 64
        E 0 8f 2d 64
        E 0 97 45 64
        E 0 9e 45 64
        E 0 9f 35 5a
        E 0 87 45 64
        E 0 8e 45 64
        E 0 97 45 64
        E 0 9e 45 64
        E 0 87 45 64
        E 0 8e 45 64
        E 0 9a 4a 64
        E 0 9e 4a 64
        E 0 8a 4a 64
        E 0 8e 4a 64
        E 0 9a 45 64
        E 0 9e 45 64
        E 0 8a 45 64
        E 0 8e 45 64
        E 0 9a 45 64
        E 0 9e 45 64
        E 0 8a 45 64
        E 0 8e 45 64
        E 0 9a 45 64
        E 0 9e 45 64
        E 0 8a 45 64
        E 0 8e 45 64
        E 0 9a 44 64
        E 0 9e 44 64
        E 0 8a 44 64
        E 0 8e 44 64
        E 0 8f 35 64
        E 0 9a 47 64
        E 0 9e 47 64
        E 0 9f 34 5a
        E 0 8a 47 64
        E 0 8e 47 64
        E 0 9a 47 64
        E 0 9e 47 64
        E 0 8a 47 64
        E 0 8e 47 64
        E 0 97 4a 64
        E 0 9e 4a 64
        E 0 87 4a 64
        E 1 8e 4a 64
        E 0 97 47 64
        E 0 9e 47 64
        E 0 87 47 64
        E 0 8e 47 64
        E 0 97 47 64
        E 0 9e 47 64
        E 0 87 47 64
        E 0 8e 47 64
        E 0 97 48 64
        E 0 9e 48 64
        E 0 87 48 64
        E 0 8e 48 64
        E 0 8f 34 64
        E 0 97 45 64
        E 0 9e 45 64
        E 0 9f 30 5a
        E 0 87 45 64
        E 0 8e 45 64
        E 0 97 45 64
        E 0 9e 45 64
        E 0 87 45 64
        E 0 8e 45 64
        E 0 9a 40 64
        E 0 9e 40 64
        E 0 8a 40 64
        E 0 8e 40 64
        E 0 9a 40 64
        E 0 9e 40 64
        E 0 8a 40 64
        E 0 8e 40 64
        E 0 9a 40 64
        E 0 9e 40 64
        E 0 8a 40 64
        E 0 8e 40 64
        E 0 9a 40 64
        E 0 9e 40 64
        E 0 8a 40 64
        E 0 8e 40 64
        E 0 9a 40 64
        E 0 9e 40 64
        E 0 8a 40 64
        E 0 8e 40 64
        E 0 8f 30 64
        E 0 9a 45 64
        E 0 9e 45 64
        E 0 9f 30 5a
        E 0 8a 45 64
        E 0 8e 45 64
        E 0 9a 45 64
        E 0 9e 45 64
        E 0 8a 45 64
        E 0 8e 45 64
        E 0 9a 40 64
        E 0 9e 40 64
        E 0 8a 40 64
        E 0 8e 40 64
        E 0 8f 30 64
        E 0 9a 42 64
        E 0 9e 42 64
        E 0 9f 2f 5a
        E 0 8a 42 64
        E 0 8e 42 64
        E 0 97 47 64
        E 0 9e 47 64
        E 0 87 47 64
        E 0 8e 47 64
        E 0 8f 2f 64
        E 0 97 43 64
        E 0 9e 43 64
        E 0 9f 34 5a
        E 0 87 43 64
        E 0 8e 43 64
        E 0 97 43 64
        E 0 9e 43 64
        E 0 87 43 64
        E 0 8e 43 64
        E 0 9a 40 64
        E 0 9e 40 64
        E 0 8a 40 64
        E 0 8e 40 64
        E 0 9a 40 64
        E 0 9e 40 64
        E 0 8a 40 64
        E 0 8e 40 64
        E 0 9a 41 64
        E 0 9e 41 64
        E 0 8a 41 64
        E 0 8e 41 64
        E 0 8f 34 64
        E 0 9a 43 64
        E 0 9e 43 64
        E 0 9f 30 5a
        E 0 8a 43 64
        E 0 8e 43 64
        E 0 9a 43 64
        E 0 9e 43 64
        E 0 8a 43 64
        E 0 8e 43 64
        E 1 97 48 64
        E 0 9e 48 64
        E 0 87 48 64
        E 0 8e 48 64
        E 0 8f 30 64
        E 0 97 45 64
        E 0 9e 45 64
        E 0 9f 35 5a
        E 0 87 45 64
        E 0 8e 45 64
        E 0 97 45 64
        E 0 9e 45 64
        E 0 87 45 64
        E 0 8e 45 64
        E 0 8f 35 64
        E 0 9a 41 64
        E 0 9e 41 64
        E 0 9f 35 5a
        E 0 8a 41 64
        E 0 8e 41 64
        E 0 9a 41 64
        E 0 9e 41 64
        E 0 8a 41 64
        E 0 8e 41 64
        E 0 9a 41 64
        E 0 9e 41 64
        E 0 8a 41 64
        E 0 8e 41 64
        E 0 9a 41 64
        E 0 9e 41 64
        E 0 8a 41 64
        E 0 8e 41 64
        E 0 9a 41 64
        E 0 9e 41 64
        E 0 8a 41 64
        E 0 8e 41 64
        E 0 8f 35 64
        E 0 9a 46 66
        E 0 9e 46 66
        E 0 9f 32 5a
        E 0 8a 46 66
        E 0 8e 46 66
        E 0 9a 46 66
        E 0 9e 46 66
        E 0 8a 46 66
        E 0 8e 46 66
        E 0 8f 32 64
        E 0 9a 46 66
        E 0 9e 46 66
        E 0 9f 31 5b
        E 0 8a 46 66
        E 0 8e 46 66
        E 0 9a 41 64
        E 0 9e 41 64
        E 0 8a 41 64
        E 0 8e 41 64
        E 0 9a 41 64
        E 0 9e 41 64
        E 0 8a 41 64
        E 0 8e 41 64
        E 0 9a 41 64
        E 0 9e 41 64
        E 0 8a 41 64
        E 0 8e 41 64
        E 0 9a 40 64
        E 0 9e 40 64
        E 0 8a 40 64
        E 0 8e 40 64
        E 0 8f 31 66
        E 0 9a 43 64
        E 0 9e 43 64
        E 0 9f 30 5a
        E 0 8a 43 64
        E 0 8e 43 64
        E 0 9a 43 64
        E 0 9e 43 64
        E 0 8a 43 64
        E 0 8e 43 64
        E 38404 97 48 64
        E 0 9e 48 64
        E 0 87 48 64
        E 0 8e 48 64
        E 0 8f 30 64
        E 0 97 44 66
        E 0 9e 44 66
        E 0 9f 35 5a
        E 0 87 44 66
        E 0 8e 44 66
        E 0 97 44 66
        E 0 9e 44 66
        E 0 87 44 66
        E 0 8e 44 66
        E 0 97 48 64
        E 0 9e 48 64
        E 0 87 48 64
        E 0 8e 48 64
        E 0 8f 35 64
        E 0 97 43 64
        E 0 9e 43 64
        E 0 9f 37 5a
        E 0 87 43 64
        E 0 8e 43 64
        E 0 97 43 64
        E 0 9e 43 64
        E 0 87 43 64
        E 0 8e 43 64
        E 0 8f 37 64
        E 0 9f 30 5a
        E 0 8f 30 64
        E 0 92 4a 64
        E 0 82 4a 64
        E 0 92 48 64
        E 0 93 3e 5a
        E 0 9f 37 5a
        E 0 82 48 64
        E 0 92 46 66
        E 0 82 46 66
        E 0 83 3e 64
        E 0 8f 37 64
        E 0 92 45 64
        E 0 93 3e 5a
        E 0 9f 2b 5a
        E 0 82 45 64
        E 1 92 43 64
        E 0 82 43 64
        E 0 83 3e 64
        E 0 8f 2b 64
        E 0 92 4b 66
        E 0 82 4b 66
        E 0 92 48 64
        E 0 82 48 64
        E 0 92 4a 64
        E 0 93 3e 5a
        E 0 9f 37 5a
        E 0 83 3e 64
        E 0 8f 37 64
        E 0 93 43 5a
        E 0 9f 2b 5a
        E 0 82 4a 64
        E 0 83 43 64
        E 0 8f 2b 64
        E 0 92 51 64
        E 0 82 51 64
        E 0 92 4f 64
        E 0 93 45 5a
        E 0 9f 3e 5a
        E 0 82 4f 64
        E 0 92 4e 64
        E 0 82 4e 64
        E 0 83 45 64
        E 0 8f 3e 64
        E 0 92 4b 66
        E 0 93 45 5a
        E 0 9f 32 5a
        E 0 82 4b 66
        E 0 92 4a 64
        E 0 82 4a 64
        E 0 83 45 64
        E 0 8f 32 64
        E 0 92 52 66
        E 0 82 52 66
        E 0 92 51 64
        E 0 82 51 64
        E 0 92 4f 64
        E 0 93 46 5b
        E 0 9f 37 5a
        E 0 83 46 66
        E 0 8f 37 64
        E 0 93 46 5b
        E 0 9f 2b 5a
        E 0 82 4f 64
        E 0 83 46 66
        E 0 8f 2b 64
        E 0 92 56 64
        E 1 93 46 5b
        E 0 9f 37 5a
        E 0 83 46 66
        E 0 8f 37 64
        E 0 93 45 5a
        E 0 9f 36 5a
        E 0 83 45 64
        E 0 8f 36 64
        E 0 93 46 5b
        E 0 9f 37 5a
        E 0 83 46 66
        E 0 8f 37 64
        E 0 93 48 5a
        E 0 9f 39 5a
        E 0 83 48 64
        E 0 8f 39 64
        E 0 93 4a 5a
        E 0 9f 3a 5b
        E 0 83 4a 64
        E 0 8f 3a 66
        E 0 93 46 5b
        E 0 9f 37 5a
        E 0 82 56 64
        E 0 83 46 66
        E 0 8f 37 64
        E 0 92 54 64
        E 0 93 48 5a
        E 0 9f 39 5a
        E 0 83 48 64
        E 0 8f 39 64
        E 0 93 46 5b
        E 0 9f 37 5a
        E 0 83 46 66
        E 0 8f 37 64
        E 0 93 48 5a
        E 0 9f 39 5a
        E 0 83 48 64
        E 0 8f 39 64
        E 0 93 4a 5a
        E 0 9f 3a 5b
        E 0 83 4a 64
        E 0 8f 3a 66
        E 0 93 4b 5b
        E 0 9f 3c 5a
        E 0 83 4b 66
        E 0 8f 3c 64
        E 0 93 48 5a
        E 0 9f 39 5a
        E 0 82 54 64
        E 0 83 48 64
        E 0 8f 39 64
        E 0 92 52 66
        E 0 93 4a 5a
        E 0 9f 3a 5b
        E 0 83 4a 64
        E 0 8f 3a 66
        E 0 93 48 5a
        E 0 9f 39 5a
        E 0 83 48 64
        E 0 8f 39 64
        E 1 93 46 5b
        E 0 9f 37 5a
        E 0 83 46 66
        E 0 8f 37 64
        E 0 93 48 5a
        E 0 9f 39 5a
        E 0 83 48 64
        E 0 8f 39 64
        E 0 93 4a 5a
        E 0 9f 3a 5b
        E 0 83 4a 64
        E 0 8f 3a 66
        E 0 93 4b 5b
        E 0 9f 3c 5a
        E 0 82 52 66
        E 0 83 4b 66
        E 0 8f 3c 64
        E 0 92 51 64
        E 0 93 45 5a
        E 0 9f 3e 5a
        E 0 82 51 64
        E 0 83 45 64
        E 0 8f 3e 64
        E 0 93 42 5a
        E 0 9f 32 5a
        E 0 92 4e 64
        E 0 82 4e 64
        E 0 83 42 64
        E 0 8f 32 64
        E 0 92 4f 64
        E 0 82 4f 64
        E 0 92 51 64
        E 0 82 51 64
        E 0 92 48 64
        E 0 93 42 5a
        E 0 9f 32 5a
        E 0 82 48 64
        E 0 92 4b 66
        E 0 82 4b 66
        E 0 92 45 64
        E 0 82 45 64
        E 0 92 48 64
        E 0 82 48 64
        E 0 92 42 64
        E 0 82 42 64
        E 0 92 45 64
        E 0 82 45 64
        E 0 83 42 64
        E 0 8f 32 64
        E 0 92 3e 64
        E 0 93 42 5a
        E 0 9f 32 5a
        E 0 82 3e 64
        E 0 92 48 64
        E 0 82 48 64
        E 0 92 47 64
        E 0 82 47 64
        E 0 92 48 64
        E 0 82 48 64
        E 1 92 4e 64
        E 0 82 4e 64
        E 0 92 51 64
        E 0 82 51 64
        E 0 83 42 64
        E 0 8f 32 64
        E 0 92 4b 66
        E 0 93 42 5a
        E 0 9f 32 5a
        E 0 82 4b 66
        E 0 92 48 64
        E 0 82 48 64
        E 0 92 47 64
        E 0 82 47 64
        E 0 92 48 64
        E 0 82 48 64
        E 0 92 42 64
        E 0 82 42 64
        E 0 92 48 64
        E 0 82 48 64
        E 0 83 42 64
        E 0 8f 32 64
        E 0 92 3e 64
        E 0 93 42 5a
        E 0 9f 32 5a
        E 0 82 3e 64
        E 0 92 42 64
        E 0 82 42 64
        E 0 83 42 64
        E 0 8f 32 64
        E 0 92 45 64
        E 0 93 3e 5a
        E 0 9f 36 5a
        E 0 82 45 64
        E 0 92 48 64
        E 0 82 48 64
        E 0 83 3e 64
        E 0 8f 36 64
        E 0 92 4e 64
        E 0 93 3e 5a
        E 0 9f 32 5a
        E 0 82 4e 64
        E 0 92 51 64
        E 0 82 51 64
        E 0 83 3e 64
        E 0 8f 32 64
        E 0 92 52 66
        E 0 93 3e 5a
        E 0 9f 37 5a
        E 0 82 52 66
        E 0 92 51 64
        E 0 82 51 64
        E 0 83 3e 64
        E 0 8f 37 64
        E 0 92 4f 64
        E 0 93 3e 5a
        E 0 9f 2b 5a
        E 0 82 4f 64
        E 0 83 3e 64
        E 0 8f 2b 64
        E 0 92 51 64
        E 0 93 3f 5b
        E 0 9f 30 5a
        E 0 82 51 64
        E 0 83 3f 66
        E 0 8f 30 64
        E 0 92 4e 64
        E 0 93 3e 5a
        E 0 9f 32 5a
        E 1 8f 32 64
        E 0 9f 26 5a
        E 0 82 4e 64
        E 0 83 3e 64
        E 0 8f 26 64
        E 0 92 4f 64
        E 0 93 3a 5b
        E 0 9f 2b 5a
        E 38403 82 4f 64
        E 0 83 3a 66
        E 0 8f 2b 64
        E 0 97 4a 64
        E 0 87 4a 64
        E 0 97 48 64
        E 0 9f 37 5a
        E 0 87 48 64
        E 0 97 46 66
        E 0 87 46 66
        E 0 8f 37 64
        E 0 97 45 64
        E 0 9f 2b 5a
        E 0 87 45 64
        E 0 97 43 64
        E 0 87 43 64
        E 0 8f 2b 64
        E 0 97 43 64
        E 0 92 52 66
        E 0 82 52 66
        E 0 87 43 64
        E 0 92 51 64
        E 0 97 43 64
        E 0 9f 37 5a
        E 0 82 51 64
        E 0 92 52 66
        E 0 82 52 66
        E 0 8f 37 64
        E 0 92 4a 64
        E 0 9f 2b 5a
        E 0 82 4a 64
        E 0 92 4f 64
        E 0 82 4f 64
        E 0 87 43 64
        E 0 8f 2b 64
        E 0 92 4b 66
        E 0 97 4b 66
        E 0 82 4b 66
        E 0 87 4b 66
        E 0 92 48 64
        E 0 97 48 64
        E 0 82 48 64
        E 0 87 48 64
        E 0 92 4a 64
        E 1 97 4a 64
        E 0 9f 37 5a
        E 0 8f 37 64
        E 0 9f 2b 5a
        E 0 82 4a 64
        E 0 87 4a 64
        E 0 8f 2b 64
        E 0 92 4a 64
        E 0 97 4a 64
        E 0 82 4a 64
        E 0 87 4a 64
        E 0 92 48 64
        E 0 97 48 64
        E 0 9f 37 5a
        E 0 82 48 64
        E 0 87 48 64
        E 0 92 46 66
        E 0 97 46 66
        E 0 82 46 66
        E 0 87 46 66
        E 0 8f 37 64
        E 0 92 45 64
        E 0 97 45 64
        E 0 9f 3a 5b
        E 0 82 45 64
        E 0 87 45 64
        E 0 92 43 64
        E 0 97 43 64
        E 0 82 43 64
        E 0 87 43 64
        E 0 8f 3a 66
        E 0 92 48 64
        E 0 97 48 64
        E 0 9f 3c 5a
        E 0 82 48 64
        E 0 87 48 64
        E 0 92 45 64
        E 0 97 45 64
        E 0 82 45 64
        E 0 87 45 64
        E 0 8f 3c 64
        E 0 92 43 64
        E 0 92 42 64
        E 0 97 43 64
        E 0 97 42 64
        E 0 9f 3e 5a
        E 0 82 43 64
        E 0 87 43 64
        E 0 8f 3e 64
        E 0 9a 3e 64
        E 0 9f 32 5a
        E 0 82 42 64
        E 0 87 42 64
        E 0 8a 3e 64
        E 0 8f 32 64
        E 0 92 43 64
        E 0 97 43 64
        E 0 9a 43 64
        E 1 9f 2b 5a
        E 0 8a 43 64
        E 0 8f 2b 64
        E 0 9f 37 5a
        E 0 9a 46 66
        E 0 82 43 64
        E 0 87 43 64
        E 0 8a 46 66
        E 0 9a 45 64
        E 0 8a 45 64
        E 0 9a 43 64
        E 0 8a 43 64
        E 0 8f 37 64
        E 0 9a 4a 64
        E 0 9f 35 5a
        E 0 92 51 64
        E 0 82 51 64
        E 0 8a 4a 64
        E 0 92 4f 64
        E 0 9a 3e 64
        E 0 82 4f 64
        E 0 92 51 64
        E 0 82 51 64
        E 0 8a 3e 64
        E 0 92 4a 64
        E 0 82 4a 64
        E 0 92 51 64
        E 0 82 51 64
        E 0 8f 35 64
        E 0 92 4f 64
        E 0 9a 43 64
        E 0 9f 33 5b
        E 0 8a 43 64
        E 0 9a 45 64
        E 0 8a 45 64
        E 0 9a 46 66
        E 0 8a 46 66
        E 0 9a 48 64
        E 0 8a 48 64
        E 0 9a 46 66
        E 0 9a 45 64
        E 0 82 4f 64
        E 0 8a 45 64
        E 0 8f 33 66
        E 0 92 51 64
        E 0 97 4a 64
        E 0 9a 43 64
        E 0 9a 42 64
        E 0 9f 32 5a
        E 0 8a 46 66
        E 0 87 4a 64
        E 0 8a 43 64
        E 0 8f 32 64
        E 0 97 45 64
        E 0 9f 26 5a
        E 0 82 51 64
        E 0 87 45 64
        E 0 8a 42 64
        E 0 8f 26 64
        E 0 97 4b 66
        E 0 87 4b 66
        E 0 97 4b 66
        E 1 9f 36 5a
        E 0 92 4e 64
        E 0 82 4e 64
        E 0 87 4b 66
        E 0 92 4f 64
        E 0 97 4a 64
        E 0 82 4f 64
        E 0 87 4a 64
        E 0 92 51 64
        E 0 97 48 64
        E 0 82 51 64
        E 0 87 48 64
        E 0 92 4a 64
        E 0 97 47 64
        E 0 82 4a 64
        E 0 87 47 64
        E 0 92 48 64
        E 0 97 45 64
        E 0 82 48 64
        E 0 87 45 64
        E 0 8f 36 64
        E 0 92 3e 64
        E 0 97 47 64
        E 0 9a 43 64
        E 0 9f 37 5a
        E 0 87 47 64
        E 0 97 45 64
        E 0 87 45 64
        E 0 8a 43 64
        E 0 8f 37 64
        E 0 97 43 64
        E 0 9a 3e 64
        E 0 9f 2b 5a
        E 0 82 3e 64
        E 0 87 43 64
        E 0 8a 3e 64
        E 0 8f 2b 64
        E 0 9a 44 66
        E 0 8a 44 66
        E 0 9a 44 66
        E 0 9f 3b 5a
        E 0 92 47 64
        E 0 82 47 64
        E 0 8a 44 66
        E 0 92 48 64
        E 0 9a 43 64
        E 0 82 48 64
        E 0 8a 43 64
        E 0 92 4a 64
        E 0 9a 41 64
        E 0 82 4a 64
        E 0 8a 41 64
        E 0 92 43 64
        E 0 9a 3f 66
        E 0 82 43 64
        E 0 8a 3f 66
        E 0 92 41 64
        E 0 9a 3e 64
        E 0 82 41 64
        E 0 8a 3e 64
        E 0 8f 3b 64
        E 0 92 37 64
        E 0 9a 3f 66
        E 0 9f 3c 5a
        E 0 8f 3c 64
        E 0 9f 3e 5a
        E 0 8f 3e 64
        E 0 9f 3f 5b
        E 0 8f 3f 66
        E 0 9f 3c 5a
        E 0 82 37 64
        E 0 8a 3f 66
        E 0 8f 3c 64
        E 0 97 4b 66
        E 0 9a 43 64
        E 0 9f 37 5a
        E 0 8f 37 64
        E 0 9f 33 5b
        E 0 87 4b 66
        E 0 8a 43 64
        E 0 8f 33 66
        E 1 97 4a 64
        E 0 9a 41 64
        E 0 9f 35 5a
        E 0 92 4d 64
        E 0 82 4d 64
        E 0 92 4f 64
        E 0 82 4f 64
        E 0 92 50 66
        E 0 82 50 66
        E 0 92 4f 64
        E 0 82 4f 64
        E 0 92 4d 64
        E 0 82 4d 64
        E 0 87 4a 64
        E 0 8a 41 64
        E 0 8f 35 64
        E 0 97 48 64
        E 0 9a 3f 66
        E 0 9f 36 5a
        E 0 92 48 64
        E 0 82 48 64
        E 0 92 4a 64
        E 0 82 4a 64
        E 0 92 4b 66
        E 0 82 4b 66
        E 0 92 4a 64
        E 0 82 4a 64
        E 0 92 48 64
        E 0 82 48 64
        E 0 87 48 64
        E 0 8a 3f 66
        E 0 8f 36 64
        E 0 97 48 64
        E 0 9a 3f 66
        E 0 9f 37 5a
        E 0 92 4f 64
        E 0 82 4f 64
        E 0 92 4d 64
        E 0 82 4d 64
        E 0 92 4f 64
        E 0 82 4f 64
        E 0 87 48 64
        E 0 8a 3f 66
        E 0 8f 37 64
        E 0 92 4a 64
        E 0 97 47 64
        E 0 9a 3e 64
        E 0 9f 2b 5a
        E 0 82 4a 64
        E 0 92 4d 64
        E 0 82 4d 64
        E 0 87 47 64
        E 0 8a 3e 64
        E 0 8f 2b 64
        E 0 92 47 64
        E 0 97 4a 64
        E 0 87 4a 64
        E 0 97 47 64
        E 0 87 47 64
        E 0 97 45 64
        E 0 97 43 64
        E 0 9f 37 5a
        E 0 82 47 64
        E 0 87 45 64
        E 0 8f 37 64
        E 0 9f 2b 5a
        E 0 87 43 64
        E 0 8f 2b 64
        E 0 9a 4a 64
        E 38403 8a 4a 64
        E 3 9a 47 64
        E 0 8a 47 64
        E 1 9a 45 64
        E 1 9a 43 64
        E 1 9f 37 5a
        E 0 8a 45 64
        E 0 8f 37 64
        E 0 9f 2b 5a
        E 0 8a 43 64
        E 0 8f 2b 64
        E 0 92 55 64
        E 0 93 40 5a
        E 0 97 49 64
        E 0 9a 43 64
        E 0 9f 2d 5a
        E 0 82 55 64
        E 0 83 40 64
        E 0 87 49 64
        E 0 8a 43 64
        E 0 8f 2d 64
        E 0 92 56 64
        E 0 93 41 5a
        E 0 97 4a 64
        E 0 9a 46 66
        E 0 9f 32 5a
        E 0 82 56 64
        E 1 83 41 64
        E 0 87 4a 64
        E 0 8a 46 66
        E 0 8f 32 64
        E 0 92 54 64
        E 0 93 43 5a
        E 0 97 48 64
        E 0 9a 45 64
        E 0 9f 34 5a
        E 0 82 54 64
        E 0 83 43 64
        E 0 87 48 64
        E 0 8a 45 64
        E 0 8f 34 64
        E 0 92 52 66
        E 0 93 45 5a
        E 0 97 46 66
        E 0 9a 43 64
        E 0 9f 35 5a
        E 0 82 52 66
        E 0 83 45 64
        E 0 87 46 66
        E 0 8a 43 64
        E 0 8f 35 64
        E 0 92 51 64
        E 0 93 46 5b
        E 0 97 45 64
        E 0 9a 41 64
        E 0 9f 37 5a
        E 0 82 51 64
        E 0 83 46 66
        E 0 87 45 64
        E 0 8a 41 64
        E 0 8f 37 64
        E 0 92 4f 64
        E 0 93 49 5b
        E 0 97 43 64
        E 0 9a 40 64
        E 0 9f 39 5a
        E 0 8f 39 64
        E 0 9f 2d 5a
        E 0 82 4f 64
        E 0 83 49 66
        E 0 87 43 64
        E 0 8a 40 64
        E 0 8f 2d 64
        E 0 92 4f 64
        E 0 93 45 5a
        E 0 97 43 64
        E 0 9a 40 64
        E 0 9f 32 5a
        E 0 8f 32 64
        E 0 9f 31 5a
        E 0 82 4f 64
        E 0 87 43 64
        E 0 8a 40 64
        E 0 8f 31 64
        E 0 92 4d 64
        E 0 97 41 64
        E 0 9a 3e 64
        E 0 9f 32 5a
        E 0 8f 32 64
        E 0 9f 34 5a
        E 0 83 45 64
        E 0 8f 34 64
        E 0 93 45 5a
        E 0 9f 35 5a
        E 0 8f 35 64
        E 0 9f 32 5a
        E 0 82 4d 64
        E 0 83 45 64
        E 0 87 41 64
        E 0 8a 3e 64
        E 0 8f 32 64
        E 0 92 56 64
        E 0 93 43 5a
        E 0 97 4a 64
        E 0 9a 46 66
        E 0 9f 37 5a
        E 0 8f 37 64
        E 0 9f 36 5a
        E 0 82 56 64
        E 0 83 43 64
        E 0 87 4a 64
        E 0 8a 46 66
        E 0 8f 36 64
        E 1 92 56 64
        E 0 93 43 5a
        E 0 97 4a 64
        E 0 9a 46 66
        E 0 9f 37 5a
        E 0 8f 37 64
        E 0 9f 39 5a
        E 0 82 56 64
        E 0 83 43 64
        E 0 87 4a 64
        E 0 8a 46 66
        E 0 8f 39 64
        E 0 92 56 64
        E 0 93 43 5a
        E 0 97 4a 64
        E 0 9a 46 66
        E 0 9f 3a 5b
        E 0 8f 3a 66
        E 0 9f 39 5a
        E 0 82 56 64
        E 0 83 43 64
        E 0 87 4a 64
        E 0 8a 46 66
        E 0 8f 39 64
        E 0 92 56 64
        E 0 93 43 5a
        E 0 97 4a 64
        E 0 9a 46 66
        E 0 9f 37 5a
        E 0 82 56 64
        E 0 83 43 64
        E 0 87 4a 64
        E 0 8a 46 66
        E 0 8f 37 64
        E 0 92 54 64
        E 0 93 40 5a
        E 0 97 48 64
        E 0 9a 45 64
        E 0 9f 39 5a
        E 0 82 54 64
        E 0 87 48 64
        E 0 8a 45 64
        E 0 92 52 66
        E 0 97 46 66
        E 0 9a 43 64
        E 0 82 52 66
        E 0 83 40 64
        E 0 87 46 66
        E 0 8a 43 64
        E 0 8f 39 64
        E 0 92 51 64
        E 0 93 49 5a
        E 0 97 45 64
        E 0 9a 41 64
        E 0 9f 2d 5a
        E 0 82 51 64
        E 0 87 45 64
        E 0 8a 41 64
        E 0 92 4f 64
        E 0 97 43 64
        E 0 9a 40 64
        E 0 82 4f 64
        E 0 83 49 64
        E 0 87 43 64
        E 0 8a 40 64
        E 0 8f 2d 64
        E 0 92 4d 64
        E 0 93 45 5a
        E 0 97 41 64
        E 0 9a 3e 64
        E 0 9f 32 5a
        E 0 82 4d 64
        E 0 83 45 64
        E 0 87 41 64
        E 0 8a 3e 64
        E 0 8f 32 64
        E 0 92 4c 64
        E 0 93 45 5a
        E 0 97 40 64
        E 0 9a 3d 64
        E 0 9f 39 5a
        E 0 83 45 64
        E 0 8f 39 64
        E 0 93 45 5a
        E 0 9f 2d 5a
        E 0 82 4c 64
        E 0 83 45 64
        E 0 87 40 64
        E 0 8a 3d 64
        E 0 8f 2d 64
        E 0 92 4d 64
        E 0 93 41 5a
        E 0 97 3e 64
        E 0 9a 3e 64
        E 1 9f 32 5a
        E 0 82 4d 64
        E 0 92 51 64
        E 0 82 51 64
        E 0 8f 32 64
        E 0 92 4f 64
        E 0 9f 3e 5a
        E 0 82 4f 64
        E 0 92 51 64
        E 0 82 51 64
        E 0 83 41 64
        E 0 87 3e 64
        E 0 8a 3e 64
        E 0 8f 3e 64
        E 0 92 4a 64
        E 0 93 41 5a
        E 0 9f 35 5a
        E 0 82 4a 64
        E 0 92 51 64
        E 0 82 51 64
        E 0 83 41 64
        E 0 8f 35 64
        E 0 92 46 66
        E 0 93 3e 5a
        E 0 9f 2b 5a
        E 0 82 46 66
        E 0 92 52 66
        E 0 82 52 66
        E 0 8f 2b 64
        E 0 92 51 64
        E 0 9f 37 5a
        E 0 82 51 64
        E 0 92 52 66
        E 0 82 52 66
        E 0 83 3e 64
        E 0 8f 37 64
        E 0 92 4a 64
        E 0 93 43 5a
        E 0 9f 2e 5b
        E 0 82 4a 64
        E 0 92 52 66
        E 0 82 52 66
        E 0 83 43 64
        E 0 8f 2e 66
        E 0 92 49 64
        E 0 93 40 5a
        E 0 9f 2d 5a
        E 0 82 49 64
        E 0 92 4c 64
        E 0 82 4c 64
        E 0 8f 2d 64
        E 0 92 4a 64
        E 0 9f 31 5a
        E 0 82 4a 64
        E 0 92 4c 64
        E 1 82 4c 64
        E 0 83 40 64
        E 0 8f 31 64
        E 0 92 43 64
        E 0 93 3d 5b
        E 0 9f 2d 5a
        E 0 82 43 64
        E 0 92 4c 64
        E 0 82 4c 64
        E 0 83 3d 66
        E 0 8f 2d 64
        E 0 92 41 64
        E 0 93 39 5a
        E 0 9f 32 5a
        E 0 82 41 64
        E 0 83 39 64
        E 0 8f 32 64
        E 0 92 43 64
        E 0 93 3a 5b
        E 0 9f 2b 5a
        E 0 82 43 64
        E 0 83 3a 66
        E 0 8f 2b 64
        E 0 92 40 64
        E 0 93 39 5a
        E 0 9f 2d 5a
        E 0 82 40 64
        E 0 83 39 64
        E 0 8f 2d 64
        E 0 92 3e 64
        E 0 93 39 5a
        E 0 97 45 64
        E 0 9f 32 5a
        E 0 87 45 64
        E 0 8f 32 64
        E 0 97 4a 64
        E 0 9f 35 5a
        E 0 82 3e 64
        E 0 83 39 64
        E 0 87 4a 64
        E 0 8f 35 64
        E 0 97 4d 64
        E 0 9f 32 5a
        E 0 87 4d 64
        E 0 8f 32 64
        E 0 97 4c 64
        E 0 9f 37 5a
        E 0 87 4c 64
        E 0 8f 37 64
        E 0 97 4a 64
        E 0 9f 38 5a
        E 0 87 4a 64
        E 0 8f 38 64
        E 0 97 49 64
        E 0 9f 39 5a
        E 0 87 49 64
        E 0 92 51 64
        E 0 97 47 64
        E 0 82 51 64
        E 0 87 47 64
        E 0 92 4f 64
        E 0 97 45 64
        E 0 82 4f 64
        E 0 92 51 64
        E 0 82 51 64
        E 0 8f 39 64
        E 0 92 49 64
        E 0 9f 2d 5a
        E 0 82 49 64
        E 0 92 4c 64
        E 0 82 4c 64
        E 0 87 45 64
        E 0 8f 2d 64
        E 0 92 4d 64
        E 0 97 45 64
        E 0 9f 32 5a
        E 0 87 45 64
        E 0 8f 32 64
        E 0 97 4a 64
        E 0 9f 35 5a
        E 0 82 4d 64
        E 0 87 4a 64
        E 0 8f 35 64
        E 0 92 4f 64
        E 0 97 4f 64
        E 0 9f 31 5a
        E 0 82 4f 64
        E 0 87 4f 64
        E 0 8f 31 64
        E 0 92 4d 64
        E 0 97 4d 64
        E 0 9f 32 5a
        E 0 82 4d 64
        E 0 87 4d 64
        E 0 8f 32 64
        E 0 92 4c 64
        E 0 97 4c 64
        E 0 9f 39 5a
        E 0 8f 39 64
        E 0 9f 2d 5a
        E 0 82 4c 64
        E 0 87 4c 64
        E 0 8f 2d 64
        E 0 92 4a 64
        E 0 97 4a 64
        E 0 9a 3e 64
        E 0 9f 26 5a
        E 0 8a 3e 64
        E 0 8f 26 64
        E 0 9a 41 64
        E 0 9f 32 5a
        E 0 82 4a 64
        E 0 87 4a 64
        E 0 8a 41 64
        E 0 8f 32 64
        E 0 9a 45 64
        E 1 9f 35 5a
        E 38403 8a 45 64
        E 0 8f 35 64
        E 0 9a 45 64
        E 0 9f 34 5a
        E 0 8a 45 64
        E 0 8f 34 64
        E 0 9a 43 64
        E 0 9f 31 5a
        E 0 8f 31 64
        E 0 9f 2d 5a
        E 0 8a 43 64
        E 0 8f 2d 64
        E 0 9a 41 64
        E 0 9f 32 5a
        E 0 8a 41 64
        E 0 92 51 64
        E 0 9a 40 64
        E 0 82 51 64
        E 0 8a 40 64
        E 0 92 4f 64
        E 0 9a 3e 64
        E 0 82 4f 64
        E 0 92 51 64
        E 0 82 51 64
        E 0 8f 32 64
        E 1 92 4a 64
        E 0 9f 26 5a
        E 0 82 4a 64
        E 0 92 4d 64
        E 0 82 4d 64
        E 0 8a 3e 64
        E 0 8f 26 64
        E 0 92 45 64
        E 0 9a 3e 64
        E 0 9f 32 5a
        E 0 82 45 64
        E 0 8a 3e 64
        E 0 92 4a 64
        E 0 9a 41 64
        E 0 82 4a 64
        E 0 8a 41 64
        E 0 8f 32 64
        E 0 92 4d 64
        E 0 9a 45 64
        E 0 9f 30 5a
        E 0 82 4d 64
        E 0 8a 45 64
        E 0 8f 30 64
        E 0 92 50 66
        E 1 9a 4a 64
        E 0 9f 2e 5b
        E 0 82 50 66
        E 0 8a 4a 64
        E 0 92 4a 64
        E 0 9a 45 64
        E 0 9a 44 64
        E 0 8a 45 64
        E 0 82 4a 64
        E 0 8a 44 64
        E 0 8f 2e 66
        E 0 92 49 64
        E 0 97 4c 64
        E 0 9a 45 64
        E 0 9f 2d 5a
        E 0 87 4c 64
        E 0 8f 2d 64
        E 0 97 45 64
        E 0 9f 31 5a
        E 0 82 49 64
        E 0 87 45 64
        E 0 8a 45 64
        E 0 8f 31 64
        E 0 97 49 64
        E 0 9f 34 5a
        E 0 87 49 64
        E 0 8f 34 64
        E 0 97 49 64
        E 0 9f 2d 5a
        E 0 87 49 64
        E 0 97 4a 64
        E 0 87 4a 64
        E 0 97 4c 64
        E 0 87 4c 64
        E 0 97 4e 64
        E 0 87 4e 64
        E 0 97 4f 64
        E 0 87 4f 64
        E 0 8f 2d 64
        E 0 97 4e 64
        E 0 9a 45 64
        E 0 9f 32 5a
        E 0 87 4e 64
        E 0 97 4c 64
        E 0 87 4c 64
        E 0 8a 45 64
        E 0 8f 32 64
        E 0 97 4a 64
        E 0 9a 3e 64
        E 0 9f 36 5a
        E 0 87 4a 64
        E 0 8a 3e 64
        E 0 8f 36 64
        E 0 9a 42 64
        E 0 9f 39 5a
        E 0 8a 42 64
        E 0 8f 39 64
        E 0 9a 42 64
        E 1 9f 32 5a
        E 0 8a 42 64
        E 0 9a 43 64
        E 0 8a 43 64
        E 0 9a 45 64
        E 0 8a 45 64
        E 0 9a 46 66
        E 0 8a 46 66
        E 0 9a 48 64
        E 0 8a 48 64
        E 0 8f 32 64
        E 0 9a 46 66
        E 0 9f 37 5a
        E 0 8a 46 66
        E 0 8f 37 64
        E 0 9a 45 64
        E 0 9f 36 5a
        E 0 8a 45 64
        E 0 8f 36 64
        E 0 9a 43 64
        E 0 9f 37 5a
        E 1 8f 37 64
        E 0 9f 3a 5b
        E 0 8a 43 64
        E 0 8f 3a 66
        E 0 97 4a 64
        E 0 9a 46 66
        E 0 9f 39 5a
        E 0 8f 39 64
        E 0 9f 37 5a
        E 0 87 4a 64
        E 0 8a 46 66
        E 0 8f 37 64
        E 0 97 48 64
        E 0 9a 45 64
        E 0 9f 30 5a
        E 0 92 48 64
        E 0 82 48 64
        E 0 92 4a 64
        E 0 82 4a 64
        E 0 92 4b 66
        E 0 82 4b 66
        E 0 92 4a 64
        E 0 82 4a 64
        E 0 92 48 64
        E 0 82 48 64
        E 0 87 48 64
        E 0 8a 45 64
        E 0 8f 30 64
        E 0 97 46 66
        E 0 9a 43 64
        E 0 9f 31 5a
        E 0 92 43 64
        E 0 82 43 64
        E 0 92 45 64
        E 0 82 45 64
        E 0 92 46 66
        E 0 82 46 66
        E 0 92 45 64
        E 0 82 45 64
        E 0 92 43 64
        E 0 82 43 64
        E 0 87 46 66
        E 0 8a 43 64
        E 0 8f 31 64
        E 0 97 46 66
        E 0 9a 43 64
        E 0 9f 32 5a
        E 1 87 46 66
        E 0 8a 43 64
        E 0 8f 32 64
        E 0 97 45 64
        E 0 9a 42 64
        E 0 9f 26 5a
        E 0 87 45 64
        E 0 8a 42 64
        E 0 8f 26 64
        E 0 92 53 64
        E 0 93 4a 5a
        E 0 97 4a 64
        E 0 9a 47 64
        E 0 9f 37 5a
        E 0 82 53 64
        E 0 83 4a 64
        E 0 87 4a 64
        E 0 8a 47 64
        E 0 8f 37 64
        E 0 92 53 64
        E 0 93 4a 5a
        E 0 97 4a 64
        E 0 9a 47 64
        E 0 9f 37 5a
        E 0 82 53 64
        E 0 83 4a 64
        E 0 87 4a 64
        E 0 8a 47 64
        E 0 8f 37 64
        E 0 92 53 64
        E 0 93 4a 5a
        E 0 97 4a 64
        E 0 9a 47 64
        E 0 9f 37 5a
        E 0 82 53 64
        E 0 83 4a 64
        E 0 87 4a 64
        E 0 8a 47 64
        E 0 8f 37 64
        E 0 92 53 64
        E 0 93 4a 5a
        E 0 97 4a 64
        E 0 9a 47 64
        E 0 9f 37 5a
        E 0 82 53 64
        E 0 83 4a 64
        E 0 87 4a 64
        E 0 8a 47 64
        E 0 8f 37 64
        E 0 92 53 64
        E 0 93 4a 5a
        E 0 97 4a 64
        E 0 9a 47 64
        E 0 9f 37 5a
        E 0 82 53 64
        E 0 83 4a 64
        E 1 87 4a 64
        E 0 8a 47 64
        E 0 8f 37 64
        E 0 92 53 64
        E 0 93 47 5a
        E 0 97 4a 64
        E 0 9a 47 64
        E 0 9f 37 5a
        E 0 82 53 64
        E 0 83 47 64
        E 0 87 4a 64
        E 0 8a 47 64
        E 0 8f 37 64
        E 0 92 54 64
        E 0 93 43 5a
        E 0 97 4b 66
        E 0 9a 48 64
        E 0 9f 30 5a
        E 0 82 54 64
        E 0 83 43 64
        E 0 87 4b 66
        E 0 8a 48 64
        E 0 8f 30 64
        E 0 92 54 64
        E 0 93 43 5a
        E 0 97 4b 66
        E 0 9a 48 64
        E 0 9f 30 5a
        E 0 82 54 64
        E 0 83 43 64
        E 0 87 4b 66
        E 0 8a 48 64
        E 0 8f 30 64
        E 0 92 55 64
        E 0 93 43 5a
        E 0 97 4c 64
        E 0 9a 49 64
        E 0 9f 39 5a
        E 0 82 55 64
        E 0 83 43 64
        E 0 87 4c 64
        E 0 8a 49 64
        E 0 8f 39 64
        E 0 92 55 64
        E 1 93 43 5a
        E 0 97 4c 64
        E 0 9a 49 64
        E 0 9f 39 5a
        E 0 82 55 64
        E 0 83 43 64
        E 0 87 4c 64
        E 0 8a 49 64
        E 0 8f 39 64
        E 0 92 55 64
        E 0 93 43 5a
        E 0 97 4c 64
        E 0 9a 49 64
        E 0 9f 39 5a
        E 0 82 55 64
        E 0 83 43 64
        E 0 87 4c 64
        E 0 8a 49 64
        E 0 8f 39 64
        E 0 92 56 64
        E 0 93 45 5a
        E 0 97 4e 64
        E 0 9a 4a 64
        E 0 9f 32 5a
        E 0 82 56 64
        E 0 83 45 64
        E 0 87 4e 64
        E 0 8a 4a 64
        E 0 8f 32 64
        E 0 92 4a 64
        E 0 93 42 5a
        E 0 97 4a 64
        E 0 9a 3e 64
        E 0 9f 26 5a
        E 0 82 4a 64
        E 0 83 42 64
        E 0 87 4a 64
        E 0 8a 3e 64
        E 0 8f 26 64
        E 0 92 4f 64
        E 0 93 3a 5b
        E 0 97 4f 64
        E 0 9a 4b 66
        E 0 9f 2b 5a
        E 0 82 4f 64
        E 0 83 3a 66
        E 0 87 4f 64
        E 0 8a 4b 66
        E 0 8f 2b 64
        E 0 92 4d 64
        E 0 93 3c 5a
        E 0 97 4d 64
        E 0 9a 4a 64
        E 0 9f 2d 5a
        E 0 82 4d 64
        E 0 87 4d 64
        E 0 8a 4a 64
        E 0 92 4b 66
        E 0 97 4b 66
        E 0 9a 48 64
        E 0 82 4b 66
        E 0 83 3c 64
        E 0 87 4b 66
        E 0 8a 48 64
        E 0 8f 2d 64
        E 0 92 4a 64
        E 0 93 3e 5a
        E 0 97 4a 64
        E 0 9a 46 66
        E 0 9f 2e 5b
        E 0 82 4a 64
        E 0 87 4a 64
        E 0 8a 46 66
        E 0 92 48 64
        E 0 97 48 64
        E 0 9a 45 64
        E 0 82 48 64
        E 0 83 3e 64
        E 0 87 48 64
        E 0 8a 45 64
        E 0 8f 2e 66
        E 0 92 46 66
        E 1 93 3f 5b
        E 0 97 46 66
        E 0 9a 43 64
        E 0 9f 30 5a
        E 0 82 46 66
        E 0 83 3f 66
        E 0 87 46 66
        E 0 8a 43 64
        E 0 8f 30 64
        E 0 92 45 64
        E 0 93 42 5a
        E 0 97 45 64
        E 0 9a 42 64
        E 0 9f 32 5a
        E 38403 83 42 64
        E 0 8f 32 64
        E 0 93 3e 5a
        E 0 9f 26 5a
        E 0 82 45 64
        E 0 83 3e 64
        E 0 87 45 64
        E 0 8a 42 64
        E 0 8f 26 64
        E 0 92 43 64
        E 0 93 3e 5a
        E 0 97 43 64
        E 0 9a 43 64
        E 0 9f 2b 5a
        E 0 82 43 64
        E 0 92 4f 64
        E 0 82 4f 64
        E 0 83 3e 64
        E 0 8f 2b 64
        E 0 92 4e 64
        E 0 93 3e 5a
        E 0 9f 37 5a
        E 0 82 4e 64
        E 0 92 4f 64
        E 0 82 4f 64
        E 0 83 3e 64
        E 0 87 43 64
        E 0 8a 43 64
        E 0 8f 37 64
        E 0 92 4a 64
        E 0 93 37 5a
        E 1 9f 2b 5a
        E 0 82 4a 64
        E 0 92 4f 64
        E 0 82 4f 64
        E 0 83 37 64
        E 0 8f 2b 64
        E 0 92 46 66
        E 0 93 37 5a
        E 0 9a 4a 64
        E 0 82 46 66
        E 0 83 37 64
        E 0 8a 4a 64
        E 0 92 46 66
        E 0 93 37 5a
        E 0 9a 43 64
        E 0 8a 43 64
        E 0 9a 43 64
        E 0 82 46 66
        E 0 83 37 64
        E 0 8a 43 64
        E 0 92 46 66
        E 0 93 37 5a
        E 0 9a 43 64
        E 0 8a 43 64
        E 0 9a 43 64
        E 0 82 46 66
        E 0 83 37 64
        E 0 8a 43 64
        E 0 92 45 64
        E 0 93 3e 5a
        E 0 97 4a 64
        E 0 9a 43 64
        E 0 82 45 64
        E 0 83 3e 64
        E 0 87 4a 64
        E 0 8a 43 64
        E 0 92 45 64
        E 0 93 3e 5a
        E 0 97 45 64
        E 0 9a 42 64
        E 0 87 45 64
        E 0 97 45 64
        E 0 82 45 64
        E 0 83 3e 64
        E 0 87 45 64
        E 1 92 45 64
        E 0 93 3e 5a
        E 0 97 45 64
        E 0 87 45 64
        E 0 97 45 64
        E 0 82 45 64
        E 0 83 3e 64
        E 0 87 45 64
        E 0 8a 42 64
        E 0 92 45 64
        E 0 93 3e 5a
        E 0 97 45 64
        E 0 9a 46 66
        E 0 82 45 64
        E 0 83 3e 64
        E 0 87 45 64
        E 0 8a 46 66
        E 0 92 43 64
        E 0 93 3e 5a
        E 0 97 43 64
        E 0 9a 46 66
        E 0 8a 46 66
        E 0 9a 46 66
        E 0 82 43 64
        E 0 83 3e 64
        E 0 8a 46 66
        E 0 92 43 64
        E 0 93 3e 5a
        E 0 9a 46 66
        E 0 8a 46 66
        E 0 9a 46 66
        E 0 82 43 64
        E 0 83 3e 64
        E 0 87 43 64
        E 0 8a 46 66
        E 0 92 48 64
        E 0 93 3e 5a
        E 0 97 48 64
        E 0 9a 46 66
        E 0 82 48 64
        E 0 83 3e 64
        E 0 87 48 64
        E 0 8a 46 66
        E 0 92 48 64
        E 0 93 3e 5a
        E 0 97 48 64
        E 0 9a 45 64
        E 0 87 48 64
        E 0 97 48 64
        E 0 82 48 64
        E 0 83 3e 64
        E 0 87 48 64
        E 0 92 48 64
        E 0 93 3e 5a
        E 0 97 48 64
        E 0 87 48 64
        E 0 97 48 64
        E 0 82 48 64
        E 0 83 3e 64
        E 0 87 48 64
        E 0 8a 45 64
        E 0 92 48 64
        E 0 93 3e 5a
        E 0 97 48 64
        E 0 82 48 64
        E 0 83 3e 64
        E 0 87 48 64
        E 0 92 46 66
        E 0 93 3e 5a
        E 0 97 46 66
        E 1 82 46 66
        E 0 83 3e 64
        E 0 87 46 66
        E 0 92 4a 64
        E 0 93 3e 5a
        E 0 97 4a 64
        E 0 9a 46 66
        E 0 82 4a 64
        E 0 83 3e 64
        E 0 87 4a 64
        E 0 8a 46 66
        E 0 92 48 64
        E 0 93 3e 5a
        E 0 97 48 64
        E 0 9a 45 64
        E 0 82 48 64
        E 0 83 3e 64
        E 0 87 48 64
        E 0 8a 45 64
        E 0 92 46 66
        E 0 93 43 5a
        E 0 97 46 66
        E 0 9a 43 64
        E 0 83 43 64
        E 0 93 3d 5a
        E 0 82 46 66
        E 0 83 3d 64
        E 0 87 46 66
        E 0 8a 43 64
        E 0 92 46 66
        E 0 93 3e 5a
        E 0 97 46 66
        E 0 9a 43 64
        E 0 82 46 66
        E 0 83 3e 64
        E 0 87 46 66
        E 0 8a 43 64
        E 0 92 45 64
        E 0 93 32 5a
        E 0 97 45 64
        E 0 9a 42 64
        E 0 82 45 64
        E 0 83 32 64
        E 0 87 45 64
        E 0 8a 42 64
        E 0 92 54 64
        E 0 93 42 5a
        E 0 97 48 64
        E 0 9a 45 64
        E 0 9f 32 5a
        E 0 82 54 64
        E 0 83 42 64
        E 0 87 48 64
        E 0 8a 45 64
        E 0 8f 32 64
        E 0 92 54 64
        E 0 93 42 5a
        E 0 97 48 64
        E 0 9a 45 64
        E 0 9f 32 5a
        E 0 82 54 64
        E 0 83 42 64
        E 0 87 48 64
        E 0 8a 45 64
        E 0 8f 32 64
        E 0 92 54 64
        E 0 93 42 5a
        E 0 97 48 64
        E 0 9a 45 64
        E 0 9f 32 5a
        E 0 82 54 64
        E 0 83 42 64
        E 0 87 48 64
        E 0 8a 45 64
        E 0 8f 32 64
        E 0 92 54 64
        E 0 93 42 5a
        E 0 97 48 64
        E 0 9a 45 64
        E 0 9f 32 5a
        E 0 82 54 64
        E 0 83 42 64
        E 0 87 48 64
        E 0 8a 45 64
        E 0 8f 32 64
        E 1 92 54 64
        E 0 93 42 5a
        E 0 97 48 64
        E 0 9a 45 64
        E 0 9f 32 5a
        E 0 82 54 64
        E 0 83 42 64
        E 0 87 48 64
        E 0 8a 45 64
        E 0 8f 32 64
        E 0 92 4e 64
        E 0 93 45 5a
        E 0 97 4e 64
        E 0 9a 48 64
        E 0 9f 32 5a
        E 0 82 4e 64
        E 0 83 45 64
        E 0 87 4e 64
        E 0 8a 48 64
        E 0 8f 32 64
        E 0 92 54 64
        E 0 93 42 5a
        E 0 97 48 64
        E 0 9a 45 64
        E 0 9f 32 5a
        E 0 82 54 64
        E 0 83 42 64
        E 0 87 48 64
        E 0 8a 45 64
        E 0 8f 32 64
        E 0 92 54 64
        E 0 93 42 5a
        E 0 97 48 64
        E 0 9a 45 64
        E 0 9f 32 5a
        E 0 82 54 64
        E 0 83 42 64
        E 0 87 48 64
        E 0 8a 45 64
        E 0 8f 32 64
        E 0 92 54 64
        E 0 93 42 5a
        E 0 97 48 64
        E 0 9a 45 64
        E 0 9f 32 5a
        E 0 82 54 64
        E 0 83 42 64
        E 0 87 48 64
        E 0 8a 45 64
        E 0 8f 32 64
        E 0 92 54 64
        E 0 93 42 5a
        E 0 97 48 64
        E 0 9a 45 64
        E 0 9f 32 5a
        E 0 82 54 64
        E 0 83 42 64
        E 0 87 48 64
        E 0 8a 45 64
        E 0 8f 32 64
        E 0 92 4e 64
        E 0 93 3e 5a
        E 0 97 4e 64
        E 0 9a 45 64
        E 0 9f 32 5a
        E 0 82 4e 64
        E 0 83 3e 64
        E 0 87 4e 64
        E 0 8a 45 64
        E 0 8f 32 64
        E 1 92 4f 64
        E 0 93 3e 5a
        E 0 97 4f 64
        E 0 9a 46 66
        E 0 9f 2b 5a
        E 0 82 4f 64
        E 0 83 3e 64
        E 0 87 4f 64
        E 0 8a 46 66
        E 0 8f 2b 64
        E 0 92 4f 64
        E 0 93 3a 5b
        E 0 97 4f 64
        E 0 9a 4b 66
        E 0 9f 2b 5a
        E 0 82 4f 64
        E 0 83 3a 66
        E 0 87 4f 64
        E 0 8a 4b 66
        E 0 8f 2b 64
        E 0 92 4d 64
        E 0 93 3c 5a
        E 0 97 4d 64
        E 0 9a 4a 64
        E 0 9f 2d 5a
        E 0 82 4d 64
        E 0 87 4d 64
        E 0 8a 4a 64
        E 0 92 4b 66
        E 0 97 4b 66
        E 0 9a 48 64
        E 0 82 4b 66
        E 0 83 3c 64
        E 0 87 4b 66
        E 0 8a 48 64
        E 0 8f 2d 64
        E 0 92 4a 64
        E 0 93 3e 5a
        E 0 97 4a 64
        E 0 9a 46 66
        E 0 9f 2e 5b
        E 0 82 4a 64
        E 0 87 4a 64
        E 0 8a 46 66
        E 0 92 48 64
        E 0 97 48 64
        E 0 9a 45 64
        E 0 82 48 64
        E 0 83 3e 64
        E 0 87 48 64
        E 0 8a 45 64
        E 0 8f 2e 66
        E 0 92 46 66
        E 0 93 3f 5b
        E 0 97 46 66
        E 0 9a 43 64
        E 0 9f 30 5a
        E 0 82 46 66
        E 0 83 3f 66
        E 0 87 46 66
        E 0 8a 43 64
        E 0 8f 30 64
        E 0 92 45 64
        E 0 93 39 5a
        E 1 97 45 64
        E 0 9a 42 64
        E 0 9f 32 5a
        E 0 82 45 64
        E 0 83 39 64
        E 0 8f 32 64
        E 0 92 4e 64
        E 0 93 3e 5a
        E 0 9f 26 5a
        E 0 82 4e 64
        E 0 83 3e 64
        E 0 87 45 64
        E 0 8a 42 64
        E 0 8f 26 64
        E 0 92 4a 64
        E 0 93 3e 5a
        E 0 97 43 64
        E 0 9a 43 64
        E 0 9f 2b 5a
        E 0 82 4a 64
        E 0 83 3e 64
        E 0 8f 2b 64
        E 0 92 48 64
        E 0 93 3e 5a
        E 0 9f 37 5a
        E 0 82 48 64
        E 0 92 46 66
        E 0 82 46 66
        E 0 83 3e 64
        E 0 87 43 64
        E 0 8a 43 64
        E 0 8f 37 64
        E 0 92 45 64
        E 0 93 3e 5a
        E 0 9f 2b 5a
        E 0 82 45 64
        E 0 92 43 64
        E 0 82 43 64
        E 0 83 3e 64
        E 0 8f 2b 64
        E 0 92 4b 66
        E 0 82 4b 66
        E 0 92 48 64
        E 0 82 48 64
        E 0 92 4a 64
        E 0 93 3e 5a
        E 0 9f 37 5a
        E 0 83 3e 64
        E 0 8f 37 64
        E 0 93 43 5a
        E 0 9f 2b 5a
        E 0 82 4a 64
        E 0 83 43 64
        E 0 8f 2b 64
        E 0 92 51 64
        E 0 82 51 64
        E 0 92 4f 64
        E 0 93 45 5a
        E 0 9f 3e 5a
        E 0 82 4f 64
        E 0 92 4e 64
        E 0 82 4e 64
        E 0 83 45 64
        E 0 8f 3e 64
        E 0 92 4b 66
        E 1 93 45 5a
        E 0 9f 32 5a
        E 0 82 4b 66
        E 0 92 4a 64
        E 0 82 4a 64
        E 0 83 45 64
        E 0 8f 32 64
        E 0 92 52 66
        E 0 82 52 66
        E 0 92 51 64
        E 0 82 51 64
        E 0 92 4f 64
        E 0 93 46 5b
        E 0 9f 37 5a
        E 0 83 46 66
        E 0 8f 37 64
        E 0 93 3e 5a
        E 0 9f 2b 5a
        E 0 82 4f 64
        E 0 83 3e 64
        E 0 8f 2b 64
        E 0 92 48 64
        E 0 93 42 5a
        E 0 9f 32 5a
        E 0 82 48 64
        E 0 92 4b 66
        E 38403 82 4b 66
        E 0 92 45 64
        E 0 82 45 64
        E 0 92 48 64
        E 0 82 48 64
        E 0 83 42 64
        E 0 8f 32 64
        E 0 92 42 64
        E 0 82 42 64
        E 0 92 45 64
        E 0 82 45 64
        E 0 92 3e 64
        E 0 93 42 5a
        E 0 9f 32 5a
        E 0 82 3e 64
        E 0 92 48 64
        E 0 82 48 64
        E 0 92 47 64
        E 0 82 47 64
        E 1 92 48 64
        E 0 82 48 64
        E 0 83 42 64
        E 0 8f 32 64
        E 0 92 4e 64
        E 0 82 4e 64
        E 0 92 51 64
        E 0 82 51 64
        E 0 92 4b 66
        E 0 93 42 5a
        E 0 9f 32 5a
        E 0 82 4b 66
        E 0 92 48 64
        E 0 82 48 64
        E 0 92 47 64
        E 0 82 47 64
        E 0 92 48 64
        E 0 82 48 64
        E 0 83 42 64
        E 0 8f 32 64
        E 0 92 42 64
        E 0 82 42 64
        E 0 92 48 64
        E 0 82 48 64
        E 0 92 3e 64
        E 0 93 42 5a
        E 0 9f 32 5a
        E 0 82 3e 64
        E 0 92 42 64
        E 0 82 42 64
        E 0 8f 32 64
        E 0 92 45 64
        E 0 9f 36 5a
        E 0 82 45 64
        E 0 92 48 64
        E 0 82 48 64
        E 0 83 42 64
        E 0 8f 36 64
        E 0 92 4e 64
        E 0 93 42 5a
        E 0 9f 32 5a
        E 0 82 4e 64
        E 0 92 51 64
        E 0 82 51 64
        E 0 83 42 64
        E 0 8f 32 64
        E 0 92 52 66
        E 0 93 43 5a
        E 0 9f 37 5a
        E 0 82 52 66
        E 0 8f 37 64
        E 0 92 51 64
        E 0 9f 32 5a
        E 0 82 51 64
        E 0 83 43 64
        E 0 8f 32 64
        E 0 92 4f 64
        E 0 93 3e 5a
        E 1 9f 2b 5a
        E 0 82 4f 64
        E 0 83 3e 64
        E 0 8f 2b 64
        E 0 92 51 64
        E 0 93 3f 5b
        E 0 9f 30 5a
        E 0 82 51 64
        E 0 83 3f 66
        E 0 8f 30 64
        E 0 92 4e 64
        E 0 93 3e 5a
        E 0 9f 32 5a
        E 0 83 3e 64
        E 0 8f 32 64
        E 0 93 3e 5a
        E 0 9f 26 5a
        E 0 82 4e 64
        E 0 83 3e 64
        E 0 8f 26 64
        E 0 92 4f 64
        E 0 93 3a 5b
        E 0 9f 2b 5a
        E 0 82 4f 64
        E 0 83 3a 66
        E 0 8f 2b 64
        E 0 9a 46 66
        E 0 9f 3a 5b
        E 0 8a 46 66
        E 0 9a 45 64
        E 0 8a 45 64
        E 0 9a 43 64
        E 0 8a 43 64
        E 0 8f 3a 66
        E 0 9a 41 64
        E 0 9f 39 5a
        E 0 8a 41 64
        E 0 8f 39 64
        E 0 9a 48 64
        E 0 9f 37 5a
        E 0 8a 48 64
        E 0 8f 37 64
        E 0 9a 3f 66
        E 0 9f 35 5a
        E 0 8a 3f 66
        E 0 8f 35 64
        E 0 9a 41 64
        E 0 9a 3f 66
        E 0 9f 3a 5b
        E 0 8a 41 64
        E 0 8a 3f 66
        E 0 9a 3e 64
        E 0 8a 3e 64
        E 0 8f 3a 66
        E 0 9a 46 66
        E 0 9f 2e 5b
        E 0 8a 46 66
        E 0 8f 2e 66
        E 0 9a 45 64
        E 0 9f 35 5a
        E 0 8a 45 64
        E 0 8f 35 64
        E 0 9a 41 64
        E 0 9f 33 5b
        E 0 8a 41 64
        E 0 8f 33 66
        E 0 9a 46 66
        E 0 9f 32 5a
        E 0 8a 46 66
        E 0 8f 32 64
        E 0 9a 48 64
        E 0 9f 33 5b
        E 0 8a 48 64
        E 0 8f 33 66
        E 0 9a 45 64
        E 0 9f 35 5a
        E 0 8f 35 64
        E 0 9f 29 5a
        E 0 8a 45 64
        E 0 8f 29 64
        E 0 97 4a 64
        E 0 9a 46 66
        E 0 9f 2e 5b
        E 0 87 4a 64
        E 0 8f 2e 66
        E 0 97 48 64
        E 0 9f 2d 5a
        E 0 87 48 64
        E 0 8a 46 66
        E 0 8f 2d 64
        E 0 97 46 66
        E 0 9f 2b 5a
        E 0 87 46 66
        E 0 8f 2b 64
        E 0 97 45 64
        E 0 9f 31 5a
        E 0 87 45 64
        E 0 97 4c 64
        E 0 87 4c 64
        E 0 8f 31 64
        E 0 97 43 64
        E 0 9f 2d 5a
        E 0 87 43 64
        E 0 8f 2d 64
        E 1 97 44 66
        E 0 97 43 64
        E 0 9f 32 5a
        E 0 87 44 66
        E 0 87 43 64
        E 0 97 41 64
        E 0 87 41 64
        E 0 8f 32 64
        E 0 97 4a 64
        E 0 9f 26 5a
        E 0 87 4a 64
        E 0 8f 26 64
        E 0 97 49 64
        E 0 9f 39 5a
        E 0 87 49 64
        E 0 8f 39 64
        E 0 97 45 64
        E 0 9f 37 5a
        E 0 87 45 64
        E 0 8f 37 64
        E 0 97 4a 64
        E 0 9f 35 5a
        E 0 87 4a 64
        E 0 8f 35 64
        E 0 97 4c 64
        E 0 9f 37 5a
        E 0 87 4c 64
        E 0 8f 37 64
        E 0 97 49 64
        E 0 9f 39 5a
        E 0 8f 39 64
        E 0 9f 2d 5a
        E 0 87 49 64
        E 0 8f 2d 64
        E 0 97 4a 64
        E 0 9f 32 5a
        E 38402 87 4a 64
        E 0 8f 32 64
        E 0 92 52 66
        E 0 93 43 5a
        E 0 97 4a 64
        E 1 9a 46 66
        E 0 9f 37 5a
        E 0 82 52 66
        E 0 83 43 64
        E 0 87 4a 64
        E 0 8a 46 66
        E 0 8f 37 64
        E 0 92 52 66
        E 0 93 43 5a
        E 0 97 43 64
        E 0 9a 46 66
        E 0 9f 37 5a
        E 0 87 43 64
        E 0 8a 46 66
        E 0 97 43 64
        E 0 9a 46 66
        E 0 82 52 66
        E 0 83 43 64
        E 0 87 43 64
        E 0 8a 46 66
        E 0 8f 37 64
        E 0 92 52 66
        E 0 93 43 5a
        E 0 97 43 64
        E 0 9a 46 66
        E 0 9f 37 5a
        E 0 87 43 64
        E 0 8a 46 66
        E 0 97 4a 64
        E 0 9a 46 66
        E 0 82 52 66
        E 0 83 43 64
        E 0 87 4a 64
        E 0 8a 46 66
        E 0 8f 37 64
        E 0 92 52 66
        E 0 93 43 5a
        E 0 97 4b 66
        E 0 9a 48 64
        E 0 9f 30 5a
        E 0 83 43 64
        E 0 8f 30 64
        E 0 93 43 5a
        E 0 9f 30 5a
        E 0 87 4b 66
        E 0 8a 48 64
        E 0 97 4a 64
        E 0 9a 45 64
        E 0 83 43 64
        E 0 87 4a 64
        E 0 8a 45 64
        E 0 8f 30 64
        E 0 93 48 5a
        E 0 97 4b 66
        E 0 9a 46 66
        E 0 9f 30 5a
        E 0 82 52 66
        E 0 83 48 64
        E 0 87 4b 66
        E 0 8a 46 66
        E 0 8f 30 64
        E 0 92 50 66
        E 0 93 48 5a
        E 0 97 4b 66
        E 1 9a 44 66
        E 0 9f 35 5a
        E 0 82 50 66
        E 0 83 48 64
        E 0 87 4b 66
        E 0 8a 44 66
        E 0 8f 35 64
        E 0 92 50 66
        E 0 93 48 5a
        E 0 97 41 64
        E 0 9a 44 66
        E 0 9f 35 5a
        E 0 87 41 64
        E 0 8a 44 66
        E 0 97 41 64
        E 0 9a 44 66
        E 0 82 50 66
        E 0 83 48 64
        E 0 87 41 64
        E 0 8a 44 66
        E 0 8f 35 64
        E 0 92 50 66
        E 0 93 41 5a
        E 0 97 41 64
        E 0 9a 44 66
        E 0 9f 35 5a
        E 0 87 41 64
        E 0 8a 44 66
        E 0 97 4b 66
        E 0 9a 44 66
        E 0 82 50 66
        E 0 83 41 64
        E 0 87 4b 66
        E 0 8a 44 66
        E 0 8f 35 64
        E 0 92 50 66
        E 0 93 41 5a
        E 0 97 4a 64
        E 0 9a 46 66
        E 0 9f 2e 5b
        E 0 83 41 64
        E 0 8f 2e 66
        E 0 93 41 5a
        E 0 9f 2e 5b
        E 0 87 4a 64
        E 0 97 49 64
        E 0 83 41 64
        E 1 87 49 64
        E 0 8a 46 66
        E 0 8f 2e 66
        E 0 93 46 5b
        E 0 97 4a 64
        E 0 9a 46 66
        E 0 9f 2e 5b
        E 0 82 50 66
        E 0 83 46 66
        E 0 87 4a 64
        E 0 8a 46 66
        E 0 8f 2e 66
        E 0 92 4f 64
        E 0 93 46 5b
        E 0 97 4a 64
        E 0 9a 43 64
        E 0 9f 33 5b
        E 0 82 4f 64
        E 0 83 46 66
        E 0 87 4a 64
        E 0 8a 43 64
        E 0 8f 33 66
        E 0 92 4f 64
        E 0 93 46 5b
        E 0 97 3f 66
        E 0 9a 43 64
        E 0 9f 33 5b
        E 0 87 3f 66
        E 0 8a 43 64
        E 0 97 3f 66
        E 0 9a 43 64
        E 0 82 4f 64
        E 0 83 46 66
        E 0 87 3f 66
        E 0 8a 43 64
        E 0 8f 33 66
        E 0 92 4f 64
        E 0 93 3f 5b
        E 0 97 3f 66
        E 0 9a 43 64
        E 0 9f 33 5b
        E 0 87 3f 66
        E 0 8a 43 64
        E 0 97 4a 64
        E 0 9a 43 64
        E 0 82 4f 64
        E 0 83 3f 66
        E 0 87 4a 64
        E 0 8a 43 64
        E 0 8f 33 66
        E 0 92 4f 64
        E 0 93 3f 5b
        E 0 97 48 64
        E 0 9a 44 66
        E 0 9f 2c 5b
        E 0 83 3f 66
        E 0 8f 2c 66
        E 0 93 3f 5b
        E 1 9f 2c 5b
        E 0 87 48 64
        E 0 97 47 64
        E 0 83 3f 66
        E 0 87 47 64
        E 0 8a 44 66
        E 0 8f 2c 66
        E 0 93 3f 5b
        E 0 97 48 64
        E 0 9a 44 66
        E 0 9f 2c 5b
        E 0 82 4f 64
        E 0 83 3f 66
        E 0 87 48 64
        E 0 8a 44 66
        E 0 8f 2c 66
        E 0 92 50 66
        E 0 93 3f 5b
        E 0 97 48 64
        E 0 9a 44 66
        E 0 9f 2c 5b
        E 0 82 50 66
        E 0 83 3f 66
        E 0 87 48 64
        E 0 8a 44 66
        E 0 8f 2c 66
        E 0 92 50 66
        E 0 93 3f 5b
        E 0 97 48 64
        E 0 9a 44 66
        E 0 9f 2c 5b
        E 0 82 50 66
        E 0 83 3f 66
        E 0 87 48 64
        E 0 8a 44 66
        E 0 8f 2c 66
        E 0 92 50 66
        E 0 93 3f 5b
        E 0 97 48 64
        E 0 9a 44 66
        E 0 9f 2c 5b
        E 0 82 50 66
        E 0 83 3f 66
        E 0 87 48 64
        E 0 8a 44 66
        E 0 8f 2c 66
        E 0 92 4e 64
        E 0 93 44 5b
        E 0 97 48 64
        E 0 9a 42 64
        E 0 9f 2c 5b
        E 0 83 44 66
        E 0 8f 2c 66
        E 0 93 44 5b
        E 0 9f 2c 5b
        E 0 83 44 66
        E 0 87 48 64
        E 0 8a 42 64
        E 0 8f 2c 66
        E 0 93 44 5b
        E 0 97 48 64
        E 0 9a 42 64
        E 0 9f 2c 5b
        E 0 82 4e 64
        E 0 83 44 66
        E 0 87 48 64
        E 0 8a 42 64
        E 0 8f 2c 66
        E 0 92 4f 64
        E 0 93 3e 5a
        E 0 97 47 64
        E 0 9a 43 64
        E 0 9f 2b 5a
        E 0 82 4f 64
        E 0 83 3e 64
        E 0 87 47 64
        E 0 8a 43 64
        E 0 8f 2b 64
        E 0 92 4a 64
        E 0 93 43 5a
        E 0 97 4a 64
        E 0 9a 47 64
        E 0 9f 2b 5a
        E 0 82 4a 64
        E 0 87 4a 64
        E 0 8a 47 64
        E 1 92 4a 64
        E 0 97 4a 64
        E 0 9a 47 64
        E 0 82 4a 64
        E 0 83 43 64
        E 0 87 4a 64
        E 0 8a 47 64
        E 0 8f 2b 64
        E 0 92 4b 66
        E 0 97 4b 66
        E 0 9a 48 64
        E 0 82 4b 66
        E 0 87 4b 66
        E 0 8a 48 64
        E 0 92 4d 64
        E 0 97 4d 64
        E 0 9a 4a 64
        E 0 82 4d 64
        E 0 87 4d 64
        E 0 8a 4a 64
        E 0 92 4b 66
        E 0 93 43 5a
        E 0 97 4b 66
        E 0 9a 48 64
        E 0 9f 30 5a
        E 0 82 4b 66
        E 0 83 43 64
        E 0 87 4b 66
        E 0 8a 48 64
        E 0 8f 30 64
        E 0 92 54 64
        E 0 93 43 5a
        E 0 97 4b 66
        E 0 9a 48 64
        E 0 9f 30 5a
        E 0 82 54 64
        E 0 83 43 64
        E 0 87 4b 66
        E 0 8a 48 64
        E 0 8f 30 64
        E 0 92 52 66
        E 0 93 43 5a
        E 0 97 4a 64
        E 0 9a 46 66
        E 0 9f 30 5a
        E 0 82 52 66
        E 0 83 43 64
        E 0 87 4a 64
        E 0 8a 46 66
        E 0 8f 30 64
        E 0 92 50 66
        E 0 93 43 5a
        E 0 97 48 64
        E 0 9a 44 66
        E 0 9f 30 5a
        E 0 82 50 66
        E 0 83 43 64
        E 0 87 48 64
        E 0 8a 44 66
        E 0 8f 30 64
        E 0 92 4f 64
        E 0 92 4e 64
        E 0 93 45 5a
        E 0 97 48 64
        E 0 9a 43 64
        E 0 9a 42 64
        E 0 9f 2c 5b
        E 0 82 4f 64
        E 0 8a 43 64
        E 0 82 4e 64
        E 0 83 45 64
        E 0 87 48 64
        E 0 8a 42 64
        E 0 92 4e 64
        E 0 93 45 5a
        E 0 97 4a 64
        E 0 9a 42 64
        E 0 82 4e 64
        E 0 83 45 64
        E 0 87 4a 64
        E 0 8a 42 64
        E 0 8f 2c 66
        E 0 92 4f 64
        E 0 93 3e 5a
        E 0 97 48 64
        E 0 97 47 64
        E 0 9a 41 64
        E 0 9a 43 64
        E 0 9f 2b 5a
        E 0 87 48 64
        E 0 8a 41 64
        E 0 82 4f 64
        E 0 83 3e 64
        E 0 87 47 64
        E 0 8a 43 64
        E 0 8f 2b 64
        E 0 93 46 5b
        E 0 9f 37 5a
        E 0 92 4a 64
        E 0 82 4a 64
        E 1 83 46 66
        E 0 8f 37 64
        E 0 92 4b 66
        E 0 93 46 5b
        E 0 9f 37 5a
        E 0 82 4b 66
        E 0 83 46 66
        E 0 8f 37 64
        E 0 92 4b 66
        E 0 93 45 5a
        E 0 9f 36 5a
        E 0 82 4b 66
        E 0 92 51 64
        E 0 82 51 64
        E 0 83 45 64
        E 0 8f 36 64
        E 0 92 4a 64
        E 0 93 45 5a
        E 0 9f 35 5a
        E 0 82 4a 64
        E 0 83 45 64
        E 0 8f 35 64
        E 0 92 4a 64
        E 0 93 43 5a
        E 0 9f 34 5a
        E 0 82 4a 64
        E 0 92 4f 64
        E 0 82 4f 64
        E 0 83 43 64
        E 0 8f 34 64
        E 0 92 48 64
        E 0 93 43 5a
        E 0 9f 33 5b
        E 38402 82 48 64
        E 0 83 43 64
        E 0 8f 33 66
        E 0 92 48 64
        E 0 93 42 5a
        E 0 9f 32 5a
        E 0 82 48 64
        E 0 92 4e 64
        E 0 82 4e 64
        E 0 83 42 64
        E 0 8f 32 64
        E 0 92 4f 64
        E 1 93 3e 5a
        E 0 9f 2e 5b
        E 0 82 4f 64
        E 0 83 3e 64
        E 0 8f 2e 66
        E 0 92 4f 64
        E 0 93 3f 5b
        E 0 9f 30 5a
        E 0 83 3f 66
        E 0 8f 30 64
        E 0 93 3f 5b
        E 0 9f 24 5a
        E 0 82 4f 64
        E 0 83 3f 66
        E 0 8f 24 64
        E 0 92 4e 64
        E 0 93 3e 5a
        E 0 9f 32 5a
        E 0 83 3e 64
        E 0 8f 32 64
        E 0 93 3e 5a
        E 0 9f 26 5a
        E 0 82 4e 64
        E 0 83 3e 64
        E 0 8f 26 64
        E 0 92 4f 64
        E 0 93 3a 5b
        E 0 9f 2b 5a
        E 0 82 4f 64
        E 0 92 46 66
        E 0 82 46 66
        E 0 92 45 64
        E 0 82 45 64
        E 0 83 3a 66
        E 0 8f 2b 64
        E 0 92 46 66
        E 0 82 46 66
        E 0 92 48 64
        E 0 82 48 64
        E 0 92 4a 64
        E 0 93 46 5b
        E 0 9f 37 5a
        E 0 82 4a 64
        E 0 92 4b 66
        E 0 82 4b 66
        E 0 83 46 66
        E 0 8f 37 64
        E 0 92 48 64
        E 0 93 45 5a
        E 1 9f 36 5a
        E 0 82 48 64
        E 0 92 45 64
        E 0 82 45 64
        E 0 92 43 64
        E 0 82 43 64
        E 0 83 45 64
        E 0 8f 36 64
        E 0 92 45 64
        E 0 82 45 64
        E 0 92 46 66
        E 0 82 46 66
        E 0 92 48 64
        E 0 93 45 5a
        E 0 9f 35 5a
        E 0 82 48 64
        E 0 92 4a 64
        E 0 82 4a 64
        E 0 83 45 64
        E 0 8f 35 64
        E 0 92 46 66
        E 0 93 43 5a
        E 0 9f 34 5a
        E 0 82 46 66
        E 0 92 43 64
        E 0 82 43 64
        E 0 92 41 64
        E 0 82 41 64
        E 0 83 43 64
        E 0 8f 34 64
        E 0 92 43 64
        E 0 82 43 64
        E 0 92 45 64
        E 0 82 45 64
        E 0 92 46 66
        E 0 93 43 5a
        E 1 9f 33 5b
        E 0 82 46 66
        E 0 92 48 64
        E 0 82 48 64
        E 0 83 43 64
        E 0 8f 33 66
        E 0 92 45 64
        E 0 93 42 5a
        E 0 9f 32 5a
        E 0 82 45 64
        E 0 92 48 64
        E 0 82 48 64
        E 0 92 46 66
        E 0 82 46 66
        E 0 92 45 64
        E 0 82 45 64
        E 0 83 42 64
        E 0 8f 32 64
        E 0 92 46 66
        E 0 82 46 66
        E 0 92 4a 64
        E 0 82 4a 64
        E 0 92 48 64
        E 0 93 3e 5a
        E 0 9f 2e 5b
        E 0 82 48 64
        E 0 92 46 66
        E 0 82 46 66
        E 0 83 3e 64
        E 0 8f 2e 66
        E 0 92 45 64
        E 0 93 3f 5b
        E 0 9f 30 5a
        E 0 83 3f 66
        E 0 8f 30 64
        E 0 93 3c 5a
        E 0 9f 2d 5a
        E 0 83 3c 64
        E 0 8f 2d 64
        E 0 93 3e 5a
        E 0 9f 32 5a
        E 0 82 45 64
        E 0 83 3e 64
        E 0 8f 32 64
        E 0 92 46 66
        E 0 93 3e 5a
        E 0 9f 26 5a
        E 1 82 46 66
        E 0 92 48 64
        E 0 82 48 64
        E 0 83 3e 64
        E 0 8f 26 64
        E 0 92 46 66
        E 0 93 3a 5b
        E 0 9f 2b 5a
        E 0 82 46 66
        E 0 92 4a 64
        E 0 82 4a 64
        E 0 83 3a 66
        E 0 8f 2b 64
        E 0 92 4b 66
        E 0 93 46 5b
        E 0 9f 37 5a
        E 0 82 4b 66
        E 0 83 46 66
        E 0 8f 37 64
        E 0 92 4b 66
        E 0 93 48 5a
        E 0 9f 36 5a
        E 0 82 4b 66
        E 0 92 4e 64
        E 0 82 4e 64
        E 0 92 4f 64
        E 0 82 4f 64
        E 0 92 51 64
        E 0 82 51 64
        E 0 83 48 64
        E 0 8f 36 64
        E 0 92 4a 64
        E 0 93 45 5a
        E 0 9f 35 5a
        E 0 82 4a 64
        E 0 83 45 64
        E 0 8f 35 64
        E 0 92 4a 64
        E 0 93 46 5b
        E 0 9f 34 5a
        E 0 82 4a 64
        E 0 92 4c 64
        E 0 82 4c 64
        E 0 92 4d 64
        E 0 82 4d 64
        E 0 92 4f 64
        E 0 82 4f 64
        E 0 83 46 66
        E 0 8f 34 64
        E 0 92 48 64
        E 0 93 43 5a
        E 0 9f 33 5b
        E 0 82 48 64
        E 0 83 43 64
        E 0 8f 33 66
        E 0 92 48 64
        E 0 93 45 5a
        E 0 9f 32 5a
        E 0 82 48 64
        E 0 92 4a 64
        E 0 82 4a 64
        E 0 92 4c 64
        E 0 82 4c 64
        E 0 92 4e 64
        E 0 82 4e 64
        E 0 83 45 64
        E 0 8f 32 64
        E 0 92 4f 64
        E 0 93 46 5b
        E 1 9f 2e 5b
        E 0 82 4f 64
        E 0 83 46 66
        E 0 8f 2e 66
        E 0 92 4f 64
        E 0 93 45 5a
        E 0 9f 30 5a
        E 0 82 4f 64
        E 0 92 52 66
        E 0 82 52 66
        E 0 8f 30 64
        E 0 92 51 64
        E 0 9f 24 5a
        E 0 82 51 64
        E 0 92 4f 64
        E 0 82 4f 64
        E 0 83 45 64
        E 0 8f 24 64
        E 0 92 4e 64
        E 0 93 3e 5a
        E 0 9f 32 5a
        E 0 82 4e 64
        E 0 92 51 64
        E 0 82 51 64
        E 0 8f 32 64
        E 0 92 4f 64
        E 0 9f 26 5a
        E 0 82 4f 64
        E 0 92 4e 64
        E 0 82 4e 64
        E 0 83 3e 64
        E 0 8f 26 64
        E 0 92 4f 64
        E 0 93 3e 5a
        E 0 9f 2b 5a
        E 0 82 4f 64
        E 0 92 51 64
        E 0 82 51 64
        E 0 92 52 66
        E 0 82 52 66
        E 0 92 51 64
        E 0 82 51 64
        E 0 83 3e 64
        E 0 8f 2b 64
        E 0 92 4f 64
        E 0 82 4f 64
        E 0 92 52 66
        E 0 82 52 66
        E 0 92 51 64
        E 0 93 46 5b
        E 0 9f 37 5a
        E 1 82 51 64
        E 0 92 4f 64
        E 0 82 4f 64
        E 0 83 46 66
        E 0 8f 37 64
        E 0 92 51 64
        E 0 93 48 5a
        E 0 9f 36 5a
        E 0 82 51 64
        E 0 83 48 64
        E 0 8f 36 64
        E 0 92 51 64
        E 0 82 51 64
        E 0 92 4d 64
        E 0 82 4d 64
        E 0 92 4f 64
        E 0 93 45 5a
        E 0 9f 35 5a
        E 0 82 4f 64
        E 0 92 51 64
        E 0 82 51 64
        E 0 83 45 64
        E 0 8f 35 64
        E 0 92 4f 64
        E 0 93 46 5b
        E 0 9f 34 5a
        E 0 82 4f 64
        E 0 83 46 66
        E 0 8f 34 64
        E 0 92 4f 64
        E 0 82 4f 64
        E 0 92 4b 66
        E 0 82 4b 66
        E 0 92 4d 64
        E 0 93 43 5a
        E 0 9f 33 5b
        E 0 82 4d 64
        E 0 92 4f 64
        E 0 82 4f 64
        E 0 83 43 64
        E 0 8f 33 66
        E 0 92 4e 64
        E 0 93 45 5a
        E 0 9f 32 5a
        E 0 82 4e 64
        E 0 83 45 64
        E 0 8f 32 64
        E 0 92 4a 64
        E 0 93 46 5b
        E 0 9f 2e 5b
        E 0 82 4a 64
        E 0 83 46 66
        E 0 8f 2e 66
        E 0 92 4b 66
        E 1 93 45 5a
        E 0 9f 30 5a
        E 0 82 4b 66
        E 0 92 4f 64
        E 0 82 4f 64
        E 0 8f 30 64
        E 0 92 4d 64
        E 0 9f 24 5a
        E 0 82 4d 64
        E 0 92 4b 66
        E 0 82 4b 66
        E 0 83 45 64
        E 0 8f 24 64
        E 0 92 4a 64
        E 0 93 3e 5a
        E 0 9f 32 5a
        E 0 82 4a 64
        E 0 92 4e 64
        E 0 82 4e 64
        E 0 8f 32 64
        E 0 92 4c 64
        E 0 9f 26 5a
        E 0 82 4c 64
        E 0 92 4a 64
        E 0 82 4a 64
        E 0 83 3e 64
        E 0 8f 26 64
        E 0 92 52 66
        E 0 93 3e 5a
        E 0 9f 2b 5a
        E 0 82 52 66
        E 0 92 4a 64
        E 0 82 4a 64
        E 0 83 3e 64
        E 0 92 4a 64
        E 0 93 46 5b
        E 0 82 4a 64
        E 0 92 4a 64
        E 0 82 4a 64
        E 0 83 46 66
        E 0 8f 2b 64
        E 0 92 52 66
        E 0 93 46 5b
        E 0 82 52 66
        E 0 92 4b 66
        E 0 82 4b 66
        E 0 83 46 66
        E 0 92 4b 66
        E 0 93 46 5b
        E 0 9f 37 5a
        E 0 82 4b 66
        E 0 92 4b 66
        E 0 82 4b 66
        E 0 83 46 66
        E 0 8f 37 64
        E 0 92 51 64
        E 0 93 48 5a
        E 0 9f 36 5a
        E 0 82 51 64
        E 0 92 4b 66
        E 0 82 4b 66
        E 0 83 48 64
        E 0 92 4b 66
        E 0 93 48 5a
        E 0 82 4b 66
        E 0 92 4b 66
        E 0 82 4b 66
        E 0 83 48 64
        E 0 8f 36 64
        E 0 92 51 64
        E 0 93 45 5a
        E 0 82 51 64
        E 0 92 4a 64
        E 0 82 4a 64
        E 0 83 45 64
        E 0 92 4a 64
        E 0 93 45 5a
        E 0 9f 35 5a
        E 0 82 4a 64
        E 0 92 4a 64
        E 0 82 4a 64
        E 0 83 45 64
        E 0 8f 35 64
        E 0 92 4f 64
        E 0 93 46 5b
        E 1 9f 34 5a
        E 0 82 4f 64
        E 0 92 4a 64
        E 0 82 4a 64
        E 0 83 46 66
        E 0 92 4a 64
        E 0 93 46 5b
        E 0 82 4a 64
        E 0 92 4a 64
        E 0 82 4a 64
        E 0 83 46 66
        E 0 8f 34 64
        E 0 92 4f 64
        E 0 93 43 5a
        E 0 82 4f 64
        E 0 92 48 64
        E 0 82 48 64
        E 0 83 43 64
        E 0 92 48 64
        E 0 93 43 5a
        E 0 9f 33 5b
        E 0 82 48 64
        E 0 92 48 64
        E 38403 82 48 64
        E 0 83 43 64
        E 0 8f 33 66
        E 0 92 4e 64
        E 0 93 45 5a
        E 0 9f 32 5a
        E 0 82 4e 64
        E 0 92 48 64
        E 0 82 48 64
        E 0 83 45 64
        E 0 92 48 64
        E 0 93 45 5a
        E 0 82 48 64
        E 1 92 48 64
        E 0 82 48 64
        E 0 83 45 64
        E 0 8f 32 64
        E 0 92 4f 64
        E 0 93 3e 5a
        E 0 82 4f 64
        E 0 92 46 66
        E 0 82 46 66
        E 0 83 3e 64
        E 0 92 46 66
        E 0 93 3e 5a
        E 0 9f 2e 5b
        E 0 82 46 66
        E 0 92 46 66
        E 0 82 46 66
        E 0 83 3e 64
        E 0 8f 2e 66
        E 0 92 4f 64
        E 0 93 3f 5b
        E 0 9f 30 5a
        E 0 82 4f 64
        E 0 92 45 64
        E 0 82 45 64
        E 0 83 3f 66
        E 0 8f 30 64
        E 0 92 45 64
        E 0 93 3f 5b
        E 0 9f 24 5a
        E 0 82 45 64
        E 0 92 45 64
        E 0 82 45 64
        E 0 83 3f 66
        E 0 8f 24 64
        E 0 92 4e 64
        E 0 93 3e 5a
        E 0 9f 32 5a
        E 0 82 4e 64
        E 0 92 45 64
        E 0 82 45 64
        E 0 83 3e 64
        E 0 8f 32 64
        E 0 92 45 64
        E 0 93 3e 5a
        E 0 9f 26 5a
        E 0 82 45 64
        E 0 92 45 64
        E 0 82 45 64
        E 0 83 3e 64
        E 0 8f 26 64
        E 0 92 46 66
        E 0 93 3e 5a
        E 0 9f 2b 5a
        E 0 82 46 66
        E 0 92 52 66
        E 0 82 52 66
        E 0 83 3e 64
        E 0 92 52 66
        E 0 93 46 5b
        E 0 82 52 66
        E 0 83 46 66
        E 0 8f 2b 64
        E 0 93 46 5b
        E 0 92 52 66
        E 0 82 52 66
        E 0 83 46 66
        E 0 92 52 66
        E 0 93 46 5b
        E 0 9f 37 5a
        E 0 82 52 66
        E 0 83 46 66
        E 0 8f 37 64
        E 0 93 48 5a
        E 0 9f 36 5a
        E 0 92 51 64
        E 0 82 51 64
        E 0 83 48 64
        E 0 92 51 64
        E 0 93 48 5a
        E 0 82 51 64
        E 0 83 48 64
        E 0 8f 36 64
        E 0 93 45 5a
        E 0 92 51 64
        E 0 82 51 64
        E 0 83 45 64
        E 1 92 51 64
        E 0 93 45 5a
        E 0 9f 35 5a
        E 0 82 51 64
        E 0 83 45 64
        E 0 8f 35 64
        E 0 93 46 5b
        E 0 9f 34 5a
        E 0 92 4f 64
        E 0 82 4f 64
        E 0 83 46 66
        E 0 92 4f 64
        E 0 93 46 5b
        E 0 82 4f 64
        E 0 83 46 66
        E 0 8f 34 64
        E 0 93 43 5a
        E 0 92 4f 64
        E 0 82 4f 64
        E 0 83 43 64
        E 0 92 4f 64
        E 0 93 43 5a
        E 0 9f 33 5b
        E 0 82 4f 64
        E 0 83 43 64
        E 0 8f 33 66
        E 0 93 45 5a
        E 0 9f 32 5a
        E 0 92 4e 64
        E 0 82 4e 64
        E 0 83 45 64
        E 0 92 4e 64
        E 0 93 45 5a
        E 0 82 4e 64
        E 0 83 45 64
        E 0 8f 32 64
        E 0 93 3e 5a
        E 0 92 4f 64
        E 0 82 4f 64
        E 0 83 3e 64
        E 0 92 4f 64
        E 0 93 3e 5a
        E 0 9f 2e 5b
        E 0 82 4f 64
        E 0 83 3e 64
        E 0 8f 2e 66
        E 0 93 3f 5b
        E 0 9f 30 5a
        E 0 92 4f 64
        E 0 82 4f 64
        E 0 83 3f 66
        E 0 8f 30 64
        E 0 92 4f 64
        E 0 93 3f 5b
        E 0 9f 24 5a
        E 0 82 4f 64
        E 0 83 3f 66
        E 0 8f 24 64
        E 0 93 3e 5a
        E 0 9f 32 5a
        E 0 92 4e 64
        E 0 82 4e 64
        E 0 83 3e 64
        E 0 8f 32 64
        E 0 92 4e 64
        E 0 93 3e 5a
        E 0 9f 26 5a
        E 0 82 4e 64
        E 0 83 3e 64
        E 0 8f 26 64
        E 0 92 4f 64
        E 0 93 3e 5a
        E 0 9f 2b 5a
        E 0 82 4f 64
        E 0 83 3e 64
        E 0 8f 2b 64
        E 0 92 57 66
        E 0 93 46 5b
        E 0 83 46 66
        E 0 93 48 5a
        E 0 83 48 64
        E 0 93 4a 5a
        E 0 9f 37 5a
        E 0 83 4a 64
        E 0 93 46 5b
        E 0 83 46 66
        E 0 8f 37 64
        E 0 93 48 5a
        E 0 9f 36 5a
        E 0 83 48 64
        E 0 93 4a 5a
        E 0 83 4a 64
        E 0 93 4b 5b
        E 1 83 4b 66
        E 0 93 48 5a
        E 0 82 57 66
        E 0 83 48 64
        E 0 8f 36 64
        E 0 92 56 64
        E 0 93 45 5a
        E 0 83 45 64
        E 0 93 46 5b
        E 0 83 46 66
        E 0 93 48 5a
        E 0 9f 35 5a
        E 0 83 48 64
        E 0 93 4a 5a
        E 0 82 56 64
        E 0 83 4a 64
        E 0 8f 35 64
        E 0 92 56 64
        E 0 93 46 5b
        E 0 9f 34 5a
        E 0 83 46 66
        E 0 93 48 5a
        E 0 83 48 64
        E 0 93 4a 5a
        E 0 83 4a 64
        E 0 93 46 5b
        E 0 82 56 64
        E 0 83 46 66
        E 0 8f 34 64
        E 0 92 54 64
        E 0 93 45 5a
        E 0 83 45 64
        E 0 93 46 5b
        E 0 83 46 66
        E 0 93 48 5a
        E 0 9f 33 5b
        E 0 83 48 64
        E 0 93 4a 5a
        E 0 83 4a 64
        E 0 8f 33 66
        E 0 93 45 5a
        E 0 9f 32 5a
        E 0 83 45 64
        E 0 93 46 5b
        E 0 83 46 66
        E 0 93 48 5a
        E 0 83 48 64
        E 0 93 45 5a
        E 0 82 54 64
        E 0 83 45 64
        E 0 8f 32 64
        E 0 92 52 66
        E 0 93 3e 5a
        E 0 83 3e 64
        E 0 93 40 5a
        E 0 83 40 64
        E 0 93 42 5a
        E 0 9f 2e 5b
        E 0 83 42 64
        E 0 93 43 5a
        E 0 82 52 66
        E 0 83 43 64
        E 1 8f 2e 66
        E 0 92 51 64
        E 0 93 3f 5b
        E 0 9f 30 5a
        E 0 83 3f 66
        E 0 93 41 5a
        E 0 83 41 64
        E 0 8f 30 64
        E 0 93 43 5a
        E 0 9f 24 5a
        E 0 83 43 64
        E 0 93 3f 5b
        E 0 83 3f 66
        E 0 8f 24 64
        E 0 93 3e 5a
        E 0 9f 32 5a
        E 0 83 3e 64
        E 0 93 40 5a
        E 0 83 40 64
        E 0 8f 32 64
        E 0 93 42 5a
        E 0 9f 26 5a
        E 0 83 42 64
        E 0 93 3e 5a
        E 0 82 51 64
        E 0 83 3e 64
        E 0 8f 26 64
        E 0 92 4f 64
        E 0 93 3a 5b
        E 0 9f 2b 5a
        E 0 82 4f 64
        E 0 83 3a 66
        E 0 8f 2b 64
        E 0 93 46 5b
        E 0 83 46 66
        E 0 93 48 5a
        E 0 83 48 64
        E 0 92 52 66
        E 0 93 4a 5a
        E 0 9f 37 5a
        E 0 83 4a 64
        E 0 93 46 5b
        E 0 82 52 66
        E 0 83 46 66
        E 0 8f 37 64
        E 0 92 51 64
        E 0 93 48 5a
        E 0 9f 36 5a
        E 0 83 48 64
        E 0 93 4a 5a
        E 0 83 4a 64
        E 0 93 4b 5b
        E 0 83 4b 66
        E 0 93 48 5a
        E 0 83 48 64
        E 0 8f 36 64
        E 0 93 45 5a
        E 0 83 45 64
        E 0 93 46 5b
        E 0 83 46 66
        E 0 93 48 5a
        E 0 9f 35 5a
        E 0 83 48 64
        E 0 93 4a 5a
        E 0 82 51 64
        E 0 83 4a 64
        E 0 8f 35 64
        E 0 92 4f 64
        E 0 93 46 5b
        E 0 9f 34 5a
        E 0 83 46 66
        E 0 93 48 5a
        E 0 83 48 64
        E 0 93 4a 5a
        E 0 83 4a 64
        E 0 93 46 5b
        E 0 83 46 66
        E 0 8f 34 64
        E 1 93 43 5a
        E 0 83 43 64
        E 0 93 45 5a
        E 0 83 45 64
        E 0 93 46 5b
        E 0 9f 33 5b
        E 0 83 46 66
        E 0 93 48 5a
        E 0 82 4f 64
        E 0 83 48 64
        E 0 8f 33 66
        E 0 92 4e 64
        E 0 93 45 5a
        E 0 9f 32 5a
        E 0 83 45 64
        E 0 93 46 5b
        E 0 83 46 66
        E 0 93 48 5a
        E 0 83 48 64
        E 0 93 45 5a
        E 0 82 4e 64
        E 0 83 45 64
        E 0 8f 32 64
        E 0 92 4f 64
        E 0 93 3e 5a
        E 0 83 3e 64
        E 0 93 40 5a
        E 0 83 40 64
        E 0 93 42 5a
        E 0 9f 2e 5b
        E 0 83 42 64
        E 0 93 43 5a
        E 0 83 43 64
        E 0 8f 2e 66
        E 0 93 3f 5b
        E 0 9f 30 5a
        E 0 83 3f 66
        E 0 93 41 5a
        E 0 83 41 64
        E 0 8f 30 64
        E 0 93 43 5a
        E 0 9f 24 5a
        E 0 83 43 64
        E 0 93 3f 5b
        E 0 82 4f 64
        E 0 83 3f 66
        E 0 8f 24 64
        E 0 92 4e 64
        E 0 93 3e 5a
        E 0 9f 32 5a
        E 0 83 3e 64
        E 0 93 40 5a
        E 0 83 40 64
        E 0 8f 32 64
        E 0 93 42 5a
        E 0 9f 26 5a
        E 0 83 42 64
        E 0 93 3e 5a
        E 0 82 4e 64
        E 0 83 3e 64
        E 0 8f 26 64
        E 0 92 4f 64
        E 0 93 3a 5b
        E 0 9f 2b 5a
        E 0 82 4f 64
        E 0 92 52 66
        E 0 83 3a 66
        E 0 8f 2b 64
        E 0 82 52 66
        E 0 92 4f 64
        E 0 93 46 5b
        E 0 9f 37 5a
        E 0 82 4f 64
        E 0 83 46 66
        E 0 8f 37 64
        E 0 92 51 64
        E 0 93 48 5a
        E 0 9f 36 5a
        E 0 82 51 64
        E 0 92 56 64
        E 0 83 48 64
        E 0 8f 36 64
        E 0 82 56 64
        E 0 92 51 64
        E 0 93 45 5a
        E 0 9f 35 5a
        E 0 82 51 64
        E 0 83 45 64
        E 0 8f 35 64
        E 0 92 4f 64
        E 0 93 46 5b
        E 0 9f 34 5a
        E 0 82 4f 64
        E 0 92 54 64
        E 0 83 46 66
        E 0 8f 34 64
        E 0 82 54 64
        E 0 92 4f 64
        E 0 93 43 5a
        E 0 9f 33 5b
        E 38404 82 4f 64
        E 0 83 43 64
        E 0 8f 33 66
        E 0 92 4e 64
        E 0 93 45 5a
        E 0 9f 32 5a
        E 0 82 4e 64
        E 0 92 56 64
        E 0 83 45 64
        E 0 8f 32 64
        E 0 82 56 64
        E 0 92 4f 64
        E 0 93 3e 5a
        E 0 9f 2e 5b
        E 0 82 4f 64
        E 0 83 3e 64
        E 0 8f 2e 66
        E 0 92 51 64
        E 0 93 3f 5b
        E 0 9f 30 5a
        E 0 82 51 64
        E 0 83 3f 66
        E 0 8f 30 64
        E 0 92 56 64
        E 0 93 3e 5a
        E 0 9f 24 5a
        E 0 83 3e 64
        E 0 8f 24 64
        E 0 93 3e 5a
        E 0 9f 32 5a
        E 0 82 56 64
        E 0 83 3e 64
        E 0 8f 32 64
        E 0 92 51 64
        E 0 93 3e 5a
        E 0 9f 26 5a
        E 0 82 51 64
        E 0 83 3e 64
        E 0 8f 26 64
        E 0 92 52 66
        E 0 93 3a 5b
        E 0 9f 2b 5a
        E 0 82 52 66
        E 0 92 4a 64
        E 0 82 4a 64
        E 0 83 3a 66
        E 0 8f 2b 64
        E 0 92 4b 66
        E 0 93 46 5b
        E 0 9f 37 5a
        E 0 82 4b 66
        E 0 83 46 66
        E 0 8f 37 64
        E 0 93 48 5a
        E 0 9f 36 5a
        E 0 92 4b 66
        E 0 82 4b 66
        E 0 83 48 64
        E 0 8f 36 64
        E 0 92 4a 64
        E 0 93 45 5a
        E 0 9f 35 5a
        E 0 82 4a 64
        E 0 83 45 64
        E 0 8f 35 64
        E 0 93 46 5b
        E 0 9f 34 5a
        E 1 92 4a 64
        E 0 82 4a 64
        E 0 83 46 66
        E 0 8f 34 64
        E 0 92 48 64
        E 0 93 43 5a
        E 0 9f 33 5b
        E 0 82 48 64
        E 0 83 43 64
        E 0 8f 33 66
        E 0 93 45 5a
        E 0 9f 32 5a
        E 0 92 48 64
        E 0 82 48 64
        E 0 83 45 64
        E 0 8f 32 64
        E 0 92 46 66
        E 0 82 46 66
        E 0 92 4f 64
        E 0 93 3e 5a
        E 0 9f 2e 5b
        E 0 82 4f 64
        E 0 83 3e 64
        E 0 8f 2e 66
        E 0 92 4f 64
        E 0 93 3f 5b
        E 0 9f 30 5a
        E 0 83 3f 66
        E 0 8f 30 64
        E 0 93 3e 5a
        E 0 9f 24 5a
        E 0 83 3e 64
        E 0 8f 24 64
        E 0 93 3e 5a
        E 0 9f 32 5a
        E 0 82 4f 64
        E 0 83 3e 64
        E 0 8f 32 64
        E 0 92 4e 64
        E 0 93 3e 5a
        E 0 9f 26 5a
        E 0 82 4e 64
        E 0 83 3e 64
        E 0 8f 26 64
        E 0 92 4f 64
        E 0 93 3e 5a
        E 0 9f 2b 5a
        E 0 82 4f 64
        E 0 92 52 66
        E 0 82 52 66
        E 0 92 51 64
        E 0 82 51 64
        E 0 83 3e 64
        E 0 8f 2b 64
        E 1 92 4f 64
        E 0 93 46 5b
        E 0 82 4f 64
        E 0 83 46 66
        E 0 92 51 64
        E 0 93 48 5a
        E 0 82 51 64
        E 0 83 48 64
        E 0 92 52 66
        E 0 93 4a 5a
        E 0 9f 37 5a
        E 0 82 52 66
        E 0 83 4a 64
        E 0 92 4f 64
        E 0 93 4b 5b
        E 0 82 4f 64
        E 0 83 4b 66
        E 0 8f 37 64
        E 0 92 51 64
        E 0 93 48 5a
        E 0 9f 36 5a
        E 0 82 51 64
        E 0 92 4a 64
        E 0 82 4a 64
        E 0 92 4c 64
        E 0 82 4c 64
        E 0 83 48 64
        E 0 8f 36 64
        E 0 92 4d 64
        E 0 93 45 5a
        E 0 82 4d 64
        E 0 83 45 64
        E 0 92 4f 64
        E 0 93 46 5b
        E 0 82 4f 64
        E 0 83 46 66
        E 0 92 51 64
        E 0 93 48 5a
        E 0 9f 35 5a
        E 0 82 51 64
        E 0 83 48 64
        E 0 92 4d 64
        E 0 93 4a 5a
        E 0 82 4d 64
        E 0 83 4a 64
        E 0 8f 35 64
        E 0 92 4f 64
        E 0 93 46 5b
        E 0 9f 34 5a
        E 0 82 4f 64
        E 0 92 48 64
        E 0 82 48 64
        E 0 92 4a 64
        E 0 82 4a 64
        E 0 83 46 66
        E 0 8f 34 64
        E 0 92 4b 66
        E 0 93 43 5a
        E 0 82 4b 66
        E 0 83 43 64
        E 0 92 4d 64
        E 0 93 45 5a
        E 0 82 4d 64
        E 0 83 45 64
        E 0 92 4f 64
        E 0 93 46 5b
        E 0 9f 33 5b
        E 0 82 4f 64
        E 0 83 46 66
        E 0 92 4b 66
        E 0 93 48 5a
        E 0 82 4b 66
        E 0 83 48 64
        E 0 8f 33 66
        E 0 92 4e 64
        E 0 93 45 5a
        E 0 9f 32 5a
        E 0 82 4e 64
        E 0 92 51 64
        E 0 82 51 64
        E 0 92 4e 64
        E 1 82 4e 64
        E 0 83 45 64
        E 0 8f 32 64
        E 0 92 4f 64
        E 0 82 4f 64
        E 0 92 52 66
        E 0 93 3e 5a
        E 0 9f 2e 5b
        E 0 82 52 66
        E 0 92 4f 64
        E 0 82 4f 64
        E 0 83 3e 64
        E 0 8f 2e 66
        E 0 92 4f 64
        E 0 93 3f 5b
        E 0 9f 30 5a
        E 0 82 4f 64
        E 0 8f 30 64
        E 0 92 51 64
        E 0 9f 24 5a
        E 0 82 51 64
        E 0 92 4f 64
        E 0 82 4f 64
        E 0 83 3f 66
        E 0 8f 24 64
        E 0 92 4e 64
        E 0 93 3e 5a
        E 0 9f 32 5a
        E 0 82 4e 64
        E 0 8f 32 64
        E 0 92 51 64
        E 0 9f 26 5a
        E 0 82 51 64
        E 0 92 4e 64
        E 0 82 4e 64
        E 0 83 3e 64
        E 0 8f 26 64
        E 0 92 4f 64
        E 0 93 3e 5a
        E 0 9f 2b 5a
        E 0 82 4f 64
        E 0 92 4a 64
        E 0 82 4a 64
        E 0 83 3e 64
        E 0 8f 2b 64
        E 0 92 4b 66
        E 0 93 46 5b
        E 0 83 46 66
        E 0 93 48 5a
        E 0 83 48 64
        E 0 93 4a 5a
        E 0 9f 37 5a
        E 0 83 4a 64
        E 0 93 4b 5b
        E 0 82 4b 66
        E 0 83 4b 66
        E 0 8f 37 64
        E 0 92 4b 66
        E 1 93 48 5a
        E 0 9f 36 5a
        E 0 82 4b 66
        E 0 92 51 64
        E 0 82 51 64
        E 0 83 48 64
        E 0 8f 36 64
        E 0 92 4a 64
        E 0 93 45 5a
        E 0 83 45 64
        E 0 93 46 5b
        E 0 83 46 66
        E 0 93 48 5a
        E 0 9f 35 5a
        E 0 83 48 64
        E 0 93 4a 5a
        E 0 82 4a 64
        E 0 83 4a 64
        E 0 8f 35 64
        E 0 92 4a 64
        E 0 93 46 5b
        E 0 9f 34 5a
        E 0 82 4a 64
        E 0 92 4f 64
        E 0 82 4f 64
        E 0 83 46 66
        E 0 8f 34 64
        E 0 92 48 64
        E 0 93 43 5a
        E 0 83 43 64
        E 0 93 45 5a
        E 0 83 45 64
        E 0 93 46 5b
        E 0 9f 33 5b
        E 0 83 46 66
        E 0 93 48 5a
        E 0 82 48 64
        E 0 83 48 64
        E 0 8f 33 66
        E 0 92 48 64
        E 0 93 45 5a
        E 0 9f 32 5a
        E 0 82 48 64
        E 0 83 45 64
        E 0 8f 32 64
        E 0 92 46 66
        E 0 93 3e 5a
        E 0 9f 2e 5b
        E 0 82 46 66
        E 0 83 3e 64
        E 0 8f 2e 66
        E 0 92 45 64
        E 0 93 3f 5b
        E 0 9f 30 5a
        E 0 8f 30 64
        E 0 9f 24 5a
        E 0 83 3f 66
        E 0 8f 24 64
        E 0 93 3e 5a
        E 0 9f 32 5a
        E 0 8f 32 64
        E 0 9f 26 5a
        E 0 82 45 64
        E 0 83 3e 64
        E 0 8f 26 64
        E 0 92 43 64
        E 0 93 3e 5a
        E 0 9f 2b 5a
        E 0 82 43 64
        E 0 92 52 66
        E 0 83 3e 64
        E 0 8f 2b 64
        E 0 93 46 5b
        E 0 82 52 66
        E 0 92 4b 66
        E 0 9f 37 5a
        E 0 83 46 66
        E 0 8f 37 64
        E 0 93 45 5a
        E 0 9f 36 5a
        E 0 82 4b 66
        E 0 92 51 64
        E 0 8f 36 64
        E 0 82 51 64
        E 0 92 4a 64
        E 0 9f 35 5a
        E 0 82 4a 64
        E 0 83 45 64
        E 0 8f 35 64
        E 0 92 4a 64
        E 0 93 43 5a
        E 0 9f 34 5a
        E 0 82 4a 64
        E 0 92 4f 64
        E 0 8f 34 64
        E 0 82 4f 64
        E 0 92 48 64
        E 0 9f 33 5b
        E 38403 82 48 64
        E 0 83 43 64
        E 0 8f 33 66
        E 0 92 48 64
        E 0 93 42 5a
        E 0 9f 32 5a
        E 0 82 48 64
        E 0 83 42 64
        E 0 92 4e 64
        E 0 93 45 5a
        E 0 82 4e 64
        E 0 83 45 64
        E 1 8f 32 64
        E 0 92 4f 64
        E 0 93 46 5b
        E 0 9f 2e 5b
        E 0 82 4f 64
        E 0 83 46 66
        E 0 8f 2e 66
        E 0 92 4f 64
        E 0 93 3f 5b
        E 0 9f 30 5a
        E 0 82 4f 64
        E 0 8f 30 64
        E 0 92 45 64
        E 0 9f 24 5a
        E 0 83 3f 66
        E 0 8f 24 64
        E 0 93 3e 5a
        E 0 9f 32 5a
        E 0 82 45 64
        E 0 8f 32 64
        E 0 92 4e 64
        E 0 9f 26 5a
        E 0 82 4e 64
        E 0 83 3e 64
        E 0 8f 26 64
        E 0 92 4f 64
        E 0 93 3e 5a
        E 0 9f 2b 5a
        E 0 82 4f 64
        E 0 92 4a 64
        E 0 83 3e 64
        E 0 8f 2b 64
        E 0 93 46 5b
        E 0 82 4a 64
        E 0 92 46 66
        E 0 9f 37 5a
        E 0 82 46 66
        E 0 83 46 66
        E 0 8f 37 64
        E 0 92 48 64
        E 0 93 45 5a
        E 0 9f 36 5a
        E 0 82 48 64
        E 0 92 4b 66
        E 0 8f 36 64
        E 0 82 4b 66
        E 0 92 45 64
        E 0 9f 35 5a
        E 0 82 45 64
        E 0 83 45 64
        E 0 8f 35 64
        E 0 92 46 66
        E 0 93 43 5a
        E 0 9f 34 5a
        E 0 82 46 66
        E 0 92 4a 64
        E 0 8f 34 64
        E 0 82 4a 64
        E 0 92 43 64
        E 0 9f 33 5b
        E 0 82 43 64
        E 0 83 43 64
        E 0 8f 33 66
        E 0 92 45 64
        E 0 93 42 5a
        E 0 9f 32 5a
        E 0 82 45 64
        E 0 83 42 64
        E 0 92 48 64
        E 0 93 45 5a
        E 0 83 45 64
        E 0 8f 32 64
        E 0 82 48 64
        E 0 92 4a 64
        E 0 93 3e 5a
        E 0 9f 2e 5b
        E 0 82 4a 64
        E 0 83 3e 64
        E 0 8f 2e 66
        E 0 92 45 64
        E 0 93 3f 5b
        E 0 9f 30 5a
        E 0 82 45 64
        E 0 8f 30 64
        E 0 92 48 64
        E 0 9f 24 5a
        E 0 83 3f 66
        E 0 8f 24 64
        E 0 93 3e 5a
        E 0 9f 32 5a
        E 0 82 48 64
        E 0 8f 32 64
        E 0 92 45 64
        E 0 9f 26 5a
        E 0 82 45 64
        E 0 83 3e 64
        E 0 8f 26 64
        E 1 92 43 64
        E 0 93 3e 5a
        E 0 9f 2b 5a
        E 0 82 43 64
        E 0 92 52 66
        E 0 82 52 66
        E 0 92 52 66
        E 0 82 52 66
        E 0 92 52 66
        E 0 82 52 66
        E 0 83 3e 64
        E 0 8f 2b 64
        E 0 92 52 66
        E 0 82 52 66
        E 0 92 52 66
        E 0 82 52 66
        E 0 92 52 66
        E 0 93 46 5b
        E 0 9f 37 5a
        E 0 82 52 66
        E 0 92 52 66
        E 0 82 52 66
        E 0 83 46 66
        E 0 8f 37 64
        E 0 92 51 64
        E 0 93 48 5a
        E 0 9f 36 5a
        E 0 82 51 64
        E 0 83 48 64
        E 0 92 4a 64
        E 0 93 4a 5a
        E 0 82 4a 64
        E 0 83 4a 64
        E 0 92 4a 64
        E 0 93 4b 5b
        E 0 82 4a 64
        E 0 83 4b 66
        E 0 92 4a 64
        E 0 93 4a 5a
        E 0 82 4a 64
        E 0 83 4a 64
        E 0 8f 36 64
        E 0 92 4a 64
        E 0 93 48 5a
        E 0 82 4a 64
        E 0 92 4a 64
        E 0 82 4a 64
        E 0 83 48 64
        E 0 92 4a 64
        E 0 93 45 5a
        E 0 9f 35 5a
        E 0 82 4a 64
        E 0 92 4a 64
        E 0 82 4a 64
        E 0 83 45 64
        E 0 8f 35 64
        E 0 92 4f 64
        E 0 93 46 5b
        E 0 9f 34 5a
        E 0 82 4f 64
        E 0 83 46 66
        E 0 92 48 64
        E 0 93 48 5a
        E 0 82 48 64
        E 0 83 48 64
        E 0 92 48 64
        E 0 93 4a 5a
        E 0 82 48 64
        E 0 83 4a 64
        E 0 92 48 64
        E 0 93 48 5a
        E 0 82 48 64
        E 0 83 48 64
        E 0 8f 34 64
        E 0 92 48 64
        E 0 93 46 5b
        E 0 82 48 64
        E 0 92 48 64
        E 0 82 48 64
        E 0 83 46 66
        E 0 92 48 64
        E 0 93 43 5a
        E 0 9f 33 5b
        E 0 82 48 64
        E 0 92 48 64
        E 0 82 48 64
        E 0 83 43 64
        E 0 8f 33 66
        E 0 92 4e 64
        E 0 93 45 5a
        E 0 9f 32 5a
        E 0 82 4e 64
        E 0 83 45 64
        E 0 92 4a 64
        E 0 93 46 5b
        E 0 82 4a 64
        E 0 83 46 66
        E 0 92 4a 64
        E 0 93 48 5a
        E 0 82 4a 64
        E 0 83 48 64
        E 0 92 4a 64
        E 0 93 45 5a
        E 0 82 4a 64
        E 0 83 45 64
        E 0 8f 32 64
        E 0 92 4a 64
        E 0 93 43 5a
        E 0 82 4a 64
        E 1 92 4a 64
        E 0 82 4a 64
        E 0 83 43 64
        E 0 92 4a 64
        E 0 93 46 5b
        E 0 9f 2e 5b
        E 0 82 4a 64
        E 0 92 4a 64
        E 0 82 4a 64
        E 0 83 46 66
        E 0 8f 2e 66
        E 0 92 4b 66
        E 0 93 45 5a
        E 0 9f 30 5a
        E 0 82 4b 66
        E 0 83 45 64
        E 0 92 45 64
        E 0 93 43 5a
        E 0 82 45 64
        E 0 83 43 64
        E 0 8f 30 64
        E 0 92 45 64
        E 0 93 42 5a
        E 0 9f 24 5a
        E 0 82 45 64
        E 0 83 42 64
        E 0 92 45 64
        E 0 93 40 5a
        E 0 82 45 64
        E 0 83 40 64
        E 0 8f 24 64
        E 0 92 45 64
        E 0 93 3e 5a
        E 0 9f 32 5a
        E 0 82 45 64
        E 0 92 45 64
        E 0 82 45 64
        E 0 83 3e 64
        E 0 8f 32 64
        E 0 92 45 64
        E 0 93 3c 5a
        E 0 9f 26 5a
        E 0 82 45 64
        E 0 92 45 64
        E 0 82 45 64
        E 0 83 3c 64
        E 0 8f 26 64
        E 0 92 46 66
        E 0 93 3a 5b
        E 0 9f 2b 5a
        E 0 83 3a 66
        E 0 93 37 5a
        E 0 82 46 66
        E 0 83 37 64
        E 0 8f 2b 64
        E 0 93 46 5b
        E 0 9f 37 5a
        E 0 92 4b 66
        E 0 82 4b 66
        E 0 83 46 66
        E 0 8f 37 64
        E 0 92 4b 66
        E 0 93 48 5a
        E 0 9f 36 5a
        E 0 82 4b 66
        E 0 83 48 64
        E 0 92 4a 64
        E 0 93 4a 5a
        E 0 82 4a 64
        E 0 83 4a 64
        E 0 92 48 64
        E 0 93 4b 5b
        E 0 82 48 64
        E 0 83 4b 66
        E 0 92 46 66
        E 0 93 4a 5a
        E 0 82 46 66
        E 0 83 4a 64
        E 0 8f 36 64
        E 0 92 45 64
        E 0 93 48 5a
        E 0 83 48 64
        E 0 93 45 5a
        E 0 9f 35 5a
        E 0 82 45 64
        E 0 92 4a 64
        E 0 82 4a 64
        E 0 83 45 64
        E 0 8f 35 64
        E 0 92 4a 64
        E 1 93 46 5b
        E 0 9f 34 5a
        E 0 82 4a 64
        E 0 83 46 66
        E 0 92 48 64
        E 0 93 48 5a
        E 0 82 48 64
        E 0 83 48 64
        E 0 92 46 66
        E 0 93 4a 5a
        E 0 82 46 66
        E 0 83 4a 64
        E 0 92 45 64
        E 0 93 48 5a
        E 0 82 45 64
        E 0 83 48 64
        E 0 8f 34 64
        E 0 92 43 64
        E 0 93 46 5b
        E 0 83 46 66
        E 0 93 43 5a
        E 0 9f 33 5b
        E 0 82 43 64
        E 0 92 48 64
        E 0 82 48 64
        E 0 83 43 64
        E 0 8f 33 66
        E 0 92 48 64
        E 0 93 45 5a
        E 0 9f 32 5a
        E 0 83 45 64
        E 0 93 46 5b
        E 0 82 48 64
        E 0 83 46 66
        E 0 92 4e 64
        E 0 93 48 5a
        E 0 83 48 64
        E 0 93 45 5a
        E 0 82 4e 64
        E 0 83 45 64
        E 0 8f 32 64
        E 0 92 4f 64
        E 0 93 43 5a
        E 0 83 43 64
        E 0 93 46 5b
        E 0 9f 2e 5b
        E 0 83 46 66
        E 0 8f 2e 66
        E 0 93 45 5a
        E 0 9f 30 5a
        E 0 83 45 64
        E 0 93 43 5a
        E 0 83 43 64
        E 0 8f 30 64
        E 0 93 42 5a
        E 0 9f 24 5a
        E 0 83 42 64
        E 0 93 40 5a
        E 0 82 4f 64
        E 0 83 40 64
        E 0 8f 24 64
        E 0 92 4e 64
        E 0 93 3e 5a
        E 0 9f 32 5a
        E 0 83 3e 64
        E 0 8f 32 64
        E 0 93 3c 5a
        E 0 9f 26 5a
        E 0 82 4e 64
        E 0 83 3c 64
        E 0 8f 26 64
        E 0 92 4f 64
        E 0 93 3a 5b
        E 0 9f 2b 5a
        E 0 82 4f 64
        E 0 83 3a 66
        E 0 92 4f 64
        E 0 93 37 5a
        E 0 82 4f 64
        E 0 83 37 64
        E 0 8f 2b 64
        E 0 92 51 64
        E 0 82 51 64
        E 0 92 52 66
        E 0 93 46 5b
        E 1 9f 37 5a
        E 0 82 52 66
        E 0 83 46 66
        E 0 8f 37 64
        E 0 92 51 64
        E 0 93 48 5a
        E 0 9f 36 5a
        E 0 82 51 64
        E 0 83 48 64
        E 0 8f 36 64
        E 0 92 53 64
        E 0 93 43 5a
        E 0 9f 35 5a
        E 0 82 53 64
        E 0 83 43 64
        E 0 8f 35 64
        E 0 92 54 64
        E 0 93 43 5a
        E 0 9f 34 5a
        E 0 82 54 64
        E 0 83 43 64
        E 0 8f 34 64
        E 0 92 48 64
        E 0 93 48 5a
        E 0 82 48 64
        E 0 92 54 64
        E 0 9f 33 5b
        E 38403 82 54 64
        E 0 8f 33 66
        E 0 92 4e 64
        E 0 9f 32 5a
        E 1 82 4e 64
        E 0 92 4c 64
        E 0 82 4c 64
        E 0 92 4a 64
        E 0 82 4a 64
        E 0 83 48 64
        E 0 8f 32 64
        E 0 92 52 66
        E 0 93 46 5b
        E 0 83 46 66
        E 0 93 45 5a
        E 0 9f 2e 5b
        E 0 82 52 66
        E 0 83 45 64
        E 0 8f 2e 66
        E 0 92 52 66
        E 0 93 43 5a
        E 0 9f 30 5a
        E 0 82 52 66
        E 0 8f 30 64
        E 0 92 51 64
        E 0 9f 24 5a
        E 0 82 51 64
        E 0 92 4f 64
        E 0 82 4f 64
        E 0 83 43 64
        E 0 8f 24 64
        E 0 92 4e 64
        E 0 93 45 5a
        E 0 9f 32 5a
        E 0 83 45 64
        E 0 8f 32 64
        E 0 93 42 5a
        E 0 9f 26 5a
        E 0 82 4e 64
        E 0 92 4f 64
        E 0 82 4f 64
        E 0 83 42 64
        E 0 8f 26 64
        E 0 92 4f 64
        E 1 93 3e 5a
        E 0 9f 2b 5a
        E 0 82 4f 64
        E 0 83 3e 64
        E 0 8f 2b 64
        E 0 92 4b 66
        E 0 93 46 5b
        E 0 9f 37 5a
        E 0 82 4b 66
        E 0 83 46 66
        E 0 8f 37 64
        E 0 92 4b 66
        E 0 93 48 5a
        E 0 9f 36 5a
        E 0 82 4b 66
        E 0 83 48 64
        E 0 8f 36 64
        E 0 92 4a 64
        E 0 93 43 5a
        E 0 9f 35 5a
        E 0 82 4a 64
        E 0 8f 35 64
        E 0 92 4f 64
        E 0 9f 34 5a
        E 0 83 43 64
        E 0 8f 34 64
        E 0 93 48 5a
        E 0 9f 33 5b
        E 0 82 4f 64
        E 0 83 48 64
        E 0 8f 33 66
        E 0 92 51 64
        E 0 93 48 5a
        E 0 9f 32 5a
        E 0 82 51 64
        E 0 83 48 64
        E 0 8f 32 64
        E 0 92 4a 64
        E 0 93 46 5b
        E 0 83 46 66
        E 0 93 45 5a
        E 0 9f 2e 5b
        E 0 82 4a 64
        E 0 83 45 64
        E 0 8f 2e 66
        E 0 92 4b 66
        E 0 93 43 5a
        E 0 9f 30 5a
        E 0 82 4b 66
        E 0 92 4a 64
        E 0 82 4a 64
        E 0 8f 30 64
        E 0 92 48 64
        E 0 9f 24 5a
        E 0 82 48 64
        E 0 92 46 66
        E 0 82 46 66
        E 0 83 43 64
        E 0 8f 24 64
        E 0 92 45 64
        E 0 93 45 5a
        E 0 9f 32 5a
        E 0 82 45 64
        E 0 83 45 64
        E 0 8f 32 64
        E 1 92 4a 64
        E 0 93 42 5a
        E 0 9f 26 5a
        E 0 82 4a 64
        E 0 83 42 64
        E 0 8f 26 64
        E 0 92 46 66
        E 0 93 3e 5a
        E 0 9f 2b 5a
        E 0 82 46 66
        E 0 83 3e 64
        E 0 92 52 66
        E 0 93 46 5b
        E 0 82 52 66
        E 0 83 46 66
        E 0 8f 2b 64
        E 0 92 52 66
        E 0 93 46 5b
        E 0 9f 37 5a
        E 0 82 52 66
        E 0 83 46 66
        E 0 8f 37 64
        E 0 9f 36 5a
        E 0 92 51 64
        E 0 93 48 5a
        E 0 82 51 64
        E 0 83 48 64
        E 0 8f 36 64
        E 0 92 51 64
        E 0 93 45 5a
        E 0 9f 35 5a
        E 0 82 51 64
        E 0 83 45 64
        E 0 8f 35 64
        E 0 9f 34 5a
        E 0 92 4f 64
        E 0 93 46 5b
        E 0 82 4f 64
        E 0 83 46 66
        E 0 8f 34 64
        E 0 92 4f 64
        E 0 93 43 5a
        E 0 9f 33 5b
        E 0 82 4f 64
        E 0 83 43 64
        E 0 8f 33 66
        E 0 9f 32 5a
        E 0 92 4e 64
        E 0 93 45 5a
        E 0 82 4e 64
        E 0 83 45 64
        E 0 8f 32 64
        E 0 92 4f 64
        E 0 93 3e 5a
        E 0 9f 2e 5b
        E 0 82 4f 64
        E 0 83 3e 64
        E 0 8f 2e 66
        E 0 9f 30 5a
        E 0 8f 30 64
        E 0 92 4f 64
        E 0 93 3e 5a
        E 0 9f 2b 5a
        E 0 82 4f 64
        E 0 83 3e 64
        E 0 8f 2b 64
        E 0 92 4f 64
        E 0 93 3e 5a
        E 0 9f 32 5a
        E 0 82 4f 64
        E 0 83 3e 64
        E 0 8f 32 64
        E 0 92 4e 64
        E 0 93 3e 5a
        E 0 9f 26 5a
        E 0 82 4e 64
        E 0 83 3e 64
        E 1 8f 26 64
        E 0 92 4f 64
        E 0 93 3e 5a
        E 0 9f 2b 5a
        E 0 82 4f 64
        E 0 83 3e 64
        E 0 92 46 66
        E 0 93 3a 5b
        E 0 82 46 66
        E 0 83 3a 66
        E 0 8f 2b 64
        E 0 92 46 66
        E 0 93 3a 5b
        E 0 9f 2b 5a
        E 0 82 46 66
        E 0 83 3a 66
        E 0 8f 2b 64
        E 0 9f 2a 5a
        E 0 92 45 64
        E 0 93 3c 5a
        E 0 82 45 64
        E 0 83 3c 64
        E 0 8f 2a 64
        E 0 92 45 64
        E 0 93 39 5a
        E 0 9f 29 5a
        E 0 82 45 64
        E 0 83 39 64
        E 0 8f 29 64
        E 0 9f 28 5a
        E 0 92 43 64
        E 0 93 3a 5b
        E 0 82 43 64
        E 0 83 3a 66
        E 0 8f 28 64
        E 0 92 43 64
        E 0 93 37 5a
        E 0 9f 27 5b
        E 0 82 43 64
        E 0 83 37 64
        E 0 8f 27 66
        E 0 9f 26 5a
        E 0 92 42 64
        E 0 93 39 5a
        E 0 82 42 64
        E 0 83 39 64
        E 0 8f 26 64
        E 0 92 43 64
        E 0 93 3e 5a
        E 0 9f 2e 5b
        E 0 82 43 64
        E 0 83 3e 64
        E 0 8f 2e 66
        E 0 9f 30 5a
        E 0 8f 30 64
        E 0 92 43 64
        E 0 93 3e 5a
        E 0 9f 2b 5a
        E 0 82 43 64
        E 0 83 3e 64
        E 0 8f 2b 64
        E 0 92 43 64
        E 0 93 3e 5a
        E 0 9f 32 5a
        E 0 82 43 64
        E 0 83 3e 64
        E 0 8f 32 64
        E 0 92 42 64
        E 0 93 3e 5a
        E 0 9f 26 5a
        E 0 82 42 64
        E 0 83 3e 64
        E 0 8f 26 64
        E 0 92 43 64
        E 0 93 3a 5b
        E 0 9f 2b 5a
        E 38404 82 43 64
        E 0 83 3a 66
        E 0 8f 2b 64
        E 0 95 45 64
        E 0 9e 45 64
        E 0 9f 32 5a
        E 0 85 45 64
        E 0 8e 45 64
        E 0 95 45 64
        E 0 9e 45 64
        E 0 85 45 64
        E 0 8e 45 64
        E 0 95 42 64
        E 0 9e 42 64
        E 0 85 42 64
        E 0 8e 42 64
        E 0 95 42 64
        E 0 9e 42 64
        E 0 85 42 64
        E 0 8e 42 64
        E 0 95 43 64
        E 0 9e 43 64
        E 0 85 43 64
        E 0 8e 43 64
        E 0 95 45 64
        E 0 9e 45 64
        E 0 85 45 64
        E 0 8e 45 64
        E 0 95 45 64
        E 0 9e 45 64
        E 0 85 45 64
        E 0 8e 45 64
        E 0 8f 32 64
        E 0 95 48 64
        E 0 9e 48 64
        E 0 9f 32 5a
        E 0 85 48 64
        E 0 8e 48 64
        E 0 95 48 64
        E 0 9e 48 64
        E 0 85 48 64
        E 0 8e 48 64
        E 0 95 48 64
        E 0 9e 48 64
        E 0 85 48 64
        E 0 8e 48 64
        E 0 95 48 64
        E 0 9e 48 64
        E 0 85 48 64
        E 0 8e 48 64
        E 0 95 47 64
        E 0 9e 47 64
        E 0 85 47 64
        E 0 8e 47 64
        E 0 8f 32 64
        E 0 95 43 64
        E 0 9e 43 64
        E 0 9f 37 5a
        E 1 85 43 64
        E 0 8e 43 64
        E 0 9a 47 64
        E 0 9e 47 64
        E 0 8a 47 64
        E 0 8e 47 64
        E 0 9a 47 64
        E 0 9e 47 64
        E 0 8a 47 64
        E 0 8e 47 64
        E 0 9a 48 64
        E 0 9e 48 64
        E 0 8a 48 64
        E 0 8e 48 64
        E 0 8f 37 64
        E 0 9a 43 64
        E 0 9e 43 64
        E 0 9f 34 5a
        E 0 8a 43 64
        E 0 8e 43 64
        E 0 9a 43 64
        E 0 9e 43 64
        E 0 8a 43 64
        E 0 8e 43 64
        E 0 8f 34 64
        E 0 9a 3e 64
        E 0 9e 3e 64
        E 0 9f 2c 5a
        E 0 8a 3e 64
        E 0 8e 3e 64
        E 0 9a 3e 64
        E 0 9e 3e 64
        E 0 8a 3e 64
        E 0 8e 3e 64
        E 0 9a 44 64
        E 0 9e 44 64
        E 0 8a 44 64
        E 0 8e 44 64
        E 0 9a 44 64
        E 0 9e 44 64
        E 0 8a 44 64
        E 0 8e 44 64
        E 0 9a 44 64
        E 0 9e 44 64
        E 0 8f 2c 64
        E 0 8a 44 64
        E 0 8e 44 64
        E 0 9f 2c 5a
        E 0 9a 45 64
        E 0 9e 45 64
        E 0 8a 45 64
        E 0 8e 45 64
        E 0 9a 47 64
        E 0 9e 47 64
        E 0 8a 47 64
        E 0 8e 47 64
        E 0 9a 47 64
        E 0 9e 47 64
        E 0 8a 47 64
        E 0 8e 47 64
        E 0 9a 45 64
        E 0 9e 45 64
        E 0 8f 2c 64
        E 0 8a 45 64
        E 0 8e 45 64
        E 0 9f 2d 5a
        E 0 9a 47 64
        E 0 9e 47 64
        E 0 8a 47 64
        E 0 8e 47 64
        E 0 9a 48 64
        E 0 9e 48 64
        E 1 8a 48 64
        E 0 8e 48 64
        E 0 9a 48 64
        E 0 9e 48 64
        E 0 8a 48 64
        E 0 8e 48 64
        E 0 8f 2d 64
        E 0 9f 2d 5a
        E 0 9a 45 64
        E 0 9e 45 64
        E 0 8a 45 64
        E 0 8e 45 64
        E 0 9a 45 64
        E 0 9e 45 64
        E 0 8a 45 64
        E 0 8e 45 64
        E 0 9a 45 64
        E 0 9e 45 64
        E 0 8a 45 64
        E 0 8e 45 64
        E 0 9a 45 64
        E 0 9e 45 64
        E 0 8a 45 64
        E 0 8e 45 64
        E 0 9a 43 64
        E 0 9e 43 64
        E 0 8f 2d 64
        E 0 8a 43 64
        E 0 8e 43 64
        E 0 9f 2f 5a
        E 0 9a 40 64
        E 0 9e 40 64
        E 0 8a 40 64
        E 0 8e 40 64
        E 0 9a 40 64
        E 0 9e 40 64
        E 0 8f 2f 64
        E 0 8a 40 64
        E 0 8e 40 64
        E 0 9f 34 5a
        E 0 8f 34 64
        E 0 9f 34 5a
        E 0 95 43 64
        E 0 9e 43 64
        E 0 85 43 64
        E 0 8e 43 64
        E 0 95 43 64
        E 0 9e 43 64
        E 0 85 43 64
        E 0 8e 43 64
        E 0 95 43 64
        E 0 9e 43 64
        E 0 85 43 64
        E 0 8e 43 64
        E 0 95 43 64
        E 0 9e 43 64
        E 0 85 43 64
        E 0 8e 43 64
        E 0 95 45 64
        E 0 9e 45 64
        E 0 85 45 64
        E 0 8e 45 64
        E 0 95 47 64
        E 0 9e 47 64
        E 0 85 47 64
        E 0 8e 47 64
        E 0 95 47 64
        E 0 9e 47 64
        E 0 85 47 64
        E 0 8e 47 64
        E 0 8f 34 64
        E 0 9f 34 5a
        E 0 95 43 64
        E 0 9e 43 64
        E 0 85 43 64
        E 0 8e 43 64
        E 0 95 43 64
        E 0 9e 43 64
        E 0 85 43 64
        E 0 8e 43 64
        E 0 95 42 64
        E 0 9e 42 64
        E 0 8f 34 64
        E 0 85 42 64
        E 0 8e 42 64
        E 0 9f 2e 5a
        E 0 95 42 64
        E 0 9e 42 64
        E 0 85 42 64
        E 0 8e 42 64
        E 0 95 42 64
        E 0 9e 42 64
        E 0 85 42 64
        E 0 8e 42 64
        E 0 95 42 64
        E 0 9e 42 64
        E 0 85 42 64
        E 0 8e 42 64
        E 0 95 43 64
        E 0 9e 43 64
        E 0 8f 2e 64
        E 0 85 43 64
        E 0 8e 43 64
        E 0 9f 2e 5a
        E 1 95 46 64
        E 0 9e 46 64
        E 0 85 46 64
        E 0 8e 46 64
        E 0 95 46 64
        E 0 9e 46 64
        E 0 85 46 64
        E 0 8e 46 64
        E 0 95 46 64
        E 0 9e 46 64
        E 0 85 46 64
        E 0 8e 46 64
        E 0 95 46 64
        E 0 9e 46 64
        E 0 85 46 64
        E 0 8e 46 64
        E 0 95 46 64
        E 0 9e 46 64
        E 0 85 46 64
        E 0 8e 46 64
        E 0 95 44 64
        E 0 9e 44 64
        E 0 85 44 64
        E 0 8e 44 64
        E 0 95 42 64
        E 0 9e 42 64
        E 0 85 42 64
        E 0 8e 42 64
        E 0 8f 2e 64
        E 0 95 47 64
        E 0 9e 47 64
        E 0 9f 32 5a
        E 0 85 47 64
        E 0 8e 47 64
        E 0 95 47 64
        E 0 9e 47 64
        E 0 85 47 64
        E 0 8e 47 64
        E 0 95 47 64
        E 0 9e 47 64
        E 0 85 47 64
        E 0 8e 47 64
        E 0 95 45 64
        E 0 9e 45 64
        E 0 85 45 64
        E 0 8e 45 64
        E 0 95 47 64
        E 0 9e 47 64
        E 0 85 47 64
        E 0 8e 47 64
        E 0 8f 32 64
        E 0 95 43 64
        E 0 9e 43 64
        E 0 9f 34 5a
        E 0 85 43 64
        E 0 8e 43 64
        E 0 95 43 64
        E 0 9e 43 64
        E 0 85 43 64
        E 0 8e 43 64
        E 0 95 47 64
        E 0 9e 47 64
        E 0 85 47 64
        E 0 8e 47 64
        E 0 95 46 64
        E 0 9e 46 64
        E 0 85 46 64
        E 0 8e 46 64
        E 0 95 47 64
        E 0 9e 47 64
        E 0 85 47 64
        E 0 8e 47 64
        E 0 8f 34 64
        E 0 95 42 64
        E 0 9e 42 64
        E 0 9f 36 5a
        E 0 85 42 64
        E 0 8e 42 64
        E 0 95 42 64
        E 0 9e 42 64
        E 0 85 42 64
        E 0 8e 42 64
        E 0 8f 36 64
        E 0 9f 2f 5a
        E 0 8f 2f 64
        E 0 95 3e 64
        E 0 9e 3e 64
        E 0 9f 2f 5a
        E 0 85 3e 64
        E 0 8e 3e 64
        E 0 95 3e 64
        E 0 9e 3e 64
        E 0 85 3e 64
        E 0 8e 3e 64
        E 0 95 40 64
        E 0 9e 40 64
        E 38403 85 40 64
        E 0 8e 40 64
        E 0 8f 2f 64
        E 0 95 42 64
        E 0 9e 42 64
        E 0 9f 2f 5a
        E 0 85 42 64
        E 0 8e 42 64
        E 0 95 42 64
        E 0 9e 42 64
        E 0 85 42 64
        E 0 8e 42 64
        E 1 9a 47 64
        E 0 9e 47 64
        E 0 8a 47 64
        E 0 8e 47 64
        E 0 9a 47 64
        E 0 9e 47 64
        E 0 8a 47 64
        E 0 8e 47 64
        E 0 9a 47 64
        E 0 9e 47 64
        E 0 8a 47 64
        E 0 8e 47 64
        E 0 8f 2f 64
        E 0 9a 44 64
        E 0 9e 44 64
        E 0 9f 35 59
        E 0 8a 44 64
        E 0 8e 44 64
        E 0 9a 44 64
        E 0 9e 44 64
        E 0 8a 44 64
        E 0 8e 44 64
        E 0 9a 44 64
        E 0 9e 44 64
        E 0 8a 44 64
        E 0 8e 44 64
        E 0 9a 47 64
        E 0 9e 47 64
        E 0 8a 47 64
        E 0 8e 47 64
        E 0 9a 45 64
        E 0 9e 45 64
        E 0 8a 45 64
        E 0 8e 45 64
        E 0 8f 35 63
        E 0 9a 42 64
        E 0 9e 42 64
        E 0 9f 36 5a
        E 0 8a 42 64
        E 0 8e 42 64
        E 0 9a 42 64
        E 0 9e 42 64
        E 0 8a 42 64
        E 0 8e 42 64
        E 0 9a 45 64
        E 0 9e 45 64
        E 0 8a 45 64
        E 0 8e 45 64
        E 0 9a 45 64
        E 0 9e 45 64
        E 0 8a 45 64
        E 0 8e 45 64
        E 0 9a 44 64
        E 0 9e 44 64
        E 0 8a 44 64
        E 0 8e 44 64
        E 0 8f 36 64
        E 1 9a 44 64
        E 0 9e 44 64
        E 0 9f 30 59
        E 0 8a 44 64
        E 0 8e 44 64
        E 0 9a 44 64
        E 0 9e 44 64
        E 0 8a 44 64
        E 0 8e 44 64
        E 0 9a 44 64
        E 0 9e 44 64
        E 0 8a 44 64
        E 0 8e 44 64
        E 0 9a 45 64
        E 0 9e 45 64
        E 0 8a 45 64
        E 0 8e 45 64
        E 0 9a 42 64
        E 0 9e 42 64
        E 0 8a 42 64
        E 0 8e 42 64
        E 0 9a 42 64
        E 0 9e 42 64
        E 0 8a 42 64
        E 0 8e 42 64
        E 0 9a 40 64
        E 0 9e 40 64
        E 0 8a 40 64
        E 0 8e 40 64
        E 0 8f 30 63
        E 0 9a 3d 64
        E 0 9e 3d 64
        E 0 9f 31 5a
        E 0 8a 3d 64
        E 0 8e 3d 64
        E 0 9a 44 64
        E 0 9e 44 64
        E 0 8a 44 64
        E 0 8e 44 64
        E 0 9a 44 64
        E 0 9e 44 64
        E 0 8a 44 64
        E 0 8e 44 64
        E 0 9a 45 64
        E 0 9e 45 64
        E 0 8a 45 64
        E 0 8e 45 64
        E 0 8f 31 64
        E 0 9a 41 63
        E 0 9e 41 63
        E 0 9f 2f 5a
        E 0 8a 41 63
        E 0 8e 41 63
        E 0 9a 41 64
        E 0 9e 41 64
        E 0 8a 41 64
        E 0 8e 41 64
        E 0 8f 2f 64
        E 1 9a 44 64
        E 0 9e 44 64
        E 0 9f 2f 5a
        E 0 8a 44 64
        E 0 8e 44 64
        E 0 9a 44 64
        E 0 9e 44 64
        E 0 8a 44 64
        E 0 8e 44 64
        E 0 9a 44 64
        E 0 9e 44 64
        E 0 8a 44 64
        E 0 8e 44 64
        E 0 9a 42 64
        E 0 9e 42 64
        E 0 8a 42 64
        E 0 8e 42 64
        E 0 9a 44 64
        E 0 9e 44 64
        E 0 8a 44 64
        E 0 8e 44 64
        E 0 8f 2f 64
        E 0 9a 45 64
        E 0 9e 45 64
        E 0 9f 36 5a
        E 0 8a 45 64
        E 0 8e 45 64
        E 0 9a 45 64
        E 0 9e 45 64
        E 0 8a 45 64
        E 0 8e 45 64
        E 0 8f 36 64
        E 0 9a 45 64
        E 0 9e 45 64
        E 0 9f 36 5a
        E 0 8a 45 64
        E 0 8e 45 64
        E 0 9a 45 64
        E 0 9e 45 64
        E 0 8a 45 64
        E 0 8e 45 64
        E 0 9a 49 64
        E 0 9e 49 64
        E 0 8a 49 64
        E 0 8e 49 64
        E 0 8f 36 64
        E 0 9a 42 64
        E 0 9e 42 64
        E 0 9f 2e 5a
        E 0 8a 42 64
        E 0 8e 42 64
        E 0 9a 42 64
        E 0 9e 42 64
        E 0 8a 42 64
        E 0 8e 42 64
        E 0 9a 42 64
        E 1 9e 42 64
        E 0 8a 42 64
        E 0 8e 42 64
        E 0 8f 2e 64
        E 0 9a 46 64
        E 0 9e 46 64
        E 0 9f 28 5a
        E 0 8a 46 64
        E 0 8e 46 64
        E 0 9a 46 64
        E 0 9e 46 64
        E 0 8a 46 64
        E 0 8e 46 64
        E 0 9a 46 64
        E 0 9e 46 64
        E 0 8a 46 64
        E 0 8e 46 64
        E 0 9a 47 64
        E 0 9e 47 64
        E 0 8a 47 64
        E 0 8e 47 64
        E 0 8f 28 64
        E 0 9a 42 64
        E 0 9e 42 64
        E 0 9f 26 5a
        E 0 8a 42 64
        E 0 8e 42 64
        E 0 9a 42 64
        E 0 9e 42 64
        E 0 8a 42 64
        E 0 8e 42 64
        E 0 9a 47 64
        E 0 9e 47 64
        E 0 8a 47 64
        E 0 8e 47 64
        E 0 9a 47 64
        E 0 9e 47 64
        E 0 8a 47 64
        E 0 8e 47 64
        E 0 9a 45 64
        E 0 9e 45 64
        E 0 8a 45 64
        E 0 8e 45 64
        E 0 8f 26 64
        E 0 9a 45 64
        E 0 9e 45 64
        E 0 9f 31 5a
        E 0 8a 45 64
        E 0 8e 45 64
        E 0 9a 45 64
        E 0 9e 45 64
        E 0 8a 45 64
        E 0 8e 45 64
        E 0 9a 45 64
        E 0 9e 45 64
        E 0 8a 45 64
        E 0 8e 45 64
        E 0 9a 46 66
        E 0 9e 46 66
        E 0 8a 46 66
        E 0 8e 46 66
        E 0 9a 43 64
        E 0 9e 43 64
        E 0 8a 43 64
        E 0 8e 43 64
        E 0 9a 43 64
        E 0 9e 43 64
        E 0 8a 43 64
        E 0 8e 43 64
        E 0 9a 41 64
        E 0 9e 41 64
        E 0 8a 41 64
        E 0 8e 41 64
        E 0 8f 31 64
        E 0 9a 3e 64
        E 0 9e 3e 64
        E 0 9f 32 5a
        E 0 8a 3e 64
        E 0 8e 3e 64
        E 0 9a 3e 64
        E 0 9e 3e 64
        E 0 8a 3e 64
        E 0 8e 3e 64
        E 0 9a 45 64
        E 0 9e 45 64
        E 0 8a 45 64
        E 0 8e 45 64
        E 0 9a 45 64
        E 0 9e 45 64
        E 0 8a 45 64
        E 0 8e 45 64
        E 0 9a 45 64
        E 0 9e 45 64
        E 0 8a 45 64
        E 0 8e 45 64
        E 0 8f 32 64
        E 0 9a 42 64
        E 0 9e 42 64
        E 0 9f 30 5a
        E 0 8a 42 64
        E 0 8e 42 64
        E 0 9a 42 64
        E 0 9e 42 64
        E 0 8a 42 64
        E 0 8e 42 64
        E 0 9a 3e 64
        E 0 9e 3e 64
        E 0 8a 3e 64
        E 0 8e 3e 64
        E 0 9a 3e 64
        E 0 9e 3e 64
        E 0 8a 3e 64
        E 0 8e 3e 64
        E 0 8f 30 64
        E 1 9a 45 64
        E 0 9e 45 64
        E 0 9f 30 5a
        E 0 8a 45 64
        E 0 8e 45 64
        E 0 9a 45 64
        E 0 9e 45 64
        E 0 8a 45 64
        E 0 8e 45 64
        E 0 9a 46 66
        E 0 9e 46 66
        E 0 8a 46 66
        E 0 8e 46 66
        E 0 8f 30 64
        E 0 9a 43 64
        E 0 9e 43 64
        E 0 9f 2e 5b
        E 0 8a 43 64
        E 0 8e 43 64
        E 0 9a 43 64
        E 0 9e 43 64
        E 0 8a 43 64
        E 0 8e 43 64
        E 0 95 4a 64
        E 0 9e 4a 64
        E 0 85 4a 64
        E 0 8e 4a 64
        E 0 95 4a 64
        E 0 9e 4a 64
        E 0 85 4a 64
        E 0 8e 4a 64
        E 0 95 43 64
        E 0 9e 43 64
        E 38403 85 43 64
        E 0 8e 43 64
        E 0 8f 2e 66
        E 0 95 45 64
        E 0 9e 45 64
        E 0 9f 2d 5a
        E 0 85 45 64
        E 0 8e 45 64
        E 0 95 45 64
        E 0 9e 45 64
        E 0 85 45 64
        E 0 8e 45 64
        E 0 9a 40 64
        E 0 9e 40 64
        E 0 8a 40 64
        E 0 8e 40 64
        E 0 9a 40 64
        E 0 9e 40 64
        E 0 8a 40 64
        E 0 8e 40 64
        E 0 9a 45 64
        E 0 9e 45 64
        E 0 8a 45 64
        E 0 8e 45 64
        E 0 9a 45 64
        E 0 9e 45 64
        E 0 8a 45 64
        E 0 8e 45 64
        E 0 9a 45 64
        E 0 9e 45 64
        E 0 8a 45 64
        E 0 8e 45 64
        E 0 8f 2d 64
        E 0 9a 41 64
        E 0 9e 41 64
        E 0 9f 32 5a
        E 0 8a 41 64
        E 0 8e 41 64
        E 0 9a 41 64
        E 0 9e 41 64
        E 0 8a 41 64
        E 0 8e 41 64
        E 0 9a 41 64
        E 0 9e 41 64
        E 0 8a 41 64
        E 0 8e 41 64
        E 0 9a 41 64
        E 0 9e 41 64
        E 0 8a 41 64
        E 0 8e 41 64
        E 0 9a 46 66
        E 1 9e 46 66
        E 0 8a 46 66
        E 0 8e 46 66
        E 0 9a 46 66
        E 0 9e 46 66
        E 0 8a 46 66
        E 0 8e 46 66
        E 0 9a 45 64
        E 0 9e 45 64
        E 0 8a 45 64
        E 0 8e 45 64
        E 0 8f 32 64
        E 0 9a 41 64
        E 0 9e 41 64
        E 0 9f 30 5a
        E 0 8a 41 64
        E 0 8e 41 64
        E 0 9a 41 64
        E 0 9e 41 64
        E 0 8a 41 64
        E 0 8e 41 64
        E 0 8f 30 64
        E 0 9f 35 5a
        E 0 95 48 64
        E 0 9e 48 64
        E 0 85 48 64
        E 0 8e 48 64
        E 0 8f 35 64
        E 0 95 45 64
        E 0 9e 45 64
        E 0 9f 35 5a
        E 0 85 45 64
        E 0 8e 45 64
        E 0 95 45 64
        E 0 9e 45 64
        E 0 85 45 64
        E 0 8e 45 64
        E 0 95 48 64
        E 0 9e 48 64
        E 0 85 48 64
        E 0 8e 48 64
        E 0 8f 35 64
        E 0 95 41 64
        E 0 9e 41 64
        E 0 9f 35 5a
        E 0 85 41 64
        E 0 8e 41 64
        E 0 95 41 64
        E 0 9e 41 64
        E 0 85 41 64
        E 0 8e 41 64
        E 0 95 48 64
        E 0 9e 48 64
        E 0 85 48 64
        E 0 8e 48 64
        E 0 8f 35 64
        E 0 95 48 64
        E 0 9e 48 64
        E 0 9f 33 5b
        E 0 85 48 64
        E 0 8e 48 64
        E 0 95 43 64
        E 0 9e 43 64
        E 0 85 43 64
        E 0 8e 43 64
        E 0 95 43 64
        E 0 9e 43 64
        E 0 85 43 64
        E 0 8e 43 64
        E 1 95 42 64
        E 0 9e 42 64
        E 0 85 42 64
        E 0 8e 42 64
        E 0 8f 33 66
        E 0 95 45 64
        E 0 9e 45 64
        E 0 9f 32 5a
        E 0 85 45 64
        E 0 8e 45 64
        E 0 95 45 64
        E 0 9e 45 64
        E 0 85 45 64
        E 0 8e 45 64
        E 0 8f 32 64
        E 0 9c 39 64
        E 0 9e 39 64
        E 0 9f 32 5a
        E 0 8c 39 64
        E 0 8e 39 64
        E 0 9c 39 64
        E 0 9e 39 64
        E 0 8c 39 64
        E 0 8e 39 64
        E 0 9c 39 64
        E 0 9e 39 64
        E 0 8c 39 64
        E 0 8e 39 64
        E 0 9c 38 64
        E 0 9e 38 64
        E 0 8c 38 64
        E 0 8e 38 64
        E 0 9c 39 64
        E 0 9e 39 64
        E 0 8c 39 64
        E 0 8e 39 64
        E 0 8f 32 64
        E 0 9c 34 64
        E 0 9e 34 64
        E 0 9f 34 5a
        E 0 8c 34 64
        E 0 8e 34 64
        E 0 9c 34 64
        E 0 9e 34 64
        E 0 8c 34 64
        E 0 8e 34 64
        E 0 8f 34 64
        E 0 9f 2d 5a
        E 0 9c 34 64
        E 0 9e 34 64
        E 0 8c 34 64
        E 0 8e 34 64
        E 0 9c 34 64
        E 0 9e 34 64
        E 0 8c 34 64
        E 0 8e 34 64
        E 0 9c 34 64
        E 0 9e 34 64
        E 0 8c 34 64
        E 0 8e 34 64
        E 0 8f 2d 64
        E 0 9c 39 64
        E 0 9e 39 64
        E 0 9f 2d 5a
        E 0 8c 39 64
        E 0 8e 39 64
        E 0 9c 39 64
        E 0 9e 39 64
        E 0 8c 39 64
        E 0 8e 39 64
        E 0 9c 39 64
        E 0 9e 39 64
        E 0 8c 39 64
        E 0 8e 39 64
        E 1 9c 39 64
        E 0 9e 39 64
        E 0 8c 39 64
        E 0 8e 39 64
        E 0 9c 3b 64
        E 0 9e 3b 64
        E 0 8c 3b 64
        E 0 8e 3b 64
        E 0 9c 3c 64
        E 0 9e 3c 64
        E 0 8c 3c 64
        E 0 8e 3c 64
        E 0 9c 3c 64
        E 0 9e 3c 64
        E 0 8c 3c 64
        E 0 8e 3c 64
        E 0 9c 3b 64
        E 0 9e 3b 64
        E 0 8c 3b 64
        E 0 8e 3b 64
        E 0 9c 3c 64
        E 0 9e 3c 64
        E 0 8f 2d 64
        E 0 8c 3c 64
        E 0 8e 3c 64
        E 0 9f 2d 5a
        E 0 9c 39 64
        E 0 9e 39 64
        E 0 8c 39 64
        E 0 8e 39 64
        E 0 9c 39 64
        E 0 9e 39 64
        E 0 8c 39 64
        E 0 8e 39 64
        E 0 9c 34 64
        E 0 9e 34 64
        E 0 8f 2d 64
        E 0 8c 34 64
        E 0 8e 34 64
        E 0 9f 30 5a
        E 0 9c 39 64
        E 0 9e 39 64
        E 0 8c 39 64
        E 0 8e 39 64
        E 0 9c 39 64
        E 0 9e 39 64
        E 0 8c 39 64
        E 0 8e 39 64
        E 0 8f 30 64
        E 0 9f 30 5a
        E 0 9a 48 64
        E 0 9e 48 64
        E 0 8a 48 64
        E 0 8e 48 64
        E 0 9a 45 64
        E 0 9e 45 64
        E 0 8a 45 64
        E 0 8e 45 64
        E 0 9a 45 64
        E 0 9e 45 64
        E 0 8a 45 64
        E 0 8e 45 64
        E 0 9a 45 64
        E 0 9e 45 64
        E 0 8a 45 64
        E 0 8e 45 64
        E 0 9a 40 64
        E 0 9e 40 64
        E 0 8f 30 64
        E 0 8a 40 64
        E 0 8e 40 64
        E 0 9f 2f 5a
        E 0 9a 42 64
        E 0 9e 42 64
        E 0 8a 42 64
        E 0 8e 42 64
        E 1 8f 2f 64
        E 0 9f 2f 5a
        E 0 9c 3b 64
        E 0 9e 3b 64
        E 0 8c 3b 64
        E 0 8e 3b 64
        E 0 9c 3b 64
        E 0 9e 3b 64
        E 0 8f 2f 64
        E 0 8c 3b 64
        E 0 8e 3b 64
        E 0 9f 34 5a
        E 0 9c 37 64
        E 0 9e 37 64
        E 0 8c 37 64
        E 0 8e 37 64
        E 0 9c 37 64
        E 0 9e 37 64
        E 0 8c 37 64
        E 0 8e 37 64
        E 0 9c 34 64
        E 0 9e 34 64
        E 0 8f 34 64
        E 0 8c 34 64
        E 0 8e 34 64
        E 0 9f 34 5a
        E 0 9c 37 64
        E 0 9e 37 64
        E 0 8c 37 64
        E 0 8e 37 64
        E 0 9c 37 64
        E 0 9e 37 64
        E 0 8c 37 64
        E 0 8e 37 64
        E 0 9c 37 64
        E 0 9e 37 64
        E 0 8c 37 64
        E 0 8e 37 64
        E 0 9c 37 64
        E 0 9e 37 64
        E 38403 8c 37 64
        E 0 8e 37 64
        E 0 9c 37 64
        E 0 9e 37 64
        E 0 8c 37 64
        E 0 8e 37 64
        E 0 9c 39 64
        E 0 9e 39 64
        E 0 8c 39 64
        E 0 8e 39 64
        E 0 9c 3b 64
        E 0 9e 3b 64
        E 0 8c 3b 64
        E 0 8e 3b 64
        E 0 9c 3b 64
        E 0 9e 3b 64
        E 0 8c 3b 64
        E 0 8e 3b 64
        E 0 95 43 64
        E 0 9e 43 64
        E 0 8f 34 64
        E 0 85 43 64
        E 0 8e 43 64
        E 0 9f 34 5a
        E 0 95 43 64
        E 1 9e 43 64
        E 0 85 43 64
        E 0 8e 43 64
        E 0 95 43 64
        E 0 9e 43 64
        E 0 85 43 64
        E 0 8e 43 64
        E 0 95 45 64
        E 0 9e 45 64
        E 0 85 45 64
        E 0 8e 45 64
        E 0 95 47 64
        E 0 9e 47 64
        E 0 85 47 64
        E 0 8e 47 64
        E 0 95 40 64
        E 0 9e 40 64
        E 0 85 40 64
        E 0 8e 40 64
        E 0 95 40 64
        E 0 9e 40 64
        E 0 85 40 64
        E 0 8e 40 64
        E 0 9c 37 64
        E 0 9e 37 64
        E 0 8c 37 64
        E 0 8e 37 64
        E 0 9c 37 64
        E 0 9e 37 64
        E 0 8c 37 64
        E 0 8e 37 64
        E 0 9c 37 64
        E 0 9e 37 64
        E 0 8c 37 64
        E 0 8e 37 64
        E 0 8f 34 64
        E 0 9c 34 64
        E 0 9e 34 64
        E 0 9f 30 5a
        E 0 8c 34 64
        E 0 8e 34 64
        E 0 9c 34 64
        E 0 9e 34 64
        E 0 8c 34 64
        E 0 8e 34 64
        E 0 9c 34 64
        E 0 9e 34 64
        E 0 8c 34 64
        E 0 8e 34 64
        E 0 9c 34 64
        E 0 9e 34 64
        E 0 8c 34 64
        E 0 8e 34 64
        E 0 9c 34 64
        E 0 9e 34 64
        E 0 8c 34 64
        E 0 8e 34 64
        E 0 9c 35 64
        E 0 9e 35 64
        E 0 8c 35 64
        E 0 8e 35 64
        E 0 8f 30 64
        E 0 9c 37 64
        E 0 9e 37 64
        E 0 9f 30 5a
        E 0 8c 37 64
        E 0 8e 37 64
        E 0 9c 37 64
        E 0 9e 37 64
        E 0 8c 37 64
        E 0 8e 37 64
        E 0 9c 37 64
        E 0 9e 37 64
        E 0 8c 37 64
        E 0 8e 37 64
        E 0 9c 3a 66
        E 0 9e 3a 66
        E 0 8c 3a 66
        E 0 8e 3a 66
        E 0 9c 3a 66
        E 0 9e 3a 66
        E 0 8c 3a 66
        E 0 8e 3a 66
        E 0 9c 3a 66
        E 0 9e 3a 66
        E 0 8c 3a 66
        E 0 8e 3a 66
        E 0 9c 39 64
        E 0 9e 39 64
        E 0 8c 39 64
        E 0 8e 39 64
        E 0 8f 30 64
        E 0 9c 39 64
        E 0 9e 39 64
        E 0 9f 31 5a
        E 0 8c 39 64
        E 0 8e 39 64
        E 0 9c 39 64
        E 0 9e 39 64
        E 0 8c 39 64
        E 0 8e 39 64
        E 0 9a 40 64
        E 0 9e 40 64
        E 0 8a 40 64
        E 0 8e 40 64
        E 1 9a 40 64
        E 0 9e 40 64
        E 0 8a 40 64
        E 0 8e 40 64
        E 0 9a 41 64
        E 0 9e 41 64
        E 0 8a 41 64
        E 0 8e 41 64
        E 0 8f 31 64
        E 0 9a 43 64
        E 0 9e 43 64
        E 0 9f 31 5a
        E 0 8a 43 64
        E 0 8e 43 64
        E 0 9a 43 64
        E 0 9e 43 64
        E 0 8a 43 64
        E 0 8e 43 64
        E 0 9a 43 64
        E 0 9e 43 64
        E 0 8a 43 64
        E 0 8e 43 64
        E 0 9a 43 64
        E 0 9e 43 64
        E 0 8a 43 64
        E 0 8e 43 64
        E 0 9a 41 64
        E 0 9e 41 64
        E 0 8a 41 64
        E 0 8e 41 64
        E 0 8f 31 64
        E 0 9a 3e 64
        E 0 9e 3e 64
        E 0 9f 32 5a
        E 0 8a 3e 64
        E 0 8e 3e 64
        E 0 9c 39 64
        E 0 9e 39 64
        E 0 8c 39 64
        E 0 8e 39 64
        E 0 8f 32 64
        E 0 9c 35 64
        E 0 9e 35 64
        E 0 9f 32 5a
        E 0 8c 35 64
        E 0 8e 35 64
        E 0 9c 35 64
        E 0 9e 35 64
        E 0 8c 35 64
        E 0 8e 35 64
        E 0 9c 35 64
        E 0 9e 35 64
        E 0 8c 35 64
        E 0 8e 35 64
        E 0 9c 37 64
        E 0 9e 37 64
        E 0 8c 37 64
        E 0 8e 37 64
        E 0 9c 39 64
        E 0 9e 39 64
        E 0 8c 39 64
        E 0 8e 39 64
        E 0 9c 39 64
        E 0 9e 39 64
        E 0 8c 39 64
        E 0 8e 39 64
        E 0 9a 4a 64
        E 0 9e 4a 64
        E 0 8a 4a 64
        E 0 8e 4a 64
        E 0 8f 32 64
        E 0 9a 44 64
        E 0 9e 44 64
        E 0 9f 32 5a
        E 0 8a 44 64
        E 0 8e 44 64
        E 0 9a 44 64
        E 0 9e 44 64
        E 0 8a 44 64
        E 0 8e 44 64
        E 0 9a 44 64
        E 0 9e 44 64
        E 0 8a 44 64
        E 0 8e 44 64
        E 0 9a 45 64
        E 0 9e 45 64
        E 0 8a 45 64
        E 0 8e 45 64
        E 0 8f 32 64
        E 0 9a 40 64
        E 0 9e 40 64
        E 0 9f 30 5a
        E 1 8a 40 64
        E 0 8e 40 64
        E 0 9c 39 64
        E 0 9e 39 64
        E 0 8c 39 64
        E 0 8e 39 64
        E 0 9c 39 64
        E 0 9e 39 64
        E 0 8c 39 64
        E 0 8e 39 64
        E 0 9c 39 64
        E 0 9e 39 64
        E 0 8c 39 64
        E 0 8e 39 64
        E 0 9c 37 64
        E 0 9e 37 64
        E 0 8c 37 64
        E 0 8e 37 64
        E 0 8f 30 64
        E 0 9c 34 64
        E 0 9e 34 64
        E 0 9f 2f 5a
        E 0 8c 34 64
        E 0 8e 34 64
        E 0 9c 34 64
        E 0 9e 34 64
        E 0 8c 34 64
        E 0 8e 34 64
        E 0 8f 2f 64
        E 0 9f 34 5a
        E 0 8f 34 64
        E 0 9a 43 64
        E 0 9e 43 64
        E 0 9f 34 5a
        E 0 8a 43 64
        E 0 8e 43 64
        E 0 9a 43 64
        E 0 9e 43 64
        E 0 8a 43 64
        E 0 8e 43 64
        E 0 9a 43 64
        E 0 9e 43 64
        E 0 8a 43 64
        E 0 8e 43 64
        E 0 9c 3b 64
        E 0 9e 3b 64
        E 0 8c 3b 64
        E 0 8e 3b 64
        E 0 8f 34 64
        E 0 9c 34 64
        E 1 9e 34 64
        E 0 9f 34 5a
        E 0 8c 34 64
        E 0 8e 34 64
        E 0 9c 34 64
        E 0 9e 34 64
        E 0 8c 34 64
        E 0 8e 34 64
        E 0 95 43 64
        E 0 9e 43 64
        E 0 85 43 64
        E 0 8e 43 64
        E 0 8f 34 64
        E 0 95 45 64
        E 0 9e 45 64
        E 0 9f 30 5a
        E 0 85 45 64
        E 0 8e 45 64
        E 0 95 45 64
        E 0 9e 45 64
        E 0 85 45 64
        E 0 8e 45 64
        E 0 95 45 64
        E 0 9e 45 64
        E 0 85 45 64
        E 0 8e 45 64
        E 0 95 40 64
        E 0 9e 40 64
        E 0 85 40 64
        E 0 8e 40 64
        E 0 8f 30 64
        E 0 95 42 64
        E 0 9e 42 64
        E 0 9f 2f 5a
        E 0 85 42 64
        E 0 8e 42 64
        E 0 95 42 64
        E 0 9e 42 64
        E 0 85 42 64
        E 0 8e 42 64
        E 0 9c 3b 64
        E 0 9e 3b 64
        E 31193 8c 3b 64
        E 1 8e 3b 64
        E 0 9c 3b 64
        E 0 9e 3b 64
        E 0 8c 3b 64
        E 0 8e 3b 64
        E 1 9c 36 64
        E 0 9e 36 64
        E 0 8c 36 64
        E 0 8e 36 64
        E 0 9c 36 64
        E 0 9e 36 64
        E 0 8c 36 64
        E 0 8e 36 64
        E 0 9c 38 64
        E 0 9e 38 64
        E 0 8c 38 64
        E 0 8e 38 64
        E 0 8f 2f 64
        E 0 9c 38 64
        E 0 9e 38 64
        E 0 9f 35 59
        E 0 8c 38 64
        E 0 8e 38 64
        E 0 9c 38 64
        E 0 9e 38 64
        E 0 8c 38 64
        E 0 8e 38 64
        E 0 9c 38 64
        E 0 9e 38 64
        E 0 8c 38 64
        E 0 8e 38 64
        E 0 9c 3b 64
        E 0 9e 3b 64
        E 9 8c 3b 64
        E 0 8e 3b 64
        E 0 9c 39 64
        E 0 9e 39 64
        E 0 8c 39 64
        E 0 8e 39 64
        E 0 8f 35 63
        E 0 9c 36 64
        E 0 9e 36 64
        E 0 9f 36 5a
        E 0 8c 36 64
        E 0 8e 36 64
        E 0 9c 36 64
        E 0 9e 36 64
        E 0 8c 36 64
        E 0 8e 36 64
        E 0 8f 36 64
        E 0 9a 45 64
        E 0 9e 45 64
        E 1 9f 36 5a
        E 0 8a 45 64
        E 0 8e 45 64
        E 0 9a 49 64
        E 0 9e 49 64
        E 0 8a 49 64
        E 0 8e 49 64
        E 0 9a 42 64
        E 0 9e 42 64
        E 0 8a 42 64
        E 0 8e 42 64
        E 0 9a 40 64
        E 0 9e 40 64
        E 0 8a 40 64
        E 0 8e 40 64
        E 0 9a 42 64
        E 0 9e 42 64
        E 0 8a 42 64
        E 1 8e 42 64
        E 0 8f 36 64
        E 0 9a 3e 64
        E 0 9e 3e 64
        E 0 9f 2f 5a
        E 0 8a 3e 64
        E 0 8e 3e 64
        E 0 9a 3e 64
        E 0 9e 3e 64
        E 0 8a 3e 64
        E 1 8e 3e 64
        E 0 95 47 64
        E 0 9e 47 64
        E 0 85 47 64
        E 0 8e 47 64
        E 0 95 47 64
        E 0 9e 47 64
        E 0 85 47 64
        E 0 8e 47 64
        E 0 95 45 64
        E 0 9e 45 64
        E 0 85 45 64
        E 0 8e 45 64
        E 0 8f 2f 64
        E 0 95 42 64
        E 0 9e 42 64
        E 0 9f 31 5a
        E 0 85 42 64
        E 0 8e 42 64
        E 0 95 42 64
        E 0 9e 42 64
        E 0 85 42 64
        E 0 8e 42 64
        E 0 8f 31 64
        E 0 9c 39 64
        E 0 9e 39 64
        E 0 9f 36 5a
        E 0 8c 39 64
        E 0 8e 39 64
        E 0 8f 36 64
        E 0 9c 39 64
        E 0 9e 39 64
        E 0 9f 36 5a
        E 0 8c 39 64
        E 1 8e 39 64
        E 0 9c 3d 64
        E 0 9e 3d 64
        E 0 8c 3d 64
        E 0 8e 3d 64
        E 0 9c 36 64
        E 0 9e 36 64
        E 0 8c 36 64
        E 0 8e 36 64
        E 0 9c 36 64
        E 0 9e 36 64
        E 0 8c 36 64
        E 0 8e 36 64
        E 0 9c 39 64
        E 0 9e 39 64
        E 0 8c 39 64
        E 0 8e 39 64
        E 0 8f 36 64
        E 0 9c 38 64
        E 0 9e 38 64
        E 0 9f 30 59
        E 0 8c 38 64
        E 0 8e 38 64
        E 0 9c 38 64
        E 0 9e 38 64
        E 0 8c 38 64
        E 1 8e 38 64
        E 0 9c 3c 63
        E 0 9e 3c 63
        E 0 8c 3c 63
        E 0 8e 3c 63
        E 0 9c 3c 63
        E 0 9e 3c 63
        E 0 8c 3c 63
        E 0 8e 3c 63
        E 0 9c 3c 63
        E 0 9e 3c 63
        E 0 8c 3c 63
        E 0 8e 3c 63
        E 0 9c 3c 63
        E 0 9e 3c 63
        E 0 8c 3c 63
        E 0 8e 3c 63
        E 0 9c 3d 64
        E 1 9e 3d 64
        E 0 8c 3d 64
        E 0 8e 3d 64
        E 0 8f 30 63
        E 0 9c 38 64
        E 0 9e 38 64
        E 0 9f 31 5a
        E 0 8c 38 64
        E 0 8e 38 64
        E 0 9c 38 64
        E 0 9e 38 64
        E 0 8c 38 64
        E 1 8e 38 64
        E 0 9a 44 64
        E 0 9e 44 64
        E 0 8a 44 64
        E 0 8e 44 64
        E 0 9a 42 64
        E 0 9e 42 64
        E 0 8a 42 64
        E 0 8e 42 64
        E 0 9a 44 64
        E 0 9e 44 64
        E 0 8a 44 64
        E 0 8e 44 64
        E 0 9a 40 64
        E 0 9e 40 64
        E 0 8a 40 64
        E 0 8e 40 64
        E 0 9a 40 64
        E 1 9e 40 64
        E 0 8a 40 64
        E 0 8e 40 64
        E 0 9c 39 64
        E 0 9e 39 64
        E 0 8c 39 64
        E 0 8e 39 64
        E 0 9c 38 64
        E 0 9e 38 64
        E 0 8c 38 64
        E 0 8e 38 64
        E 0 9c 39 64
        E 0 9e 39 64
        E 1 8c 39 64
        E 0 8e 39 64
        E 0 8f 31 64
        E 0 9c 36 64
        E 0 9e 36 64
        E 0 9f 32 5a
        E 0 8c 36 64
        E 0 8e 36 64
        E 0 9a 45 64
        E 0 9e 45 64
        E 0 8a 45 64
        E 0 8e 45 64
        E 0 9a 3e 64
        E 0 9e 3e 64
        E 0 8a 3e 64
        E 0 8e 3e 64
        E 0 9a 47 64
        E 0 9e 47 64
        E 0 8a 47 64
        E 0 8e 47 64
        E 0 8f 32 64
        E 0 9a 43 64
        E 0 9e 43 64
        E 0 9f 2b 5a
        E 0 8a 43 64
        E 0 8e 43 64
        E 0 9c 32 64
        E 0 9e 32 64
        E 1 8c 32 64
        E 0 8e 32 64
        E 0 9c 37 64
        E 0 9e 37 64
        E 0 8c 37 64
        E 0 8e 37 64
        E 0 9c 37 64
        E 0 9e 37 64
        E 0 8c 37 64
        E 0 8e 37 64
        E 0 8f 2b 64
        E 0 9c 37 64
        E 0 9e 37 64
        E 0 9f 2b 5a
        E 0 8c 37 64
        E 0 8e 37 64
        E 0 9c 37 64
        E 0 9e 37 64
        E 0 8c 37 64
        E 0 8e 37 64
        E 0 9c 37 64
        E 0 9e 37 64
        E 0 8c 37 64
        E 0 8e 37 64
        E 0 9c 37 64
        E 0 9e 37 64
        E 0 8c 37 64
        E 0 8e 37 64
        E 0 9c 39 64
        E 0 9e 39 64
        E 158 8c 39 64
        E 0 8e 39 64
        E 0 9c 3b 64
        E 0 9e 3b 64
        E 580 8c 3b 64
        E 0 8e 3b 64
        E 0 9c 3b 64
        E 0 9e 3b 64
        E 291 8c 3b 64
        E 0 8e 3b 64
        E 288 9a 43 64
        E 0 9e 43 64
        E 296 8a 43 64
        E 0 8e 43 64
        E 0 9a 43 64
        E 0 9e 43 64
        E 288 8a 43 64
        E 0 8e 43 64
        E 0 9a 42 64
        E 0 9e 42 64
        E 290 8a 42 64
        E 0 8e 42 64
        E 0 8f 2b 64
        E 0 9a 45 64
        E 0 9e 45 64
        E 0 9f 32 5a
        E 872 8a 45 64
        E 0 8e 45 64
        E 873 8f 32 64
        E 0 9c 3e 64
        E 0 9e 3e 64
        E 0 9f 2e 5b
        E 581 8c 3e 64
        E 0 8e 3e 64
        E 0 9c 3a 66
        E 0 9e 3a 66
        E 292 8c 3a 66
        E 0 8e 3a 66
        E 0 9c 3a 66
        E 1 9e 3a 66
        E 303 8c 3a 66
        E 0 8e 3a 66
        E 1 9c 3a 66
        E 0 9e 3a 66
        E 277 8c 3a 66
        E 0 8e 3a 66
        E 1 9c 39 64
        E 6 9e 39 64
        E 575 8c 39 64
        E 1 8e 39 64
        E 0 8f 2e 66
        E 0 9c 35 64
        E 0 9e 35 64
        E 0 9f 30 5a
        E 592 8c 35 64
        E 0 8e 35 64
        E 0 9c 35 64
        E 0 9e 35 64
        E 279 8c 35 64
        E 0 8e 35 64
        E 0 8f 30 64
        E 0 9f 29 5a
        E 1455 8f 29 64
        E 0 93 37 5a
        E 0 9f 33 5b
        E 292 83 37 64
        E 1 8f 33 66
        E 0 93 37 5a
        E 1 9f 33 5b
        E 296 83 37 64
        E 0 8f 33 66
        E 0 92 52 66
        E 0 93 37 5a
        E 0 9f 33 5b
        E 282 83 37 64
        E 0 93 37 5a
        E 0 83 37 64
        E 0 8f 33 66
        E 0 93 3f 5b
        E 306 83 3f 66
        E 1 93 43 5a
        E 38402 82 52 66
        E 0 83 43 64
        E 0 92 52 66
        E 0 93 37 5a
        E 0 9f 33 5b
        E 0 83 37 64
        E 0 8f 33 66
        E 0 93 37 5a
        E 0 9f 33 5b
        E 0 82 52 66
        E 0 83 37 64
        E 0 8f 33 66
        E 0 92 4f 64
        E 0 93 37 5a
        E 1 9f 33 5b
        E 0 83 37 64
        E 0 93 37 5a
        E 0 82 4f 64
        E 0 83 37 64
        E 0 8f 33 66
        E 0 92 4b 66
        E 0 93 3f 5b
        E 0 83 3f 66
        E 0 93 43 5a
        E 0 82 4b 66
        E 0 83 43 64
        E 0 92 46 66
        E 0 93 37 5a
        E 0 9f 33 5b
        E 0 83 37 64
        E 0 8f 33 66
        E 0 93 37 5a
        E 0 9f 33 5b
        E 0 83 37 64
        E 0 8f 33 66
        E 0 93 37 5a
        E 0 9f 33 5b
        E 0 83 37 64
        E 0 93 37 5a
        E 0 83 37 64
        E 0 8f 33 66
        E 0 93 3f 5b
        E 0 83 3f 66
        E 0 93 43 5a
        E 0 82 46 66
        E 0 83 43 64
        E 0 92 46 66
        E 0 93 37 5a
        E 0 9f 33 5b
        E 0 83 37 64
        E 0 8f 33 66
        E 0 93 37 5a
        E 0 9f 33 5b
        E 0 83 37 64
        E 0 8f 33 66
        E 0 93 37 5a
        E 0 9f 33 5b
        E 0 83 37 64
        E 0 93 37 5a
        E 0 82 46 66
        E 0 83 37 64
        E 0 8f 33 66
        E 0 92 46 66
        E 0 93 3f 5b
        E 0 82 46 66
        E 0 92 44 66
        E 0 82 44 66
        E 0 83 3f 66
        E 0 92 43 64
        E 0 93 3f 5b
        E 0 82 43 64
        E 0 92 41 64
        E 0 82 41 64
        E 0 83 3f 66
        E 0 92 43 64
        E 0 93 3f 5b
        E 0 9f 3f 5b
        E 0 8f 3f 66
        E 0 9f 3e 5a
        E 0 8f 3e 64
        E 0 9f 3f 5b
        E 0 82 43 64
        E 0 8f 3f 66
        E 0 92 3f 66
        E 0 9f 3a 5b
        E 0 8f 3a 66
        E 0 9f 38 5b
        E 0 8f 38 66
        E 0 9f 3a 5b
        E 0 82 3f 66
        E 0 83 3f 66
        E 0 8f 3a 66
        E 0 9f 37 5a
        E 0 8f 37 64
        E 0 9f 35 5a
        E 0 8f 35 64
        E 0 9f 33 5b
        E 0 8f 33 66
        E 0 93 3e 5a
        E 0 9f 3a 5b
        E 0 83 3e 64
        E 0 8f 3a 66
        E 0 93 3e 5a
        E 0 9f 2e 5b
        E 0 83 3e 64
        E 0 8f 2e 66
        E 1 92 52 66
        E 0 93 3e 5a
        E 0 9f 2e 5b
        E 0 83 3e 64
        E 0 93 3e 5a
        E 0 83 3e 64
        E 0 8f 2e 66
        E 0 93 46 5b
        E 0 83 46 66
        E 0 93 4a 5a
        E 0 82 52 66
        E 0 83 4a 64
        E 0 92 52 66
        E 0 93 3e 5a
        E 0 9f 2e 5b
        E 0 83 3e 64
        E 0 8f 2e 66
        E 0 93 3e 5a
        E 0 9f 2e 5b
        E 0 82 52 66
        E 0 83 3e 64
        E 0 8f 2e 66
        E 0 92 4d 64
        E 0 93 3e 5a
        E 0 9f 2e 5b
        E 0 83 3e 64
        E 0 93 3e 5a
        E 0 82 4d 64
        E 0 83 3e 64
        E 0 8f 2e 66
        E 0 92 4a 64
        E 0 93 46 5b
        E 0 83 46 66
        E 0 93 4a 5a
        E 0 82 4a 64
        E 0 83 4a 64
        E 0 92 46 66
        E 0 93 3e 5a
        E 0 9f 2e 5b
        E 0 83 3e 64
        E 0 8f 2e 66
        E 0 93 3e 5a
        E 0 9f 2e 5b
        E 0 83 3e 64
        E 0 8f 2e 66
        E 0 93 3e 5a
        E 0 9f 2e 5b
        E 0 83 3e 64
        E 0 93 3e 5a
        E 0 83 3e 64
        E 0 8f 2e 66
        E 0 93 46 5b
        E 0 83 46 66
        E 0 93 4a 5a
        E 0 82 46 66
        E 0 83 4a 64
        E 0 92 46 66
        E 0 93 3e 5a
        E 0 9f 2e 5b
        E 0 83 3e 64
        E 0 8f 2e 66
        E 0 93 3e 5a
        E 0 9f 2e 5b
        E 0 83 3e 64
        E 0 8f 2e 66
        E 0 93 3e 5a
        E 0 9f 2e 5b
        E 0 83 3e 64
        E 0 93 3e 5a
        E 0 82 46 66
        E 0 83 3e 64
        E 0 8f 2e 66
        E 0 92 46 66
        E 0 93 46 5b
        E 0 82 46 66
        E 0 92 43 64
        E 0 82 43 64
        E 0 83 46 66
        E 0 92 41 64
        E 0 93 46 5b
        E 0 82 41 64
        E 0 92 3f 66
        E 0 82 3f 66
        E 0 83 46 66
        E 0 92 3e 64
        E 0 93 46 5b
        E 0 9f 3a 5b
        E 0 8f 3a 66
        E 0 9f 39 5a
        E 0 8f 39 64
        E 1 9f 3a 5b
        E 0 82 3e 64
        E 0 8f 3a 66
        E 0 92 3a 66
        E 0 9f 35 5a
        E 0 8f 35 64
        E 0 9f 33 5b
        E 0 8f 33 66
        E 0 9f 35 5a
        E 0 82 3a 66
        E 0 83 46 66
        E 0 8f 35 64
        E 0 9f 32 5a
        E 0 8f 32 64
        E 0 9f 30 5a
        E 0 8f 30 64
        E 0 9f 2e 5b
        E 0 8f 2e 66
        E 0 92 52 66
        E 0 93 3f 5b
        E 0 9f 33 5b
        E 0 92 50 66
        E 0 82 52 66
        E 0 83 3f 66
        E 0 93 3f 5b
        E 0 92 52 66
        E 0 82 50 66
        E 0 83 3f 66
        E 0 8f 33 66
        E 0 92 4f 64
        E 0 93 3f 5b
        E 0 9f 35 5a
        E 0 82 52 66
        E 0 92 4d 64
        E 0 82 4f 64
        E 0 83 3f 66
        E 0 93 3f 5b
        E 0 92 4f 64
        E 0 82 4d 64
        E 0 83 3f 66
        E 0 8f 35 64
        E 0 92 4b 66
        E 0 93 3f 5b
        E 0 9f 37 5a
        E 0 82 4f 64
        E 0 92 4a 64
        E 0 82 4b 66
        E 0 83 3f 66
        E 0 93 3f 5b
        E 0 92 4b 66
        E 0 82 4a 64
        E 0 83 3f 66
        E 0 8f 37 64
        E 0 92 46 66
        E 0 93 3f 5b
        E 0 9f 33 5b
        E 0 82 4b 66
        E 1 92 44 66
        E 0 82 46 66
        E 0 83 3f 66
        E 0 93 3f 5b
        E 0 92 46 66
        E 0 82 44 66
        E 0 83 3f 66
        E 0 8f 33 66
        E 0 92 43 64
        E 0 93 3f 5b
        E 0 9f 35 5a
        E 0 82 46 66
        E 0 92 41 64
        E 0 82 43 64
        E 0 83 3f 66
        E 0 93 3f 5b
        E 0 92 43 64
        E 0 82 41 64
        E 0 83 3f 66
        E 0 8f 35 64
        E 0 92 3f 66
        E 0 93 3f 5b
        E 0 9f 37 5a
        E 0 82 43 64
        E 0 92 3e 64
        E 0 82 3f 66
        E 0 83 3f 66
        E 0 93 3f 5b
        E 0 92 3f 66
        E 0 82 3e 64
        E 0 83 3f 66
        E 0 8f 37 64
        E 0 92 38 66
        E 0 93 3f 5b
        E 0 9f 38 5b
        E 0 82 3f 66
        E 0 8f 38 66
        E 1 9f 37 5a
        E 0 8f 37 64
        E 0 9f 38 5b
        E 0 8f 38 66
        E 0 9f 33 5b
        E 0 8f 33 66
        E 0 9f 32 5a
        E 0 8f 32 64
        E 0 9f 33 5b
        E 0 82 38 66
        E 0 83 3f 66
        E 0 8f 33 66
        E 0 9f 30 5a
        E 0 8f 30 64
        E 0 9f 2e 5b
        E 0 8f 2e 66
        E 0 9f 2c 5b
        E 0 8f 2c 66
        E 0 92 54 64
        E 0 93 41 5a
        E 0 9f 35 5a
        E 0 92 52 66
        E 0 82 54 64
        E 0 83 41 64
        E 0 93 41 5a
        E 0 92 54 64
        E 0 82 52 66
        E 0 83 41 64
        E 0 8f 35 64
        E 0 92 51 64
        E 0 93 41 5a
        E 0 9f 37 5a
        E 0 82 54 64
        E 0 92 4f 64
        E 0 82 51 64
        E 0 83 41 64
        E 0 93 41 5a
        E 0 92 51 64
        E 0 82 4f 64
        E 0 83 41 64
        E 0 8f 37 64
        E 0 92 4d 64
        E 0 93 41 5a
        E 0 9f 39 5a
        E 0 82 51 64
        E 0 92 4c 64
        E 0 82 4d 64
        E 0 83 41 64
        E 0 93 41 5a
        E 0 92 4d 64
        E 0 82 4c 64
        E 0 83 41 64
        E 0 8f 39 64
        E 0 92 48 64
        E 0 93 41 5a
        E 0 9f 35 5a
        E 0 82 4d 64
        E 0 92 46 66
        E 0 82 48 64
        E 0 83 41 64
        E 0 93 41 5a
        E 0 92 48 64
        E 0 82 46 66
        E 0 83 41 64
        E 0 8f 35 64
        E 0 92 45 64
        E 0 93 41 5a
        E 0 9f 37 5a
        E 0 82 48 64
        E 0 92 43 64
        E 0 82 45 64
        E 0 83 41 64
        E 1 93 41 5a
        E 0 92 45 64
        E 0 82 43 64
        E 0 83 41 64
        E 0 8f 37 64
        E 0 92 41 64
        E 0 93 41 5a
        E 0 9f 39 5a
        E 0 82 45 64
        E 0 92 3f 66
        E 0 82 41 64
        E 0 83 41 64
        E 0 93 41 5a
        E 0 92 41 64
        E 0 82 3f 66
        E 0 83 41 64
        E 0 8f 39 64
        E 0 92 3c 64
        E 0 93 41 5a
        E 0 9f 3a 5b
        E 0 82 41 64
        E 0 8f 3a 66
        E 0 9f 39 5a
        E 0 8f 39 64
        E 0 9f 3a 5b
        E 0 8f 3a 66
        E 0 9f 35 5a
        E 0 8f 35 64
        E 0 9f 33 5b
        E 0 8f 33 66
        E 0 9f 35 5a
        E 0 82 3c 64
        E 0 83 41 64
        E 0 8f 35 64
        E 0 9f 32 5a
        E 0 8f 32 64
        E 0 9f 30 5a
        E 0 8f 30 64
        E 0 9f 32 5a
        E 0 8f 32 64
        E 0 93 3a 5b
        E 0 9f 2e 5b
        E 0 83 3a 66
        E 0 8f 2e 66
        E 0 93 3a 5b
        E 0 9f 2e 5b
        E 0 83 3a 66
        E 0 8f 2e 66
        E 0 93 3a 5b
        E 0 9f 2e 5b
        E 0 83 3a 66
        E 0 8f 2e 66
        E 0 93 3a 5b
        E 0 9f 2e 5b
        E 0 83 3a 66
        E 0 8f 2e 66
        E 0 93 3a 5b
        E 0 9f 2e 5b
        E 0 83 3a 66
        E 0 8f 2e 66
        E 0 93 3a 5b
        E 0 9f 2e 5b
        E 0 83 3a 66
        E 0 8f 2e 66
        E 0 92 41 64
        E 0 93 3a 5b
        E 0 9f 2e 5b
        E 0 82 41 64
        E 0 83 3a 66
        E 0 8f 2e 66
        E 0 92 41 64
        E 0 93 3a 5b
        E 0 9f 2e 5b
        E 0 82 41 64
        E 0 83 3a 66
        E 0 8f 2e 66
        E 0 92 41 64
        E 0 93 3a 5b
        E 0 9f 2e 5b
        E 1 82 41 64
        E 0 83 3a 66
        E 0 8f 2e 66
        E 0 92 41 64
        E 0 93 3a 5b
        E 0 9f 2e 5b
        E 0 82 41 64
        E 0 83 3a 66
        E 0 8f 2e 66
        E 0 92 46 66
        E 0 93 3a 5b
        E 0 9f 2e 5b
        E 0 82 46 66
        E 0 83 3a 66
        E 0 8f 2e 66
        E 0 92 4a 64
        E 0 93 3a 5b
        E 0 9f 2e 5b
        E 0 82 4a 64
        E 0 83 3a 66
        E 0 8f 2e 66
        E 0 92 41 64
        E 0 93 3a 5b
        E 0 9f 2e 5b
        E 0 82 41 64
        E 0 83 3a 66
        E 0 8f 2e 66
        E 0 92 3f 66
        E 0 93 3a 5b
        E 0 9f 2e 5b
        E 0 82 3f 66
        E 0 83 3a 66
        E 0 8f 2e 66
        E 0 92 3f 66
        E 0 93 3a 5b
        E 0 9f 2e 5b
        E 0 82 3f 66
        E 0 83 3a 66
        E 0 8f 2e 66
        E 0 92 3f 66
        E 0 93 3a 5b
        E 0 9f 2e 5b
        E 0 82 3f 66
        E 0 83 3a 66
        E 0 8f 2e 66
        E 0 92 3f 66
        E 0 93 3a 5b
        E 0 9f 2e 5b
        E 0 82 3f 66
        E 0 83 3a 66
        E 0 8f 2e 66
        E 0 92 3f 66
        E 0 93 3a 5b
        E 0 9f 2e 5b
        E 0 82 3f 66
        E 0 83 3a 66
        E 0 8f 2e 66
        E 0 92 44 66
        E 0 93 3a 5b
        E 0 9f 2e 5b
        E 0 82 44 66
        E 0 83 3a 66
        E 0 8f 2e 66
        E 0 92 44 66
        E 0 93 3a 5b
        E 0 9f 2e 5b
        E 0 82 44 66
        E 0 83 3a 66
        E 0 8f 2e 66
        E 0 92 44 66
        E 0 93 3a 5b
        E 0 9f 2e 5b
        E 0 82 44 66
        E 0 83 3a 66
        E 0 8f 2e 66
        E 0 92 44 66
        E 1 93 3a 5b
        E 0 9f 2e 5b
        E 0 82 44 66
        E 0 83 3a 66
        E 0 8f 2e 66
        E 0 92 4a 64
        E 0 93 3a 5b
        E 0 9f 2e 5b
        E 0 82 4a 64
        E 0 83 3a 66
        E 0 8f 2e 66
        E 0 92 4d 64
        E 0 93 3a 5b
        E 0 9f 2e 5b
        E 0 82 4d 64
        E 0 83 3a 66
        E 0 8f 2e 66
        E 0 92 44 66
        E 0 93 3a 5b
        E 0 9f 2e 5b
        E 0 82 44 66
        E 0 83 3a 66
        E 0 8f 2e 66
        E 0 92 44 66
        E 0 93 3a 5b
        E 0 9f 2e 5b
        E 0 82 44 66
        E 0 83 3a 66
        E 0 8f 2e 66
        E 0 92 43 64
        E 0 93 3a 5b
        E 0 9f 2e 5b
        E 0 82 43 64
        E 0 83 3a 66
        E 0 8f 2e 66
        E 0 92 43 64
        E 0 93 3a 5b
        E 0 9f 2e 5b
        E 0 82 43 64
        E 0 83 3a 66
        E 0 8f 2e 66
        E 0 92 43 64
        E 0 93 3a 5b
        E 0 9f 2e 5b
        E 0 82 43 64
        E 0 83 3a 66
        E 0 8f 2e 66
        E 0 92 43 64
        E 0 93 3a 5b
        E 0 9f 2e 5b
        E 0 82 43 64
        E 0 83 3a 66
        E 0 8f 2e 66
        E 0 92 48 64
        E 0 93 3a 5b
        E 0 9f 2e 5b
        E 0 82 48 64
        E 0 83 3a 66
        E 0 8f 2e 66
        E 0 92 48 64
        E 0 93 3a 5b
        E 0 9f 2e 5b
        E 0 82 48 64
        E 0 83 3a 66
        E 0 8f 2e 66
        E 0 92 48 64
        E 1 93 3a 5b
        E 0 9f 2e 5b
        E 0 82 48 64
        E 0 83 3a 66
        E 0 8f 2e 66
        E 0 92 48 64
        E 0 93 3a 5b
        E 0 9f 2e 5b
        E 0 82 48 64
        E 0 83 3a 66
        E 0 8f 2e 66
        E 0 92 4d 64
        E 0 93 3a 5b
        E 0 9f 2e 5b
        E 0 82 4d 64
        E 0 83 3a 66
        E 0 8f 2e 66
        E 0 92 50 66
        E 0 93 3a 5b
        E 0 9f 2e 5b
        E 0 82 50 66
        E 0 83 3a 66
        E 0 8f 2e 66
        E 0 92 48 64
        E 0 93 3a 5b
        E 0 9f 2e 5b
        E 0 82 48 64
        E 0 83 3a 66
        E 0 8f 2e 66
        E 0 92 48 64
        E 1 93 3a 5b
        E 0 9f 2e 5b
        E 0 82 48 64
        E 0 83 3a 66
        E 0 8f 2e 66
        E 0 92 46 66
        E 0 93 3a 5b
        E 0 9f 2e 5b
        E 0 82 46 66
        E 0 83 3a 66
        E 0 8f 2e 66
        E 0 92 46 66
        E 0 93 3a 5b
        E 0 9f 2e 5b
        E 0 82 46 66
        E 0 83 3a 66
        E 0 8f 2e 66
        E 0 92 44 66
        E 0 93 3a 5b
        E 0 9f 2e 5b
        E 0 82 44 66
        E 0 83 3a 66
        E 0 8f 2e 66
        E 0 92 44 66
        E 0 93 3a 5b
        E 0 9f 2e 5b
        E 0 82 44 66
        E 0 83 3a 66
        E 0 8f 2e 66
        E 0 92 43 64
        E 0 93 3a 5b
        E 0 9f 33 5b
        E 0 82 43 64
        E 0 92 46 66
        E 0 82 46 66
        E 0 83 3a 66
        E 0 8f 33 66
        E 0 92 46 66
        E 0 92 38 66
        E 0 92 3f 66
        E 1 93 38 5b
        E 0 9f 35 5a
        E 0 82 46 66
        E 0 92 46 66
        E 0 82 38 66
        E 0 82 3f 66
        E 0 82 46 66
        E 0 83 38 66
        E 0 8f 35 64
        E 0 92 46 66
        E 0 92 38 66
        E 0 92 3f 66
        E 0 93 3a 5b
        E 0 9f 37 5a
        E 0 82 46 66
        E 0 92 46 66
        E 0 82 38 66
        E 0 82 3f 66
        E 0 82 46 66
        E 0 83 3a 66
        E 0 8f 37 64
        E 0 92 48 64
        E 0 92 38 66
        E 0 92 3f 66
        E 0 93 3f 5b
        E 0 9f 38 5b
        E 0 82 48 64
        E 0 82 38 66
        E 1 82 3f 66
        E 0 92 4a 64
        E 0 8f 38 66
        E 0 9f 38 5b
        E 0 82 4a 64
        E 0 83 3f 66
        E 0 8f 38 66
        E 0 92 4b 66
        E 0 93 3a 5b
        E 0 9f 37 5a
        E 0 8f 37 64
        E 0 9f 35 5a
        E 0 82 4b 66
        E 0 83 3a 66
        E 0 8f 35 64
        E 0 92 3f 66
        E 0 93 3a 5b
        E 1 9f 33 5b
        E 0 82 3f 66
        E 0 92 41 64
        E 0 82 41 64
        E 0 83 3a 66
        E 0 8f 33 66
        E 0 92 41 64
        E 0 93 3a 5b
        E 0 9f 3a 5b
        E 0 83 3a 66
        E 0 8f 3a 66
        E 0 93 3a 5b
        E 0 9f 2e 5b
        E 0 82 41 64
        E 0 83 3a 66
        E 0 8f 2e 66
        E 0 92 3f 66
        E 0 93 37 5a
        E 0 9f 33 5b
        E 0 82 3f 66
        E 0 92 46 66
        E 0 82 46 66
        E 0 83 37 64
        E 0 8f 33 66
        E 0 92 46 66
        E 0 92 37 64
        E 0 92 3f 66
        E 0 93 38 5b
        E 0 9f 35 5a
        E 0 82 46 66
        E 0 92 46 66
        E 0 82 37 64
        E 0 82 3f 66
        E 0 82 46 66
        E 0 83 38 66
        E 0 8f 35 64
        E 0 92 46 66
        E 0 92 37 64
        E 0 92 3f 66
        E 0 93 3a 5b
        E 0 9f 37 5a
        E 0 82 46 66
        E 0 92 46 66
        E 0 82 37 64
        E 0 82 3f 66
        E 0 82 46 66
        E 0 83 3a 66
        E 0 8f 37 64
        E 0 92 48 64
        E 0 92 38 66
        E 0 92 3f 66
        E 0 93 3f 5b
        E 0 9f 38 5b
        E 0 82 48 64
        E 0 82 38 66
        E 0 82 3f 66
        E 0 92 4a 64
        E 0 8f 38 66
        E 0 9f 38 5b
        E 38403 82 4a 64
        E 0 83 3f 66
        E 0 8f 38 66
        E 0 92 4b 66
        E 0 93 3a 5b
        E 1 9f 37 5a
        E 0 8f 37 64
        E 0 9f 35 5a
        E 0 82 4b 66
        E 0 83 3a 66
        E 0 8f 35 64
        E 0 92 3f 66
        E 0 93 3a 5b
        E 0 9f 33 5b
        E 0 82 3f 66
        E 0 92 41 64
        E 0 82 41 64
        E 0 83 3a 66
        E 0 8f 33 66
        E 0 92 41 64
        E 0 93 3a 5b
        E 0 9f 3a 5b
        E 0 83 3a 66
        E 0 8f 3a 66
        E 0 93 3a 5b
        E 0 9f 2e 5b
        E 0 82 41 64
        E 0 83 3a 66
        E 0 8f 2e 66
        E 0 92 3f 66
        E 0 93 37 5a
        E 0 9c 33 66
        E 0 9f 33 5b
        E 1 82 3f 66
        E 0 83 37 64
        E 0 92 3a 66
        E 0 93 37 5a
        E 0 82 3a 66
        E 0 83 37 64
        E 0 8f 33 66
        E 0 92 3f 66
        E 0 93 3f 5b
        E 0 82 3f 66
        E 0 83 3f 66
        E 0 92 43 64
        E 0 93 43 5a
        E 0 82 43 64
        E 0 83 43 64
        E 0 8c 33 66
        E 0 92 3a 66
        E 0 93 37 5a
        E 0 9c 37 64
        E 0 9f 33 5b
        E 0 82 3a 66
        E 0 83 37 64
        E 0 8f 33 66
        E 0 92 3a 66
        E 0 93 37 5a
        E 0 9f 33 5b
        E 0 82 3a 66
        E 0 83 37 64
        E 0 8f 33 66
        E 0 92 3a 66
        E 0 93 37 5a
        E 0 9f 33 5b
        E 0 82 3a 66
        E 0 83 37 64
        E 0 92 3a 66
        E 0 93 37 5a
        E 0 82 3a 66
        E 0 83 37 64
        E 0 8f 33 66
        E 0 92 3f 66
        E 0 93 3f 5b
        E 0 82 3f 66
        E 0 83 3f 66
        E 0 92 43 64
        E 0 93 43 5a
        E 0 82 43 64
        E 0 83 43 64
        E 0 8c 37 64
        E 0 92 3a 66
        E 0 93 37 5a
        E 0 9c 3a 66
        E 0 9f 33 5b
        E 1 82 3a 66
        E 0 83 37 64
        E 0 8f 33 66
        E 0 92 3a 66
        E 0 93 37 5a
        E 0 9f 33 5b
        E 0 82 3a 66
        E 0 83 37 64
        E 0 8f 33 66
        E 0 92 3a 66
        E 0 93 37 5a
        E 0 9f 33 5b
        E 0 82 3a 66
        E 0 83 37 64
        E 0 92 3a 66
        E 0 93 37 5a
        E 0 82 3a 66
        E 0 83 37 64
        E 0 8f 33 66
        E 0 92 3f 66
        E 0 93 3f 5b
        E 0 82 3f 66
        E 0 83 3f 66
        E 0 92 43 64
        E 0 93 43 5a
        E 0 82 43 64
        E 0 83 43 64
        E 0 8c 3a 66
        E 0 92 3c 64
        E 1 93 37 5a
        E 0 9c 3f 66
        E 0 9f 33 5b
        E 0 82 3c 64
        E 0 83 37 64
        E 0 8f 33 66
        E 0 92 3c 64
        E 0 93 37 5a
        E 0 9f 33 5b
        E 0 82 3c 64
        E 0 83 37 64
        E 0 8c 3f 66
        E 0 8f 33 66
        E 0 92 3c 64
        E 0 93 37 5a
        E 0 9c 3e 64
        E 0 9f 33 5b
        E 0 82 3c 64
        E 0 83 37 64
        E 0 8c 3e 64
        E 0 92 3c 64
        E 0 93 37 5a
        E 0 9c 3c 64
        E 0 82 3c 64
        E 0 83 37 64
        E 0 8c 3c 64
        E 0 8f 33 66
        E 0 92 3f 66
        E 0 93 3c 5a
        E 0 9c 3a 66
        E 0 82 3f 66
        E 0 83 3c 64
        E 0 8c 3a 66
        E 0 92 44 66
        E 0 93 3f 5b
        E 0 9c 38 66
        E 0 82 44 66
        E 0 83 3f 66
        E 0 8c 38 66
        E 0 92 43 64
        E 0 93 37 5a
        E 0 9c 37 64
        E 0 9f 3f 5b
        E 0 8c 37 64
        E 0 8f 3f 66
        E 0 9c 35 64
        E 0 9f 3e 5a
        E 0 8f 3e 64
        E 0 9f 3f 5b
        E 0 82 43 64
        E 0 83 37 64
        E 0 8c 35 64
        E 0 8f 3f 66
        E 0 92 43 64
        E 0 93 37 5a
        E 0 9c 33 66
        E 0 9f 3a 5b
        E 0 8f 3a 66
        E 0 9f 38 5b
        E 0 8f 38 66
        E 1 9f 3a 5b
        E 0 82 43 64
        E 0 83 37 64
        E 0 8c 33 66
        E 0 8f 3a 66
        E 0 9f 37 5a
        E 0 8f 37 64
        E 0 9f 35 5a
        E 0 8f 35 64
        E 0 9f 33 5b
        E 0 8f 33 66
        E 0 92 4a 64
        E 0 93 41 5a
        E 0 9c 38 66
        E 0 9f 2e 5b
        E 0 82 4a 64
        E 0 83 41 64
        E 0 8f 2e 66
        E 0 92 4a 64
        E 0 93 41 5a
        E 0 9f 2e 5b
        E 0 82 4a 64
        E 0 83 41 64
        E 0 8f 2e 66
        E 0 92 4a 64
        E 0 93 41 5a
        E 0 9f 2e 5b
        E 0 82 4a 64
        E 0 83 41 64
        E 0 92 4a 64
        E 0 93 41 5a
        E 0 82 4a 64
        E 0 83 41 64
        E 0 8f 2e 66
        E 0 92 4d 64
        E 0 93 46 5b
        E 0 82 4d 64
        E 0 83 46 66
        E 0 92 52 66
        E 0 93 4a 5a
        E 0 82 52 66
        E 0 83 4a 64
        E 0 8c 38 66
        E 0 92 4a 64
        E 0 93 41 5a
        E 0 9c 38 66
        E 0 9f 2e 5b
        E 0 82 4a 64
        E 0 83 41 64
        E 0 8f 2e 66
        E 0 92 4a 64
        E 0 93 41 5a
        E 0 9f 2e 5b
        E 0 82 4a 64
        E 0 83 41 64
        E 0 8f 2e 66
        E 0 92 4a 64
        E 0 93 41 5a
        E 0 9f 2e 5b
        E 0 82 4a 64
        E 0 83 41 64
        E 0 92 4a 64
        E 0 93 41 5a
        E 0 82 4a 64
        E 0 83 41 64
        E 0 8c 38 66
        E 0 8f 2e 66
        E 0 92 4d 64
        E 0 93 46 5b
        E 0 9c 38 66
        E 0 82 4d 64
        E 0 83 46 66
        E 0 92 52 66
        E 0 93 4a 5a
        E 0 82 52 66
        E 0 83 4a 64
        E 0 8c 38 66
        E 0 92 4a 64
        E 0 93 41 5a
        E 0 9c 38 66
        E 0 9f 2e 5b
        E 0 82 4a 64
        E 0 83 41 64
        E 0 8f 2e 66
        E 0 92 4a 64
        E 0 93 41 5a
        E 0 9f 2e 5b
        E 0 82 4a 64
        E 0 83 41 64
        E 0 8c 38 66
        E 0 8f 2e 66
        E 0 92 4a 64
        E 0 93 41 5a
        E 0 9c 41 64
        E 1 9f 2e 5b
        E 0 82 4a 64
        E 0 83 41 64
        E 0 92 4a 64
        E 0 93 41 5a
        E 0 82 4a 64
        E 0 83 41 64
        E 0 8c 41 64
        E 0 8f 2e 66
        E 0 92 4d 64
        E 0 93 46 5b
        E 0 9c 38 66
        E 0 82 4d 64
        E 0 83 46 66
        E 0 92 52 66
        E 0 93 4a 5a
        E 0 82 52 66
        E 0 83 4a 64
        E 0 8c 38 66
        E 0 92 4d 64
        E 0 93 46 5b
        E 0 9c 38 66
        E 0 9f 3a 5b
        E 0 8f 3a 66
        E 0 9f 38 5b
        E 0 8f 38 66
        E 0 9f 3a 5b
        E 0 82 4d 64
        E 0 83 46 66
        E 0 8c 38 66
        E 0 8f 3a 66
        E 0 92 4f 64
        E 0 93 46 5b
        E 0 9c 37 64
        E 0 9f 3f 5b
        E 0 8f 3f 66
        E 0 9f 3e 5a
        E 0 8f 3e 64
        E 0 9f 3f 5b
        E 0 82 4f 64
        E 0 83 46 66
        E 0 8c 37 64
        E 0 8f 3f 66
        E 0 9f 37 5a
        E 0 8f 37 64
        E 0 9f 35 5a
        E 0 8f 35 64
        E 0 9f 37 5a
        E 0 8f 37 64
        E 0 92 3f 66
        E 0 93 3f 5b
        E 0 9c 33 66
        E 0 9f 33 5b
        E 0 82 3f 66
        E 0 83 3f 66
        E 0 8c 33 66
        E 0 8f 33 66
        E 0 92 43 64
        E 0 93 43 5a
        E 0 9c 37 64
        E 0 9f 37 5a
        E 0 82 43 64
        E 0 83 43 64
        E 0 8c 37 64
        E 0 8f 37 64
        E 0 92 46 66
        E 1 93 46 5b
        E 0 9c 3a 66
        E 0 9f 3a 5b
        E 0 82 46 66
        E 0 83 46 66
        E 0 8c 3a 66
        E 0 8f 3a 66
        E 0 92 4b 66
        E 0 93 3f 5b
        E 0 9c 3f 66
        E 0 9f 3f 5b
        E 0 82 4b 66
        E 0 83 3f 66
        E 0 8c 3f 66
        E 0 8f 3f 66
        E 0 92 4d 64
        E 0 93 41 5a
        E 0 9c 41 64
        E 0 9f 41 5a
        E 0 82 4d 64
        E 0 83 41 64
        E 0 8c 41 64
        E 0 8f 41 64
        E 0 92 4f 64
        E 0 93 43 5a
        E 0 9c 43 64
        E 0 9f 43 5a
        E 0 82 4f 64
        E 0 83 43 64
        E 0 8c 43 64
        E 0 8f 43 64
        E 0 92 45 64
        E 0 93 45 5a
        E 0 9c 39 64
        E 0 9f 39 5a
        E 0 8c 39 64
        E 0 8f 39 64
        E 0 9c 37 64
        E 0 9f 35 5a
        E 0 82 45 64
        E 0 83 45 64
        E 0 8c 37 64
        E 0 8f 35 64
        E 0 92 41 64
        E 0 93 41 5a
        E 0 9c 35 64
        E 0 9f 35 5a
        E 0 8f 35 64
        E 0 9f 35 5a
        E 0 82 41 64
        E 0 83 41 64
        E 0 8c 35 64
        E 0 8f 35 64
        E 1 9f 35 5a
        E 0 8f 35 64
        E 0 9f 35 5a
        E 0 8f 35 64
        E 0 93 41 5a
        E 0 9c 3a 66
        E 0 9f 35 5a
        E 0 83 41 64
        E 0 8f 35 64
        E 0 93 41 5a
        E 0 9f 35 5a
        E 0 83 41 64
        E 0 8c 3a 66
        E 0 8f 35 64
        E 0 93 41 5a
        E 0 9c 3a 66
        E 0 9f 35 5a
        E 0 83 41 64
        E 0 8f 35 64
        E 0 93 41 5a
        E 0 9f 35 5a
        E 0 83 41 64
        E 0 8c 3a 66
        E 0 8f 35 64
        E 0 93 41 5a
        E 0 9c 3a 66
        E 0 9f 35 5a
        E 0 83 41 64
        E 0 8f 35 64
        E 0 93 41 5a
        E 0 9f 35 5a
        E 0 83 41 64
        E 0 8c 3a 66
        E 0 8f 35 64
        E 0 92 48 64
        E 0 93 41 5a
        E 0 9c 3a 66
        E 0 9f 35 5a
        E 0 82 48 64
        E 0 83 41 64
        E 0 8f 35 64
        E 0 92 48 64
        E 0 93 41 5a
        E 0 9f 35 5a
        E 0 82 48 64
        E 0 83 41 64
        E 0 8c 3a 66
        E 0 8f 35 64
        E 0 92 48 64
        E 0 93 41 5a
        E 0 9c 39 64
        E 0 9f 35 5a
        E 0 82 48 64
        E 0 83 41 64
        E 0 8f 35 64
        E 0 92 48 64
        E 0 93 41 5a
        E 0 9f 35 5a
        E 0 82 48 64
        E 0 83 41 64
        E 0 8c 39 64
        E 0 8f 35 64
        E 0 92 4d 64
        E 0 93 41 5a
        E 0 9f 35 5a
        E 0 82 4d 64
        E 0 83 41 64
        E 0 8f 35 64
        E 0 92 51 64
        E 0 93 41 5a
        E 0 9f 35 5a
        E 0 82 51 64
        E 0 83 41 64
        E 0 8f 35 64
        E 0 92 48 64
        E 0 93 41 5a
        E 0 9c 3e 64
        E 0 9f 35 5a
        E 0 82 48 64
        E 0 83 41 64
        E 0 8f 35 64
        E 0 92 48 64
        E 0 93 41 5a
        E 0 9f 35 5a
        E 0 82 48 64
        E 0 83 41 64
        E 0 8c 3e 64
        E 0 8f 35 64
        E 0 92 46 66
        E 0 93 41 5a
        E 0 9c 3e 64
        E 0 9f 35 5a
        E 0 82 46 66
        E 0 83 41 64
        E 0 8f 35 64
        E 0 92 46 66
        E 0 93 41 5a
        E 1 9f 35 5a
        E 0 82 46 66
        E 0 83 41 64
        E 0 8c 3e 64
        E 0 8f 35 64
        E 0 92 46 66
        E 0 93 41 5a
        E 0 9c 3e 64
        E 0 9f 35 5a
        E 0 82 46 66
        E 0 83 41 64
        E 0 8f 35 64
        E 0 92 46 66
        E 0 93 41 5a
        E 0 9f 35 5a
        E 0 82 46 66
        E 0 83 41 64
        E 0 8c 3e 64
        E 0 8f 35 64
        E 0 92 4b 66
        E 0 93 41 5a
        E 0 9c 3e 64
        E 0 9f 35 5a
        E 0 82 4b 66
        E 0 83 41 64
        E 0 8f 35 64
        E 0 92 4b 66
        E 0 93 41 5a
        E 0 9f 35 5a
        E 0 82 4b 66
        E 0 83 41 64
        E 0 8c 3e 64
        E 0 8f 35 64
        E 0 92 4b 66
        E 0 93 41 5a
        E 0 9c 3c 64
        E 0 9f 35 5a
        E 0 82 4b 66
        E 0 83 41 64
        E 0 8f 35 64
        E 0 92 4b 66
        E 0 93 41 5a
        E 0 9f 35 5a
        E 0 82 4b 66
        E 0 83 41 64
        E 0 8c 3c 64
        E 0 8f 35 64
        E 0 92 45 64
        E 0 93 41 5a
        E 0 9f 35 5a
        E 0 82 45 64
        E 0 83 41 64
        E 0 8f 35 64
        E 0 92 45 64
        E 0 93 41 5a
        E 0 9f 35 5a
        E 0 82 45 64
        E 0 83 41 64
        E 0 8f 35 64
        E 0 92 4d 64
        E 0 92 3e 64
        E 0 92 46 66
        E 0 93 3a 5b
        E 0 9c 3a 66
        E 0 9f 2e 5b
        E 0 82 4d 64
        E 0 92 4d 64
        E 0 82 3e 64
        E 0 82 46 66
        E 0 82 4d 64
        E 0 83 3a 66
        E 0 8c 3a 66
        E 0 8f 2e 66
        E 0 92 4d 64
        E 0 92 3e 64
        E 0 92 46 66
        E 0 93 3c 5a
        E 0 9c 35 64
        E 0 9f 30 5a
        E 0 82 4d 64
        E 0 92 4d 64
        E 0 82 3e 64
        E 0 82 46 66
        E 0 82 4d 64
        E 0 83 3c 64
        E 0 8c 35 64
        E 0 8f 30 64
        E 0 92 4d 64
        E 0 92 3e 64
        E 0 92 46 66
        E 0 93 3e 5a
        E 1 9c 32 64
        E 0 9f 32 5a
        E 0 82 4d 64
        E 0 92 4d 64
        E 0 82 3e 64
        E 0 82 46 66
        E 0 82 4d 64
        E 0 83 3e 64
        E 0 8c 32 64
        E 0 8f 32 64
        E 0 92 4f 64
        E 0 92 3f 66
        E 0 92 46 66
        E 0 93 3f 5b
        E 0 9c 33 66
        E 0 9f 33 5b
        E 0 82 4f 64
        E 0 82 3f 66
        E 0 82 46 66
        E 0 83 3f 66
        E 0 8c 33 66
        E 0 8f 33 66
        E 0 92 48 64
        E 0 93 41 5a
        E 0 9c 3c 64
        E 0 9f 35 5a
        E 0 83 41 64
        E 0 8f 35 64
        E 0 93 35 5a
        E 0 9f 29 5a
        E 0 82 48 64
        E 0 83 35 64
        E 0 8c 3c 64
        E 0 8f 29 64
        E 0 92 4d 64
        E 0 92 3e 64
        E 0 92 46 66
        E 0 93 3e 5a
        E 0 9c 3a 66
        E 0 9f 32 5a
        E 0 82 4d 64
        E 0 92 4d 64
        E 0 82 3e 64
        E 0 82 46 66
        E 0 82 4d 64
        E 0 83 3e 64
        E 0 8c 3a 66
        E 0 8f 32 64
        E 0 92 4d 64
        E 0 92 3e 64
        E 0 92 46 66
        E 0 93 3f 5b
        E 0 9c 35 64
        E 0 9f 33 5b
        E 0 82 4d 64
        E 0 92 4d 64
        E 0 82 3e 64
        E 0 82 46 66
        E 0 82 4d 64
        E 0 83 3f 66
        E 0 8c 35 64
        E 0 8f 33 66
        E 0 92 4d 64
        E 1 92 3e 64
        E 0 92 46 66
        E 0 93 41 5a
        E 0 9c 32 64
        E 0 9f 35 5a
        E 0 82 4d 64
        E 0 92 4d 64
        E 0 82 3e 64
        E 0 82 46 66
        E 0 82 4d 64
        E 0 83 41 64
        E 0 8c 32 64
        E 0 8f 35 64
        E 0 92 4f 64
        E 0 92 3f 66
        E 0 92 46 66
        E 0 93 3f 5b
        E 0 9c 33 66
        E 0 9f 33 5b
        E 0 82 4f 64
        E 0 82 3f 66
        E 0 82 46 66
        E 0 83 3f 66
        E 0 8c 33 66
        E 0 8f 33 66
        E 0 92 48 64
        E 0 93 41 5a
        E 0 9c 3c 64
        E 0 9f 35 5a
        E 0 83 41 64
        E 0 8f 35 64
        E 0 93 35 5a
        E 0 9f 29 5a
        E 0 82 48 64
        E 0 83 35 64
        E 0 8c 3c 64
        E 0 8f 29 64
        E 0 92 4d 64
        E 0 92 3e 64
        E 0 92 46 66
        E 0 93 3a 5b
        E 0 9c 3a 66
        E 0 9f 2e 5b
        E 0 82 4d 64
        E 0 92 4d 64
        E 0 82 3e 64
        E 0 82 46 66
        E 0 82 4d 64
        E 0 83 3a 66
        E 0 8f 2e 66
        E 0 92 4d 64
        E 0 92 3e 64
        E 0 92 46 66
        E 0 93 46 5b
        E 0 9f 3a 5b
        E 0 82 4d 64
        E 0 92 4d 64
        E 0 82 3e 64
        E 0 82 46 66
        E 0 82 4d 64
        E 0 83 46 66
        E 0 8c 3a 66
        E 0 8f 3a 66
        E 0 92 4d 64
        E 0 92 3e 64
        E 0 92 46 66
        E 0 93 3a 5b
        E 1 9f 2e 5b
        E 0 82 4d 64
        E 0 92 4d 64
        E 0 82 3e 64
        E 0 82 46 66
        E 0 82 4d 64
        E 0 83 3a 66
        E 0 8f 2e 66
        E 0 92 4f 64
        E 0 92 3f 66
        E 0 92 46 66
        E 0 93 33 5b
        E 0 9f 27 5b
        E 0 82 4f 64
        E 0 92 4f 64
        E 0 82 3f 66
        E 0 82 46 66
        E 0 82 4f 64
        E 0 83 33 66
        E 0 8f 27 66
        E 0 92 4f 64
        E 0 92 3f 66
        E 0 92 46 66
        E 0 93 3f 5b
        E 0 9f 33 5b
        E 0 82 4f 64
        E 0 92 4f 64
        E 0 82 3f 66
        E 0 82 46 66
        E 0 82 4f 64
        E 0 83 3f 66
        E 0 8f 33 66
        E 0 92 51 64
        E 0 92 3f 66
        E 0 92 48 64
        E 0 93 41 5a
        E 0 9f 35 5a
        E 0 82 51 64
        E 0 92 51 64
        E 0 82 3f 66
        E 0 82 48 64
        E 0 82 51 64
        E 0 83 41 64
        E 0 8f 35 64
        E 0 92 52 66
        E 0 93 3a 5b
        E 0 9f 2e 5b
        E 0 82 52 66
        E 0 92 51 64
        E 0 82 51 64
        E 0 92 4f 64
        E 0 82 4f 64
        E 0 83 3a 66
        E 0 8f 2e 66
        E 0 92 4d 64
        E 0 93 3e 5a
        E 0 9f 32 5a
        E 0 82 4d 64
        E 0 92 4b 66
        E 0 82 4b 66
        E 0 92 4a 64
        E 0 82 4a 64
        E 0 92 48 64
        E 0 82 48 64
        E 0 83 3e 64
        E 0 8f 32 64
        E 0 92 46 66
        E 0 93 41 5a
        E 0 9f 35 5a
        E 0 82 46 66
        E 0 92 45 64
        E 0 82 45 64
        E 0 83 41 64
        E 0 8f 35 64
        E 0 92 46 66
        E 0 93 46 5b
        E 0 9f 3a 5b
        E 0 82 46 66
        E 0 83 46 66
        E 0 8f 3a 66
        E 0 92 41 64
        E 0 93 41 5a
        E 0 9f 35 5a
        E 0 82 41 64
        E 0 83 41 64
        E 0 8f 35 64
        E 1 92 3a 66
        E 0 93 3a 5b
        E 0 9f 2e 5b
        E 0 82 3a 66
        E 0 83 3a 66
        E 0 8f 2e 66
        E 0 9c 3a 66
        E 0 9f 2e 5b
        E 0 8f 2e 66
        E 0 92 41 64
        E 0 93 3a 5b
        E 0 9f 2e 5b
        E 0 82 41 64
        E 0 83 3a 66
        E 0 8f 2e 66
        E 0 92 41 64
        E 0 93 3a 5b
        E 0 9f 2e 5b
        E 0 82 41 64
        E 0 83 3a 66
        E 0 92 41 64
        E 0 93 3a 5b
        E 0 82 41 64
        E 0 83 3a 66
        E 0 8f 2e 66
        E 0 92 46 66
        E 0 93 3e 5a
        E 0 82 46 66
        E 0 83 3e 64
        E 0 92 4a 64
        E 0 93 41 5a
        E 0 82 4a 64
        E 0 83 41 64
        E 0 8c 3a 66
        E 0 92 41 64
        E 0 93 3a 5b
        E 0 9c 3e 64
        E 0 9f 2e 5b
        E 0 82 41 64
        E 0 83 3a 66
        E 0 8f 2e 66
        E 0 92 41 64
        E 0 93 3a 5b
        E 0 9f 2e 5b
        E 38404 82 41 64
        E 0 83 3a 66
        E 0 8f 2e 66
        E 0 92 41 64
        E 0 93 3a 5b
        E 0 9f 2e 5b
        E 0 82 41 64
        E 0 83 3a 66
        E 0 92 41 64
        E 1 93 3a 5b
        E 0 82 41 64
        E 0 83 3a 66
        E 0 8f 2e 66
        E 0 92 46 66
        E 0 93 3e 5a
        E 0 82 46 66
        E 0 83 3e 64
        E 0 92 4a 64
        E 0 93 41 5a
        E 0 82 4a 64
        E 0 83 41 64
        E 0 8c 3e 64
        E 0 92 41 64
        E 0 93 3a 5b
        E 0 9c 41 64
        E 0 9f 2e 5b
        E 0 82 41 64
        E 0 83 3a 66
        E 0 8f 2e 66
        E 0 92 41 64
        E 0 93 3a 5b
        E 0 9f 2e 5b
        E 0 82 41 64
        E 0 83 3a 66
        E 0 8c 41 64
        E 0 8f 2e 66
        E 0 92 41 64
        E 0 93 3a 5b
        E 0 9c 38 66
        E 0 9f 2e 5b
        E 0 82 41 64
        E 0 83 3a 66
        E 0 92 41 64
        E 0 93 3a 5b
        E 0 82 41 64
        E 0 83 3a 66
        E 0 8c 38 66
        E 0 8f 2e 66
        E 0 92 46 66
        E 0 93 3e 5a
        E 0 9c 35 64
        E 0 82 46 66
        E 0 83 3e 64
        E 0 92 4a 64
        E 0 93 41 5a
        E 0 82 4a 64
        E 0 83 41 64
        E 0 8c 35 64
        E 0 92 46 66
        E 0 93 3f 5b
        E 0 9c 37 64
        E 0 9f 3f 5b
        E 0 8c 37 64
        E 0 8f 3f 66
        E 0 9c 35 64
        E 0 9f 3e 5a
        E 0 8f 3e 64
        E 0 9f 3f 5b
        E 0 82 46 66
        E 0 83 3f 66
        E 0 8c 35 64
        E 0 8f 3f 66
        E 0 92 3f 66
        E 0 93 3f 5b
        E 0 9c 33 66
        E 0 9f 3a 5b
        E 0 8f 3a 66
        E 0 9f 38 5b
        E 0 8f 38 66
        E 0 9f 3a 5b
        E 0 82 3f 66
        E 0 83 3f 66
        E 0 8c 33 66
        E 0 8f 3a 66
        E 0 9f 37 5a
        E 0 8f 37 64
        E 0 9f 35 5a
        E 0 8f 35 64
        E 0 9f 37 5a
        E 0 8f 37 64
        E 1 92 52 66
        E 0 93 3f 5b
        E 0 9c 3a 66
        E 0 9f 33 5b
        E 0 92 50 66
        E 0 82 52 66
        E 0 83 3f 66
        E 0 93 3f 5b
        E 0 92 52 66
        E 0 82 50 66
        E 0 83 3f 66
        E 0 8c 3a 66
        E 0 8f 33 66
        E 0 92 4f 64
        E 0 93 3f 5b
        E 0 9c 33 66
        E 0 9f 35 5a
        E 0 82 52 66
        E 0 92 4d 64
        E 0 82 4f 64
        E 0 83 3f 66
        E 0 93 3f 5b
        E 0 92 4f 64
        E 0 82 4d 64
        E 0 83 3f 66
        E 0 8c 33 66
        E 0 8f 35 64
        E 0 92 4b 66
        E 0 93 3f 5b
        E 0 9c 33 66
        E 0 9f 37 5a
        E 0 82 4f 64
        E 0 92 4a 64
        E 0 82 4b 66
        E 0 83 3f 66
        E 0 93 3f 5b
        E 1 92 4b 66
        E 0 82 4a 64
        E 0 83 3f 66
        E 0 8c 33 66
        E 0 8f 37 64
        E 0 92 46 66
        E 0 93 3f 5b
        E 0 9c 33 66
        E 0 9f 33 5b
        E 0 82 4b 66
        E 0 92 44 66
        E 0 82 46 66
        E 0 83 3f 66
        E 0 93 3f 5b
        E 0 92 46 66
        E 0 82 44 66
        E 0 83 3f 66
        E 0 8c 33 66
        E 0 8f 33 66
        E 0 92 43 64
        E 0 93 3f 5b
        E 0 9c 3a 66
        E 0 9f 35 5a
        E 0 82 46 66
        E 0 92 41 64
        E 0 82 43 64
        E 0 83 3f 66
        E 0 93 3f 5b
        E 0 92 43 64
        E 0 82 41 64
        E 0 83 3f 66
        E 0 8c 3a 66
        E 0 8f 35 64
        E 0 92 3f 66
        E 0 93 3f 5b
        E 0 9c 33 66
        E 0 9f 37 5a
        E 0 82 43 64
        E 0 92 3e 64
        E 0 82 3f 66
        E 0 83 3f 66
        E 0 93 3f 5b
        E 0 92 3f 66
        E 0 82 3e 64
        E 0 83 3f 66
        E 0 8c 33 66
        E 0 8f 37 64
        E 0 92 38 66
        E 0 93 3f 5b
        E 0 9c 33 66
        E 0 9f 38 5b
        E 0 82 3f 66
        E 0 8c 33 66
        E 0 8f 38 66
        E 1 9c 32 64
        E 0 9f 37 5a
        E 0 8f 37 64
        E 0 9f 38 5b
        E 0 8c 32 64
        E 0 8f 38 66
        E 0 9c 33 66
        E 0 9f 33 5b
        E 0 8f 33 66
        E 0 9f 32 5a
        E 0 8f 32 64
        E 0 9f 33 5b
        E 0 82 38 66
        E 0 83 3f 66
        E 0 8c 33 66
        E 0 8f 33 66
        E 0 9f 30 5a
        E 0 8f 30 64
        E 0 9f 2e 5b
        E 0 8f 2e 66
        E 0 9f 2c 5b
        E 0 8f 2c 66
        E 0 92 54 64
        E 0 93 41 5a
        E 0 9c 3c 64
        E 0 9f 35 5a
        E 0 92 52 66
        E 0 82 54 64
        E 0 83 41 64
        E 0 93 41 5a
        E 0 92 54 64
        E 0 82 52 66
        E 0 83 41 64
        E 0 8c 3c 64
        E 0 8f 35 64
        E 0 92 51 64
        E 0 93 41 5a
        E 0 9c 35 64
        E 0 9f 37 5a
        E 0 82 54 64
        E 0 92 4f 64
        E 0 82 51 64
        E 0 83 41 64
        E 0 93 41 5a
        E 0 92 51 64
        E 0 82 4f 64
        E 0 83 41 64
        E 0 8c 35 64
        E 0 8f 37 64
        E 0 92 4d 64
        E 0 93 41 5a
        E 0 9c 35 64
        E 0 9f 39 5a
        E 0 82 51 64
        E 0 92 4b 66
        E 0 82 4d 64
        E 0 83 41 64
        E 0 93 41 5a
        E 0 92 4d 64
        E 0 82 4b 66
        E 0 83 41 64
        E 0 8c 35 64
        E 0 8f 39 64
        E 0 92 48 64
        E 0 93 41 5a
        E 1 9c 35 64
        E 0 9f 35 5a
        E 0 82 4d 64
        E 0 92 46 66
        E 0 82 48 64
        E 0 83 41 64
        E 0 93 41 5a
        E 0 92 48 64
        E 0 82 46 66
        E 0 83 41 64
        E 0 8c 35 64
        E 0 8f 35 64
        E 0 92 45 64
        E 0 93 41 5a
        E 0 9c 3c 64
        E 0 9f 37 5a
        E 0 82 48 64
        E 0 92 43 64
        E 0 82 45 64
        E 0 83 41 64
        E 0 93 41 5a
        E 0 92 45 64
        E 0 82 43 64
        E 0 83 41 64
        E 1 8c 3c 64
        E 0 8f 37 64
        E 0 92 41 64
        E 0 93 41 5a
        E 0 9c 35 64
        E 0 9f 39 5a
        E 0 82 45 64
        E 0 92 3f 66
        E 0 82 41 64
        E 0 83 41 64
        E 0 93 41 5a
        E 0 92 41 64
        E 0 82 3f 66
        E 0 83 41 64
        E 0 8c 35 64
        E 0 8f 39 64
        E 0 92 3a 66
        E 0 93 41 5a
        E 0 9c 35 64
        E 0 9f 3a 5b
        E 0 82 41 64
        E 0 8c 35 64
        E 0 8f 3a 66
        E 0 9c 33 66
        E 0 9f 39 5a
        E 0 8f 39 64
        E 0 9f 3a 5b
        E 0 8c 33 66
        E 0 8f 3a 66
        E 0 9c 35 64
        E 0 9f 35 5a
        E 0 8f 35 64
        E 0 9f 33 5b
        E 0 8f 33 66
        E 0 9f 35 5a
        E 0 82 3a 66
        E 0 83 41 64
        E 0 8c 35 64
        E 0 8f 35 64
        E 0 9f 32 5a
        E 0 8f 32 64
        E 0 9f 30 5a
        E 0 8f 30 64
        E 0 9f 32 5a
        E 0 8f 32 64
        E 0 92 3a 66
        E 0 93 3a 5b
        E 0 9c 2e 66
        E 1 9f 2e 5b
        E 0 82 3a 66
        E 0 83 3a 66
        E 0 8c 2e 66
        E 0 8f 2e 66
        E 0 92 3e 64
        E 0 93 3e 5a
        E 0 9c 32 64
        E 0 9f 32 5a
        E 0 82 3e 64
        E 0 83 3e 64
        E 0 8c 32 64
        E 0 8f 32 64
        E 0 92 41 64
        E 0 93 41 5a
        E 0 9c 35 64
        E 0 9f 35 5a
        E 0 82 41 64
        E 0 83 41 64
        E 0 8c 35 64
        E 0 8f 35 64
        E 0 92 46 66
        E 0 93 46 5b
        E 0 9c 3a 66
        E 0 9f 3a 5b
        E 0 82 46 66
        E 0 83 46 66
        E 0 8c 3a 66
        E 0 8f 3a 66
        E 0 92 48 64
        E 0 93 48 5a
        E 0 9c 3c 64
        E 0 9f 3c 5a
        E 0 82 48 64
        E 0 83 48 64
        E 0 8c 3c 64
        E 0 8f 3c 64
        E 0 92 4a 64
        E 0 93 4a 5a
        E 0 9c 3e 64
        E 0 9f 3e 5a
        E 0 82 4a 64
        E 0 83 4a 64
        E 0 8c 3e 64
        E 0 8f 3e 64
        E 0 92 4b 66
        E 0 93 4b 5b
        E 0 9c 3f 66
        E 0 9f 3f 5b
        E 0 82 4b 66
        E 0 83 4b 66
        E 0 8c 3f 66
        E 0 8f 3f 66
        E 0 93 3f 5b
        E 0 9c 33 66
        E 0 9f 33 5b
        E 0 83 3f 66
        E 0 8f 33 66
        E 0 93 3f 5b
        E 0 9f 33 5b
        E 0 83 3f 66
        E 0 8c 33 66
        E 0 8f 33 66
        E 0 93 3e 5a
        E 0 9f 32 5a
        E 0 83 3e 64
        E 0 8f 32 64
        E 0 93 3c 5a
        E 0 9f 30 5a
        E 0 83 3c 64
        E 0 8f 30 64
        E 0 93 3a 5b
        E 0 9c 33 66
        E 0 9f 2e 5b
        E 0 83 3a 66
        E 0 8f 2e 66
        E 0 93 3a 5b
        E 0 9f 2e 5b
        E 0 83 3a 66
        E 0 8c 33 66
        E 0 8f 2e 66
        E 0 93 3a 5b
        E 0 9c 33 66
        E 0 9f 2e 5b
        E 0 83 3a 66
        E 0 8f 2e 66
        E 0 93 3a 5b
        E 0 9f 2e 5b
        E 0 83 3a 66
        E 0 8c 33 66
        E 0 8f 2e 66
        E 0 93 3a 5b
        E 0 9c 33 66
        E 0 9f 2e 5b
        E 0 83 3a 66
        E 0 8f 2e 66
        E 0 93 3a 5b
        E 0 9f 2e 5b
        E 0 83 3a 66
        E 0 8c 33 66
        E 0 8f 2e 66
        E 0 92 41 64
        E 0 93 3a 5b
        E 1 9c 33 66
        E 0 9f 2e 5b
        E 0 82 41 64
        E 0 83 3a 66
        E 0 8f 2e 66
        E 0 92 41 64
        E 0 93 3a 5b
        E 0 9f 2e 5b
        E 0 82 41 64
        E 0 83 3a 66
        E 0 8c 33 66
        E 0 8f 2e 66
        E 0 92 41 64
        E 0 93 3a 5b
        E 0 9c 32 64
        E 0 9f 2e 5b
        E 0 82 41 64
        E 0 83 3a 66
        E 0 8f 2e 66
        E 0 92 41 64
        E 0 93 3a 5b
        E 0 9f 2e 5b
        E 0 82 41 64
        E 0 83 3a 66
        E 0 8c 32 64
        E 0 8f 2e 66
        E 0 92 46 66
        E 0 93 3a 5b
        E 0 9f 2e 5b
        E 0 82 46 66
        E 0 83 3a 66
        E 0 8f 2e 66
        E 0 92 4a 64
        E 0 93 3a 5b
        E 0 9f 2e 5b
        E 0 82 4a 64
        E 0 83 3a 66
        E 0 8f 2e 66
        E 0 92 41 64
        E 0 93 3a 5b
        E 0 9c 37 64
        E 0 9f 2e 5b
        E 0 82 41 64
        E 0 83 3a 66
        E 0 8f 2e 66
        E 0 92 41 64
        E 0 93 3a 5b
        E 0 9f 2e 5b
        E 0 82 41 64
        E 0 83 3a 66
        E 0 8c 37 64
        E 0 8f 2e 66
        E 0 92 41 64
        E 0 93 3a 5b
        E 0 9c 37 64
        E 0 9f 2e 5b
        E 0 82 41 64
        E 0 83 3a 66
        E 0 8f 2e 66
        E 0 92 41 64
        E 0 93 3a 5b
        E 0 9f 2e 5b
        E 0 82 41 64
        E 0 83 3a 66
        E 0 8c 37 64
        E 0 8f 2e 66
        E 0 92 3f 66
        E 0 93 3a 5b
        E 0 9c 37 64
        E 0 9f 2e 5b
        E 0 82 3f 66
        E 0 83 3a 66
        E 0 8f 2e 66
        E 0 92 3f 66
        E 0 93 3a 5b
        E 0 9f 2e 5b
        E 0 82 3f 66
        E 0 83 3a 66
        E 0 8c 37 64
        E 0 8f 2e 66
        E 0 92 44 66
        E 0 93 3a 5b
        E 1 9c 37 64
        E 0 9f 2e 5b
        E 0 82 44 66
        E 0 83 3a 66
        E 0 8f 2e 66
        E 0 92 44 66
        E 0 93 3a 5b
        E 0 9f 2e 5b
        E 0 82 44 66
        E 0 83 3a 66
        E 0 8c 37 64
        E 0 8f 2e 66
        E 0 92 44 66
        E 0 93 3a 5b
        E 0 9c 35 64
        E 0 9f 2e 5b
        E 0 82 44 66
        E 0 83 3a 66
        E 0 8c 35 64
        E 0 8f 2e 66
        E 0 92 44 66
        E 0 93 3a 5b
        E 0 9c 33 66
        E 0 9f 2e 5b
        E 0 82 44 66
        E 0 83 3a 66
        E 0 8c 33 66
        E 0 8f 2e 66
        E 0 92 4a 64
        E 0 93 3a 5b
        E 0 9c 35 64
        E 0 9f 2e 5b
        E 0 82 4a 64
        E 0 83 3a 66
        E 0 8f 2e 66
        E 0 92 4d 64
        E 0 93 3a 5b
        E 0 9f 2e 5b
        E 0 82 4d 64
        E 0 83 3a 66
        E 0 8c 35 64
        E 0 8f 2e 66
        E 0 92 44 66
        E 0 93 3a 5b
        E 0 9c 3a 66
        E 0 9f 2e 5b
        E 0 82 44 66
        E 0 83 3a 66
        E 0 8f 2e 66
        E 0 92 44 66
        E 0 93 3a 5b
        E 0 9f 2e 5b
        E 0 82 44 66
        E 0 83 3a 66
        E 0 8c 3a 66
        E 0 8f 2e 66
        E 0 92 43 64
        E 0 93 3a 5b
        E 0 9c 3a 66
        E 0 9f 2e 5b
        E 0 82 43 64
        E 0 83 3a 66
        E 0 8f 2e 66
        E 0 92 43 64
        E 0 93 3a 5b
        E 0 9f 2e 5b
        E 0 82 43 64
        E 0 83 3a 66
        E 0 8c 3a 66
        E 0 8f 2e 66
        E 0 92 43 64
        E 0 93 3a 5b
        E 0 9c 3a 66
        E 0 9f 2e 5b
        E 0 82 43 64
        E 0 83 3a 66
        E 0 8f 2e 66
        E 0 92 43 64
        E 0 93 3a 5b
        E 0 9f 2e 5b
        E 0 82 43 64
        E 0 83 3a 66
        E 0 8c 3a 66
        E 0 8f 2e 66
        E 0 92 48 64
        E 0 93 3a 5b
        E 0 9c 3a 66
        E 0 9f 2e 5b
        E 0 82 48 64
        E 0 83 3a 66
        E 0 8f 2e 66
        E 0 92 48 64
        E 0 93 3a 5b
        E 1 9f 2e 5b
        E 0 82 48 64
        E 0 83 3a 66
        E 0 8c 3a 66
        E 0 8f 2e 66
        E 0 92 48 64
        E 0 93 3a 5b
        E 0 9c 38 66
        E 0 9f 2e 5b
        E 0 82 48 64
        E 0 83 3a 66
        E 0 8c 38 66
        E 0 8f 2e 66
        E 0 92 48 64
        E 0 93 3a 5b
        E 0 9c 37 64
        E 0 9f 2e 5b
        E 0 82 48 64
        E 0 83 3a 66
        E 0 8c 37 64
        E 0 8f 2e 66
        E 0 92 4d 64
        E 0 93 3a 5b
        E 0 9c 38 66
        E 0 9f 2e 5b
        E 0 82 4d 64
        E 0 83 3a 66
        E 0 8f 2e 66
        E 0 92 50 66
        E 0 93 3a 5b
        E 0 9f 2e 5b
        E 0 82 50 66
        E 0 83 3a 66
        E 0 8c 38 66
        E 0 8f 2e 66
        E 0 92 48 64
        E 0 93 3a 5b
        E 0 9c 38 66
        E 0 9f 2e 5b
        E 0 82 48 64
        E 0 83 3a 66
        E 0 8c 38 66
        E 0 8f 2e 66
        E 0 92 46 66
        E 0 93 3a 5b
        E 0 9c 3a 66
        E 0 9f 2e 5b
        E 0 82 46 66
        E 0 83 3a 66
        E 0 8c 3a 66
        E 0 8f 2e 66
        E 0 92 48 64
        E 0 93 3a 5b
        E 0 9c 3c 64
        E 0 9f 2e 5b
        E 0 82 48 64
        E 0 83 3a 66
        E 0 8c 3c 64
        E 0 8f 2e 66
        E 0 92 4a 64
        E 0 93 3a 5b
        E 0 9c 3e 64
        E 0 9f 2e 5b
        E 0 82 4a 64
        E 0 83 3a 66
        E 0 8c 3e 64
        E 0 8f 2e 66
        E 0 92 4b 66
        E 0 93 33 5b
        E 0 9c 3f 66
        E 0 9f 27 5b
        E 0 82 4b 66
        E 0 83 33 66
        E 0 8c 3f 66
        E 0 8f 27 66
        E 0 92 46 66
        E 0 92 37 64
        E 0 92 3f 66
        E 0 93 3f 5b
        E 0 9c 33 66
        E 0 9f 33 5b
        E 0 82 46 66
        E 0 92 46 66
        E 0 82 37 64
        E 0 82 3f 66
        E 0 82 46 66
        E 0 83 3f 66
        E 0 8c 33 66
        E 0 8f 33 66
        E 0 92 46 66
        E 0 92 37 64
        E 0 92 3f 66
        E 0 93 41 5a
        E 1 9c 37 64
        E 0 9f 35 5a
        E 0 82 46 66
        E 0 92 46 66
        E 0 82 37 64
        E 0 82 3f 66
        E 0 82 46 66
        E 0 83 41 64
        E 0 8c 37 64
        E 0 8f 35 64
        E 0 92 46 66
        E 0 92 37 64
        E 0 92 3f 66
        E 0 93 43 5a
        E 0 9c 3a 66
        E 0 9f 37 5a
        E 0 82 46 66
        E 0 92 46 66
        E 0 82 37 64
        E 0 82 3f 66
        E 0 82 46 66
        E 0 83 43 64
        E 0 8c 3a 66
        E 0 8f 37 64
        E 0 92 48 64
        E 0 92 38 66
        E 0 92 3f 66
        E 0 93 38 5b
        E 0 9c 3c 64
        E 0 9f 2c 5b
        E 0 82 48 64
        E 0 82 38 66
        E 0 82 3f 66
        E 0 83 38 66
        E 0 8c 3c 64
        E 0 8f 2c 66
        E 0 92 41 64
        E 0 93 3a 5b
        E 0 9c 35 64
        E 0 9f 2e 5b
        E 0 83 3a 66
        E 0 8f 2e 66
        E 0 93 3a 5b
        E 0 9f 2e 5b
        E 0 82 41 64
        E 0 83 3a 66
        E 0 8c 35 64
        E 0 8f 2e 66
        E 0 92 46 66
        E 0 92 37 64
        E 0 92 3f 66
        E 0 93 3f 5b
        E 0 9c 33 66
        E 0 9f 33 5b
        E 0 82 46 66
        E 0 92 46 66
        E 0 82 37 64
        E 0 82 3f 66
        E 0 82 46 66
        E 0 83 3f 66
        E 0 8c 33 66
        E 0 8f 33 66
        E 0 92 46 66
        E 0 92 37 64
        E 0 92 3f 66
        E 0 93 41 5a
        E 0 9c 37 64
        E 0 9f 35 5a
        E 0 82 46 66
        E 0 92 46 66
        E 0 82 37 64
        E 0 82 3f 66
        E 0 82 46 66
        E 0 83 41 64
        E 0 8c 37 64
        E 0 8f 35 64
        E 0 92 46 66
        E 1 92 37 64
        E 0 92 3f 66
        E 0 93 43 5a
        E 0 9c 3a 66
        E 0 9f 37 5a
        E 0 82 46 66
        E 0 92 46 66
        E 0 82 37 64
        E 0 82 3f 66
        E 0 82 46 66
        E 0 83 43 64
        E 0 8c 3a 66
        E 0 8f 37 64
        E 0 92 48 64
        E 0 92 38 66
        E 0 92 3f 66
        E 0 93 38 5b
        E 0 9c 3c 64
        E 0 9f 2c 5b
        E 0 82 48 64
        E 0 82 38 66
        E 0 82 3f 66
        E 0 83 38 66
        E 0 8c 3c 64
        E 0 8f 2c 66
        E 0 92 41 64
        E 2 93 3a 5b
        E 0 9c 35 64
        E 0 9f 2e 5b
        E 0 83 3a 66
        E 0 8f 2e 66
        E 0 93 3a 5b
        E 0 9f 2e 5b
        E 0 82 41 64
        E 1 83 3a 66
        E 0 8c 35 64
        E 0 8f 2e 66
        E 0 92 3f 66
        E 0 93 37 5a
        E 0 9c 33 66
        E 0 9f 33 5b
        E 0 82 3f 66
        E 0 92 52 66
        E 0 82 52 66
        E 0 83 37 64
        E 0 8f 33 66
        E 0 92 52 66
        E 0 93 3a 5b
        E 0 9f 33 5b
        E 0 82 52 66
        E 0 92 50 66
        E 0 82 50 66
        E 0 92 52 66
        E 0 82 52 66
        E 0 83 3a 66
        E 0 8c 33 66
        E 0 8f 33 66
        E 0 92 4f 64
        E 0 93 3a 5b
        E 0 9f 2e 5b
        E 0 82 4f 64
        E 0 92 4d 64
        E 0 82 4d 64
        E 0 92 4f 64
        E 0 82 4f 64
        E 0 83 3a 66
        E 0 8f 2e 66
        E 0 92 4c 64
        E 0 93 3a 5b
        E 0 9f 30 5a
        E 0 82 4c 64
        E 0 92 4a 64
        E 0 82 4a 64
        E 0 92 4c 64
        E 0 82 4c 64
        E 0 83 3a 66
        E 0 8f 30 64
        E 0 92 48 64
        E 0 93 3a 5b
        E 0 9f 30 5a
        E 0 82 48 64
        E 0 92 46 66
        E 0 82 46 66
        E 0 92 48 64
        E 0 82 48 64
        E 0 83 3a 66
        E 0 8f 30 64
        E 0 92 43 64
        E 0 93 3a 5b
        E 0 9f 30 5a
        E 0 82 43 64
        E 0 92 41 64
        E 0 82 41 64
        E 0 92 40 64
        E 0 82 40 64
        E 0 83 3a 66
        E 0 8f 30 64
        E 0 92 41 64
        E 0 93 3c 5a
        E 0 9f 35 5a
        E 0 82 41 64
        E 0 92 50 66
        E 0 82 50 66
        E 0 83 3c 64
        E 0 8f 35 64
        E 0 92 50 66
        E 0 93 3c 5a
        E 0 9f 35 5a
        E 0 82 50 66
        E 0 92 4f 64
        E 0 82 4f 64
        E 0 92 50 66
        E 0 82 50 66
        E 0 83 3c 64
        E 0 8f 35 64
        E 0 92 4d 64
        E 0 93 38 5b
        E 0 9f 2c 5b
        E 0 82 4d 64
        E 0 92 4b 66
        E 0 82 4b 66
        E 1 92 4d 64
        E 0 82 4d 64
        E 0 83 38 66
        E 0 8f 2c 66
        E 0 92 4a 64
        E 0 93 38 5b
        E 0 9f 2e 5b
        E 0 82 4a 64
        E 0 92 48 64
        E 0 82 48 64
        E 0 92 4a 64
        E 0 82 4a 64
        E 0 83 38 66
        E 0 8f 2e 66
        E 0 92 46 66
        E 0 93 38 5b
        E 0 9f 2e 5b
        E 0 82 46 66
        E 0 92 44 66
        E 0 82 44 66
        E 0 92 46 66
        E 0 82 46 66
        E 0 83 38 66
        E 0 8f 2e 66
        E 0 92 41 64
        E 0 93 38 5b
        E 0 9f 2e 5b
        E 0 82 41 64
        E 0 92 3f 66
        E 0 82 3f 66
        E 0 92 3e 64
        E 38403 82 3e 64
        E 0 83 38 66
        E 0 8f 2e 66
        E 0 92 3f 66
        E 0 93 3a 5b
        E 0 9f 33 5b
        E 0 82 3f 66
        E 0 83 3a 66
        E 0 8f 33 66
        E 0 92 3f 66
        E 0 93 37 5a
        E 0 9f 33 5b
        E 1 82 3f 66
        E 0 83 37 64
        E 0 8f 33 66
        E 0 92 3f 66
        E 0 93 37 5a
        E 0 9f 33 5b
        E 0 82 3f 66
        E 0 83 37 64
        E 0 8f 33 66
        E 0 92 3f 66
        E 0 93 37 5a
        E 0 9f 33 5b
        E 0 82 3f 66
        E 0 83 37 64
        E 0 8f 33 66
        E 0 92 43 64
        E 0 93 3a 5b
        E 0 9f 33 5b
        E 0 82 43 64
        E 0 83 3a 66
        E 0 8f 33 66
        E 0 92 46 66
        E 0 93 3f 5b
        E 0 9f 33 5b
        E 0 82 46 66
        E 0 83 3f 66
        E 0 8f 33 66
        E 0 92 3f 66
        E 0 93 37 5a
        E 0 9f 33 5b
        E 0 82 3f 66
        E 0 83 37 64
        E 0 8f 33 66
        E 0 92 3f 66
        E 0 93 37 5a
        E 0 9f 33 5b
        E 0 82 3f 66
        E 0 83 37 64
        E 0 8f 33 66
        E 0 92 3f 66
        E 0 93 37 5a
        E 0 9f 33 5b
        E 0 82 3f 66
        E 0 83 37 64
        E 0 8f 33 66
        E 0 92 3f 66
        E 0 93 37 5a
        E 0 9f 33 5b
        E 0 82 3f 66
        E 0 83 37 64
        E 0 8f 33 66
        E 0 92 43 64
        E 0 93 3a 5b
        E 0 9f 33 5b
        E 0 82 43 64
        E 0 83 3a 66
        E 0 8f 33 66
        E 0 92 46 66
        E 0 93 3f 5b
        E 0 9f 33 5b
        E 0 82 46 66
        E 0 83 3f 66
        E 0 8f 33 66
        E 0 92 46 66
        E 0 92 37 64
        E 0 92 3f 66
        E 0 93 43 5a
        E 0 9f 33 5b
        E 0 82 46 66
        E 0 92 46 66
        E 0 82 37 64
        E 0 82 3f 66
        E 0 82 46 66
        E 0 83 43 64
        E 0 8f 33 66
        E 0 92 46 66
        E 0 92 37 64
        E 0 92 3f 66
        E 0 93 44 5b
        E 0 9f 35 5a
        E 0 82 46 66
        E 0 92 46 66
        E 0 82 37 64
        E 0 82 3f 66
        E 0 82 46 66
        E 0 83 44 66
        E 0 8f 35 64
        E 0 92 46 66
        E 0 92 37 64
        E 0 92 3f 66
        E 1 93 46 5b
        E 0 9f 37 5a
        E 0 82 46 66
        E 0 92 46 66
        E 0 82 37 64
        E 0 82 3f 66
        E 0 82 46 66
        E 0 83 46 66
        E 0 8f 37 64
        E 0 92 48 64
        E 0 92 38 66
        E 0 92 3f 66
        E 0 93 3f 5b
        E 0 9f 38 5b
        E 0 82 48 64
        E 0 82 38 66
        E 0 82 3f 66
        E 0 92 4a 64
        E 0 8f 38 66
        E 0 9f 38 5b
        E 0 82 4a 64
        E 0 83 3f 66
        E 0 8f 38 66
        E 0 92 4b 66
        E 0 93 3f 5b
        E 0 9f 37 5a
        E 0 8f 37 64
        E 0 9f 35 5a
        E 0 82 4b 66
        E 0 83 3f 66
        E 0 8f 35 64
        E 0 92 3f 66
        E 0 93 3a 5b
        E 1 9f 33 5b
        E 0 82 3f 66
        E 0 92 41 64
        E 0 82 41 64
        E 0 83 3a 66
        E 0 8f 33 66
        E 0 92 41 64
        E 0 93 3a 5b
        E 0 9f 3a 5b
        E 0 83 3a 66
        E 0 8f 3a 66
        E 0 93 3a 5b
        E 0 9f 2e 5b
        E 0 82 41 64
        E 0 83 3a 66
        E 0 8f 2e 66
        E 0 92 46 66
        E 0 92 37 64
        E 0 92 3f 66
        E 0 93 43 5a
        E 0 9f 33 5b
        E 0 82 46 66
        E 0 92 46 66
        E 0 82 37 64
        E 0 82 3f 66
        E 0 82 46 66
        E 0 83 43 64
        E 0 8f 33 66
        E 0 92 46 66
        E 0 92 37 64
        E 0 92 3f 66
        E 0 93 44 5b
        E 0 9f 35 5a
        E 0 82 46 66
        E 0 92 46 66
        E 0 82 37 64
        E 0 82 3f 66
        E 0 82 46 66
        E 0 83 44 66
        E 0 8f 35 64
        E 0 92 46 66
        E 0 92 37 64
        E 0 92 3f 66
        E 0 93 46 5b
        E 0 9f 37 5a
        E 0 82 46 66
        E 0 92 46 66
        E 0 82 37 64
        E 0 82 3f 66
        E 0 82 46 66
        E 0 83 46 66
        E 0 8f 37 64
        E 0 92 48 64
        E 0 92 38 66
        E 0 92 3f 66
        E 0 93 3f 5b
        E 0 9f 38 5b
        E 0 82 48 64
        E 0 82 38 66
        E 0 82 3f 66
        E 0 92 4a 64
        E 0 8f 38 66
        E 0 9f 38 5b
        E 0 82 4a 64
        E 0 83 3f 66
        E 0 8f 38 66
        E 0 92 4b 66
        E 0 93 3f 5b
        E 0 9f 37 5a
        E 0 8f 37 64
        E 0 9f 35 5a
        E 0 82 4b 66
        E 0 83 3f 66
        E 0 8f 35 64
        E 0 92 3f 66
        E 0 93 3a 5b
        E 0 9f 33 5b
        E 0 82 3f 66
        E 0 92 41 64
        E 0 82 41 64
        E 0 83 3a 66
        E 0 8f 33 66
        E 0 92 41 64
        E 0 93 3a 5b
        E 0 9f 3a 5b
        E 0 83 3a 66
        E 0 8f 3a 66
        E 0 93 3a 5b
        E 0 9f 2e 5b
        E 0 82 41 64
        E 0 83 3a 66
        E 0 8f 2e 66
        E 0 92 3f 66
        E 1 93 37 5a
        E 0 9f 33 5b
        E 0 8f 33 66
        E 0 9f 38 5b
        E 0 8f 38 66
        E 0 9f 37 5a
        E 0 8f 37 64
        E 0 9f 35 5a
        E 0 82 3f 66
        E 0 83 37 64
        E 0 8f 35 64
        E 0 9c 37 64
        E 0 9f 33 5b
        E 0 8f 33 66
        E 0 9f 32 5a
        E 0 9c 3c 64
        E 0 9f 30 5a
        E 0 8c 37 64
        E 0 8f 32 64
        E 0 8c 3c 64
        E 0 9c 37 64
        E 0 8c 37 64
        E 0 9c 38 66
        E 0 8c 38 66
        E 0 8f 30 64
        E 0 9c 38 66
        E 0 9f 2f 5a
        E 0 8c 38 66
        E 0 9c 37 64
        E 0 8c 37 64
        E 0 9c 35 64
        E 0 8c 35 64
        E 0 9c 33 66
        E 0 8c 33 66
        E 0 9c 32 64
        E 0 8c 32 64
        E 0 8f 2f 64
        E 0 92 48 64
        E 0 93 3f 5b
        E 0 9c 33 66
        E 0 9f 30 5a
        E 0 8c 33 66
        E 0 8f 30 64
        E 0 9c 32 64
        E 0 9f 3c 5a
        E 0 82 48 64
        E 0 83 3f 66
        E 0 8c 32 64
        E 0 8f 3c 64
        E 0 9c 30 64
        E 0 9f 3e 5a
        E 0 8f 3e 64
        E 0 92 4b 66
        E 0 9f 3f 5b
        E 0 82 4b 66
        E 0 8c 30 64
        E 0 8f 3f 66
        E 0 92 4d 64
        E 0 9f 30 5a
        E 0 82 4d 64
        E 0 92 4f 64
        E 0 82 4f 64
        E 0 8f 30 64
        E 0 92 48 64
        E 0 93 3f 5b
        E 0 9c 37 64
        E 0 9f 30 5a
        E 0 8f 30 64
        E 0 9f 3c 5a
        E 0 82 48 64
        E 0 83 3f 66
        E 0 8c 37 64
        E 0 8f 3c 64
        E 0 9c 37 64
        E 0 9f 3e 5a
        E 0 8f 3e 64
        E 0 92 4b 66
        E 0 9f 3f 5b
        E 0 82 4b 66
        E 0 8c 37 64
        E 0 8f 3f 66
        E 0 92 4d 64
        E 0 9c 37 64
        E 0 9f 30 5a
        E 0 82 4d 64
        E 0 92 4f 64
        E 0 82 4f 64
        E 0 8c 37 64
        E 0 8f 30 64
        E 0 92 48 64
        E 0 93 3f 5b
        E 0 9c 3f 66
        E 0 9f 30 5a
        E 0 8f 30 64
        E 0 9f 3c 5a
        E 0 82 48 64
        E 0 83 3f 66
        E 0 8c 3f 66
        E 0 8f 3c 64
        E 0 9c 37 64
        E 1 9f 3e 5a
        E 0 8f 3e 64
        E 0 92 4b 66
        E 0 9f 3f 5b
        E 0 82 4b 66
        E 0 8f 3f 66
        E 0 92 4d 64
        E 0 9f 30 5a
        E 0 82 4d 64
        E 0 92 4f 64
        E 0 82 4f 64
        E 0 8c 37 64
        E 0 8f 30 64
        E 0 92 41 64
        E 0 93 3c 5a
        E 0 9c 38 66
        E 0 9f 29 5a
        E 0 8c 38 66
        E 0 8f 29 64
        E 0 9c 37 64
        E 0 9f 35 5a
        E 0 82 41 64
        E 0 83 3c 64
        E 0 8c 37 64
        E 0 8f 35 64
        E 1 9c 38 66
        E 0 9f 37 5a
        E 0 8f 37 64
        E 0 92 4d 64
        E 0 9f 38 5b
        E 0 82 4d 64
        E 0 8f 38 66
        E 0 92 4f 64
        E 0 9f 35 5a
        E 0 82 4f 64
        E 0 92 50 66
        E 0 82 50 66
        E 0 8c 38 66
        E 0 8f 35 64
        E 0 92 4a 64
        E 0 93 41 5a
        E 0 9c 35 64
        E 0 9f 2e 5b
        E 0 8f 2e 66
        E 0 9f 3a 5b
        E 0 82 4a 64
        E 0 83 41 64
        E 0 8c 35 64
        E 0 8f 3a 66
        E 0 9c 35 64
        E 0 9f 3c 5a
        E 0 8f 3c 64
        E 0 92 4d 64
        E 0 9f 3e 5a
        E 0 82 4d 64
        E 0 8c 35 64
        E 0 8f 3e 64
        E 0 92 4f 64
        E 0 9c 35 64
        E 0 9f 2e 5b
        E 0 82 4f 64
        E 0 92 50 66
        E 0 82 50 66
        E 0 8c 35 64
        E 0 8f 2e 66
        E 0 92 4a 64
        E 0 93 41 5a
        E 0 9c 3e 64
        E 0 9f 2e 5b
        E 0 8f 2e 66
        E 0 9f 3a 5b
        E 0 82 4a 64
        E 0 83 41 64
        E 0 8c 3e 64
        E 0 8f 3a 66
        E 0 9c 35 64
        E 0 9f 3c 5a
        E 0 8f 3c 64
        E 0 92 4d 64
        E 0 9f 3e 5a
        E 0 82 4d 64
        E 0 8f 3e 64
        E 0 92 4f 64
        E 0 9f 2e 5b
        E 0 82 4f 64
        E 2 92 50 66
        E 0 82 50 66
        E 0 8c 35 64
        E 0 8f 2e 66
        E 0 92 3f 66
        E 0 93 3a 5b
        E 0 9c 37 64
        E 0 9f 27 5b
        E 0 8c 37 64
        E 0 8f 27 66
        E 0 9c 35 64
        E 0 9f 33 5b
        E 0 82 3f 66
        E 0 83 3a 66
        E 0 8c 35 64
        E 0 8f 33 66
        E 0 9c 37 64
        E 0 9f 35 5a
        E 0 8f 35 64
        E 0 92 4b 66
        E 0 9f 37 5a
        E 0 82 4b 66
        E 0 8f 37 64
        E 0 92 4d 64
        E 0 9f 27 5b
        E 0 82 4d 64
        E 0 92 4f 64
        E 0 82 4f 64
        E 0 8c 37 64
        E 0 8f 27 66
        E 0 92 48 64
        E 0 93 43 5a
        E 0 9c 37 64
        E 0 9f 27 5b
        E 0 8f 27 66
        E 0 9f 3c 5a
        E 0 82 48 64
        E 0 83 43 64
        E 0 8c 37 64
        E 0 8f 3c 64
        E 0 9c 3c 64
        E 0 9f 3e 5a
        E 0 8f 3e 64
        E 0 92 4b 66
        E 0 9f 3f 5b
        E 0 82 4b 66
        E 0 8c 3c 64
        E 0 8f 3f 66
        E 0 92 4d 64
        E 0 9c 3f 66
        E 0 9f 30 5a
        E 0 82 4d 64
        E 0 92 4f 64
        E 0 82 4f 64
        E 0 8c 3f 66
        E 0 8f 30 64
        E 0 92 45 64
        E 0 93 42 5a
        E 0 9c 36 64
        E 0 9f 32 5a
        E 0 8f 32 64
        E 0 9f 36 5a
        E 0 82 45 64
        E 0 83 42 64
        E 0 8c 36 64
        E 0 8f 36 64
        E 0 9c 32 64
        E 0 9f 37 5a
        E 0 8f 37 64
        E 0 92 4e 66
        E 0 9f 39 5a
        E 0 82 4e 66
        E 0 8c 32 64
        E 0 8f 39 64
        E 0 92 4f 64
        E 0 9c 39 64
        E 0 9f 32 5a
        E 0 82 4f 64
        E 0 92 51 64
        E 0 82 51 64
        E 0 8c 39 64
        E 0 8f 32 64
        E 0 92 4f 64
        E 0 93 3e 5a
        E 0 9c 3a 66
        E 0 9f 2b 5a
        E 0 8c 3a 66
        E 0 8f 2b 64
        E 0 9c 39 64
        E 0 9f 37 5a
        E 0 82 4f 64
        E 0 83 3e 64
        E 0 8c 39 64
        E 0 8f 37 64
        E 1 9c 37 64
        E 0 9f 39 5a
        E 0 8f 39 64
        E 0 92 4f 64
        E 0 9f 3a 5b
        E 0 82 4f 64
        E 0 8c 37 64
        E 0 8f 3a 66
        E 0 92 51 64
        E 0 9f 2b 5a
        E 0 82 51 64
        E 0 92 52 66
        E 0 82 52 66
        E 0 8f 2b 64
        E 0 92 4a 64
        E 0 93 4a 5a
        E 0 9c 3e 64
        E 0 9f 3e 5a
        E 0 82 4a 64
        E 0 83 4a 64
        E 0 8c 3e 64
        E 0 8f 3e 64
        E 0 92 46 66
        E 0 93 46 5b
        E 0 9c 3a 66
        E 0 9f 3a 5b
        E 0 82 46 66
        E 0 83 46 66
        E 0 8c 3a 66
        E 0 8f 3a 66
        E 0 92 43 64
        E 0 93 43 5a
        E 0 9c 37 64
        E 0 9f 37 5a
        E 0 82 43 64
        E 0 83 43 64
        E 0 8c 37 64
        E 0 8f 37 64
        E 0 92 3c 64
        E 0 93 3c 5a
        E 0 9c 30 64
        E 0 9f 30 5a
        E 0 82 3c 64
        E 0 83 3c 64
        E 0 8c 30 64
        E 0 8f 30 64
        E 0 92 3e 64
        E 0 93 3e 5a
        E 0 9c 32 64
        E 0 9f 32 5a
        E 0 83 3e 64
        E 0 8f 32 64
        E 0 93 32 5a
        E 0 9f 26 5a
        E 0 82 3e 64
        E 0 83 32 64
        E 0 8c 32 64
        E 0 8f 26 64
        E 0 92 37 64
        E 0 93 37 5a
        E 0 9c 2b 64
        E 0 9f 2b 5a
        E 0 83 37 64
        E 0 8f 2b 64
        E 0 93 46 5b
        E 0 9f 3a 5b
        E 0 82 37 64
        E 0 83 46 66
        E 0 8f 3a 66
        E 0 93 48 5a
        E 0 9f 3c 5a
        E 0 83 48 64
        E 0 8f 3c 64
        E 0 92 4f 64
        E 0 93 4a 5a
        E 0 9f 3e 5a
        E 0 82 4f 64
        E 0 83 4a 64
        E 0 8f 3e 64
        E 0 92 51 64
        E 0 93 43 5a
        E 1 9f 37 5a
        E 0 82 51 64
        E 0 92 52 66
        E 0 82 52 66
        E 0 83 43 64
        E 0 8c 2b 64
        E 0 8f 37 64
        E 0 92 43 64
        E 0 93 43 5a
        E 0 9c 37 64
        E 0 9f 37 5a
        E 0 82 43 64
        E 0 83 43 64
        E 0 8c 37 64
        E 0 8f 37 64
        E 0 92 48 64
        E 0 93 48 5a
        E 0 9c 3c 64
        E 0 9f 3c 5a
        E 0 82 48 64
        E 0 83 48 64
        E 0 8c 3c 64
        E 0 8f 3c 64
        E 0 92 4b 66
        E 0 93 4b 5b
        E 0 9c 3f 66
        E 0 9f 3f 5b
        E 0 82 4b 66
        E 0 83 4b 66
        E 0 8c 3f 66
        E 0 8f 3f 66
        E 0 92 4a 64
        E 0 93 4a 5a
        E 0 9c 3e 64
        E 0 9f 3e 5a
        E 0 82 4a 64
        E 0 83 4a 64
        E 0 8c 3e 64
        E 0 8f 3e 64
        E 0 92 3e 64
        E 0 93 3e 5a
        E 0 9c 32 64
        E 0 9f 32 5a
        E 0 82 3e 64
        E 0 83 3e 64
        E 0 8c 32 64
        E 0 8f 32 64
        E 0 92 37 64
        E 0 93 37 5a
        E 0 9c 37 64
        E 0 9f 2b 5a
        E 38403 82 37 64
        E 0 83 37 64
        E 0 8c 37 64
        E 0 8f 2b 64
        E 0 9f 2d 5a
        E 0 95 40 64
        E 0 9e 40 64
        E 0 85 40 64
        E 0 8e 40 64
        E 0 95 45 64
        E 0 9e 45 64
        E 0 85 45 64
        E 0 8e 45 64
        E 0 95 45 64
        E 0 9e 45 64
        E 0 85 45 64
        E 0 8e 45 64
        E 0 95 45 64
        E 0 9e 45 64
        E 0 85 45 64
        E 0 8e 45 64
        E 0 95 47 64
        E 0 9e 47 64
        E 0 85 47 64
        E 0 8e 47 64
        E 0 8f 2d 64
        E 0 95 48 64
        E 1 9e 48 64
        E 0 9f 2d 5a
        E 0 85 48 64
        E 0 8e 48 64
        E 0 95 48 64
        E 0 9e 48 64
        E 0 85 48 64
        E 0 8e 48 64
        E 0 95 45 64
        E 0 9e 45 64
        E 0 85 45 64
        E 0 8e 45 64
        E 0 95 45 64
        E 0 9e 45 64
        E 0 85 45 64
        E 0 8e 45 64
        E 0 95 45 64
        E 0 9e 45 64
        E 0 85 45 64
        E 0 8e 45 64
        E 0 95 43 64
        E 0 9e 43 64
        E 0 85 43 64
        E 0 8e 43 64
        E 0 95 45 64
        E 0 9e 45 64
        E 0 85 45 64
        E 0 8e 45 64
        E 0 8f 2d 64
        E 0 95 46 66
        E 0 9e 46 66
        E 0 9f 32 5a
        E 0 85 46 66
        E 0 8e 46 66
        E 0 95 46 66
        E 0 9e 46 66
        E 0 85 46 66
        E 0 8e 46 66
        E 0 95 46 66
        E 0 9e 46 66
        E 0 85 46 66
        E 0 8e 46 66
        E 0 95 4a 64
        E 0 9e 4a 64
        E 0 85 4a 64
        E 0 8e 4a 64
        E 0 8f 32 64
        E 0 95 43 64
        E 0 9e 43 64
        E 0 9f 33 5b
        E 0 85 43 64
        E 0 8e 43 64
        E 0 95 43 64
        E 0 9e 43 64
        E 0 85 43 64
        E 0 8e 43 64
        E 0 95 43 64
        E 0 9e 43 64
        E 0 85 43 64
        E 0 8e 43 64
        E 0 8f 33 66
        E 0 95 43 64
        E 0 9e 43 64
        E 0 9f 33 5b
        E 0 85 43 64
        E 0 8e 43 64
        E 0 95 43 64
        E 0 9e 43 64
        E 0 85 43 64
        E 0 8e 43 64
        E 0 95 43 64
        E 0 9e 43 64
        E 0 85 43 64
        E 0 8e 43 64
        E 0 95 42 64
        E 0 9e 42 64
        E 0 85 42 64
        E 0 8e 42 64
        E 0 8f 33 66
        E 0 95 45 64
        E 0 9e 45 64
        E 0 9f 32 5a
        E 0 85 45 64
        E 0 8e 45 64
        E 0 8f 32 64
        E 1 9f 32 5a
        E 0 9a 42 64
        E 0 9e 42 64
        E 0 8a 42 64
        E 0 8e 42 64
        E 0 9a 48 64
        E 0 9e 48 64
        E 0 8a 48 64
        E 0 8e 48 64
        E 0 9a 46 66
        E 0 9e 46 66
        E 0 8f 32 64
        E 0 8a 46 66
        E 0 8e 46 66
        E 0 9f 2b 5a
        E 0 9a 43 64
        E 0 9e 43 64
        E 0 8a 43 64
        E 0 8e 43 64
        E 0 9a 43 64
        E 0 9e 43 64
        E 0 8a 43 64
        E 0 8e 43 64
        E 0 8f 2b 64
        E 0 9f 2b 5a
        E 0 95 46 66
        E 0 9e 46 66
        E 0 85 46 66
        E 0 8e 46 66
        E 0 95 46 66
        E 0 9e 46 66
        E 0 85 46 66
        E 0 8e 46 66
        E 0 95 46 66
        E 0 9e 46 66
        E 0 85 46 66
        E 0 8e 46 66
        E 0 95 46 66
        E 0 9e 46 66
        E 0 85 46 66
        E 0 8e 46 66
        E 0 95 45 64
        E 0 9e 45 64
        E 0 8f 2b 64
        E 0 85 45 64
        E 0 8e 45 64
        E 0 9f 33 5b
        E 0 95 45 64
        E 0 9e 45 64
        E 0 85 45 64
        E 0 8e 45 64
        E 0 95 45 64
        E 0 9e 45 64
        E 0 85 45 64
        E 0 8e 45 64
        E 0 95 45 64
        E 0 9e 45 64
        E 0 85 45 64
        E 0 8e 45 64
        E 0 95 41 64
        E 0 9e 41 64
        E 0 8f 33 66
        E 0 85 41 64
        E 0 8e 41 64
        E 0 9f 33 5b
        E 0 95 48 64
        E 0 9e 48 64
        E 0 85 48 64
        E 0 8e 48 64
        E 0 95 48 64
        E 0 9e 48 64
        E 0 85 48 64
        E 0 8e 48 64
        E 0 95 49 66
        E 0 9e 49 66
        E 0 8f 33 66
        E 0 85 49 66
        E 0 8e 49 66
        E 0 9f 31 5b
        E 0 95 46 66
        E 0 9e 46 66
        E 0 85 46 66
        E 1 8e 46 66
        E 0 95 46 66
        E 0 9e 46 66
        E 0 85 46 66
        E 0 8e 46 66
        E 0 8f 31 66
        E 0 9f 31 5b
        E 0 95 46 66
        E 0 9e 46 66
        E 0 85 46 66
        E 0 8e 46 66
        E 0 95 46 66
        E 0 9e 46 66
        E 0 85 46 66
        E 0 8e 46 66
        E 0 95 44 66
        E 0 9e 44 66
        E 0 8f 31 66
        E 0 85 44 66
        E 0 8e 44 66
        E 0 9f 2e 5b
        E 0 95 44 66
        E 0 9e 44 66
        E 0 85 44 66
        E 0 8e 44 66
        E 0 95 44 66
        E 0 9e 44 66
        E 0 85 44 66
        E 0 8e 44 66
        E 0 95 41 64
        E 0 9e 41 64
        E 0 8f 2e 66
        E 0 85 41 64
        E 0 8e 41 64
        E 0 9f 2e 5b
        E 0 95 44 66
        E 0 9e 44 66
        E 0 85 44 66
        E 0 8e 44 66
        E 0 95 44 66
        E 0 9e 44 66
        E 0 85 44 66
        E 0 8e 44 66
        E 0 95 44 66
        E 0 9e 44 66
        E 0 85 44 66
        E 0 8e 44 66
        E 0 95 43 64
        E 0 9e 43 64
        E 0 8f 2e 66
        E 0 85 43 64
        E 0 8e 43 64
        E 0 9f 33 5b
        E 0 95 3f 66
        E 0 9e 3f 66
        E 0 85 3f 66
        E 0 8e 3f 66
        E 0 95 3f 66
        E 0 9e 3f 66
        E 0 85 3f 66
        E 0 8e 3f 66
        E 0 8f 33 66
        E 0 9f 33 5b
        E 0 95 46 66
        E 0 9e 46 66
        E 0 85 46 66
        E 0 8e 46 66
        E 0 95 46 66
        E 0 9e 46 66
        E 0 85 46 66
        E 0 8e 46 66
        E 1 95 48 64
        E 0 9e 48 64
        E 0 8f 33 66
        E 0 85 48 64
        E 0 8e 48 64
        E 0 9f 34 5a
        E 0 95 48 64
        E 0 9e 48 64
        E 38403 85 48 64
        E 0 8e 48 64
        E 0 95 43 64
        E 0 9e 43 64
        E 0 85 43 64
        E 0 8e 43 64
        E 0 95 43 64
        E 0 9e 43 64
        E 0 8f 34 64
        E 0 85 43 64
        E 0 8e 43 64
        E 0 9f 34 5a
        E 0 95 43 64
        E 0 9e 43 64
        E 0 85 43 64
        E 0 8e 43 64
        E 0 95 43 64
        E 0 9e 43 64
        E 0 85 43 64
        E 0 8e 43 64
        E 0 95 46 66
        E 0 9e 46 66
        E 0 85 46 66
        E 0 8e 46 66
        E 0 95 44 66
        E 0 9e 44 66
        E 0 8f 34 64
        E 0 85 44 66
        E 0 8e 44 66
        E 0 9f 35 5a
        E 0 95 41 64
        E 0 9e 41 64
        E 1 85 41 64
        E 0 8e 41 64
        E 0 95 41 64
        E 0 9e 41 64
        E 0 85 41 64
        E 0 8e 41 64
        E 0 9a 44 66
        E 0 9e 44 66
        E 0 8a 44 66
        E 0 8e 44 66
        E 0 9a 44 66
        E 0 9e 44 66
        E 0 8a 44 66
        E 0 8e 44 66
        E 0 9a 43 64
        E 0 9e 43 64
        E 0 8a 43 64
        E 0 8e 43 64
        E 0 8f 35 64
        E 0 9a 42 64
        E 0 9e 42 64
        E 0 9f 30 5a
        E 0 8a 42 64
        E 0 8e 42 64
        E 0 9a 42 64
        E 0 9e 42 64
        E 0 8a 42 64
        E 0 8e 42 64
        E 0 9a 3e 64
        E 0 9e 3e 64
        E 0 8a 3e 64
        E 0 8e 3e 64
        E 0 9a 3e 64
        E 0 9e 3e 64
        E 0 8a 3e 64
        E 0 8e 3e 64
        E 0 9a 45 64
        E 0 9e 45 64
        E 0 8a 45 64
        E 0 8e 45 64
        E 0 9a 43 64
        E 0 9e 43 64
        E 0 8a 43 64
        E 0 8e 43 64
        E 0 9a 45 64
        E 0 9e 45 64
        E 0 8a 45 64
        E 0 8e 45 64
        E 0 8f 30 64
        E 0 9a 46 66
        E 0 9e 46 66
        E 0 9f 2b 5a
        E 0 8a 46 66
        E 0 8e 46 66
        E 1 9a 46 66
        E 0 9e 46 66
        E 0 8a 46 66
        E 0 8e 46 66
        E 0 9a 46 66
        E 0 9e 46 66
        E 0 8a 46 66
        E 0 8e 46 66
        E 0 9a 43 64
        E 0 9e 43 64
        E 0 8a 43 64
        E 0 8e 43 64
        E 0 9a 41 64
        E 0 9e 41 64
        E 0 8a 41 64
        E 0 8e 41 64
        E 0 8f 2b 64
        E 0 9a 3e 64
        E 0 9e 3e 64
        E 0 9f 2d 5a
        E 0 8a 3e 64
        E 0 8e 3e 64
        E 0 9a 3e 64
        E 0 9e 3e 64
        E 0 8a 3e 64
        E 0 8e 3e 64
        E 0 8f 2d 64
        E 0 9f 26 5a
        E 0 8f 26 64
        E 0 90 41 64
        E 0 91 41 64
        E 0 92 41 64
        E 0 93 41 5a
        E 0 9f 35 5a
        E 0 80 41 64
        E 0 81 41 64
        E 0 82 41 64
        E 0 83 41 64
        E 0 8f 35 64
        E 0 90 41 64
        E 0 91 41 64
        E 0 92 41 64
        E 0 93 41 5a
        E 0 9f 35 5a
        E 0 80 41 64
        E 0 81 41 64
        E 0 82 41 64
        E 0 83 41 64
        E 0 8f 35 64
        E 0 90 41 64
        E 0 91 41 64
        E 0 92 41 64
        E 0 93 41 5a
        E 0 9f 35 5a
        E 0 82 41 64
        E 0 92 48 64
        E 0 82 48 64
        E 0 83 41 64
        E 0 8f 35 64
        E 0 92 41 64
        E 0 93 41 5a
        E 0 9f 35 5a
        E 0 82 41 64
        E 0 92 48 64
        E 0 80 41 64
        E 0 81 41 64
        E 0 82 48 64
        E 0 83 41 64
        E 0 8f 35 64
        E 0 90 41 64
        E 0 91 41 64
        E 0 92 41 64
        E 0 93 41 5a
        E 0 9f 35 5a
        E 0 82 41 64
        E 0 92 4a 64
        E 0 82 4a 64
        E 0 83 41 64
        E 0 8f 35 64
        E 0 92 41 64
        E 0 93 41 5a
        E 0 9f 35 5a
        E 0 82 41 64
        E 0 92 4a 64
        E 0 82 4a 64
        E 0 83 41 64
        E 0 8f 35 64
        E 0 92 41 64
        E 0 93 41 5a
        E 0 9f 35 5a
        E 0 82 41 64
        E 0 92 48 64
        E 0 82 48 64
        E 0 83 41 64
        E 0 8f 35 64
        E 0 92 41 64
        E 0 93 41 5a
        E 0 9f 35 5a
        E 1 82 41 64
        E 0 92 48 64
        E 0 80 41 64
        E 0 81 41 64
        E 0 82 48 64
        E 0 83 41 64
        E 0 8f 35 64
        E 0 90 41 64
        E 0 91 41 64
        E 0 92 41 64
        E 0 93 41 5a
        E 0 9f 35 5a
        E 0 82 41 64
        E 0 92 4a 64
        E 0 82 4a 64
        E 0 83 41 64
        E 0 8f 35 64
        E 0 92 41 64
        E 0 93 41 5a
        E 0 9f 35 5a
        E 0 82 41 64
        E 0 92 4a 64
        E 0 80 41 64
        E 0 81 41 64
        E 0 82 4a 64
        E 0 83 41 64
        E 0 8f 35 64
        E 0 90 41 64
        E 0 91 41 64
        E 0 92 48 64
        E 0 93 41 5a
        E 0 9f 35 5a
        E 0 80 41 64
        E 0 81 41 64
        E 0 82 48 64
        E 0 83 41 64
        E 0 8f 35 64
        E 0 90 41 64
        E 0 91 41 64
        E 0 92 41 64
        E 0 93 41 5a
        E 0 9f 35 5a
        E 0 80 41 64
        E 0 81 41 64
        E 0 82 41 64
        E 0 83 41 64
        E 0 8f 35 64
        E 0 90 41 64
        E 0 91 41 64
        E 0 92 41 64
        E 0 93 41 5a
        E 0 9f 35 5a
        E 0 80 41 64
        E 0 81 41 64
        E 0 82 41 64
        E 0 83 41 64
        E 0 8f 35 64
        E 0 90 41 64
        E 0 91 41 64
        E 0 92 41 64
        E 0 93 41 5a
        E 0 9f 35 5a
        E 0 80 41 64
        E 0 81 41 64
        E 0 82 41 64
        E 0 83 41 64
        E 0 8f 35 64
        E 0 90 3c 64
        E 0 91 3c 64
        E 0 92 3c 64
        E 0 93 3c 5a
        E 0 9f 30 5a
        E 0 80 3c 64
        E 0 81 3c 64
        E 0 82 3c 64
        E 0 83 3c 64
        E 0 8f 30 64
        E 0 90 3c 64
        E 0 91 3c 64
        E 1 92 3c 64
        E 0 93 3c 5a
        E 0 9f 30 5a
        E 0 80 3c 64
        E 0 81 3c 64
        E 0 82 3c 64
        E 0 83 3c 64
        E 0 8f 30 64
        E 0 90 3c 64
        E 0 91 3c 64
        E 0 92 3c 64
        E 0 93 3c 5a
        E 0 9f 30 5a
        E 0 82 3c 64
        E 0 92 43 64
        E 0 82 43 64
        E 0 83 3c 64
        E 0 8f 30 64
        E 0 92 3c 64
        E 0 93 3c 5a
        E 0 9f 30 5a
        E 0 82 3c 64
        E 0 92 43 64
        E 0 80 3c 64
        E 0 81 3c 64
        E 0 82 43 64
        E 0 83 3c 64
        E 0 8f 30 64
        E 0 90 3c 64
        E 0 91 3c 64
        E 0 92 3c 64
        E 0 93 3c 5a
        E 0 9f 30 5a
        E 0 82 3c 64
        E 0 92 45 64
        E 0 82 45 64
        E 0 83 3c 64
        E 0 8f 30 64
        E 0 92 3c 64
        E 0 93 3c 5a
        E 0 9f 30 5a
        E 0 82 3c 64
        E 0 92 45 64
        E 0 82 45 64
        E 0 83 3c 64
        E 0 8f 30 64
        E 0 92 3c 64
        E 0 93 3c 5a
        E 0 9f 30 5a
        E 0 82 3c 64
        E 0 92 43 64
        E 0 82 43 64
        E 0 83 3c 64
        E 0 8f 30 64
        E 0 92 3c 64
        E 0 93 3c 5a
        E 0 9f 30 5a
        E 0 82 3c 64
        E 0 92 43 64
        E 0 80 3c 64
        E 0 81 3c 64
        E 0 82 43 64
        E 0 83 3c 64
        E 0 8f 30 64
        E 0 90 3c 64
        E 0 91 3c 64
        E 0 92 3c 64
        E 0 93 3c 5a
        E 0 9f 30 5a
        E 0 82 3c 64
        E 0 92 45 64
        E 0 82 45 64
        E 0 83 3c 64
        E 0 8f 30 64
        E 1 92 3c 64
        E 0 93 3c 5a
        E 0 9f 30 5a
        E 0 82 3c 64
        E 0 92 45 64
        E 0 80 3c 64
        E 0 81 3c 64
        E 0 82 45 64
        E 0 83 3c 64
        E 0 8f 30 64
        E 0 90 3c 64
        E 0 91 3c 64
        E 0 92 43 64
        E 0 93 3c 5a
        E 0 9f 30 5a
        E 0 80 3c 64
        E 0 81 3c 64
        E 0 82 43 64
        E 0 83 3c 64
        E 0 8f 30 64
        E 0 90 3c 64
        E 0 91 3c 64
        E 0 92 3c 64
        E 0 93 3c 5a
        E 0 9f 30 5a
        E 0 80 3c 64
        E 0 81 3c 64
        E 0 82 3c 64
        E 0 83 3c 64
        E 0 8f 30 64
        E 0 90 3c 64
        E 0 91 3c 64
        E 0 92 3c 64
        E 0 93 3c 5a
        E 0 9f 30 5a
        E 38404 80 3c 64
        E 0 81 3c 64
        E 0 82 3c 64
        E 0 83 3c 64
        E 0 8f 30 64
        E 0 90 3c 64
        E 0 91 3c 64
        E 0 92 3c 64
        E 0 93 3c 5a
        E 0 9f 30 5a
        E 0 80 3c 64
        E 0 81 3c 64
        E 0 82 3c 64
        E 0 83 3c 64
        E 0 8f 30 64
        E 0 92 51 64
        E 0 93 45 5a
        E 0 82 51 64
        E 0 83 45 64
        E 0 92 51 64
        E 0 93 45 5a
        E 0 82 51 64
        E 0 83 45 64
        E 0 92 51 64
        E 0 93 45 5a
        E 0 82 51 64
        E 0 83 45 64
        E 0 92 51 64
        E 0 93 45 5a
        E 0 82 51 64
        E 0 83 45 64
        E 0 92 51 64
        E 0 93 45 5a
        E 0 82 51 64
        E 0 92 52 66
        E 0 82 52 66
        E 0 92 54 64
        E 0 82 54 64
        E 0 92 52 66
        E 0 82 52 66
        E 0 83 45 64
        E 0 92 51 64
        E 0 93 45 5a
        E 0 82 51 64
        E 0 83 45 64
        E 0 92 51 64
        E 0 93 45 5a
        E 0 82 51 64
        E 1 92 52 66
        E 0 82 52 66
        E 0 92 54 64
        E 0 82 54 64
        E 0 92 52 66
        E 0 82 52 66
        E 0 83 45 64
        E 0 92 51 64
        E 0 93 45 5a
        E 0 82 51 64
        E 0 83 45 64
        E 0 92 4a 64
        E 0 93 46 5b
        E 0 82 4a 64
        E 0 92 4b 66
        E 0 82 4b 66
        E 0 92 4d 64
        E 0 82 4d 64
        E 0 92 4b 66
        E 0 82 4b 66
        E 0 83 46 66
        E 0 92 4a 64
        E 0 93 46 5b
        E 0 82 4a 64
        E 0 83 46 66
        E 0 92 4a 64
        E 0 93 46 5b
        E 0 82 4a 64
        E 0 92 4b 66
        E 0 82 4b 66
        E 0 92 4d 64
        E 0 82 4d 64
        E 0 92 4b 66
        E 0 82 4b 66
        E 0 83 46 66
        E 0 92 4a 64
        E 0 93 46 5b
        E 0 82 4a 64
        E 1 83 46 66
        E 0 92 53 64
        E 0 93 47 5a
        E 0 82 53 64
        E 0 92 54 64
        E 0 82 54 64
        E 0 92 56 64
        E 0 82 56 64
        E 0 92 54 64
        E 0 82 54 64
        E 0 83 47 64
        E 0 92 53 64
        E 0 93 47 5a
        E 0 82 53 64
        E 0 83 47 64
        E 1 92 53 64
        E 0 93 47 5a
        E 0 82 53 64
        E 0 92 54 64
        E 0 82 54 64
        E 0 92 56 64
        E 0 82 56 64
        E 0 92 54 64
        E 0 82 54 64
        E 0 83 47 64
        E 0 92 53 64
        E 0 93 47 5a
        E 0 82 53 64
        E 0 83 47 64
        E 0 92 4c 64
        E 0 93 48 5a
        E 0 82 4c 64
        E 0 92 4d 64
        E 0 82 4d 64
        E 0 92 4f 64
        E 0 82 4f 64
        E 0 92 4d 64
        E 0 82 4d 64
        E 0 83 48 64
        E 0 92 4c 64
        E 0 93 48 5a
        E 0 82 4c 64
        E 0 83 48 64
        E 0 92 4c 64
        E 0 93 48 5a
        E 0 82 4c 64
        E 0 92 4d 64
        E 0 82 4d 64
        E 0 92 4f 64
        E 0 82 4f 64
        E 0 92 4d 64
        E 0 82 4d 64
        E 0 83 48 64
        E 0 92 4c 64
        E 0 93 48 5a
        E 0 82 4c 64
        E 0 83 48 64
        E 0 90 4d 64
        E 0 91 4d 64
        E 0 92 4d 64
        E 0 93 45 5a
        E 0 9f 35 5a
        E 0 80 4d 64
        E 0 81 4d 64
        E 0 82 4d 64
        E 0 83 45 64
        E 0 90 4d 64
        E 0 91 4d 64
        E 0 92 4d 64
        E 0 93 45 5a
        E 0 80 4d 64
        E 0 81 4d 64
        E 0 82 4d 64
        E 0 83 45 64
        E 0 8f 35 64
        E 0 90 4d 64
        E 0 91 4d 64
        E 0 92 48 64
        E 0 93 41 5a
        E 0 9f 35 5a
        E 0 80 4d 64
        E 0 81 4d 64
        E 0 82 48 64
        E 0 83 41 64
        E 0 90 4d 64
        E 0 91 4d 64
        E 0 92 48 64
        E 0 93 41 5a
        E 0 80 4d 64
        E 0 81 4d 64
        E 0 82 48 64
        E 0 83 41 64
        E 0 8f 35 64
        E 0 90 4d 64
        E 0 91 4d 64
        E 0 92 45 64
        E 0 93 3c 5a
        E 0 9f 35 5a
        E 0 80 4d 64
        E 0 81 4d 64
        E 0 82 45 64
        E 0 83 3c 64
        E 0 90 4d 64
        E 0 91 4d 64
        E 0 92 45 64
        E 1 93 3c 5a
        E 0 80 4d 64
        E 0 81 4d 64
        E 0 82 45 64
        E 0 83 3c 64
        E 0 8f 35 64
        E 0 90 4d 64
        E 0 91 4d 64
        E 0 92 41 64
        E 0 93 39 5a
        E 0 9f 35 5a
        E 0 80 4d 64
        E 0 81 4d 64
        E 0 82 41 64
        E 0 83 39 64
        E 0 90 4d 64
        E 0 91 4d 64
        E 0 92 41 64
        E 0 93 39 5a
        E 0 80 4d 64
        E 0 81 4d 64
        E 0 82 41 64
        E 0 83 39 64
        E 0 8f 35 64
        E 0 90 4d 64
        E 0 91 4d 64
        E 0 92 3a 66
        E 0 93 3a 5b
        E 0 9f 2e 5b
        E 0 82 3a 66
        E 0 83 3a 66
        E 0 8f 2e 66
        E 0 92 3a 66
        E 0 93 3a 5b
        E 0 9f 2e 5b
        E 0 82 3a 66
        E 0 83 3a 66
        E 0 8f 2e 66
        E 0 92 3e 64
        E 0 93 3e 5a
        E 0 9f 32 5a
        E 0 82 3e 64
        E 0 83 3e 64
        E 0 8f 32 64
        E 0 92 3e 64
        E 0 93 3e 5a
        E 0 9f 32 5a
        E 0 80 4d 64
        E 0 81 4d 64
        E 0 82 3e 64
        E 0 83 3e 64
        E 0 8f 32 64
        E 0 92 41 64
        E 0 93 41 5a
        E 0 9f 35 5a
        E 0 82 41 64
        E 0 83 41 64
        E 0 8f 35 64
        E 0 92 41 64
        E 0 93 41 5a
        E 0 9f 35 5a
        E 0 82 41 64
        E 0 83 41 64
        E 0 8f 35 64
        E 0 92 46 66
        E 0 93 46 5b
        E 0 9f 3a 5b
        E 0 82 46 66
        E 0 83 46 66
        E 0 8f 3a 66
        E 0 92 46 66
        E 0 93 46 5b
        E 0 9f 3a 5b
        E 0 82 46 66
        E 0 83 46 66
        E 0 8f 3a 66
        E 0 90 4f 64
        E 0 91 4f 64
        E 0 92 4f 64
        E 0 93 46 5b
        E 0 9f 37 5a
        E 0 80 4f 64
        E 0 81 4f 64
        E 0 82 4f 64
        E 0 83 46 66
        E 0 90 4f 64
        E 1 91 4f 64
        E 0 92 4f 64
        E 0 93 46 5b
        E 0 80 4f 64
        E 0 81 4f 64
        E 0 82 4f 64
        E 0 83 46 66
        E 0 8f 37 64
        E 0 90 4f 64
        E 0 91 4f 64
        E 0 92 4a 64
        E 0 93 43 5a
        E 0 9f 37 5a
        E 0 80 4f 64
        E 0 81 4f 64
        E 0 82 4a 64
        E 0 83 43 64
        E 0 90 4f 64
        E 0 91 4f 64
        E 0 92 4a 64
        E 0 93 43 5a
        E 0 80 4f 64
        E 0 81 4f 64
        E 0 82 4a 64
        E 0 83 43 64
        E 0 8f 37 64
        E 0 90 4f 64
        E 0 91 4f 64
        E 0 92 47 64
        E 0 93 3e 5a
        E 0 9f 37 5a
        E 0 80 4f 64
        E 0 81 4f 64
        E 0 82 47 64
        E 0 83 3e 64
        E 0 90 4f 64
        E 0 91 4f 64
        E 0 92 47 64
        E 0 93 3e 5a
        E 0 80 4f 64
        E 0 81 4f 64
        E 0 82 47 64
        E 0 83 3e 64
        E 0 8f 37 64
        E 0 90 4f 64
        E 0 91 4f 64
        E 0 92 43 64
        E 0 93 3b 5a
        E 0 9f 37 5a
        E 0 80 4f 64
        E 0 81 4f 64
        E 0 82 43 64
        E 0 83 3b 64
        E 0 90 4f 64
        E 0 91 4f 64
        E 0 92 43 64
        E 0 93 3b 5a
        E 0 80 4f 64
        E 0 81 4f 64
        E 0 82 43 64
        E 0 83 3b 64
        E 0 8f 37 64
        E 0 90 4f 64
        E 0 91 4f 64
        E 0 92 3c 64
        E 0 93 3c 5a
        E 0 9f 30 5a
        E 0 82 3c 64
        E 0 83 3c 64
        E 0 8f 30 64
        E 0 92 3c 64
        E 0 93 3c 5a
        E 0 9f 30 5a
        E 0 82 3c 64
        E 0 83 3c 64
        E 0 8f 30 64
        E 0 92 40 64
        E 0 93 40 5a
        E 0 9f 34 5a
        E 0 82 40 64
        E 0 83 40 64
        E 0 8f 34 64
        E 0 92 40 64
        E 0 93 40 5a
        E 0 9f 34 5a
        E 0 80 4f 64
        E 0 81 4f 64
        E 0 82 40 64
        E 0 83 40 64
        E 0 8f 34 64
        E 0 92 43 64
        E 0 93 43 5a
        E 1 9f 37 5a
        E 0 82 43 64
        E 0 83 43 64
        E 0 8f 37 64
        E 0 92 43 64
        E 0 93 43 5a
        E 0 9f 37 5a
        E 0 82 43 64
        E 0 83 43 64
        E 0 8f 37 64
        E 0 92 48 64
        E 0 93 48 5a
        E 0 9f 3c 5a
        E 0 82 48 64
        E 0 83 48 64
        E 0 8f 3c 64
        E 0 92 48 64
        E 0 93 48 5a
        E 0 9f 3c 5a
        E 0 82 48 64
        E 0 83 48 64
        E 0 8f 3c 64
        E 0 90 41 64
        E 0 91 41 64
        E 0 92 45 64
        E 0 93 41 5a
        E 0 9f 35 5a
        E 0 82 45 64
        E 0 92 48 64
        E 0 82 48 64
        E 0 83 41 64
        E 0 92 46 66
        E 0 93 3c 5a
        E 0 80 41 64
        E 0 81 41 64
        E 0 82 46 66
        E 0 83 3c 64
        E 0 8f 35 64
        E 0 90 41 64
        E 0 91 41 64
        E 0 92 45 64
        E 0 93 41 5a
        E 0 82 45 64
        E 0 92 48 64
        E 0 82 48 64
        E 0 83 41 64
        E 0 92 46 66
        E 0 93 3c 5a
        E 0 80 41 64
        E 0 81 41 64
        E 0 90 48 64
        E 0 91 48 64
        E 0 80 48 64
        E 0 81 48 64
        E 0 82 46 66
        E 0 83 3c 64
        E 0 90 41 64
        E 0 91 41 64
        E 0 92 45 64
        E 0 93 3c 5a
        E 0 9f 35 5a
        E 0 82 45 64
        E 0 92 45 64
        E 0 82 45 64
        E 0 83 3c 64
        E 0 8f 35 64
        E 0 92 48 64
        E 0 93 3c 5a
        E 0 9f 35 5a
        E 0 82 48 64
        E 0 92 48 64
        E 0 80 41 64
        E 0 81 41 64
        E 0 82 48 64
        E 0 83 3c 64
        E 0 8f 35 64
        E 0 90 41 64
        E 0 91 41 64
        E 0 92 4d 64
        E 0 93 3c 5a
        E 0 9f 35 5a
        E 0 82 4d 64
        E 0 92 4d 64
        E 0 82 4d 64
        E 0 83 3c 64
        E 0 8f 35 64
        E 0 92 51 64
        E 0 93 3c 5a
        E 0 9f 35 5a
        E 0 80 41 64
        E 0 81 41 64
        E 0 82 51 64
        E 1 90 48 64
        E 0 91 48 64
        E 0 92 51 64
        E 0 80 48 64
        E 0 81 48 64
        E 0 82 51 64
        E 0 83 3c 64
        E 0 8f 35 64
        E 0 90 41 64
        E 0 91 41 64
        E 0 92 45 64
        E 0 93 41 5a
        E 0 82 45 64
        E 0 92 48 64
        E 0 82 48 64
        E 0 83 41 64
        E 0 92 46 66
        E 0 93 3c 5a
        E 0 80 41 64
        E 0 81 41 64
        E 0 82 46 66
        E 0 83 3c 64
        E 0 90 41 64
        E 0 91 41 64
        E 0 92 45 64
        E 0 93 41 5a
        E 0 82 45 64
        E 0 92 48 64
        E 0 82 48 64
        E 0 83 41 64
        E 0 92 46 66
        E 0 93 3c 5a
        E 0 80 41 64
        E 0 81 41 64
        E 0 90 48 64
        E 0 91 48 64
        E 0 80 48 64
        E 0 81 48 64
        E 0 82 46 66
        E 0 83 3c 64
        E 0 90 45 64
        E 0 91 41 64
        E 0 92 45 64
        E 0 93 3c 5a
        E 0 9f 29 5a
        E 0 8f 29 64
        E 0 9f 29 5a
        E 0 8f 29 64
        E 0 9f 29 5a
        E 0 8f 29 64
        E 0 9f 29 5a
        E 0 80 45 64
        E 0 81 41 64
        E 0 82 45 64
        E 0 83 3c 64
        E 0 8f 29 64
        E 0 90 41 64
        E 0 91 3c 64
        E 0 92 41 64
        E 0 93 39 5a
        E 0 9f 29 5a
        E 0 8f 29 64
        E 0 9f 29 5a
        E 0 8f 29 64
        E 0 9f 29 5a
        E 0 8f 29 64
        E 0 9f 29 5a
        E 0 80 41 64
        E 0 81 3c 64
        E 0 82 41 64
        E 0 83 39 64
        E 0 8f 29 64
        E 0 90 3c 64
        E 0 91 39 64
        E 0 92 3c 64
        E 0 93 35 5a
        E 0 9f 29 5a
        E 0 8f 29 64
        E 0 9f 29 5a
        E 0 8f 29 64
        E 0 9f 29 5a
        E 1 8f 29 64
        E 0 9f 29 5a
        E 0 80 3c 64
        E 0 81 39 64
        E 0 82 3c 64
        E 0 83 35 64
        E 0 8f 29 64
        E 0 92 51 64
        E 0 93 3c 5a
        E 0 9f 35 5a
        E 0 82 51 64
        E 0 92 54 64
        E 0 82 54 64
        E 0 92 52 66
        E 0 82 52 66
        E 0 83 3c 64
        E 0 8f 35 64
        E 0 92 51 64
        E 0 93 3c 5a
        E 0 9f 35 5a
        E 0 82 51 64
        E 0 92 54 64
        E 0 82 54 64
        E 0 92 52 66
        E 0 82 52 66
        E 0 83 3c 64
        E 0 8f 35 64
        E 0 92 51 64
        E 0 93 3c 5a
        E 0 9f 35 5a
        E 0 82 51 64
        E 0 92 54 64
        E 0 82 54 64
        E 0 92 52 66
        E 0 82 52 66
        E 0 83 3c 64
        E 0 8f 35 64
        E 0 92 51 64
        E 0 93 3c 5a
        E 1 9f 35 5a
        E 0 82 51 64
        E 0 92 54 64
        E 0 82 54 64
        E 0 92 52 66
        E 0 82 52 66
        E 0 83 3c 64
        E 0 8f 35 64
        E 0 92 51 64
        E 0 93 3c 5a
        E 0 9f 35 5a
        E 0 82 51 64
        E 0 83 3c 64
        E 0 8f 35 64
        E 0 90 48 64
        E 0 91 48 64
        E 0 92 54 64
        E 0 93 41 5a
        E 0 9f 29 5a
        E 0 80 48 64
        E 0 81 48 64
        E 0 82 54 64
        E 0 83 41 64
        E 0 8f 29 64
        E 0 90 45 64
        E 0 91 45 64
        E 0 92 51 64
        E 0 93 3c 5a
        E 0 9f 35 5a
        E 0 80 45 64
        E 0 81 45 64
        E 0 82 51 64
        E 0 83 3c 64
        E 0 8f 35 64
        E 0 90 41 64
        E 0 91 41 64
        E 0 92 4d 64
        E 0 93 39 5a
        E 0 9f 29 5a
        E 0 80 41 64
        E 0 81 41 64
        E 0 82 4d 64
        E 0 83 39 64
        E 0 8f 29 64
        E 0 90 48 64
        E 0 91 48 64
        E 0 92 48 64
        E 0 93 3c 5a
        E 0 9f 3c 5a
        E 0 80 48 64
        E 1 81 48 64
        E 0 82 48 64
        E 0 83 3c 64
        E 0 8f 3c 64
        E 0 90 3c 64
        E 0 91 3c 64
        E 0 92 3c 64
        E 0 93 3c 5a
        E 0 9f 30 5a
        E 0 80 3c 64
        E 0 81 3c 64
        E 0 82 3c 64
        E 0 83 3c 64
        E 0 8f 30 64
        E 0 90 41 64
        E 0 91 41 64
        E 0 92 41 64
        E 0 93 3c 5a
        E 0 9f 35 5a
        E 0 82 41 64
        E 0 92 48 64
        E 0 82 48 64
        E 0 92 46 66
        E 0 82 46 66
        E 0 83 3c 64
        E 0 8f 35 64
        E 0 92 45 64
        E 0 93 3c 5a
        E 0 9f 35 5a
        E 0 82 45 64
        E 0 92 48 64
        E 0 82 48 64
        E 0 92 46 66
        E 0 80 41 64
        E 0 81 41 64
        E 0 82 46 66
        E 0 83 3c 64
        E 0 8f 35 64
        E 0 92 45 64
        E 0 93 3c 5a
        E 0 9f 35 5a
        E 0 82 45 64
        E 0 92 48 64
        E 0 82 48 64
        E 0 92 46 66
        E 0 82 46 66
        E 0 83 3c 64
        E 0 8f 35 64
        E 0 92 45 64
        E 0 93 3c 5a
        E 0 9f 35 5a
        E 0 82 45 64
        E 0 92 48 64
        E 0 82 48 64
        E 0 92 46 66
        E 0 82 46 66
        E 0 83 3c 64
        E 0 8f 35 64
        E 0 92 45 64
        E 0 93 3c 5a
        E 0 9f 35 5a
        E 0 82 45 64
        E 0 83 3c 64
        E 0 8f 35 64
        E 0 90 48 64
        E 0 91 48 64
        E 0 92 48 64
        E 0 93 41 5a
        E 0 9f 29 5a
        E 0 80 48 64
        E 0 81 48 64
        E 0 82 48 64
        E 0 83 41 64
        E 0 8f 29 64
        E 0 90 45 64
        E 0 91 45 64
        E 0 92 45 64
        E 0 93 3c 5a
        E 0 9f 35 5a
        E 0 80 45 64
        E 0 81 45 64
        E 0 82 45 64
        E 0 83 3c 64
        E 0 8f 35 64
        E 0 90 41 64
        E 0 91 41 64
        E 0 92 41 64
        E 0 93 39 5a
        E 0 9f 29 5a
        E 1 80 41 64
        E 0 81 41 64
        E 0 82 41 64
        E 0 83 39 64
        E 0 8f 29 64
        E 0 90 48 64
        E 0 91 48 64
        E 0 92 48 64
        E 0 93 3c 5a
        E 0 9f 3c 5a
        E 0 80 48 64
        E 0 81 48 64
        E 0 82 48 64
        E 0 83 3c 64
        E 0 8f 3c 64
        E 0 90 3c 64
        E 0 91 3c 64
        E 0 92 3c 64
        E 0 93 3c 5a
        E 0 9f 30 5a
        E 0 80 3c 64
        E 0 81 3c 64
        E 0 82 3c 64
        E 0 83 3c 64
        E 0 8f 30 64
        E 0 90 41 64
        E 0 91 41 64
        E 0 92 41 64
        E 0 93 39 5a
        E 0 9f 35 5a
        E 0 80 41 64
        E 0 81 41 64
        E 0 82 41 64
        E 0 83 39 64
        E 0 8f 35 64
        E 38404 90 41 64
        E 0 91 41 64
        E 0 92 41 64
        E 0 93 41 5a
        E 0 9a 41 64
        E 0 9f 35 5a
        E 0 80 41 64
        E 0 81 41 64
        E 0 82 41 64
        E 0 83 41 64
        E 0 8a 41 64
        E 0 8f 35 64
        E 0 90 41 64
        E 0 91 41 64
        E 0 92 41 64
        E 0 93 41 5a
        E 0 9a 41 64
        E 0 9f 35 5a
        E 0 80 41 64
        E 0 81 41 64
        E 0 82 41 64
        E 0 83 41 64
        E 0 8a 41 64
        E 0 8f 35 64
        E 0 90 41 64
        E 0 91 41 64
        E 0 92 41 64
        E 0 93 41 5a
        E 0 9a 41 64
        E 0 9f 35 5a
        E 0 82 41 64
        E 0 92 48 64
        E 0 82 48 64
        E 0 83 41 64
        E 0 8f 35 64
        E 0 92 41 64
        E 0 93 41 5a
        E 0 9f 35 5a
        E 0 82 41 64
        E 0 92 48 64
        E 0 80 41 64
        E 0 81 41 64
        E 0 82 48 64
        E 0 83 41 64
        E 0 8a 41 64
        E 0 8f 35 64
        E 0 90 41 64
        E 0 91 41 64
        E 0 92 41 64
        E 0 93 41 5a
        E 0 9a 41 64
        E 0 9f 35 5a
        E 0 8a 41 64
        E 1 9a 4a 64
        E 0 82 41 64
        E 0 92 4a 64
        E 0 82 4a 64
        E 0 83 41 64
        E 0 8a 4a 64
        E 0 8f 35 64
        E 0 92 41 64
        E 0 93 41 5a
        E 0 9a 48 64
        E 0 9f 35 5a
        E 0 8a 48 64
        E 0 9a 46 66
        E 0 8a 46 66
        E 0 9a 45 64
        E 0 82 41 64
        E 0 8a 45 64
        E 0 92 4a 64
        E 0 9a 43 64
        E 0 82 4a 64
        E 0 83 41 64
        E 0 8a 43 64
        E 0 8f 35 64
        E 0 92 41 64
        E 0 93 41 5a
        E 0 9a 41 64
        E 0 9f 35 5a
        E 0 82 41 64
        E 0 92 48 64
        E 0 82 48 64
        E 0 83 41 64
        E 0 8f 35 64
        E 0 92 41 64
        E 0 93 41 5a
        E 0 9f 35 5a
        E 0 82 41 64
        E 0 92 48 64
        E 0 80 41 64
        E 0 81 41 64
        E 0 82 48 64
        E 0 83 41 64
        E 0 8a 41 64
        E 0 8f 35 64
        E 0 90 41 64
        E 0 91 41 64
        E 0 92 41 64
        E 0 93 41 5a
        E 0 9a 41 64
        E 0 9f 35 5a
        E 0 8a 41 64
        E 0 9a 4a 64
        E 0 82 41 64
        E 0 92 4a 64
        E 0 82 4a 64
        E 0 83 41 64
        E 0 8a 4a 64
        E 0 8f 35 64
        E 0 92 41 64
        E 0 93 41 5a
        E 0 9a 48 64
        E 1 9f 35 5a
        E 0 8a 48 64
        E 0 9a 46 66
        E 0 8a 46 66
        E 0 9a 45 64
        E 0 82 41 64
        E 0 8a 45 64
        E 0 92 4a 64
        E 0 9a 43 64
        E 0 80 41 64
        E 0 81 41 64
        E 0 82 4a 64
        E 0 83 41 64
        E 0 8a 43 64
        E 0 8f 35 64
        E 0 90 41 64
        E 0 91 41 64
        E 0 92 48 64
        E 0 93 41 5a
        E 0 9a 45 64
        E 0 9f 35 5a
        E 0 8a 45 64
        E 0 9a 43 64
        E 0 80 41 64
        E 0 81 41 64
        E 0 82 48 64
        E 0 83 41 64
        E 0 8a 43 64
        E 0 8f 35 64
        E 0 90 41 64
        E 0 91 41 64
        E 0 92 41 64
        E 0 93 41 5a
        E 0 9a 41 64
        E 0 9f 35 5a
        E 0 80 41 64
        E 0 81 41 64
        E 0 82 41 64
        E 0 83 41 64
        E 0 8a 41 64
        E 0 8f 35 64
        E 0 90 41 64
        E 0 91 41 64
        E 0 92 41 64
        E 0 93 41 5a
        E 0 9f 35 5a
        E 0 80 41 64
        E 0 81 41 64
        E 0 82 41 64
        E 0 83 41 64
        E 0 8f 35 64
        E 0 90 41 64
        E 1 91 41 64
        E 0 92 41 64
        E 0 93 41 5a
        E 0 9f 35 5a
        E 0 80 41 64
        E 0 81 41 64
        E 0 82 41 64
        E 0 83 41 64
        E 0 8f 35 64
        E 0 90 3c 64
        E 0 91 3c 64
        E 0 92 3c 64
        E 0 93 3c 5a
        E 0 9f 30 5a
        E 0 80 3c 64
        E 0 81 3c 64
        E 0 82 3c 64
        E 0 83 3c 64
        E 0 8f 30 64
        E 0 90 3c 64
        E 0 91 3c 64
        E 0 92 3c 64
        E 0 93 3c 5a
        E 0 9f 30 5a
        E 0 80 3c 64
        E 0 81 3c 64
        E 0 82 3c 64
        E 0 83 3c 64
        E 0 8f 30 64
        E 0 90 3c 64
        E 0 91 3c 64
        E 0 92 3c 64
        E 0 93 3c 5a
        E 0 9a 3c 64
        E 0 9f 30 5a
        E 0 82 3c 64
        E 0 92 43 64
        E 0 82 43 64
        E 0 83 3c 64
        E 0 8a 3c 64
        E 0 8f 30 64
        E 0 92 3c 64
        E 0 93 3c 5a
        E 0 9a 48 64
        E 0 9f 30 5a
        E 0 82 3c 64
        E 0 92 43 64
        E 0 80 3c 64
        E 0 81 3c 64
        E 0 82 43 64
        E 0 83 3c 64
        E 0 8a 48 64
        E 0 8f 30 64
        E 0 90 3c 64
        E 0 91 3c 64
        E 0 92 3c 64
        E 0 93 3c 5a
        E 1 9a 48 64
        E 0 9f 30 5a
        E 0 8a 48 64
        E 0 9a 46 66
        E 0 8a 46 66
        E 0 9a 45 64
        E 0 82 3c 64
        E 0 92 45 64
        E 0 82 45 64
        E 0 83 3c 64
        E 0 8f 30 64
        E 0 92 3c 64
        E 0 93 3c 5a
        E 0 9f 30 5a
        E 0 82 3c 64
        E 0 92 45 64
        E 0 82 45 64
        E 0 83 3c 64
        E 0 8a 45 64
        E 0 8f 30 64
        E 0 92 3c 64
        E 0 93 3c 5a
        E 0 9a 3c 64
        E 0 9f 30 5a
        E 0 82 3c 64
        E 0 92 43 64
        E 0 82 43 64
        E 0 83 3c 64
        E 0 8a 3c 64
        E 0 8f 30 64
        E 0 92 3c 64
        E 0 93 3c 5a
        E 0 9a 48 64
        E 0 9f 30 5a
        E 0 82 3c 64
        E 0 92 43 64
        E 0 80 3c 64
        E 0 81 3c 64
        E 0 82 43 64
        E 0 83 3c 64
        E 0 8a 48 64
        E 0 8f 30 64
        E 0 90 3c 64
        E 0 91 3c 64
        E 0 92 3c 64
        E 0 93 3c 5a
        E 0 9a 48 64
        E 0 9f 30 5a
        E 0 8a 48 64
        E 0 9a 46 66
        E 0 8a 46 66
        E 0 9a 45 64
        E 0 82 3c 64
        E 0 92 45 64
        E 0 82 45 64
        E 0 83 3c 64
        E 0 8f 30 64
        E 0 92 3c 64
        E 0 93 3c 5a
        E 0 9f 30 5a
        E 0 8a 45 64
        E 0 9a 43 64
        E 0 82 3c 64
        E 0 8a 43 64
        E 0 92 45 64
        E 0 9a 41 64
        E 0 80 3c 64
        E 0 81 3c 64
        E 0 82 45 64
        E 0 83 3c 64
        E 0 8a 41 64
        E 0 8f 30 64
        E 0 90 3c 64
        E 1 91 3c 64
        E 0 92 43 64
        E 0 93 3c 5a
        E 0 9a 40 64
        E 0 9f 30 5a
        E 0 8a 40 64
        E 0 9a 3e 64
        E 0 80 3c 64
        E 0 81 3c 64
        E 0 82 43 64
        E 0 8a 3e 64
        E 0 90 3c 64
        E 0 91 3c 64
        E 0 92 3c 64
        E 0 9a 3c 64
        E 0 80 3c 64
        E 0 81 3c 64
        E 0 82 3c 64
        E 0 83 3c 64
        E 0 8a 3c 64
        E 0 8f 30 64
        E 0 90 3c 64
        E 0 91 3c 64
        E 0 92 3c 64
        E 0 93 3c 5a
        E 0 9f 30 5a
        E 0 80 3c 64
        E 0 81 3c 64
        E 0 82 3c 64
        E 0 90 3c 64
        E 0 91 3c 64
        E 0 92 3c 64
        E 0 80 3c 64
        E 0 81 3c 64
        E 0 82 3c 64
        E 0 83 3c 64
        E 0 8f 30 64
        E 0 92 46 66
        E 0 93 40 5a
        E 0 9a 46 66
        E 0 8a 46 66
        E 0 9a 48 64
        E 0 82 46 66
        E 0 83 40 64
        E 0 8a 48 64
        E 0 92 46 66
        E 0 93 40 5a
        E 0 9a 4a 64
        E 0 82 46 66
        E 0 83 40 64
        E 0 92 46 66
        E 0 93 40 5a
        E 0 82 46 66
        E 0 83 40 64
        E 0 8a 4a 64
        E 0 92 46 66
        E 0 93 40 5a
        E 0 9a 46 66
        E 0 82 46 66
        E 0 83 40 64
        E 0 8a 46 66
        E 0 92 45 64
        E 0 93 41 5a
        E 0 9a 45 64
        E 0 8a 45 64
        E 0 9a 43 64
        E 0 82 45 64
        E 0 83 41 64
        E 0 8a 43 64
        E 0 92 45 64
        E 0 93 41 5a
        E 0 9a 41 64
        E 0 82 45 64
        E 0 83 41 64
        E 0 92 45 64
        E 0 93 41 5a
        E 0 82 45 64
        E 0 83 41 64
        E 0 8a 41 64
        E 0 92 45 64
        E 0 93 41 5a
        E 0 9a 41 64
        E 0 82 45 64
        E 0 83 41 64
        E 0 8a 41 64
        E 0 92 46 66
        E 0 93 40 5a
        E 0 9a 46 66
        E 0 8a 46 66
        E 0 9a 48 64
        E 0 82 46 66
        E 0 83 40 64
        E 0 8a 48 64
        E 0 92 46 66
        E 0 93 40 5a
        E 0 9a 4a 64
        E 0 82 46 66
        E 0 83 40 64
        E 0 92 46 66
        E 0 93 40 5a
        E 0 82 46 66
        E 0 83 40 64
        E 0 8a 4a 64
        E 0 92 46 66
        E 0 93 40 5a
        E 0 9a 48 64
        E 0 8a 48 64
        E 0 9a 46 66
        E 0 82 46 66
        E 0 83 40 64
        E 0 8a 46 66
        E 0 92 45 64
        E 0 93 41 5a
        E 0 9a 45 64
        E 0 8a 45 64
        E 0 9a 43 64
        E 0 82 45 64
        E 0 83 41 64
        E 0 8a 43 64
        E 1 92 45 64
        E 0 93 41 5a
        E 0 9a 41 64
        E 0 82 45 64
        E 0 83 41 64
        E 0 92 45 64
        E 0 93 41 5a
        E 0 82 45 64
        E 0 83 41 64
        E 0 92 45 64
        E 0 93 41 5a
        E 0 82 45 64
        E 0 83 41 64
        E 0 8a 41 64
        E 0 92 41 64
        E 0 93 41 5a
        E 0 9a 41 64
        E 0 9f 35 5a
        E 0 82 41 64
        E 0 83 41 64
        E 0 8a 41 64
        E 0 8f 35 64
        E 0 92 40 64
        E 0 93 40 5a
        E 0 9a 40 64
        E 0 9f 34 5a
        E 0 82 40 64
        E 0 83 40 64
        E 0 8a 40 64
        E 0 8f 34 64
        E 0 92 3e 64
        E 0 93 3e 5a
        E 0 9a 3e 64
        E 0 9f 32 5a
        E 0 82 3e 64
        E 0 83 3e 64
        E 0 8a 3e 64
        E 0 8f 32 64
        E 0 92 3c 64
        E 0 93 3c 5a
        E 0 9a 3c 64
        E 0 9f 30 5a
        E 0 82 3c 64
        E 0 83 3c 64
        E 0 8a 3c 64
        E 0 8f 30 64
        E 0 92 41 64
        E 0 93 41 5a
        E 0 9a 41 64
        E 0 9f 35 5a
        E 0 82 41 64
        E 0 83 41 64
        E 0 8a 41 64
        E 0 8f 35 64
        E 0 92 43 64
        E 0 93 43 5a
        E 0 9a 43 64
        E 0 9f 37 5a
        E 0 82 43 64
        E 0 83 43 64
        E 0 8a 43 64
        E 0 8f 37 64
        E 0 92 45 64
        E 0 93 45 5a
        E 0 9a 45 64
        E 0 9f 39 5a
        E 0 82 45 64
        E 0 83 45 64
        E 0 8a 45 64
        E 0 8f 39 64
        E 0 92 47 64
        E 0 93 47 5a
        E 0 9a 47 64
        E 0 9f 3b 5a
        E 0 82 47 64
        E 0 83 47 64
        E 0 8a 47 64
        E 0 8f 3b 64
        E 0 92 48 64
        E 0 93 48 5a
        E 0 9a 48 64
        E 0 9f 3c 5a
        E 0 82 48 64
        E 0 83 48 64
        E 0 8a 48 64
        E 0 8f 3c 64
        E 0 92 3c 64
        E 0 93 3c 5a
        E 0 9a 3c 64
        E 0 9f 30 5a
        E 38404 82 3c 64
        E 0 83 3c 64
        E 0 8a 3c 64
        E 0 8f 30 64
        E 0 92 51 64
        E 0 93 45 5a
        E 0 9a 45 64
        E 0 82 51 64
        E 0 83 45 64
        E 0 92 51 64
        E 0 93 45 5a
        E 0 82 51 64
        E 0 83 45 64
        E 0 8a 45 64
        E 0 92 51 64
        E 1 93 45 5a
        E 0 9a 45 64
        E 0 82 51 64
        E 0 83 45 64
        E 0 92 51 64
        E 0 93 45 5a
        E 0 82 51 64
        E 0 83 45 64
        E 0 8a 45 64
        E 0 92 51 64
        E 0 93 45 5a
        E 0 9a 45 64
        E 0 82 51 64
        E 0 92 52 66
        E 0 82 52 66
        E 0 8a 45 64
        E 0 92 54 64
        E 0 9a 46 66
        E 0 82 54 64
        E 0 92 52 66
        E 0 82 52 66
        E 0 83 45 64
        E 0 8a 46 66
        E 0 92 51 64
        E 0 93 45 5a
        E 0 9a 45 64
        E 0 82 51 64
        E 0 8a 45 64
        E 0 9a 46 66
        E 0 83 45 64
        E 0 8a 46 66
        E 0 92 51 64
        E 0 93 45 5a
        E 0 9a 45 64
        E 0 82 51 64
        E 0 92 52 66
        E 0 82 52 66
        E 0 92 54 64
        E 0 82 54 64
        E 0 92 52 66
        E 0 82 52 66
        E 0 83 45 64
        E 0 8a 45 64
        E 0 92 51 64
        E 0 93 45 5a
        E 0 82 51 64
        E 0 83 45 64
        E 0 92 4a 64
        E 0 93 46 5b
        E 0 9a 46 66
        E 0 82 4a 64
        E 0 92 4b 66
        E 0 82 4b 66
        E 0 8a 46 66
        E 0 92 4d 64
        E 0 9a 48 64
        E 0 82 4d 64
        E 0 92 4b 66
        E 0 82 4b 66
        E 0 83 46 66
        E 0 8a 48 64
        E 0 92 4a 64
        E 0 93 46 5b
        E 0 9a 46 66
        E 1 82 4a 64
        E 0 8a 46 66
        E 0 9a 48 64
        E 0 83 46 66
        E 0 8a 48 64
        E 0 92 4a 64
        E 0 93 46 5b
        E 0 9a 46 66
        E 0 82 4a 64
        E 0 92 4b 66
        E 0 82 4b 66
        E 0 92 4d 64
        E 0 82 4d 64
        E 0 92 4b 66
        E 0 82 4b 66
        E 0 83 46 66
        E 0 8a 46 66
        E 0 92 4a 64
        E 0 93 46 5b
        E 0 82 4a 64
        E 0 83 46 66
        E 0 92 53 64
        E 0 93 47 5a
        E 0 9a 47 64
        E 0 82 53 64
        E 0 92 54 64
        E 0 82 54 64
        E 0 8a 47 64
        E 0 92 56 64
        E 0 9a 48 64
        E 0 82 56 64
        E 0 92 54 64
        E 0 82 54 64
        E 0 83 47 64
        E 0 8a 48 64
        E 0 92 53 64
        E 0 93 47 5a
        E 0 9a 47 64
        E 0 82 53 64
        E 0 8a 47 64
        E 0 9a 48 64
        E 0 83 47 64
        E 0 8a 48 64
        E 0 92 53 64
        E 0 93 47 5a
        E 0 9a 47 64
        E 0 82 53 64
        E 1 92 54 64
        E 0 82 54 64
        E 0 92 56 64
        E 0 82 56 64
        E 0 92 54 64
        E 0 82 54 64
        E 0 83 47 64
        E 0 8a 47 64
        E 0 92 53 64
        E 0 93 47 5a
        E 0 82 53 64
        E 0 83 47 64
        E 0 92 4c 64
        E 0 93 48 5a
        E 0 9a 48 64
        E 0 82 4c 64
        E 0 92 4d 64
        E 0 82 4d 64
        E 0 8a 48 64
        E 0 92 4f 64
        E 0 9a 4a 64
        E 0 82 4f 64
        E 0 92 4d 64
        E 0 82 4d 64
        E 0 83 48 64
        E 0 8a 4a 64
        E 0 92 4c 64
        E 0 93 48 5a
        E 0 9a 48 64
        E 0 82 4c 64
        E 0 8a 48 64
        E 0 9a 4a 64
        E 0 83 48 64
        E 0 8a 4a 64
        E 0 92 4c 64
        E 0 93 48 5a
        E 0 9a 48 64
        E 0 82 4c 64
        E 0 92 4d 64
        E 0 82 4d 64
        E 0 92 4f 64
        E 0 82 4f 64
        E 0 92 4d 64
        E 0 82 4d 64
        E 1 83 48 64
        E 0 8a 48 64
        E 0 92 4c 64
        E 0 93 48 5a
        E 0 82 4c 64
        E 0 83 48 64
        E 0 92 4c 64
        E 0 93 37 5a
        E 0 9f 30 5a
        E 0 82 4c 64
        E 0 92 4f 64
        E 0 82 4f 64
        E 0 83 37 64
        E 0 8f 30 64
        E 0 92 4d 64
        E 0 93 37 5a
        E 0 9f 2b 5a
        E 0 82 4d 64
        E 0 83 37 64
        E 0 8f 2b 64
        E 0 92 4c 64
        E 0 93 37 5a
        E 0 9a 43 64
        E 0 9f 30 5a
        E 0 82 4c 64
        E 0 92 4f 64
        E 0 82 4f 64
        E 0 83 37 64
        E 0 8a 43 64
        E 0 8f 30 64
        E 0 92 4d 64
        E 0 93 37 5a
        E 0 9a 43 64
        E 0 9f 2b 5a
        E 0 82 4d 64
        E 0 83 37 64
        E 0 8a 43 64
        E 0 8f 2b 64
        E 0 92 4c 64
        E 0 93 37 5a
        E 0 9a 48 64
        E 0 82 4c 64
        E 0 92 4f 64
        E 0 82 4f 64
        E 0 92 4d 64
        E 0 82 4d 64
        E 0 83 37 64
        E 0 8a 48 64
        E 0 92 4c 64
        E 0 93 37 5a
        E 0 9a 43 64
        E 0 82 4c 64
        E 0 8a 43 64
        E 0 92 4f 64
        E 0 9a 43 64
        E 0 82 4f 64
        E 0 92 4d 64
        E 0 82 4d 64
        E 0 83 37 64
        E 0 8a 43 64
        E 0 92 4c 64
        E 0 93 37 5a
        E 0 9a 43 64
        E 0 82 4c 64
        E 0 92 4f 64
        E 0 82 4f 64
        E 0 92 4d 64
        E 0 82 4d 64
        E 0 83 37 64
        E 0 8a 43 64
        E 0 92 4c 64
        E 0 93 37 5a
        E 0 9a 43 64
        E 0 82 4c 64
        E 0 92 4f 64
        E 0 82 4f 64
        E 0 92 4d 64
        E 0 82 4d 64
        E 0 83 37 64
        E 0 8a 43 64
        E 0 92 4c 64
        E 0 93 37 5a
        E 0 9a 48 64
        E 1 9f 30 5a
        E 0 82 4c 64
        E 0 92 43 64
        E 0 82 43 64
        E 0 83 37 64
        E 0 8a 48 64
        E 0 8f 30 64
        E 0 92 41 64
        E 0 93 37 5a
        E 0 9a 43 64
        E 0 9f 2b 5a
        E 0 82 41 64
        E 0 83 37 64
        E 0 8a 43 64
        E 0 8f 2b 64
        E 0 92 40 64
        E 0 93 37 5a
        E 0 9a 48 64
        E 0 9f 30 5a
        E 0 82 40 64
        E 0 92 43 64
        E 0 82 43 64
        E 0 83 37 64
        E 0 8a 48 64
        E 0 8f 30 64
        E 0 92 41 64
        E 0 93 37 5a
        E 0 9a 43 64
        E 0 9f 2b 5a
        E 0 82 41 64
        E 0 83 37 64
        E 0 8a 43 64
        E 0 8f 2b 64
        E 0 92 40 64
        E 0 93 37 5a
        E 0 9a 48 64
        E 0 82 40 64
        E 0 92 43 64
        E 0 82 43 64
        E 0 92 41 64
        E 0 82 41 64
        E 0 83 37 64
        E 0 8a 48 64
        E 0 92 40 64
        E 0 93 37 5a
        E 0 9a 48 64
        E 0 82 40 64
        E 0 92 43 64
        E 0 82 43 64
        E 0 92 41 64
        E 0 82 41 64
        E 0 83 37 64
        E 0 8a 48 64
        E 0 92 40 64
        E 0 93 37 5a
        E 0 9a 48 64
        E 0 82 40 64
        E 0 92 43 64
        E 0 82 43 64
        E 0 92 41 64
        E 0 82 41 64
        E 0 83 37 64
        E 0 8a 48 64
        E 0 92 40 64
        E 0 93 37 5a
        E 0 9a 48 64
        E 0 82 40 64
        E 0 92 43 64
        E 0 82 43 64
        E 0 92 41 64
        E 0 82 41 64
        E 0 83 37 64
        E 0 8a 48 64
        E 0 90 3c 64
        E 0 91 3c 64
        E 0 92 40 64
        E 0 93 37 5a
        E 0 9a 48 64
        E 0 9f 30 5a
        E 0 82 40 64
        E 0 92 4c 64
        E 0 80 3c 64
        E 0 81 3c 64
        E 0 82 4c 64
        E 0 83 37 64
        E 0 8a 48 64
        E 0 8f 30 64
        E 0 90 3c 64
        E 0 91 3c 64
        E 0 92 4a 64
        E 0 93 37 5a
        E 0 9a 47 64
        E 0 9f 37 5a
        E 0 82 4a 64
        E 1 8a 47 64
        E 0 92 48 64
        E 0 9a 45 64
        E 0 80 3c 64
        E 0 81 3c 64
        E 0 82 48 64
        E 0 83 37 64
        E 0 8a 45 64
        E 0 8f 37 64
        E 0 90 43 64
        E 0 91 43 64
        E 0 92 47 64
        E 0 93 37 5a
        E 0 9a 43 64
        E 0 9f 2f 5a
        E 0 82 47 64
        E 0 8a 43 64
        E 0 92 45 64
        E 0 9a 41 64
        E 0 80 43 64
        E 0 81 43 64
        E 0 82 45 64
        E 0 83 37 64
        E 0 8a 41 64
        E 0 8f 2f 64
        E 0 90 43 64
        E 0 91 43 64
        E 0 92 43 64
        E 0 93 37 5a
        E 0 9a 40 64
        E 0 9f 2b 5a
        E 0 82 43 64
        E 0 8a 40 64
        E 0 92 41 64
        E 0 9a 3e 64
        E 0 80 43 64
        E 0 81 43 64
        E 0 82 41 64
        E 0 83 37 64
        E 0 8a 3e 64
        E 0 8f 2b 64
        E 0 90 3c 64
        E 0 91 3c 64
        E 0 92 40 64
        E 0 93 37 5a
        E 0 9a 40 64
        E 0 9f 30 5a
        E 0 80 3c 64
        E 0 81 3c 64
        E 0 82 40 64
        E 0 83 37 64
        E 0 8a 40 64
        E 0 8f 30 64
        E 0 90 3c 64
        E 1 91 3c 64
        E 0 92 48 64
        E 0 93 37 5a
        E 0 9a 48 64
        E 0 9f 24 5a
        E 0 80 3c 64
        E 0 81 3c 64
        E 0 82 48 64
        E 0 83 37 64
        E 0 8a 48 64
        E 0 8f 24 64
        E 0 90 43 64
        E 0 91 43 64
        E 0 92 4a 64
        E 0 93 37 5a
        E 0 9a 47 64
        E 0 9f 37 5a
        E 0 80 43 64
        E 0 81 43 64
        E 0 83 37 64
        E 0 8f 37 64
        E 0 90 43 64
        E 0 91 43 64
        E 0 93 37 5a
        E 0 9f 2b 5a
        E 0 80 43 64
        E 0 81 43 64
        E 0 82 4a 64
        E 0 83 37 64
        E 0 8a 47 64
        E 0 8f 2b 64
        E 0 90 3c 64
        E 0 91 3c 64
        E 0 92 48 64
        E 0 93 37 5a
        E 0 9a 48 64
        E 0 9f 30 5a
        E 0 82 48 64
        E 0 92 4f 64
        E 0 82 4f 64
        E 0 92 4d 64
        E 0 80 3c 64
        E 0 81 3c 64
        E 0 82 4d 64
        E 0 83 37 64
        E 0 8f 30 64
        E 0 90 3c 64
        E 0 91 3c 64
        E 0 92 4c 64
        E 0 93 43 5a
        E 0 9f 30 5a
        E 0 82 4c 64
        E 0 92 4f 64
        E 0 82 4f 64
        E 0 92 4d 64
        E 0 80 3c 64
        E 0 81 3c 64
        E 0 82 4d 64
        E 0 83 43 64
        E 0 8a 48 64
        E 0 8f 30 64
        E 0 90 3c 64
        E 0 91 3c 64
        E 0 92 4c 64
        E 0 93 43 5a
        E 0 9f 30 5a
        E 0 82 4c 64
        E 0 92 4f 64
        E 0 82 4f 64
        E 0 92 4d 64
        E 0 80 3c 64
        E 0 81 3c 64
        E 0 82 4d 64
        E 0 83 43 64
        E 0 8f 30 64
        E 0 90 3c 64
        E 0 91 3c 64
        E 0 92 4c 64
        E 0 93 43 5a
        E 0 9f 30 5a
        E 0 82 4c 64
        E 0 92 4f 64
        E 0 82 4f 64
        E 0 92 4d 64
        E 0 80 3c 64
        E 0 81 3c 64
        E 0 82 4d 64
        E 0 83 43 64
        E 0 8f 30 64
        E 0 90 3c 64
        E 1 91 3c 64
        E 0 92 4c 64
        E 0 93 43 5a
        E 0 9f 30 5a
        E 0 82 4c 64
        E 0 92 4d 64
        E 0 82 4d 64
        E 0 92 4f 64
        E 0 82 4f 64
        E 0 92 4d 64
        E 0 80 3c 64
        E 0 81 3c 64
        E 0 82 4d 64
        E 0 83 43 64
        E 0 8f 30 64
        E 0 90 3c 64
        E 0 91 3c 64
        E 0 92 4c 64
        E 0 93 43 5a
        E 0 9f 30 5a
        E 0 82 4c 64
        E 0 80 3c 64
        E 0 81 3c 64
        E 0 83 43 64
        E 0 8f 30 64
        E 0 90 3c 64
        E 0 91 3c 64
        E 0 92 4c 64
        E 0 93 43 5a
        E 0 9f 30 5a
        E 0 82 4c 64
        E 0 92 4d 64
        E 0 82 4d 64
        E 0 92 4f 64
        E 0 82 4f 64
        E 0 92 4d 64
        E 0 80 3c 64
        E 0 81 3c 64
        E 0 82 4d 64
        E 0 83 43 64
        E 0 8f 30 64
        E 0 90 3c 64
        E 0 91 3c 64
        E 0 92 4c 64
        E 0 93 43 5a
        E 0 9f 30 5a
        E 0 82 4c 64
        E 0 80 3c 64
        E 0 81 3c 64
        E 0 83 43 64
        E 0 8f 30 64
        E 0 92 54 64
        E 0 93 4c 5a
        E 0 9f 30 5a
        E 0 82 54 64
        E 0 83 4c 64
        E 0 8f 30 64
        E 0 92 4f 64
        E 0 93 48 5a
        E 0 9f 24 5a
        E 0 82 4f 64
        E 0 83 48 64
        E 0 8f 24 64
        E 0 92 4c 64
        E 0 93 43 5a
        E 0 9f 30 5a
        E 0 82 4c 64
        E 0 83 43 64
        E 0 8f 30 64
        E 0 92 48 64
        E 0 93 40 5a
        E 0 9f 24 5a
        E 0 82 48 64
        E 0 83 40 64
        E 0 8f 24 64
        E 0 92 41 64
        E 0 93 41 5a
        E 0 9f 35 5a
        E 1 82 41 64
        E 0 83 41 64
        E 0 8f 35 64
        E 0 92 43 64
        E 0 93 43 5a
        E 0 9f 37 5a
        E 0 82 43 64
        E 0 83 43 64
        E 0 8f 37 64
        E 0 90 3c 64
        E 0 91 3c 64
        E 0 92 3c 64
        E 0 93 3c 5a
        E 0 9a 43 64
        E 0 9f 30 5a
        E 0 80 3c 64
        E 0 81 3c 64
        E 0 82 3c 64
        E 0 83 3c 64
        E 0 8a 43 64
        E 0 8f 30 64
        E 0 90 3c 64
        E 0 91 3c 64
        E 0 92 3c 64
        E 0 93 3c 5a
        E 0 9a 43 64
        E 0 9f 30 5a
        E 0 80 3c 64
        E 0 81 3c 64
        E 0 82 3c 64
        E 0 83 3c 64
        E 0 8a 43 64
        E 0 8f 30 64
        E 1 90 3c 64
        E 0 91 3c 64
        E 0 92 3c 64
        E 0 93 3c 5a
        E 0 9a 43 64
        E 0 9f 30 5a
        E 0 82 3c 64
        E 0 92 43 64
        E 0 82 43 64
        E 0 83 3c 64
        E 0 8f 30 64
        E 0 92 3c 64
        E 0 93 3c 5a
        E 0 9f 30 5a
        E 0 82 3c 64
        E 0 92 43 64
        E 0 80 3c 64
        E 0 81 3c 64
        E 0 82 43 64
        E 0 83 3c 64
        E 0 8a 43 64
        E 0 8f 30 64
        E 0 90 3c 64
        E 0 91 3c 64
        E 0 92 3c 64
        E 0 93 3c 5a
        E 0 9a 43 64
        E 0 9f 30 5a
        E 0 8a 43 64
        E 0 9a 48 64
        E 0 8a 48 64
        E 0 9a 46 66
        E 0 82 3c 64
        E 0 8a 46 66
        E 0 92 45 64
        E 0 9a 45 64
        E 0 82 45 64
        E 0 83 3c 64
        E 0 8a 45 64
        E 0 8f 30 64
        E 0 92 3c 64
        E 0 93 3c 5a
        E 0 9a 43 64
        E 0 9f 30 5a
        E 0 8a 43 64
        E 0 9a 41 64
        E 0 8a 41 64
        E 0 9a 40 64
        E 0 82 3c 64
        E 1 8a 40 64
        E 0 92 45 64
        E 0 9a 3e 64
        E 0 82 45 64
        E 0 83 3c 64
        E 0 8a 3e 64
        E 0 8f 30 64
        E 0 92 3c 64
        E 0 93 3c 5a
        E 0 9a 3c 64
        E 0 9f 30 5a
        E 0 82 3c 64
        E 0 92 43 64
        E 0 82 43 64
        E 0 83 3c 64
        E 0 8f 30 64
        E 0 92 3c 64
        E 0 93 3c 5a
        E 0 9f 30 5a
        E 0 82 3c 64
        E 0 92 43 64
        E 0 80 3c 64
        E 0 81 3c 64
        E 0 82 43 64
        E 0 83 3c 64
        E 0 8a 3c 64
        E 0 8f 30 64
        E 0 90 3c 64
        E 0 91 3c 64
        E 0 92 3c 64
        E 0 93 3c 5a
        E 0 9a 3c 64
        E 0 9f 30 5a
        E 0 8a 3c 64
        E 0 9a 3e 64
        E 0 82 3c 64
        E 0 8a 3e 64
        E 0 92 45 64
        E 0 9a 40 64
        E 0 82 45 64
        E 0 83 3c 64
        E 0 8a 40 64
        E 0 8f 30 64
        E 0 92 3c 64
        E 0 93 3c 5a
        E 0 9a 41 64
        E 0 9f 30 5a
        E 0 8a 41 64
        E 0 9a 43 64
        E 1 8a 43 64
        E 0 9a 45 64
        E 0 82 3c 64
        E 0 8a 45 64
        E 0 92 45 64
        E 0 9a 47 64
        E 0 80 3c 64
        E 0 81 3c 64
        E 0 82 45 64
        E 0 83 3c 64
        E 0 8a 47 64
        E 0 8f 30 64
        E 0 90 3c 64
        E 0 91 3c 64
        E 0 92 43 64
        E 0 93 3c 5a
        E 0 9a 48 64
        E 0 9f 30 5a
        E 0 80 3c 64
        E 0 81 3c 64
        E 0 82 43 64
        E 0 90 3c 64
        E 0 91 3c 64
        E 0 92 3c 64
        E 0 80 3c 64
        E 0 81 3c 64
        E 0 82 3c 64
        E 0 83 3c 64
        E 0 8a 48 64
        E 0 8f 30 64
        E 1 90 3c 64
        E 0 91 3c 64
        E 0 92 3c 64
        E 0 93 3c 5a
        E 0 9a 3c 64
        E 0 9f 30 5a
        E 0 80 3c 64
        E 0 81 3c 64
        E 0 82 3c 64
        E 0 90 3c 64
        E 0 91 3c 64
        E 0 92 3c 64
        E 38407 80 3c 64
        E 0 81 3c 64
        E 0 82 3c 64
        E 0 83 3c 64
        E 0 8a 3c 64
        E 0 8f 30 64
        E 0 92 4a 64
        E 0 93 42 5a
        E 0 9a 3e 64
        E 0 82 4a 64
        E 0 83 42 64
        E 0 8a 3e 64
        E 0 92 4a 64
        E 0 93 42 5a
        E 1 9a 42 64
        E 0 82 4a 64
        E 0 83 42 64
        E 0 8a 42 64
        E 0 92 4a 64
        E 0 93 42 5a
        E 0 9a 45 64
        E 0 82 4a 64
        E 0 83 42 64
        E 0 8a 45 64
        E 0 92 4a 64
        E 0 93 42 5a
        E 0 9a 48 64
        E 0 82 4a 64
        E 0 83 42 64
        E 0 8a 48 64
        E 0 92 4a 64
        E 0 93 43 5a
        E 0 9a 46 66
        E 0 8a 46 66
        E 0 9a 45 64
        E 0 82 4a 64
        E 0 83 43 64
        E 0 8a 45 64
        E 0 92 4a 64
        E 0 93 43 5a
        E 0 9a 43 64
        E 0 82 4a 64
        E 0 83 43 64
        E 0 8a 43 64
        E 0 92 4a 64
        E 0 93 43 5a
        E 0 82 4a 64
        E 0 83 43 64
        E 0 92 4a 64
        E 0 93 43 5a
        E 0 82 4a 64
        E 0 83 43 64
        E 0 92 48 64
        E 0 93 40 5a
        E 0 9a 3c 64
        E 0 82 48 64
        E 0 83 40 64
        E 0 8a 3c 64
        E 0 92 48 64
        E 0 93 40 5a
        E 0 9a 40 64
        E 0 82 48 64
        E 0 83 40 64
        E 0 8a 40 64
        E 0 92 48 64
        E 0 93 40 5a
        E 0 9a 43 64
        E 0 82 48 64
        E 0 83 40 64
        E 0 8a 43 64
        E 0 92 48 64
        E 0 93 40 5a
        E 0 9a 46 66
        E 0 82 48 64
        E 0 83 40 64
        E 0 8a 46 66
        E 0 92 48 64
        E 0 93 41 5a
        E 0 9a 45 64
        E 0 8a 45 64
        E 0 9a 43 64
        E 0 82 48 64
        E 0 83 41 64
        E 0 8a 43 64
        E 0 92 48 64
        E 0 93 41 5a
        E 0 9a 41 64
        E 0 82 48 64
        E 0 83 41 64
        E 0 8a 41 64
        E 0 92 48 64
        E 0 93 41 5a
        E 0 82 48 64
        E 0 83 41 64
        E 1 92 48 64
        E 0 93 41 5a
        E 0 82 48 64
        E 0 83 41 64
        E 0 92 4d 64
        E 0 93 45 5a
        E 0 9a 45 64
        E 0 9f 35 5a
        E 0 82 4d 64
        E 0 83 45 64
        E 0 92 4d 64
        E 0 93 45 5a
        E 0 82 4d 64
        E 0 83 45 64
        E 0 8f 35 64
        E 0 92 48 64
        E 0 93 41 5a
        E 0 9f 35 5a
        E 0 82 48 64
        E 0 83 41 64
        E 0 92 48 64
        E 0 93 41 5a
        E 0 82 48 64
        E 0 83 41 64
        E 0 8f 35 64
        E 0 92 45 64
        E 0 93 3c 5a
        E 0 9f 35 5a
        E 0 82 45 64
        E 0 83 3c 64
        E 0 92 45 64
        E 0 93 3c 5a
        E 0 82 45 64
        E 0 83 3c 64
        E 0 8a 45 64
        E 0 8f 35 64
        E 0 92 41 64
        E 0 93 39 5a
        E 0 9a 45 64
        E 0 9f 35 5a
        E 0 82 41 64
        E 0 83 39 64
        E 0 92 41 64
        E 0 93 39 5a
        E 0 82 41 64
        E 0 83 39 64
        E 0 8a 45 64
        E 0 8f 35 64
        E 0 92 3a 66
        E 0 93 3a 5b
        E 0 9a 46 66
        E 0 9f 2e 5b
        E 1 82 3a 66
        E 0 83 3a 66
        E 0 8f 2e 66
        E 0 92 3a 66
        E 0 93 3a 5b
        E 0 9f 2e 5b
        E 0 82 3a 66
        E 0 83 3a 66
        E 0 8a 46 66
        E 0 8f 2e 66
        E 0 92 3e 64
        E 0 93 3e 5a
        E 0 9a 41 64
        E 0 9f 32 5a
        E 0 82 3e 64
        E 0 83 3e 64
        E 0 8f 32 64
        E 0 92 3e 64
        E 0 93 3e 5a
        E 1 9f 32 5a
        E 0 82 3e 64
        E 0 83 3e 64
        E 0 8a 41 64
        E 0 8f 32 64
        E 0 92 41 64
        E 0 93 41 5a
        E 0 9a 41 64
        E 0 9f 35 5a
        E 0 82 41 64
        E 0 83 41 64
        E 0 8f 35 64
        E 0 92 41 64
        E 0 93 41 5a
        E 0 9f 35 5a
        E 0 82 41 64
        E 0 83 41 64
        E 0 8a 41 64
        E 0 8f 35 64
        E 0 92 46 66
        E 0 93 46 5b
        E 0 9a 4a 64
        E 0 9f 3a 5b
        E 0 82 46 66
        E 0 83 46 66
        E 0 8f 3a 66
        E 0 92 46 66
        E 1 93 46 5b
        E 0 9f 3a 5b
        E 0 82 46 66
        E 0 83 46 66
        E 0 8a 4a 64
        E 0 8f 3a 66
        E 0 92 4f 64
        E 0 93 47 5a
        E 0 9a 47 64
        E 0 9f 37 5a
        E 0 82 4f 64
        E 0 83 47 64
        E 0 92 4f 64
        E 0 93 47 5a
        E 0 82 4f 64
        E 0 83 47 64
        E 0 8a 47 64
        E 0 8f 37 64
        E 0 92 4a 64
        E 0 93 43 5a
        E 1 9a 43 64
        E 0 9f 37 5a
        E 0 82 4a 64
        E 0 83 43 64
        E 0 92 4a 64
        E 0 93 43 5a
        E 0 82 4a 64
        E 0 83 43 64
        E 0 8a 43 64
        E 0 8f 37 64
        E 0 92 47 64
        E 0 93 3e 5a
        E 0 9a 43 64
        E 0 9f 37 5a
        E 0 82 47 64
        E 0 83 3e 64
        E 0 92 47 64
        E 0 93 3e 5a
        E 0 82 47 64
        E 0 83 3e 64
        E 0 8a 43 64
        E 0 8f 37 64
        E 1 92 43 64
        E 0 93 3b 5a
        E 0 9a 47 64
        E 0 9f 37 5a
        E 0 82 43 64
        E 0 83 3b 64
        E 0 92 43 64
        E 0 93 3b 5a
        E 0 82 43 64
        E 0 83 3b 64
        E 0 8a 47 64
        E 0 8f 37 64
        E 0 92 3c 64
        E 0 93 3c 5a
        E 0 9a 48 64
        E 1 9f 30 5a
        E 0 82 3c 64
        E 0 83 3c 64
        E 0 8f 30 64
        E 0 92 3c 64
        E 0 93 3c 5a
        E 0 9f 30 5a
        E 0 82 3c 64
        E 0 83 3c 64
        E 0 8a 48 64
        E 0 8f 30 64
        E 0 92 40 64
        E 0 93 40 5a
        E 1 9a 3c 64
        E 0 9f 34 5a
        E 0 82 40 64
        E 0 83 40 64
        E 0 8f 34 64
        E 0 92 40 64
        E 0 93 40 5a
        E 0 9f 34 5a
        E 0 82 40 64
        E 0 83 40 64
        E 0 8a 3c 64
        E 0 8f 34 64
        E 0 92 43 64
        E 0 93 43 5a
        E 1 9f 37 5a
        E 0 82 43 64
        E 0 83 43 64
        E 0 8f 37 64
        E 0 92 43 64
        E 0 93 43 5a
        E 0 9f 37 5a
        E 0 82 43 64
        E 0 83 43 64
        E 0 8f 37 64
        E 0 92 48 64
        E 0 93 48 5a
        E 0 9f 3c 5a
        E 0 82 48 64
        E 0 83 48 64
        E 0 8f 3c 64
        E 0 92 48 64
        E 0 93 48 5a
        E 1 9f 3c 5a
        E 0 82 48 64
        E 0 83 48 64
        E 0 8f 3c 64
        E 0 90 48 64
        E 0 91 45 64
        E 0 92 48 64
        E 0 93 41 5a
        E 0 9a 48 64
        E 0 9f 29 5a
        E 0 8f 29 64
        E 0 9f 29 5a
        E 0 8f 29 64
        E 0 9f 29 5a
        E 0 8a 48 64
        E 0 8f 29 64
        E 0 9a 46 66
        E 0 9f 29 5a
        E 0 80 48 64
        E 0 81 45 64
        E 0 82 48 64
        E 0 83 41 64
        E 0 8a 46 66
        E 0 8f 29 64
        E 0 90 45 64
        E 0 91 41 64
        E 0 92 45 64
        E 0 93 3c 5a
        E 0 9a 45 64
        E 0 9f 29 5a
        E 0 8f 29 64
        E 0 9f 29 5a
        E 0 8f 29 64
        E 0 9f 29 5a
        E 0 8a 45 64
        E 0 8f 29 64
        E 0 9a 43 64
        E 0 9f 29 5a
        E 0 80 45 64
        E 0 81 41 64
        E 0 82 45 64
        E 0 83 3c 64
        E 0 8a 43 64
        E 0 8f 29 64
        E 0 90 41 64
        E 0 91 3c 64
        E 0 92 41 64
        E 0 93 39 5a
        E 0 9a 41 64
        E 1 9f 29 5a
        E 0 8f 29 64
        E 0 9f 29 5a
        E 0 8f 29 64
        E 0 9f 29 5a
        E 0 8a 41 64
        E 0 8f 29 64
        E 0 9a 41 64
        E 0 9f 29 5a
        E 0 80 41 64
        E 0 81 3c 64
        E 0 82 41 64
        E 0 83 39 64
        E 0 8a 41 64
        E 0 8f 29 64
        E 0 90 3c 64
        E 0 91 39 64
        E 0 92 3c 64
        E 0 93 35 5a
        E 0 9a 48 64
        E 0 9f 29 5a
        E 0 8f 29 64
        E 0 9f 29 5a
        E 0 8a 48 64
        E 0 8f 29 64
        E 0 9a 3c 64
        E 0 9f 29 5a
        E 0 8f 29 64
        E 0 9f 29 5a
        E 0 80 3c 64
        E 0 81 39 64
        E 0 82 3c 64
        E 0 83 35 64
        E 0 8a 3c 64
        E 0 8f 29 64
        E 0 92 51 64
        E 0 93 45 5a
        E 0 9a 45 64
        E 0 82 51 64
        E 0 83 45 64
        E 0 92 51 64
        E 0 93 45 5a
        E 0 82 51 64
        E 0 83 45 64
        E 0 8a 45 64
        E 0 92 51 64
        E 0 93 45 5a
        E 0 9a 45 64
        E 0 82 51 64
        E 0 83 45 64
        E 0 92 51 64
        E 0 93 45 5a
        E 0 82 51 64
        E 0 83 45 64
        E 0 8a 45 64
        E 0 92 51 64
        E 0 93 45 5a
        E 0 9a 45 64
        E 0 82 51 64
        E 0 92 52 66
        E 0 82 52 66
        E 0 8a 45 64
        E 0 92 54 64
        E 0 9a 46 66
        E 0 82 54 64
        E 0 92 52 66
        E 0 82 52 66
        E 0 83 45 64
        E 0 8a 46 66
        E 0 92 51 64
        E 0 93 45 5a
        E 0 9a 45 64
        E 0 82 51 64
        E 0 8a 45 64
        E 0 9a 46 66
        E 0 83 45 64
        E 0 8a 46 66
        E 0 92 51 64
        E 0 93 45 5a
        E 0 9a 45 64
        E 0 82 51 64
        E 0 92 52 66
        E 0 82 52 66
        E 0 92 54 64
        E 0 82 54 64
        E 0 92 52 66
        E 0 82 52 66
        E 0 83 45 64
        E 0 8a 45 64
        E 0 92 51 64
        E 0 93 45 5a
        E 0 82 51 64
        E 0 83 45 64
        E 0 92 4a 64
        E 0 93 46 5b
        E 0 9a 46 66
        E 0 82 4a 64
        E 0 92 4b 66
        E 0 82 4b 66
        E 0 8a 46 66
        E 0 92 4d 64
        E 0 9a 48 64
        E 0 82 4d 64
        E 0 92 4b 66
        E 0 82 4b 66
        E 0 83 46 66
        E 0 8a 48 64
        E 0 92 4a 64
        E 0 93 46 5b
        E 0 9a 46 66
        E 0 82 4a 64
        E 0 8a 46 66
        E 0 9a 48 64
        E 0 83 46 66
        E 0 8a 48 64
        E 1 92 4a 64
        E 0 93 46 5b
        E 0 9a 46 66
        E 0 82 4a 64
        E 0 92 4b 66
        E 0 82 4b 66
        E 0 92 4d 64
        E 0 82 4d 64
        E 0 92 4b 66
        E 0 82 4b 66
        E 0 83 46 66
        E 0 8a 46 66
        E 0 92 4a 64
        E 0 93 46 5b
        E 0 82 4a 64
        E 0 83 46 66
        E 0 92 53 64
        E 0 93 47 5a
        E 0 9a 47 64
        E 0 82 53 64
        E 0 92 54 64
        E 0 82 54 64
        E 0 8a 47 64
        E 0 92 56 64
        E 0 9a 48 64
        E 0 82 56 64
        E 0 92 54 64
        E 0 82 54 64
        E 0 83 47 64
        E 0 8a 48 64
        E 0 92 53 64
        E 0 93 47 5a
        E 0 9a 47 64
        E 0 82 53 64
        E 0 8a 47 64
        E 0 9a 48 64
        E 0 83 47 64
        E 0 8a 48 64
        E 0 92 53 64
        E 0 93 47 5a
        E 0 9a 47 64
        E 0 82 53 64
        E 0 92 54 64
        E 0 82 54 64
        E 0 92 56 64
        E 0 82 56 64
        E 0 92 54 64
        E 0 82 54 64
        E 0 83 47 64
        E 0 8a 47 64
        E 0 92 53 64
        E 0 93 47 5a
        E 0 82 53 64
        E 0 83 47 64
        E 0 92 4c 64
        E 0 93 48 5a
        E 0 9a 48 64
        E 0 82 4c 64
        E 0 92 4d 64
        E 0 82 4d 64
        E 0 8a 48 64
        E 0 92 4f 64
        E 0 9a 4a 64
        E 0 82 4f 64
        E 0 92 4d 64
        E 0 82 4d 64
        E 0 83 48 64
        E 0 8a 4a 64
        E 0 92 4c 64
        E 0 93 48 5a
        E 0 9a 48 64
        E 0 82 4c 64
        E 0 8a 48 64
        E 0 9a 4a 64
        E 0 83 48 64
        E 0 8a 4a 64
        E 0 92 4c 64
        E 0 93 48 5a
        E 0 9a 48 64
        E 0 82 4c 64
        E 0 92 4d 64
        E 0 82 4d 64
        E 0 92 4f 64
        E 0 82 4f 64
        E 0 92 4d 64
        E 1 82 4d 64
        E 0 83 48 64
        E 0 8a 48 64
        E 0 92 4c 64
        E 0 93 48 5a
        E 0 82 4c 64
        E 0 83 48 64
        E 0 92 51 64
        E 0 93 3c 5a
        E 0 9f 35 5a
        E 0 82 51 64
        E 0 92 54 64
        E 0 82 54 64
        E 0 83 3c 64
        E 0 8f 35 64
        E 0 92 52 66
        E 0 93 3c 5a
        E 0 9f 30 5a
        E 0 82 52 66
        E 0 83 3c 64
        E 0 8f 30 64
        E 0 92 51 64
        E 0 93 3c 5a
        E 0 9a 41 64
        E 0 9f 35 5a
        E 0 82 51 64
        E 0 92 54 64
        E 0 82 54 64
        E 0 83 3c 64
        E 0 8a 41 64
        E 0 8f 35 64
        E 0 92 52 66
        E 1 93 3c 5a
        E 0 9a 43 64
        E 0 9f 30 5a
        E 0 82 52 66
        E 0 83 3c 64
        E 0 8a 43 64
        E 0 8f 30 64
        E 0 92 51 64
        E 0 93 3c 5a
        E 0 9a 45 64
        E 0 82 51 64
        E 0 92 54 64
        E 0 82 54 64
        E 0 92 52 66
        E 0 82 52 66
        E 0 83 3c 64
        E 0 8a 45 64
        E 0 92 51 64
        E 0 93 3c 5a
        E 1 9a 41 64
        E 0 82 51 64
        E 0 8a 41 64
        E 0 92 54 64
        E 0 9a 41 64
        E 0 82 54 64
        E 0 92 52 66
        E 0 82 52 66
        E 0 83 3c 64
        E 0 8a 41 64
        E 0 92 51 64
        E 0 93 3c 5a
        E 0 9a 41 64
        E 0 82 51 64
        E 0 92 54 64
        E 1 82 54 64
        E 0 92 52 66
        E 0 82 52 66
        E 0 83 3c 64
        E 0 8a 41 64
        E 0 92 51 64
        E 0 93 3c 5a
        E 0 9a 41 64
        E 0 82 51 64
        E 0 92 54 64
        E 0 82 54 64
        E 0 92 52 66
        E 0 82 52 66
        E 0 83 3c 64
        E 0 8a 41 64
        E 1 92 51 64
        E 0 93 3c 5a
        E 0 9a 48 64
        E 0 9f 35 5a
        E 0 82 51 64
        E 0 92 48 64
        E 0 82 48 64
        E 0 83 3c 64
        E 0 8a 48 64
        E 0 8f 35 64
        E 0 92 46 66
        E 0 93 3c 5a
        E 0 9a 46 66
        E 1 9f 30 5a
        E 0 8a 46 66
        E 0 9a 48 64
        E 0 82 46 66
        E 0 83 3c 64
        E 0 8a 48 64
        E 0 8f 30 64
        E 0 92 45 64
        E 0 93 3c 5a
        E 0 9a 45 64
        E 0 9f 35 5a
        E 0 82 45 64
        E 0 92 48 64
        E 0 82 48 64
        E 0 83 3c 64
        E 0 8a 45 64
        E 0 8f 35 64
        E 0 92 46 66
        E 1 93 3c 5a
        E 0 9a 43 64
        E 0 9f 30 5a
        E 38403 82 46 66
        E 0 83 3c 64
        E 0 8a 43 64
        E 0 8f 30 64
        E 0 92 45 64
        E 0 93 3c 5a
        E 0 9a 41 64
        E 0 82 45 64
        E 0 8a 41 64
        E 0 92 48 64
        E 0 9a 43 64
        E 0 82 48 64
        E 0 92 46 66
        E 0 82 46 66
        E 0 83 3c 64
        E 0 8a 43 64
        E 0 92 45 64
        E 0 93 3c 5a
        E 0 9a 41 64
        E 0 82 45 64
        E 0 8a 41 64
        E 0 92 48 64
        E 0 9a 43 64
        E 0 82 48 64
        E 0 92 46 66
        E 0 82 46 66
        E 0 83 3c 64
        E 0 8a 43 64
        E 0 92 45 64
        E 0 93 3c 5a
        E 0 9a 41 64
        E 1 82 45 64
        E 0 8a 41 64
        E 0 92 48 64
        E 0 9a 43 64
        E 0 82 48 64
        E 0 92 46 66
        E 0 82 46 66
        E 0 83 3c 64
        E 0 8a 43 64
        E 0 92 45 64
        E 0 93 3c 5a
        E 0 9a 45 64
        E 0 82 45 64
        E 0 8a 45 64
        E 0 92 48 64
        E 0 9a 46 66
        E 0 82 48 64
        E 0 92 46 66
        E 0 82 46 66
        E 0 83 3c 64
        E 0 8a 46 66
        E 0 92 45 64
        E 0 93 3c 5a
        E 0 9a 48 64
        E 0 9f 35 5a
        E 0 82 45 64
        E 0 83 3c 64
        E 0 92 41 64
        E 0 93 39 5a
        E 0 82 41 64
        E 0 83 39 64
        E 0 8a 48 64
        E 0 8f 35 64
        E 0 92 41 64
        E 0 93 39 5a
        E 0 9a 3c 64
        E 0 9f 29 5a
        E 0 82 41 64
        E 0 83 39 64
        E 0 92 41 64
        E 1 93 39 5a
        E 0 82 41 64
        E 0 83 39 64
        E 0 8a 3c 64
        E 0 8f 29 64
        E 0 92 54 64
        E 0 93 41 5a
        E 0 9a 45 64
        E 0 82 54 64
        E 0 8a 45 64
        E 0 92 52 66
        E 0 9a 43 64
        E 0 82 52 66
        E 0 83 41 64
        E 0 8a 43 64
        E 0 92 52 66
        E 0 93 41 5a
        E 1 9a 43 64
        E 0 82 52 66
        E 0 8a 43 64
        E 0 92 51 64
        E 0 9a 41 64
        E 0 82 51 64
        E 0 83 41 64
        E 0 8a 41 64
        E 0 92 51 64
        E 0 93 41 5a
        E 0 9a 41 64
        E 0 82 51 64
        E 0 8a 41 64
        E 0 92 52 66
        E 0 9a 43 64
        E 0 82 52 66
        E 0 83 41 64
        E 0 8a 43 64
        E 0 92 52 66
        E 2 93 41 5a
        E 0 9a 43 64
        E 0 82 52 66
        E 0 8a 43 64
        E 0 92 54 64
        E 0 9a 45 64
        E 0 82 54 64
        E 0 83 41 64
        E 0 8a 45 64
        E 0 92 54 64
        E 0 93 41 5a
        E 0 9a 45 64
        E 0 82 54 64
        E 0 8a 45 64
        E 0 92 52 66
        E 0 9a 43 64
        E 0 82 52 66
        E 0 83 41 64
        E 0 8a 43 64
        E 0 92 52 66
        E 0 93 41 5a
        E 0 9a 43 64
        E 0 82 52 66
        E 0 8a 43 64
        E 0 92 51 64
        E 0 9a 41 64
        E 0 82 51 64
        E 0 83 41 64
        E 0 8a 41 64
        E 0 92 51 64
        E 0 93 41 5a
        E 0 9a 41 64
        E 0 82 51 64
        E 0 8a 41 64
        E 1 92 52 66
        E 0 9a 43 64
        E 0 82 52 66
        E 0 83 41 64
        E 0 8a 43 64
        E 0 92 52 66
        E 1 93 41 5a
        E 0 9a 43 64
        E 0 82 52 66
        E 0 8a 43 64
        E 0 92 54 64
        E 0 9a 45 64
        E 0 82 54 64
        E 0 83 41 64
        E 0 8a 45 64
        E 0 92 54 64
        E 0 93 41 5a
        E 0 9a 45 64
        E 0 82 54 64
        E 0 8a 45 64
        E 0 92 52 66
        E 0 9a 46 66
        E 0 82 52 66
        E 0 83 41 64
        E 0 8a 46 66
        E 0 92 52 66
        E 0 93 41 5a
        E 0 9a 46 66
        E 0 82 52 66
        E 0 8a 46 66
        E 0 92 51 64
        E 0 9a 48 64
        E 0 82 51 64
        E 0 83 41 64
        E 0 8a 48 64
        E 0 90 41 64
        E 0 91 41 64
        E 0 92 51 64
        E 0 93 41 5a
        E 0 9a 48 64
        E 0 9f 29 5a
        E 0 82 51 64
        E 0 92 48 64
        E 0 80 41 64
        E 0 81 41 64
        E 0 82 48 64
        E 0 83 41 64
        E 0 8a 48 64
        E 0 8f 29 64
        E 0 90 41 64
        E 0 91 41 64
        E 0 92 46 66
        E 0 93 3c 5a
        E 1 9a 46 66
        E 0 9f 29 5a
        E 0 82 46 66
        E 0 8a 46 66
        E 0 92 45 64
        E 0 9a 45 64
        E 0 80 41 64
        E 0 81 41 64
        E 0 82 45 64
        E 0 83 3c 64
        E 0 8a 45 64
        E 0 8f 29 64
        E 0 90 48 64
        E 0 91 48 64
        E 0 92 43 64
        E 0 93 3c 5a
        E 0 9a 43 64
        E 0 9f 30 5a
        E 0 82 43 64
        E 0 8a 43 64
        E 0 92 41 64
        E 0 9a 41 64
        E 0 80 48 64
        E 0 81 48 64
        E 0 82 41 64
        E 0 83 3c 64
        E 0 8a 41 64
        E 0 8f 30 64
        E 0 90 48 64
        E 0 91 48 64
        E 0 92 40 64
        E 0 93 3c 5a
        E 0 9a 40 64
        E 0 9f 30 5a
        E 0 82 40 64
        E 0 8a 40 64
        E 0 92 3e 64
        E 0 9a 3e 64
        E 0 80 48 64
        E 0 81 48 64
        E 0 82 3e 64
        E 0 83 3c 64
        E 0 8a 3e 64
        E 0 8f 30 64
        E 0 90 41 64
        E 0 91 41 64
        E 0 92 3c 64
        E 0 93 3c 5a
        E 0 9a 3c 64
        E 0 9f 35 5a
        E 0 80 41 64
        E 0 81 41 64
        E 0 82 3c 64
        E 0 83 3c 64
        E 0 8a 3c 64
        E 0 8f 35 64
        E 0 90 41 64
        E 0 91 41 64
        E 0 92 41 64
        E 0 93 3c 5a
        E 0 9a 41 64
        E 0 9f 35 5a
        E 0 80 41 64
        E 0 81 41 64
        E 0 82 41 64
        E 0 83 3c 64
        E 0 8a 41 64
        E 0 8f 35 64
        E 0 90 48 64
        E 0 91 48 64
        E 0 92 43 64
        E 0 93 3c 5a
        E 0 9a 43 64
        E 0 9f 30 5a
        E 0 80 48 64
        E 0 81 48 64
        E 0 83 3c 64
        E 0 8f 30 64
        E 0 90 48 64
        E 0 91 48 64
        E 0 93 3c 5a
        E 1 9f 24 5a
        E 0 80 48 64
        E 0 81 48 64
        E 0 82 43 64
        E 0 83 3c 64
        E 0 8a 43 64
        E 0 8f 24 64
        E 0 90 41 64
        E 0 91 41 64
        E 0 92 4d 64
        E 0 93 45 5a
        E 0 9a 41 64
        E 0 9f 29 5a
        E 0 80 41 64
        E 0 81 41 64
        E 0 82 4d 64
        E 0 83 45 64
        E 0 90 4d 64
        E 0 91 4d 64
        E 0 92 4d 64
        E 0 93 45 5a
        E 0 80 4d 64
        E 0 81 4d 64
        E 0 82 4d 64
        E 0 83 45 64
        E 0 8f 29 64
        E 0 90 4d 64
        E 0 91 4d 64
        E 0 92 48 64
        E 0 93 41 5a
        E 0 9f 35 5a
        E 0 80 4d 64
        E 0 81 4d 64
        E 0 82 48 64
        E 0 83 41 64
        E 0 90 4d 64
        E 0 91 4d 64
        E 0 92 48 64
        E 0 93 41 5a
        E 0 80 4d 64
        E 0 81 4d 64
        E 0 82 48 64
        E 0 83 41 64
        E 0 8a 41 64
        E 0 8f 35 64
        E 0 90 4d 64
        E 0 91 4d 64
        E 0 92 45 64
        E 0 93 3c 5a
        E 0 9f 35 5a
        E 0 80 4d 64
        E 0 81 4d 64
        E 0 82 45 64
        E 0 83 3c 64
        E 0 90 4d 64
        E 0 91 4d 64
        E 0 92 45 64
        E 0 93 3c 5a
        E 0 80 4d 64
        E 0 81 4d 64
        E 0 82 45 64
        E 0 83 3c 64
        E 0 8f 35 64
        E 0 90 4d 64
        E 0 91 4d 64
        E 0 92 41 64
        E 0 93 39 5a
        E 0 9f 35 5a
        E 0 80 4d 64
        E 0 81 4d 64
        E 0 82 41 64
        E 0 83 39 64
        E 0 90 4d 64
        E 0 91 4d 64
        E 0 92 41 64
        E 0 93 39 5a
        E 0 80 4d 64
        E 0 81 4d 64
        E 0 82 41 64
        E 0 83 39 64
        E 0 8f 35 64
        E 0 90 4d 64
        E 0 91 4d 64
        E 0 92 3a 66
        E 0 93 3a 5b
        E 0 9f 2e 5b
        E 0 82 3a 66
        E 0 83 3a 66
        E 0 8f 2e 66
        E 0 92 3a 66
        E 0 93 3a 5b
        E 0 9f 2e 5b
        E 0 82 3a 66
        E 0 83 3a 66
        E 0 8f 2e 66
        E 0 92 3e 64
        E 0 93 3e 5a
        E 0 9f 32 5a
        E 0 82 3e 64
        E 0 83 3e 64
        E 0 8f 32 64
        E 0 92 3e 64
        E 0 93 3e 5a
        E 0 9f 32 5a
        E 0 80 4d 64
        E 0 81 4d 64
        E 0 82 3e 64
        E 0 83 3e 64
        E 0 8f 32 64
        E 0 92 41 64
        E 1 93 41 5a
        E 0 9f 35 5a
        E 0 82 41 64
        E 0 83 41 64
        E 0 8f 35 64
        E 0 92 41 64
        E 0 93 41 5a
        E 0 9f 35 5a
        E 0 82 41 64
        E 0 83 41 64
        E 0 8f 35 64
        E 0 92 46 66
        E 0 93 46 5b
        E 0 9f 3a 5b
        E 0 82 46 66
        E 0 83 46 66
        E 0 8f 3a 66
        E 0 92 46 66
        E 0 93 46 5b
        E 0 9f 3a 5b
        E 0 82 46 66
        E 0 83 46 66
        E 0 8f 3a 66
        E 0 90 4f 64
        E 0 91 4f 64
        E 0 92 4f 64
        E 0 93 47 5a
        E 0 9f 37 5a
        E 0 80 4f 64
        E 0 81 4f 64
        E 0 82 4f 64
        E 0 83 47 64
        E 0 90 4f 64
        E 0 91 4f 64
        E 0 92 4f 64
        E 0 93 47 5a
        E 0 80 4f 64
        E 0 81 4f 64
        E 0 82 4f 64
        E 0 83 47 64
        E 0 8f 37 64
        E 0 90 4f 64
        E 0 91 4f 64
        E 0 92 4a 64
        E 0 93 43 5a
        E 0 9f 37 5a
        E 0 80 4f 64
        E 0 81 4f 64
        E 0 82 4a 64
        E 0 83 43 64
        E 0 90 4f 64
        E 0 91 4f 64
        E 0 92 4a 64
        E 0 93 43 5a
        E 0 80 4f 64
        E 0 81 4f 64
        E 0 82 4a 64
        E 0 83 43 64
        E 0 8f 37 64
        E 0 90 4f 64
        E 0 91 4f 64
        E 0 92 47 64
        E 1 93 3e 5a
        E 0 9f 37 5a
        E 0 80 4f 64
        E 0 81 4f 64
        E 0 82 47 64
        E 0 83 3e 64
        E 0 90 4f 64
        E 0 91 4f 64
        E 0 92 47 64
        E 0 93 3e 5a
        E 0 80 4f 64
        E 0 81 4f 64
        E 0 82 47 64
        E 0 83 3e 64
        E 0 8f 37 64
        E 0 90 4f 64
        E 0 91 4f 64
        E 0 92 43 64
        E 0 93 3b 5a
        E 0 9f 37 5a
        E 0 80 4f 64
        E 0 81 4f 64
        E 0 82 43 64
        E 0 83 3b 64
        E 0 90 4f 64
        E 0 91 4f 64
        E 0 92 43 64
        E 0 93 3b 5a
        E 0 80 4f 64
        E 0 81 4f 64
        E 0 82 43 64
        E 0 83 3b 64
        E 0 8f 37 64
        E 0 90 4f 64
        E 0 91 4f 64
        E 0 92 3c 64
        E 0 93 3c 5a
        E 0 9f 30 5a
        E 0 82 3c 64
        E 0 83 3c 64
        E 0 8f 30 64
        E 0 92 3c 64
        E 0 93 3c 5a
        E 0 9f 30 5a
        E 0 82 3c 64
        E 0 83 3c 64
        E 0 8f 30 64
        E 0 92 40 64
        E 0 93 40 5a
        E 0 9f 34 5a
        E 0 82 40 64
        E 0 83 40 64
        E 0 8f 34 64
        E 0 92 40 64
        E 1 93 40 5a
        E 0 9f 34 5a
        E 0 80 4f 64
        E 0 81 4f 64
        E 0 82 40 64
        E 0 83 40 64
        E 0 8f 34 64
        E 0 92 43 64
        E 0 93 43 5a
        E 0 9f 37 5a
        E 0 82 43 64
        E 0 83 43 64
        E 0 8f 37 64
        E 0 92 43 64
        E 0 93 43 5a
        E 0 9f 37 5a
        E 0 82 43 64
        E 0 83 43 64
        E 0 8f 37 64
        E 0 92 48 64
        E 0 93 48 5a
        E 0 9f 3c 5a
        E 0 82 48 64
        E 0 83 48 64
        E 0 8f 3c 64
        E 0 92 48 64
        E 0 93 48 5a
        E 0 9f 3c 5a
        E 0 82 48 64
        E 0 83 48 64
        E 0 8f 3c 64
        E 0 90 45 64
        E 0 91 41 64
        E 0 92 51 64
        E 0 93 3c 5a
        E 0 9f 35 5a
        E 0 82 51 64
        E 0 92 54 64
        E 0 82 54 64
        E 0 92 52 66
        E 0 80 45 64
        E 0 81 41 64
        E 0 82 52 66
        E 0 83 3c 64
        E 0 8f 35 64
        E 0 90 45 64
        E 0 91 41 64
        E 0 92 51 64
        E 0 93 3c 5a
        E 0 9f 35 5a
        E 0 82 51 64
        E 0 92 54 64
        E 0 82 54 64
        E 0 92 52 66
        E 0 80 45 64
        E 0 81 41 64
        E 1 82 52 66
        E 0 83 3c 64
        E 0 8f 35 64
        E 0 90 45 64
        E 0 91 41 64
        E 0 92 51 64
        E 0 93 3c 5a
        E 0 9f 35 5a
        E 0 82 51 64
        E 0 92 54 64
        E 0 82 54 64
        E 0 92 52 66
        E 0 80 45 64
        E 0 81 41 64
        E 0 82 52 66
        E 0 83 3c 64
        E 0 8f 35 64
        E 0 90 45 64
        E 0 91 41 64
        E 0 92 51 64
        E 0 93 3c 5a
        E 0 9f 35 5a
        E 0 82 51 64
        E 0 92 54 64
        E 0 82 54 64
        E 0 92 52 66
        E 0 80 45 64
        E 0 81 41 64
        E 0 82 52 66
        E 0 83 3c 64
        E 0 8f 35 64
        E 0 90 45 64
        E 0 91 41 64
        E 0 92 51 64
        E 0 93 3c 5a
        E 0 9f 35 5a
        E 0 80 45 64
        E 0 81 41 64
        E 0 82 51 64
        E 0 83 3c 64
        E 0 8f 35 64
        E 0 90 48 64
        E 0 91 45 64
        E 0 92 54 64
        E 0 93 41 5a
        E 0 9f 29 5a
        E 0 80 48 64
        E 0 81 45 64
        E 0 82 54 64
        E 0 83 41 64
        E 0 8f 29 64
        E 0 90 45 64
        E 0 91 41 64
        E 0 92 51 64
        E 0 93 3c 5a
        E 0 9f 35 5a
        E 0 80 45 64
        E 0 81 41 64
        E 0 82 51 64
        E 0 83 3c 64
        E 0 8f 35 64
        E 0 90 41 64
        E 0 91 3c 64
        E 0 92 4d 64
        E 0 93 39 5a
        E 0 9f 29 5a
        E 0 80 41 64
        E 0 81 3c 64
        E 0 82 4d 64
        E 0 83 39 64
        E 0 8f 29 64
        E 0 90 48 64
        E 0 91 48 64
        E 0 92 48 64
        E 0 93 48 5a
        E 0 9f 3c 5a
        E 0 80 48 64
        E 0 81 48 64
        E 0 82 48 64
        E 0 83 48 64
        E 0 8f 3c 64
        E 0 90 3c 64
        E 0 91 3c 64
        E 1 92 3c 64
        E 0 93 3c 5a
        E 0 9f 30 5a
        E 0 80 3c 64
        E 0 81 3c 64
        E 0 82 3c 64
        E 0 83 3c 64
        E 0 8f 30 64
        E 0 90 41 64
        E 0 91 41 64
        E 0 92 41 64
        E 0 93 3c 5a
        E 0 9f 35 5a
        E 0 82 41 64
        E 0 92 48 64
        E 0 82 48 64
        E 0 92 46 66
        E 0 80 41 64
        E 0 81 41 64
        E 0 82 46 66
        E 0 83 3c 64
        E 0 8f 35 64
        E 0 90 45 64
        E 0 91 41 64
        E 0 92 45 64
        E 0 93 3c 5a
        E 0 9f 35 5a
        E 0 82 45 64
        E 0 92 48 64
        E 0 82 48 64
        E 0 92 46 66
        E 0 80 45 64
        E 0 81 41 64
        E 0 82 46 66
        E 0 83 3c 64
        E 0 8f 35 64
        E 0 90 45 64
        E 0 91 41 64
        E 0 92 45 64
        E 0 93 3c 5a
        E 0 9f 35 5a
        E 0 82 45 64
        E 0 92 48 64
        E 0 82 48 64
        E 0 92 46 66
        E 0 80 45 64
        E 0 81 41 64
        E 0 82 46 66
        E 0 83 3c 64
        E 0 8f 35 64
        E 0 90 45 64
        E 0 91 41 64
        E 0 92 45 64
        E 0 93 3c 5a
        E 0 9f 35 5a
        E 0 82 45 64
        E 0 92 48 64
        E 0 82 48 64
        E 0 92 46 66
        E 0 80 45 64
        E 0 81 41 64
        E 0 82 46 66
        E 0 83 3c 64
        E 0 8f 35 64
        E 1 90 45 64
        E 0 91 41 64
        E 0 92 45 64
        E 0 93 3c 5a
        E 0 9f 35 5a
        E 0 80 45 64
        E 0 81 41 64
        E 0 82 45 64
        E 0 83 3c 64
        E 0 8f 35 64
        E 0 90 48 64
        E 0 91 45 64
        E 0 92 48 64
        E 0 93 41 5a
        E 0 9f 29 5a
        E 0 80 48 64
        E 0 81 45 64
        E 0 82 48 64
        E 0 83 41 64
        E 0 8f 29 64
        E 0 90 45 64
        E 0 91 41 64
        E 0 92 45 64
        E 0 93 3c 5a
        E 0 9f 35 5a
        E 0 80 45 64
        E 0 81 41 64
        E 0 82 45 64
        E 0 83 3c 64
        E 0 8f 35 64
        E 0 90 41 64
        E 0 91 3c 64
        E 0 92 41 64
        E 0 93 39 5a
        E 0 9f 29 5a
        E 0 80 41 64
        E 0 81 3c 64
        E 0 82 41 64
        E 0 83 39 64
        E 0 8f 29 64
        E 0 90 48 64
        E 0 91 48 64
        E 0 92 48 64
        E 0 93 48 5a
        E 1 9f 3c 5a
        E 0 80 48 64
        E 0 81 48 64
        E 0 82 48 64
        E 0 83 48 64
        E 0 8f 3c 64
        E 0 90 3c 64
        E 0 91 3c 64
        E 0 92 3c 64
        E 0 93 3c 5a
        E 0 9f 30 5a
        E 0 80 3c 64
        E 0 81 3c 64
        E 0 82 3c 64
        E 0 83 3c 64
        E 0 8f 30 64
        E 0 90 41 64
        E 0 91 41 64
        E 0 92 41 64
        E 0 93 41 5a
        E 0 9f 29 5a
        E 0 80 41 64
        E 0 81 41 64
        E 0 82 41 64
        E 0 83 41 64
        E 0 8f 29 64
        E 0 9a 45 64
        E 0 8a 45 64
        E 0 92 45 64
        E 0 93 3e 5a
        E 0 9a 45 64
        E 0 82 45 64
        E 0 83 3e 64
        E 0 8a 45 64
        E 0 92 45 64
        E 0 93 3e 5a
        E 0 9a 4a 64
        E 0 9f 32 5a
        E 0 82 45 64
        E 0 83 3e 64
        E 0 8a 4a 64
        E 0 8f 32 64
        E 0 92 45 64
        E 0 93 3e 5a
        E 0 9a 48 64
        E 0 9f 32 5a
        E 0 8a 48 64
        E 0 9a 46 66
        E 0 82 45 64
        E 0 83 3e 64
        E 0 8a 46 66
        E 0 8f 32 64
        E 0 92 45 64
        E 0 93 3d 5a
        E 0 9a 45 64
        E 0 9f 31 5a
        E 0 8a 45 64
        E 0 9a 43 64
        E 0 82 45 64
        E 0 83 3d 64
        E 0 8a 43 64
        E 0 8f 31 64
        E 0 92 45 64
        E 0 93 3d 5a
        E 0 9a 41 64
        E 0 9f 31 5a
        E 0 8a 41 64
        E 0 9a 40 64
        E 0 82 45 64
        E 0 83 3d 64
        E 0 8a 40 64
        E 0 8f 31 64
        E 0 92 51 64
        E 0 93 3e 5a
        E 0 9a 41 64
        E 0 9f 32 5a
        E 0 82 51 64
        E 0 8a 41 64
        E 0 92 51 64
        E 0 9a 40 64
        E 0 82 51 64
        E 0 83 3e 64
        E 0 8a 40 64
        E 0 92 4d 64
        E 0 93 3e 5a
        E 0 9a 3e 64
        E 0 82 4d 64
        E 0 92 4d 64
        E 0 82 4d 64
        E 0 83 3e 64
        E 0 8a 3e 64
        E 0 8f 32 64
        E 0 92 4a 64
        E 0 93 3e 5a
        E 0 9a 45 64
        E 0 82 4a 64
        E 0 92 4a 64
        E 0 82 4a 64
        E 0 83 3e 64
        E 1 8a 45 64
        E 0 92 45 64
        E 0 93 3e 5a
        E 0 9a 45 64
        E 0 82 45 64
        E 0 92 45 64
        E 0 82 45 64
        E 0 83 3e 64
        E 0 8a 45 64
        E 0 92 46 66
        E 0 93 43 5a
        E 0 9a 46 66
        E 0 9f 37 5a
        E 0 82 46 66
        E 0 83 43 64
        E 0 8a 46 66
        E 0 8f 37 64
        E 0 92 46 66
        E 0 93 43 5a
        E 0 9a 45 64
        E 0 9f 37 5a
        E 0 8a 45 64
        E 0 9a 43 64
        E 0 82 46 66
        E 0 83 43 64
        E 0 8a 43 64
        E 0 8f 37 64
        E 0 92 45 64
        E 0 93 43 5a
        E 0 9a 49 64
        E 0 9f 37 5a
        E 0 82 45 64
        E 0 83 43 64
        E 0 8a 49 64
        E 0 8f 37 64
        E 0 92 45 64
        E 0 93 43 5a
        E 0 9a 47 64
        E 0 9f 37 5a
        E 0 8a 47 64
        E 0 9a 45 64
        E 0 82 45 64
        E 0 83 43 64
        E 0 8a 45 64
        E 0 8f 37 64
        E 0 92 51 64
        E 0 93 41 5a
        E 0 9a 4a 64
        E 0 9f 35 5a
        E 0 82 51 64
        E 0 92 51 64
        E 0 82 51 64
        E 0 83 41 64
        E 0 8a 4a 64
        E 0 92 4d 64
        E 0 93 41 5a
        E 0 9a 3e 64
        E 0 82 4d 64
        E 0 92 4d 64
        E 0 82 4d 64
        E 0 83 41 64
        E 0 8a 3e 64
        E 0 8f 35 64
        E 0 92 4a 64
        E 0 93 41 5a
        E 0 82 4a 64
        E 0 92 4a 64
        E 0 82 4a 64
        E 0 83 41 64
        E 0 92 45 64
        E 0 93 41 5a
        E 0 82 45 64
        E 0 92 45 64
        E 0 82 45 64
        E 0 83 41 64
        E 0 92 47 64
        E 0 93 40 5a
        E 0 9a 44 64
        E 0 9f 34 5a
        E 0 82 47 64
        E 0 83 40 64
        E 0 8f 34 64
        E 0 92 47 64
        E 0 93 40 5a
        E 0 9f 34 5a
        E 0 82 47 64
        E 0 83 40 64
        E 0 8f 34 64
        E 0 92 47 64
        E 0 93 3e 5a
        E 0 9f 32 5a
        E 38404 82 47 64
        E 0 83 3e 64
        E 0 8a 44 64
        E 0 8f 32 64
        E 0 92 47 64
        E 0 93 3e 5a
        E 0 9a 44 64
        E 0 9f 32 5a
        E 0 82 47 64
        E 0 83 3e 64
        E 0 8a 44 64
        E 0 8f 32 64
        E 0 92 51 64
        E 0 93 3c 5a
        E 0 9a 45 64
        E 0 9f 30 5a
        E 0 82 51 64
        E 0 92 51 64
        E 0 82 51 64
        E 0 83 3c 64
        E 0 8a 45 64
        E 0 92 4c 64
        E 0 93 3c 5a
        E 0 9a 40 64
        E 0 82 4c 64
        E 0 92 4c 64
        E 0 82 4c 64
        E 0 83 3c 64
        E 0 8a 40 64
        E 0 8f 30 64
        E 0 92 48 64
        E 0 93 3c 5a
        E 0 82 48 64
        E 0 92 48 64
        E 0 82 48 64
        E 0 83 3c 64
        E 0 92 45 64
        E 0 93 3c 5a
        E 0 9a 48 64
        E 0 9f 2d 5a
        E 0 82 45 64
        E 0 92 45 64
        E 0 82 45 64
        E 0 83 3c 64
        E 0 8a 48 64
        E 0 8f 2d 64
        E 0 92 47 64
        E 0 93 40 5a
        E 0 9a 47 64
        E 0 9f 34 5a
        E 0 82 47 64
        E 0 83 40 64
        E 0 8a 47 64
        E 0 8f 34 64
        E 0 92 45 64
        E 0 93 39 5a
        E 0 9a 45 64
        E 0 9f 2d 5a
        E 0 82 45 64
        E 0 83 39 64
        E 0 8a 45 64
        E 0 8f 2d 64
        E 0 92 47 64
        E 1 93 3e 5a
        E 0 9a 47 64
        E 0 9f 32 5a
        E 0 82 47 64
        E 0 83 3e 64
        E 0 8a 47 64
        E 0 8f 32 64
        E 0 92 45 64
        E 0 93 40 5a
        E 0 9a 45 64
        E 0 9f 34 5a
        E 0 82 45 64
        E 0 8a 45 64
        E 0 92 44 64
        E 0 9a 44 64
        E 0 82 44 64
        E 0 83 40 64
        E 0 8a 44 64
        E 0 8f 34 64
        E 0 92 48 64
        E 0 93 39 5a
        E 0 9a 45 64
        E 0 9f 2d 5a
        E 0 82 48 64
        E 0 92 4a 64
        E 0 82 4a 64
        E 0 8a 45 64
        E 0 92 4c 64
        E 0 9a 47 64
        E 0 82 4c 64
        E 0 92 4a 64
        E 0 82 4a 64
        E 0 83 39 64
        E 0 8a 47 64
        E 0 92 48 64
        E 0 93 39 5a
        E 0 9a 45 64
        E 0 82 48 64
        E 0 8a 45 64
        E 0 9a 47 64
        E 0 83 39 64
        E 0 8a 47 64
        E 0 8f 2d 64
        E 0 92 51 64
        E 0 93 39 5a
        E 0 9a 45 64
        E 0 82 51 64
        E 0 92 53 64
        E 0 82 53 64
        E 0 92 54 64
        E 0 82 54 64
        E 0 92 53 64
        E 0 82 53 64
        E 0 83 39 64
        E 0 8a 45 64
        E 0 92 51 64
        E 0 93 39 5a
        E 0 82 51 64
        E 0 83 39 64
        E 0 92 53 64
        E 0 93 40 5a
        E 0 9a 47 64
        E 0 9f 34 5a
        E 0 82 53 64
        E 0 92 54 64
        E 0 82 54 64
        E 0 8a 47 64
        E 0 92 56 64
        E 0 9a 48 64
        E 0 82 56 64
        E 0 92 54 64
        E 0 82 54 64
        E 0 83 40 64
        E 0 8a 48 64
        E 0 92 53 64
        E 0 93 40 5a
        E 0 9a 47 64
        E 0 82 53 64
        E 0 8a 47 64
        E 0 9a 48 64
        E 0 83 40 64
        E 0 8a 48 64
        E 0 8f 34 64
        E 1 92 50 64
        E 0 93 40 5a
        E 0 9a 47 64
        E 0 82 50 64
        E 0 92 51 64
        E 0 82 51 64
        E 0 92 53 64
        E 0 82 53 64
        E 0 92 51 64
        E 0 82 51 64
        E 0 83 40 64
        E 0 8a 47 64
        E 0 92 50 64
        E 0 93 40 5a
        E 0 82 50 64
        E 0 83 40 64
        E 0 92 45 64
        E 0 93 39 5a
        E 0 9a 48 64
        E 0 9f 2d 5a
        E 0 8a 48 64
        E 0 9a 47 64
        E 0 82 45 64
        E 0 83 39 64
        E 0 8a 47 64
        E 0 92 47 64
        E 0 93 40 5a
        E 0 9a 45 64
        E 0 8a 45 64
        E 0 9a 44 64
        E 0 82 47 64
        E 0 83 40 64
        E 0 8a 44 64
        E 0 8f 2d 64
        E 0 92 48 64
        E 0 93 3c 5a
        E 0 9a 45 64
        E 0 82 48 64
        E 0 83 3c 64
        E 0 8a 45 64
        E 0 92 47 64
        E 0 93 38 5a
        E 0 9a 41 64
        E 0 9f 2c 5a
        E 0 82 47 64
        E 0 83 38 64
        E 0 8a 41 64
        E 0 8f 2c 64
        E 0 92 40 64
        E 0 93 39 5a
        E 0 9a 40 64
        E 0 9f 2d 5a
        E 0 82 40 64
        E 0 83 39 64
        E 0 8a 40 64
        E 0 8f 2d 64
        E 0 92 4a 64
        E 0 93 41 5a
        E 0 9a 4a 64
        E 1 9f 35 5a
        E 0 82 4a 64
        E 0 83 41 64
        E 0 8a 4a 64
        E 0 8f 35 64
        E 0 92 48 64
        E 0 93 40 5a
        E 0 9a 48 64
        E 0 9f 34 5a
        E 0 82 48 64
        E 0 83 40 64
        E 0 8a 48 64
        E 0 8f 34 64
        E 0 92 47 64
        E 0 93 34 5a
        E 0 9a 47 64
        E 0 9f 28 5a
        E 0 82 47 64
        E 0 83 34 64
        E 0 8a 47 64
        E 0 8f 28 64
        E 0 92 48 64
        E 0 93 39 5a
        E 0 9a 45 64
        E 0 9f 2d 5a
        E 0 82 48 64
        E 0 83 39 64
        E 0 8f 2d 64
        E 0 92 48 64
        E 0 93 39 5a
        E 0 9f 2d 5a
        E 0 82 48 64
        E 0 83 39 64
        E 0 8a 45 64
        E 0 8f 2d 64
        E 0 92 48 64
        E 0 93 39 5a
        E 0 9f 2d 5a
        E 0 82 48 64
        E 0 83 39 64
        E 0 8f 2d 64
        E 0 92 48 64
        E 0 93 39 5a
        E 0 9a 40 64
        E 0 9f 2d 5a
        E 0 82 48 64
        E 0 83 39 64
        E 0 8a 40 64
        E 0 8f 2d 64
        E 0 92 45 64
        E 0 93 3e 5a
        E 1 9a 42 64
        E 0 82 45 64
        E 0 83 3e 64
        E 0 92 45 64
        E 0 93 3e 5a
        E 0 9f 32 5a
        E 0 82 45 64
        E 0 83 3e 64
        E 0 8f 32 64
        E 0 92 45 64
        E 0 93 3e 5a
        E 0 9f 32 5a
        E 0 82 45 64
        E 0 83 3e 64
        E 0 8a 42 64
        E 0 92 4a 64
        E 0 93 3e 5a
        E 0 9a 47 64
        E 0 82 4a 64
        E 0 83 3e 64
        E 0 8a 47 64
        E 0 8f 32 64
        E 0 92 47 64
        E 0 93 40 5a
        E 0 9a 44 64
        E 0 82 47 64
        E 0 83 40 64
        E 0 92 47 64
        E 0 93 40 5a
        E 0 9f 34 5a
        E 0 82 47 64
        E 0 83 40 64
        E 0 8f 34 64
        E 0 92 47 64
        E 0 93 40 5a
        E 0 9f 34 5a
        E 0 82 47 64
        E 0 83 40 64
        E 0 8a 44 64
        E 0 92 4c 64
        E 0 93 40 5a
        E 0 9a 48 64
        E 0 82 4c 64
        E 0 83 40 64
        E 0 8a 48 64
        E 0 8f 34 64
        E 0 92 48 64
        E 0 93 41 5a
        E 0 9a 45 64
        E 0 82 48 64
        E 0 83 41 64
        E 0 92 48 64
        E 0 93 41 5a
        E 0 9f 35 5a
        E 0 82 48 64
        E 0 83 41 64
        E 0 8f 35 64
        E 0 92 48 64
        E 0 93 41 5a
        E 0 9f 35 5a
        E 0 82 48 64
        E 0 83 41 64
        E 0 8a 45 64
        E 0 8f 35 64
        E 1 92 4d 64
        E 0 93 38 5a
        E 0 9a 4a 64
        E 0 9f 2c 5a
        E 0 82 4d 64
        E 0 83 38 64
        E 0 8a 4a 64
        E 0 8f 2c 64
        E 0 92 4c 64
        E 0 93 39 5a
        E 0 9a 48 64
        E 0 9f 2d 5a
        E 0 82 4c 64
        E 0 83 39 64
        E 0 8a 48 64
        E 0 92 48 64
        E 0 93 39 5a
        E 0 9a 47 64
        E 0 8a 47 64
        E 0 9a 45 64
        E 0 82 48 64
        E 0 83 39 64
        E 0 8a 45 64
        E 0 8f 2d 64
        E 0 92 47 64
        E 0 93 40 5a
        E 0 9a 47 64
        E 0 9f 34 5a
        E 0 82 47 64
        E 0 83 40 64
        E 0 92 47 64
        E 0 93 40 5a
        E 0 82 47 64
        E 0 83 40 64
        E 0 8a 47 64
        E 0 8f 34 64
        E 0 92 48 64
        E 0 93 39 5a
        E 0 9a 45 64
        E 0 9f 2d 5a
        E 0 82 48 64
        E 0 83 39 64
        E 0 8a 45 64
        E 0 8f 2d 64
        E 0 95 45 64
        E 0 9e 45 64
        E 0 9f 32 5a
        E 0 85 45 64
        E 0 8e 45 64
        E 0 95 45 64
        E 0 9e 45 64
        E 0 85 45 64
        E 0 8e 45 64
        E 0 95 45 64
        E 0 9e 45 64
        E 0 85 45 64
        E 0 8e 45 64
        E 0 95 43 64
        E 0 9e 43 64
        E 0 85 43 64
        E 0 8e 43 64
        E 0 95 45 64
        E 0 9e 45 64
        E 0 85 45 64
        E 0 8e 45 64
        E 0 8f 32 64
        E 0 95 46 66
        E 0 9e 46 66
        E 0 9f 37 5a
        E 0 85 46 66
        E 0 8e 46 66
        E 0 95 46 66
        E 0 9e 46 66
        E 0 85 46 66
        E 0 8e 46 66
        E 0 95 46 66
        E 0 9e 46 66
        E 0 85 46 66
        E 0 8e 46 66
        E 0 95 43 64
        E 0 9e 43 64
        E 0 85 43 64
        E 0 8e 43 64
        E 0 8f 37 64
        E 0 95 48 64
        E 1 9e 48 64
        E 0 9f 33 5b
        E 0 85 48 64
        E 0 8e 48 64
        E 0 95 48 64
        E 0 9e 48 64
        E 0 85 48 64
        E 0 8e 48 64
        E 0 95 43 64
        E 0 9e 43 64
        E 0 85 43 64
        E 0 8e 43 64
        E 0 8f 33 66
        E 0 95 45 64
        E 0 9e 45 64
        E 0 9f 32 5a
        E 0 85 45 64
        E 0 8e 45 64
        E 0 95 45 64
        E 0 9e 45 64
        E 0 85 45 64
        E 0 8e 45 64
        E 0 8f 32 64
        E 0 9f 32 5a
        E 0 98 4a 64
        E 0 9e 4a 64
        E 0 88 4a 64
        E 0 8e 4a 64
        E 0 98 4a 64
        E 0 9e 4a 64
        E 0 88 4a 64
        E 0 8e 4a 64
        E 0 98 4a 64
        E 0 9e 4a 64
        E 0 88 4a 64
        E 0 8e 4a 64
        E 0 8f 32 64
        E 0 98 47 64
        E 0 9e 47 64
        E 0 9f 2c 5a
        E 0 88 47 64
        E 0 8e 47 64
        E 0 98 47 64
        E 0 9e 47 64
        E 0 88 47 64
        E 0 8e 47 64
        E 0 8f 2c 64
        E 0 98 44 64
        E 0 9e 44 64
        E 0 9f 2c 5a
        E 0 88 44 64
        E 0 8e 44 64
        E 0 98 45 64
        E 0 9e 45 64
        E 0 88 45 64
        E 0 8e 45 64
        E 1 98 47 64
        E 0 9e 47 64
        E 0 88 47 64
        E 0 8e 47 64
        E 0 98 47 64
        E 0 9e 47 64
        E 0 88 47 64
        E 0 8e 47 64
        E 0 98 48 64
        E 0 9e 48 64
        E 0 88 48 64
        E 0 8e 48 64
        E 0 8f 2c 64
        E 0 98 45 64
        E 0 9e 45 64
        E 0 9f 2d 5a
        E 38403 88 45 64
        E 0 8e 45 64
        E 0 98 45 64
        E 0 9e 45 64
        E 0 88 45 64
        E 0 8e 45 64
        E 0 95 40 64
        E 0 9e 40 64
        E 0 85 40 64
        E 0 8e 40 64
        E 0 95 40 64
        E 0 9e 40 64
        E 0 85 40 64
        E 0 8e 40 64
        E 0 95 45 64
        E 0 9e 45 64
        E 0 85 45 64
        E 0 8e 45 64
        E 0 8f 2d 64
        E 0 95 42 64
        E 0 9e 42 64
        E 0 9f 33 5a
        E 0 85 42 64
        E 0 8e 42 64
        E 0 95 42 64
        E 0 9e 42 64
        E 0 85 42 64
        E 0 8e 42 64
        E 0 95 48 64
        E 0 9e 48 64
        E 0 85 48 64
        E 0 8e 48 64
        E 0 95 45 64
        E 0 9e 45 64
        E 0 85 45 64
        E 0 8e 45 64
        E 0 95 45 64
        E 1 9e 45 64
        E 0 85 45 64
        E 0 8e 45 64
        E 0 95 45 64
        E 0 9e 45 64
        E 0 85 45 64
        E 0 8e 45 64
        E 0 95 43 64
        E 0 9e 43 64
        E 0 85 43 64
        E 0 8e 43 64
        E 0 8f 33 64
        E 0 95 40 64
        E 0 9e 40 64
        E 0 9f 34 5a
        E 0 85 40 64
        E 0 8e 40 64
        E 0 95 40 64
        E 0 9e 40 64
        E 0 85 40 64
        E 0 8e 40 64
        E 0 98 43 64
        E 0 9e 43 64
        E 0 88 43 64
        E 0 8e 43 64
        E 0 98 47 64
        E 0 9e 47 64
        E 0 88 47 64
        E 0 8e 47 64
        E 0 98 47 64
        E 0 9e 47 64
        E 0 88 47 64
        E 0 8e 47 64
        E 0 98 4c 64
        E 0 9e 4c 64
        E 0 88 4c 64
        E 0 8e 4c 64
        E 0 8f 34 64
        E 0 98 47 64
        E 0 9e 47 64
        E 0 9f 34 5a
        E 0 88 47 64
        E 0 8e 47 64
        E 0 98 47 64
        E 0 9e 47 64
        E 0 88 47 64
        E 0 8e 47 64
        E 0 98 47 64
        E 0 9e 47 64
        E 0 88 47 64
        E 0 8e 47 64
        E 0 8f 34 64
        E 0 98 49 64
        E 0 9e 49 64
        E 0 9f 35 59
        E 0 88 49 64
        E 0 8e 49 64
        E 0 98 49 64
        E 0 9e 49 64
        E 0 88 49 64
        E 1 8e 49 64
        E 0 98 49 64
        E 0 9e 49 64
        E 0 88 49 64
        E 0 8e 49 64
        E 0 98 44 64
        E 0 9e 44 64
        E 0 88 44 64
        E 0 8e 44 64
        E 0 8f 35 63
        E 0 98 45 64
        E 0 9e 45 64
        E 0 9f 36 5a
        E 0 88 45 64
        E 0 8e 45 64
        E 0 98 45 64
        E 0 9e 45 64
        E 0 88 45 64
        E 0 8e 45 64
        E 0 98 49 64
        E 0 9e 49 64
        E 0 88 49 64
        E 0 8e 49 64
        E 0 98 4a 64
        E 0 9e 4a 64
        E 0 88 4a 64
        E 0 8e 4a 64
        E 0 8f 36 64
        E 0 98 47 64
        E 0 9e 47 64
        E 0 9f 32 5a
        E 0 88 47 64
        E 0 8e 47 64
        E 0 98 47 64
        E 0 9e 47 64
        E 0 88 47 64
        E 0 8e 47 64
        E 0 98 42 64
        E 0 9e 42 64
        E 0 88 42 64
        E 0 8e 42 64
        E 0 8f 32 64
        E 0 98 44 64
        E 0 9e 44 64
        E 0 9f 31 5a
        E 0 88 44 64
        E 0 8e 44 64
        E 0 98 44 64
        E 0 9e 44 64
        E 0 88 44 64
        E 0 8e 44 64
        E 0 95 41 63
        E 0 9e 41 63
        E 1 85 41 63
        E 0 8e 41 63
        E 0 95 41 63
        E 0 9e 41 63
        E 0 85 41 63
        E 0 8e 41 63
        E 0 95 42 64
        E 0 9e 42 64
        E 0 85 42 64
        E 0 8e 42 64
        E 0 95 44 64
        E 0 9e 44 64
        E 0 85 44 64
        E 0 8e 44 64
        E 0 95 44 64
        E 0 9e 44 64
        E 0 85 44 64
        E 0 8e 44 64
        E 0 8f 31 64
        E 0 95 47 64
        E 0 9e 47 64
        E 0 9f 31 5a
        E 0 85 47 64
        E 0 8e 47 64
        E 0 95 47 64
        E 0 9e 47 64
        E 0 85 47 64
        E 0 8e 47 64
        E 0 95 47 64
        E 0 9e 47 64
        E 0 85 47 64
        E 0 8e 47 64
        E 0 95 45 64
        E 0 9e 45 64
        E 0 85 45 64
        E 0 8e 45 64
        E 0 95 44 64
        E 0 9e 44 64
        E 0 85 44 64
        E 0 8e 44 64
        E 0 8f 31 64
        E 0 95 45 64
        E 0 9e 45 64
        E 0 9f 36 5a
        E 0 85 45 64
        E 0 8e 45 64
        E 0 95 45 64
        E 0 9e 45 64
        E 0 85 45 64
        E 0 8e 45 64
        E 0 8f 36 64
        E 0 95 45 64
        E 1 9e 45 64
        E 0 9f 36 5a
        E 0 85 45 64
        E 0 8e 45 64
        E 0 95 45 64
        E 0 9e 45 64
        E 0 85 45 64
        E 0 8e 45 64
        E 0 95 45 64
        E 0 9e 45 64
        E 0 85 45 64
        E 0 8e 45 64
        E 0 95 45 64
        E 0 9e 45 64
        E 0 85 45 64
        E 0 8e 45 64
        E 0 95 44 64
        E 0 9e 44 64
        E 0 85 44 64
        E 0 8e 44 64
        E 0 8f 36 64
        E 0 95 47 64
        E 0 9e 47 64
        E 0 9f 34 5a
        E 0 85 47 64
        E 0 8e 47 64
        E 0 95 47 64
        E 0 9e 47 64
        E 0 85 47 64
        E 0 8e 47 64
        E 0 8f 34 64
        E 0 98 4c 64
        E 0 9e 4c 64
        E 0 9f 34 5a
        E 0 88 4c 64
        E 0 8e 4c 64
        E 0 98 47 64
        E 0 9e 47 64
        E 0 88 47 64
        E 0 8e 47 64
        E 0 98 49 64
        E 1 9e 49 64
        E 0 88 49 64
        E 0 8e 49 64
        E 0 8f 34 64
        E 0 98 45 64
        E 0 9e 45 64
        E 0 9f 2d 5a
        E 0 88 45 64
        E 0 8e 45 64
        E 0 8f 2d 64
        E 0 98 40 64
        E 0 9e 40 64
        E 0 9f 2d 5a
        E 0 88 40 64
        E 0 8e 40 64
        E 0 98 40 64
        E 0 9e 40 64
        E 0 88 40 64
        E 0 8e 40 64
        E 0 98 40 64
        E 0 9e 40 64
        E 0 88 40 64
        E 0 8e 40 64
        E 0 98 45 64
        E 0 9e 45 64
        E 0 88 45 64
        E 0 8e 45 64
        E 0 98 47 64
        E 0 9e 47 64
        E 0 88 47 64
        E 0 8e 47 64
        E 0 98 49 64
        E 0 9e 49 64
        E 0 88 49 64
        E 0 8e 49 64
        E 0 98 49 64
        E 0 9e 49 64
        E 0 88 49 64
        E 0 8e 49 64
        E 0 8f 2d 64
        E 0 95 45 64
        E 0 9e 45 64
        E 0 9f 2d 5a
        E 0 85 45 64
        E 0 8e 45 64
        E 0 95 40 64
        E 0 9e 40 64
        E 0 85 40 64
        E 0 8e 40 64
        E 0 95 45 64
        E 0 9e 45 64
        E 0 85 45 64
        E 0 8e 45 64
        E 1 8f 2d 64
        E 0 95 42 64
        E 0 9e 42 64
        E 0 9f 32 5a
        E 38403 85 42 64
        E 0 8e 42 64
        E 0 95 48 64
        E 0 9e 48 64
        E 0 85 48 64
        E 0 8e 48 64
        E 0 8f 32 64
        E 0 95 46 64
        E 0 9e 46 64
        E 0 9f 34 5a
        E 0 85 46 64
        E 0 8e 46 64
        E 0 95 46 64
        E 0 9e 46 64
        E 0 85 46 64
        E 0 8e 46 64
        E 0 95 42 64
        E 0 9e 42 64
        E 0 85 42 64
        E 0 8e 42 64
        E 0 95 42 64
        E 0 9e 42 64
        E 0 85 42 64
        E 0 8e 42 64
        E 0 95 49 64
        E 0 9e 49 64
        E 0 85 49 64
        E 0 8e 49 64
        E 0 95 49 64
        E 0 9e 49 64
        E 0 85 49 64
        E 0 8e 49 64
        E 0 95 4a 64
        E 0 9e 4a 64
        E 0 85 4a 64
        E 0 8e 4a 64
        E 0 8f 34 64
        E 0 95 47 64
        E 0 9e 47 64
        E 0 9f 2f 5a
        E 0 85 47 64
        E 0 8e 47 64
        E 0 95 47 64
        E 0 9e 47 64
        E 0 85 47 64
        E 0 8e 47 64
        E 0 95 44 64
        E 0 9e 44 64
        E 0 85 44 64
        E 0 8e 44 64
        E 0 95 42 64
        E 0 9e 42 64
        E 0 85 42 64
        E 0 8e 42 64
        E 0 95 42 64
        E 0 9e 42 64
        E 0 85 42 64
        E 0 8e 42 64
        E 0 95 42 64
        E 0 9e 42 64
        E 0 85 42 64
        E 0 8e 42 64
        E 0 95 40 64
        E 1 9e 40 64
        E 0 85 40 64
        E 0 8e 40 64
        E 0 95 42 64
        E 0 9e 42 64
        E 0 85 42 64
        E 0 8e 42 64
        E 0 8f 2f 64
        E 0 95 43 64
        E 0 9e 43 64
        E 0 9f 34 5a
        E 0 85 43 64
        E 0 8e 43 64
        E 0 95 43 64
        E 0 9e 43 64
        E 0 85 43 64
        E 0 8e 43 64
        E 0 95 47 64
        E 0 9e 47 64
        E 0 85 47 64
        E 0 8e 47 64
        E 0 95 46 64
        E 0 9e 46 64
        E 0 85 46 64
        E 0 8e 46 64
        E 0 95 47 64
        E 0 9e 47 64
        E 0 85 47 64
        E 0 8e 47 64
        E 0 8f 34 64
        E 0 95 42 64
        E 0 9e 42 64
        E 0 9f 36 5a
        E 0 85 42 64
        E 0 8e 42 64
        E 0 95 42 64
        E 0 9e 42 64
        E 0 85 42 64
        E 0 8e 42 64
        E 0 8f 36 64
        E 0 9f 2f 5a
        E 0 95 42 64
        E 0 9e 42 64
        E 0 85 42 64
        E 0 8e 42 64
        E 0 95 42 64
        E 0 9e 42 64
        E 0 85 42 64
        E 0 8e 42 64
        E 0 95 42 64
        E 0 9e 42 64
        E 0 85 42 64
        E 0 8e 42 64
        E 0 8f 2f 64
        E 0 95 3f 64
        E 0 9e 3f 64
        E 0 9f 2d 5a
        E 0 85 3f 64
        E 0 8e 3f 64
        E 0 95 3f 64
        E 0 9e 3f 64
        E 0 85 3f 64
        E 0 8e 3f 64
        E 0 95 48 64
        E 0 9e 48 64
        E 0 85 48 64
        E 0 8e 48 64
        E 0 8f 2d 64
        E 0 95 45 64
        E 0 9e 45 64
        E 0 9f 33 5a
        E 0 85 45 64
        E 0 8e 45 64
        E 0 95 45 64
        E 0 9e 45 64
        E 0 85 45 64
        E 0 8e 45 64
        E 0 95 45 64
        E 0 9e 45 64
        E 0 85 45 64
        E 0 8e 45 64
        E 0 95 45 64
        E 0 9e 45 64
        E 0 85 45 64
        E 0 8e 45 64
        E 0 95 43 64
        E 0 9e 43 64
        E 0 85 43 64
        E 0 8e 43 64
        E 0 8f 33 64
        E 0 95 40 64
        E 0 9e 40 64
        E 0 9f 34 5a
        E 0 85 40 64
        E 0 8e 40 64
        E 0 95 40 64
        E 0 9e 40 64
        E 0 85 40 64
        E 0 8e 40 64
        E 0 95 47 64
        E 1 9e 47 64
        E 0 85 47 64
        E 0 8e 47 64
        E 0 95 47 64
        E 0 9e 47 64
        E 0 85 47 64
        E 0 8e 47 64
        E 0 95 47 64
        E 0 9e 47 64
        E 0 85 47 64
        E 0 8e 47 64
        E 0 8f 34 64
        E 0 95 44 64
        E 0 9e 44 64
        E 0 9f 32 5a
        E 0 85 44 64
        E 0 8e 44 64
        E 0 95 44 64
        E 0 9e 44 64
        E 0 85 44 64
        E 0 8e 44 64
        E 0 95 40 64
        E 0 9e 40 64
        E 0 85 40 64
        E 0 8e 40 64
        E 0 8f 32 64
        E 0 95 47 64
        E 0 9e 47 64
        E 0 9f 32 5a
        E 0 85 47 64
        E 0 8e 47 64
        E 0 95 47 64
        E 0 9e 47 64
        E 0 85 47 64
        E 0 8e 47 64
        E 0 95 47 64
        E 0 9e 47 64
        E 0 85 47 64
        E 0 8e 47 64
        E 0 95 48 64
        E 0 9e 48 64
        E 0 85 48 64
        E 0 8e 48 64
        E 0 8f 32 64
        E 0 95 45 64
        E 0 9e 45 64
        E 0 9f 30 5a
        E 0 85 45 64
        E 0 8e 45 64
        E 0 95 48 64
        E 0 9e 48 64
        E 0 85 48 64
        E 0 8e 48 64
        E 0 95 48 64
        E 0 9e 48 64
        E 0 85 48 64
        E 0 8e 48 64
        E 0 95 46 66
        E 0 9e 46 66
        E 0 85 46 66
        E 0 8e 46 66
        E 0 8f 30 64
        E 0 95 46 66
        E 0 9e 46 66
        E 0 9f 31 5a
        E 0 85 46 66
        E 0 8e 46 66
        E 0 95 46 66
        E 0 9e 46 66
        E 0 85 46 66
        E 0 8e 46 66
        E 0 95 43 64
        E 0 9e 43 64
        E 0 85 43 64
        E 0 8e 43 64
        E 0 95 43 64
        E 0 9e 43 64
        E 0 85 43 64
        E 0 8e 43 64
        E 0 95 43 64
        E 0 9e 43 64
        E 0 8f 31 64
        E 0 85 43 64
        E 0 8e 43 64
        E 0 9f 31 5a
        E 0 95 40 64
        E 0 9e 40 64
        E 0 85 40 64
        E 0 8e 40 64
        E 0 95 40 64
        E 0 9e 40 64
        E 0 85 40 64
        E 0 8e 40 64
        E 0 95 46 66
        E 0 9e 46 66
        E 0 85 46 66
        E 0 8e 46 66
        E 0 95 43 64
        E 0 9e 43 64
        E 0 85 43 64
        E 0 8e 43 64
        E 0 95 43 64
        E 0 9e 43 64
        E 0 85 43 64
        E 0 8e 43 64
        E 0 8f 31 64
        E 0 95 49 64
        E 0 9e 49 64
        E 0 9f 37 5a
        E 0 85 49 64
        E 0 8e 49 64
        E 0 95 49 64
        E 1 9e 49 64
        E 0 85 49 64
        E 0 8e 49 64
        E 0 95 49 64
        E 0 9e 49 64
        E 0 85 49 64
        E 0 8e 49 64
        E 0 95 49 64
        E 0 9e 49 64
        E 0 85 49 64
        E 0 8e 49 64
        E 0 95 4a 64
        E 0 9e 4a 64
        E 0 85 4a 64
        E 0 8e 4a 64
        E 0 8f 37 64
        E 0 95 45 64
        E 0 9e 45 64
        E 0 9f 35 5a
        E 38403 85 45 64
        E 0 8e 45 64
        E 0 95 45 64
        E 0 9e 45 64
        E 0 85 45 64
        E 0 8e 45 64
        E 0 95 41 64
        E 0 9e 41 64
        E 0 85 41 64
        E 0 8e 41 64
        E 0 95 41 64
        E 0 9e 41 64
        E 0 85 41 64
        E 0 8e 41 64
        E 0 95 41 64
        E 0 9e 41 64
        E 0 85 41 64
        E 0 8e 41 64
        E 0 8f 35 64
        E 0 95 47 64
        E 0 9e 47 64
        E 0 9f 35 5a
        E 0 85 47 64
        E 0 8e 47 64
        E 0 95 47 64
        E 0 9e 47 64
        E 0 85 47 64
        E 0 8e 47 64
        E 0 95 47 64
        E 0 9e 47 64
        E 0 85 47 64
        E 0 8e 47 64
        E 0 95 4a 64
        E 0 9e 4a 64
        E 0 85 4a 64
        E 0 8e 4a 64
        E 0 8f 35 64
        E 0 95 41 64
        E 0 9e 41 64
        E 0 9f 2f 5a
        E 0 85 41 64
        E 0 8e 41 64
        E 0 95 41 64
        E 0 9e 41 64
        E 0 85 41 64
        E 0 8e 41 64
        E 0 95 3f 66
        E 0 9e 3f 66
        E 0 85 3f 66
        E 0 8e 3f 66
        E 0 8f 2f 64
        E 0 95 3c 64
        E 0 9e 3c 64
        E 0 9f 30 5a
        E 0 85 3c 64
        E 0 8e 3c 64
        E 0 95 3c 64
        E 1 9e 3c 64
        E 0 85 3c 64
        E 0 8e 3c 64
        E 0 95 43 64
        E 0 9e 43 64
        E 0 85 43 64
        E 0 8e 43 64
        E 0 95 43 64
        E 0 9e 43 64
        E 0 85 43 64
        E 0 8e 43 64
        E 0 95 45 64
        E 0 9e 45 64
        E 0 85 45 64
        E 0 8e 45 64
        E 0 8f 30 64
        E 0 95 45 64
        E 0 9e 45 64
        E 0 9f 33 5b
        E 0 85 45 64
        E 0 8e 45 64
        E 0 95 45 64
        E 0 9e 45 64
        E 0 85 45 64
        E 0 8e 45 64
        E 0 95 45 64
        E 0 9e 45 64
        E 0 85 45 64
        E 0 8e 45 64
        E 0 95 48 64
        E 0 9e 48 64
        E 0 85 48 64
        E 0 8e 48 64
        E 0 8f 33 66
        E 0 95 41 64
        E 0 9e 41 64
        E 0 9f 33 5b
        E 0 85 41 64
        E 0 8e 41 64
        E 0 95 41 64
        E 0 9e 41 64
        E 0 85 41 64
        E 0 8e 41 64
        E 0 95 49 66
        E 0 9e 49 66
        E 0 85 49 66
        E 0 8e 49 66
        E 0 8f 33 66
        E 0 95 46 66
        E 0 9e 46 66
        E 0 9f 31 5b
        E 0 85 46 66
        E 0 8e 46 66
        E 0 95 46 66
        E 1 9e 46 66
        E 0 85 46 66
        E 0 8e 46 66
        E 0 95 41 64
        E 0 9e 41 64
        E 0 85 41 64
        E 0 8e 41 64
        E 0 95 41 64
        E 0 9e 41 64
        E 0 85 41 64
        E 0 8e 41 64
        E 0 95 42 66
        E 0 9e 42 66
        E 0 85 42 66
        E 0 8e 42 66
        E 0 8f 31 66
        E 0 95 42 66
        E 0 9e 42 66
        E 0 9f 33 5b
        E 0 85 42 66
        E 0 8e 42 66
        E 0 95 42 66
        E 0 9e 42 66
        E 0 85 42 66
        E 0 8e 42 66
        E 0 95 42 66
        E 0 9e 42 66
        E 0 85 42 66
        E 0 8e 42 66
        E 0 95 41 64
        E 0 9e 41 64
        E 0 85 41 64
        E 0 8e 41 64
        E 0 95 3f 66
        E 0 9e 3f 66
        E 0 85 3f 66
        E 0 8e 3f 66
        E 0 95 45 64
        E 0 9e 45 64
        E 0 85 45 64
        E 0 8e 45 64
        E 0 95 46 66
        E 0 9e 46 66
        E 0 85 46 66
        E 0 8e 46 66
        E 0 8f 33 66
        E 0 95 41 64
        E 0 9e 41 64
        E 0 9f 35 5a
        E 0 85 41 64
        E 0 8e 41 64
        E 0 95 41 64
        E 0 9e 41 64
        E 0 85 41 64
        E 0 8e 41 64
        E 0 8f 35 64
        E 0 9f 2e 5b
        E 0 8f 2e 66
        E 0 98 46 66
        E 0 9e 46 66
        E 0 9f 2e 5b
        E 0 88 46 66
        E 0 8e 46 66
        E 0 98 46 66
        E 0 9e 46 66
        E 0 88 46 66
        E 0 8e 46 66
        E 1 98 49 66
        E 0 9e 49 66
        E 0 88 49 66
        E 0 8e 49 66
        E 0 98 49 66
        E 0 9e 49 66
        E 0 88 49 66
        E 0 8e 49 66
        E 0 98 48 64
        E 0 9e 48 64
        E 0 88 48 64
        E 0 8e 48 64
        E 0 8f 2e 66
        E 0 98 48 64
        E 0 9e 48 64
        E 0 9f 34 5a
        E 0 88 48 64
        E 0 8e 48 64
        E 0 98 48 64
        E 0 9e 48 64
        E 0 88 48 64
        E 0 8e 48 64
        E 0 98 48 64
        E 0 9e 48 64
        E 0 88 48 64
        E 0 8e 48 64
        E 0 98 43 64
        E 0 9e 43 64
        E 0 88 43 64
        E 0 8e 43 64
        E 0 98 45 64
        E 0 9e 45 64
        E 0 88 45 64
        E 0 8e 45 64
        E 0 8f 34 64
        E 0 98 41 64
        E 0 9e 41 64
        E 0 9f 35 5a
        E 0 88 41 64
        E 0 8e 41 64
        E 0 98 41 64
        E 0 9e 41 64
        E 0 88 41 64
        E 0 8e 41 64
        E 0 98 45 64
        E 0 9e 45 64
        E 0 88 45 64
        E 0 8e 45 64
        E 0 98 45 64
        E 0 9e 45 64
        E 0 88 45 64
        E 0 8e 45 64
        E 0 98 45 64
        E 0 9e 45 64
        E 0 88 45 64
        E 0 8e 45 64
        E 0 8f 35 64
        E 0 98 4a 64
        E 0 9e 4a 64
        E 0 9f 36 5a
        E 0 88 4a 64
        E 0 8e 4a 64
        E 0 98 4a 64
        E 0 9e 4a 64
        E 0 88 4a 64
        E 0 8e 4a 64
        E 0 98 45 64
        E 0 9e 45 64
        E 0 88 45 64
        E 0 8e 45 64
        E 0 98 45 64
        E 0 9e 45 64
        E 0 88 45 64
        E 0 8e 45 64
        E 0 98 45 64
        E 0 9e 45 64
        E 0 88 45 64
        E 1 8e 45 64
        E 0 98 43 64
        E 0 9e 43 64
        E 0 88 43 64
        E 0 8e 43 64
        E 0 98 45 64
        E 0 9e 45 64
        E 0 88 45 64
        E 0 8e 45 64
        E 0 8f 36 64
        E 0 98 46 66
        E 0 9e 46 66
        E 0 9f 37 5a
        E 0 88 46 66
        E 0 8e 46 66
        E 0 98 46 66
        E 0 9e 46 66
        E 0 88 46 66
        E 0 8e 46 66
        E 0 98 43 64
        E 0 9e 43 64
        E 0 88 43 64
        E 0 8e 43 64
        E 0 98 49 64
        E 0 9e 49 64
        E 0 88 49 64
        E 0 8e 49 64
        E 0 98 49 64
        E 0 9e 49 64
        E 0 88 49 64
        E 0 8e 49 64
        E 0 98 49 64
        E 0 9e 49 64
        E 0 88 49 64
        E 0 8e 49 64
        E 0 98 4a 64
        E 0 9e 4a 64
        E 0 88 4a 64
        E 0 8e 4a 64
        E 0 8f 37 64
        E 0 98 45 64
        E 0 9e 45 64
        E 0 9f 39 5a
        E 0 88 45 64
        E 1 8e 45 64
        E 0 98 45 64
        E 0 9e 45 64
        E 0 88 45 64
        E 0 8e 45 64
        E 0 8f 39 64
        E 0 9f 32 5a
        E 0 95 41 64
        E 0 9e 41 64
        E 0 85 41 64
        E 0 8e 41 64
        E 0 95 41 64
        E 0 9e 41 64
        E 0 85 41 64
        E 0 8e 41 64
        E 0 95 43 64
        E 0 9e 43 64
        E 0 85 43 64
        E 0 8e 43 64
        E 0 8f 32 64
        E 0 95 45 64
        E 0 9e 45 64
        E 0 9f 32 5a
        E 0 85 45 64
        E 0 8e 45 64
        E 0 95 45 64
        E 0 9e 45 64
        E 0 85 45 64
        E 0 8e 45 64
        E 0 8f 32 64
        E 0 95 45 64
        E 0 9e 45 64
        E 0 9f 35 5a
        E 0 85 45 64
        E 0 8e 45 64
        E 0 95 45 64
        E 0 9e 45 64
        E 0 85 45 64
        E 0 8e 45 64
        E 0 95 45 64
        E 0 9e 45 64
        E 0 85 45 64
        E 0 8e 45 64
        E 0 95 45 64
        E 0 9e 45 64
        E 0 85 45 64
        E 0 8e 45 64
        E 0 95 44 64
        E 0 9e 44 64
        E 0 85 44 64
        E 0 8e 44 64
        E 0 8f 35 64
        E 0 95 47 64
        E 0 9e 47 64
        E 0 9f 34 5a
        E 38403 85 47 64
        E 0 8e 47 64
        E 0 98 48 64
        E 0 9e 48 64
        E 0 88 48 64
        E 0 8e 48 64
        E 0 8f 34 64
        E 0 98 45 64
        E 0 9e 45 64
        E 0 9f 2d 5a
        E 0 88 45 64
        E 0 8e 45 64
        E 0 98 45 64
        E 1 9e 45 64
        E 0 88 45 64
        E 0 8e 45 64
        E 0 98 48 64
        E 0 9e 48 64
        E 0 88 48 64
        E 0 8e 48 64
        E 0 8f 2d 64
        E 0 98 47 64
        E 0 9e 47 64
        E 0 9f 33 5a
        E 0 88 47 64
        E 0 8e 47 64
        E 0 98 47 64
        E 0 9e 47 64
        E 0 88 47 64
        E 0 8e 47 64
        E 0 8f 33 64
        E 0 98 47 64
        E 0 9e 47 64
        E 0 9f 33 5a
        E 0 88 47 64
        E 0 8e 47 64
        E 0 98 47 64
        E 0 9e 47 64
        E 0 88 47 64
        E 0 8e 47 64
        E 0 98 4b 64
        E 0 9e 4b 64
        E 0 88 4b 64
        E 0 8e 4b 64
        E 0 98 4b 64
        E 0 9e 4b 64
        E 0 88 4b 64
        E 0 8e 4b 64
        E 0 98 4c 64
        E 0 9e 4c 64
        E 0 88 4c 64
        E 0 8e 4c 64
        E 0 8f 33 64
        E 0 98 47 64
        E 0 9e 47 64
        E 0 9f 34 5a
        E 0 88 47 64
        E 0 8e 47 64
        E 0 98 47 64
        E 0 9e 47 64
        E 0 88 47 64
        E 0 8e 47 64
        E 0 98 47 64
        E 0 9e 47 64
        E 0 88 47 64
        E 0 8e 47 64
        E 0 98 47 64
        E 0 9e 47 64
        E 0 88 47 64
        E 0 8e 47 64
        E 0 98 49 64
        E 0 9e 49 64
        E 0 88 49 64
        E 0 8e 49 64
        E 0 8f 34 64
        E 0 98 46 64
        E 0 9e 46 64
        E 0 9f 34 5a
        E 0 88 46 64
        E 0 8e 46 64
        E 0 98 46 64
        E 0 9e 46 64
        E 0 88 46 64
        E 0 8e 46 64
        E 0 98 42 64
        E 0 9e 42 64
        E 0 88 42 64
        E 0 8e 42 64
        E 0 98 42 64
        E 0 9e 42 64
        E 0 88 42 64
        E 0 8e 42 64
        E 0 8f 34 64
        E 0 98 49 64
        E 0 9e 49 64
        E 0 9f 2e 5a
        E 0 88 49 64
        E 0 8e 49 64
        E 0 98 49 64
        E 0 9e 49 64
        E 0 88 49 64
        E 0 8e 49 64
        E 0 98 4a 64
        E 0 9e 4a 64
        E 0 88 4a 64
        E 0 8e 4a 64
        E 0 8f 2e 64
        E 0 98 47 64
        E 0 9e 47 64
        E 1 9f 2f 5a
        E 0 88 47 64
        E 0 8e 47 64
        E 0 98 42 64
        E 0 9e 42 64
        E 0 88 42 64
        E 0 8e 42 64
        E 0 98 42 64
        E 0 9e 42 64
        E 0 88 42 64
        E 0 8e 42 64
        E 0 98 42 64
        E 0 9e 42 64
        E 0 88 42 64
        E 0 8e 42 64
        E 0 8f 2f 64
        E 0 98 47 64
        E 0 9e 47 64
        E 0 9f 2f 5a
        E 0 88 47 64
        E 0 8e 47 64
        E 0 98 47 64
        E 0 9e 47 64
        E 0 88 47 64
        E 0 8e 47 64
        E 0 98 4a 64
        E 0 9e 4a 64
        E 0 88 4a 64
        E 0 8e 4a 64
        E 0 8f 2f 64
        E 0 98 47 64
        E 0 9e 47 64
        E 0 9f 2f 5a
        E 0 88 47 64
        E 0 8e 47 64
        E 0 98 47 64
        E 0 9e 47 64
        E 0 88 47 64
        E 0 8e 47 64
        E 0 98 47 64
        E 0 9e 47 64
        E 0 88 47 64
        E 0 8e 47 64
        E 0 98 47 64
        E 0 9e 47 64
        E 0 88 47 64
        E 0 8e 47 64
        E 0 8f 2f 64
        E 0 98 44 64
        E 0 9e 44 64
        E 0 9f 32 5a
        E 0 88 44 64
        E 0 8e 44 64
        E 0 98 44 64
        E 0 9e 44 64
        E 0 88 44 64
        E 0 8e 44 64
        E 0 8f 32 64
        E 0 95 47 64
        E 0 9e 47 64
        E 0 9f 32 5a
        E 0 85 47 64
        E 0 8e 47 64
        E 0 95 40 64
        E 0 9e 40 64
        E 0 85 40 64
        E 0 8e 40 64
        E 0 95 40 64
        E 0 9e 40 64
        E 0 85 40 64
        E 0 8e 40 64
        E 0 95 47 64
        E 0 9e 47 64
        E 0 85 47 64
        E 0 8e 47 64
        E 0 95 48 64
        E 0 9e 48 64
        E 0 85 48 64
        E 0 8e 48 64
        E 0 8f 32 64
        E 0 95 48 64
        E 0 9e 48 64
        E 0 9f 2d 5a
        E 0 85 48 64
        E 0 8e 48 64
        E 0 95 48 64
        E 0 9e 48 64
        E 0 85 48 64
        E 0 8e 48 64
        E 0 8f 2d 64
        E 0 95 45 64
        E 1 9e 45 64
        E 0 9f 35 5a
        E 0 85 45 64
        E 0 8e 45 64
        E 0 95 47 64
        E 0 9e 47 64
        E 0 85 47 64
        E 0 8e 47 64
        E 0 95 48 64
        E 0 9e 48 64
        E 0 85 48 64
        E 0 8e 48 64
        E 0 8f 35 64
        E 0 95 43 64
        E 0 9e 43 64
        E 0 9f 37 5a
        E 0 85 43 64
        E 0 8e 43 64
        E 0 95 43 64
        E 0 9e 43 64
        E 0 85 43 64
        E 0 8e 43 64
        E 0 8f 37 64
        E 0 9f 30 5a
        E 0 8f 30 64
        E 0 92 43 64
        E 0 82 43 64
        E 0 92 43 64
        E 0 93 3b 5a
        E 0 9f 37 5a
        E 0 82 43 64
        E 0 83 3b 64
        E 0 8f 37 64
        E 0 92 43 64
        E 0 93 3b 5a
        E 0 9f 37 5a
        E 0 82 43 64
        E 0 92 47 64
        E 0 82 47 64
        E 0 92 45 64
        E 0 82 45 64
        E 0 92 48 64
        E 0 82 48 64
        E 0 83 3b 64
        E 0 8f 37 64
        E 0 92 47 64
        E 0 82 47 64
        E 0 92 47 64
        E 0 93 3e 5a
        E 0 9f 37 5a
        E 0 82 47 64
        E 0 83 3e 64
        E 0 8f 37 64
        E 0 92 47 64
        E 0 93 3e 5a
        E 0 9f 37 5a
        E 0 82 47 64
        E 0 92 4a 64
        E 0 82 4a 64
        E 0 92 48 64
        E 0 82 48 64
        E 1 92 4c 64
        E 0 82 4c 64
        E 0 83 3e 64
        E 0 8f 37 64
        E 0 92 4a 64
        E 0 82 4a 64
        E 0 92 4a 64
        E 0 93 3e 5a
        E 0 9f 37 5a
        E 0 83 3e 64
        E 0 8f 37 64
        E 0 93 3e 5a
        E 0 9f 37 5a
        E 0 82 4a 64
        E 0 92 4c 64
        E 0 82 4c 64
        E 0 83 3e 64
        E 0 8f 37 64
        E 0 92 42 64
        E 0 93 3e 5a
        E 0 9f 32 5a
        E 0 82 42 64
        E 0 83 3e 64
        E 0 8f 32 64
        E 0 92 43 64
        E 0 93 3e 5a
        E 0 9f 2b 5a
        E 0 82 43 64
        E 0 83 3e 64
        E 0 8f 2b 64
        E 0 92 43 64
        E 0 82 43 64
        E 0 92 43 64
        E 0 93 3b 5a
        E 0 9f 37 5a
        E 0 82 43 64
        E 0 83 3b 64
        E 0 8f 37 64
        E 0 92 43 64
        E 0 93 3b 5a
        E 0 9f 37 5a
        E 1 82 43 64
        E 0 92 47 64
        E 0 82 47 64
        E 0 92 45 64
        E 0 82 45 64
        E 0 92 48 64
        E 0 82 48 64
        E 0 83 3b 64
        E 0 8f 37 64
        E 0 92 47 64
        E 38403 82 47 64
        E 0 92 47 64
        E 0 93 3e 5a
        E 0 9f 37 5a
        E 0 82 47 64
        E 0 83 3e 64
        E 0 8f 37 64
        E 0 92 47 64
        E 0 93 3e 5a
        E 0 9f 37 5a
        E 1 82 47 64
        E 0 92 4a 64
        E 0 82 4a 64
        E 0 92 48 64
        E 0 82 48 64
        E 0 92 4c 64
        E 0 82 4c 64
        E 0 83 3e 64
        E 0 8f 37 64
        E 0 92 4a 64
        E 0 82 4a 64
        E 0 92 4a 64
        E 0 93 3e 5a
        E 0 9f 37 5a
        E 0 83 3e 64
        E 0 8f 37 64
        E 0 93 3e 5a
        E 0 9f 37 5a
        E 0 82 4a 64
        E 0 92 48 64
        E 0 82 48 64
        E 0 92 47 64
        E 0 82 47 64
        E 0 83 3e 64
        E 0 8f 37 64
        E 0 92 47 64
        E 0 93 3e 5a
        E 0 9f 32 5a
        E 0 82 47 64
        E 0 83 3e 64
        E 0 8f 32 64
        E 0 92 45 64
        E 0 93 3e 5a
        E 0 9f 26 5a
        E 0 82 45 64
        E 0 83 3e 64
        E 0 8f 26 64
        E 0 92 4a 64
        E 0 93 36 5a
        E 0 9f 32 5a
        E 0 82 4a 64
        E 0 83 36 64
        E 0 8f 32 64
        E 0 92 3e 64
        E 0 93 36 5a
        E 0 9f 32 5a
        E 0 82 3e 64
        E 0 83 36 64
        E 0 8f 32 64
        E 0 92 3e 64
        E 0 82 3e 64
        E 0 92 40 64
        E 0 82 40 64
        E 0 92 42 64
        E 0 93 39 5a
        E 0 9f 32 5a
        E 0 83 39 64
        E 0 8f 32 64
        E 0 93 39 5a
        E 0 9f 32 5a
        E 0 82 42 64
        E 0 92 43 64
        E 0 82 43 64
        E 0 83 39 64
        E 0 8f 32 64
        E 0 92 45 64
        E 0 82 45 64
        E 1 92 47 64
        E 0 82 47 64
        E 0 92 48 64
        E 0 93 42 5a
        E 0 9f 32 5a
        E 0 83 42 64
        E 0 8f 32 64
        E 0 93 42 5a
        E 0 9f 32 5a
        E 0 82 48 64
        E 0 92 47 64
        E 0 82 47 64
        E 0 83 42 64
        E 0 8f 32 64
        E 0 92 47 64
        E 0 93 3e 5a
        E 0 9f 32 5a
        E 0 82 47 64
        E 0 83 3e 64
        E 0 8f 32 64
        E 0 92 45 64
        E 0 93 3e 5a
        E 0 9f 26 5a
        E 0 82 45 64
        E 0 83 3e 64
        E 0 8f 26 64
        E 0 92 4a 64
        E 0 93 36 5a
        E 0 9f 32 5a
        E 0 82 4a 64
        E 0 83 36 64
        E 0 8f 32 64
        E 0 92 3e 64
        E 0 93 36 5a
        E 0 9f 32 5a
        E 0 82 3e 64
        E 0 83 36 64
        E 0 8f 32 64
        E 0 92 3e 64
        E 0 82 3e 64
        E 0 92 40 64
        E 0 82 40 64
        E 0 92 42 64
        E 0 93 39 5a
        E 0 9f 32 5a
        E 0 83 39 64
        E 0 8f 32 64
        E 0 93 39 5a
        E 0 9f 32 5a
        E 0 82 42 64
        E 0 92 43 64
        E 0 82 43 64
        E 0 83 39 64
        E 0 8f 32 64
        E 0 92 45 64
        E 0 82 45 64
        E 0 92 47 64
        E 0 82 47 64
        E 0 92 48 64
        E 0 93 42 5a
        E 0 9f 32 5a
        E 0 83 42 64
        E 0 8f 32 64
        E 0 93 42 5a
        E 0 9f 32 5a
        E 0 82 48 64
        E 0 92 47 64
        E 0 82 47 64
        E 0 83 42 64
        E 0 8f 32 64
        E 0 92 47 64
        E 0 93 3e 5a
        E 0 9f 32 5a
        E 0 82 47 64
        E 0 83 3e 64
        E 0 8f 32 64
        E 0 92 45 64
        E 0 93 3e 5a
        E 0 9f 26 5a
        E 0 82 45 64
        E 0 83 3e 64
        E 0 8f 26 64
        E 0 92 4a 64
        E 0 82 4a 64
        E 0 92 49 64
        E 0 93 40 5a
        E 0 9f 2d 5a
        E 0 83 40 64
        E 0 8f 2d 64
        E 0 93 40 5a
        E 0 9f 2d 5a
        E 0 82 49 64
        E 0 92 47 64
        E 0 82 47 64
        E 0 83 40 64
        E 0 8f 2d 64
        E 0 92 45 64
        E 0 82 45 64
        E 0 92 43 64
        E 0 93 40 5a
        E 0 9f 2d 5a
        E 0 83 40 64
        E 0 8f 2d 64
        E 0 93 40 5a
        E 0 9f 2d 5a
        E 0 82 43 64
        E 1 92 42 64
        E 0 82 42 64
        E 0 83 40 64
        E 0 8f 2d 64
        E 0 92 47 64
        E 0 82 47 64
        E 0 92 45 64
        E 0 93 40 5a
        E 0 9f 2d 5a
        E 0 83 40 64
        E 0 8f 2d 64
        E 0 93 40 5a
        E 0 9f 2d 5a
        E 0 82 45 64
        E 0 92 43 64
        E 0 82 43 64
        E 0 83 40 64
        E 0 8f 2d 64
        E 0 92 42 64
        E 0 82 42 64
        E 0 92 40 64
        E 0 93 40 5a
        E 0 9f 2d 5a
        E 0 83 40 64
        E 0 8f 2d 64
        E 0 93 40 5a
        E 0 9f 2d 5a
        E 0 82 40 64
        E 0 92 3e 64
        E 0 82 3e 64
        E 0 83 40 64
        E 0 8f 2d 64
        E 0 92 4a 64
        E 0 82 4a 64
        E 0 92 4a 64
        E 0 93 42 5a
        E 0 9f 32 5a
        E 0 82 4a 64
        E 0 83 42 64
        E 0 8f 32 64
        E 0 92 4a 64
        E 0 93 42 5a
        E 0 9f 32 5a
        E 0 82 4a 64
        E 0 92 4e 64
        E 0 82 4e 64
        E 0 92 4c 64
        E 0 82 4c 64
        E 0 92 4f 64
        E 0 82 4f 64
        E 0 83 42 64
        E 0 8f 32 64
        E 0 92 4e 64
        E 0 82 4e 64
        E 0 92 4e 64
        E 0 93 42 5a
        E 0 9f 32 5a
        E 0 82 4e 64
        E 0 83 42 64
        E 0 8f 32 64
        E 0 92 4e 64
        E 0 93 42 5a
        E 0 9f 32 5a
        E 0 82 4e 64
        E 0 92 51 64
        E 0 82 51 64
        E 0 92 4f 64
        E 0 82 4f 64
        E 0 92 53 64
        E 1 82 53 64
        E 0 83 42 64
        E 0 8f 32 64
        E 0 92 51 64
        E 0 82 51 64
        E 0 92 51 64
        E 0 93 42 5a
        E 0 9f 32 5a
        E 0 82 51 64
        E 0 83 42 64
        E 0 8f 32 64
        E 0 92 51 64
        E 0 93 42 5a
        E 0 9f 32 5a
        E 0 82 51 64
        E 0 92 4f 64
        E 0 82 4f 64
        E 0 92 4e 64
        E 0 82 4e 64
        E 0 92 4c 64
        E 0 82 4c 64
        E 0 83 42 64
        E 0 8f 32 64
        E 0 92 4a 64
        E 0 93 42 5a
        E 0 9f 32 5a
        E 0 82 4a 64
        E 0 92 49 64
        E 0 82 49 64
        E 0 92 47 64
        E 0 82 47 64
        E 0 92 45 64
        E 0 82 45 64
        E 0 83 42 64
        E 0 8f 32 64
        E 0 92 51 64
        E 0 93 40 5a
        E 0 9f 31 5a
        E 0 82 51 64
        E 0 92 4f 64
        E 0 82 4f 64
        E 0 92 4e 64
        E 0 82 4e 64
        E 0 92 4c 64
        E 0 82 4c 64
        E 0 83 40 64
        E 0 8f 31 64
        E 0 92 4a 64
        E 0 93 42 5a
        E 0 9f 32 5a
        E 0 82 4a 64
        E 0 92 49 64
        E 0 82 49 64
        E 0 92 47 64
        E 0 82 47 64
        E 1 83 42 64
        E 0 8f 32 64
        E 0 92 45 64
        E 0 93 40 5a
        E 0 9f 31 5a
        E 0 82 45 64
        E 0 92 43 64
        E 0 82 43 64
        E 0 83 40 64
        E 0 8f 31 64
        E 0 92 42 64
        E 0 93 3e 5a
        E 0 9f 32 5a
        E 38403 82 42 64
        E 0 8f 32 64
        E 0 92 40 64
        E 0 9f 32 5a
        E 0 82 40 64
        E 0 92 3e 64
        E 0 82 3e 64
        E 0 83 3e 64
        E 0 8f 32 64
        E 0 92 40 64
        E 0 93 3d 5a
        E 0 9f 39 5a
        E 0 8f 39 64
        E 0 9f 2d 5a
        E 0 82 40 64
        E 0 83 3d 64
        E 0 8f 2d 64
        E 0 92 3e 64
        E 0 93 3e 5a
        E 0 9f 32 5a
        E 0 82 3e 64
        E 0 83 3e 64
        E 0 8f 32 64
        E 0 92 43 64
        E 0 95 43 64
        E 0 82 43 64
        E 0 85 43 64
        E 0 92 43 64
        E 1 93 3b 5a
        E 0 95 43 64
        E 0 9f 37 5a
        E 0 82 43 64
        E 0 83 3b 64
        E 0 8f 37 64
        E 0 92 43 64
        E 0 93 3b 5a
        E 0 9f 37 5a
        E 0 82 43 64
        E 0 92 47 64
        E 0 82 47 64
        E 0 85 43 64
        E 0 92 45 64
        E 0 95 45 64
        E 0 82 45 64
        E 0 92 48 64
        E 0 82 48 64
        E 0 83 3b 64
        E 0 85 45 64
        E 0 8f 37 64
        E 0 92 47 64
        E 0 95 47 64
        E 0 82 47 64
        E 0 85 47 64
        E 0 92 47 64
        E 0 93 3e 5a
        E 0 95 47 64
        E 0 9f 37 5a
        E 0 82 47 64
        E 0 83 3e 64
        E 0 8f 37 64
        E 0 92 47 64
        E 0 93 3e 5a
        E 0 9f 37 5a
        E 0 82 47 64
        E 0 92 4a 64
        E 0 82 4a 64
        E 0 85 47 64
        E 0 92 48 64
        E 0 95 48 64
        E 0 82 48 64
        E 0 92 4c 64
        E 0 82 4c 64
        E 0 83 3e 64
        E 0 85 48 64
        E 0 8f 37 64
        E 1 92 4a 64
        E 0 95 4a 64
        E 0 82 4a 64
        E 0 85 4a 64
        E 0 92 4a 64
        E 0 93 3e 5a
        E 0 95 4a 64
        E 0 9f 37 5a
        E 0 83 3e 64
        E 0 8f 37 64
        E 0 93 3e 5a
        E 0 9f 37 5a
        E 0 82 4a 64
        E 0 85 4a 64
        E 0 92 4c 64
        E 0 95 4c 64
        E 0 82 4c 64
        E 0 83 3e 64
        E 0 85 4c 64
        E 0 8f 37 64
        E 0 92 42 64
        E 0 93 3e 5a
        E 0 95 42 64
        E 0 9f 32 5a
        E 0 82 42 64
        E 0 83 3e 64
        E 0 85 42 64
        E 0 8f 32 64
        E 0 92 43 64
        E 0 93 3e 5a
        E 0 95 43 64
        E 0 9f 2b 5a
        E 0 82 43 64
        E 0 83 3e 64
        E 0 85 43 64
        E 0 8f 2b 64
        E 0 92 43 64
        E 0 95 43 64
        E 0 82 43 64
        E 0 85 43 64
        E 0 92 43 64
        E 0 93 3b 5a
        E 0 95 43 64
        E 0 9f 37 5a
        E 0 82 43 64
        E 0 83 3b 64
        E 0 8f 37 64
        E 0 92 43 64
        E 0 93 3b 5a
        E 0 9f 37 5a
        E 0 82 43 64
        E 0 92 47 64
        E 0 82 47 64
        E 0 85 43 64
        E 0 92 45 64
        E 0 95 45 64
        E 0 82 45 64
        E 0 92 48 64
        E 0 82 48 64
        E 0 83 3b 64
        E 0 85 45 64
        E 0 8f 37 64
        E 0 92 47 64
        E 0 95 47 64
        E 0 82 47 64
        E 0 85 47 64
        E 0 92 47 64
        E 0 93 3e 5a
        E 0 95 47 64
        E 0 9f 37 5a
        E 0 82 47 64
        E 0 83 3e 64
        E 0 8f 37 64
        E 0 92 47 64
        E 0 93 3e 5a
        E 0 9f 37 5a
        E 0 82 47 64
        E 0 92 4a 64
        E 0 82 4a 64
        E 0 85 47 64
        E 0 92 48 64
        E 0 95 48 64
        E 1 82 48 64
        E 0 92 4c 64
        E 0 82 4c 64
        E 0 83 3e 64
        E 0 85 48 64
        E 0 8f 37 64
        E 0 92 4a 64
        E 0 95 4a 64
        E 0 82 4a 64
        E 0 85 4a 64
        E 0 92 4a 64
        E 0 93 3e 5a
        E 0 95 4a 64
        E 0 9f 37 5a
        E 0 83 3e 64
        E 0 8f 37 64
        E 0 93 3e 5a
        E 0 9f 37 5a
        E 0 82 4a 64
        E 0 85 4a 64
        E 0 92 48 64
        E 0 95 48 64
        E 0 82 48 64
        E 0 85 48 64
        E 0 92 47 64
        E 0 95 47 64
        E 0 82 47 64
        E 0 83 3e 64
        E 0 85 47 64
        E 0 8f 37 64
        E 0 92 47 64
        E 0 93 3e 5a
        E 0 95 47 64
        E 0 9f 32 5a
        E 0 82 47 64
        E 0 83 3e 64
        E 0 85 47 64
        E 0 8f 32 64
        E 0 92 45 64
        E 0 93 3e 5a
        E 0 95 45 64
        E 0 9f 26 5a
        E 0 82 45 64
        E 0 83 3e 64
        E 0 85 45 64
        E 0 8f 26 64
        E 0 92 4a 64
        E 0 95 4a 64
        E 0 93 36 5a
        E 0 9f 32 5a
        E 0 82 4a 64
        E 0 83 36 64
        E 0 85 4a 64
        E 0 8f 32 64
        E 0 92 3e 64
        E 0 93 36 5a
        E 0 95 3e 64
        E 0 9f 32 5a
        E 0 82 3e 64
        E 0 83 36 64
        E 0 85 3e 64
        E 0 8f 32 64
        E 0 92 3e 64
        E 0 95 3e 64
        E 0 82 3e 64
        E 1 85 3e 64
        E 0 92 40 64
        E 0 95 40 64
        E 0 82 40 64
        E 0 85 40 64
        E 0 92 42 64
        E 0 93 39 5a
        E 0 95 42 64
        E 0 9f 32 5a
        E 0 83 39 64
        E 0 8f 32 64
        E 0 93 39 5a
        E 0 9f 32 5a
        E 0 82 42 64
        E 0 85 42 64
        E 0 92 43 64
        E 0 95 43 64
        E 0 82 43 64
        E 0 83 39 64
        E 0 85 43 64
        E 0 8f 32 64
        E 0 92 45 64
        E 0 95 45 64
        E 0 82 45 64
        E 0 85 45 64
        E 0 92 47 64
        E 0 95 47 64
        E 0 82 47 64
        E 0 85 47 64
        E 0 92 48 64
        E 0 93 42 5a
        E 0 95 48 64
        E 0 9f 32 5a
        E 0 83 42 64
        E 0 8f 32 64
        E 0 93 42 5a
        E 0 9f 32 5a
        E 0 82 48 64
        E 0 85 48 64
        E 0 92 47 64
        E 0 95 47 64
        E 0 82 47 64
        E 0 83 42 64
        E 0 85 47 64
        E 0 8f 32 64
        E 0 92 47 64
        E 0 95 47 64
        E 0 93 3e 5a
        E 0 9f 32 5a
        E 0 82 47 64
        E 0 83 3e 64
        E 0 85 47 64
        E 0 8f 32 64
        E 0 92 45 64
        E 0 93 3e 5a
        E 0 95 45 64
        E 0 9f 32 5a
        E 0 82 45 64
        E 0 85 45 64
        E 0 92 4a 64
        E 0 95 4a 64
        E 0 82 4a 64
        E 0 83 3e 64
        E 0 85 4a 64
        E 0 8f 32 64
        E 0 92 42 64
        E 0 95 42 64
        E 0 82 42 64
        E 0 85 42 64
        E 0 92 43 64
        E 0 95 43 64
        E 0 82 43 64
        E 0 85 43 64
        E 0 92 45 64
        E 0 93 3e 5a
        E 0 95 45 64
        E 0 9f 32 5a
        E 0 83 3e 64
        E 0 8f 32 64
        E 0 93 3e 5a
        E 0 9f 32 5a
        E 0 82 45 64
        E 0 85 45 64
        E 0 92 47 64
        E 0 95 47 64
        E 0 82 47 64
        E 0 83 3e 64
        E 0 85 47 64
        E 0 8f 32 64
        E 0 92 47 64
        E 0 93 3e 5a
        E 0 95 47 64
        E 0 9f 32 5a
        E 0 82 47 64
        E 1 83 3e 64
        E 0 85 47 64
        E 0 8f 32 64
        E 0 92 45 64
        E 0 93 3e 5a
        E 0 95 45 64
        E 0 9f 26 5a
        E 0 82 45 64
        E 0 83 3e 64
        E 0 85 45 64
        E 0 8f 26 64
        E 0 92 4a 64
        E 0 95 4a 64
        E 0 82 4a 64
        E 0 85 4a 64
        E 0 92 49 64
        E 0 93 40 5a
        E 0 95 49 64
        E 0 9f 2d 5a
        E 0 83 40 64
        E 0 8f 2d 64
        E 0 93 40 5a
        E 0 9f 2d 5a
        E 0 82 49 64
        E 0 85 49 64
        E 0 92 47 64
        E 0 95 47 64
        E 0 82 47 64
        E 0 83 40 64
        E 0 85 47 64
        E 0 8f 2d 64
        E 0 92 45 64
        E 0 95 45 64
        E 0 82 45 64
        E 0 85 45 64
        E 0 92 43 64
        E 0 93 3d 5a
        E 0 95 43 64
        E 0 9f 2d 5a
        E 0 83 3d 64
        E 0 8f 2d 64
        E 0 93 3d 5a
        E 0 9f 2d 5a
        E 0 82 43 64
        E 0 85 43 64
        E 0 92 42 64
        E 0 95 42 64
        E 0 82 42 64
        E 0 83 3d 64
        E 0 85 42 64
        E 0 8f 2d 64
        E 0 92 47 64
        E 0 95 47 64
        E 0 82 47 64
        E 0 85 47 64
        E 0 92 45 64
        E 0 93 40 5a
        E 0 95 45 64
        E 0 9f 2d 5a
        E 0 83 40 64
        E 0 8f 2d 64
        E 0 93 40 5a
        E 0 9f 2d 5a
        E 0 82 45 64
        E 0 85 45 64
        E 0 92 43 64
        E 0 95 43 64
        E 0 82 43 64
        E 0 83 40 64
        E 0 85 43 64
        E 0 8f 2d 64
        E 0 92 42 64
        E 0 95 42 64
        E 0 82 42 64
        E 0 85 42 64
        E 0 92 40 64
        E 0 93 3d 5a
        E 0 95 40 64
        E 0 9f 2d 5a
        E 0 83 3d 64
        E 0 8f 2d 64
        E 0 93 3d 5a
        E 0 9f 2d 5a
        E 0 82 40 64
        E 0 85 40 64
        E 0 92 3e 64
        E 0 95 3e 64
        E 0 82 3e 64
        E 0 83 3d 64
        E 0 85 3e 64
        E 0 8f 2d 64
        E 0 92 4a 64
        E 0 93 42 5a
        E 0 95 4a 64
        E 0 9f 32 5a
        E 38404 83 42 64
        E 0 8f 32 64
        E 0 93 43 5a
        E 0 9f 34 5a
        E 0 82 4a 64
        E 0 83 43 64
        E 0 85 4a 64
        E 0 8f 34 64
        E 0 92 4a 64
        E 0 93 45 5a
        E 0 95 4a 64
        E 0 9f 36 5a
        E 0 83 45 64
        E 0 8f 36 64
        E 0 93 43 5a
        E 0 9f 34 5a
        E 0 82 4a 64
        E 0 83 43 64
        E 0 85 4a 64
        E 0 8f 34 64
        E 0 92 4a 64
        E 0 93 42 5a
        E 0 95 4a 64
        E 1 9f 32 5a
        E 0 8f 32 64
        E 0 9f 36 5a
        E 0 82 4a 64
        E 0 83 42 64
        E 0 85 4a 64
        E 0 8f 36 64
        E 0 9f 39 5a
        E 0 92 49 64
        E 0 95 49 64
        E 0 82 49 64
        E 0 85 49 64
        E 0 8f 39 64
        E 0 92 47 64
        E 0 95 47 64
        E 0 9f 36 5a
        E 0 82 47 64
        E 0 85 47 64
        E 0 92 45 64
        E 0 95 45 64
        E 0 82 45 64
        E 0 85 45 64
        E 0 8f 36 64
        E 0 92 4a 64
        E 0 93 42 5a
        E 0 95 4a 64
        E 0 9f 32 5a
        E 0 82 4a 64
        E 0 85 4a 64
        E 0 92 49 64
        E 0 95 49 64
        E 0 82 49 64
        E 0 85 49 64
        E 0 92 47 64
        E 0 95 47 64
        E 0 82 47 64
        E 0 85 47 64
        E 0 92 45 64
        E 0 95 45 64
        E 0 82 45 64
        E 0 83 42 64
        E 0 85 45 64
        E 0 8f 32 64
        E 0 92 4a 64
        E 0 93 42 5a
        E 1 95 4a 64
        E 0 9f 32 5a
        E 0 82 4a 64
        E 0 85 4a 64
        E 0 92 49 64
        E 0 95 49 64
        E 0 82 49 64
        E 0 85 49 64
        E 0 92 47 64
        E 0 95 47 64
        E 0 82 47 64
        E 0 85 47 64
        E 0 92 45 64
        E 0 95 45 64
        E 0 82 45 64
        E 0 83 42 64
        E 0 85 45 64
        E 0 8f 32 64
        E 0 92 4a 64
        E 0 93 42 5a
        E 0 95 4a 64
        E 0 9f 32 5a
        E 0 8f 32 64
        E 0 9f 36 5a
        E 0 82 4a 64
        E 0 83 42 64
        E 0 85 4a 64
        E 0 8f 36 64
        E 0 9f 39 5a
        E 0 92 49 64
        E 0 95 49 64
        E 0 82 49 64
        E 0 85 49 64
        E 0 8f 39 64
        E 0 92 47 64
        E 0 95 47 64
        E 0 9f 36 5a
        E 0 82 47 64
        E 0 85 47 64
        E 0 92 45 64
        E 0 95 45 64
        E 0 82 45 64
        E 0 85 45 64
        E 0 8f 36 64
        E 0 92 4a 64
        E 0 93 42 5a
        E 0 95 4a 64
        E 0 9f 32 5a
        E 0 82 4a 64
        E 0 85 4a 64
        E 0 92 49 64
        E 0 95 49 64
        E 0 82 49 64
        E 0 85 49 64
        E 0 92 47 64
        E 1 95 47 64
        E 0 82 47 64
        E 0 85 47 64
        E 0 92 45 64
        E 0 95 45 64
        E 0 82 45 64
        E 0 83 42 64
        E 0 85 45 64
        E 0 8f 32 64
        E 0 92 4a 64
        E 0 93 42 5a
        E 0 95 4a 64
        E 0 9f 32 5a
        E 0 82 4a 64
        E 0 85 4a 64
        E 0 92 49 64
        E 0 95 49 64
        E 0 82 49 64
        E 0 85 49 64
        E 0 92 47 64
        E 0 95 47 64
        E 0 82 47 64
        E 0 85 47 64
        E 0 92 45 64
        E 0 95 45 64
        E 0 82 45 64
        E 0 83 42 64
        E 0 85 45 64
        E 0 8f 32 64
        E 0 92 4a 64
        E 0 93 42 5a
        E 0 95 4a 64
        E 0 9f 32 5a
        E 0 82 4a 64
        E 0 85 4a 64
        E 0 92 49 64
        E 1 95 49 64
        E 0 82 49 64
        E 0 85 49 64
        E 0 92 47 64
        E 0 95 47 64
        E 0 82 47 64
        E 0 83 42 64
        E 0 85 47 64
        E 0 8f 32 64
        E 0 92 45 64
        E 0 93 40 5a
        E 0 95 45 64
        E 0 9f 31 5a
        E 0 82 45 64
        E 0 85 45 64
        E 0 92 43 64
        E 0 95 43 64
        E 0 82 43 64
        E 0 83 40 64
        E 0 85 43 64
        E 0 8f 31 64
        E 0 92 42 64
        E 0 93 3e 5a
        E 0 95 42 64
        E 0 9f 32 5a
        E 0 82 42 64
        E 0 85 42 64
        E 0 8f 32 64
        E 0 92 40 64
        E 0 95 40 64
        E 0 9f 26 5a
        E 0 82 40 64
        E 0 85 40 64
        E 0 92 3e 64
        E 0 95 3e 64
        E 0 82 3e 64
        E 0 83 3e 64
        E 0 85 3e 64
        E 0 8f 26 64
        E 0 92 40 64
        E 0 93 3d 5a
        E 0 95 40 64
        E 0 9f 39 5a
        E 0 8f 39 64
        E 0 9f 2d 5a
        E 0 82 40 64
        E 0 83 3d 64
        E 0 85 40 64
        E 0 8f 2d 64
        E 0 92 3e 64
        E 0 93 3e 5a
        E 0 95 3e 64
        E 0 9f 32 5a
        E 0 82 3e 64
        E 0 83 3e 64
        E 0 92 4a 64
        E 0 93 42 5a
        E 0 82 4a 64
        E 0 83 42 64
        E 0 85 3e 64
        E 0 8f 32 64
        E 0 92 4a 64
        E 0 93 42 5a
        E 0 9f 32 5a
        E 0 82 4a 64
        E 0 92 4e 64
        E 0 82 4e 64
        E 0 92 4c 64
        E 0 82 4c 64
        E 0 92 4f 64
        E 0 82 4f 64
        E 0 83 42 64
        E 0 8f 32 64
        E 1 92 4e 64
        E 0 82 4e 64
        E 0 92 4e 64
        E 0 93 45 5a
        E 0 9f 32 5a
        E 0 82 4e 64
        E 0 83 45 64
        E 0 8f 32 64
        E 0 92 4e 64
        E 0 93 45 5a
        E 0 9f 32 5a
        E 0 82 4e 64
        E 0 92 51 64
        E 0 82 51 64
        E 0 92 4f 64
        E 0 82 4f 64
        E 0 92 53 64
        E 0 82 53 64
        E 0 83 45 64
        E 0 8f 32 64
        E 0 92 51 64
        E 0 82 51 64
        E 0 92 51 64
        E 0 93 45 5a
        E 0 9f 32 5a
        E 0 83 45 64
        E 0 8f 32 64
        E 0 93 45 5a
        E 0 9f 32 5a
        E 0 82 51 64
        E 0 92 53 64
        E 0 82 53 64
        E 0 83 45 64
        E 0 8f 32 64
        E 0 92 49 64
        E 0 93 45 5a
        E 0 9f 39 5a
        E 0 82 49 64
        E 0 92 49 64
        E 0 82 49 64
        E 0 92 47 64
        E 0 82 47 64
        E 0 92 45 64
        E 0 82 45 64
        E 0 83 45 64
        E 0 8f 39 64
        E 0 92 4f 64
        E 0 93 49 5a
        E 0 9f 2d 5a
        E 0 82 4f 64
        E 0 92 4f 64
        E 0 82 4f 64
        E 0 92 4e 64
        E 0 82 4e 64
        E 0 92 4c 64
        E 0 82 4c 64
        E 0 83 49 64
        E 0 8f 2d 64
        E 0 92 4e 64
        E 0 93 45 5a
        E 0 9f 32 5a
        E 0 82 4e 64
        E 0 83 45 64
        E 0 8f 32 64
        E 0 92 4c 64
        E 0 93 39 5a
        E 0 9f 32 5a
        E 0 82 4c 64
        E 0 92 4a 64
        E 0 82 4a 64
        E 0 83 39 64
        E 0 8f 32 64
        E 0 92 4c 64
        E 0 93 3b 5a
        E 0 9f 2b 5a
        E 0 82 4c 64
        E 0 83 3b 64
        E 0 8f 2b 64
        E 1 92 49 64
        E 0 93 39 5a
        E 0 9f 2d 5a
        E 0 82 49 64
        E 0 83 39 64
        E 0 8f 2d 64
        E 0 92 4a 64
        E 0 93 39 5a
        E 0 95 4a 64
        E 0 9f 26 5a
        E 0 82 4a 64
        E 0 83 39 64
        E 0 85 4a 64
        E 0 8f 26 64
        E 0 92 42 64
        E 0 93 39 5a
        E 0 95 42 64
        E 0 9f 32 5a
        E 0 82 42 64
        E 0 83 39 64
        E 0 8f 32 64
        E 0 92 42 64
        E 0 93 39 5a
        E 0 9f 32 5a
        E 0 82 42 64
        E 0 92 45 64
        E 0 82 45 64
        E 0 85 42 64
        E 0 92 43 64
        E 0 95 43 64
        E 0 82 43 64
        E 0 92 47 64
        E 0 82 47 64
        E 0 83 39 64
        E 0 85 43 64
        E 0 8f 32 64
        E 0 92 45 64
        E 0 95 45 64
        E 0 82 45 64
        E 0 85 45 64
        E 0 92 45 64
        E 0 93 42 5a
        E 0 95 45 64
        E 0 9f 32 5a
        E 0 82 45 64
        E 0 83 42 64
        E 0 8f 32 64
        E 0 92 45 64
        E 0 93 42 5a
        E 0 9f 32 5a
        E 0 82 45 64
        E 0 92 48 64
        E 0 82 48 64
        E 0 85 45 64
        E 0 92 47 64
        E 1 95 47 64
        E 0 82 47 64
        E 0 92 4a 64
        E 0 82 4a 64
        E 0 83 42 64
        E 0 85 47 64
        E 0 8f 32 64
        E 0 92 48 64
        E 0 95 48 64
        E 0 82 48 64
        E 0 85 48 64
        E 0 92 48 64
        E 0 93 42 5a
        E 0 95 48 64
        E 0 9f 32 5a
        E 0 83 42 64
        E 0 8f 32 64
        E 0 93 42 5a
        E 0 9f 32 5a
        E 0 82 48 64
        E 0 85 48 64
        E 0 92 47 64
        E 0 95 47 64
        E 0 82 47 64
        E 0 83 42 64
        E 0 85 47 64
        E 0 8f 32 64
        E 0 92 47 64
        E 0 93 3e 5a
        E 0 95 47 64
        E 0 9f 32 5a
        E 0 82 47 64
        E 0 83 3e 64
        E 0 85 47 64
        E 0 8f 32 64
        E 0 92 45 64
        E 0 93 3e 5a
        E 0 95 45 64
        E 0 9f 26 5a
        E 0 82 45 64
        E 0 83 3e 64
        E 0 85 45 64
        E 0 8f 26 64
        E 0 92 4a 64
        E 0 95 4a 64
        E 0 82 4a 64
        E 0 85 4a 64
        E 0 92 42 64
        E 0 93 39 5a
        E 0 95 42 64
        E 0 9f 32 5a
        E 0 82 42 64
        E 0 83 39 64
        E 0 8f 32 64
        E 0 92 42 64
        E 0 93 39 5a
        E 0 9f 32 5a
        E 0 82 42 64
        E 0 92 45 64
        E 0 82 45 64
        E 0 85 42 64
        E 0 92 43 64
        E 0 95 43 64
        E 0 82 43 64
        E 0 92 47 64
        E 0 82 47 64
        E 0 83 39 64
        E 0 85 43 64
        E 0 8f 32 64
        E 0 92 45 64
        E 0 95 45 64
        E 0 82 45 64
        E 0 85 45 64
        E 0 92 45 64
        E 0 93 42 5a
        E 0 95 45 64
        E 0 9f 32 5a
        E 0 82 45 64
        E 0 83 42 64
        E 0 8f 32 64
        E 0 92 45 64
        E 0 93 42 5a
        E 0 9f 32 5a
        E 0 82 45 64
        E 0 92 48 64
        E 0 82 48 64
        E 0 85 45 64
        E 0 92 47 64
        E 0 95 47 64
        E 0 82 47 64
        E 0 92 4a 64
        E 0 82 4a 64
        E 0 83 42 64
        E 0 85 47 64
        E 0 8f 32 64
        E 0 92 48 64
        E 0 95 48 64
        E 0 82 48 64
        E 0 85 48 64
        E 0 92 48 64
        E 0 93 42 5a
        E 0 95 48 64
        E 1 9f 32 5a
        E 0 83 42 64
        E 0 8f 32 64
        E 0 93 42 5a
        E 0 9f 32 5a
        E 0 82 48 64
        E 0 85 48 64
        E 0 92 47 64
        E 0 95 47 64
        E 0 82 47 64
        E 0 83 42 64
        E 0 85 47 64
        E 0 8f 32 64
        E 0 92 47 64
        E 0 93 3e 5a
        E 0 95 47 64
        E 0 9f 32 5a
        E 0 82 47 64
        E 0 83 3e 64
        E 0 85 47 64
        E 0 8f 32 64
        E 0 92 45 64
        E 0 93 3e 5a
        E 0 95 45 64
        E 0 9f 26 5a
        E 0 82 45 64
        E 0 83 3e 64
        E 0 85 45 64
        E 0 8f 26 64
        E 0 92 46 66
        E 0 95 46 66
        E 19825 82 46 66
        E 0 85 46 66
        E 0 92 45 64
        E 0 93 3e 5a
        E 0 95 45 64
        E 0 9f 32 5a
        E 0 83 3e 64
        E 0 8f 32 64
        E 0 93 3e 5a
        E 0 9f 32 5a
        E 0 82 45 64
        E 0 85 45 64
        E 0 92 4a 64
        E 0 95 4a 64
        E 0 82 4a 64
        E 0 83 3e 64
        E 0 85 4a 64
        E 0 8f 32 64
        E 0 92 42 64
        E 0 95 42 64
        E 0 82 42 64
        E 0 85 42 64
        E 0 92 43 64
        E 0 93 3e 5a
        E 1 95 43 64
        E 0 9f 32 5a
        E 0 83 3e 64
        E 0 8f 32 64
        E 0 93 3e 5a
        E 0 9f 32 5a
        E 0 82 43 64
        E 0 85 43 64
        E 0 92 45 64
        E 0 95 45 64
        E 0 82 45 64
        E 0 83 3e 64
        E 0 85 45 64
        E 0 8f 32 64
        E 0 92 46 66
        E 0 95 46 66
        E 0 82 46 66
        E 0 85 46 66
        E 0 92 45 64
        E 0 93 3e 5a
        E 0 95 45 64
        E 0 9f 32 5a
        E 0 83 3e 64
        E 0 8f 32 64
        E 0 93 3e 5a
        E 0 9f 32 5a
        E 1 82 45 64
        E 0 85 45 64
        E 0 92 4a 64
        E 0 95 4a 64
        E 0 82 4a 64
        E 0 83 3e 64
        E 0 85 4a 64
        E 0 8f 32 64
        E 0 92 42 64
        E 0 95 42 64
        E 0 82 42 64
        E 0 85 42 64
        E 0 92 43 64
        E 0 93 3e 5a
        E 0 95 43 64
        E 0 9f 32 5a
        E 0 83 3e 64
        E 0 8f 32 64
        E 0 93 3e 5a
        E 0 9f 32 5a
        E 0 82 43 64
        E 0 85 43 64
        E 0 92 45 64
        E 0 95 45 64
        E 0 82 45 64
        E 0 83 3e 64
        E 0 85 45 64
        E 0 8f 32 64
        E 1 92 47 64
        E 0 93 43 5a
        E 0 95 47 64
        E 0 9f 37 5a
        E 0 82 47 64
        E 0 85 47 64
        E 0 92 45 64
        E 0 95 45 64
        E 0 82 45 64
        E 0 85 45 64
        E 0 92 47 64
        E 0 95 47 64
        E 0 82 47 64
        E 0 83 43 64
        E 0 85 47 64
        E 0 8f 37 64
        E 0 92 48 64
        E 0 93 40 5a
        E 0 95 48 64
        E 0 9f 34 5a
        E 0 82 48 64
        E 0 85 48 64
        E 0 92 47 64
        E 0 95 47 64
        E 0 82 47 64
        E 0 85 47 64
        E 0 92 45 64
        E 0 95 45 64
        E 0 82 45 64
        E 0 85 45 64
        E 0 92 43 64
        E 1 95 43 64
        E 0 82 43 64
        E 0 83 40 64
        E 0 85 43 64
        E 0 8f 34 64
        E 0 92 4a 64
        E 0 93 42 5a
        E 0 95 4a 64
        E 0 9f 32 5a
        E 0 83 42 64
        E 0 8f 32 64
        E 0 93 43 5a
        E 0 9f 34 5a
        E 0 82 4a 64
        E 0 83 43 64
        E 0 85 4a 64
        E 0 8f 34 64
        E 0 92 3e 64
        E 0 93 45 5a
        E 0 95 3e 64
        E 0 9f 36 5a
        E 0 83 45 64
        E 0 8f 36 64
        E 0 93 43 5a
        E 0 9f 34 5a
        E 0 82 3e 64
        E 0 83 43 64
        E 0 85 3e 64
        E 0 8f 34 64
        E 0 92 45 64
        E 1 95 45 64
        E 0 82 45 64
        E 0 85 45 64
        E 0 92 47 64
        E 0 95 47 64
        E 0 82 47 64
        E 0 85 47 64
        E 0 92 48 64
        E 0 93 42 5a
        E 0 95 48 64
        E 0 9f 32 5a
        E 0 83 42 64
        E 0 8f 32 64
        E 0 93 42 5a
        E 0 9f 32 5a
        E 0 82 48 64
        E 0 85 48 64
        E 0 92 45 64
        E 0 95 45 64
        E 0 82 45 64
        E 0 83 42 64
        E 0 85 45 64
        E 0 8f 32 64
        E 0 92 47 64
        E 0 95 47 64
        E 0 82 47 64
        E 0 85 47 64
        E 0 92 48 64
        E 0 95 48 64
        E 0 82 48 64
        E 0 85 48 64
        E 0 92 4a 64
        E 0 93 3e 5a
        E 1 95 4a 64
        E 0 9f 37 5a
        E 0 82 4a 64
        E 0 83 3e 64
        E 0 85 4a 64
        E 0 8f 37 64
        E 0 93 3e 5a
        E 0 9f 37 5a
        E 0 92 43 64
        E 0 95 43 64
        E 0 82 43 64
        E 0 83 3e 64
        E 0 85 43 64
        E 0 8f 37 64
        E 0 92 45 64
        E 0 95 45 64
        E 0 82 45 64
        E 0 85 45 64
        E 0 92 47 64
        E 0 95 47 64
        E 0 82 47 64
        E 0 85 47 64
        E 0 92 48 64
        E 0 93 42 5a
        E 1 95 48 64
        E 0 9f 32 5a
        E 0 83 42 64
        E 0 8f 32 64
        E 0 93 42 5a
        E 0 9f 32 5a
        E 0 82 48 64
        E 0 85 48 64
        E 0 92 45 64
        E 0 95 45 64
        E 0 82 45 64
        E 0 83 42 64
        E 0 85 45 64
        E 0 8f 32 64
        E 0 92 47 64
        E 0 95 47 64
        E 0 82 47 64
        E 0 85 47 64
        E 0 92 48 64
        E 0 95 48 64
        E 0 82 48 64
        E 0 85 48 64
        E 0 92 4a 64
        E 1 93 3e 5a
        E 0 95 4a 64
        E 0 9f 2b 5a
        E 0 82 4a 64
        E 0 83 3e 64
        E 0 85 4a 64
        E 0 8f 2b 64
        E 0 93 3e 5a
        E 0 9f 2b 5a
        E 0 92 4a 64
        E 0 95 4a 64
        E 0 82 4a 64
        E 0 83 3e 64
        E 0 85 4a 64
        E 0 8f 2b 64
        E 0 92 3e 64
        E 0 95 3e 64
        E 0 82 3e 64
        E 0 85 3e 64
        E 0 92 3e 64
        E 0 93 36 5a
        E 0 95 3e 64
        E 0 9f 32 5a
        E 316 82 3e 64
        E 1 83 36 64
        E 0 85 3e 64
        E 0 8f 32 64
        E 0 92 3e 64
        E 0 93 36 5a
        E 1 95 3e 64
        E 0 9f 32 5a
        E 149 82 3e 64
        E 0 85 3e 64
        E 1 92 42 64
        E 0 95 42 64
        E 285 82 42 64
        E 0 85 42 64
        E 0 92 40 64
        E 0 95 40 64
        E 294 82 40 64
        E 0 85 40 64
        E 0 92 43 64
        E 1 95 43 64
        E 149 82 43 64
        E 0 83 36 64
        E 0 85 43 64
        E 0 8f 32 64
        E 0 92 42 64
        E 0 95 42 64
        E 590 82 42 64
        E 0 85 42 64
        E 0 92 42 64
        E 0 93 39 5a
        E 0 95 42 64
        E 0 9f 32 5a
        E 444 82 42 64
        E 0 83 39 64
        E 0 85 42 64
        E 0 8f 32 64
        E 0 92 42 64
        E 0 93 39 5a
        E 0 95 42 64
        E 0 9f 32 5a
        E 156 82 42 64
        E 0 85 42 64
        E 0 92 45 64
        E 1 95 45 64
        E 290 82 45 64
        E 1 85 45 64
        E 0 92 43 64
        E 0 95 43 64
        E 288 82 43 64
        E 0 85 43 64
        E 0 92 47 64
        E 1 95 47 64
        E 151 82 47 64
        E 0 83 39 64
        E 0 85 47 64
        E 0 8f 32 64
        E 0 92 45 64
        E 0 95 45 64
        E 587 82 45 64
        E 1 85 45 64
        E 0 92 45 64
        E 0 93 3e 5a
        E 0 95 45 64
        E 0 9f 32 5a
        E 443 82 45 64
        E 0 83 3e 64
        E 1 85 45 64
        E 0 8f 32 64
        E 0 92 45 64
        E 0 93 3e 5a
        E 0 95 45 64
        E 0 9f 32 5a
        E 156 82 45 64
        E 0 85 45 64
        E 0 92 48 64
        E 1 95 48 64
        E 285 82 48 64
        E 0 85 48 64
        E 19 92 47 64
        E 0 95 47 64
        E 281 82 47 64
        E 0 85 47 64
        E 0 92 4a 64
        E 1 95 4a 64
        E 141 82 4a 64
        E 1 83 3e 64
        E 0 85 4a 64
        E 0 8f 32 64
        E 0 92 48 64
        E 0 95 48 64
        E 592 82 48 64
        E 0 85 48 64
        E 0 92 47 64
        E 0 93 3e 5a
        E 0 95 47 64
        E 1 9f 32 5a
        E 442 83 3e 64
        E 0 8f 32 64
        E 0 93 3e 5a
        E 0 9f 32 5a
        E 441 82 47 64
        E 0 85 47 64
        E 1 92 45 64
        E 0 95 45 64
        E 444 82 45 64
        E 0 83 3e 64
        E 0 85 45 64
        E 0 8f 32 64
        E 0 92 47 64
        E 0 93 43 5a
        E 0 95 47 64
        E 0 9f 37 5a
        E 455 82 47 64
        E 0 85 47 64
        E 0 92 45 64
        E 1 95 45 64
        E 292 82 45 64
        E 0 85 45 64
        E 1 92 47 64
        E 0 95 47 64
        E 297 82 47 64
        E 0 83 43 64
        E 0 85 47 64
        E 0 8f 37 64
        E 1 92 48 64
        E 0 93 40 5a
        E 0 95 48 64
        E 0 9f 34 5a
        E 144 82 48 64
        E 0 85 48 64
        E 0 92 47 64
        E 0 95 47 64
        E 285 82 47 64
        E 0 85 47 64
        E 0 92 45 64
        E 0 95 45 64
        E 304 82 45 64
        E 0 85 45 64
        E 0 92 43 64
        E 0 95 43 64
        E 142 82 43 64
        E 0 83 40 64
        E 0 85 43 64
        E 1 8f 34 64
        E 1 92 48 64
        E 0 93 3e 5a
        E 0 95 48 64
        E 0 9f 32 5a
        E 446 82 48 64
        E 0 83 3e 64
        E 0 85 48 64
        E 0 8f 32 64
        E 0 92 47 64
        E 1 93 32 5a
        E 0 95 47 64
        E 0 9f 26 5a
        E 38543 83 32 64
        E 0 8f 26 64
        E 0 93 32 5a
        E 0 9f 26 5a
        E 0 82 47 64
        E 0 85 47 64
        E 0 92 45 64
        E 0 95 45 64
        E 0 82 45 64
        E 0 83 32 64
        E 0 85 45 64
        E 0 8f 26 64
        E 0 92 47 64
        E 0 93 43 5a
        E 0 95 47 64
        E 0 9f 37 5a
        E 0 82 47 64
        E 0 85 47 64
        E 0 92 45 64
        E 0 95 45 64
        E 0 82 45 64
        E 0 85 45 64
        E 0 92 47 64
        E 0 95 47 64
        E 0 82 47 64
        E 0 83 43 64
        E 0 85 47 64
        E 0 8f 37 64
        E 1 92 48 64
        E 0 93 40 5a
        E 0 95 48 64
        E 0 9f 34 5a
        E 0 82 48 64
        E 0 85 48 64
        E 0 92 47 64
        E 0 95 47 64
        E 0 82 47 64
        E 0 85 47 64
        E 0 92 45 64
        E 0 95 45 64
        E 0 82 45 64
        E 0 85 45 64
        E 0 92 43 64
        E 0 95 43 64
        E 0 82 43 64
        E 0 83 40 64
        E 0 85 43 64
        E 0 8f 34 64
        E 0 92 4a 64
        E 0 93 3e 5a
        E 0 95 4a 64
        E 0 9f 32 5a
        E 0 82 4a 64
        E 0 83 3e 64
        E 0 85 4a 64
        E 0 8f 32 64
        E 0 92 43 64
        E 0 93 3b 5a
        E 0 95 43 64
        E 0 9f 2f 5a
        E 0 82 43 64
        E 0 83 3b 64
        E 0 85 43 64
        E 0 8f 2f 64
        E 0 92 45 64
        E 0 93 3c 5a
        E 0 95 45 64
        E 0 9f 30 5a
        E 0 82 45 64
        E 0 83 3c 64
        E 0 85 45 64
        E 0 8f 30 64
        E 0 92 43 64
        E 1 93 3e 5a
        E 0 95 43 64
        E 0 9f 32 5a
        E 0 82 43 64
        E 0 85 43 64
        E 0 92 42 64
        E 0 95 42 64
        E 0 82 42 64
        E 0 83 3e 64
        E 0 85 42 64
        E 0 8f 32 64
        E 0 92 43 64
        E 0 93 37 5a
        E 0 95 43 64
        E 0 9f 2b 5a
        E 0 82 43 64
        E 0 83 37 64
        E 0 8f 2b 64
        E 0 92 43 64
        E 0 93 3a 5b
        E 0 9f 37 5a
        E 0 82 43 64
        E 0 83 3a 66
        E 0 85 43 64
        E 0 8f 37 64
        E 0 92 43 64
        E 0 93 3a 5b
        E 0 9f 37 5a
        E 0 82 43 64
        E 0 92 46 66
        E 0 82 46 66
        E 0 92 45 64
        E 0 82 45 64
        E 0 92 48 64
        E 0 82 48 64
        E 0 83 3a 66
        E 0 8f 37 64
        E 0 92 46 66
        E 0 93 43 5a
        E 0 95 46 66
        E 0 82 46 66
        E 0 83 43 64
        E 0 85 46 66
        E 0 92 49 64
        E 0 93 45 5a
        E 0 95 49 64
        E 0 9f 37 5a
        E 0 8f 37 64
        E 0 9f 37 5a
        E 0 82 49 64
        E 0 83 45 64
        E 0 85 49 64
        E 0 8f 37 64
        E 0 92 4a 64
        E 0 93 45 5a
        E 0 95 4a 64
        E 0 9f 36 5a
        E 1 82 4a 64
        E 0 83 45 64
        E 0 85 4a 64
        E 0 8f 36 64
        E 0 92 42 64
        E 0 93 3e 5a
        E 0 95 42 64
        E 0 82 42 64
        E 0 83 3e 64
        E 0 85 42 64
        E 0 92 43 64
        E 0 93 3e 5a
        E 0 95 43 64
        E 0 9f 32 5a
        E 0 8f 32 64
        E 0 9f 32 5a
        E 0 82 43 64
        E 0 83 3e 64
        E 0 85 43 64
        E 0 8f 32 64
        E 0 92 45 64
        E 0 93 42 5a
        E 0 95 45 64
        E 0 9f 26 5a
        E 0 82 45 64
        E 0 83 42 64
        E 0 85 45 64
        E 0 8f 26 64
        E 0 92 46 66
        E 0 93 43 5a
        E 0 95 46 66
        E 0 82 46 66
        E 0 83 43 64
        E 0 85 46 66
        E 0 92 49 64
        E 0 93 45 5a
        E 0 95 49 64
        E 0 9f 37 5a
        E 0 8f 37 64
        E 0 9f 37 5a
        E 0 82 49 64
        E 0 83 45 64
        E 0 85 49 64
        E 0 8f 37 64
        E 0 92 4a 64
        E 0 93 45 5a
        E 0 95 4a 64
        E 0 9f 36 5a
        E 0 82 4a 64
        E 0 83 45 64
        E 0 85 4a 64
        E 0 8f 36 64
        E 0 92 43 64
        E 0 93 3e 5a
        E 1 95 43 64
        E 0 9f 37 5a
        E 0 82 43 64
        E 0 85 43 64
        E 0 92 42 64
        E 0 95 42 64
        E 0 82 42 64
        E 0 85 42 64
        E 0 8f 37 64
        E 0 92 40 64
        E 0 95 40 64
        E 0 9f 2b 5a
        E 0 82 40 64
        E 0 85 40 64
        E 0 92 3e 64
        E 0 95 3e 64
        E 0 82 3e 64
        E 0 83 3e 64
        E 0 85 3e 64
        E 0 8f 2b 64
        E 0 92 43 64
        E 0 93 3e 5a
        E 0 95 43 64
        E 0 9f 2b 5a
        E 0 82 43 64
        E 0 85 43 64
        E 0 92 42 64
        E 0 95 42 64
        E 0 82 42 64
        E 0 85 42 64
        E 0 8f 2b 64
        E 0 92 40 64
        E 0 95 40 64
        E 0 9f 37 5a
        E 0 82 40 64
        E 0 85 40 64
        E 0 92 3e 64
        E 0 95 3e 64
        E 0 82 3e 64
        E 0 83 3e 64
        E 1 85 3e 64
        E 0 8f 37 64
        E 0 92 43 64
        E 0 93 3e 5a
        E 0 95 43 64
        E 0 9f 2b 5a
        E 0 82 43 64
        E 0 85 43 64
        E 0 92 45 64
        E 0 95 45 64
        E 0 82 45 64
        E 0 83 3e 64
        E 0 85 45 64
        E 0 8f 2b 64
        E 0 92 47 64
        E 0 93 3e 5a
        E 0 95 47 64
        E 0 9f 37 5a
        E 0 82 47 64
        E 0 85 47 64
        E 0 92 48 64
        E 0 95 48 64
        E 0 82 48 64
        E 0 83 3e 64
        E 0 85 48 64
        E 0 8f 37 64
        E 0 92 4a 64
        E 0 93 45 5a
        E 0 95 4a 64
        E 0 9f 36 5a
        E 0 82 4a 64
        E 0 83 45 64
        E 0 85 4a 64
        E 0 8f 36 64
        E 0 92 48 64
        E 0 93 42 5a
        E 0 95 48 64
        E 0 9f 32 5a
        E 0 82 48 64
        E 0 83 42 64
        E 0 85 48 64
        E 0 8f 32 64
        E 0 92 47 64
        E 0 93 3e 5a
        E 0 95 47 64
        E 0 9f 37 5a
        E 0 82 47 64
        E 0 83 3e 64
        E 0 85 47 64
        E 0 8f 37 64
        E 0 92 45 64
        E 0 93 3e 5a
        E 0 95 45 64
        E 0 9f 2f 5a
        E 0 82 45 64
        E 0 85 45 64
        E 0 92 43 64
        E 0 95 43 64
        E 0 82 43 64
        E 0 83 3e 64
        E 0 85 43 64
        E 0 8f 2f 64
        E 0 92 45 64
        E 0 93 40 5a
        E 0 95 45 64
        E 0 9f 30 5a
        E 0 82 45 64
        E 0 83 40 64
        E 0 85 45 64
        E 0 8f 30 64
        E 0 92 43 64
        E 0 93 39 5a
        E 0 95 43 64
        E 0 9f 32 5a
        E 0 82 43 64
        E 0 85 43 64
        E 0 92 42 64
        E 1 95 42 64
        E 0 82 42 64
        E 0 83 39 64
        E 0 85 42 64
        E 0 8f 32 64
        E 0 92 43 64
        E 0 93 3b 5a
        E 0 95 43 64
        E 0 9f 2b 5a
        E 0 82 43 64
        E 0 83 3b 64
        E 0 8f 2b 64
        E 0 92 43 64
        E 0 93 3b 5a
        E 0 9f 37 5a
        E 0 82 43 64
        E 0 83 3b 64
        E 0 85 43 64
        E 0 8f 37 64
        E 0 92 43 64
        E 0 93 3b 5a
        E 0 9f 37 5a
        E 0 82 43 64
        E 0 92 47 64
        E 0 82 47 64
        E 0 92 45 64
        E 0 82 45 64
        E 0 92 48 64
        E 0 82 48 64
        E 0 83 3b 64
        E 0 8f 37 64
        E 0 92 47 64
        E 0 82 47 64
        E 0 92 47 64
        E 0 93 3e 5a
        E 0 9f 2b 5a
        E 0 82 47 64
        E 0 83 3e 64
        E 0 8f 2b 64
        E 0 92 47 64
        E 0 93 3e 5a
        E 0 9f 2b 5a
        E 0 82 47 64
        E 0 92 4a 64
        E 0 82 4a 64
        E 0 92 48 64
        E 0 82 48 64
        E 0 92 4c 64
        E 0 82 4c 64
        E 0 83 3e 64
        E 0 8f 2b 64
        E 0 92 4a 64
        E 0 82 4a 64
        E 0 92 4a 64
        E 0 93 3e 5a
        E 0 9f 2b 5a
        E 0 83 3e 64
        E 0 8f 2b 64
        E 0 93 3e 5a
        E 0 9f 2b 5a
        E 0 82 4a 64
        E 0 92 4c 64
        E 0 82 4c 64
        E 0 83 3e 64
        E 0 8f 2b 64
        E 0 92 42 64
        E 0 93 3e 5a
        E 0 9f 32 5a
        E 0 82 42 64
        E 0 83 3e 64
        E 0 8f 32 64
        E 0 92 43 64
        E 0 93 3e 5a
        E 0 9f 2b 5a
        E 0 82 43 64
        E 0 83 3e 64
        E 0 8f 2b 64
        E 0 92 4a 64
        E 0 82 4a 64
        E 0 92 4a 64
        E 0 93 42 5a
        E 0 9f 32 5a
        E 0 82 4a 64
        E 0 83 42 64
        E 0 8f 32 64
        E 0 92 4a 64
        E 0 93 42 5a
        E 0 9f 32 5a
        E 0 82 4a 64
        E 0 92 4e 64
        E 0 82 4e 64
        E 0 92 4c 64
        E 0 82 4c 64
        E 0 92 4f 64
        E 0 82 4f 64
        E 0 83 42 64
        E 0 8f 32 64
        E 0 92 4e 64
        E 0 82 4e 64
        E 0 92 4e 64
        E 0 93 45 5a
        E 0 9f 32 5a
        E 0 82 4e 64
        E 0 83 45 64
        E 0 8f 32 64
        E 0 92 4e 64
        E 0 93 45 5a
        E 0 9f 32 5a
        E 0 82 4e 64
        E 0 92 51 64
        E 0 82 51 64
        E 0 92 4f 64
        E 0 82 4f 64
        E 0 92 53 64
        E 0 82 53 64
        E 0 83 45 64
        E 0 8f 32 64
        E 0 92 51 64
        E 0 82 51 64
        E 1 92 51 64
        E 0 93 42 5a
        E 0 9f 32 5a
        E 0 82 51 64
        E 0 83 42 64
        E 0 8f 32 64
        E 0 92 51 64
        E 0 93 42 5a
        E 0 9f 32 5a
        E 0 82 51 64
        E 0 92 48 64
        E 0 82 48 64
        E 0 92 47 64
        E 0 82 47 64
        E 0 92 45 64
        E 0 82 45 64
        E 0 83 42 64
        E 0 8f 32 64
        E 0 92 4f 64
        E 0 82 4f 64
        E 0 92 4e 64
        E 0 93 45 5a
        E 0 9f 32 5a
        E 0 83 45 64
        E 0 8f 32 64
        E 0 93 45 5a
        E 0 9f 32 5a
        E 0 82 4e 64
        E 0 92 4c 64
        E 0 82 4c 64
        E 0 83 45 64
        E 0 8f 32 64
        E 0 92 4a 64
        E 0 82 4a 64
        E 0 92 48 64
        E 0 93 42 5a
        E 0 9f 32 5a
        E 0 83 42 64
        E 0 8f 32 64
        E 0 93 42 5a
        E 0 9f 32 5a
        E 0 82 48 64
        E 0 92 47 64
        E 0 82 47 64
        E 0 83 42 64
        E 0 8f 32 64
        E 0 92 4c 64
        E 0 82 4c 64
        E 0 92 4a 64
        E 0 93 45 5a
        E 0 9f 32 5a
        E 0 83 45 64
        E 0 8f 32 64
        E 0 93 45 5a
        E 0 9f 32 5a
        E 0 82 4a 64
        E 0 92 48 64
        E 0 82 48 64
        E 0 83 45 64
        E 0 8f 32 64
        E 0 92 47 64
        E 0 82 47 64
        E 0 92 45 64
        E 0 93 42 5a
        E 0 9f 32 5a
        E 13239 83 42 64
        E 0 8f 32 64
        E 1 93 42 5a
        E 0 9f 32 5a
        E 0 82 45 64
        E 0 92 43 64
        E 0 82 43 64
        E 0 83 42 64
        E 0 8f 32 64
        E 0 92 4f 64
        E 0 93 3e 5a
        E 0 9f 37 5a
        E 0 82 4f 64
        E 0 83 3e 64
        E 0 8f 37 64
        E 0 92 4e 64
        E 0 93 40 5a
        E 0 9f 3c 5a
        E 0 82 4e 64
        E 0 92 4c 64
        E 0 82 4c 64
        E 0 83 40 64
        E 0 8f 3c 64
        E 0 92 4a 64
        E 0 93 39 5a
        E 0 9f 36 5a
        E 0 82 4a 64
        E 0 83 39 64
        E 0 8f 36 64
        E 0 92 48 64
        E 0 93 42 5a
        E 0 9f 32 5a
        E 1 82 48 64
        E 0 83 42 64
        E 0 8f 32 64
        E 0 92 47 64
        E 0 93 3e 5a
        E 0 9f 37 5a
        E 0 82 47 64
        E 0 83 3e 64
        E 0 8f 37 64
        E 0 92 45 64
        E 0 93 43 5a
        E 0 9f 2b 5a
        E 0 82 45 64
        E 0 92 43 64
        E 0 82 43 64
        E 0 83 43 64
        E 0 8f 2b 64
        E 0 92 45 64
        E 0 93 43 5a
        E 0 9f 32 5a
        E 1 83 43 64
        E 0 8f 32 64
        E 0 93 42 5a
        E 0 9f 26 5a
        E 0 82 45 64
        E 0 83 42 64
        E 0 8f 26 64
        E 0 92 43 64
        E 0 93 43 5a
        E 0 9f 2b 5a
        E 0 82 43 64
        E 0 83 43 64
        E 0 8f 2b 64
        E 0 92 40 64
        E 0 95 40 64
        E 0 82 40 64
        E 0 85 40 64
        E 0 92 43 64
        E 0 93 3b 5a
        E 0 95 43 64
        E 0 9f 34 5a
        E 0 83 3b 64
        E 0 8f 34 64
        E 0 93 3b 5a
        E 0 9f 34 5a
        E 0 82 43 64
        E 0 85 43 64
        E 0 92 42 64
        E 0 95 42 64
        E 0 82 42 64
        E 0 83 3b 64
        E 0 85 42 64
        E 0 8f 34 64
        E 0 92 40 64
        E 0 95 40 64
        E 0 82 40 64
        E 0 85 40 64
        E 0 92 47 64
        E 1 93 3b 5a
        E 0 95 47 64
        E 0 9f 34 5a
        E 0 83 3b 64
        E 0 8f 34 64
        E 0 93 3b 5a
        E 0 9f 34 5a
        E 0 82 47 64
        E 0 85 47 64
        E 0 92 45 64
        E 0 95 45 64
        E 0 82 45 64
        E 0 83 3b 64
        E 0 85 45 64
        E 0 8f 34 64
        E 1 92 43 64
        E 0 95 43 64
        E 0 82 43 64
        E 0 85 43 64
        E 0 92 48 64
        E 0 93 42 5a
        E 0 95 48 64
        E 0 9f 33 5a
        E 0 83 42 64
        E 0 8f 33 64
        E 0 93 42 5a
        E 0 9f 33 5a
        E 0 82 48 64
        E 0 85 48 64
        E 0 92 45 64
        E 0 95 45 64
        E 127 82 45 64
        E 0 83 42 64
        E 0 85 45 64
        E 0 8f 33 64
        E 0 92 43 64
        E 0 95 43 64
        E 0 9f 34 5a
        E 254 85 43 64
        E 0 95 42 64
        E 250 82 43 64
        E 1 85 42 64
        E 0 8f 34 64
        E 0 92 4c 64
        E 0 93 3b 5a
        E 0 95 40 64
        E 1 9f 36 5a
        E 509 82 4c 64
        E 1 83 3b 64
        E 0 85 40 64
        E 0 8f 36 64
        E 0 92 47 64
        E 0 93 3b 5a
        E 0 9f 37 5a
        E 247 82 47 64
        E 0 92 45 64
        E 251 82 45 64
        E 0 8f 37 64
        E 0 92 43 64
        E 1 9f 33 5a
        E 263 82 43 64
        E 0 92 42 64
        E 243 82 42 64
        E 0 83 3b 64
        E 0 8f 33 64
        E 0 92 40 64
        E 0 95 40 64
        E 0 9f 34 5a
        E 251 82 40 64
        E 1 85 40 64
        E 0 92 42 64
        E 1 95 42 64
        E 262 82 42 64
        E 0 85 42 64
        E 0 8f 34 64
        E 0 92 43 64
        E 0 93 3b 5a
        E 0 95 43 64
        E 0 9f 36 5a
        E 242 82 43 64
        E 0 85 43 64
        E 1 92 45 64
        E 0 95 45 64
        E 252 82 45 64
        E 0 83 3b 64
        E 0 85 45 64
        E 0 8f 36 64
        E 0 92 47 64
        E 0 93 40 5a
        E 0 95 47 64
        E 0 9f 37 5a
        E 267 82 47 64
        E 0 85 47 64
        E 0 8f 37 64
        E 0 92 40 64
        E 0 95 40 64
        E 0 9f 34 5a
        E 492 82 40 64
        E 0 83 40 64
        E 0 85 40 64
        E 0 8f 34 64
        E 0 92 48 64
        E 0 93 40 5a
        E 1 95 48 64
        E 0 9f 39 5a
        E 514 82 48 64
        E 1 83 40 64
        E 0 85 48 64
        E 0 8f 39 64
        E 0 92 47 64
        E 0 93 45 5a
        E 1 95 47 64
        E 0 9f 36 5a
        E 255 82 47 64
        E 0 85 47 64
        E 0 92 45 64
        E 1 95 45 64
        E 239 82 45 64
        E 1 83 45 64
        E 0 85 45 64
        E 0 8f 36 64
        E 0 92 43 64
        E 0 93 42 5a
        E 0 95 43 64
        E 0 9f 33 5a
        E 505 82 43 64
        E 0 83 42 64
        E 0 85 43 64
        E 0 8f 33 64
        E 0 92 42 64
        E 0 93 3f 5a
        E 0 95 42 64
        E 0 9f 2f 5a
        E 502 82 42 64
        E 1 83 3f 64
        E 2 85 42 64
        E 0 8f 2f 64
        E 0 92 43 64
        E 0 93 3b 5a
        E 0 95 43 64
        E 0 9f 34 5a
        E 250 82 43 64
        E 0 85 43 64
        E 0 92 45 64
        E 0 95 45 64
        E 251 82 45 64
        E 1 83 3b 64
        E 0 85 45 64
        E 0 8f 34 64
        E 0 92 47 64
        E 0 93 39 5a
        E 0 95 47 64
        E 0 9f 36 5a
        E 257 82 47 64
        E 0 85 47 64
        E 0 92 43 64
        E 1 95 43 64
        E 248 82 43 64
        E 0 83 39 64
        E 0 85 43 64
        E 0 8f 36 64
        E 0 92 40 64
        E 1 93 3b 5a
        E 0 95 40 64
        E 0 9f 37 5a
        E 519 83 3b 64
        E 0 8f 37 64
        E 0 93 37 5a
        E 0 9f 34 5a
        E 490 82 40 64
        E 0 83 37 64
        E 0 85 40 64
        E 1 8f 34 64
        E 0 93 3b 5a
        E 0 9f 2f 5a
        E 758 92 40 64
        E 0 95 40 64
        E 518 82 40 64
        E 0 85 40 64
        E 1 92 40 64
        E 0 95 40 64
        E 38643 82 40 64
        E 0 83 3b 64
        E 0 85 40 64
        E 0 8f 2f 64
        E 1 92 41 64
        E 0 93 3b 5a
        E 0 95 41 64
        E 0 9f 2f 5a
        E 0 82 41 64
        E 0 85 41 64
        E 0 92 41 64
        E 0 95 41 64
        E 0 82 41 64
        E 0 85 41 64
        E 0 92 44 64
        E 0 95 44 64
        E 0 82 44 64
        E 0 85 44 64
        E 0 92 44 64
        E 0 95 44 64
        E 0 82 44 64
        E 0 83 3b 64
        E 0 85 44 64
        E 0 8f 2f 64
        E 0 92 45 64
        E 0 93 3b 5a
        E 0 95 45 64
        E 0 9f 2f 5a
        E 0 82 45 64
        E 0 85 45 64
        E 0 92 45 64
        E 0 95 45 64
        E 0 82 45 64
        E 0 85 45 64
        E 0 92 47 64
        E 0 95 47 64
        E 0 82 47 64
        E 0 85 47 64
        E 0 92 47 64
        E 0 95 47 64
        E 0 82 47 64
        E 0 83 3b 64
        E 0 85 47 64
        E 0 8f 2f 64
        E 0 92 48 64
        E 0 93 3b 5a
        E 0 95 48 64
        E 0 9f 2f 5a
        E 0 82 48 64
        E 0 85 48 64
        E 0 92 48 64
        E 0 95 48 64
        E 0 82 48 64
        E 0 85 48 64
        E 0 92 4b 64
        E 0 95 4b 64
        E 0 82 4b 64
        E 0 83 3b 64
        E 0 85 4b 64
        E 0 8f 2f 64
        E 0 92 4b 64
        E 1 93 39 5a
        E 0 95 4b 64
        E 0 9f 2d 5a
        E 0 82 4b 64
        E 0 83 39 64
        E 0 85 4b 64
        E 0 8f 2d 64
        E 0 92 4c 64
        E 0 93 37 5a
        E 0 95 4c 64
        E 0 9f 2b 5a
        E 0 82 4c 64
        E 0 83 37 64
        E 0 85 4c 64
        E 0 8f 2b 64
        E 0 92 4a 64
        E 0 93 45 5a
        E 0 95 4a 64
        E 0 9f 39 5a
        E 0 82 4a 64
        E 0 85 4a 64
        E 0 92 48 64
        E 0 95 48 64
        E 0 82 48 64
        E 0 83 45 64
        E 0 85 48 64
        E 0 8f 39 64
        E 0 92 47 64
        E 0 93 3f 5a
        E 0 95 47 64
        E 0 9f 33 5a
        E 0 82 47 64
        E 0 85 47 64
        E 0 92 45 64
        E 0 95 45 64
        E 0 82 45 64
        E 0 83 3f 64
        E 0 85 45 64
        E 0 8f 33 64
        E 0 92 43 64
        E 0 93 3b 5a
        E 0 95 43 64
        E 0 9f 2f 5a
        E 0 82 43 64
        E 0 85 43 64
        E 0 92 42 64
        E 0 95 42 64
        E 0 82 42 64
        E 0 83 3b 64
        E 0 85 42 64
        E 0 8f 2f 64
        E 0 92 43 64
        E 0 93 40 5a
        E 0 95 43 64
        E 0 9f 34 5a
        E 0 82 43 64
        E 0 83 40 64
        E 0 85 43 64
        E 0 8f 34 64
        E 0 92 42 64
        E 0 93 37 5a
        E 0 95 42 64
        E 0 9f 2b 5a
        E 0 82 42 64
        E 0 85 42 64
        E 0 92 40 64
        E 0 95 40 64
        E 0 82 40 64
        E 0 83 37 64
        E 0 85 40 64
        E 0 8f 2b 64
        E 0 92 42 64
        E 0 93 39 5a
        E 0 95 42 64
        E 0 9f 2d 5a
        E 0 82 42 64
        E 0 83 39 64
        E 0 85 42 64
        E 0 8f 2d 64
        E 0 92 3f 64
        E 0 93 3b 5a
        E 0 95 3f 64
        E 0 9f 2f 5a
        E 0 82 3f 64
        E 0 83 3b 64
        E 0 85 3f 64
        E 0 8f 2f 64
        E 1 92 40 64
        E 0 93 40 5a
        E 0 95 40 64
        E 0 9f 34 5a
        E 0 83 40 64
        E 0 8f 34 64
        E 0 93 42 5a
        E 0 9f 36 5a
        E 0 82 40 64
        E 0 83 42 64
        E 0 85 40 64
        E 0 8f 36 64
        E 0 92 47 64
        E 0 93 43 5a
        E 0 95 47 64
        E 0 9f 37 5a
        E 0 82 47 64
        E 0 83 43 64
        E 0 85 47 64
        E 0 8f 37 64
        E 0 92 47 64
        E 0 93 40 5a
        E 0 95 47 64
        E 0 9f 34 5a
        E 0 82 47 64
        E 0 83 40 64
        E 0 85 47 64
        E 0 8f 34 64
        E 0 92 46 64
        E 0 93 42 5a
        E 0 95 46 64
        E 0 9f 36 5a
        E 0 82 46 64
        E 0 85 46 64
        E 0 92 46 64
        E 0 95 46 64
        E 0 82 46 64
        E 0 83 42 64
        E 0 85 46 64
        E 0 92 47 64
        E 0 93 3b 5a
        E 0 95 47 64
        E 0 82 47 64
        E 0 85 47 64
        E 0 92 47 64
        E 0 95 47 64
        E 0 82 47 64
        E 0 83 3b 64
        E 0 85 47 64
        E 0 8f 36 64
        E 0 92 49 64
        E 0 93 42 5a
        E 0 95 49 64
        E 0 9f 36 5a
        E 0 82 49 64
        E 0 85 49 64
        E 0 92 49 64
        E 0 95 49 64
        E 0 82 49 64
        E 0 83 42 64
        E 0 85 49 64
        E 0 92 4a 64
        E 0 93 3b 5a
        E 0 95 4a 64
        E 0 82 4a 64
        E 0 85 4a 64
        E 0 92 4a 64
        E 0 95 4a 64
        E 0 82 4a 64
        E 0 83 3b 64
        E 0 85 4a 64
        E 0 8f 36 64
        E 0 92 46 64
        E 0 93 42 5a
        E 0 95 46 64
        E 0 9f 36 5a
        E 0 82 46 64
        E 0 85 46 64
        E 0 92 46 64
        E 0 95 46 64
        E 0 82 46 64
        E 0 83 42 64
        E 0 85 46 64
        E 0 92 47 64
        E 0 93 41 59
        E 0 95 47 64
        E 0 82 47 64
        E 0 85 47 64
        E 0 92 47 64
        E 0 95 47 64
        E 0 82 47 64
        E 0 83 41 63
        E 0 85 47 64
        E 0 8f 36 64
        E 0 92 42 64
        E 0 93 42 5a
        E 0 95 42 64
        E 0 9f 36 5a
        E 0 82 42 64
        E 0 85 42 64
        E 0 8f 36 64
        E 0 92 43 64
        E 0 95 43 64
        E 0 9f 2e 5a
        E 0 82 43 64
        E 0 83 42 64
        E 0 85 43 64
        E 0 92 42 64
        E 0 93 42 5a
        E 1 95 42 64
        E 0 82 42 64
        E 0 85 42 64
        E 0 92 40 64
        E 0 95 40 64
        E 0 82 40 64
        E 0 83 42 64
        E 0 85 40 64
        E 0 8f 2e 64
        E 0 92 3e 64
        E 0 93 42 5a
        E 0 95 3e 64
        E 0 9f 2f 5a
        E 0 82 3e 64
        E 0 83 42 64
        E 0 85 3e 64
        E 0 8f 2f 64
        E 0 92 47 64
        E 0 93 42 5a
        E 0 95 47 64
        E 0 9f 32 5a
        E 0 82 47 64
        E 0 83 42 64
        E 0 85 47 64
        E 0 8f 32 64
        E 0 92 49 64
        E 0 93 43 5a
        E 0 95 49 64
        E 0 9f 34 5a
        E 0 82 49 64
        E 0 83 43 64
        E 0 85 49 64
        E 0 8f 34 64
        E 0 92 47 64
        E 0 93 3d 5a
        E 0 95 47 64
        E 0 9f 36 5a
        E 0 82 47 64
        E 0 85 47 64
        E 0 92 46 64
        E 0 95 46 64
        E 0 82 46 64
        E 0 83 3d 64
        E 0 85 46 64
        E 0 8f 36 64
        E 0 92 47 64
        E 0 93 3e 5a
        E 0 95 47 64
        E 0 9f 2f 5a
        E 0 82 47 64
        E 0 83 3e 64
        E 0 85 47 64
        E 0 8f 2f 64
        E 0 98 43 64
        E 0 9e 43 64
        E 0 9f 30 5a
        E 0 88 43 64
        E 0 8e 43 64
        E 0 98 43 64
        E 0 9e 43 64
        E 0 88 43 64
        E 0 8e 43 64
        E 0 98 43 64
        E 0 9e 43 64
        E 0 88 43 64
        E 0 8e 43 64
        E 0 98 48 64
        E 0 9e 48 64
        E 0 88 48 64
        E 0 8e 48 64
        E 0 98 4a 64
        E 0 9e 4a 64
        E 0 88 4a 64
        E 0 8e 4a 64
        E 0 98 4c 64
        E 0 9e 4c 64
        E 0 88 4c 64
        E 0 8e 4c 64
        E 0 98 4c 64
        E 0 9e 4c 64
        E 0 88 4c 64
        E 0 8e 4c 64
        E 0 98 4c 64
        E 0 9e 4c 64
        E 0 88 4c 64
        E 0 8e 4c 64
        E 0 8f 30 64
        E 0 98 49 64
        E 0 9e 49 64
        E 0 9f 37 5a
        E 0 88 49 64
        E 0 8e 49 64
        E 0 98 49 64
        E 0 9e 49 64
        E 0 88 49 64
        E 0 8e 49 64
        E 0 98 47 64
        E 0 9e 47 64
        E 0 88 47 64
        E 0 8e 47 64
        E 0 98 45 64
        E 0 9e 45 64
        E 0 88 45 64
        E 0 8e 45 64
        E 0 8f 37 64
        E 0 98 4a 64
        E 0 9e 4a 64
        E 0 9f 35 5a
        E 0 88 4a 64
        E 1 8e 4a 64
        E 0 98 4a 64
        E 0 9e 4a 64
        E 0 88 4a 64
        E 0 8e 4a 64
        E 0 8f 35 64
        E 0 9f 35 5a
        E 0 98 4d 64
        E 0 9e 4d 64
        E 0 88 4d 64
        E 0 8e 4d 64
        E 0 98 4d 64
        E 0 9e 4d 64
        E 0 88 4d 64
        E 0 8e 4d 64
        E 0 98 4c 64
        E 0 9e 4c 64
        E 0 88 4c 64
        E 0 8e 4c 64
        E 0 8f 35 64
        E 0 98 4b 64
        E 0 9e 4b 64
        E 0 9f 2d 5a
        E 0 88 4b 64
        E 0 8e 4b 64
        E 0 8f 2d 64
        E 0 98 47 64
        E 0 9e 47 64
        E 0 9f 2d 5a
        E 0 88 47 64
        E 0 8e 47 64
        E 0 98 47 64
        E 0 9e 47 64
        E 0 88 47 64
        E 0 8e 47 64
        E 0 98 47 64
        E 0 9e 47 64
        E 0 88 47 64
        E 0 8e 47 64
        E 0 98 49 64
        E 0 9e 49 64
        E 0 88 49 64
        E 0 8e 49 64
        E 0 98 4b 64
        E 0 9e 4b 64
        E 0 88 4b 64
        E 0 8e 4b 64
        E 0 8f 2d 64
        E 0 98 4c 64
        E 0 9e 4c 64
        E 0 9f 2b 5a
        E 0 88 4c 64
        E 0 8e 4c 64
        E 0 98 4c 64
        E 0 9e 4c 64
        E 38403 88 4c 64
        E 0 8e 4c 64
        E 0 8f 2b 64
        E 0 98 48 64
        E 1 9e 48 64
        E 0 9f 2d 5a
        E 0 88 48 64
        E 0 8e 48 64
        E 0 98 48 64
        E 0 9e 48 64
        E 0 88 48 64
        E 0 8e 48 64
        E 0 98 48 64
        E 0 9e 48 64
        E 0 88 48 64
        E 0 8e 48 64
        E 0 98 47 64
        E 0 9e 47 64
        E 0 88 47 64
        E 0 8e 47 64
        E 0 98 48 64
        E 0 9e 48 64
        E 0 88 48 64
        E 0 8e 48 64
        E 0 8f 2d 64
        E 0 98 45 64
        E 0 9e 45 64
        E 0 9f 35 5a
        E 0 88 45 64
        E 0 8e 45 64
        E 0 98 45 64
        E 0 9e 45 64
        E 0 88 45 64
        E 0 8e 45 64
        E 0 98 4a 64
        E 0 9e 4a 64
        E 0 88 4a 64
        E 0 8e 4a 64
        E 0 98 4a 64
        E 0 9e 4a 64
        E 0 88 4a 64
        E 0 8e 4a 64
        E 0 98 45 64
        E 0 9e 45 64
        E 0 88 45 64
        E 0 8e 45 64
        E 0 8f 35 64
        E 0 98 47 64
        E 0 9e 47 64
        E 0 9f 34 5a
        E 0 88 47 64
        E 0 8e 47 64
        E 0 98 47 64
        E 0 9e 47 64
        E 0 88 47 64
        E 0 8e 47 64
        E 0 8f 34 64
        E 0 92 48 64
        E 0 93 40 5a
        E 0 9f 30 5a
        E 0 83 40 64
        E 0 8f 30 64
        E 0 93 40 5a
        E 0 9f 30 5a
        E 0 82 48 64
        E 0 83 40 64
        E 0 8f 30 64
        E 0 92 3c 64
        E 0 93 40 5a
        E 0 9f 30 5a
        E 0 83 40 64
        E 0 8f 30 64
        E 0 93 43 5a
        E 0 9f 34 5a
        E 0 82 3c 64
        E 0 83 43 64
        E 0 8f 34 64
        E 1 93 40 5a
        E 0 9f 30 5a
        E 0 83 40 64
        E 0 8f 30 64
        E 0 93 40 5a
        E 0 9f 30 5a
        E 0 83 40 64
        E 0 8f 30 64
        E 0 93 40 5a
        E 0 9f 30 5a
        E 0 83 40 64
        E 0 8f 30 64
        E 0 93 43 5a
        E 0 9f 34 5a
        E 0 83 43 64
        E 0 8f 34 64
        E 0 93 40 5a
        E 0 9f 30 5a
        E 0 83 40 64
        E 0 8f 30 64
        E 0 93 40 5a
        E 0 9f 30 5a
        E 0 83 40 64
        E 0 8f 30 64
        E 0 93 40 5a
        E 0 9f 30 5a
        E 0 83 40 64
        E 0 8f 30 64
        E 0 93 43 5a
        E 0 9f 34 5a
        E 0 83 43 64
        E 0 8f 34 64
        E 0 93 40 5a
        E 0 9f 30 5a
        E 0 83 40 64
        E 0 8f 30 64
        E 0 92 48 64
        E 0 93 40 5a
        E 0 9f 30 5a
        E 0 82 48 64
        E 0 83 40 64
        E 0 8f 30 64
        E 0 92 4a 64
        E 0 93 40 5a
        E 0 9f 30 5a
        E 0 82 4a 64
        E 0 83 40 64
        E 0 8f 30 64
        E 0 92 48 64
        E 0 93 43 5a
        E 0 9f 34 5a
        E 0 82 48 64
        E 0 83 43 64
        E 0 8f 34 64
        E 1 92 4f 64
        E 0 93 3e 5a
        E 0 9f 2f 5a
        E 0 83 3e 64
        E 0 8f 2f 64
        E 0 93 3e 5a
        E 0 9f 2f 5a
        E 0 82 4f 64
        E 0 83 3e 64
        E 0 8f 2f 64
        E 0 92 43 64
        E 0 93 3e 5a
        E 0 9f 2f 5a
        E 0 83 3e 64
        E 0 8f 2f 64
        E 0 93 41 5a
        E 0 9f 32 5a
        E 0 82 43 64
        E 0 83 41 64
        E 0 8f 32 64
        E 0 93 3e 5a
        E 0 9f 2f 5a
        E 0 83 3e 64
        E 0 8f 2f 64
        E 0 93 3e 5a
        E 0 9f 2f 5a
        E 0 83 3e 64
        E 0 8f 2f 64
        E 0 93 3e 5a
        E 0 9f 2f 5a
        E 0 83 3e 64
        E 0 8f 2f 64
        E 0 93 41 5a
        E 0 9f 32 5a
        E 0 83 41 64
        E 0 8f 32 64
        E 0 93 3e 5a
        E 0 9f 2f 5a
        E 0 83 3e 64
        E 0 8f 2f 64
        E 0 93 3e 5a
        E 0 9f 2f 5a
        E 0 83 3e 64
        E 0 8f 2f 64
        E 0 93 3e 5a
        E 0 9f 2f 5a
        E 0 83 3e 64
        E 0 8f 2f 64
        E 0 93 41 5a
        E 0 9f 32 5a
        E 0 83 41 64
        E 0 8f 32 64
        E 0 93 3e 5a
        E 0 9f 2f 5a
        E 0 83 3e 64
        E 0 8f 2f 64
        E 0 92 4f 64
        E 0 93 3e 5a
        E 0 9f 2f 5a
        E 0 82 4f 64
        E 0 83 3e 64
        E 0 8f 2f 64
        E 0 92 51 64
        E 0 93 3e 5a
        E 0 9f 2f 5a
        E 0 82 51 64
        E 0 83 3e 64
        E 0 8f 2f 64
        E 1 92 4f 64
        E 0 93 41 5a
        E 0 9f 32 5a
        E 0 82 4f 64
        E 0 83 41 64
        E 0 8f 32 64
        E 0 92 54 64
        E 0 93 3c 5a
        E 0 9f 2d 5a
        E 0 83 3c 64
        E 0 8f 2d 64
        E 0 93 3c 5a
        E 0 9f 2d 5a
        E 0 82 54 64
        E 0 83 3c 64
        E 0 8f 2d 64
        E 0 92 48 64
        E 0 93 3c 5a
        E 0 9f 2d 5a
        E 0 83 3c 64
        E 0 8f 2d 64
        E 0 93 40 5a
        E 0 9f 30 5a
        E 0 82 48 64
        E 0 83 40 64
        E 0 8f 30 64
        E 0 93 3c 5a
        E 0 9f 2d 5a
        E 0 83 3c 64
        E 0 8f 2d 64
        E 0 93 3c 5a
        E 0 9f 2d 5a
        E 0 83 3c 64
        E 0 8f 2d 64
        E 0 93 3c 5a
        E 0 9f 2d 5a
        E 0 83 3c 64
        E 0 8f 2d 64
        E 0 93 40 5a
        E 1 9f 30 5a
        E 0 83 40 64
        E 0 8f 30 64
        E 0 93 3c 5a
        E 0 9f 2d 5a
        E 0 83 3c 64
        E 0 8f 2d 64
        E 0 93 3c 5a
        E 0 9f 2d 5a
        E 0 83 3c 64
        E 0 8f 2d 64
        E 0 93 3c 5a
        E 0 9f 2d 5a
        E 0 83 3c 64
        E 0 8f 2d 64
        E 0 93 40 5a
        E 0 9f 30 5a
        E 0 83 40 64
        E 0 8f 30 64
        E 0 93 3c 5a
        E 0 9f 2d 5a
        E 0 83 3c 64
        E 0 8f 2d 64
        E 0 92 54 64
        E 0 93 3c 5a
        E 0 9f 2d 5a
        E 0 82 54 64
        E 0 83 3c 64
        E 0 8f 2d 64
        E 0 92 56 64
        E 0 93 3c 5a
        E 0 9f 2d 5a
        E 0 82 56 64
        E 0 83 3c 64
        E 0 8f 2d 64
        E 0 92 54 64
        E 0 93 40 5a
        E 0 9f 30 5a
        E 0 82 54 64
        E 0 83 40 64
        E 0 8f 30 64
        E 0 92 53 64
        E 0 93 3e 5a
        E 0 9f 2b 5a
        E 0 82 53 64
        E 0 83 3e 64
        E 0 8f 2b 64
        E 0 92 48 64
        E 0 93 40 5a
        E 0 9f 3c 5a
        E 0 82 48 64
        E 0 92 48 64
        E 0 82 48 64
        E 0 92 4a 64
        E 0 82 4a 64
        E 0 83 40 64
        E 0 8f 3c 64
        E 0 92 4c 64
        E 0 93 40 5a
        E 0 9f 3c 5a
        E 0 82 4c 64
        E 0 92 4c 64
        E 0 82 4c 64
        E 0 92 4d 64
        E 0 82 4d 64
        E 0 83 40 64
        E 0 8f 3c 64
        E 0 92 4f 64
        E 0 93 40 5a
        E 0 9f 3c 5a
        E 0 82 4f 64
        E 0 92 51 64
        E 0 82 51 64
        E 0 92 53 64
        E 0 82 53 64
        E 0 83 40 64
        E 0 8f 3c 64
        E 0 92 54 64
        E 0 93 40 5a
        E 0 9f 3c 5a
        E 0 82 54 64
        E 0 92 4c 64
        E 0 82 4c 64
        E 0 83 40 64
        E 0 8f 3c 64
        E 0 92 4a 64
        E 0 93 43 5a
        E 0 9f 3b 5a
        E 0 82 4a 64
        E 0 92 47 64
        E 0 82 47 64
        E 0 92 48 64
        E 0 82 48 64
        E 0 83 43 64
        E 0 8f 3b 64
        E 0 92 4a 64
        E 0 93 3e 5a
        E 0 9f 3b 5a
        E 0 82 4a 64
        E 0 92 4a 64
        E 0 82 4a 64
        E 0 92 4c 64
        E 0 82 4c 64
        E 0 83 3e 64
        E 0 8f 3b 64
        E 0 92 4d 64
        E 1 93 3e 5a
        E 0 9f 3b 5a
        E 0 82 4d 64
        E 0 92 4f 64
        E 0 82 4f 64
        E 0 92 51 64
        E 0 82 51 64
        E 0 83 3e 64
        E 0 8f 3b 64
        E 0 92 53 64
        E 0 93 3e 5a
        E 0 9f 3b 5a
        E 0 82 53 64
        E 0 92 4a 64
        E 0 82 4a 64
        E 0 83 3e 64
        E 0 8f 3b 64
        E 0 92 48 64
        E 0 93 40 5a
        E 0 9f 39 5a
        E 0 82 48 64
        E 0 92 45 64
        E 0 82 45 64
        E 0 92 47 64
        E 0 82 47 64
        E 0 83 40 64
        E 0 8f 39 64
        E 0 92 48 64
        E 0 93 3c 5a
        E 0 9f 39 5a
        E 0 82 48 64
        E 0 92 48 64
        E 0 82 48 64
        E 0 92 4a 64
        E 0 82 4a 64
        E 0 83 3c 64
        E 0 8f 39 64
        E 0 92 4c 64
        E 0 93 3c 5a
        E 0 9f 39 5a
        E 0 82 4c 64
        E 0 92 4e 64
        E 0 82 4e 64
        E 0 92 4f 64
        E 0 82 4f 64
        E 0 83 3c 64
        E 0 8f 39 64
        E 0 92 51 64
        E 0 93 3c 5a
        E 0 9f 39 5a
        E 0 82 51 64
        E 0 92 48 64
        E 0 82 48 64
        E 0 83 3c 64
        E 0 8f 39 64
        E 0 92 43 64
        E 0 93 43 5a
        E 0 9f 37 5a
        E 0 82 43 64
        E 0 83 43 64
        E 0 8f 37 64
        E 0 92 43 64
        E 0 93 43 5a
        E 0 9f 37 5a
        E 0 82 43 64
        E 0 83 43 64
        E 0 8f 37 64
        E 0 92 42 64
        E 0 93 42 5a
        E 0 9f 36 5a
        E 0 82 42 64
        E 0 83 42 64
        E 0 8f 36 64
        E 0 92 43 64
        E 0 93 43 5a
        E 0 9f 37 5a
        E 0 82 43 64
        E 0 83 43 64
        E 0 8f 37 64
        E 0 92 37 64
        E 0 93 37 5a
        E 0 9f 2b 5a
        E 0 82 37 64
        E 0 83 37 64
        E 0 8f 2b 64
        E 0 92 43 64
        E 0 93 43 5a
        E 0 9f 37 5a
        E 0 82 43 64
        E 0 83 43 64
        E 0 8f 37 64
        E 0 92 42 64
        E 0 93 42 5a
        E 0 9f 36 5a
        E 0 82 42 64
        E 0 83 42 64
        E 0 8f 36 64
        E 0 92 43 64
        E 0 93 43 5a
        E 0 9f 37 5a
        E 0 82 43 64
        E 0 83 43 64
        E 1 8f 37 64
        E 0 92 37 64
        E 0 93 37 5a
        E 0 9f 2b 5a
        E 0 82 37 64
        E 0 83 37 64
        E 0 8f 2b 64
        E 0 92 37 64
        E 0 93 37 5a
        E 0 9f 2b 5a
        E 0 82 37 64
        E 0 83 37 64
        E 0 8f 2b 64
        E 0 92 43 64
        E 0 93 43 5a
        E 0 9f 37 5a
        E 0 82 43 64
        E 0 83 43 64
        E 0 8f 37 64
        E 0 92 42 64
        E 0 93 42 5a
        E 0 9f 36 5a
        E 0 82 42 64
        E 0 83 42 64
        E 1 8f 36 64
        E 0 92 43 64
        E 0 93 43 5a
        E 0 9f 37 5a
        E 0 82 43 64
        E 0 83 43 64
        E 0 8f 37 64
        E 0 92 37 64
        E 0 93 37 5a
        E 0 9f 2b 5a
        E 0 82 37 64
        E 0 83 37 64
        E 0 8f 2b 64
        E 0 92 43 64
        E 0 93 43 5a
        E 0 9f 37 5a
        E 0 82 43 64
        E 0 83 43 64
        E 0 8f 37 64
        E 0 92 42 64
        E 0 93 42 5a
        E 0 9f 36 5a
        E 0 82 42 64
        E 0 83 42 64
        E 0 8f 36 64
        E 0 92 43 64
        E 0 93 43 5a
        E 0 9f 37 5a
        E 0 82 43 64
        E 0 83 43 64
        E 0 8f 37 64
        E 0 92 37 64
        E 1 93 37 5a
        E 0 9f 2b 5a
        E 0 82 37 64
        E 0 83 37 64
        E 0 8f 2b 64
        E 0 92 48 64
        E 0 93 43 5a
        E 0 93 40 5a
        E 0 83 43 64
        E 0 83 40 64
        E 0 93 43 5a
        E 0 93 40 5a
        E 0 83 43 64
        E 0 83 40 64
        E 0 93 43 5a
        E 0 93 40 5a
        E 0 83 43 64
        E 0 83 40 64
        E 0 93 46 5b
        E 0 93 43 5a
        E 0 83 46 66
        E 0 83 43 64
        E 0 93 43 5a
        E 0 93 40 5a
        E 0 83 43 64
        E 0 83 40 64
        E 0 93 43 5a
        E 0 93 40 5a
        E 0 83 43 64
        E 0 83 40 64
        E 0 93 43 5a
        E 0 93 40 5a
        E 0 83 43 64
        E 0 83 40 64
        E 0 93 46 5b
        E 0 93 43 5a
        E 0 83 46 66
        E 0 83 43 64
        E 0 93 43 5a
        E 0 93 40 5a
        E 0 83 43 64
        E 0 83 40 64
        E 0 93 43 5a
        E 0 93 40 5a
        E 0 83 43 64
        E 0 83 40 64
        E 0 93 43 5a
        E 0 93 40 5a
        E 0 83 43 64
        E 0 83 40 64
        E 0 93 46 5b
        E 0 93 43 5a
        E 0 83 46 66
        E 1 83 43 64
        E 0 93 43 5a
        E 0 93 40 5a
        E 0 83 43 64
        E 0 83 40 64
        E 0 93 43 5a
        E 0 93 40 5a
        E 0 83 43 64
        E 0 83 40 64
        E 0 93 43 5a
        E 0 93 40 5a
        E 0 83 43 64
        E 0 83 40 64
        E 0 93 46 5b
        E 0 93 43 5a
        E 0 82 48 64
        E 0 83 46 66
        E 0 83 43 64
        E 0 92 4f 64
        E 0 93 43 5a
        E 0 93 40 5a
        E 0 83 43 64
        E 0 83 40 64
        E 0 93 43 5a
        E 0 93 40 5a
        E 0 83 43 64
        E 0 83 40 64
        E 0 93 43 5a
        E 0 93 40 5a
        E 0 83 43 64
        E 0 83 40 64
        E 0 93 46 5b
        E 0 93 43 5a
        E 0 83 46 66
        E 0 83 43 64
        E 0 93 43 5a
        E 0 93 40 5a
        E 0 83 43 64
        E 0 83 40 64
        E 0 93 43 5a
        E 0 93 40 5a
        E 0 83 43 64
        E 0 83 40 64
        E 0 93 43 5a
        E 0 93 40 5a
        E 0 83 43 64
        E 0 83 40 64
        E 0 93 46 5b
        E 0 93 43 5a
        E 38404 82 4f 64
        E 0 83 46 66
        E 0 83 43 64
        E 0 92 46 66
        E 0 93 43 5a
        E 0 93 40 5a
        E 0 83 43 64
        E 0 83 40 64
        E 0 93 43 5a
        E 0 93 40 5a
        E 0 83 43 64
        E 0 83 40 64
        E 0 93 43 5a
        E 0 93 40 5a
        E 0 83 43 64
        E 0 83 40 64
        E 0 93 46 5b
        E 0 93 43 5a
        E 0 83 46 66
        E 0 83 43 64
        E 0 93 43 5a
        E 0 93 40 5a
        E 0 83 43 64
        E 0 83 40 64
        E 0 93 43 5a
        E 0 93 40 5a
        E 0 83 43 64
        E 0 83 40 64
        E 0 93 43 5a
        E 0 93 40 5a
        E 0 83 43 64
        E 0 83 40 64
        E 0 93 46 5b
        E 0 93 43 5a
        E 0 82 46 66
        E 0 83 46 66
        E 0 83 43 64
        E 0 92 41 64
        E 0 93 41 5a
        E 0 9f 35 5a
        E 0 82 41 64
        E 0 83 41 64
        E 0 8f 35 64
        E 0 92 48 64
        E 0 93 48 5a
        E 0 9f 3c 5a
        E 0 82 48 64
        E 0 83 48 64
        E 0 8f 3c 64
        E 0 92 46 66
        E 0 93 46 5b
        E 0 9f 3a 5b
        E 0 82 46 66
        E 0 83 46 66
        E 0 8f 3a 66
        E 1 92 48 64
        E 0 93 48 5a
        E 0 9f 3c 5a
        E 0 82 48 64
        E 0 83 48 64
        E 0 8f 3c 64
        E 0 92 41 64
        E 0 93 41 5a
        E 0 9f 35 5a
        E 0 82 41 64
        E 0 83 41 64
        E 0 8f 35 64
        E 0 92 48 64
        E 0 93 48 5a
        E 0 9f 3c 5a
        E 0 82 48 64
        E 0 83 48 64
        E 0 8f 3c 64
        E 0 92 46 66
        E 0 93 46 5b
        E 0 9f 3a 5b
        E 0 82 46 66
        E 0 83 46 66
        E 0 8f 3a 66
        E 0 92 48 64
        E 0 93 48 5a
        E 0 9f 3c 5a
        E 0 82 48 64
        E 0 83 48 64
        E 0 8f 3c 64
        E 0 92 41 64
        E 0 93 41 5a
        E 0 9f 35 5a
        E 0 82 41 64
        E 0 83 41 64
        E 0 8f 35 64
        E 0 92 48 64
        E 0 93 48 5a
        E 0 9f 3c 5a
        E 0 82 48 64
        E 0 83 48 64
        E 0 8f 3c 64
        E 0 92 46 66
        E 0 93 46 5b
        E 0 9f 3a 5b
        E 0 82 46 66
        E 0 83 46 66
        E 0 8f 3a 66
        E 0 92 48 64
        E 0 93 48 5a
        E 1 9f 3c 5a
        E 0 82 48 64
        E 0 83 48 64
        E 0 8f 3c 64
        E 0 92 41 64
        E 0 93 41 5a
        E 0 9f 35 5a
        E 0 82 41 64
        E 0 83 41 64
        E 0 8f 35 64
        E 0 92 4a 64
        E 0 93 45 5a
        E 0 93 42 5a
        E 0 83 45 64
        E 0 83 42 64
        E 0 93 45 5a
        E 0 93 42 5a
        E 0 83 45 64
        E 0 83 42 64
        E 0 93 45 5a
        E 0 93 42 5a
        E 0 83 45 64
        E 0 83 42 64
        E 0 93 48 5a
        E 0 93 45 5a
        E 0 83 48 64
        E 0 83 45 64
        E 0 93 45 5a
        E 1 93 42 5a
        E 0 83 45 64
        E 0 83 42 64
        E 0 93 45 5a
        E 0 93 42 5a
        E 0 83 45 64
        E 0 83 42 64
        E 0 93 45 5a
        E 0 93 42 5a
        E 0 83 45 64
        E 0 83 42 64
        E 0 93 48 5a
        E 0 93 45 5a
        E 0 82 4a 64
        E 0 83 48 64
        E 0 83 45 64
        E 0 92 4a 64
        E 0 93 45 5a
        E 0 93 42 5a
        E 0 83 45 64
        E 0 83 42 64
        E 0 93 45 5a
        E 0 93 42 5a
        E 0 83 45 64
        E 0 83 42 64
        E 0 93 45 5a
        E 0 93 42 5a
        E 0 83 45 64
        E 0 83 42 64
        E 0 93 48 5a
        E 0 93 45 5a
        E 0 83 48 64
        E 0 83 45 64
        E 0 93 45 5a
        E 0 93 42 5a
        E 0 83 45 64
        E 0 83 42 64
        E 0 93 45 5a
        E 0 93 42 5a
        E 0 83 45 64
        E 0 83 42 64
        E 0 93 45 5a
        E 0 93 42 5a
        E 0 83 45 64
        E 0 83 42 64
        E 0 93 48 5a
        E 0 93 45 5a
        E 0 82 4a 64
        E 0 83 48 64
        E 0 83 45 64
        E 0 92 51 64
        E 0 93 45 5a
        E 0 93 42 5a
        E 0 83 45 64
        E 0 83 42 64
        E 0 93 45 5a
        E 0 93 42 5a
        E 0 83 45 64
        E 0 83 42 64
        E 0 93 45 5a
        E 0 93 42 5a
        E 0 83 45 64
        E 0 83 42 64
        E 0 93 48 5a
        E 0 93 45 5a
        E 0 83 48 64
        E 0 83 45 64
        E 0 93 45 5a
        E 0 93 42 5a
        E 0 83 45 64
        E 0 83 42 64
        E 0 93 45 5a
        E 0 93 42 5a
        E 1 83 45 64
        E 0 83 42 64
        E 0 93 45 5a
        E 0 93 42 5a
        E 0 83 45 64
        E 0 83 42 64
        E 0 93 48 5a
        E 0 93 45 5a
        E 0 82 51 64
        E 0 83 48 64
        E 0 83 45 64
        E 0 92 48 64
        E 0 93 45 5a
        E 0 93 42 5a
        E 0 83 45 64
        E 0 83 42 64
        E 0 93 45 5a
        E 0 93 42 5a
        E 0 83 45 64
        E 0 83 42 64
        E 0 93 45 5a
        E 0 93 42 5a
        E 0 83 45 64
        E 0 83 42 64
        E 0 93 48 5a
        E 0 93 45 5a
        E 0 83 48 64
        E 0 83 45 64
        E 0 93 45 5a
        E 0 93 42 5a
        E 0 83 45 64
        E 0 83 42 64
        E 0 93 45 5a
        E 0 93 42 5a
        E 0 83 45 64
        E 0 83 42 64
        E 0 93 45 5a
        E 0 93 42 5a
        E 0 83 45 64
        E 0 83 42 64
        E 0 93 48 5a
        E 0 93 45 5a
        E 0 82 48 64
        E 0 83 48 64
        E 0 83 45 64
        E 0 92 47 64
        E 0 93 37 5a
        E 0 9f 37 5a
        E 0 82 47 64
        E 0 83 37 64
        E 0 8f 37 64
        E 0 92 4a 64
        E 0 93 3e 5a
        E 0 9f 3e 5a
        E 0 82 4a 64
        E 0 83 3e 64
        E 0 8f 3e 64
        E 0 92 48 64
        E 0 93 3c 5a
        E 0 9f 3c 5a
        E 0 82 48 64
        E 0 83 3c 64
        E 0 8f 3c 64
        E 0 92 4a 64
        E 0 93 3e 5a
        E 0 9f 3e 5a
        E 0 82 4a 64
        E 0 83 3e 64
        E 0 8f 3e 64
        E 0 92 43 64
        E 0 93 37 5a
        E 0 9f 37 5a
        E 0 82 43 64
        E 0 83 37 64
        E 0 8f 37 64
        E 0 92 4a 64
        E 0 93 3e 5a
        E 0 9f 3e 5a
        E 0 82 4a 64
        E 0 83 3e 64
        E 0 8f 3e 64
        E 0 92 48 64
        E 0 93 3c 5a
        E 0 9f 3c 5a
        E 0 82 48 64
        E 0 83 3c 64
        E 0 8f 3c 64
        E 0 92 4a 64
        E 0 93 3e 5a
        E 0 9f 3e 5a
        E 0 82 4a 64
        E 0 83 3e 64
        E 0 8f 3e 64
        E 0 92 43 64
        E 0 93 37 5a
        E 0 9f 37 5a
        E 0 82 43 64
        E 0 83 37 64
        E 0 8f 37 64
        E 1 92 4a 64
        E 0 93 3e 5a
        E 0 9f 3e 5a
        E 0 82 4a 64
        E 0 83 3e 64
        E 0 8f 3e 64
        E 0 92 48 64
        E 0 93 3c 5a
        E 0 9f 3c 5a
        E 0 82 48 64
        E 0 83 3c 64
        E 0 8f 3c 64
        E 0 92 4a 64
        E 0 93 3e 5a
        E 0 9f 3e 5a
        E 0 82 4a 64
        E 0 83 3e 64
        E 0 8f 3e 64
        E 0 92 43 64
        E 0 93 37 5a
        E 1 9f 37 5a
        E 0 82 43 64
        E 0 83 37 64
        E 0 8f 37 64
        E 0 92 51 64
        E 0 92 4f 64
        E 0 93 4a 5a
        E 0 9f 3b 5a
        E 0 82 4f 64
        E 0 92 4e 64
        E 0 82 4e 64
        E 0 92 4f 64
        E 0 82 51 64
        E 0 82 4f 64
        E 0 83 4a 64
        E 0 8f 3b 64
        E 0 92 51 64
        E 0 92 4f 64
        E 0 93 48 5a
        E 0 9f 39 5a
        E 0 82 4f 64
        E 0 92 4e 64
        E 0 82 4e 64
        E 0 92 4f 64
        E 0 82 51 64
        E 0 82 4f 64
        E 0 83 48 64
        E 0 8f 39 64
        E 0 92 51 64
        E 0 92 4f 64
        E 0 93 47 5a
        E 0 9f 37 5a
        E 0 82 4f 64
        E 0 92 4e 64
        E 0 82 4e 64
        E 0 92 4f 64
        E 0 82 51 64
        E 0 82 4f 64
        E 0 83 47 64
        E 0 8f 37 64
        E 0 92 51 64
        E 0 92 4f 64
        E 0 93 45 5a
        E 0 9f 36 5a
        E 0 82 4f 64
        E 0 92 4e 64
        E 0 82 4e 64
        E 0 92 4f 64
        E 0 82 51 64
        E 0 82 4f 64
        E 0 83 45 64
        E 0 8f 36 64
        E 0 92 4a 64
        E 0 92 48 64
        E 0 93 43 5a
        E 0 9f 34 5a
        E 0 82 48 64
        E 0 92 47 64
        E 0 82 47 64
        E 0 92 48 64
        E 0 82 4a 64
        E 0 82 48 64
        E 0 83 43 64
        E 0 8f 34 64
        E 0 92 4a 64
        E 0 92 48 64
        E 0 93 42 5a
        E 0 9f 32 5a
        E 0 82 48 64
        E 0 92 47 64
        E 0 82 47 64
        E 0 92 48 64
        E 0 82 4a 64
        E 0 82 48 64
        E 0 83 42 64
        E 0 8f 32 64
        E 0 92 4a 64
        E 0 92 48 64
        E 0 93 40 5a
        E 0 9f 30 5a
        E 0 82 48 64
        E 0 92 47 64
        E 0 82 47 64
        E 0 92 48 64
        E 0 82 4a 64
        E 0 82 48 64
        E 0 83 40 64
        E 0 8f 30 64
        E 0 92 4a 64
        E 0 92 48 64
        E 0 93 3e 5a
        E 0 9f 2f 5a
        E 1 82 48 64
        E 0 92 47 64
        E 0 82 47 64
        E 0 92 48 64
        E 0 82 4a 64
        E 0 82 48 64
        E 0 83 3e 64
        E 0 8f 2f 64
        E 0 92 43 64
        E 0 92 42 64
        E 0 93 3c 5a
        E 0 9f 2d 5a
        E 0 82 42 64
        E 0 92 40 64
        E 0 82 40 64
        E 0 92 42 64
        E 0 82 43 64
        E 0 82 42 64
        E 0 83 3c 64
        E 0 8f 2d 64
        E 0 92 43 64
        E 0 92 42 64
        E 0 93 3b 5a
        E 0 9f 2b 5a
        E 0 82 42 64
        E 0 92 40 64
        E 0 82 40 64
        E 0 92 42 64
        E 0 82 43 64
        E 0 82 42 64
        E 0 83 3b 64
        E 0 8f 2b 64
        E 0 92 43 64
        E 0 92 42 64
        E 0 93 39 5a
        E 0 9f 2a 5a
        E 0 82 42 64
        E 0 92 40 64
        E 0 82 40 64
        E 0 92 42 64
        E 0 82 43 64
        E 0 82 42 64
        E 0 83 39 64
        E 0 8f 2a 64
        E 0 92 43 64
        E 0 92 42 64
        E 0 93 36 5a
        E 0 9f 26 5a
        E 0 82 42 64
        E 0 92 40 64
        E 0 82 40 64
        E 0 92 42 64
        E 0 82 43 64
        E 0 82 42 64
        E 0 83 36 64
        E 0 8f 26 64
        E 0 92 43 64
        E 0 93 37 5a
        E 0 9f 2b 5a
        E 0 82 43 64
        E 0 92 43 64
        E 0 82 43 64
        E 0 92 42 64
        E 0 82 42 64
        E 0 92 43 64
        E 0 82 43 64
        E 0 83 37 64
        E 0 8f 2b 64
        E 0 92 47 64
        E 0 93 37 5a
        E 0 9f 2b 5a
        E 0 82 47 64
        E 0 92 43 64
        E 0 82 43 64
        E 0 92 42 64
        E 0 82 42 64
        E 0 92 43 64
        E 0 82 43 64
        E 0 83 37 64
        E 0 8f 2b 64
        E 0 92 37 64
        E 0 93 37 5a
        E 0 9f 2b 5a
        E 0 82 37 64
        E 0 92 43 64
        E 0 82 43 64
        E 0 92 42 64
        E 0 82 42 64
        E 0 92 43 64
        E 0 82 43 64
        E 0 83 37 64
        E 0 8f 2b 64
        E 0 92 47 64
        E 1 93 37 5a
        E 0 9f 2b 5a
        E 0 82 47 64
        E 0 92 43 64
        E 0 82 43 64
        E 0 92 42 64
        E 0 82 42 64
        E 0 92 43 64
        E 0 82 43 64
        E 0 83 37 64
        E 0 8f 2b 64
        E 0 92 37 64
        E 0 93 37 5a
        E 0 9f 2b 5a
        E 0 82 37 64
        E 0 92 43 64
        E 0 82 43 64
        E 0 92 42 64
        E 0 82 42 64
        E 0 92 43 64
        E 0 82 43 64
        E 0 83 37 64
        E 0 8f 2b 64
        E 0 92 47 64
        E 0 93 37 5a
        E 0 9f 2b 5a
        E 0 82 47 64
        E 0 92 43 64
        E 0 82 43 64
        E 0 92 42 64
        E 0 82 42 64
        E 0 92 43 64
        E 0 82 43 64
        E 0 83 37 64
        E 0 8f 2b 64
        E 0 92 3c 64
        E 0 93 3c 5a
        E 0 9f 30 5a
        E 0 82 3c 64
        E 0 83 3c 64
        E 0 8f 30 64
        E 0 92 3e 64
        E 0 93 3e 5a
        E 0 9f 32 5a
        E 0 82 3e 64
        E 0 83 3e 64
        E 0 8f 32 64
        E 0 92 37 64
        E 0 93 37 5a
        E 0 9f 2b 5a
        E 0 82 37 64
        E 0 83 37 64
        E 0 8f 2b 64
        E 0 98 43 64
        E 0 88 43 64
        E 0 93 40 5a
        E 0 98 48 64
        E 0 9f 30 5a
        E 0 83 40 64
        E 0 8f 30 64
        E 0 93 40 5a
        E 0 9f 30 5a
        E 0 83 40 64
        E 0 8f 30 64
        E 0 93 40 5a
        E 0 9f 30 5a
        E 0 83 40 64
        E 0 8f 30 64
        E 0 93 43 5a
        E 0 9f 34 5a
        E 0 83 43 64
        E 0 88 48 64
        E 0 8f 34 64
        E 0 93 40 5a
        E 1 98 40 64
        E 0 9f 30 5a
        E 0 83 40 64
        E 0 8f 30 64
        E 0 93 40 5a
        E 0 9f 30 5a
        E 0 83 40 64
        E 0 8f 30 64
        E 0 93 40 5a
        E 0 9f 30 5a
        E 0 83 40 64
        E 0 8f 30 64
        E 0 93 43 5a
        E 0 9f 34 5a
        E 0 83 43 64
        E 0 88 40 64
        E 0 8f 34 64
        E 0 93 40 5a
        E 0 98 3c 64
        E 0 9f 30 5a
        E 0 83 40 64
        E 0 8f 30 64
        E 0 93 40 5a
        E 0 9f 30 5a
        E 0 83 40 64
        E 0 8f 30 64
        E 0 93 40 5a
        E 0 9f 30 5a
        E 0 83 40 64
        E 0 8f 30 64
        E 0 93 43 5a
        E 0 9f 34 5a
        E 0 83 43 64
        E 0 88 3c 64
        E 0 8f 34 64
        E 0 93 40 5a
        E 0 98 4c 64
        E 0 9f 30 5a
        E 0 83 40 64
        E 0 8f 30 64
        E 0 92 48 64
        E 0 93 40 5a
        E 0 9f 30 5a
        E 0 82 48 64
        E 0 83 40 64
        E 0 8f 30 64
        E 0 92 4a 64
        E 0 93 40 5a
        E 0 9f 30 5a
        E 0 82 4a 64
        E 0 83 40 64
        E 0 8f 30 64
        E 0 92 48 64
        E 0 93 43 5a
        E 0 9f 34 5a
        E 0 82 48 64
        E 0 83 43 64
        E 0 88 4c 64
        E 0 8f 34 64
        E 0 92 4f 64
        E 0 93 3e 5a
        E 0 98 4a 64
        E 0 9f 2f 5a
        E 0 83 3e 64
        E 0 8f 2f 64
        E 0 93 3e 5a
        E 0 9f 2f 5a
        E 0 82 4f 64
        E 0 83 3e 64
        E 0 8f 2f 64
        E 0 92 43 64
        E 0 93 3e 5a
        E 0 9f 2f 5a
        E 0 83 3e 64
        E 0 8f 2f 64
        E 0 93 41 5a
        E 0 9f 32 5a
        E 0 82 43 64
        E 0 83 41 64
        E 0 88 4a 64
        E 0 8f 32 64
        E 0 93 3e 5a
        E 0 98 43 64
        E 0 9f 2f 5a
        E 0 83 3e 64
        E 0 8f 2f 64
        E 0 93 3e 5a
        E 0 9f 2f 5a
        E 0 83 3e 64
        E 1 8f 2f 64
        E 0 93 3e 5a
        E 0 9f 2f 5a
        E 0 83 3e 64
        E 0 8f 2f 64
        E 0 93 41 5a
        E 0 9f 32 5a
        E 0 83 41 64
        E 0 88 43 64
        E 0 8f 32 64
        E 0 93 3e 5a
        E 0 9f 2f 5a
        E 0 83 3e 64
        E 0 8f 2f 64
        E 0 93 3e 5a
        E 0 9f 2f 5a
        E 0 83 3e 64
        E 0 8f 2f 64
        E 0 93 3e 5a
        E 0 9f 2f 5a
        E 0 83 3e 64
        E 0 8f 2f 64
        E 0 93 41 5a
        E 0 9f 32 5a
        E 0 83 41 64
        E 0 8f 32 64
        E 0 93 3e 5a
        E 0 98 43 64
        E 0 9f 2f 5a
        E 0 83 3e 64
        E 0 8f 2f 64
        E 0 92 4f 64
        E 0 93 3e 5a
        E 0 9f 2f 5a
        E 0 82 4f 64
        E 0 83 3e 64
        E 0 8f 2f 64
        E 0 92 51 64
        E 0 93 3e 5a
        E 0 9f 2f 5a
        E 0 82 51 64
        E 0 83 3e 64
        E 0 8f 2f 64
        E 0 92 4f 64
        E 0 93 41 5a
        E 0 9f 32 5a
        E 0 82 4f 64
        E 0 83 41 64
        E 0 88 43 64
        E 0 8f 32 64
        E 0 92 54 64
        E 0 93 3c 5a
        E 0 98 48 64
        E 0 9f 2d 5a
        E 0 83 3c 64
        E 0 8f 2d 64
        E 0 93 3c 5a
        E 0 9f 2d 5a
        E 0 82 54 64
        E 0 83 3c 64
        E 0 8f 2d 64
        E 0 92 48 64
        E 0 93 3c 5a
        E 0 9f 2d 5a
        E 0 83 3c 64
        E 0 8f 2d 64
        E 0 93 41 5a
        E 0 9f 30 5a
        E 0 82 48 64
        E 0 83 41 64
        E 0 88 48 64
        E 0 8f 30 64
        E 0 93 3c 5a
        E 0 98 4d 64
        E 0 9f 2d 5a
        E 0 83 3c 64
        E 0 8f 2d 64
        E 0 93 3c 5a
        E 0 9f 2d 5a
        E 0 83 3c 64
        E 0 8f 2d 64
        E 0 93 3c 5a
        E 0 9f 2d 5a
        E 0 83 3c 64
        E 0 8f 2d 64
        E 0 93 41 5a
        E 0 9f 30 5a
        E 0 83 41 64
        E 0 88 4d 64
        E 0 8f 30 64
        E 0 93 3c 5a
        E 0 98 45 64
        E 0 9f 2d 5a
        E 0 83 3c 64
        E 0 8f 2d 64
        E 0 93 3c 5a
        E 0 9f 2d 5a
        E 0 83 3c 64
        E 0 8f 2d 64
        E 0 93 3c 5a
        E 0 9f 2d 5a
        E 0 83 3c 64
        E 0 8f 2d 64
        E 0 93 41 5a
        E 0 9f 30 5a
        E 0 83 41 64
        E 0 88 45 64
        E 0 8f 30 64
        E 0 93 3c 5a
        E 0 98 4d 64
        E 0 9f 2d 5a
        E 0 83 3c 64
        E 0 8f 2d 64
        E 0 92 54 64
        E 0 93 3c 5a
        E 1 9f 2d 5a
        E 0 82 54 64
        E 0 83 3c 64
        E 0 8f 2d 64
        E 0 92 56 64
        E 0 93 3c 5a
        E 0 9f 2d 5a
        E 0 82 56 64
        E 0 83 3c 64
        E 0 8f 2d 64
        E 0 92 54 64
        E 0 93 3c 5a
        E 0 9f 30 5a
        E 0 82 54 64
        E 0 83 3c 64
        E 0 88 4d 64
        E 0 8f 30 64
        E 0 92 53 64
        E 0 93 3e 5a
        E 0 98 47 64
        E 0 9f 2b 5a
        E 0 88 47 64
        E 0 98 45 64
        E 0 88 45 64
        E 0 98 43 64
        E 0 82 53 64
        E 0 83 3e 64
        E 0 88 43 64
        E 0 8f 2b 64
        E 38404 92 48 64
        E 0 93 40 5a
        E 0 98 48 64
        E 0 9f 3c 5a
        E 0 82 48 64
        E 0 92 48 64
        E 0 82 48 64
        E 0 92 4a 64
        E 0 82 4a 64
        E 0 83 40 64
        E 0 88 48 64
        E 0 8f 3c 64
        E 0 92 4c 64
        E 0 93 40 5a
        E 0 98 48 64
        E 0 9f 3c 5a
        E 0 82 4c 64
        E 0 88 48 64
        E 0 92 4c 64
        E 0 98 4a 64
        E 0 82 4c 64
        E 0 92 4d 64
        E 0 82 4d 64
        E 0 83 40 64
        E 0 88 4a 64
        E 0 8f 3c 64
        E 0 92 4f 64
        E 0 93 40 5a
        E 0 98 4c 64
        E 0 9f 3c 5a
        E 0 82 4f 64
        E 0 92 51 64
        E 0 82 51 64
        E 0 92 53 64
        E 0 82 53 64
        E 0 83 40 64
        E 0 88 4c 64
        E 0 8f 3c 64
        E 0 92 54 64
        E 0 93 40 5a
        E 0 98 48 64
        E 0 9f 3c 5a
        E 0 82 54 64
        E 0 92 4c 64
        E 0 82 4c 64
        E 0 83 40 64
        E 0 88 48 64
        E 0 8f 3c 64
        E 0 92 4a 64
        E 0 93 43 5a
        E 0 98 4a 64
        E 1 9f 3b 5a
        E 0 82 4a 64
        E 0 92 47 64
        E 0 82 47 64
        E 0 92 48 64
        E 0 82 48 64
        E 0 83 43 64
        E 0 88 4a 64
        E 0 8f 3b 64
        E 0 92 4a 64
        E 0 93 3e 5a
        E 0 98 43 64
        E 0 9f 3b 5a
        E 0 82 4a 64
        E 0 92 4a 64
        E 0 82 4a 64
        E 0 92 4c 64
        E 0 82 4c 64
        E 0 83 3e 64
        E 0 88 43 64
        E 0 8f 3b 64
        E 0 92 4d 64
        E 0 93 3e 5a
        E 0 9f 3b 5a
        E 0 82 4d 64
        E 0 92 4f 64
        E 0 82 4f 64
        E 0 92 51 64
        E 0 82 51 64
        E 0 83 3e 64
        E 0 8f 3b 64
        E 0 92 53 64
        E 0 93 3e 5a
        E 0 98 4a 64
        E 0 9f 3b 5a
        E 0 82 53 64
        E 0 92 4a 64
        E 0 82 4a 64
        E 0 83 3e 64
        E 0 88 4a 64
        E 0 8f 3b 64
        E 0 92 48 64
        E 0 93 40 5a
        E 0 98 48 64
        E 0 9f 39 5a
        E 0 82 48 64
        E 0 92 45 64
        E 0 82 45 64
        E 0 92 47 64
        E 0 82 47 64
        E 0 83 40 64
        E 0 88 48 64
        E 0 8f 39 64
        E 0 92 48 64
        E 0 93 3c 5a
        E 0 98 48 64
        E 0 9f 39 5a
        E 0 82 48 64
        E 0 92 48 64
        E 0 82 48 64
        E 0 92 4a 64
        E 0 82 4a 64
        E 0 83 3c 64
        E 0 88 48 64
        E 0 8f 39 64
        E 0 92 4c 64
        E 0 93 3c 5a
        E 0 98 48 64
        E 0 9f 39 5a
        E 0 82 4c 64
        E 0 92 4e 64
        E 0 82 4e 64
        E 0 92 4f 64
        E 0 82 4f 64
        E 0 83 3c 64
        E 0 88 48 64
        E 0 8f 39 64
        E 0 92 51 64
        E 0 93 3c 5a
        E 0 98 47 64
        E 0 9f 39 5a
        E 0 82 51 64
        E 0 88 47 64
        E 0 92 48 64
        E 1 98 45 64
        E 0 82 48 64
        E 0 83 3c 64
        E 0 88 45 64
        E 0 8f 39 64
        E 0 92 43 64
        E 0 93 43 5a
        E 0 98 47 64
        E 0 9f 37 5a
        E 0 82 43 64
        E 0 83 43 64
        E 0 8f 37 64
        E 0 92 43 64
        E 0 93 43 5a
        E 0 9f 37 5a
        E 0 82 43 64
        E 0 83 43 64
        E 0 88 47 64
        E 0 8f 37 64
        E 0 92 42 64
        E 0 93 42 5a
        E 0 98 45 64
        E 0 9f 36 5a
        E 0 82 42 64
        E 0 83 42 64
        E 0 8f 36 64
        E 0 92 43 64
        E 0 93 43 5a
        E 0 9f 37 5a
        E 0 82 43 64
        E 0 83 43 64
        E 0 88 45 64
        E 0 8f 37 64
        E 0 92 37 64
        E 0 93 37 5a
        E 0 98 43 64
        E 0 9f 2b 5a
        E 0 82 37 64
        E 0 83 37 64
        E 0 8f 2b 64
        E 0 92 43 64
        E 0 93 43 5a
        E 0 9f 37 5a
        E 0 82 43 64
        E 0 83 43 64
        E 0 8f 37 64
        E 0 92 42 64
        E 0 93 42 5a
        E 0 9f 36 5a
        E 0 82 42 64
        E 0 83 42 64
        E 0 8f 36 64
        E 0 92 43 64
        E 0 93 43 5a
        E 0 9f 37 5a
        E 0 82 43 64
        E 0 83 43 64
        E 0 88 43 64
        E 0 8f 37 64
        E 0 92 37 64
        E 1 93 37 5a
        E 0 9f 2b 5a
        E 0 82 37 64
        E 0 83 37 64
        E 0 8f 2b 64
        E 0 92 48 64
        E 0 93 43 5a
        E 0 93 40 5a
        E 0 98 48 64
        E 0 83 43 64
        E 0 83 40 64
        E 0 93 43 5a
        E 0 93 40 5a
        E 0 83 43 64
        E 0 83 40 64
        E 0 93 43 5a
        E 0 93 40 5a
        E 0 83 43 64
        E 0 83 40 64
        E 0 93 46 5b
        E 0 93 43 5a
        E 0 83 46 66
        E 0 83 43 64
        E 0 88 48 64
        E 0 93 43 5a
        E 0 93 40 5a
        E 0 98 43 64
        E 0 83 43 64
        E 0 83 40 64
        E 0 93 43 5a
        E 0 93 40 5a
        E 0 83 43 64
        E 0 83 40 64
        E 0 88 43 64
        E 0 93 43 5a
        E 0 93 40 5a
        E 0 98 40 64
        E 0 83 43 64
        E 0 83 40 64
        E 0 93 46 5b
        E 0 93 43 5a
        E 0 83 46 66
        E 0 83 43 64
        E 0 88 40 64
        E 0 93 43 5a
        E 0 93 40 5a
        E 0 98 3c 64
        E 0 83 43 64
        E 0 83 40 64
        E 0 93 43 5a
        E 0 93 40 5a
        E 0 83 43 64
        E 0 83 40 64
        E 0 93 43 5a
        E 0 93 40 5a
        E 0 83 43 64
        E 0 83 40 64
        E 0 93 46 5b
        E 0 93 43 5a
        E 0 83 46 66
        E 0 83 43 64
        E 0 88 3c 64
        E 0 93 43 5a
        E 0 93 40 5a
        E 0 98 40 64
        E 0 83 43 64
        E 0 83 40 64
        E 0 93 43 5a
        E 0 93 40 5a
        E 0 83 43 64
        E 0 83 40 64
        E 0 88 40 64
        E 0 93 43 5a
        E 0 93 40 5a
        E 0 98 43 64
        E 0 83 43 64
        E 0 83 40 64
        E 0 93 46 5b
        E 0 93 43 5a
        E 0 82 48 64
        E 0 83 46 66
        E 0 83 43 64
        E 0 88 43 64
        E 0 92 4f 64
        E 1 93 43 5a
        E 0 93 40 5a
        E 0 98 48 64
        E 0 83 43 64
        E 0 83 40 64
        E 0 93 43 5a
        E 0 93 40 5a
        E 0 83 43 64
        E 0 83 40 64
        E 0 88 48 64
        E 0 93 43 5a
        E 0 93 40 5a
        E 0 98 48 64
        E 0 88 48 64
        E 0 98 4a 64
        E 0 83 43 64
        E 0 83 40 64
        E 0 88 4a 64
        E 0 93 46 5b
        E 0 93 43 5a
        E 0 98 4c 64
        E 0 88 4c 64
        E 0 98 4d 64
        E 0 83 46 66
        E 0 83 43 64
        E 0 88 4d 64
        E 0 93 43 5a
        E 0 93 40 5a
        E 0 98 4f 64
        E 0 83 43 64
        E 0 83 40 64
        E 0 93 43 5a
        E 0 93 40 5a
        E 0 83 43 64
        E 0 83 40 64
        E 0 88 4f 64
        E 0 93 43 5a
        E 0 93 40 5a
        E 0 98 4f 64
        E 0 88 4f 64
        E 0 98 4d 64
        E 0 83 43 64
        E 0 83 40 64
        E 0 88 4d 64
        E 0 93 46 5b
        E 0 93 43 5a
        E 0 98 4c 64
        E 0 88 4c 64
        E 0 98 4a 64
        E 0 88 4a 64
        E 0 98 48 64
        E 0 82 4f 64
        E 0 83 46 66
        E 0 83 43 64
        E 0 88 48 64
        E 0 92 46 66
        E 0 93 43 5a
        E 0 93 40 5a
        E 0 98 46 66
        E 1 83 43 64
        E 0 83 40 64
        E 0 93 43 5a
        E 0 93 40 5a
        E 0 83 43 64
        E 0 83 40 64
        E 0 93 43 5a
        E 0 93 40 5a
        E 0 83 43 64
        E 0 83 40 64
        E 0 93 46 5b
        E 0 93 43 5a
        E 0 83 46 66
        E 0 83 43 64
        E 0 93 43 5a
        E 0 93 40 5a
        E 0 83 43 64
        E 0 83 40 64
        E 0 93 43 5a
        E 0 93 40 5a
        E 0 83 43 64
        E 0 83 40 64
        E 0 88 46 66
        E 0 93 43 5a
        E 0 93 40 5a
        E 0 98 46 66
        E 0 83 43 64
        E 0 83 40 64
        E 0 93 46 5b
        E 0 93 43 5a
        E 0 82 46 66
        E 0 83 46 66
        E 0 83 43 64
        E 0 88 46 66
        E 0 92 41 64
        E 0 93 41 5a
        E 0 98 45 64
        E 0 9f 35 5a
        E 0 82 41 64
        E 0 83 41 64
        E 0 8f 35 64
        E 1 92 48 64
        E 0 93 48 5a
        E 0 9f 3c 5a
        E 0 82 48 64
        E 0 83 48 64
        E 0 88 45 64
        E 0 8f 3c 64
        E 0 92 46 66
        E 0 93 46 5b
        E 0 98 43 64
        E 0 9f 3a 5b
        E 0 82 46 66
        E 0 83 46 66
        E 0 8f 3a 66
        E 0 92 48 64
        E 0 93 48 5a
        E 0 9f 3c 5a
        E 0 82 48 64
        E 0 83 48 64
        E 0 88 43 64
        E 0 8f 3c 64
        E 0 92 41 64
        E 0 93 41 5a
        E 0 98 41 64
        E 0 9f 35 5a
        E 0 82 41 64
        E 0 83 41 64
        E 0 8f 35 64
        E 0 92 48 64
        E 0 93 48 5a
        E 0 9f 3c 5a
        E 0 82 48 64
        E 0 83 48 64
        E 0 8f 3c 64
        E 0 92 46 66
        E 0 93 46 5b
        E 0 9f 3a 5b
        E 0 82 46 66
        E 0 83 46 66
        E 0 8f 3a 66
        E 0 92 48 64
        E 0 93 48 5a
        E 0 9f 3c 5a
        E 0 82 48 64
        E 0 83 48 64
        E 0 88 41 64
        E 0 8f 3c 64
        E 0 92 41 64
        E 0 93 41 5a
        E 0 9f 35 5a
        E 0 82 41 64
        E 0 83 41 64
        E 0 8f 35 64
        E 0 92 48 64
        E 0 93 48 5a
        E 0 9f 3c 5a
        E 0 82 48 64
        E 0 83 48 64
        E 0 8f 3c 64
        E 0 92 46 66
        E 1 93 46 5b
        E 0 9f 3a 5b
        E 0 82 46 66
        E 0 83 46 66
        E 0 8f 3a 66
        E 0 92 48 64
        E 0 93 48 5a
        E 0 9f 3c 5a
        E 0 82 48 64
        E 0 83 48 64
        E 0 8f 3c 64
        E 0 92 41 64
        E 0 93 41 5a
        E 0 9f 35 5a
        E 0 82 41 64
        E 0 83 41 64
        E 0 8f 35 64
        E 0 92 4a 64
        E 0 93 45 5a
        E 0 93 42 5a
        E 0 98 4a 64
        E 0 83 45 64
        E 0 83 42 64
        E 0 93 45 5a
        E 0 93 42 5a
        E 0 83 45 64
        E 0 83 42 64
        E 0 93 45 5a
        E 0 93 42 5a
        E 0 83 45 64
        E 0 83 42 64
        E 0 93 48 5a
        E 0 93 45 5a
        E 0 83 48 64
        E 0 83 45 64
        E 0 88 4a 64
        E 0 93 45 5a
        E 0 93 42 5a
        E 0 98 45 64
        E 0 83 45 64
        E 0 83 42 64
        E 0 93 45 5a
        E 0 93 42 5a
        E 0 83 45 64
        E 0 83 42 64
        E 0 88 45 64
        E 0 93 45 5a
        E 0 93 42 5a
        E 0 98 42 64
        E 0 83 45 64
        E 0 83 42 64
        E 0 93 48 5a
        E 0 93 45 5a
        E 0 82 4a 64
        E 0 83 48 64
        E 0 83 45 64
        E 0 88 42 64
        E 0 92 4a 64
        E 0 93 45 5a
        E 0 93 42 5a
        E 0 98 3e 64
        E 0 83 45 64
        E 0 83 42 64
        E 1 93 45 5a
        E 0 93 42 5a
        E 0 83 45 64
        E 0 83 42 64
        E 0 93 45 5a
        E 0 93 42 5a
        E 0 83 45 64
        E 0 83 42 64
        E 0 93 48 5a
        E 0 93 45 5a
        E 0 83 48 64
        E 0 83 45 64
        E 0 88 3e 64
        E 0 93 45 5a
        E 0 93 42 5a
        E 0 98 42 64
        E 0 83 45 64
        E 0 83 42 64
        E 0 93 45 5a
        E 0 93 42 5a
        E 0 83 45 64
        E 0 83 42 64
        E 0 88 42 64
        E 0 93 45 5a
        E 0 93 42 5a
        E 0 98 45 64
        E 0 83 45 64
        E 0 83 42 64
        E 0 93 48 5a
        E 0 93 45 5a
        E 0 82 4a 64
        E 0 83 48 64
        E 0 83 45 64
        E 0 88 45 64
        E 0 92 51 64
        E 0 93 45 5a
        E 0 93 42 5a
        E 0 98 4a 64
        E 0 83 45 64
        E 0 83 42 64
        E 0 93 45 5a
        E 0 93 42 5a
        E 0 83 45 64
        E 0 83 42 64
        E 0 88 4a 64
        E 0 93 45 5a
        E 0 93 42 5a
        E 0 98 4a 64
        E 0 88 4a 64
        E 0 98 4c 64
        E 0 83 45 64
        E 0 83 42 64
        E 0 88 4c 64
        E 0 93 48 5a
        E 0 93 45 5a
        E 0 98 4e 64
        E 0 88 4e 64
        E 0 98 4f 64
        E 0 83 48 64
        E 0 83 45 64
        E 0 88 4f 64
        E 0 93 45 5a
        E 0 93 42 5a
        E 0 98 51 64
        E 0 83 45 64
        E 0 83 42 64
        E 0 93 45 5a
        E 0 93 42 5a
        E 0 83 45 64
        E 0 83 42 64
        E 0 88 51 64
        E 0 93 45 5a
        E 0 93 42 5a
        E 0 98 51 64
        E 0 88 51 64
        E 0 98 4f 64
        E 0 83 45 64
        E 0 83 42 64
        E 0 88 4f 64
        E 0 93 48 5a
        E 0 93 45 5a
        E 0 98 4e 64
        E 0 88 4e 64
        E 0 98 4c 64
        E 0 88 4c 64
        E 0 98 4a 64
        E 0 82 51 64
        E 0 83 48 64
        E 0 83 45 64
        E 0 88 4a 64
        E 0 92 48 64
        E 0 93 45 5a
        E 0 93 42 5a
        E 0 98 48 64
        E 0 83 45 64
        E 0 83 42 64
        E 0 93 45 5a
        E 1 93 42 5a
        E 0 83 45 64
        E 0 83 42 64
        E 0 93 45 5a
        E 0 93 42 5a
        E 0 83 45 64
        E 0 83 42 64
        E 0 93 48 5a
        E 0 93 45 5a
        E 0 83 48 64
        E 0 83 45 64
        E 0 93 45 5a
        E 0 93 42 5a
        E 0 83 45 64
        E 0 83 42 64
        E 0 93 45 5a
        E 0 93 42 5a
        E 0 83 45 64
        E 0 83 42 64
        E 0 88 48 64
        E 0 93 45 5a
        E 0 93 42 5a
        E 0 98 48 64
        E 0 83 45 64
        E 0 83 42 64
        E 0 93 48 5a
        E 0 93 45 5a
        E 0 82 48 64
        E 0 83 48 64
        E 0 83 45 64
        E 0 88 48 64
        E 0 92 47 64
        E 0 93 43 5a
        E 0 98 47 64
        E 0 9f 37 5a
        E 0 82 47 64
        E 0 83 43 64
        E 0 8f 37 64
        E 0 92 4a 64
        E 0 93 4a 5a
        E 0 9f 3e 5a
        E 0 82 4a 64
        E 0 83 4a 64
        E 0 88 47 64
        E 0 8f 3e 64
        E 0 92 48 64
        E 0 93 48 5a
        E 0 98 45 64
        E 0 9f 3c 5a
        E 0 82 48 64
        E 0 83 48 64
        E 0 8f 3c 64
        E 0 92 4a 64
        E 0 93 4a 5a
        E 0 9f 3e 5a
        E 0 82 4a 64
        E 0 83 4a 64
        E 0 88 45 64
        E 0 8f 3e 64
        E 0 92 43 64
        E 0 93 43 5a
        E 0 98 43 64
        E 0 9f 37 5a
        E 0 82 43 64
        E 0 83 43 64
        E 0 8f 37 64
        E 0 92 4a 64
        E 0 93 4a 5a
        E 0 9f 3e 5a
        E 0 82 4a 64
        E 0 83 4a 64
        E 0 8f 3e 64
        E 0 92 48 64
        E 0 93 48 5a
        E 0 9f 3c 5a
        E 0 82 48 64
        E 0 83 48 64
        E 0 8f 3c 64
        E 0 92 4a 64
        E 0 93 4a 5a
        E 0 9f 3e 5a
        E 0 82 4a 64
        E 0 83 4a 64
        E 0 88 43 64
        E 0 8f 3e 64
        E 0 92 43 64
        E 0 93 43 5a
        E 0 9f 37 5a
        E 0 82 43 64
        E 0 83 43 64
        E 0 8f 37 64
        E 0 92 4a 64
        E 0 93 4a 5a
        E 1 9f 3e 5a
        E 0 82 4a 64
        E 0 83 4a 64
        E 0 8f 3e 64
        E 0 92 48 64
        E 0 93 48 5a
        E 0 9f 3c 5a
        E 0 82 48 64
        E 0 83 48 64
        E 0 8f 3c 64
        E 0 92 4a 64
        E 0 93 4a 5a
        E 0 9f 3e 5a
        E 0 82 4a 64
        E 0 83 4a 64
        E 0 8f 3e 64
        E 0 92 43 64
        E 0 93 43 5a
        E 0 9f 37 5a
        E 0 82 43 64
        E 0 83 43 64
        E 0 8f 37 64
        E 0 92 51 64
        E 0 92 4f 64
        E 0 93 4a 5a
        E 0 98 4f 64
        E 0 9f 3b 5a
        E 0 82 4f 64
        E 0 92 4e 64
        E 0 82 4e 64
        E 0 92 4f 64
        E 0 82 51 64
        E 0 82 4f 64
        E 0 83 4a 64
        E 0 8f 3b 64
        E 0 92 51 64
        E 0 92 4f 64
        E 0 93 48 5a
        E 0 9f 39 5a
        E 0 82 4f 64
        E 0 92 4e 64
        E 0 82 4e 64
        E 0 92 4f 64
        E 0 82 51 64
        E 0 82 4f 64
        E 0 83 48 64
        E 0 88 4f 64
        E 0 8f 39 64
        E 0 92 51 64
        E 0 92 4f 64
        E 0 93 47 5a
        E 0 98 4f 64
        E 0 9f 37 5a
        E 0 82 4f 64
        E 0 92 4e 64
        E 0 82 4e 64
        E 0 92 4f 64
        E 0 82 51 64
        E 0 82 4f 64
        E 0 83 47 64
        E 0 8f 37 64
        E 0 92 51 64
        E 0 92 4f 64
        E 0 93 45 5a
        E 0 9f 36 5a
        E 0 82 4f 64
        E 0 88 4f 64
        E 0 92 4e 64
        E 0 98 4f 64
        E 0 82 4e 64
        E 0 92 4f 64
        E 0 82 51 64
        E 0 82 4f 64
        E 0 83 45 64
        E 0 88 4f 64
        E 0 8f 36 64
        E 0 92 4a 64
        E 0 92 48 64
        E 0 93 43 5a
        E 0 98 48 64
        E 0 9f 34 5a
        E 0 82 48 64
        E 0 92 47 64
        E 0 82 47 64
        E 0 92 48 64
        E 1 82 4a 64
        E 0 82 48 64
        E 0 83 43 64
        E 0 8f 34 64
        E 0 92 4a 64
        E 0 92 48 64
        E 0 93 42 5a
        E 0 9f 32 5a
        E 0 82 48 64
        E 0 92 47 64
        E 0 82 47 64
        E 0 92 48 64
        E 0 82 4a 64
        E 0 82 48 64
        E 0 83 42 64
        E 0 88 48 64
        E 0 8f 32 64
        E 0 92 4a 64
        E 0 92 48 64
        E 0 93 40 5a
        E 0 98 48 64
        E 0 9f 30 5a
        E 0 82 48 64
        E 0 92 47 64
        E 0 82 47 64
        E 0 92 48 64
        E 0 82 4a 64
        E 0 82 48 64
        E 0 83 40 64
        E 0 8f 30 64
        E 0 92 4a 64
        E 0 92 48 64
        E 0 93 3e 5a
        E 0 9f 2f 5a
        E 0 82 48 64
        E 0 92 47 64
        E 0 82 47 64
        E 0 92 48 64
        E 0 82 4a 64
        E 0 82 48 64
        E 0 83 3e 64
        E 0 88 48 64
        E 0 8f 2f 64
        E 0 92 43 64
        E 0 92 42 64
        E 0 93 3c 5a
        E 0 98 42 64
        E 1 9f 2d 5a
        E 0 82 42 64
        E 0 92 40 64
        E 0 82 40 64
        E 0 92 42 64
        E 0 82 43 64
        E 0 82 42 64
        E 0 83 3c 64
        E 0 8f 2d 64
        E 0 92 43 64
        E 0 92 42 64
        E 0 93 3b 5a
        E 0 9f 2b 5a
        E 0 82 42 64
        E 0 92 40 64
        E 0 82 40 64
        E 0 92 42 64
        E 0 82 43 64
        E 0 82 42 64
        E 0 83 3b 64
        E 0 8f 2b 64
        E 0 92 43 64
        E 0 92 42 64
        E 0 93 39 5a
        E 0 9f 2a 5a
        E 0 82 42 64
        E 0 92 40 64
        E 0 82 40 64
        E 0 92 42 64
        E 0 82 43 64
        E 0 82 42 64
        E 0 83 39 64
        E 0 8f 2a 64
        E 0 92 43 64
        E 0 92 42 64
        E 0 93 36 5a
        E 0 9f 26 5a
        E 0 82 42 64
        E 0 92 40 64
        E 0 82 40 64
        E 0 92 42 64
        E 0 82 43 64
        E 0 82 42 64
        E 0 83 36 64
        E 0 88 42 64
        E 0 8f 26 64
        E 0 92 43 64
        E 0 93 3e 5a
        E 1 98 43 64
        E 0 9f 2b 5a
        E 0 92 4a 64
        E 0 98 4a 64
        E 0 82 43 64
        E 0 88 43 64
        E 0 92 48 64
        E 0 98 48 64
        E 0 82 4a 64
        E 0 88 4a 64
        E 0 83 3e 64
        E 0 8f 2b 64
        E 0 92 47 64
        E 0 93 3e 5a
        E 0 98 47 64
        E 0 9f 2b 5a
        E 0 82 48 64
        E 0 88 48 64
        E 0 92 4a 64
        E 0 98 4a 64
        E 0 82 47 64
        E 0 88 47 64
        E 0 92 48 64
        E 0 98 48 64
        E 0 82 4a 64
        E 0 88 4a 64
        E 0 83 3e 64
        E 0 8f 2b 64
        E 0 92 47 64
        E 0 93 3e 5a
        E 0 98 47 64
        E 0 9f 2b 5a
        E 0 82 48 64
        E 0 88 48 64
        E 0 92 4a 64
        E 0 98 4a 64
        E 0 82 47 64
        E 0 88 47 64
        E 0 92 48 64
        E 0 98 48 64
        E 0 82 4a 64
        E 0 88 4a 64
        E 0 83 3e 64
        E 0 8f 2b 64
        E 0 92 47 64
        E 0 93 3e 5a
        E 0 98 47 64
        E 1 9f 2b 5a
        E 0 82 48 64
        E 0 88 48 64
        E 0 92 45 64
        E 0 98 45 64
        E 0 82 47 64
        E 0 88 47 64
        E 0 92 43 64
        E 0 98 43 64
        E 0 82 45 64
        E 0 88 45 64
        E 0 83 3e 64
        E 0 8f 2b 64
        E 0 92 45 64
        E 0 93 3e 5a
        E 0 98 45 64
        E 0 9f 32 5a
        E 0 82 43 64
        E 0 88 43 64
        E 0 92 48 64
        E 0 98 48 64
        E 0 82 45 64
        E 0 88 45 64
        E 0 92 47 64
        E 0 98 47 64
        E 0 82 48 64
        E 0 88 48 64
        E 0 83 3e 64
        E 0 8f 32 64
        E 0 92 45 64
        E 0 93 3e 5a
        E 0 98 45 64
        E 0 9f 32 5a
        E 0 82 47 64
        E 0 88 47 64
        E 0 92 48 64
        E 0 98 48 64
        E 0 82 45 64
        E 0 88 45 64
        E 0 92 47 64
        E 0 98 47 64
        E 0 82 48 64
        E 0 88 48 64
        E 0 83 3e 64
        E 0 8f 32 64
        E 0 92 45 64
        E 0 93 3e 5a
        E 0 98 45 64
        E 0 9f 32 5a
        E 0 82 47 64
        E 0 88 47 64
        E 1 92 48 64
        E 0 98 48 64
        E 0 82 45 64
        E 0 88 45 64
        E 0 92 47 64
        E 0 98 47 64
        E 0 82 48 64
        E 0 88 48 64
        E 0 83 3e 64
        E 0 8f 32 64
        E 0 92 45 64
        E 0 93 3e 5a
        E 0 98 45 64
        E 0 9f 32 5a
        E 0 82 47 64
        E 0 88 47 64
        E 0 92 43 64
        E 0 98 43 64
        E 0 82 45 64
        E 0 88 45 64
        E 0 92 42 64
        E 0 98 42 64
        E 0 82 43 64
        E 0 88 43 64
        E 0 83 3e 64
        E 0 8f 32 64
        E 0 92 47 64
        E 0 93 3e 5a
        E 0 98 47 64
        E 0 9f 2b 5a
        E 0 82 42 64
        E 0 88 42 64
        E 0 92 4a 64
        E 0 98 4a 64
        E 0 82 47 64
        E 0 88 47 64
        E 0 92 48 64
        E 0 98 48 64
        E 0 82 4a 64
        E 0 88 4a 64
        E 0 83 3e 64
        E 0 8f 2b 64
        E 0 92 47 64
        E 0 93 3e 5a
        E 0 98 47 64
        E 0 9f 2b 5a
        E 0 82 48 64
        E 0 88 48 64
        E 0 92 4a 64
        E 0 98 4a 64
        E 0 82 47 64
        E 0 88 47 64
        E 0 92 48 64
        E 0 98 48 64
        E 0 82 4a 64
        E 0 88 4a 64
        E 0 83 3e 64
        E 0 8f 2b 64
        E 0 92 47 64
        E 0 93 3e 5a
        E 0 98 47 64
        E 0 9f 2b 5a
        E 0 82 48 64
        E 0 88 48 64
        E 0 92 4a 64
        E 0 98 4a 64
        E 0 82 47 64
        E 0 88 47 64
        E 0 92 4c 64
        E 0 98 4c 64
        E 0 82 4a 64
        E 0 88 4a 64
        E 0 83 3e 64
        E 0 8f 2b 64
        E 0 92 4d 64
        E 0 93 3e 5a
        E 0 98 4d 64
        E 0 9f 2f 5a
        E 0 82 4c 64
        E 0 88 4c 64
        E 0 92 4c 64
        E 0 98 4c 64
        E 0 82 4d 64
        E 0 88 4d 64
        E 1 92 4a 64
        E 0 98 4a 64
        E 38403 82 4c 64
        E 0 88 4c 64
        E 0 83 3e 64
        E 0 8f 2f 64
        E 0 92 4c 64
        E 0 93 37 5a
        E 0 98 4c 64
        E 0 9f 30 5a
        E 0 82 4a 64
        E 0 88 4a 64
        E 0 92 4f 64
        E 0 98 4f 64
        E 0 82 4c 64
        E 0 88 4c 64
        E 0 92 4d 64
        E 0 98 4d 64
        E 0 82 4f 64
        E 0 88 4f 64
        E 0 83 37 64
        E 0 8f 30 64
        E 0 92 4c 64
        E 0 93 40 5a
        E 0 98 4c 64
        E 0 9f 30 5a
        E 0 82 4d 64
        E 0 88 4d 64
        E 0 92 4f 64
        E 0 98 4f 64
        E 0 82 4c 64
        E 0 88 4c 64
        E 0 92 4d 64
        E 0 98 4d 64
        E 0 82 4f 64
        E 0 88 4f 64
        E 0 83 40 64
        E 0 8f 30 64
        E 0 92 4c 64
        E 1 93 40 5a
        E 0 98 4c 64
        E 0 9f 2d 5a
        E 0 82 4d 64
        E 0 88 4d 64
        E 0 92 49 64
        E 0 98 49 64
        E 0 82 4c 64
        E 0 88 4c 64
        E 0 92 4a 64
        E 0 98 4a 64
        E 0 82 49 64
        E 0 88 49 64
        E 0 83 40 64
        E 0 8f 2d 64
        E 0 92 4c 64
        E 0 93 3d 5a
        E 0 98 4c 64
        E 0 9f 2d 5a
        E 0 82 4a 64
        E 0 88 4a 64
        E 0 92 4d 64
        E 0 98 4d 64
        E 0 82 4c 64
        E 0 88 4c 64
        E 0 92 4f 64
        E 0 98 4f 64
        E 0 82 4d 64
        E 0 88 4d 64
        E 0 83 3d 64
        E 0 8f 2d 64
        E 0 92 4e 64
        E 0 93 39 5a
        E 0 98 4e 64
        E 0 9f 32 5a
        E 0 82 4f 64
        E 0 88 4f 64
        E 0 92 51 64
        E 0 98 51 64
        E 0 82 4e 64
        E 0 88 4e 64
        E 0 92 4f 64
        E 0 98 4f 64
        E 0 82 51 64
        E 0 88 51 64
        E 1 83 39 64
        E 0 8f 32 64
        E 0 92 4e 64
        E 0 93 39 5a
        E 0 98 4e 64
        E 0 9f 32 5a
        E 0 82 4f 64
        E 0 88 4f 64
        E 0 92 51 64
        E 0 98 51 64
        E 0 82 4e 64
        E 0 88 4e 64
        E 0 92 4f 64
        E 0 98 4f 64
        E 0 82 51 64
        E 0 88 51 64
        E 0 83 39 64
        E 0 8f 32 64
        E 0 92 4e 64
        E 0 93 39 5a
        E 0 98 4e 64
        E 0 9f 32 5a
        E 0 82 4f 64
        E 0 88 4f 64
        E 0 92 4a 64
        E 0 98 4a 64
        E 0 82 4e 64
        E 0 88 4e 64
        E 0 92 4c 64
        E 0 98 4c 64
        E 0 82 4a 64
        E 0 88 4a 64
        E 0 83 39 64
        E 0 8f 32 64
        E 0 92 4e 64
        E 0 93 42 5a
        E 0 98 4e 64
        E 0 9f 32 5a
        E 0 82 4c 64
        E 0 88 4c 64
        E 0 92 4f 64
        E 0 98 4f 64
        E 0 82 4e 64
        E 0 88 4e 64
        E 0 92 51 64
        E 0 98 51 64
        E 0 82 4f 64
        E 0 88 4f 64
        E 0 83 42 64
        E 0 8f 32 64
        E 0 92 4f 64
        E 0 93 3e 5a
        E 0 98 4f 64
        E 0 9f 2b 5a
        E 0 82 51 64
        E 0 88 51 64
        E 0 92 4e 64
        E 0 98 4e 64
        E 0 82 4f 64
        E 0 88 4f 64
        E 0 92 4c 64
        E 0 98 4c 64
        E 0 82 4e 64
        E 0 88 4e 64
        E 0 83 3e 64
        E 0 8f 2b 64
        E 0 92 4a 64
        E 0 93 37 5a
        E 0 98 4a 64
        E 0 9f 2b 5a
        E 0 82 4c 64
        E 0 88 4c 64
        E 0 92 48 64
        E 1 98 48 64
        E 0 82 4a 64
        E 0 88 4a 64
        E 0 92 47 64
        E 0 98 47 64
        E 0 82 48 64
        E 0 88 48 64
        E 0 83 37 64
        E 0 8f 2b 64
        E 0 92 4c 64
        E 0 93 37 5a
        E 0 98 4c 64
        E 0 9f 30 5a
        E 0 82 47 64
        E 0 88 47 64
        E 0 92 4a 64
        E 0 98 4a 64
        E 0 82 4c 64
        E 0 88 4c 64
        E 0 92 48 64
        E 0 98 48 64
        E 0 82 4a 64
        E 0 88 4a 64
        E 0 83 37 64
        E 0 8f 30 64
        E 0 92 47 64
        E 0 93 40 5a
        E 0 98 47 64
        E 0 9f 30 5a
        E 0 82 48 64
        E 0 88 48 64
        E 0 92 45 64
        E 0 98 45 64
        E 0 82 47 64
        E 0 88 47 64
        E 0 92 43 64
        E 0 98 43 64
        E 0 82 45 64
        E 0 88 45 64
        E 0 83 40 64
        E 0 8f 30 64
        E 0 92 3e 64
        E 0 93 39 5a
        E 0 98 3e 64
        E 0 9f 32 5a
        E 0 82 43 64
        E 0 88 43 64
        E 0 92 42 64
        E 0 82 3e 64
        E 0 92 45 64
        E 0 82 42 64
        E 0 83 39 64
        E 0 8f 32 64
        E 0 92 3e 64
        E 0 93 39 5a
        E 0 9f 32 5a
        E 0 82 45 64
        E 0 92 42 64
        E 0 82 3e 64
        E 0 92 45 64
        E 0 82 42 64
        E 0 83 39 64
        E 0 88 3e 64
        E 0 8f 32 64
        E 0 92 3e 64
        E 0 93 39 5a
        E 0 9f 32 5a
        E 0 82 45 64
        E 0 92 42 64
        E 0 82 3e 64
        E 0 92 45 64
        E 0 82 42 64
        E 0 83 39 64
        E 0 8f 32 64
        E 0 92 3e 64
        E 0 93 39 5a
        E 0 9f 32 5a
        E 0 82 45 64
        E 0 92 42 64
        E 0 82 3e 64
        E 0 92 45 64
        E 0 82 42 64
        E 0 83 39 64
        E 0 8f 32 64
        E 0 92 47 64
        E 0 93 47 5a
        E 0 98 47 64
        E 0 9f 3b 5a
        E 0 82 45 64
        E 0 82 47 64
        E 0 83 47 64
        E 0 88 47 64
        E 0 8f 3b 64
        E 0 92 45 64
        E 0 93 45 5a
        E 0 98 45 64
        E 0 9f 39 5a
        E 0 82 45 64
        E 1 83 45 64
        E 0 88 45 64
        E 0 8f 39 64
        E 0 92 43 64
        E 0 93 43 5a
        E 0 98 43 64
        E 0 9f 37 5a
        E 0 82 43 64
        E 0 83 43 64
        E 0 88 43 64
        E 0 8f 37 64
        E 0 92 4a 64
        E 0 93 4a 5a
        E 0 98 4a 64
        E 0 9f 3e 5a
        E 0 82 4a 64
        E 0 83 4a 64
        E 0 88 4a 64
        E 0 8f 3e 64
        E 0 92 3e 64
        E 0 93 3e 5a
        E 1 98 3e 64
        E 0 9f 32 5a
        E 0 82 3e 64
        E 0 83 3e 64
        E 0 88 3e 64
        E 0 8f 32 64
        E 0 92 43 64
        E 0 93 37 5a
        E 0 98 43 64
        E 0 9f 2b 5a
        E 0 82 43 64
        E 0 92 43 64
        E 0 82 43 64
        E 0 92 42 64
        E 0 82 42 64
        E 0 92 43 64
        E 0 82 43 64
        E 0 83 37 64
        E 0 8f 2b 64
        E 0 92 47 64
        E 0 93 37 5a
        E 0 9f 2b 5a
        E 0 82 47 64
        E 0 92 43 64
        E 0 82 43 64
        E 1 92 42 64
        E 0 82 42 64
        E 0 92 43 64
        E 0 82 43 64
        E 0 83 37 64
        E 0 88 43 64
        E 0 8f 2b 64
        E 0 92 37 64
        E 0 93 37 5a
        E 0 9f 2b 5a
        E 0 82 37 64
        E 0 92 43 64
        E 0 82 43 64
        E 0 92 42 64
        E 0 82 42 64
        E 0 92 43 64
        E 0 82 43 64
        E 0 83 37 64
        E 0 8f 2b 64
        E 1 92 47 64
        E 0 93 37 5a
        E 0 9f 2b 5a
        E 0 82 47 64
        E 0 92 43 64
        E 0 82 43 64
        E 0 92 42 64
        E 0 82 42 64
        E 0 92 43 64
        E 0 82 43 64
        E 0 83 37 64
        E 0 8f 2b 64
        E 0 92 37 64
        E 0 93 37 5a
        E 0 9f 2b 5a
        E 0 82 37 64
        E 0 92 43 64
        E 0 82 43 64
        E 0 92 42 64
        E 0 82 42 64
        E 0 92 43 64
        E 0 82 43 64
        E 0 83 37 64
        E 0 8f 2b 64
        E 0 92 47 64
        E 0 93 37 5a
        E 0 9f 2b 5a
        E 0 82 47 64
        E 0 92 43 64
        E 0 82 43 64
        E 0 92 42 64
        E 0 82 42 64
        E 1 92 43 64
        E 0 82 43 64
        E 0 83 37 64
        E 0 8f 2b 64
        E 0 92 3c 64
        E 0 93 3c 5a
        E 0 9f 30 5a
        E 0 82 3c 64
        E 0 83 3c 64
        E 0 8f 30 64
        E 0 92 3e 64
        E 0 93 3e 5a
        E 0 9f 32 5a
        E 0 82 3e 64
        E 0 83 3e 64
        E 0 8f 32 64
        E 0 92 37 64
        E 0 93 37 5a
        E 0 9f 2b 5a
        E 0 82 37 64
        E 0 83 37 64
        E 0 8f 2b 64
        E 0 98 3e 64
        E 0 88 3e 64
        E 1 93 47 5a
        E 0 98 43 64
        E 0 9f 37 5a
        E 0 83 47 64
        E 0 8f 37 64
        E 0 93 47 5a
        E 0 9f 37 5a
        E 0 83 47 64
        E 0 8f 37 64
        E 0 93 47 5a
        E 0 9f 37 5a
        E 0 83 47 64
        E 0 8f 37 64
        E 0 93 4a 5a
        E 0 9f 3b 5a
        E 0 83 4a 64
        E 0 88 43 64
        E 0 8f 3b 64
        E 0 93 47 5a
        E 0 98 47 64
        E 0 9f 37 5a
        E 0 83 47 64
        E 0 8f 37 64
        E 0 93 47 5a
        E 0 9f 37 5a
        E 0 83 47 64
        E 0 8f 37 64
        E 0 93 47 5a
        E 0 9f 37 5a
        E 0 83 47 64
        E 0 8f 37 64
        E 0 93 4a 5a
        E 0 9f 3b 5a
        E 0 83 4a 64
        E 0 88 47 64
        E 0 8f 3b 64
        E 0 93 47 5a
        E 0 98 4a 64
        E 0 9f 37 5a
        E 0 83 47 64
        E 0 8f 37 64
        E 0 93 47 5a
        E 0 9f 37 5a
        E 0 83 47 64
        E 0 8f 37 64
        E 0 93 47 5a
        E 1 9f 37 5a
        E 0 83 47 64
        E 0 8f 37 64
        E 0 93 4a 5a
        E 0 9f 3b 5a
        E 0 83 4a 64
        E 0 88 4a 64
        E 0 8f 3b 64
        E 0 93 47 5a
        E 0 98 43 64
        E 0 9f 37 5a
        E 0 83 47 64
        E 0 8f 37 64
        E 0 92 4f 64
        E 0 93 47 5a
        E 0 9f 37 5a
        E 0 82 4f 64
        E 0 83 47 64
        E 0 8f 37 64
        E 0 92 51 64
        E 0 93 47 5a
        E 0 9f 37 5a
        E 0 82 51 64
        E 0 83 47 64
        E 0 8f 37 64
        E 0 92 4f 64
        E 0 93 4a 5a
        E 0 9f 3b 5a
        E 0 82 4f 64
        E 0 83 4a 64
        E 0 88 43 64
        E 0 8f 3b 64
        E 0 92 56 64
        E 0 93 45 5a
        E 0 98 45 64
        E 0 9f 36 5a
        E 0 83 45 64
        E 0 8f 36 64
        E 0 93 45 5a
        E 0 9f 36 5a
        E 0 82 56 64
        E 0 83 45 64
        E 0 8f 36 64
        E 0 92 4a 64
        E 0 93 45 5a
        E 0 9f 36 5a
        E 0 83 45 64
        E 0 8f 36 64
        E 0 93 48 5a
        E 0 9f 39 5a
        E 0 82 4a 64
        E 0 83 48 64
        E 0 88 45 64
        E 0 8f 39 64
        E 0 93 45 5a
        E 0 98 3e 64
        E 0 9f 36 5a
        E 0 83 45 64
        E 0 8f 36 64
        E 0 93 45 5a
        E 0 9f 36 5a
        E 0 83 45 64
        E 0 8f 36 64
        E 0 93 45 5a
        E 0 9f 36 5a
        E 0 83 45 64
        E 0 8f 36 64
        E 0 93 48 5a
        E 0 9f 39 5a
        E 0 83 48 64
        E 0 88 3e 64
        E 0 8f 39 64
        E 0 93 45 5a
        E 0 9f 36 5a
        E 0 83 45 64
        E 0 8f 36 64
        E 0 93 45 5a
        E 0 9f 36 5a
        E 0 83 45 64
        E 0 8f 36 64
        E 0 93 45 5a
        E 0 9f 36 5a
        E 0 83 45 64
        E 0 8f 36 64
        E 0 93 48 5a
        E 0 9f 39 5a
        E 0 83 48 64
        E 0 8f 39 64
        E 1 93 45 5a
        E 0 98 45 64
        E 0 9f 36 5a
        E 0 83 45 64
        E 0 8f 36 64
        E 0 92 4a 64
        E 0 93 45 5a
        E 0 9f 36 5a
        E 0 82 4a 64
        E 0 83 45 64
        E 0 8f 36 64
        E 0 92 4c 64
        E 0 93 45 5a
        E 0 9f 36 5a
        E 0 82 4c 64
        E 0 83 45 64
        E 0 8f 36 64
        E 0 92 4a 64
        E 0 93 48 5a
        E 0 9f 39 5a
        E 0 82 4a 64
        E 0 83 48 64
        E 0 88 45 64
        E 0 8f 39 64
        E 0 92 4f 64
        E 0 93 43 5a
        E 0 98 48 64
        E 0 9f 34 5a
        E 0 83 43 64
        E 0 8f 34 64
        E 0 93 43 5a
        E 0 9f 34 5a
        E 0 82 4f 64
        E 0 83 43 64
        E 0 8f 34 64
        E 0 92 43 64
        E 0 93 43 5a
        E 0 9f 34 5a
        E 0 83 43 64
        E 0 8f 34 64
        E 0 93 48 5a
        E 0 9f 37 5a
        E 0 82 43 64
        E 0 83 48 64
        E 0 88 48 64
        E 0 8f 37 64
        E 0 93 43 5a
        E 0 98 4c 64
        E 0 9f 34 5a
        E 0 83 43 64
        E 0 8f 34 64
        E 0 93 43 5a
        E 0 9f 34 5a
        E 0 83 43 64
        E 0 8f 34 64
        E 0 93 43 5a
        E 0 9f 34 5a
        E 0 83 43 64
        E 0 8f 34 64
        E 0 93 48 5a
        E 0 9f 37 5a
        E 0 83 48 64
        E 0 88 4c 64
        E 0 8f 37 64
        E 0 93 43 5a
        E 0 98 48 64
        E 0 9f 34 5a
        E 0 83 43 64
        E 0 8f 34 64
        E 0 93 43 5a
        E 0 9f 34 5a
        E 0 83 43 64
        E 0 8f 34 64
        E 0 93 43 5a
        E 0 9f 34 5a
        E 0 83 43 64
        E 0 8f 34 64
        E 0 93 48 5a
        E 1 9f 37 5a
        E 0 83 48 64
        E 0 88 48 64
        E 0 8f 37 64
        E 0 93 43 5a
        E 0 98 43 64
        E 0 9f 34 5a
        E 0 83 43 64
        E 0 8f 34 64
        E 0 92 4f 64
        E 0 93 43 5a
        E 0 9f 34 5a
        E 0 82 4f 64
        E 0 83 43 64
        E 0 8f 34 64
        E 0 92 51 64
        E 0 93 43 5a
        E 0 9f 34 5a
        E 0 82 51 64
        E 0 83 43 64
        E 0 8f 34 64
        E 0 92 4f 64
        E 0 93 48 5a
        E 0 9f 37 5a
        E 0 82 4f 64
        E 0 83 48 64
        E 0 88 43 64
        E 0 8f 37 64
        E 0 92 56 64
        E 0 93 42 5a
        E 0 98 42 64
        E 0 9f 32 5a
        E 0 88 42 64
        E 0 98 40 64
        E 0 88 40 64
        E 0 98 3e 64
        E 0 82 56 64
        E 0 83 42 64
        E 0 88 3e 64
        E 0 8f 32 64
        E 0 92 44 64
        E 0 93 3b 5a
        E 0 98 47 64
        E 0 9f 34 5a
        E 0 82 44 64
        E 0 92 44 64
        E 0 82 44 64
        E 0 92 45 64
        E 0 82 45 64
        E 0 83 3b 64
        E 0 88 47 64
        E 0 8f 34 64
        E 0 92 47 64
        E 0 93 3b 5a
        E 0 98 47 64
        E 0 9f 34 5a
        E 0 82 47 64
        E 0 88 47 64
        E 0 92 47 64
        E 0 98 48 64
        E 0 82 47 64
        E 0 92 48 64
        E 0 82 48 64
        E 0 83 3b 64
        E 0 88 48 64
        E 0 8f 34 64
        E 0 92 4a 64
        E 0 93 3b 5a
        E 0 98 4a 64
        E 0 9f 34 5a
        E 0 82 4a 64
        E 0 92 50 64
        E 0 82 50 64
        E 0 92 51 64
        E 0 82 51 64
        E 0 83 3b 64
        E 0 88 4a 64
        E 0 8f 34 64
        E 0 92 53 64
        E 0 93 3b 5a
        E 0 98 47 64
        E 0 9f 38 5a
        E 0 82 53 64
        E 0 92 4a 64
        E 0 82 4a 64
        E 0 83 3b 64
        E 0 88 47 64
        E 0 8f 38 64
        E 0 92 48 64
        E 0 93 40 5a
        E 0 98 48 64
        E 0 9f 39 5a
        E 0 82 48 64
        E 0 92 45 64
        E 0 82 45 64
        E 0 92 47 64
        E 0 82 47 64
        E 0 83 40 64
        E 0 88 48 64
        E 0 8f 39 64
        E 0 92 48 64
        E 0 93 40 5a
        E 0 98 45 64
        E 0 9f 2d 5a
        E 0 82 48 64
        E 0 92 48 64
        E 0 82 48 64
        E 0 92 4a 64
        E 0 82 4a 64
        E 0 83 40 64
        E 0 88 45 64
        E 0 8f 2d 64
        E 0 92 4c 64
        E 1 93 40 5a
        E 0 9f 2d 5a
        E 0 82 4c 64
        E 0 92 4e 64
        E 0 82 4e 64
        E 0 92 50 64
        E 0 82 50 64
        E 0 83 40 64
        E 0 8f 2d 64
        E 0 92 51 64
        E 0 93 3c 5a
        E 0 98 48 64
        E 0 9f 2d 5a
        E 0 82 51 64
        E 0 92 45 64
        E 0 82 45 64
        E 0 83 3c 64
        E 0 88 48 64
        E 0 8f 2d 64
        E 0 92 42 64
        E 0 93 39 5a
        E 0 98 3e 64
        E 0 9f 32 5a
        E 0 82 42 64
        E 0 92 42 64
        E 0 82 42 64
        E 0 92 43 64
        E 0 82 43 64
        E 0 83 39 64
        E 0 88 3e 64
        E 0 8f 32 64
        E 0 92 45 64
        E 0 93 39 5a
        E 0 98 42 64
        E 0 9f 32 5a
        E 0 82 45 64
        E 0 92 45 64
        E 0 82 45 64
        E 0 92 47 64
        E 0 82 47 64
        E 0 83 39 64
        E 0 88 42 64
        E 0 8f 32 64
        E 0 92 48 64
        E 0 93 39 5a
        E 0 98 45 64
        E 0 9f 32 5a
        E 0 82 48 64
        E 0 92 4e 64
        E 0 82 4e 64
        E 0 92 4f 64
        E 0 82 4f 64
        E 0 83 39 64
        E 0 88 45 64
        E 0 8f 32 64
        E 0 92 51 64
        E 0 93 42 5a
        E 0 98 48 64
        E 0 9f 32 5a
        E 0 82 51 64
        E 0 92 48 64
        E 0 82 48 64
        E 0 83 42 64
        E 0 88 48 64
        E 0 8f 32 64
        E 0 92 37 64
        E 0 93 37 5a
        E 0 98 47 64
        E 0 9f 2b 5a
        E 0 82 37 64
        E 0 83 37 64
        E 0 8f 2b 64
        E 1 92 43 64
        E 0 93 43 5a
        E 0 9f 37 5a
        E 0 82 43 64
        E 0 83 43 64
        E 0 88 47 64
        E 0 8f 37 64
        E 0 92 42 64
        E 0 93 42 5a
        E 0 98 45 64
        E 0 9f 36 5a
        E 0 82 42 64
        E 0 83 42 64
        E 0 8f 36 64
        E 0 92 43 64
        E 0 93 43 5a
        E 0 9f 37 5a
        E 0 82 43 64
        E 0 83 43 64
        E 0 88 45 64
        E 0 8f 37 64
        E 0 92 37 64
        E 0 93 37 5a
        E 0 98 43 64
        E 0 9f 2b 5a
        E 0 82 37 64
        E 0 83 37 64
        E 0 8f 2b 64
        E 0 92 43 64
        E 0 93 43 5a
        E 0 9f 37 5a
        E 0 82 43 64
        E 0 83 43 64
        E 0 8f 37 64
        E 0 92 42 64
        E 0 93 42 5a
        E 0 9f 36 5a
        E 0 82 42 64
        E 0 83 42 64
        E 0 8f 36 64
        E 0 92 43 64
        E 0 93 43 5a
        E 0 9f 37 5a
        E 0 82 43 64
        E 0 83 43 64
        E 0 88 43 64
        E 0 8f 37 64
        E 0 92 37 64
        E 0 93 37 5a
        E 0 9f 2b 5a
        E 0 82 37 64
        E 0 83 37 64
        E 0 8f 2b 64
        E 0 92 43 64
        E 0 93 43 5a
        E 0 9f 37 5a
        E 0 82 43 64
        E 0 83 43 64
        E 0 8f 37 64
        E 0 92 42 64
        E 0 93 42 5a
        E 0 9f 36 5a
        E 0 82 42 64
        E 0 83 42 64
        E 0 8f 36 64
        E 0 92 43 64
        E 0 93 43 5a
        E 1 9f 37 5a
        E 0 82 43 64
        E 0 83 43 64
        E 0 8f 37 64
        E 0 92 37 64
        E 0 93 37 5a
        E 0 9f 2b 5a
        E 0 82 37 64
        E 0 83 37 64
        E 0 8f 2b 64
        E 0 92 48 64
        E 0 93 43 5a
        E 0 93 40 5a
        E 0 98 3c 64
        E 0 83 43 64
        E 0 83 40 64
        E 0 93 43 5a
        E 0 93 40 5a
        E 0 83 43 64
        E 0 83 40 64
        E 0 93 43 5a
        E 0 93 40 5a
        E 0 83 43 64
        E 0 83 40 64
        E 0 93 46 5b
        E 0 93 43 5a
        E 0 83 46 66
        E 0 83 43 64
        E 0 88 3c 64
        E 0 93 43 5a
        E 0 93 40 5a
        E 0 98 40 64
        E 0 83 43 64
        E 0 83 40 64
        E 0 93 43 5a
        E 0 93 40 5a
        E 0 83 43 64
        E 0 83 40 64
        E 0 88 40 64
        E 0 93 43 5a
        E 0 93 40 5a
        E 0 98 43 64
        E 0 83 43 64
        E 0 83 40 64
        E 0 93 46 5b
        E 0 93 43 5a
        E 38404 82 48 64
        E 0 83 46 66
        E 0 83 43 64
        E 0 88 43 64
        E 0 92 4f 64
        E 0 93 43 5a
        E 0 93 40 5a
        E 0 98 48 64
        E 0 83 43 64
        E 0 83 40 64
        E 0 93 43 5a
        E 0 93 40 5a
        E 0 83 43 64
        E 0 83 40 64
        E 0 88 48 64
        E 0 93 43 5a
        E 0 93 40 5a
        E 0 98 48 64
        E 0 88 48 64
        E 1 98 4a 64
        E 0 83 43 64
        E 0 83 40 64
        E 0 88 4a 64
        E 0 93 46 5b
        E 0 93 43 5a
        E 0 98 4c 64
        E 0 88 4c 64
        E 0 98 4d 64
        E 0 83 46 66
        E 0 83 43 64
        E 0 88 4d 64
        E 0 93 43 5a
        E 0 93 40 5a
        E 0 98 4f 64
        E 0 83 43 64
        E 0 83 40 64
        E 0 93 43 5a
        E 0 93 40 5a
        E 0 83 43 64
        E 0 83 40 64
        E 0 88 4f 64
        E 0 93 43 5a
        E 0 93 40 5a
        E 0 98 4f 64
        E 0 88 4f 64
        E 0 98 4d 64
        E 0 83 43 64
        E 0 83 40 64
        E 0 88 4d 64
        E 0 93 46 5b
        E 0 93 43 5a
        E 0 98 4c 64
        E 0 88 4c 64
        E 0 98 4a 64
        E 0 88 4a 64
        E 0 98 48 64
        E 0 82 4f 64
        E 0 83 46 66
        E 0 83 43 64
        E 0 88 48 64
        E 0 92 46 66
        E 0 93 43 5a
        E 0 93 40 5a
        E 0 98 46 66
        E 0 83 43 64
        E 0 83 40 64
        E 0 93 43 5a
        E 0 93 40 5a
        E 0 83 43 64
        E 0 83 40 64
        E 0 93 43 5a
        E 0 93 40 5a
        E 0 83 43 64
        E 0 83 40 64
        E 0 93 46 5b
        E 0 93 43 5a
        E 0 83 46 66
        E 0 83 43 64
        E 0 93 43 5a
        E 0 93 40 5a
        E 0 83 43 64
        E 0 83 40 64
        E 1 93 43 5a
        E 0 93 40 5a
        E 0 83 43 64
        E 0 83 40 64
        E 0 88 46 66
        E 0 93 43 5a
        E 0 93 40 5a
        E 0 98 46 66
        E 0 83 43 64
        E 0 83 40 64
        E 0 93 46 5b
        E 0 93 43 5a
        E 0 82 46 66
        E 0 83 46 66
        E 0 83 43 64
        E 0 88 46 66
        E 0 92 41 64
        E 0 93 41 5a
        E 0 98 45 64
        E 0 9f 35 5a
        E 0 82 41 64
        E 0 83 41 64
        E 0 8f 35 64
        E 0 92 48 64
        E 0 93 48 5a
        E 0 9f 3c 5a
        E 0 82 48 64
        E 0 83 48 64
        E 0 88 45 64
        E 0 8f 3c 64
        E 0 92 46 66
        E 0 93 46 5b
        E 0 98 43 64
        E 0 9f 3a 5b
        E 0 82 46 66
        E 0 83 46 66
        E 0 8f 3a 66
        E 0 92 48 64
        E 0 93 48 5a
        E 0 9f 3c 5a
        E 0 82 48 64
        E 0 83 48 64
        E 0 88 43 64
        E 0 8f 3c 64
        E 0 92 41 64
        E 0 93 41 5a
        E 0 98 41 64
        E 1 9f 35 5a
        E 0 82 41 64
        E 0 83 41 64
        E 0 8f 35 64
        E 0 92 48 64
        E 0 93 48 5a
        E 0 9f 3c 5a
        E 0 82 48 64
        E 0 83 48 64
        E 0 8f 3c 64
        E 0 92 46 66
        E 0 93 46 5b
        E 0 9f 3a 5b
        E 0 82 46 66
        E 0 83 46 66
        E 0 8f 3a 66
        E 0 92 48 64
        E 0 93 48 5a
        E 0 9f 3c 5a
        E 0 82 48 64
        E 0 83 48 64
        E 0 88 41 64
        E 0 8f 3c 64
        E 0 92 41 64
        E 0 93 41 5a
        E 0 9f 35 5a
        E 0 82 41 64
        E 0 83 41 64
        E 0 8f 35 64
        E 0 92 48 64
        E 0 93 48 5a
        E 0 9f 3c 5a
        E 0 82 48 64
        E 0 83 48 64
        E 0 8f 3c 64
        E 0 92 46 66
        E 0 93 46 5b
        E 0 9f 3a 5b
        E 0 82 46 66
        E 0 83 46 66
        E 0 8f 3a 66
        E 0 92 48 64
        E 0 93 48 5a
        E 0 9f 3c 5a
        E 0 82 48 64
        E 0 83 48 64
        E 0 8f 3c 64
        E 0 92 41 64
        E 0 93 41 5a
        E 0 9f 35 5a
        E 0 82 41 64
        E 0 83 41 64
        E 0 8f 35 64
        E 0 92 4a 64
        E 0 93 45 5a
        E 0 93 42 5a
        E 0 98 3e 64
        E 0 83 45 64
        E 0 83 42 64
        E 0 93 45 5a
        E 0 93 42 5a
        E 0 83 45 64
        E 0 83 42 64
        E 0 93 45 5a
        E 0 93 42 5a
        E 0 83 45 64
        E 0 83 42 64
        E 0 93 48 5a
        E 0 93 45 5a
        E 1 83 48 64
        E 0 83 45 64
        E 0 88 3e 64
        E 0 93 45 5a
        E 0 93 42 5a
        E 0 98 42 64
        E 0 83 45 64
        E 0 83 42 64
        E 0 93 45 5a
        E 0 93 42 5a
        E 0 83 45 64
        E 0 83 42 64
        E 0 88 42 64
        E 0 93 45 5a
        E 0 93 42 5a
        E 0 98 45 64
        E 0 83 45 64
        E 0 83 42 64
        E 0 93 48 5a
        E 0 93 45 5a
        E 0 82 4a 64
        E 0 83 48 64
        E 0 83 45 64
        E 0 88 45 64
        E 0 92 51 64
        E 0 93 45 5a
        E 0 93 42 5a
        E 0 98 4a 64
        E 0 83 45 64
        E 0 83 42 64
        E 0 93 45 5a
        E 0 93 42 5a
        E 0 83 45 64
        E 0 83 42 64
        E 0 88 4a 64
        E 0 93 45 5a
        E 0 93 42 5a
        E 0 98 4a 64
        E 0 88 4a 64
        E 0 98 4c 64
        E 0 83 45 64
        E 0 83 42 64
        E 0 88 4c 64
        E 0 93 48 5a
        E 0 93 45 5a
        E 0 98 4e 64
        E 0 88 4e 64
        E 0 98 4f 64
        E 0 83 48 64
        E 0 83 45 64
        E 0 88 4f 64
        E 0 93 45 5a
        E 0 93 42 5a
        E 0 98 51 64
        E 0 83 45 64
        E 0 83 42 64
        E 0 93 45 5a
        E 0 93 42 5a
        E 0 83 45 64
        E 0 83 42 64
        E 0 88 51 64
        E 0 93 45 5a
        E 0 93 42 5a
        E 0 98 51 64
        E 0 88 51 64
        E 0 98 4f 64
        E 0 83 45 64
        E 0 83 42 64
        E 0 88 4f 64
        E 0 93 48 5a
        E 0 93 45 5a
        E 0 98 4e 64
        E 0 88 4e 64
        E 0 98 4c 64
        E 0 88 4c 64
        E 0 98 4a 64
        E 0 82 51 64
        E 0 83 48 64
        E 0 83 45 64
        E 0 88 4a 64
        E 0 92 48 64
        E 0 93 45 5a
        E 0 93 42 5a
        E 0 98 48 64
        E 0 83 45 64
        E 0 83 42 64
        E 0 93 45 5a
        E 0 93 42 5a
        E 0 83 45 64
        E 0 83 42 64
        E 0 93 45 5a
        E 0 93 42 5a
        E 0 83 45 64
        E 0 83 42 64
        E 0 93 48 5a
        E 0 93 45 5a
        E 0 83 48 64
        E 0 83 45 64
        E 0 93 45 5a
        E 0 93 42 5a
        E 0 83 45 64
        E 0 83 42 64
        E 0 93 45 5a
        E 0 93 42 5a
        E 0 83 45 64
        E 0 83 42 64
        E 0 88 48 64
        E 1 93 45 5a
        E 0 93 42 5a
        E 0 98 48 64
        E 0 83 45 64
        E 0 83 42 64
        E 0 93 48 5a
        E 0 93 45 5a
        E 0 82 48 64
        E 0 83 48 64
        E 0 83 45 64
        E 0 88 48 64
        E 0 92 43 64
        E 0 93 43 5a
        E 0 98 47 64
        E 0 9f 37 5a
        E 0 82 43 64
        E 0 83 43 64
        E 0 8f 37 64
        E 0 92 4a 64
        E 0 93 4a 5a
        E 0 9f 3e 5a
        E 0 82 4a 64
        E 0 83 4a 64
        E 0 88 47 64
        E 0 8f 3e 64
        E 0 92 48 64
        E 0 93 48 5a
        E 0 98 45 64
        E 0 9f 3c 5a
        E 0 82 48 64
        E 0 83 48 64
        E 0 8f 3c 64
        E 0 92 4a 64
        E 0 93 4a 5a
        E 0 9f 3e 5a
        E 0 82 4a 64
        E 0 83 4a 64
        E 0 88 45 64
        E 0 8f 3e 64
        E 0 92 43 64
        E 0 93 43 5a
        E 0 98 43 64
        E 0 9f 37 5a
        E 0 82 43 64
        E 0 83 43 64
        E 0 8f 37 64
        E 0 92 4a 64
        E 0 93 4a 5a
        E 0 9f 3e 5a
        E 0 82 4a 64
        E 0 83 4a 64
        E 0 8f 3e 64
        E 0 92 48 64
        E 0 93 48 5a
        E 1 9f 3c 5a
        E 0 82 48 64
        E 0 83 48 64
        E 0 8f 3c 64
        E 0 92 4a 64
        E 0 93 4a 5a
        E 0 9f 3e 5a
        E 0 82 4a 64
        E 0 83 4a 64
        E 0 88 43 64
        E 0 8f 3e 64
        E 0 92 43 64
        E 0 93 43 5a
        E 0 9f 37 5a
        E 0 82 43 64
        E 0 83 43 64
        E 0 8f 37 64
        E 0 92 4a 64
        E 0 93 4a 5a
        E 0 9f 3e 5a
        E 0 82 4a 64
        E 0 83 4a 64
        E 0 8f 3e 64
        E 0 92 48 64
        E 0 93 48 5a
        E 0 9f 3c 5a
        E 0 82 48 64
        E 0 83 48 64
        E 0 8f 3c 64
        E 0 92 4a 64
        E 0 93 4a 5a
        E 0 9f 3e 5a
        E 0 82 4a 64
        E 0 83 4a 64
        E 0 8f 3e 64
        E 0 92 43 64
        E 0 93 43 5a
        E 0 9f 37 5a
        E 0 82 43 64
        E 0 83 43 64
        E 0 8f 37 64
        E 0 92 51 64
        E 0 92 4f 64
        E 0 93 4c 5a
        E 0 98 4f 64
        E 0 9f 3c 5a
        E 0 82 4f 64
        E 0 92 4e 64
        E 0 82 4e 64
        E 0 92 4f 64
        E 0 82 51 64
        E 0 82 4f 64
        E 0 83 4c 64
        E 0 8f 3c 64
        E 0 92 51 64
        E 0 92 4f 64
        E 0 93 4a 5a
        E 0 9f 3b 5a
        E 0 82 4f 64
        E 0 92 4e 64
        E 0 82 4e 64
        E 0 92 4f 64
        E 0 82 51 64
        E 0 82 4f 64
        E 0 83 4a 64
        E 0 88 4f 64
        E 0 8f 3b 64
        E 0 92 51 64
        E 0 92 4f 64
        E 0 93 48 5a
        E 0 98 4f 64
        E 0 9f 39 5a
        E 0 82 4f 64
        E 0 92 4e 64
        E 0 82 4e 64
        E 0 92 4f 64
        E 0 82 51 64
        E 0 82 4f 64
        E 0 83 48 64
        E 0 8f 39 64
        E 0 92 51 64
        E 0 92 4f 64
        E 0 93 47 5a
        E 0 9f 37 5a
        E 0 82 4f 64
        E 0 88 4f 64
        E 0 92 4e 64
        E 0 98 4f 64
        E 0 82 4e 64
        E 0 92 4f 64
        E 0 82 51 64
        E 0 82 4f 64
        E 0 83 47 64
        E 0 88 4f 64
        E 0 8f 37 64
        E 0 92 4a 64
        E 0 92 48 64
        E 0 93 45 5a
        E 0 98 48 64
        E 0 9f 35 5a
        E 0 82 48 64
        E 0 92 47 64
        E 0 82 47 64
        E 0 92 48 64
        E 0 82 4a 64
        E 0 82 48 64
        E 0 83 45 64
        E 0 8f 35 64
        E 1 92 4a 64
        E 0 92 48 64
        E 0 93 43 5a
        E 0 9f 34 5a
        E 0 82 48 64
        E 0 92 47 64
        E 0 82 47 64
        E 0 92 48 64
        E 0 82 4a 64
        E 0 82 48 64
        E 0 83 43 64
        E 0 88 48 64
        E 0 8f 34 64
        E 0 92 4a 64
        E 0 92 48 64
        E 0 93 41 5a
        E 0 98 48 64
        E 0 9f 32 5a
        E 0 82 48 64
        E 0 92 47 64
        E 0 82 47 64
        E 0 92 48 64
        E 0 82 4a 64
        E 0 82 48 64
        E 0 83 41 64
        E 0 8f 32 64
        E 0 92 4a 64
        E 0 92 48 64
        E 0 93 40 5a
        E 0 9f 30 5a
        E 0 82 48 64
        E 0 92 47 64
        E 0 82 47 64
        E 0 92 48 64
        E 0 82 4a 64
        E 0 82 48 64
        E 0 83 40 64
        E 0 88 48 64
        E 0 8f 30 64
        E 0 92 43 64
        E 0 92 41 64
        E 0 93 3e 5a
        E 0 98 41 64
        E 0 9f 2f 5a
        E 0 82 41 64
        E 0 92 40 64
        E 0 82 40 64
        E 0 92 41 64
        E 0 82 43 64
        E 0 82 41 64
        E 0 83 3e 64
        E 0 8f 2f 64
        E 0 92 43 64
        E 0 92 41 64
        E 0 93 3c 5a
        E 0 9f 2d 5a
        E 0 82 41 64
        E 0 92 40 64
        E 0 82 40 64
        E 0 92 41 64
        E 0 82 43 64
        E 0 82 41 64
        E 0 83 3c 64
        E 0 8f 2d 64
        E 0 92 43 64
        E 0 92 41 64
        E 0 93 3b 5a
        E 0 9f 2b 5a
        E 0 82 41 64
        E 0 92 40 64
        E 0 82 40 64
        E 0 92 41 64
        E 0 82 43 64
        E 0 82 41 64
        E 0 83 3b 64
        E 0 8f 2b 64
        E 0 92 43 64
        E 0 92 41 64
        E 0 93 3e 5a
        E 0 9f 2f 5a
        E 0 82 41 64
        E 0 92 40 64
        E 0 82 40 64
        E 0 92 41 64
        E 0 82 43 64
        E 0 82 41 64
        E 0 83 3e 64
        E 0 88 41 64
        E 0 8f 2f 64
        E 1 92 40 64
        E 0 93 37 5a
        E 0 98 40 64
        E 0 9f 30 5a
        E 0 92 48 64
        E 0 98 48 64
        E 0 82 40 64
        E 0 88 40 64
        E 0 92 47 64
        E 0 98 47 64
        E 0 82 48 64
        E 0 88 48 64
        E 0 83 37 64
        E 0 8f 30 64
        E 0 92 48 64
        E 0 93 43 5a
        E 0 98 48 64
        E 0 9f 30 5a
        E 0 82 47 64
        E 0 88 47 64
        E 0 92 4c 64
        E 0 98 4c 64
        E 0 82 48 64
        E 0 88 48 64
        E 0 92 4a 64
        E 0 98 4a 64
        E 0 82 4c 64
        E 0 88 4c 64
        E 0 83 43 64
        E 0 8f 30 64
        E 0 92 48 64
        E 0 93 43 5a
        E 0 98 48 64
        E 0 9f 30 5a
        E 0 82 4a 64
        E 0 88 4a 64
        E 1 98 46 66
        E 0 88 48 64
        E 0 98 45 64
        E 0 88 46 66
        E 0 82 48 64
        E 0 83 43 64
        E 0 8f 30 64
        E 0 92 46 66
        E 0 93 40 5a
        E 0 98 43 64
        E 0 9f 35 5a
        E 0 88 45 64
        E 0 98 45 64
        E 0 88 43 64
        E 0 98 46 66
        E 0 88 45 64
        E 0 82 46 66
        E 0 83 40 64
        E 0 8f 35 64
        E 0 92 45 64
        E 0 93 3c 5a
        E 0 98 45 64
        E 0 9f 35 5a
        E 0 88 46 66
        E 0 92 48 64
        E 0 98 48 64
        E 0 82 45 64
        E 0 88 45 64
        E 0 92 46 66
        E 0 98 47 64
        E 0 82 48 64
        E 0 88 48 64
        E 0 83 3c 64
        E 0 8f 35 64
        E 0 92 45 64
        E 0 93 3c 5a
        E 0 98 45 64
        E 0 9f 35 5a
        E 0 82 46 66
        E 0 88 47 64
        E 1 92 4d 64
        E 0 98 4d 64
        E 0 82 45 64
        E 0 88 45 64
        E 0 92 4c 64
        E 0 98 4c 64
        E 0 82 4d 64
        E 0 88 4d 64
        E 0 83 3c 64
        E 0 8f 35 64
        E 0 92 4a 64
        E 0 93 45 5a
        E 0 98 4a 64
        E 0 9f 36 5a
        E 0 82 4c 64
        E 0 88 4c 64
        E 0 98 48 64
        E 0 88 4a 64
        E 0 98 47 64
        E 0 88 48 64
        E 0 82 4a 64
        E 0 83 45 64
        E 0 8f 36 64
        E 0 92 48 64
        E 0 93 45 5a
        E 0 98 45 64
        E 0 9f 36 5a
        E 0 88 47 64
        E 0 98 47 64
        E 0 88 45 64
        E 0 98 48 64
        E 0 88 47 64
        E 0 82 48 64
        E 0 83 45 64
        E 0 8f 36 64
        E 0 92 47 64
        E 0 93 3e 5a
        E 0 98 47 64
        E 0 9f 37 5a
        E 1 88 48 64
        E 0 92 4a 64
        E 0 98 4a 64
        E 0 82 47 64
        E 0 88 47 64
        E 0 92 48 64
        E 0 98 48 64
        E 0 82 4a 64
        E 0 88 4a 64
        E 0 83 3e 64
        E 0 8f 37 64
        E 0 92 47 64
        E 0 93 3e 5a
        E 0 98 47 64
        E 0 9f 37 5a
        E 0 82 48 64
        E 0 88 48 64
        E 0 92 4f 64
        E 0 98 4f 64
        E 0 82 47 64
        E 0 88 47 64
        E 0 92 4d 64
        E 0 98 4d 64
        E 0 82 4f 64
        E 0 88 4f 64
        E 0 83 3e 64
        E 0 8f 37 64
        E 0 92 4c 64
        E 0 93 47 5a
        E 0 98 4c 64
        E 0 9f 38 5a
        E 0 82 4d 64
        E 0 88 4d 64
        E 1 98 4a 64
        E 0 88 4c 64
        E 0 98 48 64
        E 0 88 4a 64
        E 0 82 4c 64
        E 0 83 47 64
        E 0 8f 38 64
        E 0 92 4a 64
        E 0 93 47 5a
        E 0 98 47 64
        E 0 9f 38 5a
        E 0 88 48 64
        E 0 98 48 64
        E 0 88 47 64
        E 0 98 4a 64
        E 0 88 48 64
        E 0 82 4a 64
        E 0 83 47 64
        E 0 8f 38 64
        E 0 92 48 64
        E 0 93 40 5a
        E 0 98 48 64
        E 0 9f 39 5a
        E 0 88 4a 64
        E 0 92 51 64
        E 0 98 51 64
        E 0 82 48 64
        E 0 88 48 64
        E 0 92 4f 64
        E 0 98 4f 64
        E 0 82 51 64
        E 0 88 51 64
        E 0 83 40 64
        E 0 8f 39 64
        E 0 92 4d 64
        E 0 93 41 5a
        E 0 98 4d 64
        E 0 9f 39 5a
        E 0 82 4f 64
        E 0 88 4f 64
        E 0 92 4f 64
        E 0 98 4f 64
        E 0 82 4d 64
        E 0 88 4d 64
        E 0 92 51 64
        E 1 98 51 64
        E 0 82 4f 64
        E 0 88 4f 64
        E 0 83 41 64
        E 0 8f 39 64
        E 0 92 51 64
        E 0 93 41 5a
        E 0 98 4a 64
        E 0 9f 35 5a
        E 0 82 51 64
        E 0 88 51 64
        E 0 98 4d 64
        E 0 88 4a 64
        E 0 98 4c 64
        E 0 88 4d 64
        E 0 82 51 64
        E 0 83 41 64
        E 0 8f 35 64
        E 0 92 51 64
        E 1 93 41 5a
        E 0 98 4a 64
        E 0 9f 35 5a
        E 0 88 4c 64
        E 0 98 4c 64
        E 0 88 4a 64
        E 0 98 4d 64
        E 0 88 4c 64
        E 0 82 51 64
        E 0 83 41 64
        E 0 8f 35 64
        E 0 92 4a 64
        E 0 93 41 5a
        E 0 98 47 64
        E 0 9f 37 5a
        E 0 88 4d 64
        E 0 92 4f 64
        E 0 98 4f 64
        E 0 82 4a 64
        E 0 88 47 64
        E 0 92 4d 64
        E 0 98 4d 64
        E 0 82 4f 64
        E 0 88 4f 64
        E 0 83 41 64
        E 0 8f 37 64
        E 0 92 4c 64
        E 0 93 41 5a
        E 0 98 4c 64
        E 0 9f 37 5a
        E 0 82 4d 64
        E 0 88 4d 64
        E 0 92 4d 64
        E 1 98 4d 64
        E 0 82 4c 64
        E 0 88 4c 64
        E 0 92 4f 64
        E 0 98 4f 64
        E 0 82 4d 64
        E 0 88 4d 64
        E 0 83 41 64
        E 0 8f 37 64
        E 0 92 4f 64
        E 0 93 43 5a
        E 0 98 48 64
        E 0 9f 34 5a
        E 3 82 4f 64
        E 0 88 4f 64
        E 0 98 4c 64
        E 0 88 48 64
        E 0 98 4a 64
        E 0 88 4c 64
        E 0 82 4f 64
        E 0 83 43 64
        E 1 8f 34 64
        E 0 92 4f 64
        E 0 93 43 5a
        E 0 98 48 64
        E 0 9f 34 5a
        E 0 88 4a 64
        E 0 98 4a 64
        E 0 88 48 64
        E 0 98 4c 64
        E 0 88 4a 64
        E 0 82 4f 64
        E 0 83 43 64
        E 0 8f 34 64
        E 0 92 48 64
        E 0 93 45 5a
        E 0 98 45 64
        E 0 9f 35 5a
        E 0 88 4c 64
        E 0 92 4d 64
        E 0 98 4d 64
        E 1 82 48 64
        E 0 88 45 64
        E 0 92 4c 64
        E 0 98 4c 64
        E 0 82 4d 64
        E 0 88 4d 64
        E 0 83 45 64
        E 0 8f 35 64
        E 0 92 4a 64
        E 0 93 45 5a
        E 0 98 4a 64
        E 0 9f 35 5a
        E 0 82 4c 64
        E 0 88 4c 64
        E 0 92 4c 64
        E 0 98 4c 64
        E 0 82 4a 64
        E 0 88 4a 64
        E 0 92 4d 64
        E 0 98 4d 64
        E 0 82 4c 64
        E 0 88 4c 64
        E 0 83 45 64
        E 0 8f 35 64
        E 0 92 4d 64
        E 0 93 41 5a
        E 1 98 47 64
        E 0 9f 32 5a
        E 0 82 4d 64
        E 0 88 4d 64
        E 0 98 4a 64
        E 0 88 47 64
        E 0 98 48 64
        E 0 88 4a 64
        E 0 82 4d 64
        E 0 83 41 64
        E 0 8f 32 64
        E 0 92 4d 64
        E 0 93 3e 5a
        E 0 98 47 64
        E 0 9f 2b 5a
        E 0 88 48 64
        E 0 98 48 64
        E 0 88 47 64
        E 0 98 4a 64
        E 0 88 48 64
        E 0 82 4d 64
        E 0 83 3e 64
        E 0 8f 2b 64
        E 0 92 43 64
        E 0 93 37 5a
        E 0 98 43 64
        E 0 9f 2b 5a
        E 0 88 4a 64
        E 0 92 47 64
        E 0 98 47 64
        E 0 82 43 64
        E 0 88 43 64
        E 0 92 48 64
        E 0 98 48 64
        E 0 82 47 64
        E 0 88 47 64
        E 0 83 37 64
        E 0 8f 2b 64
        E 0 92 43 64
        E 0 93 37 5a
        E 1 98 43 64
        E 0 9f 2b 5a
        E 0 82 48 64
        E 0 88 48 64
        E 0 92 48 64
        E 0 98 48 64
        E 0 82 43 64
        E 0 88 43 64
        E 0 92 4a 64
        E 0 98 4a 64
        E 0 82 48 64
        E 0 88 48 64
        E 0 83 37 64
        E 0 8f 2b 64
        E 0 92 43 64
        E 0 93 37 5a
        E 0 98 43 64
        E 0 9f 2b 5a
        E 0 82 4a 64
        E 0 88 4a 64
        E 0 92 4a 64
        E 0 98 4a 64
        E 0 82 43 64
        E 0 88 43 64
        E 0 92 4c 64
        E 0 98 4c 64
        E 0 82 4a 64
        E 0 88 4a 64
        E 0 83 37 64
        E 0 8f 2b 64
        E 0 92 43 64
        E 0 93 37 5a
        E 0 98 43 64
        E 0 9f 2b 5a
        E 0 82 4c 64
        E 0 88 4c 64
        E 1 92 4c 64
        E 0 98 4c 64
        E 0 82 43 64
        E 0 88 43 64
        E 0 92 4d 64
        E 0 98 4d 64
        E 0 82 4c 64
        E 0 88 4c 64
        E 0 83 37 64
        E 0 8f 2b 64
        E 0 92 37 64
        E 0 93 37 5a
        E 0 98 43 64
        E 0 9f 2b 5a
        E 0 82 4d 64
        E 0 88 4d 64
        E 0 82 37 64
        E 0 83 37 64
        E 0 8f 2b 64
        E 0 92 43 64
        E 0 93 43 5a
        E 0 9f 37 5a
        E 0 82 43 64
        E 0 83 43 64
        E 0 8f 37 64
        E 0 92 41 64
        E 0 93 41 5a
        E 1 9f 35 5a
        E 0 82 41 64
        E 0 83 41 64
        E 0 8f 35 64
        E 0 92 43 64
        E 0 93 43 5a
        E 0 9f 37 5a
        E 0 82 43 64
        E 0 83 43 64
        E 0 8f 37 64
        E 0 92 37 64
        E 0 93 37 5a
        E 0 9f 2b 5a
        E 0 82 37 64
        E 0 83 37 64
        E 0 8f 2b 64
        E 1 92 43 64
        E 0 93 43 5a
        E 0 9f 37 5a
        E 0 82 43 64
        E 0 83 43 64
        E 0 8f 37 64
        E 0 92 41 64
        E 0 93 41 5a
        E 0 9f 35 5a
        E 0 82 41 64
        E 0 83 41 64
        E 0 8f 35 64
        E 0 92 43 64
        E 0 93 43 5a
        E 0 9f 37 5a
        E 0 82 43 64
        E 0 83 43 64
        E 0 88 43 64
        E 0 8f 37 64
        E 0 92 37 64
        E 0 93 37 5a
        E 0 9f 2b 5a
        E 0 82 37 64
        E 0 83 37 64
        E 0 8f 2b 64
        E 0 92 43 64
        E 0 93 43 5a
        E 0 9f 37 5a
        E 0 82 43 64
        E 0 83 43 64
        E 0 8f 37 64
        E 0 92 41 64
        E 0 93 41 5a
        E 0 9f 35 5a
        E 0 82 41 64
        E 0 83 41 64
        E 0 8f 35 64
        E 0 92 43 64
        E 0 93 43 5a
        E 0 9f 37 5a
        E 0 82 43 64
        E 0 83 43 64
        E 0 8f 37 64
        E 0 92 37 64
        E 0 93 37 5a
        E 1 9f 2b 5a
        E 0 82 37 64
        E 0 83 37 64
        E 0 8f 2b 64
        E 0 92 43 64
        E 0 93 43 5a
        E 0 9f 37 5a
        E 0 82 43 64
        E 0 83 43 64
        E 0 8f 37 64
        E 0 92 41 64
        E 0 93 41 5a
        E 0 9f 35 5a
        E 0 82 41 64
        E 0 83 41 64
        E 0 8f 35 64
        E 0 92 43 64
        E 0 93 43 5a
        E 0 9f 37 5a
        E 0 82 43 64
        E 0 83 43 64
        E 0 8f 37 64
        E 0 92 43 64
        E 0 92 41 64
        E 0 93 47 5a
        E 0 98 4d 64
        E 0 9f 37 5a
        E 0 82 41 64
        E 0 92 40 64
        E 0 82 40 64
        E 0 92 41 64
        E 0 82 43 64
        E 0 82 41 64
        E 0 83 47 64
        E 0 88 4d 64
        E 0 8f 37 64
        E 1 92 43 64
        E 0 92 41 64
        E 0 93 47 5a
        E 0 98 4d 64
        E 0 9f 37 5a
        E 0 82 41 64
        E 0 88 4d 64
        E 0 92 40 64
        E 0 98 4d 64
        E 0 82 40 64
        E 0 92 41 64
        E 0 82 43 64
        E 0 82 41 64
        E 0 83 47 64
        E 0 88 4d 64
        E 0 8f 37 64
        E 0 92 43 64
        E 0 92 41 64
        E 0 93 47 5a
        E 0 98 4d 64
        E 0 9f 37 5a
        E 0 82 41 64
        E 0 92 40 64
        E 0 82 40 64
        E 0 92 41 64
        E 0 82 43 64
        E 0 82 41 64
        E 0 83 47 64
        E 0 88 4d 64
        E 0 8f 37 64
        E 0 92 43 64
        E 0 92 41 64
        E 0 93 47 5a
        E 0 98 4d 64
        E 0 9f 37 5a
        E 0 82 41 64
        E 0 92 40 64
        E 0 82 40 64
        E 0 92 41 64
        E 0 82 43 64
        E 1 82 41 64
        E 0 83 47 64
        E 0 88 4d 64
        E 0 8f 37 64
        E 0 92 47 64
        E 0 93 47 5a
        E 0 98 47 64
        E 0 9f 37 5a
        E 0 92 43 64
        E 0 98 43 64
        E 0 82 47 64
        E 0 88 47 64
        E 0 92 45 64
        E 0 98 45 64
        E 0 82 43 64
        E 0 88 43 64
        E 0 8f 37 64
        E 0 92 47 64
        E 0 98 47 64
        E 0 82 45 64
        E 0 88 45 64
        E 0 92 48 64
        E 0 98 48 64
        E 0 82 47 64
        E 0 83 47 64
        E 0 88 47 64
        E 0 93 43 5a
        E 0 92 4a 64
        E 0 98 4a 64
        E 0 82 48 64
        E 0 88 48 64
        E 0 83 43 64
        E 0 92 48 64
        E 0 93 48 5a
        E 0 98 48 64
        E 0 9f 39 5a
        E 0 82 4a 64
        E 0 88 4a 64
        E 1 92 45 64
        E 0 98 45 64
        E 0 82 48 64
        E 0 88 48 64
        E 0 92 47 64
        E 0 98 47 64
        E 0 82 45 64
        E 0 88 45 64
        E 0 8f 39 64
        E 0 92 48 64
        E 0 98 48 64
        E 0 82 47 64
        E 0 88 47 64
        E 0 92 4a 64
        E 0 98 4a 64
        E 0 82 48 64
        E 0 83 48 64
        E 0 88 48 64
        E 0 93 45 5a
        E 1 92 4c 64
        E 0 98 4c 64
        E 0 82 4a 64
        E 0 88 4a 64
        E 38404 83 45 64
        E 0 92 4a 64
        E 0 93 4a 5a
        E 0 98 4a 64
        E 0 9f 3b 5a
        E 0 82 4c 64
        E 0 88 4c 64
        E 0 92 47 64
        E 0 98 47 64
        E 0 82 4a 64
        E 0 88 4a 64
        E 0 92 48 64
        E 0 98 48 64
        E 0 82 47 64
        E 0 88 47 64
        E 0 8f 3b 64
        E 0 92 4a 64
        E 0 98 4a 64
        E 0 82 48 64
        E 0 88 48 64
        E 0 92 4c 64
        E 0 98 4c 64
        E 0 82 4a 64
        E 0 83 4a 64
        E 0 88 4a 64
        E 0 93 47 5a
        E 0 92 4d 64
        E 0 98 4d 64
        E 0 82 4c 64
        E 0 88 4c 64
        E 0 83 47 64
        E 0 92 4c 64
        E 0 93 4c 5a
        E 0 98 4c 64
        E 0 9f 3c 5a
        E 0 82 4d 64
        E 0 88 4d 64
        E 0 92 48 64
        E 0 98 48 64
        E 0 82 4c 64
        E 0 88 4c 64
        E 0 92 4a 64
        E 0 98 4a 64
        E 0 82 48 64
        E 0 88 48 64
        E 0 8f 3c 64
        E 0 92 4c 64
        E 0 98 4c 64
        E 0 82 4a 64
        E 0 88 4a 64
        E 0 92 4d 64
        E 0 98 4d 64
        E 0 82 4c 64
        E 0 83 4c 64
        E 0 88 4c 64
        E 0 93 48 5a
        E 0 92 4f 64
        E 0 98 4f 64
        E 0 82 4d 64
        E 0 88 4d 64
        E 0 83 48 64
        E 0 92 4d 64
        E 0 93 41 5a
        E 0 98 4d 64
        E 0 9f 3e 5a
        E 0 82 4f 64
        E 0 88 4f 64
        E 0 92 4a 64
        E 0 98 4a 64
        E 0 82 4d 64
        E 0 88 4d 64
        E 1 92 4c 64
        E 0 98 4c 64
        E 0 82 4a 64
        E 0 88 4a 64
        E 0 8f 3e 64
        E 0 92 4d 64
        E 0 98 4d 64
        E 0 82 4c 64
        E 0 88 4c 64
        E 0 92 4f 64
        E 0 98 4f 64
        E 0 82 4d 64
        E 0 83 41 64
        E 0 88 4d 64
        E 0 93 3e 5a
        E 0 92 51 64
        E 0 98 51 64
        E 0 82 4f 64
        E 0 88 4f 64
        E 0 83 3e 64
        E 0 92 4f 64
        E 0 93 43 5a
        E 0 98 4f 64
        E 0 9f 3c 5a
        E 0 82 51 64
        E 0 88 51 64
        E 0 92 4c 64
        E 0 98 4c 64
        E 0 82 4f 64
        E 0 88 4f 64
        E 0 92 4d 64
        E 0 98 4d 64
        E 0 82 4c 64
        E 0 88 4c 64
        E 0 8f 3c 64
        E 0 92 4f 64
        E 0 98 4f 64
        E 0 82 4d 64
        E 0 88 4d 64
        E 0 92 51 64
        E 0 98 51 64
        E 0 82 4f 64
        E 0 83 43 64
        E 0 88 4f 64
        E 0 93 40 5a
        E 0 92 53 64
        E 0 98 53 64
        E 0 82 51 64
        E 0 88 51 64
        E 0 83 40 64
        E 0 92 54 64
        E 0 93 43 5a
        E 0 98 54 64
        E 0 9f 30 5a
        E 0 82 53 64
        E 0 88 53 64
        E 0 92 53 64
        E 0 98 53 64
        E 0 82 54 64
        E 0 88 54 64
        E 0 92 51 64
        E 0 98 51 64
        E 0 82 53 64
        E 0 88 53 64
        E 0 83 43 64
        E 0 8f 30 64
        E 0 92 4f 64
        E 0 93 43 5a
        E 0 98 4f 64
        E 0 9f 30 5a
        E 0 82 51 64
        E 0 88 51 64
        E 0 92 4d 64
        E 0 98 4d 64
        E 0 82 4f 64
        E 0 88 4f 64
        E 0 92 4c 64
        E 0 98 4c 64
        E 0 82 4d 64
        E 0 88 4d 64
        E 0 83 43 64
        E 0 8f 30 64
        E 0 92 51 64
        E 0 93 45 5a
        E 0 98 51 64
        E 0 9f 30 5a
        E 0 82 4c 64
        E 0 88 4c 64
        E 0 92 4f 64
        E 0 98 4f 64
        E 0 82 51 64
        E 0 88 51 64
        E 0 92 4d 64
        E 0 98 4d 64
        E 0 82 4f 64
        E 0 88 4f 64
        E 0 83 45 64
        E 0 8f 30 64
        E 0 92 4c 64
        E 0 93 45 5a
        E 1 98 4c 64
        E 0 9f 2a 5a
        E 0 82 4d 64
        E 0 88 4d 64
        E 0 92 4a 64
        E 0 98 4a 64
        E 0 82 4c 64
        E 0 88 4c 64
        E 0 92 48 64
        E 0 98 48 64
        E 0 82 4a 64
        E 0 88 4a 64
        E 0 83 45 64
        E 0 8f 2a 64
        E 0 92 43 64
        E 0 93 3e 5a
        E 0 98 43 64
        E 0 98 4f 64
        E 0 9f 2b 5a
        E 0 82 48 64
        E 0 88 48 64
        E 0 82 43 64
        E 0 83 3e 64
        E 0 88 43 64
        E 0 88 4f 64
        E 0 8f 2b 64
        E 0 92 4c 64
        E 0 93 4c 5a
        E 0 98 4c 64
        E 0 9f 40 5a
        E 0 82 4c 64
        E 0 83 4c 64
        E 0 88 4c 64
        E 0 8f 40 64
        E 0 92 4a 64
        E 0 93 4a 5a
        E 0 98 4a 64
        E 0 9f 3e 5a
        E 0 82 4a 64
        E 0 83 4a 64
        E 0 88 4a 64
        E 0 8f 3e 64
        E 0 92 48 64
        E 0 93 48 5a
        E 0 98 48 64
        E 0 9f 3c 5a
        E 0 82 48 64
        E 0 83 48 64
        E 0 88 48 64
        E 0 8f 3c 64
        E 0 92 41 64
        E 0 93 41 5a
        E 0 98 41 64
        E 0 9f 35 5a
        E 0 82 41 64
        E 0 83 41 64
        E 0 88 41 64
        E 0 8f 35 64
        E 0 92 43 64
        E 0 93 43 5a
        E 1 98 43 64
        E 0 9f 37 5a
        E 0 82 43 64
        E 0 83 43 64
        E 0 88 43 64
        E 0 8f 37 64
        E 0 92 3c 64
        E 0 93 37 5a
        E 0 98 3c 64
        E 0 9f 30 5a
        E 0 82 3c 64
        E 0 92 48 64
        E 0 82 48 64
        E 0 92 4a 64
        E 0 82 4a 64
        E 0 83 37 64
        E 0 8f 30 64
        E 0 92 4c 64
        E 0 93 40 5a
        E 0 9f 3c 5a
        E 0 82 4c 64
        E 0 92 4c 64
        E 0 82 4c 64
        E 0 92 4d 64
        E 0 82 4d 64
        E 0 83 40 64
        E 0 88 3c 64
        E 0 8f 3c 64
        E 0 92 4f 64
        E 0 93 40 5a
        E 0 9f 3c 5a
        E 0 82 4f 64
        E 0 92 51 64
        E 0 82 51 64
        E 0 92 53 64
        E 0 82 53 64
        E 0 83 40 64
        E 0 8f 3c 64
        E 0 92 54 64
        E 0 93 40 5a
        E 0 9f 3c 5a
        E 0 82 54 64
        E 1 92 4c 64
        E 0 82 4c 64
        E 0 83 40 64
        E 0 8f 3c 64
        E 0 92 4a 64
        E 0 93 47 5a
        E 0 9f 3b 5a
        E 0 82 4a 64
        E 0 92 47 64
        E 0 82 47 64
        E 0 92 48 64
        E 0 82 48 64
        E 0 83 47 64
        E 0 8f 3b 64
        E 0 92 4a 64
        E 0 93 3e 5a
        E 0 9f 3b 5a
        E 0 82 4a 64
        E 0 92 4a 64
        E 0 82 4a 64
        E 0 92 4c 64
        E 0 82 4c 64
        E 0 83 3e 64
        E 0 8f 3b 64
        E 0 92 4d 64
        E 0 93 3e 5a
        E 0 9f 3b 5a
        E 0 82 4d 64
        E 0 92 4f 64
        E 0 82 4f 64
        E 0 92 51 64
        E 0 82 51 64
        E 0 83 3e 64
        E 0 8f 3b 64
        E 0 92 53 64
        E 0 93 3e 5a
        E 0 9f 3b 5a
        E 0 82 53 64
        E 0 92 4a 64
        E 0 82 4a 64
        E 0 83 3e 64
        E 0 8f 3b 64
        E 0 92 48 64
        E 0 93 40 5a
        E 0 9f 39 5a
        E 0 82 48 64
        E 0 92 45 64
        E 0 82 45 64
        E 0 92 47 64
        E 0 82 47 64
        E 0 83 40 64
        E 0 8f 39 64
        E 0 92 48 64
        E 0 93 3c 5a
        E 0 9f 39 5a
        E 0 82 48 64
        E 0 92 48 64
        E 0 82 48 64
        E 0 92 4a 64
        E 0 82 4a 64
        E 0 83 3c 64
        E 0 8f 39 64
        E 1 92 4c 64
        E 0 93 3c 5a
        E 0 9f 36 5a
        E 0 82 4c 64
        E 0 92 4e 64
        E 0 82 4e 64
        E 0 92 4f 64
        E 0 82 4f 64
        E 0 83 3c 64
        E 0 8f 36 64
        E 0 92 51 64
        E 0 93 42 5a
        E 0 9f 36 5a
        E 0 82 51 64
        E 0 92 48 64
        E 0 82 48 64
        E 0 83 42 64
        E 0 8f 36 64
        E 0 92 47 64
        E 0 93 3e 5a
        E 0 9f 37 5a
        E 0 82 47 64
        E 0 92 4f 64
        E 0 82 4f 64
        E 0 92 51 64
        E 0 92 4f 64
        E 0 82 4f 64
        E 0 92 4e 64
        E 0 82 4e 64
        E 0 92 4f 64
        E 0 82 51 64
        E 0 82 4f 64
        E 0 83 3e 64
        E 0 8f 37 64
        E 0 92 51 64
        E 0 92 4f 64
        E 0 93 4c 5a
        E 0 9f 3c 5a
        E 1 82 4f 64
        E 0 92 4e 64
        E 0 82 4e 64
        E 0 92 4f 64
        E 0 82 51 64
        E 0 82 4f 64
        E 0 83 4c 64
        E 0 8f 3c 64
        E 0 92 51 64
        E 0 92 4f 64
        E 0 93 4a 5a
        E 0 9f 3b 5a
        E 0 82 4f 64
        E 0 92 4e 64
        E 0 82 4e 64
        E 0 92 4f 64
        E 0 82 51 64
        E 0 82 4f 64
        E 0 83 4a 64
        E 0 8f 3b 64
        E 0 92 4a 64
        E 0 92 48 64
        E 0 93 48 5a
        E 0 9f 39 5a
        E 0 82 48 64
        E 0 92 47 64
        E 0 82 47 64
        E 0 92 48 64
        E 0 82 4a 64
        E 0 82 48 64
        E 0 83 48 64
        E 0 8f 39 64
        E 0 92 4a 64
        E 0 92 48 64
        E 0 93 47 5a
        E 0 9f 37 5a
        E 0 82 48 64
        E 0 92 47 64
        E 0 82 47 64
        E 0 92 48 64
        E 0 82 4a 64
        E 0 82 48 64
        E 0 83 47 64
        E 0 8f 37 64
        E 0 92 4a 64
        E 0 92 48 64
        E 0 93 45 5a
        E 0 9f 35 5a
        E 0 82 48 64
        E 0 92 47 64
        E 0 82 47 64
        E 0 92 48 64
        E 0 82 4a 64
        E 0 82 48 64
        E 0 83 45 64
        E 0 8f 35 64
        E 0 92 4a 64
        E 0 92 48 64
        E 0 93 43 5a
        E 0 9f 34 5a
        E 0 82 48 64
        E 0 92 47 64
        E 0 82 47 64
        E 0 92 48 64
        E 0 82 4a 64
        E 0 82 48 64
        E 0 83 43 64
        E 0 8f 34 64
        E 0 92 43 64
        E 1 92 41 64
        E 0 93 41 5a
        E 0 9f 32 5a
        E 0 82 41 64
        E 0 92 40 64
        E 0 82 40 64
        E 0 92 41 64
        E 0 82 43 64
        E 0 82 41 64
        E 0 83 41 64
        E 0 8f 32 64
        E 0 92 43 64
        E 0 92 41 64
        E 0 93 40 5a
        E 0 9f 30 5a
        E 0 82 41 64
        E 0 92 40 64
        E 0 82 40 64
        E 0 92 41 64
        E 0 82 43 64
        E 0 82 41 64
        E 0 83 40 64
        E 0 8f 30 64
        E 0 92 43 64
        E 0 92 41 64
        E 0 93 3e 5a
        E 0 9f 2f 5a
        E 0 82 41 64
        E 0 92 40 64
        E 0 82 40 64
        E 0 92 41 64
        E 0 82 43 64
        E 0 82 41 64
        E 0 83 3e 64
        E 0 8f 2f 64
        E 0 92 43 64
        E 0 92 41 64
        E 0 93 3b 5a
        E 0 9f 2b 5a
        E 0 82 41 64
        E 0 92 40 64
        E 0 82 40 64
        E 0 92 41 64
        E 0 82 43 64
        E 0 82 41 64
        E 0 83 3b 64
        E 0 8f 2b 64
        E 0 92 40 64
        E 0 93 3c 5a
        E 1 9f 30 5a
        E 0 82 40 64
        E 0 92 48 64
        E 0 82 48 64
        E 0 92 47 64
        E 0 82 47 64
        E 0 92 48 64
        E 0 82 48 64
        E 0 83 3c 64
        E 0 8f 30 64
        E 0 92 40 64
        E 0 93 40 5a
        E 0 9f 34 5a
        E 0 82 40 64
        E 0 92 48 64
        E 0 82 48 64
        E 0 92 47 64
        E 0 82 47 64
        E 0 92 48 64
        E 0 82 48 64
        E 0 83 40 64
        E 0 8f 34 64
        E 0 92 40 64
        E 0 93 41 5a
        E 0 9f 35 5a
        E 0 82 40 64
        E 0 92 48 64
        E 0 82 48 64
        E 0 92 47 64
        E 0 82 47 64
        E 0 92 48 64
        E 0 82 48 64
        E 0 83 41 64
        E 0 8f 35 64
        E 0 92 40 64
        E 0 93 43 5a
        E 0 9f 37 5a
        E 0 82 40 64
        E 0 92 48 64
        E 0 82 48 64
        E 0 92 47 64
        E 0 82 47 64
        E 0 92 48 64
        E 0 82 48 64
        E 0 83 43 64
        E 0 8f 37 64
        E 0 92 45 64
        E 0 93 45 5a
        E 0 9f 39 5a
        E 0 82 45 64
        E 0 92 48 64
        E 1 82 48 64
        E 0 92 47 64
        E 0 82 47 64
        E 0 92 48 64
        E 0 82 48 64
        E 0 83 45 64
        E 0 8f 39 64
        E 0 92 40 64
        E 0 93 40 5a
        E 0 9f 34 5a
        E 0 82 40 64
        E 0 92 48 64
        E 0 82 48 64
        E 0 92 47 64
        E 0 82 47 64
        E 0 92 48 64
        E 0 82 48 64
        E 0 83 40 64
        E 0 8f 34 64
        E 0 92 41 64
        E 0 93 41 5a
        E 0 9f 35 5a
        E 0 82 41 64
        E 0 92 48 64
        E 0 82 48 64
        E 0 92 47 64
        E 0 82 47 64
        E 0 92 48 64
        E 0 82 48 64
        E 0 83 41 64
        E 0 8f 35 64
        E 0 92 43 64
        E 0 93 43 5a
        E 0 9f 37 5a
        E 0 82 43 64
        E 0 92 47 64
        E 0 82 47 64
        E 0 92 45 64
        E 0 82 45 64
        E 0 92 47 64
        E 0 82 47 64
        E 0 83 43 64
        E 0 8f 37 64
        E 0 92 48 64
        E 0 93 3c 5a
        E 0 9f 30 5a
        E 0 82 48 64
        E 0 83 3c 64
        E 0 8f 30 64
        E 0 93 45 5a
        E 0 98 45 64
        E 0 9f 39 5a
        E 0 83 45 64
        E 0 88 45 64
        E 0 8f 39 64
        E 0 93 44 5a
        E 0 98 4c 64
        E 0 9f 38 5a
        E 0 83 44 64
        E 0 88 4c 64
        E 0 8f 38 64
        E 0 93 45 5a
        E 0 98 4a 64
        E 0 9f 39 5a
        E 0 88 4a 64
        E 0 98 48 64
        E 0 83 45 64
        E 0 88 48 64
        E 0 8f 39 64
        E 0 93 41 5a
        E 0 98 47 64
        E 0 9f 35 5a
        E 0 88 47 64
        E 0 98 45 64
        E 0 83 41 64
        E 0 88 45 64
        E 0 8f 35 64
        E 0 93 40 5a
        E 0 98 47 64
        E 0 9f 34 5a
        E 0 83 40 64
        E 0 88 47 64
        E 0 8f 34 64
        E 0 93 3e 5a
        E 0 98 4a 64
        E 0 9f 32 5a
        E 0 83 3e 64
        E 0 88 4a 64
        E 0 8f 32 64
        E 0 93 40 5a
        E 0 98 48 64
        E 0 9f 34 5a
        E 0 88 48 64
        E 1 98 47 64
        E 0 83 40 64
        E 0 88 47 64
        E 0 8f 34 64
        E 0 93 34 5a
        E 0 98 45 64
        E 0 9f 28 5a
        E 0 88 45 64
        E 0 98 44 64
        E 0 83 34 64
        E 0 88 44 64
        E 0 8f 28 64
        E 0 93 39 5a
        E 0 98 45 64
        E 0 9f 2d 5a
        E 0 83 39 64
        E 0 8f 2d 64
        E 0 93 3b 5a
        E 0 9f 2f 5a
        E 0 83 3b 64
        E 0 88 45 64
        E 0 8f 2f 64
        E 0 93 3c 5a
        E 0 9f 30 5a
        E 0 83 3c 64
        E 0 8f 30 64
        E 0 93 39 5a
        E 0 98 48 64
        E 0 9f 2d 5a
        E 0 83 39 64
        E 0 88 48 64
        E 0 8f 2d 64
        E 0 93 40 5a
        E 0 98 47 64
        E 0 9f 34 5a
        E 0 83 40 64
        E 0 88 47 64
        E 0 8f 34 64
        E 0 93 42 5a
        E 0 98 40 64
        E 0 9f 36 5a
        E 0 83 42 64
        E 0 8f 36 64
        E 0 93 44 5a
        E 0 9f 38 5a
        E 0 83 44 64
        E 0 88 40 64
        E 0 8f 38 64
        E 0 93 45 5a
        E 0 9f 39 5a
        E 0 83 45 64
        E 0 8f 39 64
        E 0 93 39 5a
        E 0 98 45 64
        E 0 9f 2d 5a
        E 0 83 39 64
        E 0 88 45 64
        E 0 8f 2d 64
        E 0 92 48 64
        E 0 93 40 5a
        E 0 98 48 64
        E 0 9f 39 5a
        E 0 82 48 64
        E 0 88 48 64
        E 0 92 45 64
        E 0 98 45 64
        E 0 82 45 64
        E 0 83 40 64
        E 0 88 45 64
        E 0 8f 39 64
        E 0 92 4c 64
        E 0 93 40 5a
        E 0 98 4c 64
        E 0 9f 39 5a
        E 0 82 4c 64
        E 0 88 4c 64
        E 0 92 48 64
        E 0 98 48 64
        E 0 82 48 64
        E 0 83 40 64
        E 0 88 48 64
        E 0 8f 39 64
        E 0 92 51 64
        E 1 93 48 5a
        E 0 98 51 64
        E 0 9f 39 5a
        E 0 88 51 64
        E 0 98 4c 64
        E 0 82 51 64
        E 0 83 48 64
        E 0 88 4c 64
        E 0 8f 39 64
        E 0 92 51 64
        E 0 93 48 5a
        E 0 98 48 64
        E 0 9f 39 5a
        E 0 88 48 64
        E 0 98 45 64
        E 0 82 51 64
        E 0 83 48 64
        E 0 88 45 64
        E 0 8f 39 64
        E 0 92 4a 64
        E 0 93 45 5a
        E 0 98 4a 64
        E 1 9f 35 5a
        E 0 82 4a 64
        E 0 88 4a 64
        E 0 92 45 64
        E 0 98 45 64
        E 38403 82 45 64
        E 0 83 45 64
        E 0 88 45 64
        E 0 8f 35 64
        E 0 92 4a 64
        E 0 93 45 5a
        E 0 98 4a 64
        E 0 9f 35 5a
        E 0 82 4a 64
        E 0 88 4a 64
        E 0 92 4d 64
        E 0 98 4d 64
        E 0 82 4d 64
        E 0 83 45 64
        E 0 88 4d 64
        E 0 8f 35 64
        E 0 92 51 64
        E 0 93 41 5a
        E 0 98 51 64
        E 0 9f 35 5a
        E 0 88 51 64
        E 0 98 4d 64
        E 0 82 51 64
        E 0 83 41 64
        E 0 88 4d 64
        E 0 8f 35 64
        E 0 92 51 64
        E 1 93 41 5a
        E 0 98 4a 64
        E 0 9f 35 5a
        E 0 88 4a 64
        E 0 98 45 64
        E 0 82 51 64
        E 0 83 41 64
        E 0 88 45 64
        E 0 8f 35 64
        E 0 92 47 64
        E 0 93 3e 5a
        E 0 98 47 64
        E 0 9f 37 5a
        E 0 82 47 64
        E 0 88 47 64
        E 0 92 43 64
        E 0 98 43 64
        E 0 82 43 64
        E 0 83 3e 64
        E 0 88 43 64
        E 0 8f 37 64
        E 0 92 4a 64
        E 0 93 3e 5a
        E 0 98 4a 64
        E 0 9f 37 5a
        E 0 82 4a 64
        E 0 88 4a 64
        E 0 92 47 64
        E 0 98 47 64
        E 0 82 47 64
        E 0 83 3e 64
        E 0 88 47 64
        E 0 8f 37 64
        E 0 92 4f 64
        E 0 93 47 5a
        E 0 98 4f 64
        E 0 9f 37 5a
        E 0 88 4f 64
        E 0 98 4a 64
        E 0 82 4f 64
        E 0 83 47 64
        E 0 88 4a 64
        E 0 8f 37 64
        E 0 92 4f 64
        E 0 93 47 5a
        E 0 98 47 64
        E 0 9f 37 5a
        E 0 88 47 64
        E 0 98 43 64
        E 0 82 4f 64
        E 0 83 47 64
        E 0 88 43 64
        E 0 8f 37 64
        E 0 92 48 64
        E 0 93 43 5a
        E 0 98 48 64
        E 1 9f 34 5a
        E 0 82 48 64
        E 0 88 48 64
        E 0 92 43 64
        E 0 98 43 64
        E 0 82 43 64
        E 0 83 43 64
        E 0 88 43 64
        E 0 8f 34 64
        E 0 92 48 64
        E 0 93 43 5a
        E 0 98 48 64
        E 0 9f 34 5a
        E 0 82 48 64
        E 0 88 48 64
        E 0 92 4c 64
        E 0 98 4c 64
        E 0 82 4c 64
        E 0 83 43 64
        E 0 88 4c 64
        E 0 8f 34 64
        E 0 92 4f 64
        E 0 93 40 5a
        E 0 98 4f 64
        E 0 9f 34 5a
        E 0 88 4f 64
        E 0 98 4c 64
        E 0 82 4f 64
        E 0 83 40 64
        E 0 88 4c 64
        E 0 8f 34 64
        E 0 92 4f 64
        E 0 93 40 5a
        E 0 98 48 64
        E 0 9f 34 5a
        E 0 88 48 64
        E 0 98 46 66
        E 0 82 4f 64
        E 0 83 40 64
        E 0 88 46 66
        E 0 8f 34 64
        E 0 92 45 64
        E 0 93 3c 5a
        E 0 98 45 64
        E 0 9f 35 5a
        E 0 82 45 64
        E 0 88 45 64
        E 0 92 41 64
        E 0 98 41 64
        E 0 82 41 64
        E 0 83 3c 64
        E 0 88 41 64
        E 0 8f 35 64
        E 0 92 48 64
        E 0 93 3c 5a
        E 0 98 48 64
        E 0 9f 35 5a
        E 0 82 48 64
        E 0 88 48 64
        E 0 92 45 64
        E 0 98 45 64
        E 0 82 45 64
        E 0 83 3c 64
        E 0 88 45 64
        E 0 8f 35 64
        E 0 92 4d 64
        E 0 93 3e 5a
        E 0 98 4d 64
        E 0 9f 32 5a
        E 0 88 4d 64
        E 0 98 4a 64
        E 0 82 4d 64
        E 0 83 3e 64
        E 0 88 4a 64
        E 0 8f 32 64
        E 0 92 4d 64
        E 0 93 3e 5a
        E 0 98 47 64
        E 0 9f 32 5a
        E 0 88 47 64
        E 0 98 45 64
        E 0 82 4d 64
        E 0 83 3e 64
        E 0 88 45 64
        E 0 8f 32 64
        E 0 92 44 64
        E 0 93 3e 5a
        E 0 98 44 64
        E 0 9f 34 5a
        E 0 82 44 64
        E 0 88 44 64
        E 0 92 40 64
        E 0 98 40 64
        E 0 82 40 64
        E 0 83 3e 64
        E 0 88 40 64
        E 0 8f 34 64
        E 0 92 47 64
        E 0 93 3e 5a
        E 0 98 47 64
        E 0 9f 34 5a
        E 0 82 47 64
        E 0 88 47 64
        E 0 92 44 64
        E 0 98 44 64
        E 0 82 44 64
        E 0 83 3e 64
        E 0 88 44 64
        E 0 8f 34 64
        E 0 92 47 64
        E 0 93 3e 5a
        E 0 98 4c 64
        E 0 9f 34 5a
        E 0 88 4c 64
        E 0 98 4a 64
        E 0 82 47 64
        E 1 83 3e 64
        E 0 88 4a 64
        E 0 8f 34 64
        E 0 92 47 64
        E 0 93 3e 5a
        E 0 98 48 64
        E 0 9f 34 5a
        E 0 88 48 64
        E 0 98 47 64
        E 0 82 47 64
        E 0 83 3e 64
        E 0 88 47 64
        E 0 8f 34 64
        E 0 92 45 64
        E 0 93 3c 5a
        E 0 98 48 64
        E 0 9f 2d 5a
        E 0 82 45 64
        E 0 92 40 64
        E 0 82 40 64
        E 0 83 3c 64
        E 0 88 48 64
        E 0 8f 2d 64
        E 0 92 48 64
        E 0 93 3c 5a
        E 0 98 45 64
        E 0 9f 2d 5a
        E 0 82 48 64
        E 0 92 45 64
        E 0 82 45 64
        E 0 83 3c 64
        E 0 88 45 64
        E 0 8f 2d 64
        E 0 92 4c 64
        E 0 93 3c 5a
        E 0 9f 2d 5a
        E 0 82 4c 64
        E 0 92 48 64
        E 0 82 48 64
        E 0 83 3c 64
        E 0 8f 2d 64
        E 0 92 51 64
        E 0 93 3c 5a
        E 0 98 4c 64
        E 0 9f 2d 5a
        E 0 82 51 64
        E 0 92 4c 64
        E 0 82 4c 64
        E 0 83 3c 64
        E 0 88 4c 64
        E 0 8f 2d 64
        E 0 92 53 64
        E 0 92 51 64
        E 0 93 3c 5a
        E 0 98 51 64
        E 0 9f 2d 5a
        E 0 82 51 64
        E 0 92 50 64
        E 0 82 50 64
        E 0 92 51 64
        E 0 82 53 64
        E 0 82 51 64
        E 0 83 3c 64
        E 0 88 51 64
        E 0 8f 2d 64
        E 0 92 53 64
        E 0 92 51 64
        E 0 93 3c 5a
        E 0 98 51 64
        E 0 9f 2d 5a
        E 0 82 51 64
        E 0 92 50 64
        E 0 82 50 64
        E 0 92 51 64
        E 0 82 53 64
        E 0 82 51 64
        E 0 83 3c 64
        E 0 88 51 64
        E 0 8f 2d 64
        E 0 92 53 64
        E 0 92 51 64
        E 0 93 3c 5a
        E 0 98 51 64
        E 0 9f 2d 5a
        E 0 82 51 64
        E 0 92 50 64
        E 0 82 50 64
        E 0 92 51 64
        E 0 82 53 64
        E 0 82 51 64
        E 0 83 3c 64
        E 0 88 51 64
        E 0 8f 2d 64
        E 0 92 53 64
        E 0 92 51 64
        E 0 93 3c 5a
        E 1 98 51 64
        E 0 9f 2d 5a
        E 0 82 51 64
        E 0 92 50 64
        E 0 82 50 64
        E 0 92 51 64
        E 0 82 53 64
        E 0 82 51 64
        E 0 83 3c 64
        E 0 88 51 64
        E 0 8f 2d 64
        E 0 92 51 64
        E 0 93 3c 5a
        E 0 98 51 64
        E 0 9f 2d 5a
        E 0 82 51 64
        E 0 83 3c 64
        E 0 88 51 64
        E 0 8f 2d 64
        E 0 92 4f 64
        E 0 93 3e 5a
        E 0 98 4f 64
        E 0 9f 2f 5a
        E 0 82 4f 64
        E 0 88 4f 64
        E 0 92 4d 64
        E 0 98 4d 64
        E 0 82 4d 64
        E 0 83 3e 64
        E 0 88 4d 64
        E 0 8f 2f 64
        E 0 92 4c 64
        E 0 93 40 5a
        E 0 98 4c 64
        E 0 9f 30 5a
        E 0 82 4c 64
        E 0 88 4c 64
        E 0 92 4a 64
        E 0 98 4a 64
        E 0 82 4a 64
        E 0 83 40 64
        E 0 88 4a 64
        E 0 8f 30 64
        E 0 92 48 64
        E 0 93 41 5a
        E 0 98 48 64
        E 0 9f 32 5a
        E 0 82 48 64
        E 0 88 48 64
        E 0 92 47 64
        E 0 98 47 64
        E 0 82 47 64
        E 0 83 41 64
        E 0 88 47 64
        E 0 8f 32 64
        E 0 92 40 64
        E 0 93 3b 5a
        E 0 98 40 64
        E 0 9f 34 5a
        E 0 82 40 64
        E 0 83 3b 64
        E 0 88 40 64
        E 0 8f 34 64
        E 0 92 4a 64
        E 1 93 41 5a
        E 0 98 4a 64
        E 0 9f 32 5a
        E 0 82 4a 64
        E 0 83 41 64
        E 0 88 4a 64
        E 0 8f 32 64
        E 0 92 48 64
        E 0 93 40 5a
        E 0 98 48 64
        E 0 9f 34 5a
        E 0 82 48 64
        E 0 88 48 64
        E 0 92 47 64
        E 0 98 47 64
        E 0 82 47 64
        E 0 83 40 64
        E 0 88 47 64
        E 0 8f 34 64
        E 0 92 45 64
        E 0 93 40 5a
        E 0 98 45 64
        E 0 9f 28 5a
        E 0 82 45 64
        E 0 88 45 64
        E 0 92 44 64
        E 0 98 44 64
        E 0 82 44 64
        E 0 83 40 64
        E 0 88 44 64
        E 0 8f 28 64
        E 0 92 45 64
        E 0 93 40 5a
        E 0 98 45 64
        E 0 9f 2d 5a
        E 0 82 45 64
        E 0 88 45 64
        E 0 92 40 64
        E 0 98 40 64
        E 0 82 40 64
        E 0 88 40 64
        E 0 92 45 64
        E 0 98 45 64
        E 0 82 45 64
        E 0 88 45 64
        E 0 92 48 64
        E 0 98 48 64
        E 0 82 48 64
        E 0 83 40 64
        E 0 88 48 64
        E 0 8f 2d 64
        E 0 92 45 64
        E 0 93 40 5a
        E 0 98 45 64
        E 0 9f 2d 5a
        E 0 82 45 64
        E 0 88 45 64
        E 0 92 40 64
        E 0 98 40 64
        E 0 82 40 64
        E 0 88 40 64
        E 0 92 45 64
        E 0 98 45 64
        E 0 82 45 64
        E 0 88 45 64
        E 0 92 48 64
        E 0 98 48 64
        E 0 82 48 64
        E 0 83 40 64
        E 0 88 48 64
        E 0 8f 2d 64
        E 0 92 47 64
        E 0 93 44 5a
        E 0 98 47 64
        E 0 9f 34 5a
        E 0 82 47 64
        E 0 88 47 64
        E 0 92 40 64
        E 0 98 40 64
        E 0 82 40 64
        E 0 88 40 64
        E 0 92 47 64
        E 0 98 47 64
        E 0 82 47 64
        E 0 88 47 64
        E 0 92 4a 64
        E 0 98 4a 64
        E 0 82 4a 64
        E 0 83 44 64
        E 0 88 4a 64
        E 0 8f 34 64
        E 0 92 47 64
        E 0 93 44 5a
        E 1 98 47 64
        E 0 9f 34 5a
        E 0 82 47 64
        E 0 88 47 64
        E 0 92 40 64
        E 0 98 40 64
        E 0 82 40 64
        E 0 88 40 64
        E 0 92 47 64
        E 0 98 47 64
        E 0 82 47 64
        E 0 88 47 64
        E 0 92 4a 64
        E 0 98 4a 64
        E 0 82 4a 64
        E 0 83 44 64
        E 0 88 4a 64
        E 0 8f 34 64
        E 0 92 48 64
        E 0 93 40 5a
        E 0 98 48 64
        E 0 9f 2d 5a
        E 0 82 48 64
        E 0 88 48 64
        E 0 92 45 64
        E 0 98 45 64
        E 0 82 45 64
        E 0 88 45 64
        E 0 92 48 64
        E 0 98 48 64
        E 0 82 48 64
        E 0 88 48 64
        E 0 92 4c 64
        E 0 98 4c 64
        E 0 82 4c 64
        E 0 83 40 64
        E 0 88 4c 64
        E 0 8f 2d 64
        E 0 92 48 64
        E 0 93 40 5a
        E 0 98 48 64
        E 0 9f 2d 5a
        E 0 82 48 64
        E 0 88 48 64
        E 0 92 45 64
        E 0 98 45 64
        E 0 82 45 64
        E 0 88 45 64
        E 0 92 48 64
        E 0 98 48 64
        E 0 82 48 64
        E 0 88 48 64
        E 0 92 4c 64
        E 0 98 4c 64
        E 0 82 4c 64
        E 0 83 40 64
        E 0 88 4c 64
        E 0 8f 2d 64
        E 0 92 4a 64
        E 0 93 41 5a
        E 0 98 4a 64
        E 0 9f 32 5a
        E 0 82 4a 64
        E 0 88 4a 64
        E 1 92 45 64
        E 0 98 45 64
        E 0 82 45 64
        E 0 88 45 64
        E 0 92 4a 64
        E 0 98 4a 64
        E 0 82 4a 64
        E 0 88 4a 64
        E 0 92 4d 64
        E 0 98 4d 64
        E 0 82 4d 64
        E 0 83 41 64
        E 0 88 4d 64
        E 0 8f 32 64
        E 0 92 4a 64
        E 0 93 41 5a
        E 0 98 4a 64
        E 0 9f 32 5a
        E 0 82 4a 64
        E 0 88 4a 64
        E 0 92 45 64
        E 0 98 45 64
        E 0 82 45 64
        E 0 88 45 64
        E 0 92 4a 64
        E 0 98 4a 64
        E 0 82 4a 64
        E 0 88 4a 64
        E 0 92 4d 64
        E 0 98 4d 64
        E 0 82 4d 64
        E 0 83 41 64
        E 0 88 4d 64
        E 0 8f 32 64
        E 0 92 44 64
        E 0 93 40 5a
        E 0 98 44 64
        E 0 9f 34 5a
        E 0 8f 34 64
        E 1 9f 32 5a
        E 0 8f 32 64
        E 0 9f 34 5a
        E 0 8f 34 64
        E 0 9f 35 5a
        E 0 82 44 64
        E 0 83 40 64
        E 0 88 44 64
        E 0 8f 35 64
        E 0 9f 34 5a
        E 0 8f 34 64
        E 0 9f 32 5a
        E 0 8f 32 64
        E 0 92 40 64
        E 0 93 40 5a
        E 0 98 40 64
        E 0 9f 30 5a
        E 0 8f 30 64
        E 0 9f 2f 5a
        E 0 82 40 64
        E 0 83 40 64
        E 0 88 40 64
        E 0 8f 2f 64
        E 0 92 45 64
        E 0 93 3c 5a
        E 0 98 45 64
        E 0 9f 2d 5a
        E 0 8f 2d 64
        E 0 9f 39 5a
        E 0 82 45 64
        E 0 83 3c 64
        E 0 88 45 64
        E 0 8f 39 64
        E 0 92 45 64
        E 0 93 3c 5a
        E 0 98 45 64
        E 0 9f 38 5a
        E 0 8f 38 64
        E 0 9f 39 5a
        E 0 82 45 64
        E 0 83 3c 64
        E 0 88 45 64
        E 0 8f 39 64
        E 0 92 48 64
        E 0 93 40 5a
        E 0 98 48 64
        E 0 9f 2d 5a
        E 0 8f 2d 64
        E 0 9f 39 5a
        E 0 82 48 64
        E 0 83 40 64
        E 0 88 48 64
        E 0 8f 39 64
        E 0 92 48 64
        E 0 93 40 5a
        E 0 98 48 64
        E 0 9f 38 5a
        E 0 8f 38 64
        E 0 9f 39 5a
        E 0 82 48 64
        E 0 83 40 64
        E 0 88 48 64
        E 0 8f 39 64
        E 0 92 4c 64
        E 0 93 45 5a
        E 0 98 4c 64
        E 0 9f 2d 5a
        E 0 8f 2d 64
        E 0 9f 39 5a
        E 0 82 4c 64
        E 1 83 45 64
        E 0 88 4c 64
        E 0 8f 39 64
        E 0 92 4c 64
        E 0 93 45 5a
        E 0 98 4c 64
        E 0 9f 38 5a
        E 0 8f 38 64
        E 0 9f 39 5a
        E 0 82 4c 64
        E 0 83 45 64
        E 0 88 4c 64
        E 0 8f 39 64
        E 0 92 51 64
        E 0 93 48 5a
        E 0 98 51 64
        E 0 9f 2d 5a
        E 0 8f 2d 64
        E 0 9f 39 5a
        E 0 82 51 64
        E 0 83 48 64
        E 0 88 51 64
        E 0 8f 39 64
        E 0 92 51 64
        E 0 93 48 5a
        E 0 98 51 64
        E 0 9f 38 5a
        E 0 8f 38 64
        E 0 9f 39 5a
        E 0 82 51 64
        E 0 83 48 64
        E 0 88 51 64
        E 0 8f 39 64
        E 0 92 51 64
        E 0 93 48 5a
        E 0 98 51 64
        E 0 9f 2d 5a
        E 0 82 51 64
        E 0 83 48 64
        E 0 88 51 64
        E 0 8f 2d 64
        E 0 92 4f 64
        E 1 93 45 5a
        E 0 98 4f 64
        E 0 9f 3e 5a
        E 0 82 4f 64
        E 0 88 4f 64
        E 0 92 4d 64
        E 0 98 4d 64
        E 0 82 4d 64
        E 0 83 45 64
        E 0 88 4d 64
        E 0 8f 3e 64
        E 0 92 4c 64
        E 0 93 47 5a
        E 0 98 4c 64
        E 0 9f 38 5a
        E 0 82 4c 64
        E 0 88 4c 64
        E 0 92 4a 64
        E 0 98 4a 64
        E 0 82 4a 64
        E 0 83 47 64
        E 0 88 4a 64
        E 0 8f 38 64
        E 0 92 48 64
        E 0 93 44 5a
        E 0 98 48 64
        E 0 9f 34 5a
        E 0 82 48 64
        E 0 88 48 64
        E 0 92 47 64
        E 0 98 47 64
        E 0 82 47 64
        E 0 83 44 64
        E 0 88 47 64
        E 0 8f 34 64
        E 0 92 45 64
        E 0 93 45 5a
        E 0 98 45 64
        E 0 9f 39 5a
        E 0 82 45 64
        E 0 83 45 64
        E 0 88 45 64
        E 0 8f 39 64
        E 0 92 39 64
        E 0 93 39 5a
        E 0 98 39 64
        E 0 9f 2d 5a
        E 0 82 39 64
        E 0 83 39 64
        E 0 88 39 64
        E 0 8f 2d 64
        E 0 92 4c 64
        E 0 93 40 5a
        E 0 98 4c 64
        E 0 9f 38 5a
        E 0 82 4c 64
        E 0 83 40 64
        E 0 88 4c 64
        E 0 8f 38 64
        E 1 92 48 64
        E 0 93 40 5a
        E 0 98 48 64
        E 0 9f 39 5a
        E 0 82 48 64
        E 0 88 48 64
        E 0 92 47 64
        E 0 98 47 64
        E 0 82 47 64
        E 0 88 47 64
        E 0 92 45 64
        E 0 98 45 64
        E 0 82 45 64
        E 0 83 40 64
        E 0 88 45 64
        E 0 8f 39 64
        E 0 92 47 64
        E 0 93 40 5a
        E 0 98 47 64
        E 0 9f 34 5a
        E 0 82 47 64
        E 0 88 47 64
        E 0 92 45 64
        E 0 98 45 64
        E 0 82 45 64
        E 0 83 40 64
        E 0 88 45 64
        E 0 8f 34 64
        E 0 92 45 64
        E 0 93 3c 5a
        E 0 98 45 64
        E 0 9f 2d 5a
        E 38403 82 45 64
        E 0 83 3c 64
        E 0 88 45 64
        E 0 8f 2d 64
        E 0 92 37 64
        E 0 93 37 5a
        E 0 9f 2b 5a
        E 0 82 37 64
        E 0 92 43 64
        E 1 82 43 64
        E 0 83 37 64
        E 0 8f 2b 64
        E 0 92 4f 64
        E 0 93 37 5a
        E 0 9f 2b 5a
        E 0 82 4f 64
        E 0 92 43 64
        E 0 82 43 64
        E 0 83 37 64
        E 0 8f 2b 64
        E 0 92 37 64
        E 0 93 37 5a
        E 0 9f 2b 5a
        E 0 82 37 64
        E 0 92 43 64
        E 0 82 43 64
        E 0 83 37 64
        E 0 8f 2b 64
        E 0 92 4f 64
        E 0 93 37 5a
        E 0 9f 2b 5a
        E 0 82 4f 64
        E 0 92 43 64
        E 0 82 43 64
        E 0 83 37 64
        E 0 8f 2b 64
        E 0 92 37 64
        E 0 93 37 5a
        E 0 9f 2b 5a
        E 0 82 37 64
        E 0 92 43 64
        E 0 82 43 64
        E 0 83 37 64
        E 0 8f 2b 64
        E 0 92 4f 64
        E 0 93 37 5a
        E 0 9f 2b 5a
        E 0 82 4f 64
        E 0 92 43 64
        E 0 82 43 64
        E 0 83 37 64
        E 0 8f 2b 64
        E 0 92 37 64
        E 0 93 37 5a
        E 0 9f 2b 5a
        E 0 82 37 64
        E 0 92 43 64
        E 0 82 43 64
        E 0 83 37 64
        E 0 8f 2b 64
        E 0 92 4f 64
        E 0 93 37 5a
        E 0 9f 2b 5a
        E 0 82 4f 64
        E 0 92 43 64
        E 0 82 43 64
        E 0 83 37 64
        E 0 8f 2b 64
        E 0 92 37 64
        E 0 93 37 5a
        E 0 9f 2b 5a
        E 0 82 37 64
        E 0 92 43 64
        E 0 82 43 64
        E 0 83 37 64
        E 0 8f 2b 64
        E 0 92 4f 64
        E 0 93 37 5a
        E 0 9f 2b 5a
        E 0 82 4f 64
        E 0 92 43 64
        E 0 82 43 64
        E 0 83 37 64
        E 0 8f 2b 64
        E 1 92 37 64
        E 0 93 37 5a
        E 0 9f 2b 5a
        E 0 82 37 64
        E 0 92 43 64
        E 0 82 43 64
        E 0 83 37 64
        E 0 8f 2b 64
        E 0 92 4f 64
        E 0 93 37 5a
        E 0 9f 2b 5a
        E 1 82 4f 64
        E 0 92 43 64
        E 0 82 43 64
        E 0 83 37 64
        E 0 8f 2b 64
        E 0 92 3e 64
        E 0 93 3e 5a
        E 0 9f 32 5a
        E 0 82 3e 64
        E 0 92 4a 64
        E 0 82 4a 64
        E 0 83 3e 64
        E 0 8f 32 64
        E 0 92 56 64
        E 0 93 3e 5a
        E 0 9f 32 5a
        E 0 82 56 64
        E 0 92 4a 64
        E 0 82 4a 64
        E 0 83 3e 64
        E 0 8f 32 64
        E 0 92 3e 64
        E 0 93 3e 5a
        E 0 9f 32 5a
        E 0 82 3e 64
        E 0 92 4a 64
        E 0 82 4a 64
        E 0 83 3e 64
        E 0 8f 32 64
        E 0 92 56 64
        E 0 93 3e 5a
        E 0 9f 32 5a
        E 0 82 56 64
        E 0 92 4a 64
        E 0 82 4a 64
        E 0 83 3e 64
        E 0 8f 32 64
        E 0 92 3e 64
        E 0 93 3e 5a
        E 0 9f 32 5a
        E 0 82 3e 64
        E 0 92 4a 64
        E 0 82 4a 64
        E 0 83 3e 64
        E 0 8f 32 64
        E 0 92 56 64
        E 1 93 3e 5a
        E 0 9f 32 5a
        E 0 82 56 64
        E 0 92 4a 64
        E 0 82 4a 64
        E 0 83 3e 64
        E 0 8f 32 64
        E 0 92 3e 64
        E 0 93 3e 5a
        E 0 9f 32 5a
        E 0 82 3e 64
        E 0 92 4a 64
        E 0 82 4a 64
        E 0 83 3e 64
        E 0 8f 32 64
        E 0 92 56 64
        E 0 93 3e 5a
        E 0 9f 32 5a
        E 0 82 56 64
        E 0 92 4a 64
        E 0 82 4a 64
        E 0 83 3e 64
        E 0 8f 32 64
        E 0 92 3e 64
        E 0 93 3e 5a
        E 0 9f 32 5a
        E 0 82 3e 64
        E 0 92 4a 64
        E 0 82 4a 64
        E 0 83 3e 64
        E 0 8f 32 64
        E 0 92 56 64
        E 0 93 3e 5a
        E 0 9f 32 5a
        E 0 82 56 64
        E 0 92 4a 64
        E 0 82 4a 64
        E 0 83 3e 64
        E 0 8f 32 64
        E 0 92 3e 64
        E 0 93 3e 5a
        E 0 9f 32 5a
        E 0 82 3e 64
        E 0 92 4a 64
        E 0 82 4a 64
        E 0 83 3e 64
        E 0 8f 32 64
        E 0 92 56 64
        E 0 93 3e 5a
        E 0 9f 32 5a
        E 0 82 56 64
        E 0 92 4a 64
        E 0 82 4a 64
        E 1 83 3e 64
        E 0 8f 32 64
        E 0 92 37 64
        E 0 93 3e 5a
        E 0 9f 2b 5a
        E 0 82 37 64
        E 0 92 43 64
        E 0 82 43 64
        E 0 83 3e 64
        E 0 8f 2b 64
        E 0 92 4f 64
        E 0 93 3e 5a
        E 0 9f 2b 5a
        E 0 82 4f 64
        E 0 92 43 64
        E 0 82 43 64
        E 0 83 3e 64
        E 0 8f 2b 64
        E 0 92 37 64
        E 0 93 3e 5a
        E 0 9f 2b 5a
        E 0 82 37 64
        E 0 92 43 64
        E 0 82 43 64
        E 0 83 3e 64
        E 0 8f 2b 64
        E 0 92 4f 64
        E 0 93 3e 5a
        E 0 9f 2b 5a
        E 0 82 4f 64
        E 0 92 43 64
        E 0 82 43 64
        E 0 83 3e 64
        E 0 8f 2b 64
        E 0 92 37 64
        E 0 93 3e 5a
        E 0 9f 2b 5a
        E 0 82 37 64
        E 0 92 43 64
        E 0 82 43 64
        E 0 83 3e 64
        E 0 8f 2b 64
        E 0 92 4f 64
        E 0 93 3e 5a
        E 0 9f 2b 5a
        E 0 82 4f 64
        E 0 92 43 64
        E 0 82 43 64
        E 0 83 3e 64
        E 0 8f 2b 64
        E 0 92 37 64
        E 0 93 3e 5a
        E 0 9f 2b 5a
        E 0 82 37 64
        E 0 92 43 64
        E 1 82 43 64
        E 0 83 3e 64
        E 0 8f 2b 64
        E 0 92 4d 64
        E 0 93 3e 5a
        E 0 9f 2b 5a
        E 0 82 4d 64
        E 0 92 43 64
        E 0 82 43 64
        E 0 83 3e 64
        E 0 8f 2b 64
        E 0 92 37 64
        E 0 93 3e 5a
        E 0 9f 2b 5a
        E 0 82 37 64
        E 0 92 43 64
        E 0 82 43 64
        E 0 83 3e 64
        E 0 8f 2b 64
        E 0 92 4d 64
        E 0 93 3e 5a
        E 0 9f 2b 5a
        E 0 82 4d 64
        E 0 92 43 64
        E 0 82 43 64
        E 0 83 3e 64
        E 0 8f 2b 64
        E 0 92 37 64
        E 0 93 3e 5a
        E 0 9f 2b 5a
        E 0 82 37 64
        E 0 92 43 64
        E 0 82 43 64
        E 0 83 3e 64
        E 0 8f 2b 64
        E 0 92 4d 64
        E 0 93 3e 5a
        E 0 9f 2b 5a
        E 0 82 4d 64
        E 0 92 43 64
        E 0 82 43 64
        E 0 83 3e 64
        E 0 8f 2b 64
        E 0 92 37 64
        E 0 93 3c 5a
        E 0 9f 2b 5a
        E 0 82 37 64
        E 0 92 43 64
        E 0 82 43 64
        E 0 83 3c 64
        E 0 8f 2b 64
        E 0 92 4c 64
        E 0 93 3c 5a
        E 0 9f 2b 5a
        E 0 82 4c 64
        E 0 92 43 64
        E 0 82 43 64
        E 0 83 3c 64
        E 0 8f 2b 64
        E 0 92 37 64
        E 0 93 3c 5a
        E 0 9f 2b 5a
        E 0 82 37 64
        E 1 92 43 64
        E 0 82 43 64
        E 0 83 3c 64
        E 0 8f 2b 64
        E 0 92 4c 64
        E 0 93 3c 5a
        E 0 9f 2b 5a
        E 0 82 4c 64
        E 0 92 43 64
        E 0 82 43 64
        E 0 83 3c 64
        E 0 8f 2b 64
        E 0 92 37 64
        E 0 93 3c 5a
        E 0 9f 2b 5a
        E 0 82 37 64
        E 0 92 43 64
        E 0 82 43 64
        E 0 83 3c 64
        E 0 8f 2b 64
        E 0 92 4c 64
        E 0 93 3c 5a
        E 0 9f 2b 5a
        E 0 82 4c 64
        E 0 92 43 64
        E 0 82 43 64
        E 0 83 3c 64
        E 0 8f 2b 64
        E 0 92 37 64
        E 0 93 3b 5a
        E 0 9f 2b 5a
        E 0 82 37 64
        E 0 92 43 64
        E 0 82 43 64
        E 0 83 3b 64
        E 0 8f 2b 64
        E 0 92 4a 64
        E 0 93 3b 5a
        E 0 9f 2b 5a
        E 0 82 4a 64
        E 0 92 43 64
        E 0 82 43 64
        E 0 83 3b 64
        E 0 8f 2b 64
        E 0 92 37 64
        E 0 93 3b 5a
        E 0 9f 2b 5a
        E 0 82 37 64
        E 0 92 43 64
        E 0 82 43 64
        E 0 83 3b 64
        E 0 8f 2b 64
        E 0 92 4a 64
        E 1 93 3b 5a
        E 0 9f 2b 5a
        E 0 82 4a 64
        E 0 92 43 64
        E 0 82 43 64
        E 0 83 3b 64
        E 0 8f 2b 64
        E 0 92 37 64
        E 0 93 3b 5a
        E 0 9f 2b 5a
        E 0 82 37 64
        E 0 92 43 64
        E 0 82 43 64
        E 0 83 3b 64
        E 0 8f 2b 64
        E 0 92 4a 64
        E 0 93 3b 5a
        E 0 9f 2b 5a
        E 0 82 4a 64
        E 0 92 43 64
        E 0 82 43 64
        E 0 83 3b 64
        E 0 8f 2b 64
        E 0 92 37 64
        E 0 93 3e 5a
        E 0 9f 2b 5a
        E 0 82 37 64
        E 0 92 43 64
        E 0 82 43 64
        E 0 83 3e 64
        E 0 8f 2b 64
        E 0 92 4f 64
        E 0 93 3e 5a
        E 0 9f 2b 5a
        E 0 82 4f 64
        E 0 92 43 64
        E 0 82 43 64
        E 0 83 3e 64
        E 0 8f 2b 64
        E 0 92 37 64
        E 0 93 3e 5a
        E 0 9f 2b 5a
        E 0 82 37 64
        E 0 92 43 64
        E 0 82 43 64
        E 0 83 3e 64
        E 0 8f 2b 64
        E 0 92 4f 64
        E 0 93 3e 5a
        E 0 9f 2b 5a
        E 0 82 4f 64
        E 0 92 43 64
        E 0 82 43 64
        E 0 83 3e 64
        E 0 8f 2b 64
        E 0 92 37 64
        E 1 93 3e 5a
        E 0 9f 2b 5a
        E 0 82 37 64
        E 0 92 43 64
        E 0 82 43 64
        E 0 83 3e 64
        E 0 8f 2b 64
        E 0 92 4f 64
        E 0 93 3e 5a
        E 0 9f 2b 5a
        E 0 82 4f 64
        E 0 92 43 64
        E 0 82 43 64
        E 0 83 3e 64
        E 0 8f 2b 64
        E 0 92 37 64
        E 0 93 3e 5a
        E 0 9f 2b 5a
        E 0 82 37 64
        E 0 92 43 64
        E 0 82 43 64
        E 0 83 3e 64
        E 0 8f 2b 64
        E 0 92 4d 64
        E 0 93 3e 5a
        E 0 9f 2b 5a
        E 0 82 4d 64
        E 0 92 43 64
        E 0 82 43 64
        E 0 83 3e 64
        E 0 8f 2b 64
        E 0 92 37 64
        E 0 93 3e 5a
        E 0 9f 2b 5a
        E 0 82 37 64
        E 0 92 43 64
        E 0 82 43 64
        E 0 83 3e 64
        E 0 8f 2b 64
        E 0 92 4d 64
        E 0 93 3e 5a
        E 0 9f 2b 5a
        E 0 82 4d 64
        E 0 92 43 64
        E 0 82 43 64
        E 0 83 3e 64
        E 0 8f 2b 64
        E 0 92 37 64
        E 0 93 3e 5a
        E 0 9f 2b 5a
        E 0 82 37 64
        E 0 92 43 64
        E 0 82 43 64
        E 0 83 3e 64
        E 0 8f 2b 64
        E 0 92 4d 64
        E 0 93 3e 5a
        E 0 9f 2b 5a
        E 0 82 4d 64
        E 0 92 43 64
        E 0 82 43 64
        E 0 83 3e 64
        E 0 8f 2b 64
        E 0 92 37 64
        E 0 93 3c 5a
        E 0 9f 2b 5a
        E 0 82 37 64
        E 0 92 43 64
        E 0 82 43 64
        E 0 83 3c 64
        E 0 8f 2b 64
        E 0 92 4c 64
        E 0 93 3c 5a
        E 0 9f 2b 5a
        E 0 82 4c 64
        E 0 92 43 64
        E 0 82 43 64
        E 0 83 3c 64
        E 0 8f 2b 64
        E 0 92 37 64
        E 0 93 3c 5a
        E 0 9f 2b 5a
        E 0 82 37 64
        E 0 92 43 64
        E 0 82 43 64
        E 0 83 3c 64
        E 0 8f 2b 64
        E 0 92 4c 64
        E 0 93 3c 5a
        E 0 9f 2b 5a
        E 0 82 4c 64
        E 0 92 43 64
        E 0 82 43 64
        E 0 83 3c 64
        E 0 8f 2b 64
        E 0 92 37 64
        E 0 93 3c 5a
        E 0 9f 2b 5a
        E 0 82 37 64
        E 0 92 43 64
        E 0 82 43 64
        E 0 83 3c 64
        E 0 8f 2b 64
        E 0 92 4c 64
        E 0 93 3c 5a
        E 0 9f 2b 5a
        E 0 82 4c 64
        E 0 92 43 64
        E 0 82 43 64
        E 0 83 3c 64
        E 0 8f 2b 64
        E 0 92 37 64
        E 0 92 43 64
        E 0 92 4a 64
        E 0 93 3b 5a
        E 1 9f 2b 5a
        E 0 83 3b 64
        E 0 8f 2b 64
        E 0 93 37 5a
        E 0 9f 2b 5a
        E 0 82 37 64
        E 0 82 43 64
        E 0 82 4a 64
        E 0 83 37 64
        E 0 8f 2b 64
        E 0 93 37 5a
        E 0 9f 2b 5a
        E 0 83 37 64
        E 0 8f 2b 64
        E 0 93 37 5a
        E 0 9f 2b 5a
        E 0 92 47 64
        E 0 82 47 64
        E 0 92 48 64
        E 0 82 48 64
        E 0 92 4a 64
        E 0 82 4a 64
        E 0 83 37 64
        E 0 8f 2b 64
        E 0 92 4c 64
        E 0 93 37 5a
        E 0 9f 2b 5a
        E 0 82 4c 64
        E 0 83 37 64
        E 0 8f 2b 64
        E 0 92 4c 64
        E 0 93 37 5a
        E 0 9f 2b 5a
        E 0 82 4c 64
        E 0 83 37 64
        E 0 8f 2b 64
        E 0 92 4c 64
        E 0 93 37 5a
        E 0 9f 2b 5a
        E 38403 83 37 64
        E 0 8f 2b 64
        E 0 93 37 5a
        E 0 9f 2b 5a
        E 0 82 4c 64
        E 0 83 37 64
        E 0 8f 2b 64
        E 0 92 4a 64
        E 1 93 37 5a
        E 0 9f 2b 5a
        E 0 82 4a 64
        E 0 83 37 64
        E 0 8f 2b 64
        E 0 92 4a 64
        E 0 93 37 5a
        E 0 9f 2b 5a
        E 0 82 4a 64
        E 0 92 47 64
        E 0 82 47 64
        E 0 92 48 64
        E 0 82 48 64
        E 0 92 4a 64
        E 0 82 4a 64
        E 0 83 37 64
        E 0 8f 2b 64
        E 0 92 4c 64
        E 0 93 37 5a
        E 0 9f 2b 5a
        E 0 82 4c 64
        E 0 83 37 64
        E 0 8f 2b 64
        E 0 92 4c 64
        E 0 93 37 5a
        E 0 9f 2b 5a
        E 0 82 4c 64
        E 0 83 37 64
        E 0 8f 2b 64
        E 0 92 4c 64
        E 0 93 37 5a
        E 0 9f 2b 5a
        E 0 83 37 64
        E 0 8f 2b 64
        E 0 93 37 5a
        E 0 9f 2b 5a
        E 0 82 4c 64
        E 0 83 37 64
        E 0 8f 2b 64
        E 0 92 4a 64
        E 0 93 37 5a
        E 0 9f 2b 5a
        E 0 82 4a 64
        E 0 83 37 64
        E 0 8f 2b 64
        E 0 92 4a 64
        E 0 93 37 5a
        E 0 9f 2b 5a
        E 0 82 4a 64
        E 0 92 4e 64
        E 0 82 4e 64
        E 0 92 4f 64
        E 0 82 4f 64
        E 0 92 51 64
        E 0 82 51 64
        E 0 83 37 64
        E 0 8f 2b 64
        E 0 92 53 64
        E 0 93 37 5a
        E 0 9f 2b 5a
        E 0 82 53 64
        E 0 83 37 64
        E 0 8f 2b 64
        E 0 92 53 64
        E 0 93 37 5a
        E 0 9f 2b 5a
        E 0 82 53 64
        E 0 83 37 64
        E 0 8f 2b 64
        E 0 92 53 64
        E 0 93 3e 5a
        E 0 9f 32 5a
        E 0 83 3e 64
        E 0 8f 32 64
        E 0 93 3e 5a
        E 0 9f 32 5a
        E 0 82 53 64
        E 0 83 3e 64
        E 0 8f 32 64
        E 0 92 51 64
        E 1 93 3e 5a
        E 0 9f 32 5a
        E 0 82 51 64
        E 0 83 3e 64
        E 0 8f 32 64
        E 0 92 51 64
        E 0 93 3e 5a
        E 0 9f 32 5a
        E 0 82 51 64
        E 0 92 4e 64
        E 0 82 4e 64
        E 0 92 4f 64
        E 0 82 4f 64
        E 0 92 51 64
        E 0 82 51 64
        E 0 83 3e 64
        E 0 8f 32 64
        E 0 92 53 64
        E 0 93 3e 5a
        E 0 9f 32 5a
        E 0 82 53 64
        E 0 83 3e 64
        E 0 8f 32 64
        E 0 92 53 64
        E 0 93 3e 5a
        E 0 9f 32 5a
        E 0 82 53 64
        E 0 83 3e 64
        E 0 8f 32 64
        E 0 92 53 64
        E 0 93 3e 5a
        E 0 9f 32 5a
        E 0 83 3e 64
        E 0 8f 32 64
        E 0 93 3e 5a
        E 0 9f 32 5a
        E 0 82 53 64
        E 0 83 3e 64
        E 0 8f 32 64
        E 0 92 51 64
        E 0 93 3e 5a
        E 0 9f 32 5a
        E 0 82 51 64
        E 0 83 3e 64
        E 0 8f 32 64
        E 0 92 51 64
        E 0 93 3e 5a
        E 0 9f 32 5a
        E 0 82 51 64
        E 0 92 4f 64
        E 0 82 4f 64
        E 0 92 4e 64
        E 0 82 4e 64
        E 0 92 4c 64
        E 0 82 4c 64
        E 0 83 3e 64
        E 0 8f 32 64
        E 0 92 4a 64
        E 0 93 3e 5a
        E 0 9f 32 5a
        E 0 82 4a 64
        E 0 83 3e 64
        E 0 8f 32 64
        E 0 92 48 64
        E 0 93 3e 5a
        E 0 9f 32 5a
        E 0 82 48 64
        E 0 83 3e 64
        E 0 8f 32 64
        E 0 92 47 64
        E 0 93 43 5a
        E 0 9f 2b 5a
        E 0 83 43 64
        E 0 8f 2b 64
        E 0 93 47 5a
        E 0 9f 2b 5a
        E 0 82 47 64
        E 0 92 48 64
        E 0 82 48 64
        E 0 92 4a 64
        E 0 82 4a 64
        E 0 83 47 64
        E 0 8f 2b 64
        E 0 92 47 64
        E 0 93 43 5a
        E 0 9f 2b 5a
        E 0 83 43 64
        E 0 8f 2b 64
        E 0 93 47 5a
        E 0 9f 2b 5a
        E 0 82 47 64
        E 0 92 48 64
        E 0 82 48 64
        E 0 92 4a 64
        E 0 82 4a 64
        E 0 83 47 64
        E 0 8f 2b 64
        E 0 92 45 64
        E 0 93 42 5a
        E 0 9f 32 5a
        E 0 82 45 64
        E 0 83 42 64
        E 0 8f 32 64
        E 1 92 4a 64
        E 0 93 45 5a
        E 0 9f 32 5a
        E 0 82 4a 64
        E 0 83 45 64
        E 0 8f 32 64
        E 0 92 47 64
        E 0 93 43 5a
        E 0 9f 2b 5a
        E 0 83 43 64
        E 0 8f 2b 64
        E 0 93 47 5a
        E 0 9f 2b 5a
        E 0 82 47 64
        E 0 92 48 64
        E 0 82 48 64
        E 0 92 4a 64
        E 0 82 4a 64
        E 0 83 47 64
        E 0 8f 2b 64
        E 0 92 47 64
        E 0 93 43 5a
        E 0 9f 2b 5a
        E 0 83 43 64
        E 0 8f 2b 64
        E 0 93 47 5a
        E 0 9f 2b 5a
        E 0 82 47 64
        E 0 92 48 64
        E 0 82 48 64
        E 0 92 4a 64
        E 0 82 4a 64
        E 0 83 47 64
        E 0 8f 2b 64
        E 0 92 45 64
        E 0 93 42 5a
        E 0 9f 32 5a
        E 0 82 45 64
        E 0 83 42 64
        E 0 8f 32 64
        E 0 92 4a 64
        E 0 93 45 5a
        E 0 9f 32 5a
        E 0 82 4a 64
        E 0 83 45 64
        E 0 8f 32 64
        E 0 92 47 64
        E 0 93 43 5a
        E 0 9f 2b 5a
        E 0 82 47 64
        E 0 83 43 64
        E 0 8f 2b 64
        E 0 92 43 64
        E 0 93 3e 5a
        E 0 9f 2b 5a
        E 0 82 43 64
        E 0 83 3e 64
        E 0 8f 2b 64
        E 0 93 3e 5a
        E 0 9f 2b 5a
        E 0 83 3e 64
        E 0 8f 2b 64
        E 0 93 3e 5a
        E 0 9f 2b 5a
        E 0 92 56 64
        E 0 82 56 64
        E 0 92 54 64
        E 0 82 54 64
        E 0 92 53 64
        E 1 82 53 64
        E 0 83 3e 64
        E 0 8f 2b 64
        E 0 92 51 64
        E 0 93 3e 5a
        E 0 9f 31 5a
        E 0 82 51 64
        E 0 83 3e 64
        E 0 8f 31 64
        E 0 92 4f 64
        E 0 93 3e 5a
        E 0 9f 31 5a
        E 0 82 4f 64
        E 0 83 3e 64
        E 0 8f 31 64
        E 0 92 4e 64
        E 0 93 39 5a
        E 0 9f 32 5a
        E 0 83 39 64
        E 0 8f 32 64
        E 0 93 42 5a
        E 0 9f 32 5a
        E 0 82 4e 64
        E 0 92 4f 64
        E 0 82 4f 64
        E 0 92 51 64
        E 0 82 51 64
        E 0 83 42 64
        E 0 8f 32 64
        E 0 92 4e 64
        E 0 93 3e 5a
        E 0 9f 32 5a
        E 0 83 3e 64
        E 0 8f 32 64
        E 0 93 42 5a
        E 0 9f 32 5a
        E 0 82 4e 64
        E 0 92 4f 64
        E 0 82 4f 64
        E 0 92 51 64
        E 0 82 51 64
        E 0 83 42 64
        E 0 8f 32 64
        E 0 92 4c 64
        E 0 93 3d 5a
        E 0 9f 39 5a
        E 0 82 4c 64
        E 0 83 3d 64
        E 0 8f 39 64
        E 0 92 51 64
        E 0 93 40 5a
        E 0 9f 39 5a
        E 0 82 51 64
        E 0 83 40 64
        E 1 8f 39 64
        E 0 92 4e 64
        E 0 93 3e 5a
        E 0 9f 32 5a
        E 0 83 3e 64
        E 0 8f 32 64
        E 0 93 42 5a
        E 0 9f 32 5a
        E 0 82 4e 64
        E 0 92 4f 64
        E 0 82 4f 64
        E 0 92 51 64
        E 0 82 51 64
        E 0 83 42 64
        E 0 8f 32 64
        E 0 92 4e 64
        E 0 93 3e 5a
        E 0 9f 32 5a
        E 0 83 3e 64
        E 0 8f 32 64
        E 0 93 42 5a
        E 0 9f 32 5a
        E 0 82 4e 64
        E 0 92 4f 64
        E 0 82 4f 64
        E 0 92 51 64
        E 0 82 51 64
        E 0 83 42 64
        E 0 8f 32 64
        E 0 92 4c 64
        E 0 93 3d 5a
        E 0 9f 39 5a
        E 0 82 4c 64
        E 0 83 3d 64
        E 0 8f 39 64
        E 0 92 51 64
        E 0 93 40 5a
        E 0 9f 39 5a
        E 0 82 51 64
        E 0 83 40 64
        E 0 8f 39 64
        E 0 92 4e 64
        E 0 93 3e 5a
        E 0 9f 32 5a
        E 0 82 4e 64
        E 0 83 3e 64
        E 0 8f 32 64
        E 1 92 4a 64
        E 0 93 42 5a
        E 0 9f 32 5a
        E 0 82 4a 64
        E 0 83 42 64
        E 0 8f 32 64
        E 0 93 42 5a
        E 0 9f 32 5a
        E 0 83 42 64
        E 0 8f 32 64
        E 0 93 42 5a
        E 0 9f 32 5a
        E 0 92 4a 64
        E 0 82 4a 64
        E 0 92 4e 64
        E 0 82 4e 64
        E 0 92 51 64
        E 0 82 51 64
        E 0 83 42 64
        E 0 8f 32 64
        E 0 92 56 64
        E 0 93 45 5a
        E 0 9f 36 5a
        E 0 82 56 64
        E 0 83 45 64
        E 0 8f 36 64
        E 0 92 54 64
        E 0 93 45 5a
        E 0 9f 36 5a
        E 0 82 54 64
        E 0 83 45 64
        E 0 8f 36 64
        E 0 92 53 64
        E 0 93 43 5a
        E 0 9f 37 5a
        E 0 83 43 64
        E 0 8f 37 64
        E 0 93 47 5a
        E 0 9f 37 5a
        E 0 82 53 64
        E 0 92 54 64
        E 0 82 54 64
        E 0 92 56 64
        E 0 82 56 64
        E 0 83 47 64
        E 0 8f 37 64
        E 0 92 53 64
        E 0 93 43 5a
        E 0 9f 37 5a
        E 0 83 43 64
        E 0 8f 37 64
        E 0 93 47 5a
        E 0 9f 37 5a
        E 0 82 53 64
        E 0 92 54 64
        E 0 82 54 64
        E 0 92 56 64
        E 0 82 56 64
        E 0 83 47 64
        E 0 8f 37 64
        E 0 92 51 64
        E 0 93 42 5a
        E 1 9f 3e 5a
        E 0 82 51 64
        E 0 83 42 64
        E 0 8f 3e 64
        E 0 92 56 64
        E 0 93 45 5a
        E 0 9f 3e 5a
        E 0 82 56 64
        E 0 83 45 64
        E 0 8f 3e 64
        E 0 92 53 64
        E 0 93 43 5a
        E 0 9f 37 5a
        E 0 83 43 64
        E 0 8f 37 64
        E 0 93 47 5a
        E 0 9f 37 5a
        E 0 82 53 64
        E 0 92 54 64
        E 0 82 54 64
        E 0 92 56 64
        E 0 82 56 64
        E 0 83 47 64
        E 0 8f 37 64
        E 0 92 53 64
        E 0 93 43 5a
        E 0 9f 37 5a
        E 0 83 43 64
        E 0 8f 37 64
        E 0 93 47 5a
        E 0 9f 37 5a
        E 0 82 53 64
        E 0 92 54 64
        E 0 82 54 64
        E 0 92 56 64
        E 0 82 56 64
        E 0 83 47 64
        E 0 8f 37 64
        E 0 92 51 64
        E 0 93 42 5a
        E 0 9f 3e 5a
        E 0 82 51 64
        E 0 83 42 64
        E 0 8f 3e 64
        E 0 92 56 64
        E 0 93 45 5a
        E 0 9f 3e 5a
        E 0 82 56 64
        E 0 83 45 64
        E 0 8f 3e 64
        E 0 92 53 64
        E 0 93 43 5a
        E 0 9f 37 5a
        E 0 82 53 64
        E 0 83 43 64
        E 0 8f 37 64
        E 0 92 55 64
        E 0 93 43 5a
        E 0 9f 34 5a
        E 0 82 55 64
        E 0 83 43 64
        E 0 8f 34 64
        E 0 92 56 64
        E 0 93 45 5a
        E 0 9f 36 5a
        E 0 82 56 64
        E 0 83 45 64
        E 0 8f 36 64
        E 0 92 4e 64
        E 0 93 42 5a
        E 0 9f 32 5a
        E 0 82 4e 64
        E 0 83 42 64
        E 0 8f 32 64
        E 0 92 45 64
        E 0 93 40 5a
        E 0 9f 39 5a
        E 0 82 45 64
        E 0 83 40 64
        E 0 8f 39 64
        E 0 92 55 64
        E 0 93 40 5a
        E 1 9f 2d 5a
        E 0 82 55 64
        E 0 83 40 64
        E 0 8f 2d 64
        E 0 92 3e 64
        E 0 93 3e 5a
        E 0 9f 32 5a
        E 0 82 3e 64
        E 0 92 4a 64
        E 0 82 4a 64
        E 0 83 3e 64
        E 0 8f 32 64
        E 0 92 56 64
        E 0 93 3e 5a
        E 0 9f 32 5a
        E 0 82 56 64
        E 0 92 4a 64
        E 0 82 4a 64
        E 0 83 3e 64
        E 0 8f 32 64
        E 0 92 3e 64
        E 0 93 3e 5a
        E 0 9f 32 5a
        E 0 82 3e 64
        E 0 92 4a 64
        E 0 82 4a 64
        E 0 83 3e 64
        E 0 8f 32 64
        E 0 92 56 64
        E 0 93 3e 5a
        E 0 9f 32 5a
        E 38403 82 56 64
        E 0 92 4a 64
        E 0 82 4a 64
        E 0 83 3e 64
        E 0 8f 32 64
        E 0 92 3e 64
        E 0 93 3e 5a
        E 0 9f 32 5a
        E 0 82 3e 64
        E 0 92 4a 64
        E 0 82 4a 64
        E 0 83 3e 64
        E 0 8f 32 64
        E 0 92 56 64
        E 0 93 3e 5a
        E 0 9f 32 5a
        E 1 82 56 64
        E 0 92 4a 64
        E 0 82 4a 64
        E 0 83 3e 64
        E 0 8f 32 64
        E 0 92 3e 64
        E 0 93 42 5a
        E 0 9f 32 5a
        E 0 82 3e 64
        E 0 92 4a 64
        E 0 82 4a 64
        E 0 83 42 64
        E 0 8f 32 64
        E 0 92 54 64
        E 0 93 42 5a
        E 0 9f 32 5a
        E 0 82 54 64
        E 0 92 4a 64
        E 0 82 4a 64
        E 0 83 42 64
        E 0 8f 32 64
        E 0 92 3e 64
        E 0 93 42 5a
        E 0 9f 32 5a
        E 0 82 3e 64
        E 0 92 4a 64
        E 0 82 4a 64
        E 0 83 42 64
        E 0 8f 32 64
        E 0 92 54 64
        E 0 93 42 5a
        E 0 9f 32 5a
        E 0 82 54 64
        E 0 92 4a 64
        E 0 82 4a 64
        E 0 83 42 64
        E 0 8f 32 64
        E 0 92 3e 64
        E 0 93 42 5a
        E 0 9f 32 5a
        E 0 82 3e 64
        E 0 92 4a 64
        E 0 82 4a 64
        E 0 83 42 64
        E 0 8f 32 64
        E 0 92 54 64
        E 0 93 42 5a
        E 0 9f 32 5a
        E 0 82 54 64
        E 0 92 4a 64
        E 0 82 4a 64
        E 0 83 42 64
        E 0 8f 32 64
        E 0 92 3e 64
        E 0 93 43 5a
        E 0 9f 32 5a
        E 0 82 3e 64
        E 0 92 4a 64
        E 0 82 4a 64
        E 0 83 43 64
        E 0 8f 32 64
        E 0 92 53 64
        E 0 93 43 5a
        E 0 9f 32 5a
        E 0 82 53 64
        E 0 92 4a 64
        E 0 82 4a 64
        E 0 83 43 64
        E 0 8f 32 64
        E 0 92 3e 64
        E 0 93 43 5a
        E 0 9f 32 5a
        E 0 82 3e 64
        E 0 92 4a 64
        E 0 82 4a 64
        E 0 83 43 64
        E 0 8f 32 64
        E 0 92 53 64
        E 0 93 43 5a
        E 0 9f 32 5a
        E 0 82 53 64
        E 0 92 4a 64
        E 0 82 4a 64
        E 0 83 43 64
        E 0 8f 32 64
        E 0 92 3e 64
        E 0 93 43 5a
        E 0 9f 32 5a
        E 0 82 3e 64
        E 0 92 4a 64
        E 0 82 4a 64
        E 0 83 43 64
        E 0 8f 32 64
        E 0 92 53 64
        E 0 93 43 5a
        E 0 9f 32 5a
        E 0 82 53 64
        E 1 92 4a 64
        E 0 82 4a 64
        E 0 83 43 64
        E 0 8f 32 64
        E 0 92 3e 64
        E 0 93 42 5a
        E 0 9f 32 5a
        E 0 82 3e 64
        E 0 92 4a 64
        E 0 82 4a 64
        E 0 83 42 64
        E 0 8f 32 64
        E 0 92 51 64
        E 0 93 42 5a
        E 0 9f 32 5a
        E 0 82 51 64
        E 0 92 4a 64
        E 0 82 4a 64
        E 0 83 42 64
        E 0 8f 32 64
        E 0 92 3e 64
        E 0 93 42 5a
        E 0 9f 32 5a
        E 0 82 3e 64
        E 0 92 4a 64
        E 0 82 4a 64
        E 0 83 42 64
        E 0 8f 32 64
        E 0 92 51 64
        E 0 93 42 5a
        E 0 9f 32 5a
        E 0 82 51 64
        E 0 92 4a 64
        E 0 82 4a 64
        E 0 83 42 64
        E 0 8f 32 64
        E 0 92 3e 64
        E 0 93 42 5a
        E 0 9f 32 5a
        E 0 82 3e 64
        E 0 92 4a 64
        E 0 82 4a 64
        E 0 83 42 64
        E 0 8f 32 64
        E 0 92 51 64
        E 0 93 42 5a
        E 0 9f 32 5a
        E 0 82 51 64
        E 0 92 4a 64
        E 0 82 4a 64
        E 0 83 42 64
        E 0 8f 32 64
        E 0 92 3e 64
        E 0 93 42 5a
        E 0 9f 32 5a
        E 0 82 3e 64
        E 0 92 4a 64
        E 0 82 4a 64
        E 0 83 42 64
        E 0 8f 32 64
        E 0 92 56 64
        E 0 93 42 5a
        E 0 9f 32 5a
        E 0 82 56 64
        E 0 92 4a 64
        E 0 82 4a 64
        E 0 83 42 64
        E 0 8f 32 64
        E 0 92 3e 64
        E 0 93 42 5a
        E 0 9f 32 5a
        E 0 82 3e 64
        E 0 92 4a 64
        E 0 82 4a 64
        E 0 83 42 64
        E 0 8f 32 64
        E 0 92 56 64
        E 0 93 42 5a
        E 0 9f 32 5a
        E 0 82 56 64
        E 0 92 4a 64
        E 0 82 4a 64
        E 0 83 42 64
        E 0 8f 32 64
        E 0 92 3e 64
        E 0 93 42 5a
        E 0 9f 32 5a
        E 0 82 3e 64
        E 0 92 4a 64
        E 0 82 4a 64
        E 0 83 42 64
        E 0 8f 32 64
        E 0 92 56 64
        E 1 93 42 5a
        E 0 9f 32 5a
        E 0 82 56 64
        E 0 92 4a 64
        E 0 82 4a 64
        E 0 83 42 64
        E 0 8f 32 64
        E 0 92 3e 64
        E 0 93 45 5a
        E 0 9f 32 5a
        E 0 82 3e 64
        E 0 92 4a 64
        E 0 82 4a 64
        E 0 83 45 64
        E 0 8f 32 64
        E 0 92 54 64
        E 0 93 45 5a
        E 0 9f 32 5a
        E 0 82 54 64
        E 0 92 4a 64
        E 0 82 4a 64
        E 0 83 45 64
        E 0 8f 32 64
        E 0 92 3e 64
        E 0 93 45 5a
        E 0 9f 32 5a
        E 0 82 3e 64
        E 0 92 4a 64
        E 0 82 4a 64
        E 0 83 45 64
        E 0 8f 32 64
        E 0 92 54 64
        E 0 93 45 5a
        E 0 9f 32 5a
        E 0 82 54 64
        E 0 92 4a 64
        E 0 82 4a 64
        E 0 83 45 64
        E 0 8f 32 64
        E 0 92 3e 64
        E 0 93 45 5a
        E 0 9f 32 5a
        E 0 82 3e 64
        E 0 92 4a 64
        E 0 82 4a 64
        E 0 83 45 64
        E 0 8f 32 64
        E 0 92 54 64
        E 1 93 45 5a
        E 0 9f 32 5a
        E 0 82 54 64
        E 0 92 4a 64
        E 0 82 4a 64
        E 0 83 45 64
        E 0 8f 32 64
        E 0 92 3e 64
        E 0 93 43 5a
        E 0 9f 32 5a
        E 0 82 3e 64
        E 0 92 4a 64
        E 0 82 4a 64
        E 0 83 43 64
        E 0 8f 32 64
        E 0 92 53 64
        E 0 93 43 5a
        E 0 9f 32 5a
        E 0 82 53 64
        E 0 92 4a 64
        E 0 82 4a 64
        E 0 83 43 64
        E 0 8f 32 64
        E 0 92 3e 64
        E 0 93 43 5a
        E 0 9f 32 5a
        E 0 82 3e 64
        E 0 92 4a 64
        E 0 82 4a 64
        E 0 83 43 64
        E 0 8f 32 64
        E 0 92 53 64
        E 0 93 43 5a
        E 0 9f 32 5a
        E 0 82 53 64
        E 0 92 4a 64
        E 0 82 4a 64
        E 0 83 43 64
        E 0 8f 32 64
        E 0 92 3e 64
        E 0 93 43 5a
        E 0 9f 32 5a
        E 0 82 3e 64
        E 0 92 4a 64
        E 0 82 4a 64
        E 0 83 43 64
        E 0 8f 32 64
        E 0 92 53 64
        E 0 93 43 5a
        E 0 9f 32 5a
        E 0 82 53 64
        E 0 92 4a 64
        E 0 82 4a 64
        E 0 83 43 64
        E 0 8f 32 64
        E 0 92 3e 64
        E 0 92 4a 64
        E 0 92 51 64
        E 0 93 42 5a
        E 0 9f 32 5a
        E 0 83 42 64
        E 0 8f 32 64
        E 1 93 42 5a
        E 0 9f 32 5a
        E 0 82 3e 64
        E 0 82 4a 64
        E 0 82 51 64
        E 0 83 42 64
        E 0 8f 32 64
        E 0 93 42 5a
        E 0 9f 32 5a
        E 0 83 42 64
        E 0 8f 32 64
        E 0 92 56 64
        E 0 93 42 5a
        E 0 9f 32 5a
        E 0 82 56 64
        E 0 83 42 64
        E 0 8f 32 64
        E 0 92 55 64
        E 0 93 43 5a
        E 0 9f 34 5a
        E 0 82 55 64
        E 0 83 43 64
        E 0 8f 34 64
        E 0 92 53 64
        E 0 93 43 5a
        E 0 9f 34 5a
        E 0 82 53 64
        E 0 83 43 64
        E 0 8f 34 64
        E 0 92 52 64
        E 0 93 3d 5a
        E 0 9f 36 5a
        E 0 83 3d 64
        E 0 8f 36 64
        E 0 93 3d 5a
        E 0 9f 36 5a
        E 0 83 3d 64
        E 0 8f 36 64
        E 0 93 3d 5a
        E 0 9f 36 5a
        E 0 83 3d 64
        E 0 8f 36 64
        E 0 93 3d 5a
        E 0 9f 36 5a
        E 0 83 3d 64
        E 0 8f 36 64
        E 0 93 42 5a
        E 0 9f 36 5a
        E 0 83 42 64
        E 0 8f 36 64
        E 0 93 42 5a
        E 0 9f 36 5a
        E 0 82 52 64
        E 0 83 42 64
        E 0 8f 36 64
        E 0 92 53 64
        E 0 93 42 5a
        E 0 9f 2f 5a
        E 0 83 42 64
        E 0 8f 2f 64
        E 0 93 42 5a
        E 0 9f 2f 5a
        E 0 83 42 64
        E 0 8f 2f 64
        E 0 93 3e 5a
        E 0 9f 32 5a
        E 0 83 3e 64
        E 0 8f 32 64
        E 0 93 3e 5a
        E 0 9f 32 5a
        E 0 82 53 64
        E 0 83 3e 64
        E 0 8f 32 64
        E 0 92 51 64
        E 0 93 3e 5a
        E 0 9f 32 5a
        E 0 83 3e 64
        E 0 8f 32 64
        E 1 93 3e 5a
        E 0 9f 32 5a
        E 0 82 51 64
        E 0 83 3e 64
        E 0 8f 32 64
        E 0 92 50 64
        E 0 93 3b 5a
        E 0 9f 34 5a
        E 0 83 3b 64
        E 0 8f 34 64
        E 0 93 3b 5a
        E 0 9f 34 5a
        E 0 83 3b 64
        E 0 8f 34 64
        E 0 93 3b 5a
        E 0 9f 34 5a
        E 0 83 3b 64
        E 0 8f 34 64
        E 0 93 3b 5a
        E 0 9f 34 5a
        E 0 83 3b 64
        E 0 8f 34 64
        E 0 93 40 5a
        E 0 9f 34 5a
        E 0 83 40 64
        E 0 8f 34 64
        E 0 93 40 5a
        E 0 9f 34 5a
        E 0 82 50 64
        E 0 83 40 64
        E 0 8f 34 64
        E 0 92 51 64
        E 0 93 40 5a
        E 0 9f 2d 5a
        E 0 83 40 64
        E 0 8f 2d 64
        E 0 93 40 5a
        E 0 9f 2d 5a
        E 0 83 40 64
        E 0 8f 2d 64
        E 0 93 3c 5a
        E 0 9f 30 5a
        E 0 83 3c 64
        E 0 8f 30 64
        E 0 93 3c 5a
        E 0 9f 30 5a
        E 0 82 51 64
        E 0 83 3c 64
        E 0 8f 30 64
        E 0 92 4f 64
        E 0 93 3c 5a
        E 0 9f 30 5a
        E 0 83 3c 64
        E 0 8f 30 64
        E 0 93 3c 5a
        E 0 9f 30 5a
        E 0 82 4f 64
        E 0 83 3c 64
        E 0 8f 30 64
        E 1 92 4e 64
        E 0 93 39 5a
        E 0 9f 32 5a
        E 0 83 39 64
        E 0 8f 32 64
        E 0 93 39 5a
        E 0 9f 32 5a
        E 0 83 39 64
        E 0 8f 32 64
        E 0 93 39 5a
        E 0 9f 32 5a
        E 0 83 39 64
        E 0 8f 32 64
        E 0 93 39 5a
        E 0 9f 32 5a
        E 0 83 39 64
        E 0 8f 32 64
        E 0 93 3e 5a
        E 0 9f 32 5a
        E 0 83 3e 64
        E 0 8f 32 64
        E 0 93 3e 5a
        E 0 9f 32 5a
        E 0 82 4e 64
        E 0 83 3e 64
        E 0 8f 32 64
        E 0 92 4f 64
        E 0 93 3e 5a
        E 0 9f 2b 5a
        E 0 83 3e 64
        E 0 8f 2b 64
        E 0 93 3e 5a
        E 0 9f 2b 5a
        E 0 83 3e 64
        E 0 8f 2b 64
        E 0 93 3b 5a
        E 0 9f 2b 5a
        E 0 82 4f 64
        E 0 83 3b 64
        E 0 8f 2b 64
        E 0 92 53 64
        E 0 93 3b 5a
        E 0 9f 2b 5a
        E 0 82 53 64
        E 0 83 3b 64
        E 0 8f 2b 64
        E 0 92 4f 64
        E 0 93 3b 5a
        E 0 9f 34 5a
        E 0 82 4f 64
        E 0 83 3b 64
        E 0 8f 34 64
        E 0 92 4c 64
        E 0 93 3b 5a
        E 0 9f 34 5a
        E 38403 82 4c 64
        E 0 83 3b 64
        E 0 8f 34 64
        E 0 92 4d 64
        E 0 93 3c 5a
        E 0 9f 2d 5a
        E 0 83 3c 64
        E 0 8f 2d 64
        E 0 93 48 5a
        E 0 9f 2d 5a
        E 0 82 4d 64
        E 0 92 4f 64
        E 0 82 4f 64
        E 0 92 51 64
        E 0 82 51 64
        E 0 83 48 64
        E 0 8f 2d 64
        E 0 92 4d 64
        E 0 93 48 5a
        E 0 9f 2d 5a
        E 0 83 48 64
        E 0 8f 2d 64
        E 0 93 48 5a
        E 0 9f 2d 5a
        E 0 82 4d 64
        E 0 92 4f 64
        E 0 82 4f 64
        E 0 92 51 64
        E 0 82 51 64
        E 1 83 48 64
        E 0 8f 2d 64
        E 0 92 4c 64
        E 0 93 48 5a
        E 0 9f 2d 5a
        E 0 82 4c 64
        E 0 83 48 64
        E 0 8f 2d 64
        E 0 92 51 64
        E 0 93 48 5a
        E 0 9f 2d 5a
        E 0 82 51 64
        E 0 83 48 64
        E 0 8f 2d 64
        E 0 92 4d 64
        E 0 93 48 5a
        E 0 9f 2d 5a
        E 0 83 48 64
        E 0 8f 2d 64
        E 0 93 48 5a
        E 0 9f 2d 5a
        E 0 82 4d 64
        E 0 92 4f 64
        E 0 82 4f 64
        E 0 92 51 64
        E 0 82 51 64
        E 0 83 48 64
        E 0 8f 2d 64
        E 0 92 4d 64
        E 0 93 48 5a
        E 0 9f 2d 5a
        E 0 83 48 64
        E 0 8f 2d 64
        E 0 93 48 5a
        E 0 9f 2d 5a
        E 0 82 4d 64
        E 0 92 4f 64
        E 0 82 4f 64
        E 0 92 51 64
        E 0 82 51 64
        E 0 83 48 64
        E 0 8f 2d 64
        E 0 92 4c 64
        E 0 93 48 5a
        E 0 9f 2d 5a
        E 0 82 4c 64
        E 0 83 48 64
        E 0 8f 2d 64
        E 0 92 51 64
        E 0 93 48 5a
        E 0 9f 2d 5a
        E 0 82 51 64
        E 0 83 48 64
        E 0 8f 2d 64
        E 0 92 4b 64
        E 0 93 42 5a
        E 0 9f 2f 5a
        E 0 82 4b 64
        E 0 92 3b 64
        E 0 82 3b 64
        E 0 92 47 64
        E 0 82 47 64
        E 0 92 47 64
        E 0 82 47 64
        E 0 92 45 64
        E 0 82 45 64
        E 0 92 47 64
        E 0 82 47 64
        E 0 83 42 64
        E 0 8f 2f 64
        E 1 92 4c 64
        E 0 93 43 5a
        E 0 9f 2f 5a
        E 0 82 4c 64
        E 0 92 3b 64
        E 0 82 3b 64
        E 0 92 47 64
        E 0 82 47 64
        E 0 92 47 64
        E 0 82 47 64
        E 0 92 45 64
        E 0 82 45 64
        E 0 92 47 64
        E 0 82 47 64
        E 0 83 43 64
        E 0 8f 2f 64
        E 0 92 4e 64
        E 0 93 3b 5a
        E 0 9f 2f 5a
        E 0 82 4e 64
        E 0 92 3b 64
        E 0 82 3b 64
        E 0 92 47 64
        E 0 82 47 64
        E 0 92 47 64
        E 0 82 47 64
        E 0 92 45 64
        E 0 82 45 64
        E 0 92 47 64
        E 0 82 47 64
        E 0 83 3b 64
        E 0 8f 2f 64
        E 0 92 4f 64
        E 0 93 3b 5a
        E 0 9f 2f 5a
        E 0 82 4f 64
        E 0 92 3b 64
        E 0 82 3b 64
        E 0 92 47 64
        E 0 82 47 64
        E 0 92 47 64
        E 0 82 47 64
        E 0 92 45 64
        E 0 82 45 64
        E 0 92 47 64
        E 0 82 47 64
        E 0 83 3b 64
        E 0 8f 2f 64
        E 0 92 51 64
        E 0 93 3b 5a
        E 0 9f 2f 5a
        E 0 82 51 64
        E 0 92 3b 64
        E 0 82 3b 64
        E 0 92 47 64
        E 0 82 47 64
        E 0 92 47 64
        E 0 82 47 64
        E 0 92 45 64
        E 0 82 45 64
        E 0 92 47 64
        E 0 82 47 64
        E 0 83 3b 64
        E 0 8f 2f 64
        E 0 92 53 64
        E 0 93 3b 5a
        E 0 9f 2f 5a
        E 0 82 53 64
        E 0 92 51 64
        E 0 82 51 64
        E 0 92 4f 64
        E 0 82 4f 64
        E 0 92 4e 64
        E 0 82 4e 64
        E 0 92 4c 64
        E 0 82 4c 64
        E 0 8f 2f 64
        E 0 92 4b 64
        E 0 9f 31 5a
        E 0 82 4b 64
        E 0 92 49 64
        E 0 82 49 64
        E 0 83 3b 64
        E 0 8f 31 64
        E 0 92 47 64
        E 0 93 42 5a
        E 0 9f 33 5a
        E 0 82 47 64
        E 0 83 42 64
        E 0 8f 33 64
        E 0 92 45 64
        E 0 93 3f 5a
        E 0 9f 2f 5a
        E 0 82 45 64
        E 0 83 3f 64
        E 0 8f 2f 64
        E 0 92 43 64
        E 0 93 3b 5a
        E 0 9f 34 5a
        E 0 82 43 64
        E 0 92 4c 64
        E 0 82 4c 64
        E 0 83 3b 64
        E 0 8f 34 64
        E 0 92 43 64
        E 0 93 3b 5a
        E 0 9f 3b 5a
        E 0 82 43 64
        E 0 92 4c 64
        E 0 82 4c 64
        E 0 8f 3b 64
        E 0 92 3b 64
        E 0 9f 2f 5a
        E 1 82 3b 64
        E 0 83 3b 64
        E 0 92 4b 64
        E 0 93 42 5a
        E 0 82 4b 64
        E 0 83 42 64
        E 0 8f 2f 64
        E 0 92 40 64
        E 0 93 40 5a
        E 0 9f 34 5a
        E 0 82 40 64
        E 0 92 4c 64
        E 0 82 4c 64
        E 0 83 40 64
        E 0 8f 34 64
        E 0 92 4c 64
        E 0 93 37 5a
        E 0 9f 34 5a
        E 0 82 4c 64
        E 0 92 4c 64
        E 0 82 4c 64
        E 0 83 37 64
        E 0 8f 34 64
        E 0 92 40 64
        E 0 93 37 5a
        E 0 9f 34 5a
        E 0 82 40 64
        E 0 92 4c 64
        E 0 82 4c 64
        E 0 83 37 64
        E 0 8f 34 64
        E 0 92 4c 64
        E 0 93 37 5a
        E 0 9f 34 5a
        E 0 82 4c 64
        E 0 92 4c 64
        E 0 82 4c 64
        E 0 83 37 64
        E 0 8f 34 64
        E 0 92 40 64
        E 0 93 37 5a
        E 0 9f 34 5a
        E 0 82 40 64
        E 0 92 4c 64
        E 0 82 4c 64
        E 0 83 37 64
        E 0 8f 34 64
        E 0 92 4c 64
        E 0 93 37 5a
        E 0 9f 34 5a
        E 0 82 4c 64
        E 0 92 4c 64
        E 0 82 4c 64
        E 0 83 37 64
        E 0 8f 34 64
        E 0 92 40 64
        E 0 93 3b 5a
        E 0 9f 34 5a
        E 0 82 40 64
        E 0 92 4a 64
        E 0 82 4a 64
        E 0 83 3b 64
        E 0 8f 34 64
        E 0 92 4c 64
        E 0 93 3b 5a
        E 0 9f 34 5a
        E 0 82 4c 64
        E 0 92 4a 64
        E 0 82 4a 64
        E 0 83 3b 64
        E 0 8f 34 64
        E 0 92 40 64
        E 0 93 3b 5a
        E 0 9f 34 5a
        E 0 82 40 64
        E 0 92 4a 64
        E 0 82 4a 64
        E 0 83 3b 64
        E 0 8f 34 64
        E 0 92 4c 64
        E 0 93 3b 5a
        E 0 9f 34 5a
        E 0 82 4c 64
        E 0 92 4a 64
        E 1 82 4a 64
        E 0 83 3b 64
        E 0 8f 34 64
        E 0 92 40 64
        E 1 93 3b 5a
        E 0 9f 34 5a
        E 0 82 40 64
        E 0 92 4a 64
        E 0 82 4a 64
        E 0 83 3b 64
        E 0 8f 34 64
        E 0 92 4c 64
        E 0 93 3b 5a
        E 0 9f 34 5a
        E 0 82 4c 64
        E 0 92 4a 64
        E 0 82 4a 64
        E 0 83 3b 64
        E 0 8f 34 64
        E 0 92 40 64
        E 1 93 39 5a
        E 0 9f 34 5a
        E 0 82 40 64
        E 0 92 48 64
        E 0 82 48 64
        E 0 83 39 64
        E 0 8f 34 64
        E 0 92 4c 64
        E 0 93 39 5a
        E 0 9f 34 5a
        E 0 82 4c 64
        E 0 92 48 64
        E 0 82 48 64
        E 0 83 39 64
        E 0 8f 34 64
        E 0 92 40 64
        E 0 93 39 5a
        E 0 9f 34 5a
        E 0 82 40 64
        E 0 92 48 64
        E 0 82 48 64
        E 0 83 39 64
        E 0 8f 34 64
        E 0 92 4c 64
        E 0 93 39 5a
        E 0 9f 34 5a
        E 0 82 4c 64
        E 0 92 48 64
        E 0 82 48 64
        E 0 83 39 64
        E 0 8f 34 64
        E 0 92 40 64
        E 0 93 39 5a
        E 0 9f 34 5a
        E 0 82 40 64
        E 0 92 48 64
        E 0 82 48 64
        E 0 83 39 64
        E 1 8f 34 64
        E 0 92 4c 64
        E 0 93 39 5a
        E 0 9f 34 5a
        E 0 82 4c 64
        E 0 92 48 64
        E 0 82 48 64
        E 0 83 39 64
        E 0 8f 34 64
        E 0 92 40 64
        E 0 93 37 5a
        E 0 9f 34 5a
        E 0 82 40 64
        E 0 92 47 64
        E 0 82 47 64
        E 0 83 37 64
        E 0 8f 34 64
        E 0 92 4c 64
        E 0 93 37 5a
        E 0 9f 34 5a
        E 0 82 4c 64
        E 0 92 47 64
        E 0 82 47 64
        E 0 83 37 64
        E 0 8f 34 64
        E 0 92 40 64
        E 0 93 37 5a
        E 0 9f 34 5a
        E 0 82 40 64
        E 0 92 47 64
        E 0 82 47 64
        E 0 83 37 64
        E 0 8f 34 64
        E 0 92 4c 64
        E 0 93 37 5a
        E 0 9f 34 5a
        E 0 82 4c 64
        E 0 92 4c 64
        E 0 82 4c 64
        E 0 83 37 64
        E 0 8f 34 64
        E 0 92 40 64
        E 0 93 37 5a
        E 0 9f 34 5a
        E 1 82 40 64
        E 0 92 47 64
        E 0 82 47 64
        E 0 83 37 64
        E 0 8f 34 64
        E 0 92 4c 64
        E 0 93 37 5a
        E 0 9f 34 5a
        E 0 82 4c 64
        E 0 92 47 64
        E 0 82 47 64
        E 0 83 37 64
        E 0 8f 34 64
        E 0 92 40 64
        E 0 93 37 5a
        E 0 9f 34 5a
        E 0 82 40 64
        E 0 92 4c 64
        E 0 82 4c 64
        E 0 83 37 64
        E 0 8f 34 64
        E 0 92 4c 64
        E 0 93 37 5a
        E 0 9f 34 5a
        E 38404 82 4c 64
        E 0 92 4c 64
        E 0 82 4c 64
        E 0 83 37 64
        E 0 8f 34 64
        E 0 92 40 64
        E 0 93 37 5a
        E 0 9f 34 5a
        E 0 82 40 64
        E 0 92 4c 64
        E 0 82 4c 64
        E 0 83 37 64
        E 0 8f 34 64
        E 0 92 4c 64
        E 0 93 37 5a
        E 0 9f 34 5a
        E 0 82 4c 64
        E 0 92 4c 64
        E 0 82 4c 64
        E 0 83 37 64
        E 0 8f 34 64
        E 0 92 40 64
        E 0 93 37 5a
        E 0 9f 34 5a
        E 0 82 40 64
        E 0 92 4c 64
        E 0 82 4c 64
        E 0 83 37 64
        E 0 8f 34 64
        E 1 92 4c 64
        E 0 93 37 5a
        E 0 9f 34 5a
        E 0 82 4c 64
        E 0 92 4c 64
        E 0 82 4c 64
        E 0 83 37 64
        E 0 8f 34 64
        E 0 92 40 64
        E 0 93 3b 5a
        E 0 9f 34 5a
        E 0 82 40 64
        E 0 92 4a 64
        E 0 82 4a 64
        E 0 83 3b 64
        E 0 8f 34 64
        E 0 92 4c 64
        E 0 93 3b 5a
        E 0 9f 34 5a
        E 0 82 4c 64
        E 0 92 4a 64
        E 0 82 4a 64
        E 0 83 3b 64
        E 0 8f 34 64
        E 0 92 40 64
        E 0 93 3b 5a
        E 0 9f 34 5a
        E 0 82 40 64
        E 0 92 4a 64
        E 0 82 4a 64
        E 0 83 3b 64
        E 0 8f 34 64
        E 0 92 4c 64
        E 0 93 3b 5a
        E 0 9f 34 5a
        E 0 82 4c 64
        E 0 92 4a 64
        E 0 82 4a 64
        E 0 83 3b 64
        E 0 8f 34 64
        E 0 92 40 64
        E 0 93 3b 5a
        E 0 9f 34 5a
        E 0 82 40 64
        E 0 92 4a 64
        E 0 82 4a 64
        E 0 83 3b 64
        E 0 8f 34 64
        E 0 92 4c 64
        E 0 93 3b 5a
        E 0 9f 34 5a
        E 0 82 4c 64
        E 0 92 4a 64
        E 0 82 4a 64
        E 0 83 3b 64
        E 0 8f 34 64
        E 0 92 40 64
        E 0 93 39 5a
        E 0 9f 34 5a
        E 0 82 40 64
        E 0 92 48 64
        E 0 82 48 64
        E 0 83 39 64
        E 0 8f 34 64
        E 0 92 4c 64
        E 0 93 39 5a
        E 0 9f 34 5a
        E 0 82 4c 64
        E 0 92 48 64
        E 0 82 48 64
        E 0 83 39 64
        E 0 8f 34 64
        E 0 92 40 64
        E 0 93 39 5a
        E 0 9f 34 5a
        E 0 82 40 64
        E 0 92 48 64
        E 0 82 48 64
        E 0 83 39 64
        E 0 8f 34 64
        E 0 92 4c 64
        E 0 93 39 5a
        E 0 9f 34 5a
        E 0 82 4c 64
        E 0 92 48 64
        E 0 82 48 64
        E 0 83 39 64
        E 0 8f 34 64
        E 0 92 40 64
        E 1 93 39 5a
        E 0 9f 34 5a
        E 0 82 40 64
        E 0 92 48 64
        E 0 82 48 64
        E 0 83 39 64
        E 0 8f 34 64
        E 0 92 4c 64
        E 0 93 39 5a
        E 0 9f 34 5a
        E 0 82 4c 64
        E 0 92 48 64
        E 0 82 48 64
        E 0 83 39 64
        E 0 8f 34 64
        E 0 92 40 64
        E 0 92 47 64
        E 0 92 4c 64
        E 0 93 37 5a
        E 0 9f 34 5a
        E 0 83 37 64
        E 0 8f 34 64
        E 0 93 43 5a
        E 0 9f 34 5a
        E 0 82 40 64
        E 0 82 47 64
        E 0 82 4c 64
        E 0 83 43 64
        E 0 8f 34 64
        E 0 93 43 5a
        E 0 9f 34 5a
        E 0 92 47 64
        E 0 82 47 64
        E 0 83 43 64
        E 0 8f 34 64
        E 0 92 48 64
        E 0 93 43 5a
        E 0 9f 34 5a
        E 0 82 48 64
        E 0 92 4a 64
        E 0 82 4a 64
        E 0 83 43 64
        E 0 8f 34 64
        E 0 92 4c 64
        E 0 93 43 5a
        E 0 9f 34 5a
        E 0 82 4c 64
        E 0 92 4e 64
        E 0 82 4e 64
        E 0 83 43 64
        E 0 8f 34 64
        E 0 92 4f 64
        E 0 93 43 5a
        E 0 9f 34 5a
        E 0 82 4f 64
        E 0 92 51 64
        E 0 82 51 64
        E 0 83 43 64
        E 0 8f 34 64
        E 0 92 53 64
        E 0 93 40 5a
        E 0 9f 38 5a
        E 0 82 53 64
        E 0 83 40 64
        E 0 8f 38 64
        E 1 92 51 64
        E 0 93 40 5a
        E 0 9f 38 5a
        E 0 82 51 64
        E 0 83 40 64
        E 0 8f 38 64
        E 0 92 50 64
        E 0 93 40 5a
        E 0 9f 38 5a
        E 0 82 50 64
        E 0 83 40 64
        E 0 8f 38 64
        E 0 92 4d 64
        E 0 93 40 5a
        E 0 9f 38 5a
        E 0 82 4d 64
        E 0 83 40 64
        E 0 8f 38 64
        E 0 92 4c 64
        E 0 93 40 5a
        E 0 9f 38 5a
        E 0 82 4c 64
        E 0 83 40 64
        E 0 8f 38 64
        E 0 92 4a 64
        E 0 93 40 5a
        E 0 9f 38 5a
        E 0 82 4a 64
        E 0 83 40 64
        E 0 8f 38 64
        E 0 92 49 64
        E 0 93 40 5a
        E 0 9f 39 5a
        E 0 83 40 64
        E 0 8f 39 64
        E 0 93 40 5a
        E 0 9f 39 5a
        E 0 82 49 64
        E 0 83 40 64
        E 0 8f 39 64
        E 0 92 49 64
        E 0 93 40 5a
        E 0 9f 39 5a
        E 0 82 49 64
        E 0 92 45 64
        E 0 82 45 64
        E 0 83 40 64
        E 0 8f 39 64
        E 0 92 47 64
        E 0 93 40 5a
        E 0 9f 39 5a
        E 0 82 47 64
        E 0 92 49 64
        E 0 82 49 64
        E 0 83 40 64
        E 0 8f 39 64
        E 0 92 4a 64
        E 0 93 40 5a
        E 0 9f 39 5a
        E 0 82 4a 64
        E 0 92 4c 64
        E 0 82 4c 64
        E 0 83 40 64
        E 0 8f 39 64
        E 0 92 4e 64
        E 0 93 40 5a
        E 0 9f 39 5a
        E 0 82 4e 64
        E 0 92 4f 64
        E 0 82 4f 64
        E 0 83 40 64
        E 0 8f 39 64
        E 0 92 51 64
        E 0 93 3e 5a
        E 0 9f 36 5a
        E 0 82 51 64
        E 0 83 3e 64
        E 0 8f 36 64
        E 0 92 4f 64
        E 0 93 3e 5a
        E 0 9f 36 5a
        E 0 82 4f 64
        E 0 83 3e 64
        E 0 8f 36 64
        E 0 92 4e 64
        E 0 93 3e 5a
        E 1 9f 36 5a
        E 0 82 4e 64
        E 0 83 3e 64
        E 0 8f 36 64
        E 0 92 4c 64
        E 0 93 3e 5a
        E 0 9f 36 5a
        E 0 82 4c 64
        E 0 83 3e 64
        E 0 8f 36 64
        E 0 92 4a 64
        E 0 93 3e 5a
        E 0 9f 36 5a
        E 0 82 4a 64
        E 0 83 3e 64
        E 0 8f 36 64
        E 0 92 48 64
        E 0 93 3e 5a
        E 0 9f 36 5a
        E 0 82 48 64
        E 0 83 3e 64
        E 0 8f 36 64
        E 0 92 47 64
        E 0 93 3e 5a
        E 0 9f 37 5a
        E 0 83 3e 64
        E 0 8f 37 64
        E 0 93 3e 5a
        E 0 9f 37 5a
        E 0 82 47 64
        E 0 83 3e 64
        E 0 8f 37 64
        E 0 92 47 64
        E 0 93 3e 5a
        E 0 9f 37 5a
        E 0 82 47 64
        E 0 92 43 64
        E 0 82 43 64
        E 0 83 3e 64
        E 0 8f 37 64
        E 0 92 45 64
        E 0 93 3e 5a
        E 0 9f 37 5a
        E 0 82 45 64
        E 0 92 47 64
        E 0 82 47 64
        E 0 83 3e 64
        E 0 8f 37 64
        E 0 92 48 64
        E 0 93 3e 5a
        E 1 9f 37 5a
        E 0 82 48 64
        E 0 92 4a 64
        E 0 82 4a 64
        E 0 83 3e 64
        E 0 8f 37 64
        E 0 92 4c 64
        E 0 93 3e 5a
        E 0 9f 37 5a
        E 0 82 4c 64
        E 0 92 4e 64
        E 0 82 4e 64
        E 0 83 3e 64
        E 0 8f 37 64
        E 0 92 4f 64
        E 0 93 3e 5a
        E 0 9f 37 5a
        E 0 82 4f 64
        E 0 83 3e 64
        E 0 8f 37 64
        E 0 92 4e 64
        E 0 93 3e 5a
        E 0 9f 37 5a
        E 0 82 4e 64
        E 0 83 3e 64
        E 0 8f 37 64
        E 0 92 4c 64
        E 0 93 3e 5a
        E 0 9f 37 5a
        E 0 82 4c 64
        E 0 83 3e 64
        E 0 8f 37 64
        E 0 92 4a 64
        E 0 93 3e 5a
        E 0 9f 37 5a
        E 0 82 4a 64
        E 0 83 3e 64
        E 0 8f 37 64
        E 0 92 48 64
        E 0 93 3e 5a
        E 1 9f 37 5a
        E 0 82 48 64
        E 0 83 3e 64
        E 0 8f 37 64
        E 0 92 47 64
        E 0 93 3e 5a
        E 0 9f 37 5a
        E 0 82 47 64
        E 0 83 3e 64
        E 0 8f 37 64
        E 0 92 48 64
        E 0 93 42 5a
        E 0 9f 32 5a
        E 0 82 48 64
        E 0 92 3e 64
        E 0 82 3e 64
        E 0 92 48 64
        E 0 82 48 64
        E 0 92 48 64
        E 0 82 48 64
        E 0 92 47 64
        E 0 82 47 64
        E 0 92 45 64
        E 0 82 45 64
        E 0 83 42 64
        E 0 8f 32 64
        E 0 92 4e 64
        E 0 93 45 5a
        E 0 9f 32 5a
        E 0 82 4e 64
        E 0 92 3e 64
        E 0 82 3e 64
        E 0 92 48 64
        E 0 82 48 64
        E 0 92 48 64
        E 0 82 48 64
        E 0 92 47 64
        E 0 82 47 64
        E 0 92 45 64
        E 0 82 45 64
        E 0 83 45 64
        E 0 8f 32 64
        E 0 92 51 64
        E 0 93 45 5a
        E 0 9f 32 5a
        E 0 82 51 64
        E 1 92 3e 64
        E 0 82 3e 64
        E 0 92 48 64
        E 0 82 48 64
        E 0 92 48 64
        E 0 82 48 64
        E 0 92 47 64
        E 0 82 47 64
        E 0 92 45 64
        E 0 82 45 64
        E 0 83 45 64
        E 0 8f 32 64
        E 0 92 54 64
        E 0 93 45 5a
        E 0 9f 32 5a
        E 0 82 54 64
        E 0 92 3e 64
        E 0 82 3e 64
        E 0 92 48 64
        E 0 82 48 64
        E 0 83 45 64
        E 0 92 48 64
        E 0 93 42 5a
        E 0 82 48 64
        E 0 92 47 64
        E 0 82 47 64
        E 0 92 45 64
        E 0 82 45 64
        E 0 83 42 64
        E 0 8f 32 64
        E 0 92 37 64
        E 0 92 3e 64
        E 0 92 47 64
        E 0 93 3e 5a
        E 0 9f 2b 5a
        E 0 82 37 64
        E 0 82 3e 64
        E 0 82 47 64
        E 0 83 3e 64
        E 0 8f 2b 64
        E 0 92 4f 64
        E 0 82 4f 64
        E 0 92 4f 64
        E 0 93 3b 5a
        E 0 9f 2b 5a
        E 38404 82 4f 64
        E 0 92 4f 64
        E 0 82 4f 64
        E 0 83 3b 64
        E 0 8f 2b 64
        E 0 92 4f 64
        E 0 93 3b 5a
        E 0 9f 2b 5a
        E 0 82 4f 64
        E 0 92 4f 64
        E 0 82 4f 64
        E 0 83 3b 64
        E 0 8f 2b 64
        E 0 92 4f 64
        E 0 93 3b 5a
        E 0 9f 2b 5a
        E 0 82 4f 64
        E 0 92 4f 64
        E 0 82 4f 64
        E 0 83 3b 64
        E 0 8f 2b 64
        E 0 92 37 64
        E 0 93 3e 5a
        E 0 9f 2b 5a
        E 0 82 37 64
        E 0 92 43 64
        E 0 82 43 64
        E 0 83 3e 64
        E 0 8f 2b 64
        E 0 92 4f 64
        E 0 93 3e 5a
        E 0 9f 2b 5a
        E 0 82 4f 64
        E 0 92 43 64
        E 0 82 43 64
        E 0 83 3e 64
        E 0 8f 2b 64
        E 0 92 37 64
        E 0 93 3e 5a
        E 0 9f 2b 5a
        E 0 82 37 64
        E 0 92 43 64
        E 0 82 43 64
        E 0 83 3e 64
        E 0 8f 2b 64
        E 0 92 4f 64
        E 0 93 3e 5a
        E 0 9f 2b 5a
        E 0 82 4f 64
        E 0 92 43 64
        E 0 82 43 64
        E 0 83 3e 64
        E 0 8f 2b 64
        E 0 92 37 64
        E 0 93 3e 5a
        E 0 9f 2b 5a
        E 0 82 37 64
        E 0 92 43 64
        E 0 82 43 64
        E 0 83 3e 64
        E 0 8f 2b 64
        E 0 92 4f 64
        E 1 93 3e 5a
        E 0 9f 2b 5a
        E 0 82 4f 64
        E 0 92 43 64
        E 0 82 43 64
        E 0 83 3e 64
        E 0 8f 2b 64
        E 0 92 37 64
        E 0 93 3e 5a
        E 0 9f 2b 5a
        E 0 82 37 64
        E 0 92 43 64
        E 0 82 43 64
        E 0 83 3e 64
        E 0 8f 2b 64
        E 0 92 4d 64
        E 0 93 3e 5a
        E 0 9f 2b 5a
        E 0 82 4d 64
        E 0 92 43 64
        E 0 82 43 64
        E 0 83 3e 64
        E 0 8f 2b 64
        E 0 92 37 64
        E 0 93 3e 5a
        E 0 9f 2b 5a
        E 0 82 37 64
        E 0 92 43 64
        E 0 82 43 64
        E 0 83 3e 64
        E 0 8f 2b 64
        E 1 92 4d 64
        E 0 93 3e 5a
        E 0 9f 2b 5a
        E 0 82 4d 64
        E 0 92 43 64
        E 0 82 43 64
        E 0 83 3e 64
        E 0 8f 2b 64
        E 1 92 37 64
        E 1 93 3e 5a
        E 0 9f 2b 5a
        E 0 82 37 64
        E 0 92 43 64
        E 0 82 43 64
        E 0 83 3e 64
        E 0 8f 2b 64
        E 0 92 4d 64
        E 0 93 3e 5a
        E 0 9f 2b 5a
        E 0 82 4d 64
        E 0 92 43 64
        E 0 82 43 64
        E 0 83 3e 64
        E 0 8f 2b 64
        E 0 92 37 64
        E 0 93 3c 5a
        E 0 9f 2b 5a
        E 0 82 37 64
        E 0 92 43 64
        E 0 82 43 64
        E 0 83 3c 64
        E 0 8f 2b 64
        E 0 92 4c 64
        E 0 93 3c 5a
        E 0 9f 2b 5a
        E 0 82 4c 64
        E 0 92 43 64
        E 0 82 43 64
        E 0 83 3c 64
        E 0 8f 2b 64
        E 0 92 37 64
        E 0 93 3c 5a
        E 0 9f 2b 5a
        E 0 82 37 64
        E 0 92 43 64
        E 0 82 43 64
        E 0 83 3c 64
        E 0 8f 2b 64
        E 0 92 4c 64
        E 0 93 3c 5a
        E 1 9f 2b 5a
        E 0 82 4c 64
        E 0 92 43 64
        E 0 82 43 64
        E 0 83 3c 64
        E 0 8f 2b 64
        E 0 92 37 64
        E 0 93 3c 5a
        E 0 9f 2b 5a
        E 0 82 37 64
        E 0 92 43 64
        E 0 82 43 64
        E 0 83 3c 64
        E 0 8f 2b 64
        E 0 92 4c 64
        E 0 93 3c 5a
        E 0 9f 2b 5a
        E 0 82 4c 64
        E 0 92 43 64
        E 0 82 43 64
        E 0 83 3c 64
        E 0 8f 2b 64
        E 0 92 37 64
        E 0 92 43 64
        E 0 92 4a 64
        E 0 93 3b 5a
        E 0 9f 2b 5a
        E 0 82 37 64
        E 0 82 43 64
        E 0 82 4a 64
        E 0 83 3b 64
        E 0 8f 2b 64
        E 0 92 56 64
        E 0 82 56 64
        E 0 92 56 64
        E 0 93 42 5a
        E 0 9f 32 5a
        E 0 82 56 64
        E 0 92 56 64
        E 0 82 56 64
        E 0 83 42 64
        E 0 8f 32 64
        E 0 92 56 64
        E 0 93 42 5a
        E 0 9f 32 5a
        E 0 82 56 64
        E 0 92 56 64
        E 0 82 56 64
        E 0 83 42 64
        E 0 8f 32 64
        E 0 92 56 64
        E 0 93 42 5a
        E 0 9f 32 5a
        E 0 82 56 64
        E 0 92 56 64
        E 1 82 56 64
        E 0 83 42 64
        E 0 8f 32 64
        E 0 92 3e 64
        E 0 93 42 5a
        E 0 9f 32 5a
        E 0 82 3e 64
        E 0 92 4a 64
        E 0 82 4a 64
        E 0 83 42 64
        E 0 8f 32 64
        E 0 92 56 64
        E 0 93 42 5a
        E 0 9f 32 5a
        E 0 82 56 64
        E 0 92 4a 64
        E 0 82 4a 64
        E 0 83 42 64
        E 0 8f 32 64
        E 0 92 3e 64
        E 0 93 42 5a
        E 0 9f 32 5a
        E 0 82 3e 64
        E 0 92 4a 64
        E 0 82 4a 64
        E 0 83 42 64
        E 0 8f 32 64
        E 0 92 56 64
        E 0 93 42 5a
        E 0 9f 32 5a
        E 0 82 56 64
        E 0 92 4a 64
        E 0 82 4a 64
        E 0 83 42 64
        E 0 8f 32 64
        E 0 92 3e 64
        E 0 93 42 5a
        E 0 9f 32 5a
        E 0 82 3e 64
        E 0 92 4a 64
        E 0 82 4a 64
        E 0 83 42 64
        E 0 8f 32 64
        E 0 92 56 64
        E 0 93 42 5a
        E 0 9f 32 5a
        E 0 82 56 64
        E 0 92 4a 64
        E 0 82 4a 64
        E 0 83 42 64
        E 0 8f 32 64
        E 0 92 3e 64
        E 0 93 45 5a
        E 0 9f 32 5a
        E 0 82 3e 64
        E 0 92 4a 64
        E 0 82 4a 64
        E 0 83 45 64
        E 0 8f 32 64
        E 0 92 54 64
        E 0 93 45 5a
        E 0 9f 32 5a
        E 0 82 54 64
        E 0 92 4a 64
        E 1 82 4a 64
        E 0 83 45 64
        E 0 8f 32 64
        E 0 92 3e 64
        E 0 93 45 5a
        E 0 9f 32 5a
        E 0 82 3e 64
        E 0 92 4a 64
        E 0 82 4a 64
        E 0 83 45 64
        E 0 8f 32 64
        E 0 92 54 64
        E 0 93 45 5a
        E 0 9f 32 5a
        E 0 82 54 64
        E 0 92 4a 64
        E 0 82 4a 64
        E 0 83 45 64
        E 0 8f 32 64
        E 0 92 3e 64
        E 0 93 45 5a
        E 0 9f 32 5a
        E 0 82 3e 64
        E 0 92 4a 64
        E 0 82 4a 64
        E 0 83 45 64
        E 0 8f 32 64
        E 0 92 54 64
        E 0 93 45 5a
        E 0 9f 32 5a
        E 0 82 54 64
        E 0 92 4a 64
        E 0 82 4a 64
        E 0 83 45 64
        E 0 8f 32 64
        E 0 92 3e 64
        E 0 93 43 5a
        E 0 9f 32 5a
        E 0 82 3e 64
        E 0 92 4a 64
        E 0 82 4a 64
        E 0 83 43 64
        E 0 8f 32 64
        E 0 92 53 64
        E 0 93 43 5a
        E 0 9f 32 5a
        E 0 82 53 64
        E 0 92 4a 64
        E 0 82 4a 64
        E 0 83 43 64
        E 0 8f 32 64
        E 0 92 3e 64
        E 0 93 43 5a
        E 0 9f 32 5a
        E 0 82 3e 64
        E 0 92 4a 64
        E 0 82 4a 64
        E 0 83 43 64
        E 0 8f 32 64
        E 0 92 53 64
        E 0 93 43 5a
        E 0 9f 32 5a
        E 0 82 53 64
        E 0 92 4a 64
        E 0 82 4a 64
        E 0 83 43 64
        E 0 8f 32 64
        E 0 92 3e 64
        E 0 93 43 5a
        E 0 9f 32 5a
        E 0 82 3e 64
        E 0 92 4a 64
        E 0 82 4a 64
        E 0 83 43 64
        E 0 8f 32 64
        E 0 92 53 64
        E 0 93 43 5a
        E 0 9f 32 5a
        E 0 82 53 64
        E 0 92 4a 64
        E 0 82 4a 64
        E 0 83 43 64
        E 0 8f 32 64
        E 0 92 3e 64
        E 1 92 4a 64
        E 0 92 51 64
        E 0 93 42 5a
        E 0 9f 32 5a
        E 0 83 42 64
        E 0 8f 32 64
        E 0 93 3e 5a
        E 0 9f 32 5a
        E 0 82 3e 64
        E 0 82 4a 64
        E 0 82 51 64
        E 0 83 3e 64
        E 0 8f 32 64
        E 0 93 3e 5a
        E 0 9f 32 5a
        E 0 83 3e 64
        E 0 8f 32 64
        E 0 93 3e 5a
        E 0 9f 32 5a
        E 0 92 4a 64
        E 0 82 4a 64
        E 0 92 4c 64
        E 0 82 4c 64
        E 0 92 4e 64
        E 0 82 4e 64
        E 0 83 3e 64
        E 0 8f 32 64
        E 0 92 4f 64
        E 0 93 3e 5a
        E 0 9f 32 5a
        E 0 82 4f 64
        E 0 83 3e 64
        E 0 8f 32 64
        E 0 92 4f 64
        E 0 93 3e 5a
        E 0 9f 32 5a
        E 0 82 4f 64
        E 0 83 3e 64
        E 0 8f 32 64
        E 0 92 4f 64
        E 0 93 3e 5a
        E 0 9f 32 5a
        E 0 83 3e 64
        E 0 8f 32 64
        E 0 93 3e 5a
        E 0 9f 32 5a
        E 0 82 4f 64
        E 0 83 3e 64
        E 0 8f 32 64
        E 0 92 4e 64
        E 0 93 3e 5a
        E 0 9f 32 5a
        E 0 82 4e 64
        E 0 83 3e 64
        E 0 8f 32 64
        E 0 92 4e 64
        E 0 93 3e 5a
        E 0 9f 32 5a
        E 0 82 4e 64
        E 0 92 4a 64
        E 0 82 4a 64
        E 0 92 4c 64
        E 0 82 4c 64
        E 0 92 4e 64
        E 0 82 4e 64
        E 0 83 3e 64
        E 0 8f 32 64
        E 0 92 4f 64
        E 0 93 3e 5a
        E 0 9f 32 5a
        E 0 82 4f 64
        E 0 83 3e 64
        E 0 8f 32 64
        E 0 92 4f 64
        E 0 93 3e 5a
        E 0 9f 32 5a
        E 0 82 4f 64
        E 0 83 3e 64
        E 0 8f 32 64
        E 0 92 4f 64
        E 0 93 3e 5a
        E 1 9f 32 5a
        E 0 83 3e 64
        E 0 8f 32 64
        E 0 93 3e 5a
        E 0 9f 32 5a
        E 0 82 4f 64
        E 0 83 3e 64
        E 0 8f 32 64
        E 0 92 4e 64
        E 0 93 3e 5a
        E 0 9f 32 5a
        E 0 82 4e 64
        E 0 83 3e 64
        E 0 8f 32 64
        E 0 92 4e 64
        E 0 93 3e 5a
        E 0 9f 32 5a
        E 0 82 4e 64
        E 0 92 4e 64
        E 0 82 4e 64
        E 0 92 4f 64
        E 0 82 4f 64
        E 0 92 51 64
        E 0 82 51 64
        E 0 83 3e 64
        E 0 8f 32 64
        E 0 92 53 64
        E 0 93 3e 5a
        E 0 9f 32 5a
        E 0 82 53 64
        E 0 83 3e 64
        E 0 8f 32 64
        E 0 92 53 64
        E 0 93 3e 5a
        E 0 9f 32 5a
        E 0 82 53 64
        E 0 83 3e 64
        E 0 8f 32 64
        E 0 92 53 64
        E 0 93 3e 5a
        E 0 9f 32 5a
        E 0 83 3e 64
        E 0 8f 32 64
        E 0 93 3e 5a
        E 0 9f 32 5a
        E 0 82 53 64
        E 0 83 3e 64
        E 0 8f 32 64
        E 0 92 51 64
        E 0 93 3e 5a
        E 0 9f 32 5a
        E 0 82 51 64
        E 0 83 3e 64
        E 0 8f 32 64
        E 0 92 51 64
        E 0 93 3e 5a
        E 0 9f 32 5a
        E 0 82 51 64
        E 0 92 4e 64
        E 0 82 4e 64
        E 0 92 4f 64
        E 0 82 4f 64
        E 0 92 51 64
        E 0 82 51 64
        E 0 83 3e 64
        E 0 8f 32 64
        E 0 92 53 64
        E 0 93 3e 5a
        E 0 9f 32 5a
        E 0 82 53 64
        E 0 83 3e 64
        E 0 8f 32 64
        E 0 92 53 64
        E 0 93 3e 5a
        E 1 9f 32 5a
        E 0 82 53 64
        E 0 83 3e 64
        E 0 8f 32 64
        E 0 92 53 64
        E 0 93 3e 5a
        E 0 9f 32 5a
        E 0 83 3e 64
        E 0 8f 32 64
        E 0 93 3e 5a
        E 0 9f 32 5a
        E 0 82 53 64
        E 0 83 3e 64
        E 0 8f 32 64
        E 0 92 51 64
        E 0 93 3e 5a
        E 0 9f 32 5a
        E 0 82 51 64
        E 0 83 3e 64
        E 0 8f 32 64
        E 0 92 51 64
        E 0 93 3e 5a
        E 0 9f 32 5a
        E 0 82 51 64
        E 0 92 4f 64
        E 0 82 4f 64
        E 0 92 4e 64
        E 0 82 4e 64
        E 0 92 4c 64
        E 0 82 4c 64
        E 0 83 3e 64
        E 0 8f 32 64
        E 0 92 4a 64
        E 0 93 3e 5a
        E 0 9f 32 5a
        E 0 82 4a 64
        E 0 92 4c 64
        E 0 82 4c 64
        E 0 83 3e 64
        E 0 8f 32 64
        E 0 92 4a 64
        E 0 93 3e 5a
        E 0 9f 32 5a
        E 0 82 4a 64
        E 0 92 48 64
        E 0 82 48 64
        E 0 83 3e 64
        E 0 8f 32 64
        E 0 92 47 64
        E 0 93 37 5a
        E 0 9f 2b 5a
        E 0 82 47 64
        E 0 83 37 64
        E 0 92 4a 64
        E 0 93 4a 5a
        E 0 82 4a 64
        E 0 83 4a 64
        E 0 92 48 64
        E 0 93 48 5a
        E 0 82 48 64
        E 0 83 48 64
        E 0 92 47 64
        E 0 93 47 5a
        E 0 82 47 64
        E 0 83 47 64
        E 0 8f 2b 64
        E 0 92 45 64
        E 0 93 45 5a
        E 0 82 45 64
        E 0 83 45 64
        E 0 92 47 64
        E 0 93 47 5a
        E 0 82 47 64
        E 0 83 47 64
        E 0 92 45 64
        E 0 93 45 5a
        E 0 82 45 64
        E 0 83 45 64
        E 0 92 43 64
        E 0 93 43 5a
        E 0 82 43 64
        E 0 83 43 64
        E 0 92 42 64
        E 0 93 42 5a
        E 0 82 42 64
        E 0 83 42 64
        E 0 92 43 64
        E 0 93 43 5a
        E 0 82 43 64
        E 0 83 43 64
        E 0 92 42 64
        E 0 93 42 5a
        E 200 82 42 64
        E 0 83 42 64
        E 1 92 40 64
        E 0 93 40 5a
        E 374 82 40 64
        E 0 83 40 64
        E 1 92 3e 64
        E 0 93 3e 5a
        E 245 82 3e 64
        E 0 83 3e 64
        E 0 92 43 64
        E 1 93 43 5a
        E 0 9f 37 5a
        E 248 82 43 64
        E 0 83 43 64
        E 0 8f 37 64
        E 0 92 42 64
        E 0 93 42 5a
        E 0 9f 36 5a
        E 246 82 42 64
        E 0 83 42 64
        E 0 8f 36 64
        E 0 92 40 64
        E 0 93 40 5a
        E 0 9f 34 5a
        E 243 82 40 64
        E 0 83 40 64
        E 0 8f 34 64
        E 1 92 3e 64
        E 0 93 3e 5a
        E 0 9f 32 5a
        E 257 82 3e 64
        E 1 83 3e 64
        E 0 8f 32 64
        E 4 92 40 64
        E 0 93 40 5a
        E 0 9f 34 5a
        E 232 82 40 64
        E 0 83 40 64
        E 0 8f 34 64
        E 0 92 3e 64
        E 1 93 3e 5a
        E 1 9f 32 5a
        E 256 82 3e 64
        E 0 83 3e 64
        E 0 8f 32 64
        E 0 92 3c 64
        E 0 93 3c 5a
        E 1 9f 30 5a
        E 240 82 3c 64
        E 0 83 3c 64
        E 0 8f 30 64
        E 0 92 3b 64
        E 0 93 3b 5a
        E 0 9f 2f 5a
        E 241 82 3b 64
        E 1 83 3b 64
        E 0 8f 2f 64
        E 0 92 3c 64
        E 1 93 3c 5a
        E 0 9f 30 5a
        E 239 82 3c 64
        E 0 83 3c 64
        E 0 8f 30 64
        E 1 92 3b 64
        E 0 93 3b 5a
        E 0 9f 2f 5a
        E 245 82 3b 64
        E 0 83 3b 64
        E 0 8f 2f 64
        E 1 92 39 64
        E 0 93 39 5a
        E 0 9f 2d 5a
        E 248 82 39 64
        E 0 83 39 64
        E 0 8f 2d 64
        E 0 92 37 64
        E 0 93 37 5a
        E 0 9f 2b 5a
        E 501 82 37 64
        E 0 83 37 64
        E 0 8f 2b 64
        E 0 92 3c 64
        E 0 93 3c 5a
        E 0 9f 30 5a
        E 247 82 3c 64
        E 0 83 3c 64
        E 0 8f 30 64
        E 0 92 3e 64
        E 0 93 3e 5a
        E 0 9f 32 5a
        E 1465 82 3e 64
        E 0 83 3e 64
        E 1 8f 32 64
        E 0 92 3e 64
        E 0 93 3e 5a
        E 0 9f 32 5a
        E 492 82 3e 64
        E 0 83 3e 64
        E 0 8f 32 64
        E 0 92 37 64
        E 0 93 37 5a
        E 0 9f 2b 5a
        E 993 82 37 64
        E 0 83 37 64
        E 0 8f 2b 64
        E 239 92 4f 64
        E 245 82 4f 64
        E 1 92 4e 64
        E 258 82 4e 64
        E 0 92 4c 64
        E 233 82 4c 64
        E 0 92 4a 64
        E 260 82 4a 64
        E 0 92 4c 64
        E 239 82 4c 64
        E 1 92 4a 64
        E 252 82 4a 64
        E 1 92 48 64
        E 233 82 48 64
        E 0 92 47 64
        E 244 82 47 64
        E 0 92 4a 64
        E 1 93 4a 5a
        E 249 82 4a 64
        E 1 83 4a 64
        E 0 92 48 64
        E 0 93 48 5a
        E 38403 82 48 64
        E 0 83 48 64
        E 0 92 47 64
        E 0 93 47 5a
        E 0 82 47 64
        E 0 83 47 64
        E 0 92 45 64
        E 0 93 45 5a
        E 0 82 45 64
        E 0 83 45 64
        E 0 92 47 64
        E 0 93 47 5a
        E 0 82 47 64
        E 0 83 47 64
        E 0 92 45 64
        E 0 93 45 5a
        E 0 82 45 64
        E 0 83 45 64
        E 0 92 43 64
        E 0 93 43 5a
        E 0 82 43 64
        E 0 83 43 64
        E 0 92 42 64
        E 0 93 42 5a
        E 0 82 42 64
        E 0 83 42 64
        E 0 92 43 64
        E 0 93 43 5a
        E 0 82 43 64
        E 1 83 43 64
        E 0 92 42 64
        E 0 93 42 5a
        E 0 82 42 64
        E 0 83 42 64
        E 0 92 40 64
        E 0 93 40 5a
        E 0 82 40 64
        E 0 83 40 64
        E 0 92 3e 64
        E 0 93 3e 5a
        E 0 82 3e 64
        E 0 83 3e 64
        E 0 92 43 64
        E 0 93 43 5a
        E 0 9f 37 5a
        E 0 82 43 64
        E 0 83 43 64
        E 0 8f 37 64
        E 0 92 42 64
        E 0 93 42 5a
        E 0 9f 36 5a
        E 0 82 42 64
        E 0 83 42 64
        E 0 8f 36 64
        E 0 92 40 64
        E 0 93 40 5a
        E 0 9f 34 5a
        E 0 82 40 64
        E 0 83 40 64
        E 0 8f 34 64
        E 0 92 3e 64
        E 0 93 3e 5a
        E 0 9f 32 5a
        E 0 82 3e 64
        E 0 83 3e 64
        E 0 8f 32 64
        E 0 92 40 64
        E 0 93 40 5a
        E 0 9f 34 5a
        E 0 82 40 64
        E 0 83 40 64
        E 0 8f 34 64
        E 0 92 3e 64
        E 0 93 3e 5a
        E 0 9f 32 5a
        E 0 82 3e 64
        E 0 83 3e 64
        E 0 8f 32 64
        E 0 92 3c 64
        E 0 93 3c 5a
        E 0 9f 30 5a
        E 0 82 3c 64
        E 0 83 3c 64
        E 0 8f 30 64
        E 0 92 3b 64
        E 0 93 3b 5a
        E 0 9f 2f 5a
        E 0 82 3b 64
        E 0 83 3b 64
        E 0 8f 2f 64
        E 0 92 3c 64
        E 1 93 3c 5a
        E 0 9f 30 5a
        E 0 82 3c 64
        E 0 83 3c 64
        E 0 8f 30 64
        E 0 92 3b 64
        E 0 93 3b 5a
        E 0 9f 2f 5a
        E 0 82 3b 64
        E 0 83 3b 64
        E 0 8f 2f 64
        E 0 92 39 64
        E 0 93 39 5a
        E 0 9f 2d 5a
        E 0 82 39 64
        E 0 83 39 64
        E 0 8f 2d 64
        E 0 92 37 64
        E 0 93 37 5a
        E 0 9f 2b 5a
        E 0 82 37 64
        E 0 83 37 64
        E 0 8f 2b 64
        E 0 92 3c 64
        E 0 93 3c 5a
        E 0 9f 30 5a
        E 0 82 3c 64
        E 0 83 3c 64
        E 0 8f 30 64
        E 0 92 3e 64
        E 0 93 3e 5a
        E 0 9f 32 5a
        E 0 82 3e 64
        E 0 83 3e 64
        E 0 8f 32 64
        E 0 92 3e 64
        E 0 93 3e 5a
        E 0 9f 32 5a
        E 0 82 3e 64
        E 0 83 3e 64
        E 0 8f 32 64
        E 0 92 37 64
        E 0 93 37 5a
        E 0 9f 2b 5a
        E 0 82 37 64
        E 0 83 37 64
        E 0 8f 2b 64
        E 0 9b 47 64
        E 0 9e 47 64
        E 0 9f 37 5a
        E 0 8b 47 64
        E 0 8e 47 64
        E 0 9b 47 64
        E 0 9e 47 64
        E 0 8b 47 64
        E 0 8e 47 64
        E 0 9b 47 64
        E 0 9e 47 64
        E 0 8b 47 64
        E 0 8e 47 64
        E 0 9b 48 64
        E 0 9e 48 64
        E 0 8b 48 64
        E 0 8e 48 64
        E 0 9b 4a 64
        E 0 9e 4a 64
        E 0 8b 4a 64
        E 0 8e 4a 64
        E 0 9b 43 64
        E 0 9e 43 64
        E 0 8b 43 64
        E 0 8e 43 64
        E 0 9b 43 64
        E 0 9e 43 64
        E 0 8b 43 64
        E 0 8e 43 64
        E 0 9b 43 64
        E 0 9e 43 64
        E 0 8b 43 64
        E 0 8e 43 64
        E 1 8f 37 64
        E 0 9b 43 64
        E 0 9e 43 64
        E 0 9f 37 5a
        E 0 8b 43 64
        E 0 8e 43 64
        E 0 9b 43 64
        E 0 9e 43 64
        E 0 8b 43 64
        E 0 8e 43 64
        E 0 9b 43 64
        E 0 9e 43 64
        E 0 8b 43 64
        E 0 8e 43 64
        E 0 9b 45 64
        E 0 9e 45 64
        E 0 8b 45 64
        E 0 8e 45 64
        E 0 8f 37 64
        E 0 9b 47 64
        E 0 9e 47 64
        E 0 9f 35 5a
        E 0 8b 47 64
        E 0 8e 47 64
        E 0 9b 47 64
        E 0 9e 47 64
        E 0 8b 47 64
        E 0 8e 47 64
        E 0 9b 45 64
        E 0 9e 45 64
        E 0 8b 45 64
        E 0 8e 45 64
        E 0 9b 43 64
        E 0 9e 43 64
        E 0 8b 43 64
        E 0 8e 43 64
        E 0 8f 35 64
        E 0 9b 48 64
        E 0 9e 48 64
        E 0 9f 34 5a
        E 0 8b 48 64
        E 0 8e 48 64
        E 0 9b 48 64
        E 0 9e 48 64
        E 0 8b 48 64
        E 0 8e 48 64
        E 0 9b 48 64
        E 0 9e 48 64
        E 0 8b 48 64
        E 0 8e 48 64
        E 0 9b 48 64
        E 0 9e 48 64
        E 0 8b 48 64
        E 0 8e 48 64
        E 0 9b 48 64
        E 0 9e 48 64
        E 0 8b 48 64
        E 0 8e 48 64
        E 0 9b 48 64
        E 1 9e 48 64
        E 0 8b 48 64
        E 0 8e 48 64
        E 0 9b 4a 64
        E 0 9e 4a 64
        E 0 8b 4a 64
        E 0 8e 4a 64
        E 0 8f 34 64
        E 0 9b 46 66
        E 0 9e 46 66
        E 0 9f 34 5a
        E 0 8b 46 66
        E 0 8e 46 66
        E 0 9b 46 66
        E 0 9e 46 66
        E 0 8b 46 66
        E 0 8e 46 66
        E 0 9b 46 66
        E 0 9e 46 66
        E 0 8b 46 66
        E 0 8e 46 66
        E 0 9b 46 66
        E 0 9e 46 66
        E 0 8b 46 66
        E 0 8e 46 66
        E 0 9b 45 64
        E 0 9e 45 64
        E 0 8b 45 64
        E 0 8e 45 64
        E 0 8f 34 64
        E 0 9b 45 64
        E 0 9e 45 64
        E 0 9f 35 5a
        E 0 8b 45 64
        E 0 8e 45 64
        E 0 9b 45 64
        E 0 9e 45 64
        E 0 8b 45 64
        E 0 8e 45 64
        E 0 8f 35 64
        E 0 9b 4a 64
        E 0 9e 4a 64
        E 0 9f 35 5a
        E 0 8b 4a 64
        E 0 8e 4a 64
        E 0 9b 47 64
        E 0 9e 47 64
        E 0 8b 47 64
        E 0 8e 47 64
        E 0 9b 47 64
        E 0 9e 47 64
        E 0 8b 47 64
        E 0 8e 47 64
        E 0 9b 47 64
        E 0 9e 47 64
        E 0 8b 47 64
        E 0 8e 47 64
        E 0 9b 48 64
        E 0 9e 48 64
        E 0 8b 48 64
        E 0 8e 48 64
        E 0 8f 35 64
        E 0 9b 43 64
        E 0 9e 43 64
        E 0 9f 37 5a
        E 0 8b 43 64
        E 0 8e 43 64
        E 0 9b 43 64
        E 0 9e 43 64
        E 0 8b 43 64
        E 0 8e 43 64
        E 0 8f 37 64
        E 0 9f 30 5a
        E 0 9b 43 64
        E 0 9e 43 64
        E 0 8b 43 64
        E 0 8e 43 64
        E 0 8f 30 64
        E 0 9b 48 64
        E 0 9e 48 64
        E 0 9f 30 5a
        E 0 8b 48 64
        E 0 8e 48 64
        E 0 9b 48 64
        E 0 9e 48 64
        E 0 8b 48 64
        E 0 8e 48 64
        E 1 9b 47 64
        E 0 9e 47 64
        E 0 8b 47 64
        E 0 8e 47 64
        E 0 9b 45 64
        E 0 9e 45 64
        E 0 8b 45 64
        E 0 8e 45 64
        E 0 8f 30 64
        E 0 9b 42 64
        E 0 9e 42 64
        E 0 9f 32 5a
        E 0 8b 42 64
        E 0 8e 42 64
        E 0 9b 42 64
        E 0 9e 42 64
        E 0 8b 42 64
        E 0 8e 42 64
        E 0 9b 47 64
        E 0 9e 47 64
        E 0 8b 47 64
        E 0 8e 47 64
        E 0 9b 48 64
        E 0 9e 48 64
        E 0 8b 48 64
        E 0 8e 48 64
        E 0 8f 32 64
        E 0 9b 4a 64
        E 0 9e 4a 64
        E 0 9f 32 5a
        E 0 8b 4a 64
        E 0 8e 4a 64
        E 0 9b 4a 64
        E 0 9e 4a 64
        E 0 8b 4a 64
        E 0 8e 4a 64
        E 0 9b 48 64
        E 0 9e 48 64
        E 0 8b 48 64
        E 0 8e 48 64
        E 0 8f 32 64
        E 0 9b 45 64
        E 0 9e 45 64
        E 0 9f 2d 5a
        E 0 8b 45 64
        E 0 8e 45 64
        E 0 9b 45 64
        E 0 9e 45 64
        E 0 8b 45 64
        E 0 8e 45 64
        E 0 9b 48 64
        E 0 9e 48 64
        E 0 8b 48 64
        E 0 8e 48 64
        E 0 9b 47 64
        E 0 9e 47 64
        E 0 8b 47 64
        E 0 8e 47 64
        E 0 8f 2d 64
        E 0 9b 47 64
        E 0 9e 47 64
        E 0 9f 33 5a
        E 0 8b 47 64
        E 0 8e 47 64
        E 0 9b 47 64
        E 1 9e 47 64
        E 38402 8b 47 64
        E 0 8e 47 64
        E 0 9b 48 64
        E 0 9e 48 64
        E 0 8b 48 64
        E 0 8e 48 64
        E 0 9b 45 64
        E 0 9e 45 64
        E 0 8b 45 64
        E 0 8e 45 64
        E 1 9b 45 64
        E 0 9e 45 64
        E 0 8b 45 64
        E 0 8e 45 64
        E 0 9b 45 64
        E 0 9e 45 64
        E 0 8b 45 64
        E 0 8e 45 64
        E 0 9b 43 64
        E 0 9e 43 64
        E 0 8b 43 64
        E 0 8e 43 64
        E 0 8f 33 64
        E 0 9b 43 64
        E 0 9e 43 64
        E 0 9f 34 5a
        E 0 8b 43 64
        E 0 8e 43 64
        E 0 9b 43 64
        E 0 9e 43 64
        E 0 8b 43 64
        E 0 8e 43 64
        E 0 9b 47 64
        E 0 9e 47 64
        E 0 8b 47 64
        E 0 8e 47 64
        E 0 8f 34 64
        E 0 9b 49 64
        E 0 9e 49 64
        E 0 9f 35 59
        E 0 8b 49 64
        E 0 8e 49 64
        E 0 9b 44 64
        E 0 9e 44 64
        E 0 8b 44 64
        E 0 8e 44 64
        E 0 9b 47 64
        E 0 9e 47 64
        E 0 8b 47 64
        E 0 8e 47 64
        E 0 9b 45 64
        E 0 9e 45 64
        E 0 8b 45 64
        E 0 8e 45 64
        E 0 8f 35 63
        E 0 9b 42 64
        E 0 9e 42 64
        E 0 9f 36 5a
        E 0 8b 42 64
        E 0 8e 42 64
        E 0 9b 49 64
        E 0 9e 49 64
        E 0 8b 49 64
        E 0 8e 49 64
        E 0 9b 49 64
        E 0 9e 49 64
        E 0 8b 49 64
        E 0 8e 49 64
        E 0 9b 4a 64
        E 0 9e 4a 64
        E 0 8b 4a 64
        E 0 8e 4a 64
        E 0 8f 36 64
        E 0 9b 4a 64
        E 1 9e 4a 64
        E 0 9f 2f 5a
        E 0 8b 4a 64
        E 0 8e 4a 64
        E 0 9b 4a 64
        E 0 9e 4a 64
        E 0 8b 4a 64
        E 0 8e 4a 64
        E 0 9b 42 64
        E 0 9e 42 64
        E 0 8b 42 64
        E 0 8e 42 64
        E 0 9b 42 64
        E 0 9e 42 64
        E 0 8b 42 64
        E 0 8e 42 64
        E 0 9b 42 64
        E 0 9e 42 64
        E 0 8b 42 64
        E 0 8e 42 64
        E 0 8f 2f 64
        E 0 9b 47 64
        E 0 9e 47 64
        E 0 9f 37 5a
        E 0 8b 47 64
        E 0 8e 47 64
        E 0 9b 47 64
        E 0 9e 47 64
        E 0 8b 47 64
        E 0 8e 47 64
        E 0 9b 47 64
        E 0 9e 47 64
        E 0 8b 47 64
        E 0 8e 47 64
        E 0 9b 47 64
        E 0 9e 47 64
        E 0 8b 47 64
        E 0 8e 47 64
        E 0 9b 40 64
        E 1 9e 40 64
        E 0 8b 40 64
        E 0 8e 40 64
        E 0 8f 37 64
        E 0 9b 42 64
        E 0 9e 42 64
        E 0 9f 36 5a
        E 0 8b 42 64
        E 0 8e 42 64
        E 0 9b 42 64
        E 0 9e 42 64
        E 0 8b 42 64
        E 0 8e 42 64
        E 0 9b 49 64
        E 0 9e 49 64
        E 0 8b 49 64
        E 0 8e 49 64
        E 0 8f 36 64
        E 0 9b 46 64
        E 0 9e 46 64
        E 0 9f 34 5a
        E 0 8b 46 64
        E 0 8e 46 64
        E 0 9b 46 64
        E 0 9e 46 64
        E 0 8b 46 64
        E 0 8e 46 64
        E 0 8f 34 64
        E 0 9c 49 64
        E 0 9e 3d 64
        E 0 9f 34 5a
        E 0 8c 49 64
        E 0 8e 3d 64
        E 0 9c 47 64
        E 0 9e 3b 64
        E 0 8c 47 64
        E 0 8e 3b 64
        E 0 9c 49 64
        E 0 9e 3d 64
        E 0 8c 49 64
        E 0 8e 3d 64
        E 0 8f 34 64
        E 0 9c 4a 64
        E 0 9e 3e 64
        E 0 9f 2f 5a
        E 0 8c 4a 64
        E 0 8e 3e 64
        E 0 8f 2f 64
        E 0 9c 47 64
        E 0 9e 3b 64
        E 0 9f 37 5a
        E 0 8c 47 64
        E 0 8e 3b 64
        E 0 9c 47 64
        E 0 9e 3b 64
        E 0 8c 47 64
        E 0 8e 3b 64
        E 0 9c 47 64
        E 0 9e 3b 64
        E 0 8c 47 64
        E 0 8e 3b 64
        E 0 9c 46 64
        E 0 9e 3a 64
        E 0 8c 46 64
        E 0 8e 3a 64
        E 0 9c 47 64
        E 0 9e 3b 64
        E 0 8c 47 64
        E 0 8e 3b 64
        E 0 8f 37 64
        E 0 9c 42 64
        E 0 9e 36 64
        E 0 9f 36 5a
        E 0 8c 42 64
        E 0 8e 36 64
        E 0 9c 42 64
        E 0 9e 36 64
        E 0 8c 42 64
        E 0 8e 36 64
        E 0 8f 36 64
        E 1 9f 2f 5a
        E 0 9b 4a 64
        E 0 9e 4a 64
        E 0 8b 4a 64
        E 0 8e 4a 64
        E 0 8f 2f 64
        E 0 9b 47 64
        E 0 9e 47 64
        E 0 9f 2f 5a
        E 0 8b 47 64
        E 0 8e 47 64
        E 0 8f 2f 64
        E 0 9b 45 64
        E 0 9e 45 64
        E 0 9f 31 5a
        E 0 8b 45 64
        E 0 8e 45 64
        E 0 9b 45 64
        E 0 9e 45 64
        E 0 8b 45 64
        E 0 8e 45 64
        E 0 9b 45 64
        E 0 9e 45 64
        E 0 8b 45 64
        E 0 8e 45 64
        E 0 9b 45 64
        E 0 9e 45 64
        E 0 8b 45 64
        E 0 8e 45 64
        E 0 9b 47 64
        E 0 9e 47 64
        E 0 8b 47 64
        E 0 8e 47 64
        E 0 8f 31 64
        E 0 9b 43 64
        E 0 9e 43 64
        E 0 9f 31 5a
        E 0 8b 43 64
        E 0 8e 43 64
        E 0 9b 43 64
        E 0 9e 43 64
        E 0 8b 43 64
        E 0 8e 43 64
        E 0 9b 43 64
        E 0 9e 43 64
        E 0 8b 43 64
        E 0 8e 43 64
        E 0 9b 49 64
        E 0 9e 49 64
        E 0 8b 49 64
        E 0 8e 49 64
        E 0 9b 49 64
        E 0 9e 49 64
        E 0 8b 49 64
        E 0 8e 49 64
        E 0 9b 49 64
        E 0 9e 49 64
        E 0 8b 49 64
        E 0 8e 49 64
        E 0 9b 4a 64
        E 0 9e 4a 64
        E 0 8b 4a 64
        E 0 8e 4a 64
        E 0 8f 31 64
        E 0 9b 45 64
        E 0 9e 45 64
        E 0 9f 32 5a
        E 0 8b 45 64
        E 0 8e 45 64
        E 0 9b 42 64
        E 0 9e 42 64
        E 0 8b 42 64
        E 0 8e 42 64
        E 0 9b 42 64
        E 0 9e 42 64
        E 0 8b 42 64
        E 0 8e 42 64
        E 0 9b 43 64
        E 0 9e 43 64
        E 0 8b 43 64
        E 0 8e 43 64
        E 0 8f 32 64
        E 0 9b 45 64
        E 0 9e 45 64
        E 0 9f 32 5a
        E 0 8b 45 64
        E 0 8e 45 64
        E 0 9b 45 64
        E 0 9e 45 64
        E 10752 8b 45 64
        E 0 8e 45 64
        E 1 9b 45 64
        E 0 9e 45 64
        E 0 8b 45 64
        E 0 8e 45 64
        E 0 9b 48 64
        E 0 9e 48 64
        E 0 8b 48 64
        E 0 8e 48 64
        E 1 9b 47 64
        E 0 9e 47 64
        E 0 8b 47 64
        E 0 8e 47 64
        E 0 8f 32 64
        E 0 9b 47 64
        E 0 9e 47 64
        E 0 9f 37 5a
        E 0 8b 47 64
        E 0 8e 47 64
        E 0 9b 4a 64
        E 1 9e 4a 64
        E 0 8b 4a 64
        E 0 8e 4a 64
        E 0 9b 4a 64
        E 0 9e 4a 64
        E 0 8b 4a 64
        E 0 8e 4a 64
        E 0 9b 4c 64
        E 0 9e 4c 64
        E 0 8b 4c 64
        E 0 8e 4c 64
        E 0 8f 37 64
        E 1 9b 48 64
        E 0 9e 48 64
        E 0 9f 30 5a
        E 0 8b 48 64
        E 0 8e 48 64
        E 0 9b 43 64
        E 0 9e 43 64
        E 0 8b 43 64
        E 0 8e 43 64
        E 0 9b 48 64
        E 0 9e 48 64
        E 0 8b 48 64
        E 0 8e 48 64
        E 0 9b 48 64
        E 1 9e 48 64
        E 0 8b 48 64
        E 0 8e 48 64
        E 0 9b 4c 64
        E 0 9e 4c 64
        E 0 8b 4c 64
        E 0 8e 4c 64
        E 0 9b 4c 64
        E 0 9e 4c 64
        E 1 8b 4c 64
        E 0 8e 4c 64
        E 0 8f 30 64
        E 0 9b 48 64
        E 0 9e 48 64
        E 0 9f 30 5a
        E 0 8b 48 64
        E 0 8e 48 64
        E 0 9b 47 64
        E 0 9e 47 64
        E 0 8b 47 64
        E 0 8e 47 64
        E 1 9b 48 64
        E 0 9e 48 64
        E 0 8b 48 64
        E 0 8e 48 64
        E 0 8f 30 64
        E 0 9b 45 64
        E 0 9e 45 64
        E 0 9f 35 5a
        E 0 8b 45 64
        E 0 8e 45 64
        E 0 9b 45 64
        E 0 9e 45 64
        E 0 8b 45 64
        E 0 8e 45 64
        E 0 9b 45 64
        E 0 9e 45 64
        E 0 8b 45 64
        E 1 8e 45 64
        E 0 9b 47 64
        E 1 9e 47 64
        E 0 8b 47 64
        E 0 8e 47 64
        E 0 9b 48 64
        E 0 9e 48 64
        E 255 8b 48 64
        E 1 8e 48 64
        E 0 8f 35 64
        E 0 9b 43 64
        E 0 9e 43 64
        E 0 9f 37 5a
        E 391 8b 43 64
        E 0 8e 43 64
        E 1 9b 43 64
        E 0 9e 43 64
        E 588 8b 43 64
        E 0 8e 43 64
        E 0 8f 37 64
        E 1 9f 30 5a
        E 390 97 48 64
        E 0 9e 48 64
        E 589 87 48 64
        E 0 8e 48 64
        E 0 8f 30 64
        E 1 97 4c 64
        E 0 9e 4c 64
        E 0 9f 30 5a
        E 390 87 4c 64
        E 0 8e 4c 64
        E 0 97 4c 64
        E 1 9e 4c 64
        E 600 87 4c 64
        E 1 8e 4c 64
        E 0 97 4a 64
        E 0 9e 4a 64
        E 377 87 4a 64
        E 0 8e 4a 64
        E 0 97 4c 64
        E 0 9e 4c 64
        E 406 87 4c 64
        E 0 8e 4c 64
        E 0 8f 30 64
        E 1 97 48 64
        E 0 9e 48 64
        E 0 9f 30 5a
        E 969 87 48 64
        E 0 8e 48 64
        E 583 97 43 64
        E 0 9e 43 64
        E 395 87 43 64
        E 2 8e 43 64
        E 1 97 48 64
        E 0 9e 48 64
        E 984 87 48 64
        E 1 8e 48 64
        E 576 97 4c 64
        E 0 9e 4c 64
        E 396 87 4c 64
        E 0 8e 4c 64
        E 0 8f 30 64
        E 0 97 49 64
        E 0 9e 49 64
        E 0 9f 37 5a
        E 584 87 49 64
        E 1 8e 49 64
        E 0 97 49 64
        E 0 9e 49 64
        E 392 87 49 64
        E 0 8e 49 64
        E 38992 97 45 64
        E 0 9e 45 64
        E 0 87 45 64
        E 0 8e 45 64
        E 0 97 45 64
        E 0 9e 45 64
        E 0 87 45 64
        E 0 8e 45 64
        E 0 97 49 64
        E 0 9e 49 64
        E 1 87 49 64
        E 0 8e 49 64
        E 0 97 49 64
        E 0 9e 49 64
        E 0 87 49 64
        E 0 8e 49 64
        E 0 97 4a 64
        E 0 9e 4a 64
        E 0 87 4a 64
        E 0 8e 4a 64
        E 0 8f 37 64
        E 0 97 45 64
        E 0 9e 45 64
        E 0 9f 35 5a
        E 0 87 45 64
        E 0 8e 45 64
        E 0 97 45 64
        E 0 9e 45 64
        E 0 87 45 64
        E 0 8e 45 64
        E 0 97 41 64
        E 0 9e 41 64
        E 0 87 41 64
        E 0 8e 41 64
        E 0 97 41 64
        E 0 9e 41 64
        E 0 87 41 64
        E 0 8e 41 64
        E 0 97 41 64
        E 0 9e 41 64
        E 0 87 41 64
        E 0 8e 41 64
        E 0 8f 35 64
        E 0 97 46 66
        E 0 9e 46 66
        E 0 9f 32 5a
        E 0 87 46 66
        E 0 8e 46 66
        E 0 97 46 66
        E 0 9e 46 66
        E 0 87 46 66
        E 0 8e 46 66
        E 0 97 46 66
        E 0 9e 46 66
        E 0 87 46 66
        E 0 8e 46 66
        E 0 97 48 64
        E 0 9e 48 64
        E 0 87 48 64
        E 0 8e 48 64
        E 0 97 44 66
        E 0 9e 44 66
        E 0 87 44 66
        E 0 8e 44 66
        E 0 97 44 66
        E 0 9e 44 66
        E 0 87 44 66
        E 0 8e 44 66
        E 0 97 43 64
        E 0 9e 43 64
        E 0 87 43 64
        E 0 8e 43 64
        E 0 8f 32 64
        E 0 97 43 64
        E 0 9e 43 64
        E 0 9f 33 5b
        E 0 87 43 64
        E 0 8e 43 64
        E 0 97 43 64
        E 0 9e 43 64
        E 0 87 43 64
        E 0 8e 43 64
        E 0 97 4b 66
        E 0 9e 4b 66
        E 0 87 4b 66
        E 0 8e 4b 66
        E 0 97 45 64
        E 0 9e 45 64
        E 0 87 45 64
        E 0 8e 45 64
        E 0 97 45 64
        E 0 9e 45 64
        E 0 87 45 64
        E 0 8e 45 64
        E 0 97 45 64
        E 0 9e 45 64
        E 0 87 45 64
        E 0 8e 45 64
        E 0 97 46 66
        E 0 9e 46 66
        E 0 87 46 66
        E 0 8e 46 66
        E 0 8f 33 66
        E 0 97 41 64
        E 0 9e 41 64
        E 0 9f 35 5a
        E 0 87 41 64
        E 0 8e 41 64
        E 0 8f 35 64
        E 0 9f 2e 5b
        E 0 97 46 66
        E 0 9e 46 66
        E 0 87 46 66
        E 0 8e 46 66
        E 0 97 46 66
        E 1 9e 46 66
        E 0 87 46 66
        E 0 8e 46 66
        E 1 97 48 64
        E 0 9e 48 64
        E 0 87 48 64
        E 0 8e 48 64
        E 0 8f 2e 66
        E 0 97 48 64
        E 0 9e 48 64
        E 0 9f 34 5a
        E 0 87 48 64
        E 0 8e 48 64
        E 0 97 48 64
        E 0 9e 48 64
        E 0 87 48 64
        E 0 8e 48 64
        E 0 8f 34 64
        E 0 97 43 64
        E 0 9e 43 64
        E 0 9f 34 5a
        E 0 87 43 64
        E 0 8e 43 64
        E 0 97 43 64
        E 0 9e 43 64
        E 0 87 43 64
        E 1 8e 43 64
        E 0 97 43 64
        E 0 9e 43 64
        E 0 87 43 64
        E 0 8e 43 64
        E 0 97 43 64
        E 0 9e 43 64
        E 0 87 43 64
        E 0 8e 43 64
        E 0 97 45 64
        E 0 9e 45 64
        E 0 87 45 64
        E 0 8e 45 64
        E 0 97 46 66
        E 0 9e 46 66
        E 0 87 46 66
        E 0 8e 46 66
        E 0 97 46 66
        E 0 9e 46 66
        E 0 87 46 66
        E 0 8e 46 66
        E 0 8f 34 64
        E 0 97 4a 64
        E 0 9e 4a 64
        E 0 9f 34 5a
        E 0 87 4a 64
        E 0 8e 4a 64
        E 0 97 46 66
        E 0 9e 46 66
        E 0 87 46 66
        E 0 8e 46 66
        E 0 97 46 66
        E 0 9e 46 66
        E 0 87 46 66
        E 0 8e 46 66
        E 0 97 46 66
        E 0 9e 46 66
        E 0 87 46 66
        E 0 8e 46 66
        E 0 97 45 64
        E 0 9e 45 64
        E 0 87 45 64
        E 0 8e 45 64
        E 0 8f 34 64
        E 0 97 41 64
        E 0 9e 41 64
        E 0 9f 35 5a
        E 0 87 41 64
        E 0 8e 41 64
        E 0 8f 35 64
        E 0 97 48 64
        E 0 9e 48 64
        E 0 9f 35 5a
        E 1 87 48 64
        E 0 8e 48 64
        E 0 97 48 64
        E 0 9e 48 64
        E 0 87 48 64
        E 0 8e 48 64
        E 0 97 4a 64
        E 0 9e 4a 64
        E 0 87 4a 64
        E 0 8e 4a 64
        E 0 8f 35 64
        E 0 97 45 64
        E 0 9e 45 64
        E 0 9f 36 5a
        E 0 87 45 64
        E 0 8e 45 64
        E 0 97 45 64
        E 0 9e 45 64
        E 0 87 45 64
        E 0 8e 45 64
        E 0 97 45 64
        E 0 9e 45 64
        E 0 87 45 64
        E 0 8e 45 64
        E 0 97 48 64
        E 0 9e 48 64
        E 0 87 48 64
        E 0 8e 48 64
        E 0 97 46 66
        E 0 9e 46 66
        E 0 87 46 66
        E 0 8e 46 66
        E 0 8f 36 64
        E 0 97 43 64
        E 0 9e 43 64
        E 0 9f 37 5a
        E 0 87 43 64
        E 0 8e 43 64
        E 0 97 43 64
        E 0 9e 43 64
        E 0 87 43 64
        E 0 8e 43 64
        E 0 97 43 64
        E 0 9e 43 64
        E 0 87 43 64
        E 0 8e 43 64
        E 0 97 43 64
        E 0 9e 43 64
        E 0 87 43 64
        E 0 8e 43 64
        E 0 97 43 64
        E 0 9e 43 64
        E 0 87 43 64
        E 0 8e 43 64
        E 0 97 43 64
        E 0 9e 43 64
        E 0 87 43 64
        E 0 8e 43 64
        E 0 97 45 64
        E 0 9e 45 64
        E 0 87 45 64
        E 0 8e 45 64
        E 0 8f 37 64
        E 0 97 46 66
        E 0 9e 46 66
        E 0 9f 37 5a
        E 0 87 46 66
        E 0 8e 46 66
        E 0 97 46 66
        E 0 9e 46 66
        E 0 87 46 66
        E 0 8e 46 66
        E 1 97 43 64
        E 0 9e 43 64
        E 0 87 43 64
        E 0 8e 43 64
        E 0 97 49 64
        E 0 9e 49 64
        E 0 87 49 64
        E 0 8e 49 64
        E 0 97 49 64
        E 0 9e 49 64
        E 0 87 49 64
        E 0 8e 49 64
        E 0 97 49 64
        E 0 9e 49 64
        E 0 87 49 64
        E 0 8e 49 64
        E 0 97 4a 64
        E 0 9e 4a 64
        E 0 87 4a 64
        E 0 8e 4a 64
        E 0 8f 37 64
        E 0 97 45 64
        E 0 9e 45 64
        E 0 9f 39 5a
        E 0 87 45 64
        E 0 8e 45 64
        E 0 97 45 64
        E 0 9e 45 64
        E 0 87 45 64
        E 0 8e 45 64
        E 0 8f 39 64
        E 0 9b 45 64
        E 0 9e 45 64
        E 0 9f 32 5a
        E 0 8b 45 64
        E 0 8e 45 64
        E 0 9b 43 64
        E 0 9e 43 64
        E 38403 8b 43 64
        E 0 8e 43 64
        E 0 9b 45 64
        E 0 9e 45 64
        E 0 8b 45 64
        E 0 8e 45 64
        E 0 8f 32 64
        E 0 9b 41 64
        E 0 9e 41 64
        E 0 9f 32 5a
        E 0 8b 41 64
        E 0 8e 41 64
        E 0 9b 41 64
        E 0 9e 41 64
        E 0 8b 41 64
        E 0 8e 41 64
        E 0 8f 32 64
        E 0 97 45 64
        E 0 9e 45 64
        E 0 9f 32 5a
        E 0 87 45 64
        E 0 8e 45 64
        E 0 97 45 64
        E 0 9e 45 64
        E 0 87 45 64
        E 0 8e 45 64
        E 0 97 4a 64
        E 0 9e 4a 64
        E 0 87 4a 64
        E 0 8e 4a 64
        E 0 97 4a 64
        E 0 9e 4a 64
        E 0 87 4a 64
        E 0 8e 4a 64
        E 0 97 4a 64
        E 0 9e 4a 64
        E 0 87 4a 64
        E 0 8e 4a 64
        E 0 8f 32 64
        E 0 97 47 64
        E 0 9e 47 64
        E 0 9f 2c 5a
        E 0 87 47 64
        E 0 8e 47 64
        E 0 97 47 64
        E 0 9e 47 64
        E 0 87 47 64
        E 0 8e 47 64
        E 0 97 47 64
        E 0 9e 47 64
        E 0 87 47 64
        E 0 8e 47 64
        E 0 97 4a 64
        E 0 9e 4a 64
        E 0 87 4a 64
        E 0 8e 4a 64
        E 0 97 48 64
        E 0 9e 48 64
        E 0 87 48 64
        E 0 8e 48 64
        E 0 8f 2c 64
        E 0 97 45 64
        E 0 9e 45 64
        E 0 9f 2d 5a
        E 0 87 45 64
        E 0 8e 45 64
        E 0 97 45 64
        E 0 9e 45 64
        E 0 87 45 64
        E 0 8e 45 64
        E 0 97 4c 64
        E 0 9e 4c 64
        E 0 87 4c 64
        E 0 8e 4c 64
        E 0 97 48 64
        E 1 9e 48 64
        E 0 87 48 64
        E 0 8e 48 64
        E 0 97 48 64
        E 0 9e 48 64
        E 0 87 48 64
        E 0 8e 48 64
        E 0 97 48 64
        E 0 9e 48 64
        E 0 87 48 64
        E 0 8e 48 64
        E 0 97 47 64
        E 1 9e 47 64
        E 0 87 47 64
        E 0 8e 47 64
        E 0 8f 2d 64
        E 0 97 47 64
        E 0 9e 47 64
        E 0 9f 33 5a
        E 0 87 47 64
        E 0 8e 47 64
        E 0 97 47 64
        E 0 9e 47 64
        E 0 87 47 64
        E 0 8e 47 64
        E 0 97 47 64
        E 0 9e 47 64
        E 0 87 47 64
        E 0 8e 47 64
        E 0 97 47 64
        E 0 9e 47 64
        E 0 87 47 64
        E 0 8e 47 64
        E 0 97 47 64
        E 0 9e 47 64
        E 0 87 47 64
        E 0 8e 47 64
        E 0 97 47 64
        E 0 9e 47 64
        E 0 87 47 64
        E 0 8e 47 64
        E 0 97 48 64
        E 0 9e 48 64
        E 0 87 48 64
        E 0 8e 48 64
        E 0 8f 33 64
        E 0 97 45 64
        E 0 9e 45 64
        E 0 9f 33 5a
        E 0 87 45 64
        E 0 8e 45 64
        E 0 97 45 64
        E 0 9e 45 64
        E 0 87 45 64
        E 0 8e 45 64
        E 0 97 42 64
        E 0 9e 42 64
        E 0 87 42 64
        E 0 8e 42 64
        E 0 97 42 64
        E 0 9e 42 64
        E 0 87 42 64
        E 0 8e 42 64
        E 0 97 43 64
        E 0 9e 43 64
        E 0 87 43 64
        E 0 8e 43 64
        E 0 97 45 64
        E 0 9e 45 64
        E 0 87 45 64
        E 0 8e 45 64
        E 0 97 45 64
        E 0 9e 45 64
        E 0 87 45 64
        E 0 8e 45 64
        E 0 97 48 64
        E 0 9e 48 64
        E 0 87 48 64
        E 0 8e 48 64
        E 0 97 45 64
        E 0 9e 45 64
        E 0 87 45 64
        E 0 8e 45 64
        E 0 97 43 64
        E 0 9e 43 64
        E 0 87 43 64
        E 0 8e 43 64
        E 0 8f 33 64
        E 0 97 40 64
        E 0 9e 40 64
        E 0 9f 34 5a
        E 0 87 40 64
        E 0 8e 40 64
        E 0 9b 43 64
        E 0 9e 43 64
        E 0 8b 43 64
        E 0 8e 43 64
        E 0 8f 34 64
        E 0 9b 45 64
        E 0 9e 45 64
        E 0 9f 30 5a
        E 0 8b 45 64
        E 0 8e 45 64
        E 0 9b 45 64
        E 0 9e 45 64
        E 0 8b 45 64
        E 0 8e 45 64
        E 0 9b 45 64
        E 0 9e 45 64
        E 0 8b 45 64
        E 0 8e 45 64
        E 0 9b 45 64
        E 0 9e 45 64
        E 0 8b 45 64
        E 0 8e 45 64
        E 0 8f 30 64
        E 0 9b 42 64
        E 0 9e 42 64
        E 0 9f 2f 5a
        E 0 8b 42 64
        E 0 8e 42 64
        E 0 9b 42 64
        E 1 9e 42 64
        E 0 8b 42 64
        E 0 8e 42 64
        E 0 9b 47 64
        E 0 9e 47 64
        E 0 8b 47 64
        E 0 8e 47 64
        E 0 9b 47 64
        E 0 9e 47 64
        E 0 8b 47 64
        E 0 8e 47 64
        E 0 9b 49 64
        E 0 9e 49 64
        E 0 8b 49 64
        E 0 8e 49 64
        E 0 8f 2f 64
        E 0 9b 4a 64
        E 0 9e 4a 64
        E 0 9f 35 59
        E 0 8b 4a 64
        E 0 8e 4a 64
        E 0 9b 44 64
        E 0 9e 44 64
        E 0 8b 44 64
        E 0 8e 44 64
        E 0 9b 44 64
        E 0 9e 44 64
        E 0 8b 44 64
        E 0 8e 44 64
        E 0 8f 35 63
        E 0 9b 44 64
        E 0 9e 44 64
        E 0 9f 35 59
        E 0 8b 44 64
        E 0 8e 44 64
        E 0 9b 44 64
        E 0 9e 44 64
        E 0 8b 44 64
        E 0 8e 44 64
        E 0 9b 44 64
        E 0 9e 44 64
        E 0 8b 44 64
        E 0 8e 44 64
        E 0 9b 45 64
        E 0 9e 45 64
        E 0 8b 45 64
        E 0 8e 45 64
        E 0 9b 47 64
        E 0 9e 47 64
        E 0 8b 47 64
        E 0 8e 47 64
        E 0 9b 47 64
        E 0 9e 47 64
        E 0 8b 47 64
        E 0 8e 47 64
        E 0 9b 47 64
        E 0 9e 47 64
        E 0 8b 47 64
        E 0 8e 47 64
        E 0 9b 45 64
        E 0 9e 45 64
        E 0 8b 45 64
        E 0 8e 45 64
        E 0 8f 35 63
        E 0 9b 42 64
        E 0 9e 42 64
        E 0 9f 36 5a
        E 0 8b 42 64
        E 0 8e 42 64
        E 0 9b 42 64
        E 0 9e 42 64
        E 0 8b 42 64
        E 0 8e 42 64
        E 0 9b 45 64
        E 0 9e 45 64
        E 0 8b 45 64
        E 0 8e 45 64
        E 1 9b 49 64
        E 0 9e 49 64
        E 0 8b 49 64
        E 0 8e 49 64
        E 0 9b 49 64
        E 0 9e 49 64
        E 0 8b 49 64
        E 0 8e 49 64
        E 0 9b 45 64
        E 0 9e 45 64
        E 0 8b 45 64
        E 0 8e 45 64
        E 0 8f 36 64
        E 0 9b 4a 64
        E 0 9e 4a 64
        E 0 9f 36 5a
        E 0 8b 4a 64
        E 0 8e 4a 64
        E 0 9b 45 64
        E 0 9e 45 64
        E 0 8b 45 64
        E 0 8e 45 64
        E 0 9b 45 64
        E 0 9e 45 64
        E 0 8b 45 64
        E 0 8e 45 64
        E 0 9b 44 64
        E 0 9e 44 64
        E 0 8b 44 64
        E 0 8e 44 64
        E 0 8f 36 64
        E 0 9b 47 64
        E 0 9e 47 64
        E 0 9f 34 5a
        E 0 8b 47 64
        E 0 8e 47 64
        E 0 9b 47 64
        E 0 9e 47 64
        E 0 8b 47 64
        E 0 8e 47 64
        E 0 97 47 64
        E 0 9e 47 64
        E 0 87 47 64
        E 0 8e 47 64
        E 0 8f 34 64
        E 0 97 4a 64
        E 0 9e 4a 64
        E 0 9f 34 5a
        E 0 87 4a 64
        E 0 8e 4a 64
        E 0 97 4a 64
        E 0 9e 4a 64
        E 0 87 4a 64
        E 0 8e 4a 64
        E 0 97 49 64
        E 0 9e 49 64
        E 38403 87 49 64
        E 0 8e 49 64
        E 0 8f 34 64
        E 0 97 45 64
        E 0 9e 45 64
        E 0 9f 2d 5a
        E 0 87 45 64
        E 0 8e 45 64
        E 0 97 45 64
        E 0 9e 45 64
        E 0 87 45 64
        E 0 8e 45 64
        E 0 8f 2d 64
        E 0 97 49 64
        E 0 9e 49 64
        E 0 9f 2d 5a
        E 1 87 49 64
        E 0 8e 49 64
        E 0 97 4a 64
        E 0 9e 4a 64
        E 0 87 4a 64
        E 0 8e 4a 64
        E 0 97 4c 64
        E 0 9e 4c 64
        E 0 87 4c 64
        E 0 8e 4c 64
        E 0 97 45 64
        E 0 9e 45 64
        E 0 87 45 64
        E 0 8e 45 64
        E 0 97 45 64
        E 0 9e 45 64
        E 0 87 45 64
        E 0 8e 45 64
        E 0 97 45 64
        E 0 9e 45 64
        E 0 87 45 64
        E 0 8e 45 64
        E 0 8f 2d 64
        E 0 97 45 64
        E 0 9e 45 64
        E 0 9f 2d 5a
        E 0 87 45 64
        E 0 8e 45 64
        E 0 97 45 64
        E 0 9e 45 64
        E 0 87 45 64
        E 0 8e 45 64
        E 0 97 45 64
        E 0 9e 45 64
        E 0 87 45 64
        E 0 8e 45 64
        E 0 97 45 64
        E 1 9e 45 64
        E 0 87 45 64
        E 0 8e 45 64
        E 0 97 45 64
        E 0 9e 45 64
        E 0 87 45 64
        E 0 8e 45 64
        E 0 8f 2d 64
        E 0 97 4a 64
        E 0 9e 4a 64
        E 0 9f 2a 5a
        E 0 87 4a 64
        E 0 8e 4a 64
        E 0 97 4a 64
        E 0 9e 4a 64
        E 0 87 4a 64
        E 0 8e 4a 64
        E 0 97 4a 64
        E 0 9e 4a 64
        E 0 87 4a 64
        E 0 8e 4a 64
        E 0 97 4c 64
        E 0 9e 4c 64
        E 0 87 4c 64
        E 0 8e 4c 64
        E 0 8f 2a 64
        E 0 97 48 64
        E 0 9e 48 64
        E 1 9f 2a 5a
        E 0 87 48 64
        E 0 8e 48 64
        E 0 97 48 64
        E 0 9e 48 64
        E 0 87 48 64
        E 0 8e 48 64
        E 0 97 47 64
        E 0 9e 47 64
        E 0 87 47 64
        E 0 8e 47 64
        E 0 8f 2a 64
        E 0 97 43 64
        E 0 9e 43 64
        E 0 9f 2b 5a
        E 0 87 43 64
        E 0 8e 43 64
        E 0 97 47 64
        E 0 9e 47 64
        E 0 87 47 64
        E 0 8e 47 64
        E 0 97 47 64
        E 0 9e 47 64
        E 0 87 47 64
        E 0 8e 47 64
        E 0 97 48 64
        E 0 9e 48 64
        E 0 87 48 64
        E 0 8e 48 64
        E 0 8f 2b 64
        E 0 97 4a 64
        E 0 9e 4a 64
        E 0 9f 2b 5a
        E 0 87 4a 64
        E 0 8e 4a 64
        E 0 97 4a 64
        E 0 9e 4a 64
        E 0 87 4a 64
        E 0 8e 4a 64
        E 0 97 4d 64
        E 0 9e 4d 64
        E 0 87 4d 64
        E 0 8e 4d 64
        E 0 97 4d 64
        E 0 9e 4d 64
        E 0 87 4d 64
        E 0 8e 4d 64
        E 0 97 4a 64
        E 0 9e 4a 64
        E 0 87 4a 64
        E 0 8e 4a 64
        E 0 97 4a 64
        E 0 9e 4a 64
        E 0 87 4a 64
        E 0 8e 4a 64
        E 0 97 4c 64
        E 1 9e 4c 64
        E 0 87 4c 64
        E 0 8e 4c 64
        E 0 8f 2b 64
        E 0 97 48 64
        E 0 9e 48 64
        E 0 9f 30 5a
        E 0 87 48 64
        E 0 8e 48 64
        E 0 97 48 64
        E 0 9e 48 64
        E 0 87 48 64
        E 0 8e 48 64
        E 0 97 43 64
        E 0 9e 43 64
        E 0 87 43 64
        E 0 8e 43 64
        E 0 97 43 64
        E 0 9e 43 64
        E 0 87 43 64
        E 0 8e 43 64
        E 0 97 43 64
        E 0 9e 43 64
        E 0 87 43 64
        E 0 8e 43 64
        E 0 8f 30 64
        E 0 97 48 64
        E 0 9e 48 64
        E 0 9f 30 5a
        E 0 87 48 64
        E 0 8e 48 64
        E 0 97 48 64
        E 0 9e 48 64
        E 0 87 48 64
        E 0 8e 48 64
        E 0 97 48 64
        E 0 9e 48 64
        E 0 87 48 64
        E 1 8e 48 64
        E 0 97 48 64
        E 0 9e 48 64
        E 0 87 48 64
        E 0 8e 48 64
        E 0 97 48 64
        E 0 9e 48 64
        E 0 87 48 64
        E 0 8e 48 64
        E 0 97 48 64
        E 0 9e 48 64
        E 0 87 48 64
        E 0 8e 48 64
        E 0 97 4a 64
        E 0 9e 4a 64
        E 0 87 4a 64
        E 0 8e 4a 64
        E 0 8f 30 64
        E 0 97 46 66
        E 0 9e 46 66
        E 0 9f 30 5a
        E 0 87 46 66
        E 0 8e 46 66
        E 0 97 46 66
        E 0 9e 46 66
        E 0 87 46 66
        E 0 8e 46 66
        E 0 97 43 64
        E 0 9e 43 64
        E 0 87 43 64
        E 0 8e 43 64
        E 0 97 43 64
        E 0 9e 43 64
        E 0 87 43 64
        E 0 8e 43 64
        E 0 97 45 64
        E 1 9e 45 64
        E 0 87 45 64
        E 0 8e 45 64
        E 0 97 46 66
        E 0 9e 46 66
        E 0 87 46 66
        E 0 8e 46 66
        E 0 97 46 66
        E 0 9e 46 66
        E 0 87 46 66
        E 0 8e 46 66
        E 0 97 4a 64
        E 0 9e 4a 64
        E 0 87 4a 64
        E 0 8e 4a 64
        E 0 8f 30 64
        E 0 97 46 66
        E 0 9e 46 66
        E 0 9f 30 5a
        E 0 87 46 66
        E 0 8e 46 66
        E 0 97 46 66
        E 0 9e 46 66
        E 0 87 46 66
        E 0 8e 46 66
        E 0 97 46 66
        E 0 9e 46 66
        E 0 87 46 66
        E 0 8e 46 66
        E 0 97 45 64
        E 0 9e 45 64
        E 0 87 45 64
        E 0 8e 45 64
        E 0 8f 30 64
        E 0 97 45 64
        E 0 9e 45 64
        E 0 9f 35 5a
        E 0 87 45 64
        E 0 8e 45 64
        E 0 97 45 64
        E 0 9e 45 64
        E 0 87 45 64
        E 0 8e 45 64
        E 0 97 41 64
        E 0 9e 41 64
        E 0 87 41 64
        E 1 8e 41 64
        E 0 8f 35 64
        E 0 97 48 64
        E 0 9e 48 64
        E 0 9f 35 5a
        E 0 87 48 64
        E 0 8e 48 64
        E 0 97 48 64
        E 0 9e 48 64
        E 0 87 48 64
        E 0 8e 48 64
        E 0 97 46 66
        E 0 9e 46 66
        E 0 87 46 66
        E 0 8e 46 66
        E 0 97 48 64
        E 0 9e 48 64
        E 0 87 48 64
        E 0 8e 48 64
        E 0 8f 35 64
        E 0 97 4a 64
        E 0 9e 4a 64
        E 0 9f 2e 5b
        E 0 87 4a 64
        E 0 8e 4a 64
        E 0 97 4a 64
        E 0 9e 4a 64
        E 0 87 4a 64
        E 0 8e 4a 64
        E 0 97 4a 64
        E 0 9e 4a 64
        E 0 87 4a 64
        E 0 8e 4a 64
        E 0 97 46 66
        E 0 9e 46 66
        E 0 87 46 66
        E 0 8e 46 66
        E 0 97 45 64
        E 0 9e 45 64
        E 0 87 45 64
        E 0 8e 45 64
        E 0 8f 2e 66
        E 0 97 41 64
        E 0 9e 41 64
        E 0 9f 30 5a
        E 0 87 41 64
        E 0 8e 41 64
        E 0 97 41 64
        E 0 9e 41 64
        E 0 87 41 64
        E 0 8e 41 64
        E 0 8f 30 64
        E 0 9f 35 5a
        E 38403 8f 35 64
        E 0 96 48 64
        E 0 9e 48 64
        E 0 9f 35 5a
        E 0 86 48 64
        E 0 8e 48 64
        E 0 96 48 64
        E 0 9e 48 64
        E 0 86 48 64
        E 0 8e 48 64
        E 0 96 48 64
        E 1 9e 48 64
        E 0 86 48 64
        E 0 8e 48 64
        E 0 96 46 66
        E 0 9e 46 66
        E 0 86 46 66
        E 0 8e 46 66
        E 0 96 48 64
        E 0 9e 48 64
        E 0 86 48 64
        E 0 8e 48 64
        E 0 8f 35 64
        E 0 96 45 64
        E 0 9e 45 64
        E 0 9f 35 5a
        E 0 86 45 64
        E 0 8e 45 64
        E 0 96 45 64
        E 0 9e 45 64
        E 0 86 45 64
        E 0 8e 45 64
        E 0 96 45 64
        E 0 9e 45 64
        E 0 86 45 64
        E 0 8e 45 64
        E 0 9b 48 64
        E 0 9e 48 64
        E 0 8b 48 64
        E 0 8e 48 64
        E 0 9b 41 64
        E 0 9e 41 64
        E 0 8b 41 64
        E 0 8e 41 64
        E 0 9b 41 64
        E 0 9e 41 64
        E 0 8b 41 64
        E 0 8e 41 64
        E 0 8f 35 64
        E 0 9b 46 66
        E 0 9e 46 66
        E 0 9f 32 5a
        E 0 8b 46 66
        E 0 8e 46 66
        E 0 9b 46 66
        E 0 9e 46 66
        E 0 8b 46 66
        E 0 8e 46 66
        E 0 9b 46 66
        E 0 9e 46 66
        E 0 8b 46 66
        E 0 8e 46 66
        E 0 9b 46 66
        E 0 9e 46 66
        E 0 8b 46 66
        E 0 8e 46 66
        E 0 9b 46 66
        E 0 9e 46 66
        E 0 8b 46 66
        E 0 8e 46 66
        E 0 9b 46 66
        E 0 9e 46 66
        E 0 8b 46 66
        E 0 8e 46 66
        E 0 9b 45 64
        E 0 9e 45 64
        E 0 8b 45 64
        E 0 8e 45 64
        E 0 8f 32 64
        E 0 9b 45 64
        E 0 9e 45 64
        E 0 9f 36 5a
        E 0 8b 45 64
        E 0 8e 45 64
        E 0 9b 45 64
        E 0 9e 45 64
        E 0 8b 45 64
        E 0 8e 45 64
        E 0 9b 45 64
        E 0 9e 45 64
        E 0 8b 45 64
        E 0 8e 45 64
        E 0 9b 48 64
        E 0 9e 48 64
        E 0 8b 48 64
        E 0 8e 48 64
        E 0 9b 46 66
        E 1 9e 46 66
        E 0 8b 46 66
        E 0 8e 46 66
        E 0 8f 36 64
        E 0 9b 43 64
        E 0 9e 43 64
        E 0 9f 37 5a
        E 0 8b 43 64
        E 0 8e 43 64
        E 0 9b 43 64
        E 0 9e 43 64
        E 0 8f 37 64
        E 0 8b 43 64
        E 0 8e 43 64
        E 0 9f 37 5a
        E 0 9b 46 66
        E 0 9e 46 66
        E 0 8b 46 66
        E 0 8e 46 66
        E 0 9b 46 66
        E 0 9e 46 66
        E 0 8b 46 66
        E 0 8e 46 66
        E 0 9b 46 66
        E 0 9e 46 66
        E 0 8b 46 66
        E 0 8e 46 66
        E 0 9b 45 64
        E 0 9e 45 64
        E 0 8f 37 64
        E 0 8b 45 64
        E 0 8e 45 64
        E 0 9f 31 5a
        E 0 9b 45 64
        E 0 9e 45 64
        E 0 8b 45 64
        E 0 8e 45 64
        E 0 9b 45 64
        E 0 9e 45 64
        E 0 8b 45 64
        E 0 8e 45 64
        E 0 9b 4c 64
        E 0 9e 4c 64
        E 0 8b 4c 64
        E 0 8e 4c 64
        E 0 8f 31 64
        E 0 9b 49 64
        E 0 9e 49 64
        E 0 9f 2b 5a
        E 0 8b 49 64
        E 0 8e 49 64
        E 0 9b 49 64
        E 0 9e 49 64
        E 0 8b 49 64
        E 0 8e 49 64
        E 0 9b 49 64
        E 0 9e 49 64
        E 0 8b 49 64
        E 0 8e 49 64
        E 0 9b 4a 64
        E 0 9e 4a 64
        E 0 8b 4a 64
        E 0 8e 4a 64
        E 0 8f 2b 64
        E 0 9b 45 64
        E 0 9e 45 64
        E 0 9f 29 5a
        E 0 8b 45 64
        E 0 8e 45 64
        E 0 9b 45 64
        E 0 9e 45 64
        E 0 8b 45 64
        E 0 8e 45 64
        E 0 97 4d 64
        E 0 9e 4d 64
        E 0 87 4d 64
        E 0 8e 4d 64
        E 0 8f 29 64
        E 0 97 4a 64
        E 0 9e 4a 64
        E 0 9f 29 5a
        E 0 87 4a 64
        E 0 8e 4a 64
        E 0 97 45 64
        E 0 9e 45 64
        E 0 87 45 64
        E 0 8e 45 64
        E 0 97 47 64
        E 0 9e 47 64
        E 0 87 47 64
        E 0 8e 47 64
        E 0 97 47 64
        E 0 9e 47 64
        E 0 87 47 64
        E 0 8e 47 64
        E 0 97 4a 64
        E 0 9e 4a 64
        E 0 87 4a 64
        E 0 8e 4a 64
        E 0 97 4a 64
        E 0 9e 4a 64
        E 0 87 4a 64
        E 0 8e 4a 64
        E 0 97 4b 66
        E 0 9e 4b 66
        E 0 87 4b 66
        E 0 8e 4b 66
        E 0 8f 29 64
        E 0 97 48 64
        E 1 9e 48 64
        E 0 9f 27 5b
        E 0 87 48 64
        E 0 8e 48 64
        E 0 97 43 64
        E 0 9e 43 64
        E 0 87 43 64
        E 0 8e 43 64
        E 0 97 43 64
        E 0 9e 43 64
        E 0 87 43 64
        E 0 8e 43 64
        E 0 97 43 64
        E 0 9e 43 64
        E 0 87 43 64
        E 0 8e 43 64
        E 0 97 48 64
        E 0 9e 48 64
        E 0 87 48 64
        E 0 8e 48 64
        E 0 97 49 66
        E 0 9e 49 66
        E 0 87 49 66
        E 0 8e 49 66
        E 0 8f 27 66
        E 0 97 46 66
        E 0 9e 46 66
        E 0 9f 28 5a
        E 0 87 46 66
        E 0 8e 46 66
        E 0 97 46 66
        E 0 9e 46 66
        E 0 87 46 66
        E 0 8e 46 66
        E 0 97 43 64
        E 0 9e 43 64
        E 0 87 43 64
        E 0 8e 43 64
        E 0 97 46 66
        E 0 9e 46 66
        E 0 87 46 66
        E 0 8e 46 66
        E 1 97 46 66
        E 0 9e 46 66
        E 0 87 46 66
        E 0 8e 46 66
        E 0 97 46 66
        E 0 9e 46 66
        E 0 87 46 66
        E 0 8e 46 66
        E 0 97 44 66
        E 0 9e 44 66
        E 0 87 44 66
        E 0 8e 44 66
        E 0 8f 28 64
        E 0 97 41 64
        E 0 9e 41 64
        E 0 9f 29 5a
        E 0 87 41 64
        E 0 8e 41 64
        E 0 97 41 64
        E 0 9e 41 64
        E 0 87 41 64
        E 0 8e 41 64
        E 0 97 48 64
        E 0 9e 48 64
        E 0 87 48 64
        E 0 8e 48 64
        E 0 97 48 64
        E 0 9e 48 64
        E 0 87 48 64
        E 0 8e 48 64
        E 0 97 48 64
        E 0 9e 48 64
        E 0 87 48 64
        E 0 8e 48 64
        E 0 8f 29 64
        E 0 97 45 64
        E 0 9e 45 64
        E 0 9f 33 5b
        E 0 87 45 64
        E 0 8e 45 64
        E 0 97 45 64
        E 0 9e 45 64
        E 0 87 45 64
        E 0 8e 45 64
        E 0 8f 33 66
        E 0 97 41 64
        E 0 9e 41 64
        E 0 9f 33 5b
        E 0 87 41 64
        E 0 8e 41 64
        E 0 97 41 64
        E 0 9e 41 64
        E 0 87 41 64
        E 0 8e 41 64
        E 0 97 41 64
        E 0 9e 41 64
        E 0 87 41 64
        E 0 8e 41 64
        E 0 97 41 64
        E 0 9e 41 64
        E 0 87 41 64
        E 0 8e 41 64
        E 0 97 43 64
        E 0 9e 43 64
        E 38404 87 43 64
        E 0 8e 43 64
        E 0 97 45 64
        E 0 9e 45 64
        E 0 87 45 64
        E 0 8e 45 64
        E 0 97 45 64
        E 0 9e 45 64
        E 0 87 45 64
        E 0 8e 45 64
        E 0 9b 4c 64
        E 0 9e 4c 64
        E 0 8b 4c 64
        E 0 8e 4c 64
        E 0 9b 45 64
        E 0 9e 45 64
        E 0 8b 45 64
        E 0 8e 45 64
        E 0 9b 46 66
        E 0 9e 46 66
        E 0 8b 46 66
        E 0 8e 46 66
        E 0 8f 33 66
        E 0 9b 45 64
        E 0 9e 45 64
        E 0 9f 35 5a
        E 0 8b 45 64
        E 0 8e 45 64
        E 0 9b 45 64
        E 0 9e 45 64
        E 0 8b 45 64
        E 0 8e 45 64
        E 0 8f 35 64
        E 1 9f 2e 5b
        E 0 97 4a 64
        E 0 9e 4a 64
        E 0 87 4a 64
        E 0 8e 4a 64
        E 0 97 48 64
        E 0 9e 48 64
        E 0 87 48 64
        E 0 8e 48 64
        E 0 97 4a 64
        E 0 9e 4a 64
        E 0 87 4a 64
        E 0 8e 4a 64
        E 0 8f 2e 66
        E 0 97 46 66
        E 0 9e 46 66
        E 0 9f 2e 5b
        E 0 87 46 66
        E 0 8e 46 66
        E 0 97 46 66
        E 0 9e 46 66
        E 0 87 46 66
        E 0 8e 46 66
        E 0 8f 2e 66
        E 0 9a 41 64
        E 0 9e 41 64
        E 0 9f 2e 5b
        E 0 8a 41 64
        E 0 8e 41 64
        E 0 9a 41 64
        E 0 9e 41 64
        E 0 8a 41 64
        E 0 8e 41 64
        E 0 9a 41 64
        E 0 9e 41 64
        E 0 8a 41 64
        E 0 8e 41 64
        E 0 9a 41 64
        E 0 9e 41 64
        E 0 8a 41 64
        E 0 8e 41 64
        E 0 9a 41 64
        E 0 9e 41 64
        E 0 8a 41 64
        E 0 8e 41 64
        E 0 9a 46 66
        E 0 9e 46 66
        E 0 8a 46 66
        E 0 8e 46 66
        E 0 9a 46 66
        E 0 9e 46 66
        E 0 8a 46 66
        E 0 8e 46 66
        E 0 8f 2e 66
        E 0 9a 46 66
        E 0 9e 46 66
        E 0 9f 2e 5b
        E 0 8a 46 66
        E 0 8e 46 66
        E 1 9a 46 66
        E 0 9e 46 66
        E 0 8a 46 66
        E 0 8e 46 66
        E 0 9a 46 66
        E 0 9e 46 66
        E 0 8a 46 66
        E 0 8e 46 66
        E 0 9a 46 66
        E 0 9e 46 66
        E 0 8a 46 66
        E 0 8e 46 66
        E 0 9a 48 64
        E 0 9e 48 64
        E 0 8a 48 64
        E 0 8e 48 64
        E 0 9a 44 66
        E 0 9e 44 66
        E 0 8a 44 66
        E 0 8e 44 66
        E 0 9a 44 66
        E 0 9e 44 66
        E 0 8a 44 66
        E 0 8e 44 66
        E 0 9a 44 66
        E 0 9e 44 66
        E 0 8a 44 66
        E 0 8e 44 66
        E 0 9a 44 66
        E 0 9e 44 66
        E 0 8a 44 66
        E 0 8e 44 66
        E 0 9a 43 64
        E 0 9e 43 64
        E 0 8a 43 64
        E 0 8e 43 64
        E 0 8f 2e 66
        E 0 9a 3f 66
        E 0 9e 3f 66
        E 0 9f 33 5b
        E 0 8a 3f 66
        E 0 8e 3f 66
        E 0 9a 3f 66
        E 0 9e 3f 66
        E 0 8a 3f 66
        E 0 8e 3f 66
        E 0 96 43 64
        E 0 9e 43 64
        E 0 86 43 64
        E 0 8e 43 64
        E 0 96 43 64
        E 1 9e 43 64
        E 0 86 43 64
        E 0 8e 43 64
        E 0 96 43 64
        E 0 9e 43 64
        E 0 86 43 64
        E 0 8e 43 64
        E 0 96 45 64
        E 0 9e 45 64
        E 0 86 45 64
        E 0 8e 45 64
        E 0 96 46 66
        E 0 9e 46 66
        E 0 86 46 66
        E 0 8e 46 66
        E 0 8f 33 66
        E 0 96 48 64
        E 0 9e 48 64
        E 0 9f 33 5b
        E 0 86 48 64
        E 0 8e 48 64
        E 0 96 48 64
        E 0 9e 48 64
        E 0 86 48 64
        E 0 8e 48 64
        E 0 96 48 64
        E 0 9e 48 64
        E 0 86 48 64
        E 0 8e 48 64
        E 0 96 46 66
        E 0 9e 46 66
        E 0 86 46 66
        E 0 8e 46 66
        E 0 8f 33 66
        E 0 96 43 64
        E 0 9e 43 64
        E 0 9f 32 5a
        E 0 86 43 64
        E 0 8e 43 64
        E 0 96 43 64
        E 0 9e 43 64
        E 0 86 43 64
        E 0 8e 43 64
        E 0 8f 32 64
        E 0 9f 2b 5a
        E 0 8f 2b 64
        E 0 9b 4a 64
        E 0 9e 4a 64
        E 0 9f 2b 5a
        E 0 8b 4a 64
        E 0 8e 4a 64
        E 0 9b 4a 64
        E 0 9e 4a 64
        E 0 8b 4a 64
        E 0 8e 4a 64
        E 0 9b 46 66
        E 0 9e 46 66
        E 0 8b 46 66
        E 0 8e 46 66
        E 0 9b 46 66
        E 0 9e 46 66
        E 0 8b 46 66
        E 1 8e 46 66
        E 0 9b 4a 64
        E 0 9e 4a 64
        E 0 8b 4a 64
        E 0 8e 4a 64
        E 0 9b 43 64
        E 0 9e 43 64
        E 0 8b 43 64
        E 0 8e 43 64
        E 0 9b 43 64
        E 0 9e 43 64
        E 0 8b 43 64
        E 0 8e 43 64
        E 0 8f 2b 64
        E 0 9b 46 66
        E 0 9e 46 66
        E 0 9f 2b 5a
        E 0 8b 46 66
        E 0 8e 46 66
        E 0 9b 48 64
        E 0 9e 48 64
        E 0 8b 48 64
        E 0 8e 48 64
        E 0 9b 4a 64
        E 0 9e 4a 64
        E 0 8b 4a 64
        E 0 8e 4a 64
        E 0 8f 2b 64
        E 0 9b 45 64
        E 0 9e 45 64
        E 0 9f 2d 5a
        E 0 8b 45 64
        E 0 8e 45 64
        E 0 9b 45 64
        E 0 9e 45 64
        E 0 8b 45 64
        E 0 8e 45 64
        E 0 8f 2d 64
        E 0 97 45 64
        E 0 9e 45 64
        E 0 9f 32 5a
        E 0 87 45 64
        E 0 8e 45 64
        E 0 97 43 64
        E 0 9e 43 64
        E 0 87 43 64
        E 0 8e 43 64
        E 0 97 45 64
        E 0 9e 45 64
        E 0 87 45 64
        E 0 8e 45 64
        E 0 8f 32 64
        E 0 97 41 64
        E 0 9e 41 64
        E 0 9f 32 5a
        E 0 87 41 64
        E 0 8e 41 64
        E 0 8f 32 64
        E 0 9f 32 5a
        E 0 9a 3e 64
        E 0 9e 3e 64
        E 0 8a 3e 64
        E 0 8e 3e 64
        E 0 9a 3e 64
        E 0 9e 3e 64
        E 0 8a 3e 64
        E 0 8e 3e 64
        E 1 9a 40 64
        E 0 9e 40 64
        E 0 8a 40 64
        E 0 8e 40 64
        E 0 9a 41 64
        E 0 9e 41 64
        E 0 8a 41 64
        E 0 8e 41 64
        E 0 9a 41 64
        E 0 9e 41 64
        E 0 8a 41 64
        E 0 8e 41 64
        E 0 9b 45 64
        E 0 9e 45 64
        E 0 8b 45 64
        E 0 8e 45 64
        E 0 8f 32 64
        E 0 9b 4a 64
        E 0 9e 4a 64
        E 0 9f 32 5a
        E 0 8b 4a 64
        E 0 8e 4a 64
        E 0 9b 45 64
        E 0 9e 45 64
        E 0 8b 45 64
        E 0 8e 45 64
        E 0 9b 45 64
        E 0 9e 45 64
        E 0 8b 45 64
        E 0 8e 45 64
        E 0 9b 45 64
        E 0 9e 45 64
        E 0 8b 45 64
        E 0 8e 45 64
        E 0 9b 45 64
        E 0 9e 45 64
        E 0 8b 45 64
        E 0 8e 45 64
        E 0 9b 45 64
        E 0 9e 45 64
        E 0 8b 45 64
        E 0 8e 45 64
        E 0 9b 47 64
        E 1 9e 47 64
        E 38402 8b 47 64
        E 0 8e 47 64
        E 0 8f 32 64
        E 0 9b 44 64
        E 0 9e 44 64
        E 0 9f 32 5a
        E 0 8b 44 64
        E 0 8e 44 64
        E 0 9b 44 64
        E 0 9e 44 64
        E 0 8b 44 64
        E 0 8e 44 64
        E 0 9b 47 64
        E 1 9e 47 64
        E 0 8b 47 64
        E 0 8e 47 64
        E 0 9b 4a 64
        E 0 9e 4a 64
        E 0 8b 4a 64
        E 0 8e 4a 64
        E 0 9b 48 64
        E 0 9e 48 64
        E 0 8b 48 64
        E 0 8e 48 64
        E 0 8f 32 64
        E 0 9b 45 64
        E 0 9e 45 64
        E 0 9f 34 5a
        E 0 8b 45 64
        E 0 8e 45 64
        E 0 9b 45 64
        E 0 9e 45 64
        E 0 8b 45 64
        E 0 8e 45 64
        E 0 8f 34 64
        E 0 9f 2d 5a
        E 0 8f 2d 64
        E 0 9a 40 64
        E 0 9e 40 64
        E 0 9f 2d 5a
        E 0 8a 40 64
        E 0 8e 40 64
        E 0 9a 40 64
        E 0 9e 40 64
        E 0 8a 40 64
        E 0 8e 40 64
        E 0 9a 45 64
        E 0 9e 45 64
        E 0 8a 45 64
        E 0 8e 45 64
        E 0 9a 45 64
        E 0 9e 45 64
        E 0 8a 45 64
        E 0 8e 45 64
        E 0 9a 47 64
        E 0 9e 47 64
        E 0 8a 47 64
        E 0 8e 47 64
        E 0 9a 48 64
        E 0 9e 48 64
        E 0 8a 48 64
        E 0 8e 48 64
        E 0 9a 48 64
        E 0 9e 48 64
        E 0 8a 48 64
        E 0 8e 48 64
        E 0 8f 2d 64
        E 0 9a 45 64
        E 0 9e 45 64
        E 0 9f 35 5a
        E 0 8a 45 64
        E 0 8e 45 64
        E 0 9a 45 64
        E 0 9e 45 64
        E 0 8a 45 64
        E 0 8e 45 64
        E 0 9a 44 64
        E 0 9e 44 64
        E 0 8a 44 64
        E 0 8e 44 64
        E 0 8f 35 64
        E 0 9a 47 64
        E 0 9e 47 64
        E 0 9f 34 5a
        E 0 8a 47 64
        E 0 8e 47 64
        E 0 9a 47 64
        E 0 9e 47 64
        E 0 8a 47 64
        E 0 8e 47 64
        E 0 9a 48 64
        E 0 9e 48 64
        E 1 8a 48 64
        E 0 8e 48 64
        E 0 8f 34 64
        E 0 9a 45 64
        E 0 9e 45 64
        E 0 9f 30 5a
        E 0 8a 45 64
        E 0 8e 45 64
        E 0 9a 45 64
        E 0 9e 45 64
        E 0 8a 45 64
        E 0 8e 45 64
        E 0 9a 45 64
        E 0 9e 45 64
        E 0 8a 45 64
        E 0 8e 45 64
        E 0 9a 43 64
        E 0 9e 43 64
        E 0 8a 43 64
        E 0 8e 43 64
        E 0 8f 30 64
        E 0 9a 40 64
        E 0 9e 40 64
        E 0 9f 2f 5a
        E 0 8a 40 64
        E 0 8e 40 64
        E 0 9a 40 64
        E 0 9e 40 64
        E 0 8a 40 64
        E 0 8e 40 64
        E 0 8f 2f 64
        E 0 9f 34 5a
        E 0 8f 34 64
        E 0 96 47 64
        E 0 9e 47 64
        E 0 9f 34 5a
        E 0 86 47 64
        E 0 8e 47 64
        E 0 96 47 64
        E 0 9e 47 64
        E 0 86 47 64
        E 0 8e 47 64
        E 0 96 47 64
        E 0 9e 47 64
        E 0 86 47 64
        E 0 8e 47 64
        E 0 96 47 64
        E 0 9e 47 64
        E 0 86 47 64
        E 0 8e 47 64
        E 0 96 47 64
        E 0 9e 47 64
        E 0 86 47 64
        E 0 8e 47 64
        E 0 96 43 64
        E 0 9e 43 64
        E 0 86 43 64
        E 0 8e 43 64
        E 0 96 43 64
        E 0 9e 43 64
        E 0 86 43 64
        E 0 8e 43 64
        E 0 8f 34 64
        E 0 96 49 64
        E 0 9e 49 64
        E 0 9f 34 5a
        E 0 86 49 64
        E 0 8e 49 64
        E 0 96 46 64
        E 0 9e 46 64
        E 0 86 46 64
        E 0 8e 46 64
        E 0 96 47 64
        E 0 9e 47 64
        E 0 86 47 64
        E 0 8e 47 64
        E 0 8f 34 64
        E 0 96 42 64
        E 0 9e 42 64
        E 0 9f 36 5a
        E 0 86 42 64
        E 0 8e 42 64
        E 0 96 42 64
        E 0 9e 42 64
        E 0 86 42 64
        E 0 8e 42 64
        E 0 8f 36 64
        E 0 9f 2f 5a
        E 0 9a 47 64
        E 0 9e 47 64
        E 0 8a 47 64
        E 0 8e 47 64
        E 0 9a 47 64
        E 0 9e 47 64
        E 0 8a 47 64
        E 0 8e 47 64
        E 0 9a 47 64
        E 0 9e 47 64
        E 0 8a 47 64
        E 0 8e 47 64
        E 0 8f 2f 64
        E 0 9a 43 64
        E 0 9e 43 64
        E 0 9f 34 5a
        E 0 8a 43 64
        E 0 8e 43 64
        E 0 9a 43 64
        E 0 9e 43 64
        E 0 8a 43 64
        E 0 8e 43 64
        E 0 9a 43 64
        E 0 9e 43 64
        E 0 8a 43 64
        E 0 8e 43 64
        E 0 9a 43 64
        E 1 9e 43 64
        E 0 8a 43 64
        E 0 8e 43 64
        E 0 9a 42 64
        E 0 9e 42 64
        E 0 8a 42 64
        E 0 8e 42 64
        E 0 8f 34 64
        E 0 9a 45 64
        E 0 9e 45 64
        E 0 9f 32 5a
        E 0 8a 45 64
        E 0 8e 45 64
        E 0 9b 45 64
        E 0 9e 45 64
        E 0 8f 32 64
        E 0 8b 45 64
        E 0 8e 45 64
        E 0 9f 32 5a
        E 0 9b 4a 64
        E 0 9e 4a 64
        E 0 8b 4a 64
        E 0 8e 4a 64
        E 0 9b 4a 64
        E 0 9e 4a 64
        E 0 8b 4a 64
        E 0 8e 4a 64
        E 0 9b 45 64
        E 0 9e 45 64
        E 0 8b 45 64
        E 0 8e 45 64
        E 0 9b 45 64
        E 0 9e 45 64
        E 0 8b 45 64
        E 0 8e 45 64
        E 0 9b 45 64
        E 0 9e 45 64
        E 0 8b 45 64
        E 0 8e 45 64
        E 0 9b 44 64
        E 0 9e 44 64
        E 0 8b 44 64
        E 0 8e 44 64
        E 0 9b 42 64
        E 0 9e 42 64
        E 0 8f 32 64
        E 0 8b 42 64
        E 0 8e 42 64
        E 0 9f 32 5a
        E 0 9b 47 64
        E 0 9e 47 64
        E 0 8b 47 64
        E 0 8e 47 64
        E 0 9b 47 64
        E 0 9e 47 64
        E 1 8b 47 64
        E 0 8e 47 64
        E 0 9b 4a 64
        E 0 9e 4a 64
        E 0 8b 4a 64
        E 0 8e 4a 64
        E 0 9b 47 64
        E 0 9e 47 64
        E 0 8b 47 64
        E 0 8e 47 64
        E 0 9b 42 64
        E 0 9e 42 64
        E 0 8f 32 64
        E 0 8b 42 64
        E 0 8e 42 64
        E 0 9f 31 5a
        E 0 9b 44 64
        E 0 9e 44 64
        E 0 8b 44 64
        E 0 8e 44 64
        E 0 9b 44 64
        E 0 9e 44 64
        E 0 8b 44 64
        E 0 8e 44 64
        E 0 8f 31 64
        E 0 9f 31 5a
        E 0 9b 49 64
        E 0 9e 49 64
        E 0 8b 49 64
        E 0 8e 49 64
        E 0 9b 49 64
        E 0 9e 49 64
        E 0 8b 49 64
        E 0 8e 49 64
        E 0 9b 49 64
        E 0 9e 49 64
        E 0 8b 49 64
        E 0 8e 49 64
        E 0 9b 49 64
        E 0 9e 49 64
        E 0 8b 49 64
        E 0 8e 49 64
        E 0 9b 4b 64
        E 0 9e 4b 64
        E 0 8f 31 64
        E 0 8b 4b 64
        E 0 8e 4b 64
        E 0 9f 36 5a
        E 0 9b 48 63
        E 0 9e 48 63
        E 0 8b 48 63
        E 0 8e 48 63
        E 0 9b 48 63
        E 0 9e 48 63
        E 0 8b 48 63
        E 0 8e 48 63
        E 38404 8f 36 64
        E 0 9f 36 5a
        E 0 9b 48 63
        E 0 9e 48 63
        E 0 8b 48 63
        E 0 8e 48 63
        E 0 9b 48 63
        E 0 9e 48 63
        E 0 8b 48 63
        E 0 8e 48 63
        E 0 9b 48 63
        E 0 9e 48 63
        E 0 8b 48 63
        E 0 8e 48 63
        E 0 9b 46 64
        E 0 9e 46 64
        E 0 8b 46 64
        E 0 8e 46 64
        E 0 9b 44 64
        E 0 9e 44 64
        E 0 8f 36 64
        E 0 8b 44 64
        E 0 8e 44 64
        E 0 9f 34 5a
        E 0 9b 49 64
        E 0 9e 49 64
        E 0 8b 49 64
        E 0 8e 49 64
        E 0 9b 49 64
        E 0 9e 49 64
        E 0 8b 49 64
        E 0 8e 49 64
        E 0 9b 49 64
        E 1 9e 49 64
        E 0 8b 49 64
        E 0 8e 49 64
        E 0 9b 49 64
        E 0 9e 49 64
        E 0 8b 49 64
        E 0 8e 49 64
        E 0 9b 48 63
        E 0 9e 48 63
        E 0 8b 48 63
        E 0 8e 48 63
        E 0 8f 34 64
        E 0 9b 48 63
        E 0 9e 48 63
        E 0 9f 38 5a
        E 0 8b 48 63
        E 0 8e 48 63
        E 0 9b 48 63
        E 0 9e 48 63
        E 0 8b 48 63
        E 0 8e 48 63
        E 0 9b 48 63
        E 0 9e 48 63
        E 0 8b 48 63
        E 0 8e 48 63
        E 0 9b 48 63
        E 0 9e 48 63
        E 0 8b 48 63
        E 0 8e 48 63
        E 0 9b 48 63
        E 0 9e 48 63
        E 0 8b 48 63
        E 0 8e 48 63
        E 0 9b 46 64
        E 0 9e 46 64
        E 0 8b 46 64
        E 0 8e 46 64
        E 0 9b 48 63
        E 0 9e 48 63
        E 0 8b 48 63
        E 0 8e 48 63
        E 0 8f 38 64
        E 0 9b 49 64
        E 0 9e 49 64
        E 0 9f 2d 5a
        E 0 8b 49 64
        E 0 8e 49 64
        E 0 9b 49 64
        E 0 9e 49 64
        E 0 8b 49 64
        E 0 8e 49 64
        E 0 9b 49 64
        E 0 9e 49 64
        E 0 8b 49 64
        E 0 8e 49 64
        E 0 9b 49 64
        E 0 9e 49 64
        E 0 8b 49 64
        E 0 8e 49 64
        E 0 9b 42 64
        E 0 9e 42 64
        E 0 8b 42 64
        E 0 8e 42 64
        E 0 9b 42 64
        E 0 9e 42 64
        E 0 8b 42 64
        E 0 8e 42 64
        E 0 9b 44 64
        E 0 9e 44 64
        E 0 8b 44 64
        E 0 8e 44 64
        E 0 8f 2d 64
        E 0 9b 44 64
        E 0 9e 44 64
        E 0 9f 2c 5a
        E 0 8b 44 64
        E 0 8e 44 64
        E 0 9b 44 64
        E 0 9e 44 64
        E 0 8b 44 64
        E 0 8e 44 64
        E 0 9a 44 64
        E 1 9e 44 64
        E 0 8a 44 64
        E 0 8e 44 64
        E 0 9a 44 64
        E 0 9e 44 64
        E 0 8a 44 64
        E 0 8e 44 64
        E 0 9a 44 64
        E 0 9e 44 64
        E 0 8a 44 64
        E 0 8e 44 64
        E 0 9a 42 64
        E 0 9e 42 64
        E 0 8a 42 64
        E 0 8e 42 64
        E 0 9a 44 64
        E 0 9e 44 64
        E 0 8a 44 64
        E 0 8e 44 64
        E 0 8f 2c 64
        E 0 9a 40 64
        E 0 9e 40 64
        E 0 9f 31 5a
        E 0 8a 40 64
        E 0 8e 40 64
        E 0 9a 40 64
        E 0 9e 40 64
        E 0 8a 40 64
        E 0 8e 40 64
        E 0 9c 39 64
        E 0 9e 39 64
        E 0 8c 39 64
        E 0 8e 39 64
        E 0 9c 39 64
        E 0 9e 39 64
        E 0 8c 39 64
        E 0 8e 39 64
        E 0 9c 38 64
        E 0 9e 38 64
        E 0 8c 38 64
        E 0 8e 38 64
        E 0 8f 31 64
        E 0 9c 34 64
        E 0 9e 34 64
        E 0 9f 2f 5a
        E 0 8c 34 64
        E 0 8e 34 64
        E 0 9c 34 64
        E 0 9e 34 64
        E 0 8c 34 64
        E 0 8e 34 64
        E 0 8f 2f 64
        E 0 9f 34 5a
        E 0 9b 47 64
        E 0 9e 47 64
        E 0 8b 47 64
        E 0 8e 47 64
        E 0 9b 47 64
        E 0 9e 47 64
        E 0 8b 47 64
        E 0 8e 47 64
        E 0 9b 47 64
        E 0 9e 47 64
        E 0 8b 47 64
        E 0 8e 47 64
        E 0 8f 34 64
        E 0 9b 44 64
        E 0 9e 44 64
        E 0 9f 34 5a
        E 0 8b 44 64
        E 0 8e 44 64
        E 0 9b 44 64
        E 1 9e 44 64
        E 0 8b 44 64
        E 0 8e 44 64
        E 0 9b 40 64
        E 0 9e 40 64
        E 0 8b 40 64
        E 0 8e 40 64
        E 0 9b 40 64
        E 0 9e 40 64
        E 0 8b 40 64
        E 0 8e 40 64
        E 0 9b 40 64
        E 0 9e 40 64
        E 0 8b 40 64
        E 0 8e 40 64
        E 0 9b 44 64
        E 0 9e 44 64
        E 0 8b 44 64
        E 0 8e 44 64
        E 0 9b 45 64
        E 0 9e 45 64
        E 0 8b 45 64
        E 0 8e 45 64
        E 0 8f 34 64
        E 0 9b 47 64
        E 0 9e 47 64
        E 0 9f 34 5a
        E 0 8b 47 64
        E 0 8e 47 64
        E 0 9b 47 64
        E 0 9e 47 64
        E 0 8b 47 64
        E 0 8e 47 64
        E 0 9b 47 64
        E 0 9e 47 64
        E 0 8b 47 64
        E 0 8e 47 64
        E 0 9b 4a 64
        E 0 9e 4a 64
        E 0 8b 4a 64
        E 0 8e 4a 64
        E 0 9b 49 64
        E 0 9e 49 64
        E 0 8b 49 64
        E 0 8e 49 64
        E 0 8f 34 64
        E 0 9b 45 64
        E 0 9e 45 64
        E 0 9f 39 5a
        E 0 8b 45 64
        E 0 8e 45 64
        E 0 9b 45 64
        E 0 9e 45 64
        E 0 8b 45 64
        E 0 8e 45 64
        E 0 9b 45 64
        E 0 9e 45 64
        E 0 8b 45 64
        E 0 8e 45 64
        E 0 8f 39 64
        E 0 9b 45 64
        E 0 9e 45 64
        E 0 9f 39 5a
        E 0 8b 45 64
        E 0 8e 45 64
        E 0 9b 45 64
        E 0 9e 45 64
        E 0 8b 45 64
        E 0 8e 45 64
        E 0 9b 45 64
        E 0 9e 45 64
        E 0 8b 45 64
        E 0 8e 45 64
        E 0 9b 45 64
        E 0 9e 45 64
        E 0 8b 45 64
        E 0 8e 45 64
        E 0 9b 47 64
        E 0 9e 47 64
        E 0 8b 47 64
        E 0 8e 47 64
        E 0 8f 39 64
        E 0 9b 49 64
        E 0 9e 49 64
        E 0 9f 37 5a
        E 0 8b 49 64
        E 0 8e 49 64
        E 0 9b 49 64
        E 0 9e 49 64
        E 0 8b 49 64
        E 0 8e 49 64
        E 0 8f 37 64
        E 0 9b 49 64
        E 0 9e 49 64
        E 0 9f 37 5a
        E 0 8b 49 64
        E 0 8e 49 64
        E 0 9b 49 64
        E 0 9e 49 64
        E 0 8b 49 64
        E 0 8e 49 64
        E 0 9b 49 64
        E 0 9e 49 64
        E 0 8b 49 64
        E 0 8e 49 64
        E 0 9b 47 64
        E 0 9e 47 64
        E 0 8b 47 64
        E 0 8e 47 64
        E 0 9b 45 64
        E 0 9e 45 64
        E 0 8b 45 64
        E 0 8e 45 64
        E 0 8f 37 64
        E 0 9b 4a 64
        E 0 9e 4a 64
        E 1 9f 36 5a
        E 0 8b 4a 64
        E 0 8e 4a 64
        E 0 9b 4a 64
        E 0 9e 4a 64
        E 0 8b 4a 64
        E 0 8e 4a 64
        E 0 9b 4a 64
        E 0 9e 4a 64
        E 0 8b 4a 64
        E 0 8e 4a 64
        E 0 9b 4a 64
        E 0 9e 4a 64
        E 0 8b 4a 64
        E 0 8e 4a 64
        E 0 9b 49 64
        E 0 9e 49 64
        E 0 8b 49 64
        E 0 8e 49 64
        E 0 8f 36 64
        E 0 9b 45 64
        E 0 9e 45 64
        E 0 9f 34 5a
        E 0 8b 45 64
        E 0 8e 45 64
        E 0 9b 45 64
        E 0 9e 45 64
        E 0 8b 45 64
        E 0 8e 45 64
        E 0 8f 34 64
        E 0 9f 2d 5a
        E 0 9a 40 64
        E 0 9e 40 64
        E 0 8a 40 64
        E 0 8e 40 64
        E 0 8f 2d 64
        E 0 9a 45 64
        E 0 9e 45 64
        E 0 9f 2d 5a
        E 0 8a 45 64
        E 0 8e 45 64
        E 0 9a 45 64
        E 0 9e 45 64
        E 0 8a 45 64
        E 0 8e 45 64
        E 0 97 49 64
        E 0 9e 49 64
        E 0 87 49 64
        E 0 8e 49 64
        E 0 97 4c 64
        E 0 9e 4c 64
        E 38404 87 4c 64
        E 0 8e 4c 64
        E 0 8f 2d 64
        E 0 97 46 64
        E 0 9e 46 64
        E 0 9f 34 5a
        E 0 87 46 64
        E 0 8e 46 64
        E 0 96 42 64
        E 0 9e 42 64
        E 0 86 42 64
        E 0 8e 42 64
        E 0 8f 34 64
        E 0 96 47 64
        E 0 9e 47 64
        E 0 9f 35 59
        E 0 86 47 64
        E 0 8e 47 64
        E 0 96 46 64
        E 0 9e 46 64
        E 0 86 46 64
        E 0 8e 46 64
        E 0 96 47 64
        E 0 9e 47 64
        E 0 86 47 64
        E 0 8e 47 64
        E 0 8f 35 63
        E 0 96 42 64
        E 0 9e 42 64
        E 0 9f 36 5a
        E 0 86 42 64
        E 0 8e 42 64
        E 0 96 42 64
        E 0 9e 42 64
        E 0 86 42 64
        E 0 8e 42 64
        E 0 8f 36 64
        E 0 9f 2f 5a
        E 0 9b 4a 64
        E 0 9e 4a 64
        E 0 8b 4a 64
        E 0 8e 4a 64
        E 0 9b 4a 64
        E 0 9e 4a 64
        E 0 8b 4a 64
        E 0 8e 4a 64
        E 1 9b 43 64
        E 0 9e 43 64
        E 0 8b 43 64
        E 0 8e 43 64
        E 0 8f 2f 64
        E 0 9b 45 64
        E 0 9e 45 64
        E 0 9f 2d 5a
        E 0 8b 45 64
        E 0 8e 45 64
        E 0 9b 45 64
        E 0 9e 45 64
        E 0 8b 45 64
        E 0 8e 45 64
        E 0 9b 49 64
        E 0 9e 49 64
        E 0 8b 49 64
        E 0 8e 49 64
        E 0 9b 47 64
        E 0 9e 47 64
        E 0 8b 47 64
        E 0 8e 47 64
        E 0 9b 45 64
        E 0 9e 45 64
        E 0 8b 45 64
        E 0 8e 45 64
        E 0 8f 2d 64
        E 0 9b 4a 64
        E 0 9e 4a 64
        E 0 9f 36 5a
        E 0 8b 4a 64
        E 0 8e 4a 64
        E 0 9b 4a 64
        E 0 9e 4a 64
        E 0 8b 4a 64
        E 0 8e 4a 64
        E 0 9b 4a 64
        E 0 9e 4a 64
        E 0 8b 4a 64
        E 0 8e 4a 64
        E 0 97 45 64
        E 0 9e 45 64
        E 0 87 45 64
        E 0 8e 45 64
        E 0 97 48 64
        E 0 9e 48 64
        E 0 87 48 64
        E 0 8e 48 64
        E 0 97 48 64
        E 0 9e 48 64
        E 0 87 48 64
        E 0 8e 48 64
        E 0 8f 36 64
        E 0 97 4c 64
        E 0 9e 4c 64
        E 0 9f 36 5a
        E 0 87 4c 64
        E 0 8e 4c 64
        E 0 97 45 64
        E 0 9e 45 64
        E 0 87 45 64
        E 0 8e 45 64
        E 0 97 45 64
        E 0 9e 45 64
        E 0 87 45 64
        E 0 8e 45 64
        E 0 97 43 64
        E 0 9e 43 64
        E 0 87 43 64
        E 0 8e 43 64
        E 0 97 45 64
        E 0 9e 45 64
        E 0 87 45 64
        E 0 8e 45 64
        E 0 8f 36 64
        E 0 97 47 64
        E 0 9e 47 64
        E 0 9f 37 5a
        E 0 87 47 64
        E 0 8e 47 64
        E 0 9a 43 64
        E 0 9e 43 64
        E 0 8a 43 64
        E 0 8e 43 64
        E 0 9a 43 64
        E 0 9e 43 64
        E 0 8a 43 64
        E 0 8e 43 64
        E 0 9a 43 64
        E 0 9e 43 64
        E 0 8a 43 64
        E 1 8e 43 64
        E 0 8f 37 64
        E 0 9a 3e 64
        E 0 9e 3e 64
        E 0 9f 37 5a
        E 0 8a 3e 64
        E 0 8e 3e 64
        E 0 9a 3e 64
        E 0 9e 3e 64
        E 0 8a 3e 64
        E 0 8e 3e 64
        E 0 9a 47 64
        E 0 9e 47 64
        E 0 8a 47 64
        E 0 8e 47 64
        E 0 9b 4a 64
        E 0 9e 4a 64
        E 0 8b 4a 64
        E 0 8e 4a 64
        E 0 9b 47 64
        E 0 9e 47 64
        E 0 8b 47 64
        E 0 8e 47 64
        E 0 9b 47 64
        E 0 9e 47 64
        E 0 8b 47 64
        E 0 8e 47 64
        E 0 8f 37 64
        E 0 9f 37 5a
        E 0 9b 43 64
        E 0 9e 43 64
        E 0 8b 43 64
        E 0 8e 43 64
        E 0 9b 43 64
        E 0 9e 43 64
        E 0 8b 43 64
        E 0 8e 43 64
        E 0 9b 45 64
        E 1 9e 45 64
        E 0 8b 45 64
        E 0 8e 45 64
        E 0 8f 37 64
        E 0 9b 47 64
        E 0 9e 47 64
        E 0 9f 35 5a
        E 0 8b 47 64
        E 0 8e 47 64
        E 0 9b 47 64
        E 0 9e 47 64
        E 0 8b 47 64
        E 0 8e 47 64
        E 0 8f 35 64
        E 0 9b 4a 64
        E 0 9e 4a 64
        E 0 9f 35 5a
        E 0 8b 4a 64
        E 0 8e 4a 64
        E 0 9b 4a 64
        E 0 9e 4a 64
        E 0 8b 4a 64
        E 0 8e 4a 64
        E 0 9b 4a 64
        E 0 9e 4a 64
        E 0 8b 4a 64
        E 0 8e 4a 64
        E 0 9b 4a 64
        E 0 9e 4a 64
        E 0 8b 4a 64
        E 0 8e 4a 64
        E 0 9b 4c 64
        E 0 9e 4c 64
        E 0 8b 4c 64
        E 0 8e 4c 64
        E 0 8f 35 64
        E 0 9b 48 64
        E 0 9e 48 64
        E 0 9f 34 5a
        E 0 8b 48 64
        E 0 8e 48 64
        E 0 9b 48 64
        E 0 9e 48 64
        E 0 8b 48 64
        E 1 8e 48 64
        E 0 9b 43 64
        E 0 9e 43 64
        E 0 8b 43 64
        E 0 8e 43 64
        E 0 9b 43 64
        E 0 9e 43 64
        E 0 8b 43 64
        E 0 8e 43 64
        E 0 9b 43 64
        E 0 9e 43 64
        E 0 8b 43 64
        E 0 8e 43 64
        E 0 8f 34 64
        E 0 9b 48 64
        E 0 9e 48 64
        E 0 9f 34 5a
        E 0 8b 48 64
        E 0 8e 48 64
        E 0 9b 48 64
        E 0 9e 48 64
        E 0 8b 48 64
        E 0 8e 48 64
        E 0 9b 48 64
        E 0 9e 48 64
        E 0 8b 48 64
        E 0 8e 48 64
        E 0 9b 48 64
        E 0 9e 48 64
        E 0 8b 48 64
        E 0 8e 48 64
        E 0 9b 48 64
        E 0 9e 48 64
        E 0 8b 48 64
        E 0 8e 48 64
        E 0 9b 48 64
        E 0 9e 48 64
        E 0 8b 48 64
        E 0 8e 48 64
        E 0 9b 4a 64
        E 0 9e 4a 64
        E 0 8b 4a 64
        E 0 8e 4a 64
        E 0 8f 34 64
        E 0 9b 46 66
        E 0 9e 46 66
        E 0 9f 30 5a
        E 0 8b 46 66
        E 0 8e 46 66
        E 0 9b 43 64
        E 0 9e 43 64
        E 0 8b 43 64
        E 0 8e 43 64
        E 0 9b 43 64
        E 0 9e 43 64
        E 0 8b 43 64
        E 0 8e 43 64
        E 0 9b 45 64
        E 0 9e 45 64
        E 1 8b 45 64
        E 0 8e 45 64
        E 0 9b 46 66
        E 0 9e 46 66
        E 0 8b 46 66
        E 0 8e 46 66
        E 0 9b 46 66
        E 0 9e 46 66
        E 0 8b 46 66
        E 0 8e 46 66
        E 0 9b 4a 64
        E 0 9e 4a 64
        E 0 8b 4a 64
        E 0 8e 4a 64
        E 0 8f 30 64
        E 0 9b 46 66
        E 0 9e 46 66
        E 0 9f 30 5a
        E 0 8b 46 66
        E 0 8e 46 66
        E 0 9b 46 66
        E 0 9e 46 66
        E 0 8b 46 66
        E 0 8e 46 66
        E 0 9b 46 66
        E 0 9e 46 66
        E 0 8b 46 66
        E 0 8e 46 66
        E 0 9b 45 64
        E 0 9e 45 64
        E 0 8b 45 64
        E 0 8e 45 64
        E 0 8f 30 64
        E 0 9b 45 64
        E 0 9e 45 64
        E 0 9f 35 5a
        E 0 8b 45 64
        E 0 8e 45 64
        E 0 9b 45 64
        E 0 9e 45 64
        E 0 8b 45 64
        E 0 8e 45 64
        E 0 9b 45 64
        E 0 9e 45 64
        E 0 8b 45 64
        E 0 8e 45 64
        E 0 9b 47 64
        E 0 9e 47 64
        E 0 8b 47 64
        E 0 8e 47 64
        E 0 9b 48 64
        E 1 9e 48 64
        E 38403 8b 48 64
        E 0 8e 48 64
        E 0 8f 35 64
        E 0 9b 43 64
        E 0 9e 43 64
        E 0 9f 37 5a
        E 0 8b 43 64
        E 0 8e 43 64
        E 0 9b 43 64
        E 0 9e 43 64
        E 0 8b 43 64
        E 0 8e 43 64
        E 0 8f 37 64
        E 0 9f 30 5a
        E 0 8f 30 64
        E 0 9b 48 64
        E 0 9e 48 64
        E 0 9f 30 5a
        E 0 8b 48 64
        E 0 8e 48 64
        E 0 9b 45 64
        E 0 9e 45 64
        E 0 8b 45 64
        E 0 8e 45 64
        E 0 9b 45 64
        E 0 9e 45 64
        E 0 8b 45 64
        E 0 8e 45 64
        E 0 9b 45 64
        E 0 9e 45 64
        E 0 8b 45 64
        E 0 8e 45 64
        E 0 9b 45 64
        E 0 9e 45 64
        E 0 8f 30 64
        E 0 8b 45 64
        E 0 8e 45 64
        E 0 9f 30 5a
        E 0 9b 42 64
        E 0 9e 42 64
        E 0 8b 42 64
        E 0 8e 42 64
        E 0 9b 42 64
        E 0 9e 42 64
        E 0 8b 42 64
        E 0 8e 42 64
        E 0 9b 45 64
        E 0 9e 45 64
        E 0 8b 45 64
        E 0 8e 45 64
        E 0 9b 47 64
        E 0 9e 47 64
        E 0 8b 47 64
        E 0 8e 47 64
        E 0 9b 48 64
        E 0 9e 48 64
        E 0 8b 48 64
        E 0 8e 48 64
        E 0 9b 48 64
        E 0 9e 48 64
        E 0 8b 48 64
        E 0 8e 48 64
        E 0 9b 47 64
        E 0 9e 47 64
        E 0 8b 47 64
        E 0 8e 47 64
        E 0 8f 30 64
        E 0 9b 43 64
        E 0 9e 43 64
        E 0 9f 2f 5a
        E 0 8b 43 64
        E 0 8e 43 64
        E 0 9b 4a 64
        E 0 9e 4a 64
        E 0 8b 4a 64
        E 0 8e 4a 64
        E 0 9b 43 64
        E 0 9e 43 64
        E 0 8b 43 64
        E 0 8e 43 64
        E 0 9b 43 64
        E 0 9e 43 64
        E 0 8b 43 64
        E 0 8e 43 64
        E 0 9b 47 64
        E 0 9e 47 64
        E 0 8b 47 64
        E 0 8e 47 64
        E 0 8f 2f 64
        E 0 9b 48 64
        E 0 9e 48 64
        E 0 9f 2d 5a
        E 1 8b 48 64
        E 0 8e 48 64
        E 0 9b 48 64
        E 0 9e 48 64
        E 0 8b 48 64
        E 0 8e 48 64
        E 0 9b 48 64
        E 0 9e 48 64
        E 0 8b 48 64
        E 0 8e 48 64
        E 0 9b 48 64
        E 0 9e 48 64
        E 0 8b 48 64
        E 0 8e 48 64
        E 0 9b 48 64
        E 0 9e 48 64
        E 0 8b 48 64
        E 0 8e 48 64
        E 0 9b 47 64
        E 0 9e 47 64
        E 0 8b 47 64
        E 0 8e 47 64
        E 0 9b 45 64
        E 0 9e 45 64
        E 0 8b 45 64
        E 0 8e 45 64
        E 0 8f 2d 64
        E 0 9b 4b 64
        E 0 9e 4b 64
        E 0 9f 2d 5a
        E 0 8b 4b 64
        E 0 8e 4b 64
        E 0 9b 4b 64
        E 0 9e 4b 64
        E 0 8b 4b 64
        E 0 8e 4b 64
        E 0 9b 4b 64
        E 0 9e 4b 64
        E 0 8b 4b 64
        E 0 8e 4b 64
        E 0 9b 4c 64
        E 0 9e 4c 64
        E 0 8b 4c 64
        E 0 8e 4c 64
        E 0 8f 2d 64
        E 0 9b 47 64
        E 0 9e 47 64
        E 0 9f 2f 5a
        E 0 8b 47 64
        E 0 8e 47 64
        E 0 9b 47 64
        E 0 9e 47 64
        E 0 8b 47 64
        E 0 8e 47 64
        E 0 8f 2f 64
        E 0 9f 34 5a
        E 0 8f 34 64
        E 0 97 43 64
        E 0 9e 43 64
        E 0 9f 34 5a
        E 0 87 43 64
        E 0 8e 43 64
        E 0 97 43 64
        E 0 9e 43 64
        E 0 87 43 64
        E 0 8e 43 64
        E 0 97 43 64
        E 0 9e 43 64
        E 0 87 43 64
        E 0 8e 43 64
        E 0 97 43 64
        E 0 9e 43 64
        E 0 87 43 64
        E 0 8e 43 64
        E 0 97 43 64
        E 0 9e 43 64
        E 0 87 43 64
        E 0 8e 43 64
        E 0 8f 34 64
        E 0 97 48 64
        E 0 9e 48 64
        E 0 9f 34 5a
        E 0 87 48 64
        E 0 8e 48 64
        E 0 97 48 64
        E 0 9e 48 64
        E 0 87 48 64
        E 0 8e 48 64
        E 0 97 4c 64
        E 0 9e 4c 64
        E 0 87 4c 64
        E 0 8e 4c 64
        E 0 97 48 64
        E 0 9e 48 64
        E 0 87 48 64
        E 0 8e 48 64
        E 0 97 47 64
        E 1 9e 47 64
        E 0 87 47 64
        E 0 8e 47 64
        E 0 8f 34 64
        E 0 97 43 64
        E 0 9e 43 64
        E 0 9f 32 5a
        E 0 87 43 64
        E 0 8e 43 64
        E 0 97 43 64
        E 0 9e 43 64
        E 0 87 43 64
        E 0 8e 43 64
        E 0 8f 32 64
        E 0 9f 2b 5a
        E 0 8f 2b 64
        E 0 92 4a 64
        E 0 82 4a 64
        E 0 92 4f 64
        E 0 93 43 5a
        E 0 9f 37 5a
        E 0 92 4e 64
        E 0 82 4f 64
        E 0 92 4f 64
        E 0 82 4e 64
        E 0 83 43 64
        E 0 8f 37 64
        E 0 92 4a 64
        E 0 93 43 5a
        E 0 9f 37 5a
        E 0 82 4f 64
        E 0 92 48 64
        E 0 82 4a 64
        E 0 92 4a 64
        E 0 82 48 64
        E 0 83 43 64
        E 0 8f 37 64
        E 0 92 4f 64
        E 0 93 43 5a
        E 0 9f 37 5a
        E 0 82 4a 64
        E 0 92 4e 64
        E 0 82 4f 64
        E 0 83 43 64
        E 0 8f 37 64
        E 0 93 45 5a
        E 0 9f 39 5a
        E 0 92 4f 64
        E 0 82 4e 64
        E 0 83 45 64
        E 0 8f 39 64
        E 0 92 4a 64
        E 0 93 47 5a
        E 0 9f 3b 5a
        E 0 82 4f 64
        E 0 92 48 64
        E 0 82 4a 64
        E 0 83 47 64
        E 0 8f 3b 64
        E 0 93 48 5a
        E 0 9f 3c 5a
        E 0 92 4a 64
        E 0 82 48 64
        E 0 83 48 64
        E 0 8f 3c 64
        E 0 92 51 64
        E 0 93 4a 5a
        E 0 9f 3e 5a
        E 0 82 4a 64
        E 0 92 4f 64
        E 0 82 51 64
        E 0 92 51 64
        E 0 82 4f 64
        E 0 83 4a 64
        E 0 8f 3e 64
        E 0 92 4a 64
        E 0 93 3e 5a
        E 0 9f 32 5a
        E 0 82 51 64
        E 0 92 48 64
        E 0 82 4a 64
        E 0 92 4a 64
        E 0 82 48 64
        E 0 83 3e 64
        E 0 8f 32 64
        E 0 92 51 64
        E 0 93 3e 5a
        E 0 9f 32 5a
        E 0 82 4a 64
        E 0 92 4f 64
        E 0 82 51 64
        E 0 92 51 64
        E 38403 82 4f 64
        E 0 83 3e 64
        E 0 8f 32 64
        E 0 92 4a 64
        E 0 93 3e 5a
        E 0 9f 32 5a
        E 0 82 51 64
        E 0 92 48 64
        E 0 82 4a 64
        E 0 92 4a 64
        E 0 82 48 64
        E 0 83 3e 64
        E 0 8f 32 64
        E 0 92 51 64
        E 0 93 3e 5a
        E 0 9f 32 5a
        E 0 82 4a 64
        E 0 92 4f 64
        E 0 82 51 64
        E 0 83 3e 64
        E 0 8f 32 64
        E 0 93 40 5a
        E 1 9f 34 5a
        E 0 92 51 64
        E 0 82 4f 64
        E 0 83 40 64
        E 0 8f 34 64
        E 0 92 48 64
        E 0 93 42 5a
        E 0 9f 36 5a
        E 0 82 51 64
        E 0 92 47 64
        E 0 82 48 64
        E 0 83 42 64
        E 0 8f 36 64
        E 0 93 43 5a
        E 0 9f 37 5a
        E 0 92 48 64
        E 0 82 47 64
        E 0 83 43 64
        E 0 8f 37 64
        E 0 92 51 64
        E 0 93 45 5a
        E 0 9f 39 5a
        E 0 82 48 64
        E 0 92 4f 64
        E 0 82 51 64
        E 0 92 51 64
        E 0 82 4f 64
        E 0 83 45 64
        E 0 8f 39 64
        E 0 92 48 64
        E 0 93 42 5a
        E 0 9f 36 5a
        E 0 82 51 64
        E 0 92 47 64
        E 0 82 48 64
        E 0 92 45 64
        E 0 82 47 64
        E 0 83 42 64
        E 0 8f 36 64
        E 0 92 47 64
        E 0 93 43 5a
        E 0 9f 37 5a
        E 0 82 45 64
        E 0 92 45 64
        E 0 82 47 64
        E 0 92 47 64
        E 0 82 45 64
        E 0 83 43 64
        E 0 8f 37 64
        E 0 92 43 64
        E 0 93 37 5a
        E 0 9f 2b 5a
        E 0 82 47 64
        E 0 92 42 64
        E 1 82 43 64
        E 0 92 43 64
        E 0 82 42 64
        E 0 83 37 64
        E 0 8f 2b 64
        E 0 92 47 64
        E 0 93 43 5a
        E 0 9f 37 5a
        E 0 82 43 64
        E 0 92 45 64
        E 0 82 47 64
        E 0 83 43 64
        E 0 8f 37 64
        E 0 93 45 5a
        E 0 9f 39 5a
        E 0 92 47 64
        E 0 82 45 64
        E 0 83 45 64
        E 0 8f 39 64
        E 0 92 43 64
        E 0 93 47 5a
        E 0 9f 3b 5a
        E 0 82 47 64
        E 0 92 42 64
        E 0 82 43 64
        E 0 83 47 64
        E 0 8f 3b 64
        E 0 93 43 5a
        E 0 9f 37 5a
        E 0 92 43 64
        E 0 82 42 64
        E 0 83 43 64
        E 0 8f 37 64
        E 0 92 49 64
        E 0 93 45 5a
        E 0 9f 39 5a
        E 0 82 43 64
        E 0 92 47 64
        E 0 82 49 64
        E 0 92 49 64
        E 0 82 47 64
        E 0 83 45 64
        E 0 8f 39 64
        E 0 92 51 64
        E 0 93 39 5a
        E 0 9f 2d 5a
        E 0 82 49 64
        E 0 92 4f 64
        E 0 82 51 64
        E 0 92 51 64
        E 0 82 4f 64
        E 0 83 39 64
        E 0 8f 2d 64
        E 0 92 49 64
        E 0 93 45 5a
        E 0 9f 39 5a
        E 0 82 51 64
        E 0 92 47 64
        E 0 82 49 64
        E 0 83 45 64
        E 0 8f 39 64
        E 0 93 47 5a
        E 0 9f 3b 5a
        E 0 92 49 64
        E 0 82 47 64
        E 0 83 47 64
        E 0 8f 3b 64
        E 0 92 51 64
        E 0 93 49 5a
        E 0 9f 3d 5a
        E 0 82 49 64
        E 0 92 4f 64
        E 0 82 51 64
        E 0 83 49 64
        E 0 8f 3d 64
        E 0 93 45 5a
        E 0 9f 39 5a
        E 0 92 51 64
        E 0 82 4f 64
        E 0 83 45 64
        E 0 8f 39 64
        E 0 92 4e 64
        E 0 93 4a 5a
        E 0 9f 3e 5a
        E 0 82 51 64
        E 0 92 51 64
        E 0 82 4e 64
        E 0 92 4f 64
        E 0 82 51 64
        E 0 83 4a 64
        E 0 8f 3e 64
        E 0 92 4e 64
        E 0 93 3e 5a
        E 0 9f 32 5a
        E 0 82 4f 64
        E 0 92 4c 64
        E 0 82 4e 64
        E 0 92 4a 64
        E 0 82 4c 64
        E 0 83 3e 64
        E 0 8f 32 64
        E 1 92 4c 64
        E 0 93 45 5a
        E 0 9f 39 5a
        E 0 82 4a 64
        E 0 92 4f 64
        E 0 82 4c 64
        E 0 92 4e 64
        E 0 82 4f 64
        E 0 83 45 64
        E 0 8f 39 64
        E 0 92 4c 64
        E 0 93 39 5a
        E 0 9f 2d 5a
        E 0 82 4e 64
        E 0 92 4a 64
        E 0 82 4c 64
        E 0 92 49 64
        E 0 82 4a 64
        E 0 83 39 64
        E 0 8f 2d 64
        E 0 92 4a 64
        E 0 93 3e 5a
        E 0 9f 32 5a
        E 0 82 49 64
        E 0 92 45 64
        E 0 82 4a 64
        E 0 92 42 64
        E 0 82 45 64
        E 0 83 3e 64
        E 0 8f 32 64
        E 0 92 3e 64
        E 0 93 3e 5a
        E 0 9f 32 5a
        E 0 82 42 64
        E 0 83 3e 64
        E 0 8f 32 64
        E 0 93 3e 5a
        E 0 9f 32 5a
        E 0 82 3e 64
        E 0 83 3e 64
        E 0 8f 32 64
        E 0 93 40 5a
        E 0 9f 34 5a
        E 0 83 40 64
        E 0 8f 34 64
        E 0 92 51 64
        E 0 93 42 5a
        E 0 9f 36 5a
        E 0 83 42 64
        E 0 8f 36 64
        E 0 93 43 5a
        E 0 9f 37 5a
        E 0 83 43 64
        E 0 8f 37 64
        E 0 92 4a 64
        E 0 93 42 5a
        E 0 9f 36 5a
        E 0 92 48 64
        E 0 82 51 64
        E 0 82 4a 64
        E 0 92 4a 64
        E 0 82 48 64
        E 0 83 42 64
        E 0 8f 36 64
        E 0 92 51 64
        E 0 93 3e 5a
        E 0 9f 32 5a
        E 0 82 4a 64
        E 0 92 4f 64
        E 0 82 51 64
        E 0 92 51 64
        E 0 82 4f 64
        E 0 83 3e 64
        E 0 8f 32 64
        E 0 92 4a 64
        E 0 93 3e 5a
        E 0 9f 32 5a
        E 0 82 51 64
        E 0 92 48 64
        E 0 82 4a 64
        E 0 92 4a 64
        E 0 82 48 64
        E 0 83 3e 64
        E 0 8f 32 64
        E 0 92 51 64
        E 0 93 3e 5a
        E 0 9f 32 5a
        E 0 82 4a 64
        E 0 92 4f 64
        E 0 82 51 64
        E 0 92 51 64
        E 0 82 4f 64
        E 0 83 3e 64
        E 0 8f 32 64
        E 0 92 48 64
        E 1 93 4a 5a
        E 0 9f 3e 5a
        E 0 82 51 64
        E 0 92 47 64
        E 0 82 48 64
        E 0 92 48 64
        E 0 82 47 64
        E 0 83 4a 64
        E 0 8f 3e 64
        E 0 92 51 64
        E 0 93 3e 5a
        E 0 9f 32 5a
        E 0 82 48 64
        E 0 92 4f 64
        E 0 82 51 64
        E 0 92 51 64
        E 0 82 4f 64
        E 0 83 3e 64
        E 0 8f 32 64
        E 0 92 48 64
        E 0 93 3e 5a
        E 0 9f 32 5a
        E 0 82 51 64
        E 0 92 47 64
        E 0 82 48 64
        E 0 83 3e 64
        E 0 8f 32 64
        E 0 93 40 5a
        E 0 9f 34 5a
        E 0 92 48 64
        E 0 82 47 64
        E 0 83 40 64
        E 0 8f 34 64
        E 0 92 51 64
        E 0 93 42 5a
        E 0 9f 36 5a
        E 0 82 48 64
        E 0 92 4f 64
        E 0 82 51 64
        E 0 83 42 64
        E 0 8f 36 64
        E 0 93 3e 5a
        E 0 9f 32 5a
        E 0 92 51 64
        E 0 82 4f 64
        E 0 83 3e 64
        E 0 8f 32 64
        E 0 92 46 66
        E 0 93 43 5a
        E 0 9f 37 5a
        E 0 82 51 64
        E 0 92 45 64
        E 0 82 46 66
        E 0 92 46 66
        E 0 82 45 64
        E 0 83 43 64
        E 0 8f 37 64
        E 0 92 48 64
        E 0 93 42 5a
        E 0 9f 36 5a
        E 0 82 46 66
        E 0 92 46 66
        E 0 82 48 64
        E 0 92 45 64
        E 0 82 46 66
        E 0 83 42 64
        E 0 8f 36 64
        E 0 92 46 66
        E 0 93 43 5a
        E 0 9f 37 5a
        E 0 82 45 64
        E 0 92 45 64
        E 0 82 46 66
        E 0 92 46 66
        E 0 82 45 64
        E 0 83 43 64
        E 0 8f 37 64
        E 0 92 48 64
        E 0 93 42 5a
        E 0 9f 36 5a
        E 0 82 46 66
        E 0 92 46 66
        E 0 82 48 64
        E 0 92 45 64
        E 0 82 46 66
        E 0 83 42 64
        E 0 8f 36 64
        E 0 92 4f 64
        E 0 93 46 5b
        E 0 9f 3a 5b
        E 0 82 45 64
        E 0 92 4e 64
        E 0 82 4f 64
        E 0 92 4f 64
        E 0 82 4e 64
        E 0 83 46 66
        E 0 8f 3a 66
        E 0 92 51 64
        E 0 93 48 5a
        E 0 9f 3c 5a
        E 0 82 4f 64
        E 0 92 4f 64
        E 0 82 51 64
        E 0 92 4e 64
        E 0 82 4f 64
        E 0 83 48 64
        E 0 8f 3c 64
        E 0 92 4f 64
        E 0 93 46 5b
        E 0 9f 3a 5b
        E 0 82 4e 64
        E 1 92 4e 64
        E 0 82 4f 64
        E 0 92 4f 64
        E 0 82 4e 64
        E 0 83 46 66
        E 0 8f 3a 66
        E 0 92 51 64
        E 0 93 48 5a
        E 0 9f 3c 5a
        E 0 82 4f 64
        E 0 92 4f 64
        E 0 82 51 64
        E 0 92 4e 64
        E 0 82 4f 64
        E 0 83 48 64
        E 0 8f 3c 64
        E 0 92 4f 64
        E 0 93 47 5a
        E 0 9f 3b 5a
        E 0 82 4e 64
        E 0 92 4e 64
        E 0 82 4f 64
        E 0 92 4c 64
        E 0 82 4e 64
        E 0 83 47 64
        E 0 8f 3b 64
        E 0 92 4a 64
        E 0 93 43 5a
        E 0 9f 37 5a
        E 0 82 4c 64
        E 0 92 48 64
        E 0 82 4a 64
        E 0 92 47 64
        E 0 82 48 64
        E 0 83 43 64
        E 0 8f 37 64
        E 0 92 4c 64
        E 0 93 3c 5a
        E 0 9f 30 5a
        E 0 82 47 64
        E 0 92 4a 64
        E 0 82 4c 64
        E 0 92 48 64
        E 38403 82 4a 64
        E 0 83 3c 64
        E 0 8f 30 64
        E 0 92 47 64
        E 0 93 43 5a
        E 0 9f 37 5a
        E 0 82 48 64
        E 0 92 45 64
        E 0 82 47 64
        E 0 92 43 64
        E 0 82 45 64
        E 0 83 43 64
        E 0 8f 37 64
        E 0 92 4f 64
        E 0 93 37 5a
        E 0 9f 2b 5a
        E 0 82 43 64
        E 0 92 4a 64
        E 0 82 4f 64
        E 0 92 48 64
        E 0 82 4a 64
        E 0 83 37 64
        E 0 8f 2b 64
        E 0 92 47 64
        E 0 93 43 5a
        E 0 9f 37 5a
        E 0 82 48 64
        E 1 92 45 64
        E 0 82 47 64
        E 0 92 43 64
        E 0 82 45 64
        E 0 83 43 64
        E 0 8f 37 64
        E 0 92 45 64
        E 0 93 3c 5a
        E 0 9f 30 5a
        E 0 82 43 64
        E 0 92 48 64
        E 0 82 45 64
        E 0 92 47 64
        E 0 82 48 64
        E 0 83 3c 64
        E 0 8f 30 64
        E 0 92 45 64
        E 0 93 3e 5a
        E 0 9f 32 5a
        E 0 82 47 64
        E 0 92 43 64
        E 0 82 45 64
        E 0 92 42 64
        E 0 82 43 64
        E 0 83 3e 64
        E 0 8f 32 64
        E 0 92 43 64
        E 0 93 43 5a
        E 0 9f 37 5a
        E 0 82 42 64
        E 0 92 3e 64
        E 0 82 43 64
        E 0 92 3b 64
        E 0 82 3e 64
        E 0 83 43 64
        E 0 8f 37 64
        E 0 92 37 64
        E 0 93 37 5a
        E 0 9f 2b 5a
        E 0 82 3b 64
        E 0 83 37 64
        E 0 8f 2b 64
        E 0 93 37 5a
        E 0 9f 2b 5a
        E 0 82 37 64
        E 0 83 37 64
        E 0 8f 2b 64
        E 0 92 45 64
        E 0 93 3e 5a
        E 1 9f 32 5a
        E 0 83 3e 64
        E 0 8f 32 64
        E 0 92 46 66
        E 0 93 43 5a
        E 0 9f 37 5a
        E 0 92 45 64
        E 0 82 45 64
        E 0 82 46 66
        E 0 92 46 66
        E 0 82 45 64
        E 0 83 43 64
        E 0 8f 37 64
        E 0 92 48 64
        E 0 93 42 5a
        E 0 9f 36 5a
        E 0 82 46 66
        E 0 92 46 66
        E 0 82 48 64
        E 0 92 45 64
        E 0 82 46 66
        E 0 83 42 64
        E 0 8f 36 64
        E 0 92 46 66
        E 0 93 43 5a
        E 0 9f 37 5a
        E 0 82 45 64
        E 0 92 45 64
        E 0 82 46 66
        E 0 92 46 66
        E 0 82 45 64
        E 0 83 43 64
        E 0 8f 37 64
        E 0 92 48 64
        E 0 93 42 5a
        E 0 9f 36 5a
        E 0 82 46 66
        E 0 92 46 66
        E 0 82 48 64
        E 0 92 45 64
        E 0 82 46 66
        E 0 83 42 64
        E 0 8f 36 64
        E 0 92 4f 64
        E 0 93 46 5b
        E 0 9f 3a 5b
        E 0 82 45 64
        E 0 92 4e 64
        E 0 82 4f 64
        E 1 92 4f 64
        E 0 82 4e 64
        E 0 83 46 66
        E 0 8f 3a 66
        E 0 92 51 64
        E 0 93 48 5a
        E 0 9f 3c 5a
        E 0 82 4f 64
        E 0 92 4f 64
        E 0 82 51 64
        E 0 92 4e 64
        E 0 82 4f 64
        E 0 83 48 64
        E 0 8f 3c 64
        E 0 92 4f 64
        E 0 93 46 5b
        E 0 9f 3a 5b
        E 0 82 4e 64
        E 0 92 4e 64
        E 0 82 4f 64
        E 0 92 4f 64
        E 0 82 4e 64
        E 0 83 46 66
        E 0 8f 3a 66
        E 0 92 51 64
        E 0 93 48 5a
        E 0 9f 3c 5a
        E 0 82 4f 64
        E 0 92 4f 64
        E 0 82 51 64
        E 0 92 4e 64
        E 0 82 4f 64
        E 0 83 48 64
        E 0 8f 3c 64
        E 0 92 4f 64
        E 0 93 47 5a
        E 0 9f 3b 5a
        E 0 82 4e 64
        E 0 92 4e 64
        E 0 82 4f 64
        E 0 92 4c 64
        E 0 82 4e 64
        E 0 83 47 64
        E 0 8f 3b 64
        E 0 92 4a 64
        E 0 93 43 5a
        E 0 9f 37 5a
        E 0 82 4c 64
        E 0 92 48 64
        E 0 82 4a 64
        E 0 92 47 64
        E 0 82 48 64
        E 0 83 43 64
        E 0 8f 37 64
        E 0 92 4c 64
        E 0 93 3c 5a
        E 0 9f 30 5a
        E 0 82 47 64
        E 0 92 4a 64
        E 0 82 4c 64
        E 0 92 48 64
        E 0 82 4a 64
        E 0 83 3c 64
        E 0 8f 30 64
        E 0 92 47 64
        E 0 93 43 5a
        E 0 9f 37 5a
        E 0 82 48 64
        E 0 92 45 64
        E 0 82 47 64
        E 0 92 43 64
        E 0 82 45 64
        E 0 83 43 64
        E 0 8f 37 64
        E 0 92 4f 64
        E 0 93 37 5a
        E 0 9f 2b 5a
        E 0 82 43 64
        E 0 92 4a 64
        E 0 82 4f 64
        E 0 92 48 64
        E 0 82 4a 64
        E 0 83 37 64
        E 0 8f 2b 64
        E 0 92 47 64
        E 0 93 43 5a
        E 0 9f 37 5a
        E 0 82 48 64
        E 0 92 45 64
        E 0 82 47 64
        E 0 92 43 64
        E 0 82 45 64
        E 0 83 43 64
        E 0 8f 37 64
        E 0 92 45 64
        E 0 93 3c 5a
        E 0 9f 30 5a
        E 0 82 43 64
        E 0 92 48 64
        E 0 82 45 64
        E 0 92 47 64
        E 0 82 48 64
        E 0 83 3c 64
        E 0 8f 30 64
        E 1 92 45 64
        E 0 93 3e 5a
        E 0 9f 32 5a
        E 0 82 47 64
        E 0 92 43 64
        E 0 82 45 64
        E 0 92 42 64
        E 0 82 43 64
        E 0 83 3e 64
        E 0 8f 32 64
        E 0 92 43 64
        E 0 93 43 5a
        E 0 9f 37 5a
        E 0 82 42 64
        E 0 92 3e 64
        E 0 82 43 64
        E 0 92 3b 64
        E 0 82 3e 64
        E 0 83 43 64
        E 0 8f 37 64
        E 0 92 37 64
        E 0 93 37 5a
        E 0 9f 2b 5a
        E 0 82 3b 64
        E 0 83 37 64
        E 0 8f 2b 64
        E 0 82 37 64
        E 0 92 4a 64
        E 0 9b 32 64
        E 0 8b 32 64
        E 0 92 4f 64
        E 0 93 43 5a
        E 0 9b 37 64
        E 0 9f 37 5a
        E 0 92 4e 64
        E 0 82 4a 64
        E 0 82 4f 64
        E 0 92 4f 64
        E 0 82 4e 64
        E 0 83 43 64
        E 0 8b 37 64
        E 0 8f 37 64
        E 0 92 4a 64
        E 0 93 43 5a
        E 0 9b 37 64
        E 0 9f 37 5a
        E 0 82 4f 64
        E 0 92 48 64
        E 0 82 4a 64
        E 0 92 4a 64
        E 0 82 48 64
        E 0 83 43 64
        E 0 8b 37 64
        E 0 8f 37 64
        E 0 92 4f 64
        E 0 93 43 5a
        E 0 9b 37 64
        E 0 9f 37 5a
        E 0 82 4a 64
        E 0 92 4e 64
        E 0 82 4f 64
        E 0 83 43 64
        E 0 8b 37 64
        E 0 8f 37 64
        E 0 93 45 5a
        E 0 9b 39 64
        E 0 9f 39 5a
        E 0 92 4f 64
        E 0 82 4e 64
        E 0 83 45 64
        E 0 8b 39 64
        E 0 8f 39 64
        E 0 92 4a 64
        E 0 93 47 5a
        E 1 9b 3b 64
        E 0 9f 3b 5a
        E 0 82 4f 64
        E 0 92 48 64
        E 0 82 4a 64
        E 0 83 47 64
        E 0 8b 3b 64
        E 0 8f 3b 64
        E 0 93 48 5a
        E 0 9b 3c 64
        E 0 9f 3c 5a
        E 0 92 4a 64
        E 0 82 48 64
        E 0 83 48 64
        E 0 8b 3c 64
        E 0 8f 3c 64
        E 0 92 51 64
        E 0 93 4a 5a
        E 0 9b 3e 64
        E 0 9f 3e 5a
        E 0 82 4a 64
        E 0 92 4f 64
        E 0 82 51 64
        E 0 92 51 64
        E 0 82 4f 64
        E 0 83 4a 64
        E 0 8b 3e 64
        E 0 8f 3e 64
        E 0 92 4a 64
        E 0 93 3e 5a
        E 0 9b 32 64
        E 0 9f 32 5a
        E 0 82 51 64
        E 0 92 48 64
        E 0 82 4a 64
        E 0 92 4a 64
        E 0 82 48 64
        E 0 83 3e 64
        E 0 8b 32 64
        E 0 8f 32 64
        E 0 92 51 64
        E 0 93 3e 5a
        E 0 9f 32 5a
        E 0 82 4a 64
        E 0 92 4f 64
        E 0 82 51 64
        E 0 92 51 64
        E 0 82 4f 64
        E 0 83 3e 64
        E 0 8f 32 64
        E 0 92 4a 64
        E 0 93 3e 5a
        E 0 9b 3e 64
        E 0 9f 32 5a
        E 0 82 51 64
        E 0 92 48 64
        E 0 82 4a 64
        E 0 92 4a 64
        E 0 82 48 64
        E 0 83 3e 64
        E 0 8b 3e 64
        E 0 8f 32 64
        E 0 92 51 64
        E 0 93 3e 5a
        E 0 9b 3c 64
        E 0 9f 32 5a
        E 0 82 4a 64
        E 1 92 4f 64
        E 0 82 51 64
        E 0 92 51 64
        E 0 82 4f 64
        E 0 83 3e 64
        E 0 8b 3c 64
        E 0 8f 32 64
        E 0 92 4a 64
        E 0 93 3e 5a
        E 0 9b 32 64
        E 0 9f 32 5a
        E 0 82 51 64
        E 0 92 48 64
        E 0 82 4a 64
        E 0 92 4a 64
        E 0 82 48 64
        E 0 83 3e 64
        E 0 8b 32 64
        E 0 8f 32 64
        E 0 92 51 64
        E 0 93 3e 5a
        E 0 9b 32 64
        E 0 9f 32 5a
        E 0 82 4a 64
        E 1 92 4f 64
        E 0 82 51 64
        E 1 92 51 64
        E 38405 82 4f 64
        E 0 83 3e 64
        E 0 8b 32 64
        E 0 8f 32 64
        E 0 92 4a 64
        E 0 93 3e 5a
        E 0 9b 3c 64
        E 0 9f 32 5a
        E 0 82 51 64
        E 1 92 48 64
        E 0 82 4a 64
        E 0 92 4a 64
        E 0 82 48 64
        E 0 83 3e 64
        E 0 8b 3c 64
        E 0 8f 32 64
        E 0 92 4f 64
        E 0 93 3e 5a
        E 0 9b 3b 64
        E 0 9f 32 5a
        E 0 82 4a 64
        E 0 92 4e 64
        E 0 82 4f 64
        E 0 92 4f 64
        E 0 82 4e 64
        E 0 83 3e 64
        E 0 8b 3b 64
        E 0 8f 32 64
        E 0 92 4a 64
        E 0 93 3e 5a
        E 0 9b 32 64
        E 0 9f 32 5a
        E 0 82 4f 64
        E 0 92 48 64
        E 0 82 4a 64
        E 0 92 4a 64
        E 0 82 48 64
        E 0 83 3e 64
        E 0 8b 32 64
        E 0 8f 32 64
        E 0 92 4f 64
        E 0 93 3e 5a
        E 1 9f 32 5a
        E 0 82 4a 64
        E 0 92 4e 64
        E 0 82 4f 64
        E 0 92 4f 64
        E 0 82 4e 64
        E 0 83 3e 64
        E 0 8f 32 64
        E 0 92 4a 64
        E 0 93 3e 5a
        E 0 9b 3b 64
        E 0 9f 32 5a
        E 0 82 4f 64
        E 0 92 48 64
        E 0 82 4a 64
        E 0 92 4a 64
        E 0 82 48 64
        E 0 83 3e 64
        E 0 8b 3b 64
        E 0 8f 32 64
        E 0 92 4e 64
        E 0 93 3e 5a
        E 0 9b 39 64
        E 0 9f 32 5a
        E 0 82 4a 64
        E 0 92 4c 64
        E 0 82 4e 64
        E 0 92 4e 64
        E 0 82 4c 64
        E 0 83 3e 64
        E 0 8b 39 64
        E 0 8f 32 64
        E 0 92 4a 64
        E 0 93 3e 5a
        E 0 9b 32 64
        E 0 9f 32 5a
        E 0 82 4e 64
        E 0 92 48 64
        E 0 82 4a 64
        E 0 92 4a 64
        E 0 82 48 64
        E 0 83 3e 64
        E 0 8b 32 64
        E 0 8f 32 64
        E 0 92 4e 64
        E 0 93 3e 5a
        E 0 9b 32 64
        E 0 9f 32 5a
        E 0 82 4a 64
        E 0 92 4c 64
        E 0 82 4e 64
        E 0 92 4e 64
        E 0 82 4c 64
        E 0 83 3e 64
        E 0 8b 32 64
        E 0 8f 32 64
        E 0 92 48 64
        E 0 93 3e 5a
        E 0 9b 39 64
        E 0 9f 32 5a
        E 0 82 4e 64
        E 0 92 47 64
        E 0 82 48 64
        E 0 92 45 64
        E 0 82 47 64
        E 0 83 3e 64
        E 0 8b 39 64
        E 0 8f 32 64
        E 0 92 47 64
        E 0 93 43 5a
        E 0 9b 3b 64
        E 0 9f 37 5a
        E 0 82 45 64
        E 0 92 45 64
        E 0 82 47 64
        E 0 8b 3b 64
        E 0 9b 39 64
        E 0 92 47 64
        E 0 82 45 64
        E 0 83 43 64
        E 0 8b 39 64
        E 0 8f 37 64
        E 0 92 43 64
        E 0 93 37 5a
        E 0 9b 37 64
        E 0 9f 2b 5a
        E 0 82 47 64
        E 0 92 42 64
        E 0 82 43 64
        E 0 92 43 64
        E 0 82 42 64
        E 0 83 37 64
        E 0 8b 37 64
        E 0 8f 2b 64
        E 1 92 47 64
        E 0 93 37 5a
        E 0 9f 2b 5a
        E 0 82 43 64
        E 0 92 45 64
        E 0 82 47 64
        E 0 92 47 64
        E 0 82 45 64
        E 0 83 37 64
        E 0 8f 2b 64
        E 0 92 43 64
        E 0 93 43 5a
        E 0 9b 37 64
        E 0 9f 37 5a
        E 0 82 47 64
        E 0 92 42 64
        E 0 82 43 64
        E 0 92 43 64
        E 0 82 42 64
        E 0 83 43 64
        E 0 8b 37 64
        E 0 8f 37 64
        E 0 92 49 64
        E 0 93 45 5a
        E 0 9b 37 64
        E 0 9f 39 5a
        E 0 82 43 64
        E 0 92 47 64
        E 0 82 49 64
        E 0 92 49 64
        E 0 82 47 64
        E 0 83 45 64
        E 0 8b 37 64
        E 0 8f 39 64
        E 0 92 51 64
        E 0 93 39 5a
        E 0 9b 34 64
        E 0 9f 2d 5a
        E 0 82 49 64
        E 0 92 4f 64
        E 0 82 51 64
        E 0 92 51 64
        E 0 82 4f 64
        E 0 83 39 64
        E 0 8f 2d 64
        E 0 92 49 64
        E 0 93 39 5a
        E 0 9f 2d 5a
        E 0 82 51 64
        E 0 92 47 64
        E 0 82 49 64
        E 0 92 49 64
        E 0 82 47 64
        E 0 83 39 64
        E 0 8b 34 64
        E 0 8f 2d 64
        E 0 92 51 64
        E 0 93 45 5a
        E 1 9b 3d 64
        E 0 9f 39 5a
        E 0 82 49 64
        E 0 92 4f 64
        E 0 82 51 64
        E 0 92 51 64
        E 0 82 4f 64
        E 0 83 45 64
        E 0 8b 3d 64
        E 0 8f 39 64
        E 0 92 4c 64
        E 0 93 45 5a
        E 0 9b 3d 64
        E 0 9f 39 5a
        E 0 82 51 64
        E 0 92 4a 64
        E 0 82 4c 64
        E 0 92 4c 64
        E 0 82 4a 64
        E 0 83 45 64
        E 0 8b 3d 64
        E 0 8f 39 64
        E 0 92 51 64
        E 0 93 39 5a
        E 0 9b 40 64
        E 0 9f 2d 5a
        E 0 82 4c 64
        E 0 92 4f 64
        E 0 82 51 64
        E 0 92 51 64
        E 0 82 4f 64
        E 0 83 39 64
        E 0 8f 2d 64
        E 0 92 49 64
        E 0 93 39 5a
        E 0 9f 2d 5a
        E 0 82 51 64
        E 0 92 47 64
        E 0 82 49 64
        E 0 92 49 64
        E 0 82 47 64
        E 0 83 39 64
        E 0 8b 40 64
        E 0 8f 2d 64
        E 0 92 51 64
        E 0 93 45 5a
        E 0 9b 3d 64
        E 0 9f 39 5a
        E 0 82 49 64
        E 0 92 4f 64
        E 0 82 51 64
        E 0 92 51 64
        E 0 82 4f 64
        E 0 83 45 64
        E 0 8b 3d 64
        E 0 8f 39 64
        E 0 92 4e 64
        E 0 93 3e 5a
        E 0 9b 3e 64
        E 0 9f 32 5a
        E 0 82 51 64
        E 0 92 4c 64
        E 0 82 4e 64
        E 0 92 4e 64
        E 0 82 4c 64
        E 0 83 3e 64
        E 0 8b 3e 64
        E 0 8f 32 64
        E 0 92 4f 64
        E 0 93 39 5a
        E 0 9b 32 64
        E 0 9f 2d 5a
        E 0 82 4e 64
        E 0 92 4e 64
        E 0 82 4f 64
        E 0 92 4c 64
        E 0 82 4e 64
        E 0 83 39 64
        E 0 8b 32 64
        E 0 8f 2d 64
        E 0 92 4e 64
        E 0 93 3e 5a
        E 0 9f 32 5a
        E 0 82 4c 64
        E 0 92 4c 64
        E 0 82 4e 64
        E 0 92 4e 64
        E 0 82 4c 64
        E 0 83 3e 64
        E 0 8f 32 64
        E 0 92 4f 64
        E 1 93 39 5a
        E 0 9b 36 64
        E 0 9f 2d 5a
        E 0 82 4e 64
        E 0 92 4e 64
        E 0 82 4f 64
        E 0 8b 36 64
        E 0 9b 37 64
        E 0 92 4c 64
        E 0 82 4e 64
        E 0 83 39 64
        E 0 8b 37 64
        E 0 8f 2d 64
        E 0 92 4e 64
        E 0 93 3e 5a
        E 0 9b 39 64
        E 0 9f 32 5a
        E 0 82 4c 64
        E 0 92 4c 64
        E 0 82 4e 64
        E 0 92 4e 64
        E 0 82 4c 64
        E 0 83 3e 64
        E 0 8b 39 64
        E 0 8f 32 64
        E 0 92 4f 64
        E 0 93 3d 5a
        E 0 9b 39 64
        E 0 9f 31 5a
        E 0 82 4e 64
        E 0 92 4e 64
        E 0 82 4f 64
        E 0 92 4c 64
        E 0 82 4e 64
        E 0 83 3d 64
        E 0 8b 39 64
        E 0 8f 31 64
        E 0 92 4e 64
        E 0 93 3e 5a
        E 0 9b 39 64
        E 0 9f 32 5a
        E 0 82 4c 64
        E 0 92 4c 64
        E 0 82 4e 64
        E 0 92 4e 64
        E 0 82 4c 64
        E 0 83 3e 64
        E 0 8b 39 64
        E 0 8f 32 64
        E 0 92 4f 64
        E 0 93 39 5a
        E 0 9b 37 64
        E 0 9f 2d 5a
        E 0 82 4e 64
        E 0 92 4e 64
        E 0 82 4f 64
        E 1 92 4c 64
        E 0 82 4e 64
        E 0 83 39 64
        E 0 8b 37 64
        E 0 8f 2d 64
        E 0 92 4e 64
        E 0 93 3e 5a
        E 0 9b 36 64
        E 0 9f 32 5a
        E 0 82 4c 64
        E 0 92 51 64
        E 0 82 4e 64
        E 0 92 4f 64
        E 0 82 51 64
        E 0 83 3e 64
        E 0 8b 36 64
        E 0 8f 32 64
        E 0 92 4e 64
        E 0 93 32 5a
        E 0 9b 3e 64
        E 0 9f 26 5a
        E 0 82 4f 64
        E 0 92 4c 64
        E 0 82 4e 64
        E 0 92 4a 64
        E 0 82 4c 64
        E 0 83 32 64
        E 0 8b 3e 64
        E 0 8f 26 64
        E 0 92 49 64
        E 0 93 45 5a
        E 0 9b 3d 64
        E 0 9f 39 5a
        E 0 82 4a 64
        E 0 92 4c 64
        E 0 82 49 64
        E 0 8b 3d 64
        E 0 9b 3b 64
        E 0 92 4a 64
        E 0 82 4c 64
        E 0 83 45 64
        E 0 8b 3b 64
        E 0 8f 39 64
        E 0 92 49 64
        E 0 93 39 5a
        E 0 9b 39 64
        E 0 9f 2d 5a
        E 0 82 4a 64
        E 0 92 47 64
        E 0 82 49 64
        E 0 8b 39 64
        E 0 9b 37 64
        E 0 92 45 64
        E 0 82 47 64
        E 0 83 39 64
        E 0 8b 37 64
        E 0 8f 2d 64
        E 0 92 4e 64
        E 0 93 3e 5a
        E 0 9b 36 64
        E 0 9f 32 5a
        E 0 82 45 64
        E 0 92 51 64
        E 0 82 4e 64
        E 0 92 4f 64
        E 0 82 51 64
        E 0 83 3e 64
        E 0 8b 36 64
        E 0 8f 32 64
        E 0 92 4e 64
        E 0 93 32 5a
        E 1 9b 3e 64
        E 0 9f 26 5a
        E 0 82 4f 64
        E 0 92 4c 64
        E 0 82 4e 64
        E 0 92 4a 64
        E 0 82 4c 64
        E 0 83 32 64
        E 0 8b 3e 64
        E 0 8f 26 64
        E 0 92 4c 64
        E 0 93 45 5a
        E 0 9b 34 64
        E 0 9f 39 5a
        E 0 82 4a 64
        E 0 92 4f 64
        E 0 82 4c 64
        E 0 92 4e 64
        E 0 82 4f 64
        E 0 83 45 64
        E 0 8f 39 64
        E 0 92 4c 64
        E 0 93 39 5a
        E 0 9f 2d 5a
        E 0 82 4e 64
        E 0 92 4a 64
        E 0 82 4c 64
        E 0 92 49 64
        E 0 82 4a 64
        E 0 83 39 64
        E 0 8b 34 64
        E 0 8f 2d 64
        E 0 92 4a 64
        E 0 93 3e 5a
        E 0 9b 32 64
        E 0 9f 32 5a
        E 0 82 49 64
        E 0 92 49 64
        E 0 82 4a 64
        E 0 92 4a 64
        E 0 82 49 64
        E 0 83 3e 64
        E 0 8f 32 64
        E 0 92 45 64
        E 0 93 3e 5a
        E 0 9f 32 5a
        E 0 82 4a 64
        E 0 92 47 64
        E 0 82 45 64
        E 0 92 45 64
        E 0 82 47 64
        E 0 83 3e 64
        E 0 8b 32 64
        E 0 8f 32 64
        E 0 92 4a 64
        E 0 93 3e 5a
        E 0 9f 32 5a
        E 0 82 45 64
        E 0 92 49 64
        E 0 82 4a 64
        E 0 83 3e 64
        E 0 8f 32 64
        E 0 93 40 5a
        E 0 9f 34 5a
        E 0 92 4a 64
        E 0 82 49 64
        E 38404 83 40 64
        E 0 8f 34 64
        E 0 92 45 64
        E 0 93 42 5a
        E 0 9f 36 5a
        E 0 82 4a 64
        E 0 92 47 64
        E 0 82 45 64
        E 0 83 42 64
        E 0 8f 36 64
        E 0 93 43 5a
        E 0 9f 37 5a
        E 0 92 45 64
        E 0 82 47 64
        E 0 83 43 64
        E 0 8f 37 64
        E 0 92 4c 64
        E 0 93 45 5a
        E 0 9f 39 5a
        E 0 82 45 64
        E 0 92 4e 64
        E 1 82 4c 64
        E 0 92 4c 64
        E 0 82 4e 64
        E 0 83 45 64
        E 0 8f 39 64
        E 0 92 45 64
        E 0 93 39 5a
        E 0 9f 2d 5a
        E 0 82 4c 64
        E 0 92 47 64
        E 0 82 45 64
        E 0 92 45 64
        E 0 82 47 64
        E 0 83 39 64
        E 0 8f 2d 64
        E 0 92 4c 64
        E 0 93 39 5a
        E 0 9f 2d 5a
        E 0 82 45 64
        E 0 92 4e 64
        E 0 82 4c 64
        E 0 83 39 64
        E 0 8f 2d 64
        E 0 93 3b 5a
        E 0 9f 2f 5a
        E 0 92 4c 64
        E 0 82 4e 64
        E 0 83 3b 64
        E 0 8f 2f 64
        E 0 92 45 64
        E 0 93 3d 5a
        E 0 9f 31 5a
        E 0 82 4c 64
        E 0 92 47 64
        E 0 82 45 64
        E 0 83 3d 64
        E 0 8f 31 64
        E 0 93 39 5a
        E 0 9f 2d 5a
        E 0 92 45 64
        E 0 82 47 64
        E 0 83 39 64
        E 0 8f 2d 64
        E 0 92 4d 64
        E 0 93 3e 5a
        E 0 9f 32 5a
        E 0 82 45 64
        E 0 92 4c 64
        E 0 82 4d 64
        E 0 92 4d 64
        E 0 82 4c 64
        E 0 83 3e 64
        E 0 8f 32 64
        E 0 92 4f 64
        E 0 93 3d 5a
        E 1 9f 31 5a
        E 0 82 4d 64
        E 0 92 4d 64
        E 0 82 4f 64
        E 0 92 4c 64
        E 0 82 4d 64
        E 0 83 3d 64
        E 0 8f 31 64
        E 0 92 4d 64
        E 0 93 3e 5a
        E 0 9f 32 5a
        E 0 82 4c 64
        E 0 92 4c 64
        E 0 82 4d 64
        E 0 92 4d 64
        E 0 82 4c 64
        E 0 83 3e 64
        E 0 8f 32 64
        E 0 92 4f 64
        E 0 93 3d 5a
        E 0 9f 31 5a
        E 0 82 4d 64
        E 0 92 4d 64
        E 0 82 4f 64
        E 0 92 4c 64
        E 0 82 4d 64
        E 0 83 3d 64
        E 0 8f 31 64
        E 0 92 4d 64
        E 0 93 3e 5a
        E 0 9f 32 5a
        E 0 82 4c 64
        E 0 92 4c 64
        E 0 82 4d 64
        E 0 92 4d 64
        E 0 82 4c 64
        E 0 83 3e 64
        E 0 8f 32 64
        E 0 92 4f 64
        E 0 93 3d 5a
        E 0 9f 31 5a
        E 0 82 4d 64
        E 0 92 4d 64
        E 0 82 4f 64
        E 0 92 4c 64
        E 0 82 4d 64
        E 0 83 3d 64
        E 0 8f 31 64
        E 0 92 4d 64
        E 0 93 3e 5a
        E 0 9f 32 5a
        E 0 82 4c 64
        E 0 92 4c 64
        E 0 82 4d 64
        E 0 92 4d 64
        E 0 82 4c 64
        E 0 83 3e 64
        E 0 8f 32 64
        E 0 92 4f 64
        E 1 93 3d 5a
        E 0 9f 31 5a
        E 0 82 4d 64
        E 0 92 4d 64
        E 0 82 4f 64
        E 0 92 4c 64
        E 0 82 4d 64
        E 0 83 3d 64
        E 0 8f 31 64
        E 0 92 56 64
        E 0 93 3e 5a
        E 0 9f 32 5a
        E 0 82 4c 64
        E 0 92 55 64
        E 0 82 56 64
        E 0 92 53 64
        E 0 82 55 64
        E 0 83 3e 64
        E 0 8f 32 64
        E 0 92 51 64
        E 0 93 4a 5a
        E 0 9f 3e 5a
        E 0 82 53 64
        E 0 92 4f 64
        E 0 82 51 64
        E 0 92 4e 64
        E 0 82 4f 64
        E 0 83 4a 64
        E 0 8f 3e 64
        E 0 92 53 64
        E 0 93 43 5a
        E 0 9f 37 5a
        E 0 82 4e 64
        E 0 92 51 64
        E 0 82 53 64
        E 0 92 4f 64
        E 0 82 51 64
        E 0 83 43 64
        E 0 8f 37 64
        E 0 92 4e 64
        E 0 93 3e 5a
        E 0 9f 32 5a
        E 0 82 4f 64
        E 0 92 4c 64
        E 0 82 4e 64
        E 0 92 4a 64
        E 0 82 4c 64
        E 0 83 3e 64
        E 0 8f 32 64
        E 0 92 56 64
        E 0 93 4a 5a
        E 0 9f 3e 5a
        E 0 82 4a 64
        E 0 92 51 64
        E 0 82 56 64
        E 0 92 4f 64
        E 0 82 51 64
        E 0 83 4a 64
        E 0 8f 3e 64
        E 0 92 4e 64
        E 0 93 3e 5a
        E 0 9f 32 5a
        E 0 82 4f 64
        E 0 92 4c 64
        E 0 82 4e 64
        E 1 92 4a 64
        E 0 82 4c 64
        E 0 83 3e 64
        E 0 8f 32 64
        E 0 92 4c 64
        E 0 93 45 5a
        E 0 9f 39 5a
        E 0 82 4a 64
        E 0 92 4f 64
        E 0 82 4c 64
        E 0 92 4e 64
        E 0 82 4f 64
        E 0 83 45 64
        E 0 8f 39 64
        E 0 92 4c 64
        E 0 93 39 5a
        E 0 9f 2d 5a
        E 0 82 4e 64
        E 0 92 4a 64
        E 0 82 4c 64
        E 0 92 49 64
        E 0 82 4a 64
        E 0 83 39 64
        E 0 8f 2d 64
        E 0 92 4a 64
        E 0 93 3e 5a
        E 0 9f 32 5a
        E 0 82 49 64
        E 0 92 45 64
        E 0 82 4a 64
        E 0 92 43 64
        E 0 82 45 64
        E 0 83 3e 64
        E 0 8f 32 64
        E 0 92 42 64
        E 0 93 32 5a
        E 0 9f 26 5a
        E 0 82 43 64
        E 0 92 40 64
        E 0 82 42 64
        E 0 92 3e 64
        E 0 82 40 64
        E 0 83 32 64
        E 0 8f 26 64
        E 0 92 4a 64
        E 0 93 32 5a
        E 0 9f 26 5a
        E 0 82 3e 64
        E 0 92 45 64
        E 0 82 4a 64
        E 0 92 43 64
        E 0 82 45 64
        E 0 83 32 64
        E 0 8f 26 64
        E 0 92 42 64
        E 0 93 3e 5a
        E 0 9b 32 64
        E 0 9f 32 5a
        E 0 82 43 64
        E 0 92 40 64
        E 0 82 42 64
        E 0 92 3e 64
        E 0 82 40 64
        E 0 83 3e 64
        E 0 8b 32 64
        E 0 8f 32 64
        E 0 92 51 64
        E 0 93 3e 5a
        E 0 9b 39 64
        E 0 9f 32 5a
        E 0 82 3e 64
        E 0 92 4f 64
        E 0 82 51 64
        E 0 92 51 64
        E 0 82 4f 64
        E 0 83 3e 64
        E 0 8b 39 64
        E 0 8f 32 64
        E 0 92 51 64
        E 0 93 3e 5a
        E 0 9b 39 64
        E 0 9f 32 5a
        E 0 82 51 64
        E 0 92 4f 64
        E 0 82 51 64
        E 0 92 51 64
        E 0 82 4f 64
        E 0 83 3e 64
        E 0 8b 39 64
        E 0 8f 32 64
        E 0 92 51 64
        E 0 93 45 5a
        E 0 9b 39 64
        E 0 9f 39 5a
        E 0 82 51 64
        E 0 92 4f 64
        E 0 82 51 64
        E 0 83 45 64
        E 0 8f 39 64
        E 0 93 43 5a
        E 0 9f 37 5a
        E 0 92 51 64
        E 0 82 4f 64
        E 0 83 43 64
        E 0 8b 39 64
        E 0 8f 37 64
        E 0 92 51 64
        E 1 93 42 5a
        E 0 9b 3b 64
        E 0 9f 36 5a
        E 0 82 51 64
        E 0 92 4f 64
        E 0 82 51 64
        E 0 83 42 64
        E 0 8b 3b 64
        E 0 8f 36 64
        E 0 93 40 5a
        E 0 9b 3d 64
        E 0 9f 34 5a
        E 0 92 51 64
        E 0 82 4f 64
        E 0 83 40 64
        E 0 8b 3d 64
        E 0 8f 34 64
        E 0 92 51 64
        E 0 93 3e 5a
        E 0 9b 3e 64
        E 0 9f 32 5a
        E 0 82 51 64
        E 0 92 4f 64
        E 0 82 51 64
        E 0 92 51 64
        E 0 82 4f 64
        E 0 83 3e 64
        E 0 8b 3e 64
        E 0 8f 32 64
        E 0 92 4e 64
        E 0 93 3e 5a
        E 0 9b 32 64
        E 0 9f 32 5a
        E 0 82 51 64
        E 0 92 4c 64
        E 0 82 4e 64
        E 0 92 4e 64
        E 0 82 4c 64
        E 0 83 3e 64
        E 0 8b 32 64
        E 0 8f 32 64
        E 0 92 4a 64
        E 0 93 3e 5a
        E 0 9f 32 5a
        E 0 82 4e 64
        E 0 92 48 64
        E 0 82 4a 64
        E 0 92 4a 64
        E 0 82 48 64
        E 0 83 3e 64
        E 0 8f 32 64
        E 0 92 45 64
        E 0 93 3e 5a
        E 0 9b 32 64
        E 0 9f 32 5a
        E 0 82 4a 64
        E 0 92 43 64
        E 0 82 45 64
        E 0 92 45 64
        E 0 82 43 64
        E 0 83 3e 64
        E 0 8b 32 64
        E 0 8f 32 64
        E 0 92 42 64
        E 0 93 3e 5a
        E 0 9b 39 64
        E 0 9f 32 5a
        E 0 82 45 64
        E 0 92 3e 64
        E 0 82 42 64
        E 0 92 45 64
        E 0 82 3e 64
        E 0 83 3e 64
        E 0 8b 39 64
        E 0 8f 32 64
        E 0 92 42 64
        E 0 93 3e 5a
        E 0 9b 39 64
        E 0 9f 32 5a
        E 0 82 45 64
        E 0 92 3e 64
        E 0 82 42 64
        E 0 92 45 64
        E 0 82 3e 64
        E 0 83 3e 64
        E 0 8b 39 64
        E 0 8f 32 64
        E 0 92 51 64
        E 0 93 45 5a
        E 0 9b 39 64
        E 0 9f 39 5a
        E 0 82 45 64
        E 0 92 4f 64
        E 0 82 51 64
        E 0 83 45 64
        E 0 8f 39 64
        E 0 93 43 5a
        E 0 9f 37 5a
        E 0 92 51 64
        E 0 82 4f 64
        E 0 83 43 64
        E 0 8b 39 64
        E 0 8f 37 64
        E 0 92 51 64
        E 0 93 42 5a
        E 0 9b 3b 64
        E 0 9f 36 5a
        E 0 82 51 64
        E 0 92 4f 64
        E 0 82 51 64
        E 0 83 42 64
        E 0 8b 3b 64
        E 0 8f 36 64
        E 0 93 40 5a
        E 0 9b 3d 64
        E 0 9f 34 5a
        E 0 92 51 64
        E 1 82 4f 64
        E 0 83 40 64
        E 0 8b 3d 64
        E 0 8f 34 64
        E 0 92 51 64
        E 0 93 3e 5a
        E 0 9b 3e 64
        E 0 9f 32 5a
        E 0 82 51 64
        E 0 92 4f 64
        E 0 82 51 64
        E 0 92 51 64
        E 0 82 4f 64
        E 0 83 3e 64
        E 0 8b 3e 64
        E 0 8f 32 64
        E 0 92 4e 64
        E 0 93 3e 5a
        E 0 9b 32 64
        E 0 9f 32 5a
        E 0 82 51 64
        E 0 92 4c 64
        E 0 82 4e 64
        E 0 92 4e 64
        E 0 82 4c 64
        E 0 83 3e 64
        E 0 8b 32 64
        E 0 8f 32 64
        E 0 92 4a 64
        E 0 93 3e 5a
        E 0 9f 32 5a
        E 0 82 4e 64
        E 0 92 48 64
        E 0 82 4a 64
        E 0 92 4a 64
        E 0 82 48 64
        E 38403 83 3e 64
        E 0 8f 32 64
        E 1 92 45 64
        E 0 93 3e 5a
        E 0 9f 32 5a
        E 0 82 4a 64
        E 0 92 43 64
        E 0 82 45 64
        E 0 92 45 64
        E 0 82 43 64
        E 0 83 3e 64
        E 0 8f 32 64
        E 0 92 42 64
        E 0 93 3e 5a
        E 0 9b 32 64
        E 0 9f 32 5a
        E 0 82 45 64
        E 0 92 3e 64
        E 0 82 42 64
        E 0 8b 32 64
        E 0 9b 34 64
        E 0 92 45 64
        E 0 82 3e 64
        E 0 83 3e 64
        E 0 8b 34 64
        E 0 8f 32 64
        E 0 92 42 64
        E 0 93 3e 5a
        E 0 9b 36 64
        E 0 9f 32 5a
        E 0 82 45 64
        E 0 92 3e 64
        E 0 82 42 64
        E 0 8b 36 64
        E 0 9b 37 64
        E 0 92 45 64
        E 0 82 3e 64
        E 0 83 3e 64
        E 0 8b 37 64
        E 0 8f 32 64
        E 0 92 51 64
        E 0 93 3e 5a
        E 0 9b 39 64
        E 0 9f 32 5a
        E 0 82 45 64
        E 0 92 4f 64
        E 0 82 51 64
        E 0 92 51 64
        E 0 82 4f 64
        E 0 83 3e 64
        E 0 8b 39 64
        E 0 8f 32 64
        E 0 92 51 64
        E 0 93 3c 5a
        E 0 9b 39 64
        E 1 9f 30 5a
        E 0 82 51 64
        E 0 92 4f 64
        E 0 82 51 64
        E 0 92 51 64
        E 0 82 4f 64
        E 0 83 3c 64
        E 0 8b 39 64
        E 0 8f 30 64
        E 0 92 4b 64
        E 0 93 3b 5a
        E 0 9b 39 64
        E 0 9f 2f 5a
        E 0 82 51 64
        E 0 92 49 64
        E 0 82 4b 64
        E 0 92 4b 64
        E 0 82 49 64
        E 0 83 3b 64
        E 0 8b 39 64
        E 0 8f 2f 64
        E 0 92 4e 64
        E 0 93 3b 5a
        E 0 9b 33 64
        E 0 9f 2f 5a
        E 0 82 4b 64
        E 0 92 4c 64
        E 0 82 4e 64
        E 0 92 4e 64
        E 0 82 4c 64
        E 0 83 3b 64
        E 0 8f 2f 64
        E 0 92 47 64
        E 0 93 3b 5a
        E 0 9f 2f 5a
        E 0 82 4e 64
        E 0 92 45 64
        E 0 82 47 64
        E 0 92 47 64
        E 0 82 45 64
        E 0 83 3b 64
        E 0 8b 33 64
        E 0 8f 2f 64
        E 0 92 51 64
        E 0 93 3b 5a
        E 0 9b 36 64
        E 0 9f 2f 5a
        E 0 82 47 64
        E 0 92 4f 64
        E 0 82 51 64
        E 0 92 51 64
        E 0 82 4f 64
        E 0 83 3b 64
        E 0 8b 36 64
        E 0 8f 2f 64
        E 0 92 4b 64
        E 1 93 3b 5a
        E 0 9b 36 64
        E 0 9f 2f 5a
        E 0 82 51 64
        E 0 92 49 64
        E 0 82 4b 64
        E 0 92 4b 64
        E 0 82 49 64
        E 0 83 3b 64
        E 0 8b 36 64
        E 0 8f 2f 64
        E 0 92 4e 64
        E 0 93 3b 5a
        E 0 9b 3c 64
        E 0 9f 2f 5a
        E 0 82 4b 64
        E 0 92 4c 64
        E 0 82 4e 64
        E 0 92 4e 64
        E 0 82 4c 64
        E 0 83 3b 64
        E 0 8b 3c 64
        E 0 8f 2f 64
        E 0 92 47 64
        E 0 93 3b 5a
        E 0 9b 3b 64
        E 0 9f 2f 5a
        E 0 82 4e 64
        E 0 92 45 64
        E 0 82 47 64
        E 0 8b 3b 64
        E 0 9b 39 64
        E 0 92 47 64
        E 0 82 45 64
        E 0 83 3b 64
        E 0 8b 39 64
        E 0 8f 2f 64
        E 0 92 51 64
        E 1 93 3b 5a
        E 0 9b 37 64
        E 0 9f 2f 5a
        E 0 82 47 64
        E 0 92 4f 64
        E 0 82 51 64
        E 0 8b 37 64
        E 0 9b 36 64
        E 0 92 4e 64
        E 0 82 4f 64
        E 0 83 3b 64
        E 0 8b 36 64
        E 0 8f 2f 64
        E 0 92 4c 64
        E 0 93 40 5a
        E 0 9b 37 64
        E 0 9f 34 5a
        E 0 82 4e 64
        E 0 92 4b 64
        E 0 82 4c 64
        E 0 8b 37 64
        E 0 9b 36 64
        E 0 92 4c 64
        E 0 82 4b 64
        E 0 83 40 64
        E 0 8b 36 64
        E 0 8f 34 64
        E 0 92 4c 64
        E 0 93 40 5a
        E 0 9b 34 64
        E 0 9f 34 5a
        E 0 82 4c 64
        E 0 92 4b 64
        E 0 82 4c 64
        E 0 92 4c 64
        E 0 82 4b 64
        E 0 83 40 64
        E 0 8b 34 64
        E 0 8f 34 64
        E 0 92 4c 64
        E 0 93 40 5a
        E 0 9b 34 64
        E 0 9f 34 5a
        E 0 82 4c 64
        E 0 92 4b 64
        E 0 82 4c 64
        E 0 92 4c 64
        E 0 82 4b 64
        E 0 83 40 64
        E 0 8b 34 64
        E 0 8f 34 64
        E 0 92 4c 64
        E 0 93 40 5a
        E 0 9b 37 64
        E 1 9f 34 5a
        E 0 82 4c 64
        E 0 92 4b 64
        E 0 82 4c 64
        E 0 92 4c 64
        E 0 82 4b 64
        E 0 83 40 64
        E 0 8b 37 64
        E 0 8f 34 64
        E 0 92 49 64
        E 0 93 39 5a
        E 0 9b 37 64
        E 0 9f 2d 5a
        E 0 82 4c 64
        E 0 92 47 64
        E 0 82 49 64
        E 0 92 49 64
        E 0 82 47 64
        E 0 83 39 64
        E 0 8b 37 64
        E 0 8f 2d 64
        E 0 92 4c 64
        E 0 93 39 5a
        E 0 9b 31 64
        E 0 9f 2d 5a
        E 0 82 49 64
        E 0 92 4e 64
        E 0 82 4c 64
        E 0 92 4c 64
        E 0 82 4e 64
        E 0 83 39 64
        E 0 8f 2d 64
        E 0 92 45 64
        E 0 93 39 5a
        E 0 9f 2d 5a
        E 0 82 4c 64
        E 0 92 47 64
        E 0 82 45 64
        E 0 92 45 64
        E 0 82 47 64
        E 0 83 39 64
        E 0 8b 31 64
        E 0 8f 2d 64
        E 0 92 4f 64
        E 0 93 39 5a
        E 0 9b 34 64
        E 0 9f 2d 5a
        E 0 82 45 64
        E 0 92 4e 64
        E 0 82 4f 64
        E 0 92 4f 64
        E 0 82 4e 64
        E 0 83 39 64
        E 0 8b 34 64
        E 0 8f 2d 64
        E 0 92 49 64
        E 0 93 39 5a
        E 0 9b 34 64
        E 0 9f 2d 5a
        E 0 82 4f 64
        E 0 92 47 64
        E 0 82 49 64
        E 0 92 49 64
        E 0 82 47 64
        E 0 83 39 64
        E 0 8b 34 64
        E 0 8f 2d 64
        E 0 92 4c 64
        E 0 93 39 5a
        E 0 9b 3b 64
        E 0 9f 2d 5a
        E 0 82 49 64
        E 0 92 4a 64
        E 0 82 4c 64
        E 0 92 4c 64
        E 0 82 4a 64
        E 0 83 39 64
        E 0 8b 3b 64
        E 0 8f 2d 64
        E 0 92 45 64
        E 1 93 39 5a
        E 0 9b 39 64
        E 0 9f 2d 5a
        E 0 82 4c 64
        E 0 92 47 64
        E 0 82 45 64
        E 0 8b 39 64
        E 0 9b 37 64
        E 0 92 45 64
        E 0 82 47 64
        E 0 83 39 64
        E 0 8b 37 64
        E 0 8f 2d 64
        E 0 92 4f 64
        E 0 93 39 5a
        E 0 9b 36 64
        E 0 9f 2d 5a
        E 0 82 45 64
        E 0 92 4e 64
        E 0 82 4f 64
        E 0 8b 36 64
        E 0 9b 34 64
        E 0 92 4c 64
        E 0 82 4e 64
        E 0 83 39 64
        E 0 8b 34 64
        E 0 8f 2d 64
        E 0 92 4a 64
        E 0 93 3e 5a
        E 0 9b 36 64
        E 0 9f 32 5a
        E 0 82 4c 64
        E 0 92 49 64
        E 0 82 4a 64
        E 0 8b 36 64
        E 0 9b 34 64
        E 0 92 4a 64
        E 0 82 49 64
        E 0 83 3e 64
        E 0 8b 34 64
        E 0 8f 32 64
        E 0 92 4a 64
        E 0 93 3e 5a
        E 0 9b 32 64
        E 0 9f 32 5a
        E 0 82 4a 64
        E 0 92 49 64
        E 0 82 4a 64
        E 0 92 4a 64
        E 0 82 49 64
        E 0 83 3e 64
        E 0 8b 32 64
        E 0 8f 32 64
        E 1 92 4a 64
        E 0 93 3e 5a
        E 0 9f 32 5a
        E 0 82 4a 64
        E 0 92 49 64
        E 0 82 4a 64
        E 0 92 4a 64
        E 0 82 49 64
        E 0 83 3e 64
        E 0 8f 32 64
        E 0 92 4a 64
        E 0 93 3e 5a
        E 0 9b 39 64
        E 0 9f 32 5a
        E 0 82 4a 64
        E 0 92 49 64
        E 0 82 4a 64
        E 0 92 4a 64
        E 0 82 49 64
        E 0 83 3e 64
        E 0 8b 39 64
        E 0 8f 32 64
        E 0 92 47 64
        E 0 93 43 5a
        E 0 9b 3b 64
        E 0 9f 37 5a
        E 0 82 4a 64
        E 0 92 45 64
        E 0 82 47 64
        E 0 92 47 64
        E 0 82 45 64
        E 0 83 43 64
        E 0 8b 3b 64
        E 0 8f 37 64
        E 0 92 4a 64
        E 0 93 43 5a
        E 0 9b 39 64
        E 0 9f 37 5a
        E 0 82 47 64
        E 0 92 48 64
        E 0 82 4a 64
        E 0 8b 39 64
        E 0 9b 37 64
        E 0 92 4a 64
        E 0 82 48 64
        E 0 83 43 64
        E 0 8b 37 64
        E 0 8f 37 64
        E 0 92 4f 64
        E 0 93 43 5a
        E 0 9b 3e 64
        E 1 9f 37 5a
        E 0 82 4a 64
        E 0 92 4e 64
        E 0 82 4f 64
        E 0 92 4f 64
        E 0 82 4e 64
        E 0 83 43 64
        E 0 8b 3e 64
        E 0 8f 37 64
        E 0 92 53 64
        E 0 93 37 5a
        E 0 9b 3c 64
        E 0 9f 2b 5a
        E 0 82 4f 64
        E 0 92 51 64
        E 0 82 53 64
        E 0 8b 3c 64
        E 0 9b 3b 64
        E 0 92 4f 64
        E 0 82 51 64
        E 0 83 37 64
        E 0 8b 3b 64
        E 0 8f 2b 64
        E 0 92 51 64
        E 0 93 3e 5a
        E 0 9b 39 64
        E 0 9f 32 5a
        E 0 82 4f 64
        E 0 92 4f 64
        E 0 82 51 64
        E 0 92 51 64
        E 0 82 4f 64
        E 0 83 3e 64
        E 0 8b 39 64
        E 0 8f 32 64
        E 0 92 4e 64
        E 0 93 3e 5a
        E 0 9f 32 5a
        E 0 82 51 64
        E 0 92 4c 64
        E 0 82 4e 64
        E 0 92 4e 64
        E 1 82 4c 64
        E 0 83 3e 64
        E 0 8f 32 64
        E 0 92 48 64
        E 0 93 3e 5a
        E 0 9f 32 5a
        E 0 82 4e 64
        E 0 92 47 64
        E 0 82 48 64
        E 0 92 48 64
        E 0 82 47 64
        E 0 83 3e 64
        E 0 8f 32 64
        E 0 92 51 64
        E 0 93 40 5a
        E 0 9b 32 64
        E 0 9f 34 5a
        E 0 82 48 64
        E 0 92 4f 64
        E 0 82 51 64
        E 0 83 40 64
        E 0 8f 34 64
        E 0 93 42 5a
        E 0 9f 36 5a
        E 0 92 51 64
        E 0 82 4f 64
        E 0 83 42 64
        E 0 8b 32 64
        E 0 8f 36 64
        E 0 92 46 66
        E 0 93 43 5a
        E 0 9b 32 64
        E 0 9f 37 5a
        E 0 82 51 64
        E 0 92 45 64
        E 0 82 46 66
        E 0 92 46 66
        E 0 82 45 64
        E 0 83 43 64
        E 0 8b 32 64
        E 0 8f 37 64
        E 0 92 48 64
        E 1 93 42 5a
        E 0 9b 3e 64
        E 0 9f 36 5a
        E 0 82 46 66
        E 0 92 46 66
        E 0 82 48 64
        E 0 92 45 64
        E 0 82 46 66
        E 0 83 42 64
        E 0 8b 3e 64
        E 0 8f 36 64
        E 0 92 46 66
        E 0 93 43 5a
        E 0 9b 3e 64
        E 0 9f 37 5a
        E 0 82 45 64
        E 0 92 45 64
        E 0 82 46 66
        E 0 92 46 66
        E 0 82 45 64
        E 36753 83 43 64
        E 0 8b 3e 64
        E 0 8f 37 64
        E 1 92 48 64
        E 0 93 42 5a
        E 0 9b 32 64
        E 0 9f 36 5a
        E 0 82 46 66
        E 0 92 46 66
        E 0 82 48 64
        E 0 92 45 64
        E 0 82 46 66
        E 0 83 42 64
        E 0 8b 32 64
        E 0 8f 36 64
        E 0 92 46 66
        E 0 93 43 5a
        E 0 9b 32 64
        E 0 9f 37 5a
        E 0 82 45 64
        E 0 92 45 64
        E 0 82 46 66
        E 0 8b 32 64
        E 0 9b 31 64
        E 0 92 46 66
        E 0 82 45 64
        E 0 83 43 64
        E 0 8b 31 64
        E 0 8f 37 64
        E 0 92 48 64
        E 0 93 42 5a
        E 0 9b 32 64
        E 0 9f 36 5a
        E 0 82 46 66
        E 0 92 46 66
        E 0 82 48 64
        E 0 92 45 64
        E 0 82 46 66
        E 0 83 42 64
        E 0 8b 32 64
        E 0 8f 36 64
        E 0 92 46 66
        E 0 93 43 5a
        E 0 9f 37 5a
        E 0 82 45 64
        E 0 92 45 64
        E 0 82 46 66
        E 0 92 46 66
        E 0 82 45 64
        E 0 83 43 64
        E 0 8f 37 64
        E 0 92 48 64
        E 0 93 42 5a
        E 0 9b 32 64
        E 0 9f 36 5a
        E 0 82 46 66
        E 0 92 46 66
        E 0 82 48 64
        E 0 92 45 64
        E 0 82 46 66
        E 0 83 42 64
        E 0 8b 32 64
        E 0 8f 36 64
        E 0 92 4f 64
        E 0 93 43 5a
        E 0 9b 32 64
        E 0 9f 37 5a
        E 0 82 45 64
        E 0 92 4e 64
        E 0 82 4f 64
        E 0 92 4f 64
        E 0 82 4e 64
        E 0 83 43 64
        E 0 8b 32 64
        E 0 8f 37 64
        E 0 92 51 64
        E 0 93 3e 5a
        E 0 9b 3e 64
        E 0 9f 32 5a
        E 0 82 4f 64
        E 0 92 4f 64
        E 0 82 51 64
        E 0 92 4e 64
        E 0 82 4f 64
        E 0 83 3e 64
        E 0 8b 3e 64
        E 0 8f 32 64
        E 0 92 4f 64
        E 0 93 43 5a
        E 0 9b 3e 64
        E 0 9f 37 5a
        E 0 82 4e 64
        E 0 92 4e 64
        E 0 82 4f 64
        E 0 92 4f 64
        E 0 82 4e 64
        E 0 83 43 64
        E 0 8b 3e 64
        E 0 8f 37 64
        E 0 92 51 64
        E 0 93 3e 5a
        E 0 9b 32 64
        E 0 9f 32 5a
        E 0 82 4f 64
        E 0 92 4f 64
        E 1 82 51 64
        E 0 92 4e 64
        E 0 82 4f 64
        E 0 83 3e 64
        E 0 8b 32 64
        E 0 8f 32 64
        E 2 92 4f 64
        E 50 93 43 5a
        E 0 9b 32 64
        E 0 9f 37 5a
        E 0 82 4e 64
        E 0 92 4e 64
        E 0 82 4f 64
        E 0 8b 32 64
        E 0 9b 31 64
        E 0 92 4f 64
        E 0 82 4e 64
        E 0 83 43 64
        E 0 8b 31 64
        E 1 8f 37 64
        E 0 92 51 64
        E 0 93 3e 5a
        E 0 9b 32 64
        E 0 9f 32 5a
        E 0 82 4f 64
        E 0 92 4f 64
        E 0 82 51 64
        E 0 92 4e 64
        E 0 82 4f 64
        E 0 83 3e 64
        E 0 8b 32 64
        E 0 8f 32 64
        E 0 92 4f 64
        E 0 93 43 5a
        E 0 9b 3e 64
        E 0 9f 37 5a
        E 0 82 4e 64
        E 0 92 4e 64
        E 0 82 4f 64
        E 0 92 4f 64
        E 0 82 4e 64
        E 0 83 43 64
        E 0 8b 3e 64
        E 0 8f 37 64
        E 0 92 51 64
        E 0 93 3e 5a
        E 0 9b 36 64
        E 0 9f 32 5a
        E 0 82 4f 64
        E 0 92 4f 64
        E 0 82 51 64
        E 0 92 4e 64
        E 0 82 4f 64
        E 0 83 3e 64
        E 0 8b 36 64
        E 0 8f 32 64
        E 0 92 52 66
        E 0 93 43 5a
        E 1 9b 37 64
        E 0 9f 37 5a
        E 0 82 4e 64
        E 0 92 51 64
        E 0 82 52 66
        E 0 92 52 66
        E 0 82 51 64
        E 0 83 43 64
        E 0 8b 37 64
        E 0 8f 37 64
        E 0 92 54 64
        E 0 93 3e 5a
        E 0 9b 39 64
        E 0 9f 32 5a
        E 0 82 52 66
        E 0 92 52 66
        E 0 82 54 64
        E 0 92 51 64
        E 0 82 52 66
        E 0 83 3e 64
        E 0 8b 39 64
        E 0 8f 32 64
        E 0 92 52 66
        E 0 93 43 5a
        E 0 9b 37 64
        E 0 9f 37 5a
        E 0 82 51 64
        E 0 92 51 64
        E 0 82 52 66
        E 0 92 52 66
        E 0 82 51 64
        E 0 83 43 64
        E 0 8b 37 64
        E 0 8f 37 64
        E 0 92 54 64
        E 0 93 3e 5a
        E 0 9b 36 64
        E 1 9f 32 5a
        E 0 82 52 66
        E 0 92 52 66
        E 0 82 54 64
        E 0 92 51 64
        E 0 82 52 66
        E 0 83 3e 64
        E 0 8b 36 64
        E 0 8f 32 64
        E 0 92 52 66
        E 0 93 43 5a
        E 0 9b 37 64
        E 0 9f 37 5a
        E 0 82 51 64
        E 0 92 51 64
        E 0 82 52 66
        E 0 92 52 66
        E 0 82 51 64
        E 0 83 43 64
        E 0 8b 37 64
        E 0 8f 37 64
        E 0 92 54 64
        E 0 93 3e 5a
        E 0 9b 39 64
        E 0 9f 32 5a
        E 0 82 52 66
        E 0 92 52 66
        E 0 82 54 64
        E 0 92 51 64
        E 0 82 52 66
        E 0 83 3e 64
        E 0 8b 39 64
        E 0 8f 32 64
        E 0 92 52 66
        E 0 93 43 5a
        E 0 9b 37 64
        E 0 9f 37 5a
        E 12 82 51 64
        E 2 92 51 64
        E 1 82 52 66
        E 8 92 52 66
        E 0 82 51 64
        E 0 83 43 64
        E 0 8b 37 64
        E 0 8f 37 64
        E 0 92 54 64
        E 0 93 3e 5a
        E 0 9b 36 64
        E 0 9f 32 5a
        E 0 82 52 66
        E 0 92 52 66
        E 0 82 54 64
        E 0 92 51 64
        E 0 82 52 66
        E 0 83 3e 64
        E 0 8b 36 64
        E 0 8f 32 64
        E 0 92 53 64
        E 0 93 43 5a
        E 0 9b 37 64
        E 0 9f 37 5a
        E 1 82 51 64
        E 0 92 56 64
        E 0 82 53 64
        E 0 92 54 64
        E 0 82 56 64
        E 0 83 43 64
        E 0 8b 37 64
        E 0 8f 37 64
        E 0 92 53 64
        E 0 93 37 5a
        E 0 9b 32 64
        E 0 9f 2b 5a
        E 0 82 54 64
        E 0 92 51 64
        E 0 82 53 64
        E 0 92 4f 64
        E 0 82 51 64
        E 0 83 37 64
        E 0 8b 32 64
        E 0 8f 2b 64
        E 0 92 53 64
        E 0 93 37 5a
        E 0 9f 2b 5a
        E 0 82 4f 64
        E 0 92 56 64
        E 0 82 53 64
        E 0 92 54 64
        E 0 82 56 64
        E 0 83 37 64
        E 0 8f 2b 64
        E 0 92 53 64
        E 0 93 43 5a
        E 0 9b 3b 64
        E 0 9f 37 5a
        E 0 82 54 64
        E 0 92 51 64
        E 0 82 53 64
        E 1 92 4f 64
        E 0 82 51 64
        E 0 83 43 64
        E 0 8b 3b 64
        E 0 8f 37 64
        E 0 92 4e 64
        E 0 93 3e 5a
        E 0 9b 39 64
        E 0 9f 32 5a
        E 0 82 4f 64
        E 0 92 51 64
        E 0 82 4e 64
        E 0 92 4f 64
        E 0 82 51 64
        E 0 83 3e 64
        E 0 8b 39 64
        E 0 8f 32 64
        E 0 92 4e 64
        E 0 93 32 5a
        E 0 9b 39 64
        E 0 9f 26 5a
        E 0 82 4f 64
        E 0 92 4c 64
        E 0 82 4e 64
        E 0 92 4a 64
        E 0 82 4c 64
        E 0 83 32 64
        E 0 8b 39 64
        E 0 8f 26 64
        E 0 92 48 64
        E 0 93 32 5a
        E 0 9b 39 64
        E 0 9f 26 5a
        E 0 82 4a 64
        E 0 92 4c 64
        E 0 82 48 64
        E 0 92 4a 64
        E 0 82 4c 64
        E 0 83 32 64
        E 1 8b 39 64
        E 0 8f 26 64
        E 0 92 48 64
        E 0 93 3e 5a
        E 0 9b 37 64
        E 0 9f 32 5a
        E 0 82 4a 64
        E 0 92 47 64
        E 0 82 48 64
        E 0 8b 37 64
        E 0 9b 36 64
        E 0 92 45 64
        E 0 82 47 64
        E 0 83 3e 64
        E 0 8b 36 64
        E 0 8f 32 64
        E 0 92 47 64
        E 0 93 43 5a
        E 0 9b 37 64
        E 0 9f 37 5a
        E 0 82 45 64
        E 0 92 4a 64
        E 0 82 47 64
        E 0 8b 37 64
        E 0 9b 39 64
        E 0 92 48 64
        E 0 82 4a 64
        E 0 83 43 64
        E 0 8b 39 64
        E 0 8f 37 64
        E 0 92 47 64
        E 1 93 37 5a
        E 0 9b 3b 64
        E 0 9f 2b 5a
        E 0 82 48 64
        E 0 92 45 64
        E 0 82 47 64
        E 0 8b 3b 64
        E 0 9b 3c 64
        E 0 92 43 64
        E 0 82 45 64
        E 0 83 37 64
        E 0 8b 3c 64
        E 0 8f 2b 64
        E 0 92 45 64
        E 0 93 42 5a
        E 0 9b 3e 64
        E 0 9f 36 5a
        E 0 82 43 64
        E 0 92 48 64
        E 0 82 45 64
        E 0 92 47 64
        E 0 82 48 64
        E 0 83 42 64
        E 0 8b 3e 64
        E 0 8f 36 64
        E 0 92 45 64
        E 0 93 3e 5a
        E 0 9b 3c 64
        E 0 9f 32 5a
        E 0 82 47 64
        E 0 92 43 64
        E 0 82 45 64
        E 0 92 42 64
        E 0 82 43 64
        E 0 83 3e 64
        E 0 8b 3c 64
        E 0 8f 32 64
        E 0 92 47 64
        E 1 93 43 5a
        E 0 9b 3b 64
        E 0 9f 37 5a
        E 0 82 42 64
        E 0 92 4a 64
        E 0 82 47 64
        E 0 92 48 64
        E 0 82 4a 64
        E 0 83 43 64
        E 0 8b 3b 64
        E 0 8f 37 64
        E 0 92 47 64
        E 0 93 37 5a
        E 0 9b 39 64
        E 0 9f 2b 5a
        E 0 82 48 64
        E 0 92 45 64
        E 0 82 47 64
        E 0 8b 39 64
        E 0 9b 37 64
        E 0 92 43 64
        E 0 82 45 64
        E 0 83 37 64
        E 0 8b 37 64
        E 0 8f 2b 64
        E 0 92 45 64
        E 0 93 3c 5a
        E 0 9b 39 64
        E 0 9f 30 5a
        E 0 82 43 64
        E 0 92 48 64
        E 0 82 45 64
        E 0 92 47 64
        E 0 82 48 64
        E 0 83 3c 64
        E 0 8b 39 64
        E 0 8f 30 64
        E 0 92 45 64
        E 1 93 3e 5a
        E 0 9b 37 64
        E 0 9f 32 5a
        E 0 82 47 64
        E 0 92 43 64
        E 0 82 45 64
        E 0 8b 37 64
        E 0 9b 36 64
        E 0 92 42 64
        E 0 82 43 64
        E 0 83 3e 64
        E 0 8b 36 64
        E 0 8f 32 64
        E 0 92 43 64
        E 0 93 37 5a
        E 0 9b 37 64
        E 0 9f 2b 5a
        E 0 82 42 64
        E 0 92 42 64
        E 0 82 43 64
        E 0 92 43 64
        E 0 82 42 64
        E 0 83 37 64
        E 0 8f 2b 64
        E 0 92 47 64
        E 0 93 43 5a
        E 0 9f 37 5a
        E 0 82 43 64
        E 99 92 45 64
        E 161 82 47 64
        E 158 92 47 64
        E 162 82 45 64
        E 160 83 43 64
        E 0 8b 37 64
        E 0 8f 37 64
        E 1 92 51 64
        E 0 93 42 5a
        E 0 9b 3c 64
        E 0 9f 36 5a
        E 158 82 47 64
        E 161 92 4f 64
        E 162 82 51 64
        E 155 92 51 64
        E 162 82 4f 64
        E 162 83 42 64
        E 0 8f 36 64
        E 0 92 48 64
        E 0 93 3e 5a
        E 0 9f 32 5a
        E 156 82 51 64
        E 162 92 47 64
        E 162 82 48 64
        E 158 92 45 64
        E 1423 82 47 64
        E 0 83 3e 64
        E 0 8b 3c 64
        E 0 8f 32 64
        E 0 92 47 64
        E 0 93 43 5a
        E 0 9b 3b 64
        E 1 9f 37 5a
        E 0 82 45 64
        E 0 92 4a 64
        E 0 82 47 64
        E 0 92 48 64
        E 0 82 4a 64
        E 0 83 43 64
        E 0 8b 3b 64
        E 0 8f 37 64
        E 0 92 47 64
        E 0 93 37 5a
        E 0 9b 39 64
        E 0 9f 2b 5a
        E 13 82 48 64
        E 162 92 45 64
        E 162 82 47 64
        E 0 8b 39 64
        E 0 9b 37 64
        E 156 92 43 64
        E 162 82 45 64
        E 38495 83 37 64
        E 0 8b 37 64
        E 0 8f 2b 64
        E 0 92 45 64
        E 0 93 3c 5a
        E 0 9b 39 64
        E 0 9f 30 5a
        E 0 82 43 64
        E 0 92 48 64
        E 0 82 45 64
        E 0 92 47 64
        E 0 82 48 64
        E 0 83 3c 64
        E 0 8b 39 64
        E 0 8f 30 64
        E 0 92 45 64
        E 0 93 3e 5a
        E 0 9b 37 64
        E 0 9f 32 5a
        E 0 82 47 64
        E 0 92 43 64
        E 0 82 45 64
        E 0 8b 37 64
        E 0 9b 36 64
        E 0 92 42 64
        E 0 82 43 64
        E 0 83 3e 64
        E 0 8b 36 64
        E 0 8f 32 64
        E 0 92 43 64
        E 0 93 37 5a
        E 0 9b 37 64
        E 0 9f 2b 5a
        E 0 82 42 64
        E 0 92 42 64
        E 0 82 43 64
        E 0 92 43 64
        E 0 82 42 64
        E 0 83 37 64
        E 0 8f 2b 64
        E 0 92 47 64
        E 0 93 43 5a
        E 0 9f 37 5a
        E 0 82 43 64
        E 0 92 45 64
        E 0 82 47 64
        E 0 92 47 64
        E 0 82 45 64
        E 0 83 43 64
        E 0 8b 37 64
        E 0 8f 37 64
        E 1 92 4a 64
        E 0 93 43 5a
        E 0 9f 37 5a
        E 0 82 47 64
        E 0 92 48 64
        E 0 82 4a 64
        E 0 83 43 64
        E 0 8f 37 64
        E 0 93 45 5a
        E 0 9f 39 5a
        E 0 92 4a 64
        E 0 82 48 64
        E 0 83 45 64
        E 0 8f 39 64
        E 0 92 4f 64
        E 0 93 47 5a
        E 0 9f 3b 5a
        E 0 82 4a 64
        E 0 92 4e 64
        E 0 82 4f 64
        E 0 83 47 64
        E 0 8f 3b 64
        E 0 93 43 5a
        E 0 9f 37 5a
        E 0 92 4f 64
        E 0 82 4e 64
        E 0 83 43 64
        E 0 8f 37 64
        E 0 92 51 64
        E 0 93 4a 5a
        E 0 9f 3e 5a
        E 0 82 4f 64
        E 0 92 4f 64
        E 0 82 51 64
        E 0 92 51 64
        E 0 82 4f 64
        E 0 83 4a 64
        E 0 8f 3e 64
        E 0 92 4a 64
        E 0 93 3e 5a
        E 0 9f 32 5a
        E 0 82 51 64
        E 0 92 48 64
        E 0 82 4a 64
        E 0 92 4a 64
        E 0 82 48 64
        E 0 83 3e 64
        E 0 8f 32 64
        E 0 92 51 64
        E 0 93 3e 5a
        E 0 9f 32 5a
        E 0 82 4a 64
        E 0 92 4f 64
        E 0 82 51 64
        E 0 92 51 64
        E 0 82 4f 64
        E 0 83 3e 64
        E 0 8f 32 64
        E 0 92 4a 64
        E 0 93 3e 5a
        E 0 9f 32 5a
        E 0 82 51 64
        E 0 92 48 64
        E 0 82 4a 64
        E 0 92 4a 64
        E 0 82 48 64
        E 0 83 3e 64
        E 0 8f 32 64
        E 0 92 51 64
        E 0 93 4a 5a
        E 0 9f 3e 5a
        E 0 82 4a 64
        E 0 92 4f 64
        E 0 82 51 64
        E 0 92 51 64
        E 0 82 4f 64
        E 0 83 4a 64
        E 0 8f 3e 64
        E 0 92 48 64
        E 0 93 3e 5a
        E 0 9f 32 5a
        E 0 82 51 64
        E 0 92 47 64
        E 0 82 48 64
        E 0 92 48 64
        E 0 82 47 64
        E 0 83 3e 64
        E 1 8f 32 64
        E 0 92 51 64
        E 0 93 3e 5a
        E 0 9f 32 5a
        E 0 82 48 64
        E 0 92 4f 64
        E 0 82 51 64
        E 0 92 51 64
        E 0 82 4f 64
        E 0 83 3e 64
        E 0 8f 32 64
        E 0 92 48 64
        E 0 93 40 5a
        E 0 9f 34 5a
        E 0 82 51 64
        E 0 92 46 66
        E 0 82 48 64
        E 0 83 40 64
        E 0 8f 34 64
        E 0 93 42 5a
        E 0 9f 36 5a
        E 0 92 45 64
        E 0 82 46 66
        E 0 83 42 64
        E 0 8f 36 64
        E 0 92 46 66
        E 0 93 43 5a
        E 0 9f 37 5a
        E 0 82 45 64
        E 0 92 45 64
        E 0 82 46 66
        E 0 92 46 66
        E 0 82 45 64
        E 0 83 43 64
        E 0 8f 37 64
        E 0 92 48 64
        E 0 93 3e 5a
        E 0 9f 32 5a
        E 0 82 46 66
        E 0 92 46 66
        E 0 82 48 64
        E 0 92 45 64
        E 0 82 46 66
        E 0 83 3e 64
        E 0 8f 32 64
        E 0 92 46 66
        E 0 93 43 5a
        E 0 9f 37 5a
        E 0 82 45 64
        E 0 92 45 64
        E 0 82 46 66
        E 0 92 46 66
        E 0 82 45 64
        E 0 83 43 64
        E 0 8f 37 64
        E 0 92 48 64
        E 0 93 3e 5a
        E 0 9f 32 5a
        E 0 82 46 66
        E 0 92 46 66
        E 0 82 48 64
        E 0 92 45 64
        E 0 82 46 66
        E 0 83 3e 64
        E 0 8f 32 64
        E 0 92 4f 64
        E 0 93 43 5a
        E 0 9f 37 5a
        E 0 82 45 64
        E 0 92 4e 64
        E 0 82 4f 64
        E 0 92 4f 64
        E 0 82 4e 64
        E 0 83 43 64
        E 0 8f 37 64
        E 0 92 51 64
        E 0 93 3e 5a
        E 0 9f 32 5a
        E 0 82 4f 64
        E 0 92 4f 64
        E 0 82 51 64
        E 0 92 4e 64
        E 0 82 4f 64
        E 0 83 3e 64
        E 0 8f 32 64
        E 0 92 4f 64
        E 0 93 43 5a
        E 0 9f 37 5a
        E 0 82 4e 64
        E 0 92 4e 64
        E 0 82 4f 64
        E 0 92 4f 64
        E 0 82 4e 64
        E 1 83 43 64
        E 0 8f 37 64
        E 0 92 51 64
        E 0 93 3e 5a
        E 0 9f 32 5a
        E 0 82 4f 64
        E 0 92 4f 64
        E 0 82 51 64
        E 0 92 4e 64
        E 0 82 4f 64
        E 0 83 3e 64
        E 0 8f 32 64
        E 0 92 4f 64
        E 0 93 43 5a
        E 0 9f 37 5a
        E 0 82 4e 64
        E 0 92 4e 64
        E 0 82 4f 64
        E 0 92 4f 64
        E 0 82 4e 64
        E 0 83 43 64
        E 0 8f 37 64
        E 0 92 51 64
        E 0 93 3e 5a
        E 0 9f 32 5a
        E 0 82 4f 64
        E 0 92 4f 64
        E 0 82 51 64
        E 0 92 4e 64
        E 0 82 4f 64
        E 0 83 3e 64
        E 0 8f 32 64
        E 0 92 4f 64
        E 0 93 43 5a
        E 0 9f 37 5a
        E 0 82 4e 64
        E 0 92 4e 64
        E 0 82 4f 64
        E 0 92 4f 64
        E 0 82 4e 64
        E 0 83 43 64
        E 0 8f 37 64
        E 0 92 51 64
        E 0 93 3e 5a
        E 0 9f 32 5a
        E 0 82 4f 64
        E 0 92 4f 64
        E 0 82 51 64
        E 0 92 4e 64
        E 0 82 4f 64
        E 0 83 3e 64
        E 0 8f 32 64
        E 0 92 4f 64
        E 1 93 43 5a
        E 0 9f 37 5a
        E 0 82 4e 64
        E 0 92 4e 64
        E 0 82 4f 64
        E 0 92 4c 64
        E 0 82 4e 64
        E 0 83 43 64
        E 0 8f 37 64
        E 0 92 4a 64
        E 0 93 37 5a
        E 0 9f 2b 5a
        E 0 82 4c 64
        E 0 92 48 64
        E 0 82 4a 64
        E 0 92 47 64
        E 0 82 48 64
        E 0 83 37 64
        E 0 8f 2b 64
        E 0 92 4c 64
        E 0 93 3c 5a
        E 0 9f 30 5a
        E 0 82 47 64
        E 0 92 4a 64
        E 0 82 4c 64
        E 0 92 48 64
        E 0 82 4a 64
        E 0 83 3c 64
        E 0 8f 30 64
        E 0 92 47 64
        E 0 93 43 5a
        E 1 9f 37 5a
        E 0 82 48 64
        E 0 92 45 64
        E 0 82 47 64
        E 0 92 43 64
        E 0 82 45 64
        E 0 83 43 64
        E 0 8f 37 64
        E 0 92 4f 64
        E 0 93 43 5a
        E 0 9f 37 5a
        E 0 82 43 64
        E 0 92 4a 64
        E 0 82 4f 64
        E 0 92 48 64
        E 0 82 4a 64
        E 0 83 43 64
        E 0 8f 37 64
        E 0 92 47 64
        E 0 93 37 5a
        E 0 9f 2b 5a
        E 0 82 48 64
        E 0 92 45 64
        E 0 82 47 64
        E 0 92 43 64
        E 0 82 45 64
        E 0 83 37 64
        E 0 8f 2b 64
        E 0 92 45 64
        E 0 93 3c 5a
        E 0 9f 30 5a
        E 0 82 43 64
        E 0 92 48 64
        E 0 82 45 64
        E 0 92 47 64
        E 0 82 48 64
        E 0 83 3c 64
        E 0 8f 30 64
        E 0 92 45 64
        E 0 93 3e 5a
        E 0 9f 32 5a
        E 0 82 47 64
        E 0 92 43 64
        E 0 82 45 64
        E 0 92 42 64
        E 0 82 43 64
        E 0 83 3e 64
        E 0 8f 32 64
        E 0 92 43 64
        E 0 93 43 5a
        E 0 9f 37 5a
        E 0 82 42 64
        E 0 92 3e 64
        E 0 82 43 64
        E 0 92 3b 64
        E 0 82 3e 64
        E 1 83 43 64
        E 0 8f 37 64
        E 0 92 37 64
        E 0 93 37 5a
        E 0 9f 2b 5a
        E 0 82 3b 64
        E 0 83 37 64
        E 0 8f 2b 64
        E 0 82 37 64
        E 38403 92 47 64
        E 0 93 40 5a
        E 0 9b 3b 64
        E 0 9f 34 5a
        E 0 82 47 64
        E 0 83 40 64
        E 0 8b 3b 64
        E 0 8f 34 64
        E 0 92 47 64
        E 0 93 40 5a
        E 0 9b 3b 64
        E 0 9f 34 5a
        E 0 82 47 64
        E 0 92 47 64
        E 0 83 40 64
        E 0 8b 3b 64
        E 0 8f 34 64
        E 0 93 40 5a
        E 0 9b 3b 64
        E 0 9f 34 5a
        E 0 82 47 64
        E 0 92 47 64
        E 0 83 40 64
        E 0 8b 3b 64
        E 0 8f 34 64
        E 0 93 40 5a
        E 0 9b 3b 64
        E 0 9f 34 5a
        E 0 82 47 64
        E 0 92 47 64
        E 0 83 40 64
        E 0 8b 3b 64
        E 0 8f 34 64
        E 0 93 43 5a
        E 0 9b 3b 64
        E 0 9f 34 5a
        E 0 82 47 64
        E 0 92 47 64
        E 0 82 47 64
        E 0 83 43 64
        E 0 8b 3b 64
        E 0 8f 34 64
        E 0 92 48 64
        E 0 93 42 5a
        E 0 9b 3c 64
        E 0 9f 33 5a
        E 0 82 48 64
        E 0 8b 3c 64
        E 0 92 48 64
        E 0 9b 3b 64
        E 1 83 42 64
        E 0 8b 3b 64
        E 0 8f 33 64
        E 0 93 42 5a
        E 0 9b 39 64
        E 0 9f 33 5a
        E 0 82 48 64
        E 0 92 48 64
        E 0 83 42 64
        E 0 8b 39 64
        E 0 8f 33 64
        E 0 93 42 5a
        E 0 9b 39 64
        E 0 9f 33 5a
        E 0 82 48 64
        E 0 92 48 64
        E 0 83 42 64
        E 0 8f 33 64
        E 0 93 42 5a
        E 0 9f 33 5a
        E 0 82 48 64
        E 0 92 48 64
        E 0 82 48 64
        E 0 83 42 64
        E 0 8b 39 64
        E 0 8f 33 64
        E 1 92 48 64
        E 0 93 42 5a
        E 0 9b 39 64
        E 0 9f 33 5a
        E 0 82 48 64
        E 0 92 48 64
        E 0 83 42 64
        E 0 8b 39 64
        E 0 8f 33 64
        E 0 93 42 5a
        E 0 9b 3b 64
        E 0 9f 33 5a
        E 0 82 48 64
        E 0 8b 3b 64
        E 0 92 48 64
        E 0 9b 3c 64
        E 0 83 42 64
        E 0 8b 3c 64
        E 0 8f 33 64
        E 0 93 42 5a
        E 0 9b 3b 64
        E 0 9f 33 5a
        E 0 82 48 64
        E 0 92 47 64
        E 0 83 42 64
        E 0 8b 3b 64
        E 0 8f 33 64
        E 0 93 3f 5a
        E 0 9b 39 64
        E 0 9f 33 5a
        E 0 82 47 64
        E 0 92 45 64
        E 0 82 45 64
        E 0 83 3f 64
        E 0 8b 39 64
        E 0 8f 33 64
        E 0 92 43 64
        E 0 93 3b 5a
        E 0 9b 37 64
        E 0 9f 34 5a
        E 0 82 43 64
        E 0 8b 37 64
        E 0 92 47 64
        E 0 9b 36 64
        E 0 83 3b 64
        E 0 8b 36 64
        E 0 8f 34 64
        E 0 93 3b 5a
        E 0 9b 34 64
        E 1 9f 34 5a
        E 0 82 47 64
        E 0 92 47 64
        E 0 83 3b 64
        E 0 8b 34 64
        E 0 8f 34 64
        E 0 93 3b 5a
        E 0 9f 34 5a
        E 0 82 47 64
        E 0 92 47 64
        E 0 83 3b 64
        E 0 8f 34 64
        E 0 93 3b 5a
        E 0 9b 3b 64
        E 0 9f 34 5a
        E 0 82 47 64
        E 0 92 47 64
        E 0 82 47 64
        E 0 83 3b 64
        E 0 8b 3b 64
        E 0 8f 34 64
        E 0 92 47 64
        E 0 93 40 5a
        E 0 9b 38 64
        E 0 9f 34 5a
        E 0 82 47 64
        E 0 92 47 64
        E 0 83 40 64
        E 0 8b 38 64
        E 0 8f 34 64
        E 0 93 40 5a
        E 0 9b 34 64
        E 0 9f 34 5a
        E 0 82 47 64
        E 0 92 47 64
        E 0 83 40 64
        E 0 8b 34 64
        E 0 8f 34 64
        E 0 93 40 5a
        E 0 9b 34 64
        E 0 9f 34 5a
        E 0 82 47 64
        E 0 92 47 64
        E 0 83 40 64
        E 0 8b 34 64
        E 0 8f 34 64
        E 0 93 40 5a
        E 0 9b 3b 64
        E 0 9f 34 5a
        E 0 82 47 64
        E 0 92 47 64
        E 0 82 47 64
        E 0 83 40 64
        E 0 8b 3b 64
        E 0 8f 34 64
        E 0 92 48 64
        E 1 93 40 5a
        E 0 9b 3c 64
        E 0 9f 2d 5a
        E 0 82 48 64
        E 0 8b 3c 64
        E 0 92 48 64
        E 0 9b 39 64
        E 0 83 40 64
        E 0 8f 2d 64
        E 0 93 40 5a
        E 0 9f 2d 5a
        E 0 82 48 64
        E 0 8b 39 64
        E 0 92 48 64
        E 0 9b 39 64
        E 0 83 40 64
        E 0 8f 2d 64
        E 0 93 40 5a
        E 0 9f 2d 5a
        E 0 82 48 64
        E 0 8b 39 64
        E 0 92 48 64
        E 0 9b 39 64
        E 0 83 40 64
        E 0 8f 2d 64
        E 0 93 40 5a
        E 0 9f 2d 5a
        E 0 82 48 64
        E 0 8b 39 64
        E 0 92 48 64
        E 0 9b 37 64
        E 0 82 48 64
        E 0 83 40 64
        E 0 8b 37 64
        E 0 8f 2d 64
        E 0 92 45 64
        E 0 93 3e 5a
        E 0 9b 35 64
        E 0 9f 32 5a
        E 0 82 45 64
        E 0 8b 35 64
        E 0 92 45 64
        E 0 9b 35 64
        E 0 83 3e 64
        E 0 8f 32 64
        E 0 93 3e 5a
        E 0 9f 32 5a
        E 0 82 45 64
        E 0 8b 35 64
        E 0 92 45 64
        E 0 9b 35 64
        E 0 83 3e 64
        E 0 8f 32 64
        E 0 93 3e 5a
        E 0 9f 32 5a
        E 0 82 45 64
        E 0 8b 35 64
        E 0 92 45 64
        E 0 9b 35 64
        E 0 83 3e 64
        E 0 8f 32 64
        E 0 93 3e 5a
        E 0 9f 32 5a
        E 0 82 45 64
        E 0 8b 35 64
        E 0 92 4a 64
        E 0 9b 3e 64
        E 0 82 4a 64
        E 0 83 3e 64
        E 0 8b 3e 64
        E 0 8f 32 64
        E 0 92 47 64
        E 0 93 3e 5a
        E 0 9b 38 64
        E 0 9f 34 5a
        E 0 82 47 64
        E 0 92 47 64
        E 0 83 3e 64
        E 0 8b 38 64
        E 0 8f 34 64
        E 0 93 3e 5a
        E 0 9b 34 64
        E 0 9f 34 5a
        E 0 82 47 64
        E 0 92 47 64
        E 0 83 3e 64
        E 0 8b 34 64
        E 0 8f 34 64
        E 1 93 3e 5a
        E 0 9f 34 5a
        E 0 82 47 64
        E 0 92 47 64
        E 0 83 3e 64
        E 0 8f 34 64
        E 0 93 3e 5a
        E 0 9b 3b 64
        E 0 9f 34 5a
        E 0 82 47 64
        E 0 92 47 64
        E 0 82 47 64
        E 0 83 3e 64
        E 0 8b 3b 64
        E 0 8f 34 64
        E 0 92 48 64
        E 0 93 40 5a
        E 0 9b 3c 64
        E 0 9f 39 5a
        E 0 82 48 64
        E 0 8b 3c 64
        E 0 92 4a 64
        E 0 9b 3b 64
        E 0 83 40 64
        E 0 8f 39 64
        E 0 93 40 5a
        E 0 9f 2d 5a
        E 0 82 4a 64
        E 0 8b 3b 64
        E 0 92 48 64
        E 0 9b 39 64
        E 0 82 48 64
        E 0 83 40 64
        E 0 8b 39 64
        E 0 8f 2d 64
        E 0 92 4a 64
        E 0 93 40 5a
        E 0 9b 3b 64
        E 0 9f 32 5a
        E 0 82 4a 64
        E 0 8b 3b 64
        E 0 92 48 64
        E 0 9b 39 64
        E 0 83 40 64
        E 0 8f 32 64
        E 0 93 40 5a
        E 0 9f 34 5a
        E 0 82 48 64
        E 0 8b 39 64
        E 0 92 47 64
        E 0 9b 38 64
        E 0 82 47 64
        E 0 83 40 64
        E 0 8b 38 64
        E 0 8f 34 64
        E 0 92 48 64
        E 0 93 40 5a
        E 0 9b 39 64
        E 0 9b 3b 64
        E 0 9f 2d 5a
        E 0 82 48 64
        E 0 8b 39 64
        E 0 92 48 64
        E 0 83 40 64
        E 0 8f 2d 64
        E 0 93 40 5a
        E 0 9f 2d 5a
        E 38403 82 48 64
        E 0 92 48 64
        E 0 83 40 64
        E 0 8b 3b 64
        E 0 8f 2d 64
        E 0 93 40 5a
        E 0 9f 2d 5a
        E 0 82 48 64
        E 0 92 48 64
        E 0 83 40 64
        E 0 8f 2d 64
        E 0 93 40 5a
        E 0 9b 3c 64
        E 0 9f 2d 5a
        E 0 82 48 64
        E 0 92 51 64
        E 0 82 51 64
        E 0 83 40 64
        E 0 8b 3c 64
        E 0 8f 2d 64
        E 0 92 4e 64
        E 0 93 47 5a
        E 0 9b 33 64
        E 0 9f 2f 5a
        E 0 82 4e 64
        E 0 92 4e 64
        E 0 83 47 64
        E 0 8b 33 64
        E 0 8f 2f 64
        E 1 93 47 5a
        E 0 9b 3c 64
        E 0 9f 2f 5a
        E 0 82 4e 64
        E 0 92 4e 64
        E 0 83 47 64
        E 0 8b 3c 64
        E 0 8f 2f 64
        E 0 93 47 5a
        E 0 9b 3b 64
        E 0 9f 2f 5a
        E 0 82 4e 64
        E 0 8b 3b 64
        E 0 92 4e 64
        E 0 9b 39 64
        E 0 83 47 64
        E 0 8b 39 64
        E 0 8f 2f 64
        E 0 93 47 5a
        E 0 9b 37 64
        E 0 9f 2f 5a
        E 0 82 4e 64
        E 0 8b 37 64
        E 0 92 4e 64
        E 0 9b 36 64
        E 0 82 4e 64
        E 0 83 47 64
        E 0 8b 36 64
        E 0 8f 2f 64
        E 0 92 4f 64
        E 0 93 47 5a
        E 0 9b 37 64
        E 0 9f 34 5a
        E 0 82 4f 64
        E 0 8b 37 64
        E 0 92 4f 64
        E 0 9b 34 64
        E 0 83 47 64
        E 0 8f 34 64
        E 0 93 47 5a
        E 0 9f 34 5a
        E 0 82 4f 64
        E 0 8b 34 64
        E 0 92 4f 64
        E 0 9b 34 64
        E 0 83 47 64
        E 0 8f 34 64
        E 0 93 47 5a
        E 0 9f 34 5a
        E 0 82 4f 64
        E 0 8b 34 64
        E 0 92 4f 64
        E 0 9b 37 64
        E 0 83 47 64
        E 0 8f 34 64
        E 0 93 47 5a
        E 0 9f 34 5a
        E 1 82 4f 64
        E 0 8b 37 64
        E 0 92 4f 64
        E 0 9b 3b 64
        E 0 82 4f 64
        E 0 83 47 64
        E 0 8b 3b 64
        E 0 8f 34 64
        E 0 92 4c 64
        E 0 93 45 5a
        E 0 9b 3c 64
        E 0 9f 2d 5a
        E 0 82 4c 64
        E 0 8b 3c 64
        E 0 92 4c 64
        E 0 9b 39 64
        E 0 83 45 64
        E 0 8f 2d 64
        E 0 93 45 5a
        E 0 9f 2d 5a
        E 0 82 4c 64
        E 0 8b 39 64
        E 0 92 4c 64
        E 0 9b 39 64
        E 0 83 45 64
        E 0 8f 2d 64
        E 0 93 45 5a
        E 0 9f 2d 5a
        E 0 82 4c 64
        E 0 8b 39 64
        E 0 92 4c 64
        E 0 9b 39 64
        E 0 83 45 64
        E 0 8f 2d 64
        E 0 93 45 5a
        E 0 9f 2d 5a
        E 0 82 4c 64
        E 0 8b 39 64
        E 0 92 4c 64
        E 0 9b 3c 64
        E 0 82 4c 64
        E 0 83 45 64
        E 0 8b 3c 64
        E 0 8f 2d 64
        E 0 92 4b 64
        E 0 93 45 5a
        E 0 9b 33 64
        E 0 9f 2f 5a
        E 0 82 4b 64
        E 0 92 4b 64
        E 0 83 45 64
        E 0 8b 33 64
        E 0 8f 2f 64
        E 0 93 45 5a
        E 0 9b 3c 64
        E 0 9f 2f 5a
        E 0 82 4b 64
        E 0 92 4b 64
        E 0 83 45 64
        E 0 8b 3c 64
        E 0 8f 2f 64
        E 0 93 45 5a
        E 0 9b 3b 64
        E 0 9f 2f 5a
        E 0 82 4b 64
        E 0 92 4b 64
        E 0 83 45 64
        E 0 8b 3b 64
        E 0 8f 2f 64
        E 0 93 45 5a
        E 0 9b 39 64
        E 0 9f 2f 5a
        E 0 82 4b 64
        E 0 92 4b 64
        E 0 82 4b 64
        E 0 83 45 64
        E 0 8b 39 64
        E 0 8f 2f 64
        E 0 92 4c 64
        E 0 93 47 5a
        E 0 9b 37 64
        E 0 9f 34 5a
        E 0 8b 37 64
        E 0 8f 34 64
        E 1 9b 36 64
        E 0 9f 34 5a
        E 0 8b 36 64
        E 0 9b 34 64
        E 0 82 4c 64
        E 0 83 47 64
        E 0 8b 34 64
        E 0 8f 34 64
        E 0 92 4b 64
        E 0 93 47 5a
        E 0 9b 3b 64
        E 0 9f 3b 5a
        E 0 8b 3b 64
        E 0 8f 3b 64
        E 0 9b 2f 64
        E 0 9f 2f 5a
        E 0 82 4b 64
        E 0 83 47 64
        E 0 8b 2f 64
        E 0 8f 2f 64
        E 0 92 4c 64
        E 0 93 43 5a
        E 0 9b 34 64
        E 0 9f 28 5a
        E 0 82 4c 64
        E 0 83 43 64
        E 0 8b 34 64
        E 0 8f 28 64
        E 0 97 43 64
        E 0 9e 43 64
        E 0 9f 30 5a
        E 0 87 43 64
        E 0 8e 43 64
        E 0 97 43 64
        E 0 9e 43 64
        E 0 87 43 64
        E 0 8e 43 64
        E 0 97 48 64
        E 0 9e 48 64
        E 0 87 48 64
        E 0 8e 48 64
        E 0 97 48 64
        E 0 9e 48 64
        E 0 87 48 64
        E 0 8e 48 64
        E 0 97 4a 64
        E 0 9e 4a 64
        E 0 87 4a 64
        E 0 8e 4a 64
        E 0 97 4c 64
        E 0 9e 4c 64
        E 0 87 4c 64
        E 0 8e 4c 64
        E 0 97 4c 64
        E 0 9e 4c 64
        E 0 87 4c 64
        E 0 8e 4c 64
        E 0 97 48 64
        E 0 9e 48 64
        E 0 87 48 64
        E 0 8e 48 64
        E 0 97 48 64
        E 0 9e 48 64
        E 0 87 48 64
        E 0 8e 48 64
        E 0 8f 30 64
        E 0 97 45 64
        E 0 9e 45 64
        E 0 9f 35 5a
        E 0 87 45 64
        E 0 8e 45 64
        E 0 97 4a 64
        E 0 9e 4a 64
        E 0 87 4a 64
        E 0 8e 4a 64
        E 0 97 45 64
        E 0 9e 45 64
        E 0 87 45 64
        E 0 8e 45 64
        E 0 8f 35 64
        E 0 97 47 64
        E 0 9e 47 64
        E 0 9f 34 5a
        E 0 87 47 64
        E 0 8e 47 64
        E 0 97 47 64
        E 0 9e 47 64
        E 0 87 47 64
        E 0 8e 47 64
        E 1 97 40 64
        E 0 9e 40 64
        E 0 87 40 64
        E 0 8e 40 64
        E 0 97 47 64
        E 0 9e 47 64
        E 0 87 47 64
        E 0 8e 47 64
        E 0 97 48 64
        E 0 9e 48 64
        E 0 87 48 64
        E 0 8e 48 64
        E 0 8f 34 64
        E 0 97 45 64
        E 0 9e 45 64
        E 0 9f 35 5a
        E 0 87 45 64
        E 0 8e 45 64
        E 0 97 45 64
        E 0 9e 45 64
        E 0 87 45 64
        E 0 8e 45 64
        E 0 97 41 64
        E 0 9e 41 64
        E 0 87 41 64
        E 0 8e 41 64
        E 0 97 47 64
        E 0 9e 47 64
        E 0 87 47 64
        E 0 8e 47 64
        E 0 97 47 64
        E 0 9e 47 64
        E 0 87 47 64
        E 0 8e 47 64
        E 0 97 47 64
        E 0 9e 47 64
        E 38403 87 47 64
        E 0 8e 47 64
        E 0 97 48 64
        E 0 9e 48 64
        E 0 87 48 64
        E 0 8e 48 64
        E 0 8f 35 64
        E 0 97 43 64
        E 0 9e 43 64
        E 0 9f 37 5a
        E 0 87 43 64
        E 0 8e 43 64
        E 0 8f 37 64
        E 0 9f 30 5a
        E 0 97 46 66
        E 0 9e 46 66
        E 0 87 46 66
        E 0 8e 46 66
        E 0 97 46 66
        E 0 9e 46 66
        E 0 87 46 66
        E 0 8e 46 66
        E 0 97 45 64
        E 0 9e 45 64
        E 0 87 45 64
        E 0 8e 45 64
        E 0 8f 30 64
        E 0 97 45 64
        E 0 9e 45 64
        E 0 9f 35 5a
        E 0 87 45 64
        E 0 8e 45 64
        E 0 97 45 64
        E 0 9e 45 64
        E 0 87 45 64
        E 0 8e 45 64
        E 0 8f 35 64
        E 0 97 48 64
        E 0 9e 48 64
        E 0 9f 35 5a
        E 0 87 48 64
        E 0 8e 48 64
        E 0 97 4a 64
        E 0 9e 4a 64
        E 0 87 4a 64
        E 0 8e 4a 64
        E 0 97 4b 66
        E 1 9e 4b 66
        E 0 87 4b 66
        E 0 8e 4b 66
        E 0 97 4b 66
        E 0 9e 4b 66
        E 0 87 4b 66
        E 0 8e 4b 66
        E 0 97 4a 64
        E 0 9e 4a 64
        E 0 87 4a 64
        E 0 8e 4a 64
        E 0 8f 35 64
        E 0 97 46 66
        E 0 9e 46 66
        E 0 9f 2e 5b
        E 0 87 46 66
        E 0 8e 46 66
        E 0 97 46 66
        E 0 9e 46 66
        E 0 87 46 66
        E 0 8e 46 66
        E 0 96 41 64
        E 0 9e 41 64
        E 0 86 41 64
        E 0 8e 41 64
        E 0 96 41 64
        E 0 9e 41 64
        E 0 86 41 64
        E 0 8e 41 64
        E 0 96 41 64
        E 0 9e 41 64
        E 0 86 41 64
        E 0 8e 41 64
        E 0 8f 2e 66
        E 0 96 46 66
        E 0 9e 46 66
        E 0 9f 2e 5b
        E 0 86 46 66
        E 0 8e 46 66
        E 0 96 46 66
        E 0 9e 46 66
        E 0 86 46 66
        E 0 8e 46 66
        E 0 8f 2e 66
        E 0 97 43 64
        E 0 9e 43 64
        E 0 9f 2e 5b
        E 0 87 43 64
        E 0 8e 43 64
        E 0 8f 2e 66
        E 0 97 46 66
        E 0 9e 46 66
        E 0 9f 2e 5b
        E 0 87 46 66
        E 0 8e 46 66
        E 0 97 46 66
        E 0 9e 46 66
        E 1 87 46 66
        E 0 8e 46 66
        E 0 97 48 64
        E 0 9e 48 64
        E 0 87 48 64
        E 0 8e 48 64
        E 0 97 4a 64
        E 0 9e 4a 64
        E 0 87 4a 64
        E 0 8e 4a 64
        E 0 8f 2e 66
        E 0 97 45 64
        E 0 9e 45 64
        E 0 9f 2d 5a
        E 0 87 45 64
        E 0 8e 45 64
        E 0 8f 2d 64
        E 0 9f 32 5a
        E 0 8f 32 64
        E 0 97 4a 64
        E 0 9e 4a 64
        E 0 9f 32 5a
        E 0 87 4a 64
        E 0 8e 4a 64
        E 0 97 4a 64
        E 0 9e 4a 64
        E 0 87 4a 64
        E 0 8e 4a 64
        E 0 97 4a 64
        E 0 9e 4a 64
        E 0 87 4a 64
        E 0 8e 4a 64
        E 0 8f 32 64
        E 0 97 47 64
        E 0 9e 47 64
        E 0 9f 2c 5a
        E 0 87 47 64
        E 0 8e 47 64
        E 0 97 47 64
        E 0 9e 47 64
        E 0 87 47 64
        E 0 8e 47 64
        E 0 97 40 64
        E 0 9e 40 64
        E 0 87 40 64
        E 0 8e 40 64
        E 0 8f 2c 64
        E 0 97 47 64
        E 0 9e 47 64
        E 0 9f 2c 5a
        E 0 87 47 64
        E 0 8e 47 64
        E 0 97 47 64
        E 0 9e 47 64
        E 0 87 47 64
        E 0 8e 47 64
        E 1 97 47 64
        E 0 9e 47 64
        E 0 87 47 64
        E 0 8e 47 64
        E 0 97 48 64
        E 0 9e 48 64
        E 0 87 48 64
        E 0 8e 48 64
        E 0 8f 2c 64
        E 0 97 45 64
        E 0 9e 45 64
        E 0 9f 2d 5a
        E 0 87 45 64
        E 0 8e 45 64
        E 0 97 45 64
        E 0 9e 45 64
        E 0 87 45 64
        E 0 8e 45 64
        E 0 96 40 64
        E 0 9e 40 64
        E 0 86 40 64
        E 0 8e 40 64
        E 0 96 40 64
        E 0 9e 40 64
        E 0 86 40 64
        E 0 8e 40 64
        E 0 96 40 64
        E 0 9e 40 64
        E 0 86 40 64
        E 0 8e 40 64
        E 0 8f 2d 64
        E 0 96 45 64
        E 0 9e 45 64
        E 0 9f 2d 5a
        E 0 86 45 64
        E 0 8e 45 64
        E 0 96 45 64
        E 0 9e 45 64
        E 0 86 45 64
        E 0 8e 45 64
        E 0 96 45 64
        E 0 9e 45 64
        E 0 86 45 64
        E 0 8e 45 64
        E 0 96 45 64
        E 1 9e 45 64
        E 0 86 45 64
        E 0 8e 45 64
        E 0 96 44 64
        E 0 9e 44 64
        E 0 86 44 64
        E 0 8e 44 64
        E 0 8f 2d 64
        E 0 96 47 64
        E 0 9e 47 64
        E 0 9f 34 5a
        E 0 86 47 64
        E 0 8e 47 64
        E 0 96 47 64
        E 0 9e 47 64
        E 0 86 47 64
        E 0 8e 47 64
        E 0 97 40 64
        E 0 9e 40 64
        E 0 87 40 64
        E 0 8e 40 64
        E 0 8f 34 64
        E 0 97 47 64
        E 0 9e 47 64
        E 0 9f 34 5a
        E 0 87 47 64
        E 0 8e 47 64
        E 0 97 47 64
        E 0 9e 47 64
        E 0 87 47 64
        E 0 8e 47 64
        E 0 97 48 64
        E 0 9e 48 64
        E 0 87 48 64
        E 0 8e 48 64
        E 0 8f 34 64
        E 0 97 45 64
        E 0 9e 45 64
        E 0 9f 2f 5a
        E 0 87 45 64
        E 0 8e 45 64
        E 0 97 45 64
        E 0 9e 45 64
        E 0 87 45 64
        E 0 8e 45 64
        E 0 97 45 64
        E 0 9e 45 64
        E 0 87 45 64
        E 0 8e 45 64
        E 0 97 45 64
        E 0 9e 45 64
        E 0 87 45 64
        E 0 8e 45 64
        E 0 8f 2f 64
        E 0 97 4b 64
        E 0 9e 4b 64
        E 0 9f 2f 5a
        E 0 87 4b 64
        E 0 8e 4b 64
        E 0 97 4b 64
        E 0 9e 4b 64
        E 0 87 4b 64
        E 0 8e 4b 64
        E 0 97 4c 64
        E 0 9e 4c 64
        E 0 87 4c 64
        E 0 8e 4c 64
        E 0 8f 2f 64
        E 0 97 47 64
        E 1 9e 47 64
        E 0 9f 2b 5a
        E 0 87 47 64
        E 0 8e 47 64
        E 0 97 47 64
        E 0 9e 47 64
        E 0 87 47 64
        E 0 8e 47 64
        E 0 96 43 64
        E 0 9e 43 64
        E 0 86 43 64
        E 0 8e 43 64
        E 0 8f 2b 64
        E 0 96 40 64
        E 0 9e 40 64
        E 0 9f 2b 5a
        E 0 86 40 64
        E 0 8e 40 64
        E 0 96 47 64
        E 0 9e 47 64
        E 0 86 47 64
        E 0 8e 47 64
        E 0 8f 2b 64
        E 0 96 44 64
        E 0 9e 44 64
        E 0 9f 32 5a
        E 0 86 44 64
        E 0 8e 44 64
        E 0 96 44 64
        E 0 9e 44 64
        E 0 86 44 64
        E 0 8e 44 64
        E 0 96 47 64
        E 0 9e 47 64
        E 38403 86 47 64
        E 0 8e 47 64
        E 1 96 47 64
        E 0 9e 47 64
        E 0 86 47 64
        E 0 8e 47 64
        E 0 96 48 64
        E 0 9e 48 64
        E 0 86 48 64
        E 0 8e 48 64
        E 0 8f 32 64
        E 0 96 45 64
        E 0 9e 45 64
        E 0 9f 30 5a
        E 0 86 45 64
        E 0 8e 45 64
        E 0 96 45 64
        E 0 9e 45 64
        E 0 86 45 64
        E 0 8e 45 64
        E 0 96 45 64
        E 0 9e 45 64
        E 0 86 45 64
        E 0 8e 45 64
        E 0 96 45 64
        E 0 9e 45 64
        E 0 86 45 64
        E 0 8e 45 64
        E 0 8f 30 64
        E 0 96 42 64
        E 0 9e 42 64
        E 0 9f 32 5a
        E 0 86 42 64
        E 0 8e 42 64
        E 0 96 42 64
        E 0 9e 42 64
        E 0 86 42 64
        E 0 8e 42 64
        E 0 96 45 64
        E 0 9e 45 64
        E 0 86 45 64
        E 0 8e 45 64
        E 1 96 48 64
        E 0 9e 48 64
        E 0 86 48 64
        E 0 8e 48 64
        E 0 96 48 64
        E 0 9e 48 64
        E 0 86 48 64
        E 0 8e 48 64
        E 0 96 48 64
        E 0 9e 48 64
        E 0 86 48 64
        E 0 8e 48 64
        E 0 96 48 64
        E 0 9e 48 64
        E 0 86 48 64
        E 0 8e 48 64
        E 0 8f 32 64
        E 0 96 45 64
        E 0 9e 45 64
        E 0 9f 32 5a
        E 0 86 45 64
        E 0 8e 45 64
        E 0 96 45 64
        E 0 9e 45 64
        E 0 86 45 64
        E 0 8e 45 64
        E 0 96 47 64
        E 0 9e 47 64
        E 0 86 47 64
        E 0 8e 47 64
        E 0 8f 32 64
        E 0 96 43 64
        E 0 9e 43 64
        E 0 9f 2b 5a
        E 0 86 43 64
        E 0 8e 43 64
        E 0 96 43 64
        E 0 9e 43 64
        E 0 86 43 64
        E 0 8e 43 64
        E 0 8f 2b 64
        E 0 96 47 64
        E 0 9e 47 64
        E 0 9f 2b 5a
        E 0 86 47 64
        E 0 8e 47 64
        E 0 96 47 64
        E 0 9e 47 64
        E 0 86 47 64
        E 0 8e 47 64
        E 0 96 49 64
        E 0 9e 49 64
        E 0 86 49 64
        E 0 8e 49 64
        E 0 8f 2b 64
        E 0 96 46 64
        E 0 9e 46 64
        E 0 9f 34 5a
        E 0 86 46 64
        E 0 8e 46 64
        E 0 96 46 64
        E 0 9e 46 64
        E 0 86 46 64
        E 0 8e 46 64
        E 0 96 46 64
        E 0 9e 46 64
        E 0 86 46 64
        E 0 8e 46 64
        E 0 96 49 64
        E 0 9e 49 64
        E 0 86 49 64
        E 0 8e 49 64
        E 0 8f 34 64
        E 0 96 42 64
        E 0 9e 42 64
        E 0 9f 2e 5a
        E 0 86 42 64
        E 0 8e 42 64
        E 0 96 42 64
        E 0 9e 42 64
        E 0 86 42 64
        E 0 8e 42 64
        E 0 96 49 64
        E 0 9e 49 64
        E 0 86 49 64
        E 0 8e 49 64
        E 1 96 4a 64
        E 0 9e 4a 64
        E 0 86 4a 64
        E 0 8e 4a 64
        E 0 8f 2e 64
        E 0 96 47 64
        E 0 9e 47 64
        E 0 9f 2f 5a
        E 0 86 47 64
        E 0 8e 47 64
        E 0 96 42 64
        E 0 9e 42 64
        E 0 86 42 64
        E 0 8e 42 64
        E 0 96 42 64
        E 0 9e 42 64
        E 0 86 42 64
        E 0 8e 42 64
        E 0 96 42 64
        E 0 9e 42 64
        E 0 86 42 64
        E 0 8e 42 64
        E 0 8f 2f 64
        E 0 96 47 64
        E 0 9e 47 64
        E 0 9f 33 5a
        E 0 86 47 64
        E 0 8e 47 64
        E 0 96 47 64
        E 1 9e 47 64
        E 0 86 47 64
        E 0 8e 47 64
        E 0 96 47 64
        E 0 9e 47 64
        E 0 86 47 64
        E 0 8e 47 64
        E 0 96 45 64
        E 0 9e 45 64
        E 0 86 45 64
        E 0 8e 45 64
        E 0 96 47 64
        E 0 9e 47 64
        E 0 86 47 64
        E 0 8e 47 64
        E 0 8f 33 64
        E 0 96 43 64
        E 0 9e 43 64
        E 0 9f 34 5a
        E 0 86 43 64
        E 0 8e 43 64
        E 0 96 47 64
        E 0 9e 47 64
        E 0 86 47 64
        E 0 8e 47 64
        E 0 96 47 64
        E 0 9e 47 64
        E 0 86 47 64
        E 0 8e 47 64
        E 0 96 49 64
        E 0 9e 49 64
        E 0 86 49 64
        E 0 8e 49 64
        E 0 8f 34 64
        E 0 96 44 64
        E 0 9e 44 64
        E 0 9f 35 59
        E 0 86 44 64
        E 0 8e 44 64
        E 0 96 44 64
        E 0 9e 44 64
        E 0 86 44 64
        E 0 8e 44 64
        E 0 96 49 64
        E 0 9e 49 64
        E 0 86 49 64
        E 0 8e 49 64
        E 0 8f 35 63
        E 0 96 45 64
        E 0 9e 45 64
        E 0 9f 36 5a
        E 0 86 45 64
        E 0 8e 45 64
        E 0 96 45 64
        E 0 9e 45 64
        E 0 86 45 64
        E 0 8e 45 64
        E 0 96 45 64
        E 0 9e 45 64
        E 0 86 45 64
        E 0 8e 45 64
        E 0 96 44 64
        E 0 9e 44 64
        E 0 86 44 64
        E 0 8e 44 64
        E 0 96 45 64
        E 0 9e 45 64
        E 0 86 45 64
        E 0 8e 45 64
        E 0 8f 36 64
        E 0 96 40 64
        E 0 9e 40 64
        E 0 9f 34 5a
        E 0 86 40 64
        E 0 8e 40 64
        E 0 96 40 64
        E 0 9e 40 64
        E 0 86 40 64
        E 0 8e 40 64
        E 0 8f 34 64
        E 0 9f 2d 5a
        E 0 8f 2d 64
        E 0 96 45 64
        E 0 9e 45 64
        E 0 9f 2d 5a
        E 0 86 45 64
        E 0 8e 45 64
        E 0 96 45 64
        E 0 9e 45 64
        E 0 86 45 64
        E 0 8e 45 64
        E 1 96 45 64
        E 0 9e 45 64
        E 0 86 45 64
        E 0 8e 45 64
        E 0 96 43 64
        E 0 9e 43 64
        E 0 86 43 64
        E 0 8e 43 64
        E 0 96 45 64
        E 0 9e 45 64
        E 0 86 45 64
        E 0 8e 45 64
        E 0 8f 2d 64
        E 0 96 42 64
        E 0 9e 42 64
        E 0 9f 32 5a
        E 0 86 42 64
        E 0 8e 42 64
        E 0 96 42 64
        E 0 9e 42 64
        E 0 86 42 64
        E 0 8e 42 64
        E 0 96 45 64
        E 0 9e 45 64
        E 0 86 45 64
        E 0 8e 45 64
        E 0 96 45 64
        E 0 9e 45 64
        E 0 86 45 64
        E 0 8e 45 64
        E 0 96 45 64
        E 0 9e 45 64
        E 0 86 45 64
        E 0 8e 45 64
        E 0 96 43 64
        E 0 9e 43 64
        E 0 86 43 64
        E 0 8e 43 64
        E 0 96 45 64
        E 0 9e 45 64
        E 0 86 45 64
        E 0 8e 45 64
        E 0 8f 32 64
        E 0 96 47 64
        E 0 9e 47 64
        E 0 9f 2b 5a
        E 0 86 47 64
        E 0 8e 47 64
        E 0 96 47 64
        E 0 9e 47 64
        E 0 86 47 64
        E 0 8e 47 64
        E 0 96 47 64
        E 0 9e 47 64
        E 0 86 47 64
        E 0 8e 47 64
        E 0 96 49 64
        E 0 9e 49 64
        E 0 86 49 64
        E 0 8e 49 64
        E 0 96 4a 64
        E 0 9e 4a 64
        E 0 86 4a 64
        E 0 8e 4a 64
        E 0 8f 2b 64
        E 0 96 45 64
        E 0 9e 45 64
        E 1 9f 2d 5a
        E 0 86 45 64
        E 0 8e 45 64
        E 0 96 45 64
        E 0 9e 45 64
        E 0 86 45 64
        E 0 8e 45 64
        E 0 8f 2d 64
        E 0 9f 26 5a
        E 38403 8f 26 64
        E 0 97 48 64
        E 0 9e 48 64
        E 0 9f 26 5a
        E 0 87 48 64
        E 0 8e 48 64
        E 0 97 48 64
        E 0 9e 48 64
        E 0 87 48 64
        E 0 8e 48 64
        E 0 97 45 64
        E 0 9e 45 64
        E 0 87 45 64
        E 0 8e 45 64
        E 0 97 45 64
        E 0 9e 45 64
        E 0 87 45 64
        E 0 8e 45 64
        E 0 97 46 66
        E 1 9e 46 66
        E 0 87 46 66
        E 0 8e 46 66
        E 0 8f 26 64
        E 0 97 43 64
        E 0 9e 43 64
        E 0 9f 2b 5a
        E 0 87 43 64
        E 0 8e 43 64
        E 0 97 43 64
        E 0 9e 43 64
        E 0 87 43 64
        E 0 8e 43 64
        E 0 9a 43 64
        E 0 9e 43 64
        E 0 8a 43 64
        E 0 8e 43 64
        E 0 9a 43 64
        E 0 9e 43 64
        E 0 8a 43 64
        E 0 8e 43 64
        E 0 9a 41 64
        E 0 9e 41 64
        E 0 8a 41 64
        E 0 8e 41 64
        E 0 8f 2b 64
        E 0 9a 3e 64
        E 0 9e 3e 64
        E 0 9f 2b 5a
        E 0 8a 3e 64
        E 0 8e 3e 64
        E 0 9a 3e 64
        E 0 9e 3e 64
        E 0 8a 3e 64
        E 0 8e 3e 64
        E 0 9a 3e 64
        E 0 9e 3e 64
        E 0 8a 3e 64
        E 0 8e 3e 64
        E 0 9a 46 66
        E 0 9e 46 66
        E 0 8a 46 66
        E 0 8e 46 66
        E 1 9a 46 66
        E 0 9e 46 66
        E 0 8a 46 66
        E 0 8e 46 66
        E 0 9a 46 66
        E 0 9e 46 66
        E 0 8a 46 66
        E 0 8e 46 66
        E 0 9a 48 64
        E 0 9e 48 64
        E 0 8a 48 64
        E 0 8e 48 64
        E 0 8f 2b 64
        E 0 9a 45 64
        E 0 9e 45 64
        E 0 9f 33 5b
        E 0 8a 45 64
        E 0 8e 45 64
        E 0 9a 45 64
        E 0 9e 45 64
        E 0 8a 45 64
        E 0 8e 45 64
        E 0 9a 45 64
        E 0 9e 45 64
        E 0 8a 45 64
        E 0 8e 45 64
        E 0 9a 46 66
        E 0 9e 46 66
        E 0 8a 46 66
        E 0 8e 46 66
        E 0 9a 48 64
        E 0 9e 48 64
        E 0 8a 48 64
        E 0 8e 48 64
        E 0 9a 41 64
        E 0 9e 41 64
        E 0 8a 41 64
        E 0 8e 41 64
        E 1 9a 41 64
        E 0 9e 41 64
        E 0 8a 41 64
        E 0 8e 41 64
        E 0 9a 45 64
        E 0 9e 45 64
        E 0 8a 45 64
        E 0 8e 45 64
        E 0 9a 45 64
        E 0 9e 45 64
        E 0 8a 45 64
        E 0 8e 45 64
        E 0 9a 46 66
        E 0 9e 46 66
        E 0 8a 46 66
        E 0 8e 46 66
        E 0 8f 33 66
        E 0 9a 41 64
        E 0 9e 41 64
        E 0 9f 35 5a
        E 0 8a 41 64
        E 0 8e 41 64
        E 0 8f 35 64
        E 0 9f 2e 5b
        E 0 9a 3e 64
        E 0 9e 3e 64
        E 0 8a 3e 64
        E 0 8e 3e 64
        E 0 8f 2e 66
        E 0 9a 41 64
        E 0 9e 41 64
        E 0 9f 2e 5b
        E 0 8a 41 64
        E 0 8e 41 64
        E 0 9a 41 64
        E 0 9e 41 64
        E 0 8a 41 64
        E 0 8e 41 64
        E 0 9a 46 66
        E 0 9e 46 66
        E 0 8a 46 66
        E 0 8e 46 66
        E 0 8f 2e 66
        E 0 9a 41 64
        E 0 9e 41 64
        E 0 9f 2e 5b
        E 0 8a 41 64
        E 0 8e 41 64
        E 0 9a 41 64
        E 0 9e 41 64
        E 0 8a 41 64
        E 0 8e 41 64
        E 0 9a 41 64
        E 0 9e 41 64
        E 0 8a 41 64
        E 0 8e 41 64
        E 0 9a 43 64
        E 0 9e 43 64
        E 0 8a 43 64
        E 0 8e 43 64
        E 0 9a 44 66
        E 1 9e 44 66
        E 1 8a 44 66
        E 0 8e 44 66
        E 0 9a 44 66
        E 0 9e 44 66
        E 0 8a 44 66
        E 0 8e 44 66
        E 0 8f 2e 66
        E 0 9a 48 64
        E 0 9e 48 64
        E 0 9f 2e 5b
        E 0 8a 48 64
        E 0 8e 48 64
        E 0 9a 44 66
        E 0 9e 44 66
        E 0 8a 44 66
        E 0 8e 44 66
        E 0 9a 44 66
        E 0 9e 44 66
        E 0 8a 44 66
        E 0 8e 44 66
        E 0 9a 44 66
        E 0 9e 44 66
        E 0 8a 44 66
        E 0 8e 44 66
        E 0 9a 43 64
        E 0 9e 43 64
        E 0 8a 43 64
        E 0 8e 43 64
        E 0 8f 2e 66
        E 0 9a 3f 66
        E 0 9e 3f 66
        E 0 9f 33 5b
        E 0 8a 3f 66
        E 0 8e 3f 66
        E 0 9a 3f 66
        E 0 9e 3f 66
        E 0 8a 3f 66
        E 0 8e 3f 66
        E 0 97 43 64
        E 0 9e 43 64
        E 0 87 43 64
        E 0 8e 43 64
        E 0 97 43 64
        E 0 9e 43 64
        E 0 87 43 64
        E 0 8e 43 64
        E 0 97 46 66
        E 0 9e 46 66
        E 0 87 46 66
        E 0 8e 46 66
        E 0 8f 33 66
        E 0 97 3f 66
        E 0 9e 3f 66
        E 0 9f 33 5b
        E 0 87 3f 66
        E 0 8e 3f 66
        E 0 97 3f 66
        E 0 9e 3f 66
        E 0 87 3f 66
        E 0 8e 3f 66
        E 0 97 46 66
        E 0 9e 46 66
        E 0 87 46 66
        E 0 8e 46 66
        E 0 97 46 66
        E 0 9e 46 66
        E 1 87 46 66
        E 0 8e 46 66
        E 0 97 46 66
        E 0 9e 46 66
        E 0 87 46 66
        E 0 8e 46 66
        E 0 97 49 66
        E 0 9e 49 66
        E 0 87 49 66
        E 0 8e 49 66
        E 0 97 48 64
        E 0 9e 48 64
        E 0 87 48 64
        E 0 8e 48 64
        E 0 8f 33 66
        E 0 97 48 64
        E 0 9e 48 64
        E 0 9f 34 5a
        E 0 87 48 64
        E 0 8e 48 64
        E 0 97 48 64
        E 0 9e 48 64
        E 0 87 48 64
        E 0 8e 48 64
        E 0 97 43 64
        E 0 9e 43 64
        E 0 87 43 64
        E 0 8e 43 64
        E 0 97 46 66
        E 0 9e 46 66
        E 0 87 46 66
        E 0 8e 46 66
        E 0 97 44 66
        E 0 9e 44 66
        E 0 87 44 66
        E 0 8e 44 66
        E 0 8f 34 64
        E 0 97 41 64
        E 0 9e 41 64
        E 0 9f 35 5a
        E 0 87 41 64
        E 0 8e 41 64
        E 0 8f 35 64
        E 0 97 48 64
        E 0 9e 48 64
        E 0 9f 35 5a
        E 0 87 48 64
        E 0 8e 48 64
        E 0 97 48 64
        E 0 9e 48 64
        E 0 87 48 64
        E 0 8e 48 64
        E 0 97 48 64
        E 0 9e 48 64
        E 0 87 48 64
        E 0 8e 48 64
        E 0 97 48 64
        E 1 9e 48 64
        E 0 87 48 64
        E 0 8e 48 64
        E 0 97 4a 64
        E 0 9e 4a 64
        E 0 87 4a 64
        E 0 8e 4a 64
        E 0 8f 35 64
        E 0 97 45 64
        E 0 9e 45 64
        E 0 9f 36 5a
        E 0 87 45 64
        E 0 8e 45 64
        E 0 97 45 64
        E 0 9e 45 64
        E 0 87 45 64
        E 0 8e 45 64
        E 0 8f 36 64
        E 0 97 4b 66
        E 0 9e 4b 66
        E 0 9f 36 5a
        E 0 87 4b 66
        E 0 8e 4b 66
        E 0 97 48 64
        E 0 9e 48 64
        E 0 87 48 64
        E 0 8e 48 64
        E 0 97 48 64
        E 0 9e 48 64
        E 0 87 48 64
        E 0 8e 48 64
        E 0 97 48 64
        E 0 9e 48 64
        E 0 87 48 64
        E 0 8e 48 64
        E 0 97 46 66
        E 0 9e 46 66
        E 0 87 46 66
        E 0 8e 46 66
        E 0 8f 36 64
        E 0 97 43 64
        E 0 9e 43 64
        E 0 9f 37 5a
        E 0 87 43 64
        E 0 8e 43 64
        E 0 97 43 64
        E 1 9e 43 64
        E 38402 87 43 64
        E 0 8e 43 64
        E 0 9a 3e 64
        E 0 9e 3e 64
        E 0 8a 3e 64
        E 0 8e 3e 64
        E 0 9a 3e 64
        E 0 9e 3e 64
        E 0 8a 3e 64
        E 0 8e 3e 64
        E 0 9a 3e 64
        E 0 9e 3e 64
        E 0 8a 3e 64
        E 0 8e 3e 64
        E 0 8f 37 64
        E 0 9a 43 64
        E 0 9e 43 64
        E 0 9f 33 5b
        E 0 8a 43 64
        E 0 8e 43 64
        E 0 9a 43 64
        E 0 9e 43 64
        E 0 8a 43 64
        E 0 8e 43 64
        E 0 9a 43 64
        E 0 9e 43 64
        E 1 8a 43 64
        E 0 8e 43 64
        E 0 9a 43 64
        E 0 9e 43 64
        E 0 8a 43 64
        E 0 8e 43 64
        E 0 9a 43 64
        E 0 9e 43 64
        E 0 8a 43 64
        E 0 8e 43 64
        E 0 9a 43 64
        E 0 9e 43 64
        E 0 8a 43 64
        E 0 8e 43 64
        E 0 9a 42 64
        E 0 9e 42 64
        E 0 8a 42 64
        E 0 8e 42 64
        E 0 8f 33 66
        E 0 9a 45 64
        E 0 9e 45 64
        E 0 9f 32 5a
        E 0 8a 45 64
        E 0 8e 45 64
        E 0 97 4a 64
        E 0 9e 4a 64
        E 0 87 4a 64
        E 0 8e 4a 64
        E 0 97 4a 64
        E 0 9e 4a 64
        E 0 87 4a 64
        E 0 8e 4a 64
        E 0 97 4a 64
        E 0 9e 4a 64
        E 0 87 4a 64
        E 0 8e 4a 64
        E 0 8f 32 64
        E 0 97 47 64
        E 0 9e 47 64
        E 0 9f 2c 5a
        E 0 87 47 64
        E 0 8e 47 64
        E 0 97 47 64
        E 0 9e 47 64
        E 0 87 47 64
        E 0 8e 47 64
        E 0 97 4c 64
        E 0 9e 4c 64
        E 0 87 4c 64
        E 0 8e 4c 64
        E 0 97 47 64
        E 0 9e 47 64
        E 0 87 47 64
        E 0 8e 47 64
        E 0 97 48 64
        E 0 9e 48 64
        E 0 87 48 64
        E 0 8e 48 64
        E 0 8f 2c 64
        E 0 97 45 64
        E 0 9e 45 64
        E 0 9f 2d 5a
        E 0 87 45 64
        E 0 8e 45 64
        E 0 97 45 64
        E 1 9e 45 64
        E 0 87 45 64
        E 0 8e 45 64
        E 0 97 45 64
        E 0 9e 45 64
        E 0 87 45 64
        E 0 8e 45 64
        E 0 8f 2d 64
        E 0 97 48 64
        E 0 9e 48 64
        E 0 9f 2d 5a
        E 0 87 48 64
        E 0 8e 48 64
        E 0 97 48 64
        E 0 9e 48 64
        E 0 87 48 64
        E 0 8e 48 64
        E 0 97 48 64
        E 0 9e 48 64
        E 0 87 48 64
        E 1 8e 48 64
        E 0 97 47 64
        E 0 9e 47 64
        E 0 87 47 64
        E 0 8e 47 64
        E 0 8f 2d 64
        E 0 97 47 64
        E 0 9e 47 64
        E 0 9f 33 5a
        E 0 87 47 64
        E 0 8e 47 64
        E 0 97 47 64
        E 0 9e 47 64
        E 0 87 47 64
        E 0 8e 47 64
        E 0 8f 33 64
        E 0 97 48 64
        E 0 9e 48 64
        E 0 9f 33 5a
        E 0 87 48 64
        E 0 8e 48 64
        E 0 97 45 64
        E 0 9e 45 64
        E 0 87 45 64
        E 0 8e 45 64
        E 0 97 45 64
        E 0 9e 45 64
        E 0 87 45 64
        E 0 8e 45 64
        E 0 97 45 64
        E 0 9e 45 64
        E 0 87 45 64
        E 0 8e 45 64
        E 0 97 43 64
        E 0 9e 43 64
        E 0 87 43 64
        E 0 8e 43 64
        E 0 8f 33 64
        E 0 97 40 64
        E 0 9e 40 64
        E 0 9f 34 5a
        E 0 87 40 64
        E 0 8e 40 64
        E 0 8f 34 64
        E 0 9f 34 5a
        E 0 97 47 64
        E 0 9e 47 64
        E 0 87 47 64
        E 0 8e 47 64
        E 0 97 47 64
        E 0 9e 47 64
        E 0 87 47 64
        E 0 8e 47 64
        E 0 97 48 64
        E 0 9e 48 64
        E 0 87 48 64
        E 0 8e 48 64
        E 0 8f 34 64
        E 0 97 45 64
        E 0 9e 45 64
        E 0 9f 36 5a
        E 0 87 45 64
        E 0 8e 45 64
        E 0 97 45 64
        E 0 9e 45 64
        E 0 87 45 64
        E 0 8e 45 64
        E 0 8f 36 64
        E 0 97 4a 64
        E 0 9e 4a 64
        E 0 9f 36 5a
        E 0 87 4a 64
        E 0 8e 4a 64
        E 0 97 4a 64
        E 0 9e 4a 64
        E 0 87 4a 64
        E 0 8e 4a 64
        E 0 97 45 64
        E 0 9e 45 64
        E 0 87 45 64
        E 0 8e 45 64
        E 0 97 45 64
        E 0 9e 45 64
        E 0 87 45 64
        E 0 8e 45 64
        E 0 97 47 64
        E 0 9e 47 64
        E 0 87 47 64
        E 0 8e 47 64
        E 0 8f 36 64
        E 0 97 43 64
        E 0 9e 43 64
        E 0 9f 37 5a
        E 0 87 43 64
        E 0 8e 43 64
        E 1 97 43 64
        E 0 9e 43 64
        E 0 87 43 64
        E 0 8e 43 64
        E 0 8f 37 64
        E 0 97 4a 64
        E 0 9e 4a 64
        E 0 9f 37 5a
        E 0 87 4a 64
        E 0 8e 4a 64
        E 0 97 4a 64
        E 0 9e 4a 64
        E 0 87 4a 64
        E 0 8e 4a 64
        E 0 97 47 64
        E 0 9e 47 64
        E 0 87 47 64
        E 0 8e 47 64
        E 0 8f 37 64
        E 0 97 44 64
        E 0 9e 44 64
        E 0 9f 32 5a
        E 0 87 44 64
        E 0 8e 44 64
        E 0 97 44 64
        E 0 9e 44 64
        E 0 87 44 64
        E 0 8e 44 64
        E 0 8f 32 64
        E 0 97 47 64
        E 0 9e 47 64
        E 0 9f 32 5a
        E 0 87 47 64
        E 0 8e 47 64
        E 0 97 47 64
        E 0 9e 47 64
        E 0 87 47 64
        E 0 8e 47 64
        E 0 97 47 64
        E 0 9e 47 64
        E 0 87 47 64
        E 0 8e 47 64
        E 0 97 45 64
        E 0 9e 45 64
        E 0 87 45 64
        E 0 8e 45 64
        E 0 97 47 64
        E 0 9e 47 64
        E 0 87 47 64
        E 0 8e 47 64
        E 0 8f 32 64
        E 0 97 48 64
        E 0 9e 48 64
        E 0 9f 2d 5a
        E 0 87 48 64
        E 0 8e 48 64
        E 0 97 48 64
        E 0 9e 48 64
        E 0 87 48 64
        E 0 8e 48 64
        E 0 97 4c 64
        E 0 9e 4c 64
        E 0 87 4c 64
        E 0 8e 4c 64
        E 0 97 4b 66
        E 0 9e 4b 66
        E 0 87 4b 66
        E 0 8e 4b 66
        E 0 97 4c 64
        E 0 9e 4c 64
        E 0 87 4c 64
        E 0 8e 4c 64
        E 0 8f 2d 64
        E 0 97 47 64
        E 0 9e 47 64
        E 0 9f 2f 5a
        E 0 87 47 64
        E 0 8e 47 64
        E 0 97 47 64
        E 0 9e 47 64
        E 0 87 47 64
        E 0 8e 47 64
        E 0 8f 2f 64
        E 0 9f 34 5a
        E 0 9a 43 64
        E 0 9e 43 64
        E 0 8a 43 64
        E 0 8e 43 64
        E 0 9a 45 64
        E 0 9e 45 64
        E 0 8a 45 64
        E 0 8e 45 64
        E 0 8f 34 64
        E 0 9a 47 64
        E 0 9e 47 64
        E 0 9f 34 5a
        E 0 8a 47 64
        E 0 8e 47 64
        E 1 9a 47 64
        E 0 9e 47 64
        E 38403 8a 47 64
        E 0 8e 47 64
        E 0 97 48 64
        E 0 9e 48 64
        E 0 87 48 64
        E 0 8e 48 64
        E 0 8f 34 64
        E 0 97 45 64
        E 0 9e 45 64
        E 0 9f 2d 5a
        E 0 87 45 64
        E 0 8e 45 64
        E 0 97 45 64
        E 0 9e 45 64
        E 0 87 45 64
        E 0 8e 45 64
        E 0 9a 40 64
        E 0 9e 40 64
        E 0 8a 40 64
        E 0 8e 40 64
        E 0 9a 40 64
        E 0 9e 40 64
        E 0 8a 40 64
        E 0 8e 40 64
        E 0 9a 40 64
        E 0 9e 40 64
        E 0 8a 40 64
        E 0 8e 40 64
        E 0 9a 45 64
        E 0 9e 45 64
        E 0 8a 45 64
        E 0 8e 45 64
        E 0 9a 45 64
        E 0 9e 45 64
        E 0 8a 45 64
        E 0 8e 45 64
        E 0 97 48 64
        E 0 9e 48 64
        E 0 8f 2d 64
        E 0 87 48 64
        E 0 8e 48 64
        E 0 9f 2d 5a
        E 0 97 48 64
        E 0 9e 48 64
        E 0 87 48 64
        E 0 8e 48 64
        E 0 97 48 64
        E 0 9e 48 64
        E 0 87 48 64
        E 0 8e 48 64
        E 0 97 47 64
        E 0 9e 47 64
        E 0 87 47 64
        E 0 8e 47 64
        E 0 97 48 64
        E 0 9e 48 64
        E 0 8f 2d 64
        E 0 87 48 64
        E 0 8e 48 64
        E 0 9f 35 5a
        E 0 97 45 64
        E 0 9e 45 64
        E 0 87 45 64
        E 0 8e 45 64
        E 0 97 45 64
        E 0 9e 45 64
        E 1 87 45 64
        E 0 8e 45 64
        E 0 97 45 64
        E 0 9e 45 64
        E 0 87 45 64
        E 0 8e 45 64
        E 0 97 47 64
        E 0 9e 47 64
        E 0 87 47 64
        E 0 8e 47 64
        E 0 97 48 64
        E 0 9e 48 64
        E 0 87 48 64
        E 0 8e 48 64
        E 0 8f 35 64
        E 0 97 43 64
        E 0 9e 43 64
        E 0 9f 37 5a
        E 0 87 43 64
        E 0 8e 43 64
        E 0 8f 37 64
        E 0 9a 40 64
        E 0 9e 40 64
        E 0 9f 30 5a
        E 0 8a 40 64
        E 0 8e 40 64
        E 0 9a 40 64
        E 0 9e 40 64
        E 0 8a 40 64
        E 0 8e 40 64
        E 0 9a 41 64
        E 0 9e 41 64
        E 0 8a 41 64
        E 0 8e 41 64
        E 0 8f 30 64
        E 0 9a 43 64
        E 0 9e 43 64
        E 0 9f 30 5a
        E 0 8a 43 64
        E 0 8e 43 64
        E 0 97 48 64
        E 0 9e 48 64
        E 0 87 48 64
        E 0 8e 48 64
        E 0 8f 30 64
        E 0 97 43 64
        E 0 9e 43 64
        E 0 9f 30 5a
        E 0 87 43 64
        E 0 8e 43 64
        E 0 97 43 64
        E 0 9e 43 64
        E 0 87 43 64
        E 0 8e 43 64
        E 0 97 43 64
        E 0 9e 43 64
        E 0 87 43 64
        E 0 8e 43 64
        E 0 97 45 64
        E 0 9e 45 64
        E 0 87 45 64
        E 1 8e 45 64
        E 0 97 46 66
        E 0 9e 46 66
        E 0 87 46 66
        E 0 8e 46 66
        E 0 97 46 66
        E 0 9e 46 66
        E 0 87 46 66
        E 0 8e 46 66
        E 0 97 45 64
        E 0 9e 45 64
        E 0 87 45 64
        E 0 8e 45 64
        E 0 8f 30 64
        E 0 97 41 64
        E 0 9e 41 64
        E 0 9f 35 5a
        E 0 87 41 64
        E 0 8e 41 64
        E 0 97 41 64
        E 0 9e 41 64
        E 0 87 41 64
        E 0 8e 41 64
        E 0 97 48 64
        E 0 9e 48 64
        E 0 87 48 64
        E 0 8e 48 64
        E 0 97 48 64
        E 0 9e 48 64
        E 0 87 48 64
        E 0 8e 48 64
        E 0 97 48 64
        E 0 9e 48 64
        E 0 87 48 64
        E 0 8e 48 64
        E 0 8f 35 64
        E 0 97 45 64
        E 0 9e 45 64
        E 0 9f 35 5a
        E 0 87 45 64
        E 0 8e 45 64
        E 0 97 45 64
        E 0 9e 45 64
        E 0 87 45 64
        E 0 8e 45 64
        E 1 97 45 64
        E 0 9e 45 64
        E 0 87 45 64
        E 0 8e 45 64
        E 0 97 45 64
        E 0 9e 45 64
        E 0 87 45 64
        E 0 8e 45 64
        E 0 97 4b 66
        E 0 9e 4b 66
        E 0 87 4b 66
        E 0 8e 4b 66
        E 0 97 4b 66
        E 0 9e 4b 66
        E 0 87 4b 66
        E 0 8e 4b 66
        E 0 97 4a 64
        E 0 9e 4a 64
        E 0 87 4a 64
        E 0 8e 4a 64
        E 0 8f 35 64
        E 0 97 46 66
        E 0 9e 46 66
        E 0 9f 2e 5b
        E 0 87 46 66
        E 0 8e 46 66
        E 0 97 46 66
        E 0 9e 46 66
        E 0 87 46 66
        E 0 8e 46 66
        E 0 97 46 66
        E 0 9e 46 66
        E 0 87 46 66
        E 0 8e 46 66
        E 0 97 46 66
        E 0 9e 46 66
        E 0 87 46 66
        E 0 8e 46 66
        E 0 97 48 64
        E 0 9e 48 64
        E 0 87 48 64
        E 0 8e 48 64
        E 0 97 44 66
        E 0 9e 44 66
        E 0 87 44 66
        E 0 8e 44 66
        E 0 97 44 66
        E 0 9e 44 66
        E 0 87 44 66
        E 0 8e 44 66
        E 0 97 4a 64
        E 0 9e 4a 64
        E 0 87 4a 64
        E 0 8e 4a 64
        E 0 97 4a 64
        E 0 9e 4a 64
        E 0 87 4a 64
        E 0 8e 4a 64
        E 0 97 4b 66
        E 0 9e 4b 66
        E 0 87 4b 66
        E 0 8e 4b 66
        E 0 8f 2e 66
        E 0 97 46 66
        E 0 9e 46 66
        E 0 9f 33 5b
        E 0 87 46 66
        E 0 8e 46 66
        E 0 8f 33 66
        E 0 97 43 64
        E 0 9e 43 64
        E 0 9f 33 5b
        E 0 87 43 64
        E 0 8e 43 64
        E 0 97 43 64
        E 0 9e 43 64
        E 0 87 43 64
        E 0 8e 43 64
        E 0 97 43 64
        E 0 9e 43 64
        E 0 87 43 64
        E 0 8e 43 64
        E 0 97 43 64
        E 0 9e 43 64
        E 0 87 43 64
        E 0 8e 43 64
        E 0 97 44 66
        E 0 9e 44 66
        E 0 87 44 66
        E 0 8e 44 66
        E 0 8f 33 66
        E 0 97 46 66
        E 0 9e 46 66
        E 0 9f 34 5a
        E 0 87 46 66
        E 0 8e 46 66
        E 1 97 46 66
        E 0 9e 46 66
        E 0 87 46 66
        E 0 8e 46 66
        E 0 8f 34 64
        E 0 97 49 66
        E 0 9e 49 66
        E 0 9f 34 5a
        E 0 87 49 66
        E 0 8e 49 66
        E 0 97 46 66
        E 0 9e 46 66
        E 0 87 46 66
        E 0 8e 46 66
        E 0 97 46 66
        E 0 9e 46 66
        E 0 87 46 66
        E 0 8e 46 66
        E 0 97 46 66
        E 0 9e 46 66
        E 0 87 46 66
        E 0 8e 46 66
        E 0 97 44 66
        E 0 9e 44 66
        E 0 87 44 66
        E 0 8e 44 66
        E 0 8f 34 64
        E 0 97 41 64
        E 0 9e 41 64
        E 0 9f 35 5a
        E 0 87 41 64
        E 0 8e 41 64
        E 0 8f 35 64
        E 0 9a 44 66
        E 0 9e 44 66
        E 0 9f 35 5a
        E 38403 8a 44 66
        E 0 8e 44 66
        E 0 9a 44 66
        E 0 9e 44 66
        E 0 8a 44 66
        E 0 8e 44 66
        E 0 9a 48 64
        E 0 9e 48 64
        E 0 8a 48 64
        E 0 8e 48 64
        E 0 8f 35 64
        E 0 9a 41 64
        E 0 9e 41 64
        E 0 9f 31 5b
        E 0 8a 41 64
        E 0 8e 41 64
        E 0 9a 41 64
        E 0 9e 41 64
        E 0 8a 41 64
        E 0 8e 41 64
        E 0 9a 40 64
        E 0 9e 40 64
        E 0 8a 40 64
        E 0 8e 40 64
        E 0 8f 31 66
        E 0 9a 43 64
        E 0 9e 43 64
        E 0 9f 30 5a
        E 0 8a 43 64
        E 0 8e 43 64
        E 0 9a 43 64
        E 0 9e 43 64
        E 0 8a 43 64
        E 0 8e 43 64
        E 0 9a 43 64
        E 1 9e 43 64
        E 0 8a 43 64
        E 0 8e 43 64
        E 0 9a 43 64
        E 0 9e 43 64
        E 0 8a 43 64
        E 0 8e 43 64
        E 0 9a 45 64
        E 0 9e 45 64
        E 0 8a 45 64
        E 0 8e 45 64
        E 0 9a 46 66
        E 0 9e 46 66
        E 0 8a 46 66
        E 0 8e 46 66
        E 0 9a 46 66
        E 0 9e 46 66
        E 0 8a 46 66
        E 0 8e 46 66
        E 0 9a 46 66
        E 0 9e 46 66
        E 0 8a 46 66
        E 0 8e 46 66
        E 0 8f 30 64
        E 0 9a 40 64
        E 0 9e 40 64
        E 0 9f 31 5a
        E 0 8a 40 64
        E 0 8e 40 64
        E 0 9a 40 64
        E 0 9e 40 64
        E 0 8a 40 64
        E 0 8e 40 64
        E 0 9a 40 64
        E 0 9e 40 64
        E 0 8a 40 64
        E 0 8e 40 64
        E 0 9a 41 64
        E 0 9e 41 64
        E 0 8a 41 64
        E 0 8e 41 64
        E 0 8f 31 64
        E 0 9a 3e 64
        E 0 9e 3e 64
        E 0 9f 32 5a
        E 0 8a 3e 64
        E 0 8e 3e 64
        E 0 9a 3e 64
        E 0 9e 3e 64
        E 0 8a 3e 64
        E 0 8e 3e 64
        E 0 9a 45 64
        E 0 9e 45 64
        E 0 8a 45 64
        E 0 8e 45 64
        E 0 8f 32 64
        E 0 9a 41 64
        E 1 9e 41 64
        E 0 9f 32 5a
        E 0 8a 41 64
        E 0 8e 41 64
        E 0 9a 47 64
        E 0 9e 47 64
        E 0 8a 47 64
        E 0 8e 47 64
        E 0 9a 44 64
        E 0 9e 44 64
        E 0 8a 44 64
        E 0 8e 44 64
        E 0 9a 44 64
        E 0 9e 44 64
        E 0 8a 44 64
        E 0 8e 44 64
        E 0 9a 47 64
        E 0 9e 47 64
        E 0 8a 47 64
        E 0 8e 47 64
        E 1 9a 47 64
        E 0 9e 47 64
        E 0 8a 47 64
        E 0 8e 47 64
        E 0 9a 48 64
        E 0 9e 48 64
        E 0 8a 48 64
        E 0 8e 48 64
        E 0 8f 32 64
        E 0 9a 45 64
        E 0 9e 45 64
        E 0 9f 2d 5a
        E 0 8a 45 64
        E 0 8e 45 64
        E 0 9a 45 64
        E 0 9e 45 64
        E 0 8a 45 64
        E 0 8e 45 64
        E 0 9a 40 64
        E 0 9e 40 64
        E 0 8a 40 64
        E 0 8e 40 64
        E 0 9a 40 64
        E 0 9e 40 64
        E 0 8a 40 64
        E 0 8e 40 64
        E 0 9a 40 64
        E 0 9e 40 64
        E 0 8a 40 64
        E 0 8e 40 64
        E 0 9a 45 64
        E 0 9e 45 64
        E 0 8a 45 64
        E 0 8e 45 64
        E 0 9a 45 64
        E 0 9e 45 64
        E 0 8a 45 64
        E 0 8e 45 64
        E 0 8f 2d 64
        E 0 9a 45 64
        E 0 9e 45 64
        E 0 9f 33 5a
        E 0 8a 45 64
        E 0 8e 45 64
        E 0 9a 45 64
        E 0 9e 45 64
        E 0 8a 45 64
        E 0 8e 45 64
        E 0 9a 45 64
        E 0 9e 45 64
        E 0 8a 45 64
        E 0 8e 45 64
        E 0 9a 45 64
        E 0 9e 45 64
        E 1 8a 45 64
        E 0 8e 45 64
        E 0 9a 45 64
        E 0 9e 45 64
        E 0 8a 45 64
        E 0 8e 45 64
        E 0 9a 44 64
        E 0 9e 44 64
        E 0 8a 44 64
        E 0 8e 44 64
        E 0 9a 45 64
        E 0 9e 45 64
        E 0 8a 45 64
        E 0 8e 45 64
        E 0 8f 33 64
        E 0 9a 40 64
        E 0 9e 40 64
        E 0 9f 34 5a
        E 0 8a 40 64
        E 0 8e 40 64
        E 0 8f 34 64
        E 0 97 48 64
        E 0 9e 48 64
        E 0 9f 2d 5a
        E 0 87 48 64
        E 0 8e 48 64
        E 0 97 47 64
        E 0 9e 47 64
        E 0 87 47 64
        E 0 8e 47 64
        E 0 97 48 64
        E 0 9e 48 64
        E 0 87 48 64
        E 0 8e 48 64
        E 0 8f 2d 64
        E 0 97 45 64
        E 0 9e 45 64
        E 0 9f 2d 5a
        E 0 87 45 64
        E 0 8e 45 64
        E 0 97 45 64
        E 0 9e 45 64
        E 0 87 45 64
        E 0 8e 45 64
        E 0 97 4c 64
        E 0 9e 4c 64
        E 0 87 4c 64
        E 0 8e 4c 64
        E 0 8f 2d 64
        E 0 97 48 64
        E 0 9e 48 64
        E 0 9f 2d 5a
        E 0 87 48 64
        E 0 8e 48 64
        E 0 97 48 64
        E 0 9e 48 64
        E 0 87 48 64
        E 0 8e 48 64
        E 0 97 48 64
        E 0 9e 48 64
        E 0 87 48 64
        E 0 8e 48 64
        E 0 97 46 66
        E 0 9e 46 66
        E 1 87 46 66
        E 0 8e 46 66
        E 0 8f 2d 64
        E 0 97 46 66
        E 0 9e 46 66
        E 0 9f 31 5a
        E 0 87 46 66
        E 0 8e 46 66
        E 0 97 46 66
        E 0 9e 46 66
        E 0 87 46 66
        E 0 8e 46 66
        E 0 8f 31 64
        E 0 97 4c 64
        E 0 9e 4c 64
        E 0 9f 31 5a
        E 0 87 4c 64
        E 0 8e 4c 64
        E 0 97 49 64
        E 0 9e 49 64
        E 0 87 49 64
        E 0 8e 49 64
        E 0 97 49 64
        E 0 9e 49 64
        E 0 87 49 64
        E 0 8e 49 64
        E 0 97 49 64
        E 0 9e 49 64
        E 0 87 49 64
        E 0 8e 49 64
        E 0 97 4a 64
        E 0 9e 4a 64
        E 0 87 4a 64
        E 0 8e 4a 64
        E 0 8f 31 64
        E 0 97 45 64
        E 0 9e 45 64
        E 0 9f 35 5a
        E 0 87 45 64
        E 0 8e 45 64
        E 0 9a 41 64
        E 0 9e 41 64
        E 0 8a 41 64
        E 0 8e 41 64
        E 0 9a 41 64
        E 0 9e 41 64
        E 0 8a 41 64
        E 0 8e 41 64
        E 0 9a 43 64
        E 0 9e 43 64
        E 0 8a 43 64
        E 0 8e 43 64
        E 0 8f 35 64
        E 0 9a 45 64
        E 0 9e 45 64
        E 0 9f 35 5a
        E 0 8a 45 64
        E 0 8e 45 64
        E 0 9a 45 64
        E 0 9e 45 64
        E 0 8a 45 64
        E 0 8e 45 64
        E 0 97 48 64
        E 0 9e 48 64
        E 0 87 48 64
        E 1 8e 48 64
        E 0 97 47 64
        E 0 9e 47 64
        E 0 87 47 64
        E 0 8e 47 64
        E 0 97 48 64
        E 0 9e 48 64
        E 0 87 48 64
        E 0 8e 48 64
        E 0 8f 35 64
        E 0 97 43 64
        E 0 9e 43 64
        E 0 9f 37 5a
        E 0 87 43 64
        E 0 8e 43 64
        E 0 97 43 64
        E 0 9e 43 64
        E 0 87 43 64
        E 0 8e 43 64
        E 0 8f 37 64
        E 0 9a 40 64
        E 0 9e 40 64
        E 0 9f 30 5a
        E 0 8a 40 64
        E 0 8e 40 64
        E 0 9a 40 64
        E 0 9e 40 64
        E 0 8a 40 64
        E 0 8e 40 64
        E 0 9a 40 64
        E 0 9e 40 64
        E 0 8a 40 64
        E 0 8e 40 64
        E 0 8f 30 64
        E 0 9a 45 64
        E 0 9e 45 64
        E 0 9f 30 5a
        E 0 8a 45 64
        E 0 8e 45 64
        E 0 9a 45 64
        E 0 9e 45 64
        E 0 8a 45 64
        E 0 8e 45 64
        E 38403 9a 40 64
        E 0 9e 40 64
        E 0 8a 40 64
        E 0 8e 40 64
        E 0 8f 30 64
        E 0 9a 42 64
        E 0 9e 42 64
        E 0 9f 2f 5a
        E 0 8a 42 64
        E 0 8e 42 64
        E 0 9a 42 64
        E 0 9e 42 64
        E 0 8a 42 64
        E 0 8e 42 64
        E 0 8f 2f 64
        E 0 97 47 64
        E 0 9e 47 64
        E 0 9f 2f 5a
        E 0 87 47 64
        E 0 8e 47 64
        E 0 97 42 64
        E 0 9e 42 64
        E 0 87 42 64
        E 0 8e 42 64
        E 0 8f 2f 64
        E 0 9f 34 5a
        E 0 97 48 64
        E 0 9e 48 64
        E 0 87 48 64
        E 0 8e 48 64
        E 0 97 46 64
        E 0 9e 46 64
        E 0 87 46 64
        E 0 8e 46 64
        E 0 97 47 64
        E 0 9e 47 64
        E 0 87 47 64
        E 0 8e 47 64
        E 0 8f 34 64
        E 0 97 42 64
        E 0 9e 42 64
        E 0 9f 36 5a
        E 0 87 42 64
        E 0 8e 42 64
        E 0 97 42 64
        E 0 9e 42 64
        E 0 87 42 64
        E 0 8e 42 64
        E 0 8f 36 64
        E 0 9f 2f 5a
        E 0 8f 2f 64
        E 0 97 4a 64
        E 1 9e 4a 64
        E 0 9f 2f 5a
        E 0 87 4a 64
        E 0 8e 4a 64
        E 0 97 4a 64
        E 0 9e 4a 64
        E 0 87 4a 64
        E 0 8e 4a 64
        E 0 97 47 64
        E 0 9e 47 64
        E 0 87 47 64
        E 0 8e 47 64
        E 0 97 47 64
        E 0 9e 47 64
        E 0 87 47 64
        E 0 8e 47 64
        E 0 97 45 64
        E 0 9e 45 64
        E 0 87 45 64
        E 0 8e 45 64
        E 0 8f 2f 64
        E 1 97 42 64
        E 0 9e 42 64
        E 0 9f 31 5a
        E 0 87 42 64
        E 0 8e 42 64
        E 0 97 42 64
        E 0 9e 42 64
        E 0 87 42 64
        E 0 8e 42 64
        E 0 8f 31 64
        E 0 9f 2a 5a
        E 0 8f 2a 64
        E 0 9a 45 64
        E 0 9e 45 64
        E 0 9f 2a 5a
        E 0 8a 45 64
        E 0 8e 45 64
        E 0 9a 45 64
        E 0 9e 45 64
        E 0 8a 45 64
        E 0 8e 45 64
        E 0 9a 45 64
        E 0 9e 45 64
        E 0 8a 45 64
        E 0 8e 45 64
        E 0 9a 49 64
        E 0 9e 49 64
        E 0 8a 49 64
        E 0 8e 49 64
        E 0 8f 2a 64
        E 0 9a 42 64
        E 0 9e 42 64
        E 0 9f 2a 5a
        E 0 8a 42 64
        E 0 8e 42 64
        E 0 9a 42 64
        E 0 9e 42 64
        E 0 8a 42 64
        E 0 8e 42 64
        E 1 9a 42 64
        E 0 9e 42 64
        E 0 8a 42 64
        E 0 8e 42 64
        E 0 9a 43 64
        E 0 9e 43 64
        E 0 8a 43 64
        E 0 8e 43 64
        E 0 8f 2a 64
        E 0 9a 43 64
        E 0 9e 43 64
        E 0 9f 2e 5a
        E 0 8a 43 64
        E 0 8e 43 64
        E 0 9a 43 64
        E 0 9e 43 64
        E 0 8a 43 64
        E 0 8e 43 64
        E 0 9a 42 64
        E 0 9e 42 64
        E 0 8a 42 64
        E 0 8e 42 64
        E 0 8f 2e 64
        E 0 9a 3e 64
        E 0 9e 3e 64
        E 0 9f 2f 5a
        E 0 8a 3e 64
        E 0 8e 3e 64
        E 0 9a 3e 64
        E 0 9e 3e 64
        E 0 8a 3e 64
        E 0 8e 3e 64
        E 0 9a 47 64
        E 0 9e 47 64
        E 0 8a 47 64
        E 0 8e 47 64
        E 0 9a 47 64
        E 0 9e 47 64
        E 0 8a 47 64
        E 0 8e 47 64
        E 0 9a 47 64
        E 0 9e 47 64
        E 0 8a 47 64
        E 0 8e 47 64
        E 0 9a 42 64
        E 0 9e 42 64
        E 0 8a 42 64
        E 0 8e 42 64
        E 0 9a 42 64
        E 0 9e 42 64
        E 0 8a 42 64
        E 0 8e 42 64
        E 0 8f 2f 64
        E 0 9a 42 64
        E 0 9e 42 64
        E 0 9f 2f 5a
        E 0 8a 42 64
        E 0 8e 42 64
        E 1 9a 42 64
        E 0 9e 42 64
        E 0 8a 42 64
        E 0 8e 42 64
        E 0 9a 43 64
        E 0 9e 43 64
        E 0 8a 43 64
        E 0 8e 43 64
        E 0 8f 2f 64
        E 0 9a 43 64
        E 0 9e 43 64
        E 0 9f 2d 5a
        E 0 8a 43 64
        E 0 8e 43 64
        E 0 9a 46 64
        E 0 9e 46 64
        E 0 8a 46 64
        E 0 8e 46 64
        E 0 9a 43 64
        E 0 9e 43 64
        E 0 8a 43 64
        E 0 8e 43 64
        E 0 9a 41 64
        E 0 9e 41 64
        E 0 8a 41 64
        E 0 8e 41 64
        E 0 8f 2d 64
        E 0 9a 3e 64
        E 0 9e 3e 64
        E 0 9f 32 5a
        E 0 8a 3e 64
        E 0 8e 3e 64
        E 0 9a 3e 64
        E 0 9e 3e 64
        E 0 8a 3e 64
        E 0 8e 3e 64
        E 0 9a 41 64
        E 0 9e 41 64
        E 0 8a 41 64
        E 0 8e 41 64
        E 0 9a 46 66
        E 0 9e 46 66
        E 0 8a 46 66
        E 0 8e 46 66
        E 0 9a 46 66
        E 0 9e 46 66
        E 0 8a 46 66
        E 0 8e 46 66
        E 0 8f 32 64
        E 0 9a 41 64
        E 0 9e 41 64
        E 0 9f 32 5a
        E 0 8a 41 64
        E 0 8e 41 64
        E 0 9a 43 64
        E 0 9e 43 64
        E 0 8a 43 64
        E 0 8e 43 64
        E 0 9a 44 64
        E 0 9e 44 64
        E 0 8a 44 64
        E 0 8e 44 64
        E 0 9a 44 64
        E 0 9e 44 64
        E 0 8a 44 64
        E 0 8e 44 64
        E 0 9a 43 64
        E 0 9e 43 64
        E 0 8a 43 64
        E 0 8e 43 64
        E 0 8f 32 64
        E 0 9a 43 64
        E 0 9e 43 64
        E 0 9f 33 5b
        E 0 8a 43 64
        E 0 8e 43 64
        E 0 9a 43 64
        E 0 9e 43 64
        E 0 8a 43 64
        E 0 8e 43 64
        E 0 9a 45 64
        E 0 9e 45 64
        E 0 8a 45 64
        E 0 8e 45 64
        E 0 9a 46 66
        E 0 9e 46 66
        E 0 8a 46 66
        E 0 8e 46 66
        E 0 8f 33 66
        E 0 9a 41 64
        E 0 9e 41 64
        E 0 9f 35 5a
        E 0 8a 41 64
        E 0 8e 41 64
        E 0 9a 41 64
        E 0 9e 41 64
        E 0 8a 41 64
        E 0 8e 41 64
        E 0 8f 35 64
        E 0 97 4a 64
        E 0 9e 4a 64
        E 0 9f 2e 5b
        E 0 87 4a 64
        E 0 8e 4a 64
        E 0 97 48 64
        E 0 9e 48 64
        E 1 87 48 64
        E 0 8e 48 64
        E 0 97 4a 64
        E 0 9e 4a 64
        E 0 87 4a 64
        E 0 8e 4a 64
        E 0 8f 2e 66
        E 0 97 46 66
        E 0 9e 46 66
        E 0 9f 2e 5b
        E 0 87 46 66
        E 0 8e 46 66
        E 0 97 45 64
        E 0 9e 45 64
        E 0 87 45 64
        E 0 8e 45 64
        E 0 8f 2e 66
        E 0 97 48 64
        E 0 9e 48 64
        E 0 9f 35 5a
        E 0 87 48 64
        E 0 8e 48 64
        E 0 97 48 64
        E 0 9e 48 64
        E 0 87 48 64
        E 0 8e 48 64
        E 38403 8f 35 64
        E 0 92 51 64
        E 0 93 45 5a
        E 0 97 4a 64
        E 0 9e 4a 64
        E 0 9f 36 5a
        E 0 82 51 64
        E 0 83 45 64
        E 0 87 4a 64
        E 0 8e 4a 64
        E 0 8f 36 64
        E 0 97 45 64
        E 0 9e 45 64
        E 0 87 45 64
        E 0 8e 45 64
        E 0 97 48 64
        E 0 9e 48 64
        E 0 87 48 64
        E 0 8e 48 64
        E 0 97 48 64
        E 0 9e 48 64
        E 0 87 48 64
        E 0 8e 48 64
        E 0 97 46 66
        E 0 9e 46 66
        E 0 87 46 66
        E 0 8e 46 66
        E 0 92 4f 64
        E 0 93 46 5b
        E 0 97 43 64
        E 0 9e 43 64
        E 0 9f 37 5a
        E 0 82 4f 64
        E 0 83 46 66
        E 0 87 43 64
        E 0 8e 43 64
        E 0 8f 37 64
        E 0 97 46 66
        E 0 9e 46 66
        E 0 87 46 66
        E 0 8e 46 66
        E 0 97 46 66
        E 0 9e 46 66
        E 0 87 46 66
        E 1 8e 46 66
        E 0 97 4a 64
        E 0 9e 4a 64
        E 0 87 4a 64
        E 0 8e 4a 64
        E 0 97 43 64
        E 0 9e 43 64
        E 0 87 43 64
        E 0 8e 43 64
        E 0 97 43 64
        E 0 9e 43 64
        E 0 87 43 64
        E 0 8e 43 64
        E 0 92 4f 64
        E 0 93 47 5a
        E 0 97 47 64
        E 0 9e 47 64
        E 0 9f 35 5a
        E 0 82 4f 64
        E 0 83 47 64
        E 0 87 47 64
        E 0 8e 47 64
        E 0 8f 35 64
        E 0 97 47 64
        E 0 9e 47 64
        E 0 87 47 64
        E 0 8e 47 64
        E 0 97 48 64
        E 0 9e 48 64
        E 0 87 48 64
        E 0 8e 48 64
        E 0 92 4f 64
        E 0 93 43 5a
        E 0 97 43 64
        E 0 9e 43 64
        E 0 9f 33 5b
        E 0 87 43 64
        E 0 8e 43 64
        E 0 97 43 64
        E 0 9e 43 64
        E 0 82 4f 64
        E 0 83 43 64
        E 0 87 43 64
        E 0 8e 43 64
        E 0 8f 33 66
        E 1 97 4b 66
        E 0 9e 4b 66
        E 0 87 4b 66
        E 0 8e 4b 66
        E 0 97 4b 66
        E 0 9e 4b 66
        E 0 87 4b 66
        E 0 8e 4b 66
        E 0 97 4b 66
        E 0 9e 4b 66
        E 0 87 4b 66
        E 0 8e 4b 66
        E 0 97 48 64
        E 0 9e 48 64
        E 0 87 48 64
        E 0 8e 48 64
        E 0 97 48 64
        E 0 9e 48 64
        E 0 87 48 64
        E 0 8e 48 64
        E 0 97 43 64
        E 0 9e 43 64
        E 0 87 43 64
        E 0 8e 43 64
        E 0 97 3f 66
        E 0 9e 3f 66
        E 0 87 3f 66
        E 0 8e 3f 66
        E 0 97 3f 66
        E 0 9e 3f 66
        E 0 87 3f 66
        E 0 8e 3f 66
        E 0 97 48 64
        E 0 9e 48 64
        E 0 87 48 64
        E 0 8e 48 64
        E 0 97 48 64
        E 0 9e 48 64
        E 0 87 48 64
        E 0 8e 48 64
        E 0 97 48 64
        E 0 9e 48 64
        E 0 87 48 64
        E 0 8e 48 64
        E 0 92 4d 64
        E 0 93 45 5a
        E 0 97 45 64
        E 0 9e 45 64
        E 0 9f 35 5a
        E 0 82 4d 64
        E 0 83 45 64
        E 0 87 45 64
        E 0 8e 45 64
        E 0 8f 35 64
        E 0 97 48 64
        E 0 9e 48 64
        E 0 87 48 64
        E 0 8e 48 64
        E 0 97 48 64
        E 0 9e 48 64
        E 0 87 48 64
        E 0 8e 48 64
        E 0 97 49 66
        E 0 9e 49 66
        E 0 87 49 66
        E 0 8e 49 66
        E 0 92 4d 64
        E 0 93 46 5b
        E 0 97 46 66
        E 0 9e 46 66
        E 0 9f 2e 5b
        E 0 82 4d 64
        E 0 83 46 66
        E 0 87 46 66
        E 0 8e 46 66
        E 0 8f 2e 66
        E 0 97 41 64
        E 0 9e 41 64
        E 0 87 41 64
        E 0 8e 41 64
        E 0 92 46 66
        E 0 93 41 5a
        E 0 97 46 66
        E 0 9e 46 66
        E 0 9f 31 5b
        E 0 87 46 66
        E 0 8e 46 66
        E 0 97 46 66
        E 0 9e 46 66
        E 0 82 46 66
        E 0 83 41 64
        E 0 87 46 66
        E 0 8e 46 66
        E 0 8f 31 66
        E 0 97 41 64
        E 1 9e 41 64
        E 0 87 41 64
        E 0 8e 41 64
        E 0 92 48 64
        E 0 93 40 5a
        E 0 97 43 64
        E 0 9e 43 64
        E 0 9f 30 5a
        E 0 87 43 64
        E 0 8e 43 64
        E 0 97 43 64
        E 0 9e 43 64
        E 0 82 48 64
        E 0 83 40 64
        E 0 87 43 64
        E 0 8e 43 64
        E 0 8f 30 64
        E 0 92 51 64
        E 0 93 49 5a
        E 0 97 49 64
        E 0 9e 49 64
        E 0 9f 37 5a
        E 0 82 51 64
        E 0 83 49 64
        E 0 87 49 64
        E 0 8e 49 64
        E 0 8f 37 64
        E 0 97 49 64
        E 0 9e 49 64
        E 0 87 49 64
        E 0 8e 49 64
        E 0 97 4a 64
        E 0 9e 4a 64
        E 0 87 4a 64
        E 0 8e 4a 64
        E 0 92 51 64
        E 0 93 4a 5a
        E 0 97 45 64
        E 0 9e 45 64
        E 0 9f 35 5a
        E 0 82 51 64
        E 0 87 45 64
        E 0 8e 45 64
        E 0 92 51 64
        E 0 97 45 64
        E 0 9e 45 64
        E 0 82 51 64
        E 0 92 4d 64
        E 0 82 4d 64
        E 0 83 4a 64
        E 0 87 45 64
        E 0 8e 45 64
        E 0 8f 35 64
        E 0 92 4a 64
        E 0 82 4a 64
        E 0 92 45 64
        E 0 82 45 64
        E 1 92 42 64
        E 0 82 42 64
        E 0 92 3f 64
        E 0 82 3f 64
        E 0 92 3b 64
        E 0 93 42 5a
        E 0 9f 33 5a
        E 0 97 47 64
        E 0 9e 47 64
        E 0 82 3b 64
        E 0 83 42 64
        E 0 87 47 64
        E 0 8e 47 64
        E 0 8f 33 64
        E 0 97 47 64
        E 0 9e 47 64
        E 0 87 47 64
        E 0 8e 47 64
        E 0 97 47 64
        E 0 9e 47 64
        E 0 87 47 64
        E 0 8e 47 64
        E 0 92 53 64
        E 0 93 43 5a
        E 0 97 4c 64
        E 0 9e 4c 64
        E 0 9f 37 5a
        E 0 87 4c 64
        E 0 8e 4c 64
        E 0 97 4c 64
        E 0 9e 4c 64
        E 0 82 53 64
        E 0 83 43 64
        E 0 87 4c 64
        E 0 8e 4c 64
        E 0 8f 37 64
        E 0 97 4c 64
        E 0 9e 4c 64
        E 0 87 4c 64
        E 0 8e 4c 64
        E 0 97 4c 64
        E 0 9e 4c 64
        E 0 87 4c 64
        E 0 8e 4c 64
        E 0 92 51 64
        E 0 93 45 5a
        E 0 97 45 64
        E 0 9e 45 64
        E 0 9f 30 5a
        E 0 82 51 64
        E 0 83 45 64
        E 0 87 45 64
        E 0 8e 45 64
        E 0 8f 30 64
        E 0 97 45 64
        E 0 9e 45 64
        E 0 87 45 64
        E 0 8e 45 64
        E 0 97 47 64
        E 0 9e 47 64
        E 0 87 47 64
        E 0 8e 47 64
        E 0 92 4e 64
        E 0 93 47 5a
        E 0 97 47 64
        E 0 9e 47 64
        E 0 9f 2f 5a
        E 0 82 4e 64
        E 0 92 53 64
        E 0 82 53 64
        E 0 92 4e 64
        E 0 82 4e 64
        E 0 83 47 64
        E 0 87 47 64
        E 0 8e 47 64
        E 0 8f 2f 64
        E 1 92 4b 64
        E 0 82 4b 64
        E 0 92 47 64
        E 0 82 47 64
        E 0 92 44 64
        E 0 82 44 64
        E 0 92 41 63
        E 0 82 41 63
        E 0 92 3d 64
        E 0 93 44 5a
        E 0 97 44 64
        E 0 9e 44 64
        E 0 9f 35 59
        E 0 82 3d 64
        E 0 83 44 64
        E 0 87 44 64
        E 0 8e 44 64
        E 0 8f 35 63
        E 38402 97 44 64
        E 0 9e 44 64
        E 0 87 44 64
        E 0 8e 44 64
        E 0 97 49 64
        E 1 9e 49 64
        E 0 87 49 64
        E 0 8e 49 64
        E 0 92 51 64
        E 0 93 49 5a
        E 0 97 45 64
        E 0 9e 45 64
        E 0 9f 36 5a
        E 1 87 45 64
        E 0 8e 45 64
        E 0 97 45 64
        E 0 9e 45 64
        E 0 82 51 64
        E 0 83 49 64
        E 0 87 45 64
        E 0 8e 45 64
        E 0 8f 36 64
        E 0 97 42 64
        E 0 9e 42 64
        E 0 87 42 64
        E 0 8e 42 64
        E 0 97 42 64
        E 0 9e 42 64
        E 0 87 42 64
        E 0 8e 42 64
        E 0 97 48 63
        E 0 9e 48 63
        E 0 87 48 63
        E 0 8e 48 63
        E 0 97 48 63
        E 0 9e 48 63
        E 0 87 48 63
        E 0 8e 48 63
        E 0 97 49 64
        E 0 9e 49 64
        E 0 87 49 64
        E 0 8e 49 64
        E 0 92 50 64
        E 0 93 48 59
        E 0 97 44 64
        E 0 9e 44 64
        E 0 9f 38 5a
        E 0 82 50 64
        E 0 83 48 63
        E 0 87 44 64
        E 0 8e 44 64
        E 0 8f 38 64
        E 0 92 50 64
        E 0 93 49 5a
        E 0 9f 31 5a
        E 0 82 50 64
        E 0 83 49 64
        E 0 8f 31 64
        E 0 97 49 64
        E 0 9e 49 64
        E 0 87 49 64
        E 0 8e 49 64
        E 0 97 47 64
        E 0 9e 47 64
        E 0 87 47 64
        E 0 8e 47 64
        E 1 97 49 64
        E 0 9e 49 64
        E 0 87 49 64
        E 0 8e 49 64
        E 0 97 4a 64
        E 0 9e 4a 64
        E 0 9f 2f 5a
        E 0 87 4a 64
        E 0 8e 4a 64
        E 0 97 4a 64
        E 0 9e 4a 64
        E 0 87 4a 64
        E 0 8e 4a 64
        E 0 8f 2f 64
        E 0 97 47 64
        E 0 9e 47 64
        E 0 87 47 64
        E 0 8e 47 64
        E 0 97 47 64
        E 0 9e 47 64
        E 0 87 47 64
        E 0 8e 47 64
        E 0 97 4c 64
        E 0 9e 4c 64
        E 0 9f 37 5a
        E 0 87 4c 64
        E 0 8e 4c 64
        E 0 8f 37 64
        E 0 97 4c 64
        E 0 9e 4c 64
        E 0 87 4c 64
        E 0 8e 4c 64
        E 0 97 47 64
        E 0 9e 47 64
        E 0 87 47 64
        E 0 8e 47 64
        E 0 97 49 64
        E 0 9e 49 64
        E 0 9f 36 5a
        E 0 87 49 64
        E 0 8e 49 64
        E 0 8f 36 64
        E 0 97 4e 64
        E 0 9e 4e 64
        E 0 87 4e 64
        E 0 8e 4e 64
        E 0 92 4d 64
        E 0 93 47 5a
        E 0 97 47 64
        E 0 9e 47 64
        E 0 9f 2f 5a
        E 0 82 4d 64
        E 0 83 47 64
        E 0 87 47 64
        E 0 8e 47 64
        E 0 8f 2f 64
        E 0 97 47 64
        E 0 9e 47 64
        E 0 87 47 64
        E 0 8e 47 64
        E 0 92 4f 64
        E 0 93 40 5a
        E 0 97 43 64
        E 0 9e 43 64
        E 0 9f 34 5a
        E 0 87 43 64
        E 0 8e 43 64
        E 0 97 43 64
        E 0 9e 43 64
        E 0 82 4f 64
        E 0 83 40 64
        E 0 87 43 64
        E 0 8e 43 64
        E 0 8f 34 64
        E 0 97 40 64
        E 0 9e 40 64
        E 0 87 40 64
        E 0 8e 40 64
        E 0 97 40 64
        E 0 9e 40 64
        E 0 87 40 64
        E 0 8e 40 64
        E 0 92 50 64
        E 0 93 3d 5a
        E 0 97 47 64
        E 0 9e 47 64
        E 0 9f 35 59
        E 0 82 50 64
        E 0 83 3d 64
        E 0 87 47 64
        E 0 8e 47 64
        E 0 8f 35 63
        E 0 97 46 64
        E 0 9e 46 64
        E 0 87 46 64
        E 0 8e 46 64
        E 0 97 47 64
        E 0 9e 47 64
        E 1 87 47 64
        E 0 8e 47 64
        E 0 92 4e 64
        E 0 93 3d 5a
        E 0 97 42 64
        E 0 9e 42 64
        E 0 9f 36 5a
        E 0 87 42 64
        E 0 8e 42 64
        E 0 97 42 64
        E 0 9e 42 64
        E 0 82 4e 64
        E 0 83 3d 64
        E 0 87 42 64
        E 0 8e 42 64
        E 0 8f 36 64
        E 0 92 4e 64
        E 0 93 3e 5a
        E 0 9f 2f 5a
        E 0 97 4a 64
        E 0 9e 4a 64
        E 0 82 4e 64
        E 0 83 3e 64
        E 0 87 4a 64
        E 0 8e 4a 64
        E 0 8f 2f 64
        E 0 97 47 64
        E 0 9e 47 64
        E 0 87 47 64
        E 0 8e 47 64
        E 0 97 43 64
        E 0 9e 43 64
        E 0 87 43 64
        E 0 8e 43 64
        E 0 97 45 64
        E 0 9e 45 64
        E 0 9f 32 5a
        E 0 87 45 64
        E 0 8e 45 64
        E 0 97 45 64
        E 0 9e 45 64
        E 0 87 45 64
        E 0 8e 45 64
        E 0 8f 32 64
        E 0 97 45 64
        E 0 9e 45 64
        E 0 87 45 64
        E 0 8e 45 64
        E 0 97 47 64
        E 0 9e 47 64
        E 0 87 47 64
        E 0 8e 47 64
        E 0 97 48 64
        E 0 9e 48 64
        E 0 87 48 64
        E 0 8e 48 64
        E 0 97 4a 64
        E 0 9e 4a 64
        E 0 87 4a 64
        E 0 8e 4a 64
        E 1 97 45 64
        E 0 9e 45 64
        E 0 87 45 64
        E 0 8e 45 64
        E 0 97 47 64
        E 0 9e 47 64
        E 0 9f 2b 5a
        E 0 87 47 64
        E 0 8e 47 64
        E 0 97 47 64
        E 0 9e 47 64
        E 0 87 47 64
        E 0 8e 47 64
        E 0 8f 2b 64
        E 0 97 43 64
        E 0 9e 43 64
        E 0 87 43 64
        E 0 8e 43 64
        E 0 97 43 64
        E 0 9e 43 64
        E 0 87 43 64
        E 0 8e 43 64
        E 0 97 43 64
        E 0 9e 43 64
        E 0 87 43 64
        E 0 8e 43 64
        E 0 92 4c 64
        E 0 93 45 5a
        E 0 97 49 64
        E 0 9e 49 64
        E 0 9f 37 5a
        E 0 87 49 64
        E 0 8e 49 64
        E 0 97 49 64
        E 0 9e 49 64
        E 0 82 4c 64
        E 0 83 45 64
        E 0 87 49 64
        E 0 8e 49 64
        E 0 8f 37 64
        E 0 97 49 64
        E 0 9e 49 64
        E 0 87 49 64
        E 0 8e 49 64
        E 0 97 4c 64
        E 0 9e 4c 64
        E 0 87 4c 64
        E 0 8e 4c 64
        E 0 97 49 64
        E 1 9e 49 64
        E 0 87 49 64
        E 0 8e 49 64
        E 0 97 47 64
        E 0 9e 47 64
        E 0 87 47 64
        E 0 8e 47 64
        E 0 97 45 64
        E 0 9e 45 64
        E 0 87 45 64
        E 0 8e 45 64
        E 0 92 4a 64
        E 0 93 45 5a
        E 0 97 4a 64
        E 0 9e 4a 64
        E 0 9f 35 5a
        E 0 87 4a 64
        E 0 8e 4a 64
        E 0 97 4a 64
        E 0 9e 4a 64
        E 0 82 4a 64
        E 0 83 45 64
        E 0 87 4a 64
        E 0 8e 4a 64
        E 0 8f 35 64
        E 0 97 45 64
        E 0 9e 45 64
        E 0 87 45 64
        E 0 8e 45 64
        E 0 97 45 64
        E 0 9e 45 64
        E 0 87 45 64
        E 0 8e 45 64
        E 0 97 45 64
        E 0 9e 45 64
        E 0 87 45 64
        E 0 8e 45 64
        E 0 92 4e 64
        E 0 93 47 5a
        E 0 97 4b 64
        E 0 9e 4b 64
        E 0 9f 39 5a
        E 0 87 4b 64
        E 0 8e 4b 64
        E 0 97 4b 64
        E 0 9e 4b 64
        E 1 82 4e 64
        E 0 83 47 64
        E 0 87 4b 64
        E 0 8e 4b 64
        E 0 8f 39 64
        E 0 97 47 64
        E 0 9e 47 64
        E 0 87 47 64
        E 0 8e 47 64
        E 0 97 47 64
        E 0 9e 47 64
        E 0 87 47 64
        E 0 8e 47 64
        E 0 97 47 64
        E 0 9e 47 64
        E 0 87 47 64
        E 0 8e 47 64
        E 0 92 4f 64
        E 0 93 47 5a
        E 0 97 4c 64
        E 0 9e 4c 64
        E 0 9f 37 5a
        E 0 87 4c 64
        E 0 8e 4c 64
        E 0 97 4c 64
        E 0 9e 4c 64
        E 0 82 4f 64
        E 0 83 47 64
        E 0 87 4c 64
        E 0 8e 4c 64
        E 0 8f 37 64
        E 38403 97 47 64
        E 0 9e 47 64
        E 0 87 47 64
        E 0 8e 47 64
        E 0 97 47 64
        E 0 9e 47 64
        E 0 87 47 64
        E 0 8e 47 64
        E 0 97 46 64
        E 0 9e 46 64
        E 0 87 46 64
        E 0 8e 46 64
        E 0 92 52 64
        E 0 93 46 5a
        E 0 97 49 64
        E 0 9e 49 64
        E 0 9f 36 5a
        E 0 87 49 64
        E 0 8e 49 64
        E 0 97 49 64
        E 0 9e 49 64
        E 0 82 52 64
        E 0 83 46 64
        E 0 87 49 64
        E 0 8e 49 64
        E 0 8f 36 64
        E 0 97 4a 64
        E 0 9e 4a 64
        E 0 87 4a 64
        E 0 8e 4a 64
        E 0 97 45 64
        E 0 9e 45 64
        E 0 87 45 64
        E 0 8e 45 64
        E 0 97 45 64
        E 1 9e 45 64
        E 0 87 45 64
        E 0 8e 45 64
        E 0 97 45 64
        E 0 9e 45 64
        E 0 87 45 64
        E 0 8e 45 64
        E 0 97 48 64
        E 0 9e 48 64
        E 0 87 48 64
        E 0 8e 48 64
        E 0 97 46 66
        E 0 9e 46 66
        E 0 87 46 66
        E 0 8e 46 66
        E 0 97 43 64
        E 0 9e 43 64
        E 0 9f 2b 5a
        E 0 87 43 64
        E 0 8e 43 64
        E 0 97 43 64
        E 0 9e 43 64
        E 0 87 43 64
        E 0 8e 43 64
        E 0 8f 2b 64
        E 0 92 46 66
        E 0 93 3a 5b
        E 0 97 46 66
        E 0 9e 46 66
        E 0 9f 32 5a
        E 0 87 46 66
        E 0 8e 46 66
        E 0 97 46 66
        E 0 9e 46 66
        E 0 87 46 66
        E 0 8e 46 66
        E 0 97 46 66
        E 0 9e 46 66
        E 0 82 46 66
        E 0 83 3a 66
        E 0 87 46 66
        E 0 8e 46 66
        E 0 8f 32 64
        E 0 97 48 64
        E 0 9e 48 64
        E 0 87 48 64
        E 0 8e 48 64
        E 0 97 4a 64
        E 0 9e 4a 64
        E 0 87 4a 64
        E 0 8e 4a 64
        E 0 92 46 66
        E 0 93 3a 5b
        E 0 97 43 64
        E 0 9e 43 64
        E 0 9f 33 5b
        E 0 87 43 64
        E 0 8e 43 64
        E 1 97 43 64
        E 0 9e 43 64
        E 0 82 46 66
        E 0 83 3a 66
        E 0 87 43 64
        E 0 8e 43 64
        E 0 8f 33 66
        E 0 97 4b 66
        E 0 9e 4b 66
        E 0 87 4b 66
        E 0 8e 4b 66
        E 0 97 4b 66
        E 0 9e 4b 66
        E 0 87 4b 66
        E 0 8e 4b 66
        E 0 92 46 66
        E 0 93 3c 5a
        E 0 97 45 64
        E 0 9e 45 64
        E 0 9f 33 5b
        E 0 82 46 66
        E 0 83 3c 64
        E 0 87 45 64
        E 0 8e 45 64
        E 0 8f 33 66
        E 0 97 45 64
        E 0 9e 45 64
        E 0 87 45 64
        E 0 8e 45 64
        E 0 97 46 66
        E 0 9e 46 66
        E 0 87 46 66
        E 0 8e 46 66
        E 0 92 45 64
        E 0 93 3c 5a
        E 0 97 41 64
        E 0 9e 41 64
        E 0 9f 35 5a
        E 0 87 41 64
        E 0 8e 41 64
        E 0 97 41 64
        E 0 9e 41 64
        E 0 82 45 64
        E 0 83 3c 64
        E 0 87 41 64
        E 0 8e 41 64
        E 0 8f 35 64
        E 0 92 46 66
        E 0 93 3e 5a
        E 0 9f 2e 5b
        E 0 82 46 66
        E 0 83 3e 64
        E 0 8f 2e 66
        E 0 97 46 66
        E 0 9e 46 66
        E 1 87 46 66
        E 0 8e 46 66
        E 0 97 46 66
        E 0 9e 46 66
        E 0 87 46 66
        E 0 8e 46 66
        E 0 97 48 64
        E 0 9e 48 64
        E 0 87 48 64
        E 0 8e 48 64
        E 0 97 43 64
        E 0 9e 43 64
        E 0 9f 34 5a
        E 0 87 43 64
        E 0 8e 43 64
        E 0 97 43 64
        E 0 9e 43 64
        E 0 87 43 64
        E 0 8e 43 64
        E 0 8f 34 64
        E 0 97 46 66
        E 0 9e 46 66
        E 0 87 46 66
        E 0 8e 46 66
        E 0 97 46 66
        E 0 9e 46 66
        E 0 87 46 66
        E 0 8e 46 66
        E 0 97 45 64
        E 0 9e 45 64
        E 0 87 45 64
        E 0 8e 45 64
        E 0 97 41 64
        E 0 9e 41 64
        E 0 9f 35 5a
        E 0 87 41 64
        E 0 8e 41 64
        E 0 8f 35 64
        E 0 92 48 64
        E 0 93 41 5a
        E 0 9f 35 5a
        E 0 97 48 64
        E 0 9e 48 64
        E 0 87 48 64
        E 0 8e 48 64
        E 0 97 48 64
        E 0 9e 48 64
        E 0 87 48 64
        E 0 8e 48 64
        E 1 97 46 66
        E 0 97 44 66
        E 0 9e 46 66
        E 0 9e 44 66
        E 0 82 48 64
        E 0 87 46 66
        E 0 87 44 66
        E 0 8e 46 66
        E 0 8e 44 66
        E 0 92 48 64
        E 0 97 43 64
        E 0 97 41 64
        E 0 9e 43 64
        E 0 9e 41 64
        E 0 87 43 64
        E 0 87 41 64
        E 0 8e 43 64
        E 0 8e 41 64
        E 0 97 41 64
        E 0 9e 41 64
        E 0 82 48 64
        E 0 87 41 64
        E 0 8e 41 64
        E 0 92 49 66
        E 0 97 49 66
        E 0 9e 49 66
        E 0 82 49 66
        E 0 83 41 64
        E 0 87 49 66
        E 0 8e 49 66
        E 0 8f 35 64
        E 0 92 4a 64
        E 0 93 43 5a
        E 0 97 47 64
        E 0 9e 47 64
        E 0 9f 35 5a
        E 0 87 47 64
        E 0 8e 47 64
        E 0 97 47 64
        E 0 9e 47 64
        E 0 87 47 64
        E 0 8e 47 64
        E 0 97 47 64
        E 0 9e 47 64
        E 0 87 47 64
        E 0 8e 47 64
        E 0 97 47 64
        E 0 9e 47 64
        E 0 87 47 64
        E 0 8e 47 64
        E 0 97 47 64
        E 0 9e 47 64
        E 0 87 47 64
        E 0 8e 47 64
        E 0 97 47 64
        E 0 9e 47 64
        E 0 87 47 64
        E 0 8e 47 64
        E 0 97 48 64
        E 0 9e 48 64
        E 0 82 4a 64
        E 0 83 43 64
        E 0 87 48 64
        E 0 8e 48 64
        E 0 8f 35 64
        E 0 92 4a 64
        E 0 93 43 5a
        E 0 97 43 64
        E 0 9e 43 64
        E 0 9f 37 5a
        E 0 87 43 64
        E 0 8e 43 64
        E 0 97 43 64
        E 0 9e 43 64
        E 0 82 4a 64
        E 0 83 43 64
        E 0 87 43 64
        E 0 8e 43 64
        E 0 8f 37 64
        E 0 92 4b 66
        E 0 93 43 5a
        E 1 9f 30 5a
        E 0 82 4b 66
        E 0 83 43 64
        E 0 8f 30 64
        E 0 92 4b 66
        E 0 93 43 5a
        E 0 9f 30 5a
        E 0 97 4b 66
        E 0 9e 4b 66
        E 0 87 4b 66
        E 0 8e 4b 66
        E 0 97 4a 64
        E 0 97 48 64
        E 0 9e 4a 64
        E 0 9e 48 64
        E 0 87 4a 64
        E 0 87 48 64
        E 0 8e 4a 64
        E 0 8e 48 64
        E 0 97 46 66
        E 0 9e 46 66
        E 0 87 46 66
        E 0 8e 46 66
        E 0 97 45 64
        E 0 9e 45 64
        E 0 82 4b 66
        E 0 83 43 64
        E 0 87 45 64
        E 0 8e 45 64
        E 0 8f 30 64
        E 0 92 45 64
        E 0 93 3e 5a
        E 0 97 43 64
        E 0 97 42 64
        E 0 9e 43 64
        E 0 9e 42 64
        E 0 9f 30 5a
        E 0 87 43 64
        E 0 87 42 64
        E 0 8e 43 64
        E 0 8e 42 64
        E 0 97 42 64
        E 0 9e 42 64
        E 0 87 42 64
        E 0 8e 42 64
        E 0 97 45 64
        E 0 9e 45 64
        E 0 87 45 64
        E 0 8e 45 64
        E 0 97 46 66
        E 0 9e 46 66
        E 0 87 46 66
        E 0 8e 46 66
        E 0 97 48 64
        E 0 9e 48 64
        E 0 87 48 64
        E 0 8e 48 64
        E 0 97 48 64
        E 0 9e 48 64
        E 0 87 48 64
        E 0 8e 48 64
        E 1 97 46 66
        E 0 9e 46 66
        E 0 82 45 64
        E 0 83 3e 64
        E 0 87 46 66
        E 0 8e 46 66
        E 0 8f 30 64
        E 0 92 46 66
        E 0 93 3e 5a
        E 0 97 43 64
        E 0 9e 43 64
        E 0 9f 2e 5b
        E 0 87 43 64
        E 0 8e 43 64
        E 26866 97 4a 64
        E 0 9e 4a 64
        E 0 87 4a 64
        E 0 8e 4a 64
        E 0 97 4a 64
        E 0 9e 4a 64
        E 0 87 4a 64
        E 0 8e 4a 64
        E 0 97 48 64
        E 0 97 47 64
        E 0 9e 48 64
        E 0 9e 47 64
        E 0 87 48 64
        E 0 87 47 64
        E 0 8e 48 64
        E 0 8e 47 64
        E 0 97 45 64
        E 0 9e 45 64
        E 0 82 46 66
        E 0 83 3e 64
        E 0 87 45 64
        E 0 8e 45 64
        E 0 8f 2e 66
        E 0 92 47 64
        E 0 93 40 5a
        E 1 97 44 64
        E 0 9e 44 64
        E 0 9f 32 5a
        E 0 87 44 64
        E 0 8e 44 64
        E 0 97 44 64
        E 0 9e 44 64
        E 0 87 44 64
        E 0 8e 44 64
        E 0 97 47 64
        E 0 9e 47 64
        E 0 87 47 64
        E 0 8e 47 64
        E 0 97 47 64
        E 0 9e 47 64
        E 0 87 47 64
        E 0 8e 47 64
        E 0 97 47 64
        E 0 9e 47 64
        E 0 87 47 64
        E 0 8e 47 64
        E 0 97 47 64
        E 0 9e 47 64
        E 0 87 47 64
        E 0 8e 47 64
        E 0 97 48 64
        E 0 9e 48 64
        E 0 82 47 64
        E 0 83 40 64
        E 0 87 48 64
        E 0 8e 48 64
        E 0 8f 32 64
        E 0 92 47 64
        E 0 93 40 5a
        E 0 97 4a 64
        E 1 9e 4a 64
        E 0 9f 32 5a
        E 0 87 4a 64
        E 0 8e 4a 64
        E 0 97 4a 64
        E 0 9e 4a 64
        E 0 87 4a 64
        E 0 8e 4a 64
        E 0 97 4d 64
        E 0 9e 4d 64
        E 0 87 4d 64
        E 0 8e 4d 64
        E 0 97 4a 64
        E 0 9e 4a 64
        E 0 87 4a 64
        E 0 8e 4a 64
        E 0 97 48 64
        E 0 9e 48 64
        E 0 82 47 64
        E 0 83 40 64
        E 0 87 48 64
        E 0 8e 48 64
        E 0 8f 32 64
        E 0 92 45 64
        E 0 93 40 5a
        E 0 97 45 64
        E 0 9e 45 64
        E 0 9f 30 5a
        E 0 87 45 64
        E 0 8e 45 64
        E 0 97 45 64
        E 0 9e 45 64
        E 0 87 45 64
        E 0 8e 45 64
        E 0 97 4c 64
        E 0 9e 4c 64
        E 0 82 45 64
        E 0 83 40 64
        E 0 87 4c 64
        E 0 8e 4c 64
        E 0 8f 30 64
        E 0 92 45 64
        E 0 93 40 5a
        E 0 97 48 64
        E 0 9e 48 64
        E 0 9f 30 5a
        E 0 87 48 64
        E 0 8e 48 64
        E 0 97 47 64
        E 0 9e 47 64
        E 0 87 47 64
        E 0 8e 47 64
        E 0 97 45 64
        E 0 9e 45 64
        E 0 87 45 64
        E 0 8e 45 64
        E 0 97 43 64
        E 0 9e 43 64
        E 0 83 40 64
        E 0 87 43 64
        E 0 8e 43 64
        E 0 8f 30 64
        E 0 93 3e 5a
        E 0 97 41 64
        E 0 9e 41 64
        E 1 9f 32 5a
        E 0 87 41 64
        E 0 8e 41 64
        E 0 97 4a 64
        E 0 9e 4a 64
        E 0 87 4a 64
        E 0 8e 4a 64
        E 1 97 47 64
        E 0 9e 47 64
        E 0 82 45 64
        E 0 83 3e 64
        E 0 87 47 64
        E 0 8e 47 64
        E 0 8f 32 64
        E 0 92 47 64
        E 0 93 40 5a
        E 0 97 44 64
        E 0 9e 44 64
        E 0 9f 32 5a
        E 0 87 44 64
        E 0 8e 44 64
        E 0 97 44 64
        E 0 9e 44 64
        E 0 87 44 64
        E 0 8e 44 64
        E 0 97 4d 64
        E 0 9e 4d 64
        E 0 87 4d 64
        E 0 8e 4d 64
        E 0 97 4c 64
        E 0 97 4a 64
        E 0 9e 4c 64
        E 0 9e 4a 64
        E 0 87 4a 64
        E 0 8e 4a 64
        E 0 97 48 64
        E 0 9e 48 64
        E 0 82 47 64
        E 0 83 40 64
        E 0 87 4c 64
        E 0 87 48 64
        E 0 8e 4c 64
        E 0 8e 48 64
        E 1 8f 32 64
        E 0 92 47 64
        E 0 93 40 5a
        E 0 97 47 64
        E 0 97 45 64
        E 0 9e 47 64
        E 0 9e 45 64
        E 0 9f 34 5a
        E 0 87 47 64
        E 0 87 45 64
        E 0 8e 47 64
        E 0 8e 45 64
        E 0 97 45 64
        E 0 9e 45 64
        E 0 82 47 64
        E 0 83 40 64
        E 0 87 45 64
        E 0 8e 45 64
        E 0 8f 34 64
        E 0 92 48 64
        E 0 93 40 5a
        E 0 9f 2d 5a
        E 0 82 48 64
        E 0 83 40 64
        E 0 8f 2d 64
        E 0 97 4c 64
        E 0 9e 4c 64
        E 1 9f 2d 5a
        E 0 87 4c 64
        E 0 8e 4c 64
        E 0 97 45 64
        E 0 9e 45 64
        E 0 87 45 64
        E 0 8e 45 64
        E 0 97 45 64
        E 0 9e 45 64
        E 0 87 45 64
        E 0 8e 45 64
        E 0 97 48 64
        E 0 9e 48 64
        E 0 87 48 64
        E 0 8e 48 64
        E 0 97 45 64
        E 0 9e 45 64
        E 0 87 45 64
        E 0 8e 45 64
        E 0 8f 2d 64
        E 0 97 47 64
        E 0 9e 47 64
        E 0 9f 2c 5a
        E 0 87 47 64
        E 0 8e 47 64
        E 0 97 47 64
        E 0 9e 47 64
        E 0 87 47 64
        E 0 8e 47 64
        E 0 8f 2c 64
        E 0 97 4c 64
        E 0 9e 4c 64
        E 0 9f 34 5a
        E 0 87 4c 64
        E 0 8e 4c 64
        E 0 97 47 64
        E 0 9e 47 64
        E 0 87 47 64
        E 0 8e 47 64
        E 0 97 47 64
        E 0 9e 47 64
        E 0 87 47 64
        E 0 8e 47 64
        E 0 8f 34 64
        E 0 9f 34 5a
        E 0 96 43 64
        E 0 9e 43 64
        E 0 86 43 64
        E 0 8e 43 64
        E 0 96 43 64
        E 0 9e 43 64
        E 0 86 43 64
        E 0 8e 43 64
        E 1 96 43 64
        E 0 9e 43 64
        E 0 86 43 64
        E 0 8e 43 64
        E 0 96 48 64
        E 0 9e 48 64
        E 0 86 48 64
        E 0 8e 48 64
        E 0 96 48 64
        E 0 9e 48 64
        E 464 86 48 64
        E 0 8e 48 64
        E 1 96 43 64
        E 0 9e 43 64
        E 473 86 43 64
        E 0 8e 43 64
        E 0 8f 34 64
        E 0 96 45 64
        E 0 9e 45 64
        E 0 9f 32 5a
        E 471 86 45 64
        E 1 8e 45 64
        E 0 96 45 64
        E 0 9e 45 64
        E 629 86 45 64
        E 0 8e 45 64
        E 943 97 4a 64
        E 1 9e 4a 64
        E 488 87 4a 64
        E 0 8e 4a 64
        E 1 97 45 64
        E 0 9e 45 64
        E 456 87 45 64
        E 0 8e 45 64
        E 471 97 4a 64
        E 0 9e 4a 64
        E 474 87 4a 64
        E 0 8e 4a 64
        E 0 8f 32 64
        E 0 97 47 64
        E 0 9e 47 64
        E 0 9f 2b 5a
        E 470 87 47 64
        E 0 8e 47 64
        E 0 97 47 64
        E 0 9e 47 64
        E 472 87 47 64
        E 0 8e 47 64
        E 477 97 4a 64
        E 0 9e 4a 64
        E 482 87 4a 64
        E 0 8e 4a 64
        E 0 97 43 64
        E 0 9e 43 64
        E 458 87 43 64
        E 0 8e 43 64
        E 1 97 43 64
        E 0 9e 43 64
        E 471 87 43 64
        E 0 8e 43 64
        E 478 97 43 64
        E 0 9e 43 64
        E 466 87 43 64
        E 0 8e 43 64
        E 0 8f 2b 64
        E 0 97 47 64
        E 0 9e 47 64
        E 0 9f 2c 5a
        E 473 87 47 64
        E 0 8e 47 64
        E 0 97 47 64
        E 0 9e 47 64
        E 481 87 47 64
        E 0 8e 47 64
        E 0 97 47 64
        E 0 9e 47 64
        E 38403 87 47 64
        E 0 8e 47 64
        E 0 97 48 64
        E 0 9e 48 64
        E 0 87 48 64
        E 0 8e 48 64
        E 0 8f 2c 64
        E 0 97 45 64
        E 0 9e 45 64
        E 0 9f 2d 5a
        E 0 87 45 64
        E 0 8e 45 64
        E 0 97 45 64
        E 0 9e 45 64
        E 0 87 45 64
        E 0 8e 45 64
        E 0 96 40 64
        E 0 9e 40 64
        E 0 86 40 64
        E 0 8e 40 64
        E 0 8f 2d 64
        E 0 96 45 64
        E 0 9e 45 64
        E 0 9f 2d 5a
        E 0 86 45 64
        E 0 8e 45 64
        E 0 96 48 64
        E 0 9e 48 64
        E 0 86 48 64
        E 0 8e 48 64
        E 0 8f 2d 64
        E 0 96 45 64
        E 0 9e 45 64
        E 0 9f 35 5a
        E 0 86 45 64
        E 0 8e 45 64
        E 0 96 45 64
        E 0 9e 45 64
        E 0 86 45 64
        E 0 8e 45 64
        E 0 96 44 64
        E 0 9e 44 64
        E 0 86 44 64
        E 0 8e 44 64
        E 0 8f 35 64
        E 0 96 47 64
        E 0 9e 47 64
        E 0 9f 34 5a
        E 0 86 47 64
        E 0 8e 47 64
        E 0 97 4a 64
        E 0 9e 4a 64
        E 0 87 4a 64
        E 0 8e 4a 64
        E 1 97 4a 64
        E 0 9e 4a 64
        E 0 87 4a 64
        E 0 8e 4a 64
        E 0 97 49 64
        E 0 9e 49 64
        E 0 87 49 64
        E 0 8e 49 64
        E 0 8f 34 64
        E 0 97 49 64
        E 0 9e 49 64
        E 0 9f 35 59
        E 0 87 49 64
        E 0 8e 49 64
        E 0 97 49 64
        E 0 9e 49 64
        E 0 87 49 64
        E 0 8e 49 64
        E 0 97 49 64
        E 0 9e 49 64
        E 0 87 49 64
        E 0 8e 49 64
        E 0 97 44 64
        E 0 9e 44 64
        E 0 87 44 64
        E 0 8e 44 64
        E 0 97 45 64
        E 0 9e 45 64
        E 0 87 45 64
        E 0 8e 45 64
        E 0 8f 35 63
        E 0 97 42 64
        E 0 9e 42 64
        E 0 9f 36 5a
        E 0 87 42 64
        E 0 8e 42 64
        E 0 97 42 64
        E 0 9e 42 64
        E 0 87 42 64
        E 0 8e 42 64
        E 0 96 49 64
        E 0 9e 49 64
        E 0 86 49 64
        E 0 8e 49 64
        E 1 96 49 64
        E 0 9e 49 64
        E 0 86 49 64
        E 0 8e 49 64
        E 0 96 42 64
        E 0 9e 42 64
        E 0 86 42 64
        E 0 8e 42 64
        E 0 8f 36 64
        E 0 96 44 64
        E 0 9e 44 64
        E 0 9f 31 5a
        E 0 86 44 64
        E 0 8e 44 64
        E 0 96 44 64
        E 0 9e 44 64
        E 0 86 44 64
        E 0 8e 44 64
        E 0 97 49 64
        E 0 9e 49 64
        E 0 87 49 64
        E 0 8e 49 64
        E 0 97 44 64
        E 0 9e 44 64
        E 0 87 44 64
        E 0 8e 44 64
        E 0 97 44 64
        E 0 9e 44 64
        E 0 87 44 64
        E 0 8e 44 64
        E 0 97 49 64
        E 0 9e 49 64
        E 0 87 49 64
        E 0 8e 49 64
        E 0 8f 31 64
        E 0 97 46 64
        E 0 9e 46 64
        E 0 9f 34 5a
        E 0 87 46 64
        E 0 8e 46 64
        E 0 97 46 64
        E 0 9e 46 64
        E 0 87 46 64
        E 0 8e 46 64
        E 0 97 49 64
        E 0 9e 49 64
        E 0 87 49 64
        E 0 8e 49 64
        E 0 97 4c 64
        E 0 9e 4c 64
        E 0 87 4c 64
        E 0 8e 4c 64
        E 0 97 4a 64
        E 0 9e 4a 64
        E 0 87 4a 64
        E 0 8e 4a 64
        E 0 8f 34 64
        E 0 97 47 64
        E 0 9e 47 64
        E 0 9f 32 5a
        E 0 87 47 64
        E 0 8e 47 64
        E 0 97 47 64
        E 0 9e 47 64
        E 0 87 47 64
        E 0 8e 47 64
        E 0 97 47 64
        E 0 9e 47 64
        E 0 87 47 64
        E 0 8e 47 64
        E 1 97 47 64
        E 0 9e 47 64
        E 0 87 47 64
        E 0 8e 47 64
        E 0 97 47 64
        E 0 9e 47 64
        E 0 87 47 64
        E 0 8e 47 64
        E 0 8f 32 64
        E 0 97 4c 64
        E 0 9e 4c 64
        E 0 9f 37 5a
        E 0 87 4c 64
        E 0 8e 4c 64
        E 0 97 4c 64
        E 0 9e 4c 64
        E 0 87 4c 64
        E 0 8e 4c 64
        E 0 8f 37 64
        E 0 97 45 64
        E 0 9e 45 64
        E 0 9f 30 5a
        E 0 87 45 64
        E 0 8e 45 64
        E 0 97 45 64
        E 0 9e 45 64
        E 0 87 45 64
        E 0 8e 45 64
        E 0 97 45 64
        E 0 9e 45 64
        E 0 87 45 64
        E 0 8e 45 64
        E 0 97 45 64
        E 0 9e 45 64
        E 0 87 45 64
        E 0 8e 45 64
        E 0 97 47 64
        E 0 9e 47 64
        E 0 87 47 64
        E 0 8e 47 64
        E 0 8f 30 64
        E 0 97 47 64
        E 0 9e 47 64
        E 0 9f 2f 5a
        E 0 87 47 64
        E 0 8e 47 64
        E 0 97 4a 64
        E 0 9e 4a 64
        E 0 87 4a 64
        E 0 8e 4a 64
        E 0 97 47 64
        E 0 9e 47 64
        E 0 87 47 64
        E 0 8e 47 64
        E 0 97 47 64
        E 0 9e 47 64
        E 0 87 47 64
        E 0 8e 47 64
        E 0 8f 2f 64
        E 0 97 44 64
        E 0 9e 44 64
        E 0 9f 32 5a
        E 0 87 44 64
        E 0 8e 44 64
        E 0 97 44 64
        E 0 9e 44 64
        E 0 87 44 64
        E 0 8e 44 64
        E 0 97 4a 64
        E 0 9e 4a 64
        E 0 87 4a 64
        E 0 8e 4a 64
        E 0 97 4a 64
        E 0 9e 4a 64
        E 0 87 4a 64
        E 0 8e 4a 64
        E 0 97 4a 64
        E 0 9e 4a 64
        E 0 87 4a 64
        E 0 8e 4a 64
        E 0 97 4a 64
        E 0 9e 4a 64
        E 0 87 4a 64
        E 0 8e 4a 64
        E 0 97 48 64
        E 0 9e 48 64
        E 0 87 48 64
        E 0 8e 48 64
        E 0 8f 32 64
        E 0 97 45 64
        E 0 9e 45 64
        E 0 9f 30 5a
        E 0 87 45 64
        E 0 8e 45 64
        E 0 97 45 64
        E 0 9e 45 64
        E 0 87 45 64
        E 0 8e 45 64
        E 0 8f 30 64
        E 0 97 49 64
        E 0 9e 49 64
        E 0 9f 37 5a
        E 0 87 49 64
        E 0 8e 49 64
        E 0 97 49 64
        E 1 9e 49 64
        E 0 87 49 64
        E 0 8e 49 64
        E 0 97 49 64
        E 0 9e 49 64
        E 0 87 49 64
        E 0 8e 49 64
        E 0 97 4a 64
        E 0 9e 4a 64
        E 0 87 4a 64
        E 0 8e 4a 64
        E 0 8f 37 64
        E 0 97 45 64
        E 0 9e 45 64
        E 0 9f 39 5a
        E 0 87 45 64
        E 0 8e 45 64
        E 0 97 45 64
        E 0 9e 45 64
        E 0 87 45 64
        E 0 8e 45 64
        E 9295 8f 39 64
        E 0 9f 32 5a
        E 0 8f 32 64
        E 0 92 4a 64
        E 1 97 4a 64
        E 0 82 4a 64
        E 0 87 4a 64
        E 0 92 46 66
        E 0 93 3e 5a
        E 0 97 46 66
        E 0 9f 37 5a
        E 0 82 46 66
        E 0 87 46 66
        E 0 92 42 64
        E 0 97 42 64
        E 0 82 42 64
        E 0 83 3e 64
        E 0 87 42 64
        E 0 8f 37 64
        E 0 92 43 64
        E 0 93 3a 5b
        E 0 97 43 64
        E 0 9f 2b 5a
        E 0 82 43 64
        E 0 83 3a 66
        E 0 87 43 64
        E 0 8f 2b 64
        E 0 92 4b 66
        E 0 97 4b 66
        E 0 82 4b 66
        E 0 87 4b 66
        E 0 92 4a 64
        E 0 93 3e 5a
        E 0 97 4a 64
        E 0 9f 37 5a
        E 0 82 4a 64
        E 0 87 4a 64
        E 1 92 42 64
        E 0 97 42 64
        E 0 82 42 64
        E 0 83 3e 64
        E 0 87 42 64
        E 0 8f 37 64
        E 0 92 43 64
        E 0 93 3a 5b
        E 0 97 43 64
        E 0 9f 2b 5a
        E 474 82 43 64
        E 0 83 3a 66
        E 0 87 43 64
        E 0 8f 2b 64
        E 1 92 45 64
        E 0 97 45 64
        E 697 82 45 64
        E 0 87 45 64
        E 0 92 46 66
        E 0 93 43 5a
        E 0 97 46 66
        E 0 9f 37 5a
        E 229 82 46 66
        E 0 87 46 66
        E 0 92 43 64
        E 0 97 43 64
        E 480 82 43 64
        E 0 83 43 64
        E 0 87 43 64
        E 0 8f 37 64
        E 3 92 4a 64
        E 0 93 46 5b
        E 0 97 4a 64
        E 0 9f 2b 5a
        E 683 82 4a 64
        E 0 83 46 66
        E 0 87 4a 64
        E 0 8f 2b 64
        E 0 92 48 64
        E 0 93 43 5a
        E 0 97 48 64
        E 0 9f 37 5a
        E 234 82 48 64
        E 0 87 48 64
        E 1 92 46 66
        E 0 97 46 66
        E 478 82 46 66
        E 0 83 43 64
        E 3 87 46 66
        E 0 8f 37 64
        E 2 92 45 64
        E 0 93 42 5a
        E 0 97 45 64
        E 0 9f 32 5a
        E 1386 82 45 64
        E 0 83 42 64
        E 0 87 45 64
        E 0 8f 32 64
        E 1 92 46 66
        E 0 97 46 66
        E 700 82 46 66
        E 0 87 46 66
        E 0 92 4d 64
        E 0 93 3d 5b
        E 0 97 4d 64
        E 0 9f 3a 5b
        E 701 82 4d 64
        E 0 83 3d 66
        E 0 87 4d 64
        E 0 8f 3a 66
        E 1 92 4b 66
        E 0 93 3d 5b
        E 0 97 4b 66
        E 0 9f 2e 5b
        E 468 82 4b 66
        E 0 87 4b 66
        E 0 92 49 66
        E 0 97 49 66
        E 244 82 49 66
        E 0 83 3d 66
        E 0 87 49 66
        E 1 8f 2e 66
        E 0 92 48 64
        E 0 97 48 64
        E 472 82 48 64
        E 0 87 48 64
        E 0 92 46 66
        E 0 97 46 66
        E 224 82 46 66
        E 1 87 46 66
        E 0 92 45 64
        E 0 93 3c 5a
        E 0 97 45 64
        E 1 9f 35 5a
        E 468 82 45 64
        E 0 87 45 64
        E 0 92 43 64
        E 0 97 43 64
        E 459 82 43 64
        E 0 83 3c 64
        E 0 87 43 64
        E 0 8f 35 64
        E 0 92 41 64
        E 1 93 3c 5a
        E 0 97 41 64
        E 0 9f 29 5a
        E 706 82 41 64
        E 0 83 3c 64
        E 0 87 41 64
        E 0 8f 29 64
        E 0 92 4b 66
        E 3 97 4b 66
        E 38864 82 4b 66
        E 0 87 4b 66
        E 0 92 4a 64
        E 0 93 3e 5a
        E 0 97 4a 64
        E 0 9f 2e 5b
        E 0 82 4a 64
        E 0 87 4a 64
        E 0 92 48 64
        E 0 97 48 64
        E 0 82 48 64
        E 0 83 3e 64
        E 0 87 48 64
        E 0 8f 2e 66
        E 0 92 46 66
        E 0 93 3e 5a
        E 0 97 46 66
        E 0 9f 35 5a
        E 0 82 46 66
        E 0 83 3e 64
        E 0 87 46 66
        E 0 8f 35 64
        E 0 92 45 64
        E 0 97 45 64
        E 0 82 45 64
        E 0 87 45 64
        E 0 92 46 66
        E 0 93 3e 5a
        E 0 97 46 66
        E 0 9f 2e 5b
        E 0 82 46 66
        E 0 83 3e 64
        E 0 87 46 66
        E 0 8f 2e 66
        E 1 92 43 64
        E 0 97 43 64
        E 0 82 43 64
        E 0 87 43 64
        E 0 92 41 64
        E 0 93 3a 5b
        E 0 97 41 64
        E 0 9f 32 5a
        E 0 82 41 64
        E 0 83 3a 66
        E 0 87 41 64
        E 0 8f 32 64
        E 0 92 4f 64
        E 0 97 4f 64
        E 0 82 4f 64
        E 0 87 4f 64
        E 0 92 4d 64
        E 0 93 46 5b
        E 0 97 4d 64
        E 0 9f 32 5a
        E 0 82 4d 64
        E 0 87 4d 64
        E 0 92 4b 66
        E 0 97 4b 66
        E 0 82 4b 66
        E 0 83 46 66
        E 0 87 4b 66
        E 0 8f 32 64
        E 0 92 4a 64
        E 0 93 43 5a
        E 0 97 4a 64
        E 0 9f 33 5b
        E 0 82 4a 64
        E 0 87 4a 64
        E 0 92 48 64
        E 0 97 48 64
        E 0 82 48 64
        E 0 83 43 64
        E 0 87 48 64
        E 0 8f 33 66
        E 0 92 46 66
        E 0 93 3c 5a
        E 0 97 46 66
        E 0 9f 35 5a
        E 0 82 46 66
        E 0 87 46 66
        E 0 92 45 64
        E 0 97 45 64
        E 0 82 45 64
        E 0 83 3c 64
        E 0 87 45 64
        E 0 8f 35 64
        E 0 92 46 66
        E 0 93 3e 5a
        E 0 97 45 64
        E 0 97 46 66
        E 0 9f 2e 5b
        E 0 82 46 66
        E 0 92 4a 64
        E 0 82 4a 64
        E 0 87 45 64
        E 0 8f 2e 66
        E 1 92 4d 64
        E 0 9f 32 5a
        E 0 82 4d 64
        E 0 83 3e 64
        E 0 87 46 66
        E 0 8f 32 64
        E 0 92 41 64
        E 0 93 3e 5a
        E 0 9f 2e 5b
        E 0 82 41 64
        E 0 83 3e 64
        E 0 8f 2e 66
        E 0 92 43 64
        E 0 93 3a 5b
        E 0 9f 33 5b
        E 0 82 43 64
        E 0 92 46 66
        E 0 82 46 66
        E 0 8f 33 66
        E 0 92 4b 66
        E 0 9f 37 5a
        E 0 82 4b 66
        E 0 83 3a 66
        E 0 8f 37 64
        E 0 92 43 64
        E 0 93 3f 5b
        E 0 9f 33 5b
        E 0 82 43 64
        E 0 83 3f 66
        E 0 8f 33 66
        E 0 92 45 64
        E 0 93 3c 5a
        E 0 9f 35 5a
        E 0 82 45 64
        E 0 92 48 64
        E 0 82 48 64
        E 0 8f 35 64
        E 0 92 4d 64
        E 0 9f 29 5a
        E 0 82 4d 64
        E 0 83 3c 64
        E 0 8f 29 64
        E 0 92 45 64
        E 0 93 45 5a
        E 0 9f 35 5a
        E 0 82 45 64
        E 0 83 45 64
        E 0 8f 35 64
        E 0 92 46 66
        E 0 93 46 5b
        E 0 9f 2e 5b
        E 0 82 46 66
        E 0 83 46 66
        E 0 8f 2e 66
        E 0 92 4a 64
        E 1 97 4a 64
        E 0 82 4a 64
        E 0 87 4a 64
        E 0 92 46 66
        E 0 93 3e 5a
        E 0 97 46 66
        E 0 9f 37 5a
        E 0 82 46 66
        E 0 87 46 66
        E 0 92 42 64
        E 0 97 42 64
        E 0 82 42 64
        E 0 83 3e 64
        E 0 87 42 64
        E 0 8f 37 64
        E 0 92 43 64
        E 0 93 3a 5b
        E 0 97 43 64
        E 0 9f 2b 5a
        E 0 82 43 64
        E 0 83 3a 66
        E 0 87 43 64
        E 0 8f 2b 64
        E 0 92 4b 66
        E 0 97 4b 66
        E 0 82 4b 66
        E 0 87 4b 66
        E 0 92 4a 64
        E 0 93 3a 5b
        E 0 97 4a 64
        E 0 9f 37 5a
        E 0 82 4a 64
        E 0 87 4a 64
        E 0 92 42 64
        E 0 97 42 64
        E 0 82 42 64
        E 0 83 3a 66
        E 0 87 42 64
        E 0 8f 37 64
        E 0 92 43 64
        E 0 93 3a 5b
        E 0 97 43 64
        E 0 9f 2b 5a
        E 1 82 43 64
        E 0 83 3a 66
        E 0 87 43 64
        E 0 8f 2b 64
        E 0 92 45 64
        E 0 97 45 64
        E 0 82 45 64
        E 0 87 45 64
        E 0 92 46 66
        E 0 93 3e 5a
        E 0 97 46 66
        E 0 9f 37 5a
        E 0 82 46 66
        E 0 87 46 66
        E 0 92 43 64
        E 0 97 43 64
        E 0 82 43 64
        E 0 83 3e 64
        E 0 87 43 64
        E 0 8f 37 64
        E 0 92 4a 64
        E 0 93 46 5b
        E 0 97 4a 64
        E 0 9f 2b 5a
        E 0 82 4a 64
        E 0 83 46 66
        E 0 87 4a 64
        E 0 8f 2b 64
        E 0 92 43 64
        E 0 97 43 64
        E 0 82 43 64
        E 0 87 43 64
        E 0 92 4b 66
        E 0 93 43 5a
        E 0 97 4b 66
        E 0 9f 30 5a
        E 0 82 4b 66
        E 0 83 43 64
        E 0 87 4b 66
        E 0 8f 30 64
        E 0 92 43 64
        E 1 97 43 64
        E 0 82 43 64
        E 0 87 43 64
        E 0 92 45 64
        E 0 93 42 5a
        E 0 97 45 64
        E 0 9f 32 5a
        E 0 82 45 64
        E 0 83 42 64
        E 0 87 45 64
        E 0 8f 32 64
        E 0 92 4a 64
        E 0 97 4a 64
        E 0 82 4a 64
        E 0 87 4a 64
        E 0 92 4d 64
        E 0 93 43 5a
        E 0 97 4d 64
        E 0 9f 37 5a
        E 0 82 4d 64
        E 0 87 4d 64
        E 0 8f 37 64
        E 0 92 4b 66
        E 0 97 4b 66
        E 0 9f 2b 5a
        E 0 82 4b 66
        E 0 87 4b 66
        E 0 92 4a 64
        E 0 97 4a 64
        E 0 82 4a 64
        E 0 87 4a 64
        E 0 8f 2b 64
        E 0 92 48 64
        E 0 97 48 64
        E 0 9f 2b 5a
        E 0 82 48 64
        E 0 87 48 64
        E 0 92 47 64
        E 0 97 47 64
        E 0 82 47 64
        E 0 83 43 64
        E 0 87 47 64
        E 0 8f 2b 64
        E 0 92 48 64
        E 0 93 43 5a
        E 0 97 48 64
        E 0 9f 30 5a
        E 0 82 48 64
        E 0 87 48 64
        E 0 92 47 64
        E 0 97 47 64
        E 0 82 47 64
        E 0 83 43 64
        E 0 87 47 64
        E 0 8f 30 64
        E 0 92 48 64
        E 0 93 43 5a
        E 0 97 48 64
        E 0 9f 24 5a
        E 0 82 48 64
        E 0 83 43 64
        E 0 87 48 64
        E 0 8f 24 64
        E 0 92 48 64
        E 0 97 48 64
        E 0 82 48 64
        E 0 87 48 64
        E 0 92 4b 66
        E 0 93 41 5a
        E 0 97 4b 66
        E 0 9f 35 5a
        E 0 82 4b 66
        E 0 87 4b 66
        E 0 8f 35 64
        E 0 92 4a 64
        E 0 97 4a 64
        E 0 9f 29 5a
        E 0 82 4a 64
        E 0 87 4a 64
        E 0 92 48 64
        E 0 97 48 64
        E 0 82 48 64
        E 0 83 41 64
        E 0 87 48 64
        E 0 8f 29 64
        E 0 92 46 66
        E 0 93 41 5a
        E 0 97 46 66
        E 0 9f 29 5a
        E 0 82 46 66
        E 0 87 46 66
        E 0 92 45 64
        E 0 97 45 64
        E 0 82 45 64
        E 1 83 41 64
        E 0 87 45 64
        E 0 8f 29 64
        E 0 92 46 66
        E 0 93 41 5a
        E 0 97 46 66
        E 0 9f 3a 5b
        E 0 82 46 66
        E 0 87 46 66
        E 0 92 45 64
        E 0 97 45 64
        E 0 82 45 64
        E 0 83 41 64
        E 0 87 45 64
        E 0 8f 3a 66
        E 0 92 46 66
        E 0 93 41 5a
        E 0 97 46 66
        E 0 9f 2e 5b
        E 0 82 46 66
        E 0 83 41 64
        E 0 87 46 66
        E 0 8f 2e 66
        E 0 92 4b 66
        E 0 93 45 5a
        E 0 97 4b 66
        E 0 9f 36 5a
        E 0 82 4b 66
        E 0 83 45 64
        E 0 87 4b 66
        E 0 8f 36 64
        E 0 92 4a 64
        E 0 93 3e 5a
        E 0 97 4a 64
        E 0 9f 37 5a
        E 0 82 4a 64
        E 0 87 4a 64
        E 0 92 48 64
        E 0 97 48 64
        E 0 82 48 64
        E 0 83 3e 64
        E 0 87 48 64
        E 0 8f 37 64
        E 0 92 46 66
        E 0 93 3e 5a
        E 0 97 46 66
        E 0 9f 2b 5a
        E 0 82 46 66
        E 0 83 3e 64
        E 0 87 46 66
        E 0 8f 2b 64
        E 38404 92 45 64
        E 0 97 45 64
        E 0 82 45 64
        E 0 87 45 64
        E 0 92 43 64
        E 0 93 3a 5b
        E 0 97 43 64
        E 0 9f 2b 5a
        E 0 82 43 64
        E 0 83 3a 66
        E 0 87 43 64
        E 0 8f 2b 64
        E 0 92 43 64
        E 0 97 43 64
        E 0 82 43 64
        E 0 87 43 64
        E 0 92 47 64
        E 0 93 3e 5a
        E 0 97 47 64
        E 0 9f 37 5a
        E 0 82 47 64
        E 0 83 3e 64
        E 0 87 47 64
        E 0 8f 37 64
        E 0 92 47 64
        E 0 93 3e 5a
        E 0 97 47 64
        E 0 9f 2b 5a
        E 0 82 47 64
        E 0 83 3e 64
        E 0 87 47 64
        E 0 8f 2b 64
        E 0 92 47 64
        E 0 93 3b 5a
        E 0 97 47 64
        E 0 9f 2b 5a
        E 0 82 47 64
        E 0 83 3b 64
        E 0 87 47 64
        E 0 8f 2b 64
        E 0 92 48 64
        E 0 93 37 5a
        E 0 97 48 64
        E 0 9f 30 5a
        E 0 82 48 64
        E 0 87 48 64
        E 0 92 47 64
        E 0 97 47 64
        E 0 82 47 64
        E 0 83 37 64
        E 0 87 47 64
        E 0 8f 30 64
        E 0 92 48 64
        E 1 93 37 5a
        E 0 97 48 64
        E 0 9f 24 5a
        E 0 82 48 64
        E 0 83 37 64
        E 0 87 48 64
        E 0 8f 24 64
        E 0 92 43 64
        E 0 97 43 64
        E 0 82 43 64
        E 0 87 43 64
        E 0 92 49 64
        E 0 93 40 5a
        E 0 97 49 64
        E 0 9f 39 5a
        E 0 82 49 64
        E 0 83 40 64
        E 0 87 49 64
        E 0 8f 39 64
        E 0 92 49 64
        E 0 93 40 5a
        E 0 97 49 64
        E 0 9f 2d 5a
        E 0 82 49 64
        E 0 83 40 64
        E 0 87 49 64
        E 0 8f 2d 64
        E 0 92 49 64
        E 0 93 3d 5a
        E 0 97 49 64
        E 0 9f 2d 5a
        E 0 82 49 64
        E 0 83 3d 64
        E 0 87 49 64
        E 0 8f 2d 64
        E 0 92 4a 64
        E 0 93 39 5a
        E 0 97 4a 64
        E 0 9f 32 5a
        E 0 82 4a 64
        E 0 87 4a 64
        E 0 92 49 64
        E 0 97 49 64
        E 0 82 49 64
        E 0 83 39 64
        E 0 87 49 64
        E 0 8f 32 64
        E 0 92 4a 64
        E 0 93 39 5a
        E 0 97 4a 64
        E 0 9f 26 5a
        E 0 82 4a 64
        E 0 83 39 64
        E 0 87 4a 64
        E 0 8f 26 64
        E 0 92 4b 66
        E 0 97 4b 66
        E 1 82 4b 66
        E 0 87 4b 66
        E 0 92 42 64
        E 0 93 3e 5a
        E 0 97 42 64
        E 0 9f 32 5a
        E 0 82 42 64
        E 0 83 3e 64
        E 0 87 42 64
        E 0 8f 32 64
        E 0 92 43 64
        E 0 93 3e 5a
        E 0 97 43 64
        E 0 9f 2b 5a
        E 0 82 43 64
        E 0 83 3e 64
        E 0 87 43 64
        E 0 8f 2b 64
        E 0 92 4a 64
        E 0 97 4a 64
        E 0 82 4a 64
        E 0 87 4a 64
        E 0 92 43 64
        E 0 97 43 64
        E 0 82 43 64
        E 0 87 43 64
        E 0 92 45 64
        E 0 93 42 5a
        E 0 97 45 64
        E 0 9f 32 5a
        E 0 82 45 64
        E 0 87 45 64
        E 0 83 42 64
        E 0 8f 32 64
        E 0 92 4a 64
        E 0 97 4a 64
        E 0 82 4a 64
        E 0 87 4a 64
        E 0 92 42 64
        E 0 97 42 64
        E 0 82 42 64
        E 0 87 42 64
        E 0 92 43 64
        E 0 93 3e 5a
        E 0 97 43 64
        E 0 9f 2b 5a
        E 0 82 43 64
        E 0 83 3e 64
        E 0 87 43 64
        E 0 8f 2b 64
        E 0 92 4a 64
        E 1 97 4a 64
        E 0 82 4a 64
        E 0 87 4a 64
        E 0 92 4f 64
        E 0 93 3e 5a
        E 0 97 4f 64
        E 0 9f 2e 5b
        E 0 82 4f 64
        E 0 83 3e 64
        E 0 87 4f 64
        E 0 8f 2e 66
        E 0 92 46 66
        E 0 93 3f 5b
        E 0 97 46 66
        E 0 9f 30 5a
        E 0 82 46 66
        E 0 83 3f 66
        E 0 87 46 66
        E 0 8f 30 64
        E 0 92 45 64
        E 0 93 39 5a
        E 0 97 45 64
        E 0 9f 32 5a
        E 0 82 45 64
        E 0 83 39 64
        E 0 87 45 64
        E 0 8f 32 64
        E 0 92 4f 64
        E 0 93 3a 5b
        E 0 97 43 64
        E 0 9f 2b 5a
        E 0 82 4f 64
        E 0 92 51 64
        E 0 82 51 64
        E 0 8f 2b 64
        E 0 92 52 66
        E 0 9f 37 5a
        E 0 82 52 66
        E 0 83 3a 66
        E 0 87 43 64
        E 0 8f 37 64
        E 0 92 4a 64
        E 0 93 3a 5b
        E 0 9f 2b 5a
        E 0 82 4a 64
        E 0 83 3a 66
        E 0 8f 2b 64
        E 0 92 48 64
        E 0 93 37 5a
        E 0 9f 24 5a
        E 0 82 48 64
        E 0 92 4a 64
        E 0 82 4a 64
        E 0 8f 24 64
        E 0 92 4b 66
        E 0 9f 30 5a
        E 0 82 4b 66
        E 0 83 37 64
        E 0 8f 30 64
        E 0 92 43 64
        E 0 93 3f 5b
        E 0 9f 24 5a
        E 0 82 43 64
        E 0 83 3f 66
        E 0 8f 24 64
        E 0 92 42 64
        E 0 93 39 5a
        E 0 9f 26 5a
        E 0 82 42 64
        E 0 92 43 64
        E 0 82 43 64
        E 0 8f 26 64
        E 0 92 45 64
        E 0 9f 32 5a
        E 0 82 45 64
        E 0 83 39 64
        E 0 8f 32 64
        E 0 92 3c 64
        E 0 93 36 5a
        E 0 9f 26 5a
        E 0 82 3c 64
        E 0 83 36 64
        E 0 8f 26 64
        E 0 92 3a 66
        E 0 93 32 5a
        E 0 9f 2b 5a
        E 0 82 3a 66
        E 0 83 32 64
        E 0 8f 2b 64
        E 0 92 3c 64
        E 0 93 33 5b
        E 0 9f 30 5a
        E 0 82 3c 64
        E 0 83 33 66
        E 0 8f 30 64
        E 0 92 39 64
        E 0 93 32 5a
        E 0 9f 32 5a
        E 0 82 39 64
        E 0 83 32 64
        E 0 8f 32 64
        E 0 92 37 64
        E 0 93 32 5a
        E 0 9f 2b 5a
        E 0 82 37 64
        E 0 83 32 64
        E 0 8f 2b 64
        E 0 92 4d 64
        E 1 97 4d 64
        E 0 82 4d 64
        E 0 87 4d 64
        E 0 92 46 66
        E 0 93 3e 5a
        E 0 97 46 66
        E 0 9f 2e 5b
        E 0 82 46 66
        E 0 83 3e 64
        E 0 87 46 66
        E 0 8f 2e 66
        E 0 92 4d 64
        E 0 93 3e 5a
        E 0 97 4d 64
        E 0 9f 2e 5b
        E 0 82 4d 64
        E 0 83 3e 64
        E 0 87 4d 64
        E 0 8f 2e 66
        E 0 92 4b 66
        E 0 92 49 66
        E 0 93 44 5b
        E 0 97 4b 66
        E 0 97 49 66
        E 0 9f 35 5a
        E 0 82 4b 66
        E 0 82 49 66
        E 0 87 4b 66
        E 0 87 49 66
        E 0 92 48 64
        E 0 97 48 64
        E 0 82 48 64
        E 0 83 44 66
        E 0 87 48 64
        E 0 8f 35 64
        E 0 92 47 64
        E 0 93 3e 5a
        E 0 97 47 64
        E 0 9f 37 5a
        E 0 82 47 64
        E 0 83 3e 64
        E 0 87 47 64
        E 0 8f 37 64
        E 0 92 48 64
        E 0 93 43 5a
        E 0 97 48 64
        E 0 9f 33 5b
        E 0 82 48 64
        E 0 83 43 64
        E 0 87 48 64
        E 0 8f 33 66
        E 0 92 4d 64
        E 0 93 3e 5a
        E 0 97 4d 64
        E 0 9f 2f 5a
        E 0 82 4d 64
        E 0 83 3e 64
        E 0 87 4d 64
        E 0 8f 2f 64
        E 0 92 4b 66
        E 0 93 3c 5a
        E 0 97 4b 66
        E 0 9f 30 5a
        E 0 82 4b 66
        E 0 87 4b 66
        E 0 92 4a 64
        E 0 97 4a 64
        E 0 82 4a 64
        E 0 83 3c 64
        E 0 87 4a 64
        E 0 8f 30 64
        E 0 92 48 64
        E 0 93 3f 5b
        E 0 97 48 64
        E 0 9f 37 5a
        E 38403 82 48 64
        E 0 83 3f 66
        E 0 87 48 64
        E 0 8f 37 64
        E 0 92 47 64
        E 0 93 3e 5a
        E 0 97 47 64
        E 0 9f 2b 5a
        E 0 82 47 64
        E 0 83 3e 64
        E 0 87 47 64
        E 0 8f 2b 64
        E 0 92 48 64
        E 0 93 3f 5b
        E 1 97 48 64
        E 0 9f 30 5a
        E 0 82 48 64
        E 0 83 3f 66
        E 0 87 48 64
        E 0 8f 30 64
        E 0 92 43 64
        E 0 93 3f 5b
        E 0 97 43 64
        E 0 9f 30 5a
        E 0 82 43 64
        E 0 83 3f 66
        E 0 87 43 64
        E 0 8f 30 64
        E 0 92 44 66
        E 0 93 3c 5a
        E 0 97 44 66
        E 0 9f 35 5a
        E 0 82 44 66
        E 0 83 3c 64
        E 0 87 44 66
        E 0 8f 35 64
        E 0 92 41 64
        E 0 93 38 5b
        E 0 97 41 64
        E 0 9f 29 5a
        E 0 82 41 64
        E 0 83 38 66
        E 0 87 41 64
        E 0 8f 29 64
        E 0 92 4d 64
        E 0 97 4d 64
        E 0 82 4d 64
        E 0 87 4d 64
        E 0 92 47 64
        E 0 93 3e 5a
        E 0 97 47 64
        E 0 9f 37 5a
        E 0 82 47 64
        E 0 83 3e 64
        E 0 87 47 64
        E 0 8f 37 64
        E 0 92 43 64
        E 0 93 3b 5a
        E 0 97 43 64
        E 0 9f 2b 5a
        E 0 82 43 64
        E 0 83 3b 64
        E 0 87 43 64
        E 0 8f 2b 64
        E 0 92 43 64
        E 0 97 43 64
        E 0 82 43 64
        E 1 87 43 64
        E 0 92 4b 66
        E 0 93 43 5a
        E 0 97 4b 66
        E 0 83 43 64
        E 0 93 43 5a
        E 0 83 43 64
        E 0 93 43 5a
        E 0 82 4b 66
        E 0 83 43 64
        E 0 87 4b 66
        E 0 92 4a 64
        E 0 93 43 5a
        E 0 97 4a 64
        E 0 83 43 64
        E 0 93 43 5a
        E 0 83 43 64
        E 0 93 43 5a
        E 0 82 4a 64
        E 0 83 43 64
        E 0 87 4a 64
        E 0 92 49 66
        E 0 93 43 5a
        E 0 97 49 66
        E 0 83 43 64
        E 0 93 43 5a
        E 0 83 43 64
        E 0 93 43 5a
        E 0 82 49 66
        E 0 83 43 64
        E 0 87 49 66
        E 0 92 4a 64
        E 0 93 41 5a
        E 0 97 4a 64
        E 0 82 4a 64
        E 0 83 41 64
        E 0 87 4a 64
        E 0 92 4a 64
        E 0 93 3e 5a
        E 0 97 4a 64
        E 0 9f 35 5a
        E 0 82 4a 64
        E 0 83 3e 64
        E 0 87 4a 64
        E 0 8f 35 64
        E 0 92 48 64
        E 1 93 3e 5a
        E 0 97 48 64
        E 0 9f 37 5a
        E 0 82 48 64
        E 0 87 48 64
        E 0 92 46 66
        E 0 97 46 66
        E 0 82 46 66
        E 0 83 3e 64
        E 0 87 46 66
        E 0 8f 37 64
        E 0 92 45 64
        E 0 93 3d 5a
        E 0 97 45 64
        E 0 9f 39 5a
        E 0 82 45 64
        E 0 87 45 64
        E 0 92 43 64
        E 0 97 43 64
        E 0 82 43 64
        E 0 83 3d 64
        E 0 87 43 64
        E 0 8f 39 64
        E 0 92 41 64
        E 0 93 3d 5a
        E 0 97 41 64
        E 0 9f 2d 5a
        E 0 82 41 64
        E 0 87 41 64
        E 0 92 40 64
        E 0 97 40 64
        E 0 82 40 64
        E 0 83 3d 64
        E 0 87 40 64
        E 0 8f 2d 64
        E 0 92 3e 64
        E 0 93 3e 5a
        E 0 97 3e 64
        E 0 9f 32 5a
        E 0 82 3e 64
        E 0 83 3e 64
        E 0 87 3e 64
        E 0 8f 32 64
        E 0 92 4a 64
        E 0 82 4a 64
        E 0 92 4f 64
        E 0 93 3e 5a
        E 0 9f 2b 5a
        E 0 82 4f 64
        E 0 92 51 64
        E 0 82 51 64
        E 0 8f 2b 64
        E 0 92 52 66
        E 0 9f 37 5a
        E 0 82 52 66
        E 0 83 3e 64
        E 0 8f 37 64
        E 0 92 4a 64
        E 0 93 46 5b
        E 0 9f 2b 5a
        E 0 82 4a 64
        E 0 83 46 66
        E 0 8f 2b 64
        E 0 92 48 64
        E 0 93 3f 5b
        E 0 9f 30 5a
        E 0 82 48 64
        E 0 92 4a 64
        E 0 82 4a 64
        E 0 8f 30 64
        E 0 92 4b 66
        E 0 9f 3c 5a
        E 0 82 4b 66
        E 0 83 3f 66
        E 0 8f 3c 64
        E 0 92 43 64
        E 0 93 3f 5b
        E 1 9f 30 5a
        E 0 82 43 64
        E 0 83 3f 66
        E 0 8f 30 64
        E 0 92 42 64
        E 0 93 39 5a
        E 0 9f 32 5a
        E 0 82 42 64
        E 0 92 4b 66
        E 0 82 4b 66
        E 0 8f 32 64
        E 0 92 4a 64
        E 0 9f 3e 5a
        E 0 82 4a 64
        E 0 83 39 64
        E 0 8f 3e 64
        E 0 92 48 64
        E 0 93 42 5a
        E 0 9f 32 5a
        E 0 82 48 64
        E 0 83 42 64
        E 0 8f 32 64
        E 0 92 46 66
        E 0 93 43 5a
        E 0 9f 37 5a
        E 0 82 46 66
        E 0 83 43 64
        E 0 8f 37 64
        E 0 92 48 64
        E 0 93 45 5a
        E 0 9f 30 5a
        E 0 82 48 64
        E 0 83 45 64
        E 0 8f 30 64
        E 0 92 45 64
        E 0 93 42 5a
        E 0 9f 32 5a
        E 0 82 45 64
        E 0 83 42 64
        E 0 8f 32 64
        E 0 92 43 64
        E 0 93 43 5a
        E 0 9f 2b 5a
        E 0 82 43 64
        E 0 83 43 64
        E 0 8f 2b 64
        E 0 92 4a 64
        E 0 97 4a 64
        E 0 82 4a 64
        E 0 87 4a 64
        E 0 92 46 66
        E 0 93 3e 5a
        E 0 97 46 66
        E 0 9f 37 5a
        E 0 82 46 66
        E 0 87 46 66
        E 0 92 42 64
        E 0 97 42 64
        E 0 82 42 64
        E 0 83 3e 64
        E 0 87 42 64
        E 0 8f 37 64
        E 0 92 43 64
        E 0 93 3a 5b
        E 0 97 43 64
        E 1 9f 2b 5a
        E 0 82 43 64
        E 0 83 3a 66
        E 0 87 43 64
        E 0 8f 2b 64
        E 0 92 4b 66
        E 0 97 4b 66
        E 0 82 4b 66
        E 0 87 4b 66
        E 0 92 4a 64
        E 0 93 3a 5b
        E 0 97 4a 64
        E 0 9f 37 5a
        E 0 82 4a 64
        E 0 87 4a 64
        E 0 92 42 64
        E 0 97 42 64
        E 0 82 42 64
        E 0 83 3a 66
        E 0 87 42 64
        E 0 8f 37 64
        E 0 92 43 64
        E 0 93 3a 5b
        E 0 97 43 64
        E 0 9f 2b 5a
        E 0 82 43 64
        E 0 83 3a 66
        E 0 87 43 64
        E 0 8f 2b 64
        E 0 92 45 64
        E 0 97 45 64
        E 0 82 45 64
        E 0 87 45 64
        E 0 92 46 66
        E 0 93 43 5a
        E 0 97 46 66
        E 0 9f 2b 5a
        E 0 82 46 66
        E 0 87 46 66
        E 0 92 43 64
        E 0 97 43 64
        E 0 82 43 64
        E 0 83 43 64
        E 0 87 43 64
        E 0 8f 2b 64
        E 0 92 4b 66
        E 0 93 46 5b
        E 0 97 4b 66
        E 0 9f 37 5a
        E 0 82 4b 66
        E 0 83 46 66
        E 0 87 4b 66
        E 0 8f 37 64
        E 0 92 4a 64
        E 0 93 43 5a
        E 1 97 4a 64
        E 0 9f 2b 5a
        E 0 82 4a 64
        E 0 87 4a 64
        E 0 92 48 64
        E 0 97 48 64
        E 0 82 48 64
        E 0 83 43 64
        E 0 87 48 64
        E 0 8f 2b 64
        E 0 92 45 64
        E 0 93 42 5a
        E 0 97 45 64
        E 0 9f 32 5a
        E 38402 82 45 64
        E 0 83 42 64
        E 0 87 45 64
        E 0 8f 32 64
        E 0 92 48 64
        E 0 97 48 64
        E 0 82 48 64
        E 0 87 48 64
        E 0 92 4d 64
        E 0 93 3a 5b
        E 0 97 4d 64
        E 0 9f 3a 5b
        E 0 82 4d 64
        E 0 83 3a 66
        E 0 87 4d 64
        E 0 8f 3a 66
        E 0 92 4b 66
        E 0 93 3d 5b
        E 0 97 4b 66
        E 0 9f 2e 5b
        E 0 82 4b 66
        E 0 87 4b 66
        E 1 92 49 66
        E 0 97 49 66
        E 0 82 49 66
        E 0 83 3d 66
        E 0 87 49 66
        E 0 8f 2e 66
        E 0 92 48 64
        E 0 97 48 64
        E 0 82 48 64
        E 0 87 48 64
        E 0 92 46 66
        E 0 97 46 66
        E 0 82 46 66
        E 0 87 46 66
        E 0 92 45 64
        E 0 93 3c 5a
        E 0 97 45 64
        E 0 9f 35 5a
        E 0 82 45 64
        E 0 87 45 64
        E 0 92 43 64
        E 0 97 43 64
        E 0 82 43 64
        E 0 83 3c 64
        E 0 87 43 64
        E 0 8f 35 64
        E 0 92 41 64
        E 0 93 39 5a
        E 0 97 41 64
        E 0 9f 29 5a
        E 0 82 41 64
        E 0 83 39 64
        E 0 87 41 64
        E 0 8f 29 64
        E 0 92 4b 66
        E 0 97 4b 66
        E 0 82 4b 66
        E 0 87 4b 66
        E 0 92 4a 64
        E 0 93 41 5a
        E 0 97 4a 64
        E 0 9f 2e 5b
        E 0 82 4a 64
        E 0 87 4a 64
        E 0 92 48 64
        E 0 97 48 64
        E 0 82 48 64
        E 0 83 41 64
        E 0 87 48 64
        E 0 8f 2e 66
        E 0 92 46 66
        E 0 93 3e 5a
        E 0 97 46 66
        E 0 9f 35 5a
        E 0 82 46 66
        E 0 83 3e 64
        E 0 87 46 66
        E 0 8f 35 64
        E 0 92 45 64
        E 0 93 3c 5a
        E 0 97 45 64
        E 0 82 45 64
        E 0 83 3c 64
        E 0 87 45 64
        E 0 92 46 66
        E 0 97 46 66
        E 0 9f 2e 5b
        E 1 82 46 66
        E 0 87 46 66
        E 0 8f 2e 66
        E 0 92 4d 64
        E 0 97 4d 64
        E 0 9f 35 5a
        E 0 82 4d 64
        E 0 87 4d 64
        E 0 8f 35 64
        E 0 92 47 64
        E 0 93 3e 5a
        E 0 97 47 64
        E 0 9f 37 5a
        E 0 82 47 64
        E 0 83 3e 64
        E 0 87 47 64
        E 0 8f 37 64
        E 0 92 43 64
        E 0 97 43 64
        E 0 82 43 64
        E 0 87 43 64
        E 0 92 4f 64
        E 0 93 3c 5a
        E 0 97 4f 64
        E 0 9f 33 5b
        E 0 82 4f 64
        E 0 83 3c 64
        E 0 87 4f 64
        E 0 8f 33 66
        E 0 92 4d 64
        E 0 93 3c 5a
        E 0 97 4d 64
        E 0 9f 35 5a
        E 0 82 4d 64
        E 0 87 4d 64
        E 0 92 4b 66
        E 0 97 4b 66
        E 0 82 4b 66
        E 0 83 3c 64
        E 0 87 4b 66
        E 0 8f 35 64
        E 0 92 4a 64
        E 0 93 3e 5a
        E 0 97 4a 64
        E 0 9f 36 5a
        E 0 82 4a 64
        E 0 87 4a 64
        E 0 92 48 64
        E 0 97 48 64
        E 0 82 48 64
        E 0 83 3e 64
        E 0 87 48 64
        E 0 8f 36 64
        E 0 92 47 64
        E 0 93 3e 5a
        E 0 97 47 64
        E 0 9f 37 5a
        E 0 82 47 64
        E 0 87 47 64
        E 0 92 45 64
        E 0 97 45 64
        E 0 82 45 64
        E 0 83 3e 64
        E 0 87 45 64
        E 0 8f 37 64
        E 0 92 43 64
        E 0 93 3b 5a
        E 0 97 43 64
        E 0 9f 2b 5a
        E 0 82 43 64
        E 0 83 3b 64
        E 0 87 43 64
        E 0 8f 2b 64
        E 0 92 4d 64
        E 0 93 47 5a
        E 0 97 4d 64
        E 0 9f 37 5a
        E 0 82 4d 64
        E 0 83 47 64
        E 0 87 4d 64
        E 0 8f 37 64
        E 0 92 4b 66
        E 0 93 43 5a
        E 0 97 4b 66
        E 0 9f 30 5a
        E 0 82 4b 66
        E 0 87 4b 66
        E 0 92 4a 64
        E 0 97 4a 64
        E 0 82 4a 64
        E 0 83 43 64
        E 0 87 4a 64
        E 0 8f 30 64
        E 0 92 48 64
        E 0 93 3f 5b
        E 0 97 48 64
        E 0 9f 37 5a
        E 0 82 48 64
        E 0 83 3f 66
        E 0 87 48 64
        E 0 8f 37 64
        E 0 92 47 64
        E 0 93 3e 5a
        E 0 97 47 64
        E 0 9f 2b 5a
        E 0 82 47 64
        E 0 83 3e 64
        E 0 87 47 64
        E 0 8f 2b 64
        E 1 92 48 64
        E 0 93 3f 5b
        E 0 97 48 64
        E 0 9f 30 5a
        E 0 82 48 64
        E 0 83 3f 66
        E 0 87 48 64
        E 0 8f 30 64
        E 0 92 4b 66
        E 0 93 3f 5b
        E 0 97 4b 66
        E 0 9f 30 5a
        E 0 82 4b 66
        E 0 83 3f 66
        E 0 87 4b 66
        E 0 8f 30 64
        E 0 92 42 64
        E 0 93 3e 5a
        E 0 97 42 64
        E 0 9f 30 5a
        E 0 82 42 64
        E 0 83 3e 64
        E 0 87 42 64
        E 0 8f 30 64
        E 0 92 43 64
        E 0 93 3e 5a
        E 0 97 43 64
        E 0 9f 2e 5b
        E 0 82 43 64
        E 0 83 3e 64
        E 0 87 43 64
        E 0 8f 2e 66
        E 0 92 4b 66
        E 0 93 3e 5a
        E 0 97 4b 66
        E 0 9f 37 5a
        E 0 82 4b 66
        E 0 83 3e 64
        E 0 87 4b 66
        E 0 8f 37 64
        E 0 92 49 64
        E 0 93 40 5a
        E 0 97 49 64
        E 0 9f 37 5a
        E 0 82 49 64
        E 0 83 40 64
        E 0 87 49 64
        E 0 8f 37 64
        E 0 92 4a 64
        E 0 93 42 5a
        E 0 97 4a 64
        E 0 9f 36 5a
        E 0 82 4a 64
        E 0 83 42 64
        E 0 87 4a 64
        E 0 8f 36 64
        E 0 92 43 64
        E 0 97 43 64
        E 0 82 43 64
        E 0 87 43 64
        E 0 92 4a 64
        E 0 97 4a 64
        E 0 82 4a 64
        E 0 87 4a 64
        E 0 92 48 64
        E 1 93 3e 5a
        E 0 97 48 64
        E 0 9f 37 5a
        E 0 82 48 64
        E 0 87 48 64
        E 0 92 46 66
        E 0 97 46 66
        E 0 82 46 66
        E 0 83 3e 64
        E 0 87 46 66
        E 0 8f 37 64
        E 0 92 45 64
        E 0 93 3e 5a
        E 0 97 45 64
        E 0 9f 2b 5a
        E 0 82 45 64
        E 0 87 45 64
        E 0 92 43 64
        E 0 97 43 64
        E 0 82 43 64
        E 0 83 3e 64
        E 0 87 43 64
        E 0 8f 2b 64
        E 0 92 44 66
        E 0 97 44 66
        E 0 82 44 66
        E 0 87 44 66
        E 0 92 42 64
        E 0 97 42 64
        E 0 82 42 64
        E 0 87 42 64
        E 0 92 43 64
        E 0 93 3e 5a
        E 0 97 43 64
        E 0 9f 37 5a
        E 0 82 43 64
        E 0 83 3e 64
        E 0 87 43 64
        E 0 8f 37 64
        E 0 92 43 64
        E 0 93 3e 5a
        E 0 97 43 64
        E 0 9f 2b 5a
        E 0 82 43 64
        E 0 83 3e 64
        E 0 87 43 64
        E 0 8f 2b 64
        E 0 92 4a 64
        E 0 97 4a 64
        E 0 82 4a 64
        E 0 87 4a 64
        E 0 92 48 64
        E 1 93 3e 5a
        E 0 97 48 64
        E 0 9f 37 5a
        E 0 82 48 64
        E 0 87 48 64
        E 0 92 46 66
        E 0 97 46 66
        E 0 82 46 66
        E 0 83 3e 64
        E 0 87 46 66
        E 0 8f 37 64
        E 0 92 45 64
        E 0 93 3e 5a
        E 0 97 45 64
        E 0 9f 2b 5a
        E 0 82 45 64
        E 0 87 45 64
        E 0 92 43 64
        E 0 97 43 64
        E 0 82 43 64
        E 0 83 3e 64
        E 0 87 43 64
        E 0 8f 2b 64
        E 0 92 44 66
        E 0 97 44 66
        E 0 82 44 66
        E 0 87 44 66
        E 0 92 42 64
        E 0 97 42 64
        E 0 82 42 64
        E 0 87 42 64
        E 0 92 43 64
        E 0 93 3e 5a
        E 0 97 43 64
        E 0 9f 37 5a
        E 0 82 43 64
        E 0 83 3e 64
        E 0 87 43 64
        E 0 8f 37 64
        E 0 92 43 64
        E 0 93 3a 5b
        E 0 97 43 64
        E 0 9f 2b 5a
        E 0 82 43 64
        E 0 83 3a 66
        E 0 87 43 64
        E 0 8f 2b 64
        E 0 92 4b 66
        E 0 93 37 5a
        E 0 97 4b 66
        E 0 9f 30 5a
        E 0 82 4b 66
        E 0 87 4b 66
        E 0 92 4a 64
        E 0 97 4a 64
        E 0 82 4a 64
        E 0 87 4a 64
        E 0 92 48 64
        E 0 97 48 64
        E 0 82 48 64
        E 0 87 48 64
        E 0 92 46 66
        E 0 97 46 66
        E 0 82 46 66
        E 0 83 37 64
        E 0 87 46 66
        E 0 8f 30 64
        E 1 92 45 64
        E 0 93 39 5a
        E 0 97 45 64
        E 0 9f 31 5a
        E 0 82 45 64
        E 0 87 45 64
        E 0 92 43 64
        E 0 97 43 64
        E 0 82 43 64
        E 0 83 39 64
        E 0 87 43 64
        E 0 8f 31 64
        E 0 92 3e 64
        E 0 93 39 5a
        E 0 97 3e 64
        E 0 9f 32 5a
        E 0 82 3e 64
        E 0 83 39 64
        E 0 87 3e 64
        E 0 8f 32 64
        E 0 92 45 64
        E 0 97 45 64
        E 0 82 45 64
        E 0 87 45 64
        E 0 92 46 66
        E 0 93 3e 5a
        E 0 97 46 66
        E 0 9f 2b 5a
        E 38403 82 46 66
        E 0 83 3e 64
        E 0 87 46 66
        E 0 8f 2b 64
        E 0 92 45 64
        E 0 93 3e 5a
        E 1 97 45 64
        E 0 9f 32 5a
        E 0 82 45 64
        E 0 83 3e 64
        E 0 87 45 64
        E 0 8f 32 64
        E 0 92 43 64
        E 0 97 43 64
        E 0 82 43 64
        E 0 87 43 64
        E 0 92 4a 64
        E 0 93 3e 5a
        E 0 97 4a 64
        E 0 9f 36 5a
        E 0 82 4a 64
        E 0 83 3e 64
        E 0 87 4a 64
        E 0 8f 36 64
        E 0 92 4a 64
        E 0 93 43 5a
        E 0 97 4a 64
        E 0 9f 37 5a
        E 0 82 4a 64
        E 0 83 43 64
        E 0 87 4a 64
        E 0 8f 37 64
        E 0 92 4f 64
        E 0 93 4b 5b
        E 0 97 4f 64
        E 0 9f 3f 5b
        E 0 82 4f 64
        E 0 83 4b 66
        E 0 87 4f 64
        E 0 8f 3f 66
        E 0 92 4d 64
        E 0 93 4a 5a
        E 0 97 4d 64
        E 0 9f 3e 5a
        E 0 82 4d 64
        E 0 83 4a 64
        E 0 87 4d 64
        E 0 8f 3e 64
        E 0 92 4b 66
        E 0 93 48 5a
        E 0 97 4b 66
        E 0 9f 3c 5a
        E 0 82 4b 66
        E 0 83 48 64
        E 0 87 4b 66
        E 0 8f 3c 64
        E 0 92 4a 64
        E 1 93 46 5b
        E 0 97 4a 64
        E 0 9f 3a 5b
        E 0 82 4a 64
        E 0 83 46 66
        E 0 87 4a 64
        E 0 8f 3a 66
        E 0 92 48 64
        E 0 93 45 5a
        E 0 97 48 64
        E 0 9f 39 5a
        E 0 82 48 64
        E 0 83 45 64
        E 0 87 48 64
        E 0 8f 39 64
        E 0 92 46 66
        E 0 93 43 5a
        E 0 97 46 66
        E 0 9f 37 5a
        E 0 82 46 66
        E 0 83 43 64
        E 0 87 46 66
        E 0 8f 37 64
        E 0 92 44 66
        E 0 93 3c 5a
        E 0 97 44 66
        E 0 9f 30 5a
        E 0 82 44 66
        E 0 83 3c 64
        E 0 87 44 66
        E 0 8f 30 64
        E 0 92 43 64
        E 0 93 3e 5a
        E 0 97 43 64
        E 0 9f 32 5a
        E 0 82 43 64
        E 0 83 3e 64
        E 0 87 43 64
        E 0 8f 32 64
        E 0 92 42 64
        E 0 93 32 5a
        E 0 97 42 64
        E 0 9f 26 5a
        E 0 82 42 64
        E 0 83 32 64
        E 0 87 42 64
        E 0 8f 26 64
        E 0 92 43 64
        E 0 93 37 5a
        E 0 97 43 64
        E 0 9f 2b 5a
        E 0 82 43 64
        E 0 87 43 64
        E 0 83 37 64
        E 0 8f 2b 64
        E 0 92 45 64
        E 0 97 45 64
        E 0 82 45 64
        E 0 87 45 64
        E 1 92 46 66
        E 0 93 3e 5a
        E 0 97 46 66
        E 0 9f 2b 5a
        E 0 82 46 66
        E 0 83 3e 64
        E 0 87 46 66
        E 0 8f 2b 64
        E 0 92 45 64
        E 0 93 3e 5a
        E 0 97 45 64
        E 0 9f 32 5a
        E 0 82 45 64
        E 0 83 3e 64
        E 0 87 45 64
        E 0 8f 32 64
        E 0 92 43 64
        E 0 97 43 64
        E 0 82 43 64
        E 0 87 43 64
        E 0 92 4a 64
        E 0 93 3e 5a
        E 0 97 4a 64
        E 0 9f 36 5a
        E 0 82 4a 64
        E 0 83 3e 64
        E 0 87 4a 64
        E 0 8f 36 64
        E 0 92 4f 64
        E 0 97 4f 64
        E 0 82 4f 64
        E 0 87 4f 64
        E 0 92 4d 64
        E 0 93 3e 5a
        E 0 97 4d 64
        E 0 9f 2e 5b
        E 0 82 4d 64
        E 0 87 4d 64
        E 0 92 4b 66
        E 0 97 4b 66
        E 0 82 4b 66
        E 0 83 3e 64
        E 0 87 4b 66
        E 0 8f 2e 66
        E 0 92 4a 64
        E 0 93 3f 5b
        E 0 97 4a 64
        E 0 9f 30 5a
        E 0 82 4a 64
        E 0 87 4a 64
        E 0 92 48 64
        E 0 97 48 64
        E 0 82 48 64
        E 0 83 3f 66
        E 0 87 48 64
        E 0 8f 30 64
        E 0 92 46 66
        E 1 93 3e 5a
        E 0 97 46 66
        E 0 9f 32 5a
        E 0 82 46 66
        E 0 87 46 66
        E 0 92 45 64
        E 0 97 45 64
        E 0 82 45 64
        E 0 83 3e 64
        E 0 87 45 64
        E 0 8f 32 64
        E 0 92 4f 64
        E 0 93 3e 5a
        E 0 97 43 64
        E 0 9f 2b 5a
        E 0 82 4f 64
        E 0 92 51 64
        E 0 82 51 64
        E 0 8f 2b 64
        E 0 92 52 66
        E 0 9f 37 5a
        E 0 82 52 66
        E 0 83 3e 64
        E 0 87 43 64
        E 0 8f 37 64
        E 0 92 4a 64
        E 0 93 3a 5b
        E 0 9f 2b 5a
        E 0 82 4a 64
        E 0 83 3a 66
        E 0 8f 2b 64
        E 0 92 48 64
        E 0 93 37 5a
        E 0 9f 30 5a
        E 0 82 48 64
        E 0 92 4a 64
        E 0 82 4a 64
        E 0 8f 30 64
        E 0 92 4b 66
        E 0 9f 3c 5a
        E 0 82 4b 66
        E 0 83 37 64
        E 0 8f 3c 64
        E 0 92 43 64
        E 0 93 3f 5b
        E 0 9f 30 5a
        E 0 82 43 64
        E 0 83 3f 66
        E 0 8f 30 64
        E 0 92 42 64
        E 0 93 39 5a
        E 0 9f 32 5a
        E 0 82 42 64
        E 0 92 4b 66
        E 0 82 4b 66
        E 0 83 39 64
        E 0 8f 32 64
        E 0 92 4a 64
        E 0 93 42 5a
        E 0 9f 3e 5a
        E 0 82 4a 64
        E 0 8f 3e 64
        E 0 92 48 64
        E 0 9f 32 5a
        E 0 82 48 64
        E 0 83 42 64
        E 0 8f 32 64
        E 0 92 46 66
        E 0 93 3e 5a
        E 0 9f 2b 5a
        E 0 82 46 66
        E 0 8f 2b 64
        E 0 92 43 64
        E 0 9f 37 5a
        E 0 82 43 64
        E 0 83 3e 64
        E 0 8f 37 64
        E 0 92 4a 64
        E 0 93 46 5b
        E 0 9f 2b 5a
        E 0 82 4a 64
        E 0 83 46 66
        E 0 8f 2b 64
        E 0 92 4f 64
        E 0 93 46 5b
        E 0 9f 2b 5a
        E 0 82 4f 64
        E 0 83 46 66
        E 0 8f 2b 64
        E 0 92 46 66
        E 0 93 43 5a
        E 0 9f 32 5a
        E 0 82 46 66
        E 0 83 43 64
        E 0 8f 32 64
        E 1 92 45 64
        E 0 93 42 5a
        E 0 9f 26 5a
        E 0 82 45 64
        E 0 83 42 64
        E 0 8f 26 64
        E 0 92 43 64
        E 0 93 43 5a
        E 0 9f 2b 5a
        E 0 82 43 64
        E 0 83 43 64
        E 0 8f 2b 64
        E 0 96 47 64
        E 0 9e 47 64
        E 0 9f 35 5a
        E 0 86 47 64
        E 0 8e 47 64
        E 0 96 47 64
        E 0 9e 47 64
        E 0 86 47 64
        E 0 8e 47 64
        E 0 96 47 64
        E 0 9e 47 64
        E 0 86 47 64
        E 0 8e 47 64
        E 0 96 45 64
        E 0 9e 45 64
        E 0 86 45 64
        E 0 8e 45 64
        E 0 96 43 64
        E 0 9e 43 64
        E 0 86 43 64
        E 0 8e 43 64
        E 0 8f 35 64
        E 0 96 48 64
        E 0 9e 48 64
        E 0 9f 33 5b
        E 0 86 48 64
        E 0 8e 48 64
        E 0 96 48 64
        E 0 9e 48 64
        E 0 86 48 64
        E 0 8e 48 64
        E 0 8f 33 66
        E 0 96 44 66
        E 0 9e 44 66
        E 0 9f 35 5a
        E 38403 86 44 66
        E 0 8e 44 66
        E 0 96 46 66
        E 0 9e 46 66
        E 0 86 46 66
        E 0 8e 46 66
        E 0 96 48 64
        E 0 9e 48 64
        E 0 86 48 64
        E 0 8e 48 64
        E 0 8f 35 64
        E 0 96 43 64
        E 0 9e 43 64
        E 0 9f 37 5a
        E 0 86 43 64
        E 0 8e 43 64
        E 0 96 43 64
        E 0 9e 43 64
        E 0 86 43 64
        E 0 8e 43 64
        E 0 8f 37 64
        E 0 9f 30 5a
        E 0 8f 30 64
        E 0 96 3f 66
        E 0 9e 3f 66
        E 0 9f 30 5a
        E 0 86 3f 66
        E 0 8e 3f 66
        E 0 96 3f 66
        E 0 9e 3f 66
        E 0 86 3f 66
        E 0 8e 3f 66
        E 0 96 3f 66
        E 0 9e 3f 66
        E 0 86 3f 66
        E 0 8e 3f 66
        E 0 96 3f 66
        E 0 9e 3f 66
        E 0 86 3f 66
        E 0 8e 3f 66
        E 0 96 41 64
        E 0 9e 41 64
        E 1 86 41 64
        E 0 8e 41 64
        E 0 96 43 64
        E 0 9e 43 64
        E 0 86 43 64
        E 0 8e 43 64
        E 0 96 43 64
        E 0 9e 43 64
        E 0 86 43 64
        E 0 8e 43 64
        E 0 96 43 64
        E 0 9e 43 64
        E 0 86 43 64
        E 0 8e 43 64
        E 0 96 43 64
        E 0 9e 43 64
        E 0 86 43 64
        E 0 8e 43 64
        E 0 96 43 64
        E 0 9e 43 64
        E 0 86 43 64
        E 0 8e 43 64
        E 0 8f 30 64
        E 0 96 48 64
        E 0 9e 48 64
        E 0 9f 34 5a
        E 0 86 48 64
        E 0 8e 48 64
        E 0 96 48 64
        E 0 9e 48 64
        E 0 86 48 64
        E 0 8e 48 64
        E 1 9a 43 64
        E 0 9e 43 64
        E 0 8a 43 64
        E 0 8e 43 64
        E 0 9a 40 64
        E 0 9e 40 64
        E 0 8a 40 64
        E 0 8e 40 64
        E 0 9a 40 64
        E 0 9e 40 64
        E 0 8a 40 64
        E 0 8e 40 64
        E 0 96 43 64
        E 0 9e 43 64
        E 0 86 43 64
        E 0 8e 43 64
        E 0 96 43 64
        E 0 9e 43 64
        E 0 86 43 64
        E 0 8e 43 64
        E 0 96 45 64
        E 0 9e 45 64
        E 0 86 45 64
        E 0 8e 45 64
        E 0 8f 34 64
        E 0 96 45 64
        E 0 9e 45 64
        E 0 9f 31 5a
        E 0 86 45 64
        E 0 8e 45 64
        E 0 96 45 64
        E 0 9e 45 64
        E 0 86 45 64
        E 0 8e 45 64
        E 0 96 45 64
        E 0 9e 45 64
        E 0 86 45 64
        E 0 8e 45 64
        E 0 96 40 64
        E 0 9e 40 64
        E 0 86 40 64
        E 0 8e 40 64
        E 0 96 40 64
        E 0 9e 40 64
        E 0 86 40 64
        E 0 8e 40 64
        E 0 96 43 64
        E 0 9e 43 64
        E 0 86 43 64
        E 0 8e 43 64
        E 0 96 41 64
        E 0 9e 41 64
        E 0 86 41 64
        E 0 8e 41 64
        E 0 8f 31 64
        E 0 96 3e 64
        E 0 9e 3e 64
        E 0 9f 32 5a
        E 1 86 3e 64
        E 0 8e 3e 64
        E 0 96 3e 64
        E 0 9e 3e 64
        E 0 86 3e 64
        E 0 8e 3e 64
        E 0 96 45 64
        E 0 9e 45 64
        E 0 86 45 64
        E 0 8e 45 64
        E 0 96 45 64
        E 0 9e 45 64
        E 0 86 45 64
        E 0 8e 45 64
        E 0 96 45 64
        E 0 9e 45 64
        E 0 86 45 64
        E 0 8e 45 64
        E 0 8f 32 64
        E 0 96 4a 64
        E 0 9e 4a 64
        E 0 9f 32 5a
        E 0 86 4a 64
        E 0 8e 4a 64
        E 0 96 4a 64
        E 0 9e 4a 64
        E 0 86 4a 64
        E 0 8e 4a 64
        E 0 96 45 64
        E 0 9e 45 64
        E 0 86 45 64
        E 0 8e 45 64
        E 0 96 45 64
        E 0 9e 45 64
        E 0 86 45 64
        E 0 8e 45 64
        E 0 8f 32 64
        E 0 96 41 64
        E 0 9e 41 64
        E 0 9f 32 5a
        E 0 86 41 64
        E 0 8e 41 64
        E 0 96 41 64
        E 0 9e 41 64
        E 0 86 41 64
        E 0 8e 41 64
        E 0 96 45 64
        E 1 9e 45 64
        E 0 86 45 64
        E 0 8e 45 64
        E 0 96 3e 64
        E 0 9e 3e 64
        E 0 86 3e 64
        E 0 8e 3e 64
        E 0 96 3e 64
        E 0 9e 3e 64
        E 0 86 3e 64
        E 0 8e 3e 64
        E 0 9a 44 64
        E 0 9e 44 64
        E 0 8a 44 64
        E 0 8e 44 64
        E 0 9a 44 64
        E 0 9e 44 64
        E 0 8a 44 64
        E 0 8e 44 64
        E 0 9a 45 64
        E 0 9e 45 64
        E 0 8a 45 64
        E 0 8e 45 64
        E 0 8f 32 64
        E 0 9a 40 64
        E 0 9e 40 64
        E 0 9f 30 5a
        E 0 8a 40 64
        E 0 8e 40 64
        E 0 9a 40 64
        E 0 9e 40 64
        E 0 8a 40 64
        E 0 8e 40 64
        E 38402 96 48 64
        E 0 9e 48 64
        E 1 86 48 64
        E 0 8e 48 64
        E 0 96 48 64
        E 0 9e 48 64
        E 0 86 48 64
        E 0 8e 48 64
        E 0 96 48 64
        E 0 9e 48 64
        E 0 86 48 64
        E 0 8e 48 64
        E 0 96 47 64
        E 0 9e 47 64
        E 0 86 47 64
        E 0 8e 47 64
        E 0 96 48 64
        E 0 9e 48 64
        E 0 86 48 64
        E 0 8e 48 64
        E 0 8f 30 64
        E 0 96 45 64
        E 0 9e 45 64
        E 0 9f 30 5a
        E 0 86 45 64
        E 0 8e 45 64
        E 0 96 45 64
        E 0 9e 45 64
        E 0 86 45 64
        E 0 8e 45 64
        E 0 96 45 64
        E 0 9e 45 64
        E 0 86 45 64
        E 0 8e 45 64
        E 0 96 45 64
        E 0 9e 45 64
        E 0 86 45 64
        E 0 8e 45 64
        E 0 8f 30 64
        E 0 96 42 64
        E 0 9e 42 64
        E 0 9f 33 5a
        E 0 86 42 64
        E 1 8e 42 64
        E 0 96 42 64
        E 0 9e 42 64
        E 0 86 42 64
        E 0 8e 42 64
        E 0 8f 33 64
        E 0 96 48 64
        E 0 9e 48 64
        E 0 9f 33 5a
        E 0 86 48 64
        E 0 8e 48 64
        E 0 96 48 64
        E 0 9e 48 64
        E 0 86 48 64
        E 0 8e 48 64
        E 0 96 45 64
        E 0 9e 45 64
        E 0 86 45 64
        E 0 8e 45 64
        E 0 96 45 64
        E 0 9e 45 64
        E 0 86 45 64
        E 0 8e 45 64
        E 0 96 43 64
        E 0 9e 43 64
        E 0 86 43 64
        E 0 8e 43 64
        E 0 8f 33 64
        E 0 96 40 64
        E 0 9e 40 64
        E 0 9f 34 5a
        E 0 86 40 64
        E 0 8e 40 64
        E 0 96 40 64
        E 0 9e 40 64
        E 0 86 40 64
        E 0 8e 40 64
        E 0 9a 43 64
        E 0 9e 43 64
        E 0 8a 43 64
        E 0 8e 43 64
        E 0 8f 34 64
        E 0 9a 47 64
        E 0 9e 47 64
        E 0 9f 34 5a
        E 0 8a 47 64
        E 0 8e 47 64
        E 0 9a 47 64
        E 0 9e 47 64
        E 0 8a 47 64
        E 0 8e 47 64
        E 0 9a 47 64
        E 0 9e 47 64
        E 0 8a 47 64
        E 0 8e 47 64
        E 0 8f 34 64
        E 0 9a 40 64
        E 0 9e 40 64
        E 0 9f 30 5a
        E 0 8a 40 64
        E 0 8e 40 64
        E 1 9a 40 64
        E 0 9e 40 64
        E 0 8a 40 64
        E 0 8e 40 64
        E 0 9a 48 64
        E 0 9e 48 64
        E 0 8a 48 64
        E 0 8e 48 64
        E 0 8f 30 64
        E 0 9a 45 64
        E 0 9e 45 64
        E 0 9f 30 5a
        E 0 8a 45 64
        E 0 8e 45 64
        E 0 9a 45 64
        E 0 9e 45 64
        E 0 8a 45 64
        E 0 8e 45 64
        E 0 9a 40 64
        E 0 9e 40 64
        E 0 8a 40 64
        E 0 8e 40 64
        E 0 8f 30 64
        E 0 9a 42 64
        E 0 9e 42 64
        E 0 9f 2f 5a
        E 0 8a 42 64
        E 0 8e 42 64
        E 0 96 45 64
        E 0 9e 45 64
        E 0 86 45 64
        E 0 8e 45 64
        E 0 8f 2f 64
        E 0 96 43 64
        E 0 9e 43 64
        E 0 9f 34 5a
        E 0 86 43 64
        E 0 8e 43 64
        E 0 9a 43 64
        E 1 9e 43 64
        E 0 8a 43 64
        E 0 8e 43 64
        E 0 9a 43 64
        E 0 9e 43 64
        E 0 8a 43 64
        E 0 8e 43 64
        E 0 9a 42 64
        E 0 9e 42 64
        E 0 8a 42 64
        E 0 8e 42 64
        E 0 8f 34 64
        E 0 9a 45 64
        E 0 9e 45 64
        E 0 9f 32 5a
        E 0 8a 45 64
        E 0 8e 45 64
        E 0 9a 45 64
        E 0 9e 45 64
        E 0 8a 45 64
        E 0 8e 45 64
        E 0 8f 32 64
        E 0 9a 42 64
        E 0 9e 42 64
        E 0 9f 32 5a
        E 0 8a 42 64
        E 0 8e 42 64
        E 0 9a 42 64
        E 0 9e 42 64
        E 0 8a 42 64
        E 0 8e 42 64
        E 0 9a 42 64
        E 0 9e 42 64
        E 0 8a 42 64
        E 0 8e 42 64
        E 0 9a 42 64
        E 0 9e 42 64
        E 0 8a 42 64
        E 0 8e 42 64
        E 0 9a 42 64
        E 0 9e 42 64
        E 0 8a 42 64
        E 0 8e 42 64
        E 0 9a 47 64
        E 0 9e 47 64
        E 0 8a 47 64
        E 0 8e 47 64
        E 1 9a 42 64
        E 0 9e 42 64
        E 0 8a 42 64
        E 0 8e 42 64
        E 0 9a 42 64
        E 0 9e 42 64
        E 0 8a 42 64
        E 0 8e 42 64
        E 0 9a 42 64
        E 0 9e 42 64
        E 38402 8a 42 64
        E 0 8e 42 64
        E 0 9a 41 63
        E 0 9e 41 63
        E 0 8a 41 63
        E 0 8e 41 63
        E 0 8f 32 64
        E 0 9a 44 64
        E 0 9e 44 64
        E 0 9f 31 5a
        E 0 8a 44 64
        E 0 8e 44 64
        E 0 9a 44 64
        E 0 9e 44 64
        E 0 8a 44 64
        E 0 8e 44 64
        E 0 96 49 64
        E 1 9e 49 64
        E 0 86 49 64
        E 0 8e 49 64
        E 0 96 49 64
        E 0 9e 49 64
        E 0 86 49 64
        E 0 8e 49 64
        E 0 96 44 64
        E 0 9e 44 64
        E 0 86 44 64
        E 0 8e 44 64
        E 0 96 44 64
        E 0 9e 44 64
        E 0 86 44 64
        E 0 8e 44 64
        E 0 96 45 64
        E 0 9e 45 64
        E 0 86 45 64
        E 0 8e 45 64
        E 0 8f 31 64
        E 0 96 42 64
        E 0 9e 42 64
        E 0 9f 36 5a
        E 0 86 42 64
        E 0 8e 42 64
        E 0 9a 3d 64
        E 0 9e 3d 64
        E 0 8a 3d 64
        E 0 8e 3d 64
        E 0 9a 3d 64
        E 0 9e 3d 64
        E 0 8a 3d 64
        E 0 8e 3d 64
        E 0 9a 3d 64
        E 0 9e 3d 64
        E 0 8a 3d 64
        E 0 8e 3d 64
        E 0 9a 42 64
        E 0 9e 42 64
        E 0 8a 42 64
        E 0 8e 42 64
        E 0 9a 42 64
        E 0 9e 42 64
        E 0 8a 42 64
        E 0 8e 42 64
        E 0 9a 42 64
        E 0 9e 42 64
        E 0 8a 42 64
        E 0 8e 42 64
        E 0 9a 42 64
        E 0 9e 42 64
        E 0 8a 42 64
        E 0 8e 42 64
        E 0 9a 44 64
        E 0 9e 44 64
        E 0 8a 44 64
        E 0 8e 44 64
        E 0 8f 36 64
        E 0 9a 45 64
        E 0 9e 45 64
        E 0 9f 36 5a
        E 0 8a 45 64
        E 0 8e 45 64
        E 0 9a 49 64
        E 0 9e 49 64
        E 1 8a 49 64
        E 0 8e 49 64
        E 0 8f 36 64
        E 0 9a 42 64
        E 0 9e 42 64
        E 0 9f 2e 5a
        E 0 8a 42 64
        E 0 8e 42 64
        E 0 9a 42 64
        E 0 9e 42 64
        E 0 8a 42 64
        E 0 8e 42 64
        E 0 9a 42 64
        E 0 9e 42 64
        E 0 8a 42 64
        E 0 8e 42 64
        E 0 8f 2e 64
        E 0 9a 47 64
        E 0 9e 47 64
        E 0 9f 32 5a
        E 0 8a 47 64
        E 0 8e 47 64
        E 0 9a 47 64
        E 0 9e 47 64
        E 0 8a 47 64
        E 0 8e 47 64
        E 0 8f 32 64
        E 0 9a 40 64
        E 0 9e 40 64
        E 0 9f 37 5a
        E 0 8a 40 64
        E 0 8e 40 64
        E 0 9a 40 64
        E 0 9e 40 64
        E 0 8a 40 64
        E 0 8e 40 64
        E 0 9a 42 64
        E 0 9e 42 64
        E 0 8a 42 64
        E 0 8e 42 64
        E 0 8f 37 64
        E 0 9a 42 64
        E 0 9e 42 64
        E 0 9f 36 5a
        E 0 8a 42 64
        E 0 8e 42 64
        E 0 9a 42 64
        E 0 9e 42 64
        E 0 8a 42 64
        E 0 8e 42 64
        E 0 9a 42 64
        E 0 9e 42 64
        E 0 8a 42 64
        E 0 8e 42 64
        E 0 9a 43 64
        E 1 9e 43 64
        E 0 8a 43 64
        E 0 8e 43 64
        E 0 8f 36 64
        E 0 9a 43 64
        E 0 9e 43 64
        E 0 9f 2e 5a
        E 0 8a 43 64
        E 0 8e 43 64
        E 0 9a 43 64
        E 0 9e 43 64
        E 0 8a 43 64
        E 0 8e 43 64
        E 0 9a 43 64
        E 0 9e 43 64
        E 0 8a 43 64
        E 0 8e 43 64
        E 0 9a 40 64
        E 0 9e 40 64
        E 0 8a 40 64
        E 0 8e 40 64
        E 0 9a 40 64
        E 0 9e 40 64
        E 0 8a 40 64
        E 0 8e 40 64
        E 0 9a 3e 64
        E 0 9e 3e 64
        E 0 8a 3e 64
        E 0 8e 3e 64
        E 0 9a 40 64
        E 0 9e 40 64
        E 0 8a 40 64
        E 0 8e 40 64
        E 0 8f 2e 64
        E 0 9a 42 64
        E 0 9e 42 64
        E 0 9f 32 5a
        E 0 8a 42 64
        E 0 8e 42 64
        E 0 9a 42 64
        E 0 9e 42 64
        E 0 8a 42 64
        E 0 8e 42 64
        E 0 9a 45 64
        E 0 9e 45 64
        E 38403 8a 45 64
        E 0 8e 45 64
        E 0 9a 3e 64
        E 0 9e 3e 64
        E 0 8a 3e 64
        E 0 8e 3e 64
        E 0 9a 45 64
        E 0 9e 45 64
        E 0 8a 45 64
        E 0 8e 45 64
        E 0 8f 32 64
        E 0 9a 45 64
        E 0 9e 45 64
        E 0 9f 32 5a
        E 0 8a 45 64
        E 0 8e 45 64
        E 0 9a 43 64
        E 0 9e 43 64
        E 0 8a 43 64
        E 0 8e 43 64
        E 0 9a 45 64
        E 0 9e 45 64
        E 0 8a 45 64
        E 0 8e 45 64
        E 0 8f 32 64
        E 0 9a 46 66
        E 0 9e 46 66
        E 0 9f 37 5a
        E 0 8a 46 66
        E 0 8e 46 66
        E 0 9a 46 66
        E 1 9e 46 66
        E 0 8a 46 66
        E 0 8e 46 66
        E 0 8f 37 64
        E 0 9f 33 5b
        E 0 9a 48 64
        E 0 9e 48 64
        E 0 8a 48 64
        E 0 8e 48 64
        E 0 9a 48 64
        E 0 9e 48 64
        E 0 8a 48 64
        E 0 8e 48 64
        E 0 9a 43 64
        E 0 9e 43 64
        E 0 8a 43 64
        E 0 8e 43 64
        E 0 8f 33 66
        E 0 9a 45 64
        E 0 9e 45 64
        E 0 9f 32 5a
        E 0 8a 45 64
        E 0 8e 45 64
        E 0 9a 45 64
        E 0 9e 45 64
        E 0 8a 45 64
        E 0 8e 45 64
        E 0 96 45 64
        E 0 9e 45 64
        E 0 86 45 64
        E 0 8e 45 64
        E 0 96 48 64
        E 0 9e 48 64
        E 0 86 48 64
        E 0 8e 48 64
        E 0 96 46 66
        E 0 9e 46 66
        E 0 86 46 66
        E 0 8e 46 66
        E 0 8f 32 64
        E 0 96 43 64
        E 0 9e 43 64
        E 0 9f 2b 5a
        E 0 86 43 64
        E 0 8e 43 64
        E 0 8f 2b 64
        E 0 9f 2b 5a
        E 0 96 46 66
        E 0 9e 46 66
        E 0 86 46 66
        E 0 8e 46 66
        E 0 96 46 66
        E 1 9e 46 66
        E 0 86 46 66
        E 0 8e 46 66
        E 0 96 46 66
        E 0 9e 46 66
        E 0 86 46 66
        E 0 8e 46 66
        E 0 96 46 66
        E 0 9e 46 66
        E 0 86 46 66
        E 0 8e 46 66
        E 0 96 45 64
        E 0 9e 45 64
        E 0 8f 2b 64
        E 0 86 45 64
        E 0 8e 45 64
        E 0 9f 29 5a
        E 0 96 48 64
        E 0 9e 48 64
        E 0 86 48 64
        E 0 8e 48 64
        E 0 96 48 64
        E 0 9e 48 64
        E 0 86 48 64
        E 0 8e 48 64
        E 0 8f 29 64
        E 0 9f 29 5a
        E 0 96 45 64
        E 0 9e 45 64
        E 0 86 45 64
        E 0 8e 45 64
        E 0 96 41 64
        E 0 9e 41 64
        E 0 86 41 64
        E 0 8e 41 64
        E 0 8f 29 64
        E 0 9f 31 5b
        E 1 96 46 66
        E 0 9e 46 66
        E 0 86 46 66
        E 0 8e 46 66
        E 0 96 46 66
        E 0 9e 46 66
        E 0 86 46 66
        E 0 8e 46 66
        E 0 96 41 64
        E 0 9e 41 64
        E 0 86 41 64
        E 0 8e 41 64
        E 0 8f 31 66
        E 0 96 43 64
        E 0 9e 43 64
        E 0 9f 30 5a
        E 0 86 43 64
        E 0 8e 43 64
        E 0 96 43 64
        E 0 9e 43 64
        E 0 86 43 64
        E 0 8e 43 64
        E 0 96 46 66
        E 0 9e 46 66
        E 0 86 46 66
        E 0 8e 46 66
        E 0 96 46 66
        E 0 9e 46 66
        E 0 86 46 66
        E 0 8e 46 66
        E 0 96 45 64
        E 0 9e 45 64
        E 0 86 45 64
        E 0 8e 45 64
        E 0 8f 30 64
        E 0 96 45 64
        E 0 9e 45 64
        E 0 9f 31 5a
        E 0 86 45 64
        E 0 8e 45 64
        E 0 96 45 64
        E 0 9e 45 64
        E 0 86 45 64
        E 0 8e 45 64
        E 0 96 49 64
        E 0 9e 49 64
        E 0 86 49 64
        E 0 8e 49 64
        E 0 96 4a 64
        E 0 9e 4a 64
        E 0 86 4a 64
        E 0 8e 4a 64
        E 0 8f 31 64
        E 0 96 45 64
        E 0 9e 45 64
        E 0 9f 32 5a
        E 0 86 45 64
        E 0 8e 45 64
        E 0 96 45 64
        E 1 9e 45 64
        E 0 86 45 64
        E 0 8e 45 64
        E 0 96 45 64
        E 0 9e 45 64
        E 0 86 45 64
        E 0 8e 45 64
        E 0 9a 41 64
        E 0 9e 41 64
        E 0 8a 41 64
        E 0 8e 41 64
        E 0 9a 45 64
        E 0 9e 45 64
        E 0 8a 45 64
        E 0 8e 45 64
        E 0 9a 45 64
        E 0 9e 45 64
        E 0 8a 45 64
        E 0 8e 45 64
        E 0 8f 32 64
        E 0 9a 45 64
        E 0 9e 45 64
        E 0 9f 35 5a
        E 0 8a 45 64
        E 0 8e 45 64
        E 0 9a 45 64
        E 0 9e 45 64
        E 0 8a 45 64
        E 0 8e 45 64
        E 0 9a 45 64
        E 0 9e 45 64
        E 38403 8a 45 64
        E 0 8e 45 64
        E 0 9a 45 64
        E 0 9e 45 64
        E 0 8a 45 64
        E 0 8e 45 64
        E 0 9a 44 64
        E 0 9e 44 64
        E 0 8a 44 64
        E 0 8e 44 64
        E 0 8f 35 64
        E 0 9a 47 64
        E 0 9e 47 64
        E 0 9f 34 5a
        E 0 8a 47 64
        E 0 8e 47 64
        E 0 9a 47 64
        E 0 9e 47 64
        E 0 8a 47 64
        E 0 8e 47 64
        E 0 8f 34 64
        E 0 9a 44 64
        E 0 9e 44 64
        E 0 9f 34 5a
        E 0 8a 44 64
        E 0 8e 44 64
        E 0 9a 40 64
        E 0 9e 40 64
        E 0 8a 40 64
        E 0 8e 40 64
        E 0 9a 48 64
        E 0 9e 48 64
        E 0 8a 48 64
        E 0 8e 48 64
        E 0 8f 34 64
        E 0 9a 45 64
        E 0 9e 45 64
        E 0 9f 30 5a
        E 0 8a 45 64
        E 0 8e 45 64
        E 0 9a 45 64
        E 1 9e 45 64
        E 0 8a 45 64
        E 0 8e 45 64
        E 0 9a 45 64
        E 0 9e 45 64
        E 0 8a 45 64
        E 0 8e 45 64
        E 0 8f 30 64
        E 0 9a 45 64
        E 0 9e 45 64
        E 0 9f 30 5a
        E 0 8a 45 64
        E 0 8e 45 64
        E 0 9a 45 64
        E 0 9e 45 64
        E 0 8a 45 64
        E 0 8e 45 64
        E 0 9a 45 64
        E 0 9e 45 64
        E 0 8a 45 64
        E 0 8e 45 64
        E 0 9a 43 64
        E 0 9e 43 64
        E 0 8a 43 64
        E 0 8e 43 64
        E 0 8f 30 64
        E 0 9a 40 64
        E 0 9e 40 64
        E 0 9f 2f 5a
        E 0 8a 40 64
        E 0 8e 40 64
        E 0 8f 2f 64
        E 0 9f 35 59
        E 0 9a 44 64
        E 0 9e 44 64
        E 0 8a 44 64
        E 0 8e 44 64
        E 0 9a 44 64
        E 0 9e 44 64
        E 0 8a 44 64
        E 0 8e 44 64
        E 0 9a 45 64
        E 0 9e 45 64
        E 0 8a 45 64
        E 0 8e 45 64
        E 0 8f 35 63
        E 0 9a 47 64
        E 0 9e 47 64
        E 0 9f 35 59
        E 0 8a 47 64
        E 0 8e 47 64
        E 0 9a 47 64
        E 0 9e 47 64
        E 0 8a 47 64
        E 0 8e 47 64
        E 0 9a 47 64
        E 0 9e 47 64
        E 0 8a 47 64
        E 0 8e 47 64
        E 0 9a 41 63
        E 0 9e 41 63
        E 0 8a 41 63
        E 0 8e 41 63
        E 0 9a 41 63
        E 0 9e 41 63
        E 0 8a 41 63
        E 0 8e 41 63
        E 1 9a 44 64
        E 0 9e 44 64
        E 0 8a 44 64
        E 0 8e 44 64
        E 0 9a 44 64
        E 0 9e 44 64
        E 0 8a 44 64
        E 0 8e 44 64
        E 0 8f 35 63
        E 0 9a 47 64
        E 0 9e 47 64
        E 0 9f 35 59
        E 0 8a 47 64
        E 0 8e 47 64
        E 0 9a 47 64
        E 0 9e 47 64
        E 0 8a 47 64
        E 0 8e 47 64
        E 0 9a 47 64
        E 0 9e 47 64
        E 0 8a 47 64
        E 0 8e 47 64
        E 0 9a 45 64
        E 0 9e 45 64
        E 0 8a 45 64
        E 0 8e 45 64
        E 0 8f 35 63
        E 0 9a 42 64
        E 0 9e 42 64
        E 0 9f 36 5a
        E 0 8a 42 64
        E 0 8e 42 64
        E 0 9a 42 64
        E 0 9e 42 64
        E 0 8a 42 64
        E 0 8e 42 64
        E 0 96 49 64
        E 0 9e 49 64
        E 0 86 49 64
        E 0 8e 49 64
        E 0 96 49 64
        E 0 9e 49 64
        E 0 86 49 64
        E 0 8e 49 64
        E 0 8f 36 64
        E 0 96 46 64
        E 1 9e 46 64
        E 0 9f 34 5a
        E 0 86 46 64
        E 0 8e 46 64
        E 0 96 44 64
        E 0 9e 44 64
        E 0 86 44 64
        E 0 8e 44 64
        E 0 96 42 64
        E 0 9e 42 64
        E 0 86 42 64
        E 0 8e 42 64
        E 0 8f 34 64
        E 0 96 47 64
        E 0 9e 47 64
        E 0 9f 32 5a
        E 0 86 47 64
        E 0 8e 47 64
        E 0 96 47 64
        E 0 9e 47 64
        E 0 86 47 64
        E 0 8e 47 64
        E 0 8f 32 64
        E 0 96 43 64
        E 0 9e 43 64
        E 0 9f 34 5a
        E 0 86 43 64
        E 0 8e 43 64
        E 0 96 46 64
        E 1 9e 46 64
        E 0 86 46 64
        E 0 8e 46 64
        E 0 96 47 64
        E 0 9e 47 64
        E 0 86 47 64
        E 0 8e 47 64
        E 0 8f 34 64
        E 0 96 42 64
        E 0 9e 42 64
        E 0 9f 36 5a
        E 0 86 42 64
        E 0 8e 42 64
        E 0 96 42 64
        E 0 9e 42 64
        E 0 86 42 64
        E 0 8e 42 64
        E 0 8f 36 64
        E 0 9f 2f 5a
        E 38402 8f 2f 64
        E 0 92 45 64
        E 0 93 45 5a
        E 0 9a 45 64
        E 0 82 45 64
        E 0 83 45 64
        E 0 8a 45 64
        E 0 92 4a 64
        E 0 93 4a 5a
        E 0 9a 4a 64
        E 0 9f 32 5a
        E 0 82 4a 64
        E 0 83 4a 64
        E 0 8a 4a 64
        E 0 92 49 64
        E 1 93 49 5a
        E 0 9a 49 64
        E 0 82 49 64
        E 0 83 49 64
        E 0 8a 49 64
        E 0 92 47 64
        E 0 93 47 5a
        E 0 9a 47 64
        E 0 82 47 64
        E 0 83 47 64
        E 0 8a 47 64
        E 0 8f 32 64
        E 0 92 45 64
        E 0 93 45 5a
        E 0 9a 45 64
        E 0 9f 31 5a
        E 0 82 45 64
        E 0 83 45 64
        E 0 8a 45 64
        E 0 92 43 64
        E 0 93 43 5a
        E 0 9a 43 64
        E 0 82 43 64
        E 0 83 43 64
        E 0 8a 43 64
        E 0 92 42 64
        E 0 93 42 5a
        E 0 9a 42 64
        E 0 82 42 64
        E 0 83 42 64
        E 0 8a 42 64
        E 0 92 40 64
        E 0 93 40 5a
        E 0 9a 40 64
        E 0 82 40 64
        E 0 83 40 64
        E 0 8a 40 64
        E 0 8f 31 64
        E 0 92 42 64
        E 0 93 42 5a
        E 0 9a 42 64
        E 0 9f 32 5a
        E 0 8f 32 64
        E 0 9f 36 5a
        E 0 82 42 64
        E 0 83 42 64
        E 0 8a 42 64
        E 0 8f 36 64
        E 0 92 3e 64
        E 1 93 3e 5a
        E 0 9a 3e 64
        E 0 9f 37 5a
        E 0 8f 37 64
        E 0 9f 39 5a
        E 0 82 3e 64
        E 0 83 3e 64
        E 0 8a 3e 64
        E 0 8f 39 64
        E 0 9f 32 5a
        E 0 8f 32 64
        E 0 9f 36 5a
        E 0 8f 36 64
        E 0 9f 37 5a
        E 0 8f 37 64
        E 0 9f 39 5a
        E 0 8f 39 64
        E 0 92 47 64
        E 0 93 47 5a
        E 0 9a 47 64
        E 0 9f 2b 5a
        E 0 82 47 64
        E 0 83 47 64
        E 0 8a 47 64
        E 0 92 43 64
        E 0 93 43 5a
        E 0 9a 43 64
        E 0 82 43 64
        E 0 83 43 64
        E 0 8a 43 64
        E 0 92 43 64
        E 0 93 43 5a
        E 0 9a 43 64
        E 0 82 43 64
        E 0 83 43 64
        E 0 8a 43 64
        E 0 8f 2b 64
        E 0 92 4a 64
        E 0 93 4a 5a
        E 0 9a 4a 64
        E 0 9f 2b 5a
        E 0 82 4a 64
        E 0 83 4a 64
        E 0 8a 4a 64
        E 0 92 47 64
        E 0 93 47 5a
        E 0 9a 47 64
        E 0 82 47 64
        E 0 83 47 64
        E 0 8a 47 64
        E 0 8f 2b 64
        E 0 92 47 64
        E 0 93 47 5a
        E 0 9a 47 64
        E 0 9f 32 5a
        E 0 8f 32 64
        E 0 9f 36 5a
        E 0 82 47 64
        E 0 83 47 64
        E 0 8a 47 64
        E 0 8f 36 64
        E 1 92 45 64
        E 0 93 45 5a
        E 0 9a 45 64
        E 0 9f 37 5a
        E 0 8f 37 64
        E 0 9f 39 5a
        E 0 82 45 64
        E 0 83 45 64
        E 0 8a 45 64
        E 0 8f 39 64
        E 0 9f 32 5a
        E 0 8f 32 64
        E 0 9f 36 5a
        E 0 8f 36 64
        E 0 9f 37 5a
        E 0 8f 37 64
        E 0 9f 39 5a
        E 0 8f 39 64
        E 0 92 4a 64
        E 0 93 4a 5a
        E 0 9a 4a 64
        E 0 9f 2c 5a
        E 0 82 4a 64
        E 0 83 4a 64
        E 0 8a 4a 64
        E 0 92 3e 64
        E 0 93 3e 5a
        E 0 9a 3e 64
        E 0 82 3e 64
        E 0 83 3e 64
        E 0 8a 3e 64
        E 0 92 3e 64
        E 0 93 3e 5a
        E 0 9a 3e 64
        E 0 82 3e 64
        E 0 83 3e 64
        E 0 8a 3e 64
        E 0 8f 2c 64
        E 0 92 3e 64
        E 0 93 3e 5a
        E 0 9a 3e 64
        E 0 9f 2c 5a
        E 0 82 3e 64
        E 0 83 3e 64
        E 0 8a 3e 64
        E 0 92 4a 64
        E 0 93 4a 5a
        E 0 9a 4a 64
        E 0 82 4a 64
        E 0 83 4a 64
        E 0 8a 4a 64
        E 0 8f 2c 64
        E 0 92 49 64
        E 0 93 49 5a
        E 0 9a 49 64
        E 0 9f 2d 5a
        E 0 8f 2d 64
        E 0 9f 39 5a
        E 0 82 49 64
        E 1 83 49 64
        E 0 8a 49 64
        E 0 8f 39 64
        E 0 92 45 64
        E 0 93 45 5a
        E 0 9a 45 64
        E 0 9f 3b 5a
        E 0 8f 3b 64
        E 0 9f 3d 5a
        E 0 82 45 64
        E 0 83 45 64
        E 0 8a 45 64
        E 0 8f 3d 64
        E 0 92 48 64
        E 0 93 40 5a
        E 0 9a 48 64
        E 0 9f 2d 5a
        E 0 8f 2d 64
        E 0 9f 39 5a
        E 0 8f 39 64
        E 0 9f 3b 5a
        E 0 8f 3b 64
        E 0 9f 3d 5a
        E 0 82 48 64
        E 0 83 40 64
        E 0 8a 48 64
        E 0 8f 3d 64
        E 0 92 48 64
        E 0 93 42 5a
        E 0 9a 48 64
        E 0 9f 33 5a
        E 0 82 48 64
        E 0 83 42 64
        E 0 8a 48 64
        E 0 8f 33 64
        E 0 92 47 64
        E 0 93 42 5a
        E 0 9a 47 64
        E 0 9f 33 5a
        E 0 82 47 64
        E 0 8a 47 64
        E 0 92 45 64
        E 0 9a 45 64
        E 0 82 45 64
        E 0 83 42 64
        E 0 8a 45 64
        E 0 8f 33 64
        E 0 92 47 64
        E 0 93 42 5a
        E 0 9a 47 64
        E 0 9f 33 5a
        E 0 82 47 64
        E 0 83 42 64
        E 0 8a 47 64
        E 0 8f 33 64
        E 0 92 42 64
        E 0 93 42 5a
        E 0 9a 42 64
        E 0 9f 33 5a
        E 0 82 42 64
        E 0 83 42 64
        E 0 8a 42 64
        E 0 8f 33 64
        E 0 92 44 64
        E 0 93 40 5a
        E 0 9a 44 64
        E 0 9f 34 5a
        E 0 82 44 64
        E 0 83 40 64
        E 0 8a 44 64
        E 0 8f 34 64
        E 0 92 40 64
        E 0 93 3b 5a
        E 1 9a 40 64
        E 0 9f 32 5a
        E 0 82 40 64
        E 0 83 3b 64
        E 0 8a 40 64
        E 0 8f 32 64
        E 0 92 45 64
        E 0 93 45 5a
        E 0 9a 45 64
        E 0 9f 31 5a
        E 0 82 45 64
        E 0 83 45 64
        E 0 8a 45 64
        E 0 8f 31 64
        E 0 92 40 64
        E 0 93 40 5a
        E 0 9a 40 64
        E 0 9f 2f 5a
        E 0 82 40 64
        E 0 83 40 64
        E 0 8a 40 64
        E 0 8f 2f 64
        E 0 92 49 64
        E 0 93 49 5a
        E 0 9a 49 64
        E 0 9f 2d 5a
        E 0 82 49 64
        E 0 83 49 64
        E 0 8a 49 64
        E 0 8f 2d 64
        E 0 92 47 64
        E 0 93 47 5a
        E 0 9a 47 64
        E 0 9f 31 5a
        E 0 82 47 64
        E 0 83 47 64
        E 0 8a 47 64
        E 0 92 45 64
        E 0 93 45 5a
        E 0 9a 45 64
        E 0 82 45 64
        E 0 83 45 64
        E 0 8a 45 64
        E 0 8f 31 64
        E 0 92 3e 64
        E 0 93 3e 5a
        E 0 9a 3e 64
        E 1 9f 32 5a
        E 0 82 3e 64
        E 0 83 3e 64
        E 0 8a 3e 64
        E 0 8f 32 64
        E 0 92 40 64
        E 0 93 40 5a
        E 0 9a 40 64
        E 0 9f 34 5a
        E 0 82 40 64
        E 0 83 40 64
        E 0 8a 40 64
        E 0 8f 34 64
        E 0 92 39 64
        E 0 93 39 5a
        E 0 9a 39 64
        E 0 9f 2d 5a
        E 0 82 39 64
        E 0 92 49 64
        E 0 82 49 64
        E 0 83 39 64
        E 0 92 4a 64
        E 0 93 40 5a
        E 0 82 4a 64
        E 0 92 4c 64
        E 0 82 4c 64
        E 0 83 40 64
        E 0 8a 39 64
        E 0 8f 2d 64
        E 0 92 45 64
        E 0 93 40 5a
        E 0 9f 2d 5a
        E 0 82 45 64
        E 0 92 49 64
        E 0 82 49 64
        E 0 83 40 64
        E 0 92 4a 64
        E 0 93 40 5a
        E 0 82 4a 64
        E 0 92 4c 64
        E 0 82 4c 64
        E 0 83 40 64
        E 0 8f 2d 64
        E 0 92 4a 64
        E 0 93 42 5a
        E 0 9f 32 5a
        E 0 82 4a 64
        E 0 92 4a 64
        E 0 82 4a 64
        E 0 83 42 64
        E 0 92 4c 64
        E 0 93 42 5a
        E 0 82 4c 64
        E 0 92 4e 64
        E 0 82 4e 64
        E 0 83 42 64
        E 0 8f 32 64
        E 0 92 47 64
        E 0 93 40 5a
        E 0 9f 34 5a
        E 0 82 47 64
        E 0 92 47 64
        E 0 82 47 64
        E 0 83 40 64
        E 0 92 49 64
        E 0 93 40 5a
        E 0 82 49 64
        E 0 92 4a 64
        E 0 82 4a 64
        E 0 83 40 64
        E 0 8f 34 64
        E 0 92 49 64
        E 0 93 40 5a
        E 0 9f 2d 5a
        E 0 82 49 64
        E 0 92 49 64
        E 0 82 49 64
        E 0 83 40 64
        E 0 8f 2d 64
        E 0 92 4a 64
        E 0 93 40 5a
        E 0 9f 2d 5a
        E 0 82 4a 64
        E 0 92 4c 64
        E 0 82 4c 64
        E 0 83 40 64
        E 0 8f 2d 64
        E 0 92 40 64
        E 0 93 40 5a
        E 0 9f 34 5a
        E 0 82 40 64
        E 0 83 40 64
        E 0 8f 34 64
        E 0 92 50 64
        E 0 93 40 5a
        E 0 9a 40 64
        E 0 9f 34 5a
        E 38404 82 50 64
        E 0 83 40 64
        E 0 8a 40 64
        E 0 8f 34 64
        E 0 92 51 64
        E 0 93 45 5a
        E 0 9a 45 64
        E 0 9f 2d 5a
        E 0 82 51 64
        E 0 83 45 64
        E 0 8a 45 64
        E 0 92 50 64
        E 0 93 44 5a
        E 0 9a 44 64
        E 0 82 50 64
        E 0 83 44 64
        E 0 8a 44 64
        E 0 92 4e 64
        E 0 93 42 5a
        E 0 9a 42 64
        E 0 82 4e 64
        E 0 83 42 64
        E 0 8a 42 64
        E 0 8f 2d 64
        E 0 92 4c 64
        E 0 93 40 5a
        E 0 9a 40 64
        E 0 9f 2c 5a
        E 1 82 4c 64
        E 0 83 40 64
        E 0 8a 40 64
        E 0 92 4a 64
        E 0 93 3e 5a
        E 0 9a 3e 64
        E 0 82 4a 64
        E 0 83 3e 64
        E 0 8a 3e 64
        E 0 92 49 64
        E 0 93 3d 5a
        E 0 9a 3d 64
        E 0 82 49 64
        E 0 83 3d 64
        E 0 8a 3d 64
        E 0 92 47 64
        E 0 93 3b 5a
        E 0 9a 3b 64
        E 0 82 47 64
        E 0 83 3b 64
        E 0 8a 3b 64
        E 0 8f 2c 64
        E 0 92 49 64
        E 0 93 3d 5a
        E 0 9a 3d 64
        E 0 9f 2d 5a
        E 0 8f 2d 64
        E 0 9f 39 5a
        E 0 82 49 64
        E 0 83 3d 64
        E 0 8a 3d 64
        E 0 8f 39 64
        E 0 92 45 64
        E 0 93 39 5a
        E 0 9a 39 64
        E 0 9f 3b 5a
        E 0 8f 3b 64
        E 0 9f 3d 5a
        E 0 82 45 64
        E 0 83 39 64
        E 0 8a 39 64
        E 0 8f 3d 64
        E 0 9f 2d 5a
        E 0 8f 2d 64
        E 0 9f 39 5a
        E 0 8f 39 64
        E 0 92 45 64
        E 0 93 45 5a
        E 0 9a 45 64
        E 0 9f 3b 5a
        E 0 8f 3b 64
        E 0 9f 3d 5a
        E 0 82 45 64
        E 0 83 45 64
        E 0 8a 45 64
        E 0 8f 3d 64
        E 1 92 4a 64
        E 0 93 4a 5a
        E 0 9a 4a 64
        E 0 9f 32 5a
        E 0 82 4a 64
        E 0 83 4a 64
        E 0 8a 4a 64
        E 0 92 49 64
        E 0 93 49 5a
        E 0 9a 49 64
        E 0 82 49 64
        E 0 83 49 64
        E 0 8a 49 64
        E 0 92 47 64
        E 0 93 47 5a
        E 0 9a 47 64
        E 0 82 47 64
        E 0 83 47 64
        E 0 8a 47 64
        E 0 8f 32 64
        E 0 92 45 64
        E 0 93 45 5a
        E 0 9a 45 64
        E 0 9f 31 5a
        E 0 82 45 64
        E 0 83 45 64
        E 0 8a 45 64
        E 0 92 43 64
        E 0 93 43 5a
        E 0 9a 43 64
        E 0 82 43 64
        E 0 83 43 64
        E 0 8a 43 64
        E 0 92 42 64
        E 0 93 42 5a
        E 0 9a 42 64
        E 0 82 42 64
        E 0 83 42 64
        E 0 8a 42 64
        E 0 92 40 64
        E 0 93 40 5a
        E 0 9a 40 64
        E 0 82 40 64
        E 0 83 40 64
        E 0 8a 40 64
        E 0 8f 31 64
        E 0 92 42 64
        E 0 93 42 5a
        E 0 9a 42 64
        E 1 9f 32 5a
        E 0 8f 32 64
        E 0 9f 36 5a
        E 0 82 42 64
        E 0 83 42 64
        E 0 8a 42 64
        E 0 8f 36 64
        E 0 92 3e 64
        E 0 93 3e 5a
        E 0 9a 3e 64
        E 0 9f 37 5a
        E 0 8f 37 64
        E 0 9f 39 5a
        E 0 82 3e 64
        E 0 83 3e 64
        E 0 8a 3e 64
        E 0 8f 39 64
        E 0 9f 32 5a
        E 0 8f 32 64
        E 0 9f 36 5a
        E 0 8f 36 64
        E 0 9f 37 5a
        E 0 8f 37 64
        E 0 9f 39 5a
        E 0 8f 39 64
        E 0 92 45 64
        E 0 93 45 5a
        E 0 9a 45 64
        E 0 9f 32 5a
        E 0 82 45 64
        E 0 83 45 64
        E 0 8a 45 64
        E 0 92 3e 64
        E 0 93 3e 5a
        E 0 9a 3e 64
        E 0 82 3e 64
        E 0 83 3e 64
        E 0 8a 3e 64
        E 0 92 3e 64
        E 0 93 3e 5a
        E 0 9a 3e 64
        E 0 82 3e 64
        E 0 83 3e 64
        E 0 8a 3e 64
        E 0 8f 32 64
        E 0 92 3e 64
        E 0 93 3e 5a
        E 0 9a 3e 64
        E 0 9f 36 5a
        E 0 82 3e 64
        E 0 83 3e 64
        E 0 8a 3e 64
        E 0 92 48 64
        E 0 93 48 5a
        E 0 9a 48 64
        E 0 82 48 64
        E 0 83 48 64
        E 0 8a 48 64
        E 0 8f 36 64
        E 0 92 47 64
        E 0 93 47 5a
        E 0 9a 47 64
        E 0 9f 37 5a
        E 1 8f 37 64
        E 0 9f 37 5a
        E 0 82 47 64
        E 0 83 47 64
        E 0 8a 47 64
        E 0 8f 37 64
        E 0 92 43 64
        E 0 93 43 5a
        E 0 9a 43 64
        E 0 9f 39 5a
        E 0 8f 39 64
        E 0 9f 3b 5a
        E 0 82 43 64
        E 0 83 43 64
        E 0 8a 43 64
        E 0 8f 3b 64
        E 0 9f 2b 5a
        E 0 8f 2b 64
        E 0 9f 37 5a
        E 0 8f 37 64
        E 0 9f 39 5a
        E 0 8f 39 64
        E 0 9f 3b 5a
        E 0 8f 3b 64
        E 0 92 47 64
        E 0 93 47 5a
        E 0 9a 47 64
        E 0 9f 34 5a
        E 0 82 47 64
        E 0 83 47 64
        E 0 8a 47 64
        E 0 92 40 64
        E 0 93 40 5a
        E 0 9a 40 64
        E 0 82 40 64
        E 0 83 40 64
        E 0 8a 40 64
        E 0 92 40 64
        E 0 93 40 5a
        E 0 9a 40 64
        E 0 82 40 64
        E 0 83 40 64
        E 0 8a 40 64
        E 0 8f 34 64
        E 0 92 40 64
        E 0 93 40 5a
        E 0 9a 40 64
        E 0 9f 38 5a
        E 0 82 40 64
        E 0 83 40 64
        E 1 8a 40 64
        E 0 92 4a 64
        E 0 93 4a 5a
        E 0 9a 4a 64
        E 0 82 4a 64
        E 0 83 4a 64
        E 0 8a 4a 64
        E 0 8f 38 64
        E 0 92 49 64
        E 0 93 49 5a
        E 0 9a 49 64
        E 0 9f 2d 5a
        E 0 8f 2d 64
        E 0 9f 39 5a
        E 0 82 49 64
        E 0 83 49 64
        E 0 8a 49 64
        E 0 8f 39 64
        E 0 92 45 64
        E 0 93 45 5a
        E 0 9a 45 64
        E 0 9f 3b 5a
        E 0 8f 3b 64
        E 0 9f 3d 5a
        E 0 82 45 64
        E 0 83 45 64
        E 0 8a 45 64
        E 0 8f 3d 64
        E 0 9f 2d 5a
        E 0 8f 2d 64
        E 0 9f 39 5a
        E 0 8f 39 64
        E 0 9f 3b 5a
        E 0 8f 3b 64
        E 0 9f 3d 5a
        E 0 8f 3d 64
        E 0 92 45 64
        E 0 93 45 5a
        E 0 9a 45 64
        E 0 9f 32 5a
        E 0 82 45 64
        E 0 83 45 64
        E 0 8a 45 64
        E 0 92 43 64
        E 0 93 43 5a
        E 0 9a 43 64
        E 0 82 43 64
        E 0 83 43 64
        E 0 8a 43 64
        E 0 92 42 64
        E 0 93 42 5a
        E 0 9a 42 64
        E 0 82 42 64
        E 0 83 42 64
        E 0 8a 42 64
        E 0 8f 32 64
        E 0 92 43 64
        E 0 93 43 5a
        E 0 9a 43 64
        E 0 9f 2d 5a
        E 0 82 43 64
        E 0 83 43 64
        E 1 8a 43 64
        E 0 92 45 64
        E 0 93 45 5a
        E 0 9a 45 64
        E 0 82 45 64
        E 0 83 45 64
        E 0 8a 45 64
        E 0 92 47 64
        E 0 93 47 5a
        E 0 9a 47 64
        E 0 82 47 64
        E 0 83 47 64
        E 0 8a 47 64
        E 0 92 49 64
        E 0 93 49 5a
        E 0 9a 49 64
        E 0 82 49 64
        E 0 83 49 64
        E 0 8a 49 64
        E 0 8f 2d 64
        E 0 92 4a 64
        E 0 93 4a 5a
        E 0 9a 4a 64
        E 0 9f 32 5a
        E 0 8f 32 64
        E 0 9f 36 5a
        E 0 82 4a 64
        E 0 83 4a 64
        E 0 8a 4a 64
        E 0 8f 36 64
        E 0 92 3e 64
        E 0 93 3e 5a
        E 0 9a 3e 64
        E 0 9f 37 5a
        E 0 8f 37 64
        E 0 9f 39 5a
        E 0 82 3e 64
        E 0 83 3e 64
        E 0 8a 3e 64
        E 0 8f 39 64
        E 0 92 45 64
        E 0 93 45 5a
        E 0 9a 45 64
        E 0 9f 32 5a
        E 0 8f 32 64
        E 0 9f 36 5a
        E 0 82 45 64
        E 0 83 45 64
        E 0 8a 45 64
        E 0 8f 36 64
        E 0 92 45 64
        E 0 93 45 5a
        E 0 9a 45 64
        E 0 9f 37 5a
        E 0 8f 37 64
        E 0 9f 39 5a
        E 0 82 45 64
        E 0 83 45 64
        E 0 8a 45 64
        E 0 8f 39 64
        E 0 92 4a 64
        E 0 93 4a 5a
        E 0 9a 4a 64
        E 0 9f 36 5a
        E 1 82 4a 64
        E 0 83 4a 64
        E 0 8a 4a 64
        E 0 8f 36 64
        E 0 92 49 64
        E 0 93 49 5a
        E 0 9a 49 64
        E 0 9f 37 5a
        E 0 82 49 64
        E 0 83 49 64
        E 0 8a 49 64
        E 0 92 47 64
        E 0 93 47 5a
        E 0 9a 47 64
        E 0 82 47 64
        E 0 83 47 64
        E 0 8a 47 64
        E 0 8f 37 64
        E 0 92 45 64
        E 0 93 45 5a
        E 0 9a 45 64
        E 0 9f 39 5a
        E 0 82 45 64
        E 0 83 45 64
        E 0 8a 45 64
        E 0 92 43 64
        E 0 93 43 5a
        E 0 9a 43 64
        E 0 82 43 64
        E 0 83 43 64
        E 0 8a 43 64
        E 0 8f 39 64
        E 0 92 42 64
        E 0 93 42 5a
        E 0 9a 42 64
        E 0 9f 2d 5a
        E 0 82 42 64
        E 0 83 42 64
        E 0 8a 42 64
        E 0 92 40 64
        E 0 93 40 5a
        E 0 9a 40 64
        E 0 82 40 64
        E 0 83 40 64
        E 0 8a 40 64
        E 0 8f 2d 64
        E 0 92 3e 64
        E 0 93 3e 5a
        E 0 9a 3e 64
        E 0 9f 32 5a
        E 0 82 3e 64
        E 0 83 3e 64
        E 0 8a 3e 64
        E 0 8f 32 64
        E 0 92 42 64
        E 0 93 42 5a
        E 0 9a 42 64
        E 0 9f 32 5a
        E 0 82 42 64
        E 0 83 42 64
        E 0 8a 42 64
        E 0 92 3e 64
        E 0 93 3e 5a
        E 0 9a 3e 64
        E 0 82 3e 64
        E 0 83 3e 64
        E 0 8a 3e 64
        E 0 92 3e 64
        E 0 93 3e 5a
        E 0 9a 3e 64
        E 0 82 3e 64
        E 0 83 3e 64
        E 0 8a 3e 64
        E 0 8f 32 64
        E 0 92 45 64
        E 0 93 45 5a
        E 0 9a 45 64
        E 0 9f 32 5a
        E 0 82 45 64
        E 0 83 45 64
        E 0 8a 45 64
        E 0 92 42 64
        E 0 93 42 5a
        E 0 9a 42 64
        E 0 82 42 64
        E 0 83 42 64
        E 0 8a 42 64
        E 0 92 42 64
        E 1 93 42 5a
        E 0 9a 42 64
        E 0 82 42 64
        E 0 83 42 64
        E 0 8a 42 64
        E 0 8f 32 64
        E 0 92 45 64
        E 0 93 45 5a
        E 0 9a 45 64
        E 0 9f 39 5a
        E 0 82 45 64
        E 0 83 45 64
        E 0 8a 45 64
        E 0 8f 39 64
        E 0 92 45 64
        E 0 93 45 5a
        E 0 9a 45 64
        E 0 9f 37 5a
        E 0 82 45 64
        E 0 83 45 64
        E 0 8a 45 64
        E 0 8f 37 64
        E 0 92 4a 64
        E 0 93 4a 5a
        E 0 9a 4a 64
        E 0 9f 36 5a
        E 0 82 4a 64
        E 0 83 4a 64
        E 0 8a 4a 64
        E 0 8f 36 64
        E 0 92 49 64
        E 0 93 49 5a
        E 0 9a 49 64
        E 0 9f 37 5a
        E 38403 82 49 64
        E 0 83 49 64
        E 0 8a 49 64
        E 0 92 47 64
        E 0 93 47 5a
        E 0 9a 47 64
        E 0 82 47 64
        E 0 83 47 64
        E 0 8a 47 64
        E 0 8f 37 64
        E 0 92 45 64
        E 1 93 45 5a
        E 0 9a 45 64
        E 0 9f 39 5a
        E 0 82 45 64
        E 0 83 45 64
        E 0 8a 45 64
        E 0 92 43 64
        E 0 93 43 5a
        E 0 9a 43 64
        E 0 82 43 64
        E 0 83 43 64
        E 0 8a 43 64
        E 0 8f 39 64
        E 0 92 42 64
        E 0 93 42 5a
        E 0 9a 42 64
        E 0 9f 2d 5a
        E 0 82 42 64
        E 0 83 42 64
        E 0 8a 42 64
        E 0 92 40 64
        E 0 93 40 5a
        E 0 9a 40 64
        E 0 82 40 64
        E 0 83 40 64
        E 0 8a 40 64
        E 0 8f 2d 64
        E 0 92 3e 64
        E 0 93 3e 5a
        E 0 9a 3e 64
        E 0 9f 32 5a
        E 0 82 3e 64
        E 0 92 4e 64
        E 0 82 4e 64
        E 0 92 4f 64
        E 0 82 4f 64
        E 0 92 51 64
        E 0 82 51 64
        E 0 83 3e 64
        E 0 8a 3e 64
        E 0 8f 32 64
        E 0 92 4a 64
        E 0 93 42 5a
        E 0 9f 32 5a
        E 0 82 4a 64
        E 0 92 4e 64
        E 0 82 4e 64
        E 0 92 4f 64
        E 0 82 4f 64
        E 0 92 51 64
        E 0 82 51 64
        E 0 83 42 64
        E 0 8f 32 64
        E 0 92 49 64
        E 0 93 45 5a
        E 0 9f 39 5a
        E 0 82 49 64
        E 1 92 4c 64
        E 0 82 4c 64
        E 0 92 4e 64
        E 0 82 4e 64
        E 0 92 4f 64
        E 0 82 4f 64
        E 0 83 45 64
        E 0 8f 39 64
        E 0 92 49 64
        E 0 93 45 5a
        E 0 9f 2d 5a
        E 0 82 49 64
        E 0 92 4c 64
        E 0 82 4c 64
        E 0 92 4e 64
        E 0 82 4e 64
        E 0 92 4f 64
        E 0 82 4f 64
        E 0 83 45 64
        E 0 8f 2d 64
        E 0 92 4e 64
        E 0 93 45 5a
        E 0 9f 32 5a
        E 0 82 4e 64
        E 0 92 4e 64
        E 0 82 4e 64
        E 0 92 4f 64
        E 0 82 4f 64
        E 0 92 51 64
        E 0 82 51 64
        E 0 83 45 64
        E 0 8f 32 64
        E 0 92 4a 64
        E 0 93 42 5a
        E 0 9f 32 5a
        E 0 82 4a 64
        E 0 92 4e 64
        E 0 82 4e 64
        E 0 92 4f 64
        E 0 82 4f 64
        E 0 92 51 64
        E 0 82 51 64
        E 0 83 42 64
        E 0 8f 32 64
        E 0 92 47 64
        E 0 93 3e 5a
        E 0 9f 37 5a
        E 0 82 47 64
        E 0 92 4f 64
        E 0 82 4f 64
        E 0 92 51 64
        E 0 82 51 64
        E 0 92 53 64
        E 0 82 53 64
        E 0 83 3e 64
        E 0 8f 37 64
        E 0 92 4a 64
        E 0 93 40 5a
        E 1 9f 2b 5a
        E 0 82 4a 64
        E 0 92 4f 64
        E 0 82 4f 64
        E 0 92 51 64
        E 0 82 51 64
        E 0 92 53 64
        E 0 82 53 64
        E 0 83 40 64
        E 0 8f 2b 64
        E 0 92 49 64
        E 0 93 40 5a
        E 0 9f 2d 5a
        E 0 82 49 64
        E 0 83 40 64
        E 0 8f 2d 64
        E 0 92 4f 64
        E 0 93 49 5a
        E 0 9f 39 5a
        E 0 82 4f 64
        E 0 83 49 64
        E 0 8f 39 64
        E 0 92 4e 64
        E 0 93 45 5a
        E 0 9f 32 5a
        E 0 82 4e 64
        E 0 83 45 64
        E 0 8f 32 64
        E 0 92 4c 64
        E 0 93 45 5a
        E 0 9f 2d 5a
        E 0 82 4c 64
        E 0 83 45 64
        E 0 8f 2d 64
        E 0 92 4a 64
        E 0 93 42 5a
        E 0 9f 32 5a
        E 0 82 4a 64
        E 0 83 42 64
        E 0 8f 32 64
        E 0 92 47 64
        E 0 93 47 5a
        E 0 9a 47 64
        E 0 9f 2f 5a
        E 0 82 47 64
        E 0 83 47 64
        E 0 8a 47 64
        E 0 92 42 64
        E 0 93 42 5a
        E 0 9a 42 64
        E 0 82 42 64
        E 0 83 42 64
        E 0 8a 42 64
        E 0 92 42 64
        E 0 93 42 5a
        E 0 9a 42 64
        E 0 82 42 64
        E 0 83 42 64
        E 0 8a 42 64
        E 0 8f 2f 64
        E 0 92 42 64
        E 0 93 42 5a
        E 0 9a 42 64
        E 0 9f 2f 5a
        E 0 82 42 64
        E 0 83 42 64
        E 0 8a 42 64
        E 0 92 4a 64
        E 0 93 4a 5a
        E 0 9a 4a 64
        E 0 82 4a 64
        E 0 83 4a 64
        E 0 8a 4a 64
        E 0 8f 2f 64
        E 0 92 49 64
        E 0 93 49 5a
        E 0 9a 49 64
        E 0 9f 2a 5a
        E 1 8f 2a 64
        E 0 9f 36 5a
        E 0 82 49 64
        E 0 83 49 64
        E 0 8a 49 64
        E 0 8f 36 64
        E 0 92 42 64
        E 0 93 42 5a
        E 0 9a 42 64
        E 0 9f 38 5a
        E 0 8f 38 64
        E 0 9f 3a 5a
        E 0 82 42 64
        E 0 83 42 64
        E 0 8a 42 64
        E 0 8f 3a 64
        E 0 9f 2a 5a
        E 0 8f 2a 64
        E 0 9f 36 5a
        E 0 8f 36 64
        E 0 9f 38 5a
        E 0 8f 38 64
        E 0 9f 3a 5a
        E 0 8f 3a 64
        E 0 92 49 64
        E 0 93 49 5a
        E 0 9a 49 64
        E 0 9f 2e 5a
        E 0 82 49 64
        E 0 83 49 64
        E 0 8a 49 64
        E 0 92 40 64
        E 0 93 40 5a
        E 0 9a 40 64
        E 0 82 40 64
        E 0 83 40 64
        E 0 8a 40 64
        E 0 92 40 64
        E 0 93 40 5a
        E 0 9a 40 64
        E 0 82 40 64
        E 0 83 40 64
        E 0 8a 40 64
        E 0 8f 2e 64
        E 0 92 40 64
        E 0 93 40 5a
        E 0 9a 40 64
        E 0 9f 2e 5a
        E 0 82 40 64
        E 0 83 40 64
        E 0 8a 40 64
        E 0 92 42 64
        E 0 93 42 5a
        E 1 9a 42 64
        E 0 82 42 64
        E 0 83 42 64
        E 0 8a 42 64
        E 0 8f 2e 64
        E 0 92 3e 64
        E 0 93 3e 5a
        E 0 9a 3e 64
        E 0 9f 2f 5a
        E 0 82 3e 64
        E 0 83 3e 64
        E 0 8a 3e 64
        E 0 8f 2f 64
        E 0 92 3d 64
        E 0 93 3d 5a
        E 0 9a 3d 64
        E 0 9f 3b 5a
        E 0 82 3d 64
        E 0 83 3d 64
        E 0 8a 3d 64
        E 0 8f 3b 64
        E 0 92 3b 64
        E 0 93 3b 5a
        E 0 9a 3b 64
        E 0 9f 3d 5a
        E 0 8f 3d 64
        E 0 9f 3e 5a
        E 0 82 3b 64
        E 0 83 3b 64
        E 0 8a 3b 64
        E 0 8f 3e 64
        E 0 9f 32 5a
        E 0 8f 32 64
        E 0 9f 3e 5a
        E 0 8f 3e 64
        E 0 92 42 64
        E 0 93 42 5a
        E 0 9a 42 64
        E 0 9f 40 5a
        E 0 8f 40 64
        E 0 9f 42 5a
        E 0 82 42 64
        E 0 83 42 64
        E 0 8a 42 64
        E 0 8f 42 64
        E 0 92 43 64
        E 0 93 43 5a
        E 0 9a 43 64
        E 0 9f 34 5a
        E 0 82 43 64
        E 0 83 43 64
        E 0 8a 43 64
        E 0 92 40 64
        E 1 93 40 5a
        E 0 9a 40 64
        E 0 82 40 64
        E 0 83 40 64
        E 0 8a 40 64
        E 0 8f 34 64
        E 0 92 46 64
        E 0 93 46 5a
        E 0 9a 46 64
        E 0 9f 36 5a
        E 0 82 46 64
        E 0 83 46 64
        E 0 8a 46 64
        E 0 92 42 64
        E 0 93 42 5a
        E 0 9a 42 64
        E 0 82 42 64
        E 0 83 42 64
        E 0 8a 42 64
        E 0 8f 36 64
        E 0 92 47 64
        E 0 93 47 5a
        E 0 9a 47 64
        E 0 9f 37 5a
        E 0 8f 37 64
        E 0 9f 34 5a
        E 0 82 47 64
        E 0 83 47 64
        E 0 8a 47 64
        E 0 8f 34 64
        E 0 92 3b 64
        E 0 93 3b 5a
        E 0 9a 3b 64
        E 0 9f 36 5a
        E 0 8f 36 64
        E 0 9f 37 5a
        E 0 82 3b 64
        E 0 83 3b 64
        E 0 8a 3b 64
        E 0 8f 37 64
        E 0 92 42 64
        E 0 93 42 5a
        E 0 9a 42 64
        E 0 9f 2f 5a
        E 0 8f 2f 64
        E 0 9f 34 5a
        E 0 8f 34 64
        E 0 9f 36 5a
        E 0 8f 36 64
        E 0 9f 37 5a
        E 0 82 42 64
        E 0 83 42 64
        E 0 8a 42 64
        E 0 8f 37 64
        E 0 92 42 64
        E 0 93 42 5a
        E 0 9a 42 64
        E 0 9f 2e 5a
        E 0 82 42 64
        E 0 83 42 64
        E 0 8a 42 64
        E 0 92 40 64
        E 0 93 40 5a
        E 0 9a 40 64
        E 38403 82 40 64
        E 0 83 40 64
        E 0 8a 40 64
        E 0 92 42 64
        E 0 93 42 5a
        E 0 9a 42 64
        E 0 82 42 64
        E 0 83 42 64
        E 0 8a 42 64
        E 0 92 43 64
        E 0 93 43 5a
        E 0 9a 43 64
        E 0 82 43 64
        E 0 83 43 64
        E 0 8a 43 64
        E 0 8f 2e 64
        E 0 92 42 64
        E 0 93 42 5a
        E 0 9a 42 64
        E 0 9f 2a 5a
        E 0 82 42 64
        E 0 83 42 64
        E 0 8a 42 64
        E 0 92 40 64
        E 0 93 40 5a
        E 1 9a 40 64
        E 0 82 40 64
        E 0 83 40 64
        E 0 8a 40 64
        E 0 8f 2a 64
        E 0 92 42 64
        E 0 93 42 5a
        E 0 9a 42 64
        E 0 9f 2f 5a
        E 0 82 42 64
        E 0 83 42 64
        E 0 8a 42 64
        E 0 8f 2f 64
        E 0 92 47 64
        E 0 93 47 5a
        E 0 9a 47 64
        E 0 9f 2f 5a
        E 0 82 47 64
        E 0 83 47 64
        E 0 8a 47 64
        E 0 92 42 64
        E 0 93 42 5a
        E 0 9a 42 64
        E 0 82 42 64
        E 0 83 42 64
        E 0 8a 42 64
        E 0 8f 2f 64
        E 0 92 4a 64
        E 0 93 4a 5a
        E 0 9a 4a 64
        E 0 9f 2f 5a
        E 0 82 4a 64
        E 0 83 4a 64
        E 0 8a 4a 64
        E 0 8f 2f 64
        E 0 92 49 64
        E 0 93 49 5a
        E 0 9a 49 64
        E 0 9f 32 5a
        E 0 82 49 64
        E 0 83 49 64
        E 0 8a 49 64
        E 0 92 47 64
        E 0 93 47 5a
        E 0 9a 47 64
        E 0 82 47 64
        E 0 83 47 64
        E 0 8a 47 64
        E 0 8f 32 64
        E 0 92 49 64
        E 0 93 49 5a
        E 0 9a 49 64
        E 0 9f 34 5a
        E 0 82 49 64
        E 0 83 49 64
        E 0 8a 49 64
        E 0 8f 34 64
        E 0 92 42 64
        E 0 93 42 5a
        E 0 9a 42 64
        E 0 9f 36 5a
        E 0 82 42 64
        E 0 83 42 64
        E 0 8a 42 64
        E 0 8f 36 64
        E 0 92 47 64
        E 0 93 3b 5a
        E 0 9a 47 64
        E 0 9f 2f 5a
        E 0 82 47 64
        E 0 92 4a 64
        E 0 82 4a 64
        E 0 92 4c 64
        E 0 82 4c 64
        E 0 92 4e 64
        E 0 82 4e 64
        E 0 83 3b 64
        E 0 8a 47 64
        E 0 8f 2f 64
        E 0 92 47 64
        E 0 93 42 5a
        E 0 9f 2f 5a
        E 0 82 47 64
        E 0 92 4a 64
        E 0 82 4a 64
        E 0 92 4c 64
        E 0 82 4c 64
        E 0 92 4e 64
        E 0 82 4e 64
        E 0 83 42 64
        E 0 8f 2f 64
        E 0 92 45 64
        E 0 93 3d 5a
        E 1 9f 31 5a
        E 0 82 45 64
        E 0 92 4c 64
        E 0 82 4c 64
        E 0 92 4e 64
        E 0 82 4e 64
        E 0 92 4f 64
        E 0 82 4f 64
        E 0 83 3d 64
        E 0 8f 31 64
        E 0 92 49 64
        E 0 93 3d 5a
        E 0 9f 31 5a
        E 0 82 49 64
        E 0 92 4c 64
        E 0 82 4c 64
        E 0 92 4e 64
        E 0 82 4e 64
        E 0 92 4f 64
        E 0 82 4f 64
        E 0 83 3d 64
        E 0 8f 31 64
        E 0 92 4e 64
        E 0 93 39 5a
        E 0 9f 32 5a
        E 0 82 4e 64
        E 0 92 4a 64
        E 0 82 4a 64
        E 0 92 4c 64
        E 0 82 4c 64
        E 0 92 4e 64
        E 0 82 4e 64
        E 0 83 39 64
        E 0 8f 32 64
        E 0 92 45 64
        E 0 93 42 5a
        E 0 9f 32 5a
        E 0 82 45 64
        E 0 92 4a 64
        E 0 82 4a 64
        E 0 92 4c 64
        E 0 82 4c 64
        E 0 92 4e 64
        E 0 82 4e 64
        E 0 83 42 64
        E 0 8f 32 64
        E 0 92 47 64
        E 0 93 3e 5a
        E 0 9f 37 5a
        E 0 82 47 64
        E 0 92 4c 64
        E 0 82 4c 64
        E 0 92 4e 64
        E 0 82 4e 64
        E 0 92 4f 64
        E 0 82 4f 64
        E 0 83 3e 64
        E 0 8f 37 64
        E 0 92 47 64
        E 0 93 40 5a
        E 0 9f 2b 5a
        E 0 82 47 64
        E 0 92 4c 64
        E 0 82 4c 64
        E 0 92 4e 64
        E 0 82 4e 64
        E 0 92 4f 64
        E 0 82 4f 64
        E 0 83 40 64
        E 0 8f 2b 64
        E 0 92 49 64
        E 0 93 45 5a
        E 0 9f 2d 5a
        E 0 82 49 64
        E 0 83 45 64
        E 0 8f 2d 64
        E 0 92 4a 64
        E 0 93 45 5a
        E 0 9f 32 5a
        E 0 82 4a 64
        E 0 83 45 64
        E 0 8f 32 64
        E 0 92 4a 64
        E 0 93 45 5a
        E 0 9f 39 5a
        E 0 82 4a 64
        E 0 83 45 64
        E 0 8f 39 64
        E 0 92 49 64
        E 0 93 45 5a
        E 0 9f 2d 5a
        E 0 82 49 64
        E 0 83 45 64
        E 0 8f 2d 64
        E 0 92 4a 64
        E 0 93 42 5a
        E 0 9f 32 5a
        E 0 82 4a 64
        E 0 83 42 64
        E 0 8f 32 64
        E 1 9f 2f 5a
        E 0 96 42 64
        E 0 9e 42 64
        E 0 86 42 64
        E 0 8e 42 64
        E 0 96 42 64
        E 0 9e 42 64
        E 0 86 42 64
        E 0 8e 42 64
        E 0 96 47 64
        E 0 9e 47 64
        E 0 86 47 64
        E 0 8e 47 64
        E 0 96 47 64
        E 0 9e 47 64
        E 0 86 47 64
        E 0 8e 47 64
        E 0 96 47 64
        E 0 9e 47 64
        E 0 86 47 64
        E 0 8e 47 64
        E 0 96 47 64
        E 0 9e 47 64
        E 0 86 47 64
        E 0 8e 47 64
        E 0 8f 2f 64
        E 0 96 44 64
        E 0 9e 44 64
        E 0 9f 32 5a
        E 0 86 44 64
        E 0 8e 44 64
        E 0 96 44 64
        E 0 9e 44 64
        E 0 86 44 64
        E 0 8e 44 64
        E 0 96 47 64
        E 0 9e 47 64
        E 0 86 47 64
        E 0 8e 47 64
        E 0 96 45 64
        E 0 9e 45 64
        E 0 86 45 64
        E 0 8e 45 64
        E 0 96 47 64
        E 0 9e 47 64
        E 0 86 47 64
        E 0 8e 47 64
        E 0 8f 32 64
        E 0 96 48 64
        E 0 9e 48 64
        E 0 9f 2d 5a
        E 38403 86 48 64
        E 0 8e 48 64
        E 0 96 45 64
        E 0 9e 45 64
        E 0 86 45 64
        E 0 8e 45 64
        E 0 96 43 64
        E 0 9e 43 64
        E 0 86 43 64
        E 0 8e 43 64
        E 0 96 45 64
        E 0 9e 45 64
        E 0 86 45 64
        E 0 8e 45 64
        E 0 8f 2d 64
        E 0 96 41 64
        E 1 9e 41 64
        E 0 9f 32 5a
        E 0 86 41 64
        E 0 8e 41 64
        E 0 96 41 64
        E 0 9e 41 64
        E 0 86 41 64
        E 0 8e 41 64
        E 0 96 3e 64
        E 0 9e 3e 64
        E 0 86 3e 64
        E 0 8e 3e 64
        E 0 96 45 64
        E 2 9e 45 64
        E 0 86 45 64
        E 0 8e 45 64
        E 0 96 45 64
        E 0 9e 45 64
        E 0 86 45 64
        E 0 8e 45 64
        E 0 96 45 64
        E 0 9e 45 64
        E 0 86 45 64
        E 0 8e 45 64
        E 0 96 43 64
        E 0 9e 43 64
        E 0 86 43 64
        E 0 8e 43 64
        E 0 96 45 64
        E 0 9e 45 64
        E 0 86 45 64
        E 0 8e 45 64
        E 0 8f 32 64
        E 1 96 46 66
        E 0 9e 46 66
        E 0 9f 2b 5a
        E 0 86 46 66
        E 0 8e 46 66
        E 0 96 46 66
        E 1 9e 46 66
        E 0 86 46 66
        E 0 8e 46 66
        E 0 96 43 64
        E 0 9e 43 64
        E 0 86 43 64
        E 0 8e 43 64
        E 0 96 43 64
        E 0 9e 43 64
        E 0 86 43 64
        E 0 8e 43 64
        E 0 96 43 64
        E 0 9e 43 64
        E 0 86 43 64
        E 0 8e 43 64
        E 0 96 41 64
        E 0 9e 41 64
        E 0 86 41 64
        E 0 8e 41 64
        E 0 8f 2b 64
        E 0 96 3e 64
        E 0 9e 3e 64
        E 0 9f 2d 5a
        E 0 86 3e 64
        E 0 8e 3e 64
        E 0 96 3e 64
        E 0 9e 3e 64
        E 0 86 3e 64
        E 0 8e 3e 64
        E 0 8f 2d 64
        E 0 9f 32 5a
        E 0 8f 32 64
        E 0 95 45 64
        E 0 9e 45 64
        E 0 9f 32 5a
        E 0 85 45 64
        E 0 8e 45 64
        E 0 95 41 64
        E 0 9e 41 64
        E 0 85 41 64
        E 0 8e 41 64
        E 0 95 41 64
        E 0 9e 41 64
        E 0 85 41 64
        E 0 8e 41 64
        E 0 95 43 64
        E 0 9e 43 64
        E 0 85 43 64
        E 0 8e 43 64
        E 0 95 45 64
        E 0 9e 45 64
        E 0 85 45 64
        E 0 8e 45 64
        E 0 8f 32 64
        E 0 95 3e 64
        E 0 9e 3e 64
        E 0 9f 32 5a
        E 0 85 3e 64
        E 1 8e 3e 64
        E 0 8f 32 64
        E 0 96 43 64
        E 0 9e 43 64
        E 0 9f 2e 5b
        E 0 86 43 64
        E 0 8e 43 64
        E 0 96 43 64
        E 0 9e 43 64
        E 0 86 43 64
        E 0 8e 43 64
        E 0 96 43 64
        E 0 9e 43 64
        E 0 86 43 64
        E 0 8e 43 64
        E 0 96 45 64
        E 0 9e 45 64
        E 2 86 45 64
        E 0 8e 45 64
        E 0 8f 2e 66
        E 0 96 45 64
        E 0 9e 45 64
        E 0 9f 2d 5a
        E 0 86 45 64
        E 0 8e 45 64
        E 0 96 45 64
        E 0 9e 45 64
        E 0 86 45 64
        E 0 8e 45 64
        E 0 95 40 64
        E 0 9e 40 64
        E 0 85 40 64
        E 0 8e 40 64
        E 1 95 40 64
        E 0 9e 40 64
        E 0 85 40 64
        E 0 8e 40 64
        E 0 95 41 64
        E 0 9e 41 64
        E 0 85 41 64
        E 0 8e 41 64
        E 0 8f 2d 64
        E 0 95 3e 64
        E 0 9e 3e 64
        E 0 9f 32 5a
        E 0 85 3e 64
        E 0 8e 3e 64
        E 0 95 46 66
        E 0 9e 46 66
        E 0 85 46 66
        E 0 8e 46 66
        E 0 8f 32 64
        E 0 95 43 64
        E 0 9e 43 64
        E 0 9f 33 5b
        E 0 85 43 64
        E 0 8e 43 64
        E 0 95 43 64
        E 1 9e 43 64
        E 0 85 43 64
        E 0 8e 43 64
        E 0 95 43 64
        E 0 9e 43 64
        E 0 85 43 64
        E 0 8e 43 64
        E 0 95 43 64
        E 0 9e 43 64
        E 0 85 43 64
        E 0 8e 43 64
        E 0 95 43 64
        E 0 9e 43 64
        E 0 85 43 64
        E 0 8e 43 64
        E 0 95 45 64
        E 0 9e 45 64
        E 38403 85 45 64
        E 0 8e 45 64
        E 0 95 46 66
        E 0 9e 46 66
        E 0 85 46 66
        E 0 8e 46 66
        E 0 8f 33 66
        E 0 95 41 64
        E 0 9e 41 64
        E 0 9f 35 5a
        E 0 85 41 64
        E 0 8e 41 64
        E 0 95 41 64
        E 0 9e 41 64
        E 0 85 41 64
        E 0 8e 41 64
        E 0 8f 35 64
        E 0 9f 2e 5b
        E 0 8f 2e 66
        E 0 95 46 66
        E 0 9e 46 66
        E 0 9f 2e 5b
        E 0 85 46 66
        E 0 8e 46 66
        E 0 95 46 66
        E 0 9e 46 66
        E 0 85 46 66
        E 0 8e 46 66
        E 0 95 4a 64
        E 0 9e 4a 64
        E 0 85 4a 64
        E 0 8e 4a 64
        E 0 8f 2e 66
        E 0 95 47 64
        E 0 9e 47 64
        E 0 9f 35 5a
        E 0 85 47 64
        E 0 8e 47 64
        E 0 95 47 64
        E 0 9e 47 64
        E 0 85 47 64
        E 0 8e 47 64
        E 0 95 43 64
        E 0 9e 43 64
        E 0 85 43 64
        E 0 8e 43 64
        E 0 95 43 64
        E 0 9e 43 64
        E 0 85 43 64
        E 0 8e 43 64
        E 0 95 43 64
        E 0 9e 43 64
        E 0 85 43 64
        E 0 8e 43 64
        E 0 95 45 64
        E 0 9e 45 64
        E 0 85 45 64
        E 0 8e 45 64
        E 0 95 47 64
        E 0 9e 47 64
        E 0 85 47 64
        E 0 8e 47 64
        E 0 8f 35 64
        E 0 95 48 64
        E 0 9e 48 64
        E 0 9f 33 5b
        E 0 85 48 64
        E 0 8e 48 64
        E 0 95 48 64
        E 1 9e 48 64
        E 0 85 48 64
        E 0 8e 48 64
        E 0 95 48 64
        E 0 9e 48 64
        E 0 85 48 64
        E 0 8e 48 64
        E 0 95 46 66
        E 0 9e 46 66
        E 0 85 46 66
        E 0 8e 46 66
        E 0 95 48 64
        E 0 9e 48 64
        E 0 85 48 64
        E 0 8e 48 64
        E 0 8f 33 66
        E 0 95 44 64
        E 0 9e 44 64
        E 0 9f 35 5a
        E 0 85 44 64
        E 0 8e 44 64
        E 0 95 44 64
        E 0 9e 44 64
        E 0 85 44 64
        E 0 8e 44 64
        E 0 95 48 64
        E 0 9e 48 64
        E 0 85 48 64
        E 0 8e 48 64
        E 0 95 47 64
        E 0 9e 47 64
        E 0 85 47 64
        E 0 8e 47 64
        E 0 95 48 64
        E 0 9e 48 64
        E 0 85 48 64
        E 0 8e 48 64
        E 0 8f 35 64
        E 0 95 43 64
        E 0 9e 43 64
        E 0 9f 37 5a
        E 0 85 43 64
        E 0 8e 43 64
        E 0 8f 37 64
        E 0 9f 30 5a
        E 0 95 3f 66
        E 0 9e 3f 66
        E 0 85 3f 66
        E 0 8e 3f 66
        E 0 8f 30 64
        E 0 95 43 64
        E 0 9e 43 64
        E 0 9f 30 5a
        E 0 85 43 64
        E 1 8e 43 64
        E 0 95 43 64
        E 0 9e 43 64
        E 0 85 43 64
        E 0 8e 43 64
        E 0 95 43 64
        E 0 9e 43 64
        E 0 85 43 64
        E 0 8e 43 64
        E 0 8f 30 64
        E 0 95 48 64
        E 0 9e 48 64
        E 0 9f 30 5a
        E 0 85 48 64
        E 0 8e 48 64
        E 0 95 48 64
        E 0 9e 48 64
        E 0 85 48 64
        E 0 8e 48 64
        E 0 95 48 64
        E 0 9e 48 64
        E 0 85 48 64
        E 0 8e 48 64
        E 0 95 45 64
        E 0 9e 45 64
        E 0 85 45 64
        E 0 8e 45 64
        E 0 95 42 64
        E 0 9e 42 64
        E 0 85 42 64
        E 0 8e 42 64
        E 0 95 42 64
        E 0 9e 42 64
        E 0 85 42 64
        E 0 8e 42 64
        E 0 8f 30 64
        E 0 95 45 64
        E 0 9e 45 64
        E 0 9f 30 5a
        E 0 85 45 64
        E 0 8e 45 64
        E 0 95 45 64
        E 0 9e 45 64
        E 0 85 45 64
        E 0 8e 45 64
        E 1 95 45 64
        E 0 9e 45 64
        E 0 85 45 64
        E 0 8e 45 64
        E 0 95 43 64
        E 0 9e 43 64
        E 0 85 43 64
        E 0 8e 43 64
        E 0 95 45 64
        E 0 9e 45 64
        E 0 85 45 64
        E 0 8e 45 64
        E 0 8f 30 64
        E 0 95 46 66
        E 0 9e 46 66
        E 0 9f 2b 5a
        E 0 85 46 66
        E 0 8e 46 66
        E 0 95 46 66
        E 0 9e 46 66
        E 0 85 46 66
        E 0 8e 46 66
        E 0 95 43 64
        E 0 9e 43 64
        E 0 85 43 64
        E 0 8e 43 64
        E 0 95 43 64
        E 0 9e 43 64
        E 0 85 43 64
        E 0 8e 43 64
        E 0 95 41 64
        E 0 9e 41 64
        E 1 85 41 64
        E 0 8e 41 64
        E 0 8f 2b 64
        E 0 95 3e 64
        E 0 9e 3e 64
        E 0 9f 2d 5a
        E 0 85 3e 64
        E 0 8e 3e 64
        E 0 95 3e 64
        E 0 9e 3e 64
        E 0 85 3e 64
        E 0 8e 3e 64
        E 0 8f 2d 64
        E 0 9f 32 5a
        E 0 96 41 64
        E 0 9e 41 64
        E 0 86 41 64
        E 0 8e 41 64
        E 0 96 43 64
        E 0 9e 43 64
        E 38403 86 43 64
        E 0 8e 43 64
        E 0 8f 32 64
        E 0 96 45 64
        E 0 9e 45 64
        E 0 9f 32 5a
        E 0 86 45 64
        E 0 8e 45 64
        E 0 96 45 64
        E 0 9e 45 64
        E 0 86 45 64
        E 0 8e 45 64
        E 0 96 45 64
        E 0 9e 45 64
        E 0 86 45 64
        E 0 8e 45 64
        E 1 96 41 64
        E 0 9e 41 64
        E 0 86 41 64
        E 0 8e 41 64
        E 0 8f 32 64
        E 0 96 46 66
        E 0 9e 46 66
        E 0 9f 37 5a
        E 0 86 46 66
        E 0 8e 46 66
        E 0 96 46 66
        E 0 9e 46 66
        E 0 86 46 66
        E 0 8e 46 66
        E 0 96 46 66
        E 0 9e 46 66
        E 0 86 46 66
        E 0 8e 46 66
        E 0 96 46 66
        E 0 9e 46 66
        E 0 86 46 66
        E 0 8e 46 66
        E 0 96 46 66
        E 0 9e 46 66
        E 0 86 46 66
        E 0 8e 46 66
        E 0 96 46 66
        E 0 9e 46 66
        E 0 86 46 66
        E 0 8e 46 66
        E 0 96 45 64
        E 0 9e 45 64
        E 0 86 45 64
        E 0 8e 45 64
        E 0 8f 37 64
        E 0 96 48 64
        E 0 9e 48 64
        E 0 9f 35 5a
        E 0 86 48 64
        E 1 8e 48 64
        E 0 96 48 64
        E 0 9e 48 64
        E 0 86 48 64
        E 0 8e 48 64
        E 0 96 45 64
        E 0 9e 45 64
        E 0 86 45 64
        E 0 8e 45 64
        E 0 96 45 64
        E 0 9e 45 64
        E 0 86 45 64
        E 0 8e 45 64
        E 0 96 47 64
        E 0 9e 47 64
        E 0 86 47 64
        E 0 8e 47 64
        E 0 8f 35 64
        E 0 96 44 64
        E 0 9e 44 64
        E 0 9f 32 5a
        E 0 86 44 64
        E 0 8e 44 64
        E 0 96 44 64
        E 0 9e 44 64
        E 0 86 44 64
        E 0 8e 44 64
        E 0 8f 32 64
        E 0 96 47 64
        E 0 9e 47 64
        E 0 9f 32 5a
        E 0 86 47 64
        E 0 8e 47 64
        E 0 96 47 64
        E 0 9e 47 64
        E 0 86 47 64
        E 0 8e 47 64
        E 0 96 47 64
        E 0 9e 47 64
        E 0 86 47 64
        E 0 8e 47 64
        E 0 96 47 64
        E 0 9e 47 64
        E 0 86 47 64
        E 0 8e 47 64
        E 0 96 48 64
        E 0 9e 48 64
        E 0 86 48 64
        E 0 8e 48 64
        E 0 8f 32 64
        E 0 96 45 64
        E 0 9e 45 64
        E 0 9f 30 5a
        E 0 86 45 64
        E 0 8e 45 64
        E 0 96 45 64
        E 0 9e 45 64
        E 0 86 45 64
        E 0 8e 45 64
        E 0 8f 30 64
        E 0 9f 30 5a
        E 0 96 40 64
        E 1 9e 40 64
        E 0 86 40 64
        E 0 8e 40 64
        E 0 96 40 64
        E 0 9e 40 64
        E 0 86 40 64
        E 0 8e 40 64
        E 0 96 41 64
        E 0 9e 41 64
        E 0 86 41 64
        E 0 8e 41 64
        E 0 8f 30 64
        E 0 96 43 64
        E 0 9e 43 64
        E 0 9f 2f 5a
        E 0 86 43 64
        E 0 8e 43 64
        E 0 96 43 64
        E 0 9e 43 64
        E 0 86 43 64
        E 0 8e 43 64
        E 0 96 43 64
        E 0 9e 43 64
        E 0 86 43 64
        E 0 8e 43 64
        E 0 96 43 64
        E 0 9e 43 64
        E 0 86 43 64
        E 0 8e 43 64
        E 0 8f 2f 64
        E 0 96 47 64
        E 0 9e 47 64
        E 0 9f 2f 5a
        E 0 86 47 64
        E 0 8e 47 64
        E 0 96 47 64
        E 0 9e 47 64
        E 0 86 47 64
        E 0 8e 47 64
        E 0 96 48 64
        E 0 9e 48 64
        E 0 86 48 64
        E 0 8e 48 64
        E 0 8f 2f 64
        E 0 96 43 64
        E 0 9e 43 64
        E 0 9f 34 5a
        E 0 86 43 64
        E 0 8e 43 64
        E 0 96 43 64
        E 0 9e 43 64
        E 0 86 43 64
        E 0 8e 43 64
        E 0 96 48 64
        E 0 9e 48 64
        E 0 86 48 64
        E 0 8e 48 64
        E 0 96 47 64
        E 0 9e 47 64
        E 0 86 47 64
        E 0 8e 47 64
        E 0 96 48 64
        E 0 9e 48 64
        E 0 86 48 64
        E 0 8e 48 64
        E 0 8f 34 64
        E 0 96 45 64
        E 0 9e 45 64
        E 0 9f 35 5a
        E 0 86 45 64
        E 0 8e 45 64
        E 0 96 45 64
        E 0 9e 45 64
        E 0 86 45 64
        E 0 8e 45 64
        E 0 96 45 64
        E 0 9e 45 64
        E 0 86 45 64
        E 0 8e 45 64
        E 0 96 45 64
        E 0 9e 45 64
        E 0 86 45 64
        E 0 8e 45 64
        E 0 96 45 64
        E 0 9e 45 64
        E 0 86 45 64
        E 0 8e 45 64
        E 0 96 47 64
        E 0 9e 47 64
        E 0 86 47 64
        E 0 8e 47 64
        E 0 96 48 64
        E 0 9e 48 64
        E 0 86 48 64
        E 0 8e 48 64
        E 0 8f 35 64
        E 0 96 43 64
        E 0 9e 43 64
        E 0 9f 37 5a
        E 1 86 43 64
        E 0 8e 43 64
        E 0 96 43 64
        E 0 9e 43 64
        E 38402 86 43 64
        E 0 8e 43 64
        E 0 8f 37 64
        E 1 9f 30 5a
        E 0 95 40 64
        E 0 9e 40 64
        E 0 85 40 64
        E 0 8e 40 64
        E 0 8f 30 64
        E 0 95 45 64
        E 0 9e 45 64
        E 0 9f 30 5a
        E 0 85 45 64
        E 0 8e 45 64
        E 0 95 45 64
        E 0 9e 45 64
        E 0 85 45 64
        E 0 8e 45 64
        E 0 95 43 64
        E 0 9e 43 64
        E 0 85 43 64
        E 0 8e 43 64
        E 0 8f 30 64
        E 0 95 40 64
        E 0 9e 40 64
        E 0 9f 2f 5a
        E 0 85 40 64
        E 0 8e 40 64
        E 0 95 40 64
        E 0 9e 40 64
        E 0 85 40 64
        E 0 8e 40 64
        E 0 8f 2f 64
        E 0 96 47 64
        E 0 9e 47 64
        E 0 9f 34 5a
        E 0 86 47 64
        E 0 8e 47 64
        E 0 96 45 64
        E 0 9e 45 64
        E 0 86 45 64
        E 0 8e 45 64
        E 0 96 47 64
        E 0 9e 47 64
        E 0 86 47 64
        E 0 8e 47 64
        E 0 8f 34 64
        E 0 96 43 64
        E 0 9e 43 64
        E 0 9f 34 5a
        E 0 86 43 64
        E 0 8e 43 64
        E 0 95 40 64
        E 0 9e 40 64
        E 0 85 40 64
        E 0 8e 40 64
        E 1 95 43 64
        E 0 9e 43 64
        E 0 85 43 64
        E 0 8e 43 64
        E 0 95 45 64
        E 0 9e 45 64
        E 0 85 45 64
        E 0 8e 45 64
        E 0 8f 34 64
        E 0 95 47 64
        E 0 9e 47 64
        E 0 9f 34 5a
        E 0 85 47 64
        E 0 8e 47 64
        E 0 95 47 64
        E 0 9e 47 64
        E 0 85 47 64
        E 0 8e 47 64
        E 0 95 47 64
        E 0 9e 47 64
        E 0 85 47 64
        E 0 8e 47 64
        E 0 95 47 64
        E 0 9e 47 64
        E 0 85 47 64
        E 0 8e 47 64
        E 0 95 47 64
        E 0 9e 47 64
        E 0 85 47 64
        E 0 8e 47 64
        E 0 95 49 64
        E 0 9e 49 64
        E 0 85 49 64
        E 0 8e 49 64
        E 0 8f 34 64
        E 0 95 44 64
        E 0 9e 44 64
        E 0 9f 35 59
        E 0 85 44 64
        E 0 8e 44 64
        E 0 95 44 64
        E 0 9e 44 64
        E 0 85 44 64
        E 0 8e 44 64
        E 0 95 47 64
        E 0 9e 47 64
        E 0 85 47 64
        E 0 8e 47 64
        E 0 95 45 64
        E 0 9e 45 64
        E 0 85 45 64
        E 0 8e 45 64
        E 0 8f 35 63
        E 0 95 42 64
        E 0 9e 42 64
        E 0 9f 36 5a
        E 0 85 42 64
        E 0 8e 42 64
        E 0 95 42 64
        E 0 9e 42 64
        E 0 85 42 64
        E 0 8e 42 64
        E 0 95 42 64
        E 0 9e 42 64
        E 0 85 42 64
        E 0 8e 42 64
        E 0 8f 36 64
        E 0 9f 36 5a
        E 0 95 45 64
        E 0 9e 45 64
        E 0 85 45 64
        E 0 8e 45 64
        E 0 95 45 64
        E 0 9e 45 64
        E 0 85 45 64
        E 0 8e 45 64
        E 0 95 44 64
        E 0 9e 44 64
        E 0 85 44 64
        E 0 8e 44 64
        E 0 8f 36 64
        E 0 95 44 64
        E 0 9e 44 64
        E 0 9f 30 59
        E 0 85 44 64
        E 0 8e 44 64
        E 0 95 44 64
        E 0 9e 44 64
        E 0 85 44 64
        E 0 8e 44 64
        E 0 95 44 64
        E 0 9e 44 64
        E 0 85 44 64
        E 0 8e 44 64
        E 0 95 44 64
        E 0 9e 44 64
        E 0 85 44 64
        E 0 8e 44 64
        E 0 95 46 64
        E 0 9e 46 64
        E 0 85 46 64
        E 0 8e 46 64
        E 0 8f 30 63
        E 0 95 48 63
        E 0 9e 48 63
        E 1 9f 30 59
        E 0 85 48 63
        E 0 8e 48 63
        E 0 95 48 63
        E 0 9e 48 63
        E 0 85 48 63
        E 0 8e 48 63
        E 0 95 48 63
        E 0 9e 48 63
        E 0 85 48 63
        E 0 8e 48 63
        E 0 95 48 63
        E 0 9e 48 63
        E 0 85 48 63
        E 0 8e 48 63
        E 0 95 49 64
        E 0 9e 49 64
        E 0 85 49 64
        E 0 8e 49 64
        E 0 8f 30 63
        E 0 95 44 64
        E 0 9e 44 64
        E 0 9f 34 5a
        E 0 85 44 64
        E 0 8e 44 64
        E 0 95 44 64
        E 0 9e 44 64
        E 0 85 44 64
        E 0 8e 44 64
        E 0 95 44 64
        E 0 9e 44 64
        E 0 85 44 64
        E 0 8e 44 64
        E 0 8f 34 64
        E 0 95 49 64
        E 0 9e 49 64
        E 0 9f 34 5a
        E 0 85 49 64
        E 0 8e 49 64
        E 0 95 49 64
        E 0 9e 49 64
        E 0 85 49 64
        E 0 8e 49 64
        E 0 95 49 64
        E 0 9e 49 64
        E 0 85 49 64
        E 0 8e 49 64
        E 0 95 49 64
        E 0 9e 49 64
        E 0 85 49 64
        E 0 8e 49 64
        E 0 95 49 64
        E 0 9e 49 64
        E 0 85 49 64
        E 0 8e 49 64
        E 0 95 47 64
        E 0 9e 47 64
        E 38403 85 47 64
        E 0 8e 47 64
        E 0 95 49 64
        E 0 9e 49 64
        E 0 85 49 64
        E 0 8e 49 64
        E 0 8f 34 64
        E 0 95 45 64
        E 0 9e 45 64
        E 0 9f 36 5a
        E 0 85 45 64
        E 0 8e 45 64
        E 0 95 45 64
        E 0 9e 45 64
        E 0 85 45 64
        E 0 8e 45 64
        E 0 95 45 64
        E 0 9e 45 64
        E 0 85 45 64
        E 1 8e 45 64
        E 0 95 48 63
        E 0 9e 48 63
        E 0 85 48 63
        E 0 8e 48 63
        E 0 95 49 64
        E 0 9e 49 64
        E 0 85 49 64
        E 0 8e 49 64
        E 0 8f 36 64
        E 0 95 44 64
        E 0 9e 44 64
        E 0 9f 38 5a
        E 0 85 44 64
        E 0 8e 44 64
        E 0 95 44 64
        E 0 9e 44 64
        E 0 85 44 64
        E 0 8e 44 64
        E 0 8f 38 64
        E 0 9f 31 5a
        E 0 96 44 64
        E 0 9e 44 64
        E 0 86 44 64
        E 0 8e 44 64
        E 0 8f 31 64
        E 0 96 40 64
        E 0 9e 40 64
        E 0 9f 31 5a
        E 0 86 40 64
        E 0 8e 40 64
        E 0 96 44 64
        E 0 9e 44 64
        E 0 86 44 64
        E 0 8e 44 64
        E 0 96 44 64
        E 0 9e 44 64
        E 0 86 44 64
        E 0 8e 44 64
        E 0 96 45 64
        E 0 9e 45 64
        E 0 86 45 64
        E 0 8e 45 64
        E 0 8f 31 64
        E 0 96 45 64
        E 0 9e 45 64
        E 0 9f 31 5a
        E 0 86 45 64
        E 0 8e 45 64
        E 0 96 45 64
        E 0 9e 45 64
        E 0 86 45 64
        E 0 8e 45 64
        E 0 96 40 64
        E 0 9e 40 64
        E 0 86 40 64
        E 0 8e 40 64
        E 0 96 42 64
        E 0 9e 42 64
        E 0 86 42 64
        E 0 8e 42 64
        E 0 8f 31 64
        E 0 96 3e 64
        E 0 9e 3e 64
        E 0 9f 32 5a
        E 0 86 3e 64
        E 0 8e 3e 64
        E 0 96 3e 64
        E 0 9e 3e 64
        E 0 86 3e 64
        E 0 8e 3e 64
        E 0 96 45 64
        E 1 9e 45 64
        E 0 86 45 64
        E 0 8e 45 64
        E 0 8f 32 64
        E 0 96 42 64
        E 0 9e 42 64
        E 0 9f 32 5a
        E 0 86 42 64
        E 0 8e 42 64
        E 0 96 42 64
        E 0 9e 42 64
        E 0 86 42 64
        E 0 8e 42 64
        E 0 96 48 64
        E 0 9e 48 64
        E 0 86 48 64
        E 0 8e 48 64
        E 0 96 45 64
        E 0 9e 45 64
        E 0 86 45 64
        E 0 8e 45 64
        E 0 96 45 64
        E 0 9e 45 64
        E 0 86 45 64
        E 0 8e 45 64
        E 0 96 45 64
        E 0 9e 45 64
        E 0 86 45 64
        E 0 8e 45 64
        E 0 96 47 64
        E 0 9e 47 64
        E 0 86 47 64
        E 0 8e 47 64
        E 0 8f 32 64
        E 0 96 43 64
        E 0 9e 43 64
        E 0 9f 37 5a
        E 0 86 43 64
        E 0 8e 43 64
        E 0 96 43 64
        E 0 9e 43 64
        E 0 86 43 64
        E 0 8e 43 64
        E 0 96 47 64
        E 0 9e 47 64
        E 0 86 47 64
        E 0 8e 47 64
        E 0 96 47 64
        E 0 9e 47 64
        E 0 86 47 64
        E 0 8e 47 64
        E 0 96 49 64
        E 0 9e 49 64
        E 0 86 49 64
        E 0 8e 49 64
        E 0 8f 37 64
        E 0 96 46 64
        E 0 9e 46 64
        E 0 9f 34 5a
        E 0 86 46 64
        E 0 8e 46 64
        E 0 96 46 64
        E 0 9e 46 64
        E 0 86 46 64
        E 0 8e 46 64
        E 0 96 46 64
        E 0 9e 46 64
        E 0 86 46 64
        E 0 8e 46 64
        E 0 96 44 64
        E 0 9e 44 64
        E 0 86 44 64
        E 0 8e 44 64
        E 0 96 42 64
        E 0 9e 42 64
        E 0 86 42 64
        E 0 8e 42 64
        E 0 8f 34 64
        E 0 96 47 64
        E 0 9e 47 64
        E 0 9f 32 5a
        E 0 86 47 64
        E 0 8e 47 64
        E 0 96 47 64
        E 0 9e 47 64
        E 0 86 47 64
        E 0 8e 47 64
        E 0 8f 32 64
        E 0 96 42 64
        E 0 9e 42 64
        E 0 9f 32 5a
        E 0 86 42 64
        E 0 8e 42 64
        E 0 96 42 64
        E 0 9e 42 64
        E 0 86 42 64
        E 0 8e 42 64
        E 0 96 42 64
        E 0 9e 42 64
        E 0 86 42 64
        E 0 8e 42 64
        E 0 96 40 64
        E 0 9e 40 64
        E 0 86 40 64
        E 0 8e 40 64
        E 0 96 42 64
        E 0 9e 42 64
        E 38404 86 42 64
        E 0 8e 42 64
        E 0 8f 32 64
        E 0 96 43 64
        E 0 9e 43 64
        E 0 9f 34 5a
        E 0 86 43 64
        E 0 8e 43 64
        E 0 96 43 64
        E 0 9e 43 64
        E 0 86 43 64
        E 0 8e 43 64
        E 0 8f 34 64
        E 0 96 47 64
        E 0 9e 47 64
        E 0 9f 34 5a
        E 0 86 47 64
        E 0 8e 47 64
        E 0 96 43 64
        E 0 9e 43 64
        E 0 86 43 64
        E 0 8e 43 64
        E 0 96 47 64
        E 0 9e 47 64
        E 0 86 47 64
        E 0 8e 47 64
        E 0 96 40 64
        E 0 9e 40 64
        E 0 86 40 64
        E 0 8e 40 64
        E 0 95 43 64
        E 0 9e 43 64
        E 0 85 43 64
        E 0 8e 43 64
        E 0 8f 34 64
        E 0 95 43 64
        E 0 9e 43 64
        E 0 9f 34 5a
        E 0 85 43 64
        E 0 8e 43 64
        E 0 95 43 64
        E 0 9e 43 64
        E 0 85 43 64
        E 0 8e 43 64
        E 0 95 43 64
        E 0 9e 43 64
        E 0 85 43 64
        E 0 8e 43 64
        E 0 95 45 64
        E 0 9e 45 64
        E 0 85 45 64
        E 0 8e 45 64
        E 0 8f 34 64
        E 0 95 45 64
        E 0 9e 45 64
        E 0 9f 30 5a
        E 0 85 45 64
        E 0 8e 45 64
        E 0 95 45 64
        E 0 9e 45 64
        E 0 85 45 64
        E 0 8e 45 64
        E 1 95 48 64
        E 0 9e 48 64
        E 0 85 48 64
        E 0 8e 48 64
        E 0 8f 30 64
        E 0 95 45 64
        E 0 9e 45 64
        E 0 9f 30 5a
        E 0 85 45 64
        E 0 8e 45 64
        E 0 95 45 64
        E 0 9e 45 64
        E 0 85 45 64
        E 0 8e 45 64
        E 0 95 45 64
        E 0 9e 45 64
        E 0 85 45 64
        E 0 8e 45 64
        E 0 95 40 64
        E 0 9e 40 64
        E 0 85 40 64
        E 0 8e 40 64
        E 0 8f 30 64
        E 0 95 42 64
        E 0 9e 42 64
        E 0 9f 2f 5a
        E 0 85 42 64
        E 0 8e 42 64
        E 0 95 42 64
        E 0 9e 42 64
        E 0 85 42 64
        E 0 8e 42 64
        E 0 8f 2f 64
        E 0 95 47 64
        E 0 9e 47 64
        E 0 9f 2f 5a
        E 0 85 47 64
        E 0 8e 47 64
        E 0 95 42 64
        E 0 9e 42 64
        E 0 85 42 64
        E 0 8e 42 64
        E 0 8f 2f 64
        E 0 95 43 64
        E 0 9e 43 64
        E 0 9f 34 5a
        E 0 85 43 64
        E 0 8e 43 64
        E 0 95 43 64
        E 0 9e 43 64
        E 0 85 43 64
        E 0 8e 43 64
        E 0 95 47 64
        E 0 9e 47 64
        E 0 85 47 64
        E 0 8e 47 64
        E 0 8f 34 64
        E 0 95 40 64
        E 0 9e 40 64
        E 0 9f 30 5a
        E 0 85 40 64
        E 0 8e 40 64
        E 0 95 40 64
        E 0 9e 40 64
        E 0 85 40 64
        E 0 8e 40 64
        E 0 95 42 64
        E 0 9e 42 64
        E 0 85 42 64
        E 0 8e 42 64
        E 0 95 43 64
        E 0 9e 43 64
        E 0 85 43 64
        E 0 8e 43 64
        E 0 8f 30 64
        E 0 95 3e 64
        E 0 9e 3e 64
        E 0 9f 32 5a
        E 0 85 3e 64
        E 0 8e 3e 64
        E 1 95 3e 64
        E 0 9e 3e 64
        E 0 85 3e 64
        E 0 8e 3e 64
        E 0 8f 32 64
        E 0 9f 2b 5a
        E 0 8f 2b 64
        E 0 95 43 64
        E 0 9e 43 64
        E 0 9f 2b 5a
        E 0 85 43 64
        E 0 8e 43 64
        E 0 95 43 64
        E 0 9e 43 64
        E 0 85 43 64
        E 0 8e 43 64
        E 0 95 45 64
        E 0 9e 45 64
        E 0 85 45 64
        E 0 8e 45 64
        E 0 8f 2b 64
        E 0 95 47 64
        E 0 9e 47 64
        E 0 9f 35 5a
        E 0 85 47 64
        E 0 8e 47 64
        E 0 95 47 64
        E 0 9e 47 64
        E 0 85 47 64
        E 0 8e 47 64
        E 0 95 47 64
        E 0 9e 47 64
        E 0 85 47 64
        E 0 8e 47 64
        E 0 8f 35 64
        E 0 95 47 64
        E 0 9e 47 64
        E 0 9f 35 5a
        E 0 85 47 64
        E 0 8e 47 64
        E 0 95 47 64
        E 0 9e 47 64
        E 38402 85 47 64
        E 0 8e 47 64
        E 0 95 45 64
        E 0 9e 45 64
        E 0 85 45 64
        E 0 8e 45 64
        E 1 95 43 64
        E 0 9e 43 64
        E 0 85 43 64
        E 0 8e 43 64
        E 0 8f 35 64
        E 0 95 48 64
        E 0 9e 48 64
        E 0 9f 34 5a
        E 0 85 48 64
        E 0 8e 48 64
        E 0 95 48 64
        E 0 9e 48 64
        E 0 85 48 64
        E 0 8e 48 64
        E 0 95 43 64
        E 0 9e 43 64
        E 0 85 43 64
        E 0 8e 43 64
        E 0 95 46 66
        E 0 9e 46 66
        E 0 85 46 66
        E 0 8e 46 66
        E 0 95 45 64
        E 0 9e 45 64
        E 0 85 45 64
        E 0 8e 45 64
        E 0 8f 34 64
        E 0 95 45 64
        E 0 9e 45 64
        E 0 9f 35 5a
        E 0 85 45 64
        E 0 8e 45 64
        E 0 95 45 64
        E 0 9e 45 64
        E 0 85 45 64
        E 0 8e 45 64
        E 0 95 45 64
        E 0 9e 45 64
        E 0 85 45 64
        E 0 8e 45 64
        E 0 95 45 64
        E 0 9e 45 64
        E 0 85 45 64
        E 0 8e 45 64
        E 0 95 45 64
        E 0 9e 45 64
        E 0 85 45 64
        E 0 8e 45 64
        E 0 95 47 64
        E 0 9e 47 64
        E 0 85 47 64
        E 0 8e 47 64
        E 0 95 48 64
        E 0 9e 48 64
        E 0 85 48 64
        E 0 8e 48 64
        E 0 8f 35 64
        E 0 95 43 64
        E 0 9e 43 64
        E 0 9f 37 5a
        E 1 85 43 64
        E 0 8e 43 64
        E 0 95 43 64
        E 0 9e 43 64
        E 0 85 43 64
        E 0 8e 43 64
        E 0 8f 37 64
        E 0 9f 30 5a
        E 0 96 40 64
        E 0 9e 40 64
        E 0 86 40 64
        E 0 8e 40 64
        E 0 8f 30 64
        E 0 96 3c 64
        E 0 9e 3c 64
        E 0 9f 30 5a
        E 0 86 3c 64
        E 0 8e 3c 64
        E 0 96 3c 64
        E 0 9e 3c 64
        E 0 86 3c 64
        E 0 8e 3c 64
        E 0 96 43 64
        E 0 9e 43 64
        E 0 86 43 64
        E 0 8e 43 64
        E 0 96 43 64
        E 0 9e 43 64
        E 0 86 43 64
        E 0 8e 43 64
        E 0 96 45 64
        E 0 9e 45 64
        E 0 86 45 64
        E 0 8e 45 64
        E 0 8f 30 64
        E 0 96 46 66
        E 0 9e 46 66
        E 0 9f 30 5a
        E 0 86 46 66
        E 0 8e 46 66
        E 0 95 43 64
        E 0 9e 43 64
        E 0 85 43 64
        E 0 8e 43 64
        E 0 95 43 64
        E 0 9e 43 64
        E 0 85 43 64
        E 0 8e 43 64
        E 0 95 48 64
        E 0 9e 48 64
        E 0 85 48 64
        E 0 8e 48 64
        E 0 8f 30 64
        E 0 95 45 64
        E 0 9e 45 64
        E 0 9f 33 5b
        E 0 85 45 64
        E 0 8e 45 64
        E 0 95 45 64
        E 0 9e 45 64
        E 0 85 45 64
        E 0 8e 45 64
        E 0 95 41 64
        E 1 9e 41 64
        E 0 85 41 64
        E 0 8e 41 64
        E 0 95 41 64
        E 0 9e 41 64
        E 0 85 41 64
        E 0 8e 41 64
        E 0 8f 33 66
        E 0 95 48 64
        E 0 9e 48 64
        E 0 9f 33 5b
        E 0 85 48 64
        E 0 8e 48 64
        E 0 95 48 64
        E 0 9e 48 64
        E 0 85 48 64
        E 0 8e 48 64
        E 0 95 4a 64
        E 0 9e 4a 64
        E 0 85 4a 64
        E 0 8e 4a 64
        E 0 8f 33 66
        E 0 95 46 66
        E 0 9e 46 66
        E 0 9f 32 5a
        E 0 85 46 66
        E 0 8e 46 66
        E 0 8f 32 64
        E 0 96 43 64
        E 0 9e 43 64
        E 0 9f 33 5b
        E 0 86 43 64
        E 0 8e 43 64
        E 0 96 45 64
        E 0 9e 45 64
        E 0 86 45 64
        E 0 8e 45 64
        E 0 96 46 66
        E 0 9e 46 66
        E 0 86 46 66
        E 0 8e 46 66
        E 0 8f 33 66
        E 0 96 41 64
        E 0 9e 41 64
        E 1 9f 35 5a
        E 0 86 41 64
        E 0 8e 41 64
        E 0 96 41 64
        E 0 9e 41 64
        E 0 86 41 64
        E 0 8e 41 64
        E 0 8f 35 64
        E 0 9f 2e 5b
        E 0 8f 2e 66
        E 0 96 41 64
        E 0 9e 41 64
        E 0 9f 32 5a
        E 0 86 41 64
        E 0 8e 41 64
        E 0 96 41 64
        E 0 9e 41 64
        E 0 86 41 64
        E 0 8e 41 64
        E 0 96 46 66
        E 0 9e 46 66
        E 0 86 46 66
        E 0 8e 46 66
        E 0 96 46 66
        E 0 9e 46 66
        E 0 86 46 66
        E 0 8e 46 66
        E 0 96 45 64
        E 0 9e 45 64
        E 0 86 45 64
        E 0 8e 45 64
        E 0 96 44 64
        E 0 9e 44 64
        E 38403 86 44 64
        E 0 8e 44 64
        E 0 96 44 64
        E 0 9e 44 64
        E 0 86 44 64
        E 0 8e 44 64
        E 0 8f 32 64
        E 0 96 44 64
        E 0 9e 44 64
        E 0 9f 32 5a
        E 0 86 44 64
        E 0 8e 44 64
        E 0 96 44 64
        E 0 9e 44 64
        E 0 86 44 64
        E 0 8e 44 64
        E 0 96 44 64
        E 0 9e 44 64
        E 0 86 44 64
        E 0 8e 44 64
        E 0 96 44 64
        E 0 9e 44 64
        E 0 86 44 64
        E 0 8e 44 64
        E 0 96 45 64
        E 0 9e 45 64
        E 0 86 45 64
        E 0 8e 45 64
        E 0 8f 32 64
        E 0 96 40 64
        E 0 9e 40 64
        E 0 9f 34 5a
        E 0 86 40 64
        E 0 8e 40 64
        E 0 96 40 64
        E 0 9e 40 64
        E 0 86 40 64
        E 0 8e 40 64
        E 0 8f 34 64
        E 0 9f 2d 5a
        E 1 8f 2d 64
        E 0 96 48 64
        E 0 9e 48 64
        E 0 9f 2d 5a
        E 0 86 48 64
        E 0 8e 48 64
        E 0 96 48 64
        E 0 9e 48 64
        E 0 86 48 64
        E 0 8e 48 64
        E 0 96 47 64
        E 0 9e 47 64
        E 0 86 47 64
        E 0 8e 47 64
        E 0 8f 2d 64
        E 0 96 47 64
        E 0 9e 47 64
        E 0 9f 33 5a
        E 0 86 47 64
        E 0 8e 47 64
        E 0 96 47 64
        E 0 9e 47 64
        E 0 86 47 64
        E 0 8e 47 64
        E 0 96 48 64
        E 0 9e 48 64
        E 0 86 48 64
        E 0 8e 48 64
        E 0 96 45 64
        E 1 9e 45 64
        E 0 86 45 64
        E 0 8e 45 64
        E 0 96 43 64
        E 0 9e 43 64
        E 0 86 43 64
        E 0 8e 43 64
        E 0 8f 33 64
        E 0 96 40 64
        E 0 9e 40 64
        E 0 9f 34 5a
        E 0 86 40 64
        E 0 8e 40 64
        E 0 96 40 64
        E 0 9e 40 64
        E 0 86 40 64
        E 0 8e 40 64
        E 0 96 43 64
        E 0 9e 43 64
        E 0 86 43 64
        E 0 8e 43 64
        E 0 96 47 64
        E 0 9e 47 64
        E 0 86 47 64
        E 0 8e 47 64
        E 0 96 47 64
        E 0 9e 47 64
        E 0 86 47 64
        E 0 8e 47 64
        E 0 96 48 64
        E 0 9e 48 64
        E 0 86 48 64
        E 0 8e 48 64
        E 0 8f 34 64
        E 0 96 45 64
        E 0 9e 45 64
        E 0 9f 36 5a
        E 0 86 45 64
        E 0 8e 45 64
        E 0 96 45 64
        E 0 9e 45 64
        E 0 86 45 64
        E 0 8e 45 64
        E 0 96 45 64
        E 0 9e 45 64
        E 0 86 45 64
        E 0 8e 45 64
        E 0 96 47 64
        E 0 9e 47 64
        E 0 86 47 64
        E 0 8e 47 64
        E 0 8f 36 64
        E 0 96 43 64
        E 0 9e 43 64
        E 0 9f 37 5a
        E 0 86 43 64
        E 0 8e 43 64
        E 0 96 43 64
        E 0 9e 43 64
        E 0 86 43 64
        E 0 8e 43 64
        E 0 96 3e 64
        E 0 9e 3e 64
        E 0 86 3e 64
        E 0 8e 3e 64
        E 0 96 3e 64
        E 0 9e 3e 64
        E 0 86 3e 64
        E 0 8e 3e 64
        E 0 96 3e 64
        E 0 9e 3e 64
        E 0 86 3e 64
        E 0 8e 3e 64
        E 0 8f 37 64
        E 2 96 43 64
        E 0 9e 43 64
        E 0 9f 34 5a
        E 0 86 43 64
        E 0 8e 43 64
        E 0 96 43 64
        E 0 9e 43 64
        E 0 86 43 64
        E 0 8e 43 64
        E 0 96 43 64
        E 0 9e 43 64
        E 0 86 43 64
        E 0 8e 43 64
        E 0 96 43 64
        E 0 9e 43 64
        E 0 86 43 64
        E 0 8e 43 64
        E 0 96 43 64
        E 0 9e 43 64
        E 0 86 43 64
        E 0 8e 43 64
        E 0 96 43 64
        E 0 9e 43 64
        E 0 86 43 64
        E 0 8e 43 64
        E 0 96 42 64
        E 0 9e 42 64
        E 0 86 42 64
        E 0 8e 42 64
        E 0 8f 34 64
        E 0 96 45 64
        E 0 9e 45 64
        E 0 9f 32 5a
        E 0 86 45 64
        E 0 8e 45 64
        E 0 96 45 64
        E 0 9e 45 64
        E 0 86 45 64
        E 0 8e 45 64
        E 0 96 48 64
        E 0 9e 48 64
        E 0 86 48 64
        E 0 8e 48 64
        E 0 96 48 64
        E 0 9e 48 64
        E 0 86 48 64
        E 0 8e 48 64
        E 0 96 47 64
        E 0 9e 47 64
        E 0 86 47 64
        E 0 8e 47 64
        E 0 8f 32 64
        E 0 96 46 64
        E 0 9e 46 64
        E 0 9f 34 5a
        E 0 86 46 64
        E 0 8e 46 64
        E 1 96 46 64
        E 0 9e 46 64
        E 0 86 46 64
        E 0 8e 46 64
        E 0 96 47 64
        E 0 9e 47 64
        E 0 86 47 64
        E 0 8e 47 64
        E 0 8f 34 64
        E 0 96 42 64
        E 0 9e 42 64
        E 0 9f 2f 5a
        E 0 86 42 64
        E 0 8e 42 64
        E 0 96 42 64
        E 0 9e 42 64
        E 0 86 42 64
        E 0 8e 42 64
        E 38403 96 3e 64
        E 0 9e 3e 64
        E 0 86 3e 64
        E 0 8e 3e 64
        E 0 96 3e 64
        E 0 9e 3e 64
        E 0 86 3e 64
        E 0 8e 3e 64
        E 0 96 40 64
        E 0 9e 40 64
        E 0 86 40 64
        E 0 8e 40 64
        E 0 8f 2f 64
        E 0 96 42 64
        E 0 9e 42 64
        E 0 9f 2f 5a
        E 0 86 42 64
        E 0 8e 42 64
        E 0 96 47 64
        E 0 9e 47 64
        E 0 86 47 64
        E 0 8e 47 64
        E 0 8f 2f 64
        E 0 96 43 64
        E 0 9e 43 64
        E 0 9f 34 5a
        E 0 86 43 64
        E 0 8e 43 64
        E 0 96 43 64
        E 0 9e 43 64
        E 0 86 43 64
        E 0 8e 43 64
        E 0 96 47 64
        E 0 9e 47 64
        E 0 86 47 64
        E 0 8e 47 64
        E 0 96 40 64
        E 0 9e 40 64
        E 0 86 40 64
        E 0 8e 40 64
        E 0 96 40 64
        E 0 9e 40 64
        E 0 8f 34 64
        E 0 86 40 64
        E 0 8e 40 64
        E 0 9f 34 5a
        E 0 96 40 64
        E 0 9e 40 64
        E 0 86 40 64
        E 0 8e 40 64
        E 0 96 40 64
        E 0 9e 40 64
        E 0 86 40 64
        E 0 8e 40 64
        E 0 96 43 64
        E 0 9e 43 64
        E 0 86 43 64
        E 0 8e 43 64
        E 0 96 43 64
        E 0 9e 43 64
        E 0 86 43 64
        E 0 8e 43 64
        E 0 96 45 64
        E 0 9e 45 64
        E 0 8f 34 64
        E 0 86 45 64
        E 0 8e 45 64
        E 0 9f 35 59
        E 0 96 47 64
        E 0 9e 47 64
        E 0 86 47 64
        E 0 8e 47 64
        E 0 96 47 64
        E 1 9e 47 64
        E 0 86 47 64
        E 0 8e 47 64
        E 0 96 49 64
        E 0 9e 49 64
        E 0 8f 35 63
        E 0 86 49 64
        E 0 8e 49 64
        E 0 9f 35 59
        E 0 96 44 64
        E 0 9e 44 64
        E 0 86 44 64
        E 0 8e 44 64
        E 0 96 44 64
        E 0 9e 44 64
        E 0 86 44 64
        E 0 8e 44 64
        E 0 96 44 64
        E 0 9e 44 64
        E 0 86 44 64
        E 0 8e 44 64
        E 0 96 45 64
        E 0 9e 45 64
        E 0 8f 35 63
        E 0 86 45 64
        E 0 8e 45 64
        E 0 9f 36 5a
        E 0 96 42 64
        E 0 9e 42 64
        E 0 86 42 64
        E 0 8e 42 64
        E 0 98 45 64
        E 0 9e 45 64
        E 0 88 45 64
        E 0 8e 45 64
        E 0 98 4a 64
        E 0 9e 4a 64
        E 0 88 4a 64
        E 0 8e 4a 64
        E 0 98 49 64
        E 0 9e 49 64
        E 0 88 49 64
        E 0 8e 49 64
        E 0 8f 36 64
        E 0 98 45 64
        E 0 9e 45 64
        E 0 9f 34 5a
        E 0 88 45 64
        E 0 8e 45 64
        E 0 98 45 64
        E 1 9e 45 64
        E 0 88 45 64
        E 0 8e 45 64
        E 0 8f 34 64
        E 0 9f 2d 5a
        E 0 96 49 64
        E 0 9e 49 64
        E 0 86 49 64
        E 0 8e 49 64
        E 0 8f 2d 64
        E 0 96 42 64
        E 0 9e 42 64
        E 0 9f 2d 5a
        E 0 86 42 64
        E 0 8e 42 64
        E 0 96 42 64
        E 0 9e 42 64
        E 0 86 42 64
        E 0 8e 42 64
        E 0 96 44 64
        E 0 9e 44 64
        E 0 86 44 64
        E 0 8e 44 64
        E 0 8f 2d 64
        E 0 96 44 64
        E 0 9e 44 64
        E 0 9f 2c 5a
        E 0 86 44 64
        E 0 8e 44 64
        E 0 96 44 64
        E 0 9e 44 64
        E 0 86 44 64
        E 0 8e 44 64
        E 0 98 4b 64
        E 0 9e 4b 64
        E 0 88 4b 64
        E 0 8e 4b 64
        E 0 8f 2c 64
        E 0 98 48 63
        E 0 9e 48 63
        E 0 9f 2c 5a
        E 0 88 48 63
        E 0 8e 48 63
        E 0 98 48 63
        E 0 9e 48 63
        E 0 88 48 63
        E 0 8e 48 63
        E 0 98 48 63
        E 0 9e 48 63
        E 0 88 48 63
        E 0 8e 48 63
        E 0 98 48 63
        E 0 9e 48 63
        E 0 88 48 63
        E 0 8e 48 63
        E 0 98 49 64
        E 0 9e 49 64
        E 0 88 49 64
        E 0 8e 49 64
        E 0 8f 2c 64
        E 0 98 44 64
        E 0 9e 44 64
        E 0 9f 31 5a
        E 0 88 44 64
        E 0 8e 44 64
        E 38403 96 40 64
        E 0 9e 40 64
        E 0 86 40 64
        E 0 8e 40 64
        E 0 96 3d 64
        E 0 9e 3d 64
        E 0 86 3d 64
        E 0 8e 3d 64
        E 0 96 44 64
        E 0 9e 44 64
        E 0 86 44 64
        E 0 8e 44 64
        E 0 8f 31 64
        E 0 96 40 64
        E 0 9e 40 64
        E 0 9f 31 5a
        E 0 86 40 64
        E 0 8e 40 64
        E 0 96 49 64
        E 0 9e 49 64
        E 0 86 49 64
        E 0 8e 49 64
        E 0 8f 31 64
        E 0 96 45 64
        E 0 9e 45 64
        E 0 9f 36 5a
        E 0 86 45 64
        E 0 8e 45 64
        E 0 96 45 64
        E 0 9e 45 64
        E 0 86 45 64
        E 0 8e 45 64
        E 0 8f 36 64
        E 0 96 45 64
        E 0 9e 45 64
        E 0 9f 36 5a
        E 0 86 45 64
        E 0 8e 45 64
        E 0 96 45 64
        E 1 9e 45 64
        E 0 86 45 64
        E 0 8e 45 64
        E 0 96 45 64
        E 0 9e 45 64
        E 0 86 45 64
        E 0 8e 45 64
        E 0 96 45 64
        E 0 9e 45 64
        E 0 86 45 64
        E 0 8e 45 64
        E 0 96 44 64
        E 0 9e 44 64
        E 0 86 44 64
        E 0 8e 44 64
        E 0 8f 36 64
        E 0 96 47 64
        E 0 9e 47 64
        E 0 9f 34 5a
        E 0 86 47 64
        E 0 8e 47 64
        E 0 96 47 64
        E 0 9e 47 64
        E 0 86 47 64
        E 0 8e 47 64
        E 0 96 40 64
        E 0 9e 40 64
        E 0 86 40 64
        E 0 8e 40 64
        E 0 96 40 64
        E 0 9e 40 64
        E 0 86 40 64
        E 0 8e 40 64
        E 0 96 40 64
        E 0 9e 40 64
        E 0 86 40 64
        E 0 8e 40 64
        E 0 8f 34 64
        E 0 96 45 64
        E 0 9e 45 64
        E 0 9f 31 5a
        E 0 86 45 64
        E 0 8e 45 64
        E 0 96 45 64
        E 0 9e 45 64
        E 0 86 45 64
        E 0 8e 45 64
        E 0 96 45 64
        E 1 9e 45 64
        E 0 86 45 64
        E 0 8e 45 64
        E 0 96 45 64
        E 0 9e 45 64
        E 0 86 45 64
        E 0 8e 45 64
        E 0 96 45 64
        E 0 9e 45 64
        E 0 86 45 64
        E 0 8e 45 64
        E 0 96 43 64
        E 0 9e 43 64
        E 0 86 43 64
        E 0 8e 43 64
        E 0 96 45 64
        E 0 9e 45 64
        E 0 86 45 64
        E 0 8e 45 64
        E 0 8f 31 64
        E 0 96 42 64
        E 0 9e 42 64
        E 0 9f 32 5a
        E 0 86 42 64
        E 0 8e 42 64
        E 0 96 42 64
        E 0 9e 42 64
        E 0 86 42 64
        E 0 8e 42 64
        E 0 96 45 64
        E 0 9e 45 64
        E 0 86 45 64
        E 0 8e 45 64
        E 0 96 43 64
        E 0 9e 43 64
        E 0 86 43 64
        E 0 8e 43 64
        E 0 96 45 64
        E 0 9e 45 64
        E 0 86 45 64
        E 0 8e 45 64
        E 0 8f 32 64
        E 0 96 40 64
        E 0 9e 40 64
        E 0 9f 34 5a
        E 0 86 40 64
        E 0 8e 40 64
        E 0 96 40 64
        E 0 9e 40 64
        E 0 86 40 64
        E 0 8e 40 64
        E 0 8f 34 64
        E 0 9f 2d 5a
        E 0 8f 2d 64
        E 0 98 49 64
        E 0 9e 49 64
        E 0 9f 2d 5a
        E 0 88 49 64
        E 0 8e 49 64
        E 0 98 49 64
        E 0 9e 49 64
        E 0 88 49 64
        E 0 8e 49 64
        E 0 98 49 64
        E 0 9e 49 64
        E 0 88 49 64
        E 0 8e 49 64
        E 0 98 47 64
        E 1 9e 47 64
        E 0 88 47 64
        E 0 8e 47 64
        E 0 98 49 64
        E 0 9e 49 64
        E 0 88 49 64
        E 0 8e 49 64
        E 0 98 45 64
        E 0 9e 45 64
        E 0 88 45 64
        E 0 8e 45 64
        E 0 98 49 64
        E 0 9e 49 64
        E 0 88 49 64
        E 0 8e 49 64
        E 0 98 4b 64
        E 0 9e 4b 64
        E 0 88 4b 64
        E 0 8e 4b 64
        E 0 98 4c 64
        E 0 9e 4c 64
        E 0 88 4c 64
        E 0 8e 4c 64
        E 0 8f 2d 64
        E 0 98 47 64
        E 0 9e 47 64
        E 0 9f 2f 5a
        E 0 88 47 64
        E 0 8e 47 64
        E 0 98 47 64
        E 0 9e 47 64
        E 0 88 47 64
        E 0 8e 47 64
        E 0 8f 2f 64
        E 0 9f 34 5a
        E 0 8f 34 64
        E 0 96 44 64
        E 0 9e 44 64
        E 0 9f 34 5a
        E 38403 86 44 64
        E 0 8e 44 64
        E 0 96 44 64
        E 0 9e 44 64
        E 0 86 44 64
        E 0 8e 44 64
        E 0 96 40 64
        E 0 9e 40 64
        E 0 86 40 64
        E 0 8e 40 64
        E 0 8f 34 64
        E 0 96 45 64
        E 0 9e 45 64
        E 0 9f 31 5a
        E 0 86 45 64
        E 0 8e 45 64
        E 0 96 45 64
        E 0 9e 45 64
        E 0 86 45 64
        E 0 8e 45 64
        E 0 98 49 64
        E 0 9e 49 64
        E 0 88 49 64
        E 0 8e 49 64
        E 0 98 49 64
        E 0 9e 49 64
        E 0 88 49 64
        E 0 8e 49 64
        E 0 98 49 64
        E 0 9e 49 64
        E 0 88 49 64
        E 0 8e 49 64
        E 0 8f 31 64
        E 0 98 46 64
        E 0 9e 46 64
        E 0 9f 34 5a
        E 0 88 46 64
        E 0 8e 46 64
        E 0 98 49 64
        E 0 9e 49 64
        E 0 88 49 64
        E 1 8e 49 64
        E 0 98 4c 64
        E 0 9e 4c 64
        E 0 88 4c 64
        E 0 8e 4c 64
        E 0 98 4a 64
        E 0 9e 4a 64
        E 0 88 4a 64
        E 0 8e 4a 64
        E 0 8f 34 64
        E 0 98 47 64
        E 0 9e 47 64
        E 0 9f 32 5a
        E 0 88 47 64
        E 0 8e 47 64
        E 0 98 47 64
        E 0 9e 47 64
        E 0 88 47 64
        E 0 8e 47 64
        E 0 8f 32 64
        E 0 98 47 64
        E 0 9e 47 64
        E 0 9f 2f 5a
        E 0 88 47 64
        E 0 8e 47 64
        E 0 98 42 64
        E 0 9e 42 64
        E 0 88 42 64
        E 0 8e 42 64
        E 0 98 42 64
        E 0 9e 42 64
        E 0 88 42 64
        E 0 8e 42 64
        E 0 98 42 64
        E 0 9e 42 64
        E 0 88 42 64
        E 0 8e 42 64
        E 0 8f 2f 64
        E 0 98 47 64
        E 0 9e 47 64
        E 0 9f 2f 5a
        E 0 88 47 64
        E 0 8e 47 64
        E 0 98 47 64
        E 0 9e 47 64
        E 0 88 47 64
        E 0 8e 47 64
        E 0 98 47 64
        E 0 9e 47 64
        E 0 88 47 64
        E 0 8e 47 64
        E 0 98 47 64
        E 0 9e 47 64
        E 0 88 47 64
        E 0 8e 47 64
        E 0 98 47 64
        E 0 9e 47 64
        E 0 88 47 64
        E 0 8e 47 64
        E 0 98 47 64
        E 0 9e 47 64
        E 0 88 47 64
        E 0 8e 47 64
        E 0 98 49 64
        E 0 9e 49 64
        E 0 88 49 64
        E 0 8e 49 64
        E 0 8f 2f 64
        E 0 98 4a 64
        E 0 9e 4a 64
        E 0 9f 2f 5a
        E 0 88 4a 64
        E 0 8e 4a 64
        E 0 98 4a 64
        E 0 9e 4a 64
        E 0 88 4a 64
        E 0 8e 4a 64
        E 0 98 4a 64
        E 0 9e 4a 64
        E 0 88 4a 64
        E 0 8e 4a 64
        E 0 98 4c 64
        E 0 9e 4c 64
        E 0 88 4c 64
        E 0 8e 4c 64
        E 0 98 4e 64
        E 0 9e 4e 64
        E 0 88 4e 64
        E 0 8e 4e 64
        E 0 98 47 64
        E 0 9e 47 64
        E 0 88 47 64
        E 0 8e 47 64
        E 0 98 47 64
        E 0 9e 47 64
        E 0 88 47 64
        E 0 8e 47 64
        E 0 98 47 64
        E 0 9e 47 64
        E 0 88 47 64
        E 0 8e 47 64
        E 0 8f 2f 64
        E 0 98 4a 64
        E 0 9e 4a 64
        E 0 9f 2f 5a
        E 0 88 4a 64
        E 0 8e 4a 64
        E 0 98 4a 64
        E 0 9e 4a 64
        E 0 88 4a 64
        E 0 8e 4a 64
        E 1 98 4a 64
        E 0 9e 4a 64
        E 0 88 4a 64
        E 0 8e 4a 64
        E 0 98 49 64
        E 0 9e 49 64
        E 0 88 49 64
        E 0 8e 49 64
        E 0 8f 2f 64
        E 0 98 49 64
        E 0 9e 49 64
        E 0 9f 35 59
        E 0 88 49 64
        E 0 8e 49 64
        E 0 98 49 64
        E 0 9e 49 64
        E 0 88 49 64
        E 0 8e 49 64
        E 0 8f 35 63
        E 0 98 48 64
        E 0 9e 48 64
        E 0 9f 35 59
        E 0 88 48 64
        E 0 8e 48 64
        E 0 98 44 64
        E 0 9e 44 64
        E 0 88 44 64
        E 0 8e 44 64
        E 0 98 49 64
        E 0 9e 49 64
        E 0 88 49 64
        E 0 8e 49 64
        E 0 8f 35 63
        E 0 98 45 64
        E 0 9e 45 64
        E 0 9f 36 5a
        E 0 88 45 64
        E 0 8e 45 64
        E 0 98 45 64
        E 0 9e 45 64
        E 0 88 45 64
        E 0 8e 45 64
        E 0 98 45 64
        E 0 9e 45 64
        E 0 88 45 64
        E 0 8e 45 64
        E 0 98 47 64
        E 0 9e 47 64
        E 0 88 47 64
        E 0 8e 47 64
        E 0 98 49 64
        E 0 9e 49 64
        E 0 88 49 64
        E 0 8e 49 64
        E 0 8f 36 64
        E 0 98 42 64
        E 0 9e 42 64
        E 0 9f 38 5a
        E 0 88 42 64
        E 0 8e 42 64
        E 0 98 42 64
        E 0 9e 42 64
        E 0 88 42 64
        E 0 8e 42 64
        E 0 8f 38 64
        E 0 9f 31 5a
        E 38403 98 49 64
        E 0 9e 49 64
        E 0 88 49 64
        E 0 8e 49 64
        E 0 8f 31 64
        E 0 98 45 64
        E 0 9e 45 64
        E 0 9f 31 5a
        E 0 88 45 64
        E 0 8e 45 64
        E 0 98 45 64
        E 0 9e 45 64
        E 0 88 45 64
        E 0 8e 45 64
        E 0 8f 31 64
        E 0 98 45 64
        E 0 9e 45 64
        E 1 9f 31 5a
        E 0 88 45 64
        E 0 8e 45 64
        E 0 98 45 64
        E 0 9e 45 64
        E 0 88 45 64
        E 0 8e 45 64
        E 0 98 45 64
        E 0 9e 45 64
        E 0 88 45 64
        E 0 8e 45 64
        E 0 98 45 64
        E 0 9e 45 64
        E 0 88 45 64
        E 0 8e 45 64
        E 0 98 47 64
        E 0 9e 47 64
        E 0 88 47 64
        E 0 8e 47 64
        E 0 98 43 64
        E 0 9e 43 64
        E 0 88 43 64
        E 0 8e 43 64
        E 0 98 43 64
        E 0 9e 43 64
        E 0 88 43 64
        E 0 8e 43 64
        E 0 98 4c 64
        E 0 9e 4c 64
        E 0 88 4c 64
        E 0 8e 4c 64
        E 1 98 4c 64
        E 0 9e 4c 64
        E 0 88 4c 64
        E 0 8e 4c 64
        E 0 8f 31 64
        E 0 98 49 64
        E 0 9e 49 64
        E 0 9f 37 5a
        E 0 88 49 64
        E 0 8e 49 64
        E 0 98 49 64
        E 0 9e 49 64
        E 0 88 49 64
        E 0 8e 49 64
        E 0 98 4a 64
        E 0 9e 4a 64
        E 0 88 4a 64
        E 0 8e 4a 64
        E 0 8f 37 64
        E 0 98 45 64
        E 0 9e 45 64
        E 0 9f 36 5a
        E 0 88 45 64
        E 0 8e 45 64
        E 0 98 45 64
        E 0 9e 45 64
        E 0 88 45 64
        E 0 8e 45 64
        E 0 98 45 64
        E 0 9e 45 64
        E 0 88 45 64
        E 0 8e 45 64
        E 0 8f 36 64
        E 0 98 42 64
        E 0 9e 42 64
        E 0 9f 36 5a
        E 0 88 42 64
        E 0 8e 42 64
        E 0 98 42 64
        E 0 9e 42 64
        E 0 88 42 64
        E 0 8e 42 64
        E 0 98 42 64
        E 0 9e 42 64
        E 0 88 42 64
        E 0 8e 42 64
        E 0 98 42 64
        E 0 9e 42 64
        E 0 88 42 64
        E 0 8e 42 64
        E 0 98 43 64
        E 1 9e 43 64
        E 0 88 43 64
        E 0 8e 43 64
        E 0 98 45 64
        E 0 9e 45 64
        E 0 88 45 64
        E 0 8e 45 64
        E 0 8f 36 64
        E 0 98 45 64
        E 0 9e 45 64
        E 0 9f 36 5a
        E 0 88 45 64
        E 0 8e 45 64
        E 0 98 45 64
        E 0 9e 45 64
        E 0 88 45 64
        E 0 8e 45 64
        E 0 98 45 64
        E 0 9e 45 64
        E 0 88 45 64
        E 0 8e 45 64
        E 0 98 47 64
        E 0 9e 47 64
        E 0 88 47 64
        E 0 8e 47 64
        E 0 98 48 64
        E 0 9e 48 64
        E 0 88 48 64
        E 0 8e 48 64
        E 0 98 48 64
        E 0 9e 48 64
        E 0 88 48 64
        E 0 8e 48 64
        E 0 98 48 64
        E 0 9e 48 64
        E 0 88 48 64
        E 0 8e 48 64
        E 0 8f 36 64
        E 0 98 45 64
        E 0 9e 45 64
        E 0 9f 36 5a
        E 0 88 45 64
        E 0 8e 45 64
        E 0 98 45 64
        E 0 9e 45 64
        E 0 88 45 64
        E 0 8e 45 64
        E 0 98 45 64
        E 0 9e 45 64
        E 0 88 45 64
        E 0 8e 45 64
        E 0 98 47 64
        E 0 9e 47 64
        E 0 88 47 64
        E 0 8e 47 64
        E 0 8f 36 64
        E 1 98 43 64
        E 0 9e 43 64
        E 0 9f 37 5a
        E 0 88 43 64
        E 0 8e 43 64
        E 0 98 43 64
        E 0 9e 43 64
        E 0 88 43 64
        E 0 8e 43 64
        E 0 98 4a 64
        E 0 9e 4a 64
        E 0 88 4a 64
        E 0 8e 4a 64
        E 0 98 4a 64
        E 0 9e 4a 64
        E 0 88 4a 64
        E 0 8e 4a 64
        E 0 98 4a 64
        E 0 9e 4a 64
        E 0 8f 37 64
        E 0 88 4a 64
        E 0 8e 4a 64
        E 0 9f 37 5a
        E 0 98 47 64
        E 0 9e 47 64
        E 0 88 47 64
        E 0 8e 47 64
        E 0 98 47 64
        E 0 9e 47 64
        E 0 88 47 64
        E 0 8e 47 64
        E 0 98 47 64
        E 0 9e 47 64
        E 0 88 47 64
        E 0 8e 47 64
        E 0 98 47 64
        E 0 9e 47 64
        E 0 88 47 64
        E 0 8e 47 64
        E 0 98 47 64
        E 0 9e 47 64
        E 0 88 47 64
        E 0 8e 47 64
        E 0 98 47 64
        E 0 9e 47 64
        E 0 88 47 64
        E 0 8e 47 64
        E 0 98 48 64
        E 0 9e 48 64
        E 38403 8f 37 64
        E 0 88 48 64
        E 0 8e 48 64
        E 0 9f 37 5a
        E 0 98 4a 64
        E 0 9e 4a 64
        E 0 88 4a 64
        E 0 8e 4a 64
        E 0 98 4a 64
        E 0 9e 4a 64
        E 0 88 4a 64
        E 0 8e 4a 64
        E 0 98 47 64
        E 0 9e 47 64
        E 0 88 47 64
        E 0 8e 47 64
        E 0 98 47 64
        E 0 9e 47 64
        E 0 88 47 64
        E 0 8e 47 64
        E 0 98 47 64
        E 0 9e 47 64
        E 0 88 47 64
        E 0 8e 47 64
        E 0 98 45 64
        E 0 9e 45 64
        E 0 88 45 64
        E 0 8e 45 64
        E 0 98 43 64
        E 0 9e 43 64
        E 0 88 43 64
        E 0 8e 43 64
        E 0 8f 37 64
        E 0 98 48 64
        E 0 9e 48 64
        E 0 9f 34 5a
        E 0 88 48 64
        E 0 8e 48 64
        E 0 8f 34 64
        E 0 98 45 64
        E 0 9e 45 64
        E 1 9f 35 5a
        E 0 88 45 64
        E 0 8e 45 64
        E 0 98 47 64
        E 0 9e 47 64
        E 0 88 47 64
        E 0 8e 47 64
        E 0 98 48 64
        E 0 9e 48 64
        E 0 88 48 64
        E 0 8e 48 64
        E 0 8f 35 64
        E 0 98 43 64
        E 0 9e 43 64
        E 0 9f 37 5a
        E 0 88 43 64
        E 0 8e 43 64
        E 0 98 43 64
        E 0 9e 43 64
        E 0 88 43 64
        E 0 8e 43 64
        E 0 8f 37 64
        E 0 9f 30 5a
        E 0 8f 30 64
        E 0 98 48 64
        E 0 9e 48 64
        E 0 9f 30 5a
        E 0 88 48 64
        E 0 8e 48 64
        E 1 98 48 64
        E 0 9e 48 64
        E 0 88 48 64
        E 0 8e 48 64
        E 0 98 48 64
        E 0 9e 48 64
        E 0 88 48 64
        E 0 8e 48 64
        E 0 98 4a 64
        E 0 9e 4a 64
        E 0 88 4a 64
        E 0 8e 4a 64
        E 0 98 4c 64
        E 0 9e 4c 64
        E 0 88 4c 64
        E 0 8e 4c 64
        E 0 8f 30 64
        E 0 98 46 66
        E 0 9e 46 66
        E 0 9f 30 5a
        E 0 88 46 66
        E 0 8e 46 66
        E 0 98 46 66
        E 0 9e 46 66
        E 0 88 46 66
        E 0 8e 46 66
        E 0 98 43 64
        E 0 9e 43 64
        E 0 88 43 64
        E 0 8e 43 64
        E 0 98 43 64
        E 0 9e 43 64
        E 0 88 43 64
        E 0 8e 43 64
        E 0 98 45 64
        E 0 9e 45 64
        E 0 88 45 64
        E 0 8e 45 64
        E 0 8f 30 64
        E 0 98 46 66
        E 0 9e 46 66
        E 0 9f 30 5a
        E 0 88 46 66
        E 0 8e 46 66
        E 0 98 46 66
        E 0 9e 46 66
        E 0 88 46 66
        E 0 8e 46 66
        E 0 98 46 66
        E 0 9e 46 66
        E 0 88 46 66
        E 0 8e 46 66
        E 0 98 46 66
        E 0 9e 46 66
        E 0 88 46 66
        E 0 8e 46 66
        E 0 98 46 66
        E 0 9e 46 66
        E 0 88 46 66
        E 0 8e 46 66
        E 0 98 46 66
        E 0 9e 46 66
        E 0 88 46 66
        E 0 8e 46 66
        E 0 98 45 64
        E 0 9e 45 64
        E 0 88 45 64
        E 0 8e 45 64
        E 0 8f 30 64
        E 0 98 48 64
        E 0 9e 48 64
        E 0 9f 35 5a
        E 0 88 48 64
        E 0 8e 48 64
        E 0 98 48 64
        E 0 9e 48 64
        E 0 88 48 64
        E 0 8e 48 64
        E 0 98 45 64
        E 1 9e 45 64
        E 0 88 45 64
        E 0 8e 45 64
        E 0 98 45 64
        E 0 9e 45 64
        E 0 88 45 64
        E 0 8e 45 64
        E 0 98 45 64
        E 0 9e 45 64
        E 0 88 45 64
        E 0 8e 45 64
        E 0 98 41 64
        E 0 9e 41 64
        E 0 88 41 64
        E 0 8e 41 64
        E 0 98 41 64
        E 0 9e 41 64
        E 0 88 41 64
        E 0 8e 41 64
        E 0 98 48 64
        E 0 9e 48 64
        E 0 88 48 64
        E 0 8e 48 64
        E 0 98 48 64
        E 0 9e 48 64
        E 0 88 48 64
        E 0 8e 48 64
        E 0 98 4a 64
        E 0 9e 4a 64
        E 0 88 4a 64
        E 0 8e 4a 64
        E 0 8f 35 64
        E 0 98 46 66
        E 0 9e 46 66
        E 0 9f 2e 5b
        E 0 88 46 66
        E 0 8e 46 66
        E 0 98 46 66
        E 0 9e 46 66
        E 0 88 46 66
        E 0 8e 46 66
        E 0 98 46 66
        E 0 9e 46 66
        E 0 88 46 66
        E 0 8e 46 66
        E 0 8f 2e 66
        E 0 98 43 64
        E 0 9e 43 64
        E 0 9f 33 5b
        E 38403 88 43 64
        E 0 8e 43 64
        E 0 98 43 64
        E 0 9e 43 64
        E 0 88 43 64
        E 0 8e 43 64
        E 0 98 4b 66
        E 1 9e 4b 66
        E 0 88 4b 66
        E 0 8e 4b 66
        E 0 98 4b 66
        E 0 9e 4b 66
        E 0 88 4b 66
        E 0 8e 4b 66
        E 0 8f 33 66
        E 0 98 45 64
        E 0 9e 45 64
        E 0 9f 33 5b
        E 0 88 45 64
        E 0 8e 45 64
        E 0 98 45 64
        E 0 9e 45 64
        E 0 88 45 64
        E 0 8e 45 64
        E 0 98 46 66
        E 0 9e 46 66
        E 0 88 46 66
        E 0 8e 46 66
        E 0 8f 33 66
        E 0 98 41 64
        E 0 9e 41 64
        E 0 9f 2e 5b
        E 0 88 41 64
        E 0 8e 41 64
        E 0 98 41 64
        E 0 9e 41 64
        E 0 88 41 64
        E 0 8e 41 64
        E 0 98 41 64
        E 0 9e 41 64
        E 0 88 41 64
        E 0 8e 41 64
        E 0 98 41 64
        E 1 9e 41 64
        E 0 88 41 64
        E 0 8e 41 64
        E 0 8f 2e 66
        E 0 98 46 66
        E 0 9e 46 66
        E 0 9f 2e 5b
        E 0 88 46 66
        E 0 8e 46 66
        E 0 98 46 66
        E 0 9e 46 66
        E 0 88 46 66
        E 0 8e 46 66
        E 0 98 48 64
        E 0 9e 48 64
        E 0 88 48 64
        E 0 8e 48 64
        E 0 98 44 66
        E 0 9e 44 66
        E 0 88 44 66
        E 0 8e 44 66
        E 0 98 44 66
        E 0 9e 44 66
        E 0 88 44 66
        E 0 8e 44 66
        E 0 98 41 64
        E 0 9e 41 64
        E 0 88 41 64
        E 0 8e 41 64
        E 0 98 43 64
        E 0 9e 43 64
        E 0 88 43 64
        E 0 8e 43 64
        E 0 8f 2e 66
        E 0 98 44 66
        E 0 9e 44 66
        E 0 9f 2e 5b
        E 0 88 44 66
        E 0 8e 44 66
        E 0 98 44 66
        E 0 9e 44 66
        E 0 88 44 66
        E 0 8e 44 66
        E 0 98 43 64
        E 0 9e 43 64
        E 0 88 43 64
        E 0 8e 43 64
        E 0 8f 2e 66
        E 0 98 3f 66
        E 0 9e 3f 66
        E 0 9f 33 5b
        E 0 88 3f 66
        E 0 8e 3f 66
        E 0 8f 33 66
        E 0 98 43 64
        E 0 9e 43 64
        E 1 9f 33 5b
        E 0 88 43 64
        E 0 8e 43 64
        E 0 98 43 64
        E 0 9e 43 64
        E 0 88 43 64
        E 0 8e 43 64
        E 0 98 48 64
        E 0 9e 48 64
        E 0 88 48 64
        E 0 8e 48 64
        E 0 8f 33 66
        E 0 98 47 64
        E 0 9e 47 64
        E 0 9f 35 5a
        E 0 88 47 64
        E 0 8e 47 64
        E 0 98 47 64
        E 0 9e 47 64
        E 0 88 47 64
        E 0 8e 47 64
        E 0 98 4a 64
        E 0 9e 4a 64
        E 0 88 4a 64
        E 0 8e 4a 64
        E 0 98 4a 64
        E 0 9e 4a 64
        E 0 88 4a 64
        E 0 8e 4a 64
        E 0 8f 35 64
        E 0 98 47 64
        E 0 9e 47 64
        E 1 9f 35 5a
        E 0 88 47 64
        E 0 8e 47 64
        E 0 98 47 64
        E 0 9e 47 64
        E 0 88 47 64
        E 0 8e 47 64
        E 0 98 48 64
        E 0 9e 48 64
        E 0 88 48 64
        E 0 8e 48 64
        E 0 8f 35 64
        E 0 98 43 64
        E 0 9e 43 64
        E 0 9f 37 5a
        E 0 88 43 64
        E 0 8e 43 64
        E 0 98 43 64
        E 0 9e 43 64
        E 0 88 43 64
        E 0 8e 43 64
        E 0 8f 37 64
        E 0 9f 30 5a
        E 0 8f 30 64
        E 0 98 48 64
        E 0 9e 48 64
        E 0 9f 30 5a
        E 0 88 48 64
        E 0 8e 48 64
        E 0 98 48 64
        E 0 9e 48 64
        E 0 88 48 64
        E 0 8e 48 64
        E 0 98 48 64
        E 0 9e 48 64
        E 0 88 48 64
        E 0 8e 48 64
        E 0 8f 30 64
        E 0 98 45 64
        E 0 9e 45 64
        E 0 9f 36 5a
        E 0 88 45 64
        E 0 8e 45 64
        E 0 98 45 64
        E 0 9e 45 64
        E 0 88 45 64
        E 0 8e 45 64
        E 0 98 4b 66
        E 0 9e 4b 66
        E 0 88 4b 66
        E 0 8e 4b 66
        E 0 98 4b 66
        E 0 9e 4b 66
        E 0 88 4b 66
        E 0 8e 4b 66
        E 0 8f 36 64
        E 0 98 48 64
        E 0 9e 48 64
        E 0 9f 36 5a
        E 0 88 48 64
        E 0 8e 48 64
        E 0 98 48 64
        E 0 9e 48 64
        E 38403 88 48 64
        E 0 8e 48 64
        E 0 98 46 66
        E 0 9e 46 66
        E 0 88 46 66
        E 0 8e 46 66
        E 0 8f 36 64
        E 0 98 43 64
        E 0 9e 43 64
        E 0 9f 37 5a
        E 0 88 43 64
        E 0 8e 43 64
        E 0 98 43 64
        E 0 9e 43 64
        E 0 88 43 64
        E 0 8e 43 64
        E 0 8f 37 64
        E 0 98 46 66
        E 0 9e 46 66
        E 0 9f 37 5a
        E 0 88 46 66
        E 0 8e 46 66
        E 0 98 46 66
        E 0 9e 46 66
        E 0 88 46 66
        E 0 8e 46 66
        E 0 98 46 66
        E 0 9e 46 66
        E 0 88 46 66
        E 0 8e 46 66
        E 0 98 48 64
        E 0 9e 48 64
        E 0 88 48 64
        E 0 8e 48 64
        E 0 8f 37 64
        E 0 98 49 66
        E 0 9e 49 66
        E 0 9f 34 5a
        E 0 88 49 66
        E 0 8e 49 66
        E 0 98 49 66
        E 0 9e 49 66
        E 0 88 49 66
        E 0 8e 49 66
        E 0 98 49 66
        E 1 9e 49 66
        E 0 88 49 66
        E 0 8e 49 66
        E 0 8f 34 64
        E 0 98 46 66
        E 0 9e 46 66
        E 0 9f 34 5a
        E 0 88 46 66
        E 0 8e 46 66
        E 0 98 46 66
        E 0 9e 46 66
        E 0 88 46 66
        E 0 8e 46 66
        E 0 98 46 66
        E 0 9e 46 66
        E 0 88 46 66
        E 0 8e 46 66
        E 0 98 46 66
        E 0 9e 46 66
        E 0 88 46 66
        E 0 8e 46 66
        E 0 98 44 66
        E 0 9e 44 66
        E 0 88 44 66
        E 0 8e 44 66
        E 0 8f 34 64
        E 0 98 41 64
        E 0 9e 41 64
        E 0 9f 35 5a
        E 0 88 41 64
        E 0 8e 41 64
        E 0 8f 35 64
        E 0 98 48 64
        E 0 9e 48 64
        E 1 9f 35 5a
        E 0 88 48 64
        E 0 8e 48 64
        E 0 98 46 66
        E 0 9e 46 66
        E 0 88 46 66
        E 0 8e 46 66
        E 0 98 48 64
        E 0 9e 48 64
        E 0 88 48 64
        E 0 8e 48 64
        E 0 98 44 66
        E 0 9e 44 66
        E 0 88 44 66
        E 0 8e 44 66
        E 0 98 44 66
        E 0 9e 44 66
        E 0 88 44 66
        E 0 8e 44 66
        E 0 98 41 64
        E 0 9e 41 64
        E 0 88 41 64
        E 0 8e 41 64
        E 0 8f 35 64
        E 0 98 48 64
        E 0 9e 48 64
        E 0 9f 35 5a
        E 0 88 48 64
        E 0 8e 48 64
        E 0 98 48 64
        E 0 9e 48 64
        E 0 88 48 64
        E 0 8e 48 64
        E 0 98 46 66
        E 0 9e 46 66
        E 0 88 46 66
        E 0 8e 46 66
        E 0 98 48 64
        E 0 9e 48 64
        E 0 88 48 64
        E 0 8e 48 64
        E 0 8f 35 64
        E 0 98 49 66
        E 0 9e 49 66
        E 0 9f 2e 5b
        E 0 88 49 66
        E 0 8e 49 66
        E 0 98 49 66
        E 0 9e 49 66
        E 0 88 49 66
        E 0 8e 49 66
        E 0 98 46 66
        E 0 9e 46 66
        E 0 88 46 66
        E 0 8e 46 66
        E 0 98 46 66
        E 0 9e 46 66
        E 0 88 46 66
        E 0 8e 46 66
        E 0 98 44 66
        E 0 9e 44 66
        E 0 88 44 66
        E 0 8e 44 66
        E 0 8f 2e 66
        E 0 98 41 64
        E 0 9e 41 64
        E 1 9f 30 5a
        E 0 88 41 64
        E 0 8e 41 64
        E 0 98 41 64
        E 0 9e 41 64
        E 0 88 41 64
        E 0 8e 41 64
        E 0 8f 30 64
        E 0 9f 35 5a
        E 0 96 48 64
        E 0 9e 48 64
        E 0 86 48 64
        E 0 8e 48 64
        E 0 8f 35 64
        E 0 96 44 66
        E 0 9e 44 66
        E 0 9f 35 5a
        E 0 86 44 66
        E 0 8e 44 66
        E 0 96 44 66
        E 0 9e 44 66
        E 0 86 44 66
        E 0 8e 44 66
        E 0 96 41 64
        E 0 9e 41 64
        E 0 86 41 64
        E 0 8e 41 64
        E 0 8f 35 64
        E 0 96 48 64
        E 0 9e 48 64
        E 0 9f 35 5a
        E 0 86 48 64
        E 0 8e 48 64
        E 0 96 48 64
        E 0 9e 48 64
        E 0 86 48 64
        E 0 8e 48 64
        E 0 98 4d 64
        E 0 9e 4d 64
        E 1 88 4d 64
        E 0 8e 4d 64
        E 0 98 48 64
        E 0 9e 48 64
        E 0 88 48 64
        E 0 8e 48 64
        E 0 98 48 64
        E 0 9e 48 64
        E 0 88 48 64
        E 0 8e 48 64
        E 0 98 48 64
        E 0 9e 48 64
        E 0 88 48 64
        E 0 8e 48 64
        E 0 98 48 64
        E 0 9e 48 64
        E 38403 88 48 64
        E 0 8e 48 64
        E 0 8f 35 64
        E 0 98 45 64
        E 0 9e 45 64
        E 0 9f 36 5a
        E 0 88 45 64
        E 0 8e 45 64
        E 0 98 45 64
        E 0 9e 45 64
        E 0 88 45 64
        E 0 8e 45 64
        E 0 98 4b 66
        E 0 9e 4b 66
        E 0 88 4b 66
        E 0 8e 4b 66
        E 0 98 4a 64
        E 0 9e 4a 64
        E 0 88 4a 64
        E 0 8e 4a 64
        E 0 98 48 64
        E 0 9e 48 64
        E 0 88 48 64
        E 0 8e 48 64
        E 0 98 48 64
        E 0 9e 48 64
        E 0 88 48 64
        E 0 8e 48 64
        E 0 98 46 66
        E 0 9e 46 66
        E 0 88 46 66
        E 0 8e 46 66
        E 0 8f 36 64
        E 1 98 43 64
        E 0 9e 43 64
        E 0 9f 37 5a
        E 0 88 43 64
        E 0 8e 43 64
        E 0 98 46 66
        E 0 9e 46 66
        E 0 88 46 66
        E 0 8e 46 66
        E 0 98 46 66
        E 0 9e 46 66
        E 0 88 46 66
        E 0 8e 46 66
        E 0 98 48 64
        E 0 9e 48 64
        E 0 88 48 64
        E 0 8e 48 64
        E 0 8f 37 64
        E 0 98 4a 64
        E 0 9e 4a 64
        E 0 9f 37 5a
        E 0 88 4a 64
        E 0 8e 4a 64
        E 0 98 4a 64
        E 0 9e 4a 64
        E 0 88 4a 64
        E 0 8e 4a 64
        E 0 98 4a 64
        E 0 9e 4a 64
        E 0 88 4a 64
        E 0 8e 4a 64
        E 0 98 46 66
        E 0 9e 46 66
        E 0 88 46 66
        E 0 8e 46 66
        E 0 98 46 66
        E 0 9e 46 66
        E 1 88 46 66
        E 0 8e 46 66
        E 0 98 43 64
        E 0 9e 43 64
        E 0 88 43 64
        E 0 8e 43 64
        E 0 98 43 64
        E 0 9e 43 64
        E 0 8f 37 64
        E 0 88 43 64
        E 0 8e 43 64
        E 0 9f 37 5a
        E 0 98 43 64
        E 0 9e 43 64
        E 0 88 43 64
        E 0 8e 43 64
        E 0 98 43 64
        E 0 9e 43 64
        E 0 88 43 64
        E 0 8e 43 64
        E 0 98 43 64
        E 0 9e 43 64
        E 0 88 43 64
        E 0 8e 43 64
        E 0 98 45 64
        E 0 9e 45 64
        E 0 88 45 64
        E 0 8e 45 64
        E 0 98 46 66
        E 0 9e 46 66
        E 0 88 46 66
        E 0 8e 46 66
        E 0 98 46 66
        E 0 9e 46 66
        E 0 88 46 66
        E 0 8e 46 66
        E 0 98 46 66
        E 0 9e 46 66
        E 0 88 46 66
        E 0 8e 46 66
        E 0 98 43 64
        E 0 9e 43 64
        E 0 88 43 64
        E 0 8e 43 64
        E 0 8f 37 64
        E 0 98 48 64
        E 0 9e 48 64
        E 0 9f 33 5b
        E 0 88 48 64
        E 0 8e 48 64
        E 0 98 48 64
        E 1 9e 48 64
        E 0 88 48 64
        E 0 8e 48 64
        E 0 98 48 64
        E 0 9e 48 64
        E 0 88 48 64
        E 0 8e 48 64
        E 0 98 43 64
        E 0 9e 43 64
        E 0 88 43 64
        E 0 8e 43 64
        E 0 8f 33 66
        E 0 98 45 64
        E 0 9e 45 64
        E 0 9f 32 5a
        E 0 88 45 64
        E 0 8e 45 64
        E 0 98 45 64
        E 0 9e 45 64
        E 0 88 45 64
        E 0 8e 45 64
        E 0 8f 32 64
        E 0 98 45 64
        E 0 9e 45 64
        E 0 9f 32 5a
        E 0 88 45 64
        E 0 8e 45 64
        E 0 98 45 64
        E 0 9e 45 64
        E 0 88 45 64
        E 0 8e 45 64
        E 0 98 45 64
        E 0 9e 45 64
        E 0 88 45 64
        E 0 8e 45 64
        E 0 8f 32 64
        E 0 98 49 64
        E 0 9e 49 64
        E 0 9f 37 5a
        E 0 88 49 64
        E 0 8e 49 64
        E 0 98 49 64
        E 0 9e 49 64
        E 0 88 49 64
        E 0 8e 49 64
        E 0 98 4c 64
        E 0 9e 4c 64
        E 0 88 4c 64
        E 0 8e 4c 64
        E 0 8f 37 64
        E 0 98 49 64
        E 0 9e 49 64
        E 0 9f 37 5a
        E 0 88 49 64
        E 0 8e 49 64
        E 0 98 49 64
        E 0 9e 49 64
        E 0 88 49 64
        E 0 8e 49 64
        E 0 98 49 64
        E 0 9e 49 64
        E 0 88 49 64
        E 0 8e 49 64
        E 0 98 4a 64
        E 0 9e 4a 64
        E 0 88 4a 64
        E 0 8e 4a 64
        E 0 8f 37 64
        E 0 98 45 64
        E 0 9e 45 64
        E 0 9f 35 5a
        E 38403 88 45 64
        E 0 8e 45 64
        E 0 98 45 64
        E 0 9e 45 64
        E 0 88 45 64
        E 0 8e 45 64
        E 0 98 4a 64
        E 0 9e 4a 64
        E 0 88 4a 64
        E 0 8e 4a 64
        E 0 98 4a 64
        E 0 9e 4a 64
        E 1 88 4a 64
        E 0 8e 4a 64
        E 0 98 4a 64
        E 0 9e 4a 64
        E 0 88 4a 64
        E 0 8e 4a 64
        E 0 8f 35 64
        E 0 98 47 64
        E 0 9e 47 64
        E 0 9f 35 5a
        E 0 88 47 64
        E 0 8e 47 64
        E 0 98 47 64
        E 0 9e 47 64
        E 0 88 47 64
        E 0 8e 47 64
        E 0 98 48 64
        E 0 9e 48 64
        E 0 88 48 64
        E 0 8e 48 64
        E 0 8f 35 64
        E 0 98 43 64
        E 0 9e 43 64
        E 0 9f 34 5a
        E 0 88 43 64
        E 0 8e 43 64
        E 0 98 43 64
        E 0 9e 43 64
        E 0 88 43 64
        E 0 8e 43 64
        E 0 8f 34 64
        E 0 98 4c 64
        E 0 9e 4c 64
        E 0 9f 34 5a
        E 0 88 4c 64
        E 0 8e 4c 64
        E 0 98 4a 64
        E 0 9e 4a 64
        E 0 88 4a 64
        E 0 8e 4a 64
        E 0 98 4c 64
        E 0 9e 4c 64
        E 0 88 4c 64
        E 0 8e 4c 64
        E 0 98 48 64
        E 0 9e 48 64
        E 0 88 48 64
        E 0 8e 48 64
        E 0 8f 34 64
        E 0 98 48 64
        E 0 9e 48 64
        E 0 9f 34 5a
        E 0 88 48 64
        E 0 8e 48 64
        E 0 98 4a 64
        E 0 9e 4a 64
        E 0 88 4a 64
        E 0 8e 4a 64
        E 0 98 4c 64
        E 1 9e 4c 64
        E 0 88 4c 64
        E 0 8e 4c 64
        E 0 8f 34 64
        E 0 98 46 64
        E 0 9e 46 64
        E 0 9f 36 5a
        E 0 88 46 64
        E 0 8e 46 64
        E 0 98 46 64
        E 0 9e 46 64
        E 0 88 46 64
        E 0 8e 46 64
        E 0 98 42 64
        E 0 9e 42 64
        E 0 88 42 64
        E 0 8e 42 64
        E 0 8f 36 64
        E 0 98 49 64
        E 0 9e 49 64
        E 0 9f 36 5a
        E 0 88 49 64
        E 0 8e 49 64
        E 0 98 4a 64
        E 0 9e 4a 64
        E 0 88 4a 64
        E 0 8e 4a 64
        E 0 8f 36 64
        E 0 98 47 64
        E 0 9e 47 64
        E 0 9f 32 5a
        E 0 88 47 64
        E 0 8e 47 64
        E 0 98 47 64
        E 0 9e 47 64
        E 0 88 47 64
        E 0 8e 47 64
        E 0 98 4e 64
        E 0 9e 4e 64
        E 0 88 4e 64
        E 0 8e 4e 64
        E 0 8f 32 64
        E 0 98 4a 64
        E 0 9e 4a 64
        E 0 9f 32 5a
        E 0 88 4a 64
        E 0 8e 4a 64
        E 0 98 49 64
        E 0 9e 49 64
        E 0 88 49 64
        E 0 8e 49 64
        E 0 98 47 64
        E 0 9e 47 64
        E 0 88 47 64
        E 0 8e 47 64
        E 0 98 45 64
        E 0 9e 45 64
        E 0 88 45 64
        E 0 8e 45 64
        E 0 8f 32 64
        E 0 98 43 64
        E 0 9e 43 64
        E 0 9f 34 5a
        E 0 88 43 64
        E 0 8e 43 64
        E 0 98 43 64
        E 0 9e 43 64
        E 0 88 43 64
        E 0 8e 43 64
        E 0 98 47 64
        E 0 9e 47 64
        E 0 88 47 64
        E 0 8e 47 64
        E 0 98 47 64
        E 0 9e 47 64
        E 0 88 47 64
        E 0 8e 47 64
        E 1 98 48 64
        E 0 9e 48 64
        E 0 88 48 64
        E 0 8e 48 64
        E 0 8f 34 64
        E 0 98 44 64
        E 0 9e 44 64
        E 0 9f 34 5a
        E 0 88 44 64
        E 0 8e 44 64
        E 0 98 4a 64
        E 0 9e 4a 64
        E 0 88 4a 64
        E 0 8e 4a 64
        E 0 8f 34 64
        E 0 98 47 64
        E 0 9e 47 64
        E 0 9f 36 5a
        E 0 88 47 64
        E 0 8e 47 64
        E 0 98 47 64
        E 0 9e 47 64
        E 0 88 47 64
        E 0 8e 47 64
        E 0 8f 36 64
        E 0 9f 2f 5a
        E 0 98 42 64
        E 0 9e 42 64
        E 0 88 42 64
        E 0 8e 42 64
        E 0 8f 2f 64
        E 0 98 47 64
        E 0 9e 47 64
        E 0 9f 2f 5a
        E 0 88 47 64
        E 0 8e 47 64
        E 0 98 47 64
        E 0 9e 47 64
        E 0 88 47 64
        E 0 8e 47 64
        E 38402 98 4a 64
        E 1 9e 4a 64
        E 0 88 4a 64
        E 0 8e 4a 64
        E 0 8f 2f 64
        E 0 98 49 64
        E 0 9e 49 64
        E 0 9f 35 59
        E 0 88 49 64
        E 0 8e 49 64
        E 0 98 49 64
        E 0 9e 49 64
        E 0 88 49 64
        E 0 8e 49 64
        E 0 8f 35 63
        E 0 98 44 64
        E 0 9e 44 64
        E 0 9f 35 59
        E 0 88 44 64
        E 0 8e 44 64
        E 0 98 45 64
        E 0 9e 45 64
        E 0 88 45 64
        E 0 8e 45 64
        E 0 98 47 64
        E 0 9e 47 64
        E 0 88 47 64
        E 0 8e 47 64
        E 0 98 47 64
        E 0 9e 47 64
        E 0 88 47 64
        E 0 8e 47 64
        E 0 98 45 64
        E 0 9e 45 64
        E 0 88 45 64
        E 0 8e 45 64
        E 0 8f 35 63
        E 0 98 42 64
        E 0 9e 42 64
        E 0 9f 36 5a
        E 0 88 42 64
        E 0 8e 42 64
        E 0 98 42 64
        E 0 9e 42 64
        E 0 88 42 64
        E 0 8e 42 64
        E 0 8f 36 64
        E 0 98 4a 64
        E 0 9e 4a 64
        E 0 9f 2f 5a
        E 0 88 4a 64
        E 0 8e 4a 64
        E 0 98 47 64
        E 1 9e 47 64
        E 0 88 47 64
        E 0 8e 47 64
        E 0 98 45 64
        E 0 9e 45 64
        E 0 88 45 64
        E 0 8e 45 64
        E 0 8f 2f 64
        E 0 98 42 64
        E 0 9e 42 64
        E 0 9f 31 5a
        E 0 88 42 64
        E 0 8e 42 64
        E 0 98 42 64
        E 0 9e 42 64
        E 0 88 42 64
        E 0 8e 42 64
        E 0 8f 31 64
        E 0 96 45 64
        E 0 9e 45 64
        E 0 9f 36 5a
        E 0 86 45 64
        E 0 8e 45 64
        E 0 8f 36 64
        E 0 9f 36 5a
        E 0 96 45 64
        E 0 9e 45 64
        E 0 86 45 64
        E 0 8e 45 64
        E 0 96 45 64
        E 0 9e 45 64
        E 0 86 45 64
        E 0 8e 45 64
        E 0 96 45 64
        E 0 9e 45 64
        E 0 86 45 64
        E 0 8e 45 64
        E 0 96 45 64
        E 0 9e 45 64
        E 0 86 45 64
        E 0 8e 45 64
        E 0 8f 36 64
        E 0 96 45 64
        E 0 9e 45 64
        E 0 9f 33 5a
        E 0 86 45 64
        E 0 8e 45 64
        E 0 96 45 64
        E 0 9e 45 64
        E 0 86 45 64
        E 0 8e 45 64
        E 0 96 48 64
        E 0 9e 48 64
        E 0 86 48 64
        E 0 8e 48 64
        E 0 96 48 64
        E 0 9e 48 64
        E 0 86 48 64
        E 0 8e 48 64
        E 0 8f 33 64
        E 1 96 45 64
        E 0 9e 45 64
        E 0 9f 33 5a
        E 0 86 45 64
        E 0 8e 45 64
        E 0 96 43 64
        E 0 9e 43 64
        E 0 86 43 64
        E 0 8e 43 64
        E 0 96 42 64
        E 0 9e 42 64
        E 0 86 42 64
        E 0 8e 42 64
        E 0 8f 33 64
        E 0 96 43 64
        E 0 9e 43 64
        E 0 9f 34 5a
        E 0 86 43 64
        E 0 8e 43 64
        E 0 96 43 64
        E 0 9e 43 64
        E 0 86 43 64
        E 0 8e 43 64
        E 0 8f 34 64
        E 0 9f 34 5a
        E 0 98 47 64
        E 0 9e 47 64
        E 0 88 47 64
        E 0 8e 47 64
        E 0 98 47 64
        E 0 9e 47 64
        E 0 88 47 64
        E 0 8e 47 64
        E 0 98 48 64
        E 0 9e 48 64
        E 0 88 48 64
        E 0 8e 48 64
        E 0 8f 34 64
        E 0 98 45 64
        E 0 9e 45 64
        E 0 9f 36 5a
        E 0 88 45 64
        E 0 8e 45 64
        E 0 98 45 64
        E 0 9e 45 64
        E 0 88 45 64
        E 0 8e 45 64
        E 0 8f 36 64
        E 0 98 45 64
        E 0 9e 45 64
        E 0 9f 36 5a
        E 0 88 45 64
        E 0 8e 45 64
        E 0 98 45 64
        E 0 9e 45 64
        E 0 88 45 64
        E 0 8e 45 64
        E 0 98 45 64
        E 0 9e 45 64
        E 0 88 45 64
        E 0 8e 45 64
        E 0 98 45 64
        E 0 9e 45 64
        E 0 88 45 64
        E 0 8e 45 64
        E 0 98 47 64
        E 0 9e 47 64
        E 0 88 47 64
        E 0 8e 47 64
        E 0 98 48 64
        E 0 9e 48 64
        E 0 88 48 64
        E 0 8e 48 64
        E 0 98 48 64
        E 0 9e 48 64
        E 0 88 48 64
        E 0 8e 48 64
        E 38403 8f 36 64
        E 0 98 4c 64
        E 0 9e 4c 64
        E 0 9f 36 5a
        E 0 88 4c 64
        E 0 8e 4c 64
        E 0 98 48 64
        E 0 9e 48 64
        E 0 88 48 64
        E 0 8e 48 64
        E 0 98 48 64
        E 0 9e 48 64
        E 0 88 48 64
        E 0 8e 48 64
        E 0 98 48 64
        E 0 9e 48 64
        E 0 88 48 64
        E 0 8e 48 64
        E 0 98 47 64
        E 0 9e 47 64
        E 0 88 47 64
        E 0 8e 47 64
        E 0 8f 36 64
        E 0 98 43 64
        E 0 9e 43 64
        E 0 9f 37 5a
        E 0 88 43 64
        E 0 8e 43 64
        E 0 98 43 64
        E 0 9e 43 64
        E 0 88 43 64
        E 0 8e 43 64
        E 0 98 43 64
        E 0 9e 43 64
        E 0 88 43 64
        E 0 8e 43 64
        E 1 98 43 64
        E 0 9e 43 64
        E 0 88 43 64
        E 0 8e 43 64
        E 0 8f 37 64
        E 0 98 48 64
        E 0 9e 48 64
        E 0 9f 34 5a
        E 0 88 48 64
        E 0 8e 48 64
        E 0 98 48 64
        E 0 9e 48 64
        E 0 88 48 64
        E 0 8e 48 64
        E 0 98 48 64
        E 0 9e 48 64
        E 0 88 48 64
        E 0 8e 48 64
        E 0 98 4a 64
        E 0 9e 4a 64
        E 0 88 4a 64
        E 0 8e 4a 64
        E 0 98 46 66
        E 0 9e 46 66
        E 0 88 46 66
        E 0 8e 46 66
        E 0 98 46 66
        E 0 9e 46 66
        E 0 88 46 66
        E 0 8e 46 66
        E 0 98 45 64
        E 0 9e 45 64
        E 0 88 45 64
        E 0 8e 45 64
        E 0 8f 34 64
        E 0 98 45 64
        E 0 9e 45 64
        E 0 9f 35 5a
        E 0 88 45 64
        E 0 8e 45 64
        E 0 98 45 64
        E 0 9e 45 64
        E 0 88 45 64
        E 0 8e 45 64
        E 0 98 4d 64
        E 0 9e 4d 64
        E 0 88 4d 64
        E 0 8e 4d 64
        E 0 98 47 64
        E 0 9e 47 64
        E 0 88 47 64
        E 0 8e 47 64
        E 0 98 48 64
        E 0 9e 48 64
        E 0 88 48 64
        E 0 8e 48 64
        E 0 8f 35 64
        E 0 98 43 64
        E 0 9e 43 64
        E 0 9f 37 5a
        E 0 88 43 64
        E 0 8e 43 64
        E 0 98 43 64
        E 0 9e 43 64
        E 0 88 43 64
        E 0 8e 43 64
        E 0 8f 37 64
        E 0 9f 30 5a
        E 0 8f 30 64
        E 0 9f 35 5a
        E 0 96 44 66
        E 0 9e 44 66
        E 0 86 44 66
        E 0 8e 44 66
        E 0 96 41 64
        E 0 9e 41 64
        E 0 86 41 64
        E 0 8e 41 64
        E 0 8f 35 64
        E 0 96 46 66
        E 0 9e 46 66
        E 0 9f 31 5b
        E 0 86 46 66
        E 0 8e 46 66
        E 0 96 46 66
        E 0 9e 46 66
        E 0 86 46 66
        E 0 8e 46 66
        E 0 96 41 64
        E 0 9e 41 64
        E 0 86 41 64
        E 0 8e 41 64
        E 0 8f 31 66
        E 0 96 43 64
        E 0 9e 43 64
        E 0 9f 30 5a
        E 1 86 43 64
        E 0 8e 43 64
        E 0 96 43 64
        E 0 9e 43 64
        E 0 86 43 64
        E 0 8e 43 64
        E 0 96 48 64
        E 0 9e 48 64
        E 0 86 48 64
        E 0 8e 48 64
        E 0 96 48 64
        E 0 9e 48 64
        E 0 86 48 64
        E 0 8e 48 64
        E 0 96 48 64
        E 0 9e 48 64
        E 0 86 48 64
        E 0 8e 48 64
        E 0 8f 30 64
        E 0 96 45 64
        E 0 9e 45 64
        E 0 9f 33 5b
        E 0 86 45 64
        E 0 8e 45 64
        E 0 96 45 64
        E 0 9e 45 64
        E 0 86 45 64
        E 0 8e 45 64
        E 0 8f 33 66
        E 0 96 45 64
        E 0 9e 45 64
        E 0 9f 33 5b
        E 0 86 45 64
        E 0 8e 45 64
        E 0 96 45 64
        E 0 9e 45 64
        E 0 86 45 64
        E 0 8e 45 64
        E 0 96 45 64
        E 0 9e 45 64
        E 0 86 45 64
        E 0 8e 45 64
        E 0 96 43 64
        E 0 9e 43 64
        E 0 86 43 64
        E 0 8e 43 64
        E 0 96 41 64
        E 0 9e 41 64
        E 0 86 41 64
        E 0 8e 41 64
        E 0 8f 33 66
        E 0 96 47 64
        E 0 9e 47 64
        E 0 9f 31 5b
        E 0 86 47 64
        E 0 8e 47 64
        E 0 96 47 64
        E 0 9e 47 64
        E 0 86 47 64
        E 0 8e 47 64
        E 0 96 47 64
        E 0 9e 47 64
        E 0 86 47 64
        E 0 8e 47 64
        E 1 96 48 64
        E 0 9e 48 64
        E 38403 86 48 64
        E 0 8e 48 64
        E 0 8f 31 66
        E 0 96 41 64
        E 0 9e 41 64
        E 0 9f 2c 5b
        E 0 86 41 64
        E 0 8e 41 64
        E 0 96 41 64
        E 0 9e 41 64
        E 0 86 41 64
        E 0 8e 41 64
        E 0 96 43 64
        E 0 9e 43 64
        E 0 86 43 64
        E 0 8e 43 64
        E 0 8f 2c 66
        E 0 96 43 64
        E 0 9e 43 64
        E 0 9f 2b 5a
        E 0 86 43 64
        E 0 8e 43 64
        E 0 96 43 64
        E 0 9e 43 64
        E 0 86 43 64
        E 0 8e 43 64
        E 0 96 47 64
        E 0 9e 47 64
        E 0 86 47 64
        E 0 8e 47 64
        E 0 96 43 64
        E 0 9e 43 64
        E 0 86 43 64
        E 0 8e 43 64
        E 0 96 43 64
        E 0 9e 43 64
        E 0 86 43 64
        E 0 8e 43 64
        E 0 96 4a 64
        E 0 9e 4a 64
        E 0 86 4a 64
        E 0 8e 4a 64
        E 1 8f 2b 64
        E 0 96 43 64
        E 0 9e 43 64
        E 0 9f 2e 5b
        E 0 86 43 64
        E 0 8e 43 64
        E 0 96 43 64
        E 0 9e 43 64
        E 0 86 43 64
        E 0 8e 43 64
        E 0 96 43 64
        E 0 9e 43 64
        E 0 86 43 64
        E 0 8e 43 64
        E 0 8f 2e 66
        E 0 96 48 64
        E 0 9e 48 64
        E 0 9f 33 5b
        E 0 86 48 64
        E 0 8e 48 64
        E 0 96 48 64
        E 0 9e 48 64
        E 0 86 48 64
        E 0 8e 48 64
        E 0 96 48 64
        E 0 9e 48 64
        E 0 86 48 64
        E 0 8e 48 64
        E 0 96 43 64
        E 0 9e 43 64
        E 0 86 43 64
        E 0 8e 43 64
        E 0 8f 33 66
        E 0 96 45 64
        E 0 9e 45 64
        E 0 9f 32 5a
        E 0 86 45 64
        E 0 8e 45 64
        E 0 96 45 64
        E 0 9e 45 64
        E 0 86 45 64
        E 0 8e 45 64
        E 0 96 3e 64
        E 0 9e 3e 64
        E 0 86 3e 64
        E 0 8e 3e 64
        E 0 96 42 64
        E 0 9e 42 64
        E 0 86 42 64
        E 0 8e 42 64
        E 0 96 43 64
        E 0 9e 43 64
        E 0 86 43 64
        E 0 8e 43 64
        E 0 96 45 64
        E 0 9e 45 64
        E 0 86 45 64
        E 0 8e 45 64
        E 0 96 45 64
        E 0 9e 45 64
        E 0 86 45 64
        E 0 8e 45 64
        E 0 96 48 64
        E 0 9e 48 64
        E 1 86 48 64
        E 0 8e 48 64
        E 0 96 46 66
        E 0 9e 46 66
        E 0 86 46 66
        E 0 8e 46 66
        E 0 96 45 64
        E 0 9e 45 64
        E 0 86 45 64
        E 0 8e 45 64
        E 0 8f 32 64
        E 0 96 46 66
        E 0 9e 46 66
        E 0 9f 37 5a
        E 0 86 46 66
        E 0 8e 46 66
        E 0 96 3e 64
        E 0 9e 3e 64
        E 0 86 3e 64
        E 0 8e 3e 64
        E 0 96 43 64
        E 0 9e 43 64
        E 0 86 43 64
        E 0 8e 43 64
        E 0 96 43 64
        E 0 9e 43 64
        E 0 86 43 64
        E 0 8e 43 64
        E 0 96 41 64
        E 0 9e 41 64
        E 0 86 41 64
        E 0 8e 41 64
        E 0 96 43 64
        E 0 9e 43 64
        E 0 86 43 64
        E 0 8e 43 64
        E 0 8f 37 64
        E 0 96 3f 66
        E 0 9e 3f 66
        E 0 9f 30 5a
        E 0 86 3f 66
        E 0 8e 3f 66
        E 0 96 3f 66
        E 0 9e 3f 66
        E 0 86 3f 66
        E 0 8e 3f 66
        E 0 96 43 64
        E 0 9e 43 64
        E 0 86 43 64
        E 0 8e 43 64
        E 0 96 43 64
        E 0 9e 43 64
        E 0 86 43 64
        E 0 8e 43 64
        E 0 96 48 64
        E 0 9e 48 64
        E 0 86 48 64
        E 0 8e 48 64
        E 0 96 48 64
        E 0 9e 48 64
        E 0 86 48 64
        E 0 8e 48 64
        E 0 96 46 66
        E 0 9e 46 66
        E 0 86 46 66
        E 0 8e 46 66
        E 0 8f 30 64
        E 0 96 43 64
        E 0 9e 43 64
        E 0 9f 32 5a
        E 0 86 43 64
        E 0 8e 43 64
        E 0 96 43 64
        E 1 9e 43 64
        E 0 86 43 64
        E 0 8e 43 64
        E 0 8f 32 64
        E 0 9f 2b 5a
        E 0 9c 32 64
        E 0 9e 32 64
        E 0 8c 32 64
        E 0 8e 32 64
        E 0 8f 2b 64
        E 0 9c 37 64
        E 0 9e 37 64
        E 0 9f 2b 5a
        E 0 8c 37 64
        E 0 8e 37 64
        E 0 96 46 66
        E 0 9e 46 66
        E 0 86 46 66
        E 0 8e 46 66
        E 0 96 46 66
        E 0 9e 46 66
        E 0 86 46 66
        E 0 8e 46 66
        E 0 96 45 64
        E 0 9e 45 64
        E 0 86 45 64
        E 0 8e 45 64
        E 0 8f 2b 64
        E 0 96 45 64
        E 0 9e 45 64
        E 0 9f 31 5a
        E 0 86 45 64
        E 0 8e 45 64
        E 0 96 45 64
        E 0 9e 45 64
        E 38403 86 45 64
        E 0 8e 45 64
        E 0 9c 34 64
        E 0 9e 34 64
        E 0 8c 34 64
        E 0 8e 34 64
        E 0 9c 39 64
        E 0 9e 39 64
        E 0 8c 39 64
        E 0 8e 39 64
        E 0 96 45 64
        E 0 9e 45 64
        E 0 86 45 64
        E 0 8e 45 64
        E 0 8f 31 64
        E 0 96 49 64
        E 0 9e 49 64
        E 0 9f 31 5a
        E 0 86 49 64
        E 0 8e 49 64
        E 0 96 49 64
        E 0 9e 49 64
        E 0 86 49 64
        E 0 8e 49 64
        E 0 96 45 64
        E 0 9e 45 64
        E 0 86 45 64
        E 0 8e 45 64
        E 0 96 45 64
        E 0 9e 45 64
        E 0 86 45 64
        E 0 8e 45 64
        E 0 96 45 64
        E 0 9e 45 64
        E 0 86 45 64
        E 0 8e 45 64
        E 0 96 45 64
        E 0 9e 45 64
        E 0 86 45 64
        E 0 8e 45 64
        E 0 96 46 66
        E 0 9e 46 66
        E 1 86 46 66
        E 0 8e 46 66
        E 0 8f 31 64
        E 0 96 43 64
        E 0 9e 43 64
        E 0 9f 2e 5b
        E 0 86 43 64
        E 0 8e 43 64
        E 0 96 43 64
        E 0 9e 43 64
        E 0 86 43 64
        E 0 8e 43 64
        E 0 8f 2e 66
        E 0 9f 33 5b
        E 0 96 48 64
        E 0 9e 48 64
        E 0 86 48 64
        E 0 8e 48 64
        E 0 96 48 64
        E 0 9e 48 64
        E 0 86 48 64
        E 0 8e 48 64
        E 0 96 43 64
        E 0 9e 43 64
        E 0 86 43 64
        E 0 8e 43 64
        E 0 8f 33 66
        E 0 96 45 64
        E 0 9e 45 64
        E 0 9f 32 5a
        E 0 86 45 64
        E 0 8e 45 64
        E 0 96 45 64
        E 0 9e 45 64
        E 0 86 45 64
        E 0 8e 45 64
        E 0 8f 32 64
        E 0 9c 3c 64
        E 0 9e 3c 64
        E 0 9f 32 5a
        E 0 8c 3c 64
        E 0 8e 3c 64
        E 0 9c 39 64
        E 0 9e 39 64
        E 0 8c 39 64
        E 0 8e 39 64
        E 0 9c 39 64
        E 0 9e 39 64
        E 0 8c 39 64
        E 0 8e 39 64
        E 0 9c 39 64
        E 0 9e 39 64
        E 1 8c 39 64
        E 0 8e 39 64
        E 0 9c 3b 64
        E 0 9e 3b 64
        E 0 8c 3b 64
        E 0 8e 3b 64
        E 0 8f 32 64
        E 0 9c 37 64
        E 0 9e 37 64
        E 0 9f 37 5a
        E 0 8c 37 64
        E 0 8e 37 64
        E 0 9c 37 64
        E 0 9e 37 64
        E 0 8c 37 64
        E 0 8e 37 64
        E 0 96 47 64
        E 0 9e 47 64
        E 0 86 47 64
        E 0 8e 47 64
        E 0 96 45 64
        E 0 9e 45 64
        E 0 86 45 64
        E 0 8e 45 64
        E 0 96 43 64
        E 0 9e 43 64
        E 0 86 43 64
        E 0 8e 43 64
        E 0 8f 37 64
        E 0 96 48 64
        E 0 9e 48 64
        E 0 9f 34 5a
        E 0 86 48 64
        E 0 8e 48 64
        E 0 9c 37 64
        E 0 9e 37 64
        E 0 8c 37 64
        E 0 8e 37 64
        E 0 9c 37 64
        E 0 9e 37 64
        E 0 8c 37 64
        E 0 8e 37 64
        E 0 9c 37 64
        E 0 9e 37 64
        E 0 8c 37 64
        E 0 8e 37 64
        E 0 9c 37 64
        E 0 9e 37 64
        E 0 8c 37 64
        E 0 8e 37 64
        E 1 9c 39 64
        E 0 9e 39 64
        E 0 8c 39 64
        E 0 8e 39 64
        E 0 8f 34 64
        E 0 9c 3a 66
        E 0 9e 3a 66
        E 0 9f 34 5a
        E 0 8c 3a 66
        E 0 8e 3a 66
        E 0 9c 3a 66
        E 0 9e 3a 66
        E 0 8c 3a 66
        E 0 8e 3a 66
        E 0 9c 3a 66
        E 0 9e 3a 66
        E 0 8c 3a 66
        E 0 8e 3a 66
        E 0 9c 3a 66
        E 0 9e 3a 66
        E 0 8c 3a 66
        E 0 8e 3a 66
        E 0 9c 3a 66
        E 0 9e 3a 66
        E 0 8c 3a 66
        E 0 8e 3a 66
        E 0 9c 3a 66
        E 0 9e 3a 66
        E 0 8c 3a 66
        E 0 8e 3a 66
        E 0 9c 39 64
        E 0 9e 39 64
        E 0 8c 39 64
        E 0 8e 39 64
        E 0 8f 34 64
        E 0 9c 35 64
        E 0 9e 35 64
        E 0 9f 35 5a
        E 0 8c 35 64
        E 0 8e 35 64
        E 0 9c 35 64
        E 0 9e 35 64
        E 0 8c 35 64
        E 0 8e 35 64
        E 0 9c 3c 64
        E 0 9e 3c 64
        E 0 8c 3c 64
        E 0 8e 3c 64
        E 0 9c 3c 64
        E 0 9e 3c 64
        E 0 8c 3c 64
        E 0 8e 3c 64
        E 0 9c 3c 64
        E 0 9e 3c 64
        E 0 8c 3c 64
        E 0 8e 3c 64
        E 0 9c 39 64
        E 1 9e 39 64
        E 0 8c 39 64
        E 0 8e 39 64
        E 0 9c 39 64
        E 0 9e 39 64
        E 0 8c 39 64
        E 0 8e 39 64
        E 38403 9c 39 64
        E 0 9e 39 64
        E 0 8c 39 64
        E 0 8e 39 64
        E 0 8f 35 64
        E 0 9c 39 64
        E 0 9e 39 64
        E 0 9f 35 5a
        E 0 8c 39 64
        E 0 8e 39 64
        E 0 9c 39 64
        E 0 9e 39 64
        E 0 8c 39 64
        E 0 8e 39 64
        E 0 9c 3a 66
        E 0 9e 3a 66
        E 0 8c 3a 66
        E 0 8e 3a 66
        E 0 9c 3c 64
        E 0 9e 3c 64
        E 0 8c 3c 64
        E 0 8e 3c 64
        E 0 8f 35 64
        E 0 9c 3e 64
        E 0 9e 3e 64
        E 0 9f 2e 5b
        E 0 8c 3e 64
        E 0 8e 3e 64
        E 0 9c 3e 64
        E 0 9e 3e 64
        E 0 8c 3e 64
        E 0 8e 3e 64
        E 0 9c 3e 64
        E 0 9e 3e 64
        E 0 8c 3e 64
        E 0 8e 3e 64
        E 0 9c 3a 66
        E 0 9e 3a 66
        E 0 8c 3a 66
        E 0 8e 3a 66
        E 0 9c 39 64
        E 0 9e 39 64
        E 0 8c 39 64
        E 0 8e 39 64
        E 0 8f 2e 66
        E 0 9c 35 64
        E 0 9e 35 64
        E 0 9f 30 5a
        E 0 8c 35 64
        E 0 8e 35 64
        E 0 9c 35 64
        E 0 9e 35 64
        E 0 8c 35 64
        E 0 8e 35 64
        E 0 8f 30 64
        E 0 9f 35 5a
        E 0 96 45 64
        E 0 9e 45 64
        E 0 86 45 64
        E 0 8e 45 64
        E 0 96 45 64
        E 0 9e 45 64
        E 0 86 45 64
        E 0 8e 45 64
        E 1 96 44 64
        E 0 9e 44 64
        E 0 86 44 64
        E 0 8e 44 64
        E 0 8f 35 64
        E 0 96 47 64
        E 0 9e 47 64
        E 0 9f 34 5a
        E 0 86 47 64
        E 0 8e 47 64
        E 0 96 47 64
        E 0 9e 47 64
        E 0 86 47 64
        E 0 8e 47 64
        E 0 9c 34 64
        E 0 9e 34 64
        E 0 8c 34 64
        E 0 8e 34 64
        E 0 8f 34 64
        E 0 9c 38 64
        E 0 9e 38 64
        E 0 9f 34 5a
        E 0 8c 38 64
        E 0 8e 38 64
        E 0 9c 38 64
        E 0 9e 38 64
        E 0 8c 38 64
        E 0 8e 38 64
        E 0 9c 39 64
        E 0 9e 39 64
        E 0 8c 39 64
        E 0 8e 39 64
        E 0 9c 3b 64
        E 0 9e 3b 64
        E 0 8c 3b 64
        E 0 8e 3b 64
        E 0 8f 34 64
        E 0 9c 3c 64
        E 0 9e 3c 64
        E 0 9f 2d 5a
        E 0 8c 3c 64
        E 0 8e 3c 64
        E 0 9c 3c 64
        E 0 9e 3c 64
        E 0 8c 3c 64
        E 0 8e 3c 64
        E 0 8f 2d 64
        E 0 9c 39 64
        E 0 9e 39 64
        E 0 9f 2d 5a
        E 0 8c 39 64
        E 0 8e 39 64
        E 0 9c 39 64
        E 0 9e 39 64
        E 0 8c 39 64
        E 0 8e 39 64
        E 0 9c 37 64
        E 0 9e 37 64
        E 0 8c 37 64
        E 0 8e 37 64
        E 0 9c 39 64
        E 0 9e 39 64
        E 0 8c 39 64
        E 0 8e 39 64
        E 0 8f 2d 64
        E 0 9c 35 64
        E 0 9e 35 64
        E 0 9f 32 5a
        E 0 8c 35 64
        E 0 8e 35 64
        E 0 9c 35 64
        E 0 9e 35 64
        E 0 8c 35 64
        E 0 8e 35 64
        E 0 9c 3e 64
        E 0 9e 3e 64
        E 0 8c 3e 64
        E 0 8e 3e 64
        E 0 9c 3e 64
        E 0 9e 3e 64
        E 0 8c 3e 64
        E 0 8e 3e 64
        E 0 8f 32 64
        E 0 9c 38 64
        E 0 9e 38 64
        E 0 9f 32 5a
        E 0 8c 38 64
        E 0 8e 38 64
        E 0 9c 38 64
        E 0 9e 38 64
        E 0 8c 38 64
        E 0 8e 38 64
        E 0 9c 39 64
        E 0 9e 39 64
        E 0 8c 39 64
        E 0 8e 39 64
        E 0 8f 32 64
        E 0 9c 34 64
        E 0 9e 34 64
        E 1 9f 34 5a
        E 0 8c 34 64
        E 0 8e 34 64
        E 0 8f 34 64
        E 0 96 48 64
        E 0 9e 48 64
        E 0 9f 2d 5a
        E 0 86 48 64
        E 0 8e 48 64
        E 0 96 45 64
        E 0 9e 45 64
        E 0 86 45 64
        E 0 8e 45 64
        E 0 8f 2d 64
        E 0 9f 2d 5a
        E 0 96 40 64
        E 0 9e 40 64
        E 0 86 40 64
        E 0 8e 40 64
        E 0 96 40 64
        E 0 9e 40 64
        E 0 86 40 64
        E 0 8e 40 64
        E 0 96 45 64
        E 0 9e 45 64
        E 0 86 45 64
        E 0 8e 45 64
        E 0 96 45 64
        E 0 9e 45 64
        E 0 86 45 64
        E 0 8e 45 64
        E 0 96 45 64
        E 0 9e 45 64
        E 0 86 45 64
        E 0 8e 45 64
        E 0 96 46 66
        E 0 9e 46 66
        E 0 86 46 66
        E 0 8e 46 66
        E 0 8f 2d 64
        E 0 96 46 66
        E 0 9e 46 66
        E 0 9f 32 5a
        E 0 86 46 66
        E 0 8e 46 66
        E 0 96 46 66
        E 0 9e 46 66
        E 0 86 46 66
        E 0 8e 46 66
        E 0 96 46 66
        E 0 9e 46 66
        E 0 86 46 66
        E 0 8e 46 66
        E 0 9c 35 64
        E 0 9e 35 64
        E 0 8c 35 64
        E 0 8e 35 64
        E 0 8f 32 64
        E 0 9c 32 64
        E 0 9e 32 64
        E 0 9f 32 5a
        E 0 8c 32 64
        E 0 8e 32 64
        E 38403 9c 3a 66
        E 0 9e 3a 66
        E 0 8c 3a 66
        E 0 8e 3a 66
        E 0 9c 35 64
        E 0 9e 35 64
        E 0 8c 35 64
        E 0 8e 35 64
        E 0 9c 35 64
        E 0 9e 35 64
        E 0 8c 35 64
        E 0 8e 35 64
        E 0 9c 35 64
        E 0 9e 35 64
        E 0 8c 35 64
        E 0 8e 35 64
        E 0 8f 32 64
        E 1 9c 38 66
        E 0 9e 38 66
        E 0 9f 32 5a
        E 0 8c 38 66
        E 0 8e 38 66
        E 0 9c 38 66
        E 0 9e 38 66
        E 0 8c 38 66
        E 0 8e 38 66
        E 0 9c 38 66
        E 0 9e 38 66
        E 0 8c 38 66
        E 0 8e 38 66
        E 0 9c 37 64
        E 0 9e 37 64
        E 0 8c 37 64
        E 0 8e 37 64
        E 0 8f 32 64
        E 0 9c 33 66
        E 0 9e 33 66
        E 0 9f 33 5b
        E 0 8c 33 66
        E 0 8e 33 66
        E 0 9c 3a 66
        E 0 9e 3a 66
        E 0 8c 3a 66
        E 0 8e 3a 66
        E 0 9c 3a 66
        E 0 9e 3a 66
        E 0 8c 3a 66
        E 0 8e 3a 66
        E 0 8f 33 66
        E 0 9c 37 64
        E 0 9e 37 64
        E 0 9f 33 5b
        E 0 8c 37 64
        E 0 8e 37 64
        E 0 9c 37 64
        E 0 9e 37 64
        E 0 8c 37 64
        E 0 8e 37 64
        E 0 9c 3a 66
        E 0 9e 3a 66
        E 0 8c 3a 66
        E 0 8e 3a 66
        E 0 9c 39 64
        E 0 9e 39 64
        E 0 8c 39 64
        E 0 8e 39 64
        E 0 9c 3a 66
        E 0 9e 3a 66
        E 0 8c 3a 66
        E 0 8e 3a 66
        E 0 8f 33 66
        E 0 9c 35 64
        E 0 9e 35 64
        E 0 9f 35 5a
        E 0 8c 35 64
        E 0 8e 35 64
        E 0 9c 35 64
        E 0 9e 35 64
        E 0 8c 35 64
        E 0 8e 35 64
        E 0 8f 35 64
        E 0 9f 2e 5b
        E 0 8f 2e 66
        E 1 9f 30 5a
        E 0 96 43 64
        E 0 9e 43 64
        E 0 86 43 64
        E 0 8e 43 64
        E 0 96 43 64
        E 0 9e 43 64
        E 0 86 43 64
        E 0 8e 43 64
        E 0 96 43 64
        E 0 9e 43 64
        E 0 86 43 64
        E 0 8e 43 64
        E 0 96 40 64
        E 0 9e 40 64
        E 0 86 40 64
        E 0 8e 40 64
        E 0 96 40 64
        E 0 9e 40 64
        E 0 86 40 64
        E 0 8e 40 64
        E 0 96 48 64
        E 0 9e 48 64
        E 0 8f 30 64
        E 0 86 48 64
        E 0 8e 48 64
        E 0 9f 30 5a
        E 0 96 43 64
        E 0 9e 43 64
        E 0 86 43 64
        E 0 8e 43 64
        E 0 96 43 64
        E 0 9e 43 64
        E 0 86 43 64
        E 0 8e 43 64
        E 0 96 43 64
        E 0 9e 43 64
        E 0 86 43 64
        E 0 8e 43 64
        E 0 96 46 66
        E 0 9e 46 66
        E 0 86 46 66
        E 0 8e 46 66
        E 0 96 46 66
        E 0 9e 46 66
        E 0 86 46 66
        E 0 8e 46 66
        E 0 96 46 66
        E 0 9e 46 66
        E 0 86 46 66
        E 0 8e 46 66
        E 0 96 45 64
        E 0 9e 45 64
        E 0 86 45 64
        E 0 8e 45 64
        E 0 8f 30 64
        E 0 96 41 64
        E 0 9e 41 64
        E 0 9f 35 5a
        E 0 86 41 64
        E 0 8e 41 64
        E 1 96 45 64
        E 0 9e 45 64
        E 0 86 45 64
        E 0 8e 45 64
        E 0 96 45 64
        E 0 9e 45 64
        E 0 86 45 64
        E 0 8e 45 64
        E 0 96 44 64
        E 0 9e 44 64
        E 0 86 44 64
        E 0 8e 44 64
        E 0 8f 35 64
        E 0 96 47 64
        E 0 9e 47 64
        E 0 9f 34 5a
        E 0 86 47 64
        E 0 8e 47 64
        E 0 96 47 64
        E 0 9e 47 64
        E 0 86 47 64
        E 0 8e 47 64
        E 0 96 40 64
        E 0 9e 40 64
        E 0 86 40 64
        E 0 8e 40 64
        E 0 8f 34 64
        E 0 96 45 64
        E 0 9e 45 64
        E 0 9f 30 5a
        E 0 86 45 64
        E 0 8e 45 64
        E 0 96 48 64
        E 0 9e 48 64
        E 0 86 48 64
        E 0 8e 48 64
        E 0 96 45 64
        E 0 9e 45 64
        E 0 86 45 64
        E 0 8e 45 64
        E 0 96 40 64
        E 0 9e 40 64
        E 0 86 40 64
        E 0 8e 40 64
        E 0 8f 30 64
        E 0 96 42 64
        E 0 9e 42 64
        E 0 9f 2f 5a
        E 38402 86 42 64
        E 0 8e 42 64
        E 0 96 42 64
        E 0 9e 42 64
        E 0 86 42 64
        E 0 8e 42 64
        E 0 96 47 64
        E 0 9e 47 64
        E 0 86 47 64
        E 0 8e 47 64
        E 0 96 45 64
        E 0 9e 45 64
        E 0 86 45 64
        E 0 8e 45 64
        E 0 96 47 64
        E 0 9e 47 64
        E 0 86 47 64
        E 0 8e 47 64
        E 0 8f 2f 64
        E 1 96 43 64
        E 0 9e 43 64
        E 0 9f 34 5a
        E 0 86 43 64
        E 0 8e 43 64
        E 0 96 43 64
        E 0 9e 43 64
        E 0 86 43 64
        E 0 8e 43 64
        E 0 96 40 64
        E 0 9e 40 64
        E 0 86 40 64
        E 0 8e 40 64
        E 0 8f 34 64
        E 0 96 46 64
        E 0 9e 46 64
        E 0 9f 34 5a
        E 0 86 46 64
        E 0 8e 46 64
        E 0 96 46 64
        E 0 9e 46 64
        E 0 86 46 64
        E 0 8e 46 64
        E 0 96 46 64
        E 0 9e 46 64
        E 0 86 46 64
        E 0 8e 46 64
        E 0 96 47 64
        E 0 9e 47 64
        E 0 86 47 64
        E 0 8e 47 64
        E 0 8f 34 64
        E 0 96 42 64
        E 0 9e 42 64
        E 0 9f 36 5a
        E 0 86 42 64
        E 0 8e 42 64
        E 0 96 42 64
        E 0 9e 42 64
        E 0 86 42 64
        E 1 8e 42 64
        E 0 8f 36 64
        E 0 9f 2f 5a
        E 0 96 47 64
        E 0 9e 47 64
        E 0 86 47 64
        E 0 8e 47 64
        E 0 96 47 64
        E 0 9e 47 64
        E 0 86 47 64
        E 0 8e 47 64
        E 0 96 45 64
        E 0 9e 45 64
        E 0 86 45 64
        E 0 8e 45 64
        E 0 8f 2f 64
        E 0 96 45 64
        E 0 9e 45 64
        E 0 9f 31 5a
        E 0 86 45 64
        E 0 8e 45 64
        E 0 96 45 64
        E 0 9e 45 64
        E 0 86 45 64
        E 0 8e 45 64
        E 0 96 45 64
        E 0 9e 45 64
        E 0 86 45 64
        E 0 8e 45 64
        E 0 96 45 64
        E 0 9e 45 64
        E 0 86 45 64
        E 0 8e 45 64
        E 0 96 47 64
        E 0 9e 47 64
        E 0 86 47 64
        E 0 8e 47 64
        E 1 96 43 64
        E 0 9e 43 64
        E 0 86 43 64
        E 0 8e 43 64
        E 0 96 43 64
        E 0 9e 43 64
        E 0 86 43 64
        E 0 8e 43 64
        E 0 96 43 64
        E 0 9e 43 64
        E 0 86 43 64
        E 0 8e 43 64
        E 0 96 42 64
        E 0 9e 42 64
        E 0 86 42 64
        E 0 8e 42 64
        E 0 8f 31 64
        E 0 96 3e 64
        E 0 9e 3e 64
        E 0 9f 32 5a
        E 0 86 3e 64
        E 0 8e 3e 64
        E 0 96 45 64
        E 0 9e 45 64
        E 0 86 45 64
        E 0 8e 45 64
        E 0 96 42 64
        E 0 9e 42 64
        E 0 86 42 64
        E 0 8e 42 64
        E 0 96 42 64
        E 0 9e 42 64
        E 0 86 42 64
        E 0 8e 42 64
        E 0 8f 32 64
        E 0 96 48 64
        E 0 9e 48 64
        E 0 9f 32 5a
        E 0 86 48 64
        E 0 8e 48 64
        E 0 96 48 64
        E 0 9e 48 64
        E 0 86 48 64
        E 0 8e 48 64
        E 0 96 48 64
        E 0 9e 48 64
        E 0 86 48 64
        E 0 8e 48 64
        E 0 96 48 64
        E 0 9e 48 64
        E 0 86 48 64
        E 0 8e 48 64
        E 0 96 47 64
        E 0 9e 47 64
        E 0 86 47 64
        E 0 8e 47 64
        E 0 8f 32 64
        E 0 96 43 64
        E 0 9e 43 64
        E 0 9f 37 5a
        E 0 86 43 64
        E 0 8e 43 64
        E 0 96 43 64
        E 0 9e 43 64
        E 0 86 43 64
        E 0 8e 43 64
        E 0 8f 37 64
        E 0 96 47 64
        E 0 9e 47 64
        E 0 9f 37 5a
        E 0 86 47 64
        E 0 8e 47 64
        E 0 96 47 64
        E 0 9e 47 64
        E 0 86 47 64
        E 0 8e 47 64
        E 0 96 48 64
        E 0 9e 48 64
        E 0 86 48 64
        E 0 8e 48 64
        E 0 8f 37 64
        E 0 96 45 64
        E 0 9e 45 64
        E 0 9f 35 5a
        E 0 86 45 64
        E 0 8e 45 64
        E 0 96 45 64
        E 0 9e 45 64
        E 0 86 45 64
        E 0 8e 45 64
        E 0 8f 35 64
        E 0 96 45 64
        E 0 9e 45 64
        E 0 9f 35 5a
        E 0 86 45 64
        E 0 8e 45 64
        E 0 96 45 64
        E 0 9e 45 64
        E 0 86 45 64
        E 0 8e 45 64
        E 0 96 44 64
        E 1 9e 44 64
        E 0 86 44 64
        E 0 8e 44 64
        E 0 8f 35 64
        E 0 96 47 64
        E 0 9e 47 64
        E 0 9f 34 5a
        E 38403 86 47 64
        E 0 8e 47 64
        E 0 96 44 64
        E 0 9e 44 64
        E 0 86 44 64
        E 0 8e 44 64
        E 0 96 42 64
        E 0 9e 42 64
        E 0 86 42 64
        E 0 8e 42 64
        E 0 96 40 64
        E 0 9e 40 64
        E 0 86 40 64
        E 0 8e 40 64
        E 0 8f 34 64
        E 0 96 45 64
        E 0 9e 45 64
        E 0 9f 30 5a
        E 0 86 45 64
        E 0 8e 45 64
        E 0 96 45 64
        E 0 9e 45 64
        E 0 86 45 64
        E 0 8e 45 64
        E 0 96 45 64
        E 0 9e 45 64
        E 0 86 45 64
        E 0 8e 45 64
        E 0 8f 30 64
        E 0 96 3f 64
        E 0 9e 3f 64
        E 0 9f 2d 5a
        E 0 86 3f 64
        E 0 8e 3f 64
        E 1 96 3f 64
        E 0 9e 3f 64
        E 0 86 3f 64
        E 0 8e 3f 64
        E 0 96 48 64
        E 0 9e 48 64
        E 0 86 48 64
        E 0 8e 48 64
        E 0 8f 2d 64
        E 0 96 45 64
        E 0 9e 45 64
        E 0 9f 2d 5a
        E 0 86 45 64
        E 0 8e 45 64
        E 0 96 45 64
        E 0 9e 45 64
        E 0 86 45 64
        E 0 8e 45 64
        E 0 96 45 64
        E 0 9e 45 64
        E 0 86 45 64
        E 0 8e 45 64
        E 0 96 43 64
        E 0 9e 43 64
        E 0 86 43 64
        E 0 8e 43 64
        E 0 8f 2d 64
        E 0 96 40 64
        E 0 9e 40 64
        E 0 9f 2f 5a
        E 0 86 40 64
        E 0 8e 40 64
        E 0 96 40 64
        E 0 9e 40 64
        E 0 86 40 64
        E 0 8e 40 64
        E 0 8f 2f 64
        E 0 9f 34 5a
        E 0 8f 34 64
        E 0 96 48 64
        E 0 9e 48 64
        E 0 9f 34 5a
        E 0 86 48 64
        E 0 8e 48 64
        E 0 96 48 64
        E 0 9e 48 64
        E 0 86 48 64
        E 0 8e 48 64
        E 0 96 47 64
        E 0 9e 47 64
        E 0 86 47 64
        E 0 8e 47 64
        E 0 96 46 64
        E 0 9e 46 64
        E 0 86 46 64
        E 0 8e 46 64
        E 0 96 46 64
        E 0 9e 46 64
        E 0 86 46 64
        E 0 8e 46 64
        E 0 8f 34 64
        E 0 96 46 64
        E 1 9e 46 64
        E 0 9f 34 5a
        E 0 86 46 64
        E 0 8e 46 64
        E 0 96 46 64
        E 0 9e 46 64
        E 0 86 46 64
        E 0 8e 46 64
        E 0 96 46 64
        E 0 9e 46 64
        E 0 86 46 64
        E 0 8e 46 64
        E 0 96 47 64
        E 0 9e 47 64
        E 0 86 47 64
        E 0 8e 47 64
        E 0 96 49 64
        E 0 9e 49 64
        E 0 86 49 64
        E 0 8e 49 64
        E 0 8f 34 64
        E 0 96 42 64
        E 0 9e 42 64
        E 0 9f 2a 5a
        E 0 86 42 64
        E 0 8e 42 64
        E 0 96 42 64
        E 0 9e 42 64
        E 0 86 42 64
        E 0 8e 42 64
        E 0 96 42 64
        E 0 9e 42 64
        E 0 86 42 64
        E 0 8e 42 64
        E 0 96 40 64
        E 0 9e 40 64
        E 0 86 40 64
        E 0 8e 40 64
        E 0 96 42 64
        E 0 9e 42 64
        E 0 86 42 64
        E 0 8e 42 64
        E 0 8f 2a 64
        E 0 96 3e 64
        E 0 9e 3e 64
        E 0 9f 2f 5a
        E 0 86 3e 64
        E 0 8e 3e 64
        E 0 96 3e 64
        E 0 9e 3e 64
        E 0 86 3e 64
        E 0 8e 3e 64
        E 0 8f 2f 64
        E 0 9f 32 5a
        E 0 96 47 64
        E 0 9e 47 64
        E 0 86 47 64
        E 0 8e 47 64
        E 0 96 47 64
        E 1 9e 47 64
        E 0 86 47 64
        E 0 8e 47 64
        E 0 96 42 64
        E 0 9e 42 64
        E 0 86 42 64
        E 0 8e 42 64
        E 0 8f 32 64
        E 0 96 44 64
        E 0 9e 44 64
        E 0 9f 31 5a
        E 0 86 44 64
        E 0 8e 44 64
        E 0 96 44 64
        E 0 9e 44 64
        E 0 86 44 64
        E 0 8e 44 64
        E 0 96 49 64
        E 0 9e 49 64
        E 0 86 49 64
        E 0 8e 49 64
        E 0 8f 31 64
        E 0 96 44 64
        E 0 9e 44 64
        E 0 9f 31 5a
        E 0 86 44 64
        E 0 8e 44 64
        E 0 96 44 64
        E 0 9e 44 64
        E 0 86 44 64
        E 0 8e 44 64
        E 0 96 44 64
        E 0 9e 44 64
        E 0 86 44 64
        E 0 8e 44 64
        E 0 96 44 64
        E 0 9e 44 64
        E 0 86 44 64
        E 0 8e 44 64
        E 0 96 44 64
        E 0 9e 44 64
        E 0 86 44 64
        E 0 8e 44 64
        E 0 96 44 64
        E 0 9e 44 64
        E 0 86 44 64
        E 0 8e 44 64
        E 0 96 45 64
        E 0 9e 45 64
        E 0 86 45 64
        E 0 8e 45 64
        E 0 8f 31 64
        E 0 96 47 64
        E 0 9e 47 64
        E 0 9f 31 5a
        E 0 86 47 64
        E 0 8e 47 64
        E 0 96 47 64
        E 0 9e 47 64
        E 0 86 47 64
        E 0 8e 47 64
        E 38403 96 47 64
        E 0 9e 47 64
        E 0 86 47 64
        E 0 8e 47 64
        E 0 96 47 64
        E 0 9e 47 64
        E 0 86 47 64
        E 0 8e 47 64
        E 0 96 47 64
        E 0 9e 47 64
        E 0 86 47 64
        E 0 8e 47 64
        E 0 96 47 64
        E 0 9e 47 64
        E 0 86 47 64
        E 0 8e 47 64
        E 0 96 49 64
        E 0 9e 49 64
        E 0 86 49 64
        E 0 8e 49 64
        E 0 8f 31 64
        E 0 96 45 64
        E 1 9e 45 64
        E 0 9f 36 5a
        E 0 86 45 64
        E 0 8e 45 64
        E 0 96 45 64
        E 0 9e 45 64
        E 0 86 45 64
        E 0 8e 45 64
        E 0 8f 36 64
        E 0 96 40 64
        E 0 9e 40 64
        E 0 9f 31 5a
        E 0 86 40 64
        E 0 8e 40 64
        E 0 96 40 64
        E 0 9e 40 64
        E 0 86 40 64
        E 0 8e 40 64
        E 0 96 45 64
        E 0 9e 45 64
        E 0 86 45 64
        E 0 8e 45 64
        E 0 8f 31 64
        E 0 96 42 64
        E 0 9e 42 64
        E 0 9f 32 5a
        E 0 86 42 64
        E 0 8e 42 64
        E 0 96 42 64
        E 0 9e 42 64
        E 0 86 42 64
        E 0 8e 42 64
        E 0 96 48 64
        E 0 9e 48 64
        E 0 86 48 64
        E 0 8e 48 64
        E 0 96 45 64
        E 0 9e 45 64
        E 0 86 45 64
        E 0 8e 45 64
        E 0 96 45 64
        E 0 9e 45 64
        E 0 86 45 64
        E 0 8e 45 64
        E 0 96 45 64
        E 0 9e 45 64
        E 0 86 45 64
        E 0 8e 45 64
        E 0 96 47 64
        E 0 9e 47 64
        E 0 86 47 64
        E 0 8e 47 64
        E 0 8f 32 64
        E 0 96 43 64
        E 0 9e 43 64
        E 0 9f 37 5a
        E 0 86 43 64
        E 0 8e 43 64
        E 0 96 43 64
        E 1 9e 43 64
        E 0 86 43 64
        E 0 8e 43 64
        E 0 8f 37 64
        E 0 9f 34 5a
        E 0 96 48 64
        E 0 9e 48 64
        E 0 86 48 64
        E 0 8e 48 64
        E 0 96 46 66
        E 0 9e 46 66
        E 0 86 46 66
        E 0 8e 46 66
        E 0 96 48 64
        E 0 9e 48 64
        E 0 86 48 64
        E 0 8e 48 64
        E 0 8f 34 64
        E 0 96 45 64
        E 0 9e 45 64
        E 0 9f 35 5a
        E 0 86 45 64
        E 0 8e 45 64
        E 0 96 45 64
        E 0 9e 45 64
        E 0 86 45 64
        E 0 8e 45 64
        E 0 8f 35 64
        E 0 96 48 64
        E 0 9e 48 64
        E 0 9f 36 5a
        E 0 86 48 64
        E 0 8e 48 64
        E 0 96 48 64
        E 0 9e 48 64
        E 0 86 48 64
        E 0 8e 48 64
        E 0 96 48 64
        E 0 9e 48 64
        E 0 86 48 64
        E 0 8e 48 64
        E 0 96 47 64
        E 0 9e 47 64
        E 0 86 47 64
        E 0 8e 47 64
        E 0 96 48 64
        E 0 9e 48 64
        E 0 86 48 64
        E 0 8e 48 64
        E 0 8f 36 64
        E 0 96 43 64
        E 0 9e 43 64
        E 0 9f 37 5a
        E 0 86 43 64
        E 0 8e 43 64
        E 0 96 43 64
        E 0 9e 43 64
        E 0 86 43 64
        E 0 8e 43 64
        E 0 8f 37 64
        E 0 9f 30 5a
        E 0 8f 30 64
        E 0 92 3f 66
        E 0 93 3c 5a
        E 0 9f 30 5a
        E 0 92 43 64
        E 0 82 3f 66
        E 0 92 48 64
        E 0 82 43 64
        E 0 83 3c 64
        E 0 8f 30 64
        E 0 92 3f 66
        E 0 93 3c 5a
        E 0 9f 30 5a
        E 0 82 48 64
        E 0 92 43 64
        E 0 82 3f 66
        E 0 92 48 64
        E 0 82 43 64
        E 0 83 3c 64
        E 0 8f 30 64
        E 0 92 3f 66
        E 0 93 3c 5a
        E 1 9f 30 5a
        E 0 82 48 64
        E 0 92 43 64
        E 0 82 3f 66
        E 0 92 48 64
        E 0 82 43 64
        E 0 83 3c 64
        E 0 8f 30 64
        E 0 92 3f 66
        E 0 93 3c 5a
        E 0 9f 30 5a
        E 0 82 48 64
        E 0 92 43 64
        E 0 82 3f 66
        E 0 92 48 64
        E 0 82 43 64
        E 0 83 3c 64
        E 0 8f 30 64
        E 0 92 41 64
        E 0 93 41 5a
        E 0 9f 35 5a
        E 0 82 48 64
        E 0 92 44 66
        E 0 82 41 64
        E 0 92 48 64
        E 0 82 44 66
        E 0 83 41 64
        E 0 8f 35 64
        E 0 92 41 64
        E 0 93 41 5a
        E 0 9f 35 5a
        E 0 82 48 64
        E 0 92 44 66
        E 0 82 41 64
        E 0 92 48 64
        E 0 82 44 66
        E 0 83 41 64
        E 0 8f 35 64
        E 0 92 41 64
        E 0 93 41 5a
        E 0 9f 35 5a
        E 0 82 48 64
        E 0 92 44 66
        E 0 82 41 64
        E 0 92 48 64
        E 1 82 44 66
        E 0 83 41 64
        E 0 8f 35 64
        E 0 92 41 64
        E 0 93 41 5a
        E 0 9f 35 5a
        E 0 82 48 64
        E 0 92 44 66
        E 0 82 41 64
        E 0 92 48 64
        E 0 82 44 66
        E 0 83 41 64
        E 0 8f 35 64
        E 0 92 43 64
        E 0 93 43 5a
        E 0 9f 37 5a
        E 0 82 48 64
        E 0 92 47 64
        E 0 82 43 64
        E 0 92 4a 64
        E 0 82 47 64
        E 0 83 43 64
        E 0 8f 37 64
        E 0 92 43 64
        E 0 93 43 5a
        E 0 9f 37 5a
        E 0 82 4a 64
        E 0 92 47 64
        E 0 82 43 64
        E 0 92 4a 64
        E 0 82 47 64
        E 0 83 43 64
        E 0 8f 37 64
        E 0 92 43 64
        E 0 93 43 5a
        E 0 9f 37 5a
        E 0 82 4a 64
        E 0 92 47 64
        E 0 82 43 64
        E 0 92 4a 64
        E 0 82 47 64
        E 0 83 43 64
        E 0 8f 37 64
        E 0 92 43 64
        E 0 93 43 5a
        E 0 9f 37 5a
        E 0 82 4a 64
        E 0 92 47 64
        E 0 82 43 64
        E 0 92 4a 64
        E 0 82 47 64
        E 0 83 43 64
        E 0 8f 37 64
        E 0 92 4b 66
        E 0 93 48 5a
        E 0 9f 3c 5a
        E 0 82 4a 64
        E 0 83 48 64
        E 0 8f 3c 64
        E 0 93 46 5b
        E 0 9f 3a 5b
        E 0 83 46 66
        E 0 8f 3a 66
        E 0 93 44 5b
        E 0 9f 38 5b
        E 0 83 44 66
        E 0 8f 38 66
        E 0 93 43 5a
        E 0 9f 37 5a
        E 0 83 43 64
        E 0 8f 37 64
        E 0 93 41 5a
        E 0 9f 35 5a
        E 0 92 48 64
        E 0 83 41 64
        E 0 8f 35 64
        E 0 93 3f 5b
        E 0 9f 33 5b
        E 0 83 3f 66
        E 0 8f 33 66
        E 0 93 3e 5a
        E 0 9f 32 5a
        E 0 82 4b 66
        E 0 83 3e 64
        E 0 8f 32 64
        E 0 93 3c 5a
        E 0 9f 30 5a
        E 0 82 48 64
        E 0 83 3c 64
        E 0 8f 30 64
        E 0 93 3c 5a
        E 0 9f 30 5a
        E 0 83 3c 64
        E 0 8f 30 64
        E 0 93 3c 5a
        E 0 9f 30 5a
        E 0 83 3c 64
        E 0 8f 30 64
        E 0 93 3c 5a
        E 0 9f 30 5a
        E 1 83 3c 64
        E 0 8f 30 64
        E 0 92 3f 66
        E 0 93 3c 5a
        E 0 9f 30 5a
        E 0 92 43 64
        E 0 82 3f 66
        E 0 92 48 64
        E 0 82 43 64
        E 0 83 3c 64
        E 0 8f 30 64
        E 0 92 3f 66
        E 0 93 3c 5a
        E 0 9f 30 5a
        E 0 82 48 64
        E 0 92 43 64
        E 0 82 3f 66
        E 0 92 48 64
        E 0 82 43 64
        E 0 83 3c 64
        E 0 8f 30 64
        E 0 92 3f 66
        E 0 93 3c 5a
        E 0 9f 30 5a
        E 0 82 48 64
        E 0 92 43 64
        E 0 82 3f 66
        E 0 92 48 64
        E 0 82 43 64
        E 0 83 3c 64
        E 0 8f 30 64
        E 0 92 3f 66
        E 0 93 3c 5a
        E 0 9f 30 5a
        E 0 82 48 64
        E 0 92 43 64
        E 0 82 3f 66
        E 0 92 48 64
        E 0 82 43 64
        E 0 83 3c 64
        E 0 8f 30 64
        E 0 92 41 64
        E 0 93 41 5a
        E 0 9f 35 5a
        E 0 82 48 64
        E 0 92 44 66
        E 0 82 41 64
        E 0 92 48 64
        E 0 82 44 66
        E 0 83 41 64
        E 0 8f 35 64
        E 0 92 41 64
        E 0 93 41 5a
        E 0 9f 35 5a
        E 0 82 48 64
        E 0 92 44 66
        E 0 82 41 64
        E 0 92 48 64
        E 0 82 44 66
        E 0 83 41 64
        E 0 8f 35 64
        E 0 92 41 64
        E 0 93 41 5a
        E 0 9f 35 5a
        E 0 82 48 64
        E 0 92 44 66
        E 0 82 41 64
        E 0 92 48 64
        E 10267 82 44 66
        E 0 83 41 64
        E 0 8f 35 64
        E 0 92 41 64
        E 0 93 41 5a
        E 0 9f 35 5a
        E 0 82 48 64
        E 2 92 44 66
        E 0 82 41 64
        E 0 92 48 64
        E 0 82 44 66
        E 0 83 41 64
        E 0 8f 35 64
        E 0 92 43 64
        E 1 93 43 5a
        E 0 9f 37 5a
        E 0 82 48 64
        E 0 92 47 64
        E 0 82 43 64
        E 0 92 4a 64
        E 0 82 47 64
        E 0 83 43 64
        E 0 8f 37 64
        E 0 92 43 64
        E 0 93 43 5a
        E 0 9f 37 5a
        E 0 82 4a 64
        E 0 92 47 64
        E 0 82 43 64
        E 0 92 4a 64
        E 0 82 47 64
        E 0 83 43 64
        E 0 8f 37 64
        E 0 92 43 64
        E 1 93 43 5a
        E 0 9f 37 5a
        E 0 82 4a 64
        E 0 92 47 64
        E 0 82 43 64
        E 0 92 4a 64
        E 0 82 47 64
        E 0 83 43 64
        E 0 8f 37 64
        E 0 92 43 64
        E 0 93 43 5a
        E 0 9f 37 5a
        E 0 82 4a 64
        E 1 92 47 64
        E 0 82 43 64
        E 0 92 4a 64
        E 0 82 47 64
        E 0 83 43 64
        E 0 8f 37 64
        E 0 92 48 64
        E 0 93 3c 5a
        E 1 9f 30 5a
        E 0 82 4a 64
        E 0 83 3c 64
        E 0 8f 30 64
        E 0 82 48 64
        E 0 92 3f 66
        E 0 93 3c 5a
        E 0 96 48 64
        E 0 9f 30 5a
        E 0 92 43 64
        E 0 82 3f 66
        E 0 92 48 64
        E 0 82 43 64
        E 0 83 3c 64
        E 0 86 48 64
        E 0 8f 30 64
        E 0 92 3f 66
        E 0 93 3c 5a
        E 0 96 43 64
        E 0 9f 30 5a
        E 0 82 48 64
        E 0 92 43 64
        E 0 82 3f 66
        E 0 92 48 64
        E 0 82 43 64
        E 0 83 3c 64
        E 0 86 43 64
        E 0 8f 30 64
        E 0 92 3f 66
        E 0 93 3c 5a
        E 0 9f 30 5a
        E 1 82 48 64
        E 0 92 43 64
        E 0 82 3f 66
        E 0 92 48 64
        E 0 82 43 64
        E 0 83 3c 64
        E 0 8f 30 64
        E 0 92 3f 66
        E 0 93 3c 5a
        E 0 9f 30 5a
        E 0 82 48 64
        E 0 92 43 64
        E 0 82 3f 66
        E 0 92 48 64
        E 0 82 43 64
        E 0 83 3c 64
        E 0 8f 30 64
        E 0 92 41 64
        E 0 93 41 5a
        E 0 96 48 64
        E 0 9f 35 5a
        E 0 82 48 64
        E 1 92 44 66
        E 0 82 41 64
        E 0 92 48 64
        E 0 82 44 66
        E 0 83 41 64
        E 0 86 48 64
        E 0 8f 35 64
        E 0 92 41 64
        E 0 93 41 5a
        E 0 96 41 64
        E 0 9f 35 5a
        E 0 82 48 64
        E 0 92 44 66
        E 0 82 41 64
        E 0 86 41 64
        E 0 96 41 64
        E 0 92 48 64
        E 0 82 44 66
        E 0 83 41 64
        E 0 86 41 64
        E 0 8f 35 64
        E 1 92 41 64
        E 0 93 41 5a
        E 0 96 41 64
        E 0 9f 35 5a
        E 0 82 48 64
        E 0 92 44 66
        E 0 82 41 64
        E 0 92 48 64
        E 0 82 44 66
        E 0 83 41 64
        E 0 86 41 64
        E 0 8f 35 64
        E 0 92 41 64
        E 0 93 41 5a
        E 1 96 48 64
        E 0 9f 35 5a
        E 0 82 48 64
        E 0 92 44 66
        E 0 82 41 64
        E 0 92 48 64
        E 0 82 44 66
        E 0 83 41 64
        E 0 86 48 64
        E 0 8f 35 64
        E 0 92 43 64
        E 0 93 43 5a
        E 0 96 47 64
        E 0 9f 37 5a
        E 0 82 48 64
        E 0 92 47 64
        E 0 82 43 64
        E 0 92 4a 64
        E 0 82 47 64
        E 0 83 43 64
        E 0 86 47 64
        E 0 8f 37 64
        E 0 92 43 64
        E 0 93 43 5a
        E 0 96 43 64
        E 1 9f 37 5a
        E 0 82 4a 64
        E 0 92 47 64
        E 0 82 43 64
        E 0 92 4a 64
        E 0 82 47 64
        E 0 83 43 64
        E 0 86 43 64
        E 0 8f 37 64
        E 0 92 43 64
        E 0 93 43 5a
        E 0 9f 37 5a
        E 0 82 4a 64
        E 0 92 47 64
        E 0 82 43 64
        E 0 92 4a 64
        E 0 82 47 64
        E 0 83 43 64
        E 0 8f 37 64
        E 0 92 43 64
        E 0 93 43 5a
        E 0 96 4a 64
        E 0 9f 37 5a
        E 0 82 4a 64
        E 1 92 47 64
        E 0 82 43 64
        E 0 92 4a 64
        E 0 82 47 64
        E 0 83 43 64
        E 0 86 4a 64
        E 0 8f 37 64
        E 0 92 4b 66
        E 0 93 48 5a
        E 0 96 4b 66
        E 0 9f 3c 5a
        E 308 82 4a 64
        E 0 83 48 64
        E 0 8f 3c 64
        E 1 93 46 5b
        E 0 9f 3a 5b
        E 0 83 46 66
        E 0 8f 3a 66
        E 0 93 44 5b
        E 0 9f 38 5b
        E 319 83 44 66
        E 0 86 4b 66
        E 0 8f 38 66
        E 0 93 43 5a
        E 1 96 48 64
        E 0 9f 37 5a
        E 0 83 43 64
        E 0 8f 37 64
        E 0 93 41 5a
        E 0 9f 35 5a
        E 0 92 48 64
        E 320 83 41 64
        E 0 8f 35 64
        E 0 93 3f 5b
        E 0 9f 33 5b
        E 0 83 3f 66
        E 0 8f 33 66
        E 0 93 3e 5a
        E 0 9f 32 5a
        E 0 82 4b 66
        E 0 83 3e 64
        E 0 86 48 64
        E 0 8f 32 64
        E 0 93 3c 5a
        E 0 9f 30 5a
        E 333 82 48 64
        E 0 83 3c 64
        E 0 8f 30 64
        E 1 93 3c 5a
        E 0 9f 30 5a
        E 305 83 3c 64
        E 0 8f 30 64
        E 1 93 3c 5a
        E 0 9f 30 5a
        E 321 83 3c 64
        E 1 8f 30 64
        E 0 93 3c 5a
        E 0 9f 30 5a
        E 0 83 3c 64
        E 0 8f 30 64
        E 0 92 3f 66
        E 0 93 3c 5a
        E 0 96 48 64
        E 0 9f 30 5a
        E 319 92 43 64
        E 0 82 3f 66
        E 0 92 48 64
        E 318 82 43 64
        E 0 83 3c 64
        E 0 86 48 64
        E 0 8f 30 64
        E 0 92 3f 66
        E 0 93 3c 5a
        E 0 96 3f 66
        E 0 9f 30 5a
        E 0 82 48 64
        E 0 92 43 64
        E 320 82 3f 66
        E 1 86 3f 66
        E 0 96 3f 66
        E 0 92 48 64
        E 0 82 43 64
        E 0 83 3c 64
        E 0 86 3f 66
        E 0 8f 30 64
        E 0 92 3f 66
        E 0 93 3c 5a
        E 0 96 3f 66
        E 0 9f 30 5a
        E 320 82 48 64
        E 1 92 43 64
        E 0 82 3f 66
        E 0 92 48 64
        E 318 82 43 64
        E 3 83 3c 64
        E 2 86 3f 66
        E 0 8f 30 64
        E 0 92 3f 66
        E 2 93 3c 5a
        E 0 96 48 64
        E 0 9f 30 5a
        E 0 82 48 64
        E 0 92 43 64
        E 317 82 3f 66
        E 0 92 48 64
        E 0 82 43 64
        E 0 83 3c 64
        E 0 86 48 64
        E 0 8f 30 64
        E 0 92 41 64
        E 0 93 41 5a
        E 0 96 44 66
        E 1 9f 35 5a
        E 317 82 48 64
        E 0 92 44 66
        E 0 82 41 64
        E 0 92 48 64
        E 321 82 44 66
        E 0 83 41 64
        E 0 86 44 66
        E 0 8f 35 64
        E 1 92 41 64
        E 0 93 41 5a
        E 0 96 41 64
        E 0 9f 35 5a
        E 0 82 48 64
        E 0 92 44 66
        E 321 82 41 64
        E 0 92 48 64
        E 0 82 44 66
        E 0 83 41 64
        E 0 86 41 64
        E 0 8f 35 64
        E 0 92 41 64
        E 0 93 41 5a
        E 0 9f 35 5a
        E 317 82 48 64
        E 0 92 44 66
        E 0 82 41 64
        E 1 92 48 64
        E 326 82 44 66
        E 0 83 41 64
        E 0 8f 35 64
        E 0 92 41 64
        E 1 93 41 5a
        E 0 96 44 66
        E 0 9f 35 5a
        E 1 82 48 64
        E 0 92 44 66
        E 320 82 41 64
        E 0 92 48 64
        E 0 82 44 66
        E 0 83 41 64
        E 0 86 44 66
        E 0 8f 35 64
        E 0 92 43 64
        E 1 93 43 5a
        E 0 96 43 64
        E 0 9f 37 5a
        E 311 82 48 64
        E 0 92 47 64
        E 0 82 43 64
        E 0 92 4a 64
        E 317 82 47 64
        E 0 83 43 64
        E 0 86 43 64
        E 0 8f 37 64
        E 0 92 43 64
        E 0 93 43 5a
        E 0 96 4a 64
        E 1 9f 37 5a
        E 0 82 4a 64
        E 1 92 47 64
        E 336 82 43 64
        E 1 92 4a 64
        E 0 82 47 64
        E 0 83 43 64
        E 0 86 4a 64
        E 0 8f 37 64
        E 0 92 43 64
        E 0 93 43 5a
        E 0 96 47 64
        E 0 9f 37 5a
        E 0 82 4a 64
        E 302 92 47 64
        E 0 82 43 64
        E 0 92 4a 64
        E 320 82 47 64
        E 0 83 43 64
        E 0 8f 37 64
        E 0 92 43 64
        E 0 93 43 5a
        E 0 9f 37 5a
        E 0 82 4a 64
        E 0 92 47 64
        E 327 82 43 64
        E 0 92 4a 64
        E 0 82 47 64
        E 0 83 43 64
        E 0 86 47 64
        E 0 8f 37 64
        E 0 92 48 64
        E 0 93 48 5a
        E 1 96 48 64
        E 0 9f 3c 5a
        E 312 82 4a 64
        E 0 83 48 64
        E 0 8f 3c 64
        E 0 93 46 5b
        E 0 9f 3a 5b
        E 0 83 46 66
        E 0 8f 3a 66
        E 0 93 44 5b
        E 1 9f 38 5b
        E 320 83 44 66
        E 0 8f 38 66
        E 0 93 43 5a
        E 0 9f 37 5a
        E 0 83 43 64
        E 0 8f 37 64
        E 0 93 41 5a
        E 0 9f 35 5a
        E 331 83 41 64
        E 0 8f 35 64
        E 0 93 3f 5b
        E 0 9f 33 5b
        E 0 83 3f 66
        E 0 8f 33 66
        E 0 93 3e 5a
        E 0 9f 32 5a
        E 0 83 3e 64
        E 0 86 48 64
        E 0 8f 32 64
        E 0 93 3c 5a
        E 0 9f 30 5a
        E 308 83 3c 64
        E 0 8f 30 64
        E 0 93 3c 5a
        E 0 9f 30 5a
        E 319 82 48 64
        E 0 83 3c 64
        E 0 8f 30 64
        E 0 93 3c 5a
        E 0 9f 30 5a
        E 326 83 3c 64
        E 1 8f 30 64
        E 1 93 3e 5a
        E 0 9f 32 5a
        E 2 83 3e 64
        E 0 8f 32 64
        E 0 92 3f 66
        E 0 93 3f 5b
        E 0 96 46 66
        E 0 9f 33 5b
        E 38404 92 43 64
        E 0 82 3f 66
        E 0 92 46 66
        E 0 82 43 64
        E 0 83 3f 66
        E 0 86 46 66
        E 0 8f 33 66
        E 0 92 3f 66
        E 0 93 3f 5b
        E 0 96 3f 66
        E 0 9f 33 5b
        E 0 82 46 66
        E 0 92 43 64
        E 0 82 3f 66
        E 0 86 3f 66
        E 0 96 3f 66
        E 0 92 46 66
        E 0 82 43 64
        E 0 83 3f 66
        E 0 86 3f 66
        E 0 8f 33 66
        E 0 92 3f 66
        E 0 93 3d 5b
        E 0 96 3f 66
        E 0 9f 31 5b
        E 0 82 46 66
        E 0 92 43 64
        E 0 82 3f 66
        E 0 92 46 66
        E 0 82 43 64
        E 0 83 3d 66
        E 0 86 3f 66
        E 0 8f 31 66
        E 0 92 3f 66
        E 0 93 3d 5b
        E 0 96 46 66
        E 0 9f 31 5b
        E 0 82 46 66
        E 0 92 43 64
        E 0 82 3f 66
        E 0 92 46 66
        E 0 82 43 64
        E 0 83 3d 66
        E 0 86 46 66
        E 0 8f 31 66
        E 0 92 3f 66
        E 0 93 3c 5a
        E 0 96 48 64
        E 0 9f 30 5a
        E 0 82 46 66
        E 0 92 44 66
        E 0 82 3f 66
        E 0 92 48 64
        E 0 82 44 66
        E 0 83 3c 64
        E 0 86 48 64
        E 0 8f 30 64
        E 0 92 3f 66
        E 1 93 3c 5a
        E 0 96 44 66
        E 0 9f 30 5a
        E 0 82 48 64
        E 0 92 44 66
        E 0 82 3f 66
        E 0 92 48 64
        E 0 82 44 66
        E 0 83 3c 64
        E 0 86 44 66
        E 0 8f 30 64
        E 0 92 3f 66
        E 0 93 3a 5b
        E 0 9f 2e 5b
        E 0 82 48 64
        E 0 92 44 66
        E 0 82 3f 66
        E 0 92 48 64
        E 0 82 44 66
        E 0 83 3a 66
        E 0 8f 2e 66
        E 0 92 3f 66
        E 0 93 38 5b
        E 0 9f 2c 5b
        E 0 82 48 64
        E 0 92 44 66
        E 0 82 3f 66
        E 0 92 48 64
        E 0 82 44 66
        E 0 83 38 66
        E 0 8f 2c 66
        E 0 92 41 64
        E 0 93 41 5a
        E 0 96 48 64
        E 0 9f 35 5a
        E 0 82 48 64
        E 0 92 45 64
        E 0 82 41 64
        E 0 92 48 64
        E 0 82 45 64
        E 0 83 41 64
        E 0 86 48 64
        E 0 8f 35 64
        E 0 92 41 64
        E 0 93 41 5a
        E 0 96 41 64
        E 0 9f 35 5a
        E 0 82 48 64
        E 0 92 45 64
        E 0 82 41 64
        E 0 86 41 64
        E 0 96 41 64
        E 0 92 48 64
        E 0 82 45 64
        E 0 83 41 64
        E 0 86 41 64
        E 0 8f 35 64
        E 0 92 41 64
        E 1 93 3f 5b
        E 0 96 41 64
        E 0 9f 33 5b
        E 0 82 48 64
        E 0 92 45 64
        E 0 82 41 64
        E 0 92 48 64
        E 0 82 45 64
        E 0 83 3f 66
        E 0 86 41 64
        E 0 8f 33 66
        E 0 92 41 64
        E 0 93 3f 5b
        E 0 96 48 64
        E 0 9f 33 5b
        E 0 82 48 64
        E 0 92 45 64
        E 0 82 41 64
        E 0 92 48 64
        E 0 82 45 64
        E 0 83 3f 66
        E 0 86 48 64
        E 0 8f 33 66
        E 0 92 41 64
        E 0 93 3e 5a
        E 0 96 4a 64
        E 0 9f 32 5a
        E 0 82 48 64
        E 0 92 46 66
        E 0 82 41 64
        E 0 92 4a 64
        E 0 82 46 66
        E 0 83 3e 64
        E 0 86 4a 64
        E 0 8f 32 64
        E 0 92 41 64
        E 0 93 3e 5a
        E 0 96 46 66
        E 0 9f 32 5a
        E 0 82 4a 64
        E 0 92 46 66
        E 0 82 41 64
        E 0 92 4a 64
        E 0 82 46 66
        E 0 83 3e 64
        E 0 86 46 66
        E 1 8f 32 64
        E 0 92 41 64
        E 0 93 3c 5a
        E 0 9f 30 5a
        E 0 82 4a 64
        E 0 92 46 66
        E 0 82 41 64
        E 0 92 4a 64
        E 0 82 46 66
        E 0 83 3c 64
        E 0 8f 30 64
        E 0 92 41 64
        E 0 93 3a 5b
        E 0 9f 2e 5b
        E 0 82 4a 64
        E 0 92 46 66
        E 0 82 41 64
        E 0 92 4a 64
        E 0 82 46 66
        E 0 83 3a 66
        E 0 8f 2e 66
        E 0 92 43 64
        E 0 93 43 5a
        E 0 96 4a 64
        E 0 9f 37 5a
        E 0 82 4a 64
        E 0 92 47 64
        E 0 82 43 64
        E 0 92 4a 64
        E 0 82 47 64
        E 0 83 43 64
        E 0 86 4a 64
        E 0 8f 37 64
        E 0 92 43 64
        E 0 93 43 5a
        E 0 96 43 64
        E 0 9f 37 5a
        E 0 82 4a 64
        E 0 92 47 64
        E 1 82 43 64
        E 0 86 43 64
        E 0 96 43 64
        E 0 92 4a 64
        E 0 82 47 64
        E 0 83 43 64
        E 0 86 43 64
        E 0 8f 37 64
        E 0 92 43 64
        E 0 93 41 5a
        E 0 96 43 64
        E 0 9f 35 5a
        E 0 82 4a 64
        E 0 92 47 64
        E 0 82 43 64
        E 0 92 4a 64
        E 0 82 47 64
        E 0 83 41 64
        E 0 86 43 64
        E 0 8f 35 64
        E 0 92 43 64
        E 0 93 41 5a
        E 0 96 4a 64
        E 0 9f 35 5a
        E 0 82 4a 64
        E 0 92 47 64
        E 0 82 43 64
        E 0 92 4a 64
        E 0 82 47 64
        E 0 83 41 64
        E 0 86 4a 64
        E 0 8f 35 64
        E 0 92 43 64
        E 0 93 3f 5b
        E 0 96 3f 66
        E 0 9f 33 5b
        E 0 82 4a 64
        E 0 92 48 64
        E 0 82 43 64
        E 0 92 4b 66
        E 0 82 48 64
        E 0 83 3f 66
        E 0 8f 33 66
        E 0 92 43 64
        E 0 93 3e 5a
        E 0 9f 32 5a
        E 0 82 4b 66
        E 0 92 48 64
        E 0 82 43 64
        E 0 92 4b 66
        E 0 82 48 64
        E 0 83 3e 64
        E 0 86 3f 66
        E 0 8f 32 64
        E 0 92 43 64
        E 0 93 3c 5a
        E 0 9f 30 5a
        E 0 82 4b 66
        E 1 92 48 64
        E 0 82 43 64
        E 0 92 4b 66
        E 0 82 48 64
        E 0 83 3c 64
        E 0 8f 30 64
        E 0 92 43 64
        E 0 93 3a 5b
        E 0 9f 2e 5b
        E 0 82 4b 66
        E 0 92 48 64
        E 0 82 43 64
        E 0 92 4b 66
        E 0 82 48 64
        E 0 83 3a 66
        E 0 8f 2e 66
        E 0 92 41 64
        E 0 93 38 5b
        E 0 96 48 64
        E 1 9f 2c 5b
        E 0 82 4b 66
        E 0 92 48 64
        E 0 82 41 64
        E 0 92 4b 66
        E 0 82 48 64
        E 0 83 38 66
        E 0 86 48 64
        E 0 8f 2c 66
        E 0 92 41 64
        E 0 93 38 5b
        E 0 96 41 64
        E 0 9f 2c 5b
        E 0 82 4b 66
        E 0 92 48 64
        E 0 82 41 64
        E 0 86 41 64
        E 0 96 41 64
        E 0 92 4b 66
        E 0 82 48 64
        E 0 83 38 66
        E 0 86 41 64
        E 0 8f 2c 66
        E 0 92 41 64
        E 0 93 38 5b
        E 0 96 41 64
        E 0 9f 2c 5b
        E 0 82 4b 66
        E 0 92 48 64
        E 0 82 41 64
        E 0 92 4b 66
        E 0 82 48 64
        E 0 83 38 66
        E 0 86 41 64
        E 0 8f 2c 66
        E 0 92 41 64
        E 0 93 38 5b
        E 0 96 48 64
        E 0 9f 2c 5b
        E 0 82 4b 66
        E 0 92 48 64
        E 0 82 41 64
        E 0 92 4b 66
        E 0 82 48 64
        E 0 83 38 66
        E 0 86 48 64
        E 0 8f 2c 66
        E 0 92 41 64
        E 0 93 3a 5b
        E 1 96 49 66
        E 0 9f 2e 5b
        E 0 82 4b 66
        E 0 92 46 66
        E 0 82 41 64
        E 0 92 49 66
        E 0 82 46 66
        E 0 83 3a 66
        E 0 86 49 66
        E 0 8f 2e 66
        E 0 92 41 64
        E 0 93 3a 5b
        E 0 96 46 66
        E 0 9f 2e 5b
        E 0 82 49 66
        E 0 92 46 66
        E 0 82 41 64
        E 0 92 49 66
        E 0 82 46 66
        E 0 83 3a 66
        E 0 86 46 66
        E 0 8f 2e 66
        E 0 92 41 64
        E 0 93 3a 5b
        E 0 9f 2e 5b
        E 0 82 49 66
        E 0 92 46 66
        E 0 82 41 64
        E 0 92 49 66
        E 0 82 46 66
        E 0 83 3a 66
        E 0 8f 2e 66
        E 0 92 41 64
        E 0 93 3a 5b
        E 0 9f 2e 5b
        E 0 82 49 66
        E 0 92 46 66
        E 0 82 41 64
        E 0 92 49 66
        E 0 82 46 66
        E 0 83 3a 66
        E 0 8f 2e 66
        E 0 92 43 64
        E 0 93 40 5a
        E 0 96 46 66
        E 0 9f 34 5a
        E 0 82 49 66
        E 0 92 46 66
        E 0 82 43 64
        E 0 92 49 66
        E 0 82 46 66
        E 0 83 40 64
        E 0 86 46 66
        E 0 8f 34 64
        E 0 92 43 64
        E 0 93 40 5a
        E 0 96 40 64
        E 0 9f 34 5a
        E 0 82 49 66
        E 0 92 46 66
        E 0 82 43 64
        E 0 86 40 64
        E 0 96 40 64
        E 0 92 49 66
        E 0 82 46 66
        E 0 83 40 64
        E 0 86 40 64
        E 0 8f 34 64
        E 0 92 43 64
        E 0 93 40 5a
        E 0 96 40 64
        E 0 9f 34 5a
        E 1 82 49 66
        E 0 92 46 66
        E 0 82 43 64
        E 0 92 49 66
        E 0 82 46 66
        E 0 83 40 64
        E 0 86 40 64
        E 0 8f 34 64
        E 0 92 43 64
        E 0 93 40 5a
        E 0 96 46 66
        E 0 9f 34 5a
        E 0 82 49 66
        E 0 92 46 66
        E 0 82 43 64
        E 0 92 49 66
        E 0 82 46 66
        E 0 83 40 64
        E 0 86 46 66
        E 0 8f 34 64
        E 0 92 41 64
        E 0 93 41 5a
        E 0 96 44 66
        E 0 9f 35 5a
        E 0 82 49 66
        E 0 92 44 66
        E 0 82 41 64
        E 0 92 48 64
        E 0 82 44 66
        E 0 83 41 64
        E 0 86 44 66
        E 0 8f 35 64
        E 0 92 41 64
        E 0 93 41 5a
        E 0 96 41 64
        E 0 9f 35 5a
        E 0 82 48 64
        E 0 92 44 66
        E 0 82 41 64
        E 0 92 48 64
        E 0 82 44 66
        E 0 83 41 64
        E 0 86 41 64
        E 0 8f 35 64
        E 0 92 41 64
        E 1 93 41 5a
        E 0 9f 35 5a
        E 0 82 48 64
        E 0 92 44 66
        E 0 82 41 64
        E 0 92 48 64
        E 0 82 44 66
        E 0 83 41 64
        E 0 8f 35 64
        E 0 92 41 64
        E 0 93 41 5a
        E 0 96 48 64
        E 0 9f 35 5a
        E 0 82 48 64
        E 0 92 44 66
        E 0 82 41 64
        E 0 92 48 64
        E 0 82 44 66
        E 0 83 41 64
        E 0 86 48 64
        E 0 8f 35 64
        E 0 92 41 64
        E 0 93 3d 5b
        E 0 96 46 66
        E 0 9f 31 5b
        E 0 82 48 64
        E 0 92 46 66
        E 0 82 41 64
        E 0 86 46 66
        E 0 96 44 66
        E 0 92 49 66
        E 0 82 46 66
        E 0 83 3d 66
        E 0 86 44 66
        E 0 8f 31 66
        E 0 92 41 64
        E 0 93 3d 5b
        E 0 96 43 64
        E 0 9f 31 5b
        E 0 82 49 66
        E 0 92 46 66
        E 0 82 41 64
        E 0 86 43 64
        E 0 96 41 64
        E 0 92 49 66
        E 0 82 46 66
        E 0 83 3d 66
        E 0 86 41 64
        E 0 8f 31 66
        E 0 92 40 64
        E 0 93 3c 5a
        E 0 96 3c 64
        E 0 9f 30 5a
        E 0 82 49 66
        E 0 92 43 64
        E 0 82 40 64
        E 1 92 48 64
        E 0 82 43 64
        E 0 83 3c 64
        E 0 86 3c 64
        E 0 8f 30 64
        E 0 92 40 64
        E 0 93 3c 5a
        E 0 96 40 64
        E 0 9f 30 5a
        E 0 82 48 64
        E 0 92 43 64
        E 0 82 40 64
        E 0 92 48 64
        E 0 82 43 64
        E 0 83 3c 64
        E 0 86 40 64
        E 0 8f 30 64
        E 0 92 41 64
        E 0 93 41 5a
        E 0 96 41 64
        E 0 9f 35 5a
        E 0 82 48 64
        E 0 92 44 66
        E 0 82 41 64
        E 0 92 48 64
        E 0 82 44 66
        E 0 83 41 64
        E 0 8f 35 64
        E 0 92 41 64
        E 0 93 41 5a
        E 0 9f 35 5a
        E 0 82 48 64
        E 0 92 44 66
        E 0 82 41 64
        E 0 92 48 64
        E 0 82 44 66
        E 0 83 41 64
        E 0 86 41 64
        E 0 8f 35 64
        E 0 92 41 64
        E 0 93 41 5a
        E 0 9f 35 5a
        E 0 82 48 64
        E 0 92 44 66
        E 0 82 41 64
        E 0 92 48 64
        E 0 82 44 66
        E 0 83 41 64
        E 0 8f 35 64
        E 0 92 41 64
        E 0 93 41 5a
        E 0 96 48 64
        E 0 9f 35 5a
        E 0 82 48 64
        E 0 92 44 66
        E 0 82 41 64
        E 0 92 48 64
        E 0 82 44 66
        E 0 83 41 64
        E 0 86 48 64
        E 0 8f 35 64
        E 0 92 41 64
        E 0 93 3d 5b
        E 0 96 46 66
        E 0 9f 31 5b
        E 0 82 48 64
        E 0 92 46 66
        E 0 82 41 64
        E 0 86 46 66
        E 0 96 44 66
        E 0 92 49 66
        E 0 82 46 66
        E 0 83 3d 66
        E 0 86 44 66
        E 0 8f 31 66
        E 0 92 41 64
        E 0 93 3d 5b
        E 0 96 43 64
        E 0 9f 31 5b
        E 0 82 49 66
        E 0 92 46 66
        E 0 82 41 64
        E 0 86 43 64
        E 0 96 41 64
        E 0 92 49 66
        E 0 82 46 66
        E 0 83 3d 66
        E 0 86 41 64
        E 0 8f 31 66
        E 0 92 40 64
        E 0 93 3c 5a
        E 0 96 3c 64
        E 0 9f 30 5a
        E 0 82 49 66
        E 0 92 43 64
        E 0 82 40 64
        E 1 92 48 64
        E 0 82 43 64
        E 0 83 3c 64
        E 0 86 3c 64
        E 0 8f 30 64
        E 0 92 40 64
        E 0 93 3c 5a
        E 0 96 40 64
        E 0 9f 30 5a
        E 0 82 48 64
        E 0 92 43 64
        E 0 82 40 64
        E 0 92 48 64
        E 0 82 43 64
        E 0 83 3c 64
        E 0 86 40 64
        E 0 8f 30 64
        E 0 92 41 64
        E 0 93 41 5a
        E 0 96 41 64
        E 0 9f 35 5a
        E 0 82 48 64
        E 0 92 44 66
        E 0 82 41 64
        E 0 92 48 64
        E 0 82 44 66
        E 0 83 41 64
        E 0 8f 35 64
        E 0 92 41 64
        E 0 93 41 5a
        E 0 9f 35 5a
        E 0 82 48 64
        E 0 92 44 66
        E 0 82 41 64
        E 0 92 48 64
        E 0 82 44 66
        E 0 83 41 64
        E 0 86 41 64
        E 0 8f 35 64
        E 0 92 41 64
        E 0 93 41 5a
        E 0 9f 35 5a
        E 0 82 48 64
        E 0 92 44 66
        E 0 82 41 64
        E 0 92 48 64
        E 0 82 44 66
        E 0 83 41 64
        E 0 8f 35 64
        E 0 92 41 64
        E 0 93 41 5a
        E 0 9f 35 5a
        E 0 82 48 64
        E 0 92 44 66
        E 0 82 41 64
        E 0 92 48 64
        E 0 82 44 66
        E 0 83 41 64
        E 0 8f 35 64
        E 0 92 49 66
        E 0 93 3a 5b
        E 0 9f 2e 5b
        E 0 82 48 64
        E 0 92 4d 64
        E 0 82 49 66
        E 0 92 52 66
        E 0 82 4d 64
        E 0 83 3a 66
        E 0 8f 2e 66
        E 0 92 49 66
        E 0 93 3a 5b
        E 0 9f 2e 5b
        E 0 82 52 66
        E 0 92 4d 64
        E 0 82 49 66
        E 0 92 52 66
        E 0 82 4d 64
        E 0 83 3a 66
        E 0 8f 2e 66
        E 0 92 49 66
        E 0 93 3a 5b
        E 0 9f 2e 5b
        E 0 82 52 66
        E 0 92 4d 64
        E 0 82 49 66
        E 0 92 52 66
        E 0 82 4d 64
        E 0 83 3a 66
        E 0 8f 2e 66
        E 1 92 49 66
        E 0 93 3a 5b
        E 0 9f 2e 5b
        E 0 82 52 66
        E 0 92 4d 64
        E 0 82 49 66
        E 0 92 52 66
        E 0 82 4d 64
        E 0 83 3a 66
        E 0 8f 2e 66
        E 0 92 4c 64
        E 0 93 3c 5a
        E 0 9f 30 5a
        E 0 82 52 66
        E 0 92 4f 64
        E 0 82 4c 64
        E 0 92 52 66
        E 0 82 4f 64
        E 0 83 3c 64
        E 0 8f 30 64
        E 0 92 4c 64
        E 0 93 3c 5a
        E 0 9f 30 5a
        E 0 82 52 66
        E 0 92 4f 64
        E 0 82 4c 64
        E 0 92 52 66
        E 0 82 4f 64
        E 0 83 3c 64
        E 0 8f 30 64
        E 0 92 4c 64
        E 0 93 3c 5a
        E 0 9f 30 5a
        E 0 82 52 66
        E 0 92 4f 64
        E 0 82 4c 64
        E 0 92 52 66
        E 0 82 4f 64
        E 0 83 3c 64
        E 0 8f 30 64
        E 0 92 4c 64
        E 0 93 3c 5a
        E 0 9f 30 5a
        E 0 82 52 66
        E 0 92 4f 64
        E 0 82 4c 64
        E 0 92 52 66
        E 0 82 4f 64
        E 0 83 3c 64
        E 0 8f 30 64
        E 0 92 50 66
        E 0 93 41 5a
        E 0 96 48 64
        E 0 9f 35 5a
        E 0 82 52 66
        E 0 83 41 64
        E 0 8f 35 64
        E 0 93 3f 5b
        E 0 9f 33 5b
        E 0 83 3f 66
        E 0 8f 33 66
        E 0 93 3d 5b
        E 0 9f 31 5b
        E 0 82 50 66
        E 0 83 3d 66
        E 0 86 48 64
        E 0 8f 31 66
        E 0 92 4d 64
        E 0 93 3c 5a
        E 0 96 41 64
        E 0 9f 30 5a
        E 0 83 3c 64
        E 0 8f 30 64
        E 1 93 3a 5b
        E 0 9f 2e 5b
        E 0 83 3a 66
        E 0 86 41 64
        E 0 8f 2e 66
        E 0 93 38 5b
        E 0 96 41 64
        E 0 9f 2c 5b
        E 0 83 38 66
        E 0 8f 2c 66
        E 0 93 37 5a
        E 0 9f 2b 5a
        E 0 82 4d 64
        E 0 83 37 64
        E 0 86 41 64
        E 0 8f 2b 64
        E 0 93 35 5a
        E 0 96 41 64
        E 0 9f 29 5a
        E 0 83 35 64
        E 0 8f 29 64
        E 0 93 35 5a
        E 0 9f 29 5a
        E 0 83 35 64
        E 0 86 41 64
        E 0 8f 29 64
        E 0 93 35 5a
        E 0 96 48 64
        E 0 9f 29 5a
        E 0 83 35 64
        E 0 8f 29 64
        E 0 93 35 5a
        E 0 9f 29 5a
        E 0 83 35 64
        E 0 86 48 64
        E 0 8f 29 64
        E 0 92 41 64
        E 0 93 3a 5b
        E 0 96 49 66
        E 0 9f 2e 5b
        E 0 92 46 66
        E 0 82 41 64
        E 0 92 49 66
        E 0 82 46 66
        E 0 83 3a 66
        E 0 86 49 66
        E 0 8f 2e 66
        E 0 92 41 64
        E 0 93 3a 5b
        E 0 96 46 66
        E 0 9f 2e 5b
        E 0 82 49 66
        E 0 92 46 66
        E 0 82 41 64
        E 1 92 49 66
        E 0 82 46 66
        E 0 83 3a 66
        E 0 86 46 66
        E 0 8f 2e 66
        E 0 92 41 64
        E 0 93 3a 5b
        E 0 9f 2e 5b
        E 0 82 49 66
        E 0 92 46 66
        E 0 82 41 64
        E 0 92 49 66
        E 0 82 46 66
        E 0 83 3a 66
        E 0 8f 2e 66
        E 0 92 41 64
        E 0 93 3a 5b
        E 0 9f 2e 5b
        E 0 82 49 66
        E 0 92 46 66
        E 0 82 41 64
        E 0 92 49 66
        E 0 82 46 66
        E 0 83 3a 66
        E 0 8f 2e 66
        E 0 92 40 64
        E 0 93 3c 5a
        E 0 96 46 66
        E 0 9f 30 5a
        E 0 82 49 66
        E 0 92 43 64
        E 0 82 40 64
        E 0 92 48 64
        E 0 82 43 64
        E 0 83 3c 64
        E 0 86 46 66
        E 0 8f 30 64
        E 0 92 40 64
        E 0 93 3c 5a
        E 0 96 40 64
        E 0 9f 30 5a
        E 0 82 48 64
        E 0 92 43 64
        E 0 82 40 64
        E 0 86 40 64
        E 0 96 40 64
        E 0 92 48 64
        E 0 82 43 64
        E 0 83 3c 64
        E 0 86 40 64
        E 0 8f 30 64
        E 0 92 40 64
        E 0 93 3c 5a
        E 0 96 40 64
        E 0 9f 30 5a
        E 0 82 48 64
        E 0 92 43 64
        E 0 82 40 64
        E 0 92 48 64
        E 0 82 43 64
        E 0 83 3c 64
        E 0 86 40 64
        E 0 8f 30 64
        E 0 92 40 64
        E 0 93 3c 5a
        E 0 96 46 66
        E 0 9f 30 5a
        E 0 82 48 64
        E 0 92 43 64
        E 0 82 40 64
        E 0 92 48 64
        E 0 82 43 64
        E 0 83 3c 64
        E 0 86 46 66
        E 0 8f 30 64
        E 0 92 41 64
        E 0 93 41 5a
        E 0 96 44 66
        E 0 9f 35 5a
        E 0 82 48 64
        E 0 92 44 66
        E 0 82 41 64
        E 0 83 41 64
        E 0 8f 35 64
        E 0 93 3f 5b
        E 0 9f 33 5b
        E 0 92 48 64
        E 0 83 3f 66
        E 0 8f 33 66
        E 0 93 3d 5b
        E 0 9f 31 5b
        E 0 82 44 66
        E 0 83 3d 66
        E 0 86 44 66
        E 0 8f 31 66
        E 0 92 41 64
        E 0 93 3c 5a
        E 0 96 41 64
        E 0 9f 30 5a
        E 0 82 48 64
        E 0 83 3c 64
        E 0 8f 30 64
        E 0 93 3a 5b
        E 1 9f 2e 5b
        E 0 92 44 66
        E 0 82 41 64
        E 0 83 3a 66
        E 0 8f 2e 66
        E 0 93 38 5b
        E 0 9f 2c 5b
        E 0 92 48 64
        E 0 83 38 66
        E 0 8f 2c 66
        E 0 93 37 5a
        E 0 9f 2b 5a
        E 0 82 44 66
        E 0 83 37 64
        E 0 86 41 64
        E 0 8f 2b 64
        E 0 92 41 64
        E 0 93 35 5a
        E 0 9f 29 5a
        E 0 82 48 64
        E 0 92 44 66
        E 0 82 41 64
        E 0 83 35 64
        E 0 8f 29 64
        E 0 93 35 5a
        E 0 9f 29 5a
        E 0 92 48 64
        E 0 82 44 66
        E 0 83 35 64
        E 0 8f 29 64
        E 0 92 41 64
        E 0 93 35 5a
        E 0 9f 29 5a
        E 0 82 48 64
        E 0 92 44 66
        E 0 82 41 64
        E 0 83 35 64
        E 0 8f 29 64
        E 0 93 35 5a
        E 0 9f 29 5a
        E 0 92 48 64
        E 0 82 44 66
        E 0 83 35 64
        E 0 8f 29 64
        E 1 92 41 64
        E 0 93 3b 5a
        E 0 96 4a 64
        E 0 9f 2f 5a
        E 0 82 48 64
        E 38403 92 47 64
        E 0 82 41 64
        E 0 92 4a 64
        E 0 82 47 64
        E 0 83 3b 64
        E 0 86 4a 64
        E 0 8f 2f 64
        E 0 92 41 64
        E 0 93 3b 5a
        E 0 96 43 64
        E 0 9f 2f 5a
        E 0 82 4a 64
        E 0 92 47 64
        E 0 82 41 64
        E 0 86 43 64
        E 1 96 43 64
        E 0 92 4a 64
        E 0 82 47 64
        E 0 83 3b 64
        E 0 86 43 64
        E 0 8f 2f 64
        E 0 92 41 64
        E 0 93 3b 5a
        E 0 96 43 64
        E 0 9f 2f 5a
        E 0 82 4a 64
        E 0 92 47 64
        E 0 82 41 64
        E 0 92 4a 64
        E 0 82 47 64
        E 0 83 3b 64
        E 0 86 43 64
        E 0 8f 2f 64
        E 0 92 41 64
        E 0 93 3b 5a
        E 0 96 41 64
        E 0 9f 2f 5a
        E 0 82 4a 64
        E 0 92 47 64
        E 0 82 41 64
        E 0 92 4a 64
        E 0 82 47 64
        E 0 83 3b 64
        E 0 86 41 64
        E 0 8f 2f 64
        E 0 92 43 64
        E 0 93 48 5a
        E 0 96 3f 66
        E 0 9f 3c 5a
        E 0 82 4a 64
        E 0 92 48 64
        E 0 82 43 64
        E 0 83 48 64
        E 0 8f 3c 64
        E 0 93 46 5b
        E 0 9f 3a 5b
        E 0 92 4b 66
        E 0 83 46 66
        E 1 8f 3a 66
        E 0 93 44 5b
        E 0 9f 38 5b
        E 0 82 48 64
        E 0 83 44 66
        E 0 86 3f 66
        E 0 8f 38 66
        E 0 92 43 64
        E 0 93 43 5a
        E 0 96 3c 64
        E 0 9f 37 5a
        E 0 82 4b 66
        E 0 83 43 64
        E 0 8f 37 64
        E 0 93 41 5a
        E 0 9f 35 5a
        E 0 92 48 64
        E 0 82 43 64
        E 0 83 41 64
        E 0 8f 35 64
        E 0 93 3f 5b
        E 0 9f 33 5b
        E 0 92 4b 66
        E 0 83 3f 66
        E 0 8f 33 66
        E 0 93 3e 5a
        E 0 9f 32 5a
        E 0 82 48 64
        E 0 83 3e 64
        E 0 86 3c 64
        E 0 8f 32 64
        E 0 92 43 64
        E 0 93 3c 5a
        E 0 9f 30 5a
        E 0 82 4b 66
        E 0 92 48 64
        E 0 82 43 64
        E 0 83 3c 64
        E 0 8f 30 64
        E 0 93 3c 5a
        E 0 9f 30 5a
        E 0 92 4b 66
        E 0 82 48 64
        E 0 83 3c 64
        E 0 8f 30 64
        E 0 92 43 64
        E 0 93 3c 5a
        E 0 96 43 64
        E 0 9f 30 5a
        E 0 82 4b 66
        E 0 92 48 64
        E 0 82 43 64
        E 0 83 3c 64
        E 0 8f 30 64
        E 0 93 3c 5a
        E 0 9f 30 5a
        E 0 92 4b 66
        E 0 82 48 64
        E 0 83 3c 64
        E 0 86 43 64
        E 0 8f 30 64
        E 1 92 43 64
        E 0 93 3f 5b
        E 0 96 48 64
        E 0 9f 33 5b
        E 0 82 4b 66
        E 0 92 48 64
        E 0 82 43 64
        E 0 92 4b 66
        E 0 82 48 64
        E 0 83 3f 66
        E 0 86 48 64
        E 0 8f 33 66
        E 0 92 43 64
        E 0 93 3f 5b
        E 0 96 43 64
        E 0 9f 33 5b
        E 0 82 4b 66
        E 0 92 48 64
        E 0 82 43 64
        E 0 92 4b 66
        E 0 82 48 64
        E 0 83 3f 66
        E 0 86 43 64
        E 0 8f 33 66
        E 0 92 43 64
        E 0 93 3f 5b
        E 0 96 4b 66
        E 0 9f 33 5b
        E 0 82 4b 66
        E 0 92 48 64
        E 0 82 43 64
        E 0 92 4b 66
        E 0 82 48 64
        E 0 83 3f 66
        E 0 86 4b 66
        E 0 8f 33 66
        E 0 92 43 64
        E 0 93 3f 5b
        E 0 96 43 64
        E 0 9f 33 5b
        E 0 82 4b 66
        E 0 92 48 64
        E 0 82 43 64
        E 0 92 4b 66
        E 0 82 48 64
        E 0 83 3f 66
        E 0 86 43 64
        E 0 8f 33 66
        E 0 92 41 64
        E 0 93 41 5a
        E 1 96 44 66
        E 0 9f 35 5a
        E 0 82 4b 66
        E 0 92 48 64
        E 0 82 41 64
        E 0 92 4b 66
        E 0 82 48 64
        E 0 83 41 64
        E 0 86 44 66
        E 0 8f 35 64
        E 0 92 41 64
        E 0 93 41 5a
        E 0 96 41 64
        E 0 9f 35 5a
        E 0 82 4b 66
        E 0 92 48 64
        E 0 82 41 64
        E 0 92 4b 66
        E 0 82 48 64
        E 0 83 41 64
        E 0 86 41 64
        E 0 8f 35 64
        E 0 92 41 64
        E 0 93 41 5a
        E 0 9f 35 5a
        E 0 82 4b 66
        E 0 92 48 64
        E 0 82 41 64
        E 0 92 4b 66
        E 0 82 48 64
        E 0 83 41 64
        E 0 8f 35 64
        E 0 92 41 64
        E 0 93 41 5a
        E 0 96 41 64
        E 0 9f 35 5a
        E 0 82 4b 66
        E 0 92 48 64
        E 0 82 41 64
        E 0 92 4b 66
        E 0 82 48 64
        E 0 83 41 64
        E 0 86 41 64
        E 0 8f 35 64
        E 0 92 41 64
        E 0 93 3e 5a
        E 0 96 46 66
        E 0 9f 32 5a
        E 0 82 4b 66
        E 1 92 46 66
        E 0 82 41 64
        E 0 92 4a 64
        E 0 82 46 66
        E 0 83 3e 64
        E 0 86 46 66
        E 0 8f 32 64
        E 0 92 41 64
        E 0 93 3e 5a
        E 0 96 41 64
        E 0 9f 32 5a
        E 0 82 4a 64
        E 0 92 46 66
        E 0 82 41 64
        E 0 92 4a 64
        E 0 82 46 66
        E 0 83 3e 64
        E 0 86 41 64
        E 0 8f 32 64
        E 0 92 41 64
        E 0 93 3e 5a
        E 0 96 4a 64
        E 0 9f 32 5a
        E 0 82 4a 64
        E 0 92 46 66
        E 0 82 41 64
        E 0 92 4a 64
        E 0 82 46 66
        E 0 83 3e 64
        E 0 86 4a 64
        E 0 8f 32 64
        E 0 92 41 64
        E 0 93 3e 5a
        E 0 96 41 64
        E 0 9f 32 5a
        E 0 82 4a 64
        E 0 92 46 66
        E 0 82 41 64
        E 0 92 4a 64
        E 0 82 46 66
        E 0 83 3e 64
        E 0 86 41 64
        E 0 8f 32 64
        E 0 92 3f 66
        E 0 93 3f 5b
        E 0 96 43 64
        E 0 9f 33 5b
        E 0 82 4a 64
        E 0 92 46 66
        E 0 82 3f 66
        E 0 83 3f 66
        E 0 8f 33 66
        E 0 93 3e 5a
        E 0 9f 32 5a
        E 0 92 4a 64
        E 0 83 3e 64
        E 0 8f 32 64
        E 0 93 3c 5a
        E 0 9f 30 5a
        E 0 82 46 66
        E 0 83 3c 64
        E 0 86 43 64
        E 0 8f 30 64
        E 0 92 3f 66
        E 0 93 3a 5b
        E 0 96 3f 66
        E 0 9f 2e 5b
        E 0 82 4a 64
        E 0 83 3a 66
        E 0 8f 2e 66
        E 0 93 38 5b
        E 0 9f 2c 5b
        E 0 92 46 66
        E 0 82 3f 66
        E 0 83 38 66
        E 0 8f 2c 66
        E 0 93 37 5a
        E 0 9f 2b 5a
        E 0 92 4a 64
        E 0 83 37 64
        E 0 8f 2b 64
        E 0 93 35 5a
        E 0 9f 29 5a
        E 0 82 46 66
        E 0 83 35 64
        E 0 86 3f 66
        E 0 8f 29 64
        E 0 92 3f 66
        E 0 93 33 5b
        E 0 9f 27 5b
        E 0 82 4a 64
        E 0 92 46 66
        E 0 82 3f 66
        E 0 83 33 66
        E 0 8f 27 66
        E 0 93 33 5b
        E 0 9f 27 5b
        E 1 92 4a 64
        E 0 82 46 66
        E 0 83 33 66
        E 0 8f 27 66
        E 0 92 3f 66
        E 0 93 33 5b
        E 0 96 43 64
        E 0 9f 27 5b
        E 0 82 4a 64
        E 0 92 46 66
        E 0 82 3f 66
        E 0 83 33 66
        E 0 8f 27 66
        E 0 93 33 5b
        E 0 9f 27 5b
        E 0 92 4a 64
        E 0 82 46 66
        E 0 83 33 66
        E 0 86 43 64
        E 0 8f 27 66
        E 0 92 3f 66
        E 0 93 3c 5a
        E 0 96 48 64
        E 0 9f 30 5a
        E 0 82 4a 64
        E 0 92 43 64
        E 0 82 3f 66
        E 0 92 48 64
        E 0 82 43 64
        E 0 83 3c 64
        E 0 86 48 64
        E 0 8f 30 64
        E 0 92 3f 66
        E 0 93 3c 5a
        E 0 96 43 64
        E 0 9f 30 5a
        E 0 82 48 64
        E 0 92 43 64
        E 0 82 3f 66
        E 0 92 48 64
        E 0 82 43 64
        E 0 83 3c 64
        E 0 86 43 64
        E 0 8f 30 64
        E 0 92 3f 66
        E 0 93 3c 5a
        E 0 96 3c 64
        E 0 9f 30 5a
        E 0 82 48 64
        E 0 92 43 64
        E 0 82 3f 66
        E 0 92 48 64
        E 0 82 43 64
        E 0 83 3c 64
        E 0 86 3c 64
        E 0 8f 30 64
        E 0 92 3f 66
        E 0 93 3c 5a
        E 0 96 48 64
        E 0 9f 30 5a
        E 0 82 48 64
        E 0 92 43 64
        E 0 82 3f 66
        E 0 92 48 64
        E 0 82 43 64
        E 0 83 3c 64
        E 0 86 48 64
        E 0 8f 30 64
        E 0 92 47 64
        E 0 93 43 5a
        E 0 96 47 64
        E 0 9f 37 5a
        E 0 82 48 64
        E 0 92 4a 64
        E 0 82 47 64
        E 0 83 43 64
        E 0 8f 37 64
        E 0 93 41 5a
        E 0 9f 35 5a
        E 0 92 4f 64
        E 0 83 41 64
        E 0 8f 35 64
        E 0 93 3f 5b
        E 0 9f 33 5b
        E 0 82 4a 64
        E 0 83 3f 66
        E 0 8f 33 66
        E 0 92 47 64
        E 0 93 3e 5a
        E 0 9f 32 5a
        E 0 82 4f 64
        E 0 83 3e 64
        E 0 8f 32 64
        E 0 93 3c 5a
        E 0 9f 30 5a
        E 0 92 4a 64
        E 0 82 47 64
        E 0 83 3c 64
        E 0 8f 30 64
        E 0 93 3b 5a
        E 0 9f 2f 5a
        E 0 92 4f 64
        E 0 83 3b 64
        E 0 8f 2f 64
        E 0 93 38 5b
        E 0 9f 2c 5b
        E 0 82 4a 64
        E 0 83 38 66
        E 0 86 47 64
        E 0 8f 2c 66
        E 0 92 47 64
        E 0 93 37 5a
        E 0 9f 2b 5a
        E 0 82 4f 64
        E 0 92 4a 64
        E 0 82 47 64
        E 0 83 37 64
        E 0 8f 2b 64
        E 0 93 37 5a
        E 1 9f 2b 5a
        E 0 92 4f 64
        E 0 82 4a 64
        E 0 83 37 64
        E 0 8f 2b 64
        E 0 92 47 64
        E 0 93 37 5a
        E 0 96 43 64
        E 0 9f 2b 5a
        E 0 82 4f 64
        E 0 92 4a 64
        E 0 82 47 64
        E 0 83 37 64
        E 0 8f 2b 64
        E 0 93 37 5a
        E 0 9f 2b 5a
        E 0 92 4f 64
        E 0 82 4a 64
        E 0 83 37 64
        E 0 86 43 64
        E 0 8f 2b 64
        E 0 92 3f 66
        E 0 93 3c 5a
        E 0 96 4b 66
        E 0 9f 30 5a
        E 0 82 4f 64
        E 0 92 43 64
        E 0 82 3f 66
        E 0 86 4b 66
        E 0 96 4a 64
        E 0 92 48 64
        E 0 82 43 64
        E 0 83 3c 64
        E 0 86 4a 64
        E 0 8f 30 64
        E 0 92 3f 66
        E 0 93 3c 5a
        E 0 96 48 64
        E 0 9f 30 5a
        E 0 82 48 64
        E 0 92 43 64
        E 0 82 3f 66
        E 0 86 48 64
        E 0 96 46 66
        E 0 92 48 64
        E 0 82 43 64
        E 0 83 3c 64
        E 0 86 46 66
        E 0 8f 30 64
        E 0 92 3f 66
        E 0 93 3c 5a
        E 0 96 48 64
        E 0 9f 30 5a
        E 0 82 48 64
        E 0 92 43 64
        E 0 82 3f 66
        E 0 86 48 64
        E 0 96 46 66
        E 0 92 48 64
        E 0 82 43 64
        E 0 83 3c 64
        E 0 86 46 66
        E 0 8f 30 64
        E 0 92 3f 66
        E 0 93 3c 5a
        E 0 96 44 66
        E 0 9f 30 5a
        E 0 82 48 64
        E 0 92 43 64
        E 0 82 3f 66
        E 0 86 44 66
        E 0 96 43 64
        E 0 92 48 64
        E 0 82 43 64
        E 0 83 3c 64
        E 0 86 43 64
        E 0 8f 30 64
        E 0 92 41 64
        E 0 93 41 5a
        E 0 96 44 66
        E 0 9f 35 5a
        E 0 82 48 64
        E 0 92 44 66
        E 0 82 41 64
        E 1 92 48 64
        E 0 82 44 66
        E 0 83 41 64
        E 0 86 44 66
        E 0 8f 35 64
        E 0 92 41 64
        E 0 93 41 5a
        E 0 96 41 64
        E 0 9f 35 5a
        E 0 82 48 64
        E 0 92 44 66
        E 0 82 41 64
        E 0 92 48 64
        E 0 82 44 66
        E 0 83 41 64
        E 0 86 41 64
        E 0 8f 35 64
        E 0 92 41 64
        E 0 93 41 5a
        E 0 9f 35 5a
        E 0 82 48 64
        E 0 92 44 66
        E 0 82 41 64
        E 0 92 48 64
        E 0 82 44 66
        E 0 83 41 64
        E 0 8f 35 64
        E 0 92 41 64
        E 0 93 41 5a
        E 0 96 41 64
        E 0 9f 35 5a
        E 0 82 48 64
        E 0 92 44 66
        E 0 82 41 64
        E 0 92 48 64
        E 0 82 44 66
        E 0 83 41 64
        E 0 86 41 64
        E 0 8f 35 64
        E 0 92 3e 64
        E 0 93 3a 5b
        E 0 96 4a 64
        E 0 9f 2e 5b
        E 0 82 48 64
        E 0 92 41 64
        E 0 82 3e 64
        E 0 86 4a 64
        E 0 96 48 64
        E 0 92 46 66
        E 0 82 41 64
        E 0 83 3a 66
        E 0 86 48 64
        E 0 8f 2e 66
        E 0 92 3e 64
        E 0 93 3a 5b
        E 0 96 46 66
        E 0 9f 2e 5b
        E 0 82 46 66
        E 0 92 41 64
        E 0 82 3e 64
        E 0 86 46 66
        E 0 96 44 66
        E 0 92 46 66
        E 0 82 41 64
        E 0 83 3a 66
        E 0 86 44 66
        E 0 8f 2e 66
        E 0 92 3e 64
        E 0 93 3a 5b
        E 0 96 46 66
        E 0 9f 2e 5b
        E 0 82 46 66
        E 0 92 41 64
        E 0 82 3e 64
        E 0 86 46 66
        E 1 96 44 66
        E 0 92 46 66
        E 0 82 41 64
        E 0 83 3a 66
        E 0 86 44 66
        E 0 8f 2e 66
        E 0 92 3e 64
        E 0 93 3a 5b
        E 0 96 43 64
        E 0 9f 2e 5b
        E 0 82 46 66
        E 0 92 41 64
        E 0 82 3e 64
        E 0 86 43 64
        E 0 96 41 64
        E 0 92 46 66
        E 0 82 41 64
        E 0 83 3a 66
        E 0 86 41 64
        E 0 8f 2e 66
        E 0 92 3f 66
        E 0 93 3f 5b
        E 0 96 43 64
        E 0 9f 33 5b
        E 0 82 46 66
        E 0 92 43 64
        E 0 82 3f 66
        E 0 92 46 66
        E 0 82 43 64
        E 0 83 3f 66
        E 0 86 43 64
        E 0 8f 33 66
        E 0 92 3f 66
        E 0 93 3f 5b
        E 0 96 3f 66
        E 0 9f 33 5b
        E 0 82 46 66
        E 0 92 43 64
        E 0 82 3f 66
        E 0 92 46 66
        E 0 82 43 64
        E 0 83 3f 66
        E 0 86 3f 66
        E 0 8f 33 66
        E 0 92 3f 66
        E 0 93 3f 5b
        E 0 9f 33 5b
        E 0 82 46 66
        E 0 92 43 64
        E 0 82 3f 66
        E 0 92 46 66
        E 0 82 43 64
        E 0 83 3f 66
        E 0 8f 33 66
        E 0 92 3f 66
        E 0 93 3f 5b
        E 0 9f 33 5b
        E 0 82 46 66
        E 1 92 43 64
        E 0 82 3f 66
        E 0 92 46 66
        E 0 82 43 64
        E 0 83 3f 66
        E 0 8f 33 66
        E 0 92 3c 64
        E 0 93 38 5b
        E 0 96 48 64
        E 0 9f 2c 5b
        E 0 82 46 66
        E 0 92 3f 66
        E 0 82 3c 64
        E 0 92 44 66
        E 0 82 3f 66
        E 0 83 38 66
        E 0 8f 2c 66
        E 0 92 3c 64
        E 0 93 38 5b
        E 0 9f 2c 5b
        E 0 82 44 66
        E 0 92 3f 66
        E 0 82 3c 64
        E 0 92 44 66
        E 0 82 3f 66
        E 0 83 38 66
        E 0 8f 2c 66
        E 0 92 3c 64
        E 0 93 38 5b
        E 0 9f 2c 5b
        E 0 82 44 66
        E 0 92 3f 66
        E 0 82 3c 64
        E 0 92 44 66
        E 0 82 3f 66
        E 0 83 38 66
        E 0 86 48 64
        E 0 8f 2c 66
        E 0 92 3c 64
        E 0 93 38 5b
        E 0 96 46 66
        E 0 9f 2c 5b
        E 0 82 44 66
        E 0 92 3f 66
        E 0 82 3c 64
        E 0 86 46 66
        E 0 96 48 64
        E 0 92 44 66
        E 0 82 3f 66
        E 0 83 38 66
        E 0 86 48 64
        E 0 8f 2c 66
        E 0 92 3e 64
        E 0 93 3e 5a
        E 0 96 41 64
        E 1 9f 32 5a
        E 0 82 44 66
        E 0 92 41 64
        E 0 82 3e 64
        E 0 92 44 66
        E 0 82 41 64
        E 0 83 3e 64
        E 0 8f 32 64
        E 0 92 3e 64
        E 0 93 3e 5a
        E 0 9f 32 5a
        E 0 82 44 66
        E 0 92 41 64
        E 0 82 3e 64
        E 0 92 44 66
        E 0 82 41 64
        E 0 83 3e 64
        E 0 8f 32 64
        E 0 92 3e 64
        E 0 93 3e 5a
        E 0 9f 32 5a
        E 0 82 44 66
        E 0 92 41 64
        E 0 82 3e 64
        E 0 92 44 66
        E 0 82 41 64
        E 0 83 3e 64
        E 0 8f 32 64
        E 0 92 3e 64
        E 0 93 3e 5a
        E 0 9f 32 5a
        E 0 82 44 66
        E 0 92 41 64
        E 0 82 3e 64
        E 0 92 44 66
        E 0 82 41 64
        E 0 83 3e 64
        E 0 86 41 64
        E 0 8f 32 64
        E 0 92 3b 64
        E 0 93 37 5a
        E 0 96 4a 64
        E 0 9f 2b 5a
        E 0 82 44 66
        E 0 92 3e 64
        E 0 82 3b 64
        E 0 92 43 64
        E 0 82 3e 64
        E 0 83 37 64
        E 0 8f 2b 64
        E 0 92 3b 64
        E 0 93 37 5a
        E 0 9f 2b 5a
        E 0 82 43 64
        E 0 92 3e 64
        E 0 82 3b 64
        E 0 92 43 64
        E 0 82 3e 64
        E 0 83 37 64
        E 0 8f 2b 64
        E 0 92 3b 64
        E 0 93 37 5a
        E 0 9f 2b 5a
        E 0 82 43 64
        E 0 92 3e 64
        E 0 82 3b 64
        E 0 92 43 64
        E 0 82 3e 64
        E 0 83 37 64
        E 0 86 4a 64
        E 0 8f 2b 64
        E 1 92 3b 64
        E 0 93 37 5a
        E 0 96 48 64
        E 0 9f 2b 5a
        E 0 82 43 64
        E 0 92 3e 64
        E 0 82 3b 64
        E 0 86 48 64
        E 0 96 4a 64
        E 0 92 43 64
        E 0 82 3e 64
        E 0 83 37 64
        E 0 86 4a 64
        E 0 8f 2b 64
        E 0 92 3f 66
        E 0 93 48 5a
        E 0 96 3f 66
        E 0 9f 3c 5a
        E 0 82 43 64
        E 0 92 43 64
        E 0 82 3f 66
        E 0 83 48 64
        E 0 8f 3c 64
        E 0 93 46 5b
        E 0 9f 3a 5b
        E 0 92 48 64
        E 0 83 46 66
        E 0 8f 3a 66
        E 0 93 44 5b
        E 0 9f 38 5b
        E 0 82 43 64
        E 0 83 44 66
        E 0 8f 38 66
        E 0 92 3f 66
        E 0 93 43 5a
        E 0 9f 37 5a
        E 0 82 48 64
        E 0 83 43 64
        E 0 8f 37 64
        E 0 93 41 5a
        E 0 9f 35 5a
        E 0 92 43 64
        E 0 82 3f 66
        E 0 83 41 64
        E 0 8f 35 64
        E 0 93 3f 5b
        E 0 9f 33 5b
        E 0 92 48 64
        E 0 83 3f 66
        E 0 8f 33 66
        E 0 93 3e 5a
        E 0 9f 32 5a
        E 0 82 43 64
        E 1 83 3e 64
        E 0 86 3f 66
        E 0 8f 32 64
        E 0 92 3f 66
        E 0 93 3c 5a
        E 0 9f 30 5a
        E 0 82 48 64
        E 0 92 43 64
        E 0 82 3f 66
        E 0 83 3c 64
        E 0 8f 30 64
        E 0 93 3c 5a
        E 0 9f 30 5a
        E 0 92 48 64
        E 0 82 43 64
        E 0 83 3c 64
        E 0 8f 30 64
        E 0 92 3f 66
        E 0 93 3c 5a
        E 0 96 48 64
        E 0 9f 30 5a
        E 0 82 48 64
        E 0 92 43 64
        E 0 82 3f 66
        E 0 83 3c 64
        E 0 8f 30 64
        E 0 93 3c 5a
        E 0 9f 30 5a
        E 0 92 48 64
        E 0 82 43 64
        E 0 83 3c 64
        E 0 86 48 64
        E 0 8f 30 64
        E 0 92 41 64
        E 0 93 41 5a
        E 0 96 41 64
        E 0 9f 35 5a
        E 0 82 48 64
        E 0 92 44 66
        E 0 82 41 64
        E 0 86 41 64
        E 0 96 44 66
        E 0 92 48 64
        E 0 82 44 66
        E 0 83 41 64
        E 0 86 44 66
        E 0 8f 35 64
        E 0 92 41 64
        E 0 93 41 5a
        E 0 96 43 64
        E 0 9f 35 5a
        E 0 82 48 64
        E 0 92 44 66
        E 0 82 41 64
        E 0 86 43 64
        E 0 96 41 64
        E 0 92 48 64
        E 0 82 44 66
        E 1 83 41 64
        E 0 86 41 64
        E 0 8f 35 64
        E 0 92 41 64
        E 0 93 43 5a
        E 0 96 43 64
        E 0 9f 37 5a
        E 0 82 48 64
        E 0 92 47 64
        E 0 82 41 64
        E 0 92 4a 64
        E 0 82 47 64
        E 0 83 43 64
        E 0 86 43 64
        E 0 8f 37 64
        E 0 92 41 64
        E 0 93 43 5a
        E 0 96 43 64
        E 0 9f 37 5a
        E 0 82 4a 64
        E 0 92 47 64
        E 0 82 41 64
        E 0 92 4a 64
        E 0 82 47 64
        E 0 83 43 64
        E 0 86 43 64
        E 0 8f 37 64
        E 0 92 3f 66
        E 0 93 48 5a
        E 0 96 3c 64
        E 0 9f 3c 5a
        E 0 82 4a 64
        E 0 92 43 64
        E 0 82 3f 66
        E 0 83 48 64
        E 0 8f 3c 64
        E 0 93 46 5b
        E 0 9f 3a 5b
        E 0 92 48 64
        E 0 83 46 66
        E 0 8f 3a 66
        E 0 93 44 5b
        E 0 9f 38 5b
        E 0 82 43 64
        E 0 83 44 66
        E 0 8f 38 66
        E 0 92 3f 66
        E 0 93 43 5a
        E 0 9f 37 5a
        E 0 82 48 64
        E 0 83 43 64
        E 0 8f 37 64
        E 0 93 41 5a
        E 0 9f 35 5a
        E 0 92 43 64
        E 0 82 3f 66
        E 0 83 41 64
        E 0 8f 35 64
        E 0 93 3f 5b
        E 0 9f 33 5b
        E 0 92 48 64
        E 0 83 3f 66
        E 0 8f 33 66
        E 0 93 3e 5a
        E 0 9f 32 5a
        E 0 82 43 64
        E 0 83 3e 64
        E 0 86 3c 64
        E 0 8f 32 64
        E 0 92 3f 66
        E 0 93 3c 5a
        E 0 9f 30 5a
        E 0 82 48 64
        E 0 92 43 64
        E 1 82 3f 66
        E 0 83 3c 64
        E 0 8f 30 64
        E 0 93 3c 5a
        E 0 9f 30 5a
        E 0 92 48 64
        E 0 82 43 64
        E 0 83 3c 64
        E 0 8f 30 64
        E 0 92 3f 66
        E 0 93 3c 5a
        E 0 96 48 64
        E 0 9f 30 5a
        E 0 82 48 64
        E 0 92 43 64
        E 0 82 3f 66
        E 0 83 3c 64
        E 0 8f 30 64
        E 0 93 3c 5a
        E 0 9f 30 5a
        E 0 92 48 64
        E 0 82 43 64
        E 0 83 3c 64
        E 0 86 48 64
        E 0 8f 30 64
        E 0 92 41 64
        E 0 93 41 5a
        E 0 96 41 64
        E 0 9f 35 5a
        E 0 82 48 64
        E 0 92 44 66
        E 0 82 41 64
        E 0 86 41 64
        E 0 96 44 66
        E 0 92 48 64
        E 0 82 44 66
        E 0 83 41 64
        E 0 86 44 66
        E 0 8f 35 64
        E 0 92 41 64
        E 0 93 41 5a
        E 0 96 43 64
        E 0 9f 35 5a
        E 0 82 48 64
        E 0 92 44 66
        E 0 82 41 64
        E 0 86 43 64
        E 0 96 41 64
        E 0 92 48 64
        E 0 82 44 66
        E 0 83 41 64
        E 0 86 41 64
        E 0 8f 35 64
        E 0 92 43 64
        E 0 93 43 5a
        E 0 96 43 64
        E 0 9f 37 5a
        E 0 82 48 64
        E 0 92 47 64
        E 0 82 43 64
        E 0 92 4a 64
        E 0 82 47 64
        E 0 83 43 64
        E 0 86 43 64
        E 0 8f 37 64
        E 0 92 43 64
        E 0 93 43 5a
        E 0 96 43 64
        E 0 9f 37 5a
        E 0 82 4a 64
        E 0 92 47 64
        E 1 82 43 64
        E 0 92 4a 64
        E 0 82 47 64
        E 0 83 43 64
        E 0 86 43 64
        E 0 8f 37 64
        E 0 92 48 64
        E 0 93 48 5a
        E 0 96 3c 64
        E 0 9f 3c 5a
        E 0 82 4a 64
        E 0 82 48 64
        E 0 83 48 64
        E 0 8f 3c 64
        E 0 92 46 66
        E 0 93 46 5b
        E 0 9f 3a 5b
        E 0 82 46 66
        E 0 83 46 66
        E 0 8f 3a 66
        E 0 92 44 66
        E 0 93 44 5b
        E 0 9f 38 5b
        E 0 82 44 66
        E 0 83 44 66
        E 0 8f 38 66
        E 0 92 43 64
        E 1 93 43 5a
        E 0 9f 37 5a
        E 0 82 43 64
        E 0 83 43 64
        E 0 8f 37 64
        E 0 92 41 64
        E 0 93 41 5a
        E 0 9f 35 5a
        E 0 82 41 64
        E 0 83 41 64
        E 0 8f 35 64
        E 0 92 3f 66
        E 0 93 3f 5b
        E 0 9f 33 5b
        E 0 82 3f 66
        E 0 83 3f 66
        E 0 8f 33 66
        E 0 92 3e 64
        E 0 93 3e 5a
        E 0 9f 32 5a
        E 0 82 3e 64
        E 0 83 3e 64
        E 0 86 3c 64
        E 0 8f 32 64
        E 0 92 3c 64
        E 0 93 3c 5a
        E 0 9f 30 5a
        E 0 82 3c 64
        E 0 83 3c 64
        E 0 8f 30 64
        E 0 92 3c 64
        E 0 93 3c 5a
        E 0 9f 30 5a
        E 0 82 3c 64
        E 0 83 3c 64
        E 0 8f 30 64
        E 0 92 3c 64
        E 0 93 3c 5a
        E 0 9f 30 5a
        E 0 82 3c 64
        E 0 83 3c 64
        E 0 8f 30 64
        E 0 92 3c 64
        E 0 93 3c 5a
        E 0 9f 30 5a
        E 0 82 3c 64
        E 0 83 3c 64
        E 0 8f 30 64
        E 0 92 4d 64
        E 0 93 4d 5a
        E 0 9f 41 5a
        E 3716 82 4d 64
        E 0 83 4d 64
        E 0 8f 41 64
        E 0 92 4b 66
        E 0 93 4b 5b
        E 0 9f 3f 5b
        E 0 82 4b 66
        E 0 83 4b 66
        E 0 8f 3f 66
        E 0 92 4a 64
        E 0 93 4a 5a
        E 0 9f 3e 5a
        E 0 82 4a 64
        E 0 83 4a 64
        E 1 8f 3e 64
        E 1 92 48 64
        E 0 93 48 5a
        E 0 9f 3c 5a
        E 0 82 48 64
        E 0 83 48 64
        E 0 8f 3c 64
        E 0 92 46 66
        E 0 93 46 5b
        E 0 9f 3a 5b
        E 0 82 46 66
        E 0 83 46 66
        E 0 8f 3a 66
        E 0 92 44 66
        E 1 93 44 5b
        E 0 9f 38 5b
        E 0 82 44 66
        E 0 83 44 66
        E 0 8f 38 66
        E 0 92 43 64
        E 0 93 43 5a
        E 0 9f 37 5a
        E 0 82 43 64
        E 0 83 43 64
        E 0 8f 37 64
        E 0 92 41 64
        E 0 93 41 5a
        E 0 9f 35 5a
        E 0 82 41 64
        E 0 83 41 64
        E 0 8f 35 64
        E 1 92 41 64
        E 0 93 41 5a
        E 0 9f 35 5a
        E 0 82 41 64
        E 0 83 41 64
        E 0 8f 35 64
        E 0 92 41 64
        E 0 93 41 5a
        E 0 9f 35 5a
        E 0 82 41 64
        E 2 83 41 64
        E 0 8f 35 64
        E 0 92 41 64
        E 0 93 41 5a
        E 0 9f 35 5a
        E 0 82 41 64
        E 0 83 41 64
        E 0 8f 35 64
        E 0 92 46 66
        E 0 93 46 5b
        E 0 9f 3a 5b
        E 0 82 46 66
        E 0 83 46 66
        E 0 8f 3a 66
        E 0 92 44 66
        E 0 93 44 5b
        E 0 9f 38 5b
        E 0 82 44 66
        E 0 83 44 66
        E 0 8f 38 66
        E 0 92 43 64
        E 1 93 43 5a
        E 0 9f 37 5a
        E 0 82 43 64
        E 0 83 43 64
        E 0 8f 37 64
        E 0 92 41 64
        E 0 93 41 5a
        E 0 9f 35 5a
        E 0 82 41 64
        E 0 83 41 64
        E 0 8f 35 64
        E 0 92 3f 66
        E 0 93 3f 5b
        E 0 9f 33 5b
        E 0 82 3f 66
        E 0 83 3f 66
        E 0 8f 33 66
        E 0 92 3e 64
        E 0 93 3e 5a
        E 0 9f 32 5a
        E 0 82 3e 64
        E 0 83 3e 64
        E 0 8f 32 64
        E 0 92 3c 64
        E 0 93 3c 5a
        E 1 9f 30 5a
        E 0 82 3c 64
        E 0 83 3c 64
        E 0 8f 30 64
        E 0 92 3a 66
        E 0 93 3a 5b
        E 0 9f 2e 5b
        E 0 82 3a 66
        E 0 83 3a 66
        E 0 8f 2e 66
        E 0 92 3a 66
        E 0 93 3a 5b
        E 0 9f 2e 5b
        E 0 82 3a 66
        E 0 83 3a 66
        E 0 8f 2e 66
        E 1 92 3a 66
        E 0 93 3a 5b
        E 0 9f 2e 5b
        E 0 82 3a 66
        E 0 83 3a 66
        E 0 8f 2e 66
        E 0 92 3a 66
        E 0 93 3a 5b
        E 0 9f 2e 5b
        E 0 82 3a 66
        E 0 83 3a 66
        E 0 8f 2e 66
        E 0 92 4b 66
        E 0 93 4b 5b
        E 0 9f 3f 5b
        E 370 82 4b 66
        E 1 83 4b 66
        E 1 8f 3f 66
        E 0 92 4a 64
        E 2 93 4a 5a
        E 0 9f 3e 5a
        E 0 82 4a 64
        E 0 83 4a 64
        E 0 8f 3e 64
        E 0 92 48 64
        E 0 93 48 5a
        E 0 9f 3c 5a
        E 183 82 48 64
        E 0 83 48 64
        E 0 8f 3c 64
        E 0 92 46 66
        E 0 93 46 5b
        E 0 9f 3a 5b
        E 188 82 46 66
        E 0 83 46 66
        E 0 8f 3a 66
        E 0 92 44 66
        E 1 93 44 5b
        E 0 9f 38 5b
        E 0 82 44 66
        E 0 83 44 66
        E 0 8f 38 66
        E 0 92 43 64
        E 0 93 43 5a
        E 0 9f 37 5a
        E 188 82 43 64
        E 0 83 43 64
        E 0 8f 37 64
        E 0 92 41 64
        E 0 93 41 5a
        E 0 9f 35 5a
        E 188 82 41 64
        E 0 83 41 64
        E 0 8f 35 64
        E 0 92 3f 66
        E 1 93 3f 5b
        E 0 9f 33 5b
        E 186 82 3f 66
        E 0 83 3f 66
        E 0 8f 33 66
        E 1 92 3f 66
        E 0 93 3f 5b
        E 0 9f 33 5b
        E 187 82 3f 66
        E 1 83 3f 66
        E 0 8f 33 66
        E 0 92 3f 66
        E 0 93 3f 5b
        E 0 9f 33 5b
        E 189 82 3f 66
        E 0 83 3f 66
        E 0 8f 33 66
        E 1 92 3f 66
        E 0 93 3f 5b
        E 0 9f 33 5b
        E 387 82 3f 66
        E 0 83 3f 66
        E 0 8f 33 66
        E 0 92 3f 66
        E 1 93 3f 5b
        E 0 9f 33 5b
        E 175 92 43 64
        E 0 82 3f 66
        E 0 92 48 64
        E 187 82 43 64
        E 0 83 3f 66
        E 0 8f 33 66
        E 1 92 3f 66
        E 0 93 3f 5b
        E 0 9f 33 5b
        E 189 82 48 64
        E 0 92 43 64
        E 192 82 3f 66
        E 1 92 48 64
        E 0 82 43 64
        E 183 83 3f 66
        E 0 8f 33 66
        E 1 92 3f 66
        E 0 93 3f 5b
        E 0 9f 33 5b
        E 0 82 48 64
        E 198 92 43 64
        E 0 82 3f 66
        E 0 92 48 64
        E 177 82 43 64
        E 0 83 3f 66
        E 0 8f 33 66
        E 4 92 3f 66
        E 0 93 3f 5b
        E 3 9f 33 5b
        E 195 82 48 64
        E 0 92 43 64
        E 174 82 3f 66
        E 0 92 48 64
        E 189 82 43 64
        E 0 83 3f 66
        E 0 8f 33 66
        E 0 92 41 64
        E 0 93 41 5a
        E 0 9f 35 5a
        E 0 82 48 64
        E 187 92 44 66
        E 1 82 41 64
        E 190 92 48 64
        E 0 82 44 66
        E 0 83 41 64
        E 0 8f 35 64
        E 0 92 41 64
        E 0 93 41 5a
        E 0 9f 35 5a
        E 186 82 48 64
        E 1 92 44 66
        E 188 82 41 64
        E 1 92 48 64
        E 193 82 44 66
        E 0 83 41 64
        E 1 8f 35 64
        E 0 92 41 64
        E 0 93 41 5a
        E 0 9f 35 5a
        E 0 82 48 64
        E 181 92 44 66
        E 0 82 41 64
        E 195 92 48 64
        E 0 82 44 66
        E 180 83 41 64
        E 0 8f 35 64
        E 0 92 41 64
        E 0 93 41 5a
        E 1 9f 35 5a
        E 0 82 48 64
        E 0 92 44 66
        E 189 82 41 64
        E 1 92 48 64
        E 188 82 44 66
        E 0 83 41 64
        E 0 8f 35 64
        E 0 92 43 64
        E 0 93 43 5a
        E 0 9f 37 5a
        E 188 82 48 64
        E 0 92 47 64
        E 2 82 43 64
        E 197 92 4a 64
        E 4 82 47 64
        E 178 83 43 64
        E 0 8f 37 64
        E 0 92 43 64
        E 0 93 43 5a
        E 0 9f 37 5a
        E 0 82 4a 64
        E 184 92 47 64
        E 0 82 43 64
        E 0 92 4a 64
        E 193 82 47 64
        E 0 83 43 64
        E 0 8f 37 64
        E 1 92 43 64
        E 1 93 43 5a
        E 0 9f 37 5a
        E 188 82 4a 64
        E 1 92 47 64
        E 0 82 43 64
        E 191 92 4a 64
        E 0 82 47 64
        E 187 83 43 64
        E 0 8f 37 64
        E 0 92 43 64
        E 0 93 43 5a
        E 0 9f 37 5a
        E 0 82 4a 64
        E 178 92 47 64
        E 1 82 43 64
        E 0 92 4a 64
        E 188 82 47 64
        E 2 83 43 64
        E 1 8f 37 64
        E 0 92 3c 64
        E 0 93 3c 5a
        E 0 9f 30 5a
        E 195 82 4a 64
        E 1308 82 3c 64
        E 0 83 3c 64
        E 0 8f 30 64
        E 38797 92 3f 66
        E 0 93 3f 5b
        E 0 96 3f 66
        E 0 9f 33 5b
        E 0 82 3f 66
        E 0 83 3f 66
        E 0 86 3f 66
        E 0 8f 33 66
        E 0 92 43 64
        E 0 93 43 5a
        E 0 96 43 64
        E 0 9f 37 5a
        E 0 82 43 64
        E 0 83 43 64
        E 0 86 43 64
        E 0 8f 37 64
        E 0 92 46 66
        E 0 93 46 5b
        E 0 96 46 66
        E 0 9f 3a 5b
        E 0 82 46 66
        E 0 83 46 66
        E 0 86 46 66
        E 0 8f 3a 66
        E 0 92 4b 66
        E 0 93 4b 5b
        E 0 96 4b 66
        E 0 9f 3f 5b
        E 0 82 4b 66
        E 0 83 4b 66
        E 0 86 4b 66
        E 0 8f 3f 66
        E 0 92 4a 64
        E 0 93 4a 5a
        E 0 96 4a 64
        E 0 9f 3e 5a
        E 0 82 4a 64
        E 0 83 4a 64
        E 0 86 4a 64
        E 0 8f 3e 64
        E 1 92 48 64
        E 0 93 48 5a
        E 0 96 48 64
        E 0 9f 3c 5a
        E 0 82 48 64
        E 0 83 48 64
        E 0 86 48 64
        E 0 8f 3c 64
        E 0 92 46 66
        E 0 93 46 5b
        E 0 96 46 66
        E 0 9f 3a 5b
        E 0 82 46 66
        E 0 83 46 66
        E 0 86 46 66
        E 0 8f 3a 66
        E 0 92 44 66
        E 0 93 44 5b
        E 0 96 44 66
        E 0 9f 38 5b
        E 0 82 44 66
        E 0 83 44 66
        E 0 86 44 66
        E 0 8f 38 66
        E 0 92 43 64
        E 0 93 43 5a
        E 0 96 43 64
        E 0 9f 37 5a
        E 0 82 43 64
        E 0 83 43 64
        E 0 86 43 64
        E 0 8f 37 64
        E 0 92 41 64
        E 0 93 41 5a
        E 0 96 41 64
        E 0 9f 35 5a
        E 0 82 41 64
        E 0 83 41 64
        E 0 86 41 64
        E 0 8f 35 64
        E 0 92 3f 66
        E 0 93 3f 5b
        E 0 96 3f 66
        E 0 9f 33 5b
        E 0 82 3f 66
        E 0 83 3f 66
        E 0 8f 33 66
        E 0 92 3f 66
        E 0 93 3f 5b
        E 0 9f 33 5b
        E 0 82 3f 66
        E 0 83 3f 66
        E 0 86 3f 66
        E 0 8f 33 66
        E 0 92 3f 66
        E 0 93 3f 5b
        E 0 9f 33 5b
        E 0 82 3f 66
        E 0 83 3f 66
        E 0 8f 33 66
        E 0 92 3f 66
        E 0 93 3f 5b
        E 0 9f 33 5b
        E 0 82 3f 66
        E 0 83 3f 66
        E 0 8f 33 66
        E 0 92 3f 66
        E 0 93 3f 5b
        E 0 96 3f 66
        E 1 9f 33 5b
        E 0 82 3f 66
        E 0 83 3f 66
        E 0 86 3f 66
        E 0 8f 33 66
        E 0 92 43 64
        E 0 93 43 5a
        E 0 96 43 64
        E 0 9f 37 5a
        E 0 82 43 64
        E 0 83 43 64
        E 0 86 43 64
        E 0 8f 37 64
        E 0 92 46 66
        E 0 93 46 5b
        E 0 96 46 66
        E 0 9f 3a 5b
        E 0 82 46 66
        E 0 83 46 66
        E 0 86 46 66
        E 0 8f 3a 66
        E 0 92 4b 66
        E 0 93 4b 5b
        E 0 96 4b 66
        E 0 9f 3f 5b
        E 0 82 4b 66
        E 0 83 4b 66
        E 0 86 4b 66
        E 0 8f 3f 66
        E 0 92 46 66
        E 0 93 46 5b
        E 0 96 46 66
        E 0 9f 3a 5b
        E 0 82 46 66
        E 0 83 46 66
        E 0 86 46 66
        E 0 8f 3a 66
        E 0 92 43 64
        E 0 93 43 5a
        E 0 96 43 64
        E 0 9f 37 5a
        E 0 82 43 64
        E 0 83 43 64
        E 0 86 43 64
        E 0 8f 37 64
        E 0 92 3f 66
        E 0 93 3f 5b
        E 0 96 3f 66
        E 0 9f 33 5b
        E 0 82 3f 66
        E 0 83 3f 66
        E 0 86 3f 66
        E 0 8f 33 66
        E 0 92 43 64
        E 0 93 43 5a
        E 0 96 43 64
        E 0 9f 37 5a
        E 0 82 43 64
        E 0 83 43 64
        E 0 86 43 64
        E 0 8f 37 64
        E 0 92 46 66
        E 0 93 46 5b
        E 0 96 46 66
        E 0 9f 3a 5b
        E 0 82 46 66
        E 0 83 46 66
        E 0 86 46 66
        E 0 8f 3a 66
        E 0 92 4b 66
        E 0 93 4b 5b
        E 0 96 4b 66
        E 0 9f 3f 5b
        E 0 82 4b 66
        E 0 83 4b 66
        E 0 86 4b 66
        E 0 8f 3f 66
        E 0 92 46 66
        E 0 93 46 5b
        E 0 96 46 66
        E 0 9f 3a 5b
        E 0 82 46 66
        E 0 83 46 66
        E 0 86 46 66
        E 0 8f 3a 66
        E 0 92 43 64
        E 0 93 43 5a
        E 0 96 43 64
        E 0 9f 37 5a
        E 0 82 43 64
        E 0 83 43 64
        E 0 86 43 64
        E 0 8f 37 64
        E 1 92 3f 66
        E 0 93 3f 5b
        E 0 96 3f 66
        E 0 9f 33 5b
        E 0 82 3f 66
        E 0 83 3f 66
        E 0 86 3f 66
        E 0 8f 33 66
        E 0 92 41 64
        E 0 93 41 5a
        E 0 96 41 64
        E 0 9f 35 5a
        E 0 82 41 64
        E 0 83 41 64
        E 0 86 41 64
        E 0 8f 35 64
        E 0 92 43 64
        E 0 93 43 5a
        E 0 96 43 64
        E 0 9f 37 5a
        E 0 82 43 64
        E 0 83 43 64
        E 0 86 43 64
        E 0 8f 37 64
        E 0 92 44 66
        E 0 93 44 5b
        E 0 96 44 66
        E 0 9f 38 5b
        E 0 82 44 66
        E 0 83 44 66
        E 0 86 44 66
        E 0 8f 38 66
        E 0 92 46 66
        E 0 93 46 5b
        E 0 96 46 66
        E 0 9f 3a 5b
        E 0 82 46 66
        E 0 83 46 66
        E 0 86 46 66
        E 0 8f 3a 66
        E 0 92 48 64
        E 0 93 48 5a
        E 0 96 48 64
        E 0 9f 3c 5a
        E 0 82 48 64
        E 0 83 48 64
        E 0 86 48 64
        E 0 8f 3c 64
        E 1 92 3e 64
        E 0 93 3e 5a
        E 0 96 3e 64
        E 0 9f 32 5a
        E 0 82 3e 64
        E 0 83 3e 64
        E 0 8f 32 64
        E 0 92 3a 66
        E 0 93 3a 5b
        E 0 9f 2e 5b
        E 0 82 3a 66
        E 0 83 3a 66
        E 0 86 3e 64
        E 0 8f 2e 66
        E 0 92 3a 66
        E 0 93 3a 5b
        E 0 96 3a 66
        E 0 9f 2e 5b
        E 0 82 3a 66
        E 0 83 3a 66
        E 0 8f 2e 66
        E 0 92 3a 66
        E 0 93 3a 5b
        E 0 9f 2e 5b
        E 0 82 3a 66
        E 0 83 3a 66
        E 0 86 3a 66
        E 0 8f 2e 66
        E 0 92 3a 66
        E 0 93 3a 5b
        E 0 9f 2e 5b
        E 0 82 3a 66
        E 0 83 3a 66
        E 0 8f 2e 66
        E 0 92 3a 66
        E 0 93 3a 5b
        E 0 9f 2e 5b
        E 0 82 3a 66
        E 0 83 3a 66
        E 0 8f 2e 66
        E 0 92 46 66
        E 0 93 46 5b
        E 0 96 46 66
        E 0 9f 3a 5b
        E 0 82 46 66
        E 0 83 46 66
        E 0 8f 3a 66
        E 0 92 3f 66
        E 0 93 3f 5b
        E 0 9f 33 5b
        E 0 82 3f 66
        E 0 83 3f 66
        E 0 86 46 66
        E 0 8f 33 66
        E 0 92 3f 66
        E 0 93 3f 5b
        E 0 96 3f 66
        E 0 9f 33 5b
        E 0 82 3f 66
        E 0 83 3f 66
        E 0 86 3f 66
        E 0 8f 33 66
        E 0 92 3f 66
        E 0 93 3f 5b
        E 0 96 3f 66
        E 0 9f 33 5b
        E 0 82 3f 66
        E 0 83 3f 66
        E 0 86 3f 66
        E 0 8f 33 66
        E 0 92 3f 66
        E 0 93 3f 5b
        E 0 96 3f 66
        E 0 9f 33 5b
        E 0 82 3f 66
        E 0 83 3f 66
        E 0 86 3f 66
        E 0 8f 33 66
        E 0 92 3f 66
        E 0 93 3f 5b
        E 0 96 46 66
        E 0 9f 33 5b
        E 0 82 3f 66
        E 0 83 3f 66
        E 0 86 46 66
        E 0 8f 33 66
        E 0 92 44 66
        E 0 93 44 5b
        E 0 96 48 64
        E 0 9f 38 5b
        E 0 82 44 66
        E 0 83 44 66
        E 0 86 48 64
        E 0 8f 38 66
        E 0 92 38 66
        E 0 93 38 5b
        E 1 96 46 66
        E 0 9f 2c 5b
        E 0 82 38 66
        E 0 83 38 66
        E 0 86 46 66
        E 0 8f 2c 66
        E 0 92 38 66
        E 0 93 38 5b
        E 0 96 44 66
        E 0 9f 2c 5b
        E 0 82 38 66
        E 0 83 38 66
        E 0 8f 2c 66
        E 0 92 38 66
        E 0 93 38 5b
        E 0 9f 2c 5b
        E 0 82 38 66
        E 0 83 38 66
        E 0 86 44 66
        E 0 8f 2c 66
        E 0 92 38 66
        E 0 93 38 5b
        E 0 9f 2c 5b
        E 0 82 38 66
        E 0 83 38 66
        E 0 8f 2c 66
        E 0 92 38 66
        E 0 93 38 5b
        E 0 9f 2c 5b
        E 0 82 38 66
        E 0 83 38 66
        E 0 8f 2c 66
        E 0 92 3c 64
        E 0 93 3c 5a
        E 0 96 44 66
        E 0 9f 30 5a
        E 0 82 3c 64
        E 0 83 3c 64
        E 0 8f 30 64
        E 0 92 3c 64
        E 0 93 3c 5a
        E 0 9f 30 5a
        E 0 82 3c 64
        E 0 83 3c 64
        E 0 8f 30 64
        E 0 92 3c 64
        E 0 93 3c 5a
        E 0 9f 30 5a
        E 0 82 3c 64
        E 0 83 3c 64
        E 0 8f 30 64
        E 0 92 3c 64
        E 0 93 3c 5a
        E 0 9f 30 5a
        E 0 82 3c 64
        E 0 83 3c 64
        E 0 8f 30 64
        E 0 92 3c 64
        E 0 93 3c 5a
        E 0 9f 30 5a
        E 0 82 3c 64
        E 0 83 3c 64
        E 0 8f 30 64
        E 0 92 3c 64
        E 0 93 3c 5a
        E 0 9f 30 5a
        E 0 82 3c 64
        E 0 83 3c 64
        E 0 86 44 66
        E 0 8f 30 64
        E 0 92 3d 66
        E 0 93 3d 5b
        E 0 96 44 66
        E 0 9f 31 5b
        E 0 82 3d 66
        E 0 83 3d 66
        E 0 8f 31 66
        E 0 92 3d 66
        E 0 93 3d 5b
        E 0 9f 31 5b
        E 0 82 3d 66
        E 0 83 3d 66
        E 0 8f 31 66
        E 0 92 3d 66
        E 0 93 3d 5b
        E 0 9f 31 5b
        E 0 82 3d 66
        E 0 83 3d 66
        E 0 8f 31 66
        E 0 92 3d 66
        E 0 93 3d 5b
        E 0 9f 31 5b
        E 0 82 3d 66
        E 0 83 3d 66
        E 0 86 44 66
        E 0 8f 31 66
        E 0 92 3d 66
        E 0 93 3d 5b
        E 0 96 44 66
        E 0 9f 31 5b
        E 0 82 3d 66
        E 0 83 3d 66
        E 0 8f 31 66
        E 1 92 3d 66
        E 0 93 3d 5b
        E 0 9f 31 5b
        E 0 82 3d 66
        E 0 83 3d 66
        E 0 86 44 66
        E 0 8f 31 66
        E 0 92 3f 66
        E 0 93 3f 5b
        E 0 96 43 64
        E 0 9f 33 5b
        E 0 82 3f 66
        E 0 83 3f 66
        E 0 8f 33 66
        E 0 92 3f 66
        E 0 93 3f 5b
        E 0 9f 33 5b
        E 0 82 3f 66
        E 0 83 3f 66
        E 0 8f 33 66
        E 0 92 3f 66
        E 0 93 3f 5b
        E 0 9f 33 5b
        E 0 82 3f 66
        E 0 83 3f 66
        E 0 8f 33 66
        E 0 92 3f 66
        E 0 93 3f 5b
        E 0 9f 33 5b
        E 0 82 3f 66
        E 0 83 3f 66
        E 0 86 43 64
        E 0 8f 33 66
        E 0 92 3f 66
        E 0 93 3f 5b
        E 0 96 44 66
        E 0 9f 33 5b
        E 0 82 3f 66
        E 0 83 3f 66
        E 0 8f 33 66
        E 0 92 3f 66
        E 0 93 3f 5b
        E 0 9f 33 5b
        E 0 82 3f 66
        E 0 83 3f 66
        E 0 86 44 66
        E 0 8f 33 66
        E 0 92 38 66
        E 0 93 38 5b
        E 0 96 44 66
        E 0 9f 2c 5b
        E 0 82 38 66
        E 0 83 38 66
        E 0 8f 2c 66
        E 0 92 38 66
        E 0 93 38 5b
        E 0 9f 2c 5b
        E 0 82 38 66
        E 0 83 38 66
        E 0 8f 2c 66
        E 0 92 3c 64
        E 0 93 3c 5a
        E 0 9f 30 5a
        E 0 82 3c 64
        E 0 83 3c 64
        E 0 8f 30 64
        E 0 92 3c 64
        E 0 93 3c 5a
        E 0 9f 30 5a
        E 0 82 3c 64
        E 0 83 3c 64
        E 0 86 44 66
        E 0 8f 30 64
        E 0 92 3f 66
        E 0 93 3f 5b
        E 0 9f 33 5b
        E 0 82 3f 66
        E 0 83 3f 66
        E 0 8f 33 66
        E 0 92 3f 66
        E 0 93 3f 5b
        E 0 9f 33 5b
        E 0 82 3f 66
        E 0 83 3f 66
        E 0 8f 33 66
        E 0 92 4b 66
        E 1 93 4b 5b
        E 0 96 4b 66
        E 0 9f 3f 5b
        E 0 82 4b 66
        E 0 83 4b 66
        E 0 8f 3f 66
        E 0 92 4b 66
        E 0 93 4b 5b
        E 0 9f 3f 5b
        E 0 82 4b 66
        E 0 83 4b 66
        E 0 8f 3f 66
        E 0 92 4b 66
        E 0 93 4b 5b
        E 0 9f 3f 5b
        E 0 82 4b 66
        E 0 83 4b 66
        E 0 8f 3f 66
        E 0 92 4b 66
        E 0 93 4b 5b
        E 0 9f 3f 5b
        E 0 82 4b 66
        E 0 83 4b 66
        E 0 8f 3f 66
        E 0 92 4b 66
        E 0 93 4b 5b
        E 0 9f 3f 5b
        E 0 82 4b 66
        E 0 83 4b 66
        E 0 8f 3f 66
        E 0 92 4b 66
        E 0 93 4b 5b
        E 0 9f 3f 5b
        E 0 82 4b 66
        E 0 83 4b 66
        E 0 86 4b 66
        E 0 8f 3f 66
        E 0 92 48 64
        E 0 93 48 5a
        E 0 96 48 64
        E 0 9f 3c 5a
        E 0 82 48 64
        E 0 83 48 64
        E 0 8f 3c 64
        E 0 92 48 64
        E 0 93 48 5a
        E 0 9f 3c 5a
        E 0 82 48 64
        E 0 83 48 64
        E 0 8f 3c 64
        E 0 92 48 64
        E 0 93 48 5a
        E 0 9f 3c 5a
        E 0 82 48 64
        E 0 83 48 64
        E 0 8f 3c 64
        E 0 92 48 64
        E 0 93 48 5a
        E 0 9f 3c 5a
        E 0 82 48 64
        E 0 83 48 64
        E 0 8f 3c 64
        E 0 92 48 64
        E 0 93 48 5a
        E 0 9f 3c 5a
        E 0 82 48 64
        E 0 83 48 64
        E 0 8f 3c 64
        E 0 92 48 64
        E 0 93 48 5a
        E 0 9f 3c 5a
        E 0 82 48 64
        E 0 83 48 64
        E 0 86 48 64
        E 0 8f 3c 64
        E 0 92 44 66
        E 0 93 44 5b
        E 0 96 44 66
        E 0 9f 38 5b
        E 0 82 44 66
        E 0 83 44 66
        E 0 8f 38 66
        E 0 92 44 66
        E 0 93 44 5b
        E 0 9f 38 5b
        E 0 82 44 66
        E 0 83 44 66
        E 0 8f 38 66
        E 0 92 44 66
        E 0 93 44 5b
        E 0 9f 38 5b
        E 0 82 44 66
        E 0 83 44 66
        E 0 8f 38 66
        E 0 92 44 66
        E 0 93 44 5b
        E 0 9f 38 5b
        E 0 82 44 66
        E 0 83 44 66
        E 0 8f 38 66
        E 0 92 44 66
        E 1 93 44 5b
        E 0 9f 38 5b
        E 0 82 44 66
        E 0 83 44 66
        E 0 8f 38 66
        E 0 92 44 66
        E 0 93 44 5b
        E 0 9f 38 5b
        E 0 82 44 66
        E 0 83 44 66
        E 0 86 44 66
        E 0 8f 38 66
        E 0 92 3f 66
        E 0 93 3f 5b
        E 0 96 3f 66
        E 0 9f 33 5b
        E 0 82 3f 66
        E 0 83 3f 66
        E 0 8f 33 66
        E 0 92 3f 66
        E 0 93 3f 5b
        E 0 9f 33 5b
        E 0 82 3f 66
        E 0 83 3f 66
        E 0 86 3f 66
        E 0 8f 33 66
        E 0 92 3f 66
        E 0 93 3f 5b
        E 0 96 46 66
        E 0 9f 33 5b
        E 0 82 3f 66
        E 0 83 3f 66
        E 0 8f 33 66
        E 0 92 3f 66
        E 0 93 3f 5b
        E 0 9f 33 5b
        E 0 82 3f 66
        E 0 83 3f 66
        E 0 8f 33 66
        E 0 92 3f 66
        E 0 93 3f 5b
        E 0 9f 33 5b
        E 0 82 3f 66
        E 0 83 3f 66
        E 0 8f 33 66
        E 0 92 3f 66
        E 0 93 3f 5b
        E 0 9f 33 5b
        E 0 82 3f 66
        E 0 83 3f 66
        E 0 86 46 66
        E 0 8f 33 66
        E 0 92 38 66
        E 0 93 38 5b
        E 0 96 44 66
        E 0 9f 2c 5b
        E 0 82 38 66
        E 0 83 38 66
        E 0 86 44 66
        E 0 8f 2c 66
        E 0 97 4a 64
        E 0 9e 4a 64
        E 0 9f 32 5a
        E 0 87 4a 64
        E 0 8e 4a 64
        E 0 97 47 64
        E 0 9e 47 64
        E 0 87 47 64
        E 0 8e 47 64
        E 0 97 47 64
        E 0 9e 47 64
        E 0 87 47 64
        E 0 8e 47 64
        E 1 97 45 64
        E 0 9e 45 64
        E 0 87 45 64
        E 0 8e 45 64
        E 0 97 48 64
        E 0 9e 48 64
        E 0 87 48 64
        E 0 8e 48 64
        E 0 97 47 64
        E 0 9e 47 64
        E 0 87 47 64
        E 0 8e 47 64
        E 0 8f 32 64
        E 0 97 43 64
        E 0 9e 43 64
        E 0 9f 2b 5a
        E 0 87 43 64
        E 0 8e 43 64
        E 0 97 43 64
        E 0 9e 43 64
        E 0 87 43 64
        E 0 8e 43 64
        E 0 98 47 64
        E 0 9e 47 64
        E 0 88 47 64
        E 0 8e 47 64
        E 0 98 47 64
        E 0 9e 47 64
        E 0 88 47 64
        E 0 8e 47 64
        E 0 98 4a 64
        E 0 9e 4a 64
        E 0 88 4a 64
        E 0 8e 4a 64
        E 0 8f 2b 64
        E 0 98 43 64
        E 0 9e 43 64
        E 0 9f 2b 5a
        E 0 88 43 64
        E 0 8e 43 64
        E 0 98 43 64
        E 0 9e 43 64
        E 0 88 43 64
        E 0 8e 43 64
        E 0 98 43 64
        E 0 9e 43 64
        E 0 88 43 64
        E 1 8e 43 64
        E 0 98 43 64
        E 0 9e 43 64
        E 0 88 43 64
        E 0 8e 43 64
        E 0 98 47 64
        E 0 9e 47 64
        E 0 88 47 64
        E 0 8e 47 64
        E 0 98 47 64
        E 0 9e 47 64
        E 0 88 47 64
        E 0 8e 47 64
        E 0 98 48 64
        E 0 9e 48 64
        E 0 88 48 64
        E 0 8e 48 64
        E 0 8f 2b 64
        E 0 98 43 64
        E 0 9e 43 64
        E 0 9f 30 5a
        E 0 88 43 64
        E 0 8e 43 64
        E 0 98 43 64
        E 0 9e 43 64
        E 0 88 43 64
        E 0 8e 43 64
        E 0 98 48 64
        E 0 9e 48 64
        E 0 88 48 64
        E 0 8e 48 64
        E 0 98 48 64
        E 0 9e 48 64
        E 0 88 48 64
        E 0 8e 48 64
        E 0 98 4a 64
        E 0 9e 4a 64
        E 4312 88 4a 64
        E 1 8e 4a 64
        E 0 98 46 66
        E 0 9e 46 66
        E 1 88 46 66
        E 0 8e 46 66
        E 0 98 46 66
        E 0 9e 46 66
        E 0 88 46 66
        E 0 8e 46 66
        E 0 8f 30 64
        E 0 98 43 64
        E 0 9e 43 64
        E 1 9f 30 5a
        E 0 88 43 64
        E 0 8e 43 64
        E 0 98 43 64
        E 1 9e 43 64
        E 0 88 43 64
        E 0 8e 43 64
        E 0 98 43 64
        E 0 9e 43 64
        E 1 88 43 64
        E 0 8e 43 64
        E 0 98 43 64
        E 0 9e 43 64
        E 0 88 43 64
        E 0 8e 43 64
        E 0 98 45 64
        E 0 9e 45 64
        E 0 88 45 64
        E 0 8e 45 64
        E 0 98 46 66
        E 0 9e 46 66
        E 248 88 46 66
        E 0 8e 46 66
        E 1 98 46 66
        E 1 9e 46 66
        E 505 88 46 66
        E 0 8e 46 66
        E 250 98 46 66
        E 0 9e 46 66
        E 260 88 46 66
        E 0 8e 46 66
        E 0 98 48 64
        E 0 9e 48 64
        E 246 88 48 64
        E 0 8e 48 64
        E 1 98 4a 64
        E 0 9e 4a 64
        E 251 88 4a 64
        E 0 8e 4a 64
        E 0 8f 30 64
        E 0 98 46 66
        E 0 9e 46 66
        E 0 9f 30 5a
        E 506 88 46 66
        E 0 8e 46 66
        E 2 98 46 66
        E 0 9e 46 66
        E 503 88 46 66
        E 0 8e 46 66
        E 1 98 46 66
        E 0 9e 46 66
        E 251 88 46 66
        E 1 8e 46 66
        E 0 98 46 66
        E 0 9e 46 66
        E 251 88 46 66
        E 0 8e 46 66
        E 0 98 46 66
        E 0 9e 46 66
        E 268 88 46 66
        E 0 8e 46 66
        E 0 98 45 64
        E 1 9e 45 64
        E 237 88 45 64
        E 0 8e 45 64
        E 0 8f 30 64
        E 0 98 45 64
        E 0 9e 45 64
        E 0 9f 35 5a
        E 506 88 45 64
        E 1 8e 45 64
        E 2 98 45 64
        E 0 9e 45 64
        E 263 88 45 64
        E 0 8e 45 64
        E 997 8f 35 64
        E 0 98 48 64
        E 1 9e 48 64
        E 0 9f 35 5a
        E 504 88 48 64
        E 0 8e 48 64
        E 0 98 48 64
        E 0 9e 48 64
        E 252 88 48 64
        E 0 8e 48 64
        E 1 98 48 64
        E 0 9e 48 64
        E 251 88 48 64
        E 0 8e 48 64
        E 0 98 47 64
        E 0 9e 47 64
        E 506 88 47 64
        E 0 8e 47 64
        E 0 98 48 64
        E 0 9e 48 64
        E 509 88 48 64
        E 2 8e 48 64
        E 0 8f 35 64
        E 0 98 43 64
        E 0 9e 43 64
        E 0 9f 37 5a
        E 508 88 43 64
        E 0 8e 43 64
        E 0 98 43 64
        E 2 9e 43 64
        E 495 88 43 64
        E 0 8e 43 64
        E 0 8f 37 64
        E 1 9f 30 5a
        E 257 98 48 64
        E 1 9e 48 64
        E 246 88 48 64
        E 0 8e 48 64
        E 0 98 48 64
        E 0 9e 48 64
        E 255 88 48 64
        E 0 8e 48 64
        E 0 98 47 64
        E 1 9e 47 64
        E 2 88 47 64
        E 0 8e 47 64
        E 0 8f 30 64
        E 0 98 47 64
        E 1 9e 47 64
        E 1 9f 37 5a
        E 38662 88 47 64
        E 0 8e 47 64
        E 0 98 47 64
        E 1 9e 47 64
        E 0 88 47 64
        E 0 8e 47 64
        E 0 98 48 64
        E 0 9e 48 64
        E 0 88 48 64
        E 0 8e 48 64
        E 0 8f 37 64
        E 0 98 45 64
        E 0 9e 45 64
        E 0 9f 39 5a
        E 0 88 45 64
        E 0 8e 45 64
        E 0 98 45 64
        E 0 9e 45 64
        E 0 88 45 64
        E 0 8e 45 64
        E 0 98 4b 64
        E 0 9e 4b 64
        E 0 88 4b 64
        E 0 8e 4b 64
        E 0 98 4c 64
        E 0 9e 4c 64
        E 0 88 4c 64
        E 0 8e 4c 64
        E 0 8f 39 64
        E 0 98 47 64
        E 0 9e 47 64
        E 0 9f 3b 5a
        E 0 88 47 64
        E 0 8e 47 64
        E 0 98 47 64
        E 0 9e 47 64
        E 0 88 47 64
        E 0 8e 47 64
        E 0 8f 3b 64
        E 0 97 43 64
        E 0 9e 43 64
        E 0 9f 34 5a
        E 0 87 43 64
        E 0 8e 43 64
        E 0 97 43 64
        E 0 9e 43 64
        E 0 87 43 64
        E 0 8e 43 64
        E 0 97 45 64
        E 0 9e 45 64
        E 0 87 45 64
        E 0 8e 45 64
        E 0 8f 34 64
        E 0 97 47 64
        E 0 9e 47 64
        E 0 9f 34 5a
        E 0 87 47 64
        E 0 8e 47 64
        E 0 97 47 64
        E 1 9e 47 64
        E 0 87 47 64
        E 0 8e 47 64
        E 0 97 4c 64
        E 0 9e 4c 64
        E 0 87 4c 64
        E 0 8e 4c 64
        E 0 97 4c 64
        E 0 9e 4c 64
        E 0 87 4c 64
        E 0 8e 4c 64
        E 0 8f 34 64
        E 0 97 49 64
        E 0 9e 49 64
        E 0 9f 2e 5a
        E 0 87 49 64
        E 0 8e 49 64
        E 0 97 49 64
        E 0 9e 49 64
        E 0 87 49 64
        E 0 8e 49 64
        E 0 97 4a 64
        E 0 9e 4a 64
        E 0 87 4a 64
        E 0 8e 4a 64
        E 0 8f 2e 64
        E 0 97 47 64
        E 0 9e 47 64
        E 0 9f 2f 5a
        E 0 87 47 64
        E 0 8e 47 64
        E 0 8f 2f 64
        E 0 9f 2f 5a
        E 0 97 47 64
        E 0 9e 47 64
        E 0 87 47 64
        E 0 8e 47 64
        E 0 97 4a 64
        E 0 9e 4a 64
        E 0 87 4a 64
        E 0 8e 4a 64
        E 0 97 49 64
        E 0 9e 49 64
        E 0 87 49 64
        E 0 8e 49 64
        E 0 8f 2f 64
        E 0 97 49 64
        E 0 9e 49 64
        E 0 9f 35 59
        E 0 87 49 64
        E 0 8e 49 64
        E 0 97 49 64
        E 0 9e 49 64
        E 0 87 49 64
        E 0 8e 49 64
        E 0 8f 35 63
        E 0 97 49 64
        E 0 9e 49 64
        E 0 9f 35 59
        E 0 87 49 64
        E 0 8e 49 64
        E 0 97 4a 64
        E 0 9e 4a 64
        E 0 87 4a 64
        E 0 8e 4a 64
        E 0 97 47 64
        E 0 9e 47 64
        E 0 87 47 64
        E 0 8e 47 64
        E 0 97 47 64
        E 0 9e 47 64
        E 0 87 47 64
        E 0 8e 47 64
        E 0 97 49 64
        E 0 9e 49 64
        E 0 87 49 64
        E 0 8e 49 64
        E 0 8f 35 63
        E 0 97 45 64
        E 0 9e 45 64
        E 0 9f 36 5a
        E 0 87 45 64
        E 0 8e 45 64
        E 0 97 45 64
        E 0 9e 45 64
        E 0 87 45 64
        E 0 8e 45 64
        E 0 97 42 64
        E 0 9e 42 64
        E 1 8f 36 64
        E 0 87 42 64
        E 0 8e 42 64
        E 0 9f 36 5a
        E 0 97 45 64
        E 0 9e 45 64
        E 0 87 45 64
        E 0 8e 45 64
        E 0 97 45 64
        E 0 9e 45 64
        E 0 87 45 64
        E 0 8e 45 64
        E 0 97 49 64
        E 0 9e 49 64
        E 0 8f 36 64
        E 0 87 49 64
        E 0 8e 49 64
        E 0 9f 32 5a
        E 0 97 42 64
        E 0 9e 42 64
        E 0 87 42 64
        E 0 8e 42 64
        E 0 97 42 64
        E 0 9e 42 64
        E 0 87 42 64
        E 0 8e 42 64
        E 0 8f 32 64
        E 0 97 4a 64
        E 0 9e 4a 64
        E 0 9f 2f 5a
        E 0 87 4a 64
        E 0 8e 4a 64
        E 0 97 47 64
        E 0 9e 47 64
        E 0 87 47 64
        E 0 8e 47 64
        E 0 97 47 64
        E 0 9e 47 64
        E 0 87 47 64
        E 0 8e 47 64
        E 0 98 4e 64
        E 0 9e 4e 64
        E 0 88 4e 64
        E 0 8e 4e 64
        E 0 98 4e 64
        E 0 9e 4e 64
        E 0 88 4e 64
        E 0 8e 4e 64
        E 0 98 4a 64
        E 0 9e 4a 64
        E 0 88 4a 64
        E 0 8e 4a 64
        E 0 8f 2f 64
        E 0 9a 47 64
        E 0 9e 47 64
        E 0 9f 2f 5a
        E 0 8a 47 64
        E 0 8e 47 64
        E 0 9a 47 64
        E 0 9e 47 64
        E 0 8a 47 64
        E 0 8e 47 64
        E 0 9a 45 64
        E 0 9e 45 64
        E 0 8a 45 64
        E 0 8e 45 64
        E 0 9a 47 64
        E 0 9e 47 64
        E 0 8a 47 64
        E 0 8e 47 64
        E 0 9a 43 64
        E 0 9e 43 64
        E 0 8a 43 64
        E 0 8e 43 64
        E 0 9a 43 64
        E 0 9e 43 64
        E 0 8a 43 64
        E 0 8e 43 64
        E 0 95 47 64
        E 0 9e 47 64
        E 0 85 47 64
        E 0 8e 47 64
        E 0 95 47 64
        E 0 9e 47 64
        E 0 85 47 64
        E 0 8e 47 64
        E 0 95 48 64
        E 0 9e 48 64
        E 0 85 48 64
        E 0 8e 48 64
        E 0 8f 2f 64
        E 0 95 43 64
        E 0 9e 43 64
        E 0 9f 30 5a
        E 0 85 43 64
        E 0 8e 43 64
        E 0 97 48 64
        E 0 9e 48 64
        E 0 87 48 64
        E 0 8e 48 64
        E 0 97 48 64
        E 0 9e 48 64
        E 0 87 48 64
        E 0 8e 48 64
        E 0 97 48 64
        E 0 9e 48 64
        E 0 87 48 64
        E 0 8e 48 64
        E 0 97 48 64
        E 0 9e 48 64
        E 0 87 48 64
        E 0 8e 48 64
        E 0 97 4c 64
        E 0 9e 4c 64
        E 0 87 4c 64
        E 0 8e 4c 64
        E 0 8f 30 64
        E 0 97 49 64
        E 1 9e 49 64
        E 0 9f 37 5a
        E 0 87 49 64
        E 0 8e 49 64
        E 0 97 49 64
        E 0 9e 49 64
        E 0 87 49 64
        E 0 8e 49 64
        E 0 97 45 64
        E 0 9e 45 64
        E 0 87 45 64
        E 0 8e 45 64
        E 0 97 49 64
        E 0 9e 49 64
        E 0 87 49 64
        E 0 8e 49 64
        E 0 97 49 64
        E 0 9e 49 64
        E 0 87 49 64
        E 0 8e 49 64
        E 0 97 49 64
        E 0 9e 49 64
        E 0 87 49 64
        E 0 8e 49 64
        E 0 97 4a 64
        E 0 9e 4a 64
        E 0 87 4a 64
        E 0 8e 4a 64
        E 0 8f 37 64
        E 0 97 45 64
        E 0 9e 45 64
        E 0 9f 35 5a
        E 38402 87 45 64
        E 0 8e 45 64
        E 0 9a 45 64
        E 0 9e 45 64
        E 0 8a 45 64
        E 0 8e 45 64
        E 0 9a 43 64
        E 0 9e 43 64
        E 1 8a 43 64
        E 0 8e 43 64
        E 0 9a 45 64
        E 0 9e 45 64
        E 0 8a 45 64
        E 0 8e 45 64
        E 0 8f 35 64
        E 0 9a 46 66
        E 0 9e 46 66
        E 0 9f 37 5a
        E 0 8a 46 66
        E 0 8e 46 66
        E 0 9a 46 66
        E 0 9e 46 66
        E 0 8a 46 66
        E 0 8e 46 66
        E 0 8f 37 64
        E 0 9a 46 66
        E 0 9e 46 66
        E 0 9f 37 5a
        E 0 8a 46 66
        E 0 8e 46 66
        E 0 9a 45 64
        E 0 9e 45 64
        E 0 8a 45 64
        E 0 8e 45 64
        E 0 9a 43 64
        E 0 9e 43 64
        E 0 8a 43 64
        E 0 8e 43 64
        E 0 9a 49 64
        E 0 9e 49 64
        E 0 8a 49 64
        E 0 8e 49 64
        E 0 9a 49 64
        E 0 9e 49 64
        E 0 8a 49 64
        E 0 8e 49 64
        E 0 9a 4a 64
        E 0 9e 4a 64
        E 0 8a 4a 64
        E 0 8e 4a 64
        E 0 8f 37 64
        E 0 9a 45 64
        E 0 9e 45 64
        E 0 9f 39 5a
        E 0 8a 45 64
        E 0 8e 45 64
        E 0 9a 45 64
        E 0 9e 45 64
        E 0 8a 45 64
        E 0 8e 45 64
        E 0 8f 39 64
        E 0 9f 32 5a
        E 0 98 45 64
        E 0 9e 45 64
        E 0 88 45 64
        E 0 8e 45 64
        E 0 8f 32 64
        E 0 98 41 64
        E 0 9e 41 64
        E 0 9f 32 5a
        E 0 88 41 64
        E 0 8e 41 64
        E 0 98 41 64
        E 0 9e 41 64
        E 1 88 41 64
        E 0 8e 41 64
        E 1 95 47 64
        E 0 9e 47 64
        E 0 85 47 64
        E 0 8e 47 64
        E 0 8f 32 64
        E 0 95 43 64
        E 0 9e 43 64
        E 0 9f 2f 5a
        E 0 85 43 64
        E 0 8e 43 64
        E 0 95 43 64
        E 0 9e 43 64
        E 0 85 43 64
        E 0 8e 43 64
        E 0 97 43 64
        E 0 9e 43 64
        E 0 87 43 64
        E 0 8e 43 64
        E 0 8f 2f 64
        E 0 97 48 64
        E 0 9e 48 64
        E 0 9f 33 5b
        E 0 87 48 64
        E 0 8e 48 64
        E 0 97 48 64
        E 0 9e 48 64
        E 0 87 48 64
        E 0 8e 48 64
        E 0 9a 43 64
        E 0 9e 43 64
        E 0 8a 43 64
        E 0 8e 43 64
        E 0 9a 42 64
        E 0 9e 42 64
        E 0 8a 42 64
        E 0 8e 42 64
        E 0 8f 33 66
        E 0 9a 45 64
        E 0 9e 45 64
        E 0 9f 32 5a
        E 0 8a 45 64
        E 0 8e 45 64
        E 0 97 4a 64
        E 0 9e 4a 64
        E 0 87 4a 64
        E 0 8e 4a 64
        E 0 97 4a 64
        E 0 9e 4a 64
        E 0 87 4a 64
        E 0 8e 4a 64
        E 0 8f 32 64
        E 0 97 47 64
        E 0 9e 47 64
        E 0 9f 2c 5a
        E 0 87 47 64
        E 0 8e 47 64
        E 0 97 47 64
        E 0 9e 47 64
        E 0 87 47 64
        E 0 8e 47 64
        E 0 97 4c 64
        E 0 9e 4c 64
        E 0 87 4c 64
        E 0 8e 4c 64
        E 0 97 4c 64
        E 0 9e 4c 64
        E 0 87 4c 64
        E 0 8e 4c 64
        E 0 97 47 64
        E 0 9e 47 64
        E 0 87 47 64
        E 0 8e 47 64
        E 0 97 47 64
        E 0 9e 47 64
        E 0 87 47 64
        E 0 8e 47 64
        E 0 97 48 64
        E 0 9e 48 64
        E 0 87 48 64
        E 0 8e 48 64
        E 0 8f 2c 64
        E 0 97 45 64
        E 0 9e 45 64
        E 0 9f 2d 5a
        E 0 87 45 64
        E 0 8e 45 64
        E 0 9a 40 64
        E 0 9e 40 64
        E 0 8a 40 64
        E 0 8e 40 64
        E 0 9a 45 64
        E 0 9e 45 64
        E 0 8a 45 64
        E 0 8e 45 64
        E 0 9a 45 64
        E 0 9e 45 64
        E 0 8a 45 64
        E 0 8e 45 64
        E 0 8f 2d 64
        E 0 9a 41 64
        E 0 9e 41 64
        E 0 9f 32 5a
        E 0 8a 41 64
        E 0 8e 41 64
        E 0 9a 41 64
        E 0 9e 41 64
        E 0 8a 41 64
        E 0 8e 41 64
        E 0 9a 45 64
        E 0 9e 45 64
        E 0 8a 45 64
        E 0 8e 45 64
        E 0 9a 45 64
        E 0 9e 45 64
        E 1 8a 45 64
        E 0 8e 45 64
        E 0 9a 45 64
        E 0 9e 45 64
        E 0 8a 45 64
        E 0 8e 45 64
        E 0 9a 44 64
        E 0 9e 44 64
        E 0 8a 44 64
        E 0 8e 44 64
        E 0 9a 45 64
        E 0 9e 45 64
        E 0 8a 45 64
        E 0 8e 45 64
        E 0 8f 32 64
        E 0 9a 40 64
        E 0 9e 40 64
        E 0 9f 34 5a
        E 0 8a 40 64
        E 0 8e 40 64
        E 0 8f 34 64
        E 0 9f 2d 5a
        E 0 97 45 64
        E 0 9e 45 64
        E 0 87 45 64
        E 0 8e 45 64
        E 0 97 45 64
        E 0 9e 45 64
        E 0 87 45 64
        E 0 8e 45 64
        E 0 97 47 64
        E 0 9e 47 64
        E 0 87 47 64
        E 0 8e 47 64
        E 0 8f 2d 64
        E 0 97 48 64
        E 0 9e 48 64
        E 0 9f 2d 5a
        E 0 87 48 64
        E 0 8e 48 64
        E 0 97 48 64
        E 0 9e 48 64
        E 0 87 48 64
        E 0 8e 48 64
        E 0 8f 2d 64
        E 0 9a 45 64
        E 0 9e 45 64
        E 0 9f 2d 5a
        E 0 8a 45 64
        E 0 8e 45 64
        E 0 9a 45 64
        E 0 9e 45 64
        E 0 8a 45 64
        E 0 8e 45 64
        E 0 9a 45 64
        E 0 9e 45 64
        E 0 8a 45 64
        E 0 8e 45 64
        E 0 9a 45 64
        E 0 9e 45 64
        E 0 8a 45 64
        E 0 8e 45 64
        E 0 9a 43 64
        E 0 9e 43 64
        E 0 8a 43 64
        E 0 8e 43 64
        E 0 8f 2d 64
        E 0 9a 43 64
        E 0 9e 43 64
        E 0 9f 34 5a
        E 0 8a 43 64
        E 0 8e 43 64
        E 0 9a 43 64
        E 0 9e 43 64
        E 0 8a 43 64
        E 0 8e 43 64
        E 0 97 47 64
        E 1 9e 47 64
        E 0 87 47 64
        E 0 8e 47 64
        E 0 8f 34 64
        E 0 97 47 64
        E 0 9e 47 64
        E 0 9f 34 5a
        E 0 87 47 64
        E 0 8e 47 64
        E 0 97 47 64
        E 0 9e 47 64
        E 0 87 47 64
        E 0 8e 47 64
        E 0 97 45 64
        E 0 9e 45 64
        E 0 87 45 64
        E 0 8e 45 64
        E 0 97 47 64
        E 0 9e 47 64
        E 0 87 47 64
        E 0 8e 47 64
        E 0 8f 34 64
        E 0 97 48 64
        E 0 9e 48 64
        E 0 9f 2d 5a
        E 0 87 48 64
        E 0 8e 48 64
        E 0 97 48 64
        E 0 9e 48 64
        E 0 87 48 64
        E 0 8e 48 64
        E 0 9a 45 64
        E 0 9e 45 64
        E 0 8a 45 64
        E 0 8e 45 64
        E 0 9a 45 64
        E 0 9e 45 64
        E 0 8a 45 64
        E 0 8e 45 64
        E 0 9a 43 64
        E 0 9e 43 64
        E 0 8a 43 64
        E 0 8e 43 64
        E 0 8f 2d 64
        E 0 9a 40 64
        E 0 9e 40 64
        E 0 9f 2f 5a
        E 38403 8a 40 64
        E 0 8e 40 64
        E 0 9a 40 64
        E 0 9e 40 64
        E 0 8a 40 64
        E 0 8e 40 64
        E 0 8f 2f 64
        E 0 98 4c 64
        E 0 9e 4c 64
        E 0 9f 34 5a
        E 0 88 4c 64
        E 0 8e 4c 64
        E 1 98 47 64
        E 0 9e 47 64
        E 0 88 47 64
        E 0 8e 47 64
        E 0 8f 34 64
        E 0 95 43 64
        E 0 9e 43 64
        E 0 9f 34 5a
        E 0 85 43 64
        E 0 8e 43 64
        E 0 95 43 64
        E 0 9e 43 64
        E 0 85 43 64
        E 0 8e 43 64
        E 0 95 47 64
        E 0 9e 47 64
        E 0 85 47 64
        E 0 8e 47 64
        E 0 8f 34 64
        E 0 95 40 64
        E 0 9e 40 64
        E 0 9f 34 5a
        E 0 85 40 64
        E 0 8e 40 64
        E 0 95 40 64
        E 0 9e 40 64
        E 0 85 40 64
        E 0 8e 40 64
        E 0 9a 40 64
        E 0 9e 40 64
        E 0 8a 40 64
        E 0 8e 40 64
        E 0 9a 46 64
        E 0 9e 46 64
        E 0 8a 46 64
        E 0 8e 46 64
        E 0 9a 46 64
        E 0 9e 46 64
        E 0 8a 46 64
        E 0 8e 46 64
        E 1 97 42 64
        E 0 9e 42 64
        E 0 87 42 64
        E 0 8e 42 64
        E 0 8f 34 64
        E 0 97 4a 64
        E 0 9e 4a 64
        E 0 9f 2f 5a
        E 0 87 4a 64
        E 0 8e 4a 64
        E 0 97 4a 64
        E 0 9e 4a 64
        E 0 87 4a 64
        E 0 8e 4a 64
        E 0 9a 47 64
        E 0 9e 47 64
        E 0 8a 47 64
        E 0 8e 47 64
        E 0 8f 2f 64
        E 0 9a 44 64
        E 0 9e 44 64
        E 0 9f 32 5a
        E 0 8a 44 64
        E 0 8e 44 64
        E 0 9a 44 64
        E 0 9e 44 64
        E 0 8a 44 64
        E 0 8e 44 64
        E 0 97 47 64
        E 0 9e 47 64
        E 0 87 47 64
        E 0 8e 47 64
        E 0 97 49 64
        E 1 9e 49 64
        E 0 87 49 64
        E 0 8e 49 64
        E 0 8f 32 64
        E 0 97 49 64
        E 0 9e 49 64
        E 0 9f 37 5a
        E 0 87 49 64
        E 0 8e 49 64
        E 0 97 49 64
        E 0 9e 49 64
        E 0 87 49 64
        E 0 8e 49 64
        E 0 9a 45 64
        E 0 9e 45 64
        E 0 8a 45 64
        E 0 8e 45 64
        E 0 9a 40 64
        E 0 9e 40 64
        E 0 8a 40 64
        E 0 8e 40 64
        E 0 9a 40 64
        E 0 9e 40 64
        E 0 8a 40 64
        E 0 8e 40 64
        E 0 9a 40 64
        E 0 9e 40 64
        E 0 8a 40 64
        E 0 8e 40 64
        E 0 8f 37 64
        E 0 9a 45 64
        E 0 9e 45 64
        E 0 9f 31 5a
        E 0 8a 45 64
        E 0 8e 45 64
        E 0 9a 45 64
        E 0 9e 45 64
        E 0 8a 45 64
        E 0 8e 45 64
        E 0 9a 45 64
        E 0 9e 45 64
        E 0 8a 45 64
        E 0 8e 45 64
        E 0 9a 46 66
        E 0 9e 46 66
        E 0 8a 46 66
        E 0 8e 46 66
        E 0 9a 43 64
        E 0 9e 43 64
        E 0 8a 43 64
        E 0 8e 43 64
        E 0 9a 43 64
        E 0 9e 43 64
        E 0 8a 43 64
        E 0 8e 43 64
        E 0 9a 45 64
        E 0 9e 45 64
        E 0 8a 45 64
        E 0 8e 45 64
        E 0 8f 31 64
        E 0 9a 42 64
        E 0 9e 42 64
        E 0 9f 30 5a
        E 0 8a 42 64
        E 0 8e 42 64
        E 0 9a 42 64
        E 0 9e 42 64
        E 0 8a 42 64
        E 0 8e 42 64
        E 0 9a 3e 64
        E 0 9e 3e 64
        E 0 8a 3e 64
        E 0 8e 3e 64
        E 0 9a 3e 64
        E 0 9e 3e 64
        E 0 8a 3e 64
        E 0 8e 3e 64
        E 0 9a 42 64
        E 0 9e 42 64
        E 0 8a 42 64
        E 0 8e 42 64
        E 0 9a 43 64
        E 0 9e 43 64
        E 0 8a 43 64
        E 0 8e 43 64
        E 0 9a 45 64
        E 0 9e 45 64
        E 0 8a 45 64
        E 0 8e 45 64
        E 0 8f 30 64
        E 0 9a 46 66
        E 0 9e 46 66
        E 0 9f 37 5a
        E 0 8a 46 66
        E 0 8e 46 66
        E 0 9a 46 66
        E 0 9e 46 66
        E 0 8a 46 66
        E 0 8e 46 66
        E 0 9a 43 64
        E 0 9e 43 64
        E 0 8a 43 64
        E 0 8e 43 64
        E 0 9a 43 64
        E 0 9e 43 64
        E 0 8a 43 64
        E 0 8e 43 64
        E 0 9a 43 64
        E 1 9e 43 64
        E 0 8a 43 64
        E 0 8e 43 64
        E 0 9a 43 64
        E 0 9e 43 64
        E 0 8a 43 64
        E 0 8e 43 64
        E 0 9a 43 64
        E 0 9e 43 64
        E 0 8a 43 64
        E 0 8e 43 64
        E 0 8f 37 64
        E 0 9a 43 64
        E 0 9e 43 64
        E 0 9f 33 5b
        E 0 8a 43 64
        E 0 8e 43 64
        E 0 9a 48 64
        E 0 9e 48 64
        E 0 8a 48 64
        E 0 8e 48 64
        E 0 9a 48 64
        E 0 9e 48 64
        E 0 8a 48 64
        E 0 8e 48 64
        E 0 9a 43 64
        E 0 9e 43 64
        E 0 8a 43 64
        E 0 8e 43 64
        E 0 8f 33 66
        E 0 9a 45 64
        E 0 9e 45 64
        E 0 9f 32 5a
        E 0 8a 45 64
        E 0 8e 45 64
        E 0 9a 45 64
        E 0 9e 45 64
        E 0 8a 45 64
        E 0 8e 45 64
        E 0 8f 32 64
        E 0 97 4a 64
        E 0 9e 4a 64
        E 0 9f 32 5a
        E 0 87 4a 64
        E 0 8e 4a 64
        E 0 97 45 64
        E 0 9e 45 64
        E 0 87 45 64
        E 0 8e 45 64
        E 0 97 45 64
        E 0 9e 45 64
        E 0 87 45 64
        E 0 8e 45 64
        E 0 97 45 64
        E 0 9e 45 64
        E 0 87 45 64
        E 0 8e 45 64
        E 0 97 47 64
        E 0 9e 47 64
        E 0 87 47 64
        E 0 8e 47 64
        E 0 97 44 64
        E 0 9e 44 64
        E 0 87 44 64
        E 0 8e 44 64
        E 0 97 44 64
        E 0 9e 44 64
        E 0 87 44 64
        E 0 8e 44 64
        E 0 8f 32 64
        E 0 9f 32 5a
        E 0 97 4a 64
        E 0 9e 4a 64
        E 0 87 4a 64
        E 0 8e 4a 64
        E 0 97 4a 64
        E 0 9e 4a 64
        E 0 87 4a 64
        E 0 8e 4a 64
        E 0 97 4a 64
        E 0 9e 4a 64
        E 0 87 4a 64
        E 0 8e 4a 64
        E 0 97 4a 64
        E 0 9e 4a 64
        E 0 87 4a 64
        E 0 8e 4a 64
        E 0 97 4a 64
        E 0 9e 4a 64
        E 0 87 4a 64
        E 0 8e 4a 64
        E 0 97 47 64
        E 0 9e 47 64
        E 0 87 47 64
        E 0 8e 47 64
        E 0 97 47 64
        E 0 9e 47 64
        E 0 87 47 64
        E 0 8e 47 64
        E 0 97 4d 64
        E 0 9e 4d 64
        E 0 87 4d 64
        E 0 8e 4d 64
        E 0 97 4a 64
        E 0 9e 4a 64
        E 0 87 4a 64
        E 0 8e 4a 64
        E 0 97 48 64
        E 1 9e 48 64
        E 0 87 48 64
        E 0 8e 48 64
        E 0 8f 32 64
        E 0 97 45 64
        E 0 9e 45 64
        E 0 9f 30 5a
        E 38403 87 45 64
        E 0 8e 45 64
        E 0 97 45 64
        E 0 9e 45 64
        E 0 87 45 64
        E 0 8e 45 64
        E 0 97 48 64
        E 0 9e 48 64
        E 0 87 48 64
        E 0 8e 48 64
        E 0 97 48 64
        E 0 9e 48 64
        E 0 87 48 64
        E 0 8e 48 64
        E 0 97 48 64
        E 0 9e 48 64
        E 0 87 48 64
        E 0 8e 48 64
        E 0 97 4a 64
        E 0 9e 4a 64
        E 0 87 4a 64
        E 0 8e 4a 64
        E 0 97 4c 64
        E 0 9e 4c 64
        E 0 87 4c 64
        E 0 8e 4c 64
        E 0 8f 30 64
        E 0 97 45 64
        E 0 9e 45 64
        E 0 9f 30 5a
        E 0 87 45 64
        E 0 8e 45 64
        E 0 97 48 64
        E 0 9e 48 64
        E 0 87 48 64
        E 0 8e 48 64
        E 0 97 48 64
        E 0 9e 48 64
        E 1 87 48 64
        E 0 8e 48 64
        E 0 97 46 66
        E 0 9e 46 66
        E 0 87 46 66
        E 0 8e 46 66
        E 0 8f 30 64
        E 0 97 46 66
        E 0 9e 46 66
        E 0 9f 34 5a
        E 0 87 46 66
        E 0 8e 46 66
        E 0 97 46 66
        E 0 9e 46 66
        E 0 87 46 66
        E 0 8e 46 66
        E 0 97 46 66
        E 0 9e 46 66
        E 0 87 46 66
        E 0 8e 46 66
        E 0 97 46 66
        E 0 9e 46 66
        E 0 87 46 66
        E 0 8e 46 66
        E 0 97 45 64
        E 0 9e 45 64
        E 0 87 45 64
        E 0 8e 45 64
        E 0 8f 34 64
        E 0 97 45 64
        E 0 9e 45 64
        E 1 9f 33 5b
        E 0 87 45 64
        E 0 8e 45 64
        E 0 97 45 64
        E 0 9e 45 64
        E 0 87 45 64
        E 0 8e 45 64
        E 0 97 41 64
        E 0 9e 41 64
        E 0 87 41 64
        E 0 8e 41 64
        E 0 8f 33 66
        E 0 97 45 64
        E 0 9e 45 64
        E 0 9f 33 5b
        E 0 87 45 64
        E 0 8e 45 64
        E 0 97 45 64
        E 0 9e 45 64
        E 0 87 45 64
        E 0 8e 45 64
        E 0 97 45 64
        E 0 9e 45 64
        E 0 87 45 64
        E 0 8e 45 64
        E 0 97 46 66
        E 0 9e 46 66
        E 0 87 46 66
        E 0 8e 46 66
        E 0 8f 33 66
        E 0 97 41 64
        E 0 9e 41 64
        E 0 9f 35 5a
        E 0 87 41 64
        E 0 8e 41 64
        E 0 97 41 64
        E 0 9e 41 64
        E 0 87 41 64
        E 0 8e 41 64
        E 0 8f 35 64
        E 0 9f 2e 5b
        E 0 8f 2e 66
        E 0 9a 3e 64
        E 0 9e 3e 64
        E 0 9f 2e 5b
        E 0 8a 3e 64
        E 0 8e 3e 64
        E 0 9a 3e 64
        E 0 9e 3e 64
        E 1 8a 3e 64
        E 0 8e 3e 64
        E 0 9a 3e 64
        E 0 9e 3e 64
        E 0 8a 3e 64
        E 0 8e 3e 64
        E 0 9a 3e 64
        E 0 9e 3e 64
        E 0 8a 3e 64
        E 0 8e 3e 64
        E 0 9a 3f 66
        E 0 9e 3f 66
        E 0 8a 3f 66
        E 0 8e 3f 66
        E 0 9a 41 64
        E 0 9e 41 64
        E 0 8a 41 64
        E 0 8e 41 64
        E 0 9a 41 64
        E 0 9e 41 64
        E 0 8a 41 64
        E 0 8e 41 64
        E 0 8f 2e 66
        E 0 9f 2e 5b
        E 0 9c 35 64
        E 0 9e 35 64
        E 0 8c 35 64
        E 0 8e 35 64
        E 0 9c 35 64
        E 0 9e 35 64
        E 0 8c 35 64
        E 0 8e 35 64
        E 0 9c 32 64
        E 0 9e 32 64
        E 0 8c 32 64
        E 0 8e 32 64
        E 0 9c 32 64
        E 0 9e 32 64
        E 0 8c 32 64
        E 0 8e 32 64
        E 0 9c 32 64
        E 0 9e 32 64
        E 0 8c 32 64
        E 0 8e 32 64
        E 0 9c 3a 66
        E 0 9e 3a 66
        E 0 8c 3a 66
        E 0 8e 3a 66
        E 0 8f 2e 66
        E 0 9c 35 64
        E 1 9e 35 64
        E 0 9f 2e 5b
        E 0 8c 35 64
        E 0 8e 35 64
        E 0 9c 35 64
        E 0 9e 35 64
        E 0 8c 35 64
        E 0 8e 35 64
        E 0 9c 38 66
        E 0 9e 38 66
        E 0 8c 38 66
        E 0 8e 38 66
        E 0 9c 38 66
        E 0 9e 38 66
        E 0 8c 38 66
        E 0 8e 38 66
        E 0 9c 38 66
        E 0 9e 38 66
        E 0 8c 38 66
        E 0 8e 38 66
        E 0 9c 38 66
        E 0 9e 38 66
        E 0 8c 38 66
        E 0 8e 38 66
        E 0 9c 37 64
        E 0 9e 37 64
        E 0 8c 37 64
        E 0 8e 37 64
        E 0 8f 2e 66
        E 0 9c 33 66
        E 0 9e 33 66
        E 0 9f 33 5b
        E 0 8c 33 66
        E 0 8e 33 66
        E 0 9a 43 64
        E 0 9e 43 64
        E 0 8a 43 64
        E 0 8e 43 64
        E 0 9a 43 64
        E 0 9e 43 64
        E 0 8a 43 64
        E 0 8e 43 64
        E 1 9a 44 66
        E 0 9e 44 66
        E 0 8a 44 66
        E 0 8e 44 66
        E 0 8f 33 66
        E 0 9a 41 64
        E 0 9e 41 64
        E 0 9f 31 5b
        E 0 8a 41 64
        E 0 8e 41 64
        E 0 9a 41 64
        E 0 9e 41 64
        E 0 8a 41 64
        E 0 8e 41 64
        E 0 8f 31 66
        E 0 9a 46 66
        E 0 9e 46 66
        E 0 9f 31 5b
        E 0 8a 46 66
        E 0 8e 46 66
        E 0 9a 41 64
        E 0 9e 41 64
        E 0 8a 41 64
        E 0 8e 41 64
        E 0 9a 41 64
        E 0 9e 41 64
        E 0 8a 41 64
        E 0 8e 41 64
        E 0 9a 41 64
        E 0 9e 41 64
        E 0 8a 41 64
        E 0 8e 41 64
        E 0 9a 40 64
        E 0 9e 40 64
        E 0 8a 40 64
        E 0 8e 40 64
        E 0 8f 31 66
        E 0 9a 43 64
        E 0 9e 43 64
        E 0 9f 30 5a
        E 0 8a 43 64
        E 0 8e 43 64
        E 0 9a 43 64
        E 0 9e 43 64
        E 0 8a 43 64
        E 0 8e 43 64
        E 0 9c 34 64
        E 0 9e 34 64
        E 0 8c 34 64
        E 0 8e 34 64
        E 0 9c 34 64
        E 0 9e 34 64
        E 0 8c 34 64
        E 1 8e 34 64
        E 0 9c 35 64
        E 0 9e 35 64
        E 0 8c 35 64
        E 0 8e 35 64
        E 0 8f 30 64
        E 0 9c 37 64
        E 0 9e 37 64
        E 0 9f 30 5a
        E 0 8c 37 64
        E 0 8e 37 64
        E 0 9c 37 64
        E 0 9e 37 64
        E 0 8c 37 64
        E 0 8e 37 64
        E 0 9c 37 64
        E 0 9e 37 64
        E 0 8c 37 64
        E 0 8e 37 64
        E 0 9c 3a 66
        E 0 9e 3a 66
        E 0 8c 3a 66
        E 0 8e 3a 66
        E 0 9c 3a 66
        E 0 9e 3a 66
        E 0 8c 3a 66
        E 0 8e 3a 66
        E 0 9c 3a 66
        E 0 9e 3a 66
        E 0 8c 3a 66
        E 0 8e 3a 66
        E 0 9c 39 64
        E 0 9e 39 64
        E 0 8c 39 64
        E 0 8e 39 64
        E 0 8f 30 64
        E 0 9c 37 64
        E 0 9e 37 64
        E 0 9f 35 5a
        E 38403 8c 37 64
        E 0 8e 37 64
        E 0 9c 37 64
        E 0 9e 37 64
        E 0 8c 37 64
        E 0 8e 37 64
        E 0 9a 48 64
        E 0 9e 48 64
        E 0 8a 48 64
        E 0 8e 48 64
        E 0 9a 41 64
        E 0 9e 41 64
        E 0 8a 41 64
        E 0 8e 41 64
        E 0 9c 35 64
        E 1 9e 35 64
        E 0 8c 35 64
        E 0 8e 35 64
        E 0 9c 35 64
        E 0 9e 35 64
        E 0 8c 35 64
        E 0 8e 35 64
        E 0 8f 35 64
        E 0 9c 32 64
        E 0 9e 32 64
        E 0 9f 36 5a
        E 0 8c 32 64
        E 0 8e 32 64
        E 0 9c 32 64
        E 0 9e 32 64
        E 0 8c 32 64
        E 0 8e 32 64
        E 0 9c 39 64
        E 0 9e 39 64
        E 0 8c 39 64
        E 0 8e 39 64
        E 0 9c 3b 64
        E 0 9e 3b 64
        E 0 8c 3b 64
        E 0 8e 3b 64
        E 0 8f 36 64
        E 0 9c 3b 64
        E 0 9e 3b 64
        E 0 9f 35 5a
        E 0 8c 3b 64
        E 0 8e 3b 64
        E 0 9c 3b 64
        E 0 9e 3b 64
        E 0 8c 3b 64
        E 0 8e 3b 64
        E 0 9c 3c 64
        E 0 9e 3c 64
        E 0 8c 3c 64
        E 0 8e 3c 64
        E 0 8f 35 64
        E 0 9c 37 64
        E 0 9e 37 64
        E 0 9f 33 5b
        E 0 8c 37 64
        E 0 8e 37 64
        E 0 9c 37 64
        E 0 9e 37 64
        E 0 8c 37 64
        E 0 8e 37 64
        E 0 9c 37 64
        E 0 9e 37 64
        E 0 8c 37 64
        E 0 8e 37 64
        E 0 9c 37 64
        E 0 9e 37 64
        E 0 8c 37 64
        E 0 8e 37 64
        E 0 9c 37 64
        E 0 9e 37 64
        E 0 8c 37 64
        E 0 8e 37 64
        E 0 9c 35 64
        E 0 9e 35 64
        E 0 8c 35 64
        E 0 8e 35 64
        E 0 9c 37 64
        E 0 9e 37 64
        E 0 8c 37 64
        E 0 8e 37 64
        E 0 8f 33 66
        E 0 9c 38 66
        E 0 9e 38 66
        E 0 9f 35 5a
        E 0 8c 38 66
        E 0 8e 38 66
        E 0 9c 38 66
        E 0 9e 38 66
        E 0 8c 38 66
        E 0 8e 38 66
        E 0 9c 38 66
        E 0 9e 38 66
        E 0 8c 38 66
        E 0 8e 38 66
        E 0 9c 35 64
        E 0 9e 35 64
        E 0 8c 35 64
        E 0 8e 35 64
        E 0 9c 33 66
        E 0 9e 33 66
        E 0 8c 33 66
        E 0 8e 33 66
        E 0 8f 35 64
        E 0 9c 30 64
        E 0 9e 30 64
        E 0 9f 37 5a
        E 0 8c 30 64
        E 0 8e 30 64
        E 1 9c 30 64
        E 0 9e 30 64
        E 0 8c 30 64
        E 0 8e 30 64
        E 0 8f 37 64
        E 0 9f 30 5a
        E 0 9a 3f 66
        E 0 9e 3f 66
        E 0 8a 3f 66
        E 0 8e 3f 66
        E 0 8f 30 64
        E 0 9a 43 64
        E 0 9e 43 64
        E 0 9f 30 5a
        E 0 8a 43 64
        E 0 8e 43 64
        E 0 9c 37 64
        E 0 9e 37 64
        E 0 8c 37 64
        E 0 8e 37 64
        E 0 9c 3c 64
        E 0 9e 3c 64
        E 0 8c 3c 64
        E 0 8e 3c 64
        E 0 9c 3c 64
        E 0 9e 3c 64
        E 0 8c 3c 64
        E 0 8e 3c 64
        E 0 8f 30 64
        E 0 9c 3c 64
        E 0 9e 3c 64
        E 0 9f 30 5a
        E 0 8c 3c 64
        E 0 8e 3c 64
        E 0 9c 3c 64
        E 0 9e 3c 64
        E 0 8c 3c 64
        E 0 8e 3c 64
        E 0 9c 3c 64
        E 0 9e 3c 64
        E 0 8c 3c 64
        E 0 8e 3c 64
        E 0 9c 3c 64
        E 0 9e 3c 64
        E 0 8c 3c 64
        E 0 8e 3c 64
        E 0 9c 3c 64
        E 0 9e 3c 64
        E 0 8c 3c 64
        E 0 8e 3c 64
        E 0 8f 30 64
        E 0 9c 39 64
        E 0 9e 39 64
        E 1 9f 31 5a
        E 0 8c 39 64
        E 0 8e 39 64
        E 0 9c 39 64
        E 0 9e 39 64
        E 0 8c 39 64
        E 0 8e 39 64
        E 0 8f 31 64
        E 0 9c 39 64
        E 0 9e 39 64
        E 0 9f 31 5a
        E 0 8c 39 64
        E 0 8e 39 64
        E 0 9c 39 64
        E 0 9e 39 64
        E 0 8c 39 64
        E 0 8e 39 64
        E 0 9c 39 64
        E 0 9e 39 64
        E 0 8c 39 64
        E 0 8e 39 64
        E 0 9c 3b 64
        E 0 9e 3b 64
        E 0 8c 3b 64
        E 0 8e 3b 64
        E 0 9c 3d 64
        E 0 9e 3d 64
        E 0 8c 3d 64
        E 0 8e 3d 64
        E 0 8f 31 64
        E 0 9c 3e 64
        E 0 9e 3e 64
        E 0 9f 36 5a
        E 0 8c 3e 64
        E 0 8e 3e 64
        E 0 9c 39 64
        E 0 9e 39 64
        E 0 8c 39 64
        E 0 8e 39 64
        E 0 9c 37 64
        E 0 9e 37 64
        E 0 8c 37 64
        E 0 8e 37 64
        E 0 9c 39 64
        E 0 9e 39 64
        E 0 8c 39 64
        E 0 8e 39 64
        E 0 8f 36 64
        E 0 9c 3b 64
        E 0 9e 3b 64
        E 0 9f 37 5a
        E 0 8c 3b 64
        E 0 8e 3b 64
        E 1 9c 3b 64
        E 0 9e 3b 64
        E 0 8c 3b 64
        E 0 8e 3b 64
        E 0 9c 3b 64
        E 0 9e 3b 64
        E 0 8c 3b 64
        E 0 8e 3b 64
        E 0 9c 3b 64
        E 0 9e 3b 64
        E 0 8c 3b 64
        E 0 8e 3b 64
        E 0 9c 37 64
        E 0 9e 37 64
        E 0 8c 37 64
        E 0 8e 37 64
        E 0 9c 37 64
        E 0 9e 37 64
        E 0 8c 37 64
        E 0 8e 37 64
        E 0 9c 36 64
        E 0 9e 36 64
        E 0 8c 36 64
        E 0 8e 36 64
        E 0 8f 37 64
        E 0 9c 32 64
        E 0 9e 32 64
        E 0 9f 39 5a
        E 0 8c 32 64
        E 0 8e 32 64
        E 0 9c 32 64
        E 0 9e 32 64
        E 0 8c 32 64
        E 0 8e 32 64
        E 0 8f 39 64
        E 0 9f 32 5a
        E 0 8f 32 64
        E 0 9c 32 64
        E 0 9e 32 64
        E 0 9f 32 5a
        E 0 8c 32 64
        E 0 8e 32 64
        E 0 9c 32 64
        E 0 9e 32 64
        E 0 8c 32 64
        E 0 8e 32 64
        E 0 9c 34 64
        E 0 9e 34 64
        E 0 8c 34 64
        E 0 8e 34 64
        E 0 8f 32 64
        E 0 9c 36 64
        E 0 9e 36 64
        E 0 9f 32 5a
        E 0 8c 36 64
        E 0 8e 36 64
        E 1 9c 36 64
        E 0 9e 36 64
        E 0 8c 36 64
        E 0 8e 36 64
        E 0 9c 36 64
        E 0 9e 36 64
        E 0 8c 36 64
        E 0 8e 36 64
        E 0 9c 36 64
        E 0 9e 36 64
        E 0 8c 36 64
        E 0 8e 36 64
        E 0 9c 36 64
        E 0 9e 36 64
        E 0 8c 36 64
        E 0 8e 36 64
        E 0 9c 36 64
        E 0 9e 36 64
        E 0 8c 36 64
        E 0 8e 36 64
        E 0 9c 37 64
        E 0 9e 37 64
        E 0 8c 37 64
        E 0 8e 37 64
        E 0 8f 32 64
        E 0 9c 39 64
        E 0 9e 39 64
        E 0 9f 32 5a
        E 38404 8c 39 64
        E 0 8e 39 64
        E 0 9c 39 64
        E 0 9e 39 64
        E 0 8c 39 64
        E 0 8e 39 64
        E 0 9c 3c 64
        E 0 9e 3c 64
        E 0 8c 3c 64
        E 0 8e 3c 64
        E 0 9c 3c 64
        E 0 9e 3c 64
        E 0 8c 3c 64
        E 0 8e 3c 64
        E 0 9c 3c 64
        E 0 9e 3c 64
        E 0 8c 3c 64
        E 0 8e 3c 64
        E 0 9c 39 64
        E 0 9e 39 64
        E 0 8c 39 64
        E 0 8e 39 64
        E 0 9c 39 64
        E 0 9e 39 64
        E 0 8c 39 64
        E 0 8e 39 64
        E 0 9c 39 64
        E 0 9e 39 64
        E 0 8c 39 64
        E 0 8e 39 64
        E 0 8f 32 64
        E 0 9c 39 64
        E 0 9e 39 64
        E 0 9f 32 5a
        E 0 8c 39 64
        E 0 8e 39 64
        E 0 9c 39 64
        E 0 9e 39 64
        E 0 8c 39 64
        E 0 8e 39 64
        E 1 9c 37 64
        E 0 9e 37 64
        E 0 8c 37 64
        E 0 8e 37 64
        E 0 9c 39 64
        E 0 9e 39 64
        E 0 8c 39 64
        E 0 8e 39 64
        E 0 8f 32 64
        E 0 9c 3b 64
        E 0 9e 3b 64
        E 0 9f 2b 5a
        E 0 8c 3b 64
        E 0 8e 3b 64
        E 0 9c 3b 64
        E 0 9e 3b 64
        E 0 8c 3b 64
        E 0 8e 3b 64
        E 0 9c 3b 64
        E 0 9e 3b 64
        E 0 8c 3b 64
        E 0 8e 3b 64
        E 0 9c 39 64
        E 0 9e 39 64
        E 0 8c 39 64
        E 0 8e 39 64
        E 0 9c 3b 64
        E 0 9e 3b 64
        E 0 8c 3b 64
        E 0 8e 3b 64
        E 0 8f 2b 64
        E 0 9c 37 64
        E 0 9e 37 64
        E 0 9f 2b 5a
        E 0 8c 37 64
        E 0 8e 37 64
        E 0 9c 32 64
        E 0 9e 32 64
        E 0 8c 32 64
        E 0 8e 32 64
        E 0 9c 32 64
        E 0 9e 32 64
        E 0 8c 32 64
        E 0 8e 32 64
        E 0 9c 32 64
        E 0 9e 32 64
        E 0 8c 32 64
        E 0 8e 32 64
        E 0 9c 37 64
        E 0 9e 37 64
        E 0 8c 37 64
        E 0 8e 37 64
        E 0 9c 39 64
        E 1 9e 39 64
        E 0 8c 39 64
        E 0 8e 39 64
        E 0 8f 2b 64
        E 0 9c 3b 64
        E 0 9e 3b 64
        E 0 9f 2c 5a
        E 0 8c 3b 64
        E 0 8e 3b 64
        E 0 9c 3b 64
        E 0 9e 3b 64
        E 0 8c 3b 64
        E 0 8e 3b 64
        E 0 9c 3b 64
        E 0 9e 3b 64
        E 0 8c 3b 64
        E 0 8e 3b 64
        E 0 9c 3b 64
        E 0 9e 3b 64
        E 0 8c 3b 64
        E 0 8e 3b 64
        E 0 9c 3b 64
        E 0 9e 3b 64
        E 0 8c 3b 64
        E 0 8e 3b 64
        E 0 9c 3b 64
        E 0 9e 3b 64
        E 0 8c 3b 64
        E 0 8e 3b 64
        E 0 9c 3b 64
        E 0 9e 3b 64
        E 0 8c 3b 64
        E 0 8e 3b 64
        E 0 9c 3b 64
        E 0 9e 3b 64
        E 0 8c 3b 64
        E 0 8e 3b 64
        E 0 8f 2c 64
        E 0 9c 34 64
        E 0 9e 34 64
        E 0 9f 2c 5a
        E 0 8c 34 64
        E 0 8e 34 64
        E 0 9c 34 64
        E 0 9e 34 64
        E 0 8c 34 64
        E 0 8e 34 64
        E 0 9c 3e 64
        E 0 9e 3e 64
        E 0 8c 3e 64
        E 0 8e 3e 64
        E 0 9c 3e 64
        E 1 9e 3e 64
        E 0 8c 3e 64
        E 0 8e 3e 64
        E 0 9c 3b 64
        E 0 9e 3b 64
        E 0 8c 3b 64
        E 0 8e 3b 64
        E 0 9c 3b 64
        E 0 9e 3b 64
        E 0 8c 3b 64
        E 0 8e 3b 64
        E 0 9c 3c 64
        E 0 9e 3c 64
        E 0 8c 3c 64
        E 0 8e 3c 64
        E 0 8f 2c 64
        E 0 9c 39 64
        E 0 9e 39 64
        E 0 9f 2d 5a
        E 0 8c 39 64
        E 0 8e 39 64
        E 0 9c 34 64
        E 0 9e 34 64
        E 0 8c 34 64
        E 0 8e 34 64
        E 0 9c 31 64
        E 0 9e 31 64
        E 0 8c 31 64
        E 0 8e 31 64
        E 0 9c 39 64
        E 0 9e 39 64
        E 0 8c 39 64
        E 0 8e 39 64
        E 0 8f 2d 64
        E 0 9c 36 64
        E 0 9e 36 64
        E 0 9f 2e 5a
        E 0 8c 36 64
        E 0 8e 36 64
        E 0 9c 36 64
        E 0 9e 36 64
        E 0 8c 36 64
        E 0 8e 36 64
        E 0 9c 36 64
        E 0 9e 36 64
        E 0 8c 36 64
        E 0 8e 36 64
        E 0 9c 36 64
        E 0 9e 36 64
        E 0 8c 36 64
        E 0 8e 36 64
        E 0 9c 3a 64
        E 0 9e 3a 64
        E 0 8c 3a 64
        E 0 8e 3a 64
        E 0 9c 3a 64
        E 0 9e 3a 64
        E 0 8c 3a 64
        E 0 8e 3a 64
        E 0 9c 3b 64
        E 0 9e 3b 64
        E 0 8c 3b 64
        E 0 8e 3b 64
        E 0 8f 2e 64
        E 0 9c 36 64
        E 0 9e 36 64
        E 0 9f 2f 5a
        E 0 8c 36 64
        E 0 8e 36 64
        E 0 9c 36 64
        E 0 9e 36 64
        E 0 8c 36 64
        E 0 8e 36 64
        E 0 9c 36 64
        E 0 9e 36 64
        E 0 8c 36 64
        E 0 8e 36 64
        E 0 9c 34 64
        E 0 9e 34 64
        E 0 8c 34 64
        E 0 8e 34 64
        E 0 9c 36 64
        E 0 9e 36 64
        E 0 8c 36 64
        E 0 8e 36 64
        E 0 9c 32 64
        E 0 9e 32 64
        E 0 8c 32 64
        E 0 8e 32 64
        E 0 9c 32 64
        E 0 9e 32 64
        E 0 8c 32 64
        E 0 8e 32 64
        E 0 8f 2f 64
        E 0 9c 3e 64
        E 0 9e 3e 64
        E 0 9f 32 5a
        E 0 8c 3e 64
        E 0 8e 3e 64
        E 0 9c 39 64
        E 0 9e 39 64
        E 0 8c 39 64
        E 0 8e 39 64
        E 0 9c 36 64
        E 0 9e 36 64
        E 0 8c 36 64
        E 0 8e 36 64
        E 0 9c 36 64
        E 1 9e 36 64
        E 0 8c 36 64
        E 0 8e 36 64
        E 0 9c 39 64
        E 0 9e 39 64
        E 0 8c 39 64
        E 0 8e 39 64
        E 0 9c 32 64
        E 0 9e 32 64
        E 0 8c 32 64
        E 0 8e 32 64
        E 0 9c 32 64
        E 0 9e 32 64
        E 0 8c 32 64
        E 0 8e 32 64
        E 0 8f 32 64
        E 0 9f 32 5a
        E 0 9c 39 64
        E 0 9e 39 64
        E 0 8c 39 64
        E 0 8e 39 64
        E 0 9c 37 64
        E 0 9e 37 64
        E 0 8c 37 64
        E 0 8e 37 64
        E 0 9c 39 64
        E 0 9e 39 64
        E 0 8c 39 64
        E 0 8e 39 64
        E 0 8f 32 64
        E 0 9c 3b 64
        E 0 9e 3b 64
        E 0 9f 2b 5a
        E 0 8c 3b 64
        E 0 8e 3b 64
        E 0 9c 3b 64
        E 0 9e 3b 64
        E 0 8c 3b 64
        E 0 8e 3b 64
        E 0 9c 37 64
        E 0 9e 37 64
        E 0 8c 37 64
        E 0 8e 37 64
        E 0 9c 37 64
        E 0 9e 37 64
        E 0 8c 37 64
        E 0 8e 37 64
        E 0 8f 2b 64
        E 0 9c 3d 64
        E 0 9e 3d 64
        E 0 9f 2b 5a
        E 38403 8c 3d 64
        E 0 8e 3d 64
        E 0 9c 3d 64
        E 0 9e 3d 64
        E 0 8c 3d 64
        E 0 8e 3d 64
        E 0 9c 3e 64
        E 0 9e 3e 64
        E 0 8c 3e 64
        E 0 8e 3e 64
        E 0 8f 2b 64
        E 0 9c 39 64
        E 0 9e 39 64
        E 0 9f 2d 5a
        E 0 8c 39 64
        E 0 8e 39 64
        E 0 9c 39 64
        E 0 9e 39 64
        E 0 8c 39 64
        E 0 8e 39 64
        E 0 8f 2d 64
        E 0 9f 32 5a
        E 0 9a 45 64
        E 0 9e 45 64
        E 0 8a 45 64
        E 0 8e 45 64
        E 0 8f 32 64
        E 0 9a 42 64
        E 0 9e 42 64
        E 0 9f 32 5a
        E 0 8a 42 64
        E 0 8e 42 64
        E 0 9a 42 64
        E 0 9e 42 64
        E 0 8a 42 64
        E 0 8e 42 64
        E 0 9c 36 64
        E 0 9e 36 64
        E 0 8c 36 64
        E 0 8e 36 64
        E 0 9c 36 64
        E 0 9e 36 64
        E 0 8c 36 64
        E 0 8e 36 64
        E 0 9c 37 64
        E 0 9e 37 64
        E 0 8c 37 64
        E 0 8e 37 64
        E 0 8f 32 64
        E 0 9c 39 64
        E 1 9e 39 64
        E 0 9f 32 5a
        E 0 8c 39 64
        E 0 8e 39 64
        E 0 9c 3c 64
        E 0 9e 3c 64
        E 0 8c 3c 64
        E 0 8e 3c 64
        E 0 9c 39 64
        E 0 9e 39 64
        E 0 8c 39 64
        E 0 8e 39 64
        E 0 9c 3b 64
        E 0 9e 3b 64
        E 0 8c 3b 64
        E 0 8e 3b 64
        E 0 8f 32 64
        E 0 9c 37 64
        E 0 9e 37 64
        E 0 9f 37 5a
        E 0 8c 37 64
        E 0 8e 37 64
        E 0 9c 37 64
        E 0 9e 37 64
        E 0 8c 37 64
        E 0 8e 37 64
        E 0 9c 37 64
        E 0 9e 37 64
        E 0 8c 37 64
        E 0 8e 37 64
        E 0 9c 39 64
        E 0 9e 39 64
        E 0 8c 39 64
        E 0 8e 39 64
        E 0 8f 37 64
        E 0 9c 3b 64
        E 0 9e 3b 64
        E 0 9f 37 5a
        E 0 8c 3b 64
        E 0 8e 3b 64
        E 0 9c 3b 64
        E 0 9e 3b 64
        E 0 8c 3b 64
        E 0 8e 3b 64
        E 0 9c 3b 64
        E 0 9e 3b 64
        E 0 8c 3b 64
        E 0 8e 3b 64
        E 0 9c 3b 64
        E 0 9e 3b 64
        E 0 8c 3b 64
        E 0 8e 3b 64
        E 0 9c 3c 64
        E 0 9e 3c 64
        E 0 8c 3c 64
        E 0 8e 3c 64
        E 0 8f 37 64
        E 0 9c 37 64
        E 0 9e 37 64
        E 0 9f 34 5a
        E 0 8c 37 64
        E 0 8e 37 64
        E 0 9c 37 64
        E 0 9e 37 64
        E 0 8c 37 64
        E 0 8e 37 64
        E 0 9c 37 64
        E 0 9e 37 64
        E 0 8c 37 64
        E 0 8e 37 64
        E 0 8f 34 64
        E 0 9c 3a 66
        E 0 9e 3a 66
        E 0 9f 34 5a
        E 0 8c 3a 66
        E 0 8e 3a 66
        E 0 9c 3a 66
        E 0 9e 3a 66
        E 0 8c 3a 66
        E 0 8e 3a 66
        E 0 9c 3a 66
        E 0 9e 3a 66
        E 0 8c 3a 66
        E 0 8e 3a 66
        E 0 9c 39 64
        E 0 9e 39 64
        E 0 8c 39 64
        E 0 8e 39 64
        E 0 8f 34 64
        E 0 9c 39 64
        E 0 9e 39 64
        E 0 9f 35 5a
        E 0 8c 39 64
        E 0 8e 39 64
        E 0 9c 39 64
        E 0 9e 39 64
        E 0 8c 39 64
        E 1 8e 39 64
        E 0 9c 3e 64
        E 0 9e 3e 64
        E 0 8c 3e 64
        E 0 8e 3e 64
        E 0 9c 3e 64
        E 0 9e 3e 64
        E 0 8c 3e 64
        E 0 8e 3e 64
        E 0 8f 35 64
        E 0 9c 39 64
        E 0 9e 39 64
        E 0 9f 35 5a
        E 0 8c 39 64
        E 0 8e 39 64
        E 0 9c 39 64
        E 0 9e 39 64
        E 0 8c 39 64
        E 0 8e 39 64
        E 0 9c 38 64
        E 0 9e 38 64
        E 0 8c 38 64
        E 0 8e 38 64
        E 0 8f 35 64
        E 0 9c 3b 64
        E 0 9e 3b 64
        E 0 9f 34 5a
        E 0 8c 3b 64
        E 0 8e 3b 64
        E 0 9c 3b 64
        E 0 9e 3b 64
        E 0 8c 3b 64
        E 0 8e 3b 64
        E 0 8f 34 64
        E 0 9c 34 64
        E 0 9e 34 64
        E 0 9f 34 5a
        E 0 8c 34 64
        E 0 8e 34 64
        E 0 9c 34 64
        E 0 9e 34 64
        E 0 8c 34 64
        E 0 8e 34 64
        E 0 9c 36 64
        E 0 9e 36 64
        E 0 8c 36 64
        E 0 8e 36 64
        E 0 9c 38 64
        E 0 9e 38 64
        E 0 8c 38 64
        E 0 8e 38 64
        E 0 9c 38 64
        E 0 9e 38 64
        E 0 8c 38 64
        E 0 8e 38 64
        E 0 9c 38 64
        E 0 9e 38 64
        E 0 8c 38 64
        E 0 8e 38 64
        E 0 9c 38 64
        E 0 9e 38 64
        E 0 8c 38 64
        E 0 8e 38 64
        E 0 8f 34 64
        E 0 9c 38 64
        E 0 9e 38 64
        E 0 9f 34 5a
        E 0 8c 38 64
        E 0 8e 38 64
        E 0 9c 39 64
        E 0 9e 39 64
        E 0 8c 39 64
        E 0 8e 39 64
        E 0 9c 3b 64
        E 0 9e 3b 64
        E 0 8c 3b 64
        E 0 8e 3b 64
        E 0 9c 34 64
        E 0 9e 34 64
        E 0 8c 34 64
        E 0 8e 34 64
        E 0 8f 34 64
        E 0 9c 3d 64
        E 0 9e 3d 64
        E 0 9f 37 5a
        E 0 8c 3d 64
        E 0 8e 3d 64
        E 0 9c 3e 64
        E 0 9e 3e 64
        E 0 8c 3e 64
        E 0 8e 3e 64
        E 0 9c 40 64
        E 0 9e 40 64
        E 0 8c 40 64
        E 0 8e 40 64
        E 0 8f 37 64
        E 0 9c 39 64
        E 0 9e 39 64
        E 0 9f 31 5a
        E 0 8c 39 64
        E 0 8e 39 64
        E 0 9c 39 64
        E 0 9e 39 64
        E 0 8c 39 64
        E 0 8e 39 64
        E 0 9c 3a 66
        E 1 9e 3a 66
        E 0 8c 3a 66
        E 0 8e 3a 66
        E 0 8f 31 64
        E 0 9c 37 64
        E 0 9e 37 64
        E 0 9f 31 5a
        E 0 8c 37 64
        E 0 8e 37 64
        E 0 9c 37 64
        E 0 9e 37 64
        E 0 8c 37 64
        E 0 8e 37 64
        E 0 9c 37 64
        E 0 9e 37 64
        E 0 8c 37 64
        E 0 8e 37 64
        E 0 9c 35 64
        E 0 9e 35 64
        E 0 8c 35 64
        E 0 8e 35 64
        E 0 8f 31 64
        E 0 9c 32 64
        E 0 9e 32 64
        E 0 9f 32 5a
        E 0 8c 32 64
        E 0 8e 32 64
        E 0 9c 32 64
        E 0 9e 32 64
        E 0 8c 32 64
        E 0 8e 32 64
        E 0 8f 32 64
        E 0 9c 35 64
        E 0 9e 35 64
        E 0 9f 32 5a
        E 38403 8c 35 64
        E 0 8e 35 64
        E 0 9c 35 64
        E 0 9e 35 64
        E 0 8c 35 64
        E 0 8e 35 64
        E 0 9c 3a 66
        E 0 9e 3a 66
        E 0 8c 3a 66
        E 0 8e 3a 66
        E 0 9c 3a 66
        E 0 9e 3a 66
        E 0 8c 3a 66
        E 0 8e 3a 66
        E 0 9c 3c 64
        E 0 9e 3c 64
        E 0 8c 3c 64
        E 0 8e 3c 64
        E 0 9c 38 64
        E 0 9e 38 64
        E 0 8c 38 64
        E 0 8e 38 64
        E 0 9c 38 64
        E 0 9e 38 64
        E 0 8c 38 64
        E 0 8e 38 64
        E 0 9c 35 64
        E 0 9e 35 64
        E 0 8c 35 64
        E 0 8e 35 64
        E 0 9c 37 64
        E 0 9e 37 64
        E 0 8c 37 64
        E 0 8e 37 64
        E 0 8f 32 64
        E 0 9c 38 64
        E 0 9e 38 64
        E 0 9f 2e 5b
        E 1 8c 38 64
        E 0 8e 38 64
        E 0 9c 38 64
        E 0 9e 38 64
        E 0 8c 38 64
        E 0 8e 38 64
        E 0 9c 37 64
        E 0 9e 37 64
        E 0 8c 37 64
        E 0 8e 37 64
        E 0 8f 2e 66
        E 0 9c 37 64
        E 0 9e 37 64
        E 0 9f 33 5b
        E 0 8c 37 64
        E 0 8e 37 64
        E 0 9c 37 64
        E 0 9e 37 64
        E 0 8c 37 64
        E 0 8e 37 64
        E 0 9c 3a 66
        E 1 9e 3a 66
        E 0 8c 3a 66
        E 0 8e 3a 66
        E 0 8f 33 66
        E 0 9c 3c 64
        E 0 9e 3c 64
        E 0 9f 2c 5b
        E 0 8c 3c 64
        E 0 8e 3c 64
        E 0 9c 38 64
        E 0 9e 38 64
        E 0 8c 38 64
        E 0 8e 38 64
        E 0 9c 37 64
        E 0 9e 37 64
        E 0 8c 37 64
        E 0 8e 37 64
        E 0 8f 2c 66
        E 0 9c 33 66
        E 0 9e 33 66
        E 0 9f 2e 5b
        E 0 8c 33 66
        E 0 8e 33 66
        E 0 9c 33 66
        E 0 9e 33 66
        E 0 8c 33 66
        E 0 8e 33 66
        E 0 8f 2e 66
        E 0 9f 33 5b
        E 0 9a 46 66
        E 0 9e 46 66
        E 0 8a 46 66
        E 0 8e 46 66
        E 0 8f 33 66
        E 0 9a 3f 66
        E 0 9e 3f 66
        E 0 9f 33 5b
        E 0 8a 3f 66
        E 0 8e 3f 66
        E 0 9a 3f 66
        E 0 9e 3f 66
        E 0 8a 3f 66
        E 0 8e 3f 66
        E 0 95 48 64
        E 0 9e 48 64
        E 0 85 48 64
        E 0 8e 48 64
        E 0 8f 33 66
        E 0 95 44 64
        E 0 9e 44 64
        E 0 9f 35 5a
        E 0 85 44 64
        E 0 8e 44 64
        E 0 95 44 64
        E 0 9e 44 64
        E 0 85 44 64
        E 0 8e 44 64
        E 0 98 48 64
        E 0 9e 48 64
        E 0 88 48 64
        E 0 8e 48 64
        E 0 98 48 64
        E 0 9e 48 64
        E 0 88 48 64
        E 0 8e 48 64
        E 0 98 4a 64
        E 0 9e 4a 64
        E 0 88 4a 64
        E 0 8e 4a 64
        E 0 8f 35 64
        E 1 98 46 66
        E 0 9e 46 66
        E 0 9f 2e 5b
        E 0 88 46 66
        E 0 8e 46 66
        E 0 98 46 66
        E 0 9e 46 66
        E 0 88 46 66
        E 0 8e 46 66
        E 0 9a 3e 64
        E 0 9e 3e 64
        E 0 8a 3e 64
        E 0 8e 3e 64
        E 0 9a 43 64
        E 0 9e 43 64
        E 0 8a 43 64
        E 0 8e 43 64
        E 0 9a 43 64
        E 0 9e 43 64
        E 0 8a 43 64
        E 0 8e 43 64
        E 0 8f 2e 66
        E 0 9a 43 64
        E 0 9e 43 64
        E 0 9f 33 5b
        E 0 8a 43 64
        E 0 8e 43 64
        E 0 9a 43 64
        E 0 9e 43 64
        E 0 8a 43 64
        E 0 8e 43 64
        E 0 9a 43 64
        E 0 9e 43 64
        E 0 8a 43 64
        E 0 8e 43 64
        E 0 9a 43 64
        E 0 9e 43 64
        E 0 8a 43 64
        E 0 8e 43 64
        E 0 9a 42 64
        E 0 9e 42 64
        E 0 8a 42 64
        E 0 8e 42 64
        E 0 8f 33 66
        E 0 9a 45 64
        E 0 9e 45 64
        E 0 9f 32 5a
        E 0 8a 45 64
        E 0 8e 45 64
        E 0 9c 36 64
        E 0 9e 36 64
        E 0 8c 36 64
        E 0 8e 36 64
        E 0 9c 36 64
        E 0 9e 36 64
        E 0 8c 36 64
        E 0 8e 36 64
        E 0 9c 37 64
        E 0 9e 37 64
        E 0 8c 37 64
        E 0 8e 37 64
        E 0 8f 32 64
        E 0 9c 39 64
        E 0 9e 39 64
        E 0 9f 32 5a
        E 0 8c 39 64
        E 0 8e 39 64
        E 0 9c 39 64
        E 0 9e 39 64
        E 0 8c 39 64
        E 1 8e 39 64
        E 0 9c 39 64
        E 0 9e 39 64
        E 0 8c 39 64
        E 0 8e 39 64
        E 0 9c 3a 66
        E 0 9e 3a 66
        E 0 8c 3a 66
        E 0 8e 3a 66
        E 0 9c 3c 64
        E 0 9e 3c 64
        E 0 8c 3c 64
        E 0 8e 3c 64
        E 0 9c 3c 64
        E 0 9e 3c 64
        E 0 8c 3c 64
        E 0 8e 3c 64
        E 0 9c 3a 66
        E 0 9e 3a 66
        E 0 8c 3a 66
        E 0 8e 3a 66
        E 0 8f 32 64
        E 0 9c 37 64
        E 0 9e 37 64
        E 0 9f 37 5a
        E 0 8c 37 64
        E 0 8e 37 64
        E 0 9c 37 64
        E 0 9e 37 64
        E 0 8c 37 64
        E 0 8e 37 64
        E 0 98 46 66
        E 0 9e 46 66
        E 0 88 46 66
        E 0 8e 46 66
        E 0 98 46 66
        E 0 9e 46 66
        E 0 88 46 66
        E 0 8e 46 66
        E 0 98 45 64
        E 0 9e 45 64
        E 0 88 45 64
        E 0 8e 45 64
        E 0 8f 37 64
        E 0 98 45 64
        E 0 9e 45 64
        E 0 9f 36 5a
        E 0 88 45 64
        E 0 8e 45 64
        E 0 98 45 64
        E 0 9e 45 64
        E 0 88 45 64
        E 0 8e 45 64
        E 0 98 45 64
        E 0 9e 45 64
        E 0 88 45 64
        E 0 8e 45 64
        E 0 98 46 66
        E 0 9e 46 66
        E 0 88 46 66
        E 0 8e 46 66
        E 0 8f 36 64
        E 0 98 48 64
        E 0 9e 48 64
        E 0 9f 36 5a
        E 0 88 48 64
        E 0 8e 48 64
        E 0 98 48 64
        E 0 9e 48 64
        E 0 88 48 64
        E 0 8e 48 64
        E 0 98 46 66
        E 0 9e 46 66
        E 0 88 46 66
        E 0 8e 46 66
        E 0 8f 36 64
        E 0 98 43 64
        E 0 9e 43 64
        E 0 9f 2e 5b
        E 0 88 43 64
        E 0 8e 43 64
        E 0 98 43 64
        E 0 9e 43 64
        E 0 88 43 64
        E 0 8e 43 64
        E 0 97 4a 64
        E 0 9e 4a 64
        E 0 87 4a 64
        E 0 8e 4a 64
        E 0 8f 2e 66
        E 0 97 43 64
        E 0 9e 43 64
        E 0 9f 2e 5b
        E 0 87 43 64
        E 0 8e 43 64
        E 0 97 43 64
        E 0 9e 43 64
        E 0 87 43 64
        E 0 8e 43 64
        E 0 97 43 64
        E 0 9e 43 64
        E 0 87 43 64
        E 0 8e 43 64
        E 0 97 45 64
        E 0 9e 45 64
        E 1 87 45 64
        E 0 8e 45 64
        E 0 8f 2e 66
        E 0 97 45 64
        E 0 9e 45 64
        E 0 9f 2d 5a
        E 0 87 45 64
        E 0 8e 45 64
        E 0 97 45 64
        E 0 9e 45 64
        E 0 87 45 64
        E 0 8e 45 64
        E 0 9c 34 64
        E 0 9e 34 64
        E 0 8c 34 64
        E 0 8e 34 64
        E 0 9c 34 64
        E 0 9e 34 64
        E 0 8c 34 64
        E 0 8e 34 64
        E 0 9c 36 64
        E 0 9e 36 64
        E 0 8c 36 64
        E 0 8e 36 64
        E 0 8f 2d 64
        E 0 9c 36 64
        E 0 9e 36 64
        E 0 9f 33 5a
        E 38403 8c 36 64
        E 0 8e 36 64
        E 0 9c 36 64
        E 0 9e 36 64
        E 0 8c 36 64
        E 0 8e 36 64
        E 0 9c 39 64
        E 0 9e 39 64
        E 0 8c 39 64
        E 0 8e 39 64
        E 0 9c 39 64
        E 0 9e 39 64
        E 0 8c 39 64
        E 0 8e 39 64
        E 0 9c 37 64
        E 0 9e 37 64
        E 0 8c 37 64
        E 0 8e 37 64
        E 0 8f 33 64
        E 0 9c 34 64
        E 0 9e 34 64
        E 0 9f 34 5a
        E 0 8c 34 64
        E 0 8e 34 64
        E 0 9c 34 64
        E 0 9e 34 64
        E 0 8c 34 64
        E 0 8e 34 64
        E 0 9c 3b 64
        E 0 9e 3b 64
        E 0 8c 3b 64
        E 0 8e 3b 64
        E 0 9c 39 64
        E 0 9e 39 64
        E 0 8c 39 64
        E 0 8e 39 64
        E 0 9c 3b 64
        E 0 9e 3b 64
        E 0 8c 3b 64
        E 0 8e 3b 64
        E 0 8f 34 64
        E 0 9c 37 64
        E 0 9e 37 64
        E 1 9f 34 5a
        E 0 8c 37 64
        E 0 8e 37 64
        E 0 9c 37 64
        E 0 9e 37 64
        E 0 8c 37 64
        E 0 8e 37 64
        E 0 9c 34 64
        E 0 9e 34 64
        E 0 8c 34 64
        E 0 8e 34 64
        E 0 8f 34 64
        E 0 9c 39 64
        E 0 9e 39 64
        E 0 9f 30 5a
        E 0 8c 39 64
        E 0 8e 39 64
        E 0 9c 39 64
        E 0 9e 39 64
        E 0 8c 39 64
        E 0 8e 39 64
        E 0 8f 30 64
        E 0 9c 3c 64
        E 0 9e 3c 64
        E 0 9f 30 5a
        E 0 8c 3c 64
        E 0 8e 3c 64
        E 0 9c 3c 64
        E 0 9e 3c 64
        E 0 8c 3c 64
        E 0 8e 3c 64
        E 0 9c 39 64
        E 0 9e 39 64
        E 0 8c 39 64
        E 0 8e 39 64
        E 1 9c 39 64
        E 0 9e 39 64
        E 0 8c 39 64
        E 0 8e 39 64
        E 0 9c 37 64
        E 0 9e 37 64
        E 0 8c 37 64
        E 0 8e 37 64
        E 0 8f 30 64
        E 0 9c 34 64
        E 0 9e 34 64
        E 0 9f 2f 5a
        E 0 8c 34 64
        E 0 8e 34 64
        E 0 9c 34 64
        E 0 9e 34 64
        E 0 8c 34 64
        E 0 8e 34 64
        E 0 8f 2f 64
        E 0 9f 34 5a
        E 0 9c 3b 64
        E 0 9e 3b 64
        E 0 8c 3b 64
        E 0 8e 3b 64
        E 0 9c 3b 64
        E 0 9e 3b 64
        E 0 8c 3b 64
        E 0 8e 3b 64
        E 0 9c 3c 64
        E 0 9e 3c 64
        E 0 8c 3c 64
        E 0 8e 3c 64
        E 0 8f 34 64
        E 0 9c 39 64
        E 0 9e 39 64
        E 0 9f 36 5a
        E 0 8c 39 64
        E 0 8e 39 64
        E 0 9c 39 64
        E 0 9e 39 64
        E 0 8c 39 64
        E 0 8e 39 64
        E 0 9c 39 64
        E 0 9e 39 64
        E 0 8c 39 64
        E 0 8e 39 64
        E 0 9c 39 64
        E 0 9e 39 64
        E 0 8c 39 64
        E 0 8e 39 64
        E 0 9c 3b 64
        E 0 9e 3b 64
        E 0 8c 3b 64
        E 0 8e 3b 64
        E 0 9c 3c 64
        E 0 9e 3c 64
        E 0 8c 3c 64
        E 0 8e 3c 64
        E 0 9c 3b 64
        E 0 9e 3b 64
        E 0 8c 3b 64
        E 0 8e 3b 64
        E 0 8f 36 64
        E 0 9c 37 64
        E 0 9e 37 64
        E 0 9f 37 5a
        E 0 8c 37 64
        E 0 8e 37 64
        E 0 9c 37 64
        E 0 9e 37 64
        E 0 8c 37 64
        E 0 8e 37 64
        E 0 9c 3b 64
        E 0 9e 3b 64
        E 0 8c 3b 64
        E 0 8e 3b 64
        E 0 9c 3b 64
        E 0 9e 3b 64
        E 0 8c 3b 64
        E 0 8e 3b 64
        E 0 9c 3e 64
        E 0 9e 3e 64
        E 0 8c 3e 64
        E 0 8e 3e 64
        E 0 8f 37 64
        E 0 9c 38 64
        E 0 9e 38 64
        E 0 9f 32 5a
        E 0 8c 38 64
        E 0 8e 38 64
        E 0 9c 38 64
        E 0 9e 38 64
        E 0 8c 38 64
        E 0 8e 38 64
        E 0 9c 3b 64
        E 0 9e 3b 64
        E 0 8c 3b 64
        E 0 8e 3b 64
        E 0 9c 3b 64
        E 0 9e 3b 64
        E 0 8c 3b 64
        E 0 8e 3b 64
        E 0 9c 3c 64
        E 0 9e 3c 64
        E 0 8c 3c 64
        E 0 8e 3c 64
        E 0 8f 32 64
        E 0 9c 39 64
        E 0 9e 39 64
        E 0 9f 30 5a
        E 0 8c 39 64
        E 1 8e 39 64
        E 0 9c 39 64
        E 0 9e 39 64
        E 0 8c 39 64
        E 0 8e 39 64
        E 0 9c 34 64
        E 0 9e 34 64
        E 0 8c 34 64
        E 0 8e 34 64
        E 0 9c 34 64
        E 0 9e 34 64
        E 0 8c 34 64
        E 0 8e 34 64
        E 0 9c 34 64
        E 0 9e 34 64
        E 0 8c 34 64
        E 0 8e 34 64
        E 0 9c 39 64
        E 0 9e 39 64
        E 0 8c 39 64
        E 0 8e 39 64
        E 0 9c 39 64
        E 0 9e 39 64
        E 0 8c 39 64
        E 0 8e 39 64
        E 0 9c 3c 64
        E 0 9e 3c 64
        E 0 8c 3c 64
        E 0 8e 3c 64
        E 0 8f 30 64
        E 0 9c 39 64
        E 0 9e 39 64
        E 0 9f 30 5a
        E 0 8c 39 64
        E 0 8e 39 64
        E 0 9c 39 64
        E 0 9e 39 64
        E 0 8c 39 64
        E 0 8e 39 64
        E 0 9c 39 64
        E 0 9e 39 64
        E 0 8c 39 64
        E 0 8e 39 64
        E 0 9c 37 64
        E 0 9e 37 64
        E 0 8c 37 64
        E 0 8e 37 64
        E 0 9c 39 64
        E 0 9e 39 64
        E 0 8c 39 64
        E 0 8e 39 64
        E 0 8f 30 64
        E 0 9c 35 64
        E 0 9e 35 64
        E 0 9f 32 5a
        E 0 8c 35 64
        E 0 8e 35 64
        E 0 9c 3e 64
        E 0 9e 3e 64
        E 0 8c 3e 64
        E 0 8e 3e 64
        E 0 9c 38 64
        E 0 9e 38 64
        E 0 8c 38 64
        E 0 8e 38 64
        E 0 9c 39 64
        E 0 9e 39 64
        E 0 8c 39 64
        E 0 8e 39 64
        E 0 8f 32 64
        E 0 9c 34 64
        E 0 9e 34 64
        E 0 9f 34 5a
        E 0 8c 34 64
        E 0 8e 34 64
        E 0 9c 34 64
        E 0 9e 34 64
        E 0 8c 34 64
        E 0 8e 34 64
        E 0 8f 34 64
        E 0 9f 2d 5a
        E 0 8f 2d 64
        E 0 9f 3e 5a
        E 0 8f 3e 64
        E 0 9f 39 5a
        E 0 8f 39 64
        E 0 9f 37 5a
        E 0 8f 37 64
        E 0 9f 35 5a
        E 0 8f 35 64
        E 0 9f 34 5a
        E 0 8f 34 64
        E 0 9f 32 5a
        E 0 8f 32 64
        E 0 9f 41 5a
        E 0 8f 41 64
        E 0 9f 39 5a
        E 0 8f 39 64
        E 0 9f 3a 5b
        E 0 8f 3a 66
        E 0 9f 37 5a
        E 0 8f 37 64
        E 0 9f 31 5a
        E 0 8f 31 64
        E 1 9f 40 5a
        E 0 8f 40 64
        E 0 9f 37 5a
        E 0 8f 37 64
        E 0 9f 39 5a
        E 38403 8f 39 64
        E 0 9f 35 5a
        E 0 8f 35 64
        E 0 9f 32 5a
        E 0 8f 32 64
        E 0 9f 3e 5a
        E 0 8f 3e 64
        E 0 9f 38 5a
        E 0 8f 38 64
        E 0 9f 39 5a
        E 0 8f 39 64
        E 0 9f 2d 5a
        E 0 8f 2d 64
        E 0 9f 41 5a
        E 0 8f 41 64
        E 0 9f 40 5a
        E 0 8f 40 64
        E 0 9f 3e 5a
        E 0 8f 3e 64
        E 0 9f 3c 5a
        E 0 8f 3c 64
        E 0 9f 3a 5b
        E 0 8f 3a 66
        E 0 9f 39 5a
        E 0 8f 39 64
        E 0 9f 3a 5b
        E 0 8f 3a 66
        E 0 9f 32 5a
        E 0 8f 32 64
        E 0 9f 3a 5b
        E 0 8f 3a 66
        E 0 9f 32 5a
        E 0 8f 32 64
        E 0 9f 3a 5b
        E 0 8f 3a 66
        E 0 9f 32 5a
        E 0 8f 32 64
        E 1 9f 40 5a
        E 0 8f 40 64
        E 0 9f 3e 5a
        E 0 8f 3e 64
        E 0 9f 3c 5a
        E 0 8f 3c 64
        E 0 9f 3a 5b
        E 0 8f 3a 66
        E 0 9f 39 5a
        E 0 8f 39 64
        E 0 9f 37 5a
        E 0 8f 37 64
        E 0 9f 39 5a
        E 0 8f 39 64
        E 0 9f 30 5a
        E 0 8f 30 64
        E 0 9f 39 5a
        E 0 8f 39 64
        E 1 9f 30 5a
        E 0 8f 30 64
        E 0 9f 39 5a
        E 0 8f 39 64
        E 0 9f 30 5a
        E 0 8f 30 64
        E 0 9f 3e 5a
        E 0 8f 3e 64
        E 0 9f 3c 5a
        E 0 8f 3c 64
        E 0 9f 3a 5b
        E 0 8f 3a 66
        E 0 9f 39 5a
        E 0 8f 39 64
        E 0 9f 37 5a
        E 0 8f 37 64
        E 0 9f 35 5a
        E 0 8f 35 64
        E 0 9f 37 5a
        E 0 8f 37 64
        E 0 9f 2e 5b
        E 0 8f 2e 66
        E 0 9f 37 5a
        E 0 8f 37 64
        E 0 9f 2e 5b
        E 0 8f 2e 66
        E 0 9f 37 5a
        E 0 8f 37 64
        E 0 9f 2e 5b
        E 0 8f 2e 66
        E 0 9f 3d 5a
        E 0 8f 3d 64
        E 0 9f 3b 5a
        E 0 8f 3b 64
        E 0 9f 39 5a
        E 0 8f 39 64
        E 0 9f 37 5a
        E 0 8f 37 64
        E 0 9f 35 5a
        E 0 8f 35 64
        E 0 9f 34 5a
        E 0 8f 34 64
        E 0 9f 35 5a
        E 0 8f 35 64
        E 0 9f 3d 5a
        E 0 8f 3d 64
        E 0 9f 3e 5a
        E 0 8f 3e 64
        E 0 9f 37 5a
        E 0 8f 37 64
        E 0 9f 3d 5a
        E 0 8f 3d 64
        E 0 9f 3e 5a
        E 0 8f 3e 64
        E 1 9f 39 5a
        E 0 8f 39 64
        E 0 9f 3d 5a
        E 0 8f 3d 64
        E 0 9f 3e 5a
        E 0 8f 3e 64
        E 0 9f 3a 5b
        E 0 8f 3a 66
        E 0 9f 3d 5a
        E 0 8f 3d 64
        E 0 9f 3e 5a
        E 0 8f 3e 64
        E 0 9f 37 5a
        E 0 8f 37 64
        E 0 9f 39 5a
        E 0 8f 39 64
        E 0 9f 2d 5a
        E 0 8f 2d 64
        E 0 9f 32 5a
        E 0 8f 32 64
        E 0 9c 3e 64
        E 0 9f 3e 5a
        E 0 8c 3e 64
        E 0 8f 3e 64
        E 0 9c 39 64
        E 0 9f 39 5a
        E 0 8c 39 64
        E 0 8f 39 64
        E 0 9c 37 64
        E 0 9f 37 5a
        E 0 8c 37 64
        E 0 8f 37 64
        E 0 9c 35 64
        E 0 9f 35 5a
        E 0 8c 35 64
        E 0 8f 35 64
        E 0 9c 34 64
        E 0 9f 34 5a
        E 0 8c 34 64
        E 0 8f 34 64
        E 0 9c 32 64
        E 0 9f 32 5a
        E 0 8c 32 64
        E 0 8f 32 64
        E 0 9c 41 64
        E 0 9f 41 5a
        E 0 8c 41 64
        E 0 8f 41 64
        E 0 9c 39 64
        E 0 9f 39 5a
        E 0 8c 39 64
        E 0 8f 39 64
        E 0 9c 3a 66
        E 0 9f 3a 5b
        E 0 8c 3a 66
        E 0 8f 3a 66
        E 0 9c 37 64
        E 0 9f 37 5a
        E 0 8c 37 64
        E 0 8f 37 64
        E 0 9c 31 64
        E 1 9f 31 5a
        E 0 8c 31 64
        E 0 8f 31 64
        E 0 9c 40 64
        E 0 9f 40 5a
        E 0 8c 40 64
        E 0 8f 40 64
        E 0 9c 37 64
        E 0 9f 37 5a
        E 0 8c 37 64
        E 0 8f 37 64
        E 0 9c 39 64
        E 0 9f 39 5a
        E 0 8c 39 64
        E 0 8f 39 64
        E 0 9c 35 64
        E 0 9f 35 5a
        E 0 8c 35 64
        E 0 8f 35 64
        E 0 9c 32 64
        E 0 9f 32 5a
        E 0 8c 32 64
        E 0 8f 32 64
        E 0 9c 3e 64
        E 0 9f 3e 5a
        E 0 8c 3e 64
        E 0 8f 3e 64
        E 0 9c 38 64
        E 0 9f 38 5a
        E 0 8f 38 64
        E 0 9f 34 5a
        E 0 8c 38 64
        E 0 8f 34 64
        E 0 9c 39 64
        E 0 9f 39 5a
        E 0 8c 39 64
        E 0 9c 38 64
        E 0 8c 38 64
        E 0 8f 39 64
        E 0 9c 39 64
        E 0 9f 2d 5a
        E 0 8c 39 64
        E 0 8f 2d 64
        E 0 9c 41 64
        E 0 9f 41 5a
        E 0 8c 41 64
        E 0 8f 41 64
        E 0 9c 40 64
        E 0 9f 40 5a
        E 0 8c 40 64
        E 0 8f 40 64
        E 0 9c 3e 64
        E 0 9f 3e 5a
        E 0 8c 3e 64
        E 0 8f 3e 64
        E 0 9c 3c 64
        E 0 9f 3c 5a
        E 0 8c 3c 64
        E 0 8f 3c 64
        E 0 9c 3a 66
        E 0 9f 3a 5b
        E 0 8c 3a 66
        E 0 8f 3a 66
        E 0 9c 39 64
        E 0 9f 39 5a
        E 0 8c 39 64
        E 0 8f 39 64
        E 0 9c 3a 66
        E 0 9f 3a 5b
        E 0 8f 3a 66
        E 0 9f 32 5a
        E 0 8c 3a 66
        E 0 8f 32 64
        E 0 9c 37 64
        E 0 9f 3a 5b
        E 0 8f 3a 66
        E 0 9f 32 5a
        E 0 8c 37 64
        E 0 8f 32 64
        E 0 9f 3a 5b
        E 0 8f 3a 66
        E 0 9f 32 5a
        E 0 8f 32 64
        E 0 9c 40 64
        E 0 9f 40 5a
        E 0 8c 40 64
        E 0 8f 40 64
        E 0 9c 3e 64
        E 0 9f 3e 5a
        E 0 8c 3e 64
        E 0 8f 3e 64
        E 0 9c 3c 64
        E 1 9f 3c 5a
        E 0 8c 3c 64
        E 0 8f 3c 64
        E 0 9c 3a 66
        E 0 9f 3a 5b
        E 38402 8c 3a 66
        E 0 8f 3a 66
        E 0 9c 39 64
        E 0 9f 39 5a
        E 0 8c 39 64
        E 0 8f 39 64
        E 0 9c 37 64
        E 0 9f 37 5a
        E 0 8c 37 64
        E 0 8f 37 64
        E 0 9c 39 64
        E 0 9f 39 5a
        E 0 8f 39 64
        E 1 9f 30 5a
        E 0 8c 39 64
        E 0 8f 30 64
        E 0 9c 35 64
        E 0 9f 39 5a
        E 0 8f 39 64
        E 0 9f 30 5a
        E 0 8c 35 64
        E 0 8f 30 64
        E 0 9f 39 5a
        E 0 8f 39 64
        E 0 9f 30 5a
        E 0 8f 30 64
        E 0 9c 3e 64
        E 0 9f 3e 5a
        E 0 8c 3e 64
        E 0 8f 3e 64
        E 0 9c 3c 64
        E 0 9f 3c 5a
        E 0 8c 3c 64
        E 0 8f 3c 64
        E 0 9c 3a 66
        E 0 9f 3a 5b
        E 0 8c 3a 66
        E 0 8f 3a 66
        E 0 9c 39 64
        E 0 9f 39 5a
        E 0 8c 39 64
        E 0 8f 39 64
        E 0 9c 37 64
        E 0 9f 37 5a
        E 0 8c 37 64
        E 0 8f 37 64
        E 0 9c 35 64
        E 0 9f 35 5a
        E 0 8c 35 64
        E 0 8f 35 64
        E 0 9c 34 64
        E 0 9f 34 5a
        E 0 8c 34 64
        E 0 8f 34 64
        E 0 9c 3c 64
        E 0 9f 3c 5a
        E 0 8c 3c 64
        E 0 8f 3c 64
        E 0 9c 3e 64
        E 0 9f 3e 5a
        E 0 8c 3e 64
        E 0 8f 3e 64
        E 0 9c 30 64
        E 0 9f 30 5a
        E 0 8c 30 64
        E 0 8f 30 64
        E 1 9c 3a 66
        E 0 9f 3a 5b
        E 0 8c 3a 66
        E 0 8f 3a 66
        E 0 9c 3c 64
        E 0 9f 3c 5a
        E 0 8c 3c 64
        E 0 8f 3c 64
        E 0 9c 30 64
        E 0 9f 30 5a
        E 0 8c 30 64
        E 0 8f 30 64
        E 0 9c 39 64
        E 0 9f 39 5a
        E 0 8c 39 64
        E 0 8f 39 64
        E 0 9c 3a 66
        E 0 9f 3a 5b
        E 0 8c 3a 66
        E 0 8f 3a 66
        E 0 9c 30 64
        E 0 9f 30 5a
        E 0 8c 30 64
        E 0 8f 30 64
        E 0 9c 32 64
        E 1 9f 32 5a
        E 0 8c 32 64
        E 0 8f 32 64
        E 0 9c 34 64
        E 0 9f 34 5a
        E 0 8c 34 64
        E 0 8f 34 64
        E 0 9c 35 64
        E 0 9f 35 5a
        E 0 8c 35 64
        E 0 8f 35 64
        E 0 9c 37 64
        E 0 9f 37 5a
        E 0 8c 37 64
        E 0 8f 37 64
        E 0 9c 39 64
        E 0 9f 39 5a
        E 0 8c 39 64
        E 0 8f 39 64
        E 0 9c 3a 66
        E 0 9f 3a 5b
        E 0 8c 3a 66
        E 0 8f 3a 66
        E 0 9c 3c 64
        E 0 9f 3c 5a
        E 0 8c 3c 64
        E 0 8f 3c 64
        E 0 9c 3e 64
        E 0 9f 3e 5a
        E 0 8c 3e 64
        E 0 8f 3e 64
        E 0 9c 40 64
        E 0 9f 40 5a
        E 0 8c 40 64
        E 0 8f 40 64
        E 0 9c 3c 64
        E 0 9f 3c 5a
        E 0 8c 3c 64
        E 0 8f 3c 64
        E 0 9c 41 64
        E 0 9f 41 5a
        E 0 8c 41 64
        E 0 8f 41 64
        E 0 9c 40 64
        E 0 9f 40 5a
        E 0 8c 40 64
        E 0 8f 40 64
        E 0 9c 3e 64
        E 0 9f 3e 5a
        E 0 8c 3e 64
        E 0 8f 3e 64
        E 0 9c 3c 64
        E 0 9f 3c 5a
        E 1 8c 3c 64
        E 0 8f 3c 64
        E 0 9c 3a 66
        E 0 9f 3a 5b
        E 0 8c 3a 66
        E 0 8f 3a 66
        E 0 9c 39 64
        E 0 9f 39 5a
        E 0 8c 39 64
        E 0 8f 39 64
        E 0 9c 3a 66
        E 0 9f 3a 5b
        E 0 8c 3a 66
        E 0 8f 3a 66
        E 0 9c 3c 64
        E 0 9f 3c 5a
        E 0 8c 3c 64
        E 0 8f 3c 64
        E 0 9c 35 64
        E 0 9f 35 5a
        E 0 8f 35 64
        E 0 9f 3c 5a
        E 0 8f 3c 64
        E 0 9f 3a 5b
        E 0 8f 3a 66
        E 0 9f 39 5a
        E 0 8c 35 64
        E 0 8f 39 64
        E 0 9f 37 5a
        E 0 8f 37 64
        E 0 9f 35 5a
        E 0 8f 35 64
        E 0 9f 3a 5b
        E 0 8f 3a 66
        E 0 9f 3e 5a
        E 0 8f 3e 64
        E 0 9f 3c 5a
        E 0 8f 3c 64
        E 0 9f 3a 5b
        E 0 8f 3a 66
        E 0 9f 39 5a
        E 0 8f 39 64
        E 0 9f 37 5a
        E 0 8f 37 64
        E 0 9f 39 5a
        E 0 8f 39 64
        E 0 9f 3c 5a
        E 0 8f 3c 64
        E 0 9f 3a 5b
        E 0 8f 3a 66
        E 0 9f 39 5a
        E 0 8f 39 64
        E 0 9f 37 5a
        E 0 8f 37 64
        E 0 9f 35 5a
        E 0 8f 35 64
        E 0 9f 3a 5b
        E 0 8f 3a 66
        E 0 9f 3c 5a
        E 0 8f 3c 64
        E 0 9f 30 5a
        E 0 8f 30 64
        E 0 9c 35 64
        E 0 9f 35 5a
        E 0 8c 35 64
        E 0 8f 35 64
        E 0 9c 39 64
        E 0 9f 39 5a
        E 0 8c 39 64
        E 0 8f 39 64
        E 0 9c 3b 64
        E 0 9f 3b 5a
        E 0 8c 3b 64
        E 0 8f 3b 64
        E 0 9c 3c 64
        E 0 9f 3c 5a
        E 0 8c 3c 64
        E 0 8f 3c 64
        E 0 9c 30 64
        E 0 9f 30 5a
        E 0 8c 30 64
        E 0 8f 30 64
        E 0 9c 37 64
        E 1 9f 37 5a
        E 0 8c 37 64
        E 0 8f 37 64
        E 0 9c 3b 64
        E 0 9f 3b 5a
        E 0 8c 3b 64
        E 0 8f 3b 64
        E 0 9c 3d 64
        E 0 9f 3d 5a
        E 0 8c 3d 64
        E 0 8f 3d 64
        E 0 9c 3e 64
        E 0 9f 3e 5a
        E 0 8c 3e 64
        E 0 8f 3e 64
        E 0 9c 32 64
        E 0 9f 32 5a
        E 0 8c 32 64
        E 0 8f 32 64
        E 0 9c 41 64
        E 0 9f 41 5a
        E 0 8c 41 64
        E 0 8f 41 64
        E 0 9c 39 64
        E 0 9f 39 5a
        E 0 8c 39 64
        E 0 8f 39 64
        E 0 9c 3a 66
        E 0 9f 3a 5b
        E 0 8c 3a 66
        E 0 8f 3a 66
        E 0 9c 37 64
        E 0 9f 37 5a
        E 0 8c 37 64
        E 0 8f 37 64
        E 0 9c 31 64
        E 0 9f 31 5a
        E 0 8c 31 64
        E 0 8f 31 64
        E 0 9c 40 64
        E 0 9f 40 5a
        E 0 8c 40 64
        E 0 8f 40 64
        E 0 9c 37 64
        E 0 9f 37 5a
        E 0 8c 37 64
        E 0 8f 37 64
        E 0 9c 39 64
        E 0 9f 39 5a
        E 0 8c 39 64
        E 0 8f 39 64
        E 0 9c 35 64
        E 0 9f 35 5a
        E 0 8c 35 64
        E 0 8f 35 64
        E 0 9c 32 64
        E 0 9f 32 5a
        E 0 8c 32 64
        E 0 8f 32 64
        E 0 9c 3e 64
        E 0 9f 3e 5a
        E 0 8f 3e 64
        E 0 9f 39 5a
        E 0 8c 3e 64
        E 0 8f 39 64
        E 0 9c 3e 64
        E 0 9f 37 5a
        E 0 8f 37 64
        E 0 9f 35 5a
        E 0 8f 35 64
        E 0 9f 34 5a
        E 0 8f 34 64
        E 0 9f 32 5a
        E 0 8c 3e 64
        E 0 8f 32 64
        E 0 9c 3e 64
        E 0 9f 3e 5a
        E 0 8c 3e 64
        E 0 8f 3e 64
        E 0 9c 3d 64
        E 0 9f 39 5a
        E 0 8c 3d 64
        E 0 8f 39 64
        E 0 9c 3e 64
        E 0 9f 37 5a
        E 0 8f 37 64
        E 0 9f 35 5a
        E 0 8f 35 64
        E 0 9f 34 5a
        E 0 8f 34 64
        E 0 9f 32 5a
        E 0 8c 3e 64
        E 0 8f 32 64
        E 0 9c 3e 64
        E 0 9f 3e 5a
        E 0 8f 3e 64
        E 0 9f 39 5a
        E 0 8c 3e 64
        E 1 8f 39 64
        E 0 9c 3e 64
        E 0 9f 37 5a
        E 0 8f 37 64
        E 0 9f 35 5a
        E 0 8f 35 64
        E 0 9f 34 5a
        E 0 8f 34 64
        E 0 9f 32 5a
        E 0 8c 3e 64
        E 0 8f 32 64
        E 0 9c 3e 64
        E 0 9f 3e 5a
        E 0 8c 3e 64
        E 0 8f 3e 64
        E 0 9c 3d 64
        E 0 9f 39 5a
        E 0 8c 3d 64
        E 0 8f 39 64
        E 0 9c 3e 64
        E 0 9f 37 5a
        E 0 8f 37 64
        E 0 9f 35 5a
        E 0 8f 35 64
        E 0 9f 34 5a
        E 0 8f 34 64
        E 0 9f 32 5a
        E 0 8c 3e 64
        E 0 8f 32 64
        E 0 9c 41 64
        E 0 9f 41 5a
        E 0 8c 41 64
        E 0 8f 41 64
        E 0 9c 40 64
        E 0 9f 40 5a
        E 0 8c 40 64
        E 0 8f 40 64
        E 0 9c 3e 64
        E 1 9f 3e 5a
        E 0 8c 3e 64
        E 0 8f 3e 64
        E 0 9c 3c 64
        E 0 9f 3c 5a
        E 0 8c 3c 64
        E 0 8f 3c 64
        E 0 9c 3a 66
        E 0 9f 3a 5b
        E 0 8c 3a 66
        E 0 8f 3a 66
        E 0 9c 39 64
        E 0 9f 39 5a
        E 0 8c 39 64
        E 0 8f 39 64
        E 0 9c 37 64
        E 0 9f 37 5a
        E 38403 8c 37 64
        E 0 8f 37 64
        E 0 9c 3d 64
        E 0 9f 3d 5a
        E 0 8c 3d 64
        E 0 8f 3d 64
        E 0 9c 3e 64
        E 0 9f 3e 5a
        E 0 8c 3e 64
        E 0 8f 3e 64
        E 0 9c 39 64
        E 0 9f 39 5a
        E 0 8c 39 64
        E 1 8f 39 64
        E 0 9c 3d 64
        E 0 9f 3d 5a
        E 0 8c 3d 64
        E 0 8f 3d 64
        E 0 9c 3e 64
        E 0 9f 3e 5a
        E 0 8c 3e 64
        E 0 8f 3e 64
        E 0 9c 3a 66
        E 0 9f 3a 5b
        E 0 8c 3a 66
        E 0 8f 3a 66
        E 0 9c 3d 64
        E 0 9f 3d 5a
        E 0 8c 3d 64
        E 0 8f 3d 64
        E 0 9c 3e 64
        E 0 9f 3e 5a
        E 0 8c 3e 64
        E 0 8f 3e 64
        E 0 9c 41 64
        E 0 9f 41 5a
        E 0 8c 41 64
        E 0 8f 41 64
        E 0 9c 40 64
        E 0 9f 40 5a
        E 0 8c 40 64
        E 0 8f 40 64
        E 0 9c 3e 64
        E 0 9f 3e 5a
        E 0 8c 3e 64
        E 0 8f 3e 64
        E 0 9c 3c 64
        E 0 9f 3c 5a
        E 0 8c 3c 64
        E 0 8f 3c 64
        E 0 9c 3a 66
        E 0 9f 3a 5b
        E 0 8c 3a 66
        E 0 8f 3a 66
        E 0 9c 39 64
        E 0 9f 39 5a
        E 0 8c 39 64
        E 0 8f 39 64
        E 0 9c 37 64
        E 0 9f 37 5a
        E 0 8c 37 64
        E 0 8f 37 64
        E 0 9c 35 64
        E 0 9f 35 5a
        E 0 8c 35 64
        E 0 8f 35 64
        E 0 9c 34 64
        E 0 9f 34 5a
        E 0 8c 34 64
        E 0 8f 34 64
        E 0 9c 32 64
        E 0 9f 32 5a
        E 0 8c 32 64
        E 0 8f 32 64
        E 1 9c 31 64
        E 0 9f 31 5a
        E 0 8c 31 64
        E 0 8f 31 64
        E 0 9c 2f 64
        E 0 9f 2f 5a
        E 0 8c 2f 64
        E 0 8f 2f 64
        E 0 9c 2d 64
        E 0 9f 2d 5a
        E 0 8c 2d 64
        E 0 8f 2d 64
        E 0 9c 3e 64
        E 0 9f 3e 5a
        E 0 8c 3e 64
        E 0 8f 3e 64
        E 0 9c 37 64
        E 0 9f 37 5a
        E 0 8c 37 64
        E 0 8f 37 64
        E 0 9c 39 64
        E 0 9f 39 5a
        E 0 8c 39 64
        E 0 8f 39 64
        E 0 9c 2d 64
        E 0 9f 2d 5a
        E 0 8c 2d 64
        E 0 8f 2d 64
        E 0 9c 32 64
        E 0 9f 32 5a
        E 0 8c 32 64
        E 0 8f 32 64
        E 0 9c 3e 64
        E 0 9f 3e 5a
        E 0 8c 3e 64
        E 0 8f 3e 64
        E 0 9c 37 64
        E 0 9f 37 5a
        E 0 8c 37 64
        E 0 8f 37 64
        E 0 9c 39 64
        E 0 9f 39 5a
        E 0 8c 39 64
        E 0 8f 39 64
        E 0 9c 2d 64
        E 0 9f 2d 5a
        E 0 8c 2d 64
        E 0 8f 2d 64
        E 0 9c 32 64
        E 0 9f 32 5a
        E 0 8f 32 64
        E 0 9f 31 5a
        E 0 8f 31 64
        E 0 9f 32 5a
        E 0 8f 32 64
        E 0 9f 34 5a
        E 0 8c 32 64
        E 0 8f 34 64
        E 0 9f 35 5a
        E 0 8f 35 64
        E 0 9f 37 5a
        E 0 8f 37 64
        E 0 9f 39 5a
        E 0 8f 39 64
        E 0 9f 37 5a
        E 0 8f 37 64
        E 0 9f 39 5a
        E 0 8f 39 64
        E 0 9f 3b 5a
        E 0 8f 3b 64
        E 0 9f 3d 5a
        E 0 8f 3d 64
        E 0 9f 39 5a
        E 0 8f 39 64
        E 0 9f 41 5a
        E 0 8f 41 64
        E 0 9f 40 5a
        E 0 8f 40 64
        E 0 9f 3e 5a
        E 0 8f 3e 64
        E 0 9f 3c 5a
        E 0 8f 3c 64
        E 1 9f 3a 5b
        E 0 8f 3a 66
        E 0 9f 39 5a
        E 0 8f 39 64
        E 0 9f 3e 5a
        E 0 8f 3e 64
        E 0 9f 3c 5a
        E 0 8f 3c 64
        E 0 9f 3a 5b
        E 0 8f 3a 66
        E 0 9f 39 5a
        E 0 8f 39 64
        E 0 9f 37 5a
        E 0 8f 37 64
        E 0 9f 35 5a
        E 0 8f 35 64
        E 0 9f 37 5a
        E 0 8f 37 64
        E 0 9f 39 5a
        E 0 8f 39 64
        E 0 9f 2d 5a
        E 0 8f 2d 64
        E 0 9f 32 5a
        E 0 8f 32 64
        E 0 9c 39 64
        E 0 9f 39 5a
        E 0 8c 39 64
        E 0 8f 39 64
        E 0 9c 3c 64
        E 0 9f 3c 5a
        E 0 8c 3c 64
        E 0 8f 3c 64
        E 0 9c 39 64
        E 0 9f 39 5a
        E 0 8c 39 64
        E 0 8f 39 64
        E 0 9c 38 64
        E 0 9f 38 5a
        E 0 8c 38 64
        E 0 8f 38 64
        E 0 9c 36 64
        E 0 9f 36 5a
        E 0 8c 36 64
        E 0 8f 36 64
        E 0 9c 34 64
        E 0 9f 34 5a
        E 0 8c 34 64
        E 0 8f 34 64
        E 0 9c 3b 64
        E 0 9f 3b 5a
        E 0 8c 3b 64
        E 0 8f 3b 64
        E 0 9c 39 64
        E 0 9f 39 5a
        E 0 8c 39 64
        E 0 8f 39 64
        E 0 9c 38 64
        E 0 9f 38 5a
        E 0 8c 38 64
        E 0 8f 38 64
        E 0 9c 36 64
        E 0 9f 36 5a
        E 0 8c 36 64
        E 0 8f 36 64
        E 0 9c 34 64
        E 0 9f 34 5a
        E 0 8c 34 64
        E 0 8f 34 64
        E 0 9c 32 64
        E 0 9f 32 5a
        E 0 8c 32 64
        E 0 8f 32 64
        E 0 9c 30 64
        E 0 9f 30 5a
        E 0 8c 30 64
        E 0 8f 30 64
        E 0 9c 2f 64
        E 0 9f 2f 5a
        E 0 8c 2f 64
        E 0 8f 2f 64
        E 0 9c 2d 64
        E 0 9f 2d 5a
        E 0 8c 2d 64
        E 0 8f 2d 64
        E 0 9c 39 64
        E 0 9f 39 5a
        E 0 8f 39 64
        E 0 9f 34 5a
        E 0 8c 39 64
        E 0 8f 34 64
        E 0 9c 39 64
        E 0 9f 32 5a
        E 0 8f 32 64
        E 0 9f 30 5a
        E 0 8f 30 64
        E 0 9f 2f 5a
        E 0 8f 2f 64
        E 0 9f 2d 5a
        E 0 8c 39 64
        E 0 8f 2d 64
        E 0 9c 39 64
        E 0 9f 39 5a
        E 0 8c 39 64
        E 0 8f 39 64
        E 0 9c 38 64
        E 0 9f 34 5a
        E 0 8c 38 64
        E 0 8f 34 64
        E 0 9c 39 64
        E 0 9f 32 5a
        E 0 8f 32 64
        E 0 9f 30 5a
        E 0 8f 30 64
        E 0 9f 2f 5a
        E 0 8f 2f 64
        E 0 9f 2d 5a
        E 0 8c 39 64
        E 1 8f 2d 64
        E 0 9c 39 64
        E 0 9f 39 5a
        E 0 8f 39 64
        E 0 9f 34 5a
        E 0 8c 39 64
        E 0 8f 34 64
        E 0 9c 39 64
        E 0 9f 32 5a
        E 0 8f 32 64
        E 0 9f 30 5a
        E 0 8f 30 64
        E 0 9f 2f 5a
        E 0 8f 2f 64
        E 0 9f 2d 5a
        E 0 8c 39 64
        E 0 8f 2d 64
        E 0 9c 39 64
        E 0 9f 39 5a
        E 0 8c 39 64
        E 0 8f 39 64
        E 0 9c 38 64
        E 0 9f 34 5a
        E 0 8c 38 64
        E 0 8f 34 64
        E 0 9c 39 64
        E 0 9f 32 5a
        E 0 8f 32 64
        E 0 9f 30 5a
        E 0 8f 30 64
        E 0 9f 2f 5a
        E 0 8f 2f 64
        E 0 9f 2d 5a
        E 0 8c 39 64
        E 0 8f 2d 64
        E 0 9c 39 64
        E 0 9f 39 5a
        E 0 8c 39 64
        E 0 8f 39 64
        E 0 9c 3c 64
        E 0 9f 3c 5a
        E 0 8c 3c 64
        E 0 8f 3c 64
        E 0 9c 3b 64
        E 0 9f 3b 5a
        E 0 8c 3b 64
        E 0 8f 3b 64
        E 0 9c 39 64
        E 0 9f 39 5a
        E 0 8c 39 64
        E 0 8f 39 64
        E 0 9c 37 64
        E 0 9f 37 5a
        E 0 8c 37 64
        E 0 8f 37 64
        E 0 9c 35 64
        E 0 9f 35 5a
        E 0 8c 35 64
        E 0 8f 35 64
        E 0 9c 34 64
        E 0 9f 34 5a
        E 1 8c 34 64
        E 0 8f 34 64
        E 0 9c 39 64
        E 0 9f 39 5a
        E 0 8c 39 64
        E 0 8f 39 64
        E 0 9c 37 64
        E 0 9f 37 5a
        E 0 8c 37 64
        E 0 8f 37 64
        E 0 9c 35 64
        E 0 9f 35 5a
        E 0 8c 35 64
        E 0 8f 35 64
        E 0 9c 34 64
        E 0 9f 34 5a
        E 0 8c 34 64
        E 0 8f 34 64
        E 0 9c 32 64
        E 0 9f 32 5a
        E 0 8c 32 64
        E 0 8f 32 64
        E 0 9c 30 64
        E 0 9f 30 5a
        E 0 8c 30 64
        E 0 8f 30 64
        E 0 9c 32 64
        E 0 9f 32 5a
        E 0 8c 32 64
        E 0 8f 32 64
        E 0 9c 34 64
        E 0 9f 34 5a
        E 0 8c 34 64
        E 0 8f 34 64
        E 0 9c 2d 64
        E 0 9f 2d 5a
        E 0 8f 2d 64
        E 0 9f 3c 5a
        E 0 8f 3c 64
        E 0 9f 3b 5a
        E 38403 8c 2d 64
        E 0 8f 3b 64
        E 0 9f 39 5a
        E 0 8f 39 64
        E 0 9f 38 5a
        E 0 8f 38 64
        E 0 9c 39 64
        E 0 9f 39 5a
        E 0 8c 39 64
        E 0 8f 39 64
        E 0 9c 37 64
        E 0 9f 37 5a
        E 0 8c 37 64
        E 0 8f 37 64
        E 0 9c 35 64
        E 0 9f 35 5a
        E 0 8c 35 64
        E 0 8f 35 64
        E 0 9c 34 64
        E 0 9f 34 5a
        E 0 8c 34 64
        E 0 8f 34 64
        E 1 9c 39 64
        E 0 9f 39 5a
        E 0 8c 39 64
        E 0 8f 39 64
        E 0 9c 3e 64
        E 0 9f 35 5a
        E 0 8c 3e 64
        E 0 8f 35 64
        E 0 9c 3c 64
        E 0 9f 34 5a
        E 0 8c 3c 64
        E 0 8f 34 64
        E 0 9c 3b 64
        E 0 9f 28 5a
        E 0 8c 3b 64
        E 0 8f 28 64
        E 0 9c 39 64
        E 0 9f 2d 5a
        E 0 8c 39 64
        E 0 8f 2d 64
        E 0 97 45 64
        E 0 9e 45 64
        E 0 9f 32 5a
        E 0 87 45 64
        E 0 8e 45 64
        E 0 97 45 64
        E 0 9e 45 64
        E 0 87 45 64
        E 0 8e 45 64
        E 0 97 45 64
        E 0 9e 45 64
        E 0 87 45 64
        E 0 8e 45 64
        E 0 97 43 64
        E 0 9e 43 64
        E 0 87 43 64
        E 0 8e 43 64
        E 0 97 45 64
        E 0 9e 45 64
        E 0 87 45 64
        E 0 8e 45 64
        E 0 8f 32 64
        E 0 97 42 64
        E 0 9e 42 64
        E 0 9f 32 5a
        E 0 87 42 64
        E 0 8e 42 64
        E 0 97 42 64
        E 0 9e 42 64
        E 0 87 42 64
        E 0 8e 42 64
        E 0 97 42 64
        E 0 9e 42 64
        E 0 87 42 64
        E 0 8e 42 64
        E 0 97 42 64
        E 0 9e 42 64
        E 0 87 42 64
        E 0 8e 42 64
        E 0 97 42 64
        E 0 9e 42 64
        E 0 87 42 64
        E 0 8e 42 64
        E 0 97 47 64
        E 0 9e 47 64
        E 0 87 47 64
        E 0 8e 47 64
        E 0 97 47 64
        E 0 9e 47 64
        E 0 87 47 64
        E 0 8e 47 64
        E 0 97 4a 64
        E 0 9e 4a 64
        E 0 87 4a 64
        E 0 8e 4a 64
        E 0 97 4a 64
        E 0 9e 4a 64
        E 0 87 4a 64
        E 0 8e 4a 64
        E 0 8f 32 64
        E 0 97 47 64
        E 0 9e 47 64
        E 0 9f 32 5a
        E 0 87 47 64
        E 0 8e 47 64
        E 0 97 47 64
        E 0 9e 47 64
        E 0 87 47 64
        E 0 8e 47 64
        E 0 97 47 64
        E 0 9e 47 64
        E 0 87 47 64
        E 0 8e 47 64
        E 0 8f 32 64
        E 0 97 44 64
        E 0 9e 44 64
        E 0 9f 31 5a
        E 0 87 44 64
        E 0 8e 44 64
        E 1 97 44 64
        E 0 9e 44 64
        E 0 87 44 64
        E 0 8e 44 64
        E 0 9a 44 64
        E 0 9e 44 64
        E 0 8a 44 64
        E 0 8e 44 64
        E 0 8f 31 64
        E 0 9a 40 64
        E 0 9e 40 64
        E 0 9f 31 5a
        E 0 8a 40 64
        E 0 8e 40 64
        E 0 9a 40 64
        E 0 9e 40 64
        E 0 8a 40 64
        E 0 8e 40 64
        E 0 9a 40 64
        E 0 9e 40 64
        E 0 8a 40 64
        E 0 8e 40 64
        E 0 9a 40 64
        E 0 9e 40 64
        E 0 8a 40 64
        E 0 8e 40 64
        E 0 9a 45 64
        E 0 9e 45 64
        E 0 8a 45 64
        E 0 8e 45 64
        E 0 9a 45 64
        E 0 9e 45 64
        E 0 8a 45 64
        E 0 8e 45 64
        E 0 9a 45 64
        E 0 9e 45 64
        E 0 8a 45 64
        E 0 8e 45 64
        E 0 8f 31 64
        E 0 9a 45 64
        E 0 9e 45 64
        E 0 9f 31 5a
        E 0 8a 45 64
        E 0 8e 45 64
        E 0 9a 45 64
        E 0 9e 45 64
        E 0 8a 45 64
        E 0 8e 45 64
        E 0 8f 31 64
        E 0 9a 45 64
        E 0 9e 45 64
        E 0 9f 36 5a
        E 0 8a 45 64
        E 0 8e 45 64
        E 0 9a 44 64
        E 0 9e 44 64
        E 0 8a 44 64
        E 0 8e 44 64
        E 0 8f 36 64
        E 0 9a 47 64
        E 0 9e 47 64
        E 0 9f 34 5a
        E 0 8a 47 64
        E 0 8e 47 64
        E 0 9a 47 64
        E 0 9e 47 64
        E 0 8a 47 64
        E 0 8e 47 64
        E 1 9a 44 64
        E 0 9e 44 64
        E 0 8a 44 64
        E 0 8e 44 64
        E 0 9a 44 64
        E 0 9e 44 64
        E 0 8a 44 64
        E 0 8e 44 64
        E 0 9a 44 64
        E 0 9e 44 64
        E 0 8a 44 64
        E 0 8e 44 64
        E 0 8f 34 64
        E 0 9a 40 64
        E 0 9e 40 64
        E 0 9f 34 5a
        E 0 8a 40 64
        E 0 8e 40 64
        E 0 9a 40 64
        E 0 9e 40 64
        E 0 8a 40 64
        E 0 8e 40 64
        E 0 9a 44 64
        E 0 9e 44 64
        E 0 8a 44 64
        E 0 8e 44 64
        E 0 9a 45 64
        E 0 9e 45 64
        E 0 8a 45 64
        E 0 8e 45 64
        E 0 9a 47 64
        E 0 9e 47 64
        E 0 8a 47 64
        E 0 8e 47 64
        E 0 9a 47 64
        E 0 9e 47 64
        E 0 8a 47 64
        E 0 8e 47 64
        E 0 9a 49 64
        E 0 9e 49 64
        E 0 8a 49 64
        E 0 8e 49 64
        E 0 8f 34 64
        E 0 9a 45 64
        E 0 9e 45 64
        E 0 9f 31 5a
        E 0 8a 45 64
        E 0 8e 45 64
        E 0 9a 45 64
        E 0 9e 45 64
        E 0 8a 45 64
        E 0 8e 45 64
        E 0 9a 40 64
        E 0 9e 40 64
        E 1 8a 40 64
        E 0 8e 40 64
        E 0 9a 40 64
        E 0 9e 40 64
        E 0 8a 40 64
        E 0 8e 40 64
        E 0 9a 40 64
        E 0 9e 40 64
        E 0 8a 40 64
        E 0 8e 40 64
        E 0 9a 43 64
        E 0 9e 43 64
        E 0 8a 43 64
        E 0 8e 43 64
        E 0 9a 42 64
        E 0 9e 42 64
        E 0 8a 42 64
        E 0 8e 42 64
        E 0 8f 31 64
        E 0 9a 3e 64
        E 0 9e 3e 64
        E 0 9f 32 5a
        E 0 8a 3e 64
        E 0 8e 3e 64
        E 0 9a 3e 64
        E 0 9e 3e 64
        E 0 8a 3e 64
        E 0 8e 3e 64
        E 0 9a 45 64
        E 0 9e 45 64
        E 0 8a 45 64
        E 0 8e 45 64
        E 0 9a 45 64
        E 0 9e 45 64
        E 0 8a 45 64
        E 0 8e 45 64
        E 0 9a 45 64
        E 0 9e 45 64
        E 0 8a 45 64
        E 0 8e 45 64
        E 0 8f 32 64
        E 0 9a 42 64
        E 0 9e 42 64
        E 0 9f 30 5a
        E 0 8a 42 64
        E 0 8e 42 64
        E 0 9a 42 64
        E 0 9e 42 64
        E 0 8a 42 64
        E 0 8e 42 64
        E 0 9a 45 64
        E 0 9e 45 64
        E 0 8a 45 64
        E 0 8e 45 64
        E 0 9a 45 64
        E 0 9e 45 64
        E 38404 8a 45 64
        E 0 8e 45 64
        E 0 9a 45 64
        E 0 9e 45 64
        E 0 8a 45 64
        E 0 8e 45 64
        E 0 9a 45 64
        E 0 9e 45 64
        E 0 8a 45 64
        E 0 8e 45 64
        E 0 9a 47 64
        E 0 9e 47 64
        E 0 8a 47 64
        E 0 8e 47 64
        E 0 8f 30 64
        E 0 9a 43 64
        E 0 9e 43 64
        E 0 9f 2b 5a
        E 0 8a 43 64
        E 0 8e 43 64
        E 0 9a 43 64
        E 0 9e 43 64
        E 0 8a 43 64
        E 0 8e 43 64
        E 0 9a 43 64
        E 0 9e 43 64
        E 0 8a 43 64
        E 0 8e 43 64
        E 0 9a 42 64
        E 0 9e 42 64
        E 0 8a 42 64
        E 0 8e 42 64
        E 0 8f 2b 64
        E 0 9a 3e 64
        E 0 9e 3e 64
        E 0 9f 2d 5a
        E 0 8a 3e 64
        E 0 8e 3e 64
        E 0 9a 3e 64
        E 0 9e 3e 64
        E 0 8a 3e 64
        E 0 8e 3e 64
        E 0 8f 2d 64
        E 0 9f 32 5a
        E 0 8f 32 64
        E 0 97 45 64
        E 0 9e 45 64
        E 0 9f 32 5a
        E 0 87 45 64
        E 0 8e 45 64
        E 0 97 45 64
        E 0 9e 45 64
        E 0 87 45 64
        E 0 8e 45 64
        E 0 97 45 64
        E 1 9e 45 64
        E 0 87 45 64
        E 0 8e 45 64
        E 0 97 45 64
        E 0 9e 45 64
        E 0 87 45 64
        E 0 8e 45 64
        E 0 97 47 64
        E 0 9e 47 64
        E 0 87 47 64
        E 0 8e 47 64
        E 0 97 48 64
        E 0 9e 48 64
        E 0 87 48 64
        E 0 8e 48 64
        E 0 97 48 64
        E 0 9e 48 64
        E 0 87 48 64
        E 0 8e 48 64
        E 0 97 4c 64
        E 0 9e 4c 64
        E 0 87 4c 64
        E 0 8e 4c 64
        E 0 8f 32 64
        E 0 97 48 64
        E 0 9e 48 64
        E 0 9f 32 5a
        E 0 87 48 64
        E 0 8e 48 64
        E 0 97 48 64
        E 0 9e 48 64
        E 0 87 48 64
        E 0 8e 48 64
        E 0 97 48 64
        E 0 9e 48 64
        E 0 87 48 64
        E 0 8e 48 64
        E 0 97 47 64
        E 0 9e 47 64
        E 0 87 47 64
        E 0 8e 47 64
        E 0 8f 32 64
        E 0 97 43 64
        E 0 9e 43 64
        E 0 9f 2b 5a
        E 0 87 43 64
        E 0 8e 43 64
        E 0 9a 43 64
        E 0 9e 43 64
        E 0 8a 43 64
        E 0 8e 43 64
        E 0 9a 3e 64
        E 0 9e 3e 64
        E 0 8a 3e 64
        E 0 8e 3e 64
        E 0 8f 2b 64
        E 0 9f 2b 5a
        E 0 9a 43 64
        E 0 9e 43 64
        E 0 8a 43 64
        E 0 8e 43 64
        E 0 9a 45 64
        E 0 9e 45 64
        E 0 8a 45 64
        E 0 8e 45 64
        E 1 9a 47 64
        E 0 9e 47 64
        E 0 8a 47 64
        E 0 8e 47 64
        E 0 9a 47 64
        E 0 9e 47 64
        E 0 8a 47 64
        E 0 8e 47 64
        E 0 9a 47 64
        E 0 9e 47 64
        E 0 8a 47 64
        E 0 8e 47 64
        E 0 9a 47 64
        E 0 9e 47 64
        E 0 8a 47 64
        E 0 8e 47 64
        E 0 9a 45 64
        E 0 9e 45 64
        E 0 8a 45 64
        E 0 8e 45 64
        E 0 9a 43 64
        E 0 9e 43 64
        E 0 8a 43 64
        E 0 8e 43 64
        E 0 8f 2b 64
        E 0 9a 48 64
        E 0 9e 48 64
        E 0 9f 34 5a
        E 0 8a 48 64
        E 0 8e 48 64
        E 0 9a 43 64
        E 0 9e 43 64
        E 0 8a 43 64
        E 0 8e 43 64
        E 0 9a 43 64
        E 0 9e 43 64
        E 0 8a 43 64
        E 0 8e 43 64
        E 0 9a 45 64
        E 0 9e 45 64
        E 0 8a 45 64
        E 0 8e 45 64
        E 0 8f 34 64
        E 0 9a 45 64
        E 0 9e 45 64
        E 0 9f 35 5a
        E 0 8a 45 64
        E 0 8e 45 64
        E 0 9a 45 64
        E 0 9e 45 64
        E 0 8a 45 64
        E 0 8e 45 64
        E 0 8f 35 64
        E 0 9a 43 64
        E 0 9e 43 64
        E 0 9f 2e 5b
        E 0 8a 43 64
        E 0 8e 43 64
        E 0 9a 3e 64
        E 0 9e 3e 64
        E 0 8a 3e 64
        E 0 8e 3e 64
        E 0 9a 3e 64
        E 0 9e 3e 64
        E 0 8a 3e 64
        E 0 8e 3e 64
        E 0 9a 3e 64
        E 0 9e 3e 64
        E 0 8a 3e 64
        E 0 8e 3e 64
        E 0 9a 40 64
        E 0 9e 40 64
        E 0 8a 40 64
        E 0 8e 40 64
        E 0 8f 2e 66
        E 0 9a 40 64
        E 0 9e 40 64
        E 0 9f 2d 5a
        E 0 8a 40 64
        E 0 8e 40 64
        E 0 9a 40 64
        E 0 9e 40 64
        E 0 8a 40 64
        E 0 8e 40 64
        E 0 8f 2d 64
        E 0 97 45 64
        E 0 9e 45 64
        E 0 9f 2d 5a
        E 0 87 45 64
        E 0 8e 45 64
        E 0 97 45 64
        E 0 9e 45 64
        E 0 87 45 64
        E 0 8e 45 64
        E 0 97 45 64
        E 0 9e 45 64
        E 0 87 45 64
        E 0 8e 45 64
        E 0 8f 2d 64
        E 0 97 4a 64
        E 0 9e 4a 64
        E 0 9f 35 5a
        E 0 87 4a 64
        E 0 8e 4a 64
        E 0 97 4a 64
        E 0 9e 4a 64
        E 0 87 4a 64
        E 0 8e 4a 64
        E 0 97 4a 64
        E 0 9e 4a 64
        E 0 87 4a 64
        E 0 8e 4a 64
        E 1 97 4a 64
        E 0 9e 4a 64
        E 0 87 4a 64
        E 0 8e 4a 64
        E 0 8f 35 64
        E 0 97 4a 64
        E 0 9e 4a 64
        E 0 9f 35 5a
        E 0 87 4a 64
        E 0 8e 4a 64
        E 0 97 4a 64
        E 0 9e 4a 64
        E 0 87 4a 64
        E 0 8e 4a 64
        E 0 97 48 64
        E 0 9e 48 64
        E 0 87 48 64
        E 0 8e 48 64
        E 0 8f 35 64
        E 0 97 45 64
        E 0 9e 45 64
        E 0 9f 34 5a
        E 0 87 45 64
        E 0 8e 45 64
        E 0 8f 34 64
        E 0 9f 2d 5a
        E 0 8f 2d 64
        E 0 9a 40 64
        E 0 9e 40 64
        E 0 9f 2d 5a
        E 0 8a 40 64
        E 0 8e 40 64
        E 0 9a 45 64
        E 0 9e 45 64
        E 0 8a 45 64
        E 0 8e 45 64
        E 0 9a 43 64
        E 0 9e 43 64
        E 0 8a 43 64
        E 0 8e 43 64
        E 0 8f 2d 64
        E 0 9a 43 64
        E 0 9e 43 64
        E 0 9f 2f 5a
        E 0 8a 43 64
        E 0 8e 43 64
        E 0 9a 43 64
        E 0 9e 43 64
        E 0 8a 43 64
        E 0 8e 43 64
        E 0 9a 47 64
        E 0 9e 47 64
        E 0 8a 47 64
        E 0 8e 47 64
        E 0 9a 47 64
        E 0 9e 47 64
        E 0 8a 47 64
        E 0 8e 47 64
        E 0 9a 48 64
        E 0 9e 48 64
        E 0 8a 48 64
        E 0 8e 48 64
        E 0 8f 2f 64
        E 0 9a 43 64
        E 0 9e 43 64
        E 0 9f 30 5a
        E 0 8a 43 64
        E 0 8e 43 64
        E 0 9a 43 64
        E 0 9e 43 64
        E 0 8a 43 64
        E 0 8e 43 64
        E 0 97 4c 64
        E 0 9e 4c 64
        E 38403 87 4c 64
        E 0 8e 4c 64
        E 1 97 48 64
        E 0 9e 48 64
        E 0 87 48 64
        E 0 8e 48 64
        E 0 97 48 64
        E 0 9e 48 64
        E 0 87 48 64
        E 0 8e 48 64
        E 0 8f 30 64
        E 0 9f 30 5a
        E 0 97 48 64
        E 0 9e 48 64
        E 0 87 48 64
        E 0 8e 48 64
        E 1 97 48 64
        E 0 9e 48 64
        E 0 87 48 64
        E 0 8e 48 64
        E 0 97 47 64
        E 0 9e 47 64
        E 0 87 47 64
        E 0 8e 47 64
        E 0 8f 30 64
        E 0 97 46 64
        E 0 9e 46 64
        E 0 9f 34 5a
        E 0 87 46 64
        E 0 8e 46 64
        E 0 97 46 64
        E 0 9e 46 64
        E 0 87 46 64
        E 0 8e 46 64
        E 0 8f 34 64
        E 0 97 49 64
        E 0 9e 49 64
        E 0 9f 34 5a
        E 0 87 49 64
        E 0 8e 49 64
        E 0 97 49 64
        E 0 9e 49 64
        E 0 87 49 64
        E 0 8e 49 64
        E 0 97 4c 64
        E 0 9e 4c 64
        E 0 87 4c 64
        E 0 8e 4c 64
        E 0 97 4c 64
        E 0 9e 4c 64
        E 0 87 4c 64
        E 0 8e 4c 64
        E 0 97 4a 64
        E 0 9e 4a 64
        E 0 87 4a 64
        E 0 8e 4a 64
        E 0 8f 34 64
        E 0 97 47 64
        E 0 9e 47 64
        E 0 9f 32 5a
        E 0 87 47 64
        E 0 8e 47 64
        E 0 97 47 64
        E 0 9e 47 64
        E 0 87 47 64
        E 0 8e 47 64
        E 0 8f 32 64
        E 0 97 42 64
        E 0 9e 42 64
        E 0 9f 32 5a
        E 0 87 42 64
        E 0 8e 42 64
        E 0 97 42 64
        E 0 9e 42 64
        E 0 87 42 64
        E 0 8e 42 64
        E 0 97 42 64
        E 0 9e 42 64
        E 0 87 42 64
        E 0 8e 42 64
        E 0 8f 32 64
        E 0 97 47 64
        E 0 9e 47 64
        E 0 9f 33 5a
        E 0 87 47 64
        E 0 8e 47 64
        E 0 97 47 64
        E 0 9e 47 64
        E 0 87 47 64
        E 0 8e 47 64
        E 0 8f 33 64
        E 0 9f 33 5a
        E 1 97 47 64
        E 0 9e 47 64
        E 0 87 47 64
        E 0 8e 47 64
        E 0 97 48 64
        E 0 9e 48 64
        E 0 87 48 64
        E 0 8e 48 64
        E 0 97 45 64
        E 0 9e 45 64
        E 0 87 45 64
        E 0 8e 45 64
        E 0 97 45 64
        E 0 9e 45 64
        E 0 87 45 64
        E 0 8e 45 64
        E 0 97 47 64
        E 0 9e 47 64
        E 0 8f 33 64
        E 0 87 47 64
        E 0 8e 47 64
        E 0 9f 32 5a
        E 0 97 44 64
        E 0 9e 44 64
        E 0 87 44 64
        E 0 8e 44 64
        E 0 97 44 64
        E 0 9e 44 64
        E 0 87 44 64
        E 0 8e 44 64
        E 0 97 47 64
        E 0 9e 47 64
        E 0 87 47 64
        E 0 8e 47 64
        E 0 97 47 64
        E 0 9e 47 64
        E 0 87 47 64
        E 0 8e 47 64
        E 0 97 48 64
        E 0 9e 48 64
        E 0 87 48 64
        E 0 8e 48 64
        E 0 8f 32 64
        E 0 97 4a 64
        E 0 9e 4a 64
        E 0 9f 2c 5a
        E 0 87 4a 64
        E 0 8e 4a 64
        E 0 97 4a 64
        E 0 9e 4a 64
        E 0 87 4a 64
        E 0 8e 4a 64
        E 0 97 4d 64
        E 0 9e 4d 64
        E 0 87 4d 64
        E 0 8e 4d 64
        E 0 97 4a 64
        E 0 9e 4a 64
        E 0 87 4a 64
        E 0 8e 4a 64
        E 0 97 48 64
        E 0 9e 48 64
        E 0 87 48 64
        E 0 8e 48 64
        E 0 8f 2c 64
        E 0 97 45 64
        E 0 9e 45 64
        E 0 9f 2d 5a
        E 0 87 45 64
        E 0 8e 45 64
        E 0 8f 2d 64
        E 0 97 49 64
        E 0 9e 49 64
        E 0 9f 2b 5a
        E 0 87 49 64
        E 0 8e 49 64
        E 0 97 4c 64
        E 0 9e 4c 64
        E 0 87 4c 64
        E 0 8e 4c 64
        E 0 97 4d 64
        E 0 9e 4d 64
        E 0 87 4d 64
        E 0 8e 4d 64
        E 0 8f 2b 64
        E 0 97 4a 64
        E 0 9e 4a 64
        E 0 9f 29 5a
        E 0 87 4a 64
        E 1 8e 4a 64
        E 0 97 4a 64
        E 0 9e 4a 64
        E 0 87 4a 64
        E 0 8e 4a 64
        E 0 9a 45 64
        E 0 9e 45 64
        E 0 8a 45 64
        E 0 8e 45 64
        E 0 8f 29 64
        E 0 9a 41 64
        E 0 9e 41 64
        E 0 9f 29 5a
        E 0 8a 41 64
        E 0 8e 41 64
        E 0 9a 41 64
        E 0 9e 41 64
        E 0 8a 41 64
        E 0 8e 41 64
        E 0 9a 45 64
        E 0 9e 45 64
        E 0 8a 45 64
        E 0 8e 45 64
        E 0 9a 45 64
        E 0 9e 45 64
        E 0 8a 45 64
        E 0 8e 45 64
        E 0 9a 45 64
        E 0 9e 45 64
        E 0 8a 45 64
        E 0 8e 45 64
        E 0 9a 46 66
        E 0 9e 46 66
        E 0 8a 46 66
        E 0 8e 46 66
        E 0 9a 48 64
        E 0 9e 48 64
        E 0 8a 48 64
        E 0 8e 48 64
        E 0 8f 29 64
        E 0 9a 41 64
        E 0 9e 41 64
        E 0 9f 29 5a
        E 0 8a 41 64
        E 0 8e 41 64
        E 0 9a 41 64
        E 0 9e 41 64
        E 0 8a 41 64
        E 0 8e 41 64
        E 0 9a 48 64
        E 0 9e 48 64
        E 0 8a 48 64
        E 0 8e 48 64
        E 0 8f 29 64
        E 0 9a 45 64
        E 0 9e 45 64
        E 0 9f 33 5a
        E 0 8a 45 64
        E 0 8e 45 64
        E 0 9a 45 64
        E 0 9e 45 64
        E 0 8a 45 64
        E 0 8e 45 64
        E 0 9a 45 64
        E 0 9e 45 64
        E 0 8a 45 64
        E 0 8e 45 64
        E 0 9a 43 64
        E 0 9e 43 64
        E 0 8a 43 64
        E 0 8e 43 64
        E 0 8f 33 64
        E 0 9a 43 64
        E 0 9e 43 64
        E 0 9f 34 5a
        E 0 8a 43 64
        E 0 8e 43 64
        E 0 9a 43 64
        E 0 9e 43 64
        E 0 8a 43 64
        E 0 8e 43 64
        E 0 9a 43 64
        E 0 9e 43 64
        E 0 8a 43 64
        E 0 8e 43 64
        E 0 9a 43 64
        E 0 9e 43 64
        E 0 8a 43 64
        E 0 8e 43 64
        E 0 9a 43 64
        E 0 9e 43 64
        E 0 8a 43 64
        E 0 8e 43 64
        E 0 9a 41 64
        E 0 9e 41 64
        E 0 8a 41 64
        E 0 8e 41 64
        E 0 9a 40 64
        E 0 9e 40 64
        E 0 8a 40 64
        E 0 8e 40 64
        E 0 8f 34 64
        E 0 9a 48 64
        E 0 9e 48 64
        E 0 9f 2d 5a
        E 0 8a 48 64
        E 0 8e 48 64
        E 0 9a 45 64
        E 0 9e 45 64
        E 0 8a 45 64
        E 0 8e 45 64
        E 0 9a 45 64
        E 0 9e 45 64
        E 0 8a 45 64
        E 0 8e 45 64
        E 0 9a 43 64
        E 1 9e 43 64
        E 0 8a 43 64
        E 0 8e 43 64
        E 0 8f 2d 64
        E 0 9a 40 64
        E 0 9e 40 64
        E 0 9f 2f 5a
        E 0 8a 40 64
        E 0 8e 40 64
        E 0 9a 40 64
        E 0 9e 40 64
        E 38404 8a 40 64
        E 0 8e 40 64
        E 0 8f 2f 64
        E 0 9f 28 5a
        E 0 8f 28 64
        E 0 92 3e 64
        E 0 93 3e 5a
        E 0 9f 32 5a
        E 0 83 3e 64
        E 0 8f 32 64
        E 0 93 40 5a
        E 0 9f 34 5a
        E 0 83 40 64
        E 0 8f 34 64
        E 0 93 42 5a
        E 0 9f 36 5a
        E 0 82 3e 64
        E 0 83 42 64
        E 0 8f 36 64
        E 0 92 4a 64
        E 0 93 40 5a
        E 0 9f 34 5a
        E 0 82 4a 64
        E 0 83 40 64
        E 0 8f 34 64
        E 0 92 4a 64
        E 0 93 3e 5a
        E 0 9f 32 5a
        E 0 82 4a 64
        E 0 83 3e 64
        E 0 8f 32 64
        E 0 92 49 64
        E 0 93 40 5a
        E 0 9f 34 5a
        E 0 82 49 64
        E 0 83 40 64
        E 0 8f 34 64
        E 0 92 49 64
        E 0 93 42 5a
        E 0 9f 36 5a
        E 0 82 49 64
        E 1 83 42 64
        E 0 8f 36 64
        E 0 92 47 64
        E 0 93 3e 5a
        E 0 9f 32 5a
        E 0 82 47 64
        E 0 83 3e 64
        E 0 8f 32 64
        E 0 92 47 64
        E 0 93 43 5a
        E 0 9f 37 5a
        E 0 83 43 64
        E 0 8f 37 64
        E 0 93 45 5a
        E 0 9f 39 5a
        E 0 83 45 64
        E 0 8f 39 64
        E 0 93 43 5a
        E 0 9f 37 5a
        E 0 82 47 64
        E 0 83 43 64
        E 0 8f 37 64
        E 0 92 45 64
        E 0 93 42 5a
        E 0 9f 36 5a
        E 0 82 45 64
        E 0 83 42 64
        E 0 8f 36 64
        E 0 92 43 64
        E 0 93 40 5a
        E 0 9f 34 5a
        E 0 82 43 64
        E 0 83 40 64
        E 0 8f 34 64
        E 0 92 42 64
        E 0 93 3e 5a
        E 0 9f 32 5a
        E 0 82 42 64
        E 0 83 3e 64
        E 0 8f 32 64
        E 0 92 40 64
        E 0 93 3d 5a
        E 0 9f 31 5a
        E 0 82 40 64
        E 0 83 3d 64
        E 0 8f 31 64
        E 0 92 3e 64
        E 0 93 3b 5a
        E 0 9f 2f 5a
        E 0 82 3e 64
        E 0 83 3b 64
        E 0 8f 2f 64
        E 0 92 45 64
        E 0 93 39 5a
        E 0 9f 2d 5a
        E 0 83 39 64
        E 0 8f 2d 64
        E 0 93 45 5a
        E 0 9f 39 5a
        E 0 83 45 64
        E 0 8f 39 64
        E 0 93 42 5a
        E 0 9f 36 5a
        E 0 82 45 64
        E 0 83 42 64
        E 0 8f 36 64
        E 0 92 4a 64
        E 0 93 40 5a
        E 0 9f 34 5a
        E 0 82 4a 64
        E 0 83 40 64
        E 0 8f 34 64
        E 0 92 4a 64
        E 0 93 3e 5a
        E 0 9f 32 5a
        E 0 82 4a 64
        E 0 83 3e 64
        E 0 8f 32 64
        E 0 92 49 64
        E 0 93 40 5a
        E 0 9f 34 5a
        E 0 82 49 64
        E 0 83 40 64
        E 0 8f 34 64
        E 0 92 49 64
        E 0 93 42 5a
        E 0 9f 36 5a
        E 0 82 49 64
        E 0 83 42 64
        E 0 8f 36 64
        E 0 92 47 64
        E 0 93 3e 5a
        E 0 9f 32 5a
        E 0 82 47 64
        E 0 83 3e 64
        E 0 8f 32 64
        E 0 92 47 64
        E 0 93 43 5a
        E 0 9f 37 5a
        E 0 83 43 64
        E 0 8f 37 64
        E 0 93 45 5a
        E 0 9f 39 5a
        E 0 83 45 64
        E 0 8f 39 64
        E 0 93 43 5a
        E 0 9f 37 5a
        E 1 82 47 64
        E 0 83 43 64
        E 0 8f 37 64
        E 0 92 45 64
        E 0 93 42 5a
        E 0 9f 36 5a
        E 0 82 45 64
        E 0 83 42 64
        E 0 8f 36 64
        E 0 92 43 64
        E 0 93 40 5a
        E 0 9f 34 5a
        E 0 82 43 64
        E 0 83 40 64
        E 0 8f 34 64
        E 0 92 42 64
        E 0 93 3e 5a
        E 0 9f 32 5a
        E 0 82 42 64
        E 0 83 3e 64
        E 0 8f 32 64
        E 0 92 40 64
        E 0 93 3d 5a
        E 0 9f 31 5a
        E 0 82 40 64
        E 0 83 3d 64
        E 0 8f 31 64
        E 0 92 3e 64
        E 0 93 3b 5a
        E 0 9f 2f 5a
        E 0 82 3e 64
        E 0 83 3b 64
        E 0 8f 2f 64
        E 0 92 39 64
        E 0 93 39 5a
        E 0 9f 2d 5a
        E 0 83 39 64
        E 0 8f 2d 64
        E 0 93 45 5a
        E 0 9f 39 5a
        E 0 82 39 64
        E 0 83 45 64
        E 0 8f 39 64
        E 0 93 49 5a
        E 0 9f 3d 5a
        E 0 83 49 64
        E 0 8f 3d 64
        E 0 92 51 64
        E 0 93 45 5a
        E 0 9f 39 5a
        E 0 82 51 64
        E 0 83 45 64
        E 0 8f 39 64
        E 0 92 51 64
        E 0 93 4c 5a
        E 0 9f 40 5a
        E 0 82 51 64
        E 0 83 4c 64
        E 0 8f 40 64
        E 0 92 50 64
        E 0 93 4a 5a
        E 0 9f 3e 5a
        E 0 82 50 64
        E 0 83 4a 64
        E 0 8f 3e 64
        E 0 92 50 64
        E 0 93 4c 5a
        E 0 9f 40 5a
        E 0 82 50 64
        E 0 83 4c 64
        E 0 8f 40 64
        E 0 92 4e 64
        E 0 93 40 5a
        E 0 9f 34 5a
        E 0 82 4e 64
        E 0 83 40 64
        E 0 8f 34 64
        E 0 92 4e 64
        E 0 93 4a 5a
        E 0 9f 3e 5a
        E 0 83 4a 64
        E 0 8f 3e 64
        E 0 93 4c 5a
        E 0 9f 40 5a
        E 0 83 4c 64
        E 0 8f 40 64
        E 0 93 4a 5a
        E 0 9f 3e 5a
        E 0 82 4e 64
        E 0 83 4a 64
        E 0 8f 3e 64
        E 0 92 4c 64
        E 0 93 49 5a
        E 0 9f 3d 5a
        E 0 82 4c 64
        E 0 83 49 64
        E 0 8f 3d 64
        E 0 92 4a 64
        E 0 93 47 5a
        E 0 9f 3b 5a
        E 0 82 4a 64
        E 0 83 47 64
        E 0 8f 3b 64
        E 0 92 49 64
        E 0 93 45 5a
        E 0 9f 39 5a
        E 0 82 49 64
        E 0 83 45 64
        E 0 8f 39 64
        E 0 92 47 64
        E 1 93 44 5a
        E 0 9f 38 5a
        E 0 82 47 64
        E 0 83 44 64
        E 0 8f 38 64
        E 0 92 45 64
        E 0 93 42 5a
        E 0 9f 36 5a
        E 0 82 45 64
        E 0 83 42 64
        E 0 8f 36 64
        E 0 92 40 64
        E 0 93 40 5a
        E 0 9f 34 5a
        E 0 82 40 64
        E 0 83 40 64
        E 0 8f 34 64
        E 0 92 4a 64
        E 0 93 4c 5a
        E 0 9f 40 5a
        E 0 82 4a 64
        E 0 83 4c 64
        E 0 8f 40 64
        E 0 92 49 64
        E 0 93 4c 5a
        E 0 9f 40 5a
        E 0 82 49 64
        E 0 83 4c 64
        E 0 8f 40 64
        E 0 92 47 64
        E 0 93 40 5a
        E 0 9f 34 5a
        E 0 82 47 64
        E 0 83 40 64
        E 0 8f 34 64
        E 0 92 50 64
        E 0 93 40 5a
        E 0 9f 34 5a
        E 0 82 50 64
        E 0 83 40 64
        E 0 8f 34 64
        E 0 92 51 64
        E 0 93 4c 5a
        E 0 9f 40 5a
        E 0 82 51 64
        E 0 83 4c 64
        E 0 8f 40 64
        E 0 92 49 64
        E 0 93 4c 5a
        E 0 9f 40 5a
        E 0 82 49 64
        E 0 83 4c 64
        E 0 8f 40 64
        E 0 92 4a 64
        E 0 93 40 5a
        E 0 9f 34 5a
        E 0 82 4a 64
        E 0 83 40 64
        E 0 8f 34 64
        E 0 92 40 64
        E 0 93 40 5a
        E 0 9f 34 5a
        E 0 83 40 64
        E 0 8f 34 64
        E 0 93 47 5a
        E 0 9f 3b 5a
        E 0 82 40 64
        E 0 83 47 64
        E 0 8f 3b 64
        E 0 93 45 5a
        E 0 9f 39 5a
        E 0 83 45 64
        E 0 8f 39 64
        E 0 92 55 64
        E 0 93 44 5a
        E 0 9f 38 5a
        E 0 82 55 64
        E 0 83 44 64
        E 0 8f 38 64
        E 0 92 56 64
        E 0 93 42 5a
        E 0 9f 36 5a
        E 0 82 56 64
        E 0 83 42 64
        E 0 8f 36 64
        E 0 92 4a 64
        E 0 93 40 5a
        E 1 9f 34 5a
        E 0 82 4a 64
        E 0 83 40 64
        E 0 8f 34 64
        E 0 92 4a 64
        E 0 93 42 5a
        E 0 9f 36 5a
        E 0 82 4a 64
        E 0 83 42 64
        E 0 8f 36 64
        E 0 92 55 64
        E 0 93 3e 5a
        E 0 9f 32 5a
        E 0 82 55 64
        E 0 83 3e 64
        E 0 8f 32 64
        E 0 92 55 64
        E 0 93 43 5a
        E 0 9f 37 5a
        E 0 82 55 64
        E 0 83 43 64
        E 0 8f 37 64
        E 0 92 53 64
        E 0 93 42 5a
        E 0 9f 36 5a
        E 0 82 53 64
        E 0 83 42 64
        E 0 8f 36 64
        E 0 92 53 64
        E 0 93 43 5a
        E 0 9f 37 5a
        E 0 82 53 64
        E 0 83 43 64
        E 0 8f 37 64
        E 0 92 58 64
        E 0 93 37 5a
        E 0 9f 2b 5a
        E 0 82 58 64
        E 0 83 37 64
        E 0 8f 2b 64
        E 0 92 58 64
        E 0 93 44 5a
        E 0 9f 38 5a
        E 0 82 58 64
        E 0 83 44 64
        E 0 8f 38 64
        E 0 92 4c 64
        E 0 93 42 5a
        E 0 9f 36 5a
        E 0 82 4c 64
        E 0 83 42 64
        E 0 8f 36 64
        E 0 92 4c 64
        E 0 93 44 5a
        E 0 9f 38 5a
        E 0 82 4c 64
        E 0 83 44 64
        E 0 8f 38 64
        E 0 92 56 64
        E 0 93 40 5a
        E 0 9f 34 5a
        E 0 82 56 64
        E 0 83 40 64
        E 0 8f 34 64
        E 0 92 56 64
        E 0 93 45 5a
        E 0 9f 39 5a
        E 0 82 56 64
        E 0 83 45 64
        E 0 8f 39 64
        E 0 92 55 64
        E 0 93 44 5a
        E 0 9f 38 5a
        E 0 82 55 64
        E 0 83 44 64
        E 0 8f 38 64
        E 0 92 55 64
        E 0 93 45 5a
        E 0 9f 39 5a
        E 0 82 55 64
        E 0 83 45 64
        E 0 8f 39 64
        E 0 92 4d 64
        E 0 93 39 5a
        E 0 9f 2d 5a
        E 0 82 4d 64
        E 0 83 39 64
        E 0 8f 2d 64
        E 0 92 4d 64
        E 0 93 39 5a
        E 0 9f 2d 5a
        E 0 82 4d 64
        E 0 83 39 64
        E 0 8f 2d 64
        E 0 92 4c 64
        E 0 93 45 5a
        E 0 9f 39 5a
        E 38404 82 4c 64
        E 0 83 45 64
        E 0 8f 39 64
        E 0 92 4c 64
        E 0 93 45 5a
        E 0 9f 39 5a
        E 0 82 4c 64
        E 0 83 45 64
        E 0 8f 39 64
        E 0 92 50 64
        E 0 93 39 5a
        E 0 9f 2d 5a
        E 0 82 50 64
        E 0 83 39 64
        E 0 8f 2d 64
        E 0 92 50 64
        E 0 93 39 5a
        E 0 9f 2d 5a
        E 0 82 50 64
        E 0 83 39 64
        E 0 8f 2d 64
        E 0 92 51 64
        E 0 93 45 5a
        E 0 9f 39 5a
        E 0 82 51 64
        E 0 83 45 64
        E 0 8f 39 64
        E 1 92 49 64
        E 0 93 45 5a
        E 0 9f 39 5a
        E 0 82 49 64
        E 0 83 45 64
        E 0 8f 39 64
        E 0 92 4a 64
        E 0 93 39 5a
        E 0 9f 2d 5a
        E 0 82 4a 64
        E 0 83 39 64
        E 0 8f 2d 64
        E 0 92 4d 64
        E 0 93 39 5a
        E 0 9f 2d 5a
        E 0 82 4d 64
        E 0 83 39 64
        E 0 8f 2d 64
        E 0 92 4c 64
        E 0 93 45 5a
        E 0 9f 39 5a
        E 0 82 4c 64
        E 0 83 45 64
        E 0 8f 39 64
        E 0 92 4c 64
        E 0 93 45 5a
        E 0 9f 39 5a
        E 0 82 4c 64
        E 0 83 45 64
        E 0 8f 39 64
        E 0 92 50 64
        E 0 93 39 5a
        E 0 9f 2d 5a
        E 0 82 50 64
        E 0 83 39 64
        E 0 8f 2d 64
        E 0 92 50 64
        E 0 93 39 5a
        E 0 9f 2d 5a
        E 0 82 50 64
        E 0 83 39 64
        E 0 8f 2d 64
        E 0 92 51 64
        E 0 93 45 5a
        E 0 9f 39 5a
        E 0 82 51 64
        E 0 83 45 64
        E 0 8f 39 64
        E 0 92 49 64
        E 0 93 45 5a
        E 0 9f 39 5a
        E 0 83 45 64
        E 0 8f 39 64
        E 0 93 43 5a
        E 0 9f 37 5a
        E 0 82 49 64
        E 0 83 43 64
        E 0 8f 37 64
        E 0 92 4a 64
        E 0 93 42 5a
        E 0 9f 36 5a
        E 0 83 42 64
        E 0 8f 36 64
        E 1 93 40 5a
        E 0 9f 34 5a
        E 0 82 4a 64
        E 0 83 40 64
        E 0 8f 34 64
        E 0 92 45 64
        E 0 93 3e 5a
        E 0 9f 32 5a
        E 0 82 45 64
        E 0 92 43 64
        E 0 82 43 64
        E 0 83 3e 64
        E 0 8f 32 64
        E 0 92 42 64
        E 0 93 40 5a
        E 0 9f 34 5a
        E 0 82 42 64
        E 0 92 40 64
        E 0 82 40 64
        E 0 83 40 64
        E 0 8f 34 64
        E 0 92 3e 64
        E 0 93 42 5a
        E 0 9f 36 5a
        E 0 82 3e 64
        E 0 83 42 64
        E 0 8f 36 64
        E 0 92 48 64
        E 0 93 3e 5a
        E 0 9f 32 5a
        E 0 82 48 64
        E 0 83 3e 64
        E 0 8f 32 64
        E 0 92 48 64
        E 0 93 43 5a
        E 0 9f 37 5a
        E 0 83 43 64
        E 0 8f 37 64
        E 0 93 42 5a
        E 0 9f 36 5a
        E 0 82 48 64
        E 0 83 42 64
        E 0 8f 36 64
        E 0 92 47 64
        E 0 93 43 5a
        E 0 9f 37 5a
        E 0 82 47 64
        E 0 83 43 64
        E 0 8f 37 64
        E 0 92 45 64
        E 0 93 37 5a
        E 0 9f 2b 5a
        E 0 82 45 64
        E 0 92 47 64
        E 0 82 47 64
        E 0 83 37 64
        E 0 8f 2b 64
        E 0 92 4a 64
        E 0 93 45 5a
        E 0 9f 39 5a
        E 0 83 45 64
        E 0 8f 39 64
        E 1 93 43 5a
        E 0 9f 37 5a
        E 0 82 4a 64
        E 0 83 43 64
        E 0 8f 37 64
        E 0 92 49 64
        E 0 93 45 5a
        E 0 9f 39 5a
        E 0 82 49 64
        E 0 83 45 64
        E 0 8f 39 64
        E 0 92 47 64
        E 0 93 39 5a
        E 0 9f 2d 5a
        E 0 82 47 64
        E 0 92 49 64
        E 0 82 49 64
        E 0 83 39 64
        E 0 8f 2d 64
        E 0 92 4c 64
        E 0 93 47 5a
        E 0 9f 3b 5a
        E 0 83 47 64
        E 0 8f 3b 64
        E 0 93 45 5a
        E 0 9f 39 5a
        E 0 82 4c 64
        E 0 83 45 64
        E 0 8f 39 64
        E 0 92 4a 64
        E 0 93 47 5a
        E 0 9f 3b 5a
        E 0 82 4a 64
        E 0 83 47 64
        E 0 8f 3b 64
        E 0 92 49 64
        E 0 93 3b 5a
        E 0 9f 2f 5a
        E 0 82 49 64
        E 0 92 4a 64
        E 0 82 4a 64
        E 0 83 3b 64
        E 0 8f 2f 64
        E 0 92 4e 64
        E 0 93 49 5a
        E 0 9f 3d 5a
        E 0 83 49 64
        E 0 8f 3d 64
        E 0 93 47 5a
        E 0 9f 3b 5a
        E 0 82 4e 64
        E 0 83 47 64
        E 0 8f 3b 64
        E 0 92 4c 64
        E 0 93 49 5a
        E 0 9f 3d 5a
        E 0 82 4c 64
        E 0 83 49 64
        E 0 8f 3d 64
        E 0 92 4a 64
        E 0 93 3d 5a
        E 1 9f 31 5a
        E 0 82 4a 64
        E 0 92 4c 64
        E 0 82 4c 64
        E 0 83 3d 64
        E 0 8f 31 64
        E 0 92 56 64
        E 0 93 42 5a
        E 0 9f 36 5a
        E 0 82 56 64
        E 0 83 42 64
        E 0 8f 36 64
        E 0 92 51 64
        E 0 93 40 5a
        E 0 9f 34 5a
        E 0 82 51 64
        E 0 83 40 64
        E 0 8f 34 64
        E 0 92 4e 64
        E 0 93 3e 5a
        E 0 9f 32 5a
        E 0 82 4e 64
        E 0 83 3e 64
        E 0 8f 32 64
        E 0 92 51 64
        E 0 93 3d 5a
        E 0 9f 31 5a
        E 0 82 51 64
        E 0 83 3d 64
        E 0 8f 31 64
        E 0 92 4a 64
        E 0 93 3e 5a
        E 0 9f 32 5a
        E 0 82 4a 64
        E 0 92 45 64
        E 0 82 45 64
        E 0 83 3e 64
        E 0 8f 32 64
        E 0 92 3e 64
        E 0 93 40 5a
        E 0 9f 34 5a
        E 0 82 3e 64
        E 0 92 45 64
        E 0 82 45 64
        E 0 83 40 64
        E 0 8f 34 64
        E 0 92 3e 64
        E 0 93 42 5a
        E 0 9f 36 5a
        E 0 82 3e 64
        E 0 92 45 64
        E 0 82 45 64
        E 0 83 42 64
        E 0 8f 36 64
        E 0 92 3e 64
        E 0 93 40 5a
        E 0 9f 34 5a
        E 0 82 3e 64
        E 0 92 45 64
        E 0 82 45 64
        E 0 83 40 64
        E 0 8f 34 64
        E 0 92 4a 64
        E 0 93 3e 5a
        E 0 9f 32 5a
        E 0 82 4a 64
        E 0 92 45 64
        E 0 82 45 64
        E 0 83 3e 64
        E 0 8f 32 64
        E 0 92 3e 64
        E 0 93 40 5a
        E 0 9f 34 5a
        E 0 82 3e 64
        E 0 92 45 64
        E 0 82 45 64
        E 0 83 40 64
        E 0 8f 34 64
        E 0 92 3e 64
        E 0 93 42 5a
        E 0 9f 36 5a
        E 0 82 3e 64
        E 0 92 45 64
        E 0 82 45 64
        E 0 83 42 64
        E 0 8f 36 64
        E 0 92 3e 64
        E 0 93 40 5a
        E 0 9f 34 5a
        E 0 82 3e 64
        E 0 92 45 64
        E 0 82 45 64
        E 0 83 40 64
        E 0 8f 34 64
        E 0 92 4e 64
        E 0 93 3e 5a
        E 0 9f 32 5a
        E 0 82 4e 64
        E 0 83 3e 64
        E 0 8f 32 64
        E 0 92 4c 64
        E 0 93 47 5a
        E 0 9f 3b 5a
        E 0 82 4c 64
        E 0 92 4a 64
        E 0 82 4a 64
        E 0 83 47 64
        E 0 8f 3b 64
        E 0 92 4c 64
        E 0 93 45 5a
        E 1 9f 39 5a
        E 0 83 45 64
        E 0 8f 39 64
        E 0 93 39 5a
        E 0 9f 2d 5a
        E 0 82 4c 64
        E 0 83 39 64
        E 0 8f 2d 64
        E 0 92 4a 64
        E 0 93 3e 5a
        E 0 9f 32 5a
        E 0 82 4a 64
        E 0 92 45 64
        E 0 82 45 64
        E 0 83 3e 64
        E 0 8f 32 64
        E 0 92 3e 64
        E 0 93 40 5a
        E 0 9f 34 5a
        E 0 82 3e 64
        E 0 92 45 64
        E 0 82 45 64
        E 0 83 40 64
        E 0 8f 34 64
        E 0 92 3e 64
        E 0 93 42 5a
        E 0 9f 36 5a
        E 0 82 3e 64
        E 0 92 45 64
        E 0 82 45 64
        E 0 83 42 64
        E 0 8f 36 64
        E 0 92 3e 64
        E 0 93 40 5a
        E 0 9f 34 5a
        E 0 82 3e 64
        E 1 92 45 64
        E 0 82 45 64
        E 0 83 40 64
        E 0 8f 34 64
        E 0 92 4a 64
        E 0 93 3e 5a
        E 0 9f 32 5a
        E 0 82 4a 64
        E 0 92 45 64
        E 0 82 45 64
        E 0 83 3e 64
        E 0 8f 32 64
        E 0 92 3e 64
        E 0 93 40 5a
        E 0 9f 34 5a
        E 0 82 3e 64
        E 0 92 45 64
        E 0 82 45 64
        E 0 83 40 64
        E 0 8f 34 64
        E 0 92 3e 64
        E 0 93 42 5a
        E 0 9f 36 5a
        E 0 82 3e 64
        E 0 92 45 64
        E 0 82 45 64
        E 0 83 42 64
        E 0 8f 36 64
        E 0 92 3e 64
        E 0 93 40 5a
        E 0 9f 34 5a
        E 0 82 3e 64
        E 0 92 45 64
        E 0 82 45 64
        E 0 83 40 64
        E 0 8f 34 64
        E 0 92 4e 64
        E 0 93 3e 5a
        E 0 9f 32 5a
        E 0 82 4e 64
        E 0 83 3e 64
        E 0 8f 32 64
        E 0 92 4c 64
        E 0 93 47 5a
        E 0 9f 3b 5a
        E 0 82 4c 64
        E 0 92 4a 64
        E 0 82 4a 64
        E 0 83 47 64
        E 0 8f 3b 64
        E 0 92 4c 64
        E 0 93 45 5a
        E 0 9f 39 5a
        E 0 83 45 64
        E 0 8f 39 64
        E 0 93 39 5a
        E 0 9f 2d 5a
        E 0 82 4c 64
        E 0 83 39 64
        E 0 8f 2d 64
        E 0 92 4a 64
        E 0 93 3e 5a
        E 0 9a 45 64
        E 0 9f 32 5a
        E 0 83 3e 64
        E 0 8f 32 64
        E 0 93 40 5a
        E 0 9f 34 5a
        E 0 82 4a 64
        E 0 83 40 64
        E 0 8a 45 64
        E 0 8f 34 64
        E 0 93 42 5a
        E 0 9a 3e 64
        E 1 9f 36 5a
        E 0 83 42 64
        E 0 8a 3e 64
        E 0 8f 36 64
        E 0 92 4a 64
        E 0 93 40 5a
        E 0 9a 4a 64
        E 0 9f 34 5a
        E 0 82 4a 64
        E 0 83 40 64
        E 0 8a 4a 64
        E 0 8f 34 64
        E 0 92 4a 64
        E 0 93 3e 5a
        E 0 9a 4a 64
        E 0 9f 32 5a
        E 0 82 4a 64
        E 0 83 3e 64
        E 0 8a 4a 64
        E 0 8f 32 64
        E 0 92 49 64
        E 0 93 40 5a
        E 0 9a 49 64
        E 0 9f 34 5a
        E 0 82 49 64
        E 0 83 40 64
        E 0 8a 49 64
        E 0 8f 34 64
        E 0 92 49 64
        E 0 93 42 5a
        E 0 9a 49 64
        E 0 9f 36 5a
        E 0 82 49 64
        E 0 83 42 64
        E 0 8a 49 64
        E 0 8f 36 64
        E 0 92 47 64
        E 0 93 3e 5a
        E 0 9a 47 64
        E 0 9f 32 5a
        E 0 82 47 64
        E 0 83 3e 64
        E 0 8a 47 64
        E 0 8f 32 64
        E 0 92 47 64
        E 0 93 43 5a
        E 0 9a 47 64
        E 0 9f 37 5a
        E 0 83 43 64
        E 0 8f 37 64
        E 0 93 45 5a
        E 0 9f 39 5a
        E 0 83 45 64
        E 0 8f 39 64
        E 0 93 43 5a
        E 0 9f 37 5a
        E 0 82 47 64
        E 0 83 43 64
        E 0 8a 47 64
        E 0 8f 37 64
        E 0 92 45 64
        E 0 93 42 5a
        E 0 9a 45 64
        E 0 9f 36 5a
        E 0 82 45 64
        E 0 83 42 64
        E 0 8a 45 64
        E 0 8f 36 64
        E 0 92 43 64
        E 0 93 40 5a
        E 0 9a 43 64
        E 0 9f 34 5a
        E 0 82 43 64
        E 0 83 40 64
        E 0 8a 43 64
        E 0 8f 34 64
        E 0 92 42 64
        E 0 93 3e 5a
        E 0 9a 42 64
        E 0 9f 32 5a
        E 0 82 42 64
        E 0 83 3e 64
        E 0 8a 42 64
        E 0 8f 32 64
        E 0 92 40 64
        E 0 93 3d 5a
        E 0 9a 40 64
        E 0 9f 31 5a
        E 0 82 40 64
        E 0 83 3d 64
        E 0 8a 40 64
        E 0 8f 31 64
        E 0 92 3e 64
        E 0 93 3b 5a
        E 0 9a 3e 64
        E 0 9f 2f 5a
        E 0 82 3e 64
        E 0 83 3b 64
        E 0 8a 3e 64
        E 0 8f 2f 64
        E 0 92 45 64
        E 0 93 39 5a
        E 0 9a 45 64
        E 0 9f 2d 5a
        E 0 83 39 64
        E 1 8f 2d 64
        E 0 93 45 5a
        E 0 9f 39 5a
        E 38403 82 45 64
        E 0 83 45 64
        E 0 8a 45 64
        E 0 8f 39 64
        E 0 93 49 5a
        E 0 9f 3d 5a
        E 0 83 49 64
        E 0 8f 3d 64
        E 0 92 51 64
        E 0 93 45 5a
        E 0 9a 45 64
        E 0 9f 39 5a
        E 0 82 51 64
        E 0 83 45 64
        E 0 8a 45 64
        E 0 8f 39 64
        E 0 92 51 64
        E 0 93 4c 5a
        E 0 9a 45 64
        E 0 9f 40 5a
        E 0 82 51 64
        E 0 83 4c 64
        E 0 8a 45 64
        E 0 8f 40 64
        E 1 92 50 64
        E 0 93 4a 5a
        E 0 9a 44 64
        E 0 9f 3e 5a
        E 0 82 50 64
        E 0 83 4a 64
        E 0 8a 44 64
        E 0 8f 3e 64
        E 0 92 50 64
        E 0 93 4c 5a
        E 0 9a 44 64
        E 0 9f 40 5a
        E 0 82 50 64
        E 0 83 4c 64
        E 0 8a 44 64
        E 0 8f 40 64
        E 0 92 4e 64
        E 0 93 40 5a
        E 0 9a 42 64
        E 0 9f 34 5a
        E 0 82 4e 64
        E 0 83 40 64
        E 0 8a 42 64
        E 0 8f 34 64
        E 0 92 4e 64
        E 0 93 4a 5a
        E 0 9a 42 64
        E 0 9f 3e 5a
        E 0 83 4a 64
        E 0 8f 3e 64
        E 0 93 4c 5a
        E 0 9f 40 5a
        E 0 83 4c 64
        E 0 8f 40 64
        E 0 93 4a 5a
        E 0 9f 3e 5a
        E 0 82 4e 64
        E 0 83 4a 64
        E 0 8a 42 64
        E 0 8f 3e 64
        E 0 92 4c 64
        E 0 93 49 5a
        E 0 9a 40 64
        E 0 9f 3d 5a
        E 0 82 4c 64
        E 0 83 49 64
        E 0 8a 40 64
        E 0 8f 3d 64
        E 0 92 4a 64
        E 0 93 47 5a
        E 0 9a 4a 64
        E 0 9f 3b 5a
        E 0 82 4a 64
        E 0 83 47 64
        E 0 8a 4a 64
        E 0 8f 3b 64
        E 1 92 49 64
        E 0 93 45 5a
        E 0 9a 49 64
        E 0 9f 39 5a
        E 0 82 49 64
        E 0 83 45 64
        E 0 8a 49 64
        E 0 8f 39 64
        E 0 92 47 64
        E 0 93 44 5a
        E 0 9a 47 64
        E 0 9f 38 5a
        E 0 82 47 64
        E 0 83 44 64
        E 0 8a 47 64
        E 0 8f 38 64
        E 0 92 45 64
        E 0 93 42 5a
        E 0 9a 45 64
        E 0 9f 36 5a
        E 0 82 45 64
        E 0 83 42 64
        E 0 8a 45 64
        E 0 8f 36 64
        E 0 92 4c 64
        E 0 93 40 5a
        E 0 9a 40 64
        E 0 9f 34 5a
        E 0 83 40 64
        E 0 8f 34 64
        E 0 93 45 5a
        E 0 9f 39 5a
        E 0 82 4c 64
        E 0 83 45 64
        E 0 8a 40 64
        E 0 8f 39 64
        E 0 93 45 5a
        E 0 9f 39 5a
        E 0 83 45 64
        E 0 8f 39 64
        E 0 93 44 5a
        E 0 9f 38 5a
        E 0 83 44 64
        E 0 8f 38 64
        E 0 92 4c 64
        E 0 93 42 5a
        E 0 9a 40 64
        E 0 9f 36 5a
        E 0 83 42 64
        E 0 8f 36 64
        E 0 93 40 5a
        E 0 9f 34 5a
        E 0 82 4c 64
        E 0 83 40 64
        E 0 8a 40 64
        E 0 8f 34 64
        E 1 92 4f 64
        E 0 93 3e 5a
        E 0 9a 43 64
        E 0 9f 32 5a
        E 0 83 3e 64
        E 0 8f 32 64
        E 0 93 3d 5a
        E 0 9f 31 5a
        E 0 82 4f 64
        E 0 83 3d 64
        E 0 8a 43 64
        E 0 8f 31 64
        E 0 92 4e 64
        E 0 93 3e 5a
        E 0 9a 42 64
        E 0 9f 32 5a
        E 0 82 4e 64
        E 0 83 3e 64
        E 0 8a 42 64
        E 0 8f 32 64
        E 0 92 4c 64
        E 0 93 32 5a
        E 0 9a 40 64
        E 0 9f 26 5a
        E 0 82 4c 64
        E 0 8a 40 64
        E 0 92 4e 64
        E 0 9a 42 64
        E 0 82 4e 64
        E 0 83 32 64
        E 0 8a 42 64
        E 0 8f 26 64
        E 0 92 51 64
        E 0 93 40 5a
        E 0 9a 45 64
        E 0 9f 34 5a
        E 0 83 40 64
        E 0 8f 34 64
        E 0 93 3e 5a
        E 0 9f 32 5a
        E 0 82 51 64
        E 0 83 3e 64
        E 0 8a 45 64
        E 0 8f 32 64
        E 0 92 50 64
        E 0 93 40 5a
        E 0 9a 44 64
        E 1 9f 34 5a
        E 0 82 50 64
        E 0 83 40 64
        E 0 8a 44 64
        E 0 8f 34 64
        E 0 92 4e 64
        E 0 93 34 5a
        E 0 9a 42 64
        E 0 9f 28 5a
        E 0 82 4e 64
        E 0 8a 42 64
        E 0 92 50 64
        E 0 9a 44 64
        E 0 82 50 64
        E 0 83 34 64
        E 0 8a 44 64
        E 0 8f 28 64
        E 0 92 53 64
        E 0 93 42 5a
        E 0 9a 47 64
        E 0 9f 36 5a
        E 0 83 42 64
        E 0 8f 36 64
        E 0 93 40 5a
        E 0 9f 34 5a
        E 0 82 53 64
        E 0 83 40 64
        E 0 8a 47 64
        E 0 8f 34 64
        E 0 92 51 64
        E 0 93 42 5a
        E 0 9a 45 64
        E 0 9f 36 5a
        E 0 82 51 64
        E 0 83 42 64
        E 0 8a 45 64
        E 0 8f 36 64
        E 0 92 50 64
        E 0 93 36 5a
        E 0 9a 44 64
        E 0 9f 2a 5a
        E 0 82 50 64
        E 0 8a 44 64
        E 0 92 51 64
        E 0 9a 45 64
        E 0 82 51 64
        E 0 83 36 64
        E 0 8a 45 64
        E 0 8f 2a 64
        E 0 92 55 64
        E 0 93 44 5a
        E 0 9a 49 64
        E 0 9f 38 5a
        E 0 83 44 64
        E 0 8f 38 64
        E 0 93 42 5a
        E 0 9f 36 5a
        E 0 82 55 64
        E 0 83 42 64
        E 0 8a 49 64
        E 0 8f 36 64
        E 0 92 53 64
        E 0 93 44 5a
        E 0 9a 47 64
        E 0 9f 38 5a
        E 0 82 53 64
        E 0 83 44 64
        E 0 8a 47 64
        E 0 8f 38 64
        E 0 92 51 64
        E 0 93 38 5a
        E 0 9a 45 64
        E 0 9f 2c 5a
        E 0 82 51 64
        E 0 8a 45 64
        E 0 92 53 64
        E 0 9a 47 64
        E 0 82 53 64
        E 0 83 38 64
        E 0 8a 47 64
        E 0 8f 2c 64
        E 0 92 55 64
        E 0 93 39 5a
        E 0 9a 49 64
        E 0 9f 2d 5a
        E 0 82 55 64
        E 0 8a 49 64
        E 0 92 53 64
        E 0 9a 47 64
        E 0 82 53 64
        E 0 83 39 64
        E 0 8a 47 64
        E 0 8f 2d 64
        E 0 92 51 64
        E 0 93 3b 5a
        E 0 9a 45 64
        E 0 9f 2f 5a
        E 0 82 51 64
        E 0 83 3b 64
        E 0 8a 45 64
        E 0 8f 2f 64
        E 0 92 51 64
        E 0 93 3d 5a
        E 0 9f 31 5a
        E 0 82 51 64
        E 0 83 3d 64
        E 0 8f 31 64
        E 1 92 51 64
        E 0 93 3b 5a
        E 0 9a 40 64
        E 0 9f 2f 5a
        E 0 82 51 64
        E 0 83 3b 64
        E 0 8a 40 64
        E 0 8f 2f 64
        E 0 92 55 64
        E 0 93 39 5a
        E 0 9a 45 64
        E 0 9f 2d 5a
        E 0 82 55 64
        E 0 92 53 64
        E 0 82 53 64
        E 0 83 39 64
        E 0 8a 45 64
        E 0 8f 2d 64
        E 0 92 51 64
        E 0 93 3b 5a
        E 0 9a 45 64
        E 0 9f 2f 5a
        E 0 82 51 64
        E 0 83 3b 64
        E 0 8a 45 64
        E 0 8f 2f 64
        E 0 92 51 64
        E 0 93 3d 5a
        E 0 9a 45 64
        E 0 9f 31 5a
        E 0 82 51 64
        E 0 83 3d 64
        E 0 8a 45 64
        E 0 8f 31 64
        E 0 92 51 64
        E 0 93 3b 5a
        E 0 9a 45 64
        E 0 9f 2f 5a
        E 0 82 51 64
        E 0 83 3b 64
        E 0 8a 45 64
        E 0 8f 2f 64
        E 0 92 51 64
        E 0 93 39 5a
        E 0 9a 45 64
        E 0 9f 2d 5a
        E 0 82 51 64
        E 0 92 4c 64
        E 0 82 4c 64
        E 0 83 39 64
        E 0 8f 2d 64
        E 0 92 45 64
        E 0 93 3b 5a
        E 0 9f 2f 5a
        E 0 82 45 64
        E 0 92 4c 64
        E 0 82 4c 64
        E 0 83 3b 64
        E 0 8a 45 64
        E 0 8f 2f 64
        E 0 92 45 64
        E 0 93 3d 5a
        E 0 9f 31 5a
        E 0 82 45 64
        E 0 92 4c 64
        E 0 82 4c 64
        E 0 83 3d 64
        E 0 8f 31 64
        E 0 92 45 64
        E 0 93 3b 5a
        E 0 9a 45 64
        E 0 9f 2f 5a
        E 0 82 45 64
        E 0 92 4c 64
        E 0 82 4c 64
        E 0 83 3b 64
        E 0 8a 45 64
        E 0 8f 2f 64
        E 0 92 51 64
        E 0 93 39 5a
        E 0 9a 45 64
        E 0 9f 2d 5a
        E 0 82 51 64
        E 0 8a 45 64
        E 0 92 4c 64
        E 0 9a 47 64
        E 0 82 4c 64
        E 0 83 39 64
        E 0 8a 47 64
        E 0 8f 2d 64
        E 1 92 45 64
        E 0 93 3b 5a
        E 0 9a 45 64
        E 0 9f 2f 5a
        E 0 82 45 64
        E 0 8a 45 64
        E 0 92 4c 64
        E 0 9a 47 64
        E 0 82 4c 64
        E 0 83 3b 64
        E 0 8a 47 64
        E 0 8f 2f 64
        E 0 92 45 64
        E 0 93 3d 5a
        E 0 9a 45 64
        E 0 9f 31 5a
        E 0 82 45 64
        E 0 8a 45 64
        E 0 92 4c 64
        E 0 9a 47 64
        E 0 82 4c 64
        E 0 83 3d 64
        E 0 8a 47 64
        E 0 8f 31 64
        E 0 92 45 64
        E 0 93 3b 5a
        E 0 9a 45 64
        E 0 9f 2f 5a
        E 0 82 45 64
        E 0 8a 45 64
        E 0 92 4c 64
        E 0 9a 47 64
        E 0 82 4c 64
        E 0 83 3b 64
        E 0 8a 47 64
        E 0 8f 2f 64
        E 0 92 55 64
        E 0 93 39 5a
        E 0 9a 49 64
        E 0 9f 2d 5a
        E 0 82 55 64
        E 0 83 39 64
        E 0 8a 49 64
        E 0 8f 2d 64
        E 0 92 53 64
        E 0 93 42 5a
        E 0 9a 47 64
        E 0 9f 36 5a
        E 0 82 53 64
        E 0 8a 47 64
        E 0 92 51 64
        E 0 9a 45 64
        E 0 82 51 64
        E 0 83 42 64
        E 0 8a 45 64
        E 0 8f 36 64
        E 0 92 53 64
        E 0 93 40 5a
        E 0 9a 47 64
        E 0 9f 34 5a
        E 0 83 40 64
        E 0 8f 34 64
        E 0 93 34 5a
        E 0 9f 28 5a
        E 0 82 53 64
        E 0 83 34 64
        E 0 8a 47 64
        E 0 8f 28 64
        E 0 92 51 64
        E 0 93 39 5a
        E 0 9a 45 64
        E 0 9f 2d 5a
        E 0 82 51 64
        E 0 92 4c 64
        E 0 82 4c 64
        E 0 83 39 64
        E 0 8f 2d 64
        E 0 92 45 64
        E 0 93 3b 5a
        E 0 9f 2f 5a
        E 0 82 45 64
        E 0 92 4c 64
        E 0 82 4c 64
        E 0 83 3b 64
        E 0 8a 45 64
        E 0 8f 2f 64
        E 0 92 45 64
        E 0 93 3d 5a
        E 0 9f 31 5a
        E 0 82 45 64
        E 0 92 4c 64
        E 0 82 4c 64
        E 0 83 3d 64
        E 0 8f 31 64
        E 0 92 45 64
        E 0 93 3b 5a
        E 0 9a 45 64
        E 0 9f 2f 5a
        E 0 82 45 64
        E 0 92 4c 64
        E 0 82 4c 64
        E 0 83 3b 64
        E 0 8a 45 64
        E 0 8f 2f 64
        E 0 92 51 64
        E 0 93 39 5a
        E 1 9a 45 64
        E 0 9f 2d 5a
        E 0 82 51 64
        E 0 8a 45 64
        E 0 92 4c 64
        E 0 9a 47 64
        E 0 82 4c 64
        E 0 83 39 64
        E 0 8a 47 64
        E 0 8f 2d 64
        E 0 92 45 64
        E 0 93 3b 5a
        E 0 9a 45 64
        E 0 9f 2f 5a
        E 0 82 45 64
        E 0 8a 45 64
        E 0 92 4c 64
        E 0 9a 47 64
        E 0 82 4c 64
        E 0 83 3b 64
        E 0 8a 47 64
        E 0 8f 2f 64
        E 0 92 45 64
        E 0 93 3d 5a
        E 0 9a 45 64
        E 0 9f 31 5a
        E 0 82 45 64
        E 0 8a 45 64
        E 0 92 4c 64
        E 0 9a 47 64
        E 0 82 4c 64
        E 0 83 3d 64
        E 0 8a 47 64
        E 0 8f 31 64
        E 0 92 45 64
        E 0 93 3b 5a
        E 0 9a 45 64
        E 0 9f 2f 5a
        E 0 82 45 64
        E 0 8a 45 64
        E 0 92 4c 64
        E 0 9a 47 64
        E 0 82 4c 64
        E 0 83 3b 64
        E 0 8a 47 64
        E 0 8f 2f 64
        E 0 92 55 64
        E 0 93 39 5a
        E 0 9a 49 64
        E 0 9f 2d 5a
        E 0 82 55 64
        E 0 83 39 64
        E 0 8a 49 64
        E 0 8f 2d 64
        E 0 92 53 64
        E 0 93 42 5a
        E 0 9a 47 64
        E 0 9f 36 5a
        E 0 82 53 64
        E 0 8a 47 64
        E 0 92 51 64
        E 0 9a 45 64
        E 0 82 51 64
        E 0 83 42 64
        E 0 8a 45 64
        E 0 8f 36 64
        E 0 92 53 64
        E 0 93 40 5a
        E 0 9a 47 64
        E 0 9f 34 5a
        E 0 83 40 64
        E 0 8f 34 64
        E 0 93 34 5a
        E 0 9f 28 5a
        E 0 82 53 64
        E 0 83 34 64
        E 0 8a 47 64
        E 0 8f 28 64
        E 0 92 51 64
        E 0 93 39 5a
        E 0 9a 45 64
        E 0 9f 2d 5a
        E 0 82 51 64
        E 0 83 39 64
        E 0 8f 2d 64
        E 0 92 4c 64
        E 0 93 39 5a
        E 0 9f 2d 5a
        E 0 82 4c 64
        E 0 83 39 64
        E 0 8a 45 64
        E 0 8f 2d 64
        E 0 92 49 64
        E 0 93 3b 5a
        E 0 9f 2f 5a
        E 0 82 49 64
        E 0 83 3b 64
        E 0 8f 2f 64
        E 0 92 45 64
        E 0 93 3d 5a
        E 0 9f 31 5a
        E 0 82 45 64
        E 0 83 3d 64
        E 0 8f 31 64
        E 0 92 44 64
        E 0 92 42 64
        E 0 93 3e 5a
        E 0 9f 32 5a
        E 0 82 44 64
        E 0 82 42 64
        E 0 83 3e 64
        E 0 8f 32 64
        E 0 92 40 64
        E 1 93 42 5a
        E 0 9f 36 5a
        E 0 82 40 64
        E 0 92 3e 64
        E 0 82 3e 64
        E 0 83 42 64
        E 0 8f 36 64
        E 0 92 40 64
        E 0 93 40 5a
        E 0 9f 34 5a
        E 0 82 40 64
        E 0 83 40 64
        E 0 8f 34 64
        E 0 92 42 64
        E 0 93 3e 5a
        E 0 9f 32 5a
        E 0 82 42 64
        E 0 83 3e 64
        E 0 8f 32 64
        E 0 92 42 64
        E 0 93 3d 5a
        E 0 9f 31 5a
        E 0 83 3d 64
        E 0 8f 31 64
        E 0 93 3b 5a
        E 0 9f 2f 5a
        E 0 82 42 64
        E 0 83 3b 64
        E 0 8f 2f 64
        E 0 92 40 64
        E 0 93 3d 5a
        E 0 9f 31 5a
        E 0 82 40 64
        E 0 83 3d 64
        E 0 8f 31 64
        E 0 92 45 64
        E 0 93 39 5a
        E 0 9f 2d 5a
        E 0 82 45 64
        E 0 83 39 64
        E 0 8f 2d 64
        E 0 92 44 64
        E 0 92 42 64
        E 0 93 3e 5a
        E 0 9f 32 5a
        E 0 82 44 64
        E 0 82 42 64
        E 0 83 3e 64
        E 0 8f 32 64
        E 0 92 40 64
        E 0 93 42 5a
        E 0 9f 36 5a
        E 38404 82 40 64
        E 0 92 3e 64
        E 0 82 3e 64
        E 0 83 42 64
        E 0 8f 36 64
        E 0 92 40 64
        E 0 93 40 5a
        E 0 9f 34 5a
        E 0 82 40 64
        E 0 83 40 64
        E 0 8f 34 64
        E 0 92 42 64
        E 0 93 3e 5a
        E 0 9f 32 5a
        E 0 82 42 64
        E 0 83 3e 64
        E 0 8f 32 64
        E 0 92 42 64
        E 0 93 3d 5a
        E 0 9f 31 5a
        E 0 83 3d 64
        E 0 8f 31 64
        E 0 93 3e 5a
        E 0 9f 32 5a
        E 0 82 42 64
        E 0 83 3e 64
        E 0 8f 32 64
        E 0 92 40 64
        E 0 93 3d 5a
        E 0 9f 31 5a
        E 0 82 40 64
        E 0 83 3d 64
        E 0 8f 31 64
        E 0 92 51 64
        E 0 93 3b 5a
        E 0 9f 2f 5a
        E 0 82 51 64
        E 0 83 3b 64
        E 0 8f 2f 64
        E 0 92 51 64
        E 0 93 39 5a
        E 0 9f 2d 5a
        E 0 82 51 64
        E 0 83 39 64
        E 0 8f 2d 64
        E 0 92 49 64
        E 0 93 3b 5a
        E 1 9f 2f 5a
        E 0 82 49 64
        E 0 83 3b 64
        E 0 8f 2f 64
        E 0 92 49 64
        E 0 93 3d 5a
        E 0 9f 31 5a
        E 0 82 49 64
        E 0 83 3d 64
        E 0 8f 31 64
        E 0 92 4e 64
        E 0 93 39 5a
        E 0 9f 2d 5a
        E 0 82 4e 64
        E 0 83 39 64
        E 0 8f 2d 64
        E 0 92 4e 64
        E 0 93 44 5a
        E 0 9f 38 5a
        E 0 82 4e 64
        E 0 83 44 64
        E 0 8f 38 64
        E 0 92 4c 64
        E 0 93 42 5a
        E 0 9f 36 5a
        E 0 82 4c 64
        E 0 83 42 64
        E 0 8f 36 64
        E 0 92 4c 64
        E 0 93 44 5a
        E 0 9f 38 5a
        E 0 82 4c 64
        E 0 83 44 64
        E 0 8f 38 64
        E 0 92 56 64
        E 0 93 40 5a
        E 0 9f 34 5a
        E 0 82 56 64
        E 0 83 40 64
        E 0 8f 34 64
        E 0 92 55 64
        E 0 93 45 5a
        E 0 9f 39 5a
        E 0 82 55 64
        E 0 83 45 64
        E 0 8f 39 64
        E 0 92 53 64
        E 0 93 42 5a
        E 0 9f 36 5a
        E 0 82 53 64
        E 0 92 51 64
        E 0 82 51 64
        E 0 83 42 64
        E 0 8f 36 64
        E 0 92 53 64
        E 0 93 40 5a
        E 0 9f 34 5a
        E 0 83 40 64
        E 0 8f 34 64
        E 0 93 34 5a
        E 0 9f 28 5a
        E 0 82 53 64
        E 0 83 34 64
        E 0 8f 28 64
        E 0 92 51 64
        E 1 93 39 5a
        E 0 9f 2d 5a
        E 0 83 39 64
        E 0 8f 2d 64
        E 0 93 4a 5a
        E 0 9f 3e 5a
        E 0 82 51 64
        E 0 92 4f 64
        E 0 82 4f 64
        E 0 83 4a 64
        E 0 8f 3e 64
        E 0 92 4e 64
        E 0 93 45 5a
        E 0 9f 39 5a
        E 0 82 4e 64
        E 0 92 4c 64
        E 0 82 4c 64
        E 0 83 45 64
        E 0 8f 39 64
        E 0 92 4a 64
        E 0 93 39 5a
        E 0 9f 2d 5a
        E 0 82 4a 64
        E 0 92 49 64
        E 0 82 49 64
        E 0 83 39 64
        E 0 8f 2d 64
        E 0 92 4a 64
        E 0 93 3e 5a
        E 0 9a 45 64
        E 0 9f 32 5a
        E 0 83 3e 64
        E 0 8f 32 64
        E 0 93 40 5a
        E 0 9f 34 5a
        E 0 82 4a 64
        E 0 83 40 64
        E 0 8a 45 64
        E 0 8f 34 64
        E 0 92 3e 64
        E 0 93 42 5a
        E 0 9a 3e 64
        E 0 9f 36 5a
        E 0 82 3e 64
        E 0 83 42 64
        E 0 8a 3e 64
        E 0 8f 36 64
        E 0 92 4a 64
        E 0 93 40 5a
        E 0 9a 4a 64
        E 0 9f 34 5a
        E 0 82 4a 64
        E 0 83 40 64
        E 0 8a 4a 64
        E 0 8f 34 64
        E 0 92 4a 64
        E 0 93 3e 5a
        E 0 9a 4a 64
        E 0 9f 32 5a
        E 0 82 4a 64
        E 0 83 3e 64
        E 0 8a 4a 64
        E 0 8f 32 64
        E 0 92 49 64
        E 1 93 40 5a
        E 0 9a 49 64
        E 0 9f 34 5a
        E 0 82 49 64
        E 0 83 40 64
        E 0 8a 49 64
        E 0 8f 34 64
        E 0 92 49 64
        E 0 93 42 5a
        E 0 9a 49 64
        E 0 9f 36 5a
        E 0 82 49 64
        E 0 83 42 64
        E 0 8a 49 64
        E 0 8f 36 64
        E 0 92 47 64
        E 0 93 3e 5a
        E 0 9a 47 64
        E 0 9f 32 5a
        E 0 82 47 64
        E 0 83 3e 64
        E 0 8a 47 64
        E 0 8f 32 64
        E 0 92 47 64
        E 0 93 43 5a
        E 0 9a 47 64
        E 0 9f 37 5a
        E 0 83 43 64
        E 0 8f 37 64
        E 0 93 45 5a
        E 0 9f 39 5a
        E 0 83 45 64
        E 0 8f 39 64
        E 0 93 43 5a
        E 0 9f 37 5a
        E 0 82 47 64
        E 0 83 43 64
        E 0 8a 47 64
        E 0 8f 37 64
        E 0 92 45 64
        E 0 93 42 5a
        E 0 9a 45 64
        E 0 9f 36 5a
        E 0 82 45 64
        E 0 83 42 64
        E 0 8a 45 64
        E 0 8f 36 64
        E 0 92 43 64
        E 0 93 40 5a
        E 1 9a 43 64
        E 0 9f 34 5a
        E 0 82 43 64
        E 0 83 40 64
        E 0 8a 43 64
        E 0 8f 34 64
        E 0 92 42 64
        E 0 93 3e 5a
        E 0 9a 42 64
        E 0 9f 32 5a
        E 0 82 42 64
        E 0 83 3e 64
        E 0 8a 42 64
        E 0 8f 32 64
        E 0 92 40 64
        E 0 93 3d 5a
        E 0 9a 40 64
        E 0 9f 31 5a
        E 0 82 40 64
        E 0 83 3d 64
        E 0 8a 40 64
        E 0 8f 31 64
        E 0 92 3e 64
        E 0 93 3b 5a
        E 0 9a 3e 64
        E 0 9f 2f 5a
        E 0 82 3e 64
        E 0 83 3b 64
        E 0 8a 3e 64
        E 0 8f 2f 64
        E 0 92 45 64
        E 0 93 39 5a
        E 0 9a 45 64
        E 0 9f 2d 5a
        E 0 83 39 64
        E 0 8f 2d 64
        E 0 93 47 5a
        E 0 9f 3b 5a
        E 0 82 45 64
        E 0 83 47 64
        E 0 8a 45 64
        E 0 8f 3b 64
        E 0 93 45 5a
        E 0 9f 39 5a
        E 0 83 45 64
        E 0 8f 39 64
        E 0 92 56 64
        E 0 93 43 5a
        E 1 9a 4a 64
        E 0 9f 37 5a
        E 0 82 56 64
        E 0 83 43 64
        E 0 8a 4a 64
        E 0 8f 37 64
        E 0 92 56 64
        E 0 93 42 5a
        E 0 9a 4a 64
        E 0 9f 36 5a
        E 0 82 56 64
        E 0 83 42 64
        E 0 8a 4a 64
        E 0 8f 36 64
        E 0 92 4a 64
        E 0 93 40 5a
        E 0 9a 3e 64
        E 0 9f 34 5a
        E 0 82 4a 64
        E 0 83 40 64
        E 0 8a 3e 64
        E 0 8f 34 64
        E 0 92 4a 64
        E 0 93 42 5a
        E 0 9a 3e 64
        E 0 9f 36 5a
        E 0 82 4a 64
        E 0 83 42 64
        E 0 8a 3e 64
        E 0 8f 36 64
        E 0 92 54 64
        E 0 93 3e 5a
        E 0 9a 48 64
        E 0 9f 32 5a
        E 0 82 54 64
        E 0 83 3e 64
        E 0 8a 48 64
        E 0 8f 32 64
        E 0 92 54 64
        E 0 93 43 5a
        E 0 9a 48 64
        E 0 9f 37 5a
        E 0 82 54 64
        E 0 83 43 64
        E 0 8a 48 64
        E 0 8f 37 64
        E 0 92 53 64
        E 0 93 42 5a
        E 0 9a 47 64
        E 0 9f 36 5a
        E 0 82 53 64
        E 0 83 42 64
        E 0 8a 47 64
        E 0 8f 36 64
        E 0 92 53 64
        E 0 93 43 5a
        E 0 9f 37 5a
        E 0 82 53 64
        E 0 83 43 64
        E 0 8f 37 64
        E 0 92 58 64
        E 0 93 37 5a
        E 0 9a 47 64
        E 0 9f 2b 5a
        E 0 82 58 64
        E 0 83 37 64
        E 0 8a 47 64
        E 0 8f 2b 64
        E 0 92 58 64
        E 0 93 44 5a
        E 0 9a 47 64
        E 0 9f 38 5a
        E 0 82 58 64
        E 0 83 44 64
        E 0 8a 47 64
        E 0 8f 38 64
        E 0 92 4c 64
        E 0 93 42 5a
        E 0 9a 40 64
        E 0 9f 36 5a
        E 0 82 4c 64
        E 0 83 42 64
        E 0 8a 40 64
        E 1 8f 36 64
        E 0 92 4c 64
        E 0 93 44 5a
        E 0 9a 40 64
        E 0 9f 38 5a
        E 0 82 4c 64
        E 0 83 44 64
        E 0 8a 40 64
        E 0 8f 38 64
        E 0 92 56 64
        E 0 93 40 5a
        E 0 9a 4a 64
        E 0 9f 34 5a
        E 0 82 56 64
        E 0 83 40 64
        E 0 8a 4a 64
        E 0 8f 34 64
        E 0 92 56 64
        E 0 93 45 5a
        E 0 9a 4a 64
        E 0 9f 39 5a
        E 0 82 56 64
        E 0 83 45 64
        E 0 8a 4a 64
        E 0 8f 39 64
        E 0 92 55 64
        E 0 93 39 5a
        E 0 9a 49 64
        E 0 9f 2d 5a
        E 0 82 55 64
        E 0 83 39 64
        E 0 8a 49 64
        E 0 8f 2d 64
        E 0 92 55 64
        E 0 93 39 5a
        E 0 9f 2d 5a
        E 0 82 55 64
        E 0 83 39 64
        E 0 8f 2d 64
        E 0 92 4d 64
        E 0 93 45 5a
        E 0 9a 41 64
        E 0 9f 39 5a
        E 0 82 4d 64
        E 0 83 45 64
        E 0 8a 41 64
        E 0 8f 39 64
        E 0 92 4d 64
        E 0 93 45 5a
        E 0 9a 41 64
        E 0 9f 39 5a
        E 0 82 4d 64
        E 0 83 45 64
        E 0 8a 41 64
        E 0 8f 39 64
        E 0 92 4c 64
        E 0 93 39 5a
        E 0 9a 40 64
        E 0 9f 2d 5a
        E 0 82 4c 64
        E 0 83 39 64
        E 0 8a 40 64
        E 0 8f 2d 64
        E 0 92 4c 64
        E 0 93 39 5a
        E 0 9a 40 64
        E 0 9f 2d 5a
        E 0 82 4c 64
        E 0 83 39 64
        E 0 8a 40 64
        E 0 8f 2d 64
        E 0 92 50 64
        E 0 93 45 5a
        E 1 9a 44 64
        E 0 9f 39 5a
        E 0 82 50 64
        E 0 83 45 64
        E 0 8a 44 64
        E 0 8f 39 64
        E 0 92 50 64
        E 0 93 45 5a
        E 0 9a 44 64
        E 0 9f 39 5a
        E 0 82 50 64
        E 0 83 45 64
        E 0 8a 44 64
        E 0 8f 39 64
        E 0 92 51 64
        E 0 93 39 5a
        E 0 9a 45 64
        E 0 9f 2d 5a
        E 0 82 51 64
        E 0 83 39 64
        E 0 8f 2d 64
        E 0 92 49 64
        E 0 93 39 5a
        E 0 9f 2d 5a
        E 0 82 49 64
        E 0 83 39 64
        E 0 8a 45 64
        E 0 8f 2d 64
        E 0 92 4a 64
        E 0 93 45 5a
        E 0 9a 41 64
        E 0 9f 39 5a
        E 0 82 4a 64
        E 0 83 45 64
        E 0 8a 41 64
        E 0 8f 39 64
        E 0 92 4d 64
        E 0 93 45 5a
        E 0 9a 41 64
        E 0 9f 39 5a
        E 0 82 4d 64
        E 0 83 45 64
        E 0 8a 41 64
        E 0 8f 39 64
        E 0 92 4c 64
        E 0 93 39 5a
        E 0 9a 40 64
        E 0 9f 2d 5a
        E 0 82 4c 64
        E 0 83 39 64
        E 0 8a 40 64
        E 0 8f 2d 64
        E 0 92 4c 64
        E 0 93 39 5a
        E 0 9a 40 64
        E 0 9f 2d 5a
        E 0 82 4c 64
        E 0 83 39 64
        E 0 8a 40 64
        E 0 8f 2d 64
        E 0 92 50 64
        E 0 93 45 5a
        E 0 9a 44 64
        E 0 9f 39 5a
        E 0 82 50 64
        E 0 83 45 64
        E 0 8a 44 64
        E 0 8f 39 64
        E 0 92 50 64
        E 0 93 45 5a
        E 1 9a 44 64
        E 0 9f 39 5a
        E 0 82 50 64
        E 0 83 45 64
        E 0 8a 44 64
        E 0 8f 39 64
        E 0 92 51 64
        E 0 93 39 5a
        E 0 9a 45 64
        E 0 9f 2d 5a
        E 0 82 51 64
        E 0 83 39 64
        E 0 8f 2d 64
        E 0 92 49 64
        E 0 93 45 5a
        E 0 9f 39 5a
        E 0 83 45 64
        E 0 8f 39 64
        E 0 93 43 5a
        E 0 9f 37 5a
        E 0 82 49 64
        E 0 83 43 64
        E 0 8f 37 64
        E 0 92 4a 64
        E 0 93 42 5a
        E 0 9f 36 5a
        E 0 83 42 64
        E 0 8f 36 64
        E 0 93 40 5a
        E 0 9f 34 5a
        E 0 82 4a 64
        E 0 83 40 64
        E 0 8a 45 64
        E 0 8f 34 64
        E 0 92 45 64
        E 0 93 3e 5a
        E 0 9f 32 5a
        E 0 82 45 64
        E 0 92 43 64
        E 0 82 43 64
        E 0 83 3e 64
        E 0 8f 32 64
        E 0 92 42 64
        E 0 93 3e 5a
        E 0 9f 32 5a
        E 0 82 42 64
        E 0 92 40 64
        E 0 82 40 64
        E 0 83 3e 64
        E 0 8f 32 64
        E 0 92 3e 64
        E 0 93 40 5a
        E 0 9f 34 5a
        E 0 82 3e 64
        E 0 83 40 64
        E 0 8f 34 64
        E 0 92 48 64
        E 0 93 42 5a
        E 0 9a 45 64
        E 1 9f 36 5a
        E 0 82 48 64
        E 0 83 42 64
        E 0 8a 45 64
        E 0 8f 36 64
        E 0 92 48 64
        E 0 93 43 5a
        E 0 9a 3e 64
        E 0 9f 37 5a
        E 0 83 43 64
        E 0 8f 37 64
        E 0 93 42 5a
        E 0 9f 36 5a
        E 38403 82 48 64
        E 1 83 42 64
        E 0 8f 36 64
        E 0 92 47 64
        E 0 93 43 5a
        E 0 9f 37 5a
        E 0 82 47 64
        E 0 83 43 64
        E 0 8a 3e 64
        E 0 8f 37 64
        E 0 92 45 64
        E 0 93 37 5a
        E 0 9a 47 64
        E 0 9f 2b 5a
        E 0 82 45 64
        E 0 92 47 64
        E 0 82 47 64
        E 0 83 37 64
        E 0 8a 47 64
        E 0 8f 2b 64
        E 0 92 4a 64
        E 0 93 45 5a
        E 0 9a 40 64
        E 0 9f 39 5a
        E 0 83 45 64
        E 0 8f 39 64
        E 0 93 43 5a
        E 0 9f 37 5a
        E 0 82 4a 64
        E 0 83 43 64
        E 0 8f 37 64
        E 0 92 49 64
        E 0 93 45 5a
        E 0 9f 39 5a
        E 0 82 49 64
        E 0 83 45 64
        E 0 8a 40 64
        E 0 8f 39 64
        E 0 92 47 64
        E 0 93 39 5a
        E 0 9a 49 64
        E 0 9f 2d 5a
        E 0 82 47 64
        E 0 92 49 64
        E 0 82 49 64
        E 0 83 39 64
        E 0 8a 49 64
        E 0 8f 2d 64
        E 0 92 4c 64
        E 0 93 47 5a
        E 0 9a 42 64
        E 0 9f 3b 5a
        E 0 83 47 64
        E 0 8f 3b 64
        E 0 93 45 5a
        E 0 9f 39 5a
        E 0 82 4c 64
        E 0 83 45 64
        E 0 8f 39 64
        E 0 92 4a 64
        E 0 93 47 5a
        E 0 9f 3b 5a
        E 0 82 4a 64
        E 0 83 47 64
        E 0 8a 42 64
        E 0 8f 3b 64
        E 0 92 49 64
        E 1 93 3b 5a
        E 0 9a 4a 64
        E 0 9f 2f 5a
        E 0 82 49 64
        E 0 92 4a 64
        E 0 82 4a 64
        E 0 83 3b 64
        E 0 8a 4a 64
        E 0 8f 2f 64
        E 0 92 4e 64
        E 0 93 49 5a
        E 0 9a 43 64
        E 0 9f 3d 5a
        E 0 83 49 64
        E 0 8f 3d 64
        E 0 93 47 5a
        E 0 9f 3b 5a
        E 0 82 4e 64
        E 0 83 47 64
        E 0 8f 3b 64
        E 0 92 4c 64
        E 0 93 49 5a
        E 0 9f 3d 5a
        E 0 82 4c 64
        E 0 83 49 64
        E 0 8a 43 64
        E 0 8f 3d 64
        E 0 92 4a 64
        E 0 93 3d 5a
        E 0 9a 4c 64
        E 0 9f 31 5a
        E 0 82 4a 64
        E 0 92 4c 64
        E 0 82 4c 64
        E 0 83 3d 64
        E 0 8a 4c 64
        E 0 8f 31 64
        E 0 92 4f 64
        E 0 93 4a 5a
        E 0 9a 45 64
        E 0 9f 3e 5a
        E 0 83 4a 64
        E 0 8f 3e 64
        E 0 93 49 5a
        E 0 9f 3d 5a
        E 0 82 4f 64
        E 0 83 49 64
        E 0 8a 45 64
        E 0 8f 3d 64
        E 0 92 4e 64
        E 0 93 4a 5a
        E 1 9f 3e 5a
        E 0 82 4e 64
        E 0 83 4a 64
        E 0 8f 3e 64
        E 0 92 4c 64
        E 0 93 3e 5a
        E 0 9a 45 64
        E 0 9f 32 5a
        E 0 82 4c 64
        E 0 92 4e 64
        E 0 82 4e 64
        E 0 83 3e 64
        E 0 8a 45 64
        E 0 8f 32 64
        E 0 92 56 64
        E 0 93 3e 5a
        E 0 9a 4a 64
        E 0 9f 32 5a
        E 0 82 56 64
        E 0 83 3e 64
        E 0 8a 4a 64
        E 0 8f 32 64
        E 0 92 51 64
        E 0 93 40 5a
        E 0 9a 45 64
        E 0 9f 34 5a
        E 0 82 51 64
        E 0 83 40 64
        E 0 8a 45 64
        E 0 8f 34 64
        E 0 92 4e 64
        E 0 93 42 5a
        E 0 9a 42 64
        E 0 9f 36 5a
        E 0 82 4e 64
        E 0 83 42 64
        E 0 8a 42 64
        E 0 8f 36 64
        E 0 92 51 64
        E 0 93 40 5a
        E 0 9a 45 64
        E 0 9f 34 5a
        E 0 82 51 64
        E 0 83 40 64
        E 0 8a 45 64
        E 0 8f 34 64
        E 0 92 4a 64
        E 0 93 3e 5a
        E 0 9a 4a 64
        E 0 9f 32 5a
        E 0 82 4a 64
        E 0 92 45 64
        E 0 82 45 64
        E 0 83 3e 64
        E 0 8f 32 64
        E 0 92 3e 64
        E 0 93 40 5a
        E 0 9f 34 5a
        E 0 82 3e 64
        E 0 92 45 64
        E 0 82 45 64
        E 0 83 40 64
        E 0 8a 4a 64
        E 0 8f 34 64
        E 0 92 3e 64
        E 0 93 42 5a
        E 0 9f 36 5a
        E 0 82 3e 64
        E 0 92 45 64
        E 0 82 45 64
        E 0 83 42 64
        E 0 8f 36 64
        E 0 92 3e 64
        E 0 93 40 5a
        E 0 9a 45 64
        E 0 9f 34 5a
        E 0 82 3e 64
        E 0 92 45 64
        E 0 82 45 64
        E 0 83 40 64
        E 0 8a 45 64
        E 0 8f 34 64
        E 0 92 4a 64
        E 0 93 3e 5a
        E 0 9a 3e 64
        E 0 9f 32 5a
        E 0 82 4a 64
        E 0 92 45 64
        E 0 82 45 64
        E 0 83 3e 64
        E 0 8a 3e 64
        E 0 8f 32 64
        E 0 92 3e 64
        E 0 93 40 5a
        E 0 9a 40 64
        E 0 9f 34 5a
        E 0 82 3e 64
        E 0 8a 40 64
        E 0 92 45 64
        E 0 9a 42 64
        E 0 82 45 64
        E 0 83 40 64
        E 0 8a 42 64
        E 0 8f 34 64
        E 0 92 3e 64
        E 0 93 42 5a
        E 1 9a 43 64
        E 0 9f 36 5a
        E 0 82 3e 64
        E 0 8a 43 64
        E 0 92 45 64
        E 0 9a 45 64
        E 0 82 45 64
        E 0 83 42 64
        E 0 8a 45 64
        E 0 8f 36 64
        E 0 92 3e 64
        E 0 93 40 5a
        E 0 9a 47 64
        E 0 9f 34 5a
        E 0 82 3e 64
        E 0 8a 47 64
        E 0 92 45 64
        E 0 9a 49 64
        E 0 82 45 64
        E 0 83 40 64
        E 0 8a 49 64
        E 0 8f 34 64
        E 0 92 4e 64
        E 0 93 3e 5a
        E 0 9a 4a 64
        E 0 9f 32 5a
        E 0 82 4e 64
        E 0 83 3e 64
        E 0 8a 4a 64
        E 0 8f 32 64
        E 0 92 4c 64
        E 0 93 47 5a
        E 0 9a 3e 64
        E 0 9f 3b 5a
        E 0 82 4c 64
        E 0 92 4a 64
        E 0 82 4a 64
        E 0 83 47 64
        E 0 8a 3e 64
        E 0 8f 3b 64
        E 0 92 4c 64
        E 0 93 45 5a
        E 0 9a 40 64
        E 0 9f 39 5a
        E 0 83 45 64
        E 2 8f 39 64
        E 0 93 39 5a
        E 0 9f 2d 5a
        E 0 82 4c 64
        E 0 83 39 64
        E 0 8a 40 64
        E 0 8f 2d 64
        E 0 92 4a 64
        E 0 93 3e 5a
        E 0 9a 3e 64
        E 1 9f 32 5a
        E 0 82 4a 64
        E 0 92 45 64
        E 0 82 45 64
        E 0 83 3e 64
        E 0 8f 32 64
        E 0 92 3e 64
        E 0 93 40 5a
        E 0 9f 34 5a
        E 0 82 3e 64
        E 0 92 45 64
        E 0 82 45 64
        E 0 83 40 64
        E 0 8a 3e 64
        E 0 8f 34 64
        E 0 92 3e 64
        E 0 93 42 5a
        E 0 9f 36 5a
        E 0 82 3e 64
        E 0 92 45 64
        E 0 82 45 64
        E 0 83 42 64
        E 0 8f 36 64
        E 0 92 3e 64
        E 0 93 40 5a
        E 0 9a 45 64
        E 0 9f 34 5a
        E 0 82 3e 64
        E 0 92 45 64
        E 0 82 45 64
        E 0 83 40 64
        E 0 8a 45 64
        E 0 8f 34 64
        E 0 92 4a 64
        E 0 93 3e 5a
        E 0 9a 3e 64
        E 0 9f 32 5a
        E 0 82 4a 64
        E 0 92 45 64
        E 0 82 45 64
        E 0 83 3e 64
        E 0 8a 3e 64
        E 0 8f 32 64
        E 0 92 3e 64
        E 0 93 40 5a
        E 0 9a 40 64
        E 0 9f 34 5a
        E 0 82 3e 64
        E 0 8a 40 64
        E 0 92 45 64
        E 0 9a 42 64
        E 0 82 45 64
        E 0 83 40 64
        E 0 8a 42 64
        E 0 8f 34 64
        E 1 92 3e 64
        E 0 93 42 5a
        E 0 9a 43 64
        E 0 9f 36 5a
        E 0 82 3e 64
        E 0 8a 43 64
        E 0 92 45 64
        E 0 9a 45 64
        E 0 82 45 64
        E 0 83 42 64
        E 0 8a 45 64
        E 0 8f 36 64
        E 0 92 3e 64
        E 0 93 40 5a
        E 0 9a 47 64
        E 0 9f 34 5a
        E 0 82 3e 64
        E 0 8a 47 64
        E 0 92 45 64
        E 0 9a 49 64
        E 0 82 45 64
        E 0 83 40 64
        E 0 8a 49 64
        E 0 8f 34 64
        E 0 92 4e 64
        E 0 93 3e 5a
        E 0 9a 4a 64
        E 0 9f 32 5a
        E 0 82 4e 64
        E 0 83 3e 64
        E 0 8a 4a 64
        E 0 8f 32 64
        E 0 92 4c 64
        E 0 93 47 5a
        E 0 9a 3e 64
        E 0 9f 3b 5a
        E 0 82 4c 64
        E 0 92 4a 64
        E 0 82 4a 64
        E 0 83 47 64
        E 0 8a 3e 64
        E 0 8f 3b 64
        E 0 92 4c 64
        E 0 93 45 5a
        E 0 9a 40 64
        E 0 9f 39 5a
        E 0 83 45 64
        E 0 8f 39 64
        E 0 93 39 5a
        E 0 9f 2d 5a
        E 0 82 4c 64
        E 0 83 39 64
        E 0 8a 40 64
        E 0 8f 2d 64
        E 0 92 4a 64
        E 0 93 3e 5a
        E 0 9a 3e 64
        E 0 9f 32 5a
        E 0 82 4a 64
        E 0 83 3e 64
        E 0 8f 32 64
        E 0 92 49 64
        E 0 93 40 5a
        E 0 9f 34 5a
        E 0 82 49 64
        E 0 83 40 64
        E 0 8a 3e 64
        E 0 8f 34 64
        E 0 92 49 64
        E 0 93 42 5a
        E 0 9f 36 5a
        E 0 82 49 64
        E 0 83 42 64
        E 0 8f 36 64
        E 0 92 47 64
        E 1 93 3e 5a
        E 0 9f 32 5a
        E 0 82 47 64
        E 0 83 3e 64
        E 0 8f 32 64
        E 0 92 47 64
        E 0 93 43 5a
        E 0 9f 37 5a
        E 0 83 43 64
        E 0 8f 37 64
        E 0 93 45 5a
        E 0 9f 39 5a
        E 0 83 45 64
        E 0 8f 39 64
        E 0 93 43 5a
        E 0 9f 37 5a
        E 0 82 47 64
        E 0 83 43 64
        E 0 8f 37 64
        E 0 92 45 64
        E 0 93 42 5a
        E 0 9f 36 5a
        E 0 82 45 64
        E 0 83 42 64
        E 0 8f 36 64
        E 0 92 43 64
        E 0 93 40 5a
        E 0 9f 34 5a
        E 0 82 43 64
        E 1 83 40 64
        E 0 8f 34 64
        E 0 92 42 64
        E 0 93 3e 5a
        E 0 9f 32 5a
        E 0 82 42 64
        E 0 83 3e 64
        E 0 8f 32 64
        E 0 92 40 64
        E 0 93 3d 5a
        E 0 9f 31 5a
        E 0 82 40 64
        E 0 83 3d 64
        E 0 8f 31 64
        E 0 92 3e 64
        E 0 93 3b 5a
        E 0 9f 2f 5a
        E 0 82 3e 64
        E 0 83 3b 64
        E 0 8f 2f 64
        E 0 92 45 64
        E 0 93 39 5a
        E 0 9f 2d 5a
        E 0 83 39 64
        E 0 8f 2d 64
        E 0 93 45 5a
        E 0 9f 39 5a
        E 0 82 45 64
        E 0 83 45 64
        E 0 8f 39 64
        E 0 93 45 5a
        E 0 9f 39 5a
        E 0 83 45 64
        E 0 8f 39 64
        E 0 92 4d 64
        E 0 93 39 5a
        E 0 9f 2d 5a
        E 0 82 4d 64
        E 0 83 39 64
        E 0 8f 2d 64
        E 0 92 4d 64
        E 0 93 39 5a
        E 0 9f 2d 5a
        E 0 82 4d 64
        E 0 83 39 64
        E 0 8f 2d 64
        E 0 92 4c 64
        E 0 93 45 5a
        E 0 9f 39 5a
        E 0 82 4c 64
        E 0 83 45 64
        E 0 8f 39 64
        E 0 92 4c 64
        E 0 93 45 5a
        E 0 9f 39 5a
        E 0 82 4c 64
        E 0 83 45 64
        E 0 8f 39 64
        E 0 92 50 64
        E 0 93 39 5a
        E 0 9f 2d 5a
        E 0 82 50 64
        E 0 83 39 64
        E 0 8f 2d 64
        E 1 92 50 64
        E 0 93 39 5a
        E 0 9f 2d 5a
        E 0 82 50 64
        E 0 83 39 64
        E 0 8f 2d 64
        E 0 92 51 64
        E 0 93 45 5a
        E 0 9f 39 5a
        E 0 82 51 64
        E 0 83 45 64
        E 0 8f 39 64
        E 0 92 49 64
        E 0 93 45 5a
        E 0 9f 39 5a
        E 0 82 49 64
        E 0 83 45 64
        E 0 8f 39 64
        E 0 92 4a 64
        E 0 93 39 5a
        E 0 9f 2d 5a
        E 0 82 4a 64
        E 0 83 39 64
        E 0 8f 2d 64
        E 0 92 4d 64
        E 0 93 39 5a
        E 0 9f 2d 5a
        E 0 82 4d 64
        E 0 83 39 64
        E 0 8f 2d 64
        E 0 92 4c 64
        E 0 93 45 5a
        E 0 9f 39 5a
        E 0 82 4c 64
        E 0 83 45 64
        E 0 8f 39 64
        E 0 92 4c 64
        E 0 93 45 5a
        E 0 9f 39 5a
        E 0 82 4c 64
        E 0 83 45 64
        E 0 8f 39 64
        E 0 92 50 64
        E 0 93 39 5a
        E 0 9f 2d 5a
        E 0 82 50 64
        E 0 83 39 64
        E 0 8f 2d 64
        E 0 92 50 64
        E 0 93 39 5a
        E 0 9f 2d 5a
        E 0 82 50 64
        E 1 83 39 64
        E 0 8f 2d 64
        E 0 92 51 64
        E 0 93 45 5a
        E 0 9f 39 5a
        E 0 82 51 64
        E 0 83 45 64
        E 0 8f 39 64
        E 0 92 49 64
        E 0 93 45 5a
        E 0 9f 39 5a
        E 0 82 49 64
        E 0 83 45 64
        E 0 8f 39 64
        E 0 92 4a 64
        E 0 93 39 5a
        E 0 9f 2d 5a
        E 0 82 4a 64
        E 0 83 39 64
        E 0 8f 2d 64
        E 0 92 4c 64
        E 0 93 39 5a
        E 0 9f 2d 5a
        E 0 82 4c 64
        E 0 92 4a 64
        E 0 82 4a 64
        E 0 83 39 64
        E 0 8f 2d 64
        E 0 92 49 64
        E 0 93 45 5a
        E 0 9f 39 5a
        E 38403 82 49 64
        E 0 92 47 64
        E 0 82 47 64
        E 0 83 45 64
        E 0 8f 39 64
        E 0 92 45 64
        E 0 93 45 5a
        E 0 9f 39 5a
        E 0 82 45 64
        E 0 83 45 64
        E 0 8f 39 64
        E 0 92 55 64
        E 0 93 39 5a
        E 0 9f 2d 5a
        E 0 82 55 64
        E 0 83 39 64
        E 0 8f 2d 64
        E 0 92 56 64
        E 0 93 3e 5a
        E 1 9f 32 5a
        E 0 82 56 64
        E 0 83 3e 64
        E 0 8f 32 64
        E 0 92 55 64
        E 0 93 43 5a
        E 0 9f 37 5a
        E 0 82 55 64
        E 0 92 53 64
        E 0 82 53 64
        E 0 83 43 64
        E 0 8f 37 64
        E 0 92 51 64
        E 0 93 3d 5a
        E 0 9f 31 5a
        E 0 82 51 64
        E 0 92 4f 64
        E 0 82 4f 64
        E 0 83 3d 64
        E 0 8f 31 64
        E 0 92 4e 64
        E 0 93 39 5a
        E 0 9f 2d 5a
        E 0 82 4e 64
        E 0 92 4c 64
        E 0 82 4c 64
        E 0 83 39 64
        E 0 8f 2d 64
        E 0 92 4a 64
        E 0 93 3e 5a
        E 0 9f 32 5a
        E 0 82 4a 64
        E 0 92 45 64
        E 0 82 45 64
        E 0 83 3e 64
        E 0 8f 32 64
        E 0 92 3e 64
        E 0 93 40 5a
        E 0 9f 34 5a
        E 0 82 3e 64
        E 0 92 45 64
        E 0 82 45 64
        E 0 83 40 64
        E 0 8f 34 64
        E 0 92 3e 64
        E 0 93 42 5a
        E 0 9f 36 5a
        E 0 82 3e 64
        E 0 92 45 64
        E 0 82 45 64
        E 0 83 42 64
        E 0 8f 36 64
        E 0 92 3e 64
        E 0 93 40 5a
        E 0 9f 34 5a
        E 0 82 3e 64
        E 0 92 45 64
        E 0 82 45 64
        E 0 83 40 64
        E 0 8f 34 64
        E 0 92 4a 64
        E 0 93 3e 5a
        E 0 9f 32 5a
        E 0 82 4a 64
        E 0 92 45 64
        E 0 82 45 64
        E 0 83 3e 64
        E 0 8f 32 64
        E 0 92 3e 64
        E 0 93 40 5a
        E 0 9f 34 5a
        E 0 82 3e 64
        E 0 92 45 64
        E 0 82 45 64
        E 0 83 40 64
        E 0 8f 34 64
        E 0 92 3e 64
        E 0 93 42 5a
        E 0 9f 36 5a
        E 0 82 3e 64
        E 0 92 45 64
        E 0 82 45 64
        E 0 83 42 64
        E 0 8f 36 64
        E 0 92 3e 64
        E 1 93 40 5a
        E 0 9f 34 5a
        E 0 82 3e 64
        E 0 92 45 64
        E 0 82 45 64
        E 0 83 40 64
        E 0 8f 34 64
        E 0 92 4e 64
        E 0 93 3e 5a
        E 0 9f 32 5a
        E 0 82 4e 64
        E 0 83 3e 64
        E 0 8f 32 64
        E 0 92 4c 64
        E 0 93 47 5a
        E 0 9f 3b 5a
        E 0 82 4c 64
        E 0 92 4a 64
        E 1 82 4a 64
        E 0 83 47 64
        E 0 8f 3b 64
        E 0 92 4c 64
        E 0 93 45 5a
        E 0 9f 39 5a
        E 0 83 45 64
        E 0 8f 39 64
        E 0 93 39 5a
        E 0 9f 2d 5a
        E 0 82 4c 64
        E 0 83 39 64
        E 0 8f 2d 64
        E 0 92 4a 64
        E 0 93 3e 5a
        E 0 9f 32 5a
        E 0 82 4a 64
        E 0 83 3e 64
        E 0 8f 32 64
        E 0 92 4e 64
        E 0 93 3b 5a
        E 0 9a 42 64
        E 0 9f 2f 5a
        E 0 82 4e 64
        E 0 83 3b 64
        E 0 8a 42 64
        E 0 8f 2f 64
        E 0 92 4e 64
        E 0 93 3b 5a
        E 0 9a 42 64
        E 0 9f 2f 5a
        E 0 82 4e 64
        E 0 83 3b 64
        E 0 8a 42 64
        E 0 8f 2f 64
        E 0 92 4c 64
        E 0 93 3d 5a
        E 0 9a 40 64
        E 0 9f 31 5a
        E 0 82 4c 64
        E 0 83 3d 64
        E 0 8a 40 64
        E 0 8f 31 64
        E 0 92 4a 64
        E 0 93 3e 5a
        E 0 9a 3e 64
        E 0 9f 32 5a
        E 0 82 4a 64
        E 0 83 3e 64
        E 0 8a 3e 64
        E 0 8f 32 64
        E 0 92 56 64
        E 0 93 3b 5a
        E 0 9a 4a 64
        E 0 9f 2f 5a
        E 0 82 56 64
        E 0 83 3b 64
        E 0 8a 4a 64
        E 0 8f 2f 64
        E 0 92 56 64
        E 0 93 42 5a
        E 0 9a 4a 64
        E 0 9f 36 5a
        E 0 82 56 64
        E 0 83 42 64
        E 0 8a 4a 64
        E 0 8f 36 64
        E 0 92 55 64
        E 0 93 40 5a
        E 0 9a 49 64
        E 0 9f 34 5a
        E 0 82 55 64
        E 0 83 40 64
        E 0 8a 49 64
        E 0 8f 34 64
        E 0 92 55 64
        E 0 93 42 5a
        E 0 9a 49 64
        E 0 9f 36 5a
        E 0 82 55 64
        E 0 83 42 64
        E 0 8a 49 64
        E 0 8f 36 64
        E 0 92 53 64
        E 0 93 36 5a
        E 0 9a 47 64
        E 0 9f 2a 5a
        E 0 82 53 64
        E 1 83 36 64
        E 0 8a 47 64
        E 0 8f 2a 64
        E 0 92 53 64
        E 0 93 3b 5a
        E 0 9a 47 64
        E 0 9f 2f 5a
        E 0 83 3b 64
        E 0 8f 2f 64
        E 0 93 3d 5a
        E 0 9f 31 5a
        E 0 83 3d 64
        E 0 8f 31 64
        E 0 93 3e 5a
        E 0 9f 32 5a
        E 0 82 53 64
        E 0 83 3e 64
        E 0 8a 47 64
        E 0 8f 32 64
        E 0 92 4f 64
        E 0 93 40 5a
        E 0 9a 43 64
        E 0 9f 34 5a
        E 0 82 4f 64
        E 0 83 40 64
        E 0 8a 43 64
        E 0 8f 34 64
        E 0 92 4f 64
        E 0 93 3a 5a
        E 0 9a 43 64
        E 0 9f 2e 5a
        E 0 82 4f 64
        E 0 83 3a 64
        E 0 8a 43 64
        E 0 8f 2e 64
        E 0 92 4e 64
        E 0 93 42 5a
        E 0 9a 42 64
        E 0 9f 36 5a
        E 0 82 4e 64
        E 0 83 42 64
        E 0 8a 42 64
        E 0 8f 36 64
        E 0 92 4e 64
        E 0 93 44 5a
        E 0 9a 42 64
        E 0 9f 38 5a
        E 0 82 4e 64
        E 0 83 44 64
        E 0 8a 42 64
        E 0 8f 38 64
        E 0 92 4c 64
        E 0 93 46 5a
        E 0 9a 40 64
        E 0 9f 3a 5a
        E 0 82 4c 64
        E 0 83 46 64
        E 0 8a 40 64
        E 0 8f 3a 64
        E 0 92 4c 64
        E 0 93 47 5a
        E 0 9a 40 64
        E 0 9f 3b 5a
        E 0 82 4c 64
        E 0 83 47 64
        E 0 8a 40 64
        E 0 8f 3b 64
        E 0 92 4a 64
        E 0 93 46 5a
        E 0 9a 3e 64
        E 0 9f 3a 5a
        E 0 82 4a 64
        E 0 83 46 64
        E 0 8a 3e 64
        E 0 8f 3a 64
        E 0 93 47 5a
        E 0 9f 3b 5a
        E 0 83 47 64
        E 0 8f 3b 64
        E 0 92 4e 64
        E 0 93 3b 5a
        E 0 9a 42 64
        E 0 9f 2f 5a
        E 0 82 4e 64
        E 0 83 3b 64
        E 0 8a 42 64
        E 0 8f 2f 64
        E 0 92 4f 64
        E 0 93 40 5a
        E 0 9a 43 64
        E 0 9f 34 5a
        E 0 82 4f 64
        E 0 8a 43 64
        E 0 92 4e 64
        E 0 9a 42 64
        E 0 82 4e 64
        E 0 83 40 64
        E 0 8a 42 64
        E 0 8f 34 64
        E 0 92 4c 64
        E 0 93 42 5a
        E 0 9a 40 64
        E 0 9f 36 5a
        E 0 82 4c 64
        E 0 83 42 64
        E 0 8a 40 64
        E 0 8f 36 64
        E 1 93 43 5a
        E 0 9f 37 5a
        E 0 83 43 64
        E 0 8f 37 64
        E 0 92 53 64
        E 0 93 40 5a
        E 0 9a 47 64
        E 0 9f 34 5a
        E 0 82 53 64
        E 0 83 40 64
        E 0 8a 47 64
        E 0 8f 34 64
        E 0 92 51 64
        E 0 93 42 5a
        E 0 9a 45 64
        E 0 9f 36 5a
        E 0 83 42 64
        E 0 8f 36 64
        E 0 93 3e 5a
        E 0 9f 32 5a
        E 0 82 51 64
        E 0 83 3e 64
        E 0 8a 45 64
        E 0 8f 32 64
        E 0 92 4f 64
        E 0 93 40 5a
        E 0 9a 43 64
        E 0 9f 34 5a
        E 0 83 40 64
        E 0 8f 34 64
        E 0 93 3d 5a
        E 0 9f 31 5a
        E 0 82 4f 64
        E 0 83 3d 64
        E 0 8a 43 64
        E 0 8f 31 64
        E 0 92 4e 64
        E 0 93 3e 5a
        E 0 9a 42 64
        E 0 9f 32 5a
        E 0 83 3e 64
        E 0 8f 32 64
        E 0 93 47 5a
        E 0 9f 3b 5a
        E 0 82 4e 64
        E 0 83 47 64
        E 0 8a 42 64
        E 0 8f 3b 64
        E 0 93 4a 5a
        E 0 9f 3e 5a
        E 0 83 4a 64
        E 0 8f 3e 64
        E 0 92 56 64
        E 0 93 47 5a
        E 0 9a 4a 64
        E 0 9f 3b 5a
        E 0 82 56 64
        E 0 83 47 64
        E 0 8a 4a 64
        E 0 8f 3b 64
        E 0 92 55 64
        E 0 93 41 59
        E 0 9a 49 64
        E 0 9f 35 59
        E 1 83 41 63
        E 0 8f 35 63
        E 0 93 42 5a
        E 0 9f 36 5a
        E 0 82 55 64
        E 0 83 42 64
        E 0 8a 49 64
        E 0 8f 36 64
        E 0 92 53 64
        E 0 93 44 5a
        E 0 9a 47 64
        E 0 9f 38 5a
        E 0 83 44 64
        E 0 8f 38 64
        E 0 93 41 59
        E 0 9f 35 59
        E 0 82 53 64
        E 0 83 41 63
        E 0 8a 47 64
        E 0 8f 35 63
        E 0 92 52 64
        E 0 93 42 5a
        E 0 9a 46 64
        E 0 9f 36 5a
        E 0 83 42 64
        E 0 8f 36 64
        E 0 93 40 5a
        E 0 9f 34 5a
        E 0 82 52 64
        E 0 83 40 64
        E 0 8a 46 64
        E 0 8f 34 64
        E 0 93 3e 5a
        E 0 9f 32 5a
        E 0 83 3e 64
        E 0 8f 32 64
        E 0 92 4e 64
        E 0 93 3b 5a
        E 0 9a 42 64
        E 0 9f 2f 5a
        E 0 82 4e 64
        E 0 83 3b 64
        E 0 8a 42 64
        E 0 8f 2f 64
        E 0 92 51 64
        E 0 93 40 5a
        E 0 9a 45 64
        E 0 9f 34 5a
        E 0 83 40 64
        E 0 8f 34 64
        E 0 93 3e 5a
        E 0 9f 32 5a
        E 0 82 51 64
        E 0 83 3e 64
        E 0 8a 45 64
        E 0 8f 32 64
        E 0 92 4f 64
        E 0 93 40 5a
        E 0 9a 43 64
        E 0 9f 34 5a
        E 0 82 4f 64
        E 0 83 40 64
        E 0 8a 43 64
        E 0 8f 34 64
        E 0 92 4e 64
        E 0 93 34 5a
        E 0 9a 42 64
        E 0 9f 28 5a
        E 0 82 4e 64
        E 0 8a 42 64
        E 0 92 4c 64
        E 0 9a 40 64
        E 0 82 4c 64
        E 0 83 34 64
        E 0 8a 40 64
        E 0 8f 28 64
        E 0 92 53 64
        E 0 93 42 5a
        E 0 9a 47 64
        E 0 9f 36 5a
        E 0 83 42 64
        E 0 8f 36 64
        E 0 93 43 5a
        E 0 9f 37 5a
        E 0 82 53 64
        E 0 83 43 64
        E 0 8a 47 64
        E 0 8f 37 64
        E 0 92 52 64
        E 0 93 42 5a
        E 0 9a 46 64
        E 0 9f 36 5a
        E 0 82 52 64
        E 0 83 42 64
        E 0 8a 46 64
        E 0 8f 36 64
        E 0 92 50 64
        E 0 93 40 5a
        E 0 9a 44 64
        E 0 9f 34 5a
        E 0 82 50 64
        E 0 8a 44 64
        E 1 92 4e 64
        E 0 9a 42 64
        E 0 82 4e 64
        E 0 83 40 64
        E 0 8a 42 64
        E 0 8f 34 64
        E 0 92 53 64
        E 0 93 3e 5a
        E 0 9a 47 64
        E 0 9f 32 5a
        E 0 83 3e 64
        E 0 8f 32 64
        E 0 93 40 5a
        E 0 9f 34 5a
        E 0 82 53 64
        E 0 83 40 64
        E 0 8a 47 64
        E 0 8f 34 64
        E 0 93 3e 5a
        E 0 9f 32 5a
        E 0 83 3e 64
        E 0 8f 32 64
        E 0 92 47 64
        E 0 93 3d 5a
        E 0 9a 42 64
        E 0 9f 31 5a
        E 0 82 47 64
        E 0 83 3d 64
        E 0 8a 42 64
        E 0 8f 31 64
        E 0 92 47 64
        E 0 93 3b 5a
        E 0 9a 4a 64
        E 0 9f 2f 5a
        E 0 82 47 64
        E 0 92 42 64
        E 0 82 42 64
        E 0 83 3b 64
        E 0 8a 4a 64
        E 0 8f 2f 64
        E 0 92 3e 64
        E 0 93 3d 5a
        E 0 9a 49 64
        E 0 9f 31 5a
        E 0 82 3e 64
        E 0 92 42 64
        E 0 82 42 64
        E 0 83 3d 64
        E 0 8a 49 64
        E 0 8f 31 64
        E 0 92 3e 64
        E 0 93 3e 5a
        E 0 9a 47 64
        E 0 9f 32 5a
        E 0 82 3e 64
        E 0 92 42 64
        E 0 82 42 64
        E 0 83 3e 64
        E 0 8a 47 64
        E 0 8f 32 64
        E 0 92 3e 64
        E 0 93 3d 5a
        E 0 9a 42 64
        E 0 9f 31 5a
        E 0 82 3e 64
        E 0 92 42 64
        E 0 82 42 64
        E 0 83 3d 64
        E 0 8a 42 64
        E 0 8f 31 64
        E 0 92 47 64
        E 0 93 3b 5a
        E 0 9a 47 64
        E 0 9f 2f 5a
        E 38403 82 47 64
        E 0 8a 47 64
        E 0 92 42 64
        E 0 9a 49 64
        E 0 82 42 64
        E 0 83 3b 64
        E 0 8a 49 64
        E 0 8f 2f 64
        E 0 92 3e 64
        E 0 93 3d 5a
        E 1 9a 47 64
        E 0 9f 31 5a
        E 0 82 3e 64
        E 0 8a 47 64
        E 0 92 42 64
        E 0 9a 49 64
        E 0 82 42 64
        E 0 83 3d 64
        E 0 8a 49 64
        E 0 8f 31 64
        E 0 92 3e 64
        E 0 93 3e 5a
        E 0 9a 47 64
        E 0 9f 32 5a
        E 0 82 3e 64
        E 0 8a 47 64
        E 0 92 42 64
        E 0 9a 49 64
        E 0 82 42 64
        E 0 83 3e 64
        E 0 8a 49 64
        E 0 8f 32 64
        E 0 92 3e 64
        E 0 93 3d 5a
        E 0 9a 47 64
        E 0 9f 31 5a
        E 0 82 3e 64
        E 0 8a 47 64
        E 0 92 42 64
        E 0 9a 49 64
        E 0 82 42 64
        E 0 83 3d 64
        E 0 8a 49 64
        E 0 8f 31 64
        E 0 92 53 64
        E 0 93 3b 5a
        E 0 9a 4a 64
        E 0 9f 2f 5a
        E 0 82 53 64
        E 0 83 3b 64
        E 0 8a 4a 64
        E 0 8f 2f 64
        E 0 92 47 64
        E 0 93 43 5a
        E 0 9a 47 64
        E 0 9f 37 5a
        E 0 82 47 64
        E 0 92 49 64
        E 0 82 49 64
        E 0 83 43 64
        E 0 8a 47 64
        E 0 8f 37 64
        E 0 92 49 64
        E 0 93 42 5a
        E 1 9a 49 64
        E 0 9f 36 5a
        E 0 83 42 64
        E 0 8f 36 64
        E 0 93 36 5a
        E 0 9f 2a 5a
        E 0 82 49 64
        E 0 83 36 64
        E 0 8a 49 64
        E 0 8f 2a 64
        E 0 92 47 64
        E 0 93 3b 5a
        E 0 9a 47 64
        E 0 9f 2f 5a
        E 0 82 47 64
        E 0 92 42 64
        E 0 82 42 64
        E 0 83 3b 64
        E 0 8f 2f 64
        E 0 92 3e 64
        E 0 93 3d 5a
        E 0 9f 31 5a
        E 0 82 3e 64
        E 0 92 42 64
        E 0 82 42 64
        E 0 83 3d 64
        E 0 8a 47 64
        E 0 8f 31 64
        E 0 92 3e 64
        E 0 93 3e 5a
        E 0 9f 32 5a
        E 0 82 3e 64
        E 0 92 42 64
        E 0 82 42 64
        E 0 83 3e 64
        E 0 8f 32 64
        E 1 92 3e 64
        E 0 93 3d 5a
        E 0 9a 42 64
        E 0 9f 31 5a
        E 0 82 3e 64
        E 0 92 42 64
        E 0 82 42 64
        E 0 83 3d 64
        E 0 8a 42 64
        E 0 8f 31 64
        E 0 92 47 64
        E 0 93 3b 5a
        E 0 9a 47 64
        E 0 9f 2f 5a
        E 0 82 47 64
        E 0 8a 47 64
        E 0 92 42 64
        E 0 9a 49 64
        E 0 82 42 64
        E 0 83 3b 64
        E 0 8a 49 64
        E 0 8f 2f 64
        E 0 92 3e 64
        E 0 93 3d 5a
        E 0 9a 47 64
        E 0 9f 31 5a
        E 0 82 3e 64
        E 0 8a 47 64
        E 0 92 42 64
        E 0 9a 49 64
        E 0 82 42 64
        E 0 83 3d 64
        E 0 8a 49 64
        E 0 8f 31 64
        E 0 92 3e 64
        E 0 93 3e 5a
        E 0 9a 47 64
        E 0 9f 32 5a
        E 0 82 3e 64
        E 0 8a 47 64
        E 0 92 42 64
        E 0 9a 49 64
        E 0 82 42 64
        E 0 83 3e 64
        E 0 8a 49 64
        E 0 8f 32 64
        E 0 92 3e 64
        E 0 93 3d 5a
        E 0 9a 47 64
        E 0 9f 31 5a
        E 0 82 3e 64
        E 0 8a 47 64
        E 0 92 42 64
        E 0 9a 49 64
        E 0 82 42 64
        E 0 83 3d 64
        E 0 8a 49 64
        E 0 8f 31 64
        E 0 92 53 64
        E 0 93 3b 5a
        E 0 9a 4a 64
        E 0 9f 2f 5a
        E 0 82 53 64
        E 0 83 3b 64
        E 0 8a 4a 64
        E 0 8f 2f 64
        E 0 92 47 64
        E 0 93 43 5a
        E 0 9a 47 64
        E 0 9f 37 5a
        E 0 82 47 64
        E 0 92 49 64
        E 0 82 49 64
        E 0 83 43 64
        E 0 8a 47 64
        E 0 8f 37 64
        E 0 92 49 64
        E 0 93 42 5a
        E 0 9a 49 64
        E 0 9f 36 5a
        E 0 83 42 64
        E 0 8f 36 64
        E 0 93 36 5a
        E 0 9f 2a 5a
        E 0 82 49 64
        E 0 83 36 64
        E 0 8a 49 64
        E 0 8f 2a 64
        E 0 92 47 64
        E 0 93 3b 5a
        E 0 9a 47 64
        E 0 9f 2f 5a
        E 0 82 47 64
        E 0 83 3b 64
        E 0 8f 2f 64
        E 0 92 53 64
        E 0 93 3d 5a
        E 0 9f 31 5a
        E 0 82 53 64
        E 0 83 3d 64
        E 0 8a 47 64
        E 0 8f 31 64
        E 0 92 53 64
        E 0 93 3e 5a
        E 0 9f 32 5a
        E 0 82 53 64
        E 0 83 3e 64
        E 0 8f 32 64
        E 0 92 51 64
        E 0 93 3d 5a
        E 0 9a 45 64
        E 0 9f 31 5a
        E 0 82 51 64
        E 0 83 3d 64
        E 0 8a 45 64
        E 0 8f 31 64
        E 1 92 51 64
        E 0 93 3c 59
        E 0 9a 45 64
        E 0 9f 30 59
        E 0 82 51 64
        E 0 83 3c 63
        E 0 8a 45 64
        E 0 8f 30 63
        E 0 92 50 64
        E 0 93 3a 5a
        E 0 9a 44 64
        E 0 9f 2e 5a
        E 0 82 50 64
        E 0 83 3a 64
        E 0 8a 44 64
        E 0 8f 2e 64
        E 0 92 50 64
        E 0 93 3c 59
        E 0 9a 44 64
        E 0 9f 30 59
        E 0 82 50 64
        E 0 83 3c 63
        E 0 8a 44 64
        E 0 8f 30 63
        E 0 92 4e 64
        E 0 93 38 5a
        E 0 9a 42 64
        E 0 9f 2c 5a
        E 0 82 4e 64
        E 0 83 38 64
        E 0 8a 42 64
        E 0 8f 2c 64
        E 0 92 4e 64
        E 0 93 3d 5a
        E 0 9a 42 64
        E 0 9f 31 5a
        E 0 82 4e 64
        E 0 83 3d 64
        E 0 8a 42 64
        E 0 8f 31 64
        E 0 92 4d 63
        E 0 93 3b 5a
        E 0 9a 41 63
        E 0 9f 2f 5a
        E 0 82 4d 63
        E 0 83 3b 64
        E 0 8a 41 63
        E 0 8f 2f 64
        E 0 92 4d 63
        E 0 93 3d 5a
        E 0 9f 31 5a
        E 1 82 4d 63
        E 0 83 3d 64
        E 0 8f 31 64
        E 0 92 49 64
        E 0 93 31 5a
        E 0 9a 49 64
        E 0 9f 25 5a
        E 0 82 49 64
        E 0 83 31 64
        E 0 8a 49 64
        E 0 8f 25 64
        E 0 92 49 64
        E 0 93 41 59
        E 0 9a 49 64
        E 0 9f 35 59
        E 0 82 49 64
        E 0 83 41 63
        E 0 8a 49 64
        E 0 8f 35 63
        E 0 92 47 64
        E 0 93 3f 5a
        E 0 9a 47 64
        E 0 9f 33 5a
        E 0 82 47 64
        E 0 83 3f 64
        E 0 8a 47 64
        E 0 8f 33 64
        E 0 92 47 64
        E 0 93 41 59
        E 0 9a 47 64
        E 0 9f 35 59
        E 0 82 47 64
        E 0 83 41 63
        E 0 8a 47 64
        E 0 8f 35 63
        E 0 92 45 64
        E 0 93 3d 5a
        E 0 9a 45 64
        E 0 9f 31 5a
        E 0 82 45 64
        E 0 83 3d 64
        E 0 8a 45 64
        E 0 8f 31 64
        E 0 92 45 64
        E 0 93 42 5a
        E 0 9a 45 64
        E 0 9f 36 5a
        E 0 82 45 64
        E 0 83 42 64
        E 0 8f 36 64
        E 0 92 42 64
        E 1 93 44 5a
        E 0 9f 38 5a
        E 0 82 42 64
        E 0 83 44 64
        E 0 8a 45 64
        E 0 8f 38 64
        E 0 92 42 64
        E 0 93 45 5a
        E 0 9f 39 5a
        E 0 82 42 64
        E 0 83 45 64
        E 0 8f 39 64
        E 0 92 4e 64
        E 0 93 44 5a
        E 0 9a 3d 64
        E 0 9f 38 5a
        E 0 82 4e 64
        E 0 83 44 64
        E 0 8a 3d 64
        E 0 8f 38 64
        E 0 92 4e 64
        E 0 93 42 5a
        E 0 9a 45 64
        E 0 9f 36 5a
        E 0 82 4e 64
        E 0 92 49 64
        E 0 82 49 64
        E 0 83 42 64
        E 0 8a 45 64
        E 0 8f 36 64
        E 0 92 45 64
        E 0 93 44 5a
        E 0 9a 44 64
        E 0 9f 38 5a
        E 0 82 45 64
        E 0 92 49 64
        E 0 82 49 64
        E 0 83 44 64
        E 0 8a 44 64
        E 0 8f 38 64
        E 0 92 45 64
        E 0 93 45 5a
        E 0 9a 42 64
        E 0 9f 39 5a
        E 0 82 45 64
        E 0 92 49 64
        E 0 82 49 64
        E 0 83 45 64
        E 0 8a 42 64
        E 0 8f 39 64
        E 0 92 45 64
        E 0 93 44 5a
        E 0 9a 3d 64
        E 0 9f 38 5a
        E 0 82 45 64
        E 0 92 49 64
        E 0 82 49 64
        E 0 83 44 64
        E 0 8a 3d 64
        E 0 8f 38 64
        E 0 92 4e 64
        E 0 93 42 5a
        E 0 9a 42 64
        E 0 9f 36 5a
        E 0 82 4e 64
        E 0 8a 42 64
        E 0 92 49 64
        E 0 9a 44 64
        E 0 82 49 64
        E 0 83 42 64
        E 0 8a 44 64
        E 0 8f 36 64
        E 0 92 45 64
        E 0 93 44 5a
        E 1 9a 42 64
        E 0 9f 38 5a
        E 0 82 45 64
        E 0 8a 42 64
        E 0 92 49 64
        E 0 9a 44 64
        E 0 82 49 64
        E 0 83 44 64
        E 0 8a 44 64
        E 0 8f 38 64
        E 0 92 45 64
        E 0 93 45 5a
        E 0 9a 42 64
        E 0 9f 39 5a
        E 0 82 45 64
        E 0 8a 42 64
        E 0 92 49 64
        E 0 9a 44 64
        E 0 82 49 64
        E 0 83 45 64
        E 0 8a 44 64
        E 0 8f 39 64
        E 0 92 45 64
        E 0 93 44 5a
        E 0 9a 42 64
        E 0 9f 38 5a
        E 0 82 45 64
        E 0 8a 42 64
        E 0 92 49 64
        E 0 9a 44 64
        E 0 82 49 64
        E 0 83 44 64
        E 0 8a 44 64
        E 0 8f 38 64
        E 0 92 51 64
        E 0 93 42 5a
        E 0 9a 45 64
        E 0 9f 36 5a
        E 0 82 51 64
        E 0 83 42 64
        E 0 8a 45 64
        E 0 8f 36 64
        E 0 92 50 64
        E 0 93 4a 5a
        E 0 9a 44 64
        E 0 9f 3e 5a
        E 0 82 50 64
        E 0 8a 44 64
        E 0 92 4e 64
        E 0 9a 42 64
        E 0 82 4e 64
        E 0 83 4a 64
        E 0 8a 42 64
        E 0 8f 3e 64
        E 0 92 50 64
        E 0 93 49 5a
        E 0 9a 44 64
        E 0 9f 3d 5a
        E 0 83 49 64
        E 0 8f 3d 64
        E 0 93 3d 5a
        E 0 9f 31 5a
        E 0 82 50 64
        E 0 83 3d 64
        E 0 8a 44 64
        E 0 8f 31 64
        E 0 92 4e 64
        E 0 93 42 5a
        E 0 9a 42 64
        E 1 9f 36 5a
        E 0 82 4e 64
        E 0 92 49 64
        E 0 82 49 64
        E 0 83 42 64
        E 0 8f 36 64
        E 0 92 45 64
        E 0 93 44 5a
        E 0 9f 38 5a
        E 0 82 45 64
        E 0 92 49 64
        E 0 82 49 64
        E 0 83 44 64
        E 0 8a 42 64
        E 0 8f 38 64
        E 0 92 45 64
        E 0 93 45 5a
        E 0 9f 39 5a
        E 0 82 45 64
        E 0 92 49 64
        E 0 82 49 64
        E 0 83 45 64
        E 0 8f 39 64
        E 0 92 45 64
        E 0 93 44 5a
        E 0 9a 3d 64
        E 0 9f 38 5a
        E 0 82 45 64
        E 0 92 49 64
        E 0 82 49 64
        E 0 83 44 64
        E 0 8a 3d 64
        E 0 8f 38 64
        E 0 92 4e 64
        E 0 93 42 5a
        E 0 9a 42 64
        E 0 9f 36 5a
        E 0 82 4e 64
        E 0 8a 42 64
        E 0 92 49 64
        E 0 9a 44 64
        E 0 82 49 64
        E 0 83 42 64
        E 0 8a 44 64
        E 0 8f 36 64
        E 0 92 45 64
        E 0 93 44 5a
        E 0 9a 42 64
        E 0 9f 38 5a
        E 0 82 45 64
        E 0 8a 42 64
        E 1 92 49 64
        E 0 9a 44 64
        E 0 82 49 64
        E 0 83 44 64
        E 0 8a 44 64
        E 0 8f 38 64
        E 0 92 45 64
        E 0 93 45 5a
        E 0 9a 42 64
        E 0 9f 39 5a
        E 0 82 45 64
        E 0 8a 42 64
        E 0 92 49 64
        E 0 9a 44 64
        E 0 82 49 64
        E 0 83 45 64
        E 0 8a 44 64
        E 0 8f 39 64
        E 0 92 45 64
        E 0 93 44 5a
        E 0 9a 42 64
        E 0 9f 38 5a
        E 0 82 45 64
        E 0 8a 42 64
        E 0 92 49 64
        E 0 9a 44 64
        E 0 82 49 64
        E 0 83 44 64
        E 0 8a 44 64
        E 0 8f 38 64
        E 0 92 51 64
        E 0 93 42 5a
        E 0 9a 45 64
        E 0 9f 36 5a
        E 0 82 51 64
        E 0 83 42 64
        E 0 8a 45 64
        E 0 8f 36 64
        E 0 92 50 64
        E 0 93 4a 5a
        E 0 9a 44 64
        E 0 9f 3e 5a
        E 0 82 50 64
        E 0 8a 44 64
        E 0 92 4e 64
        E 0 9a 42 64
        E 0 82 4e 64
        E 0 83 4a 64
        E 0 8a 42 64
        E 0 8f 3e 64
        E 0 92 50 64
        E 0 93 49 5a
        E 0 9a 44 64
        E 0 9f 3d 5a
        E 0 83 49 64
        E 0 8f 3d 64
        E 0 93 3d 5a
        E 0 9f 31 5a
        E 0 82 50 64
        E 0 83 3d 64
        E 0 8a 44 64
        E 0 8f 31 64
        E 0 92 4e 64
        E 0 93 36 5a
        E 0 9a 42 64
        E 0 9f 2a 5a
        E 0 82 4e 64
        E 0 83 36 64
        E 0 8a 42 64
        E 0 8f 2a 64
        E 0 97 46 66
        E 0 9e 46 66
        E 0 9f 2b 5a
        E 1 87 46 66
        E 0 8e 46 66
        E 0 97 46 66
        E 0 9e 46 66
        E 0 87 46 66
        E 0 8e 46 66
        E 0 97 46 66
        E 0 9e 46 66
        E 0 87 46 66
        E 0 8e 46 66
        E 0 97 45 64
        E 0 9e 45 64
        E 0 87 45 64
        E 0 8e 45 64
        E 0 97 43 64
        E 0 9e 43 64
        E 0 87 43 64
        E 0 8e 43 64
        E 0 97 49 64
        E 0 9e 49 64
        E 0 87 49 64
        E 0 8e 49 64
        E 0 97 49 64
        E 0 9e 49 64
        E 0 87 49 64
        E 0 8e 49 64
        E 0 8f 2b 64
        E 0 97 49 64
        E 0 9e 49 64
        E 0 9f 2b 5a
        E 0 87 49 64
        E 0 8e 49 64
        E 0 97 49 64
        E 0 9e 49 64
        E 0 87 49 64
        E 0 8e 49 64
        E 0 97 49 64
        E 0 9e 49 64
        E 38405 87 49 64
        E 0 8e 49 64
        E 0 97 49 64
        E 0 9e 49 64
        E 0 87 49 64
        E 0 8e 49 64
        E 0 97 4a 64
        E 0 9e 4a 64
        E 0 87 4a 64
        E 0 8e 4a 64
        E 0 8f 2b 64
        E 0 97 45 64
        E 0 9e 45 64
        E 0 9f 2d 5a
        E 0 87 45 64
        E 0 8e 45 64
        E 0 97 45 64
        E 0 9e 45 64
        E 0 87 45 64
        E 0 8e 45 64
        E 0 8f 2d 64
        E 0 9f 32 5a
        E 0 97 41 64
        E 0 9e 41 64
        E 0 87 41 64
        E 0 8e 41 64
        E 0 8f 32 64
        E 0 97 45 64
        E 0 9e 45 64
        E 0 9f 32 5a
        E 0 87 45 64
        E 0 8e 45 64
        E 0 97 45 64
        E 0 9e 45 64
        E 0 87 45 64
        E 0 8e 45 64
        E 0 97 47 64
        E 0 9e 47 64
        E 0 87 47 64
        E 0 8e 47 64
        E 0 8f 32 64
        E 0 97 47 64
        E 0 9e 47 64
        E 0 9f 35 5a
        E 0 87 47 64
        E 0 8e 47 64
        E 0 97 47 64
        E 0 9e 47 64
        E 0 87 47 64
        E 0 8e 47 64
        E 0 8f 35 64
        E 0 97 4a 64
        E 0 9e 4a 64
        E 0 9f 35 5a
        E 0 87 4a 64
        E 0 8e 4a 64
        E 0 97 48 64
        E 0 9e 48 64
        E 0 87 48 64
        E 0 8e 48 64
        E 0 97 47 64
        E 0 9e 47 64
        E 0 87 47 64
        E 0 8e 47 64
        E 0 97 47 64
        E 1 9e 47 64
        E 0 87 47 64
        E 0 8e 47 64
        E 0 97 48 64
        E 0 9e 48 64
        E 0 87 48 64
        E 0 8e 48 64
        E 0 8f 35 64
        E 0 97 43 64
        E 0 9e 43 64
        E 0 9f 34 5a
        E 0 87 43 64
        E 0 8e 43 64
        E 0 97 43 64
        E 0 9e 43 64
        E 0 87 43 64
        E 0 8e 43 64
        E 0 8f 34 64
        E 0 95 48 64
        E 0 9e 48 64
        E 0 9f 34 5a
        E 0 85 48 64
        E 0 8e 48 64
        E 0 95 48 64
        E 0 9e 48 64
        E 0 85 48 64
        E 0 8e 48 64
        E 0 95 47 64
        E 0 9e 47 64
        E 0 85 47 64
        E 0 8e 47 64
        E 0 8f 34 64
        E 0 95 47 64
        E 0 9e 47 64
        E 0 9f 33 5a
        E 0 85 47 64
        E 0 8e 47 64
        E 0 95 47 64
        E 0 9e 47 64
        E 0 85 47 64
        E 0 8e 47 64
        E 0 95 48 64
        E 0 9e 48 64
        E 0 85 48 64
        E 0 8e 48 64
        E 0 8f 33 64
        E 0 95 45 64
        E 0 9e 45 64
        E 0 9f 33 5a
        E 0 85 45 64
        E 0 8e 45 64
        E 0 95 45 64
        E 0 9e 45 64
        E 0 85 45 64
        E 0 8e 45 64
        E 0 95 45 64
        E 1 9e 45 64
        E 0 85 45 64
        E 0 8e 45 64
        E 0 95 43 64
        E 0 9e 43 64
        E 0 85 43 64
        E 0 8e 43 64
        E 0 8f 33 64
        E 0 95 40 64
        E 0 9e 40 64
        E 0 9f 34 5a
        E 0 85 40 64
        E 0 8e 40 64
        E 0 95 40 64
        E 0 9e 40 64
        E 0 85 40 64
        E 0 8e 40 64
        E 0 8f 34 64
        E 0 95 47 64
        E 0 9e 47 64
        E 0 9f 34 5a
        E 0 85 47 64
        E 0 8e 47 64
        E 0 95 47 64
        E 0 9e 47 64
        E 0 85 47 64
        E 0 8e 47 64
        E 0 95 48 64
        E 0 9e 48 64
        E 0 85 48 64
        E 0 8e 48 64
        E 0 8f 34 64
        E 0 95 45 64
        E 0 9e 45 64
        E 0 9f 36 5a
        E 0 85 45 64
        E 0 8e 45 64
        E 0 95 45 64
        E 0 9e 45 64
        E 0 85 45 64
        E 0 8e 45 64
        E 0 95 42 64
        E 0 9e 42 64
        E 0 85 42 64
        E 0 8e 42 64
        E 0 8f 36 64
        E 0 95 45 64
        E 0 9e 45 64
        E 0 9f 36 5a
        E 0 85 45 64
        E 0 8e 45 64
        E 0 95 45 64
        E 0 9e 45 64
        E 0 85 45 64
        E 0 8e 45 64
        E 0 95 45 64
        E 0 9e 45 64
        E 0 85 45 64
        E 0 8e 45 64
        E 0 95 47 64
        E 0 9e 47 64
        E 0 85 47 64
        E 0 8e 47 64
        E 0 8f 36 64
        E 0 95 43 64
        E 0 9e 43 64
        E 0 9f 37 5a
        E 0 85 43 64
        E 0 8e 43 64
        E 1 95 43 64
        E 0 9e 43 64
        E 0 85 43 64
        E 0 8e 43 64
        E 0 95 43 64
        E 0 9e 43 64
        E 0 85 43 64
        E 0 8e 43 64
        E 0 95 43 64
        E 0 9e 43 64
        E 0 85 43 64
        E 0 8e 43 64
        E 0 95 43 64
        E 0 9e 43 64
        E 0 85 43 64
        E 0 8e 43 64
        E 0 8f 37 64
        E 0 95 48 64
        E 0 9e 48 64
        E 0 9f 34 5a
        E 0 85 48 64
        E 0 8e 48 64
        E 0 95 48 64
        E 0 9e 48 64
        E 0 85 48 64
        E 0 8e 48 64
        E 0 8f 34 64
        E 0 95 45 64
        E 0 9e 45 64
        E 0 9f 35 5a
        E 0 85 45 64
        E 0 8e 45 64
        E 0 95 45 64
        E 0 9e 45 64
        E 0 85 45 64
        E 0 8e 45 64
        E 0 95 45 64
        E 0 9e 45 64
        E 0 85 45 64
        E 0 8e 45 64
        E 0 95 47 64
        E 0 9e 47 64
        E 0 85 47 64
        E 0 8e 47 64
        E 0 95 48 64
        E 0 9e 48 64
        E 0 85 48 64
        E 0 8e 48 64
        E 0 8f 35 64
        E 0 95 43 64
        E 0 9e 43 64
        E 0 9f 37 5a
        E 0 85 43 64
        E 0 8e 43 64
        E 0 95 43 64
        E 0 9e 43 64
        E 0 85 43 64
        E 0 8e 43 64
        E 0 8f 37 64
        E 0 9f 30 5a
        E 0 97 46 66
        E 0 9e 46 66
        E 0 87 46 66
        E 0 8e 46 66
        E 0 97 46 66
        E 0 9e 46 66
        E 0 87 46 66
        E 0 8e 46 66
        E 0 97 45 64
        E 0 9e 45 64
        E 0 87 45 64
        E 0 8e 45 64
        E 0 8f 30 64
        E 0 97 45 64
        E 0 9e 45 64
        E 0 9f 35 5a
        E 0 87 45 64
        E 0 8e 45 64
        E 0 97 45 64
        E 0 9e 45 64
        E 0 87 45 64
        E 0 8e 45 64
        E 0 8f 35 64
        E 0 97 4a 64
        E 0 9e 4a 64
        E 0 9f 2e 5b
        E 0 87 4a 64
        E 0 8e 4a 64
        E 0 97 46 66
        E 0 9e 46 66
        E 0 87 46 66
        E 1 8e 46 66
        E 0 97 46 66
        E 0 9e 46 66
        E 0 87 46 66
        E 0 8e 46 66
        E 0 97 46 66
        E 0 9e 46 66
        E 0 87 46 66
        E 0 8e 46 66
        E 0 97 45 64
        E 0 9e 45 64
        E 0 87 45 64
        E 0 8e 45 64
        E 0 8f 2e 66
        E 0 97 41 64
        E 0 9e 41 64
        E 0 9f 30 5a
        E 0 87 41 64
        E 0 8e 41 64
        E 0 97 41 64
        E 0 9e 41 64
        E 0 87 41 64
        E 0 8e 41 64
        E 0 8f 30 64
        E 0 9f 29 5a
        E 0 8f 29 64
        E 38403 92 41 64
        E 0 93 3e 5a
        E 0 82 41 64
        E 0 83 3e 64
        E 0 92 46 66
        E 0 93 3e 5a
        E 0 9f 3a 5b
        E 0 82 46 66
        E 0 92 46 66
        E 0 82 46 66
        E 0 83 3e 64
        E 0 92 48 64
        E 1 93 3e 5a
        E 0 82 48 64
        E 0 92 46 66
        E 0 82 46 66
        E 0 83 3e 64
        E 0 92 46 66
        E 0 93 3e 5a
        E 0 82 46 66
        E 0 92 46 66
        E 0 82 46 66
        E 0 83 3e 64
        E 0 92 48 64
        E 0 93 3e 5a
        E 0 82 48 64
        E 0 92 46 66
        E 0 82 46 66
        E 0 83 3e 64
        E 0 8f 3a 66
        E 0 92 4d 64
        E 0 93 3c 5a
        E 0 9f 39 5a
        E 0 83 3c 64
        E 0 93 3c 5a
        E 0 82 4d 64
        E 0 83 3c 64
        E 0 92 4d 64
        E 0 93 3c 5a
        E 0 82 4d 64
        E 0 83 3c 64
        E 0 92 4d 64
        E 0 93 3c 5a
        E 0 82 4d 64
        E 0 92 4b 66
        E 0 82 4b 66
        E 0 92 4a 64
        E 0 82 4a 64
        E 0 92 48 64
        E 0 82 48 64
        E 0 83 3c 64
        E 0 8f 39 64
        E 0 92 46 66
        E 0 93 3e 5a
        E 0 9f 37 5a
        E 0 82 46 66
        E 0 92 46 66
        E 0 82 46 66
        E 0 83 3e 64
        E 0 92 48 64
        E 0 93 3e 5a
        E 0 82 48 64
        E 0 92 46 66
        E 0 82 46 66
        E 0 83 3e 64
        E 0 92 46 66
        E 0 93 3a 5b
        E 0 82 46 66
        E 0 92 46 66
        E 0 82 46 66
        E 0 83 3a 66
        E 0 92 48 64
        E 0 93 3a 5b
        E 0 82 48 64
        E 0 92 46 66
        E 0 82 46 66
        E 0 83 3a 66
        E 0 8f 37 64
        E 0 92 4d 64
        E 0 93 39 5a
        E 0 9f 35 5a
        E 0 83 39 64
        E 0 93 39 5a
        E 0 82 4d 64
        E 0 83 39 64
        E 0 92 4d 64
        E 0 93 39 5a
        E 0 82 4d 64
        E 0 83 39 64
        E 0 92 4d 64
        E 0 93 39 5a
        E 0 82 4d 64
        E 0 92 4b 66
        E 0 82 4b 66
        E 0 92 4a 64
        E 0 82 4a 64
        E 0 92 48 64
        E 0 82 48 64
        E 0 92 46 66
        E 0 82 46 66
        E 0 83 39 64
        E 0 8f 35 64
        E 0 92 45 64
        E 0 93 3c 5a
        E 0 9f 34 5a
        E 0 82 45 64
        E 1 92 46 66
        E 0 82 46 66
        E 0 83 3c 64
        E 0 92 48 64
        E 0 93 3c 5a
        E 0 82 48 64
        E 0 92 4a 64
        E 0 82 4a 64
        E 0 83 3c 64
        E 0 92 4b 66
        E 0 93 3c 5a
        E 0 82 4b 66
        E 0 92 4d 64
        E 0 82 4d 64
        E 0 83 3c 64
        E 0 8f 34 64
        E 0 92 4f 64
        E 0 93 3c 5a
        E 0 9f 32 5a
        E 0 82 4f 64
        E 0 8f 32 64
        E 0 92 51 64
        E 0 9f 30 5a
        E 0 82 51 64
        E 0 83 3c 64
        E 0 8f 30 64
        E 0 92 52 66
        E 0 93 3e 5a
        E 0 9f 2e 5b
        E 0 82 52 66
        E 0 83 3e 64
        E 0 8f 2e 66
        E 0 92 3a 66
        E 0 93 3a 5b
        E 0 9f 2e 5b
        E 0 82 3a 66
        E 0 83 3a 66
        E 0 8f 2e 66
        E 0 92 3a 66
        E 0 93 3a 5b
        E 0 9f 2e 5b
        E 0 82 3a 66
        E 0 83 3a 66
        E 0 8f 2e 66
        E 0 92 3a 66
        E 0 93 3a 5b
        E 0 9f 2e 5b
        E 0 82 3a 66
        E 0 83 3a 66
        E 0 8f 2e 66
        E 0 92 52 66
        E 0 93 41 5a
        E 0 9f 32 5a
        E 0 92 4d 64
        E 0 82 52 66
        E 0 83 41 64
        E 0 8f 32 64
        E 0 93 41 5a
        E 0 9f 32 5a
        E 0 92 4a 64
        E 0 82 4d 64
        E 0 83 41 64
        E 0 8f 32 64
        E 0 92 46 66
        E 0 93 41 5a
        E 0 9f 32 5a
        E 0 82 4a 64
        E 0 92 4a 64
        E 0 82 46 66
        E 0 83 41 64
        E 0 8f 32 64
        E 0 93 41 5a
        E 0 9f 32 5a
        E 0 92 4d 64
        E 0 82 4a 64
        E 0 83 41 64
        E 0 8f 32 64
        E 0 92 52 66
        E 0 93 41 5a
        E 0 9f 32 5a
        E 0 82 4d 64
        E 0 92 46 66
        E 0 82 52 66
        E 0 83 41 64
        E 0 8f 32 64
        E 0 93 41 5a
        E 0 9f 32 5a
        E 0 92 46 66
        E 0 82 46 66
        E 0 83 41 64
        E 0 8f 32 64
        E 0 92 46 66
        E 0 93 41 5a
        E 0 9f 32 5a
        E 0 82 46 66
        E 0 92 46 66
        E 0 82 46 66
        E 0 83 41 64
        E 0 8f 32 64
        E 0 93 41 5a
        E 0 9f 32 5a
        E 0 92 46 66
        E 0 82 46 66
        E 0 83 41 64
        E 0 8f 32 64
        E 0 92 43 64
        E 0 93 3a 5b
        E 0 9f 33 5b
        E 1 82 46 66
        E 0 92 3e 64
        E 0 82 43 64
        E 0 83 3a 66
        E 0 8f 33 66
        E 0 93 3a 5b
        E 0 9f 33 5b
        E 0 92 3a 66
        E 0 82 3e 64
        E 0 83 3a 66
        E 0 8f 33 66
        E 0 92 37 64
        E 0 93 3a 5b
        E 0 9f 33 5b
        E 0 82 3a 66
        E 0 92 3a 66
        E 0 82 37 64
        E 0 83 3a 66
        E 0 8f 33 66
        E 0 93 3a 5b
        E 0 9f 33 5b
        E 0 92 3e 64
        E 0 82 3a 66
        E 0 83 3a 66
        E 0 8f 33 66
        E 0 92 43 64
        E 0 93 3a 5b
        E 0 9f 33 5b
        E 0 82 3e 64
        E 0 83 3a 66
        E 0 8f 33 66
        E 0 93 3a 5b
        E 0 9f 33 5b
        E 0 82 43 64
        E 0 83 3a 66
        E 0 8f 33 66
        E 0 93 3a 5b
        E 0 9f 33 5b
        E 0 83 3a 66
        E 0 8f 33 66
        E 0 93 3a 5b
        E 0 9f 33 5b
        E 0 83 3a 66
        E 0 8f 33 66
        E 0 92 54 64
        E 0 93 43 5a
        E 0 9f 34 5a
        E 0 92 4f 64
        E 0 82 54 64
        E 0 83 43 64
        E 0 8f 34 64
        E 0 93 43 5a
        E 0 9f 34 5a
        E 0 92 4c 64
        E 0 82 4f 64
        E 0 83 43 64
        E 0 8f 34 64
        E 0 92 48 64
        E 0 93 43 5a
        E 0 9f 34 5a
        E 0 82 4c 64
        E 0 92 4c 64
        E 0 82 48 64
        E 0 83 43 64
        E 0 8f 34 64
        E 0 93 43 5a
        E 0 9f 34 5a
        E 0 92 4f 64
        E 0 82 4c 64
        E 0 83 43 64
        E 0 8f 34 64
        E 0 92 54 64
        E 0 93 43 5a
        E 0 9f 34 5a
        E 0 82 4f 64
        E 0 92 48 64
        E 0 82 54 64
        E 0 83 43 64
        E 0 8f 34 64
        E 0 93 43 5a
        E 0 9f 34 5a
        E 0 92 48 64
        E 0 82 48 64
        E 0 83 43 64
        E 0 8f 34 64
        E 0 92 48 64
        E 0 93 43 5a
        E 0 9f 34 5a
        E 0 82 48 64
        E 1 92 48 64
        E 0 82 48 64
        E 0 83 43 64
        E 0 8f 34 64
        E 0 93 43 5a
        E 0 9f 34 5a
        E 0 92 48 64
        E 0 82 48 64
        E 0 83 43 64
        E 0 8f 34 64
        E 0 92 51 64
        E 0 93 3c 5a
        E 0 9f 35 5a
        E 0 82 48 64
        E 0 92 4d 64
        E 0 82 51 64
        E 0 83 3c 64
        E 0 8f 35 64
        E 0 93 3c 5a
        E 0 9f 35 5a
        E 0 92 48 64
        E 0 82 4d 64
        E 0 83 3c 64
        E 0 8f 35 64
        E 0 92 45 64
        E 0 93 3c 5a
        E 0 9f 35 5a
        E 0 82 48 64
        E 0 92 48 64
        E 0 82 45 64
        E 0 83 3c 64
        E 0 8f 35 64
        E 0 93 3c 5a
        E 0 9f 35 5a
        E 0 92 4d 64
        E 0 82 48 64
        E 0 83 3c 64
        E 0 8f 35 64
        E 0 92 51 64
        E 0 93 3c 5a
        E 0 9f 35 5a
        E 0 82 4d 64
        E 0 83 3c 64
        E 0 8f 35 64
        E 0 93 3c 5a
        E 0 9f 35 5a
        E 0 82 51 64
        E 0 83 3c 64
        E 0 8f 35 64
        E 0 93 3c 5a
        E 0 9f 35 5a
        E 0 83 3c 64
        E 0 8f 35 64
        E 0 93 3c 5a
        E 0 9f 35 5a
        E 0 83 3c 64
        E 0 8f 35 64
        E 0 92 52 66
        E 0 93 4a 5a
        E 0 9f 3a 5b
        E 0 92 4d 64
        E 0 82 52 66
        E 0 92 4b 66
        E 0 82 4d 64
        E 0 83 4a 64
        E 0 8f 3a 66
        E 0 92 4a 64
        E 0 93 4a 5a
        E 0 9f 3a 5b
        E 0 82 4b 66
        E 0 92 48 64
        E 0 82 4a 64
        E 0 92 46 66
        E 0 82 48 64
        E 0 83 4a 64
        E 0 8f 3a 66
        E 0 92 52 66
        E 0 93 48 5a
        E 0 9f 39 5a
        E 0 82 46 66
        E 0 92 4d 64
        E 0 82 52 66
        E 0 92 4b 66
        E 0 82 4d 64
        E 0 83 48 64
        E 0 8f 39 64
        E 0 92 4a 64
        E 0 93 48 5a
        E 0 9f 39 5a
        E 0 82 4b 66
        E 0 92 48 64
        E 0 82 4a 64
        E 0 92 46 66
        E 1 82 48 64
        E 0 83 48 64
        E 0 8f 39 64
        E 0 92 52 66
        E 0 93 46 5b
        E 0 9f 37 5a
        E 0 82 46 66
        E 0 92 4d 64
        E 0 82 52 66
        E 0 92 4b 66
        E 0 82 4d 64
        E 0 83 46 66
        E 0 8f 37 64
        E 0 92 4a 64
        E 0 93 46 5b
        E 0 9f 37 5a
        E 0 82 4b 66
        E 0 92 48 64
        E 0 82 4a 64
        E 0 92 46 66
        E 0 82 48 64
        E 0 83 46 66
        E 0 8f 37 64
        E 0 92 52 66
        E 0 93 45 5a
        E 0 9f 35 5a
        E 0 82 46 66
        E 0 92 4d 64
        E 0 82 52 66
        E 0 92 4b 66
        E 0 82 4d 64
        E 0 83 45 64
        E 0 8f 35 64
        E 0 92 4a 64
        E 0 93 45 5a
        E 0 9f 35 5a
        E 0 82 4b 66
        E 0 92 48 64
        E 0 82 4a 64
        E 0 92 46 66
        E 0 82 48 64
        E 0 83 45 64
        E 0 8f 35 64
        E 0 92 3f 66
        E 0 93 3f 5b
        E 0 9f 33 5b
        E 0 82 46 66
        E 0 82 3f 66
        E 0 83 3f 66
        E 0 8f 33 66
        E 0 92 3f 66
        E 0 93 3f 5b
        E 0 9f 33 5b
        E 0 82 3f 66
        E 0 83 3f 66
        E 0 8f 33 66
        E 0 92 41 64
        E 0 93 41 5a
        E 0 9f 35 5a
        E 0 82 41 64
        E 0 83 41 64
        E 0 8f 35 64
        E 0 92 41 64
        E 0 93 41 5a
        E 0 9f 35 5a
        E 0 82 41 64
        E 0 83 41 64
        E 0 8f 35 64
        E 0 92 3a 66
        E 0 93 3a 5b
        E 0 9f 2e 5b
        E 0 82 3a 66
        E 0 83 3a 66
        E 0 8f 2e 66
        E 0 92 52 66
        E 0 93 4a 5a
        E 0 9f 3a 5b
        E 0 92 4d 64
        E 0 82 52 66
        E 0 92 4b 66
        E 0 82 4d 64
        E 0 83 4a 64
        E 0 8f 3a 66
        E 0 92 4a 64
        E 0 93 4a 5a
        E 0 9f 3a 5b
        E 0 82 4b 66
        E 0 92 48 64
        E 0 82 4a 64
        E 0 92 46 66
        E 0 82 48 64
        E 0 83 4a 64
        E 0 8f 3a 66
        E 0 92 52 66
        E 0 93 48 5a
        E 0 9f 39 5a
        E 0 82 46 66
        E 0 92 4d 64
        E 0 82 52 66
        E 0 92 4b 66
        E 0 82 4d 64
        E 0 83 48 64
        E 0 8f 39 64
        E 0 92 4a 64
        E 0 93 48 5a
        E 0 9f 39 5a
        E 0 82 4b 66
        E 0 92 48 64
        E 0 82 4a 64
        E 0 92 46 66
        E 0 82 48 64
        E 0 83 48 64
        E 0 8f 39 64
        E 0 92 52 66
        E 0 93 46 5b
        E 1 9f 37 5a
        E 0 82 46 66
        E 0 92 4d 64
        E 0 82 52 66
        E 0 92 4b 66
        E 0 82 4d 64
        E 0 83 46 66
        E 0 8f 37 64
        E 0 92 4a 64
        E 0 93 46 5b
        E 0 9f 37 5a
        E 0 82 4b 66
        E 0 92 48 64
        E 0 82 4a 64
        E 0 92 46 66
        E 0 82 48 64
        E 0 83 46 66
        E 0 8f 37 64
        E 0 92 52 66
        E 0 93 45 5a
        E 0 9f 35 5a
        E 0 82 46 66
        E 0 92 4d 64
        E 0 82 52 66
        E 0 92 4b 66
        E 0 82 4d 64
        E 0 83 45 64
        E 0 8f 35 64
        E 0 92 4a 64
        E 0 93 45 5a
        E 0 9f 35 5a
        E 0 82 4b 66
        E 0 92 48 64
        E 0 82 4a 64
        E 0 92 46 66
        E 0 82 48 64
        E 0 83 45 64
        E 0 8f 35 64
        E 0 92 3f 66
        E 0 93 3f 5b
        E 0 9f 33 5b
        E 0 82 46 66
        E 0 82 3f 66
        E 0 83 3f 66
        E 0 8f 33 66
        E 0 92 3f 66
        E 0 93 3f 5b
        E 0 9f 33 5b
        E 0 82 3f 66
        E 0 83 3f 66
        E 0 8f 33 66
        E 0 92 41 64
        E 1 93 41 5a
        E 0 9f 35 5a
        E 0 82 41 64
        E 0 83 41 64
        E 0 8f 35 64
        E 0 92 41 64
        E 0 93 41 5a
        E 0 9f 35 5a
        E 0 82 41 64
        E 0 83 41 64
        E 0 8f 35 64
        E 0 92 3a 66
        E 0 93 3a 5b
        E 0 9f 2e 5b
        E 0 82 3a 66
        E 0 83 3a 66
        E 0 8f 2e 66
        E 0 92 41 64
        E 0 93 3e 5a
        E 0 97 41 64
        E 0 82 41 64
        E 0 83 3e 64
        E 0 87 41 64
        E 0 92 46 66
        E 0 93 3e 5a
        E 0 97 46 66
        E 0 9f 3a 5b
        E 0 82 46 66
        E 0 92 46 66
        E 0 82 46 66
        E 0 83 3e 64
        E 0 87 46 66
        E 0 92 48 64
        E 0 93 3e 5a
        E 0 97 46 66
        E 0 82 48 64
        E 0 92 46 66
        E 38403 82 46 66
        E 0 83 3e 64
        E 0 87 46 66
        E 0 92 46 66
        E 0 93 3e 5a
        E 0 97 46 66
        E 0 82 46 66
        E 0 92 46 66
        E 0 82 46 66
        E 0 83 3e 64
        E 0 87 46 66
        E 0 92 48 64
        E 0 93 3e 5a
        E 0 97 45 64
        E 0 82 48 64
        E 0 87 45 64
        E 0 92 46 66
        E 0 97 46 66
        E 0 82 46 66
        E 0 83 3e 64
        E 0 87 46 66
        E 0 8f 3a 66
        E 0 92 4d 64
        E 0 93 3c 5a
        E 0 97 48 64
        E 0 9f 39 5a
        E 0 87 48 64
        E 0 97 46 66
        E 0 83 3c 64
        E 0 87 46 66
        E 0 93 3c 5a
        E 0 97 48 64
        E 0 82 4d 64
        E 0 83 3c 64
        E 0 87 48 64
        E 0 92 4d 64
        E 1 93 3c 5a
        E 0 82 4d 64
        E 0 83 3c 64
        E 0 92 4d 64
        E 0 93 3c 5a
        E 0 97 41 64
        E 0 82 4d 64
        E 0 92 4b 66
        E 0 82 4b 66
        E 0 92 4a 64
        E 0 82 4a 64
        E 0 92 48 64
        E 0 82 48 64
        E 0 83 3c 64
        E 0 87 41 64
        E 0 8f 39 64
        E 0 92 46 66
        E 0 93 3e 5a
        E 0 97 46 66
        E 0 9f 37 5a
        E 0 82 46 66
        E 0 92 46 66
        E 0 82 46 66
        E 0 83 3e 64
        E 0 87 46 66
        E 0 92 48 64
        E 0 93 3e 5a
        E 0 97 46 66
        E 0 82 48 64
        E 0 92 46 66
        E 0 82 46 66
        E 0 83 3e 64
        E 0 87 46 66
        E 0 92 46 66
        E 0 93 3a 5b
        E 0 97 4b 66
        E 0 82 46 66
        E 0 87 4b 66
        E 0 92 46 66
        E 0 97 4a 64
        E 0 82 46 66
        E 0 83 3a 66
        E 0 87 4a 64
        E 0 92 48 64
        E 0 93 3a 5b
        E 0 97 48 64
        E 0 82 48 64
        E 0 87 48 64
        E 0 92 46 66
        E 1 97 46 66
        E 0 82 46 66
        E 0 83 3a 66
        E 0 87 46 66
        E 0 8f 37 64
        E 0 92 4d 64
        E 0 93 39 5a
        E 0 97 45 64
        E 0 9f 35 5a
        E 0 87 45 64
        E 0 97 43 64
        E 0 83 39 64
        E 0 87 43 64
        E 0 93 39 5a
        E 0 97 41 64
        E 0 82 4d 64
        E 0 83 39 64
        E 0 87 41 64
        E 0 92 4d 64
        E 0 93 39 5a
        E 0 82 4d 64
        E 0 83 39 64
        E 0 92 4d 64
        E 0 93 39 5a
        E 0 97 48 64
        E 0 82 4d 64
        E 0 92 4b 66
        E 0 82 4b 66
        E 0 92 4a 64
        E 0 82 4a 64
        E 0 92 48 64
        E 0 82 48 64
        E 0 92 46 66
        E 0 82 46 66
        E 0 83 39 64
        E 0 87 48 64
        E 0 8f 35 64
        E 0 92 45 64
        E 0 93 3c 5a
        E 0 97 41 64
        E 0 9f 33 5b
        E 0 82 45 64
        E 0 87 41 64
        E 0 92 46 66
        E 0 97 43 64
        E 0 82 46 66
        E 0 83 3c 64
        E 0 87 43 64
        E 0 92 48 64
        E 0 93 3c 5a
        E 0 97 45 64
        E 0 82 48 64
        E 0 87 45 64
        E 0 92 4a 64
        E 0 97 46 66
        E 0 82 4a 64
        E 0 83 3c 64
        E 0 87 46 66
        E 1 92 4b 66
        E 0 93 3c 5a
        E 0 97 48 64
        E 0 82 4b 66
        E 0 87 48 64
        E 0 92 4d 64
        E 0 97 4a 64
        E 0 82 4d 64
        E 0 83 3c 64
        E 0 87 4a 64
        E 0 8f 33 66
        E 0 92 4f 64
        E 0 93 3c 5a
        E 0 97 4b 66
        E 0 9f 32 5a
        E 0 82 4f 64
        E 0 87 4b 66
        E 0 8f 32 64
        E 0 92 51 64
        E 0 97 4d 64
        E 0 9f 30 5a
        E 0 82 51 64
        E 0 83 3c 64
        E 0 87 4d 64
        E 0 8f 30 64
        E 0 92 52 66
        E 0 93 3a 5b
        E 0 97 4a 64
        E 0 9f 2e 5b
        E 0 87 4a 64
        E 0 97 48 64
        E 0 82 52 66
        E 0 83 3a 66
        E 0 87 48 64
        E 0 8f 2e 66
        E 0 92 3a 66
        E 0 93 3a 5b
        E 0 97 46 66
        E 0 9f 2e 5b
        E 0 82 3a 66
        E 0 83 3a 66
        E 0 87 46 66
        E 0 8f 2e 66
        E 0 92 3a 66
        E 0 93 3a 5b
        E 0 9f 2e 5b
        E 0 82 3a 66
        E 0 83 3a 66
        E 0 8f 2e 66
        E 0 92 3a 66
        E 0 93 3a 5b
        E 0 97 41 64
        E 0 9f 2e 5b
        E 0 82 3a 66
        E 1 83 3a 66
        E 0 87 41 64
        E 0 8f 2e 66
        E 0 92 52 66
        E 0 93 41 5a
        E 0 97 46 66
        E 0 9f 32 5a
        E 0 92 4d 64
        E 0 82 52 66
        E 0 83 41 64
        E 0 8f 32 64
        E 0 93 41 5a
        E 0 9f 32 5a
        E 0 92 4a 64
        E 0 82 4d 64
        E 0 83 41 64
        E 0 87 46 66
        E 0 8f 32 64
        E 0 92 46 66
        E 0 93 41 5a
        E 0 97 41 64
        E 0 9f 32 5a
        E 0 82 4a 64
        E 0 92 4a 64
        E 0 82 46 66
        E 0 83 41 64
        E 0 8f 32 64
        E 0 93 41 5a
        E 0 9f 32 5a
        E 0 92 4d 64
        E 0 82 4a 64
        E 0 83 41 64
        E 0 87 41 64
        E 0 8f 32 64
        E 0 92 52 66
        E 0 93 41 5a
        E 0 97 48 64
        E 0 9f 32 5a
        E 0 82 4d 64
        E 0 92 46 66
        E 0 82 52 66
        E 0 83 41 64
        E 0 8f 32 64
        E 0 93 41 5a
        E 0 9f 32 5a
        E 0 92 46 66
        E 0 82 46 66
        E 0 83 41 64
        E 0 87 48 64
        E 0 8f 32 64
        E 0 92 46 66
        E 0 93 41 5a
        E 0 97 41 64
        E 0 9f 32 5a
        E 0 82 46 66
        E 0 92 46 66
        E 0 82 46 66
        E 0 83 41 64
        E 0 8f 32 64
        E 0 93 41 5a
        E 1 9f 32 5a
        E 0 92 46 66
        E 0 82 46 66
        E 0 83 41 64
        E 0 87 41 64
        E 0 8f 32 64
        E 0 92 43 64
        E 0 93 3a 5b
        E 0 97 43 64
        E 0 9f 33 5b
        E 0 82 46 66
        E 0 92 3e 64
        E 0 82 43 64
        E 0 83 3a 66
        E 0 8f 33 66
        E 0 93 3a 5b
        E 0 9f 33 5b
        E 0 92 3a 66
        E 0 82 3e 64
        E 0 83 3a 66
        E 0 87 43 64
        E 0 8f 33 66
        E 0 92 37 64
        E 0 93 3a 5b
        E 0 97 3f 66
        E 0 9f 33 5b
        E 0 82 3a 66
        E 0 92 3a 66
        E 0 82 37 64
        E 0 83 3a 66
        E 0 8f 33 66
        E 0 93 3a 5b
        E 0 9f 33 5b
        E 0 92 3e 64
        E 0 82 3a 66
        E 0 83 3a 66
        E 0 87 3f 66
        E 0 8f 33 66
        E 0 92 43 64
        E 0 93 3a 5b
        E 0 9f 33 5b
        E 0 82 3e 64
        E 0 83 3a 66
        E 0 8f 33 66
        E 0 93 3a 5b
        E 0 9f 33 5b
        E 0 82 43 64
        E 0 83 3a 66
        E 0 8f 33 66
        E 0 93 3a 5b
        E 0 97 43 64
        E 0 9f 33 5b
        E 0 83 3a 66
        E 0 8f 33 66
        E 0 93 3a 5b
        E 0 9f 33 5b
        E 0 83 3a 66
        E 0 87 43 64
        E 0 8f 33 66
        E 0 92 54 64
        E 0 93 43 5a
        E 0 97 48 64
        E 0 9f 34 5a
        E 0 92 4f 64
        E 0 82 54 64
        E 0 83 43 64
        E 0 8f 34 64
        E 0 93 43 5a
        E 0 9f 34 5a
        E 0 92 4c 64
        E 0 82 4f 64
        E 0 83 43 64
        E 0 87 48 64
        E 0 8f 34 64
        E 0 92 48 64
        E 0 93 43 5a
        E 0 97 4c 64
        E 0 9f 34 5a
        E 0 82 4c 64
        E 0 92 4c 64
        E 0 82 48 64
        E 0 83 43 64
        E 0 8f 34 64
        E 0 93 43 5a
        E 0 9f 34 5a
        E 0 92 4f 64
        E 0 82 4c 64
        E 0 83 43 64
        E 0 87 4c 64
        E 0 8f 34 64
        E 0 92 54 64
        E 1 93 43 5a
        E 0 97 48 64
        E 0 9f 34 5a
        E 0 82 4f 64
        E 0 92 48 64
        E 0 82 54 64
        E 0 83 43 64
        E 0 8f 34 64
        E 0 93 43 5a
        E 0 9f 34 5a
        E 0 92 48 64
        E 0 82 48 64
        E 0 83 43 64
        E 0 87 48 64
        E 0 8f 34 64
        E 0 92 48 64
        E 0 93 43 5a
        E 0 97 43 64
        E 0 9f 34 5a
        E 0 82 48 64
        E 0 92 48 64
        E 0 82 48 64
        E 0 83 43 64
        E 0 8f 34 64
        E 0 93 43 5a
        E 0 9f 34 5a
        E 0 92 48 64
        E 0 82 48 64
        E 0 83 43 64
        E 0 87 43 64
        E 0 8f 34 64
        E 0 92 51 64
        E 0 93 3c 5a
        E 0 97 45 64
        E 0 9f 35 5a
        E 0 82 48 64
        E 0 92 4d 64
        E 0 82 51 64
        E 0 83 3c 64
        E 0 8f 35 64
        E 0 93 3c 5a
        E 0 9f 35 5a
        E 0 92 48 64
        E 0 82 4d 64
        E 0 83 3c 64
        E 0 87 45 64
        E 0 8f 35 64
        E 0 92 45 64
        E 0 93 3c 5a
        E 0 97 41 64
        E 0 9f 35 5a
        E 0 82 48 64
        E 0 92 48 64
        E 0 82 45 64
        E 0 83 3c 64
        E 0 8f 35 64
        E 0 93 3c 5a
        E 0 9f 35 5a
        E 0 92 4d 64
        E 0 82 48 64
        E 0 83 3c 64
        E 0 87 41 64
        E 0 8f 35 64
        E 0 92 51 64
        E 0 93 3c 5a
        E 0 9f 35 5a
        E 0 82 4d 64
        E 0 83 3c 64
        E 0 8f 35 64
        E 0 93 3c 5a
        E 0 9f 35 5a
        E 0 82 51 64
        E 0 83 3c 64
        E 0 8f 35 64
        E 0 93 3c 5a
        E 0 97 45 64
        E 0 9f 35 5a
        E 0 83 3c 64
        E 0 8f 35 64
        E 0 93 3c 5a
        E 0 9f 35 5a
        E 0 83 3c 64
        E 0 87 45 64
        E 0 8f 35 64
        E 0 92 56 64
        E 0 93 45 5a
        E 0 97 4a 64
        E 0 9f 36 5a
        E 0 92 51 64
        E 0 82 56 64
        E 0 83 45 64
        E 0 8f 36 64
        E 0 93 45 5a
        E 0 9f 36 5a
        E 0 92 4e 64
        E 0 82 51 64
        E 0 83 45 64
        E 0 87 4a 64
        E 0 8f 36 64
        E 1 92 4a 64
        E 0 93 45 5a
        E 0 97 45 64
        E 0 9f 36 5a
        E 0 82 4e 64
        E 0 92 4e 64
        E 0 82 4a 64
        E 0 83 45 64
        E 0 8f 36 64
        E 0 93 45 5a
        E 0 9f 36 5a
        E 0 92 51 64
        E 0 82 4e 64
        E 0 83 45 64
        E 0 87 45 64
        E 0 8f 36 64
        E 0 92 56 64
        E 0 93 45 5a
        E 0 97 42 64
        E 0 9f 36 5a
        E 0 82 51 64
        E 0 92 4a 64
        E 0 82 56 64
        E 0 83 45 64
        E 0 8f 36 64
        E 0 93 45 5a
        E 0 9f 36 5a
        E 0 92 4a 64
        E 0 82 4a 64
        E 0 83 45 64
        E 0 87 42 64
        E 0 8f 36 64
        E 0 92 4a 64
        E 0 93 45 5a
        E 0 97 3e 64
        E 0 9f 36 5a
        E 0 82 4a 64
        E 0 92 4a 64
        E 0 82 4a 64
        E 0 83 45 64
        E 0 8f 36 64
        E 0 93 45 5a
        E 0 9f 36 5a
        E 0 92 4a 64
        E 0 82 4a 64
        E 0 83 45 64
        E 0 87 3e 64
        E 0 8f 36 64
        E 0 92 52 66
        E 1 93 3e 5a
        E 0 97 46 66
        E 0 9f 37 5a
        E 0 82 4a 64
        E 0 97 4a 64
        E 0 87 46 66
        E 0 97 48 64
        E 0 87 4a 64
        E 0 83 3e 64
        E 0 8f 37 64
        E 0 93 3e 5a
        E 0 97 46 66
        E 0 9f 37 5a
        E 0 87 48 64
        E 0 83 3e 64
        E 0 87 46 66
        E 0 8f 37 64
        E 0 93 3e 5a
        E 4 9f 37 5a
        E 2 97 43 64
        E 0 97 45 64
        E 0 87 43 64
        E 0 83 3e 64
        E 0 8f 37 64
        E 0 93 43 5a
        E 0 97 46 66
        E 0 9f 37 5a
        E 0 87 45 64
        E 0 97 48 64
        E 0 87 46 66
        E 0 97 4a 64
        E 0 87 48 64
        E 1 82 52 66
        E 0 83 43 64
        E 0 8f 37 64
        E 0 92 52 66
        E 0 93 43 5a
        E 0 97 4b 66
        E 0 9f 30 5a
        E 0 87 4a 64
        E 0 97 4d 64
        E 0 82 52 66
        E 0 87 4b 66
        E 0 92 4f 64
        E 0 97 4f 64
        E 0 87 4d 64
        E 0 82 4f 64
        E 0 83 43 64
        E 0 8f 30 64
        E 0 92 4b 66
        E 0 93 43 5a
        E 0 97 4f 64
        E 0 9f 30 5a
        E 0 87 4f 64
        E 0 82 4b 66
        E 0 92 48 64
        E 0 82 48 64
        E 0 83 43 64
        E 0 87 4f 64
        E 0 8f 30 64
        E 0 92 3f 66
        E 0 93 43 5a
        E 0 97 4f 64
        E 0 9f 30 5a
        E 0 97 4d 64
        E 0 87 4f 64
        E 0 97 4b 66
        E 0 87 4d 64
        E 0 82 3f 66
        E 0 83 43 64
        E 0 8f 30 64
        E 0 93 3f 5b
        E 0 97 4a 64
        E 0 9f 30 5a
        E 0 87 4b 66
        E 0 97 48 64
        E 0 87 4a 64
        E 0 97 46 66
        E 0 87 48 64
        E 0 83 3f 66
        E 0 8f 30 64
        E 0 92 51 64
        E 0 93 3c 5a
        E 0 97 45 64
        E 0 9f 35 5a
        E 0 87 46 66
        E 0 83 3c 64
        E 0 87 45 64
        E 0 8f 35 64
        E 0 93 3c 5a
        E 0 97 45 64
        E 0 9f 35 5a
        E 0 83 3c 64
        E 0 87 45 64
        E 0 8f 35 64
        E 0 93 3c 5a
        E 0 97 45 64
        E 0 9f 35 5a
        E 0 97 48 64
        E 0 87 45 64
        E 0 97 46 66
        E 0 87 48 64
        E 0 83 3c 64
        E 0 8f 35 64
        E 0 93 41 5a
        E 0 97 45 64
        E 1 9f 35 5a
        E 0 87 46 66
        E 0 97 43 64
        E 0 87 45 64
        E 0 97 41 64
        E 0 87 43 64
        E 0 82 51 64
        E 0 83 41 64
        E 0 8f 35 64
        E 0 92 51 64
        E 0 93 41 5a
        E 0 97 4a 64
        E 0 9f 2e 5b
        E 0 87 41 64
        E 0 97 4b 66
        E 0 82 51 64
        E 0 87 4a 64
        E 0 92 4d 64
        E 0 97 4d 64
        E 0 87 4b 66
        E 0 82 4d 64
        E 0 83 41 64
        E 0 8f 2e 66
        E 0 92 4a 64
        E 0 93 41 5a
        E 0 97 4d 64
        E 0 9f 2e 5b
        E 0 87 4d 64
        E 0 82 4a 64
        E 0 92 46 66
        E 0 82 46 66
        E 0 83 41 64
        E 0 87 4d 64
        E 0 8f 2e 66
        E 0 92 3e 64
        E 0 93 41 5a
        E 0 97 4d 64
        E 0 9f 2e 5b
        E 0 97 4b 66
        E 0 87 4d 64
        E 0 97 4a 64
        E 0 87 4b 66
        E 0 82 3e 64
        E 0 83 41 64
        E 0 8f 2e 66
        E 0 93 3e 5a
        E 0 97 48 64
        E 0 9f 2e 5b
        E 0 87 4a 64
        E 0 97 46 66
        E 0 87 48 64
        E 0 97 45 64
        E 0 87 46 66
        E 0 83 3e 64
        E 0 8f 2e 66
        E 0 92 4f 64
        E 1 93 3a 5b
        E 0 97 43 64
        E 0 9f 33 5b
        E 0 87 45 64
        E 0 83 3a 66
        E 0 87 43 64
        E 0 8f 33 66
        E 0 93 3a 5b
        E 0 97 43 64
        E 0 9f 33 5b
        E 0 83 3a 66
        E 0 87 43 64
        E 0 8f 33 66
        E 0 93 3a 5b
        E 0 97 43 64
        E 0 9f 33 5b
        E 0 97 3f 66
        E 0 87 43 64
        E 0 97 41 64
        E 0 87 3f 66
        E 0 83 3a 66
        E 0 8f 33 66
        E 0 93 3f 5b
        E 0 97 43 64
        E 0 9f 33 5b
        E 0 87 41 64
        E 0 97 45 64
        E 0 87 43 64
        E 0 97 46 66
        E 0 87 45 64
        E 0 82 4f 64
        E 0 83 3f 66
        E 0 8f 33 66
        E 0 92 4f 64
        E 0 93 37 5a
        E 0 97 48 64
        E 0 9f 33 5b
        E 0 87 46 66
        E 0 97 4a 64
        E 0 82 4f 64
        E 0 87 48 64
        E 0 92 4b 66
        E 0 97 4b 66
        E 0 87 4a 64
        E 0 82 4b 66
        E 0 83 37 64
        E 0 8f 33 66
        E 0 92 48 64
        E 0 93 37 5a
        E 0 97 4b 66
        E 0 9f 33 5b
        E 0 87 4b 66
        E 0 82 48 64
        E 0 92 43 64
        E 0 82 43 64
        E 0 83 37 64
        E 0 87 4b 66
        E 0 8f 33 66
        E 0 92 3f 66
        E 0 93 37 5a
        E 0 97 4b 66
        E 0 9f 33 5b
        E 0 97 4a 64
        E 0 87 4b 66
        E 0 97 48 64
        E 0 87 4a 64
        E 0 82 3f 66
        E 0 83 37 64
        E 0 8f 33 66
        E 0 93 3c 5a
        E 0 97 46 66
        E 0 9f 33 5b
        E 0 87 48 64
        E 0 97 45 64
        E 0 87 46 66
        E 0 97 43 64
        E 0 87 45 64
        E 0 83 3c 64
        E 0 8f 33 66
        E 0 92 4e 64
        E 0 93 3e 5a
        E 0 97 42 64
        E 0 9f 32 5a
        E 0 87 43 64
        E 0 83 3e 64
        E 0 87 42 64
        E 0 8f 32 64
        E 0 93 3e 5a
        E 0 97 3e 64
        E 0 9f 32 5a
        E 0 83 3e 64
        E 0 87 3e 64
        E 0 8f 32 64
        E 0 93 3e 5a
        E 0 9f 32 5a
        E 0 82 4e 64
        E 0 83 3e 64
        E 0 8f 32 64
        E 0 92 45 64
        E 1 93 3e 5a
        E 0 97 3e 64
        E 0 9f 32 5a
        E 0 82 45 64
        E 0 83 3e 64
        E 0 87 3e 64
        E 0 8f 32 64
        E 0 92 46 66
        E 0 93 3e 5a
        E 0 97 43 64
        E 0 9f 32 5a
        E 0 83 3e 64
        E 0 8f 32 64
        E 0 93 3e 5a
        E 0 9f 32 5a
        E 0 82 46 66
        E 0 83 3e 64
        E 0 87 43 64
        E 0 8f 32 64
        E 0 92 48 64
        E 0 93 3e 5a
        E 0 97 45 64
        E 0 9f 32 5a
        E 0 83 3e 64
        E 0 8f 32 64
        E 0 93 3e 5a
        E 0 9f 32 5a
        E 0 82 48 64
        E 0 83 3e 64
        E 0 87 45 64
        E 0 8f 32 64
        E 0 92 4a 64
        E 0 93 3e 5a
        E 0 97 46 66
        E 0 9f 32 5a
        E 0 83 3e 64
        E 0 8f 32 64
        E 0 93 3e 5a
        E 0 9f 32 5a
        E 0 82 4a 64
        E 0 83 3e 64
        E 0 87 46 66
        E 0 8f 32 64
        E 0 92 4b 66
        E 0 93 3e 5a
        E 0 97 48 64
        E 0 9f 32 5a
        E 0 83 3e 64
        E 0 8f 32 64
        E 0 93 3e 5a
        E 0 9f 32 5a
        E 0 82 4b 66
        E 0 83 3e 64
        E 0 87 48 64
        E 0 8f 32 64
        E 0 92 4a 64
        E 0 93 3e 5a
        E 0 97 4a 64
        E 0 9f 32 5a
        E 0 82 4a 64
        E 0 83 3e 64
        E 0 87 4a 64
        E 0 8f 32 64
        E 0 92 48 64
        E 0 93 3e 5a
        E 0 97 3e 64
        E 0 9f 32 5a
        E 38403 82 48 64
        E 1 83 3e 64
        E 0 87 3e 64
        E 0 8f 32 64
        E 0 92 46 66
        E 0 93 3e 5a
        E 0 9f 32 5a
        E 0 82 46 66
        E 0 83 3e 64
        E 0 8f 32 64
        E 0 92 45 64
        E 0 93 3e 5a
        E 0 97 3e 64
        E 0 9f 36 5a
        E 0 82 45 64
        E 0 83 3e 64
        E 0 87 3e 64
        E 0 8f 36 64
        E 0 92 4f 64
        E 0 93 46 5b
        E 0 97 43 64
        E 0 9f 37 5a
        E 0 92 4a 64
        E 0 82 4f 64
        E 0 92 48 64
        E 0 82 4a 64
        E 0 83 46 66
        E 0 87 43 64
        E 0 8f 37 64
        E 0 92 46 66
        E 0 93 46 5b
        E 0 97 43 64
        E 0 9f 37 5a
        E 0 82 48 64
        E 0 92 45 64
        E 0 82 46 66
        E 0 92 43 64
        E 0 82 45 64
        E 0 83 46 66
        E 0 87 43 64
        E 0 8f 37 64
        E 0 92 4f 64
        E 0 93 45 5a
        E 0 97 43 64
        E 0 9f 35 5a
        E 0 82 43 64
        E 0 92 4a 64
        E 0 82 4f 64
        E 0 92 48 64
        E 0 82 4a 64
        E 0 83 45 64
        E 0 87 43 64
        E 0 8f 35 64
        E 0 92 46 66
        E 0 93 45 5a
        E 0 97 45 64
        E 0 9f 35 5a
        E 0 82 48 64
        E 0 92 45 64
        E 0 82 46 66
        E 0 92 43 64
        E 0 82 45 64
        E 0 83 45 64
        E 0 87 45 64
        E 1 8f 35 64
        E 0 92 4f 64
        E 0 93 43 5a
        E 0 97 46 66
        E 0 9f 33 5b
        E 0 82 43 64
        E 0 92 4a 64
        E 0 82 4f 64
        E 0 92 48 64
        E 0 82 4a 64
        E 0 83 43 64
        E 0 87 46 66
        E 0 8f 33 66
        E 0 92 46 66
        E 0 93 43 5a
        E 0 97 43 64
        E 0 9f 33 5b
        E 0 82 48 64
        E 0 92 45 64
        E 0 82 46 66
        E 0 87 43 64
        E 0 97 45 64
        E 0 92 43 64
        E 0 82 45 64
        E 0 83 43 64
        E 0 87 45 64
        E 0 8f 33 66
        E 0 92 4f 64
        E 0 93 41 5a
        E 0 97 46 66
        E 0 9f 32 5a
        E 0 82 43 64
        E 0 92 4a 64
        E 0 82 4f 64
        E 0 92 48 64
        E 0 82 4a 64
        E 0 83 41 64
        E 0 87 46 66
        E 0 8f 32 64
        E 0 92 46 66
        E 0 93 41 5a
        E 0 97 48 64
        E 0 9f 32 5a
        E 0 82 48 64
        E 0 92 45 64
        E 0 82 46 66
        E 0 92 43 64
        E 0 82 45 64
        E 0 83 41 64
        E 0 87 48 64
        E 0 8f 32 64
        E 0 92 4f 64
        E 0 93 3f 5b
        E 0 97 4a 64
        E 0 9f 30 5a
        E 0 82 43 64
        E 0 92 4a 64
        E 0 82 4f 64
        E 0 92 48 64
        E 0 82 4a 64
        E 0 83 3f 66
        E 0 87 4a 64
        E 0 8f 30 64
        E 0 92 46 66
        E 0 93 3f 5b
        E 0 97 46 66
        E 0 9f 30 5a
        E 0 82 48 64
        E 0 92 45 64
        E 0 82 46 66
        E 0 87 46 66
        E 0 97 48 64
        E 0 92 43 64
        E 0 82 45 64
        E 0 83 3f 66
        E 0 87 48 64
        E 0 8f 30 64
        E 0 92 4f 64
        E 0 93 3e 5a
        E 0 97 4a 64
        E 0 9f 2e 5b
        E 0 82 43 64
        E 0 92 4a 64
        E 0 82 4f 64
        E 0 92 48 64
        E 0 82 4a 64
        E 0 83 3e 64
        E 0 87 4a 64
        E 0 8f 2e 66
        E 1 92 46 66
        E 0 93 3e 5a
        E 0 97 4a 64
        E 0 9f 2e 5b
        E 0 82 48 64
        E 0 92 45 64
        E 0 82 46 66
        E 0 92 43 64
        E 0 82 45 64
        E 0 83 3e 64
        E 0 87 4a 64
        E 0 8f 2e 66
        E 0 92 4f 64
        E 0 93 3c 5a
        E 0 97 4f 64
        E 0 9f 2d 5a
        E 0 82 43 64
        E 0 92 4a 64
        E 0 97 4a 64
        E 0 82 4f 64
        E 0 87 4f 64
        E 0 92 48 64
        E 0 97 48 64
        E 0 82 4a 64
        E 0 87 4a 64
        E 0 83 3c 64
        E 0 8f 2d 64
        E 0 92 46 66
        E 0 93 3c 5a
        E 0 97 46 66
        E 0 9f 2d 5a
        E 0 82 48 64
        E 0 87 48 64
        E 0 92 45 64
        E 0 97 45 64
        E 0 82 46 66
        E 0 87 46 66
        E 0 92 43 64
        E 0 97 43 64
        E 0 82 45 64
        E 0 87 45 64
        E 0 83 3c 64
        E 0 8f 2d 64
        E 0 92 4f 64
        E 0 93 3a 5b
        E 0 97 4f 64
        E 0 9f 2b 5a
        E 0 82 43 64
        E 0 87 43 64
        E 0 92 4a 64
        E 0 97 4a 64
        E 0 82 4f 64
        E 0 87 4f 64
        E 0 92 48 64
        E 0 97 48 64
        E 0 82 4a 64
        E 0 87 4a 64
        E 0 83 3a 66
        E 0 8f 2b 64
        E 0 92 46 66
        E 0 93 3a 5b
        E 0 97 46 66
        E 0 9f 2b 5a
        E 0 82 48 64
        E 0 87 48 64
        E 0 92 45 64
        E 0 97 45 64
        E 0 82 46 66
        E 0 87 46 66
        E 0 92 43 64
        E 0 97 43 64
        E 0 82 45 64
        E 0 87 45 64
        E 0 83 3a 66
        E 0 8f 2b 64
        E 0 92 3c 64
        E 0 93 3c 5a
        E 0 97 3c 64
        E 0 9f 30 5a
        E 0 82 43 64
        E 0 87 43 64
        E 0 82 3c 64
        E 0 83 3c 64
        E 0 8f 30 64
        E 0 92 3c 64
        E 0 93 3c 5a
        E 0 9f 30 5a
        E 0 82 3c 64
        E 0 83 3c 64
        E 0 87 3c 64
        E 0 8f 30 64
        E 0 92 3e 64
        E 1 93 3e 5a
        E 0 97 3e 64
        E 0 9f 32 5a
        E 0 82 3e 64
        E 0 83 3e 64
        E 0 8f 32 64
        E 0 92 3e 64
        E 0 93 3e 5a
        E 0 9f 32 5a
        E 0 82 3e 64
        E 0 83 3e 64
        E 0 87 3e 64
        E 0 8f 32 64
        E 0 92 43 64
        E 0 93 3a 5b
        E 0 97 37 64
        E 0 9f 2b 5a
        E 0 92 46 66
        E 0 82 43 64
        E 0 83 3a 66
        E 0 8f 2b 64
        E 0 93 3a 5b
        E 0 9f 37 5a
        E 0 92 48 64
        E 0 82 46 66
        E 0 83 3a 66
        E 0 8f 37 64
        E 0 92 4a 64
        E 0 93 3a 5b
        E 0 9f 37 5a
        E 0 82 48 64
        E 0 92 4c 64
        E 0 82 4a 64
        E 0 83 3a 66
        E 0 8f 37 64
        E 0 93 3a 5b
        E 0 9f 37 5a
        E 0 92 4e 64
        E 0 82 4c 64
        E 0 83 3a 66
        E 0 87 37 64
        E 0 8f 37 64
        E 0 92 4f 64
        E 0 93 3a 5b
        E 0 9f 37 5a
        E 0 82 4e 64
        E 0 83 3a 66
        E 0 8f 37 64
        E 0 93 39 5a
        E 0 9f 35 5a
        E 0 82 4f 64
        E 0 83 39 64
        E 0 8f 35 64
        E 0 92 37 64
        E 0 93 37 5a
        E 0 9f 33 5b
        E 0 83 37 64
        E 0 8f 33 66
        E 0 93 36 5a
        E 1 9f 32 5a
        E 0 82 37 64
        E 0 83 36 64
        E 0 8f 32 64
        E 0 92 3f 66
        E 0 93 37 5a
        E 0 9f 30 5a
        E 0 92 41 64
        E 0 82 3f 66
        E 0 83 37 64
        E 0 8f 30 64
        E 0 93 3f 5b
        E 0 9f 30 5a
        E 0 92 43 64
        E 0 82 41 64
        E 0 83 3f 66
        E 0 8f 30 64
        E 0 92 45 64
        E 0 93 3f 5b
        E 0 9f 30 5a
        E 0 82 43 64
        E 0 92 46 66
        E 0 82 45 64
        E 0 83 3f 66
        E 0 8f 30 64
        E 0 93 3f 5b
        E 0 9f 30 5a
        E 0 92 48 64
        E 0 82 46 66
        E 0 83 3f 66
        E 0 8f 30 64
        E 0 92 48 64
        E 0 93 3f 5b
        E 0 9f 30 5a
        E 0 82 48 64
        E 0 92 4a 64
        E 0 82 48 64
        E 0 83 3f 66
        E 0 8f 30 64
        E 0 93 41 5a
        E 0 9f 32 5a
        E 0 92 4b 66
        E 0 82 4a 64
        E 0 83 41 64
        E 0 8f 32 64
        E 0 92 4b 66
        E 0 93 43 5a
        E 0 9f 33 5b
        E 0 82 4b 66
        E 0 92 4d 64
        E 0 82 4b 66
        E 0 83 43 64
        E 0 8f 33 66
        E 0 93 3f 5b
        E 1 9f 30 5a
        E 0 92 4f 64
        E 0 82 4d 64
        E 0 83 3f 66
        E 0 8f 30 64
        E 0 92 4e 64
        E 0 93 39 5a
        E 0 9f 32 5a
        E 0 82 4f 64
        E 0 92 51 64
        E 0 82 4e 64
        E 0 83 39 64
        E 0 8f 32 64
        E 0 93 39 5a
        E 0 9f 32 5a
        E 0 92 4f 64
        E 0 82 51 64
        E 0 83 39 64
        E 0 8f 32 64
        E 0 92 4e 64
        E 0 93 39 5a
        E 0 9f 32 5a
        E 0 82 4f 64
        E 0 92 4c 64
        E 0 82 4e 64
        E 0 83 39 64
        E 0 8f 32 64
        E 0 93 39 5a
        E 0 9f 32 5a
        E 0 92 4a 64
        E 0 82 4c 64
        E 0 83 39 64
        E 0 8f 32 64
        E 0 92 48 64
        E 0 93 39 5a
        E 0 9f 32 5a
        E 0 82 4a 64
        E 0 92 4a 64
        E 0 82 48 64
        E 0 83 39 64
        E 0 8f 32 64
        E 0 93 39 5a
        E 0 9f 32 5a
        E 0 92 4c 64
        E 0 82 4a 64
        E 0 83 39 64
        E 0 8f 32 64
        E 0 92 3e 64
        E 0 93 39 5a
        E 0 9f 34 5a
        E 0 82 4c 64
        E 0 92 40 64
        E 0 82 3e 64
        E 0 83 39 64
        E 0 8f 34 64
        E 0 93 39 5a
        E 0 9f 36 5a
        E 0 92 42 64
        E 0 82 40 64
        E 0 83 39 64
        E 0 8f 36 64
        E 0 92 43 64
        E 0 93 3a 5b
        E 0 9f 37 5a
        E 0 82 42 64
        E 0 92 3e 64
        E 0 93 3e 5a
        E 0 9f 32 5a
        E 0 82 43 64
        E 0 83 3a 66
        E 0 8f 37 64
        E 0 92 3c 64
        E 0 93 3c 5a
        E 0 9f 30 5a
        E 0 82 3e 64
        E 0 83 3e 64
        E 0 8f 32 64
        E 0 92 3a 66
        E 0 93 3a 5b
        E 0 9f 2e 5b
        E 0 82 3c 64
        E 0 83 3c 64
        E 0 8f 30 64
        E 0 92 39 64
        E 0 93 39 5a
        E 0 9f 2d 5a
        E 0 82 3a 66
        E 0 83 3a 66
        E 0 8f 2e 66
        E 0 92 37 64
        E 0 93 37 5a
        E 0 9f 2b 5a
        E 0 82 39 64
        E 0 83 39 64
        E 0 8f 2d 64
        E 0 92 3c 64
        E 0 93 3c 5a
        E 0 9f 30 5a
        E 0 82 37 64
        E 0 83 37 64
        E 0 8f 2b 64
        E 0 82 3c 64
        E 0 83 3c 64
        E 0 8f 30 64
        E 0 92 3e 64
        E 0 93 3e 5a
        E 0 9f 32 5a
        E 0 82 3e 64
        E 0 83 3e 64
        E 0 8f 32 64
        E 0 92 37 64
        E 0 93 37 5a
        E 0 9f 2b 5a
        E 0 82 37 64
        E 1 83 37 64
        E 0 8f 2b 64
        E 0 92 3e 64
        E 0 93 3e 5a
        E 0 97 3e 64
        E 0 82 3e 64
        E 0 83 3e 64
        E 0 87 3e 64
        E 0 92 43 64
        E 0 93 3a 5b
        E 0 97 43 64
        E 0 9f 37 5a
        E 0 82 43 64
        E 0 92 43 64
        E 0 82 43 64
        E 0 83 3a 66
        E 0 87 43 64
        E 0 92 45 64
        E 0 93 3a 5b
        E 0 97 43 64
        E 0 82 45 64
        E 0 92 43 64
        E 0 82 43 64
        E 0 83 3a 66
        E 0 87 43 64
        E 0 92 43 64
        E 0 93 3a 5b
        E 0 97 43 64
        E 0 82 43 64
        E 0 87 43 64
        E 0 92 43 64
        E 0 97 45 64
        E 0 82 43 64
        E 0 83 3a 66
        E 0 87 45 64
        E 0 92 45 64
        E 0 93 3a 5b
        E 0 97 46 66
        E 0 82 45 64
        E 0 87 46 66
        E 0 92 43 64
        E 0 97 48 64
        E 0 82 43 64
        E 0 83 3a 66
        E 0 87 48 64
        E 0 8f 37 64
        E 0 92 4a 64
        E 0 93 39 5a
        E 0 97 4a 64
        E 0 9f 35 5a
        E 0 82 4a 64
        E 0 83 39 64
        E 0 87 4a 64
        E 0 92 3e 64
        E 0 93 39 5a
        E 0 97 3e 64
        E 0 82 3e 64
        E 0 83 39 64
        E 0 87 3e 64
        E 0 93 39 5a
        E 0 83 39 64
        E 0 92 4a 64
        E 0 93 39 5a
        E 0 97 3e 64
        E 0 82 4a 64
        E 0 83 39 64
        E 0 87 3e 64
        E 0 8f 35 64
        E 0 92 4f 64
        E 0 93 37 5a
        E 0 97 43 64
        E 0 9f 33 5b
        E 0 82 4f 64
        E 0 92 4f 64
        E 0 82 4f 64
        E 0 83 37 64
        E 0 87 43 64
        E 0 92 51 64
        E 0 93 37 5a
        E 0 97 43 64
        E 0 82 51 64
        E 0 92 4f 64
        E 0 82 4f 64
        E 0 83 37 64
        E 0 87 43 64
        E 0 92 4f 64
        E 0 93 37 5a
        E 0 97 43 64
        E 0 82 4f 64
        E 0 87 43 64
        E 0 92 4f 64
        E 0 97 45 64
        E 0 82 4f 64
        E 0 83 37 64
        E 0 87 45 64
        E 0 92 51 64
        E 0 93 37 5a
        E 0 97 46 66
        E 0 82 51 64
        E 0 87 46 66
        E 0 92 4f 64
        E 0 97 48 64
        E 0 82 4f 64
        E 0 83 37 64
        E 0 87 48 64
        E 0 8f 33 66
        E 0 92 56 64
        E 0 93 36 5a
        E 1 97 4a 64
        E 0 9f 32 5a
        E 0 82 56 64
        E 0 83 36 64
        E 0 87 4a 64
        E 0 92 4a 64
        E 0 93 36 5a
        E 0 97 3e 64
        E 0 82 4a 64
        E 0 83 36 64
        E 0 87 3e 64
        E 0 93 36 5a
        E 0 83 36 64
        E 0 92 4a 64
        E 0 93 36 5a
        E 0 97 4a 64
        E 0 82 4a 64
        E 0 83 36 64
        E 0 87 4a 64
        E 0 92 48 64
        E 0 93 42 5a
        E 0 97 48 64
        E 0 82 48 64
        E 0 92 48 64
        E 0 82 48 64
        E 0 83 42 64
        E 0 92 4a 64
        E 0 93 42 5a
        E 0 82 4a 64
        E 0 92 48 64
        E 0 82 48 64
        E 0 83 42 64
        E 0 92 48 64
        E 0 93 42 5a
        E 0 82 48 64
        E 0 92 48 64
        E 0 82 48 64
        E 0 83 42 64
        E 0 92 4a 64
        E 0 93 42 5a
        E 0 82 4a 64
        E 0 92 48 64
        E 0 82 48 64
        E 0 83 42 64
        E 0 87 48 64
        E 0 8f 32 64
        E 0 92 46 66
        E 0 93 43 5a
        E 0 97 46 66
        E 1 9f 32 5a
        E 0 82 46 66
        E 0 92 46 66
        E 0 82 46 66
        E 0 83 43 64
        E 0 92 48 64
        E 0 93 37 5a
        E 0 82 48 64
        E 0 92 46 66
        E 0 82 46 66
        E 0 83 37 64
        E 0 92 46 66
        E 0 93 37 5a
        E 0 82 46 66
        E 0 92 46 66
        E 0 82 46 66
        E 0 83 37 64
        E 0 92 48 64
        E 0 93 37 5a
        E 0 82 48 64
        E 0 92 46 66
        E 0 82 46 66
        E 0 83 37 64
        E 0 87 46 66
        E 0 92 45 64
        E 0 93 3e 5a
        E 0 97 45 64
        E 0 82 45 64
        E 0 92 45 64
        E 0 82 45 64
        E 0 83 3e 64
        E 0 92 46 66
        E 0 93 3e 5a
        E 0 82 46 66
        E 0 92 45 64
        E 0 82 45 64
        E 0 83 3e 64
        E 0 92 45 64
        E 0 93 3e 5a
        E 0 82 45 64
        E 0 92 45 64
        E 0 82 45 64
        E 0 83 3e 64
        E 0 87 45 64
        E 0 92 46 66
        E 0 93 3e 5a
        E 0 97 4a 64
        E 0 82 46 66
        E 0 92 45 64
        E 0 82 45 64
        E 0 83 3e 64
        E 0 87 4a 64
        E 0 8f 32 64
        E 0 92 43 64
        E 0 93 3e 5a
        E 0 97 43 64
        E 0 9f 32 5a
        E 0 82 43 64
        E 0 92 43 64
        E 0 82 43 64
        E 0 83 3e 64
        E 0 92 45 64
        E 0 93 3e 5a
        E 0 82 45 64
        E 0 92 43 64
        E 0 82 43 64
        E 0 83 3e 64
        E 0 92 43 64
        E 0 93 3d 5a
        E 0 82 43 64
        E 0 92 43 64
        E 0 82 43 64
        E 0 83 3d 64
        E 0 92 45 64
        E 0 93 3d 5a
        E 0 82 45 64
        E 0 92 43 64
        E 0 82 43 64
        E 0 83 3d 64
        E 0 87 43 64
        E 0 8f 32 64
        E 1 92 42 64
        E 0 93 3e 5a
        E 0 97 42 64
        E 0 9f 32 5a
        E 0 82 42 64
        E 0 83 3e 64
        E 0 8f 32 64
        E 0 92 3e 64
        E 0 93 3e 5a
        E 0 9f 32 5a
        E 0 82 3e 64
        E 0 83 3e 64
        E 0 87 42 64
        E 0 8f 32 64
        E 0 92 3e 64
        E 0 93 3e 5a
        E 0 9f 32 5a
        E 0 82 3e 64
        E 0 83 3e 64
        E 0 8f 32 64
        E 0 92 3e 64
        E 0 93 3e 5a
        E 0 97 3e 64
        E 0 9f 32 5a
        E 0 82 3e 64
        E 0 83 3e 64
        E 0 87 3e 64
        E 0 8f 32 64
        E 0 92 52 66
        E 0 93 41 5a
        E 0 97 46 66
        E 0 9f 32 5a
        E 0 92 4d 64
        E 0 82 52 66
        E 0 83 41 64
        E 0 8f 32 64
        E 0 93 41 5a
        E 0 9f 32 5a
        E 0 92 4a 64
        E 0 82 4d 64
        E 0 83 41 64
        E 0 87 46 66
        E 0 8f 32 64
        E 0 92 46 66
        E 0 93 41 5a
        E 0 97 4a 64
        E 0 9f 32 5a
        E 0 82 4a 64
        E 0 92 4a 64
        E 0 82 46 66
        E 0 83 41 64
        E 0 8f 32 64
        E 0 93 41 5a
        E 0 9f 32 5a
        E 38403 92 4d 64
        E 0 82 4a 64
        E 0 83 41 64
        E 0 87 4a 64
        E 0 8f 32 64
        E 0 92 52 66
        E 0 93 41 5a
        E 0 97 46 66
        E 0 9f 32 5a
        E 0 82 4d 64
        E 0 92 46 66
        E 0 82 52 66
        E 0 83 41 64
        E 0 8f 32 64
        E 0 93 41 5a
        E 0 9f 32 5a
        E 0 92 46 66
        E 0 82 46 66
        E 0 83 41 64
        E 0 87 46 66
        E 0 8f 32 64
        E 0 92 46 66
        E 0 93 41 5a
        E 0 97 41 64
        E 0 9f 32 5a
        E 0 82 46 66
        E 0 92 46 66
        E 0 82 46 66
        E 0 83 41 64
        E 0 8f 32 64
        E 0 93 41 5a
        E 0 9f 32 5a
        E 0 92 46 66
        E 0 82 46 66
        E 0 83 41 64
        E 1 87 41 64
        E 0 8f 32 64
        E 0 92 43 64
        E 0 93 3a 5b
        E 0 97 43 64
        E 0 9f 33 5b
        E 0 82 46 66
        E 0 92 3f 66
        E 0 82 43 64
        E 0 83 3a 66
        E 0 8f 33 66
        E 0 93 3a 5b
        E 0 9f 33 5b
        E 0 92 3a 66
        E 0 82 3f 66
        E 0 83 3a 66
        E 0 87 43 64
        E 0 8f 33 66
        E 0 92 37 64
        E 0 93 3a 5b
        E 0 97 3f 66
        E 0 9f 33 5b
        E 0 82 3a 66
        E 0 92 3a 66
        E 0 82 37 64
        E 0 83 3a 66
        E 0 8f 33 66
        E 0 93 3a 5b
        E 0 9f 33 5b
        E 0 92 3f 66
        E 0 82 3a 66
        E 0 83 3a 66
        E 0 87 3f 66
        E 0 8f 33 66
        E 0 92 43 64
        E 0 93 3a 5b
        E 0 9f 33 5b
        E 0 82 3f 66
        E 0 83 3a 66
        E 0 8f 33 66
        E 0 93 3a 5b
        E 0 9f 33 5b
        E 0 82 43 64
        E 0 83 3a 66
        E 0 8f 33 66
        E 0 93 3a 5b
        E 0 97 43 64
        E 0 9f 33 5b
        E 0 83 3a 66
        E 0 8f 33 66
        E 0 93 3a 5b
        E 0 9f 33 5b
        E 0 83 3a 66
        E 0 87 43 64
        E 0 8f 33 66
        E 0 92 54 64
        E 0 93 43 5a
        E 0 97 48 64
        E 0 9f 34 5a
        E 0 92 4f 64
        E 0 82 54 64
        E 0 83 43 64
        E 0 8f 34 64
        E 0 93 43 5a
        E 0 9f 34 5a
        E 0 92 4c 64
        E 0 82 4f 64
        E 0 83 43 64
        E 0 87 48 64
        E 0 8f 34 64
        E 0 92 48 64
        E 0 93 43 5a
        E 0 97 4c 64
        E 0 9f 34 5a
        E 0 82 4c 64
        E 0 92 4c 64
        E 0 82 48 64
        E 0 83 43 64
        E 0 8f 34 64
        E 0 93 43 5a
        E 0 9f 34 5a
        E 0 92 4f 64
        E 0 82 4c 64
        E 0 83 43 64
        E 0 87 4c 64
        E 0 8f 34 64
        E 0 92 54 64
        E 0 93 43 5a
        E 0 97 48 64
        E 0 9f 34 5a
        E 0 82 4f 64
        E 0 92 48 64
        E 0 82 54 64
        E 0 83 43 64
        E 0 8f 34 64
        E 0 93 43 5a
        E 0 9f 34 5a
        E 0 92 48 64
        E 0 82 48 64
        E 0 83 43 64
        E 0 87 48 64
        E 0 8f 34 64
        E 0 92 48 64
        E 0 93 43 5a
        E 0 97 43 64
        E 0 9f 34 5a
        E 0 82 48 64
        E 1 92 48 64
        E 0 82 48 64
        E 0 83 43 64
        E 0 8f 34 64
        E 0 93 43 5a
        E 0 9f 34 5a
        E 0 92 48 64
        E 0 82 48 64
        E 0 83 43 64
        E 0 87 43 64
        E 0 8f 34 64
        E 0 92 45 64
        E 0 93 3c 5a
        E 0 97 45 64
        E 0 9f 35 5a
        E 0 82 48 64
        E 0 92 41 64
        E 0 82 45 64
        E 0 83 3c 64
        E 0 8f 35 64
        E 0 93 3c 5a
        E 0 9f 35 5a
        E 0 92 3c 64
        E 0 82 41 64
        E 0 83 3c 64
        E 0 87 45 64
        E 0 8f 35 64
        E 0 92 39 64
        E 0 93 3c 5a
        E 0 97 41 64
        E 0 9f 35 5a
        E 0 82 3c 64
        E 0 92 3c 64
        E 0 82 39 64
        E 0 83 3c 64
        E 0 8f 35 64
        E 0 93 3c 5a
        E 0 9f 35 5a
        E 0 92 41 64
        E 0 82 3c 64
        E 0 83 3c 64
        E 0 87 41 64
        E 0 8f 35 64
        E 0 92 45 64
        E 0 93 3c 5a
        E 0 9f 35 5a
        E 0 82 41 64
        E 0 83 3c 64
        E 0 8f 35 64
        E 0 93 3c 5a
        E 0 9f 35 5a
        E 0 82 45 64
        E 0 83 3c 64
        E 0 8f 35 64
        E 0 93 3c 5a
        E 0 97 45 64
        E 0 9f 35 5a
        E 0 83 3c 64
        E 0 8f 35 64
        E 0 93 3c 5a
        E 0 9f 35 5a
        E 0 83 3c 64
        E 0 87 45 64
        E 0 8f 35 64
        E 0 92 56 64
        E 0 93 45 5a
        E 0 97 3e 64
        E 0 9f 36 5a
        E 0 92 51 64
        E 0 82 56 64
        E 0 83 45 64
        E 0 8f 36 64
        E 1 93 45 5a
        E 0 9f 36 5a
        E 0 92 4e 64
        E 0 82 51 64
        E 0 83 45 64
        E 0 87 3e 64
        E 0 8f 36 64
        E 0 92 4a 64
        E 0 93 45 5a
        E 0 97 42 64
        E 0 9f 36 5a
        E 0 82 4e 64
        E 0 92 4e 64
        E 0 82 4a 64
        E 0 83 45 64
        E 0 8f 36 64
        E 0 93 45 5a
        E 0 9f 36 5a
        E 0 92 51 64
        E 0 82 4e 64
        E 0 83 45 64
        E 0 87 42 64
        E 0 8f 36 64
        E 0 92 56 64
        E 0 93 45 5a
        E 0 97 45 64
        E 0 9f 36 5a
        E 0 82 51 64
        E 0 92 4a 64
        E 0 82 56 64
        E 0 83 45 64
        E 0 8f 36 64
        E 0 93 45 5a
        E 0 9f 36 5a
        E 0 92 4a 64
        E 0 82 4a 64
        E 0 83 45 64
        E 0 87 45 64
        E 0 8f 36 64
        E 0 92 4a 64
        E 0 93 45 5a
        E 0 97 4a 64
        E 0 9f 36 5a
        E 0 82 4a 64
        E 0 92 4a 64
        E 0 82 4a 64
        E 0 83 45 64
        E 0 8f 36 64
        E 0 93 45 5a
        E 1 9f 36 5a
        E 0 92 4a 64
        E 0 82 4a 64
        E 0 83 45 64
        E 0 87 4a 64
        E 0 8f 36 64
        E 0 92 52 66
        E 0 93 3e 5a
        E 0 97 46 66
        E 0 9f 37 5a
        E 0 82 4a 64
        E 0 97 4a 64
        E 0 87 46 66
        E 0 97 48 64
        E 0 87 4a 64
        E 0 83 3e 64
        E 0 8f 37 64
        E 0 93 3e 5a
        E 0 97 46 66
        E 0 9f 37 5a
        E 0 87 48 64
        E 0 97 45 64
        E 0 87 46 66
        E 0 97 43 64
        E 0 87 45 64
        E 0 83 3e 64
        E 0 8f 37 64
        E 0 93 3e 5a
        E 0 97 46 66
        E 0 9f 37 5a
        E 0 87 43 64
        E 0 97 4a 64
        E 0 87 46 66
        E 0 97 48 64
        E 0 87 4a 64
        E 0 83 3e 64
        E 0 8f 37 64
        E 0 93 3e 5a
        E 0 97 46 66
        E 0 9f 37 5a
        E 0 87 48 64
        E 0 97 45 64
        E 0 87 46 66
        E 0 97 43 64
        E 0 87 45 64
        E 0 82 52 66
        E 0 83 3e 64
        E 0 8f 37 64
        E 0 92 52 66
        E 0 93 3f 5b
        E 1 97 4b 66
        E 0 9f 30 5a
        E 0 87 43 64
        E 0 92 52 66
        E 0 82 52 66
        E 0 92 51 64
        E 0 82 52 66
        E 0 83 3f 66
        E 0 8f 30 64
        E 0 92 4f 64
        E 0 93 3f 5b
        E 0 9f 30 5a
        E 0 82 51 64
        E 0 92 4d 64
        E 0 82 4f 64
        E 0 92 4b 66
        E 0 82 4d 64
        E 0 83 3f 66
        E 0 87 4b 66
        E 0 8f 30 64
        E 0 92 52 66
        E 0 93 3f 5b
        E 0 97 4b 66
        E 0 9f 30 5a
        E 0 82 4b 66
        E 0 97 4a 64
        E 0 87 4b 66
        E 0 97 48 64
        E 0 87 4a 64
        E 0 83 3f 66
        E 0 8f 30 64
        E 0 93 3f 5b
        E 0 97 46 66
        E 0 9f 30 5a
        E 0 87 48 64
        E 0 97 45 64
        E 0 87 46 66
        E 0 97 43 64
        E 0 87 45 64
        E 0 82 52 66
        E 0 83 3f 66
        E 0 8f 30 64
        E 0 92 51 64
        E 0 93 3c 5a
        E 0 97 45 64
        E 0 9f 35 5a
        E 0 87 43 64
        E 0 97 48 64
        E 0 87 45 64
        E 0 97 46 66
        E 0 87 48 64
        E 0 83 3c 64
        E 0 8f 35 64
        E 0 93 3c 5a
        E 0 97 45 64
        E 0 9f 35 5a
        E 0 87 46 66
        E 0 97 43 64
        E 0 87 45 64
        E 0 97 41 64
        E 0 87 43 64
        E 0 83 3c 64
        E 0 8f 35 64
        E 0 93 3c 5a
        E 0 97 45 64
        E 0 9f 35 5a
        E 0 87 41 64
        E 0 97 48 64
        E 0 87 45 64
        E 1 97 46 66
        E 0 87 48 64
        E 0 83 3c 64
        E 0 8f 35 64
        E 0 93 3c 5a
        E 0 97 45 64
        E 0 9f 35 5a
        E 0 87 46 66
        E 0 97 43 64
        E 0 87 45 64
        E 0 97 41 64
        E 0 87 43 64
        E 0 82 51 64
        E 0 83 3c 64
        E 0 8f 35 64
        E 0 92 51 64
        E 0 93 3e 5a
        E 0 97 4a 64
        E 0 9f 2e 5b
        E 0 87 41 64
        E 0 92 51 64
        E 0 82 51 64
        E 0 92 4f 64
        E 0 82 51 64
        E 0 83 3e 64
        E 0 8f 2e 66
        E 0 92 4d 64
        E 0 93 3e 5a
        E 0 9f 2e 5b
        E 0 82 4f 64
        E 0 92 4b 66
        E 0 82 4d 64
        E 0 92 4a 64
        E 0 82 4b 66
        E 0 83 3e 64
        E 0 87 4a 64
        E 0 8f 2e 66
        E 0 92 51 64
        E 0 93 3e 5a
        E 0 97 4a 64
        E 0 9f 2e 5b
        E 0 82 4a 64
        E 1 97 48 64
        E 0 87 4a 64
        E 0 97 46 66
        E 0 87 48 64
        E 0 83 3e 64
        E 0 8f 2e 66
        E 0 93 3e 5a
        E 0 97 45 64
        E 0 9f 2e 5b
        E 0 87 46 66
        E 0 97 43 64
        E 0 87 45 64
        E 0 97 41 64
        E 0 87 43 64
        E 0 82 51 64
        E 0 83 3e 64
        E 0 8f 2e 66
        E 0 92 4f 64
        E 0 93 3a 5b
        E 0 97 43 64
        E 0 9f 33 5b
        E 0 87 41 64
        E 0 97 46 66
        E 0 87 43 64
        E 0 97 45 64
        E 0 87 46 66
        E 0 83 3a 66
        E 0 8f 33 66
        E 0 93 3a 5b
        E 0 97 43 64
        E 0 9f 33 5b
        E 0 87 45 64
        E 0 97 41 64
        E 0 87 43 64
        E 0 97 3f 66
        E 0 87 41 64
        E 0 83 3a 66
        E 0 8f 33 66
        E 0 93 3a 5b
        E 0 97 43 64
        E 0 9f 33 5b
        E 0 87 3f 66
        E 0 97 46 66
        E 0 87 43 64
        E 0 97 45 64
        E 0 87 46 66
        E 0 83 3a 66
        E 0 8f 33 66
        E 0 93 3a 5b
        E 0 97 43 64
        E 0 9f 33 5b
        E 0 87 45 64
        E 0 97 41 64
        E 0 87 43 64
        E 0 97 3f 66
        E 0 87 41 64
        E 0 82 4f 64
        E 0 83 3a 66
        E 0 8f 33 66
        E 0 92 4f 64
        E 0 93 3c 5a
        E 0 97 48 64
        E 0 9f 33 5b
        E 0 87 3f 66
        E 0 92 4f 64
        E 0 97 4a 64
        E 0 82 4f 64
        E 0 87 48 64
        E 0 92 4d 64
        E 0 97 4b 66
        E 0 82 4f 64
        E 0 87 4a 64
        E 0 83 3c 64
        E 0 8f 33 66
        E 0 92 4b 66
        E 0 93 3c 5a
        E 1 97 4b 66
        E 0 9f 33 5b
        E 0 82 4d 64
        E 0 87 4b 66
        E 0 92 4a 64
        E 0 82 4b 66
        E 0 92 48 64
        E 0 82 4a 64
        E 0 83 3c 64
        E 0 87 4b 66
        E 0 8f 33 66
        E 0 92 4f 64
        E 0 93 3c 5a
        E 0 97 4b 66
        E 0 9f 33 5b
        E 0 82 48 64
        E 0 97 4a 64
        E 0 87 4b 66
        E 0 97 48 64
        E 0 87 4a 64
        E 0 83 3c 64
        E 0 8f 33 66
        E 0 93 3c 5a
        E 0 97 46 66
        E 0 9f 33 5b
        E 0 87 48 64
        E 0 97 45 64
        E 0 87 46 66
        E 0 97 43 64
        E 0 87 45 64
        E 0 82 4f 64
        E 0 83 3c 64
        E 0 8f 33 66
        E 0 92 4d 64
        E 0 93 39 5a
        E 0 97 45 64
        E 0 9f 35 5a
        E 0 87 43 64
        E 0 92 45 64
        E 0 82 4d 64
        E 0 92 46 66
        E 0 82 45 64
        E 0 83 39 64
        E 0 87 45 64
        E 0 8f 35 64
        E 0 92 48 64
        E 0 93 39 5a
        E 0 97 41 64
        E 0 9f 35 5a
        E 0 82 46 66
        E 0 92 46 66
        E 0 82 48 64
        E 0 92 45 64
        E 0 82 46 66
        E 0 83 39 64
        E 0 87 41 64
        E 0 8f 35 64
        E 0 92 4d 64
        E 0 93 39 5a
        E 0 9f 35 5a
        E 0 82 45 64
        E 0 97 41 64
        E 1 97 43 64
        E 0 87 41 64
        E 0 82 4d 64
        E 0 83 39 64
        E 0 8f 35 64
        E 0 92 48 64
        E 0 93 39 5a
        E 0 97 45 64
        E 0 9f 35 5a
        E 0 87 43 64
        E 0 97 43 64
        E 0 87 45 64
        E 0 97 41 64
        E 0 87 43 64
        E 0 82 48 64
        E 0 83 39 64
        E 0 8f 35 64
        E 0 92 4a 64
        E 0 93 41 5a
        E 0 97 46 66
        E 0 9f 35 5a
        E 0 87 41 64
        E 0 97 41 64
        E 0 87 46 66
        E 0 97 43 64
        E 0 87 41 64
        E 0 83 41 64
        E 0 8f 35 64
        E 0 93 41 5a
        E 0 97 45 64
        E 0 9f 35 5a
        E 0 87 43 64
        E 0 97 43 64
        E 0 87 45 64
        E 0 97 41 64
        E 0 87 43 64
        E 0 82 4a 64
        E 0 83 41 64
        E 0 8f 35 64
        E 0 92 4b 66
        E 0 93 41 5a
        E 0 97 48 64
        E 0 9f 35 5a
        E 0 87 41 64
        E 0 97 41 64
        E 0 87 48 64
        E 0 97 43 64
        E 0 87 41 64
        E 0 83 41 64
        E 0 8f 35 64
        E 0 93 41 5a
        E 0 97 45 64
        E 0 9f 35 5a
        E 0 87 43 64
        E 1 97 43 64
        E 0 87 45 64
        E 0 97 41 64
        E 0 87 43 64
        E 0 82 4b 66
        E 0 83 41 64
        E 0 8f 35 64
        E 0 92 4d 64
        E 0 93 41 5a
        E 0 97 4a 64
        E 0 9f 35 5a
        E 0 87 41 64
        E 0 97 41 64
        E 0 87 4a 64
        E 0 97 43 64
        E 0 87 41 64
        E 0 83 41 64
        E 0 8f 35 64
        E 0 93 41 5a
        E 0 97 45 64
        E 0 9f 35 5a
        E 0 87 43 64
        E 0 97 43 64
        E 0 87 45 64
        E 0 97 41 64
        E 0 87 43 64
        E 0 82 4d 64
        E 0 83 41 64
        E 0 8f 35 64
        E 0 92 4f 64
        E 0 93 41 5a
        E 0 97 4b 66
        E 0 9f 35 5a
        E 0 87 41 64
        E 0 97 41 64
        E 0 87 4b 66
        E 0 97 43 64
        E 0 87 41 64
        E 0 83 41 64
        E 0 8f 35 64
        E 0 93 41 5a
        E 0 97 45 64
        E 0 9f 35 5a
        E 0 87 43 64
        E 0 97 43 64
        E 0 87 45 64
        E 0 97 41 64
        E 0 87 43 64
        E 0 82 4f 64
        E 0 83 41 64
        E 0 8f 35 64
        E 0 92 4d 64
        E 0 93 41 5a
        E 0 97 4d 64
        E 0 9f 41 5a
        E 0 87 41 64
        E 0 82 4d 64
        E 0 83 41 64
        E 0 87 4d 64
        E 0 8f 41 64
        E 0 92 4b 66
        E 0 93 3f 5b
        E 0 97 4b 66
        E 0 9f 3f 5b
        E 0 82 4b 66
        E 0 83 3f 66
        E 0 87 4b 66
        E 0 8f 3f 66
        E 0 92 4a 64
        E 0 93 3e 5a
        E 0 97 4a 64
        E 0 9f 3e 5a
        E 0 82 4a 64
        E 0 83 3e 64
        E 0 87 4a 64
        E 0 8f 3e 64
        E 0 92 48 64
        E 0 93 3c 5a
        E 0 97 48 64
        E 0 9f 3c 5a
        E 0 82 48 64
        E 0 83 3c 64
        E 0 87 48 64
        E 0 8f 3c 64
        E 0 92 46 66
        E 0 93 3a 5b
        E 0 97 46 66
        E 0 9f 3a 5b
        E 0 82 46 66
        E 0 83 3a 66
        E 0 87 46 66
        E 0 8f 3a 66
        E 0 92 45 64
        E 0 93 39 5a
        E 0 97 45 64
        E 0 9f 39 5a
        E 0 82 45 64
        E 0 83 39 64
        E 0 87 45 64
        E 0 8f 39 64
        E 0 92 43 64
        E 0 93 37 5a
        E 0 97 43 64
        E 0 9f 37 5a
        E 0 82 43 64
        E 0 83 37 64
        E 0 87 43 64
        E 0 8f 37 64
        E 0 92 41 64
        E 1 93 35 5a
        E 0 97 41 64
        E 0 9f 35 5a
        E 0 92 45 64
        E 0 82 41 64
        E 0 92 46 66
        E 0 82 45 64
        E 0 83 35 64
        E 0 8f 35 64
        E 0 92 48 64
        E 0 93 35 5a
        E 0 9f 35 5a
        E 0 82 46 66
        E 0 92 46 66
        E 0 82 48 64
        E 0 92 45 64
        E 0 82 46 66
        E 0 83 35 64
        E 0 87 41 64
        E 0 8f 35 64
        E 0 92 4d 64
        E 0 93 35 5a
        E 0 9f 35 5a
        E 0 82 45 64
        E 0 82 4d 64
        E 0 83 35 64
        E 0 8f 35 64
        E 0 93 35 5a
        E 0 97 41 64
        E 0 9f 35 5a
        E 0 83 35 64
        E 0 87 41 64
        E 0 8f 35 64
        E 0 92 4a 64
        E 0 93 3e 5a
        E 0 97 46 66
        E 0 9f 3a 5b
        E 0 82 4a 64
        E 0 92 4a 64
        E 0 82 4a 64
        E 0 83 3e 64
        E 0 87 46 66
        E 0 92 4b 66
        E 0 93 3e 5a
        E 0 97 46 66
        E 0 82 4b 66
        E 0 92 4a 64
        E 0 82 4a 64
        E 0 83 3e 64
        E 0 87 46 66
        E 0 92 4a 64
        E 0 93 3e 5a
        E 0 97 46 66
        E 0 82 4a 64
        E 0 92 4a 64
        E 0 82 4a 64
        E 0 83 3e 64
        E 0 87 46 66
        E 0 92 4b 66
        E 0 93 3e 5a
        E 0 97 46 66
        E 0 82 4b 66
        E 0 92 4a 64
        E 0 82 4a 64
        E 0 83 3e 64
        E 0 87 46 66
        E 0 8f 3a 66
        E 0 92 4a 64
        E 0 93 3c 5a
        E 0 97 46 66
        E 0 9f 39 5a
        E 0 82 4a 64
        E 0 92 4a 64
        E 0 82 4a 64
        E 0 83 3c 64
        E 0 87 46 66
        E 0 92 4b 66
        E 0 93 3c 5a
        E 0 97 4a 64
        E 0 82 4b 66
        E 0 87 4a 64
        E 0 92 4a 64
        E 0 97 48 64
        E 0 82 4a 64
        E 0 83 3c 64
        E 0 87 48 64
        E 0 92 4a 64
        E 0 93 3c 5a
        E 0 97 46 66
        E 0 82 4a 64
        E 0 92 4a 64
        E 0 82 4a 64
        E 0 83 3c 64
        E 1 87 46 66
        E 0 92 4b 66
        E 0 93 3c 5a
        E 0 97 46 66
        E 0 82 4b 66
        E 0 92 4a 64
        E 0 82 4a 64
        E 0 83 3c 64
        E 0 87 46 66
        E 0 8f 39 64
        E 0 92 4a 64
        E 0 93 3a 5b
        E 0 97 46 66
        E 0 9f 37 5a
        E 0 82 4a 64
        E 0 92 4a 64
        E 0 82 4a 64
        E 0 83 3a 66
        E 0 87 46 66
        E 0 92 4b 66
        E 0 93 3a 5b
        E 0 97 4a 64
        E 0 82 4b 66
        E 0 87 4a 64
        E 0 92 4a 64
        E 0 97 48 64
        E 0 82 4a 64
        E 0 83 3a 66
        E 0 87 48 64
        E 0 92 4a 64
        E 0 93 3a 5b
        E 0 97 46 66
        E 0 82 4a 64
        E 0 92 4a 64
        E 0 82 4a 64
        E 0 83 3a 66
        E 0 87 46 66
        E 0 92 4b 66
        E 0 93 3a 5b
        E 0 97 46 66
        E 0 82 4b 66
        E 0 92 4a 64
        E 0 82 4a 64
        E 0 83 3a 66
        E 0 87 46 66
        E 0 8f 37 64
        E 0 92 48 64
        E 0 93 41 5a
        E 1 97 4d 64
        E 0 9f 35 5a
        E 0 82 48 64
        E 0 92 48 64
        E 0 82 48 64
        E 0 83 41 64
        E 0 87 4d 64
        E 0 92 4a 64
        E 0 93 41 5a
        E 0 97 41 64
        E 0 82 4a 64
        E 0 92 48 64
        E 0 82 48 64
        E 0 83 41 64
        E 0 87 41 64
        E 0 92 48 64
        E 0 93 41 5a
        E 0 82 48 64
        E 0 92 48 64
        E 0 82 48 64
        E 0 83 41 64
        E 0 92 4a 64
        E 0 93 41 5a
        E 0 97 45 64
        E 0 82 4a 64
        E 0 92 48 64
        E 0 82 48 64
        E 0 83 41 64
        E 0 87 45 64
        E 0 8f 35 64
        E 0 92 52 66
        E 0 93 4a 5a
        E 0 97 46 66
        E 0 9f 3a 5b
        E 0 92 4d 64
        E 0 82 52 66
        E 0 92 4b 66
        E 0 82 4d 64
        E 0 83 4a 64
        E 0 87 46 66
        E 0 8f 3a 66
        E 0 92 4a 64
        E 0 93 4a 5a
        E 0 97 46 66
        E 0 9f 3a 5b
        E 0 82 4b 66
        E 0 92 48 64
        E 0 82 4a 64
        E 38404 92 46 66
        E 0 82 48 64
        E 0 83 4a 64
        E 0 87 46 66
        E 0 8f 3a 66
        E 0 92 52 66
        E 0 93 48 5a
        E 0 97 46 66
        E 0 9f 39 5a
        E 0 82 46 66
        E 0 92 4d 64
        E 0 82 52 66
        E 0 92 4b 66
        E 0 82 4d 64
        E 0 83 48 64
        E 0 87 46 66
        E 0 8f 39 64
        E 0 92 4a 64
        E 0 93 48 5a
        E 0 97 48 64
        E 0 9f 39 5a
        E 0 82 4b 66
        E 0 92 48 64
        E 0 82 4a 64
        E 0 92 46 66
        E 0 82 48 64
        E 0 83 48 64
        E 0 87 48 64
        E 0 8f 39 64
        E 0 92 52 66
        E 0 93 46 5b
        E 0 97 4a 64
        E 0 9f 37 5a
        E 0 82 46 66
        E 0 92 4d 64
        E 0 82 52 66
        E 0 92 4b 66
        E 0 82 4d 64
        E 0 83 46 66
        E 0 87 4a 64
        E 1 8f 37 64
        E 0 92 4a 64
        E 0 93 46 5b
        E 0 97 46 66
        E 0 9f 37 5a
        E 0 82 4b 66
        E 0 92 48 64
        E 0 82 4a 64
        E 0 87 46 66
        E 0 97 48 64
        E 0 92 46 66
        E 0 82 48 64
        E 0 83 46 66
        E 0 87 48 64
        E 0 8f 37 64
        E 0 92 52 66
        E 0 93 45 5a
        E 0 97 4a 64
        E 0 9f 35 5a
        E 0 82 46 66
        E 0 92 4d 64
        E 0 82 52 66
        E 0 92 4b 66
        E 0 82 4d 64
        E 0 83 45 64
        E 0 87 4a 64
        E 0 8f 35 64
        E 0 92 4a 64
        E 0 93 45 5a
        E 0 97 4b 66
        E 0 9f 35 5a
        E 0 82 4b 66
        E 0 92 48 64
        E 0 82 4a 64
        E 0 92 46 66
        E 0 82 48 64
        E 0 83 45 64
        E 0 87 4b 66
        E 0 8f 35 64
        E 0 92 52 66
        E 0 93 43 5a
        E 0 97 4d 64
        E 0 9f 33 5b
        E 0 82 46 66
        E 0 92 4d 64
        E 0 82 52 66
        E 0 92 4b 66
        E 0 82 4d 64
        E 0 83 43 64
        E 0 87 4d 64
        E 0 8f 33 66
        E 0 92 4a 64
        E 0 93 43 5a
        E 0 97 46 66
        E 0 9f 33 5b
        E 0 82 4b 66
        E 0 92 48 64
        E 0 82 4a 64
        E 0 87 46 66
        E 0 97 48 64
        E 0 92 46 66
        E 0 82 48 64
        E 0 83 43 64
        E 0 87 48 64
        E 0 8f 33 66
        E 0 92 52 66
        E 0 93 41 5a
        E 0 97 4a 64
        E 0 9f 32 5a
        E 0 82 46 66
        E 0 92 4d 64
        E 0 82 52 66
        E 0 92 4b 66
        E 0 82 4d 64
        E 0 83 41 64
        E 0 87 4a 64
        E 0 8f 32 64
        E 0 92 4a 64
        E 0 93 41 5a
        E 0 97 4b 66
        E 0 9f 32 5a
        E 0 82 4b 66
        E 0 92 48 64
        E 0 82 4a 64
        E 0 92 46 66
        E 0 82 48 64
        E 0 83 41 64
        E 0 87 4b 66
        E 0 8f 32 64
        E 0 92 52 66
        E 0 93 3f 5b
        E 0 97 4d 64
        E 0 9f 30 5a
        E 0 82 46 66
        E 0 92 4d 64
        E 0 97 46 66
        E 0 82 52 66
        E 0 87 4d 64
        E 0 92 4b 66
        E 0 97 48 64
        E 0 82 4d 64
        E 0 87 46 66
        E 0 83 3f 66
        E 0 8f 30 64
        E 0 92 4a 64
        E 0 93 3f 5b
        E 0 97 4a 64
        E 1 9f 30 5a
        E 0 82 4b 66
        E 0 87 48 64
        E 0 92 48 64
        E 0 97 48 64
        E 0 82 4a 64
        E 0 87 4a 64
        E 0 92 46 66
        E 0 97 46 66
        E 0 82 48 64
        E 0 87 48 64
        E 0 83 3f 66
        E 0 8f 30 64
        E 0 92 52 66
        E 0 93 3e 5a
        E 0 97 4d 64
        E 0 9f 2e 5b
        E 0 82 46 66
        E 0 87 46 66
        E 0 92 4d 64
        E 0 97 46 66
        E 0 82 52 66
        E 0 87 4d 64
        E 0 92 4b 66
        E 0 97 48 64
        E 0 82 4d 64
        E 0 87 46 66
        E 0 83 3e 64
        E 0 8f 2e 66
        E 0 92 4a 64
        E 0 93 3e 5a
        E 0 97 4a 64
        E 0 9f 2e 5b
        E 0 82 4b 66
        E 0 87 48 64
        E 0 92 48 64
        E 0 97 48 64
        E 0 82 4a 64
        E 0 87 4a 64
        E 0 92 46 66
        E 0 97 46 66
        E 0 82 48 64
        E 0 87 48 64
        E 0 83 3e 64
        E 0 8f 2e 66
        E 0 92 3f 66
        E 0 93 3f 5b
        E 0 97 3f 66
        E 0 9f 33 5b
        E 0 82 46 66
        E 0 87 46 66
        E 0 82 3f 66
        E 0 83 3f 66
        E 0 8f 33 66
        E 0 92 3f 66
        E 1 93 3f 5b
        E 0 9f 33 5b
        E 0 82 3f 66
        E 0 83 3f 66
        E 0 87 3f 66
        E 0 8f 33 66
        E 0 92 41 64
        E 0 93 41 5a
        E 0 97 41 64
        E 0 9f 35 5a
        E 0 82 41 64
        E 0 83 41 64
        E 0 8f 35 64
        E 0 92 41 64
        E 2 93 41 5a
        E 1 9f 35 5a
        E 0 82 41 64
        E 0 83 41 64
        E 0 87 41 64
        E 0 8f 35 64
        E 0 92 3a 66
        E 0 93 3a 5b
        E 0 97 46 66
        E 0 9f 2e 5b
        E 0 82 3a 66
        E 0 83 3a 66
        E 0 87 46 66
        E 0 8f 2e 66
        E 0 92 4d 64
        E 0 93 41 5a
        E 0 97 4d 64
        E 0 9f 41 5a
        E 0 82 4d 64
        E 0 83 41 64
        E 0 92 4d 64
        E 0 93 41 5a
        E 0 82 4d 64
        E 0 83 41 64
        E 0 87 4d 64
        E 0 8f 41 64
        E 0 92 4a 64
        E 0 93 3e 5a
        E 0 97 4a 64
        E 1 9f 3e 5a
        E 0 82 4a 64
        E 0 83 3e 64
        E 0 92 4a 64
        E 0 93 3e 5a
        E 0 82 4a 64
        E 0 83 3e 64
        E 0 87 4a 64
        E 0 8f 3e 64
        E 0 92 46 66
        E 0 93 3a 5b
        E 0 97 46 66
        E 0 9f 3a 5b
        E 0 82 46 66
        E 0 83 3a 66
        E 0 92 46 66
        E 0 93 3a 5b
        E 0 82 46 66
        E 0 83 3a 66
        E 0 87 46 66
        E 0 8f 3a 66
        E 1 92 3f 66
        E 0 93 3f 5b
        E 0 97 3f 66
        E 0 9f 33 5b
        E 0 82 3f 66
        E 0 83 3f 66
        E 0 8f 33 66
        E 0 92 3f 66
        E 0 93 3f 5b
        E 0 9f 33 5b
        E 0 82 3f 66
        E 0 83 3f 66
        E 0 87 3f 66
        E 0 8f 33 66
        E 0 92 41 64
        E 0 93 41 5a
        E 0 97 41 64
        E 0 9f 35 5a
        E 0 82 41 64
        E 0 83 41 64
        E 0 8f 35 64
        E 0 92 41 64
        E 0 93 41 5a
        E 0 9f 35 5a
        E 0 82 41 64
        E 0 83 41 64
        E 0 87 41 64
        E 0 8f 35 64
        E 0 92 3a 66
        E 0 93 3a 5b
        E 0 97 3a 66
        E 0 9f 2e 5b
        E 0 92 4a 64
        E 0 82 3a 66
        E 0 92 4b 66
        E 0 82 4a 64
        E 0 83 3a 66
        E 0 8f 2e 66
        E 0 92 4d 64
        E 0 93 3e 5a
        E 0 9f 3a 5b
        E 0 82 4b 66
        E 0 92 4b 66
        E 0 82 4d 64
        E 0 92 4a 64
        E 0 82 4b 66
        E 0 83 3e 64
        E 0 87 3a 66
        E 0 8f 3a 66
        E 0 92 52 66
        E 0 93 3e 5a
        E 0 9f 3a 5b
        E 0 82 4a 64
        E 0 92 51 64
        E 0 82 52 66
        E 0 92 4f 64
        E 0 82 51 64
        E 0 83 3e 64
        E 0 8f 3a 66
        E 0 92 4d 64
        E 0 93 46 5b
        E 0 9f 3a 5b
        E 0 82 4f 64
        E 0 92 4b 66
        E 0 82 4d 64
        E 0 92 4a 64
        E 0 82 4b 66
        E 0 83 46 66
        E 0 8f 3a 66
        E 0 92 4b 66
        E 1 93 46 5b
        E 0 9f 3c 5a
        E 0 82 4a 64
        E 0 92 48 64
        E 0 82 4b 66
        E 0 92 4a 64
        E 0 82 48 64
        E 0 83 46 66
        E 0 8f 3c 64
        E 0 92 4b 66
        E 0 93 3f 5b
        E 0 9f 3c 5a
        E 0 82 4a 64
        E 0 92 4a 64
        E 0 82 4b 66
        E 0 92 48 64
        E 0 82 4a 64
        E 0 83 3f 66
        E 0 8f 3c 64
        E 0 92 51 64
        E 0 93 3f 5b
        E 0 9f 35 5a
        E 0 82 48 64
        E 0 92 4f 64
        E 0 82 51 64
        E 0 92 4d 64
        E 0 82 4f 64
        E 0 83 3f 66
        E 0 8f 35 64
        E 0 92 4b 66
        E 0 93 45 5a
        E 0 9f 35 5a
        E 0 82 4d 64
        E 0 92 4a 64
        E 0 82 4b 66
        E 0 92 48 64
        E 0 82 4a 64
        E 0 83 45 64
        E 0 8f 35 64
        E 0 92 4a 64
        E 0 93 45 5a
        E 0 9f 3a 5b
        E 0 82 48 64
        E 0 92 46 66
        E 0 82 4a 64
        E 0 92 48 64
        E 0 82 46 66
        E 0 83 45 64
        E 0 8f 3a 66
        E 0 92 4a 64
        E 0 93 3e 5a
        E 0 9f 3a 5b
        E 0 82 48 64
        E 0 92 48 64
        E 0 82 4a 64
        E 0 92 46 66
        E 0 82 48 64
        E 0 83 3e 64
        E 1 8f 3a 66
        E 0 92 4f 64
        E 0 93 3e 5a
        E 0 9f 33 5b
        E 0 82 46 66
        E 0 92 4d 64
        E 0 82 4f 64
        E 0 92 4b 66
        E 0 82 4d 64
        E 0 83 3e 64
        E 0 8f 33 66
        E 0 92 4a 64
        E 0 93 43 5a
        E 0 9f 33 5b
        E 0 82 4b 66
        E 0 92 48 64
        E 0 82 4a 64
        E 0 92 46 66
        E 0 82 48 64
        E 0 83 43 64
        E 0 8f 33 66
        E 0 92 45 64
        E 0 93 41 5a
        E 0 9f 35 5a
        E 0 82 46 66
        E 0 92 41 64
        E 0 82 45 64
        E 0 92 43 64
        E 0 82 41 64
        E 0 83 41 64
        E 0 8f 35 64
        E 0 92 45 64
        E 0 93 41 5a
        E 0 9f 35 5a
        E 0 82 43 64
        E 0 92 43 64
        E 0 82 45 64
        E 0 92 41 64
        E 0 82 43 64
        E 0 83 41 64
        E 0 8f 35 64
        E 0 92 46 66
        E 0 93 41 5a
        E 0 9f 35 5a
        E 0 82 41 64
        E 0 92 41 64
        E 0 82 46 66
        E 0 92 43 64
        E 0 82 41 64
        E 0 83 41 64
        E 0 8f 35 64
        E 0 92 45 64
        E 0 93 41 5a
        E 0 9f 35 5a
        E 0 82 43 64
        E 0 92 43 64
        E 0 82 45 64
        E 0 92 41 64
        E 0 82 43 64
        E 0 83 41 64
        E 0 8f 35 64
        E 0 92 48 64
        E 0 93 41 5a
        E 0 9f 35 5a
        E 0 82 41 64
        E 0 92 41 64
        E 0 82 48 64
        E 0 92 43 64
        E 0 82 41 64
        E 0 83 41 64
        E 0 8f 35 64
        E 0 92 45 64
        E 0 93 41 5a
        E 0 9f 35 5a
        E 0 82 43 64
        E 0 92 43 64
        E 0 82 45 64
        E 0 92 41 64
        E 0 82 43 64
        E 0 83 41 64
        E 0 8f 35 64
        E 0 92 4a 64
        E 1 93 41 5a
        E 0 9f 35 5a
        E 0 82 41 64
        E 0 92 41 64
        E 0 82 4a 64
        E 0 92 43 64
        E 0 82 41 64
        E 0 83 41 64
        E 0 8f 35 64
        E 0 92 45 64
        E 0 93 41 5a
        E 0 9f 35 5a
        E 0 82 43 64
        E 0 92 43 64
        E 0 82 45 64
        E 0 92 41 64
        E 0 82 43 64
        E 0 83 41 64
        E 0 8f 35 64
        E 0 92 4d 64
        E 0 93 4d 5a
        E 0 9f 41 5a
        E 0 82 41 64
        E 0 82 4d 64
        E 0 83 4d 64
        E 0 8f 41 64
        E 0 92 4d 64
        E 0 93 4d 5a
        E 0 9f 41 5a
        E 0 82 4d 64
        E 0 83 4d 64
        E 0 8f 41 64
        E 0 92 4a 64
        E 0 93 4a 5a
        E 0 9f 3e 5a
        E 0 82 4a 64
        E 0 83 4a 64
        E 0 8f 3e 64
        E 0 92 4a 64
        E 0 93 4a 5a
        E 0 9f 3e 5a
        E 0 82 4a 64
        E 0 83 4a 64
        E 0 8f 3e 64
        E 0 92 46 66
        E 0 93 46 5b
        E 0 9f 3a 5b
        E 0 82 46 66
        E 0 83 46 66
        E 0 8f 3a 66
        E 0 92 46 66
        E 0 93 46 5b
        E 0 9f 3a 5b
        E 0 82 46 66
        E 0 83 46 66
        E 0 8f 3a 66
        E 0 92 3e 64
        E 0 93 3e 5a
        E 0 9f 32 5a
        E 0 82 3e 64
        E 0 83 3e 64
        E 0 8f 32 64
        E 0 92 3e 64
        E 0 93 3e 5a
        E 0 9f 32 5a
        E 0 82 3e 64
        E 0 83 3e 64
        E 0 8f 32 64
        E 0 92 3f 66
        E 0 93 3f 5b
        E 0 9f 33 5b
        E 0 82 3f 66
        E 0 83 3f 66
        E 0 8f 33 66
        E 0 92 3f 66
        E 0 93 3f 5b
        E 0 9f 33 5b
        E 0 82 3f 66
        E 0 83 3f 66
        E 0 8f 33 66
        E 0 92 41 64
        E 0 93 41 5a
        E 0 9f 35 5a
        E 0 82 41 64
        E 0 83 41 64
        E 0 8f 35 64
        E 0 92 41 64
        E 0 93 41 5a
        E 0 9f 35 5a
        E 0 82 41 64
        E 0 83 41 64
        E 0 8f 35 64
        E 0 92 3a 66
        E 0 93 3a 5b
        E 0 9f 2e 5b
        E 0 82 3a 66
        E 0 83 3a 66
        E 0 8f 2e 66
        E 0 92 4a 64
        E 0 93 3b 5a
        E 0 97 4a 64
        E 0 9f 2f 5a
        E 0 82 4a 64
        E 0 83 3b 64
        E 0 87 4a 64
        E 0 8f 2f 64
        E 0 92 4a 64
        E 0 93 3b 5a
        E 0 97 4a 64
        E 0 9f 2f 5a
        E 0 82 4a 64
        E 0 83 3b 64
        E 0 87 4a 64
        E 0 8f 2f 64
        E 0 92 43 64
        E 0 93 3b 5a
        E 0 97 43 64
        E 0 9f 2f 5a
        E 0 87 43 64
        E 0 97 43 64
        E 0 82 43 64
        E 0 83 3b 64
        E 0 87 43 64
        E 0 8f 2f 64
        E 1 92 43 64
        E 0 93 3b 5a
        E 0 97 43 64
        E 0 9f 2f 5a
        E 0 82 43 64
        E 0 83 3b 64
        E 0 87 43 64
        E 0 8f 2f 64
        E 0 92 44 66
        E 0 93 3e 5a
        E 0 97 44 66
        E 0 9f 2f 5a
        E 0 82 44 66
        E 0 83 3e 64
        E 0 87 44 66
        E 0 8f 2f 64
        E 0 92 44 66
        E 0 93 3e 5a
        E 0 97 44 66
        E 0 9f 2f 5a
        E 0 82 44 66
        E 0 83 3e 64
        E 0 8f 2f 64
        E 0 92 44 66
        E 0 93 3e 5a
        E 0 9f 2f 5a
        E 0 82 44 66
        E 0 83 3e 64
        E 0 87 44 66
        E 0 8f 2f 64
        E 0 92 43 64
        E 0 93 3b 5a
        E 0 97 43 64
        E 0 9f 2f 5a
        E 0 82 43 64
        E 0 83 3b 64
        E 0 8f 2f 64
        E 0 92 43 64
        E 0 93 3b 5a
        E 0 9f 2f 5a
        E 0 82 43 64
        E 0 83 3b 64
        E 0 87 43 64
        E 0 8f 2f 64
        E 0 92 4a 64
        E 0 93 37 5a
        E 0 97 4a 64
        E 0 9f 2f 5a
        E 0 82 4a 64
        E 0 83 37 64
        E 0 8f 2f 64
        E 0 92 4a 64
        E 0 93 37 5a
        E 0 9f 2f 5a
        E 0 82 4a 64
        E 0 83 37 64
        E 0 87 4a 64
        E 0 8f 2f 64
        E 0 92 4a 64
        E 0 93 37 5a
        E 0 97 41 64
        E 0 9f 2f 5a
        E 0 82 4a 64
        E 0 83 37 64
        E 0 8f 2f 64
        E 0 92 4a 64
        E 0 93 37 5a
        E 0 9f 2f 5a
        E 0 82 4a 64
        E 0 83 37 64
        E 0 87 41 64
        E 0 8f 2f 64
        E 1 92 4a 64
        E 0 93 37 5a
        E 0 9f 2f 5a
        E 0 82 4a 64
        E 0 83 37 64
        E 0 8f 2f 64
        E 0 92 4a 64
        E 0 93 37 5a
        E 0 97 44 66
        E 0 9f 2f 5a
        E 0 82 4a 64
        E 0 83 37 64
        E 0 87 44 66
        E 0 8f 2f 64
        E 0 92 4a 64
        E 0 93 37 5a
        E 0 97 43 64
        E 0 9f 2f 5a
        E 0 87 43 64
        E 0 97 41 64
        E 0 82 4a 64
        E 0 83 37 64
        E 0 87 41 64
        E 0 8f 2f 64
        E 0 92 4a 64
        E 0 93 37 5a
        E 0 97 3f 66
        E 0 9f 2f 5a
        E 0 87 3f 66
        E 0 97 3e 64
        E 0 82 4a 64
        E 0 83 37 64
        E 0 87 3e 64
        E 0 8f 2f 64
        E 0 92 48 64
        E 0 93 37 5a
        E 0 97 3f 66
        E 0 9f 30 5a
        E 0 82 48 64
        E 0 83 37 64
        E 0 87 3f 66
        E 0 8f 30 64
        E 0 92 48 64
        E 0 93 37 5a
        E 0 97 3c 64
        E 0 9f 30 5a
        E 0 82 48 64
        E 0 83 37 64
        E 0 87 3c 64
        E 0 8f 30 64
        E 0 92 48 64
        E 0 93 37 5a
        E 0 9f 30 5a
        E 0 82 48 64
        E 0 83 37 64
        E 0 8f 30 64
        E 0 92 48 64
        E 0 93 37 5a
        E 0 9f 30 5a
        E 0 82 48 64
        E 0 83 37 64
        E 0 8f 30 64
        E 0 92 4f 64
        E 0 93 43 5a
        E 0 97 4f 64
        E 0 9f 43 5a
        E 0 82 4f 64
        E 0 83 43 64
        E 0 87 4f 64
        E 0 8f 43 64
        E 0 92 4d 64
        E 0 93 41 5a
        E 0 97 4d 64
        E 0 9f 41 5a
        E 38404 82 4d 64
        E 0 83 41 64
        E 0 87 4d 64
        E 0 8f 41 64
        E 0 92 4b 66
        E 0 93 3f 5b
        E 0 97 4b 66
        E 0 9f 3f 5b
        E 0 82 4b 66
        E 0 83 3f 66
        E 0 87 4b 66
        E 0 8f 3f 66
        E 0 92 4a 64
        E 0 93 3e 5a
        E 0 97 4a 64
        E 0 9f 3e 5a
        E 0 82 4a 64
        E 0 83 3e 64
        E 0 87 4a 64
        E 0 8f 3e 64
        E 0 92 48 64
        E 0 93 3c 5a
        E 0 97 48 64
        E 0 9f 3c 5a
        E 0 82 48 64
        E 0 83 3c 64
        E 0 87 48 64
        E 0 8f 3c 64
        E 0 92 46 66
        E 0 93 3a 5b
        E 0 97 46 66
        E 0 9f 3a 5b
        E 0 82 46 66
        E 0 83 3a 66
        E 0 87 46 66
        E 0 8f 3a 66
        E 0 92 44 66
        E 0 93 38 5b
        E 0 97 44 66
        E 0 9f 38 5b
        E 0 82 44 66
        E 0 83 38 66
        E 0 87 44 66
        E 0 8f 38 66
        E 0 92 43 64
        E 0 93 37 5a
        E 0 97 43 64
        E 0 9f 37 5a
        E 0 82 43 64
        E 0 83 37 64
        E 0 87 43 64
        E 0 8f 37 64
        E 0 92 44 66
        E 0 93 38 5b
        E 0 97 44 66
        E 0 9f 38 5b
        E 0 82 44 66
        E 0 8f 38 66
        E 0 92 41 64
        E 0 9f 35 5a
        E 0 82 41 64
        E 0 83 38 66
        E 0 87 44 66
        E 0 8f 35 64
        E 0 92 43 64
        E 0 93 35 5a
        E 0 97 41 64
        E 0 9f 37 5a
        E 0 82 43 64
        E 0 8f 37 64
        E 0 92 44 66
        E 0 9f 38 5b
        E 0 82 44 66
        E 0 83 35 64
        E 0 87 41 64
        E 0 8f 38 66
        E 0 92 38 66
        E 0 93 35 5a
        E 0 9f 2c 5b
        E 0 82 38 66
        E 0 8f 2c 66
        E 0 92 41 64
        E 0 9f 35 5a
        E 0 82 41 64
        E 0 83 35 64
        E 0 8f 35 64
        E 0 92 43 64
        E 0 93 35 5a
        E 0 9f 37 5a
        E 1 82 43 64
        E 0 8f 37 64
        E 0 92 44 66
        E 0 9f 38 5b
        E 0 82 44 66
        E 0 83 35 64
        E 0 8f 38 66
        E 0 92 4d 64
        E 0 93 41 5a
        E 0 97 4d 64
        E 0 9f 41 5a
        E 0 82 4d 64
        E 0 83 41 64
        E 0 87 4d 64
        E 0 8f 41 64
        E 0 92 4b 66
        E 0 93 3f 5b
        E 0 97 4b 66
        E 0 9f 3f 5b
        E 0 82 4b 66
        E 0 83 3f 66
        E 0 87 4b 66
        E 0 8f 3f 66
        E 0 92 4a 64
        E 0 93 3e 5a
        E 0 97 4a 64
        E 0 9f 3e 5a
        E 0 82 4a 64
        E 0 83 3e 64
        E 0 87 4a 64
        E 0 8f 3e 64
        E 0 92 48 64
        E 0 93 3c 5a
        E 0 97 48 64
        E 0 9f 3c 5a
        E 0 82 48 64
        E 0 83 3c 64
        E 0 87 48 64
        E 0 8f 3c 64
        E 0 92 46 66
        E 0 93 3a 5b
        E 0 97 46 66
        E 1 9f 3a 5b
        E 0 82 46 66
        E 0 83 3a 66
        E 0 87 46 66
        E 0 8f 3a 66
        E 0 92 44 66
        E 0 93 38 5b
        E 0 97 44 66
        E 0 9f 38 5b
        E 0 82 44 66
        E 0 83 38 66
        E 0 87 44 66
        E 0 8f 38 66
        E 0 92 43 64
        E 0 93 37 5a
        E 0 97 43 64
        E 0 9f 37 5a
        E 0 82 43 64
        E 0 83 37 64
        E 0 87 43 64
        E 0 8f 37 64
        E 0 92 41 64
        E 0 93 35 5a
        E 0 97 41 64
        E 0 9f 35 5a
        E 0 82 41 64
        E 0 83 35 64
        E 0 87 41 64
        E 0 8f 35 64
        E 0 92 43 64
        E 0 93 37 5a
        E 0 97 43 64
        E 0 9f 37 5a
        E 0 82 43 64
        E 0 8f 37 64
        E 0 92 3f 66
        E 0 9f 33 5b
        E 0 82 3f 66
        E 0 83 37 64
        E 0 87 43 64
        E 0 8f 33 66
        E 0 92 41 64
        E 0 93 33 5b
        E 0 97 3f 66
        E 0 9f 35 5a
        E 0 82 41 64
        E 0 8f 35 64
        E 0 92 43 64
        E 0 9f 37 5a
        E 0 82 43 64
        E 0 83 33 66
        E 0 87 3f 66
        E 0 8f 37 64
        E 0 92 37 64
        E 0 93 33 5b
        E 0 9f 2b 5a
        E 0 82 37 64
        E 0 8f 2b 64
        E 0 92 3f 66
        E 1 9f 33 5b
        E 0 82 3f 66
        E 0 83 33 66
        E 0 8f 33 66
        E 0 92 41 64
        E 0 93 33 5b
        E 0 97 43 64
        E 0 9f 35 5a
        E 0 82 41 64
        E 0 8f 35 64
        E 0 92 43 64
        E 0 9f 37 5a
        E 0 82 43 64
        E 0 83 33 66
        E 0 87 43 64
        E 0 8f 37 64
        E 0 92 4b 66
        E 0 93 4b 5b
        E 0 97 4b 66
        E 0 9f 3f 5b
        E 0 82 4b 66
        E 0 83 4b 66
        E 0 87 4b 66
        E 0 8f 3f 66
        E 0 92 4a 64
        E 0 93 4a 5a
        E 0 97 4a 64
        E 0 9f 3e 5a
        E 0 82 4a 64
        E 0 83 4a 64
        E 0 87 4a 64
        E 0 8f 3e 64
        E 0 92 48 64
        E 0 93 48 5a
        E 0 97 48 64
        E 0 9f 3c 5a
        E 0 82 48 64
        E 0 83 48 64
        E 0 87 48 64
        E 0 8f 3c 64
        E 0 92 46 66
        E 0 93 46 5b
        E 0 97 46 66
        E 0 9f 3a 5b
        E 0 82 46 66
        E 0 83 46 66
        E 0 87 46 66
        E 0 8f 3a 66
        E 0 92 44 66
        E 0 93 44 5b
        E 0 97 44 66
        E 0 9f 38 5b
        E 0 82 44 66
        E 0 83 44 66
        E 0 87 44 66
        E 0 8f 38 66
        E 0 92 43 64
        E 0 93 43 5a
        E 0 97 43 64
        E 0 9f 37 5a
        E 0 82 43 64
        E 0 83 43 64
        E 0 87 43 64
        E 0 8f 37 64
        E 0 92 41 64
        E 0 93 41 5a
        E 0 97 41 64
        E 0 9f 35 5a
        E 0 82 41 64
        E 0 83 41 64
        E 0 87 41 64
        E 0 8f 35 64
        E 0 92 3f 66
        E 0 93 3f 5b
        E 0 97 3f 66
        E 0 9f 33 5b
        E 0 82 3f 66
        E 0 83 3f 66
        E 0 87 3f 66
        E 0 8f 33 66
        E 0 92 41 64
        E 0 93 37 5a
        E 0 97 41 64
        E 0 9f 2b 5a
        E 0 82 41 64
        E 0 92 47 64
        E 0 82 47 64
        E 0 83 37 64
        E 0 8f 2b 64
        E 0 92 48 64
        E 0 93 37 5a
        E 0 9f 2b 5a
        E 0 82 48 64
        E 0 92 4a 64
        E 0 82 4a 64
        E 0 83 37 64
        E 0 87 41 64
        E 0 8f 2b 64
        E 0 92 37 64
        E 0 93 37 5a
        E 0 9f 2b 5a
        E 0 82 37 64
        E 1 92 47 64
        E 0 82 47 64
        E 0 83 37 64
        E 0 8f 2b 64
        E 0 92 48 64
        E 0 93 37 5a
        E 0 9f 2b 5a
        E 0 82 48 64
        E 0 92 4a 64
        E 0 82 4a 64
        E 0 83 37 64
        E 0 8f 2b 64
        E 0 92 37 64
        E 0 93 37 5a
        E 0 97 48 64
        E 0 9f 2b 5a
        E 0 82 37 64
        E 0 92 48 64
        E 0 82 48 64
        E 0 83 37 64
        E 0 87 48 64
        E 0 8f 2b 64
        E 0 92 4a 64
        E 0 93 37 5a
        E 0 97 43 64
        E 0 9f 2b 5a
        E 0 82 4a 64
        E 0 87 43 64
        E 0 92 4b 66
        E 0 97 43 64
        E 0 82 4b 66
        E 0 83 37 64
        E 0 87 43 64
        E 0 8f 2b 64
        E 0 92 37 64
        E 0 93 37 5a
        E 0 97 43 64
        E 0 9f 2b 5a
        E 0 82 37 64
        E 0 92 48 64
        E 0 82 48 64
        E 0 83 37 64
        E 0 87 43 64
        E 0 8f 2b 64
        E 0 92 4a 64
        E 0 93 37 5a
        E 0 97 48 64
        E 0 9f 2b 5a
        E 0 82 4a 64
        E 0 92 4b 66
        E 0 82 4b 66
        E 0 83 37 64
        E 0 87 48 64
        E 0 8f 2b 64
        E 0 92 37 64
        E 0 93 37 5a
        E 0 97 4a 64
        E 0 9f 2b 5a
        E 0 82 37 64
        E 0 92 4a 64
        E 0 82 4a 64
        E 0 83 37 64
        E 0 87 4a 64
        E 0 8f 2b 64
        E 0 92 4b 66
        E 0 93 37 5a
        E 0 97 43 64
        E 0 9f 2b 5a
        E 0 82 4b 66
        E 0 92 4d 64
        E 0 82 4d 64
        E 0 83 37 64
        E 0 87 43 64
        E 0 8f 2b 64
        E 0 92 37 64
        E 0 93 37 5a
        E 0 97 43 64
        E 0 9f 2b 5a
        E 0 82 37 64
        E 0 92 4a 64
        E 0 82 4a 64
        E 0 83 37 64
        E 0 87 43 64
        E 0 8f 2b 64
        E 0 92 4b 66
        E 0 93 37 5a
        E 0 97 4a 64
        E 0 9f 2b 5a
        E 0 82 4b 66
        E 0 92 4d 64
        E 0 82 4d 64
        E 0 83 37 64
        E 0 87 4a 64
        E 0 8f 2b 64
        E 0 92 37 64
        E 0 93 37 5a
        E 0 97 4b 66
        E 0 9f 2b 5a
        E 0 82 37 64
        E 0 87 4b 66
        E 0 92 4b 66
        E 0 97 4a 64
        E 0 82 4b 66
        E 0 83 37 64
        E 0 87 4a 64
        E 0 8f 2b 64
        E 0 92 4d 64
        E 0 93 37 5a
        E 0 97 48 64
        E 0 9f 2b 5a
        E 0 82 4d 64
        E 0 92 4f 64
        E 0 82 4f 64
        E 0 83 37 64
        E 0 87 48 64
        E 0 8f 2b 64
        E 0 92 37 64
        E 0 93 37 5a
        E 1 9f 2b 5a
        E 0 82 37 64
        E 0 92 4b 66
        E 0 82 4b 66
        E 0 83 37 64
        E 0 8f 2b 64
        E 0 92 4d 64
        E 0 93 37 5a
        E 0 97 48 64
        E 0 9f 2b 5a
        E 0 82 4d 64
        E 0 92 4f 64
        E 0 82 4f 64
        E 0 83 37 64
        E 0 87 48 64
        E 0 8f 2b 64
        E 0 92 37 64
        E 0 93 37 5a
        E 0 97 41 64
        E 0 9f 2b 5a
        E 0 82 37 64
        E 0 83 37 64
        E 0 87 41 64
        E 0 8f 2b 64
        E 0 92 44 66
        E 0 93 37 5a
        E 0 97 44 66
        E 0 9f 2b 5a
        E 0 82 44 66
        E 0 83 37 64
        E 0 87 44 66
        E 0 8f 2b 64
        E 0 92 43 64
        E 0 93 37 5a
        E 0 97 43 64
        E 0 9f 2b 5a
        E 0 82 43 64
        E 1 87 43 64
        E 0 92 41 64
        E 0 97 41 64
        E 0 82 41 64
        E 0 83 37 64
        E 0 87 41 64
        E 0 8f 2b 64
        E 0 92 3f 66
        E 0 93 37 5a
        E 0 97 3f 66
        E 0 9f 2b 5a
        E 0 82 3f 66
        E 0 87 3f 66
        E 0 92 3e 64
        E 0 97 3e 64
        E 0 82 3e 64
        E 0 83 37 64
        E 0 87 3e 64
        E 0 8f 2b 64
        E 0 92 3c 64
        E 0 93 3c 5a
        E 0 97 3c 64
        E 0 9f 30 5a
        E 0 82 3c 64
        E 0 83 3c 64
        E 0 8f 30 64
        E 0 92 4b 66
        E 0 93 45 5a
        E 0 9f 36 5a
        E 0 82 4b 66
        E 0 83 45 64
        E 0 87 3c 64
        E 0 8f 36 64
        E 0 92 4b 66
        E 0 93 45 5a
        E 0 97 48 64
        E 0 9f 36 5a
        E 0 82 4b 66
        E 0 83 45 64
        E 0 8f 36 64
        E 0 92 4b 66
        E 0 93 45 5a
        E 0 9f 36 5a
        E 0 82 4b 66
        E 0 83 45 64
        E 0 87 48 64
        E 0 8f 36 64
        E 0 92 4b 66
        E 0 93 45 5a
        E 0 97 48 64
        E 0 9f 36 5a
        E 0 82 4b 66
        E 0 83 45 64
        E 0 87 48 64
        E 0 8f 36 64
        E 0 92 4b 66
        E 0 93 45 5a
        E 0 97 42 64
        E 0 9f 36 5a
        E 0 87 42 64
        E 0 97 42 64
        E 0 82 4b 66
        E 0 83 45 64
        E 0 87 42 64
        E 0 8f 36 64
        E 0 92 4b 66
        E 0 93 45 5a
        E 0 97 42 64
        E 0 9f 36 5a
        E 0 82 4b 66
        E 0 83 45 64
        E 0 87 42 64
        E 0 8f 36 64
        E 0 92 4b 66
        E 0 93 45 5a
        E 0 97 48 64
        E 0 9f 36 5a
        E 0 82 4b 66
        E 0 83 45 64
        E 0 87 48 64
        E 0 8f 36 64
        E 0 92 4b 66
        E 0 93 43 5a
        E 0 97 48 64
        E 0 9f 37 5a
        E 0 82 4b 66
        E 0 83 43 64
        E 0 8f 37 64
        E 0 92 4b 66
        E 0 93 43 5a
        E 1 9f 2b 5a
        E 0 82 4b 66
        E 0 83 43 64
        E 0 87 48 64
        E 0 8f 2b 64
        E 0 92 4a 64
        E 0 93 43 5a
        E 0 97 46 66
        E 0 9f 2b 5a
        E 0 82 4a 64
        E 0 83 43 64
        E 0 8f 2b 64
        E 0 92 4a 64
        E 0 93 43 5a
        E 0 9f 2b 5a
        E 0 82 4a 64
        E 0 83 43 64
        E 0 87 46 66
        E 0 8f 2b 64
        E 0 92 4a 64
        E 0 93 4a 5a
        E 0 97 4a 64
        E 0 9f 3e 5a
        E 0 82 4a 64
        E 0 83 4a 64
        E 0 87 4a 64
        E 0 8f 3e 64
        E 0 92 48 64
        E 0 93 48 5a
        E 0 97 48 64
        E 0 9f 3c 5a
        E 0 82 48 64
        E 0 83 48 64
        E 0 87 48 64
        E 0 8f 3c 64
        E 0 92 46 66
        E 0 93 46 5b
        E 0 97 46 66
        E 0 9f 3a 5b
        E 0 82 46 66
        E 0 83 46 66
        E 0 87 46 66
        E 0 8f 3a 66
        E 0 92 45 64
        E 0 93 45 5a
        E 0 97 45 64
        E 0 9f 39 5a
        E 0 82 45 64
        E 0 83 45 64
        E 0 87 45 64
        E 0 8f 39 64
        E 0 92 43 64
        E 0 93 43 5a
        E 0 97 43 64
        E 0 9f 37 5a
        E 0 82 43 64
        E 0 83 43 64
        E 0 87 43 64
        E 0 8f 37 64
        E 0 92 41 64
        E 0 93 41 5a
        E 0 97 41 64
        E 0 9f 35 5a
        E 0 82 41 64
        E 0 83 41 64
        E 0 87 41 64
        E 0 8f 35 64
        E 0 92 3f 66
        E 0 93 3f 5b
        E 0 97 3f 66
        E 0 9f 33 5b
        E 0 82 3f 66
        E 0 83 3f 66
        E 0 87 3f 66
        E 0 8f 33 66
        E 0 92 3e 64
        E 0 93 3e 5a
        E 0 97 3e 64
        E 0 9f 32 5a
        E 0 82 3e 64
        E 0 83 3e 64
        E 0 87 3e 64
        E 0 8f 32 64
        E 0 92 3f 66
        E 0 93 3f 5b
        E 0 97 3f 66
        E 0 9f 33 5b
        E 0 82 3f 66
        E 0 83 3f 66
        E 0 8f 33 66
        E 0 92 3f 66
        E 0 93 3f 5b
        E 0 9f 33 5b
        E 0 82 3f 66
        E 0 83 3f 66
        E 0 87 3f 66
        E 0 8f 33 66
        E 0 92 41 64
        E 0 93 41 5a
        E 0 97 3c 64
        E 0 9f 35 5a
        E 0 82 41 64
        E 0 83 41 64
        E 0 8f 35 64
        E 0 92 43 64
        E 0 93 43 5a
        E 0 9f 37 5a
        E 0 82 43 64
        E 0 83 43 64
        E 0 87 3c 64
        E 0 8f 37 64
        E 1 92 3c 64
        E 0 93 3c 5a
        E 0 9f 30 5a
        E 0 82 3c 64
        E 0 83 3c 64
        E 0 8f 30 64
        E 0 92 3f 66
        E 0 93 3f 5b
        E 0 9f 33 5b
        E 0 82 3f 66
        E 0 83 3f 66
        E 0 8f 33 66
        E 0 92 41 64
        E 0 93 41 5a
        E 0 9f 35 5a
        E 0 82 41 64
        E 0 83 41 64
        E 0 8f 35 64
        E 0 92 43 64
        E 0 93 43 5a
        E 0 9f 37 5a
        E 0 82 43 64
        E 0 83 43 64
        E 0 8f 37 64
        E 0 92 4b 66
        E 0 93 4b 5b
        E 0 97 4b 66
        E 0 9f 3f 5b
        E 0 82 4b 66
        E 0 83 4b 66
        E 0 87 4b 66
        E 0 8f 3f 66
        E 0 92 4a 64
        E 0 93 4a 5a
        E 0 97 4a 64
        E 0 9f 3e 5a
        E 0 82 4a 64
        E 0 83 4a 64
        E 0 87 4a 64
        E 0 8f 3e 64
        E 0 92 48 64
        E 0 93 48 5a
        E 0 97 48 64
        E 0 9f 3c 5a
        E 0 82 48 64
        E 0 83 48 64
        E 0 87 48 64
        E 0 8f 3c 64
        E 0 92 46 66
        E 0 93 46 5b
        E 0 97 46 66
        E 0 9f 3a 5b
        E 0 82 46 66
        E 0 83 46 66
        E 0 87 46 66
        E 0 8f 3a 66
        E 0 92 48 64
        E 0 93 48 5a
        E 0 97 48 64
        E 0 9f 3c 5a
        E 0 82 48 64
        E 0 83 48 64
        E 0 87 48 64
        E 0 8f 3c 64
        E 0 92 46 66
        E 0 93 46 5b
        E 0 97 46 66
        E 0 9f 3a 5b
        E 0 82 46 66
        E 0 83 46 66
        E 0 87 46 66
        E 0 8f 3a 66
        E 0 92 45 64
        E 0 93 45 5a
        E 1 97 45 64
        E 0 9f 39 5a
        E 0 82 45 64
        E 0 83 45 64
        E 0 87 45 64
        E 0 8f 39 64
        E 0 92 43 64
        E 0 93 43 5a
        E 0 97 43 64
        E 0 9f 37 5a
        E 0 82 43 64
        E 0 83 43 64
        E 0 87 43 64
        E 0 8f 37 64
        E 0 92 3e 64
        E 0 93 3e 5a
        E 0 97 42 64
        E 0 9f 32 5a
        E 0 82 3e 64
        E 0 92 42 64
        E 0 82 42 64
        E 0 83 3e 64
        E 0 87 42 64
        E 0 8f 32 64
        E 0 92 43 64
        E 0 93 3e 5a
        E 0 97 3e 64
        E 0 9f 32 5a
        E 0 82 43 64
        E 0 92 45 64
        E 0 82 45 64
        E 0 83 3e 64
        E 0 87 3e 64
        E 0 8f 32 64
        E 0 92 3e 64
        E 0 93 3e 5a
        E 0 9f 32 5a
        E 0 82 3e 64
        E 0 92 42 64
        E 0 82 42 64
        E 0 83 3e 64
        E 0 8f 32 64
        E 0 92 43 64
        E 0 93 3e 5a
        E 0 9f 32 5a
        E 0 82 43 64
        E 0 92 45 64
        E 0 82 45 64
        E 0 83 3e 64
        E 0 8f 32 64
        E 0 92 3e 64
        E 0 93 3e 5a
        E 0 97 46 66
        E 0 9f 32 5a
        E 0 82 3e 64
        E 0 92 43 64
        E 0 82 43 64
        E 0 83 3e 64
        E 0 87 46 66
        E 0 8f 32 64
        E 0 92 45 64
        E 0 93 3e 5a
        E 0 97 43 64
        E 0 9f 32 5a
        E 1 82 45 64
        E 0 87 43 64
        E 0 92 46 66
        E 0 97 43 64
        E 0 82 46 66
        E 0 83 3e 64
        E 0 87 43 64
        E 0 8f 32 64
        E 0 92 3e 64
        E 0 93 3e 5a
        E 0 97 43 64
        E 0 9f 32 5a
        E 0 82 3e 64
        E 0 92 43 64
        E 0 82 43 64
        E 0 83 3e 64
        E 0 87 43 64
        E 0 8f 32 64
        E 0 92 45 64
        E 0 93 3e 5a
        E 0 97 46 66
        E 0 9f 32 5a
        E 0 82 45 64
        E 0 92 46 66
        E 0 82 46 66
        E 0 83 3e 64
        E 0 87 46 66
        E 0 8f 32 64
        E 0 92 3e 64
        E 0 93 3e 5a
        E 0 97 48 64
        E 0 9f 32 5a
        E 0 82 3e 64
        E 0 92 45 64
        E 0 82 45 64
        E 0 83 3e 64
        E 0 87 48 64
        E 0 8f 32 64
        E 0 92 46 66
        E 0 93 3e 5a
        E 0 97 45 64
        E 0 9f 32 5a
        E 0 82 46 66
        E 0 92 48 64
        E 0 82 48 64
        E 0 83 3e 64
        E 0 87 45 64
        E 0 8f 32 64
        E 0 92 3e 64
        E 0 93 3e 5a
        E 0 97 45 64
        E 0 9f 32 5a
        E 0 82 3e 64
        E 1 92 45 64
        E 0 82 45 64
        E 0 83 3e 64
        E 0 87 45 64
        E 0 8f 32 64
        E 0 92 46 66
        E 0 93 3e 5a
        E 0 97 48 64
        E 0 9f 32 5a
        E 0 82 46 66
        E 0 92 48 64
        E 0 82 48 64
        E 0 83 3e 64
        E 0 87 48 64
        E 0 8f 32 64
        E 0 92 3e 64
        E 0 93 3e 5a
        E 0 97 4a 64
        E 0 9f 32 5a
        E 0 82 3e 64
        E 0 92 46 66
        E 0 82 46 66
        E 0 83 3e 64
        E 0 87 4a 64
        E 0 8f 32 64
        E 0 92 48 64
        E 0 93 3e 5a
        E 0 97 3e 64
        E 0 9f 32 5a
        E 0 82 48 64
        E 0 92 4a 64
        E 0 82 4a 64
        E 0 83 3e 64
        E 0 87 3e 64
        E 0 8f 32 64
        E 0 92 3e 64
        E 0 93 3e 5a
        E 0 9f 32 5a
        E 0 82 3e 64
        E 0 92 46 66
        E 0 82 46 66
        E 0 83 3e 64
        E 0 8f 32 64
        E 0 92 48 64
        E 0 93 3e 5a
        E 0 97 3e 64
        E 0 9f 32 5a
        E 0 82 48 64
        E 0 92 4a 64
        E 0 82 4a 64
        E 0 83 3e 64
        E 0 87 3e 64
        E 0 8f 32 64
        E 0 92 3e 64
        E 0 93 3e 5a
        E 0 97 43 64
        E 0 9f 32 5a
        E 38403 82 3e 64
        E 0 83 3e 64
        E 0 87 43 64
        E 0 8f 32 64
        E 0 92 4b 66
        E 0 93 3e 5a
        E 0 97 4b 66
        E 0 9f 32 5a
        E 0 82 4b 66
        E 0 83 3e 64
        E 0 87 4b 66
        E 0 8f 32 64
        E 0 92 4a 64
        E 0 93 3e 5a
        E 0 97 4a 64
        E 0 9f 32 5a
        E 0 82 4a 64
        E 0 87 4a 64
        E 0 92 48 64
        E 0 97 48 64
        E 0 82 48 64
        E 0 83 3e 64
        E 0 87 48 64
        E 0 8f 32 64
        E 0 92 46 66
        E 1 93 3e 5a
        E 0 97 46 66
        E 0 9f 32 5a
        E 0 82 46 66
        E 0 87 46 66
        E 0 92 45 64
        E 0 97 45 64
        E 0 82 45 64
        E 0 83 3e 64
        E 0 87 45 64
        E 0 8f 32 64
        E 0 92 43 64
        E 0 93 37 5a
        E 0 97 43 64
        E 0 9f 2b 5a
        E 0 82 43 64
        E 0 83 37 64
        E 0 87 43 64
        E 0 8f 2b 64
        E 0 9f 35 5a
        E 0 95 41 64
        E 0 9e 41 64
        E 0 85 41 64
        E 0 8e 41 64
        E 0 95 45 64
        E 0 9e 45 64
        E 0 85 45 64
        E 0 8e 45 64
        E 0 95 45 64
        E 0 9e 45 64
        E 0 85 45 64
        E 0 8e 45 64
        E 0 95 45 64
        E 0 9e 45 64
        E 0 85 45 64
        E 0 8e 45 64
        E 0 95 47 64
        E 0 9e 47 64
        E 0 85 47 64
        E 0 8e 47 64
        E 0 8f 35 64
        E 0 95 47 64
        E 0 9e 47 64
        E 0 9f 35 5a
        E 0 85 47 64
        E 0 8e 47 64
        E 0 95 47 64
        E 0 9e 47 64
        E 0 85 47 64
        E 0 8e 47 64
        E 0 95 47 64
        E 0 9e 47 64
        E 0 85 47 64
        E 0 8e 47 64
        E 0 95 47 64
        E 0 9e 47 64
        E 0 85 47 64
        E 0 8e 47 64
        E 0 95 47 64
        E 0 9e 47 64
        E 0 85 47 64
        E 0 8e 47 64
        E 0 95 47 64
        E 0 9e 47 64
        E 0 85 47 64
        E 0 8e 47 64
        E 0 95 48 64
        E 0 9e 48 64
        E 0 85 48 64
        E 0 8e 48 64
        E 0 8f 35 64
        E 1 95 43 64
        E 0 9e 43 64
        E 0 9f 37 5a
        E 0 85 43 64
        E 0 8e 43 64
        E 0 95 43 64
        E 0 9e 43 64
        E 0 85 43 64
        E 0 8e 43 64
        E 0 8f 37 64
        E 0 9f 30 5a
        E 0 8f 30 64
        E 0 98 4c 64
        E 0 9e 4c 64
        E 0 9f 30 5a
        E 0 88 4c 64
        E 0 8e 4c 64
        E 0 98 48 64
        E 0 9e 48 64
        E 0 88 48 64
        E 0 8e 48 64
        E 0 98 48 64
        E 0 9e 48 64
        E 0 88 48 64
        E 0 8e 48 64
        E 0 98 48 64
        E 0 9e 48 64
        E 0 88 48 64
        E 0 8e 48 64
        E 0 98 47 64
        E 0 9e 47 64
        E 0 88 47 64
        E 0 8e 47 64
        E 0 8f 30 64
        E 0 98 4a 64
        E 0 9e 4a 64
        E 0 9f 2b 5a
        E 0 88 4a 64
        E 0 8e 4a 64
        E 0 98 4a 64
        E 0 9e 4a 64
        E 0 88 4a 64
        E 0 8e 4a 64
        E 0 98 47 64
        E 0 9e 47 64
        E 0 88 47 64
        E 0 8e 47 64
        E 0 98 47 64
        E 0 9e 47 64
        E 0 88 47 64
        E 0 8e 47 64
        E 0 98 47 64
        E 0 9e 47 64
        E 0 88 47 64
        E 0 8e 47 64
        E 0 8f 2b 64
        E 0 98 44 64
        E 0 9e 44 64
        E 0 9f 32 5a
        E 0 88 44 64
        E 0 8e 44 64
        E 0 98 44 64
        E 0 9e 44 64
        E 0 88 44 64
        E 0 8e 44 64
        E 0 98 4d 64
        E 0 9e 4d 64
        E 0 88 4d 64
        E 0 8e 4d 64
        E 0 98 4a 64
        E 0 9e 4a 64
        E 0 88 4a 64
        E 0 8e 4a 64
        E 0 98 4a 64
        E 0 9e 4a 64
        E 0 88 4a 64
        E 0 8e 4a 64
        E 0 98 4a 64
        E 0 9e 4a 64
        E 0 88 4a 64
        E 0 8e 4a 64
        E 0 98 48 64
        E 0 9e 48 64
        E 0 88 48 64
        E 0 8e 48 64
        E 0 8f 32 64
        E 0 98 45 64
        E 0 9e 45 64
        E 1 9f 30 5a
        E 0 88 45 64
        E 0 8e 45 64
        E 0 98 45 64
        E 0 9e 45 64
        E 0 88 45 64
        E 0 8e 45 64
        E 0 95 40 64
        E 0 9e 40 64
        E 0 85 40 64
        E 0 8e 40 64
        E 0 95 40 64
        E 0 9e 40 64
        E 0 85 40 64
        E 0 8e 40 64
        E 0 95 40 64
        E 0 9e 40 64
        E 0 85 40 64
        E 0 8e 40 64
        E 0 95 45 64
        E 0 9e 45 64
        E 0 85 45 64
        E 0 8e 45 64
        E 0 95 45 64
        E 0 9e 45 64
        E 0 85 45 64
        E 0 8e 45 64
        E 0 95 45 64
        E 0 9e 45 64
        E 0 85 45 64
        E 0 8e 45 64
        E 0 95 45 64
        E 0 9e 45 64
        E 0 85 45 64
        E 0 8e 45 64
        E 0 95 45 64
        E 0 9e 45 64
        E 0 85 45 64
        E 0 8e 45 64
        E 0 8f 30 64
        E 0 95 42 64
        E 0 9e 42 64
        E 0 9f 2f 5a
        E 0 85 42 64
        E 0 8e 42 64
        E 0 98 47 64
        E 0 9e 47 64
        E 0 88 47 64
        E 0 8e 47 64
        E 0 8f 2f 64
        E 0 9f 2b 5a
        E 0 98 47 64
        E 0 9e 47 64
        E 0 88 47 64
        E 0 8e 47 64
        E 0 98 47 64
        E 0 9e 47 64
        E 0 88 47 64
        E 0 8e 47 64
        E 0 98 49 64
        E 0 9e 49 64
        E 0 88 49 64
        E 0 8e 49 64
        E 0 98 4a 64
        E 0 9e 4a 64
        E 0 88 4a 64
        E 0 8e 4a 64
        E 0 8f 2b 64
        E 0 98 45 64
        E 0 9e 45 64
        E 0 9f 2d 5a
        E 0 88 45 64
        E 0 8e 45 64
        E 0 98 45 64
        E 0 9e 45 64
        E 0 88 45 64
        E 0 8e 45 64
        E 0 8f 2d 64
        E 0 9f 32 5a
        E 0 8f 32 64
        E 0 95 42 64
        E 0 9e 42 64
        E 0 9f 32 5a
        E 0 85 42 64
        E 0 8e 42 64
        E 0 95 42 64
        E 0 9e 42 64
        E 0 85 42 64
        E 0 8e 42 64
        E 0 95 42 64
        E 0 9e 42 64
        E 0 85 42 64
        E 0 8e 42 64
        E 0 95 40 64
        E 0 9e 40 64
        E 0 85 40 64
        E 0 8e 40 64
        E 0 95 42 64
        E 0 9e 42 64
        E 0 85 42 64
        E 0 8e 42 64
        E 0 8f 32 64
        E 0 95 3e 64
        E 0 9e 3e 64
        E 0 9f 32 5a
        E 0 85 3e 64
        E 0 8e 3e 64
        E 0 95 3e 64
        E 0 9e 3e 64
        E 0 85 3e 64
        E 0 8e 3e 64
        E 0 95 45 64
        E 0 9e 45 64
        E 0 85 45 64
        E 0 8e 45 64
        E 0 95 45 64
        E 0 9e 45 64
        E 38403 85 45 64
        E 0 8e 45 64
        E 0 95 45 64
        E 0 9e 45 64
        E 0 85 45 64
        E 0 8e 45 64
        E 0 8f 32 64
        E 0 95 42 64
        E 0 9e 42 64
        E 0 9f 30 5a
        E 0 85 42 64
        E 0 8e 42 64
        E 0 95 42 64
        E 0 9e 42 64
        E 0 85 42 64
        E 0 8e 42 64
        E 0 95 48 64
        E 0 9e 48 64
        E 0 85 48 64
        E 0 8e 48 64
        E 0 95 48 64
        E 1 9e 48 64
        E 0 85 48 64
        E 0 8e 48 64
        E 0 95 47 64
        E 0 9e 47 64
        E 0 85 47 64
        E 0 8e 47 64
        E 0 8f 30 64
        E 0 95 43 64
        E 0 9e 43 64
        E 0 9f 2f 5a
        E 0 85 43 64
        E 0 8e 43 64
        E 0 95 43 64
        E 0 9e 43 64
        E 0 85 43 64
        E 0 8e 43 64
        E 0 8f 2f 64
        E 0 95 43 64
        E 0 9e 43 64
        E 0 9f 2f 5a
        E 0 85 43 64
        E 0 8e 43 64
        E 0 95 43 64
        E 0 9e 43 64
        E 0 85 43 64
        E 0 8e 43 64
        E 0 95 43 64
        E 0 9e 43 64
        E 0 85 43 64
        E 0 8e 43 64
        E 0 95 41 64
        E 0 9e 41 64
        E 0 85 41 64
        E 0 8e 41 64
        E 0 95 43 64
        E 0 9e 43 64
        E 0 85 43 64
        E 0 8e 43 64
        E 0 8f 2f 64
        E 0 95 40 64
        E 0 9e 40 64
        E 0 9f 30 5a
        E 0 85 40 64
        E 0 8e 40 64
        E 0 95 40 64
        E 0 9e 40 64
        E 0 85 40 64
        E 0 8e 40 64
        E 0 8f 30 64
        E 0 95 48 64
        E 0 9e 48 64
        E 0 9f 30 5a
        E 0 85 48 64
        E 0 8e 48 64
        E 0 95 48 64
        E 0 9e 48 64
        E 0 85 48 64
        E 0 8e 48 64
        E 0 95 48 64
        E 1 9e 48 64
        E 0 85 48 64
        E 0 8e 48 64
        E 0 95 48 64
        E 0 9e 48 64
        E 0 85 48 64
        E 0 8e 48 64
        E 0 95 47 64
        E 0 9e 47 64
        E 0 85 47 64
        E 0 8e 47 64
        E 0 8f 30 64
        E 0 95 43 64
        E 0 9e 43 64
        E 0 9f 32 5a
        E 0 85 43 64
        E 0 8e 43 64
        E 0 95 43 64
        E 0 9e 43 64
        E 0 85 43 64
        E 0 8e 43 64
        E 0 8f 32 64
        E 0 98 4a 64
        E 0 9e 4a 64
        E 0 9f 2b 5a
        E 0 88 4a 64
        E 0 8e 4a 64
        E 0 98 4a 64
        E 0 9e 4a 64
        E 0 88 4a 64
        E 0 8e 4a 64
        E 0 98 4a 64
        E 0 9e 4a 64
        E 0 88 4a 64
        E 0 8e 4a 64
        E 0 8f 2b 64
        E 0 98 47 64
        E 0 9e 47 64
        E 0 9f 2b 5a
        E 0 88 47 64
        E 0 8e 47 64
        E 0 98 47 64
        E 0 9e 47 64
        E 0 88 47 64
        E 0 8e 47 64
        E 0 98 47 64
        E 0 9e 47 64
        E 0 88 47 64
        E 0 8e 47 64
        E 0 98 48 64
        E 0 9e 48 64
        E 0 88 48 64
        E 0 8e 48 64
        E 0 98 4a 64
        E 0 9e 4a 64
        E 0 88 4a 64
        E 0 8e 4a 64
        E 0 98 4a 64
        E 0 9e 4a 64
        E 0 88 4a 64
        E 0 8e 4a 64
        E 0 98 4c 64
        E 1 9e 4c 64
        E 0 88 4c 64
        E 0 8e 4c 64
        E 0 8f 2b 64
        E 0 98 48 64
        E 0 9e 48 64
        E 0 9f 34 5a
        E 0 88 48 64
        E 0 8e 48 64
        E 0 98 43 64
        E 0 9e 43 64
        E 0 88 43 64
        E 0 8e 43 64
        E 0 98 43 64
        E 0 9e 43 64
        E 0 88 43 64
        E 0 8e 43 64
        E 0 98 45 64
        E 0 9e 45 64
        E 0 88 45 64
        E 0 8e 45 64
        E 0 8f 34 64
        E 0 98 47 64
        E 0 9e 47 64
        E 0 9f 33 5a
        E 0 88 47 64
        E 0 8e 47 64
        E 0 98 47 64
        E 0 9e 47 64
        E 0 88 47 64
        E 0 8e 47 64
        E 0 98 48 64
        E 0 9e 48 64
        E 0 88 48 64
        E 0 8e 48 64
        E 0 8f 33 64
        E 0 98 45 64
        E 0 9e 45 64
        E 0 9f 33 5a
        E 0 88 45 64
        E 0 8e 45 64
        E 0 98 45 64
        E 0 9e 45 64
        E 0 88 45 64
        E 0 8e 45 64
        E 0 98 45 64
        E 0 9e 45 64
        E 0 88 45 64
        E 0 8e 45 64
        E 0 98 43 64
        E 0 9e 43 64
        E 0 88 43 64
        E 0 8e 43 64
        E 0 8f 33 64
        E 0 98 40 64
        E 0 9e 40 64
        E 0 9f 34 5a
        E 1 88 40 64
        E 0 8e 40 64
        E 0 98 40 64
        E 0 9e 40 64
        E 0 88 40 64
        E 0 8e 40 64
        E 0 8f 34 64
        E 0 98 47 64
        E 0 9e 47 64
        E 0 9f 34 5a
        E 0 88 47 64
        E 0 8e 47 64
        E 0 98 47 64
        E 0 9e 47 64
        E 0 88 47 64
        E 0 8e 47 64
        E 0 98 48 64
        E 0 9e 48 64
        E 0 88 48 64
        E 0 8e 48 64
        E 0 8f 34 64
        E 0 98 45 64
        E 0 9e 45 64
        E 0 9f 30 5a
        E 0 88 45 64
        E 0 8e 45 64
        E 0 98 45 64
        E 0 9e 45 64
        E 0 88 45 64
        E 0 8e 45 64
        E 0 98 45 64
        E 0 9e 45 64
        E 0 88 45 64
        E 0 8e 45 64
        E 0 98 45 64
        E 0 9e 45 64
        E 0 88 45 64
        E 0 8e 45 64
        E 0 8f 30 64
        E 0 98 4b 64
        E 0 9e 4b 64
        E 0 9f 2d 5a
        E 0 88 4b 64
        E 0 8e 4b 64
        E 0 98 4b 64
        E 0 9e 4b 64
        E 0 88 4b 64
        E 0 8e 4b 64
        E 0 98 4c 64
        E 0 9e 4c 64
        E 0 88 4c 64
        E 0 8e 4c 64
        E 0 8f 2d 64
        E 0 98 47 64
        E 0 9e 47 64
        E 0 9f 2f 5a
        E 0 88 47 64
        E 0 8e 47 64
        E 0 98 47 64
        E 0 9e 47 64
        E 0 88 47 64
        E 0 8e 47 64
        E 0 8f 2f 64
        E 0 9f 34 5a
        E 0 8f 34 64
        E 0 98 4c 64
        E 0 9e 4c 64
        E 0 9f 34 5a
        E 0 88 4c 64
        E 0 8e 4c 64
        E 0 98 4c 64
        E 0 9e 4c 64
        E 0 88 4c 64
        E 0 8e 4c 64
        E 0 98 4c 64
        E 0 9e 4c 64
        E 0 88 4c 64
        E 0 8e 4c 64
        E 0 8f 34 64
        E 0 98 49 64
        E 0 9e 49 64
        E 0 9f 2e 5a
        E 0 88 49 64
        E 0 8e 49 64
        E 0 98 49 64
        E 1 9e 49 64
        E 0 88 49 64
        E 0 8e 49 64
        E 0 98 49 64
        E 0 9e 49 64
        E 0 88 49 64
        E 0 8e 49 64
        E 0 98 49 64
        E 0 9e 49 64
        E 0 88 49 64
        E 0 8e 49 64
        E 0 98 49 64
        E 0 9e 49 64
        E 0 88 49 64
        E 0 8e 49 64
        E 0 98 4a 64
        E 0 9e 4a 64
        E 0 88 4a 64
        E 0 8e 4a 64
        E 0 8f 2e 64
        E 0 98 47 64
        E 0 9e 47 64
        E 0 9f 2f 5a
        E 0 88 47 64
        E 0 8e 47 64
        E 0 98 47 64
        E 0 9e 47 64
        E 0 88 47 64
        E 0 8e 47 64
        E 0 8f 2f 64
        E 0 98 4a 64
        E 0 9e 4a 64
        E 0 9f 2f 5a
        E 0 88 4a 64
        E 0 8e 4a 64
        E 0 98 4a 64
        E 0 9e 4a 64
        E 38404 88 4a 64
        E 0 8e 4a 64
        E 0 98 49 64
        E 0 9e 49 64
        E 0 88 49 64
        E 0 8e 49 64
        E 0 8f 2f 64
        E 0 98 49 64
        E 0 9e 49 64
        E 0 9f 35 59
        E 0 88 49 64
        E 0 8e 49 64
        E 0 98 49 64
        E 0 9e 49 64
        E 0 88 49 64
        E 0 8e 49 64
        E 0 8f 35 63
        E 0 98 49 64
        E 0 9e 49 64
        E 0 9f 35 59
        E 0 88 49 64
        E 0 8e 49 64
        E 0 98 44 64
        E 0 9e 44 64
        E 0 88 44 64
        E 0 8e 44 64
        E 0 98 44 64
        E 0 9e 44 64
        E 0 88 44 64
        E 0 8e 44 64
        E 0 98 47 64
        E 0 9e 47 64
        E 0 88 47 64
        E 0 8e 47 64
        E 0 98 45 64
        E 0 9e 45 64
        E 0 88 45 64
        E 0 8e 45 64
        E 0 8f 35 63
        E 0 98 42 64
        E 0 9e 42 64
        E 0 9f 36 5a
        E 0 88 42 64
        E 0 8e 42 64
        E 0 98 42 64
        E 0 9e 42 64
        E 0 88 42 64
        E 0 8e 42 64
        E 0 95 45 64
        E 0 9e 45 64
        E 0 85 45 64
        E 0 8e 45 64
        E 0 95 45 64
        E 0 9e 45 64
        E 0 85 45 64
        E 0 8e 45 64
        E 0 95 47 64
        E 0 9e 47 64
        E 0 85 47 64
        E 0 8e 47 64
        E 0 8f 36 64
        E 0 95 47 64
        E 0 9e 47 64
        E 0 9f 32 5a
        E 0 85 47 64
        E 0 8e 47 64
        E 0 95 47 64
        E 0 9e 47 64
        E 0 85 47 64
        E 0 8e 47 64
        E 1 95 47 64
        E 0 9e 47 64
        E 0 85 47 64
        E 0 8e 47 64
        E 0 95 47 64
        E 0 9e 47 64
        E 0 85 47 64
        E 0 8e 47 64
        E 0 95 42 64
        E 0 9e 42 64
        E 0 85 42 64
        E 0 8e 42 64
        E 0 95 42 64
        E 0 9e 42 64
        E 0 85 42 64
        E 0 8e 42 64
        E 0 95 41 63
        E 0 9e 41 63
        E 0 85 41 63
        E 0 8e 41 63
        E 0 8f 32 64
        E 0 95 44 64
        E 0 9e 44 64
        E 0 9f 31 5a
        E 0 85 44 64
        E 0 8e 44 64
        E 0 95 44 64
        E 0 9e 44 64
        E 0 85 44 64
        E 0 8e 44 64
        E 0 98 44 64
        E 0 9e 44 64
        E 0 88 44 64
        E 0 8e 44 64
        E 0 98 49 64
        E 0 9e 49 64
        E 0 88 49 64
        E 0 8e 49 64
        E 0 98 49 64
        E 0 9e 49 64
        E 0 88 49 64
        E 0 8e 49 64
        E 0 98 4c 64
        E 0 9e 4c 64
        E 0 88 4c 64
        E 0 8e 4c 64
        E 0 8f 31 64
        E 0 98 47 64
        E 0 9e 47 64
        E 0 9f 2c 5a
        E 0 88 47 64
        E 0 8e 47 64
        E 0 98 47 64
        E 0 9e 47 64
        E 0 88 47 64
        E 0 8e 47 64
        E 0 98 47 64
        E 0 9e 47 64
        E 0 88 47 64
        E 0 8e 47 64
        E 0 98 47 64
        E 0 9e 47 64
        E 0 88 47 64
        E 0 8e 47 64
        E 0 98 47 64
        E 0 9e 47 64
        E 0 88 47 64
        E 0 8e 47 64
        E 0 98 4a 64
        E 0 9e 4a 64
        E 0 88 4a 64
        E 0 8e 4a 64
        E 0 98 49 64
        E 0 9e 49 64
        E 0 88 49 64
        E 0 8e 49 64
        E 0 8f 2c 64
        E 0 98 45 64
        E 0 9e 45 64
        E 0 9f 2d 5a
        E 0 88 45 64
        E 0 8e 45 64
        E 0 98 45 64
        E 0 9e 45 64
        E 0 88 45 64
        E 0 8e 45 64
        E 1 98 45 64
        E 0 9e 45 64
        E 0 88 45 64
        E 0 8e 45 64
        E 0 98 45 64
        E 0 9e 45 64
        E 0 88 45 64
        E 0 8e 45 64
        E 0 98 45 64
        E 0 9e 45 64
        E 0 88 45 64
        E 0 8e 45 64
        E 0 98 4b 64
        E 0 9e 4b 64
        E 0 88 4b 64
        E 0 8e 4b 64
        E 0 98 4b 64
        E 0 9e 4b 64
        E 0 88 4b 64
        E 0 8e 4b 64
        E 0 8f 2d 64
        E 0 98 4e 64
        E 0 9e 4e 64
        E 0 9f 2d 5a
        E 0 88 4e 64
        E 0 8e 4e 64
        E 0 98 4b 64
        E 0 9e 4b 64
        E 0 88 4b 64
        E 0 8e 4b 64
        E 0 98 4b 64
        E 0 9e 4b 64
        E 0 88 4b 64
        E 0 8e 4b 64
        E 0 98 4b 64
        E 0 9e 4b 64
        E 0 88 4b 64
        E 0 8e 4b 64
        E 0 98 4c 64
        E 0 9e 4c 64
        E 0 88 4c 64
        E 0 8e 4c 64
        E 0 8f 2d 64
        E 0 98 47 64
        E 0 9e 47 64
        E 0 9f 2c 5a
        E 0 88 47 64
        E 0 8e 47 64
        E 0 98 47 64
        E 0 9e 47 64
        E 0 88 47 64
        E 0 8e 47 64
        E 0 98 4a 64
        E 0 9e 4a 64
        E 0 88 4a 64
        E 0 8e 4a 64
        E 0 98 4a 64
        E 0 9e 4a 64
        E 0 88 4a 64
        E 0 8e 4a 64
        E 0 98 49 64
        E 0 9e 49 64
        E 0 88 49 64
        E 0 8e 49 64
        E 0 8f 2c 64
        E 0 98 48 63
        E 0 9e 48 63
        E 0 9f 36 5a
        E 0 88 48 63
        E 0 8e 48 63
        E 0 98 48 63
        E 0 9e 48 63
        E 0 88 48 63
        E 0 8e 48 63
        E 0 98 43 64
        E 0 9e 43 64
        E 0 88 43 64
        E 0 8e 43 64
        E 0 98 43 64
        E 0 9e 43 64
        E 0 88 43 64
        E 0 8e 43 64
        E 0 98 43 64
        E 0 9e 43 64
        E 0 88 43 64
        E 0 8e 43 64
        E 0 98 48 63
        E 0 9e 48 63
        E 0 88 48 63
        E 0 8e 48 63
        E 0 98 48 63
        E 0 9e 48 63
        E 0 88 48 63
        E 0 8e 48 63
        E 0 98 49 64
        E 0 9e 49 64
        E 0 88 49 64
        E 0 8e 49 64
        E 0 8f 36 64
        E 0 98 44 64
        E 0 9e 44 64
        E 0 9f 34 5a
        E 1 88 44 64
        E 0 8e 44 64
        E 0 98 44 64
        E 0 9e 44 64
        E 0 88 44 64
        E 0 8e 44 64
        E 0 98 44 64
        E 0 9e 44 64
        E 0 88 44 64
        E 0 8e 44 64
        E 0 98 49 64
        E 0 9e 49 64
        E 0 88 49 64
        E 0 8e 49 64
        E 0 98 47 64
        E 0 9e 47 64
        E 0 88 47 64
        E 0 8e 47 64
        E 0 98 49 64
        E 0 9e 49 64
        E 0 88 49 64
        E 0 8e 49 64
        E 0 8f 34 64
        E 0 98 45 64
        E 0 9e 45 64
        E 0 9f 36 5a
        E 0 88 45 64
        E 0 8e 45 64
        E 0 98 45 64
        E 0 9e 45 64
        E 0 88 45 64
        E 0 8e 45 64
        E 0 98 45 64
        E 0 9e 45 64
        E 0 88 45 64
        E 0 8e 45 64
        E 0 98 4a 64
        E 0 9e 4a 64
        E 0 88 4a 64
        E 0 8e 4a 64
        E 0 98 49 64
        E 0 9e 49 64
        E 0 88 49 64
        E 0 8e 49 64
        E 0 98 49 64
        E 0 9e 49 64
        E 0 88 49 64
        E 0 8e 49 64
        E 0 98 47 64
        E 0 9e 47 64
        E 0 88 47 64
        E 0 8e 47 64
        E 0 8f 36 64
        E 0 98 47 64
        E 0 9e 47 64
        E 0 9f 37 5a
        E 0 88 47 64
        E 0 8e 47 64
        E 0 98 47 64
        E 0 9e 47 64
        E 0 88 47 64
        E 0 8e 47 64
        E 38403 98 47 64
        E 0 9e 47 64
        E 0 88 47 64
        E 0 8e 47 64
        E 0 98 47 64
        E 0 9e 47 64
        E 0 88 47 64
        E 0 8e 47 64
        E 0 98 47 64
        E 0 9e 47 64
        E 0 88 47 64
        E 0 8e 47 64
        E 0 98 45 64
        E 0 9e 45 64
        E 0 88 45 64
        E 0 8e 45 64
        E 0 98 43 64
        E 0 9e 43 64
        E 0 88 43 64
        E 0 8e 43 64
        E 0 8f 37 64
        E 0 98 49 64
        E 0 9e 49 64
        E 0 9f 37 5a
        E 0 88 49 64
        E 0 8e 49 64
        E 0 98 4c 64
        E 0 9e 4c 64
        E 0 88 4c 64
        E 0 8e 4c 64
        E 0 98 49 64
        E 0 9e 49 64
        E 0 88 49 64
        E 0 8e 49 64
        E 0 98 4a 64
        E 0 9e 4a 64
        E 0 88 4a 64
        E 0 8e 4a 64
        E 0 8f 37 64
        E 0 98 45 64
        E 0 9e 45 64
        E 0 9f 39 5a
        E 0 88 45 64
        E 0 8e 45 64
        E 0 98 45 64
        E 1 9e 45 64
        E 0 88 45 64
        E 0 8e 45 64
        E 0 8f 39 64
        E 0 9f 32 5a
        E 0 95 42 64
        E 0 9e 42 64
        E 0 85 42 64
        E 0 8e 42 64
        E 0 8f 32 64
        E 0 95 3e 64
        E 0 9e 3e 64
        E 0 9f 32 5a
        E 0 85 3e 64
        E 0 8e 3e 64
        E 0 95 48 64
        E 0 9e 48 64
        E 0 85 48 64
        E 0 8e 48 64
        E 0 95 48 64
        E 0 9e 48 64
        E 0 85 48 64
        E 0 8e 48 64
        E 0 95 46 66
        E 0 9e 46 66
        E 0 85 46 66
        E 0 8e 46 66
        E 0 8f 32 64
        E 0 95 43 64
        E 0 9e 43 64
        E 0 9f 37 5a
        E 0 85 43 64
        E 0 8e 43 64
        E 0 95 43 64
        E 0 9e 43 64
        E 0 85 43 64
        E 0 8e 43 64
        E 0 98 4b 66
        E 0 9e 4b 66
        E 0 88 4b 66
        E 0 8e 4b 66
        E 0 8f 37 64
        E 0 98 48 64
        E 0 9e 48 64
        E 0 9f 33 5b
        E 0 88 48 64
        E 0 8e 48 64
        E 0 98 48 64
        E 0 9e 48 64
        E 0 88 48 64
        E 0 8e 48 64
        E 0 98 43 64
        E 0 9e 43 64
        E 0 88 43 64
        E 0 8e 43 64
        E 0 8f 33 66
        E 0 98 45 64
        E 0 9e 45 64
        E 0 9f 32 5a
        E 0 88 45 64
        E 0 8e 45 64
        E 1 98 45 64
        E 0 9e 45 64
        E 0 88 45 64
        E 0 8e 45 64
        E 0 95 42 64
        E 0 9e 42 64
        E 0 85 42 64
        E 0 8e 42 64
        E 0 8f 32 64
        E 0 95 42 64
        E 0 9e 42 64
        E 0 9f 32 5a
        E 0 85 42 64
        E 0 8e 42 64
        E 0 95 42 64
        E 0 9e 42 64
        E 0 85 42 64
        E 0 8e 42 64
        E 0 95 43 64
        E 0 9e 43 64
        E 0 85 43 64
        E 0 8e 43 64
        E 0 95 45 64
        E 0 9e 45 64
        E 0 85 45 64
        E 0 8e 45 64
        E 0 8f 32 64
        E 0 95 47 64
        E 0 9e 47 64
        E 0 9f 37 5a
        E 0 85 47 64
        E 0 8e 47 64
        E 0 95 47 64
        E 0 9e 47 64
        E 0 85 47 64
        E 0 8e 47 64
        E 0 8f 37 64
        E 0 98 4a 64
        E 0 9e 4a 64
        E 0 9f 37 5a
        E 0 88 4a 64
        E 0 8e 4a 64
        E 0 98 47 64
        E 0 9e 47 64
        E 0 88 47 64
        E 0 8e 47 64
        E 0 98 47 64
        E 0 9e 47 64
        E 0 88 47 64
        E 0 8e 47 64
        E 0 98 47 64
        E 0 9e 47 64
        E 0 88 47 64
        E 0 8e 47 64
        E 1 98 48 64
        E 0 9e 48 64
        E 0 88 48 64
        E 0 8e 48 64
        E 0 8f 37 64
        E 0 98 43 64
        E 0 9e 43 64
        E 0 9f 30 5a
        E 0 88 43 64
        E 0 8e 43 64
        E 0 98 43 64
        E 0 9e 43 64
        E 0 88 43 64
        E 0 8e 43 64
        E 0 98 48 64
        E 0 9e 48 64
        E 0 88 48 64
        E 0 8e 48 64
        E 0 98 48 64
        E 0 9e 48 64
        E 0 88 48 64
        E 0 8e 48 64
        E 0 98 4a 64
        E 0 9e 4a 64
        E 0 88 4a 64
        E 0 8e 4a 64
        E 0 8f 30 64
        E 0 98 46 66
        E 0 9e 46 66
        E 0 9f 30 5a
        E 0 88 46 66
        E 0 8e 46 66
        E 0 98 46 66
        E 0 9e 46 66
        E 0 88 46 66
        E 0 8e 46 66
        E 0 98 43 64
        E 0 9e 43 64
        E 0 88 43 64
        E 0 8e 43 64
        E 0 98 45 64
        E 0 9e 45 64
        E 0 88 45 64
        E 0 8e 45 64
        E 0 98 46 66
        E 0 9e 46 66
        E 0 88 46 66
        E 0 8e 46 66
        E 0 98 46 66
        E 0 9e 46 66
        E 0 88 46 66
        E 0 8e 46 66
        E 0 98 45 64
        E 0 9e 45 64
        E 0 88 45 64
        E 0 8e 45 64
        E 0 8f 30 64
        E 0 98 41 64
        E 0 9e 41 64
        E 0 9f 35 5a
        E 0 88 41 64
        E 0 8e 41 64
        E 0 98 41 64
        E 0 9e 41 64
        E 0 88 41 64
        E 0 8e 41 64
        E 0 95 45 64
        E 0 9e 45 64
        E 0 85 45 64
        E 0 8e 45 64
        E 0 95 46 66
        E 0 9e 46 66
        E 0 85 46 66
        E 0 8e 46 66
        E 0 95 48 64
        E 0 9e 48 64
        E 0 85 48 64
        E 0 8e 48 64
        E 1 95 48 64
        E 0 9e 48 64
        E 0 8f 35 64
        E 0 85 48 64
        E 0 8e 48 64
        E 0 9f 35 5a
        E 0 98 4b 66
        E 0 9e 4b 66
        E 0 88 4b 66
        E 0 8e 4b 66
        E 0 98 4b 66
        E 0 9e 4b 66
        E 0 8f 35 64
        E 0 88 4b 66
        E 0 8e 4b 66
        E 0 9f 36 5a
        E 0 98 48 64
        E 0 9e 48 64
        E 0 88 48 64
        E 0 8e 48 64
        E 0 98 48 64
        E 0 9e 48 64
        E 0 88 48 64
        E 0 8e 48 64
        E 0 8f 36 64
        E 0 9f 36 5a
        E 0 98 48 64
        E 0 9e 48 64
        E 0 88 48 64
        E 0 8e 48 64
        E 0 98 48 64
        E 0 9e 48 64
        E 0 88 48 64
        E 0 8e 48 64
        E 0 98 48 64
        E 0 9e 48 64
        E 0 88 48 64
        E 0 8e 48 64
        E 0 98 48 64
        E 0 9e 48 64
        E 0 88 48 64
        E 0 8e 48 64
        E 0 98 46 66
        E 0 9e 46 66
        E 0 8f 36 64
        E 0 88 46 66
        E 0 8e 46 66
        E 0 9f 37 5a
        E 0 98 46 66
        E 0 9e 46 66
        E 0 88 46 66
        E 0 8e 46 66
        E 0 98 46 66
        E 0 9e 46 66
        E 0 88 46 66
        E 0 8e 46 66
        E 0 98 46 66
        E 0 9e 46 66
        E 0 88 46 66
        E 0 8e 46 66
        E 0 98 46 66
        E 0 9e 46 66
        E 0 8f 37 64
        E 0 88 46 66
        E 0 8e 46 66
        E 0 9f 37 5a
        E 0 98 4b 66
        E 0 9e 4b 66
        E 0 88 4b 66
        E 0 8e 4b 66
        E 0 98 4b 66
        E 1 9e 4b 66
        E 38403 88 4b 66
        E 0 8e 4b 66
        E 0 98 4a 64
        E 0 9e 4a 64
        E 0 8f 37 64
        E 0 88 4a 64
        E 0 8e 4a 64
        E 0 9f 35 5a
        E 0 98 46 66
        E 0 9e 46 66
        E 0 88 46 66
        E 0 8e 46 66
        E 0 98 46 66
        E 0 9e 46 66
        E 0 88 46 66
        E 0 8e 46 66
        E 0 98 46 66
        E 0 9e 46 66
        E 0 8f 35 64
        E 0 88 46 66
        E 0 8e 46 66
        E 0 9f 2e 5b
        E 0 8f 2e 66
        E 0 9f 2e 5b
        E 0 98 41 64
        E 0 9e 41 64
        E 0 88 41 64
        E 0 8e 41 64
        E 0 98 41 64
        E 0 9e 41 64
        E 0 88 41 64
        E 0 8e 41 64
        E 0 98 41 64
        E 1 9e 41 64
        E 0 88 41 64
        E 0 8e 41 64
        E 0 98 46 66
        E 0 9e 46 66
        E 0 88 46 66
        E 0 8e 46 66
        E 0 98 46 66
        E 0 9e 46 66
        E 0 88 46 66
        E 0 8e 46 66
        E 0 8f 2e 66
        E 0 9f 2e 5b
        E 0 98 46 66
        E 0 9e 46 66
        E 0 88 46 66
        E 0 8e 46 66
        E 0 98 46 66
        E 0 9e 46 66
        E 0 88 46 66
        E 0 8e 46 66
        E 0 98 46 66
        E 0 9e 46 66
        E 0 88 46 66
        E 0 8e 46 66
        E 0 98 46 66
        E 0 9e 46 66
        E 0 88 46 66
        E 0 8e 46 66
        E 0 98 48 64
        E 0 9e 48 64
        E 0 88 48 64
        E 0 8e 48 64
        E 0 98 4a 64
        E 0 9e 4a 64
        E 0 88 4a 64
        E 0 8e 4a 64
        E 0 98 4a 64
        E 0 9e 4a 64
        E 0 88 4a 64
        E 0 8e 4a 64
        E 0 98 4a 64
        E 0 9e 4a 64
        E 0 88 4a 64
        E 0 8e 4a 64
        E 0 98 4a 64
        E 0 9e 4a 64
        E 0 88 4a 64
        E 0 8e 4a 64
        E 0 8f 2e 66
        E 0 98 47 64
        E 0 9e 47 64
        E 0 9f 35 5a
        E 0 88 47 64
        E 0 8e 47 64
        E 0 98 47 64
        E 0 9e 47 64
        E 0 88 47 64
        E 0 8e 47 64
        E 0 98 48 64
        E 0 9e 48 64
        E 0 88 48 64
        E 0 8e 48 64
        E 0 8f 35 64
        E 0 98 43 64
        E 0 9e 43 64
        E 0 9f 33 5b
        E 0 88 43 64
        E 0 8e 43 64
        E 0 98 43 64
        E 0 9e 43 64
        E 0 88 43 64
        E 0 8e 43 64
        E 0 98 48 64
        E 0 9e 48 64
        E 0 88 48 64
        E 0 8e 48 64
        E 0 98 48 64
        E 0 9e 48 64
        E 0 88 48 64
        E 0 8e 48 64
        E 0 98 49 66
        E 0 9e 49 66
        E 0 88 49 66
        E 0 8e 49 66
        E 0 8f 33 66
        E 0 98 46 66
        E 0 9e 46 66
        E 0 9f 34 5a
        E 0 88 46 66
        E 0 8e 46 66
        E 0 98 46 66
        E 0 9e 46 66
        E 0 88 46 66
        E 0 8e 46 66
        E 0 98 46 66
        E 0 9e 46 66
        E 0 88 46 66
        E 0 8e 46 66
        E 0 98 46 66
        E 0 9e 46 66
        E 0 88 46 66
        E 0 8e 46 66
        E 0 98 46 66
        E 0 9e 46 66
        E 0 88 46 66
        E 0 8e 46 66
        E 0 98 44 66
        E 0 9e 44 66
        E 0 88 44 66
        E 0 8e 44 66
        E 0 98 43 64
        E 0 9e 43 64
        E 0 88 43 64
        E 0 8e 43 64
        E 0 8f 34 64
        E 0 98 44 66
        E 0 9e 44 66
        E 0 9f 35 5a
        E 0 88 44 66
        E 1 8e 44 66
        E 0 98 44 66
        E 0 9e 44 66
        E 0 88 44 66
        E 0 8e 44 66
        E 0 98 4a 64
        E 0 9e 4a 64
        E 0 88 4a 64
        E 0 8e 4a 64
        E 0 98 4a 64
        E 0 9e 4a 64
        E 0 88 4a 64
        E 0 8e 4a 64
        E 0 98 47 64
        E 0 9e 47 64
        E 0 88 47 64
        E 0 8e 47 64
        E 0 98 47 64
        E 0 9e 47 64
        E 0 88 47 64
        E 0 8e 47 64
        E 0 98 4c 64
        E 0 9e 4c 64
        E 0 88 4c 64
        E 0 8e 4c 64
        E 0 8f 35 64
        E 0 98 48 64
        E 0 9e 48 64
        E 0 9f 37 5a
        E 0 88 48 64
        E 0 8e 48 64
        E 0 98 48 64
        E 0 9e 48 64
        E 0 88 48 64
        E 0 8e 48 64
        E 0 8f 37 64
        E 0 9f 30 5a
        E 0 98 48 64
        E 0 9e 48 64
        E 0 88 48 64
        E 0 8e 48 64
        E 0 98 48 64
        E 0 9e 48 64
        E 0 88 48 64
        E 0 8e 48 64
        E 0 98 4a 64
        E 0 9e 4a 64
        E 0 88 4a 64
        E 0 8e 4a 64
        E 0 8f 30 64
        E 0 98 45 64
        E 0 9e 45 64
        E 0 9f 36 5a
        E 0 88 45 64
        E 0 8e 45 64
        E 0 98 45 64
        E 0 9e 45 64
        E 0 88 45 64
        E 0 8e 45 64
        E 0 98 45 64
        E 0 9e 45 64
        E 0 88 45 64
        E 0 8e 45 64
        E 0 98 48 64
        E 0 9e 48 64
        E 0 88 48 64
        E 0 8e 48 64
        E 0 98 46 66
        E 0 9e 46 66
        E 0 88 46 66
        E 0 8e 46 66
        E 0 8f 36 64
        E 0 98 43 64
        E 0 9e 43 64
        E 0 9f 37 5a
        E 0 88 43 64
        E 0 8e 43 64
        E 0 95 46 66
        E 0 9e 46 66
        E 0 85 46 66
        E 0 8e 46 66
        E 0 95 46 66
        E 0 9e 46 66
        E 0 85 46 66
        E 0 8e 46 66
        E 0 95 46 66
        E 0 9e 46 66
        E 0 85 46 66
        E 0 8e 46 66
        E 0 95 48 64
        E 0 9e 48 64
        E 0 85 48 64
        E 0 8e 48 64
        E 0 95 4a 64
        E 0 9e 4a 64
        E 0 85 4a 64
        E 0 8e 4a 64
        E 0 8f 37 64
        E 0 95 45 64
        E 0 9e 45 64
        E 0 9f 39 5a
        E 0 85 45 64
        E 0 8e 45 64
        E 1 95 45 64
        E 0 9e 45 64
        E 0 85 45 64
        E 0 8e 45 64
        E 0 8f 39 64
        E 0 9f 32 5a
        E 0 95 41 64
        E 0 9e 41 64
        E 0 85 41 64
        E 0 8e 41 64
        E 0 8f 32 64
        E 0 95 3e 64
        E 0 9e 3e 64
        E 0 9f 32 5a
        E 0 85 3e 64
        E 0 8e 3e 64
        E 0 95 3e 64
        E 0 9e 3e 64
        E 0 85 3e 64
        E 0 8e 3e 64
        E 0 95 45 64
        E 0 9e 45 64
        E 0 85 45 64
        E 0 8e 45 64
        E 0 95 45 64
        E 0 9e 45 64
        E 0 85 45 64
        E 0 8e 45 64
        E 0 95 45 64
        E 0 9e 45 64
        E 0 85 45 64
        E 0 8e 45 64
        E 0 8f 32 64
        E 0 95 41 64
        E 0 9e 41 64
        E 0 9f 32 5a
        E 0 85 41 64
        E 0 8e 41 64
        E 0 95 41 64
        E 0 9e 41 64
        E 0 85 41 64
        E 0 8e 41 64
        E 0 95 45 64
        E 0 9e 45 64
        E 0 85 45 64
        E 0 8e 45 64
        E 0 95 45 64
        E 0 9e 45 64
        E 0 85 45 64
        E 0 8e 45 64
        E 0 95 46 66
        E 0 9e 46 66
        E 0 85 46 66
        E 0 8e 46 66
        E 0 95 46 66
        E 0 9e 46 66
        E 0 85 46 66
        E 0 8e 46 66
        E 0 95 46 66
        E 0 9e 46 66
        E 0 85 46 66
        E 0 8e 46 66
        E 0 95 41 64
        E 0 9e 41 64
        E 0 85 41 64
        E 0 8e 41 64
        E 0 95 41 64
        E 0 9e 41 64
        E 0 85 41 64
        E 0 8e 41 64
        E 0 95 40 64
        E 0 9e 40 64
        E 0 85 40 64
        E 0 8e 40 64
        E 0 8f 32 64
        E 0 95 43 64
        E 0 9e 43 64
        E 0 9f 30 5a
        E 0 85 43 64
        E 0 8e 43 64
        E 38403 95 48 64
        E 0 9e 48 64
        E 0 85 48 64
        E 0 8e 48 64
        E 0 95 43 64
        E 0 9e 43 64
        E 0 85 43 64
        E 0 8e 43 64
        E 0 95 43 64
        E 0 9e 43 64
        E 0 85 43 64
        E 0 8e 43 64
        E 0 95 41 64
        E 0 9e 41 64
        E 0 85 41 64
        E 0 8e 41 64
        E 1 95 43 64
        E 0 9e 43 64
        E 0 85 43 64
        E 0 8e 43 64
        E 0 8f 30 64
        E 0 95 45 64
        E 0 9e 45 64
        E 0 9f 35 5a
        E 0 85 45 64
        E 0 8e 45 64
        E 0 95 45 64
        E 0 9e 45 64
        E 0 85 45 64
        E 0 8e 45 64
        E 0 95 4a 64
        E 0 9e 4a 64
        E 0 85 4a 64
        E 0 8e 4a 64
        E 0 95 4a 64
        E 0 9e 4a 64
        E 0 85 4a 64
        E 0 8e 4a 64
        E 0 95 45 64
        E 0 9e 45 64
        E 0 85 45 64
        E 0 8e 45 64
        E 0 95 45 64
        E 0 9e 45 64
        E 0 85 45 64
        E 0 8e 45 64
        E 0 95 44 64
        E 0 9e 44 64
        E 0 85 44 64
        E 0 8e 44 64
        E 0 8f 35 64
        E 0 95 47 64
        E 0 9e 47 64
        E 0 9f 34 5a
        E 0 85 47 64
        E 0 8e 47 64
        E 0 95 47 64
        E 0 9e 47 64
        E 0 85 47 64
        E 0 8e 47 64
        E 0 8f 34 64
        E 1 95 42 64
        E 0 9e 42 64
        E 0 9f 33 5a
        E 0 85 42 64
        E 0 8e 42 64
        E 0 95 42 64
        E 0 9e 42 64
        E 0 85 42 64
        E 0 8e 42 64
        E 0 95 43 64
        E 0 9e 43 64
        E 0 85 43 64
        E 0 8e 43 64
        E 0 8f 33 64
        E 0 95 45 64
        E 0 9e 45 64
        E 0 9f 33 5a
        E 0 85 45 64
        E 0 8e 45 64
        E 0 95 45 64
        E 0 9e 45 64
        E 0 85 45 64
        E 0 8e 45 64
        E 0 95 48 64
        E 0 9e 48 64
        E 0 85 48 64
        E 0 8e 48 64
        E 0 95 48 64
        E 0 9e 48 64
        E 0 85 48 64
        E 0 8e 48 64
        E 0 95 48 64
        E 0 9e 48 64
        E 0 85 48 64
        E 0 8e 48 64
        E 0 95 47 64
        E 0 9e 47 64
        E 0 85 47 64
        E 0 8e 47 64
        E 0 95 48 64
        E 0 9e 48 64
        E 0 85 48 64
        E 0 8e 48 64
        E 0 8f 33 64
        E 0 95 45 64
        E 0 9e 45 64
        E 0 9f 33 5a
        E 0 85 45 64
        E 0 8e 45 64
        E 0 95 45 64
        E 0 9e 45 64
        E 1 85 45 64
        E 0 8e 45 64
        E 0 95 45 64
        E 0 9e 45 64
        E 0 85 45 64
        E 0 8e 45 64
        E 0 95 43 64
        E 0 9e 43 64
        E 0 85 43 64
        E 0 8e 43 64
        E 0 8f 33 64
        E 0 95 40 64
        E 0 9e 40 64
        E 0 9f 34 5a
        E 0 85 40 64
        E 0 8e 40 64
        E 0 95 40 64
        E 0 9e 40 64
        E 0 85 40 64
        E 0 8e 40 64
        E 0 8f 34 64
        E 0 95 47 64
        E 0 9e 47 64
        E 0 9f 34 5a
        E 0 85 47 64
        E 0 8e 47 64
        E 0 95 47 64
        E 0 9e 47 64
        E 0 85 47 64
        E 0 8e 47 64
        E 0 95 43 64
        E 0 9e 43 64
        E 0 85 43 64
        E 0 8e 43 64
        E 0 95 43 64
        E 0 9e 43 64
        E 0 85 43 64
        E 0 8e 43 64
        E 0 95 47 64
        E 0 9e 47 64
        E 0 85 47 64
        E 0 8e 47 64
        E 0 8f 34 64
        E 0 95 40 64
        E 0 9e 40 64
        E 0 9f 34 5a
        E 0 85 40 64
        E 0 8e 40 64
        E 0 95 40 64
        E 0 9e 40 64
        E 0 85 40 64
        E 0 8e 40 64
        E 0 95 47 64
        E 0 9e 47 64
        E 0 85 47 64
        E 0 8e 47 64
        E 0 95 47 64
        E 0 9e 47 64
        E 0 85 47 64
        E 0 8e 47 64
        E 1 95 49 64
        E 0 9e 49 64
        E 0 85 49 64
        E 0 8e 49 64
        E 0 95 46 64
        E 0 9e 46 64
        E 0 85 46 64
        E 0 8e 46 64
        E 0 95 46 64
        E 0 9e 46 64
        E 0 85 46 64
        E 0 8e 46 64
        E 0 95 42 64
        E 0 9e 42 64
        E 0 85 42 64
        E 0 8e 42 64
        E 0 95 42 64
        E 0 9e 42 64
        E 0 85 42 64
        E 0 8e 42 64
        E 0 8f 34 64
        E 0 95 49 64
        E 0 9e 49 64
        E 0 9f 2e 5a
        E 0 85 49 64
        E 0 8e 49 64
        E 0 95 49 64
        E 0 9e 49 64
        E 0 85 49 64
        E 0 8e 49 64
        E 0 95 4a 64
        E 0 9e 4a 64
        E 0 85 4a 64
        E 0 8e 4a 64
        E 0 8f 2e 64
        E 0 95 47 64
        E 0 9e 47 64
        E 0 9f 2f 5a
        E 0 85 47 64
        E 0 8e 47 64
        E 0 95 47 64
        E 0 9e 47 64
        E 0 85 47 64
        E 0 8e 47 64
        E 0 8f 2f 64
        E 0 95 42 64
        E 0 9e 42 64
        E 0 9f 2f 5a
        E 0 85 42 64
        E 0 8e 42 64
        E 0 95 42 64
        E 0 9e 42 64
        E 0 85 42 64
        E 0 8e 42 64
        E 0 95 43 64
        E 0 9e 43 64
        E 0 85 43 64
        E 0 8e 43 64
        E 0 8f 2f 64
        E 0 95 45 64
        E 0 9e 45 64
        E 0 9f 31 5a
        E 0 85 45 64
        E 0 8e 45 64
        E 0 95 45 64
        E 0 9e 45 64
        E 0 85 45 64
        E 0 8e 45 64
        E 0 95 45 64
        E 1 9e 45 64
        E 0 85 45 64
        E 0 8e 45 64
        E 0 95 46 66
        E 0 9e 46 66
        E 0 85 46 66
        E 0 8e 46 66
        E 0 8f 31 64
        E 0 95 43 64
        E 0 9e 43 64
        E 0 9f 31 5a
        E 0 85 43 64
        E 0 8e 43 64
        E 0 95 43 64
        E 0 9e 43 64
        E 0 85 43 64
        E 0 8e 43 64
        E 0 95 41 64
        E 0 9e 41 64
        E 0 85 41 64
        E 0 8e 41 64
        E 0 8f 31 64
        E 0 95 3e 64
        E 0 9e 3e 64
        E 0 9f 32 5a
        E 0 85 3e 64
        E 0 8e 3e 64
        E 0 95 41 64
        E 0 9e 41 64
        E 0 85 41 64
        E 0 8e 41 64
        E 0 95 41 64
        E 0 9e 41 64
        E 0 85 41 64
        E 0 8e 41 64
        E 0 8f 32 64
        E 0 95 46 66
        E 0 9e 46 66
        E 0 9f 32 5a
        E 0 85 46 66
        E 0 8e 46 66
        E 0 95 46 66
        E 0 9e 46 66
        E 0 85 46 66
        E 0 8e 46 66
        E 38404 95 48 64
        E 0 9e 48 64
        E 0 85 48 64
        E 0 8e 48 64
        E 0 95 44 64
        E 0 9e 44 64
        E 0 85 44 64
        E 0 8e 44 64
        E 0 95 44 64
        E 0 9e 44 64
        E 0 85 44 64
        E 0 8e 44 64
        E 0 95 44 64
        E 0 9e 44 64
        E 0 85 44 64
        E 0 8e 44 64
        E 0 95 43 64
        E 0 9e 43 64
        E 0 85 43 64
        E 0 8e 43 64
        E 0 8f 32 64
        E 0 95 43 64
        E 0 9e 43 64
        E 0 9f 33 5b
        E 0 85 43 64
        E 0 8e 43 64
        E 1 95 43 64
        E 0 9e 43 64
        E 0 85 43 64
        E 0 8e 43 64
        E 0 95 43 64
        E 0 9e 43 64
        E 0 85 43 64
        E 0 8e 43 64
        E 0 95 43 64
        E 0 9e 43 64
        E 0 85 43 64
        E 0 8e 43 64
        E 0 95 43 64
        E 0 9e 43 64
        E 0 85 43 64
        E 0 8e 43 64
        E 0 95 43 64
        E 0 9e 43 64
        E 0 85 43 64
        E 0 8e 43 64
        E 0 95 48 64
        E 0 9e 48 64
        E 0 8f 33 66
        E 0 85 48 64
        E 0 8e 48 64
        E 0 9f 33 5b
        E 0 95 45 64
        E 0 9e 45 64
        E 0 85 45 64
        E 0 8e 45 64
        E 0 95 45 64
        E 0 9e 45 64
        E 0 85 45 64
        E 0 8e 45 64
        E 0 95 45 64
        E 0 9e 45 64
        E 0 85 45 64
        E 0 8e 45 64
        E 0 95 45 64
        E 0 9e 45 64
        E 0 85 45 64
        E 0 8e 45 64
        E 0 95 46 66
        E 0 9e 46 66
        E 0 8f 33 66
        E 0 85 46 66
        E 0 8e 46 66
        E 0 9f 35 5a
        E 0 95 41 64
        E 0 9e 41 64
        E 0 85 41 64
        E 0 8e 41 64
        E 0 95 41 64
        E 0 9e 41 64
        E 0 8f 35 64
        E 0 85 41 64
        E 0 8e 41 64
        E 0 9f 2e 5b
        E 0 8f 2e 66
        E 0 92 3e 64
        E 0 9f 2b 5a
        E 0 82 3e 64
        E 0 92 3e 64
        E 0 8f 2b 64
        E 0 93 3b 5a
        E 0 9f 37 5a
        E 0 8f 37 64
        E 0 9f 36 5a
        E 0 83 3b 64
        E 0 8f 36 64
        E 0 93 3b 5a
        E 0 9f 37 5a
        E 0 83 3b 64
        E 0 8f 37 64
        E 0 92 43 64
        E 0 82 43 64
        E 0 92 42 64
        E 0 82 3e 64
        E 0 82 42 64
        E 0 92 43 64
        E 0 93 3b 5a
        E 0 9f 37 5a
        E 0 8f 37 64
        E 1 9f 36 5a
        E 0 83 3b 64
        E 0 8f 36 64
        E 0 93 3b 5a
        E 0 9f 37 5a
        E 0 83 3b 64
        E 0 8f 37 64
        E 0 92 43 64
        E 0 82 43 64
        E 0 92 42 64
        E 0 82 43 64
        E 0 82 42 64
        E 0 92 43 64
        E 0 93 3b 5a
        E 0 9f 37 5a
        E 0 8f 37 64
        E 0 9f 36 5a
        E 0 83 3b 64
        E 0 8f 36 64
        E 0 93 3b 5a
        E 0 9f 37 5a
        E 0 83 3b 64
        E 0 8f 37 64
        E 0 92 45 64
        E 0 82 45 64
        E 0 92 43 64
        E 0 82 43 64
        E 0 82 43 64
        E 0 92 45 64
        E 0 93 42 5a
        E 0 9f 32 5a
        E 0 8f 32 64
        E 0 9f 30 5a
        E 0 83 42 64
        E 0 8f 30 64
        E 0 93 42 5a
        E 0 9f 32 5a
        E 0 83 42 64
        E 0 8f 32 64
        E 0 92 3e 64
        E 0 82 45 64
        E 0 82 3e 64
        E 0 92 3e 64
        E 0 93 39 5a
        E 0 9f 32 5a
        E 0 8f 32 64
        E 0 9f 30 5a
        E 0 83 39 64
        E 0 8f 30 64
        E 0 93 39 5a
        E 0 9f 32 5a
        E 0 83 39 64
        E 0 8f 32 64
        E 0 92 45 64
        E 0 82 45 64
        E 0 92 43 64
        E 0 82 3e 64
        E 0 82 43 64
        E 0 92 45 64
        E 0 93 42 5a
        E 0 9f 32 5a
        E 0 8f 32 64
        E 0 9f 30 5a
        E 0 83 42 64
        E 0 8f 30 64
        E 1 93 42 5a
        E 0 9f 32 5a
        E 0 83 42 64
        E 0 8f 32 64
        E 0 92 48 64
        E 0 82 48 64
        E 0 92 47 64
        E 0 82 45 64
        E 0 82 47 64
        E 0 92 45 64
        E 0 93 42 5a
        E 0 9f 32 5a
        E 0 8f 32 64
        E 0 9f 30 5a
        E 0 83 42 64
        E 0 8f 30 64
        E 0 93 42 5a
        E 0 9f 32 5a
        E 0 83 42 64
        E 0 8f 32 64
        E 0 92 47 64
        E 0 82 47 64
        E 0 92 45 64
        E 0 82 45 64
        E 0 82 45 64
        E 0 92 43 64
        E 0 93 3e 5a
        E 0 9f 37 5a
        E 0 8f 37 64
        E 0 9f 36 5a
        E 0 83 3e 64
        E 0 8f 36 64
        E 0 93 3e 5a
        E 0 9f 37 5a
        E 0 83 3e 64
        E 0 8f 37 64
        E 0 92 4f 64
        E 0 82 43 64
        E 0 82 4f 64
        E 0 92 4f 64
        E 0 93 47 5a
        E 0 9f 37 5a
        E 0 8f 37 64
        E 0 9f 36 5a
        E 0 83 47 64
        E 0 8f 36 64
        E 0 93 47 5a
        E 0 9f 37 5a
        E 0 83 47 64
        E 0 8f 37 64
        E 0 92 4e 64
        E 0 82 4e 64
        E 0 92 4c 64
        E 0 82 4f 64
        E 0 82 4c 64
        E 0 92 4a 64
        E 0 93 45 5a
        E 0 9f 36 5a
        E 0 8f 36 64
        E 0 9f 34 5a
        E 0 83 45 64
        E 0 8f 34 64
        E 0 93 45 5a
        E 0 9f 36 5a
        E 0 83 45 64
        E 0 8f 36 64
        E 0 92 48 64
        E 0 82 48 64
        E 0 92 47 64
        E 0 82 4a 64
        E 0 82 47 64
        E 0 92 45 64
        E 0 93 45 5a
        E 0 9f 36 5a
        E 0 8f 36 64
        E 0 9f 34 5a
        E 0 83 45 64
        E 0 8f 34 64
        E 0 93 45 5a
        E 0 9f 36 5a
        E 0 83 45 64
        E 0 8f 36 64
        E 0 92 47 64
        E 0 82 47 64
        E 0 92 45 64
        E 0 82 45 64
        E 0 82 45 64
        E 0 92 43 64
        E 0 93 3e 5a
        E 0 9f 37 5a
        E 1 8f 37 64
        E 0 9f 36 5a
        E 0 83 3e 64
        E 0 8f 36 64
        E 0 93 3e 5a
        E 0 9f 37 5a
        E 0 83 3e 64
        E 0 8f 37 64
        E 0 92 4f 64
        E 0 82 43 64
        E 0 82 4f 64
        E 0 92 4f 64
        E 0 93 47 5a
        E 0 9f 37 5a
        E 0 8f 37 64
        E 0 9f 36 5a
        E 0 83 47 64
        E 0 8f 36 64
        E 0 93 47 5a
        E 0 9f 37 5a
        E 0 83 47 64
        E 0 8f 37 64
        E 0 92 4e 64
        E 0 82 4e 64
        E 0 92 4c 64
        E 0 82 4f 64
        E 0 82 4c 64
        E 0 92 4a 64
        E 0 93 45 5a
        E 0 9f 36 5a
        E 0 8f 36 64
        E 0 9f 34 5a
        E 0 83 45 64
        E 0 8f 34 64
        E 0 93 45 5a
        E 0 9f 36 5a
        E 0 83 45 64
        E 0 8f 36 64
        E 0 92 48 64
        E 0 82 48 64
        E 0 92 47 64
        E 0 82 4a 64
        E 0 82 47 64
        E 1 92 45 64
        E 0 93 45 5a
        E 0 9f 36 5a
        E 0 8f 36 64
        E 0 9f 34 5a
        E 0 83 45 64
        E 0 8f 34 64
        E 0 93 45 5a
        E 0 9f 36 5a
        E 0 83 45 64
        E 0 8f 36 64
        E 0 92 47 64
        E 0 82 45 64
        E 0 82 47 64
        E 0 92 4f 64
        E 0 93 3e 5a
        E 0 9f 37 5a
        E 0 8f 37 64
        E 0 9f 36 5a
        E 0 83 3e 64
        E 0 8f 36 64
        E 0 93 3e 5a
        E 0 9f 37 5a
        E 0 83 3e 64
        E 0 8f 37 64
        E 0 92 51 64
        E 0 92 4f 64
        E 0 82 4f 64
        E 0 82 51 64
        E 0 92 4e 64
        E 0 82 4f 64
        E 0 92 4e 64
        E 0 93 42 5a
        E 0 9f 32 5a
        E 0 82 4e 64
        E 0 92 4c 64
        E 0 82 4e 64
        E 0 8f 32 64
        E 0 9f 30 5a
        E 0 92 4a 64
        E 0 82 4c 64
        E 0 83 42 64
        E 0 8f 30 64
        E 0 92 48 64
        E 0 93 42 5a
        E 0 9f 32 5a
        E 0 82 4a 64
        E 0 92 47 64
        E 0 82 48 64
        E 0 92 45 64
        E 0 82 47 64
        E 0 83 42 64
        E 0 8f 32 64
        E 0 92 47 64
        E 0 82 45 64
        E 0 82 47 64
        E 0 92 4f 64
        E 0 93 3e 5a
        E 0 9f 37 5a
        E 0 8f 37 64
        E 0 9f 36 5a
        E 0 83 3e 64
        E 0 8f 36 64
        E 0 93 3e 5a
        E 0 9f 37 5a
        E 1 83 3e 64
        E 0 8f 37 64
        E 0 92 51 64
        E 0 92 4f 64
        E 0 82 4f 64
        E 0 82 51 64
        E 0 92 4e 64
        E 0 82 4f 64
        E 0 92 4e 64
        E 0 93 3e 5a
        E 0 9f 32 5a
        E 0 82 4e 64
        E 0 92 4c 64
        E 0 82 4e 64
        E 0 8f 32 64
        E 0 9f 30 5a
        E 0 92 4a 64
        E 0 82 4c 64
        E 0 83 3e 64
        E 0 8f 30 64
        E 0 92 48 64
        E 0 93 3e 5a
        E 0 9f 32 5a
        E 0 82 4a 64
        E 0 92 47 64
        E 0 82 48 64
        E 0 92 45 64
        E 0 82 47 64
        E 0 83 3e 64
        E 0 8f 32 64
        E 0 92 47 64
        E 0 93 3e 5a
        E 0 9f 37 5a
        E 0 82 45 64
        E 0 82 47 64
        E 0 83 3e 64
        E 0 8f 37 64
        E 0 92 4f 64
        E 0 93 3e 5a
        E 0 9f 2f 5a
        E 38405 82 4f 64
        E 0 83 3e 64
        E 0 8f 2f 64
        E 0 92 4e 64
        E 0 93 40 5a
        E 0 9f 30 5a
        E 0 82 4e 64
        E 0 83 40 64
        E 0 8f 30 64
        E 0 92 4c 64
        E 0 93 42 5a
        E 0 9f 32 5a
        E 0 82 4c 64
        E 0 83 42 64
        E 0 8f 32 64
        E 0 92 4a 64
        E 0 93 43 5a
        E 0 9f 34 5a
        E 0 82 4a 64
        E 0 83 43 64
        E 0 8f 34 64
        E 1 92 48 64
        E 0 93 45 5a
        E 0 9f 36 5a
        E 0 82 48 64
        E 0 83 45 64
        E 0 8f 36 64
        E 0 92 47 64
        E 0 93 3e 5a
        E 0 9f 37 5a
        E 0 82 47 64
        E 0 83 3e 64
        E 0 8f 37 64
        E 0 92 48 64
        E 0 93 40 5a
        E 0 9f 30 5a
        E 0 82 48 64
        E 0 83 40 64
        E 0 8f 30 64
        E 0 92 45 64
        E 0 93 3e 5a
        E 0 9f 32 5a
        E 0 82 45 64
        E 0 83 3e 64
        E 0 8f 32 64
        E 0 92 43 64
        E 0 93 3b 5a
        E 0 9f 2b 5a
        E 0 82 43 64
        E 0 83 3b 64
        E 0 8f 2b 64
        E 0 92 3e 64
        E 0 95 3e 64
        E 0 82 3e 64
        E 0 85 3e 64
        E 0 92 3e 64
        E 0 95 3e 64
        E 0 93 3b 5a
        E 0 9f 37 5a
        E 0 8f 37 64
        E 0 9f 36 5a
        E 0 83 3b 64
        E 0 8f 36 64
        E 0 93 3b 5a
        E 0 9f 37 5a
        E 0 83 3b 64
        E 0 8f 37 64
        E 0 92 43 64
        E 0 95 43 64
        E 0 82 43 64
        E 0 85 43 64
        E 0 92 42 64
        E 0 95 42 64
        E 0 82 3e 64
        E 0 82 42 64
        E 0 85 3e 64
        E 0 85 42 64
        E 0 92 43 64
        E 1 95 43 64
        E 0 93 3b 5a
        E 0 9f 37 5a
        E 0 8f 37 64
        E 0 9f 36 5a
        E 0 83 3b 64
        E 0 8f 36 64
        E 0 93 3b 5a
        E 0 9f 37 5a
        E 0 83 3b 64
        E 0 8f 37 64
        E 0 92 43 64
        E 0 95 43 64
        E 0 82 43 64
        E 0 85 43 64
        E 0 92 42 64
        E 0 95 42 64
        E 0 82 43 64
        E 0 82 42 64
        E 0 85 43 64
        E 0 85 42 64
        E 0 92 43 64
        E 0 95 43 64
        E 0 93 3b 5a
        E 0 9f 37 5a
        E 0 8f 37 64
        E 0 9f 36 5a
        E 0 83 3b 64
        E 0 8f 36 64
        E 0 93 3b 5a
        E 0 9f 37 5a
        E 0 83 3b 64
        E 0 8f 37 64
        E 0 92 45 64
        E 1 95 45 64
        E 0 82 45 64
        E 0 85 45 64
        E 0 92 43 64
        E 0 95 43 64
        E 0 82 43 64
        E 0 82 43 64
        E 0 85 43 64
        E 0 85 43 64
        E 0 92 45 64
        E 0 95 45 64
        E 0 93 3e 5a
        E 0 9f 36 5a
        E 0 8f 36 64
        E 0 9f 34 5a
        E 0 83 3e 64
        E 0 8f 34 64
        E 0 93 3e 5a
        E 0 9f 36 5a
        E 0 83 3e 64
        E 0 8f 36 64
        E 0 92 3e 64
        E 0 95 3e 64
        E 0 82 45 64
        E 0 82 3e 64
        E 0 85 45 64
        E 0 85 3e 64
        E 0 92 3e 64
        E 0 95 3e 64
        E 0 93 39 5a
        E 0 9f 36 5a
        E 0 8f 36 64
        E 0 9f 34 5a
        E 0 83 39 64
        E 0 8f 34 64
        E 0 93 39 5a
        E 0 9f 36 5a
        E 0 83 39 64
        E 0 8f 36 64
        E 0 92 45 64
        E 0 95 45 64
        E 0 82 45 64
        E 0 85 45 64
        E 0 92 43 64
        E 0 95 43 64
        E 0 82 3e 64
        E 0 82 43 64
        E 0 85 3e 64
        E 0 85 43 64
        E 0 92 45 64
        E 0 95 45 64
        E 0 93 3e 5a
        E 0 9f 36 5a
        E 0 8f 36 64
        E 0 9f 34 5a
        E 0 83 3e 64
        E 0 8f 34 64
        E 0 93 3e 5a
        E 0 9f 36 5a
        E 0 83 3e 64
        E 0 8f 36 64
        E 0 92 48 64
        E 0 95 48 64
        E 0 82 48 64
        E 0 85 48 64
        E 0 92 47 64
        E 0 95 47 64
        E 0 82 45 64
        E 0 82 47 64
        E 0 85 45 64
        E 0 85 47 64
        E 0 92 45 64
        E 0 95 45 64
        E 0 93 3e 5a
        E 0 9f 36 5a
        E 0 8f 36 64
        E 0 9f 34 5a
        E 0 83 3e 64
        E 0 8f 34 64
        E 0 93 3e 5a
        E 0 9f 36 5a
        E 0 83 3e 64
        E 0 8f 36 64
        E 0 92 47 64
        E 0 95 47 64
        E 0 82 47 64
        E 0 85 47 64
        E 0 92 45 64
        E 0 95 45 64
        E 0 82 45 64
        E 0 82 45 64
        E 0 85 45 64
        E 0 85 45 64
        E 0 92 43 64
        E 0 95 43 64
        E 0 93 3e 5a
        E 1 9f 37 5a
        E 0 8f 37 64
        E 0 9f 36 5a
        E 0 83 3e 64
        E 0 8f 36 64
        E 0 93 3e 5a
        E 0 9f 37 5a
        E 0 83 3e 64
        E 0 8f 37 64
        E 0 92 3e 64
        E 0 95 3e 64
        E 0 82 43 64
        E 0 82 3e 64
        E 0 85 43 64
        E 0 85 3e 64
        E 0 92 3e 64
        E 0 95 3e 64
        E 0 93 3b 5a
        E 0 9f 37 5a
        E 0 8f 37 64
        E 0 9f 36 5a
        E 0 83 3b 64
        E 0 8f 36 64
        E 0 93 3b 5a
        E 0 9f 37 5a
        E 0 83 3b 64
        E 0 8f 37 64
        E 0 92 47 64
        E 0 95 47 64
        E 0 82 47 64
        E 0 85 47 64
        E 0 92 45 64
        E 0 95 45 64
        E 0 82 3e 64
        E 0 82 45 64
        E 0 85 3e 64
        E 0 85 45 64
        E 0 92 43 64
        E 0 95 43 64
        E 0 93 3b 5a
        E 0 9f 37 5a
        E 0 8f 37 64
        E 0 9f 36 5a
        E 0 83 3b 64
        E 0 8f 36 64
        E 0 93 3b 5a
        E 0 9f 37 5a
        E 0 83 3b 64
        E 0 8f 37 64
        E 0 92 4a 64
        E 0 95 4a 64
        E 0 82 4a 64
        E 0 85 4a 64
        E 0 92 48 64
        E 0 95 48 64
        E 0 82 43 64
        E 0 82 48 64
        E 0 85 43 64
        E 0 85 48 64
        E 0 92 47 64
        E 0 95 47 64
        E 0 93 3e 5a
        E 0 9f 37 5a
        E 0 8f 37 64
        E 0 9f 36 5a
        E 0 83 3e 64
        E 0 8f 36 64
        E 0 93 3e 5a
        E 0 9f 37 5a
        E 0 83 3e 64
        E 0 8f 37 64
        E 0 92 45 64
        E 0 93 42 5a
        E 0 95 45 64
        E 0 9f 3e 5a
        E 0 82 47 64
        E 0 85 47 64
        E 0 82 45 64
        E 0 83 42 64
        E 0 85 45 64
        E 0 8f 3e 64
        E 0 93 45 5a
        E 0 9f 36 5a
        E 0 83 45 64
        E 0 8f 36 64
        E 0 93 42 5a
        E 0 9f 32 5a
        E 0 92 42 64
        E 1 95 42 64
        E 0 82 42 64
        E 0 83 42 64
        E 0 85 42 64
        E 0 8f 32 64
        E 0 92 43 64
        E 0 93 3e 5a
        E 0 95 43 64
        E 0 9f 37 5a
        E 0 82 43 64
        E 0 83 3e 64
        E 0 85 43 64
        E 0 8f 37 64
        E 0 93 43 5a
        E 0 9f 34 5a
        E 0 83 43 64
        E 0 8f 34 64
        E 0 93 3e 5a
        E 0 9f 31 5a
        E 0 92 40 64
        E 0 95 40 64
        E 0 82 40 64
        E 0 83 3e 64
        E 0 85 40 64
        E 0 8f 31 64
        E 0 92 42 64
        E 0 93 39 5a
        E 0 95 42 64
        E 0 9f 32 5a
        E 0 83 39 64
        E 0 8f 32 64
        E 0 93 45 5a
        E 0 9f 36 5a
        E 0 82 42 64
        E 0 83 45 64
        E 0 85 42 64
        E 0 8f 36 64
        E 0 93 42 5a
        E 0 9f 32 5a
        E 0 83 42 64
        E 0 8f 32 64
        E 0 92 4a 64
        E 0 93 3e 5a
        E 0 95 4a 64
        E 0 9f 2b 5a
        E 0 82 4a 64
        E 0 85 4a 64
        E 0 92 48 64
        E 0 95 48 64
        E 0 82 48 64
        E 0 85 48 64
        E 0 92 47 64
        E 0 95 47 64
        E 0 83 3e 64
        E 0 8f 2b 64
        E 0 93 3e 5a
        E 0 9f 37 5a
        E 0 8f 37 64
        E 0 9f 36 5a
        E 0 83 3e 64
        E 0 8f 36 64
        E 0 93 3e 5a
        E 0 9f 37 5a
        E 0 83 3e 64
        E 0 8f 37 64
        E 0 92 45 64
        E 0 95 45 64
        E 0 82 45 64
        E 0 85 45 64
        E 0 92 43 64
        E 0 95 43 64
        E 0 82 47 64
        E 0 82 43 64
        E 0 85 47 64
        E 0 85 43 64
        E 0 92 42 64
        E 0 95 42 64
        E 0 93 42 5a
        E 0 9f 32 5a
        E 0 8f 32 64
        E 0 9f 30 5a
        E 0 83 42 64
        E 0 8f 30 64
        E 0 93 42 5a
        E 0 9f 32 5a
        E 0 83 42 64
        E 0 8f 32 64
        E 0 92 47 64
        E 0 95 47 64
        E 0 82 47 64
        E 0 85 47 64
        E 0 92 45 64
        E 0 95 45 64
        E 0 82 42 64
        E 0 82 45 64
        E 0 85 42 64
        E 0 85 45 64
        E 0 92 43 64
        E 0 95 43 64
        E 0 93 3e 5a
        E 0 9f 37 5a
        E 0 8f 37 64
        E 1 9f 36 5a
        E 0 83 3e 64
        E 0 8f 36 64
        E 0 93 3e 5a
        E 0 9f 37 5a
        E 0 83 3e 64
        E 0 8f 37 64
        E 0 92 42 64
        E 0 95 42 64
        E 0 82 42 64
        E 0 85 42 64
        E 0 92 43 64
        E 0 95 43 64
        E 0 82 43 64
        E 0 82 43 64
        E 0 85 43 64
        E 0 85 43 64
        E 0 92 45 64
        E 0 95 45 64
        E 0 93 42 5a
        E 0 9f 32 5a
        E 0 8f 32 64
        E 0 9f 31 5a
        E 0 83 42 64
        E 0 8f 31 64
        E 0 93 42 5a
        E 0 9f 32 5a
        E 0 83 42 64
        E 0 8f 32 64
        E 0 92 4a 64
        E 0 93 42 5a
        E 0 95 4a 64
        E 0 9f 32 5a
        E 0 82 45 64
        E 0 85 45 64
        E 0 82 4a 64
        E 0 83 42 64
        E 0 85 4a 64
        E 0 8f 32 64
        E 0 92 49 64
        E 0 93 47 5a
        E 0 95 49 64
        E 0 9f 37 5a
        E 0 82 49 64
        E 0 85 49 64
        E 0 92 47 64
        E 0 95 47 64
        E 0 82 47 64
        E 0 83 47 64
        E 0 85 47 64
        E 0 8f 37 64
        E 0 92 45 64
        E 0 93 40 5a
        E 0 95 45 64
        E 0 9f 31 5a
        E 0 82 45 64
        E 0 85 45 64
        E 0 92 43 64
        E 0 95 43 64
        E 0 82 43 64
        E 0 83 40 64
        E 0 85 43 64
        E 0 8f 31 64
        E 0 92 42 64
        E 0 93 39 5a
        E 0 95 42 64
        E 0 9f 32 5a
        E 0 82 42 64
        E 0 83 39 64
        E 0 85 42 64
        E 0 8f 32 64
        E 0 92 45 64
        E 0 93 45 5a
        E 0 95 45 64
        E 0 9f 36 5a
        E 0 82 45 64
        E 0 83 45 64
        E 0 85 45 64
        E 0 8f 36 64
        E 0 92 4a 64
        E 0 93 43 5a
        E 0 95 4a 64
        E 0 9f 34 5a
        E 0 82 4a 64
        E 0 83 43 64
        E 0 85 4a 64
        E 0 8f 34 64
        E 0 92 42 64
        E 0 93 45 5a
        E 0 95 42 64
        E 0 9f 32 5a
        E 0 82 42 64
        E 0 83 45 64
        E 0 85 42 64
        E 0 8f 32 64
        E 0 92 40 64
        E 0 93 3d 5a
        E 0 95 40 64
        E 0 9f 39 5a
        E 0 83 3d 64
        E 0 8f 39 64
        E 0 93 3d 5a
        E 0 9f 2d 5a
        E 0 82 40 64
        E 0 83 3d 64
        E 0 85 40 64
        E 0 8f 2d 64
        E 0 92 4a 64
        E 0 93 3e 5a
        E 1 95 3e 64
        E 0 9f 26 5a
        E 0 82 4a 64
        E 0 92 4a 64
        E 0 83 3e 64
        E 0 8f 26 64
        E 0 93 42 5a
        E 0 9f 32 5a
        E 0 8f 32 64
        E 0 9f 31 5a
        E 0 83 42 64
        E 0 85 3e 64
        E 0 8f 31 64
        E 0 93 42 5a
        E 0 9f 32 5a
        E 0 83 42 64
        E 0 8f 32 64
        E 0 92 4e 64
        E 0 82 4e 64
        E 0 92 4c 64
        E 0 82 4a 64
        E 0 82 4c 64
        E 0 92 4a 64
        E 0 93 42 5a
        E 0 9f 32 5a
        E 0 8f 32 64
        E 0 9f 31 5a
        E 0 83 42 64
        E 0 8f 31 64
        E 0 93 42 5a
        E 0 9f 32 5a
        E 0 83 42 64
        E 0 8f 32 64
        E 0 92 51 64
        E 0 82 51 64
        E 0 92 4f 64
        E 0 82 4a 64
        E 0 82 4f 64
        E 0 92 4e 64
        E 0 93 42 5a
        E 0 9f 32 5a
        E 0 8f 32 64
        E 0 9f 31 5a
        E 0 83 42 64
        E 0 8f 31 64
        E 0 93 42 5a
        E 0 9f 32 5a
        E 38404 83 42 64
        E 0 8f 32 64
        E 0 92 4c 64
        E 0 92 4a 64
        E 0 82 4e 64
        E 0 82 4c 64
        E 0 92 49 64
        E 0 82 4a 64
        E 0 92 49 64
        E 0 93 40 5a
        E 0 9f 39 5a
        E 0 82 49 64
        E 0 92 47 64
        E 0 82 49 64
        E 0 8f 39 64
        E 0 9f 37 5a
        E 0 92 45 64
        E 0 82 47 64
        E 0 83 40 64
        E 0 8f 37 64
        E 0 92 4f 64
        E 0 93 40 5a
        E 0 9f 39 5a
        E 0 82 45 64
        E 0 92 4e 64
        E 0 82 4f 64
        E 0 92 4c 64
        E 0 82 4e 64
        E 0 83 40 64
        E 0 8f 39 64
        E 0 92 56 64
        E 0 9f 36 5a
        E 0 82 4c 64
        E 0 82 56 64
        E 0 8f 36 64
        E 0 92 55 64
        E 0 93 47 5a
        E 0 9f 37 5a
        E 0 82 55 64
        E 0 92 53 64
        E 0 82 53 64
        E 0 83 47 64
        E 0 8f 37 64
        E 0 92 51 64
        E 0 93 40 5a
        E 0 9f 31 5a
        E 0 82 51 64
        E 0 92 4f 64
        E 0 82 4f 64
        E 0 83 40 64
        E 0 8f 31 64
        E 0 92 4e 64
        E 1 93 39 5a
        E 0 9f 32 5a
        E 0 82 4e 64
        E 0 83 39 64
        E 0 8f 32 64
        E 0 92 4f 64
        E 0 93 3b 5a
        E 0 9f 2b 5a
        E 0 82 4f 64
        E 0 83 3b 64
        E 0 8f 2b 64
        E 0 92 4c 64
        E 0 93 3d 5a
        E 0 9f 2d 5a
        E 0 82 4c 64
        E 0 83 3d 64
        E 0 8f 2d 64
        E 0 92 4a 64
        E 0 93 39 5a
        E 0 95 3e 64
        E 0 9f 26 5a
        E 0 82 4a 64
        E 0 85 3e 64
        E 0 92 3e 64
        E 0 95 3e 64
        E 0 83 39 64
        E 0 8f 26 64
        E 0 93 39 5a
        E 0 9f 32 5a
        E 0 8f 32 64
        E 0 9f 31 5a
        E 0 83 39 64
        E 0 8f 31 64
        E 0 93 39 5a
        E 0 9f 32 5a
        E 0 83 39 64
        E 0 8f 32 64
        E 0 92 45 64
        E 0 95 45 64
        E 0 82 45 64
        E 0 85 45 64
        E 0 92 43 64
        E 0 95 43 64
        E 0 82 3e 64
        E 0 82 43 64
        E 0 85 3e 64
        E 0 85 43 64
        E 0 92 45 64
        E 0 95 45 64
        E 0 93 42 5a
        E 0 9f 32 5a
        E 0 8f 32 64
        E 0 9f 31 5a
        E 0 83 42 64
        E 0 8f 31 64
        E 0 93 42 5a
        E 0 9f 32 5a
        E 0 83 42 64
        E 0 8f 32 64
        E 0 92 47 64
        E 0 95 47 64
        E 0 82 47 64
        E 0 85 47 64
        E 0 92 48 64
        E 0 95 48 64
        E 0 82 45 64
        E 0 82 48 64
        E 1 85 45 64
        E 0 85 48 64
        E 0 92 4a 64
        E 0 95 4a 64
        E 0 93 44 5a
        E 0 9f 3b 5a
        E 0 8f 3b 64
        E 0 9f 39 5a
        E 0 83 44 64
        E 0 8f 39 64
        E 0 93 40 5a
        E 0 9f 38 5a
        E 0 83 40 64
        E 0 8f 38 64
        E 0 92 49 64
        E 0 95 49 64
        E 0 82 49 64
        E 0 85 49 64
        E 0 92 47 64
        E 0 95 47 64
        E 0 82 4a 64
        E 0 82 47 64
        E 0 85 4a 64
        E 0 85 47 64
        E 0 92 45 64
        E 0 95 45 64
        E 0 93 40 5a
        E 0 9f 39 5a
        E 0 8f 39 64
        E 0 9f 38 5a
        E 0 83 40 64
        E 0 8f 38 64
        E 0 93 40 5a
        E 0 9f 39 5a
        E 0 83 40 64
        E 0 8f 39 64
        E 0 92 4c 64
        E 0 95 4c 64
        E 0 82 45 64
        E 0 85 45 64
        E 0 82 4c 64
        E 0 85 4c 64
        E 0 92 45 64
        E 0 93 40 5a
        E 0 95 45 64
        E 0 9f 31 5a
        E 0 8f 31 64
        E 0 9f 2f 5a
        E 0 83 40 64
        E 0 8f 2f 64
        E 0 93 40 5a
        E 0 9f 31 5a
        E 0 82 45 64
        E 0 83 40 64
        E 0 85 45 64
        E 0 8f 31 64
        E 0 92 43 64
        E 0 95 43 64
        E 0 82 43 64
        E 0 85 43 64
        E 1 92 42 64
        E 0 95 42 64
        E 0 82 42 64
        E 0 85 42 64
        E 0 92 40 64
        E 0 95 40 64
        E 0 93 39 5a
        E 0 9f 31 5a
        E 0 8f 31 64
        E 0 9f 2f 5a
        E 0 83 39 64
        E 0 8f 2f 64
        E 0 93 39 5a
        E 0 9f 31 5a
        E 0 83 39 64
        E 0 8f 31 64
        E 0 92 49 64
        E 0 95 49 64
        E 0 82 49 64
        E 0 85 49 64
        E 0 92 47 64
        E 0 95 47 64
        E 0 82 40 64
        E 0 82 47 64
        E 0 85 40 64
        E 0 85 47 64
        E 0 92 45 64
        E 0 95 45 64
        E 0 93 40 5a
        E 0 9f 31 5a
        E 0 8f 31 64
        E 0 9f 2f 5a
        E 0 83 40 64
        E 0 8f 2f 64
        E 0 93 40 5a
        E 0 9f 31 5a
        E 0 83 40 64
        E 0 8f 31 64
        E 0 92 4a 64
        E 0 95 4a 64
        E 0 82 45 64
        E 0 85 45 64
        E 0 82 4a 64
        E 0 85 4a 64
        E 0 92 3e 64
        E 0 93 39 5a
        E 0 95 3e 64
        E 0 9f 32 5a
        E 0 8f 32 64
        E 0 9f 30 5a
        E 0 82 3e 64
        E 0 83 39 64
        E 0 85 3e 64
        E 0 8f 30 64
        E 0 93 39 5a
        E 0 9f 32 5a
        E 0 83 39 64
        E 0 8f 32 64
        E 0 92 48 64
        E 0 95 48 64
        E 0 82 48 64
        E 0 85 48 64
        E 0 92 45 64
        E 0 95 45 64
        E 0 93 42 5a
        E 0 9f 32 5a
        E 0 8f 32 64
        E 0 9f 30 5a
        E 0 83 42 64
        E 0 8f 30 64
        E 0 93 42 5a
        E 0 9f 32 5a
        E 0 83 42 64
        E 0 8f 32 64
        E 0 92 42 64
        E 0 95 42 64
        E 0 82 42 64
        E 0 85 42 64
        E 0 92 40 64
        E 0 95 40 64
        E 0 82 45 64
        E 0 82 40 64
        E 0 85 45 64
        E 0 85 40 64
        E 0 92 3e 64
        E 0 95 3e 64
        E 0 93 39 5a
        E 0 9f 32 5a
        E 0 8f 32 64
        E 0 9f 30 5a
        E 0 83 39 64
        E 0 8f 30 64
        E 0 93 39 5a
        E 0 9f 32 5a
        E 0 83 39 64
        E 0 8f 32 64
        E 0 92 48 64
        E 0 95 48 64
        E 0 82 48 64
        E 0 85 48 64
        E 0 92 47 64
        E 0 95 47 64
        E 1 82 3e 64
        E 0 82 47 64
        E 0 85 3e 64
        E 0 85 47 64
        E 0 92 45 64
        E 0 95 45 64
        E 0 93 42 5a
        E 0 9f 32 5a
        E 0 8f 32 64
        E 0 9f 30 5a
        E 0 83 42 64
        E 0 8f 30 64
        E 0 93 42 5a
        E 0 9f 32 5a
        E 0 83 42 64
        E 0 8f 32 64
        E 0 92 47 64
        E 0 93 3e 5a
        E 0 95 47 64
        E 0 9f 37 5a
        E 0 82 45 64
        E 0 85 45 64
        E 0 82 47 64
        E 0 83 3e 64
        E 0 85 47 64
        E 0 8f 37 64
        E 0 93 3e 5a
        E 0 9f 32 5a
        E 0 83 3e 64
        E 0 8f 32 64
        E 0 93 3b 5a
        E 0 9f 2b 5a
        E 0 92 43 64
        E 0 95 43 64
        E 0 82 43 64
        E 0 83 3b 64
        E 0 85 43 64
        E 0 8f 2b 64
        E 0 92 4a 64
        E 0 93 3b 5a
        E 0 95 4a 64
        E 0 9f 37 5a
        E 0 82 4a 64
        E 0 83 3b 64
        E 0 85 4a 64
        E 0 8f 37 64
        E 0 93 3e 5a
        E 0 9f 32 5a
        E 0 83 3e 64
        E 0 8f 32 64
        E 0 93 3b 5a
        E 0 9f 2b 5a
        E 0 92 41 64
        E 0 95 41 64
        E 0 82 41 64
        E 0 83 3b 64
        E 0 85 41 64
        E 0 8f 2b 64
        E 0 92 40 64
        E 0 93 37 5a
        E 0 95 40 64
        E 0 9f 30 5a
        E 0 82 40 64
        E 0 83 37 64
        E 0 85 40 64
        E 0 8f 30 64
        E 0 93 43 5a
        E 0 9f 34 5a
        E 0 83 43 64
        E 0 8f 34 64
        E 0 93 40 5a
        E 0 9f 30 5a
        E 0 92 43 64
        E 0 95 43 64
        E 0 82 43 64
        E 0 83 40 64
        E 0 85 43 64
        E 0 8f 30 64
        E 0 92 4c 64
        E 0 93 3d 5a
        E 0 95 4c 64
        E 0 9f 2d 5a
        E 0 82 4c 64
        E 0 83 3d 64
        E 0 85 4c 64
        E 0 8f 2d 64
        E 0 93 40 5a
        E 0 9f 31 5a
        E 0 83 40 64
        E 0 8f 31 64
        E 0 93 3d 5a
        E 0 9f 2d 5a
        E 0 92 43 64
        E 0 95 43 64
        E 0 82 43 64
        E 0 83 3d 64
        E 0 85 43 64
        E 0 8f 2d 64
        E 0 92 42 64
        E 0 93 39 5a
        E 0 95 42 64
        E 0 9f 32 5a
        E 0 83 39 64
        E 0 8f 32 64
        E 0 93 45 5a
        E 0 9f 36 5a
        E 0 82 42 64
        E 0 83 45 64
        E 0 85 42 64
        E 0 8f 36 64
        E 0 93 42 5a
        E 0 9f 32 5a
        E 0 83 42 64
        E 0 8f 32 64
        E 0 92 48 64
        E 0 95 48 64
        E 0 82 48 64
        E 0 85 48 64
        E 1 92 47 64
        E 0 95 47 64
        E 0 82 47 64
        E 0 85 47 64
        E 0 92 45 64
        E 0 95 45 64
        E 0 93 42 5a
        E 0 9f 32 5a
        E 0 8f 32 64
        E 0 9f 30 5a
        E 0 83 42 64
        E 0 8f 30 64
        E 0 93 42 5a
        E 0 9f 32 5a
        E 0 83 42 64
        E 0 8f 32 64
        E 0 92 47 64
        E 0 95 47 64
        E 0 82 47 64
        E 0 85 47 64
        E 0 92 45 64
        E 0 95 45 64
        E 0 82 45 64
        E 0 82 45 64
        E 0 85 45 64
        E 0 85 45 64
        E 0 92 43 64
        E 0 95 43 64
        E 0 93 3e 5a
        E 0 9f 37 5a
        E 0 8f 37 64
        E 0 9f 36 5a
        E 0 83 3e 64
        E 0 8f 36 64
        E 0 93 3e 5a
        E 0 9f 37 5a
        E 0 83 3e 64
        E 0 8f 37 64
        E 0 92 4c 64
        E 0 95 4c 64
        E 0 82 4c 64
        E 0 85 4c 64
        E 0 92 4a 64
        E 0 95 4a 64
        E 0 82 43 64
        E 0 82 4a 64
        E 0 85 43 64
        E 0 85 4a 64
        E 0 92 48 64
        E 0 95 48 64
        E 0 93 42 5a
        E 0 9f 36 5a
        E 0 8f 36 64
        E 0 9f 34 5a
        E 0 83 42 64
        E 0 8f 34 64
        E 0 93 42 5a
        E 0 9f 36 5a
        E 0 83 42 64
        E 0 8f 36 64
        E 0 92 47 64
        E 0 95 47 64
        E 1 82 48 64
        E 0 82 47 64
        E 0 85 48 64
        E 0 85 47 64
        E 0 92 48 64
        E 0 95 48 64
        E 0 82 48 64
        E 0 85 48 64
        E 0 92 4a 64
        E 0 93 3e 5a
        E 0 95 4a 64
        E 0 9f 37 5a
        E 0 8f 37 64
        E 0 9f 36 5a
        E 0 82 4a 64
        E 0 83 3e 64
        E 0 85 4a 64
        E 0 8f 36 64
        E 0 92 3e 64
        E 0 93 3e 5a
        E 0 95 3e 64
        E 0 9f 37 5a
        E 0 82 3e 64
        E 0 83 3e 64
        E 0 85 3e 64
        E 0 8f 37 64
        E 0 92 40 64
        E 0 95 40 64
        E 0 82 40 64
        E 0 85 40 64
        E 0 92 42 64
        E 0 95 42 64
        E 0 82 42 64
        E 0 85 42 64
        E 0 92 43 64
        E 0 93 3c 5a
        E 0 95 43 64
        E 0 9f 34 5a
        E 0 8f 34 64
        E 0 9f 32 5a
        E 0 82 43 64
        E 0 83 3c 64
        E 0 85 43 64
        E 0 8f 32 64
        E 0 92 48 64
        E 0 93 37 5a
        E 0 95 48 64
        E 0 9f 34 5a
        E 0 82 48 64
        E 0 83 37 64
        E 0 85 48 64
        E 0 8f 34 64
        E 0 92 45 64
        E 0 95 45 64
        E 0 82 45 64
        E 1 85 45 64
        E 0 92 47 64
        E 0 95 47 64
        E 0 82 47 64
        E 0 85 47 64
        E 0 92 48 64
        E 0 93 45 5a
        E 0 95 48 64
        E 0 9f 36 5a
        E 0 8f 36 64
        E 0 9f 34 5a
        E 0 82 48 64
        E 0 83 45 64
        E 0 85 48 64
        E 0 8f 34 64
        E 0 92 4a 64
        E 0 93 45 5a
        E 0 95 4a 64
        E 0 9f 36 5a
        E 0 82 4a 64
        E 0 83 45 64
        E 0 85 4a 64
        E 0 8f 36 64
        E 0 92 47 64
        E 0 95 47 64
        E 0 82 47 64
        E 0 85 47 64
        E 0 92 45 64
        E 0 95 45 64
        E 0 82 45 64
        E 0 85 45 64
        E 0 92 43 64
        E 0 93 3e 5a
        E 0 95 43 64
        E 0 9f 37 5a
        E 0 8f 37 64
        E 0 9f 36 5a
        E 0 82 43 64
        E 0 83 3e 64
        E 0 85 43 64
        E 0 8f 36 64
        E 0 93 3e 5a
        E 0 9f 37 5a
        E 0 83 3e 64
        E 0 8f 37 64
        E 0 92 4c 64
        E 0 95 4c 64
        E 0 82 4c 64
        E 0 85 4c 64
        E 0 92 4a 64
        E 0 95 4a 64
        E 0 82 4a 64
        E 0 85 4a 64
        E 0 92 48 64
        E 0 95 48 64
        E 0 93 42 5a
        E 0 9f 32 5a
        E 0 8f 32 64
        E 0 9f 30 5a
        E 38404 83 42 64
        E 0 8f 30 64
        E 0 93 42 5a
        E 0 9f 32 5a
        E 0 83 42 64
        E 0 8f 32 64
        E 0 92 47 64
        E 0 95 47 64
        E 0 82 47 64
        E 0 85 47 64
        E 0 92 45 64
        E 0 95 45 64
        E 0 82 48 64
        E 0 82 45 64
        E 0 85 48 64
        E 0 85 45 64
        E 0 92 43 64
        E 0 95 43 64
        E 0 93 3e 5a
        E 0 9f 37 5a
        E 0 8f 37 64
        E 0 9f 36 5a
        E 0 83 3e 64
        E 0 8f 36 64
        E 0 93 3e 5a
        E 0 9f 37 5a
        E 0 83 3e 64
        E 0 8f 37 64
        E 0 92 45 64
        E 0 95 45 64
        E 0 82 45 64
        E 0 85 45 64
        E 0 92 43 64
        E 0 95 43 64
        E 0 82 43 64
        E 0 82 43 64
        E 0 85 43 64
        E 0 85 43 64
        E 0 92 42 64
        E 0 95 42 64
        E 0 93 42 5a
        E 0 9f 32 5a
        E 0 8f 32 64
        E 0 9f 30 5a
        E 0 83 42 64
        E 0 8f 30 64
        E 1 93 42 5a
        E 0 9f 32 5a
        E 0 83 42 64
        E 0 8f 32 64
        E 0 92 43 64
        E 0 93 3b 5a
        E 0 95 43 64
        E 0 9f 37 5a
        E 0 82 42 64
        E 0 85 42 64
        E 0 82 43 64
        E 0 83 3b 64
        E 0 85 43 64
        E 0 8f 37 64
        E 0 93 3e 5a
        E 0 9f 3b 5a
        E 0 83 3e 64
        E 0 8f 3b 64
        E 0 93 3b 5a
        E 0 9f 37 5a
        E 0 92 43 64
        E 0 95 43 64
        E 0 82 43 64
        E 0 83 3b 64
        E 0 85 43 64
        E 0 8f 37 64
        E 0 92 45 64
        E 0 93 3e 5a
        E 0 95 45 64
        E 0 9f 36 5a
        E 0 82 45 64
        E 0 83 3e 64
        E 0 85 45 64
        E 0 8f 36 64
        E 0 93 42 5a
        E 1 9f 39 5a
        E 0 83 42 64
        E 0 8f 39 64
        E 0 93 3e 5a
        E 0 9f 36 5a
        E 0 92 3e 64
        E 0 95 3e 64
        E 0 82 3e 64
        E 0 83 3e 64
        E 0 85 3e 64
        E 0 8f 36 64
        E 0 92 47 64
        E 0 93 3e 5a
        E 0 95 47 64
        E 0 9f 37 5a
        E 0 82 47 64
        E 0 83 3e 64
        E 0 85 47 64
        E 0 8f 37 64
        E 0 92 4a 64
        E 0 93 47 5a
        E 0 95 4a 64
        E 0 9f 2b 5a
        E 0 82 4a 64
        E 0 83 47 64
        E 0 85 4a 64
        E 0 8f 2b 64
        E 1 92 48 64
        E 0 93 47 5a
        E 0 95 48 64
        E 0 9f 37 5a
        E 0 82 48 64
        E 0 85 48 64
        E 0 92 47 64
        E 0 95 47 64
        E 0 82 47 64
        E 0 83 47 64
        E 0 85 47 64
        E 0 8f 37 64
        E 0 92 45 64
        E 1 93 40 5a
        E 0 95 45 64
        E 0 9f 31 5a
        E 0 82 45 64
        E 0 85 45 64
        E 0 92 43 64
        E 0 95 43 64
        E 0 82 43 64
        E 0 83 40 64
        E 0 85 43 64
        E 0 8f 31 64
        E 0 92 42 64
        E 0 93 39 5a
        E 0 95 42 64
        E 0 9f 32 5a
        E 0 82 42 64
        E 0 83 39 64
        E 0 85 42 64
        E 0 8f 32 64
        E 0 92 3e 64
        E 0 93 42 5a
        E 0 95 3e 64
        E 0 9f 36 5a
        E 0 82 3e 64
        E 0 83 42 64
        E 0 85 3e 64
        E 0 8f 36 64
        E 0 92 48 64
        E 0 93 45 5a
        E 0 95 48 64
        E 0 9f 32 5a
        E 0 82 48 64
        E 0 83 45 64
        E 0 85 48 64
        E 0 8f 32 64
        E 0 92 47 64
        E 0 93 43 5a
        E 0 95 47 64
        E 0 9f 37 5a
        E 0 82 47 64
        E 0 83 43 64
        E 0 85 47 64
        E 0 8f 37 64
        E 0 92 45 64
        E 0 93 42 5a
        E 0 95 45 64
        E 0 9f 30 5a
        E 0 83 42 64
        E 0 8f 30 64
        E 0 93 42 5a
        E 0 9f 32 5a
        E 0 82 45 64
        E 0 83 42 64
        E 0 85 45 64
        E 0 8f 32 64
        E 0 92 4f 64
        E 0 93 3e 5a
        E 0 95 43 64
        E 0 9f 2b 5a
        E 0 82 4f 64
        E 0 92 4f 64
        E 0 83 3e 64
        E 0 8f 2b 64
        E 0 93 3b 5a
        E 0 9f 37 5a
        E 0 8f 37 64
        E 0 9f 36 5a
        E 0 83 3b 64
        E 0 85 43 64
        E 0 8f 36 64
        E 0 93 3b 5a
        E 0 9f 37 5a
        E 0 83 3b 64
        E 0 8f 37 64
        E 0 92 4e 64
        E 0 82 4e 64
        E 0 92 4c 64
        E 0 82 4f 64
        E 0 82 4c 64
        E 0 92 4a 64
        E 0 93 42 5a
        E 0 9f 32 5a
        E 0 8f 32 64
        E 0 9f 30 5a
        E 0 83 42 64
        E 0 8f 30 64
        E 0 93 42 5a
        E 0 9f 32 5a
        E 0 83 42 64
        E 0 8f 32 64
        E 0 92 48 64
        E 0 82 48 64
        E 1 92 47 64
        E 0 82 4a 64
        E 0 82 47 64
        E 0 92 45 64
        E 0 93 42 5a
        E 0 9f 32 5a
        E 0 8f 32 64
        E 0 9f 30 5a
        E 0 83 42 64
        E 0 8f 30 64
        E 0 93 42 5a
        E 0 9f 32 5a
        E 0 83 42 64
        E 0 8f 32 64
        E 0 92 47 64
        E 0 82 47 64
        E 0 92 45 64
        E 0 82 45 64
        E 0 82 45 64
        E 0 92 43 64
        E 0 93 3e 5a
        E 0 9f 37 5a
        E 0 8f 37 64
        E 0 9f 36 5a
        E 0 83 3e 64
        E 0 8f 36 64
        E 0 93 3e 5a
        E 0 9f 37 5a
        E 0 83 3e 64
        E 0 8f 37 64
        E 0 92 4f 64
        E 0 82 43 64
        E 0 82 4f 64
        E 0 92 4f 64
        E 0 93 47 5a
        E 0 9f 37 5a
        E 0 8f 37 64
        E 0 9f 36 5a
        E 0 83 47 64
        E 0 8f 36 64
        E 0 93 47 5a
        E 0 9f 37 5a
        E 0 83 47 64
        E 0 8f 37 64
        E 0 92 4e 64
        E 0 82 4e 64
        E 0 92 4c 64
        E 0 82 4f 64
        E 0 82 4c 64
        E 0 92 4a 64
        E 0 93 45 5a
        E 0 9f 36 5a
        E 0 8f 36 64
        E 0 9f 34 5a
        E 0 83 45 64
        E 0 8f 34 64
        E 0 93 45 5a
        E 0 9f 36 5a
        E 0 83 45 64
        E 0 8f 36 64
        E 0 92 48 64
        E 0 82 48 64
        E 0 92 47 64
        E 0 82 4a 64
        E 0 82 47 64
        E 0 92 45 64
        E 0 93 42 5a
        E 0 9f 32 5a
        E 0 8f 32 64
        E 0 9f 30 5a
        E 0 83 42 64
        E 0 8f 30 64
        E 0 93 42 5a
        E 0 9f 32 5a
        E 0 83 42 64
        E 0 8f 32 64
        E 0 92 47 64
        E 1 93 3e 5a
        E 0 9f 2b 5a
        E 0 82 45 64
        E 0 82 47 64
        E 0 83 3e 64
        E 0 8f 2b 64
        E 0 92 4a 64
        E 0 93 47 5a
        E 0 9f 37 5a
        E 0 82 4a 64
        E 0 83 47 64
        E 0 8f 37 64
        E 0 92 4f 64
        E 1 93 47 5a
        E 0 9f 2b 5a
        E 0 82 4f 64
        E 1 83 47 64
        E 0 8f 2b 64
        E 0 92 4c 64
        E 0 93 43 5a
        E 0 9f 30 5a
        E 0 82 4c 64
        E 0 83 43 64
        E 0 8f 30 64
        E 0 92 51 64
        E 0 93 40 5a
        E 0 9f 31 5a
        E 0 82 51 64
        E 0 83 40 64
        E 0 8f 31 64
        E 0 92 4c 64
        E 0 93 3d 5a
        E 0 9f 2d 5a
        E 0 82 4c 64
        E 0 83 3d 64
        E 0 8f 2d 64
        E 1 92 4e 64
        E 0 93 39 5a
        E 0 9f 32 5a
        E 0 82 4e 64
        E 0 83 39 64
        E 0 8f 32 64
        E 0 92 51 64
        E 0 93 3e 5a
        E 0 9f 36 5a
        E 0 82 51 64
        E 0 83 3e 64
        E 0 8f 36 64
        E 0 92 48 64
        E 0 93 42 5a
        E 0 9f 32 5a
        E 0 82 48 64
        E 0 83 42 64
        E 0 8f 32 64
        E 0 92 47 64
        E 0 93 3e 5a
        E 0 9f 37 5a
        E 0 82 47 64
        E 0 83 3e 64
        E 0 8f 37 64
        E 1 92 4a 64
        E 0 93 43 5a
        E 0 9f 2f 5a
        E 0 82 4a 64
        E 0 83 43 64
        E 0 8f 2f 64
        E 0 92 4f 64
        E 0 93 47 5a
        E 0 9f 2b 5a
        E 0 82 4f 64
        E 0 83 47 64
        E 0 8f 2b 64
        E 0 92 47 64
        E 0 93 43 5a
        E 0 9f 37 5a
        E 0 82 47 64
        E 0 83 43 64
        E 0 8f 37 64
        E 0 92 48 64
        E 0 93 45 5a
        E 0 9f 30 5a
        E 0 82 48 64
        E 0 83 45 64
        E 0 8f 30 64
        E 0 92 45 64
        E 0 93 42 5a
        E 0 9f 32 5a
        E 0 82 45 64
        E 0 83 42 64
        E 0 8f 32 64
        E 0 92 43 64
        E 0 93 43 5a
        E 0 9f 2b 5a
        E 0 82 43 64
        E 0 83 43 64
        E 0 8f 2b 64
        E 0 92 47 64
        E 0 93 43 5a
        E 0 95 47 64
        E 0 9f 34 5a
        E 0 82 47 64
        E 0 83 43 64
        E 0 85 47 64
        E 0 8f 34 64
        E 0 92 45 64
        E 0 93 45 5a
        E 0 95 45 64
        E 1 9f 36 5a
        E 0 83 45 64
        E 0 8f 36 64
        E 0 93 42 5a
        E 0 9f 33 5a
        E 0 82 45 64
        E 0 85 45 64
        E 0 92 47 64
        E 0 95 47 64
        E 0 82 47 64
        E 0 85 47 64
        E 0 92 48 64
        E 0 95 48 64
        E 0 82 48 64
        E 0 83 42 64
        E 0 85 48 64
        E 0 8f 33 64
        E 0 92 47 64
        E 0 93 3b 5a
        E 0 95 47 64
        E 0 9f 34 5a
        E 0 82 47 64
        E 0 83 3b 64
        E 0 85 47 64
        E 0 8f 34 64
        E 0 92 40 64
        E 0 93 47 5a
        E 0 95 40 64
        E 0 9f 37 5a
        E 0 82 40 64
        E 0 83 47 64
        E 0 85 40 64
        E 0 8f 37 64
        E 0 92 48 64
        E 0 93 45 5a
        E 0 95 48 64
        E 0 9f 39 5a
        E 0 83 45 64
        E 0 93 43 5a
        E 0 82 48 64
        E 0 83 43 64
        E 0 85 48 64
        E 0 8f 39 64
        E 0 92 48 64
        E 0 93 42 5a
        E 0 95 48 64
        E 0 9f 33 5a
        E 1 82 48 64
        E 0 85 48 64
        E 0 8f 33 64
        E 0 92 47 64
        E 0 95 47 64
        E 0 9f 2f 5a
        E 0 82 47 64
        E 0 85 47 64
        E 0 92 45 64
        E 0 95 45 64
        E 0 82 45 64
        E 0 83 42 64
        E 0 85 45 64
        E 0 8f 2f 64
        E 0 92 43 64
        E 0 93 3f 5a
        E 0 95 43 64
        E 0 9f 3b 5a
        E 0 82 43 64
        E 0 85 43 64
        E 0 92 42 64
        E 0 95 42 64
        E 0 82 42 64
        E 0 83 3f 64
        E 0 85 42 64
        E 0 8f 3b 64
        E 0 92 43 64
        E 0 93 3b 5a
        E 0 95 43 64
        E 0 9f 34 5a
        E 0 82 43 64
        E 0 85 43 64
        E 0 92 42 64
        E 0 95 42 64
        E 0 82 42 64
        E 0 83 3b 64
        E 0 85 42 64
        E 0 8f 34 64
        E 0 92 40 64
        E 0 93 47 5a
        E 0 95 40 64
        E 0 9f 37 5a
        E 0 83 47 64
        E 0 8f 37 64
        E 0 93 45 5a
        E 0 9f 36 5a
        E 0 82 40 64
        E 0 83 45 64
        E 0 85 40 64
        E 0 8f 36 64
        E 0 93 43 5a
        E 0 9f 34 5a
        E 0 83 43 64
        E 0 8f 34 64
        E 0 92 47 64
        E 0 93 43 5a
        E 1 95 47 64
        E 0 9f 34 5a
        E 0 82 47 64
        E 0 83 43 64
        E 0 85 47 64
        E 0 8f 34 64
        E 0 92 45 64
        E 0 93 45 5a
        E 0 95 45 64
        E 0 9f 36 5a
        E 0 83 45 64
        E 0 8f 36 64
        E 0 93 42 5a
        E 0 9f 33 5a
        E 38403 82 45 64
        E 0 85 45 64
        E 1 92 47 64
        E 0 95 47 64
        E 0 82 47 64
        E 0 85 47 64
        E 0 92 48 64
        E 0 95 48 64
        E 0 82 48 64
        E 0 83 42 64
        E 0 85 48 64
        E 0 8f 33 64
        E 0 92 47 64
        E 0 93 3b 5a
        E 0 95 47 64
        E 0 9f 34 5a
        E 0 82 47 64
        E 0 83 3b 64
        E 0 85 47 64
        E 0 8f 34 64
        E 0 92 40 64
        E 0 93 47 5a
        E 0 95 40 64
        E 0 9f 37 5a
        E 0 82 40 64
        E 0 83 47 64
        E 0 85 40 64
        E 0 8f 37 64
        E 0 92 48 64
        E 0 93 45 5a
        E 0 95 48 64
        E 0 9f 3b 5a
        E 0 83 45 64
        E 0 93 43 5a
        E 0 82 48 64
        E 0 83 43 64
        E 0 85 48 64
        E 0 8f 3b 64
        E 0 92 48 64
        E 0 93 42 5a
        E 0 95 48 64
        E 0 9f 33 5a
        E 0 82 48 64
        E 0 85 48 64
        E 0 8f 33 64
        E 0 92 47 64
        E 0 95 47 64
        E 0 9f 2f 5a
        E 0 82 47 64
        E 0 85 47 64
        E 1 92 45 64
        E 0 95 45 64
        E 0 82 45 64
        E 0 83 42 64
        E 0 85 45 64
        E 0 8f 2f 64
        E 0 92 43 64
        E 0 93 3f 5a
        E 0 95 43 64
        E 0 9f 3b 5a
        E 0 82 43 64
        E 0 85 43 64
        E 0 92 42 64
        E 0 95 42 64
        E 0 82 42 64
        E 0 83 3f 64
        E 0 85 42 64
        E 0 8f 3b 64
        E 0 92 43 64
        E 0 93 3b 5a
        E 0 95 43 64
        E 0 9f 34 5a
        E 0 82 43 64
        E 0 85 43 64
        E 0 92 42 64
        E 0 95 42 64
        E 0 82 42 64
        E 0 83 3b 64
        E 0 85 42 64
        E 0 8f 34 64
        E 0 92 40 64
        E 0 93 47 5a
        E 0 95 40 64
        E 0 9f 37 5a
        E 0 83 47 64
        E 0 8f 37 64
        E 0 93 45 5a
        E 0 9f 36 5a
        E 0 82 40 64
        E 0 83 45 64
        E 0 85 40 64
        E 0 8f 36 64
        E 0 93 43 5a
        E 0 9f 34 5a
        E 0 83 43 64
        E 0 8f 34 64
        E 0 92 44 64
        E 0 93 3b 5a
        E 0 95 44 64
        E 0 9f 32 5a
        E 0 82 44 64
        E 0 85 44 64
        E 0 8f 32 64
        E 0 92 44 64
        E 0 95 44 64
        E 0 9f 34 5a
        E 0 83 3b 64
        E 0 8f 34 64
        E 0 93 3b 5a
        E 0 9f 32 5a
        E 0 82 44 64
        E 0 83 3b 64
        E 0 85 44 64
        E 0 8f 32 64
        E 0 92 45 64
        E 0 93 40 5a
        E 0 95 45 64
        E 0 9f 30 5a
        E 1 82 45 64
        E 0 85 45 64
        E 0 92 44 64
        E 0 95 44 64
        E 0 82 44 64
        E 0 83 40 64
        E 0 85 44 64
        E 0 8f 30 64
        E 0 92 45 64
        E 0 93 3e 5a
        E 0 95 45 64
        E 0 9f 2f 5a
        E 0 83 3e 64
        E 0 8f 2f 64
        E 0 93 3c 5a
        E 0 9f 2d 5a
        E 0 82 45 64
        E 0 83 3c 64
        E 0 85 45 64
        E 0 8f 2d 64
        E 0 92 46 64
        E 0 93 3d 5a
        E 0 95 46 64
        E 0 9f 36 5a
        E 0 8f 36 64
        E 0 9f 37 5a
        E 0 82 46 64
        E 0 83 3d 64
        E 0 85 46 64
        E 0 8f 37 64
        E 0 92 46 64
        E 0 93 3d 5a
        E 0 95 46 64
        E 0 9f 34 5a
        E 0 82 46 64
        E 0 83 3d 64
        E 0 85 46 64
        E 0 8f 34 64
        E 0 92 47 64
        E 0 93 42 5a
        E 0 95 47 64
        E 0 9f 32 5a
        E 0 82 47 64
        E 0 85 47 64
        E 0 92 46 64
        E 0 95 46 64
        E 0 82 46 64
        E 0 83 42 64
        E 0 85 46 64
        E 0 8f 32 64
        E 0 92 47 64
        E 0 93 40 5a
        E 1 95 47 64
        E 0 9f 31 5a
        E 0 83 40 64
        E 0 8f 31 64
        E 0 93 3e 5a
        E 0 9f 2f 5a
        E 0 82 47 64
        E 0 83 3e 64
        E 0 85 47 64
        E 0 8f 2f 64
        E 0 92 43 64
        E 0 93 37 5a
        E 0 95 43 64
        E 0 9f 34 5a
        E 0 82 43 64
        E 0 85 43 64
        E 0 92 42 64
        E 0 95 42 64
        E 0 82 42 64
        E 0 85 42 64
        E 0 92 40 64
        E 0 95 40 64
        E 0 83 37 64
        E 0 8f 34 64
        E 0 93 3b 5a
        E 0 9f 37 5a
        E 0 83 3b 64
        E 0 8f 37 64
        E 0 93 3d 5a
        E 0 9f 2e 5a
        E 0 83 3d 64
        E 0 8f 2e 64
        E 0 92 3e 64
        E 0 93 36 5a
        E 0 95 3e 64
        E 0 9f 2f 5a
        E 0 82 3e 64
        E 0 85 3e 64
        E 0 92 40 64
        E 0 95 40 64
        E 0 82 40 64
        E 0 82 40 64
        E 0 85 40 64
        E 0 85 40 64
        E 0 92 42 64
        E 0 95 42 64
        E 0 83 36 64
        E 0 8f 2f 64
        E 0 93 42 5a
        E 0 9f 32 5a
        E 0 83 42 64
        E 0 8f 32 64
        E 0 93 40 5a
        E 0 9f 31 5a
        E 0 83 40 64
        E 0 8f 31 64
        E 0 92 4a 64
        E 0 93 42 5a
        E 0 95 4a 64
        E 0 9f 2f 5a
        E 0 82 4a 64
        E 0 85 4a 64
        E 0 92 48 64
        E 0 95 48 64
        E 0 82 42 64
        E 0 82 48 64
        E 0 85 42 64
        E 0 85 48 64
        E 0 92 47 64
        E 0 95 47 64
        E 0 8f 2f 64
        E 0 9f 3b 5a
        E 0 83 42 64
        E 0 8f 3b 64
        E 0 93 44 5a
        E 0 9f 35 59
        E 0 83 44 64
        E 0 8f 35 63
        E 0 92 46 64
        E 0 93 3d 5a
        E 0 95 46 64
        E 0 9f 36 5a
        E 0 82 46 64
        E 0 85 46 64
        E 0 92 44 64
        E 0 95 44 64
        E 0 82 47 64
        E 0 82 44 64
        E 0 85 47 64
        E 0 85 44 64
        E 0 92 42 64
        E 0 95 42 64
        E 0 8f 36 64
        E 0 9f 38 5a
        E 0 8f 38 64
        E 0 9f 3a 5a
        E 0 83 3d 64
        E 0 8f 3a 64
        E 0 92 4c 64
        E 0 93 46 5a
        E 0 95 4c 64
        E 0 9f 36 5a
        E 0 82 4c 64
        E 0 85 4c 64
        E 1 92 4a 64
        E 0 95 4a 64
        E 0 82 42 64
        E 0 82 4a 64
        E 0 85 42 64
        E 0 85 4a 64
        E 0 92 49 64
        E 0 95 49 64
        E 0 83 46 64
        E 0 8f 36 64
        E 0 93 47 5a
        E 0 9f 38 5a
        E 0 83 47 64
        E 0 8f 38 64
        E 0 93 49 5a
        E 0 9f 3a 5a
        E 0 83 49 64
        E 0 8f 3a 64
        E 0 92 4a 64
        E 0 93 42 5a
        E 0 95 4a 64
        E 0 9f 3b 5a
        E 0 82 49 64
        E 0 85 49 64
        E 0 82 4a 64
        E 0 83 42 64
        E 0 85 4a 64
        E 0 8f 3b 64
        E 0 92 49 64
        E 0 93 45 5a
        E 0 95 49 64
        E 0 9f 36 5a
        E 0 82 49 64
        E 0 83 45 64
        E 0 85 49 64
        E 0 8f 36 64
        E 0 92 47 64
        E 0 93 42 5a
        E 0 95 47 64
        E 0 9f 32 5a
        E 0 82 47 64
        E 0 83 42 64
        E 0 85 47 64
        E 0 8f 32 64
        E 0 92 49 64
        E 0 93 43 5a
        E 0 95 49 64
        E 0 9f 34 5a
        E 0 82 49 64
        E 0 83 43 64
        E 0 85 49 64
        E 0 8f 34 64
        E 0 92 46 64
        E 0 93 3d 5a
        E 0 95 46 64
        E 0 9f 36 5a
        E 0 83 3d 64
        E 0 8f 36 64
        E 0 93 42 5a
        E 0 9f 2a 5a
        E 0 82 46 64
        E 0 83 42 64
        E 0 85 46 64
        E 0 8f 2a 64
        E 0 92 47 64
        E 0 93 3e 5a
        E 0 95 47 64
        E 0 9f 2f 5a
        E 0 8f 2f 64
        E 0 9f 36 5a
        E 0 8f 36 64
        E 0 9f 34 5a
        E 0 82 47 64
        E 0 83 3e 64
        E 0 85 47 64
        E 0 8f 34 64
        E 0 9f 32 5a
        E 0 8f 32 64
        E 0 9f 31 5a
        E 0 8f 31 64
        E 1 92 3e 64
        E 0 93 3e 5a
        E 0 95 3e 64
        E 0 9f 2f 5a
        E 0 82 3e 64
        E 0 85 3e 64
        E 0 92 42 64
        E 0 95 42 64
        E 0 82 42 64
        E 0 83 3e 64
        E 0 85 42 64
        E 0 8f 2f 64
        E 0 92 47 64
        E 0 95 47 64
        E 0 82 47 64
        E 0 85 47 64
        E 0 92 4a 64
        E 0 93 3e 5a
        E 0 95 4a 64
        E 0 9f 2f 5a
        E 0 82 4a 64
        E 0 83 3e 64
        E 0 85 4a 64
        E 0 8f 2f 64
        E 0 92 49 64
        E 0 93 40 5a
        E 0 95 49 64
        E 0 9f 31 5a
        E 0 82 49 64
        E 0 83 40 64
        E 0 85 49 64
        E 0 8f 31 64
        E 0 92 47 64
        E 0 93 42 5a
        E 0 95 47 64
        E 0 9f 32 5a
        E 0 82 47 64
        E 0 83 42 64
        E 0 85 47 64
        E 0 8f 32 64
        E 0 92 49 64
        E 0 93 43 5a
        E 0 95 49 64
        E 0 9f 34 5a
        E 0 82 49 64
        E 0 83 43 64
        E 0 85 49 64
        E 0 8f 34 64
        E 0 92 46 64
        E 0 93 3d 5a
        E 0 95 46 64
        E 0 9f 36 5a
        E 0 8f 36 64
        E 0 9f 2a 5a
        E 0 82 46 64
        E 0 83 3d 64
        E 0 85 46 64
        E 0 8f 2a 64
        E 0 92 47 64
        E 0 93 3e 5a
        E 0 95 47 64
        E 1 9f 2f 5a
        E 0 82 47 64
        E 0 83 3e 64
        E 0 85 47 64
        E 0 8f 2f 64
        E 0 98 46 66
        E 0 9e 46 66
        E 0 9f 2e 5b
        E 0 88 46 66
        E 0 8e 46 66
        E 0 98 41 64
        E 0 9e 41 64
        E 0 88 41 64
        E 0 8e 41 64
        E 0 98 4a 64
        E 0 9e 4a 64
        E 0 88 4a 64
        E 0 8e 4a 64
        E 0 98 48 64
        E 0 9e 48 64
        E 0 88 48 64
        E 0 8e 48 64
        E 0 98 4a 64
        E 0 9e 4a 64
        E 0 88 4a 64
        E 0 8e 4a 64
        E 0 98 46 66
        E 0 9e 46 66
        E 0 88 46 66
        E 0 8e 46 66
        E 0 98 46 66
        E 0 9e 46 66
        E 0 88 46 66
        E 0 8e 46 66
        E 0 8f 2e 66
        E 0 9f 33 5b
        E 0 98 48 64
        E 0 9e 48 64
        E 0 88 48 64
        E 0 8e 48 64
        E 0 98 48 64
        E 0 9e 48 64
        E 0 88 48 64
        E 0 8e 48 64
        E 0 98 43 64
        E 0 9e 43 64
        E 0 88 43 64
        E 0 8e 43 64
        E 0 8f 33 66
        E 0 98 45 64
        E 0 9e 45 64
        E 0 9f 32 5a
        E 0 88 45 64
        E 0 8e 45 64
        E 0 8f 32 64
        E 0 98 42 64
        E 0 9e 42 64
        E 0 9f 32 5a
        E 0 88 42 64
        E 0 8e 42 64
        E 0 98 4a 64
        E 0 9e 4a 64
        E 0 88 4a 64
        E 0 8e 4a 64
        E 0 98 4a 64
        E 0 9e 4a 64
        E 0 88 4a 64
        E 0 8e 4a 64
        E 0 98 45 64
        E 0 9e 45 64
        E 38404 88 45 64
        E 0 8e 45 64
        E 0 98 45 64
        E 0 9e 45 64
        E 0 88 45 64
        E 0 8e 45 64
        E 0 98 47 64
        E 0 9e 47 64
        E 0 88 47 64
        E 0 8e 47 64
        E 0 8f 32 64
        E 0 98 43 64
        E 0 9e 43 64
        E 0 9f 2b 5a
        E 0 88 43 64
        E 0 8e 43 64
        E 0 98 43 64
        E 0 9e 43 64
        E 0 88 43 64
        E 0 8e 43 64
        E 0 98 43 64
        E 0 9e 43 64
        E 0 88 43 64
        E 0 8e 43 64
        E 0 98 47 64
        E 1 9e 47 64
        E 0 88 47 64
        E 0 8e 47 64
        E 0 98 47 64
        E 0 9e 47 64
        E 0 88 47 64
        E 0 8e 47 64
        E 0 98 47 64
        E 0 9e 47 64
        E 0 88 47 64
        E 0 8e 47 64
        E 0 98 48 64
        E 0 9e 48 64
        E 0 88 48 64
        E 0 8e 48 64
        E 0 98 4a 64
        E 0 9e 4a 64
        E 0 88 4a 64
        E 0 8e 4a 64
        E 0 8f 2b 64
        E 0 98 44 64
        E 0 9e 44 64
        E 0 9f 32 5a
        E 0 88 44 64
        E 0 8e 44 64
        E 0 98 44 64
        E 0 9e 44 64
        E 0 88 44 64
        E 0 8e 44 64
        E 0 98 47 64
        E 0 9e 47 64
        E 0 88 47 64
        E 0 8e 47 64
        E 0 98 47 64
        E 0 9e 47 64
        E 0 88 47 64
        E 0 8e 47 64
        E 0 98 48 64
        E 0 9e 48 64
        E 0 88 48 64
        E 0 8e 48 64
        E 0 98 4a 64
        E 0 9e 4a 64
        E 0 88 4a 64
        E 0 8e 4a 64
        E 0 98 48 64
        E 0 9e 48 64
        E 0 88 48 64
        E 0 8e 48 64
        E 0 8f 32 64
        E 0 98 45 64
        E 0 9e 45 64
        E 0 9f 30 5a
        E 0 88 45 64
        E 0 8e 45 64
        E 0 98 48 64
        E 0 9e 48 64
        E 0 88 48 64
        E 0 8e 48 64
        E 0 98 48 64
        E 0 9e 48 64
        E 0 88 48 64
        E 0 8e 48 64
        E 0 98 47 64
        E 0 9e 47 64
        E 1 88 47 64
        E 0 8e 47 64
        E 0 8f 30 64
        E 0 98 47 64
        E 0 9e 47 64
        E 0 9f 33 5a
        E 0 88 47 64
        E 0 8e 47 64
        E 0 98 47 64
        E 0 9e 47 64
        E 0 88 47 64
        E 0 8e 47 64
        E 0 98 47 64
        E 0 9e 47 64
        E 0 88 47 64
        E 0 8e 47 64
        E 0 98 4b 64
        E 0 9e 4b 64
        E 0 88 4b 64
        E 0 8e 4b 64
        E 0 98 4b 64
        E 0 9e 4b 64
        E 0 88 4b 64
        E 0 8e 4b 64
        E 0 98 4b 64
        E 0 9e 4b 64
        E 0 88 4b 64
        E 0 8e 4b 64
        E 0 98 4c 64
        E 0 9e 4c 64
        E 0 88 4c 64
        E 0 8e 4c 64
        E 0 8f 33 64
        E 0 98 47 64
        E 0 9e 47 64
        E 0 9f 37 5a
        E 0 88 47 64
        E 0 8e 47 64
        E 0 98 47 64
        E 0 9e 47 64
        E 0 88 47 64
        E 0 8e 47 64
        E 0 98 43 64
        E 0 9e 43 64
        E 0 88 43 64
        E 0 8e 43 64
        E 0 98 47 64
        E 0 9e 47 64
        E 0 88 47 64
        E 0 8e 47 64
        E 0 98 47 64
        E 0 9e 47 64
        E 0 88 47 64
        E 0 8e 47 64
        E 0 98 45 64
        E 0 9e 45 64
        E 0 88 45 64
        E 0 8e 45 64
        E 0 98 47 64
        E 0 9e 47 64
        E 0 88 47 64
        E 0 8e 47 64
        E 0 8f 37 64
        E 0 98 48 64
        E 0 9e 48 64
        E 0 9f 39 5a
        E 0 88 48 64
        E 0 8e 48 64
        E 0 98 48 64
        E 0 9e 48 64
        E 0 88 48 64
        E 0 8e 48 64
        E 0 98 45 64
        E 0 9e 45 64
        E 0 88 45 64
        E 0 8e 45 64
        E 0 98 43 64
        E 0 9e 43 64
        E 0 88 43 64
        E 0 8e 43 64
        E 0 8f 39 64
        E 0 98 40 64
        E 0 9e 40 64
        E 0 9f 3b 5a
        E 0 88 40 64
        E 0 8e 40 64
        E 0 98 40 64
        E 0 9e 40 64
        E 0 88 40 64
        E 0 8e 40 64
        E 0 8f 3b 64
        E 0 9f 34 5a
        E 0 8f 34 64
        E 0 92 42 64
        E 0 93 3e 5a
        E 0 9f 2f 5a
        E 0 82 42 64
        E 0 83 3e 64
        E 0 8f 2f 64
        E 0 92 47 64
        E 0 93 3e 5a
        E 1 9f 2f 5a
        E 0 82 47 64
        E 0 83 3e 64
        E 0 8f 2f 64
        E 0 92 4f 64
        E 0 93 40 5a
        E 0 9f 2f 5a
        E 0 82 4f 64
        E 0 83 40 64
        E 0 8f 2f 64
        E 0 92 4e 64
        E 0 93 3e 5a
        E 0 9f 2f 5a
        E 0 82 4e 64
        E 0 83 3e 64
        E 0 8f 2f 64
        E 0 92 47 64
        E 0 93 3e 5a
        E 0 9f 2f 5a
        E 0 82 47 64
        E 0 83 3e 64
        E 0 8f 2f 64
        E 0 92 47 64
        E 0 93 3e 5a
        E 0 9f 36 5a
        E 0 82 47 64
        E 0 92 49 64
        E 0 82 49 64
        E 0 92 4a 64
        E 0 82 4a 64
        E 0 83 3e 64
        E 0 8f 36 64
        E 0 92 49 64
        E 0 93 46 5a
        E 0 9f 36 5a
        E 0 83 46 64
        E 0 8f 36 64
        E 0 93 46 5a
        E 0 9f 36 5a
        E 0 83 46 64
        E 0 8f 36 64
        E 0 93 46 5a
        E 0 9f 36 5a
        E 0 82 49 64
        E 0 83 46 64
        E 0 8f 36 64
        E 0 92 49 64
        E 0 93 46 5a
        E 0 9f 36 5a
        E 0 82 49 64
        E 0 83 46 64
        E 0 8f 36 64
        E 0 92 4a 64
        E 0 93 49 5a
        E 0 9f 36 5a
        E 0 82 4a 64
        E 0 92 4c 64
        E 0 82 4c 64
        E 0 83 49 64
        E 0 8f 36 64
        E 0 92 4a 64
        E 0 93 47 5a
        E 0 9f 36 5a
        E 0 82 4a 64
        E 0 83 47 64
        E 0 8f 36 64
        E 0 92 49 64
        E 0 93 46 5a
        E 0 9f 36 5a
        E 0 82 49 64
        E 0 83 46 64
        E 0 8f 36 64
        E 0 92 4a 64
        E 0 93 42 5a
        E 0 9f 2f 5a
        E 0 82 4a 64
        E 0 92 49 64
        E 0 82 49 64
        E 0 92 47 64
        E 0 83 42 64
        E 0 8f 2f 64
        E 0 93 42 5a
        E 0 9f 2f 5a
        E 0 83 42 64
        E 0 8f 2f 64
        E 0 93 42 5a
        E 0 9f 2f 5a
        E 0 82 47 64
        E 0 92 42 64
        E 38403 83 42 64
        E 0 8f 2f 64
        E 0 93 3e 5a
        E 0 9f 2f 5a
        E 0 82 42 64
        E 0 83 3e 64
        E 0 8f 2f 64
        E 0 92 47 64
        E 0 93 3e 5a
        E 0 9f 2f 5a
        E 0 82 47 64
        E 0 83 3e 64
        E 0 8f 2f 64
        E 0 92 42 64
        E 0 93 3e 5a
        E 0 9f 2f 5a
        E 0 82 42 64
        E 0 83 3e 64
        E 0 8f 2f 64
        E 0 92 3b 64
        E 0 93 3e 5a
        E 0 9f 2f 5a
        E 1 82 3b 64
        E 0 83 3e 64
        E 0 8f 2f 64
        E 0 92 43 64
        E 0 93 40 5a
        E 0 9f 2f 5a
        E 0 82 43 64
        E 0 83 40 64
        E 0 8f 2f 64
        E 0 92 45 64
        E 0 92 43 64
        E 0 93 40 5a
        E 0 9f 2f 5a
        E 0 82 45 64
        E 0 82 43 64
        E 0 83 40 64
        E 0 8f 2f 64
        E 0 92 42 64
        E 0 93 3e 5a
        E 0 9f 2f 5a
        E 0 83 3e 64
        E 0 8f 2f 64
        E 0 93 3e 5a
        E 0 9f 2f 5a
        E 0 82 42 64
        E 0 83 3e 64
        E 0 8f 2f 64
        E 0 92 42 64
        E 0 93 3e 5a
        E 0 9f 2f 5a
        E 0 82 42 64
        E 0 83 3e 64
        E 0 8f 2f 64
        E 0 92 47 64
        E 0 93 3e 5a
        E 0 9f 2f 5a
        E 0 82 47 64
        E 0 92 42 64
        E 0 82 42 64
        E 0 83 3e 64
        E 0 8f 2f 64
        E 0 92 4a 64
        E 0 93 40 5a
        E 0 9f 31 5a
        E 0 82 4a 64
        E 0 92 47 64
        E 0 82 47 64
        E 0 83 40 64
        E 0 8f 31 64
        E 1 92 4e 64
        E 0 93 42 5a
        E 0 9f 32 5a
        E 0 82 4e 64
        E 0 83 42 64
        E 0 8f 32 64
        E 0 92 47 64
        E 0 93 43 5a
        E 0 9f 34 5a
        E 0 82 47 64
        E 0 83 43 64
        E 0 8f 34 64
        E 0 92 42 64
        E 0 93 3d 5a
        E 0 9f 36 5a
        E 0 83 3d 64
        E 0 8f 36 64
        E 0 93 3d 5a
        E 0 9f 34 5a
        E 0 82 42 64
        E 0 83 3d 64
        E 0 8f 34 64
        E 0 93 42 5a
        E 0 9f 33 5a
        E 0 83 42 64
        E 0 8f 33 64
        E 0 93 42 5a
        E 0 9f 31 5a
        E 0 92 4e 64
        E 0 82 4e 64
        E 0 83 42 64
        E 0 8f 31 64
        E 0 92 4c 64
        E 0 93 42 5a
        E 0 9f 2f 5a
        E 0 82 4c 64
        E 0 83 42 64
        E 0 8f 2f 64
        E 0 92 4b 64
        E 0 93 42 5a
        E 0 9f 2f 5a
        E 0 82 4b 64
        E 0 92 4e 64
        E 0 82 4e 64
        E 0 83 42 64
        E 0 8f 2f 64
        E 0 92 48 64
        E 0 93 42 5a
        E 0 9f 33 5a
        E 0 82 48 64
        E 0 83 42 64
        E 0 8f 33 64
        E 0 92 47 64
        E 0 93 42 5a
        E 0 9f 33 5a
        E 0 82 47 64
        E 0 92 45 64
        E 0 82 45 64
        E 0 83 42 64
        E 0 8f 33 64
        E 0 92 43 64
        E 0 93 3b 5a
        E 0 9f 34 5a
        E 0 92 47 64
        E 0 82 43 64
        E 0 92 45 64
        E 0 82 47 64
        E 0 83 3b 64
        E 0 8f 34 64
        E 0 92 43 64
        E 0 93 3b 5a
        E 0 9f 34 5a
        E 0 82 45 64
        E 0 92 42 64
        E 0 82 43 64
        E 0 92 40 64
        E 0 82 42 64
        E 0 83 3b 64
        E 0 8f 34 64
        E 0 92 3b 64
        E 0 93 37 5a
        E 0 9f 34 5a
        E 0 82 40 64
        E 0 82 3b 64
        E 0 83 37 64
        E 0 8f 34 64
        E 0 93 43 5a
        E 0 9f 34 5a
        E 0 92 4c 64
        E 0 82 4c 64
        E 1 83 43 64
        E 0 8f 34 64
        E 0 92 4a 64
        E 0 93 40 5a
        E 0 9f 2d 5a
        E 0 82 4a 64
        E 0 83 40 64
        E 0 8f 2d 64
        E 0 92 49 64
        E 0 93 40 5a
        E 0 9f 2d 5a
        E 0 82 49 64
        E 0 92 4c 64
        E 0 82 4c 64
        E 0 83 40 64
        E 0 8f 2d 64
        E 0 92 47 64
        E 0 93 40 5a
        E 0 9f 31 5a
        E 0 82 47 64
        E 0 83 40 64
        E 0 8f 31 64
        E 0 92 45 64
        E 0 93 40 5a
        E 0 9f 31 5a
        E 0 82 45 64
        E 0 92 43 64
        E 0 82 43 64
        E 0 83 40 64
        E 0 8f 31 64
        E 0 92 42 64
        E 0 93 39 5a
        E 0 9f 32 5a
        E 0 92 45 64
        E 0 82 42 64
        E 0 92 43 64
        E 0 82 45 64
        E 0 83 39 64
        E 0 8f 32 64
        E 0 92 42 64
        E 0 93 39 5a
        E 0 9f 32 5a
        E 0 82 43 64
        E 0 92 40 64
        E 0 82 42 64
        E 0 92 3e 64
        E 0 82 40 64
        E 0 83 39 64
        E 0 8f 32 64
        E 0 92 39 64
        E 0 93 39 5a
        E 0 9f 32 5a
        E 0 82 3e 64
        E 0 82 39 64
        E 0 83 39 64
        E 0 8f 32 64
        E 0 92 42 64
        E 0 93 42 5a
        E 0 9f 32 5a
        E 0 82 42 64
        E 0 83 42 64
        E 0 8f 32 64
        E 0 92 47 64
        E 0 93 42 5a
        E 0 9f 32 5a
        E 0 82 47 64
        E 0 83 42 64
        E 0 8f 32 64
        E 0 92 47 64
        E 0 93 42 5a
        E 0 9f 32 5a
        E 0 82 47 64
        E 0 83 42 64
        E 0 8f 32 64
        E 0 92 4e 64
        E 0 93 42 5a
        E 0 9f 32 5a
        E 0 82 4e 64
        E 0 83 42 64
        E 0 8f 32 64
        E 0 92 47 64
        E 0 93 42 5a
        E 0 9f 32 5a
        E 0 82 47 64
        E 0 83 42 64
        E 0 8f 32 64
        E 0 92 47 64
        E 1 93 41 59
        E 0 9f 31 5a
        E 0 92 4a 64
        E 0 82 47 64
        E 0 92 49 64
        E 0 82 4a 64
        E 0 83 41 63
        E 0 8f 31 64
        E 0 92 47 64
        E 0 93 41 59
        E 0 9f 31 5a
        E 0 82 49 64
        E 0 82 47 64
        E 0 83 41 63
        E 0 8f 31 64
        E 0 92 41 63
        E 0 93 3d 5a
        E 0 9f 31 5a
        E 0 92 44 64
        E 0 82 41 63
        E 0 92 42 64
        E 0 82 44 64
        E 0 83 3d 64
        E 0 8f 31 64
        E 0 92 41 63
        E 0 93 3d 5a
        E 0 9f 31 5a
        E 0 82 42 64
        E 0 82 41 63
        E 0 83 3d 64
        E 0 8f 31 64
        E 0 92 45 64
        E 0 93 3d 5a
        E 0 9f 36 5a
        E 0 92 49 64
        E 0 82 45 64
        E 0 92 47 64
        E 0 82 49 64
        E 0 83 3d 64
        E 0 8f 36 64
        E 0 92 45 64
        E 0 93 3d 5a
        E 0 9f 36 5a
        E 0 82 47 64
        E 0 82 45 64
        E 0 83 3d 64
        E 0 8f 36 64
        E 0 92 42 64
        E 0 93 39 5a
        E 0 9f 36 5a
        E 0 92 45 64
        E 0 82 42 64
        E 0 92 44 64
        E 0 82 45 64
        E 0 83 39 64
        E 0 8f 36 64
        E 0 92 42 64
        E 0 93 39 5a
        E 0 9f 36 5a
        E 0 82 44 64
        E 0 82 42 64
        E 0 83 39 64
        E 0 8f 36 64
        E 0 92 48 63
        E 0 93 44 5a
        E 0 9f 36 5a
        E 0 82 48 63
        E 0 83 44 64
        E 0 8f 36 64
        E 0 92 48 63
        E 0 93 44 5a
        E 0 9f 36 5a
        E 0 82 48 63
        E 0 83 44 64
        E 0 8f 36 64
        E 0 92 50 64
        E 0 93 44 5a
        E 0 9f 36 5a
        E 0 82 50 64
        E 0 83 44 64
        E 0 8f 36 64
        E 0 92 48 63
        E 0 93 44 5a
        E 0 9f 36 5a
        E 0 82 48 63
        E 0 83 44 64
        E 0 8f 36 64
        E 0 92 49 64
        E 0 93 44 5a
        E 0 9f 35 59
        E 1 83 44 64
        E 0 8f 35 63
        E 0 93 44 5a
        E 0 9f 35 59
        E 0 82 49 64
        E 0 83 44 64
        E 0 8f 35 63
        E 0 92 4a 64
        E 0 93 44 5a
        E 0 9f 35 59
        E 0 83 44 64
        E 0 8f 35 63
        E 0 93 44 5a
        E 0 9f 35 59
        E 0 82 4a 64
        E 0 92 49 64
        E 0 82 49 64
        E 0 92 47 64
        E 38403 82 47 64
        E 0 83 44 64
        E 0 8f 35 63
        E 0 92 45 64
        E 0 93 3d 5a
        E 0 9f 36 5a
        E 0 83 3d 64
        E 0 8f 36 64
        E 0 93 3d 5a
        E 0 9f 36 5a
        E 0 82 45 64
        E 0 92 44 64
        E 0 82 44 64
        E 0 92 42 64
        E 0 82 42 64
        E 0 83 3d 64
        E 0 8f 36 64
        E 0 92 3d 64
        E 0 93 39 5a
        E 0 9f 2d 5a
        E 0 82 3d 64
        E 0 83 39 64
        E 0 8f 2d 64
        E 0 92 40 64
        E 0 93 36 5a
        E 1 9f 2e 5a
        E 0 82 40 64
        E 0 83 36 64
        E 0 8f 2e 64
        E 0 92 3e 64
        E 0 93 36 5a
        E 0 9f 2f 5a
        E 0 82 3e 64
        E 0 83 36 64
        E 0 8f 2f 64
        E 0 93 36 5a
        E 0 9f 2f 5a
        E 0 83 36 64
        E 0 8f 2f 64
        E 0 92 4a 64
        E 0 93 44 5a
        E 0 9f 35 59
        E 0 83 44 64
        E 0 8f 35 63
        E 0 93 44 5a
        E 0 9f 35 59
        E 0 82 4a 64
        E 0 92 49 64
        E 0 82 49 64
        E 0 92 47 64
        E 0 82 47 64
        E 0 83 44 64
        E 0 8f 35 63
        E 0 92 45 64
        E 0 93 3d 5a
        E 0 9f 36 5a
        E 0 83 3d 64
        E 0 8f 36 64
        E 0 93 3e 5a
        E 0 9f 2f 5a
        E 0 82 45 64
        E 0 92 44 64
        E 0 82 44 64
        E 0 92 42 64
        E 0 82 42 64
        E 0 83 3e 64
        E 0 8f 2f 64
        E 0 92 3d 64
        E 0 93 3d 5a
        E 0 9f 31 5a
        E 0 82 3d 64
        E 0 83 3d 64
        E 0 8f 31 64
        E 0 92 41 63
        E 0 93 3d 5a
        E 0 9f 25 5a
        E 0 82 41 63
        E 0 83 3d 64
        E 0 8f 25 64
        E 0 92 42 64
        E 0 93 39 5a
        E 0 9f 2a 5a
        E 0 82 42 64
        E 0 83 39 64
        E 0 8f 2a 64
        E 0 92 42 64
        E 0 93 3e 5a
        E 0 98 42 64
        E 0 9f 2f 5a
        E 0 82 42 64
        E 0 83 3e 64
        E 0 88 42 64
        E 0 8f 2f 64
        E 0 92 47 64
        E 0 93 3e 5a
        E 0 98 47 64
        E 0 9f 2f 5a
        E 0 82 47 64
        E 0 83 3e 64
        E 0 88 47 64
        E 0 8f 2f 64
        E 0 92 4f 64
        E 0 93 40 5a
        E 0 98 4f 64
        E 0 9f 2f 5a
        E 0 82 4f 64
        E 0 83 40 64
        E 0 88 4f 64
        E 0 8f 2f 64
        E 0 92 4e 64
        E 0 93 3e 5a
        E 1 98 4e 64
        E 0 9f 2f 5a
        E 0 82 4e 64
        E 0 83 3e 64
        E 0 88 4e 64
        E 0 8f 2f 64
        E 0 92 47 64
        E 0 93 3e 5a
        E 0 98 47 64
        E 0 9f 2f 5a
        E 0 82 47 64
        E 0 83 3e 64
        E 0 88 47 64
        E 0 8f 2f 64
        E 0 92 47 64
        E 0 93 3e 5a
        E 0 98 47 64
        E 0 9f 36 5a
        E 0 82 47 64
        E 0 88 47 64
        E 0 92 49 64
        E 0 98 49 64
        E 0 82 49 64
        E 0 88 49 64
        E 0 92 4a 64
        E 0 98 4a 64
        E 0 82 4a 64
        E 0 83 3e 64
        E 0 88 4a 64
        E 0 8f 36 64
        E 0 92 49 64
        E 0 93 46 5a
        E 0 98 49 64
        E 0 9f 36 5a
        E 0 83 46 64
        E 0 8f 36 64
        E 0 93 46 5a
        E 0 9f 36 5a
        E 0 83 46 64
        E 0 8f 36 64
        E 0 93 46 5a
        E 0 9f 36 5a
        E 0 82 49 64
        E 0 83 46 64
        E 0 88 49 64
        E 0 8f 36 64
        E 0 92 49 64
        E 0 93 46 5a
        E 0 98 49 64
        E 0 9f 36 5a
        E 0 82 49 64
        E 0 83 46 64
        E 0 88 49 64
        E 0 8f 36 64
        E 0 92 4a 64
        E 0 93 49 5a
        E 1 98 4a 64
        E 0 9f 36 5a
        E 0 82 4a 64
        E 0 88 4a 64
        E 0 92 4c 64
        E 0 98 4c 64
        E 0 82 4c 64
        E 0 83 49 64
        E 0 88 4c 64
        E 0 8f 36 64
        E 0 92 4a 64
        E 0 93 47 5a
        E 0 98 4a 64
        E 0 9f 36 5a
        E 0 82 4a 64
        E 0 83 47 64
        E 0 88 4a 64
        E 0 8f 36 64
        E 0 92 49 64
        E 0 93 46 5a
        E 0 98 49 64
        E 0 9f 36 5a
        E 0 82 49 64
        E 0 83 46 64
        E 0 88 49 64
        E 0 8f 36 64
        E 0 92 4a 64
        E 0 93 42 5a
        E 0 98 4a 64
        E 0 9f 2f 5a
        E 0 82 4a 64
        E 0 88 4a 64
        E 0 92 49 64
        E 0 98 49 64
        E 0 82 49 64
        E 0 88 49 64
        E 0 92 47 64
        E 0 98 47 64
        E 0 83 42 64
        E 0 8f 2f 64
        E 0 93 42 5a
        E 0 9f 2f 5a
        E 0 83 42 64
        E 0 8f 2f 64
        E 0 93 42 5a
        E 0 9f 2f 5a
        E 0 82 47 64
        E 0 88 47 64
        E 0 92 42 64
        E 0 98 42 64
        E 0 83 42 64
        E 0 8f 2f 64
        E 0 93 3e 5a
        E 0 9f 2f 5a
        E 0 82 42 64
        E 0 88 42 64
        E 0 83 3e 64
        E 0 8f 2f 64
        E 0 92 47 64
        E 0 93 3e 5a
        E 0 98 47 64
        E 0 9f 2f 5a
        E 0 82 47 64
        E 0 83 3e 64
        E 0 88 47 64
        E 0 8f 2f 64
        E 0 92 42 64
        E 0 93 3e 5a
        E 0 98 42 64
        E 0 9f 2f 5a
        E 0 82 42 64
        E 0 83 3e 64
        E 0 88 42 64
        E 0 8f 2f 64
        E 0 92 3b 64
        E 0 93 3e 5a
        E 0 98 3b 64
        E 0 9f 2f 5a
        E 0 82 3b 64
        E 0 83 3e 64
        E 0 88 3b 64
        E 0 8f 2f 64
        E 0 92 43 64
        E 0 93 40 5a
        E 0 98 43 64
        E 0 9f 2f 5a
        E 0 82 43 64
        E 0 83 40 64
        E 0 88 43 64
        E 0 8f 2f 64
        E 0 92 45 64
        E 0 92 43 64
        E 1 93 40 5a
        E 0 98 45 64
        E 0 98 43 64
        E 0 9f 2f 5a
        E 0 82 45 64
        E 0 82 43 64
        E 0 83 40 64
        E 0 88 45 64
        E 0 88 43 64
        E 0 8f 2f 64
        E 0 92 42 64
        E 0 93 3e 5a
        E 0 98 42 64
        E 0 9f 2f 5a
        E 0 83 3e 64
        E 0 8f 2f 64
        E 0 93 3e 5a
        E 0 9f 2f 5a
        E 0 82 42 64
        E 0 83 3e 64
        E 0 88 42 64
        E 0 8f 2f 64
        E 0 92 42 64
        E 0 93 3e 5a
        E 0 98 42 64
        E 0 9f 2f 5a
        E 0 82 42 64
        E 0 83 3e 64
        E 0 88 42 64
        E 0 8f 2f 64
        E 0 92 47 64
        E 0 93 3e 5a
        E 0 98 47 64
        E 0 9f 2f 5a
        E 0 82 47 64
        E 0 88 47 64
        E 0 92 42 64
        E 0 98 42 64
        E 0 82 42 64
        E 0 83 3e 64
        E 0 88 42 64
        E 0 8f 2f 64
        E 0 92 4a 64
        E 0 93 40 5a
        E 0 98 4a 64
        E 0 9f 31 5a
        E 0 82 4a 64
        E 0 88 4a 64
        E 0 92 47 64
        E 0 98 47 64
        E 0 82 47 64
        E 0 83 40 64
        E 0 88 47 64
        E 0 8f 31 64
        E 0 92 4e 64
        E 0 93 42 5a
        E 0 98 4e 64
        E 0 9f 32 5a
        E 0 82 4e 64
        E 0 83 42 64
        E 0 88 4e 64
        E 0 8f 32 64
        E 0 92 47 64
        E 0 93 43 5a
        E 0 98 47 64
        E 0 9f 34 5a
        E 0 82 47 64
        E 0 83 43 64
        E 1 88 47 64
        E 0 8f 34 64
        E 0 92 42 64
        E 0 93 3d 5a
        E 0 98 42 64
        E 0 9f 36 5a
        E 0 83 3d 64
        E 0 8f 36 64
        E 0 93 3d 5a
        E 0 9f 34 5a
        E 0 82 42 64
        E 0 83 3d 64
        E 0 88 42 64
        E 0 8f 34 64
        E 0 93 42 5a
        E 0 9f 33 5a
        E 0 83 42 64
        E 0 8f 33 64
        E 0 93 42 5a
        E 0 9f 31 5a
        E 0 92 4e 64
        E 0 98 4e 64
        E 0 82 4e 64
        E 0 83 42 64
        E 0 88 4e 64
        E 0 8f 31 64
        E 0 92 4c 64
        E 0 93 42 5a
        E 0 98 4c 64
        E 0 9f 2f 5a
        E 0 82 4c 64
        E 0 83 42 64
        E 0 88 4c 64
        E 0 8f 2f 64
        E 0 92 4b 64
        E 0 93 42 5a
        E 0 98 4b 64
        E 0 9f 2f 5a
        E 0 82 4b 64
        E 0 88 4b 64
        E 0 92 4e 64
        E 0 98 4e 64
        E 0 82 4e 64
        E 0 83 42 64
        E 0 88 4e 64
        E 0 8f 2f 64
        E 0 92 48 64
        E 0 93 42 5a
        E 0 98 48 64
        E 0 9f 33 5a
        E 0 82 48 64
        E 0 83 42 64
        E 0 88 48 64
        E 0 8f 33 64
        E 0 92 47 64
        E 0 93 42 5a
        E 0 98 47 64
        E 0 9f 33 5a
        E 0 82 47 64
        E 0 88 47 64
        E 0 92 45 64
        E 0 98 45 64
        E 0 82 45 64
        E 0 83 42 64
        E 0 88 45 64
        E 0 8f 33 64
        E 0 92 43 64
        E 0 93 3b 5a
        E 0 98 43 64
        E 0 9f 34 5a
        E 0 88 43 64
        E 0 98 42 64
        E 0 92 47 64
        E 0 82 43 64
        E 0 88 42 64
        E 0 98 40 64
        E 0 92 45 64
        E 0 82 47 64
        E 0 83 3b 64
        E 0 88 40 64
        E 0 8f 34 64
        E 0 92 43 64
        E 0 93 3b 5a
        E 1 9f 34 5a
        E 0 82 45 64
        E 38403 92 42 64
        E 1 82 43 64
        E 1 92 40 64
        E 0 82 42 64
        E 0 83 3b 64
        E 0 8f 34 64
        E 0 92 3b 64
        E 1 93 37 5a
        E 0 9f 34 5a
        E 0 82 40 64
        E 0 82 3b 64
        E 0 83 37 64
        E 0 8f 34 64
        E 0 93 43 5a
        E 0 9f 34 5a
        E 0 92 4c 64
        E 0 98 4c 64
        E 0 82 4c 64
        E 0 83 43 64
        E 0 88 4c 64
        E 0 8f 34 64
        E 0 92 4a 64
        E 0 93 40 5a
        E 0 98 4a 64
        E 0 9f 2d 5a
        E 0 82 4a 64
        E 0 83 40 64
        E 0 88 4a 64
        E 0 8f 2d 64
        E 0 92 49 64
        E 0 93 40 5a
        E 0 98 49 64
        E 0 9f 2d 5a
        E 0 82 49 64
        E 0 88 49 64
        E 0 92 4c 64
        E 0 98 4c 64
        E 0 82 4c 64
        E 0 83 40 64
        E 0 88 4c 64
        E 0 8f 2d 64
        E 0 92 47 64
        E 0 93 40 5a
        E 0 98 47 64
        E 0 9f 31 5a
        E 0 82 47 64
        E 0 83 40 64
        E 0 88 47 64
        E 0 8f 31 64
        E 0 92 45 64
        E 0 93 40 5a
        E 0 98 45 64
        E 0 9f 31 5a
        E 0 82 45 64
        E 1 88 45 64
        E 0 92 43 64
        E 0 98 43 64
        E 0 82 43 64
        E 0 83 40 64
        E 0 88 43 64
        E 0 8f 31 64
        E 0 92 42 64
        E 0 93 39 5a
        E 0 98 42 64
        E 0 9f 32 5a
        E 0 88 42 64
        E 0 98 40 64
        E 0 92 45 64
        E 0 82 42 64
        E 0 88 40 64
        E 0 98 3e 64
        E 0 92 43 64
        E 0 82 45 64
        E 0 83 39 64
        E 0 88 3e 64
        E 0 8f 32 64
        E 0 92 42 64
        E 0 93 39 5a
        E 0 9f 32 5a
        E 0 82 43 64
        E 0 92 40 64
        E 0 82 42 64
        E 0 92 3e 64
        E 0 82 40 64
        E 0 83 39 64
        E 0 8f 32 64
        E 0 92 39 64
        E 0 93 39 5a
        E 0 9f 32 5a
        E 0 82 3e 64
        E 0 82 39 64
        E 0 83 39 64
        E 0 8f 32 64
        E 0 92 42 64
        E 0 93 42 5a
        E 0 9f 32 5a
        E 0 98 42 64
        E 0 82 42 64
        E 0 83 42 64
        E 0 88 42 64
        E 0 8f 32 64
        E 0 92 47 64
        E 0 93 42 5a
        E 0 98 47 64
        E 0 9f 32 5a
        E 0 82 47 64
        E 0 83 42 64
        E 0 88 47 64
        E 0 8f 32 64
        E 0 92 47 64
        E 0 93 42 5a
        E 0 98 47 64
        E 0 9f 32 5a
        E 0 82 47 64
        E 0 83 42 64
        E 0 88 47 64
        E 0 8f 32 64
        E 0 92 4e 64
        E 0 93 42 5a
        E 0 98 4e 64
        E 0 9f 32 5a
        E 0 82 4e 64
        E 0 83 42 64
        E 0 88 4e 64
        E 0 8f 32 64
        E 0 92 47 64
        E 0 93 42 5a
        E 0 98 47 64
        E 0 9f 32 5a
        E 0 82 47 64
        E 0 83 42 64
        E 0 88 47 64
        E 0 8f 32 64
        E 0 92 47 64
        E 0 93 41 59
        E 0 98 47 64
        E 1 9f 31 5a
        E 0 92 4a 64
        E 0 98 4a 64
        E 0 82 47 64
        E 0 88 47 64
        E 0 92 49 64
        E 0 98 49 64
        E 0 82 4a 64
        E 0 88 4a 64
        E 0 83 41 63
        E 0 8f 31 64
        E 0 92 47 64
        E 0 93 41 59
        E 0 98 47 64
        E 0 9f 31 5a
        E 0 82 49 64
        E 0 88 49 64
        E 0 82 47 64
        E 0 88 47 64
        E 0 83 41 63
        E 0 8f 31 64
        E 0 92 41 63
        E 0 93 3d 5a
        E 0 98 41 63
        E 0 9f 31 5a
        E 0 92 44 64
        E 0 98 44 64
        E 0 82 41 63
        E 0 88 41 63
        E 0 92 42 64
        E 0 98 42 64
        E 0 82 44 64
        E 0 88 44 64
        E 0 83 3d 64
        E 0 8f 31 64
        E 0 92 41 63
        E 0 93 3d 5a
        E 0 98 41 63
        E 0 9f 31 5a
        E 0 82 42 64
        E 0 88 42 64
        E 0 82 41 63
        E 0 88 41 63
        E 0 83 3d 64
        E 0 8f 31 64
        E 0 92 45 64
        E 0 93 3d 5a
        E 0 98 45 64
        E 0 9f 36 5a
        E 0 92 49 64
        E 1 98 49 64
        E 0 82 45 64
        E 0 88 45 64
        E 0 92 47 64
        E 0 98 47 64
        E 0 82 49 64
        E 0 88 49 64
        E 0 83 3d 64
        E 0 8f 36 64
        E 0 92 45 64
        E 0 93 3d 5a
        E 0 98 45 64
        E 0 9f 36 5a
        E 0 82 47 64
        E 0 88 47 64
        E 0 82 45 64
        E 0 88 45 64
        E 0 83 3d 64
        E 0 8f 36 64
        E 0 92 42 64
        E 0 93 39 5a
        E 0 98 42 64
        E 0 9f 36 5a
        E 0 92 45 64
        E 0 98 45 64
        E 0 82 42 64
        E 0 88 42 64
        E 0 92 44 64
        E 0 98 44 64
        E 0 82 45 64
        E 0 88 45 64
        E 0 83 39 64
        E 0 8f 36 64
        E 0 92 42 64
        E 0 93 39 5a
        E 0 98 42 64
        E 0 9f 36 5a
        E 0 82 44 64
        E 0 88 44 64
        E 0 82 42 64
        E 0 88 42 64
        E 0 83 39 64
        E 0 8f 36 64
        E 0 92 48 63
        E 0 93 44 5a
        E 0 98 48 63
        E 0 9f 36 5a
        E 0 82 48 63
        E 0 83 44 64
        E 0 88 48 63
        E 0 8f 36 64
        E 0 92 48 63
        E 0 93 44 5a
        E 0 98 48 63
        E 0 9f 36 5a
        E 1 82 48 63
        E 0 83 44 64
        E 0 88 48 63
        E 0 8f 36 64
        E 0 92 50 64
        E 0 93 44 5a
        E 0 98 50 64
        E 0 9f 36 5a
        E 0 82 50 64
        E 0 83 44 64
        E 0 88 50 64
        E 0 8f 36 64
        E 0 92 48 63
        E 0 93 44 5a
        E 0 98 48 63
        E 0 9f 36 5a
        E 0 82 48 63
        E 0 83 44 64
        E 0 88 48 63
        E 0 8f 36 64
        E 0 92 49 64
        E 0 93 44 5a
        E 0 98 49 64
        E 0 9f 35 59
        E 0 83 44 64
        E 0 8f 35 63
        E 0 93 44 5a
        E 0 9f 35 59
        E 0 82 49 64
        E 0 83 44 64
        E 0 88 49 64
        E 0 8f 35 63
        E 0 92 4a 64
        E 0 93 44 5a
        E 0 98 4a 64
        E 0 9f 35 59
        E 0 83 44 64
        E 0 8f 35 63
        E 0 93 44 5a
        E 0 9f 35 59
        E 0 82 4a 64
        E 0 88 4a 64
        E 0 92 49 64
        E 0 98 49 64
        E 0 82 49 64
        E 0 88 49 64
        E 0 92 47 64
        E 0 98 47 64
        E 0 82 47 64
        E 0 83 44 64
        E 0 88 47 64
        E 0 8f 35 63
        E 0 92 45 64
        E 0 93 3d 5a
        E 0 98 45 64
        E 0 9f 36 5a
        E 0 83 3d 64
        E 0 8f 36 64
        E 0 93 3d 5a
        E 0 9f 36 5a
        E 0 82 45 64
        E 0 88 45 64
        E 0 92 44 64
        E 0 98 44 64
        E 0 82 44 64
        E 0 88 44 64
        E 0 92 42 64
        E 1 98 42 64
        E 0 82 42 64
        E 0 83 3d 64
        E 0 88 42 64
        E 0 8f 36 64
        E 0 92 3d 64
        E 0 93 39 5a
        E 0 98 3d 64
        E 0 9f 2d 5a
        E 0 82 3d 64
        E 0 83 39 64
        E 0 88 3d 64
        E 0 8f 2d 64
        E 0 92 40 64
        E 0 93 36 5a
        E 0 98 40 64
        E 0 9f 2e 5a
        E 0 82 40 64
        E 0 83 36 64
        E 0 88 40 64
        E 0 8f 2e 64
        E 0 92 3e 64
        E 0 93 36 5a
        E 0 98 3e 64
        E 0 9f 2f 5a
        E 0 82 3e 64
        E 0 83 36 64
        E 0 88 3e 64
        E 0 8f 2f 64
        E 0 93 36 5a
        E 0 9f 2f 5a
        E 0 83 36 64
        E 0 8f 2f 64
        E 0 92 4a 64
        E 0 93 44 5a
        E 0 98 4a 64
        E 0 9f 35 5a
        E 0 83 44 64
        E 0 8f 35 64
        E 0 93 44 5a
        E 0 9f 35 5a
        E 0 82 4a 64
        E 0 88 4a 64
        E 0 92 49 64
        E 0 98 49 64
        E 0 82 49 64
        E 0 88 49 64
        E 0 92 47 64
        E 0 98 47 64
        E 0 82 47 64
        E 0 83 44 64
        E 0 88 47 64
        E 0 8f 35 64
        E 0 92 45 64
        E 0 93 3d 5a
        E 0 98 45 64
        E 0 9f 36 5a
        E 0 83 3d 64
        E 0 8f 36 64
        E 0 93 3e 5a
        E 0 9f 2f 5a
        E 0 82 45 64
        E 0 88 45 64
        E 0 92 44 64
        E 0 98 44 64
        E 0 82 44 64
        E 0 88 44 64
        E 0 92 42 64
        E 0 98 42 64
        E 0 82 42 64
        E 0 83 3e 64
        E 0 88 42 64
        E 0 8f 2f 64
        E 0 92 3d 64
        E 0 93 3d 5a
        E 0 98 3d 64
        E 0 9f 31 5a
        E 0 82 3d 64
        E 0 83 3d 64
        E 0 88 3d 64
        E 0 8f 31 64
        E 0 92 41 63
        E 0 93 3d 5a
        E 0 98 41 63
        E 0 9f 25 5a
        E 0 82 41 63
        E 0 83 3d 64
        E 0 88 41 63
        E 0 8f 25 64
        E 0 92 42 64
        E 0 93 39 5a
        E 0 98 42 64
        E 0 9f 36 5a
        E 0 82 42 64
        E 0 83 39 64
        E 0 88 42 64
        E 0 8f 36 64
        E 0 92 42 64
        E 0 93 3e 5a
        E 0 9f 2f 5a
        E 0 82 42 64
        E 0 83 3e 64
        E 0 8f 2f 64
        E 0 92 47 64
        E 0 93 3e 5a
        E 0 9f 2f 5a
        E 0 82 47 64
        E 0 83 3e 64
        E 0 8f 2f 64
        E 0 92 4f 64
        E 1 93 40 5a
        E 0 9f 2f 5a
        E 0 82 4f 64
        E 0 83 40 64
        E 0 8f 2f 64
        E 0 92 4e 64
        E 0 93 3e 5a
        E 0 9f 2f 5a
        E 0 82 4e 64
        E 0 83 3e 64
        E 0 8f 2f 64
        E 0 92 47 64
        E 0 93 3e 5a
        E 0 9f 2f 5a
        E 0 82 47 64
        E 0 83 3e 64
        E 0 8f 2f 64
        E 0 92 47 64
        E 0 93 3e 5a
        E 0 9f 36 5a
        E 0 82 47 64
        E 0 92 49 64
        E 0 82 49 64
        E 0 92 4a 64
        E 0 82 4a 64
        E 0 83 3e 64
        E 0 8f 36 64
        E 0 92 49 64
        E 0 93 46 5a
        E 0 9f 36 5a
        E 0 83 46 64
        E 0 8f 36 64
        E 0 93 46 5a
        E 0 9f 36 5a
        E 38403 83 46 64
        E 0 8f 36 64
        E 0 93 46 5a
        E 0 9f 36 5a
        E 0 82 49 64
        E 0 83 46 64
        E 0 8f 36 64
        E 0 92 49 64
        E 0 93 46 5a
        E 0 9f 36 5a
        E 0 82 49 64
        E 0 83 46 64
        E 0 8f 36 64
        E 0 92 4a 64
        E 0 93 49 5a
        E 0 9f 36 5a
        E 0 82 4a 64
        E 0 92 4c 64
        E 0 82 4c 64
        E 0 83 49 64
        E 0 8f 36 64
        E 0 92 4a 64
        E 0 93 47 5a
        E 0 9f 36 5a
        E 0 82 4a 64
        E 0 83 47 64
        E 0 8f 36 64
        E 0 92 49 64
        E 0 93 46 5a
        E 0 9f 36 5a
        E 0 82 49 64
        E 0 83 46 64
        E 0 8f 36 64
        E 0 92 4a 64
        E 0 93 42 5a
        E 0 9f 2f 5a
        E 0 82 4a 64
        E 1 92 49 64
        E 0 82 49 64
        E 0 92 47 64
        E 0 83 42 64
        E 0 8f 2f 64
        E 0 93 42 5a
        E 0 9f 2f 5a
        E 0 83 42 64
        E 0 8f 2f 64
        E 0 93 42 5a
        E 0 9f 2f 5a
        E 0 82 47 64
        E 0 92 42 64
        E 0 83 42 64
        E 0 8f 2f 64
        E 0 93 3e 5a
        E 0 98 42 64
        E 0 9f 2f 5a
        E 0 82 42 64
        E 0 83 3e 64
        E 0 88 42 64
        E 0 8f 2f 64
        E 0 92 47 64
        E 0 93 3e 5a
        E 0 98 47 64
        E 0 9f 2f 5a
        E 0 82 47 64
        E 0 83 3e 64
        E 0 88 47 64
        E 0 8f 2f 64
        E 0 92 4f 64
        E 0 93 40 5a
        E 0 98 4f 64
        E 0 9f 2f 5a
        E 0 82 4f 64
        E 0 83 40 64
        E 0 88 4f 64
        E 0 8f 2f 64
        E 0 92 4e 64
        E 0 93 3e 5a
        E 0 98 4e 64
        E 0 9f 2f 5a
        E 0 82 4e 64
        E 0 83 3e 64
        E 0 88 4e 64
        E 0 8f 2f 64
        E 0 92 47 64
        E 0 93 3e 5a
        E 0 98 47 64
        E 0 9f 2f 5a
        E 0 82 47 64
        E 0 83 3e 64
        E 0 88 47 64
        E 0 8f 2f 64
        E 0 92 47 64
        E 0 93 3e 5a
        E 0 98 47 64
        E 0 9f 36 5a
        E 0 82 47 64
        E 0 88 47 64
        E 0 92 49 64
        E 1 98 49 64
        E 0 82 49 64
        E 0 88 49 64
        E 0 92 4a 64
        E 0 98 4a 64
        E 0 82 4a 64
        E 0 83 3e 64
        E 0 88 4a 64
        E 0 8f 36 64
        E 0 92 49 64
        E 0 93 46 5a
        E 0 98 49 64
        E 0 9f 36 5a
        E 0 83 46 64
        E 0 8f 36 64
        E 0 93 46 5a
        E 0 9f 36 5a
        E 0 83 46 64
        E 0 8f 36 64
        E 0 93 46 5a
        E 0 9f 36 5a
        E 0 82 49 64
        E 0 83 46 64
        E 0 88 49 64
        E 0 8f 36 64
        E 0 92 49 64
        E 0 93 46 5a
        E 0 98 49 64
        E 0 9f 36 5a
        E 0 82 49 64
        E 0 83 46 64
        E 0 88 49 64
        E 0 8f 36 64
        E 0 92 4a 64
        E 0 93 49 5a
        E 0 98 4a 64
        E 0 9f 36 5a
        E 0 82 4a 64
        E 0 88 4a 64
        E 0 92 4c 64
        E 0 98 4c 64
        E 0 82 4c 64
        E 0 83 49 64
        E 0 88 4c 64
        E 0 8f 36 64
        E 0 92 4a 64
        E 0 93 47 5a
        E 0 98 4a 64
        E 0 9f 36 5a
        E 0 82 4a 64
        E 0 83 47 64
        E 0 88 4a 64
        E 0 8f 36 64
        E 0 92 49 64
        E 0 93 46 5a
        E 0 98 49 64
        E 0 9f 36 5a
        E 0 82 49 64
        E 0 83 46 64
        E 0 88 49 64
        E 0 8f 36 64
        E 0 92 4a 64
        E 1 93 42 5a
        E 0 98 4a 64
        E 0 9f 2f 5a
        E 0 82 4a 64
        E 0 88 4a 64
        E 0 92 49 64
        E 0 98 49 64
        E 0 82 49 64
        E 0 88 49 64
        E 0 92 47 64
        E 0 98 47 64
        E 0 82 47 64
        E 0 83 42 64
        E 0 88 47 64
        E 0 8f 2f 64
        E 0 92 47 64
        E 0 93 42 5a
        E 0 98 47 64
        E 0 9f 2f 5a
        E 0 82 47 64
        E 0 83 42 64
        E 0 88 47 64
        E 0 8f 2f 64
        E 0 92 48 64
        E 0 93 42 5a
        E 0 98 48 64
        E 0 9f 33 5a
        E 0 83 42 64
        E 0 8f 33 64
        E 0 93 42 5a
        E 0 9f 33 5a
        E 0 82 48 64
        E 0 83 42 64
        E 0 88 48 64
        E 0 8f 33 64
        E 0 92 48 64
        E 0 93 42 5a
        E 0 98 48 64
        E 0 9f 33 5a
        E 0 82 48 64
        E 0 83 42 64
        E 0 88 48 64
        E 0 8f 33 64
        E 0 92 47 64
        E 0 93 42 5a
        E 0 98 47 64
        E 0 9f 33 5a
        E 0 82 47 64
        E 0 88 47 64
        E 0 92 45 64
        E 0 98 45 64
        E 0 82 45 64
        E 0 83 42 64
        E 0 88 45 64
        E 0 8f 33 64
        E 0 92 43 64
        E 0 93 42 5a
        E 0 98 43 64
        E 0 9f 33 5a
        E 0 82 43 64
        E 0 83 42 64
        E 0 88 43 64
        E 0 8f 33 64
        E 0 92 42 64
        E 0 93 3f 5a
        E 0 98 42 64
        E 0 9f 33 5a
        E 0 82 42 64
        E 0 83 3f 64
        E 0 88 42 64
        E 0 8f 33 64
        E 0 92 43 64
        E 0 93 3b 5a
        E 0 98 43 64
        E 0 9f 34 5a
        E 0 82 43 64
        E 0 88 43 64
        E 0 92 42 64
        E 0 98 42 64
        E 0 82 42 64
        E 0 88 42 64
        E 0 92 40 64
        E 0 98 40 64
        E 0 82 40 64
        E 0 83 3b 64
        E 0 88 40 64
        E 0 8f 34 64
        E 0 92 40 64
        E 0 93 3b 5a
        E 0 98 40 64
        E 0 9f 34 5a
        E 0 82 40 64
        E 0 83 3b 64
        E 0 88 40 64
        E 0 8f 34 64
        E 0 92 4f 64
        E 0 93 3d 5a
        E 0 98 4f 64
        E 0 9f 2e 5a
        E 0 83 3d 64
        E 0 8f 2e 64
        E 0 93 3d 5a
        E 0 9f 2e 5a
        E 0 82 4f 64
        E 0 83 3d 64
        E 0 88 4f 64
        E 0 8f 2e 64
        E 0 92 4f 64
        E 1 93 3d 5a
        E 0 98 4f 64
        E 0 9f 2e 5a
        E 0 82 4f 64
        E 0 83 3d 64
        E 0 88 4f 64
        E 0 8f 2e 64
        E 0 92 4e 64
        E 0 93 3d 5a
        E 0 98 4e 64
        E 0 9f 2e 5a
        E 0 82 4e 64
        E 0 88 4e 64
        E 0 92 4c 64
        E 0 98 4c 64
        E 0 82 4c 64
        E 0 83 3d 64
        E 0 88 4c 64
        E 0 8f 2e 64
        E 0 92 4a 64
        E 0 93 3d 5a
        E 0 98 4a 64
        E 0 9f 2e 5a
        E 0 82 4a 64
        E 0 83 3d 64
        E 0 88 4a 64
        E 0 8f 2e 64
        E 0 92 49 64
        E 0 93 3d 5a
        E 0 98 49 64
        E 0 9f 2e 5a
        E 0 82 49 64
        E 0 83 3d 64
        E 0 88 49 64
        E 0 8f 2e 64
        E 0 92 4a 64
        E 0 93 42 5a
        E 0 98 4a 64
        E 0 9f 2f 5a
        E 0 82 4a 64
        E 0 88 4a 64
        E 0 92 49 64
        E 0 98 49 64
        E 0 82 49 64
        E 0 88 49 64
        E 0 92 47 64
        E 0 98 47 64
        E 0 82 47 64
        E 0 83 42 64
        E 0 88 47 64
        E 0 8f 2f 64
        E 0 92 47 64
        E 0 93 42 5a
        E 0 98 47 64
        E 0 9f 2f 5a
        E 0 83 42 64
        E 0 8f 2f 64
        E 0 93 42 5a
        E 0 9f 2f 5a
        E 0 82 47 64
        E 0 83 42 64
        E 0 88 47 64
        E 0 8f 2f 64
        E 0 92 47 64
        E 0 93 42 5a
        E 0 98 47 64
        E 0 9f 2f 5a
        E 0 82 47 64
        E 0 83 42 64
        E 0 88 47 64
        E 0 8f 2f 64
        E 0 92 4e 64
        E 0 93 3e 5a
        E 0 98 4e 64
        E 0 9f 2f 5a
        E 0 82 4e 64
        E 0 88 4e 64
        E 0 92 4a 64
        E 0 98 4a 64
        E 0 82 4a 64
        E 0 83 3e 64
        E 0 88 4a 64
        E 0 8f 2f 64
        E 0 92 49 64
        E 0 93 3e 5a
        E 0 98 49 64
        E 1 9f 2f 5a
        E 0 82 49 64
        E 0 88 49 64
        E 0 92 47 64
        E 0 98 47 64
        E 0 82 47 64
        E 0 83 3e 64
        E 0 88 47 64
        E 0 8f 2f 64
        E 0 92 4e 64
        E 0 93 40 5a
        E 0 98 4e 64
        E 0 9f 31 5a
        E 0 82 4e 64
        E 0 88 4e 64
        E 0 92 4a 64
        E 0 98 4a 64
        E 0 82 4a 64
        E 0 83 40 64
        E 0 88 4a 64
        E 0 8f 31 64
        E 0 92 49 64
        E 0 93 42 5a
        E 0 98 49 64
        E 0 9f 32 5a
        E 0 82 49 64
        E 0 88 49 64
        E 0 92 47 64
        E 0 98 47 64
        E 0 82 47 64
        E 0 83 42 64
        E 0 88 47 64
        E 0 8f 32 64
        E 0 92 40 64
        E 0 93 3b 5a
        E 0 98 40 64
        E 0 9f 34 5a
        E 0 92 43 64
        E 0 98 43 64
        E 0 82 40 64
        E 0 88 40 64
        E 0 92 42 64
        E 0 98 42 64
        E 0 82 43 64
        E 0 88 43 64
        E 0 83 3b 64
        E 0 8f 34 64
        E 0 92 40 64
        E 0 93 3b 5a
        E 0 98 40 64
        E 0 9f 34 5a
        E 0 82 42 64
        E 0 88 42 64
        E 0 82 40 64
        E 0 88 40 64
        E 0 83 3b 64
        E 0 8f 34 64
        E 0 92 43 64
        E 0 93 3b 5a
        E 0 98 43 64
        E 0 9f 34 5a
        E 0 92 47 64
        E 0 98 47 64
        E 0 82 43 64
        E 0 88 43 64
        E 0 92 45 64
        E 0 98 45 64
        E 0 82 47 64
        E 0 88 47 64
        E 0 83 3b 64
        E 0 8f 34 64
        E 0 92 43 64
        E 0 93 3b 5a
        E 1 98 43 64
        E 0 9f 34 5a
        E 0 82 45 64
        E 0 88 45 64
        E 0 82 43 64
        E 0 88 43 64
        E 0 83 3b 64
        E 0 8f 34 64
        E 0 92 4c 64
        E 0 93 3b 5a
        E 0 98 4c 64
        E 0 9f 37 5a
        E 0 92 4f 64
        E 0 98 4f 64
        E 0 82 4c 64
        E 0 88 4c 64
        E 0 92 4e 64
        E 0 98 4e 64
        E 0 82 4f 64
        E 0 88 4f 64
        E 0 83 3b 64
        E 0 8f 37 64
        E 0 92 4c 64
        E 0 93 3b 5a
        E 0 98 4c 64
        E 0 9f 37 5a
        E 0 82 4e 64
        E 0 88 4e 64
        E 0 82 4c 64
        E 0 88 4c 64
        E 0 83 3b 64
        E 0 8f 37 64
        E 0 92 49 64
        E 0 93 42 5a
        E 0 98 49 64
        E 0 9f 2e 5a
        E 0 92 4c 64
        E 0 98 4c 64
        E 0 82 49 64
        E 0 88 49 64
        E 0 92 4a 64
        E 0 98 4a 64
        E 0 82 4c 64
        E 0 88 4c 64
        E 0 83 42 64
        E 0 8f 2e 64
        E 0 92 49 64
        E 0 93 42 5a
        E 0 98 49 64
        E 0 9f 2e 5a
        E 0 82 4a 64
        E 0 88 4a 64
        E 0 82 49 64
        E 0 88 49 64
        E 38403 83 42 64
        E 0 8f 2e 64
        E 0 92 42 64
        E 1 93 3d 5a
        E 0 98 42 64
        E 0 9f 2e 5a
        E 0 92 46 64
        E 0 98 46 64
        E 0 82 42 64
        E 0 88 42 64
        E 0 92 44 64
        E 0 98 44 64
        E 0 82 46 64
        E 0 88 46 64
        E 0 83 3d 64
        E 0 8f 2e 64
        E 0 92 42 64
        E 0 93 3d 5a
        E 0 98 42 64
        E 0 9f 2e 5a
        E 0 82 44 64
        E 0 88 44 64
        E 0 82 42 64
        E 0 88 42 64
        E 0 83 3d 64
        E 0 8f 2e 64
        E 0 92 49 64
        E 0 93 3a 5a
        E 0 98 49 64
        E 0 9f 2e 5a
        E 0 92 4c 64
        E 0 98 4c 64
        E 0 82 49 64
        E 0 88 49 64
        E 0 92 4a 64
        E 0 98 4a 64
        E 0 82 4c 64
        E 0 88 4c 64
        E 0 83 3a 64
        E 0 8f 2e 64
        E 0 92 49 64
        E 0 93 3a 5a
        E 0 98 49 64
        E 0 9f 2e 5a
        E 0 82 4a 64
        E 0 88 4a 64
        E 0 82 49 64
        E 0 88 49 64
        E 0 83 3a 64
        E 0 8f 2e 64
        E 0 92 4a 64
        E 0 93 42 5a
        E 1 98 4a 64
        E 0 9f 2f 5a
        E 0 92 4e 64
        E 0 98 4e 64
        E 0 82 4a 64
        E 0 88 4a 64
        E 0 92 4c 64
        E 0 98 4c 64
        E 0 82 4e 64
        E 0 88 4e 64
        E 0 83 42 64
        E 0 8f 2f 64
        E 0 92 4a 64
        E 0 93 42 5a
        E 0 98 4a 64
        E 0 9f 2f 5a
        E 0 82 4c 64
        E 0 88 4c 64
        E 0 92 49 64
        E 0 98 49 64
        E 0 82 4a 64
        E 0 88 4a 64
        E 0 92 47 64
        E 0 98 47 64
        E 0 82 49 64
        E 0 88 49 64
        E 0 83 42 64
        E 0 8f 2f 64
        E 0 92 47 64
        E 0 93 42 5a
        E 0 98 47 64
        E 0 9f 2f 5a
        E 0 82 47 64
        E 0 88 47 64
        E 1 82 47 64
        E 0 83 42 64
        E 0 88 47 64
        E 0 8f 2f 64
        E 0 93 42 5a
        E 0 9f 2f 5a
        E 0 83 42 64
        E 0 8f 2f 64
        E 0 92 47 64
        E 0 93 3e 5a
        E 0 98 47 64
        E 0 9f 2f 5a
        E 0 82 47 64
        E 0 88 47 64
        E 0 92 4a 64
        E 0 98 4a 64
        E 0 82 4a 64
        E 0 83 3e 64
        E 0 88 4a 64
        E 0 8f 2f 64
        E 0 92 49 64
        E 0 93 3e 5a
        E 0 98 49 64
        E 0 9f 2f 5a
        E 0 82 49 64
        E 0 88 49 64
        E 0 92 47 64
        E 0 98 47 64
        E 0 82 47 64
        E 0 83 3e 64
        E 0 88 47 64
        E 0 8f 2f 64
        E 0 92 42 64
        E 0 93 3e 5a
        E 0 98 42 64
        E 0 9f 2f 5a
        E 0 82 42 64
        E 0 83 3e 64
        E 0 88 42 64
        E 0 8f 2f 64
        E 0 92 42 64
        E 0 93 3e 5a
        E 0 98 42 64
        E 0 9f 2f 5a
        E 0 82 42 64
        E 0 83 3e 64
        E 0 88 42 64
        E 0 8f 2f 64
        E 0 92 45 64
        E 0 92 43 64
        E 0 93 40 5a
        E 0 98 45 64
        E 0 98 43 64
        E 0 9f 2f 5a
        E 0 82 45 64
        E 0 82 43 64
        E 1 83 40 64
        E 0 88 45 64
        E 0 88 43 64
        E 0 8f 2f 64
        E 0 92 42 64
        E 0 93 3e 5a
        E 0 98 42 64
        E 0 9f 2f 5a
        E 0 83 3e 64
        E 0 8f 2f 64
        E 0 93 3e 5a
        E 0 9f 2f 5a
        E 0 82 42 64
        E 0 83 3e 64
        E 0 88 42 64
        E 0 8f 2f 64
        E 0 92 42 64
        E 0 93 3e 5a
        E 0 98 42 64
        E 0 9f 2f 5a
        E 0 82 42 64
        E 0 83 3e 64
        E 0 88 42 64
        E 0 8f 2f 64
        E 0 92 47 64
        E 0 93 3e 5a
        E 0 98 47 64
        E 0 9f 2f 5a
        E 0 82 47 64
        E 0 88 47 64
        E 0 92 4a 64
        E 0 98 4a 64
        E 0 82 4a 64
        E 0 83 3e 64
        E 0 88 4a 64
        E 0 8f 2f 64
        E 0 92 49 64
        E 0 93 3e 5a
        E 0 98 49 64
        E 0 9f 2f 5a
        E 0 82 49 64
        E 0 88 49 64
        E 0 92 47 64
        E 0 98 47 64
        E 0 82 47 64
        E 0 83 3e 64
        E 0 88 47 64
        E 0 8f 2f 64
        E 0 92 42 64
        E 0 93 3e 5a
        E 0 98 42 64
        E 0 9f 2f 5a
        E 0 82 42 64
        E 0 83 3e 64
        E 0 88 42 64
        E 0 8f 2f 64
        E 0 92 42 64
        E 0 93 3e 5a
        E 0 98 42 64
        E 1 9f 2f 5a
        E 0 82 42 64
        E 0 83 3e 64
        E 0 88 42 64
        E 0 8f 2f 64
        E 0 92 45 64
        E 0 92 43 64
        E 0 93 40 5a
        E 0 98 45 64
        E 0 98 43 64
        E 0 9f 2f 5a
        E 0 82 45 64
        E 0 82 43 64
        E 0 83 40 64
        E 0 88 45 64
        E 0 88 43 64
        E 0 8f 2f 64
        E 0 92 42 64
        E 0 93 3e 5a
        E 0 98 42 64
        E 0 9f 2f 5a
        E 0 83 3e 64
        E 0 8f 2f 64
        E 0 93 3e 5a
        E 0 9f 2f 5a
        E 0 82 42 64
        E 0 83 3e 64
        E 0 88 42 64
        E 0 8f 2f 64
        E 0 92 47 64
        E 0 93 3e 5a
        E 0 98 47 64
        E 0 9f 2f 5a
        E 0 82 47 64
        E 0 83 3e 64
        E 0 88 47 64
        E 0 8f 2f 64
        E 0 92 48 64
        E 0 93 43 5a
        E 0 98 48 64
        E 0 9f 34 5a
        E 0 82 48 64
        E 0 83 43 64
        E 0 88 48 64
        E 0 8f 34 64
        E 0 92 48 64
        E 1 93 43 5a
        E 0 98 48 64
        E 0 9f 34 5a
        E 0 82 48 64
        E 0 83 43 64
        E 0 88 48 64
        E 0 8f 34 64
        E 0 92 48 64
        E 0 93 43 5a
        E 0 98 48 64
        E 0 9f 34 5a
        E 0 82 48 64
        E 0 83 43 64
        E 0 88 48 64
        E 0 8f 34 64
        E 0 92 48 64
        E 0 93 43 5a
        E 0 98 48 64
        E 0 9f 34 5a
        E 0 82 48 64
        E 0 83 43 64
        E 0 88 48 64
        E 0 8f 34 64
        E 0 92 4f 64
        E 0 93 3d 5a
        E 0 98 4f 64
        E 0 9f 2e 5a
        E 0 83 3d 64
        E 0 8f 2e 64
        E 1 93 3d 5a
        E 0 9f 2e 5a
        E 0 82 4f 64
        E 0 83 3d 64
        E 0 88 4f 64
        E 0 8f 2e 64
        E 0 92 4e 64
        E 0 93 3d 5a
        E 0 98 4e 64
        E 0 9f 2e 5a
        E 0 82 4e 64
        E 0 83 3d 64
        E 0 88 4e 64
        E 0 8f 2e 64
        E 0 92 4c 64
        E 1 93 3d 5a
        E 0 98 4c 64
        E 0 9f 2e 5a
        E 0 82 4c 64
        E 0 83 3d 64
        E 0 88 4c 64
        E 0 8f 2e 64
        E 0 92 4a 64
        E 0 93 42 5a
        E 0 98 4a 64
        E 0 9f 2f 5a
        E 0 83 42 64
        E 0 8f 2f 64
        E 0 93 42 5a
        E 0 9f 2f 5a
        E 0 82 4a 64
        E 0 88 4a 64
        E 0 92 49 64
        E 0 98 49 64
        E 0 82 49 64
        E 0 88 49 64
        E 0 92 47 64
        E 0 98 47 64
        E 0 82 47 64
        E 0 83 42 64
        E 0 88 47 64
        E 0 8f 2f 64
        E 0 92 43 64
        E 0 93 3e 5a
        E 0 98 43 64
        E 0 9f 2f 5a
        E 0 83 3e 64
        E 0 8f 2f 64
        E 0 93 3d 5a
        E 0 9f 2f 5a
        E 0 82 43 64
        E 0 88 43 64
        E 0 92 42 64
        E 0 98 42 64
        E 0 82 42 64
        E 0 88 42 64
        E 0 92 41 63
        E 0 98 41 63
        E 0 82 41 63
        E 0 83 3d 64
        E 0 88 41 63
        E 0 8f 2f 64
        E 1 92 42 64
        E 0 93 3d 5a
        E 0 98 42 64
        E 0 9f 2e 5a
        E 0 83 3d 64
        E 0 8f 2e 64
        E 0 93 3d 5a
        E 0 9f 36 5a
        E 0 82 42 64
        E 0 83 3d 64
        E 0 88 42 64
        E 0 8f 36 64
        E 0 93 42 5a
        E 0 9f 32 5a
        E 0 83 42 64
        E 0 8f 32 64
        E 0 92 47 64
        E 0 93 3e 5a
        E 0 98 47 64
        E 0 9f 2e 5a
        E 0 82 47 64
        E 0 83 3e 64
        E 0 88 47 64
        E 0 8f 2e 64
        E 0 92 48 64
        E 0 93 43 5a
        E 0 98 48 64
        E 0 9f 34 5a
        E 0 82 48 64
        E 0 83 43 64
        E 0 88 48 64
        E 0 8f 34 64
        E 0 92 49 64
        E 0 93 43 5a
        E 0 98 49 64
        E 0 9f 34 5a
        E 0 82 49 64
        E 0 83 43 64
        E 0 88 49 64
        E 0 8f 34 64
        E 0 92 4a 64
        E 0 93 45 5a
        E 0 98 4a 64
        E 0 9f 36 5a
        E 0 82 4a 64
        E 0 83 45 64
        E 0 88 4a 64
        E 0 8f 36 64
        E 0 92 4b 64
        E 0 93 45 5a
        E 0 98 4b 64
        E 0 9f 36 5a
        E 0 82 4b 64
        E 0 83 45 64
        E 0 88 4b 64
        E 0 8f 36 64
        E 0 92 4c 64
        E 0 93 47 5a
        E 0 98 4c 64
        E 0 9f 37 5a
        E 0 82 4c 64
        E 0 83 47 64
        E 0 88 4c 64
        E 0 8f 37 64
        E 0 92 4f 64
        E 0 93 49 5a
        E 0 98 4f 64
        E 0 9f 2e 5a
        E 0 82 4f 64
        E 0 83 49 64
        E 0 88 4f 64
        E 0 8f 2e 64
        E 0 92 4e 64
        E 0 93 49 5a
        E 0 98 4e 64
        E 0 9f 2e 5a
        E 0 82 4e 64
        E 0 83 49 64
        E 0 88 4e 64
        E 0 8f 2e 64
        E 0 92 4c 64
        E 0 93 49 5a
        E 0 98 4c 64
        E 1 9f 2e 5a
        E 0 82 4c 64
        E 0 83 49 64
        E 0 88 4c 64
        E 0 8f 2e 64
        E 0 92 4a 64
        E 0 93 42 5a
        E 0 98 4a 64
        E 0 9f 2f 5a
        E 0 83 42 64
        E 0 8f 2f 64
        E 0 93 42 5a
        E 0 9f 32 5a
        E 0 82 4a 64
        E 0 88 4a 64
        E 0 92 49 64
        E 0 98 49 64
        E 0 82 49 64
        E 0 88 49 64
        E 0 92 47 64
        E 0 98 47 64
        E 0 82 47 64
        E 0 83 42 64
        E 0 88 47 64
        E 0 8f 32 64
        E 0 92 49 64
        E 0 93 43 5a
        E 0 98 49 64
        E 0 9f 34 5a
        E 0 82 49 64
        E 0 83 43 64
        E 0 88 49 64
        E 0 8f 34 64
        E 0 92 46 64
        E 0 93 3d 5a
        E 0 98 46 64
        E 0 9f 36 5a
        E 0 82 46 64
        E 0 83 3d 64
        E 0 88 46 64
        E 0 8f 36 64
        E 0 92 40 64
        E 0 93 3d 5a
        E 0 98 40 64
        E 0 9f 2e 5a
        E 0 83 3d 64
        E 0 8f 2e 64
        E 0 93 3d 5a
        E 0 9f 2e 5a
        E 38403 83 3d 64
        E 0 8f 2e 64
        E 0 93 3d 5a
        E 0 9f 2e 5a
        E 0 82 40 64
        E 0 83 3d 64
        E 0 88 40 64
        E 0 8f 2e 64
        E 0 92 4f 64
        E 0 93 40 5a
        E 1 98 4f 64
        E 0 9f 2e 5a
        E 0 82 4f 64
        E 0 83 40 64
        E 0 88 4f 64
        E 0 8f 2e 64
        E 0 92 4e 64
        E 0 93 3e 5a
        E 0 98 4e 64
        E 0 9f 2f 5a
        E 0 82 4e 64
        E 0 88 4e 64
        E 0 92 4c 64
        E 0 98 4c 64
        E 0 82 4c 64
        E 0 83 3e 64
        E 0 88 4c 64
        E 0 8f 2f 64
        E 0 92 4a 64
        E 0 93 42 5a
        E 0 98 4a 64
        E 0 9f 2f 5a
        E 0 82 4a 64
        E 0 88 4a 64
        E 0 92 49 64
        E 0 98 49 64
        E 0 82 49 64
        E 0 83 42 64
        E 0 88 49 64
        E 0 8f 2f 64
        E 0 92 40 64
        E 0 93 40 5a
        E 0 98 40 64
        E 0 9f 34 5a
        E 0 82 40 64
        E 0 83 40 64
        E 0 88 40 64
        E 0 8f 34 64
        E 0 92 42 64
        E 0 93 42 5a
        E 0 98 42 64
        E 0 9f 36 5a
        E 0 82 42 64
        E 0 83 42 64
        E 0 88 42 64
        E 0 8f 36 64
        E 0 92 47 64
        E 0 93 3e 5a
        E 0 98 3b 64
        E 1 9f 2f 5a
        E 0 82 47 64
        E 0 83 3e 64
        E 0 8f 2f 64
        E 0 92 4f 64
        E 0 93 40 5a
        E 0 9f 2f 5a
        E 0 82 4f 64
        E 0 83 40 64
        E 0 88 3b 64
        E 0 8f 2f 64
        E 0 92 4e 64
        E 0 93 3e 5a
        E 0 9f 2f 5a
        E 0 82 4e 64
        E 0 83 3e 64
        E 0 8f 2f 64
        E 0 92 47 64
        E 0 93 3e 5a
        E 0 9f 2f 5a
        E 0 82 47 64
        E 0 83 3e 64
        E 0 8f 2f 64
        E 0 92 47 64
        E 0 93 3e 5a
        E 0 9f 36 5a
        E 0 82 47 64
        E 0 92 49 64
        E 0 82 49 64
        E 0 92 4a 64
        E 0 82 4a 64
        E 0 83 3e 64
        E 0 8f 36 64
        E 0 92 49 64
        E 0 93 46 5a
        E 0 9f 36 5a
        E 0 83 46 64
        E 0 8f 36 64
        E 0 93 46 5a
        E 0 9f 36 5a
        E 0 83 46 64
        E 0 8f 36 64
        E 0 93 46 5a
        E 0 9f 36 5a
        E 0 82 49 64
        E 0 83 46 64
        E 0 8f 36 64
        E 0 92 49 64
        E 0 93 46 5a
        E 0 9f 36 5a
        E 0 82 49 64
        E 0 83 46 64
        E 0 8f 36 64
        E 0 92 4a 64
        E 0 93 46 5a
        E 0 9f 36 5a
        E 0 82 4a 64
        E 0 92 4c 64
        E 0 82 4c 64
        E 0 83 46 64
        E 0 8f 36 64
        E 0 92 4a 64
        E 1 93 46 5a
        E 0 9f 36 5a
        E 0 82 4a 64
        E 0 83 46 64
        E 0 8f 36 64
        E 0 92 49 64
        E 0 93 46 5a
        E 0 9f 36 5a
        E 0 82 49 64
        E 0 83 46 64
        E 0 8f 36 64
        E 0 92 4a 64
        E 0 93 42 5a
        E 0 9f 2f 5a
        E 0 82 4a 64
        E 0 92 49 64
        E 0 82 49 64
        E 0 92 47 64
        E 0 83 42 64
        E 0 8f 2f 64
        E 0 93 42 5a
        E 0 9f 2f 5a
        E 0 83 42 64
        E 0 8f 2f 64
        E 0 93 42 5a
        E 0 9f 2f 5a
        E 0 82 47 64
        E 0 92 42 64
        E 0 83 42 64
        E 0 8f 2f 64
        E 0 93 3e 5a
        E 0 9f 2f 5a
        E 0 82 42 64
        E 0 83 3e 64
        E 0 8f 2f 64
        E 0 92 47 64
        E 0 93 3e 5a
        E 0 9f 2f 5a
        E 1 92 4a 64
        E 0 82 47 64
        E 0 92 49 64
        E 0 82 4a 64
        E 0 83 3e 64
        E 0 8f 2f 64
        E 0 92 47 64
        E 0 93 3e 5a
        E 0 9f 2f 5a
        E 0 82 49 64
        E 0 82 47 64
        E 0 83 3e 64
        E 0 8f 2f 64
        E 0 92 4a 64
        E 0 93 3e 5a
        E 0 9f 2f 5a
        E 0 92 4e 64
        E 0 82 4a 64
        E 0 92 4c 64
        E 0 82 4e 64
        E 0 83 3e 64
        E 0 8f 2f 64
        E 0 92 4a 64
        E 0 93 3e 5a
        E 0 9f 2f 5a
        E 0 82 4c 64
        E 0 82 4a 64
        E 0 83 3e 64
        E 0 8f 2f 64
        E 0 92 4f 64
        E 0 93 3b 5a
        E 0 9f 34 5a
        E 0 92 53 64
        E 0 82 4f 64
        E 0 92 51 64
        E 0 82 53 64
        E 0 83 3b 64
        E 0 8f 34 64
        E 0 92 4f 64
        E 0 93 3b 5a
        E 0 9f 34 5a
        E 0 82 51 64
        E 0 82 4f 64
        E 0 83 3b 64
        E 0 8f 34 64
        E 0 92 4c 64
        E 0 93 43 5a
        E 0 9f 34 5a
        E 0 92 4f 64
        E 0 82 4c 64
        E 0 92 4e 64
        E 0 82 4f 64
        E 0 83 43 64
        E 0 8f 34 64
        E 0 92 4c 64
        E 0 93 43 5a
        E 0 9f 34 5a
        E 0 82 4e 64
        E 0 82 4c 64
        E 0 83 43 64
        E 0 8f 34 64
        E 0 92 48 64
        E 1 93 43 5a
        E 0 9f 34 5a
        E 0 82 48 64
        E 0 83 43 64
        E 0 8f 34 64
        E 0 92 48 64
        E 0 93 43 5a
        E 0 9f 34 5a
        E 0 82 48 64
        E 0 83 43 64
        E 0 8f 34 64
        E 0 92 48 64
        E 0 93 43 5a
        E 0 9f 34 5a
        E 0 82 48 64
        E 0 83 43 64
        E 0 8f 34 64
        E 0 92 48 64
        E 0 93 43 5a
        E 0 9f 34 5a
        E 0 82 48 64
        E 0 83 43 64
        E 1 8f 34 64
        E 0 92 4f 64
        E 0 93 3d 5a
        E 0 9f 2e 5a
        E 0 83 3d 64
        E 0 8f 2e 64
        E 0 93 3d 5a
        E 0 9f 2e 5a
        E 0 82 4f 64
        E 0 83 3d 64
        E 0 8f 2e 64
        E 0 92 4e 64
        E 0 93 3d 5a
        E 0 9f 2e 5a
        E 0 82 4e 64
        E 0 83 3d 64
        E 0 8f 2e 64
        E 0 92 4c 64
        E 0 93 3d 5a
        E 0 9f 2e 5a
        E 0 82 4c 64
        E 0 83 3d 64
        E 0 8f 2e 64
        E 0 92 4a 64
        E 0 93 42 5a
        E 0 9f 2f 5a
        E 0 83 42 64
        E 0 8f 2f 64
        E 0 93 42 5a
        E 0 9f 2f 5a
        E 0 82 4a 64
        E 0 92 49 64
        E 0 82 49 64
        E 0 92 47 64
        E 0 82 47 64
        E 0 83 42 64
        E 0 8f 2f 64
        E 0 92 43 64
        E 0 93 3e 5a
        E 0 9f 2f 5a
        E 0 82 43 64
        E 0 83 3e 64
        E 0 8f 2f 64
        E 0 92 41 63
        E 0 93 3d 5a
        E 0 9f 2f 5a
        E 0 82 41 63
        E 0 83 3d 64
        E 0 8f 2f 64
        E 0 92 42 64
        E 0 93 3d 5a
        E 1 9f 2e 5a
        E 0 83 3d 64
        E 0 8f 2e 64
        E 0 93 3d 5a
        E 0 9f 2e 5a
        E 0 82 42 64
        E 0 83 3d 64
        E 0 8f 2e 64
        E 0 92 4f 64
        E 0 93 3d 5a
        E 0 9f 2e 5a
        E 0 83 3d 64
        E 0 8f 2e 64
        E 0 93 3d 5a
        E 0 9f 2e 5a
        E 0 82 4f 64
        E 0 92 4e 64
        E 0 82 4e 64
        E 0 92 4c 64
        E 0 82 4c 64
        E 0 83 3d 64
        E 0 8f 2e 64
        E 0 92 4a 64
        E 0 93 42 5a
        E 0 9f 2f 5a
        E 0 83 42 64
        E 0 8f 2f 64
        E 0 93 3e 5a
        E 0 9f 32 5a
        E 0 82 4a 64
        E 0 92 49 64
        E 0 82 49 64
        E 0 92 47 64
        E 0 82 47 64
        E 0 83 3e 64
        E 0 8f 32 64
        E 0 92 40 64
        E 0 93 40 5a
        E 0 9f 34 5a
        E 0 82 40 64
        E 0 83 40 64
        E 0 8f 34 64
        E 0 92 42 64
        E 0 93 42 5a
        E 0 9f 36 5a
        E 0 82 42 64
        E 0 83 42 64
        E 0 8f 36 64
        E 0 92 3b 64
        E 0 93 3b 5a
        E 0 9f 2f 5a
        E 38403 82 3b 64
        E 0 83 3b 64
        E 0 8f 2f 64
        E 0 92 4a 64
        E 0 93 3e 5a
        E 0 98 4a 64
        E 0 9f 32 5a
        E 0 82 4a 64
        E 0 83 3e 64
        E 0 88 4a 64
        E 0 8f 32 64
        E 0 92 45 64
        E 0 93 3e 5a
        E 1 98 45 64
        E 0 9f 32 5a
        E 0 82 45 64
        E 0 83 3e 64
        E 0 88 45 64
        E 0 8f 32 64
        E 0 92 3e 64
        E 0 93 3e 5a
        E 0 98 3e 64
        E 0 9f 32 5a
        E 0 82 3e 64
        E 0 83 3e 64
        E 0 88 3e 64
        E 0 8f 32 64
        E 0 92 47 64
        E 0 93 43 5a
        E 0 98 47 64
        E 0 9f 32 5a
        E 0 82 47 64
        E 0 83 43 64
        E 0 88 47 64
        E 0 8f 32 64
        E 0 92 47 64
        E 0 93 43 5a
        E 0 98 47 64
        E 0 9f 32 5a
        E 0 82 47 64
        E 0 83 43 64
        E 0 88 47 64
        E 0 8f 32 64
        E 0 92 45 64
        E 0 93 42 5a
        E 0 98 45 64
        E 0 9f 32 5a
        E 0 82 45 64
        E 0 83 42 64
        E 0 88 45 64
        E 0 8f 32 64
        E 0 93 42 5a
        E 0 9f 32 5a
        E 0 83 42 64
        E 0 8f 32 64
        E 0 92 45 64
        E 0 93 42 5a
        E 0 98 45 64
        E 0 9f 32 5a
        E 0 82 45 64
        E 0 83 42 64
        E 0 88 45 64
        E 0 8f 32 64
        E 0 92 49 64
        E 0 93 3d 5a
        E 0 98 49 64
        E 0 9f 39 5a
        E 0 82 49 64
        E 0 83 3d 64
        E 0 88 49 64
        E 0 8f 39 64
        E 0 92 4a 64
        E 0 93 3e 5a
        E 0 98 4a 64
        E 0 9f 32 5a
        E 0 82 4a 64
        E 0 83 3e 64
        E 1 88 4a 64
        E 0 8f 32 64
        E 0 92 42 64
        E 0 93 3b 5a
        E 0 98 42 64
        E 0 9f 31 5a
        E 0 82 42 64
        E 0 83 3b 64
        E 0 88 42 64
        E 0 8f 31 64
        E 0 92 43 64
        E 0 93 3b 5a
        E 0 98 43 64
        E 0 9f 2f 5a
        E 0 82 43 64
        E 0 83 3b 64
        E 0 88 43 64
        E 0 8f 2f 64
        E 0 92 49 64
        E 0 93 3d 5a
        E 0 98 49 64
        E 0 9f 2d 5a
        E 0 82 49 64
        E 0 83 3d 64
        E 0 88 49 64
        E 0 8f 2d 64
        E 0 92 4c 64
        E 0 93 3d 5a
        E 0 98 4c 64
        E 0 9f 2d 5a
        E 0 82 4c 64
        E 0 88 4c 64
        E 0 92 4a 64
        E 0 98 4a 64
        E 0 82 4a 64
        E 0 83 3d 64
        E 0 88 4a 64
        E 0 8f 2d 64
        E 0 92 49 64
        E 0 93 3d 5a
        E 1 98 49 64
        E 0 9f 2f 5a
        E 0 82 49 64
        E 0 88 49 64
        E 0 92 47 64
        E 0 98 47 64
        E 0 82 47 64
        E 0 83 3d 64
        E 0 88 47 64
        E 0 8f 2f 64
        E 0 92 45 64
        E 0 93 3d 5a
        E 0 98 45 64
        E 0 9f 31 5a
        E 0 82 45 64
        E 0 88 45 64
        E 0 92 43 64
        E 0 98 43 64
        E 0 82 43 64
        E 0 83 3d 64
        E 0 88 43 64
        E 0 8f 31 64
        E 0 92 42 64
        E 0 93 39 5a
        E 0 98 42 64
        E 0 9f 32 5a
        E 0 82 42 64
        E 0 88 42 64
        E 0 92 40 64
        E 1 98 40 64
        E 0 82 40 64
        E 0 83 39 64
        E 0 88 40 64
        E 0 8f 32 64
        E 0 92 3e 64
        E 0 93 39 5a
        E 0 98 3e 64
        E 0 9f 32 5a
        E 0 82 3e 64
        E 0 83 39 64
        E 0 88 3e 64
        E 0 8f 32 64
        E 0 93 42 5a
        E 0 98 4a 64
        E 0 9f 32 5a
        E 0 83 42 64
        E 0 8f 32 64
        E 0 92 4a 64
        E 0 93 42 5a
        E 0 9f 32 5a
        E 0 82 4a 64
        E 0 83 42 64
        E 0 88 4a 64
        E 0 8f 32 64
        E 0 93 42 5a
        E 0 98 48 64
        E 0 9f 33 5a
        E 0 83 42 64
        E 0 8f 33 64
        E 0 92 48 64
        E 0 93 42 5a
        E 0 9f 33 5a
        E 0 82 48 64
        E 0 83 42 64
        E 0 88 48 64
        E 0 8f 33 64
        E 0 93 42 5a
        E 0 98 45 64
        E 0 9f 33 5a
        E 0 83 42 64
        E 0 8f 33 64
        E 0 92 45 64
        E 0 93 42 5a
        E 0 9f 33 5a
        E 0 82 45 64
        E 0 83 42 64
        E 0 88 45 64
        E 0 8f 33 64
        E 0 93 42 5a
        E 0 98 3f 64
        E 0 9f 2f 5a
        E 0 83 42 64
        E 0 8f 2f 64
        E 0 92 3f 64
        E 0 93 42 5a
        E 0 9f 2f 5a
        E 0 82 3f 64
        E 0 83 42 64
        E 0 88 3f 64
        E 0 8f 2f 64
        E 0 93 3f 5a
        E 0 98 45 64
        E 0 9f 2f 5a
        E 0 83 3f 64
        E 0 8f 2f 64
        E 0 92 45 64
        E 0 93 3f 5a
        E 0 9f 2f 5a
        E 0 82 45 64
        E 0 83 3f 64
        E 0 88 45 64
        E 0 8f 2f 64
        E 0 93 3b 5a
        E 0 98 43 64
        E 1 9f 34 5a
        E 0 83 3b 64
        E 0 88 43 64
        E 0 8f 34 64
        E 0 92 43 64
        E 0 93 3b 5a
        E 0 98 40 64
        E 0 9f 34 5a
        E 0 82 43 64
        E 0 83 3b 64
        E 0 88 40 64
        E 0 8f 34 64
        E 0 93 3b 5a
        E 0 98 4c 64
        E 0 9f 34 5a
        E 0 83 3b 64
        E 0 8f 34 64
        E 0 92 4c 64
        E 0 93 3b 5a
        E 0 9f 34 5a
        E 0 82 4c 64
        E 0 83 3b 64
        E 0 88 4c 64
        E 0 8f 34 64
        E 0 93 44 5a
        E 0 98 4a 64
        E 0 9f 35 59
        E 0 83 44 64
        E 0 8f 35 63
        E 0 92 4a 64
        E 0 93 44 5a
        E 0 9f 35 59
        E 0 82 4a 64
        E 0 83 44 64
        E 0 88 4a 64
        E 0 8f 35 63
        E 0 93 44 5a
        E 0 98 47 64
        E 0 9f 35 59
        E 0 83 44 64
        E 0 8f 35 63
        E 0 92 47 64
        E 0 93 44 5a
        E 0 9f 35 59
        E 0 82 47 64
        E 0 83 44 64
        E 0 88 47 64
        E 0 8f 35 63
        E 0 93 38 5a
        E 0 98 41 63
        E 0 9f 31 5a
        E 0 83 38 64
        E 0 8f 31 64
        E 0 92 41 63
        E 0 93 38 5a
        E 0 9f 31 5a
        E 0 82 41 63
        E 0 83 38 64
        E 0 88 41 63
        E 0 8f 31 64
        E 0 93 41 59
        E 0 98 47 64
        E 0 9f 31 5a
        E 0 83 41 63
        E 0 8f 31 64
        E 0 92 47 64
        E 0 93 41 59
        E 0 9f 31 5a
        E 0 82 47 64
        E 0 83 41 63
        E 0 88 47 64
        E 0 8f 31 64
        E 0 93 3d 5a
        E 0 98 45 64
        E 0 9f 36 5a
        E 0 83 3d 64
        E 0 88 45 64
        E 0 8f 36 64
        E 0 92 45 64
        E 0 93 3d 5a
        E 0 98 42 64
        E 0 9f 36 5a
        E 0 82 45 64
        E 0 83 3d 64
        E 0 88 42 64
        E 0 8f 36 64
        E 0 92 42 64
        E 0 93 3d 5a
        E 0 9f 36 5a
        E 0 82 42 64
        E 0 83 3d 64
        E 0 8f 36 64
        E 0 92 49 64
        E 0 93 3d 5a
        E 0 98 49 64
        E 0 9f 36 5a
        E 0 82 49 64
        E 0 83 3d 64
        E 0 88 49 64
        E 0 8f 36 64
        E 0 92 51 64
        E 0 93 42 5a
        E 0 98 51 64
        E 0 9f 42 5a
        E 0 82 51 64
        E 0 83 42 64
        E 0 88 51 64
        E 0 8f 42 64
        E 0 92 4f 64
        E 1 93 40 5a
        E 0 98 4f 64
        E 0 9f 40 5a
        E 0 82 4f 64
        E 0 83 40 64
        E 0 88 4f 64
        E 0 8f 40 64
        E 0 92 4e 64
        E 0 93 3e 5a
        E 0 98 4e 64
        E 0 9f 3e 5a
        E 0 82 4e 64
        E 0 83 3e 64
        E 0 88 4e 64
        E 0 8f 3e 64
        E 0 92 4c 64
        E 0 93 3d 5a
        E 0 98 4c 64
        E 0 9f 3d 5a
        E 0 82 4c 64
        E 0 83 3d 64
        E 0 88 4c 64
        E 0 8f 3d 64
        E 0 92 4a 64
        E 0 93 47 5a
        E 0 98 4a 64
        E 0 9f 3b 5a
        E 0 82 4a 64
        E 0 83 47 64
        E 0 88 4a 64
        E 0 8f 3b 64
        E 0 92 49 64
        E 0 93 45 5a
        E 0 98 49 64
        E 0 9f 39 5a
        E 0 82 49 64
        E 0 83 45 64
        E 0 88 49 64
        E 0 8f 39 64
        E 0 92 47 64
        E 0 93 44 5a
        E 0 98 47 64
        E 0 9f 38 5a
        E 0 82 47 64
        E 0 83 44 64
        E 0 88 47 64
        E 0 8f 38 64
        E 0 92 45 64
        E 0 93 42 5a
        E 0 98 45 64
        E 0 9f 36 5a
        E 38403 82 45 64
        E 0 83 42 64
        E 0 88 45 64
        E 0 8f 36 64
        E 0 92 44 64
        E 0 93 41 59
        E 0 98 44 64
        E 0 9f 35 59
        E 0 82 44 64
        E 0 83 41 63
        E 0 88 44 64
        E 0 8f 35 63
        E 0 92 42 64
        E 0 93 3f 5a
        E 0 98 42 64
        E 0 9f 33 5a
        E 0 82 42 64
        E 0 83 3f 64
        E 0 88 42 64
        E 0 8f 33 64
        E 0 92 41 63
        E 0 93 3d 5a
        E 0 98 41 63
        E 0 9f 31 5a
        E 0 82 41 63
        E 0 83 3d 64
        E 0 88 41 63
        E 0 8f 31 64
        E 0 92 3f 64
        E 0 93 3c 59
        E 0 98 3f 64
        E 0 9f 30 59
        E 0 82 3f 64
        E 0 83 3c 63
        E 0 88 3f 64
        E 0 8f 30 63
        E 0 92 3d 64
        E 0 93 3d 5a
        E 0 98 3d 64
        E 0 9f 31 5a
        E 0 83 3d 64
        E 1 8f 31 64
        E 0 93 3d 5a
        E 0 9f 31 5a
        E 0 82 3d 64
        E 0 83 3d 64
        E 0 88 3d 64
        E 0 8f 31 64
        E 0 92 41 63
        E 0 93 3d 5a
        E 0 98 41 63
        E 0 9f 31 5a
        E 0 83 3d 64
        E 0 8f 31 64
        E 0 93 3d 5a
        E 0 9f 31 5a
        E 0 82 41 63
        E 0 83 3d 64
        E 0 88 41 63
        E 0 8f 31 64
        E 0 92 42 64
        E 0 93 42 5a
        E 0 98 42 64
        E 0 9f 36 5a
        E 0 83 42 64
        E 0 8f 36 64
        E 0 93 42 5a
        E 0 9f 36 5a
        E 0 82 42 64
        E 0 83 42 64
        E 0 88 42 64
        E 0 8f 36 64
        E 0 93 41 59
        E 0 9f 35 59
        E 1 83 41 63
        E 0 8f 35 63
        E 0 92 49 64
        E 0 93 41 59
        E 0 98 49 64
        E 0 9f 35 59
        E 0 82 49 64
        E 0 83 41 63
        E 0 88 49 64
        E 0 8f 35 63
        E 0 92 4e 64
        E 0 93 42 5a
        E 0 98 4e 64
        E 0 9f 36 5a
        E 0 82 4e 64
        E 0 83 42 64
        E 0 88 4e 64
        E 0 8f 36 64
        E 0 92 48 63
        E 0 93 42 5a
        E 0 98 48 63
        E 0 9f 36 5a
        E 0 82 48 63
        E 0 83 42 64
        E 0 88 48 63
        E 0 8f 36 64
        E 0 92 49 64
        E 0 93 41 59
        E 0 98 49 64
        E 0 9f 35 59
        E 0 82 49 64
        E 0 83 41 63
        E 0 88 49 64
        E 0 8f 35 63
        E 0 92 42 64
        E 0 93 42 5a
        E 0 98 42 64
        E 0 9f 36 5a
        E 0 82 42 64
        E 0 83 42 64
        E 0 88 42 64
        E 0 8f 36 64
        E 0 92 3d 64
        E 0 93 3d 5a
        E 0 98 3d 64
        E 0 9f 31 5a
        E 0 82 3d 64
        E 0 83 3d 64
        E 0 88 3d 64
        E 1 8f 31 64
        E 0 92 44 64
        E 0 93 31 5a
        E 0 98 44 64
        E 0 9f 25 5a
        E 0 82 44 64
        E 0 83 31 64
        E 0 88 44 64
        E 0 8f 25 64
        E 0 92 42 64
        E 0 93 36 5a
        E 0 98 42 64
        E 0 9f 2a 5a
        E 0 82 42 64
        E 0 83 36 64
        E 0 88 42 64
        E 0 8f 2a 64
        E 0 9b 39 64
        E 0 9e 45 64
        E 0 9f 35 5a
        E 0 8b 39 64
        E 0 8e 45 64
        E 0 9b 39 64
        E 0 9e 45 64
        E 0 8b 39 64
        E 0 8e 45 64
        E 0 9b 39 64
        E 0 9e 45 64
        E 0 8b 39 64
        E 0 8e 45 64
        E 0 9b 3a 66
        E 0 9e 46 66
        E 0 8b 3a 66
        E 0 8e 46 66
        E 0 9b 3c 64
        E 0 9e 48 64
        E 0 8b 3c 64
        E 0 8e 48 64
        E 0 9b 35 64
        E 0 9e 41 64
        E 0 8b 35 64
        E 0 8e 41 64
        E 0 9b 35 64
        E 0 9e 41 64
        E 0 8b 35 64
        E 0 8e 41 64
        E 0 8f 35 64
        E 0 9b 35 64
        E 0 9e 41 64
        E 0 9f 35 5a
        E 0 8b 35 64
        E 0 8e 41 64
        E 0 9b 35 64
        E 0 9e 41 64
        E 0 8b 35 64
        E 0 8e 41 64
        E 0 9b 37 64
        E 0 9e 43 64
        E 0 8b 37 64
        E 0 8e 43 64
        E 0 9b 39 64
        E 0 9e 45 64
        E 0 8b 39 64
        E 0 8e 45 64
        E 0 9b 39 64
        E 0 9e 45 64
        E 0 8b 39 64
        E 0 8e 45 64
        E 0 8f 35 64
        E 0 9f 35 5a
        E 0 9b 3c 64
        E 0 9e 48 64
        E 0 8b 3c 64
        E 0 8e 48 64
        E 0 9b 3c 64
        E 0 9e 48 64
        E 0 8b 3c 64
        E 0 8e 48 64
        E 0 9b 3c 64
        E 0 9e 48 64
        E 0 8b 3c 64
        E 0 8e 48 64
        E 0 9b 3a 66
        E 0 9e 46 66
        E 0 8b 3a 66
        E 0 8e 46 66
        E 0 9b 3c 64
        E 0 9e 48 64
        E 0 8f 35 64
        E 0 8b 3c 64
        E 0 8e 48 64
        E 0 9f 2e 5b
        E 0 9b 3e 64
        E 0 9e 4a 64
        E 0 8b 3e 64
        E 0 8e 4a 64
        E 0 9b 3a 66
        E 1 9e 46 66
        E 0 8b 3a 66
        E 0 8e 46 66
        E 0 9b 3a 66
        E 0 9e 46 66
        E 0 8b 3a 66
        E 0 8e 46 66
        E 0 9b 39 64
        E 0 9e 45 64
        E 0 8b 39 64
        E 0 8e 45 64
        E 0 8f 2e 66
        E 0 9b 35 64
        E 0 9e 41 64
        E 0 9f 30 5a
        E 0 8b 35 64
        E 0 8e 41 64
        E 0 9b 35 64
        E 0 9e 41 64
        E 0 8b 35 64
        E 0 8e 41 64
        E 0 8f 30 64
        E 0 9f 35 5a
        E 38402 8f 35 64
        E 0 9b 3c 64
        E 0 9e 48 64
        E 0 9f 35 5a
        E 0 8b 3c 64
        E 0 8e 48 64
        E 0 9b 3c 64
        E 1 9e 48 64
        E 0 8b 3c 64
        E 0 8e 48 64
        E 0 9b 3e 64
        E 0 9e 4a 64
        E 0 8b 3e 64
        E 0 8e 4a 64
        E 0 8f 35 64
        E 0 9b 39 64
        E 0 9e 45 64
        E 0 9f 36 5a
        E 0 8b 39 64
        E 0 8e 45 64
        E 0 9b 39 64
        E 0 9e 45 64
        E 0 8b 39 64
        E 0 8e 45 64
        E 0 9b 39 64
        E 0 9e 45 64
        E 0 8b 39 64
        E 0 8e 45 64
        E 0 9b 39 64
        E 0 9e 45 64
        E 0 8b 39 64
        E 0 8e 45 64
        E 0 9b 39 64
        E 0 9e 45 64
        E 0 8b 39 64
        E 0 8e 45 64
        E 0 9b 39 64
        E 0 9e 45 64
        E 0 8b 39 64
        E 0 8e 45 64
        E 0 9b 39 64
        E 1 9e 45 64
        E 0 8b 39 64
        E 0 8e 45 64
        E 0 8f 36 64
        E 0 9b 36 64
        E 0 9e 42 64
        E 0 9f 36 5a
        E 0 8b 36 64
        E 0 8e 42 64
        E 0 9b 36 64
        E 0 9e 42 64
        E 0 8b 36 64
        E 0 8e 42 64
        E 0 9b 36 64
        E 0 9e 42 64
        E 0 8b 36 64
        E 0 8e 42 64
        E 0 9b 37 64
        E 0 9e 43 64
        E 0 8b 37 64
        E 0 8e 43 64
        E 0 9b 39 64
        E 0 9e 45 64
        E 0 8b 39 64
        E 0 8e 45 64
        E 0 9b 32 64
        E 0 9e 3e 64
        E 0 8b 32 64
        E 0 8e 3e 64
        E 0 8f 36 64
        E 0 9b 3c 64
        E 0 9e 48 64
        E 0 9f 36 5a
        E 0 8b 3c 64
        E 0 8e 48 64
        E 0 9b 3c 64
        E 0 9e 48 64
        E 0 8b 3c 64
        E 0 8e 48 64
        E 0 9b 3c 64
        E 0 9e 48 64
        E 0 8b 3c 64
        E 0 8e 48 64
        E 0 9b 3c 64
        E 0 9e 48 64
        E 0 8b 3c 64
        E 0 8e 48 64
        E 0 9b 3b 64
        E 0 9e 47 64
        E 0 8b 3b 64
        E 0 8e 47 64
        E 0 8f 36 64
        E 0 9b 3b 64
        E 0 9e 47 64
        E 0 9f 35 5a
        E 0 8b 3b 64
        E 0 8e 47 64
        E 1 9b 3b 64
        E 0 9e 47 64
        E 0 8b 3b 64
        E 0 8e 47 64
        E 0 9b 3e 64
        E 0 9e 4a 64
        E 0 8b 3e 64
        E 0 8e 4a 64
        E 0 9b 3e 64
        E 0 9e 4a 64
        E 0 8b 3e 64
        E 0 8e 4a 64
        E 0 8f 35 64
        E 0 9b 3b 64
        E 0 9e 47 64
        E 0 9f 35 5a
        E 0 8b 3b 64
        E 0 8e 47 64
        E 0 9b 3b 64
        E 0 9e 47 64
        E 0 8b 3b 64
        E 0 8e 47 64
        E 0 9b 3c 64
        E 0 9e 48 64
        E 0 8b 3c 64
        E 0 8e 48 64
        E 0 8f 35 64
        E 0 9b 37 64
        E 0 9e 43 64
        E 0 9f 37 5a
        E 0 8b 37 64
        E 0 8e 43 64
        E 0 9b 37 64
        E 0 9e 43 64
        E 0 8b 37 64
        E 0 8e 43 64
        E 0 8f 37 64
        E 0 9f 30 5a
        E 0 8f 30 64
        E 0 9f 30 5a
        E 0 9b 3c 64
        E 0 9e 48 64
        E 0 8b 3c 64
        E 0 8e 48 64
        E 0 9b 3c 64
        E 0 9e 48 64
        E 0 8b 3c 64
        E 0 8e 48 64
        E 0 9b 3d 66
        E 1 9e 49 66
        E 0 8b 3d 66
        E 0 8e 49 66
        E 0 8f 30 64
        E 0 9b 3a 66
        E 0 9e 46 66
        E 0 9f 34 5a
        E 0 8b 3a 66
        E 0 8e 46 66
        E 0 9b 3a 66
        E 0 9e 46 66
        E 0 8b 3a 66
        E 0 8e 46 66
        E 0 9b 37 64
        E 0 9e 43 64
        E 0 8b 37 64
        E 0 8e 43 64
        E 0 9b 37 64
        E 0 9e 43 64
        E 0 8b 37 64
        E 0 8e 43 64
        E 0 9b 38 66
        E 0 9e 44 66
        E 0 8b 38 66
        E 0 8e 44 66
        E 0 8f 34 64
        E 0 9b 3a 66
        E 0 9e 46 66
        E 0 9f 34 5a
        E 0 8b 3a 66
        E 0 8e 46 66
        E 0 9b 3a 66
        E 0 9e 46 66
        E 0 8b 3a 66
        E 0 8e 46 66
        E 0 9b 3a 66
        E 0 9e 46 66
        E 0 8b 3a 66
        E 0 8e 46 66
        E 0 9b 3a 66
        E 0 9e 46 66
        E 0 8b 3a 66
        E 0 8e 46 66
        E 0 9b 3a 66
        E 0 9e 46 66
        E 0 8b 3a 66
        E 0 8e 46 66
        E 0 9b 3a 66
        E 0 9e 46 66
        E 0 8b 3a 66
        E 0 8e 46 66
        E 0 9b 38 66
        E 0 9e 44 66
        E 38403 8b 38 66
        E 0 8e 44 66
        E 0 8f 34 64
        E 0 9b 35 64
        E 0 9e 41 64
        E 0 9f 35 5a
        E 0 8b 35 64
        E 0 8e 41 64
        E 0 9b 35 64
        E 0 9e 41 64
        E 0 8b 35 64
        E 0 8e 41 64
        E 0 9b 3c 64
        E 0 9e 48 64
        E 0 8b 3c 64
        E 0 8e 48 64
        E 0 9b 3c 64
        E 0 9e 48 64
        E 0 8b 3c 64
        E 0 8e 48 64
        E 0 9b 38 66
        E 0 9e 44 66
        E 0 8b 38 66
        E 0 8e 44 66
        E 0 9b 38 66
        E 0 9e 44 66
        E 0 8b 38 66
        E 0 8e 44 66
        E 0 9b 3a 66
        E 0 9e 46 66
        E 0 8b 3a 66
        E 0 8e 46 66
        E 0 8f 35 64
        E 0 9b 3c 64
        E 0 9e 48 64
        E 0 9f 35 5a
        E 1 8b 3c 64
        E 0 8e 48 64
        E 0 9b 3c 64
        E 0 9e 48 64
        E 0 8b 3c 64
        E 0 8e 48 64
        E 0 9b 3c 64
        E 0 9e 48 64
        E 0 8b 3c 64
        E 0 8e 48 64
        E 0 9b 3e 64
        E 0 9e 4a 64
        E 0 8b 3e 64
        E 0 8e 4a 64
        E 0 8f 35 64
        E 0 9b 3e 64
        E 0 9e 4a 64
        E 0 9f 2f 5a
        E 0 8b 3e 64
        E 0 8e 4a 64
        E 0 9b 35 64
        E 0 9e 41 64
        E 0 8b 35 64
        E 0 8e 41 64
        E 0 9b 35 64
        E 0 9e 41 64
        E 0 8b 35 64
        E 0 8e 41 64
        E 0 9b 33 66
        E 0 9e 3f 66
        E 0 8b 33 66
        E 0 8e 3f 66
        E 0 8f 2f 64
        E 0 9b 33 66
        E 0 9e 3f 66
        E 0 9f 30 5a
        E 0 8b 33 66
        E 0 8e 3f 66
        E 0 9b 33 66
        E 0 9e 3f 66
        E 0 8b 33 66
        E 0 8e 3f 66
        E 0 9b 3c 64
        E 0 9e 48 64
        E 0 8b 3c 64
        E 0 8e 48 64
        E 0 8f 30 64
        E 0 9b 39 64
        E 0 9e 45 64
        E 0 9f 31 5a
        E 0 8b 39 64
        E 0 8e 45 64
        E 0 9b 39 64
        E 0 9e 45 64
        E 0 8b 39 64
        E 0 8e 45 64
        E 0 8f 31 64
        E 1 9b 3a 66
        E 0 9e 46 66
        E 0 9f 31 5a
        E 0 8b 3a 66
        E 0 8e 46 66
        E 0 9b 37 64
        E 0 9e 43 64
        E 0 8b 37 64
        E 0 8e 43 64
        E 0 9b 37 64
        E 0 9e 43 64
        E 0 8b 37 64
        E 0 8e 43 64
        E 0 9b 37 64
        E 0 9e 43 64
        E 0 8b 37 64
        E 0 8e 43 64
        E 0 9b 35 64
        E 0 9e 41 64
        E 0 8b 35 64
        E 0 8e 41 64
        E 0 8f 31 64
        E 0 9b 32 64
        E 0 9e 3e 64
        E 0 9f 32 5a
        E 0 8b 32 64
        E 0 8e 3e 64
        E 0 9b 32 64
        E 0 9e 3e 64
        E 0 8b 32 64
        E 0 8e 3e 64
        E 0 8f 32 64
        E 0 9b 39 64
        E 0 9e 45 64
        E 0 9f 32 5a
        E 0 8b 39 64
        E 0 8e 45 64
        E 0 9b 39 64
        E 0 9e 45 64
        E 0 8b 39 64
        E 0 8e 45 64
        E 0 9b 39 64
        E 0 9e 45 64
        E 0 8b 39 64
        E 0 8e 45 64
        E 0 8f 32 64
        E 0 9b 36 64
        E 0 9e 42 64
        E 0 9f 30 5a
        E 0 8b 36 64
        E 0 8e 42 64
        E 0 9b 36 64
        E 0 9e 42 64
        E 0 8b 36 64
        E 0 8e 42 64
        E 0 9b 3f 66
        E 0 9e 4b 66
        E 0 8b 3f 66
        E 0 8e 4b 66
        E 0 8f 30 64
        E 0 9b 3c 64
        E 0 9e 48 64
        E 0 9f 30 5a
        E 0 8b 3c 64
        E 0 8e 48 64
        E 0 9b 3c 64
        E 0 9e 48 64
        E 0 8b 3c 64
        E 0 8e 48 64
        E 0 9b 3c 64
        E 0 9e 48 64
        E 0 8b 3c 64
        E 0 8e 48 64
        E 0 9b 3a 66
        E 0 9e 46 66
        E 0 8b 3a 66
        E 0 8e 46 66
        E 0 8f 30 64
        E 0 9b 37 64
        E 0 9e 43 64
        E 0 9f 2e 5b
        E 0 8b 37 64
        E 0 8e 43 64
        E 1 8f 2e 66
        E 0 9b 3a 66
        E 0 9e 46 66
        E 0 9f 2e 5b
        E 0 8b 3a 66
        E 0 8e 46 66
        E 0 9b 3a 66
        E 0 9e 46 66
        E 0 8b 3a 66
        E 0 8e 46 66
        E 0 9b 3c 64
        E 0 9e 48 64
        E 0 8b 3c 64
        E 0 8e 48 64
        E 0 9b 3e 64
        E 0 9e 4a 64
        E 0 8b 3e 64
        E 0 8e 4a 64
        E 0 9b 3e 64
        E 0 9e 4a 64
        E 38402 8b 3e 64
        E 1 8e 4a 64
        E 0 9b 38 66
        E 0 9e 44 66
        E 0 8b 38 66
        E 0 8e 44 66
        E 0 9b 38 66
        E 0 9e 44 66
        E 0 8b 38 66
        E 0 8e 44 66
        E 0 9b 37 64
        E 0 9e 43 64
        E 0 8b 37 64
        E 0 8e 43 64
        E 0 8f 2e 66
        E 0 9b 37 64
        E 0 9e 43 64
        E 0 9f 33 5b
        E 0 8b 37 64
        E 0 8e 43 64
        E 0 9b 37 64
        E 0 9e 43 64
        E 0 8b 37 64
        E 0 8e 43 64
        E 0 9b 3c 64
        E 0 9e 48 64
        E 0 8b 3c 64
        E 0 8e 48 64
        E 0 9b 39 64
        E 0 9e 45 64
        E 0 8b 39 64
        E 0 8e 45 64
        E 0 9b 39 64
        E 0 9e 45 64
        E 0 8b 39 64
        E 0 8e 45 64
        E 0 9b 39 64
        E 0 9e 45 64
        E 0 8b 39 64
        E 0 8e 45 64
        E 0 9b 3a 66
        E 0 9e 46 66
        E 0 8b 3a 66
        E 0 8e 46 66
        E 0 8f 33 66
        E 0 9b 35 64
        E 0 9e 41 64
        E 0 9f 35 5a
        E 0 8b 35 64
        E 0 8e 41 64
        E 0 9b 35 64
        E 0 9e 41 64
        E 1 8b 35 64
        E 0 8e 41 64
        E 0 8f 35 64
        E 0 9f 2e 5b
        E 0 8f 2e 66
        E 0 96 41 64
        E 0 9e 41 64
        E 0 9f 2e 5b
        E 0 86 41 64
        E 0 8e 41 64
        E 0 96 3e 64
        E 0 9e 3e 64
        E 0 86 3e 64
        E 0 8e 3e 64
        E 0 96 41 64
        E 0 9e 41 64
        E 0 86 41 64
        E 0 8e 41 64
        E 0 96 41 64
        E 0 9e 41 64
        E 0 86 41 64
        E 0 8e 41 64
        E 0 96 41 64
        E 0 9e 41 64
        E 0 86 41 64
        E 0 8e 41 64
        E 0 8f 2e 66
        E 0 96 46 66
        E 0 9e 46 66
        E 0 9f 2e 5b
        E 0 86 46 66
        E 0 8e 46 66
        E 0 96 46 66
        E 0 9e 46 66
        E 0 86 46 66
        E 1 8e 46 66
        E 0 96 46 66
        E 0 9e 46 66
        E 0 86 46 66
        E 0 8e 46 66
        E 0 96 46 66
        E 0 9e 46 66
        E 0 86 46 66
        E 0 8e 46 66
        E 0 96 46 66
        E 0 9e 46 66
        E 0 86 46 66
        E 0 8e 46 66
        E 0 96 46 66
        E 0 9e 46 66
        E 0 86 46 66
        E 0 8e 46 66
        E 0 96 48 64
        E 0 9e 48 64
        E 0 86 48 64
        E 0 8e 48 64
        E 0 8f 2e 66
        E 0 96 45 64
        E 0 9e 45 64
        E 0 9f 2a 5a
        E 0 86 45 64
        E 0 8e 45 64
        E 0 96 45 64
        E 0 9e 45 64
        E 0 86 45 64
        E 0 8e 45 64
        E 0 96 48 64
        E 0 9e 48 64
        E 0 86 48 64
        E 0 8e 48 64
        E 0 96 46 66
        E 0 9e 46 66
        E 0 86 46 66
        E 0 8e 46 66
        E 0 8f 2a 64
        E 0 96 43 64
        E 0 9e 43 64
        E 0 9f 2b 5a
        E 0 86 43 64
        E 0 8e 43 64
        E 0 96 43 64
        E 0 9e 43 64
        E 0 86 43 64
        E 0 8e 43 64
        E 0 8f 2b 64
        E 1 96 46 66
        E 0 9e 46 66
        E 0 9f 2b 5a
        E 0 86 46 66
        E 0 8e 46 66
        E 0 96 46 66
        E 0 9e 46 66
        E 0 86 46 66
        E 0 8e 46 66
        E 0 96 46 66
        E 0 9e 46 66
        E 0 86 46 66
        E 0 8e 46 66
        E 0 96 46 66
        E 0 9e 46 66
        E 0 86 46 66
        E 0 8e 46 66
        E 0 96 45 64
        E 0 9e 45 64
        E 0 86 45 64
        E 0 8e 45 64
        E 0 8f 2b 64
        E 0 96 45 64
        E 0 9e 45 64
        E 0 9f 31 5a
        E 0 86 45 64
        E 0 8e 45 64
        E 0 96 45 64
        E 0 9e 45 64
        E 0 86 45 64
        E 0 8e 45 64
        E 0 8f 31 64
        E 0 96 45 64
        E 0 9e 45 64
        E 0 9f 31 5a
        E 0 86 45 64
        E 0 8e 45 64
        E 0 96 45 64
        E 0 9e 45 64
        E 0 86 45 64
        E 0 8e 45 64
        E 0 96 45 64
        E 0 9e 45 64
        E 0 86 45 64
        E 0 8e 45 64
        E 0 96 43 64
        E 0 9e 43 64
        E 0 86 43 64
        E 0 8e 43 64
        E 0 96 45 64
        E 0 9e 45 64
        E 0 86 45 64
        E 0 8e 45 64
        E 0 8f 31 64
        E 0 96 41 64
        E 0 9e 41 64
        E 0 9f 32 5a
        E 0 86 41 64
        E 0 8e 41 64
        E 0 96 41 64
        E 1 9e 41 64
        E 0 86 41 64
        E 0 8e 41 64
        E 0 96 45 64
        E 0 9e 45 64
        E 0 86 45 64
        E 0 8e 45 64
        E 0 96 44 64
        E 0 9e 44 64
        E 0 86 44 64
        E 0 8e 44 64
        E 0 96 45 64
        E 0 9e 45 64
        E 0 86 45 64
        E 0 8e 45 64
        E 0 8f 32 64
        E 0 96 40 64
        E 0 9e 40 64
        E 0 9f 34 5a
        E 0 86 40 64
        E 0 8e 40 64
        E 0 8f 34 64
        E 0 9f 2d 5a
        E 38403 96 45 64
        E 0 9e 45 64
        E 0 86 45 64
        E 0 8e 45 64
        E 0 8f 2d 64
        E 0 96 48 64
        E 0 9e 48 64
        E 0 9f 2d 5a
        E 0 86 48 64
        E 0 8e 48 64
        E 0 96 48 64
        E 0 9e 48 64
        E 0 86 48 64
        E 0 8e 48 64
        E 0 96 48 64
        E 0 9e 48 64
        E 0 86 48 64
        E 0 8e 48 64
        E 0 96 47 64
        E 0 9e 47 64
        E 0 86 47 64
        E 0 8e 47 64
        E 0 8f 2d 64
        E 0 96 47 64
        E 0 9e 47 64
        E 0 9f 33 5a
        E 0 86 47 64
        E 0 8e 47 64
        E 0 96 47 64
        E 0 9e 47 64
        E 0 86 47 64
        E 0 8e 47 64
        E 0 96 47 64
        E 0 9e 47 64
        E 0 86 47 64
        E 0 8e 47 64
        E 0 96 42 64
        E 0 9e 42 64
        E 0 86 42 64
        E 0 8e 42 64
        E 0 96 42 64
        E 0 9e 42 64
        E 0 86 42 64
        E 0 8e 42 64
        E 0 96 45 64
        E 0 9e 45 64
        E 0 86 45 64
        E 0 8e 45 64
        E 0 96 43 64
        E 0 9e 43 64
        E 0 86 43 64
        E 0 8e 43 64
        E 0 8f 33 64
        E 0 96 40 64
        E 0 9e 40 64
        E 0 9f 34 5a
        E 0 86 40 64
        E 0 8e 40 64
        E 0 96 40 64
        E 1 9e 40 64
        E 0 86 40 64
        E 0 8e 40 64
        E 0 96 47 64
        E 0 9e 47 64
        E 0 86 47 64
        E 0 8e 47 64
        E 0 96 47 64
        E 0 9e 47 64
        E 0 86 47 64
        E 0 8e 47 64
        E 0 96 47 64
        E 0 9e 47 64
        E 0 86 47 64
        E 0 8e 47 64
        E 0 96 45 64
        E 0 9e 45 64
        E 0 86 45 64
        E 0 8e 45 64
        E 0 96 47 64
        E 0 9e 47 64
        E 0 86 47 64
        E 0 8e 47 64
        E 0 8f 34 64
        E 0 96 48 64
        E 0 9e 48 64
        E 0 9f 2d 5a
        E 0 86 48 64
        E 0 8e 48 64
        E 0 96 48 64
        E 0 9e 48 64
        E 0 86 48 64
        E 0 8e 48 64
        E 0 96 48 64
        E 0 9e 48 64
        E 0 86 48 64
        E 0 8e 48 64
        E 0 96 45 64
        E 0 9e 45 64
        E 0 86 45 64
        E 0 8e 45 64
        E 0 96 43 64
        E 0 9e 43 64
        E 0 86 43 64
        E 0 8e 43 64
        E 0 8f 2d 64
        E 0 96 40 64
        E 0 9e 40 64
        E 0 9f 2f 5a
        E 0 86 40 64
        E 0 8e 40 64
        E 0 96 40 64
        E 0 9e 40 64
        E 0 86 40 64
        E 0 8e 40 64
        E 0 8f 2f 64
        E 0 9f 34 5a
        E 0 9b 3b 64
        E 1 9e 47 64
        E 0 8b 3b 64
        E 0 8e 47 64
        E 0 9b 39 64
        E 0 9e 45 64
        E 0 8b 39 64
        E 0 8e 45 64
        E 0 9b 3b 64
        E 0 9e 47 64
        E 0 8b 3b 64
        E 0 8e 47 64
        E 0 8f 34 64
        E 0 9b 37 64
        E 0 9e 43 64
        E 0 9f 34 5a
        E 0 8b 37 64
        E 0 8e 43 64
        E 0 9b 37 64
        E 0 9e 43 64
        E 0 8b 37 64
        E 0 8e 43 64
        E 0 9b 3c 64
        E 0 9e 48 64
        E 0 8b 3c 64
        E 0 8e 48 64
        E 0 9b 3c 64
        E 0 9e 48 64
        E 0 8b 3c 64
        E 0 8e 48 64
        E 0 9b 37 64
        E 0 9e 43 64
        E 0 8b 37 64
        E 0 8e 43 64
        E 0 9b 3a 66
        E 0 9e 46 66
        E 0 8b 3a 66
        E 0 8e 46 66
        E 0 9b 39 64
        E 0 9e 45 64
        E 0 8b 39 64
        E 0 8e 45 64
        E 0 8f 34 64
        E 0 9b 35 64
        E 0 9e 41 64
        E 0 9f 35 5a
        E 0 8b 35 64
        E 0 8e 41 64
        E 0 9c 3c 64
        E 0 9e 3c 64
        E 0 8c 3c 64
        E 0 8e 3c 64
        E 0 9c 3c 64
        E 0 9e 3c 64
        E 0 8c 3c 64
        E 0 8e 3c 64
        E 1 9c 35 64
        E 0 9e 35 64
        E 0 8c 35 64
        E 0 8e 35 64
        E 0 8f 35 64
        E 0 9c 37 64
        E 0 9e 37 64
        E 0 9f 30 5a
        E 0 8c 37 64
        E 0 8e 37 64
        E 0 9c 37 64
        E 0 9e 37 64
        E 0 8c 37 64
        E 0 8e 37 64
        E 0 9c 34 64
        E 0 9e 34 64
        E 0 8c 34 64
        E 0 8e 34 64
        E 0 9c 37 64
        E 0 9e 37 64
        E 0 8c 37 64
        E 0 8e 37 64
        E 0 9c 37 64
        E 0 9e 37 64
        E 0 8c 37 64
        E 0 8e 37 64
        E 38403 8f 30 64
        E 0 9c 37 64
        E 0 9e 37 64
        E 0 9f 30 5a
        E 0 8c 37 64
        E 0 8e 37 64
        E 0 9c 37 64
        E 0 9e 37 64
        E 0 8c 37 64
        E 0 8e 37 64
        E 0 9c 37 64
        E 0 9e 37 64
        E 0 8c 37 64
        E 0 8e 37 64
        E 0 9c 37 64
        E 0 9e 37 64
        E 0 8c 37 64
        E 0 8e 37 64
        E 0 9c 37 64
        E 0 9e 37 64
        E 0 8c 37 64
        E 0 8e 37 64
        E 0 8f 30 64
        E 0 9c 3c 64
        E 0 9e 3c 64
        E 0 9f 33 5b
        E 0 8c 3c 64
        E 0 8e 3c 64
        E 0 9c 37 64
        E 0 9e 37 64
        E 0 8c 37 64
        E 0 8e 37 64
        E 0 9c 37 64
        E 0 9e 37 64
        E 0 8c 37 64
        E 0 8e 37 64
        E 0 9c 36 64
        E 0 9e 36 64
        E 0 8c 36 64
        E 0 8e 36 64
        E 0 8f 33 66
        E 0 9c 39 64
        E 1 9e 39 64
        E 0 9f 32 5a
        E 0 8c 39 64
        E 0 8e 39 64
        E 0 9c 39 64
        E 0 9e 39 64
        E 0 8c 39 64
        E 0 8e 39 64
        E 0 9b 3e 64
        E 0 9e 4a 64
        E 0 8b 3e 64
        E 0 8e 4a 64
        E 0 9b 39 64
        E 0 9e 45 64
        E 0 8b 39 64
        E 0 8e 45 64
        E 0 9b 39 64
        E 0 9e 45 64
        E 0 8b 39 64
        E 0 8e 45 64
        E 0 9b 3c 64
        E 0 9e 48 64
        E 0 8b 3c 64
        E 0 8e 48 64
        E 0 9b 3a 66
        E 0 9e 46 66
        E 0 8b 3a 66
        E 0 8e 46 66
        E 0 8f 32 64
        E 0 9b 37 64
        E 0 9e 43 64
        E 0 9f 37 5a
        E 0 8b 37 64
        E 0 8e 43 64
        E 0 9b 37 64
        E 0 9e 43 64
        E 0 8b 37 64
        E 0 8e 43 64
        E 0 9b 37 64
        E 0 9e 43 64
        E 0 8b 37 64
        E 0 8e 43 64
        E 0 8f 37 64
        E 1 9b 3c 64
        E 0 9e 48 64
        E 0 9f 33 5b
        E 0 8b 3c 64
        E 0 8e 48 64
        E 0 9b 3c 64
        E 0 9e 48 64
        E 0 8b 3c 64
        E 0 8e 48 64
        E 0 9b 3c 64
        E 0 9e 48 64
        E 0 8b 3c 64
        E 0 8e 48 64
        E 0 9b 3a 66
        E 0 9e 46 66
        E 0 8b 3a 66
        E 0 8e 46 66
        E 0 8f 33 66
        E 0 9b 37 64
        E 0 9e 43 64
        E 0 9f 32 5a
        E 0 8b 37 64
        E 0 8e 43 64
        E 0 9b 37 64
        E 0 9e 43 64
        E 0 8b 37 64
        E 0 8e 43 64
        E 0 8f 32 64
        E 0 9f 2b 5a
        E 0 9b 32 64
        E 0 9e 3e 64
        E 0 8b 32 64
        E 0 8e 3e 64
        E 0 8f 2b 64
        E 0 9b 37 64
        E 0 9e 43 64
        E 0 9f 2b 5a
        E 0 8b 37 64
        E 0 8e 43 64
        E 0 9b 37 64
        E 0 9e 43 64
        E 0 8b 37 64
        E 0 8e 43 64
        E 0 9b 3e 64
        E 0 9e 4a 64
        E 0 8b 3e 64
        E 0 8e 4a 64
        E 0 8f 2b 64
        E 0 9b 3a 66
        E 0 9e 46 66
        E 0 9f 2b 5a
        E 0 8b 3a 66
        E 0 8e 46 66
        E 0 9b 3a 66
        E 0 9e 46 66
        E 0 8b 3a 66
        E 0 8e 46 66
        E 0 9b 3a 66
        E 0 9e 46 66
        E 0 8b 3a 66
        E 0 8e 46 66
        E 0 9b 3a 66
        E 0 9e 46 66
        E 0 8b 3a 66
        E 0 8e 46 66
        E 0 9b 3a 66
        E 1 9e 46 66
        E 0 8b 3a 66
        E 0 8e 46 66
        E 0 9b 3a 66
        E 0 9e 46 66
        E 0 8b 3a 66
        E 0 8e 46 66
        E 0 9b 39 64
        E 0 9e 45 64
        E 0 8b 39 64
        E 0 8e 45 64
        E 0 8f 2b 64
        E 0 9b 38 64
        E 0 9e 44 64
        E 0 9f 32 5a
        E 0 8b 38 64
        E 0 8e 44 64
        E 0 9b 38 64
        E 0 9e 44 64
        E 0 8b 38 64
        E 0 8e 44 64
        E 0 9b 34 64
        E 0 9e 40 64
        E 0 8b 34 64
        E 0 8e 40 64
        E 0 9b 38 64
        E 0 9e 44 64
        E 0 8b 38 64
        E 0 8e 44 64
        E 0 9b 39 64
        E 0 9e 45 64
        E 0 8b 39 64
        E 0 8e 45 64
        E 0 8f 32 64
        E 0 9b 3b 64
        E 0 9e 47 64
        E 0 9f 2c 5a
        E 0 8b 3b 64
        E 1 8e 47 64
        E 0 9b 3b 64
        E 0 9e 47 64
        E 0 8b 3b 64
        E 0 8e 47 64
        E 0 9b 3e 64
        E 0 9e 4a 64
        E 0 8b 3e 64
        E 0 8e 4a 64
        E 0 8f 2c 64
        E 0 9b 3b 64
        E 0 9e 47 64
        E 0 9f 2c 5a
        E 0 8b 3b 64
        E 0 8e 47 64
        E 0 9b 3b 64
        E 0 9e 47 64
        E 0 8b 3b 64
        E 0 8e 47 64
        E 0 9b 3b 64
        E 0 9e 47 64
        E 0 8b 3b 64
        E 0 8e 47 64
        E 0 9b 3c 64
        E 0 9e 48 64
        E 0 8b 3c 64
        E 0 8e 48 64
        E 0 8f 2c 64
        E 0 9b 39 64
        E 0 9e 45 64
        E 0 9f 33 5a
        E 0 8b 39 64
        E 0 8e 45 64
        E 0 9b 39 64
        E 0 9e 45 64
        E 38403 8b 39 64
        E 0 8e 45 64
        E 0 9b 39 64
        E 0 9e 45 64
        E 0 8b 39 64
        E 0 8e 45 64
        E 0 9b 37 64
        E 0 9e 43 64
        E 0 8b 37 64
        E 0 8e 43 64
        E 0 9b 36 64
        E 0 9e 42 64
        E 0 8b 36 64
        E 0 8e 42 64
        E 0 8f 33 64
        E 0 9b 37 64
        E 0 9e 43 64
        E 0 9f 34 5a
        E 0 8b 37 64
        E 0 8e 43 64
        E 0 9b 37 64
        E 0 9e 43 64
        E 0 8b 37 64
        E 0 8e 43 64
        E 0 9b 34 64
        E 0 9e 40 64
        E 0 8b 34 64
        E 0 8e 40 64
        E 0 9b 34 64
        E 0 9e 40 64
        E 0 8b 34 64
        E 0 8e 40 64
        E 0 9b 34 64
        E 0 9e 40 64
        E 0 8b 34 64
        E 0 8e 40 64
        E 0 9b 3a 64
        E 0 9e 46 64
        E 0 8b 3a 64
        E 0 8e 46 64
        E 1 9b 3a 64
        E 0 9e 46 64
        E 0 8b 3a 64
        E 0 8e 46 64
        E 0 9b 3b 64
        E 0 9e 47 64
        E 0 8b 3b 64
        E 0 8e 47 64
        E 0 8f 34 64
        E 0 9b 36 64
        E 0 9e 42 64
        E 0 9f 36 5a
        E 0 8b 36 64
        E 0 8e 42 64
        E 0 9b 36 64
        E 0 9e 42 64
        E 0 8b 36 64
        E 0 8e 42 64
        E 0 8f 36 64
        E 0 9f 2f 5a
        E 0 9b 3b 64
        E 0 9e 47 64
        E 0 8b 3b 64
        E 0 8e 47 64
        E 0 9b 3b 64
        E 0 9e 47 64
        E 0 8b 3b 64
        E 0 8e 47 64
        E 0 8f 2f 64
        E 0 9b 37 64
        E 0 9e 43 64
        E 0 9f 2f 5a
        E 0 8b 37 64
        E 0 8e 43 64
        E 0 9b 37 64
        E 0 9e 43 64
        E 0 8b 37 64
        E 0 8e 43 64
        E 0 9b 37 64
        E 0 9e 43 64
        E 0 8b 37 64
        E 0 8e 43 64
        E 0 8f 2f 64
        E 1 9b 34 64
        E 0 9e 40 64
        E 0 9f 30 5a
        E 0 8b 34 64
        E 0 8e 40 64
        E 0 9b 34 64
        E 0 9e 40 64
        E 0 8b 34 64
        E 0 8e 40 64
        E 0 9b 3a 66
        E 0 9e 46 66
        E 0 8b 3a 66
        E 0 8e 46 66
        E 0 9b 3a 66
        E 0 9e 46 66
        E 0 8b 3a 66
        E 0 8e 46 66
        E 0 9b 39 64
        E 0 9e 45 64
        E 0 8b 39 64
        E 0 8e 45 64
        E 0 8f 30 64
        E 0 9b 35 64
        E 0 9e 41 64
        E 0 9f 35 5a
        E 0 8b 35 64
        E 0 8e 41 64
        E 0 9b 35 64
        E 0 9e 41 64
        E 0 8b 35 64
        E 0 8e 41 64
        E 0 9b 3c 64
        E 0 9e 48 64
        E 0 8b 3c 64
        E 0 8e 48 64
        E 0 9b 3c 64
        E 0 9e 48 64
        E 0 8b 3c 64
        E 0 8e 48 64
        E 0 9b 39 64
        E 0 9e 45 64
        E 0 8b 39 64
        E 0 8e 45 64
        E 0 9b 37 64
        E 0 9e 43 64
        E 0 8b 37 64
        E 0 8e 43 64
        E 0 9b 35 64
        E 0 9e 41 64
        E 0 8b 35 64
        E 0 8e 41 64
        E 0 8f 35 64
        E 0 9b 3a 66
        E 0 9e 46 66
        E 0 9f 31 5b
        E 0 8b 3a 66
        E 0 8e 46 66
        E 0 9b 3a 66
        E 0 9e 46 66
        E 0 8b 3a 66
        E 0 8e 46 66
        E 0 9b 35 64
        E 1 9e 41 64
        E 0 8b 35 64
        E 0 8e 41 64
        E 0 9b 35 64
        E 0 9e 41 64
        E 0 8b 35 64
        E 0 8e 41 64
        E 0 9b 34 64
        E 0 9e 40 64
        E 0 8b 34 64
        E 0 8e 40 64
        E 0 8f 31 66
        E 0 9b 37 64
        E 0 9e 43 64
        E 0 9f 30 5a
        E 0 8b 37 64
        E 0 8e 43 64
        E 0 9b 37 64
        E 0 9e 43 64
        E 0 8b 37 64
        E 0 8e 43 64
        E 0 8f 30 64
        E 0 92 41 64
        E 0 93 38 5b
        E 0 9f 35 5a
        E 0 82 41 64
        E 0 83 38 66
        E 0 92 44 66
        E 0 93 38 5b
        E 0 82 44 66
        E 0 83 38 66
        E 0 8f 35 64
        E 0 92 48 64
        E 0 93 38 5b
        E 0 9f 35 5a
        E 0 82 48 64
        E 0 83 38 66
        E 0 92 4d 64
        E 0 93 38 5b
        E 0 82 4d 64
        E 0 83 38 66
        E 0 8f 35 64
        E 0 92 50 66
        E 0 93 38 5b
        E 0 9f 35 5a
        E 0 82 50 66
        E 0 83 38 66
        E 0 92 4f 64
        E 0 93 38 5b
        E 0 82 4f 64
        E 0 83 38 66
        E 0 8f 35 64
        E 0 92 4d 64
        E 0 93 44 5b
        E 0 9f 35 5a
        E 0 82 4d 64
        E 0 83 44 66
        E 0 92 48 64
        E 0 93 44 5b
        E 0 82 48 64
        E 0 83 44 66
        E 0 8f 35 64
        E 0 92 46 66
        E 0 93 44 5b
        E 0 9f 35 5a
        E 0 82 46 66
        E 0 83 44 66
        E 0 92 44 66
        E 1 93 44 5b
        E 0 82 44 66
        E 0 83 44 66
        E 0 8f 35 64
        E 0 92 43 64
        E 0 93 44 5b
        E 0 9f 35 5a
        E 0 82 43 64
        E 0 83 44 66
        E 0 92 41 64
        E 0 93 44 5b
        E 0 82 41 64
        E 0 83 44 66
        E 0 8f 35 64
        E 0 92 49 66
        E 0 93 46 5b
        E 0 9f 35 5a
        E 0 82 49 66
        E 0 83 46 66
        E 0 92 4f 64
        E 0 93 43 5a
        E 0 82 4f 64
        E 0 83 43 64
        E 0 8f 35 64
        E 0 92 52 66
        E 0 93 43 5a
        E 0 9f 35 5a
        E 0 82 52 66
        E 0 83 43 64
        E 0 92 49 66
        E 0 93 43 5a
        E 0 82 49 66
        E 0 83 43 64
        E 0 8f 35 64
        E 0 92 4b 66
        E 1 93 43 5a
        E 0 9f 35 5a
        E 0 82 4b 66
        E 0 83 43 64
        E 0 92 47 66
        E 0 93 43 5a
        E 0 82 47 66
        E 0 83 43 64
        E 0 8f 35 64
        E 0 92 48 64
        E 0 93 43 5a
        E 0 9f 33 5b
        E 0 82 48 64
        E 0 83 43 64
        E 0 92 4d 64
        E 0 93 41 5a
        E 0 82 4d 64
        E 0 83 41 64
        E 0 8f 33 66
        E 0 92 50 66
        E 0 93 41 5a
        E 0 9f 33 5b
        E 38403 82 50 66
        E 0 83 41 64
        E 0 92 48 64
        E 1 93 41 5a
        E 0 82 48 64
        E 0 83 41 64
        E 0 8f 33 66
        E 0 92 49 66
        E 0 93 41 5a
        E 0 9f 33 5b
        E 0 82 49 66
        E 0 83 41 64
        E 0 92 45 64
        E 0 93 41 5a
        E 0 82 45 64
        E 0 83 41 64
        E 0 8f 33 66
        E 0 92 46 66
        E 0 93 41 5a
        E 0 9f 31 5b
        E 0 82 46 66
        E 0 83 41 64
        E 0 92 4c 64
        E 0 93 40 5a
        E 0 82 4c 64
        E 0 83 40 64
        E 0 8f 31 66
        E 0 92 4f 64
        E 0 93 40 5a
        E 0 9f 31 5b
        E 0 82 4f 64
        E 0 83 40 64
        E 0 92 46 66
        E 0 93 40 5a
        E 0 82 46 66
        E 0 83 40 64
        E 0 8f 31 66
        E 0 92 48 64
        E 0 93 43 5a
        E 0 9f 28 5a
        E 0 82 48 64
        E 0 83 43 64
        E 0 92 43 64
        E 0 93 43 5a
        E 0 82 43 64
        E 0 83 43 64
        E 0 8f 28 64
        E 0 92 44 66
        E 0 93 3c 5a
        E 0 9f 29 5a
        E 0 82 44 66
        E 0 83 3c 64
        E 0 92 38 66
        E 0 93 3c 5a
        E 0 82 38 66
        E 0 83 3c 64
        E 0 8f 29 64
        E 0 92 3a 66
        E 0 93 3d 5b
        E 0 9f 2e 5b
        E 0 82 3a 66
        E 0 83 3d 66
        E 0 92 46 66
        E 0 93 3d 5b
        E 0 82 46 66
        E 0 83 3d 66
        E 0 8f 2e 66
        E 1 92 44 66
        E 0 93 40 5a
        E 0 9b 48 64
        E 0 9f 30 5a
        E 0 82 44 66
        E 0 83 40 64
        E 0 92 43 64
        E 0 93 40 5a
        E 0 82 43 64
        E 0 83 40 64
        E 0 8b 48 64
        E 0 8f 30 64
        E 0 92 41 64
        E 0 93 3c 5a
        E 0 9b 48 64
        E 0 9f 35 5a
        E 0 82 41 64
        E 0 83 3c 64
        E 0 92 48 64
        E 0 93 3c 5a
        E 0 82 48 64
        E 0 83 3c 64
        E 0 8b 48 64
        E 0 8f 35 64
        E 0 92 46 66
        E 0 93 3c 5a
        E 0 9b 46 66
        E 0 9f 35 5a
        E 0 82 46 66
        E 0 83 3c 64
        E 0 8b 46 66
        E 0 92 44 66
        E 0 93 3c 5a
        E 0 9b 44 66
        E 0 82 44 66
        E 0 83 3c 64
        E 0 8b 44 66
        E 0 8f 35 64
        E 0 92 43 64
        E 0 93 44 5b
        E 0 9b 43 64
        E 0 9f 35 5a
        E 0 82 43 64
        E 0 83 44 66
        E 0 8b 43 64
        E 0 92 41 64
        E 0 93 44 5b
        E 0 9b 41 64
        E 0 82 41 64
        E 0 83 44 66
        E 0 8b 41 64
        E 0 8f 35 64
        E 0 92 49 66
        E 0 93 46 5b
        E 0 9b 49 66
        E 0 9f 35 5a
        E 0 82 49 66
        E 0 83 46 66
        E 0 8b 49 66
        E 0 92 4f 64
        E 0 93 43 5a
        E 0 9b 48 64
        E 0 82 4f 64
        E 0 83 43 64
        E 0 8b 48 64
        E 0 8f 35 64
        E 0 92 52 66
        E 0 93 43 5a
        E 0 9b 49 66
        E 0 9f 35 5a
        E 0 82 52 66
        E 0 83 43 64
        E 0 92 49 66
        E 0 93 43 5a
        E 0 82 49 66
        E 0 83 43 64
        E 0 8b 49 66
        E 0 8f 35 64
        E 0 92 4b 66
        E 0 93 43 5a
        E 0 9f 35 5a
        E 0 82 4b 66
        E 1 83 43 64
        E 0 92 47 66
        E 0 93 43 5a
        E 0 9b 47 66
        E 0 82 47 66
        E 0 83 43 64
        E 0 8b 47 66
        E 0 8f 35 64
        E 0 92 48 64
        E 0 93 43 5a
        E 0 9b 48 64
        E 0 9f 33 5b
        E 0 82 48 64
        E 0 83 43 64
        E 0 92 4d 64
        E 0 93 41 5a
        E 0 82 4d 64
        E 0 83 41 64
        E 0 8b 48 64
        E 0 8f 33 66
        E 0 92 50 66
        E 0 93 41 5a
        E 0 9b 48 64
        E 0 9f 33 5b
        E 0 82 50 66
        E 0 83 41 64
        E 0 92 48 64
        E 0 93 41 5a
        E 0 82 48 64
        E 0 83 41 64
        E 0 8b 48 64
        E 0 8f 33 66
        E 0 92 49 66
        E 0 93 41 5a
        E 0 9b 49 66
        E 0 9f 33 5b
        E 0 82 49 66
        E 0 83 41 64
        E 0 8b 49 66
        E 0 92 45 64
        E 0 93 41 5a
        E 0 9b 45 64
        E 0 82 45 64
        E 0 83 41 64
        E 0 8b 45 64
        E 0 8f 33 66
        E 0 92 46 66
        E 0 93 41 5a
        E 0 9b 46 66
        E 1 9f 32 5a
        E 0 82 46 66
        E 0 83 41 64
        E 0 8b 46 66
        E 0 92 4c 64
        E 0 93 40 5a
        E 0 9b 45 64
        E 0 82 4c 64
        E 0 83 40 64
        E 0 8b 45 64
        E 0 8f 32 64
        E 0 92 4f 64
        E 0 93 40 5a
        E 0 9b 46 66
        E 0 9f 32 5a
        E 0 82 4f 64
        E 0 83 40 64
        E 0 92 46 66
        E 0 93 40 5a
        E 0 82 46 66
        E 0 83 40 64
        E 0 8b 46 66
        E 0 8f 32 64
        E 1 92 48 64
        E 0 93 40 5a
        E 0 9b 46 66
        E 0 9f 32 5a
        E 0 82 48 64
        E 0 83 40 64
        E 0 92 43 64
        E 0 93 40 5a
        E 0 82 43 64
        E 0 83 40 64
        E 0 8b 46 66
        E 0 8f 32 64
        E 0 92 3c 64
        E 0 93 37 5a
        E 0 9b 3c 64
        E 0 9f 30 5a
        E 0 82 3c 64
        E 0 83 37 64
        E 0 8b 3c 64
        E 0 92 40 64
        E 0 93 37 5a
        E 0 9b 40 64
        E 3 82 40 64
        E 0 83 37 64
        E 0 8b 40 64
        E 0 8f 30 64
        E 0 92 43 64
        E 0 93 37 5a
        E 0 9b 43 64
        E 0 9f 30 5a
        E 0 82 43 64
        E 0 83 37 64
        E 0 8b 43 64
        E 0 92 46 66
        E 0 93 37 5a
        E 0 9b 46 66
        E 0 82 46 66
        E 0 83 37 64
        E 0 8b 46 66
        E 0 8f 30 64
        E 0 92 49 66
        E 0 93 40 5a
        E 0 9b 49 66
        E 0 9f 30 5a
        E 0 82 49 66
        E 0 83 40 64
        E 0 8b 49 66
        E 0 92 46 66
        E 0 93 40 5a
        E 0 9b 46 66
        E 0 82 46 66
        E 0 83 40 64
        E 0 8b 46 66
        E 0 8f 30 64
        E 0 92 50 66
        E 0 93 3c 5a
        E 0 9b 44 66
        E 0 9f 35 5a
        E 0 82 50 66
        E 0 83 3c 64
        E 0 8b 44 66
        E 0 92 4c 64
        E 0 93 3c 5a
        E 0 9b 43 64
        E 0 82 4c 64
        E 0 83 3c 64
        E 0 8b 43 64
        E 0 8f 35 64
        E 0 92 4d 64
        E 0 93 3c 5a
        E 0 9b 41 64
        E 1 9f 35 5a
        E 0 82 4d 64
        E 0 83 3c 64
        E 0 92 48 64
        E 0 93 3c 5a
        E 0 82 48 64
        E 0 83 3c 64
        E 0 8b 41 64
        E 0 8f 35 64
        E 0 92 41 64
        E 0 93 3c 5a
        E 0 9f 35 5a
        E 0 82 41 64
        E 0 83 3c 64
        E 0 92 4d 64
        E 0 93 3c 5a
        E 0 9b 41 64
        E 0 82 4d 64
        E 0 83 3c 64
        E 0 8b 41 64
        E 0 8f 35 64
        E 0 92 4a 64
        E 0 93 37 5a
        E 0 9b 4a 64
        E 0 9f 2f 5a
        E 0 82 4a 64
        E 0 83 37 64
        E 0 8b 4a 64
        E 0 92 47 64
        E 0 93 37 5a
        E 0 9b 47 64
        E 0 82 47 64
        E 0 83 37 64
        E 0 8b 47 64
        E 0 8f 2f 64
        E 0 92 41 64
        E 0 93 37 5a
        E 0 9b 41 64
        E 0 9f 2f 5a
        E 0 82 41 64
        E 0 83 37 64
        E 0 8b 41 64
        E 0 92 47 64
        E 0 93 37 5a
        E 0 9b 47 64
        E 0 82 47 64
        E 0 83 37 64
        E 0 8b 47 64
        E 0 8f 2f 64
        E 0 92 4a 64
        E 1 93 37 5a
        E 0 9b 4a 64
        E 0 9f 2f 5a
        E 0 82 4a 64
        E 0 83 37 64
        E 0 8b 4a 64
        E 0 92 41 64
        E 0 93 37 5a
        E 0 9b 41 64
        E 0 82 41 64
        E 0 83 37 64
        E 0 8b 41 64
        E 0 8f 2f 64
        E 0 92 3f 66
        E 0 93 37 5a
        E 0 9b 3f 66
        E 0 9f 30 5a
        E 0 82 3f 66
        E 0 83 37 64
        E 0 8b 3f 66
        E 0 92 4f 64
        E 0 93 37 5a
        E 0 9b 3d 66
        E 0 82 4f 64
        E 0 83 37 64
        E 0 8b 3d 66
        E 0 8f 30 64
        E 0 92 4b 66
        E 1 93 37 5a
        E 0 9b 3c 64
        E 0 9f 30 5a
        E 0 82 4b 66
        E 0 83 37 64
        E 0 92 47 64
        E 0 93 37 5a
        E 0 82 47 64
        E 0 83 37 64
        E 0 8b 3c 64
        E 0 8f 30 64
        E 0 92 48 64
        E 0 93 37 5a
        E 0 9f 30 5a
        E 0 82 48 64
        E 0 83 37 64
        E 0 92 43 64
        E 0 93 37 5a
        E 0 9b 48 64
        E 0 82 43 64
        E 0 83 37 64
        E 0 8b 48 64
        E 0 8f 30 64
        E 0 92 3f 66
        E 0 92 3c 64
        E 0 93 37 5a
        E 0 9b 48 64
        E 0 9f 27 5b
        E 0 82 3f 66
        E 0 82 3c 64
        E 0 83 37 64
        E 0 92 3f 66
        E 0 92 3c 64
        E 0 93 37 5a
        E 0 82 3f 66
        E 0 82 3c 64
        E 0 83 37 64
        E 0 8b 48 64
        E 0 8f 27 66
        E 0 92 3f 66
        E 0 92 3c 64
        E 0 93 37 5a
        E 0 9b 48 64
        E 0 9f 27 5b
        E 0 82 3f 66
        E 0 82 3c 64
        E 0 83 37 64
        E 0 92 3f 66
        E 0 92 3c 64
        E 0 93 37 5a
        E 0 82 3f 66
        E 0 82 3c 64
        E 0 83 37 64
        E 0 8f 27 66
        E 0 92 3f 66
        E 0 92 3c 64
        E 0 93 37 5a
        E 0 9f 27 5b
        E 0 82 3f 66
        E 0 82 3c 64
        E 0 83 37 64
        E 0 8b 48 64
        E 0 92 3f 66
        E 0 92 3c 64
        E 0 93 37 5a
        E 0 9b 48 64
        E 0 82 3f 66
        E 0 82 3c 64
        E 0 83 37 64
        E 0 8b 48 64
        E 0 8f 27 66
        E 0 92 3e 64
        E 0 92 3c 64
        E 0 93 38 5b
        E 0 9b 48 64
        E 0 9f 29 5a
        E 0 82 3e 64
        E 0 82 3c 64
        E 0 83 38 66
        E 0 92 3e 64
        E 0 92 3c 64
        E 1 93 38 5b
        E 0 82 3e 64
        E 0 82 3c 64
        E 0 83 38 66
        E 0 8b 48 64
        E 0 8f 29 64
        E 0 92 3e 64
        E 0 92 3c 64
        E 0 93 38 5b
        E 0 9b 48 64
        E 0 9f 29 5a
        E 0 82 3e 64
        E 0 82 3c 64
        E 0 83 38 66
        E 0 92 3e 64
        E 0 92 3c 64
        E 0 93 38 5b
        E 0 82 3e 64
        E 0 82 3c 64
        E 0 83 38 66
        E 0 8f 29 64
        E 0 92 3e 64
        E 0 92 3c 64
        E 0 93 38 5b
        E 0 9f 29 5a
        E 0 82 3e 64
        E 0 82 3c 64
        E 0 83 38 66
        E 0 8b 48 64
        E 0 92 3e 64
        E 0 92 3c 64
        E 0 93 38 5b
        E 0 9b 48 64
        E 0 82 3e 64
        E 0 82 3c 64
        E 0 83 38 66
        E 0 8b 48 64
        E 0 8f 29 64
        E 0 92 3e 64
        E 0 92 3b 64
        E 0 93 37 5a
        E 0 9b 43 64
        E 0 9f 2b 5a
        E 0 82 3e 64
        E 0 82 3b 64
        E 0 83 37 64
        E 0 92 3e 64
        E 0 92 3b 64
        E 0 93 37 5a
        E 0 82 3e 64
        E 0 82 3b 64
        E 0 83 37 64
        E 0 8b 43 64
        E 0 8f 2b 64
        E 0 92 3e 64
        E 0 92 3b 64
        E 0 93 37 5a
        E 0 9b 47 64
        E 0 9f 2b 5a
        E 0 82 3e 64
        E 0 82 3b 64
        E 0 83 37 64
        E 0 92 3e 64
        E 0 92 3b 64
        E 0 93 37 5a
        E 0 82 3e 64
        E 0 82 3b 64
        E 0 83 37 64
        E 0 8f 2b 64
        E 0 92 3e 64
        E 0 92 3b 64
        E 0 93 37 5a
        E 0 9f 2b 5a
        E 0 82 3e 64
        E 0 82 3b 64
        E 0 83 37 64
        E 0 8b 47 64
        E 0 92 3e 64
        E 0 92 3b 64
        E 0 93 37 5a
        E 0 9b 48 64
        E 0 82 3e 64
        E 0 82 3b 64
        E 0 83 37 64
        E 0 8b 48 64
        E 0 8f 2b 64
        E 0 92 3c 64
        E 0 93 37 5a
        E 0 9b 48 64
        E 0 9f 30 5a
        E 0 82 3c 64
        E 0 83 37 64
        E 0 92 4f 64
        E 1 93 37 5a
        E 0 82 4f 64
        E 0 83 37 64
        E 0 8f 30 64
        E 0 92 4b 66
        E 0 93 37 5a
        E 0 9f 30 5a
        E 0 82 4b 66
        E 0 83 37 64
        E 0 92 47 64
        E 0 93 37 5a
        E 0 82 47 64
        E 0 83 37 64
        E 0 8b 48 64
        E 0 8f 30 64
        E 0 92 48 64
        E 0 93 37 5a
        E 0 9f 30 5a
        E 0 82 48 64
        E 0 83 37 64
        E 0 92 3f 66
        E 0 93 37 5a
        E 0 82 3f 66
        E 0 83 37 64
        E 0 8f 30 64
        E 0 92 41 64
        E 0 93 38 5b
        E 0 9f 35 5a
        E 0 82 41 64
        E 0 83 38 66
        E 0 92 4b 66
        E 0 93 38 5b
        E 0 82 4b 66
        E 0 83 38 66
        E 0 8f 35 64
        E 0 92 4a 64
        E 0 93 3e 5a
        E 0 9f 36 5a
        E 0 82 4a 64
        E 0 83 3e 64
        E 0 92 48 64
        E 0 93 3e 5a
        E 0 82 48 64
        E 0 83 3e 64
        E 0 8f 36 64
        E 0 92 43 64
        E 0 93 3e 5a
        E 0 9b 43 64
        E 0 9f 37 5a
        E 0 82 43 64
        E 0 83 3e 64
        E 0 92 47 64
        E 0 93 3e 5a
        E 0 82 47 64
        E 0 83 3e 64
        E 0 8b 43 64
        E 0 8f 37 64
        E 0 92 48 64
        E 0 93 3f 5b
        E 0 9b 43 64
        E 0 9f 30 5a
        E 0 82 48 64
        E 0 83 3f 66
        E 0 92 4f 64
        E 0 93 3f 5b
        E 0 82 4f 64
        E 0 83 3f 66
        E 0 8b 43 64
        E 0 8f 30 64
        E 0 92 4b 66
        E 0 93 3f 5b
        E 0 9b 48 64
        E 0 9f 30 5a
        E 0 82 4b 66
        E 0 83 3f 66
        E 0 92 48 64
        E 0 93 3f 5b
        E 1 82 48 64
        E 0 83 3f 66
        E 0 8f 30 64
        E 0 92 3f 66
        E 0 93 3f 5b
        E 0 9f 30 5a
        E 0 82 3f 66
        E 0 83 3f 66
        E 0 8b 48 64
        E 0 92 48 64
        E 0 93 3f 5b
        E 0 9b 48 64
        E 0 82 48 64
        E 0 83 3f 66
        E 0 8b 48 64
        E 0 8f 30 64
        E 0 92 49 66
        E 0 93 41 5a
        E 0 9b 49 66
        E 0 9f 2e 5b
        E 0 82 49 66
        E 0 83 41 64
        E 0 8b 49 66
        E 0 92 4d 64
        E 0 93 41 5a
        E 0 9b 48 64
        E 0 82 4d 64
        E 0 83 41 64
        E 0 8b 48 64
        E 0 8f 2e 66
        E 0 92 52 66
        E 0 93 41 5a
        E 0 9b 49 66
        E 0 9f 2e 5b
        E 0 82 52 66
        E 0 83 41 64
        E 0 92 4d 64
        E 0 93 41 5a
        E 0 82 4d 64
        E 0 83 41 64
        E 0 8b 49 66
        E 0 8f 2e 66
        E 0 92 49 66
        E 0 93 41 5a
        E 0 9b 49 66
        E 0 9f 2e 5b
        E 0 82 49 66
        E 0 83 41 64
        E 0 92 41 64
        E 0 93 3d 5b
        E 0 82 41 64
        E 0 83 3d 66
        E 0 8b 49 66
        E 0 8f 2e 66
        E 0 92 3f 66
        E 0 93 3a 5b
        E 0 9b 49 66
        E 1 9f 33 5b
        E 0 82 3f 66
        E 0 83 3a 66
        E 0 8b 49 66
        E 0 92 43 64
        E 0 93 3a 5b
        E 0 9b 46 66
        E 38403 82 43 64
        E 0 83 3a 66
        E 0 8b 46 66
        E 0 8f 33 66
        E 0 92 46 66
        E 0 93 3a 5b
        E 0 9b 3f 66
        E 0 9f 33 5b
        E 0 82 46 66
        E 0 83 3a 66
        E 0 8b 3f 66
        E 0 92 49 66
        E 0 93 3a 5b
        E 0 9b 43 64
        E 0 82 49 66
        E 0 83 3a 66
        E 0 8b 43 64
        E 0 8f 33 66
        E 0 92 4f 64
        E 0 93 3a 5b
        E 0 9b 46 66
        E 0 9f 33 5b
        E 0 82 4f 64
        E 0 83 3a 66
        E 0 8b 46 66
        E 0 92 52 66
        E 0 93 3f 5b
        E 0 9b 49 66
        E 0 82 52 66
        E 0 83 3f 66
        E 0 8b 49 66
        E 0 8f 33 66
        E 0 92 50 66
        E 0 93 3f 5b
        E 0 9b 48 64
        E 0 9f 2c 5b
        E 0 82 50 66
        E 0 83 3f 66
        E 0 8b 48 64
        E 0 92 4b 66
        E 0 93 3f 5b
        E 0 9b 46 66
        E 0 82 4b 66
        E 0 83 3f 66
        E 0 8b 46 66
        E 0 8f 2c 66
        E 0 92 48 64
        E 0 93 3f 5b
        E 0 9b 44 66
        E 0 9f 2c 5b
        E 1 82 48 64
        E 0 83 3f 66
        E 0 92 44 66
        E 0 93 3f 5b
        E 0 82 44 66
        E 0 83 3f 66
        E 0 8b 44 66
        E 0 8f 2c 66
        E 0 92 3f 66
        E 0 93 3f 5b
        E 0 9f 2c 5b
        E 0 82 3f 66
        E 0 83 3f 66
        E 0 92 48 64
        E 0 93 3f 5b
        E 0 9b 44 66
        E 0 82 48 64
        E 0 83 3f 66
        E 0 8b 44 66
        E 0 8f 2c 66
        E 0 92 49 66
        E 0 93 41 5a
        E 0 9b 41 64
        E 0 9f 31 5b
        E 0 82 49 66
        E 0 83 41 64
        E 0 92 46 66
        E 0 93 41 5a
        E 0 82 46 66
        E 0 83 41 64
        E 0 8b 41 64
        E 0 8f 31 66
        E 0 92 4d 64
        E 0 93 41 5a
        E 0 9b 49 66
        E 0 9f 31 5b
        E 0 82 4d 64
        E 0 83 41 64
        E 0 92 49 66
        E 0 93 41 5a
        E 0 82 49 66
        E 0 83 41 64
        E 0 8f 31 66
        E 0 92 52 66
        E 0 93 41 5a
        E 0 9f 31 5b
        E 0 82 52 66
        E 0 83 41 64
        E 0 8b 49 66
        E 0 92 4d 64
        E 0 93 41 5a
        E 0 9b 46 66
        E 0 82 4d 64
        E 0 83 41 64
        E 0 8b 46 66
        E 0 8f 31 66
        E 0 92 4f 64
        E 0 93 3a 5b
        E 0 9b 43 64
        E 0 9f 33 5b
        E 0 82 4f 64
        E 0 83 3a 66
        E 0 8b 43 64
        E 0 92 3f 66
        E 0 93 3a 5b
        E 0 9b 41 64
        E 0 82 3f 66
        E 0 83 3a 66
        E 0 8b 41 64
        E 0 8f 33 66
        E 0 92 43 64
        E 0 93 3a 5b
        E 0 9b 3f 66
        E 0 9f 33 5b
        E 0 82 43 64
        E 0 83 3a 66
        E 0 92 46 66
        E 0 93 3a 5b
        E 0 82 46 66
        E 0 83 3a 66
        E 0 8b 3f 66
        E 0 8f 33 66
        E 0 92 4b 66
        E 0 93 3a 5b
        E 0 9f 33 5b
        E 0 82 4b 66
        E 0 83 3a 66
        E 0 92 43 64
        E 1 93 3a 5b
        E 0 9b 43 64
        E 0 82 43 64
        E 0 83 3a 66
        E 0 8b 43 64
        E 0 8f 33 66
        E 0 92 44 66
        E 0 92 3c 64
        E 0 93 3f 5b
        E 0 9b 44 66
        E 0 9f 30 5a
        E 0 82 44 66
        E 0 82 3c 64
        E 0 83 3f 66
        E 0 92 44 66
        E 0 92 3c 64
        E 0 93 3f 5b
        E 0 82 44 66
        E 0 82 3c 64
        E 0 83 3f 66
        E 0 8b 44 66
        E 0 8f 30 64
        E 0 92 44 66
        E 0 92 3c 64
        E 0 93 3f 5b
        E 0 9b 44 66
        E 0 9f 30 5a
        E 0 82 44 66
        E 0 82 3c 64
        E 0 83 3f 66
        E 0 92 44 66
        E 0 92 3c 64
        E 0 93 3f 5b
        E 0 82 44 66
        E 0 82 3c 64
        E 0 83 3f 66
        E 0 8f 30 64
        E 0 92 44 66
        E 0 92 3c 64
        E 0 93 3f 5b
        E 0 9f 30 5a
        E 0 82 44 66
        E 0 82 3c 64
        E 0 83 3f 66
        E 0 8b 44 66
        E 0 92 44 66
        E 0 92 3c 64
        E 0 93 3f 5b
        E 0 9b 44 66
        E 0 82 44 66
        E 0 82 3c 64
        E 0 83 3f 66
        E 0 8b 44 66
        E 0 8f 30 64
        E 0 92 44 66
        E 0 92 3a 66
        E 0 93 41 5a
        E 1 9b 44 66
        E 0 9f 31 5b
        E 0 82 44 66
        E 0 82 3a 66
        E 0 83 41 64
        E 0 92 44 66
        E 0 92 3a 66
        E 0 93 41 5a
        E 0 82 44 66
        E 0 82 3a 66
        E 0 83 41 64
        E 0 8b 44 66
        E 0 8f 31 66
        E 0 92 44 66
        E 0 92 3a 66
        E 0 93 41 5a
        E 0 9b 44 66
        E 0 9f 31 5b
        E 0 82 44 66
        E 0 82 3a 66
        E 0 83 41 64
        E 0 92 44 66
        E 0 92 3a 66
        E 0 93 41 5a
        E 0 82 44 66
        E 0 82 3a 66
        E 0 83 41 64
        E 0 8f 31 66
        E 0 92 44 66
        E 0 92 3a 66
        E 0 93 41 5a
        E 0 9f 31 5b
        E 0 82 44 66
        E 0 82 3a 66
        E 0 83 41 64
        E 0 8b 44 66
        E 0 92 44 66
        E 0 92 3a 66
        E 0 93 41 5a
        E 0 9b 44 66
        E 0 82 44 66
        E 0 82 3a 66
        E 0 83 41 64
        E 0 8b 44 66
        E 0 8f 31 66
        E 0 92 43 64
        E 0 92 3a 66
        E 0 93 3f 5b
        E 0 9b 3f 66
        E 0 9f 33 5b
        E 0 82 43 64
        E 0 82 3a 66
        E 0 83 3f 66
        E 0 92 43 64
        E 0 92 3a 66
        E 0 93 3f 5b
        E 0 82 43 64
        E 0 82 3a 66
        E 0 83 3f 66
        E 0 8b 3f 66
        E 0 8f 33 66
        E 0 92 43 64
        E 0 92 3a 66
        E 0 93 3f 5b
        E 1 9b 46 66
        E 0 9f 33 5b
        E 0 82 43 64
        E 0 82 3a 66
        E 0 83 3f 66
        E 0 92 43 64
        E 0 92 3a 66
        E 0 93 3f 5b
        E 0 82 43 64
        E 0 82 3a 66
        E 0 83 3f 66
        E 0 8f 33 66
        E 0 92 43 64
        E 0 92 3a 66
        E 0 93 3f 5b
        E 0 9f 33 5b
        E 0 82 43 64
        E 0 82 3a 66
        E 0 83 3f 66
        E 0 8b 46 66
        E 0 92 43 64
        E 0 92 3a 66
        E 0 93 3f 5b
        E 0 9b 44 66
        E 0 82 43 64
        E 0 82 3a 66
        E 0 83 3f 66
        E 0 8b 44 66
        E 0 8f 33 66
        E 0 92 44 66
        E 0 93 3f 5b
        E 0 9b 44 66
        E 0 9f 2c 5b
        E 0 82 44 66
        E 0 83 3f 66
        E 0 92 48 64
        E 0 93 3c 5a
        E 0 82 48 64
        E 0 83 3c 64
        E 0 8f 2c 66
        E 0 92 4d 64
        E 0 93 3c 5a
        E 0 9f 2c 5b
        E 0 82 4d 64
        E 0 83 3c 64
        E 0 92 50 66
        E 0 93 3c 5a
        E 0 82 50 66
        E 0 83 3c 64
        E 0 8b 44 66
        E 0 8f 2c 66
        E 0 92 4d 64
        E 0 93 3c 5a
        E 0 9f 2c 5b
        E 0 82 4d 64
        E 0 83 3c 64
        E 0 92 48 64
        E 1 93 3c 5a
        E 0 82 48 64
        E 0 83 3c 64
        E 0 8f 2c 66
        E 0 92 49 66
        E 0 93 41 5a
        E 0 9f 2e 5b
        E 0 82 49 66
        E 0 83 41 64
        E 0 92 46 66
        E 0 93 40 5a
        E 0 82 46 66
        E 0 83 40 64
        E 0 8f 2e 66
        E 0 92 4f 64
        E 0 93 40 5a
        E 0 9f 30 5a
        E 0 82 4f 64
        E 0 83 40 64
        E 0 92 4c 64
        E 0 93 40 5a
        E 0 82 4c 64
        E 0 83 40 64
        E 0 8f 30 64
        E 0 92 52 66
        E 0 93 40 5a
        E 0 9b 48 64
        E 0 9f 30 5a
        E 0 82 52 66
        E 0 83 40 64
        E 0 92 4f 64
        E 0 93 40 5a
        E 0 82 4f 64
        E 0 83 40 64
        E 0 8b 48 64
        E 0 8f 30 64
        E 0 92 50 66
        E 0 93 3c 5a
        E 0 9b 48 64
        E 0 9f 35 5a
        E 0 82 50 66
        E 0 83 3c 64
        E 0 92 48 64
        E 0 93 3c 5a
        E 0 82 48 64
        E 0 83 3c 64
        E 0 8b 48 64
        E 0 8f 35 64
        E 0 92 46 66
        E 1 93 3c 5a
        E 0 9b 46 66
        E 0 9f 35 5a
        E 0 82 46 66
        E 0 83 3c 64
        E 0 8b 46 66
        E 0 92 44 66
        E 0 93 3c 5a
        E 0 9b 44 66
        E 0 82 44 66
        E 0 83 3c 64
        E 0 8b 44 66
        E 0 8f 35 64
        E 0 92 43 64
        E 0 93 3c 5a
        E 0 9b 43 64
        E 0 9f 35 5a
        E 0 82 43 64
        E 0 83 3c 64
        E 0 8b 43 64
        E 0 92 41 64
        E 0 93 44 5b
        E 0 9b 41 64
        E 0 82 41 64
        E 0 83 44 66
        E 0 8b 41 64
        E 0 8f 35 64
        E 0 92 49 66
        E 0 93 43 5a
        E 0 9b 49 66
        E 0 9f 35 5a
        E 0 82 49 66
        E 0 83 43 64
        E 0 8b 49 66
        E 0 92 4f 64
        E 1 93 43 5a
        E 0 9b 48 64
        E 0 82 4f 64
        E 0 83 43 64
        E 0 8b 48 64
        E 0 8f 35 64
        E 0 92 52 66
        E 0 93 43 5a
        E 0 9b 49 66
        E 0 9f 35 5a
        E 0 82 52 66
        E 0 83 43 64
        E 0 92 49 66
        E 0 93 43 5a
        E 0 82 49 66
        E 0 83 43 64
        E 0 8b 49 66
        E 0 8f 35 64
        E 0 92 4b 66
        E 0 93 43 5a
        E 0 9f 35 5a
        E 0 82 4b 66
        E 0 83 43 64
        E 0 92 47 64
        E 0 93 43 5a
        E 0 9b 47 66
        E 0 82 47 64
        E 0 83 43 64
        E 0 8b 47 66
        E 0 8f 35 64
        E 1 92 48 64
        E 0 93 43 5a
        E 0 9b 48 64
        E 0 9f 33 5b
        E 0 82 48 64
        E 0 83 43 64
        E 0 92 4d 64
        E 0 93 41 5a
        E 0 82 4d 64
        E 0 83 41 64
        E 0 8b 48 64
        E 0 8f 33 66
        E 0 92 50 66
        E 0 93 41 5a
        E 0 9b 48 64
        E 0 9f 33 5b
        E 0 82 50 66
        E 0 83 41 64
        E 0 92 48 64
        E 0 93 41 5a
        E 0 82 48 64
        E 0 83 41 64
        E 0 8b 48 64
        E 0 8f 33 66
        E 0 92 49 66
        E 0 93 41 5a
        E 0 9b 49 66
        E 1 9f 33 5b
        E 0 82 49 66
        E 0 83 41 64
        E 0 8b 49 66
        E 0 92 45 64
        E 0 93 41 5a
        E 0 9b 45 64
        E 0 82 45 64
        E 0 83 41 64
        E 0 8b 45 64
        E 0 8f 33 66
        E 0 92 46 66
        E 0 93 41 5a
        E 0 9b 46 66
        E 0 9f 31 5b
        E 0 82 46 66
        E 0 83 41 64
        E 0 8b 46 66
        E 0 92 4c 64
        E 0 93 40 5a
        E 0 9b 45 64
        E 0 82 4c 64
        E 0 83 40 64
        E 0 8b 45 64
        E 0 8f 31 66
        E 0 92 4f 64
        E 0 93 40 5a
        E 0 9b 46 66
        E 0 9f 31 5b
        E 0 82 4f 64
        E 0 83 40 64
        E 0 92 46 66
        E 0 93 40 5a
        E 0 82 46 66
        E 0 83 40 64
        E 0 8b 46 66
        E 0 8f 31 66
        E 0 92 48 64
        E 0 93 40 5a
        E 0 9f 31 5b
        E 0 82 48 64
        E 0 83 40 64
        E 0 92 43 64
        E 0 93 40 5a
        E 0 9b 46 66
        E 0 82 43 64
        E 0 83 40 64
        E 0 8b 46 66
        E 0 8f 31 66
        E 0 92 3c 64
        E 0 93 37 5a
        E 0 9b 3c 64
        E 0 9f 30 5a
        E 0 82 3c 64
        E 0 83 37 64
        E 0 8b 3c 64
        E 0 92 40 64
        E 0 93 37 5a
        E 0 9b 40 64
        E 0 82 40 64
        E 1 83 37 64
        E 0 8b 40 64
        E 0 8f 30 64
        E 0 92 43 64
        E 0 93 37 5a
        E 0 9b 43 64
        E 0 9f 30 5a
        E 0 82 43 64
        E 0 83 37 64
        E 0 8b 43 64
        E 0 92 46 66
        E 0 93 37 5a
        E 0 9b 46 66
        E 0 82 46 66
        E 0 83 37 64
        E 0 8b 46 66
        E 0 8f 30 64
        E 0 92 49 66
        E 0 93 40 5a
        E 0 9b 49 66
        E 0 9f 30 5a
        E 0 82 49 66
        E 0 83 40 64
        E 0 8b 49 66
        E 0 92 46 66
        E 0 93 40 5a
        E 0 9b 46 66
        E 0 82 46 66
        E 0 83 40 64
        E 0 8b 46 66
        E 0 8f 30 64
        E 0 92 44 66
        E 0 93 3c 5a
        E 0 9b 44 66
        E 0 9f 35 5a
        E 0 82 44 66
        E 0 83 3c 64
        E 0 8b 44 66
        E 0 92 41 64
        E 0 93 3c 5a
        E 0 9b 43 64
        E 0 82 41 64
        E 0 83 3c 64
        E 0 8b 43 64
        E 0 8f 35 64
        E 0 92 48 64
        E 0 93 3c 5a
        E 0 9b 41 64
        E 0 9f 35 5a
        E 0 82 48 64
        E 0 83 3c 64
        E 0 92 44 66
        E 0 93 3c 5a
        E 0 82 44 66
        E 1 83 3c 64
        E 0 8b 41 64
        E 0 8f 35 64
        E 0 92 50 66
        E 0 93 3c 5a
        E 0 9f 35 5a
        E 0 82 50 66
        E 0 83 3c 64
        E 0 92 48 64
        E 0 93 38 5b
        E 0 9b 48 64
        E 0 82 48 64
        E 0 83 38 66
        E 0 8b 48 64
        E 0 8f 35 64
        E 0 92 3c 64
        E 0 93 37 5a
        E 0 9b 3c 64
        E 0 9f 30 5a
        E 0 82 3c 64
        E 0 83 37 64
        E 0 8b 3c 64
        E 0 92 40 64
        E 0 93 37 5a
        E 0 9b 40 64
        E 0 82 40 64
        E 0 83 37 64
        E 0 8b 40 64
        E 0 8f 30 64
        E 0 92 43 64
        E 0 93 37 5a
        E 0 9b 43 64
        E 0 9f 30 5a
        E 0 82 43 64
        E 0 83 37 64
        E 0 8b 43 64
        E 0 92 46 66
        E 0 93 37 5a
        E 0 9b 46 66
        E 0 82 46 66
        E 0 83 37 64
        E 0 8b 46 66
        E 0 8f 30 64
        E 0 92 49 66
        E 0 93 40 5a
        E 0 9b 49 66
        E 0 9f 30 5a
        E 0 82 49 66
        E 0 83 40 64
        E 0 8b 49 66
        E 0 92 46 66
        E 0 93 40 5a
        E 0 9b 46 66
        E 0 82 46 66
        E 0 83 40 64
        E 0 8b 46 66
        E 0 8f 30 64
        E 0 92 44 66
        E 0 93 3c 5a
        E 0 9b 44 66
        E 0 9f 35 5a
        E 0 82 44 66
        E 0 83 3c 64
        E 0 8b 44 66
        E 0 92 41 64
        E 0 93 3c 5a
        E 0 9b 43 64
        E 0 82 41 64
        E 0 83 3c 64
        E 0 8b 43 64
        E 0 8f 35 64
        E 0 92 48 64
        E 0 93 3c 5a
        E 0 9b 41 64
        E 0 9f 35 5a
        E 0 82 48 64
        E 0 83 3c 64
        E 0 92 44 66
        E 0 93 3c 5a
        E 0 82 44 66
        E 0 83 3c 64
        E 0 8b 41 64
        E 0 8f 35 64
        E 0 92 4d 64
        E 0 93 3c 5a
        E 0 9f 35 5a
        E 0 82 4d 64
        E 0 83 3c 64
        E 0 92 48 64
        E 0 93 3c 5a
        E 0 9b 41 64
        E 0 82 48 64
        E 0 83 3c 64
        E 0 8b 41 64
        E 0 8f 35 64
        E 0 92 41 64
        E 0 92 38 66
        E 0 93 3c 5a
        E 1 9b 41 64
        E 0 9f 2c 5b
        E 0 82 41 64
        E 0 82 38 66
        E 0 83 3c 64
        E 0 92 41 64
        E 0 92 38 66
        E 0 93 3c 5a
        E 0 82 41 64
        E 0 82 38 66
        E 0 83 3c 64
        E 0 8b 41 64
        E 0 8f 2c 66
        E 0 92 41 64
        E 0 92 38 66
        E 0 93 3c 5a
        E 0 9b 41 64
        E 0 9f 2c 5b
        E 0 82 41 64
        E 0 82 38 66
        E 0 83 3c 64
        E 0 92 41 64
        E 0 92 38 66
        E 0 93 3c 5a
        E 0 82 41 64
        E 0 82 38 66
        E 0 83 3c 64
        E 0 8f 2c 66
        E 0 92 41 64
        E 0 92 38 66
        E 0 93 3c 5a
        E 0 9f 2c 5b
        E 0 82 41 64
        E 0 82 38 66
        E 0 83 3c 64
        E 0 8b 41 64
        E 0 92 41 64
        E 0 92 38 66
        E 0 93 3c 5a
        E 0 9b 41 64
        E 0 82 41 64
        E 0 82 38 66
        E 0 83 3c 64
        E 0 8b 41 64
        E 0 8f 2c 66
        E 0 92 41 64
        E 0 92 37 64
        E 0 93 3d 5b
        E 0 9b 41 64
        E 0 9f 2e 5b
        E 38403 82 41 64
        E 0 82 37 64
        E 0 83 3d 66
        E 0 92 41 64
        E 0 92 37 64
        E 0 93 3d 5b
        E 0 82 41 64
        E 0 82 37 64
        E 0 83 3d 66
        E 0 8b 41 64
        E 0 8f 2e 66
        E 0 92 41 64
        E 0 92 37 64
        E 0 93 3d 5b
        E 0 9b 41 64
        E 0 9f 2e 5b
        E 1 82 41 64
        E 0 82 37 64
        E 0 83 3d 66
        E 0 92 41 64
        E 0 92 37 64
        E 0 93 3d 5b
        E 0 82 41 64
        E 0 82 37 64
        E 0 83 3d 66
        E 0 8f 2e 66
        E 0 92 41 64
        E 0 92 37 64
        E 0 93 3d 5b
        E 0 9f 2e 5b
        E 0 82 41 64
        E 0 82 37 64
        E 0 83 3d 66
        E 0 8b 41 64
        E 0 92 41 64
        E 0 92 37 64
        E 0 93 3d 5b
        E 0 9b 41 64
        E 0 82 41 64
        E 0 82 37 64
        E 0 83 3d 66
        E 0 8b 41 64
        E 0 8f 2e 66
        E 0 92 40 64
        E 0 92 37 64
        E 0 93 3c 5a
        E 0 9b 3c 64
        E 0 9f 30 5a
        E 0 82 40 64
        E 0 82 37 64
        E 0 83 3c 64
        E 0 92 40 64
        E 0 92 37 64
        E 0 93 3c 5a
        E 0 82 40 64
        E 0 82 37 64
        E 0 83 3c 64
        E 0 8b 3c 64
        E 0 8f 30 64
        E 0 92 40 64
        E 0 92 37 64
        E 0 93 3c 5a
        E 0 9b 43 64
        E 0 9f 30 5a
        E 0 82 40 64
        E 0 82 37 64
        E 0 83 3c 64
        E 0 92 40 64
        E 0 92 37 64
        E 0 93 3c 5a
        E 0 82 40 64
        E 0 82 37 64
        E 0 83 3c 64
        E 0 8f 30 64
        E 0 92 40 64
        E 0 92 37 64
        E 0 93 3c 5a
        E 1 9f 30 5a
        E 0 82 40 64
        E 0 82 37 64
        E 0 83 3c 64
        E 0 8b 43 64
        E 0 92 40 64
        E 0 92 37 64
        E 0 93 3c 5a
        E 0 9b 41 64
        E 0 82 40 64
        E 0 82 37 64
        E 0 83 3c 64
        E 0 8b 41 64
        E 0 8f 30 64
        E 0 92 41 64
        E 0 92 38 66
        E 0 93 3c 5a
        E 0 9b 41 64
        E 0 9f 29 5a
        E 0 82 41 64
        E 0 82 38 66
        E 0 83 3c 64
        E 0 92 41 64
        E 0 92 38 66
        E 0 93 3c 5a
        E 0 82 41 64
        E 0 82 38 66
        E 0 83 3c 64
        E 0 8f 29 64
        E 0 92 41 64
        E 0 92 38 66
        E 0 93 3c 5a
        E 0 9f 29 5a
        E 0 82 41 64
        E 0 82 38 66
        E 0 83 3c 64
        E 0 92 41 64
        E 0 92 38 66
        E 0 93 3c 5a
        E 0 82 41 64
        E 0 82 38 66
        E 0 83 3c 64
        E 0 8f 29 64
        E 0 92 41 64
        E 0 92 38 66
        E 0 93 3c 5a
        E 0 9f 29 5a
        E 0 82 41 64
        E 0 82 38 66
        E 0 83 3c 64
        E 0 92 41 64
        E 0 92 38 66
        E 0 93 3c 5a
        E 0 82 41 64
        E 0 82 38 66
        E 0 83 3c 64
        E 0 8b 41 64
        E 0 8f 29 64
        E 0 92 41 64
        E 0 92 37 64
        E 0 93 3d 5b
        E 0 9f 2e 5b
        E 0 82 41 64
        E 0 82 37 64
        E 0 83 3d 66
        E 0 92 41 64
        E 0 92 37 64
        E 0 93 3d 5b
        E 0 82 41 64
        E 0 82 37 64
        E 0 83 3d 66
        E 0 8f 2e 66
        E 0 92 41 64
        E 0 92 37 64
        E 0 93 3d 5b
        E 0 9f 2e 5b
        E 0 82 41 64
        E 0 82 37 64
        E 0 83 3d 66
        E 0 92 41 64
        E 0 92 37 64
        E 0 93 3d 5b
        E 0 82 41 64
        E 0 82 37 64
        E 0 83 3d 66
        E 0 8f 2e 66
        E 0 92 41 64
        E 0 92 37 64
        E 0 93 3d 5b
        E 0 9f 2e 5b
        E 0 82 41 64
        E 0 82 37 64
        E 0 83 3d 66
        E 0 92 41 64
        E 0 92 37 64
        E 0 93 3d 5b
        E 0 82 41 64
        E 0 82 37 64
        E 1 83 3d 66
        E 0 8f 2e 66
        E 0 92 40 64
        E 0 92 37 64
        E 0 93 3c 5a
        E 0 9f 30 5a
        E 0 82 40 64
        E 0 82 37 64
        E 0 83 3c 64
        E 0 92 40 64
        E 0 92 37 64
        E 0 93 3c 5a
        E 0 82 40 64
        E 0 82 37 64
        E 0 83 3c 64
        E 0 8f 30 64
        E 0 92 40 64
        E 0 92 37 64
        E 0 93 3c 5a
        E 0 9f 30 5a
        E 0 82 40 64
        E 0 82 37 64
        E 0 83 3c 64
        E 0 92 40 64
        E 0 92 37 64
        E 0 93 3c 5a
        E 0 82 40 64
        E 0 82 37 64
        E 0 83 3c 64
        E 0 8f 30 64
        E 0 92 40 64
        E 0 92 37 64
        E 0 93 3c 5a
        E 0 9f 30 5a
        E 0 82 40 64
        E 0 82 37 64
        E 0 83 3c 64
        E 0 92 40 64
        E 0 92 37 64
        E 0 93 3c 5a
        E 0 82 40 64
        E 0 82 37 64
        E 0 83 3c 64
        E 0 8f 30 64
        E 0 92 41 64
        E 0 92 38 66
        E 0 93 3c 5a
        E 0 9f 29 5a
        E 0 82 41 64
        E 0 82 38 66
        E 0 83 3c 64
        E 0 8f 29 64
        E 0 96 41 64
        E 0 9e 41 64
        E 0 9f 35 5a
        E 0 86 41 64
        E 0 8e 41 64
        E 0 96 41 64
        E 0 9e 41 64
        E 0 86 41 64
        E 0 8e 41 64
        E 0 96 41 64
        E 1 9e 41 64
        E 0 86 41 64
        E 0 8e 41 64
        E 0 96 41 64
        E 0 9e 41 64
        E 0 86 41 64
        E 0 8e 41 64
        E 0 96 43 64
        E 0 9e 43 64
        E 0 86 43 64
        E 0 8e 43 64
        E 0 96 45 64
        E 0 9e 45 64
        E 0 86 45 64
        E 0 8e 45 64
        E 0 96 45 64
        E 0 9e 45 64
        E 0 86 45 64
        E 0 8e 45 64
        E 0 96 46 66
        E 0 9e 46 66
        E 0 86 46 66
        E 0 8e 46 66
        E 0 96 48 64
        E 0 9e 48 64
        E 0 86 48 64
        E 0 8e 48 64
        E 0 8f 35 64
        E 0 96 41 64
        E 0 9e 41 64
        E 0 9f 35 5a
        E 0 86 41 64
        E 0 8e 41 64
        E 0 96 41 64
        E 0 9e 41 64
        E 0 86 41 64
        E 0 8e 41 64
        E 0 96 45 64
        E 0 9e 45 64
        E 0 86 45 64
        E 0 8e 45 64
        E 0 96 45 64
        E 0 9e 45 64
        E 0 86 45 64
        E 0 8e 45 64
        E 0 96 45 64
        E 0 9e 45 64
        E 0 86 45 64
        E 0 8e 45 64
        E 0 96 43 64
        E 0 9e 43 64
        E 0 86 43 64
        E 0 8e 43 64
        E 0 96 41 64
        E 0 9e 41 64
        E 0 86 41 64
        E 0 8e 41 64
        E 0 8f 35 64
        E 0 96 47 64
        E 0 9e 47 64
        E 0 9f 35 5a
        E 0 86 47 64
        E 0 8e 47 64
        E 0 96 47 64
        E 0 9e 47 64
        E 0 86 47 64
        E 0 8e 47 64
        E 0 96 47 64
        E 0 9e 47 64
        E 0 86 47 64
        E 0 8e 47 64
        E 0 96 48 64
        E 0 9e 48 64
        E 0 86 48 64
        E 0 8e 48 64
        E 0 8f 35 64
        E 0 96 48 64
        E 0 9e 48 64
        E 0 9f 34 5a
        E 0 86 48 64
        E 0 8e 48 64
        E 0 96 43 64
        E 0 9e 43 64
        E 0 86 43 64
        E 0 8e 43 64
        E 0 96 48 64
        E 0 9e 48 64
        E 0 86 48 64
        E 0 8e 48 64
        E 0 96 46 66
        E 0 9e 46 66
        E 0 86 46 66
        E 0 8e 46 66
        E 0 8f 34 64
        E 0 96 45 64
        E 0 9e 45 64
        E 0 9f 35 5a
        E 0 86 45 64
        E 0 8e 45 64
        E 0 96 46 66
        E 0 9e 46 66
        E 0 86 46 66
        E 0 8e 46 66
        E 0 96 48 64
        E 0 9e 48 64
        E 0 86 48 64
        E 0 8e 48 64
        E 0 8f 35 64
        E 0 96 43 64
        E 0 9e 43 64
        E 0 9f 37 5a
        E 0 86 43 64
        E 1 8e 43 64
        E 0 8f 37 64
        E 0 9f 30 5a
        E 0 8f 30 64
        E 0 9f 30 5a
        E 0 96 46 66
        E 0 9e 46 66
        E 38403 86 46 66
        E 0 8e 46 66
        E 0 96 46 66
        E 0 9e 46 66
        E 0 86 46 66
        E 0 8e 46 66
        E 0 96 45 64
        E 0 9e 45 64
        E 0 86 45 64
        E 0 8e 45 64
        E 0 8f 30 64
        E 0 96 45 64
        E 0 9e 45 64
        E 0 9f 31 5a
        E 0 86 45 64
        E 0 8e 45 64
        E 0 96 45 64
        E 0 9e 45 64
        E 0 86 45 64
        E 0 8e 45 64
        E 0 96 46 66
        E 0 9e 46 66
        E 0 86 46 66
        E 0 8e 46 66
        E 0 8f 31 64
        E 0 96 43 64
        E 0 9e 43 64
        E 0 9f 31 5a
        E 0 86 43 64
        E 0 8e 43 64
        E 0 96 43 64
        E 0 9e 43 64
        E 0 86 43 64
        E 0 8e 43 64
        E 0 96 43 64
        E 0 9e 43 64
        E 0 86 43 64
        E 0 8e 43 64
        E 0 96 41 64
        E 0 9e 41 64
        E 0 86 41 64
        E 0 8e 41 64
        E 0 8f 31 64
        E 0 96 41 64
        E 0 9e 41 64
        E 0 9f 32 5a
        E 0 86 41 64
        E 0 8e 41 64
        E 0 96 41 64
        E 0 9e 41 64
        E 1 86 41 64
        E 0 8e 41 64
        E 0 8f 32 64
        E 0 96 45 64
        E 0 9e 45 64
        E 0 9f 32 5a
        E 0 86 45 64
        E 0 8e 45 64
        E 0 96 45 64
        E 0 9e 45 64
        E 0 86 45 64
        E 0 8e 45 64
        E 0 96 45 64
        E 0 9e 45 64
        E 0 86 45 64
        E 0 8e 45 64
        E 0 96 43 64
        E 0 9e 43 64
        E 0 86 43 64
        E 0 8e 43 64
        E 0 96 45 64
        E 0 9e 45 64
        E 0 86 45 64
        E 0 8e 45 64
        E 0 8f 32 64
        E 0 96 46 66
        E 0 9e 46 66
        E 0 9f 2b 5a
        E 0 86 46 66
        E 0 8e 46 66
        E 0 8f 2b 64
        E 0 96 46 66
        E 0 9e 46 66
        E 0 9f 2b 5a
        E 0 86 46 66
        E 0 8e 46 66
        E 0 96 43 64
        E 0 9e 43 64
        E 0 86 43 64
        E 0 8e 43 64
        E 0 96 43 64
        E 0 9e 43 64
        E 0 86 43 64
        E 0 8e 43 64
        E 0 96 41 64
        E 0 9e 41 64
        E 0 86 41 64
        E 0 8e 41 64
        E 0 8f 2b 64
        E 0 96 3e 64
        E 0 9e 3e 64
        E 0 9f 2d 5a
        E 0 86 3e 64
        E 0 8e 3e 64
        E 0 96 3e 64
        E 0 9e 3e 64
        E 0 86 3e 64
        E 0 8e 3e 64
        E 0 8f 2d 64
        E 0 9f 32 5a
        E 0 8f 32 64
        E 0 96 41 64
        E 0 9e 41 64
        E 0 9f 32 5a
        E 0 86 41 64
        E 0 8e 41 64
        E 1 96 41 64
        E 0 9e 41 64
        E 0 86 41 64
        E 0 8e 41 64
        E 0 96 46 66
        E 0 9e 46 66
        E 0 86 46 66
        E 0 8e 46 66
        E 0 96 46 66
        E 0 9e 46 66
        E 0 86 46 66
        E 0 8e 46 66
        E 0 96 48 64
        E 0 9e 48 64
        E 0 86 48 64
        E 0 8e 48 64
        E 0 96 44 66
        E 0 9e 44 66
        E 0 86 44 66
        E 0 8e 44 66
        E 0 96 44 66
        E 0 9e 44 66
        E 0 86 44 66
        E 0 8e 44 66
        E 0 8f 32 64
        E 0 96 46 66
        E 0 9e 46 66
        E 0 9f 32 5a
        E 0 86 46 66
        E 0 8e 46 66
        E 0 96 41 64
        E 0 9e 41 64
        E 0 86 41 64
        E 0 8e 41 64
        E 0 96 41 64
        E 0 9e 41 64
        E 0 86 41 64
        E 0 8e 41 64
        E 0 96 44 66
        E 0 9e 44 66
        E 0 86 44 66
        E 0 8e 44 66
        E 0 96 44 66
        E 0 9e 44 66
        E 0 86 44 66
        E 0 8e 44 66
        E 0 96 43 64
        E 0 9e 43 64
        E 0 86 43 64
        E 0 8e 43 64
        E 0 8f 32 64
        E 0 96 3f 66
        E 0 9e 3f 66
        E 0 9f 33 5b
        E 0 86 3f 66
        E 0 8e 3f 66
        E 0 96 43 64
        E 0 9e 43 64
        E 0 86 43 64
        E 0 8e 43 64
        E 0 96 41 64
        E 0 9e 41 64
        E 0 86 41 64
        E 0 8e 41 64
        E 0 96 45 64
        E 0 9e 45 64
        E 0 86 45 64
        E 0 8e 45 64
        E 0 8f 33 66
        E 0 96 47 64
        E 0 9e 47 64
        E 0 9f 35 5a
        E 0 86 47 64
        E 0 8e 47 64
        E 0 96 47 64
        E 0 9e 47 64
        E 0 86 47 64
        E 0 8e 47 64
        E 0 96 47 64
        E 0 9e 47 64
        E 0 86 47 64
        E 0 8e 47 64
        E 0 96 48 64
        E 0 9e 48 64
        E 38403 86 48 64
        E 0 8e 48 64
        E 0 96 4a 64
        E 0 9e 4a 64
        E 0 86 4a 64
        E 0 8e 4a 64
        E 0 8f 35 64
        E 0 96 43 64
        E 0 9e 43 64
        E 0 9f 35 5a
        E 0 86 43 64
        E 0 8e 43 64
        E 0 96 44 66
        E 0 9e 44 66
        E 0 86 44 66
        E 0 8e 44 66
        E 0 96 41 64
        E 1 9e 41 64
        E 0 86 41 64
        E 0 8e 41 64
        E 0 96 41 64
        E 0 9e 41 64
        E 0 86 41 64
        E 0 8e 41 64
        E 0 96 41 64
        E 0 9e 41 64
        E 0 86 41 64
        E 0 8e 41 64
        E 0 96 3f 66
        E 0 9e 3f 66
        E 0 86 3f 66
        E 0 8e 3f 66
        E 0 8f 35 64
        E 0 96 3c 64
        E 0 9e 3c 64
        E 0 9f 30 5a
        E 0 86 3c 64
        E 0 8e 3c 64
        E 0 96 3c 64
        E 0 9e 3c 64
        E 0 86 3c 64
        E 0 8e 3c 64
        E 0 96 3c 64
        E 0 9e 3c 64
        E 0 86 3c 64
        E 0 8e 3c 64
        E 0 8f 30 64
        E 0 96 46 66
        E 0 9e 46 66
        E 0 9f 34 5a
        E 0 86 46 66
        E 0 8e 46 66
        E 0 96 46 66
        E 0 9e 46 66
        E 0 86 46 66
        E 0 8e 46 66
        E 0 96 46 66
        E 0 9e 46 66
        E 0 86 46 66
        E 0 8e 46 66
        E 0 96 44 66
        E 0 9e 44 66
        E 0 86 44 66
        E 0 8e 44 66
        E 0 8f 34 64
        E 0 96 41 64
        E 0 9e 41 64
        E 0 9f 35 5a
        E 0 86 41 64
        E 0 8e 41 64
        E 0 96 48 64
        E 0 9e 48 64
        E 0 86 48 64
        E 0 8e 48 64
        E 0 96 48 64
        E 0 9e 48 64
        E 0 86 48 64
        E 0 8e 48 64
        E 0 96 48 64
        E 1 9e 48 64
        E 0 86 48 64
        E 0 8e 48 64
        E 0 8f 35 64
        E 0 96 45 64
        E 0 9e 45 64
        E 0 9f 36 5a
        E 0 86 45 64
        E 0 8e 45 64
        E 0 96 45 64
        E 0 9e 45 64
        E 0 86 45 64
        E 0 8e 45 64
        E 0 96 43 64
        E 0 9e 43 64
        E 0 86 43 64
        E 0 8e 43 64
        E 0 96 45 64
        E 0 9e 45 64
        E 0 86 45 64
        E 0 8e 45 64
        E 0 96 42 64
        E 0 9e 42 64
        E 0 86 42 64
        E 0 8e 42 64
        E 0 96 42 64
        E 0 9e 42 64
        E 0 86 42 64
        E 0 8e 42 64
        E 0 8f 36 64
        E 0 96 42 64
        E 0 9e 42 64
        E 0 9f 36 5a
        E 0 86 42 64
        E 0 8e 42 64
        E 0 96 43 64
        E 0 9e 43 64
        E 0 86 43 64
        E 0 8e 43 64
        E 0 96 45 64
        E 0 9e 45 64
        E 0 86 45 64
        E 0 8e 45 64
        E 0 96 3e 64
        E 0 9e 3e 64
        E 0 86 3e 64
        E 0 8e 3e 64
        E 0 96 3e 64
        E 0 9e 3e 64
        E 0 86 3e 64
        E 0 8e 3e 64
        E 0 96 42 64
        E 0 9e 42 64
        E 0 86 42 64
        E 0 8e 42 64
        E 0 8f 36 64
        E 0 96 45 64
        E 0 9e 45 64
        E 0 9f 36 5a
        E 0 86 45 64
        E 0 8e 45 64
        E 0 96 45 64
        E 1 9e 45 64
        E 0 86 45 64
        E 0 8e 45 64
        E 0 96 45 64
        E 0 9e 45 64
        E 0 86 45 64
        E 0 8e 45 64
        E 0 96 45 64
        E 0 9e 45 64
        E 0 86 45 64
        E 0 8e 45 64
        E 0 96 45 64
        E 0 9e 45 64
        E 0 86 45 64
        E 0 8e 45 64
        E 0 96 45 64
        E 0 9e 45 64
        E 0 86 45 64
        E 0 8e 45 64
        E 0 96 46 66
        E 0 9e 46 66
        E 0 86 46 66
        E 0 8e 46 66
        E 0 8f 36 64
        E 0 96 48 64
        E 0 9e 48 64
        E 0 9f 36 5a
        E 0 86 48 64
        E 0 8e 48 64
        E 0 96 48 64
        E 0 9e 48 64
        E 0 86 48 64
        E 0 8e 48 64
        E 0 96 4b 66
        E 0 9e 4b 66
        E 0 86 4b 66
        E 0 8e 4b 66
        E 0 96 48 64
        E 0 9e 48 64
        E 0 86 48 64
        E 0 8e 48 64
        E 0 96 46 66
        E 0 9e 46 66
        E 0 86 46 66
        E 0 8e 46 66
        E 0 8f 36 64
        E 0 96 43 64
        E 0 9e 43 64
        E 0 9f 2b 5a
        E 38403 86 43 64
        E 0 8e 43 64
        E 0 96 43 64
        E 0 9e 43 64
        E 0 86 43 64
        E 0 8e 43 64
        E 0 8f 2b 64
        E 0 96 47 64
        E 0 9e 47 64
        E 0 9f 2c 5a
        E 0 86 47 64
        E 0 8e 47 64
        E 0 96 47 64
        E 0 9e 47 64
        E 0 86 47 64
        E 0 8e 47 64
        E 0 96 47 64
        E 0 9e 47 64
        E 0 86 47 64
        E 0 8e 47 64
        E 0 96 47 64
        E 0 9e 47 64
        E 0 86 47 64
        E 0 8e 47 64
        E 0 96 47 64
        E 0 9e 47 64
        E 0 86 47 64
        E 0 8e 47 64
        E 0 96 47 64
        E 0 9e 47 64
        E 0 86 47 64
        E 0 8e 47 64
        E 0 96 48 64
        E 0 9e 48 64
        E 0 86 48 64
        E 0 8e 48 64
        E 0 8f 2c 64
        E 0 96 48 64
        E 0 9e 48 64
        E 1 9f 33 5a
        E 0 86 48 64
        E 0 8e 48 64
        E 0 96 48 64
        E 0 9e 48 64
        E 0 86 48 64
        E 0 8e 48 64
        E 0 96 48 64
        E 0 9e 48 64
        E 0 86 48 64
        E 0 8e 48 64
        E 0 96 48 64
        E 0 9e 48 64
        E 0 86 48 64
        E 0 8e 48 64
        E 0 96 45 64
        E 0 9e 45 64
        E 0 86 45 64
        E 0 8e 45 64
        E 0 96 45 64
        E 0 9e 45 64
        E 0 86 45 64
        E 0 8e 45 64
        E 0 96 43 64
        E 0 9e 43 64
        E 0 86 43 64
        E 0 8e 43 64
        E 0 8f 33 64
        E 0 96 40 64
        E 0 9e 40 64
        E 0 9f 34 5a
        E 0 86 40 64
        E 0 8e 40 64
        E 0 96 40 64
        E 0 9e 40 64
        E 0 86 40 64
        E 0 8e 40 64
        E 0 96 47 64
        E 0 9e 47 64
        E 0 86 47 64
        E 0 8e 47 64
        E 0 96 47 64
        E 0 9e 47 64
        E 0 86 47 64
        E 0 8e 47 64
        E 0 96 49 64
        E 0 9e 49 64
        E 0 86 49 64
        E 0 8e 49 64
        E 0 96 46 64
        E 0 9e 46 64
        E 0 86 46 64
        E 0 8e 46 64
        E 1 96 46 64
        E 0 9e 46 64
        E 0 86 46 64
        E 0 8e 46 64
        E 0 8f 34 64
        E 0 96 49 64
        E 0 9e 49 64
        E 0 9f 34 5a
        E 0 86 49 64
        E 0 8e 49 64
        E 0 96 42 64
        E 0 9e 42 64
        E 0 86 42 64
        E 0 8e 42 64
        E 0 96 42 64
        E 0 9e 42 64
        E 0 86 42 64
        E 0 8e 42 64
        E 0 96 42 64
        E 0 9e 42 64
        E 0 86 42 64
        E 0 8e 42 64
        E 0 96 42 64
        E 0 9e 42 64
        E 0 86 42 64
        E 0 8e 42 64
        E 0 96 43 64
        E 0 9e 43 64
        E 0 86 43 64
        E 0 8e 43 64
        E 0 8f 34 64
        E 0 96 40 64
        E 0 9e 40 64
        E 0 9f 2e 5a
        E 0 86 40 64
        E 0 8e 40 64
        E 0 96 40 64
        E 1 9e 40 64
        E 0 86 40 64
        E 0 8e 40 64
        E 0 96 46 64
        E 0 9e 46 64
        E 0 86 46 64
        E 0 8e 46 64
        E 0 96 46 64
        E 0 9e 46 64
        E 0 86 46 64
        E 0 8e 46 64
        E 0 96 46 64
        E 0 9e 46 64
        E 0 86 46 64
        E 0 8e 46 64
        E 0 96 46 64
        E 0 9e 46 64
        E 0 86 46 64
        E 0 8e 46 64
        E 0 96 47 64
        E 0 9e 47 64
        E 0 86 47 64
        E 0 8e 47 64
        E 0 8f 2e 64
        E 0 96 42 64
        E 0 9e 42 64
        E 0 9f 2f 5a
        E 0 86 42 64
        E 0 8e 42 64
        E 0 96 47 64
        E 0 9e 47 64
        E 0 86 47 64
        E 0 8e 47 64
        E 0 8f 2f 64
        E 0 96 44 64
        E 0 9e 44 64
        E 0 9f 35 59
        E 0 86 44 64
        E 0 8e 44 64
        E 0 96 44 64
        E 0 9e 44 64
        E 0 86 44 64
        E 0 8e 44 64
        E 0 96 4a 64
        E 0 9e 4a 64
        E 0 86 4a 64
        E 0 8e 4a 64
        E 0 8f 35 63
        E 0 96 4a 64
        E 0 9e 4a 64
        E 0 9f 2f 5a
        E 0 86 4a 64
        E 0 8e 4a 64
        E 0 96 41 63
        E 0 9e 41 63
        E 0 86 41 63
        E 0 8e 41 63
        E 38403 96 44 64
        E 0 9e 44 64
        E 0 86 44 64
        E 0 8e 44 64
        E 0 96 45 64
        E 0 9e 45 64
        E 0 86 45 64
        E 0 8e 45 64
        E 0 96 47 64
        E 0 9e 47 64
        E 0 86 47 64
        E 0 8e 47 64
        E 0 96 47 64
        E 0 9e 47 64
        E 0 86 47 64
        E 0 8e 47 64
        E 0 96 45 64
        E 0 9e 45 64
        E 0 86 45 64
        E 0 8e 45 64
        E 0 8f 2f 64
        E 0 96 42 64
        E 0 9e 42 64
        E 0 9f 2d 5a
        E 0 86 42 64
        E 0 8e 42 64
        E 0 96 42 64
        E 1 9e 42 64
        E 0 86 42 64
        E 0 8e 42 64
        E 0 96 49 64
        E 0 9e 49 64
        E 0 86 49 64
        E 0 8e 49 64
        E 0 96 42 64
        E 0 9e 42 64
        E 0 86 42 64
        E 0 8e 42 64
        E 0 96 42 64
        E 0 9e 42 64
        E 0 86 42 64
        E 0 8e 42 64
        E 0 96 40 64
        E 0 9e 40 64
        E 0 86 40 64
        E 0 8e 40 64
        E 0 96 42 64
        E 0 9e 42 64
        E 0 86 42 64
        E 0 8e 42 64
        E 0 8f 2d 64
        E 0 96 3e 64
        E 0 9e 3e 64
        E 0 9f 2f 5a
        E 0 86 3e 64
        E 0 8e 3e 64
        E 0 8f 2f 64
        E 0 96 47 64
        E 0 9e 47 64
        E 0 9f 29 59
        E 0 86 47 64
        E 0 8e 47 64
        E 0 96 46 64
        E 0 9e 46 64
        E 0 86 46 64
        E 0 8e 46 64
        E 0 96 47 64
        E 0 9e 47 64
        E 0 86 47 64
        E 0 8e 47 64
        E 0 8f 29 63
        E 0 96 42 64
        E 0 9e 42 64
        E 0 9f 2a 5a
        E 0 86 42 64
        E 0 8e 42 64
        E 0 96 42 64
        E 0 9e 42 64
        E 0 86 42 64
        E 0 8e 42 64
        E 0 8f 2a 64
        E 0 9f 30 59
        E 0 8f 30 63
        E 0 97 4b 64
        E 0 9e 4b 64
        E 0 9f 30 59
        E 0 87 4b 64
        E 0 8e 4b 64
        E 0 97 44 64
        E 0 9e 44 64
        E 0 87 44 64
        E 1 8e 44 64
        E 0 97 48 63
        E 0 9e 48 63
        E 0 87 48 63
        E 0 8e 48 63
        E 0 97 48 63
        E 0 9e 48 63
        E 0 87 48 63
        E 0 8e 48 63
        E 0 97 49 64
        E 0 9e 49 64
        E 0 87 49 64
        E 0 8e 49 64
        E 0 8f 30 63
        E 0 97 44 64
        E 0 9e 44 64
        E 0 9f 31 5a
        E 0 87 44 64
        E 0 8e 44 64
        E 0 8f 31 64
        E 0 9f 2d 5a
        E 0 9c 34 64
        E 0 9e 34 64
        E 0 8c 34 64
        E 0 8e 34 64
        E 0 9c 39 64
        E 0 9e 39 64
        E 0 8c 39 64
        E 0 8e 39 64
        E 0 9c 3b 64
        E 0 9e 3b 64
        E 0 8c 3b 64
        E 0 8e 3b 64
        E 0 9c 37 64
        E 0 9e 37 64
        E 0 8c 37 64
        E 0 8e 37 64
        E 0 9c 37 64
        E 0 9e 37 64
        E 0 8c 37 64
        E 0 8e 37 64
        E 0 9c 34 64
        E 0 9e 34 64
        E 0 8c 34 64
        E 0 8e 34 64
        E 0 9c 34 64
        E 0 9e 34 64
        E 0 8c 34 64
        E 0 8e 34 64
        E 0 9c 36 64
        E 0 9e 36 64
        E 0 8c 36 64
        E 0 8e 36 64
        E 0 8f 2d 64
        E 0 9c 37 64
        E 0 9e 37 64
        E 0 9f 2d 5a
        E 0 8c 37 64
        E 0 8e 37 64
        E 0 9c 37 64
        E 0 9e 37 64
        E 0 8c 37 64
        E 0 8e 37 64
        E 0 9c 37 64
        E 0 9e 37 64
        E 0 8c 37 64
        E 0 8e 37 64
        E 0 9c 36 64
        E 0 9e 36 64
        E 0 8c 36 64
        E 0 8e 36 64
        E 0 8f 2d 64
        E 0 9c 32 64
        E 0 9e 32 64
        E 0 9f 32 5a
        E 0 8c 32 64
        E 1 8e 32 64
        E 0 9c 32 64
        E 0 9e 32 64
        E 0 8c 32 64
        E 0 8e 32 64
        E 0 9c 32 64
        E 0 9e 32 64
        E 0 8c 32 64
        E 0 8e 32 64
        E 0 9b 39 64
        E 0 9e 45 64
        E 0 8b 39 64
        E 0 8e 45 64
        E 0 8f 32 64
        E 0 9b 36 64
        E 0 9e 42 64
        E 0 9f 32 5a
        E 0 8b 36 64
        E 0 8e 42 64
        E 0 9b 36 64
        E 0 9e 42 64
        E 0 8b 36 64
        E 0 8e 42 64
        E 0 9b 39 64
        E 0 9e 45 64
        E 0 8b 39 64
        E 0 8e 45 64
        E 0 9b 3e 64
        E 0 9e 4a 64
        E 0 8b 3e 64
        E 0 8e 4a 64
        E 0 9b 3e 64
        E 0 9e 4a 64
        E 0 8b 3e 64
        E 0 8e 4a 64
        E 0 9b 3e 64
        E 0 9e 4a 64
        E 0 8b 3e 64
        E 0 8e 4a 64
        E 0 9b 3e 64
        E 0 9e 4a 64
        E 38403 8b 3e 64
        E 0 8e 4a 64
        E 0 8f 32 64
        E 0 9b 39 64
        E 0 9e 45 64
        E 0 9f 32 5a
        E 0 8b 39 64
        E 0 8e 45 64
        E 0 9b 39 64
        E 0 9e 45 64
        E 0 8b 39 64
        E 0 8e 45 64
        E 0 9b 39 64
        E 0 9e 45 64
        E 0 8b 39 64
        E 0 8e 45 64
        E 0 8f 32 64
        E 0 9b 3c 64
        E 0 9e 48 64
        E 0 9f 32 5a
        E 0 8b 3c 64
        E 0 8e 48 64
        E 0 9b 3c 64
        E 0 9e 48 64
        E 0 8b 3c 64
        E 0 8e 48 64
        E 0 9b 3c 64
        E 0 9e 48 64
        E 0 8b 3c 64
        E 0 8e 48 64
        E 0 9b 3b 64
        E 0 9e 47 64
        E 0 8b 3b 64
        E 0 8e 47 64
        E 0 8f 32 64
        E 0 9b 37 64
        E 0 9e 43 64
        E 0 9f 37 5a
        E 0 8b 37 64
        E 0 8e 43 64
        E 0 9b 37 64
        E 0 9e 43 64
        E 0 8b 37 64
        E 0 8e 43 64
        E 0 9b 37 64
        E 0 9e 43 64
        E 0 8b 37 64
        E 0 8e 43 64
        E 0 9b 37 64
        E 0 9e 43 64
        E 0 8b 37 64
        E 0 8e 43 64
        E 0 9b 39 64
        E 0 9e 45 64
        E 0 8b 39 64
        E 0 8e 45 64
        E 0 8f 37 64
        E 0 9b 3b 64
        E 0 9e 47 64
        E 0 9f 37 5a
        E 0 8b 3b 64
        E 0 8e 47 64
        E 0 9b 3b 64
        E 0 9e 47 64
        E 0 8b 3b 64
        E 0 8e 47 64
        E 1 9b 3b 64
        E 0 9e 47 64
        E 0 8b 3b 64
        E 0 8e 47 64
        E 0 9b 3b 64
        E 0 9e 47 64
        E 0 8b 3b 64
        E 0 8e 47 64
        E 0 9b 3b 64
        E 0 9e 47 64
        E 0 8b 3b 64
        E 0 8e 47 64
        E 0 9b 39 64
        E 0 9e 45 64
        E 0 8b 39 64
        E 0 8e 45 64
        E 0 9b 37 64
        E 0 9e 43 64
        E 0 8b 37 64
        E 0 8e 43 64
        E 0 8f 37 64
        E 0 9b 3d 64
        E 0 9e 49 64
        E 0 9f 37 5a
        E 0 8b 3d 64
        E 0 8e 49 64
        E 0 9b 3d 64
        E 0 9e 49 64
        E 0 8b 3d 64
        E 0 8e 49 64
        E 0 9b 39 64
        E 0 9e 45 64
        E 0 8b 39 64
        E 0 8e 45 64
        E 0 9b 39 64
        E 0 9e 45 64
        E 0 8b 39 64
        E 0 8e 45 64
        E 0 9b 3d 64
        E 0 9e 49 64
        E 0 8b 3d 64
        E 0 8e 49 64
        E 0 9b 3d 64
        E 0 9e 49 64
        E 0 8b 3d 64
        E 0 8e 49 64
        E 0 9b 3e 64
        E 0 9e 4a 64
        E 0 8b 3e 64
        E 0 8e 4a 64
        E 0 8f 37 64
        E 1 9b 39 64
        E 0 9e 45 64
        E 0 9f 39 5a
        E 0 8b 39 64
        E 0 8e 45 64
        E 0 9b 39 64
        E 0 9e 45 64
        E 0 8b 39 64
        E 0 8e 45 64
        E 0 8f 39 64
        E 0 9f 32 5a
        E 0 8f 32 64
        E 0 97 45 64
        E 0 9e 45 64
        E 0 9f 32 5a
        E 0 87 45 64
        E 0 8e 45 64
        E 0 97 42 64
        E 0 9e 42 64
        E 0 87 42 64
        E 0 8e 42 64
        E 0 97 42 64
        E 0 9e 42 64
        E 0 87 42 64
        E 0 8e 42 64
        E 0 8f 32 64
        E 0 9f 32 5a
        E 0 97 48 64
        E 0 9e 48 64
        E 0 87 48 64
        E 0 8e 48 64
        E 0 97 48 64
        E 0 9e 48 64
        E 0 87 48 64
        E 0 8e 48 64
        E 0 97 47 64
        E 0 9e 47 64
        E 0 8f 32 64
        E 0 87 47 64
        E 0 8e 47 64
        E 0 9f 34 5a
        E 0 97 46 64
        E 0 9e 46 64
        E 0 87 46 64
        E 0 8e 46 64
        E 0 97 46 64
        E 0 9e 46 64
        E 0 87 46 64
        E 0 8e 46 64
        E 0 97 44 64
        E 0 9e 44 64
        E 0 87 44 64
        E 0 8e 44 64
        E 0 97 42 64
        E 0 9e 42 64
        E 0 87 42 64
        E 0 8e 42 64
        E 0 8f 34 64
        E 1 97 47 64
        E 0 9e 47 64
        E 0 9f 32 5a
        E 0 87 47 64
        E 0 8e 47 64
        E 0 97 4a 64
        E 0 9e 4a 64
        E 0 87 4a 64
        E 0 8e 4a 64
        E 0 97 47 64
        E 0 9e 47 64
        E 0 87 47 64
        E 0 8e 47 64
        E 0 97 45 64
        E 0 9e 45 64
        E 0 87 45 64
        E 0 8e 45 64
        E 0 8f 32 64
        E 0 97 42 64
        E 0 9e 42 64
        E 0 9f 31 5a
        E 0 87 42 64
        E 0 8e 42 64
        E 0 97 42 64
        E 0 9e 42 64
        E 0 87 42 64
        E 0 8e 42 64
        E 0 8f 31 64
        E 0 9f 2a 5a
        E 0 8f 2a 64
        E 0 96 49 64
        E 0 9e 49 64
        E 0 9f 2a 5a
        E 38403 86 49 64
        E 0 8e 49 64
        E 0 96 45 64
        E 0 9e 45 64
        E 0 86 45 64
        E 0 8e 45 64
        E 0 96 44 64
        E 0 9e 44 64
        E 0 86 44 64
        E 0 8e 44 64
        E 0 8f 2a 64
        E 0 96 42 64
        E 0 9e 42 64
        E 0 9f 32 5a
        E 0 86 42 64
        E 0 8e 42 64
        E 0 96 42 64
        E 0 9e 42 64
        E 0 86 42 64
        E 0 8e 42 64
        E 0 8f 32 64
        E 0 97 4a 64
        E 0 9e 4a 64
        E 0 9f 32 5a
        E 0 87 4a 64
        E 0 8e 4a 64
        E 0 97 47 64
        E 0 9e 47 64
        E 0 87 47 64
        E 0 8e 47 64
        E 0 97 45 64
        E 0 9e 45 64
        E 0 87 45 64
        E 0 8e 45 64
        E 0 8f 32 64
        E 0 97 43 64
        E 0 9e 43 64
        E 0 9f 34 5a
        E 1 87 43 64
        E 0 8e 43 64
        E 0 97 43 64
        E 0 9e 43 64
        E 0 87 43 64
        E 0 8e 43 64
        E 0 96 47 64
        E 0 9e 47 64
        E 0 86 47 64
        E 0 8e 47 64
        E 0 8f 34 64
        E 0 96 47 64
        E 0 9e 47 64
        E 0 9f 35 59
        E 0 97 4a 64
        E 0 9e 4a 64
        E 0 86 47 64
        E 0 87 4a 64
        E 0 8e 47 64
        E 0 8e 4a 64
        E 0 8f 35 63
        E 0 96 46 64
        E 0 97 49 64
        E 0 9e 49 64
        E 0 9e 46 64
        E 0 9f 36 5a
        E 0 86 46 64
        E 0 87 49 64
        E 0 8e 49 64
        E 0 8e 46 64
        E 0 8f 36 64
        E 0 96 47 64
        E 0 97 47 64
        E 0 9e 47 64
        E 0 9e 47 64
        E 0 9f 2f 5a
        E 0 86 47 64
        E 0 87 47 64
        E 0 8e 47 64
        E 0 8e 47 64
        E 0 8f 2f 64
        E 0 92 3e 64
        E 0 93 3e 5a
        E 0 94 3e 64
        E 0 9f 32 5a
        E 0 82 3e 64
        E 0 83 3e 64
        E 0 84 3e 64
        E 0 8f 32 64
        E 0 92 3e 64
        E 1 93 3e 5a
        E 0 94 3e 64
        E 0 9f 32 5a
        E 0 82 3e 64
        E 0 83 3e 64
        E 0 84 3e 64
        E 0 8f 32 64
        E 0 92 40 64
        E 0 93 40 5a
        E 0 94 40 64
        E 0 9f 34 5a
        E 0 82 40 64
        E 0 83 40 64
        E 0 84 40 64
        E 0 8f 34 64
        E 0 92 42 64
        E 0 93 42 5a
        E 0 94 42 64
        E 0 9f 36 5a
        E 0 82 42 64
        E 0 83 42 64
        E 0 84 42 64
        E 0 8f 36 64
        E 0 92 43 64
        E 0 93 43 5a
        E 0 94 43 64
        E 0 9f 37 5a
        E 0 82 43 64
        E 0 83 43 64
        E 0 84 43 64
        E 0 8f 37 64
        E 0 92 45 64
        E 0 93 45 5a
        E 0 94 45 64
        E 0 9f 39 5a
        E 0 82 45 64
        E 0 83 45 64
        E 0 84 45 64
        E 0 8f 39 64
        E 0 92 45 64
        E 0 93 45 5a
        E 0 94 45 64
        E 0 9f 39 5a
        E 0 82 45 64
        E 0 83 45 64
        E 0 84 45 64
        E 0 8f 39 64
        E 0 92 45 64
        E 0 93 45 5a
        E 0 94 45 64
        E 0 9f 39 5a
        E 0 82 45 64
        E 0 83 45 64
        E 0 84 45 64
        E 0 8f 39 64
        E 0 92 4a 64
        E 1 93 4a 5a
        E 0 94 4a 64
        E 0 9f 3e 5a
        E 0 82 4a 64
        E 0 83 4a 64
        E 0 84 4a 64
        E 0 8f 3e 64
        E 0 92 49 64
        E 0 93 49 5a
        E 0 94 49 64
        E 0 9f 3d 5a
        E 0 82 49 64
        E 0 83 49 64
        E 0 84 49 64
        E 0 8f 3d 64
        E 0 92 47 64
        E 0 93 47 5a
        E 0 94 47 64
        E 0 9f 3b 5a
        E 0 82 47 64
        E 0 83 47 64
        E 0 84 47 64
        E 0 8f 3b 64
        E 0 92 45 64
        E 0 93 45 5a
        E 0 94 45 64
        E 0 9f 39 5a
        E 0 82 45 64
        E 0 83 45 64
        E 0 84 45 64
        E 0 8f 39 64
        E 0 92 43 64
        E 0 93 43 5a
        E 0 94 43 64
        E 0 9f 37 5a
        E 1 82 43 64
        E 0 83 43 64
        E 0 84 43 64
        E 0 8f 37 64
        E 0 92 42 64
        E 0 93 42 5a
        E 0 94 42 64
        E 0 9f 36 5a
        E 0 82 42 64
        E 0 83 42 64
        E 0 84 42 64
        E 0 8f 36 64
        E 0 92 47 64
        E 0 93 47 5a
        E 0 94 47 64
        E 0 9f 3b 5a
        E 0 82 47 64
        E 0 83 47 64
        E 0 84 47 64
        E 0 8f 3b 64
        E 0 92 45 64
        E 0 93 45 5a
        E 0 94 45 64
        E 0 9f 39 5a
        E 0 82 45 64
        E 0 83 45 64
        E 0 84 45 64
        E 0 8f 39 64
        E 0 92 43 64
        E 0 93 43 5a
        E 0 94 43 64
        E 0 9f 37 5a
        E 0 82 43 64
        E 0 83 43 64
        E 0 84 43 64
        E 0 8f 37 64
        E 0 92 42 64
        E 0 93 42 5a
        E 0 94 42 64
        E 0 9f 36 5a
        E 0 82 42 64
        E 0 83 42 64
        E 0 84 42 64
        E 0 8f 36 64
        E 0 92 40 64
        E 0 93 40 5a
        E 0 94 40 64
        E 0 9f 34 5a
        E 0 82 40 64
        E 0 83 40 64
        E 0 84 40 64
        E 0 8f 34 64
        E 0 92 3e 64
        E 0 93 3e 5a
        E 0 94 3e 64
        E 0 9f 32 5a
        E 0 82 3e 64
        E 0 83 3e 64
        E 0 84 3e 64
        E 0 8f 32 64
        E 0 92 3d 64
        E 0 93 3d 5a
        E 0 94 3d 64
        E 0 9f 31 5a
        E 0 82 3d 64
        E 0 83 3d 64
        E 0 84 3d 64
        E 0 8f 31 64
        E 0 92 3e 64
        E 0 93 3e 5a
        E 0 94 3e 64
        E 0 9f 32 5a
        E 0 82 3e 64
        E 0 83 3e 64
        E 0 84 3e 64
        E 0 8f 32 64
        E 0 92 40 64
        E 0 93 40 5a
        E 1 94 40 64
        E 0 9f 34 5a
        E 0 82 40 64
        E 0 83 40 64
        E 0 84 40 64
        E 0 8f 34 64
        E 0 92 42 64
        E 0 93 42 5a
        E 0 94 42 64
        E 0 9f 36 5a
        E 0 82 42 64
        E 0 83 42 64
        E 0 84 42 64
        E 0 8f 36 64
        E 0 92 43 64
        E 0 93 43 5a
        E 0 94 43 64
        E 0 9f 37 5a
        E 0 82 43 64
        E 0 83 43 64
        E 0 84 43 64
        E 0 8f 37 64
        E 0 92 45 64
        E 0 93 45 5a
        E 0 94 45 64
        E 0 9f 39 5a
        E 0 82 45 64
        E 0 83 45 64
        E 0 84 45 64
        E 0 8f 39 64
        E 0 92 42 64
        E 0 93 42 5a
        E 0 94 42 64
        E 0 9f 36 5a
        E 0 82 42 64
        E 0 83 42 64
        E 0 8f 36 64
        E 0 92 43 64
        E 0 93 43 5a
        E 0 9f 37 5a
        E 0 82 43 64
        E 0 83 43 64
        E 0 84 42 64
        E 0 8f 37 64
        E 0 92 42 64
        E 0 93 42 5a
        E 0 94 3e 64
        E 0 9f 36 5a
        E 0 82 42 64
        E 0 83 42 64
        E 0 8f 36 64
        E 0 92 40 64
        E 0 93 40 5a
        E 0 9f 34 5a
        E 0 82 40 64
        E 0 83 40 64
        E 0 84 3e 64
        E 0 8f 34 64
        E 0 92 3e 64
        E 1 93 3e 5a
        E 0 9f 32 5a
        E 0 82 3e 64
        E 0 83 3e 64
        E 0 8f 32 64
        E 0 92 4a 64
        E 0 93 4a 5a
        E 0 94 4a 64
        E 0 9f 3e 5a
        E 0 82 4a 64
        E 0 83 4a 64
        E 0 84 4a 64
        E 0 8f 3e 64
        E 0 92 4c 64
        E 0 93 4c 5a
        E 0 94 4c 64
        E 0 9f 40 5a
        E 0 82 4c 64
        E 0 83 4c 64
        E 0 84 4c 64
        E 0 8f 40 64
        E 0 92 4a 64
        E 0 93 4a 5a
        E 0 94 4a 64
        E 0 9f 3e 5a
        E 0 82 4a 64
        E 0 83 4a 64
        E 0 84 4a 64
        E 0 8f 3e 64
        E 0 92 49 64
        E 0 93 49 5a
        E 0 94 49 64
        E 0 9f 3d 5a
        E 0 82 49 64
        E 0 83 49 64
        E 0 84 49 64
        E 0 8f 3d 64
        E 0 92 47 64
        E 0 93 47 5a
        E 0 94 47 64
        E 1 9f 3b 5a
        E 0 82 47 64
        E 0 83 47 64
        E 0 84 47 64
        E 0 8f 3b 64
        E 0 92 45 64
        E 0 93 45 5a
        E 0 94 45 64
        E 0 9f 39 5a
        E 0 82 45 64
        E 0 83 45 64
        E 0 84 45 64
        E 0 8f 39 64
        E 0 92 44 64
        E 0 93 44 5a
        E 0 94 44 64
        E 0 9f 38 5a
        E 0 82 44 64
        E 0 83 44 64
        E 0 84 44 64
        E 0 8f 38 64
        E 0 92 42 64
        E 0 93 42 5a
        E 0 94 42 64
        E 0 9f 36 5a
        E 38403 82 42 64
        E 0 83 42 64
        E 0 84 42 64
        E 0 8f 36 64
        E 0 92 40 64
        E 0 93 40 5a
        E 0 94 40 64
        E 1 9f 34 5a
        E 0 82 40 64
        E 0 83 40 64
        E 0 84 40 64
        E 0 8f 34 64
        E 0 92 4a 64
        E 0 93 4a 5a
        E 0 94 4a 64
        E 0 9f 3e 5a
        E 0 82 4a 64
        E 0 83 4a 64
        E 0 84 4a 64
        E 0 8f 3e 64
        E 0 92 4c 64
        E 0 93 4c 5a
        E 0 94 4c 64
        E 0 9f 40 5a
        E 0 82 4c 64
        E 0 83 4c 64
        E 0 84 4c 64
        E 0 8f 40 64
        E 0 92 4a 64
        E 0 93 4a 5a
        E 0 94 4a 64
        E 0 9f 3e 5a
        E 0 82 4a 64
        E 0 83 4a 64
        E 0 84 4a 64
        E 0 8f 3e 64
        E 0 92 49 64
        E 0 93 49 5a
        E 0 94 49 64
        E 0 9f 3d 5a
        E 0 82 49 64
        E 0 83 49 64
        E 0 84 49 64
        E 0 8f 3d 64
        E 0 92 47 64
        E 0 93 47 5a
        E 1 94 47 64
        E 0 9f 3b 5a
        E 0 82 47 64
        E 0 83 47 64
        E 0 84 47 64
        E 0 8f 3b 64
        E 0 92 45 64
        E 0 93 45 5a
        E 0 94 45 64
        E 0 9f 39 5a
        E 0 82 45 64
        E 0 83 45 64
        E 0 84 45 64
        E 0 8f 39 64
        E 0 92 44 64
        E 0 93 44 5a
        E 0 94 44 64
        E 0 9f 38 5a
        E 0 82 44 64
        E 0 83 44 64
        E 0 84 44 64
        E 0 8f 38 64
        E 0 92 42 64
        E 0 93 42 5a
        E 0 94 42 64
        E 0 9f 36 5a
        E 0 82 42 64
        E 0 83 42 64
        E 0 84 42 64
        E 0 8f 36 64
        E 0 92 40 64
        E 0 93 40 5a
        E 0 94 40 64
        E 0 9f 34 5a
        E 0 82 40 64
        E 0 83 40 64
        E 0 84 40 64
        E 0 8f 34 64
        E 0 92 45 64
        E 0 93 45 5a
        E 0 94 45 64
        E 0 9f 39 5a
        E 0 82 45 64
        E 0 83 45 64
        E 0 84 45 64
        E 0 8f 39 64
        E 0 92 45 64
        E 0 93 45 5a
        E 0 94 45 64
        E 0 9f 39 5a
        E 0 82 45 64
        E 0 83 45 64
        E 0 84 45 64
        E 0 8f 39 64
        E 0 92 47 64
        E 0 93 47 5a
        E 0 94 47 64
        E 0 9f 3b 5a
        E 0 82 47 64
        E 0 83 47 64
        E 0 84 47 64
        E 0 8f 3b 64
        E 0 92 49 64
        E 0 93 49 5a
        E 0 94 49 64
        E 0 9f 3d 5a
        E 0 82 49 64
        E 0 83 49 64
        E 0 84 49 64
        E 0 8f 3d 64
        E 0 92 45 64
        E 0 93 45 5a
        E 0 94 45 64
        E 0 9f 39 5a
        E 0 82 45 64
        E 0 83 45 64
        E 0 84 45 64
        E 0 8f 39 64
        E 0 92 4a 64
        E 1 93 4a 5a
        E 0 94 4a 64
        E 0 9f 3e 5a
        E 0 82 4a 64
        E 0 83 4a 64
        E 0 84 4a 64
        E 0 8f 3e 64
        E 0 92 49 64
        E 0 93 49 5a
        E 0 94 49 64
        E 0 9f 3d 5a
        E 0 82 49 64
        E 0 83 49 64
        E 0 84 49 64
        E 0 8f 3d 64
        E 0 92 47 64
        E 0 93 47 5a
        E 0 94 47 64
        E 0 9f 3b 5a
        E 0 82 47 64
        E 0 83 47 64
        E 0 84 47 64
        E 0 8f 3b 64
        E 0 92 45 64
        E 0 93 45 5a
        E 0 94 45 64
        E 0 9f 39 5a
        E 0 82 45 64
        E 0 83 45 64
        E 0 84 45 64
        E 0 8f 39 64
        E 0 92 43 64
        E 0 93 43 5a
        E 0 94 43 64
        E 0 9f 37 5a
        E 0 82 43 64
        E 0 83 43 64
        E 0 84 43 64
        E 0 8f 37 64
        E 0 92 42 64
        E 0 93 42 5a
        E 0 94 42 64
        E 0 9f 36 5a
        E 0 82 42 64
        E 0 83 42 64
        E 0 84 42 64
        E 0 8f 36 64
        E 0 92 43 64
        E 0 93 43 5a
        E 0 94 43 64
        E 0 9f 37 5a
        E 0 82 43 64
        E 0 83 43 64
        E 0 84 43 64
        E 0 8f 37 64
        E 0 92 45 64
        E 0 93 45 5a
        E 0 94 40 64
        E 0 9f 39 5a
        E 0 82 45 64
        E 0 83 45 64
        E 0 84 40 64
        E 0 8f 39 64
        E 0 92 3e 64
        E 0 93 3e 5a
        E 0 94 3e 64
        E 0 9f 32 5a
        E 0 82 3e 64
        E 0 83 3e 64
        E 0 84 3e 64
        E 0 8f 32 64
        E 0 92 47 64
        E 0 93 3e 5a
        E 0 9b 3e 64
        E 0 9f 2b 5a
        E 0 8b 3e 64
        E 1 9b 3e 64
        E 0 8b 3e 64
        E 0 9b 43 64
        E 0 8b 43 64
        E 0 9b 43 64
        E 0 8b 43 64
        E 0 9b 45 64
        E 0 8b 45 64
        E 0 9b 47 64
        E 0 8b 47 64
        E 0 9b 47 64
        E 0 8b 47 64
        E 0 9b 47 64
        E 0 8b 47 64
        E 0 9b 48 64
        E 0 8b 48 64
        E 0 9b 4a 64
        E 0 82 47 64
        E 0 83 3e 64
        E 0 8b 4a 64
        E 0 8f 2b 64
        E 0 92 47 64
        E 0 93 3e 5a
        E 0 9b 43 64
        E 0 9f 2b 5a
        E 0 8b 43 64
        E 0 9b 43 64
        E 0 8b 43 64
        E 0 9b 47 64
        E 0 8b 47 64
        E 0 9b 47 64
        E 0 8b 47 64
        E 0 9b 47 64
        E 0 8b 47 64
        E 0 9b 47 64
        E 0 8b 47 64
        E 1 9b 45 64
        E 0 82 47 64
        E 0 83 3e 64
        E 0 8b 45 64
        E 0 8f 2b 64
        E 0 92 45 64
        E 0 93 3d 5a
        E 0 9b 45 64
        E 0 9f 31 5a
        E 0 8b 45 64
        E 0 9b 45 64
        E 0 8b 45 64
        E 0 9b 45 64
        E 0 8b 45 64
        E 0 9b 45 64
        E 0 8b 45 64
        E 0 9b 45 64
        E 0 8b 45 64
        E 0 9b 40 64
        E 0 8b 40 64
        E 0 9b 41 64
        E 0 82 45 64
        E 0 83 3d 64
        E 0 8b 41 64
        E 0 8f 31 64
        E 0 92 45 64
        E 0 93 3d 5a
        E 0 9b 43 64
        E 0 9f 31 5a
        E 0 8b 43 64
        E 0 9b 43 64
        E 0 8b 43 64
        E 0 9b 40 64
        E 0 8b 40 64
        E 0 9b 3d 64
        E 0 8b 3d 64
        E 0 9b 45 64
        E 0 82 45 64
        E 0 83 3d 64
        E 0 8b 45 64
        E 0 8f 31 64
        E 0 92 45 64
        E 0 93 3d 5a
        E 0 9b 40 64
        E 0 9f 31 5a
        E 0 8b 40 64
        E 0 9b 40 64
        E 38403 8b 40 64
        E 0 9b 4a 64
        E 0 83 3d 64
        E 0 8b 4a 64
        E 0 8f 31 64
        E 0 93 39 5a
        E 0 9b 45 64
        E 0 9f 32 5a
        E 0 8b 45 64
        E 0 9b 48 64
        E 0 8b 48 64
        E 0 9b 47 64
        E 0 8b 47 64
        E 0 9b 48 64
        E 0 82 45 64
        E 0 83 39 64
        E 0 8b 48 64
        E 0 8f 32 64
        E 0 92 45 64
        E 0 93 3b 5a
        E 0 9b 45 64
        E 0 9f 33 5a
        E 0 8b 45 64
        E 0 9b 45 64
        E 0 8b 45 64
        E 0 9b 45 64
        E 0 8b 45 64
        E 0 9b 45 64
        E 0 8b 45 64
        E 0 9b 43 64
        E 0 82 45 64
        E 0 83 3b 64
        E 0 8b 43 64
        E 0 8f 33 64
        E 0 92 43 64
        E 0 93 3b 5a
        E 0 9b 40 64
        E 0 9f 34 5a
        E 0 8b 40 64
        E 0 9b 40 64
        E 0 8b 40 64
        E 0 82 43 64
        E 0 83 3b 64
        E 0 8f 34 64
        E 0 92 43 64
        E 0 93 3b 5a
        E 0 9b 47 64
        E 0 9f 34 5a
        E 0 8b 47 64
        E 0 9b 47 64
        E 0 8b 47 64
        E 0 9b 47 64
        E 0 8b 47 64
        E 1 9b 47 64
        E 0 8b 47 64
        E 0 9b 45 64
        E 0 82 43 64
        E 0 83 3b 64
        E 0 8b 45 64
        E 0 8f 34 64
        E 0 92 44 64
        E 0 93 3d 5a
        E 0 9b 44 64
        E 0 9f 35 59
        E 0 8b 44 64
        E 0 9b 44 64
        E 0 8b 44 64
        E 0 82 44 64
        E 0 83 3d 64
        E 0 8f 35 63
        E 0 92 44 64
        E 0 93 3d 5a
        E 0 9b 44 64
        E 0 9f 35 59
        E 0 8b 44 64
        E 0 9b 44 64
        E 0 8b 44 64
        E 0 9b 44 64
        E 0 8b 44 64
        E 0 9b 44 64
        E 0 8b 44 64
        E 0 9b 45 64
        E 0 8b 45 64
        E 0 9b 47 64
        E 0 8b 47 64
        E 0 9b 47 64
        E 0 8b 47 64
        E 0 9b 47 64
        E 0 8b 47 64
        E 0 9b 49 64
        E 0 8b 49 64
        E 0 9b 4a 64
        E 0 82 44 64
        E 0 83 3d 64
        E 0 8b 4a 64
        E 0 8f 35 63
        E 0 92 44 64
        E 0 93 3d 5a
        E 0 9b 44 64
        E 0 9f 35 59
        E 0 8b 44 64
        E 0 9b 44 64
        E 0 8b 44 64
        E 0 9b 44 64
        E 0 8b 44 64
        E 0 9b 45 64
        E 0 8b 45 64
        E 0 9b 47 64
        E 0 8b 47 64
        E 0 9b 47 64
        E 0 8b 47 64
        E 0 9b 45 64
        E 0 82 44 64
        E 0 83 3d 64
        E 0 8b 45 64
        E 0 8f 35 63
        E 0 92 42 64
        E 0 93 3d 5a
        E 0 9b 42 64
        E 0 9f 36 5a
        E 0 8b 42 64
        E 0 9b 42 64
        E 0 8b 42 64
        E 0 82 42 64
        E 0 92 49 64
        E 0 9b 49 64
        E 0 8b 49 64
        E 0 9b 49 64
        E 0 8b 49 64
        E 0 9b 49 64
        E 0 8b 49 64
        E 0 9b 49 64
        E 0 8b 49 64
        E 0 9b 47 64
        E 0 82 49 64
        E 0 83 3d 64
        E 0 8b 47 64
        E 0 8f 36 64
        E 0 8f 37 00
        E 0 92 49 64
        E 0 93 3f 5a
        E 0 9b 46 64
        E 0 8b 46 64
        E 0 9b 46 64
        E 0 8b 46 64
        E 1 9b 49 64
        E 0 8b 49 64
        E 0 9b 49 64
        E 0 8b 49 64
        E 0 9b 49 64
        E 38402 8b 49 64
        E 1 9b 49 64
        E 0 8b 49 64
        E 0 9b 47 64
        E 0 82 49 64
        E 0 83 3f 64
        E 0 8b 47 64
        E 0 8f 37 00
        E 0 92 47 64
        E 0 93 3f 5a
        E 0 9b 46 64
        E 0 9f 38 5a
        E 0 8b 46 64
        E 0 9b 46 64
        E 0 8b 46 64
        E 0 9b 47 64
        E 0 8b 47 64
        E 0 9b 47 64
        E 0 8b 47 64
        E 0 9b 47 64
        E 0 82 47 64
        E 0 8f 38 64
        E 0 83 3f 64
        E 0 8b 47 64
        E 0 92 47 64
        E 0 9f 38 5a
        E 0 93 40 5a
        E 0 9b 4c 64
        E 0 8b 4c 64
        E 0 9b 4c 64
        E 0 8b 4c 64
        E 0 9b 47 64
        E 0 8b 47 64
        E 0 9b 47 64
        E 0 8b 47 64
        E 1 9b 47 64
        E 0 8b 47 64
        E 0 9b 45 64
        E 0 8b 45 64
        E 0 9b 47 64
        E 0 82 47 64
        E 0 83 40 64
        E 0 8b 47 64
        E 0 8f 38 64
        E 0 92 45 64
        E 0 93 3d 5a
        E 0 9b 49 64
        E 0 9f 39 5a
        E 0 8b 49 64
        E 0 9b 45 64
        E 0 8b 45 64
        E 0 9b 45 64
        E 0 8b 45 64
        E 0 9b 45 64
        E 0 8b 45 64
        E 0 9b 44 64
        E 0 82 45 64
        E 0 83 3d 64
        E 0 8b 44 64
        E 0 8f 39 64
        E 0 92 42 64
        E 0 93 3b 5a
        E 0 9b 40 64
        E 0 9f 3b 5a
        E 0 8b 40 64
        E 0 9b 40 64
        E 0 8b 40 64
        E 0 82 42 64
        E 0 83 3b 64
        E 0 8f 3b 64
        E 0 92 44 64
        E 0 93 3b 5a
        E 0 9f 34 5a
        E 0 82 44 64
        E 0 83 3b 64
        E 0 8f 34 64
        E 0 95 47 64
        E 0 9e 47 64
        E 0 9f 34 5a
        E 0 85 47 64
        E 0 8e 47 64
        E 0 95 45 64
        E 0 9e 45 64
        E 0 85 45 64
        E 0 8e 45 64
        E 0 95 47 64
        E 0 9e 47 64
        E 0 85 47 64
        E 0 8e 47 64
        E 0 95 44 64
        E 1 9e 44 64
        E 0 85 44 64
        E 0 8e 44 64
        E 0 95 47 64
        E 0 9e 47 64
        E 0 85 47 64
        E 0 8e 47 64
        E 0 8f 34 64
        E 0 95 40 64
        E 0 9e 40 64
        E 0 9f 34 5a
        E 0 85 40 64
        E 0 8e 40 64
        E 0 95 40 64
        E 0 9e 40 64
        E 0 85 40 64
        E 0 8e 40 64
        E 0 95 47 64
        E 0 9e 47 64
        E 0 85 47 64
        E 0 8e 47 64
        E 0 95 47 64
        E 0 9e 47 64
        E 0 85 47 64
        E 0 8e 47 64
        E 0 95 49 64
        E 0 9e 49 64
        E 0 85 49 64
        E 0 8e 49 64
        E 0 8f 34 64
        E 0 95 45 64
        E 0 9e 45 64
        E 0 9f 39 5a
        E 0 85 45 64
        E 0 8e 45 64
        E 0 95 45 64
        E 0 9e 45 64
        E 0 85 45 64
        E 0 8e 45 64
        E 0 9b 3d 64
        E 0 9e 49 64
        E 0 8b 3d 64
        E 0 8e 49 64
        E 0 9b 3d 64
        E 0 9e 49 64
        E 0 8b 3d 64
        E 0 8e 49 64
        E 0 9b 3e 64
        E 0 9e 4a 64
        E 0 8b 3e 64
        E 0 8e 4a 64
        E 0 8f 39 64
        E 0 9b 39 64
        E 0 9e 45 64
        E 0 9f 36 5a
        E 0 8b 39 64
        E 0 8e 45 64
        E 14974 9b 36 64
        E 0 9e 42 64
        E 0 8b 36 64
        E 0 8e 42 64
        E 0 9b 39 64
        E 0 9e 45 64
        E 0 8b 39 64
        E 0 8e 45 64
        E 0 9b 39 64
        E 0 9e 45 64
        E 0 8b 39 64
        E 0 8e 45 64
        E 0 8f 36 64
        E 0 9b 39 64
        E 2 9e 45 64
        E 0 9f 36 5a
        E 0 8b 39 64
        E 0 8e 45 64
        E 0 9b 39 64
        E 0 9e 45 64
        E 0 8b 39 64
        E 0 8e 45 64
        E 0 9b 39 64
        E 1 9e 45 64
        E 0 8b 39 64
        E 0 8e 45 64
        E 0 9b 39 64
        E 1 9e 45 64
        E 0 8b 39 64
        E 0 8e 45 64
        E 0 9b 38 64
        E 0 9e 44 64
        E 0 8b 38 64
        E 0 8e 44 64
        E 0 8f 36 64
        E 0 9b 3b 64
        E 0 9e 47 64
        E 0 9f 34 5a
        E 0 8b 3b 64
        E 0 8e 47 64
        E 1 9b 3b 64
        E 0 9e 47 64
        E 0 8b 3b 64
        E 0 8e 47 64
        E 0 95 44 64
        E 0 9e 44 64
        E 0 85 44 64
        E 0 8e 44 64
        E 0 95 44 64
        E 0 9e 44 64
        E 0 85 44 64
        E 0 8e 44 64
        E 0 95 44 64
        E 0 9e 44 64
        E 0 85 44 64
        E 0 8e 44 64
        E 1 8f 34 64
        E 0 95 41 63
        E 0 9e 41 63
        E 0 9f 2f 5a
        E 0 85 41 63
        E 0 8e 41 63
        E 0 95 41 63
        E 0 9e 41 63
        E 0 85 41 63
        E 0 8e 41 63
        E 0 95 44 64
        E 1 9e 44 64
        E 0 85 44 64
        E 0 8e 44 64
        E 0 95 45 64
        E 0 9e 45 64
        E 0 85 45 64
        E 0 8e 45 64
        E 0 95 47 64
        E 0 9e 47 64
        E 165 85 47 64
        E 1 8e 47 64
        E 0 95 47 64
        E 0 9e 47 64
        E 340 85 47 64
        E 0 8e 47 64
        E 1 95 45 64
        E 0 9e 45 64
        E 343 85 45 64
        E 0 8e 45 64
        E 0 8f 2f 64
        E 0 95 42 64
        E 0 9e 42 64
        E 0 9f 2d 5a
        E 686 85 42 64
        E 0 8e 42 64
        E 0 95 42 64
        E 0 9e 42 64
        E 39086 85 42 64
        E 0 8e 42 64
        E 0 95 49 64
        E 0 9e 49 64
        E 0 85 49 64
        E 1 8e 49 64
        E 0 95 47 64
        E 0 9e 47 64
        E 0 85 47 64
        E 0 8e 47 64
        E 0 95 49 64
        E 0 9e 49 64
        E 0 85 49 64
        E 0 8e 49 64
        E 0 8f 2d 64
        E 0 95 45 64
        E 0 9e 45 64
        E 0 9f 2d 5a
        E 0 85 45 64
        E 0 8e 45 64
        E 0 95 45 64
        E 0 9e 45 64
        E 0 85 45 64
        E 0 8e 45 64
        E 0 95 45 64
        E 0 9e 45 64
        E 0 85 45 64
        E 0 8e 45 64
        E 0 95 45 64
        E 0 9e 45 64
        E 0 85 45 64
        E 0 8e 45 64
        E 0 95 45 64
        E 0 9e 45 64
        E 0 85 45 64
        E 0 8e 45 64
        E 0 95 45 64
        E 0 9e 45 64
        E 0 85 45 64
        E 0 8e 45 64
        E 0 95 47 64
        E 0 9e 47 64
        E 0 85 47 64
        E 0 8e 47 64
        E 0 8f 2d 64
        E 0 95 43 64
        E 0 9e 43 64
        E 0 9f 31 5a
        E 0 85 43 64
        E 0 8e 43 64
        E 0 95 43 64
        E 0 9e 43 64
        E 0 85 43 64
        E 0 8e 43 64
        E 0 95 43 64
        E 1 9e 43 64
        E 0 85 43 64
        E 0 8e 43 64
        E 0 95 42 64
        E 0 9e 42 64
        E 0 85 42 64
        E 0 8e 42 64
        E 0 8f 31 64
        E 0 95 42 64
        E 0 9e 42 64
        E 0 9f 32 5a
        E 0 85 42 64
        E 0 8e 42 64
        E 0 95 42 64
        E 0 9e 42 64
        E 0 85 42 64
        E 0 8e 42 64
        E 0 95 3e 64
        E 0 9e 3e 64
        E 0 85 3e 64
        E 0 8e 3e 64
        E 0 95 3e 64
        E 0 9e 3e 64
        E 0 85 3e 64
        E 0 8e 3e 64
        E 0 8f 32 64
        E 0 95 45 64
        E 0 9e 45 64
        E 0 9f 32 5a
        E 0 85 45 64
        E 0 8e 45 64
        E 0 95 48 64
        E 0 9e 48 64
        E 0 85 48 64
        E 0 8e 48 64
        E 0 95 45 64
        E 0 9e 45 64
        E 0 85 45 64
        E 0 8e 45 64
        E 0 8f 32 64
        E 0 95 47 64
        E 0 9e 47 64
        E 0 9f 37 5a
        E 0 85 47 64
        E 0 8e 47 64
        E 0 95 47 64
        E 0 9e 47 64
        E 0 85 47 64
        E 0 8e 47 64
        E 0 95 47 64
        E 0 9e 47 64
        E 0 85 47 64
        E 0 8e 47 64
        E 1 95 43 64
        E 0 9e 43 64
        E 0 85 43 64
        E 0 8e 43 64
        E 0 8f 37 64
        E 0 95 49 64
        E 0 9e 49 64
        E 0 9f 37 5a
        E 0 85 49 64
        E 0 8e 49 64
        E 0 95 49 64
        E 0 9e 49 64
        E 0 85 49 64
        E 0 8e 49 64
        E 0 95 4a 64
        E 0 9e 4a 64
        E 0 85 4a 64
        E 0 8e 4a 64
        E 0 8f 37 64
        E 0 95 45 64
        E 0 9e 45 64
        E 0 9f 39 5a
        E 0 85 45 64
        E 0 8e 45 64
        E 0 95 45 64
        E 0 9e 45 64
        E 0 85 45 64
        E 0 8e 45 64
        E 0 8f 39 64
        E 0 9f 32 5a
        E 0 8f 32 64
        E 0 9f 32 5a
        E 0 9b 36 64
        E 0 9e 42 64
        E 0 8b 36 64
        E 0 8e 42 64
        E 0 9b 39 64
        E 0 9e 45 64
        E 0 8b 39 64
        E 0 8e 45 64
        E 0 95 47 64
        E 0 9e 47 64
        E 0 85 47 64
        E 0 8e 47 64
        E 0 8f 32 64
        E 0 95 43 64
        E 0 9e 43 64
        E 0 9f 37 5a
        E 0 85 43 64
        E 0 8e 43 64
        E 0 95 43 64
        E 0 9e 43 64
        E 0 85 43 64
        E 0 8e 43 64
        E 0 97 47 64
        E 0 9e 47 64
        E 0 87 47 64
        E 0 8e 47 64
        E 0 97 47 64
        E 0 9e 47 64
        E 0 87 47 64
        E 0 8e 47 64
        E 1 97 49 64
        E 0 9e 49 64
        E 0 87 49 64
        E 0 8e 49 64
        E 0 8f 37 64
        E 0 97 46 64
        E 0 9e 46 64
        E 0 9f 34 5a
        E 0 87 46 64
        E 0 8e 46 64
        E 0 97 46 64
        E 0 9e 46 64
        E 0 87 46 64
        E 0 8e 46 64
        E 0 96 42 64
        E 0 9e 42 64
        E 0 86 42 64
        E 0 8e 42 64
        E 0 96 42 64
        E 0 9e 42 64
        E 38402 86 42 64
        E 0 8e 42 64
        E 0 8f 34 64
        E 0 96 3e 64
        E 1 9e 3e 64
        E 0 9f 2f 5a
        E 0 86 3e 64
        E 0 8e 3e 64
        E 0 9b 36 64
        E 0 9e 42 64
        E 0 8b 36 64
        E 0 8e 42 64
        E 0 9b 36 64
        E 0 9e 42 64
        E 0 8b 36 64
        E 0 8e 42 64
        E 0 9b 36 64
        E 0 9e 42 64
        E 0 8b 36 64
        E 0 8e 42 64
        E 0 9b 36 64
        E 0 9e 42 64
        E 0 8b 36 64
        E 0 8e 42 64
        E 0 9b 36 64
        E 0 9e 42 64
        E 0 8b 36 64
        E 0 8e 42 64
        E 0 8f 2f 64
        E 0 9b 3b 64
        E 0 9e 47 64
        E 0 9f 2f 5a
        E 0 8b 3b 64
        E 0 8e 47 64
        E 0 9b 3b 64
        E 0 9e 47 64
        E 0 8b 3b 64
        E 0 8e 47 64
        E 0 9b 3b 64
        E 0 9e 47 64
        E 0 8b 3b 64
        E 0 8e 47 64
        E 0 9b 3b 64
        E 0 9e 47 64
        E 0 8b 3b 64
        E 0 8e 47 64
        E 0 8f 2f 64
        E 0 9b 38 64
        E 0 9e 44 64
        E 0 9f 35 59
        E 0 8b 38 64
        E 0 8e 44 64
        E 0 9b 38 64
        E 0 9e 44 64
        E 0 8b 38 64
        E 0 8e 44 64
        E 0 8f 35 63
        E 1 9b 38 64
        E 0 9e 44 64
        E 0 9f 35 59
        E 0 8b 38 64
        E 0 8e 44 64
        E 0 9b 38 64
        E 0 9e 44 64
        E 0 8b 38 64
        E 0 8e 44 64
        E 0 9b 38 64
        E 0 9e 44 64
        E 0 8b 38 64
        E 0 8e 44 64
        E 0 9b 36 64
        E 0 9e 42 64
        E 0 8b 36 64
        E 0 8e 42 64
        E 0 9b 38 64
        E 0 9e 44 64
        E 0 8b 38 64
        E 0 8e 44 64
        E 0 8f 35 63
        E 0 9b 39 64
        E 0 9e 45 64
        E 0 9f 36 5a
        E 0 8b 39 64
        E 0 8e 45 64
        E 0 9b 3d 64
        E 0 9e 49 64
        E 0 8b 3d 64
        E 0 8e 49 64
        E 0 9b 3c 63
        E 0 9e 48 63
        E 0 8b 3c 63
        E 0 8e 48 63
        E 0 9b 3d 64
        E 0 9e 49 64
        E 0 8b 3d 64
        E 0 8e 49 64
        E 0 8f 36 64
        E 0 9b 38 64
        E 0 9e 44 64
        E 1 9f 38 5a
        E 0 8b 38 64
        E 0 8e 44 64
        E 0 9b 38 64
        E 0 9e 44 64
        E 0 8b 38 64
        E 0 8e 44 64
        E 0 8f 38 64
        E 0 9f 31 5a
        E 0 8f 31 64
        E 0 95 40 64
        E 0 9e 40 64
        E 0 9f 31 5a
        E 0 85 40 64
        E 0 8e 40 64
        E 0 95 40 64
        E 0 9e 40 64
        E 0 85 40 64
        E 0 8e 40 64
        E 0 95 40 64
        E 0 9e 40 64
        E 0 85 40 64
        E 0 8e 40 64
        E 0 95 40 64
        E 0 9e 40 64
        E 0 85 40 64
        E 0 8e 40 64
        E 0 95 40 64
        E 0 9e 40 64
        E 0 85 40 64
        E 0 8e 40 64
        E 0 8f 31 64
        E 0 95 45 64
        E 0 9e 45 64
        E 0 9f 31 5a
        E 0 85 45 64
        E 1 8e 45 64
        E 0 95 45 64
        E 0 9e 45 64
        E 0 85 45 64
        E 0 8e 45 64
        E 0 95 45 64
        E 0 9e 45 64
        E 0 85 45 64
        E 0 8e 45 64
        E 0 95 47 64
        E 0 9e 47 64
        E 0 85 47 64
        E 0 8e 47 64
        E 0 95 43 64
        E 0 9e 43 64
        E 0 85 43 64
        E 0 8e 43 64
        E 0 95 43 64
        E 0 9e 43 64
        E 0 85 43 64
        E 0 8e 43 64
        E 0 95 42 64
        E 0 9e 42 64
        E 0 85 42 64
        E 0 8e 42 64
        E 0 8f 31 64
        E 0 95 3e 64
        E 0 9e 3e 64
        E 0 9f 36 5a
        E 0 85 3e 64
        E 0 8e 3e 64
        E 0 95 3e 64
        E 0 9e 3e 64
        E 0 85 3e 64
        E 0 8e 3e 64
        E 0 9b 39 64
        E 0 9e 45 64
        E 0 8b 39 64
        E 0 8e 45 64
        E 0 9b 38 64
        E 0 9e 44 64
        E 0 8b 38 64
        E 0 8e 44 64
        E 0 8f 36 64
        E 0 9b 3b 64
        E 0 9e 47 64
        E 0 9f 34 5a
        E 0 8b 3b 64
        E 0 8e 47 64
        E 0 9b 3b 64
        E 0 9e 47 64
        E 0 8b 3b 64
        E 0 8e 47 64
        E 0 9b 3c 64
        E 0 9e 48 64
        E 0 8b 3c 64
        E 0 8e 48 64
        E 0 8f 34 64
        E 0 9b 39 64
        E 0 9e 45 64
        E 0 9f 30 5a
        E 0 8b 39 64
        E 0 8e 45 64
        E 0 9b 39 64
        E 0 9e 45 64
        E 0 8b 39 64
        E 0 8e 45 64
        E 0 9b 39 64
        E 0 9e 45 64
        E 0 8b 39 64
        E 0 8e 45 64
        E 0 9b 39 64
        E 0 9e 45 64
        E 38403 8b 39 64
        E 0 8e 45 64
        E 0 9b 39 64
        E 0 9e 45 64
        E 0 8b 39 64
        E 0 8e 45 64
        E 0 9b 39 64
        E 0 9e 45 64
        E 0 8b 39 64
        E 0 8e 45 64
        E 0 9b 34 64
        E 0 9e 40 64
        E 0 8b 34 64
        E 0 8e 40 64
        E 0 8f 30 64
        E 0 9b 36 64
        E 0 9e 42 64
        E 0 9f 2f 5a
        E 0 8b 36 64
        E 0 8e 42 64
        E 0 9b 36 64
        E 0 9e 42 64
        E 0 8b 36 64
        E 0 8e 42 64
        E 0 95 47 64
        E 1 9e 47 64
        E 0 85 47 64
        E 0 8e 47 64
        E 0 95 45 64
        E 0 9e 45 64
        E 0 85 45 64
        E 0 8e 45 64
        E 0 95 47 64
        E 0 9e 47 64
        E 0 85 47 64
        E 0 8e 47 64
        E 0 8f 2f 64
        E 0 95 43 64
        E 0 9e 43 64
        E 0 9f 34 5a
        E 0 85 43 64
        E 0 8e 43 64
        E 0 95 43 64
        E 0 9e 43 64
        E 0 85 43 64
        E 0 8e 43 64
        E 0 95 40 64
        E 0 9e 40 64
        E 0 8f 34 64
        E 0 85 40 64
        E 0 8e 40 64
        E 0 9f 34 5a
        E 0 95 47 64
        E 0 9e 47 64
        E 0 85 47 64
        E 0 8e 47 64
        E 0 95 47 64
        E 0 9e 47 64
        E 0 85 47 64
        E 0 8e 47 64
        E 0 95 47 64
        E 0 9e 47 64
        E 0 85 47 64
        E 0 8e 47 64
        E 0 95 49 64
        E 0 9e 49 64
        E 0 85 49 64
        E 0 8e 49 64
        E 0 95 46 64
        E 0 9e 46 64
        E 0 85 46 64
        E 0 8e 46 64
        E 0 95 46 64
        E 0 9e 46 64
        E 0 85 46 64
        E 0 8e 46 64
        E 0 95 46 64
        E 0 9e 46 64
        E 0 85 46 64
        E 0 8e 46 64
        E 0 95 47 64
        E 0 9e 47 64
        E 0 85 47 64
        E 0 8e 47 64
        E 0 8f 34 64
        E 0 95 42 64
        E 0 9e 42 64
        E 0 9f 36 5a
        E 0 85 42 64
        E 0 8e 42 64
        E 0 95 42 64
        E 0 9e 42 64
        E 0 85 42 64
        E 0 8e 42 64
        E 0 8f 36 64
        E 0 9f 2f 5a
        E 1 9b 3e 64
        E 0 9e 4a 64
        E 0 8b 3e 64
        E 0 8e 4a 64
        E 0 8f 2f 64
        E 0 9b 3b 64
        E 0 9e 47 64
        E 0 9f 2f 5a
        E 0 8b 3b 64
        E 0 8e 47 64
        E 0 9b 3b 64
        E 0 9e 47 64
        E 0 8b 3b 64
        E 0 8e 47 64
        E 0 9b 3b 64
        E 0 9e 47 64
        E 0 8b 3b 64
        E 0 8e 47 64
        E 0 9b 3c 64
        E 0 9e 48 64
        E 0 8b 3c 64
        E 0 8e 48 64
        E 0 8f 2f 64
        E 0 9b 39 64
        E 0 9e 45 64
        E 0 9f 33 5a
        E 0 8b 39 64
        E 0 8e 45 64
        E 0 9b 39 64
        E 0 9e 45 64
        E 0 8b 39 64
        E 0 8e 45 64
        E 0 9b 36 64
        E 0 9e 42 64
        E 0 8b 36 64
        E 0 8e 42 64
        E 0 9b 37 64
        E 0 9e 43 64
        E 0 8b 37 64
        E 0 8e 43 64
        E 0 9b 39 64
        E 0 9e 45 64
        E 0 8b 39 64
        E 0 8e 45 64
        E 0 9b 39 64
        E 0 9e 45 64
        E 0 8b 39 64
        E 0 8e 45 64
        E 0 9b 37 64
        E 0 9e 43 64
        E 0 8b 37 64
        E 0 8e 43 64
        E 0 8f 33 64
        E 0 9b 34 64
        E 0 9e 40 64
        E 0 9f 34 5a
        E 0 8b 34 64
        E 0 8e 40 64
        E 0 9b 3b 64
        E 0 9e 47 64
        E 0 8b 3b 64
        E 0 8e 47 64
        E 0 9b 37 64
        E 0 9e 43 64
        E 0 8b 37 64
        E 0 8e 43 64
        E 0 9b 39 64
        E 0 9e 45 64
        E 0 8b 39 64
        E 0 8e 45 64
        E 0 9b 3b 64
        E 0 9e 47 64
        E 0 8b 3b 64
        E 0 8e 47 64
        E 0 9b 3b 64
        E 0 9e 47 64
        E 0 8b 3b 64
        E 0 8e 47 64
        E 0 8f 34 64
        E 0 9b 3b 64
        E 0 9e 47 64
        E 0 9f 34 5a
        E 0 8b 3b 64
        E 0 8e 47 64
        E 0 9b 3b 64
        E 0 9e 47 64
        E 0 8b 3b 64
        E 0 8e 47 64
        E 0 9b 3b 64
        E 0 9e 47 64
        E 0 8b 3b 64
        E 0 8e 47 64
        E 0 9b 39 64
        E 0 9e 45 64
        E 0 8b 39 64
        E 0 8e 45 64
        E 0 9b 3b 64
        E 0 9e 47 64
        E 0 8b 3b 64
        E 0 8e 47 64
        E 0 8f 34 64
        E 0 9b 3c 64
        E 0 9e 48 64
        E 0 9f 2d 5a
        E 0 8b 3c 64
        E 0 8e 48 64
        E 0 9b 3c 64
        E 0 9e 48 64
        E 0 8b 3c 64
        E 0 8e 48 64
        E 0 9b 3c 64
        E 1 9e 48 64
        E 0 8b 3c 64
        E 0 8e 48 64
        E 0 9b 39 64
        E 0 9e 45 64
        E 0 8b 39 64
        E 0 8e 45 64
        E 0 8f 2d 64
        E 0 9f 2d 5a
        E 0 95 45 64
        E 0 9e 45 64
        E 38403 85 45 64
        E 0 8e 45 64
        E 0 95 43 64
        E 0 9e 43 64
        E 0 85 43 64
        E 0 8e 43 64
        E 0 95 45 64
        E 0 9e 45 64
        E 0 85 45 64
        E 0 8e 45 64
        E 0 8f 2d 64
        E 0 95 41 64
        E 0 9e 41 64
        E 0 9f 32 5a
        E 0 85 41 64
        E 0 8e 41 64
        E 0 95 41 64
        E 0 9e 41 64
        E 0 85 41 64
        E 0 8e 41 64
        E 0 8f 32 64
        E 0 95 4a 64
        E 0 9e 4a 64
        E 0 9f 32 5a
        E 0 85 4a 64
        E 0 8e 4a 64
        E 0 95 44 64
        E 0 9e 44 64
        E 0 85 44 64
        E 0 8e 44 64
        E 0 95 45 64
        E 0 9e 45 64
        E 0 85 45 64
        E 0 8e 45 64
        E 0 8f 32 64
        E 0 95 40 64
        E 0 9e 40 64
        E 0 9f 34 5a
        E 0 85 40 64
        E 0 8e 40 64
        E 0 95 40 64
        E 0 9e 40 64
        E 0 85 40 64
        E 0 8e 40 64
        E 0 8f 34 64
        E 0 9f 2d 5a
        E 0 95 48 64
        E 0 9e 48 64
        E 0 85 48 64
        E 0 8e 48 64
        E 0 95 47 64
        E 0 9e 47 64
        E 0 85 47 64
        E 0 8e 47 64
        E 0 95 48 64
        E 0 9e 48 64
        E 0 85 48 64
        E 0 8e 48 64
        E 0 8f 2d 64
        E 0 95 45 64
        E 0 9e 45 64
        E 0 9f 2d 5a
        E 0 85 45 64
        E 0 8e 45 64
        E 0 95 45 64
        E 0 9e 45 64
        E 0 85 45 64
        E 0 8e 45 64
        E 0 95 40 64
        E 0 9e 40 64
        E 0 85 40 64
        E 1 8e 40 64
        E 0 8f 2d 64
        E 0 95 45 64
        E 0 9e 45 64
        E 0 9f 2a 5a
        E 0 85 45 64
        E 0 8e 45 64
        E 0 95 45 64
        E 0 9e 45 64
        E 0 85 45 64
        E 0 8e 45 64
        E 0 8f 2a 64
        E 0 95 45 64
        E 0 9e 45 64
        E 0 9f 2a 5a
        E 0 85 45 64
        E 0 8e 45 64
        E 0 95 45 64
        E 0 9e 45 64
        E 0 85 45 64
        E 0 8e 45 64
        E 0 95 45 64
        E 0 9e 45 64
        E 0 85 45 64
        E 0 8e 45 64
        E 0 95 45 64
        E 0 9e 45 64
        E 0 85 45 64
        E 0 8e 45 64
        E 0 95 47 64
        E 0 9e 47 64
        E 0 85 47 64
        E 0 8e 47 64
        E 0 95 48 64
        E 0 9e 48 64
        E 0 85 48 64
        E 0 8e 48 64
        E 0 95 48 64
        E 0 9e 48 64
        E 0 85 48 64
        E 0 8e 48 64
        E 0 95 48 64
        E 0 9e 48 64
        E 0 85 48 64
        E 0 8e 48 64
        E 0 95 47 64
        E 0 9e 47 64
        E 0 85 47 64
        E 0 8e 47 64
        E 0 8f 2a 64
        E 0 95 43 64
        E 0 9e 43 64
        E 0 9f 2b 5a
        E 0 85 43 64
        E 0 8e 43 64
        E 0 95 43 64
        E 0 9e 43 64
        E 0 85 43 64
        E 0 8e 43 64
        E 0 95 43 64
        E 0 9e 43 64
        E 0 85 43 64
        E 0 8e 43 64
        E 0 95 43 64
        E 0 9e 43 64
        E 0 85 43 64
        E 0 8e 43 64
        E 0 95 43 64
        E 0 9e 43 64
        E 0 85 43 64
        E 0 8e 43 64
        E 0 95 41 64
        E 0 9e 41 64
        E 0 85 41 64
        E 0 8e 41 64
        E 1 95 43 64
        E 0 9e 43 64
        E 0 85 43 64
        E 0 8e 43 64
        E 0 8f 2b 64
        E 0 95 40 64
        E 0 9e 40 64
        E 0 9f 30 5a
        E 0 85 40 64
        E 0 8e 40 64
        E 0 95 48 64
        E 0 9e 48 64
        E 0 85 48 64
        E 0 8e 48 64
        E 0 95 48 64
        E 0 9e 48 64
        E 0 85 48 64
        E 0 8e 48 64
        E 0 95 47 64
        E 0 9e 47 64
        E 0 85 47 64
        E 0 8e 47 64
        E 0 8f 30 64
        E 0 95 43 64
        E 0 9e 43 64
        E 0 9f 32 5a
        E 0 85 43 64
        E 0 8e 43 64
        E 0 95 43 64
        E 0 9e 43 64
        E 0 85 43 64
        E 0 8e 43 64
        E 0 8f 32 64
        E 0 9f 2b 5a
        E 0 9b 3b 64
        E 0 9e 47 64
        E 0 8b 3b 64
        E 0 8e 47 64
        E 0 9b 3b 64
        E 0 9e 47 64
        E 0 8b 3b 64
        E 0 8e 47 64
        E 0 9b 3e 64
        E 0 9e 4a 64
        E 0 8b 3e 64
        E 0 8e 4a 64
        E 0 8f 2b 64
        E 0 9b 37 64
        E 0 9e 43 64
        E 0 9f 2b 5a
        E 0 8b 37 64
        E 0 8e 43 64
        E 0 9b 37 64
        E 0 9e 43 64
        E 0 8b 37 64
        E 0 8e 43 64
        E 0 96 3e 64
        E 0 9e 3e 64
        E 0 86 3e 64
        E 0 8e 3e 64
        E 0 8f 2b 64
        E 0 96 43 64
        E 0 9e 43 64
        E 0 9f 2b 5a
        E 0 86 43 64
        E 0 8e 43 64
        E 0 96 43 64
        E 0 9e 43 64
        E 0 86 43 64
        E 0 8e 43 64
        E 0 96 43 64
        E 0 9e 43 64
        E 0 86 43 64
        E 0 8e 43 64
        E 0 96 45 64
        E 0 9e 45 64
        E 38403 86 45 64
        E 0 8e 45 64
        E 0 96 41 64
        E 0 9e 41 64
        E 0 86 41 64
        E 0 8e 41 64
        E 0 96 41 64
        E 0 9e 41 64
        E 0 86 41 64
        E 0 8e 41 64
        E 0 96 41 64
        E 0 9e 41 64
        E 1 86 41 64
        E 0 8e 41 64
        E 0 96 41 64
        E 0 9e 41 64
        E 0 86 41 64
        E 0 8e 41 64
        E 0 8f 2b 64
        E 0 96 47 64
        E 0 9e 47 64
        E 0 9f 2b 5a
        E 0 86 47 64
        E 0 8e 47 64
        E 0 96 47 64
        E 0 9e 47 64
        E 0 86 47 64
        E 0 8e 47 64
        E 0 96 48 64
        E 0 9e 48 64
        E 0 86 48 64
        E 0 8e 48 64
        E 0 8f 2b 64
        E 0 96 43 64
        E 0 9e 43 64
        E 0 9f 28 5a
        E 0 86 43 64
        E 0 8e 43 64
        E 0 8f 28 64
        E 0 96 48 64
        E 0 9e 48 64
        E 0 9f 2d 5a
        E 0 86 48 64
        E 0 8e 48 64
        E 0 96 45 64
        E 0 9e 45 64
        E 0 86 45 64
        E 0 8e 45 64
        E 0 96 43 64
        E 0 9e 43 64
        E 0 86 43 64
        E 0 8e 43 64
        E 0 8f 2d 64
        E 0 96 40 64
        E 0 9e 40 64
        E 0 9f 2f 5a
        E 0 86 40 64
        E 0 8e 40 64
        E 0 96 40 64
        E 0 9e 40 64
        E 0 86 40 64
        E 0 8e 40 64
        E 0 8f 2f 64
        E 0 9f 34 5a
        E 0 8f 34 64
        E 0 95 47 64
        E 0 9e 47 64
        E 0 9f 34 5a
        E 0 85 47 64
        E 0 8e 47 64
        E 0 95 43 64
        E 0 9e 43 64
        E 0 85 43 64
        E 0 8e 43 64
        E 0 95 43 64
        E 0 9e 43 64
        E 0 85 43 64
        E 0 8e 43 64
        E 0 95 43 64
        E 0 9e 43 64
        E 0 85 43 64
        E 0 8e 43 64
        E 0 95 43 64
        E 0 9e 43 64
        E 0 85 43 64
        E 0 8e 43 64
        E 0 95 42 64
        E 0 9e 42 64
        E 0 85 42 64
        E 0 8e 42 64
        E 0 8f 34 64
        E 0 95 45 64
        E 0 9e 45 64
        E 0 9f 32 5a
        E 1 85 45 64
        E 0 8e 45 64
        E 0 95 45 64
        E 0 9e 45 64
        E 0 85 45 64
        E 0 8e 45 64
        E 0 95 48 64
        E 0 9e 48 64
        E 0 85 48 64
        E 0 8e 48 64
        E 0 95 45 64
        E 0 9e 45 64
        E 0 85 45 64
        E 0 8e 45 64
        E 0 95 45 64
        E 0 9e 45 64
        E 0 85 45 64
        E 0 8e 45 64
        E 0 95 47 64
        E 0 9e 47 64
        E 0 85 47 64
        E 0 8e 47 64
        E 0 8f 32 64
        E 0 95 44 64
        E 0 9e 44 64
        E 0 9f 32 5a
        E 0 85 44 64
        E 0 8e 44 64
        E 0 95 44 64
        E 1 9e 44 64
        E 0 85 44 64
        E 0 8e 44 64
        E 0 95 40 64
        E 0 9e 40 64
        E 0 85 40 64
        E 0 8e 40 64
        E 0 95 40 64
        E 0 9e 40 64
        E 0 85 40 64
        E 0 8e 40 64
        E 0 95 44 64
        E 0 9e 44 64
        E 0 85 44 64
        E 0 8e 44 64
        E 0 95 44 64
        E 0 9e 44 64
        E 0 85 44 64
        E 0 8e 44 64
        E 0 95 45 64
        E 0 9e 45 64
        E 0 85 45 64
        E 0 8e 45 64
        E 0 8f 32 64
        E 0 95 47 64
        E 0 9e 47 64
        E 0 9f 2c 5a
        E 0 85 47 64
        E 0 8e 47 64
        E 0 95 47 64
        E 0 9e 47 64
        E 0 85 47 64
        E 0 8e 47 64
        E 0 95 47 64
        E 0 9e 47 64
        E 0 85 47 64
        E 0 8e 47 64
        E 0 95 4a 64
        E 0 9e 4a 64
        E 0 85 4a 64
        E 0 8e 4a 64
        E 0 95 48 64
        E 0 9e 48 64
        E 0 85 48 64
        E 0 8e 48 64
        E 0 8f 2c 64
        E 0 95 45 64
        E 0 9e 45 64
        E 0 9f 2d 5a
        E 0 85 45 64
        E 0 8e 45 64
        E 1 95 45 64
        E 0 9e 45 64
        E 0 85 45 64
        E 0 8e 45 64
        E 0 8f 2d 64
        E 0 95 40 64
        E 0 9e 40 64
        E 0 9f 2d 5a
        E 38402 85 40 64
        E 1 8e 40 64
        E 0 95 40 64
        E 0 9e 40 64
        E 0 85 40 64
        E 0 8e 40 64
        E 0 95 40 64
        E 0 9e 40 64
        E 0 85 40 64
        E 0 8e 40 64
        E 0 95 45 64
        E 0 9e 45 64
        E 0 85 45 64
        E 0 8e 45 64
        E 0 95 43 64
        E 0 9e 43 64
        E 0 85 43 64
        E 0 8e 43 64
        E 0 8f 2d 64
        E 0 95 43 64
        E 0 9e 43 64
        E 0 9f 2f 5a
        E 0 85 43 64
        E 0 8e 43 64
        E 0 95 43 64
        E 0 9e 43 64
        E 0 85 43 64
        E 0 8e 43 64
        E 0 8f 2f 64
        E 0 95 43 64
        E 0 9e 43 64
        E 0 9f 2f 5a
        E 0 85 43 64
        E 0 8e 43 64
        E 0 95 43 64
        E 0 9e 43 64
        E 0 85 43 64
        E 0 8e 43 64
        E 0 95 43 64
        E 0 9e 43 64
        E 0 85 43 64
        E 0 8e 43 64
        E 0 95 43 64
        E 1 9e 43 64
        E 0 85 43 64
        E 1 8e 43 64
        E 0 95 45 64
        E 0 9e 45 64
        E 0 85 45 64
        E 0 8e 45 64
        E 0 8f 2f 64
        E 0 95 47 64
        E 0 9e 47 64
        E 0 9f 35 5a
        E 0 85 47 64
        E 0 8e 47 64
        E 0 95 47 64
        E 0 9e 47 64
        E 0 85 47 64
        E 0 8e 47 64
        E 0 8f 35 64
        E 0 95 47 64
        E 1 9e 47 64
        E 0 9f 35 5a
        E 0 85 47 64
        E 0 8e 47 64
        E 0 95 47 64
        E 0 9e 47 64
        E 0 85 47 64
        E 0 8e 47 64
        E 0 95 47 64
        E 0 9e 47 64
        E 0 85 47 64
        E 0 8e 47 64
        E 0 95 45 64
        E 0 9e 45 64
        E 0 85 45 64
        E 0 8e 45 64
        E 0 95 43 64
        E 0 9e 43 64
        E 0 85 43 64
        E 0 8e 43 64
        E 0 8f 35 64
        E 0 95 48 64
        E 0 9e 48 64
        E 0 9f 34 5a
        E 0 85 48 64
        E 0 8e 48 64
        E 0 95 48 64
        E 0 9e 48 64
        E 0 85 48 64
        E 0 8e 48 64
        E 0 8f 34 64
        E 0 95 45 64
        E 0 9e 45 64
        E 0 9f 35 5a
        E 0 85 45 64
        E 0 8e 45 64
        E 0 95 47 64
        E 0 9e 47 64
        E 0 85 47 64
        E 0 8e 47 64
        E 0 95 48 64
        E 0 9e 48 64
        E 0 85 48 64
        E 0 8e 48 64
        E 0 8f 35 64
        E 0 95 43 64
        E 1 9e 43 64
        E 0 9f 37 5a
        E 0 85 43 64
        E 0 8e 43 64
        E 0 8f 37 64
        E 0 9f 30 5a
        E 0 8f 30 64
        E 0 95 46 66
        E 0 9e 46 66
        E 0 9f 30 5a
        E 0 85 46 66
        E 0 8e 46 66
        E 0 95 46 66
        E 0 9e 46 66
        E 0 85 46 66
        E 0 8e 46 66
        E 0 95 46 66
        E 0 9e 46 66
        E 0 85 46 66
        E 0 8e 46 66
        E 0 95 45 64
        E 0 9e 45 64
        E 0 85 45 64
        E 0 8e 45 64
        E 0 8f 30 64
        E 0 95 45 64
        E 0 9e 45 64
        E 0 9f 35 5a
        E 0 85 45 64
        E 0 8e 45 64
        E 0 95 45 64
        E 0 9e 45 64
        E 0 85 45 64
        E 0 8e 45 64
        E 0 95 41 64
        E 0 9e 41 64
        E 0 85 41 64
        E 0 8e 41 64
        E 0 95 40 64
        E 0 9e 40 64
        E 0 85 40 64
        E 0 8e 40 64
        E 0 95 41 64
        E 0 9e 41 64
        E 0 85 41 64
        E 0 8e 41 64
        E 0 8f 35 64
        E 0 95 3e 64
        E 0 9e 3e 64
        E 0 9f 2e 5b
        E 0 85 3e 64
        E 0 8e 3e 64
        E 0 95 46 66
        E 0 9e 46 66
        E 0 85 46 66
        E 0 8e 46 66
        E 0 95 46 66
        E 0 9e 46 66
        E 0 85 46 66
        E 0 8e 46 66
        E 0 95 46 66
        E 0 9e 46 66
        E 0 85 46 66
        E 0 8e 46 66
        E 0 95 46 66
        E 0 9e 46 66
        E 0 85 46 66
        E 0 8e 46 66
        E 0 95 45 64
        E 0 9e 45 64
        E 0 85 45 64
        E 0 8e 45 64
        E 0 8f 2e 66
        E 1 95 41 64
        E 0 9e 41 64
        E 0 9f 30 5a
        E 0 85 41 64
        E 0 8e 41 64
        E 0 95 41 64
        E 0 9e 41 64
        E 0 85 41 64
        E 0 8e 41 64
        E 0 8f 30 64
        E 0 9f 35 5a
        E 0 96 48 64
        E 0 9e 48 64
        E 0 86 48 64
        E 0 8e 48 64
        E 0 96 46 66
        E 0 9e 46 66
        E 0 86 46 66
        E 0 8e 46 66
        E 0 96 48 64
        E 0 9e 48 64
        E 0 86 48 64
        E 0 8e 48 64
        E 0 8f 35 64
        E 0 96 45 64
        E 0 9e 45 64
        E 0 9f 35 5a
        E 0 86 45 64
        E 0 8e 45 64
        E 38403 8f 35 64
        E 0 95 45 64
        E 0 9e 45 64
        E 0 9f 35 5a
        E 0 85 45 64
        E 0 8e 45 64
        E 0 95 43 64
        E 0 9e 43 64
        E 0 85 43 64
        E 0 8e 43 64
        E 0 95 45 64
        E 0 9e 45 64
        E 0 85 45 64
        E 0 8e 45 64
        E 0 95 41 64
        E 0 9e 41 64
        E 0 85 41 64
        E 0 8e 41 64
        E 0 9b 3c 64
        E 0 9e 48 64
        E 0 8b 3c 64
        E 0 8e 48 64
        E 0 8f 35 64
        E 0 9b 39 64
        E 0 9e 45 64
        E 0 9f 36 5a
        E 0 8b 39 64
        E 0 8e 45 64
        E 0 9b 39 64
        E 0 9e 45 64
        E 0 8b 39 64
        E 0 8e 45 64
        E 0 9b 39 64
        E 0 9e 45 64
        E 0 8b 39 64
        E 0 8e 45 64
        E 1 9b 3b 64
        E 0 9e 47 64
        E 0 8b 3b 64
        E 0 8e 47 64
        E 0 9b 3c 64
        E 0 9e 48 64
        E 0 8b 3c 64
        E 0 8e 48 64
        E 0 9b 3c 64
        E 0 9e 48 64
        E 0 8b 3c 64
        E 0 8e 48 64
        E 0 9b 3b 64
        E 0 9e 47 64
        E 0 8b 3b 64
        E 0 8e 47 64
        E 0 8f 36 64
        E 0 9b 37 64
        E 0 9e 43 64
        E 0 9f 37 5a
        E 0 8b 37 64
        E 0 8e 43 64
        E 0 9b 37 64
        E 0 9e 43 64
        E 0 8b 37 64
        E 0 8e 43 64
        E 0 95 43 64
        E 0 9e 43 64
        E 0 85 43 64
        E 0 8e 43 64
        E 0 95 3e 64
        E 0 9e 3e 64
        E 0 85 3e 64
        E 0 8e 3e 64
        E 0 95 3e 64
        E 0 9e 3e 64
        E 0 85 3e 64
        E 0 8e 3e 64
        E 0 95 47 64
        E 0 9e 47 64
        E 0 85 47 64
        E 0 8e 47 64
        E 0 8f 37 64
        E 0 95 43 64
        E 0 9e 43 64
        E 0 9f 37 5a
        E 0 85 43 64
        E 0 8e 43 64
        E 0 95 43 64
        E 0 9e 43 64
        E 0 85 43 64
        E 0 8e 43 64
        E 0 95 47 64
        E 0 9e 47 64
        E 0 85 47 64
        E 0 8e 47 64
        E 0 95 47 64
        E 0 9e 47 64
        E 0 85 47 64
        E 0 8e 47 64
        E 1 95 48 64
        E 0 9e 48 64
        E 0 85 48 64
        E 0 8e 48 64
        E 0 8f 37 64
        E 0 95 43 64
        E 0 9e 43 64
        E 0 9f 34 5a
        E 0 85 43 64
        E 0 8e 43 64
        E 0 95 43 64
        E 0 9e 43 64
        E 0 85 43 64
        E 0 8e 43 64
        E 0 95 40 64
        E 0 9e 40 64
        E 0 85 40 64
        E 0 8e 40 64
        E 0 95 40 64
        E 0 9e 40 64
        E 0 85 40 64
        E 0 8e 40 64
        E 0 95 43 64
        E 0 9e 43 64
        E 0 85 43 64
        E 0 8e 43 64
        E 0 95 43 64
        E 0 9e 43 64
        E 0 85 43 64
        E 0 8e 43 64
        E 0 95 46 66
        E 0 9e 46 66
        E 0 85 46 66
        E 0 8e 46 66
        E 0 8f 34 64
        E 0 95 45 64
        E 0 9e 45 64
        E 0 9f 31 5a
        E 0 85 45 64
        E 0 8e 45 64
        E 0 95 45 64
        E 0 9e 45 64
        E 0 85 45 64
        E 0 8e 45 64
        E 0 95 45 64
        E 0 9e 45 64
        E 0 85 45 64
        E 0 8e 45 64
        E 0 8f 31 64
        E 0 95 41 64
        E 0 9e 41 64
        E 0 9f 32 5a
        E 0 85 41 64
        E 0 8e 41 64
        E 0 95 41 64
        E 0 9e 41 64
        E 0 85 41 64
        E 0 8e 41 64
        E 0 95 41 64
        E 0 9e 41 64
        E 0 85 41 64
        E 0 8e 41 64
        E 0 95 45 64
        E 0 9e 45 64
        E 0 85 45 64
        E 0 8e 45 64
        E 0 8f 32 64
        E 0 95 46 66
        E 0 9e 46 66
        E 0 9f 2b 5a
        E 0 85 46 66
        E 0 8e 46 66
        E 0 95 46 66
        E 0 9e 46 66
        E 0 85 46 66
        E 0 8e 46 66
        E 0 95 46 66
        E 0 9e 46 66
        E 38403 85 46 66
        E 0 8e 46 66
        E 0 95 43 64
        E 0 9e 43 64
        E 0 85 43 64
        E 0 8e 43 64
        E 0 95 43 64
        E 0 9e 43 64
        E 0 85 43 64
        E 0 8e 43 64
        E 0 95 43 64
        E 0 9e 43 64
        E 0 85 43 64
        E 0 8e 43 64
        E 0 95 41 64
        E 0 9e 41 64
        E 0 85 41 64
        E 0 8e 41 64
        E 0 8f 2b 64
        E 0 95 3e 64
        E 0 9e 3e 64
        E 0 9f 2d 5a
        E 0 85 3e 64
        E 0 8e 3e 64
        E 0 95 3e 64
        E 0 9e 3e 64
        E 0 85 3e 64
        E 0 8e 3e 64
        E 0 8f 2d 64
        E 0 9f 32 5a
        E 0 8f 32 64
        E 0 9a 45 64
        E 0 9e 45 64
        E 0 9f 32 5a
        E 0 8a 45 64
        E 0 8e 45 64
        E 0 9a 45 64
        E 0 9e 45 64
        E 0 8a 45 64
        E 0 8e 45 64
        E 0 9a 45 64
        E 0 9e 45 64
        E 0 8a 45 64
        E 0 8e 45 64
        E 0 9a 45 64
        E 0 9e 45 64
        E 0 8a 45 64
        E 0 8e 45 64
        E 0 8f 32 64
        E 0 9a 42 64
        E 0 9e 42 64
        E 1 9f 30 5a
        E 0 8a 42 64
        E 0 8e 42 64
        E 0 9a 42 64
        E 0 9e 42 64
        E 0 8a 42 64
        E 0 8e 42 64
        E 0 9a 48 64
        E 0 9e 48 64
        E 0 8a 48 64
        E 0 8e 48 64
        E 0 8f 30 64
        E 0 9a 45 64
        E 0 9e 45 64
        E 0 9f 30 5a
        E 0 8a 45 64
        E 0 8e 45 64
        E 0 9a 45 64
        E 0 9e 45 64
        E 0 8a 45 64
        E 0 8e 45 64
        E 0 9a 45 64
        E 0 9e 45 64
        E 0 8a 45 64
        E 0 8e 45 64
        E 0 9a 46 66
        E 0 9e 46 66
        E 0 8a 46 66
        E 0 8e 46 66
        E 0 8f 30 64
        E 0 9a 43 64
        E 0 9e 43 64
        E 0 9f 2e 5b
        E 0 8a 43 64
        E 0 8e 43 64
        E 0 9b 3a 66
        E 1 9e 46 66
        E 0 8b 3a 66
        E 0 8e 46 66
        E 0 9b 3a 66
        E 0 9e 46 66
        E 0 8b 3a 66
        E 0 8e 46 66
        E 0 9b 3e 64
        E 0 9e 4a 64
        E 0 8b 3e 64
        E 0 8e 4a 64
        E 0 8f 2e 66
        E 0 9b 37 64
        E 0 9e 43 64
        E 0 9f 2e 5b
        E 0 8b 37 64
        E 0 8e 43 64
        E 0 9b 37 64
        E 0 9e 43 64
        E 0 8b 37 64
        E 0 8e 43 64
        E 0 9b 37 64
        E 0 9e 43 64
        E 0 8b 37 64
        E 0 8e 43 64
        E 0 9b 37 64
        E 0 9e 43 64
        E 0 8b 37 64
        E 0 8e 43 64
        E 0 9b 37 64
        E 0 9e 43 64
        E 0 8b 37 64
        E 0 8e 43 64
        E 0 8f 2e 66
        E 0 9b 3c 64
        E 0 9e 48 64
        E 0 9f 33 5b
        E 0 8b 3c 64
        E 0 8e 48 64
        E 0 9b 3c 64
        E 0 9e 48 64
        E 0 8b 3c 64
        E 0 8e 48 64
        E 0 8f 33 66
        E 0 9b 37 64
        E 0 9e 43 64
        E 0 9f 33 5b
        E 0 8b 37 64
        E 0 8e 43 64
        E 0 9b 37 64
        E 0 9e 43 64
        E 0 8b 37 64
        E 0 8e 43 64
        E 0 9b 37 64
        E 1 9e 43 64
        E 0 8b 37 64
        E 0 8e 43 64
        E 0 9b 37 64
        E 0 9e 43 64
        E 0 8b 37 64
        E 0 8e 43 64
        E 0 9b 36 64
        E 0 9e 42 64
        E 0 8b 36 64
        E 0 8e 42 64
        E 0 8f 33 66
        E 0 9b 39 64
        E 0 9e 45 64
        E 0 9f 32 5a
        E 0 8b 39 64
        E 0 8e 45 64
        E 0 9b 39 64
        E 0 9e 45 64
        E 0 8b 39 64
        E 0 8e 45 64
        E 0 8f 32 64
        E 0 9b 3e 64
        E 0 9e 4a 64
        E 0 9f 32 5a
        E 0 8b 3e 64
        E 0 8e 4a 64
        E 0 9b 39 64
        E 0 9e 45 64
        E 0 8b 39 64
        E 0 8e 45 64
        E 0 9b 39 64
        E 0 9e 45 64
        E 0 8b 39 64
        E 0 8e 45 64
        E 0 9b 39 64
        E 0 9e 45 64
        E 0 8b 39 64
        E 0 8e 45 64
        E 0 9b 3b 64
        E 0 9e 47 64
        E 0 8b 3b 64
        E 0 8e 47 64
        E 0 9b 38 64
        E 0 9e 44 64
        E 0 8b 38 64
        E 0 8e 44 64
        E 0 9b 38 64
        E 0 9e 44 64
        E 0 8b 38 64
        E 0 8e 44 64
        E 0 9b 38 64
        E 0 9e 44 64
        E 0 8b 38 64
        E 0 8e 44 64
        E 0 9b 38 64
        E 0 9e 44 64
        E 0 8b 38 64
        E 0 8e 44 64
        E 0 9b 39 64
        E 0 9e 45 64
        E 0 8b 39 64
        E 0 8e 45 64
        E 0 8f 32 64
        E 0 9b 34 64
        E 0 9e 40 64
        E 0 9f 34 5a
        E 38403 8b 34 64
        E 0 8e 40 64
        E 1 9b 34 64
        E 0 9e 40 64
        E 0 8b 34 64
        E 0 8e 40 64
        E 0 8f 34 64
        E 0 9f 2d 5a
        E 0 8f 2d 64
        E 0 95 48 64
        E 0 9e 48 64
        E 0 9f 2d 5a
        E 0 85 48 64
        E 0 8e 48 64
        E 0 95 48 64
        E 0 9e 48 64
        E 0 85 48 64
        E 0 8e 48 64
        E 0 95 48 64
        E 0 9e 48 64
        E 0 85 48 64
        E 0 8e 48 64
        E 0 95 47 64
        E 0 9e 47 64
        E 0 85 47 64
        E 0 8e 47 64
        E 0 95 48 64
        E 0 9e 48 64
        E 0 85 48 64
        E 0 8e 48 64
        E 0 8f 2d 64
        E 0 95 45 64
        E 0 9e 45 64
        E 0 9f 2d 5a
        E 0 85 45 64
        E 0 8e 45 64
        E 0 95 45 64
        E 0 9e 45 64
        E 0 85 45 64
        E 0 8e 45 64
        E 0 95 45 64
        E 0 9e 45 64
        E 0 85 45 64
        E 0 8e 45 64
        E 0 95 45 64
        E 0 9e 45 64
        E 0 85 45 64
        E 0 8e 45 64
        E 0 95 45 64
        E 0 9e 45 64
        E 0 85 45 64
        E 0 8e 45 64
        E 0 8f 2d 64
        E 0 95 41 64
        E 0 9e 41 64
        E 0 9f 32 5a
        E 0 85 41 64
        E 0 8e 41 64
        E 0 95 41 64
        E 1 9e 41 64
        E 0 85 41 64
        E 0 8e 41 64
        E 0 95 41 64
        E 0 9e 41 64
        E 0 85 41 64
        E 0 8e 41 64
        E 0 95 41 64
        E 0 9e 41 64
        E 0 85 41 64
        E 0 8e 41 64
        E 0 95 43 64
        E 0 9e 43 64
        E 0 85 43 64
        E 0 8e 43 64
        E 0 95 45 64
        E 0 9e 45 64
        E 0 85 45 64
        E 0 8e 45 64
        E 0 8f 32 64
        E 0 95 46 66
        E 0 9e 46 66
        E 0 9f 32 5a
        E 0 85 46 66
        E 0 8e 46 66
        E 0 95 46 66
        E 0 9e 46 66
        E 0 85 46 66
        E 0 8e 46 66
        E 0 95 46 66
        E 0 9e 46 66
        E 0 85 46 66
        E 0 8e 46 66
        E 0 95 46 66
        E 0 9e 46 66
        E 0 85 46 66
        E 0 8e 46 66
        E 1 95 46 66
        E 0 9e 46 66
        E 0 85 46 66
        E 0 8e 46 66
        E 0 95 46 66
        E 0 9e 46 66
        E 0 85 46 66
        E 0 8e 46 66
        E 0 95 41 64
        E 0 9e 41 64
        E 0 85 41 64
        E 0 8e 41 64
        E 0 8f 32 64
        E 0 95 43 64
        E 0 9e 43 64
        E 0 9f 30 5a
        E 0 85 43 64
        E 0 8e 43 64
        E 0 95 43 64
        E 0 9e 43 64
        E 0 85 43 64
        E 0 8e 43 64
        E 0 9b 3c 64
        E 0 9e 48 64
        E 0 8b 3c 64
        E 0 8e 48 64
        E 0 9b 37 64
        E 0 9e 43 64
        E 0 8b 37 64
        E 0 8e 43 64
        E 0 9b 39 64
        E 0 9e 45 64
        E 0 8b 39 64
        E 0 8e 45 64
        E 0 8f 30 64
        E 0 9b 39 64
        E 0 9e 45 64
        E 0 9f 35 5a
        E 0 8b 39 64
        E 0 8e 45 64
        E 0 9b 39 64
        E 0 9e 45 64
        E 0 8b 39 64
        E 0 8e 45 64
        E 0 9b 35 64
        E 0 9e 41 64
        E 0 8b 35 64
        E 0 8e 41 64
        E 1 9b 39 64
        E 0 9e 45 64
        E 0 8b 39 64
        E 0 8e 45 64
        E 0 9b 39 64
        E 0 9e 45 64
        E 0 8b 39 64
        E 0 8e 45 64
        E 0 9b 3c 64
        E 0 9e 48 64
        E 0 8b 3c 64
        E 0 8e 48 64
        E 0 9b 3c 64
        E 0 9e 48 64
        E 0 8b 3c 64
        E 0 8e 48 64
        E 0 8f 35 64
        E 0 9b 39 64
        E 0 9e 45 64
        E 0 9f 35 5a
        E 0 8b 39 64
        E 0 8e 45 64
        E 0 9b 39 64
        E 0 9e 45 64
        E 0 8b 39 64
        E 0 8e 45 64
        E 0 9b 39 64
        E 0 9e 45 64
        E 0 8b 39 64
        E 0 8e 45 64
        E 0 9b 39 64
        E 0 9e 45 64
        E 0 8b 39 64
        E 0 8e 45 64
        E 0 9b 38 64
        E 0 9e 44 64
        E 0 8b 38 64
        E 0 8e 44 64
        E 0 8f 35 64
        E 0 9b 3b 64
        E 0 9e 47 64
        E 0 9f 34 5a
        E 0 8b 3b 64
        E 0 8e 47 64
        E 0 9b 3b 64
        E 0 9e 47 64
        E 0 8b 3b 64
        E 0 8e 47 64
        E 0 9c 38 64
        E 0 9e 38 64
        E 38403 8c 38 64
        E 0 8e 38 64
        E 0 9c 36 64
        E 1 9e 36 64
        E 0 8c 36 64
        E 0 8e 36 64
        E 0 9c 34 64
        E 0 9e 34 64
        E 0 8c 34 64
        E 0 8e 34 64
        E 0 8f 34 64
        E 0 9c 39 64
        E 0 9e 39 64
        E 0 9f 30 5a
        E 0 8c 39 64
        E 0 8e 39 64
        E 0 9c 39 64
        E 0 9e 39 64
        E 0 8c 39 64
        E 0 8e 39 64
        E 0 9c 3c 64
        E 0 9e 3c 64
        E 0 8c 3c 64
        E 0 8e 3c 64
        E 0 9c 39 64
        E 1 9e 39 64
        E 0 8c 39 64
        E 0 8e 39 64
        E 0 9c 39 64
        E 0 9e 39 64
        E 0 8c 39 64
        E 0 8e 39 64
        E 0 9c 39 64
        E 0 9e 39 64
        E 0 8c 39 64
        E 0 8e 39 64
        E 0 9c 39 64
        E 0 9e 39 64
        E 0 8c 39 64
        E 0 8e 39 64
        E 0 9c 39 64
        E 0 9e 39 64
        E 0 8c 39 64
        E 0 8e 39 64
        E 0 8f 30 64
        E 0 9c 36 64
        E 0 9e 36 64
        E 0 9f 33 5a
        E 0 8c 36 64
        E 0 8e 36 64
        E 0 9c 36 64
        E 0 9e 36 64
        E 0 8c 36 64
        E 0 8e 36 64
        E 0 9c 36 64
        E 0 9e 36 64
        E 0 8c 36 64
        E 0 8e 36 64
        E 0 9c 36 64
        E 0 9e 36 64
        E 0 8c 36 64
        E 0 8e 36 64
        E 0 9c 36 64
        E 0 9e 36 64
        E 0 8c 36 64
        E 0 8e 36 64
        E 0 9c 36 64
        E 0 9e 36 64
        E 0 8c 36 64
        E 0 8e 36 64
        E 0 9c 37 64
        E 0 9e 37 64
        E 0 8f 33 64
        E 0 8c 37 64
        E 0 8e 37 64
        E 0 9f 33 5a
        E 0 9c 39 64
        E 0 9e 39 64
        E 0 8c 39 64
        E 0 8e 39 64
        E 0 9c 39 64
        E 0 9e 39 64
        E 0 8c 39 64
        E 0 8e 39 64
        E 1 9c 3c 64
        E 0 9e 3c 64
        E 0 8c 3c 64
        E 0 8e 3c 64
        E 0 9c 3c 64
        E 0 9e 3c 64
        E 0 8c 3c 64
        E 0 8e 3c 64
        E 0 9c 39 64
        E 0 9e 39 64
        E 0 8c 39 64
        E 0 8e 39 64
        E 0 9c 39 64
        E 0 9e 39 64
        E 0 8c 39 64
        E 0 8e 39 64
        E 0 9c 37 64
        E 0 9e 37 64
        E 0 8c 37 64
        E 0 8e 37 64
        E 0 8f 33 64
        E 0 9c 34 64
        E 0 9e 34 64
        E 0 9f 34 5a
        E 0 8c 34 64
        E 0 8e 34 64
        E 0 9b 3b 64
        E 0 9e 47 64
        E 0 8b 3b 64
        E 0 8e 47 64
        E 0 9b 37 64
        E 0 9e 43 64
        E 0 8b 37 64
        E 0 8e 43 64
        E 0 9b 37 64
        E 0 9e 43 64
        E 0 8b 37 64
        E 0 8e 43 64
        E 0 9b 3b 64
        E 0 9e 47 64
        E 0 8b 3b 64
        E 0 8e 47 64
        E 0 8f 34 64
        E 0 9b 34 64
        E 0 9e 40 64
        E 0 9f 34 5a
        E 0 8b 34 64
        E 0 8e 40 64
        E 0 9b 34 64
        E 0 9e 40 64
        E 0 8b 34 64
        E 0 8e 40 64
        E 0 8f 34 64
        E 0 9b 3d 64
        E 0 9e 49 64
        E 1 9f 35 59
        E 0 8b 3d 64
        E 0 8e 49 64
        E 0 9b 38 64
        E 0 9e 44 64
        E 0 8b 38 64
        E 0 8e 44 64
        E 0 9b 38 64
        E 0 9e 44 64
        E 0 8b 38 64
        E 0 8e 44 64
        E 0 9b 3b 64
        E 0 9e 47 64
        E 0 8b 3b 64
        E 0 8e 47 64
        E 0 9b 39 64
        E 0 9e 45 64
        E 0 8b 39 64
        E 0 8e 45 64
        E 0 8f 35 63
        E 0 9b 36 64
        E 0 9e 42 64
        E 0 9f 36 5a
        E 0 8b 36 64
        E 0 8e 42 64
        E 0 9b 36 64
        E 0 9e 42 64
        E 0 8b 36 64
        E 0 8e 42 64
        E 0 9b 3d 64
        E 0 9e 49 64
        E 0 8b 3d 64
        E 0 8e 49 64
        E 0 9b 3d 64
        E 0 9e 49 64
        E 0 8b 3d 64
        E 0 8e 49 64
        E 0 9b 3d 64
        E 0 9e 49 64
        E 0 8b 3d 64
        E 0 8e 49 64
        E 0 8f 36 64
        E 0 9b 39 64
        E 0 9e 45 64
        E 0 9f 36 5a
        E 0 8b 39 64
        E 0 8e 45 64
        E 0 9b 39 64
        E 0 9e 45 64
        E 1 8b 39 64
        E 0 8e 45 64
        E 0 9b 3d 64
        E 0 9e 49 64
        E 38402 8b 3d 64
        E 0 8e 49 64
        E 0 9b 36 64
        E 0 9e 42 64
        E 0 8b 36 64
        E 0 8e 42 64
        E 0 9b 36 64
        E 0 9e 42 64
        E 0 8b 36 64
        E 0 8e 42 64
        E 0 9b 36 64
        E 0 9e 42 64
        E 1 8b 36 64
        E 0 8e 42 64
        E 0 9b 36 64
        E 0 9e 42 64
        E 0 8b 36 64
        E 0 8e 42 64
        E 0 9b 36 64
        E 0 9e 42 64
        E 0 8b 36 64
        E 0 8e 42 64
        E 0 8f 36 64
        E 0 9b 3b 64
        E 0 9e 47 64
        E 0 9f 37 5a
        E 0 8b 3b 64
        E 0 8e 47 64
        E 0 9b 3b 64
        E 0 9e 47 64
        E 0 8b 3b 64
        E 0 8e 47 64
        E 0 9b 3b 64
        E 0 9e 47 64
        E 0 8b 3b 64
        E 0 8e 47 64
        E 0 9b 3b 64
        E 0 9e 47 64
        E 0 8b 3b 64
        E 0 8e 47 64
        E 0 9b 3b 64
        E 0 9e 47 64
        E 0 8b 3b 64
        E 0 8e 47 64
        E 0 9b 3b 64
        E 0 9e 47 64
        E 0 8b 3b 64
        E 0 8e 47 64
        E 0 9b 3a 64
        E 0 9e 46 64
        E 0 8b 3a 64
        E 0 8e 46 64
        E 0 8f 37 64
        E 0 9b 3d 64
        E 0 9e 49 64
        E 0 9f 36 5a
        E 0 8b 3d 64
        E 0 8e 49 64
        E 0 96 42 64
        E 0 9e 42 64
        E 0 86 42 64
        E 0 8e 42 64
        E 0 96 44 64
        E 0 9e 44 64
        E 0 86 44 64
        E 0 8e 44 64
        E 0 96 46 64
        E 0 9e 46 64
        E 0 86 46 64
        E 0 8e 46 64
        E 0 8f 36 64
        E 0 96 47 64
        E 0 9e 47 64
        E 0 9f 32 5a
        E 0 86 47 64
        E 0 8e 47 64
        E 0 96 47 64
        E 0 9e 47 64
        E 0 86 47 64
        E 0 8e 47 64
        E 0 96 47 64
        E 0 9e 47 64
        E 0 86 47 64
        E 0 8e 47 64
        E 0 96 47 64
        E 0 9e 47 64
        E 0 86 47 64
        E 0 8e 47 64
        E 0 96 46 64
        E 1 9e 46 64
        E 0 86 46 64
        E 0 8e 46 64
        E 0 8f 32 64
        E 0 96 42 64
        E 0 9e 42 64
        E 0 9f 31 5a
        E 0 86 42 64
        E 0 8e 42 64
        E 0 8f 31 64
        E 0 9f 36 5a
        E 0 8f 36 64
        E 0 96 49 64
        E 0 9e 49 64
        E 0 9f 36 5a
        E 0 86 49 64
        E 0 8e 49 64
        E 0 96 49 64
        E 0 9e 49 64
        E 0 86 49 64
        E 0 8e 49 64
        E 0 96 49 64
        E 0 9e 49 64
        E 0 86 49 64
        E 0 8e 49 64
        E 0 96 47 64
        E 0 9e 47 64
        E 0 86 47 64
        E 0 8e 47 64
        E 0 96 49 64
        E 0 9e 49 64
        E 0 86 49 64
        E 0 8e 49 64
        E 0 8f 36 64
        E 0 96 45 64
        E 0 9e 45 64
        E 0 9f 36 5a
        E 0 86 45 64
        E 0 8e 45 64
        E 0 96 45 64
        E 0 9e 45 64
        E 0 86 45 64
        E 0 8e 45 64
        E 0 96 45 64
        E 0 9e 45 64
        E 1 86 45 64
        E 0 8e 45 64
        E 0 96 43 64
        E 0 9e 43 64
        E 0 86 43 64
        E 0 8e 43 64
        E 0 96 45 64
        E 0 9e 45 64
        E 0 86 45 64
        E 0 8e 45 64
        E 0 8f 36 64
        E 0 96 42 64
        E 0 9e 42 64
        E 0 9f 32 5a
        E 0 86 42 64
        E 0 8e 42 64
        E 0 96 42 64
        E 0 9e 42 64
        E 0 86 42 64
        E 0 8e 42 64
        E 0 8f 32 64
        E 0 96 45 64
        E 0 9e 45 64
        E 0 9f 32 5a
        E 0 86 45 64
        E 0 8e 45 64
        E 0 96 45 64
        E 0 9e 45 64
        E 0 86 45 64
        E 0 8e 45 64
        E 0 96 45 64
        E 0 9e 45 64
        E 0 86 45 64
        E 0 8e 45 64
        E 0 96 43 64
        E 0 9e 43 64
        E 0 86 43 64
        E 0 8e 43 64
        E 0 96 45 64
        E 0 9e 45 64
        E 0 86 45 64
        E 0 8e 45 64
        E 0 8f 32 64
        E 0 96 47 64
        E 0 9e 47 64
        E 0 9f 2b 5a
        E 0 86 47 64
        E 0 8e 47 64
        E 0 96 47 64
        E 0 9e 47 64
        E 0 86 47 64
        E 0 8e 47 64
        E 0 96 47 64
        E 0 9e 47 64
        E 0 86 47 64
        E 0 8e 47 64
        E 0 96 47 64
        E 0 9e 47 64
        E 0 86 47 64
        E 0 8e 47 64
        E 0 8f 2b 64
        E 0 96 43 64
        E 0 9e 43 64
        E 0 9f 2b 5a
        E 0 86 43 64
        E 0 8e 43 64
        E 0 96 43 64
        E 0 9e 43 64
        E 0 86 43 64
        E 0 8e 43 64
        E 0 96 42 64
        E 0 9e 42 64
        E 0 86 42 64
        E 0 8e 42 64
        E 0 8f 2b 64
        E 0 96 3e 64
        E 0 9e 3e 64
        E 0 9f 2d 5a
        E 0 86 3e 64
        E 0 8e 3e 64
        E 0 96 3e 64
        E 0 9e 3e 64
        E 0 86 3e 64
        E 0 8e 3e 64
        E 0 8f 2d 64
        E 0 9f 32 5a
        E 0 9b 39 64
        E 0 9e 45 64
        E 0 8b 39 64
        E 0 8e 45 64
        E 0 9b 37 64
        E 0 9e 43 64
        E 0 8b 37 64
        E 0 8e 43 64
        E 0 9b 39 64
        E 0 9e 45 64
        E 0 8b 39 64
        E 0 8e 45 64
        E 0 8f 32 64
        E 0 9b 36 64
        E 0 9e 42 64
        E 0 9f 32 5a
        E 38403 8b 36 64
        E 0 8e 42 64
        E 1 9b 36 64
        E 0 9e 42 64
        E 0 8b 36 64
        E 0 8e 42 64
        E 0 9b 39 64
        E 0 9e 45 64
        E 0 8b 39 64
        E 0 8e 45 64
        E 0 9b 3c 64
        E 0 9e 48 64
        E 0 8b 3c 64
        E 0 8e 48 64
        E 0 9b 3b 64
        E 0 9e 47 64
        E 0 8b 3b 64
        E 0 8e 47 64
        E 0 8f 32 64
        E 0 9b 37 64
        E 0 9e 43 64
        E 0 9f 2b 5a
        E 0 8b 37 64
        E 0 8e 43 64
        E 0 9b 37 64
        E 0 9e 43 64
        E 0 8b 37 64
        E 0 8e 43 64
        E 0 96 43 64
        E 0 9e 43 64
        E 0 86 43 64
        E 0 8e 43 64
        E 0 8f 2b 64
        E 0 9b 3b 64
        E 0 9e 47 64
        E 0 9f 2b 5a
        E 0 8b 3b 64
        E 0 8e 47 64
        E 0 9b 3b 64
        E 0 9e 47 64
        E 0 8b 3b 64
        E 0 8e 47 64
        E 1 9b 39 64
        E 0 9e 45 64
        E 0 8b 39 64
        E 0 8e 45 64
        E 0 9b 37 64
        E 0 9e 43 64
        E 0 8b 37 64
        E 0 8e 43 64
        E 0 8f 2b 64
        E 0 9b 3c 64
        E 0 9e 48 64
        E 0 9f 34 5a
        E 0 8b 3c 64
        E 0 8e 48 64
        E 0 9b 3c 64
        E 0 9e 48 64
        E 0 8b 3c 64
        E 0 8e 48 64
        E 0 96 43 64
        E 0 9e 43 64
        E 0 86 43 64
        E 0 8e 43 64
        E 0 8f 34 64
        E 0 96 46 66
        E 0 9e 46 66
        E 0 9f 34 5a
        E 0 86 46 66
        E 0 8e 46 66
        E 0 96 46 66
        E 0 9e 46 66
        E 0 86 46 66
        E 0 8e 46 66
        E 0 96 46 66
        E 0 9e 46 66
        E 0 86 46 66
        E 0 8e 46 66
        E 0 96 45 64
        E 0 9e 45 64
        E 0 86 45 64
        E 0 8e 45 64
        E 0 8f 34 64
        E 1 96 41 64
        E 0 9e 41 64
        E 0 9f 35 5a
        E 0 86 41 64
        E 0 8e 41 64
        E 0 96 41 64
        E 0 9e 41 64
        E 0 86 41 64
        E 0 8e 41 64
        E 0 9b 3c 64
        E 0 9e 48 64
        E 0 8b 3c 64
        E 0 8e 48 64
        E 0 9b 3c 64
        E 0 9e 48 64
        E 0 8b 3c 64
        E 0 8e 48 64
        E 0 9b 3c 64
        E 0 9e 48 64
        E 0 8b 3c 64
        E 0 8e 48 64
        E 0 8f 35 64
        E 0 9b 39 64
        E 1 9e 45 64
        E 0 9f 35 5a
        E 0 8b 39 64
        E 0 8e 45 64
        E 0 9b 39 64
        E 0 9e 45 64
        E 0 8b 39 64
        E 0 8e 45 64
        E 0 9b 38 64
        E 0 9e 44 64
        E 0 8b 38 64
        E 0 8e 44 64
        E 0 8f 35 64
        E 0 9b 3b 64
        E 0 9e 47 64
        E 0 9f 34 5a
        E 0 8b 3b 64
        E 0 8e 47 64
        E 0 8f 34 64
        E 0 9f 34 5a
        E 0 96 47 64
        E 0 9e 47 64
        E 0 86 47 64
        E 0 8e 47 64
        E 0 96 47 64
        E 0 9e 47 64
        E 0 86 47 64
        E 0 8e 47 64
        E 0 8f 34 64
        E 0 96 40 64
        E 0 9e 40 64
        E 1 9f 34 5a
        E 0 86 40 64
        E 0 8e 40 64
        E 0 96 40 64
        E 0 9e 40 64
        E 0 86 40 64
        E 0 8e 40 64
        E 0 96 48 64
        E 0 9e 48 64
        E 0 86 48 64
        E 0 8e 48 64
        E 0 96 48 64
        E 0 9e 48 64
        E 0 86 48 64
        E 0 8e 48 64
        E 0 96 43 64
        E 0 9e 43 64
        E 0 86 43 64
        E 0 8e 43 64
        E 0 96 43 64
        E 0 9e 43 64
        E 0 86 43 64
        E 0 8e 43 64
        E 0 96 45 64
        E 0 9e 45 64
        E 0 86 45 64
        E 0 8e 45 64
        E 0 8f 34 64
        E 0 96 41 64
        E 0 9e 41 64
        E 0 9f 35 5a
        E 0 86 41 64
        E 0 8e 41 64
        E 0 96 41 64
        E 0 9e 41 64
        E 0 86 41 64
        E 0 8e 41 64
        E 0 9b 3c 64
        E 0 9e 48 64
        E 0 8b 3c 64
        E 0 8e 48 64
        E 0 9b 3c 64
        E 0 9e 48 64
        E 0 8b 3c 64
        E 0 8e 48 64
        E 0 9b 3c 64
        E 0 9e 48 64
        E 0 8b 3c 64
        E 0 8e 48 64
        E 0 9b 3c 64
        E 0 9e 48 64
        E 0 8b 3c 64
        E 0 8e 48 64
        E 0 9b 3e 64
        E 0 9e 4a 64
        E 0 8b 3e 64
        E 0 8e 4a 64
        E 0 8f 35 64
        E 0 9b 3a 66
        E 0 9e 46 66
        E 0 9f 32 5a
        E 0 8b 3a 66
        E 0 8e 46 66
        E 1 9b 3a 66
        E 0 9e 46 66
        E 0 8b 3a 66
        E 0 8e 46 66
        E 38402 8f 32 64
        E 1 95 46 66
        E 0 9e 46 66
        E 0 9f 33 5b
        E 0 85 46 66
        E 0 8e 46 66
        E 0 95 45 64
        E 0 9e 45 64
        E 0 85 45 64
        E 0 8e 45 64
        E 0 95 46 66
        E 0 9e 46 66
        E 0 85 46 66
        E 0 8e 46 66
        E 0 8f 33 66
        E 0 95 41 64
        E 0 9e 41 64
        E 0 9f 35 5a
        E 0 85 41 64
        E 0 8e 41 64
        E 0 95 41 64
        E 0 9e 41 64
        E 0 85 41 64
        E 0 8e 41 64
        E 0 8f 35 64
        E 0 9f 2e 5b
        E 0 8f 2e 66
        E 0 9f 2e 5b
        E 0 98 4a 64
        E 0 9e 4a 64
        E 0 88 4a 64
        E 0 8e 4a 64
        E 0 98 46 66
        E 0 9e 46 66
        E 0 88 46 66
        E 0 8e 46 66
        E 0 98 46 66
        E 0 9e 46 66
        E 0 88 46 66
        E 0 8e 46 66
        E 0 98 46 66
        E 0 9e 46 66
        E 0 88 46 66
        E 0 8e 46 66
        E 0 9b 35 64
        E 0 9e 41 64
        E 0 8b 35 64
        E 0 8e 41 64
        E 0 8f 2e 66
        E 1 9b 32 64
        E 0 9e 3e 64
        E 0 9f 2e 5b
        E 0 8b 32 64
        E 0 8e 3e 64
        E 0 9b 32 64
        E 0 9e 3e 64
        E 0 8b 32 64
        E 0 8e 3e 64
        E 0 9b 3a 66
        E 0 9e 46 66
        E 0 8b 3a 66
        E 0 8e 46 66
        E 0 9b 35 64
        E 0 9e 41 64
        E 0 8b 35 64
        E 0 8e 41 64
        E 0 9b 35 64
        E 0 9e 41 64
        E 0 8b 35 64
        E 0 8e 41 64
        E 0 9b 35 64
        E 0 9e 41 64
        E 0 8b 35 64
        E 0 8e 41 64
        E 0 9b 38 66
        E 0 9e 44 66
        E 0 8b 38 66
        E 0 8e 44 66
        E 0 9b 37 64
        E 1 9e 43 64
        E 0 8b 37 64
        E 0 8e 43 64
        E 0 8f 2e 66
        E 0 9b 33 66
        E 0 9e 3f 66
        E 0 9f 33 5b
        E 0 8b 33 66
        E 0 8e 3f 66
        E 0 9b 3a 66
        E 0 9e 46 66
        E 0 8b 3a 66
        E 0 8e 46 66
        E 0 9b 3a 66
        E 0 9e 46 66
        E 0 8b 3a 66
        E 0 8e 46 66
        E 0 9b 3a 66
        E 0 9e 46 66
        E 0 8b 3a 66
        E 0 8e 46 66
        E 0 8f 33 66
        E 0 9b 37 64
        E 0 9e 43 64
        E 0 9f 33 5b
        E 0 8b 37 64
        E 0 8e 43 64
        E 0 9b 37 64
        E 0 9e 43 64
        E 0 8b 37 64
        E 0 8e 43 64
        E 0 9b 3c 64
        E 0 9e 48 64
        E 0 8b 3c 64
        E 0 8e 48 64
        E 0 9b 3c 64
        E 0 9e 48 64
        E 0 8b 3c 64
        E 0 8e 48 64
        E 0 9b 37 64
        E 0 9e 43 64
        E 0 8b 37 64
        E 0 8e 43 64
        E 0 8f 33 66
        E 0 9b 39 64
        E 0 9e 45 64
        E 1 9f 32 5a
        E 0 8b 39 64
        E 0 8e 45 64
        E 0 9b 39 64
        E 0 9e 45 64
        E 0 8b 39 64
        E 0 8e 45 64
        E 0 98 4a 64
        E 0 9e 4a 64
        E 0 88 4a 64
        E 0 8e 4a 64
        E 0 8f 32 64
        E 0 98 45 64
        E 0 9e 45 64
        E 0 9f 32 5a
        E 0 88 45 64
        E 0 8e 45 64
        E 0 98 45 64
        E 0 9e 45 64
        E 0 88 45 64
        E 0 8e 45 64
        E 0 98 45 64
        E 0 9e 45 64
        E 0 88 45 64
        E 0 8e 45 64
        E 0 98 47 64
        E 0 9e 47 64
        E 0 88 47 64
        E 0 8e 47 64
        E 0 8f 32 64
        E 0 98 47 64
        E 0 9e 47 64
        E 0 9f 35 5a
        E 0 88 47 64
        E 0 8e 47 64
        E 0 98 47 64
        E 0 9e 47 64
        E 0 88 47 64
        E 0 8e 47 64
        E 0 98 47 64
        E 0 9e 47 64
        E 0 88 47 64
        E 0 8e 47 64
        E 0 98 47 64
        E 0 9e 47 64
        E 38403 88 47 64
        E 0 8e 47 64
        E 0 98 48 64
        E 0 9e 48 64
        E 0 88 48 64
        E 0 8e 48 64
        E 0 8f 35 64
        E 0 98 43 64
        E 0 9e 43 64
        E 0 9f 37 5a
        E 0 88 43 64
        E 0 8e 43 64
        E 0 8f 37 64
        E 0 9f 30 5a
        E 0 9b 37 64
        E 0 9e 43 64
        E 0 8b 37 64
        E 0 8e 43 64
        E 0 9b 37 64
        E 0 9e 43 64
        E 0 8b 37 64
        E 0 8e 43 64
        E 0 9b 37 64
        E 0 9e 43 64
        E 0 8b 37 64
        E 0 8e 43 64
        E 0 8f 30 64
        E 0 9b 3c 64
        E 0 9e 48 64
        E 0 9f 30 5a
        E 1 8b 3c 64
        E 0 8e 48 64
        E 0 98 4c 64
        E 0 9e 4c 64
        E 0 88 4c 64
        E 0 8e 4c 64
        E 0 8f 30 64
        E 0 98 48 64
        E 0 9e 48 64
        E 0 9f 30 5a
        E 0 88 48 64
        E 0 8e 48 64
        E 0 98 48 64
        E 0 9e 48 64
        E 0 88 48 64
        E 0 8e 48 64
        E 0 98 4a 64
        E 0 9e 4a 64
        E 0 88 4a 64
        E 0 8e 4a 64
        E 0 98 46 66
        E 0 9e 46 66
        E 0 88 46 66
        E 0 8e 46 66
        E 0 98 43 64
        E 0 9e 43 64
        E 0 88 43 64
        E 0 8e 43 64
        E 0 98 43 64
        E 0 9e 43 64
        E 0 88 43 64
        E 0 8e 43 64
        E 0 98 45 64
        E 0 9e 45 64
        E 0 88 45 64
        E 0 8e 45 64
        E 0 8f 30 64
        E 0 98 46 66
        E 0 9e 46 66
        E 0 9f 30 5a
        E 0 88 46 66
        E 1 8e 46 66
        E 0 98 46 66
        E 0 9e 46 66
        E 0 88 46 66
        E 0 8e 46 66
        E 0 98 4a 64
        E 0 9e 4a 64
        E 0 88 4a 64
        E 0 8e 4a 64
        E 0 98 4a 64
        E 0 9e 4a 64
        E 0 88 4a 64
        E 0 8e 4a 64
        E 0 98 46 66
        E 0 9e 46 66
        E 0 88 46 66
        E 0 8e 46 66
        E 0 98 46 66
        E 0 9e 46 66
        E 0 88 46 66
        E 0 8e 46 66
        E 0 98 45 64
        E 0 9e 45 64
        E 0 88 45 64
        E 0 8e 45 64
        E 0 8f 30 64
        E 0 98 41 64
        E 0 9e 41 64
        E 0 9f 35 5a
        E 0 88 41 64
        E 0 8e 41 64
        E 0 98 41 64
        E 0 9e 41 64
        E 0 88 41 64
        E 0 8e 41 64
        E 0 9c 35 64
        E 0 9e 35 64
        E 0 8c 35 64
        E 0 8e 35 64
        E 0 9c 35 64
        E 0 9e 35 64
        E 0 8c 35 64
        E 0 8e 35 64
        E 0 9c 37 64
        E 0 9e 37 64
        E 0 8c 37 64
        E 0 8e 37 64
        E 0 9c 39 64
        E 0 9e 39 64
        E 0 8c 39 64
        E 0 8e 39 64
        E 0 9c 39 64
        E 0 9e 39 64
        E 0 8c 39 64
        E 0 8e 39 64
        E 0 8f 35 64
        E 0 9c 39 64
        E 0 9e 39 64
        E 0 9f 35 5a
        E 0 8c 39 64
        E 0 8e 39 64
        E 1 9c 39 64
        E 0 9e 39 64
        E 0 8c 39 64
        E 0 8e 39 64
        E 0 9c 39 64
        E 0 9e 39 64
        E 0 8c 39 64
        E 0 8e 39 64
        E 0 9c 3a 66
        E 0 9e 3a 66
        E 0 8c 3a 66
        E 0 8e 3a 66
        E 0 9c 3c 64
        E 0 9e 3c 64
        E 0 8c 3c 64
        E 0 8e 3c 64
        E 0 9c 35 64
        E 0 9e 35 64
        E 0 8c 35 64
        E 0 8e 35 64
        E 0 9c 35 64
        E 0 9e 35 64
        E 0 8c 35 64
        E 0 8e 35 64
        E 0 8f 35 64
        E 0 9c 3c 64
        E 0 9e 3c 64
        E 0 9f 35 5a
        E 0 8c 3c 64
        E 0 8e 3c 64
        E 0 9c 3c 64
        E 0 9e 3c 64
        E 0 8c 3c 64
        E 0 8e 3c 64
        E 0 9c 3c 64
        E 0 9e 3c 64
        E 0 8c 3c 64
        E 0 8e 3c 64
        E 0 9c 3c 64
        E 0 9e 3c 64
        E 0 8c 3c 64
        E 0 8e 3c 64
        E 0 9c 3e 64
        E 0 9e 3e 64
        E 0 8c 3e 64
        E 0 8e 3e 64
        E 0 8f 35 64
        E 0 9c 3a 66
        E 0 9e 3a 66
        E 0 9f 2e 5b
        E 0 8c 3a 66
        E 0 8e 3a 66
        E 0 9c 3a 66
        E 0 9e 3a 66
        E 0 8c 3a 66
        E 0 8e 3a 66
        E 0 8f 2e 66
        E 0 9c 35 64
        E 0 9e 35 64
        E 0 9f 2e 5b
        E 0 8c 35 64
        E 0 8e 35 64
        E 0 9c 35 64
        E 0 9e 35 64
        E 0 8c 35 64
        E 0 8e 35 64
        E 0 9c 35 64
        E 0 9e 35 64
        E 0 8c 35 64
        E 0 8e 35 64
        E 0 9c 32 64
        E 0 9e 32 64
        E 38403 8c 32 64
        E 0 8e 32 64
        E 0 9c 32 64
        E 0 9e 32 64
        E 0 8c 32 64
        E 0 8e 32 64
        E 0 8f 2e 66
        E 0 9c 38 66
        E 1 9e 38 66
        E 0 9f 2e 5b
        E 0 8c 38 66
        E 0 8e 38 66
        E 0 9c 38 66
        E 0 9e 38 66
        E 0 8c 38 66
        E 0 8e 38 66
        E 0 9c 37 64
        E 0 9e 37 64
        E 0 8c 37 64
        E 0 8e 37 64
        E 0 8f 2e 66
        E 0 9c 33 66
        E 0 9e 33 66
        E 0 9f 33 5b
        E 0 8c 33 66
        E 0 8e 33 66
        E 0 9c 33 66
        E 0 9e 33 66
        E 0 8c 33 66
        E 0 8e 33 66
        E 0 8f 33 66
        E 0 9c 3a 66
        E 0 9e 3a 66
        E 0 9f 33 5b
        E 0 8c 3a 66
        E 0 8e 3a 66
        E 0 9c 3a 66
        E 0 9e 3a 66
        E 0 8c 3a 66
        E 0 8e 3a 66
        E 0 9c 3a 66
        E 0 9e 3a 66
        E 0 8c 3a 66
        E 0 8e 3a 66
        E 0 9c 3a 66
        E 0 9e 3a 66
        E 0 8c 3a 66
        E 0 8e 3a 66
        E 0 9c 39 64
        E 0 9e 39 64
        E 0 8c 39 64
        E 0 8e 39 64
        E 0 8f 33 66
        E 0 9c 39 64
        E 0 9e 39 64
        E 0 9f 2a 5a
        E 0 8c 39 64
        E 0 8e 39 64
        E 0 9c 39 64
        E 0 9e 39 64
        E 0 8c 39 64
        E 0 8e 39 64
        E 0 9c 39 64
        E 0 9e 39 64
        E 0 8c 39 64
        E 0 8e 39 64
        E 0 9c 3c 64
        E 0 9e 3c 64
        E 0 8c 3c 64
        E 0 8e 3c 64
        E 1 9c 3a 66
        E 0 9e 3a 66
        E 0 8c 3a 66
        E 0 8e 3a 66
        E 0 8f 2a 64
        E 0 9c 37 64
        E 0 9e 37 64
        E 0 9f 2b 5a
        E 0 8c 37 64
        E 0 8e 37 64
        E 0 9c 37 64
        E 0 9e 37 64
        E 0 8c 37 64
        E 0 8e 37 64
        E 0 9c 3a 66
        E 0 9e 3a 66
        E 0 8c 3a 66
        E 0 8e 3a 66
        E 0 9c 3a 66
        E 0 9e 3a 66
        E 0 8c 3a 66
        E 0 8e 3a 66
        E 0 9c 39 64
        E 0 9e 39 64
        E 0 8c 39 64
        E 0 8e 39 64
        E 0 8f 2b 64
        E 0 9c 38 64
        E 0 9e 38 64
        E 0 9f 32 5a
        E 0 8c 38 64
        E 0 8e 38 64
        E 0 9c 38 64
        E 0 9e 38 64
        E 0 8c 38 64
        E 0 8e 38 64
        E 0 9c 34 64
        E 0 9e 34 64
        E 0 8c 34 64
        E 0 8e 34 64
        E 0 9c 3b 64
        E 0 9e 3b 64
        E 0 8c 3b 64
        E 0 8e 3b 64
        E 0 9c 3b 64
        E 0 9e 3b 64
        E 0 8c 3b 64
        E 1 8e 3b 64
        E 0 8f 32 64
        E 0 9c 3b 64
        E 0 9e 3b 64
        E 0 9f 32 5a
        E 0 8c 3b 64
        E 0 8e 3b 64
        E 0 9c 3b 64
        E 0 9e 3b 64
        E 0 8c 3b 64
        E 0 8e 3b 64
        E 0 9c 3b 64
        E 0 9e 3b 64
        E 0 8c 3b 64
        E 0 8e 3b 64
        E 0 9c 3b 64
        E 0 9e 3b 64
        E 0 8c 3b 64
        E 0 8e 3b 64
        E 0 9c 3c 64
        E 0 9e 3c 64
        E 0 8c 3c 64
        E 0 8e 3c 64
        E 0 8f 32 64
        E 0 9c 39 64
        E 0 9e 39 64
        E 0 9f 2d 5a
        E 0 8c 39 64
        E 0 8e 39 64
        E 0 8f 2d 64
        E 0 9b 39 64
        E 0 9e 45 64
        E 0 9f 2d 5a
        E 0 8b 39 64
        E 0 8e 45 64
        E 0 9b 34 64
        E 0 9e 40 64
        E 0 8b 34 64
        E 0 8e 40 64
        E 0 9b 3c 64
        E 0 9e 48 64
        E 0 8b 3c 64
        E 0 8e 48 64
        E 0 9b 39 64
        E 0 9e 45 64
        E 0 8b 39 64
        E 0 8e 45 64
        E 1 9b 39 64
        E 0 9e 45 64
        E 0 8b 39 64
        E 0 8e 45 64
        E 0 8f 2d 64
        E 0 9f 2d 5a
        E 38402 9c 34 64
        E 0 9e 34 64
        E 0 8c 34 64
        E 0 8e 34 64
        E 0 9c 39 64
        E 0 9e 39 64
        E 0 8c 39 64
        E 0 8e 39 64
        E 0 9c 39 64
        E 0 9e 39 64
        E 0 8c 39 64
        E 0 8e 39 64
        E 0 9c 39 64
        E 0 9e 39 64
        E 0 8c 39 64
        E 0 8e 39 64
        E 0 9c 39 64
        E 0 9e 39 64
        E 0 8c 39 64
        E 0 8e 39 64
        E 0 8f 2d 64
        E 0 9c 36 64
        E 0 9e 36 64
        E 0 9f 33 5a
        E 1 8c 36 64
        E 0 8e 36 64
        E 0 9c 36 64
        E 0 9e 36 64
        E 0 8c 36 64
        E 0 8e 36 64
        E 0 9c 3c 64
        E 0 9e 3c 64
        E 0 8c 3c 64
        E 0 8e 3c 64
        E 0 9c 3c 64
        E 0 9e 3c 64
        E 0 8c 3c 64
        E 0 8e 3c 64
        E 0 9c 39 64
        E 0 9e 39 64
        E 0 8c 39 64
        E 0 8e 39 64
        E 0 9c 39 64
        E 0 9e 39 64
        E 0 8c 39 64
        E 0 8e 39 64
        E 0 9c 37 64
        E 0 9e 37 64
        E 0 8c 37 64
        E 0 8e 37 64
        E 0 8f 33 64
        E 0 9c 34 64
        E 0 9e 34 64
        E 0 9f 34 5a
        E 0 8c 34 64
        E 0 8e 34 64
        E 0 9c 3b 64
        E 0 9e 3b 64
        E 0 8c 3b 64
        E 0 8e 3b 64
        E 0 9c 39 64
        E 0 9e 39 64
        E 0 8c 39 64
        E 0 8e 39 64
        E 0 9c 3b 64
        E 0 9e 3b 64
        E 0 8c 3b 64
        E 0 8e 3b 64
        E 0 9c 37 64
        E 0 9e 37 64
        E 0 8c 37 64
        E 0 8e 37 64
        E 0 9c 37 64
        E 0 9e 37 64
        E 0 8c 37 64
        E 0 8e 37 64
        E 0 9c 34 64
        E 0 9e 34 64
        E 0 8c 34 64
        E 0 8e 34 64
        E 0 8f 34 64
        E 0 9c 37 64
        E 0 9e 37 64
        E 0 9f 34 5a
        E 0 8c 37 64
        E 0 8e 37 64
        E 0 9c 37 64
        E 0 9e 37 64
        E 0 8c 37 64
        E 0 8e 37 64
        E 0 9c 37 64
        E 1 9e 37 64
        E 0 8c 37 64
        E 0 8e 37 64
        E 0 9c 37 64
        E 0 9e 37 64
        E 0 8c 37 64
        E 0 8e 37 64
        E 0 9c 39 64
        E 0 9e 39 64
        E 0 8c 39 64
        E 0 8e 39 64
        E 0 9c 3b 64
        E 0 9e 3b 64
        E 0 8c 3b 64
        E 0 8e 3b 64
        E 0 9c 3b 64
        E 0 9e 3b 64
        E 0 8c 3b 64
        E 0 8e 3b 64
        E 0 9c 37 64
        E 0 9e 37 64
        E 0 8c 37 64
        E 0 8e 37 64
        E 0 9c 37 64
        E 0 9e 37 64
        E 0 8c 37 64
        E 0 8e 37 64
        E 0 9c 36 64
        E 0 9e 36 64
        E 0 8c 36 64
        E 0 8e 36 64
        E 0 8f 34 64
        E 0 9c 36 64
        E 0 9e 36 64
        E 0 9f 2e 5a
        E 0 8c 36 64
        E 0 8e 36 64
        E 0 9c 36 64
        E 1 9e 36 64
        E 0 8c 36 64
        E 0 8e 36 64
        E 0 9c 3a 64
        E 0 9e 3a 64
        E 0 8c 3a 64
        E 0 8e 3a 64
        E 0 9c 3a 64
        E 0 9e 3a 64
        E 0 8c 3a 64
        E 0 8e 3a 64
        E 0 9c 3b 64
        E 0 9e 3b 64
        E 0 8c 3b 64
        E 0 8e 3b 64
        E 0 8f 2e 64
        E 0 9c 36 64
        E 0 9e 36 64
        E 0 9f 2f 5a
        E 0 8c 36 64
        E 0 8e 36 64
        E 0 9c 36 64
        E 0 9e 36 64
        E 0 8c 36 64
        E 0 8e 36 64
        E 0 9c 36 64
        E 0 9e 36 64
        E 0 8c 36 64
        E 0 8e 36 64
        E 0 9c 32 64
        E 0 9e 32 64
        E 0 8c 32 64
        E 0 8e 32 64
        E 0 9c 32 64
        E 0 9e 32 64
        E 0 8c 32 64
        E 0 8e 32 64
        E 0 8f 2f 64
        E 0 9c 36 64
        E 0 9e 36 64
        E 0 9f 2f 5a
        E 0 8c 36 64
        E 0 8e 36 64
        E 0 9c 36 64
        E 0 9e 36 64
        E 0 8c 36 64
        E 0 8e 36 64
        E 0 9c 36 64
        E 0 9e 36 64
        E 0 8c 36 64
        E 0 8e 36 64
        E 0 9c 34 64
        E 0 9e 34 64
        E 0 8c 34 64
        E 0 8e 34 64
        E 0 9c 36 64
        E 0 9e 36 64
        E 0 8c 36 64
        E 0 8e 36 64
        E 0 8f 2f 64
        E 0 9c 37 64
        E 0 9e 37 64
        E 0 9f 34 5a
        E 0 8c 37 64
        E 0 8e 37 64
        E 0 9c 37 64
        E 0 9e 37 64
        E 0 8c 37 64
        E 0 8e 37 64
        E 0 9c 3b 64
        E 0 9e 3b 64
        E 0 8c 3b 64
        E 1 8e 3b 64
        E 0 9c 3a 64
        E 0 9e 3a 64
        E 38402 8c 3a 64
        E 0 8e 3a 64
        E 0 9c 3b 64
        E 0 9e 3b 64
        E 1 8c 3b 64
        E 0 8e 3b 64
        E 0 8f 34 64
        E 0 9c 36 64
        E 0 9e 36 64
        E 0 9f 36 5a
        E 0 8c 36 64
        E 0 8e 36 64
        E 0 9c 36 64
        E 0 9e 36 64
        E 0 8c 36 64
        E 0 8e 36 64
        E 0 8f 36 64
        E 0 9f 2f 5a
        E 0 8f 2f 64
        E 0 9f 2f 5a
        E 0 9b 36 64
        E 0 9e 42 64
        E 0 8b 36 64
        E 0 8e 42 64
        E 0 9b 36 64
        E 0 9e 42 64
        E 0 8b 36 64
        E 0 8e 42 64
        E 0 9b 36 64
        E 0 9e 42 64
        E 0 8b 36 64
        E 0 8e 42 64
        E 0 8f 2f 64
        E 0 9b 3b 64
        E 0 9e 47 64
        E 0 9f 2f 5a
        E 0 8b 3b 64
        E 0 8e 47 64
        E 0 9b 3b 64
        E 0 9e 47 64
        E 0 8b 3b 64
        E 0 8e 47 64
        E 0 9b 3e 64
        E 0 9e 4a 64
        E 0 8b 3e 64
        E 0 8e 4a 64
        E 0 9b 3b 64
        E 0 9e 47 64
        E 0 8b 3b 64
        E 0 8e 47 64
        E 0 9b 3b 64
        E 0 9e 47 64
        E 0 8b 3b 64
        E 0 8e 47 64
        E 0 9b 36 64
        E 0 9e 42 64
        E 0 8b 36 64
        E 0 8e 42 64
        E 0 8f 2f 64
        E 0 9b 37 64
        E 0 9e 43 64
        E 0 9f 34 5a
        E 0 8b 37 64
        E 0 8e 43 64
        E 0 9b 37 64
        E 0 9e 43 64
        E 0 8b 37 64
        E 0 8e 43 64
        E 0 9b 37 64
        E 0 9e 43 64
        E 0 8b 37 64
        E 0 8e 43 64
        E 1 9b 36 64
        E 0 9e 42 64
        E 0 8b 36 64
        E 0 8e 42 64
        E 0 8f 34 64
        E 0 9b 39 64
        E 0 9e 45 64
        E 0 9f 32 5a
        E 0 8b 39 64
        E 0 8e 45 64
        E 0 9b 39 64
        E 0 9e 45 64
        E 0 8b 39 64
        E 0 8e 45 64
        E 0 98 45 64
        E 0 9e 45 64
        E 0 8f 32 64
        E 0 88 45 64
        E 0 8e 45 64
        E 0 9f 32 5a
        E 0 98 45 64
        E 0 9e 45 64
        E 0 88 45 64
        E 0 8e 45 64
        E 0 98 45 64
        E 0 9e 45 64
        E 0 8f 32 64
        E 0 88 45 64
        E 0 8e 45 64
        E 0 9f 2e 5b
        E 0 98 4a 64
        E 0 9e 4a 64
        E 0 88 4a 64
        E 0 8e 4a 64
        E 0 98 43 64
        E 0 9e 43 64
        E 0 88 43 64
        E 0 8e 43 64
        E 0 98 43 64
        E 0 9e 43 64
        E 0 88 43 64
        E 0 8e 43 64
        E 0 98 45 64
        E 0 9e 45 64
        E 0 8f 2e 66
        E 0 88 45 64
        E 0 8e 45 64
        E 0 9f 2d 5a
        E 0 98 45 64
        E 0 9e 45 64
        E 0 88 45 64
        E 0 8e 45 64
        E 1 9b 39 64
        E 0 9e 45 64
        E 0 8b 39 64
        E 0 8e 45 64
        E 0 9b 39 64
        E 0 9e 45 64
        E 0 8b 39 64
        E 0 8e 45 64
        E 0 9b 38 64
        E 0 9e 44 64
        E 0 8b 38 64
        E 0 8e 44 64
        E 0 8f 2d 64
        E 0 9b 3b 64
        E 0 9e 47 64
        E 0 9f 34 5a
        E 0 8b 3b 64
        E 0 8e 47 64
        E 0 9b 3b 64
        E 0 9e 47 64
        E 0 8b 3b 64
        E 0 8e 47 64
        E 0 9b 38 64
        E 0 9e 44 64
        E 0 8b 38 64
        E 0 8e 44 64
        E 0 9b 34 64
        E 0 9e 40 64
        E 0 8b 34 64
        E 0 8e 40 64
        E 0 9b 3b 64
        E 0 9e 47 64
        E 0 8b 3b 64
        E 0 8e 47 64
        E 0 9b 38 64
        E 0 9e 44 64
        E 0 8b 38 64
        E 0 8e 44 64
        E 0 8f 34 64
        E 0 9b 3d 64
        E 0 9e 49 64
        E 0 9f 35 59
        E 0 8b 3d 64
        E 0 8e 49 64
        E 0 9b 3d 64
        E 0 9e 49 64
        E 0 8b 3d 64
        E 0 8e 49 64
        E 0 9b 38 64
        E 0 9e 44 64
        E 0 8b 38 64
        E 0 8e 44 64
        E 0 8f 35 63
        E 0 9b 39 64
        E 1 9e 45 64
        E 0 9f 36 5a
        E 0 8b 39 64
        E 0 8e 45 64
        E 0 9b 3d 64
        E 0 9e 49 64
        E 0 8b 3d 64
        E 0 8e 49 64
        E 0 9b 3d 64
        E 0 9e 49 64
        E 0 8b 3d 64
        E 0 8e 49 64
        E 0 9b 3e 64
        E 0 9e 4a 64
        E 0 8b 3e 64
        E 0 8e 4a 64
        E 0 8f 36 64
        E 0 9b 3b 64
        E 0 9e 47 64
        E 0 9f 2f 5a
        E 0 8b 3b 64
        E 0 8e 47 64
        E 0 9b 3b 64
        E 0 9e 47 64
        E 0 8b 3b 64
        E 0 8e 47 64
        E 0 9b 3b 64
        E 0 9e 47 64
        E 38403 8b 3b 64
        E 0 8e 47 64
        E 0 9b 3b 64
        E 0 9e 47 64
        E 0 8b 3b 64
        E 0 8e 47 64
        E 0 9b 3b 64
        E 0 9e 47 64
        E 0 8b 3b 64
        E 0 8e 47 64
        E 0 9b 39 64
        E 0 9e 45 64
        E 0 8b 39 64
        E 0 8e 45 64
        E 1 9b 3b 64
        E 0 9e 47 64
        E 0 8b 3b 64
        E 0 8e 47 64
        E 0 8f 2f 64
        E 0 9b 37 64
        E 0 9e 43 64
        E 0 9f 34 5a
        E 0 8b 37 64
        E 0 8e 43 64
        E 0 9b 37 64
        E 0 9e 43 64
        E 0 8b 37 64
        E 0 8e 43 64
        E 0 9b 3b 64
        E 0 9e 47 64
        E 0 8b 3b 64
        E 0 8e 47 64
        E 0 9b 3a 64
        E 0 9e 46 64
        E 0 8b 3a 64
        E 0 8e 46 64
        E 0 9b 3b 64
        E 0 9e 47 64
        E 0 8b 3b 64
        E 0 8e 47 64
        E 0 8f 34 64
        E 0 9b 36 64
        E 0 9e 42 64
        E 0 9f 36 5a
        E 0 8b 36 64
        E 0 8e 42 64
        E 0 9b 36 64
        E 0 9e 42 64
        E 0 8b 36 64
        E 0 8e 42 64
        E 0 8f 36 64
        E 0 9f 2f 5a
        E 0 8f 2f 64
        E 0 98 4a 64
        E 0 9e 4a 64
        E 0 9f 2f 5a
        E 0 88 4a 64
        E 0 8e 4a 64
        E 0 98 4a 64
        E 0 9e 4a 64
        E 0 88 4a 64
        E 0 8e 4a 64
        E 0 98 4a 64
        E 0 9e 4a 64
        E 0 88 4a 64
        E 0 8e 4a 64
        E 0 98 49 64
        E 0 9e 49 64
        E 0 88 49 64
        E 0 8e 49 64
        E 0 98 4a 64
        E 0 9e 4a 64
        E 0 88 4a 64
        E 0 8e 4a 64
        E 0 8f 2f 64
        E 0 98 47 64
        E 1 9e 47 64
        E 0 9f 37 5a
        E 0 88 47 64
        E 0 8e 47 64
        E 0 8f 37 64
        E 0 98 4c 64
        E 0 9e 4c 64
        E 0 9f 37 5a
        E 0 88 4c 64
        E 0 8e 4c 64
        E 0 98 49 64
        E 0 9e 49 64
        E 0 88 49 64
        E 0 8e 49 64
        E 0 98 49 64
        E 0 9e 49 64
        E 0 88 49 64
        E 0 8e 49 64
        E 0 98 4a 64
        E 0 9e 4a 64
        E 0 88 4a 64
        E 0 8e 4a 64
        E 0 8f 37 64
        E 0 98 45 64
        E 0 9e 45 64
        E 0 9f 39 5a
        E 0 88 45 64
        E 0 8e 45 64
        E 0 98 45 64
        E 0 9e 45 64
        E 0 88 45 64
        E 0 8e 45 64
        E 0 8f 39 64
        E 0 9f 32 5a
        E 0 8f 32 64
        E 0 9b 39 64
        E 0 9e 45 64
        E 0 9f 32 5a
        E 0 8b 39 64
        E 0 8e 45 64
        E 0 9b 36 64
        E 0 9e 42 64
        E 0 8b 36 64
        E 0 8e 42 64
        E 0 9b 39 64
        E 1 9e 45 64
        E 0 8b 39 64
        E 0 8e 45 64
        E 0 9b 39 64
        E 0 9e 45 64
        E 0 8b 39 64
        E 0 8e 45 64
        E 0 9b 39 64
        E 0 9e 45 64
        E 0 8b 39 64
        E 0 8e 45 64
        E 0 8f 32 64
        E 0 9b 3e 64
        E 0 9e 4a 64
        E 0 9f 35 5a
        E 0 8b 3e 64
        E 0 8e 4a 64
        E 0 9b 3e 64
        E 2 9e 4a 64
        E 3 8b 3e 64
        E 0 8e 4a 64
        E 1 9b 39 64
        E 0 9e 45 64
        E 0 8b 39 64
        E 0 8e 45 64
        E 0 9b 39 64
        E 0 9e 45 64
        E 0 8b 39 64
        E 0 8e 45 64
        E 0 9b 38 64
        E 0 9e 44 64
        E 0 8b 38 64
        E 0 8e 44 64
        E 0 8f 35 64
        E 0 9b 3b 64
        E 0 9e 47 64
        E 0 9f 34 5a
        E 1 8b 3b 64
        E 0 8e 47 64
        E 0 9b 3b 64
        E 0 9e 47 64
        E 0 8b 3b 64
        E 0 8e 47 64
        E 0 98 47 64
        E 0 9e 47 64
        E 0 88 47 64
        E 0 8e 47 64
        E 0 98 47 64
        E 0 9e 47 64
        E 0 88 47 64
        E 0 8e 47 64
        E 0 98 47 64
        E 0 9e 47 64
        E 0 88 47 64
        E 0 8e 47 64
        E 0 98 47 64
        E 0 9e 47 64
        E 0 88 47 64
        E 0 8e 47 64
        E 0 98 48 64
        E 0 9e 48 64
        E 0 88 48 64
        E 0 8e 48 64
        E 0 8f 34 64
        E 0 98 45 64
        E 0 9e 45 64
        E 0 9f 2f 5a
        E 0 88 45 64
        E 0 8e 45 64
        E 0 98 45 64
        E 0 9e 45 64
        E 0 88 45 64
        E 0 8e 45 64
        E 0 98 45 64
        E 0 9e 45 64
        E 0 88 45 64
        E 0 8e 45 64
        E 0 98 45 64
        E 0 9e 45 64
        E 0 88 45 64
        E 0 8e 45 64
        E 0 98 43 64
        E 0 9e 43 64
        E 0 88 43 64
        E 0 8e 43 64
        E 0 8f 2f 64
        E 0 98 40 64
        E 0 9e 40 64
        E 0 9f 34 5a
        E 0 88 40 64
        E 0 8e 40 64
        E 1 98 40 64
        E 0 9e 40 64
        E 0 88 40 64
        E 0 8e 40 64
        E 0 8f 34 64
        E 0 98 47 64
        E 0 9e 47 64
        E 0 9f 34 5a
        E 0 88 47 64
        E 0 8e 47 64
        E 0 98 47 64
        E 0 9e 47 64
        E 0 88 47 64
        E 0 8e 47 64
        E 0 98 47 64
        E 0 9e 47 64
        E 0 88 47 64
        E 0 8e 47 64
        E 0 98 43 64
        E 0 9e 43 64
        E 18229 88 43 64
        E 0 8e 43 64
        E 0 98 45 64
        E 0 9e 45 64
        E 0 88 45 64
        E 0 8e 45 64
        E 0 98 47 64
        E 0 9e 47 64
        E 0 88 47 64
        E 0 8e 47 64
        E 0 98 47 64
        E 0 9e 47 64
        E 0 88 47 64
        E 0 8e 47 64
        E 0 98 47 64
        E 0 9e 47 64
        E 0 88 47 64
        E 0 8e 47 64
        E 0 8f 34 64
        E 0 98 47 64
        E 0 9e 47 64
        E 0 9f 34 5a
        E 0 88 47 64
        E 1 8e 47 64
        E 0 98 47 64
        E 0 9e 47 64
        E 0 88 47 64
        E 0 8e 47 64
        E 0 98 47 64
        E 0 9e 47 64
        E 0 88 47 64
        E 0 8e 47 64
        E 0 98 48 64
        E 0 9e 48 64
        E 0 88 48 64
        E 0 8e 48 64
        E 0 8f 34 64
        E 0 98 45 64
        E 0 9e 45 64
        E 0 9f 36 5a
        E 0 88 45 64
        E 0 8e 45 64
        E 0 98 45 64
        E 0 9e 45 64
        E 1 88 45 64
        E 0 8e 45 64
        E 0 98 45 64
        E 0 9e 45 64
        E 0 88 45 64
        E 0 8e 45 64
        E 0 98 42 64
        E 0 9e 42 64
        E 0 88 42 64
        E 1 8e 42 64
        E 1 98 43 64
        E 0 9e 43 64
        E 0 88 43 64
        E 0 8e 43 64
        E 0 8f 36 64
        E 0 98 45 64
        E 0 9e 45 64
        E 0 9f 36 5a
        E 0 88 45 64
        E 0 8e 45 64
        E 0 98 45 64
        E 0 9e 45 64
        E 0 88 45 64
        E 0 8e 45 64
        E 0 98 45 64
        E 0 9e 45 64
        E 0 88 45 64
        E 0 8e 45 64
        E 0 98 48 64
        E 0 9e 48 64
        E 0 88 48 64
        E 0 8e 48 64
        E 1 98 47 64
        E 0 9e 47 64
        E 0 88 47 64
        E 0 8e 47 64
        E 0 8f 36 64
        E 0 98 43 64
        E 0 9e 43 64
        E 0 9f 37 5a
        E 0 88 43 64
        E 0 8e 43 64
        E 0 98 43 64
        E 0 9e 43 64
        E 0 88 43 64
        E 0 8e 43 64
        E 0 8f 37 64
        E 0 98 4a 64
        E 0 9e 4a 64
        E 0 9f 37 5a
        E 0 88 4a 64
        E 0 8e 4a 64
        E 0 98 47 64
        E 0 9e 47 64
        E 0 88 47 64
        E 0 8e 47 64
        E 0 98 47 64
        E 0 9e 47 64
        E 0 88 47 64
        E 0 8e 47 64
        E 1 98 48 64
        E 0 9e 48 64
        E 0 88 48 64
        E 0 8e 48 64
        E 0 98 4a 64
        E 0 9e 4a 64
        E 422 88 4a 64
        E 2 8e 4a 64
        E 0 8f 37 64
        E 1 98 4c 64
        E 0 9e 4c 64
        E 0 9f 30 5a
        E 847 88 4c 64
        E 0 8e 4c 64
        E 0 98 4c 64
        E 1 9e 4c 64
        E 640 88 4c 64
        E 0 8e 4c 64
        E 646 98 48 64
        E 0 9e 48 64
        E 864 88 48 64
        E 4 8e 48 64
        E 0 8f 30 64
        E 0 98 48 64
        E 0 9e 48 64
        E 0 9f 30 5a
        E 620 88 48 64
        E 0 8e 48 64
        E 0 98 48 64
        E 0 9e 48 64
        E 853 88 48 64
        E 0 8e 48 64
        E 0 98 46 66
        E 0 9e 46 66
        E 639 88 46 66
        E 0 8e 46 66
        E 0 98 48 64
        E 0 9e 48 64
        E 641 88 48 64
        E 0 8e 48 64
        E 0 8f 30 64
        E 0 98 45 64
        E 0 9e 45 64
        E 0 9f 35 5a
        E 1492 88 45 64
        E 0 8e 45 64
        E 428 98 48 64
        E 1 9e 48 64
        E 224 88 48 64
        E 0 8e 48 64
        E 0 98 4d 64
        E 0 9e 4d 64
        E 421 88 4d 64
        E 1 8e 4d 64
        E 0 98 4c 64
        E 0 9e 4c 64
        E 432 88 4c 64
        E 0 8e 4c 64
        E 0 8f 35 64
        E 0 98 48 64
        E 0 9e 48 64
        E 0 9f 37 5a
        E 38831 88 48 64
        E 1 8e 48 64
        E 0 98 48 64
        E 0 9e 48 64
        E 0 88 48 64
        E 0 8e 48 64
        E 0 8f 37 64
        E 0 9f 30 5a
        E 0 9b 3c 64
        E 0 9e 48 64
        E 0 8b 3c 64
        E 0 8e 48 64
        E 0 8f 30 64
        E 0 9b 37 64
        E 0 9e 43 64
        E 0 9f 30 5a
        E 0 8b 37 64
        E 0 8e 43 64
        E 0 9b 37 64
        E 0 9e 43 64
        E 0 8b 37 64
        E 0 8e 43 64
        E 0 8f 30 64
        E 0 9b 3a 66
        E 0 9e 46 66
        E 0 9f 30 5a
        E 0 8b 3a 66
        E 0 8e 46 66
        E 0 9b 3a 66
        E 0 9e 46 66
        E 0 8b 3a 66
        E 0 8e 46 66
        E 0 9b 39 64
        E 0 9e 45 64
        E 0 8b 39 64
        E 0 8e 45 64
        E 0 8f 30 64
        E 0 9b 39 64
        E 0 9e 45 64
        E 0 9f 35 5a
        E 0 8b 39 64
        E 0 8e 45 64
        E 0 9b 39 64
        E 0 9e 45 64
        E 0 8b 39 64
        E 0 8e 45 64
        E 0 8f 35 64
        E 0 9b 3e 64
        E 0 9e 4a 64
        E 0 9f 35 5a
        E 0 8b 3e 64
        E 0 8e 4a 64
        E 0 9b 38 64
        E 0 9e 44 64
        E 0 8b 38 64
        E 0 8e 44 64
        E 0 9b 39 64
        E 0 9e 45 64
        E 0 8b 39 64
        E 0 8e 45 64
        E 0 8f 35 64
        E 1 9b 34 64
        E 0 9e 40 64
        E 0 9f 34 5a
        E 0 8b 34 64
        E 0 8e 40 64
        E 0 9b 34 64
        E 0 9e 40 64
        E 0 8b 34 64
        E 0 8e 40 64
        E 0 8f 34 64
        E 0 9f 2d 5a
        E 0 8f 2d 64
        E 0 9a 48 64
        E 0 9e 48 64
        E 0 9f 2d 5a
        E 0 8a 48 64
        E 0 8e 48 64
        E 0 9a 45 64
        E 0 9e 45 64
        E 0 8a 45 64
        E 0 8e 45 64
        E 0 96 40 64
        E 0 9e 40 64
        E 0 86 40 64
        E 0 8e 40 64
        E 0 96 40 64
        E 0 9e 40 64
        E 0 86 40 64
        E 0 8e 40 64
        E 0 96 45 64
        E 0 9e 45 64
        E 0 86 45 64
        E 0 8e 45 64
        E 0 96 45 64
        E 0 9e 45 64
        E 0 86 45 64
        E 0 8e 45 64
        E 0 9b 3c 64
        E 0 9e 48 64
        E 0 8b 3c 64
        E 0 8e 48 64
        E 0 9b 3c 64
        E 0 9e 48 64
        E 0 8b 3c 64
        E 0 8e 48 64
        E 0 9b 39 64
        E 0 9e 45 64
        E 0 8b 39 64
        E 0 8e 45 64
        E 0 8f 2d 64
        E 0 9b 36 64
        E 0 9e 42 64
        E 0 9f 30 5a
        E 0 8b 36 64
        E 0 8e 42 64
        E 0 9b 36 64
        E 0 9e 42 64
        E 0 8b 36 64
        E 0 8e 42 64
        E 0 9b 39 64
        E 1 9e 45 64
        E 0 8b 39 64
        E 0 8e 45 64
        E 0 9b 3c 64
        E 0 9e 48 64
        E 0 8b 3c 64
        E 0 8e 48 64
        E 0 9b 3c 64
        E 0 9e 48 64
        E 0 8b 3c 64
        E 0 8e 48 64
        E 0 9b 3c 64
        E 0 9e 48 64
        E 0 8b 3c 64
        E 0 8e 48 64
        E 0 9b 3a 66
        E 0 9e 46 66
        E 0 8b 3a 66
        E 0 8e 46 66
        E 0 8f 30 64
        E 0 9b 37 64
        E 0 9e 43 64
        E 0 9f 2b 5a
        E 0 8b 37 64
        E 0 8e 43 64
        E 0 9b 37 64
        E 0 9e 43 64
        E 0 8b 37 64
        E 0 8e 43 64
        E 0 9b 37 64
        E 0 9e 43 64
        E 0 8b 37 64
        E 0 8e 43 64
        E 0 9b 37 64
        E 0 9e 43 64
        E 0 8b 37 64
        E 0 8e 43 64
        E 0 9b 39 64
        E 0 9e 45 64
        E 0 8b 39 64
        E 0 8e 45 64
        E 0 8f 2b 64
        E 0 9b 3a 66
        E 0 9e 46 66
        E 0 9f 2b 5a
        E 0 8b 3a 66
        E 0 8e 46 66
        E 0 9b 3a 66
        E 0 9e 46 66
        E 0 8b 3a 66
        E 0 8e 46 66
        E 0 9b 3e 64
        E 0 9e 4a 64
        E 0 8b 3e 64
        E 0 8e 4a 64
        E 0 9b 3a 66
        E 0 9e 46 66
        E 0 8b 3a 66
        E 0 8e 46 66
        E 0 9b 3a 66
        E 0 9e 46 66
        E 0 8b 3a 66
        E 0 8e 46 66
        E 0 9b 3c 64
        E 0 9e 48 64
        E 13114 8b 3c 64
        E 0 8e 48 64
        E 0 9b 3e 64
        E 0 9e 4a 64
        E 0 8b 3e 64
        E 0 8e 4a 64
        E 0 8f 2b 64
        E 0 9b 37 64
        E 0 9e 43 64
        E 0 9f 2b 5a
        E 0 8b 37 64
        E 0 8e 43 64
        E 0 9b 37 64
        E 0 9e 43 64
        E 0 8b 37 64
        E 0 8e 43 64
        E 0 9b 37 64
        E 0 9e 43 64
        E 0 8b 37 64
        E 0 8e 43 64
        E 0 9b 35 64
        E 0 9e 41 64
        E 0 8b 35 64
        E 0 8e 41 64
        E 0 9b 37 64
        E 0 9e 43 64
        E 0 8b 37 64
        E 0 8e 43 64
        E 0 8f 2b 64
        E 0 9b 33 66
        E 0 9e 3f 66
        E 1 9f 30 5a
        E 0 8b 33 66
        E 0 8e 3f 66
        E 0 9b 33 66
        E 0 9e 3f 66
        E 0 8b 33 66
        E 0 8e 3f 66
        E 0 9b 37 64
        E 0 9e 43 64
        E 0 8b 37 64
        E 0 8e 43 64
        E 0 9b 37 64
        E 0 9e 43 64
        E 0 8b 37 64
        E 0 8e 43 64
        E 0 9b 3c 64
        E 0 9e 48 64
        E 0 8b 3c 64
        E 0 8e 48 64
        E 0 9b 3c 64
        E 0 9e 48 64
        E 0 8b 3c 64
        E 0 8e 48 64
        E 0 9b 3a 66
        E 0 9e 46 66
        E 0 8b 3a 66
        E 0 8e 46 66
        E 0 8f 30 64
        E 0 9b 37 64
        E 0 9e 43 64
        E 0 9f 32 5a
        E 1282 8b 37 64
        E 0 8e 43 64
        E 0 8f 32 64
        E 1 9f 2b 5a
        E 1464 8f 2b 64
        E 1 9f 2b 5a
        E 747 96 43 64
        E 0 9e 43 64
        E 720 86 43 64
        E 0 8e 43 64
        E 0 96 43 64
        E 0 9e 43 64
        E 566 86 43 64
        E 0 8e 43 64
        E 0 96 45 64
        E 0 9e 45 64
        E 728 86 45 64
        E 0 8e 45 64
        E 0 8f 2b 64
        E 0 96 46 66
        E 0 9e 46 66
        E 0 9f 2b 5a
        E 723 86 46 66
        E 0 8e 46 66
        E 0 96 46 66
        E 0 9e 46 66
        E 734 86 46 66
        E 0 8e 46 66
        E 735 96 46 66
        E 0 9e 46 66
        E 732 86 46 66
        E 0 8e 46 66
        E 1 96 46 66
        E 0 9e 46 66
        E 38771 86 46 66
        E 0 8e 46 66
        E 0 96 46 66
        E 0 9e 46 66
        E 0 86 46 66
        E 0 8e 46 66
        E 0 96 48 64
        E 0 9e 48 64
        E 0 86 48 64
        E 0 8e 48 64
        E 0 96 4a 64
        E 0 9e 4a 64
        E 0 86 4a 64
        E 0 8e 4a 64
        E 0 8f 2b 64
        E 0 96 43 64
        E 0 9e 43 64
        E 0 9f 2f 5a
        E 0 86 43 64
        E 0 8e 43 64
        E 0 96 43 64
        E 0 9e 43 64
        E 0 86 43 64
        E 0 8e 43 64
        E 0 96 43 64
        E 0 9e 43 64
        E 0 86 43 64
        E 0 8e 43 64
        E 0 96 44 66
        E 0 9e 44 66
        E 0 86 44 66
        E 0 8e 44 66
        E 0 96 41 64
        E 0 9e 41 64
        E 0 86 41 64
        E 0 8e 41 64
        E 0 96 41 64
        E 0 9e 41 64
        E 0 86 41 64
        E 0 8e 41 64
        E 0 96 41 64
        E 0 9e 41 64
        E 0 86 41 64
        E 0 8e 41 64
        E 0 96 41 64
        E 0 9e 41 64
        E 0 86 41 64
        E 0 8e 41 64
        E 0 8f 2f 64
        E 0 96 47 64
        E 0 9e 47 64
        E 0 9f 29 5a
        E 0 86 47 64
        E 0 8e 47 64
        E 0 96 47 64
        E 0 9e 47 64
        E 0 86 47 64
        E 0 8e 47 64
        E 0 96 48 64
        E 0 9e 48 64
        E 0 86 48 64
        E 0 8e 48 64
        E 0 8f 29 64
        E 0 96 43 64
        E 0 9e 43 64
        E 0 9f 27 5b
        E 0 86 43 64
        E 0 8e 43 64
        E 0 96 43 64
        E 0 9e 43 64
        E 0 86 43 64
        E 0 8e 43 64
        E 0 9b 3c 64
        E 0 9e 48 64
        E 0 8b 3c 64
        E 0 8e 48 64
        E 0 9b 3c 64
        E 0 9e 48 64
        E 0 8b 3c 64
        E 0 8e 48 64
        E 0 9b 3c 64
        E 0 9e 48 64
        E 0 8b 3c 64
        E 0 8e 48 64
        E 0 8f 27 66
        E 0 9b 38 66
        E 0 9e 44 66
        E 0 9f 2e 5b
        E 0 8b 38 66
        E 0 8e 44 66
        E 0 9b 38 66
        E 0 9e 44 66
        E 0 8b 38 66
        E 0 8e 44 66
        E 0 9b 38 66
        E 0 9e 44 66
        E 0 8b 38 66
        E 0 8e 44 66
        E 1 9b 38 66
        E 0 9e 44 66
        E 0 8b 38 66
        E 0 8e 44 66
        E 0 9b 38 66
        E 0 9e 44 66
        E 0 8b 38 66
        E 0 8e 44 66
        E 0 9b 37 64
        E 0 9e 43 64
        E 0 8b 37 64
        E 0 8e 43 64
        E 0 9b 35 64
        E 0 9e 41 64
        E 0 8b 35 64
        E 0 8e 41 64
        E 0 8f 2e 66
        E 0 9b 3e 64
        E 0 9e 4a 64
        E 0 9f 2c 5b
        E 0 8b 3e 64
        E 0 8e 4a 64
        E 0 9b 3e 64
        E 0 9e 4a 64
        E 0 8b 3e 64
        E 0 8e 4a 64
        E 0 9b 3a 66
        E 0 9e 46 66
        E 0 8b 3a 66
        E 0 8e 46 66
        E 0 9b 38 66
        E 0 9e 44 66
        E 0 8b 38 66
        E 0 8e 44 66
        E 0 8f 2c 66
        E 0 9b 37 64
        E 0 9e 43 64
        E 0 9f 33 5b
        E 0 8b 37 64
        E 0 8e 43 64
        E 0 9b 37 64
        E 0 9e 43 64
        E 0 8b 37 64
        E 0 8e 43 64
        E 0 8f 33 66
        E 0 9b 3a 66
        E 0 9e 46 66
        E 0 9f 33 5b
        E 0 8b 3a 66
        E 0 8e 46 66
        E 0 9b 3a 66
        E 0 9e 46 66
        E 0 8b 3a 66
        E 0 8e 46 66
        E 0 9b 3a 66
        E 0 9e 46 66
        E 0 8b 3a 66
        E 0 8e 46 66
        E 0 9b 39 64
        E 0 9e 45 64
        E 0 8b 39 64
        E 0 8e 45 64
        E 0 9b 3a 66
        E 0 9e 46 66
        E 0 8b 3a 66
        E 0 8e 46 66
        E 0 8f 33 66
        E 0 9b 35 64
        E 0 9e 41 64
        E 0 9f 35 5a
        E 0 8b 35 64
        E 0 8e 41 64
        E 0 8f 35 64
        E 0 9f 2e 5b
        E 0 98 4a 64
        E 0 9e 4a 64
        E 0 88 4a 64
        E 0 8e 4a 64
        E 0 98 48 64
        E 0 9e 48 64
        E 0 88 48 64
        E 0 8e 48 64
        E 0 98 4a 64
        E 0 9e 4a 64
        E 0 88 4a 64
        E 0 8e 4a 64
        E 0 8f 2e 66
        E 1 98 46 66
        E 0 9e 46 66
        E 0 9f 2e 5b
        E 0 88 46 66
        E 0 8e 46 66
        E 0 98 46 66
        E 0 9e 46 66
        E 0 88 46 66
        E 0 8e 46 66
        E 0 9c 35 64
        E 0 9e 35 64
        E 0 8c 35 64
        E 0 8e 35 64
        E 0 9c 35 64
        E 0 9e 35 64
        E 0 8c 35 64
        E 0 8e 35 64
        E 0 9c 3a 66
        E 0 9e 3a 66
        E 0 8c 3a 66
        E 0 8e 3a 66
        E 0 9c 3a 66
        E 0 9e 3a 66
        E 0 8c 3a 66
        E 0 8e 3a 66
        E 0 9c 39 64
        E 0 9e 39 64
        E 0 8c 39 64
        E 0 8e 39 64
        E 0 8f 2e 66
        E 0 9c 39 64
        E 0 9e 39 64
        E 0 9f 31 5a
        E 0 8c 39 64
        E 0 8e 39 64
        E 0 9c 39 64
        E 0 9e 39 64
        E 38403 8c 39 64
        E 0 8e 39 64
        E 0 9c 3a 66
        E 0 9e 3a 66
        E 0 8c 3a 66
        E 0 8e 3a 66
        E 0 9c 37 64
        E 0 9e 37 64
        E 0 8c 37 64
        E 0 8e 37 64
        E 0 9c 37 64
        E 0 9e 37 64
        E 0 8c 37 64
        E 0 8e 37 64
        E 0 9c 37 64
        E 0 9e 37 64
        E 0 8c 37 64
        E 0 8e 37 64
        E 0 9c 35 64
        E 0 9e 35 64
        E 0 8c 35 64
        E 0 8e 35 64
        E 0 8f 31 64
        E 0 9c 32 64
        E 0 9e 32 64
        E 0 9f 32 5a
        E 0 8c 32 64
        E 0 8e 32 64
        E 0 9c 32 64
        E 0 9e 32 64
        E 0 8c 32 64
        E 0 8e 32 64
        E 0 9b 39 64
        E 0 9e 45 64
        E 0 8b 39 64
        E 0 8e 45 64
        E 0 9b 37 64
        E 0 9e 43 64
        E 0 8b 37 64
        E 0 8e 43 64
        E 0 9b 39 64
        E 0 9e 45 64
        E 0 8b 39 64
        E 0 8e 45 64
        E 0 9b 35 64
        E 0 9e 41 64
        E 0 8b 35 64
        E 0 8e 41 64
        E 0 9b 35 64
        E 0 9e 41 64
        E 0 8b 35 64
        E 0 8e 41 64
        E 1 9b 39 64
        E 0 9e 45 64
        E 0 8b 39 64
        E 0 8e 45 64
        E 0 8f 32 64
        E 0 9b 3b 64
        E 0 9e 47 64
        E 0 9f 2c 5a
        E 0 8b 3b 64
        E 0 8e 47 64
        E 0 9b 3b 64
        E 0 9e 47 64
        E 0 8b 3b 64
        E 0 8e 47 64
        E 0 9b 3b 64
        E 0 9e 47 64
        E 0 8b 3b 64
        E 0 8e 47 64
        E 0 9b 3b 64
        E 0 9e 47 64
        E 0 8b 3b 64
        E 0 8e 47 64
        E 0 9b 3b 64
        E 0 9e 47 64
        E 0 8b 3b 64
        E 0 8e 47 64
        E 0 9b 3e 64
        E 0 9e 4a 64
        E 0 8b 3e 64
        E 0 8e 4a 64
        E 0 9b 3c 64
        E 0 9e 48 64
        E 0 8b 3c 64
        E 0 8e 48 64
        E 0 8f 2c 64
        E 0 9b 39 64
        E 0 9e 45 64
        E 0 9f 2d 5a
        E 0 8b 39 64
        E 0 8e 45 64
        E 0 9b 39 64
        E 0 9e 45 64
        E 0 8b 39 64
        E 0 8e 45 64
        E 0 9b 39 64
        E 0 9e 45 64
        E 0 8b 39 64
        E 0 8e 45 64
        E 0 9b 3c 64
        E 0 9e 48 64
        E 0 8b 3c 64
        E 0 8e 48 64
        E 0 9b 3c 64
        E 0 9e 48 64
        E 0 8b 3c 64
        E 0 8e 48 64
        E 0 9b 3c 64
        E 0 9e 48 64
        E 0 8b 3c 64
        E 0 8e 48 64
        E 0 9b 3b 64
        E 0 9e 47 64
        E 0 8b 3b 64
        E 0 8e 47 64
        E 0 8f 2d 64
        E 0 9b 3b 64
        E 0 9e 47 64
        E 0 9f 33 5a
        E 0 8b 3b 64
        E 0 8e 47 64
        E 0 9b 3b 64
        E 0 9e 47 64
        E 0 8b 3b 64
        E 0 8e 47 64
        E 0 9b 3c 64
        E 1 9e 48 64
        E 0 8b 3c 64
        E 0 8e 48 64
        E 0 9b 39 64
        E 0 9e 45 64
        E 0 8b 39 64
        E 0 8e 45 64
        E 0 9b 37 64
        E 0 9e 43 64
        E 0 8b 37 64
        E 0 8e 43 64
        E 0 8f 33 64
        E 0 9b 34 64
        E 0 9e 40 64
        E 1 9f 34 5a
        E 0 8b 34 64
        E 0 8e 40 64
        E 0 9b 34 64
        E 0 9e 40 64
        E 0 8b 34 64
        E 0 8e 40 64
        E 0 8f 34 64
        E 0 9b 3b 64
        E 0 9e 47 64
        E 0 9f 34 5a
        E 0 8b 3b 64
        E 0 8e 47 64
        E 0 9b 3b 64
        E 0 9e 47 64
        E 0 8b 3b 64
        E 0 8e 47 64
        E 0 9b 3b 64
        E 0 9e 47 64
        E 0 8b 3b 64
        E 0 8e 47 64
        E 0 9b 39 64
        E 0 9e 45 64
        E 0 8b 39 64
        E 0 8e 45 64
        E 0 9b 3b 64
        E 0 9e 47 64
        E 0 8b 3b 64
        E 0 8e 47 64
        E 0 8f 34 64
        E 0 9b 3c 64
        E 0 9e 48 64
        E 0 9f 2d 5a
        E 0 8b 3c 64
        E 0 8e 48 64
        E 0 9b 3c 64
        E 0 9e 48 64
        E 0 8b 3c 64
        E 0 8e 48 64
        E 0 9b 3c 64
        E 0 9e 48 64
        E 0 8b 3c 64
        E 0 8e 48 64
        E 0 9b 39 64
        E 0 9e 45 64
        E 0 8b 39 64
        E 0 8e 45 64
        E 0 9b 37 64
        E 0 9e 43 64
        E 0 8b 37 64
        E 0 8e 43 64
        E 0 8f 2d 64
        E 0 9b 34 64
        E 0 9e 40 64
        E 0 9f 2f 5a
        E 0 8b 34 64
        E 0 8e 40 64
        E 0 9b 34 64
        E 0 9e 40 64
        E 0 8b 34 64
        E 0 8e 40 64
        E 0 8f 2f 64
        E 0 9f 34 5a
        E 0 97 47 64
        E 0 9e 47 64
        E 0 87 47 64
        E 0 8e 47 64
        E 0 97 47 64
        E 0 9e 47 64
        E 0 87 47 64
        E 0 8e 47 64
        E 0 97 49 64
        E 0 9e 49 64
        E 0 87 49 64
        E 0 8e 49 64
        E 0 8f 34 64
        E 0 97 46 64
        E 0 9e 46 64
        E 0 9f 34 5a
        E 0 87 46 64
        E 0 8e 46 64
        E 0 97 46 64
        E 0 9e 46 64
        E 0 87 46 64
        E 0 8e 46 64
        E 38403 8f 34 64
        E 0 97 49 64
        E 0 9e 49 64
        E 0 9f 34 5a
        E 0 87 49 64
        E 0 8e 49 64
        E 0 97 49 64
        E 0 9e 49 64
        E 0 87 49 64
        E 0 8e 49 64
        E 0 97 4a 64
        E 0 9e 4a 64
        E 0 87 4a 64
        E 0 8e 4a 64
        E 0 8f 34 64
        E 0 97 47 64
        E 1 9e 47 64
        E 0 9f 32 5a
        E 0 87 47 64
        E 0 8e 47 64
        E 0 97 47 64
        E 0 9e 47 64
        E 0 87 47 64
        E 0 8e 47 64
        E 0 9b 36 64
        E 0 9e 42 64
        E 0 8b 36 64
        E 0 8e 42 64
        E 0 8f 32 64
        E 0 9b 3b 64
        E 1 9e 47 64
        E 0 9f 32 5a
        E 0 8b 3b 64
        E 0 8e 47 64
        E 0 9b 3b 64
        E 0 9e 47 64
        E 0 8b 3b 64
        E 0 8e 47 64
        E 0 9b 3b 64
        E 0 9e 47 64
        E 0 8b 3b 64
        E 0 8e 47 64
        E 0 9b 3b 64
        E 0 9e 47 64
        E 0 8b 3b 64
        E 0 8e 47 64
        E 0 9b 3b 64
        E 0 9e 47 64
        E 0 8b 3b 64
        E 0 8e 47 64
        E 0 9b 39 64
        E 0 9e 45 64
        E 0 8b 39 64
        E 0 8e 45 64
        E 0 9b 3b 64
        E 0 9e 47 64
        E 0 8b 3b 64
        E 0 8e 47 64
        E 0 8f 32 64
        E 0 9b 37 64
        E 0 9e 43 64
        E 0 9f 34 5a
        E 0 8b 37 64
        E 0 8e 43 64
        E 0 9b 37 64
        E 0 9e 43 64
        E 0 8b 37 64
        E 0 8e 43 64
        E 0 9b 37 64
        E 0 9e 43 64
        E 0 8b 37 64
        E 0 8e 43 64
        E 0 9b 37 64
        E 0 9e 43 64
        E 0 8b 37 64
        E 0 8e 43 64
        E 0 9b 37 64
        E 0 9e 43 64
        E 0 8b 37 64
        E 0 8e 43 64
        E 0 9b 37 64
        E 0 9e 43 64
        E 0 8b 37 64
        E 0 8e 43 64
        E 0 9b 36 64
        E 0 9e 42 64
        E 0 8b 36 64
        E 0 8e 42 64
        E 0 8f 34 64
        E 0 9b 39 64
        E 0 9e 45 64
        E 0 9f 32 5a
        E 0 8b 39 64
        E 0 8e 45 64
        E 0 9b 39 64
        E 0 9e 45 64
        E 0 8b 39 64
        E 0 8e 45 64
        E 0 9b 39 64
        E 0 9e 45 64
        E 0 8b 39 64
        E 0 8e 45 64
        E 0 9b 36 64
        E 0 9e 42 64
        E 0 8b 36 64
        E 0 8e 42 64
        E 0 9b 39 64
        E 0 9e 45 64
        E 0 8b 39 64
        E 0 8e 45 64
        E 0 8f 32 64
        E 0 9b 32 64
        E 0 9e 3e 64
        E 0 9f 32 5a
        E 0 8b 32 64
        E 0 8e 3e 64
        E 0 9b 32 64
        E 0 9e 3e 64
        E 0 8b 32 64
        E 0 8e 3e 64
        E 0 9b 39 64
        E 0 9e 45 64
        E 0 8b 39 64
        E 0 8e 45 64
        E 0 9b 39 64
        E 0 9e 45 64
        E 0 8b 39 64
        E 0 8e 45 64
        E 0 9b 39 64
        E 0 9e 45 64
        E 0 8b 39 64
        E 0 8e 45 64
        E 0 9b 39 64
        E 0 9e 45 64
        E 0 8b 39 64
        E 0 8e 45 64
        E 0 9b 3b 64
        E 0 9e 47 64
        E 0 8b 3b 64
        E 0 8e 47 64
        E 0 8f 32 64
        E 0 9b 3c 64
        E 0 9e 48 64
        E 1 9f 32 5a
        E 0 8b 3c 64
        E 0 8e 48 64
        E 0 9b 3c 64
        E 0 9e 48 64
        E 0 8b 3c 64
        E 0 8e 48 64
        E 0 9b 3c 64
        E 0 9e 48 64
        E 0 8b 3c 64
        E 0 8e 48 64
        E 0 9b 39 64
        E 0 9e 45 64
        E 0 8b 39 64
        E 0 8e 45 64
        E 0 9b 3b 64
        E 0 9e 47 64
        E 0 8b 3b 64
        E 0 8e 47 64
        E 0 8f 32 64
        E 0 9b 37 64
        E 0 9e 43 64
        E 0 9f 37 5a
        E 0 8b 37 64
        E 0 8e 43 64
        E 0 9b 37 64
        E 0 9e 43 64
        E 0 8b 37 64
        E 0 8e 43 64
        E 0 8f 37 64
        E 0 9b 3c 64
        E 0 9e 48 64
        E 0 9f 34 5a
        E 0 8b 3c 64
        E 0 8e 48 64
        E 0 8f 34 64
        E 0 9b 39 64
        E 0 9e 45 64
        E 0 9f 35 5a
        E 38402 8b 39 64
        E 0 8e 45 64
        E 0 9b 39 64
        E 1 9e 45 64
        E 0 8b 39 64
        E 0 8e 45 64
        E 0 8f 35 64
        E 0 9f 36 5a
        E 0 9b 3f 66
        E 0 9e 4b 66
        E 0 8b 3f 66
        E 0 8e 4b 66
        E 0 8f 36 64
        E 0 9b 3c 64
        E 0 9e 48 64
        E 0 9f 37 5a
        E 0 8b 3c 64
        E 0 8e 48 64
        E 0 9b 3c 64
        E 0 9e 48 64
        E 0 8b 3c 64
        E 0 8e 48 64
        E 0 8f 37 64
        E 0 9f 30 5a
        E 0 8f 30 64
        E 0 9f 30 5a
        E 0 9b 37 64
        E 0 9e 43 64
        E 0 8b 37 64
        E 0 8e 43 64
        E 0 9b 3a 66
        E 0 9e 46 66
        E 0 8b 3a 66
        E 0 8e 46 66
        E 0 9b 3a 66
        E 0 9e 46 66
        E 0 8b 3a 66
        E 0 8e 46 66
        E 0 9b 3a 66
        E 0 9e 46 66
        E 0 8b 3a 66
        E 0 8e 46 66
        E 0 9b 39 64
        E 0 9e 45 64
        E 0 8b 39 64
        E 0 8e 45 64
        E 0 8f 30 64
        E 0 9b 35 64
        E 0 9e 41 64
        E 0 9f 35 5a
        E 0 8b 35 64
        E 0 8e 41 64
        E 0 9b 35 64
        E 0 9e 41 64
        E 0 8b 35 64
        E 0 8e 41 64
        E 0 98 48 64
        E 0 9e 48 64
        E 0 88 48 64
        E 0 8e 48 64
        E 1 98 48 64
        E 0 9e 48 64
        E 0 88 48 64
        E 0 8e 48 64
        E 0 98 4b 66
        E 0 9e 4b 66
        E 0 88 4b 66
        E 0 8e 4b 66
        E 0 98 4b 66
        E 0 9e 4b 66
        E 0 88 4b 66
        E 0 8e 4b 66
        E 0 98 4a 64
        E 0 9e 4a 64
        E 0 88 4a 64
        E 0 8e 4a 64
        E 0 8f 35 64
        E 0 98 46 66
        E 0 9e 46 66
        E 0 9f 2e 5b
        E 0 88 46 66
        E 0 8e 46 66
        E 0 98 46 66
        E 0 9e 46 66
        E 0 88 46 66
        E 0 8e 46 66
        E 0 9c 35 64
        E 0 9e 35 64
        E 0 8c 35 64
        E 0 8e 35 64
        E 0 9c 38 66
        E 0 9e 38 66
        E 0 8c 38 66
        E 0 8e 38 66
        E 0 9c 38 66
        E 0 9e 38 66
        E 0 8c 38 66
        E 0 8e 38 66
        E 0 9c 38 66
        E 0 9e 38 66
        E 0 8c 38 66
        E 0 8e 38 66
        E 0 9c 37 64
        E 0 9e 37 64
        E 0 8c 37 64
        E 0 8e 37 64
        E 0 8f 2e 66
        E 0 9c 33 66
        E 0 9e 33 66
        E 1 9f 33 5b
        E 0 8c 33 66
        E 0 8e 33 66
        E 0 97 46 66
        E 0 9e 46 66
        E 0 87 46 66
        E 0 8e 46 66
        E 0 97 44 66
        E 0 9e 44 66
        E 0 87 44 66
        E 0 8e 44 66
        E 0 97 46 66
        E 0 9e 46 66
        E 0 87 46 66
        E 0 8e 46 66
        E 0 8f 33 66
        E 0 97 43 64
        E 0 9e 43 64
        E 0 9f 33 5b
        E 0 87 43 64
        E 0 8e 43 64
        E 0 97 43 64
        E 0 9e 43 64
        E 0 87 43 64
        E 0 8e 43 64
        E 0 97 46 66
        E 0 9e 46 66
        E 0 87 46 66
        E 0 8e 46 66
        E 0 97 48 64
        E 0 9e 48 64
        E 0 87 48 64
        E 0 8e 48 64
        E 0 97 45 64
        E 0 9e 45 64
        E 0 87 45 64
        E 0 8e 45 64
        E 0 97 45 64
        E 0 9e 45 64
        E 0 87 45 64
        E 0 8e 45 64
        E 0 97 46 66
        E 0 9e 46 66
        E 0 87 46 66
        E 0 8e 46 66
        E 0 8f 33 66
        E 0 97 41 64
        E 0 9e 41 64
        E 0 9f 35 5a
        E 0 87 41 64
        E 0 8e 41 64
        E 0 97 41 64
        E 0 9e 41 64
        E 0 87 41 64
        E 0 8e 41 64
        E 0 8f 35 64
        E 0 9f 2e 5b
        E 0 8f 2e 66
        E 0 9f 2e 5b
        E 0 97 4a 64
        E 0 9e 4a 64
        E 0 87 4a 64
        E 0 8e 4a 64
        E 0 97 4a 64
        E 0 9e 4a 64
        E 0 87 4a 64
        E 0 8e 4a 64
        E 0 97 48 64
        E 0 9e 48 64
        E 0 87 48 64
        E 0 8e 48 64
        E 0 8f 2e 66
        E 0 97 48 64
        E 0 9e 48 64
        E 0 9f 34 5a
        E 0 87 48 64
        E 1 8e 48 64
        E 0 97 48 64
        E 0 9e 48 64
        E 38403 87 48 64
        E 0 8e 48 64
        E 0 97 4a 64
        E 0 9e 4a 64
        E 0 87 4a 64
        E 0 8e 4a 64
        E 0 97 46 66
        E 0 9e 46 66
        E 0 87 46 66
        E 0 8e 46 66
        E 0 97 43 64
        E 0 9e 43 64
        E 0 87 43 64
        E 0 8e 43 64
        E 0 97 46 66
        E 0 9e 46 66
        E 0 87 46 66
        E 0 8e 46 66
        E 0 97 45 64
        E 0 9e 45 64
        E 0 87 45 64
        E 0 8e 45 64
        E 0 8f 34 64
        E 0 97 41 64
        E 0 9e 41 64
        E 0 9f 35 5a
        E 0 87 41 64
        E 0 8e 41 64
        E 0 97 41 64
        E 0 9e 41 64
        E 0 87 41 64
        E 0 8e 41 64
        E 1 97 48 64
        E 0 9e 48 64
        E 0 87 48 64
        E 0 8e 48 64
        E 0 97 48 64
        E 0 9e 48 64
        E 0 87 48 64
        E 0 8e 48 64
        E 0 97 4a 64
        E 0 9e 4a 64
        E 0 87 4a 64
        E 0 8e 4a 64
        E 0 8f 35 64
        E 0 97 45 64
        E 0 9e 45 64
        E 0 9f 36 5a
        E 0 87 45 64
        E 0 8e 45 64
        E 0 97 45 64
        E 0 9e 45 64
        E 0 87 45 64
        E 0 8e 45 64
        E 0 97 45 64
        E 0 9e 45 64
        E 0 87 45 64
        E 0 8e 45 64
        E 0 8f 36 64
        E 0 97 48 64
        E 0 9e 48 64
        E 0 9f 36 5a
        E 0 87 48 64
        E 0 8e 48 64
        E 0 97 48 64
        E 0 9e 48 64
        E 0 87 48 64
        E 0 8e 48 64
        E 0 97 48 64
        E 0 9e 48 64
        E 0 87 48 64
        E 0 8e 48 64
        E 0 97 47 64
        E 0 9e 47 64
        E 0 87 47 64
        E 0 8e 47 64
        E 0 8f 36 64
        E 0 97 43 64
        E 0 9e 43 64
        E 0 9f 37 5a
        E 0 87 43 64
        E 0 8e 43 64
        E 0 97 43 64
        E 0 9e 43 64
        E 0 87 43 64
        E 0 8e 43 64
        E 0 97 4a 64
        E 0 9e 4a 64
        E 0 87 4a 64
        E 0 8e 4a 64
        E 0 97 4a 64
        E 1 9e 4a 64
        E 0 87 4a 64
        E 0 8e 4a 64
        E 0 97 4a 64
        E 0 9e 4a 64
        E 0 87 4a 64
        E 0 8e 4a 64
        E 0 8f 37 64
        E 0 97 47 64
        E 0 9e 47 64
        E 0 9f 37 5a
        E 0 87 47 64
        E 0 8e 47 64
        E 0 97 47 64
        E 0 9e 47 64
        E 0 87 47 64
        E 0 8e 47 64
        E 0 97 47 64
        E 0 9e 47 64
        E 0 87 47 64
        E 0 8e 47 64
        E 0 97 47 64
        E 0 9e 47 64
        E 0 87 47 64
        E 0 8e 47 64
        E 0 97 47 64
        E 0 9e 47 64
        E 0 87 47 64
        E 0 8e 47 64
        E 0 97 49 64
        E 0 9e 49 64
        E 0 87 49 64
        E 0 8e 49 64
        E 0 97 4a 64
        E 0 9e 4a 64
        E 0 87 4a 64
        E 0 8e 4a 64
        E 0 8f 37 64
        E 0 97 45 64
        E 0 9e 45 64
        E 0 9f 39 5a
        E 0 87 45 64
        E 0 8e 45 64
        E 0 97 45 64
        E 0 9e 45 64
        E 0 87 45 64
        E 0 8e 45 64
        E 0 97 45 64
        E 0 9e 45 64
        E 0 87 45 64
        E 0 8e 45 64
        E 0 8f 39 64
        E 0 9f 32 5a
        E 0 9b 39 64
        E 0 9e 45 64
        E 0 8b 39 64
        E 0 8e 45 64
        E 0 8f 32 64
        E 0 9b 36 64
        E 0 9e 42 64
        E 0 9f 32 5a
        E 0 8b 36 64
        E 0 8e 42 64
        E 0 9b 3e 64
        E 1 9e 4a 64
        E 0 8b 3e 64
        E 0 8e 4a 64
        E 0 8f 32 64
        E 0 9b 3b 64
        E 0 9e 47 64
        E 0 9f 2c 5a
        E 0 8b 3b 64
        E 0 8e 47 64
        E 0 9b 3b 64
        E 0 9e 47 64
        E 0 8b 3b 64
        E 0 8e 47 64
        E 0 9b 3b 64
        E 0 9e 47 64
        E 0 8b 3b 64
        E 0 8e 47 64
        E 0 9b 3b 64
        E 0 9e 47 64
        E 0 8b 3b 64
        E 0 8e 47 64
        E 0 9b 3b 64
        E 0 9e 47 64
        E 0 8b 3b 64
        E 0 8e 47 64
        E 0 9b 3b 64
        E 0 9e 47 64
        E 0 8b 3b 64
        E 0 8e 47 64
        E 0 9b 3d 64
        E 0 9e 49 64
        E 0 8b 3d 64
        E 0 8e 49 64
        E 0 8f 2c 64
        E 0 9b 39 64
        E 0 9e 45 64
        E 0 9f 2d 5a
        E 0 8b 39 64
        E 0 8e 45 64
        E 0 9b 39 64
        E 0 9e 45 64
        E 0 8b 39 64
        E 0 8e 45 64
        E 0 9b 39 64
        E 0 9e 45 64
        E 0 8b 39 64
        E 0 8e 45 64
        E 0 9b 39 64
        E 0 9e 45 64
        E 0 8b 39 64
        E 0 8e 45 64
        E 0 9b 39 64
        E 0 9e 45 64
        E 0 8b 39 64
        E 0 8e 45 64
        E 0 8f 2d 64
        E 0 9b 36 64
        E 0 9e 42 64
        E 0 9f 32 5a
        E 0 8b 36 64
        E 0 8e 42 64
        E 0 9b 36 64
        E 0 9e 42 64
        E 0 8b 36 64
        E 0 8e 42 64
        E 0 9b 3e 64
        E 0 9e 4a 64
        E 38403 8b 3e 64
        E 0 8e 4a 64
        E 0 8f 32 64
        E 0 9b 39 64
        E 1 9e 45 64
        E 0 9f 32 5a
        E 0 8b 39 64
        E 0 8e 45 64
        E 0 9b 39 64
        E 0 9e 45 64
        E 0 8b 39 64
        E 0 8e 45 64
        E 0 9b 37 64
        E 0 9e 43 64
        E 0 8b 37 64
        E 0 8e 43 64
        E 0 9b 39 64
        E 0 9e 45 64
        E 0 8b 39 64
        E 0 8e 45 64
        E 0 8f 32 64
        E 0 9b 3b 64
        E 0 9e 47 64
        E 0 9f 2b 5a
        E 0 8b 3b 64
        E 0 8e 47 64
        E 0 9b 3b 64
        E 0 9e 47 64
        E 0 8b 3b 64
        E 0 8e 47 64
        E 0 9b 3b 64
        E 0 9e 47 64
        E 0 8b 3b 64
        E 0 8e 47 64
        E 0 9b 3d 64
        E 0 9e 49 64
        E 0 8b 3d 64
        E 0 8e 49 64
        E 0 9b 3e 64
        E 0 9e 4a 64
        E 0 8b 3e 64
        E 0 8e 4a 64
        E 0 8f 2b 64
        E 0 9b 39 64
        E 0 9e 45 64
        E 0 9f 2d 5a
        E 0 8b 39 64
        E 0 8e 45 64
        E 1 9b 39 64
        E 0 9e 45 64
        E 0 8b 39 64
        E 0 8e 45 64
        E 0 8f 2d 64
        E 0 9f 26 5a
        E 0 8f 26 64
        E 0 92 4a 64
        E 0 93 4a 5a
        E 0 94 4a 64
        E 0 9f 3e 5a
        E 0 83 4a 64
        E 0 8f 3e 64
        E 0 93 4c 5a
        E 0 9f 40 5a
        E 0 83 4c 64
        E 0 8f 40 64
        E 0 93 4a 5a
        E 0 9f 3e 5a
        E 0 82 4a 64
        E 0 83 4a 64
        E 0 84 4a 64
        E 0 8f 3e 64
        E 0 92 49 64
        E 0 93 49 5a
        E 0 94 49 64
        E 0 9f 3d 5a
        E 0 82 49 64
        E 0 83 49 64
        E 0 84 49 64
        E 0 8f 3d 64
        E 0 92 47 64
        E 0 93 47 5a
        E 0 94 47 64
        E 0 9f 3b 5a
        E 0 83 47 64
        E 0 8f 3b 64
        E 0 93 49 5a
        E 0 9f 3d 5a
        E 0 83 49 64
        E 0 8f 3d 64
        E 0 93 47 5a
        E 0 9f 3b 5a
        E 0 82 47 64
        E 0 83 47 64
        E 0 84 47 64
        E 0 8f 3b 64
        E 0 92 45 64
        E 0 93 45 5a
        E 0 94 45 64
        E 0 9f 39 5a
        E 0 82 45 64
        E 0 83 45 64
        E 0 84 45 64
        E 0 8f 39 64
        E 0 92 43 64
        E 0 93 43 5a
        E 0 94 43 64
        E 0 9f 37 5a
        E 0 82 43 64
        E 0 83 43 64
        E 0 84 43 64
        E 0 8f 37 64
        E 0 92 42 64
        E 0 93 42 5a
        E 1 94 42 64
        E 0 9f 36 5a
        E 0 82 42 64
        E 0 83 42 64
        E 0 84 42 64
        E 0 8f 36 64
        E 0 92 40 64
        E 0 93 40 5a
        E 0 94 40 64
        E 0 9f 34 5a
        E 0 82 40 64
        E 0 83 40 64
        E 0 84 40 64
        E 0 8f 34 64
        E 0 92 3e 64
        E 0 93 3e 5a
        E 0 94 3e 64
        E 0 9f 32 5a
        E 0 82 3e 64
        E 0 83 3e 64
        E 0 84 3e 64
        E 0 8f 32 64
        E 0 92 45 64
        E 0 93 45 5a
        E 0 94 45 64
        E 0 9f 39 5a
        E 0 83 45 64
        E 0 8f 39 64
        E 0 93 43 5a
        E 0 9f 37 5a
        E 0 82 45 64
        E 0 83 43 64
        E 0 84 45 64
        E 0 8f 37 64
        E 0 92 45 64
        E 0 93 45 5a
        E 0 94 45 64
        E 0 9f 39 5a
        E 0 83 45 64
        E 0 8f 39 64
        E 0 93 39 5a
        E 0 9f 2d 5a
        E 0 82 45 64
        E 0 83 39 64
        E 0 84 45 64
        E 0 8f 2d 64
        E 0 92 4a 64
        E 0 93 4a 5a
        E 0 94 4a 64
        E 0 9f 3e 5a
        E 0 83 4a 64
        E 0 8f 3e 64
        E 0 93 4c 5a
        E 0 9f 40 5a
        E 0 83 4c 64
        E 0 8f 40 64
        E 0 93 4a 5a
        E 0 9f 3e 5a
        E 0 82 4a 64
        E 0 83 4a 64
        E 0 84 4a 64
        E 0 8f 3e 64
        E 0 92 49 64
        E 0 93 49 5a
        E 0 94 49 64
        E 0 9f 3d 5a
        E 0 82 49 64
        E 0 83 49 64
        E 0 84 49 64
        E 0 8f 3d 64
        E 0 92 47 64
        E 0 93 47 5a
        E 0 94 47 64
        E 0 9f 3b 5a
        E 0 83 47 64
        E 0 8f 3b 64
        E 0 93 49 5a
        E 0 9f 3d 5a
        E 0 83 49 64
        E 0 8f 3d 64
        E 0 93 47 5a
        E 0 9f 3b 5a
        E 0 82 47 64
        E 0 83 47 64
        E 0 84 47 64
        E 0 8f 3b 64
        E 0 92 45 64
        E 0 93 45 5a
        E 0 94 45 64
        E 0 9f 39 5a
        E 0 82 45 64
        E 0 83 45 64
        E 0 84 45 64
        E 0 8f 39 64
        E 0 92 44 64
        E 0 93 44 5a
        E 1 94 44 64
        E 0 9f 38 5a
        E 0 83 44 64
        E 0 8f 38 64
        E 0 93 42 5a
        E 0 9f 36 5a
        E 0 83 42 64
        E 0 8f 36 64
        E 0 93 44 5a
        E 0 9f 38 5a
        E 0 82 44 64
        E 0 83 44 64
        E 0 84 44 64
        E 0 8f 38 64
        E 0 92 4a 64
        E 0 93 40 5a
        E 0 94 4a 64
        E 0 9f 34 5a
        E 0 82 4a 64
        E 0 83 40 64
        E 0 84 4a 64
        E 0 8f 34 64
        E 0 92 49 64
        E 0 93 45 5a
        E 0 94 49 64
        E 0 9f 39 5a
        E 0 82 49 64
        E 0 83 45 64
        E 0 84 49 64
        E 0 8f 39 64
        E 0 92 47 64
        E 0 93 47 5a
        E 0 94 47 64
        E 0 9f 3b 5a
        E 0 82 47 64
        E 0 83 47 64
        E 0 84 47 64
        E 0 8f 3b 64
        E 0 92 45 64
        E 0 93 49 5a
        E 0 94 45 64
        E 0 9f 3d 5a
        E 0 83 49 64
        E 0 8f 3d 64
        E 0 93 47 5a
        E 0 9f 3b 5a
        E 0 82 45 64
        E 0 83 47 64
        E 0 84 45 64
        E 0 8f 3b 64
        E 0 92 45 64
        E 0 93 45 5a
        E 0 94 45 64
        E 0 9f 39 5a
        E 0 82 45 64
        E 0 83 45 64
        E 0 84 45 64
        E 0 8f 39 64
        E 0 92 47 64
        E 0 93 47 5a
        E 0 94 47 64
        E 0 9f 3b 5a
        E 0 82 47 64
        E 0 83 47 64
        E 0 84 47 64
        E 0 8f 3b 64
        E 0 92 49 64
        E 0 93 49 5a
        E 0 94 49 64
        E 0 9f 3d 5a
        E 0 82 49 64
        E 0 83 49 64
        E 0 84 49 64
        E 0 8f 3d 64
        E 0 92 4a 64
        E 0 93 4a 5a
        E 0 94 4a 64
        E 0 9f 3e 5a
        E 0 82 4a 64
        E 0 83 4a 64
        E 0 84 4a 64
        E 0 8f 3e 64
        E 0 92 4c 64
        E 0 93 4c 5a
        E 0 94 4c 64
        E 0 9f 40 5a
        E 38403 82 4c 64
        E 1 83 4c 64
        E 0 84 4c 64
        E 0 8f 40 64
        E 0 92 49 64
        E 0 93 49 5a
        E 0 94 49 64
        E 0 9f 3d 5a
        E 0 82 49 64
        E 0 83 49 64
        E 0 84 49 64
        E 0 8f 3d 64
        E 0 92 47 64
        E 0 93 47 5a
        E 0 94 47 64
        E 0 9f 3b 5a
        E 0 82 47 64
        E 0 83 47 64
        E 0 84 47 64
        E 0 8f 3b 64
        E 0 92 45 64
        E 0 93 45 5a
        E 0 94 45 64
        E 0 9f 39 5a
        E 0 82 45 64
        E 0 83 45 64
        E 0 84 45 64
        E 0 8f 39 64
        E 0 92 47 64
        E 0 93 3e 5a
        E 0 94 47 64
        E 0 9f 32 5a
        E 0 83 3e 64
        E 0 8f 32 64
        E 0 93 3b 5a
        E 0 9f 2f 5a
        E 0 82 47 64
        E 0 83 3b 64
        E 0 84 47 64
        E 0 8f 2f 64
        E 0 92 44 64
        E 0 93 40 5a
        E 0 94 44 64
        E 0 9f 34 5a
        E 0 83 40 64
        E 0 8f 34 64
        E 0 93 34 5a
        E 0 9f 28 5a
        E 0 82 44 64
        E 0 83 34 64
        E 0 84 44 64
        E 0 8f 28 64
        E 0 92 45 64
        E 0 93 39 5a
        E 1 94 45 64
        E 0 9f 2d 5a
        E 0 82 45 64
        E 0 83 39 64
        E 0 84 45 64
        E 0 8f 2d 64
        E 0 92 45 64
        E 0 93 45 5a
        E 0 94 45 64
        E 0 9f 39 5a
        E 0 83 45 64
        E 0 8f 39 64
        E 0 93 47 5a
        E 0 9f 3b 5a
        E 0 83 47 64
        E 0 8f 3b 64
        E 0 93 45 5a
        E 0 9f 39 5a
        E 0 82 45 64
        E 0 83 45 64
        E 0 84 45 64
        E 0 8f 39 64
        E 0 92 43 64
        E 0 93 43 5a
        E 0 94 43 64
        E 0 9f 37 5a
        E 0 82 43 64
        E 0 83 43 64
        E 0 84 43 64
        E 0 8f 37 64
        E 0 92 42 64
        E 0 93 42 5a
        E 0 94 42 64
        E 0 9f 36 5a
        E 0 83 42 64
        E 0 8f 36 64
        E 0 93 43 5a
        E 0 9f 37 5a
        E 0 83 43 64
        E 0 8f 37 64
        E 0 93 42 5a
        E 0 9f 36 5a
        E 0 82 42 64
        E 0 83 42 64
        E 0 84 42 64
        E 0 8f 36 64
        E 0 92 40 64
        E 1 93 40 5a
        E 0 94 40 64
        E 0 9f 34 5a
        E 0 82 40 64
        E 0 83 40 64
        E 0 84 40 64
        E 0 8f 34 64
        E 0 92 3e 64
        E 0 93 3e 5a
        E 0 94 3e 64
        E 0 9f 32 5a
        E 0 83 3e 64
        E 0 8f 32 64
        E 0 93 40 5a
        E 0 9f 34 5a
        E 0 83 40 64
        E 0 8f 34 64
        E 0 93 42 5a
        E 0 9f 36 5a
        E 0 82 3e 64
        E 0 83 42 64
        E 0 84 3e 64
        E 0 8f 36 64
        E 0 92 48 64
        E 0 93 3e 5a
        E 0 94 48 64
        E 0 9f 32 5a
        E 0 82 48 64
        E 0 83 3e 64
        E 0 84 48 64
        E 0 8f 32 64
        E 0 92 47 64
        E 0 93 43 5a
        E 0 94 47 64
        E 0 9f 37 5a
        E 0 82 47 64
        E 0 83 43 64
        E 0 84 47 64
        E 0 8f 37 64
        E 0 92 45 64
        E 0 93 42 5a
        E 0 94 45 64
        E 0 9f 36 5a
        E 0 82 45 64
        E 0 83 42 64
        E 0 84 45 64
        E 0 8f 36 64
        E 0 92 43 64
        E 0 93 43 5a
        E 0 94 43 64
        E 1 9f 37 5a
        E 0 83 43 64
        E 0 8f 37 64
        E 0 93 37 5a
        E 0 9f 2b 5a
        E 0 82 43 64
        E 0 83 37 64
        E 0 84 43 64
        E 0 8f 2b 64
        E 0 92 47 64
        E 0 93 47 5a
        E 0 94 47 64
        E 0 9f 3b 5a
        E 0 83 47 64
        E 0 8f 3b 64
        E 0 93 49 5a
        E 0 9f 3d 5a
        E 0 83 49 64
        E 0 8f 3d 64
        E 0 93 47 5a
        E 0 9f 3b 5a
        E 0 82 47 64
        E 0 83 47 64
        E 0 84 47 64
        E 0 8f 3b 64
        E 0 92 45 64
        E 0 93 45 5a
        E 0 94 45 64
        E 0 9f 39 5a
        E 0 82 45 64
        E 0 83 45 64
        E 0 84 45 64
        E 0 8f 39 64
        E 0 92 44 64
        E 0 93 44 5a
        E 0 94 44 64
        E 0 9f 38 5a
        E 0 83 44 64
        E 0 8f 38 64
        E 0 93 45 5a
        E 0 9f 39 5a
        E 0 83 45 64
        E 0 8f 39 64
        E 0 93 44 5a
        E 1 9f 38 5a
        E 0 82 44 64
        E 0 83 44 64
        E 0 84 44 64
        E 0 8f 38 64
        E 0 92 42 64
        E 0 93 42 5a
        E 0 94 42 64
        E 0 9f 36 5a
        E 0 82 42 64
        E 0 83 42 64
        E 0 84 42 64
        E 0 8f 36 64
        E 0 92 40 64
        E 0 93 40 5a
        E 0 94 40 64
        E 0 9f 34 5a
        E 0 83 40 64
        E 0 8f 34 64
        E 0 93 42 5a
        E 0 9f 36 5a
        E 0 83 42 64
        E 0 8f 36 64
        E 0 93 44 5a
        E 0 9f 38 5a
        E 0 82 40 64
        E 0 83 44 64
        E 0 84 40 64
        E 0 8f 38 64
        E 0 92 4a 64
        E 0 93 40 5a
        E 1 94 4a 64
        E 0 9f 34 5a
        E 0 82 4a 64
        E 0 83 40 64
        E 0 84 4a 64
        E 0 8f 34 64
        E 0 92 49 64
        E 0 93 45 5a
        E 0 94 49 64
        E 0 9f 39 5a
        E 0 82 49 64
        E 0 83 45 64
        E 0 84 49 64
        E 0 8f 39 64
        E 0 92 47 64
        E 0 93 44 5a
        E 0 94 47 64
        E 0 9f 38 5a
        E 0 82 47 64
        E 0 83 44 64
        E 0 84 47 64
        E 0 8f 38 64
        E 0 92 45 64
        E 0 93 45 5a
        E 0 94 45 64
        E 0 9f 39 5a
        E 0 83 45 64
        E 0 8f 39 64
        E 0 93 39 5a
        E 0 9f 2d 5a
        E 0 82 45 64
        E 0 83 39 64
        E 0 84 45 64
        E 0 8f 2d 64
        E 0 92 4a 64
        E 0 93 4a 5a
        E 0 94 4a 64
        E 0 9f 3e 5a
        E 0 82 4a 64
        E 0 83 4a 64
        E 0 84 4a 64
        E 0 8f 3e 64
        E 0 92 49 64
        E 0 93 49 5a
        E 0 94 49 64
        E 0 9f 3d 5a
        E 0 82 49 64
        E 0 83 49 64
        E 0 84 49 64
        E 0 8f 3d 64
        E 0 92 47 64
        E 0 93 47 5a
        E 0 94 47 64
        E 0 9f 3b 5a
        E 0 82 47 64
        E 0 83 47 64
        E 0 84 47 64
        E 0 8f 3b 64
        E 0 92 45 64
        E 0 93 45 5a
        E 0 94 45 64
        E 0 9f 39 5a
        E 0 82 45 64
        E 1 83 45 64
        E 0 84 45 64
        E 0 8f 39 64
        E 0 92 43 64
        E 0 93 43 5a
        E 0 94 43 64
        E 0 9f 37 5a
        E 0 82 43 64
        E 0 83 43 64
        E 0 84 43 64
        E 0 8f 37 64
        E 0 92 42 64
        E 0 93 42 5a
        E 0 94 42 64
        E 0 9f 36 5a
        E 0 82 42 64
        E 0 83 42 64
        E 0 84 42 64
        E 0 8f 36 64
        E 0 92 40 64
        E 0 93 40 5a
        E 0 94 40 64
        E 0 9f 34 5a
        E 0 82 40 64
        E 0 83 40 64
        E 0 84 40 64
        E 0 8f 34 64
        E 0 92 3e 64
        E 0 93 3e 5a
        E 0 94 3e 64
        E 0 9f 32 5a
        E 0 82 3e 64
        E 0 83 3e 64
        E 0 84 3e 64
        E 0 8f 32 64
        E 0 92 45 64
        E 0 93 45 5a
        E 0 94 45 64
        E 0 9f 39 5a
        E 38403 82 45 64
        E 0 83 45 64
        E 0 84 45 64
        E 0 8f 39 64
        E 0 92 45 64
        E 0 93 39 5a
        E 0 94 45 64
        E 0 9f 2d 5a
        E 0 82 45 64
        E 0 83 39 64
        E 0 84 45 64
        E 0 8f 2d 64
        E 0 92 3e 64
        E 0 93 3e 5a
        E 0 94 3e 64
        E 0 9f 32 5a
        E 0 82 3e 64
        E 0 83 3e 64
        E 0 84 3e 64
        E 0 8f 32 64
        E 38481 b0 7b 00
        E 0 b1 7b 00
        E 0 b2 7b 00
        E 0 b3 7b 00
        E 0 b4 7b 00
        E 0 b5 7b 00
        E 0 b6 7b 00
        E 0 b7 7b 00
        E 0 b8 7b 00
        E 0 b9 7b 00
        E 0 ba 7b 00
        E 0 bb 7b 00
        E 0 bc 7b 00
        E 0 bd 7b 00
        E 0 be 7b 00
        E 0 bf 7b 00
        E 0 8d 46 00
        E 76994 b0 79 00
        E 0 b1 79 00
        E 0 b2 79 00
        E 0 b3 79 00
        E 0 b4 79 00
        E 0 b5 79 00
        E 0 b6 79 00
        E 0 b7 79 00
        E 0 b8 79 00
        E 0 b9 79 00
        E 0 ba 79 00
        E 0 bb 79 00
        E 0 bc 79 00
        E 0 bd 79 00
        E 0 be 79 00
        E 0 bf 79 00
        E 6564567 b0 7b 00
        CCINTERP 32
        CHASE_CC_TAKEOFFS 1
        GUID {2B172038-414A-4D47-AA57-5CECDD57B8E0}
        IGNTEMPO 0 120 4 4
        SRCCOLOR 36
      >
    >
  >
>
