<REAPER_PROJECT 0.1 "6.23/win64" 1641652881
  RIPPLE 0
  GROUPOVERRIDE 0 0 0
  AUTOXFADE 1
  ENVATTACH 1
  POOLEDENVATTACH 0
  MIXERUIFLAGS 11 48
  PEAKGAIN 1
  FEEDBACK 0
  PANLAW 1
  PROJOFFS 0 0 0
  MAXPROJLEN 0 600
  GRID 3454 8 1 8 1 0 0 0
  TIMEMODE 1 5 -1 30 0 0 -1
  VIDEO_CONFIG 0 0 256
  PANMODE 3
  CURSOR 66.69990912192924
  ZOOM 77.82619299391715 5147 0
  VZOOMEX 13 0
  USE_REC_CFG 0
  RECMODE 1
  SMPTESYNC 0 30 100 40 1000 300 0 0 1 0 0
  LOOP 1
  LOOPGRAN 0 4
  RECORD_PATH "" ""
  <RECORD_CFG
  >
  <APPLYFX_CFG
  >
  RENDER_FILE ""
  RENDER_PATTERN ""
  RENDER_FMT 0 2 0
  RENDER_1X 0
  RENDER_RANGE 1 0 0 18 1000
  RENDER_RESAMPLE 3 0 1
  RENDER_ADDTOPROJ 0
  RENDER_STEMS 0
  RENDER_DITHER 0
  TIMELOCKMODE 1
  TEMPOENVLOCKMODE 1
  ITEMMIX 0
  DEFPITCHMODE 589824 0
  TAKELANE 1
  SAMPLERATE 44100 0 0
  <RENDER_CFG
  >
  LOCK 1
  <METRONOME 6 2
    VOL 0.25 0.125
    FREQ 800 1600 1
    BEATLEN 4
    SAMPLES "" ""
    PATTERN 2863311530 2863311529
  >
  GLOBAL_AUTO -1
  TEMPO 120 4 4
  PLAYRATE 1 0 0.25 4
  SELECTION 0.83594748418566 557.85562111323372
  SELECTION2 0.83594748418566 557.85562111323372
  MASTERAUTOMODE 0
  MASTERTRACKHEIGHT 0 0
  MASTERPEAKCOL 16576
  MASTERMUTESOLO 0
  MASTERTRACKVIEW 0 0.6667 0.5 0.5 0 -1 0 0 0 0 -1 -1 0
  MASTERHWOUT 0 0 1 0 0 0 0 -1
  MASTER_NCH 2 2
  MASTER_VOLUME 1 0 -1 -1 1
  MASTER_FX 1
  MASTER_SEL 0
  <MASTERPLAYSPEEDENV
    EGUID {2F0F104C-E300-5741-99CF-0C4FE5D9201D}
    ACT 0 -1
    VIS 0 1 1
    LANEHEIGHT 0 0
    ARM 0
    DEFSHAPE 0 -1 -1
  >
  <TEMPOENVEX
    EGUID {05F32435-1916-3C4B-9442-EFD71838E7C6}
    ACT 0 -1
    VIS 1 0 1
    LANEHEIGHT 0 0
    ARM 0
    DEFSHAPE 1 -1 -1
  >
  MARKER 5 97.32136330334116 "" 0 0 1 R {158E77CA-A8F2-41DC-89AE-C27C1C3B83EE}
  MARKER 1 151.74240362812495 "" 0 0 1 R {C17FDC62-1E7E-4799-9541-0530249450AB}
  MARKER 2 360.65233560103019 "" 0 0 1 R {478C95F1-D318-4C35-8184-66EA4B033D38}
  MARKER 3 489.68562358296134 "" 0 0 1 R {51DCDB74-2333-41CF-924F-B6B69AD4A8FC}
  MARKER 4 516.50467120202381 "" 0 0 1 R {55DF53E1-45D2-49D8-8A5E-6F28D82DADAB}
  <PROJBAY
  >
  <TRACK {D3E6D297-5C5D-4858-B8C6-465E6DB68F8D}
    NAME ""
    PEAKCOL 16576
    BEAT -1
    AUTOMODE 0
    VOLPAN 1 0 -1 -1 1
    MUTESOLO 1 0 0
    IPHASE 0
    PLAYOFFS 0 1
    ISBUS 0 0
    BUSCOMP 0 0 0 0 0
    SHOWINMIX 1 0.6667 0.5 1 0.5 0 -1 0
    FREEMODE 0
    SEL 0
    REC 0 4096 1 0 0 0 0
    VU 2
    TRACKHEIGHT 0 0 0 0 0 0
    INQ 0 0 0 0.5 100 0 0 100
    NCHAN 2
    FX 1
    TRACKID {D3E6D297-5C5D-4858-B8C6-465E6DB68F8D}
    PERF 0
    MIDIOUT 32
    MAINSEND 1 0
    <ITEM
      POSITION 0
      SNAPOFFS 0
      LENGTH 147.03442924979521
      LOOP 1
      ALLTAKES 0
      FADEIN 1 0 0 1 0 0 0
      FADEOUT 1 0 0 1 0 0 0
      MUTE 0 0
      SEL 0
      IGUID {22362F89-3766-430B-A9EC-0C8465E1B44D}
      IID 2
      NAME "01-Recorded MIDI"
      VOLPAN 1 0 1 -1
      SOFFS 0 0
      PLAYRATE 1 1 0 -1 0 0.0025
      CHANMODE 0
      GUID {931D6310-3038-43F4-905A-B9496CCF90B3}
      RECPASS 2
      <SOURCE MIDI
        HASDATA 1 960 QN
        CCINTERP 32
        POOLEDEVTS {592B62BB-BE0B-4BD0-BB39-18A70D53A35F}
        E 5210 94 3e 64
        E 1 95 3e 64
        E 5 98 3e 64
        E 3 9f 3e 64
        E 1 9a 3e 64
        E 5 9e 32 64
        E 456 84 3e 64
        E 1 85 3e 64
        E 1 88 3e 64
        E 1 8f 3e 64
        E 0 8a 3e 64
        E 1 8e 32 64
        E 1 94 4a 64
        E 1 95 4a 64
        E 1 98 4a 64
        E 0 9f 4a 64
        E 1 9a 4a 64
        E 2 9e 3e 64
        E 471 84 4a 64
        E 1 85 4a 64
        E 0 88 4a 64
        E 1 8f 4a 64
        E 1 8a 4a 64
        E 0 8e 3e 64
        E 1 94 3e 64
        E 0 95 3e 64
        E 1 98 3e 64
        E 1 9f 3e 64
        E 0 9a 3e 64
        E 1 9e 32 64
        E 471 84 3e 64
        E 1 85 3e 64
        E 1 88 3e 64
        E 0 8f 3e 64
        E 1 8a 3e 64
        E 1 8e 32 64
        E 1 94 3e 64
        E 0 95 3e 64
        E 1 98 3e 64
        E 1 9f 3e 64
        E 0 9a 3e 64
        E 1 9e 32 64
        E 472 84 3e 64
        E 0 85 3e 64
        E 1 88 3e 64
        E 0 8f 3e 64
        E 0 8a 3e 64
        E 1 8e 32 64
        E 0 94 3e 64
        E 1 95 3e 64
        E 0 98 3e 64
        E 0 9f 3e 64
        E 0 9a 3e 64
        E 0 9e 32 64
        E 479 84 3e 64
        E 1 85 3e 64
        E 1 88 3e 64
        E 0 8f 3e 64
        E 1 8a 3e 64
        E 1 8e 32 64
        E 0 94 4a 64
        E 1 95 4a 64
        E 1 98 4a 64
        E 1 9f 4a 64
        E 0 9a 4a 64
        E 1 9e 3e 64
        E 474 84 4a 64
        E 1 85 4a 64
        E 0 88 4a 64
        E 1 8f 4a 64
        E 1 8a 4a 64
        E 0 8e 3e 64
        E 1 94 3e 64
        E 1 95 3e 64
        E 0 98 3e 64
        E 1 9f 3e 64
        E 1 9a 3e 64
        E 1 9e 32 64
        E 470 84 3e 64
        E 1 85 3e 64
        E 1 88 3e 64
        E 0 8f 3e 64
        E 1 8a 3e 64
        E 0 8e 32 64
        E 1 94 3e 64
        E 0 95 3e 64
        E 1 98 3e 64
        E 0 9f 3e 64
        E 1 9a 3e 64
        E 0 9e 32 64
        E 473 84 3e 64
        E 1 85 3e 64
        E 1 88 3e 64
        E 0 8f 3e 64
        E 2 8a 3e 64
        E 1 8e 32 64
        E 0 94 3e 64
        E 1 95 3e 64
        E 1 98 3e 64
        E 0 9f 3e 64
        E 1 9a 3e 64
        E 1 9e 32 64
        E 474 85 3e 64
        E 1 88 3e 64
        E 0 8f 3e 64
        E 1 8a 3e 64
        E 0 8e 32 64
        E 1 95 42 64
        E 1 98 42 64
        E 0 9f 42 64
        E 1 9a 3e 64
        E 1 9e 32 64
        E 229 85 42 64
        E 1 88 42 64
        E 0 8f 42 64
        E 1 8a 3e 64
        E 0 8e 32 64
        E 0 95 43 64
        E 1 98 43 64
        E 0 9f 43 64
        E 0 9a 40 64
        E 0 9e 34 64
        E 239 84 3e 64
        E 0 85 43 64
        E 1 88 43 64
        E 0 8f 43 64
        E 0 8a 40 64
        E 0 8e 34 64
        E 1 95 45 64
        E 0 98 45 64
        E 0 9f 45 64
        E 0 9a 42 64
        E 0 9e 36 64
        E 480 85 45 64
        E 0 88 45 64
        E 1 8f 45 64
        E 1 8a 42 64
        E 0 8e 36 64
        E 1 95 43 64
        E 1 98 43 64
        E 1 9f 43 64
        E 0 9a 40 64
        E 1 9e 34 64
        E 472 85 43 64
        E 0 88 43 64
        E 1 8f 43 64
        E 0 8a 40 64
        E 0 8e 34 64
        E 1 95 42 64
        E 0 98 42 64
        E 0 9f 42 64
        E 0 9a 3e 64
        E 0 9e 32 64
        E 478 85 42 64
        E 0 88 42 64
        E 0 8f 42 64
        E 0 8a 3e 64
        E 0 8e 32 64
        E 0 95 42 64
        E 0 98 42 64
        E 0 9f 42 64
        E 0 9a 3e 64
        E 1 9e 32 64
        E 240 85 42 64
        E 0 88 42 64
        E 1 8f 42 64
        E 0 8a 3e 64
        E 0 8e 32 64
        E 0 95 43 64
        E 1 98 43 64
        E 0 9f 43 64
        E 0 9a 40 64
        E 0 9e 34 64
        E 237 85 43 64
        E 0 88 43 64
        E 0 8f 43 64
        E 0 8a 40 64
        E 1 8e 34 64
        E 0 95 45 64
        E 0 98 45 64
        E 0 9f 45 64
        E 0 9a 42 64
        E 0 9e 36 64
        E 478 85 45 64
        E 1 88 45 64
        E 0 8f 45 64
        E 1 8a 42 64
        E 1 8e 36 64
        E 0 95 43 64
        E 1 98 43 64
        E 1 9f 43 64
        E 0 9a 40 64
        E 1 9e 34 64
        E 475 85 43 64
        E 1 88 43 64
        E 3 8f 43 64
        E 1 8a 40 64
        E 1 8e 34 64
        E 1 94 3e 64
        E 0 95 42 64
        E 1 98 42 64
        E 1 9f 42 64
        E 0 9a 3e 64
        E 1 9e 32 64
        E 473 84 3e 64
        E 1 85 42 64
        E 0 88 42 64
        E 1 8f 42 64
        E 1 8a 3e 64
        E 0 8e 32 64
        E 1 94 4a 64
        E 0 95 4a 64
        E 1 98 4a 64
        E 1 9f 4a 64
        E 0 9a 4a 64
        E 1 9e 3e 64
        E 470 84 4a 64
        E 1 85 4a 64
        E 1 88 4a 64
        E 0 8f 4a 64
        E 1 8a 4a 64
        E 0 8e 3e 64
        E 1 94 3e 64
        E 0 95 3e 64
        E 1 98 3e 64
        E 1 9f 3e 64
        E 0 9a 3e 64
        E 1 9e 32 64
        E 473 84 3e 64
        E 0 85 3e 64
        E 1 88 3e 64
        E 0 8f 3e 64
        E 0 8a 3e 64
        E 1 8e 32 64
        E 0 94 3e 64
        E 0 95 3e 64
        E 1 98 3e 64
        E 0 9f 3e 64
        E 1 9a 3e 64
        E 0 9e 32 64
        E 476 84 3e 64
        E 1 85 3e 64
        E 0 88 3e 64
        E 1 8f 3e 64
        E 1 8a 3e 64
        E 1 8e 32 64
        E 1 94 3e 64
        E 0 95 3e 64
        E 1 98 3e 64
        E 0 9f 3e 64
        E 1 9a 3e 64
        E 0 9e 32 64
        E 474 84 3e 64
        E 0 85 3e 64
        E 1 88 3e 64
        E 1 8f 3e 64
        E 1 8a 3e 64
        E 0 8e 32 64
        E 1 94 4a 64
        E 1 95 4a 64
        E 0 98 4a 64
        E 1 9f 4a 64
        E 1 9a 4a 64
        E 0 9e 3e 64
        E 473 84 4a 64
        E 1 85 4a 64
        E 1 88 4a 64
        E 1 8f 4a 64
        E 0 8a 4a 64
        E 1 8e 3e 64
        E 1 94 3e 64
        E 0 95 3e 64
        E 1 98 3e 64
        E 1 9f 3e 64
        E 0 9a 3e 64
        E 1 9e 32 64
        E 471 84 3e 64
        E 0 85 3e 64
        E 2 88 3e 64
        E 1 8f 3e 64
        E 1 8a 3e 64
        E 0 8e 32 64
        E 1 94 3e 64
        E 1 95 3e 64
        E 1 98 3e 64
        E 1 9f 3e 64
        E 1 9a 3e 64
        E 1 9e 32 64
        E 470 84 3e 64
        E 1 85 3e 64
        E 0 88 3e 64
        E 1 8f 3e 64
        E 0 8a 3e 64
        E 1 8e 32 64
        E 1 94 3e 64
        E 0 95 3e 64
        E 1 98 3e 64
        E 1 9f 3e 64
        E 0 9a 3e 64
        E 1 9e 32 64
        E 473 88 3e 64
        E 0 8f 3e 64
        E 1 98 4e 64
        E 1 9f 4a 64
        E 236 88 4e 64
        E 1 8f 4a 64
        E 0 98 4f 64
        E 0 9f 4c 64
        E 241 84 3e 64
        E 0 85 3e 64
        E 0 88 4f 64
        E 1 8f 4c 64
        E 0 8a 3e 64
        E 0 8e 32 64
        E 0 98 51 64
        E 0 9f 4e 64
        E 241 88 51 64
        E 0 8f 4e 64
        E 0 98 4f 64
        E 1 9f 4c 64
        E 237 88 4f 64
        E 0 8f 4c 64
        E 1 98 51 64
        E 0 9f 4e 64
        E 239 88 51 64
        E 1 8f 4e 64
        E 0 98 4f 64
        E 0 9f 4c 64
        E 237 88 4f 64
        E 0 8f 4c 64
        E 0 98 4e 64
        E 1 9f 4a 64
        E 480 88 4e 64
        E 1 8f 4a 64
        E 0 98 4e 64
        E 0 9f 4a 64
        E 240 88 4e 64
        E 1 8f 4a 64
        E 0 98 4f 64
        E 1 9f 4c 64
        E 238 88 4f 64
        E 0 8f 4c 64
        E 1 98 51 64
        E 0 9f 4e 64
        E 241 88 51 64
        E 0 8f 4e 64
        E 0 98 4f 64
        E 1 9f 4c 64
        E 238 88 4f 64
        E 0 8f 4c 64
        E 1 98 51 64
        E 0 9f 4e 64
        E 237 88 51 64
        E 0 8f 4e 64
        E 0 98 4f 64
        E 0 9f 4c 64
        E 240 88 4f 64
        E 1 8f 4c 64
        E 1 94 3e 64
        E 0 95 3e 64
        E 1 98 4e 64
        E 0 9f 4a 64
        E 1 9a 3e 64
        E 1 9e 32 64
        E 478 84 3e 64
        E 0 85 3e 64
        E 1 88 4e 64
        E 1 8f 4a 64
        E 0 8a 3e 64
        E 1 8e 32 64
        E 0 94 4a 64
        E 1 95 4a 64
        E 0 98 4a 64
        E 0 9f 4a 64
        E 0 9a 4a 64
        E 1 9e 3e 64
        E 475 84 4a 64
        E 1 85 4a 64
        E 0 88 4a 64
        E 1 8f 4a 64
        E 0 8a 4a 64
        E 1 8e 3e 64
        E 0 94 3e 64
        E 0 95 3e 64
        E 1 98 3e 64
        E 1 9f 3e 64
        E 0 9a 3e 64
        E 1 9e 32 64
        E 476 84 3e 64
        E 0 85 3e 64
        E 1 88 3e 64
        E 1 8f 3e 64
        E 1 8a 3e 64
        E 1 8e 32 64
        E 1 94 3e 64
        E 1 95 3e 64
        E 1 98 3e 64
        E 1 9f 3e 64
        E 1 9a 3e 64
        E 1 9e 32 64
        E 468 84 3e 64
        E 0 85 3e 64
        E 1 88 3e 64
        E 0 8f 3e 64
        E 0 8a 3e 64
        E 0 8e 32 64
        E 1 94 3e 64
        E 0 95 3e 64
        E 0 98 3e 64
        E 0 9f 3e 64
        E 1 9a 3e 64
        E 0 9e 32 64
        E 477 84 3e 64
        E 1 85 3e 64
        E 1 88 3e 64
        E 1 8f 3e 64
        E 0 8a 3e 64
        E 1 8e 32 64
        E 1 94 4a 64
        E 0 95 4a 64
        E 1 98 4a 64
        E 1 9f 4a 64
        E 1 9a 4a 64
        E 0 9e 3e 64
        E 471 84 4a 64
        E 0 85 4a 64
        E 1 88 4a 64
        E 0 8f 4a 64
        E 1 8a 4a 64
        E 1 8e 3e 64
        E 0 94 3e 64
        E 1 95 3e 64
        E 0 98 3e 64
        E 1 9f 3e 64
        E 1 9a 3e 64
        E 3 9e 32 64
        E 471 84 3e 64
        E 1 85 3e 64
        E 1 88 3e 64
        E 0 8f 3e 64
        E 1 8a 3e 64
        E 0 8e 32 64
        E 1 94 3e 64
        E 0 95 3e 64
        E 1 98 3e 64
        E 1 9f 3e 64
        E 0 9a 3e 64
        E 1 9e 32 64
        E 473 84 3e 64
        E 0 85 3e 64
        E 1 88 3e 64
        E 1 8f 3e 64
        E 0 8a 3e 64
        E 0 8e 32 64
        E 1 94 3e 64
        E 0 95 3e 64
        E 1 98 3e 64
        E 0 9f 3e 64
        E 0 9a 3e 64
        E 1 9e 32 64
        E 475 84 3e 64
        E 1 85 3e 64
        E 0 94 4e 64
        E 1 95 4a 64
        E 236 84 4e 64
        E 0 85 4a 64
        E 1 94 4f 64
        E 0 95 4c 64
        E 239 84 4f 64
        E 1 85 4c 64
        E 0 88 3e 64
        E 0 8f 3e 64
        E 1 8a 3e 64
        E 0 8e 32 64
        E 0 94 51 64
        E 0 95 4e 64
        E 238 84 51 64
        E 0 85 4e 64
        E 1 94 4f 64
        E 0 95 4c 64
        E 240 84 4f 64
        E 0 85 4c 64
        E 1 94 51 64
        E 0 95 4e 64
        E 242 84 51 64
        E 0 85 4e 64
        E 1 94 4f 64
        E 0 95 4c 64
        E 237 84 4f 64
        E 0 85 4c 64
        E 0 94 4e 64
        E 1 95 4a 64
        E 478 84 4e 64
        E 0 85 4a 64
        E 0 94 4e 64
        E 1 95 4a 64
        E 241 84 4e 64
        E 0 85 4a 64
        E 0 94 4f 64
        E 0 95 4c 64
        E 239 84 4f 64
        E 0 85 4c 64
        E 1 94 51 64
        E 0 95 4e 64
        E 239 84 51 64
        E 0 85 4e 64
        E 0 94 4f 64
        E 0 95 4c 64
        E 240 84 4f 64
        E 1 85 4c 64
        E 0 94 51 64
        E 0 95 4e 64
        E 239 84 51 64
        E 0 85 4e 64
        E 0 94 4f 64
        E 0 95 4c 64
        E 239 84 4f 64
        E 0 85 4c 64
        E 1 94 4e 64
        E 0 95 4a 64
        E 1 98 3e 64
        E 0 9f 3e 64
        E 1 9a 3e 64
        E 0 9e 32 64
        E 475 84 4e 64
        E 1 85 4a 64
        E 0 88 3e 64
        E 1 8f 3e 64
        E 1 8a 3e 64
        E 1 8e 32 64
        E 1 94 4a 64
        E 0 95 4a 64
        E 1 98 4a 64
        E 0 9f 4a 64
        E 1 9a 4a 64
        E 1 9e 3e 64
        E 475 84 4a 64
        E 0 85 4a 64
        E 1 88 4a 64
        E 1 8f 4a 64
        E 0 8a 4a 64
        E 1 8e 3e 64
        E 1 94 3e 64
        E 0 95 3e 64
        E 1 98 3e 64
        E 1 9f 3e 64
        E 1 9a 3e 64
        E 0 9e 32 64
        E 474 84 3e 64
        E 1 85 3e 64
        E 1 88 3e 64
        E 0 8f 3e 64
        E 1 8a 3e 64
        E 1 8e 32 64
        E 1 94 3e 64
        E 1 95 3e 64
        E 0 98 3e 64
        E 0 9f 3e 64
        E 1 9a 3e 64
        E 1 9e 32 64
        E 471 84 3e 64
        E 1 85 3e 64
        E 1 88 3e 64
        E 0 8f 3e 64
        E 1 8a 3e 64
        E 0 8e 32 64
        E 1 94 3e 64
        E 0 95 3e 64
        E 1 98 3e 64
        E 1 9f 3e 64
        E 0 9a 3e 64
        E 1 9e 32 64
        E 472 84 3e 64
        E 1 85 3e 64
        E 0 88 3e 64
        E 1 8f 3e 64
        E 1 8a 3e 64
        E 1 8e 32 64
        E 1 94 4a 64
        E 1 95 4a 64
        E 0 98 4a 64
        E 1 9f 4a 64
        E 0 9a 4a 64
        E 2 9e 3e 64
        E 472 84 4a 64
        E 1 85 4a 64
        E 0 88 4a 64
        E 1 8f 4a 64
        E 0 8a 4a 64
        E 0 8e 3e 64
        E 1 94 3e 64
        E 0 95 3e 64
        E 1 98 3e 64
        E 0 9f 3e 64
        E 1 9a 3e 64
        E 0 9e 32 64
        E 477 84 3e 64
        E 0 85 3e 64
        E 1 88 3e 64
        E 1 8f 3e 64
        E 0 8a 3e 64
        E 0 8e 32 64
        E 1 94 3e 64
        E 0 95 3e 64
        E 1 98 3e 64
        E 0 9f 3e 64
        E 1 9a 3e 64
        E 0 9e 32 64
        E 474 84 3e 64
        E 1 85 3e 64
        E 0 88 3e 64
        E 1 8f 3e 64
        E 0 8a 3e 64
        E 1 8e 32 64
        E 0 94 3e 64
        E 0 95 3e 64
        E 0 98 3e 64
        E 0 9f 3e 64
        E 1 9a 3e 64
        E 0 9e 32 64
        E 474 88 3e 64
        E 1 8f 3e 64
        E 1 8a 3e 64
        E 1 8e 32 64
        E 0 98 4e 64
        E 1 9f 4a 64
        E 0 9a 45 64
        E 1 9e 3e 64
        E 235 88 4e 64
        E 0 8f 4a 64
        E 1 98 4f 64
        E 0 9f 4c 64
        E 237 84 3e 64
        E 0 85 3e 64
        E 0 88 4f 64
        E 1 8f 4c 64
        E 0 8a 45 64
        E 1 8e 3e 64
        E 0 98 51 64
        E 0 9f 4e 64
        E 1 9a 45 64
        E 0 9e 32 64
        E 238 88 51 64
        E 0 8f 4e 64
        E 0 98 4f 64
        E 0 9f 4c 64
        E 240 88 4f 64
        E 0 8f 4c 64
        E 1 8a 45 64
        E 0 8e 32 64
        E 0 94 51 64
        E 1 95 4e 64
        E 0 98 51 64
        E 1 9f 4e 64
        E 0 9a 45 64
        E 0 9e 32 64
        E 238 88 51 64
        E 0 8f 4e 64
        E 0 98 4e 64
        E 1 9f 4a 64
        E 238 84 51 64
        E 0 85 4e 64
        E 0 88 4e 64
        E 1 8f 4a 64
        E 0 8a 45 64
        E 1 8e 32 64
        E 0 94 53 64
        E 0 95 4e 64
        E 1 98 53 64
        E 0 9f 4e 64
        E 0 9a 42 64
        E 0 9e 32 64
        E 236 88 53 64
        E 0 8f 4e 64
        E 0 98 4e 64
        E 1 9f 4a 64
        E 240 84 53 64
        E 0 85 4e 64
        E 1 88 4e 64
        E 0 8f 4a 64
        E 0 8a 42 64
        E 1 8e 32 64
        E 0 94 53 64
        E 0 95 4e 64
        E 1 98 53 64
        E 0 9f 4e 64
        E 0 9a 42 64
        E 0 9e 3e 64
        E 238 88 53 64
        E 0 8f 4e 64
        E 0 98 4e 64
        E 1 9f 4a 64
        E 239 84 53 64
        E 0 85 4e 64
        E 0 88 4e 64
        E 0 8f 4a 64
        E 0 8a 42 64
        E 0 8e 3e 64
        E 1 94 53 64
        E 0 95 4e 64
        E 0 98 53 64
        E 1 9f 4e 64
        E 0 9a 42 64
        E 1 9e 32 64
        E 240 88 53 64
        E 0 8f 4e 64
        E 0 98 4e 64
        E 0 9f 4a 64
        E 236 84 53 64
        E 0 85 4e 64
        E 1 88 4e 64
        E 0 8f 4a 64
        E 2 8a 42 64
        E 0 8e 32 64
        E 1 94 53 64
        E 0 95 4e 64
        E 1 98 53 64
        E 0 9f 4e 64
        E 0 9a 42 64
        E 1 9e 32 64
        E 235 88 53 64
        E 0 8f 4e 64
        E 1 98 4e 64
        E 0 9f 4a 64
        E 241 84 53 64
        E 1 85 4e 64
        E 0 88 4e 64
        E 0 8f 4a 64
        E 1 8a 42 64
        E 0 8e 32 64
        E 0 94 53 64
        E 1 95 4f 64
        E 0 98 53 64
        E 1 9f 4f 64
        E 0 9a 40 64
        E 0 9e 31 64
        E 234 88 53 64
        E 0 8f 4f 64
        E 1 98 4f 64
        E 0 9f 4c 64
        E 239 84 53 64
        E 1 85 4f 64
        E 0 88 4f 64
        E 0 8f 4c 64
        E 1 8a 40 64
        E 0 8e 31 64
        E 1 94 53 64
        E 0 95 4f 64
        E 1 98 53 64
        E 0 9f 4f 64
        E 0 9a 40 64
        E 0 9e 3d 64
        E 234 88 53 64
        E 0 8f 4f 64
        E 1 98 4f 64
        E 1 9f 4c 64
        E 240 84 53 64
        E 0 85 4f 64
        E 0 88 4f 64
        E 1 8f 4c 64
        E 0 8a 40 64
        E 0 8e 3d 64
        E 0 94 53 64
        E 1 95 4f 64
        E 0 98 53 64
        E 0 9f 4f 64
        E 1 9a 40 64
        E 0 9e 31 64
        E 237 88 53 64
        E 0 8f 4f 64
        E 0 98 4f 64
        E 0 9f 4c 64
        E 239 84 53 64
        E 1 85 4f 64
        E 0 88 4f 64
        E 1 8f 4c 64
        E 0 8a 40 64
        E 1 8e 31 64
        E 0 94 53 64
        E 0 95 4f 64
        E 1 98 53 64
        E 0 9f 4f 64
        E 1 9a 40 64
        E 0 9e 31 64
        E 235 88 53 64
        E 0 8f 4f 64
        E 1 98 4f 64
        E 0 9f 4c 64
        E 240 84 53 64
        E 0 85 4f 64
        E 0 88 4f 64
        E 0 8f 4c 64
        E 0 8a 40 64
        E 0 8e 31 64
        E 1 94 51 64
        E 0 95 4c 64
        E 1 98 51 64
        E 0 9f 4c 64
        E 0 9a 45 64
        E 0 9e 31 64
        E 240 88 51 64
        E 1 8f 4c 64
        E 0 98 4c 64
        E 1 9f 49 64
        E 236 84 51 64
        E 0 85 4c 64
        E 1 88 4c 64
        E 1 8f 49 64
        E 1 8a 45 64
        E 1 8e 31 64
        E 0 94 51 64
        E 1 95 4c 64
        E 1 98 51 64
        E 1 9f 4c 64
        E 0 9a 45 64
        E 1 9e 3d 64
        E 231 88 51 64
        E 0 8f 4c 64
        E 0 98 4c 64
        E 1 9f 49 64
        E 240 84 51 64
        E 1 85 4c 64
        E 0 88 4c 64
        E 0 8f 49 64
        E 1 8a 45 64
        E 0 8e 3d 64
        E 0 94 51 64
        E 0 95 4c 64
        E 1 98 51 64
        E 0 9f 4c 64
        E 0 9a 45 64
        E 0 9e 31 64
        E 236 88 51 64
        E 0 8f 4c 64
        E 0 98 4c 64
        E 0 9f 49 64
        E 242 84 51 64
        E 0 85 4c 64
        E 1 88 4c 64
        E 0 8f 49 64
        E 1 8a 45 64
        E 0 8e 31 64
        E 0 94 51 64
        E 1 95 4c 64
        E 0 98 51 64
        E 1 9f 4c 64
        E 0 9a 45 64
        E 0 9e 31 64
        E 236 88 51 64
        E 0 8f 4c 64
        E 0 98 4c 64
        E 1 9f 49 64
        E 238 84 51 64
        E 0 85 4c 64
        E 1 88 4c 64
        E 0 8f 49 64
        E 0 8a 45 64
        E 0 8e 31 64
        E 1 94 51 64
        E 0 95 4e 64
        E 1 98 51 64
        E 0 9f 4e 64
        E 0 9a 3e 64
        E 0 9e 2f 64
        E 237 88 51 64
        E 0 8f 4e 64
        E 0 98 4e 64
        E 1 9f 4a 64
        E 239 84 51 64
        E 0 85 4e 64
        E 0 88 4e 64
        E 1 8f 4a 64
        E 0 8a 3e 64
        E 0 8e 2f 64
        E 1 94 51 64
        E 0 95 4e 64
        E 0 98 51 64
        E 0 9f 4e 64
        E 0 9a 3e 64
        E 0 9e 3b 64
        E 239 88 51 64
        E 0 8f 4e 64
        E 1 98 4e 64
        E 1 9f 4a 64
        E 238 84 51 64
        E 0 85 4e 64
        E 0 88 4e 64
        E 1 8f 4a 64
        E 0 8a 3e 64
        E 0 8e 3b 64
        E 0 94 51 64
        E 0 95 4e 64
        E 1 98 51 64
        E 0 9f 4e 64
        E 0 9a 3e 64
        E 0 9e 2f 64
        E 234 88 51 64
        E 0 8f 4e 64
        E 1 98 4e 64
        E 0 9f 4a 64
        E 241 84 51 64
        E 0 85 4e 64
        E 0 88 4e 64
        E 0 8f 4a 64
        E 1 8a 3e 64
        E 0 8e 2f 64
        E 1 94 51 64
        E 0 95 4e 64
        E 1 98 51 64
        E 0 9f 4e 64
        E 0 9a 3e 64
        E 0 9e 2f 64
        E 240 88 51 64
        E 0 8f 4e 64
        E 0 98 4e 64
        E 0 9f 4a 64
        E 238 84 51 64
        E 0 85 4e 64
        E 1 88 4e 64
        E 0 8f 4a 64
        E 0 8a 3e 64
        E 3 8e 2f 64
        E 0 94 4f 64
        E 0 95 4a 64
        E 0 98 4f 64
        E 1 9f 4a 64
        E 0 9a 43 64
        E 0 9e 2f 64
        E 236 88 4f 64
        E 0 8f 4a 64
        E 1 98 4a 64
        E 0 9f 47 64
        E 238 84 4f 64
        E 0 85 4a 64
        E 0 88 4a 64
        E 0 8f 47 64
        E 1 8a 43 64
        E 1 8e 2f 64
        E 0 94 4f 64
        E 0 95 4a 64
        E 1 98 4f 64
        E 0 9f 4a 64
        E 1 9a 43 64
        E 0 9e 3b 64
        E 237 88 4f 64
        E 0 8f 4a 64
        E 0 98 4a 64
        E 1 9f 47 64
        E 240 84 4f 64
        E 0 85 4a 64
        E 1 88 4a 64
        E 0 8f 47 64
        E 1 8a 43 64
        E 0 8e 3b 64
        E 0 94 4f 64
        E 1 95 4a 64
        E 0 98 4f 64
        E 0 9f 4a 64
        E 0 9a 43 64
        E 0 9e 2f 64
        E 235 88 4f 64
        E 0 8f 4a 64
        E 1 98 4a 64
        E 0 9f 47 64
        E 241 84 4f 64
        E 0 85 4a 64
        E 0 88 4a 64
        E 1 8f 47 64
        E 0 8a 43 64
        E 1 8e 2f 64
        E 0 94 4f 64
        E 0 95 4a 64
        E 1 98 4f 64
        E 0 9f 4a 64
        E 0 9a 43 64
        E 1 9e 2f 64
        E 235 88 4f 64
        E 0 8f 4a 64
        E 1 98 4a 64
        E 0 9f 47 64
        E 239 84 4f 64
        E 1 85 4a 64
        E 0 88 4a 64
        E 1 8f 47 64
        E 0 8a 43 64
        E 1 8e 2f 64
        E 0 94 4f 64
        E 0 95 4c 64
        E 1 98 4f 64
        E 0 9f 4c 64
        E 1 9a 3d 64
        E 0 9e 2d 64
        E 232 88 4f 64
        E 0 8f 4c 64
        E 0 98 4c 64
        E 1 9f 49 64
        E 241 84 4f 64
        E 0 85 4c 64
        E 1 88 4c 64
        E 0 8f 49 64
        E 0 8a 3d 64
        E 1 8e 2d 64
        E 0 94 4f 64
        E 1 95 4c 64
        E 0 98 4f 64
        E 0 9f 4c 64
        E 0 9a 3d 64
        E 1 9e 39 64
        E 238 88 4f 64
        E 0 8f 4c 64
        E 1 98 4c 64
        E 1 9f 49 64
        E 236 84 4f 64
        E 0 85 4c 64
        E 0 88 4c 64
        E 0 8f 49 64
        E 1 8a 3d 64
        E 0 8e 39 64
        E 0 94 4f 64
        E 0 95 4c 64
        E 1 98 4f 64
        E 0 9f 4c 64
        E 0 9a 3d 64
        E 0 9e 2d 64
        E 239 88 4f 64
        E 0 8f 4c 64
        E 0 98 4c 64
        E 0 9f 49 64
        E 236 84 4f 64
        E 0 85 4c 64
        E 1 88 4c 64
        E 0 8f 49 64
        E 1 8a 3d 64
        E 0 8e 2d 64
        E 1 94 4f 64
        E 0 95 4c 64
        E 1 98 4f 64
        E 0 9f 4c 64
        E 0 9a 3d 64
        E 0 9e 2d 64
        E 239 88 4f 64
        E 0 8f 4c 64
        E 1 98 4c 64
        E 1 9f 49 64
        E 239 84 4f 64
        E 0 85 4c 64
        E 0 88 4c 64
        E 0 8f 49 64
        E 1 8a 3d 64
        E 0 8e 2d 64
        E 0 94 4e 64
        E 0 95 49 64
        E 1 98 4e 64
        E 0 9f 49 64
        E 0 9a 42 64
        E 1 9e 2d 64
        E 236 88 4e 64
        E 1 8f 49 64
        E 0 98 49 64
        E 0 9f 45 64
        E 241 84 4e 64
        E 0 85 49 64
        E 0 88 49 64
        E 1 8f 45 64
        E 0 8a 42 64
        E 1 8e 2d 64
        E 0 94 4e 64
        E 1 95 49 64
        E 0 98 4e 64
        E 1 9f 49 64
        E 0 9a 42 64
        E 1 9e 39 64
        E 234 88 4e 64
        E 0 8f 49 64
        E 1 98 49 64
        E 0 9f 45 64
        E 239 84 4e 64
        E 1 85 49 64
        E 0 88 49 64
        E 0 8f 45 64
        E 0 8a 42 64
        E 1 8e 39 64
        E 0 94 4e 64
        E 0 95 49 64
        E 0 98 4e 64
        E 1 9f 49 64
        E 0 9a 42 64
        E 0 9e 2d 64
        E 235 88 4e 64
        E 0 8f 49 64
        E 0 98 49 64
        E 1 9f 45 64
        E 242 84 4e 64
        E 0 85 49 64
        E 1 88 49 64
        E 0 8f 45 64
        E 1 8a 42 64
        E 1 8e 2d 64
        E 0 94 4e 64
        E 1 95 49 64
        E 0 98 4e 64
        E 1 9f 49 64
        E 1 9a 42 64
        E 0 9e 2d 64
        E 230 88 4e 64
        E 0 8f 49 64
        E 0 98 49 64
        E 0 9f 45 64
        E 241 84 4e 64
        E 0 85 49 64
        E 0 88 49 64
        E 1 8f 45 64
        E 0 8a 42 64
        E 0 8e 2d 64
        E 0 94 4e 64
        E 1 95 4a 64
        E 0 98 4e 64
        E 0 9f 4a 64
        E 0 9a 3b 64
        E 0 9e 2b 64
        E 238 88 4e 64
        E 0 8f 4a 64
        E 1 98 4a 64
        E 0 9f 47 64
        E 240 84 4e 64
        E 0 85 4a 64
        E 0 88 4a 64
        E 0 8f 47 64
        E 0 8a 3b 64
        E 0 8e 2b 64
        E 1 94 4e 64
        E 0 95 4a 64
        E 1 98 4e 64
        E 0 9f 4a 64
        E 0 9a 3b 64
        E 1 9e 37 64
        E 236 88 4e 64
        E 0 8f 4a 64
        E 0 98 4a 64
        E 0 9f 47 64
        E 241 84 4e 64
        E 0 85 4a 64
        E 0 88 4a 64
        E 0 8f 47 64
        E 0 8a 3b 64
        E 0 8e 37 64
        E 0 94 4e 64
        E 0 95 4a 64
        E 0 98 4e 64
        E 0 9f 4a 64
        E 0 9a 3b 64
        E 0 9e 2b 64
        E 241 88 4e 64
        E 0 8f 4a 64
        E 0 98 4a 64
        E 0 9f 47 64
        E 239 84 4e 64
        E 0 85 4a 64
        E 0 88 4a 64
        E 1 8f 47 64
        E 0 8a 3b 64
        E 1 8e 2b 64
        E 0 94 4e 64
        E 0 95 4a 64
        E 1 98 4e 64
        E 0 9f 4a 64
        E 0 9a 3b 64
        E 0 9e 2b 64
        E 236 88 4e 64
        E 0 8f 4a 64
        E 1 98 4a 64
        E 0 9f 47 64
        E 241 84 4e 64
        E 0 85 4a 64
        E 1 88 4a 64
        E 0 8f 47 64
        E 0 8a 3b 64
        E 1 8e 2b 64
        E 0 94 4c 64
        E 0 95 47 64
        E 0 98 4c 64
        E 1 9f 47 64
        E 0 9a 40 64
        E 0 9e 2b 64
        E 235 88 4c 64
        E 1 8f 47 64
        E 0 98 47 64
        E 0 9f 43 64
        E 241 84 4c 64
        E 0 85 47 64
        E 1 88 47 64
        E 0 8f 43 64
        E 0 8a 40 64
        E 0 8e 2b 64
        E 0 94 4c 64
        E 1 95 47 64
        E 0 98 4c 64
        E 0 9f 47 64
        E 1 9a 40 64
        E 0 9e 37 64
        E 233 88 4c 64
        E 1 8f 47 64
        E 1 98 47 64
        E 0 9f 43 64
        E 242 84 4c 64
        E 1 85 47 64
        E 0 88 47 64
        E 0 8f 43 64
        E 1 8a 40 64
        E 0 8e 37 64
        E 1 94 4c 64
        E 0 95 47 64
        E 0 98 4c 64
        E 0 9f 47 64
        E 0 9a 40 64
        E 0 9e 2b 64
        E 237 88 4c 64
        E 1 8f 47 64
        E 0 98 47 64
        E 0 9f 43 64
        E 239 84 4c 64
        E 0 85 47 64
        E 0 88 47 64
        E 0 8f 43 64
        E 1 8a 40 64
        E 0 8e 2b 64
        E 1 94 4c 64
        E 0 95 47 64
        E 0 98 4c 64
        E 0 9f 47 64
        E 1 9a 40 64
        E 0 9e 2b 64
        E 236 88 4c 64
        E 1 8f 47 64
        E 0 98 47 64
        E 0 9f 43 64
        E 237 84 4c 64
        E 0 85 47 64
        E 0 88 47 64
        E 1 8f 43 64
        E 0 8a 40 64
        E 1 8e 2b 64
        E 1 94 4c 64
        E 0 95 49 64
        E 1 98 4c 64
        E 0 9f 4f 64
        E 0 9a 3d 64
        E 0 9e 2d 64
        E 239 88 4c 64
        E 0 8f 4f 64
        E 0 98 49 64
        E 0 9f 4c 64
        E 239 88 49 64
        E 0 8f 4c 64
        E 0 8a 3d 64
        E 1 8e 2d 64
        E 0 98 4c 64
        E 0 9f 4f 64
        E 1 9a 3d 64
        E 0 9e 39 64
        E 236 88 4c 64
        E 1 8f 4f 64
        E 0 98 49 64
        E 0 9f 4c 64
        E 243 84 4c 64
        E 0 85 49 64
        E 0 88 49 64
        E 0 8f 4c 64
        E 1 8a 3d 64
        E 0 8e 39 64
        E 0 98 4c 64
        E 1 9f 4f 64
        E 0 9a 3d 64
        E 0 9e 2d 64
        E 236 88 4c 64
        E 0 8f 4f 64
        E 0 98 49 64
        E 1 9f 4c 64
        E 237 88 49 64
        E 0 8f 4c 64
        E 1 8a 3d 64
        E 0 8e 2d 64
        E 0 98 4c 64
        E 1 9f 4f 64
        E 0 9a 3d 64
        E 0 9e 2d 64
        E 239 88 4c 64
        E 1 8f 4f 64
        E 0 98 49 64
        E 0 9f 4c 64
        E 239 88 49 64
        E 1 8f 4c 64
        E 0 8a 3d 64
        E 1 8e 2d 64
        E 0 94 4c 64
        E 1 95 49 64
        E 0 98 4f 64
        E 1 9f 4c 64
        E 0 9a 3d 64
        E 0 9e 2d 64
        E 238 88 4f 64
        E 0 8f 4c 64
        E 0 98 4c 64
        E 0 9f 49 64
        E 241 88 4c 64
        E 1 8f 49 64
        E 0 8a 3d 64
        E 0 8e 2d 64
        E 1 98 4f 64
        E 0 9f 4c 64
        E 0 9a 3d 64
        E 1 9e 39 64
        E 236 88 4f 64
        E 0 8f 4c 64
        E 0 98 4c 64
        E 0 9f 49 64
        E 239 84 4c 64
        E 0 85 49 64
        E 0 88 4c 64
        E 0 8f 49 64
        E 1 8a 3d 64
        E 0 8e 39 64
        E 0 98 4f 64
        E 0 9f 4c 64
        E 0 9a 3d 64
        E 1 9e 2d 64
        E 238 88 4f 64
        E 1 8f 4c 64
        E 0 98 4c 64
        E 0 9f 49 64
        E 239 88 4c 64
        E 0 8f 49 64
        E 1 8a 3d 64
        E 0 8e 2d 64
        E 0 98 4f 64
        E 1 9f 4c 64
        E 0 9a 3d 64
        E 0 9e 2d 64
        E 240 88 4f 64
        E 0 8f 4c 64
        E 1 98 4c 64
        E 0 9f 49 64
        E 237 88 4c 64
        E 1 8f 49 64
        E 0 8a 3d 64
        E 0 8e 2d 64
        E 1 94 4c 64
        E 0 95 49 64
        E 0 98 49 64
        E 0 9f 43 64
        E 0 9a 40 64
        E 0 9e 2d 64
        E 239 88 49 64
        E 0 8f 43 64
        E 0 98 43 64
        E 0 9f 40 64
        E 240 88 43 64
        E 1 8f 40 64
        E 0 8a 40 64
        E 1 8e 2d 64
        E 0 98 49 64
        E 0 9f 43 64
        E 1 9a 40 64
        E 0 9e 39 64
        E 235 88 49 64
        E 0 8f 43 64
        E 1 98 43 64
        E 0 9f 40 64
        E 239 84 4c 64
        E 0 85 49 64
        E 0 88 43 64
        E 1 8f 40 64
        E 0 8a 40 64
        E 1 8e 39 64
        E 0 98 49 64
        E 0 9f 43 64
        E 0 9a 40 64
        E 1 9e 2d 64
        E 239 88 49 64
        E 0 8f 43 64
        E 0 98 43 64
        E 0 9f 40 64
        E 241 88 43 64
        E 0 8f 40 64
        E 0 8a 40 64
        E 1 8e 2d 64
        E 0 98 49 64
        E 0 9f 43 64
        E 0 9a 40 64
        E 1 9e 2d 64
        E 233 88 49 64
        E 0 8f 43 64
        E 1 98 43 64
        E 0 9f 40 64
        E 242 88 43 64
        E 1 8f 40 64
        E 0 8a 40 64
        E 0 8e 2d 64
        E 1 94 4c 64
        E 0 95 49 64
        E 0 98 40 64
        E 1 9f 3d 64
        E 0 9a 34 64
        E 0 9e 2d 64
        E 236 88 40 64
        E 1 8f 3d 64
        E 0 98 3d 64
        E 1 9f 39 64
        E 238 88 3d 64
        E 1 8f 39 64
        E 0 8a 34 64
        E 1 8e 2d 64
        E 0 98 40 64
        E 1 9f 3d 64
        E 0 9a 34 64
        E 1 9e 39 64
        E 237 88 40 64
        E 0 8f 3d 64
        E 1 98 3d 64
        E 0 9f 39 64
        E 238 84 4c 64
        E 1 85 49 64
        E 0 88 3d 64
        E 0 8f 39 64
        E 1 8a 34 64
        E 0 8e 39 64
        E 0 98 40 64
        E 0 9f 3d 64
        E 0 9a 34 64
        E 0 9e 2d 64
        E 239 88 40 64
        E 0 8f 3d 64
        E 0 98 3d 64
        E 0 9f 39 64
        E 239 88 3d 64
        E 0 8f 39 64
        E 0 8a 34 64
        E 0 8e 2d 64
        E 1 98 40 64
        E 0 9f 3d 64
        E 0 9a 34 64
        E 0 9e 2d 64
        E 238 88 40 64
        E 0 8f 3d 64
        E 0 98 3d 64
        E 1 9f 39 64
        E 244 88 3d 64
        E 0 8f 39 64
        E 1 8a 34 64
        E 1 8e 2d 64
        E 0 94 4c 64
        E 1 95 49 64
        E 0 98 37 64
        E 1 9f 3d 64
        E 0 9a 34 64
        E 1 9e 2d 64
        E 953 84 4c 64
        E 1 85 49 64
        E 1 88 37 64
        E 0 8f 3d 64
        E 1 8a 34 64
        E 0 8e 2d 64
        E 2876 94 4e 64
        E 1 95 4a 64
        E 0 98 51 64
        E 1 9f 4e 64
        E 0 9a 45 64
        E 1 9e 32 64
        E 236 88 51 64
        E 0 8f 4e 64
        E 1 98 4e 64
        E 0 9f 4a 64
        E 240 84 4e 64
        E 0 85 4a 64
        E 0 88 4e 64
        E 1 8f 4a 64
        E 0 8a 45 64
        E 1 8e 32 64
        E 1 94 4e 64
        E 0 95 4a 64
        E 0 98 51 64
        E 1 9f 4e 64
        E 0 9a 45 64
        E 1 9e 3e 64
        E 233 88 51 64
        E 1 8f 4e 64
        E 0 98 4e 64
        E 0 9f 4a 64
        E 243 84 4e 64
        E 0 85 4a 64
        E 1 88 4e 64
        E 0 8f 4a 64
        E 0 8a 45 64
        E 1 8e 3e 64
        E 0 94 4e 64
        E 0 95 4a 64
        E 0 98 51 64
        E 1 9f 4e 64
        E 0 9a 45 64
        E 0 9e 32 64
        E 235 88 51 64
        E 1 8f 4e 64
        E 0 98 4e 64
        E 1 9f 4a 64
        E 238 84 4e 64
        E 0 85 4a 64
        E 1 88 4e 64
        E 0 8f 4a 64
        E 1 8a 45 64
        E 1 8e 32 64
        E 0 94 4e 64
        E 1 95 4a 64
        E 0 98 51 64
        E 1 9f 4e 64
        E 0 9a 45 64
        E 1 9e 32 64
        E 233 88 51 64
        E 0 8f 4e 64
        E 1 98 4e 64
        E 0 9f 4a 64
        E 239 84 4e 64
        E 0 85 4a 64
        E 0 88 4e 64
        E 1 8f 4a 64
        E 0 8a 45 64
        E 1 8e 32 64
        E 0 94 4c 64
        E 1 95 4a 64
        E 0 98 51 64
        E 1 9f 4c 64
        E 0 9a 45 64
        E 0 9e 2d 64
        E 235 88 51 64
        E 0 8f 4c 64
        E 0 98 4c 64
        E 0 9f 4a 64
        E 243 84 4c 64
        E 0 85 4a 64
        E 0 88 4c 64
        E 1 8f 4a 64
        E 0 8a 45 64
        E 0 8e 2d 64
        E 1 94 4c 64
        E 0 95 4a 64
        E 1 98 51 64
        E 0 9f 4c 64
        E 0 9a 45 64
        E 0 9e 39 64
        E 237 88 51 64
        E 1 8f 4c 64
        E 0 98 4c 64
        E 0 9f 4a 64
        E 235 84 4c 64
        E 0 85 4a 64
        E 0 88 4c 64
        E 1 8f 4a 64
        E 0 8a 45 64
        E 0 8e 39 64
        E 0 94 4c 64
        E 0 95 4a 64
        E 0 98 51 64
        E 0 9f 4c 64
        E 1 9a 45 64
        E 0 9e 2d 64
        E 242 88 51 64
        E 0 8f 4c 64
        E 1 98 4c 64
        E 0 9f 4a 64
        E 239 84 4c 64
        E 0 85 4a 64
        E 0 88 4c 64
        E 1 8f 4a 64
        E 0 8a 45 64
        E 1 8e 2d 64
        E 0 94 4c 64
        E 1 95 4a 64
        E 0 98 51 64
        E 0 9f 4c 64
        E 0 9a 45 64
        E 0 9e 2d 64
        E 236 88 51 64
        E 0 8f 4c 64
        E 1 98 4c 64
        E 0 9f 4a 64
        E 241 84 4c 64
        E 0 85 4a 64
        E 0 88 4c 64
        E 0 8f 4a 64
        E 1 8a 45 64
        E 0 8e 2d 64
        E 1 94 4c 64
        E 0 95 49 64
        E 0 98 51 64
        E 1 9f 4c 64
        E 0 9a 45 64
        E 0 9e 2d 64
        E 236 88 51 64
        E 0 8f 4c 64
        E 0 98 4c 64
        E 1 9f 49 64
        E 240 84 4c 64
        E 0 85 49 64
        E 0 88 4c 64
        E 1 8f 49 64
        E 1 8a 45 64
        E 1 8e 2d 64
        E 0 94 4c 64
        E 1 95 49 64
        E 0 98 51 64
        E 0 9f 4c 64
        E 1 9a 45 64
        E 0 9e 39 64
        E 232 88 51 64
        E 0 8f 4c 64
        E 1 98 4c 64
        E 0 9f 49 64
        E 242 84 4c 64
        E 0 85 49 64
        E 1 88 4c 64
        E 0 8f 49 64
        E 0 8a 45 64
        E 1 8e 39 64
        E 0 94 4c 64
        E 0 95 49 64
        E 0 98 51 64
        E 1 9f 4c 64
        E 0 9a 45 64
        E 0 9e 2d 64
        E 236 88 51 64
        E 0 8f 4c 64
        E 1 98 4c 64
        E 0 9f 49 64
        E 236 84 4c 64
        E 0 85 49 64
        E 1 88 4c 64
        E 1 8f 49 64
        E 0 8a 45 64
        E 1 8e 2d 64
        E 0 94 4c 64
        E 1 95 49 64
        E 0 98 51 64
        E 0 9f 4c 64
        E 0 9a 45 64
        E 0 9e 2d 64
        E 236 88 51 64
        E 1 8f 4c 64
        E 0 98 4c 64
        E 0 9f 49 64
        E 241 84 4c 64
        E 1 85 49 64
        E 0 88 4c 64
        E 1 8f 49 64
        E 0 8a 45 64
        E 1 8e 2d 64
        E 0 90 4a 64
        E 1 91 42 64
        E 0 92 39 64
        E 0 93 32 64
        E 1 94 4e 64
        E 0 95 4a 64
        E 2 98 4e 64
        E 0 9f 4a 64
        E 0 9a 4a 64
        E 0 9e 32 64
        E 473 84 4e 64
        E 1 85 4a 64
        E 1 88 4e 64
        E 1 8f 4a 64
        E 1 8a 4a 64
        E 1 8e 32 64
        E 1 94 4a 64
        E 1 95 4a 64
        E 0 98 4a 64
        E 1 9f 4a 64
        E 1 9a 4a 64
        E 1 9e 3e 64
        E 233 80 4a 64
        E 0 81 42 64
        E 0 82 39 64
        E 0 83 32 64
        E 0 90 4a 64
        E 1 91 42 64
        E 0 92 39 64
        E 0 93 32 64
        E 233 80 4a 64
        E 0 81 42 64
        E 1 82 39 64
        E 0 83 32 64
        E 0 84 4a 64
        E 1 85 4a 64
        E 0 88 4a 64
        E 0 8f 4a 64
        E 0 8a 4a 64
        E 1 8e 3e 64
        E 0 90 4a 64
        E 0 91 42 64
        E 0 92 39 64
        E 1 93 32 64
        E 0 94 3e 64
        E 1 95 3e 64
        E 0 98 3e 64
        E 0 9f 3e 64
        E 0 9a 3e 64
        E 0 9e 32 64
        E 477 84 3e 64
        E 1 85 3e 64
        E 1 88 3e 64
        E 0 8f 3e 64
        E 1 8a 3e 64
        E 1 8e 32 64
        E 0 94 3e 64
        E 1 95 3e 64
        E 1 98 3e 64
        E 1 9f 3e 64
        E 0 9a 3e 64
        E 1 9e 32 64
        E 473 80 4a 64
        E 1 81 42 64
        E 3 82 39 64
        E 1 83 32 64
        E 1 84 3e 64
        E 0 85 3e 64
        E 1 88 3e 64
        E 1 8f 3e 64
        E 0 8a 3e 64
        E 1 8e 32 64
        E 2 90 4a 64
        E 0 91 42 64
        E 1 92 39 64
        E 1 93 32 64
        E 0 94 3e 64
        E 1 95 3e 64
        E 1 98 3e 64
        E 0 9f 3e 64
        E 1 9a 3e 64
        E 0 9e 32 64
        E 463 84 3e 64
        E 0 85 3e 64
        E 2 88 3e 64
        E 0 8f 3e 64
        E 1 8a 3e 64
        E 1 8e 32 64
        E 1 94 4a 64
        E 0 95 4a 64
        E 1 98 4a 64
        E 0 9f 4a 64
        E 1 9a 4a 64
        E 1 9e 3e 64
        E 230 80 4a 64
        E 0 81 42 64
        E 0 82 39 64
        E 1 83 32 64
        E 0 90 4a 64
        E 1 91 42 64
        E 0 92 39 64
        E 0 93 32 64
        E 240 80 4a 64
        E 0 81 42 64
        E 1 82 39 64
        E 0 83 32 64
        E 0 84 4a 64
        E 0 85 4a 64
        E 0 88 4a 64
        E 1 8f 4a 64
        E 0 8a 4a 64
        E 0 8e 3e 64
        E 0 90 4a 64
        E 1 91 42 64
        E 0 92 39 64
        E 0 93 32 64
        E 0 94 3e 64
        E 0 95 3e 64
        E 0 98 3e 64
        E 0 9f 3e 64
        E 0 9a 3e 64
        E 1 9e 32 64
        E 476 84 3e 64
        E 0 85 3e 64
        E 1 88 3e 64
        E 1 8f 3e 64
        E 1 8a 3e 64
        E 0 8e 32 64
        E 1 94 3e 64
        E 1 95 3e 64
        E 0 98 3e 64
        E 1 9f 3e 64
        E 1 9a 3e 64
        E 0 9e 32 64
        E 474 80 4a 64
        E 1 81 42 64
        E 0 82 39 64
        E 0 83 32 64
        E 1 84 3e 64
        E 1 85 3e 64
        E 1 88 3e 64
        E 1 8f 3e 64
        E 0 8a 3e 64
        E 1 8e 32 64
        E 1 94 3e 64
        E 1 95 3e 64
        E 0 98 3e 64
        E 1 9f 3e 64
        E 1 9a 3e 64
        E 0 9e 32 64
        E 470 85 3e 64
        E 0 88 3e 64
        E 1 8f 3e 64
        E 1 95 4e 64
        E 1 98 4e 64
        E 1 9f 4a 64
        E 238 85 4e 64
        E 0 88 4e 64
        E 1 8f 4a 64
        E 1 95 4f 64
        E 0 98 4f 64
        E 0 9f 4c 64
        E 238 84 3e 64
        E 0 85 4f 64
        E 0 88 4f 64
        E 1 8f 4c 64
        E 0 8a 3e 64
        E 0 8e 32 64
        E 1 95 51 64
        E 0 98 51 64
        E 0 9f 4e 64
        E 234 85 51 64
        E 0 88 51 64
        E 1 8f 4e 64
        E 0 95 4f 64
        E 1 98 4f 64
        E 0 9f 4c 64
        E 241 85 4f 64
        E 0 88 4f 64
        E 1 8f 4c 64
        E 0 95 51 64
        E 0 98 51 64
        E 1 9f 4e 64
        E 238 85 51 64
        E 0 88 51 64
        E 0 8f 4e 64
        E 1 95 4f 64
        E 0 98 4f 64
        E 0 9f 4c 64
        E 239 85 4f 64
        E 0 88 4f 64
        E 1 8f 4c 64
        E 0 95 4e 64
        E 0 98 4e 64
        E 0 9f 4a 64
        E 482 85 4e 64
        E 0 88 4e 64
        E 2 8f 4a 64
        E 1 95 4e 64
        E 0 98 4e 64
        E 1 9f 4a 64
        E 233 85 4e 64
        E 1 88 4e 64
        E 0 8f 4a 64
        E 0 95 4f 64
        E 1 98 4f 64
        E 0 9f 4c 64
        E 238 85 4f 64
        E 0 88 4f 64
        E 1 8f 4c 64
        E 0 95 51 64
        E 1 98 51 64
        E 0 9f 4e 64
        E 239 85 51 64
        E 0 88 51 64
        E 0 8f 4e 64
        E 1 95 4f 64
        E 0 98 4f 64
        E 1 9f 4c 64
        E 238 85 4f 64
        E 1 88 4f 64
        E 0 8f 4c 64
        E 0 95 51 64
        E 1 98 51 64
        E 0 9f 4e 64
        E 236 85 51 64
        E 0 88 51 64
        E 0 8f 4e 64
        E 0 95 4e 64
        E 1 98 4e 64
        E 0 9f 4a 64
        E 240 85 4e 64
        E 0 88 4e 64
        E 0 8f 4a 64
        E 1 90 49 64
        E 0 91 40 64
        E 0 92 39 64
        E 1 93 2d 64
        E 0 95 4c 64
        E 1 98 4c 64
        E 0 9f 49 64
        E 0 9a 39 64
        E 0 9e 2d 64
        E 475 88 4c 64
        E 0 8f 49 64
        E 0 8a 39 64
        E 1 8e 2d 64
        E 0 98 45 64
        E 1 9f 45 64
        E 0 9a 45 64
        E 0 9e 39 64
        E 240 80 49 64
        E 0 81 40 64
        E 1 82 39 64
        E 0 83 2d 64
        E 0 90 49 64
        E 1 91 40 64
        E 1 92 39 64
        E 0 93 2d 64
        E 236 80 49 64
        E 0 81 40 64
        E 0 82 39 64
        E 1 83 2d 64
        E 0 85 4c 64
        E 0 88 45 64
        E 0 8f 45 64
        E 0 8a 45 64
        E 0 8e 39 64
        E 1 90 49 64
        E 0 91 40 64
        E 0 92 39 64
        E 0 93 2d 64
        E 0 98 39 64
        E 0 9f 39 64
        E 0 9a 39 64
        E 0 9e 2d 64
        E 478 88 39 64
        E 1 8f 39 64
        E 0 8a 39 64
        E 1 8e 2d 64
        E 1 98 39 64
        E 1 9f 39 64
        E 1 9a 39 64
        E 1 9e 2d 64
        E 476 80 49 64
        E 0 81 40 64
        E 1 82 39 64
        E 0 83 2d 64
        E 1 88 39 64
        E 0 8f 39 64
        E 2 8a 39 64
        E 0 8e 2d 64
        E 1 90 49 64
        E 1 91 40 64
        E 1 92 39 64
        E 0 93 2d 64
        E 1 98 39 64
        E 0 9f 39 64
        E 1 9a 39 64
        E 0 9e 2d 64
        E 470 88 39 64
        E 1 8f 39 64
        E 0 8a 39 64
        E 1 8e 2d 64
        E 1 98 45 64
        E 0 9f 45 64
        E 1 9a 45 64
        E 1 9e 39 64
        E 234 80 49 64
        E 0 81 40 64
        E 0 82 39 64
        E 1 83 2d 64
        E 0 90 49 64
        E 1 91 40 64
        E 0 92 39 64
        E 1 93 2d 64
        E 239 80 49 64
        E 0 81 40 64
        E 1 82 39 64
        E 0 83 2d 64
        E 0 88 45 64
        E 0 8f 45 64
        E 1 8a 45 64
        E 0 8e 39 64
        E 0 90 49 64
        E 1 91 40 64
        E 0 92 39 64
        E 1 93 2d 64
        E 0 98 39 64
        E 0 9f 39 64
        E 0 9a 39 64
        E 1 9e 2d 64
        E 475 88 39 64
        E 0 8f 39 64
        E 1 8a 39 64
        E 2 8e 2d 64
        E 0 98 39 64
        E 1 9f 39 64
        E 1 9a 39 64
        E 1 9e 2d 64
        E 473 80 49 64
        E 1 81 40 64
        E 0 82 39 64
        E 1 83 2d 64
        E 1 88 39 64
        E 0 8f 39 64
        E 1 8a 39 64
        E 1 8e 2d 64
        E 1 98 39 64
        E 0 9f 39 64
        E 1 9a 39 64
        E 1 9e 2d 64
        E 471 88 39 64
        E 1 8f 39 64
        E 1 95 4c 64
        E 0 98 4c 64
        E 1 9f 49 64
        E 236 85 4c 64
        E 0 88 4c 64
        E 0 8f 49 64
        E 1 95 4e 64
        E 0 98 4e 64
        E 0 9f 4a 64
        E 241 85 4e 64
        E 1 88 4e 64
        E 0 8f 4a 64
        E 0 8a 39 64
        E 0 8e 2d 64
        E 0 95 4f 64
        E 1 98 4f 64
        E 0 9f 4c 64
        E 236 85 4f 64
        E 0 88 4f 64
        E 1 8f 4c 64
        E 0 95 4e 64
        E 1 98 4e 64
        E 0 9f 4a 64
        E 237 85 4e 64
        E 0 88 4e 64
        E 1 8f 4a 64
        E 0 95 4f 64
        E 1 98 4f 64
        E 0 9f 4c 64
        E 239 85 4f 64
        E 0 88 4f 64
        E 1 8f 4c 64
        E 0 95 4e 64
        E 0 98 4e 64
        E 1 9f 4a 64
        E 241 85 4e 64
        E 0 88 4e 64
        E 0 8f 4a 64
        E 1 95 4c 64
        E 0 98 4c 64
        E 1 9f 49 64
        E 477 85 4c 64
        E 0 88 4c 64
        E 1 8f 49 64
        E 1 95 4c 64
        E 1 98 4c 64
        E 1 9f 49 64
        E 233 85 4c 64
        E 1 88 4c 64
        E 0 8f 49 64
        E 0 95 4e 64
        E 1 98 4e 64
        E 0 9f 4a 64
        E 241 85 4e 64
        E 0 88 4e 64
        E 1 8f 4a 64
        E 0 95 4f 64
        E 0 98 4f 64
        E 0 9f 4c 64
        E 237 85 4f 64
        E 1 88 4f 64
        E 0 8f 4c 64
        E 1 95 4e 64
        E 0 98 4e 64
        E 1 9f 4a 64
        E 238 85 4e 64
        E 0 88 4e 64
        E 1 8f 4a 64
        E 0 95 4f 64
        E 0 98 4f 64
        E 0 9f 4c 64
        E 239 85 4f 64
        E 1 88 4f 64
        E 0 8f 4c 64
        E 1 95 4e 64
        E 0 98 4e 64
        E 1 9f 4a 64
        E 234 85 4e 64
        E 1 88 4e 64
        E 0 8f 4a 64
        E 1 90 49 64
        E 0 91 40 64
        E 0 92 3d 64
        E 0 93 39 64
        E 1 95 4c 64
        E 0 98 4c 64
        E 0 9f 49 64
        E 0 9a 39 64
        E 1 9e 2d 64
        E 480 88 4c 64
        E 1 8f 49 64
        E 1 8a 39 64
        E 1 8e 2d 64
        E 0 98 45 64
        E 1 9f 45 64
        E 0 9a 45 64
        E 1 9e 39 64
        E 475 85 4c 64
        E 0 88 45 64
        E 3 8f 45 64
        E 1 8a 45 64
        E 0 8e 39 64
        E 1 98 39 64
        E 1 9f 39 64
        E 0 9a 39 64
        E 0 9e 2d 64
        E 473 88 39 64
        E 1 8f 39 64
        E 1 8a 39 64
        E 1 8e 2d 64
        E 0 98 39 64
        E 1 9f 39 64
        E 0 9a 39 64
        E 1 9e 2d 64
        E 474 80 49 64
        E 1 81 40 64
        E 1 82 3d 64
        E 0 83 39 64
        E 1 88 39 64
        E 1 8f 39 64
        E 1 8a 39 64
        E 1 8e 2d 64
        E 1 90 4a 64
        E 0 91 42 64
        E 1 92 39 64
        E 1 93 39 64
        E 0 98 39 64
        E 1 9f 39 64
        E 0 9a 39 64
        E 1 9e 2d 64
        E 470 88 39 64
        E 1 8f 39 64
        E 0 8a 39 64
        E 1 8e 2d 64
        E 1 98 45 64
        E 1 9f 45 64
        E 1 9a 45 64
        E 0 9e 39 64
        E 476 88 45 64
        E 0 8f 45 64
        E 1 8a 45 64
        E 1 8e 39 64
        E 0 98 39 64
        E 1 9f 39 64
        E 1 9a 39 64
        E 0 9e 2d 64
        E 477 88 39 64
        E 0 8f 39 64
        E 1 8a 39 64
        E 1 8e 2d 64
        E 0 98 39 64
        E 1 9f 39 64
        E 0 9a 39 64
        E 1 9e 2d 64
        E 476 80 4a 64
        E 1 81 42 64
        E 1 82 39 64
        E 1 83 39 64
        E 0 88 39 64
        E 1 8f 39 64
        E 1 8a 39 64
        E 1 8e 2d 64
        E 1 90 4c 64
        E 1 91 43 64
        E 0 92 3d 64
        E 1 93 39 64
        E 0 98 39 64
        E 1 9f 39 64
        E 1 9a 39 64
        E 0 9e 2d 64
        E 469 88 39 64
        E 1 8f 39 64
        E 1 8a 39 64
        E 0 8e 2d 64
        E 1 98 45 64
        E 1 9f 45 64
        E 0 9a 45 64
        E 1 9e 39 64
        E 476 88 45 64
        E 0 8f 45 64
        E 1 8a 45 64
        E 0 8e 39 64
        E 1 98 39 64
        E 0 9f 39 64
        E 1 9a 39 64
        E 0 9e 2d 64
        E 473 88 39 64
        E 1 8f 39 64
        E 1 8a 39 64
        E 0 8e 2d 64
        E 1 98 39 64
        E 1 9f 39 64
        E 1 9a 39 64
        E 1 9e 2d 64
        E 477 80 4c 64
        E 1 81 43 64
        E 1 82 3d 64
        E 1 83 39 64
        E 0 88 39 64
        E 1 8f 39 64
        E 1 8a 39 64
        E 1 8e 2d 64
        E 1 90 4a 64
        E 0 91 42 64
        E 1 92 39 64
        E 1 93 39 64
        E 0 98 39 64
        E 1 9f 39 64
        E 0 9a 39 64
        E 1 9e 2d 64
        E 469 88 39 64
        E 1 8f 39 64
        E 0 8a 39 64
        E 1 8e 2d 64
        E 1 98 45 64
        E 0 9f 45 64
        E 1 9a 45 64
        E 1 9e 39 64
        E 475 88 45 64
        E 1 8f 45 64
        E 0 8a 45 64
        E 1 8e 39 64
        E 1 98 39 64
        E 0 9f 39 64
        E 1 9a 39 64
        E 1 9e 2d 64
        E 475 88 39 64
        E 0 8f 39 64
        E 1 8a 39 64
        E 1 8e 2d 64
        E 0 98 39 64
        E 1 9f 39 64
        E 1 9a 39 64
        E 0 9e 2d 64
        E 476 80 4a 64
        E 1 81 42 64
        E 0 82 39 64
        E 1 83 39 64
        E 1 88 39 64
        E 0 8f 39 64
        E 1 8a 39 64
        E 1 8e 2d 64
        E 0 90 4a 64
        E 1 91 40 64
        E 1 92 39 64
        E 1 93 39 64
        E 0 98 39 64
        E 1 9f 39 64
        E 1 9a 39 64
        E 1 9e 2d 64
        E 468 88 39 64
        E 1 8f 39 64
        E 1 8a 39 64
        E 1 8e 2d 64
        E 1 98 45 64
        E 0 9f 45 64
        E 1 9a 45 64
        E 0 9e 39 64
        E 472 88 45 64
        E 1 8f 45 64
        E 1 8a 45 64
        E 0 8e 39 64
        E 1 98 39 64
        E 0 9f 39 64
        E 1 9a 39 64
        E 1 9e 2d 64
        E 476 88 39 64
        E 1 8f 39 64
        E 1 8a 39 64
        E 0 8e 2d 64
        E 1 98 39 64
        E 0 9f 39 64
        E 1 9a 39 64
        E 0 9e 2d 64
        E 478 80 4a 64
        E 1 81 40 64
        E 0 82 39 64
        E 1 83 39 64
        E 1 88 39 64
        E 0 8f 39 64
        E 1 8a 39 64
        E 1 8e 2d 64
        E 1 90 49 64
        E 0 91 40 64
        E 1 92 39 64
        E 1 93 39 64
        E 0 98 39 64
        E 1 9f 39 64
        E 0 9a 39 64
        E 1 9e 2d 64
        E 472 88 39 64
        E 0 8f 39 64
        E 1 8a 39 64
        E 1 8e 2d 64
        E 0 98 45 64
        E 0 9f 45 64
        E 1 9a 45 64
        E 1 9e 39 64
        E 472 88 45 64
        E 0 8f 45 64
        E 1 8a 45 64
        E 1 8e 39 64
        E 1 98 39 64
        E 0 9f 39 64
        E 1 9a 39 64
        E 1 9e 2d 64
        E 477 88 39 64
        E 1 8f 39 64
        E 0 8a 39 64
        E 1 8e 2d 64
        E 1 98 39 64
        E 1 9f 39 64
        E 0 9a 39 64
        E 1 9e 2d 64
        E 475 80 49 64
        E 0 81 40 64
        E 1 82 39 64
        E 1 83 39 64
        E 1 88 39 64
        E 1 8f 39 64
        E 1 8a 39 64
        E 1 8e 2d 64
        E 1 98 39 64
        E 1 9f 39 64
        E 1 9a 39 64
        E 0 9e 2d 64
        E 953 88 39 64
        E 0 8f 39 64
        E 1 8a 39 64
        E 0 8e 2d 64
        E 957 90 49 64
        E 0 91 40 64
        E 0 92 3d 64
        E 1 93 39 64
        E 0 98 39 64
        E 1 9f 39 64
        E 0 9a 39 64
        E 1 9e 2d 64
        E 477 88 39 64
        E 1 8f 39 64
        E 1 8a 39 64
        E 0 8e 2d 64
        E 1 98 45 64
        E 1 9f 45 64
        E 0 9a 45 64
        E 1 9e 39 64
        E 474 88 45 64
        E 0 8f 45 64
        E 1 8a 45 64
        E 1 8e 39 64
        E 1 98 39 64
        E 1 9f 39 64
        E 1 9a 39 64
        E 1 9e 2d 64
        E 475 88 39 64
        E 0 8f 39 64
        E 1 8a 39 64
        E 1 8e 2d 64
        E 1 98 39 64
        E 0 9f 39 64
        E 1 9a 39 64
        E 1 9e 2d 64
        E 477 80 49 64
        E 1 81 40 64
        E 0 82 3d 64
        E 1 83 39 64
        E 1 88 39 64
        E 1 8f 39 64
        E 0 8a 39 64
        E 1 8e 2d 64
        E 1 90 4a 64
        E 0 91 42 64
        E 1 92 39 64
        E 0 93 39 64
        E 1 98 39 64
        E 1 9f 39 64
        E 1 9a 39 64
        E 0 9e 2d 64
        E 468 88 39 64
        E 0 8f 39 64
        E 1 8a 39 64
        E 1 8e 2d 64
        E 1 98 45 64
        E 1 9f 45 64
        E 0 9a 45 64
        E 1 9e 39 64
        E 477 88 45 64
        E 1 8f 45 64
        E 0 8a 45 64
        E 1 8e 39 64
        E 1 98 39 64
        E 1 9f 39 64
        E 1 9a 39 64
        E 0 9e 2d 64
        E 474 88 39 64
        E 1 8f 39 64
        E 0 8a 39 64
        E 1 8e 2d 64
        E 1 98 39 64
        E 1 9f 39 64
        E 0 9a 39 64
        E 1 9e 2d 64
        E 471 80 4a 64
        E 1 81 42 64
        E 2 82 39 64
        E 0 83 39 64
        E 1 88 39 64
        E 1 8f 39 64
        E 1 8a 39 64
        E 0 8e 2d 64
        E 1 90 4c 64
        E 1 91 43 64
        E 0 92 3d 64
        E 1 93 39 64
        E 1 98 39 64
        E 1 9f 39 64
        E 0 9a 39 64
        E 1 9e 2d 64
        E 470 88 39 64
        E 0 8f 39 64
        E 1 8a 39 64
        E 1 8e 2d 64
        E 1 98 45 64
        E 0 9f 45 64
        E 1 9a 45 64
        E 1 9e 39 64
        E 475 88 45 64
        E 1 8f 45 64
        E 1 8a 45 64
        E 1 8e 39 64
        E 0 98 39 64
        E 1 9f 39 64
        E 0 9a 39 64
        E 1 9e 2d 64
        E 473 88 39 64
        E 1 8f 39 64
        E 0 8a 39 64
        E 1 8e 2d 64
        E 1 98 39 64
        E 0 9f 39 64
        E 1 9a 39 64
        E 1 9e 2d 64
        E 479 80 4c 64
        E 0 81 43 64
        E 1 82 3d 64
        E 1 83 39 64
        E 0 88 39 64
        E 1 8f 39 64
        E 0 8a 39 64
        E 1 8e 2d 64
        E 1 90 4a 64
        E 1 91 42 64
        E 1 92 39 64
        E 0 93 39 64
        E 1 98 39 64
        E 1 9f 39 64
        E 0 9a 39 64
        E 1 9e 2d 64
        E 468 88 39 64
        E 1 8f 39 64
        E 1 8a 39 64
        E 0 8e 2d 64
        E 1 98 45 64
        E 1 9f 45 64
        E 1 9a 45 64
        E 0 9e 39 64
        E 474 88 45 64
        E 0 8f 45 64
        E 1 8a 45 64
        E 1 8e 39 64
        E 1 98 39 64
        E 1 9f 39 64
        E 1 9a 39 64
        E 1 9e 2d 64
        E 476 88 39 64
        E 0 8f 39 64
        E 1 8a 39 64
        E 1 8e 2d 64
        E 0 98 39 64
        E 1 9f 39 64
        E 1 9a 39 64
        E 0 9e 2d 64
        E 473 80 4a 64
        E 0 81 42 64
        E 1 82 39 64
        E 1 83 39 64
        E 0 88 39 64
        E 1 8f 39 64
        E 1 8a 39 64
        E 1 8e 2d 64
        E 0 90 4a 64
        E 1 91 40 64
        E 1 92 39 64
        E 1 93 39 64
        E 1 98 39 64
        E 1 9f 39 64
        E 0 9a 39 64
        E 1 9e 2d 64
        E 471 88 39 64
        E 1 8f 39 64
        E 1 8a 39 64
        E 1 8e 2d 64
        E 0 98 45 64
        E 1 9f 45 64
        E 2 9a 45 64
        E 0 9e 39 64
        E 474 88 45 64
        E 1 8f 45 64
        E 1 8a 45 64
        E 0 8e 39 64
        E 1 98 39 64
        E 1 9f 39 64
        E 0 9a 39 64
        E 1 9e 2d 64
        E 474 88 39 64
        E 0 8f 39 64
        E 0 8a 39 64
        E 1 8e 2d 64
        E 0 98 39 64
        E 0 9f 39 64
        E 1 9a 39 64
        E 0 9e 2d 64
        E 480 80 4a 64
        E 1 81 40 64
        E 1 82 39 64
        E 1 83 39 64
        E 1 88 39 64
        E 0 8f 39 64
        E 1 8a 39 64
        E 1 8e 2d 64
        E 1 90 49 64
        E 0 91 40 64
        E 1 92 39 64
        E 0 93 39 64
        E 1 98 39 64
        E 1 9f 39 64
        E 0 9a 39 64
        E 1 9e 2d 64
        E 470 88 39 64
        E 0 8f 39 64
        E 1 8a 39 64
        E 1 8e 2d 64
        E 0 98 45 64
        E 1 9f 45 64
        E 1 9a 45 64
        E 0 9e 39 64
        E 476 88 45 64
        E 1 8f 45 64
        E 1 8a 45 64
        E 1 8e 39 64
        E 0 98 39 64
        E 1 9f 39 64
        E 1 9a 39 64
        E 1 9e 2d 64
        E 475 88 39 64
        E 1 8f 39 64
        E 0 8a 39 64
        E 1 8e 2d 64
        E 1 98 39 64
        E 0 9f 39 64
        E 1 9a 39 64
        E 0 9e 2d 64
        E 475 80 49 64
        E 1 81 40 64
        E 1 82 39 64
        E 1 83 39 64
        E 0 88 39 64
        E 1 8f 39 64
        E 1 8a 39 64
        E 1 8e 2d 64
        E 0 98 39 64
        E 1 9f 39 64
        E 1 9a 39 64
        E 0 9e 2d 64
        E 950 88 39 64
        E 1 8f 39 64
        E 0 8a 39 64
        E 1 8e 2d 64
        E 959 90 45 64
        E 1 91 3e 64
        E 1 92 36 64
        E 1 93 32 64
        E 1 94 4a 64
        E 0 95 45 64
        E 1 98 42 64
        E 0 9f 3e 64
        E 1 9a 39 64
        E 1 9e 32 64
        E 472 84 4a 64
        E 0 85 45 64
        E 1 88 42 64
        E 1 8f 3e 64
        E 1 8a 39 64
        E 1 8e 32 64
        E 0 94 4a 64
        E 1 95 45 64
        E 1 98 4a 64
        E 0 9f 45 64
        E 1 9a 42 64
        E 1 9e 3e 64
        E 474 84 4a 64
        E 1 85 45 64
        E 1 88 4a 64
        E 1 8f 45 64
        E 0 8a 42 64
        E 1 8e 3e 64
        E 1 94 4a 64
        E 0 95 45 64
        E 1 98 42 64
        E 1 9f 3e 64
        E 1 9a 39 64
        E 0 9e 32 64
        E 472 80 45 64
        E 1 81 3e 64
        E 1 82 36 64
        E 0 83 32 64
        E 1 84 4a 64
        E 1 85 45 64
        E 1 88 42 64
        E 1 8f 3e 64
        E 0 8a 39 64
        E 1 8e 32 64
        E 1 90 45 64
        E 1 91 3e 64
        E 1 92 36 64
        E 1 93 32 64
        E 1 94 4a 64
        E 0 95 45 64
        E 1 98 42 64
        E 1 9f 3e 64
        E 1 9a 39 64
        E 0 9e 32 64
        E 464 80 45 64
        E 1 81 3e 64
        E 1 82 36 64
        E 0 83 32 64
        E 1 84 4a 64
        E 1 85 45 64
        E 0 88 42 64
        E 0 8f 3e 64
        E 1 8a 39 64
        E 1 8e 32 64
        E 0 90 45 64
        E 1 91 3e 64
        E 1 92 36 64
        E 0 93 32 64
        E 0 94 4a 64
        E 1 95 45 64
        E 1 98 42 64
        E 0 9f 3e 64
        E 1 9a 39 64
        E 0 9e 32 64
        E 470 88 42 64
        E 0 8f 3e 64
        E 1 8a 39 64
        E 1 8e 32 64
        E 1 98 4a 64
        E 0 9f 45 64
        E 1 9a 42 64
        E 0 9e 3e 64
        E 476 84 4a 64
        E 2 85 45 64
        E 1 88 4a 64
        E 1 8f 45 64
        E 0 8a 42 64
        E 1 8e 3e 64
        E 0 98 42 64
        E 1 9f 3e 64
        E 1 9a 3e 64
        E 1 9e 32 64
        E 472 88 42 64
        E 0 8f 3e 64
        E 1 8a 3e 64
        E 0 8e 32 64
        E 1 98 42 64
        E 1 9f 3e 64
        E 0 9a 3e 64
        E 1 9e 32 64
        E 474 80 45 64
        E 1 81 3e 64
        E 1 82 36 64
        E 1 83 32 64
        E 0 88 42 64
        E 1 8f 3e 64
        E 1 8a 3e 64
        E 0 8e 32 64
        E 1 90 47 64
        E 0 91 3e 64
        E 1 92 3b 64
        E 1 93 37 64
        E 1 94 4a 64
        E 0 95 47 64
        E 1 98 43 64
        E 1 9f 3e 64
        E 0 9a 3e 64
        E 1 9e 2b 64
        E 469 84 4a 64
        E 1 85 47 64
        E 1 88 43 64
        E 1 8f 3e 64
        E 0 8a 3e 64
        E 1 8e 2b 64
        E 1 94 4a 64
        E 0 95 47 64
        E 1 98 4a 64
        E 1 9f 47 64
        E 0 9a 43 64
        E 2 9e 37 64
        E 471 84 4a 64
        E 0 85 47 64
        E 1 88 4a 64
        E 1 8f 47 64
        E 0 8a 43 64
        E 1 8e 37 64
        E 1 94 4a 64
        E 0 95 47 64
        E 1 98 43 64
        E 0 9f 3e 64
        E 1 9a 3b 64
        E 0 9e 2b 64
        E 474 80 47 64
        E 0 81 3e 64
        E 0 82 3b 64
        E 1 83 37 64
        E 1 84 4a 64
        E 1 85 47 64
        E 0 88 43 64
        E 1 8f 3e 64
        E 1 8a 3b 64
        E 0 8e 2b 64
        E 1 90 47 64
        E 1 91 3e 64
        E 0 92 3b 64
        E 1 93 37 64
        E 0 94 4a 64
        E 1 95 47 64
        E 0 98 43 64
        E 1 9f 3e 64
        E 1 9a 3b 64
        E 0 9e 2b 64
        E 466 80 47 64
        E 1 81 3e 64
        E 0 82 3b 64
        E 1 83 37 64
        E 1 84 4a 64
        E 0 85 47 64
        E 1 88 43 64
        E 1 8f 3e 64
        E 0 8a 3b 64
        E 1 8e 2b 64
        E 1 90 47 64
        E 1 91 3e 64
        E 1 92 3b 64
        E 0 93 37 64
        E 1 94 4a 64
        E 1 95 47 64
        E 0 98 43 64
        E 1 9f 3e 64
        E 0 9a 3b 64
        E 1 9e 2b 64
        E 469 88 43 64
        E 1 8f 3e 64
        E 1 8a 3b 64
        E 0 8e 2b 64
        E 1 98 4a 64
        E 0 9f 47 64
        E 1 9a 43 64
        E 1 9e 37 64
        E 476 84 4a 64
        E 1 85 47 64
        E 0 88 4a 64
        E 1 8f 47 64
        E 1 8a 43 64
        E 0 8e 37 64
        E 1 98 43 64
        E 0 9f 3e 64
        E 1 9a 3b 64
        E 0 9e 2b 64
        E 474 88 43 64
        E 0 8f 3e 64
        E 1 8a 3b 64
        E 1 8e 2b 64
        E 1 98 43 64
        E 0 9f 3e 64
        E 1 9a 3b 64
        E 1 9e 2b 64
        E 477 80 47 64
        E 1 81 3e 64
        E 0 82 3b 64
        E 1 83 37 64
        E 0 88 43 64
        E 1 8f 3e 64
        E 0 8a 3b 64
        E 1 8e 2b 64
        E 1 90 47 64
        E 0 91 40 64
        E 1 92 38 64
        E 0 93 34 64
        E 1 94 4c 64
        E 0 95 47 64
        E 0 98 44 64
        E 1 9f 40 64
        E 1 9a 3b 64
        E 0 9e 34 64
        E 472 84 4c 64
        E 1 85 47 64
        E 0 88 44 64
        E 1 8f 40 64
        E 1 8a 3b 64
        E 0 8e 34 64
        E 1 94 4c 64
        E 1 95 47 64
        E 0 98 4c 64
        E 1 9f 47 64
        E 0 9a 44 64
        E 1 9e 40 64
        E 470 84 4c 64
        E 0 85 47 64
        E 1 88 4c 64
        E 1 8f 47 64
        E 0 8a 44 64
        E 1 8e 40 64
        E 1 94 4c 64
        E 1 95 47 64
        E 0 98 44 64
        E 1 9f 40 64
        E 0 9a 3b 64
        E 2 9e 34 64
        E 472 80 47 64
        E 1 81 40 64
        E 1 82 38 64
        E 4 83 34 64
        E 1 84 4c 64
        E 0 85 47 64
        E 1 88 44 64
        E 1 8f 40 64
        E 0 8a 3b 64
        E 1 8e 34 64
        E 1 90 47 64
        E 2 91 40 64
        E 1 92 38 64
        E 1 93 34 64
        E 0 94 4c 64
        E 1 95 47 64
        E 0 98 44 64
        E 1 9f 40 64
        E 1 9a 3b 64
        E 0 9e 34 64
        E 462 80 47 64
        E 1 81 40 64
        E 0 82 38 64
        E 1 83 34 64
        E 1 84 4c 64
        E 0 85 47 64
        E 1 88 44 64
        E 0 8f 40 64
        E 1 8a 3b 64
        E 1 8e 34 64
        E 0 90 47 64
        E 1 91 40 64
        E 1 92 38 64
        E 0 93 34 64
        E 1 94 4c 64
        E 0 95 47 64
        E 1 98 44 64
        E 1 9f 40 64
        E 0 9a 3b 64
        E 1 9e 34 64
        E 469 88 44 64
        E 1 8f 40 64
        E 1 8a 3b 64
        E 1 8e 34 64
        E 0 98 4c 64
        E 1 9f 47 64
        E 1 9a 44 64
        E 0 9e 40 64
        E 474 84 4c 64
        E 1 85 47 64
        E 1 88 4c 64
        E 0 8f 47 64
        E 1 8a 44 64
        E 0 8e 40 64
        E 1 98 44 64
        E 1 9f 40 64
        E 0 9a 40 64
        E 1 9e 34 64
        E 474 88 44 64
        E 0 8f 40 64
        E 3 8a 40 64
        E 1 8e 34 64
        E 0 98 44 64
        E 1 9f 40 64
        E 0 9a 40 64
        E 1 9e 34 64
        E 476 80 47 64
        E 1 81 40 64
        E 1 82 38 64
        E 1 83 34 64
        E 0 88 44 64
        E 1 8f 40 64
        E 1 8a 40 64
        E 1 8e 34 64
        E 0 90 49 64
        E 1 91 40 64
        E 1 92 3d 64
        E 0 93 39 64
        E 1 94 4c 64
        E 0 95 49 64
        E 1 98 45 64
        E 1 9f 40 64
        E 0 9a 40 64
        E 0 9e 2d 64
        E 466 84 4c 64
        E 1 85 49 64
        E 1 88 45 64
        E 1 8f 40 64
        E 0 8a 40 64
        E 1 8e 2d 64
        E 2 94 4c 64
        E 0 95 49 64
        E 1 98 4c 64
        E 1 9f 49 64
        E 0 9a 45 64
        E 2 9e 39 64
        E 468 84 4c 64
        E 1 85 49 64
        E 1 88 4c 64
        E 0 8f 49 64
        E 1 8a 45 64
        E 1 8e 39 64
        E 0 94 4c 64
        E 1 95 49 64
        E 1 98 45 64
        E 1 9f 40 64
        E 0 9a 3d 64
        E 1 9e 2d 64
        E 475 80 49 64
        E 0 81 40 64
        E 1 82 3d 64
        E 1 83 39 64
        E 1 84 4c 64
        E 1 85 49 64
        E 0 88 45 64
        E 1 8f 40 64
        E 1 8a 3d 64
        E 1 8e 2d 64
        E 1 90 49 64
        E 0 91 40 64
        E 2 92 3d 64
        E 0 93 39 64
        E 1 94 4c 64
        E 0 95 49 64
        E 1 98 45 64
        E 1 9f 40 64
        E 0 9a 3d 64
        E 1 9e 2d 64
        E 469 80 49 64
        E 0 81 40 64
        E 1 82 3d 64
        E 1 83 39 64
        E 0 84 4c 64
        E 1 85 49 64
        E 1 88 45 64
        E 1 8f 40 64
        E 1 8a 3d 64
        E 0 8e 2d 64
        E 1 90 49 64
        E 0 91 40 64
        E 0 92 3d 64
        E 0 93 39 64
        E 0 94 4c 64
        E 0 95 49 64
        E 0 98 45 64
        E 1 9f 40 64
        E 0 9a 3d 64
        E 1 9e 2d 64
        E 468 88 45 64
        E 1 8f 40 64
        E 1 8a 3d 64
        E 1 8e 2d 64
        E 1 98 4c 64
        E 0 9f 49 64
        E 1 9a 45 64
        E 1 9e 39 64
        E 474 84 4c 64
        E 1 85 49 64
        E 1 88 4c 64
        E 0 8f 49 64
        E 1 8a 45 64
        E 1 8e 39 64
        E 1 98 45 64
        E 0 9f 40 64
        E 1 9a 3d 64
        E 1 9e 2d 64
        E 474 88 45 64
        E 1 8f 40 64
        E 1 8a 3d 64
        E 0 8e 2d 64
        E 1 98 45 64
        E 1 9f 40 64
        E 0 9a 3d 64
        E 1 9e 2d 64
        E 475 80 49 64
        E 1 81 40 64
        E 1 82 3d 64
        E 0 83 39 64
        E 1 88 45 64
        E 1 8f 40 64
        E 1 8a 3d 64
        E 1 8e 2d 64
        E 0 90 49 64
        E 1 91 42 64
        E 1 92 3a 64
        E 0 93 36 64
        E 1 94 4e 64
        E 1 95 49 64
        E 0 98 46 64
        E 1 9f 42 64
        E 1 9a 3d 64
        E 0 9e 36 64
        E 468 84 4e 64
        E 1 85 49 64
        E 0 88 46 64
        E 1 8f 42 64
        E 1 8a 3d 64
        E 0 8e 36 64
        E 2 94 4e 64
        E 1 95 49 64
        E 0 98 4e 64
        E 1 9f 49 64
        E 1 9a 46 64
        E 1 9e 3a 64
        E 470 84 4e 64
        E 1 85 49 64
        E 1 88 4e 64
        E 0 8f 49 64
        E 1 8a 46 64
        E 1 8e 3a 64
        E 0 94 4e 64
        E 1 95 49 64
        E 1 98 46 64
        E 0 9f 42 64
        E 1 9a 3d 64
        E 1 9e 36 64
        E 473 84 4e 64
        E 1 85 49 64
        E 0 88 46 64
        E 1 8f 42 64
        E 1 8a 3d 64
        E 1 8e 36 64
        E 1 94 4e 64
        E 1 95 49 64
        E 0 98 46 64
        E 1 9f 42 64
        E 0 9a 3d 64
        E 1 9e 36 64
        E 473 80 49 64
        E 1 81 42 64
        E 1 82 3a 64
        E 0 83 36 64
        E 1 84 4e 64
        E 1 85 49 64
        E 0 88 46 64
        E 1 8f 42 64
        E 1 8a 3d 64
        E 1 8e 36 64
        E 1 90 49 64
        E 0 91 42 64
        E 1 92 3a 64
        E 1 93 36 64
        E 0 94 4e 64
        E 1 95 49 64
        E 0 98 46 64
        E 1 9f 42 64
        E 1 9a 3d 64
        E 1 9e 36 64
        E 465 88 46 64
        E 0 8f 42 64
        E 1 8a 3d 64
        E 1 8e 36 64
        E 1 98 4e 64
        E 1 9f 49 64
        E 0 9a 46 64
        E 1 9e 3a 64
        E 475 84 4e 64
        E 0 85 49 64
        E 1 88 4e 64
        E 1 8f 49 64
        E 1 8a 46 64
        E 0 8e 3a 64
        E 1 98 46 64
        E 1 9f 42 64
        E 0 9a 42 64
        E 1 9e 36 64
        E 473 88 46 64
        E 0 8f 42 64
        E 1 8a 42 64
        E 1 8e 36 64
        E 1 98 46 64
        E 1 9f 42 64
        E 1 9a 42 64
        E 1 9e 36 64
        E 471 80 49 64
        E 1 81 42 64
        E 0 82 3a 64
        E 0 83 36 64
        E 1 88 46 64
        E 0 8f 42 64
        E 0 8a 42 64
        E 1 8e 36 64
        E 0 90 4a 64
        E 1 91 42 64
        E 1 92 3b 64
        E 0 93 36 64
        E 0 94 4e 64
        E 1 95 4a 64
        E 0 98 47 64
        E 1 9f 4a 64
        E 0 9a 42 64
        E 0 9e 36 64
        E 477 84 4e 64
        E 1 85 4a 64
        E 1 88 47 64
        E 1 8f 4a 64
        E 1 8a 42 64
        E 1 8e 36 64
        E 0 94 4e 64
        E 1 95 4a 64
        E 1 98 53 64
        E 0 9f 4e 64
        E 2 9a 4a 64
        E 0 9e 3b 64
        E 470 84 4e 64
        E 1 85 4a 64
        E 0 88 53 64
        E 1 8f 4e 64
        E 0 8a 4a 64
        E 1 8e 3b 64
        E 1 94 4e 64
        E 0 95 4a 64
        E 1 98 47 64
        E 1 9f 4a 64
        E 0 9a 42 64
        E 1 9e 36 64
        E 473 84 4e 64
        E 0 85 4a 64
        E 1 88 47 64
        E 1 8f 4a 64
        E 1 8a 42 64
        E 1 8e 36 64
        E 1 94 4e 64
        E 1 95 4a 64
        E 0 98 47 64
        E 1 9f 4a 64
        E 1 9a 42 64
        E 1 9e 36 64
        E 473 80 4a 64
        E 1 81 42 64
        E 0 82 3b 64
        E 1 83 36 64
        E 1 84 4e 64
        E 0 85 4a 64
        E 1 88 47 64
        E 1 8f 4a 64
        E 0 8a 42 64
        E 1 8e 36 64
        E 1 90 47 64
        E 1 91 42 64
        E 0 92 3e 64
        E 1 93 36 64
        E 1 94 4e 64
        E 1 95 4a 64
        E 0 98 47 64
        E 1 9f 4a 64
        E 0 9a 42 64
        E 1 9e 36 64
        E 464 88 47 64
        E 0 8f 4a 64
        E 1 8a 42 64
        E 1 8e 36 64
        E 0 98 53 64
        E 1 9f 4e 64
        E 1 9a 4a 64
        E 0 9e 3b 64
        E 479 84 4e 64
        E 0 85 4a 64
        E 1 88 53 64
        E 1 8f 4e 64
        E 0 8a 4a 64
        E 1 8e 3b 64
        E 1 98 47 64
        E 1 9f 4a 64
        E 1 9a 42 64
        E 1 9e 36 64
        E 472 88 47 64
        E 1 8f 4a 64
        E 0 8a 42 64
        E 1 8e 36 64
        E 0 98 47 64
        E 1 9f 4a 64
        E 1 9a 42 64
        E 0 9e 36 64
        E 476 80 47 64
        E 0 81 42 64
        E 1 82 3e 64
        E 1 83 36 64
        E 0 88 47 64
        E 1 8f 4a 64
        E 0 8a 42 64
        E 1 8e 36 64
        E 1 90 47 64
        E 1 91 42 64
        E 0 92 3d 64
        E 1 93 36 64
        E 1 94 4e 64
        E 1 95 49 64
        E 1 98 47 64
        E 0 9f 49 64
        E 1 9a 42 64
        E 0 9e 36 64
        E 467 84 4e 64
        E 1 85 49 64
        E 0 88 47 64
        E 1 8f 49 64
        E 1 8a 42 64
        E 1 8e 36 64
        E 1 94 4e 64
        E 0 95 49 64
        E 1 98 53 64
        E 0 9f 4e 64
        E 1 9a 49 64
        E 0 9e 3b 64
        E 473 84 4e 64
        E 0 85 49 64
        E 1 88 53 64
        E 1 8f 4e 64
        E 1 8a 49 64
        E 1 8e 3b 64
        E 0 94 4e 64
        E 1 95 49 64
        E 1 98 47 64
        E 0 9f 49 64
        E 1 9a 42 64
        E 1 9e 36 64
        E 474 84 4e 64
        E 1 85 49 64
        E 1 88 47 64
        E 1 8f 49 64
        E 1 8a 42 64
        E 0 8e 36 64
        E 1 94 4e 64
        E 1 95 49 64
        E 0 98 47 64
        E 1 9f 49 64
        E 1 9a 42 64
        E 0 9e 36 64
        E 475 80 47 64
        E 0 81 42 64
        E 1 82 3d 64
        E 0 83 36 64
        E 1 84 4e 64
        E 1 85 49 64
        E 1 88 47 64
        E 0 8f 49 64
        E 1 8a 42 64
        E 1 8e 36 64
        E 1 90 46 64
        E 0 91 42 64
        E 1 92 3d 64
        E 0 93 36 64
        E 1 94 4e 64
        E 0 95 49 64
        E 1 98 46 64
        E 0 9f 49 64
        E 1 9a 42 64
        E 1 9e 36 64
        E 465 84 4e 64
        E 1 85 49 64
        E 0 88 46 64
        E 1 8f 49 64
        E 0 8a 42 64
        E 1 8e 36 64
        E 0 94 4e 64
        E 1 95 49 64
        E 0 98 52 64
        E 1 9f 4e 64
        E 1 9a 49 64
        E 1 9e 3a 64
        E 473 84 4e 64
        E 0 85 49 64
        E 1 88 52 64
        E 1 8f 4e 64
        E 1 8a 49 64
        E 0 8e 3a 64
        E 1 94 4e 64
        E 0 95 49 64
        E 1 98 46 64
        E 1 9f 49 64
        E 0 9a 42 64
        E 1 9e 36 64
        E 474 84 4e 64
        E 1 85 49 64
        E 1 88 46 64
        E 0 8f 49 64
        E 1 8a 42 64
        E 1 8e 36 64
        E 1 94 4e 64
        E 1 95 49 64
        E 1 98 46 64
        E 1 9f 49 64
        E 1 9a 42 64
        E 0 9e 36 64
        E 468 80 46 64
        E 1 81 42 64
        E 1 82 3d 64
        E 1 83 36 64
        E 0 84 4e 64
        E 1 85 49 64
        E 1 88 46 64
        E 1 8f 49 64
        E 1 8a 42 64
        E 1 8e 36 64
        E 0 90 47 64
        E 1 91 42 64
        E 0 92 3e 64
        E 1 93 2f 64
        E 1 94 4e 64
        E 0 95 4a 64
        E 1 98 47 64
        E 0 9f 4a 64
        E 1 9a 42 64
        E 1 9e 2f 64
        E 468 88 47 64
        E 0 8f 4a 64
        E 1 8a 42 64
        E 0 8e 2f 64
        E 1 98 47 64
        E 1 9f 47 64
        E 0 9a 47 64
        E 2 9e 3b 64
        E 475 84 4e 64
        E 1 85 4a 64
        E 1 88 47 64
        E 0 8f 47 64
        E 1 8a 47 64
        E 1 8e 3b 64
        E 0 98 3b 64
        E 1 9f 3b 64
        E 1 9a 3b 64
        E 0 9e 2f 64
        E 471 88 3b 64
        E 0 8f 3b 64
        E 2 8a 3b 64
        E 0 8e 2f 64
        E 1 98 3b 64
        E 1 9f 3b 64
        E 0 9a 3b 64
        E 1 9e 2f 64
        E 481 80 47 64
        E 1 81 42 64
        E 1 82 3e 64
        E 0 83 2f 64
        E 1 88 3b 64
        E 1 8f 3b 64
        E 1 8a 3b 64
        E 0 8e 2f 64
        E 1 98 3b 64
        E 1 9f 3b 64
        E 1 9a 3b 64
        E 0 9e 2f 64
        E 469 88 3b 64
        E 1 8f 3b 64
        E 1 95 4a 64
        E 1 98 4a 64
        E 1 9f 47 64
        E 235 85 4a 64
        E 0 88 4a 64
        E 1 8f 47 64
        E 0 95 4c 64
        E 0 98 4c 64
        E 1 9f 49 64
        E 238 85 4c 64
        E 1 88 4c 64
        E 0 8f 49 64
        E 1 8a 3b 64
        E 1 8e 2f 64
        E 1 95 4e 64
        E 0 98 4e 64
        E 0 9f 4a 64
        E 236 85 4e 64
        E 0 88 4e 64
        E 0 8f 4a 64
        E 1 95 4c 64
        E 0 98 4c 64
        E 1 9f 49 64
        E 239 85 4c 64
        E 0 88 4c 64
        E 1 8f 49 64
        E 0 95 4e 64
        E 0 98 4e 64
        E 1 9f 4a 64
        E 237 85 4e 64
        E 0 88 4e 64
        E 0 8f 4a 64
        E 0 95 4c 64
        E 0 98 4c 64
        E 0 9f 49 64
        E 239 85 4c 64
        E 0 88 4c 64
        E 1 8f 49 64
        E 0 95 4a 64
        E 1 98 4a 64
        E 0 9f 47 64
        E 480 85 4a 64
        E 1 88 4a 64
        E 1 8f 47 64
        E 0 95 4a 64
        E 1 98 4a 64
        E 1 9f 47 64
        E 236 85 4a 64
        E 0 88 4a 64
        E 0 8f 47 64
        E 1 95 4c 64
        E 0 98 4c 64
        E 0 9f 49 64
        E 239 85 4c 64
        E 0 88 4c 64
        E 1 8f 49 64
        E 0 95 4e 64
        E 0 98 4e 64
        E 1 9f 4a 64
        E 238 85 4e 64
        E 0 88 4e 64
        E 0 8f 4a 64
        E 1 95 4c 64
        E 0 98 4c 64
        E 0 9f 49 64
        E 239 85 4c 64
        E 0 88 4c 64
        E 0 8f 49 64
        E 0 95 4e 64
        E 1 98 4e 64
        E 0 9f 4a 64
        E 238 85 4e 64
        E 0 88 4e 64
        E 1 8f 4a 64
        E 0 95 4c 64
        E 1 98 4c 64
        E 0 9f 49 64
        E 237 85 4c 64
        E 1 88 4c 64
        E 0 8f 49 64
        E 0 95 4a 64
        E 1 98 4a 64
        E 0 9f 47 64
        E 0 9a 42 64
        E 1 9e 2f 64
        E 480 85 4a 64
        E 0 88 4a 64
        E 2 8f 47 64
        E 1 95 4a 64
        E 1 98 4a 64
        E 0 9f 47 64
        E 232 85 4a 64
        E 0 88 4a 64
        E 0 8f 47 64
        E 1 95 4c 64
        E 0 98 4c 64
        E 0 9f 49 64
        E 241 85 4c 64
        E 1 88 4c 64
        E 0 8f 49 64
        E 0 8a 42 64
        E 1 8e 2f 64
        E 0 95 4e 64
        E 0 98 4e 64
        E 0 9f 4a 64
        E 238 85 4e 64
        E 1 88 4e 64
        E 0 8f 4a 64
        E 1 95 4c 64
        E 0 98 4c 64
        E 0 9f 49 64
        E 239 85 4c 64
        E 0 88 4c 64
        E 0 8f 49 64
        E 0 95 4e 64
        E 1 98 4e 64
        E 0 9f 4a 64
        E 238 85 4e 64
        E 0 88 4e 64
        E 1 8f 4a 64
        E 0 95 4c 64
        E 1 98 4c 64
        E 0 9f 49 64
        E 238 85 4c 64
        E 0 88 4c 64
        E 0 8f 49 64
        E 1 95 4a 64
        E 0 98 4a 64
        E 0 9f 47 64
        E 480 85 4a 64
        E 1 88 4a 64
        E 0 8f 47 64
        E 1 95 4a 64
        E 1 98 4a 64
        E 1 9f 47 64
        E 234 85 4a 64
        E 0 88 4a 64
        E 0 8f 47 64
        E 1 95 4c 64
        E 0 98 4c 64
        E 0 9f 49 64
        E 239 85 4c 64
        E 1 88 4c 64
        E 0 8f 49 64
        E 0 95 4e 64
        E 1 98 4e 64
        E 0 9f 4a 64
        E 237 85 4e 64
        E 0 88 4e 64
        E 0 8f 4a 64
        E 1 95 4c 64
        E 0 98 4c 64
        E 1 9f 49 64
        E 240 85 4c 64
        E 0 88 4c 64
        E 1 8f 49 64
        E 0 95 4e 64
        E 1 98 4e 64
        E 0 9f 4a 64
        E 238 85 4e 64
        E 0 88 4e 64
        E 1 8f 4a 64
        E 0 95 4c 64
        E 1 98 4c 64
        E 0 9f 49 64
        E 240 85 4c 64
        E 0 88 4c 64
        E 0 8f 49 64
        E 1 90 47 64
        E 0 91 42 64
        E 0 92 3e 64
        E 1 93 3b 64
        E 0 95 4a 64
        E 0 98 4a 64
        E 0 9f 47 64
        E 0 9a 42 64
        E 0 9e 2f 64
        E 476 85 4a 64
        E 0 88 4a 64
        E 1 8f 47 64
        E 1 8a 42 64
        E 1 8e 2f 64
        E 1 95 4a 64
        E 0 98 4a 64
        E 1 9f 47 64
        E 0 9a 42 64
        E 1 9e 3b 64
        E 475 85 4a 64
        E 0 88 4a 64
        E 1 8f 47 64
        E 0 8a 42 64
        E 1 8e 3b 64
        E 1 95 42 64
        E 0 98 42 64
        E 1 9f 3e 64
        E 0 9a 3b 64
        E 0 9e 2f 64
        E 476 80 47 64
        E 0 81 42 64
        E 1 82 3e 64
        E 1 83 3b 64
        E 0 85 42 64
        E 1 88 42 64
        E 3 8f 3e 64
        E 0 8a 3b 64
        E 1 8e 2f 64
        E 0 90 47 64
        E 1 91 42 64
        E 1 92 3e 64
        E 1 93 3b 64
        E 0 95 42 64
        E 1 98 42 64
        E 0 9f 3e 64
        E 1 9a 3b 64
        E 1 9e 2f 64
        E 468 80 47 64
        E 1 81 42 64
        E 1 82 3e 64
        E 0 83 3b 64
        E 1 85 42 64
        E 0 88 42 64
        E 1 8f 3e 64
        E 0 8a 3b 64
        E 1 8e 2f 64
        E 1 90 47 64
        E 0 91 42 64
        E 1 92 3e 64
        E 0 93 3b 64
        E 1 95 42 64
        E 1 98 42 64
        E 0 9f 3e 64
        E 1 9a 3b 64
        E 1 9e 2f 64
        E 468 85 42 64
        E 0 88 42 64
        E 1 8f 3e 64
        E 1 8a 3b 64
        E 1 8e 2f 64
        E 0 95 4a 64
        E 1 98 4a 64
        E 1 9f 47 64
        E 0 9a 42 64
        E 1 9e 3b 64
        E 474 85 4a 64
        E 0 88 4a 64
        E 0 8f 47 64
        E 1 8a 42 64
        E 0 8e 3b 64
        E 0 95 42 64
        E 0 98 42 64
        E 1 9f 3e 64
        E 0 9a 3b 64
        E 0 9e 2f 64
        E 478 85 42 64
        E 1 88 42 64
        E 1 8f 3e 64
        E 0 8a 3b 64
        E 0 8e 2f 64
        E 1 95 42 64
        E 1 98 42 64
        E 1 9f 3e 64
        E 0 9a 3b 64
        E 1 9e 2f 64
        E 473 80 47 64
        E 1 81 42 64
        E 0 82 3e 64
        E 1 83 3b 64
        E 0 85 42 64
        E 0 88 42 64
        E 0 8f 3e 64
        E 0 8a 3b 64
        E 0 8e 2f 64
        E 0 90 47 64
        E 1 91 42 64
        E 0 92 3f 64
        E 0 93 39 64
        E 0 95 42 64
        E 0 98 42 64
        E 0 9f 3f 64
        E 1 9a 3b 64
        E 0 9e 2d 64
        E 475 85 42 64
        E 0 88 42 64
        E 1 8f 3f 64
        E 0 8a 3b 64
        E 1 8e 2d 64
        E 0 95 4b 64
        E 0 98 4b 64
        E 1 9f 47 64
        E 0 9a 42 64
        E 0 9e 39 64
        E 477 85 4b 64
        E 0 88 4b 64
        E 1 8f 47 64
        E 0 8a 42 64
        E 0 8e 39 64
        E 1 95 42 64
        E 0 98 42 64
        E 0 9f 3f 64
        E 0 9a 3b 64
        E 0 9e 2d 64
        E 482 80 47 64
        E 0 81 42 64
        E 0 82 3f 64
        E 1 83 39 64
        E 0 85 42 64
        E 0 88 42 64
        E 0 8f 3f 64
        E 0 8a 3b 64
        E 1 8e 2d 64
        E 0 90 47 64
        E 0 91 42 64
        E 1 92 3f 64
        E 0 93 39 64
        E 0 95 42 64
        E 0 98 42 64
        E 0 9f 3f 64
        E 1 9a 3b 64
        E 0 9e 2d 64
        E 474 80 47 64
        E 1 81 42 64
        E 1 82 3f 64
        E 0 83 39 64
        E 1 85 42 64
        E 0 88 42 64
        E 1 8f 3f 64
        E 1 8a 3b 64
        E 1 8e 2d 64
        E 1 90 47 64
        E 0 91 42 64
        E 1 92 3f 64
        E 1 93 39 64
        E 0 95 42 64
        E 0 98 42 64
        E 0 9f 3f 64
        E 0 9a 3b 64
        E 1 9e 2d 64
        E 469 85 42 64
        E 1 88 42 64
        E 1 8f 3f 64
        E 0 8a 3b 64
        E 1 8e 2d 64
        E 0 95 4b 64
        E 1 98 4b 64
        E 0 9f 47 64
        E 1 9a 42 64
        E 1 9e 39 64
        E 476 85 4b 64
        E 0 88 4b 64
        E 1 8f 47 64
        E 0 8a 42 64
        E 1 8e 39 64
        E 1 95 42 64
        E 0 98 42 64
        E 1 9f 3f 64
        E 0 9a 3b 64
        E 2 9e 2d 64
        E 473 85 42 64
        E 1 88 42 64
        E 0 8f 3f 64
        E 1 8a 3b 64
        E 0 8e 2d 64
        E 1 95 42 64
        E 1 98 42 64
        E 0 9f 3f 64
        E 1 9a 3b 64
        E 1 9e 2d 64
        E 474 80 47 64
        E 1 81 42 64
        E 0 82 3f 64
        E 1 83 39 64
        E 0 85 42 64
        E 1 88 42 64
        E 1 8f 3f 64
        E 2 8a 3b 64
        E 1 8e 2d 64
        E 0 90 47 64
        E 1 91 43 64
        E 1 92 40 64
        E 0 93 37 64
        E 1 95 43 64
        E 1 98 43 64
        E 0 9f 40 64
        E 1 9a 3b 64
        E 1 9e 2b 64
        E 468 85 43 64
        E 1 88 43 64
        E 0 8f 40 64
        E 1 8a 3b 64
        E 1 8e 2b 64
        E 0 95 4c 64
        E 1 98 4c 64
        E 1 9f 47 64
        E 1 9a 43 64
        E 1 9e 37 64
        E 471 85 4c 64
        E 1 88 4c 64
        E 0 8f 47 64
        E 1 8a 43 64
        E 1 8e 37 64
        E 0 95 43 64
        E 1 98 43 64
        E 1 9f 40 64
        E 0 9a 3b 64
        E 1 9e 2b 64
        E 475 85 43 64
        E 0 88 43 64
        E 0 8f 40 64
        E 0 8a 3b 64
        E 0 8e 2b 64
        E 1 95 43 64
        E 0 98 43 64
        E 0 9f 40 64
        E 0 9a 3b 64
        E 0 9e 2b 64
        E 481 80 47 64
        E 1 81 43 64
        E 0 82 40 64
        E 0 83 37 64
        E 0 85 43 64
        E 1 88 43 64
        E 1 8f 40 64
        E 1 8a 3b 64
        E 1 8e 2b 64
        E 1 90 47 64
        E 0 91 43 64
        E 1 92 40 64
        E 1 93 37 64
        E 0 95 43 64
        E 1 98 43 64
        E 0 9f 40 64
        E 1 9a 3b 64
        E 1 9e 2b 64
        E 465 85 43 64
        E 1 88 43 64
        E 0 8f 40 64
        E 0 8a 3b 64
        E 0 8e 2b 64
        E 1 95 4c 64
        E 0 98 4c 64
        E 1 9f 47 64
        E 0 9a 43 64
        E 0 9e 37 64
        E 479 85 4c 64
        E 1 88 4c 64
        E 0 8f 47 64
        E 0 8a 43 64
        E 0 8e 37 64
        E 0 95 43 64
        E 0 98 43 64
        E 0 9f 40 64
        E 0 9a 3b 64
        E 1 9e 2b 64
        E 476 85 43 64
        E 1 88 43 64
        E 0 8f 40 64
        E 0 8a 3b 64
        E 1 8e 2b 64
        E 0 95 43 64
        E 0 98 43 64
        E 0 9f 40 64
        E 1 9a 3b 64
        E 0 9e 2b 64
        E 476 80 47 64
        E 0 81 43 64
        E 0 82 40 64
        E 0 83 37 64
        E 1 85 43 64
        E 0 88 43 64
        E 0 8f 40 64
        E 0 8a 3b 64
        E 2 8e 2b 64
        E 1 90 47 64
        E 1 91 44 64
        E 0 92 41 63
        E 0 93 31 64
        E 1 95 44 64
        E 0 98 44 64
        E 0 9f 41 63
        E 0 9a 3b 64
        E 0 9e 31 64
        E 476 85 44 64
        E 1 88 44 64
        E 1 8f 41 63
        E 0 8a 3b 64
        E 1 8e 31 64
        E 1 95 4d 63
        E 0 98 4d 63
        E 1 9f 49 64
        E 1 9a 44 64
        E 0 9e 3d 64
        E 474 85 4d 63
        E 0 88 4d 63
        E 0 8f 49 64
        E 1 8a 44 64
        E 0 8e 3d 64
        E 1 95 44 64
        E 0 98 44 64
        E 0 9f 41 63
        E 1 9a 3b 64
        E 0 9e 31 64
        E 479 85 44 64
        E 0 88 44 64
        E 1 8f 41 63
        E 1 8a 3b 64
        E 0 8e 31 64
        E 1 95 44 64
        E 1 98 44 64
        E 1 9f 41 63
        E 0 9a 3b 64
        E 2 9e 31 64
        E 472 85 44 64
        E 0 88 44 64
        E 1 8f 41 63
        E 0 8a 3b 64
        E 1 8e 31 64
        E 0 95 44 64
        E 0 98 44 64
        E 1 9f 41 63
        E 0 9a 3b 64
        E 1 9e 31 64
        E 474 85 44 64
        E 0 88 44 64
        E 1 8f 41 63
        E 1 8a 3b 64
        E 0 8e 31 64
        E 1 95 4d 63
        E 0 98 4d 63
        E 0 9f 49 64
        E 1 9a 44 64
        E 1 9e 3d 64
        E 477 85 4d 63
        E 0 88 4d 63
        E 0 8f 49 64
        E 1 8a 44 64
        E 0 8e 3d 64
        E 0 95 44 64
        E 1 98 44 64
        E 0 9f 41 63
        E 1 9a 41 63
        E 0 9e 31 64
        E 476 85 44 64
        E 1 88 44 64
        E 0 8f 41 63
        E 1 8a 41 63
        E 0 8e 31 64
        E 1 95 44 64
        E 0 98 44 64
        E 0 9f 41 63
        E 1 9a 41 63
        E 1 9e 31 64
        E 476 80 47 64
        E 1 81 44 64
        E 0 82 41 63
        E 2 83 31 64
        E 0 85 44 64
        E 1 88 44 64
        E 1 8f 41 63
        E 0 8a 41 63
        E 1 8e 31 64
        E 1 90 46 64
        E 0 91 42 64
        E 1 92 3d 64
        E 0 93 36 64
        E 1 95 46 64
        E 0 98 46 64
        E 1 9f 42 64
        E 1 9a 3d 64
        E 0 9e 2a 64
        E 469 85 46 64
        E 0 88 46 64
        E 1 8f 42 64
        E 0 8a 3d 64
        E 1 8e 2a 64
        E 1 95 4e 64
        E 0 98 4e 64
        E 1 9f 49 64
        E 0 9a 46 64
        E 1 9e 36 64
        E 474 85 4e 64
        E 1 88 4e 64
        E 1 8f 49 64
        E 1 8a 46 64
        E 1 8e 36 64
        E 0 95 46 64
        E 1 98 46 64
        E 1 9f 42 64
        E 0 9a 3d 64
        E 1 9e 2a 64
        E 471 85 46 64
        E 0 88 46 64
        E 1 8f 42 64
        E 1 8a 3d 64
        E 0 8e 2a 64
        E 1 95 46 64
        E 1 98 46 64
        E 2 9f 42 64
        E 0 9a 3d 64
        E 1 9e 2a 64
        E 476 81 42 64
        E 1 85 46 64
        E 0 88 46 64
        E 1 8f 42 64
        E 0 8a 3d 64
        E 1 8e 2a 64
        E 1 91 40 64
        E 0 95 46 64
        E 1 98 46 64
        E 1 9f 42 64
        E 0 9a 3d 64
        E 1 9e 2a 64
        E 470 85 46 64
        E 0 88 46 64
        E 1 8f 42 64
        E 1 8a 3d 64
        E 1 8e 2a 64
        E 0 95 4e 64
        E 2 98 4e 64
        E 1 9f 49 64
        E 0 9a 46 64
        E 1 9e 36 64
        E 477 85 4e 64
        E 0 88 4e 64
        E 1 8f 49 64
        E 1 8a 46 64
        E 1 8e 36 64
        E 0 95 46 64
        E 1 98 46 64
        E 0 9f 42 64
        E 1 9a 3d 64
        E 1 9e 2a 64
        E 473 85 46 64
        E 0 88 46 64
        E 2 8f 42 64
        E 1 8a 3d 64
        E 1 8e 2a 64
        E 0 95 46 64
        E 1 98 46 64
        E 1 9f 42 64
        E 0 9a 3d 64
        E 1 9e 2a 64
        E 471 80 46 64
        E 0 81 40 64
        E 1 82 3d 64
        E 0 83 36 64
        E 1 85 46 64
        E 0 88 46 64
        E 1 8f 42 64
        E 1 8a 3d 64
        E 0 8e 2a 64
        E 1 90 45 64
        E 1 91 3f 64
        E 0 92 3b 64
        E 1 93 36 64
        E 0 95 45 64
        E 0 98 45 64
        E 0 9f 42 64
        E 0 9a 3f 64
        E 1 9e 2a 64
        E 474 85 45 64
        E 0 88 45 64
        E 1 8f 42 64
        E 1 8a 3f 64
        E 1 8e 2a 64
        E 0 95 4e 64
        E 1 98 4e 64
        E 0 9f 4b 64
        E 1 9a 45 64
        E 0 9e 36 64
        E 474 85 4e 64
        E 1 88 4e 64
        E 0 8f 4b 64
        E 1 8a 45 64
        E 0 8e 36 64
        E 1 95 45 64
        E 0 98 45 64
        E 1 9f 42 64
        E 1 9a 3f 64
        E 1 9e 2a 64
        E 476 85 45 64
        E 1 88 45 64
        E 1 8f 42 64
        E 1 8a 3f 64
        E 0 8e 2a 64
        E 1 95 45 64
        E 1 98 45 64
        E 0 9f 42 64
        E 1 9a 3f 64
        E 1 9e 2a 64
        E 473 85 45 64
        E 0 88 45 64
        E 0 8f 42 64
        E 1 8a 3f 64
        E 1 8e 2a 64
        E 0 95 45 64
        E 0 98 45 64
        E 1 9f 42 64
        E 0 9a 3f 64
        E 1 9e 2a 64
        E 474 85 45 64
        E 1 88 45 64
        E 1 8f 42 64
        E 0 8a 3f 64
        E 1 8e 2a 64
        E 1 95 4e 64
        E 0 98 4e 64
        E 1 9f 4b 64
        E 1 9a 45 64
        E 0 9e 36 64
        E 473 85 4e 64
        E 1 88 4e 64
        E 1 8f 4b 64
        E 0 8a 45 64
        E 1 8e 36 64
        E 1 95 45 64
        E 1 98 45 64
        E 4 9f 42 64
        E 1 9a 3f 64
        E 0 9e 2a 64
        E 470 85 45 64
        E 1 88 45 64
        E 1 8f 42 64
        E 1 8a 3f 64
        E 0 8e 2a 64
        E 1 95 45 64
        E 1 98 45 64
        E 0 9f 42 64
        E 1 9a 3f 64
        E 1 9e 2a 64
        E 475 80 45 64
        E 1 81 3f 64
        E 1 82 3b 64
        E 0 83 36 64
        E 1 85 45 64
        E 0 88 45 64
        E 1 8f 42 64
        E 0 8a 3f 64
        E 1 8e 2a 64
        E 0 90 45 64
        E 1 91 3f 64
        E 0 92 3c 63
        E 1 93 36 64
        E 0 95 45 64
        E 1 98 45 64
        E 0 9f 42 64
        E 1 9a 3f 64
        E 1 9e 2a 64
        E 470 85 45 64
        E 1 88 45 64
        E 1 8f 42 64
        E 1 8a 3f 64
        E 0 8e 2a 64
        E 1 95 4e 64
        E 1 98 4e 64
        E 0 9f 4b 64
        E 1 9a 45 64
        E 1 9e 36 64
        E 475 85 4e 64
        E 0 88 4e 64
        E 1 8f 4b 64
        E 0 8a 45 64
        E 0 8e 36 64
        E 0 95 45 64
        E 0 98 45 64
        E 1 9f 42 64
        E 1 9a 3f 64
        E 1 9e 2a 64
        E 474 85 45 64
        E 1 88 45 64
        E 0 8f 42 64
        E 1 8a 3f 64
        E 1 8e 2a 64
        E 1 95 45 64
        E 0 98 45 64
        E 1 9f 42 64
        E 0 9a 3f 64
        E 1 9e 2a 64
        E 473 85 45 64
        E 1 88 45 64
        E 1 8f 42 64
        E 1 8a 3f 64
        E 0 8e 2a 64
        E 1 95 45 64
        E 1 98 45 64
        E 1 9f 42 64
        E 0 9a 3f 64
        E 1 9e 2a 64
        E 473 85 45 64
        E 1 88 45 64
        E 1 8f 42 64
        E 1 8a 3f 64
        E 1 8e 2a 64
        E 1 95 4e 64
        E 0 98 4e 64
        E 1 9f 4b 64
        E 1 9a 45 64
        E 0 9e 36 64
        E 475 85 4e 64
        E 1 88 4e 64
        E 0 8f 4b 64
        E 1 8a 45 64
        E 1 8e 36 64
        E 0 95 45 64
        E 1 98 45 64
        E 1 9f 42 64
        E 0 9a 3f 64
        E 1 9e 2a 64
        E 472 85 45 64
        E 1 88 45 64
        E 0 8f 42 64
        E 1 8a 3f 64
        E 1 8e 2a 64
        E 0 95 45 64
        E 1 98 45 64
        E 1 9f 42 64
        E 0 9a 3f 64
        E 1 9e 2a 64
        E 474 80 45 64
        E 1 81 3f 64
        E 1 82 3c 63
        E 1 83 36 64
        E 0 85 45 64
        E 1 88 45 64
        E 1 8f 42 64
        E 1 8a 3f 64
        E 1 8e 2a 64
        E 0 90 44 64
        E 1 91 40 64
        E 0 92 3d 64
        E 1 93 31 64
        E 1 95 44 64
        E 0 98 44 64
        E 1 9f 40 64
        E 1 9a 40 64
        E 0 9e 31 64
        E 470 85 44 64
        E 1 88 44 64
        E 0 8f 40 64
        E 1 8a 40 64
        E 1 8e 31 64
        E 1 95 4c 64
        E 1 98 4c 64
        E 0 9f 49 64
        E 1 9a 44 64
        E 1 9e 3d 64
        E 470 85 4c 64
        E 0 88 4c 64
        E 1 8f 49 64
        E 1 8a 44 64
        E 0 8e 3d 64
        E 1 95 44 64
        E 1 98 44 64
        E 1 9f 40 64
        E 1 9a 40 64
        E 0 9e 31 64
        E 475 85 44 64
        E 1 88 44 64
        E 0 8f 40 64
        E 0 8a 40 64
        E 1 8e 31 64
        E 1 95 44 64
        E 0 98 44 64
        E 1 9f 40 64
        E 1 9a 40 64
        E 1 9e 31 64
        E 477 85 44 64
        E 1 88 44 64
        E 0 8f 40 64
        E 1 8a 40 64
        E 1 8e 31 64
        E 0 95 44 64
        E 1 98 44 64
        E 2 9f 40 64
        E 1 9a 40 64
        E 0 9e 31 64
        E 468 85 44 64
        E 1 88 44 64
        E 0 8f 40 64
        E 1 8a 40 64
        E 0 8e 31 64
        E 1 95 4c 64
        E 1 98 4c 64
        E 0 9f 49 64
        E 0 9a 44 64
        E 1 9e 3d 64
        E 477 85 4c 64
        E 1 88 4c 64
        E 1 8f 49 64
        E 1 8a 44 64
        E 0 8e 3d 64
        E 1 95 44 64
        E 1 98 44 64
        E 0 9f 40 64
        E 1 9a 40 64
        E 1 9e 31 64
        E 475 85 44 64
        E 0 88 44 64
        E 0 8f 40 64
        E 1 8a 40 64
        E 0 8e 31 64
        E 1 95 44 64
        E 0 98 44 64
        E 1 9f 40 64
        E 0 9a 40 64
        E 0 9e 31 64
        E 476 80 44 64
        E 0 81 40 64
        E 1 82 3d 64
        E 1 83 31 64
        E 1 85 44 64
        E 0 88 44 64
        E 1 8f 40 64
        E 1 8a 40 64
        E 1 8e 31 64
        E 0 90 44 64
        E 1 91 3f 64
        E 0 92 3d 64
        E 1 93 38 64
        E 1 95 44 64
        E 0 98 44 64
        E 1 9f 3f 64
        E 0 9a 3f 64
        E 1 9e 2c 64
        E 470 85 44 64
        E 0 88 44 64
        E 1 8f 3f 64
        E 0 8a 3f 64
        E 1 8e 2c 64
        E 1 95 4b 64
        E 0 98 4b 64
        E 1 9f 49 64
        E 1 9a 44 64
        E 0 9e 38 64
        E 473 85 4b 64
        E 0 88 4b 64
        E 1 8f 49 64
        E 1 8a 44 64
        E 0 8e 38 64
        E 1 95 44 64
        E 1 98 44 64
        E 0 9f 3f 64
        E 1 9a 3f 64
        E 0 9e 2c 64
        E 475 85 44 64
        E 0 88 44 64
        E 1 8f 3f 64
        E 1 8a 3f 64
        E 1 8e 2c 64
        E 0 95 44 64
        E 0 98 44 64
        E 1 9f 3f 64
        E 1 9a 3f 64
        E 0 9e 2c 64
        E 475 85 44 64
        E 1 88 44 64
        E 1 8f 3f 64
        E 1 8a 3f 64
        E 1 8e 2c 64
        E 0 95 44 64
        E 1 98 44 64
        E 1 9f 3f 64
        E 1 9a 3f 64
        E 0 9e 2c 64
        E 472 85 44 64
        E 1 88 44 64
        E 1 8f 3f 64
        E 0 8a 3f 64
        E 1 8e 2c 64
        E 1 95 4b 64
        E 1 98 4b 64
        E 0 9f 49 64
        E 1 9a 44 64
        E 1 9e 38 64
        E 473 85 4b 64
        E 1 88 4b 64
        E 0 8f 49 64
        E 0 8a 44 64
        E 0 8e 38 64
        E 1 95 44 64
        E 0 98 44 64
        E 0 9f 3f 64
        E 1 9a 3f 64
        E 0 9e 2c 64
        E 479 85 44 64
        E 0 88 44 64
        E 2 8f 3f 64
        E 1 8a 3f 64
        E 1 8e 2c 64
        E 0 95 44 64
        E 1 98 44 64
        E 0 9f 3f 64
        E 1 9a 3f 64
        E 1 9e 2c 64
        E 473 80 44 64
        E 1 81 3f 64
        E 0 82 3d 64
        E 1 83 38 64
        E 1 85 44 64
        E 1 88 44 64
        E 0 8f 3f 64
        E 1 8a 3f 64
        E 1 8e 2c 64
        E 0 90 44 64
        E 1 91 3f 64
        E 0 92 3c 63
        E 1 93 38 64
        E 1 95 44 64
        E 1 98 44 64
        E 1 9f 3f 64
        E 0 9a 3c 63
        E 1 9e 2c 64
        E 466 85 44 64
        E 0 88 44 64
        E 1 8f 3f 64
        E 1 8a 3c 63
        E 1 8e 2c 64
        E 1 95 4b 64
        E 0 98 4b 64
        E 1 9f 48 63
        E 0 9a 44 64
        E 1 9e 38 64
        E 478 85 4b 64
        E 0 88 4b 64
        E 1 8f 48 63
        E 0 8a 44 64
        E 1 8e 38 64
        E 1 95 44 64
        E 0 98 44 64
        E 1 9f 3f 64
        E 0 9a 3c 63
        E 1 9e 2c 64
        E 470 85 44 64
        E 1 88 44 64
        E 1 8f 3f 64
        E 1 8a 3c 63
        E 0 8e 2c 64
        E 1 95 44 64
        E 1 98 44 64
        E 1 9f 3f 64
        E 0 9a 3c 63
        E 1 9e 2c 64
        E 477 85 44 64
        E 1 88 44 64
        E 1 8f 3f 64
        E 1 8a 3c 63
        E 0 8e 2c 64
        E 1 95 44 64
        E 0 98 44 64
        E 1 9f 3f 64
        E 0 9a 3c 63
        E 0 9e 2c 64
        E 475 85 44 64
        E 0 88 44 64
        E 1 8f 3f 64
        E 0 8a 3c 63
        E 1 8e 2c 64
        E 1 95 4b 64
        E 0 98 4b 64
        E 1 9f 48 63
        E 0 9a 44 64
        E 1 9e 38 64
        E 472 85 4b 64
        E 1 88 4b 64
        E 0 8f 48 63
        E 1 8a 44 64
        E 0 8e 38 64
        E 1 95 44 64
        E 0 98 44 64
        E 1 9f 3f 64
        E 0 9a 3c 63
        E 1 9e 2c 64
        E 478 85 44 64
        E 1 88 44 64
        E 1 8f 3f 64
        E 1 8a 3c 63
        E 1 8e 2c 64
        E 1 95 44 64
        E 0 98 44 64
        E 1 9f 3f 64
        E 1 9a 3c 63
        E 0 9e 2c 64
        E 473 80 44 64
        E 0 81 3f 64
        E 1 82 3c 63
        E 1 83 38 64
        E 0 85 44 64
        E 0 88 44 64
        E 1 8f 3f 64
        E 1 8a 3c 63
        E 1 8e 2c 64
        E 1 90 44 64
        E 1 91 40 64
        E 0 92 3d 64
        E 1 93 31 64
        E 0 95 44 64
        E 1 98 44 64
        E 1 9f 40 64
        E 0 9a 3d 64
        E 1 9e 31 64
        E 468 85 44 64
        E 0 88 44 64
        E 1 8f 40 64
        E 1 8a 3d 64
        E 0 8e 31 64
        E 1 95 49 64
        E 1 98 49 64
        E 1 9f 49 64
        E 1 9a 49 64
        E 0 9e 3d 64
        E 474 85 49 64
        E 1 88 49 64
        E 1 8f 49 64
        E 1 8a 49 64
        E 1 8e 3d 64
        E 1 95 3d 64
        E 0 98 3d 64
        E 1 9f 3d 64
        E 1 9a 3d 64
        E 0 9e 31 64
        E 472 85 3d 64
        E 1 88 3d 64
        E 1 8f 3d 64
        E 1 8a 3d 64
        E 1 8e 31 64
        E 0 95 3d 64
        E 1 98 3d 64
        E 1 9f 3d 64
        E 0 9a 3d 64
        E 1 9e 31 64
        E 475 85 3d 64
        E 0 88 3d 64
        E 1 8f 3d 64
        E 1 8a 3d 64
        E 0 8e 31 64
        E 1 95 3d 64
        E 1 98 3d 64
        E 1 9f 3d 64
        E 1 9a 3d 64
        E 0 9e 31 64
        E 475 85 3d 64
        E 1 88 3d 64
        E 0 8f 3d 64
        E 1 8a 3d 64
        E 1 8e 31 64
        E 0 95 49 64
        E 1 98 49 64
        E 1 9f 49 64
        E 0 9a 49 64
        E 1 9e 3d 64
        E 473 85 49 64
        E 0 88 49 64
        E 1 8f 49 64
        E 0 8a 49 64
        E 1 8e 3d 64
        E 1 95 3d 64
        E 0 98 3d 64
        E 1 9f 3d 64
        E 0 9a 3d 64
        E 1 9e 31 64
        E 475 85 3d 64
        E 1 88 3d 64
        E 1 8f 3d 64
        E 1 8a 3d 64
        E 0 8e 31 64
        E 1 95 3d 64
        E 0 98 3d 64
        E 1 9f 3d 64
        E 0 9a 3d 64
        E 1 9e 31 64
        E 473 80 44 64
        E 1 81 40 64
        E 1 82 3d 64
        E 0 83 31 64
        E 1 85 3d 64
        E 1 88 3d 64
        E 0 8f 3d 64
        E 1 8a 3d 64
        E 1 8e 31 64
        E 0 95 3d 64
        E 1 98 3d 64
        E 1 9f 3d 64
        E 1 9a 3d 64
        E 0 9e 31 64
        E 471 85 3d 64
        E 0 88 3d 64
        E 1 8f 3d 64
        E 1 95 4c 64
        E 1 98 4c 64
        E 1 9f 49 64
        E 234 85 4c 64
        E 0 88 4c 64
        E 0 8f 49 64
        E 1 95 4e 64
        E 0 98 4e 64
        E 1 9f 4b 64
        E 241 85 4e 64
        E 0 88 4e 64
        E 1 8f 4b 64
        E 0 8a 3d 64
        E 1 8e 31 64
        E 0 95 50 64
        E 1 98 50 64
        E 1 9f 4c 64
        E 234 85 50 64
        E 0 88 50 64
        E 0 8f 4c 64
        E 1 95 4e 64
        E 0 98 4e 64
        E 1 9f 4b 64
        E 238 85 4e 64
        E 0 88 4e 64
        E 1 8f 4b 64
        E 0 95 50 64
        E 0 98 50 64
        E 1 9f 4c 64
        E 239 85 50 64
        E 0 88 50 64
        E 1 8f 4c 64
        E 0 95 4e 64
        E 0 98 4e 64
        E 1 9f 4b 64
        E 239 85 4e 64
        E 0 88 4e 64
        E 1 8f 4b 64
        E 0 95 4c 64
        E 0 98 4c 64
        E 1 9f 49 64
        E 479 85 4c 64
        E 0 88 4c 64
        E 1 8f 49 64
        E 1 95 4c 64
        E 0 98 4c 64
        E 1 9f 49 64
        E 233 85 4c 64
        E 0 88 4c 64
        E 0 8f 49 64
        E 0 95 4e 64
        E 0 98 4e 64
        E 1 9f 4b 64
        E 238 85 4e 64
        E 1 88 4e 64
        E 0 8f 4b 64
        E 0 95 50 64
        E 1 98 50 64
        E 0 9f 4c 64
        E 241 85 50 64
        E 0 88 50 64
        E 1 8f 4c 64
        E 0 95 4e 64
        E 0 98 4e 64
        E 1 9f 4b 64
        E 237 85 4e 64
        E 0 88 4e 64
        E 0 8f 4b 64
        E 1 95 50 64
        E 0 98 50 64
        E 0 9f 4c 64
        E 238 85 50 64
        E 1 88 50 64
        E 0 8f 4c 64
        E 0 95 4e 64
        E 1 98 4e 64
        E 0 9f 4b 64
        E 238 85 4e 64
        E 0 88 4e 64
        E 0 8f 4b 64
        E 0 90 49 64
        E 1 91 42 64
        E 0 92 3d 64
        E 0 93 3a 64
        E 1 95 4c 64
        E 0 98 4c 64
        E 0 9f 49 64
        E 0 9a 46 64
        E 0 9e 2e 64
        E 481 85 4c 64
        E 0 88 4c 64
        E 1 8f 49 64
        E 1 8e 2e 64
        E 0 95 4c 64
        E 1 98 4c 64
        E 1 9f 49 64
        E 0 9e 3a 64
        E 235 85 4c 64
        E 0 88 4c 64
        E 0 8f 49 64
        E 0 95 4e 64
        E 1 98 4e 64
        E 0 9f 4a 64
        E 238 80 49 64
        E 0 81 42 64
        E 1 82 3d 64
        E 1 83 3a 64
        E 0 85 4e 64
        E 1 88 4e 64
        E 0 8f 4a 64
        E 1 8a 46 64
        E 0 8e 3a 64
        E 1 90 49 64
        E 0 91 42 64
        E 1 92 3d 64
        E 0 93 3a 64
        E 1 95 4f 64
        E 1 98 4f 64
        E 0 9f 4c 64
        E 1 9e 2e 64
        E 232 85 4f 64
        E 0 88 4f 64
        E 0 8f 4c 64
        E 0 95 4e 64
        E 1 98 4e 64
        E 0 9f 4a 64
        E 237 80 49 64
        E 0 81 42 64
        E 1 82 3d 64
        E 1 83 3a 64
        E 0 85 4e 64
        E 0 88 4e 64
        E 1 8f 4a 64
        E 0 8e 2e 64
        E 1 90 49 64
        E 0 91 42 64
        E 1 92 3d 64
        E 1 93 3a 64
        E 0 95 4f 64
        E 1 98 4f 64
        E 0 9f 4c 64
        E 0 9e 2e 64
        E 231 85 4f 64
        E 0 88 4f 64
        E 0 8f 4c 64
        E 0 95 4e 64
        E 1 98 4e 64
        E 0 9f 4a 64
        E 244 80 49 64
        E 0 81 42 64
        E 0 82 3d 64
        E 1 83 3a 64
        E 1 85 4e 64
        E 0 88 4e 64
        E 1 8f 4a 64
        E 0 8e 2e 64
        E 1 90 49 64
        E 0 91 42 64
        E 0 92 40 64
        E 1 93 3a 64
        E 0 95 4c 64
        E 0 98 4c 64
        E 0 9f 49 64
        E 1 9a 42 64
        E 0 9e 2e 64
        E 472 8e 2e 64
        E 1 9e 3a 64
        E 481 80 49 64
        E 1 81 42 64
        E 0 82 40 64
        E 1 83 3a 64
        E 1 85 4c 64
        E 0 88 4c 64
        E 1 8f 49 64
        E 1 8a 42 64
        E 0 8e 3a 64
        E 1 90 49 64
        E 1 91 42 64
        E 1 92 40 64
        E 1 93 3a 64
        E 1 9e 2e 64
        E 467 8e 2e 64
        E 0 9e 2e 64
        E 482 80 49 64
        E 0 81 42 64
        E 1 82 40 64
        E 1 83 3a 64
        E 1 8e 2e 64
        E 0 90 4a 64
        E 1 91 42 64
        E 0 92 3e 64
        E 1 93 3b 64
        E 1 95 47 64
        E 0 98 47 64
        E 1 9f 42 64
        E 1 9a 3e 64
        E 0 9e 2f 64
        E 471 85 47 64
        E 1 88 47 64
        E 1 8f 42 64
        E 1 8a 3e 64
        E 0 8e 2f 64
        E 1 95 4e 64
        E 1 98 4e 64
        E 1 9f 4a 64
        E 0 9a 47 64
        E 1 9e 3b 64
        E 474 85 4e 64
        E 1 88 4e 64
        E 0 8f 4a 64
        E 1 8a 47 64
        E 0 8e 3b 64
        E 1 95 47 64
        E 1 98 47 64
        E 1 9f 42 64
        E 1 9a 3e 64
        E 1 9e 2f 64
        E 470 85 47 64
        E 0 88 47 64
        E 1 8f 42 64
        E 1 8a 3e 64
        E 0 8e 2f 64
        E 1 95 47 64
        E 1 98 47 64
        E 0 9f 42 64
        E 1 9a 3e 64
        E 1 9e 2f 64
        E 475 80 4a 64
        E 1 81 42 64
        E 1 82 3e 64
        E 1 83 3b 64
        E 1 85 47 64
        E 0 88 47 64
        E 1 8f 42 64
        E 1 8a 3e 64
        E 1 8e 2f 64
        E 0 90 4a 64
        E 1 91 42 64
        E 1 92 3e 64
        E 1 93 3b 64
        E 1 95 47 64
        E 0 98 47 64
        E 1 9f 42 64
        E 1 9a 3e 64
        E 0 9e 2f 64
        E 471 85 47 64
        E 0 88 47 64
        E 1 8f 42 64
        E 0 8a 3e 64
        E 1 8e 2f 64
        E 2 95 4e 64
        E 0 98 4e 64
        E 1 9f 4a 64
        E 1 9a 47 64
        E 0 9e 3b 64
        E 473 85 4e 64
        E 0 88 4e 64
        E 1 8f 4a 64
        E 0 8a 47 64
        E 1 8e 3b 64
        E 0 95 47 64
        E 1 98 47 64
        E 0 9f 42 64
        E 1 9a 3e 64
        E 1 9e 2f 64
        E 472 85 47 64
        E 0 88 47 64
        E 1 8f 42 64
        E 1 8a 3e 64
        E 1 8e 2f 64
        E 0 95 47 64
        E 1 98 47 64
        E 1 9f 42 64
        E 1 9a 3e 64
        E 1 9e 2f 64
        E 476 80 4a 64
        E 1 81 42 64
        E 1 82 3e 64
        E 1 83 3b 64
        E 1 85 47 64
        E 1 88 47 64
        E 0 8f 42 64
        E 1 8a 3e 64
        E 1 8e 2f 64
        E 0 90 47 64
        E 1 91 40 64
        E 1 92 3e 64
        E 0 93 38 64
        E 1 95 47 64
        E 1 98 47 64
        E 1 9f 40 64
        E 1 9a 3e 64
        E 0 9e 2c 64
        E 465 85 47 64
        E 1 88 47 64
        E 1 8f 40 64
        E 1 8e 2c 64
        E 0 95 4a 64
        E 1 98 4a 64
        E 0 9f 47 64
        E 1 9e 38 64
        E 235 85 4a 64
        E 1 88 4a 64
        E 0 8f 47 64
        E 0 95 4c 64
        E 1 98 4c 64
        E 0 9f 49 64
        E 239 80 47 64
        E 0 81 40 64
        E 1 82 3e 64
        E 0 83 38 64
        E 0 85 4c 64
        E 0 88 4c 64
        E 1 8f 49 64
        E 0 8a 3e 64
        E 0 8e 38 64
        E 1 90 47 64
        E 0 91 40 64
        E 0 92 3e 64
        E 0 93 38 64
        E 1 95 4e 64
        E 0 98 4e 64
        E 0 9f 4a 64
        E 0 9e 2c 64
        E 236 85 4e 64
        E 0 88 4e 64
        E 0 8f 4a 64
        E 1 95 4c 64
        E 0 98 4c 64
        E 1 9f 49 64
        E 236 80 47 64
        E 1 81 40 64
        E 0 82 3e 64
        E 0 83 38 64
        E 1 85 4c 64
        E 0 88 4c 64
        E 1 8f 49 64
        E 0 8e 2c 64
        E 0 90 47 64
        E 1 91 40 64
        E 0 92 3e 64
        E 0 93 38 64
        E 0 95 4e 64
        E 0 98 4e 64
        E 0 9f 4a 64
        E 0 9e 2c 64
        E 238 85 4e 64
        E 0 88 4e 64
        E 1 8f 4a 64
        E 0 95 4c 64
        E 0 98 4c 64
        E 0 9f 49 64
        E 240 80 47 64
        E 0 81 40 64
        E 0 82 3e 64
        E 1 83 38 64
        E 0 85 4c 64
        E 0 88 4c 64
        E 1 8f 49 64
        E 0 8e 2c 64
        E 0 90 47 64
        E 1 91 40 64
        E 0 92 3e 64
        E 0 93 38 64
        E 1 95 4a 64
        E 0 98 4a 64
        E 1 9f 47 64
        E 0 9a 3e 64
        E 0 9e 2c 64
        E 476 8e 2c 64
        E 0 9e 38 64
        E 476 80 47 64
        E 1 81 40 64
        E 0 82 3e 64
        E 1 83 38 64
        E 1 85 4a 64
        E 0 88 4a 64
        E 1 8f 47 64
        E 1 8a 3e 64
        E 0 8e 38 64
        E 1 90 47 64
        E 1 91 40 64
        E 0 92 3e 64
        E 1 93 38 64
        E 1 9e 2c 64
        E 471 8e 2c 64
        E 1 9e 2c 64
        E 482 80 47 64
        E 0 81 40 64
        E 2 82 3e 64
        E 1 83 38 64
        E 0 8e 2c 64
        E 1 90 49 64
        E 1 91 40 64
        E 1 92 3d 64
        E 0 93 39 64
        E 1 95 45 64
        E 0 98 45 64
        E 1 9f 40 64
        E 1 9a 3d 64
        E 0 9e 2d 64
        E 470 85 45 64
        E 0 88 45 64
        E 1 8f 40 64
        E 1 8a 3d 64
        E 1 8e 2d 64
        E 1 95 4c 64
        E 0 98 4c 64
        E 1 9f 49 64
        E 0 9a 45 64
        E 1 9e 39 64
        E 476 85 4c 64
        E 1 88 4c 64
        E 0 8f 49 64
        E 1 8a 45 64
        E 1 8e 39 64
        E 1 95 45 64
        E 0 98 45 64
        E 1 9f 40 64
        E 1 9a 3d 64
        E 1 9e 2d 64
        E 472 85 45 64
        E 1 88 45 64
        E 1 8f 40 64
        E 1 8a 3d 64
        E 0 8e 2d 64
        E 1 95 45 64
        E 0 98 45 64
        E 1 9f 40 64
        E 0 9a 3d 64
        E 2 9e 2d 64
        E 471 80 49 64
        E 1 81 40 64
        E 0 82 3d 64
        E 1 83 39 64
        E 0 85 45 64
        E 1 88 45 64
        E 0 8f 40 64
        E 1 8a 3d 64
        E 0 8e 2d 64
        E 1 90 49 64
        E 1 91 45 64
        E 0 92 40 64
        E 1 93 39 64
        E 0 95 45 64
        E 1 98 45 64
        E 1 9f 40 64
        E 0 9a 3d 64
        E 0 9e 2d 64
        E 472 85 45 64
        E 0 88 45 64
        E 1 8f 40 64
        E 0 8a 3d 64
        E 0 8e 2d 64
        E 1 95 4c 64
        E 0 98 4c 64
        E 1 9f 49 64
        E 0 9a 45 64
        E 1 9e 39 64
        E 476 85 4c 64
        E 0 88 4c 64
        E 1 8f 49 64
        E 0 8a 45 64
        E 1 8e 39 64
        E 1 95 45 64
        E 0 98 45 64
        E 1 9f 40 64
        E 1 9a 3d 64
        E 1 9e 2d 64
        E 473 85 45 64
        E 0 88 45 64
        E 1 8f 40 64
        E 1 8a 3d 64
        E 1 8e 2d 64
        E 0 95 45 64
        E 0 98 45 64
        E 1 9f 40 64
        E 1 9a 3d 64
        E 0 9e 2d 64
        E 476 80 49 64
        E 2 81 45 64
        E 1 82 40 64
        E 0 83 39 64
        E 1 85 45 64
        E 1 88 45 64
        E 1 8f 40 64
        E 1 8a 3d 64
        E 0 8e 2d 64
        E 1 90 49 64
        E 0 91 45 64
        E 1 92 42 64
        E 0 93 33 64
        E 1 95 45 64
        E 0 98 45 64
        E 1 9f 42 64
        E 0 9a 3f 64
        E 1 9e 33 64
        E 468 85 45 64
        E 1 88 45 64
        E 0 8f 42 64
        E 1 8a 3f 64
        E 1 8e 33 64
        E 1 95 4e 64
        E 1 98 4e 64
        E 0 9f 4b 64
        E 1 9a 45 64
        E 1 9e 3f 64
        E 473 85 4e 64
        E 0 88 4e 64
        E 1 8f 4b 64
        E 1 8a 45 64
        E 0 8e 3f 64
        E 1 95 45 64
        E 1 98 45 64
        E 0 9f 42 64
        E 1 9a 3f 64
        E 0 9e 33 64
        E 478 85 45 64
        E 1 88 45 64
        E 0 8f 42 64
        E 1 8a 3f 64
        E 1 8e 33 64
        E 1 95 45 64
        E 1 98 45 64
        E 0 9f 42 64
        E 1 9a 3f 64
        E 1 9e 33 64
        E 469 85 45 64
        E 0 88 45 64
        E 1 8f 42 64
        E 0 8a 3f 64
        E 1 8e 33 64
        E 1 95 45 64
        E 0 98 45 64
        E 1 9f 42 64
        E 1 9a 3f 64
        E 0 9e 33 64
        E 478 85 45 64
        E 0 88 45 64
        E 1 8f 42 64
        E 1 8a 3f 64
        E 1 8e 33 64
        E 1 95 4e 64
        E 0 98 4e 64
        E 1 9f 4b 64
        E 1 9a 45 64
        E 0 9e 3f 64
        E 472 85 4e 64
        E 0 88 4e 64
        E 1 8f 4b 64
        E 0 8a 45 64
        E 1 8e 3f 64
        E 1 95 45 64
        E 1 98 45 64
        E 0 9f 42 64
        E 1 9a 3f 64
        E 1 9e 33 64
        E 473 85 45 64
        E 1 88 45 64
        E 1 8f 42 64
        E 0 8a 3f 64
        E 2 8e 33 64
        E 0 95 45 64
        E 1 98 45 64
        E 1 9f 42 64
        E 0 9a 3f 64
        E 1 9e 33 64
        E 475 80 49 64
        E 1 81 45 64
        E 1 82 42 64
        E 0 83 33 64
        E 1 85 45 64
        E 1 88 45 64
        E 0 8f 42 64
        E 1 8a 3f 64
        E 0 8e 33 64
        E 1 90 47 64
        E 1 91 44 64
        E 0 92 3b 64
        E 1 93 34 64
        E 1 95 44 64
        E 0 98 44 64
        E 1 9f 40 64
        E 1 9a 3b 64
        E 0 9e 34 64
        E 468 85 44 64
        E 0 88 44 64
        E 1 8f 40 64
        E 1 8a 3b 64
        E 1 8e 34 64
        E 0 95 4c 64
        E 1 98 4c 64
        E 0 9f 4c 64
        E 1 9a 4c 64
        E 1 9e 40 64
        E 475 85 4c 64
        E 0 88 4c 64
        E 0 8f 4c 64
        E 1 8a 4c 64
        E 1 8e 40 64
        E 0 95 40 64
        E 1 98 40 64
        E 1 9f 40 64
        E 1 9a 40 64
        E 0 9e 34 64
        E 473 85 40 64
        E 0 88 40 64
        E 1 8f 40 64
        E 1 8a 40 64
        E 1 8e 34 64
        E 0 95 40 64
        E 1 98 40 64
        E 1 9f 40 64
        E 0 9a 40 64
        E 1 9e 34 64
        E 472 80 47 64
        E 1 81 44 64
        E 1 82 3b 64
        E 1 83 34 64
        E 0 85 40 64
        E 1 88 40 64
        E 3 8f 40 64
        E 1 8a 40 64
        E 1 8e 34 64
        E 0 95 40 64
        E 1 98 40 64
        E 1 9f 40 64
        E 0 9a 40 64
        E 1 9e 34 64
        E 472 85 40 64
        E 1 88 40 64
        E 1 8f 40 64
        E 1 8a 40 64
        E 0 8e 34 64
        E 1 95 4c 64
        E 0 98 4c 64
        E 1 9f 4c 64
        E 1 9a 4c 64
        E 0 9e 40 64
        E 472 85 4c 64
        E 1 88 4c 64
        E 1 8f 4c 64
        E 0 8a 4c 64
        E 0 8e 40 64
        E 1 95 40 64
        E 0 98 40 64
        E 1 9f 40 64
        E 0 9a 40 64
        E 1 9e 34 64
        E 476 85 40 64
        E 1 88 40 64
        E 0 8f 40 64
        E 1 8a 40 64
        E 1 8e 34 64
        E 0 95 40 64
        E 1 98 40 64
        E 1 9f 40 64
        E 0 9a 40 64
        E 1 9e 34 64
        E 473 85 40 64
        E 2 88 40 64
        E 1 8f 40 64
        E 0 8a 40 64
        E 1 8e 34 64
        E 1 90 4a 64
        E 1 91 44 64
        E 0 92 3b 64
        E 1 93 34 64
        E 1 95 40 64
        E 1 98 40 64
        E 0 9f 40 64
        E 1 9a 40 64
        E 0 9e 34 64
        E 471 85 40 64
        E 0 88 40 64
        E 1 8f 40 64
        E 1 8e 34 64
        E 1 95 50 64
        E 1 98 50 64
        E 0 9f 4c 64
        E 1 9e 40 64
        E 232 85 50 64
        E 0 88 50 64
        E 1 8f 4c 64
        E 0 95 51 64
        E 1 98 51 64
        E 0 9f 4e 64
        E 240 80 4a 64
        E 0 81 44 64
        E 0 82 3b 64
        E 0 83 34 64
        E 1 85 51 64
        E 0 88 51 64
        E 0 8f 4e 64
        E 0 8a 40 64
        E 0 8e 40 64
        E 1 90 4a 64
        E 0 91 44 64
        E 0 92 3b 64
        E 0 93 34 64
        E 0 95 53 64
        E 1 98 53 64
        E 0 9f 50 64
        E 0 9e 34 64
        E 237 85 53 64
        E 0 88 53 64
        E 1 8f 50 64
        E 0 95 51 64
        E 0 98 51 64
        E 0 9f 4e 64
        E 238 80 4a 64
        E 0 81 44 64
        E 1 82 3b 64
        E 0 83 34 64
        E 0 85 51 64
        E 1 88 51 64
        E 0 8f 4e 64
        E 1 8e 34 64
        E 0 90 4a 64
        E 0 91 44 64
        E 0 92 3b 64
        E 0 93 34 64
        E 0 95 53 64
        E 1 98 53 64
        E 0 9f 50 64
        E 0 9e 34 64
        E 238 85 53 64
        E 0 88 53 64
        E 0 8f 50 64
        E 1 95 51 64
        E 0 98 51 64
        E 1 9f 4e 64
        E 235 80 4a 64
        E 1 81 44 64
        E 0 82 3b 64
        E 0 83 34 64
        E 0 85 51 64
        E 0 88 51 64
        E 0 8f 4e 64
        E 1 8e 34 64
        E 0 90 4a 64
        E 0 91 44 64
        E 1 92 3b 64
        E 0 93 34 64
        E 0 95 50 64
        E 0 98 50 64
        E 0 9f 4c 64
        E 0 9a 47 64
        E 0 9e 34 64
        E 479 8e 34 64
        E 1 9e 40 64
        E 481 80 4a 64
        E 1 81 44 64
        E 0 82 3b 64
        E 1 83 34 64
        E 1 85 50 64
        E 1 88 50 64
        E 1 8f 4c 64
        E 0 8a 47 64
        E 1 8e 40 64
        E 1 90 4a 64
        E 0 91 44 64
        E 1 92 40 64
        E 1 93 34 64
        E 1 9e 34 64
        E 470 8e 34 64
        E 0 9e 34 64
        E 481 80 4a 64
        E 1 81 44 64
        E 1 82 40 64
        E 0 83 34 64
        E 1 8e 34 64
        E 1 90 49 64
        E 0 91 43 64
        E 1 92 40 64
        E 1 93 2d 64
        E 0 94 4c 64
        E 1 95 49 64
        E 0 98 4c 64
        E 1 9f 49 64
        E 1 9a 45 64
        E 1 9e 2d 64
        E 470 84 4c 64
        E 0 85 49 64
        E 1 88 4c 64
        E 1 8f 49 64
        E 0 8a 45 64
        E 1 8e 2d 64
        E 0 94 51 64
        E 0 95 4c 64
        E 0 98 51 64
        E 0 9f 4c 64
        E 0 9a 49 64
        E 1 9e 39 64
        E 475 82 40 64
        E 1 84 51 64
        E 0 85 4c 64
        E 1 88 51 64
        E 1 8f 4c 64
        E 1 8a 49 64
        E 0 8e 39 64
        E 1 92 3d 64
        E 0 94 4c 64
        E 1 95 49 64
        E 0 98 4c 64
        E 1 9f 49 64
        E 0 9a 45 64
        E 1 9e 2d 64
        E 471 84 4c 64
        E 1 85 49 64
        E 1 88 4c 64
        E 0 8f 49 64
        E 1 8a 45 64
        E 1 8e 2d 64
        E 0 94 4c 64
        E 1 95 49 64
        E 1 98 4c 64
        E 1 9f 49 64
        E 0 9a 45 64
        E 1 9e 2d 64
        E 473 80 49 64
        E 1 81 43 64
        E 1 82 3d 64
        E 1 83 2d 64
        E 0 84 4c 64
        E 1 85 49 64
        E 1 88 4c 64
        E 1 8f 49 64
        E 1 8a 45 64
        E 1 8e 2d 64
        E 0 90 4a 64
        E 2 91 42 64
        E 0 92 39 64
        E 1 93 32 64
        E 0 94 4e 64
        E 1 95 4a 64
        E 1 98 4e 64
        E 0 9f 4a 64
        E 1 9a 45 64
        E 0 9e 32 64
        E 465 84 4e 64
        E 0 85 4a 64
        E 1 88 4e 64
        E 2 8f 4a 64
        E 0 8a 45 64
        E 1 8e 32 64
        E 1 94 51 64
        E 1 95 4e 64
        E 0 98 51 64
        E 1 9f 4e 64
        E 0 9a 4a 64
        E 1 9e 3e 64
        E 473 84 51 64
        E 0 85 4e 64
        E 1 88 51 64
        E 1 8f 4e 64
        E 0 8a 4a 64
        E 1 8e 3e 64
        E 1 94 4e 64
        E 0 95 4a 64
        E 1 98 4e 64
        E 0 9f 4a 64
        E 1 9a 45 64
        E 0 9e 32 64
        E 473 84 4e 64
        E 1 85 4a 64
        E 0 88 4e 64
        E 1 8f 4a 64
        E 0 8a 45 64
        E 1 8e 32 64
        E 1 94 4e 64
        E 1 95 4a 64
        E 1 98 4e 64
        E 0 9f 4a 64
        E 1 9a 45 64
        E 1 9e 32 64
        E 471 80 4a 64
        E 1 81 42 64
        E 1 82 39 64
        E 1 83 32 64
        E 1 84 4e 64
        E 0 85 4a 64
        E 1 88 4e 64
        E 1 8f 4a 64
        E 0 8a 45 64
        E 1 8e 32 64
        E 1 90 4a 64
        E 1 91 40 64
        E 0 92 39 64
        E 1 93 39 64
        E 1 94 4c 64
        E 0 95 4a 64
        E 1 98 4c 64
        E 0 9f 4a 64
        E 1 9a 45 64
        E 1 9e 2d 64
        E 466 84 4c 64
        E 0 85 4a 64
        E 0 88 4c 64
        E 1 8f 4a 64
        E 1 8a 45 64
        E 0 8e 2d 64
        E 1 94 51 64
        E 1 95 4c 64
        E 0 98 51 64
        E 1 9f 4c 64
        E 0 9a 4a 64
        E 1 9e 39 64
        E 475 84 51 64
        E 1 85 4c 64
        E 0 88 51 64
        E 0 8f 4c 64
        E 1 8a 4a 64
        E 0 8e 39 64
        E 0 94 4c 64
        E 1 95 4a 64
        E 0 98 4c 64
        E 1 9f 4a 64
        E 0 9a 45 64
        E 0 9e 2d 64
        E 477 84 4c 64
        E 0 85 4a 64
        E 1 88 4c 64
        E 1 8f 4a 64
        E 0 8a 45 64
        E 1 8e 2d 64
        E 1 94 4c 64
        E 0 95 4a 64
        E 1 98 4c 64
        E 1 9f 4a 64
        E 0 9a 45 64
        E 1 9e 2d 64
        E 470 80 4a 64
        E 1 83 39 64
        E 0 84 4c 64
        E 1 85 4a 64
        E 1 88 4c 64
        E 0 8f 4a 64
        E 1 8a 45 64
        E 1 8e 2d 64
        E 0 90 49 64
        E 1 93 2d 64
        E 0 94 4c 64
        E 1 95 49 64
        E 1 98 4c 64
        E 1 9f 49 64
        E 0 9a 45 64
        E 1 9e 2d 64
        E 472 84 4c 64
        E 0 85 49 64
        E 1 88 4c 64
        E 1 8f 49 64
        E 1 8a 45 64
        E 1 8e 2d 64
        E 1 94 51 64
        E 0 95 4c 64
        E 1 98 51 64
        E 1 9f 4c 64
        E 1 9a 49 64
        E 0 9e 39 64
        E 470 84 51 64
        E 1 85 4c 64
        E 0 88 51 64
        E 1 8f 4c 64
        E 1 8a 49 64
        E 1 8e 39 64
        E 1 94 4c 64
        E 1 95 49 64
        E 0 98 4c 64
        E 3 9f 49 64
        E 0 9a 45 64
        E 1 9e 2d 64
        E 471 84 4c 64
        E 0 85 49 64
        E 1 88 4c 64
        E 0 8f 49 64
        E 1 8a 45 64
        E 1 8e 2d 64
        E 0 94 4c 64
        E 1 95 49 64
        E 1 98 4c 64
        E 0 9f 49 64
        E 1 9a 45 64
        E 1 9e 2d 64
        E 471 80 49 64
        E 1 81 40 64
        E 1 82 39 64
        E 1 83 2d 64
        E 0 84 4c 64
        E 1 85 49 64
        E 0 88 4c 64
        E 1 8f 49 64
        E 1 8a 45 64
        E 0 8e 2d 64
        E 1 90 4a 64
        E 0 91 42 64
        E 2 92 39 64
        E 0 93 32 64
        E 1 94 4e 64
        E 0 95 4a 64
        E 1 98 4e 64
        E 1 9f 4a 64
        E 0 9a 45 64
        E 1 9e 32 64
        E 470 84 4e 64
        E 1 85 4a 64
        E 0 88 4e 64
        E 0 8f 4a 64
        E 0 8a 45 64
        E 1 8e 32 64
        E 0 94 4a 64
        E 0 95 4a 64
        E 1 98 4a 64
        E 1 9f 4a 64
        E 0 9a 4a 64
        E 1 9e 3e 64
        E 473 84 4a 64
        E 1 85 4a 64
        E 0 88 4a 64
        E 1 8f 4a 64
        E 1 8a 4a 64
        E 1 8e 3e 64
        E 2 94 3e 64
        E 1 95 3e 64
        E 1 98 3e 64
        E 1 9f 3e 64
        E 0 9a 3e 64
        E 1 9e 32 64
        E 472 84 3e 64
        E 1 85 3e 64
        E 1 88 3e 64
        E 1 8f 3e 64
        E 1 8a 3e 64
        E 0 8e 32 64
        E 1 94 3e 64
        E 0 95 3e 64
        E 1 98 3e 64
        E 1 9f 3e 64
        E 1 9a 3e 64
        E 0 9e 32 64
        E 474 80 4a 64
        E 1 81 42 64
        E 1 82 39 64
        E 0 83 32 64
        E 1 84 3e 64
        E 1 85 3e 64
        E 1 88 3e 64
        E 1 8f 3e 64
        E 0 8a 3e 64
        E 0 8e 32 64
        E 1 94 3e 64
        E 1 95 3e 64
        E 0 98 3e 64
        E 0 9f 3e 64
        E 1 9a 3e 64
        E 0 9e 32 64
        E 469 84 3e 64
        E 1 85 3e 64
        E 0 88 3e 64
        E 1 8f 3e 64
        E 1 8a 3e 64
        E 0 8e 32 64
        E 1 94 4a 64
        E 1 95 4a 64
        E 0 98 4a 64
        E 1 9f 4a 64
        E 0 9a 4a 64
        E 1 9e 3e 64
        E 474 84 4a 64
        E 0 85 4a 64
        E 1 88 4a 64
        E 0 8f 4a 64
        E 1 8a 4a 64
        E 1 8e 3e 64
        E 0 94 3e 64
        E 1 95 3e 64
        E 0 98 3e 64
        E 1 9f 3e 64
        E 0 9a 3e 64
        E 0 9e 32 64
        E 471 84 3e 64
        E 1 85 3e 64
        E 1 88 3e 64
        E 0 8f 3e 64
        E 1 8a 3e 64
        E 1 8e 32 64
        E 1 94 3e 64
        E 1 95 3e 64
        E 0 98 3e 64
        E 1 9f 3e 64
        E 1 9a 3e 64
        E 2 9e 32 64
        E 470 84 3e 64
        E 1 85 3e 64
        E 1 88 3e 64
        E 1 8f 3e 64
        E 1 8a 3e 64
        E 0 8e 32 64
        E 1 94 3e 64
        E 1 95 3e 64
        E 1 98 3e 64
        E 1 9f 3e 64
        E 1 9a 3e 64
        E 0 9e 32 64
        E 475 85 3e 64
        E 0 88 3e 64
        E 1 8f 3e 64
        E 1 8a 3e 64
        E 1 8e 32 64
        E 0 95 42 64
        E 1 98 42 64
        E 0 9f 42 64
        E 1 9a 3e 64
        E 1 9e 32 64
        E 234 85 42 64
        E 0 88 42 64
        E 1 8f 42 64
        E 0 8a 3e 64
        E 0 8e 32 64
        E 0 95 43 64
        E 0 98 43 64
        E 1 9f 43 64
        E 0 9a 40 64
        E 0 9e 34 64
        E 236 84 3e 64
        E 1 85 43 64
        E 0 88 43 64
        E 1 8f 43 64
        E 0 8a 40 64
        E 1 8e 34 64
        E 0 95 45 64
        E 1 98 45 64
        E 1 9f 45 64
        E 1 9a 42 64
        E 0 9e 36 64
        E 475 85 45 64
        E 0 88 45 64
        E 1 8f 45 64
        E 1 8a 42 64
        E 1 8e 36 64
        E 1 95 43 64
        E 0 98 43 64
        E 1 9f 43 64
        E 0 9a 40 64
        E 3 9e 34 64
        E 473 85 43 64
        E 1 88 43 64
        E 1 8f 43 64
        E 0 8a 40 64
        E 1 8e 34 64
        E 0 95 42 64
        E 1 98 42 64
        E 0 9f 42 64
        E 1 9a 3e 64
        E 0 9e 32 64
        E 474 85 42 64
        E 0 88 42 64
        E 0 8f 42 64
        E 1 8a 3e 64
        E 0 8e 32 64
        E 1 95 42 64
        E 0 98 42 64
        E 1 9f 42 64
        E 0 9a 3e 64
        E 1 9e 32 64
        E 235 85 42 64
        E 0 88 42 64
        E 1 8f 42 64
        E 0 8a 3e 64
        E 1 8e 32 64
        E 0 95 43 64
        E 1 98 43 64
        E 0 9f 43 64
        E 0 9a 40 64
        E 1 9e 34 64
        E 237 85 43 64
        E 0 88 43 64
        E 0 8f 43 64
        E 0 8a 40 64
        E 0 8e 34 64
        E 0 95 45 64
        E 1 98 45 64
        E 0 9f 45 64
        E 0 9a 42 64
        E 0 9e 36 64
        E 479 85 45 64
        E 0 88 45 64
        E 1 8f 45 64
        E 1 8a 42 64
        E 1 8e 36 64
        E 0 95 43 64
        E 1 98 43 64
        E 0 9f 43 64
        E 1 9a 40 64
        E 0 9e 34 64
        E 473 85 43 64
        E 0 88 43 64
        E 1 8f 43 64
        E 0 8a 40 64
        E 1 8e 34 64
        E 1 94 3e 64
        E 1 95 42 64
        E 0 98 42 64
        E 1 9f 42 64
        E 1 9a 3e 64
        E 1 9e 32 64
        E 477 84 3e 64
        E 0 85 42 64
        E 1 88 42 64
        E 1 8f 42 64
        E 0 8a 3e 64
        E 1 8e 32 64
        E 1 94 4a 64
        E 0 95 4a 64
        E 1 98 4a 64
        E 0 9f 4a 64
        E 1 9a 4a 64
        E 1 9e 3e 64
        E 468 84 4a 64
        E 1 85 4a 64
        E 1 88 4a 64
        E 1 8f 4a 64
        E 1 8a 4a 64
        E 1 8e 3e 64
        E 0 94 3e 64
        E 1 95 3e 64
        E 1 98 3e 64
        E 0 9f 3e 64
        E 1 9a 3e 64
        E 0 9e 32 64
        E 476 84 3e 64
        E 1 85 3e 64
        E 1 88 3e 64
        E 0 8f 3e 64
        E 1 8a 3e 64
        E 0 8e 32 64
        E 1 94 3e 64
        E 1 95 3e 64
        E 0 98 3e 64
        E 1 9f 3e 64
        E 1 9a 3e 64
        E 0 9e 32 64
        E 473 84 3e 64
        E 1 85 3e 64
        E 0 88 3e 64
        E 1 8f 3e 64
        E 1 8a 3e 64
        E 0 8e 32 64
        E 1 94 3e 64
        E 0 95 3e 64
        E 1 98 3e 64
        E 1 9f 3e 64
        E 0 9a 3e 64
        E 1 9e 32 64
        E 471 84 3e 64
        E 1 85 3e 64
        E 1 88 3e 64
        E 1 8f 3e 64
        E 0 8a 3e 64
        E 0 8e 32 64
        E 1 94 4a 64
        E 1 95 4a 64
        E 0 98 4a 64
        E 1 9f 4a 64
        E 1 9a 4a 64
        E 0 9e 3e 64
        E 473 84 4a 64
        E 1 85 4a 64
        E 0 88 4a 64
        E 1 8f 4a 64
        E 0 8a 4a 64
        E 1 8e 3e 64
        E 0 94 3e 64
        E 1 95 3e 64
        E 0 98 3e 64
        E 1 9f 3e 64
        E 0 9a 3e 64
        E 1 9e 32 64
        E 474 84 3e 64
        E 0 85 3e 64
        E 0 88 3e 64
        E 0 8f 3e 64
        E 1 8a 3e 64
        E 0 8e 32 64
        E 1 94 3e 64
        E 0 95 3e 64
        E 1 98 3e 64
        E 0 9f 3e 64
        E 1 9a 3e 64
        E 0 9e 32 64
        E 476 84 3e 64
        E 1 85 3e 64
        E 1 88 3e 64
        E 1 8f 3e 64
        E 1 8a 3e 64
        E 0 8e 32 64
        E 1 90 45 64
        E 1 92 3e 64
        E 1 94 3e 64
        E 0 95 3e 64
        E 1 98 4a 64
        E 3 9f 3e 64
        E 1 9a 3e 64
        E 1 9e 32 64
        E 469 88 4a 64
        E 0 8f 3e 64
        E 1 8a 3e 64
        E 1 8e 32 64
        E 1 98 4e 64
        E 1 9f 4a 64
        E 0 9a 45 64
        E 1 9e 3e 64
        E 234 88 4e 64
        E 0 8f 4a 64
        E 0 98 4f 64
        E 0 9f 4c 64
        E 240 80 45 64
        E 0 84 3e 64
        E 0 85 3e 64
        E 0 88 4f 64
        E 1 8f 4c 64
        E 0 8a 45 64
        E 0 8e 3e 64
        E 1 90 45 64
        E 0 98 51 64
        E 0 9f 4e 64
        E 0 9a 45 64
        E 0 9e 32 64
        E 236 88 51 64
        E 1 8f 4e 64
        E 0 98 4f 64
        E 1 9f 4c 64
        E 238 88 4f 64
        E 1 8f 4c 64
        E 0 8a 45 64
        E 1 8e 32 64
        E 0 94 51 64
        E 0 95 4e 64
        E 1 98 51 64
        E 0 9f 4e 64
        E 0 9a 45 64
        E 0 9e 32 64
        E 239 88 51 64
        E 0 8f 4e 64
        E 1 98 4e 64
        E 0 9f 4a 64
        E 238 80 45 64
        E 1 82 3e 64
        E 0 84 51 64
        E 1 85 4e 64
        E 0 88 4e 64
        E 0 8f 4a 64
        E 0 8a 45 64
        E 1 8e 32 64
        E 0 90 47 64
        E 1 91 42 64
        E 0 92 3e 64
        E 0 93 32 64
        E 0 94 53 64
        E 1 95 4e 64
        E 0 98 53 64
        E 0 9f 4e 64
        E 0 9a 42 64
        E 0 9e 32 64
        E 235 88 53 64
        E 0 8f 4e 64
        E 0 98 4e 64
        E 1 9f 4a 64
        E 238 84 53 64
        E 0 85 4e 64
        E 1 88 4e 64
        E 0 8f 4a 64
        E 1 8a 42 64
        E 0 8e 32 64
        E 1 94 53 64
        E 0 95 4e 64
        E 1 98 53 64
        E 0 9f 4e 64
        E 0 9a 42 64
        E 0 9e 3e 64
        E 234 88 53 64
        E 0 8f 4e 64
        E 1 98 4e 64
        E 0 9f 4a 64
        E 243 81 42 64
        E 0 83 32 64
        E 0 84 53 64
        E 1 85 4e 64
        E 0 88 4e 64
        E 0 8f 4a 64
        E 1 8a 42 64
        E 0 8e 3e 64
        E 0 91 42 64
        E 1 93 32 64
        E 0 94 53 64
        E 0 95 4e 64
        E 1 98 53 64
        E 0 9f 4e 64
        E 0 9a 42 64
        E 0 9e 32 64
        E 235 88 53 64
        E 0 8f 4e 64
        E 0 98 4e 64
        E 1 9f 4a 64
        E 240 84 53 64
        E 0 85 4e 64
        E 0 88 4e 64
        E 1 8f 4a 64
        E 0 8a 42 64
        E 1 8e 32 64
        E 0 94 53 64
        E 1 95 4e 64
        E 0 98 53 64
        E 0 9f 4e 64
        E 1 9a 42 64
        E 0 9e 32 64
        E 235 88 53 64
        E 0 8f 4e 64
        E 1 98 4e 64
        E 0 9f 4a 64
        E 238 80 47 64
        E 0 81 42 64
        E 1 82 3e 64
        E 0 83 32 64
        E 1 84 53 64
        E 0 85 4e 64
        E 0 88 4e 64
        E 1 8f 4a 64
        E 0 8a 42 64
        E 1 8e 32 64
        E 0 90 47 64
        E 0 91 43 64
        E 0 92 40 64
        E 0 93 31 64
        E 0 94 53 64
        E 0 95 4f 64
        E 0 98 53 64
        E 0 9f 4f 64
        E 0 9a 40 64
        E 0 9e 31 64
        E 238 88 53 64
        E 0 8f 4f 64
        E 1 98 4f 64
        E 0 9f 4c 64
        E 240 84 53 64
        E 0 85 4f 64
        E 1 88 4f 64
        E 0 8f 4c 64
        E 0 8a 40 64
        E 1 8e 31 64
        E 0 94 53 64
        E 1 95 4f 64
        E 0 98 53 64
        E 1 9f 4f 64
        E 0 9a 40 64
        E 0 9e 3d 64
        E 232 88 53 64
        E 0 8f 4f 64
        E 1 98 4f 64
        E 0 9f 4c 64
        E 240 84 53 64
        E 0 85 4f 64
        E 1 88 4f 64
        E 0 8f 4c 64
        E 0 8a 40 64
        E 1 8e 3d 64
        E 0 94 53 64
        E 0 95 4f 64
        E 0 98 53 64
        E 1 9f 4f 64
        E 0 9a 40 64
        E 0 9e 31 64
        E 237 88 53 64
        E 0 8f 4f 64
        E 1 98 4f 64
        E 0 9f 4c 64
        E 240 84 53 64
        E 1 85 4f 64
        E 0 88 4f 64
        E 1 8f 4c 64
        E 0 8a 40 64
        E 1 8e 31 64
        E 0 94 53 64
        E 1 95 4f 64
        E 0 98 53 64
        E 0 9f 4f 64
        E 0 9a 40 64
        E 0 9e 31 64
        E 235 88 53 64
        E 0 8f 4f 64
        E 1 98 4f 64
        E 0 9f 4c 64
        E 242 80 47 64
        E 1 81 43 64
        E 1 84 53 64
        E 0 85 4f 64
        E 0 88 4f 64
        E 1 8f 4c 64
        E 0 8a 40 64
        E 1 8e 31 64
        E 0 90 45 64
        E 0 91 40 64
        E 0 94 51 64
        E 0 95 4c 64
        E 1 98 51 64
        E 0 9f 4c 64
        E 0 9a 45 64
        E 0 9e 31 64
        E 233 88 51 64
        E 1 8f 4c 64
        E 0 98 4c 64
        E 0 9f 49 64
        E 238 84 51 64
        E 1 85 4c 64
        E 0 88 4c 64
        E 1 8f 49 64
        E 0 8a 45 64
        E 1 8e 31 64
        E 0 94 51 64
        E 1 95 4c 64
        E 0 98 51 64
        E 0 9f 4c 64
        E 0 9a 45 64
        E 0 9e 3d 64
        E 236 88 51 64
        E 1 8f 4c 64
        E 0 98 4c 64
        E 0 9f 49 64
        E 241 84 51 64
        E 1 85 4c 64
        E 0 88 4c 64
        E 1 8f 49 64
        E 1 8a 45 64
        E 0 8e 3d 64
        E 0 94 51 64
        E 1 95 4c 64
        E 0 98 51 64
        E 0 9f 4c 64
        E 1 9a 45 64
        E 0 9e 31 64
        E 233 88 51 64
        E 0 8f 4c 64
        E 0 98 4c 64
        E 0 9f 49 64
        E 241 84 51 64
        E 0 85 4c 64
        E 0 88 4c 64
        E 0 8f 49 64
        E 1 8a 45 64
        E 0 8e 31 64
        E 1 94 51 64
        E 0 95 4c 64
        E 1 98 51 64
        E 0 9f 4c 64
        E 0 9a 45 64
        E 0 9e 31 64
        E 237 88 51 64
        E 0 8f 4c 64
        E 0 98 4c 64
        E 1 9f 49 64
        E 237 80 45 64
        E 0 81 40 64
        E 1 82 40 64
        E 1 83 31 64
        E 0 84 51 64
        E 0 85 4c 64
        E 0 88 4c 64
        E 1 8f 49 64
        E 0 8a 45 64
        E 1 8e 31 64
        E 0 90 45 64
        E 0 91 42 64
        E 0 92 3e 64
        E 1 93 2f 64
        E 0 94 51 64
        E 0 95 4e 64
        E 0 98 51 64
        E 1 9f 4e 64
        E 0 9a 3e 64
        E 1 9e 2f 64
        E 234 88 51 64
        E 0 8f 4e 64
        E 1 98 4e 64
        E 0 9f 4a 64
        E 239 84 51 64
        E 0 85 4e 64
        E 0 88 4e 64
        E 1 8f 4a 64
        E 1 8a 3e 64
        E 0 8e 2f 64
        E 1 94 51 64
        E 0 95 4e 64
        E 0 98 51 64
        E 1 9f 4e 64
        E 0 9a 3e 64
        E 0 9e 3b 64
        E 237 88 51 64
        E 0 8f 4e 64
        E 0 98 4e 64
        E 0 9f 4a 64
        E 243 84 51 64
        E 0 85 4e 64
        E 0 88 4e 64
        E 1 8f 4a 64
        E 0 8a 3e 64
        E 0 8e 3b 64
        E 0 94 51 64
        E 0 95 4e 64
        E 0 98 51 64
        E 1 9f 4e 64
        E 0 9a 3e 64
        E 0 9e 2f 64
        E 234 88 51 64
        E 0 8f 4e 64
        E 0 98 4e 64
        E 1 9f 4a 64
        E 237 84 51 64
        E 0 85 4e 64
        E 1 88 4e 64
        E 0 8f 4a 64
        E 1 8a 3e 64
        E 0 8e 2f 64
        E 0 94 51 64
        E 0 95 4e 64
        E 1 98 51 64
        E 0 9f 4e 64
        E 0 9a 3e 64
        E 0 9e 2f 64
        E 239 88 51 64
        E 0 8f 4e 64
        E 1 98 4e 64
        E 0 9f 4a 64
        E 242 80 45 64
        E 0 81 42 64
        E 0 84 51 64
        E 1 85 4e 64
        E 0 88 4e 64
        E 0 8f 4a 64
        E 1 8a 3e 64
        E 0 8e 2f 64
        E 0 90 43 64
        E 0 91 3e 64
        E 1 94 4f 64
        E 0 95 4a 64
        E 0 98 4f 64
        E 0 9f 4a 64
        E 1 9a 43 64
        E 0 9e 2f 64
        E 237 88 4f 64
        E 0 8f 4a 64
        E 0 98 4a 64
        E 0 9f 47 64
        E 238 84 4f 64
        E 0 85 4a 64
        E 0 88 4a 64
        E 1 8f 47 64
        E 1 8a 43 64
        E 0 8e 2f 64
        E 0 94 4f 64
        E 1 95 4a 64
        E 0 98 4f 64
        E 0 9f 4a 64
        E 0 9a 43 64
        E 0 9e 3b 64
        E 235 88 4f 64
        E 1 8f 4a 64
        E 0 98 4a 64
        E 0 9f 47 64
        E 241 84 4f 64
        E 0 85 4a 64
        E 0 88 4a 64
        E 1 8f 47 64
        E 0 8a 43 64
        E 0 8e 3b 64
        E 0 94 4f 64
        E 1 95 4a 64
        E 0 98 4f 64
        E 0 9f 4a 64
        E 0 9a 43 64
        E 0 9e 2f 64
        E 236 88 4f 64
        E 1 8f 4a 64
        E 0 98 4a 64
        E 1 9f 47 64
        E 241 84 4f 64
        E 1 85 4a 64
        E 0 88 4a 64
        E 1 8f 47 64
        E 0 8a 43 64
        E 0 8e 2f 64
        E 0 94 4f 64
        E 1 95 4a 64
        E 0 98 4f 64
        E 0 9f 4a 64
        E 0 9a 43 64
        E 1 9e 2f 64
        E 233 88 4f 64
        E 0 8f 4a 64
        E 1 98 4a 64
        E 0 9f 47 64
        E 240 80 43 64
        E 1 81 3e 64
        E 0 82 3e 64
        E 0 83 2f 64
        E 1 84 4f 64
        E 0 85 4a 64
        E 0 88 4a 64
        E 0 8f 47 64
        E 1 8a 43 64
        E 0 8e 2f 64
        E 0 90 43 64
        E 1 91 40 64
        E 0 92 3d 64
        E 0 93 2d 64
        E 1 94 4f 64
        E 0 95 4c 64
        E 0 98 4f 64
        E 0 9f 4c 64
        E 1 9a 3d 64
        E 0 9e 2d 64
        E 234 88 4f 64
        E 0 98 4c 64
        E 239 88 4c 64
        E 0 8a 3d 64
        E 0 8e 2d 64
        E 0 98 4f 64
        E 1 9a 3d 64
        E 0 9e 39 64
        E 240 88 4f 64
        E 0 98 4c 64
        E 243 84 4f 64
        E 0 85 4c 64
        E 0 88 4c 64
        E 1 8f 4c 64
        E 0 8a 3d 64
        E 0 8e 39 64
        E 0 98 4f 64
        E 1 9a 3d 64
        E 0 9e 2d 64
        E 232 88 4f 64
        E 0 98 4c 64
        E 242 88 4c 64
        E 1 8a 3d 64
        E 0 8e 2d 64
        E 1 98 4f 64
        E 0 9a 3d 64
        E 0 9e 2d 64
        E 239 88 4f 64
        E 0 98 4c 64
        E 241 88 4c 64
        E 1 8a 3d 64
        E 0 8e 2d 64
        E 1 94 4f 64
        E 0 95 4c 64
        E 1 98 4c 64
        E 1 9f 4f 64
        E 0 9a 3d 64
        E 1 9e 2d 64
        E 233 88 4c 64
        E 0 8f 4f 64
        E 0 98 49 64
        E 1 9f 4c 64
        E 240 88 49 64
        E 0 8f 4c 64
        E 0 8a 3d 64
        E 0 8e 2d 64
        E 0 98 4c 64
        E 1 9f 4f 64
        E 0 9a 3d 64
        E 0 9e 39 64
        E 237 88 4c 64
        E 0 8f 4f 64
        E 1 98 49 64
        E 0 9f 4c 64
        E 243 84 4f 64
        E 0 85 4c 64
        E 0 88 49 64
        E 0 8f 4c 64
        E 1 8a 3d 64
        E 0 8e 39 64
        E 0 98 4c 64
        E 0 9f 4f 64
        E 1 9a 3d 64
        E 0 9e 2d 64
        E 236 88 4c 64
        E 0 8f 4f 64
        E 0 98 49 64
        E 0 9f 4c 64
        E 240 88 49 64
        E 0 8f 4c 64
        E 0 8a 3d 64
        E 1 8e 2d 64
        E 0 98 4c 64
        E 0 9f 4f 64
        E 1 9a 3d 64
        E 0 9e 2d 64
        E 240 88 4c 64
        E 0 8f 4f 64
        E 1 98 49 64
        E 0 9f 4c 64
        E 237 80 43 64
        E 0 81 40 64
        E 0 82 3d 64
        E 0 83 2d 64
        E 0 88 49 64
        E 1 8f 4c 64
        E 0 8a 3d 64
        E 0 8e 2d 64
        E 1 90 43 64
        E 0 91 40 64
        E 0 92 3d 64
        E 1 93 2d 64
        E 0 94 4f 64
        E 0 95 4c 64
        E 0 98 49 64
        E 0 9f 4c 64
        E 1 9a 3d 64
        E 0 9e 2d 64
        E 234 88 49 64
        E 0 8f 4c 64
        E 1 98 43 64
        E 0 9f 49 64
        E 242 88 43 64
        E 0 8f 49 64
        E 1 8a 3d 64
        E 1 8e 2d 64
        E 0 98 49 64
        E 0 9f 4c 64
        E 1 9a 3d 64
        E 1 9e 39 64
        E 233 88 49 64
        E 0 8f 4c 64
        E 1 98 43 64
        E 0 9f 49 64
        E 242 84 4f 64
        E 0 85 4c 64
        E 0 88 43 64
        E 0 8f 49 64
        E 0 8a 3d 64
        E 1 8e 39 64
        E 0 98 49 64
        E 0 9f 4c 64
        E 0 9a 3d 64
        E 0 9e 2d 64
        E 239 88 49 64
        E 0 8f 4c 64
        E 0 98 43 64
        E 0 9f 49 64
        E 238 88 43 64
        E 0 8f 49 64
        E 1 8a 3d 64
        E 0 8e 2d 64
        E 1 98 49 64
        E 0 9f 4c 64
        E 0 9a 3d 64
        E 1 9e 2d 64
        E 236 88 49 64
        E 0 8f 4c 64
        E 1 98 43 64
        E 0 9f 49 64
        E 243 88 43 64
        E 0 8f 49 64
        E 0 8a 3d 64
        E 0 8e 2d 64
        E 1 94 4f 64
        E 0 95 4c 64
        E 0 98 40 64
        E 1 9f 49 64
        E 0 9a 3d 64
        E 1 9e 2d 64
        E 234 88 40 64
        E 0 8f 49 64
        E 0 98 3d 64
        E 1 9f 43 64
        E 242 88 3d 64
        E 0 8f 43 64
        E 1 8a 3d 64
        E 0 8e 2d 64
        E 0 98 40 64
        E 1 9f 49 64
        E 0 9a 3d 64
        E 0 9e 39 64
        E 236 88 40 64
        E 0 8f 49 64
        E 0 98 3d 64
        E 0 9f 43 64
        E 241 84 4f 64
        E 0 85 4c 64
        E 1 88 3d 64
        E 0 8f 43 64
        E 0 8a 3d 64
        E 0 8e 39 64
        E 1 98 40 64
        E 1 9f 49 64
        E 0 9a 3d 64
        E 0 9e 2d 64
        E 236 88 40 64
        E 0 8f 49 64
        E 0 98 3d 64
        E 1 9f 43 64
        E 240 88 3d 64
        E 0 8f 43 64
        E 1 8a 3d 64
        E 0 8e 2d 64
        E 1 98 40 64
        E 0 9f 49 64
        E 0 9a 3d 64
        E 0 9e 2d 64
        E 239 88 40 64
        E 1 8f 49 64
        E 0 98 3d 64
        E 0 9f 43 64
        E 234 80 43 64
        E 0 81 40 64
        E 0 82 3d 64
        E 1 83 2d 64
        E 0 88 3d 64
        E 0 8f 43 64
        E 0 8a 3d 64
        E 1 8e 2d 64
        E 0 90 43 64
        E 1 91 40 64
        E 0 92 3d 64
        E 1 93 2d 64
        E 0 94 4f 64
        E 0 95 4c 64
        E 0 98 37 64
        E 0 9f 40 64
        E 1 9a 3d 64
        E 0 9e 2d 64
        E 961 80 43 64
        E 1 81 40 64
        E 0 82 3d 64
        E 1 83 2d 64
        E 1 84 4f 64
        E 0 85 4c 64
        E 1 88 37 64
        E 1 8f 40 64
        E 1 8a 3d 64
        E 0 8e 2d 64
        E 3832 90 4a 64
        E 0 91 42 64
        E 1 92 39 64
        E 0 93 32 64
        E 1 94 4e 64
        E 1 95 4a 64
        E 1 98 51 64
        E 0 9f 4e 64
        E 1 9a 45 64
        E 0 9e 32 64
        E 233 88 51 64
        E 0 8f 4e 64
        E 0 98 4e 64
        E 1 9f 4a 64
        E 238 84 4e 64
        E 0 85 4a 64
        E 1 88 4e 64
        E 0 8f 4a 64
        E 1 8a 45 64
        E 0 8e 32 64
        E 0 94 4e 64
        E 0 95 4a 64
        E 1 98 51 64
        E 0 9f 4e 64
        E 0 9a 45 64
        E 0 9e 3e 64
        E 239 80 4a 64
        E 0 81 42 64
        E 0 82 39 64
        E 0 83 32 64
        E 1 88 51 64
        E 0 8f 4e 64
        E 1 90 4a 64
        E 0 91 42 64
        E 0 92 39 64
        E 0 93 32 64
        E 1 98 4e 64
        E 0 9f 4a 64
        E 236 80 4a 64
        E 0 81 42 64
        E 0 82 39 64
        E 0 83 32 64
        E 0 84 4e 64
        E 0 85 4a 64
        E 1 88 4e 64
        E 0 8f 4a 64
        E 1 8a 45 64
        E 0 8e 3e 64
        E 1 90 4a 64
        E 0 91 42 64
        E 0 92 39 64
        E 0 93 32 64
        E 0 94 4e 64
        E 0 95 4a 64
        E 1 98 51 64
        E 0 9f 4e 64
        E 0 9a 45 64
        E 0 9e 32 64
        E 237 88 51 64
        E 0 8f 4e 64
        E 1 98 4e 64
        E 0 9f 4a 64
        E 241 84 4e 64
        E 0 85 4a 64
        E 0 88 4e 64
        E 1 8f 4a 64
        E 0 8a 45 64
        E 1 8e 32 64
        E 0 94 4e 64
        E 0 95 4a 64
        E 1 98 51 64
        E 0 9f 4e 64
        E 0 9a 45 64
        E 0 9e 32 64
        E 236 88 51 64
        E 0 8f 4e 64
        E 0 98 4e 64
        E 0 9f 4a 64
        E 242 80 4a 64
        E 0 81 42 64
        E 0 82 39 64
        E 0 83 32 64
        E 0 84 4e 64
        E 0 85 4a 64
        E 1 88 4e 64
        E 0 8f 4a 64
        E 0 8a 45 64
        E 0 8e 32 64
        E 1 90 4a 64
        E 0 91 40 64
        E 0 92 39 64
        E 1 93 39 64
        E 0 94 4c 64
        E 0 95 4a 64
        E 0 98 51 64
        E 1 9f 4c 64
        E 0 9a 45 64
        E 0 9e 2d 64
        E 233 88 51 64
        E 0 8f 4c 64
        E 0 98 4c 64
        E 1 9f 4a 64
        E 239 80 4a 64
        E 0 81 40 64
        E 0 82 39 64
        E 0 83 39 64
        E 1 84 4c 64
        E 0 85 4a 64
        E 1 88 4c 64
        E 2 8f 4a 64
        E 0 8a 45 64
        E 0 8e 2d 64
        E 1 90 4a 64
        E 0 91 40 64
        E 0 92 39 64
        E 0 93 39 64
        E 0 94 4c 64
        E 0 95 4a 64
        E 0 98 51 64
        E 0 9f 4c 64
        E 0 9a 45 64
        E 0 9e 39 64
        E 234 88 51 64
        E 0 8f 4c 64
        E 1 98 4c 64
        E 0 9f 4a 64
        E 240 80 4a 64
        E 0 81 40 64
        E 1 82 39 64
        E 0 83 39 64
        E 1 84 4c 64
        E 0 85 4a 64
        E 1 88 4c 64
        E 0 8f 4a 64
        E 0 8a 45 64
        E 0 8e 39 64
        E 0 90 4a 64
        E 0 91 40 64
        E 1 92 39 64
        E 0 93 39 64
        E 0 94 4c 64
        E 0 95 4a 64
        E 0 98 51 64
        E 0 9f 4c 64
        E 0 9a 45 64
        E 0 9e 2d 64
        E 235 88 51 64
        E 0 8f 4c 64
        E 0 98 4c 64
        E 1 9f 4a 64
        E 239 80 4a 64
        E 0 81 40 64
        E 1 82 39 64
        E 0 83 39 64
        E 0 84 4c 64
        E 0 85 4a 64
        E 1 88 4c 64
        E 1 8f 4a 64
        E 0 8a 45 64
        E 1 8e 2d 64
        E 0 90 4a 64
        E 0 91 40 64
        E 1 92 39 64
        E 0 93 39 64
        E 0 94 4c 64
        E 0 95 4a 64
        E 1 98 51 64
        E 0 9f 4c 64
        E 0 9a 45 64
        E 0 9e 2d 64
        E 234 88 51 64
        E 0 8f 4c 64
        E 0 98 4c 64
        E 0 9f 4a 64
        E 241 80 4a 64
        E 0 81 40 64
        E 1 82 39 64
        E 0 83 39 64
        E 0 84 4c 64
        E 0 85 4a 64
        E 0 88 4c 64
        E 1 8f 4a 64
        E 0 8a 45 64
        E 0 8e 2d 64
        E 0 90 49 64
        E 0 91 40 64
        E 1 92 39 64
        E 0 93 2d 64
        E 0 94 4c 64
        E 0 95 49 64
        E 0 98 51 64
        E 0 9f 4c 64
        E 1 9a 45 64
        E 0 9e 2d 64
        E 237 88 51 64
        E 0 8f 4c 64
        E 0 98 4c 64
        E 1 9f 49 64
        E 237 84 4c 64
        E 0 85 49 64
        E 1 88 4c 64
        E 0 8f 49 64
        E 1 8a 45 64
        E 0 8e 2d 64
        E 0 94 4c 64
        E 1 95 49 64
        E 0 98 51 64
        E 0 9f 4c 64
        E 0 9a 45 64
        E 0 9e 39 64
        E 235 88 51 64
        E 0 8f 4c 64
        E 1 98 4c 64
        E 0 9f 49 64
        E 243 84 4c 64
        E 1 85 49 64
        E 0 88 4c 64
        E 1 8f 49 64
        E 0 8a 45 64
        E 1 8e 39 64
        E 0 94 4c 64
        E 1 95 49 64
        E 0 98 51 64
        E 1 9f 4c 64
        E 0 9a 45 64
        E 1 9e 2d 64
        E 231 88 51 64
        E 0 8f 4c 64
        E 1 98 4c 64
        E 0 9f 49 64
        E 241 84 4c 64
        E 0 85 49 64
        E 1 88 4c 64
        E 0 8f 49 64
        E 1 8a 45 64
        E 0 8e 2d 64
        E 1 94 4c 64
        E 0 95 49 64
        E 0 98 51 64
        E 0 9f 4c 64
        E 0 9a 45 64
        E 1 9e 2d 64
        E 236 88 51 64
        E 1 8f 4c 64
        E 0 98 4c 64
        E 0 9f 49 64
        E 238 80 49 64
        E 1 81 40 64
        E 0 82 39 64
        E 0 83 2d 64
        E 1 84 4c 64
        E 0 85 49 64
        E 0 88 4c 64
        E 0 8f 49 64
        E 1 8a 45 64
        E 0 8e 2d 64
        E 0 90 4a 64
        E 0 91 42 64
        E 0 92 39 64
        E 1 93 32 64
        E 0 94 4e 64
        E 0 95 4a 64
        E 0 98 4e 64
        E 0 9f 4a 64
        E 0 9a 45 64
        E 1 9e 32 64
        E 235 88 4e 64
        E 0 98 51 64
        E 241 88 51 64
        E 0 98 4e 64
        E 241 88 4e 64
        E 0 98 51 64
        E 241 84 4e 64
        E 0 85 4a 64
        E 0 88 51 64
        E 0 8f 4a 64
        E 1 8a 45 64
        E 0 8e 32 64
        E 0 98 4a 64
        E 1 9f 4e 64
        E 237 88 4a 64
        E 0 8f 4e 64
        E 1 98 4e 64
        E 0 9f 51 64
        E 237 88 4e 64
        E 0 8f 51 64
        E 1 98 4a 64
        E 0 9f 4e 64
        E 240 88 4a 64
        E 0 8f 4e 64
        E 0 98 4e 64
        E 1 9f 51 64
        E 237 80 4a 64
        E 1 81 42 64
        E 0 82 39 64
        E 0 83 32 64
        E 0 88 4e 64
        E 0 8f 51 64
        E 1 94 4e 64
        E 0 95 4a 64
        E 0 98 45 64
        E 0 9f 4a 64
        E 0 9a 42 64
        E 1 9e 32 64
        E 239 88 45 64
        E 0 8f 4a 64
        E 1 98 4a 64
        E 0 9f 4e 64
        E 238 88 4a 64
        E 0 8f 4e 64
        E 0 98 45 64
        E 1 9f 4a 64
        E 239 88 45 64
        E 0 8f 4a 64
        E 1 98 4a 64
        E 0 9f 4e 64
        E 239 84 4e 64
        E 0 85 4a 64
        E 1 88 4a 64
        E 0 8f 4e 64
        E 1 8a 42 64
        E 0 8e 32 64
        E 1 98 42 64
        E 0 9f 45 64
        E 237 88 42 64
        E 0 8f 45 64
        E 1 98 45 64
        E 0 9f 4a 64
        E 239 88 45 64
        E 0 8f 4a 64
        E 1 98 42 64
        E 0 9f 45 64
        E 240 88 42 64
        E 0 8f 45 64
        E 1 98 45 64
        E 0 9f 4a 64
        E 238 88 45 64
        E 1 8f 4a 64
        E 0 94 3e 64
        E 1 95 3e 64
        E 0 98 3e 64
        E 1 9f 42 64
        E 0 9a 3e 64
        E 1 9e 32 64
        E 476 85 3e 64
        E 1 88 3e 64
        E 1 8f 42 64
        E 0 8a 3e 64
        E 1 8e 32 64
        E 1 95 3e 64
        E 0 98 3e 64
        E 1 9f 3e 64
        E 0 9a 3e 64
        E 1 9e 32 64
        E 234 85 3e 64
        E 0 88 3e 64
        E 1 8f 3e 64
        E 0 8a 3e 64
        E 0 8e 32 64
        E 1 95 40 64
        E 0 98 40 64
        E 0 9f 40 64
        E 0 9a 40 64
        E 0 9e 34 64
        E 242 84 3e 64
        E 0 85 40 64
        E 0 88 40 64
        E 1 8f 40 64
        E 1 8a 40 64
        E 0 8e 34 64
        E 1 94 42 64
        E 0 95 42 64
        E 1 98 42 64
        E 0 9f 42 64
        E 0 9a 42 64
        E 1 9e 36 64
        E 472 85 42 64
        E 1 88 42 64
        E 0 8f 42 64
        E 1 8a 42 64
        E 0 8e 36 64
        E 1 95 42 64
        E 0 98 42 64
        E 0 9f 42 64
        E 1 9a 42 64
        E 0 9e 36 64
        E 234 85 42 64
        E 0 88 42 64
        E 0 8f 42 64
        E 0 8a 42 64
        E 1 8e 36 64
        E 0 95 43 64
        E 0 98 43 64
        E 1 9f 43 64
        E 0 9a 43 64
        E 1 9e 37 64
        E 239 84 42 64
        E 1 85 43 64
        E 0 88 43 64
        E 0 8f 43 64
        E 0 8a 43 64
        E 1 8e 37 64
        E 0 94 45 64
        E 0 95 45 64
        E 0 98 45 64
        E 1 9f 45 64
        E 0 9a 45 64
        E 1 9e 39 64
        E 958 84 45 64
        E 1 85 45 64
        E 1 88 45 64
        E 1 8f 45 64
        E 1 8a 45 64
        E 0 8e 39 64
        E 477 94 3e 64
        E 1 95 3e 64
        E 1 98 3e 64
        E 0 9f 3e 64
        E 1 9a 3e 64
        E 1 9e 32 64
        E 471 84 3e 64
        E 1 85 3e 64
        E 0 88 3e 64
        E 1 8f 3e 64
        E 0 8a 3e 64
        E 1 8e 32 64
        E 1 94 45 64
        E 1 95 45 64
        E 1 98 45 64
        E 1 9f 45 64
        E 0 9a 45 64
        E 1 9e 39 64
        E 957 84 45 64
        E 0 85 45 64
        E 1 88 45 64
        E 1 8f 45 64
        E 0 8a 45 64
        E 1 8e 39 64
        E 0 94 45 64
        E 1 95 45 64
        E 1 98 39 64
        E 1 9f 39 64
        E 0 9a 39 64
        E 1 9e 2d 64
        E 951 84 45 64
        E 1 85 45 64
        E 1 88 39 64
        E 0 8f 39 64
        E 1 8a 39 64
        E 1 8e 2d 64
        E 1 94 3e 64
        E 1 95 3e 64
        E 1 98 3e 64
        E 0 9f 3e 64
        E 1 9a 3e 64
        E 1 9e 32 64
        E 1430 84 3e 64
        E 1 85 3e 64
        E 3 88 3e 64
        E 1 8f 3e 64
        E 0 8a 3e 64
        E 1 8e 32 64
        E 2059 b0 7b 00
        CCINTERP 32
        CHASE_CC_TAKEOFFS 1
        GUID {9A0FC43A-EC1B-4FDD-8C63-9693658A387D}
        IGNTEMPO 0 120 4 4
        SRCCOLOR 14
        VELLANE -1 100 0
        CFGEDITVIEW 0 0.000574 41 12 0 -1 0 0 0 0.5
        KEYSNAP 0
        TRACKSEL 0
        EVTFILTER 0 144 -1 -1 -1 0 1 0 0 -1 -1 -1 -1 0 -1 0 -1 -1
        CFGEDIT 1 1 0 1 0 4 1 1 1 1 1 1 353 448 2145 1465 1 0 0 1 0 0 0 1 0 0.5 0 0 1 64
      >
    >
    <ITEM
      POSITION 150.37694031254833
      SNAPOFFS 0
      LENGTH 126.72600895451134
      LOOP 1
      ALLTAKES 0
      FADEIN 1 0 0 1 0 0 0
      FADEOUT 1 0 0 1 0 0 0
      MUTE 0 0
      SEL 0
      IGUID {BF5D9EA8-242E-47CF-A4A3-6DAFCDC4AAB6}
      IID 6
      NAME "01-Recorded MIDI"
      VOLPAN 1 0 1 -1
      SOFFS 0 0
      PLAYRATE 1 1 0 -1 0 0.0025
      CHANMODE 0
      GUID {FCE4C658-1C3C-433C-A58D-996DCA9F7813}
      RECPASS 2
      <SOURCE MIDI
        HASDATA 1 960 QN
        CCINTERP 32
        POOLEDEVTS {F3DA76FC-B411-4D22-8CB3-A45D38F3FB03}
        E 928 97 43 64
        E 356 87 43 64
        E 1 97 47 64
        E 0 9a 3e 64
        E 1 9e 37 64
        E 961 87 47 64
        E 2 8a 3e 64
        E 0 8e 37 64
        E 1 97 48 64
        E 0 9a 40 64
        E 1 9e 30 64
        E 957 87 48 64
        E 1 8a 40 64
        E 1 8e 30 64
        E 1 97 4a 64
        E 0 9a 3b 64
        E 1 9e 2b 64
        E 953 87 4a 64
        E 0 8a 3b 64
        E 1 8e 2b 64
        E 482 97 4c 64
        E 240 87 4c 64
        E 0 97 4e 64
        E 237 87 4e 64
        E 1 97 4f 64
        E 1 9a 47 64
        E 0 9e 37 64
        E 478 87 4f 64
        E 1 97 4e 64
        E 241 87 4e 64
        E 1 97 4c 64
        E 239 87 4c 64
        E 0 8a 47 64
        E 1 8e 37 64
        E 1 97 4a 64
        E 0 9a 45 64
        E 1 9e 36 64
        E 476 87 4a 64
        E 1 97 48 64
        E 478 87 48 64
        E 1 8a 45 64
        E 1 8e 36 64
        E 1 97 47 64
        E 1 9a 3e 64
        E 0 9e 37 64
        E 478 87 47 64
        E 0 97 45 64
        E 240 87 45 64
        E 0 97 43 64
        E 241 87 43 64
        E 0 8a 3e 64
        E 1 8e 37 64
        E 1 97 42 64
        E 0 9a 42 64
        E 1 9e 36 64
        E 477 87 42 64
        E 1 8a 42 64
        E 0 8e 36 64
        E 1 97 40 64
        E 1 9a 40 64
        E 0 9e 34 64
        E 478 87 40 64
        E 0 8a 40 64
        E 1 8e 34 64
        E 0 97 3e 64
        E 1 9a 3e 64
        E 0 9e 32 64
        E 476 87 3e 64
        E 0 8a 3e 64
        E 1 8e 32 64
        E 1 97 3c 64
        E 0 9a 3c 64
        E 1 9e 30 64
        E 236 87 3c 64
        E 1 8a 3c 64
        E 0 8e 30 64
        E 1 97 3b 64
        E 0 9a 3b 64
        E 1 9e 2f 64
        E 239 87 3b 64
        E 0 8a 3b 64
        E 0 8e 2f 64
        E 1 97 39 64
        E 1 9a 39 64
        E 0 9e 2d 64
        E 477 87 39 64
        E 1 8a 39 64
        E 0 8e 2d 64
        E 1 97 37 64
        E 0 9a 37 64
        E 1 9e 2b 64
        E 475 87 37 64
        E 0 8a 37 64
        E 1 8e 2b 64
        E 1 97 3e 64
        E 0 9a 3e 64
        E 1 9e 32 64
        E 958 87 3e 64
        E 1 8a 3e 64
        E 1 8e 32 64
        E 0 9a 45 64
        E 1 9e 32 64
        E 479 8a 45 64
        E 0 8e 32 64
        E 1 97 4a 64
        E 1 9a 45 64
        E 0 9e 30 64
        E 477 87 4a 64
        E 0 8a 45 64
        E 1 8e 30 64
        E 0 97 41 64
        E 0 9a 3e 64
        E 0 9e 2f 64
        E 478 8a 3e 64
        E 1 8e 2f 64
        E 0 9a 3c 64
        E 1 9e 2d 64
        E 478 87 41 64
        E 1 8a 3c 64
        E 0 8e 2d 64
        E 1 97 41 64
        E 0 9a 3e 64
        E 1 9e 2f 64
        E 238 87 41 64
        E 1 97 40 64
        E 237 87 40 64
        E 1 8a 3e 64
        E 0 8e 2f 64
        E 1 97 41 64
        E 1 9a 3b 64
        E 0 9e 2b 64
        E 239 87 41 64
        E 0 97 43 64
        E 240 87 43 64
        E 1 8a 3b 64
        E 0 8e 2b 64
        E 1 97 40 64
        E 0 9a 37 64
        E 1 9e 30 64
        E 475 87 40 64
        E 0 97 3c 64
        E 481 87 3c 64
        E 1 97 40 64
        E 478 87 40 64
        E 1 8a 37 64
        E 0 97 4c 64
        E 1 9a 43 64
        E 482 87 4c 64
        E 0 8a 43 64
        E 1 8e 30 64
        E 0 97 43 64
        E 1 9a 40 64
        E 1 9e 31 64
        E 475 8a 40 64
        E 1 8e 31 64
        E 0 9a 3e 64
        E 1 9e 2f 64
        E 477 87 43 64
        E 1 8a 3e 64
        E 0 8e 2f 64
        E 1 97 43 64
        E 0 9a 40 64
        E 1 9e 31 64
        E 239 87 43 64
        E 0 97 42 64
        E 237 87 42 64
        E 0 8a 40 64
        E 0 8e 31 64
        E 1 97 43 64
        E 0 9a 3d 64
        E 0 9e 2d 64
        E 241 87 43 64
        E 0 97 45 64
        E 240 87 45 64
        E 1 8a 3d 64
        E 0 8e 2d 64
        E 0 97 42 64
        E 1 9a 39 64
        E 0 9e 32 64
        E 477 87 42 64
        E 1 97 3e 64
        E 480 87 3e 64
        E 0 97 42 64
        E 478 87 42 64
        E 0 8a 39 64
        E 0 97 51 64
        E 1 9a 42 64
        E 483 87 51 64
        E 0 8a 42 64
        E 1 8e 32 64
        E 1 97 48 64
        E 0 9a 40 64
        E 1 9e 39 64
        E 474 8e 39 64
        E 0 9e 37 64
        E 482 87 48 64
        E 0 8a 40 64
        E 2 8e 37 64
        E 0 97 48 64
        E 1 9a 45 64
        E 1 9e 36 64
        E 236 87 48 64
        E 1 97 47 64
        E 240 87 47 64
        E 0 8a 45 64
        E 1 8e 36 64
        E 0 97 48 64
        E 1 9a 42 64
        E 0 9e 32 64
        E 234 87 48 64
        E 0 97 4a 64
        E 241 87 4a 64
        E 0 8a 42 64
        E 1 8e 32 64
        E 0 97 47 64
        E 1 9a 3e 64
        E 0 9e 37 64
        E 480 87 47 64
        E 1 8e 37 64
        E 0 97 4f 64
        E 1 9e 35 64
        E 477 87 4f 64
        E 0 8a 3e 64
        E 1 8e 35 64
        E 1 97 46 66
        E 0 9a 43 64
        E 1 9e 34 64
        E 476 8a 43 64
        E 0 8e 34 64
        E 1 9a 40 64
        E 0 9e 30 64
        E 480 87 46 66
        E 0 8a 40 64
        E 1 8e 30 64
        E 1 97 45 64
        E 0 9a 3c 64
        E 1 9e 35 64
        E 475 87 45 64
        E 1 8e 35 64
        E 0 97 4d 64
        E 1 9e 33 66
        E 478 87 4d 64
        E 0 8a 3c 64
        E 1 8e 33 66
        E 1 97 44 66
        E 0 9a 41 64
        E 1 9e 32 64
        E 479 8a 41 64
        E 1 8e 32 64
        E 0 9a 3e 64
        E 1 9e 2e 66
        E 477 87 44 66
        E 1 8a 3e 64
        E 0 8e 2e 66
        E 1 97 43 64
        E 0 9a 3a 66
        E 1 9e 33 66
        E 476 87 43 64
        E 1 8e 33 66
        E 0 97 4b 66
        E 1 9e 32 64
        E 481 87 4b 66
        E 0 8a 3a 66
        E 0 8e 32 64
        E 0 97 43 64
        E 0 9a 40 64
        E 0 9e 31 64
        E 478 8a 40 64
        E 1 8e 31 64
        E 1 9a 3d 64
        E 1 9e 2d 64
        E 478 87 43 64
        E 0 8a 3d 64
        E 1 8e 2d 64
        E 1 97 42 64
        E 0 9a 39 64
        E 0 9e 32 64
        E 237 87 42 64
        E 1 97 43 64
        E 239 87 43 64
        E 1 97 45 64
        E 239 87 45 64
        E 1 97 47 64
        E 240 87 47 64
        E 1 97 48 64
        E 480 87 48 64
        E 1 8a 39 64
        E 0 8e 32 64
        E 1 97 4a 64
        E 0 9a 45 64
        E 1 9e 36 64
        E 476 87 4a 64
        E 1 8a 45 64
        E 0 8e 36 64
        E 1 97 47 64
        E 0 9a 3e 64
        E 1 9e 37 64
        E 479 87 47 64
        E 0 8a 3e 64
        E 1 8e 37 64
        E 1 97 4f 64
        E 0 9a 3e 64
        E 1 9e 2f 64
        E 235 8a 3e 64
        E 0 8e 2f 64
        E 1 9a 40 64
        E 1 9e 30 64
        E 237 87 4f 64
        E 1 8a 40 64
        E 0 8e 30 64
        E 1 97 45 64
        E 0 9a 3e 64
        E 1 9e 32 64
        E 478 87 45 64
        E 0 8a 3e 64
        E 1 8e 32 64
        E 0 97 4e 64
        E 1 9a 39 64
        E 0 9e 26 64
        E 480 87 4e 64
        E 1 8a 39 64
        E 0 8e 26 64
        E 1 97 4f 64
        E 0 9a 3b 64
        E 0 9e 2b 64
        E 476 8e 2b 64
        E 0 9e 37 64
        E 479 87 4f 64
        E 0 8a 3b 64
        E 1 8e 37 64
        E 1 9e 2b 64
        E 480 97 43 64
        E 0 9a 43 64
        E 1 9b 43 64
        E 479 87 43 64
        E 1 8a 43 64
        E 0 8b 43 64
        E 1 8e 2b 64
        E 0 97 37 64
        E 1 9a 37 64
        E 1 9b 47 64
        E 475 9e 37 64
        E 480 87 37 64
        E 1 8a 37 64
        E 1 8b 47 64
        E 1 8e 37 64
        E 0 9b 48 64
        E 1 9e 2b 64
        E 475 97 43 64
        E 0 9a 43 64
        E 481 87 43 64
        E 1 8a 43 64
        E 1 8b 48 64
        E 0 8e 2b 64
        E 1 97 37 64
        E 0 9a 37 64
        E 1 9b 4a 64
        E 476 9e 37 64
        E 480 87 37 64
        E 0 8a 37 64
        E 1 8e 37 64
        E 1 9e 2b 64
        E 478 97 43 64
        E 1 9a 43 64
        E 0 9c 43 64
        E 476 87 43 64
        E 1 8a 43 64
        E 0 8b 4a 64
        E 1 8c 43 64
        E 1 8e 2b 64
        E 0 97 37 64
        E 1 9a 37 64
        E 1 9c 47 64
        E 479 9e 37 64
        E 480 87 37 64
        E 1 8a 37 64
        E 0 8c 47 64
        E 1 8e 37 64
        E 0 9c 48 64
        E 1 9e 2b 64
        E 473 97 43 64
        E 0 9a 43 64
        E 484 87 43 64
        E 0 8a 43 64
        E 1 8c 48 64
        E 1 8e 2b 64
        E 0 97 37 64
        E 1 9a 37 64
        E 0 9b 4a 64
        E 1 9c 4a 64
        E 476 9e 37 64
        E 479 87 37 64
        E 0 8a 37 64
        E 1 8e 37 64
        E 1 9e 2b 64
        E 478 8b 4a 64
        E 1 97 43 64
        E 1 9a 43 64
        E 1 9b 4c 64
        E 478 87 43 64
        E 0 8a 43 64
        E 0 8b 4c 64
        E 0 8c 4a 64
        E 1 8e 2b 64
        E 0 97 37 64
        E 1 9a 37 64
        E 0 9b 48 64
        E 478 9e 37 64
        E 479 87 37 64
        E 1 8a 37 64
        E 0 8b 48 64
        E 1 8e 37 64
        E 1 9b 48 64
        E 0 9e 2b 64
        E 476 8b 48 64
        E 1 97 43 64
        E 0 9a 43 64
        E 1 9b 4a 64
        E 481 87 43 64
        E 0 8a 43 64
        E 1 8b 4a 64
        E 0 8e 2b 64
        E 1 97 37 64
        E 0 9a 37 64
        E 1 9b 47 64
        E 0 9c 4a 64
        E 476 9e 37 64
        E 481 87 37 64
        E 1 8a 37 64
        E 1 8e 37 64
        E 0 9e 2b 64
        E 476 8c 4a 64
        E 1 97 43 64
        E 0 9a 43 64
        E 1 9c 4c 64
        E 478 87 43 64
        E 1 8a 43 64
        E 0 8b 47 64
        E 1 8c 4c 64
        E 1 8e 2b 64
        E 0 97 37 64
        E 1 9a 37 64
        E 0 9c 48 64
        E 476 9e 37 64
        E 478 87 37 64
        E 1 8a 37 64
        E 1 8c 48 64
        E 1 8e 37 64
        E 0 9c 48 64
        E 1 9e 2b 64
        E 477 8c 48 64
        E 1 97 43 64
        E 0 9a 43 64
        E 1 9c 4a 64
        E 479 87 43 64
        E 0 8a 43 64
        E 1 8c 4a 64
        E 1 8e 2b 64
        E 0 97 37 64
        E 1 9a 37 64
        E 0 9b 43 64
        E 1 9c 47 64
        E 476 8b 43 64
        E 1 9b 47 64
        E 0 9e 37 64
        E 479 87 37 64
        E 1 8a 37 64
        E 0 8b 47 64
        E 1 8c 47 64
        E 0 8e 37 64
        E 1 9b 45 64
        E 1 9e 2b 64
        E 473 8b 45 64
        E 1 97 43 64
        E 1 9a 43 64
        E 0 9b 48 64
        E 481 87 43 64
        E 1 8a 43 64
        E 1 8b 48 64
        E 0 8e 2b 64
        E 0 97 37 64
        E 1 9a 37 64
        E 1 9b 47 64
        E 0 9c 43 64
        E 474 8b 47 64
        E 1 8c 43 64
        E 1 9b 4a 64
        E 1 9c 47 64
        E 1 9e 37 64
        E 479 87 37 64
        E 0 8a 37 64
        E 1 8b 4a 64
        E 1 8c 47 64
        E 0 8e 37 64
        E 1 9b 49 64
        E 0 9c 45 64
        E 1 9e 2b 64
        E 473 8b 49 64
        E 0 8c 45 64
        E 1 97 43 64
        E 1 9a 43 64
        E 1 9b 4c 64
        E 0 9c 43 64
        E 477 87 43 64
        E 1 8a 43 64
        E 0 8b 4c 64
        E 1 8c 43 64
        E 0 8e 2b 64
        E 1 97 3e 64
        E 0 9a 3e 64
        E 1 9b 4a 64
        E 0 9c 42 64
        E 477 9e 3e 64
        E 481 87 3e 64
        E 0 8a 3e 64
        E 1 8e 3e 64
        E 0 9e 32 64
        E 476 8b 4a 64
        E 1 97 3e 64
        E 0 9a 3e 64
        E 1 9b 4a 64
        E 480 87 3e 64
        E 1 8a 3e 64
        E 1 8b 4a 64
        E 0 8c 42 64
        E 1 8e 32 64
        E 1 97 39 64
        E 0 9a 39 64
        E 1 9b 49 64
        E 476 8b 49 64
        E 1 9b 47 64
        E 0 9e 39 64
        E 479 87 39 64
        E 0 8a 39 64
        E 1 8b 47 64
        E 0 8e 39 64
        E 1 9b 45 64
        E 0 9e 2d 64
        E 478 8b 45 64
        E 1 97 45 64
        E 1 9a 45 64
        E 0 9b 43 64
        E 479 87 45 64
        E 0 8a 45 64
        E 1 8b 43 64
        E 1 8e 2d 64
        E 0 97 3e 64
        E 1 9a 3e 64
        E 0 9b 42 64
        E 477 9e 3e 64
        E 480 87 3e 64
        E 0 8a 3e 64
        E 1 8e 3e 64
        E 0 9e 32 64
        E 478 8b 42 64
        E 0 97 3e 64
        E 1 9a 3e 64
        E 0 9b 4e 64
        E 1 9c 4a 64
        E 479 87 3e 64
        E 1 8a 3e 64
        E 0 8b 4e 64
        E 1 8c 4a 64
        E 0 8e 32 64
        E 2 97 39 64
        E 0 9a 39 64
        E 1 9b 4c 64
        E 0 9c 49 64
        E 473 8b 4c 64
        E 0 8c 49 64
        E 1 9b 4a 64
        E 0 9c 47 64
        E 0 9e 39 64
        E 478 87 39 64
        E 0 8a 39 64
        E 1 8b 4a 64
        E 0 8c 47 64
        E 1 8e 39 64
        E 0 9b 49 64
        E 1 9c 45 64
        E 0 9e 2d 64
        E 478 8b 49 64
        E 0 8c 45 64
        E 0 97 45 64
        E 1 9a 45 64
        E 0 9b 47 64
        E 1 9c 43 64
        E 477 87 45 64
        E 0 8a 45 64
        E 1 8b 47 64
        E 0 8c 43 64
        E 1 8e 2d 64
        E 1 97 39 64
        E 0 9a 39 64
        E 0 9b 45 64
        E 1 9c 42 64
        E 478 8b 45 64
        E 0 8c 42 64
        E 0 9b 47 64
        E 1 9c 43 64
        E 1 9e 39 64
        E 477 87 39 64
        E 1 8a 39 64
        E 0 8b 47 64
        E 1 8c 43 64
        E 1 8e 39 64
        E 0 9b 47 64
        E 1 9c 43 64
        E 0 9e 2d 64
        E 475 8b 47 64
        E 1 8c 43 64
        E 1 97 45 64
        E 1 9a 45 64
        E 0 9b 49 64
        E 1 9c 45 64
        E 479 87 45 64
        E 1 8a 45 64
        E 0 8b 49 64
        E 1 8c 45 64
        E 0 8e 2d 64
        E 1 97 39 64
        E 0 9a 39 64
        E 1 9b 49 64
        E 0 9c 45 64
        E 473 8b 49 64
        E 1 8c 45 64
        E 1 9b 4a 64
        E 0 9c 47 64
        E 1 9e 39 64
        E 479 87 39 64
        E 0 8a 39 64
        E 0 8b 4a 64
        E 1 8c 47 64
        E 0 8e 39 64
        E 0 9b 4a 64
        E 1 9c 47 64
        E 0 9e 2d 64
        E 478 8b 4a 64
        E 1 8c 47 64
        E 1 97 45 64
        E 0 9a 45 64
        E 1 9b 4c 64
        E 0 9c 49 64
        E 478 87 45 64
        E 1 8a 45 64
        E 0 8b 4c 64
        E 1 8c 49 64
        E 0 8e 2d 64
        E 1 97 39 64
        E 0 9a 39 64
        E 0 9b 4c 64
        E 1 9c 49 64
        E 474 8b 4c 64
        E 1 8c 49 64
        E 0 9b 4a 64
        E 0 9c 47 64
        E 1 9e 39 64
        E 239 8b 4a 64
        E 0 8c 47 64
        E 1 9b 49 64
        E 1 9c 45 64
        E 236 87 39 64
        E 1 8a 39 64
        E 0 8b 49 64
        E 1 8c 45 64
        E 0 8e 39 64
        E 1 9b 4e 64
        E 1 9c 4a 64
        E 0 9e 2d 64
        E 475 8b 4e 64
        E 1 97 45 64
        E 0 9a 45 64
        E 1 9b 4a 64
        E 481 87 45 64
        E 1 8a 45 64
        E 0 8b 4a 64
        E 1 8c 4a 64
        E 0 8e 2d 64
        E 1 97 39 64
        E 0 9a 39 64
        E 1 9b 4c 64
        E 0 9c 49 64
        E 475 8b 4c 64
        E 0 8c 49 64
        E 0 9b 4a 64
        E 1 9c 47 64
        E 0 9e 39 64
        E 239 8b 4a 64
        E 0 8c 47 64
        E 0 9b 49 64
        E 0 9c 45 64
        E 242 87 39 64
        E 0 8a 39 64
        E 0 8b 49 64
        E 1 8c 45 64
        E 0 8e 39 64
        E 0 9b 4e 64
        E 0 9c 4a 64
        E 1 9e 2d 64
        E 479 8b 4e 64
        E 0 97 45 64
        E 1 9a 45 64
        E 0 9b 4a 64
        E 476 87 45 64
        E 0 8a 45 64
        E 1 8b 4a 64
        E 1 8c 4a 64
        E 0 8e 2d 64
        E 1 97 39 64
        E 0 9a 39 64
        E 1 9b 4c 64
        E 0 9c 49 64
        E 476 87 39 64
        E 0 8a 39 64
        E 0 97 45 64
        E 1 9a 45 64
        E 0 9e 39 64
        E 482 87 45 64
        E 0 8a 45 64
        E 1 8e 39 64
        E 1 97 39 64
        E 0 9a 39 64
        E 1 9e 2d 64
        E 472 87 39 64
        E 1 8a 39 64
        E 1 8b 4c 64
        E 1 8c 49 64
        E 0 8e 2d 64
        E 1 97 45 64
        E 0 9a 45 64
        E 1 9b 4a 64
        E 0 9c 4a 64
        E 1 9e 39 64
        E 475 87 45 64
        E 1 8a 45 64
        E 1 8b 4a 64
        E 0 8c 4a 64
        E 1 8e 39 64
        E 1 97 3e 64
        E 0 9a 3e 64
        E 3 9b 4a 64
        E 0 9c 4a 64
        E 1 9e 32 64
        E 953 87 3e 64
        E 1 8a 3e 64
        E 719 97 4a 64
        E 240 87 4a 64
        E 3 8b 4a 64
        E 0 8c 4a 64
        E 1 8e 32 64
        E 1 97 4e 64
        E 0 9a 45 64
        E 1 9e 3e 64
        E 953 87 4e 64
        E 1 8a 45 64
        E 1 8e 3e 64
        E 1 97 4f 64
        E 1 9a 47 64
        E 0 9e 37 64
        E 960 87 4f 64
        E 1 8a 47 64
        E 1 8e 37 64
        E 0 97 51 64
        E 1 9a 42 64
        E 0 9e 32 64
        E 954 87 51 64
        E 1 8a 42 64
        E 1 8e 32 64
        E 480 97 53 64
        E 239 87 53 64
        E 1 97 55 64
        E 239 87 55 64
        E 1 97 56 64
        E 1 9a 42 64
        E 0 9e 32 64
        E 478 87 56 64
        E 1 97 55 64
        E 239 87 55 64
        E 1 97 53 64
        E 240 87 53 64
        E 1 8a 42 64
        E 1 8e 32 64
        E 0 97 51 64
        E 1 9a 40 64
        E 0 9e 31 64
        E 475 87 51 64
        E 1 97 4f 64
        E 481 87 4f 64
        E 1 8a 40 64
        E 0 8e 31 64
        E 1 97 4e 64
        E 0 9a 39 64
        E 1 9e 32 64
        E 475 87 4e 64
        E 1 8a 39 64
        E 0 8e 32 64
        E 1 97 4c 64
        E 1 9a 4a 64
        E 0 9e 3e 64
        E 236 87 4c 64
        E 1 97 4a 64
        E 241 87 4a 64
        E 1 8a 4a 64
        E 0 8e 3e 64
        E 1 97 49 64
        E 0 9a 49 64
        E 1 9e 3d 64
        E 476 87 49 64
        E 0 8a 49 64
        E 1 8e 3d 64
        E 1 97 47 64
        E 0 9a 47 64
        E 0 9e 3b 64
        E 478 87 47 64
        E 1 8a 47 64
        E 0 8e 3b 64
        E 1 97 45 64
        E 0 9a 45 64
        E 1 9e 39 64
        E 478 87 45 64
        E 0 8a 45 64
        E 0 8e 39 64
        E 0 97 43 64
        E 0 9a 43 64
        E 1 9e 37 64
        E 237 87 43 64
        E 1 8a 43 64
        E 1 8e 37 64
        E 0 97 42 64
        E 1 9a 42 64
        E 0 9e 36 64
        E 237 87 42 64
        E 1 8a 42 64
        E 1 8e 36 64
        E 0 97 40 64
        E 1 9a 40 64
        E 0 9e 34 64
        E 475 87 40 64
        E 1 8a 40 64
        E 1 8e 34 64
        E 0 97 3e 64
        E 1 9a 3e 64
        E 0 9e 32 64
        E 480 87 3e 64
        E 1 8a 3e 64
        E 0 8e 32 64
        E 1 97 45 64
        E 1 9a 45 64
        E 0 9e 39 64
        E 478 8e 39 64
        E 1 9e 39 64
        E 478 87 45 64
        E 1 8a 45 64
        E 0 8e 39 64
        E 1 9e 32 64
        E 478 97 4a 64
        E 1 9a 4a 64
        E 1 9b 45 64
        E 0 9c 42 64
        E 476 87 4a 64
        E 0 8a 4a 64
        E 1 8b 45 64
        E 0 8c 42 64
        E 1 8e 32 64
        E 0 97 3e 64
        E 1 9a 3e 64
        E 0 9b 47 64
        E 1 9c 43 64
        E 478 9e 3e 64
        E 479 87 3e 64
        E 1 8a 3e 64
        E 1 8b 47 64
        E 1 8c 43 64
        E 4 8e 3e 64
        E 0 9b 47 64
        E 1 9c 43 64
        E 1 9e 32 64
        E 470 97 4a 64
        E 1 9a 4a 64
        E 483 87 4a 64
        E 1 8a 4a 64
        E 1 8b 47 64
        E 0 8c 43 64
        E 1 8e 32 64
        E 1 97 3e 64
        E 1 9a 3e 64
        E 0 9b 45 64
        E 1 9c 42 64
        E 475 9e 3e 64
        E 478 87 3e 64
        E 2 8a 3e 64
        E 0 8b 45 64
        E 1 8c 42 64
        E 1 8e 3e 64
        E 1 9b 4a 64
        E 0 9c 42 64
        E 1 9e 32 64
        E 471 8b 4a 64
        E 0 8c 42 64
        E 1 97 4a 64
        E 1 9a 4a 64
        E 0 9b 45 64
        E 1 9c 42 64
        E 482 87 4a 64
        E 0 8a 4a 64
        E 1 8b 45 64
        E 0 8c 42 64
        E 1 8e 32 64
        E 1 97 3e 64
        E 0 9a 3e 64
        E 1 9b 47 64
        E 1 9c 43 64
        E 474 9e 3e 64
        E 478 87 3e 64
        E 1 8a 3e 64
        E 0 8b 47 64
        E 1 8c 43 64
        E 1 8e 3e 64
        E 1 9b 47 64
        E 1 9c 43 64
        E 0 9e 32 64
        E 477 8b 47 64
        E 1 8c 43 64
        E 0 97 4a 64
        E 1 9a 4a 64
        E 1 9b 47 64
        E 0 9c 43 64
        E 477 87 4a 64
        E 0 8a 4a 64
        E 1 8b 47 64
        E 0 8c 43 64
        E 1 8e 32 64
        E 1 97 3e 64
        E 1 9a 3e 64
        E 0 9b 45 64
        E 1 9c 42 64
        E 474 9e 3e 64
        E 479 87 3e 64
        E 1 8a 3e 64
        E 1 8b 45 64
        E 0 8c 42 64
        E 1 8e 3e 64
        E 1 9b 4a 64
        E 1 9e 32 64
        E 475 97 3e 64
        E 0 9a 3e 64
        E 482 87 3e 64
        E 1 8a 3e 64
        E 1 8b 4a 64
        E 0 8e 32 64
        E 1 97 38 64
        E 1 9a 38 64
        E 0 9b 4a 64
        E 2 9c 4c 64
        E 472 8b 4a 64
        E 0 8c 4c 64
        E 1 9b 4d 64
        E 1 9c 4a 64
        E 0 9e 38 64
        E 477 87 38 64
        E 1 8a 38 64
        E 1 8b 4d 64
        E 0 8c 4a 64
        E 0 8e 38 64
        E 1 9b 4c 64
        E 1 9c 48 64
        E 0 9e 2c 64
        E 478 8b 4c 64
        E 1 8c 48 64
        E 1 97 40 64
        E 0 9a 40 64
        E 1 9b 4a 64
        E 0 9c 47 64
        E 474 87 40 64
        E 0 8a 40 64
        E 1 8b 4a 64
        E 1 8c 47 64
        E 0 8e 2c 64
        E 1 97 39 64
        E 0 9a 39 64
        E 1 9b 48 64
        E 0 9c 45 64
        E 1 9e 2d 64
        E 477 8e 2d 64
        E 1 9e 2f 64
        E 476 87 39 64
        E 0 8a 39 64
        E 1 8b 48 64
        E 1 8e 2f 64
        E 0 9b 4c 64
        E 1 9e 30 64
        E 479 8e 30 64
        E 1 9e 2f 64
        E 479 8b 4c 64
        E 1 8c 45 64
        E 1 8e 2f 64
        E 0 9b 48 64
        E 1 9e 2d 64
        E 479 8b 48 64
        E 1 8e 2d 64
        E 1 9b 47 64
        E 0 9e 2f 64
        E 476 8b 47 64
        E 1 8e 2f 64
        E 1 9b 45 64
        E 0 9e 30 64
        E 478 8b 45 64
        E 1 8e 30 64
        E 0 9b 44 64
        E 1 9e 32 64
        E 238 8e 32 64
        E 1 9e 34 64
        E 240 8b 44 64
        E 1 8e 34 64
        E 1 9b 45 64
        E 0 9e 35 64
        E 480 97 4a 64
        E 1 9a 4a 64
        E 478 87 4a 64
        E 1 8a 4a 64
        E 0 8e 35 64
        E 1 97 41 64
        E 0 9a 41 64
        E 0 9c 4d 64
        E 475 9e 3e 64
        E 484 87 41 64
        E 1 8a 41 64
        E 1 8b 45 64
        E 0 8c 4d 64
        E 1 8e 3e 64
        E 0 9b 45 64
        E 1 9c 4a 64
        E 0 9e 35 64
        E 473 8c 4a 64
        E 1 97 4a 64
        E 0 9a 4a 64
        E 1 9c 48 64
        E 477 87 4a 64
        E 1 8a 4a 64
        E 0 8c 48 64
        E 1 8e 35 64
        E 1 97 41 64
        E 1 9a 41 64
        E 0 9c 47 64
        E 480 8c 47 64
        E 1 9c 45 64
        E 1 9e 3e 64
        E 475 87 41 64
        E 1 8a 41 64
        E 0 8b 45 64
        E 1 8c 45 64
        E 0 8e 3e 64
        E 2 9b 44 64
        E 1 9c 47 64
        E 0 9e 34 64
        E 478 8b 44 64
        E 0 8c 47 64
        E 1 97 4c 64
        E 0 9a 4c 64
        E 1 9b 45 64
        E 1 9c 48 64
        E 477 87 4c 64
        E 0 8a 4c 64
        E 1 8b 45 64
        E 1 8c 48 64
        E 0 8e 34 64
        E 0 97 40 64
        E 1 9a 40 64
        E 0 9b 45 64
        E 1 9c 48 64
        E 475 87 40 64
        E 0 8b 45 64
        E 1 8c 48 64
        E 1 9b 47 64
        E 1 9c 4a 64
        E 0 9e 40 64
        E 476 8a 40 64
        E 0 8b 47 64
        E 0 8c 4a 64
        E 1 8e 40 64
        E 0 9b 47 64
        E 0 9c 4a 64
        E 1 9e 34 64
        E 476 8b 47 64
        E 0 8c 4a 64
        E 1 97 4c 64
        E 0 9a 4c 64
        E 1 9b 45 64
        E 0 9c 48 64
        E 480 87 4c 64
        E 1 8a 4c 64
        E 1 8b 45 64
        E 0 8c 48 64
        E 1 8e 34 64
        E 1 97 40 64
        E 0 9a 40 64
        E 1 9b 45 64
        E 0 9c 48 64
        E 475 87 40 64
        E 0 8b 45 64
        E 1 8c 48 64
        E 1 9b 44 64
        E 0 9c 47 64
        E 1 9e 40 64
        E 478 8a 40 64
        E 1 8b 44 64
        E 1 8c 47 64
        E 0 8e 40 64
        E 1 9b 44 64
        E 0 9c 47 64
        E 0 9e 34 64
        E 478 8e 34 64
        E 1 9e 40 64
        E 476 8b 44 64
        E 1 8c 47 64
        E 0 8e 40 64
        E 1 9c 4c 64
        E 1 9e 3c 64
        E 478 8e 3c 64
        E 0 9e 39 64
        E 481 8c 4c 64
        E 0 8e 39 64
        E 1 9b 4d 64
        E 1 9c 4c 64
        E 0 9e 2d 64
        E 479 8c 4c 64
        E 1 97 45 64
        E 1 9a 45 64
        E 0 9c 4a 64
        E 236 8c 4a 64
        E 1 9c 48 64
        E 241 87 45 64
        E 0 8a 45 64
        E 1 8c 48 64
        E 0 8e 2d 64
        E 1 97 39 64
        E 0 9a 39 64
        E 1 9c 4a 64
        E 474 8b 4d 64
        E 1 9b 4c 64
        E 1 9e 39 64
        E 239 8b 4c 64
        E 1 9b 4a 64
        E 238 87 39 64
        E 0 8a 39 64
        E 1 8b 4a 64
        E 0 8c 4a 64
        E 1 8e 39 64
        E 1 9b 4c 64
        E 0 9c 4a 64
        E 1 9e 2d 64
        E 476 8c 4a 64
        E 1 97 45 64
        E 0 9a 45 64
        E 1 9c 48 64
        E 237 8c 48 64
        E 1 9c 47 64
        E 239 87 45 64
        E 1 8a 45 64
        E 1 8c 47 64
        E 0 8e 2d 64
        E 1 97 39 64
        E 0 9a 39 64
        E 1 9c 48 64
        E 476 8b 4c 64
        E 1 9b 4a 64
        E 1 9e 39 64
        E 240 8b 4a 64
        E 0 9b 48 64
        E 242 87 39 64
        E 1 8a 39 64
        E 0 8b 48 64
        E 1 8c 48 64
        E 0 8e 39 64
        E 1 9b 4a 64
        E 0 9c 48 64
        E 0 9e 2d 64
        E 475 8c 48 64
        E 1 97 45 64
        E 0 9a 45 64
        E 1 9c 47 64
        E 237 8c 47 64
        E 1 9c 45 64
        E 241 87 45 64
        E 1 8a 45 64
        E 0 8c 45 64
        E 1 8e 2d 64
        E 1 97 39 64
        E 0 9a 39 64
        E 0 9c 47 64
        E 476 8b 4a 64
        E 1 9b 48 64
        E 0 9e 39 64
        E 240 8b 48 64
        E 0 9b 47 64
        E 238 87 39 64
        E 1 8a 39 64
        E 1 8b 47 64
        E 0 8c 47 64
        E 1 8e 39 64
        E 0 9b 49 64
        E 1 9c 47 64
        E 1 9e 2d 64
        E 476 97 45 64
        E 0 9a 45 64
        E 482 87 45 64
        E 1 8a 45 64
        E 1 8b 49 64
        E 1 8c 47 64
        E 1 8e 2d 64
        E 0 97 39 64
        E 1 9a 39 64
        E 0 9b 4b 64
        E 1 9c 47 64
        E 473 9e 39 64
        E 479 87 39 64
        E 1 8a 39 64
        E 1 8b 4b 64
        E 1 8c 47 64
        E 0 8e 39 64
        E 1 9b 4c 64
        E 1 9c 47 64
        E 0 9e 37 64
        E 476 8b 4c 64
        E 0 8e 37 64
        E 1 9b 47 64
        E 0 9e 36 64
        E 477 8b 47 64
        E 1 8c 47 64
        E 0 8e 36 64
        E 1 9e 37 64
        E 478 8e 37 64
        E 0 9b 47 64
        E 1 9c 43 64
        E 1 9e 34 64
        E 480 8b 47 64
        E 0 8c 43 64
        E 1 8e 34 64
        E 1 9b 49 64
        E 0 9c 43 64
        E 1 9e 39 64
        E 478 8b 49 64
        E 0 8c 43 64
        E 1 9b 4b 64
        E 0 9c 42 64
        E 478 8b 4b 64
        E 0 8c 42 64
        E 1 9b 4c 64
        E 1 9c 45 64
        E 477 8b 4c 64
        E 1 8c 45 64
        E 0 9b 4e 64
        E 1 9c 43 64
        E 480 8b 4e 64
        E 0 8c 43 64
        E 1 8e 39 64
        E 1 9b 4b 64
        E 0 9c 42 64
        E 1 9e 3b 64
        E 956 8e 3b 64
        E 1 9e 2f 64
        E 480 8b 4b 64
        E 0 8c 42 64
        E 0 9b 4c 64
        E 1 9c 42 64
        E 239 97 47 64
        E 239 87 47 64
        E 1 8b 4c 64
        E 0 8c 42 64
        E 1 8e 2f 64
        E 0 97 4c 64
        E 1 9a 43 64
        E 1 9b 4c 64
        E 0 9c 40 64
        E 1 9e 28 64
        E 955 87 4c 64
        E 1 8a 43 64
        E 1 8e 28 64
        E 0 97 4e 64
        E 1 9a 3f 64
        E 1 9e 2f 64
        E 956 87 4e 64
        E 0 8a 3f 64
        E 1 8b 4c 64
        E 0 8c 40 64
        E 1 8e 2f 64
        E 1 97 4f 64
        E 0 9a 3b 64
        E 0 9e 34 64
        E 476 87 4f 64
        E 1 97 51 64
        E 240 87 51 64
        E 1 97 53 64
        E 237 87 53 64
        E 1 8a 3b 64
        E 1 8e 34 64
        E 0 97 4f 64
        E 480 87 4f 64
        E 0 97 4e 64
        E 1 9a 4b 64
        E 0 9e 3b 64
        E 479 87 4e 64
        E 1 8a 4b 64
        E 1 8e 3b 64
        E 1 97 4c 64
        E 0 9a 4c 64
        E 1 9e 40 64
        E 476 87 4c 64
        E 0 8a 4c 64
        E 1 8e 40 64
        E 0 97 4a 64
        E 1 9a 4a 64
        E 1 9e 3e 64
        E 237 87 4a 64
        E 1 8a 4a 64
        E 1 8e 3e 64
        E 0 97 48 64
        E 1 9a 48 64
        E 1 9e 3c 64
        E 237 87 48 64
        E 1 8a 48 64
        E 1 8e 3c 64
        E 0 97 47 64
        E 1 9a 47 64
        E 0 9e 3b 64
        E 476 87 47 64
        E 0 8a 47 64
        E 1 8e 3b 64
        E 1 97 45 64
        E 0 9a 45 64
        E 1 9e 39 64
        E 475 87 45 64
        E 0 8a 45 64
        E 1 8e 39 64
        E 1 97 43 64
        E 1 9a 43 64
        E 0 9e 37 64
        E 480 87 43 64
        E 1 8a 43 64
        E 0 8e 37 64
        E 1 97 42 64
        E 0 9a 42 64
        E 0 9e 36 64
        E 237 87 42 64
        E 1 8a 42 64
        E 0 8e 36 64
        E 0 97 40 64
        E 0 9a 40 64
        E 1 9e 34 64
        E 237 87 40 64
        E 1 8a 40 64
        E 0 8e 34 64
        E 0 97 43 64
        E 1 9a 43 64
        E 0 9e 37 64
        E 478 87 43 64
        E 0 8a 43 64
        E 1 8e 37 64
        E 1 97 45 64
        E 0 9a 45 64
        E 1 9e 39 64
        E 477 87 45 64
        E 1 8a 45 64
        E 0 8e 39 64
        E 1 97 47 64
        E 1 9a 47 64
        E 0 9e 3b 64
        E 476 8a 47 64
        E 1 8e 3b 64
        E 0 9a 44 64
        E 479 87 47 64
        E 1 8a 44 64
        E 1 9a 47 64
        E 0 9b 47 64
        E 476 8a 47 64
        E 1 8b 47 64
        E 0 97 4c 64
        E 1 9a 44 64
        E 1 9b 4c 64
        E 481 87 4c 64
        E 0 8a 44 64
        E 1 8b 4c 64
        E 0 97 43 64
        E 1 9a 40 64
        E 0 9b 49 64
        E 0 9e 39 64
        E 478 8e 39 64
        E 1 9e 2d 64
        E 476 87 43 64
        E 1 8a 40 64
        E 1 8e 2d 64
        E 0 97 43 64
        E 1 9a 40 64
        E 0 9e 31 64
        E 239 87 43 64
        E 1 97 42 64
        E 240 87 42 64
        E 0 8a 40 64
        E 1 8b 49 64
        E 1 8e 31 64
        E 0 97 43 64
        E 1 9a 3d 64
        E 1 9b 49 64
        E 0 9e 2d 64
        E 233 87 43 64
        E 1 97 45 64
        E 242 87 45 64
        E 1 8a 3d 64
        E 0 8b 49 64
        E 1 8e 2d 64
        E 0 97 42 64
        E 1 9a 39 64
        E 1 9b 4a 64
        E 1 9e 32 64
        E 475 87 42 64
        E 0 97 3e 64
        E 481 87 3e 64
        E 0 8a 39 64
        E 0 8b 4a 64
        E 1 8e 32 64
        E 0 97 42 64
        E 0 9b 45 64
        E 478 87 42 64
        E 1 8b 45 64
        E 1 97 4a 64
        E 1 9a 42 64
        E 0 9b 4a 64
        E 1 9e 32 64
        E 475 87 4a 64
        E 0 8a 42 64
        E 1 8b 4a 64
        E 0 8e 32 64
        E 1 97 41 64
        E 0 9a 3e 64
        E 1 9b 47 64
        E 1 9e 37 64
        E 478 8e 37 64
        E 0 9e 2b 64
        E 480 87 41 64
        E 1 8a 3e 64
        E 1 8e 2b 64
        E 0 97 41 64
        E 1 9a 3e 64
        E 0 9e 2f 64
        E 236 87 41 64
        E 1 97 40 64
        E 238 87 40 64
        E 0 8a 3e 64
        E 0 8b 47 64
        E 1 8e 2f 64
        E 0 97 41 64
        E 1 9a 3b 64
        E 0 9b 47 64
        E 1 9e 2b 64
        E 238 87 41 64
        E 0 97 43 64
        E 241 87 43 64
        E 1 8a 3b 64
        E 1 8b 47 64
        E 0 8e 2b 64
        E 1 97 40 64
        E 0 9a 37 64
        E 1 9b 48 64
        E 0 9c 4c 64
        E 1 9e 30 64
        E 474 87 40 64
        E 0 97 3c 64
        E 479 87 3c 64
        E 1 8a 37 64
        E 0 8b 48 64
        E 1 8c 4c 64
        E 1 97 40 64
        E 0 9c 48 64
        E 478 87 40 64
        E 1 8c 48 64
        E 0 8e 30 64
        E 1 97 48 64
        E 1 9c 46 66
        E 1 9e 30 64
        E 473 87 48 64
        E 0 8c 46 66
        E 1 8e 30 64
        E 1 97 48 64
        E 1 9c 45 64
        E 0 9e 35 64
        E 479 87 48 64
        E 1 8c 45 64
        E 0 97 41 64
        E 1 9c 4d 64
        E 482 87 41 64
        E 0 8c 4d 64
        E 1 8e 35 64
        E 1 97 45 64
        E 0 9c 4a 64
        E 1 9e 36 64
        E 471 87 45 64
        E 1 8c 4a 64
        E 0 97 4a 64
        E 1 9c 48 64
        E 481 87 4a 64
        E 0 8c 48 64
        E 1 8e 36 64
        E 1 97 4a 64
        E 0 9c 47 64
        E 1 9e 37 64
        E 315 9c 45 64
        E 161 87 4a 64
        E 1 8c 47 64
        E 1 97 47 64
        E 156 9c 43 64
        E 164 8c 45 64
        E 159 87 47 64
        E 1 8e 37 64
        E 1 97 43 64
        E 0 9c 4c 64
        E 1 9e 3c 64
        E 155 8c 43 64
        E 161 9c 4a 64
        E 162 87 43 64
        E 0 8c 4c 64
        E 1 97 4c 64
        E 156 9c 48 64
        E 160 8c 4a 64
        E 161 87 4c 64
        E 0 8e 3c 64
        E 1 97 4a 64
        E 1 9c 47 64
        E 0 9e 37 64
        E 158 8c 48 64
        E 322 87 4a 64
        E 1 97 47 64
        E 477 87 47 64
        E 0 8e 37 64
        E 1 97 43 64
        E 1 9e 2b 64
        E 477 87 43 64
        E 1 8c 47 64
        E 0 97 4a 64
        E 1 9c 48 64
        E 482 87 4a 64
        E 1 8c 48 64
        E 0 8e 2b 64
        E 1 97 4c 64
        E 0 9c 48 64
        E 1 9e 30 64
        E 955 87 4c 64
        E 0 8e 30 64
        E 719 97 48 64
        E 240 87 48 64
        E 1 8c 48 64
        E 1 97 4c 64
        E 1 9a 43 64
        E 0 9e 3c 64
        E 958 87 4c 64
        E 1 8a 43 64
        E 0 8e 3c 64
        E 1 97 4d 64
        E 0 9a 45 64
        E 1 9e 35 64
        E 959 87 4d 64
        E 1 8a 45 64
        E 1 8e 35 64
        E 1 97 4f 64
        E 1 9a 40 64
        E 1 9e 30 64
        E 953 87 4f 64
        E 1 8a 40 64
        E 1 8e 30 64
        E 478 97 51 64
        E 240 87 51 64
        E 1 97 53 64
        E 237 87 53 64
        E 1 97 54 64
        E 1 9a 40 64
        E 0 9e 3c 64
        E 481 87 54 64
        E 0 97 53 64
        E 240 87 53 64
        E 0 97 51 64
        E 239 87 51 64
        E 1 8a 40 64
        E 0 8e 3c 64
        E 1 97 4f 64
        E 1 9a 3e 64
        E 0 9e 3b 64
        E 474 87 4f 64
        E 0 97 4d 64
        E 482 87 4d 64
        E 0 8a 3e 64
        E 1 8e 3b 64
        E 1 97 4c 64
        E 1 9a 43 64
        E 0 9e 3c 64
        E 478 87 4c 64
        E 0 97 4a 64
        E 239 87 4a 64
        E 0 97 48 64
        E 238 87 48 64
        E 0 8a 43 64
        E 1 8e 3c 64
        E 0 97 47 64
        E 0 9a 47 64
        E 0 9e 3b 64
        E 484 87 47 64
        E 0 8a 47 64
        E 1 8e 3b 64
        E 0 97 45 64
        E 1 9a 45 64
        E 0 9e 39 64
        E 476 87 45 64
        E 1 8a 45 64
        E 1 8e 39 64
        E 0 97 43 64
        E 1 9a 43 64
        E 1 9e 37 64
        E 476 87 43 64
        E 0 8a 43 64
        E 0 8e 37 64
        E 1 97 41 64
        E 1 9a 41 64
        E 1 9e 35 64
        E 237 87 41 64
        E 0 8a 41 64
        E 1 8e 35 64
        E 0 97 40 64
        E 1 9a 40 64
        E 0 9e 34 64
        E 239 87 40 64
        E 0 8a 40 64
        E 1 8e 34 64
        E 1 97 3e 64
        E 0 9a 3e 64
        E 1 9e 32 64
        E 475 87 3e 64
        E 1 8a 3e 64
        E 1 8e 32 64
        E 1 97 3c 64
        E 0 9a 3c 64
        E 1 9e 30 64
        E 477 87 3c 64
        E 0 8a 3c 64
        E 1 8e 30 64
        E 1 97 37 64
        E 1 9a 37 64
        E 0 9e 2b 64
        E 477 8e 2b 64
        E 1 9e 37 64
        E 478 87 37 64
        E 0 8a 37 64
        E 1 8e 37 64
        E 0 9e 2b 64
        E 480 97 43 64
        E 0 9a 43 64
        E 1 9b 4a 64
        E 1 9c 47 64
        E 479 87 43 64
        E 0 8a 43 64
        E 1 8b 4a 64
        E 0 8c 47 64
        E 1 8e 2b 64
        E 1 97 37 64
        E 0 9a 37 64
        E 1 9b 4c 64
        E 0 9c 48 64
        E 475 8b 4c 64
        E 0 8c 48 64
        E 1 9b 4a 64
        E 1 9c 47 64
        E 1 9e 37 64
        E 478 87 37 64
        E 1 8a 37 64
        E 1 8b 4a 64
        E 0 8c 47 64
        E 0 8e 37 64
        E 2 9b 4c 64
        E 0 9c 48 64
        E 1 9e 2b 64
        E 474 8b 4c 64
        E 1 8c 48 64
        E 1 97 43 64
        E 0 9a 43 64
        E 1 9b 4d 64
        E 0 9c 4a 64
        E 477 87 43 64
        E 1 8a 43 64
        E 1 8b 4d 64
        E 0 8c 4a 64
        E 1 8e 2b 64
        E 0 97 37 64
        E 1 9a 37 64
        E 0 9b 4a 64
        E 1 9c 47 64
        E 475 9e 37 64
        E 479 87 37 64
        E 1 8a 37 64
        E 1 8b 4a 64
        E 0 8c 47 64
        E 1 8e 37 64
        E 1 9b 48 64
        E 0 9c 45 64
        E 2 9e 2b 64
        E 476 8b 48 64
        E 1 8c 45 64
        E 0 97 43 64
        E 1 9a 43 64
        E 0 9b 4a 64
        E 1 9c 47 64
        E 478 87 43 64
        E 1 8a 43 64
        E 0 8b 4a 64
        E 0 8c 47 64
        E 1 8e 2b 64
        E 1 97 37 64
        E 1 9a 37 64
        E 0 9b 4c 64
        E 1 9c 48 64
        E 472 9e 37 64
        E 482 87 37 64
        E 0 8a 37 64
        E 1 8b 4c 64
        E 0 8c 48 64
        E 1 8e 37 64
        E 1 9b 4d 64
        E 0 9c 4a 64
        E 1 9e 2b 64
        E 475 8b 4d 64
        E 1 8c 4a 64
        E 1 97 43 64
        E 0 9a 43 64
        E 1 9b 4c 64
        E 1 9c 48 64
        E 475 87 43 64
        E 1 8a 43 64
        E 1 8b 4c 64
        E 0 8c 48 64
        E 1 8e 2b 64
        E 1 97 37 64
        E 0 9a 37 64
        E 1 9b 4a 64
        E 1 9c 47 64
        E 477 9e 37 64
        E 478 87 37 64
        E 0 8a 37 64
        E 1 8b 4a 64
        E 1 8c 47 64
        E 0 8e 37 64
        E 1 9b 4c 64
        E 1 9c 48 64
        E 0 9e 2b 64
        E 477 8b 4c 64
        E 0 8c 48 64
        E 1 97 43 64
        E 1 9a 43 64
        E 0 9b 4a 64
        E 1 9c 47 64
        E 476 87 43 64
        E 1 8a 43 64
        E 0 8b 4a 64
        E 1 8c 47 64
        E 1 8e 2b 64
        E 0 97 37 64
        E 1 9a 37 64
        E 0 9b 48 64
        E 1 9c 45 64
        E 474 9e 37 64
        E 480 87 37 64
        E 0 8a 37 64
        E 0 8b 48 64
        E 1 8c 45 64
        E 1 8e 37 64
        E 1 9b 4a 64
        E 0 9c 47 64
        E 1 9e 2b 64
        E 478 8b 4a 64
        E 0 8c 47 64
        E 1 97 43 64
        E 0 9a 43 64
        E 1 9b 48 64
        E 0 9c 45 64
        E 477 87 43 64
        E 0 8a 43 64
        E 1 8b 48 64
        E 1 8c 45 64
        E 0 8e 2b 64
        E 1 97 37 64
        E 0 9a 37 64
        E 1 9b 47 64
        E 1 9c 43 64
        E 477 8b 47 64
        E 0 8c 43 64
        E 1 9b 47 64
        E 0 9c 43 64
        E 1 9e 37 64
        E 477 87 37 64
        E 1 8a 37 64
        E 0 8b 47 64
        E 1 8c 43 64
        E 1 8e 37 64
        E 0 9b 48 64
        E 1 9c 45 64
        E 1 9e 2b 64
        E 473 8b 48 64
        E 0 8c 45 64
        E 1 97 43 64
        E 1 9a 43 64
        E 0 9b 4a 64
        E 1 9c 47 64
        E 479 87 43 64
        E 1 8a 43 64
        E 1 8b 4a 64
        E 0 8c 47 64
        E 1 8e 2b 64
        E 0 97 37 64
        E 1 9a 37 64
        E 0 9b 48 64
        E 1 9c 45 64
        E 474 9e 37 64
        E 480 87 37 64
        E 0 8a 37 64
        E 1 8b 48 64
        E 1 8c 45 64
        E 0 8e 37 64
        E 1 9b 47 64
        E 1 9c 43 64
        E 1 9e 2b 64
        E 475 97 43 64
        E 0 9a 43 64
        E 478 87 43 64
        E 0 8a 43 64
        E 1 8b 47 64
        E 1 8c 43 64
        E 0 8e 2b 64
        E 1 97 3e 64
        E 0 9a 3e 64
        E 1 9b 45 64
        E 0 9c 42 64
        E 1 9e 32 64
        E 478 8e 32 64
        E 1 9e 34 64
        E 479 87 3e 64
        E 1 8a 3e 64
        E 1 8b 45 64
        E 0 8c 42 64
        E 1 8e 34 64
        E 0 9b 4e 64
        E 1 9c 4a 64
        E 0 9e 36 64
        E 475 8e 36 64
        E 1 97 4a 64
        E 1 9e 32 64
        E 237 8b 4e 64
        E 1 8c 4a 64
        E 1 9b 4e 64
        E 0 9c 4a 64
        E 239 87 4a 64
        E 0 8b 4e 64
        E 1 8c 4a 64
        E 1 8e 32 64
        E 0 97 41 64
        E 0 9b 4a 64
        E 1 9c 47 64
        E 0 9e 2b 64
        E 958 87 41 64
        E 1 8b 4a 64
        E 0 8c 47 64
        E 1 97 41 64
        E 1 9b 47 64
        E 1 9c 43 64
        E 236 87 41 64
        E 1 97 40 64
        E 237 87 40 64
        E 1 8e 2b 64
        E 0 97 41 64
        E 1 9e 2b 64
        E 239 87 41 64
        E 1 97 43 64
        E 238 87 43 64
        E 1 8b 47 64
        E 1 8c 43 64
        E 0 8e 2b 64
        E 1 97 40 64
        E 0 9b 43 64
        E 1 9c 40 64
        E 0 9e 30 64
        E 478 87 40 64
        E 0 97 3c 64
        E 479 87 3c 64
        E 1 8b 43 64
        E 1 8c 40 64
        E 0 97 40 64
        E 1 9b 4c 64
        E 0 9c 43 64
        E 475 87 40 64
        E 0 8e 30 64
        E 1 97 4c 64
        E 1 9e 30 64
        E 241 8b 4c 64
        E 0 8c 43 64
        E 1 9b 4c 64
        E 1 9c 43 64
        E 238 87 4c 64
        E 0 8b 4c 64
        E 1 8c 43 64
        E 0 8e 30 64
        E 1 97 43 64
        E 0 9b 4c 64
        E 1 9c 49 64
        E 0 9e 2d 64
        E 957 87 43 64
        E 1 8b 4c 64
        E 1 8c 49 64
        E 0 97 43 64
        E 1 9b 49 64
        E 0 9c 45 64
        E 235 87 43 64
        E 1 97 42 64
        E 240 87 42 64
        E 0 8e 2d 64
        E 1 97 43 64
        E 1 9e 2d 64
        E 234 87 43 64
        E 1 97 45 64
        E 240 87 45 64
        E 1 8b 49 64
        E 0 8c 45 64
        E 1 8e 2d 64
        E 0 97 42 64
        E 1 9b 45 64
        E 0 9c 42 64
        E 1 9e 32 64
        E 476 87 42 64
        E 0 97 3e 64
        E 485 87 3e 64
        E 1 97 42 64
        E 477 87 42 64
        E 0 8e 32 64
        E 1 97 51 64
        E 1 9a 42 64
        E 1 9e 32 64
        E 477 87 51 64
        E 0 8a 42 64
        E 1 8b 45 64
        E 1 8c 42 64
        E 0 8e 32 64
        E 1 97 48 64
        E 0 9a 40 64
        E 1 9e 39 64
        E 478 8e 39 64
        E 0 9e 37 64
        E 478 87 48 64
        E 1 8a 40 64
        E 1 8e 37 64
        E 0 97 48 64
        E 1 9a 45 64
        E 1 9e 36 64
        E 237 87 48 64
        E 0 97 47 64
        E 238 87 47 64
        E 0 8a 45 64
        E 1 8e 36 64
        E 1 97 48 64
        E 1 9a 42 64
        E 0 9e 32 64
        E 239 87 48 64
        E 0 97 4a 64
        E 238 87 4a 64
        E 1 8a 42 64
        E 0 8e 32 64
        E 0 97 47 64
        E 1 9a 3e 64
        E 0 9e 37 64
        E 479 87 47 64
        E 1 8e 37 64
        E 0 97 43 64
        E 1 9e 37 64
        E 479 87 43 64
        E 1 8a 3e 64
        E 1 8e 37 64
        E 0 97 37 64
        E 1 9b 4a 64
        E 1 9e 2b 64
        E 956 87 37 64
        E 1 8b 4a 64
        E 0 8e 2b 64
        E 1 9b 4a 64
        E 1 9c 4c 64
        E 0 9e 37 64
        E 478 8b 4a 64
        E 1 9b 48 64
        E 236 8b 48 64
        E 0 9b 47 64
        E 240 8b 47 64
        E 0 8e 37 64
        E 1 9b 48 64
        E 1 9e 39 64
        E 480 8c 4c 64
        E 1 9c 4a 64
        E 238 8c 4a 64
        E 1 9c 48 64
        E 241 8b 48 64
        E 0 8c 48 64
        E 1 8e 39 64
        E 0 9b 48 64
        E 1 9c 4a 64
        E 0 9e 36 64
        E 476 8b 48 64
        E 1 9b 47 64
        E 241 8b 47 64
        E 1 9b 45 64
        E 236 8b 45 64
        E 0 8e 36 64
        E 1 9b 47 64
        E 1 9e 37 64
        E 477 8c 4a 64
        E 1 9c 48 64
        E 242 8c 48 64
        E 1 9c 47 64
        E 237 8b 47 64
        E 0 8c 47 64
        E 0 8e 37 64
        E 1 9b 47 64
        E 1 9c 48 64
        E 1 9e 39 64
        E 476 8b 47 64
        E 1 9b 45 64
        E 241 8b 45 64
        E 1 9b 43 64
        E 237 8b 43 64
        E 1 8e 39 64
        E 0 9b 45 64
        E 1 9e 36 64
        E 479 8c 48 64
        E 1 9c 47 64
        E 240 8c 47 64
        E 1 9c 45 64
        E 237 8b 45 64
        E 1 8c 45 64
        E 1 8e 36 64
        E 0 9b 45 64
        E 0 9c 47 64
        E 1 9e 37 64
        E 476 8b 45 64
        E 1 9b 43 64
        E 242 8b 43 64
        E 1 9b 42 64
        E 241 8b 42 64
        E 1 8e 37 64
        E 1 9b 43 64
        E 0 9e 2f 64
        E 476 8c 47 64
        E 1 9c 45 64
        E 238 8c 45 64
        E 1 9c 43 64
        E 237 8b 43 64
        E 1 8c 43 64
        E 1 8e 2f 64
        E 0 9b 43 64
        E 1 9c 45 64
        E 0 9e 30 64
        E 958 8b 43 64
        E 1 8e 30 64
        E 0 9b 42 64
        E 1 9e 32 64
        E 479 8c 45 64
        E 1 9c 45 64
        E 480 8b 42 64
        E 1 8c 45 64
        E 1 8e 32 64
        E 0 97 47 64
        E 1 9a 3e 64
        E 0 9b 43 64
        E 1 9c 43 64
        E 1 9e 2b 64
        E 475 87 47 64
        E 1 97 43 64
        E 479 87 43 64
        E 1 8b 43 64
        E 1 8c 43 64
        E 1 8e 2b 64
        E 0 97 47 64
        E 477 87 47 64
        E 0 8a 3e 64
        E 2 97 4f 64
        E 0 9a 3e 64
        E 1 9e 3b 64
        E 478 87 4f 64
        E 1 8a 3e 64
        E 0 8e 3b 64
        E 1 97 48 64
        E 1 9a 40 64
        E 1 9e 39 64
        E 477 8e 39 64
        E 1 9e 37 64
        E 477 87 48 64
        E 1 8a 40 64
        E 1 8e 37 64
        E 0 97 48 64
        E 1 9a 45 64
        E 0 9e 36 64
        E 237 87 48 64
        E 1 97 47 64
        E 240 87 47 64
        E 0 8a 45 64
        E 1 8e 36 64
        E 0 97 48 64
        E 1 9a 42 64
        E 0 9e 32 64
        E 238 87 48 64
        E 1 97 4a 64
        E 238 87 4a 64
        E 1 8a 42 64
        E 0 8e 32 64
        E 1 97 47 64
        E 0 9a 3e 64
        E 1 9e 2b 64
        E 477 87 47 64
        E 1 8e 2b 64
        E 1 97 43 64
        E 1 9e 37 64
        E 478 87 43 64
        E 1 8a 3e 64
        E 0 8e 37 64
        E 1 97 37 64
        E 0 9c 4a 64
        E 1 9e 2b 64
        E 953 87 37 64
        E 1 8c 4a 64
        E 1 8e 2b 64
        E 1 9b 4c 64
        E 0 9c 4a 64
        E 1 9e 37 64
        E 478 8c 4a 64
        E 1 9c 48 64
        E 242 8c 48 64
        E 0 9c 47 64
        E 238 8c 47 64
        E 0 8e 37 64
        E 1 9c 48 64
        E 1 9e 39 64
        E 477 8b 4c 64
        E 1 9b 4a 64
        E 240 8b 4a 64
        E 1 9b 48 64
        E 238 8b 48 64
        E 1 8c 48 64
        E 1 8e 39 64
        E 1 9b 4a 64
        E 0 9c 48 64
        E 1 9e 36 64
        E 476 8c 48 64
        E 1 9c 47 64
        E 240 8c 47 64
        E 0 9c 45 64
        E 240 8c 45 64
        E 0 8e 36 64
        E 2 9c 47 64
        E 1 9e 37 64
        E 476 8b 4a 64
        E 1 9b 48 64
        E 237 8b 48 64
        E 1 9b 47 64
        E 242 8b 47 64
        E 0 8c 47 64
        E 1 8e 37 64
        E 1 9b 48 64
        E 1 9c 47 64
        E 0 9e 39 64
        E 476 8c 47 64
        E 0 9c 45 64
        E 240 8c 45 64
        E 1 9c 43 64
        E 240 8c 43 64
        E 0 8e 39 64
        E 1 9c 45 64
        E 0 9e 36 64
        E 476 8b 48 64
        E 1 9b 47 64
        E 242 8b 47 64
        E 0 9b 45 64
        E 239 8b 45 64
        E 0 8c 45 64
        E 0 8e 36 64
        E 1 9b 47 64
        E 0 9c 45 64
        E 0 9e 37 64
        E 481 8c 45 64
        E 0 9c 43 64
        E 237 8c 43 64
        E 1 9c 42 64
        E 242 8c 42 64
        E 0 8e 37 64
        E 1 9c 43 64
        E 1 9e 2f 64
        E 478 8b 47 64
        E 0 9b 45 64
        E 237 8b 45 64
        E 1 9b 43 64
        E 241 8b 43 64
        E 0 8c 43 64
        E 1 8e 2f 64
        E 1 9b 45 64
        E 0 9c 43 64
        E 1 9e 30 64
        E 957 8c 43 64
        E 1 8e 30 64
        E 1 9c 42 64
        E 0 9e 32 64
        E 476 8b 45 64
        E 0 9b 45 64
        E 483 8b 45 64
        E 0 8c 42 64
        E 1 8e 32 64
        E 1 9b 43 64
        E 1 9c 43 64
        E 0 9e 2b 64
        E 956 8e 2b 64
        E 720 97 43 64
        E 240 87 43 64
        E 1 8b 43 64
        E 0 8c 43 64
        E 1 97 47 64
        E 1 9a 3e 64
        E 1 9e 37 64
        E 957 87 47 64
        E 1 8a 3e 64
        E 0 8e 37 64
        E 1 97 48 64
        E 1 9a 40 64
        E 1 9e 30 64
        E 954 87 48 64
        E 1 8a 40 64
        E 1 8e 30 64
        E 1 97 4a 64
        E 1 9a 3b 64
        E 0 9e 2b 64
        E 955 87 4a 64
        E 1 8a 3b 64
        E 1 8e 2b 64
        E 482 97 4c 64
        E 239 87 4c 64
        E 1 97 4e 64
        E 237 87 4e 64
        E 1 97 4f 64
        E 1 9a 47 64
        E 0 9e 37 64
        E 480 87 4f 64
        E 0 97 4e 64
        E 240 87 4e 64
        E 0 97 4c 64
        E 240 87 4c 64
        E 1 8a 47 64
        E 1 8e 37 64
        E 0 97 4a 64
        E 1 9a 45 64
        E 0 9e 36 64
        E 476 87 4a 64
        E 0 97 48 64
        E 478 87 48 64
        E 0 8a 45 64
        E 1 8e 36 64
        E 1 97 47 64
        E 3 9a 3e 64
        E 0 9e 37 64
        E 478 87 47 64
        E 0 97 45 64
        E 238 87 45 64
        E 1 97 43 64
        E 239 87 43 64
        E 0 8a 3e 64
        E 1 8e 37 64
        E 1 97 42 64
        E 0 9a 42 64
        E 0 9e 36 64
        E 479 87 42 64
        E 1 8a 42 64
        E 0 8e 36 64
        E 1 97 40 64
        E 0 9a 40 64
        E 1 9e 34 64
        E 478 87 40 64
        E 0 8a 40 64
        E 1 8e 34 64
        E 0 97 3e 64
        E 1 9a 3e 64
        E 1 9e 32 64
        E 475 87 3e 64
        E 1 8a 3e 64
        E 0 8e 32 64
        E 1 97 3c 64
        E 0 9a 3c 64
        E 1 9e 30 64
        E 239 87 3c 64
        E 0 8a 3c 64
        E 1 8e 30 64
        E 1 97 3b 64
        E 0 9a 3b 64
        E 1 9e 2f 64
        E 235 87 3b 64
        E 0 8a 3b 64
        E 1 8e 2f 64
        E 1 97 39 64
        E 0 9a 39 64
        E 1 9e 2d 64
        E 478 87 39 64
        E 1 8a 39 64
        E 0 8e 2d 64
        E 1 97 37 64
        E 1 9a 37 64
        E 0 9e 2b 64
        E 478 87 37 64
        E 1 8a 37 64
        E 0 8e 2b 64
        E 1 97 3e 64
        E 1 9a 3e 64
        E 0 9e 32 64
        E 956 87 3e 64
        E 0 8a 3e 64
        E 1 8e 32 64
        E 1 9a 45 64
        E 0 9e 32 64
        E 477 8a 45 64
        E 1 8e 32 64
        E 0 97 4a 64
        E 1 9a 45 64
        E 1 9e 30 64
        E 476 87 4a 64
        E 1 8a 45 64
        E 1 8e 30 64
        E 0 97 41 64
        E 1 9a 3e 64
        E 0 9e 2f 64
        E 477 8a 3e 64
        E 0 8e 2f 64
        E 0 9a 3c 64
        E 1 9e 2d 64
        E 481 87 41 64
        E 1 8a 3c 64
        E 0 8e 2d 64
        E 1 97 41 64
        E 0 9a 3e 64
        E 1 9e 2f 64
        E 235 87 41 64
        E 0 97 40 64
        E 239 87 40 64
        E 1 8a 3e 64
        E 0 8e 2f 64
        E 1 97 41 64
        E 1 9a 3b 64
        E 0 9e 2b 64
        E 239 87 41 64
        E 1 97 43 64
        E 238 87 43 64
        E 1 8a 3b 64
        E 0 8e 2b 64
        E 1 97 40 64
        E 0 9a 37 64
        E 1 9e 30 64
        E 477 87 40 64
        E 1 97 3c 64
        E 479 87 3c 64
        E 1 97 40 64
        E 482 87 40 64
        E 1 8a 37 64
        E 0 97 4c 64
        E 1 9a 43 64
        E 475 87 4c 64
        E 1 8a 43 64
        E 0 8e 30 64
        E 1 97 43 64
        E 0 9a 40 64
        E 1 9e 31 64
        E 478 8a 40 64
        E 0 8e 31 64
        E 1 9a 3e 64
        E 1 9e 2f 64
        E 478 87 43 64
        E 1 8a 3e 64
        E 1 8e 2f 64
        E 1 97 43 64
        E 0 9a 40 64
        E 1 9e 31 64
        E 237 87 43 64
        E 1 97 42 64
        E 238 87 42 64
        E 1 8a 40 64
        E 0 8e 31 64
        E 1 97 43 64
        E 0 9a 3d 64
        E 1 9e 2d 64
        E 237 87 43 64
        E 1 97 45 64
        E 240 87 45 64
        E 1 8a 3d 64
        E 0 8e 2d 64
        E 1 97 42 64
        E 0 9a 39 64
        E 1 9e 32 64
        E 478 87 42 64
        E 0 97 3e 64
        E 479 87 3e 64
        E 0 97 42 64
        E 481 87 42 64
        E 0 8a 39 64
        E 1 97 51 64
        E 0 9a 42 64
        E 478 87 51 64
        E 0 8a 42 64
        E 1 8e 32 64
        E 0 97 48 64
        E 0 9a 40 64
        E 1 9e 39 64
        E 476 8e 39 64
        E 0 9e 37 64
        E 479 87 48 64
        E 1 8a 40 64
        E 0 8e 37 64
        E 1 97 48 64
        E 1 9a 45 64
        E 0 9e 36 64
        E 239 87 48 64
        E 1 97 47 64
        E 241 87 47 64
        E 1 8a 45 64
        E 0 8e 36 64
        E 1 97 48 64
        E 0 9a 42 64
        E 1 9e 32 64
        E 234 87 48 64
        E 1 97 4a 64
        E 241 87 4a 64
        E 1 8a 42 64
        E 1 8e 32 64
        E 0 97 47 64
        E 0 9a 3e 64
        E 1 9e 37 64
        E 477 87 47 64
        E 0 8e 37 64
        E 1 97 4f 64
        E 0 9e 35 64
        E 478 87 4f 64
        E 0 8a 3e 64
        E 0 8e 35 64
        E 1 97 46 66
        E 0 9a 43 64
        E 1 9e 34 64
        E 480 8a 43 64
        E 1 8e 34 64
        E 1 9a 40 64
        E 0 9e 30 64
        E 477 87 46 66
        E 0 8a 40 64
        E 1 8e 30 64
        E 0 97 45 64
        E 1 9a 3c 64
        E 0 9e 35 64
        E 477 87 45 64
        E 1 8e 35 64
        E 0 97 4d 64
        E 1 9e 33 66
        E 479 87 4d 64
        E 1 8a 3c 64
        E 0 8e 33 66
        E 1 97 44 66
        E 0 9a 41 64
        E 1 9e 32 64
        E 477 8a 41 64
        E 0 8e 32 64
        E 1 9a 3e 64
        E 0 9e 2e 66
        E 476 87 44 66
        E 1 8a 3e 64
        E 0 8e 2e 66
        E 1 97 43 64
        E 0 9a 3a 66
        E 1 9e 33 66
        E 480 87 43 64
        E 0 8e 33 66
        E 1 97 4b 66
        E 0 9e 32 64
        E 477 87 4b 66
        E 1 8a 3a 66
        E 0 8e 32 64
        E 1 97 43 64
        E 0 9a 40 64
        E 1 9e 31 64
        E 478 8a 40 64
        E 0 8e 31 64
        E 1 9a 3d 64
        E 1 9e 2d 64
        E 480 87 43 64
        E 1 8a 3d 64
        E 1 8e 2d 64
        E 0 97 42 64
        E 0 9a 39 64
        E 1 9e 32 64
        E 233 87 42 64
        E 1 97 43 64
        E 242 87 43 64
        E 1 97 45 64
        E 236 87 45 64
        E 1 97 47 64
        E 242 87 47 64
        E 1 97 48 64
        E 480 87 48 64
        E 0 8a 39 64
        E 0 8e 32 64
        E 0 97 4a 64
        E 0 9a 45 64
        E 0 9e 36 64
        E 478 87 4a 64
        E 1 8a 45 64
        E 1 8e 36 64
        E 0 97 47 64
        E 0 9a 3e 64
        E 1 9e 37 64
        E 479 87 47 64
        E 0 8a 3e 64
        E 1 8e 37 64
        E 1 97 4f 64
        E 0 9a 3e 64
        E 1 9e 2f 64
        E 235 8a 3e 64
        E 1 8e 2f 64
        E 0 9a 40 64
        E 1 9e 30 64
        E 240 87 4f 64
        E 0 8a 40 64
        E 1 8e 30 64
        E 0 97 45 64
        E 1 9a 3e 64
        E 0 9e 32 64
        E 478 87 45 64
        E 0 8a 3e 64
        E 1 8e 32 64
        E 1 97 4e 64
        E 1 9a 39 64
        E 0 9e 26 64
        E 475 87 4e 64
        E 1 8a 39 64
        E 0 8e 26 64
        E 1 97 4f 64
        E 0 9a 3b 64
        E 1 9e 2b 64
        E 2879 87 4f 64
        E 1 8a 3b 64
        E 0 8e 2b 64
        E 1065 b0 7b 00
        CCINTERP 32
        CHASE_CC_TAKEOFFS 1
        GUID {B75FEE25-2925-479B-8F0A-EA05EEFAB969}
        IGNTEMPO 0 120 4 4
        SRCCOLOR 32
        VELLANE -1 100 0
        CFGEDITVIEW 0 0.000574 41 12 0 -1 0 0 0 0.5
        KEYSNAP 0
        TRACKSEL 0
        EVTFILTER 0 192 -1 -1 -1 0 1 0 0 -1 -1 -1 -1 0 -1 0 -1 -1
        CFGEDIT 1 1 0 1 0 4 1 1 1 1 1 1 353 448 2145 1465 1 0 0 1 0 0 0 1 0 0.5 0 0 1 64
      >
    >
    <ITEM
      POSITION 279.81707672015818
      SNAPOFFS 0
      LENGTH 278.92918777404361
      LOOP 1
      ALLTAKES 0
      FADEIN 1 0 0 1 0 0 0
      FADEOUT 1 0 0 1 0 0 0
      MUTE 0 0
      SEL 0
      IGUID {55123B86-C072-42FA-A621-6425121FA050}
      IID 8
      NAME "01-Recorded MIDI"
      VOLPAN 1 0 1 -1
      SOFFS 434.61281194584939 869.22562389169877
      PLAYRATE 1 1 0 -1 0 0.0025
      CHANMODE 0
      GUID {67E5E3A5-09C3-4ADD-9754-8B26A86152D4}
      RECPASS 3
      <SOURCE MIDI
        HASDATA 1 960 QN
        CCINTERP 32
        POOLEDEVTS {78F5218F-4663-4D6E-8511-72E135926913}
        E 10997 98 41 64
        E 1 9a 39 64
        E 1 9e 35 64
        E 717 8a 39 64
        E 1 8e 35 64
        E 1 9a 39 64
        E 0 9e 35 64
        E 240 88 41 64
        E 0 8a 39 64
        E 1 8e 35 64
        E 0 98 41 64
        E 1 9a 39 64
        E 1 9e 35 64
        E 716 88 41 64
        E 0 8a 39 64
        E 1 8e 35 64
        E 1 98 43 64
        E 0 9a 39 64
        E 1 9e 35 64
        E 236 88 43 64
        E 0 8a 39 64
        E 1 8e 35 64
        E 1 98 45 64
        E 1 9a 39 64
        E 0 9e 35 64
        E 719 88 45 64
        E 1 8a 39 64
        E 1 8e 35 64
        E 1 98 46 66
        E 0 9a 39 64
        E 1 9e 35 64
        E 235 88 46 66
        E 0 8a 39 64
        E 1 8e 35 64
        E 1 98 48 64
        E 0 9a 37 64
        E 1 9e 34 64
        E 717 88 48 64
        E 1 8a 37 64
        E 0 8e 34 64
        E 1 98 46 66
        E 1 9a 37 64
        E 1 9e 34 64
        E 235 88 46 66
        E 0 8a 37 64
        E 1 8e 34 64
        E 1 98 48 64
        E 1 9f 4f 64
        E 1 9a 37 64
        E 0 9e 34 64
        E 713 88 48 64
        E 0 8a 37 64
        E 1 8e 34 64
        E 1 98 4a 64
        E 1 9a 37 64
        E 0 9e 34 64
        E 240 88 4a 64
        E 1 8f 4f 64
        E 1 8a 37 64
        E 0 8e 34 64
        E 1 98 4c 64
        E 0 9f 54 64
        E 1 9a 43 64
        E 0 9e 34 64
        E 716 88 4c 64
        E 1 8a 43 64
        E 0 8e 34 64
        E 1 98 48 64
        E 1 9a 43 64
        E 0 9e 34 64
        E 237 88 48 64
        E 0 8f 54 64
        E 1 8a 43 64
        E 1 8e 34 64
        E 0 98 4d 64
        E 1 9f 54 64
        E 0 9a 45 64
        E 0 9e 32 64
        E 715 88 4d 64
        E 1 8a 45 64
        E 1 8e 32 64
        E 1 98 4c 64
        E 0 9a 45 64
        E 1 9e 32 64
        E 237 88 4c 64
        E 0 8f 54 64
        E 0 8a 45 64
        E 1 8e 32 64
        E 0 98 4d 64
        E 1 9f 53 64
        E 0 9a 41 64
        E 0 9e 32 64
        E 716 88 4d 64
        E 1 8a 41 64
        E 1 8e 32 64
        E 1 98 4f 64
        E 0 9a 41 64
        E 1 9e 32 64
        E 239 88 4f 64
        E 0 8a 41 64
        E 1 8e 32 64
        E 0 98 51 64
        E 1 9a 3e 64
        E 1 9e 32 64
        E 716 88 51 64
        E 0 8a 3e 64
        E 1 8e 32 64
        E 1 98 52 66
        E 1 9a 3e 64
        E 1 9e 32 64
        E 236 88 52 66
        E 1 8f 53 64
        E 0 8a 3e 64
        E 1 8e 32 64
        E 1 98 54 64
        E 0 9a 40 64
        E 1 9e 30 64
        E 716 8a 40 64
        E 1 8e 30 64
        E 0 9a 40 64
        E 1 9e 30 64
        E 238 88 54 64
        E 1 8a 40 64
        E 0 8e 30 64
        E 1 98 48 64
        E 0 9f 4c 64
        E 0 9a 45 64
        E 0 9e 30 64
        E 719 8a 45 64
        E 0 8e 30 64
        E 1 9a 45 64
        E 1 9e 30 64
        E 237 88 48 64
        E 1 8f 4c 64
        E 1 8a 45 64
        E 0 8e 30 64
        E 1 98 48 64
        E 1 9f 51 64
        E 0 9a 40 64
        E 1 9e 30 64
        E 715 8a 40 64
        E 1 8e 30 64
        E 1 9a 40 64
        E 0 9e 30 64
        E 240 88 48 64
        E 1 8f 51 64
        E 0 8a 40 64
        E 1 8e 30 64
        E 0 98 4a 64
        E 1 9f 51 64
        E 1 9a 41 64
        E 0 9e 2e 66
        E 713 8a 41 64
        E 0 8e 2e 66
        E 1 9a 41 64
        E 1 9e 2e 66
        E 239 88 4a 64
        E 1 8f 51 64
        E 0 8a 41 64
        E 1 8e 2e 66
        E 1 98 46 66
        E 0 9f 4f 64
        E 1 9a 3e 64
        E 1 9e 2e 66
        E 717 88 46 66
        E 0 8a 3e 64
        E 1 8e 2e 66
        E 1 98 48 64
        E 0 9a 3e 64
        E 0 9e 2e 66
        E 237 88 48 64
        E 0 8a 3e 64
        E 1 8e 2e 66
        E 1 98 4a 64
        E 0 9a 3a 66
        E 1 9e 2e 66
        E 716 88 4a 64
        E 1 8a 3a 66
        E 0 8e 2e 66
        E 1 98 4c 64
        E 0 9a 3a 66
        E 1 9e 2e 66
        E 238 88 4c 64
        E 1 8f 4f 64
        E 0 8a 3a 66
        E 1 8e 2e 66
        E 0 98 4d 64
        E 1 9a 3c 64
        E 1 9e 2d 64
        E 716 88 4d 64
        E 1 8a 3c 64
        E 1 8e 2d 64
        E 0 98 4c 64
        E 1 9a 3c 64
        E 1 9e 2d 64
        E 237 88 4c 64
        E 1 8a 3c 64
        E 0 8e 2d 64
        E 1 98 4d 64
        E 1 9f 48 64
        E 0 9a 3c 64
        E 1 9e 2d 64
        E 716 88 4d 64
        E 1 8a 3c 64
        E 1 8e 2d 64
        E 0 98 4f 64
        E 1 9a 3c 64
        E 0 9e 2d 64
        E 236 88 4f 64
        E 1 8f 48 64
        E 0 8a 3c 64
        E 1 8e 2d 64
        E 1 98 51 64
        E 1 9f 4d 64
        E 0 9a 3c 64
        E 0 9e 2d 64
        E 716 88 51 64
        E 0 8a 3c 64
        E 1 8e 2d 64
        E 0 98 4d 64
        E 0 9a 3c 64
        E 0 9e 2d 64
        E 238 88 4d 64
        E 1 8f 4d 64
        E 0 8a 3c 64
        E 0 8e 2d 64
        E 0 98 52 66
        E 1 9f 4d 64
        E 0 9a 3e 64
        E 1 9e 2b 64
        E 717 88 52 66
        E 0 8a 3e 64
        E 1 8e 2b 64
        E 1 98 51 64
        E 0 9a 3e 64
        E 1 9e 2b 64
        E 239 88 51 64
        E 0 8f 4d 64
        E 1 8a 3e 64
        E 1 8e 2b 64
        E 0 98 52 66
        E 1 9f 4c 64
        E 0 9a 43 64
        E 0 9e 2b 64
        E 715 88 52 66
        E 1 8a 43 64
        E 1 8e 2b 64
        E 0 98 4f 64
        E 1 9a 43 64
        E 0 9e 2b 64
        E 237 88 4f 64
        E 0 8a 43 64
        E 1 8e 2b 64
        E 1 98 51 64
        E 0 9a 3a 66
        E 1 9e 2b 64
        E 719 88 51 64
        E 1 8a 3a 66
        E 0 8e 2b 64
        E 2 98 52 66
        E 0 9a 3a 66
        E 1 9e 2b 64
        E 234 88 52 66
        E 1 8f 4c 64
        E 0 8a 3a 66
        E 0 8e 2b 64
        E 1 98 51 64
        E 0 9f 4d 64
        E 0 9a 3c 64
        E 1 9e 29 64
        E 718 88 51 64
        E 0 8f 4d 64
        E 1 8a 3c 64
        E 0 8e 29 64
        E 1 98 4d 64
        E 0 9f 4a 64
        E 1 9a 3e 64
        E 0 9e 2e 66
        E 237 88 4d 64
        E 0 8f 4a 64
        E 1 8a 3e 64
        E 0 8e 2e 66
        E 1 98 4c 64
        E 0 9f 43 64
        E 1 9a 3c 64
        E 1 9e 30 64
        E 956 8e 30 64
        E 0 9e 24 64
        E 481 88 4c 64
        E 1 8f 43 64
        E 0 8a 3c 64
        E 1 98 4d 64
        E 1 9f 45 64
        E 0 9a 3c 64
        E 476 88 4d 64
        E 1 8f 45 64
        E 0 8a 3c 64
        E 1 8e 24 64
        E 0 91 41 64
        E 1 93 35 64
        E 0 98 4d 64
        E 0 9f 45 64
        E 1 9a 3c 64
        E 0 9e 35 64
        E 715 8e 35 64
        E 1 9e 35 64
        E 238 81 41 64
        E 0 83 35 64
        E 2 88 4d 64
        E 0 8f 45 64
        E 1 8a 3c 64
        E 1 8e 35 64
        E 1 91 41 64
        E 0 93 35 64
        E 1 9a 41 64
        E 0 9e 35 64
        E 715 81 41 64
        E 0 8a 41 64
        E 1 8e 35 64
        E 1 91 43 64
        E 1 9a 43 64
        E 0 9e 35 64
        E 239 81 43 64
        E 1 8a 43 64
        E 0 8e 35 64
        E 1 91 45 64
        E 0 9a 45 64
        E 1 9e 35 64
        E 476 83 35 64
        E 1 93 35 64
        E 238 81 45 64
        E 1 8a 45 64
        E 0 8e 35 64
        E 1 91 46 66
        E 1 9a 46 66
        E 0 9e 35 64
        E 239 81 46 66
        E 1 83 35 64
        E 0 8a 46 66
        E 1 8e 35 64
        E 0 91 48 64
        E 1 93 34 64
        E 0 9f 4f 64
        E 1 9a 48 64
        E 1 9e 34 64
        E 714 8e 34 64
        E 0 9e 34 64
        E 240 81 48 64
        E 1 83 34 64
        E 0 8f 4f 64
        E 0 8a 48 64
        E 1 8e 34 64
        E 1 91 3c 64
        E 0 93 34 64
        E 1 98 54 64
        E 1 9f 4c 64
        E 0 9a 3c 64
        E 0 9e 34 64
        E 715 8e 34 64
        E 1 9e 34 64
        E 239 81 3c 64
        E 1 8f 4c 64
        E 0 8a 3c 64
        E 1 8e 34 64
        E 1 91 3e 64
        E 1 9f 48 64
        E 0 9a 3e 64
        E 1 9e 34 64
        E 715 81 3e 64
        E 0 8a 3e 64
        E 1 8e 34 64
        E 0 91 40 64
        E 1 9a 40 64
        E 1 9e 34 64
        E 237 81 40 64
        E 1 83 34 64
        E 0 88 54 64
        E 0 8f 48 64
        E 1 8a 40 64
        E 0 8e 34 64
        E 1 91 41 64
        E 0 93 32 64
        E 1 98 54 64
        E 0 9f 51 64
        E 1 9a 41 64
        E 0 9e 32 64
        E 716 8e 32 64
        E 1 9e 32 64
        E 236 81 41 64
        E 1 83 32 64
        E 0 88 54 64
        E 0 8f 51 64
        E 0 8a 41 64
        E 1 8e 32 64
        E 0 91 41 64
        E 0 93 32 64
        E 0 98 4a 64
        E 0 9f 4d 64
        E 1 9a 41 64
        E 0 9e 32 64
        E 718 81 41 64
        E 1 8a 41 64
        E 1 8e 32 64
        E 1 91 40 64
        E 1 9a 40 64
        E 0 9e 32 64
        E 236 81 40 64
        E 1 88 4a 64
        E 0 8f 4d 64
        E 1 8a 40 64
        E 1 8e 32 64
        E 0 91 41 64
        E 1 98 52 66
        E 1 9f 4a 64
        E 0 9a 41 64
        E 1 9e 32 64
        E 714 81 41 64
        E 0 8a 41 64
        E 1 8e 32 64
        E 1 91 43 64
        E 0 9a 43 64
        E 1 9e 32 64
        E 236 81 43 64
        E 1 83 32 64
        E 0 88 52 66
        E 1 8f 4a 64
        E 0 8a 43 64
        E 1 8e 32 64
        E 0 91 40 64
        E 1 93 30 64
        E 0 98 52 66
        E 1 9f 4f 64
        E 0 9a 40 64
        E 1 9e 30 64
        E 716 8e 30 64
        E 1 9e 30 64
        E 239 81 40 64
        E 0 88 52 66
        E 1 8f 4f 64
        E 0 8a 40 64
        E 1 8e 30 64
        E 0 91 45 64
        E 1 98 48 64
        E 1 9f 4c 64
        E 0 9a 45 64
        E 1 9e 30 64
        E 474 83 30 64
        E 0 93 30 64
        E 238 81 45 64
        E 0 8a 45 64
        E 0 8e 30 64
        E 0 91 43 64
        E 1 9a 43 64
        E 0 9e 30 64
        E 241 81 43 64
        E 0 83 30 64
        E 1 88 48 64
        E 0 8f 4c 64
        E 0 8a 43 64
        E 1 8e 30 64
        E 0 91 45 64
        E 0 93 30 64
        E 1 98 51 64
        E 0 9f 48 64
        E 1 9a 45 64
        E 0 9e 30 64
        E 716 8e 30 64
        E 0 9e 30 64
        E 241 81 45 64
        E 1 83 30 64
        E 1 88 51 64
        E 0 8f 48 64
        E 0 8a 45 64
        E 1 8e 30 64
        E 1 91 3e 64
        E 0 93 3a 66
        E 1 98 51 64
        E 0 9f 4d 64
        E 1 9a 3e 64
        E 0 9e 2e 66
        E 713 8e 2e 66
        E 1 9e 2e 66
        E 241 81 3e 64
        E 1 88 51 64
        E 1 8f 4d 64
        E 0 8a 3e 64
        E 1 8e 2e 66
        E 0 91 43 64
        E 1 98 46 66
        E 0 9f 4a 64
        E 0 9a 43 64
        E 1 9e 2e 66
        E 713 81 43 64
        E 1 8a 43 64
        E 1 8e 2e 66
        E 0 91 41 64
        E 1 9a 41 64
        E 0 9e 2e 66
        E 238 81 41 64
        E 1 88 46 66
        E 1 8f 4a 64
        E 0 8a 41 64
        E 1 8e 2e 66
        E 1 91 43 64
        E 1 98 4f 64
        E 0 9f 46 66
        E 1 9a 43 64
        E 0 9e 2e 66
        E 712 8e 2e 66
        E 1 9e 2e 66
        E 241 81 43 64
        E 0 83 3a 66
        E 1 88 4f 64
        E 1 8f 46 66
        E 1 8a 43 64
        E 1 8e 2e 66
        E 0 91 3c 64
        E 1 93 39 64
        E 0 98 4f 64
        E 1 9f 4c 64
        E 1 9a 3c 64
        E 0 9e 2d 64
        E 712 8e 2d 64
        E 1 9e 2d 64
        E 241 81 3c 64
        E 0 88 4f 64
        E 0 8f 4c 64
        E 1 8a 3c 64
        E 0 8e 2d 64
        E 1 91 41 64
        E 0 98 45 64
        E 1 9f 48 64
        E 0 9a 41 64
        E 1 9e 2d 64
        E 714 81 41 64
        E 0 8a 41 64
        E 1 8e 2d 64
        E 1 91 40 64
        E 0 9a 40 64
        E 0 9e 2d 64
        E 239 81 40 64
        E 0 88 45 64
        E 0 8f 48 64
        E 1 8a 40 64
        E 1 8e 2d 64
        E 0 91 41 64
        E 1 98 4d 64
        E 0 9f 45 64
        E 1 9a 41 64
        E 0 9e 2d 64
        E 716 8e 2d 64
        E 1 9e 2d 64
        E 238 81 41 64
        E 1 83 39 64
        E 0 88 4d 64
        E 1 8f 45 64
        E 0 8a 41 64
        E 1 8e 2d 64
        E 0 91 46 66
        E 1 93 37 64
        E 1 98 4d 64
        E 0 9f 4a 64
        E 1 9a 46 66
        E 0 9e 2b 64
        E 713 81 46 66
        E 0 8a 46 66
        E 1 8e 2b 64
        E 1 91 45 64
        E 1 9a 45 64
        E 0 9e 2b 64
        E 237 81 45 64
        E 1 88 4d 64
        E 0 8f 4a 64
        E 1 8a 45 64
        E 0 8e 2b 64
        E 0 91 46 66
        E 1 98 4c 64
        E 1 9f 46 66
        E 0 9a 46 66
        E 1 9e 2b 64
        E 718 81 46 66
        E 0 8a 46 66
        E 1 8e 2b 64
        E 1 91 43 64
        E 0 9a 43 64
        E 1 9e 2b 64
        E 237 81 43 64
        E 0 8f 46 66
        E 1 8a 43 64
        E 1 8e 2b 64
        E 0 91 45 64
        E 1 9f 43 64
        E 0 9a 45 64
        E 1 9e 2b 64
        E 716 81 45 64
        E 1 8a 45 64
        E 0 8e 2b 64
        E 1 91 46 66
        E 0 9a 46 66
        E 1 9e 2b 64
        E 235 81 46 66
        E 1 83 37 64
        E 1 88 4c 64
        E 0 8f 43 64
        E 1 8a 46 66
        E 1 8e 2b 64
        E 0 91 45 64
        E 1 93 35 64
        E 1 98 4d 64
        E 0 9f 48 64
        E 1 9a 45 64
        E 1 9e 29 64
        E 472 81 45 64
        E 0 83 35 64
        E 1 8a 45 64
        E 1 91 43 64
        E 0 93 2e 66
        E 0 9a 43 64
        E 237 81 43 64
        E 0 88 4d 64
        E 1 8a 43 64
        E 1 8e 29 64
        E 0 91 41 64
        E 1 98 45 64
        E 0 9a 41 64
        E 2 9e 2e 66
        E 236 81 41 64
        E 1 83 2e 66
        E 1 88 45 64
        E 1 8a 41 64
        E 0 8e 2e 66
        E 1 91 40 64
        E 0 93 30 64
        E 1 98 43 64
        E 1 9a 40 64
        E 0 9e 30 64
        E 713 88 43 64
        E 1 98 45 64
        E 238 88 45 64
        E 1 8e 30 64
        E 1 98 46 66
        E 0 9e 24 64
        E 480 8a 40 64
        E 1 9a 41 64
        E 239 88 46 66
        E 0 98 48 64
        E 238 81 40 64
        E 0 83 30 64
        E 1 88 48 64
        E 0 8f 48 64
        E 0 8a 41 64
        E 1 8e 24 64
        E 1 91 41 64
        E 0 93 35 64
        E 1 98 45 64
        E 1 9f 48 64
        E 0 9a 41 64
        E 1 9e 35 64
        E 718 88 45 64
        E 0 8e 35 64
        E 1 98 43 64
        E 1 9e 34 64
        E 238 88 43 64
        E 1 8e 34 64
        E 0 98 45 64
        E 1 9e 35 64
        E 476 8f 48 64
        E 0 9f 47 64
        E 240 88 45 64
        E 0 8e 35 64
        E 1 98 47 64
        E 0 9e 37 64
        E 241 88 47 64
        E 0 8f 47 64
        E 1 8e 37 64
        E 1 98 48 64
        E 1 9f 45 64
        E 0 9e 39 64
        E 717 88 48 64
        E 0 8e 39 64
        E 1 98 4a 64
        E 0 9e 3b 64
        E 237 81 41 64
        E 1 83 35 64
        E 0 88 4a 64
        E 1 8f 45 64
        E 0 8a 41 64
        E 1 8e 3b 64
        E 1 90 48 64
        E 0 92 3c 64
        E 0 98 4c 64
        E 1 9f 43 64
        E 1 9e 3c 64
        E 715 8e 3c 64
        E 0 9e 3c 64
        E 242 80 48 64
        E 0 82 3c 64
        E 1 88 4c 64
        E 0 8f 43 64
        E 1 8e 3c 64
        E 1 90 48 64
        E 0 92 3c 64
        E 1 9f 48 64
        E 0 9e 3c 64
        E 714 80 48 64
        E 0 8f 48 64
        E 1 8e 3c 64
        E 1 90 4a 64
        E 0 9f 4a 64
        E 1 9e 3c 64
        E 238 80 4a 64
        E 0 8f 4a 64
        E 1 8e 3c 64
        E 0 90 4c 64
        E 1 9f 4c 64
        E 1 9e 3c 64
        E 475 82 3c 64
        E 1 92 3c 64
        E 239 80 4c 64
        E 0 8f 4c 64
        E 1 8e 3c 64
        E 1 90 4d 64
        E 0 9f 4d 64
        E 1 9e 3c 64
        E 238 80 4d 64
        E 1 82 3c 64
        E 1 8f 4d 64
        E 0 8e 3c 64
        E 1 90 4f 64
        E 1 92 3b 64
        E 0 9f 4f 64
        E 0 9a 3e 64
        E 1 9e 3b 64
        E 716 8e 3b 64
        E 1 9e 3b 64
        E 239 80 4f 64
        E 0 82 3b 64
        E 0 8f 4f 64
        E 0 8a 3e 64
        E 0 8e 3b 64
        E 1 90 43 64
        E 0 92 3b 64
        E 0 98 4f 64
        E 1 9f 43 64
        E 0 9a 3b 64
        E 1 9e 3b 64
        E 717 8e 3b 64
        E 1 9e 3b 64
        E 238 80 43 64
        E 1 8f 43 64
        E 1 8a 3b 64
        E 0 8e 3b 64
        E 1 90 45 64
        E 1 9f 45 64
        E 1 9a 37 64
        E 1 9e 3b 64
        E 713 80 45 64
        E 1 8f 45 64
        E 1 8e 3b 64
        E 1 90 47 64
        E 1 9f 47 64
        E 1 9e 3b 64
        E 236 80 47 64
        E 1 82 3b 64
        E 0 88 4f 64
        E 1 8f 47 64
        E 0 8a 37 64
        E 1 8e 3b 64
        E 1 90 48 64
        E 0 92 39 64
        E 0 98 4f 64
        E 1 9f 48 64
        E 0 9a 40 64
        E 1 9e 39 64
        E 712 8e 39 64
        E 1 9e 39 64
        E 240 80 48 64
        E 1 82 39 64
        E 1 88 4f 64
        E 0 8f 48 64
        E 1 8a 40 64
        E 0 8e 39 64
        E 1 90 48 64
        E 1 92 39 64
        E 1 98 45 64
        E 0 9f 48 64
        E 1 9a 3c 64
        E 0 9e 39 64
        E 713 80 48 64
        E 1 8f 48 64
        E 0 8e 39 64
        E 1 90 47 64
        E 0 9f 47 64
        E 1 9e 39 64
        E 236 80 47 64
        E 1 88 45 64
        E 1 8f 47 64
        E 0 8a 3c 64
        E 1 8e 39 64
        E 0 90 48 64
        E 1 98 4d 64
        E 0 9f 48 64
        E 1 9a 39 64
        E 0 9e 39 64
        E 716 80 48 64
        E 0 8f 48 64
        E 1 8e 39 64
        E 1 90 4a 64
        E 0 9f 4a 64
        E 1 9e 39 64
        E 240 80 4a 64
        E 1 82 39 64
        E 0 88 4d 64
        E 1 8f 4a 64
        E 1 8a 39 64
        E 0 8e 39 64
        E 1 90 47 64
        E 0 92 37 64
        E 1 98 4d 64
        E 0 9f 47 64
        E 1 9a 3e 64
        E 1 9e 37 64
        E 708 8e 37 64
        E 1 9e 37 64
        E 243 80 47 64
        E 0 88 4d 64
        E 1 8f 47 64
        E 0 8a 3e 64
        E 1 8e 37 64
        E 0 90 4c 64
        E 1 98 43 64
        E 0 9f 4c 64
        E 1 9a 3b 64
        E 0 9e 37 64
        E 475 82 37 64
        E 0 92 37 64
        E 238 80 4c 64
        E 0 8f 4c 64
        E 1 8e 37 64
        E 1 90 4a 64
        E 1 9f 4a 64
        E 0 9e 37 64
        E 236 80 4a 64
        E 1 82 37 64
        E 1 88 43 64
        E 1 8f 4a 64
        E 0 8a 3b 64
        E 1 8e 37 64
        E 0 90 4c 64
        E 1 92 37 64
        E 0 98 4c 64
        E 1 9f 4c 64
        E 0 9a 37 64
        E 1 9e 37 64
        E 713 8e 37 64
        E 1 9e 37 64
        E 239 80 4c 64
        E 0 82 37 64
        E 1 88 4c 64
        E 0 8f 4c 64
        E 0 8a 37 64
        E 0 8e 37 64
        E 1 90 45 64
        E 0 92 41 64
        E 0 98 4c 64
        E 0 9f 45 64
        E 1 9a 48 64
        E 0 9e 35 64
        E 718 8e 35 64
        E 0 9e 35 64
        E 242 80 45 64
        E 0 88 4c 64
        E 1 8f 45 64
        E 1 8a 48 64
        E 1 8e 35 64
        E 0 90 4a 64
        E 1 98 41 64
        E 0 9f 4a 64
        E 1 9a 45 64
        E 1 9e 35 64
        E 711 80 4a 64
        E 1 8f 4a 64
        E 1 8e 35 64
        E 0 90 48 64
        E 1 9f 48 64
        E 0 9e 35 64
        E 239 80 48 64
        E 0 88 41 64
        E 1 8f 48 64
        E 1 8a 45 64
        E 0 8e 35 64
        E 1 90 4a 64
        E 0 98 4a 64
        E 1 9f 4a 64
        E 1 9a 41 64
        E 0 9e 35 64
        E 716 8e 35 64
        E 0 9e 35 64
        E 240 80 4a 64
        E 0 82 41 64
        E 1 88 4a 64
        E 0 8f 4a 64
        E 1 8a 41 64
        E 1 8e 35 64
        E 0 90 43 64
        E 1 92 40 64
        E 1 98 4a 64
        E 0 9f 43 64
        E 1 9a 47 64
        E 0 9e 34 64
        E 715 8e 34 64
        E 1 9e 34 64
        E 239 80 43 64
        E 0 88 4a 64
        E 1 8f 43 64
        E 1 8a 47 64
        E 0 8e 34 64
        E 1 90 48 64
        E 0 98 40 64
        E 1 9f 48 64
        E 0 9a 43 64
        E 1 9e 34 64
        E 713 80 48 64
        E 0 88 40 64
        E 1 8f 48 64
        E 0 8e 34 64
        E 1 90 47 64
        E 1 98 43 64
        E 0 9f 47 64
        E 1 9e 34 64
        E 235 80 47 64
        E 0 88 43 64
        E 1 8f 47 64
        E 1 8a 43 64
        E 0 8e 34 64
        E 1 90 48 64
        E 0 98 48 64
        E 1 9f 48 64
        E 3 9a 40 64
        E 0 9e 34 64
        E 713 88 48 64
        E 1 8e 34 64
        E 0 98 4c 64
        E 1 9e 34 64
        E 240 80 48 64
        E 0 82 40 64
        E 1 88 4c 64
        E 0 8f 48 64
        E 1 8a 40 64
        E 0 8e 34 64
        E 1 90 4d 64
        E 1 92 3e 64
        E 0 98 4d 64
        E 1 9f 4a 64
        E 0 9a 47 64
        E 1 9e 32 64
        E 714 80 4d 64
        E 1 88 4d 64
        E 1 8f 4a 64
        E 0 8e 32 64
        E 0 90 4c 64
        E 1 98 4c 64
        E 0 9f 48 64
        E 1 9e 32 64
        E 233 80 4c 64
        E 1 88 4c 64
        E 0 8f 48 64
        E 1 8e 32 64
        E 0 90 4d 64
        E 3 98 4d 64
        E 0 9f 4a 64
        E 1 9e 32 64
        E 715 80 4d 64
        E 0 88 4d 64
        E 0 8f 4a 64
        E 1 8e 32 64
        E 0 90 4a 64
        E 0 98 4a 64
        E 1 9f 47 64
        E 0 9e 32 64
        E 238 80 4a 64
        E 0 88 4a 64
        E 1 8f 47 64
        E 0 8a 47 64
        E 0 8e 32 64
        E 1 90 4c 64
        E 0 98 4c 64
        E 0 9f 48 64
        E 1 9a 43 64
        E 0 9e 32 64
        E 718 80 4c 64
        E 1 88 4c 64
        E 1 8f 48 64
        E 0 8e 32 64
        E 1 90 4d 64
        E 1 98 4d 64
        E 1 9f 4a 64
        E 1 9e 32 64
        E 234 80 4d 64
        E 1 82 3e 64
        E 0 88 4d 64
        E 0 8f 4a 64
        E 1 8a 43 64
        E 1 8e 32 64
        E 1 90 4c 64
        E 0 92 3c 64
        E 1 98 4f 64
        E 1 9f 4c 64
        E 0 9a 43 64
        E 0 9e 30 64
        E 474 80 4c 64
        E 1 82 3c 64
        E 0 88 4f 64
        E 1 8f 4c 64
        E 0 90 4a 64
        E 1 92 35 64
        E 0 98 4d 64
        E 1 9f 4a 64
        E 235 80 4a 64
        E 1 88 4d 64
        E 0 8f 4a 64
        E 1 8a 43 64
        E 1 8e 30 64
        E 0 90 48 64
        E 1 98 4c 64
        E 0 9f 48 64
        E 1 9a 45 64
        E 0 9e 35 64
        E 235 80 48 64
        E 1 82 35 64
        E 1 88 4c 64
        E 0 8f 48 64
        E 1 8a 45 64
        E 0 8e 35 64
        E 1 90 47 64
        E 1 92 37 64
        E 0 98 4a 64
        E 1 9f 47 64
        E 1 9a 3b 64
        E 0 9e 37 64
        E 713 88 4a 64
        E 0 8f 47 64
        E 1 98 4c 64
        E 2 9f 48 64
        E 237 88 4c 64
        E 1 8f 48 64
        E 1 8a 3b 64
        E 0 8e 37 64
        E 1 98 4d 64
        E 0 9f 4a 64
        E 1 9a 43 64
        E 0 9e 2b 64
        E 719 88 4d 64
        E 1 8f 4a 64
        E 0 98 4a 64
        E 1 9f 47 64
        E 239 80 47 64
        E 1 82 37 64
        E 0 88 4a 64
        E 1 8f 47 64
        E 0 8a 43 64
        E 1 8e 2b 64
        E 0 90 48 64
        E 1 91 43 64
        E 0 92 3c 64
        E 1 93 30 64
        E 0 98 4c 64
        E 1 9f 48 64
        E 0 9a 43 64
        E 1 9e 30 64
        E 710 88 4c 64
        E 1 8e 30 64
        E 0 98 4f 64
        E 1 9e 30 64
        E 240 81 43 64
        E 1 88 4f 64
        E 0 8e 30 64
        E 1 91 41 64
        E 0 98 4d 64
        E 1 9e 30 64
        E 715 81 41 64
        E 0 88 4d 64
        E 1 8e 30 64
        E 0 91 40 64
        E 1 98 4c 64
        E 1 9e 30 64
        E 238 81 40 64
        E 1 83 30 64
        E 1 88 4c 64
        E 0 8a 43 64
        E 1 8e 30 64
        E 1 91 41 64
        E 0 93 32 64
        E 1 98 4d 64
        E 0 9e 32 64
        E 714 81 41 64
        E 1 83 32 64
        E 0 88 4d 64
        E 1 8e 32 64
        E 1 91 43 64
        E 0 93 34 64
        E 1 98 4f 64
        E 4 9e 34 64
        E 232 80 48 64
        E 1 81 43 64
        E 0 82 3c 64
        E 1 83 34 64
        E 0 88 4f 64
        E 1 8f 48 64
        E 0 8e 34 64
        E 1 90 48 64
        E 0 91 45 64
        E 1 93 35 64
        E 0 98 51 64
        E 1 9f 48 64
        E 0 9e 35 64
        E 714 8e 35 64
        E 1 9e 35 64
        E 240 80 48 64
        E 0 83 35 64
        E 0 8f 48 64
        E 1 8e 35 64
        E 0 90 46 66
        E 0 93 35 64
        E 0 9f 46 66
        E 1 9e 35 64
        E 716 80 46 66
        E 0 8f 46 66
        E 1 8e 35 64
        E 1 90 45 64
        E 0 9f 45 64
        E 1 9e 35 64
        E 238 80 45 64
        E 1 83 35 64
        E 0 8f 45 64
        E 1 8e 35 64
        E 0 90 46 66
        E 1 93 35 64
        E 0 9f 46 66
        E 1 9e 35 64
        E 715 80 46 66
        E 1 83 35 64
        E 0 8f 46 66
        E 0 8e 35 64
        E 1 90 48 64
        E 0 93 35 64
        E 1 9f 48 64
        E 1 9e 35 64
        E 237 80 48 64
        E 1 81 45 64
        E 0 83 35 64
        E 1 88 51 64
        E 1 8f 48 64
        E 0 8e 35 64
        E 1 90 4a 64
        E 0 91 45 64
        E 1 92 41 64
        E 1 93 3a 66
        E 0 98 51 64
        E 1 9f 4a 64
        E 1 9a 41 64
        E 0 9e 3a 66
        E 713 8f 4a 64
        E 1 8e 3a 66
        E 0 9f 48 64
        E 0 9e 3a 66
        E 236 81 45 64
        E 1 82 41 64
        E 0 83 3a 66
        E 1 88 51 64
        E 1 8f 48 64
        E 0 8a 41 64
        E 1 8e 3a 66
        E 0 91 43 64
        E 1 92 3e 64
        E 1 93 3a 66
        E 0 98 4f 64
        E 1 9f 46 66
        E 1 9a 3e 64
        E 0 9e 3a 66
        E 715 8f 46 66
        E 1 8e 3a 66
        E 0 9f 45 64
        E 1 9e 3a 66
        E 238 82 3e 64
        E 0 8f 45 64
        E 1 8a 3e 64
        E 1 8e 3a 66
        E 1 92 3a 66
        E 0 9f 43 64
        E 2 9a 3a 66
        E 0 9e 3a 66
        E 475 83 3a 66
        E 1 93 3a 66
        E 239 8f 43 64
        E 1 8e 3a 66
        E 1 9f 4a 64
        E 0 9e 3a 66
        E 237 80 4a 64
        E 1 81 43 64
        E 0 82 3a 66
        E 1 83 3a 66
        E 1 88 4f 64
        E 0 8f 4a 64
        E 1 8a 3a 66
        E 1 8e 3a 66
        E 0 90 4a 64
        E 1 92 37 64
        E 0 93 34 64
        E 1 98 4f 64
        E 1 9f 4a 64
        E 0 9a 46 66
        E 0 9e 34 64
        E 714 88 4f 64
        E 0 8e 34 64
        E 1 98 4d 64
        E 0 9e 34 64
        E 236 80 4a 64
        E 1 82 37 64
        E 1 83 34 64
        E 2 88 4d 64
        E 0 8f 4a 64
        E 1 8a 46 66
        E 0 8e 34 64
        E 1 90 48 64
        E 0 91 43 64
        E 1 92 37 64
        E 1 93 34 64
        E 0 98 4c 64
        E 1 9f 48 64
        E 0 9a 43 64
        E 1 9e 34 64
        E 712 88 4c 64
        E 1 8f 48 64
        E 0 8e 34 64
        E 1 98 4a 64
        E 1 9f 46 66
        E 0 9e 34 64
        E 238 81 43 64
        E 0 82 37 64
        E 1 83 34 64
        E 0 88 4a 64
        E 1 8f 46 66
        E 0 8a 43 64
        E 1 8e 34 64
        E 0 91 43 64
        E 1 93 34 64
        E 0 98 48 64
        E 1 9f 48 64
        E 0 9a 40 64
        E 0 9e 34 64
        E 712 83 34 64
        E 1 88 48 64
        E 1 8e 34 64
        E 1 93 34 64
        E 0 98 4f 64
        E 1 9e 34 64
        E 239 80 48 64
        E 0 81 43 64
        E 0 83 34 64
        E 1 88 4f 64
        E 1 8f 48 64
        E 0 8a 40 64
        E 1 8e 34 64
        E 1 91 43 64
        E 0 92 40 64
        E 1 93 39 64
        E 1 98 4f 64
        E 0 9f 48 64
        E 0 9a 40 64
        E 1 9e 39 64
        E 711 8f 48 64
        E 1 8e 39 64
        E 1 9f 46 66
        E 0 9e 39 64
        E 239 81 43 64
        E 0 82 40 64
        E 1 83 39 64
        E 1 88 4f 64
        E 0 8f 46 66
        E 1 8a 40 64
        E 0 8e 39 64
        E 1 90 48 64
        E 0 91 41 64
        E 1 92 3c 64
        E 0 93 39 64
        E 1 98 4d 64
        E 0 9f 45 64
        E 1 9a 3c 64
        E 0 9e 39 64
        E 713 81 41 64
        E 1 88 4d 64
        E 0 8f 45 64
        E 1 8e 39 64
        E 0 91 40 64
        E 1 98 4c 64
        E 1 9f 43 64
        E 1 9e 39 64
        E 235 80 48 64
        E 0 81 40 64
        E 1 82 3c 64
        E 0 88 4c 64
        E 1 8f 43 64
        E 0 8a 3c 64
        E 1 8e 39 64
        E 0 90 48 64
        E 1 91 41 64
        E 1 92 39 64
        E 0 98 4d 64
        E 0 9f 41 64
        E 1 9a 39 64
        E 1 9e 39 64
        E 473 83 39 64
        E 1 93 39 64
        E 239 8f 41 64
        E 0 8e 39 64
        E 1 9f 48 64
        E 0 9e 39 64
        E 237 88 4d 64
        E 1 80 48 64
        E 0 81 41 64
        E 1 82 39 64
        E 0 83 39 64
        E 1 8f 48 64
        E 0 8a 39 64
        E 1 8e 39 64
        E 1 98 4d 64
        E 0 90 48 64
        E 0 92 35 64
        E 1 93 32 64
        E 1 9f 48 64
        E 0 9a 45 64
        E 1 9e 32 64
        E 711 88 4d 64
        E 1 8e 32 64
        E 0 98 4c 64
        E 1 9e 32 64
        E 240 88 4c 64
        E 1 80 48 64
        E 1 82 35 64
        E 0 83 32 64
        E 1 8f 48 64
        E 0 8a 45 64
        E 1 8e 32 64
        E 1 98 4a 64
        E 0 90 46 66
        E 1 91 41 64
        E 1 92 35 64
        E 0 93 32 64
        E 1 9f 46 66
        E 1 9a 41 64
        E 0 9e 32 64
        E 711 88 4a 64
        E 1 80 46 66
        E 0 8f 46 66
        E 1 8e 32 64
        E 0 98 48 64
        E 1 90 45 64
        E 1 9f 45 64
        E 1 9e 32 64
        E 234 88 48 64
        E 1 80 45 64
        E 0 81 41 64
        E 1 82 35 64
        E 1 8f 45 64
        E 0 8a 41 64
        E 1 8e 32 64
        E 0 98 46 66
        E 1 90 46 66
        E 0 91 41 64
        E 1 9f 46 66
        E 1 9a 3e 64
        E 1 9e 32 64
        E 714 88 46 66
        E 0 8e 32 64
        E 0 98 4d 64
        E 1 9e 32 64
        E 239 80 46 66
        E 1 81 41 64
        E 0 83 32 64
        E 1 88 4d 64
        E 1 8f 46 66
        E 0 8a 3e 64
        E 1 8e 32 64
        E 0 91 41 64
        E 1 92 3e 64
        E 1 93 37 64
        E 1 98 4d 64
        E 0 9f 46 66
        E 1 9a 3e 64
        E 0 9e 37 64
        E 714 8f 46 66
        E 0 8e 37 64
        E 1 9f 45 64
        E 0 9e 37 64
        E 238 81 41 64
        E 0 82 3e 64
        E 1 88 4d 64
        E 1 8f 45 64
        E 0 8a 3e 64
        E 1 8e 37 64
        E 0 90 46 66
        E 1 91 40 64
        E 1 92 3a 66
        E 0 98 4c 64
        E 1 9f 43 64
        E 0 9a 3a 66
        E 1 9e 37 64
        E 711 81 40 64
        E 0 88 4c 64
        E 1 8f 43 64
        E 0 8e 37 64
        E 1 91 3e 64
        E 0 98 4a 64
        E 1 9f 41 64
        E 2 9e 37 64
        E 236 80 46 66
        E 0 81 3e 64
        E 1 82 3a 66
        E 0 88 4a 64
        E 1 8f 41 64
        E 0 8a 3a 66
        E 1 8e 37 64
        E 1 90 46 66
        E 0 91 40 64
        E 1 92 37 64
        E 0 98 4c 64
        E 0 9f 40 64
        E 1 9a 37 64
        E 0 9e 37 64
        E 712 8f 40 64
        E 1 8e 37 64
        E 0 9f 46 66
        E 0 9e 37 64
        E 239 80 46 66
        E 0 81 40 64
        E 1 82 37 64
        E 1 83 37 64
        E 1 88 4c 64
        E 0 8f 46 66
        E 1 8a 37 64
        E 1 8e 37 64
        E 1 90 46 66
        E 0 92 40 64
        E 1 93 30 64
        E 3 9f 46 66
        E 0 9a 40 64
        E 1 9e 30 64
        E 712 8a 40 64
        E 1 8e 30 64
        E 1 9a 3e 64
        E 0 9e 30 64
        E 235 80 46 66
        E 1 82 40 64
        E 0 83 30 64
        E 1 8f 46 66
        E 0 8a 3e 64
        E 1 8e 30 64
        E 0 90 45 64
        E 1 91 41 64
        E 1 92 3c 64
        E 0 93 35 64
        E 1 98 4d 64
        E 0 9f 45 64
        E 1 9a 3c 64
        E 0 9e 35 64
        E 714 80 45 64
        E 0 8f 45 64
        E 1 8e 35 64
        E 1 90 43 64
        E 0 9f 43 64
        E 0 9e 35 64
        E 238 80 43 64
        E 1 82 3c 64
        E 0 8f 43 64
        E 1 8a 3c 64
        E 1 8e 35 64
        E 0 90 45 64
        E 1 92 41 64
        E 2 9f 45 64
        E 0 9a 41 64
        E 1 9e 35 64
        E 715 8e 35 64
        E 0 9e 35 64
        E 240 80 45 64
        E 1 81 41 64
        E 0 82 41 64
        E 1 83 35 64
        E 1 88 4d 64
        E 1 8f 45 64
        E 0 8a 41 64
        E 1 8e 35 64
        E 1 90 47 64
        E 0 91 41 64
        E 1 92 3e 64
        E 1 93 37 64
        E 0 98 4d 64
        E 1 9f 47 64
        E 1 9a 3e 64
        E 0 9e 37 64
        E 707 8e 37 64
        E 1 9e 37 64
        E 239 80 47 64
        E 1 81 41 64
        E 3 82 3e 64
        E 0 88 4d 64
        E 1 8f 47 64
        E 1 8a 3e 64
        E 0 8e 37 64
        E 1 90 49 64
        E 1 91 40 64
        E 0 92 39 64
        E 1 98 4c 64
        E 1 9f 49 64
        E 0 9a 39 64
        E 1 9e 37 64
        E 710 82 39 64
        E 0 8a 39 64
        E 1 8e 37 64
        E 1 92 3b 64
        E 1 9a 3b 64
        E 0 9e 37 64
        E 239 82 3b 64
        E 0 8a 3b 64
        E 1 8e 37 64
        E 1 92 3d 64
        E 0 9a 3d 64
        E 1 9e 37 64
        E 717 8e 37 64
        E 1 9e 37 64
        E 237 80 49 64
        E 1 81 40 64
        E 1 82 3d 64
        E 0 83 37 64
        E 0 88 4c 64
        E 1 8f 49 64
        E 1 8a 3d 64
        E 1 8e 37 64
        E 0 90 4a 64
        E 1 91 41 64
        E 0 92 3b 64
        E 1 93 38 64
        E 1 98 4d 64
        E 0 9f 4a 64
        E 1 9a 3b 64
        E 0 9e 38 64
        E 710 8e 38 64
        E 1 9e 38 64
        E 241 8e 38 64
        E 0 9e 38 64
        E 722 8e 38 64
        E 2 9e 38 64
        E 236 80 4a 64
        E 1 81 41 64
        E 0 82 3b 64
        E 1 83 38 64
        E 0 88 4d 64
        E 1 8f 4a 64
        E 0 8a 3b 64
        E 1 8e 38 64
        E 0 90 48 64
        E 1 91 40 64
        E 0 92 3c 64
        E 1 93 39 64
        E 0 98 4c 64
        E 1 9f 48 64
        E 0 9a 3c 64
        E 1 9e 39 64
        E 712 8e 39 64
        E 1 9e 39 64
        E 239 80 48 64
        E 0 81 40 64
        E 1 82 3c 64
        E 0 83 39 64
        E 1 88 4c 64
        E 0 8f 48 64
        E 1 8a 3c 64
        E 0 8e 39 64
        E 1 90 48 64
        E 0 91 40 64
        E 1 92 3c 64
        E 0 93 39 64
        E 1 98 4c 64
        E 0 9f 48 64
        E 1 9a 3e 64
        E 0 9e 39 64
        E 713 8e 39 64
        E 0 9e 39 64
        E 239 80 48 64
        E 1 81 40 64
        E 1 82 3c 64
        E 1 83 39 64
        E 0 88 4c 64
        E 1 8f 48 64
        E 1 8e 39 64
        E 0 90 47 64
        E 1 91 44 64
        E 1 92 40 64
        E 0 93 34 64
        E 1 98 4a 64
        E 1 9f 47 64
        E 0 9e 34 64
        E 710 88 4a 64
        E 1 8f 47 64
        E 1 8e 34 64
        E 0 98 48 64
        E 1 9f 45 64
        E 0 9e 34 64
        E 238 88 48 64
        E 0 8f 45 64
        E 1 8e 34 64
        E 0 98 47 64
        E 1 9f 44 64
        E 0 9e 34 64
        E 719 88 47 64
        E 0 8f 44 64
        E 1 8e 34 64
        E 1 98 4a 64
        E 1 9f 47 64
        E 0 9e 34 64
        E 237 80 47 64
        E 1 81 44 64
        E 1 82 40 64
        E 1 83 34 64
        E 0 88 4a 64
        E 1 8f 47 64
        E 0 8a 3e 64
        E 1 8e 34 64
        E 0 90 48 64
        E 1 91 45 64
        E 0 92 40 64
        E 1 93 2d 64
        E 1 98 48 64
        E 0 9f 45 64
        E 1 9a 40 64
        E 0 9e 2d 64
        E 712 8a 40 64
        E 0 8e 2d 64
        E 0 9a 40 64
        E 0 9e 39 64
        E 238 88 48 64
        E 0 8f 45 64
        E 0 8a 40 64
        E 1 8e 39 64
        E 0 98 45 64
        E 0 9f 45 64
        E 1 9a 3c 64
        E 0 9e 39 64
        E 718 88 45 64
        E 1 8f 45 64
        E 1 8a 3c 64
        E 0 8e 39 64
        E 1 98 47 64
        E 2 9f 47 64
        E 1 9a 3c 64
        E 1 9e 39 64
        E 233 88 47 64
        E 1 8f 47 64
        E 0 8a 3c 64
        E 1 8e 39 64
        E 1 98 48 64
        E 0 9f 48 64
        E 1 9a 3c 64
        E 0 9e 39 64
        E 716 88 48 64
        E 1 8f 48 64
        E 0 8a 3c 64
        E 1 8e 39 64
        E 1 98 4a 64
        E 0 9f 4a 64
        E 1 9a 3c 64
        E 1 9e 39 64
        E 234 80 48 64
        E 1 81 45 64
        E 0 82 40 64
        E 1 83 2d 64
        E 0 88 4a 64
        E 1 8f 4a 64
        E 1 8a 3c 64
        E 0 8e 39 64
        E 1 98 4c 64
        E 0 9f 4c 64
        E 1 9a 3b 64
        E 1 9e 38 64
        E 716 88 4c 64
        E 0 8f 4c 64
        E 0 8a 3b 64
        E 0 8e 38 64
        E 1 98 4a 64
        E 0 9f 4a 64
        E 1 9a 3b 64
        E 1 9e 38 64
        E 236 88 4a 64
        E 1 8f 4a 64
        E 0 8a 3b 64
        E 1 8e 38 64
        E 0 98 4c 64
        E 1 9f 4c 64
        E 0 9a 47 64
        E 1 9e 37 64
        E 717 88 4c 64
        E 0 8f 4c 64
        E 1 8a 47 64
        E 1 8e 37 64
        E 0 98 4d 64
        E 1 9f 4d 64
        E 0 9a 47 64
        E 1 9e 37 64
        E 234 88 4d 64
        E 1 8f 4d 64
        E 0 8a 47 64
        E 1 8e 37 64
        E 0 98 4f 64
        E 4 9f 4f 64
        E 0 9a 40 64
        E 1 9e 37 64
        E 712 88 4f 64
        E 1 8f 4f 64
        E 0 8a 40 64
        E 1 8e 37 64
        E 0 98 4c 64
        E 0 9f 4c 64
        E 1 9a 40 64
        E 0 9e 37 64
        E 237 88 4c 64
        E 1 8f 4c 64
        E 0 8a 40 64
        E 0 8e 37 64
        E 1 98 51 64
        E 0 9f 51 64
        E 0 9a 40 64
        E 1 9e 36 64
        E 717 88 51 64
        E 1 8f 51 64
        E 1 8a 40 64
        E 0 8e 36 64
        E 1 98 50 64
        E 0 9f 50 64
        E 1 9a 40 64
        E 1 9e 36 64
        E 236 88 50 64
        E 0 8f 50 64
        E 1 8a 40 64
        E 0 8e 36 64
        E 1 98 51 64
        E 0 9f 51 64
        E 1 9a 3e 64
        E 0 9e 35 64
        E 720 88 51 64
        E 1 8f 51 64
        E 1 8a 3e 64
        E 0 8e 35 64
        E 1 98 53 64
        E 1 9f 53 64
        E 1 9a 3e 64
        E 0 9e 35 64
        E 232 88 53 64
        E 1 8f 53 64
        E 1 8a 3e 64
        E 0 8e 35 64
        E 1 98 54 64
        E 1 9f 54 64
        E 0 9a 45 64
        E 0 9e 35 64
        E 716 88 54 64
        E 1 8f 54 64
        E 0 8a 45 64
        E 1 8e 35 64
        E 1 98 56 64
        E 0 9f 56 64
        E 1 9a 45 64
        E 1 9e 35 64
        E 239 88 56 64
        E 0 8f 56 64
        E 1 8a 45 64
        E 0 8e 35 64
        E 1 90 4c 64
        E 0 92 3b 64
        E 1 98 58 64
        E 0 9f 4c 64
        E 1 9a 44 64
        E 0 9e 34 64
        E 714 8e 34 64
        E 1 9e 34 64
        E 236 80 4c 64
        E 0 82 3b 64
        E 1 88 58 64
        E 1 8f 4c 64
        E 1 8a 44 64
        E 1 8e 34 64
        E 0 90 4c 64
        E 1 92 3c 64
        E 0 98 4c 64
        E 1 9f 48 64
        E 0 9a 40 64
        E 1 9e 39 64
        E 715 88 4c 64
        E 0 8f 48 64
        E 1 8e 39 64
        E 0 98 4a 64
        E 1 9f 47 64
        E 1 9e 39 64
        E 234 88 4a 64
        E 0 8f 47 64
        E 1 8e 39 64
        E 1 98 48 64
        E 0 9f 45 64
        E 1 9e 39 64
        E 479 80 4c 64
        E 0 82 3c 64
        E 1 90 4c 64
        E 1 92 3c 64
        E 237 88 48 64
        E 1 8f 45 64
        E 1 8e 39 64
        E 0 98 4c 64
        E 1 9f 48 64
        E 1 9e 39 64
        E 238 80 4c 64
        E 0 82 3c 64
        E 1 88 4c 64
        E 1 8f 48 64
        E 0 8a 40 64
        E 1 8e 39 64
        E 0 90 4d 64
        E 1 92 3e 64
        E 0 93 38 64
        E 1 98 4d 64
        E 0 9f 4a 64
        E 1 9a 3b 64
        E 1 9e 38 64
        E 710 88 4d 64
        E 0 8f 4a 64
        E 1 8a 3b 64
        E 0 8e 38 64
        E 0 98 4c 64
        E 1 9f 48 64
        E 0 9a 3c 64
        E 0 9e 38 64
        E 240 83 38 64
        E 0 88 4c 64
        E 1 8f 48 64
        E 0 8a 3c 64
        E 0 8e 38 64
        E 1 93 38 64
        E 0 98 4a 64
        E 1 9f 47 64
        E 0 9a 3e 64
        E 1 9e 38 64
        E 716 88 4a 64
        E 1 8f 47 64
        E 1 8a 3e 64
        E 0 8e 38 64
        E 1 98 48 64
        E 1 9f 45 64
        E 1 9a 40 64
        E 1 9e 38 64
        E 233 88 48 64
        E 0 8f 45 64
        E 1 8a 40 64
        E 0 8e 38 64
        E 1 98 4a 64
        E 0 9f 47 64
        E 1 9a 3e 64
        E 0 9e 38 64
        E 478 83 38 64
        E 1 93 38 64
        E 239 88 4a 64
        E 1 8f 47 64
        E 1 8a 3e 64
        E 0 8e 38 64
        E 1 98 4c 64
        E 1 9f 48 64
        E 0 9a 3c 64
        E 1 9e 38 64
        E 234 80 4d 64
        E 1 82 3e 64
        E 1 83 38 64
        E 0 88 4c 64
        E 1 8f 48 64
        E 0 8a 3c 64
        E 1 8e 38 64
        E 0 90 4d 64
        E 1 92 3e 64
        E 1 93 38 64
        E 0 98 4d 64
        E 1 9f 4a 64
        E 0 9a 3b 64
        E 1 9e 38 64
        E 713 8e 38 64
        E 1 9e 38 64
        E 240 80 4d 64
        E 0 82 3e 64
        E 1 83 38 64
        E 0 8e 38 64
        E 1 90 4c 64
        E 0 92 3b 64
        E 1 93 38 64
        E 0 9e 38 64
        E 475 80 4c 64
        E 1 90 4a 64
        E 238 8e 38 64
        E 1 9e 38 64
        E 239 80 4a 64
        E 1 82 3b 64
        E 1 83 38 64
        E 0 8e 38 64
        E 1 90 48 64
        E 0 92 3b 64
        E 1 93 38 64
        E 0 9e 38 64
        E 476 80 48 64
        E 1 83 38 64
        E 1 90 47 64
        E 0 93 38 64
        E 239 8e 38 64
        E 1 9e 38 64
        E 239 80 47 64
        E 0 82 3b 64
        E 1 83 38 64
        E 0 88 4d 64
        E 1 8f 4a 64
        E 0 8a 3b 64
        E 1 8e 38 64
        E 0 90 48 64
        E 1 91 45 64
        E 0 92 40 64
        E 1 93 39 64
        E 0 98 4c 64
        E 1 9f 48 64
        E 1 9a 39 64
        E 0 9e 39 64
        E 714 8e 39 64
        E 1 9e 39 64
        E 237 81 45 64
        E 1 88 4c 64
        E 1 8f 48 64
        E 0 8a 39 64
        E 1 8e 39 64
        E 0 91 45 64
        E 1 98 51 64
        E 0 9f 48 64
        E 1 9a 40 64
        E 0 9e 39 64
        E 479 80 48 64
        E 1 82 40 64
        E 0 83 39 64
        E 0 90 47 64
        E 1 92 40 64
        E 1 93 39 64
        E 237 88 51 64
        E 0 8f 48 64
        E 1 8e 39 64
        E 1 98 53 64
        E 0 9f 4a 64
        E 1 9e 39 64
        E 236 80 47 64
        E 0 82 40 64
        E 0 83 39 64
        E 1 88 53 64
        E 0 8f 4a 64
        E 0 8e 39 64
        E 1 90 45 64
        E 0 92 40 64
        E 1 93 39 64
        E 2 98 54 64
        E 0 9f 4c 64
        E 0 9e 39 64
        E 475 81 45 64
        E 0 8a 40 64
        E 1 91 45 64
        E 1 9a 40 64
        E 237 88 54 64
        E 0 8f 4c 64
        E 1 8e 39 64
        E 0 98 51 64
        E 1 9f 48 64
        E 0 9e 39 64
        E 240 80 45 64
        E 1 81 45 64
        E 1 82 40 64
        E 0 83 39 64
        E 0 88 51 64
        E 1 8f 48 64
        E 0 8a 40 64
        E 1 8e 39 64
        E 1 91 46 66
        E 0 93 31 64
        E 1 98 52 66
        E 1 9f 4f 64
        E 0 9a 40 64
        E 1 9e 31 64
        E 709 88 52 66
        E 0 8f 4f 64
        E 1 8a 40 64
        E 1 8e 31 64
        E 0 98 51 64
        E 1 9f 4d 64
        E 1 9a 41 64
        E 0 9e 31 64
        E 237 83 31 64
        E 0 88 51 64
        E 1 8f 4d 64
        E 0 8a 41 64
        E 0 8e 31 64
        E 0 93 31 64
        E 1 98 4f 64
        E 0 9f 4c 64
        E 1 9a 43 64
        E 0 9e 31 64
        E 719 88 4f 64
        E 0 8f 4c 64
        E 1 8a 43 64
        E 1 8e 31 64
        E 1 98 4d 64
        E 0 9f 4a 64
        E 1 9a 45 64
        E 1 9e 31 64
        E 232 88 4d 64
        E 0 8f 4a 64
        E 1 8a 45 64
        E 1 8e 31 64
        E 0 98 4f 64
        E 1 9f 4c 64
        E 0 9a 43 64
        E 1 9e 31 64
        E 477 83 31 64
        E 0 93 31 64
        E 240 88 4f 64
        E 0 8f 4c 64
        E 1 8a 43 64
        E 1 8e 31 64
        E 0 98 51 64
        E 1 9f 4d 64
        E 0 9a 41 64
        E 1 9e 31 64
        E 237 81 46 66
        E 0 83 31 64
        E 1 88 51 64
        E 0 8f 4d 64
        E 1 8a 41 64
        E 0 8e 31 64
        E 1 91 46 66
        E 1 93 31 64
        E 0 98 52 66
        E 1 9f 4f 64
        E 0 9a 40 64
        E 1 9e 31 64
        E 714 8e 31 64
        E 1 9e 31 64
        E 240 81 46 66
        E 1 83 31 64
        E 0 8e 31 64
        E 1 91 45 64
        E 1 93 31 64
        E 0 9e 31 64
        E 476 81 45 64
        E 0 91 43 64
        E 240 8e 31 64
        E 0 9e 31 64
        E 240 81 43 64
        E 0 83 31 64
        E 1 8e 31 64
        E 0 91 41 64
        E 1 93 31 64
        E 0 9e 31 64
        E 476 81 41 64
        E 1 83 31 64
        E 0 91 40 64
        E 1 93 31 64
        E 239 8e 31 64
        E 0 9e 31 64
        E 241 81 40 64
        E 0 83 31 64
        E 1 88 52 66
        E 0 8f 4f 64
        E 0 8a 40 64
        E 1 8e 31 64
        E 0 90 4a 64
        E 0 91 41 64
        E 1 92 39 64
        E 0 93 32 64
        E 0 98 51 64
        E 0 9f 4d 64
        E 0 9a 41 64
        E 1 9e 32 64
        E 714 8e 32 64
        E 1 9e 32 64
        E 240 80 4a 64
        E 1 82 39 64
        E 0 88 51 64
        E 0 8f 4d 64
        E 1 8a 41 64
        E 0 8e 32 64
        E 1 90 4a 64
        E 0 92 3e 64
        E 1 98 4d 64
        E 0 9f 4a 64
        E 1 9a 39 64
        E 0 9e 32 64
        E 474 81 41 64
        E 0 83 32 64
        E 1 91 40 64
        E 0 93 32 64
        E 239 88 4d 64
        E 1 8f 4a 64
        E 1 8e 32 64
        E 0 98 4f 64
        E 1 9f 4c 64
        E 0 9e 32 64
        E 238 81 40 64
        E 1 83 32 64
        E 0 88 4f 64
        E 1 8f 4c 64
        E 0 8e 32 64
        E 1 91 3e 64
        E 0 93 32 64
        E 1 98 51 64
        E 1 9f 4d 64
        E 0 9e 32 64
        E 475 80 4a 64
        E 1 82 3e 64
        E 0 8a 39 64
        E 1 90 4a 64
        E 1 92 3e 64
        E 0 9a 39 64
        E 236 88 51 64
        E 1 8f 4d 64
        E 1 8e 32 64
        E 0 98 4d 64
        E 1 9f 4a 64
        E 0 9e 32 64
        E 241 80 4a 64
        E 0 81 3e 64
        E 1 82 3e 64
        E 0 83 32 64
        E 1 88 4d 64
        E 0 8f 4a 64
        E 1 8a 39 64
        E 1 8e 32 64
        E 0 90 4b 66
        E 1 91 45 64
        E 1 92 3c 64
        E 0 93 36 64
        E 1 98 4b 66
        E 1 9f 48 64
        E 0 9a 39 64
        E 1 9e 36 64
        E 709 88 4b 66
        E 1 8f 48 64
        E 1 8a 39 64
        E 0 8e 36 64
        E 1 98 4a 64
        E 0 9f 46 66
        E 1 9a 3a 66
        E 1 9e 36 64
        E 235 81 45 64
        E 0 83 36 64
        E 0 88 4a 64
        E 1 8f 46 66
        E 1 8a 3a 66
        E 0 8e 36 64
        E 1 91 45 64
        E 0 93 36 64
        E 1 98 48 64
        E 1 9f 45 64
        E 0 9a 3c 64
        E 1 9e 36 64
        E 712 88 48 64
        E 1 8f 45 64
        E 0 8a 3c 64
        E 0 8e 36 64
        E 1 98 46 66
        E 1 9f 43 64
        E 0 9a 3e 64
        E 0 9e 36 64
        E 240 88 46 66
        E 1 8f 43 64
        E 0 8a 3e 64
        E 1 8e 36 64
        E 1 98 48 64
        E 0 9f 45 64
        E 1 9a 3c 64
        E 1 9e 36 64
        E 474 81 45 64
        E 0 83 36 64
        E 1 91 45 64
        E 0 93 36 64
        E 238 88 48 64
        E 0 8f 45 64
        E 0 8a 3c 64
        E 1 8e 36 64
        E 0 98 4a 64
        E 0 9f 46 66
        E 1 9a 3b 64
        E 0 9e 36 64
        E 239 80 4b 66
        E 0 81 45 64
        E 0 82 3c 64
        E 1 83 36 64
        E 0 88 4a 64
        E 0 8f 46 66
        E 1 8a 3b 64
        E 0 8e 36 64
        E 0 90 4b 66
        E 1 91 45 64
        E 0 92 3c 64
        E 0 93 36 64
        E 1 98 4b 66
        E 0 9f 48 64
        E 1 9a 39 64
        E 0 9e 36 64
        E 475 83 36 64
        E 0 93 36 64
        E 240 8e 36 64
        E 1 9e 36 64
        E 239 80 4b 66
        E 0 82 3c 64
        E 1 83 36 64
        E 0 8a 39 64
        E 1 8e 36 64
        E 1 90 4a 64
        E 1 92 39 64
        E 0 93 36 64
        E 1 9a 45 64
        E 0 9e 36 64
        E 475 80 4a 64
        E 1 90 48 64
        E 237 8e 36 64
        E 1 9e 36 64
        E 241 80 48 64
        E 1 82 39 64
        E 0 8e 36 64
        E 1 90 47 64
        E 1 92 39 64
        E 1 9e 36 64
        E 473 80 47 64
        E 1 83 36 64
        E 1 90 45 64
        E 0 93 36 64
        E 239 8e 36 64
        E 0 9e 36 64
        E 241 80 45 64
        E 1 81 45 64
        E 0 82 39 64
        E 1 83 36 64
        E 1 88 4b 66
        E 1 8f 48 64
        E 0 8a 45 64
        E 1 8e 36 64
        E 1 90 47 64
        E 0 91 43 64
        E 1 92 3e 64
        E 1 93 35 64
        E 0 98 4a 64
        E 0 9f 47 64
        E 1 9a 43 64
        E 1 9e 35 64
        E 708 88 4a 64
        E 1 8f 47 64
        E 0 8e 35 64
        E 1 98 48 64
        E 1 9f 45 64
        E 0 9e 35 64
        E 238 88 48 64
        E 1 8f 45 64
        E 0 8e 35 64
        E 1 98 4a 64
        E 0 9f 47 64
        E 1 9e 35 64
        E 477 80 47 64
        E 0 82 3e 64
        E 0 83 35 64
        E 1 90 47 64
        E 0 92 3e 64
        E 1 93 35 64
        E 237 88 4a 64
        E 1 8f 47 64
        E 0 8e 35 64
        E 1 98 47 64
        E 0 9f 43 64
        E 1 9e 35 64
        E 238 80 47 64
        E 0 82 3e 64
        E 0 83 35 64
        E 1 88 47 64
        E 0 8f 43 64
        E 0 8e 35 64
        E 1 90 47 64
        E 0 92 3e 64
        E 1 93 35 64
        E 0 98 48 64
        E 0 9f 45 64
        E 1 9e 35 64
        E 718 88 48 64
        E 0 8f 45 64
        E 1 8e 35 64
        E 1 98 4a 64
        E 0 9f 47 64
        E 1 9e 35 64
        E 236 80 47 64
        E 0 81 43 64
        E 1 82 3e 64
        E 0 83 35 64
        E 1 88 4a 64
        E 1 8f 47 64
        E 1 8a 43 64
        E 0 8e 35 64
        E 1 90 48 64
        E 1 91 43 64
        E 0 92 3c 64
        E 1 93 34 64
        E 0 98 4c 64
        E 1 9f 48 64
        E 0 9a 43 64
        E 1 9e 34 64
        E 710 88 4c 64
        E 0 8f 48 64
        E 1 8e 34 64
        E 1 98 4a 64
        E 0 9f 47 64
        E 1 9e 34 64
        E 238 81 43 64
        E 0 88 4a 64
        E 1 8f 47 64
        E 0 8e 34 64
        E 1 91 43 64
        E 0 98 4c 64
        E 1 9f 48 64
        E 0 9e 34 64
        E 718 88 4c 64
        E 0 8f 48 64
        E 1 8e 34 64
        E 0 98 4d 64
        E 1 9f 4a 64
        E 1 9e 34 64
        E 237 80 48 64
        E 0 82 3c 64
        E 1 88 4d 64
        E 1 8f 4a 64
        E 0 8a 43 64
        E 1 8e 34 64
        E 1 90 46 66
        E 0 92 3c 64
        E 1 98 4f 64
        E 0 9f 4c 64
        E 1 9a 40 64
        E 0 9e 34 64
        E 714 88 4f 64
        E 0 8f 4c 64
        E 1 8e 34 64
        E 0 98 4c 64
        E 1 9f 48 64
        E 0 9e 34 64
        E 236 80 46 66
        E 0 81 43 64
        E 0 82 3c 64
        E 1 83 34 64
        E 0 88 4c 64
        E 0 8f 48 64
        E 0 8a 40 64
        E 0 8e 34 64
        E 0 90 45 64
        E 1 91 41 64
        E 0 92 3c 64
        E 0 93 33 66
        E 0 98 51 64
        E 0 9f 4d 64
        E 0 9a 3c 64
        E 1 9e 33 66
        E 717 88 51 64
        E 0 8e 33 66
        E 0 98 52 66
        E 0 9e 33 66
        E 237 88 52 66
        E 0 8e 33 66
        E 0 98 51 64
        E 1 9e 33 66
        E 480 81 41 64
        E 0 91 41 64
        E 244 88 51 64
        E 0 8e 33 66
        E 0 98 4f 64
        E 1 9e 33 66
        E 237 80 45 64
        E 0 81 41 64
        E 1 82 3c 64
        E 0 83 33 66
        E 0 88 4f 64
        E 0 8f 4d 64
        E 1 8a 3c 64
        E 0 8e 33 66
        E 0 90 46 66
        E 1 91 41 64
        E 0 92 3e 64
        E 0 93 32 64
        E 0 98 4d 64
        E 0 9f 46 66
        E 0 9a 3e 64
        E 0 9e 32 64
        E 715 8e 32 64
        E 1 9e 32 64
        E 242 80 46 66
        E 1 81 41 64
        E 0 82 3e 64
        E 0 83 32 64
        E 1 88 4d 64
        E 0 8f 46 66
        E 1 8a 3e 64
        E 0 8e 32 64
        E 0 90 46 66
        E 1 91 3e 64
        E 0 93 2e 66
        E 0 98 4d 64
        E 0 9f 46 66
        E 0 9a 3e 64
        E 0 9e 2e 66
        E 475 81 3e 64
        E 0 83 2e 66
        E 0 91 3f 66
        E 0 93 33 66
        E 243 88 4d 64
        E 0 8a 3e 64
        E 0 8e 2e 66
        E 0 98 4f 64
        E 1 9a 43 64
        E 0 9e 33 66
        E 238 80 46 66
        E 1 81 3f 66
        E 0 83 33 66
        E 0 88 4f 64
        E 1 8f 46 66
        E 0 8a 43 64
        E 1 8e 33 66
        E 0 90 45 64
        E 1 91 3c 64
        E 0 93 35 64
        E 0 98 48 64
        E 1 9f 45 64
        E 0 9a 41 64
        E 0 9e 35 64
        E 714 88 48 64
        E 0 8f 45 64
        E 1 8e 35 64
        E 0 98 4a 64
        E 1 9f 46 66
        E 0 9e 35 64
        E 238 88 4a 64
        E 0 8f 46 66
        E 1 8e 35 64
        E 0 98 4b 66
        E 0 9f 48 64
        E 0 9e 29 64
        E 718 88 4b 66
        E 0 8f 48 64
        E 1 8e 29 64
        E 0 98 4d 64
        E 0 9f 45 64
        E 1 9e 29 64
        E 239 80 45 64
        E 1 81 3c 64
        E 0 83 35 64
        E 0 88 4d 64
        E 1 8f 45 64
        E 0 8a 41 64
        E 1 8e 29 64
        E 0 90 46 66
        E 0 91 3e 64
        E 1 92 3a 66
        E 0 93 2e 66
        E 0 98 4a 64
        E 0 9f 46 66
        E 0 9a 41 64
        E 0 9e 2e 66
        E 718 8e 2e 66
        E 0 9e 2e 66
        E 238 82 3a 66
        E 0 83 2e 66
        E 0 8e 2e 66
        E 0 92 3a 66
        E 1 93 2e 66
        E 0 9e 2e 66
        E 719 82 3a 66
        E 0 8e 2e 66
        E 0 92 3c 64
        E 1 9e 2e 66
        E 241 82 3c 64
        E 0 83 2e 66
        E 1 88 4a 64
        E 0 8f 46 66
        E 0 8a 41 64
        E 0 8e 2e 66
        E 0 92 3e 64
        E 0 93 2e 66
        E 0 9e 2e 66
        E 717 82 3e 64
        E 0 83 2e 66
        E 0 8e 2e 66
        E 0 92 3f 66
        E 0 93 2e 66
        E 0 9e 2e 66
        E 241 80 46 66
        E 0 81 3e 64
        E 1 82 3f 66
        E 0 83 2e 66
        E 0 8e 2e 66
        E 0 92 41 64
        E 0 93 2d 64
        E 1 9a 48 64
        E 0 9e 2d 64
        E 716 8e 2d 64
        E 0 9e 2d 64
        E 240 82 41 64
        E 1 83 2d 64
        E 0 8a 48 64
        E 1 8e 2d 64
        E 0 92 35 64
        E 0 93 2d 64
        E 1 9f 4d 64
        E 1 9a 45 64
        E 0 9e 2d 64
        E 716 8e 2d 64
        E 0 9e 2d 64
        E 239 82 35 64
        E 0 8a 45 64
        E 1 8e 2d 64
        E 0 92 37 64
        E 1 9a 41 64
        E 0 9e 2d 64
        E 720 82 37 64
        E 0 8e 2d 64
        E 0 92 39 64
        E 0 9e 2d 64
        E 243 82 39 64
        E 0 83 2d 64
        E 1 8f 4d 64
        E 0 8a 41 64
        E 0 8e 2d 64
        E 0 92 3a 66
        E 1 93 37 64
        E 0 9f 4d 64
        E 0 9a 4a 64
        E 0 9e 2b 64
        E 717 8e 2b 64
        E 0 9e 2b 64
        E 236 82 3a 66
        E 0 83 37 64
        E 1 8f 4d 64
        E 0 8a 4a 64
        E 0 8e 2b 64
        E 1 92 3a 66
        E 0 93 37 64
        E 0 9f 43 64
        E 0 9a 46 66
        E 0 9e 2b 64
        E 721 82 3a 66
        E 0 8e 2b 64
        E 0 92 39 64
        E 0 9e 2b 64
        E 240 82 39 64
        E 1 8f 43 64
        E 0 8a 46 66
        E 0 8e 2b 64
        E 1 92 3a 66
        E 0 9f 4b 66
        E 0 9a 43 64
        E 1 9e 2b 64
        E 718 82 3a 66
        E 1 8e 2b 64
        E 0 92 3c 64
        E 1 9e 2b 64
        E 234 82 3c 64
        E 0 83 37 64
        E 1 8f 4b 66
        E 0 8a 43 64
        E 1 8e 2b 64
        E 0 92 39 64
        E 1 93 35 64
        E 0 9f 4b 66
        E 1 9a 48 64
        E 0 9e 29 64
        E 718 8e 29 64
        E 0 9e 29 64
        E 240 82 39 64
        E 0 8f 4b 66
        E 0 8a 48 64
        E 1 8e 29 64
        E 0 92 3e 64
        E 0 9f 41 64
        E 0 9a 45 64
        E 1 9e 29 64
        E 477 83 35 64
        E 1 93 35 64
        E 239 82 3e 64
        E 1 8e 29 64
        E 0 92 3c 64
        E 0 9e 29 64
        E 241 82 3c 64
        E 1 83 35 64
        E 1 8f 41 64
        E 0 8a 45 64
        E 1 8e 29 64
        E 0 92 3e 64
        E 0 93 35 64
        E 0 9f 4a 64
        E 1 9a 41 64
        E 0 9e 29 64
        E 712 8e 29 64
        E 0 9e 29 64
        E 243 82 3e 64
        E 0 83 35 64
        E 0 8f 4a 64
        E 1 8a 41 64
        E 0 8e 29 64
        E 0 92 37 64
        E 0 93 33 66
        E 1 9f 4a 64
        E 0 9a 46 66
        E 1 9e 33 66
        E 716 8e 33 66
        E 0 9e 33 66
        E 241 82 37 64
        E 1 8f 4a 64
        E 0 8a 46 66
        E 1 8e 33 66
        E 0 92 3c 64
        E 1 9f 3f 66
        E 0 9a 43 64
        E 1 9e 33 66
        E 717 82 3c 64
        E 0 8e 33 66
        E 0 92 3a 66
        E 0 9e 33 66
        E 240 82 3a 66
        E 0 8f 3f 66
        E 0 8a 43 64
        E 1 8e 33 66
        E 0 92 3c 64
        E 1 9f 48 64
        E 0 9a 3f 66
        E 1 9e 33 66
        E 715 8e 33 66
        E 0 9e 33 66
        E 241 82 3c 64
        E 1 83 33 66
        E 0 8f 48 64
        E 0 8a 3f 66
        E 1 8e 33 66
        E 0 92 35 64
        E 0 93 32 64
        E 0 9f 48 64
        E 0 9a 45 64
        E 1 9e 32 64
        E 716 8e 32 64
        E 0 9e 32 64
        E 240 82 35 64
        E 1 8f 48 64
        E 0 8a 45 64
        E 0 8e 32 64
        E 1 92 3a 66
        E 0 9f 3e 64
        E 0 9a 41 64
        E 0 9e 32 64
        E 719 82 3a 66
        E 0 8e 32 64
        E 0 92 39 64
        E 1 9e 32 64
        E 240 82 39 64
        E 0 8f 3e 64
        E 0 8a 41 64
        E 0 8e 32 64
        E 1 92 3a 66
        E 0 9f 46 66
        E 1 9a 3e 64
        E 0 9e 32 64
        E 715 8e 32 64
        E 0 9e 32 64
        E 245 82 3a 66
        E 0 83 32 64
        E 0 8f 46 66
        E 1 8a 3e 64
        E 0 8e 32 64
        E 1 92 3f 66
        E 0 93 30 64
        E 0 9f 46 66
        E 1 9a 3f 66
        E 0 9e 30 64
        E 711 82 3f 66
        E 1 8a 3f 66
        E 0 8e 30 64
        E 0 92 3e 64
        E 1 9a 3e 64
        E 0 9e 30 64
        E 239 82 3e 64
        E 0 8f 46 66
        E 1 8a 3e 64
        E 0 8e 30 64
        E 1 92 3f 66
        E 3 9f 45 64
        E 0 9a 3f 66
        E 0 9e 30 64
        E 717 82 3f 66
        E 0 8a 3f 66
        E 0 8e 30 64
        E 1 92 3c 64
        E 0 9a 3c 64
        E 0 9e 30 64
        E 240 82 3c 64
        E 0 8a 3c 64
        E 1 8e 30 64
        E 0 92 3e 64
        E 0 9a 3e 64
        E 1 9e 30 64
        E 716 82 3e 64
        E 1 8a 3e 64
        E 0 8e 30 64
        E 0 92 3f 66
        E 1 9a 3f 66
        E 0 9e 30 64
        E 240 82 3f 66
        E 0 83 30 64
        E 0 8f 45 64
        E 1 8a 3f 66
        E 0 8e 30 64
        E 1 92 3e 64
        E 0 93 2e 66
        E 1 98 4d 64
        E 0 9a 3e 64
        E 1 9e 2e 66
        E 475 82 3e 64
        E 0 83 2e 66
        E 0 8a 3e 64
        E 1 92 3c 64
        E 0 93 33 66
        E 0 9a 3c 64
        E 236 82 3c 64
        E 1 88 4d 64
        E 0 8a 3c 64
        E 1 8e 2e 66
        E 0 92 3a 66
        E 1 98 4f 64
        E 0 9a 3a 66
        E 0 9e 33 66
        E 241 82 3a 66
        E 0 83 33 66
        E 1 88 4f 64
        E 0 8a 3a 66
        E 1 8e 33 66
        E 0 92 39 64
        E 0 93 35 64
        E 1 98 48 64
        E 0 9f 4d 64
        E 1 9a 39 64
        E 0 9e 35 64
        E 714 88 48 64
        E 0 8e 35 64
        E 0 98 4a 64
        E 0 9e 35 64
        E 240 88 4a 64
        E 0 8e 35 64
        E 1 98 4b 66
        E 0 9e 29 64
        E 479 8a 39 64
        E 0 9a 39 64
        E 240 88 4b 66
        E 0 8e 29 64
        E 1 98 4d 64
        E 0 9e 29 64
        E 239 8f 4d 64
        E 1 82 39 64
        E 0 83 35 64
        E 0 88 4d 64
        E 1 8a 39 64
        E 0 8e 29 64
        E 1 9f 4d 64
        E 0 92 3a 66
        E 0 93 2e 66
        E 0 98 4a 64
        E 0 9a 3a 66
        E 1 9e 2e 66
        E 717 88 4a 64
        E 0 8e 2e 66
        E 1 98 48 64
        E 0 9e 2d 64
        E 239 88 48 64
        E 0 8e 2d 64
        E 0 98 4a 64
        E 1 9e 2e 66
        E 479 8f 4d 64
        E 0 9f 4c 64
        E 241 88 4a 64
        E 0 8e 2e 66
        E 1 98 4c 64
        E 0 9e 30 64
        E 235 8f 4c 64
        E 0 88 4c 64
        E 1 8e 30 64
        E 0 9f 4a 64
        E 1 98 4d 64
        E 0 9e 32 64
        E 720 88 4d 64
        E 0 8e 32 64
        E 0 98 4f 64
        E 1 9e 34 64
        E 239 82 3a 66
        E 0 83 2e 66
        E 1 88 4f 64
        E 0 8f 4a 64
        E 0 8a 3a 66
        E 0 8e 34 64
        E 1 92 3c 64
        E 0 93 35 64
        E 0 98 51 64
        E 0 9f 48 64
        E 1 9e 35 64
        E 716 8e 35 64
        E 1 9e 34 64
        E 237 82 3c 64
        E 1 83 35 64
        E 0 88 51 64
        E 1 8e 34 64
        E 0 92 41 64
        E 1 93 35 64
        E 0 98 4d 64
        E 1 9a 41 64
        E 0 9e 35 64
        E 721 83 35 64
        E 1 8e 35 64
        E 0 93 37 64
        E 0 9e 37 64
        E 240 82 41 64
        E 0 83 37 64
        E 0 88 4d 64
        E 0 8f 48 64
        E 1 8e 37 64
        E 0 92 41 64
        E 1 93 39 64
        E 0 9e 39 64
        E 716 83 39 64
        E 1 8e 39 64
        E 0 93 3a 66
        E 0 9e 3a 66
        E 241 82 41 64
        E 0 83 3a 66
        E 0 8a 41 64
        E 1 8e 3a 66
        E 0 92 41 64
        E 1 93 3c 64
        E 0 98 4f 64
        E 1 9a 41 64
        E 0 9e 3c 64
        E 715 8e 3c 64
        E 0 9e 30 64
        E 240 82 41 64
        E 0 83 3c 64
        E 0 8a 41 64
        E 1 8e 30 64
        E 0 92 40 64
        E 1 93 30 64
        E 0 9a 40 64
        E 0 9e 30 64
        E 717 8e 30 64
        E 0 9e 30 64
        E 241 83 30 64
        E 1 8e 30 64
        E 0 93 32 64
        E 0 9e 32 64
        E 719 83 32 64
        E 0 8e 32 64
        E 1 93 34 64
        E 0 9e 34 64
        E 240 82 40 64
        E 0 83 34 64
        E 1 88 4f 64
        E 0 8a 40 64
        E 0 8e 34 64
        E 1 92 40 64
        E 0 93 35 64
        E 1 98 51 64
        E 0 9a 40 64
        E 0 9e 35 64
        E 718 8e 35 64
        E 1 9e 35 64
        E 235 82 40 64
        E 1 83 35 64
        E 0 88 51 64
        E 1 8a 40 64
        E 0 8e 35 64
        E 1 92 3e 64
        E 0 93 35 64
        E 0 98 51 64
        E 1 9a 3e 64
        E 1 9e 35 64
        E 716 8e 35 64
        E 1 9e 35 64
        E 241 88 51 64
        E 0 8e 35 64
        E 0 98 51 64
        E 1 9e 35 64
        E 479 83 35 64
        E 0 93 37 64
        E 241 88 51 64
        E 0 8e 35 64
        E 0 98 52 66
        E 0 9e 35 64
        E 239 82 3e 64
        E 0 83 37 64
        E 0 88 52 66
        E 1 8a 3e 64
        E 0 8e 35 64
        E 0 92 3e 64
        E 0 93 34 64
        E 0 98 4f 64
        E 1 9a 3e 64
        E 0 9e 34 64
        E 716 8e 34 64
        E 0 9e 34 64
        E 241 82 3e 64
        E 1 83 34 64
        E 0 88 4f 64
        E 1 8a 3e 64
        E 0 8e 34 64
        E 0 92 3c 64
        E 0 93 39 64
        E 0 98 4f 64
        E 0 9a 3c 64
        E 1 9e 39 64
        E 715 82 3c 64
        E 1 83 39 64
        E 0 8e 39 64
        E 0 92 3a 66
        E 1 93 37 64
        E 0 9e 37 64
        E 238 82 3a 66
        E 0 83 37 64
        E 0 88 4f 64
        E 1 8e 37 64
        E 1 92 3c 64
        E 0 93 39 64
        E 1 98 4f 64
        E 0 9e 39 64
        E 717 88 4f 64
        E 0 8e 39 64
        E 0 98 51 64
        E 1 9e 2d 64
        E 240 82 3c 64
        E 1 83 39 64
        E 0 88 51 64
        E 1 8a 3c 64
        E 0 8e 2d 64
        E 0 92 3c 64
        E 1 93 32 64
        E 0 98 4d 64
        E 1 9a 3c 64
        E 0 9e 32 64
        E 715 8e 32 64
        E 0 9e 32 64
        E 243 82 3c 64
        E 0 83 32 64
        E 0 88 4d 64
        E 1 8a 3c 64
        E 0 8e 32 64
        E 0 92 3a 66
        E 0 93 37 64
        E 0 98 4d 64
        E 1 9a 3a 66
        E 0 9e 37 64
        E 717 82 3a 66
        E 1 83 37 64
        E 0 8e 37 64
        E 0 92 39 64
        E 1 93 35 64
        E 0 9e 35 64
        E 238 82 39 64
        E 0 83 35 64
        E 1 88 4d 64
        E 0 8e 35 64
        E 1 92 3a 66
        E 0 93 37 64
        E 1 98 4d 64
        E 0 9e 37 64
        E 716 88 4d 64
        E 0 8e 37 64
        E 0 98 4f 64
        E 0 9e 2b 64
        E 240 82 3a 66
        E 0 83 37 64
        E 1 88 4f 64
        E 0 8a 3a 66
        E 0 8e 2b 64
        E 1 92 3a 66
        E 0 93 30 64
        E 1 98 4c 64
        E 0 9a 3a 66
        E 1 9e 30 64
        E 719 8e 30 64
        E 0 9e 30 64
        E 236 82 3a 66
        E 1 83 30 64
        E 0 88 4c 64
        E 0 8a 3a 66
        E 0 8e 30 64
        E 0 92 39 64
        E 0 93 35 64
        E 0 98 48 64
        E 0 9a 39 64
        E 0 9e 35 64
        E 722 82 39 64
        E 0 83 35 64
        E 0 8e 35 64
        E 0 92 37 64
        E 0 93 34 64
        E 1 9e 34 64
        E 237 82 37 64
        E 1 83 34 64
        E 0 88 48 64
        E 0 8e 34 64
        E 1 92 39 64
        E 0 93 35 64
        E 0 98 4d 64
        E 0 9e 35 64
        E 719 8e 35 64
        E 0 9e 39 64
        E 240 82 39 64
        E 1 83 35 64
        E 0 88 4d 64
        E 1 8a 39 64
        E 0 8e 39 64
        E 0 92 39 64
        E 1 93 3a 66
        E 0 98 4a 64
        E 0 9a 39 64
        E 0 9e 3a 66
        E 715 83 3a 66
        E 0 88 4a 64
        E 0 8e 3a 66
        E 0 93 39 64
        E 0 98 48 64
        E 1 9e 39 64
        E 239 82 39 64
        E 1 83 39 64
        E 0 88 48 64
        E 1 8a 39 64
        E 0 8e 39 64
        E 0 92 37 64
        E 1 93 3a 66
        E 0 98 4a 64
        E 0 9a 37 64
        E 0 9e 3a 66
        E 722 83 3a 66
        E 0 88 4a 64
        E 0 8e 3a 66
        E 0 93 37 64
        E 0 98 46 66
        E 1 9e 37 64
        E 235 83 37 64
        E 0 88 46 66
        E 0 8a 37 64
        E 1 8e 37 64
        E 0 93 39 64
        E 1 98 48 64
        E 0 9a 43 64
        E 0 9e 39 64
        E 721 83 39 64
        E 0 88 48 64
        E 0 8e 39 64
        E 0 93 3a 66
        E 0 98 4a 64
        E 1 9e 3a 66
        E 237 82 37 64
        E 1 83 3a 66
        E 0 88 4a 64
        E 1 8a 43 64
        E 0 8e 3a 66
        E 1 92 35 64
        E 0 93 39 64
        E 0 98 48 64
        E 1 9a 3c 64
        E 0 9e 39 64
        E 716 82 35 64
        E 0 83 39 64
        E 0 88 48 64
        E 0 8e 39 64
        E 0 92 39 64
        E 0 93 35 64
        E 1 98 4d 64
        E 0 9e 35 64
        E 238 82 39 64
        E 0 83 35 64
        E 1 88 4d 64
        E 0 8e 35 64
        E 1 92 37 64
        E 0 93 30 64
        E 1 98 4c 64
        E 0 9e 30 64
        E 719 88 4c 64
        E 0 98 4d 64
        E 238 88 4d 64
        E 0 8e 30 64
        E 0 98 4f 64
        E 1 9e 30 64
        E 719 88 4f 64
        E 0 98 4c 64
        E 239 82 37 64
        E 0 83 30 64
        E 0 88 4c 64
        E 2 8a 3c 64
        E 0 8e 30 64
        E 1 90 48 64
        E 0 91 45 64
        E 0 92 39 64
        E 1 93 35 64
        E 0 98 51 64
        E 1 9f 4d 64
        E 1 9a 3c 64
        E 0 9e 29 64
        E 717 80 48 64
        E 0 81 45 64
        E 0 8e 29 64
        E 0 90 47 64
        E 1 91 43 64
        E 1 9e 35 64
        E 238 80 47 64
        E 0 81 43 64
        E 0 8e 35 64
        E 1 90 48 64
        E 0 91 45 64
        E 0 9e 35 64
        E 718 80 48 64
        E 0 81 45 64
        E 1 8e 35 64
        E 0 90 45 64
        E 1 91 41 64
        E 0 9e 35 64
        E 238 80 45 64
        E 0 81 41 64
        E 0 8a 3c 64
        E 0 8e 35 64
        E 0 90 47 64
        E 1 91 43 64
        E 0 9a 41 64
        E 1 9e 35 64
        E 717 80 47 64
        E 0 81 43 64
        E 1 8e 35 64
        E 0 90 48 64
        E 1 91 45 64
        E 0 9e 35 64
        E 241 80 48 64
        E 0 81 45 64
        E 1 82 39 64
        E 0 83 35 64
        E 1 88 51 64
        E 0 8f 4d 64
        E 1 8a 41 64
        E 0 8e 35 64
        E 1 90 4a 64
        E 0 91 46 66
        E 1 92 3e 64
        E 0 93 3a 66
        E 0 98 51 64
        E 0 9f 4a 64
        E 0 9a 41 64
        E 0 9e 3a 66
        E 713 82 3e 64
        E 0 83 3a 66
        E 0 8e 3a 66
        E 0 92 3c 64
        E 0 93 39 64
        E 1 9e 39 64
        E 238 80 4a 64
        E 0 81 46 66
        E 0 82 3c 64
        E 1 83 39 64
        E 0 8e 39 64
        E 1 90 4a 64
        E 0 91 46 66
        E 0 92 3e 64
        E 1 93 3a 66
        E 0 9e 3a 66
        E 719 82 3e 64
        E 0 83 3a 66
        E 0 8e 3a 66
        E 0 92 3a 66
        E 1 93 37 64
        E 0 9e 37 64
        E 240 82 3a 66
        E 0 83 37 64
        E 0 8a 41 64
        E 1 8e 37 64
        E 0 92 3c 64
        E 1 93 39 64
        E 0 9a 3e 64
        E 0 9e 39 64
        E 715 82 3c 64
        E 0 83 39 64
        E 0 8e 39 64
        E 1 92 3e 64
        E 0 93 3a 66
        E 0 9e 3a 66
        E 239 80 4a 64
        E 1 81 46 66
        E 0 82 3e 64
        E 0 83 3a 66
        E 1 88 51 64
        E 0 8f 4a 64
        E 1 8a 3e 64
        E 0 8e 3a 66
        E 0 90 46 66
        E 1 91 43 64
        E 0 92 3e 64
        E 0 93 34 64
        E 0 98 4f 64
        E 1 9f 4a 64
        E 0 9a 46 66
        E 0 9e 34 64
        E 715 80 46 66
        E 0 81 43 64
        E 0 8e 34 64
        E 1 90 45 64
        E 0 91 41 64
        E 0 9e 34 64
        E 239 80 45 64
        E 1 81 41 64
        E 0 83 34 64
        E 1 8e 34 64
        E 0 90 46 66
        E 0 91 43 64
        E 0 93 34 64
        E 0 9e 34 64
        E 718 80 46 66
        E 0 81 43 64
        E 0 8e 34 64
        E 1 90 43 64
        E 0 91 40 64
        E 0 9e 34 64
        E 241 80 43 64
        E 0 81 40 64
        E 0 82 3e 64
        E 1 8a 46 66
        E 0 8e 34 64
        E 1 90 45 64
        E 0 91 41 64
        E 0 92 37 64
        E 0 9a 43 64
        E 1 9e 34 64
        E 715 80 45 64
        E 1 81 41 64
        E 0 8e 34 64
        E 0 90 46 66
        E 1 91 43 64
        E 0 9e 34 64
        E 240 80 46 66
        E 0 81 43 64
        E 0 82 37 64
        E 0 83 34 64
        E 1 88 4f 64
        E 0 8f 4a 64
        E 0 8a 43 64
        E 0 8e 34 64
        E 1 90 48 64
        E 0 91 45 64
        E 0 92 3c 64
        E 1 93 39 64
        E 0 98 4f 64
        E 1 9f 48 64
        E 0 9a 40 64
        E 0 9e 39 64
        E 713 82 3c 64
        E 0 83 39 64
        E 0 8e 39 64
        E 0 92 3a 66
        E 1 93 37 64
        E 0 9e 37 64
        E 241 80 48 64
        E 0 81 45 64
        E 0 82 3a 66
        E 1 83 37 64
        E 0 8e 37 64
        E 1 90 48 64
        E 0 91 45 64
        E 0 92 3c 64
        E 1 93 39 64
        E 0 9e 39 64
        E 718 82 3c 64
        E 1 83 39 64
        E 0 8e 39 64
        E 1 92 39 64
        E 0 93 35 64
        E 0 9e 35 64
        E 236 82 39 64
        E 0 83 35 64
        E 1 8a 40 64
        E 0 8e 35 64
        E 0 92 3a 66
        E 0 93 37 64
        E 0 9a 3c 64
        E 0 9e 37 64
        E 720 82 3a 66
        E 0 83 37 64
        E 0 8e 37 64
        E 1 92 3c 64
        E 0 93 39 64
        E 0 9e 39 64
        E 239 80 48 64
        E 0 81 45 64
        E 1 82 3c 64
        E 0 83 39 64
        E 0 88 4f 64
        E 0 8f 48 64
        E 1 8a 3c 64
        E 0 8e 39 64
        E 1 90 48 64
        E 0 91 41 64
        E 0 92 3c 64
        E 0 93 32 64
        E 1 98 4d 64
        E 0 9f 48 64
        E 0 9a 45 64
        E 0 9e 32 64
        E 714 8e 32 64
        E 0 9e 32 64
        E 240 80 48 64
        E 0 81 41 64
        E 1 82 3c 64
        E 0 83 32 64
        E 0 8e 32 64
        E 1 90 48 64
        E 0 91 41 64
        E 0 92 3c 64
        E 0 93 32 64
        E 0 9e 32 64
        E 719 8e 32 64
        E 0 9e 32 64
        E 241 82 3c 64
        E 0 83 32 64
        E 0 8e 32 64
        E 0 92 3c 64
        E 1 93 32 64
        E 0 9e 32 64
        E 719 82 3c 64
        E 0 83 32 64
        E 0 8e 32 64
        E 0 92 3c 64
        E 0 93 32 64
        E 1 9e 32 64
        E 239 80 48 64
        E 0 81 41 64
        E 0 82 3c 64
        E 1 83 32 64
        E 0 88 4d 64
        E 1 8f 48 64
        E 0 8a 45 64
        E 0 8e 32 64
        E 1 90 46 66
        E 0 91 43 64
        E 1 92 3c 64
        E 0 93 34 64
        E 1 98 4f 64
        E 0 9f 48 64
        E 0 9a 43 64
        E 0 9e 34 64
        E 715 8e 34 64
        E 0 9e 34 64
        E 241 8a 43 64
        E 0 8e 34 64
        E 0 9a 40 64
        E 1 9e 34 64
        E 476 80 46 66
        E 0 81 43 64
        E 0 82 3c 64
        E 0 83 34 64
        E 1 90 46 66
        E 0 91 43 64
        E 0 92 3c 64
        E 1 93 34 64
        E 239 8e 34 64
        E 0 9e 34 64
        E 239 80 46 66
        E 0 81 43 64
        E 0 82 3c 64
        E 1 83 34 64
        E 0 88 4f 64
        E 1 8f 48 64
        E 0 8a 40 64
        E 1 8e 34 64
        E 0 90 45 64
        E 0 91 41 64
        E 0 92 3c 64
        E 1 93 35 64
        E 0 98 51 64
        E 0 9f 4d 64
        E 0 9a 3c 64
        E 0 9e 35 64
        E 717 8e 35 64
        E 0 9e 35 64
        E 239 80 45 64
        E 0 81 41 64
        E 1 82 3c 64
        E 1 83 35 64
        E 0 88 51 64
        E 1 8f 4d 64
        E 0 8a 3c 64
        E 0 8e 35 64
        E 0 90 45 64
        E 1 91 41 64
        E 0 92 3e 64
        E 0 93 2f 64
        E 0 98 51 64
        E 0 9f 4d 64
        E 0 9a 3e 64
        E 0 9e 2f 64
        E 718 88 51 64
        E 0 8f 4d 64
        E 1 8e 2f 64
        E 0 98 4f 64
        E 1 9f 4c 64
        E 0 9e 2f 64
        E 235 81 41 64
        E 0 83 2f 64
        E 1 88 4f 64
        E 0 8f 4c 64
        E 0 8e 2f 64
        E 1 91 41 64
        E 0 93 2f 64
        E 0 98 4d 64
        E 1 9f 4a 64
        E 0 9e 2f 64
        E 719 88 4d 64
        E 0 8f 4a 64
        E 0 8e 2f 64
        E 1 98 4f 64
        E 0 9f 4c 64
        E 0 9e 2f 64
        E 242 80 45 64
        E 0 82 3e 64
        E 1 88 4f 64
        E 0 8f 4c 64
        E 0 8e 2f 64
        E 0 90 45 64
        E 0 92 3e 64
        E 1 98 51 64
        E 0 9f 4d 64
        E 0 9e 2f 64
        E 716 8e 2f 64
        E 0 9e 2f 64
        E 240 80 45 64
        E 0 81 41 64
        E 0 82 3e 64
        E 0 83 2f 64
        E 1 88 51 64
        E 0 8f 4d 64
        E 0 8a 3e 64
        E 0 8e 2f 64
        E 1 90 45 64
        E 1 91 41 64
        E 0 92 3c 64
        E 0 93 30 64
        E 1 98 51 64
        E 0 9f 4d 64
        E 1 9a 3c 64
        E 0 9e 30 64
        E 714 88 51 64
        E 0 8f 4d 64
        E 0 8e 30 64
        E 0 98 4f 64
        E 1 9f 4c 64
        E 0 9e 30 64
        E 241 88 4f 64
        E 1 8f 4c 64
        E 0 8e 30 64
        E 0 98 51 64
        E 0 9f 4d 64
        E 0 9e 30 64
        E 718 88 51 64
        E 0 8f 4d 64
        E 1 8e 30 64
        E 0 98 4d 64
        E 1 9f 48 64
        E 0 9e 30 64
        E 234 88 4d 64
        E 0 8f 48 64
        E 0 8e 30 64
        E 1 98 4f 64
        E 0 9f 4c 64
        E 0 9e 30 64
        E 721 88 4f 64
        E 0 8f 4c 64
        E 0 8e 30 64
        E 1 98 51 64
        E 0 9f 4d 64
        E 0 9e 30 64
        E 240 80 45 64
        E 0 81 41 64
        E 0 82 3c 64
        E 0 83 30 64
        E 1 88 51 64
        E 0 8f 4d 64
        E 0 8a 3c 64
        E 1 8e 30 64
        E 0 90 43 64
        E 0 91 40 64
        E 0 92 3c 64
        E 0 93 30 64
        E 0 98 4f 64
        E 0 9f 4c 64
        E 0 9a 3c 64
        E 0 9e 30 64
        E 720 88 4f 64
        E 0 8f 4c 64
        E 0 8e 30 64
        E 1 98 4d 64
        E 1 9f 4a 64
        E 1 9e 30 64
        E 236 88 4d 64
        E 0 8f 4a 64
        E 1 8e 30 64
        E 0 98 4f 64
        E 0 9f 4c 64
        E 0 9e 30 64
        E 721 88 4f 64
        E 0 8f 4c 64
        E 0 8e 30 64
        E 0 98 4c 64
        E 1 9f 48 64
        E 0 9e 30 64
        E 237 88 4c 64
        E 0 8f 48 64
        E 0 8e 30 64
        E 1 98 4d 64
        E 0 9f 4a 64
        E 0 9e 30 64
        E 717 88 4d 64
        E 1 8f 4a 64
        E 1 8e 30 64
        E 0 98 4f 64
        E 0 9f 4c 64
        E 1 9e 30 64
        E 241 80 43 64
        E 0 81 40 64
        E 1 82 3c 64
        E 0 83 30 64
        E 0 88 4f 64
        E 0 8f 4c 64
        E 0 8a 3c 64
        E 0 8e 30 64
        E 0 91 45 64
        E 0 92 3c 64
        E 1 93 35 64
        E 1 98 51 64
        E 0 9f 4d 64
        E 1 9a 48 64
        E 0 9e 35 64
        E 712 81 45 64
        E 1 88 51 64
        E 0 8e 35 64
        E 1 91 46 66
        E 0 98 52 66
        E 0 9e 35 64
        E 240 81 46 66
        E 1 82 3c 64
        E 0 83 35 64
        E 0 88 52 66
        E 1 8f 4d 64
        E 0 8a 48 64
        E 1 8e 35 64
        E 0 90 4a 64
        E 0 91 45 64
        E 1 92 39 64
        E 0 93 35 64
        E 1 98 51 64
        E 0 9f 4a 64
        E 0 9a 45 64
        E 0 9e 35 64
        E 715 81 45 64
        E 0 88 51 64
        E 0 8e 35 64
        E 0 91 43 64
        E 1 98 4f 64
        E 0 9e 35 64
        E 238 81 43 64
        E 0 88 4f 64
        E 1 8a 45 64
        E 0 8e 35 64
        E 0 91 45 64
        E 1 98 51 64
        E 0 9a 41 64
        E 0 9e 35 64
        E 478 82 39 64
        E 0 83 35 64
        E 0 92 39 64
        E 1 93 35 64
        E 239 81 45 64
        E 0 88 51 64
        E 1 8e 35 64
        E 0 91 41 64
        E 0 98 4d 64
        E 0 9e 35 64
        E 238 80 4a 64
        E 1 81 41 64
        E 0 82 39 64
        E 1 83 35 64
        E 0 88 4d 64
        E 0 8f 4a 64
        E 0 8a 41 64
        E 0 8e 35 64
        E 0 90 4a 64
        E 1 91 43 64
        E 0 92 3a 66
        E 1 93 34 64
        E 1 98 4f 64
        E 0 9f 4a 64
        E 1 9a 46 66
        E 0 9e 34 64
        E 716 81 43 64
        E 0 88 4f 64
        E 0 8e 34 64
        E 0 91 45 64
        E 1 98 51 64
        E 0 9e 34 64
        E 240 80 4a 64
        E 0 81 45 64
        E 0 82 3a 66
        E 1 88 51 64
        E 0 8f 4a 64
        E 0 8a 46 66
        E 1 8e 34 64
        E 0 90 48 64
        E 1 91 43 64
        E 0 92 37 64
        E 1 98 4f 64
        E 0 9f 48 64
        E 0 9a 43 64
        E 0 9e 34 64
        E 713 81 43 64
        E 0 88 4f 64
        E 0 8e 34 64
        E 0 91 41 64
        E 0 98 4d 64
        E 0 9e 34 64
        E 242 81 41 64
        E 0 83 34 64
        E 0 88 4d 64
        E 0 8a 43 64
        E 1 8e 34 64
        E 0 91 43 64
        E 0 93 34 64
        E 1 98 4f 64
        E 0 9a 40 64
        E 0 9e 34 64
        E 717 81 43 64
        E 0 88 4f 64
        E 0 8e 34 64
        E 0 91 40 64
        E 0 98 4c 64
        E 0 9e 34 64
        E 242 80 48 64
        E 0 81 40 64
        E 1 82 37 64
        E 0 83 34 64
        E 1 88 4c 64
        E 0 8f 48 64
        E 1 8a 40 64
        E 1 8e 34 64
        E 0 90 48 64
        E 1 91 41 64
        E 0 92 39 64
        E 1 93 32 64
        E 0 98 4d 64
        E 0 9f 48 64
        E 0 9a 45 64
        E 1 9e 32 64
        E 714 81 41 64
        E 0 88 4d 64
        E 0 8e 32 64
        E 0 91 43 64
        E 1 98 4f 64
        E 0 9e 32 64
        E 238 80 48 64
        E 0 81 43 64
        E 1 82 39 64
        E 0 83 32 64
        E 1 88 4f 64
        E 0 8f 48 64
        E 1 8a 45 64
        E 0 8e 32 64
        E 0 90 46 66
        E 0 91 41 64
        E 1 92 35 64
        E 0 93 32 64
        E 0 98 4d 64
        E 0 9f 46 66
        E 0 9a 41 64
        E 0 9e 32 64
        E 715 81 41 64
        E 0 88 4d 64
        E 0 8e 32 64
        E 0 91 40 64
        E 0 98 4c 64
        E 0 9e 32 64
        E 241 81 40 64
        E 0 88 4c 64
        E 1 8a 41 64
        E 0 8e 32 64
        E 0 91 41 64
        E 1 98 4d 64
        E 0 9a 3e 64
        E 0 9e 32 64
        E 715 81 41 64
        E 1 88 4d 64
        E 0 8e 32 64
        E 1 91 3e 64
        E 0 98 4a 64
        E 1 9e 32 64
        E 237 80 46 66
        E 0 81 3e 64
        E 1 82 35 64
        E 0 83 32 64
        E 0 88 4a 64
        E 1 8f 46 66
        E 0 8a 3e 64
        E 0 8e 32 64
        E 0 90 46 66
        E 1 91 40 64
        E 0 92 37 64
        E 1 93 30 64
        E 0 98 4c 64
        E 1 9f 46 66
        E 0 9a 43 64
        E 0 9e 30 64
        E 717 88 4c 64
        E 0 8e 30 64
        E 0 98 4d 64
        E 1 9e 30 64
        E 235 82 37 64
        E 1 88 4d 64
        E 0 8a 43 64
        E 1 8e 30 64
        E 0 92 40 64
        E 0 98 4f 64
        E 1 9a 40 64
        E 0 9e 30 64
        E 480 83 30 64
        E 0 93 30 64
        E 240 88 4f 64
        E 0 8e 30 64
        E 1 98 4c 64
        E 0 9e 30 64
        E 239 80 46 66
        E 1 81 40 64
        E 0 82 40 64
        E 0 83 30 64
        E 1 88 4c 64
        E 0 8f 46 66
        E 1 8a 40 64
        E 0 8e 30 64
        E 1 90 45 64
        E 0 91 41 64
        E 0 92 3c 64
        E 0 93 35 64
        E 0 98 4d 64
        E 0 9f 45 64
        E 0 9a 3c 64
        E 0 9e 35 64
        E 719 8e 35 64
        E 0 9e 35 64
        E 240 80 45 64
        E 0 81 41 64
        E 0 82 3c 64
        E 1 83 35 64
        E 0 88 4d 64
        E 1 8f 45 64
        E 0 8a 3c 64
        E 0 8e 35 64
        E 0 90 45 64
        E 1 91 41 64
        E 0 92 3e 64
        E 1 93 2e 66
        E 0 98 4d 64
        E 1 9f 45 64
        E 0 9a 3e 64
        E 0 9e 2e 66
        E 712 82 3e 64
        E 0 83 2e 66
        E 1 88 4d 64
        E 0 8e 2e 66
        E 0 92 3e 64
        E 0 93 2e 66
        E 1 98 4f 64
        E 0 9e 2e 66
        E 237 80 45 64
        E 0 81 41 64
        E 1 82 3e 64
        E 1 83 2e 66
        E 0 88 4f 64
        E 0 8f 45 64
        E 0 8a 3e 64
        E 1 8e 2e 66
        E 0 90 43 64
        E 0 91 40 64
        E 0 92 37 64
        E 0 93 30 64
        E 1 98 4c 64
        E 0 9f 43 64
        E 0 9a 40 64
        E 0 9e 30 64
        E 716 88 4c 64
        E 0 8f 43 64
        E 0 8e 30 64
        E 1 98 4d 64
        E 0 9f 45 64
        E 0 9e 30 64
        E 240 82 37 64
        E 0 88 4d 64
        E 1 8f 45 64
        E 1 8a 40 64
        E 0 8e 30 64
        E 1 92 3c 64
        E 0 98 4f 64
        E 1 9f 46 66
        E 0 9a 3c 64
        E 0 9e 30 64
        E 717 88 4f 64
        E 0 8f 46 66
        E 0 8e 30 64
        E 0 98 4c 64
        E 1 9f 43 64
        E 0 9e 30 64
        E 242 80 43 64
        E 0 81 40 64
        E 0 82 3c 64
        E 1 83 30 64
        E 0 88 4c 64
        E 1 8f 43 64
        E 0 8a 3c 64
        E 1 8e 30 64
        E 0 90 45 64
        E 0 91 41 64
        E 0 92 3c 64
        E 1 93 35 64
        E 0 98 4d 64
        E 0 9f 45 64
        E 0 9a 3c 64
        E 0 9e 29 64
        E 712 8e 29 64
        E 0 9e 29 64
        E 243 88 4d 64
        E 0 8f 45 64
        E 0 8e 29 64
        E 1 98 51 64
        E 0 9f 4d 64
        E 0 9e 29 64
        E 716 88 51 64
        E 0 8f 4d 64
        E 0 8e 29 64
        E 0 98 52 66
        E 1 9f 4f 64
        E 0 9e 29 64
        E 238 88 52 66
        E 0 8f 4f 64
        E 1 8e 29 64
        E 0 98 54 64
        E 0 9f 51 64
        E 1 9e 29 64
        E 722 88 54 64
        E 0 8f 51 64
        E 0 8e 29 64
        E 0 98 52 66
        E 1 9f 4f 64
        E 0 9e 29 64
        E 235 80 45 64
        E 1 81 41 64
        E 0 82 3c 64
        E 1 83 35 64
        E 1 88 52 66
        E 0 8f 4f 64
        E 1 8a 3c 64
        E 0 8e 29 64
        E 1 91 45 64
        E 1 92 3c 64
        E 0 93 35 64
        E 0 98 51 64
        E 0 9f 4d 64
        E 0 9a 48 64
        E 0 9e 35 64
        E 714 81 45 64
        E 0 88 51 64
        E 0 8e 35 64
        E 1 91 46 66
        E 0 98 52 66
        E 1 9e 35 64
        E 241 81 46 66
        E 0 82 3c 64
        E 1 83 35 64
        E 0 88 52 66
        E 1 8f 4d 64
        E 0 8a 48 64
        E 1 8e 35 64
        E 0 90 4a 64
        E 0 91 45 64
        E 1 92 39 64
        E 0 93 35 64
        E 0 98 51 64
        E 1 9f 4a 64
        E 0 9a 45 64
        E 0 9e 35 64
        E 712 81 45 64
        E 0 88 51 64
        E 0 8e 35 64
        E 0 91 43 64
        E 1 98 4f 64
        E 0 9e 35 64
        E 241 81 43 64
        E 1 88 4f 64
        E 0 8a 45 64
        E 1 8e 35 64
        E 0 91 45 64
        E 0 98 51 64
        E 1 9a 41 64
        E 0 9e 35 64
        E 476 82 39 64
        E 0 83 35 64
        E 0 92 39 64
        E 1 93 35 64
        E 239 81 45 64
        E 0 88 51 64
        E 1 8e 35 64
        E 0 91 41 64
        E 1 98 4d 64
        E 0 9e 35 64
        E 240 80 4a 64
        E 1 81 41 64
        E 0 82 39 64
        E 0 83 35 64
        E 1 88 4d 64
        E 0 8f 4a 64
        E 1 8a 41 64
        E 0 8e 35 64
        E 0 90 4a 64
        E 0 91 43 64
        E 1 92 3a 66
        E 0 93 34 64
        E 0 98 4f 64
        E 0 9f 4a 64
        E 0 9a 46 66
        E 0 9e 34 64
        E 713 81 43 64
        E 0 88 4f 64
        E 0 8e 34 64
        E 0 91 45 64
        E 0 98 51 64
        E 1 9e 34 64
        E 239 80 4a 64
        E 0 81 45 64
        E 0 82 3a 66
        E 0 83 34 64
        E 0 88 51 64
        E 1 8f 4a 64
        E 0 8a 46 66
        E 0 8e 34 64
        E 1 90 48 64
        E 0 91 43 64
        E 1 92 37 64
        E 0 93 34 64
        E 1 98 4f 64
        E 0 9f 48 64
        E 0 9a 43 64
        E 0 9e 34 64
        E 717 81 43 64
        E 1 88 4f 64
        E 0 8e 34 64
        E 1 91 41 64
        E 0 98 4d 64
        E 0 9e 34 64
        E 238 81 41 64
        E 0 88 4d 64
        E 0 8a 43 64
        E 1 8e 34 64
        E 0 91 43 64
        E 0 98 4f 64
        E 1 9a 40 64
        E 0 9e 34 64
        E 718 81 43 64
        E 0 88 4f 64
        E 1 8e 34 64
        E 0 91 40 64
        E 0 98 4c 64
        E 1 9e 34 64
        E 238 80 48 64
        E 0 81 40 64
        E 0 82 37 64
        E 1 83 34 64
        E 0 88 4c 64
        E 1 8f 48 64
        E 0 8a 40 64
        E 0 8e 34 64
        E 0 90 48 64
        E 1 91 41 64
        E 0 92 39 64
        E 1 93 32 64
        E 0 98 4d 64
        E 1 9f 48 64
        E 0 9a 45 64
        E 0 9e 32 64
        E 716 81 41 64
        E 0 88 4d 64
        E 1 8e 32 64
        E 0 91 43 64
        E 0 98 4f 64
        E 0 9e 32 64
        E 238 80 48 64
        E 0 81 43 64
        E 1 82 39 64
        E 1 83 32 64
        E 0 88 4f 64
        E 0 8f 48 64
        E 1 8a 45 64
        E 0 8e 32 64
        E 0 90 46 66
        E 0 91 41 64
        E 0 92 35 64
        E 0 93 32 64
        E 0 98 4d 64
        E 1 9f 46 66
        E 0 9a 41 64
        E 0 9e 32 64
        E 717 81 41 64
        E 1 88 4d 64
        E 0 8e 32 64
        E 0 91 40 64
        E 0 98 4c 64
        E 0 9e 32 64
        E 238 81 40 64
        E 0 88 4c 64
        E 0 8a 41 64
        E 0 8e 32 64
        E 1 91 41 64
        E 0 98 4d 64
        E 1 9a 3e 64
        E 1 9e 32 64
        E 718 81 41 64
        E 0 88 4d 64
        E 1 8e 32 64
        E 0 91 3e 64
        E 1 98 4a 64
        E 0 9e 32 64
        E 238 80 46 66
        E 0 81 3e 64
        E 0 82 35 64
        E 1 83 32 64
        E 0 88 4a 64
        E 0 8f 46 66
        E 0 8a 3e 64
        E 0 8e 32 64
        E 1 90 46 66
        E 0 91 40 64
        E 0 92 37 64
        E 1 93 30 64
        E 0 98 4c 64
        E 1 9f 46 66
        E 0 9a 43 64
        E 0 9e 30 64
        E 716 88 4c 64
        E 1 8e 30 64
        E 0 98 4d 64
        E 0 9e 30 64
        E 237 82 37 64
        E 1 88 4d 64
        E 0 8a 43 64
        E 0 8e 30 64
        E 1 92 40 64
        E 0 98 4f 64
        E 1 9a 40 64
        E 0 9e 30 64
        E 481 83 30 64
        E 0 93 30 64
        E 236 88 4f 64
        E 0 8e 30 64
        E 1 98 4c 64
        E 0 9e 30 64
        E 239 80 46 66
        E 0 81 40 64
        E 1 82 40 64
        E 0 83 30 64
        E 0 88 4c 64
        E 1 8f 46 66
        E 0 8a 40 64
        E 0 8e 30 64
        E 1 90 45 64
        E 0 91 41 64
        E 0 92 3c 64
        E 0 93 35 64
        E 0 98 4d 64
        E 0 9f 45 64
        E 0 9a 3c 64
        E 0 9e 35 64
        E 719 8e 35 64
        E 0 9e 35 64
        E 239 80 45 64
        E 0 81 41 64
        E 1 82 3c 64
        E 1 83 35 64
        E 0 88 4d 64
        E 0 8f 45 64
        E 1 8a 3c 64
        E 0 8e 35 64
        E 1 90 45 64
        E 0 91 41 64
        E 0 92 3e 64
        E 1 93 2e 66
        E 0 98 4d 64
        E 0 9f 45 64
        E 0 9a 3e 64
        E 0 9e 2e 66
        E 717 82 3e 64
        E 1 83 2e 66
        E 0 88 4d 64
        E 1 8e 2e 66
        E 0 92 3e 64
        E 0 93 2e 66
        E 1 98 4f 64
        E 0 9e 2e 66
        E 237 80 45 64
        E 0 81 41 64
        E 0 82 3e 64
        E 1 83 2e 66
        E 0 88 4f 64
        E 0 8f 45 64
        E 1 8a 3e 64
        E 1 8e 2e 66
        E 0 90 43 64
        E 0 91 40 64
        E 0 92 37 64
        E 1 93 30 64
        E 0 98 4c 64
        E 0 9f 43 64
        E 0 9a 40 64
        E 0 9e 30 64
        E 714 88 4c 64
        E 0 8f 43 64
        E 0 8e 30 64
        E 0 98 4d 64
        E 1 9f 45 64
        E 0 9e 30 64
        E 238 82 37 64
        E 0 88 4d 64
        E 1 8f 45 64
        E 1 8a 40 64
        E 0 8e 30 64
        E 1 92 3c 64
        E 1 98 4f 64
        E 0 9f 46 66
        E 1 9a 3c 64
        E 0 9e 24 64
        E 719 88 4f 64
        E 0 8f 46 66
        E 0 8e 24 64
        E 0 98 4c 64
        E 0 9f 43 64
        E 1 9e 24 64
        E 234 80 43 64
        E 0 81 40 64
        E 1 82 3c 64
        E 1 83 30 64
        E 0 88 4c 64
        E 0 8f 43 64
        E 0 8a 3c 64
        E 2 8e 24 64
        E 0 90 45 64
        E 1 91 41 64
        E 0 92 3c 64
        E 1 93 35 64
        E 0 98 4d 64
        E 0 9f 45 64
        E 1 9a 3c 64
        E 0 9e 29 64
        E 716 8e 29 64
        E 1 9e 35 64
        E 239 88 4d 64
        E 0 8f 45 64
        E 1 8a 3c 64
        E 0 8e 35 64
        E 0 98 41 64
        E 0 9a 39 64
        E 0 9e 35 64
        E 721 88 41 64
        E 0 8a 39 64
        E 0 8e 35 64
        E 0 98 43 64
        E 0 9a 39 64
        E 0 9e 35 64
        E 238 88 43 64
        E 0 8a 39 64
        E 1 8e 35 64
        E 0 98 45 64
        E 1 9a 39 64
        E 0 9e 35 64
        E 715 88 45 64
        E 0 8a 39 64
        E 0 8e 35 64
        E 1 98 46 66
        E 0 9a 39 64
        E 1 9e 35 64
        E 242 80 45 64
        E 0 81 41 64
        E 1 82 3c 64
        E 0 83 35 64
        E 1 88 46 66
        E 0 8a 39 64
        E 0 8e 35 64
        E 0 98 48 64
        E 1 9a 37 64
        E 0 9e 34 64
        E 717 88 48 64
        E 0 8a 37 64
        E 1 8e 34 64
        E 0 98 46 66
        E 1 9a 37 64
        E 0 9e 34 64
        E 236 88 46 66
        E 1 8a 37 64
        E 0 8e 34 64
        E 1 98 48 64
        E 0 9f 4f 64
        E 0 9a 37 64
        E 0 9e 34 64
        E 717 88 48 64
        E 0 8a 37 64
        E 0 8e 34 64
        E 0 98 4a 64
        E 0 9a 37 64
        E 0 9e 34 64
        E 242 88 4a 64
        E 1 8f 4f 64
        E 1 8a 37 64
        E 0 8e 34 64
        E 0 98 4c 64
        E 1 9f 54 64
        E 0 9a 43 64
        E 0 9e 34 64
        E 715 88 4c 64
        E 0 8a 43 64
        E 1 8e 34 64
        E 0 98 48 64
        E 0 9a 43 64
        E 1 9e 34 64
        E 239 88 48 64
        E 1 8f 54 64
        E 0 8a 43 64
        E 0 8e 34 64
        E 0 98 4d 64
        E 0 9f 54 64
        E 1 9a 45 64
        E 0 9e 32 64
        E 717 88 4d 64
        E 1 8a 45 64
        E 0 8e 32 64
        E 0 98 4c 64
        E 0 9a 45 64
        E 0 9e 32 64
        E 240 88 4c 64
        E 1 8f 54 64
        E 1 8a 45 64
        E 0 8e 32 64
        E 0 98 4d 64
        E 1 9f 52 66
        E 0 9a 41 64
        E 0 9e 32 64
        E 718 88 4d 64
        E 0 8a 41 64
        E 0 8e 32 64
        E 1 98 4f 64
        E 1 9a 41 64
        E 0 9e 32 64
        E 236 88 4f 64
        E 0 8a 41 64
        E 1 8e 32 64
        E 0 98 51 64
        E 1 9a 3e 64
        E 0 9e 32 64
        E 719 88 51 64
        E 1 8a 3e 64
        E 0 8e 32 64
        E 0 98 52 66
        E 1 9a 3e 64
        E 0 9e 32 64
        E 241 88 52 66
        E 0 8f 52 66
        E 0 8a 3e 64
        E 0 8e 32 64
        E 1 98 54 64
        E 0 9a 40 64
        E 1 9e 30 64
        E 715 8a 40 64
        E 0 8e 30 64
        E 0 9a 40 64
        E 1 9e 30 64
        E 242 88 54 64
        E 1 8a 40 64
        E 0 8e 30 64
        E 0 98 48 64
        E 1 9f 4c 64
        E 0 9a 45 64
        E 0 9e 30 64
        E 715 8a 45 64
        E 0 8e 30 64
        E 0 9a 45 64
        E 0 9e 30 64
        E 239 88 48 64
        E 0 8f 4c 64
        E 1 8a 45 64
        E 0 8e 30 64
        E 1 98 48 64
        E 0 9f 51 64
        E 0 9a 40 64
        E 1 9e 30 64
        E 722 8a 40 64
        E 0 8e 30 64
        E 1 9a 40 64
        E 0 9e 30 64
        E 234 88 48 64
        E 0 8f 51 64
        E 1 8a 40 64
        E 0 8e 30 64
        E 1 98 4a 64
        E 0 9f 51 64
        E 1 9a 41 64
        E 0 9e 2e 66
        E 719 8a 41 64
        E 0 8e 2e 66
        E 0 9a 41 64
        E 1 9e 2e 66
        E 238 88 4a 64
        E 0 8f 51 64
        E 0 8a 41 64
        E 0 8e 2e 66
        E 1 98 46 66
        E 0 9f 4f 64
        E 0 9a 3e 64
        E 1 9e 2e 66
        E 718 88 46 66
        E 1 8a 3e 64
        E 0 8e 2e 66
        E 0 98 48 64
        E 0 9a 3e 64
        E 0 9e 2e 66
        E 238 88 48 64
        E 0 8a 3e 64
        E 0 8e 2e 66
        E 1 98 4a 64
        E 1 9a 3a 66
        E 0 9e 2e 66
        E 718 88 4a 64
        E 0 8a 3a 66
        E 0 8e 2e 66
        E 0 98 4c 64
        E 1 9a 3a 66
        E 0 9e 2e 66
        E 240 88 4c 64
        E 1 8f 4f 64
        E 0 8a 3a 66
        E 1 8e 2e 66
        E 0 98 4d 64
        E 0 9a 3c 64
        E 0 9e 2d 64
        E 719 88 4d 64
        E 0 8a 3c 64
        E 0 8e 2d 64
        E 0 98 4c 64
        E 0 9a 3c 64
        E 0 9e 2d 64
        E 241 88 4c 64
        E 0 8a 3c 64
        E 1 8e 2d 64
        E 0 98 4d 64
        E 1 9f 48 64
        E 0 9a 3c 64
        E 1 9e 2d 64
        E 717 88 4d 64
        E 1 8a 3c 64
        E 0 8e 2d 64
        E 0 98 4f 64
        E 0 9a 3c 64
        E 0 9e 2d 64
        E 240 88 4f 64
        E 0 8f 48 64
        E 0 8a 3c 64
        E 0 8e 2d 64
        E 1 98 51 64
        E 0 9f 4d 64
        E 0 9a 3c 64
        E 0 9e 2d 64
        E 714 88 51 64
        E 1 8a 3c 64
        E 0 8e 2d 64
        E 0 98 4d 64
        E 1 9a 3c 64
        E 0 9e 2d 64
        E 241 88 4d 64
        E 1 8f 4d 64
        E 0 8a 3c 64
        E 0 8e 2d 64
        E 1 98 52 66
        E 0 9f 4d 64
        E 1 9a 3e 64
        E 0 9e 2b 64
        E 717 88 52 66
        E 0 8a 3e 64
        E 0 8e 2b 64
        E 1 98 51 64
        E 0 9a 3e 64
        E 1 9e 2b 64
        E 239 88 51 64
        E 1 8f 4d 64
        E 0 8a 3e 64
        E 1 8e 2b 64
        E 0 98 52 66
        E 1 9f 4c 64
        E 0 9a 43 64
        E 0 9e 2b 64
        E 717 88 52 66
        E 0 8a 43 64
        E 1 8e 2b 64
        E 0 98 4f 64
        E 0 9a 43 64
        E 0 9e 2b 64
        E 237 88 4f 64
        E 0 8a 43 64
        E 1 8e 2b 64
        E 0 98 51 64
        E 1 9a 3a 66
        E 0 9e 2b 64
        E 718 88 51 64
        E 1 8a 3a 66
        E 0 8e 2b 64
        E 0 98 52 66
        E 1 9a 3a 66
        E 0 9e 2b 64
        E 239 88 52 66
        E 0 8f 4c 64
        E 0 8a 3a 66
        E 1 8e 2b 64
        E 0 98 51 64
        E 0 9f 4d 64
        E 0 9a 3c 64
        E 1 9e 29 64
        E 717 88 51 64
        E 0 8f 4d 64
        E 0 8a 3c 64
        E 1 8e 29 64
        E 0 98 4d 64
        E 1 9f 4a 64
        E 0 9a 3e 64
        E 0 9e 2e 66
        E 237 88 4d 64
        E 1 8f 4a 64
        E 0 8a 3e 64
        E 0 8e 2e 66
        E 1 98 4c 64
        E 0 9f 43 64
        E 0 9a 3c 64
        E 0 9e 30 64
        E 958 8e 30 64
        E 0 9e 24 64
        E 482 88 4c 64
        E 0 8f 43 64
        E 0 8a 3c 64
        E 1 98 4d 64
        E 0 9f 48 64
        E 0 9a 3c 64
        E 479 88 4d 64
        E 0 8f 48 64
        E 1 8a 3c 64
        E 0 8e 24 64
        E 1 98 4d 64
        E 0 9f 45 64
        E 1 9a 3c 64
        E 0 9e 29 64
        E 2878 88 4d 64
        E 1 8f 45 64
        E 0 8a 3c 64
        E 0 8e 29 64
        E 3838 9e 3e 64
        E 962 8e 3e 64
        E 0 9e 39 64
        E 959 8e 39 64
        E 1 9e 35 64
        E 957 8e 35 64
        E 0 9e 34 64
        E 480 8e 34 64
        E 0 9e 32 64
        E 482 8e 32 64
        E 0 9e 31 64
        E 479 8e 31 64
        E 0 9e 2f 64
        E 479 8e 2f 64
        E 0 9e 2d 64
        E 962 8e 2d 64
        E 958 9e 39 64
        E 959 8e 39 64
        E 0 9e 3a 66
        E 961 8e 3a 66
        E 0 9e 3e 64
        E 962 8e 3e 64
        E 0 9e 34 64
        E 958 8e 34 64
        E 1 9e 3c 64
        E 959 8e 3c 64
        E 0 9e 39 64
        E 960 8e 39 64
        E 1 9e 3c 64
        E 960 8e 3c 64
        E 0 9e 32 64
        E 959 8e 32 64
        E 1 9e 3a 66
        E 962 8e 3a 66
        E 0 9e 37 64
        E 959 8e 37 64
        E 0 9e 3a 66
        E 958 8e 3a 66
        E 0 9e 31 64
        E 963 8e 31 64
        E 1 9e 39 64
        E 958 8e 39 64
        E 0 9e 35 64
        E 959 8e 35 64
        E 0 9e 3e 64
        E 960 8e 3e 64
        E 960 9e 36 64
        E 960 8e 36 64
        E 0 9e 37 64
        E 960 8e 37 64
        E 1 9e 40 64
        E 960 8e 40 64
        E 960 9e 38 64
        E 959 8e 38 64
        E 0 9e 39 64
        E 481 8e 39 64
        E 0 9e 37 64
        E 477 8e 37 64
        E 0 9e 35 64
        E 482 8e 35 64
        E 0 9e 34 64
        E 478 8e 34 64
        E 0 9e 32 64
        E 482 8e 32 64
        E 0 9e 30 64
        E 482 8e 30 64
        E 1 9e 2e 66
        E 477 8e 2e 66
        E 0 9e 2d 64
        E 480 8e 2d 64
        E 0 9e 2b 64
        E 482 8e 2b 64
        E 1 9e 29 64
        E 474 8e 29 64
        E 0 9e 28 64
        E 483 8e 28 64
        E 0 9e 26 64
        E 481 8e 26 64
        E 0 9e 2d 64
        E 958 8e 2d 64
        E 0 9e 2d 64
        E 959 8e 2d 64
        E 1 9d 45 64
        E 0 9e 26 64
        E 1922 8e 26 64
        E 1917 8d 45 64
        E 1 9d 45 64
        E 1921 8d 45 64
        E 1 9d 43 64
        E 477 8d 43 64
        E 0 9d 41 64
        E 484 8d 41 64
        E 0 9d 40 64
        E 479 8d 40 64
        E 0 9d 3e 64
        E 478 8d 3e 64
        E 0 9d 3d 64
        E 1922 8d 3d 64
        E 0 9d 3e 64
        E 1919 8d 3e 64
        E 0 9e 3e 64
        E 959 8e 3e 64
        E 1 9e 39 64
        E 961 8e 39 64
        E 0 9e 35 64
        E 962 8e 35 64
        E 0 9e 34 64
        E 478 8e 34 64
        E 1 9e 32 64
        E 477 8e 32 64
        E 1 9d 45 64
        E 0 9e 31 64
        E 482 8e 31 64
        E 0 9e 2f 64
        E 480 8e 2f 64
        E 0 9e 2d 64
        E 959 8e 2d 64
        E 960 8d 45 64
        E 0 9d 43 64
        E 0 9e 39 64
        E 960 8d 43 64
        E 0 8e 39 64
        E 0 9d 41 64
        E 1 9e 32 64
        E 958 8d 41 64
        E 0 8e 32 64
        E 1 9d 40 64
        E 0 9e 39 64
        E 959 8d 40 64
        E 1 8e 39 64
        E 0 9d 41 64
        E 1 9e 32 64
        E 960 8d 41 64
        E 0 8e 32 64
        E 0 9d 43 64
        E 0 9e 39 64
        E 479 8d 43 64
        E 0 9d 40 64
        E 478 8d 40 64
        E 0 8e 39 64
        E 0 9d 41 64
        E 1 9e 38 64
        E 3839 8d 41 64
        E 0 8e 38 64
        E 1 9d 40 64
        E 0 9e 39 64
        E 962 8e 39 64
        E 0 9e 34 64
        E 958 8d 40 64
        E 1 8e 34 64
        E 0 9e 31 64
        E 958 8e 31 64
        E 0 9e 2f 64
        E 481 8e 2f 64
        E 0 9e 2d 64
        E 480 8e 2d 64
        E 0 9d 42 64
        E 1 9e 3e 64
        E 960 8e 3e 64
        E 0 9e 39 64
        E 957 8d 42 64
        E 0 8e 39 64
        E 0 9d 45 64
        E 0 9e 36 64
        E 964 8d 45 64
        E 1 8e 36 64
        E 0 9d 42 64
        E 1 9e 34 64
        E 478 8e 34 64
        E 0 9e 32 64
        E 479 8d 42 64
        E 0 8e 32 64
        E 1 9d 43 64
        E 0 9e 37 64
        E 477 8d 43 64
        E 0 9d 42 64
        E 482 8d 42 64
        E 0 8e 37 64
        E 0 9d 43 64
        E 0 9e 32 64
        E 961 8d 43 64
        E 0 8e 32 64
        E 0 9e 2f 64
        E 959 8e 2f 64
        E 0 9e 2d 64
        E 477 8e 2d 64
        E 0 9e 2b 64
        E 483 8e 2b 64
        E 0 9d 40 64
        E 0 9e 3c 64
        E 960 8e 3c 64
        E 1 9e 37 64
        E 958 8d 40 64
        E 0 8e 37 64
        E 0 9d 43 64
        E 0 9e 34 64
        E 960 8d 43 64
        E 0 8e 34 64
        E 0 9d 40 64
        E 1 9e 32 64
        E 479 8e 32 64
        E 0 9e 30 64
        E 479 8d 40 64
        E 0 8e 30 64
        E 1 9d 41 64
        E 0 9e 35 64
        E 481 8d 41 64
        E 0 9d 40 64
        E 480 8d 40 64
        E 1 8e 35 64
        E 0 9d 41 64
        E 1 9e 30 64
        E 957 8d 41 64
        E 0 8e 30 64
        E 1 9e 2d 64
        E 958 8e 2d 64
        E 0 9e 2b 64
        E 479 8e 2b 64
        E 0 9e 29 64
        E 482 8e 29 64
        E 0 9d 46 66
        E 0 9e 3e 64
        E 959 8e 3e 64
        E 0 9e 35 64
        E 959 8e 35 64
        E 0 9e 32 64
        E 960 8d 46 66
        E 0 8e 32 64
        E 0 9d 45 64
        E 1 9e 34 64
        E 481 8e 34 64
        E 0 9e 35 64
        E 479 8d 45 64
        E 0 8e 35 64
        E 1 9d 44 64
        E 1 9e 34 64
        E 959 8d 44 64
        E 0 8e 34 64
        E 0 9d 40 64
        E 1 9e 40 64
        E 957 8d 40 64
        E 0 8e 40 64
        E 1 9d 45 64
        E 0 9e 3c 64
        E 959 8e 3c 64
        E 0 9e 3b 64
        E 481 8e 3b 64
        E 1 9e 39 64
        E 479 8d 45 64
        E 0 8e 39 64
        E 1 9d 45 64
        E 0 9e 3e 64
        E 958 8d 45 64
        E 0 8e 3e 64
        E 0 9d 47 64
        E 1 9e 3b 64
        E 482 8d 47 64
        E 0 9d 42 64
        E 479 8d 42 64
        E 0 8e 3b 64
        E 1 9d 44 64
        E 0 9e 40 64
        E 956 8e 40 64
        E 0 9e 34 64
        E 962 8d 44 64
        E 0 8e 34 64
        E 1 9d 45 64
        E 0 9e 2d 64
        E 1920 8d 45 64
        E 0 8e 2d 64
        E 959 90 48 64
        E 1 91 42 64
        E 0 92 39 64
        E 0 93 32 64
        E 1 98 4e 64
        E 0 9f 48 64
        E 0 9a 45 64
        E 1 9e 32 64
        E 960 80 48 64
        E 0 81 42 64
        E 1 82 39 64
        E 0 83 32 64
        E 1 88 4e 64
        E 0 8f 48 64
        E 1 8a 45 64
        E 0 8e 32 64
        E 1 90 48 64
        E 0 91 42 64
        E 1 92 39 64
        E 1 93 32 64
        E 0 98 4e 64
        E 0 9f 48 64
        E 0 9a 45 64
        E 0 9e 32 64
        E 1912 80 48 64
        E 0 81 42 64
        E 1 82 39 64
        E 0 83 32 64
        E 0 88 4e 64
        E 0 8f 48 64
        E 0 8a 45 64
        E 1 8e 32 64
        E 0 90 48 64
        E 0 91 42 64
        E 1 92 39 64
        E 0 93 32 64
        E 0 98 4e 64
        E 0 9f 48 64
        E 0 9a 45 64
        E 0 9e 32 64
        E 958 80 48 64
        E 0 81 42 64
        E 1 82 39 64
        E 0 83 32 64
        E 0 88 4e 64
        E 1 8f 48 64
        E 0 8a 45 64
        E 1 8e 32 64
        E 0 90 48 64
        E 0 91 42 64
        E 0 92 39 64
        E 0 93 32 64
        E 1 98 4e 64
        E 0 9f 48 64
        E 0 9a 45 64
        E 0 9e 32 64
        E 955 80 48 64
        E 1 81 42 64
        E 0 82 39 64
        E 0 83 32 64
        E 0 88 4e 64
        E 0 8f 48 64
        E 0 8a 45 64
        E 0 8e 32 64
        E 0 90 48 64
        E 0 91 3e 64
        E 0 92 39 64
        E 1 93 37 64
        E 0 98 4a 64
        E 1 9f 48 64
        E 0 9a 45 64
        E 0 9e 37 64
        E 1916 80 48 64
        E 0 81 3e 64
        E 0 82 39 64
        E 0 83 37 64
        E 1 88 4a 64
        E 0 8f 48 64
        E 0 8a 45 64
        E 1 8e 37 64
        E 0 90 46 66
        E 0 91 3e 64
        E 0 92 37 64
        E 1 93 2b 64
        E 0 98 4a 64
        E 0 9f 46 66
        E 0 9a 43 64
        E 1 9e 2b 64
        E 1917 80 46 66
        E 0 81 3e 64
        E 1 82 37 64
        E 0 83 2b 64
        E 0 88 4a 64
        E 1 8f 46 66
        E 0 8a 43 64
        E 0 8e 2b 64
        E 1 9d 43 64
        E 0 9e 2e 66
        E 1916 8d 43 64
        E 0 8e 2e 66
        E 0 9d 46 66
        E 481 8d 46 66
        E 0 9d 45 64
        E 480 8d 45 64
        E 0 9d 43 64
        E 479 8d 43 64
        E 0 9d 41 64
        E 481 8d 41 64
        E 1 9d 40 64
        E 0 9e 3c 64
        E 959 8d 40 64
        E 1 8e 3c 64
        E 0 9d 3e 64
        E 0 9e 37 64
        E 959 8d 3e 64
        E 1 8e 37 64
        E 0 9d 3c 64
        E 0 9e 34 64
        E 959 8d 3c 64
        E 1 8e 34 64
        E 0 9d 46 66
        E 0 9e 32 64
        E 476 8e 32 64
        E 0 9e 30 64
        E 484 8d 46 66
        E 0 8e 30 64
        E 1 9d 45 64
        E 0 9e 35 64
        E 479 8d 45 64
        E 0 9d 43 64
        E 478 8d 43 64
        E 0 9d 45 64
        E 963 8d 45 64
        E 0 8e 35 64
        E 960 90 48 64
        E 0 91 41 64
        E 1 92 3c 64
        E 0 93 39 64
        E 0 98 4d 64
        E 0 9f 48 64
        E 1 9a 45 64
        E 0 9e 39 64
        E 953 80 48 64
        E 0 81 41 64
        E 1 82 3c 64
        E 0 83 39 64
        E 0 88 4d 64
        E 0 8f 48 64
        E 1 8a 45 64
        E 1 8e 39 64
        E 0 90 4b 66
        E 0 91 41 64
        E 1 92 3c 64
        E 0 93 39 64
        E 1 98 4d 64
        E 0 9f 4b 66
        E 0 9a 48 64
        E 0 9e 39 64
        E 959 8e 39 64
        E 1 9e 35 64
        E 957 80 4b 66
        E 1 81 41 64
        E 0 82 3c 64
        E 1 83 39 64
        E 0 88 4d 64
        E 1 8f 4b 66
        E 0 8a 48 64
        E 0 8e 35 64
        E 1 90 4b 66
        E 0 91 41 64
        E 1 92 3c 64
        E 0 93 39 64
        E 0 98 4d 64
        E 0 9f 4b 66
        E 0 9a 48 64
        E 1 9e 30 64
        E 957 80 4b 66
        E 0 81 41 64
        E 1 82 3c 64
        E 1 83 39 64
        E 0 88 4d 64
        E 1 8f 4b 66
        E 0 8a 48 64
        E 0 8e 30 64
        E 1 90 4b 66
        E 0 91 41 64
        E 0 92 3c 64
        E 0 93 39 64
        E 0 98 4d 64
        E 0 9f 4b 66
        E 0 9a 48 64
        E 0 9e 2d 64
        E 954 80 4b 66
        E 0 81 41 64
        E 1 82 3c 64
        E 0 83 39 64
        E 0 88 4d 64
        E 1 8f 4b 66
        E 0 8a 48 64
        E 1 8e 2d 64
        E 0 90 4a 64
        E 0 91 41 64
        E 0 92 3a 66
        E 0 93 3a 66
        E 1 98 4d 64
        E 0 9f 4a 64
        E 0 9a 46 66
        E 0 9e 3a 66
        E 957 8e 3a 66
        E 0 9e 35 64
        E 958 80 4a 64
        E 1 81 41 64
        E 0 82 3a 66
        E 0 83 3a 66
        E 1 88 4d 64
        E 0 8f 4a 64
        E 0 8a 46 66
        E 1 8e 35 64
        E 0 90 4a 64
        E 0 91 41 64
        E 1 92 3a 66
        E 0 93 2e 66
        E 0 98 4d 64
        E 0 9f 4a 64
        E 0 9a 46 66
        E 0 9e 32 64
        E 959 8e 32 64
        E 0 9e 2e 66
        E 955 80 4a 64
        E 0 81 41 64
        E 0 82 3a 66
        E 1 83 2e 66
        E 1 88 4d 64
        E 0 8f 4a 64
        E 1 8a 46 66
        E 0 8e 2e 66
        E 0 9d 41 64
        E 1 9e 2e 66
        E 1920 8d 41 64
        E 1 8e 2e 66
        E 0 9d 44 66
        E 476 8d 44 66
        E 0 9d 43 64
        E 481 8d 43 64
        E 1 9d 41 64
        E 480 8d 41 64
        E 0 9d 3f 66
        E 479 8d 3f 66
        E 0 9d 3e 64
        E 0 9e 3a 66
        E 963 8d 3e 64
        E 0 8e 3a 66
        E 1 9d 3c 64
        E 0 9e 35 64
        E 955 8d 3c 64
        E 0 8e 35 64
        E 0 9d 3a 66
        E 1 9e 32 64
        E 962 8d 3a 66
        E 0 8e 32 64
        E 0 9d 44 66
        E 0 9e 30 64
        E 481 8e 30 64
        E 0 9e 2e 66
        E 477 8d 44 66
        E 0 8e 2e 66
        E 1 9d 43 64
        E 0 9e 33 66
        E 1439 8d 43 64
        E 0 9d 41 64
        E 481 8d 41 64
        E 0 8e 33 66
        E 1 9d 43 64
        E 959 8d 43 64
        E 0 90 46 66
        E 0 91 3f 66
        E 0 92 3a 66
        E 0 93 37 64
        E 1 98 4b 66
        E 0 9f 46 66
        E 0 9a 43 64
        E 1 9e 37 64
        E 958 80 46 66
        E 0 81 3f 66
        E 1 82 3a 66
        E 0 83 37 64
        E 0 88 4b 66
        E 0 8f 46 66
        E 0 8a 43 64
        E 0 8e 37 64
        E 0 90 49 66
        E 0 91 3f 66
        E 1 92 3a 66
        E 0 93 37 64
        E 0 98 4b 66
        E 0 9f 49 66
        E 0 9a 46 66
        E 0 9e 37 64
        E 957 8e 37 64
        E 0 9e 33 66
        E 961 80 49 66
        E 0 81 3f 66
        E 1 82 3a 66
        E 0 83 37 64
        E 0 88 4b 66
        E 1 8f 49 66
        E 0 8a 46 66
        E 1 8e 33 66
        E 0 90 49 66
        E 1 91 3f 66
        E 0 92 3a 66
        E 0 93 37 64
        E 1 98 4b 66
        E 0 9f 49 66
        E 0 9a 46 66
        E 1 9e 2e 66
        E 952 80 49 66
        E 0 81 3f 66
        E 0 82 3a 66
        E 1 83 37 64
        E 1 88 4b 66
        E 0 8f 49 66
        E 0 8a 46 66
        E 0 8e 2e 66
        E 1 90 49 66
        E 0 91 3f 66
        E 1 92 3a 66
        E 0 93 37 64
        E 1 98 4b 66
        E 0 9f 49 66
        E 0 9a 46 66
        E 1 9e 2b 64
        E 956 80 49 66
        E 0 81 3f 66
        E 0 82 3a 66
        E 0 83 37 64
        E 1 88 4b 66
        E 0 8f 49 66
        E 1 8a 46 66
        E 0 8e 2b 64
        E 1 90 48 64
        E 0 91 3f 66
        E 0 92 38 66
        E 0 93 38 66
        E 0 98 4b 66
        E 0 9f 48 64
        E 0 9a 44 66
        E 0 9e 38 66
        E 956 8e 38 66
        E 0 9e 33 66
        E 962 80 48 64
        E 0 81 3f 66
        E 1 82 38 66
        E 0 83 38 66
        E 1 88 4b 66
        E 0 8f 48 64
        E 0 8a 44 66
        E 1 8e 33 66
        E 0 90 48 64
        E 0 91 3f 66
        E 1 92 38 66
        E 0 93 2c 66
        E 0 98 4b 66
        E 0 9f 48 64
        E 0 9a 44 66
        E 0 9e 30 64
        E 955 8e 30 64
        E 0 9e 2c 66
        E 960 80 48 64
        E 0 81 3f 66
        E 0 82 38 66
        E 1 83 2c 66
        E 1 88 4b 66
        E 0 8f 48 64
        E 0 8a 44 66
        E 1 8e 2c 66
        E 0 9d 41 64
        E 0 9e 35 64
        E 1918 8d 41 64
        E 0 8e 35 64
        E 1 9d 44 66
        E 481 8d 44 66
        E 0 9d 43 64
        E 477 8d 43 64
        E 0 9d 41 64
        E 479 8d 41 64
        E 1 9d 3f 66
        E 481 8d 3f 66
        E 1 9d 3e 64
        E 0 9e 3a 66
        E 957 8e 3a 66
        E 0 9e 35 64
        E 961 8d 3e 64
        E 1 8e 35 64
        E 0 9d 3e 64
        E 0 9e 32 64
        E 958 8e 32 64
        E 0 9e 30 64
        E 483 8e 30 64
        E 0 9e 2f 64
        E 480 8d 3e 64
        E 1 8e 2f 64
        E 0 9d 43 64
        E 0 9e 2f 64
        E 1915 8d 43 64
        E 1 8e 2f 64
        E 0 9d 47 64
        E 481 8d 47 64
        E 0 9d 45 64
        E 477 8d 45 64
        E 1 9d 43 64
        E 480 8d 43 64
        E 0 9d 41 64
        E 481 8d 41 64
        E 0 9d 41 64
        E 0 9e 3c 64
        E 962 8e 3c 64
        E 1 9e 37 64
        E 957 8d 41 64
        E 0 8e 37 64
        E 1 9d 3f 66
        E 0 9e 33 66
        E 959 8e 33 66
        E 0 9e 32 64
        E 480 8e 32 64
        E 0 9e 30 64
        E 481 8d 3f 66
        E 1 8e 30 64
        E 1 9d 44 66
        E 0 9e 3c 64
        E 957 8e 3c 64
        E 0 9e 33 66
        E 963 8e 33 66
        E 0 9e 30 64
        E 960 8d 44 66
        E 0 8e 30 64
        E 0 9d 43 64
        E 1 9e 32 64
        E 476 8e 32 64
        E 0 9e 33 66
        E 481 8d 43 64
        E 1 8e 33 66
        E 0 9d 42 64
        E 1 9e 32 64
        E 957 8d 42 64
        E 1 8e 32 64
        E 0 9d 3e 64
        E 1 9e 3e 64
        E 959 8d 3e 64
        E 0 8e 3e 64
        E 0 9d 43 64
        E 0 9e 3a 66
        E 960 8e 3a 66
        E 1 9e 39 64
        E 479 8e 39 64
        E 0 9e 37 64
        E 480 8d 43 64
        E 0 8e 37 64
        E 0 9d 43 64
        E 1 9e 3c 64
        E 956 8d 43 64
        E 0 8e 3c 64
        E 0 9d 45 64
        E 1 9e 39 64
        E 484 8d 45 64
        E 0 9d 40 64
        E 477 8d 40 64
        E 0 8e 39 64
        E 0 9d 42 64
        E 0 9e 3e 64
        E 960 8e 3e 64
        E 0 9e 32 64
        E 962 8d 42 64
        E 0 8e 32 64
        E 1 9d 43 64
        E 0 9e 37 64
        E 956 8e 37 64
        E 0 9e 32 64
        E 964 8d 43 64
        E 1 8e 32 64
        E 0 9e 2e 66
        E 959 8e 2e 66
        E 1 90 46 66
        E 0 91 43 64
        E 0 92 3e 64
        E 1 93 37 64
        E 0 98 4f 64
        E 0 9f 46 66
        E 0 9a 3e 64
        E 1 9e 2b 64
        E 954 80 46 66
        E 0 81 43 64
        E 0 82 3e 64
        E 1 83 37 64
        E 0 88 4f 64
        E 0 8f 46 66
        E 1 8a 3e 64
        E 0 8e 2b 64
        E 1 90 46 66
        E 0 91 43 64
        E 1 92 3e 64
        E 0 93 37 64
        E 0 98 4f 64
        E 0 9f 46 66
        E 0 9a 3e 64
        E 0 9e 37 64
        E 956 8e 37 64
        E 1 9e 32 64
        E 960 80 46 66
        E 0 81 43 64
        E 1 82 3e 64
        E 0 83 37 64
        E 1 88 4f 64
        E 0 8f 46 66
        E 0 8a 3e 64
        E 0 8e 32 64
        E 1 90 46 66
        E 0 91 43 64
        E 0 92 3e 64
        E 0 93 37 64
        E 0 98 4f 64
        E 1 9f 46 66
        E 0 9a 3e 64
        E 0 9e 2e 66
        E 958 80 46 66
        E 0 81 43 64
        E 0 82 3e 64
        E 0 83 37 64
        E 1 88 4f 64
        E 0 8f 46 66
        E 1 8a 3e 64
        E 0 8e 2e 66
        E 0 90 46 66
        E 0 91 43 64
        E 1 92 3e 64
        E 0 93 37 64
        E 0 98 4f 64
        E 0 9f 46 66
        E 1 9a 3e 64
        E 0 9e 2b 64
        E 954 80 46 66
        E 0 81 43 64
        E 1 82 3e 64
        E 1 83 37 64
        E 0 88 4f 64
        E 0 8f 46 66
        E 1 8a 3e 64
        E 1 8e 2b 64
        E 0 90 46 66
        E 0 91 43 64
        E 0 92 40 64
        E 1 93 30 64
        E 0 98 4f 64
        E 0 9f 46 66
        E 0 9a 40 64
        E 0 9e 30 64
        E 956 8e 30 64
        E 0 9e 2b 64
        E 957 80 46 66
        E 0 81 43 64
        E 1 82 40 64
        E 0 83 30 64
        E 0 88 4f 64
        E 1 8f 46 66
        E 0 8a 40 64
        E 0 8e 2b 64
        E 1 90 46 66
        E 0 91 43 64
        E 1 92 40 64
        E 0 93 30 64
        E 0 98 4f 64
        E 0 9f 46 66
        E 0 9a 40 64
        E 0 9e 28 64
        E 959 8e 28 64
        E 0 9e 24 64
        E 958 80 46 66
        E 0 81 43 64
        E 0 82 40 64
        E 1 83 30 64
        E 0 88 4f 64
        E 0 8f 46 66
        E 0 8a 40 64
        E 1 8e 24 64
        E 0 90 45 64
        E 0 91 41 64
        E 1 92 3c 64
        E 0 93 35 64
        E 0 98 4d 64
        E 1 9f 45 64
        E 0 9a 3c 64
        E 0 9e 35 64
        E 957 8e 35 64
        E 0 9e 30 64
        E 960 80 45 64
        E 0 81 41 64
        E 0 82 3c 64
        E 1 83 35 64
        E 0 88 4d 64
        E 0 8f 45 64
        E 1 8a 3c 64
        E 0 8e 30 64
        E 0 90 45 64
        E 1 91 41 64
        E 0 92 3c 64
        E 0 93 35 64
        E 0 98 4d 64
        E 1 9f 45 64
        E 0 9a 3c 64
        E 0 9e 2d 64
        E 954 8e 2d 64
        E 0 9e 29 64
        E 961 80 45 64
        E 0 81 41 64
        E 1 82 3c 64
        E 0 83 35 64
        E 1 88 4d 64
        E 0 8f 45 64
        E 0 8a 3c 64
        E 0 8e 29 64
        E 1 9d 41 64
        E 0 9e 32 64
        E 955 8d 41 64
        E 0 9d 43 64
        E 963 8d 43 64
        E 0 8e 32 64
        E 1 9d 45 64
        E 959 8d 45 64
        E 0 9d 41 64
        E 959 8d 41 64
        E 0 9d 3e 64
        E 1 9e 3e 64
        E 960 8e 3e 64
        E 0 9e 39 64
        E 962 8d 3e 64
        E 1 8e 39 64
        E 0 9d 3e 64
        E 0 9e 35 64
        E 959 8e 35 64
        E 0 9e 32 64
        E 960 8d 3e 64
        E 0 8e 32 64
        E 1 90 4a 64
        E 0 91 43 64
        E 0 92 3e 64
        E 0 93 3a 66
        E 0 98 4f 64
        E 0 9f 4a 64
        E 1 9a 3e 64
        E 0 9e 3a 66
        E 956 8e 3a 66
        E 0 9e 37 64
        E 960 80 4a 64
        E 0 81 43 64
        E 0 82 3e 64
        E 0 83 3a 66
        E 1 88 4f 64
        E 0 8f 4a 64
        E 0 8a 3e 64
        E 1 8e 37 64
        E 0 90 4a 64
        E 0 91 43 64
        E 1 92 3e 64
        E 0 93 3a 66
        E 1 98 4f 64
        E 0 9f 4a 64
        E 0 9a 3e 64
        E 0 9e 32 64
        E 955 8e 32 64
        E 1 9e 2e 66
        E 956 80 4a 64
        E 1 81 43 64
        E 0 82 3e 64
        E 0 83 3a 66
        E 1 88 4f 64
        E 0 8f 4a 64
        E 1 8a 3e 64
        E 0 8e 2e 66
        E 1 90 4c 64
        E 0 91 43 64
        E 0 92 3d 64
        E 0 93 39 64
        E 1 98 4f 64
        E 0 9f 4c 64
        E 0 9a 49 64
        E 0 9e 39 64
        E 959 8e 39 64
        E 0 9e 34 64
        E 960 80 4c 64
        E 0 81 43 64
        E 1 82 3d 64
        E 0 83 39 64
        E 1 88 4f 64
        E 0 8f 4c 64
        E 0 8a 49 64
        E 1 8e 34 64
        E 0 90 4c 64
        E 0 91 43 64
        E 1 92 3d 64
        E 0 93 39 64
        E 0 98 4f 64
        E 0 9f 4c 64
        E 0 9a 49 64
        E 0 9e 31 64
        E 956 8e 31 64
        E 0 9e 2d 64
        E 958 80 4c 64
        E 1 81 43 64
        E 0 82 3d 64
        E 0 83 39 64
        E 1 88 4f 64
        E 0 8f 4c 64
        E 1 8a 49 64
        E 0 8e 2d 64
        E 0 9d 43 64
        E 0 9e 2d 64
        E 1919 8d 43 64
        E 0 8e 2d 64
        E 1 9d 45 64
        E 958 8d 45 64
        E 1 9d 46 66
        E 961 8d 46 66
        E 0 9d 3d 64
        E 1 9e 39 64
        E 958 8e 39 64
        E 0 9e 34 64
        E 959 8d 3d 64
        E 0 8e 34 64
        E 0 9d 3d 64
        E 1 9e 31 64
        E 960 8e 31 64
        E 0 9e 2d 64
        E 959 8d 3d 64
        E 1 8e 2d 64
        E 0 90 4c 64
        E 0 91 43 64
        E 1 92 3d 64
        E 0 93 39 64
        E 0 98 4f 64
        E 1 9f 4c 64
        E 0 9a 49 64
        E 0 9e 39 64
        E 959 8e 39 64
        E 0 9e 34 64
        E 957 80 4c 64
        E 0 81 43 64
        E 0 82 3d 64
        E 1 83 39 64
        E 1 88 4f 64
        E 0 8f 4c 64
        E 0 8a 49 64
        E 1 8e 34 64
        E 1 90 4c 64
        E 0 91 43 64
        E 1 92 3d 64
        E 0 93 39 64
        E 1 98 4f 64
        E 0 9f 4c 64
        E 0 9a 49 64
        E 0 9e 31 64
        E 955 80 4c 64
        E 1 81 43 64
        E 0 82 3d 64
        E 1 83 39 64
        E 0 88 4f 64
        E 1 8f 4c 64
        E 0 8a 49 64
        E 1 8e 31 64
        E 0 90 4c 64
        E 1 91 43 64
        E 0 92 3d 64
        E 1 93 39 64
        E 0 98 4f 64
        E 0 9f 4c 64
        E 0 9a 49 64
        E 0 9e 2d 64
        E 954 80 4c 64
        E 0 81 43 64
        E 1 82 3d 64
        E 0 83 39 64
        E 1 88 4f 64
        E 0 8f 4c 64
        E 0 8a 49 64
        E 1 8e 2d 64
        E 0 90 4a 64
        E 0 91 41 64
        E 0 92 39 64
        E 0 93 32 64
        E 0 98 4d 64
        E 1 9f 4a 64
        E 0 9a 45 64
        E 0 9e 32 64
        E 957 8e 32 64
        E 0 9e 2d 64
        E 959 80 4a 64
        E 0 81 41 64
        E 1 82 39 64
        E 0 83 32 64
        E 0 88 4d 64
        E 0 8f 4a 64
        E 1 8a 45 64
        E 0 8e 2d 64
        E 0 90 4a 64
        E 1 91 41 64
        E 0 92 39 64
        E 1 93 32 64
        E 0 98 4d 64
        E 1 9f 4a 64
        E 0 9a 45 64
        E 1 9e 29 64
        E 956 8e 29 64
        E 0 9e 26 64
        E 960 80 4a 64
        E 1 81 41 64
        E 0 82 39 64
        E 0 83 32 64
        E 0 88 4d 64
        E 0 8f 4a 64
        E 0 8a 45 64
        E 0 8e 26 64
        E 0 9d 41 64
        E 0 9e 32 64
        E 957 8d 41 64
        E 0 9d 45 64
        E 961 8d 45 64
        E 0 8e 32 64
        E 1 9d 43 64
        E 956 8d 43 64
        E 0 9d 41 64
        E 1 9e 32 64
        E 962 8d 41 64
        E 1 8e 32 64
        E 0 9d 46 66
        E 1 9e 37 64
        E 958 8d 46 66
        E 0 8e 37 64
        E 0 9d 3d 64
        E 1 9e 39 64
        E 959 8d 3d 64
        E 0 8e 39 64
        E 0 9d 3e 64
        E 1 9e 35 64
        E 958 8d 3e 64
        E 0 8e 35 64
        E 0 9d 43 64
        E 0 9e 31 64
        E 961 8d 43 64
        E 1 8e 31 64
        E 0 9d 41 64
        E 1 9e 32 64
        E 957 8e 32 64
        E 0 9e 37 64
        E 960 8d 41 64
        E 1 8e 37 64
        E 0 9d 40 64
        E 1 9e 39 64
        E 959 8e 39 64
        E 0 9e 2d 64
        E 959 8d 40 64
        E 1 8e 2d 64
        E 0 9d 3e 64
        E 1 9e 3e 64
        E 959 8e 3e 64
        E 0 9e 39 64
        E 960 8e 39 64
        E 0 9e 35 64
        E 961 8e 35 64
        E 0 9e 32 64
        E 959 8d 3e 64
        E 0 8e 32 64
        E 1 90 45 64
        E 0 91 42 64
        E 1 92 39 64
        E 0 93 32 64
        E 0 98 4e 64
        E 0 9f 45 64
        E 1 9a 45 64
        E 0 9e 32 64
        E 956 8e 32 64
        E 0 9e 2d 64
        E 962 80 45 64
        E 0 81 42 64
        E 0 82 39 64
        E 1 83 32 64
        E 0 88 4e 64
        E 1 8f 45 64
        E 0 8a 45 64
        E 1 8e 2d 64
        E 0 90 45 64
        E 1 91 42 64
        E 0 92 39 64
        E 0 93 32 64
        E 1 98 4e 64
        E 0 9f 45 64
        E 0 9a 45 64
        E 0 9e 2a 64
        E 954 8e 2a 64
        E 1 9e 26 64
        E 958 80 45 64
        E 0 81 42 64
        E 0 82 39 64
        E 1 83 32 64
        E 0 88 4e 64
        E 0 8f 45 64
        E 0 8a 45 64
        E 0 8e 26 64
        E 1 90 47 64
        E 0 91 40 64
        E 1 92 38 64
        E 1 93 32 64
        E 0 98 4c 64
        E 0 9f 47 64
        E 1 9a 44 64
        E 0 9e 32 64
        E 955 8e 32 64
        E 1 9e 2f 64
        E 958 80 47 64
        E 0 81 40 64
        E 0 82 38 64
        E 0 83 32 64
        E 0 88 4c 64
        E 1 8f 47 64
        E 1 8a 44 64
        E 0 8e 2f 64
        E 0 90 47 64
        E 0 91 40 64
        E 1 92 38 64
        E 0 93 32 64
        E 1 98 4c 64
        E 0 9f 47 64
        E 1 9a 44 64
        E 0 9e 2c 64
        E 958 8e 2c 64
        E 1 9e 28 64
        E 957 80 47 64
        E 0 81 40 64
        E 0 82 38 64
        E 0 83 32 64
        E 0 88 4c 64
        E 1 8f 47 64
        E 0 8a 44 64
        E 0 8e 28 64
        E 0 90 47 64
        E 0 91 40 64
        E 1 92 38 64
        E 0 93 32 64
        E 0 98 4c 64
        E 0 9f 47 64
        E 0 9a 44 64
        E 0 9e 32 64
        E 959 8e 32 64
        E 0 9e 2f 64
        E 959 80 47 64
        E 0 81 40 64
        E 1 82 38 64
        E 0 83 32 64
        E 0 88 4c 64
        E 1 8f 47 64
        E 0 8a 44 64
        E 1 8e 2f 64
        E 0 90 47 64
        E 0 91 40 64
        E 1 92 38 64
        E 0 93 32 64
        E 0 98 4c 64
        E 0 9f 47 64
        E 0 9a 44 64
        E 0 9e 2c 64
        E 957 8e 2c 64
        E 1 9e 28 64
        E 957 80 47 64
        E 0 81 40 64
        E 1 82 38 64
        E 0 83 32 64
        E 1 88 4c 64
        E 0 8f 47 64
        E 0 8a 44 64
        E 0 8e 28 64
        E 1 90 49 64
        E 0 91 40 64
        E 0 92 39 64
        E 0 93 31 64
        E 1 98 4c 64
        E 0 9f 49 64
        E 0 9a 45 64
        E 3 9e 31 64
        E 952 8e 31 64
        E 0 9e 2d 64
        E 964 80 49 64
        E 0 81 40 64
        E 0 82 39 64
        E 0 83 31 64
        E 0 88 4c 64
        E 1 8f 49 64
        E 0 8a 45 64
        E 0 8e 2d 64
        E 0 90 49 64
        E 0 91 40 64
        E 0 92 39 64
        E 1 93 31 64
        E 0 98 4c 64
        E 0 9f 49 64
        E 0 9a 45 64
        E 0 9e 28 64
        E 958 8e 28 64
        E 1 9e 25 64
        E 957 80 49 64
        E 1 81 40 64
        E 0 82 39 64
        E 0 83 31 64
        E 0 88 4c 64
        E 1 8f 49 64
        E 0 8a 45 64
        E 1 8e 25 64
        E 1 9d 41 64
        E 0 9e 32 64
        E 955 8d 41 64
        E 1 9d 45 64
        E 962 8d 45 64
        E 0 8e 32 64
        E 0 9d 43 64
        E 961 8d 43 64
        E 0 9d 41 64
        E 0 9e 32 64
        E 958 8d 41 64
        E 0 8e 32 64
        E 0 9d 46 66
        E 1 9e 37 64
        E 960 8d 46 66
        E 0 8e 37 64
        E 0 9d 3d 64
        E 1 9e 39 64
        E 959 8d 3d 64
        E 1 8e 39 64
        E 0 9d 3e 64
        E 0 9e 35 64
        E 959 8d 3e 64
        E 0 8e 35 64
        E 0 9d 43 64
        E 1 9e 31 64
        E 957 8d 43 64
        E 0 8e 31 64
        E 0 9d 41 64
        E 0 9e 32 64
        E 960 8e 32 64
        E 1 9e 37 64
        E 961 8d 41 64
        E 0 8e 37 64
        E 1 9d 40 64
        E 0 9e 39 64
        E 956 8e 39 64
        E 0 9e 2d 64
        E 962 8d 40 64
        E 1 8e 2d 64
        E 0 9d 3e 64
        E 0 9e 3e 64
        E 958 8e 3e 64
        E 1 9e 39 64
        E 959 8e 39 64
        E 0 9e 35 64
        E 961 8e 35 64
        E 0 9e 32 64
        E 957 8d 3e 64
        E 0 8e 32 64
        E 1 90 4a 64
        E 0 91 41 64
        E 0 92 3b 64
        E 1 93 38 64
        E 0 98 4d 64
        E 0 9f 4a 64
        E 1 9a 47 64
        E 0 9e 38 64
        E 959 80 4a 64
        E 0 81 41 64
        E 1 82 3b 64
        E 0 83 38 64
        E 1 88 4d 64
        E 0 8f 4a 64
        E 1 8a 47 64
        E 1 8e 38 64
        E 0 90 4a 64
        E 0 91 41 64
        E 1 92 3b 64
        E 0 93 38 64
        E 1 98 4d 64
        E 0 9f 4a 64
        E 0 9a 47 64
        E 1 9e 38 64
        E 953 80 4a 64
        E 0 81 41 64
        E 1 82 3b 64
        E 0 83 38 64
        E 1 88 4d 64
        E 0 8f 4a 64
        E 1 8a 47 64
        E 0 8e 38 64
        E 0 90 4a 64
        E 1 91 41 64
        E 0 92 3b 64
        E 0 93 38 64
        E 0 98 4d 64
        E 0 9f 4a 64
        E 0 9a 47 64
        E 0 9e 38 64
        E 956 80 4a 64
        E 1 81 41 64
        E 0 82 3b 64
        E 1 83 38 64
        E 0 88 4d 64
        E 1 8f 4a 64
        E 0 8a 47 64
        E 1 8e 38 64
        E 0 90 4a 64
        E 0 91 41 64
        E 0 92 3b 64
        E 0 93 38 64
        E 1 98 4d 64
        E 0 9f 4a 64
        E 0 9a 47 64
        E 0 9e 38 64
        E 956 80 4a 64
        E 0 81 41 64
        E 0 82 3b 64
        E 0 83 38 64
        E 1 88 4d 64
        E 0 8f 4a 64
        E 0 8a 47 64
        E 1 8e 38 64
        E 0 90 4a 64
        E 0 91 40 64
        E 1 92 39 64
        E 0 93 39 64
        E 0 98 4c 64
        E 0 9f 4a 64
        E 0 9a 45 64
        E 0 9e 39 64
        E 1917 80 4a 64
        E 0 83 39 64
        E 1 8f 4a 64
        E 0 8e 39 64
        E 0 90 49 64
        E 0 93 2d 64
        E 1 9f 49 64
        E 0 9e 2d 64
        E 1917 80 49 64
        E 0 81 40 64
        E 0 82 39 64
        E 0 83 2d 64
        E 1 88 4c 64
        E 0 8f 49 64
        E 0 8a 45 64
        E 0 8e 2d 64
        E 0 90 4a 64
        E 0 91 41 64
        E 1 92 39 64
        E 0 93 32 64
        E 0 98 4d 64
        E 0 9f 4a 64
        E 0 9a 45 64
        E 0 9e 3e 64
        E 959 8e 3e 64
        E 0 9e 39 64
        E 959 8e 39 64
        E 0 9e 35 64
        E 961 8e 35 64
        E 0 9e 34 64
        E 479 8e 34 64
        E 0 9e 32 64
        E 479 80 4a 64
        E 1 81 41 64
        E 0 82 39 64
        E 1 83 32 64
        E 2 88 4d 64
        E 0 8f 4a 64
        E 1 8a 45 64
        E 0 8e 32 64
        E 1 9e 31 64
        E 474 8e 31 64
        E 1 9e 2f 64
        E 481 8e 2f 64
        E 1 9e 2d 64
        E 957 8e 2d 64
        E 959 9e 39 64
        E 962 8e 39 64
        E 0 9e 3a 66
        E 963 8e 3a 66
        E 0 9e 3e 64
        E 957 8e 3e 64
        E 0 9e 34 64
        E 959 8e 34 64
        E 0 9e 3c 64
        E 959 8e 3c 64
        E 1 9e 39 64
        E 962 8e 39 64
        E 0 9e 3c 64
        E 961 8e 3c 64
        E 0 9e 32 64
        E 958 8e 32 64
        E 0 9e 3a 66
        E 960 8e 3a 66
        E 0 9e 37 64
        E 961 8e 37 64
        E 0 9e 3a 66
        E 960 8e 3a 66
        E 0 9e 31 64
        E 957 8e 31 64
        E 0 9e 39 64
        E 964 8e 39 64
        E 0 9e 35 64
        E 961 8e 35 64
        E 0 9e 3e 64
        E 956 8e 3e 64
        E 961 9e 36 64
        E 962 8e 36 64
        E 0 9e 37 64
        E 957 8e 37 64
        E 0 9e 40 64
        E 964 8e 40 64
        E 956 9e 38 64
        E 961 8e 38 64
        E 0 9e 39 64
        E 481 8e 39 64
        E 0 9e 37 64
        E 479 8e 37 64
        E 0 9e 35 64
        E 479 8e 35 64
        E 0 9e 34 64
        E 483 8e 34 64
        E 0 9e 32 64
        E 479 8e 32 64
        E 0 9e 30 64
        E 479 8e 30 64
        E 1 9e 2e 66
        E 478 8e 2e 66
        E 0 9e 2d 64
        E 482 8e 2d 64
        E 0 9e 2b 64
        E 478 8e 2b 64
        E 0 9e 29 64
        E 484 8e 29 64
        E 0 9e 28 64
        E 479 8e 28 64
        E 0 9e 26 64
        E 478 8e 26 64
        E 0 9e 2d 64
        E 961 8e 2d 64
        E 0 9e 2d 64
        E 960 8e 2d 64
        E 0 9e 26 64
        E 5759 8e 26 64
        E 11521 90 48 64
        E 1 91 40 64
        E 0 92 39 64
        E 0 93 39 64
        E 1 98 4c 64
        E 0 9f 48 64
        E 0 9a 45 64
        E 1 9e 39 64
        E 3839 80 48 64
        E 0 81 40 64
        E 1 82 39 64
        E 0 83 39 64
        E 1 88 4c 64
        E 0 8f 48 64
        E 0 8a 45 64
        E 0 8e 39 64
        E 0 90 48 64
        E 1 91 42 64
        E 0 92 39 64
        E 1 93 33 64
        E 1 98 4e 64
        E 0 9f 48 64
        E 0 9a 45 64
        E 0 9e 33 64
        E 3834 80 48 64
        E 0 81 42 64
        E 0 82 39 64
        E 1 83 33 64
        E 1 88 4e 64
        E 0 8f 48 64
        E 1 8a 45 64
        E 0 8e 33 64
        E 0 90 48 64
        E 1 91 42 64
        E 0 92 39 64
        E 0 93 33 64
        E 1 98 4e 64
        E 0 9f 48 64
        E 0 9a 45 64
        E 0 9e 33 64
        E 5753 80 48 64
        E 0 81 42 64
        E 0 82 39 64
        E 1 83 33 64
        E 0 88 4e 64
        E 0 8f 48 64
        E 1 8a 45 64
        E 0 8e 33 64
        E 1920 90 48 64
        E 0 91 42 64
        E 0 92 39 64
        E 0 93 33 64
        E 1 98 4e 64
        E 0 9f 48 64
        E 0 9a 39 64
        E 1 9e 33 64
        E 1919 80 48 64
        E 0 81 42 64
        E 1 82 39 64
        E 1 83 33 64
        E 0 88 4e 64
        E 1 8f 48 64
        E 0 8a 39 64
        E 1 8e 33 64
        E 0 90 46 66
        E 0 91 43 64
        E 0 92 3a 66
        E 1 93 33 64
        E 0 98 4f 64
        E 0 9f 46 66
        E 0 9a 3a 66
        E 0 9e 33 64
        E 1915 80 46 66
        E 0 81 43 64
        E 1 82 3a 66
        E 0 83 33 64
        E 1 88 4f 64
        E 0 8f 46 66
        E 1 8a 3a 66
        E 0 8e 33 64
        E 0 90 45 64
        E 1 91 42 64
        E 0 92 3c 64
        E 0 93 33 64
        E 0 98 4e 64
        E 0 9f 45 64
        E 0 9a 3c 64
        E 0 9e 33 64
        E 1912 80 45 64
        E 0 81 42 64
        E 1 82 3c 64
        E 0 83 33 64
        E 1 88 4e 64
        E 0 8f 45 64
        E 1 8a 3c 64
        E 0 8e 33 64
        E 1 90 44 64
        E 0 91 40 64
        E 0 92 3b 64
        E 0 93 32 64
        E 0 98 4c 64
        E 0 9f 44 64
        E 0 9a 3b 64
        E 1 9e 32 64
        E 3838 80 44 64
        E 0 81 40 64
        E 1 82 3b 64
        E 0 83 32 64
        E 1 88 4c 64
        E 0 8f 44 64
        E 0 8a 3b 64
        E 1 8e 32 64
        E 0 90 44 64
        E 0 91 40 64
        E 0 92 3b 64
        E 0 93 32 64
        E 0 98 4c 64
        E 0 9f 44 64
        E 1 9a 3b 64
        E 0 9e 32 64
        E 5755 80 44 64
        E 0 81 40 64
        E 0 82 3b 64
        E 1 83 32 64
        E 0 88 4c 64
        E 1 8f 44 64
        E 0 8a 3b 64
        E 0 8e 32 64
        E 1920 90 4a 64
        E 1918 80 4a 64
        E 0 90 48 64
        E 1921 80 48 64
        E 0 90 47 64
        E 1920 80 47 64
        E 0 90 46 64
        E 1922 91 42 64
        E 0 92 3d 64
        E 1 93 36 64
        E 0 98 4e 64
        E 0 9f 46 64
        E 1 9a 3d 64
        E 0 9e 36 64
        E 1914 80 46 64
        E 1 81 42 64
        E 0 82 3d 64
        E 0 83 36 64
        E 1 88 4e 64
        E 0 8f 46 64
        E 0 8a 3d 64
        E 1 8e 36 64
        E 1 90 46 64
        E 0 91 42 64
        E 0 92 3d 64
        E 0 93 34 64
        E 0 98 4e 64
        E 1 9f 46 64
        E 0 9a 3d 64
        E 0 9e 34 64
        E 1916 81 42 64
        E 0 82 3d 64
        E 0 83 34 64
        E 1 88 4e 64
        E 1 8f 46 64
        E 0 8a 3d 64
        E 0 8e 34 64
        E 0 91 42 64
        E 0 92 3d 64
        E 1 93 34 64
        E 0 98 4e 64
        E 0 9f 46 64
        E 0 9a 3d 64
        E 0 9e 34 64
        E 1918 80 46 64
        E 0 81 42 64
        E 0 82 3d 64
        E 0 83 34 64
        E 0 88 4e 64
        E 0 8f 46 64
        E 0 8a 3d 64
        E 0 8e 34 64
        E 0 90 47 64
        E 0 91 42 64
        E 1 92 3b 64
        E 0 93 33 64
        E 0 98 4e 64
        E 0 9f 47 64
        E 0 9a 3f 64
        E 0 9e 33 64
        E 2877 80 47 64
        E 0 90 47 64
        E 960 80 47 64
        E 1 81 42 64
        E 0 82 3b 64
        E 0 83 33 64
        E 1 88 4e 64
        E 1 8f 47 64
        E 0 8a 3f 64
        E 0 8e 33 64
        E 0 90 47 64
        E 0 91 42 64
        E 0 92 3b 64
        E 0 93 33 64
        E 1 98 4e 64
        E 0 9f 47 64
        E 0 9a 3f 64
        E 0 9e 33 64
        E 5756 80 47 64
        E 0 81 42 64
        E 0 82 3b 64
        E 1 83 33 64
        E 0 88 4e 64
        E 0 8f 47 64
        E 0 8a 3f 64
        E 0 8e 33 64
        E 1 90 47 64
        E 0 91 43 64
        E 1 92 3b 64
        E 0 93 34 64
        E 1 98 4f 64
        E 0 9f 47 64
        E 0 9a 47 64
        E 0 9e 34 64
        E 5756 80 47 64
        E 0 81 43 64
        E 0 82 3b 64
        E 1 83 34 64
        E 0 88 4f 64
        E 1 8f 47 64
        E 0 8a 47 64
        E 0 8e 34 64
        E 1 90 47 64
        E 0 91 43 64
        E 1 92 3b 64
        E 0 93 34 64
        E 1 98 4f 64
        E 0 9f 47 64
        E 0 9a 47 64
        E 0 9e 34 64
        E 1916 80 47 64
        E 0 81 43 64
        E 0 82 3b 64
        E 1 83 34 64
        E 0 88 4f 64
        E 0 8f 47 64
        E 1 8a 47 64
        E 0 8e 34 64
        E 0 90 47 64
        E 0 91 43 64
        E 1 92 3b 64
        E 0 93 34 64
        E 1 98 4f 64
        E 0 9f 47 64
        E 0 9a 47 64
        E 0 9e 34 64
        E 3834 80 47 64
        E 0 81 43 64
        E 1 82 3b 64
        E 0 83 34 64
        E 1 88 4f 64
        E 0 8f 47 64
        E 0 8a 47 64
        E 3 8e 34 64
        E 0 90 48 64
        E 1 91 40 64
        E 1 92 39 64
        E 0 93 39 64
        E 1 98 4c 64
        E 0 9f 48 64
        E 1 9a 45 64
        E 0 9e 39 64
        E 5751 80 48 64
        E 0 81 40 64
        E 0 82 39 64
        E 1 83 39 64
        E 0 88 4c 64
        E 1 8f 48 64
        E 1 8a 45 64
        E 0 8e 39 64
        E 1 90 48 64
        E 1 91 40 64
        E 0 92 39 64
        E 0 93 39 64
        E 0 98 4c 64
        E 0 9f 48 64
        E 1 9a 45 64
        E 0 9e 39 64
        E 1916 80 48 64
        E 0 81 40 64
        E 0 82 39 64
        E 0 83 39 64
        E 1 88 4c 64
        E 0 8f 48 64
        E 1 8a 45 64
        E 0 8e 39 64
        E 1 90 48 64
        E 0 91 40 64
        E 0 92 39 64
        E 0 93 39 64
        E 0 98 4c 64
        E 0 9f 48 64
        E 0 9a 45 64
        E 0 9e 39 64
        E 3837 80 48 64
        E 0 81 40 64
        E 0 82 39 64
        E 0 83 39 64
        E 1 88 4c 64
        E 0 8f 48 64
        E 0 8a 45 64
        E 0 8e 39 64
        E 1 90 49 64
        E 0 91 40 64
        E 0 92 39 64
        E 0 93 37 64
        E 1 98 4c 64
        E 0 9f 49 64
        E 0 9a 45 64
        E 0 9e 37 64
        E 5757 80 49 64
        E 0 81 40 64
        E 0 82 39 64
        E 1 83 37 64
        E 1 88 4c 64
        E 0 8f 49 64
        E 1 8a 45 64
        E 0 8e 37 64
        E 1 90 49 64
        E 0 91 40 64
        E 0 92 39 64
        E 0 93 37 64
        E 1 98 4c 64
        E 0 9f 49 64
        E 0 9a 45 64
        E 1 9e 37 64
        E 1913 80 49 64
        E 1 81 40 64
        E 1 82 39 64
        E 0 83 37 64
        E 0 88 4c 64
        E 1 8f 49 64
        E 1 8a 45 64
        E 0 8e 37 64
        E 0 90 49 64
        E 0 91 40 64
        E 0 92 39 64
        E 1 93 37 64
        E 0 98 4c 64
        E 0 9f 49 64
        E 1 9a 45 64
        E 0 9e 37 64
        E 1916 80 49 64
        E 0 81 40 64
        E 1 82 39 64
        E 0 83 37 64
        E 1 88 4c 64
        E 0 8f 49 64
        E 1 8a 45 64
        E 0 8e 37 64
        E 0 90 49 64
        E 1 91 40 64
        E 0 92 39 64
        E 0 93 37 64
        E 0 98 4c 64
        E 0 9f 49 64
        E 1 9a 45 64
        E 0 9e 37 64
        E 1912 80 49 64
        E 1 81 40 64
        E 0 82 39 64
        E 0 83 37 64
        E 1 88 4c 64
        E 0 8f 49 64
        E 0 8a 45 64
        E 0 8e 37 64
        E 1 90 4a 64
        E 0 91 42 64
        E 0 92 39 64
        E 0 93 36 64
        E 0 98 4e 64
        E 0 9f 4a 64
        E 0 9a 45 64
        E 0 9e 36 64
        E 3838 80 4a 64
        E 0 81 42 64
        E 0 82 39 64
        E 0 83 36 64
        E 1 88 4e 64
        E 0 8f 4a 64
        E 0 8a 45 64
        E 1 8e 36 64
        E 0 90 4a 64
        E 0 91 42 64
        E 0 92 39 64
        E 1 93 36 64
        E 0 98 4e 64
        E 0 9f 4a 64
        E 0 9a 45 64
        E 0 9e 36 64
        E 7677 80 4a 64
        E 0 81 42 64
        E 1 82 39 64
        E 1 83 36 64
        E 0 88 4e 64
        E 0 8f 4a 64
        E 0 8a 45 64
        E 0 8e 36 64
        E 0 90 4b 64
        E 1 91 42 64
        E 0 92 3b 64
        E 0 93 3b 64
        E 0 98 4e 64
        E 0 9f 4b 64
        E 0 9a 47 64
        E 0 9e 3b 64
        E 5758 80 4b 64
        E 0 81 42 64
        E 0 82 3b 64
        E 0 83 3b 64
        E 1 88 4e 64
        E 0 8f 4b 64
        E 0 8a 47 64
        E 1 8e 3b 64
        E 0 90 4b 64
        E 1 91 42 64
        E 1 92 3b 64
        E 0 93 3b 64
        E 0 98 4e 64
        E 0 9f 4b 64
        E 1 9a 47 64
        E 0 9e 3b 64
        E 1917 80 4b 64
        E 0 81 42 64
        E 0 82 3b 64
        E 1 83 3b 64
        E 0 88 4e 64
        E 0 8f 4b 64
        E 1 8a 47 64
        E 1 8e 3b 64
        E 1 90 4b 64
        E 0 91 42 64
        E 0 92 3b 64
        E 1 93 39 64
        E 1 98 4e 64
        E 0 9f 4b 64
        E 0 9a 47 64
        E 0 9e 39 64
        E 1912 80 4b 64
        E 0 81 42 64
        E 1 82 3b 64
        E 0 83 39 64
        E 1 88 4e 64
        E 0 8f 4b 64
        E 1 8a 47 64
        E 0 8e 39 64
        E 0 90 4b 64
        E 0 91 42 64
        E 0 92 3b 64
        E 0 93 39 64
        E 0 98 4e 64
        E 0 9f 4b 64
        E 1 9a 47 64
        E 0 9e 39 64
        E 1917 80 4b 64
        E 0 81 42 64
        E 1 82 3b 64
        E 0 83 39 64
        E 1 88 4e 64
        E 0 8f 4b 64
        E 1 8a 47 64
        E 1 8e 39 64
        E 0 90 4c 64
        E 1 91 43 64
        E 0 92 3b 64
        E 0 93 37 64
        E 0 98 4f 64
        E 0 9f 4c 64
        E 1 9a 47 64
        E 0 9e 37 64
        E 7673 80 4c 64
        E 0 81 43 64
        E 1 82 3b 64
        E 0 83 37 64
        E 0 88 4f 64
        E 0 8f 4c 64
        E 1 8a 47 64
        E 0 8e 37 64
        E 1 90 4c 64
        E 0 91 43 64
        E 1 92 3d 64
        E 0 93 2e 64
        E 0 98 4f 64
        E 0 9f 4c 64
        E 0 9a 49 64
        E 0 9e 2e 64
        E 3836 80 4c 64
        E 0 81 43 64
        E 0 82 3d 64
        E 1 83 2e 64
        E 0 88 4f 64
        E 1 8f 4c 64
        E 0 8a 49 64
        E 0 8e 2e 64
        E 2 90 4c 64
        E 0 91 43 64
        E 0 92 3b 64
        E 0 93 2f 64
        E 0 98 4f 64
        E 0 9f 4c 64
        E 1 9a 47 64
        E 0 9e 2f 64
        E 3833 81 43 64
        E 1 88 4f 64
        E 0 91 42 64
        E 0 98 4e 64
        E 3841 80 4c 64
        E 0 8f 4c 64
        E 0 90 4b 64
        E 1 9f 4b 64
        E 3838 80 4b 64
        E 1 81 42 64
        E 0 82 3b 64
        E 0 83 2f 64
        E 0 88 4e 64
        E 0 8f 4b 64
        E 1 8a 47 64
        E 0 8e 2f 64
        E 0 90 4c 64
        E 1 91 43 64
        E 0 92 3b 64
        E 0 93 34 64
        E 0 98 4f 64
        E 0 9f 4c 64
        E 0 9a 47 64
        E 1 9e 34 64
        E 11516 80 4c 64
        E 0 81 43 64
        E 0 82 3b 64
        E 1 83 34 64
        E 0 88 4f 64
        E 0 8f 4c 64
        E 1 8a 47 64
        E 0 8e 34 64
        E 0 90 45 64
        E 5758 80 45 64
        E 0 90 45 64
        E 1918 80 45 64
        E 0 90 45 64
        E 1923 80 45 64
        E 0 90 45 64
        E 1917 80 45 64
        E 1 90 4b 64
        E 0 91 42 64
        E 0 92 3b 64
        E 0 93 3b 64
        E 1 98 4e 64
        E 1 9f 4b 64
        E 0 9a 47 64
        E 1 9e 3b 64
        E 5760 81 42 64
        E 0 82 3b 64
        E 0 83 3b 64
        E 1 88 4e 64
        E 0 8f 4b 64
        E 0 8a 47 64
        E 0 8e 3b 64
        E 1 91 42 64
        E 0 92 3b 64
        E 1 93 3b 64
        E 0 98 4e 64
        E 0 9f 4b 64
        E 0 9a 47 64
        E 0 9e 3b 64
        E 1916 81 42 64
        E 0 82 3b 64
        E 0 83 3b 64
        E 1 88 4e 64
        E 0 8f 4b 64
        E 1 8a 47 64
        E 0 8e 3b 64
        E 1 91 42 64
        E 0 92 3b 64
        E 0 93 39 64
        E 1 98 4e 64
        E 0 9f 4b 64
        E 0 9a 47 64
        E 0 9e 39 64
        E 1915 81 42 64
        E 0 82 3b 64
        E 1 83 39 64
        E 0 88 4e 64
        E 0 8f 4b 64
        E 0 8a 47 64
        E 1 8e 39 64
        E 0 91 42 64
        E 0 92 3b 64
        E 0 93 39 64
        E 1 98 4e 64
        E 0 9f 4b 64
        E 1 9a 47 64
        E 0 9e 39 64
        E 1916 80 4b 64
        E 0 81 42 64
        E 0 82 3b 64
        E 1 83 39 64
        E 0 88 4e 64
        E 1 8f 4b 64
        E 0 8a 47 64
        E 1 8e 39 64
        E 0 90 4c 64
        E 1 91 43 64
        E 0 92 3b 64
        E 1 93 37 64
        E 0 98 4f 64
        E 0 9f 4c 64
        E 0 9a 47 64
        E 1 9e 37 64
        E 7673 81 43 64
        E 1 82 3b 64
        E 0 83 37 64
        E 1 88 4f 64
        E 0 8f 4c 64
        E 0 8a 47 64
        E 1 8e 37 64
        E 0 91 43 64
        E 0 92 3d 64
        E 0 93 2e 64
        E 1 98 4f 64
        E 0 9f 4c 64
        E 0 9a 49 64
        E 0 9e 2e 64
        E 3838 80 4c 64
        E 0 81 43 64
        E 1 82 3d 64
        E 0 83 2e 64
        E 1 88 4f 64
        E 0 8f 4c 64
        E 1 8a 49 64
        E 1 8e 2e 64
        E 0 90 4c 64
        E 1 91 43 64
        E 0 92 3b 64
        E 0 93 2f 64
        E 0 98 4f 64
        E 0 9f 4c 64
        E 0 9a 47 64
        E 0 9e 2f 64
        E 3835 81 43 64
        E 0 88 4f 64
        E 1 91 42 64
        E 0 98 4e 64
        E 3838 80 4c 64
        E 1 8f 4c 64
        E 0 90 4b 64
        E 0 9f 4b 64
        E 3841 80 4b 64
        E 0 81 42 64
        E 0 82 3b 64
        E 1 83 2f 64
        E 0 88 4e 64
        E 0 8f 4b 64
        E 1 8a 47 64
        E 0 8e 2f 64
        E 1 90 4c 64
        E 0 91 44 64
        E 0 92 3b 64
        E 0 93 34 64
        E 0 98 50 64
        E 0 9f 4c 64
        E 1 9a 47 64
        E 0 9e 28 64
        E 17275 80 4c 64
        E 0 81 44 64
        E 1 82 3b 64
        E 0 83 34 64
        E 0 88 50 64
        E 1 8f 4c 64
        E 0 8a 47 64
        E 0 8e 28 64
        E 7678 97 4e 64
        E 0 9a 3e 64
        E 0 9e 2f 64
        E 960 87 4e 64
        E 0 8a 3e 64
        E 1 97 4a 64
        E 0 9a 42 64
        E 958 87 4a 64
        E 1 8a 42 64
        E 0 8e 2f 64
        E 0 97 49 64
        E 0 9a 46 64
        E 1 9e 36 64
        E 962 87 49 64
        E 0 8a 46 64
        E 0 8e 36 64
        E 0 97 47 64
        E 0 9a 42 64
        E 1 9e 2f 64
        E 954 87 47 64
        E 0 8a 42 64
        E 0 97 42 64
        E 0 9a 3e 64
        E 963 87 42 64
        E 0 8a 3e 64
        E 1 8e 2f 64
        E 0 97 40 64
        E 0 9a 3d 64
        E 1 9e 36 64
        E 955 87 40 64
        E 0 8a 3d 64
        E 0 8e 36 64
        E 1 97 3e 64
        E 0 9a 3b 64
        E 1 9e 2f 64
        E 479 87 3e 64
        E 0 97 3d 64
        E 481 87 3d 64
        E 0 97 3b 64
        E 957 87 3b 64
        E 1 8a 3b 64
        E 0 8e 2f 64
        E 0 97 3a 64
        E 1 9a 36 64
        E 0 9e 2e 64
        E 960 87 3a 64
        E 1 8a 36 64
        E 0 8e 2e 64
        E 0 97 3b 64
        E 1 9a 3b 64
        E 0 9e 2f 64
        E 481 87 3b 64
        E 0 8a 3b 64
        E 0 8e 2f 64
        E 0 97 3d 64
        E 0 9a 3d 64
        E 1 9e 31 64
        E 476 87 3d 64
        E 0 8a 3d 64
        E 0 8e 31 64
        E 0 97 3e 64
        E 0 9a 3e 64
        E 1 9e 32 64
        E 961 87 3e 64
        E 0 8a 3e 64
        E 0 8e 32 64
        E 0 97 3d 64
        E 1 9a 3d 64
        E 0 9e 31 64
        E 956 87 3d 64
        E 0 8a 3d 64
        E 1 8e 31 64
        E 0 97 3b 64
        E 0 9a 3b 64
        E 0 9e 2f 64
        E 479 87 3b 64
        E 0 8a 3b 64
        E 0 8e 2f 64
        E 1 97 3d 64
        E 0 9a 3d 64
        E 0 9e 31 64
        E 481 87 3d 64
        E 0 8a 3d 64
        E 0 8e 31 64
        E 0 97 3e 64
        E 0 9a 3e 64
        E 0 9e 32 64
        E 957 87 3e 64
        E 0 8a 3e 64
        E 0 8e 32 64
        E 0 97 3d 64
        E 0 9a 3d 64
        E 0 9e 31 64
        E 963 87 3d 64
        E 0 8a 3d 64
        E 1 8e 31 64
        E 0 97 3b 64
        E 0 9a 3b 64
        E 1 9e 2f 64
        E 480 87 3b 64
        E 0 8a 3b 64
        E 0 8e 2f 64
        E 1 97 3d 64
        E 0 9a 3d 64
        E 0 9e 31 64
        E 476 87 3d 64
        E 0 8a 3d 64
        E 0 8e 31 64
        E 0 97 3e 64
        E 1 9a 3e 64
        E 0 9e 32 64
        E 960 87 3e 64
        E 0 8a 3e 64
        E 0 8e 32 64
        E 0 97 40 64
        E 1 9a 40 64
        E 0 9e 34 64
        E 957 87 40 64
        E 1 8a 40 64
        E 0 8e 34 64
        E 0 97 42 64
        E 0 9a 42 64
        E 0 9e 36 64
        E 2879 87 42 64
        E 0 8a 42 64
        E 1 8e 36 64
        E 0 97 4e 64
        E 0 9a 3f 64
        E 0 9e 3b 64
        E 482 8a 3f 64
        E 0 8e 3b 64
        E 0 9a 40 64
        E 0 9e 3d 64
        E 479 87 4e 64
        E 0 8a 40 64
        E 1 8e 3d 64
        E 0 97 53 64
        E 0 9a 42 64
        E 0 9e 3f 64
        E 959 8a 42 64
        E 1 8e 3f 64
        E 0 9a 3f 64
        E 0 9e 3b 64
        E 961 87 53 64
        E 0 8a 3f 64
        E 0 8e 3b 64
        E 0 97 4f 64
        E 1 9a 3b 64
        E 1 9e 34 64
        E 476 87 4f 64
        E 0 97 51 64
        E 477 87 51 64
        E 0 8a 3b 64
        E 0 97 4f 64
        E 1 9a 47 64
        E 481 87 4f 64
        E 0 97 4e 64
        E 480 87 4e 64
        E 0 8a 47 64
        E 0 97 4c 64
        E 1 9a 43 64
        E 479 87 4c 64
        E 0 97 4a 64
        E 482 87 4a 64
        E 0 8a 43 64
        E 0 8e 34 64
        E 1 97 49 64
        E 0 9a 40 64
        E 0 9e 39 64
        E 478 8a 40 64
        E 0 8e 39 64
        E 1 9a 3e 64
        E 0 9e 3b 64
        E 478 87 49 64
        E 0 8a 3e 64
        E 1 8e 3b 64
        E 0 97 51 64
        E 0 9a 40 64
        E 0 9e 3d 64
        E 960 8a 40 64
        E 0 8e 3d 64
        E 0 9a 3d 64
        E 1 9e 39 64
        E 956 87 51 64
        E 0 8a 3d 64
        E 0 8e 39 64
        E 0 97 4e 64
        E 1 9a 39 64
        E 0 9e 32 64
        E 480 87 4e 64
        E 0 97 4f 64
        E 480 87 4f 64
        E 1 8a 39 64
        E 0 97 4e 64
        E 0 9a 45 64
        E 482 87 4e 64
        E 0 97 4c 64
        E 478 87 4c 64
        E 0 8a 45 64
        E 0 8e 32 64
        E 1 97 4a 64
        E 0 9a 42 64
        E 483 87 4a 64
        E 0 97 49 64
        E 476 87 49 64
        E 0 8a 42 64
        E 1 97 47 64
        E 0 9a 3e 64
        E 0 9e 37 64
        E 481 8a 3e 64
        E 0 8e 37 64
        E 1 9a 3d 64
        E 0 9e 39 64
        E 477 87 47 64
        E 0 8a 3d 64
        E 1 8e 39 64
        E 0 97 4f 64
        E 1 9a 3e 64
        E 0 9e 3b 64
        E 958 8a 3e 64
        E 1 8e 3b 64
        E 0 9a 3b 64
        E 0 9e 37 64
        E 960 87 4f 64
        E 0 8a 3b 64
        E 1 8e 37 64
        E 0 97 4c 64
        E 0 9a 3a 64
        E 1 9e 31 64
        E 478 87 4c 64
        E 0 97 4e 64
        E 481 87 4e 64
        E 0 97 4c 64
        E 477 87 4c 64
        E 1 97 4a 64
        E 481 87 4a 64
        E 0 8a 3a 64
        E 1 8e 31 64
        E 0 97 49 64
        E 477 87 49 64
        E 0 97 47 64
        E 480 87 47 64
        E 0 97 52 64
        E 1 9a 49 64
        E 0 9e 36 64
        E 482 8a 49 64
        E 0 8e 36 64
        E 1 9a 47 64
        E 0 9e 38 64
        E 477 87 52 64
        E 1 8a 47 64
        E 0 8e 38 64
        E 1 97 4e 64
        E 0 9a 49 64
        E 0 9e 3a 64
        E 958 8a 49 64
        E 0 8e 3a 64
        E 0 9a 46 64
        E 0 9e 36 64
        E 960 87 4e 64
        E 0 8a 46 64
        E 0 8e 36 64
        E 1 97 53 64
        E 0 9a 42 64
        E 0 9e 32 64
        E 479 8a 42 64
        E 0 8e 32 64
        E 0 9a 40 64
        E 0 9e 31 64
        E 479 87 53 64
        E 0 8a 40 64
        E 0 8e 31 64
        E 0 97 4e 64
        E 1 9a 3e 64
        E 0 9e 2f 64
        E 959 8a 3e 64
        E 0 8e 2f 64
        E 1 9a 47 64
        E 0 9e 32 64
        E 960 87 4e 64
        E 0 8a 47 64
        E 0 8e 32 64
        E 0 97 4f 64
        E 0 9a 47 64
        E 1 9e 34 64
        E 962 87 4f 64
        E 0 8a 47 64
        E 0 8e 34 64
        E 0 97 4e 64
        E 1 9a 47 64
        E 0 9e 32 64
        E 1916 87 4e 64
        E 0 8a 47 64
        E 0 8e 32 64
        E 1 97 53 64
        E 0 9a 42 64
        E 0 9e 32 64
        E 480 8a 42 64
        E 1 8e 32 64
        E 0 9a 40 64
        E 0 9e 31 64
        E 479 87 53 64
        E 0 8a 40 64
        E 0 8e 31 64
        E 0 97 47 64
        E 1 9a 3e 64
        E 0 9e 2f 64
        E 960 8a 3e 64
        E 0 8e 2f 64
        E 1 9a 42 64
        E 0 9e 32 64
        E 958 87 47 64
        E 0 8a 42 64
        E 0 8e 32 64
        E 1 97 48 64
        E 0 9a 43 64
        E 1 9e 34 64
        E 957 87 48 64
        E 0 8a 43 64
        E 0 8e 34 64
        E 1 97 47 64
        E 0 9a 42 64
        E 1 9e 32 64
        E 1920 87 47 64
        E 0 8a 42 64
        E 0 8e 32 64
        E 0 97 4f 64
        E 0 9a 3b 64
        E 0 9e 34 64
        E 957 87 4f 64
        E 0 8a 3b 64
        E 0 8e 34 64
        E 0 97 4e 64
        E 1 9a 47 64
        E 0 9e 32 64
        E 1921 87 4e 64
        E 0 8a 47 64
        E 0 8e 32 64
        E 0 97 52 64
        E 1 9a 3d 64
        E 0 9e 36 64
        E 477 8e 36 64
        E 0 9e 37 64
        E 480 87 52 64
        E 0 8e 37 64
        E 1 97 4e 64
        E 0 9e 36 64
        E 481 8e 36 64
        E 1 9e 34 64
        E 479 87 4e 64
        E 0 8a 3d 64
        E 0 8e 34 64
        E 0 97 53 64
        E 1 9a 42 64
        E 0 9e 32 64
        E 479 8e 32 64
        E 0 9e 31 64
        E 477 87 53 64
        E 0 8a 42 64
        E 0 8e 31 64
        E 0 97 4a 64
        E 0 9a 42 64
        E 1 9e 2f 64
        E 482 8a 42 64
        E 0 8e 2f 64
        E 0 9a 43 64
        E 1 9e 34 64
        E 480 87 4a 64
        E 1 8a 43 64
        E 0 8e 34 64
        E 0 97 49 64
        E 1 9a 3a 64
        E 0 9e 36 64
        E 958 8a 3a 64
        E 0 8e 36 64
        E 1 9a 42 64
        E 0 9e 2a 64
        E 956 87 49 64
        E 0 8a 42 64
        E 0 8e 2a 64
        E 1 97 47 64
        E 0 9a 47 64
        E 1 9e 3b 64
        E 958 87 47 64
        E 0 8a 47 64
        E 1 8e 3b 64
        E 0 97 45 64
        E 1 9a 45 64
        E 0 9e 39 64
        E 959 87 45 64
        E 0 8a 45 64
        E 0 8e 39 64
        E 1 97 43 64
        E 0 9a 43 64
        E 0 9e 37 64
        E 961 87 43 64
        E 0 8a 43 64
        E 1 8e 37 64
        E 0 97 42 64
        E 0 9a 42 64
        E 0 9e 36 64
        E 957 87 42 64
        E 0 8a 42 64
        E 1 8e 36 64
        E 1 97 40 64
        E 0 9a 40 64
        E 0 9e 34 64
        E 959 87 40 64
        E 0 8a 40 64
        E 1 8e 34 64
        E 0 97 3e 64
        E 0 9a 3e 64
        E 0 9e 32 64
        E 959 87 3e 64
        E 0 8a 3e 64
        E 1 8e 32 64
        E 1 97 43 64
        E 0 9a 43 64
        E 0 9e 37 64
        E 956 87 43 64
        E 0 8a 43 64
        E 0 8e 37 64
        E 0 97 42 64
        E 0 9a 42 64
        E 0 9e 36 64
        E 961 87 42 64
        E 0 8a 42 64
        E 1 8e 36 64
        E 0 97 40 64
        E 1 9a 40 64
        E 0 9e 34 64
        E 961 87 40 64
        E 0 8a 40 64
        E 1 8e 34 64
        E 0 97 3e 64
        E 0 9a 3e 64
        E 1 9e 32 64
        E 954 87 3e 64
        E 0 8a 3e 64
        E 0 8e 32 64
        E 0 97 3d 64
        E 1 9a 3d 64
        E 0 9e 31 64
        E 960 87 3d 64
        E 1 8a 3d 64
        E 0 8e 31 64
        E 0 97 3b 64
        E 0 9a 3b 64
        E 1 9e 2f 64
        E 959 87 3b 64
        E 0 8a 3b 64
        E 0 8e 2f 64
        E 0 97 3e 64
        E 1 9a 3e 64
        E 0 9e 32 64
        E 477 87 3e 64
        E 0 8a 3e 64
        E 1 8e 32 64
        E 0 97 40 64
        E 1 9a 40 64
        E 0 9e 34 64
        E 481 87 40 64
        E 0 8a 40 64
        E 0 8e 34 64
        E 0 97 42 64
        E 0 9a 42 64
        E 0 9e 36 64
        E 957 87 42 64
        E 0 8a 42 64
        E 0 8e 36 64
        E 0 97 42 64
        E 0 9a 36 64
        E 0 9e 2a 64
        E 960 87 42 64
        E 0 8a 36 64
        E 0 8e 2a 64
        E 1 97 3b 64
        E 0 9a 3b 64
        E 1 9e 2f 64
        E 1922 87 3b 64
        E 0 8a 3b 64
        E 0 8e 2f 64
        E 0 9d 47 64
        E 959 8d 47 64
        E 1 9d 42 64
        E 2880 8d 42 64
        E 0 97 3e 64
        E 1 9a 3b 64
        E 0 9d 42 64
        E 476 87 3e 64
        E 0 8a 3b 64
        E 0 97 40 64
        E 1 9a 3d 64
        E 479 87 40 64
        E 1 8a 3d 64
        E 0 97 42 64
        E 0 9a 3e 64
        E 959 87 42 64
        E 0 8a 3e 64
        E 1 97 40 64
        E 0 9a 3d 64
        E 961 87 40 64
        E 0 8a 3d 64
        E 1 8d 42 64
        E 0 97 3e 64
        E 0 9a 3b 64
        E 1 9d 42 64
        E 474 87 3e 64
        E 1 8a 3b 64
        E 0 97 40 64
        E 0 9a 3d 64
        E 482 87 40 64
        E 0 8a 3d 64
        E 1 97 42 64
        E 0 9a 3e 64
        E 959 87 42 64
        E 0 8a 3e 64
        E 0 97 40 64
        E 1 9a 3d 64
        E 958 87 40 64
        E 0 8a 3d 64
        E 1 8d 42 64
        E 0 97 3e 64
        E 0 9a 3b 64
        E 0 9d 42 64
        E 479 87 3e 64
        E 1 8a 3b 64
        E 0 97 40 64
        E 0 9a 3d 64
        E 481 87 40 64
        E 0 8a 3d 64
        E 0 97 42 64
        E 1 9a 3e 64
        E 958 87 42 64
        E 1 8a 3e 64
        E 0 8d 42 64
        E 0 97 40 64
        E 0 9a 3d 64
        E 1 9d 42 64
        E 957 87 40 64
        E 0 8a 3d 64
        E 0 8d 42 64
        E 0 97 3e 64
        E 1 9a 3b 64
        E 0 9d 47 64
        E 0 9e 2f 64
        E 480 8d 47 64
        E 0 9d 49 64
        E 479 8d 49 64
        E 1 9d 4a 64
        E 960 87 3e 64
        E 0 8a 3b 64
        E 0 8d 4a 64
        E 0 8e 2f 64
        E 0 9d 49 64
        E 1 9e 2e 64
        E 960 8d 49 64
        E 0 8e 2e 64
        E 0 9d 47 64
        E 0 9e 2f 64
        E 959 8d 47 64
        E 0 8e 2f 64
        E 1 9d 45 64
        E 0 9e 31 64
        E 959 8d 45 64
        E 0 9d 43 64
        E 963 8d 43 64
        E 0 8e 31 64
        E 1 9d 42 64
        E 0 9e 32 64
        E 475 8e 32 64
        E 0 9e 31 64
        E 478 8d 42 64
        E 0 8e 31 64
        E 0 9d 47 64
        E 0 9e 2f 64
        E 964 8d 47 64
        E 0 8e 2f 64
        E 1 9d 49 64
        E 0 9e 2e 64
        E 961 8d 49 64
        E 1 8e 2e 64
        E 0 9d 4a 64
        E 0 9e 2f 64
        E 956 8d 4a 64
        E 1 9d 49 64
        E 959 8d 49 64
        E 0 9d 47 64
        E 957 8d 47 64
        E 1 8e 2f 64
        E 0 97 3e 64
        E 0 9a 3b 64
        E 1 9e 2f 64
        E 480 87 3e 64
        E 1 8a 3b 64
        E 0 8e 2f 64
        E 0 97 40 64
        E 1 9a 3d 64
        E 0 9e 31 64
        E 481 87 40 64
        E 0 8a 3d 64
        E 0 8e 31 64
        E 1 97 42 64
        E 0 9a 3e 64
        E 0 9e 32 64
        E 956 87 42 64
        E 0 8a 3e 64
        E 1 8e 32 64
        E 0 97 40 64
        E 1 9a 3d 64
        E 0 9e 31 64
        E 959 87 40 64
        E 0 8a 3d 64
        E 1 8e 31 64
        E 0 97 3e 64
        E 0 9a 3b 64
        E 0 9e 2f 64
        E 480 87 3e 64
        E 0 8a 3b 64
        E 0 8e 2f 64
        E 1 97 40 64
        E 0 9a 3d 64
        E 0 9e 31 64
        E 476 87 40 64
        E 0 8a 3d 64
        E 1 8e 31 64
        E 0 97 42 64
        E 1 9a 3e 64
        E 0 9e 32 64
        E 961 87 42 64
        E 0 8a 3e 64
        E 0 8e 32 64
        E 0 97 40 64
        E 1 9a 3d 64
        E 0 9e 31 64
        E 958 87 40 64
        E 0 8a 3d 64
        E 0 8e 31 64
        E 0 97 3e 64
        E 1 9a 3b 64
        E 0 9d 42 64
        E 0 9e 2f 64
        E 1918 87 3e 64
        E 0 8a 3b 64
        E 0 8d 42 64
        E 0 8e 2f 64
        E 1 9d 42 64
        E 960 8d 42 64
        E 0 97 43 64
        E 0 9a 40 64
        E 0 9d 43 64
        E 480 87 43 64
        E 0 8a 40 64
        E 1 97 45 64
        E 0 9a 42 64
        E 476 87 45 64
        E 1 8a 42 64
        E 0 97 47 64
        E 0 9a 43 64
        E 961 87 47 64
        E 1 8a 43 64
        E 0 97 45 64
        E 1 9a 42 64
        E 959 87 45 64
        E 1 8a 42 64
        E 0 8d 43 64
        E 0 97 43 64
        E 1 9a 40 64
        E 0 9d 43 64
        E 477 87 43 64
        E 0 8a 40 64
        E 0 97 45 64
        E 1 9a 42 64
        E 478 87 45 64
        E 0 8a 42 64
        E 1 97 47 64
        E 0 9a 43 64
        E 959 87 47 64
        E 0 8a 43 64
        E 0 97 43 64
        E 0 9a 40 64
        E 960 87 43 64
        E 1 8a 40 64
        E 0 8d 43 64
        E 0 97 49 64
        E 0 9a 39 64
        E 0 9d 43 64
        E 1 9e 2d 64
        E 479 8d 43 64
        E 1 9d 45 64
        E 481 8d 45 64
        E 0 9d 47 64
        E 959 87 49 64
        E 0 8a 39 64
        E 1 8d 47 64
        E 1 8e 2d 64
        E 0 9d 45 64
        E 957 8d 45 64
        E 1 9d 43 64
        E 0 9e 2d 64
        E 480 8d 43 64
        E 1 9d 45 64
        E 478 8d 45 64
        E 0 9d 47 64
        E 960 8d 47 64
        E 0 8e 2d 64
        E 1 9d 43 64
        E 961 8d 43 64
        E 0 97 42 64
        E 1 9a 3e 64
        E 0 9d 42 64
        E 0 9e 32 64
        E 477 87 42 64
        E 0 8a 3e 64
        E 0 97 43 64
        E 1 9a 40 64
        E 479 87 43 64
        E 1 8a 40 64
        E 0 97 45 64
        E 0 9a 42 64
        E 959 87 45 64
        E 1 8a 42 64
        E 0 8e 32 64
        E 0 97 43 64
        E 1 9a 40 64
        E 959 87 43 64
        E 1 8a 40 64
        E 0 8d 42 64
        E 0 97 42 64
        E 1 9a 3e 64
        E 0 9d 42 64
        E 475 87 42 64
        E 0 8a 3e 64
        E 0 97 43 64
        E 1 9a 40 64
        E 481 87 43 64
        E 0 8a 40 64
        E 1 97 45 64
        E 0 9a 42 64
        E 959 87 45 64
        E 1 8a 42 64
        E 0 97 42 64
        E 0 9a 3e 64
        E 960 87 42 64
        E 1 8a 3e 64
        E 0 8d 42 64
        E 0 97 47 64
        E 1 9a 37 64
        E 0 9d 42 64
        E 0 9e 2b 64
        E 477 8d 42 64
        E 0 9d 43 64
        E 484 8d 43 64
        E 0 9d 45 64
        E 957 87 47 64
        E 0 8a 37 64
        E 0 8d 45 64
        E 0 8e 2b 64
        E 1 9d 43 64
        E 960 8d 43 64
        E 0 9d 42 64
        E 1 9e 37 64
        E 479 8d 42 64
        E 0 9d 43 64
        E 480 8d 43 64
        E 0 9d 45 64
        E 960 8d 45 64
        E 0 8e 37 64
        E 1 9d 42 64
        E 957 8d 42 64
        E 0 97 43 64
        E 1 9a 40 64
        E 0 9d 40 64
        E 0 9e 37 64
        E 478 87 43 64
        E 0 8a 40 64
        E 1 97 45 64
        E 0 9a 42 64
        E 479 87 45 64
        E 0 8a 42 64
        E 1 97 47 64
        E 0 9a 43 64
        E 961 87 47 64
        E 1 8a 43 64
        E 0 8e 37 64
        E 1 97 45 64
        E 0 9a 42 64
        E 958 87 45 64
        E 0 8a 42 64
        E 1 8d 40 64
        E 0 97 43 64
        E 0 9a 40 64
        E 1 9d 40 64
        E 477 87 43 64
        E 0 8a 40 64
        E 0 97 45 64
        E 1 9a 42 64
        E 479 87 45 64
        E 0 8a 42 64
        E 1 97 47 64
        E 0 9a 43 64
        E 959 87 47 64
        E 0 8a 43 64
        E 0 97 43 64
        E 0 9a 40 64
        E 962 8d 40 64
        E 0 87 43 64
        E 1 8a 40 64
        E 0 9d 40 64
        E 0 97 49 64
        E 0 9a 3a 64
        E 0 9e 36 64
        E 479 8d 40 64
        E 0 9d 42 64
        E 480 8d 42 64
        E 0 9d 43 64
        E 960 8d 43 64
        E 0 87 49 64
        E 0 8a 3a 64
        E 1 8e 36 64
        E 0 9d 42 64
        E 957 8d 42 64
        E 0 9d 40 64
        E 0 9e 36 64
        E 479 8d 40 64
        E 0 9d 42 64
        E 482 8d 42 64
        E 0 9d 43 64
        E 961 8d 43 64
        E 0 8e 36 64
        E 0 9d 40 64
        E 956 8d 40 64
        E 1 9d 3e 64
        E 0 9e 2f 64
        E 962 8d 3e 64
        E 0 9d 3d 64
        E 960 8d 3d 64
        E 0 8e 2f 64
        E 1 9d 3e 64
        E 958 8d 3e 64
        E 1 97 3e 64
        E 0 9a 3b 64
        E 0 9e 2f 64
        E 478 87 3e 64
        E 1 8a 3b 64
        E 0 8e 2f 64
        E 0 97 40 64
        E 0 9a 3d 64
        E 0 9e 31 64
        E 481 87 40 64
        E 0 8a 3d 64
        E 0 8e 31 64
        E 0 97 42 64
        E 1 9a 3e 64
        E 0 9e 32 64
        E 960 87 42 64
        E 0 8a 3e 64
        E 0 8e 32 64
        E 0 97 40 64
        E 1 9a 3d 64
        E 0 9e 31 64
        E 957 87 40 64
        E 0 8a 3d 64
        E 0 8e 31 64
        E 0 97 3e 64
        E 1 9a 3b 64
        E 0 9d 47 64
        E 0 9e 2f 64
        E 479 87 3e 64
        E 0 8a 3b 64
        E 0 8e 2f 64
        E 0 97 40 64
        E 0 9a 3d 64
        E 0 9e 31 64
        E 478 87 40 64
        E 1 8a 3d 64
        E 0 8e 31 64
        E 0 97 42 64
        E 1 9a 3e 64
        E 0 9e 32 64
        E 959 87 42 64
        E 1 8a 3e 64
        E 0 8d 47 64
        E 0 8e 32 64
        E 0 97 3e 64
        E 1 9a 3b 64
        E 0 9d 47 64
        E 1 9e 2f 64
        E 959 87 3e 64
        E 0 8a 3b 64
        E 0 8d 47 64
        E 1 8e 2f 64
        E 0 97 44 64
        E 0 9a 41 63
        E 0 9d 47 64
        E 1 9e 31 64
        E 959 8d 47 64
        E 0 8e 31 64
        E 0 9d 45 64
        E 0 9e 33 64
        E 959 87 44 64
        E 0 8a 41 63
        E 0 8d 45 64
        E 1 8e 33 64
        E 0 9d 44 64
        E 0 9e 35 63
        E 957 8d 44 64
        E 0 8e 35 63
        E 0 9d 45 64
        E 0 9e 36 64
        E 482 8e 36 64
        E 0 9e 38 64
        E 481 8d 45 64
        E 0 8e 38 64
        E 0 9d 44 64
        E 0 9e 39 64
        E 958 8d 44 64
        E 0 8e 39 64
        E 1 9d 42 64
        E 0 9e 3b 64
        E 962 8d 42 64
        E 0 8e 3b 64
        E 1 9d 41 63
        E 0 9e 3d 64
        E 1436 8e 3d 64
        E 0 9e 3b 64
        E 483 8d 41 63
        E 0 8e 3b 64
        E 0 9d 42 64
        E 0 9e 39 64
        E 479 8e 39 64
        E 0 9e 38 64
        E 480 8d 42 64
        E 1 8e 38 64
        E 0 9d 42 64
        E 1 9e 36 64
        E 956 8d 42 64
        E 1 8e 36 64
        E 0 9d 44 64
        E 0 9e 3d 64
        E 962 8e 3d 64
        E 1 9e 31 64
        E 957 8d 44 64
        E 0 8e 31 64
        E 1 97 55 64
        E 0 9a 45 64
        E 1 9d 42 64
        E 0 9e 36 64
        E 956 87 55 64
        E 0 8a 45 64
        E 1 97 51 64
        E 0 9a 49 64
        E 960 87 51 64
        E 0 8a 49 64
        E 1 8e 36 64
        E 0 97 50 64
        E 1 9a 41 63
        E 0 9e 3d 64
        E 961 87 50 64
        E 0 8a 41 63
        E 0 8d 42 64
        E 0 8e 3d 64
        E 0 97 4e 64
        E 0 9a 3d 64
        E 0 9e 36 64
        E 959 87 4e 64
        E 0 8a 3d 64
        E 1 97 49 64
        E 0 9a 45 64
        E 957 87 49 64
        E 1 8a 45 64
        E 0 8e 36 64
        E 0 97 47 64
        E 0 9a 41 63
        E 1 9e 3d 64
        E 957 87 47 64
        E 0 8a 41 63
        E 1 8e 3d 64
        E 0 97 45 64
        E 1 9a 3d 64
        E 1 9e 36 64
        E 476 87 45 64
        E 0 97 44 64
        E 482 87 44 64
        E 0 97 42 64
        E 960 87 42 64
        E 1 8a 3d 64
        E 1 8e 36 64
        E 0 97 41 63
        E 0 9a 3d 64
        E 1 9e 31 64
        E 960 87 41 63
        E 0 8a 3d 64
        E 1 8e 31 64
        E 0 97 42 64
        E 0 9a 42 64
        E 1 9e 36 64
        E 475 87 42 64
        E 0 8a 42 64
        E 1 8e 36 64
        E 0 97 44 64
        E 1 9a 44 64
        E 0 9e 38 64
        E 480 87 44 64
        E 0 8a 44 64
        E 0 8e 38 64
        E 0 97 45 64
        E 1 9a 45 64
        E 0 9e 39 64
        E 957 87 45 64
        E 0 8a 45 64
        E 0 8e 39 64
        E 1 97 44 64
        E 0 9a 44 64
        E 0 9e 38 64
        E 959 87 44 64
        E 0 8a 44 64
        E 1 8e 38 64
        E 0 97 42 64
        E 0 9a 42 64
        E 0 9e 36 64
        E 480 87 42 64
        E 0 8a 42 64
        E 1 8e 36 64
        E 0 97 44 64
        E 0 9a 44 64
        E 1 9e 38 64
        E 477 87 44 64
        E 1 8a 44 64
        E 0 8e 38 64
        E 0 97 45 64
        E 0 9a 45 64
        E 1 9e 39 64
        E 960 87 45 64
        E 0 8a 45 64
        E 0 8e 39 64
        E 1 97 44 64
        E 0 9a 44 64
        E 0 9e 38 64
        E 956 87 44 64
        E 1 8a 44 64
        E 0 8e 38 64
        E 0 97 42 64
        E 0 9a 42 64
        E 1 9e 36 64
        E 479 87 42 64
        E 0 8a 42 64
        E 1 8e 36 64
        E 0 97 44 64
        E 0 9a 44 64
        E 1 9e 38 64
        E 479 87 44 64
        E 0 8a 44 64
        E 0 8e 38 64
        E 0 97 45 64
        E 0 9a 45 64
        E 1 9e 39 64
        E 958 87 45 64
        E 0 8a 45 64
        E 0 8e 39 64
        E 0 97 47 64
        E 1 9a 47 64
        E 0 9e 3b 64
        E 962 87 47 64
        E 0 8a 47 64
        E 0 8e 3b 64
        E 0 97 49 64
        E 0 9a 49 64
        E 0 9d 44 64
        E 0 9e 3d 64
        E 2877 87 49 64
        E 0 8a 49 64
        E 1 8d 44 64
        E 0 8e 3d 64
        E 0 9d 44 64
        E 1 9e 35 63
        E 480 8e 35 63
        E 0 9e 36 64
        E 478 8e 36 64
        E 0 9e 38 64
        E 962 8e 38 64
        E 0 9e 36 64
        E 959 8d 44 64
        E 0 8e 36 64
        E 0 9d 3d 64
        E 1 9e 35 63
        E 957 8e 35 63
        E 1 9e 33 64
        E 959 8d 3d 64
        E 0 8e 33 64
        E 1 9d 47 64
        E 0 9e 31 64
        E 962 8d 47 64
        E 0 8e 31 64
        E 1 9d 45 64
        E 0 9e 36 64
        E 957 8d 45 64
        E 0 9d 44 64
        E 960 8d 44 64
        E 0 9d 42 64
        E 960 8d 42 64
        E 0 8e 36 64
        E 0 9d 47 64
        E 0 9e 35 63
        E 481 8e 35 63
        E 0 9e 36 64
        E 479 8e 36 64
        E 0 9e 38 64
        E 961 8d 47 64
        E 0 8e 38 64
        E 0 9d 44 64
        E 0 9e 35 63
        E 960 8d 44 64
        E 0 8e 35 63
        E 1 97 45 64
        E 0 9a 42 64
        E 1 9d 45 64
        E 0 9e 36 64
        E 477 87 45 64
        E 0 8a 42 64
        E 1 97 47 64
        E 1 9a 44 64
        E 480 87 47 64
        E 0 8a 44 64
        E 1 97 49 64
        E 0 9a 45 64
        E 958 87 49 64
        E 0 8a 45 64
        E 1 8e 36 64
        E 0 97 47 64
        E 1 9a 44 64
        E 956 87 47 64
        E 0 8a 44 64
        E 0 8d 45 64
        E 1 97 45 64
        E 0 9a 42 64
        E 482 87 45 64
        E 0 8a 42 64
        E 0 97 47 64
        E 0 9a 44 64
        E 480 87 47 64
        E 0 8a 44 64
        E 0 97 49 64
        E 1 9a 45 64
        E 961 87 49 64
        E 1 8a 45 64
        E 1 97 47 64
        E 0 9a 44 64
        E 953 87 47 64
        E 0 8a 44 64
        E 0 97 45 64
        E 0 9a 42 64
        E 0 9d 45 64
        E 1 9e 36 64
        E 479 8e 36 64
        E 0 9e 37 64
        E 481 8e 37 64
        E 0 9e 39 64
        E 958 87 45 64
        E 0 8a 42 64
        E 1 8d 45 64
        E 0 8e 39 64
        E 1 9d 45 64
        E 0 9e 36 64
        E 961 8d 45 64
        E 0 8e 36 64
        E 1 9d 45 64
        E 0 9e 33 64
        E 479 8e 33 64
        E 0 9e 34 64
        E 481 8e 34 64
        E 0 9e 36 64
        E 956 8e 36 64
        E 1 9e 33 64
        E 964 8d 45 64
        E 0 8e 33 64
        E 1 9d 45 64
        E 0 9e 2f 64
        E 955 8d 45 64
        E 1 9d 43 64
        E 483 8d 43 64
        E 0 9d 42 64
        E 478 8d 42 64
        E 0 9d 40 64
        E 482 8d 40 64
        E 0 9d 3f 64
        E 479 8d 3f 64
        E 1 8e 2f 64
        E 0 9d 47 64
        E 0 9e 37 64
        E 479 8e 37 64
        E 0 9e 39 64
        E 481 8e 39 64
        E 0 9e 3b 64
        E 958 8e 3b 64
        E 0 9e 37 64
        E 957 8d 47 64
        E 1 8e 37 64
        E 0 9d 47 64
        E 0 9e 34 64
        E 962 8d 47 64
        E 1 9d 45 64
        E 478 8d 45 64
        E 0 9d 43 64
        E 481 8d 43 64
        E 0 9d 42 64
        E 478 8d 42 64
        E 0 9d 40 64
        E 482 8d 40 64
        E 0 8e 34 64
        E 1 9d 48 64
        E 0 9e 39 64
        E 479 8e 39 64
        E 0 9e 3b 64
        E 480 8e 3b 64
        E 0 9e 3c 64
        E 958 8e 3c 64
        E 0 9e 3b 64
        E 962 8d 48 64
        E 0 8e 3b 64
        E 0 9d 48 64
        E 1 9e 39 64
        E 479 8d 48 64
        E 0 9d 47 64
        E 479 8d 47 64
        E 0 9d 45 64
        E 481 8d 45 64
        E 1 9d 43 64
        E 476 8d 43 64
        E 0 9d 42 64
        E 482 8d 42 64
        E 0 9d 40 64
        E 480 8d 40 64
        E 1 8e 39 64
        E 0 9d 3f 64
        E 0 9e 3b 64
        E 481 8e 3b 64
        E 1 9e 39 64
        E 478 8d 3f 64
        E 0 8e 39 64
        E 0 9d 40 64
        E 1 9e 37 64
        E 478 8e 37 64
        E 0 9e 36 64
        E 479 8d 40 64
        E 0 8e 36 64
        E 0 9d 45 64
        E 0 9e 34 64
        E 483 8e 34 64
        E 1 9e 33 64
        E 476 8d 45 64
        E 0 8e 33 64
        E 1 9d 43 64
        E 0 9e 34 64
        E 481 8e 34 64
        E 0 9e 39 64
        E 480 8d 43 64
        E 1 8e 39 64
        E 0 9d 42 64
        E 0 9e 3b 64
        E 958 8e 3b 64
        E 0 9e 2f 64
        E 960 8d 42 64
        E 0 8e 2f 64
        E 0 97 53 64
        E 1 9a 43 64
        E 0 9d 40 64
        E 0 9e 34 64
        E 959 87 53 64
        E 0 8a 43 64
        E 0 97 4f 64
        E 0 9a 47 64
        E 960 87 4f 64
        E 1 8a 47 64
        E 0 8e 34 64
        E 1 97 4e 64
        E 0 9a 3f 64
        E 0 9e 3b 64
        E 959 87 4e 64
        E 0 8a 3f 64
        E 1 8d 40 64
        E 0 8e 3b 64
        E 0 97 4c 64
        E 1 9a 3b 64
        E 0 9e 34 64
        E 957 87 4c 64
        E 0 8a 3b 64
        E 0 97 47 64
        E 1 9a 43 64
        E 960 87 47 64
        E 0 8a 43 64
        E 0 8e 34 64
        E 1 97 45 64
        E 0 9a 3f 64
        E 0 9e 3b 64
        E 959 87 45 64
        E 1 8a 3f 64
        E 0 8e 3b 64
        E 0 97 43 64
        E 1 9a 3b 64
        E 0 9e 34 64
        E 478 87 43 64
        E 1 97 42 64
        E 479 87 42 64
        E 0 97 40 64
        E 958 87 40 64
        E 0 8a 3b 64
        E 1 8e 34 64
        E 0 97 3f 64
        E 0 9a 3b 64
        E 1 9e 2f 64
        E 957 87 3f 64
        E 1 8a 3b 64
        E 0 8e 2f 64
        E 0 97 40 64
        E 1 9a 40 64
        E 0 9e 34 64
        E 481 87 40 64
        E 0 8a 40 64
        E 0 8e 34 64
        E 0 97 42 64
        E 0 9a 42 64
        E 0 9e 36 64
        E 481 87 42 64
        E 1 8a 42 64
        E 0 8e 36 64
        E 0 97 43 64
        E 1 9a 43 64
        E 0 9e 37 64
        E 957 87 43 64
        E 1 8a 43 64
        E 0 8e 37 64
        E 0 97 42 64
        E 1 9a 42 64
        E 0 9e 36 64
        E 956 87 42 64
        E 0 8a 42 64
        E 0 8e 36 64
        E 0 97 40 64
        E 0 9a 40 64
        E 0 9e 34 64
        E 481 87 40 64
        E 0 8a 40 64
        E 1 8e 34 64
        E 0 97 42 64
        E 1 9a 42 64
        E 0 9e 36 64
        E 477 87 42 64
        E 0 8a 42 64
        E 0 8e 36 64
        E 0 97 43 64
        E 0 9a 43 64
        E 1 9e 37 64
        E 960 87 43 64
        E 0 8a 43 64
        E 0 8e 37 64
        E 1 97 42 64
        E 0 9a 42 64
        E 0 9e 36 64
        E 957 87 42 64
        E 0 8a 42 64
        E 1 8e 36 64
        E 0 97 40 64
        E 1 9a 40 64
        E 0 9d 47 64
        E 0 9e 34 64
        E 960 8d 47 64
        E 0 9d 43 64
        E 959 87 40 64
        E 0 8a 40 64
        E 1 8d 43 64
        E 0 8e 34 64
        E 0 9d 42 64
        E 1 9e 36 64
        E 958 8d 42 64
        E 0 8e 36 64
        E 0 9d 40 64
        E 1 9e 37 64
        E 962 8d 40 64
        E 0 9d 42 64
        E 957 8d 42 64
        E 0 8e 37 64
        E 1 9d 3e 64
        E 0 9e 38 64
        E 961 8d 3e 64
        E 1 8e 38 64
        E 0 9d 3d 64
        E 1 9e 39 64
        E 478 8d 3d 64
        E 0 9d 3e 64
        E 480 8d 3e 64
        E 0 9d 40 64
        E 957 8d 40 64
        E 1 8e 39 64
        E 0 9d 42 64
        E 1 9e 32 64
        E 961 8d 42 64
        E 0 8e 32 64
        E 0 9d 40 64
        E 1 9e 31 64
        E 478 8d 40 64
        E 1 8e 31 64
        E 0 9d 42 64
        E 1 9e 32 64
        E 477 8d 42 64
        E 0 8e 32 64
        E 0 9d 43 64
        E 0 9e 34 64
        E 960 8d 43 64
        E 0 8e 34 64
        E 0 9d 45 64
        E 1 9e 31 64
        E 958 8d 45 64
        E 0 8e 31 64
        E 0 9d 42 64
        E 1 9e 32 64
        E 480 8d 42 64
        E 0 9d 40 64
        E 481 8d 40 64
        E 0 9d 3e 64
        E 482 8d 3e 64
        E 0 9d 40 64
        E 479 8d 40 64
        E 0 8e 32 64
        E 1 9d 42 64
        E 479 8d 42 64
        E 0 9d 43 64
        E 481 8d 43 64
        E 0 9d 45 64
        E 0 9e 32 64
        E 956 8d 45 64
        E 0 9d 47 64
        E 483 8d 47 64
        E 0 9d 49 64
        E 482 8d 49 64
        E 0 8e 32 64
        E 0 9d 4a 64
        E 958 8d 4a 64
        E 0 9d 3e 64
        E 1 9e 32 64
        E 956 8d 3e 64
        E 0 8e 32 64
        E 0 9d 40 64
        E 0 9e 39 64
        E 960 8e 39 64
        E 0 9e 2d 64
        E 965 8d 40 64
        E 0 8e 2d 64
        E 1 97 51 64
        E 0 9a 42 64
        E 0 9d 3e 64
        E 1 9e 32 64
        E 955 87 51 64
        E 1 8a 42 64
        E 0 97 4e 64
        E 1 9a 45 64
        E 957 87 4e 64
        E 0 8a 45 64
        E 0 8e 32 64
        E 0 97 4c 64
        E 1 9a 3d 64
        E 0 9e 39 64
        E 959 87 4c 64
        E 1 8a 3d 64
        E 0 8d 3e 64
        E 0 8e 39 64
        E 0 97 4a 64
        E 0 9a 39 64
        E 1 9e 32 64
        E 961 87 4a 64
        E 0 8a 39 64
        E 1 97 45 64
        E 0 9a 42 64
        E 957 87 45 64
        E 0 8a 42 64
        E 0 8e 32 64
        E 0 97 43 64
        E 1 9a 3d 64
        E 0 9e 39 64
        E 960 87 43 64
        E 0 8a 3d 64
        E 0 8e 39 64
        E 1 97 42 64
        E 0 9a 39 64
        E 1 9e 32 64
        E 477 87 42 64
        E 0 97 40 64
        E 480 87 40 64
        E 0 97 3e 64
        E 961 87 3e 64
        E 0 8a 39 64
        E 0 8e 32 64
        E 0 97 3d 64
        E 1 9a 39 64
        E 0 9e 2d 64
        E 958 87 3d 64
        E 0 8a 39 64
        E 0 8e 2d 64
        E 1 97 3e 64
        E 0 9a 3e 64
        E 1 9e 32 64
        E 477 87 3e 64
        E 1 8a 3e 64
        E 0 8e 32 64
        E 0 97 40 64
        E 0 9a 40 64
        E 1 9e 34 64
        E 479 87 40 64
        E 0 8a 40 64
        E 1 8e 34 64
        E 0 97 42 64
        E 0 9a 42 64
        E 1 9e 36 64
        E 956 87 42 64
        E 1 8a 42 64
        E 0 8e 36 64
        E 0 97 40 64
        E 1 9a 40 64
        E 0 9e 34 64
        E 961 87 40 64
        E 0 8a 40 64
        E 1 8e 34 64
        E 1 97 3e 64
        E 0 9a 3e 64
        E 0 9e 32 64
        E 478 87 3e 64
        E 0 8a 3e 64
        E 0 8e 32 64
        E 1 97 40 64
        E 0 9a 40 64
        E 1 9e 34 64
        E 477 87 40 64
        E 0 8a 40 64
        E 0 8e 34 64
        E 0 97 42 64
        E 1 9a 42 64
        E 0 9e 36 64
        E 957 87 42 64
        E 0 8a 42 64
        E 1 8e 36 64
        E 0 97 40 64
        E 1 9a 40 64
        E 0 9e 34 64
        E 963 87 40 64
        E 0 8a 40 64
        E 0 8e 34 64
        E 0 97 3e 64
        E 1 9a 3e 64
        E 0 9d 42 64
        E 0 9e 32 64
        E 1914 87 3e 64
        E 0 8a 3e 64
        E 0 8e 32 64
        E 961 8d 42 64
        E 0 9d 42 64
        E 2882 8d 42 64
        E 0 97 3e 64
        E 0 9a 3b 64
        E 0 9d 42 64
        E 480 87 3e 64
        E 0 8a 3b 64
        E 0 97 40 64
        E 0 9a 3d 64
        E 477 87 40 64
        E 0 8a 3d 64
        E 1 97 42 64
        E 0 9a 3e 64
        E 962 87 42 64
        E 0 8a 3e 64
        E 0 97 40 64
        E 1 9a 3d 64
        E 959 87 40 64
        E 1 8a 3d 64
        E 0 8d 42 64
        E 0 97 3e 64
        E 1 9a 3b 64
        E 0 9d 42 64
        E 478 87 3e 64
        E 0 8a 3b 64
        E 0 97 40 64
        E 0 9a 3d 64
        E 478 87 40 64
        E 0 8a 3d 64
        E 0 97 42 64
        E 1 9a 3e 64
        E 962 87 42 64
        E 0 8a 3e 64
        E 1 97 40 64
        E 0 9a 3d 64
        E 957 87 40 64
        E 0 8a 3d 64
        E 1 8d 42 64
        E 0 97 3e 64
        E 1 9a 3b 64
        E 1 9d 42 64
        E 476 87 3e 64
        E 0 8a 3b 64
        E 0 97 40 64
        E 0 9a 3d 64
        E 481 87 40 64
        E 0 8a 3d 64
        E 1 97 42 64
        E 0 9a 3e 64
        E 960 87 42 64
        E 1 8a 3e 64
        E 0 8d 42 64
        E 0 97 40 64
        E 0 9a 3d 64
        E 1 9d 42 64
        E 958 87 40 64
        E 0 8a 3d 64
        E 1 8d 42 64
        E 0 97 3e 64
        E 0 9a 3b 64
        E 1 9d 47 64
        E 0 9e 2f 64
        E 476 8d 47 64
        E 0 9d 49 64
        E 481 8d 49 64
        E 1 9d 4a 64
        E 960 87 3e 64
        E 0 8a 3b 64
        E 0 8d 4a 64
        E 1 8e 2f 64
        E 0 9d 49 64
        E 0 9e 2e 64
        E 958 8d 49 64
        E 0 8e 2e 64
        E 0 9d 47 64
        E 1 9e 2f 64
        E 960 8d 47 64
        E 0 8e 2f 64
        E 1 9d 45 64
        E 0 9e 31 64
        E 958 8d 45 64
        E 1 9d 43 64
        E 958 8d 43 64
        E 0 8e 31 64
        E 0 9d 42 64
        E 1 9e 32 64
        E 481 8e 32 64
        E 0 9e 31 64
        E 476 8d 42 64
        E 0 8e 31 64
        E 1 9d 47 64
        E 0 9e 2f 64
        E 963 8d 47 64
        E 0 8e 2f 64
        E 0 9d 49 64
        E 0 9e 2e 64
        E 961 8d 49 64
        E 1 8e 2e 64
        E 0 9d 4a 64
        E 0 9e 2f 64
        E 959 8d 4a 64
        E 1 9d 49 64
        E 956 8d 49 64
        E 0 9d 47 64
        E 962 8d 47 64
        E 1 8e 2f 64
        E 0 97 3b 64
        E 1 9a 3b 64
        E 0 9e 2f 64
        E 479 87 3b 64
        E 0 8a 3b 64
        E 0 8e 2f 64
        E 0 97 3d 64
        E 1 9a 3d 64
        E 0 9e 31 64
        E 477 87 3d 64
        E 1 8a 3d 64
        E 0 8e 31 64
        E 1 97 3e 64
        E 0 9a 3e 64
        E 1 9d 42 64
        E 0 9e 32 64
        E 957 87 3e 64
        E 0 8a 3e 64
        E 0 8d 42 64
        E 1 8e 32 64
        E 0 97 3b 64
        E 0 9a 3b 64
        E 0 9d 47 64
        E 1 9e 2f 64
        E 958 87 3b 64
        E 1 8a 3b 64
        E 0 8d 47 64
        E 0 8e 2f 64
        E 1 97 40 64
        E 0 9a 40 64
        E 1 9d 43 64
        E 0 9e 34 64
        E 478 87 40 64
        E 0 8a 40 64
        E 0 8e 34 64
        E 1 97 42 64
        E 0 9a 42 64
        E 0 9e 36 64
        E 480 87 42 64
        E 0 8a 42 64
        E 0 8e 36 64
        E 0 97 43 64
        E 1 9a 43 64
        E 0 9e 37 64
        E 957 87 43 64
        E 0 8a 43 64
        E 0 8e 37 64
        E 0 97 42 64
        E 1 9a 42 64
        E 0 9e 36 64
        E 957 87 42 64
        E 0 8a 42 64
        E 0 8d 43 64
        E 1 8e 36 64
        E 0 97 40 64
        E 1 9a 40 64
        E 0 9d 43 64
        E 1 9e 34 64
        E 958 8d 43 64
        E 0 9d 47 64
        E 961 87 40 64
        E 0 8a 40 64
        E 1 8d 47 64
        E 0 8e 34 64
        E 0 9d 45 64
        E 961 8d 45 64
        E 1 97 3e 64
        E 0 9a 3e 64
        E 1 9d 44 64
        E 0 9e 32 64
        E 955 8d 44 64
        E 1 9d 42 64
        E 961 87 3e 64
        E 0 8a 3e 64
        E 1 8d 42 64
        E 0 8e 32 64
        E 1 9d 40 64
        E 959 8d 40 64
        E 0 97 39 64
        E 0 9a 39 64
        E 1 9d 45 64
        E 0 9e 2d 64
        E 476 87 39 64
        E 0 8a 39 64
        E 1 8e 2d 64
        E 0 97 3b 64
        E 1 9a 3b 64
        E 0 9e 2f 64
        E 479 87 3b 64
        E 0 8a 3b 64
        E 0 8e 2f 64
        E 1 97 3d 64
        E 0 9a 3d 64
        E 1 9e 31 64
        E 959 87 3d 64
        E 0 8a 3d 64
        E 1 8e 31 64
        E 0 97 3b 64
        E 0 9a 3b 64
        E 1 9e 2f 64
        E 958 87 3b 64
        E 0 8a 3b 64
        E 1 8d 45 64
        E 0 8e 2f 64
        E 1 97 39 64
        E 0 9a 39 64
        E 0 9d 45 64
        E 1 9e 2d 64
        E 956 8d 45 64
        E 0 9d 49 64
        E 961 87 39 64
        E 1 8a 39 64
        E 0 8d 49 64
        E 0 8e 2d 64
        E 1 9d 47 64
        E 958 8d 47 64
        E 0 97 42 64
        E 0 9a 42 64
        E 1 9d 46 64
        E 0 9e 36 64
        E 958 8d 46 64
        E 0 9d 44 64
        E 960 87 42 64
        E 0 8a 42 64
        E 0 8d 44 64
        E 0 8e 36 64
        E 0 97 40 64
        E 0 9a 40 64
        E 0 9d 42 64
        E 1 9e 34 64
        E 960 87 40 64
        E 0 8a 40 64
        E 1 8d 42 64
        E 1 8e 34 64
        E 0 97 3e 64
        E 0 9a 3b 64
        E 1 9d 47 64
        E 0 9e 2f 64
        E 479 87 3e 64
        E 0 8a 3b 64
        E 0 8e 2f 64
        E 0 97 40 64
        E 0 9a 3d 64
        E 0 9e 31 64
        E 478 87 40 64
        E 1 8a 3d 64
        E 0 8e 31 64
        E 0 97 42 64
        E 0 9a 3e 64
        E 0 9e 32 64
        E 960 87 42 64
        E 1 8a 3e 64
        E 0 8d 47 64
        E 1 8e 32 64
        E 0 97 40 64
        E 1 9a 3d 64
        E 0 9d 42 64
        E 0 9e 31 64
        E 953 87 40 64
        E 1 8a 3d 64
        E 0 8d 42 64
        E 0 8e 31 64
        E 1 97 3e 64
        E 0 9a 3b 64
        E 1 9e 2f 64
        E 481 87 3e 64
        E 0 8a 3b 64
        E 1 8e 2f 64
        E 0 97 40 64
        E 0 9a 3d 64
        E 1 9e 31 64
        E 474 87 40 64
        E 0 8a 3d 64
        E 0 8e 31 64
        E 1 97 42 64
        E 0 9a 3e 64
        E 1 9e 32 64
        E 961 87 42 64
        E 1 8a 3e 64
        E 0 8e 32 64
        E 1 97 40 64
        E 0 9a 3d 64
        E 1 9e 31 64
        E 956 87 40 64
        E 0 8a 3d 64
        E 1 8e 31 64
        E 0 97 3e 64
        E 1 9a 3b 64
        E 0 9e 2f 64
        E 477 87 3e 64
        E 0 8a 3b 64
        E 1 8e 2f 64
        E 0 97 40 64
        E 0 9a 3d 64
        E 1 9e 31 64
        E 481 87 40 64
        E 1 8a 3d 64
        E 0 8e 31 64
        E 1 97 42 64
        E 0 9a 3e 64
        E 1 9e 32 64
        E 954 87 42 64
        E 1 8a 3e 64
        E 0 8e 32 64
        E 1 97 3e 64
        E 0 9a 3b 64
        E 0 9e 2f 64
        E 962 87 3e 64
        E 0 8a 3b 64
        E 1 8e 2f 64
        E 0 97 47 64
        E 1 9a 43 64
        E 0 9d 40 64
        E 0 9e 34 64
        E 476 8d 40 64
        E 1 9d 42 64
        E 480 8d 42 64
        E 1 9d 43 64
        E 958 87 47 64
        E 1 8a 43 64
        E 0 8d 43 64
        E 1 8e 34 64
        E 0 97 3b 64
        E 0 9a 3b 64
        E 0 9d 42 64
        E 957 87 3b 64
        E 0 8a 3b 64
        E 0 8d 42 64
        E 1 97 40 64
        E 0 9a 40 64
        E 0 9d 40 64
        E 479 8d 40 64
        E 0 9d 42 64
        E 481 8d 42 64
        E 0 9d 43 64
        E 958 87 40 64
        E 1 8a 40 64
        E 0 8d 43 64
        E 0 97 3b 64
        E 0 9a 3b 64
        E 1 9d 42 64
        E 959 87 3b 64
        E 0 8a 3b 64
        E 0 8d 42 64
        E 1 97 40 64
        E 0 9a 40 64
        E 1 9d 40 64
        E 479 8d 40 64
        E 0 9d 42 64
        E 482 8d 42 64
        E 0 9d 43 64
        E 957 87 40 64
        E 0 8a 40 64
        E 0 8d 43 64
        E 1 97 40 64
        E 0 9a 40 64
        E 0 9d 40 64
        E 958 87 40 64
        E 1 8a 40 64
        E 0 8d 40 64
        E 0 97 42 64
        E 1 9a 42 64
        E 1 9d 46 64
        E 1439 87 42 64
        E 0 8a 42 64
        E 1 97 40 64
        E 0 9a 40 64
        E 478 87 40 64
        E 0 8a 40 64
        E 1 8d 46 64
        E 0 97 3e 64
        E 0 9a 3e 64
        E 1 9d 47 64
        E 481 87 3e 64
        E 0 8a 3e 64
        E 0 97 3d 64
        E 1 9a 3d 64
        E 478 87 3d 64
        E 0 8a 3d 64
        E 0 8d 47 64
        E 0 97 3b 64
        E 1 9a 3b 64
        E 0 9d 47 64
        E 478 87 3b 64
        E 1 8a 3b 64
        E 0 8d 47 64
        E 0 97 40 64
        E 1 9a 40 64
        E 0 9d 44 64
        E 477 87 40 64
        E 0 8a 40 64
        E 1 8d 44 64
        E 0 97 42 64
        E 1 9a 42 64
        E 0 9d 46 64
        E 956 87 42 64
        E 0 8a 42 64
        E 0 97 42 64
        E 1 9a 36 64
        E 960 87 42 64
        E 1 8a 36 64
        E 0 8d 46 64
        E 1 97 3e 64
        E 0 9a 3b 64
        E 0 9d 47 64
        E 1 9e 2f 64
        E 477 87 3e 64
        E 0 8a 3b 64
        E 1 8e 2f 64
        E 1 97 40 64
        E 0 9a 3d 64
        E 0 9e 31 64
        E 480 87 40 64
        E 1 8a 3d 64
        E 0 8e 31 64
        E 0 97 42 64
        E 0 9a 3e 64
        E 0 9e 32 64
        E 959 87 42 64
        E 1 8a 3e 64
        E 0 8e 32 64
        E 0 97 40 64
        E 0 9a 3d 64
        E 0 9e 31 64
        E 958 87 40 64
        E 1 8a 3d 64
        E 0 8d 47 64
        E 0 8e 31 64
        E 0 97 3e 64
        E 1 9a 3b 64
        E 0 9e 2f 64
        E 478 87 3e 64
        E 0 8a 3b 64
        E 0 8e 2f 64
        E 0 97 40 64
        E 1 9a 3d 64
        E 0 9e 31 64
        E 481 87 40 64
        E 1 8a 3d 64
        E 0 8e 31 64
        E 0 97 42 64
        E 1 9a 3e 64
        E 0 9e 32 64
        E 957 87 42 64
        E 0 8a 3e 64
        E 0 8e 32 64
        E 0 97 40 64
        E 1 9a 3d 64
        E 0 9e 31 64
        E 959 87 40 64
        E 0 8a 3d 64
        E 1 8e 31 64
        E 1 97 3e 64
        E 0 9a 3b 64
        E 0 9e 2f 64
        E 479 87 3e 64
        E 0 8a 3b 64
        E 0 8e 2f 64
        E 0 97 40 64
        E 0 9a 3d 64
        E 0 9e 31 64
        E 481 87 40 64
        E 0 8a 3d 64
        E 0 8e 31 64
        E 0 97 42 64
        E 0 9a 3e 64
        E 0 9e 32 64
        E 961 87 42 64
        E 0 8a 3e 64
        E 0 8e 32 64
        E 0 97 40 64
        E 1 9a 3d 64
        E 0 9e 31 64
        E 957 87 40 64
        E 0 8a 3d 64
        E 1 8e 31 64
        E 0 97 3e 64
        E 0 9a 3b 64
        E 1 9d 47 64
        E 0 9e 2f 64
        E 476 8e 2f 64
        E 0 9e 31 64
        E 478 87 3e 64
        E 0 8d 47 64
        E 0 8e 31 64
        E 0 97 4a 64
        E 1 9d 42 64
        E 0 9e 32 64
        E 963 8a 3b 64
        E 0 8e 32 64
        E 0 9e 2f 64
        E 959 87 4a 64
        E 0 8d 42 64
        E 0 8e 2f 64
        E 1 97 4c 64
        E 0 9d 43 64
        E 0 9e 34 64
        E 957 87 4c 64
        E 0 8d 43 64
        E 0 8e 34 64
        E 0 97 4a 64
        E 0 9d 42 64
        E 0 9e 2f 64
        E 1921 87 4a 64
        E 0 8d 42 64
        E 0 8e 2f 64
        E 0 97 4e 64
        E 1 9d 47 64
        E 0 9e 2f 64
        E 479 8e 2f 64
        E 0 9e 31 64
        E 479 87 4e 64
        E 0 8d 47 64
        E 0 8e 31 64
        E 1 97 47 64
        E 0 9d 3e 64
        E 1 9e 32 64
        E 959 8e 32 64
        E 0 9e 2f 64
        E 961 87 47 64
        E 0 8d 3e 64
        E 0 8e 2f 64
        E 1 97 48 64
        E 0 9d 40 64
        E 0 9e 34 64
        E 960 87 48 64
        E 0 8d 40 64
        E 1 8e 34 64
        E 0 97 47 64
        E 0 9d 3e 64
        E 1 9e 2f 64
        E 1917 87 47 64
        E 1 8d 3e 64
        E 0 8e 2f 64
        E 1 97 47 64
        E 0 9d 43 64
        E 1 9e 34 64
        E 956 8d 43 64
        E 1 9d 42 64
        E 958 87 47 64
        E 1 8d 42 64
        E 0 9d 40 64
        E 959 8d 40 64
        E 0 8e 34 64
        E 1 9d 46 64
        E 0 9e 36 64
        E 1440 8e 36 64
        E 1 9e 34 64
        E 480 8d 46 64
        E 0 8e 34 64
        E 0 9d 47 64
        E 0 9e 32 64
        E 962 8d 47 64
        E 0 8e 32 64
        E 1 9d 47 64
        E 0 9e 34 64
        E 957 8d 47 64
        E 0 8e 34 64
        E 0 9d 46 64
        E 0 9e 36 64
        E 960 8e 36 64
        E 0 9e 2a 64
        E 959 8d 46 64
        E 0 8e 2a 64
        E 1 97 4e 64
        E 0 9a 42 64
        E 1 9d 47 64
        E 0 9e 2f 64
        E 477 8a 42 64
        E 1 8e 2f 64
        E 0 9a 40 64
        E 1 9e 31 64
        E 479 87 4e 64
        E 0 8a 40 64
        E 0 8e 31 64
        E 1 97 53 64
        E 0 9a 42 64
        E 1 9e 33 64
        E 959 8a 42 64
        E 0 8e 33 64
        E 0 9a 3f 64
        E 1 9e 2f 64
        E 957 87 53 64
        E 1 8a 3f 64
        E 0 8d 47 64
        E 0 8e 2f 64
        E 0 97 4f 64
        E 0 9a 3b 64
        E 1 9e 34 64
        E 479 87 4f 64
        E 0 97 51 64
        E 480 87 51 64
        E 1 8a 3b 64
        E 0 97 4f 64
        E 0 9a 47 64
        E 479 87 4f 64
        E 0 97 4e 64
        E 481 87 4e 64
        E 0 8a 47 64
        E 0 8e 34 64
        E 0 97 4c 64
        E 0 9a 43 64
        E 479 87 4c 64
        E 0 97 4a 64
        E 482 87 4a 64
        E 0 8a 43 64
        E 0 97 49 64
        E 0 9a 40 64
        E 0 9e 39 64
        E 479 8a 40 64
        E 0 8e 39 64
        E 0 9a 3e 64
        E 0 9e 3b 64
        E 479 87 49 64
        E 1 8a 3e 64
        E 0 8e 3b 64
        E 1 97 51 64
        E 0 9a 40 64
        E 0 9e 3d 64
        E 960 8a 40 64
        E 0 8e 3d 64
        E 0 9a 3d 64
        E 1 9e 39 64
        E 957 87 51 64
        E 0 8a 3d 64
        E 0 8e 39 64
        E 1 97 4e 64
        E 0 9a 39 64
        E 1 9e 32 64
        E 480 87 4e 64
        E 0 97 4f 64
        E 476 87 4f 64
        E 0 8a 39 64
        E 1 97 4e 64
        E 0 9a 45 64
        E 484 87 4e 64
        E 0 97 4c 64
        E 475 87 4c 64
        E 0 8a 45 64
        E 0 8e 32 64
        E 1 97 4a 64
        E 0 9a 42 64
        E 482 87 4a 64
        E 0 97 49 64
        E 479 87 49 64
        E 0 8a 42 64
        E 0 97 47 64
        E 1 9a 3e 64
        E 0 9e 37 64
        E 481 8a 3e 64
        E 1 8e 37 64
        E 0 9a 3d 64
        E 1 9e 39 64
        E 478 87 47 64
        E 1 8a 3d 64
        E 0 8e 39 64
        E 0 97 4f 64
        E 0 9a 3e 64
        E 1 9e 3b 64
        E 959 8a 3e 64
        E 0 8e 3b 64
        E 0 9a 3b 64
        E 1 9e 37 64
        E 953 87 4f 64
        E 1 8a 3b 64
        E 0 8e 37 64
        E 1 97 4c 64
        E 0 9a 3a 64
        E 1 9e 31 64
        E 481 87 4c 64
        E 0 97 4e 64
        E 479 87 4e 64
        E 0 97 4c 64
        E 480 87 4c 64
        E 0 97 4a 64
        E 481 87 4a 64
        E 0 8a 3a 64
        E 0 8e 31 64
        E 1 97 49 64
        E 481 87 49 64
        E 0 97 47 64
        E 477 87 47 64
        E 0 97 52 64
        E 1 9a 49 64
        E 0 9e 36 64
        E 479 8a 49 64
        E 1 8e 36 64
        E 0 9a 47 64
        E 1 9e 38 64
        E 479 87 52 64
        E 0 8a 47 64
        E 1 8e 38 64
        E 0 97 4e 64
        E 1 9a 49 64
        E 1 9e 3a 64
        E 958 8a 49 64
        E 0 8e 3a 64
        E 1 9a 46 64
        E 0 9e 36 64
        E 958 87 4e 64
        E 1 8a 46 64
        E 0 8e 36 64
        E 1 97 53 64
        E 0 9a 42 64
        E 0 9e 32 64
        E 480 8a 42 64
        E 0 8e 32 64
        E 0 9a 40 64
        E 1 9e 31 64
        E 474 87 53 64
        E 0 8a 40 64
        E 1 8e 31 64
        E 0 97 4e 64
        E 1 9a 3e 64
        E 0 9e 2f 64
        E 960 8a 3e 64
        E 0 8e 2f 64
        E 1 9a 47 64
        E 0 9e 32 64
        E 959 87 4e 64
        E 0 8a 47 64
        E 1 8e 32 64
        E 0 97 4f 64
        E 0 9a 47 64
        E 0 9e 34 64
        E 960 87 4f 64
        E 0 8a 47 64
        E 1 8e 34 64
        E 0 97 4e 64
        E 0 9a 47 64
        E 0 9e 32 64
        E 1918 87 4e 64
        E 0 8a 47 64
        E 1 8e 32 64
        E 0 97 53 64
        E 1 9a 42 64
        E 0 9e 32 64
        E 476 8a 42 64
        E 0 8e 32 64
        E 1 9a 40 64
        E 0 9e 31 64
        E 485 87 53 64
        E 0 8a 40 64
        E 1 8e 31 64
        E 1 97 47 64
        E 0 9a 3e 64
        E 0 9e 2f 64
        E 955 8a 3e 64
        E 0 8e 2f 64
        E 0 9a 42 64
        E 1 9e 32 64
        E 958 87 47 64
        E 0 8a 42 64
        E 0 8e 32 64
        E 1 97 48 64
        E 0 9a 43 64
        E 0 9e 34 64
        E 960 87 48 64
        E 0 8a 43 64
        E 1 8e 34 64
        E 0 97 47 64
        E 0 9a 42 64
        E 1 9e 32 64
        E 1916 87 47 64
        E 0 8a 42 64
        E 1 8e 32 64
        E 0 97 4f 64
        E 0 9a 3b 64
        E 1 9e 34 64
        E 960 87 4f 64
        E 0 8a 3b 64
        E 0 8e 34 64
        E 0 97 4e 64
        E 1 9a 47 64
        E 0 9e 32 64
        E 1920 87 4e 64
        E 1 8a 47 64
        E 0 8e 32 64
        E 1 97 52 64
        E 0 9a 3d 64
        E 0 9e 36 64
        E 478 8e 36 64
        E 0 9e 37 64
        E 479 87 52 64
        E 0 8e 37 64
        E 0 97 4e 64
        E 1 9e 36 64
        E 479 8e 36 64
        E 0 9e 34 64
        E 478 87 4e 64
        E 0 8a 3d 64
        E 1 8e 34 64
        E 0 97 53 64
        E 1 9a 42 64
        E 0 9e 32 64
        E 482 8e 32 64
        E 0 9e 31 64
        E 479 87 53 64
        E 0 8a 42 64
        E 1 8e 31 64
        E 0 97 4a 64
        E 0 9a 42 64
        E 0 9e 2f 64
        E 476 8a 42 64
        E 0 8e 2f 64
        E 1 9a 43 64
        E 0 9e 34 64
        E 480 87 4a 64
        E 0 8a 43 64
        E 0 8e 34 64
        E 1 97 49 64
        E 0 9a 3a 64
        E 1 9e 36 64
        E 958 8a 3a 64
        E 0 8e 36 64
        E 1 9a 42 64
        E 0 9e 2a 64
        E 958 87 49 64
        E 0 8a 42 64
        E 1 8e 2a 64
        E 0 97 47 64
        E 0 9a 47 64
        E 0 9e 3b 64
        E 964 87 47 64
        E 1 8a 47 64
        E 0 8e 3b 64
        E 0 97 45 64
        E 1 9a 45 64
        E 0 9e 39 64
        E 954 87 45 64
        E 0 8a 45 64
        E 0 8e 39 64
        E 0 97 43 64
        E 1 9a 43 64
        E 0 9e 37 64
        E 959 87 43 64
        E 0 8a 43 64
        E 0 8e 37 64
        E 0 97 42 64
        E 1 9a 42 64
        E 0 9e 36 64
        E 960 87 42 64
        E 1 8a 42 64
        E 0 8e 36 64
        E 1 97 40 64
        E 0 9a 40 64
        E 1 9e 34 64
        E 958 87 40 64
        E 0 8a 40 64
        E 0 8e 34 64
        E 0 97 3e 64
        E 1 9a 3e 64
        E 0 9e 32 64
        E 955 87 3e 64
        E 1 8a 3e 64
        E 0 8e 32 64
        E 0 97 43 64
        E 1 9a 43 64
        E 0 9e 37 64
        E 960 87 43 64
        E 0 8a 43 64
        E 0 8e 37 64
        E 0 97 42 64
        E 1 9a 42 64
        E 0 9e 36 64
        E 962 87 42 64
        E 0 8a 42 64
        E 0 8e 36 64
        E 1 97 40 64
        E 0 9a 40 64
        E 1 9e 34 64
        E 957 87 40 64
        E 1 8a 40 64
        E 0 8e 34 64
        E 0 97 3e 64
        E 1 9a 3e 64
        E 0 9e 32 64
        E 956 87 3e 64
        E 0 8a 3e 64
        E 0 8e 32 64
        E 1 97 3d 64
        E 0 9a 3d 64
        E 1 9e 31 64
        E 959 87 3d 64
        E 1 8a 3d 64
        E 1 8e 31 64
        E 0 97 3b 64
        E 0 9a 3b 64
        E 1 9e 2f 64
        E 954 87 3b 64
        E 0 8a 3b 64
        E 1 8e 2f 64
        E 0 97 3e 64
        E 0 9a 3e 64
        E 1 9e 32 64
        E 480 87 3e 64
        E 0 8a 3e 64
        E 0 8e 32 64
        E 0 97 40 64
        E 1 9a 40 64
        E 0 9e 34 64
        E 479 87 40 64
        E 0 8a 40 64
        E 1 8e 34 64
        E 0 97 42 64
        E 1 9a 42 64
        E 0 9e 36 64
        E 958 87 42 64
        E 0 8a 42 64
        E 0 8e 36 64
        E 0 97 42 64
        E 2 9a 36 64
        E 0 9e 2a 64
        E 961 87 42 64
        E 1 8a 36 64
        E 0 8e 2a 64
        E 0 97 3b 64
        E 1 9a 3b 64
        E 0 9e 2f 64
        E 4316 87 3b 64
        E 0 8a 3b 64
        E 1 8e 2f 64
        E 7678 94 3e 64
        E 1 95 3e 64
        E 0 98 3e 64
        E 1 9f 3e 64
        E 0 9a 3e 64
        E 0 9e 32 64
        E 477 84 3e 64
        E 0 85 3e 64
        E 1 88 3e 64
        E 0 8f 3e 64
        E 1 8a 3e 64
        E 0 8e 32 64
        E 1 94 4a 64
        E 0 95 4a 64
        E 1 98 4a 64
        E 0 9f 4a 64
        E 1 9a 4a 64
        E 0 9e 3e 64
        E 476 84 4a 64
        E 1 85 4a 64
        E 0 88 4a 64
        E 1 8f 4a 64
        E 0 8a 4a 64
        E 0 8e 3e 64
        E 1 94 3e 64
        E 0 95 3e 64
        E 0 98 3e 64
        E 0 9f 3e 64
        E 0 9a 3e 64
        E 1 9e 32 64
        E 478 84 3e 64
        E 0 85 3e 64
        E 1 88 3e 64
        E 0 8f 3e 64
        E 1 8a 3e 64
        E 0 8e 32 64
        E 0 94 3e 64
        E 1 95 3e 64
        E 1 98 3e 64
        E 0 9f 3e 64
        E 1 9a 3e 64
        E 0 9e 32 64
        E 473 84 3e 64
        E 0 85 3e 64
        E 1 88 3e 64
        E 0 8f 3e 64
        E 1 8a 3e 64
        E 0 8e 32 64
        E 1 94 3e 64
        E 0 95 3e 64
        E 0 98 3e 64
        E 1 9f 3e 64
        E 0 9a 3e 64
        E 0 9e 32 64
        E 475 84 3e 64
        E 0 85 3e 64
        E 0 88 3e 64
        E 1 8f 3e 64
        E 0 8a 3e 64
        E 0 8e 32 64
        E 1 94 4a 64
        E 0 95 4a 64
        E 1 98 4a 64
        E 1 9f 4a 64
        E 0 9a 4a 64
        E 0 9e 3e 64
        E 476 84 4a 64
        E 0 85 4a 64
        E 1 88 4a 64
        E 0 8f 4a 64
        E 0 8a 4a 64
        E 0 8e 3e 64
        E 1 94 3e 64
        E 0 95 3e 64
        E 1 98 3e 64
        E 0 9f 3e 64
        E 0 9a 3e 64
        E 0 9e 32 64
        E 477 84 3e 64
        E 0 85 3e 64
        E 1 88 3e 64
        E 0 8f 3e 64
        E 1 8a 3e 64
        E 0 8e 32 64
        E 0 94 3e 64
        E 0 95 3e 64
        E 0 98 3e 64
        E 1 9f 3e 64
        E 0 9a 3e 64
        E 1 9e 32 64
        E 475 84 3e 64
        E 1 85 3e 64
        E 0 88 3e 64
        E 1 8f 3e 64
        E 0 8a 3e 64
        E 0 8e 32 64
        E 1 94 3e 64
        E 0 95 3e 64
        E 0 98 3e 64
        E 1 9f 3e 64
        E 0 9a 3e 64
        E 0 9e 32 64
        E 478 85 3e 64
        E 1 88 3e 64
        E 1 8f 3e 64
        E 0 8a 3e 64
        E 0 8e 32 64
        E 0 95 42 64
        E 1 98 42 64
        E 0 9f 42 64
        E 0 9a 3e 64
        E 0 9e 32 64
        E 239 85 42 64
        E 0 88 42 64
        E 0 8f 42 64
        E 0 8a 3e 64
        E 0 8e 32 64
        E 0 95 43 64
        E 0 98 43 64
        E 0 9f 43 64
        E 1 9a 40 64
        E 1 9e 34 64
        E 237 84 3e 64
        E 0 85 43 64
        E 0 88 43 64
        E 0 8f 43 64
        E 1 8a 40 64
        E 0 8e 34 64
        E 0 95 45 64
        E 1 98 45 64
        E 1 9f 45 64
        E 0 9a 42 64
        E 0 9e 36 64
        E 474 85 45 64
        E 1 88 45 64
        E 0 8f 45 64
        E 0 8a 42 64
        E 0 8e 36 64
        E 1 95 43 64
        E 0 98 43 64
        E 0 9f 43 64
        E 0 9a 40 64
        E 1 9e 34 64
        E 480 85 43 64
        E 0 88 43 64
        E 1 8f 43 64
        E 0 8a 40 64
        E 1 8e 34 64
        E 1 95 42 64
        E 0 98 42 64
        E 1 9f 42 64
        E 0 9a 3e 64
        E 0 9e 32 64
        E 477 85 42 64
        E 0 88 42 64
        E 0 8f 42 64
        E 1 8a 3e 64
        E 0 8e 32 64
        E 0 95 42 64
        E 1 98 42 64
        E 0 9f 42 64
        E 1 9a 3e 64
        E 0 9e 32 64
        E 237 85 42 64
        E 0 88 42 64
        E 1 8f 42 64
        E 1 8a 3e 64
        E 0 8e 32 64
        E 0 95 43 64
        E 0 98 43 64
        E 1 9f 43 64
        E 0 9a 40 64
        E 0 9e 34 64
        E 236 85 43 64
        E 0 88 43 64
        E 1 8f 43 64
        E 1 8a 40 64
        E 0 8e 34 64
        E 1 95 45 64
        E 0 98 45 64
        E 0 9f 45 64
        E 0 9a 42 64
        E 1 9e 36 64
        E 477 85 45 64
        E 0 88 45 64
        E 0 8f 45 64
        E 1 8a 42 64
        E 0 8e 36 64
        E 1 95 43 64
        E 0 98 43 64
        E 1 9f 43 64
        E 0 9a 40 64
        E 1 9e 34 64
        E 477 85 43 64
        E 0 88 43 64
        E 0 8f 43 64
        E 0 8a 40 64
        E 0 8e 34 64
        E 0 95 42 64
        E 0 98 42 64
        E 0 9f 42 64
        E 0 9a 3e 64
        E 0 9e 32 64
        E 476 85 42 64
        E 1 94 4e 64
        E 0 95 4a 64
        E 241 84 4e 64
        E 0 85 4a 64
        E 0 94 4f 64
        E 0 95 4c 64
        E 240 84 4f 64
        E 0 85 4c 64
        E 0 88 42 64
        E 1 8f 42 64
        E 0 8a 3e 64
        E 0 8e 32 64
        E 0 94 51 64
        E 0 95 4e 64
        E 241 84 51 64
        E 1 85 4e 64
        E 0 94 4f 64
        E 0 95 4c 64
        E 237 84 4f 64
        E 0 85 4c 64
        E 1 94 51 64
        E 0 95 4e 64
        E 238 84 51 64
        E 0 85 4e 64
        E 0 94 4f 64
        E 1 95 4c 64
        E 239 84 4f 64
        E 0 85 4c 64
        E 0 94 4e 64
        E 1 95 4a 64
        E 481 84 4e 64
        E 1 85 4a 64
        E 0 94 4e 64
        E 1 95 4a 64
        E 236 84 4e 64
        E 0 85 4a 64
        E 1 94 4f 64
        E 0 95 4c 64
        E 240 84 4f 64
        E 1 85 4c 64
        E 0 94 51 64
        E 0 95 4e 64
        E 240 84 51 64
        E 0 85 4e 64
        E 0 94 4f 64
        E 1 95 4c 64
        E 237 84 4f 64
        E 0 85 4c 64
        E 1 94 51 64
        E 0 95 4e 64
        E 239 84 51 64
        E 0 85 4e 64
        E 0 94 4f 64
        E 1 95 4c 64
        E 239 84 4f 64
        E 0 85 4c 64
        E 1 94 4e 64
        E 0 95 4a 64
        E 0 98 3e 64
        E 1 9f 3e 64
        E 0 9a 3e 64
        E 0 9e 32 64
        E 478 84 4e 64
        E 0 85 4a 64
        E 0 88 3e 64
        E 1 8f 3e 64
        E 1 8a 3e 64
        E 0 8e 32 64
        E 0 94 4a 64
        E 1 95 4a 64
        E 0 98 4a 64
        E 0 9f 4a 64
        E 1 9a 4a 64
        E 0 9e 3e 64
        E 477 84 4a 64
        E 0 85 4a 64
        E 1 88 4a 64
        E 0 8f 4a 64
        E 1 8a 4a 64
        E 0 8e 3e 64
        E 0 94 3e 64
        E 0 95 3e 64
        E 0 98 3e 64
        E 0 9f 3e 64
        E 1 9a 3e 64
        E 0 9e 32 64
        E 475 84 3e 64
        E 0 85 3e 64
        E 0 88 3e 64
        E 1 8f 3e 64
        E 0 8a 3e 64
        E 1 8e 32 64
        E 0 94 3e 64
        E 1 95 3e 64
        E 0 98 3e 64
        E 1 9f 3e 64
        E 0 9a 3e 64
        E 1 9e 32 64
        E 475 84 3e 64
        E 0 85 3e 64
        E 1 88 3e 64
        E 0 8f 3e 64
        E 0 8a 3e 64
        E 0 8e 32 64
        E 0 94 3e 64
        E 1 95 3e 64
        E 0 98 3e 64
        E 0 9f 3e 64
        E 0 9a 3e 64
        E 0 9e 32 64
        E 478 84 3e 64
        E 0 85 3e 64
        E 1 88 3e 64
        E 0 8f 3e 64
        E 1 8a 3e 64
        E 0 8e 32 64
        E 1 94 4a 64
        E 0 95 4a 64
        E 3 98 4a 64
        E 1 9f 4a 64
        E 0 9a 4a 64
        E 0 9e 3e 64
        E 475 84 4a 64
        E 0 85 4a 64
        E 1 88 4a 64
        E 0 8f 4a 64
        E 0 8a 4a 64
        E 1 8e 3e 64
        E 0 94 3e 64
        E 0 95 3e 64
        E 1 98 3e 64
        E 0 9f 3e 64
        E 1 9a 3e 64
        E 0 9e 32 64
        E 475 84 3e 64
        E 1 85 3e 64
        E 0 88 3e 64
        E 1 8f 3e 64
        E 0 8a 3e 64
        E 1 8e 32 64
        E 0 94 3e 64
        E 1 95 3e 64
        E 0 98 3e 64
        E 0 9f 3e 64
        E 0 9a 3e 64
        E 0 9e 32 64
        E 475 84 3e 64
        E 1 85 3e 64
        E 0 88 3e 64
        E 1 8f 3e 64
        E 0 8a 3e 64
        E 0 8e 32 64
        E 0 94 3e 64
        E 1 95 3e 64
        E 0 98 3e 64
        E 0 9f 3e 64
        E 0 9a 3e 64
        E 1 9e 32 64
        E 477 84 3e 64
        E 0 85 3e 64
        E 0 88 3e 64
        E 0 8f 3e 64
        E 0 8a 3e 64
        E 2 8e 32 64
        E 1 94 4e 64
        E 0 95 4a 64
        E 1 98 4e 64
        E 0 9f 4a 64
        E 1 9a 45 64
        E 0 9e 3e 64
        E 235 88 4e 64
        E 0 8f 4a 64
        E 0 98 4f 64
        E 0 9f 4c 64
        E 242 84 4e 64
        E 0 85 4a 64
        E 1 88 4f 64
        E 0 8f 4c 64
        E 0 8a 45 64
        E 1 8e 3e 64
        E 0 94 4e 64
        E 0 95 4a 64
        E 1 98 51 64
        E 0 9f 4e 64
        E 1 9a 45 64
        E 1 9e 32 64
        E 234 88 51 64
        E 0 8f 4e 64
        E 1 98 4e 64
        E 0 9f 4c 64
        E 239 84 4e 64
        E 0 85 4a 64
        E 0 88 4e 64
        E 0 8f 4c 64
        E 1 8a 45 64
        E 1 8e 32 64
        E 0 94 4e 64
        E 1 95 4a 64
        E 0 98 51 64
        E 0 9f 4e 64
        E 1 9a 45 64
        E 0 9e 32 64
        E 237 88 51 64
        E 0 8f 4e 64
        E 0 98 4e 64
        E 1 9f 4a 64
        E 235 84 4e 64
        E 0 85 4a 64
        E 0 88 4e 64
        E 1 8f 4a 64
        E 0 8a 45 64
        E 1 8e 32 64
        E 0 94 4c 64
        E 0 95 4a 64
        E 0 98 51 64
        E 1 9f 4c 64
        E 0 9a 45 64
        E 1 9e 2d 64
        E 238 88 51 64
        E 1 8f 4c 64
        E 0 98 4c 64
        E 0 9f 4a 64
        E 240 84 4c 64
        E 1 85 4a 64
        E 0 88 4c 64
        E 1 8f 4a 64
        E 0 8a 45 64
        E 1 8e 2d 64
        E 0 94 4c 64
        E 1 95 4a 64
        E 0 98 51 64
        E 1 9f 4c 64
        E 0 9a 45 64
        E 0 9e 39 64
        E 234 88 51 64
        E 0 8f 4c 64
        E 1 98 4c 64
        E 0 9f 4a 64
        E 239 84 4c 64
        E 0 85 4a 64
        E 1 88 4c 64
        E 0 8f 4a 64
        E 1 8a 45 64
        E 0 8e 39 64
        E 0 94 4c 64
        E 1 95 4a 64
        E 0 98 51 64
        E 1 9f 4c 64
        E 0 9a 45 64
        E 0 9e 2d 64
        E 235 88 51 64
        E 0 8f 4c 64
        E 0 98 4c 64
        E 1 9f 4a 64
        E 241 84 4c 64
        E 0 85 4a 64
        E 0 88 4c 64
        E 1 8f 4a 64
        E 0 8a 45 64
        E 1 8e 2d 64
        E 0 94 4c 64
        E 0 95 4a 64
        E 0 98 51 64
        E 1 9f 4c 64
        E 0 9a 45 64
        E 0 9e 2d 64
        E 235 88 51 64
        E 1 8f 4c 64
        E 0 98 4c 64
        E 1 9f 4a 64
        E 240 84 4c 64
        E 1 85 4a 64
        E 0 88 4c 64
        E 1 8f 4a 64
        E 0 8a 45 64
        E 0 8e 2d 64
        E 1 94 4c 64
        E 0 95 49 64
        E 0 98 51 64
        E 0 9f 4c 64
        E 1 9a 45 64
        E 0 9e 2d 64
        E 236 88 51 64
        E 0 8f 4c 64
        E 1 98 4c 64
        E 0 9f 49 64
        E 236 84 4c 64
        E 0 85 49 64
        E 1 88 4c 64
        E 0 8f 49 64
        E 1 8a 45 64
        E 0 8e 2d 64
        E 0 94 4c 64
        E 1 95 49 64
        E 0 98 51 64
        E 1 9f 4c 64
        E 0 9a 45 64
        E 0 9e 39 64
        E 239 88 51 64
        E 0 8f 4c 64
        E 0 98 4c 64
        E 1 9f 49 64
        E 238 84 4c 64
        E 1 85 49 64
        E 0 88 4c 64
        E 1 8f 49 64
        E 0 8a 45 64
        E 0 8e 39 64
        E 0 94 4c 64
        E 1 95 49 64
        E 0 98 51 64
        E 0 9f 4c 64
        E 1 9a 45 64
        E 0 9e 2d 64
        E 236 88 51 64
        E 0 8f 4c 64
        E 0 98 4c 64
        E 1 9f 49 64
        E 239 84 4c 64
        E 0 85 49 64
        E 1 88 4c 64
        E 0 8f 49 64
        E 1 8a 45 64
        E 0 8e 2d 64
        E 0 94 4c 64
        E 1 95 49 64
        E 0 98 51 64
        E 0 9f 4c 64
        E 1 9a 45 64
        E 0 9e 2d 64
        E 236 88 51 64
        E 0 8f 4c 64
        E 1 98 4c 64
        E 0 9f 49 64
        E 241 84 4c 64
        E 0 85 49 64
        E 1 88 4c 64
        E 1 8f 49 64
        E 0 8a 45 64
        E 1 8e 2d 64
        E 0 90 4a 64
        E 1 91 42 64
        E 0 92 39 64
        E 0 93 32 64
        E 1 94 4e 64
        E 0 95 4a 64
        E 0 98 4e 64
        E 0 9f 4a 64
        E 0 9a 45 64
        E 0 9e 32 64
        E 474 84 4e 64
        E 0 85 4a 64
        E 0 88 4e 64
        E 0 8f 4a 64
        E 1 8a 45 64
        E 0 8e 32 64
        E 1 94 4a 64
        E 0 95 4a 64
        E 1 98 4a 64
        E 0 9f 4a 64
        E 1 9a 4a 64
        E 0 9e 3e 64
        E 237 80 4a 64
        E 0 81 42 64
        E 0 82 39 64
        E 0 83 32 64
        E 1 90 4a 64
        E 0 91 42 64
        E 0 92 39 64
        E 1 93 32 64
        E 235 80 4a 64
        E 0 81 42 64
        E 1 82 39 64
        E 0 83 32 64
        E 1 84 4a 64
        E 0 85 4a 64
        E 1 88 4a 64
        E 0 8f 4a 64
        E 0 8a 4a 64
        E 1 8e 3e 64
        E 0 90 4a 64
        E 0 91 42 64
        E 0 92 39 64
        E 0 93 32 64
        E 0 94 3e 64
        E 0 95 3e 64
        E 0 98 3e 64
        E 0 9f 3e 64
        E 0 9a 3e 64
        E 0 9e 32 64
        E 476 80 4a 64
        E 0 81 42 64
        E 1 82 39 64
        E 0 83 32 64
        E 1 84 3e 64
        E 0 85 3e 64
        E 1 88 3e 64
        E 0 8f 3e 64
        E 1 8a 3e 64
        E 0 8e 32 64
        E 1 90 4a 64
        E 0 91 42 64
        E 0 92 39 64
        E 0 93 32 64
        E 1 94 3e 64
        E 0 95 3e 64
        E 0 98 3e 64
        E 0 9f 3e 64
        E 1 9a 3e 64
        E 0 9e 32 64
        E 476 80 4a 64
        E 1 81 42 64
        E 0 82 39 64
        E 1 83 32 64
        E 0 84 3e 64
        E 0 85 3e 64
        E 0 88 3e 64
        E 1 8f 3e 64
        E 0 8a 3e 64
        E 0 8e 32 64
        E 1 90 4a 64
        E 0 91 42 64
        E 0 92 39 64
        E 0 93 32 64
        E 0 94 3e 64
        E 1 95 3e 64
        E 0 98 3e 64
        E 0 9f 3e 64
        E 0 9a 3e 64
        E 0 9e 32 64
        E 475 80 4a 64
        E 0 81 42 64
        E 0 82 39 64
        E 1 83 32 64
        E 0 84 3e 64
        E 1 85 3e 64
        E 0 88 3e 64
        E 1 8f 3e 64
        E 0 8a 3e 64
        E 1 8e 32 64
        E 0 90 4a 64
        E 0 91 42 64
        E 0 92 39 64
        E 1 93 32 64
        E 0 94 4a 64
        E 0 95 4a 64
        E 1 98 4a 64
        E 0 9f 4a 64
        E 0 9a 4a 64
        E 0 9e 3e 64
        E 473 80 4a 64
        E 0 81 42 64
        E 1 82 39 64
        E 0 83 32 64
        E 0 84 4a 64
        E 1 85 4a 64
        E 0 88 4a 64
        E 0 8f 4a 64
        E 1 8a 4a 64
        E 0 8e 3e 64
        E 0 90 4a 64
        E 0 91 42 64
        E 0 92 39 64
        E 0 93 32 64
        E 0 94 3e 64
        E 1 95 3e 64
        E 0 98 3e 64
        E 0 9f 3e 64
        E 0 9a 3e 64
        E 0 9e 32 64
        E 475 84 3e 64
        E 0 85 3e 64
        E 1 88 3e 64
        E 0 8f 3e 64
        E 0 8a 3e 64
        E 1 8e 32 64
        E 0 94 3e 64
        E 0 95 3e 64
        E 1 98 3e 64
        E 0 9f 3e 64
        E 0 9a 3e 64
        E 1 9e 32 64
        E 477 80 4a 64
        E 0 81 42 64
        E 1 82 39 64
        E 0 83 32 64
        E 1 84 3e 64
        E 0 85 3e 64
        E 1 88 3e 64
        E 0 8f 3e 64
        E 1 8a 3e 64
        E 0 8e 32 64
        E 0 90 4a 64
        E 0 91 42 64
        E 0 92 39 64
        E 0 93 32 64
        E 0 94 3e 64
        E 0 95 3e 64
        E 1 98 3e 64
        E 0 9f 3e 64
        E 0 9a 3e 64
        E 0 9e 32 64
        E 476 85 3e 64
        E 0 88 3e 64
        E 0 8f 3e 64
        E 1 95 4e 64
        E 0 98 4e 64
        E 1 9f 4a 64
        E 238 85 4e 64
        E 0 88 4e 64
        E 1 8f 4a 64
        E 0 95 4f 64
        E 1 98 4f 64
        E 0 9f 4c 64
        E 236 80 4a 64
        E 0 81 42 64
        E 0 82 39 64
        E 1 83 32 64
        E 0 84 3e 64
        E 1 85 4f 64
        E 1 88 4f 64
        E 0 8f 4c 64
        E 0 8a 3e 64
        E 0 8e 32 64
        E 0 95 51 64
        E 1 98 51 64
        E 0 9f 4e 64
        E 236 85 51 64
        E 0 88 51 64
        E 0 8f 4e 64
        E 0 95 4f 64
        E 1 98 4f 64
        E 0 9f 4c 64
        E 240 85 4f 64
        E 0 88 4f 64
        E 1 8f 4c 64
        E 0 95 51 64
        E 1 98 51 64
        E 0 9f 4e 64
        E 237 85 51 64
        E 0 88 51 64
        E 0 8f 4e 64
        E 1 95 4f 64
        E 1 98 4f 64
        E 0 9f 4c 64
        E 240 85 4f 64
        E 0 88 4f 64
        E 1 8f 4c 64
        E 0 95 4e 64
        E 1 98 4e 64
        E 0 9f 4a 64
        E 476 85 4e 64
        E 1 88 4e 64
        E 0 8f 4a 64
        E 1 95 4e 64
        E 0 98 4e 64
        E 0 9f 4a 64
        E 239 85 4e 64
        E 0 88 4e 64
        E 0 8f 4a 64
        E 1 95 4f 64
        E 0 98 4f 64
        E 0 9f 4c 64
        E 239 85 4f 64
        E 0 88 4f 64
        E 0 8f 4c 64
        E 1 95 51 64
        E 0 98 51 64
        E 1 9f 4e 64
        E 237 85 51 64
        E 1 88 51 64
        E 0 8f 4e 64
        E 0 95 4f 64
        E 1 98 4f 64
        E 0 9f 4c 64
        E 238 85 4f 64
        E 0 88 4f 64
        E 1 8f 4c 64
        E 0 95 51 64
        E 0 98 51 64
        E 1 9f 4e 64
        E 238 85 51 64
        E 0 88 51 64
        E 0 8f 4e 64
        E 0 95 4e 64
        E 1 98 4e 64
        E 0 9f 4a 64
        E 240 85 4e 64
        E 0 88 4e 64
        E 0 8f 4a 64
        E 1 90 49 64
        E 0 91 40 64
        E 0 92 39 64
        E 0 93 2d 64
        E 1 95 4c 64
        E 0 98 4c 64
        E 0 9f 49 64
        E 0 9a 39 64
        E 1 9e 2d 64
        E 477 88 4c 64
        E 0 8f 49 64
        E 0 8a 39 64
        E 0 8e 2d 64
        E 1 98 45 64
        E 0 9f 45 64
        E 0 9a 45 64
        E 0 9e 39 64
        E 238 80 49 64
        E 1 81 40 64
        E 0 82 39 64
        E 0 83 2d 64
        E 0 90 49 64
        E 0 91 40 64
        E 1 92 39 64
        E 1 93 2d 64
        E 238 80 49 64
        E 0 81 40 64
        E 0 82 39 64
        E 1 83 2d 64
        E 0 85 4c 64
        E 0 88 45 64
        E 0 8f 45 64
        E 1 8a 45 64
        E 0 8e 39 64
        E 0 90 49 64
        E 0 91 40 64
        E 0 92 39 64
        E 1 93 2d 64
        E 0 98 39 64
        E 0 9f 39 64
        E 0 9a 39 64
        E 0 9e 2d 64
        E 476 80 49 64
        E 0 81 40 64
        E 2 82 39 64
        E 1 83 2d 64
        E 0 88 39 64
        E 1 8f 39 64
        E 0 8a 39 64
        E 0 8e 2d 64
        E 1 90 49 64
        E 0 91 40 64
        E 0 92 39 64
        E 1 93 2d 64
        E 0 98 39 64
        E 1 9f 39 64
        E 0 9a 39 64
        E 0 9e 2d 64
        E 473 80 49 64
        E 0 81 40 64
        E 0 82 39 64
        E 1 83 2d 64
        E 0 88 39 64
        E 0 8f 39 64
        E 1 8a 39 64
        E 0 8e 2d 64
        E 0 90 49 64
        E 0 91 40 64
        E 0 92 39 64
        E 0 93 2d 64
        E 0 98 39 64
        E 1 9f 39 64
        E 0 9a 39 64
        E 0 9e 2d 64
        E 477 80 49 64
        E 0 81 40 64
        E 1 82 39 64
        E 0 83 2d 64
        E 0 88 39 64
        E 0 8f 39 64
        E 1 8a 39 64
        E 0 8e 2d 64
        E 0 90 49 64
        E 1 91 40 64
        E 0 92 39 64
        E 0 93 2d 64
        E 0 98 45 64
        E 0 9f 45 64
        E 1 9a 45 64
        E 0 9e 39 64
        E 478 80 49 64
        E 0 81 40 64
        E 0 82 39 64
        E 0 83 2d 64
        E 1 88 45 64
        E 0 8f 45 64
        E 0 8a 45 64
        E 0 8e 39 64
        E 1 90 49 64
        E 0 91 40 64
        E 0 92 39 64
        E 0 93 2d 64
        E 1 98 39 64
        E 0 9f 39 64
        E 0 9a 39 64
        E 0 9e 2d 64
        E 477 88 39 64
        E 0 8f 39 64
        E 1 8a 39 64
        E 0 8e 2d 64
        E 0 98 39 64
        E 0 9f 39 64
        E 0 9a 39 64
        E 0 9e 2d 64
        E 477 80 49 64
        E 0 81 40 64
        E 1 82 39 64
        E 0 83 2d 64
        E 0 88 39 64
        E 1 8f 39 64
        E 0 8a 39 64
        E 0 8e 2d 64
        E 0 90 49 64
        E 0 91 40 64
        E 0 92 39 64
        E 0 93 2d 64
        E 0 98 39 64
        E 0 9f 39 64
        E 0 9a 39 64
        E 1 9e 2d 64
        E 478 88 39 64
        E 0 8f 39 64
        E 0 95 4c 64
        E 1 98 4c 64
        E 0 9f 49 64
        E 239 85 4c 64
        E 0 88 4c 64
        E 0 8f 49 64
        E 1 95 4e 64
        E 1 98 4e 64
        E 0 9f 4a 64
        E 239 80 49 64
        E 1 81 40 64
        E 0 82 39 64
        E 0 83 2d 64
        E 1 85 4e 64
        E 0 88 4e 64
        E 0 8f 4a 64
        E 0 8a 39 64
        E 0 8e 2d 64
        E 1 95 4f 64
        E 0 98 4f 64
        E 1 9f 4c 64
        E 232 85 4f 64
        E 0 88 4f 64
        E 0 8f 4c 64
        E 1 95 4e 64
        E 0 98 4e 64
        E 1 9f 4a 64
        E 238 85 4e 64
        E 0 88 4e 64
        E 1 8f 4a 64
        E 0 95 4f 64
        E 0 98 4f 64
        E 1 9f 4c 64
        E 241 85 4f 64
        E 0 88 4f 64
        E 0 8f 4c 64
        E 0 95 4e 64
        E 0 98 4e 64
        E 1 9f 4a 64
        E 238 85 4e 64
        E 1 88 4e 64
        E 0 8f 4a 64
        E 0 95 4c 64
        E 0 98 4c 64
        E 0 9f 49 64
        E 481 85 4c 64
        E 1 88 4c 64
        E 0 8f 49 64
        E 0 95 4c 64
        E 0 98 4c 64
        E 1 9f 49 64
        E 236 85 4c 64
        E 0 88 4c 64
        E 1 8f 49 64
        E 0 95 4e 64
        E 1 98 4e 64
        E 0 9f 4a 64
        E 237 85 4e 64
        E 0 88 4e 64
        E 1 8f 4a 64
        E 0 95 4f 64
        E 0 98 4f 64
        E 0 9f 4c 64
        E 240 85 4f 64
        E 0 88 4f 64
        E 1 8f 4c 64
        E 0 95 4e 64
        E 0 98 4e 64
        E 1 9f 4a 64
        E 239 85 4e 64
        E 0 88 4e 64
        E 0 8f 4a 64
        E 0 95 4f 64
        E 1 98 4f 64
        E 0 9f 4c 64
        E 237 85 4f 64
        E 0 88 4f 64
        E 0 8f 4c 64
        E 1 95 4e 64
        E 0 98 4e 64
        E 1 9f 4a 64
        E 239 85 4e 64
        E 0 88 4e 64
        E 0 8f 4a 64
        E 1 90 49 64
        E 0 91 40 64
        E 0 92 3d 64
        E 1 93 39 64
        E 0 95 4c 64
        E 0 98 4c 64
        E 0 9f 49 64
        E 1 9a 39 64
        E 0 9e 2d 64
        E 478 88 4c 64
        E 0 8f 49 64
        E 0 8a 39 64
        E 0 8e 2d 64
        E 0 98 45 64
        E 1 9f 45 64
        E 0 9a 45 64
        E 0 9e 39 64
        E 479 85 4c 64
        E 0 88 45 64
        E 0 8f 45 64
        E 0 8a 45 64
        E 0 8e 39 64
        E 0 98 39 64
        E 0 9f 39 64
        E 1 9a 39 64
        E 0 9e 2d 64
        E 477 88 39 64
        E 0 8f 39 64
        E 0 8a 39 64
        E 1 8e 2d 64
        E 0 98 39 64
        E 1 9f 39 64
        E 0 9a 39 64
        E 0 9e 2d 64
        E 480 80 49 64
        E 0 81 40 64
        E 0 82 3d 64
        E 0 83 39 64
        E 1 88 39 64
        E 0 8f 39 64
        E 0 8a 39 64
        E 0 8e 2d 64
        E 1 90 4a 64
        E 0 91 42 64
        E 0 92 39 64
        E 0 93 39 64
        E 1 98 39 64
        E 0 9f 39 64
        E 0 9a 39 64
        E 0 9e 2d 64
        E 477 88 39 64
        E 1 8f 39 64
        E 0 8a 39 64
        E 0 8e 2d 64
        E 1 98 45 64
        E 0 9f 45 64
        E 0 9a 45 64
        E 1 9e 39 64
        E 477 88 45 64
        E 0 8f 45 64
        E 1 8a 45 64
        E 0 8e 39 64
        E 0 98 39 64
        E 1 9f 39 64
        E 1 9a 39 64
        E 1 9e 2d 64
        E 478 88 39 64
        E 0 8f 39 64
        E 1 8a 39 64
        E 0 8e 2d 64
        E 1 98 39 64
        E 0 9f 39 64
        E 1 9a 39 64
        E 0 9e 2d 64
        E 476 80 4a 64
        E 0 81 42 64
        E 0 82 39 64
        E 1 83 39 64
        E 0 88 39 64
        E 1 8f 39 64
        E 0 8a 39 64
        E 1 8e 2d 64
        E 0 90 4c 64
        E 0 91 43 64
        E 1 92 3d 64
        E 0 93 39 64
        E 0 98 39 64
        E 0 9f 39 64
        E 0 9a 39 64
        E 0 9e 2d 64
        E 475 88 39 64
        E 0 8f 39 64
        E 1 8a 39 64
        E 0 8e 2d 64
        E 0 98 45 64
        E 1 9f 45 64
        E 0 9a 45 64
        E 0 9e 39 64
        E 479 88 45 64
        E 0 8f 45 64
        E 0 8a 45 64
        E 1 8e 39 64
        E 0 98 39 64
        E 0 9f 39 64
        E 0 9a 39 64
        E 1 9e 2d 64
        E 475 88 39 64
        E 0 8f 39 64
        E 0 8a 39 64
        E 0 8e 2d 64
        E 0 98 39 64
        E 1 9f 39 64
        E 0 9a 39 64
        E 0 9e 2d 64
        E 479 80 4c 64
        E 1 81 43 64
        E 0 82 3d 64
        E 0 83 39 64
        E 1 88 39 64
        E 0 8f 39 64
        E 0 8a 39 64
        E 0 8e 2d 64
        E 1 90 4a 64
        E 0 91 42 64
        E 0 92 39 64
        E 0 93 39 64
        E 1 98 39 64
        E 0 9f 39 64
        E 0 9a 39 64
        E 1 9e 2d 64
        E 475 88 39 64
        E 0 8f 39 64
        E 0 8a 39 64
        E 0 8e 2d 64
        E 1 98 45 64
        E 0 9f 45 64
        E 0 9a 45 64
        E 0 9e 39 64
        E 479 88 45 64
        E 1 8f 45 64
        E 0 8a 45 64
        E 1 8e 39 64
        E 0 98 39 64
        E 1 9f 39 64
        E 0 9a 39 64
        E 1 9e 2d 64
        E 478 88 39 64
        E 1 8f 39 64
        E 0 8a 39 64
        E 1 8e 2d 64
        E 0 98 39 64
        E 1 9f 39 64
        E 1 9a 39 64
        E 0 9e 2d 64
        E 478 80 4a 64
        E 0 81 42 64
        E 0 82 39 64
        E 0 83 39 64
        E 1 88 39 64
        E 0 8f 39 64
        E 1 8a 39 64
        E 0 8e 2d 64
        E 0 90 4a 64
        E 1 91 40 64
        E 0 92 39 64
        E 0 93 39 64
        E 1 98 39 64
        E 0 9f 39 64
        E 0 9a 39 64
        E 0 9e 2d 64
        E 472 88 39 64
        E 1 8f 39 64
        E 0 8a 39 64
        E 0 8e 2d 64
        E 0 98 45 64
        E 1 9f 45 64
        E 1 9a 45 64
        E 1 9e 39 64
        E 479 88 45 64
        E 1 8f 45 64
        E 0 8a 45 64
        E 1 8e 39 64
        E 0 98 39 64
        E 0 9f 39 64
        E 1 9a 39 64
        E 0 9e 2d 64
        E 475 88 39 64
        E 1 8f 39 64
        E 0 8a 39 64
        E 1 8e 2d 64
        E 0 98 39 64
        E 0 9f 39 64
        E 0 9a 39 64
        E 1 9e 2d 64
        E 478 80 4a 64
        E 1 81 40 64
        E 0 82 39 64
        E 1 83 39 64
        E 1 88 39 64
        E 0 8f 39 64
        E 1 8a 39 64
        E 0 8e 2d 64
        E 1 90 49 64
        E 0 91 40 64
        E 1 92 39 64
        E 0 93 39 64
        E 0 98 39 64
        E 0 9f 39 64
        E 1 9a 39 64
        E 0 9e 2d 64
        E 476 88 39 64
        E 0 8f 39 64
        E 0 8a 39 64
        E 1 8e 2d 64
        E 1 98 45 64
        E 0 9f 45 64
        E 0 9a 45 64
        E 1 9e 39 64
        E 473 88 45 64
        E 1 8f 45 64
        E 0 8a 45 64
        E 1 8e 39 64
        E 1 98 39 64
        E 0 9f 39 64
        E 1 9a 39 64
        E 0 9e 2d 64
        E 479 88 39 64
        E 0 8f 39 64
        E 1 8a 39 64
        E 0 8e 2d 64
        E 0 98 39 64
        E 0 9f 39 64
        E 1 9a 39 64
        E 0 9e 2d 64
        E 476 80 49 64
        E 0 81 40 64
        E 1 82 39 64
        E 0 83 39 64
        E 0 88 39 64
        E 1 8f 39 64
        E 0 8a 39 64
        E 1 8e 2d 64
        E 1 98 39 64
        E 0 9f 39 64
        E 0 9a 39 64
        E 0 9e 2d 64
        E 957 88 39 64
        E 0 8f 39 64
        E 0 8a 39 64
        E 1 8e 2d 64
        E 957 90 49 64
        E 0 91 40 64
        E 1 92 3d 64
        E 0 93 39 64
        E 1 98 39 64
        E 0 9f 39 64
        E 1 9a 39 64
        E 0 9e 2d 64
        E 480 88 39 64
        E 0 8f 39 64
        E 0 8a 39 64
        E 1 8e 2d 64
        E 0 98 45 64
        E 1 9f 45 64
        E 0 9a 45 64
        E 0 9e 39 64
        E 474 88 45 64
        E 0 8f 45 64
        E 0 8a 45 64
        E 0 8e 39 64
        E 0 98 39 64
        E 0 9f 39 64
        E 1 9a 39 64
        E 0 9e 2d 64
        E 482 88 39 64
        E 0 8f 39 64
        E 1 8a 39 64
        E 0 8e 2d 64
        E 0 98 39 64
        E 1 9f 39 64
        E 0 9a 39 64
        E 1 9e 2d 64
        E 477 80 49 64
        E 0 81 40 64
        E 1 82 3d 64
        E 0 83 39 64
        E 1 88 39 64
        E 0 8f 39 64
        E 0 8a 39 64
        E 1 8e 2d 64
        E 0 90 4a 64
        E 0 91 42 64
        E 0 92 39 64
        E 1 93 39 64
        E 0 98 39 64
        E 0 9f 39 64
        E 0 9a 39 64
        E 0 9e 2d 64
        E 475 88 39 64
        E 0 8f 39 64
        E 0 8a 39 64
        E 1 8e 2d 64
        E 0 98 45 64
        E 0 9f 45 64
        E 0 9a 45 64
        E 1 9e 39 64
        E 480 88 45 64
        E 1 8f 45 64
        E 0 8a 45 64
        E 0 8e 39 64
        E 0 98 39 64
        E 1 9f 39 64
        E 0 9a 39 64
        E 1 9e 2d 64
        E 475 88 39 64
        E 0 8f 39 64
        E 1 8a 39 64
        E 0 8e 2d 64
        E 1 98 39 64
        E 0 9f 39 64
        E 0 9a 39 64
        E 0 9e 2d 64
        E 477 80 4a 64
        E 0 81 42 64
        E 1 82 39 64
        E 0 83 39 64
        E 1 88 39 64
        E 0 8f 39 64
        E 1 8a 39 64
        E 0 8e 2d 64
        E 0 90 4c 64
        E 0 91 43 64
        E 1 92 3d 64
        E 0 93 39 64
        E 0 98 39 64
        E 0 9f 39 64
        E 0 9a 39 64
        E 0 9e 2d 64
        E 479 88 39 64
        E 0 8f 39 64
        E 0 8a 39 64
        E 1 8e 2d 64
        E 0 98 45 64
        E 1 9f 45 64
        E 0 9a 45 64
        E 0 9e 39 64
        E 477 88 45 64
        E 1 8f 45 64
        E 0 8a 45 64
        E 0 8e 39 64
        E 0 98 39 64
        E 0 9f 39 64
        E 1 9a 39 64
        E 0 9e 2d 64
        E 476 88 39 64
        E 0 8f 39 64
        E 1 8a 39 64
        E 0 8e 2d 64
        E 1 98 39 64
        E 0 9f 39 64
        E 1 9a 39 64
        E 0 9e 2d 64
        E 477 80 4c 64
        E 0 81 43 64
        E 0 82 3d 64
        E 1 83 39 64
        E 0 88 39 64
        E 1 8f 39 64
        E 0 8a 39 64
        E 0 8e 2d 64
        E 1 90 4a 64
        E 0 91 42 64
        E 0 92 39 64
        E 0 93 39 64
        E 0 98 39 64
        E 1 9f 39 64
        E 0 9a 39 64
        E 0 9e 2d 64
        E 477 88 39 64
        E 0 8f 39 64
        E 1 8a 39 64
        E 0 8e 2d 64
        E 0 98 45 64
        E 1 9f 45 64
        E 0 9a 45 64
        E 0 9e 39 64
        E 480 88 45 64
        E 0 8f 45 64
        E 0 8a 45 64
        E 1 8e 39 64
        E 0 98 39 64
        E 0 9f 39 64
        E 1 9a 39 64
        E 0 9e 2d 64
        E 476 88 39 64
        E 1 8f 39 64
        E 0 8a 39 64
        E 1 8e 2d 64
        E 0 98 39 64
        E 0 9f 39 64
        E 1 9a 39 64
        E 0 9e 2d 64
        E 478 80 4a 64
        E 1 81 42 64
        E 0 82 39 64
        E 0 83 39 64
        E 1 88 39 64
        E 0 8f 39 64
        E 1 8a 39 64
        E 0 8e 2d 64
        E 0 90 4a 64
        E 0 91 40 64
        E 1 92 39 64
        E 0 93 39 64
        E 0 98 39 64
        E 0 9f 39 64
        E 0 9a 39 64
        E 0 9e 2d 64
        E 476 88 39 64
        E 0 8f 39 64
        E 0 8a 39 64
        E 0 8e 2d 64
        E 0 98 45 64
        E 1 9f 45 64
        E 0 9a 45 64
        E 0 9e 39 64
        E 477 88 45 64
        E 1 8f 45 64
        E 0 8a 45 64
        E 1 8e 39 64
        E 0 98 39 64
        E 0 9f 39 64
        E 0 9a 39 64
        E 1 9e 2d 64
        E 476 80 4a 64
        E 0 81 40 64
        E 0 82 39 64
        E 0 83 39 64
        E 1 88 39 64
        E 0 8f 39 64
        E 1 8a 39 64
        E 0 8e 2d 64
        E 1 90 4a 64
        E 1 91 40 64
        E 0 92 39 64
        E 0 93 39 64
        E 1 98 39 64
        E 0 9f 39 64
        E 1 9a 39 64
        E 0 9e 2d 64
        E 475 80 4a 64
        E 0 81 40 64
        E 1 82 39 64
        E 0 83 39 64
        E 0 88 39 64
        E 0 8f 39 64
        E 0 8a 39 64
        E 1 8e 2d 64
        E 0 90 49 64
        E 0 91 40 64
        E 0 92 39 64
        E 1 93 39 64
        E 0 98 39 64
        E 0 9f 39 64
        E 1 9a 39 64
        E 0 9e 2d 64
        E 475 88 39 64
        E 0 8f 39 64
        E 0 8a 39 64
        E 0 8e 2d 64
        E 0 98 45 64
        E 0 9f 45 64
        E 1 9a 45 64
        E 0 9e 39 64
        E 480 88 45 64
        E 1 8f 45 64
        E 0 8a 45 64
        E 1 8e 39 64
        E 0 98 39 64
        E 1 9f 39 64
        E 0 9a 39 64
        E 0 9e 2d 64
        E 478 88 39 64
        E 1 8f 39 64
        E 0 8a 39 64
        E 1 8e 2d 64
        E 0 98 39 64
        E 1 9f 39 64
        E 0 9a 39 64
        E 0 9e 2d 64
        E 478 80 49 64
        E 0 81 40 64
        E 0 82 39 64
        E 1 83 39 64
        E 0 88 39 64
        E 1 8f 39 64
        E 0 8a 39 64
        E 1 8e 2d 64
        E 0 90 4c 64
        E 0 91 43 64
        E 0 92 39 64
        E 0 93 39 64
        E 0 94 4c 64
        E 1 95 49 64
        E 0 98 4c 64
        E 0 9f 49 64
        E 0 9a 45 64
        E 0 9e 2d 64
        E 473 84 4c 64
        E 0 85 49 64
        E 1 88 4c 64
        E 0 8f 49 64
        E 1 8a 45 64
        E 0 8e 2d 64
        E 0 94 51 64
        E 1 95 4c 64
        E 0 98 51 64
        E 0 9f 4c 64
        E 1 9a 49 64
        E 0 9e 39 64
        E 477 82 39 64
        E 0 84 51 64
        E 1 85 4c 64
        E 0 88 51 64
        E 1 8f 4c 64
        E 0 8a 49 64
        E 1 8e 39 64
        E 0 92 3d 64
        E 1 94 4c 64
        E 0 95 49 64
        E 0 98 4c 64
        E 0 9f 49 64
        E 0 9a 45 64
        E 0 9e 2d 64
        E 477 84 4c 64
        E 0 85 49 64
        E 0 88 4c 64
        E 1 8f 49 64
        E 0 8a 45 64
        E 0 8e 2d 64
        E 1 94 4c 64
        E 0 95 49 64
        E 0 98 4c 64
        E 0 9f 49 64
        E 0 9a 45 64
        E 0 9e 2d 64
        E 477 80 4c 64
        E 1 81 43 64
        E 0 82 3d 64
        E 1 83 39 64
        E 1 84 4c 64
        E 0 85 49 64
        E 1 88 4c 64
        E 0 8f 49 64
        E 0 8a 45 64
        E 1 8e 2d 64
        E 0 90 4a 64
        E 0 91 42 64
        E 0 92 39 64
        E 0 93 32 64
        E 0 94 4e 64
        E 0 95 4a 64
        E 0 98 4e 64
        E 0 9f 4a 64
        E 1 9a 45 64
        E 0 9e 32 64
        E 475 84 4e 64
        E 0 85 4a 64
        E 0 88 4e 64
        E 1 8f 4a 64
        E 0 8a 45 64
        E 0 8e 32 64
        E 1 94 51 64
        E 0 95 4e 64
        E 1 98 51 64
        E 0 9f 4e 64
        E 0 9a 4a 64
        E 1 9e 3e 64
        E 473 84 51 64
        E 1 85 4e 64
        E 0 88 51 64
        E 1 8f 4e 64
        E 0 8a 4a 64
        E 0 8e 3e 64
        E 0 94 4e 64
        E 0 95 4a 64
        E 0 98 4e 64
        E 1 9f 4a 64
        E 0 9a 45 64
        E 1 9e 32 64
        E 479 84 4e 64
        E 0 85 4a 64
        E 0 88 4e 64
        E 1 8f 4a 64
        E 0 8a 45 64
        E 0 8e 32 64
        E 0 94 4e 64
        E 1 95 4a 64
        E 0 98 4e 64
        E 0 9f 4a 64
        E 1 9a 45 64
        E 0 9e 32 64
        E 474 80 4a 64
        E 1 81 42 64
        E 0 82 39 64
        E 1 83 32 64
        E 0 84 4e 64
        E 0 85 4a 64
        E 1 88 4e 64
        E 0 8f 4a 64
        E 0 8a 45 64
        E 3 8e 32 64
        E 0 90 4a 64
        E 0 91 40 64
        E 1 92 39 64
        E 0 93 39 64
        E 0 94 4c 64
        E 0 95 4a 64
        E 0 98 4c 64
        E 0 9f 4a 64
        E 0 9a 45 64
        E 0 9e 2d 64
        E 475 84 4c 64
        E 0 85 4a 64
        E 0 88 4c 64
        E 1 8f 4a 64
        E 0 8a 45 64
        E 1 8e 2d 64
        E 0 94 51 64
        E 0 95 4c 64
        E 1 98 51 64
        E 0 9f 4c 64
        E 0 9a 4a 64
        E 0 9e 39 64
        E 476 84 51 64
        E 0 85 4c 64
        E 0 88 51 64
        E 0 8f 4c 64
        E 1 8a 4a 64
        E 0 8e 39 64
        E 0 94 4c 64
        E 1 95 4a 64
        E 0 98 4c 64
        E 0 9f 4a 64
        E 0 9a 45 64
        E 1 9e 2d 64
        E 479 84 4c 64
        E 1 85 4a 64
        E 0 88 4c 64
        E 0 8f 4a 64
        E 1 8a 45 64
        E 0 8e 2d 64
        E 1 94 4c 64
        E 0 95 4a 64
        E 0 98 4c 64
        E 0 9f 4a 64
        E 1 9a 45 64
        E 1 9e 2d 64
        E 474 80 4a 64
        E 1 83 39 64
        E 0 84 4c 64
        E 0 85 4a 64
        E 0 88 4c 64
        E 0 8f 4a 64
        E 0 8a 45 64
        E 1 8e 2d 64
        E 0 90 49 64
        E 0 93 2d 64
        E 0 94 4c 64
        E 1 95 49 64
        E 0 98 4c 64
        E 0 9f 49 64
        E 0 9a 45 64
        E 1 9e 2d 64
        E 474 84 4c 64
        E 0 85 49 64
        E 1 88 4c 64
        E 0 8f 49 64
        E 0 8a 45 64
        E 0 8e 2d 64
        E 0 94 51 64
        E 1 95 4c 64
        E 0 98 51 64
        E 1 9f 4c 64
        E 0 9a 49 64
        E 0 9e 39 64
        E 481 84 51 64
        E 0 85 4c 64
        E 1 88 51 64
        E 0 8f 4c 64
        E 0 8a 49 64
        E 1 8e 39 64
        E 0 94 4c 64
        E 0 95 49 64
        E 0 98 4c 64
        E 0 9f 49 64
        E 0 9a 45 64
        E 1 9e 2d 64
        E 475 84 4c 64
        E 0 85 49 64
        E 0 88 4c 64
        E 1 8f 49 64
        E 0 8a 45 64
        E 1 8e 2d 64
        E 0 94 4c 64
        E 0 95 49 64
        E 1 98 4c 64
        E 0 9f 49 64
        E 0 9a 45 64
        E 1 9e 2d 64
        E 476 80 49 64
        E 1 81 40 64
        E 0 82 39 64
        E 0 83 2d 64
        E 1 84 4c 64
        E 0 85 49 64
        E 0 88 4c 64
        E 1 8f 49 64
        E 0 8a 45 64
        E 0 8e 2d 64
        E 1 90 4a 64
        E 0 91 42 64
        E 0 92 39 64
        E 0 93 32 64
        E 0 94 4e 64
        E 0 95 4a 64
        E 0 98 4e 64
        E 0 9f 4a 64
        E 1 9a 45 64
        E 0 9e 32 64
        E 476 84 4e 64
        E 1 85 4a 64
        E 0 88 4e 64
        E 0 8f 4a 64
        E 1 8a 45 64
        E 0 8e 32 64
        E 1 94 4a 64
        E 0 95 4a 64
        E 0 98 4a 64
        E 1 9f 4a 64
        E 0 9a 4a 64
        E 0 9e 3e 64
        E 477 84 4a 64
        E 0 85 4a 64
        E 1 88 4a 64
        E 0 8f 4a 64
        E 0 8a 4a 64
        E 1 8e 3e 64
        E 0 94 3e 64
        E 0 95 3e 64
        E 1 98 3e 64
        E 0 9f 3e 64
        E 0 9a 3e 64
        E 0 9e 32 64
        E 476 84 3e 64
        E 0 85 3e 64
        E 0 88 3e 64
        E 0 8f 3e 64
        E 0 8a 3e 64
        E 1 8e 32 64
        E 0 94 3e 64
        E 0 95 3e 64
        E 1 98 3e 64
        E 0 9f 3e 64
        E 1 9a 3e 64
        E 0 9e 32 64
        E 477 80 4a 64
        E 1 81 42 64
        E 0 82 39 64
        E 1 83 32 64
        E 0 84 3e 64
        E 0 85 3e 64
        E 1 88 3e 64
        E 0 8f 3e 64
        E 1 8a 3e 64
        E 0 8e 32 64
        E 0 94 3e 64
        E 0 95 3e 64
        E 1 98 3e 64
        E 0 9f 3e 64
        E 0 9a 3e 64
        E 0 9e 32 64
        E 476 84 3e 64
        E 0 85 3e 64
        E 1 88 3e 64
        E 0 8f 3e 64
        E 1 8a 3e 64
        E 0 8e 32 64
        E 1 94 4a 64
        E 0 95 4a 64
        E 0 98 4a 64
        E 0 9f 4a 64
        E 0 9a 4a 64
        E 0 9e 3e 64
        E 473 84 4a 64
        E 0 85 4a 64
        E 1 88 4a 64
        E 0 8f 4a 64
        E 1 8a 4a 64
        E 0 8e 3e 64
        E 1 94 3e 64
        E 0 95 3e 64
        E 1 98 3e 64
        E 0 9f 3e 64
        E 0 9a 3e 64
        E 0 9e 32 64
        E 480 84 3e 64
        E 0 85 3e 64
        E 0 88 3e 64
        E 0 8f 3e 64
        E 1 8a 3e 64
        E 0 8e 32 64
        E 1 94 3e 64
        E 0 95 3e 64
        E 1 98 3e 64
        E 0 9f 3e 64
        E 1 9a 3e 64
        E 0 9e 32 64
        E 474 84 3e 64
        E 0 85 3e 64
        E 1 88 3e 64
        E 0 8f 3e 64
        E 0 8a 3e 64
        E 0 8e 32 64
        E 0 90 4a 64
        E 1 91 42 64
        E 0 92 39 64
        E 1 93 32 64
        E 0 94 3e 64
        E 1 95 3e 64
        E 0 98 3e 64
        E 1 9f 3e 64
        E 0 9a 3e 64
        E 0 9e 32 64
        E 476 84 3e 64
        E 0 85 3e 64
        E 1 88 3e 64
        E 0 8f 3e 64
        E 1 8e 32 64
        E 0 94 51 64
        E 1 95 4a 64
        E 0 98 51 64
        E 1 9f 4e 64
        E 0 9e 3e 64
        E 234 84 51 64
        E 0 88 51 64
        E 0 8f 4e 64
        E 0 94 4e 64
        E 1 98 4e 64
        E 0 9f 4a 64
        E 240 84 4e 64
        E 0 85 4a 64
        E 1 88 4e 64
        E 0 8f 4a 64
        E 0 8a 3e 64
        E 1 8e 3e 64
        E 0 94 51 64
        E 0 95 4a 64
        E 0 98 51 64
        E 0 9f 4e 64
        E 0 9a 45 64
        E 1 9e 32 64
        E 237 84 51 64
        E 0 88 51 64
        E 0 8f 4e 64
        E 1 94 4e 64
        E 0 98 4e 64
        E 1 9f 4a 64
        E 237 84 4e 64
        E 0 85 4a 64
        E 0 88 4e 64
        E 1 8f 4a 64
        E 0 8a 45 64
        E 0 8e 32 64
        E 1 94 51 64
        E 0 95 4a 64
        E 1 98 51 64
        E 0 9f 4e 64
        E 1 9a 45 64
        E 0 9e 32 64
        E 238 84 51 64
        E 0 88 51 64
        E 1 8f 4e 64
        E 0 94 4e 64
        E 0 98 4e 64
        E 0 9f 4a 64
        E 238 80 4a 64
        E 1 81 42 64
        E 0 82 39 64
        E 1 83 32 64
        E 0 84 4e 64
        E 1 85 4a 64
        E 0 88 4e 64
        E 1 8f 4a 64
        E 0 8a 45 64
        E 0 8e 32 64
        E 1 90 4a 64
        E 0 91 40 64
        E 0 92 39 64
        E 0 93 39 64
        E 0 94 4c 64
        E 0 95 4a 64
        E 0 98 51 64
        E 0 9f 4c 64
        E 0 9a 45 64
        E 0 9e 2d 64
        E 235 88 51 64
        E 0 8f 4c 64
        E 1 98 4c 64
        E 0 9f 4a 64
        E 238 84 4c 64
        E 0 85 4a 64
        E 0 88 4c 64
        E 0 8f 4a 64
        E 1 8a 45 64
        E 0 8e 2d 64
        E 1 94 4c 64
        E 1 95 4a 64
        E 0 98 51 64
        E 1 9f 4c 64
        E 0 9a 45 64
        E 1 9e 39 64
        E 235 88 51 64
        E 0 8f 4c 64
        E 0 98 4c 64
        E 1 9f 4a 64
        E 240 84 4c 64
        E 1 85 4a 64
        E 0 88 4c 64
        E 0 8f 4a 64
        E 1 8a 45 64
        E 0 8e 39 64
        E 1 94 4c 64
        E 0 95 4a 64
        E 0 98 51 64
        E 1 9f 4c 64
        E 0 9a 45 64
        E 0 9e 2d 64
        E 237 88 51 64
        E 0 8f 4c 64
        E 0 98 4c 64
        E 0 9f 4a 64
        E 240 84 4c 64
        E 0 85 4a 64
        E 0 88 4c 64
        E 0 8f 4a 64
        E 1 8a 45 64
        E 1 8e 2d 64
        E 1 94 4c 64
        E 0 95 4a 64
        E 0 98 51 64
        E 1 9f 4c 64
        E 0 9a 45 64
        E 0 9e 2d 64
        E 236 88 51 64
        E 0 8f 4c 64
        E 0 98 4c 64
        E 1 9f 4a 64
        E 238 80 4a 64
        E 0 81 40 64
        E 1 82 39 64
        E 0 83 39 64
        E 0 84 4c 64
        E 1 85 4a 64
        E 0 88 4c 64
        E 0 8f 4a 64
        E 1 8a 45 64
        E 0 8e 2d 64
        E 0 90 49 64
        E 1 91 40 64
        E 0 92 39 64
        E 0 93 2d 64
        E 0 94 4c 64
        E 0 95 49 64
        E 0 98 51 64
        E 0 9f 4c 64
        E 0 9a 45 64
        E 1 9e 2d 64
        E 236 88 51 64
        E 0 8f 4c 64
        E 1 98 4c 64
        E 1 9f 49 64
        E 237 84 4c 64
        E 0 85 49 64
        E 0 88 4c 64
        E 1 8f 49 64
        E 0 8a 45 64
        E 1 8e 2d 64
        E 0 94 4c 64
        E 1 95 49 64
        E 0 98 51 64
        E 0 9f 4c 64
        E 1 9a 45 64
        E 0 9e 39 64
        E 237 88 51 64
        E 1 8f 4c 64
        E 0 98 4c 64
        E 1 9f 49 64
        E 238 84 4c 64
        E 0 85 49 64
        E 1 88 4c 64
        E 0 8f 49 64
        E 0 8a 45 64
        E 1 8e 39 64
        E 0 94 4c 64
        E 1 95 49 64
        E 0 98 51 64
        E 0 9f 4c 64
        E 0 9a 45 64
        E 1 9e 2d 64
        E 233 88 51 64
        E 0 8f 4c 64
        E 0 98 4c 64
        E 1 9f 49 64
        E 240 84 4c 64
        E 1 85 49 64
        E 0 88 4c 64
        E 1 8f 49 64
        E 0 8a 45 64
        E 0 8e 2d 64
        E 1 94 4c 64
        E 0 95 49 64
        E 0 98 51 64
        E 1 9f 4c 64
        E 0 9a 45 64
        E 1 9e 2d 64
        E 236 88 51 64
        E 0 8f 4c 64
        E 1 98 4c 64
        E 0 9f 49 64
        E 241 80 49 64
        E 0 81 40 64
        E 0 82 39 64
        E 1 83 2d 64
        E 0 84 4c 64
        E 0 85 49 64
        E 0 88 4c 64
        E 0 8f 49 64
        E 1 8a 45 64
        E 0 8e 2d 64
        E 0 90 4a 64
        E 1 91 42 64
        E 0 92 39 64
        E 0 93 32 64
        E 0 94 4e 64
        E 0 95 4a 64
        E 0 98 4e 64
        E 0 9f 4a 64
        E 1 9a 45 64
        E 0 9e 32 64
        E 234 88 4e 64
        E 1 98 51 64
        E 238 88 51 64
        E 1 98 4e 64
        E 237 88 4e 64
        E 0 98 51 64
        E 244 84 4e 64
        E 0 85 4a 64
        E 1 88 51 64
        E 0 8f 4a 64
        E 0 8a 45 64
        E 1 8e 32 64
        E 1 98 4a 64
        E 0 9f 4e 64
        E 237 88 4a 64
        E 0 8f 4e 64
        E 0 98 4e 64
        E 0 9f 51 64
        E 240 88 4e 64
        E 0 8f 51 64
        E 1 98 4a 64
        E 0 9f 4e 64
        E 240 88 4a 64
        E 0 8f 4e 64
        E 0 98 4e 64
        E 1 9f 51 64
        E 235 80 4a 64
        E 1 81 42 64
        E 0 82 39 64
        E 1 83 32 64
        E 0 88 4e 64
        E 1 8f 51 64
        E 0 94 4e 64
        E 1 95 4a 64
        E 0 98 45 64
        E 0 9f 4a 64
        E 0 9a 42 64
        E 0 9e 32 64
        E 236 88 45 64
        E 0 8f 4a 64
        E 0 98 4a 64
        E 0 9f 4e 64
        E 241 88 4a 64
        E 1 8f 4e 64
        E 0 98 45 64
        E 0 9f 4a 64
        E 242 88 45 64
        E 0 8f 4a 64
        E 1 98 4a 64
        E 0 9f 4e 64
        E 238 84 4e 64
        E 0 85 4a 64
        E 0 88 4a 64
        E 1 8f 4e 64
        E 0 8a 42 64
        E 1 8e 32 64
        E 0 98 42 64
        E 1 9f 45 64
        E 237 88 42 64
        E 0 8f 45 64
        E 0 98 45 64
        E 1 9f 4a 64
        E 238 88 45 64
        E 0 8f 4a 64
        E 1 98 42 64
        E 0 9f 45 64
        E 239 88 42 64
        E 0 8f 45 64
        E 1 98 45 64
        E 0 9f 4a 64
        E 240 88 45 64
        E 0 8f 4a 64
        E 1 94 3e 64
        E 0 95 3e 64
        E 1 98 3e 64
        E 0 9f 42 64
        E 1 9a 3e 64
        E 0 9e 32 64
        E 478 85 3e 64
        E 1 88 3e 64
        E 0 8f 42 64
        E 0 8a 3e 64
        E 1 8e 32 64
        E 0 95 3e 64
        E 1 98 3e 64
        E 0 9f 3e 64
        E 0 9a 3e 64
        E 1 9e 32 64
        E 234 85 3e 64
        E 0 88 3e 64
        E 0 8f 3e 64
        E 0 8a 3e 64
        E 1 8e 32 64
        E 1 95 40 64
        E 0 98 40 64
        E 0 9f 40 64
        E 0 9a 40 64
        E 0 9e 34 64
        E 236 84 3e 64
        E 1 85 40 64
        E 0 88 40 64
        E 0 8f 40 64
        E 0 8a 40 64
        E 1 8e 34 64
        E 0 94 42 64
        E 0 95 42 64
        E 0 98 42 64
        E 1 9f 42 64
        E 0 9a 42 64
        E 0 9e 36 64
        E 479 85 42 64
        E 1 88 42 64
        E 0 8f 42 64
        E 0 8a 42 64
        E 1 8e 36 64
        E 0 95 42 64
        E 1 98 42 64
        E 1 9f 42 64
        E 0 9a 42 64
        E 0 9e 36 64
        E 237 85 42 64
        E 1 88 42 64
        E 0 8f 42 64
        E 0 8a 42 64
        E 0 8e 36 64
        E 0 95 43 64
        E 0 98 43 64
        E 0 9f 43 64
        E 0 9a 43 64
        E 1 9e 37 64
        E 239 84 42 64
        E 0 85 43 64
        E 0 88 43 64
        E 1 8f 43 64
        E 0 8a 43 64
        E 0 8e 37 64
        E 0 94 45 64
        E 1 95 45 64
        E 0 98 45 64
        E 0 9f 45 64
        E 0 9a 45 64
        E 0 9e 39 64
        E 957 84 45 64
        E 0 85 45 64
        E 1 88 45 64
        E 0 8f 45 64
        E 1 8a 45 64
        E 0 8e 39 64
        E 1 94 45 64
        E 0 95 45 64
        E 1 98 39 64
        E 0 9f 39 64
        E 1 9a 39 64
        E 0 9e 2d 64
        E 953 84 45 64
        E 1 85 45 64
        E 0 88 39 64
        E 0 8f 39 64
        E 1 8a 39 64
        E 0 8e 2d 64
        E 1 94 3e 64
        E 0 95 3e 64
        E 0 98 3e 64
        E 0 9f 3e 64
        E 1 9a 3e 64
        E 0 9e 26 64
        E 2877 84 3e 64
        E 1 85 3e 64
        E 0 88 3e 64
        E 1 8f 3e 64
        E 0 8a 3e 64
        E 0 8e 26 64
        E 0 b0 7b 00
        CCINTERP 32
        CHASE_CC_TAKEOFFS 1
        GUID {42833AD4-F372-4254-A5FD-4363CDEA7722}
        IGNTEMPO 0 120 4 4
        SRCCOLOR 34
        VELLANE -1 100 0
        CFGEDITVIEW 0 0.000499 39 12 0 -1 0 0 0 0.5
        KEYSNAP 0
        TRACKSEL 0
        EVTFILTER 0 192 -1 -1 -1 0 1 0 0 -1 -1 -1 -1 0 -1 0 -1 -1
        CFGEDIT 1 1 0 1 0 4 1 1 1 1 1 1 369 464 2145 1465 1 0 0 1 0 0 0 1 0 0.5 0 0 1 64
      >
    >
  >
  <TRACK {38FCA11C-A228-4000-A1E5-31EB48963D65}
    NAME ""
    PEAKCOL 16576
    BEAT -1
    AUTOMODE 0
    VOLPAN 1 0 -1 -1 1
    MUTESOLO 0 0 0
    IPHASE 0
    PLAYOFFS 0 1
    ISBUS 0 0
    BUSCOMP 0 0 0 0 0
    SHOWINMIX 1 0.6667 0.5 1 0.5 0 -1 0
    FREEMODE 0
    SEL 1
    REC 0 4096 1 0 0 0 0
    VU 2
    TRACKHEIGHT 0 0 0 0 0 0
    INQ 0 0 0 0.5 100 0 0 100
    NCHAN 2
    FX 1
    TRACKID {38FCA11C-A228-4000-A1E5-31EB48963D65}
    PERF 0
    MIDIOUT 33
    MAINSEND 1 0
    <ITEM
      POSITION 67.05949845721638
      SNAPOFFS 0
      LENGTH 1.75271218401654
      LOOP 1
      ALLTAKES 0
      FADEIN 1 0 0 1 0 0 0
      FADEOUT 1 0 0 1 0 0 0
      MUTE 0 0
      SEL 0
      IGUID {CEF47294-13EA-4E47-8CC4-9DD33FD1139F}
      IID 14
      NAME "02-Recorded MIDI"
      VOLPAN 1 0 1 -1
      SOFFS 32.15679583913465 64.3135916782693
      PLAYRATE 1 1 0 -1 0 0.0025
      CHANMODE 0
      GUID {64991C7E-6DF0-45E0-8797-3FC28C4AFC16}
      RECPASS 7
      <SOURCE MIDI
        HASDATA 1 960 QN
        CCINTERP 32
        POOLEDEVTS {07F97545-B876-4235-820C-37E94FEC0E04}
        E 17732 c9 00 00
        E 0 c0 01 00
        E 1 c0 01 00
        E 2883 b0 7b 00
        E 1 b1 7b 00
        E 0 b2 7b 00
        E 1 b3 7b 00
        E 1 b4 7b 00
        E 1 b5 7b 00
        E 0 b6 7b 00
        E 1 b7 7b 00
        E 1 b8 7b 00
        E 0 b9 7b 00
        E 1 ba 7b 00
        E 0 bb 7b 00
        E 1 bc 7b 00
        E 1 bd 7b 00
        E 1 be 7b 00
        E 0 bf 7b 00
        E 1 c9 00 00
        E 1 c0 01 00
        E 1 b0 07 64
        E 0 b0 0a 40
        E 1 b0 5b 3b
        E 1 b0 5d 00
        E 103 c0 01 00
        E 0 c0 01 00
        E 0 90 24 64
        E 39 80 24 64
        E 0 90 25 64
        E 37 80 25 64
        E 0 90 25 66
        E 40 80 25 66
        E 0 90 28 64
        E 38 80 28 64
        E 0 90 29 63
        E 37 80 29 63
        E 0 90 29 64
        E 39 80 29 64
        E 1 90 29 65
        E 40 80 29 65
        E 0 90 2a 64
        E 37 80 2a 64
        E 0 90 2a 65
        E 38 80 2a 65
        E 0 90 2a 66
        E 37 80 2a 66
        E 1 90 2a 67
        E 40 80 2a 67
        E 0 90 2b 64
        E 36 80 2b 64
        E 0 90 2b 65
        E 40 80 2b 65
        E 0 90 2c 64
        E 38 80 2c 64
        E 0 90 2c 65
        E 38 80 2c 65
        E 0 90 2c 66
        E 37 80 2c 66
        E 0 90 2c 67
        E 38 80 2c 67
        E 0 90 2d 64
        E 42 80 2d 64
        E 0 90 2d 65
        E 36 80 2d 65
        E 0 90 2e 64
        E 38 80 2e 64
        E 1 90 2e 65
        E 37 80 2e 65
        E 1 90 2e 66
        E 39 80 2e 66
        E 1 90 2e 67
        E 36 80 2e 67
        E 1 90 2f 64
        E 38 80 2f 64
        E 0 90 2f 65
        E 41 80 2f 65
        E 0 90 30 63
        E 36 80 30 63
        E 0 90 30 64
        E 38 80 30 64
        E 0 90 30 65
        E 39 80 30 65
        E 0 90 31 64
        E 40 80 31 64
        E 0 90 31 65
        E 38 80 31 65
        E 0 90 31 66
        E 37 80 31 66
        E 0 90 31 67
        E 38 80 31 67
        E 0 90 32 64
        E 40 80 32 64
        E 0 90 32 65
        E 36 80 32 65
        E 0 90 33 64
        E 42 80 33 64
        E 0 90 33 65
        E 36 80 33 65
        E 0 90 33 66
        E 38 80 33 66
        E 0 90 33 67
        E 41 80 33 67
        E 0 90 34 64
        E 37 80 34 64
        E 0 90 34 65
        E 38 80 34 65
        E 0 90 35 63
        E 40 80 35 63
        E 0 90 35 64
        E 36 80 35 64
        E 0 90 35 65
        E 39 80 35 65
        E 0 90 36 64
        E 37 80 36 64
        E 0 90 36 65
        E 38 80 36 65
        E 1 90 36 66
        E 41 80 36 66
        E 0 90 36 67
        E 36 80 36 67
        E 1 90 37 64
        E 37 80 37 64
        E 0 90 37 65
        E 40 80 37 65
        E 0 90 38 64
        E 41 80 38 64
        E 0 90 38 65
        E 35 80 38 65
        E 0 90 38 66
        E 39 80 38 66
        E 0 90 38 67
        E 36 80 38 67
        E 0 90 39 64
        E 40 80 39 64
        E 0 90 39 65
        E 38 80 39 65
        E 0 90 3a 64
        E 39 80 3a 64
        E 0 90 3a 65
        E 37 80 3a 65
        E 1 90 3a 66
        E 40 80 3a 66
        E 1 90 3a 67
        E 37 80 3a 67
        E 0 90 3b 64
        E 40 80 3b 64
        E 0 90 3b 65
        E 36 80 3b 65
        E 0 90 3c 63
        E 40 80 3c 63
        E 0 90 3c 64
        E 37 80 3c 64
        E 0 90 3c 65
        E 38 80 3c 65
        E 0 90 3d 64
        E 40 80 3d 64
        E 0 90 3d 65
        E 38 80 3d 65
        E 0 90 3d 66
        E 39 80 3d 66
        E 0 90 3d 67
        E 36 80 3d 67
        E 0 90 3e 64
        E 38 80 3e 64
        E 0 90 3e 65
        E 40 80 3e 65
        E 0 90 3f 64
        E 39 80 3f 64
        E 0 90 3f 65
        E 39 80 3f 65
        E 0 90 3f 66
        E 38 80 3f 66
        E 1 90 3f 67
        E 35 80 3f 67
        E 0 90 40 64
        E 40 80 40 64
        E 1 90 40 65
        E 38 80 40 65
        E 0 90 41 63
        E 38 80 41 63
        E 0 90 41 64
        E 37 80 41 64
        E 0 90 41 65
        E 40 80 41 65
        E 0 90 42 64
        E 39 80 42 64
        E 0 90 42 65
        E 36 80 42 65
        E 1 90 42 66
        E 38 80 42 66
        E 1 90 42 67
        E 38 80 42 67
        E 0 90 43 64
        E 36 80 43 64
        E 1 90 43 65
        E 40 80 43 65
        E 0 90 44 64
        E 38 80 44 64
        E 0 90 44 65
        E 39 80 44 65
        E 0 90 44 66
        E 38 80 44 66
        E 0 90 44 67
        E 39 80 44 67
        E 1 90 45 64
        E 37 80 45 64
        E 0 90 45 65
        E 37 80 45 65
        E 0 90 46 64
        E 39 80 46 64
        E 0 90 46 65
        E 39 80 46 65
        E 0 90 46 66
        E 37 80 46 66
        E 0 90 46 67
        E 37 80 46 67
        E 1 90 47 64
        E 39 80 47 64
        E 0 90 47 65
        E 40 80 47 65
        E 0 90 48 63
        E 39 80 48 63
        E 0 90 48 64
        E 39 80 48 64
        E 0 90 48 65
        E 37 80 48 65
        E 0 90 49 64
        E 40 80 49 64
        E 0 90 49 65
        E 37 80 49 65
        E 0 90 49 66
        E 37 80 49 66
        E 0 90 49 67
        E 42 80 49 67
        E 0 90 4a 64
        E 34 80 4a 64
        E 1 90 4a 65
        E 40 80 4a 65
        E 0 90 4b 64
        E 38 80 4b 64
        E 0 90 4b 65
        E 38 80 4b 65
        E 0 90 4b 66
        E 40 80 4b 66
        E 0 90 4b 67
        E 36 80 4b 67
        E 1 90 4c 64
        E 36 80 4c 64
        E 1 90 4c 65
        E 42 80 4c 65
        E 0 90 4d 63
        E 35 80 4d 63
        E 0 90 4d 64
        E 39 80 4d 64
        E 0 90 4d 65
        E 39 80 4d 65
        E 0 90 4e 64
        E 37 80 4e 64
        E 0 90 4e 65
        E 38 80 4e 65
        E 0 90 4e 66
        E 42 80 4e 66
        E 0 90 4e 67
        E 36 80 4e 67
        E 0 90 4f 64
        E 38 80 4f 64
        E 0 90 4f 65
        E 37 80 4f 65
        E 1 90 50 64
        E 40 80 50 64
        E 0 90 50 65
        E 41 80 50 65
        E 0 90 50 66
        E 36 80 50 66
        E 0 90 50 67
        E 37 80 50 67
        E 0 90 51 64
        E 40 80 51 64
        E 0 90 51 65
        E 37 80 51 65
        E 0 90 52 64
        E 39 80 52 64
        E 1 90 52 65
        E 39 80 52 65
        E 0 90 52 66
        E 36 80 52 66
        E 0 90 52 67
        E 38 80 52 67
        E 1 90 53 64
        E 37 80 53 64
        E 0 90 53 65
        E 41 80 53 65
        E 0 90 54 64
        E 37 80 54 64
        E 0 90 54 65
        E 38 80 54 65
        E 3644 b0 7b 00
        E 1 b1 7b 00
        E 1 b2 7b 00
        E 1 b3 7b 00
        E 1 b4 7b 00
        E 0 b5 7b 00
        E 1 b6 7b 00
        E 0 b7 7b 00
        E 1 b8 7b 00
        E 0 b9 7b 00
        E 1 ba 7b 00
        E 0 bb 7b 00
        E 1 bc 7b 00
        E 1 bd 7b 00
        E 1 be 7b 00
        E 1 bf 7b 00
        E 0 b0 79 00
        E 1 b1 79 00
        E 1 b2 79 00
        E 1 b3 79 00
        E 1 b4 79 00
        E 0 b5 79 00
        E 1 b6 79 00
        E 1 b7 79 00
        E 1 b8 79 00
        E 1 b9 79 00
        E 0 ba 79 00
        E 1 bb 79 00
        E 1 bc 79 00
        E 0 bd 79 00
        E 1 be 79 00
        E 0 bf 79 00
        E 12555 c9 00 00
        E 1 c0 01 00
        E 0 c0 01 00
        E 1479 b0 7b 00
        E 0 b1 7b 00
        E 1 b2 7b 00
        E 0 b3 7b 00
        E 1 b4 7b 00
        E 1 b5 7b 00
        E 0 b6 7b 00
        E 1 b7 7b 00
        E 1 b8 7b 00
        E 1 b9 7b 00
        E 0 ba 7b 00
        E 1 bb 7b 00
        E 0 bc 7b 00
        E 1 bd 7b 00
        E 1 be 7b 00
        E 1 bf 7b 00
        E 1 c9 00 00
        E 0 c0 01 00
        E 2 b0 07 64
        E 0 b0 0a 40
        E 1 b0 5b 3b
        E 1 b0 5d 00
        E 83 c0 01 00
        E 0 c0 01 00
        E 0 90 24 64
        E 29 80 24 64
        E 0 90 25 64
        E 31 80 25 64
        E 0 90 25 66
        E 30 80 25 66
        E 0 90 28 64
        E 31 80 28 64
        E 0 90 29 63
        E 31 80 29 63
        E 0 90 29 64
        E 30 80 29 64
        E 0 90 29 65
        E 28 80 29 65
        E 1 90 2a 64
        E 32 80 2a 64
        E 0 90 2a 65
        E 32 80 2a 65
        E 0 90 2a 66
        E 27 80 2a 66
        E 1 90 2a 67
        E 29 80 2a 67
        E 0 90 2b 64
        E 30 80 2b 64
        E 0 90 2b 65
        E 31 80 2b 65
        E 0 90 2c 64
        E 31 80 2c 64
        E 0 90 2c 65
        E 30 80 2c 65
        E 0 90 2c 66
        E 29 80 2c 66
        E 0 90 2c 67
        E 30 80 2c 67
        E 0 90 2d 64
        E 30 80 2d 64
        E 1 90 2d 65
        E 32 80 2d 65
        E 0 90 2e 64
        E 28 80 2e 64
        E 0 90 2e 65
        E 31 80 2e 65
        E 0 90 2e 66
        E 31 80 2e 66
        E 1 90 2e 67
        E 31 80 2e 67
        E 0 90 2f 64
        E 28 80 2f 64
        E 0 90 2f 65
        E 29 80 2f 65
        E 0 90 30 63
        E 33 80 30 63
        E 0 90 30 64
        E 31 80 30 64
        E 0 90 30 65
        E 33 80 30 65
        E 0 90 31 64
        E 27 80 31 64
        E 0 90 31 65
        E 31 80 31 65
        E 0 90 31 66
        E 28 80 31 66
        E 0 90 31 67
        E 31 80 31 67
        E 0 90 32 64
        E 33 80 32 64
        E 0 90 32 65
        E 28 80 32 65
        E 0 90 33 64
        E 30 80 33 64
        E 0 90 33 65
        E 29 80 33 65
        E 0 90 33 66
        E 31 80 33 66
        E 0 90 33 67
        E 30 80 33 67
        E 0 90 34 64
        E 32 80 34 64
        E 0 90 34 65
        E 29 80 34 65
        E 0 90 35 63
        E 31 80 35 63
        E 0 90 35 64
        E 31 80 35 64
        E 0 90 35 65
        E 28 80 35 65
        E 0 90 36 64
        E 30 80 36 64
        E 0 90 36 65
        E 32 80 36 65
        E 0 90 36 66
        E 31 80 36 66
        E 0 90 36 67
        E 30 80 36 67
        E 0 90 37 64
        E 31 80 37 64
        E 0 90 37 65
        E 31 80 37 65
        E 0 90 38 64
        E 28 80 38 64
        E 0 90 38 65
        E 30 80 38 65
        E 0 90 38 66
        E 31 80 38 66
        E 0 90 38 67
        E 31 80 38 67
        E 0 90 39 64
        E 30 80 39 64
        E 0 90 39 65
        E 29 80 39 65
        E 1 90 3a 64
        E 33 80 3a 64
        E 0 90 3a 65
        E 25 80 3a 65
        E 0 90 3a 66
        E 31 80 3a 66
        E 0 90 3a 67
        E 35 80 3a 67
        E 0 90 3b 64
        E 27 80 3b 64
        E 0 90 3b 65
        E 32 80 3b 65
        E 0 90 3c 63
        E 29 80 3c 63
        E 1 90 3c 64
        E 29 80 3c 64
        E 0 90 3c 65
        E 31 80 3c 65
        E 0 90 3d 64
        E 30 80 3d 64
        E 1 90 3d 65
        E 31 80 3d 65
        E 0 90 3d 66
        E 28 80 3d 66
        E 0 90 3d 67
        E 30 80 3d 67
        E 0 90 3e 64
        E 32 80 3e 64
        E 0 90 3e 65
        E 31 80 3e 65
        E 0 90 3f 64
        E 30 80 3f 64
        E 0 90 3f 65
        E 28 80 3f 65
        E 0 90 3f 66
        E 31 80 3f 66
        E 0 90 3f 67
        E 32 80 3f 67
        E 0 90 40 64
        E 32 80 40 64
        E 0 90 40 65
        E 27 80 40 65
        E 0 90 41 63
        E 30 80 41 63
        E 1 90 41 64
        E 29 80 41 64
        E 0 90 41 65
        E 33 80 41 65
        E 0 90 42 64
        E 31 80 42 64
        E 0 90 42 65
        E 30 80 42 65
        E 0 90 42 66
        E 30 80 42 66
        E 0 90 42 67
        E 30 80 42 67
        E 0 90 43 64
        E 28 80 43 64
        E 0 90 43 65
        E 32 80 43 65
        E 0 90 44 64
        E 31 80 44 64
        E 0 90 44 65
        E 29 80 44 65
        E 0 90 44 66
        E 30 80 44 66
        E 1 90 44 67
        E 32 80 44 67
        E 1 90 45 64
        E 30 80 45 64
        E 0 90 45 65
        E 26 80 45 65
        E 0 90 46 64
        E 32 80 46 64
        E 0 90 46 65
        E 30 80 46 65
        E 1 90 46 66
        E 29 80 46 66
        E 0 90 46 67
        E 31 80 46 67
        E 0 90 47 64
        E 30 80 47 64
        E 0 90 47 65
        E 29 80 47 65
        E 0 90 48 63
        E 33 80 48 63
        E 0 90 48 64
        E 31 80 48 64
        E 1 90 48 65
        E 27 80 48 65
        E 0 90 49 64
        E 32 80 49 64
        E 0 90 49 65
        E 31 80 49 65
        E 0 90 49 66
        E 32 80 49 66
        E 0 90 49 67
        E 27 80 49 67
        E 0 90 4a 64
        E 28 80 4a 64
        E 1 90 4a 65
        E 31 80 4a 65
        E 0 90 4b 64
        E 30 80 4b 64
        E 0 90 4b 65
        E 33 80 4b 65
        E 0 90 4b 66
        E 31 80 4b 66
        E 0 90 4b 67
        E 27 80 4b 67
        E 0 90 4c 64
        E 31 80 4c 64
        E 0 90 4c 65
        E 31 80 4c 65
        E 0 90 4d 63
        E 31 80 4d 63
        E 0 90 4d 64
        E 27 80 4d 64
        E 1 90 4d 65
        E 30 80 4d 65
        E 0 90 4e 64
        E 32 80 4e 64
        E 0 90 4e 65
        E 32 80 4e 65
        E 0 90 4e 66
        E 29 80 4e 66
        E 0 90 4e 67
        E 28 80 4e 67
        E 0 90 4f 64
        E 33 80 4f 64
        E 0 90 4f 65
        E 30 80 4f 65
        E 1 90 50 64
        E 29 80 50 64
        E 0 90 50 65
        E 30 80 50 65
        E 0 90 50 66
        E 27 80 50 66
        E 1 90 50 67
        E 32 80 50 67
        E 1 90 51 64
        E 30 80 51 64
        E 0 90 51 65
        E 30 80 51 65
        E 1 90 52 64
        E 28 80 52 64
        E 0 90 52 65
        E 33 80 52 65
        E 0 90 52 66
        E 31 80 52 66
        E 0 90 52 67
        E 28 80 52 67
        E 0 90 53 64
        E 31 80 53 64
        E 0 90 53 65
        E 29 80 53 65
        E 0 90 54 64
        E 31 80 54 64
        E 1 90 54 65
        E 29 80 54 65
        E 2143 b0 7b 00
        E 1 b1 7b 00
        E 0 b2 7b 00
        E 1 b3 7b 00
        E 1 b4 7b 00
        E 1 b5 7b 00
        E 0 b6 7b 00
        E 1 b7 7b 00
        E 1 b8 7b 00
        E 0 b9 7b 00
        E 1 ba 7b 00
        E 1 bb 7b 00
        E 0 bc 7b 00
        E 1 bd 7b 00
        E 0 be 7b 00
        E 1 bf 7b 00
        E 1 89 4d 00
        E 0 b0 79 00
        E 1 b1 79 00
        E 0 b2 79 00
        E 1 b3 79 00
        E 1 b4 79 00
        E 0 b5 79 00
        E 1 b6 79 00
        E 0 b7 79 00
        E 1 b8 79 00
        E 0 b9 79 00
        E 1 ba 79 00
        E 1 bb 79 00
        E 0 bc 79 00
        E 1 bd 79 00
        E 1 be 79 00
        E 0 bf 79 00
        E 10247 c9 00 00
        E 0 c0 01 00
        E 0 c0 01 00
        E 1580 b0 7b 00
        E 0 b1 7b 00
        E 1 b2 7b 00
        E 0 b3 7b 00
        E 1 b4 7b 00
        E 0 b5 7b 00
        E 1 b6 7b 00
        E 0 b7 7b 00
        E 0 b8 7b 00
        E 0 b9 7b 00
        E 1 ba 7b 00
        E 0 bb 7b 00
        E 0 bc 7b 00
        E 0 bd 7b 00
        E 0 be 7b 00
        E 0 bf 7b 00
        E 1 c9 00 00
        E 0 c0 01 00
        E 0 b0 07 64
        E 0 b0 0a 40
        E 1 b0 5b 3b
        E 0 b0 5d 00
        E 53 c0 01 00
        E 0 c0 01 00
        E 0 90 24 64
        E 24 80 24 64
        E 0 90 25 64
        E 22 80 25 64
        E 0 90 25 66
        E 23 80 25 66
        E 0 90 28 64
        E 22 80 28 64
        E 0 90 29 63
        E 25 80 29 63
        E 1 90 29 64
        E 25 80 29 64
        E 0 90 29 65
        E 20 80 29 65
        E 0 90 2a 64
        E 23 80 2a 64
        E 0 90 2a 65
        E 22 80 2a 65
        E 0 90 2a 66
        E 23 80 2a 66
        E 0 90 2a 67
        E 22 80 2a 67
        E 0 90 2b 64
        E 23 80 2b 64
        E 1 90 2b 65
        E 26 80 2b 65
        E 0 90 2c 64
        E 21 80 2c 64
        E 0 90 2c 65
        E 22 80 2c 65
        E 1 90 2c 66
        E 22 80 2c 66
        E 0 90 2c 67
        E 24 80 2c 67
        E 0 90 2d 64
        E 23 80 2d 64
        E 0 90 2d 65
        E 22 80 2d 65
        E 1 90 2e 64
        E 24 80 2e 64
        E 1 90 2e 65
        E 20 80 2e 65
        E 0 90 2e 66
        E 23 80 2e 66
        E 0 90 2e 67
        E 25 80 2e 67
        E 1 90 2f 64
        E 23 80 2f 64
        E 0 90 2f 65
        E 23 80 2f 65
        E 0 90 30 63
        E 23 80 30 63
        E 0 90 30 64
        E 21 80 30 64
        E 0 90 30 65
        E 23 80 30 65
        E 0 90 31 64
        E 22 80 31 64
        E 0 90 31 65
        E 23 80 31 65
        E 0 90 31 66
        E 26 80 31 66
        E 1 90 31 67
        E 21 80 31 67
        E 0 90 32 64
        E 24 80 32 64
        E 0 90 32 65
        E 21 80 32 65
        E 0 90 33 64
        E 22 80 33 64
        E 0 90 33 65
        E 25 80 33 65
        E 0 90 33 66
        E 23 80 33 66
        E 0 90 33 67
        E 24 80 33 67
        E 1 90 34 64
        E 21 80 34 64
        E 1 90 34 65
        E 23 80 34 65
        E 0 90 35 63
        E 23 80 35 63
        E 0 90 35 64
        E 23 80 35 64
        E 1 90 35 65
        E 22 80 35 65
        E 1 90 36 64
        E 20 80 36 64
        E 0 90 36 65
        E 22 80 36 65
        E 0 90 36 66
        E 24 80 36 66
        E 1 90 36 67
        E 22 80 36 67
        E 1 90 37 64
        E 24 80 37 64
        E 1 90 37 65
        E 24 80 37 65
        E 0 90 38 64
        E 21 80 38 64
        E 1 90 38 65
        E 21 80 38 65
        E 0 90 38 66
        E 22 80 38 66
        E 1 90 38 67
        E 22 80 38 67
        E 0 90 39 64
        E 26 80 39 64
        E 1 90 39 65
        E 22 80 39 65
        E 1 90 3a 64
        E 21 80 3a 64
        E 0 90 3a 65
        E 23 80 3a 65
        E 0 90 3a 66
        E 23 80 3a 66
        E 0 90 3a 67
        E 22 80 3a 67
        E 1 90 3b 64
        E 24 80 3b 64
        E 0 90 3b 65
        E 22 80 3b 65
        E 0 90 3c 63
        E 21 80 3c 63
        E 0 90 3c 64
        E 23 80 3c 64
        E 0 90 3c 65
        E 23 80 3c 65
        E 1 90 3d 64
        E 26 80 3d 64
        E 0 90 3d 65
        E 21 80 3d 65
        E 0 90 3d 66
        E 22 80 3d 66
        E 0 90 3d 67
        E 23 80 3d 67
        E 0 90 3e 64
        E 25 80 3e 64
        E 0 90 3e 65
        E 25 80 3e 65
        E 0 90 3f 64
        E 20 80 3f 64
        E 0 90 3f 65
        E 23 80 3f 65
        E 0 90 3f 66
        E 23 80 3f 66
        E 0 90 3f 67
        E 23 80 3f 67
        E 0 90 40 64
        E 24 80 40 64
        E 1 90 40 65
        E 22 80 40 65
        E 0 90 41 63
        E 25 80 41 63
        E 0 90 41 64
        E 22 80 41 64
        E 0 90 41 65
        E 21 80 41 65
        E 1 90 42 64
        E 22 80 42 64
        E 0 90 42 65
        E 22 80 42 65
        E 0 90 42 66
        E 25 80 42 66
        E 0 90 42 67
        E 25 80 42 67
        E 0 90 43 64
        E 21 80 43 64
        E 0 90 43 65
        E 23 80 43 65
        E 0 90 44 64
        E 23 80 44 64
        E 0 90 44 65
        E 26 80 44 65
        E 0 90 44 66
        E 22 80 44 66
        E 0 90 44 67
        E 19 80 44 67
        E 0 90 45 64
        E 23 80 45 64
        E 0 90 45 65
        E 24 80 45 65
        E 1 90 46 64
        E 25 80 46 64
        E 0 90 46 65
        E 21 80 46 65
        E 0 90 46 66
        E 25 80 46 66
        E 0 90 46 67
        E 21 80 46 67
        E 0 90 47 64
        E 22 80 47 64
        E 0 90 47 65
        E 23 80 47 65
        E 0 90 48 63
        E 23 80 48 63
        E 0 90 48 64
        E 24 80 48 64
        E 1 90 48 65
        E 23 80 48 65
        E 0 90 49 64
        E 23 80 49 64
        E 0 90 49 65
        E 22 80 49 65
        E 0 90 49 66
        E 23 80 49 66
        E 0 90 49 67
        E 25 80 49 67
        E 0 90 4a 64
        E 25 80 4a 64
        E 0 90 4a 65
        E 18 80 4a 65
        E 0 90 4b 64
        E 22 80 4b 64
        E 0 90 4b 65
        E 25 80 4b 65
        E 1 90 4b 66
        E 22 80 4b 66
        E 1 90 4b 67
        E 22 80 4b 67
        E 1 90 4c 64
        E 21 80 4c 64
        E 1 90 4c 65
        E 24 80 4c 65
        E 0 90 4d 63
        E 23 80 4d 63
        E 0 90 4d 64
        E 23 80 4d 64
        E 0 90 4d 65
        E 24 80 4d 65
        E 1 90 4e 64
        E 21 80 4e 64
        E 1 90 4e 65
        E 21 80 4e 65
        E 0 90 4e 66
        E 25 80 4e 66
        E 0 90 4e 67
        E 22 80 4e 67
        E 0 90 4f 64
        E 22 80 4f 64
        E 0 90 4f 65
        E 26 80 4f 65
        E 0 90 50 64
        E 22 80 50 64
        E 0 90 50 65
        E 22 80 50 65
        E 1 90 50 66
        E 22 80 50 66
        E 0 90 50 67
        E 23 80 50 67
        E 0 90 51 64
        E 23 80 51 64
        E 0 90 51 65
        E 23 80 51 65
        E 1 90 52 64
        E 21 80 52 64
        E 0 90 52 65
        E 26 80 52 65
        E 0 90 52 66
        E 23 80 52 66
        E 0 90 52 67
        E 20 80 52 67
        E 0 90 53 64
        E 25 80 53 64
        E 0 90 53 65
        E 24 80 53 65
        E 0 90 54 64
        E 22 80 54 64
        E 0 90 54 65
        E 23 80 54 65
        E 4965 b0 7b 00
        E 1 b1 7b 00
        E 0 b2 7b 00
        E 1 b3 7b 00
        E 0 b4 7b 00
        E 1 b5 7b 00
        E 0 b6 7b 00
        E 1 b7 7b 00
        E 1 b8 7b 00
        E 0 b9 7b 00
        E 1 ba 7b 00
        E 0 bb 7b 00
        E 1 bc 7b 00
        E 0 bd 7b 00
        E 1 be 7b 00
        E 0 bf 7b 00
        E 1 89 4d 00
        E 0 b0 79 00
        E 1 b1 79 00
        E 1 b2 79 00
        E 0 b3 79 00
        E 0 b4 79 00
        E 1 b5 79 00
        E 0 b6 79 00
        E 1 b7 79 00
        E 0 b8 79 00
        E 1 b9 79 00
        E 0 ba 79 00
        E 0 bb 79 00
        E 0 bc 79 00
        E 0 bd 79 00
        E 1 be 79 00
        E 0 bf 79 00
        E 6601 b0 7b 00
        CCINTERP 32
        CHASE_CC_TAKEOFFS 1
        GUID {D28CA946-B647-4750-87F9-86DC28A534B1}
        IGNTEMPO 0 120 4 4
        SRCCOLOR 48
        VELLANE -1 100 0
      >
    >
    <ITEM
      POSITION 70.40973476728968
      SNAPOFFS 0
      LENGTH 1.75271218401657
      LOOP 1
      ALLTAKES 0
      FADEIN 1 0 0 1 0 0 0
      FADEOUT 1 0 0 1 0 0 0
      MUTE 0 0
      SEL 0
      IGUID {A0B65AFC-27C9-475B-8202-D34EB2B5770F}
      IID 14
      NAME "02-Recorded MIDI"
      VOLPAN 1 0 1 -1
      SOFFS 32.15679583913465 64.3135916782693
      PLAYRATE 1 1 0 -1 0 0.0025
      CHANMODE 0
      GUID {F0161964-F6B0-40E1-A066-270234B37892}
      RECPASS 7
      <SOURCE MIDI
        HASDATA 1 960 QN
        CCINTERP 32
        POOLEDEVTS {EFBB7E34-47B7-4FF8-BF26-453C959A4E34}
        E 17732 c9 00 00
        E 0 c0 01 00
        E 1 c0 01 00
        E 2883 b0 7b 00
        E 1 b1 7b 00
        E 0 b2 7b 00
        E 1 b3 7b 00
        E 1 b4 7b 00
        E 1 b5 7b 00
        E 0 b6 7b 00
        E 1 b7 7b 00
        E 1 b8 7b 00
        E 0 b9 7b 00
        E 1 ba 7b 00
        E 0 bb 7b 00
        E 1 bc 7b 00
        E 1 bd 7b 00
        E 1 be 7b 00
        E 0 bf 7b 00
        E 1 c9 00 00
        E 1 c0 01 00
        E 1 b0 07 64
        E 0 b0 0a 40
        E 1 b0 5b 3b
        E 1 b0 5d 00
        E 103 c0 01 00
        E 0 c0 01 00
        E 0 90 24 64
        E 39 80 24 64
        E 0 90 25 64
        E 37 80 25 64
        E 0 90 25 66
        E 40 80 25 66
        E 0 90 28 64
        E 38 80 28 64
        E 0 90 29 63
        E 37 80 29 63
        E 0 90 29 64
        E 39 80 29 64
        E 1 90 29 65
        E 40 80 29 65
        E 0 90 2a 64
        E 37 80 2a 64
        E 0 90 2a 65
        E 38 80 2a 65
        E 0 90 2a 66
        E 37 80 2a 66
        E 1 90 2a 67
        E 40 80 2a 67
        E 0 90 2b 64
        E 36 80 2b 64
        E 0 90 2b 65
        E 40 80 2b 65
        E 0 90 2c 64
        E 38 80 2c 64
        E 0 90 2c 65
        E 38 80 2c 65
        E 0 90 2c 66
        E 37 80 2c 66
        E 0 90 2c 67
        E 38 80 2c 67
        E 0 90 2d 64
        E 42 80 2d 64
        E 0 90 2d 65
        E 36 80 2d 65
        E 0 90 2e 64
        E 38 80 2e 64
        E 1 90 2e 65
        E 37 80 2e 65
        E 1 90 2e 66
        E 39 80 2e 66
        E 1 90 2e 67
        E 36 80 2e 67
        E 1 90 2f 64
        E 38 80 2f 64
        E 0 90 2f 65
        E 41 80 2f 65
        E 0 90 30 63
        E 36 80 30 63
        E 0 90 30 64
        E 38 80 30 64
        E 0 90 30 65
        E 39 80 30 65
        E 0 90 31 64
        E 40 80 31 64
        E 0 90 31 65
        E 38 80 31 65
        E 0 90 31 66
        E 37 80 31 66
        E 0 90 31 67
        E 38 80 31 67
        E 0 90 32 64
        E 40 80 32 64
        E 0 90 32 65
        E 36 80 32 65
        E 0 90 33 64
        E 42 80 33 64
        E 0 90 33 65
        E 36 80 33 65
        E 0 90 33 66
        E 38 80 33 66
        E 0 90 33 67
        E 41 80 33 67
        E 0 90 34 64
        E 37 80 34 64
        E 0 90 34 65
        E 38 80 34 65
        E 0 90 35 63
        E 40 80 35 63
        E 0 90 35 64
        E 36 80 35 64
        E 0 90 35 65
        E 39 80 35 65
        E 0 90 36 64
        E 37 80 36 64
        E 0 90 36 65
        E 38 80 36 65
        E 1 90 36 66
        E 41 80 36 66
        E 0 90 36 67
        E 36 80 36 67
        E 1 90 37 64
        E 37 80 37 64
        E 0 90 37 65
        E 40 80 37 65
        E 0 90 38 64
        E 41 80 38 64
        E 0 90 38 65
        E 35 80 38 65
        E 0 90 38 66
        E 39 80 38 66
        E 0 90 38 67
        E 36 80 38 67
        E 0 90 39 64
        E 40 80 39 64
        E 0 90 39 65
        E 38 80 39 65
        E 0 90 3a 64
        E 39 80 3a 64
        E 0 90 3a 65
        E 37 80 3a 65
        E 1 90 3a 66
        E 40 80 3a 66
        E 1 90 3a 67
        E 37 80 3a 67
        E 0 90 3b 64
        E 40 80 3b 64
        E 0 90 3b 65
        E 36 80 3b 65
        E 0 90 3c 63
        E 40 80 3c 63
        E 0 90 3c 64
        E 37 80 3c 64
        E 0 90 3c 65
        E 38 80 3c 65
        E 0 90 3d 64
        E 40 80 3d 64
        E 0 90 3d 65
        E 38 80 3d 65
        E 0 90 3d 66
        E 39 80 3d 66
        E 0 90 3d 67
        E 36 80 3d 67
        E 0 90 3e 64
        E 38 80 3e 64
        E 0 90 3e 65
        E 40 80 3e 65
        E 0 90 3f 64
        E 39 80 3f 64
        E 0 90 3f 65
        E 39 80 3f 65
        E 0 90 3f 66
        E 38 80 3f 66
        E 1 90 3f 67
        E 35 80 3f 67
        E 0 90 40 64
        E 40 80 40 64
        E 1 90 40 65
        E 38 80 40 65
        E 0 90 41 63
        E 38 80 41 63
        E 0 90 41 64
        E 37 80 41 64
        E 0 90 41 65
        E 40 80 41 65
        E 0 90 42 64
        E 39 80 42 64
        E 0 90 42 65
        E 36 80 42 65
        E 1 90 42 66
        E 38 80 42 66
        E 1 90 42 67
        E 38 80 42 67
        E 0 90 43 64
        E 36 80 43 64
        E 1 90 43 65
        E 40 80 43 65
        E 0 90 44 64
        E 38 80 44 64
        E 0 90 44 65
        E 39 80 44 65
        E 0 90 44 66
        E 38 80 44 66
        E 0 90 44 67
        E 39 80 44 67
        E 1 90 45 64
        E 37 80 45 64
        E 0 90 45 65
        E 37 80 45 65
        E 0 90 46 64
        E 39 80 46 64
        E 0 90 46 65
        E 39 80 46 65
        E 0 90 46 66
        E 37 80 46 66
        E 0 90 46 67
        E 37 80 46 67
        E 1 90 47 64
        E 39 80 47 64
        E 0 90 47 65
        E 40 80 47 65
        E 0 90 48 63
        E 39 80 48 63
        E 0 90 48 64
        E 39 80 48 64
        E 0 90 48 65
        E 37 80 48 65
        E 0 90 49 64
        E 40 80 49 64
        E 0 90 49 65
        E 37 80 49 65
        E 0 90 49 66
        E 37 80 49 66
        E 0 90 49 67
        E 42 80 49 67
        E 0 90 4a 64
        E 34 80 4a 64
        E 1 90 4a 65
        E 40 80 4a 65
        E 0 90 4b 64
        E 38 80 4b 64
        E 0 90 4b 65
        E 38 80 4b 65
        E 0 90 4b 66
        E 40 80 4b 66
        E 0 90 4b 67
        E 36 80 4b 67
        E 1 90 4c 64
        E 36 80 4c 64
        E 1 90 4c 65
        E 42 80 4c 65
        E 0 90 4d 63
        E 35 80 4d 63
        E 0 90 4d 64
        E 39 80 4d 64
        E 0 90 4d 65
        E 39 80 4d 65
        E 0 90 4e 64
        E 37 80 4e 64
        E 0 90 4e 65
        E 38 80 4e 65
        E 0 90 4e 66
        E 42 80 4e 66
        E 0 90 4e 67
        E 36 80 4e 67
        E 0 90 4f 64
        E 38 80 4f 64
        E 0 90 4f 65
        E 37 80 4f 65
        E 1 90 50 64
        E 40 80 50 64
        E 0 90 50 65
        E 41 80 50 65
        E 0 90 50 66
        E 36 80 50 66
        E 0 90 50 67
        E 37 80 50 67
        E 0 90 51 64
        E 40 80 51 64
        E 0 90 51 65
        E 37 80 51 65
        E 0 90 52 64
        E 39 80 52 64
        E 1 90 52 65
        E 39 80 52 65
        E 0 90 52 66
        E 36 80 52 66
        E 0 90 52 67
        E 38 80 52 67
        E 1 90 53 64
        E 37 80 53 64
        E 0 90 53 65
        E 41 80 53 65
        E 0 90 54 64
        E 37 80 54 64
        E 0 90 54 65
        E 38 80 54 65
        E 3644 b0 7b 00
        E 1 b1 7b 00
        E 1 b2 7b 00
        E 1 b3 7b 00
        E 1 b4 7b 00
        E 0 b5 7b 00
        E 1 b6 7b 00
        E 0 b7 7b 00
        E 1 b8 7b 00
        E 0 b9 7b 00
        E 1 ba 7b 00
        E 0 bb 7b 00
        E 1 bc 7b 00
        E 1 bd 7b 00
        E 1 be 7b 00
        E 1 bf 7b 00
        E 0 b0 79 00
        E 1 b1 79 00
        E 1 b2 79 00
        E 1 b3 79 00
        E 1 b4 79 00
        E 0 b5 79 00
        E 1 b6 79 00
        E 1 b7 79 00
        E 1 b8 79 00
        E 1 b9 79 00
        E 0 ba 79 00
        E 1 bb 79 00
        E 1 bc 79 00
        E 0 bd 79 00
        E 1 be 79 00
        E 0 bf 79 00
        E 12555 c9 00 00
        E 1 c0 01 00
        E 0 c0 01 00
        E 1479 b0 7b 00
        E 0 b1 7b 00
        E 1 b2 7b 00
        E 0 b3 7b 00
        E 1 b4 7b 00
        E 1 b5 7b 00
        E 0 b6 7b 00
        E 1 b7 7b 00
        E 1 b8 7b 00
        E 1 b9 7b 00
        E 0 ba 7b 00
        E 1 bb 7b 00
        E 0 bc 7b 00
        E 1 bd 7b 00
        E 1 be 7b 00
        E 1 bf 7b 00
        E 1 c9 00 00
        E 0 c0 01 00
        E 2 b0 07 64
        E 0 b0 0a 40
        E 1 b0 5b 3b
        E 1 b0 5d 00
        E 83 c0 01 00
        E 0 c0 01 00
        E 0 90 24 64
        E 29 80 24 64
        E 0 90 25 64
        E 31 80 25 64
        E 0 90 25 66
        E 30 80 25 66
        E 0 90 28 64
        E 31 80 28 64
        E 0 90 29 63
        E 31 80 29 63
        E 0 90 29 64
        E 30 80 29 64
        E 0 90 29 65
        E 28 80 29 65
        E 1 90 2a 64
        E 32 80 2a 64
        E 0 90 2a 65
        E 32 80 2a 65
        E 0 90 2a 66
        E 27 80 2a 66
        E 1 90 2a 67
        E 29 80 2a 67
        E 0 90 2b 64
        E 30 80 2b 64
        E 0 90 2b 65
        E 31 80 2b 65
        E 0 90 2c 64
        E 31 80 2c 64
        E 0 90 2c 65
        E 30 80 2c 65
        E 0 90 2c 66
        E 29 80 2c 66
        E 0 90 2c 67
        E 30 80 2c 67
        E 0 90 2d 64
        E 30 80 2d 64
        E 1 90 2d 65
        E 32 80 2d 65
        E 0 90 2e 64
        E 28 80 2e 64
        E 0 90 2e 65
        E 31 80 2e 65
        E 0 90 2e 66
        E 31 80 2e 66
        E 1 90 2e 67
        E 31 80 2e 67
        E 0 90 2f 64
        E 28 80 2f 64
        E 0 90 2f 65
        E 29 80 2f 65
        E 0 90 30 63
        E 33 80 30 63
        E 0 90 30 64
        E 31 80 30 64
        E 0 90 30 65
        E 33 80 30 65
        E 0 90 31 64
        E 27 80 31 64
        E 0 90 31 65
        E 31 80 31 65
        E 0 90 31 66
        E 28 80 31 66
        E 0 90 31 67
        E 31 80 31 67
        E 0 90 32 64
        E 33 80 32 64
        E 0 90 32 65
        E 28 80 32 65
        E 0 90 33 64
        E 30 80 33 64
        E 0 90 33 65
        E 29 80 33 65
        E 0 90 33 66
        E 31 80 33 66
        E 0 90 33 67
        E 30 80 33 67
        E 0 90 34 64
        E 32 80 34 64
        E 0 90 34 65
        E 29 80 34 65
        E 0 90 35 63
        E 31 80 35 63
        E 0 90 35 64
        E 31 80 35 64
        E 0 90 35 65
        E 28 80 35 65
        E 0 90 36 64
        E 30 80 36 64
        E 0 90 36 65
        E 32 80 36 65
        E 0 90 36 66
        E 31 80 36 66
        E 0 90 36 67
        E 30 80 36 67
        E 0 90 37 64
        E 31 80 37 64
        E 0 90 37 65
        E 31 80 37 65
        E 0 90 38 64
        E 28 80 38 64
        E 0 90 38 65
        E 30 80 38 65
        E 0 90 38 66
        E 31 80 38 66
        E 0 90 38 67
        E 31 80 38 67
        E 0 90 39 64
        E 30 80 39 64
        E 0 90 39 65
        E 29 80 39 65
        E 1 90 3a 64
        E 33 80 3a 64
        E 0 90 3a 65
        E 25 80 3a 65
        E 0 90 3a 66
        E 31 80 3a 66
        E 0 90 3a 67
        E 35 80 3a 67
        E 0 90 3b 64
        E 27 80 3b 64
        E 0 90 3b 65
        E 32 80 3b 65
        E 0 90 3c 63
        E 29 80 3c 63
        E 1 90 3c 64
        E 29 80 3c 64
        E 0 90 3c 65
        E 31 80 3c 65
        E 0 90 3d 64
        E 30 80 3d 64
        E 1 90 3d 65
        E 31 80 3d 65
        E 0 90 3d 66
        E 28 80 3d 66
        E 0 90 3d 67
        E 30 80 3d 67
        E 0 90 3e 64
        E 32 80 3e 64
        E 0 90 3e 65
        E 31 80 3e 65
        E 0 90 3f 64
        E 30 80 3f 64
        E 0 90 3f 65
        E 28 80 3f 65
        E 0 90 3f 66
        E 31 80 3f 66
        E 0 90 3f 67
        E 32 80 3f 67
        E 0 90 40 64
        E 32 80 40 64
        E 0 90 40 65
        E 27 80 40 65
        E 0 90 41 63
        E 30 80 41 63
        E 1 90 41 64
        E 29 80 41 64
        E 0 90 41 65
        E 33 80 41 65
        E 0 90 42 64
        E 31 80 42 64
        E 0 90 42 65
        E 30 80 42 65
        E 0 90 42 66
        E 30 80 42 66
        E 0 90 42 67
        E 30 80 42 67
        E 0 90 43 64
        E 28 80 43 64
        E 0 90 43 65
        E 32 80 43 65
        E 0 90 44 64
        E 31 80 44 64
        E 0 90 44 65
        E 29 80 44 65
        E 0 90 44 66
        E 30 80 44 66
        E 1 90 44 67
        E 32 80 44 67
        E 1 90 45 64
        E 30 80 45 64
        E 0 90 45 65
        E 26 80 45 65
        E 0 90 46 64
        E 32 80 46 64
        E 0 90 46 65
        E 30 80 46 65
        E 1 90 46 66
        E 29 80 46 66
        E 0 90 46 67
        E 31 80 46 67
        E 0 90 47 64
        E 30 80 47 64
        E 0 90 47 65
        E 29 80 47 65
        E 0 90 48 63
        E 33 80 48 63
        E 0 90 48 64
        E 31 80 48 64
        E 1 90 48 65
        E 27 80 48 65
        E 0 90 49 64
        E 32 80 49 64
        E 0 90 49 65
        E 31 80 49 65
        E 0 90 49 66
        E 32 80 49 66
        E 0 90 49 67
        E 27 80 49 67
        E 0 90 4a 64
        E 28 80 4a 64
        E 1 90 4a 65
        E 31 80 4a 65
        E 0 90 4b 64
        E 30 80 4b 64
        E 0 90 4b 65
        E 33 80 4b 65
        E 0 90 4b 66
        E 31 80 4b 66
        E 0 90 4b 67
        E 27 80 4b 67
        E 0 90 4c 64
        E 31 80 4c 64
        E 0 90 4c 65
        E 31 80 4c 65
        E 0 90 4d 63
        E 31 80 4d 63
        E 0 90 4d 64
        E 27 80 4d 64
        E 1 90 4d 65
        E 30 80 4d 65
        E 0 90 4e 64
        E 32 80 4e 64
        E 0 90 4e 65
        E 32 80 4e 65
        E 0 90 4e 66
        E 29 80 4e 66
        E 0 90 4e 67
        E 28 80 4e 67
        E 0 90 4f 64
        E 33 80 4f 64
        E 0 90 4f 65
        E 30 80 4f 65
        E 1 90 50 64
        E 29 80 50 64
        E 0 90 50 65
        E 30 80 50 65
        E 0 90 50 66
        E 27 80 50 66
        E 1 90 50 67
        E 32 80 50 67
        E 1 90 51 64
        E 30 80 51 64
        E 0 90 51 65
        E 30 80 51 65
        E 1 90 52 64
        E 28 80 52 64
        E 0 90 52 65
        E 33 80 52 65
        E 0 90 52 66
        E 31 80 52 66
        E 0 90 52 67
        E 28 80 52 67
        E 0 90 53 64
        E 31 80 53 64
        E 0 90 53 65
        E 29 80 53 65
        E 0 90 54 64
        E 31 80 54 64
        E 1 90 54 65
        E 29 80 54 65
        E 2143 b0 7b 00
        E 1 b1 7b 00
        E 0 b2 7b 00
        E 1 b3 7b 00
        E 1 b4 7b 00
        E 1 b5 7b 00
        E 0 b6 7b 00
        E 1 b7 7b 00
        E 1 b8 7b 00
        E 0 b9 7b 00
        E 1 ba 7b 00
        E 1 bb 7b 00
        E 0 bc 7b 00
        E 1 bd 7b 00
        E 0 be 7b 00
        E 1 bf 7b 00
        E 1 89 4d 00
        E 0 b0 79 00
        E 1 b1 79 00
        E 0 b2 79 00
        E 1 b3 79 00
        E 1 b4 79 00
        E 0 b5 79 00
        E 1 b6 79 00
        E 0 b7 79 00
        E 1 b8 79 00
        E 0 b9 79 00
        E 1 ba 79 00
        E 1 bb 79 00
        E 0 bc 79 00
        E 1 bd 79 00
        E 1 be 79 00
        E 0 bf 79 00
        E 10247 c9 00 00
        E 0 c0 01 00
        E 0 c0 01 00
        E 1580 b0 7b 00
        E 0 b1 7b 00
        E 1 b2 7b 00
        E 0 b3 7b 00
        E 1 b4 7b 00
        E 0 b5 7b 00
        E 1 b6 7b 00
        E 0 b7 7b 00
        E 0 b8 7b 00
        E 0 b9 7b 00
        E 1 ba 7b 00
        E 0 bb 7b 00
        E 0 bc 7b 00
        E 0 bd 7b 00
        E 0 be 7b 00
        E 0 bf 7b 00
        E 1 c9 00 00
        E 0 c0 01 00
        E 0 b0 07 64
        E 0 b0 0a 40
        E 1 b0 5b 3b
        E 0 b0 5d 00
        E 53 c0 01 00
        E 0 c0 01 00
        E 0 90 24 64
        E 24 80 24 64
        E 0 90 25 64
        E 22 80 25 64
        E 0 90 25 66
        E 23 80 25 66
        E 0 90 28 64
        E 22 80 28 64
        E 0 90 29 63
        E 25 80 29 63
        E 1 90 29 64
        E 25 80 29 64
        E 0 90 29 65
        E 20 80 29 65
        E 0 90 2a 64
        E 23 80 2a 64
        E 0 90 2a 65
        E 22 80 2a 65
        E 0 90 2a 66
        E 23 80 2a 66
        E 0 90 2a 67
        E 22 80 2a 67
        E 0 90 2b 64
        E 23 80 2b 64
        E 1 90 2b 65
        E 26 80 2b 65
        E 0 90 2c 64
        E 21 80 2c 64
        E 0 90 2c 65
        E 22 80 2c 65
        E 1 90 2c 66
        E 22 80 2c 66
        E 0 90 2c 67
        E 24 80 2c 67
        E 0 90 2d 64
        E 23 80 2d 64
        E 0 90 2d 65
        E 22 80 2d 65
        E 1 90 2e 64
        E 24 80 2e 64
        E 1 90 2e 65
        E 20 80 2e 65
        E 0 90 2e 66
        E 23 80 2e 66
        E 0 90 2e 67
        E 25 80 2e 67
        E 1 90 2f 64
        E 23 80 2f 64
        E 0 90 2f 65
        E 23 80 2f 65
        E 0 90 30 63
        E 23 80 30 63
        E 0 90 30 64
        E 21 80 30 64
        E 0 90 30 65
        E 23 80 30 65
        E 0 90 31 64
        E 22 80 31 64
        E 0 90 31 65
        E 23 80 31 65
        E 0 90 31 66
        E 26 80 31 66
        E 1 90 31 67
        E 21 80 31 67
        E 0 90 32 64
        E 24 80 32 64
        E 0 90 32 65
        E 21 80 32 65
        E 0 90 33 64
        E 22 80 33 64
        E 0 90 33 65
        E 25 80 33 65
        E 0 90 33 66
        E 23 80 33 66
        E 0 90 33 67
        E 24 80 33 67
        E 1 90 34 64
        E 21 80 34 64
        E 1 90 34 65
        E 23 80 34 65
        E 0 90 35 63
        E 23 80 35 63
        E 0 90 35 64
        E 23 80 35 64
        E 1 90 35 65
        E 22 80 35 65
        E 1 90 36 64
        E 20 80 36 64
        E 0 90 36 65
        E 22 80 36 65
        E 0 90 36 66
        E 24 80 36 66
        E 1 90 36 67
        E 22 80 36 67
        E 1 90 37 64
        E 24 80 37 64
        E 1 90 37 65
        E 24 80 37 65
        E 0 90 38 64
        E 21 80 38 64
        E 1 90 38 65
        E 21 80 38 65
        E 0 90 38 66
        E 22 80 38 66
        E 1 90 38 67
        E 22 80 38 67
        E 0 90 39 64
        E 26 80 39 64
        E 1 90 39 65
        E 22 80 39 65
        E 1 90 3a 64
        E 21 80 3a 64
        E 0 90 3a 65
        E 23 80 3a 65
        E 0 90 3a 66
        E 23 80 3a 66
        E 0 90 3a 67
        E 22 80 3a 67
        E 1 90 3b 64
        E 24 80 3b 64
        E 0 90 3b 65
        E 22 80 3b 65
        E 0 90 3c 63
        E 21 80 3c 63
        E 0 90 3c 64
        E 23 80 3c 64
        E 0 90 3c 65
        E 23 80 3c 65
        E 1 90 3d 64
        E 26 80 3d 64
        E 0 90 3d 65
        E 21 80 3d 65
        E 0 90 3d 66
        E 22 80 3d 66
        E 0 90 3d 67
        E 23 80 3d 67
        E 0 90 3e 64
        E 25 80 3e 64
        E 0 90 3e 65
        E 25 80 3e 65
        E 0 90 3f 64
        E 20 80 3f 64
        E 0 90 3f 65
        E 23 80 3f 65
        E 0 90 3f 66
        E 23 80 3f 66
        E 0 90 3f 67
        E 23 80 3f 67
        E 0 90 40 64
        E 24 80 40 64
        E 1 90 40 65
        E 22 80 40 65
        E 0 90 41 63
        E 25 80 41 63
        E 0 90 41 64
        E 22 80 41 64
        E 0 90 41 65
        E 21 80 41 65
        E 1 90 42 64
        E 22 80 42 64
        E 0 90 42 65
        E 22 80 42 65
        E 0 90 42 66
        E 25 80 42 66
        E 0 90 42 67
        E 25 80 42 67
        E 0 90 43 64
        E 21 80 43 64
        E 0 90 43 65
        E 23 80 43 65
        E 0 90 44 64
        E 23 80 44 64
        E 0 90 44 65
        E 26 80 44 65
        E 0 90 44 66
        E 22 80 44 66
        E 0 90 44 67
        E 19 80 44 67
        E 0 90 45 64
        E 23 80 45 64
        E 0 90 45 65
        E 24 80 45 65
        E 1 90 46 64
        E 25 80 46 64
        E 0 90 46 65
        E 21 80 46 65
        E 0 90 46 66
        E 25 80 46 66
        E 0 90 46 67
        E 21 80 46 67
        E 0 90 47 64
        E 22 80 47 64
        E 0 90 47 65
        E 23 80 47 65
        E 0 90 48 63
        E 23 80 48 63
        E 0 90 48 64
        E 24 80 48 64
        E 1 90 48 65
        E 23 80 48 65
        E 0 90 49 64
        E 23 80 49 64
        E 0 90 49 65
        E 22 80 49 65
        E 0 90 49 66
        E 23 80 49 66
        E 0 90 49 67
        E 25 80 49 67
        E 0 90 4a 64
        E 25 80 4a 64
        E 0 90 4a 65
        E 18 80 4a 65
        E 0 90 4b 64
        E 22 80 4b 64
        E 0 90 4b 65
        E 25 80 4b 65
        E 1 90 4b 66
        E 22 80 4b 66
        E 1 90 4b 67
        E 22 80 4b 67
        E 1 90 4c 64
        E 21 80 4c 64
        E 1 90 4c 65
        E 24 80 4c 65
        E 0 90 4d 63
        E 23 80 4d 63
        E 0 90 4d 64
        E 23 80 4d 64
        E 0 90 4d 65
        E 24 80 4d 65
        E 1 90 4e 64
        E 21 80 4e 64
        E 1 90 4e 65
        E 21 80 4e 65
        E 0 90 4e 66
        E 25 80 4e 66
        E 0 90 4e 67
        E 22 80 4e 67
        E 0 90 4f 64
        E 22 80 4f 64
        E 0 90 4f 65
        E 26 80 4f 65
        E 0 90 50 64
        E 22 80 50 64
        E 0 90 50 65
        E 22 80 50 65
        E 1 90 50 66
        E 22 80 50 66
        E 0 90 50 67
        E 23 80 50 67
        E 0 90 51 64
        E 23 80 51 64
        E 0 90 51 65
        E 23 80 51 65
        E 1 90 52 64
        E 21 80 52 64
        E 0 90 52 65
        E 26 80 52 65
        E 0 90 52 66
        E 23 80 52 66
        E 0 90 52 67
        E 20 80 52 67
        E 0 90 53 64
        E 25 80 53 64
        E 0 90 53 65
        E 24 80 53 65
        E 0 90 54 64
        E 22 80 54 64
        E 0 90 54 65
        E 23 80 54 65
        E 4965 b0 7b 00
        E 1 b1 7b 00
        E 0 b2 7b 00
        E 1 b3 7b 00
        E 0 b4 7b 00
        E 1 b5 7b 00
        E 0 b6 7b 00
        E 1 b7 7b 00
        E 1 b8 7b 00
        E 0 b9 7b 00
        E 1 ba 7b 00
        E 0 bb 7b 00
        E 1 bc 7b 00
        E 0 bd 7b 00
        E 1 be 7b 00
        E 0 bf 7b 00
        E 1 89 4d 00
        E 0 b0 79 00
        E 1 b1 79 00
        E 1 b2 79 00
        E 0 b3 79 00
        E 0 b4 79 00
        E 1 b5 79 00
        E 0 b6 79 00
        E 1 b7 79 00
        E 0 b8 79 00
        E 1 b9 79 00
        E 0 ba 79 00
        E 0 bb 79 00
        E 0 bc 79 00
        E 0 bd 79 00
        E 1 be 79 00
        E 0 bf 79 00
        E 6601 b0 7b 00
        CCINTERP 32
        CHASE_CC_TAKEOFFS 1
        GUID {D28CA946-B647-4750-87F9-86DC28A534B1}
        IGNTEMPO 0 120 4 4
        SRCCOLOR 48
        VELLANE -1 100 0
      >
    >
  >
  <TRACK {5F56216B-10EE-44E7-B4FF-6292C319EDDD}
    NAME ""
    PEAKCOL 16576
    BEAT -1
    AUTOMODE 0
    VOLPAN 1 0 -1 -1 1
    MUTESOLO 0 0 0
    IPHASE 0
    PLAYOFFS 0 1
    ISBUS 0 0
    BUSCOMP 0 0 0 0 0
    SHOWINMIX 1 0.6667 0.5 1 0.5 0 -1 0
    FREEMODE 0
    SEL 0
    REC 0 4096 1 0 0 0 0
    VU 2
    TRACKHEIGHT 0 0 0 0 0 0
    INQ 0 0 0 0.5 100 0 0 100
    NCHAN 2
    FX 1
    TRACKID {5F56216B-10EE-44E7-B4FF-6292C319EDDD}
    PERF 0
    MIDIOUT 33
    MAINSEND 1 0
    <ITEM
      POSITION 68.79835460662387
      SNAPOFFS 0
      LENGTH 0.79419770838255
      LOOP 1
      ALLTAKES 0
      FADEIN 1 0 0 1 0 0 0
      FADEOUT 1 0 0 1 0 0 0
      MUTE 0 0
      SEL 0
      IGUID {74384667-60BF-4E48-86BE-3DE317FC4800}
      IID 44
      NAME "04-Recorded MIDI"
      VOLPAN 1 0 1 -1
      SOFFS 11.41650068132282 22.83300136264565
      PLAYRATE 1 1 0 -1 0 0.0025
      CHANMODE 0
      GUID {0F1B448C-437A-40A5-88DF-1FE8F93A84A6}
      RECPASS 11
      <SOURCE MIDI
        HASDATA 1 960 QN
        CCINTERP 32
        POOLEDEVTS {3A6AE03E-1BB6-4F96-BDB9-72EB255A5E1E}
        E 3916 b0 7b 00
        E 0 b1 7b 00
        E 1 b2 7b 00
        E 1 b3 7b 00
        E 0 b4 7b 00
        E 1 b5 7b 00
        E 1 b6 7b 00
        E 1 b7 7b 00
        E 0 b8 7b 00
        E 2 b9 7b 00
        E 1 ba 7b 00
        E 1 bb 7b 00
        E 1 bc 7b 00
        E 0 bd 7b 00
        E 1 be 7b 00
        E 1 bf 7b 00
        E 1 b0 79 00
        E 1 b1 79 00
        E 0 b2 79 00
        E 1 b3 79 00
        E 1 b4 79 00
        E 1 b5 79 00
        E 0 b6 79 00
        E 1 b7 79 00
        E 1 b8 79 00
        E 1 b9 79 00
        E 0 ba 79 00
        E 2 bb 79 00
        E 0 bc 79 00
        E 1 bd 79 00
        E 0 be 79 00
        E 1 bf 79 00
        E 9604 b0 7b 00
        E 0 b1 7b 00
        E 1 b2 7b 00
        E 1 b3 7b 00
        E 1 b4 7b 00
        E 1 b5 7b 00
        E 0 b6 7b 00
        E 1 b7 7b 00
        E 0 b8 7b 00
        E 1 b9 7b 00
        E 1 ba 7b 00
        E 1 bb 7b 00
        E 0 bc 7b 00
        E 1 bd 7b 00
        E 0 be 7b 00
        E 1 bf 7b 00
        E 3 c9 00 00
        E 0 c0 01 00
        E 1 c1 01 00
        E 1 c2 01 00
        E 1 c3 01 00
        E 0 c4 01 00
        E 1 c5 01 00
        E 17 b0 07 64
        E 1 b0 0a 40
        E 0 b0 5b 3b
        E 1 b0 5d 00
        E 0 b1 07 64
        E 0 b1 0a 40
        E 1 b1 5b 3b
        E 0 b1 5d 00
        E 0 b2 07 64
        E 1 b2 0a 40
        E 0 b2 5b 3b
        E 0 b2 5d 00
        E 0 b3 07 64
        E 1 b3 0a 40
        E 0 b3 5b 3b
        E 0 b3 5d 00
        E 0 b4 07 64
        E 0 b4 0a 40
        E 1 b4 5b 3b
        E 0 b4 5d 00
        E 0 b5 07 64
        E 0 b5 0a 40
        E 0 b5 5b 3b
        E 0 b5 5d 00
        E 12 c0 01 00
        E 1 c1 01 00
        E 0 c2 01 00
        E 0 c3 01 00
        E 0 c4 01 00
        E 0 c5 01 00
        E 4798 80 23 00
        E 1 80 28 00
        E 0 80 2f 00
        E 0 80 34 00
        E 1 80 3b 00
        E 0 81 29 00
        E 0 81 30 00
        E 1 81 35 00
        E 0 81 3c 00
        E 0 90 25 67
        E 1 90 27 67
        E 0 90 2a 67
        E 0 90 2c 67
        E 1 90 2e 67
        E 0 90 31 67
        E 0 90 33 67
        E 0 90 36 67
        E 1 90 38 67
        E 0 90 3a 67
        E 0 91 25 65
        E 0 91 27 65
        E 1 91 2a 65
        E 0 91 2c 65
        E 0 91 2e 65
        E 1 91 31 65
        E 0 91 33 65
        E 1 91 36 65
        E 0 91 38 65
        E 1 91 3a 65
        E 0 91 3d 65
        E 0 92 24 65
        E 1 92 26 65
        E 0 92 28 65
        E 0 92 29 65
        E 1 92 2b 65
        E 0 92 2d 65
        E 1 92 2f 65
        E 0 92 30 65
        E 1 92 32 65
        E 0 92 34 65
        E 0 92 35 65
        E 0 92 37 65
        E 1 92 39 65
        E 0 92 3b 65
        E 0 92 3c 65
        E 1 93 23 66
        E 0 93 25 66
        E 0 93 27 66
        E 1 93 28 66
        E 0 93 2a 66
        E 0 93 2c 66
        E 0 93 2e 66
        E 0 93 2f 66
        E 0 93 31 66
        E 1 93 33 66
        E 0 93 34 66
        E 0 93 36 66
        E 0 93 38 66
        E 0 93 3a 66
        E 1 93 3b 66
        E 0 94 25 64
        E 0 94 27 64
        E 0 94 29 63
        E 0 94 2a 64
        E 1 94 2c 64
        E 0 94 2e 64
        E 0 94 30 63
        E 0 94 31 64
        E 0 94 33 64
        E 1 94 35 63
        E 0 94 36 64
        E 0 94 38 64
        E 0 94 3a 64
        E 0 94 3c 63
        E 1 94 3d 64
        E 0 95 24 64
        E 0 95 26 64
        E 0 95 28 64
        E 0 95 29 64
        E 0 95 2b 64
        E 0 95 2d 64
        E 1 95 2f 64
        E 0 95 30 64
        E 0 95 32 64
        E 0 95 34 64
        E 0 95 35 64
        E 0 95 37 64
        E 1 95 39 64
        E 0 95 3b 64
        E 0 95 3c 64
        E 936 80 23 00
        E 0 80 25 67
        E 1 80 27 67
        E 0 80 28 00
        E 1 80 2a 67
        E 0 80 2c 67
        E 1 80 2e 67
        E 0 80 2f 00
        E 1 80 31 67
        E 0 80 33 67
        E 0 80 34 00
        E 1 80 36 67
        E 1 80 38 67
        E 0 80 3a 67
        E 1 80 3b 00
        E 0 81 25 65
        E 1 81 27 65
        E 1 81 29 00
        E 0 81 2a 65
        E 1 81 2c 65
        E 0 81 2e 65
        E 0 81 30 00
        E 0 81 31 65
        E 0 81 33 65
        E 0 81 35 00
        E 0 81 36 65
        E 0 81 38 65
        E 0 81 3a 65
        E 0 81 3c 00
        E 0 81 3d 65
        E 0 82 24 65
        E 0 82 26 65
        E 1 82 28 65
        E 0 82 29 65
        E 0 82 2b 65
        E 0 82 2d 65
        E 0 82 2f 65
        E 0 82 30 65
        E 0 82 32 65
        E 0 82 34 65
        E 0 82 35 65
        E 0 82 37 65
        E 0 82 39 65
        E 0 82 3b 65
        E 0 82 3c 65
        E 1 83 23 66
        E 0 83 25 66
        E 0 83 27 66
        E 0 83 28 66
        E 0 83 2a 66
        E 1 83 2c 66
        E 0 83 2e 66
        E 0 83 2f 66
        E 0 83 31 66
        E 0 83 33 66
        E 0 83 34 66
        E 0 83 36 66
        E 0 83 38 66
        E 0 83 3a 66
        E 0 83 3b 66
        E 1 84 25 64
        E 0 84 27 64
        E 0 84 29 63
        E 0 84 2a 64
        E 0 84 2c 64
        E 0 84 2e 64
        E 1 84 30 63
        E 0 84 31 64
        E 0 84 33 64
        E 0 84 35 63
        E 0 84 36 64
        E 0 84 38 64
        E 0 84 3a 64
        E 0 84 3c 63
        E 0 84 3d 64
        E 0 85 24 64
        E 0 85 26 64
        E 0 85 28 64
        E 0 85 29 64
        E 0 85 2b 64
        E 0 85 2d 64
        E 0 85 2f 64
        E 0 85 30 64
        E 1 85 32 64
        E 0 85 34 64
        E 0 85 35 64
        E 0 85 37 64
        E 0 85 39 64
        E 0 85 3b 64
        E 0 85 3c 64
        E 2865 80 3b 00
        E 1 80 40 00
        E 0 80 47 00
        E 1 80 4c 00
        E 1 80 53 00
        E 1 81 41 00
        E 0 81 48 00
        E 0 81 4d 00
        E 1 81 54 00
        E 1 90 3d 67
        E 0 90 3f 67
        E 1 90 42 67
        E 1 90 44 67
        E 0 90 46 67
        E 1 90 49 67
        E 0 90 4b 67
        E 2 90 4e 67
        E 0 90 50 67
        E 1 90 52 67
        E 0 91 3d 65
        E 0 91 3f 65
        E 1 91 42 65
        E 0 91 44 65
        E 1 91 46 65
        E 0 91 49 65
        E 1 91 4b 65
        E 0 91 4e 65
        E 1 91 50 65
        E 1 91 52 65
        E 0 91 55 65
        E 1 92 3c 65
        E 0 92 3e 65
        E 1 92 40 65
        E 1 92 41 65
        E 0 92 43 65
        E 1 92 45 65
        E 0 92 47 65
        E 1 92 48 65
        E 0 92 4a 65
        E 1 92 4c 65
        E 1 92 4d 65
        E 0 92 4f 65
        E 0 92 51 65
        E 1 92 53 65
        E 0 92 54 65
        E 1 93 3b 66
        E 1 93 3d 66
        E 0 93 3f 66
        E 1 93 40 66
        E 0 93 42 66
        E 0 93 44 66
        E 0 93 46 66
        E 1 93 47 66
        E 0 93 49 66
        E 1 93 4b 66
        E 0 93 4c 66
        E 0 93 4e 66
        E 1 93 50 66
        E 0 93 52 66
        E 0 93 53 66
        E 1 94 3d 64
        E 0 94 3f 64
        E 0 94 41 63
        E 0 94 42 64
        E 1 94 44 64
        E 0 94 46 64
        E 1 94 48 63
        E 0 94 49 64
        E 0 94 4b 64
        E 1 94 4d 63
        E 0 94 4e 64
        E 0 94 50 64
        E 1 94 52 64
        E 0 94 54 63
        E 0 94 55 64
        E 1 95 3c 64
        E 0 95 3e 64
        E 0 95 40 64
        E 1 95 41 64
        E 0 95 43 64
        E 0 95 45 64
        E 1 95 47 64
        E 0 95 48 64
        E 0 95 4a 64
        E 0 95 4c 64
        E 0 95 4d 64
        E 1 95 4f 64
        E 0 95 51 64
        E 0 95 53 64
        E 0 95 54 64
        E 922 80 3b 00
        E 1 80 3d 67
        E 0 80 3f 67
        E 0 80 40 00
        E 1 80 42 67
        E 0 80 44 67
        E 0 80 46 67
        E 1 80 47 00
        E 0 80 49 67
        E 1 80 4b 67
        E 0 80 4c 00
        E 0 80 4e 67
        E 0 80 50 67
        E 0 80 52 67
        E 1 80 53 00
        E 0 81 3d 65
        E 0 81 3f 65
        E 0 81 41 00
        E 0 81 42 65
        E 0 81 44 65
        E 0 81 46 65
        E 0 81 48 00
        E 0 81 49 65
        E 0 81 4b 65
        E 0 81 4d 00
        E 0 81 4e 65
        E 0 81 50 65
        E 0 81 52 65
        E 0 81 54 00
        E 1 81 55 65
        E 0 82 3c 65
        E 0 82 3e 65
        E 0 82 40 65
        E 0 82 41 65
        E 0 82 43 65
        E 0 82 45 65
        E 0 82 47 65
        E 0 82 48 65
        E 0 82 4a 65
        E 0 82 4c 65
        E 0 82 4d 65
        E 0 82 4f 65
        E 0 82 51 65
        E 0 82 53 65
        E 0 82 54 65
        E 0 83 3b 66
        E 0 83 3d 66
        E 1 83 3f 66
        E 0 83 40 66
        E 0 83 42 66
        E 0 83 44 66
        E 0 83 46 66
        E 0 83 47 66
        E 0 83 49 66
        E 0 83 4b 66
        E 0 83 4c 66
        E 0 83 4e 66
        E 0 83 50 66
        E 0 83 52 66
        E 0 83 53 66
        E 0 84 3d 64
        E 0 84 3f 64
        E 0 84 41 63
        E 0 84 42 64
        E 0 84 44 64
        E 1 84 46 64
        E 0 84 48 63
        E 0 84 49 64
        E 0 84 4b 64
        E 0 84 4d 63
        E 0 84 4e 64
        E 0 84 50 64
        E 0 84 52 64
        E 0 84 54 63
        E 0 84 55 64
        E 0 85 3c 64
        E 0 85 3e 64
        E 0 85 40 64
        E 0 85 41 64
        E 0 85 43 64
        E 0 85 45 64
        E 0 85 47 64
        E 0 85 48 64
        E 1 85 4a 64
        E 0 85 4c 64
        E 0 85 4d 64
        E 0 85 4f 64
        E 0 85 51 64
        E 0 85 53 64
        E 0 85 54 64
        E 238 b0 7b 00
        CCINTERP 32
        CHASE_CC_TAKEOFFS 1
        GUID {953A319E-284D-4B36-BBBE-20C9DC7F999E}
        IGNTEMPO 0 120 4 4
        SRCCOLOR 86
        VELLANE -1 100 0
      >
    >
    <ITEM
      POSITION 69.44042069882371
      SNAPOFFS 0
      LENGTH 0.65726706900629
      LOOP 1
      ALLTAKES 0
      FADEIN 1 0 0 1 0 0 0
      FADEOUT 1 0 0 1 0 0 0
      MUTE 0 0
      SEL 0
      IGUID {49EC6494-0176-42CE-972C-198D9D7B85A8}
      IID 48
      NAME "04-Recorded MIDI"
      VOLPAN 1 0 1 -1
      SOFFS 15.51529115331984 31.03058230663969
      PLAYRATE 1 1 0 -1 0 0.0025
      CHANMODE 0
      GUID {71540A52-17A4-44ED-94F3-2165CF109D88}
      RECPASS 11
      <SOURCE MIDI
        HASDATA 1 960 QN
        CCINTERP 32
        POOLEDEVTS {A2698536-086A-4861-9844-C33B85F9478B}
        E 3916 b0 7b 00
        E 0 b1 7b 00
        E 1 b2 7b 00
        E 1 b3 7b 00
        E 0 b4 7b 00
        E 1 b5 7b 00
        E 1 b6 7b 00
        E 1 b7 7b 00
        E 0 b8 7b 00
        E 2 b9 7b 00
        E 1 ba 7b 00
        E 1 bb 7b 00
        E 1 bc 7b 00
        E 0 bd 7b 00
        E 1 be 7b 00
        E 1 bf 7b 00
        E 1 b0 79 00
        E 1 b1 79 00
        E 0 b2 79 00
        E 1 b3 79 00
        E 1 b4 79 00
        E 1 b5 79 00
        E 0 b6 79 00
        E 1 b7 79 00
        E 1 b8 79 00
        E 1 b9 79 00
        E 0 ba 79 00
        E 2 bb 79 00
        E 0 bc 79 00
        E 1 bd 79 00
        E 0 be 79 00
        E 1 bf 79 00
        E 9604 b0 7b 00
        E 0 b1 7b 00
        E 1 b2 7b 00
        E 1 b3 7b 00
        E 1 b4 7b 00
        E 1 b5 7b 00
        E 0 b6 7b 00
        E 1 b7 7b 00
        E 0 b8 7b 00
        E 1 b9 7b 00
        E 1 ba 7b 00
        E 1 bb 7b 00
        E 0 bc 7b 00
        E 1 bd 7b 00
        E 0 be 7b 00
        E 1 bf 7b 00
        E 3 c9 00 00
        E 0 c0 01 00
        E 1 c1 01 00
        E 1 c2 01 00
        E 1 c3 01 00
        E 0 c4 01 00
        E 1 c5 01 00
        E 17 b0 07 64
        E 1 b0 0a 40
        E 0 b0 5b 3b
        E 1 b0 5d 00
        E 0 b1 07 64
        E 0 b1 0a 40
        E 1 b1 5b 3b
        E 0 b1 5d 00
        E 0 b2 07 64
        E 1 b2 0a 40
        E 0 b2 5b 3b
        E 0 b2 5d 00
        E 0 b3 07 64
        E 1 b3 0a 40
        E 0 b3 5b 3b
        E 0 b3 5d 00
        E 0 b4 07 64
        E 0 b4 0a 40
        E 1 b4 5b 3b
        E 0 b4 5d 00
        E 0 b5 07 64
        E 0 b5 0a 40
        E 0 b5 5b 3b
        E 0 b5 5d 00
        E 12 c0 01 00
        E 1 c1 01 00
        E 0 c2 01 00
        E 0 c3 01 00
        E 0 c4 01 00
        E 0 c5 01 00
        E 4798 80 23 00
        E 1 80 28 00
        E 0 80 2f 00
        E 0 80 34 00
        E 1 80 3b 00
        E 0 81 29 00
        E 0 81 30 00
        E 1 81 35 00
        E 0 81 3c 00
        E 0 90 25 67
        E 1 90 27 67
        E 0 90 2a 67
        E 0 90 2c 67
        E 1 90 2e 67
        E 0 90 31 67
        E 0 90 33 67
        E 0 90 36 67
        E 1 90 38 67
        E 0 90 3a 67
        E 0 91 25 65
        E 0 91 27 65
        E 1 91 2a 65
        E 0 91 2c 65
        E 0 91 2e 65
        E 1 91 31 65
        E 0 91 33 65
        E 1 91 36 65
        E 0 91 38 65
        E 1 91 3a 65
        E 0 91 3d 65
        E 0 92 24 65
        E 1 92 26 65
        E 0 92 28 65
        E 0 92 29 65
        E 1 92 2b 65
        E 0 92 2d 65
        E 1 92 2f 65
        E 0 92 30 65
        E 1 92 32 65
        E 0 92 34 65
        E 0 92 35 65
        E 0 92 37 65
        E 1 92 39 65
        E 0 92 3b 65
        E 0 92 3c 65
        E 1 93 23 66
        E 0 93 25 66
        E 0 93 27 66
        E 1 93 28 66
        E 0 93 2a 66
        E 0 93 2c 66
        E 0 93 2e 66
        E 0 93 2f 66
        E 0 93 31 66
        E 1 93 33 66
        E 0 93 34 66
        E 0 93 36 66
        E 0 93 38 66
        E 0 93 3a 66
        E 1 93 3b 66
        E 0 94 25 64
        E 0 94 27 64
        E 0 94 29 63
        E 0 94 2a 64
        E 1 94 2c 64
        E 0 94 2e 64
        E 0 94 30 63
        E 0 94 31 64
        E 0 94 33 64
        E 1 94 35 63
        E 0 94 36 64
        E 0 94 38 64
        E 0 94 3a 64
        E 0 94 3c 63
        E 1 94 3d 64
        E 0 95 24 64
        E 0 95 26 64
        E 0 95 28 64
        E 0 95 29 64
        E 0 95 2b 64
        E 0 95 2d 64
        E 1 95 2f 64
        E 0 95 30 64
        E 0 95 32 64
        E 0 95 34 64
        E 0 95 35 64
        E 0 95 37 64
        E 1 95 39 64
        E 0 95 3b 64
        E 0 95 3c 64
        E 936 80 23 00
        E 0 80 25 67
        E 1 80 27 67
        E 0 80 28 00
        E 1 80 2a 67
        E 0 80 2c 67
        E 1 80 2e 67
        E 0 80 2f 00
        E 1 80 31 67
        E 0 80 33 67
        E 0 80 34 00
        E 1 80 36 67
        E 1 80 38 67
        E 0 80 3a 67
        E 1 80 3b 00
        E 0 81 25 65
        E 1 81 27 65
        E 1 81 29 00
        E 0 81 2a 65
        E 1 81 2c 65
        E 0 81 2e 65
        E 0 81 30 00
        E 0 81 31 65
        E 0 81 33 65
        E 0 81 35 00
        E 0 81 36 65
        E 0 81 38 65
        E 0 81 3a 65
        E 0 81 3c 00
        E 0 81 3d 65
        E 0 82 24 65
        E 0 82 26 65
        E 1 82 28 65
        E 0 82 29 65
        E 0 82 2b 65
        E 0 82 2d 65
        E 0 82 2f 65
        E 0 82 30 65
        E 0 82 32 65
        E 0 82 34 65
        E 0 82 35 65
        E 0 82 37 65
        E 0 82 39 65
        E 0 82 3b 65
        E 0 82 3c 65
        E 1 83 23 66
        E 0 83 25 66
        E 0 83 27 66
        E 0 83 28 66
        E 0 83 2a 66
        E 1 83 2c 66
        E 0 83 2e 66
        E 0 83 2f 66
        E 0 83 31 66
        E 0 83 33 66
        E 0 83 34 66
        E 0 83 36 66
        E 0 83 38 66
        E 0 83 3a 66
        E 0 83 3b 66
        E 1 84 25 64
        E 0 84 27 64
        E 0 84 29 63
        E 0 84 2a 64
        E 0 84 2c 64
        E 0 84 2e 64
        E 1 84 30 63
        E 0 84 31 64
        E 0 84 33 64
        E 0 84 35 63
        E 0 84 36 64
        E 0 84 38 64
        E 0 84 3a 64
        E 0 84 3c 63
        E 0 84 3d 64
        E 0 85 24 64
        E 0 85 26 64
        E 0 85 28 64
        E 0 85 29 64
        E 0 85 2b 64
        E 0 85 2d 64
        E 0 85 2f 64
        E 0 85 30 64
        E 1 85 32 64
        E 0 85 34 64
        E 0 85 35 64
        E 0 85 37 64
        E 0 85 39 64
        E 0 85 3b 64
        E 0 85 3c 64
        E 2865 80 3b 00
        E 1 80 40 00
        E 0 80 47 00
        E 1 80 4c 00
        E 1 80 53 00
        E 1 81 41 00
        E 0 81 48 00
        E 0 81 4d 00
        E 1 81 54 00
        E 1 90 3d 67
        E 0 90 3f 67
        E 1 90 42 67
        E 1 90 44 67
        E 0 90 46 67
        E 1 90 49 67
        E 0 90 4b 67
        E 2 90 4e 67
        E 0 90 50 67
        E 1 90 52 67
        E 0 91 3d 65
        E 0 91 3f 65
        E 1 91 42 65
        E 0 91 44 65
        E 1 91 46 65
        E 0 91 49 65
        E 1 91 4b 65
        E 0 91 4e 65
        E 1 91 50 65
        E 1 91 52 65
        E 0 91 55 65
        E 1 92 3c 65
        E 0 92 3e 65
        E 1 92 40 65
        E 1 92 41 65
        E 0 92 43 65
        E 1 92 45 65
        E 0 92 47 65
        E 1 92 48 65
        E 0 92 4a 65
        E 1 92 4c 65
        E 1 92 4d 65
        E 0 92 4f 65
        E 0 92 51 65
        E 1 92 53 65
        E 0 92 54 65
        E 1 93 3b 66
        E 1 93 3d 66
        E 0 93 3f 66
        E 1 93 40 66
        E 0 93 42 66
        E 0 93 44 66
        E 0 93 46 66
        E 1 93 47 66
        E 0 93 49 66
        E 1 93 4b 66
        E 0 93 4c 66
        E 0 93 4e 66
        E 1 93 50 66
        E 0 93 52 66
        E 0 93 53 66
        E 1 94 3d 64
        E 0 94 3f 64
        E 0 94 41 63
        E 0 94 42 64
        E 1 94 44 64
        E 0 94 46 64
        E 1 94 48 63
        E 0 94 49 64
        E 0 94 4b 64
        E 1 94 4d 63
        E 0 94 4e 64
        E 0 94 50 64
        E 1 94 52 64
        E 0 94 54 63
        E 0 94 55 64
        E 1 95 3c 64
        E 0 95 3e 64
        E 0 95 40 64
        E 1 95 41 64
        E 0 95 43 64
        E 0 95 45 64
        E 1 95 47 64
        E 0 95 48 64
        E 0 95 4a 64
        E 0 95 4c 64
        E 0 95 4d 64
        E 1 95 4f 64
        E 0 95 51 64
        E 0 95 53 64
        E 0 95 54 64
        E 922 80 3b 00
        E 1 80 3d 67
        E 0 80 3f 67
        E 0 80 40 00
        E 1 80 42 67
        E 0 80 44 67
        E 0 80 46 67
        E 1 80 47 00
        E 0 80 49 67
        E 1 80 4b 67
        E 0 80 4c 00
        E 0 80 4e 67
        E 0 80 50 67
        E 0 80 52 67
        E 1 80 53 00
        E 0 81 3d 65
        E 0 81 3f 65
        E 0 81 41 00
        E 0 81 42 65
        E 0 81 44 65
        E 0 81 46 65
        E 0 81 48 00
        E 0 81 49 65
        E 0 81 4b 65
        E 0 81 4d 00
        E 0 81 4e 65
        E 0 81 50 65
        E 0 81 52 65
        E 0 81 54 00
        E 1 81 55 65
        E 0 82 3c 65
        E 0 82 3e 65
        E 0 82 40 65
        E 0 82 41 65
        E 0 82 43 65
        E 0 82 45 65
        E 0 82 47 65
        E 0 82 48 65
        E 0 82 4a 65
        E 0 82 4c 65
        E 0 82 4d 65
        E 0 82 4f 65
        E 0 82 51 65
        E 0 82 53 65
        E 0 82 54 65
        E 0 83 3b 66
        E 0 83 3d 66
        E 1 83 3f 66
        E 0 83 40 66
        E 0 83 42 66
        E 0 83 44 66
        E 0 83 46 66
        E 0 83 47 66
        E 0 83 49 66
        E 0 83 4b 66
        E 0 83 4c 66
        E 0 83 4e 66
        E 0 83 50 66
        E 0 83 52 66
        E 0 83 53 66
        E 0 84 3d 64
        E 0 84 3f 64
        E 0 84 41 63
        E 0 84 42 64
        E 0 84 44 64
        E 1 84 46 64
        E 0 84 48 63
        E 0 84 49 64
        E 0 84 4b 64
        E 0 84 4d 63
        E 0 84 4e 64
        E 0 84 50 64
        E 0 84 52 64
        E 0 84 54 63
        E 0 84 55 64
        E 0 85 3c 64
        E 0 85 3e 64
        E 0 85 40 64
        E 0 85 41 64
        E 0 85 43 64
        E 0 85 45 64
        E 0 85 47 64
        E 0 85 48 64
        E 1 85 4a 64
        E 0 85 4c 64
        E 0 85 4d 64
        E 0 85 4f 64
        E 0 85 51 64
        E 0 85 53 64
        E 0 85 54 64
        E 2870 93 23 66
        E 1 93 25 66
        E 0 93 27 66
        E 1 93 28 66
        E 0 93 2a 66
        E 1 93 2c 66
        E 0 93 2e 66
        E 1 93 2f 66
        E 0 93 31 66
        E 0 93 33 66
        E 1 93 34 66
        E 1 93 36 66
        E 1 93 38 66
        E 0 93 3a 66
        E 1 93 3b 66
        E 1 94 25 64
        E 1 94 27 64
        E 0 94 29 63
        E 1 94 2a 64
        E 1 94 2c 64
        E 1 94 2e 64
        E 1 94 30 63
        E 1 94 31 64
        E 0 94 33 64
        E 1 94 35 63
        E 0 94 36 64
        E 0 94 38 64
        E 1 94 3a 64
        E 0 94 3c 63
        E 1 94 3d 64
        E 0 95 24 64
        E 0 95 26 64
        E 1 95 28 64
        E 0 95 29 64
        E 1 95 2b 64
        E 0 95 2d 64
        E 0 95 2f 64
        E 1 95 30 64
        E 0 95 32 64
        E 0 95 34 64
        E 1 95 35 64
        E 0 95 37 64
        E 0 95 39 64
        E 1 95 3b 64
        E 0 95 3c 64
        E 939 83 23 66
        E 0 83 25 66
        E 1 83 27 66
        E 0 83 28 66
        E 1 83 2a 66
        E 0 83 2c 66
        E 1 83 2e 66
        E 0 83 2f 66
        E 1 83 31 66
        E 0 83 33 66
        E 1 83 34 66
        E 1 83 36 66
        E 0 83 38 66
        E 1 83 3a 66
        E 1 83 3b 66
        E 1 84 25 64
        E 1 84 27 64
        E 1 84 29 63
        E 0 84 2a 64
        E 1 84 2c 64
        E 1 84 2e 64
        E 0 84 30 63
        E 1 84 31 64
        E 1 84 33 64
        E 0 84 35 63
        E 0 84 36 64
        E 1 84 38 64
        E 0 84 3a 64
        E 0 84 3c 63
        E 1 84 3d 64
        E 0 85 24 64
        E 0 85 26 64
        E 1 85 28 64
        E 0 85 29 64
        E 0 85 2b 64
        E 1 85 2d 64
        E 0 85 2f 64
        E 0 85 30 64
        E 1 85 32 64
        E 0 85 34 64
        E 0 85 35 64
        E 1 85 37 64
        E 0 85 39 64
        E 0 85 3b 64
        E 1 85 3c 64
        E 2855 80 23 00
        E 1 80 28 00
        E 0 80 2f 00
        E 1 80 34 00
        E 0 80 3b 00
        E 1 81 29 00
        E 1 81 30 00
        E 0 81 35 00
        E 1 81 3c 00
        E 0 90 25 67
        E 1 90 27 67
        E 1 90 2a 67
        E 0 90 2c 67
        E 1 90 2e 67
        E 1 90 31 67
        E 1 90 33 67
        E 0 90 36 67
        E 1 90 38 67
        E 0 90 3a 67
        E 1 91 25 65
        E 1 91 27 65
        E 0 91 2a 65
        E 1 91 2c 65
        E 1 91 2e 65
        E 1 91 31 65
        E 0 91 33 65
        E 1 91 36 65
        E 1 91 38 65
        E 0 91 3a 65
        E 0 91 3d 65
        E 1 92 24 65
        E 0 92 26 65
        E 0 92 28 65
        E 1 92 29 65
        E 0 92 2b 65
        E 1 92 2d 65
        E 0 92 2f 65
        E 1 92 30 65
        E 0 92 32 65
        E 0 92 34 65
        E 1 92 35 65
        E 0 92 37 65
        E 0 92 39 65
        E 1 92 3b 65
        E 0 92 3c 65
        E 937 80 23 00
        E 0 80 25 67
        E 1 80 27 67
        E 0 80 28 00
        E 1 80 2a 67
        E 0 80 2c 67
        E 1 80 2e 67
        E 1 80 2f 00
        E 0 80 31 67
        E 1 80 33 67
        E 0 80 34 00
        E 1 80 36 67
        E 0 80 38 67
        E 1 80 3a 67
        E 0 80 3b 00
        E 1 81 25 65
        E 0 81 27 65
        E 0 81 29 00
        E 1 81 2a 65
        E 0 81 2c 65
        E 0 81 2e 65
        E 0 81 30 00
        E 0 81 31 65
        E 1 81 33 65
        E 0 81 35 00
        E 0 81 36 65
        E 0 81 38 65
        E 0 81 3a 65
        E 0 81 3c 00
        E 0 81 3d 65
        E 0 82 24 65
        E 0 82 26 65
        E 0 82 28 65
        E 0 82 29 65
        E 0 82 2b 65
        E 0 82 2d 65
        E 0 82 2f 65
        E 1 82 30 65
        E 0 82 32 65
        E 0 82 34 65
        E 0 82 35 65
        E 0 82 37 65
        E 0 82 39 65
        E 0 82 3b 65
        E 0 82 3c 65
        E 163 b0 7b 00
        CCINTERP 32
        CHASE_CC_TAKEOFFS 1
        GUID {8EBC6F01-395A-40B1-AEB2-F1549301D71C}
        IGNTEMPO 0 120 4 4
        SRCCOLOR 90
        VELLANE -1 100 0
      >
    >
    <ITEM
      POSITION 70.10842885535484
      SNAPOFFS 0
      LENGTH 0.67552448758977
      LOOP 1
      ALLTAKES 0
      FADEIN 1 0 0 1 0 0 0
      FADEOUT 1 0 0 1 0 0 0
      MUTE 0 0
      SEL 0
      IGUID {49021200-C596-476B-9063-428A2462F047}
      IID 53
      NAME "04-Recorded MIDI"
      VOLPAN 1 0 1 -1
      SOFFS 19.49540840452405 38.9908168090481
      PLAYRATE 1 1 0 -1 0 0.0025
      CHANMODE 0
      GUID {E2779B08-C8F6-4576-835C-801862298758}
      RECPASS 11
      <SOURCE MIDI
        HASDATA 1 960 QN
        CCINTERP 32
        POOLEDEVTS {7859B6D0-B230-4110-901D-61C1933F91DD}
        E 3916 b0 7b 00
        E 0 b1 7b 00
        E 1 b2 7b 00
        E 1 b3 7b 00
        E 0 b4 7b 00
        E 1 b5 7b 00
        E 1 b6 7b 00
        E 1 b7 7b 00
        E 0 b8 7b 00
        E 2 b9 7b 00
        E 1 ba 7b 00
        E 1 bb 7b 00
        E 1 bc 7b 00
        E 0 bd 7b 00
        E 1 be 7b 00
        E 1 bf 7b 00
        E 1 b0 79 00
        E 1 b1 79 00
        E 0 b2 79 00
        E 1 b3 79 00
        E 1 b4 79 00
        E 1 b5 79 00
        E 0 b6 79 00
        E 1 b7 79 00
        E 1 b8 79 00
        E 1 b9 79 00
        E 0 ba 79 00
        E 2 bb 79 00
        E 0 bc 79 00
        E 1 bd 79 00
        E 0 be 79 00
        E 1 bf 79 00
        E 9604 b0 7b 00
        E 0 b1 7b 00
        E 1 b2 7b 00
        E 1 b3 7b 00
        E 1 b4 7b 00
        E 1 b5 7b 00
        E 0 b6 7b 00
        E 1 b7 7b 00
        E 0 b8 7b 00
        E 1 b9 7b 00
        E 1 ba 7b 00
        E 1 bb 7b 00
        E 0 bc 7b 00
        E 1 bd 7b 00
        E 0 be 7b 00
        E 1 bf 7b 00
        E 3 c9 00 00
        E 0 c0 01 00
        E 1 c1 01 00
        E 1 c2 01 00
        E 1 c3 01 00
        E 0 c4 01 00
        E 1 c5 01 00
        E 17 b0 07 64
        E 1 b0 0a 40
        E 0 b0 5b 3b
        E 1 b0 5d 00
        E 0 b1 07 64
        E 0 b1 0a 40
        E 1 b1 5b 3b
        E 0 b1 5d 00
        E 0 b2 07 64
        E 1 b2 0a 40
        E 0 b2 5b 3b
        E 0 b2 5d 00
        E 0 b3 07 64
        E 1 b3 0a 40
        E 0 b3 5b 3b
        E 0 b3 5d 00
        E 0 b4 07 64
        E 0 b4 0a 40
        E 1 b4 5b 3b
        E 0 b4 5d 00
        E 0 b5 07 64
        E 0 b5 0a 40
        E 0 b5 5b 3b
        E 0 b5 5d 00
        E 12 c0 01 00
        E 1 c1 01 00
        E 0 c2 01 00
        E 0 c3 01 00
        E 0 c4 01 00
        E 0 c5 01 00
        E 4798 80 23 00
        E 1 80 28 00
        E 0 80 2f 00
        E 0 80 34 00
        E 1 80 3b 00
        E 0 81 29 00
        E 0 81 30 00
        E 1 81 35 00
        E 0 81 3c 00
        E 0 90 25 67
        E 1 90 27 67
        E 0 90 2a 67
        E 0 90 2c 67
        E 1 90 2e 67
        E 0 90 31 67
        E 0 90 33 67
        E 0 90 36 67
        E 1 90 38 67
        E 0 90 3a 67
        E 0 91 25 65
        E 0 91 27 65
        E 1 91 2a 65
        E 0 91 2c 65
        E 0 91 2e 65
        E 1 91 31 65
        E 0 91 33 65
        E 1 91 36 65
        E 0 91 38 65
        E 1 91 3a 65
        E 0 91 3d 65
        E 0 92 24 65
        E 1 92 26 65
        E 0 92 28 65
        E 0 92 29 65
        E 1 92 2b 65
        E 0 92 2d 65
        E 1 92 2f 65
        E 0 92 30 65
        E 1 92 32 65
        E 0 92 34 65
        E 0 92 35 65
        E 0 92 37 65
        E 1 92 39 65
        E 0 92 3b 65
        E 0 92 3c 65
        E 1 93 23 66
        E 0 93 25 66
        E 0 93 27 66
        E 1 93 28 66
        E 0 93 2a 66
        E 0 93 2c 66
        E 0 93 2e 66
        E 0 93 2f 66
        E 0 93 31 66
        E 1 93 33 66
        E 0 93 34 66
        E 0 93 36 66
        E 0 93 38 66
        E 0 93 3a 66
        E 1 93 3b 66
        E 0 94 25 64
        E 0 94 27 64
        E 0 94 29 63
        E 0 94 2a 64
        E 1 94 2c 64
        E 0 94 2e 64
        E 0 94 30 63
        E 0 94 31 64
        E 0 94 33 64
        E 1 94 35 63
        E 0 94 36 64
        E 0 94 38 64
        E 0 94 3a 64
        E 0 94 3c 63
        E 1 94 3d 64
        E 0 95 24 64
        E 0 95 26 64
        E 0 95 28 64
        E 0 95 29 64
        E 0 95 2b 64
        E 0 95 2d 64
        E 1 95 2f 64
        E 0 95 30 64
        E 0 95 32 64
        E 0 95 34 64
        E 0 95 35 64
        E 0 95 37 64
        E 1 95 39 64
        E 0 95 3b 64
        E 0 95 3c 64
        E 936 80 23 00
        E 0 80 25 67
        E 1 80 27 67
        E 0 80 28 00
        E 1 80 2a 67
        E 0 80 2c 67
        E 1 80 2e 67
        E 0 80 2f 00
        E 1 80 31 67
        E 0 80 33 67
        E 0 80 34 00
        E 1 80 36 67
        E 1 80 38 67
        E 0 80 3a 67
        E 1 80 3b 00
        E 0 81 25 65
        E 1 81 27 65
        E 1 81 29 00
        E 0 81 2a 65
        E 1 81 2c 65
        E 0 81 2e 65
        E 0 81 30 00
        E 0 81 31 65
        E 0 81 33 65
        E 0 81 35 00
        E 0 81 36 65
        E 0 81 38 65
        E 0 81 3a 65
        E 0 81 3c 00
        E 0 81 3d 65
        E 0 82 24 65
        E 0 82 26 65
        E 1 82 28 65
        E 0 82 29 65
        E 0 82 2b 65
        E 0 82 2d 65
        E 0 82 2f 65
        E 0 82 30 65
        E 0 82 32 65
        E 0 82 34 65
        E 0 82 35 65
        E 0 82 37 65
        E 0 82 39 65
        E 0 82 3b 65
        E 0 82 3c 65
        E 1 83 23 66
        E 0 83 25 66
        E 0 83 27 66
        E 0 83 28 66
        E 0 83 2a 66
        E 1 83 2c 66
        E 0 83 2e 66
        E 0 83 2f 66
        E 0 83 31 66
        E 0 83 33 66
        E 0 83 34 66
        E 0 83 36 66
        E 0 83 38 66
        E 0 83 3a 66
        E 0 83 3b 66
        E 1 84 25 64
        E 0 84 27 64
        E 0 84 29 63
        E 0 84 2a 64
        E 0 84 2c 64
        E 0 84 2e 64
        E 1 84 30 63
        E 0 84 31 64
        E 0 84 33 64
        E 0 84 35 63
        E 0 84 36 64
        E 0 84 38 64
        E 0 84 3a 64
        E 0 84 3c 63
        E 0 84 3d 64
        E 0 85 24 64
        E 0 85 26 64
        E 0 85 28 64
        E 0 85 29 64
        E 0 85 2b 64
        E 0 85 2d 64
        E 0 85 2f 64
        E 0 85 30 64
        E 1 85 32 64
        E 0 85 34 64
        E 0 85 35 64
        E 0 85 37 64
        E 0 85 39 64
        E 0 85 3b 64
        E 0 85 3c 64
        E 2865 80 3b 00
        E 1 80 40 00
        E 0 80 47 00
        E 1 80 4c 00
        E 1 80 53 00
        E 1 81 41 00
        E 0 81 48 00
        E 0 81 4d 00
        E 1 81 54 00
        E 1 90 3d 67
        E 0 90 3f 67
        E 1 90 42 67
        E 1 90 44 67
        E 0 90 46 67
        E 1 90 49 67
        E 0 90 4b 67
        E 2 90 4e 67
        E 0 90 50 67
        E 1 90 52 67
        E 0 91 3d 65
        E 0 91 3f 65
        E 1 91 42 65
        E 0 91 44 65
        E 1 91 46 65
        E 0 91 49 65
        E 1 91 4b 65
        E 0 91 4e 65
        E 1 91 50 65
        E 1 91 52 65
        E 0 91 55 65
        E 1 92 3c 65
        E 0 92 3e 65
        E 1 92 40 65
        E 1 92 41 65
        E 0 92 43 65
        E 1 92 45 65
        E 0 92 47 65
        E 1 92 48 65
        E 0 92 4a 65
        E 1 92 4c 65
        E 1 92 4d 65
        E 0 92 4f 65
        E 0 92 51 65
        E 1 92 53 65
        E 0 92 54 65
        E 1 93 3b 66
        E 1 93 3d 66
        E 0 93 3f 66
        E 1 93 40 66
        E 0 93 42 66
        E 0 93 44 66
        E 0 93 46 66
        E 1 93 47 66
        E 0 93 49 66
        E 1 93 4b 66
        E 0 93 4c 66
        E 0 93 4e 66
        E 1 93 50 66
        E 0 93 52 66
        E 0 93 53 66
        E 1 94 3d 64
        E 0 94 3f 64
        E 0 94 41 63
        E 0 94 42 64
        E 1 94 44 64
        E 0 94 46 64
        E 1 94 48 63
        E 0 94 49 64
        E 0 94 4b 64
        E 1 94 4d 63
        E 0 94 4e 64
        E 0 94 50 64
        E 1 94 52 64
        E 0 94 54 63
        E 0 94 55 64
        E 1 95 3c 64
        E 0 95 3e 64
        E 0 95 40 64
        E 1 95 41 64
        E 0 95 43 64
        E 0 95 45 64
        E 1 95 47 64
        E 0 95 48 64
        E 0 95 4a 64
        E 0 95 4c 64
        E 0 95 4d 64
        E 1 95 4f 64
        E 0 95 51 64
        E 0 95 53 64
        E 0 95 54 64
        E 922 80 3b 00
        E 1 80 3d 67
        E 0 80 3f 67
        E 0 80 40 00
        E 1 80 42 67
        E 0 80 44 67
        E 0 80 46 67
        E 1 80 47 00
        E 0 80 49 67
        E 1 80 4b 67
        E 0 80 4c 00
        E 0 80 4e 67
        E 0 80 50 67
        E 0 80 52 67
        E 1 80 53 00
        E 0 81 3d 65
        E 0 81 3f 65
        E 0 81 41 00
        E 0 81 42 65
        E 0 81 44 65
        E 0 81 46 65
        E 0 81 48 00
        E 0 81 49 65
        E 0 81 4b 65
        E 0 81 4d 00
        E 0 81 4e 65
        E 0 81 50 65
        E 0 81 52 65
        E 0 81 54 00
        E 1 81 55 65
        E 0 82 3c 65
        E 0 82 3e 65
        E 0 82 40 65
        E 0 82 41 65
        E 0 82 43 65
        E 0 82 45 65
        E 0 82 47 65
        E 0 82 48 65
        E 0 82 4a 65
        E 0 82 4c 65
        E 0 82 4d 65
        E 0 82 4f 65
        E 0 82 51 65
        E 0 82 53 65
        E 0 82 54 65
        E 0 83 3b 66
        E 0 83 3d 66
        E 1 83 3f 66
        E 0 83 40 66
        E 0 83 42 66
        E 0 83 44 66
        E 0 83 46 66
        E 0 83 47 66
        E 0 83 49 66
        E 0 83 4b 66
        E 0 83 4c 66
        E 0 83 4e 66
        E 0 83 50 66
        E 0 83 52 66
        E 0 83 53 66
        E 0 84 3d 64
        E 0 84 3f 64
        E 0 84 41 63
        E 0 84 42 64
        E 0 84 44 64
        E 1 84 46 64
        E 0 84 48 63
        E 0 84 49 64
        E 0 84 4b 64
        E 0 84 4d 63
        E 0 84 4e 64
        E 0 84 50 64
        E 0 84 52 64
        E 0 84 54 63
        E 0 84 55 64
        E 0 85 3c 64
        E 0 85 3e 64
        E 0 85 40 64
        E 0 85 41 64
        E 0 85 43 64
        E 0 85 45 64
        E 0 85 47 64
        E 0 85 48 64
        E 1 85 4a 64
        E 0 85 4c 64
        E 0 85 4d 64
        E 0 85 4f 64
        E 0 85 51 64
        E 0 85 53 64
        E 0 85 54 64
        E 2870 93 23 66
        E 1 93 25 66
        E 0 93 27 66
        E 1 93 28 66
        E 0 93 2a 66
        E 1 93 2c 66
        E 0 93 2e 66
        E 1 93 2f 66
        E 0 93 31 66
        E 0 93 33 66
        E 1 93 34 66
        E 1 93 36 66
        E 1 93 38 66
        E 0 93 3a 66
        E 1 93 3b 66
        E 1 94 25 64
        E 1 94 27 64
        E 0 94 29 63
        E 1 94 2a 64
        E 1 94 2c 64
        E 1 94 2e 64
        E 1 94 30 63
        E 1 94 31 64
        E 0 94 33 64
        E 1 94 35 63
        E 0 94 36 64
        E 0 94 38 64
        E 1 94 3a 64
        E 0 94 3c 63
        E 1 94 3d 64
        E 0 95 24 64
        E 0 95 26 64
        E 1 95 28 64
        E 0 95 29 64
        E 1 95 2b 64
        E 0 95 2d 64
        E 0 95 2f 64
        E 1 95 30 64
        E 0 95 32 64
        E 0 95 34 64
        E 1 95 35 64
        E 0 95 37 64
        E 0 95 39 64
        E 1 95 3b 64
        E 0 95 3c 64
        E 939 83 23 66
        E 0 83 25 66
        E 1 83 27 66
        E 0 83 28 66
        E 1 83 2a 66
        E 0 83 2c 66
        E 1 83 2e 66
        E 0 83 2f 66
        E 1 83 31 66
        E 0 83 33 66
        E 1 83 34 66
        E 1 83 36 66
        E 0 83 38 66
        E 1 83 3a 66
        E 1 83 3b 66
        E 1 84 25 64
        E 1 84 27 64
        E 1 84 29 63
        E 0 84 2a 64
        E 1 84 2c 64
        E 1 84 2e 64
        E 0 84 30 63
        E 1 84 31 64
        E 1 84 33 64
        E 0 84 35 63
        E 0 84 36 64
        E 1 84 38 64
        E 0 84 3a 64
        E 0 84 3c 63
        E 1 84 3d 64
        E 0 85 24 64
        E 0 85 26 64
        E 1 85 28 64
        E 0 85 29 64
        E 0 85 2b 64
        E 1 85 2d 64
        E 0 85 2f 64
        E 0 85 30 64
        E 1 85 32 64
        E 0 85 34 64
        E 0 85 35 64
        E 1 85 37 64
        E 0 85 39 64
        E 0 85 3b 64
        E 1 85 3c 64
        E 2855 80 23 00
        E 1 80 28 00
        E 0 80 2f 00
        E 1 80 34 00
        E 0 80 3b 00
        E 1 81 29 00
        E 1 81 30 00
        E 0 81 35 00
        E 1 81 3c 00
        E 0 90 25 67
        E 1 90 27 67
        E 1 90 2a 67
        E 0 90 2c 67
        E 1 90 2e 67
        E 1 90 31 67
        E 1 90 33 67
        E 0 90 36 67
        E 1 90 38 67
        E 0 90 3a 67
        E 1 91 25 65
        E 1 91 27 65
        E 0 91 2a 65
        E 1 91 2c 65
        E 1 91 2e 65
        E 1 91 31 65
        E 0 91 33 65
        E 1 91 36 65
        E 1 91 38 65
        E 0 91 3a 65
        E 0 91 3d 65
        E 1 92 24 65
        E 0 92 26 65
        E 0 92 28 65
        E 1 92 29 65
        E 0 92 2b 65
        E 1 92 2d 65
        E 0 92 2f 65
        E 1 92 30 65
        E 0 92 32 65
        E 0 92 34 65
        E 1 92 35 65
        E 0 92 37 65
        E 0 92 39 65
        E 1 92 3b 65
        E 0 92 3c 65
        E 937 80 23 00
        E 0 80 25 67
        E 1 80 27 67
        E 0 80 28 00
        E 1 80 2a 67
        E 0 80 2c 67
        E 1 80 2e 67
        E 1 80 2f 00
        E 0 80 31 67
        E 1 80 33 67
        E 0 80 34 00
        E 1 80 36 67
        E 0 80 38 67
        E 1 80 3a 67
        E 0 80 3b 00
        E 1 81 25 65
        E 0 81 27 65
        E 0 81 29 00
        E 1 81 2a 65
        E 0 81 2c 65
        E 0 81 2e 65
        E 0 81 30 00
        E 0 81 31 65
        E 1 81 33 65
        E 0 81 35 00
        E 0 81 36 65
        E 0 81 38 65
        E 0 81 3a 65
        E 0 81 3c 00
        E 0 81 3d 65
        E 0 82 24 65
        E 0 82 26 65
        E 0 82 28 65
        E 0 82 29 65
        E 0 82 2b 65
        E 0 82 2d 65
        E 0 82 2f 65
        E 1 82 30 65
        E 0 82 32 65
        E 0 82 34 65
        E 0 82 35 65
        E 0 82 37 65
        E 0 82 39 65
        E 0 82 3b 65
        E 0 82 3c 65
        E 2870 93 3b 66
        E 0 93 3d 66
        E 1 93 3f 66
        E 0 93 40 66
        E 1 93 42 66
        E 0 93 44 66
        E 1 93 46 66
        E 1 93 47 66
        E 0 93 49 66
        E 1 93 4b 66
        E 1 93 4c 66
        E 0 93 4e 66
        E 1 93 50 66
        E 0 93 52 66
        E 0 93 53 66
        E 1 94 3d 64
        E 0 94 3f 64
        E 0 94 41 63
        E 1 94 42 64
        E 0 94 44 64
        E 0 94 46 64
        E 1 94 48 63
        E 0 94 49 64
        E 0 94 4b 64
        E 0 94 4d 63
        E 0 94 4e 64
        E 0 94 50 64
        E 1 94 52 64
        E 0 94 54 63
        E 0 94 55 64
        E 0 95 3c 64
        E 0 95 3e 64
        E 0 95 40 64
        E 0 95 41 64
        E 0 95 43 64
        E 0 95 45 64
        E 0 95 47 64
        E 0 95 48 64
        E 0 95 4a 64
        E 1 95 4c 64
        E 0 95 4d 64
        E 0 95 4f 64
        E 0 95 51 64
        E 0 95 53 64
        E 0 95 54 64
        E 946 83 3b 66
        E 0 83 3d 66
        E 0 83 3f 66
        E 1 83 40 66
        E 0 83 42 66
        E 1 83 44 66
        E 1 83 46 66
        E 0 83 47 66
        E 1 83 49 66
        E 1 83 4b 66
        E 0 83 4c 66
        E 1 83 4e 66
        E 1 83 50 66
        E 0 83 52 66
        E 1 83 53 66
        E 1 84 3d 64
        E 0 84 3f 64
        E 1 84 41 63
        E 0 84 42 64
        E 1 84 44 64
        E 0 84 46 64
        E 1 84 48 63
        E 0 84 49 64
        E 1 84 4b 64
        E 1 84 4d 63
        E 0 84 4e 64
        E 1 84 50 64
        E 0 84 52 64
        E 1 84 54 63
        E 0 84 55 64
        E 0 85 3c 64
        E 1 85 3e 64
        E 0 85 40 64
        E 1 85 41 64
        E 0 85 43 64
        E 1 85 45 64
        E 0 85 47 64
        E 0 85 48 64
        E 1 85 4a 64
        E 0 85 4c 64
        E 0 85 4d 64
        E 1 85 4f 64
        E 0 85 51 64
        E 0 85 53 64
        E 1 85 54 64
        E 2857 80 3b 00
        E 1 80 40 00
        E 1 80 47 00
        E 0 80 4c 00
        E 1 80 53 00
        E 1 81 41 00
        E 0 81 48 00
        E 1 81 4d 00
        E 0 81 54 00
        E 1 90 3d 67
        E 0 90 3f 67
        E 1 90 42 67
        E 1 90 44 67
        E 0 90 46 67
        E 1 90 49 67
        E 1 90 4b 67
        E 1 90 4e 67
        E 1 90 50 67
        E 0 90 52 67
        E 1 91 3d 65
        E 1 91 3f 65
        E 0 91 42 65
        E 1 91 44 65
        E 0 91 46 65
        E 1 91 49 65
        E 0 91 4b 65
        E 1 91 4e 65
        E 0 91 50 65
        E 0 91 52 65
        E 1 91 55 65
        E 1 92 3c 65
        E 0 92 3e 65
        E 1 92 40 65
        E 0 92 41 65
        E 1 92 43 65
        E 0 92 45 65
        E 1 92 47 65
        E 1 92 48 65
        E 0 92 4a 65
        E 1 92 4c 65
        E 0 92 4d 65
        E 1 92 4f 65
        E 1 92 51 65
        E 0 92 53 65
        E 1 92 54 65
        E 935 80 3b 00
        E 0 80 3d 67
        E 0 80 3f 67
        E 1 80 40 00
        E 0 80 42 67
        E 1 80 44 67
        E 0 80 46 67
        E 1 80 47 00
        E 0 80 49 67
        E 1 80 4b 67
        E 0 80 4c 00
        E 1 80 4e 67
        E 2 80 50 67
        E 1 80 52 67
        E 0 80 53 00
        E 0 81 3d 65
        E 1 81 3f 65
        E 0 81 41 00
        E 0 81 42 65
        E 0 81 44 65
        E 1 81 46 65
        E 0 81 48 00
        E 0 81 49 65
        E 0 81 4b 65
        E 0 81 4d 00
        E 1 81 4e 65
        E 0 81 50 65
        E 0 81 52 65
        E 0 81 54 00
        E 0 81 55 65
        E 0 82 3c 65
        E 0 82 3e 65
        E 0 82 40 65
        E 0 82 41 65
        E 0 82 43 65
        E 0 82 45 65
        E 0 82 47 65
        E 1 82 48 65
        E 0 82 4a 65
        E 0 82 4c 65
        E 0 82 4d 65
        E 0 82 4f 65
        E 0 82 51 65
        E 0 82 53 65
        E 0 82 54 65
        E 159 b0 7b 00
        CCINTERP 32
        CHASE_CC_TAKEOFFS 1
        GUID {9F717787-6BD8-4AA5-B674-96E596D2EFDD}
        IGNTEMPO 0 120 4 4
        SRCCOLOR 95
        VELLANE -1 100 0
      >
    >
  >
  <TRACK {756C2E0F-9367-49FF-A5A3-C182657EA1C2}
    NAME ""
    PEAKCOL 16576
    BEAT -1
    AUTOMODE 0
    VOLPAN 1 0 -1 -1 1
    MUTESOLO 0 0 0
    IPHASE 0
    PLAYOFFS 0 1
    ISBUS 0 0
    BUSCOMP 0 0 0 0 0
    SHOWINMIX 1 0.6667 0.5 1 0.5 0 -1 0
    FREEMODE 0
    SEL 0
    REC 1 4096 1 0 0 0 0
    VU 2
    TRACKHEIGHT 0 0 0 0 0 0
    INQ 0 0 0 0.5 100 0 0 100
    NCHAN 2
    FX 1
    TRACKID {756C2E0F-9367-49FF-A5A3-C182657EA1C2}
    PERF 0
    MIDIOUT 33
    MAINSEND 1 0
    <ITEM
      POSITION 68.4611077703169
      SNAPOFFS 0
      LENGTH 0.74855416192383
      LOOP 1
      ALLTAKES 0
      FADEIN 1 0 0 1 0 0 0
      FADEOUT 1 0 0 1 0 0 0
      MUTE 0 0
      SEL 0
      IGUID {C862E6C4-A909-4E22-A86F-5946AC2B3A5C}
      IID 42
      NAME "04-Recorded MIDI"
      VOLPAN 1 0 1 -1
      SOFFS 9.4629568928877 18.92591378577539
      PLAYRATE 1 1 0 -1 0 0.0025
      CHANMODE 0
      GUID {A0A03079-316F-4311-B5D3-0492819D023E}
      RECPASS 11
      <SOURCE MIDI
        HASDATA 1 960 QN
        CCINTERP 32
        POOLEDEVTS {F85067F9-AE41-4644-B59E-F76E6C192033}
        E 3916 b0 7b 00
        E 0 b1 7b 00
        E 1 b2 7b 00
        E 1 b3 7b 00
        E 0 b4 7b 00
        E 1 b5 7b 00
        E 1 b6 7b 00
        E 1 b7 7b 00
        E 0 b8 7b 00
        E 2 b9 7b 00
        E 1 ba 7b 00
        E 1 bb 7b 00
        E 1 bc 7b 00
        E 0 bd 7b 00
        E 1 be 7b 00
        E 1 bf 7b 00
        E 1 b0 79 00
        E 1 b1 79 00
        E 0 b2 79 00
        E 1 b3 79 00
        E 1 b4 79 00
        E 1 b5 79 00
        E 0 b6 79 00
        E 1 b7 79 00
        E 1 b8 79 00
        E 1 b9 79 00
        E 0 ba 79 00
        E 2 bb 79 00
        E 0 bc 79 00
        E 1 bd 79 00
        E 0 be 79 00
        E 1 bf 79 00
        E 9604 b0 7b 00
        E 0 b1 7b 00
        E 1 b2 7b 00
        E 1 b3 7b 00
        E 1 b4 7b 00
        E 1 b5 7b 00
        E 0 b6 7b 00
        E 1 b7 7b 00
        E 0 b8 7b 00
        E 1 b9 7b 00
        E 1 ba 7b 00
        E 1 bb 7b 00
        E 0 bc 7b 00
        E 1 bd 7b 00
        E 0 be 7b 00
        E 1 bf 7b 00
        E 3 c9 00 00
        E 0 c0 01 00
        E 1 c1 01 00
        E 1 c2 01 00
        E 1 c3 01 00
        E 0 c4 01 00
        E 1 c5 01 00
        E 17 b0 07 64
        E 1 b0 0a 40
        E 0 b0 5b 3b
        E 1 b0 5d 00
        E 0 b1 07 64
        E 0 b1 0a 40
        E 1 b1 5b 3b
        E 0 b1 5d 00
        E 0 b2 07 64
        E 1 b2 0a 40
        E 0 b2 5b 3b
        E 0 b2 5d 00
        E 0 b3 07 64
        E 1 b3 0a 40
        E 0 b3 5b 3b
        E 0 b3 5d 00
        E 0 b4 07 64
        E 0 b4 0a 40
        E 1 b4 5b 3b
        E 0 b4 5d 00
        E 0 b5 07 64
        E 0 b5 0a 40
        E 0 b5 5b 3b
        E 0 b5 5d 00
        E 12 c0 01 00
        E 1 c1 01 00
        E 0 c2 01 00
        E 0 c3 01 00
        E 0 c4 01 00
        E 0 c5 01 00
        E 4798 80 23 00
        E 1 80 28 00
        E 0 80 2f 00
        E 0 80 34 00
        E 1 80 3b 00
        E 0 81 29 00
        E 0 81 30 00
        E 1 81 35 00
        E 0 81 3c 00
        E 0 90 25 67
        E 1 90 27 67
        E 0 90 2a 67
        E 0 90 2c 67
        E 1 90 2e 67
        E 0 90 31 67
        E 0 90 33 67
        E 0 90 36 67
        E 1 90 38 67
        E 0 90 3a 67
        E 0 91 25 65
        E 0 91 27 65
        E 1 91 2a 65
        E 0 91 2c 65
        E 0 91 2e 65
        E 1 91 31 65
        E 0 91 33 65
        E 1 91 36 65
        E 0 91 38 65
        E 1 91 3a 65
        E 0 91 3d 65
        E 0 92 24 65
        E 1 92 26 65
        E 0 92 28 65
        E 0 92 29 65
        E 1 92 2b 65
        E 0 92 2d 65
        E 1 92 2f 65
        E 0 92 30 65
        E 1 92 32 65
        E 0 92 34 65
        E 0 92 35 65
        E 0 92 37 65
        E 1 92 39 65
        E 0 92 3b 65
        E 0 92 3c 65
        E 1 93 23 66
        E 0 93 25 66
        E 0 93 27 66
        E 1 93 28 66
        E 0 93 2a 66
        E 0 93 2c 66
        E 0 93 2e 66
        E 0 93 2f 66
        E 0 93 31 66
        E 1 93 33 66
        E 0 93 34 66
        E 0 93 36 66
        E 0 93 38 66
        E 0 93 3a 66
        E 1 93 3b 66
        E 0 94 25 64
        E 0 94 27 64
        E 0 94 29 63
        E 0 94 2a 64
        E 1 94 2c 64
        E 0 94 2e 64
        E 0 94 30 63
        E 0 94 31 64
        E 0 94 33 64
        E 1 94 35 63
        E 0 94 36 64
        E 0 94 38 64
        E 0 94 3a 64
        E 0 94 3c 63
        E 1 94 3d 64
        E 0 95 24 64
        E 0 95 26 64
        E 0 95 28 64
        E 0 95 29 64
        E 0 95 2b 64
        E 0 95 2d 64
        E 1 95 2f 64
        E 0 95 30 64
        E 0 95 32 64
        E 0 95 34 64
        E 0 95 35 64
        E 0 95 37 64
        E 1 95 39 64
        E 0 95 3b 64
        E 0 95 3c 64
        E 936 80 23 00
        E 0 80 25 67
        E 1 80 27 67
        E 0 80 28 00
        E 1 80 2a 67
        E 0 80 2c 67
        E 1 80 2e 67
        E 0 80 2f 00
        E 1 80 31 67
        E 0 80 33 67
        E 0 80 34 00
        E 1 80 36 67
        E 1 80 38 67
        E 0 80 3a 67
        E 1 80 3b 00
        E 0 81 25 65
        E 1 81 27 65
        E 1 81 29 00
        E 0 81 2a 65
        E 1 81 2c 65
        E 0 81 2e 65
        E 0 81 30 00
        E 0 81 31 65
        E 0 81 33 65
        E 0 81 35 00
        E 0 81 36 65
        E 0 81 38 65
        E 0 81 3a 65
        E 0 81 3c 00
        E 0 81 3d 65
        E 0 82 24 65
        E 0 82 26 65
        E 1 82 28 65
        E 0 82 29 65
        E 0 82 2b 65
        E 0 82 2d 65
        E 0 82 2f 65
        E 0 82 30 65
        E 0 82 32 65
        E 0 82 34 65
        E 0 82 35 65
        E 0 82 37 65
        E 0 82 39 65
        E 0 82 3b 65
        E 0 82 3c 65
        E 1 83 23 66
        E 0 83 25 66
        E 0 83 27 66
        E 0 83 28 66
        E 0 83 2a 66
        E 1 83 2c 66
        E 0 83 2e 66
        E 0 83 2f 66
        E 0 83 31 66
        E 0 83 33 66
        E 0 83 34 66
        E 0 83 36 66
        E 0 83 38 66
        E 0 83 3a 66
        E 0 83 3b 66
        E 1 84 25 64
        E 0 84 27 64
        E 0 84 29 63
        E 0 84 2a 64
        E 0 84 2c 64
        E 0 84 2e 64
        E 1 84 30 63
        E 0 84 31 64
        E 0 84 33 64
        E 0 84 35 63
        E 0 84 36 64
        E 0 84 38 64
        E 0 84 3a 64
        E 0 84 3c 63
        E 0 84 3d 64
        E 0 85 24 64
        E 0 85 26 64
        E 0 85 28 64
        E 0 85 29 64
        E 0 85 2b 64
        E 0 85 2d 64
        E 0 85 2f 64
        E 0 85 30 64
        E 1 85 32 64
        E 0 85 34 64
        E 0 85 35 64
        E 0 85 37 64
        E 0 85 39 64
        E 0 85 3b 64
        E 0 85 3c 64
        E 235 b0 7b 00
        CCINTERP 32
        CHASE_CC_TAKEOFFS 1
        GUID {0B7209BE-B5AE-4E62-853F-1A578EE6A0F1}
        IGNTEMPO 0 120 4 4
        SRCCOLOR 84
        VELLANE -1 100 0
      >
    >
    <ITEM
      POSITION 69.14857247509651
      SNAPOFFS 0
      LENGTH 0.72116803404846
      LOOP 1
      ALLTAKES 0
      FADEIN 1 0 0 1 0 0 0
      FADEOUT 1 0 0 1 0 0 0
      MUTE 0 0
      SEL 0
      IGUID {E9F7192C-BDD4-46A0-914B-3083A04D8B30}
      IID 46
      NAME "04-Recorded MIDI"
      VOLPAN 1 0 1 -1
      SOFFS 13.47046027196723 26.94092054393447
      PLAYRATE 1 1 0 -1 0 0.0025
      CHANMODE 0
      GUID {712CCED4-6F82-4AA0-883E-2ABE30E98FB7}
      RECPASS 11
      <SOURCE MIDI
        HASDATA 1 960 QN
        CCINTERP 32
        POOLEDEVTS {EDD89E88-03DD-4719-8213-B35FF1CE5147}
        E 3916 b0 7b 00
        E 0 b1 7b 00
        E 1 b2 7b 00
        E 1 b3 7b 00
        E 0 b4 7b 00
        E 1 b5 7b 00
        E 1 b6 7b 00
        E 1 b7 7b 00
        E 0 b8 7b 00
        E 2 b9 7b 00
        E 1 ba 7b 00
        E 1 bb 7b 00
        E 1 bc 7b 00
        E 0 bd 7b 00
        E 1 be 7b 00
        E 1 bf 7b 00
        E 1 b0 79 00
        E 1 b1 79 00
        E 0 b2 79 00
        E 1 b3 79 00
        E 1 b4 79 00
        E 1 b5 79 00
        E 0 b6 79 00
        E 1 b7 79 00
        E 1 b8 79 00
        E 1 b9 79 00
        E 0 ba 79 00
        E 2 bb 79 00
        E 0 bc 79 00
        E 1 bd 79 00
        E 0 be 79 00
        E 1 bf 79 00
        E 9604 b0 7b 00
        E 0 b1 7b 00
        E 1 b2 7b 00
        E 1 b3 7b 00
        E 1 b4 7b 00
        E 1 b5 7b 00
        E 0 b6 7b 00
        E 1 b7 7b 00
        E 0 b8 7b 00
        E 1 b9 7b 00
        E 1 ba 7b 00
        E 1 bb 7b 00
        E 0 bc 7b 00
        E 1 bd 7b 00
        E 0 be 7b 00
        E 1 bf 7b 00
        E 3 c9 00 00
        E 0 c0 01 00
        E 1 c1 01 00
        E 1 c2 01 00
        E 1 c3 01 00
        E 0 c4 01 00
        E 1 c5 01 00
        E 17 b0 07 64
        E 1 b0 0a 40
        E 0 b0 5b 3b
        E 1 b0 5d 00
        E 0 b1 07 64
        E 0 b1 0a 40
        E 1 b1 5b 3b
        E 0 b1 5d 00
        E 0 b2 07 64
        E 1 b2 0a 40
        E 0 b2 5b 3b
        E 0 b2 5d 00
        E 0 b3 07 64
        E 1 b3 0a 40
        E 0 b3 5b 3b
        E 0 b3 5d 00
        E 0 b4 07 64
        E 0 b4 0a 40
        E 1 b4 5b 3b
        E 0 b4 5d 00
        E 0 b5 07 64
        E 0 b5 0a 40
        E 0 b5 5b 3b
        E 0 b5 5d 00
        E 12 c0 01 00
        E 1 c1 01 00
        E 0 c2 01 00
        E 0 c3 01 00
        E 0 c4 01 00
        E 0 c5 01 00
        E 4798 80 23 00
        E 1 80 28 00
        E 0 80 2f 00
        E 0 80 34 00
        E 1 80 3b 00
        E 0 81 29 00
        E 0 81 30 00
        E 1 81 35 00
        E 0 81 3c 00
        E 0 90 25 67
        E 1 90 27 67
        E 0 90 2a 67
        E 0 90 2c 67
        E 1 90 2e 67
        E 0 90 31 67
        E 0 90 33 67
        E 0 90 36 67
        E 1 90 38 67
        E 0 90 3a 67
        E 0 91 25 65
        E 0 91 27 65
        E 1 91 2a 65
        E 0 91 2c 65
        E 0 91 2e 65
        E 1 91 31 65
        E 0 91 33 65
        E 1 91 36 65
        E 0 91 38 65
        E 1 91 3a 65
        E 0 91 3d 65
        E 0 92 24 65
        E 1 92 26 65
        E 0 92 28 65
        E 0 92 29 65
        E 1 92 2b 65
        E 0 92 2d 65
        E 1 92 2f 65
        E 0 92 30 65
        E 1 92 32 65
        E 0 92 34 65
        E 0 92 35 65
        E 0 92 37 65
        E 1 92 39 65
        E 0 92 3b 65
        E 0 92 3c 65
        E 1 93 23 66
        E 0 93 25 66
        E 0 93 27 66
        E 1 93 28 66
        E 0 93 2a 66
        E 0 93 2c 66
        E 0 93 2e 66
        E 0 93 2f 66
        E 0 93 31 66
        E 1 93 33 66
        E 0 93 34 66
        E 0 93 36 66
        E 0 93 38 66
        E 0 93 3a 66
        E 1 93 3b 66
        E 0 94 25 64
        E 0 94 27 64
        E 0 94 29 63
        E 0 94 2a 64
        E 1 94 2c 64
        E 0 94 2e 64
        E 0 94 30 63
        E 0 94 31 64
        E 0 94 33 64
        E 1 94 35 63
        E 0 94 36 64
        E 0 94 38 64
        E 0 94 3a 64
        E 0 94 3c 63
        E 1 94 3d 64
        E 0 95 24 64
        E 0 95 26 64
        E 0 95 28 64
        E 0 95 29 64
        E 0 95 2b 64
        E 0 95 2d 64
        E 1 95 2f 64
        E 0 95 30 64
        E 0 95 32 64
        E 0 95 34 64
        E 0 95 35 64
        E 0 95 37 64
        E 1 95 39 64
        E 0 95 3b 64
        E 0 95 3c 64
        E 936 80 23 00
        E 0 80 25 67
        E 1 80 27 67
        E 0 80 28 00
        E 1 80 2a 67
        E 0 80 2c 67
        E 1 80 2e 67
        E 0 80 2f 00
        E 1 80 31 67
        E 0 80 33 67
        E 0 80 34 00
        E 1 80 36 67
        E 1 80 38 67
        E 0 80 3a 67
        E 1 80 3b 00
        E 0 81 25 65
        E 1 81 27 65
        E 1 81 29 00
        E 0 81 2a 65
        E 1 81 2c 65
        E 0 81 2e 65
        E 0 81 30 00
        E 0 81 31 65
        E 0 81 33 65
        E 0 81 35 00
        E 0 81 36 65
        E 0 81 38 65
        E 0 81 3a 65
        E 0 81 3c 00
        E 0 81 3d 65
        E 0 82 24 65
        E 0 82 26 65
        E 1 82 28 65
        E 0 82 29 65
        E 0 82 2b 65
        E 0 82 2d 65
        E 0 82 2f 65
        E 0 82 30 65
        E 0 82 32 65
        E 0 82 34 65
        E 0 82 35 65
        E 0 82 37 65
        E 0 82 39 65
        E 0 82 3b 65
        E 0 82 3c 65
        E 1 83 23 66
        E 0 83 25 66
        E 0 83 27 66
        E 0 83 28 66
        E 0 83 2a 66
        E 1 83 2c 66
        E 0 83 2e 66
        E 0 83 2f 66
        E 0 83 31 66
        E 0 83 33 66
        E 0 83 34 66
        E 0 83 36 66
        E 0 83 38 66
        E 0 83 3a 66
        E 0 83 3b 66
        E 1 84 25 64
        E 0 84 27 64
        E 0 84 29 63
        E 0 84 2a 64
        E 0 84 2c 64
        E 0 84 2e 64
        E 1 84 30 63
        E 0 84 31 64
        E 0 84 33 64
        E 0 84 35 63
        E 0 84 36 64
        E 0 84 38 64
        E 0 84 3a 64
        E 0 84 3c 63
        E 0 84 3d 64
        E 0 85 24 64
        E 0 85 26 64
        E 0 85 28 64
        E 0 85 29 64
        E 0 85 2b 64
        E 0 85 2d 64
        E 0 85 2f 64
        E 0 85 30 64
        E 1 85 32 64
        E 0 85 34 64
        E 0 85 35 64
        E 0 85 37 64
        E 0 85 39 64
        E 0 85 3b 64
        E 0 85 3c 64
        E 2865 80 3b 00
        E 1 80 40 00
        E 0 80 47 00
        E 1 80 4c 00
        E 1 80 53 00
        E 1 81 41 00
        E 0 81 48 00
        E 0 81 4d 00
        E 1 81 54 00
        E 1 90 3d 67
        E 0 90 3f 67
        E 1 90 42 67
        E 1 90 44 67
        E 0 90 46 67
        E 1 90 49 67
        E 0 90 4b 67
        E 2 90 4e 67
        E 0 90 50 67
        E 1 90 52 67
        E 0 91 3d 65
        E 0 91 3f 65
        E 1 91 42 65
        E 0 91 44 65
        E 1 91 46 65
        E 0 91 49 65
        E 1 91 4b 65
        E 0 91 4e 65
        E 1 91 50 65
        E 1 91 52 65
        E 0 91 55 65
        E 1 92 3c 65
        E 0 92 3e 65
        E 1 92 40 65
        E 1 92 41 65
        E 0 92 43 65
        E 1 92 45 65
        E 0 92 47 65
        E 1 92 48 65
        E 0 92 4a 65
        E 1 92 4c 65
        E 1 92 4d 65
        E 0 92 4f 65
        E 0 92 51 65
        E 1 92 53 65
        E 0 92 54 65
        E 1 93 3b 66
        E 1 93 3d 66
        E 0 93 3f 66
        E 1 93 40 66
        E 0 93 42 66
        E 0 93 44 66
        E 0 93 46 66
        E 1 93 47 66
        E 0 93 49 66
        E 1 93 4b 66
        E 0 93 4c 66
        E 0 93 4e 66
        E 1 93 50 66
        E 0 93 52 66
        E 0 93 53 66
        E 1 94 3d 64
        E 0 94 3f 64
        E 0 94 41 63
        E 0 94 42 64
        E 1 94 44 64
        E 0 94 46 64
        E 1 94 48 63
        E 0 94 49 64
        E 0 94 4b 64
        E 1 94 4d 63
        E 0 94 4e 64
        E 0 94 50 64
        E 1 94 52 64
        E 0 94 54 63
        E 0 94 55 64
        E 1 95 3c 64
        E 0 95 3e 64
        E 0 95 40 64
        E 1 95 41 64
        E 0 95 43 64
        E 0 95 45 64
        E 1 95 47 64
        E 0 95 48 64
        E 0 95 4a 64
        E 0 95 4c 64
        E 0 95 4d 64
        E 1 95 4f 64
        E 0 95 51 64
        E 0 95 53 64
        E 0 95 54 64
        E 922 80 3b 00
        E 1 80 3d 67
        E 0 80 3f 67
        E 0 80 40 00
        E 1 80 42 67
        E 0 80 44 67
        E 0 80 46 67
        E 1 80 47 00
        E 0 80 49 67
        E 1 80 4b 67
        E 0 80 4c 00
        E 0 80 4e 67
        E 0 80 50 67
        E 0 80 52 67
        E 1 80 53 00
        E 0 81 3d 65
        E 0 81 3f 65
        E 0 81 41 00
        E 0 81 42 65
        E 0 81 44 65
        E 0 81 46 65
        E 0 81 48 00
        E 0 81 49 65
        E 0 81 4b 65
        E 0 81 4d 00
        E 0 81 4e 65
        E 0 81 50 65
        E 0 81 52 65
        E 0 81 54 00
        E 1 81 55 65
        E 0 82 3c 65
        E 0 82 3e 65
        E 0 82 40 65
        E 0 82 41 65
        E 0 82 43 65
        E 0 82 45 65
        E 0 82 47 65
        E 0 82 48 65
        E 0 82 4a 65
        E 0 82 4c 65
        E 0 82 4d 65
        E 0 82 4f 65
        E 0 82 51 65
        E 0 82 53 65
        E 0 82 54 65
        E 0 83 3b 66
        E 0 83 3d 66
        E 1 83 3f 66
        E 0 83 40 66
        E 0 83 42 66
        E 0 83 44 66
        E 0 83 46 66
        E 0 83 47 66
        E 0 83 49 66
        E 0 83 4b 66
        E 0 83 4c 66
        E 0 83 4e 66
        E 0 83 50 66
        E 0 83 52 66
        E 0 83 53 66
        E 0 84 3d 64
        E 0 84 3f 64
        E 0 84 41 63
        E 0 84 42 64
        E 0 84 44 64
        E 1 84 46 64
        E 0 84 48 63
        E 0 84 49 64
        E 0 84 4b 64
        E 0 84 4d 63
        E 0 84 4e 64
        E 0 84 50 64
        E 0 84 52 64
        E 0 84 54 63
        E 0 84 55 64
        E 0 85 3c 64
        E 0 85 3e 64
        E 0 85 40 64
        E 0 85 41 64
        E 0 85 43 64
        E 0 85 45 64
        E 0 85 47 64
        E 0 85 48 64
        E 1 85 4a 64
        E 0 85 4c 64
        E 0 85 4d 64
        E 0 85 4f 64
        E 0 85 51 64
        E 0 85 53 64
        E 0 85 54 64
        E 2870 93 23 66
        E 1 93 25 66
        E 0 93 27 66
        E 1 93 28 66
        E 0 93 2a 66
        E 1 93 2c 66
        E 0 93 2e 66
        E 1 93 2f 66
        E 0 93 31 66
        E 0 93 33 66
        E 1 93 34 66
        E 1 93 36 66
        E 1 93 38 66
        E 0 93 3a 66
        E 1 93 3b 66
        E 1 94 25 64
        E 1 94 27 64
        E 0 94 29 63
        E 1 94 2a 64
        E 1 94 2c 64
        E 1 94 2e 64
        E 1 94 30 63
        E 1 94 31 64
        E 0 94 33 64
        E 1 94 35 63
        E 0 94 36 64
        E 0 94 38 64
        E 1 94 3a 64
        E 0 94 3c 63
        E 1 94 3d 64
        E 0 95 24 64
        E 0 95 26 64
        E 1 95 28 64
        E 0 95 29 64
        E 1 95 2b 64
        E 0 95 2d 64
        E 0 95 2f 64
        E 1 95 30 64
        E 0 95 32 64
        E 0 95 34 64
        E 1 95 35 64
        E 0 95 37 64
        E 0 95 39 64
        E 1 95 3b 64
        E 0 95 3c 64
        E 939 83 23 66
        E 0 83 25 66
        E 1 83 27 66
        E 0 83 28 66
        E 1 83 2a 66
        E 0 83 2c 66
        E 1 83 2e 66
        E 0 83 2f 66
        E 1 83 31 66
        E 0 83 33 66
        E 1 83 34 66
        E 1 83 36 66
        E 0 83 38 66
        E 1 83 3a 66
        E 1 83 3b 66
        E 1 84 25 64
        E 1 84 27 64
        E 1 84 29 63
        E 0 84 2a 64
        E 1 84 2c 64
        E 1 84 2e 64
        E 0 84 30 63
        E 1 84 31 64
        E 1 84 33 64
        E 0 84 35 63
        E 0 84 36 64
        E 1 84 38 64
        E 0 84 3a 64
        E 0 84 3c 63
        E 1 84 3d 64
        E 0 85 24 64
        E 0 85 26 64
        E 1 85 28 64
        E 0 85 29 64
        E 0 85 2b 64
        E 1 85 2d 64
        E 0 85 2f 64
        E 0 85 30 64
        E 1 85 32 64
        E 0 85 34 64
        E 0 85 35 64
        E 1 85 37 64
        E 0 85 39 64
        E 0 85 3b 64
        E 1 85 3c 64
        E 187 b0 7b 00
        CCINTERP 32
        CHASE_CC_TAKEOFFS 1
        GUID {55BC721D-A30D-419A-95E1-E667FF37EEF3}
        IGNTEMPO 0 120 4 4
        SRCCOLOR 88
        VELLANE -1 100 0
      >
    >
    <ITEM
      POSITION 69.80360959946198
      SNAPOFFS 0
      LENGTH 0.64813835971449
      LOOP 1
      ALLTAKES 0
      FADEIN 1 0 0 1 0 0 0
      FADEOUT 1 0 0 1 0 0 0
      MUTE 0 0
      SEL 0
      IGUID {D1F6CDDF-D6A8-4234-BF5F-29DDF305368D}
      IID 50
      NAME "04-Recorded MIDI"
      VOLPAN 1 0 1 -1
      SOFFS 17.52360719750551 35.04721439501101
      PLAYRATE 1 1 0 -1 0 0.0025
      CHANMODE 0
      GUID {FEA7EA7A-5DBE-4C3A-9DBD-27CAFEB7A466}
      RECPASS 11
      <SOURCE MIDI
        HASDATA 1 960 QN
        CCINTERP 32
        POOLEDEVTS {E99C3A25-38AF-479E-A451-C415E4CDD097}
        E 3916 b0 7b 00
        E 0 b1 7b 00
        E 1 b2 7b 00
        E 1 b3 7b 00
        E 0 b4 7b 00
        E 1 b5 7b 00
        E 1 b6 7b 00
        E 1 b7 7b 00
        E 0 b8 7b 00
        E 2 b9 7b 00
        E 1 ba 7b 00
        E 1 bb 7b 00
        E 1 bc 7b 00
        E 0 bd 7b 00
        E 1 be 7b 00
        E 1 bf 7b 00
        E 1 b0 79 00
        E 1 b1 79 00
        E 0 b2 79 00
        E 1 b3 79 00
        E 1 b4 79 00
        E 1 b5 79 00
        E 0 b6 79 00
        E 1 b7 79 00
        E 1 b8 79 00
        E 1 b9 79 00
        E 0 ba 79 00
        E 2 bb 79 00
        E 0 bc 79 00
        E 1 bd 79 00
        E 0 be 79 00
        E 1 bf 79 00
        E 9604 b0 7b 00
        E 0 b1 7b 00
        E 1 b2 7b 00
        E 1 b3 7b 00
        E 1 b4 7b 00
        E 1 b5 7b 00
        E 0 b6 7b 00
        E 1 b7 7b 00
        E 0 b8 7b 00
        E 1 b9 7b 00
        E 1 ba 7b 00
        E 1 bb 7b 00
        E 0 bc 7b 00
        E 1 bd 7b 00
        E 0 be 7b 00
        E 1 bf 7b 00
        E 3 c9 00 00
        E 0 c0 01 00
        E 1 c1 01 00
        E 1 c2 01 00
        E 1 c3 01 00
        E 0 c4 01 00
        E 1 c5 01 00
        E 17 b0 07 64
        E 1 b0 0a 40
        E 0 b0 5b 3b
        E 1 b0 5d 00
        E 0 b1 07 64
        E 0 b1 0a 40
        E 1 b1 5b 3b
        E 0 b1 5d 00
        E 0 b2 07 64
        E 1 b2 0a 40
        E 0 b2 5b 3b
        E 0 b2 5d 00
        E 0 b3 07 64
        E 1 b3 0a 40
        E 0 b3 5b 3b
        E 0 b3 5d 00
        E 0 b4 07 64
        E 0 b4 0a 40
        E 1 b4 5b 3b
        E 0 b4 5d 00
        E 0 b5 07 64
        E 0 b5 0a 40
        E 0 b5 5b 3b
        E 0 b5 5d 00
        E 12 c0 01 00
        E 1 c1 01 00
        E 0 c2 01 00
        E 0 c3 01 00
        E 0 c4 01 00
        E 0 c5 01 00
        E 4798 80 23 00
        E 1 80 28 00
        E 0 80 2f 00
        E 0 80 34 00
        E 1 80 3b 00
        E 0 81 29 00
        E 0 81 30 00
        E 1 81 35 00
        E 0 81 3c 00
        E 0 90 25 67
        E 1 90 27 67
        E 0 90 2a 67
        E 0 90 2c 67
        E 1 90 2e 67
        E 0 90 31 67
        E 0 90 33 67
        E 0 90 36 67
        E 1 90 38 67
        E 0 90 3a 67
        E 0 91 25 65
        E 0 91 27 65
        E 1 91 2a 65
        E 0 91 2c 65
        E 0 91 2e 65
        E 1 91 31 65
        E 0 91 33 65
        E 1 91 36 65
        E 0 91 38 65
        E 1 91 3a 65
        E 0 91 3d 65
        E 0 92 24 65
        E 1 92 26 65
        E 0 92 28 65
        E 0 92 29 65
        E 1 92 2b 65
        E 0 92 2d 65
        E 1 92 2f 65
        E 0 92 30 65
        E 1 92 32 65
        E 0 92 34 65
        E 0 92 35 65
        E 0 92 37 65
        E 1 92 39 65
        E 0 92 3b 65
        E 0 92 3c 65
        E 1 93 23 66
        E 0 93 25 66
        E 0 93 27 66
        E 1 93 28 66
        E 0 93 2a 66
        E 0 93 2c 66
        E 0 93 2e 66
        E 0 93 2f 66
        E 0 93 31 66
        E 1 93 33 66
        E 0 93 34 66
        E 0 93 36 66
        E 0 93 38 66
        E 0 93 3a 66
        E 1 93 3b 66
        E 0 94 25 64
        E 0 94 27 64
        E 0 94 29 63
        E 0 94 2a 64
        E 1 94 2c 64
        E 0 94 2e 64
        E 0 94 30 63
        E 0 94 31 64
        E 0 94 33 64
        E 1 94 35 63
        E 0 94 36 64
        E 0 94 38 64
        E 0 94 3a 64
        E 0 94 3c 63
        E 1 94 3d 64
        E 0 95 24 64
        E 0 95 26 64
        E 0 95 28 64
        E 0 95 29 64
        E 0 95 2b 64
        E 0 95 2d 64
        E 1 95 2f 64
        E 0 95 30 64
        E 0 95 32 64
        E 0 95 34 64
        E 0 95 35 64
        E 0 95 37 64
        E 1 95 39 64
        E 0 95 3b 64
        E 0 95 3c 64
        E 936 80 23 00
        E 0 80 25 67
        E 1 80 27 67
        E 0 80 28 00
        E 1 80 2a 67
        E 0 80 2c 67
        E 1 80 2e 67
        E 0 80 2f 00
        E 1 80 31 67
        E 0 80 33 67
        E 0 80 34 00
        E 1 80 36 67
        E 1 80 38 67
        E 0 80 3a 67
        E 1 80 3b 00
        E 0 81 25 65
        E 1 81 27 65
        E 1 81 29 00
        E 0 81 2a 65
        E 1 81 2c 65
        E 0 81 2e 65
        E 0 81 30 00
        E 0 81 31 65
        E 0 81 33 65
        E 0 81 35 00
        E 0 81 36 65
        E 0 81 38 65
        E 0 81 3a 65
        E 0 81 3c 00
        E 0 81 3d 65
        E 0 82 24 65
        E 0 82 26 65
        E 1 82 28 65
        E 0 82 29 65
        E 0 82 2b 65
        E 0 82 2d 65
        E 0 82 2f 65
        E 0 82 30 65
        E 0 82 32 65
        E 0 82 34 65
        E 0 82 35 65
        E 0 82 37 65
        E 0 82 39 65
        E 0 82 3b 65
        E 0 82 3c 65
        E 1 83 23 66
        E 0 83 25 66
        E 0 83 27 66
        E 0 83 28 66
        E 0 83 2a 66
        E 1 83 2c 66
        E 0 83 2e 66
        E 0 83 2f 66
        E 0 83 31 66
        E 0 83 33 66
        E 0 83 34 66
        E 0 83 36 66
        E 0 83 38 66
        E 0 83 3a 66
        E 0 83 3b 66
        E 1 84 25 64
        E 0 84 27 64
        E 0 84 29 63
        E 0 84 2a 64
        E 0 84 2c 64
        E 0 84 2e 64
        E 1 84 30 63
        E 0 84 31 64
        E 0 84 33 64
        E 0 84 35 63
        E 0 84 36 64
        E 0 84 38 64
        E 0 84 3a 64
        E 0 84 3c 63
        E 0 84 3d 64
        E 0 85 24 64
        E 0 85 26 64
        E 0 85 28 64
        E 0 85 29 64
        E 0 85 2b 64
        E 0 85 2d 64
        E 0 85 2f 64
        E 0 85 30 64
        E 1 85 32 64
        E 0 85 34 64
        E 0 85 35 64
        E 0 85 37 64
        E 0 85 39 64
        E 0 85 3b 64
        E 0 85 3c 64
        E 2865 80 3b 00
        E 1 80 40 00
        E 0 80 47 00
        E 1 80 4c 00
        E 1 80 53 00
        E 1 81 41 00
        E 0 81 48 00
        E 0 81 4d 00
        E 1 81 54 00
        E 1 90 3d 67
        E 0 90 3f 67
        E 1 90 42 67
        E 1 90 44 67
        E 0 90 46 67
        E 1 90 49 67
        E 0 90 4b 67
        E 2 90 4e 67
        E 0 90 50 67
        E 1 90 52 67
        E 0 91 3d 65
        E 0 91 3f 65
        E 1 91 42 65
        E 0 91 44 65
        E 1 91 46 65
        E 0 91 49 65
        E 1 91 4b 65
        E 0 91 4e 65
        E 1 91 50 65
        E 1 91 52 65
        E 0 91 55 65
        E 1 92 3c 65
        E 0 92 3e 65
        E 1 92 40 65
        E 1 92 41 65
        E 0 92 43 65
        E 1 92 45 65
        E 0 92 47 65
        E 1 92 48 65
        E 0 92 4a 65
        E 1 92 4c 65
        E 1 92 4d 65
        E 0 92 4f 65
        E 0 92 51 65
        E 1 92 53 65
        E 0 92 54 65
        E 1 93 3b 66
        E 1 93 3d 66
        E 0 93 3f 66
        E 1 93 40 66
        E 0 93 42 66
        E 0 93 44 66
        E 0 93 46 66
        E 1 93 47 66
        E 0 93 49 66
        E 1 93 4b 66
        E 0 93 4c 66
        E 0 93 4e 66
        E 1 93 50 66
        E 0 93 52 66
        E 0 93 53 66
        E 1 94 3d 64
        E 0 94 3f 64
        E 0 94 41 63
        E 0 94 42 64
        E 1 94 44 64
        E 0 94 46 64
        E 1 94 48 63
        E 0 94 49 64
        E 0 94 4b 64
        E 1 94 4d 63
        E 0 94 4e 64
        E 0 94 50 64
        E 1 94 52 64
        E 0 94 54 63
        E 0 94 55 64
        E 1 95 3c 64
        E 0 95 3e 64
        E 0 95 40 64
        E 1 95 41 64
        E 0 95 43 64
        E 0 95 45 64
        E 1 95 47 64
        E 0 95 48 64
        E 0 95 4a 64
        E 0 95 4c 64
        E 0 95 4d 64
        E 1 95 4f 64
        E 0 95 51 64
        E 0 95 53 64
        E 0 95 54 64
        E 922 80 3b 00
        E 1 80 3d 67
        E 0 80 3f 67
        E 0 80 40 00
        E 1 80 42 67
        E 0 80 44 67
        E 0 80 46 67
        E 1 80 47 00
        E 0 80 49 67
        E 1 80 4b 67
        E 0 80 4c 00
        E 0 80 4e 67
        E 0 80 50 67
        E 0 80 52 67
        E 1 80 53 00
        E 0 81 3d 65
        E 0 81 3f 65
        E 0 81 41 00
        E 0 81 42 65
        E 0 81 44 65
        E 0 81 46 65
        E 0 81 48 00
        E 0 81 49 65
        E 0 81 4b 65
        E 0 81 4d 00
        E 0 81 4e 65
        E 0 81 50 65
        E 0 81 52 65
        E 0 81 54 00
        E 1 81 55 65
        E 0 82 3c 65
        E 0 82 3e 65
        E 0 82 40 65
        E 0 82 41 65
        E 0 82 43 65
        E 0 82 45 65
        E 0 82 47 65
        E 0 82 48 65
        E 0 82 4a 65
        E 0 82 4c 65
        E 0 82 4d 65
        E 0 82 4f 65
        E 0 82 51 65
        E 0 82 53 65
        E 0 82 54 65
        E 0 83 3b 66
        E 0 83 3d 66
        E 1 83 3f 66
        E 0 83 40 66
        E 0 83 42 66
        E 0 83 44 66
        E 0 83 46 66
        E 0 83 47 66
        E 0 83 49 66
        E 0 83 4b 66
        E 0 83 4c 66
        E 0 83 4e 66
        E 0 83 50 66
        E 0 83 52 66
        E 0 83 53 66
        E 0 84 3d 64
        E 0 84 3f 64
        E 0 84 41 63
        E 0 84 42 64
        E 0 84 44 64
        E 1 84 46 64
        E 0 84 48 63
        E 0 84 49 64
        E 0 84 4b 64
        E 0 84 4d 63
        E 0 84 4e 64
        E 0 84 50 64
        E 0 84 52 64
        E 0 84 54 63
        E 0 84 55 64
        E 0 85 3c 64
        E 0 85 3e 64
        E 0 85 40 64
        E 0 85 41 64
        E 0 85 43 64
        E 0 85 45 64
        E 0 85 47 64
        E 0 85 48 64
        E 1 85 4a 64
        E 0 85 4c 64
        E 0 85 4d 64
        E 0 85 4f 64
        E 0 85 51 64
        E 0 85 53 64
        E 0 85 54 64
        E 2870 93 23 66
        E 1 93 25 66
        E 0 93 27 66
        E 1 93 28 66
        E 0 93 2a 66
        E 1 93 2c 66
        E 0 93 2e 66
        E 1 93 2f 66
        E 0 93 31 66
        E 0 93 33 66
        E 1 93 34 66
        E 1 93 36 66
        E 1 93 38 66
        E 0 93 3a 66
        E 1 93 3b 66
        E 1 94 25 64
        E 1 94 27 64
        E 0 94 29 63
        E 1 94 2a 64
        E 1 94 2c 64
        E 1 94 2e 64
        E 1 94 30 63
        E 1 94 31 64
        E 0 94 33 64
        E 1 94 35 63
        E 0 94 36 64
        E 0 94 38 64
        E 1 94 3a 64
        E 0 94 3c 63
        E 1 94 3d 64
        E 0 95 24 64
        E 0 95 26 64
        E 1 95 28 64
        E 0 95 29 64
        E 1 95 2b 64
        E 0 95 2d 64
        E 0 95 2f 64
        E 1 95 30 64
        E 0 95 32 64
        E 0 95 34 64
        E 1 95 35 64
        E 0 95 37 64
        E 0 95 39 64
        E 1 95 3b 64
        E 0 95 3c 64
        E 939 83 23 66
        E 0 83 25 66
        E 1 83 27 66
        E 0 83 28 66
        E 1 83 2a 66
        E 0 83 2c 66
        E 1 83 2e 66
        E 0 83 2f 66
        E 1 83 31 66
        E 0 83 33 66
        E 1 83 34 66
        E 1 83 36 66
        E 0 83 38 66
        E 1 83 3a 66
        E 1 83 3b 66
        E 1 84 25 64
        E 1 84 27 64
        E 1 84 29 63
        E 0 84 2a 64
        E 1 84 2c 64
        E 1 84 2e 64
        E 0 84 30 63
        E 1 84 31 64
        E 1 84 33 64
        E 0 84 35 63
        E 0 84 36 64
        E 1 84 38 64
        E 0 84 3a 64
        E 0 84 3c 63
        E 1 84 3d 64
        E 0 85 24 64
        E 0 85 26 64
        E 1 85 28 64
        E 0 85 29 64
        E 0 85 2b 64
        E 1 85 2d 64
        E 0 85 2f 64
        E 0 85 30 64
        E 1 85 32 64
        E 0 85 34 64
        E 0 85 35 64
        E 1 85 37 64
        E 0 85 39 64
        E 0 85 3b 64
        E 1 85 3c 64
        E 2855 80 23 00
        E 1 80 28 00
        E 0 80 2f 00
        E 1 80 34 00
        E 0 80 3b 00
        E 1 81 29 00
        E 1 81 30 00
        E 0 81 35 00
        E 1 81 3c 00
        E 0 90 25 67
        E 1 90 27 67
        E 1 90 2a 67
        E 0 90 2c 67
        E 1 90 2e 67
        E 1 90 31 67
        E 1 90 33 67
        E 0 90 36 67
        E 1 90 38 67
        E 0 90 3a 67
        E 1 91 25 65
        E 1 91 27 65
        E 0 91 2a 65
        E 1 91 2c 65
        E 1 91 2e 65
        E 1 91 31 65
        E 0 91 33 65
        E 1 91 36 65
        E 1 91 38 65
        E 0 91 3a 65
        E 0 91 3d 65
        E 1 92 24 65
        E 0 92 26 65
        E 0 92 28 65
        E 1 92 29 65
        E 0 92 2b 65
        E 1 92 2d 65
        E 0 92 2f 65
        E 1 92 30 65
        E 0 92 32 65
        E 0 92 34 65
        E 1 92 35 65
        E 0 92 37 65
        E 0 92 39 65
        E 1 92 3b 65
        E 0 92 3c 65
        E 937 80 23 00
        E 0 80 25 67
        E 1 80 27 67
        E 0 80 28 00
        E 1 80 2a 67
        E 0 80 2c 67
        E 1 80 2e 67
        E 1 80 2f 00
        E 0 80 31 67
        E 1 80 33 67
        E 0 80 34 00
        E 1 80 36 67
        E 0 80 38 67
        E 1 80 3a 67
        E 0 80 3b 00
        E 1 81 25 65
        E 0 81 27 65
        E 0 81 29 00
        E 1 81 2a 65
        E 0 81 2c 65
        E 0 81 2e 65
        E 0 81 30 00
        E 0 81 31 65
        E 1 81 33 65
        E 0 81 35 00
        E 0 81 36 65
        E 0 81 38 65
        E 0 81 3a 65
        E 0 81 3c 00
        E 0 81 3d 65
        E 0 82 24 65
        E 0 82 26 65
        E 0 82 28 65
        E 0 82 29 65
        E 0 82 2b 65
        E 0 82 2d 65
        E 0 82 2f 65
        E 1 82 30 65
        E 0 82 32 65
        E 0 82 34 65
        E 0 82 35 65
        E 0 82 37 65
        E 0 82 39 65
        E 0 82 3b 65
        E 0 82 3c 65
        E 2870 93 3b 66
        E 0 93 3d 66
        E 1 93 3f 66
        E 0 93 40 66
        E 1 93 42 66
        E 0 93 44 66
        E 1 93 46 66
        E 1 93 47 66
        E 0 93 49 66
        E 1 93 4b 66
        E 1 93 4c 66
        E 0 93 4e 66
        E 1 93 50 66
        E 0 93 52 66
        E 0 93 53 66
        E 1 94 3d 64
        E 0 94 3f 64
        E 0 94 41 63
        E 1 94 42 64
        E 0 94 44 64
        E 0 94 46 64
        E 1 94 48 63
        E 0 94 49 64
        E 0 94 4b 64
        E 0 94 4d 63
        E 0 94 4e 64
        E 0 94 50 64
        E 1 94 52 64
        E 0 94 54 63
        E 0 94 55 64
        E 0 95 3c 64
        E 0 95 3e 64
        E 0 95 40 64
        E 0 95 41 64
        E 0 95 43 64
        E 0 95 45 64
        E 0 95 47 64
        E 0 95 48 64
        E 0 95 4a 64
        E 1 95 4c 64
        E 0 95 4d 64
        E 0 95 4f 64
        E 0 95 51 64
        E 0 95 53 64
        E 0 95 54 64
        E 946 83 3b 66
        E 0 83 3d 66
        E 0 83 3f 66
        E 1 83 40 66
        E 0 83 42 66
        E 1 83 44 66
        E 1 83 46 66
        E 0 83 47 66
        E 1 83 49 66
        E 1 83 4b 66
        E 0 83 4c 66
        E 1 83 4e 66
        E 1 83 50 66
        E 0 83 52 66
        E 1 83 53 66
        E 1 84 3d 64
        E 0 84 3f 64
        E 1 84 41 63
        E 0 84 42 64
        E 1 84 44 64
        E 0 84 46 64
        E 1 84 48 63
        E 0 84 49 64
        E 1 84 4b 64
        E 1 84 4d 63
        E 0 84 4e 64
        E 1 84 50 64
        E 0 84 52 64
        E 1 84 54 63
        E 0 84 55 64
        E 0 85 3c 64
        E 1 85 3e 64
        E 0 85 40 64
        E 1 85 41 64
        E 0 85 43 64
        E 1 85 45 64
        E 0 85 47 64
        E 0 85 48 64
        E 1 85 4a 64
        E 0 85 4c 64
        E 0 85 4d 64
        E 1 85 4f 64
        E 0 85 51 64
        E 0 85 53 64
        E 1 85 54 64
        E 152 b0 7b 00
        CCINTERP 32
        CHASE_CC_TAKEOFFS 1
        GUID {7400C127-0E0E-49F5-9B74-60AF09264762}
        IGNTEMPO 0 120 4 4
        SRCCOLOR 92
        VELLANE -1 100 0
      >
    >
  >
  <TRACK {359CD9ED-8721-4B87-AE68-8A6EED9A4066}
    NAME ""
    PEAKCOL 16576
    BEAT -1
    AUTOMODE 0
    VOLPAN 1 0 -1 -1 1
    MUTESOLO 1 0 0
    IPHASE 0
    PLAYOFFS 0 1
    ISBUS 0 0
    BUSCOMP 0 0 0 0 0
    SHOWINMIX 1 0.6667 0.5 1 0.5 0 -1 0
    FREEMODE 0
    SEL 0
    REC 0 0 1 0 0 0 0
    VU 2
    TRACKHEIGHT 0 0 0 0 0 0
    INQ 0 0 0 0.5 100 0 0 100
    NCHAN 2
    FX 1
    TRACKID {359CD9ED-8721-4B87-AE68-8A6EED9A4066}
    PERF 0
    MIDIOUT -1
    MAINSEND 1 0
    <ITEM
      POSITION 6.700548096
      SNAPOFFS 0
      LENGTH 41.17074739200048
      LOOP 1
      ALLTAKES 0
      FADEIN 1 0 0 1 0 0 0
      FADEOUT 1 0 0 1 0 0 0
      MUTE 0 0
      SEL 0
      IGUID {FC76C017-AEA3-4A62-A988-4340C86A774E}
      IID 11
      NAME "02-Recorded MIDI"
      VOLPAN 1 0 1 -1
      SOFFS 6.700548096 13.401096192
      PLAYRATE 1 1 0 -1 0 0.0025
      CHANMODE 0
      GUID {E0F579E1-398A-49FB-84C8-C207A25B7A15}
      RECPASS 4
      <SOURCE MIDI
        HASDATA 1 960 QN
        CCINTERP 32
        POOLEDEVTS {DA872022-41A3-4FEC-928C-E16BA795A686}
        E 9135 c9 00 00
        E 1 c0 01 00
        E 1 c0 01 00
        E 1570 c9 00 00
        E 1 c0 01 00
        E 0 c0 01 00
        E 1470 b0 7b 00
        E 1 b1 7b 00
        E 1 b2 7b 00
        E 1 b3 7b 00
        E 1 b4 7b 00
        E 0 b5 7b 00
        E 1 b6 7b 00
        E 1 b7 7b 00
        E 0 b8 7b 00
        E 1 b9 7b 00
        E 1 ba 7b 00
        E 1 bb 7b 00
        E 0 bc 7b 00
        E 1 bd 7b 00
        E 1 be 7b 00
        E 1 bf 7b 00
        E 1 c9 00 00
        E 1 c0 01 00
        E 1 b0 07 64
        E 1 b0 0a 40
        E 1 b0 5b 3b
        E 1 b0 5d 00
        E 1177 c0 01 00
        E 1 c0 01 00
        E 1 90 24 64
        E 573 80 24 64
        E 0 90 25 64
        E 576 80 25 64
        E 0 90 25 66
        E 577 80 25 66
        E 0 90 28 64
        E 578 80 28 64
        E 0 90 29 63
        E 573 80 29 63
        E 1 90 29 64
        E 573 80 29 64
        E 1 90 29 65
        E 576 80 29 65
        E 0 90 2a 64
        E 578 80 2a 64
        E 0 90 2a 65
        E 575 80 2a 65
        E 1 90 2a 66
        E 576 80 2a 66
        E 1 90 2a 67
        E 573 80 2a 67
        E 1 90 2b 64
        E 576 80 2b 64
        E 1 90 2b 65
        E 577 80 2b 65
        E 1 90 2c 64
        E 573 80 2c 64
        E 0 90 2c 65
        E 575 80 2c 65
        E 1 90 2c 66
        E 578 80 2c 66
        E 1 90 2c 67
        E 572 80 2c 67
        E 0 90 2d 64
        E 579 80 2d 64
        E 0 90 2d 65
        E 575 80 2d 65
        E 1 90 2e 64
        E 576 80 2e 64
        E 0 90 2e 65
        E 573 80 2e 65
        E 1 90 2e 66
        E 575 80 2e 66
        E 0 90 2e 67
        E 578 80 2e 67
        E 1 90 2f 64
        E 575 80 2f 64
        E 1 90 2f 65
        E 574 80 2f 65
        E 2 90 30 63
        E 574 80 30 63
        E 0 90 30 64
        E 577 80 30 64
        E 0 90 30 65
        E 575 80 30 65
        E 0 90 31 64
        E 575 80 31 64
        E 1 90 31 65
        E 577 80 31 65
        E 0 90 31 66
        E 575 80 31 66
        E 0 90 31 67
        E 578 80 31 67
        E 1 90 32 64
        E 574 80 32 64
        E 1 90 32 65
        E 574 80 32 65
        E 0 90 33 64
        E 576 80 33 64
        E 1 90 33 65
        E 577 80 33 65
        E 0 90 33 66
        E 573 80 33 66
        E 1 90 33 67
        E 577 80 33 67
        E 0 90 34 64
        E 575 80 34 64
        E 1 90 34 65
        E 574 80 34 65
        E 0 90 35 63
        E 577 80 35 63
        E 1 90 35 64
        E 575 80 35 64
        E 1 90 35 65
        E 576 80 35 65
        E 0 90 36 64
        E 575 80 36 64
        E 0 90 36 65
        E 576 80 36 65
        E 1 90 36 66
        E 575 80 36 66
        E 1 90 36 67
        E 574 80 36 67
        E 1 90 37 64
        E 578 80 37 64
        E 1 90 37 65
        E 573 80 37 65
        E 1 90 38 64
        E 575 80 38 64
        E 1 90 38 65
        E 576 80 38 65
        E 1 90 38 66
        E 573 80 38 66
        E 1 90 38 67
        E 575 80 38 67
        E 0 90 39 64
        E 579 80 39 64
        E 1 90 39 65
        E 573 80 39 65
        E 0 90 3a 64
        E 577 80 3a 64
        E 1 90 3a 65
        E 573 80 3a 65
        E 1 90 3a 66
        E 577 80 3a 66
        E 0 90 3a 67
        E 576 80 3a 67
        E 1 90 3b 64
        E 574 80 3b 64
        E 1 90 3b 65
        E 577 80 3b 65
        E 1 90 3c 63
        E 574 80 3c 63
        E 1 90 3c 64
        E 573 80 3c 64
        E 1 90 3c 65
        E 575 80 3c 65
        E 1 90 3d 64
        E 575 80 3d 64
        E 1 90 3d 65
        E 575 80 3d 65
        E 0 90 3d 66
        E 578 80 3d 66
        E 1 90 3d 67
        E 576 80 3d 67
        E 0 90 3e 64
        E 574 80 3e 64
        E 1 90 3e 65
        E 575 80 3e 65
        E 1 90 3f 64
        E 573 80 3f 64
        E 1 90 3f 65
        E 578 80 3f 65
        E 1 90 3f 66
        E 573 80 3f 66
        E 0 90 3f 67
        E 577 80 3f 67
        E 1 90 40 64
        E 578 80 40 64
        E 0 90 40 65
        E 573 80 40 65
        E 1 90 41 63
        E 575 80 41 63
        E 1 90 41 64
        E 574 80 41 64
        E 0 90 41 65
        E 578 80 41 65
        E 1 90 42 64
        E 576 80 42 64
        E 0 90 42 65
        E 574 80 42 65
        E 0 90 42 66
        E 576 80 42 66
        E 0 90 42 67
        E 575 80 42 67
        E 1 90 43 64
        E 575 80 43 64
        E 0 90 43 65
        E 574 80 43 65
        E 0 90 44 64
        E 581 80 44 64
        E 1 90 44 65
        E 572 80 44 65
        E 1 90 44 66
        E 576 80 44 66
        E 0 90 44 67
        E 577 80 44 67
        E 0 90 45 64
        E 574 80 45 64
        E 1 90 45 65
        E 576 80 45 65
        E 0 90 46 64
        E 577 80 46 64
        E 2 90 46 65
        E 573 80 46 65
        E 1 90 46 66
        E 575 80 46 66
        E 1 90 46 67
        E 574 80 46 67
        E 0 90 47 64
        E 579 80 47 64
        E 0 90 47 65
        E 573 80 47 65
        E 1 90 48 63
        E 575 80 48 63
        E 0 90 48 64
        E 580 80 48 64
        E 1 90 48 65
        E 573 80 48 65
        E 1 90 49 64
        E 574 80 49 64
        E 0 90 49 65
        E 575 80 49 65
        E 1 90 49 66
        E 575 80 49 66
        E 1 90 49 67
        E 576 80 49 67
        E 1 90 4a 64
        E 576 80 4a 64
        E 1 90 4a 65
        E 574 80 4a 65
        E 0 90 4b 64
        E 575 80 4b 64
        E 0 90 4b 65
        E 578 80 4b 65
        E 1 90 4b 66
        E 575 80 4b 66
        E 1 90 4b 67
        E 573 80 4b 67
        E 1 90 4c 64
        E 575 80 4c 64
        E 1 90 4c 65
        E 576 80 4c 65
        E 1 90 4d 63
        E 576 80 4d 63
        E 0 90 4d 64
        E 576 80 4d 64
        E 0 90 4d 65
        E 574 80 4d 65
        E 1 90 4e 64
        E 579 80 4e 64
        E 1 90 4e 65
        E 573 80 4e 65
        E 0 90 4e 66
        E 574 80 4e 66
        E 0 90 4e 67
        E 577 80 4e 67
        E 1 90 4f 64
        E 574 80 4f 64
        E 1 90 4f 65
        E 575 80 4f 65
        E 1 90 50 64
        E 575 80 50 64
        E 1 90 50 65
        E 576 80 50 65
        E 1 90 50 66
        E 576 80 50 66
        E 1 90 50 67
        E 575 80 50 67
        E 1 90 51 64
        E 573 80 51 64
        E 0 90 51 65
        E 577 80 51 65
        E 0 90 52 64
        E 575 80 52 64
        E 0 90 52 65
        E 575 80 52 65
        E 2 90 52 66
        E 577 80 52 66
        E 1 90 52 67
        E 573 80 52 67
        E 0 90 53 64
        E 577 80 53 64
        E 1 90 53 65
        E 575 80 53 65
        E 1 90 54 64
        E 573 80 54 64
        E 1 90 54 65
        E 577 80 54 65
        E 20725 b0 7b 00
        CCINTERP 32
        CHASE_CC_TAKEOFFS 1
        GUID {832DA8E0-5F06-4939-80E7-E3F7234C9827}
        IGNTEMPO 0 120 4 4
        SRCCOLOR 39
        VELLANE -1 100 0
      >
    >
    <ITEM
      POSITION 48.44460441600057
      SNAPOFFS 0
      LENGTH 10.79368507471012
      LOOP 1
      ALLTAKES 0
      FADEIN 1 0 0 1 0 0 0
      FADEOUT 1 0 0 1 0 0 0
      MUTE 0 0
      SEL 0
      IGUID {B5150C54-14A3-47FA-BAE6-E6C85D4D32AD}
      IID 12
      NAME "02-Recorded MIDI"
      VOLPAN 1 0 1 -1
      SOFFS 3.21713800383437 6.43427600766873
      PLAYRATE 1 1 0 -1 0 0.0025
      CHANMODE 0
      GUID {9E33B13C-86B5-4F91-9E6F-B48DAF3B98F0}
      RECPASS 5
      <SOURCE MIDI
        HASDATA 1 960 QN
        CCINTERP 32
        POOLEDEVTS {8FDF8CF8-087E-4C20-91C1-EF78A02D90F1}
        E 4936 c9 00 00
        E 1 c0 01 00
        E 1 c0 01 00
        E 1547 b0 7b 00
        E 0 b1 7b 00
        E 1 b2 7b 00
        E 1 b3 7b 00
        E 1 b4 7b 00
        E 1 b5 7b 00
        E 0 b6 7b 00
        E 1 b7 7b 00
        E 2 b8 7b 00
        E 0 b9 7b 00
        E 1 ba 7b 00
        E 1 bb 7b 00
        E 0 bc 7b 00
        E 1 bd 7b 00
        E 1 be 7b 00
        E 0 bf 7b 00
        E 2 c9 00 00
        E 0 c0 01 00
        E 2 b0 07 64
        E 0 b0 0a 40
        E 1 b0 5b 3b
        E 1 b0 5d 00
        E 315 c0 01 00
        E 0 c0 01 00
        E 0 90 24 64
        E 141 80 24 64
        E 0 90 25 64
        E 147 80 25 64
        E 0 90 25 66
        E 144 80 25 66
        E 0 90 28 64
        E 145 80 28 64
        E 0 90 29 63
        E 142 80 29 63
        E 0 90 29 64
        E 143 80 29 64
        E 0 90 29 65
        E 145 80 29 65
        E 0 90 2a 64
        E 144 80 2a 64
        E 0 90 2a 65
        E 142 80 2a 65
        E 0 90 2a 66
        E 143 80 2a 66
        E 1 90 2a 67
        E 147 80 2a 67
        E 0 90 2b 64
        E 142 80 2b 64
        E 1 90 2b 65
        E 142 80 2b 65
        E 0 90 2c 64
        E 145 80 2c 64
        E 0 90 2c 65
        E 145 80 2c 65
        E 0 90 2c 66
        E 144 80 2c 66
        E 0 90 2c 67
        E 141 80 2c 67
        E 0 90 2d 64
        E 146 80 2d 64
        E 1 90 2d 65
        E 143 80 2d 65
        E 0 90 2e 64
        E 145 80 2e 64
        E 0 90 2e 65
        E 144 80 2e 65
        E 0 90 2e 66
        E 143 80 2e 66
        E 0 90 2e 67
        E 145 80 2e 67
        E 0 90 2f 64
        E 142 80 2f 64
        E 0 90 2f 65
        E 144 80 2f 65
        E 0 90 30 63
        E 145 80 30 63
        E 1 90 30 64
        E 142 80 30 64
        E 0 90 30 65
        E 144 80 30 65
        E 0 90 31 64
        E 146 80 31 64
        E 0 90 31 65
        E 142 80 31 65
        E 0 90 31 66
        E 146 80 31 66
        E 0 90 31 67
        E 142 80 31 67
        E 1 90 32 64
        E 141 80 32 64
        E 0 90 32 65
        E 145 80 32 65
        E 1 90 33 64
        E 144 80 33 64
        E 0 90 33 65
        E 147 80 33 65
        E 1 90 33 66
        E 140 80 33 66
        E 0 90 33 67
        E 144 80 33 67
        E 0 90 34 64
        E 145 80 34 64
        E 0 90 34 65
        E 144 80 34 65
        E 0 90 35 63
        E 146 80 35 63
        E 0 90 35 64
        E 142 80 35 64
        E 0 90 35 65
        E 143 80 35 65
        E 0 90 36 64
        E 146 80 36 64
        E 1 90 36 65
        E 142 80 36 65
        E 1 90 36 66
        E 143 80 36 66
        E 1 90 36 67
        E 143 80 36 67
        E 0 90 37 64
        E 146 80 37 64
        E 1 90 37 65
        E 141 80 37 65
        E 1 90 38 64
        E 143 80 38 64
        E 1 90 38 65
        E 141 80 38 65
        E 0 90 38 66
        E 147 80 38 66
        E 0 90 38 67
        E 143 80 38 67
        E 1 90 39 64
        E 143 80 39 64
        E 0 90 39 65
        E 141 80 39 65
        E 0 90 3a 64
        E 145 80 3a 64
        E 0 90 3a 65
        E 145 80 3a 65
        E 1 90 3a 66
        E 145 80 3a 66
        E 0 90 3a 67
        E 143 80 3a 67
        E 0 90 3b 64
        E 145 80 3b 64
        E 1 90 3b 65
        E 139 80 3b 65
        E 0 90 3c 63
        E 147 80 3c 63
        E 0 90 3c 64
        E 145 80 3c 64
        E 0 90 3c 65
        E 144 80 3c 65
        E 0 90 3d 64
        E 141 80 3d 64
        E 0 90 3d 65
        E 147 80 3d 65
        E 0 90 3d 66
        E 144 80 3d 66
        E 0 90 3d 67
        E 143 80 3d 67
        E 0 90 3e 64
        E 144 80 3e 64
        E 0 90 3e 65
        E 143 80 3e 65
        E 0 90 3f 64
        E 144 80 3f 64
        E 1 90 3f 65
        E 145 80 3f 65
        E 0 90 3f 66
        E 143 80 3f 66
        E 0 90 3f 67
        E 144 80 3f 67
        E 0 90 40 64
        E 144 80 40 64
        E 0 90 40 65
        E 144 80 40 65
        E 0 90 41 63
        E 145 80 41 63
        E 1 90 41 64
        E 140 80 41 64
        E 0 90 41 65
        E 146 80 41 65
        E 0 90 42 64
        E 145 80 42 64
        E 0 90 42 65
        E 143 80 42 65
        E 0 90 42 66
        E 144 80 42 66
        E 0 90 42 67
        E 145 80 42 67
        E 0 90 43 64
        E 143 80 43 64
        E 0 90 43 65
        E 143 80 43 65
        E 0 90 44 64
        E 144 80 44 64
        E 0 90 44 65
        E 145 80 44 65
        E 0 90 44 66
        E 145 80 44 66
        E 0 90 44 67
        E 143 80 44 67
        E 0 90 45 64
        E 146 80 45 64
        E 0 90 45 65
        E 144 80 45 65
        E 0 90 46 64
        E 142 80 46 64
        E 0 90 46 65
        E 142 80 46 65
        E 1 90 46 66
        E 145 80 46 66
        E 0 90 46 67
        E 144 80 46 67
        E 0 90 47 64
        E 144 80 47 64
        E 0 90 47 65
        E 144 80 47 65
        E 0 90 48 63
        E 144 80 48 63
        E 0 90 48 64
        E 144 80 48 64
        E 1 90 48 65
        E 144 80 48 65
        E 0 90 49 64
        E 144 80 49 64
        E 0 90 49 65
        E 142 80 49 65
        E 0 90 49 66
        E 143 80 49 66
        E 0 90 49 67
        E 148 80 49 67
        E 0 90 4a 64
        E 141 80 4a 64
        E 1 90 4a 65
        E 143 80 4a 65
        E 0 90 4b 64
        E 146 80 4b 64
        E 0 90 4b 65
        E 142 80 4b 65
        E 0 90 4b 66
        E 145 80 4b 66
        E 0 90 4b 67
        E 143 80 4b 67
        E 0 90 4c 64
        E 145 80 4c 64
        E 0 90 4c 65
        E 143 80 4c 65
        E 0 90 4d 63
        E 145 80 4d 63
        E 0 90 4d 64
        E 145 80 4d 64
        E 0 90 4d 65
        E 142 80 4d 65
        E 0 90 4e 64
        E 145 80 4e 64
        E 0 90 4e 65
        E 145 80 4e 65
        E 1 90 4e 66
        E 143 80 4e 66
        E 0 90 4e 67
        E 144 80 4e 67
        E 0 90 4f 64
        E 142 80 4f 64
        E 0 90 4f 65
        E 147 80 4f 65
        E 0 90 50 64
        E 143 80 50 64
        E 0 90 50 65
        E 145 80 50 65
        E 1 90 50 66
        E 139 80 50 66
        E 0 90 50 67
        E 148 80 50 67
        E 0 90 51 64
        E 143 80 51 64
        E 0 90 51 65
        E 142 80 51 65
        E 1 90 52 64
        E 144 80 52 64
        E 1 90 52 65
        E 142 80 52 65
        E 0 90 52 66
        E 144 80 52 66
        E 1 90 52 67
        E 145 80 52 67
        E 0 90 53 64
        E 143 80 53 64
        E 1 90 53 65
        E 144 80 53 65
        E 0 90 54 64
        E 143 80 54 64
        E 0 90 54 65
        E 145 80 54 65
        E 3722 b0 7b 00
        E 0 b1 7b 00
        E 1 b2 7b 00
        E 1 b3 7b 00
        E 1 b4 7b 00
        E 0 b5 7b 00
        E 1 b6 7b 00
        E 0 b7 7b 00
        E 1 b8 7b 00
        E 1 b9 7b 00
        E 1 ba 7b 00
        E 0 bb 7b 00
        E 1 bc 7b 00
        E 1 bd 7b 00
        E 1 be 7b 00
        E 0 bf 7b 00
        E 1 89 4c 00
        E 1 b0 79 00
        E 0 b1 79 00
        E 1 b2 79 00
        E 0 b3 79 00
        E 1 b4 79 00
        E 0 b5 79 00
        E 1 b6 79 00
        E 1 b7 79 00
        E 0 b8 79 00
        E 0 b9 79 00
        E 1 ba 79 00
        E 1 bb 79 00
        E 1 bc 79 00
        E 0 bd 79 00
        E 1 be 79 00
        E 0 bf 79 00
        E 6559 b0 7b 00
        CCINTERP 32
        CHASE_CC_TAKEOFFS 1
        GUID {E50860C9-7C67-4348-BC7F-0666AF9A49B1}
        IGNTEMPO 0 120 4 4
        SRCCOLOR 42
        VELLANE -1 100 0
      >
    >
    <ITEM
      POSITION 59.44496947200069
      SNAPOFFS 0
      LENGTH 5.54958336388383
      LOOP 1
      ALLTAKES 0
      FADEIN 1 0 0 1 0 0 0
      FADEOUT 1 0 0 1 0 0 0
      MUTE 0 0
      SEL 0
      IGUID {E03B86D9-745F-4B70-8D33-0D80DC20187D}
      IID 13
      NAME "02-Recorded MIDI"
      VOLPAN 1 0 1 -1
      SOFFS 10.48799309138489 20.97598618276977
      PLAYRATE 1 1 0 -1 0 0.0025
      CHANMODE 0
      GUID {9868E3F2-82B8-45CF-9AC5-FED1232BE635}
      RECPASS 6
      <SOURCE MIDI
        HASDATA 1 960 QN
        CCINTERP 32
        POOLEDEVTS {0AFA4C83-09BB-4F41-8C3F-6AEF2570D124}
        E 19111 c9 00 00
        E 0 c0 01 00
        E 0 c0 01 00
        E 1944 b0 7b 00
        E 1 b1 7b 00
        E 1 b2 7b 00
        E 0 b3 7b 00
        E 1 b4 7b 00
        E 1 b5 7b 00
        E 0 b6 7b 00
        E 1 b7 7b 00
        E 1 b8 7b 00
        E 0 b9 7b 00
        E 1 ba 7b 00
        E 0 bb 7b 00
        E 1 bc 7b 00
        E 1 bd 7b 00
        E 0 be 7b 00
        E 1 bf 7b 00
        E 1 c9 00 00
        E 0 c0 01 00
        E 1 b0 07 64
        E 1 b0 0a 40
        E 1 b0 5b 3b
        E 3 b0 5d 00
        E 148 c0 01 00
        E 0 c0 01 00
        E 1 90 24 64
        E 61 80 24 64
        E 0 90 25 64
        E 62 80 25 64
        E 0 90 25 66
        E 66 80 25 66
        E 1 90 28 64
        E 62 80 28 64
        E 0 90 29 63
        E 66 80 29 63
        E 0 90 29 64
        E 63 80 29 64
        E 1 90 29 65
        E 62 80 29 65
        E 1 90 2a 64
        E 64 80 2a 64
        E 0 90 2a 65
        E 66 80 2a 65
        E 1 90 2a 66
        E 59 80 2a 66
        E 0 90 2a 67
        E 66 80 2a 67
        E 0 90 2b 64
        E 66 80 2b 64
        E 0 90 2b 65
        E 60 80 2b 65
        E 0 90 2c 64
        E 65 80 2c 64
        E 0 90 2c 65
        E 67 80 2c 65
        E 1 90 2c 66
        E 62 80 2c 66
        E 0 90 2c 67
        E 62 80 2c 67
        E 1 90 2d 64
        E 64 80 2d 64
        E 0 90 2d 65
        E 64 80 2d 65
        E 0 90 2e 64
        E 63 80 2e 64
        E 0 90 2e 65
        E 65 80 2e 65
        E 0 90 2e 66
        E 64 80 2e 66
        E 0 90 2e 67
        E 63 80 2e 67
        E 0 90 2f 64
        E 63 80 2f 64
        E 0 90 2f 65
        E 67 80 2f 65
        E 0 90 30 63
        E 63 80 30 63
        E 0 90 30 64
        E 62 80 30 64
        E 0 90 30 65
        E 68 80 30 65
        E 0 90 31 64
        E 59 80 31 64
        E 0 90 31 65
        E 67 80 31 65
        E 0 90 31 66
        E 64 80 31 66
        E 1 90 31 67
        E 62 80 31 67
        E 0 90 32 64
        E 64 80 32 64
        E 1 90 32 65
        E 65 80 32 65
        E 0 90 33 64
        E 62 80 33 64
        E 1 90 33 65
        E 63 80 33 65
        E 1 90 33 66
        E 64 80 33 66
        E 0 90 33 67
        E 63 80 33 67
        E 0 90 34 64
        E 63 80 34 64
        E 1 90 34 65
        E 65 80 34 65
        E 0 90 35 63
        E 63 80 35 63
        E 0 90 35 64
        E 64 80 35 64
        E 0 90 35 65
        E 65 80 35 65
        E 0 90 36 64
        E 67 80 36 64
        E 0 90 36 65
        E 58 80 36 65
        E 0 90 36 66
        E 67 80 36 66
        E 0 90 36 67
        E 64 80 36 67
        E 0 90 37 64
        E 61 80 37 64
        E 0 90 37 65
        E 68 80 37 65
        E 0 90 38 64
        E 64 80 38 64
        E 0 90 38 65
        E 60 80 38 65
        E 0 90 38 66
        E 68 80 38 66
        E 0 90 38 67
        E 63 80 38 67
        E 0 90 39 64
        E 63 80 39 64
        E 0 90 39 65
        E 65 80 39 65
        E 1 90 3a 64
        E 64 80 3a 64
        E 0 90 3a 65
        E 63 80 3a 65
        E 0 90 3a 66
        E 63 80 3a 66
        E 1 90 3a 67
        E 64 80 3a 67
        E 0 90 3b 64
        E 62 80 3b 64
        E 0 90 3b 65
        E 67 80 3b 65
        E 0 90 3c 63
        E 61 80 3c 63
        E 0 90 3c 64
        E 65 80 3c 64
        E 0 90 3c 65
        E 66 80 3c 65
        E 0 90 3d 64
        E 66 80 3d 64
        E 0 90 3d 65
        E 60 80 3d 65
        E 0 90 3d 66
        E 65 80 3d 66
        E 0 90 3d 67
        E 64 80 3d 67
        E 1 90 3e 64
        E 63 80 3e 64
        E 1 90 3e 65
        E 61 80 3e 65
        E 0 90 3f 64
        E 66 80 3f 64
        E 0 90 3f 65
        E 63 80 3f 65
        E 1 90 3f 66
        E 62 80 3f 66
        E 1 90 3f 67
        E 64 80 3f 67
        E 0 90 40 64
        E 65 80 40 64
        E 0 90 40 65
        E 63 80 40 65
        E 0 90 41 63
        E 64 80 41 63
        E 0 90 41 64
        E 65 80 41 64
        E 0 90 41 65
        E 66 80 41 65
        E 0 90 42 64
        E 62 80 42 64
        E 0 90 42 65
        E 64 80 42 65
        E 0 90 42 66
        E 67 80 42 66
        E 0 90 42 67
        E 61 80 42 67
        E 0 90 43 64
        E 65 80 43 64
        E 0 90 43 65
        E 66 80 43 65
        E 0 90 44 64
        E 61 80 44 64
        E 1 90 44 65
        E 61 80 44 65
        E 0 90 44 66
        E 66 80 44 66
        E 0 90 44 67
        E 61 80 44 67
        E 0 90 45 64
        E 68 80 45 64
        E 0 90 45 65
        E 63 80 45 65
        E 0 90 46 64
        E 63 80 46 64
        E 0 90 46 65
        E 62 80 46 65
        E 0 90 46 66
        E 67 80 46 66
        E 1 90 46 67
        E 63 80 46 67
        E 1 90 47 64
        E 60 80 47 64
        E 0 90 47 65
        E 69 80 47 65
        E 0 90 48 63
        E 61 80 48 63
        E 0 90 48 64
        E 63 80 48 64
        E 0 90 48 65
        E 70 80 48 65
        E 0 90 49 64
        E 60 80 49 64
        E 0 90 49 65
        E 61 80 49 65
        E 0 90 49 66
        E 67 80 49 66
        E 0 90 49 67
        E 64 80 49 67
        E 0 90 4a 64
        E 61 80 4a 64
        E 0 90 4a 65
        E 69 80 4a 65
        E 0 90 4b 64
        E 61 80 4b 64
        E 0 90 4b 65
        E 63 80 4b 65
        E 0 90 4b 66
        E 68 80 4b 66
        E 1 90 4b 67
        E 62 80 4b 67
        E 0 90 4c 64
        E 61 80 4c 64
        E 0 90 4c 65
        E 67 80 4c 65
        E 1 90 4d 63
        E 62 80 4d 63
        E 0 90 4d 64
        E 63 80 4d 64
        E 0 90 4d 65
        E 65 80 4d 65
        E 1 90 4e 64
        E 62 80 4e 64
        E 0 90 4e 65
        E 63 80 4e 65
        E 1 90 4e 66
        E 63 80 4e 66
        E 0 90 4e 67
        E 66 80 4e 67
        E 0 90 4f 64
        E 64 80 4f 64
        E 0 90 4f 65
        E 63 80 4f 65
        E 0 90 50 64
        E 64 80 50 64
        E 1 90 50 65
        E 64 80 50 65
        E 0 90 50 66
        E 63 80 50 66
        E 0 90 50 67
        E 64 80 50 67
        E 0 90 51 64
        E 63 80 51 64
        E 0 90 51 65
        E 65 80 51 65
        E 0 90 52 64
        E 65 80 52 64
        E 0 90 52 65
        E 65 80 52 65
        E 0 90 52 66
        E 61 80 52 66
        E 0 90 52 67
        E 64 80 52 67
        E 0 90 53 64
        E 65 80 53 64
        E 0 90 53 65
        E 65 80 53 65
        E 0 90 54 64
        E 64 80 54 64
        E 0 90 54 65
        E 63 80 54 65
        E 3895 b0 7b 00
        E 0 b1 7b 00
        E 1 b2 7b 00
        E 0 b3 7b 00
        E 1 b4 7b 00
        E 0 b5 7b 00
        E 1 b6 7b 00
        E 0 b7 7b 00
        E 1 b8 7b 00
        E 0 b9 7b 00
        E 1 ba 7b 00
        E 1 bb 7b 00
        E 0 bc 7b 00
        E 1 bd 7b 00
        E 0 be 7b 00
        E 1 89 4d 00
        E 0 bf 7b 00
        E 0 b0 79 00
        E 1 b1 79 00
        E 1 b2 79 00
        E 0 b3 79 00
        E 0 b4 79 00
        E 1 b5 79 00
        E 1 b6 79 00
        E 0 b7 79 00
        E 0 b8 79 00
        E 1 b9 79 00
        E 0 ba 79 00
        E 1 bb 79 00
        E 0 bc 79 00
        E 0 bd 79 00
        E 1 be 79 00
        E 0 bf 79 00
        E 6446 b0 7b 00
        CCINTERP 32
        CHASE_CC_TAKEOFFS 1
        GUID {850DB108-0A13-4205-BCD0-EDF88C3A5B5E}
        IGNTEMPO 0 120 4 4
        SRCCOLOR 45
        VELLANE -1 100 0
      >
    >
    <ITEM
      POSITION 65.64387225600076
      SNAPOFFS 0
      LENGTH 3.5831808
      LOOP 1
      ALLTAKES 0
      FADEIN 1 0 0 1 0 0 0
      FADEOUT 1 0 0 1 0 0 0
      MUTE 0 0
      SEL 0
      IGUID {0BDA45C3-5F40-4A21-B9AD-FA25422812C9}
      IID 14
      NAME "02-Recorded MIDI"
      VOLPAN 1 0 1 -1
      SOFFS 10.34391977737973 20.68783955475946
      PLAYRATE 1 1 0 -1 0 0.0025
      CHANMODE 0
      GUID {3D885E10-70FD-42EC-B00F-3738ACCE13DB}
      RECPASS 7
      <SOURCE MIDI
        HASDATA 1 960 QN
        CCINTERP 32
        POOLEDEVTS {DD4614A1-1FA1-44A0-8E5F-13DB9C1FCC08}
        E 17732 c9 00 00
        E 0 c0 01 00
        E 1 c0 01 00
        E 2883 b0 7b 00
        E 1 b1 7b 00
        E 0 b2 7b 00
        E 1 b3 7b 00
        E 1 b4 7b 00
        E 1 b5 7b 00
        E 0 b6 7b 00
        E 1 b7 7b 00
        E 1 b8 7b 00
        E 0 b9 7b 00
        E 1 ba 7b 00
        E 0 bb 7b 00
        E 1 bc 7b 00
        E 1 bd 7b 00
        E 1 be 7b 00
        E 0 bf 7b 00
        E 1 c9 00 00
        E 1 c0 01 00
        E 1 b0 07 64
        E 0 b0 0a 40
        E 1 b0 5b 3b
        E 1 b0 5d 00
        E 103 c0 01 00
        E 0 c0 01 00
        E 0 90 24 64
        E 39 80 24 64
        E 0 90 25 64
        E 37 80 25 64
        E 0 90 25 66
        E 40 80 25 66
        E 0 90 28 64
        E 38 80 28 64
        E 0 90 29 63
        E 37 80 29 63
        E 0 90 29 64
        E 39 80 29 64
        E 1 90 29 65
        E 40 80 29 65
        E 0 90 2a 64
        E 37 80 2a 64
        E 0 90 2a 65
        E 38 80 2a 65
        E 0 90 2a 66
        E 37 80 2a 66
        E 1 90 2a 67
        E 40 80 2a 67
        E 0 90 2b 64
        E 36 80 2b 64
        E 0 90 2b 65
        E 40 80 2b 65
        E 0 90 2c 64
        E 38 80 2c 64
        E 0 90 2c 65
        E 38 80 2c 65
        E 0 90 2c 66
        E 37 80 2c 66
        E 0 90 2c 67
        E 38 80 2c 67
        E 0 90 2d 64
        E 42 80 2d 64
        E 0 90 2d 65
        E 36 80 2d 65
        E 0 90 2e 64
        E 38 80 2e 64
        E 1 90 2e 65
        E 37 80 2e 65
        E 1 90 2e 66
        E 39 80 2e 66
        E 1 90 2e 67
        E 36 80 2e 67
        E 1 90 2f 64
        E 38 80 2f 64
        E 0 90 2f 65
        E 41 80 2f 65
        E 0 90 30 63
        E 36 80 30 63
        E 0 90 30 64
        E 38 80 30 64
        E 0 90 30 65
        E 39 80 30 65
        E 0 90 31 64
        E 40 80 31 64
        E 0 90 31 65
        E 38 80 31 65
        E 0 90 31 66
        E 37 80 31 66
        E 0 90 31 67
        E 38 80 31 67
        E 0 90 32 64
        E 40 80 32 64
        E 0 90 32 65
        E 36 80 32 65
        E 0 90 33 64
        E 42 80 33 64
        E 0 90 33 65
        E 36 80 33 65
        E 0 90 33 66
        E 38 80 33 66
        E 0 90 33 67
        E 41 80 33 67
        E 0 90 34 64
        E 37 80 34 64
        E 0 90 34 65
        E 38 80 34 65
        E 0 90 35 63
        E 40 80 35 63
        E 0 90 35 64
        E 36 80 35 64
        E 0 90 35 65
        E 39 80 35 65
        E 0 90 36 64
        E 37 80 36 64
        E 0 90 36 65
        E 38 80 36 65
        E 1 90 36 66
        E 41 80 36 66
        E 0 90 36 67
        E 36 80 36 67
        E 1 90 37 64
        E 37 80 37 64
        E 0 90 37 65
        E 40 80 37 65
        E 0 90 38 64
        E 41 80 38 64
        E 0 90 38 65
        E 35 80 38 65
        E 0 90 38 66
        E 39 80 38 66
        E 0 90 38 67
        E 36 80 38 67
        E 0 90 39 64
        E 40 80 39 64
        E 0 90 39 65
        E 38 80 39 65
        E 0 90 3a 64
        E 39 80 3a 64
        E 0 90 3a 65
        E 37 80 3a 65
        E 1 90 3a 66
        E 40 80 3a 66
        E 1 90 3a 67
        E 37 80 3a 67
        E 0 90 3b 64
        E 40 80 3b 64
        E 0 90 3b 65
        E 36 80 3b 65
        E 0 90 3c 63
        E 40 80 3c 63
        E 0 90 3c 64
        E 37 80 3c 64
        E 0 90 3c 65
        E 38 80 3c 65
        E 0 90 3d 64
        E 40 80 3d 64
        E 0 90 3d 65
        E 38 80 3d 65
        E 0 90 3d 66
        E 39 80 3d 66
        E 0 90 3d 67
        E 36 80 3d 67
        E 0 90 3e 64
        E 38 80 3e 64
        E 0 90 3e 65
        E 40 80 3e 65
        E 0 90 3f 64
        E 39 80 3f 64
        E 0 90 3f 65
        E 39 80 3f 65
        E 0 90 3f 66
        E 38 80 3f 66
        E 1 90 3f 67
        E 35 80 3f 67
        E 0 90 40 64
        E 40 80 40 64
        E 1 90 40 65
        E 38 80 40 65
        E 0 90 41 63
        E 38 80 41 63
        E 0 90 41 64
        E 37 80 41 64
        E 0 90 41 65
        E 40 80 41 65
        E 0 90 42 64
        E 39 80 42 64
        E 0 90 42 65
        E 36 80 42 65
        E 1 90 42 66
        E 38 80 42 66
        E 1 90 42 67
        E 38 80 42 67
        E 0 90 43 64
        E 36 80 43 64
        E 1 90 43 65
        E 40 80 43 65
        E 0 90 44 64
        E 38 80 44 64
        E 0 90 44 65
        E 39 80 44 65
        E 0 90 44 66
        E 38 80 44 66
        E 0 90 44 67
        E 39 80 44 67
        E 1 90 45 64
        E 37 80 45 64
        E 0 90 45 65
        E 37 80 45 65
        E 0 90 46 64
        E 39 80 46 64
        E 0 90 46 65
        E 39 80 46 65
        E 0 90 46 66
        E 37 80 46 66
        E 0 90 46 67
        E 37 80 46 67
        E 1 90 47 64
        E 39 80 47 64
        E 0 90 47 65
        E 40 80 47 65
        E 0 90 48 63
        E 39 80 48 63
        E 0 90 48 64
        E 39 80 48 64
        E 0 90 48 65
        E 37 80 48 65
        E 0 90 49 64
        E 40 80 49 64
        E 0 90 49 65
        E 37 80 49 65
        E 0 90 49 66
        E 37 80 49 66
        E 0 90 49 67
        E 42 80 49 67
        E 0 90 4a 64
        E 34 80 4a 64
        E 1 90 4a 65
        E 40 80 4a 65
        E 0 90 4b 64
        E 38 80 4b 64
        E 0 90 4b 65
        E 38 80 4b 65
        E 0 90 4b 66
        E 40 80 4b 66
        E 0 90 4b 67
        E 36 80 4b 67
        E 1 90 4c 64
        E 36 80 4c 64
        E 1 90 4c 65
        E 42 80 4c 65
        E 0 90 4d 63
        E 35 80 4d 63
        E 0 90 4d 64
        E 39 80 4d 64
        E 0 90 4d 65
        E 39 80 4d 65
        E 0 90 4e 64
        E 37 80 4e 64
        E 0 90 4e 65
        E 38 80 4e 65
        E 0 90 4e 66
        E 42 80 4e 66
        E 0 90 4e 67
        E 36 80 4e 67
        E 0 90 4f 64
        E 38 80 4f 64
        E 0 90 4f 65
        E 37 80 4f 65
        E 1 90 50 64
        E 40 80 50 64
        E 0 90 50 65
        E 41 80 50 65
        E 0 90 50 66
        E 36 80 50 66
        E 0 90 50 67
        E 37 80 50 67
        E 0 90 51 64
        E 40 80 51 64
        E 0 90 51 65
        E 37 80 51 65
        E 0 90 52 64
        E 39 80 52 64
        E 1 90 52 65
        E 39 80 52 65
        E 0 90 52 66
        E 36 80 52 66
        E 0 90 52 67
        E 38 80 52 67
        E 1 90 53 64
        E 37 80 53 64
        E 0 90 53 65
        E 41 80 53 65
        E 0 90 54 64
        E 37 80 54 64
        E 0 90 54 65
        E 38 80 54 65
        E 3644 b0 7b 00
        E 1 b1 7b 00
        E 1 b2 7b 00
        E 1 b3 7b 00
        E 1 b4 7b 00
        E 0 b5 7b 00
        E 1 b6 7b 00
        E 0 b7 7b 00
        E 1 b8 7b 00
        E 0 b9 7b 00
        E 1 ba 7b 00
        E 0 bb 7b 00
        E 1 bc 7b 00
        E 1 bd 7b 00
        E 1 be 7b 00
        E 1 bf 7b 00
        E 0 b0 79 00
        E 1 b1 79 00
        E 1 b2 79 00
        E 1 b3 79 00
        E 1 b4 79 00
        E 0 b5 79 00
        E 1 b6 79 00
        E 1 b7 79 00
        E 1 b8 79 00
        E 1 b9 79 00
        E 0 ba 79 00
        E 1 bb 79 00
        E 1 bc 79 00
        E 0 bd 79 00
        E 1 be 79 00
        E 0 bf 79 00
        E 12555 c9 00 00
        E 1 c0 01 00
        E 0 c0 01 00
        E 1479 b0 7b 00
        E 0 b1 7b 00
        E 1 b2 7b 00
        E 0 b3 7b 00
        E 1 b4 7b 00
        E 1 b5 7b 00
        E 0 b6 7b 00
        E 1 b7 7b 00
        E 1 b8 7b 00
        E 1 b9 7b 00
        E 0 ba 7b 00
        E 1 bb 7b 00
        E 0 bc 7b 00
        E 1 bd 7b 00
        E 1 be 7b 00
        E 1 bf 7b 00
        E 1 c9 00 00
        E 0 c0 01 00
        E 2 b0 07 64
        E 0 b0 0a 40
        E 1 b0 5b 3b
        E 1 b0 5d 00
        E 83 c0 01 00
        E 0 c0 01 00
        E 0 90 24 64
        E 29 80 24 64
        E 0 90 25 64
        E 31 80 25 64
        E 0 90 25 66
        E 30 80 25 66
        E 0 90 28 64
        E 31 80 28 64
        E 0 90 29 63
        E 31 80 29 63
        E 0 90 29 64
        E 30 80 29 64
        E 0 90 29 65
        E 28 80 29 65
        E 1 90 2a 64
        E 32 80 2a 64
        E 0 90 2a 65
        E 32 80 2a 65
        E 0 90 2a 66
        E 27 80 2a 66
        E 1 90 2a 67
        E 29 80 2a 67
        E 0 90 2b 64
        E 30 80 2b 64
        E 0 90 2b 65
        E 31 80 2b 65
        E 0 90 2c 64
        E 31 80 2c 64
        E 0 90 2c 65
        E 30 80 2c 65
        E 0 90 2c 66
        E 29 80 2c 66
        E 0 90 2c 67
        E 30 80 2c 67
        E 0 90 2d 64
        E 30 80 2d 64
        E 1 90 2d 65
        E 32 80 2d 65
        E 0 90 2e 64
        E 28 80 2e 64
        E 0 90 2e 65
        E 31 80 2e 65
        E 0 90 2e 66
        E 31 80 2e 66
        E 1 90 2e 67
        E 31 80 2e 67
        E 0 90 2f 64
        E 28 80 2f 64
        E 0 90 2f 65
        E 29 80 2f 65
        E 0 90 30 63
        E 33 80 30 63
        E 0 90 30 64
        E 31 80 30 64
        E 0 90 30 65
        E 33 80 30 65
        E 0 90 31 64
        E 27 80 31 64
        E 0 90 31 65
        E 31 80 31 65
        E 0 90 31 66
        E 28 80 31 66
        E 0 90 31 67
        E 31 80 31 67
        E 0 90 32 64
        E 33 80 32 64
        E 0 90 32 65
        E 28 80 32 65
        E 0 90 33 64
        E 30 80 33 64
        E 0 90 33 65
        E 29 80 33 65
        E 0 90 33 66
        E 31 80 33 66
        E 0 90 33 67
        E 30 80 33 67
        E 0 90 34 64
        E 32 80 34 64
        E 0 90 34 65
        E 29 80 34 65
        E 0 90 35 63
        E 31 80 35 63
        E 0 90 35 64
        E 31 80 35 64
        E 0 90 35 65
        E 28 80 35 65
        E 0 90 36 64
        E 30 80 36 64
        E 0 90 36 65
        E 32 80 36 65
        E 0 90 36 66
        E 31 80 36 66
        E 0 90 36 67
        E 30 80 36 67
        E 0 90 37 64
        E 31 80 37 64
        E 0 90 37 65
        E 31 80 37 65
        E 0 90 38 64
        E 28 80 38 64
        E 0 90 38 65
        E 30 80 38 65
        E 0 90 38 66
        E 31 80 38 66
        E 0 90 38 67
        E 31 80 38 67
        E 0 90 39 64
        E 30 80 39 64
        E 0 90 39 65
        E 29 80 39 65
        E 1 90 3a 64
        E 33 80 3a 64
        E 0 90 3a 65
        E 25 80 3a 65
        E 0 90 3a 66
        E 31 80 3a 66
        E 0 90 3a 67
        E 35 80 3a 67
        E 0 90 3b 64
        E 27 80 3b 64
        E 0 90 3b 65
        E 32 80 3b 65
        E 0 90 3c 63
        E 29 80 3c 63
        E 1 90 3c 64
        E 29 80 3c 64
        E 0 90 3c 65
        E 31 80 3c 65
        E 0 90 3d 64
        E 30 80 3d 64
        E 1 90 3d 65
        E 31 80 3d 65
        E 0 90 3d 66
        E 28 80 3d 66
        E 0 90 3d 67
        E 30 80 3d 67
        E 0 90 3e 64
        E 32 80 3e 64
        E 0 90 3e 65
        E 31 80 3e 65
        E 0 90 3f 64
        E 30 80 3f 64
        E 0 90 3f 65
        E 28 80 3f 65
        E 0 90 3f 66
        E 31 80 3f 66
        E 0 90 3f 67
        E 32 80 3f 67
        E 0 90 40 64
        E 32 80 40 64
        E 0 90 40 65
        E 27 80 40 65
        E 0 90 41 63
        E 30 80 41 63
        E 1 90 41 64
        E 29 80 41 64
        E 0 90 41 65
        E 33 80 41 65
        E 0 90 42 64
        E 31 80 42 64
        E 0 90 42 65
        E 30 80 42 65
        E 0 90 42 66
        E 30 80 42 66
        E 0 90 42 67
        E 30 80 42 67
        E 0 90 43 64
        E 28 80 43 64
        E 0 90 43 65
        E 32 80 43 65
        E 0 90 44 64
        E 31 80 44 64
        E 0 90 44 65
        E 29 80 44 65
        E 0 90 44 66
        E 30 80 44 66
        E 1 90 44 67
        E 32 80 44 67
        E 1 90 45 64
        E 30 80 45 64
        E 0 90 45 65
        E 26 80 45 65
        E 0 90 46 64
        E 32 80 46 64
        E 0 90 46 65
        E 30 80 46 65
        E 1 90 46 66
        E 29 80 46 66
        E 0 90 46 67
        E 31 80 46 67
        E 0 90 47 64
        E 30 80 47 64
        E 0 90 47 65
        E 29 80 47 65
        E 0 90 48 63
        E 33 80 48 63
        E 0 90 48 64
        E 31 80 48 64
        E 1 90 48 65
        E 27 80 48 65
        E 0 90 49 64
        E 32 80 49 64
        E 0 90 49 65
        E 31 80 49 65
        E 0 90 49 66
        E 32 80 49 66
        E 0 90 49 67
        E 27 80 49 67
        E 0 90 4a 64
        E 28 80 4a 64
        E 1 90 4a 65
        E 31 80 4a 65
        E 0 90 4b 64
        E 30 80 4b 64
        E 0 90 4b 65
        E 33 80 4b 65
        E 0 90 4b 66
        E 31 80 4b 66
        E 0 90 4b 67
        E 27 80 4b 67
        E 0 90 4c 64
        E 31 80 4c 64
        E 0 90 4c 65
        E 31 80 4c 65
        E 0 90 4d 63
        E 31 80 4d 63
        E 0 90 4d 64
        E 27 80 4d 64
        E 1 90 4d 65
        E 30 80 4d 65
        E 0 90 4e 64
        E 32 80 4e 64
        E 0 90 4e 65
        E 32 80 4e 65
        E 0 90 4e 66
        E 29 80 4e 66
        E 0 90 4e 67
        E 28 80 4e 67
        E 0 90 4f 64
        E 33 80 4f 64
        E 0 90 4f 65
        E 30 80 4f 65
        E 1 90 50 64
        E 29 80 50 64
        E 0 90 50 65
        E 30 80 50 65
        E 0 90 50 66
        E 27 80 50 66
        E 1 90 50 67
        E 32 80 50 67
        E 1 90 51 64
        E 30 80 51 64
        E 0 90 51 65
        E 30 80 51 65
        E 1 90 52 64
        E 28 80 52 64
        E 0 90 52 65
        E 33 80 52 65
        E 0 90 52 66
        E 31 80 52 66
        E 0 90 52 67
        E 28 80 52 67
        E 0 90 53 64
        E 31 80 53 64
        E 0 90 53 65
        E 29 80 53 65
        E 0 90 54 64
        E 31 80 54 64
        E 1 90 54 65
        E 29 80 54 65
        E 2143 b0 7b 00
        E 1 b1 7b 00
        E 0 b2 7b 00
        E 1 b3 7b 00
        E 1 b4 7b 00
        E 1 b5 7b 00
        E 0 b6 7b 00
        E 1 b7 7b 00
        E 1 b8 7b 00
        E 0 b9 7b 00
        E 1 ba 7b 00
        E 1 bb 7b 00
        E 0 bc 7b 00
        E 1 bd 7b 00
        E 0 be 7b 00
        E 1 bf 7b 00
        E 1 89 4d 00
        E 0 b0 79 00
        E 1 b1 79 00
        E 0 b2 79 00
        E 1 b3 79 00
        E 1 b4 79 00
        E 0 b5 79 00
        E 1 b6 79 00
        E 0 b7 79 00
        E 1 b8 79 00
        E 0 b9 79 00
        E 1 ba 79 00
        E 1 bb 79 00
        E 0 bc 79 00
        E 1 bd 79 00
        E 1 be 79 00
        E 0 bf 79 00
        E 10247 c9 00 00
        E 0 c0 01 00
        E 0 c0 01 00
        E 1580 b0 7b 00
        E 0 b1 7b 00
        E 1 b2 7b 00
        E 0 b3 7b 00
        E 1 b4 7b 00
        E 0 b5 7b 00
        E 1 b6 7b 00
        E 0 b7 7b 00
        E 0 b8 7b 00
        E 0 b9 7b 00
        E 1 ba 7b 00
        E 0 bb 7b 00
        E 0 bc 7b 00
        E 0 bd 7b 00
        E 0 be 7b 00
        E 0 bf 7b 00
        E 1 c9 00 00
        E 0 c0 01 00
        E 0 b0 07 64
        E 0 b0 0a 40
        E 1 b0 5b 3b
        E 0 b0 5d 00
        E 53 c0 01 00
        E 0 c0 01 00
        E 0 90 24 64
        E 24 80 24 64
        E 0 90 25 64
        E 22 80 25 64
        E 0 90 25 66
        E 23 80 25 66
        E 0 90 28 64
        E 22 80 28 64
        E 0 90 29 63
        E 25 80 29 63
        E 1 90 29 64
        E 25 80 29 64
        E 0 90 29 65
        E 20 80 29 65
        E 0 90 2a 64
        E 23 80 2a 64
        E 0 90 2a 65
        E 22 80 2a 65
        E 0 90 2a 66
        E 23 80 2a 66
        E 0 90 2a 67
        E 22 80 2a 67
        E 0 90 2b 64
        E 23 80 2b 64
        E 1 90 2b 65
        E 26 80 2b 65
        E 0 90 2c 64
        E 21 80 2c 64
        E 0 90 2c 65
        E 22 80 2c 65
        E 1 90 2c 66
        E 22 80 2c 66
        E 0 90 2c 67
        E 24 80 2c 67
        E 0 90 2d 64
        E 23 80 2d 64
        E 0 90 2d 65
        E 22 80 2d 65
        E 1 90 2e 64
        E 24 80 2e 64
        E 1 90 2e 65
        E 20 80 2e 65
        E 0 90 2e 66
        E 23 80 2e 66
        E 0 90 2e 67
        E 25 80 2e 67
        E 1 90 2f 64
        E 23 80 2f 64
        E 0 90 2f 65
        E 23 80 2f 65
        E 0 90 30 63
        E 23 80 30 63
        E 0 90 30 64
        E 21 80 30 64
        E 0 90 30 65
        E 23 80 30 65
        E 0 90 31 64
        E 22 80 31 64
        E 0 90 31 65
        E 23 80 31 65
        E 0 90 31 66
        E 26 80 31 66
        E 1 90 31 67
        E 21 80 31 67
        E 0 90 32 64
        E 24 80 32 64
        E 0 90 32 65
        E 21 80 32 65
        E 0 90 33 64
        E 22 80 33 64
        E 0 90 33 65
        E 25 80 33 65
        E 0 90 33 66
        E 23 80 33 66
        E 0 90 33 67
        E 24 80 33 67
        E 1 90 34 64
        E 21 80 34 64
        E 1 90 34 65
        E 23 80 34 65
        E 0 90 35 63
        E 23 80 35 63
        E 0 90 35 64
        E 23 80 35 64
        E 1 90 35 65
        E 22 80 35 65
        E 1 90 36 64
        E 20 80 36 64
        E 0 90 36 65
        E 22 80 36 65
        E 0 90 36 66
        E 24 80 36 66
        E 1 90 36 67
        E 22 80 36 67
        E 1 90 37 64
        E 24 80 37 64
        E 1 90 37 65
        E 24 80 37 65
        E 0 90 38 64
        E 21 80 38 64
        E 1 90 38 65
        E 21 80 38 65
        E 0 90 38 66
        E 22 80 38 66
        E 1 90 38 67
        E 22 80 38 67
        E 0 90 39 64
        E 26 80 39 64
        E 1 90 39 65
        E 22 80 39 65
        E 1 90 3a 64
        E 21 80 3a 64
        E 0 90 3a 65
        E 23 80 3a 65
        E 0 90 3a 66
        E 23 80 3a 66
        E 0 90 3a 67
        E 22 80 3a 67
        E 1 90 3b 64
        E 24 80 3b 64
        E 0 90 3b 65
        E 22 80 3b 65
        E 0 90 3c 63
        E 21 80 3c 63
        E 0 90 3c 64
        E 23 80 3c 64
        E 0 90 3c 65
        E 23 80 3c 65
        E 1 90 3d 64
        E 26 80 3d 64
        E 0 90 3d 65
        E 21 80 3d 65
        E 0 90 3d 66
        E 22 80 3d 66
        E 0 90 3d 67
        E 23 80 3d 67
        E 0 90 3e 64
        E 25 80 3e 64
        E 0 90 3e 65
        E 25 80 3e 65
        E 0 90 3f 64
        E 20 80 3f 64
        E 0 90 3f 65
        E 23 80 3f 65
        E 0 90 3f 66
        E 23 80 3f 66
        E 0 90 3f 67
        E 23 80 3f 67
        E 0 90 40 64
        E 24 80 40 64
        E 1 90 40 65
        E 22 80 40 65
        E 0 90 41 63
        E 25 80 41 63
        E 0 90 41 64
        E 22 80 41 64
        E 0 90 41 65
        E 21 80 41 65
        E 1 90 42 64
        E 22 80 42 64
        E 0 90 42 65
        E 22 80 42 65
        E 0 90 42 66
        E 25 80 42 66
        E 0 90 42 67
        E 25 80 42 67
        E 0 90 43 64
        E 21 80 43 64
        E 0 90 43 65
        E 23 80 43 65
        E 0 90 44 64
        E 23 80 44 64
        E 0 90 44 65
        E 26 80 44 65
        E 0 90 44 66
        E 22 80 44 66
        E 0 90 44 67
        E 19 80 44 67
        E 0 90 45 64
        E 23 80 45 64
        E 0 90 45 65
        E 24 80 45 65
        E 1 90 46 64
        E 25 80 46 64
        E 0 90 46 65
        E 21 80 46 65
        E 0 90 46 66
        E 25 80 46 66
        E 0 90 46 67
        E 21 80 46 67
        E 0 90 47 64
        E 22 80 47 64
        E 0 90 47 65
        E 23 80 47 65
        E 0 90 48 63
        E 23 80 48 63
        E 0 90 48 64
        E 24 80 48 64
        E 1 90 48 65
        E 23 80 48 65
        E 0 90 49 64
        E 23 80 49 64
        E 0 90 49 65
        E 22 80 49 65
        E 0 90 49 66
        E 23 80 49 66
        E 0 90 49 67
        E 25 80 49 67
        E 0 90 4a 64
        E 25 80 4a 64
        E 0 90 4a 65
        E 18 80 4a 65
        E 0 90 4b 64
        E 22 80 4b 64
        E 0 90 4b 65
        E 25 80 4b 65
        E 1 90 4b 66
        E 22 80 4b 66
        E 1 90 4b 67
        E 22 80 4b 67
        E 1 90 4c 64
        E 21 80 4c 64
        E 1 90 4c 65
        E 24 80 4c 65
        E 0 90 4d 63
        E 23 80 4d 63
        E 0 90 4d 64
        E 23 80 4d 64
        E 0 90 4d 65
        E 24 80 4d 65
        E 1 90 4e 64
        E 21 80 4e 64
        E 1 90 4e 65
        E 21 80 4e 65
        E 0 90 4e 66
        E 25 80 4e 66
        E 0 90 4e 67
        E 22 80 4e 67
        E 0 90 4f 64
        E 22 80 4f 64
        E 0 90 4f 65
        E 26 80 4f 65
        E 0 90 50 64
        E 22 80 50 64
        E 0 90 50 65
        E 22 80 50 65
        E 1 90 50 66
        E 22 80 50 66
        E 0 90 50 67
        E 23 80 50 67
        E 0 90 51 64
        E 23 80 51 64
        E 0 90 51 65
        E 23 80 51 65
        E 1 90 52 64
        E 21 80 52 64
        E 0 90 52 65
        E 26 80 52 65
        E 0 90 52 66
        E 23 80 52 66
        E 0 90 52 67
        E 20 80 52 67
        E 0 90 53 64
        E 25 80 53 64
        E 0 90 53 65
        E 24 80 53 65
        E 0 90 54 64
        E 22 80 54 64
        E 0 90 54 65
        E 23 80 54 65
        E 4965 b0 7b 00
        E 1 b1 7b 00
        E 0 b2 7b 00
        E 1 b3 7b 00
        E 0 b4 7b 00
        E 1 b5 7b 00
        E 0 b6 7b 00
        E 1 b7 7b 00
        E 1 b8 7b 00
        E 0 b9 7b 00
        E 1 ba 7b 00
        E 0 bb 7b 00
        E 1 bc 7b 00
        E 0 bd 7b 00
        E 1 be 7b 00
        E 0 bf 7b 00
        E 1 89 4d 00
        E 0 b0 79 00
        E 1 b1 79 00
        E 1 b2 79 00
        E 0 b3 79 00
        E 0 b4 79 00
        E 1 b5 79 00
        E 0 b6 79 00
        E 1 b7 79 00
        E 0 b8 79 00
        E 1 b9 79 00
        E 0 ba 79 00
        E 0 bb 79 00
        E 0 bc 79 00
        E 0 bd 79 00
        E 1 be 79 00
        E 0 bf 79 00
        E 6601 b0 7b 00
        CCINTERP 32
        CHASE_CC_TAKEOFFS 1
        GUID {D28CA946-B647-4750-87F9-86DC28A534B1}
        IGNTEMPO 0 120 4 4
        SRCCOLOR 48
        VELLANE -1 100 0
      >
    >
    <ITEM
      POSITION 69.65703475200081
      SNAPOFFS 0
      LENGTH 3.009871872
      LOOP 1
      ALLTAKES 0
      FADEIN 1 0 0 1 0 0 0
      FADEOUT 1 0 0 1 0 0 0
      MUTE 0 0
      SEL 0
      IGUID {5961255C-12B5-4377-95D4-E17C5B55751B}
      IID 14
      NAME "02-Recorded MIDI"
      VOLPAN 1 0 1 -1
      SOFFS 22.34757545737988 44.69515091475975
      PLAYRATE 1 1 0 -1 0 0.0025
      CHANMODE 0
      GUID {A463CFAC-BAC1-48BF-91D7-762C12D58829}
      RECPASS 7
      <SOURCE MIDI
        HASDATA 1 960 QN
        CCINTERP 32
        POOLEDEVTS {152BD20F-5FB4-48D2-AA15-EEF492231A04}
        E 17732 c9 00 00
        E 0 c0 01 00
        E 1 c0 01 00
        E 2883 b0 7b 00
        E 1 b1 7b 00
        E 0 b2 7b 00
        E 1 b3 7b 00
        E 1 b4 7b 00
        E 1 b5 7b 00
        E 0 b6 7b 00
        E 1 b7 7b 00
        E 1 b8 7b 00
        E 0 b9 7b 00
        E 1 ba 7b 00
        E 0 bb 7b 00
        E 1 bc 7b 00
        E 1 bd 7b 00
        E 1 be 7b 00
        E 0 bf 7b 00
        E 1 c9 00 00
        E 1 c0 01 00
        E 1 b0 07 64
        E 0 b0 0a 40
        E 1 b0 5b 3b
        E 1 b0 5d 00
        E 103 c0 01 00
        E 0 c0 01 00
        E 0 90 24 64
        E 39 80 24 64
        E 0 90 25 64
        E 37 80 25 64
        E 0 90 25 66
        E 40 80 25 66
        E 0 90 28 64
        E 38 80 28 64
        E 0 90 29 63
        E 37 80 29 63
        E 0 90 29 64
        E 39 80 29 64
        E 1 90 29 65
        E 40 80 29 65
        E 0 90 2a 64
        E 37 80 2a 64
        E 0 90 2a 65
        E 38 80 2a 65
        E 0 90 2a 66
        E 37 80 2a 66
        E 1 90 2a 67
        E 40 80 2a 67
        E 0 90 2b 64
        E 36 80 2b 64
        E 0 90 2b 65
        E 40 80 2b 65
        E 0 90 2c 64
        E 38 80 2c 64
        E 0 90 2c 65
        E 38 80 2c 65
        E 0 90 2c 66
        E 37 80 2c 66
        E 0 90 2c 67
        E 38 80 2c 67
        E 0 90 2d 64
        E 42 80 2d 64
        E 0 90 2d 65
        E 36 80 2d 65
        E 0 90 2e 64
        E 38 80 2e 64
        E 1 90 2e 65
        E 37 80 2e 65
        E 1 90 2e 66
        E 39 80 2e 66
        E 1 90 2e 67
        E 36 80 2e 67
        E 1 90 2f 64
        E 38 80 2f 64
        E 0 90 2f 65
        E 41 80 2f 65
        E 0 90 30 63
        E 36 80 30 63
        E 0 90 30 64
        E 38 80 30 64
        E 0 90 30 65
        E 39 80 30 65
        E 0 90 31 64
        E 40 80 31 64
        E 0 90 31 65
        E 38 80 31 65
        E 0 90 31 66
        E 37 80 31 66
        E 0 90 31 67
        E 38 80 31 67
        E 0 90 32 64
        E 40 80 32 64
        E 0 90 32 65
        E 36 80 32 65
        E 0 90 33 64
        E 42 80 33 64
        E 0 90 33 65
        E 36 80 33 65
        E 0 90 33 66
        E 38 80 33 66
        E 0 90 33 67
        E 41 80 33 67
        E 0 90 34 64
        E 37 80 34 64
        E 0 90 34 65
        E 38 80 34 65
        E 0 90 35 63
        E 40 80 35 63
        E 0 90 35 64
        E 36 80 35 64
        E 0 90 35 65
        E 39 80 35 65
        E 0 90 36 64
        E 37 80 36 64
        E 0 90 36 65
        E 38 80 36 65
        E 1 90 36 66
        E 41 80 36 66
        E 0 90 36 67
        E 36 80 36 67
        E 1 90 37 64
        E 37 80 37 64
        E 0 90 37 65
        E 40 80 37 65
        E 0 90 38 64
        E 41 80 38 64
        E 0 90 38 65
        E 35 80 38 65
        E 0 90 38 66
        E 39 80 38 66
        E 0 90 38 67
        E 36 80 38 67
        E 0 90 39 64
        E 40 80 39 64
        E 0 90 39 65
        E 38 80 39 65
        E 0 90 3a 64
        E 39 80 3a 64
        E 0 90 3a 65
        E 37 80 3a 65
        E 1 90 3a 66
        E 40 80 3a 66
        E 1 90 3a 67
        E 37 80 3a 67
        E 0 90 3b 64
        E 40 80 3b 64
        E 0 90 3b 65
        E 36 80 3b 65
        E 0 90 3c 63
        E 40 80 3c 63
        E 0 90 3c 64
        E 37 80 3c 64
        E 0 90 3c 65
        E 38 80 3c 65
        E 0 90 3d 64
        E 40 80 3d 64
        E 0 90 3d 65
        E 38 80 3d 65
        E 0 90 3d 66
        E 39 80 3d 66
        E 0 90 3d 67
        E 36 80 3d 67
        E 0 90 3e 64
        E 38 80 3e 64
        E 0 90 3e 65
        E 40 80 3e 65
        E 0 90 3f 64
        E 39 80 3f 64
        E 0 90 3f 65
        E 39 80 3f 65
        E 0 90 3f 66
        E 38 80 3f 66
        E 1 90 3f 67
        E 35 80 3f 67
        E 0 90 40 64
        E 40 80 40 64
        E 1 90 40 65
        E 38 80 40 65
        E 0 90 41 63
        E 38 80 41 63
        E 0 90 41 64
        E 37 80 41 64
        E 0 90 41 65
        E 40 80 41 65
        E 0 90 42 64
        E 39 80 42 64
        E 0 90 42 65
        E 36 80 42 65
        E 1 90 42 66
        E 38 80 42 66
        E 1 90 42 67
        E 38 80 42 67
        E 0 90 43 64
        E 36 80 43 64
        E 1 90 43 65
        E 40 80 43 65
        E 0 90 44 64
        E 38 80 44 64
        E 0 90 44 65
        E 39 80 44 65
        E 0 90 44 66
        E 38 80 44 66
        E 0 90 44 67
        E 39 80 44 67
        E 1 90 45 64
        E 37 80 45 64
        E 0 90 45 65
        E 37 80 45 65
        E 0 90 46 64
        E 39 80 46 64
        E 0 90 46 65
        E 39 80 46 65
        E 0 90 46 66
        E 37 80 46 66
        E 0 90 46 67
        E 37 80 46 67
        E 1 90 47 64
        E 39 80 47 64
        E 0 90 47 65
        E 40 80 47 65
        E 0 90 48 63
        E 39 80 48 63
        E 0 90 48 64
        E 39 80 48 64
        E 0 90 48 65
        E 37 80 48 65
        E 0 90 49 64
        E 40 80 49 64
        E 0 90 49 65
        E 37 80 49 65
        E 0 90 49 66
        E 37 80 49 66
        E 0 90 49 67
        E 42 80 49 67
        E 0 90 4a 64
        E 34 80 4a 64
        E 1 90 4a 65
        E 40 80 4a 65
        E 0 90 4b 64
        E 38 80 4b 64
        E 0 90 4b 65
        E 38 80 4b 65
        E 0 90 4b 66
        E 40 80 4b 66
        E 0 90 4b 67
        E 36 80 4b 67
        E 1 90 4c 64
        E 36 80 4c 64
        E 1 90 4c 65
        E 42 80 4c 65
        E 0 90 4d 63
        E 35 80 4d 63
        E 0 90 4d 64
        E 39 80 4d 64
        E 0 90 4d 65
        E 39 80 4d 65
        E 0 90 4e 64
        E 37 80 4e 64
        E 0 90 4e 65
        E 38 80 4e 65
        E 0 90 4e 66
        E 42 80 4e 66
        E 0 90 4e 67
        E 36 80 4e 67
        E 0 90 4f 64
        E 38 80 4f 64
        E 0 90 4f 65
        E 37 80 4f 65
        E 1 90 50 64
        E 40 80 50 64
        E 0 90 50 65
        E 41 80 50 65
        E 0 90 50 66
        E 36 80 50 66
        E 0 90 50 67
        E 37 80 50 67
        E 0 90 51 64
        E 40 80 51 64
        E 0 90 51 65
        E 37 80 51 65
        E 0 90 52 64
        E 39 80 52 64
        E 1 90 52 65
        E 39 80 52 65
        E 0 90 52 66
        E 36 80 52 66
        E 0 90 52 67
        E 38 80 52 67
        E 1 90 53 64
        E 37 80 53 64
        E 0 90 53 65
        E 41 80 53 65
        E 0 90 54 64
        E 37 80 54 64
        E 0 90 54 65
        E 38 80 54 65
        E 3644 b0 7b 00
        E 1 b1 7b 00
        E 1 b2 7b 00
        E 1 b3 7b 00
        E 1 b4 7b 00
        E 0 b5 7b 00
        E 1 b6 7b 00
        E 0 b7 7b 00
        E 1 b8 7b 00
        E 0 b9 7b 00
        E 1 ba 7b 00
        E 0 bb 7b 00
        E 1 bc 7b 00
        E 1 bd 7b 00
        E 1 be 7b 00
        E 1 bf 7b 00
        E 0 b0 79 00
        E 1 b1 79 00
        E 1 b2 79 00
        E 1 b3 79 00
        E 1 b4 79 00
        E 0 b5 79 00
        E 1 b6 79 00
        E 1 b7 79 00
        E 1 b8 79 00
        E 1 b9 79 00
        E 0 ba 79 00
        E 1 bb 79 00
        E 1 bc 79 00
        E 0 bd 79 00
        E 1 be 79 00
        E 0 bf 79 00
        E 12555 c9 00 00
        E 1 c0 01 00
        E 0 c0 01 00
        E 1479 b0 7b 00
        E 0 b1 7b 00
        E 1 b2 7b 00
        E 0 b3 7b 00
        E 1 b4 7b 00
        E 1 b5 7b 00
        E 0 b6 7b 00
        E 1 b7 7b 00
        E 1 b8 7b 00
        E 1 b9 7b 00
        E 0 ba 7b 00
        E 1 bb 7b 00
        E 0 bc 7b 00
        E 1 bd 7b 00
        E 1 be 7b 00
        E 1 bf 7b 00
        E 1 c9 00 00
        E 0 c0 01 00
        E 2 b0 07 64
        E 0 b0 0a 40
        E 1 b0 5b 3b
        E 1 b0 5d 00
        E 83 c0 01 00
        E 0 c0 01 00
        E 0 90 24 64
        E 29 80 24 64
        E 0 90 25 64
        E 31 80 25 64
        E 0 90 25 66
        E 30 80 25 66
        E 0 90 28 64
        E 31 80 28 64
        E 0 90 29 63
        E 31 80 29 63
        E 0 90 29 64
        E 30 80 29 64
        E 0 90 29 65
        E 28 80 29 65
        E 1 90 2a 64
        E 32 80 2a 64
        E 0 90 2a 65
        E 32 80 2a 65
        E 0 90 2a 66
        E 27 80 2a 66
        E 1 90 2a 67
        E 29 80 2a 67
        E 0 90 2b 64
        E 30 80 2b 64
        E 0 90 2b 65
        E 31 80 2b 65
        E 0 90 2c 64
        E 31 80 2c 64
        E 0 90 2c 65
        E 30 80 2c 65
        E 0 90 2c 66
        E 29 80 2c 66
        E 0 90 2c 67
        E 30 80 2c 67
        E 0 90 2d 64
        E 30 80 2d 64
        E 1 90 2d 65
        E 32 80 2d 65
        E 0 90 2e 64
        E 28 80 2e 64
        E 0 90 2e 65
        E 31 80 2e 65
        E 0 90 2e 66
        E 31 80 2e 66
        E 1 90 2e 67
        E 31 80 2e 67
        E 0 90 2f 64
        E 28 80 2f 64
        E 0 90 2f 65
        E 29 80 2f 65
        E 0 90 30 63
        E 33 80 30 63
        E 0 90 30 64
        E 31 80 30 64
        E 0 90 30 65
        E 33 80 30 65
        E 0 90 31 64
        E 27 80 31 64
        E 0 90 31 65
        E 31 80 31 65
        E 0 90 31 66
        E 28 80 31 66
        E 0 90 31 67
        E 31 80 31 67
        E 0 90 32 64
        E 33 80 32 64
        E 0 90 32 65
        E 28 80 32 65
        E 0 90 33 64
        E 30 80 33 64
        E 0 90 33 65
        E 29 80 33 65
        E 0 90 33 66
        E 31 80 33 66
        E 0 90 33 67
        E 30 80 33 67
        E 0 90 34 64
        E 32 80 34 64
        E 0 90 34 65
        E 29 80 34 65
        E 0 90 35 63
        E 31 80 35 63
        E 0 90 35 64
        E 31 80 35 64
        E 0 90 35 65
        E 28 80 35 65
        E 0 90 36 64
        E 30 80 36 64
        E 0 90 36 65
        E 32 80 36 65
        E 0 90 36 66
        E 31 80 36 66
        E 0 90 36 67
        E 30 80 36 67
        E 0 90 37 64
        E 31 80 37 64
        E 0 90 37 65
        E 31 80 37 65
        E 0 90 38 64
        E 28 80 38 64
        E 0 90 38 65
        E 30 80 38 65
        E 0 90 38 66
        E 31 80 38 66
        E 0 90 38 67
        E 31 80 38 67
        E 0 90 39 64
        E 30 80 39 64
        E 0 90 39 65
        E 29 80 39 65
        E 1 90 3a 64
        E 33 80 3a 64
        E 0 90 3a 65
        E 25 80 3a 65
        E 0 90 3a 66
        E 31 80 3a 66
        E 0 90 3a 67
        E 35 80 3a 67
        E 0 90 3b 64
        E 27 80 3b 64
        E 0 90 3b 65
        E 32 80 3b 65
        E 0 90 3c 63
        E 29 80 3c 63
        E 1 90 3c 64
        E 29 80 3c 64
        E 0 90 3c 65
        E 31 80 3c 65
        E 0 90 3d 64
        E 30 80 3d 64
        E 1 90 3d 65
        E 31 80 3d 65
        E 0 90 3d 66
        E 28 80 3d 66
        E 0 90 3d 67
        E 30 80 3d 67
        E 0 90 3e 64
        E 32 80 3e 64
        E 0 90 3e 65
        E 31 80 3e 65
        E 0 90 3f 64
        E 30 80 3f 64
        E 0 90 3f 65
        E 28 80 3f 65
        E 0 90 3f 66
        E 31 80 3f 66
        E 0 90 3f 67
        E 32 80 3f 67
        E 0 90 40 64
        E 32 80 40 64
        E 0 90 40 65
        E 27 80 40 65
        E 0 90 41 63
        E 30 80 41 63
        E 1 90 41 64
        E 29 80 41 64
        E 0 90 41 65
        E 33 80 41 65
        E 0 90 42 64
        E 31 80 42 64
        E 0 90 42 65
        E 30 80 42 65
        E 0 90 42 66
        E 30 80 42 66
        E 0 90 42 67
        E 30 80 42 67
        E 0 90 43 64
        E 28 80 43 64
        E 0 90 43 65
        E 32 80 43 65
        E 0 90 44 64
        E 31 80 44 64
        E 0 90 44 65
        E 29 80 44 65
        E 0 90 44 66
        E 30 80 44 66
        E 1 90 44 67
        E 32 80 44 67
        E 1 90 45 64
        E 30 80 45 64
        E 0 90 45 65
        E 26 80 45 65
        E 0 90 46 64
        E 32 80 46 64
        E 0 90 46 65
        E 30 80 46 65
        E 1 90 46 66
        E 29 80 46 66
        E 0 90 46 67
        E 31 80 46 67
        E 0 90 47 64
        E 30 80 47 64
        E 0 90 47 65
        E 29 80 47 65
        E 0 90 48 63
        E 33 80 48 63
        E 0 90 48 64
        E 31 80 48 64
        E 1 90 48 65
        E 27 80 48 65
        E 0 90 49 64
        E 32 80 49 64
        E 0 90 49 65
        E 31 80 49 65
        E 0 90 49 66
        E 32 80 49 66
        E 0 90 49 67
        E 27 80 49 67
        E 0 90 4a 64
        E 28 80 4a 64
        E 1 90 4a 65
        E 31 80 4a 65
        E 0 90 4b 64
        E 30 80 4b 64
        E 0 90 4b 65
        E 33 80 4b 65
        E 0 90 4b 66
        E 31 80 4b 66
        E 0 90 4b 67
        E 27 80 4b 67
        E 0 90 4c 64
        E 31 80 4c 64
        E 0 90 4c 65
        E 31 80 4c 65
        E 0 90 4d 63
        E 31 80 4d 63
        E 0 90 4d 64
        E 27 80 4d 64
        E 1 90 4d 65
        E 30 80 4d 65
        E 0 90 4e 64
        E 32 80 4e 64
        E 0 90 4e 65
        E 32 80 4e 65
        E 0 90 4e 66
        E 29 80 4e 66
        E 0 90 4e 67
        E 28 80 4e 67
        E 0 90 4f 64
        E 33 80 4f 64
        E 0 90 4f 65
        E 30 80 4f 65
        E 1 90 50 64
        E 29 80 50 64
        E 0 90 50 65
        E 30 80 50 65
        E 0 90 50 66
        E 27 80 50 66
        E 1 90 50 67
        E 32 80 50 67
        E 1 90 51 64
        E 30 80 51 64
        E 0 90 51 65
        E 30 80 51 65
        E 1 90 52 64
        E 28 80 52 64
        E 0 90 52 65
        E 33 80 52 65
        E 0 90 52 66
        E 31 80 52 66
        E 0 90 52 67
        E 28 80 52 67
        E 0 90 53 64
        E 31 80 53 64
        E 0 90 53 65
        E 29 80 53 65
        E 0 90 54 64
        E 31 80 54 64
        E 1 90 54 65
        E 29 80 54 65
        E 2143 b0 7b 00
        E 1 b1 7b 00
        E 0 b2 7b 00
        E 1 b3 7b 00
        E 1 b4 7b 00
        E 1 b5 7b 00
        E 0 b6 7b 00
        E 1 b7 7b 00
        E 1 b8 7b 00
        E 0 b9 7b 00
        E 1 ba 7b 00
        E 1 bb 7b 00
        E 0 bc 7b 00
        E 1 bd 7b 00
        E 0 be 7b 00
        E 1 bf 7b 00
        E 1 89 4d 00
        E 0 b0 79 00
        E 1 b1 79 00
        E 0 b2 79 00
        E 1 b3 79 00
        E 1 b4 79 00
        E 0 b5 79 00
        E 1 b6 79 00
        E 0 b7 79 00
        E 1 b8 79 00
        E 0 b9 79 00
        E 1 ba 79 00
        E 1 bb 79 00
        E 0 bc 79 00
        E 1 bd 79 00
        E 1 be 79 00
        E 0 bf 79 00
        E 10247 c9 00 00
        E 0 c0 01 00
        E 0 c0 01 00
        E 1580 b0 7b 00
        E 0 b1 7b 00
        E 1 b2 7b 00
        E 0 b3 7b 00
        E 1 b4 7b 00
        E 0 b5 7b 00
        E 1 b6 7b 00
        E 0 b7 7b 00
        E 0 b8 7b 00
        E 0 b9 7b 00
        E 1 ba 7b 00
        E 0 bb 7b 00
        E 0 bc 7b 00
        E 0 bd 7b 00
        E 0 be 7b 00
        E 0 bf 7b 00
        E 1 c9 00 00
        E 0 c0 01 00
        E 0 b0 07 64
        E 0 b0 0a 40
        E 1 b0 5b 3b
        E 0 b0 5d 00
        E 53 c0 01 00
        E 0 c0 01 00
        E 0 90 24 64
        E 24 80 24 64
        E 0 90 25 64
        E 22 80 25 64
        E 0 90 25 66
        E 23 80 25 66
        E 0 90 28 64
        E 22 80 28 64
        E 0 90 29 63
        E 25 80 29 63
        E 1 90 29 64
        E 25 80 29 64
        E 0 90 29 65
        E 20 80 29 65
        E 0 90 2a 64
        E 23 80 2a 64
        E 0 90 2a 65
        E 22 80 2a 65
        E 0 90 2a 66
        E 23 80 2a 66
        E 0 90 2a 67
        E 22 80 2a 67
        E 0 90 2b 64
        E 23 80 2b 64
        E 1 90 2b 65
        E 26 80 2b 65
        E 0 90 2c 64
        E 21 80 2c 64
        E 0 90 2c 65
        E 22 80 2c 65
        E 1 90 2c 66
        E 22 80 2c 66
        E 0 90 2c 67
        E 24 80 2c 67
        E 0 90 2d 64
        E 23 80 2d 64
        E 0 90 2d 65
        E 22 80 2d 65
        E 1 90 2e 64
        E 24 80 2e 64
        E 1 90 2e 65
        E 20 80 2e 65
        E 0 90 2e 66
        E 23 80 2e 66
        E 0 90 2e 67
        E 25 80 2e 67
        E 1 90 2f 64
        E 23 80 2f 64
        E 0 90 2f 65
        E 23 80 2f 65
        E 0 90 30 63
        E 23 80 30 63
        E 0 90 30 64
        E 21 80 30 64
        E 0 90 30 65
        E 23 80 30 65
        E 0 90 31 64
        E 22 80 31 64
        E 0 90 31 65
        E 23 80 31 65
        E 0 90 31 66
        E 26 80 31 66
        E 1 90 31 67
        E 21 80 31 67
        E 0 90 32 64
        E 24 80 32 64
        E 0 90 32 65
        E 21 80 32 65
        E 0 90 33 64
        E 22 80 33 64
        E 0 90 33 65
        E 25 80 33 65
        E 0 90 33 66
        E 23 80 33 66
        E 0 90 33 67
        E 24 80 33 67
        E 1 90 34 64
        E 21 80 34 64
        E 1 90 34 65
        E 23 80 34 65
        E 0 90 35 63
        E 23 80 35 63
        E 0 90 35 64
        E 23 80 35 64
        E 1 90 35 65
        E 22 80 35 65
        E 1 90 36 64
        E 20 80 36 64
        E 0 90 36 65
        E 22 80 36 65
        E 0 90 36 66
        E 24 80 36 66
        E 1 90 36 67
        E 22 80 36 67
        E 1 90 37 64
        E 24 80 37 64
        E 1 90 37 65
        E 24 80 37 65
        E 0 90 38 64
        E 21 80 38 64
        E 1 90 38 65
        E 21 80 38 65
        E 0 90 38 66
        E 22 80 38 66
        E 1 90 38 67
        E 22 80 38 67
        E 0 90 39 64
        E 26 80 39 64
        E 1 90 39 65
        E 22 80 39 65
        E 1 90 3a 64
        E 21 80 3a 64
        E 0 90 3a 65
        E 23 80 3a 65
        E 0 90 3a 66
        E 23 80 3a 66
        E 0 90 3a 67
        E 22 80 3a 67
        E 1 90 3b 64
        E 24 80 3b 64
        E 0 90 3b 65
        E 22 80 3b 65
        E 0 90 3c 63
        E 21 80 3c 63
        E 0 90 3c 64
        E 23 80 3c 64
        E 0 90 3c 65
        E 23 80 3c 65
        E 1 90 3d 64
        E 26 80 3d 64
        E 0 90 3d 65
        E 21 80 3d 65
        E 0 90 3d 66
        E 22 80 3d 66
        E 0 90 3d 67
        E 23 80 3d 67
        E 0 90 3e 64
        E 25 80 3e 64
        E 0 90 3e 65
        E 25 80 3e 65
        E 0 90 3f 64
        E 20 80 3f 64
        E 0 90 3f 65
        E 23 80 3f 65
        E 0 90 3f 66
        E 23 80 3f 66
        E 0 90 3f 67
        E 23 80 3f 67
        E 0 90 40 64
        E 24 80 40 64
        E 1 90 40 65
        E 22 80 40 65
        E 0 90 41 63
        E 25 80 41 63
        E 0 90 41 64
        E 22 80 41 64
        E 0 90 41 65
        E 21 80 41 65
        E 1 90 42 64
        E 22 80 42 64
        E 0 90 42 65
        E 22 80 42 65
        E 0 90 42 66
        E 25 80 42 66
        E 0 90 42 67
        E 25 80 42 67
        E 0 90 43 64
        E 21 80 43 64
        E 0 90 43 65
        E 23 80 43 65
        E 0 90 44 64
        E 23 80 44 64
        E 0 90 44 65
        E 26 80 44 65
        E 0 90 44 66
        E 22 80 44 66
        E 0 90 44 67
        E 19 80 44 67
        E 0 90 45 64
        E 23 80 45 64
        E 0 90 45 65
        E 24 80 45 65
        E 1 90 46 64
        E 25 80 46 64
        E 0 90 46 65
        E 21 80 46 65
        E 0 90 46 66
        E 25 80 46 66
        E 0 90 46 67
        E 21 80 46 67
        E 0 90 47 64
        E 22 80 47 64
        E 0 90 47 65
        E 23 80 47 65
        E 0 90 48 63
        E 23 80 48 63
        E 0 90 48 64
        E 24 80 48 64
        E 1 90 48 65
        E 23 80 48 65
        E 0 90 49 64
        E 23 80 49 64
        E 0 90 49 65
        E 22 80 49 65
        E 0 90 49 66
        E 23 80 49 66
        E 0 90 49 67
        E 25 80 49 67
        E 0 90 4a 64
        E 25 80 4a 64
        E 0 90 4a 65
        E 18 80 4a 65
        E 0 90 4b 64
        E 22 80 4b 64
        E 0 90 4b 65
        E 25 80 4b 65
        E 1 90 4b 66
        E 22 80 4b 66
        E 1 90 4b 67
        E 22 80 4b 67
        E 1 90 4c 64
        E 21 80 4c 64
        E 1 90 4c 65
        E 24 80 4c 65
        E 0 90 4d 63
        E 23 80 4d 63
        E 0 90 4d 64
        E 23 80 4d 64
        E 0 90 4d 65
        E 24 80 4d 65
        E 1 90 4e 64
        E 21 80 4e 64
        E 1 90 4e 65
        E 21 80 4e 65
        E 0 90 4e 66
        E 25 80 4e 66
        E 0 90 4e 67
        E 22 80 4e 67
        E 0 90 4f 64
        E 22 80 4f 64
        E 0 90 4f 65
        E 26 80 4f 65
        E 0 90 50 64
        E 22 80 50 64
        E 0 90 50 65
        E 22 80 50 65
        E 1 90 50 66
        E 22 80 50 66
        E 0 90 50 67
        E 23 80 50 67
        E 0 90 51 64
        E 23 80 51 64
        E 0 90 51 65
        E 23 80 51 65
        E 1 90 52 64
        E 21 80 52 64
        E 0 90 52 65
        E 26 80 52 65
        E 0 90 52 66
        E 23 80 52 66
        E 0 90 52 67
        E 20 80 52 67
        E 0 90 53 64
        E 25 80 53 64
        E 0 90 53 65
        E 24 80 53 65
        E 0 90 54 64
        E 22 80 54 64
        E 0 90 54 65
        E 23 80 54 65
        E 4965 b0 7b 00
        E 1 b1 7b 00
        E 0 b2 7b 00
        E 1 b3 7b 00
        E 0 b4 7b 00
        E 1 b5 7b 00
        E 0 b6 7b 00
        E 1 b7 7b 00
        E 1 b8 7b 00
        E 0 b9 7b 00
        E 1 ba 7b 00
        E 0 bb 7b 00
        E 1 bc 7b 00
        E 0 bd 7b 00
        E 1 be 7b 00
        E 0 bf 7b 00
        E 1 89 4d 00
        E 0 b0 79 00
        E 1 b1 79 00
        E 1 b2 79 00
        E 0 b3 79 00
        E 0 b4 79 00
        E 1 b5 79 00
        E 0 b6 79 00
        E 1 b7 79 00
        E 0 b8 79 00
        E 1 b9 79 00
        E 0 ba 79 00
        E 0 bb 79 00
        E 0 bc 79 00
        E 0 bd 79 00
        E 1 be 79 00
        E 0 bf 79 00
        E 6601 b0 7b 00
        CCINTERP 32
        CHASE_CC_TAKEOFFS 1
        GUID {D28CA946-B647-4750-87F9-86DC28A534B1}
        IGNTEMPO 0 120 4 4
        SRCCOLOR 48
        VELLANE -1 100 0
      >
    >
    <ITEM
      POSITION 73.45520640000086
      SNAPOFFS 0
      LENGTH 2.615721984
      LOOP 1
      ALLTAKES 0
      FADEIN 1 0 0 1 0 0 0
      FADEOUT 1 0 0 1 0 0 0
      MUTE 0 0
      SEL 0
      IGUID {AD0A9379-4674-4DBB-A88A-AD13CAC556D1}
      IID 14
      NAME "02-Recorded MIDI"
      VOLPAN 1 0 1 -1
      SOFFS 31.66384553737998 63.32769107475997
      PLAYRATE 1 1 0 -1 0 0.0025
      CHANMODE 0
      GUID {E9B50C48-40F6-485B-B1C2-1684538F403A}
      RECPASS 7
      <SOURCE MIDI
        HASDATA 1 960 QN
        CCINTERP 32
        POOLEDEVTS {7B3A4137-2D77-4AA7-9646-9ACCF9880B1C}
        E 17732 c9 00 00
        E 0 c0 01 00
        E 1 c0 01 00
        E 2883 b0 7b 00
        E 1 b1 7b 00
        E 0 b2 7b 00
        E 1 b3 7b 00
        E 1 b4 7b 00
        E 1 b5 7b 00
        E 0 b6 7b 00
        E 1 b7 7b 00
        E 1 b8 7b 00
        E 0 b9 7b 00
        E 1 ba 7b 00
        E 0 bb 7b 00
        E 1 bc 7b 00
        E 1 bd 7b 00
        E 1 be 7b 00
        E 0 bf 7b 00
        E 1 c9 00 00
        E 1 c0 01 00
        E 1 b0 07 64
        E 0 b0 0a 40
        E 1 b0 5b 3b
        E 1 b0 5d 00
        E 103 c0 01 00
        E 0 c0 01 00
        E 0 90 24 64
        E 39 80 24 64
        E 0 90 25 64
        E 37 80 25 64
        E 0 90 25 66
        E 40 80 25 66
        E 0 90 28 64
        E 38 80 28 64
        E 0 90 29 63
        E 37 80 29 63
        E 0 90 29 64
        E 39 80 29 64
        E 1 90 29 65
        E 40 80 29 65
        E 0 90 2a 64
        E 37 80 2a 64
        E 0 90 2a 65
        E 38 80 2a 65
        E 0 90 2a 66
        E 37 80 2a 66
        E 1 90 2a 67
        E 40 80 2a 67
        E 0 90 2b 64
        E 36 80 2b 64
        E 0 90 2b 65
        E 40 80 2b 65
        E 0 90 2c 64
        E 38 80 2c 64
        E 0 90 2c 65
        E 38 80 2c 65
        E 0 90 2c 66
        E 37 80 2c 66
        E 0 90 2c 67
        E 38 80 2c 67
        E 0 90 2d 64
        E 42 80 2d 64
        E 0 90 2d 65
        E 36 80 2d 65
        E 0 90 2e 64
        E 38 80 2e 64
        E 1 90 2e 65
        E 37 80 2e 65
        E 1 90 2e 66
        E 39 80 2e 66
        E 1 90 2e 67
        E 36 80 2e 67
        E 1 90 2f 64
        E 38 80 2f 64
        E 0 90 2f 65
        E 41 80 2f 65
        E 0 90 30 63
        E 36 80 30 63
        E 0 90 30 64
        E 38 80 30 64
        E 0 90 30 65
        E 39 80 30 65
        E 0 90 31 64
        E 40 80 31 64
        E 0 90 31 65
        E 38 80 31 65
        E 0 90 31 66
        E 37 80 31 66
        E 0 90 31 67
        E 38 80 31 67
        E 0 90 32 64
        E 40 80 32 64
        E 0 90 32 65
        E 36 80 32 65
        E 0 90 33 64
        E 42 80 33 64
        E 0 90 33 65
        E 36 80 33 65
        E 0 90 33 66
        E 38 80 33 66
        E 0 90 33 67
        E 41 80 33 67
        E 0 90 34 64
        E 37 80 34 64
        E 0 90 34 65
        E 38 80 34 65
        E 0 90 35 63
        E 40 80 35 63
        E 0 90 35 64
        E 36 80 35 64
        E 0 90 35 65
        E 39 80 35 65
        E 0 90 36 64
        E 37 80 36 64
        E 0 90 36 65
        E 38 80 36 65
        E 1 90 36 66
        E 41 80 36 66
        E 0 90 36 67
        E 36 80 36 67
        E 1 90 37 64
        E 37 80 37 64
        E 0 90 37 65
        E 40 80 37 65
        E 0 90 38 64
        E 41 80 38 64
        E 0 90 38 65
        E 35 80 38 65
        E 0 90 38 66
        E 39 80 38 66
        E 0 90 38 67
        E 36 80 38 67
        E 0 90 39 64
        E 40 80 39 64
        E 0 90 39 65
        E 38 80 39 65
        E 0 90 3a 64
        E 39 80 3a 64
        E 0 90 3a 65
        E 37 80 3a 65
        E 1 90 3a 66
        E 40 80 3a 66
        E 1 90 3a 67
        E 37 80 3a 67
        E 0 90 3b 64
        E 40 80 3b 64
        E 0 90 3b 65
        E 36 80 3b 65
        E 0 90 3c 63
        E 40 80 3c 63
        E 0 90 3c 64
        E 37 80 3c 64
        E 0 90 3c 65
        E 38 80 3c 65
        E 0 90 3d 64
        E 40 80 3d 64
        E 0 90 3d 65
        E 38 80 3d 65
        E 0 90 3d 66
        E 39 80 3d 66
        E 0 90 3d 67
        E 36 80 3d 67
        E 0 90 3e 64
        E 38 80 3e 64
        E 0 90 3e 65
        E 40 80 3e 65
        E 0 90 3f 64
        E 39 80 3f 64
        E 0 90 3f 65
        E 39 80 3f 65
        E 0 90 3f 66
        E 38 80 3f 66
        E 1 90 3f 67
        E 35 80 3f 67
        E 0 90 40 64
        E 40 80 40 64
        E 1 90 40 65
        E 38 80 40 65
        E 0 90 41 63
        E 38 80 41 63
        E 0 90 41 64
        E 37 80 41 64
        E 0 90 41 65
        E 40 80 41 65
        E 0 90 42 64
        E 39 80 42 64
        E 0 90 42 65
        E 36 80 42 65
        E 1 90 42 66
        E 38 80 42 66
        E 1 90 42 67
        E 38 80 42 67
        E 0 90 43 64
        E 36 80 43 64
        E 1 90 43 65
        E 40 80 43 65
        E 0 90 44 64
        E 38 80 44 64
        E 0 90 44 65
        E 39 80 44 65
        E 0 90 44 66
        E 38 80 44 66
        E 0 90 44 67
        E 39 80 44 67
        E 1 90 45 64
        E 37 80 45 64
        E 0 90 45 65
        E 37 80 45 65
        E 0 90 46 64
        E 39 80 46 64
        E 0 90 46 65
        E 39 80 46 65
        E 0 90 46 66
        E 37 80 46 66
        E 0 90 46 67
        E 37 80 46 67
        E 1 90 47 64
        E 39 80 47 64
        E 0 90 47 65
        E 40 80 47 65
        E 0 90 48 63
        E 39 80 48 63
        E 0 90 48 64
        E 39 80 48 64
        E 0 90 48 65
        E 37 80 48 65
        E 0 90 49 64
        E 40 80 49 64
        E 0 90 49 65
        E 37 80 49 65
        E 0 90 49 66
        E 37 80 49 66
        E 0 90 49 67
        E 42 80 49 67
        E 0 90 4a 64
        E 34 80 4a 64
        E 1 90 4a 65
        E 40 80 4a 65
        E 0 90 4b 64
        E 38 80 4b 64
        E 0 90 4b 65
        E 38 80 4b 65
        E 0 90 4b 66
        E 40 80 4b 66
        E 0 90 4b 67
        E 36 80 4b 67
        E 1 90 4c 64
        E 36 80 4c 64
        E 1 90 4c 65
        E 42 80 4c 65
        E 0 90 4d 63
        E 35 80 4d 63
        E 0 90 4d 64
        E 39 80 4d 64
        E 0 90 4d 65
        E 39 80 4d 65
        E 0 90 4e 64
        E 37 80 4e 64
        E 0 90 4e 65
        E 38 80 4e 65
        E 0 90 4e 66
        E 42 80 4e 66
        E 0 90 4e 67
        E 36 80 4e 67
        E 0 90 4f 64
        E 38 80 4f 64
        E 0 90 4f 65
        E 37 80 4f 65
        E 1 90 50 64
        E 40 80 50 64
        E 0 90 50 65
        E 41 80 50 65
        E 0 90 50 66
        E 36 80 50 66
        E 0 90 50 67
        E 37 80 50 67
        E 0 90 51 64
        E 40 80 51 64
        E 0 90 51 65
        E 37 80 51 65
        E 0 90 52 64
        E 39 80 52 64
        E 1 90 52 65
        E 39 80 52 65
        E 0 90 52 66
        E 36 80 52 66
        E 0 90 52 67
        E 38 80 52 67
        E 1 90 53 64
        E 37 80 53 64
        E 0 90 53 65
        E 41 80 53 65
        E 0 90 54 64
        E 37 80 54 64
        E 0 90 54 65
        E 38 80 54 65
        E 3644 b0 7b 00
        E 1 b1 7b 00
        E 1 b2 7b 00
        E 1 b3 7b 00
        E 1 b4 7b 00
        E 0 b5 7b 00
        E 1 b6 7b 00
        E 0 b7 7b 00
        E 1 b8 7b 00
        E 0 b9 7b 00
        E 1 ba 7b 00
        E 0 bb 7b 00
        E 1 bc 7b 00
        E 1 bd 7b 00
        E 1 be 7b 00
        E 1 bf 7b 00
        E 0 b0 79 00
        E 1 b1 79 00
        E 1 b2 79 00
        E 1 b3 79 00
        E 1 b4 79 00
        E 0 b5 79 00
        E 1 b6 79 00
        E 1 b7 79 00
        E 1 b8 79 00
        E 1 b9 79 00
        E 0 ba 79 00
        E 1 bb 79 00
        E 1 bc 79 00
        E 0 bd 79 00
        E 1 be 79 00
        E 0 bf 79 00
        E 12555 c9 00 00
        E 1 c0 01 00
        E 0 c0 01 00
        E 1479 b0 7b 00
        E 0 b1 7b 00
        E 1 b2 7b 00
        E 0 b3 7b 00
        E 1 b4 7b 00
        E 1 b5 7b 00
        E 0 b6 7b 00
        E 1 b7 7b 00
        E 1 b8 7b 00
        E 1 b9 7b 00
        E 0 ba 7b 00
        E 1 bb 7b 00
        E 0 bc 7b 00
        E 1 bd 7b 00
        E 1 be 7b 00
        E 1 bf 7b 00
        E 1 c9 00 00
        E 0 c0 01 00
        E 2 b0 07 64
        E 0 b0 0a 40
        E 1 b0 5b 3b
        E 1 b0 5d 00
        E 83 c0 01 00
        E 0 c0 01 00
        E 0 90 24 64
        E 29 80 24 64
        E 0 90 25 64
        E 31 80 25 64
        E 0 90 25 66
        E 30 80 25 66
        E 0 90 28 64
        E 31 80 28 64
        E 0 90 29 63
        E 31 80 29 63
        E 0 90 29 64
        E 30 80 29 64
        E 0 90 29 65
        E 28 80 29 65
        E 1 90 2a 64
        E 32 80 2a 64
        E 0 90 2a 65
        E 32 80 2a 65
        E 0 90 2a 66
        E 27 80 2a 66
        E 1 90 2a 67
        E 29 80 2a 67
        E 0 90 2b 64
        E 30 80 2b 64
        E 0 90 2b 65
        E 31 80 2b 65
        E 0 90 2c 64
        E 31 80 2c 64
        E 0 90 2c 65
        E 30 80 2c 65
        E 0 90 2c 66
        E 29 80 2c 66
        E 0 90 2c 67
        E 30 80 2c 67
        E 0 90 2d 64
        E 30 80 2d 64
        E 1 90 2d 65
        E 32 80 2d 65
        E 0 90 2e 64
        E 28 80 2e 64
        E 0 90 2e 65
        E 31 80 2e 65
        E 0 90 2e 66
        E 31 80 2e 66
        E 1 90 2e 67
        E 31 80 2e 67
        E 0 90 2f 64
        E 28 80 2f 64
        E 0 90 2f 65
        E 29 80 2f 65
        E 0 90 30 63
        E 33 80 30 63
        E 0 90 30 64
        E 31 80 30 64
        E 0 90 30 65
        E 33 80 30 65
        E 0 90 31 64
        E 27 80 31 64
        E 0 90 31 65
        E 31 80 31 65
        E 0 90 31 66
        E 28 80 31 66
        E 0 90 31 67
        E 31 80 31 67
        E 0 90 32 64
        E 33 80 32 64
        E 0 90 32 65
        E 28 80 32 65
        E 0 90 33 64
        E 30 80 33 64
        E 0 90 33 65
        E 29 80 33 65
        E 0 90 33 66
        E 31 80 33 66
        E 0 90 33 67
        E 30 80 33 67
        E 0 90 34 64
        E 32 80 34 64
        E 0 90 34 65
        E 29 80 34 65
        E 0 90 35 63
        E 31 80 35 63
        E 0 90 35 64
        E 31 80 35 64
        E 0 90 35 65
        E 28 80 35 65
        E 0 90 36 64
        E 30 80 36 64
        E 0 90 36 65
        E 32 80 36 65
        E 0 90 36 66
        E 31 80 36 66
        E 0 90 36 67
        E 30 80 36 67
        E 0 90 37 64
        E 31 80 37 64
        E 0 90 37 65
        E 31 80 37 65
        E 0 90 38 64
        E 28 80 38 64
        E 0 90 38 65
        E 30 80 38 65
        E 0 90 38 66
        E 31 80 38 66
        E 0 90 38 67
        E 31 80 38 67
        E 0 90 39 64
        E 30 80 39 64
        E 0 90 39 65
        E 29 80 39 65
        E 1 90 3a 64
        E 33 80 3a 64
        E 0 90 3a 65
        E 25 80 3a 65
        E 0 90 3a 66
        E 31 80 3a 66
        E 0 90 3a 67
        E 35 80 3a 67
        E 0 90 3b 64
        E 27 80 3b 64
        E 0 90 3b 65
        E 32 80 3b 65
        E 0 90 3c 63
        E 29 80 3c 63
        E 1 90 3c 64
        E 29 80 3c 64
        E 0 90 3c 65
        E 31 80 3c 65
        E 0 90 3d 64
        E 30 80 3d 64
        E 1 90 3d 65
        E 31 80 3d 65
        E 0 90 3d 66
        E 28 80 3d 66
        E 0 90 3d 67
        E 30 80 3d 67
        E 0 90 3e 64
        E 32 80 3e 64
        E 0 90 3e 65
        E 31 80 3e 65
        E 0 90 3f 64
        E 30 80 3f 64
        E 0 90 3f 65
        E 28 80 3f 65
        E 0 90 3f 66
        E 31 80 3f 66
        E 0 90 3f 67
        E 32 80 3f 67
        E 0 90 40 64
        E 32 80 40 64
        E 0 90 40 65
        E 27 80 40 65
        E 0 90 41 63
        E 30 80 41 63
        E 1 90 41 64
        E 29 80 41 64
        E 0 90 41 65
        E 33 80 41 65
        E 0 90 42 64
        E 31 80 42 64
        E 0 90 42 65
        E 30 80 42 65
        E 0 90 42 66
        E 30 80 42 66
        E 0 90 42 67
        E 30 80 42 67
        E 0 90 43 64
        E 28 80 43 64
        E 0 90 43 65
        E 32 80 43 65
        E 0 90 44 64
        E 31 80 44 64
        E 0 90 44 65
        E 29 80 44 65
        E 0 90 44 66
        E 30 80 44 66
        E 1 90 44 67
        E 32 80 44 67
        E 1 90 45 64
        E 30 80 45 64
        E 0 90 45 65
        E 26 80 45 65
        E 0 90 46 64
        E 32 80 46 64
        E 0 90 46 65
        E 30 80 46 65
        E 1 90 46 66
        E 29 80 46 66
        E 0 90 46 67
        E 31 80 46 67
        E 0 90 47 64
        E 30 80 47 64
        E 0 90 47 65
        E 29 80 47 65
        E 0 90 48 63
        E 33 80 48 63
        E 0 90 48 64
        E 31 80 48 64
        E 1 90 48 65
        E 27 80 48 65
        E 0 90 49 64
        E 32 80 49 64
        E 0 90 49 65
        E 31 80 49 65
        E 0 90 49 66
        E 32 80 49 66
        E 0 90 49 67
        E 27 80 49 67
        E 0 90 4a 64
        E 28 80 4a 64
        E 1 90 4a 65
        E 31 80 4a 65
        E 0 90 4b 64
        E 30 80 4b 64
        E 0 90 4b 65
        E 33 80 4b 65
        E 0 90 4b 66
        E 31 80 4b 66
        E 0 90 4b 67
        E 27 80 4b 67
        E 0 90 4c 64
        E 31 80 4c 64
        E 0 90 4c 65
        E 31 80 4c 65
        E 0 90 4d 63
        E 31 80 4d 63
        E 0 90 4d 64
        E 27 80 4d 64
        E 1 90 4d 65
        E 30 80 4d 65
        E 0 90 4e 64
        E 32 80 4e 64
        E 0 90 4e 65
        E 32 80 4e 65
        E 0 90 4e 66
        E 29 80 4e 66
        E 0 90 4e 67
        E 28 80 4e 67
        E 0 90 4f 64
        E 33 80 4f 64
        E 0 90 4f 65
        E 30 80 4f 65
        E 1 90 50 64
        E 29 80 50 64
        E 0 90 50 65
        E 30 80 50 65
        E 0 90 50 66
        E 27 80 50 66
        E 1 90 50 67
        E 32 80 50 67
        E 1 90 51 64
        E 30 80 51 64
        E 0 90 51 65
        E 30 80 51 65
        E 1 90 52 64
        E 28 80 52 64
        E 0 90 52 65
        E 33 80 52 65
        E 0 90 52 66
        E 31 80 52 66
        E 0 90 52 67
        E 28 80 52 67
        E 0 90 53 64
        E 31 80 53 64
        E 0 90 53 65
        E 29 80 53 65
        E 0 90 54 64
        E 31 80 54 64
        E 1 90 54 65
        E 29 80 54 65
        E 2143 b0 7b 00
        E 1 b1 7b 00
        E 0 b2 7b 00
        E 1 b3 7b 00
        E 1 b4 7b 00
        E 1 b5 7b 00
        E 0 b6 7b 00
        E 1 b7 7b 00
        E 1 b8 7b 00
        E 0 b9 7b 00
        E 1 ba 7b 00
        E 1 bb 7b 00
        E 0 bc 7b 00
        E 1 bd 7b 00
        E 0 be 7b 00
        E 1 bf 7b 00
        E 1 89 4d 00
        E 0 b0 79 00
        E 1 b1 79 00
        E 0 b2 79 00
        E 1 b3 79 00
        E 1 b4 79 00
        E 0 b5 79 00
        E 1 b6 79 00
        E 0 b7 79 00
        E 1 b8 79 00
        E 0 b9 79 00
        E 1 ba 79 00
        E 1 bb 79 00
        E 0 bc 79 00
        E 1 bd 79 00
        E 1 be 79 00
        E 0 bf 79 00
        E 10247 c9 00 00
        E 0 c0 01 00
        E 0 c0 01 00
        E 1580 b0 7b 00
        E 0 b1 7b 00
        E 1 b2 7b 00
        E 0 b3 7b 00
        E 1 b4 7b 00
        E 0 b5 7b 00
        E 1 b6 7b 00
        E 0 b7 7b 00
        E 0 b8 7b 00
        E 0 b9 7b 00
        E 1 ba 7b 00
        E 0 bb 7b 00
        E 0 bc 7b 00
        E 0 bd 7b 00
        E 0 be 7b 00
        E 0 bf 7b 00
        E 1 c9 00 00
        E 0 c0 01 00
        E 0 b0 07 64
        E 0 b0 0a 40
        E 1 b0 5b 3b
        E 0 b0 5d 00
        E 53 c0 01 00
        E 0 c0 01 00
        E 0 90 24 64
        E 24 80 24 64
        E 0 90 25 64
        E 22 80 25 64
        E 0 90 25 66
        E 23 80 25 66
        E 0 90 28 64
        E 22 80 28 64
        E 0 90 29 63
        E 25 80 29 63
        E 1 90 29 64
        E 25 80 29 64
        E 0 90 29 65
        E 20 80 29 65
        E 0 90 2a 64
        E 23 80 2a 64
        E 0 90 2a 65
        E 22 80 2a 65
        E 0 90 2a 66
        E 23 80 2a 66
        E 0 90 2a 67
        E 22 80 2a 67
        E 0 90 2b 64
        E 23 80 2b 64
        E 1 90 2b 65
        E 26 80 2b 65
        E 0 90 2c 64
        E 21 80 2c 64
        E 0 90 2c 65
        E 22 80 2c 65
        E 1 90 2c 66
        E 22 80 2c 66
        E 0 90 2c 67
        E 24 80 2c 67
        E 0 90 2d 64
        E 23 80 2d 64
        E 0 90 2d 65
        E 22 80 2d 65
        E 1 90 2e 64
        E 24 80 2e 64
        E 1 90 2e 65
        E 20 80 2e 65
        E 0 90 2e 66
        E 23 80 2e 66
        E 0 90 2e 67
        E 25 80 2e 67
        E 1 90 2f 64
        E 23 80 2f 64
        E 0 90 2f 65
        E 23 80 2f 65
        E 0 90 30 63
        E 23 80 30 63
        E 0 90 30 64
        E 21 80 30 64
        E 0 90 30 65
        E 23 80 30 65
        E 0 90 31 64
        E 22 80 31 64
        E 0 90 31 65
        E 23 80 31 65
        E 0 90 31 66
        E 26 80 31 66
        E 1 90 31 67
        E 21 80 31 67
        E 0 90 32 64
        E 24 80 32 64
        E 0 90 32 65
        E 21 80 32 65
        E 0 90 33 64
        E 22 80 33 64
        E 0 90 33 65
        E 25 80 33 65
        E 0 90 33 66
        E 23 80 33 66
        E 0 90 33 67
        E 24 80 33 67
        E 1 90 34 64
        E 21 80 34 64
        E 1 90 34 65
        E 23 80 34 65
        E 0 90 35 63
        E 23 80 35 63
        E 0 90 35 64
        E 23 80 35 64
        E 1 90 35 65
        E 22 80 35 65
        E 1 90 36 64
        E 20 80 36 64
        E 0 90 36 65
        E 22 80 36 65
        E 0 90 36 66
        E 24 80 36 66
        E 1 90 36 67
        E 22 80 36 67
        E 1 90 37 64
        E 24 80 37 64
        E 1 90 37 65
        E 24 80 37 65
        E 0 90 38 64
        E 21 80 38 64
        E 1 90 38 65
        E 21 80 38 65
        E 0 90 38 66
        E 22 80 38 66
        E 1 90 38 67
        E 22 80 38 67
        E 0 90 39 64
        E 26 80 39 64
        E 1 90 39 65
        E 22 80 39 65
        E 1 90 3a 64
        E 21 80 3a 64
        E 0 90 3a 65
        E 23 80 3a 65
        E 0 90 3a 66
        E 23 80 3a 66
        E 0 90 3a 67
        E 22 80 3a 67
        E 1 90 3b 64
        E 24 80 3b 64
        E 0 90 3b 65
        E 22 80 3b 65
        E 0 90 3c 63
        E 21 80 3c 63
        E 0 90 3c 64
        E 23 80 3c 64
        E 0 90 3c 65
        E 23 80 3c 65
        E 1 90 3d 64
        E 26 80 3d 64
        E 0 90 3d 65
        E 21 80 3d 65
        E 0 90 3d 66
        E 22 80 3d 66
        E 0 90 3d 67
        E 23 80 3d 67
        E 0 90 3e 64
        E 25 80 3e 64
        E 0 90 3e 65
        E 25 80 3e 65
        E 0 90 3f 64
        E 20 80 3f 64
        E 0 90 3f 65
        E 23 80 3f 65
        E 0 90 3f 66
        E 23 80 3f 66
        E 0 90 3f 67
        E 23 80 3f 67
        E 0 90 40 64
        E 24 80 40 64
        E 1 90 40 65
        E 22 80 40 65
        E 0 90 41 63
        E 25 80 41 63
        E 0 90 41 64
        E 22 80 41 64
        E 0 90 41 65
        E 21 80 41 65
        E 1 90 42 64
        E 22 80 42 64
        E 0 90 42 65
        E 22 80 42 65
        E 0 90 42 66
        E 25 80 42 66
        E 0 90 42 67
        E 25 80 42 67
        E 0 90 43 64
        E 21 80 43 64
        E 0 90 43 65
        E 23 80 43 65
        E 0 90 44 64
        E 23 80 44 64
        E 0 90 44 65
        E 26 80 44 65
        E 0 90 44 66
        E 22 80 44 66
        E 0 90 44 67
        E 19 80 44 67
        E 0 90 45 64
        E 23 80 45 64
        E 0 90 45 65
        E 24 80 45 65
        E 1 90 46 64
        E 25 80 46 64
        E 0 90 46 65
        E 21 80 46 65
        E 0 90 46 66
        E 25 80 46 66
        E 0 90 46 67
        E 21 80 46 67
        E 0 90 47 64
        E 22 80 47 64
        E 0 90 47 65
        E 23 80 47 65
        E 0 90 48 63
        E 23 80 48 63
        E 0 90 48 64
        E 24 80 48 64
        E 1 90 48 65
        E 23 80 48 65
        E 0 90 49 64
        E 23 80 49 64
        E 0 90 49 65
        E 22 80 49 65
        E 0 90 49 66
        E 23 80 49 66
        E 0 90 49 67
        E 25 80 49 67
        E 0 90 4a 64
        E 25 80 4a 64
        E 0 90 4a 65
        E 18 80 4a 65
        E 0 90 4b 64
        E 22 80 4b 64
        E 0 90 4b 65
        E 25 80 4b 65
        E 1 90 4b 66
        E 22 80 4b 66
        E 1 90 4b 67
        E 22 80 4b 67
        E 1 90 4c 64
        E 21 80 4c 64
        E 1 90 4c 65
        E 24 80 4c 65
        E 0 90 4d 63
        E 23 80 4d 63
        E 0 90 4d 64
        E 23 80 4d 64
        E 0 90 4d 65
        E 24 80 4d 65
        E 1 90 4e 64
        E 21 80 4e 64
        E 1 90 4e 65
        E 21 80 4e 65
        E 0 90 4e 66
        E 25 80 4e 66
        E 0 90 4e 67
        E 22 80 4e 67
        E 0 90 4f 64
        E 22 80 4f 64
        E 0 90 4f 65
        E 26 80 4f 65
        E 0 90 50 64
        E 22 80 50 64
        E 0 90 50 65
        E 22 80 50 65
        E 1 90 50 66
        E 22 80 50 66
        E 0 90 50 67
        E 23 80 50 67
        E 0 90 51 64
        E 23 80 51 64
        E 0 90 51 65
        E 23 80 51 65
        E 1 90 52 64
        E 21 80 52 64
        E 0 90 52 65
        E 26 80 52 65
        E 0 90 52 66
        E 23 80 52 66
        E 0 90 52 67
        E 20 80 52 67
        E 0 90 53 64
        E 25 80 53 64
        E 0 90 53 65
        E 24 80 53 65
        E 0 90 54 64
        E 22 80 54 64
        E 0 90 54 65
        E 23 80 54 65
        E 4965 b0 7b 00
        E 1 b1 7b 00
        E 0 b2 7b 00
        E 1 b3 7b 00
        E 0 b4 7b 00
        E 1 b5 7b 00
        E 0 b6 7b 00
        E 1 b7 7b 00
        E 1 b8 7b 00
        E 0 b9 7b 00
        E 1 ba 7b 00
        E 0 bb 7b 00
        E 1 bc 7b 00
        E 0 bd 7b 00
        E 1 be 7b 00
        E 0 bf 7b 00
        E 1 89 4d 00
        E 0 b0 79 00
        E 1 b1 79 00
        E 1 b2 79 00
        E 0 b3 79 00
        E 0 b4 79 00
        E 1 b5 79 00
        E 0 b6 79 00
        E 1 b7 79 00
        E 0 b8 79 00
        E 1 b9 79 00
        E 0 ba 79 00
        E 0 bb 79 00
        E 0 bc 79 00
        E 0 bd 79 00
        E 1 be 79 00
        E 0 bf 79 00
        E 6601 b0 7b 00
        CCINTERP 32
        CHASE_CC_TAKEOFFS 1
        GUID {D28CA946-B647-4750-87F9-86DC28A534B1}
        IGNTEMPO 0 120 4 4
        SRCCOLOR 48
        VELLANE -1 100 0
      >
    >
    <ITEM
      POSITION 76.96408176227905
      SNAPOFFS 0
      LENGTH 0.74855416192381
      LOOP 1
      ALLTAKES 0
      FADEIN 1 0 0 1 0 0 0
      FADEOUT 1 0 0 1 0 0 0
      MUTE 0 0
      SEL 0
      IGUID {D5662E82-29CC-4028-8E9A-E2518E5504DE}
      IID 42
      NAME "04-Recorded MIDI"
      VOLPAN 1 0 1 -1
      SOFFS 9.46295689288769 18.92591378577538
      PLAYRATE 1 1 0 -1 0 0.0025
      CHANMODE 0
      GUID {CF8DAC66-E268-4ED0-A304-A04D4694DFA5}
      RECPASS 11
      <SOURCE MIDI
        HASDATA 1 960 QN
        CCINTERP 32
        POOLEDEVTS {261B32CC-9427-4670-A485-337FDBC36C0B}
        E 3916 b0 7b 00
        E 0 b1 7b 00
        E 1 b2 7b 00
        E 1 b3 7b 00
        E 0 b4 7b 00
        E 1 b5 7b 00
        E 1 b6 7b 00
        E 1 b7 7b 00
        E 0 b8 7b 00
        E 2 b9 7b 00
        E 1 ba 7b 00
        E 1 bb 7b 00
        E 1 bc 7b 00
        E 0 bd 7b 00
        E 1 be 7b 00
        E 1 bf 7b 00
        E 1 b0 79 00
        E 1 b1 79 00
        E 0 b2 79 00
        E 1 b3 79 00
        E 1 b4 79 00
        E 1 b5 79 00
        E 0 b6 79 00
        E 1 b7 79 00
        E 1 b8 79 00
        E 1 b9 79 00
        E 0 ba 79 00
        E 2 bb 79 00
        E 0 bc 79 00
        E 1 bd 79 00
        E 0 be 79 00
        E 1 bf 79 00
        E 9604 b0 7b 00
        E 0 b1 7b 00
        E 1 b2 7b 00
        E 1 b3 7b 00
        E 1 b4 7b 00
        E 1 b5 7b 00
        E 0 b6 7b 00
        E 1 b7 7b 00
        E 0 b8 7b 00
        E 1 b9 7b 00
        E 1 ba 7b 00
        E 1 bb 7b 00
        E 0 bc 7b 00
        E 1 bd 7b 00
        E 0 be 7b 00
        E 1 bf 7b 00
        E 3 c9 00 00
        E 0 c0 01 00
        E 1 c1 01 00
        E 1 c2 01 00
        E 1 c3 01 00
        E 0 c4 01 00
        E 1 c5 01 00
        E 17 b0 07 64
        E 1 b0 0a 40
        E 0 b0 5b 3b
        E 1 b0 5d 00
        E 0 b1 07 64
        E 0 b1 0a 40
        E 1 b1 5b 3b
        E 0 b1 5d 00
        E 0 b2 07 64
        E 1 b2 0a 40
        E 0 b2 5b 3b
        E 0 b2 5d 00
        E 0 b3 07 64
        E 1 b3 0a 40
        E 0 b3 5b 3b
        E 0 b3 5d 00
        E 0 b4 07 64
        E 0 b4 0a 40
        E 1 b4 5b 3b
        E 0 b4 5d 00
        E 0 b5 07 64
        E 0 b5 0a 40
        E 0 b5 5b 3b
        E 0 b5 5d 00
        E 12 c0 01 00
        E 1 c1 01 00
        E 0 c2 01 00
        E 0 c3 01 00
        E 0 c4 01 00
        E 0 c5 01 00
        E 4798 80 23 00
        E 1 80 28 00
        E 0 80 2f 00
        E 0 80 34 00
        E 1 80 3b 00
        E 0 81 29 00
        E 0 81 30 00
        E 1 81 35 00
        E 0 81 3c 00
        E 0 90 25 67
        E 1 90 27 67
        E 0 90 2a 67
        E 0 90 2c 67
        E 1 90 2e 67
        E 0 90 31 67
        E 0 90 33 67
        E 0 90 36 67
        E 1 90 38 67
        E 0 90 3a 67
        E 0 91 25 65
        E 0 91 27 65
        E 1 91 2a 65
        E 0 91 2c 65
        E 0 91 2e 65
        E 1 91 31 65
        E 0 91 33 65
        E 1 91 36 65
        E 0 91 38 65
        E 1 91 3a 65
        E 0 91 3d 65
        E 0 92 24 65
        E 1 92 26 65
        E 0 92 28 65
        E 0 92 29 65
        E 1 92 2b 65
        E 0 92 2d 65
        E 1 92 2f 65
        E 0 92 30 65
        E 1 92 32 65
        E 0 92 34 65
        E 0 92 35 65
        E 0 92 37 65
        E 1 92 39 65
        E 0 92 3b 65
        E 0 92 3c 65
        E 1 93 23 66
        E 0 93 25 66
        E 0 93 27 66
        E 1 93 28 66
        E 0 93 2a 66
        E 0 93 2c 66
        E 0 93 2e 66
        E 0 93 2f 66
        E 0 93 31 66
        E 1 93 33 66
        E 0 93 34 66
        E 0 93 36 66
        E 0 93 38 66
        E 0 93 3a 66
        E 1 93 3b 66
        E 0 94 25 64
        E 0 94 27 64
        E 0 94 29 63
        E 0 94 2a 64
        E 1 94 2c 64
        E 0 94 2e 64
        E 0 94 30 63
        E 0 94 31 64
        E 0 94 33 64
        E 1 94 35 63
        E 0 94 36 64
        E 0 94 38 64
        E 0 94 3a 64
        E 0 94 3c 63
        E 1 94 3d 64
        E 0 95 24 64
        E 0 95 26 64
        E 0 95 28 64
        E 0 95 29 64
        E 0 95 2b 64
        E 0 95 2d 64
        E 1 95 2f 64
        E 0 95 30 64
        E 0 95 32 64
        E 0 95 34 64
        E 0 95 35 64
        E 0 95 37 64
        E 1 95 39 64
        E 0 95 3b 64
        E 0 95 3c 64
        E 936 80 23 00
        E 0 80 25 67
        E 1 80 27 67
        E 0 80 28 00
        E 1 80 2a 67
        E 0 80 2c 67
        E 1 80 2e 67
        E 0 80 2f 00
        E 1 80 31 67
        E 0 80 33 67
        E 0 80 34 00
        E 1 80 36 67
        E 1 80 38 67
        E 0 80 3a 67
        E 1 80 3b 00
        E 0 81 25 65
        E 1 81 27 65
        E 1 81 29 00
        E 0 81 2a 65
        E 1 81 2c 65
        E 0 81 2e 65
        E 0 81 30 00
        E 0 81 31 65
        E 0 81 33 65
        E 0 81 35 00
        E 0 81 36 65
        E 0 81 38 65
        E 0 81 3a 65
        E 0 81 3c 00
        E 0 81 3d 65
        E 0 82 24 65
        E 0 82 26 65
        E 1 82 28 65
        E 0 82 29 65
        E 0 82 2b 65
        E 0 82 2d 65
        E 0 82 2f 65
        E 0 82 30 65
        E 0 82 32 65
        E 0 82 34 65
        E 0 82 35 65
        E 0 82 37 65
        E 0 82 39 65
        E 0 82 3b 65
        E 0 82 3c 65
        E 1 83 23 66
        E 0 83 25 66
        E 0 83 27 66
        E 0 83 28 66
        E 0 83 2a 66
        E 1 83 2c 66
        E 0 83 2e 66
        E 0 83 2f 66
        E 0 83 31 66
        E 0 83 33 66
        E 0 83 34 66
        E 0 83 36 66
        E 0 83 38 66
        E 0 83 3a 66
        E 0 83 3b 66
        E 1 84 25 64
        E 0 84 27 64
        E 0 84 29 63
        E 0 84 2a 64
        E 0 84 2c 64
        E 0 84 2e 64
        E 1 84 30 63
        E 0 84 31 64
        E 0 84 33 64
        E 0 84 35 63
        E 0 84 36 64
        E 0 84 38 64
        E 0 84 3a 64
        E 0 84 3c 63
        E 0 84 3d 64
        E 0 85 24 64
        E 0 85 26 64
        E 0 85 28 64
        E 0 85 29 64
        E 0 85 2b 64
        E 0 85 2d 64
        E 0 85 2f 64
        E 0 85 30 64
        E 1 85 32 64
        E 0 85 34 64
        E 0 85 35 64
        E 0 85 37 64
        E 0 85 39 64
        E 0 85 3b 64
        E 0 85 3c 64
        E 235 b0 7b 00
        CCINTERP 32
        CHASE_CC_TAKEOFFS 1
        GUID {0B7209BE-B5AE-4E62-853F-1A578EE6A0F1}
        IGNTEMPO 0 120 4 4
        SRCCOLOR 84
      >
    >
    <ITEM
      POSITION 78.91762555071418
      SNAPOFFS 0
      LENGTH 0.79419770838253
      LOOP 1
      ALLTAKES 0
      FADEIN 1 0 0 1 0 0 0
      FADEOUT 1 0 0 1 0 0 0
      MUTE 0 0
      SEL 0
      IGUID {91345C88-3B49-466E-BB0A-580D80BE8224}
      IID 44
      NAME "04-Recorded MIDI"
      VOLPAN 1 0 1 -1
      SOFFS 11.41650068132282 22.83300136264563
      PLAYRATE 1 1 0 -1 0 0.0025
      CHANMODE 0
      GUID {392CB94E-F239-47F0-9FCA-33DE613F7BD8}
      RECPASS 11
      <SOURCE MIDI
        HASDATA 1 960 QN
        CCINTERP 32
        POOLEDEVTS {FA27F4C8-963F-41CF-8DE5-7AB547C18869}
        E 3916 b0 7b 00
        E 0 b1 7b 00
        E 1 b2 7b 00
        E 1 b3 7b 00
        E 0 b4 7b 00
        E 1 b5 7b 00
        E 1 b6 7b 00
        E 1 b7 7b 00
        E 0 b8 7b 00
        E 2 b9 7b 00
        E 1 ba 7b 00
        E 1 bb 7b 00
        E 1 bc 7b 00
        E 0 bd 7b 00
        E 1 be 7b 00
        E 1 bf 7b 00
        E 1 b0 79 00
        E 1 b1 79 00
        E 0 b2 79 00
        E 1 b3 79 00
        E 1 b4 79 00
        E 1 b5 79 00
        E 0 b6 79 00
        E 1 b7 79 00
        E 1 b8 79 00
        E 1 b9 79 00
        E 0 ba 79 00
        E 2 bb 79 00
        E 0 bc 79 00
        E 1 bd 79 00
        E 0 be 79 00
        E 1 bf 79 00
        E 9604 b0 7b 00
        E 0 b1 7b 00
        E 1 b2 7b 00
        E 1 b3 7b 00
        E 1 b4 7b 00
        E 1 b5 7b 00
        E 0 b6 7b 00
        E 1 b7 7b 00
        E 0 b8 7b 00
        E 1 b9 7b 00
        E 1 ba 7b 00
        E 1 bb 7b 00
        E 0 bc 7b 00
        E 1 bd 7b 00
        E 0 be 7b 00
        E 1 bf 7b 00
        E 3 c9 00 00
        E 0 c0 01 00
        E 1 c1 01 00
        E 1 c2 01 00
        E 1 c3 01 00
        E 0 c4 01 00
        E 1 c5 01 00
        E 17 b0 07 64
        E 1 b0 0a 40
        E 0 b0 5b 3b
        E 1 b0 5d 00
        E 0 b1 07 64
        E 0 b1 0a 40
        E 1 b1 5b 3b
        E 0 b1 5d 00
        E 0 b2 07 64
        E 1 b2 0a 40
        E 0 b2 5b 3b
        E 0 b2 5d 00
        E 0 b3 07 64
        E 1 b3 0a 40
        E 0 b3 5b 3b
        E 0 b3 5d 00
        E 0 b4 07 64
        E 0 b4 0a 40
        E 1 b4 5b 3b
        E 0 b4 5d 00
        E 0 b5 07 64
        E 0 b5 0a 40
        E 0 b5 5b 3b
        E 0 b5 5d 00
        E 12 c0 01 00
        E 1 c1 01 00
        E 0 c2 01 00
        E 0 c3 01 00
        E 0 c4 01 00
        E 0 c5 01 00
        E 4798 80 23 00
        E 1 80 28 00
        E 0 80 2f 00
        E 0 80 34 00
        E 1 80 3b 00
        E 0 81 29 00
        E 0 81 30 00
        E 1 81 35 00
        E 0 81 3c 00
        E 0 90 25 67
        E 1 90 27 67
        E 0 90 2a 67
        E 0 90 2c 67
        E 1 90 2e 67
        E 0 90 31 67
        E 0 90 33 67
        E 0 90 36 67
        E 1 90 38 67
        E 0 90 3a 67
        E 0 91 25 65
        E 0 91 27 65
        E 1 91 2a 65
        E 0 91 2c 65
        E 0 91 2e 65
        E 1 91 31 65
        E 0 91 33 65
        E 1 91 36 65
        E 0 91 38 65
        E 1 91 3a 65
        E 0 91 3d 65
        E 0 92 24 65
        E 1 92 26 65
        E 0 92 28 65
        E 0 92 29 65
        E 1 92 2b 65
        E 0 92 2d 65
        E 1 92 2f 65
        E 0 92 30 65
        E 1 92 32 65
        E 0 92 34 65
        E 0 92 35 65
        E 0 92 37 65
        E 1 92 39 65
        E 0 92 3b 65
        E 0 92 3c 65
        E 1 93 23 66
        E 0 93 25 66
        E 0 93 27 66
        E 1 93 28 66
        E 0 93 2a 66
        E 0 93 2c 66
        E 0 93 2e 66
        E 0 93 2f 66
        E 0 93 31 66
        E 1 93 33 66
        E 0 93 34 66
        E 0 93 36 66
        E 0 93 38 66
        E 0 93 3a 66
        E 1 93 3b 66
        E 0 94 25 64
        E 0 94 27 64
        E 0 94 29 63
        E 0 94 2a 64
        E 1 94 2c 64
        E 0 94 2e 64
        E 0 94 30 63
        E 0 94 31 64
        E 0 94 33 64
        E 1 94 35 63
        E 0 94 36 64
        E 0 94 38 64
        E 0 94 3a 64
        E 0 94 3c 63
        E 1 94 3d 64
        E 0 95 24 64
        E 0 95 26 64
        E 0 95 28 64
        E 0 95 29 64
        E 0 95 2b 64
        E 0 95 2d 64
        E 1 95 2f 64
        E 0 95 30 64
        E 0 95 32 64
        E 0 95 34 64
        E 0 95 35 64
        E 0 95 37 64
        E 1 95 39 64
        E 0 95 3b 64
        E 0 95 3c 64
        E 936 80 23 00
        E 0 80 25 67
        E 1 80 27 67
        E 0 80 28 00
        E 1 80 2a 67
        E 0 80 2c 67
        E 1 80 2e 67
        E 0 80 2f 00
        E 1 80 31 67
        E 0 80 33 67
        E 0 80 34 00
        E 1 80 36 67
        E 1 80 38 67
        E 0 80 3a 67
        E 1 80 3b 00
        E 0 81 25 65
        E 1 81 27 65
        E 1 81 29 00
        E 0 81 2a 65
        E 1 81 2c 65
        E 0 81 2e 65
        E 0 81 30 00
        E 0 81 31 65
        E 0 81 33 65
        E 0 81 35 00
        E 0 81 36 65
        E 0 81 38 65
        E 0 81 3a 65
        E 0 81 3c 00
        E 0 81 3d 65
        E 0 82 24 65
        E 0 82 26 65
        E 1 82 28 65
        E 0 82 29 65
        E 0 82 2b 65
        E 0 82 2d 65
        E 0 82 2f 65
        E 0 82 30 65
        E 0 82 32 65
        E 0 82 34 65
        E 0 82 35 65
        E 0 82 37 65
        E 0 82 39 65
        E 0 82 3b 65
        E 0 82 3c 65
        E 1 83 23 66
        E 0 83 25 66
        E 0 83 27 66
        E 0 83 28 66
        E 0 83 2a 66
        E 1 83 2c 66
        E 0 83 2e 66
        E 0 83 2f 66
        E 0 83 31 66
        E 0 83 33 66
        E 0 83 34 66
        E 0 83 36 66
        E 0 83 38 66
        E 0 83 3a 66
        E 0 83 3b 66
        E 1 84 25 64
        E 0 84 27 64
        E 0 84 29 63
        E 0 84 2a 64
        E 0 84 2c 64
        E 0 84 2e 64
        E 1 84 30 63
        E 0 84 31 64
        E 0 84 33 64
        E 0 84 35 63
        E 0 84 36 64
        E 0 84 38 64
        E 0 84 3a 64
        E 0 84 3c 63
        E 0 84 3d 64
        E 0 85 24 64
        E 0 85 26 64
        E 0 85 28 64
        E 0 85 29 64
        E 0 85 2b 64
        E 0 85 2d 64
        E 0 85 2f 64
        E 0 85 30 64
        E 1 85 32 64
        E 0 85 34 64
        E 0 85 35 64
        E 0 85 37 64
        E 0 85 39 64
        E 0 85 3b 64
        E 0 85 3c 64
        E 2865 80 3b 00
        E 1 80 40 00
        E 0 80 47 00
        E 1 80 4c 00
        E 1 80 53 00
        E 1 81 41 00
        E 0 81 48 00
        E 0 81 4d 00
        E 1 81 54 00
        E 1 90 3d 67
        E 0 90 3f 67
        E 1 90 42 67
        E 1 90 44 67
        E 0 90 46 67
        E 1 90 49 67
        E 0 90 4b 67
        E 2 90 4e 67
        E 0 90 50 67
        E 1 90 52 67
        E 0 91 3d 65
        E 0 91 3f 65
        E 1 91 42 65
        E 0 91 44 65
        E 1 91 46 65
        E 0 91 49 65
        E 1 91 4b 65
        E 0 91 4e 65
        E 1 91 50 65
        E 1 91 52 65
        E 0 91 55 65
        E 1 92 3c 65
        E 0 92 3e 65
        E 1 92 40 65
        E 1 92 41 65
        E 0 92 43 65
        E 1 92 45 65
        E 0 92 47 65
        E 1 92 48 65
        E 0 92 4a 65
        E 1 92 4c 65
        E 1 92 4d 65
        E 0 92 4f 65
        E 0 92 51 65
        E 1 92 53 65
        E 0 92 54 65
        E 1 93 3b 66
        E 1 93 3d 66
        E 0 93 3f 66
        E 1 93 40 66
        E 0 93 42 66
        E 0 93 44 66
        E 0 93 46 66
        E 1 93 47 66
        E 0 93 49 66
        E 1 93 4b 66
        E 0 93 4c 66
        E 0 93 4e 66
        E 1 93 50 66
        E 0 93 52 66
        E 0 93 53 66
        E 1 94 3d 64
        E 0 94 3f 64
        E 0 94 41 63
        E 0 94 42 64
        E 1 94 44 64
        E 0 94 46 64
        E 1 94 48 63
        E 0 94 49 64
        E 0 94 4b 64
        E 1 94 4d 63
        E 0 94 4e 64
        E 0 94 50 64
        E 1 94 52 64
        E 0 94 54 63
        E 0 94 55 64
        E 1 95 3c 64
        E 0 95 3e 64
        E 0 95 40 64
        E 1 95 41 64
        E 0 95 43 64
        E 0 95 45 64
        E 1 95 47 64
        E 0 95 48 64
        E 0 95 4a 64
        E 0 95 4c 64
        E 0 95 4d 64
        E 1 95 4f 64
        E 0 95 51 64
        E 0 95 53 64
        E 0 95 54 64
        E 922 80 3b 00
        E 1 80 3d 67
        E 0 80 3f 67
        E 0 80 40 00
        E 1 80 42 67
        E 0 80 44 67
        E 0 80 46 67
        E 1 80 47 00
        E 0 80 49 67
        E 1 80 4b 67
        E 0 80 4c 00
        E 0 80 4e 67
        E 0 80 50 67
        E 0 80 52 67
        E 1 80 53 00
        E 0 81 3d 65
        E 0 81 3f 65
        E 0 81 41 00
        E 0 81 42 65
        E 0 81 44 65
        E 0 81 46 65
        E 0 81 48 00
        E 0 81 49 65
        E 0 81 4b 65
        E 0 81 4d 00
        E 0 81 4e 65
        E 0 81 50 65
        E 0 81 52 65
        E 0 81 54 00
        E 1 81 55 65
        E 0 82 3c 65
        E 0 82 3e 65
        E 0 82 40 65
        E 0 82 41 65
        E 0 82 43 65
        E 0 82 45 65
        E 0 82 47 65
        E 0 82 48 65
        E 0 82 4a 65
        E 0 82 4c 65
        E 0 82 4d 65
        E 0 82 4f 65
        E 0 82 51 65
        E 0 82 53 65
        E 0 82 54 65
        E 0 83 3b 66
        E 0 83 3d 66
        E 1 83 3f 66
        E 0 83 40 66
        E 0 83 42 66
        E 0 83 44 66
        E 0 83 46 66
        E 0 83 47 66
        E 0 83 49 66
        E 0 83 4b 66
        E 0 83 4c 66
        E 0 83 4e 66
        E 0 83 50 66
        E 0 83 52 66
        E 0 83 53 66
        E 0 84 3d 64
        E 0 84 3f 64
        E 0 84 41 63
        E 0 84 42 64
        E 0 84 44 64
        E 1 84 46 64
        E 0 84 48 63
        E 0 84 49 64
        E 0 84 4b 64
        E 0 84 4d 63
        E 0 84 4e 64
        E 0 84 50 64
        E 0 84 52 64
        E 0 84 54 63
        E 0 84 55 64
        E 0 85 3c 64
        E 0 85 3e 64
        E 0 85 40 64
        E 0 85 41 64
        E 0 85 43 64
        E 0 85 45 64
        E 0 85 47 64
        E 0 85 48 64
        E 1 85 4a 64
        E 0 85 4c 64
        E 0 85 4d 64
        E 0 85 4f 64
        E 0 85 51 64
        E 0 85 53 64
        E 0 85 54 64
        E 238 b0 7b 00
        CCINTERP 32
        CHASE_CC_TAKEOFFS 1
        GUID {953A319E-284D-4B36-BBBE-20C9DC7F999E}
        IGNTEMPO 0 120 4 4
        SRCCOLOR 86
      >
    >
    <ITEM
      POSITION 80.97158514135866
      SNAPOFFS 0
      LENGTH 0.72116803404847
      LOOP 1
      ALLTAKES 0
      FADEIN 1 0 0 1 0 0 0
      FADEOUT 1 0 0 1 0 0 0
      MUTE 0 0
      SEL 0
      IGUID {9C686445-0F24-4A03-9640-00DAC33F1230}
      IID 46
      NAME "04-Recorded MIDI"
      VOLPAN 1 0 1 -1
      SOFFS 13.47046027196723 26.94092054393445
      PLAYRATE 1 1 0 -1 0 0.0025
      CHANMODE 0
      GUID {05249901-0BC3-4F49-AFCB-207F38316A19}
      RECPASS 11
      <SOURCE MIDI
        HASDATA 1 960 QN
        CCINTERP 32
        POOLEDEVTS {53612FF7-8D06-4604-9E5C-F1EA01F4EA15}
        E 3916 b0 7b 00
        E 0 b1 7b 00
        E 1 b2 7b 00
        E 1 b3 7b 00
        E 0 b4 7b 00
        E 1 b5 7b 00
        E 1 b6 7b 00
        E 1 b7 7b 00
        E 0 b8 7b 00
        E 2 b9 7b 00
        E 1 ba 7b 00
        E 1 bb 7b 00
        E 1 bc 7b 00
        E 0 bd 7b 00
        E 1 be 7b 00
        E 1 bf 7b 00
        E 1 b0 79 00
        E 1 b1 79 00
        E 0 b2 79 00
        E 1 b3 79 00
        E 1 b4 79 00
        E 1 b5 79 00
        E 0 b6 79 00
        E 1 b7 79 00
        E 1 b8 79 00
        E 1 b9 79 00
        E 0 ba 79 00
        E 2 bb 79 00
        E 0 bc 79 00
        E 1 bd 79 00
        E 0 be 79 00
        E 1 bf 79 00
        E 9604 b0 7b 00
        E 0 b1 7b 00
        E 1 b2 7b 00
        E 1 b3 7b 00
        E 1 b4 7b 00
        E 1 b5 7b 00
        E 0 b6 7b 00
        E 1 b7 7b 00
        E 0 b8 7b 00
        E 1 b9 7b 00
        E 1 ba 7b 00
        E 1 bb 7b 00
        E 0 bc 7b 00
        E 1 bd 7b 00
        E 0 be 7b 00
        E 1 bf 7b 00
        E 3 c9 00 00
        E 0 c0 01 00
        E 1 c1 01 00
        E 1 c2 01 00
        E 1 c3 01 00
        E 0 c4 01 00
        E 1 c5 01 00
        E 17 b0 07 64
        E 1 b0 0a 40
        E 0 b0 5b 3b
        E 1 b0 5d 00
        E 0 b1 07 64
        E 0 b1 0a 40
        E 1 b1 5b 3b
        E 0 b1 5d 00
        E 0 b2 07 64
        E 1 b2 0a 40
        E 0 b2 5b 3b
        E 0 b2 5d 00
        E 0 b3 07 64
        E 1 b3 0a 40
        E 0 b3 5b 3b
        E 0 b3 5d 00
        E 0 b4 07 64
        E 0 b4 0a 40
        E 1 b4 5b 3b
        E 0 b4 5d 00
        E 0 b5 07 64
        E 0 b5 0a 40
        E 0 b5 5b 3b
        E 0 b5 5d 00
        E 12 c0 01 00
        E 1 c1 01 00
        E 0 c2 01 00
        E 0 c3 01 00
        E 0 c4 01 00
        E 0 c5 01 00
        E 4798 80 23 00
        E 1 80 28 00
        E 0 80 2f 00
        E 0 80 34 00
        E 1 80 3b 00
        E 0 81 29 00
        E 0 81 30 00
        E 1 81 35 00
        E 0 81 3c 00
        E 0 90 25 67
        E 1 90 27 67
        E 0 90 2a 67
        E 0 90 2c 67
        E 1 90 2e 67
        E 0 90 31 67
        E 0 90 33 67
        E 0 90 36 67
        E 1 90 38 67
        E 0 90 3a 67
        E 0 91 25 65
        E 0 91 27 65
        E 1 91 2a 65
        E 0 91 2c 65
        E 0 91 2e 65
        E 1 91 31 65
        E 0 91 33 65
        E 1 91 36 65
        E 0 91 38 65
        E 1 91 3a 65
        E 0 91 3d 65
        E 0 92 24 65
        E 1 92 26 65
        E 0 92 28 65
        E 0 92 29 65
        E 1 92 2b 65
        E 0 92 2d 65
        E 1 92 2f 65
        E 0 92 30 65
        E 1 92 32 65
        E 0 92 34 65
        E 0 92 35 65
        E 0 92 37 65
        E 1 92 39 65
        E 0 92 3b 65
        E 0 92 3c 65
        E 1 93 23 66
        E 0 93 25 66
        E 0 93 27 66
        E 1 93 28 66
        E 0 93 2a 66
        E 0 93 2c 66
        E 0 93 2e 66
        E 0 93 2f 66
        E 0 93 31 66
        E 1 93 33 66
        E 0 93 34 66
        E 0 93 36 66
        E 0 93 38 66
        E 0 93 3a 66
        E 1 93 3b 66
        E 0 94 25 64
        E 0 94 27 64
        E 0 94 29 63
        E 0 94 2a 64
        E 1 94 2c 64
        E 0 94 2e 64
        E 0 94 30 63
        E 0 94 31 64
        E 0 94 33 64
        E 1 94 35 63
        E 0 94 36 64
        E 0 94 38 64
        E 0 94 3a 64
        E 0 94 3c 63
        E 1 94 3d 64
        E 0 95 24 64
        E 0 95 26 64
        E 0 95 28 64
        E 0 95 29 64
        E 0 95 2b 64
        E 0 95 2d 64
        E 1 95 2f 64
        E 0 95 30 64
        E 0 95 32 64
        E 0 95 34 64
        E 0 95 35 64
        E 0 95 37 64
        E 1 95 39 64
        E 0 95 3b 64
        E 0 95 3c 64
        E 936 80 23 00
        E 0 80 25 67
        E 1 80 27 67
        E 0 80 28 00
        E 1 80 2a 67
        E 0 80 2c 67
        E 1 80 2e 67
        E 0 80 2f 00
        E 1 80 31 67
        E 0 80 33 67
        E 0 80 34 00
        E 1 80 36 67
        E 1 80 38 67
        E 0 80 3a 67
        E 1 80 3b 00
        E 0 81 25 65
        E 1 81 27 65
        E 1 81 29 00
        E 0 81 2a 65
        E 1 81 2c 65
        E 0 81 2e 65
        E 0 81 30 00
        E 0 81 31 65
        E 0 81 33 65
        E 0 81 35 00
        E 0 81 36 65
        E 0 81 38 65
        E 0 81 3a 65
        E 0 81 3c 00
        E 0 81 3d 65
        E 0 82 24 65
        E 0 82 26 65
        E 1 82 28 65
        E 0 82 29 65
        E 0 82 2b 65
        E 0 82 2d 65
        E 0 82 2f 65
        E 0 82 30 65
        E 0 82 32 65
        E 0 82 34 65
        E 0 82 35 65
        E 0 82 37 65
        E 0 82 39 65
        E 0 82 3b 65
        E 0 82 3c 65
        E 1 83 23 66
        E 0 83 25 66
        E 0 83 27 66
        E 0 83 28 66
        E 0 83 2a 66
        E 1 83 2c 66
        E 0 83 2e 66
        E 0 83 2f 66
        E 0 83 31 66
        E 0 83 33 66
        E 0 83 34 66
        E 0 83 36 66
        E 0 83 38 66
        E 0 83 3a 66
        E 0 83 3b 66
        E 1 84 25 64
        E 0 84 27 64
        E 0 84 29 63
        E 0 84 2a 64
        E 0 84 2c 64
        E 0 84 2e 64
        E 1 84 30 63
        E 0 84 31 64
        E 0 84 33 64
        E 0 84 35 63
        E 0 84 36 64
        E 0 84 38 64
        E 0 84 3a 64
        E 0 84 3c 63
        E 0 84 3d 64
        E 0 85 24 64
        E 0 85 26 64
        E 0 85 28 64
        E 0 85 29 64
        E 0 85 2b 64
        E 0 85 2d 64
        E 0 85 2f 64
        E 0 85 30 64
        E 1 85 32 64
        E 0 85 34 64
        E 0 85 35 64
        E 0 85 37 64
        E 0 85 39 64
        E 0 85 3b 64
        E 0 85 3c 64
        E 2865 80 3b 00
        E 1 80 40 00
        E 0 80 47 00
        E 1 80 4c 00
        E 1 80 53 00
        E 1 81 41 00
        E 0 81 48 00
        E 0 81 4d 00
        E 1 81 54 00
        E 1 90 3d 67
        E 0 90 3f 67
        E 1 90 42 67
        E 1 90 44 67
        E 0 90 46 67
        E 1 90 49 67
        E 0 90 4b 67
        E 2 90 4e 67
        E 0 90 50 67
        E 1 90 52 67
        E 0 91 3d 65
        E 0 91 3f 65
        E 1 91 42 65
        E 0 91 44 65
        E 1 91 46 65
        E 0 91 49 65
        E 1 91 4b 65
        E 0 91 4e 65
        E 1 91 50 65
        E 1 91 52 65
        E 0 91 55 65
        E 1 92 3c 65
        E 0 92 3e 65
        E 1 92 40 65
        E 1 92 41 65
        E 0 92 43 65
        E 1 92 45 65
        E 0 92 47 65
        E 1 92 48 65
        E 0 92 4a 65
        E 1 92 4c 65
        E 1 92 4d 65
        E 0 92 4f 65
        E 0 92 51 65
        E 1 92 53 65
        E 0 92 54 65
        E 1 93 3b 66
        E 1 93 3d 66
        E 0 93 3f 66
        E 1 93 40 66
        E 0 93 42 66
        E 0 93 44 66
        E 0 93 46 66
        E 1 93 47 66
        E 0 93 49 66
        E 1 93 4b 66
        E 0 93 4c 66
        E 0 93 4e 66
        E 1 93 50 66
        E 0 93 52 66
        E 0 93 53 66
        E 1 94 3d 64
        E 0 94 3f 64
        E 0 94 41 63
        E 0 94 42 64
        E 1 94 44 64
        E 0 94 46 64
        E 1 94 48 63
        E 0 94 49 64
        E 0 94 4b 64
        E 1 94 4d 63
        E 0 94 4e 64
        E 0 94 50 64
        E 1 94 52 64
        E 0 94 54 63
        E 0 94 55 64
        E 1 95 3c 64
        E 0 95 3e 64
        E 0 95 40 64
        E 1 95 41 64
        E 0 95 43 64
        E 0 95 45 64
        E 1 95 47 64
        E 0 95 48 64
        E 0 95 4a 64
        E 0 95 4c 64
        E 0 95 4d 64
        E 1 95 4f 64
        E 0 95 51 64
        E 0 95 53 64
        E 0 95 54 64
        E 922 80 3b 00
        E 1 80 3d 67
        E 0 80 3f 67
        E 0 80 40 00
        E 1 80 42 67
        E 0 80 44 67
        E 0 80 46 67
        E 1 80 47 00
        E 0 80 49 67
        E 1 80 4b 67
        E 0 80 4c 00
        E 0 80 4e 67
        E 0 80 50 67
        E 0 80 52 67
        E 1 80 53 00
        E 0 81 3d 65
        E 0 81 3f 65
        E 0 81 41 00
        E 0 81 42 65
        E 0 81 44 65
        E 0 81 46 65
        E 0 81 48 00
        E 0 81 49 65
        E 0 81 4b 65
        E 0 81 4d 00
        E 0 81 4e 65
        E 0 81 50 65
        E 0 81 52 65
        E 0 81 54 00
        E 1 81 55 65
        E 0 82 3c 65
        E 0 82 3e 65
        E 0 82 40 65
        E 0 82 41 65
        E 0 82 43 65
        E 0 82 45 65
        E 0 82 47 65
        E 0 82 48 65
        E 0 82 4a 65
        E 0 82 4c 65
        E 0 82 4d 65
        E 0 82 4f 65
        E 0 82 51 65
        E 0 82 53 65
        E 0 82 54 65
        E 0 83 3b 66
        E 0 83 3d 66
        E 1 83 3f 66
        E 0 83 40 66
        E 0 83 42 66
        E 0 83 44 66
        E 0 83 46 66
        E 0 83 47 66
        E 0 83 49 66
        E 0 83 4b 66
        E 0 83 4c 66
        E 0 83 4e 66
        E 0 83 50 66
        E 0 83 52 66
        E 0 83 53 66
        E 0 84 3d 64
        E 0 84 3f 64
        E 0 84 41 63
        E 0 84 42 64
        E 0 84 44 64
        E 1 84 46 64
        E 0 84 48 63
        E 0 84 49 64
        E 0 84 4b 64
        E 0 84 4d 63
        E 0 84 4e 64
        E 0 84 50 64
        E 0 84 52 64
        E 0 84 54 63
        E 0 84 55 64
        E 0 85 3c 64
        E 0 85 3e 64
        E 0 85 40 64
        E 0 85 41 64
        E 0 85 43 64
        E 0 85 45 64
        E 0 85 47 64
        E 0 85 48 64
        E 1 85 4a 64
        E 0 85 4c 64
        E 0 85 4d 64
        E 0 85 4f 64
        E 0 85 51 64
        E 0 85 53 64
        E 0 85 54 64
        E 2870 93 23 66
        E 1 93 25 66
        E 0 93 27 66
        E 1 93 28 66
        E 0 93 2a 66
        E 1 93 2c 66
        E 0 93 2e 66
        E 1 93 2f 66
        E 0 93 31 66
        E 0 93 33 66
        E 1 93 34 66
        E 1 93 36 66
        E 1 93 38 66
        E 0 93 3a 66
        E 1 93 3b 66
        E 1 94 25 64
        E 1 94 27 64
        E 0 94 29 63
        E 1 94 2a 64
        E 1 94 2c 64
        E 1 94 2e 64
        E 1 94 30 63
        E 1 94 31 64
        E 0 94 33 64
        E 1 94 35 63
        E 0 94 36 64
        E 0 94 38 64
        E 1 94 3a 64
        E 0 94 3c 63
        E 1 94 3d 64
        E 0 95 24 64
        E 0 95 26 64
        E 1 95 28 64
        E 0 95 29 64
        E 1 95 2b 64
        E 0 95 2d 64
        E 0 95 2f 64
        E 1 95 30 64
        E 0 95 32 64
        E 0 95 34 64
        E 1 95 35 64
        E 0 95 37 64
        E 0 95 39 64
        E 1 95 3b 64
        E 0 95 3c 64
        E 939 83 23 66
        E 0 83 25 66
        E 1 83 27 66
        E 0 83 28 66
        E 1 83 2a 66
        E 0 83 2c 66
        E 1 83 2e 66
        E 0 83 2f 66
        E 1 83 31 66
        E 0 83 33 66
        E 1 83 34 66
        E 1 83 36 66
        E 0 83 38 66
        E 1 83 3a 66
        E 1 83 3b 66
        E 1 84 25 64
        E 1 84 27 64
        E 1 84 29 63
        E 0 84 2a 64
        E 1 84 2c 64
        E 1 84 2e 64
        E 0 84 30 63
        E 1 84 31 64
        E 1 84 33 64
        E 0 84 35 63
        E 0 84 36 64
        E 1 84 38 64
        E 0 84 3a 64
        E 0 84 3c 63
        E 1 84 3d 64
        E 0 85 24 64
        E 0 85 26 64
        E 1 85 28 64
        E 0 85 29 64
        E 0 85 2b 64
        E 1 85 2d 64
        E 0 85 2f 64
        E 0 85 30 64
        E 1 85 32 64
        E 0 85 34 64
        E 0 85 35 64
        E 1 85 37 64
        E 0 85 39 64
        E 0 85 3b 64
        E 1 85 3c 64
        E 187 b0 7b 00
        CCINTERP 32
        CHASE_CC_TAKEOFFS 1
        GUID {55BC721D-A30D-419A-95E1-E667FF37EEF3}
        IGNTEMPO 0 120 4 4
        SRCCOLOR 88
      >
    >
    <ITEM
      POSITION 83.01641602271123
      SNAPOFFS 0
      LENGTH 0.65726706900625
      LOOP 1
      ALLTAKES 0
      FADEIN 1 0 0 1 0 0 0
      FADEOUT 1 0 0 1 0 0 0
      MUTE 0 0
      SEL 0
      IGUID {E5AF555B-8206-4735-B49C-F2C8AB2D8B81}
      IID 48
      NAME "04-Recorded MIDI"
      VOLPAN 1 0 1 -1
      SOFFS 15.51529115331985 31.0305823066397
      PLAYRATE 1 1 0 -1 0 0.0025
      CHANMODE 0
      GUID {70919149-FEF4-472B-9DF0-5490453AB045}
      RECPASS 11
      <SOURCE MIDI
        HASDATA 1 960 QN
        CCINTERP 32
        POOLEDEVTS {3CA311A9-29CF-4610-AEB2-200F1CE97E0B}
        E 3916 b0 7b 00
        E 0 b1 7b 00
        E 1 b2 7b 00
        E 1 b3 7b 00
        E 0 b4 7b 00
        E 1 b5 7b 00
        E 1 b6 7b 00
        E 1 b7 7b 00
        E 0 b8 7b 00
        E 2 b9 7b 00
        E 1 ba 7b 00
        E 1 bb 7b 00
        E 1 bc 7b 00
        E 0 bd 7b 00
        E 1 be 7b 00
        E 1 bf 7b 00
        E 1 b0 79 00
        E 1 b1 79 00
        E 0 b2 79 00
        E 1 b3 79 00
        E 1 b4 79 00
        E 1 b5 79 00
        E 0 b6 79 00
        E 1 b7 79 00
        E 1 b8 79 00
        E 1 b9 79 00
        E 0 ba 79 00
        E 2 bb 79 00
        E 0 bc 79 00
        E 1 bd 79 00
        E 0 be 79 00
        E 1 bf 79 00
        E 9604 b0 7b 00
        E 0 b1 7b 00
        E 1 b2 7b 00
        E 1 b3 7b 00
        E 1 b4 7b 00
        E 1 b5 7b 00
        E 0 b6 7b 00
        E 1 b7 7b 00
        E 0 b8 7b 00
        E 1 b9 7b 00
        E 1 ba 7b 00
        E 1 bb 7b 00
        E 0 bc 7b 00
        E 1 bd 7b 00
        E 0 be 7b 00
        E 1 bf 7b 00
        E 3 c9 00 00
        E 0 c0 01 00
        E 1 c1 01 00
        E 1 c2 01 00
        E 1 c3 01 00
        E 0 c4 01 00
        E 1 c5 01 00
        E 17 b0 07 64
        E 1 b0 0a 40
        E 0 b0 5b 3b
        E 1 b0 5d 00
        E 0 b1 07 64
        E 0 b1 0a 40
        E 1 b1 5b 3b
        E 0 b1 5d 00
        E 0 b2 07 64
        E 1 b2 0a 40
        E 0 b2 5b 3b
        E 0 b2 5d 00
        E 0 b3 07 64
        E 1 b3 0a 40
        E 0 b3 5b 3b
        E 0 b3 5d 00
        E 0 b4 07 64
        E 0 b4 0a 40
        E 1 b4 5b 3b
        E 0 b4 5d 00
        E 0 b5 07 64
        E 0 b5 0a 40
        E 0 b5 5b 3b
        E 0 b5 5d 00
        E 12 c0 01 00
        E 1 c1 01 00
        E 0 c2 01 00
        E 0 c3 01 00
        E 0 c4 01 00
        E 0 c5 01 00
        E 4798 80 23 00
        E 1 80 28 00
        E 0 80 2f 00
        E 0 80 34 00
        E 1 80 3b 00
        E 0 81 29 00
        E 0 81 30 00
        E 1 81 35 00
        E 0 81 3c 00
        E 0 90 25 67
        E 1 90 27 67
        E 0 90 2a 67
        E 0 90 2c 67
        E 1 90 2e 67
        E 0 90 31 67
        E 0 90 33 67
        E 0 90 36 67
        E 1 90 38 67
        E 0 90 3a 67
        E 0 91 25 65
        E 0 91 27 65
        E 1 91 2a 65
        E 0 91 2c 65
        E 0 91 2e 65
        E 1 91 31 65
        E 0 91 33 65
        E 1 91 36 65
        E 0 91 38 65
        E 1 91 3a 65
        E 0 91 3d 65
        E 0 92 24 65
        E 1 92 26 65
        E 0 92 28 65
        E 0 92 29 65
        E 1 92 2b 65
        E 0 92 2d 65
        E 1 92 2f 65
        E 0 92 30 65
        E 1 92 32 65
        E 0 92 34 65
        E 0 92 35 65
        E 0 92 37 65
        E 1 92 39 65
        E 0 92 3b 65
        E 0 92 3c 65
        E 1 93 23 66
        E 0 93 25 66
        E 0 93 27 66
        E 1 93 28 66
        E 0 93 2a 66
        E 0 93 2c 66
        E 0 93 2e 66
        E 0 93 2f 66
        E 0 93 31 66
        E 1 93 33 66
        E 0 93 34 66
        E 0 93 36 66
        E 0 93 38 66
        E 0 93 3a 66
        E 1 93 3b 66
        E 0 94 25 64
        E 0 94 27 64
        E 0 94 29 63
        E 0 94 2a 64
        E 1 94 2c 64
        E 0 94 2e 64
        E 0 94 30 63
        E 0 94 31 64
        E 0 94 33 64
        E 1 94 35 63
        E 0 94 36 64
        E 0 94 38 64
        E 0 94 3a 64
        E 0 94 3c 63
        E 1 94 3d 64
        E 0 95 24 64
        E 0 95 26 64
        E 0 95 28 64
        E 0 95 29 64
        E 0 95 2b 64
        E 0 95 2d 64
        E 1 95 2f 64
        E 0 95 30 64
        E 0 95 32 64
        E 0 95 34 64
        E 0 95 35 64
        E 0 95 37 64
        E 1 95 39 64
        E 0 95 3b 64
        E 0 95 3c 64
        E 936 80 23 00
        E 0 80 25 67
        E 1 80 27 67
        E 0 80 28 00
        E 1 80 2a 67
        E 0 80 2c 67
        E 1 80 2e 67
        E 0 80 2f 00
        E 1 80 31 67
        E 0 80 33 67
        E 0 80 34 00
        E 1 80 36 67
        E 1 80 38 67
        E 0 80 3a 67
        E 1 80 3b 00
        E 0 81 25 65
        E 1 81 27 65
        E 1 81 29 00
        E 0 81 2a 65
        E 1 81 2c 65
        E 0 81 2e 65
        E 0 81 30 00
        E 0 81 31 65
        E 0 81 33 65
        E 0 81 35 00
        E 0 81 36 65
        E 0 81 38 65
        E 0 81 3a 65
        E 0 81 3c 00
        E 0 81 3d 65
        E 0 82 24 65
        E 0 82 26 65
        E 1 82 28 65
        E 0 82 29 65
        E 0 82 2b 65
        E 0 82 2d 65
        E 0 82 2f 65
        E 0 82 30 65
        E 0 82 32 65
        E 0 82 34 65
        E 0 82 35 65
        E 0 82 37 65
        E 0 82 39 65
        E 0 82 3b 65
        E 0 82 3c 65
        E 1 83 23 66
        E 0 83 25 66
        E 0 83 27 66
        E 0 83 28 66
        E 0 83 2a 66
        E 1 83 2c 66
        E 0 83 2e 66
        E 0 83 2f 66
        E 0 83 31 66
        E 0 83 33 66
        E 0 83 34 66
        E 0 83 36 66
        E 0 83 38 66
        E 0 83 3a 66
        E 0 83 3b 66
        E 1 84 25 64
        E 0 84 27 64
        E 0 84 29 63
        E 0 84 2a 64
        E 0 84 2c 64
        E 0 84 2e 64
        E 1 84 30 63
        E 0 84 31 64
        E 0 84 33 64
        E 0 84 35 63
        E 0 84 36 64
        E 0 84 38 64
        E 0 84 3a 64
        E 0 84 3c 63
        E 0 84 3d 64
        E 0 85 24 64
        E 0 85 26 64
        E 0 85 28 64
        E 0 85 29 64
        E 0 85 2b 64
        E 0 85 2d 64
        E 0 85 2f 64
        E 0 85 30 64
        E 1 85 32 64
        E 0 85 34 64
        E 0 85 35 64
        E 0 85 37 64
        E 0 85 39 64
        E 0 85 3b 64
        E 0 85 3c 64
        E 2865 80 3b 00
        E 1 80 40 00
        E 0 80 47 00
        E 1 80 4c 00
        E 1 80 53 00
        E 1 81 41 00
        E 0 81 48 00
        E 0 81 4d 00
        E 1 81 54 00
        E 1 90 3d 67
        E 0 90 3f 67
        E 1 90 42 67
        E 1 90 44 67
        E 0 90 46 67
        E 1 90 49 67
        E 0 90 4b 67
        E 2 90 4e 67
        E 0 90 50 67
        E 1 90 52 67
        E 0 91 3d 65
        E 0 91 3f 65
        E 1 91 42 65
        E 0 91 44 65
        E 1 91 46 65
        E 0 91 49 65
        E 1 91 4b 65
        E 0 91 4e 65
        E 1 91 50 65
        E 1 91 52 65
        E 0 91 55 65
        E 1 92 3c 65
        E 0 92 3e 65
        E 1 92 40 65
        E 1 92 41 65
        E 0 92 43 65
        E 1 92 45 65
        E 0 92 47 65
        E 1 92 48 65
        E 0 92 4a 65
        E 1 92 4c 65
        E 1 92 4d 65
        E 0 92 4f 65
        E 0 92 51 65
        E 1 92 53 65
        E 0 92 54 65
        E 1 93 3b 66
        E 1 93 3d 66
        E 0 93 3f 66
        E 1 93 40 66
        E 0 93 42 66
        E 0 93 44 66
        E 0 93 46 66
        E 1 93 47 66
        E 0 93 49 66
        E 1 93 4b 66
        E 0 93 4c 66
        E 0 93 4e 66
        E 1 93 50 66
        E 0 93 52 66
        E 0 93 53 66
        E 1 94 3d 64
        E 0 94 3f 64
        E 0 94 41 63
        E 0 94 42 64
        E 1 94 44 64
        E 0 94 46 64
        E 1 94 48 63
        E 0 94 49 64
        E 0 94 4b 64
        E 1 94 4d 63
        E 0 94 4e 64
        E 0 94 50 64
        E 1 94 52 64
        E 0 94 54 63
        E 0 94 55 64
        E 1 95 3c 64
        E 0 95 3e 64
        E 0 95 40 64
        E 1 95 41 64
        E 0 95 43 64
        E 0 95 45 64
        E 1 95 47 64
        E 0 95 48 64
        E 0 95 4a 64
        E 0 95 4c 64
        E 0 95 4d 64
        E 1 95 4f 64
        E 0 95 51 64
        E 0 95 53 64
        E 0 95 54 64
        E 922 80 3b 00
        E 1 80 3d 67
        E 0 80 3f 67
        E 0 80 40 00
        E 1 80 42 67
        E 0 80 44 67
        E 0 80 46 67
        E 1 80 47 00
        E 0 80 49 67
        E 1 80 4b 67
        E 0 80 4c 00
        E 0 80 4e 67
        E 0 80 50 67
        E 0 80 52 67
        E 1 80 53 00
        E 0 81 3d 65
        E 0 81 3f 65
        E 0 81 41 00
        E 0 81 42 65
        E 0 81 44 65
        E 0 81 46 65
        E 0 81 48 00
        E 0 81 49 65
        E 0 81 4b 65
        E 0 81 4d 00
        E 0 81 4e 65
        E 0 81 50 65
        E 0 81 52 65
        E 0 81 54 00
        E 1 81 55 65
        E 0 82 3c 65
        E 0 82 3e 65
        E 0 82 40 65
        E 0 82 41 65
        E 0 82 43 65
        E 0 82 45 65
        E 0 82 47 65
        E 0 82 48 65
        E 0 82 4a 65
        E 0 82 4c 65
        E 0 82 4d 65
        E 0 82 4f 65
        E 0 82 51 65
        E 0 82 53 65
        E 0 82 54 65
        E 0 83 3b 66
        E 0 83 3d 66
        E 1 83 3f 66
        E 0 83 40 66
        E 0 83 42 66
        E 0 83 44 66
        E 0 83 46 66
        E 0 83 47 66
        E 0 83 49 66
        E 0 83 4b 66
        E 0 83 4c 66
        E 0 83 4e 66
        E 0 83 50 66
        E 0 83 52 66
        E 0 83 53 66
        E 0 84 3d 64
        E 0 84 3f 64
        E 0 84 41 63
        E 0 84 42 64
        E 0 84 44 64
        E 1 84 46 64
        E 0 84 48 63
        E 0 84 49 64
        E 0 84 4b 64
        E 0 84 4d 63
        E 0 84 4e 64
        E 0 84 50 64
        E 0 84 52 64
        E 0 84 54 63
        E 0 84 55 64
        E 0 85 3c 64
        E 0 85 3e 64
        E 0 85 40 64
        E 0 85 41 64
        E 0 85 43 64
        E 0 85 45 64
        E 0 85 47 64
        E 0 85 48 64
        E 1 85 4a 64
        E 0 85 4c 64
        E 0 85 4d 64
        E 0 85 4f 64
        E 0 85 51 64
        E 0 85 53 64
        E 0 85 54 64
        E 2870 93 23 66
        E 1 93 25 66
        E 0 93 27 66
        E 1 93 28 66
        E 0 93 2a 66
        E 1 93 2c 66
        E 0 93 2e 66
        E 1 93 2f 66
        E 0 93 31 66
        E 0 93 33 66
        E 1 93 34 66
        E 1 93 36 66
        E 1 93 38 66
        E 0 93 3a 66
        E 1 93 3b 66
        E 1 94 25 64
        E 1 94 27 64
        E 0 94 29 63
        E 1 94 2a 64
        E 1 94 2c 64
        E 1 94 2e 64
        E 1 94 30 63
        E 1 94 31 64
        E 0 94 33 64
        E 1 94 35 63
        E 0 94 36 64
        E 0 94 38 64
        E 1 94 3a 64
        E 0 94 3c 63
        E 1 94 3d 64
        E 0 95 24 64
        E 0 95 26 64
        E 1 95 28 64
        E 0 95 29 64
        E 1 95 2b 64
        E 0 95 2d 64
        E 0 95 2f 64
        E 1 95 30 64
        E 0 95 32 64
        E 0 95 34 64
        E 1 95 35 64
        E 0 95 37 64
        E 0 95 39 64
        E 1 95 3b 64
        E 0 95 3c 64
        E 939 83 23 66
        E 0 83 25 66
        E 1 83 27 66
        E 0 83 28 66
        E 1 83 2a 66
        E 0 83 2c 66
        E 1 83 2e 66
        E 0 83 2f 66
        E 1 83 31 66
        E 0 83 33 66
        E 1 83 34 66
        E 1 83 36 66
        E 0 83 38 66
        E 1 83 3a 66
        E 1 83 3b 66
        E 1 84 25 64
        E 1 84 27 64
        E 1 84 29 63
        E 0 84 2a 64
        E 1 84 2c 64
        E 1 84 2e 64
        E 0 84 30 63
        E 1 84 31 64
        E 1 84 33 64
        E 0 84 35 63
        E 0 84 36 64
        E 1 84 38 64
        E 0 84 3a 64
        E 0 84 3c 63
        E 1 84 3d 64
        E 0 85 24 64
        E 0 85 26 64
        E 1 85 28 64
        E 0 85 29 64
        E 0 85 2b 64
        E 1 85 2d 64
        E 0 85 2f 64
        E 0 85 30 64
        E 1 85 32 64
        E 0 85 34 64
        E 0 85 35 64
        E 1 85 37 64
        E 0 85 39 64
        E 0 85 3b 64
        E 1 85 3c 64
        E 2855 80 23 00
        E 1 80 28 00
        E 0 80 2f 00
        E 1 80 34 00
        E 0 80 3b 00
        E 1 81 29 00
        E 1 81 30 00
        E 0 81 35 00
        E 1 81 3c 00
        E 0 90 25 67
        E 1 90 27 67
        E 1 90 2a 67
        E 0 90 2c 67
        E 1 90 2e 67
        E 1 90 31 67
        E 1 90 33 67
        E 0 90 36 67
        E 1 90 38 67
        E 0 90 3a 67
        E 1 91 25 65
        E 1 91 27 65
        E 0 91 2a 65
        E 1 91 2c 65
        E 1 91 2e 65
        E 1 91 31 65
        E 0 91 33 65
        E 1 91 36 65
        E 1 91 38 65
        E 0 91 3a 65
        E 0 91 3d 65
        E 1 92 24 65
        E 0 92 26 65
        E 0 92 28 65
        E 1 92 29 65
        E 0 92 2b 65
        E 1 92 2d 65
        E 0 92 2f 65
        E 1 92 30 65
        E 0 92 32 65
        E 0 92 34 65
        E 1 92 35 65
        E 0 92 37 65
        E 0 92 39 65
        E 1 92 3b 65
        E 0 92 3c 65
        E 937 80 23 00
        E 0 80 25 67
        E 1 80 27 67
        E 0 80 28 00
        E 1 80 2a 67
        E 0 80 2c 67
        E 1 80 2e 67
        E 1 80 2f 00
        E 0 80 31 67
        E 1 80 33 67
        E 0 80 34 00
        E 1 80 36 67
        E 0 80 38 67
        E 1 80 3a 67
        E 0 80 3b 00
        E 1 81 25 65
        E 0 81 27 65
        E 0 81 29 00
        E 1 81 2a 65
        E 0 81 2c 65
        E 0 81 2e 65
        E 0 81 30 00
        E 0 81 31 65
        E 1 81 33 65
        E 0 81 35 00
        E 0 81 36 65
        E 0 81 38 65
        E 0 81 3a 65
        E 0 81 3c 00
        E 0 81 3d 65
        E 0 82 24 65
        E 0 82 26 65
        E 0 82 28 65
        E 0 82 29 65
        E 0 82 2b 65
        E 0 82 2d 65
        E 0 82 2f 65
        E 1 82 30 65
        E 0 82 32 65
        E 0 82 34 65
        E 0 82 35 65
        E 0 82 37 65
        E 0 82 39 65
        E 0 82 3b 65
        E 0 82 3c 65
        E 163 b0 7b 00
        CCINTERP 32
        CHASE_CC_TAKEOFFS 1
        GUID {8EBC6F01-395A-40B1-AEB2-F1549301D71C}
        IGNTEMPO 0 120 4 4
        SRCCOLOR 90
      >
    >
    <ITEM
      POSITION 85.02473206689686
      SNAPOFFS 0
      LENGTH 0.64813835971445
      LOOP 1
      ALLTAKES 0
      FADEIN 1 0 0 1 0 0 0
      FADEOUT 1 0 0 1 0 0 0
      MUTE 0 0
      SEL 0
      IGUID {F4808D74-A3D8-4D57-B147-AA2A1217509A}
      IID 50
      NAME "04-Recorded MIDI"
      VOLPAN 1 0 1 -1
      SOFFS 17.5236071975055 35.047214395011
      PLAYRATE 1 1 0 -1 0 0.0025
      CHANMODE 0
      GUID {3BA747B1-1EC9-49C0-B081-D3639FEF9B1E}
      RECPASS 11
      <SOURCE MIDI
        HASDATA 1 960 QN
        CCINTERP 32
        POOLEDEVTS {FE80E427-084D-4688-A921-F1508DD99FAA}
        E 3916 b0 7b 00
        E 0 b1 7b 00
        E 1 b2 7b 00
        E 1 b3 7b 00
        E 0 b4 7b 00
        E 1 b5 7b 00
        E 1 b6 7b 00
        E 1 b7 7b 00
        E 0 b8 7b 00
        E 2 b9 7b 00
        E 1 ba 7b 00
        E 1 bb 7b 00
        E 1 bc 7b 00
        E 0 bd 7b 00
        E 1 be 7b 00
        E 1 bf 7b 00
        E 1 b0 79 00
        E 1 b1 79 00
        E 0 b2 79 00
        E 1 b3 79 00
        E 1 b4 79 00
        E 1 b5 79 00
        E 0 b6 79 00
        E 1 b7 79 00
        E 1 b8 79 00
        E 1 b9 79 00
        E 0 ba 79 00
        E 2 bb 79 00
        E 0 bc 79 00
        E 1 bd 79 00
        E 0 be 79 00
        E 1 bf 79 00
        E 9604 b0 7b 00
        E 0 b1 7b 00
        E 1 b2 7b 00
        E 1 b3 7b 00
        E 1 b4 7b 00
        E 1 b5 7b 00
        E 0 b6 7b 00
        E 1 b7 7b 00
        E 0 b8 7b 00
        E 1 b9 7b 00
        E 1 ba 7b 00
        E 1 bb 7b 00
        E 0 bc 7b 00
        E 1 bd 7b 00
        E 0 be 7b 00
        E 1 bf 7b 00
        E 3 c9 00 00
        E 0 c0 01 00
        E 1 c1 01 00
        E 1 c2 01 00
        E 1 c3 01 00
        E 0 c4 01 00
        E 1 c5 01 00
        E 17 b0 07 64
        E 1 b0 0a 40
        E 0 b0 5b 3b
        E 1 b0 5d 00
        E 0 b1 07 64
        E 0 b1 0a 40
        E 1 b1 5b 3b
        E 0 b1 5d 00
        E 0 b2 07 64
        E 1 b2 0a 40
        E 0 b2 5b 3b
        E 0 b2 5d 00
        E 0 b3 07 64
        E 1 b3 0a 40
        E 0 b3 5b 3b
        E 0 b3 5d 00
        E 0 b4 07 64
        E 0 b4 0a 40
        E 1 b4 5b 3b
        E 0 b4 5d 00
        E 0 b5 07 64
        E 0 b5 0a 40
        E 0 b5 5b 3b
        E 0 b5 5d 00
        E 12 c0 01 00
        E 1 c1 01 00
        E 0 c2 01 00
        E 0 c3 01 00
        E 0 c4 01 00
        E 0 c5 01 00
        E 4798 80 23 00
        E 1 80 28 00
        E 0 80 2f 00
        E 0 80 34 00
        E 1 80 3b 00
        E 0 81 29 00
        E 0 81 30 00
        E 1 81 35 00
        E 0 81 3c 00
        E 0 90 25 67
        E 1 90 27 67
        E 0 90 2a 67
        E 0 90 2c 67
        E 1 90 2e 67
        E 0 90 31 67
        E 0 90 33 67
        E 0 90 36 67
        E 1 90 38 67
        E 0 90 3a 67
        E 0 91 25 65
        E 0 91 27 65
        E 1 91 2a 65
        E 0 91 2c 65
        E 0 91 2e 65
        E 1 91 31 65
        E 0 91 33 65
        E 1 91 36 65
        E 0 91 38 65
        E 1 91 3a 65
        E 0 91 3d 65
        E 0 92 24 65
        E 1 92 26 65
        E 0 92 28 65
        E 0 92 29 65
        E 1 92 2b 65
        E 0 92 2d 65
        E 1 92 2f 65
        E 0 92 30 65
        E 1 92 32 65
        E 0 92 34 65
        E 0 92 35 65
        E 0 92 37 65
        E 1 92 39 65
        E 0 92 3b 65
        E 0 92 3c 65
        E 1 93 23 66
        E 0 93 25 66
        E 0 93 27 66
        E 1 93 28 66
        E 0 93 2a 66
        E 0 93 2c 66
        E 0 93 2e 66
        E 0 93 2f 66
        E 0 93 31 66
        E 1 93 33 66
        E 0 93 34 66
        E 0 93 36 66
        E 0 93 38 66
        E 0 93 3a 66
        E 1 93 3b 66
        E 0 94 25 64
        E 0 94 27 64
        E 0 94 29 63
        E 0 94 2a 64
        E 1 94 2c 64
        E 0 94 2e 64
        E 0 94 30 63
        E 0 94 31 64
        E 0 94 33 64
        E 1 94 35 63
        E 0 94 36 64
        E 0 94 38 64
        E 0 94 3a 64
        E 0 94 3c 63
        E 1 94 3d 64
        E 0 95 24 64
        E 0 95 26 64
        E 0 95 28 64
        E 0 95 29 64
        E 0 95 2b 64
        E 0 95 2d 64
        E 1 95 2f 64
        E 0 95 30 64
        E 0 95 32 64
        E 0 95 34 64
        E 0 95 35 64
        E 0 95 37 64
        E 1 95 39 64
        E 0 95 3b 64
        E 0 95 3c 64
        E 936 80 23 00
        E 0 80 25 67
        E 1 80 27 67
        E 0 80 28 00
        E 1 80 2a 67
        E 0 80 2c 67
        E 1 80 2e 67
        E 0 80 2f 00
        E 1 80 31 67
        E 0 80 33 67
        E 0 80 34 00
        E 1 80 36 67
        E 1 80 38 67
        E 0 80 3a 67
        E 1 80 3b 00
        E 0 81 25 65
        E 1 81 27 65
        E 1 81 29 00
        E 0 81 2a 65
        E 1 81 2c 65
        E 0 81 2e 65
        E 0 81 30 00
        E 0 81 31 65
        E 0 81 33 65
        E 0 81 35 00
        E 0 81 36 65
        E 0 81 38 65
        E 0 81 3a 65
        E 0 81 3c 00
        E 0 81 3d 65
        E 0 82 24 65
        E 0 82 26 65
        E 1 82 28 65
        E 0 82 29 65
        E 0 82 2b 65
        E 0 82 2d 65
        E 0 82 2f 65
        E 0 82 30 65
        E 0 82 32 65
        E 0 82 34 65
        E 0 82 35 65
        E 0 82 37 65
        E 0 82 39 65
        E 0 82 3b 65
        E 0 82 3c 65
        E 1 83 23 66
        E 0 83 25 66
        E 0 83 27 66
        E 0 83 28 66
        E 0 83 2a 66
        E 1 83 2c 66
        E 0 83 2e 66
        E 0 83 2f 66
        E 0 83 31 66
        E 0 83 33 66
        E 0 83 34 66
        E 0 83 36 66
        E 0 83 38 66
        E 0 83 3a 66
        E 0 83 3b 66
        E 1 84 25 64
        E 0 84 27 64
        E 0 84 29 63
        E 0 84 2a 64
        E 0 84 2c 64
        E 0 84 2e 64
        E 1 84 30 63
        E 0 84 31 64
        E 0 84 33 64
        E 0 84 35 63
        E 0 84 36 64
        E 0 84 38 64
        E 0 84 3a 64
        E 0 84 3c 63
        E 0 84 3d 64
        E 0 85 24 64
        E 0 85 26 64
        E 0 85 28 64
        E 0 85 29 64
        E 0 85 2b 64
        E 0 85 2d 64
        E 0 85 2f 64
        E 0 85 30 64
        E 1 85 32 64
        E 0 85 34 64
        E 0 85 35 64
        E 0 85 37 64
        E 0 85 39 64
        E 0 85 3b 64
        E 0 85 3c 64
        E 2865 80 3b 00
        E 1 80 40 00
        E 0 80 47 00
        E 1 80 4c 00
        E 1 80 53 00
        E 1 81 41 00
        E 0 81 48 00
        E 0 81 4d 00
        E 1 81 54 00
        E 1 90 3d 67
        E 0 90 3f 67
        E 1 90 42 67
        E 1 90 44 67
        E 0 90 46 67
        E 1 90 49 67
        E 0 90 4b 67
        E 2 90 4e 67
        E 0 90 50 67
        E 1 90 52 67
        E 0 91 3d 65
        E 0 91 3f 65
        E 1 91 42 65
        E 0 91 44 65
        E 1 91 46 65
        E 0 91 49 65
        E 1 91 4b 65
        E 0 91 4e 65
        E 1 91 50 65
        E 1 91 52 65
        E 0 91 55 65
        E 1 92 3c 65
        E 0 92 3e 65
        E 1 92 40 65
        E 1 92 41 65
        E 0 92 43 65
        E 1 92 45 65
        E 0 92 47 65
        E 1 92 48 65
        E 0 92 4a 65
        E 1 92 4c 65
        E 1 92 4d 65
        E 0 92 4f 65
        E 0 92 51 65
        E 1 92 53 65
        E 0 92 54 65
        E 1 93 3b 66
        E 1 93 3d 66
        E 0 93 3f 66
        E 1 93 40 66
        E 0 93 42 66
        E 0 93 44 66
        E 0 93 46 66
        E 1 93 47 66
        E 0 93 49 66
        E 1 93 4b 66
        E 0 93 4c 66
        E 0 93 4e 66
        E 1 93 50 66
        E 0 93 52 66
        E 0 93 53 66
        E 1 94 3d 64
        E 0 94 3f 64
        E 0 94 41 63
        E 0 94 42 64
        E 1 94 44 64
        E 0 94 46 64
        E 1 94 48 63
        E 0 94 49 64
        E 0 94 4b 64
        E 1 94 4d 63
        E 0 94 4e 64
        E 0 94 50 64
        E 1 94 52 64
        E 0 94 54 63
        E 0 94 55 64
        E 1 95 3c 64
        E 0 95 3e 64
        E 0 95 40 64
        E 1 95 41 64
        E 0 95 43 64
        E 0 95 45 64
        E 1 95 47 64
        E 0 95 48 64
        E 0 95 4a 64
        E 0 95 4c 64
        E 0 95 4d 64
        E 1 95 4f 64
        E 0 95 51 64
        E 0 95 53 64
        E 0 95 54 64
        E 922 80 3b 00
        E 1 80 3d 67
        E 0 80 3f 67
        E 0 80 40 00
        E 1 80 42 67
        E 0 80 44 67
        E 0 80 46 67
        E 1 80 47 00
        E 0 80 49 67
        E 1 80 4b 67
        E 0 80 4c 00
        E 0 80 4e 67
        E 0 80 50 67
        E 0 80 52 67
        E 1 80 53 00
        E 0 81 3d 65
        E 0 81 3f 65
        E 0 81 41 00
        E 0 81 42 65
        E 0 81 44 65
        E 0 81 46 65
        E 0 81 48 00
        E 0 81 49 65
        E 0 81 4b 65
        E 0 81 4d 00
        E 0 81 4e 65
        E 0 81 50 65
        E 0 81 52 65
        E 0 81 54 00
        E 1 81 55 65
        E 0 82 3c 65
        E 0 82 3e 65
        E 0 82 40 65
        E 0 82 41 65
        E 0 82 43 65
        E 0 82 45 65
        E 0 82 47 65
        E 0 82 48 65
        E 0 82 4a 65
        E 0 82 4c 65
        E 0 82 4d 65
        E 0 82 4f 65
        E 0 82 51 65
        E 0 82 53 65
        E 0 82 54 65
        E 0 83 3b 66
        E 0 83 3d 66
        E 1 83 3f 66
        E 0 83 40 66
        E 0 83 42 66
        E 0 83 44 66
        E 0 83 46 66
        E 0 83 47 66
        E 0 83 49 66
        E 0 83 4b 66
        E 0 83 4c 66
        E 0 83 4e 66
        E 0 83 50 66
        E 0 83 52 66
        E 0 83 53 66
        E 0 84 3d 64
        E 0 84 3f 64
        E 0 84 41 63
        E 0 84 42 64
        E 0 84 44 64
        E 1 84 46 64
        E 0 84 48 63
        E 0 84 49 64
        E 0 84 4b 64
        E 0 84 4d 63
        E 0 84 4e 64
        E 0 84 50 64
        E 0 84 52 64
        E 0 84 54 63
        E 0 84 55 64
        E 0 85 3c 64
        E 0 85 3e 64
        E 0 85 40 64
        E 0 85 41 64
        E 0 85 43 64
        E 0 85 45 64
        E 0 85 47 64
        E 0 85 48 64
        E 1 85 4a 64
        E 0 85 4c 64
        E 0 85 4d 64
        E 0 85 4f 64
        E 0 85 51 64
        E 0 85 53 64
        E 0 85 54 64
        E 2870 93 23 66
        E 1 93 25 66
        E 0 93 27 66
        E 1 93 28 66
        E 0 93 2a 66
        E 1 93 2c 66
        E 0 93 2e 66
        E 1 93 2f 66
        E 0 93 31 66
        E 0 93 33 66
        E 1 93 34 66
        E 1 93 36 66
        E 1 93 38 66
        E 0 93 3a 66
        E 1 93 3b 66
        E 1 94 25 64
        E 1 94 27 64
        E 0 94 29 63
        E 1 94 2a 64
        E 1 94 2c 64
        E 1 94 2e 64
        E 1 94 30 63
        E 1 94 31 64
        E 0 94 33 64
        E 1 94 35 63
        E 0 94 36 64
        E 0 94 38 64
        E 1 94 3a 64
        E 0 94 3c 63
        E 1 94 3d 64
        E 0 95 24 64
        E 0 95 26 64
        E 1 95 28 64
        E 0 95 29 64
        E 1 95 2b 64
        E 0 95 2d 64
        E 0 95 2f 64
        E 1 95 30 64
        E 0 95 32 64
        E 0 95 34 64
        E 1 95 35 64
        E 0 95 37 64
        E 0 95 39 64
        E 1 95 3b 64
        E 0 95 3c 64
        E 939 83 23 66
        E 0 83 25 66
        E 1 83 27 66
        E 0 83 28 66
        E 1 83 2a 66
        E 0 83 2c 66
        E 1 83 2e 66
        E 0 83 2f 66
        E 1 83 31 66
        E 0 83 33 66
        E 1 83 34 66
        E 1 83 36 66
        E 0 83 38 66
        E 1 83 3a 66
        E 1 83 3b 66
        E 1 84 25 64
        E 1 84 27 64
        E 1 84 29 63
        E 0 84 2a 64
        E 1 84 2c 64
        E 1 84 2e 64
        E 0 84 30 63
        E 1 84 31 64
        E 1 84 33 64
        E 0 84 35 63
        E 0 84 36 64
        E 1 84 38 64
        E 0 84 3a 64
        E 0 84 3c 63
        E 1 84 3d 64
        E 0 85 24 64
        E 0 85 26 64
        E 1 85 28 64
        E 0 85 29 64
        E 0 85 2b 64
        E 1 85 2d 64
        E 0 85 2f 64
        E 0 85 30 64
        E 1 85 32 64
        E 0 85 34 64
        E 0 85 35 64
        E 1 85 37 64
        E 0 85 39 64
        E 0 85 3b 64
        E 1 85 3c 64
        E 2855 80 23 00
        E 1 80 28 00
        E 0 80 2f 00
        E 1 80 34 00
        E 0 80 3b 00
        E 1 81 29 00
        E 1 81 30 00
        E 0 81 35 00
        E 1 81 3c 00
        E 0 90 25 67
        E 1 90 27 67
        E 1 90 2a 67
        E 0 90 2c 67
        E 1 90 2e 67
        E 1 90 31 67
        E 1 90 33 67
        E 0 90 36 67
        E 1 90 38 67
        E 0 90 3a 67
        E 1 91 25 65
        E 1 91 27 65
        E 0 91 2a 65
        E 1 91 2c 65
        E 1 91 2e 65
        E 1 91 31 65
        E 0 91 33 65
        E 1 91 36 65
        E 1 91 38 65
        E 0 91 3a 65
        E 0 91 3d 65
        E 1 92 24 65
        E 0 92 26 65
        E 0 92 28 65
        E 1 92 29 65
        E 0 92 2b 65
        E 1 92 2d 65
        E 0 92 2f 65
        E 1 92 30 65
        E 0 92 32 65
        E 0 92 34 65
        E 1 92 35 65
        E 0 92 37 65
        E 0 92 39 65
        E 1 92 3b 65
        E 0 92 3c 65
        E 937 80 23 00
        E 0 80 25 67
        E 1 80 27 67
        E 0 80 28 00
        E 1 80 2a 67
        E 0 80 2c 67
        E 1 80 2e 67
        E 1 80 2f 00
        E 0 80 31 67
        E 1 80 33 67
        E 0 80 34 00
        E 1 80 36 67
        E 0 80 38 67
        E 1 80 3a 67
        E 0 80 3b 00
        E 1 81 25 65
        E 0 81 27 65
        E 0 81 29 00
        E 1 81 2a 65
        E 0 81 2c 65
        E 0 81 2e 65
        E 0 81 30 00
        E 0 81 31 65
        E 1 81 33 65
        E 0 81 35 00
        E 0 81 36 65
        E 0 81 38 65
        E 0 81 3a 65
        E 0 81 3c 00
        E 0 81 3d 65
        E 0 82 24 65
        E 0 82 26 65
        E 0 82 28 65
        E 0 82 29 65
        E 0 82 2b 65
        E 0 82 2d 65
        E 0 82 2f 65
        E 1 82 30 65
        E 0 82 32 65
        E 0 82 34 65
        E 0 82 35 65
        E 0 82 37 65
        E 0 82 39 65
        E 0 82 3b 65
        E 0 82 3c 65
        E 2870 93 3b 66
        E 0 93 3d 66
        E 1 93 3f 66
        E 0 93 40 66
        E 1 93 42 66
        E 0 93 44 66
        E 1 93 46 66
        E 1 93 47 66
        E 0 93 49 66
        E 1 93 4b 66
        E 1 93 4c 66
        E 0 93 4e 66
        E 1 93 50 66
        E 0 93 52 66
        E 0 93 53 66
        E 1 94 3d 64
        E 0 94 3f 64
        E 0 94 41 63
        E 1 94 42 64
        E 0 94 44 64
        E 0 94 46 64
        E 1 94 48 63
        E 0 94 49 64
        E 0 94 4b 64
        E 0 94 4d 63
        E 0 94 4e 64
        E 0 94 50 64
        E 1 94 52 64
        E 0 94 54 63
        E 0 94 55 64
        E 0 95 3c 64
        E 0 95 3e 64
        E 0 95 40 64
        E 0 95 41 64
        E 0 95 43 64
        E 0 95 45 64
        E 0 95 47 64
        E 0 95 48 64
        E 0 95 4a 64
        E 1 95 4c 64
        E 0 95 4d 64
        E 0 95 4f 64
        E 0 95 51 64
        E 0 95 53 64
        E 0 95 54 64
        E 946 83 3b 66
        E 0 83 3d 66
        E 0 83 3f 66
        E 1 83 40 66
        E 0 83 42 66
        E 1 83 44 66
        E 1 83 46 66
        E 0 83 47 66
        E 1 83 49 66
        E 1 83 4b 66
        E 0 83 4c 66
        E 1 83 4e 66
        E 1 83 50 66
        E 0 83 52 66
        E 1 83 53 66
        E 1 84 3d 64
        E 0 84 3f 64
        E 1 84 41 63
        E 0 84 42 64
        E 1 84 44 64
        E 0 84 46 64
        E 1 84 48 63
        E 0 84 49 64
        E 1 84 4b 64
        E 1 84 4d 63
        E 0 84 4e 64
        E 1 84 50 64
        E 0 84 52 64
        E 1 84 54 63
        E 0 84 55 64
        E 0 85 3c 64
        E 1 85 3e 64
        E 0 85 40 64
        E 1 85 41 64
        E 0 85 43 64
        E 1 85 45 64
        E 0 85 47 64
        E 0 85 48 64
        E 1 85 4a 64
        E 0 85 4c 64
        E 0 85 4d 64
        E 1 85 4f 64
        E 0 85 51 64
        E 0 85 53 64
        E 1 85 54 64
        E 152 b0 7b 00
        CCINTERP 32
        CHASE_CC_TAKEOFFS 1
        GUID {7400C127-0E0E-49F5-9B74-60AF09264762}
        IGNTEMPO 0 120 4 4
        SRCCOLOR 92
      >
    >
    <ITEM
      POSITION 86.99653327391546
      SNAPOFFS 0
      LENGTH 0.67552448758977
      LOOP 1
      ALLTAKES 0
      FADEIN 1 0 0 1 0 0 0
      FADEOUT 1 0 0 1 0 0 0
      MUTE 0 0
      SEL 0
      IGUID {DDDAFF8D-86BF-4A7D-8493-C777AD95BAC6}
      IID 53
      NAME "04-Recorded MIDI"
      VOLPAN 1 0 1 -1
      SOFFS 19.49540840452406 38.99081680904811
      PLAYRATE 1 1 0 -1 0 0.0025
      CHANMODE 0
      GUID {9C1C8463-1509-4FD3-86DD-639B35DFCAB7}
      RECPASS 11
      <SOURCE MIDI
        HASDATA 1 960 QN
        CCINTERP 32
        POOLEDEVTS {C8984D31-FB80-41CC-AB07-711D54D8A5A0}
        E 3916 b0 7b 00
        E 0 b1 7b 00
        E 1 b2 7b 00
        E 1 b3 7b 00
        E 0 b4 7b 00
        E 1 b5 7b 00
        E 1 b6 7b 00
        E 1 b7 7b 00
        E 0 b8 7b 00
        E 2 b9 7b 00
        E 1 ba 7b 00
        E 1 bb 7b 00
        E 1 bc 7b 00
        E 0 bd 7b 00
        E 1 be 7b 00
        E 1 bf 7b 00
        E 1 b0 79 00
        E 1 b1 79 00
        E 0 b2 79 00
        E 1 b3 79 00
        E 1 b4 79 00
        E 1 b5 79 00
        E 0 b6 79 00
        E 1 b7 79 00
        E 1 b8 79 00
        E 1 b9 79 00
        E 0 ba 79 00
        E 2 bb 79 00
        E 0 bc 79 00
        E 1 bd 79 00
        E 0 be 79 00
        E 1 bf 79 00
        E 9604 b0 7b 00
        E 0 b1 7b 00
        E 1 b2 7b 00
        E 1 b3 7b 00
        E 1 b4 7b 00
        E 1 b5 7b 00
        E 0 b6 7b 00
        E 1 b7 7b 00
        E 0 b8 7b 00
        E 1 b9 7b 00
        E 1 ba 7b 00
        E 1 bb 7b 00
        E 0 bc 7b 00
        E 1 bd 7b 00
        E 0 be 7b 00
        E 1 bf 7b 00
        E 3 c9 00 00
        E 0 c0 01 00
        E 1 c1 01 00
        E 1 c2 01 00
        E 1 c3 01 00
        E 0 c4 01 00
        E 1 c5 01 00
        E 17 b0 07 64
        E 1 b0 0a 40
        E 0 b0 5b 3b
        E 1 b0 5d 00
        E 0 b1 07 64
        E 0 b1 0a 40
        E 1 b1 5b 3b
        E 0 b1 5d 00
        E 0 b2 07 64
        E 1 b2 0a 40
        E 0 b2 5b 3b
        E 0 b2 5d 00
        E 0 b3 07 64
        E 1 b3 0a 40
        E 0 b3 5b 3b
        E 0 b3 5d 00
        E 0 b4 07 64
        E 0 b4 0a 40
        E 1 b4 5b 3b
        E 0 b4 5d 00
        E 0 b5 07 64
        E 0 b5 0a 40
        E 0 b5 5b 3b
        E 0 b5 5d 00
        E 12 c0 01 00
        E 1 c1 01 00
        E 0 c2 01 00
        E 0 c3 01 00
        E 0 c4 01 00
        E 0 c5 01 00
        E 4798 80 23 00
        E 1 80 28 00
        E 0 80 2f 00
        E 0 80 34 00
        E 1 80 3b 00
        E 0 81 29 00
        E 0 81 30 00
        E 1 81 35 00
        E 0 81 3c 00
        E 0 90 25 67
        E 1 90 27 67
        E 0 90 2a 67
        E 0 90 2c 67
        E 1 90 2e 67
        E 0 90 31 67
        E 0 90 33 67
        E 0 90 36 67
        E 1 90 38 67
        E 0 90 3a 67
        E 0 91 25 65
        E 0 91 27 65
        E 1 91 2a 65
        E 0 91 2c 65
        E 0 91 2e 65
        E 1 91 31 65
        E 0 91 33 65
        E 1 91 36 65
        E 0 91 38 65
        E 1 91 3a 65
        E 0 91 3d 65
        E 0 92 24 65
        E 1 92 26 65
        E 0 92 28 65
        E 0 92 29 65
        E 1 92 2b 65
        E 0 92 2d 65
        E 1 92 2f 65
        E 0 92 30 65
        E 1 92 32 65
        E 0 92 34 65
        E 0 92 35 65
        E 0 92 37 65
        E 1 92 39 65
        E 0 92 3b 65
        E 0 92 3c 65
        E 1 93 23 66
        E 0 93 25 66
        E 0 93 27 66
        E 1 93 28 66
        E 0 93 2a 66
        E 0 93 2c 66
        E 0 93 2e 66
        E 0 93 2f 66
        E 0 93 31 66
        E 1 93 33 66
        E 0 93 34 66
        E 0 93 36 66
        E 0 93 38 66
        E 0 93 3a 66
        E 1 93 3b 66
        E 0 94 25 64
        E 0 94 27 64
        E 0 94 29 63
        E 0 94 2a 64
        E 1 94 2c 64
        E 0 94 2e 64
        E 0 94 30 63
        E 0 94 31 64
        E 0 94 33 64
        E 1 94 35 63
        E 0 94 36 64
        E 0 94 38 64
        E 0 94 3a 64
        E 0 94 3c 63
        E 1 94 3d 64
        E 0 95 24 64
        E 0 95 26 64
        E 0 95 28 64
        E 0 95 29 64
        E 0 95 2b 64
        E 0 95 2d 64
        E 1 95 2f 64
        E 0 95 30 64
        E 0 95 32 64
        E 0 95 34 64
        E 0 95 35 64
        E 0 95 37 64
        E 1 95 39 64
        E 0 95 3b 64
        E 0 95 3c 64
        E 936 80 23 00
        E 0 80 25 67
        E 1 80 27 67
        E 0 80 28 00
        E 1 80 2a 67
        E 0 80 2c 67
        E 1 80 2e 67
        E 0 80 2f 00
        E 1 80 31 67
        E 0 80 33 67
        E 0 80 34 00
        E 1 80 36 67
        E 1 80 38 67
        E 0 80 3a 67
        E 1 80 3b 00
        E 0 81 25 65
        E 1 81 27 65
        E 1 81 29 00
        E 0 81 2a 65
        E 1 81 2c 65
        E 0 81 2e 65
        E 0 81 30 00
        E 0 81 31 65
        E 0 81 33 65
        E 0 81 35 00
        E 0 81 36 65
        E 0 81 38 65
        E 0 81 3a 65
        E 0 81 3c 00
        E 0 81 3d 65
        E 0 82 24 65
        E 0 82 26 65
        E 1 82 28 65
        E 0 82 29 65
        E 0 82 2b 65
        E 0 82 2d 65
        E 0 82 2f 65
        E 0 82 30 65
        E 0 82 32 65
        E 0 82 34 65
        E 0 82 35 65
        E 0 82 37 65
        E 0 82 39 65
        E 0 82 3b 65
        E 0 82 3c 65
        E 1 83 23 66
        E 0 83 25 66
        E 0 83 27 66
        E 0 83 28 66
        E 0 83 2a 66
        E 1 83 2c 66
        E 0 83 2e 66
        E 0 83 2f 66
        E 0 83 31 66
        E 0 83 33 66
        E 0 83 34 66
        E 0 83 36 66
        E 0 83 38 66
        E 0 83 3a 66
        E 0 83 3b 66
        E 1 84 25 64
        E 0 84 27 64
        E 0 84 29 63
        E 0 84 2a 64
        E 0 84 2c 64
        E 0 84 2e 64
        E 1 84 30 63
        E 0 84 31 64
        E 0 84 33 64
        E 0 84 35 63
        E 0 84 36 64
        E 0 84 38 64
        E 0 84 3a 64
        E 0 84 3c 63
        E 0 84 3d 64
        E 0 85 24 64
        E 0 85 26 64
        E 0 85 28 64
        E 0 85 29 64
        E 0 85 2b 64
        E 0 85 2d 64
        E 0 85 2f 64
        E 0 85 30 64
        E 1 85 32 64
        E 0 85 34 64
        E 0 85 35 64
        E 0 85 37 64
        E 0 85 39 64
        E 0 85 3b 64
        E 0 85 3c 64
        E 2865 80 3b 00
        E 1 80 40 00
        E 0 80 47 00
        E 1 80 4c 00
        E 1 80 53 00
        E 1 81 41 00
        E 0 81 48 00
        E 0 81 4d 00
        E 1 81 54 00
        E 1 90 3d 67
        E 0 90 3f 67
        E 1 90 42 67
        E 1 90 44 67
        E 0 90 46 67
        E 1 90 49 67
        E 0 90 4b 67
        E 2 90 4e 67
        E 0 90 50 67
        E 1 90 52 67
        E 0 91 3d 65
        E 0 91 3f 65
        E 1 91 42 65
        E 0 91 44 65
        E 1 91 46 65
        E 0 91 49 65
        E 1 91 4b 65
        E 0 91 4e 65
        E 1 91 50 65
        E 1 91 52 65
        E 0 91 55 65
        E 1 92 3c 65
        E 0 92 3e 65
        E 1 92 40 65
        E 1 92 41 65
        E 0 92 43 65
        E 1 92 45 65
        E 0 92 47 65
        E 1 92 48 65
        E 0 92 4a 65
        E 1 92 4c 65
        E 1 92 4d 65
        E 0 92 4f 65
        E 0 92 51 65
        E 1 92 53 65
        E 0 92 54 65
        E 1 93 3b 66
        E 1 93 3d 66
        E 0 93 3f 66
        E 1 93 40 66
        E 0 93 42 66
        E 0 93 44 66
        E 0 93 46 66
        E 1 93 47 66
        E 0 93 49 66
        E 1 93 4b 66
        E 0 93 4c 66
        E 0 93 4e 66
        E 1 93 50 66
        E 0 93 52 66
        E 0 93 53 66
        E 1 94 3d 64
        E 0 94 3f 64
        E 0 94 41 63
        E 0 94 42 64
        E 1 94 44 64
        E 0 94 46 64
        E 1 94 48 63
        E 0 94 49 64
        E 0 94 4b 64
        E 1 94 4d 63
        E 0 94 4e 64
        E 0 94 50 64
        E 1 94 52 64
        E 0 94 54 63
        E 0 94 55 64
        E 1 95 3c 64
        E 0 95 3e 64
        E 0 95 40 64
        E 1 95 41 64
        E 0 95 43 64
        E 0 95 45 64
        E 1 95 47 64
        E 0 95 48 64
        E 0 95 4a 64
        E 0 95 4c 64
        E 0 95 4d 64
        E 1 95 4f 64
        E 0 95 51 64
        E 0 95 53 64
        E 0 95 54 64
        E 922 80 3b 00
        E 1 80 3d 67
        E 0 80 3f 67
        E 0 80 40 00
        E 1 80 42 67
        E 0 80 44 67
        E 0 80 46 67
        E 1 80 47 00
        E 0 80 49 67
        E 1 80 4b 67
        E 0 80 4c 00
        E 0 80 4e 67
        E 0 80 50 67
        E 0 80 52 67
        E 1 80 53 00
        E 0 81 3d 65
        E 0 81 3f 65
        E 0 81 41 00
        E 0 81 42 65
        E 0 81 44 65
        E 0 81 46 65
        E 0 81 48 00
        E 0 81 49 65
        E 0 81 4b 65
        E 0 81 4d 00
        E 0 81 4e 65
        E 0 81 50 65
        E 0 81 52 65
        E 0 81 54 00
        E 1 81 55 65
        E 0 82 3c 65
        E 0 82 3e 65
        E 0 82 40 65
        E 0 82 41 65
        E 0 82 43 65
        E 0 82 45 65
        E 0 82 47 65
        E 0 82 48 65
        E 0 82 4a 65
        E 0 82 4c 65
        E 0 82 4d 65
        E 0 82 4f 65
        E 0 82 51 65
        E 0 82 53 65
        E 0 82 54 65
        E 0 83 3b 66
        E 0 83 3d 66
        E 1 83 3f 66
        E 0 83 40 66
        E 0 83 42 66
        E 0 83 44 66
        E 0 83 46 66
        E 0 83 47 66
        E 0 83 49 66
        E 0 83 4b 66
        E 0 83 4c 66
        E 0 83 4e 66
        E 0 83 50 66
        E 0 83 52 66
        E 0 83 53 66
        E 0 84 3d 64
        E 0 84 3f 64
        E 0 84 41 63
        E 0 84 42 64
        E 0 84 44 64
        E 1 84 46 64
        E 0 84 48 63
        E 0 84 49 64
        E 0 84 4b 64
        E 0 84 4d 63
        E 0 84 4e 64
        E 0 84 50 64
        E 0 84 52 64
        E 0 84 54 63
        E 0 84 55 64
        E 0 85 3c 64
        E 0 85 3e 64
        E 0 85 40 64
        E 0 85 41 64
        E 0 85 43 64
        E 0 85 45 64
        E 0 85 47 64
        E 0 85 48 64
        E 1 85 4a 64
        E 0 85 4c 64
        E 0 85 4d 64
        E 0 85 4f 64
        E 0 85 51 64
        E 0 85 53 64
        E 0 85 54 64
        E 2870 93 23 66
        E 1 93 25 66
        E 0 93 27 66
        E 1 93 28 66
        E 0 93 2a 66
        E 1 93 2c 66
        E 0 93 2e 66
        E 1 93 2f 66
        E 0 93 31 66
        E 0 93 33 66
        E 1 93 34 66
        E 1 93 36 66
        E 1 93 38 66
        E 0 93 3a 66
        E 1 93 3b 66
        E 1 94 25 64
        E 1 94 27 64
        E 0 94 29 63
        E 1 94 2a 64
        E 1 94 2c 64
        E 1 94 2e 64
        E 1 94 30 63
        E 1 94 31 64
        E 0 94 33 64
        E 1 94 35 63
        E 0 94 36 64
        E 0 94 38 64
        E 1 94 3a 64
        E 0 94 3c 63
        E 1 94 3d 64
        E 0 95 24 64
        E 0 95 26 64
        E 1 95 28 64
        E 0 95 29 64
        E 1 95 2b 64
        E 0 95 2d 64
        E 0 95 2f 64
        E 1 95 30 64
        E 0 95 32 64
        E 0 95 34 64
        E 1 95 35 64
        E 0 95 37 64
        E 0 95 39 64
        E 1 95 3b 64
        E 0 95 3c 64
        E 939 83 23 66
        E 0 83 25 66
        E 1 83 27 66
        E 0 83 28 66
        E 1 83 2a 66
        E 0 83 2c 66
        E 1 83 2e 66
        E 0 83 2f 66
        E 1 83 31 66
        E 0 83 33 66
        E 1 83 34 66
        E 1 83 36 66
        E 0 83 38 66
        E 1 83 3a 66
        E 1 83 3b 66
        E 1 84 25 64
        E 1 84 27 64
        E 1 84 29 63
        E 0 84 2a 64
        E 1 84 2c 64
        E 1 84 2e 64
        E 0 84 30 63
        E 1 84 31 64
        E 1 84 33 64
        E 0 84 35 63
        E 0 84 36 64
        E 1 84 38 64
        E 0 84 3a 64
        E 0 84 3c 63
        E 1 84 3d 64
        E 0 85 24 64
        E 0 85 26 64
        E 1 85 28 64
        E 0 85 29 64
        E 0 85 2b 64
        E 1 85 2d 64
        E 0 85 2f 64
        E 0 85 30 64
        E 1 85 32 64
        E 0 85 34 64
        E 0 85 35 64
        E 1 85 37 64
        E 0 85 39 64
        E 0 85 3b 64
        E 1 85 3c 64
        E 2855 80 23 00
        E 1 80 28 00
        E 0 80 2f 00
        E 1 80 34 00
        E 0 80 3b 00
        E 1 81 29 00
        E 1 81 30 00
        E 0 81 35 00
        E 1 81 3c 00
        E 0 90 25 67
        E 1 90 27 67
        E 1 90 2a 67
        E 0 90 2c 67
        E 1 90 2e 67
        E 1 90 31 67
        E 1 90 33 67
        E 0 90 36 67
        E 1 90 38 67
        E 0 90 3a 67
        E 1 91 25 65
        E 1 91 27 65
        E 0 91 2a 65
        E 1 91 2c 65
        E 1 91 2e 65
        E 1 91 31 65
        E 0 91 33 65
        E 1 91 36 65
        E 1 91 38 65
        E 0 91 3a 65
        E 0 91 3d 65
        E 1 92 24 65
        E 0 92 26 65
        E 0 92 28 65
        E 1 92 29 65
        E 0 92 2b 65
        E 1 92 2d 65
        E 0 92 2f 65
        E 1 92 30 65
        E 0 92 32 65
        E 0 92 34 65
        E 1 92 35 65
        E 0 92 37 65
        E 0 92 39 65
        E 1 92 3b 65
        E 0 92 3c 65
        E 937 80 23 00
        E 0 80 25 67
        E 1 80 27 67
        E 0 80 28 00
        E 1 80 2a 67
        E 0 80 2c 67
        E 1 80 2e 67
        E 1 80 2f 00
        E 0 80 31 67
        E 1 80 33 67
        E 0 80 34 00
        E 1 80 36 67
        E 0 80 38 67
        E 1 80 3a 67
        E 0 80 3b 00
        E 1 81 25 65
        E 0 81 27 65
        E 0 81 29 00
        E 1 81 2a 65
        E 0 81 2c 65
        E 0 81 2e 65
        E 0 81 30 00
        E 0 81 31 65
        E 1 81 33 65
        E 0 81 35 00
        E 0 81 36 65
        E 0 81 38 65
        E 0 81 3a 65
        E 0 81 3c 00
        E 0 81 3d 65
        E 0 82 24 65
        E 0 82 26 65
        E 0 82 28 65
        E 0 82 29 65
        E 0 82 2b 65
        E 0 82 2d 65
        E 0 82 2f 65
        E 1 82 30 65
        E 0 82 32 65
        E 0 82 34 65
        E 0 82 35 65
        E 0 82 37 65
        E 0 82 39 65
        E 0 82 3b 65
        E 0 82 3c 65
        E 2870 93 3b 66
        E 0 93 3d 66
        E 1 93 3f 66
        E 0 93 40 66
        E 1 93 42 66
        E 0 93 44 66
        E 1 93 46 66
        E 1 93 47 66
        E 0 93 49 66
        E 1 93 4b 66
        E 1 93 4c 66
        E 0 93 4e 66
        E 1 93 50 66
        E 0 93 52 66
        E 0 93 53 66
        E 1 94 3d 64
        E 0 94 3f 64
        E 0 94 41 63
        E 1 94 42 64
        E 0 94 44 64
        E 0 94 46 64
        E 1 94 48 63
        E 0 94 49 64
        E 0 94 4b 64
        E 0 94 4d 63
        E 0 94 4e 64
        E 0 94 50 64
        E 1 94 52 64
        E 0 94 54 63
        E 0 94 55 64
        E 0 95 3c 64
        E 0 95 3e 64
        E 0 95 40 64
        E 0 95 41 64
        E 0 95 43 64
        E 0 95 45 64
        E 0 95 47 64
        E 0 95 48 64
        E 0 95 4a 64
        E 1 95 4c 64
        E 0 95 4d 64
        E 0 95 4f 64
        E 0 95 51 64
        E 0 95 53 64
        E 0 95 54 64
        E 946 83 3b 66
        E 0 83 3d 66
        E 0 83 3f 66
        E 1 83 40 66
        E 0 83 42 66
        E 1 83 44 66
        E 1 83 46 66
        E 0 83 47 66
        E 1 83 49 66
        E 1 83 4b 66
        E 0 83 4c 66
        E 1 83 4e 66
        E 1 83 50 66
        E 0 83 52 66
        E 1 83 53 66
        E 1 84 3d 64
        E 0 84 3f 64
        E 1 84 41 63
        E 0 84 42 64
        E 1 84 44 64
        E 0 84 46 64
        E 1 84 48 63
        E 0 84 49 64
        E 1 84 4b 64
        E 1 84 4d 63
        E 0 84 4e 64
        E 1 84 50 64
        E 0 84 52 64
        E 1 84 54 63
        E 0 84 55 64
        E 0 85 3c 64
        E 1 85 3e 64
        E 0 85 40 64
        E 1 85 41 64
        E 0 85 43 64
        E 1 85 45 64
        E 0 85 47 64
        E 0 85 48 64
        E 1 85 4a 64
        E 0 85 4c 64
        E 0 85 4d 64
        E 1 85 4f 64
        E 0 85 51 64
        E 0 85 53 64
        E 1 85 54 64
        E 2857 80 3b 00
        E 1 80 40 00
        E 1 80 47 00
        E 0 80 4c 00
        E 1 80 53 00
        E 1 81 41 00
        E 0 81 48 00
        E 1 81 4d 00
        E 0 81 54 00
        E 1 90 3d 67
        E 0 90 3f 67
        E 1 90 42 67
        E 1 90 44 67
        E 0 90 46 67
        E 1 90 49 67
        E 1 90 4b 67
        E 1 90 4e 67
        E 1 90 50 67
        E 0 90 52 67
        E 1 91 3d 65
        E 1 91 3f 65
        E 0 91 42 65
        E 1 91 44 65
        E 0 91 46 65
        E 1 91 49 65
        E 0 91 4b 65
        E 1 91 4e 65
        E 0 91 50 65
        E 0 91 52 65
        E 1 91 55 65
        E 1 92 3c 65
        E 0 92 3e 65
        E 1 92 40 65
        E 0 92 41 65
        E 1 92 43 65
        E 0 92 45 65
        E 1 92 47 65
        E 1 92 48 65
        E 0 92 4a 65
        E 1 92 4c 65
        E 0 92 4d 65
        E 1 92 4f 65
        E 1 92 51 65
        E 0 92 53 65
        E 1 92 54 65
        E 935 80 3b 00
        E 0 80 3d 67
        E 0 80 3f 67
        E 1 80 40 00
        E 0 80 42 67
        E 1 80 44 67
        E 0 80 46 67
        E 1 80 47 00
        E 0 80 49 67
        E 1 80 4b 67
        E 0 80 4c 00
        E 1 80 4e 67
        E 2 80 50 67
        E 1 80 52 67
        E 0 80 53 00
        E 0 81 3d 65
        E 1 81 3f 65
        E 0 81 41 00
        E 0 81 42 65
        E 0 81 44 65
        E 1 81 46 65
        E 0 81 48 00
        E 0 81 49 65
        E 0 81 4b 65
        E 0 81 4d 00
        E 1 81 4e 65
        E 0 81 50 65
        E 0 81 52 65
        E 0 81 54 00
        E 0 81 55 65
        E 0 82 3c 65
        E 0 82 3e 65
        E 0 82 40 65
        E 0 82 41 65
        E 0 82 43 65
        E 0 82 45 65
        E 0 82 47 65
        E 1 82 48 65
        E 0 82 4a 65
        E 0 82 4c 65
        E 0 82 4d 65
        E 0 82 4f 65
        E 0 82 51 65
        E 0 82 53 65
        E 0 82 54 65
        E 159 b0 7b 00
        CCINTERP 32
        CHASE_CC_TAKEOFFS 1
        GUID {9F717787-6BD8-4AA5-B674-96E596D2EFDD}
        IGNTEMPO 0 120 4 4
        SRCCOLOR 95
      >
    >
  >
>
