<REAPER_PROJECT 0.1 "6.42/OSX64-clang" 1641493368
  RIPPLE 0
  GROUPOVERRIDE 0 0 0
  AUTOXFADE 1
  ENVATTACH 3
  POOLEDENVATTACH 0
  MIXERUIFLAGS 11 48
  PEAKGAIN 1
  FEEDBACK 0
  PANLAW 1
  PROJOFFS 0 0 0
  MAXPROJLEN 0 600
  GRID 3454 8 1 8 1 0 0 0
  TIMEMODE 1 5 -1 30 0 0 -1
  VIDEO_CONFIG 0 0 256
  PANMODE 3
  CURSOR 10.24205483656953
  ZOOM 12.00930887040609 1226 0
  VZOOMEX 6 0
  USE_REC_CFG 0
  RECMODE 1
  SMPTESYNC 0 30 100 40 1000 300 0 0 1 0 0
  LOOP 0
  LOOPGRAN 0 4
  RECORD_PATH "" ""
  <RECORD_CFG
  >
  <APPLYFX_CFG
  >
  RENDER_FILE ""
  RENDER_PATTERN ""
  RENDER_FMT 0 2 0
  RENDER_1X 0
  RENDER_RANGE 1 0 0 18 1000
  RENDER_RESAMPLE 3 0 1
  RENDER_ADDTOPROJ 0
  RENDER_STEMS 0
  RENDER_DITHER 0
  TIMELOCKMODE 1
  TEMPOENVLOCKMODE 1
  ITEMMIX 0
  DEFPITCHMODE 589824 0
  TAKELANE 1
  SAMPLERATE 44100 0 0
  <RENDER_CFG
  >
  LOCK 1
  <METRONOME 6 2
    VOL 0.25 0.125
    FREQ 800 1600 1
    BEATLEN 4
    SAMPLES "" ""
    PATTERN 2863311530 2863311529
    MULT 1
  >
  GLOBAL_AUTO -1
  TEMPO 120 4 4
  PLAYRATE 1 0 0.25 4
  SELECTION 0 0
  SELECTION2 0 0
  MASTERAUTOMODE 0
  MASTERTRACKHEIGHT 0 0
  MASTERPEAKCOL 16576
  MASTERMUTESOLO 0
  MASTERTRACKVIEW 0 0.6667 0.5 0.5 -1 -1 -1 0 0 0 -1 -1 0
  MASTERHWOUT 0 0 1 0 0 0 0 -1
  MASTER_NCH 2 2
  MASTER_VOLUME 1 0 -1 -1 1
  MASTER_FX 1
  MASTER_SEL 0
  <MASTERPLAYSPEEDENV
    EGUID {6C8C0697-821A-5540-9C65-ED178E77ECF3}
    ACT 0 -1
    VIS 0 1 1
    LANEHEIGHT 0 0
    ARM 0
    DEFSHAPE 0 -1 -1
  >
  <TEMPOENVEX
    EGUID {859E19C8-12C8-E140-B9C6-B94932B4D734}
    ACT 0 -1
    VIS 1 0 1
    LANEHEIGHT 0 0
    ARM 0
    DEFSHAPE 1 -1 -1
  >
  <PROJBAY
  >
  <TRACK {119C02D7-6EA6-3D48-9BB9-752F7EBD6900}
    NAME "vivaldi gloria full score"
    PEAKCOL 16576
    BEAT -1
    AUTOMODE 0
    VOLPAN 1 0 -1 -1 1
    MUTESOLO 0 0 0
    IPHASE 0
    PLAYOFFS 0 1
    ISBUS 0 0
    BUSCOMP 0 0 0 0 0
    SHOWINMIX 1 0.6667 0.5 1 0.5 -1 -1 -1
    FREEMODE 0
    SEL 0
    REC 0 4256 1 0 0 0 0
    VU 2
    TRACKHEIGHT 222 0 0 0 0 0
    INQ 0 0 0 0.5 100 0 0 100
    NCHAN 2
    FX 1
    TRACKID {119C02D7-6EA6-3D48-9BB9-752F7EBD6900}
    PERF 0
    MIDIOUT 160
    MAINSEND 1 0
    <ITEM
      POSITION 0
      SNAPOFFS 0
      LENGTH 1670.646875
      LOOP 1
      ALLTAKES 0
      FADEIN 1 0 0 1 0 0 0
      FADEOUT 1 0 0 1 0 0 0
      MUTE 0 0
      SEL 0
      IGUID {ED4349D7-935A-0345-8FDC-684F5C245A2D}
      IID 2
      NAME "01-Recorded MIDI"
      VOLPAN 1 0 1 -1
      SOFFS 0 0
      PLAYRATE 1 1 0 -1 0 0.0025
      CHANMODE 0
      GUID {E9181F61-73CD-CB4E-A7EC-F43D5DF46F3D}
      RECPASS 2
      <SOURCE MIDI
        HASDATA 1 960 QN
        CCINTERP 32
        POOLEDEVTS {3623DB99-39C8-764E-8914-347FDD5862E1}
        E 8504 b0 7b 00
        E 0 b1 7b 00
        E 0 b2 7b 00
        E 0 b3 7b 00
        E 0 b4 7b 00
        E 0 b5 7b 00
        E 0 b6 7b 00
        E 0 b7 7b 00
        E 0 b8 7b 00
        E 0 b9 7b 00
        E 0 ba 7b 00
        E 0 bb 7b 00
        E 0 bc 7b 00
        E 0 bd 7b 00
        E 0 be 7b 00
        E 0 bf 7b 00
        E 223 c9 00 00
        E 0 c0 34 00
        E 0 c1 34 00
        E 0 c2 34 00
        E 0 c3 34 00
        E 0 c4 38 00
        E 0 c5 44 00
        E 0 c6 28 00
        E 0 c7 30 00
        E 0 ce 30 00
        E 0 c8 30 00
        E 0 ca 34 00
        E 0 cb 34 00
        E 0 cc 34 00
        E 0 cd 30 00
        E 22 b0 07 64
        E 0 b0 0a 10
        E 0 b0 5b 3b
        E 0 b0 5d 00
        E 0 b1 07 64
        E 0 b1 0a 29
        E 0 b1 5b 3b
        E 0 b1 5d 00
        E 0 b2 07 64
        E 0 b2 0a 56
        E 0 b2 5b 3b
        E 0 b2 5d 00
        E 0 b3 07 64
        E 0 b3 0a 6f
        E 0 b3 5b 3b
        E 0 b3 5d 00
        E 0 b4 07 69
        E 0 b4 0a 51
        E 0 b4 5b 3b
        E 0 b4 5d 00
        E 0 b5 07 5f
        E 0 b5 0a 36
        E 0 b5 5b 3b
        E 0 b5 5d 00
        E 0 b6 07 64
        E 0 b6 0a 20
        E 0 b6 5b 3b
        E 0 b6 5d 00
        E 0 b7 07 64
        E 0 b7 0a 10
        E 0 b7 5b 3b
        E 0 b7 5d 00
        E 0 be 07 5f
        E 0 be 0a 6f
        E 0 be 5b 3b
        E 0 be 5d 00
        E 0 b8 07 5a
        E 0 b8 0a 20
        E 0 b8 5b 3b
        E 0 b8 5d 00
        E 0 ba 07 64
        E 0 ba 0a 10
        E 0 ba 5b 3b
        E 0 ba 5d 00
        E 0 bb 07 64
        E 0 bb 0a 10
        E 0 bb 5b 3b
        E 0 bb 5d 00
        E 0 bc 07 64
        E 0 bc 0a 29
        E 0 bc 5b 3b
        E 0 bc 5d 00
        E 0 bd 07 5a
        E 0 bd 0a 5f
        E 0 bd 5b 3b
        E 0 bd 5d 00
        E 907 c0 34 00
        E 0 c0 34 00
        E 0 c1 34 00
        E 0 c1 34 00
        E 0 c2 34 00
        E 0 c2 34 00
        E 0 c3 34 00
        E 0 c3 34 00
        E 0 c4 38 00
        E 0 c4 38 00
        E 0 c5 44 00
        E 0 c5 44 00
        E 0 c6 28 00
        E 0 c6 28 00
        E 0 c7 30 00
        E 0 c7 30 00
        E 0 ce 30 00
        E 0 ce 30 00
        E 0 c8 30 00
        E 0 c8 30 00
        E 0 ca 34 00
        E 0 ca 34 00
        E 0 cb 34 00
        E 0 cb 34 00
        E 0 cc 34 00
        E 0 cc 34 00
        E 0 cd 30 00
        E 0 cd 30 00
        E 0 94 3e 64
        E 0 95 3e 64
        E 0 97 3e 64
        E 0 9e 3e 64
        E 0 98 3e 64
        E 0 9d 32 64
        E 406 84 3e 64
        E 0 85 3e 64
        E 0 87 3e 64
        E 0 8e 3e 64
        E 0 88 3e 64
        E 0 8d 32 64
        E 1 94 4a 64
        E 1 95 4a 64
        E 0 97 4a 64
        E 0 9e 4a 64
        E 1 98 4a 64
        E 5 9d 3e 64
        E 403 84 4a 64
        E 0 85 4a 64
        E 0 87 4a 64
        E 0 8e 4a 64
        E 0 88 4a 64
        E 0 8d 3e 64
        E 0 94 3e 64
        E 0 95 3e 64
        E 0 97 3e 64
        E 0 9e 3e 64
        E 0 98 3e 64
        E 0 9d 32 64
        E 408 84 3e 64
        E 0 85 3e 64
        E 0 87 3e 64
        E 0 8e 3e 64
        E 0 88 3e 64
        E 0 8d 32 64
        E 0 94 3e 64
        E 0 95 3e 64
        E 0 97 3e 64
        E 0 9e 3e 64
        E 0 98 3e 64
        E 0 9d 32 64
        E 409 84 3e 64
        E 0 85 3e 64
        E 0 87 3e 64
        E 0 8e 3e 64
        E 0 88 3e 64
        E 0 8d 32 64
        E 0 94 3e 64
        E 1 95 3e 64
        E 0 97 3e 64
        E 0 9e 3e 64
        E 0 98 3e 64
        E 0 9d 32 64
        E 405 84 3e 64
        E 0 85 3e 64
        E 0 87 3e 64
        E 0 8e 3e 64
        E 0 88 3e 64
        E 0 8d 32 64
        E 1 94 4a 64
        E 0 95 4a 64
        E 0 97 4a 64
        E 0 9e 4a 64
        E 0 98 4a 64
        E 0 9d 3e 64
        E 410 84 4a 64
        E 0 85 4a 64
        E 0 87 4a 64
        E 0 8e 4a 64
        E 0 88 4a 64
        E 0 8d 3e 64
        E 0 94 3e 64
        E 1 95 3e 64
        E 0 97 3e 64
        E 0 9e 3e 64
        E 0 98 3e 64
        E 0 9d 32 64
        E 408 84 3e 64
        E 0 85 3e 64
        E 0 87 3e 64
        E 0 8e 3e 64
        E 0 88 3e 64
        E 0 8d 32 64
        E 0 94 3e 64
        E 9 95 3e 64
        E 0 97 3e 64
        E 0 9e 3e 64
        E 0 98 3e 64
        E 0 9d 32 64
        E 400 84 3e 64
        E 0 85 3e 64
        E 0 87 3e 64
        E 0 8e 3e 64
        E 0 88 3e 64
        E 0 8d 32 64
        E 0 94 3e 64
        E 0 95 3e 64
        E 0 97 3e 64
        E 0 9e 3e 64
        E 0 98 3e 64
        E 0 9d 32 64
        E 407 85 3e 64
        E 0 87 3e 64
        E 0 8e 3e 64
        E 0 88 3e 64
        E 0 8d 32 64
        E 0 95 42 64
        E 0 97 42 64
        E 0 9e 42 64
        E 0 98 3e 64
        E 0 9d 32 64
        E 204 85 42 64
        E 0 87 42 64
        E 0 8e 42 64
        E 0 88 3e 64
        E 0 8d 32 64
        E 0 95 43 64
        E 0 97 43 64
        E 0 9e 43 64
        E 1 98 40 64
        E 0 9d 34 64
        E 205 84 3e 64
        E 3 85 43 64
        E 0 87 43 64
        E 0 8e 43 64
        E 0 88 40 64
        E 0 8d 34 64
        E 0 95 45 64
        E 1 97 45 64
        E 0 9e 45 64
        E 0 98 42 64
        E 0 9d 36 64
        E 403 85 45 64
        E 0 87 45 64
        E 0 8e 45 64
        E 0 88 42 64
        E 0 8d 36 64
        E 0 95 43 64
        E 0 97 43 64
        E 0 9e 43 64
        E 0 98 40 64
        E 0 9d 34 64
        E 411 85 43 64
        E 0 87 43 64
        E 0 8e 43 64
        E 0 88 40 64
        E 0 8d 34 64
        E 0 95 42 64
        E 0 97 42 64
        E 0 9e 42 64
        E 0 98 3e 64
        E 0 9d 32 64
        E 407 85 42 64
        E 0 87 42 64
        E 0 8e 42 64
        E 0 88 3e 64
        E 0 8d 32 64
        E 0 95 42 64
        E 0 97 42 64
        E 0 9e 42 64
        E 0 98 3e 64
        E 0 9d 32 64
        E 204 85 42 64
        E 0 87 42 64
        E 0 8e 42 64
        E 0 88 3e 64
        E 0 8d 32 64
        E 0 95 43 64
        E 0 97 43 64
        E 0 9e 43 64
        E 0 98 40 64
        E 0 9d 34 64
        E 204 85 43 64
        E 0 87 43 64
        E 0 8e 43 64
        E 0 88 40 64
        E 0 8d 34 64
        E 0 95 45 64
        E 0 97 45 64
        E 5 9e 45 64
        E 1 98 42 64
        E 0 9d 36 64
        E 402 85 45 64
        E 0 87 45 64
        E 0 8e 45 64
        E 0 88 42 64
        E 0 8d 36 64
        E 0 95 43 64
        E 0 97 43 64
        E 1 9e 43 64
        E 0 98 40 64
        E 0 9d 34 64
        E 408 85 43 64
        E 0 87 43 64
        E 0 8e 43 64
        E 0 88 40 64
        E 0 8d 34 64
        E 1 94 3e 64
        E 0 95 42 64
        E 0 97 42 64
        E 0 9e 42 64
        E 0 98 3e 64
        E 0 9d 32 64
        E 408 84 3e 64
        E 0 85 42 64
        E 0 87 42 64
        E 0 8e 42 64
        E 0 88 3e 64
        E 0 8d 32 64
        E 1 94 4a 64
        E 0 95 4a 64
        E 0 97 4a 64
        E 0 9e 4a 64
        E 1 98 4a 64
        E 0 9d 3e 64
        E 406 84 4a 64
        E 0 85 4a 64
        E 0 87 4a 64
        E 0 8e 4a 64
        E 0 88 4a 64
        E 0 8d 3e 64
        E 0 94 3e 64
        E 0 95 3e 64
        E 2 97 3e 64
        E 1 9e 3e 64
        E 2 98 3e 64
        E 0 9d 32 64
        E 403 84 3e 64
        E 0 85 3e 64
        E 0 87 3e 64
        E 0 8e 3e 64
        E 0 88 3e 64
        E 0 8d 32 64
        E 0 94 3e 64
        E 0 95 3e 64
        E 0 97 3e 64
        E 0 9e 3e 64
        E 0 98 3e 64
        E 0 9d 32 64
        E 410 84 3e 64
        E 0 85 3e 64
        E 0 87 3e 64
        E 0 8e 3e 64
        E 0 88 3e 64
        E 0 8d 32 64
        E 0 94 3e 64
        E 0 95 3e 64
        E 1 97 3e 64
        E 0 9e 3e 64
        E 0 98 3e 64
        E 0 9d 32 64
        E 407 84 3e 64
        E 0 85 3e 64
        E 0 87 3e 64
        E 0 8e 3e 64
        E 0 88 3e 64
        E 1 8d 32 64
        E 0 94 4a 64
        E 0 95 4a 64
        E 0 97 4a 64
        E 0 9e 4a 64
        E 0 98 4a 64
        E 0 9d 3e 64
        E 405 84 4a 64
        E 0 85 4a 64
        E 0 87 4a 64
        E 0 8e 4a 64
        E 0 88 4a 64
        E 0 8d 3e 64
        E 0 94 3e 64
        E 0 95 3e 64
        E 0 97 3e 64
        E 1 9e 3e 64
        E 0 98 3e 64
        E 0 9d 32 64
        E 408 84 3e 64
        E 0 85 3e 64
        E 0 87 3e 64
        E 0 8e 3e 64
        E 0 88 3e 64
        E 0 8d 32 64
        E 0 94 3e 64
        E 0 95 3e 64
        E 0 97 3e 64
        E 0 9e 3e 64
        E 1 98 3e 64
        E 0 9d 32 64
        E 409 84 3e 64
        E 0 85 3e 64
        E 0 87 3e 64
        E 0 8e 3e 64
        E 0 88 3e 64
        E 0 8d 32 64
        E 0 94 3e 64
        E 0 95 3e 64
        E 0 97 3e 64
        E 0 9e 3e 64
        E 0 98 3e 64
        E 0 9d 32 64
        E 408 87 3e 64
        E 0 8e 3e 64
        E 0 97 4e 64
        E 1 9e 4a 64
        E 204 87 4e 64
        E 1 8e 4a 64
        E 0 97 4f 64
        E 0 9e 4c 64
        E 202 84 3e 64
        E 0 85 3e 64
        E 0 87 4f 64
        E 0 8e 4c 64
        E 0 88 3e 64
        E 0 8d 32 64
        E 0 97 51 64
        E 0 9e 4e 64
        E 206 87 51 64
        E 1 8e 4e 64
        E 0 97 4f 64
        E 0 9e 4c 64
        E 201 87 4f 64
        E 0 8e 4c 64
        E 0 97 51 64
        E 0 9e 4e 64
        E 207 87 51 64
        E 0 8e 4e 64
        E 0 97 4f 64
        E 1 9e 4c 64
        E 202 87 4f 64
        E 1 8e 4c 64
        E 0 97 4e 64
        E 0 9e 4a 64
        E 407 87 4e 64
        E 0 8e 4a 64
        E 1 97 4e 64
        E 0 9e 4a 64
        E 203 87 4e 64
        E 0 8e 4a 64
        E 0 97 4f 64
        E 0 9e 4c 64
        E 206 87 4f 64
        E 0 8e 4c 64
        E 0 97 51 64
        E 1 9e 4e 64
        E 202 87 51 64
        E 0 8e 4e 64
        E 1 97 4f 64
        E 2 9e 4c 64
        E 201 87 4f 64
        E 0 8e 4c 64
        E 0 97 51 64
        E 1 9e 4e 64
        E 203 87 51 64
        E 0 8e 4e 64
        E 0 97 4f 64
        E 0 9e 4c 64
        E 206 87 4f 64
        E 0 8e 4c 64
        E 0 94 3e 64
        E 0 95 3e 64
        E 0 97 4e 64
        E 0 9e 4a 64
        E 0 98 3e 64
        E 0 9d 32 64
        E 408 84 3e 64
        E 0 85 3e 64
        E 0 87 4e 64
        E 0 8e 4a 64
        E 0 88 3e 64
        E 0 8d 32 64
        E 0 94 4a 64
        E 0 95 4a 64
        E 0 97 4a 64
        E 0 9e 4a 64
        E 0 98 4a 64
        E 0 9d 3e 64
        E 411 84 4a 64
        E 0 85 4a 64
        E 0 87 4a 64
        E 0 8e 4a 64
        E 0 88 4a 64
        E 0 8d 3e 64
        E 0 94 3e 64
        E 0 95 3e 64
        E 0 97 3e 64
        E 0 9e 3e 64
        E 0 98 3e 64
        E 0 9d 32 64
        E 404 84 3e 64
        E 0 85 3e 64
        E 1 87 3e 64
        E 0 8e 3e 64
        E 0 88 3e 64
        E 0 8d 32 64
        E 0 94 3e 64
        E 0 95 3e 64
        E 0 97 3e 64
        E 0 9e 3e 64
        E 0 98 3e 64
        E 0 9d 32 64
        E 409 84 3e 64
        E 0 85 3e 64
        E 0 87 3e 64
        E 0 8e 3e 64
        E 0 88 3e 64
        E 0 8d 32 64
        E 0 94 3e 64
        E 1 95 3e 64
        E 0 97 3e 64
        E 0 9e 3e 64
        E 0 98 3e 64
        E 0 9d 32 64
        E 407 84 3e 64
        E 0 85 3e 64
        E 0 87 3e 64
        E 0 8e 3e 64
        E 0 88 3e 64
        E 0 8d 32 64
        E 0 94 4a 64
        E 1 95 4a 64
        E 0 97 4a 64
        E 0 9e 4a 64
        E 0 98 4a 64
        E 0 9d 3e 64
        E 408 84 4a 64
        E 0 85 4a 64
        E 0 87 4a 64
        E 0 8e 4a 64
        E 0 88 4a 64
        E 0 8d 3e 64
        E 0 94 3e 64
        E 0 95 3e 64
        E 0 97 3e 64
        E 0 9e 3e 64
        E 0 98 3e 64
        E 1 9d 32 64
        E 409 84 3e 64
        E 0 85 3e 64
        E 0 87 3e 64
        E 0 8e 3e 64
        E 0 88 3e 64
        E 0 8d 32 64
        E 1 94 3e 64
        E 1 95 3e 64
        E 0 97 3e 64
        E 0 9e 3e 64
        E 0 98 3e 64
        E 0 9d 32 64
        E 406 84 3e 64
        E 0 85 3e 64
        E 0 87 3e 64
        E 0 8e 3e 64
        E 0 88 3e 64
        E 0 8d 32 64
        E 0 94 3e 64
        E 0 95 3e 64
        E 0 97 3e 64
        E 0 9e 3e 64
        E 0 98 3e 64
        E 0 9d 32 64
        E 407 84 3e 64
        E 0 85 3e 64
        E 0 94 4e 64
        E 1 95 4a 64
        E 202 84 4e 64
        E 0 85 4a 64
        E 0 94 4f 64
        E 0 95 4c 64
        E 206 84 4f 64
        E 0 85 4c 64
        E 0 87 3e 64
        E 0 8e 3e 64
        E 0 88 3e 64
        E 0 8d 32 64
        E 0 94 51 64
        E 0 95 4e 64
        E 205 84 51 64
        E 0 85 4e 64
        E 0 94 4f 64
        E 0 95 4c 64
        E 203 84 4f 64
        E 0 85 4c 64
        E 0 94 51 64
        E 0 95 4e 64
        E 206 84 51 64
        E 0 85 4e 64
        E 1 94 4f 64
        E 0 95 4c 64
        E 200 84 4f 64
        E 0 85 4c 64
        E 1 94 4e 64
        E 0 95 4a 64
        E 410 84 4e 64
        E 0 85 4a 64
        E 1 94 4e 64
        E 0 95 4a 64
        E 203 84 4e 64
        E 0 85 4a 64
        E 0 94 4f 64
        E 0 95 4c 64
        E 205 84 4f 64
        E 0 85 4c 64
        E 1 94 51 64
        E 0 95 4e 64
        E 203 84 51 64
        E 0 85 4e 64
        E 0 94 4f 64
        E 0 95 4c 64
        E 203 84 4f 64
        E 0 85 4c 64
        E 0 94 51 64
        E 0 95 4e 64
        E 204 84 51 64
        E 0 85 4e 64
        E 1 94 4f 64
        E 0 95 4c 64
        E 204 84 4f 64
        E 0 85 4c 64
        E 0 94 4e 64
        E 0 95 4a 64
        E 1 97 3e 64
        E 0 9e 3e 64
        E 0 98 3e 64
        E 0 9d 32 64
        E 407 84 4e 64
        E 0 85 4a 64
        E 0 87 3e 64
        E 0 8e 3e 64
        E 0 88 3e 64
        E 0 8d 32 64
        E 0 94 4a 64
        E 0 95 4a 64
        E 0 97 4a 64
        E 0 9e 4a 64
        E 0 98 4a 64
        E 0 9d 3e 64
        E 414 84 4a 64
        E 0 85 4a 64
        E 0 87 4a 64
        E 1 8e 4a 64
        E 0 88 4a 64
        E 0 8d 3e 64
        E 0 94 3e 64
        E 0 95 3e 64
        E 0 97 3e 64
        E 0 9e 3e 64
        E 0 98 3e 64
        E 0 9d 32 64
        E 403 84 3e 64
        E 0 85 3e 64
        E 0 87 3e 64
        E 0 8e 3e 64
        E 0 88 3e 64
        E 0 8d 32 64
        E 0 94 3e 64
        E 0 95 3e 64
        E 0 97 3e 64
        E 0 9e 3e 64
        E 0 98 3e 64
        E 0 9d 32 64
        E 408 84 3e 64
        E 0 85 3e 64
        E 0 87 3e 64
        E 0 8e 3e 64
        E 0 88 3e 64
        E 0 8d 32 64
        E 0 94 3e 64
        E 1 95 3e 64
        E 0 97 3e 64
        E 0 9e 3e 64
        E 0 98 3e 64
        E 0 9d 32 64
        E 407 84 3e 64
        E 0 85 3e 64
        E 0 87 3e 64
        E 0 8e 3e 64
        E 0 88 3e 64
        E 0 8d 32 64
        E 0 94 4a 64
        E 0 95 4a 64
        E 0 97 4a 64
        E 0 9e 4a 64
        E 0 98 4a 64
        E 0 9d 3e 64
        E 408 84 4a 64
        E 0 85 4a 64
        E 0 87 4a 64
        E 0 8e 4a 64
        E 0 88 4a 64
        E 0 8d 3e 64
        E 0 94 3e 64
        E 0 95 3e 64
        E 0 97 3e 64
        E 0 9e 3e 64
        E 1 98 3e 64
        E 0 9d 32 64
        E 409 84 3e 64
        E 0 85 3e 64
        E 0 87 3e 64
        E 0 8e 3e 64
        E 0 88 3e 64
        E 0 8d 32 64
        E 0 94 3e 64
        E 0 95 3e 64
        E 0 97 3e 64
        E 0 9e 3e 64
        E 0 98 3e 64
        E 0 9d 32 64
        E 407 84 3e 64
        E 0 85 3e 64
        E 0 87 3e 64
        E 0 8e 3e 64
        E 0 88 3e 64
        E 0 8d 32 64
        E 0 94 3e 64
        E 0 95 3e 64
        E 0 97 3e 64
        E 0 9e 3e 64
        E 0 98 3e 64
        E 0 9d 32 64
        E 408 87 3e 64
        E 0 8e 3e 64
        E 1 88 3e 64
        E 0 8d 32 64
        E 0 97 4e 64
        E 1 9e 4a 64
        E 1 98 45 64
        E 0 9d 3e 64
        E 204 87 4e 64
        E 0 8e 4a 64
        E 0 97 4f 64
        E 0 9e 4c 64
        E 203 84 3e 64
        E 0 85 3e 64
        E 0 87 4f 64
        E 0 8e 4c 64
        E 0 88 45 64
        E 0 8d 3e 64
        E 0 97 51 64
        E 0 9e 4e 64
        E 0 98 45 64
        E 0 9d 32 64
        E 203 87 51 64
        E 0 8e 4e 64
        E 1 97 4f 64
        E 0 9e 4c 64
        E 204 87 4f 64
        E 0 8e 4c 64
        E 0 88 45 64
        E 0 8d 32 64
        E 1 94 51 64
        E 0 95 4e 64
        E 0 97 51 64
        E 0 9e 4e 64
        E 0 98 45 64
        E 0 9d 32 64
        E 203 87 51 64
        E 0 8e 4e 64
        E 0 97 4e 64
        E 0 9e 4a 64
        E 205 84 51 64
        E 0 85 4e 64
        E 0 87 4e 64
        E 0 8e 4a 64
        E 0 88 45 64
        E 0 8d 32 64
        E 0 94 53 64
        E 0 95 4e 64
        E 0 97 53 64
        E 0 9e 4e 64
        E 0 98 42 64
        E 0 9d 32 64
        E 204 87 53 64
        E 0 8e 4e 64
        E 0 97 4e 64
        E 1 9e 4a 64
        E 203 84 53 64
        E 0 85 4e 64
        E 0 87 4e 64
        E 0 8e 4a 64
        E 0 88 42 64
        E 0 8d 32 64
        E 0 94 53 64
        E 0 95 4e 64
        E 0 97 53 64
        E 0 9e 4e 64
        E 0 98 42 64
        E 0 9d 3e 64
        E 206 87 53 64
        E 0 8e 4e 64
        E 0 97 4e 64
        E 1 9e 4a 64
        E 203 84 53 64
        E 0 85 4e 64
        E 0 87 4e 64
        E 0 8e 4a 64
        E 0 88 42 64
        E 0 8d 3e 64
        E 0 94 53 64
        E 0 95 4e 64
        E 0 97 53 64
        E 0 9e 4e 64
        E 0 98 42 64
        E 0 9d 32 64
        E 202 87 53 64
        E 0 8e 4e 64
        E 1 97 4e 64
        E 0 9e 4a 64
        E 206 84 53 64
        E 0 85 4e 64
        E 0 87 4e 64
        E 0 8e 4a 64
        E 0 88 42 64
        E 0 8d 32 64
        E 0 94 53 64
        E 0 95 4e 64
        E 0 97 53 64
        E 0 9e 4e 64
        E 1 98 42 64
        E 0 9d 32 64
        E 203 87 53 64
        E 1 8e 4e 64
        E 0 97 4e 64
        E 0 9e 4a 64
        E 200 84 53 64
        E 0 85 4e 64
        E 0 87 4e 64
        E 0 8e 4a 64
        E 1 88 42 64
        E 0 8d 32 64
        E 0 94 53 64
        E 0 95 4f 64
        E 0 97 53 64
        E 0 9e 4f 64
        E 0 98 40 64
        E 0 9d 31 64
        E 204 87 53 64
        E 0 8e 4f 64
        E 1 97 4f 64
        E 0 9e 4c 64
        E 203 84 53 64
        E 2 85 4f 64
        E 0 87 4f 64
        E 0 8e 4c 64
        E 0 88 40 64
        E 0 8d 31 64
        E 1 94 53 64
        E 0 95 4f 64
        E 0 97 53 64
        E 0 9e 4f 64
        E 1 98 40 64
        E 0 9d 3d 64
        E 204 87 53 64
        E 0 8e 4f 64
        E 0 97 4f 64
        E 0 9e 4c 64
        E 201 84 53 64
        E 0 85 4f 64
        E 0 87 4f 64
        E 0 8e 4c 64
        E 0 88 40 64
        E 0 8d 3d 64
        E 0 94 53 64
        E 0 95 4f 64
        E 0 97 53 64
        E 0 9e 4f 64
        E 0 98 40 64
        E 0 9d 31 64
        E 203 87 53 64
        E 1 8e 4f 64
        E 0 97 4f 64
        E 0 9e 4c 64
        E 205 84 53 64
        E 0 85 4f 64
        E 0 87 4f 64
        E 0 8e 4c 64
        E 0 88 40 64
        E 0 8d 31 64
        E 1 94 53 64
        E 0 95 4f 64
        E 0 97 53 64
        E 0 9e 4f 64
        E 0 98 40 64
        E 0 9d 31 64
        E 203 87 53 64
        E 0 8e 4f 64
        E 0 97 4f 64
        E 0 9e 4c 64
        E 205 84 53 64
        E 0 85 4f 64
        E 0 87 4f 64
        E 0 8e 4c 64
        E 0 88 40 64
        E 0 8d 31 64
        E 0 94 51 64
        E 0 95 4c 64
        E 0 97 51 64
        E 0 9e 4c 64
        E 0 98 45 64
        E 0 9d 31 64
        E 204 87 51 64
        E 0 8e 4c 64
        E 0 97 4c 64
        E 0 9e 49 64
        E 204 84 51 64
        E 0 85 4c 64
        E 0 87 4c 64
        E 0 8e 49 64
        E 0 88 45 64
        E 0 8d 31 64
        E 0 94 51 64
        E 0 95 4c 64
        E 0 97 51 64
        E 0 9e 4c 64
        E 0 98 45 64
        E 0 9d 3d 64
        E 206 87 51 64
        E 0 8e 4c 64
        E 0 97 4c 64
        E 0 9e 49 64
        E 212 84 51 64
        E 0 85 4c 64
        E 0 87 4c 64
        E 0 8e 49 64
        E 0 88 45 64
        E 0 8d 3d 64
        E 0 94 51 64
        E 0 95 4c 64
        E 0 97 51 64
        E 0 9e 4c 64
        E 0 98 45 64
        E 1 9d 31 64
        E 192 87 51 64
        E 0 8e 4c 64
        E 1 97 4c 64
        E 0 9e 49 64
        E 205 84 51 64
        E 0 85 4c 64
        E 0 87 4c 64
        E 0 8e 49 64
        E 0 88 45 64
        E 0 8d 31 64
        E 0 94 51 64
        E 0 95 4c 64
        E 1 97 51 64
        E 0 9e 4c 64
        E 0 98 45 64
        E 0 9d 31 64
        E 203 87 51 64
        E 0 8e 4c 64
        E 0 97 4c 64
        E 0 9e 49 64
        E 207 84 51 64
        E 0 85 4c 64
        E 0 87 4c 64
        E 0 8e 49 64
        E 0 88 45 64
        E 0 8d 31 64
        E 0 94 51 64
        E 0 95 4e 64
        E 0 97 51 64
        E 0 9e 4e 64
        E 0 98 3e 64
        E 0 9d 2f 64
        E 201 87 51 64
        E 0 8e 4e 64
        E 0 97 4e 64
        E 0 9e 4a 64
        E 206 84 51 64
        E 0 85 4e 64
        E 0 87 4e 64
        E 0 8e 4a 64
        E 0 88 3e 64
        E 0 8d 2f 64
        E 0 94 51 64
        E 1 95 4e 64
        E 0 97 51 64
        E 0 9e 4e 64
        E 0 98 3e 64
        E 0 9d 3b 64
        E 203 87 51 64
        E 0 8e 4e 64
        E 0 97 4e 64
        E 1 9e 4a 64
        E 206 84 51 64
        E 0 85 4e 64
        E 0 87 4e 64
        E 0 8e 4a 64
        E 0 88 3e 64
        E 0 8d 3b 64
        E 0 94 51 64
        E 0 95 4e 64
        E 0 97 51 64
        E 0 9e 4e 64
        E 0 98 3e 64
        E 1 9d 2f 64
        E 201 87 51 64
        E 1 8e 4e 64
        E 0 97 4e 64
        E 0 9e 4a 64
        E 204 84 51 64
        E 0 85 4e 64
        E 0 87 4e 64
        E 0 8e 4a 64
        E 0 88 3e 64
        E 0 8d 2f 64
        E 0 94 51 64
        E 0 95 4e 64
        E 0 97 51 64
        E 0 9e 4e 64
        E 0 98 3e 64
        E 0 9d 2f 64
        E 202 87 51 64
        E 0 8e 4e 64
        E 0 97 4e 64
        E 0 9e 4a 64
        E 206 84 51 64
        E 0 85 4e 64
        E 0 87 4e 64
        E 0 8e 4a 64
        E 0 88 3e 64
        E 0 8d 2f 64
        E 0 94 4f 64
        E 0 95 4a 64
        E 0 97 4f 64
        E 0 9e 4a 64
        E 0 98 43 64
        E 0 9d 2f 64
        E 203 87 4f 64
        E 0 8e 4a 64
        E 0 97 4a 64
        E 0 9e 47 64
        E 204 84 4f 64
        E 0 85 4a 64
        E 0 87 4a 64
        E 0 8e 47 64
        E 0 88 43 64
        E 0 8d 2f 64
        E 0 94 4f 64
        E 0 95 4a 64
        E 0 97 4f 64
        E 1 9e 4a 64
        E 0 98 43 64
        E 0 9d 3b 64
        E 204 87 4f 64
        E 0 8e 4a 64
        E 0 97 4a 64
        E 0 9e 47 64
        E 206 84 4f 64
        E 0 85 4a 64
        E 0 87 4a 64
        E 0 8e 47 64
        E 0 88 43 64
        E 0 8d 3b 64
        E 1 94 4f 64
        E 0 95 4a 64
        E 1 97 4f 64
        E 0 9e 4a 64
        E 1 98 43 64
        E 3 9d 2f 64
        E 198 87 4f 64
        E 0 8e 4a 64
        E 0 97 4a 64
        E 0 9e 47 64
        E 202 84 4f 64
        E 0 85 4a 64
        E 0 87 4a 64
        E 0 8e 47 64
        E 0 88 43 64
        E 0 8d 2f 64
        E 0 94 4f 64
        E 1 95 4a 64
        E 0 97 4f 64
        E 0 9e 4a 64
        E 0 98 43 64
        E 0 9d 2f 64
        E 202 87 4f 64
        E 0 8e 4a 64
        E 1 97 4a 64
        E 0 9e 47 64
        E 205 84 4f 64
        E 1 85 4a 64
        E 0 87 4a 64
        E 0 8e 47 64
        E 0 88 43 64
        E 0 8d 2f 64
        E 0 94 4f 64
        E 0 95 4c 64
        E 0 97 4f 64
        E 0 9e 4c 64
        E 0 98 3d 64
        E 0 9d 2d 64
        E 203 87 4f 64
        E 0 8e 4c 64
        E 1 97 4c 64
        E 0 9e 49 64
        E 204 84 4f 64
        E 0 85 4c 64
        E 0 87 4c 64
        E 0 8e 49 64
        E 0 88 3d 64
        E 0 8d 2d 64
        E 0 94 4f 64
        E 0 95 4c 64
        E 0 97 4f 64
        E 0 9e 4c 64
        E 0 98 3d 64
        E 0 9d 39 64
        E 204 87 4f 64
        E 1 8e 4c 64
        E 0 97 4c 64
        E 0 9e 49 64
        E 202 84 4f 64
        E 0 85 4c 64
        E 0 87 4c 64
        E 0 8e 49 64
        E 0 88 3d 64
        E 0 8d 39 64
        E 0 94 4f 64
        E 1 95 4c 64
        E 0 97 4f 64
        E 0 9e 4c 64
        E 0 98 3d 64
        E 0 9d 2d 64
        E 204 87 4f 64
        E 0 8e 4c 64
        E 1 97 4c 64
        E 0 9e 49 64
        E 203 84 4f 64
        E 0 85 4c 64
        E 0 87 4c 64
        E 0 8e 49 64
        E 0 88 3d 64
        E 0 8d 2d 64
        E 0 94 4f 64
        E 0 95 4c 64
        E 0 97 4f 64
        E 0 9e 4c 64
        E 0 98 3d 64
        E 0 9d 2d 64
        E 205 87 4f 64
        E 0 8e 4c 64
        E 0 97 4c 64
        E 1 9e 49 64
        E 204 84 4f 64
        E 0 85 4c 64
        E 0 87 4c 64
        E 0 8e 49 64
        E 0 88 3d 64
        E 0 8d 2d 64
        E 0 94 4e 64
        E 0 95 49 64
        E 0 97 4e 64
        E 0 9e 49 64
        E 0 98 42 64
        E 0 9d 2d 64
        E 204 87 4e 64
        E 0 8e 49 64
        E 0 97 49 64
        E 1 9e 45 64
        E 202 84 4e 64
        E 0 85 49 64
        E 1 87 49 64
        E 0 8e 45 64
        E 0 88 42 64
        E 0 8d 2d 64
        E 0 94 4e 64
        E 0 95 49 64
        E 0 97 4e 64
        E 0 9e 49 64
        E 1 98 42 64
        E 0 9d 39 64
        E 203 87 4e 64
        E 0 8e 49 64
        E 1 97 49 64
        E 0 9e 45 64
        E 202 84 4e 64
        E 0 85 49 64
        E 0 87 49 64
        E 0 8e 45 64
        E 0 88 42 64
        E 0 8d 39 64
        E 0 94 4e 64
        E 0 95 49 64
        E 0 97 4e 64
        E 0 9e 49 64
        E 0 98 42 64
        E 0 9d 2d 64
        E 207 87 4e 64
        E 0 8e 49 64
        E 0 97 49 64
        E 1 9e 45 64
        E 201 84 4e 64
        E 0 85 49 64
        E 0 87 49 64
        E 0 8e 45 64
        E 0 88 42 64
        E 1 8d 2d 64
        E 0 94 4e 64
        E 0 95 49 64
        E 0 97 4e 64
        E 0 9e 49 64
        E 0 98 42 64
        E 0 9d 2d 64
        E 203 87 4e 64
        E 0 8e 49 64
        E 0 97 49 64
        E 0 9e 45 64
        E 205 84 4e 64
        E 0 85 49 64
        E 0 87 49 64
        E 0 8e 45 64
        E 0 88 42 64
        E 0 8d 2d 64
        E 0 94 4e 64
        E 1 95 4a 64
        E 0 97 4e 64
        E 0 9e 4a 64
        E 0 98 3b 64
        E 0 9d 2b 64
        E 204 87 4e 64
        E 0 8e 4a 64
        E 0 97 4a 64
        E 0 9e 47 64
        E 204 84 4e 64
        E 0 85 4a 64
        E 0 87 4a 64
        E 0 8e 47 64
        E 0 88 3b 64
        E 0 8d 2b 64
        E 0 94 4e 64
        E 0 95 4a 64
        E 0 97 4e 64
        E 0 9e 4a 64
        E 0 98 3b 64
        E 0 9d 37 64
        E 204 87 4e 64
        E 0 8e 4a 64
        E 0 97 4a 64
        E 0 9e 47 64
        E 203 84 4e 64
        E 0 85 4a 64
        E 0 87 4a 64
        E 0 8e 47 64
        E 0 88 3b 64
        E 0 8d 37 64
        E 0 94 4e 64
        E 0 95 4a 64
        E 0 97 4e 64
        E 0 9e 4a 64
        E 0 98 3b 64
        E 0 9d 2b 64
        E 206 87 4e 64
        E 0 8e 4a 64
        E 1 97 4a 64
        E 0 9e 47 64
        E 202 84 4e 64
        E 0 85 4a 64
        E 0 87 4a 64
        E 0 8e 47 64
        E 0 88 3b 64
        E 0 8d 2b 64
        E 0 94 4e 64
        E 0 95 4a 64
        E 0 97 4e 64
        E 0 9e 4a 64
        E 0 98 3b 64
        E 0 9d 2b 64
        E 206 87 4e 64
        E 1 8e 4a 64
        E 2 97 4a 64
        E 0 9e 47 64
        E 200 84 4e 64
        E 0 85 4a 64
        E 0 87 4a 64
        E 0 8e 47 64
        E 0 88 3b 64
        E 0 8d 2b 64
        E 0 94 4c 64
        E 0 95 47 64
        E 0 97 4c 64
        E 0 9e 47 64
        E 0 98 40 64
        E 0 9d 2b 64
        E 205 87 4c 64
        E 0 8e 47 64
        E 0 97 47 64
        E 0 9e 43 64
        E 204 84 4c 64
        E 0 85 47 64
        E 0 87 47 64
        E 0 8e 43 64
        E 0 88 40 64
        E 0 8d 2b 64
        E 1 94 4c 64
        E 0 95 47 64
        E 0 97 4c 64
        E 0 9e 47 64
        E 0 98 40 64
        E 0 9d 37 64
        E 203 87 4c 64
        E 0 8e 47 64
        E 0 97 47 64
        E 0 9e 43 64
        E 203 84 4c 64
        E 0 85 47 64
        E 0 87 47 64
        E 0 8e 43 64
        E 0 88 40 64
        E 0 8d 37 64
        E 0 94 4c 64
        E 0 95 47 64
        E 0 97 4c 64
        E 0 9e 47 64
        E 0 98 40 64
        E 0 9d 2b 64
        E 205 87 4c 64
        E 0 8e 47 64
        E 0 97 47 64
        E 0 9e 43 64
        E 204 84 4c 64
        E 0 85 47 64
        E 0 87 47 64
        E 0 8e 43 64
        E 0 88 40 64
        E 0 8d 2b 64
        E 0 94 4c 64
        E 1 95 47 64
        E 0 97 4c 64
        E 0 9e 47 64
        E 0 98 40 64
        E 0 9d 2b 64
        E 205 87 4c 64
        E 0 8e 47 64
        E 1 97 47 64
        E 0 9e 43 64
        E 203 84 4c 64
        E 0 85 47 64
        E 1 87 47 64
        E 0 8e 43 64
        E 0 88 40 64
        E 0 8d 2b 64
        E 0 94 4c 64
        E 0 95 49 64
        E 0 97 4c 64
        E 0 9e 4f 64
        E 1 98 3d 64
        E 0 9d 2d 64
        E 201 87 4c 64
        E 0 8e 4f 64
        E 0 97 49 64
        E 0 9e 4c 64
        E 204 87 49 64
        E 0 8e 4c 64
        E 0 88 3d 64
        E 0 8d 2d 64
        E 1 97 4c 64
        E 0 9e 4f 64
        E 0 98 3d 64
        E 0 9d 39 64
        E 203 87 4c 64
        E 0 8e 4f 64
        E 0 97 49 64
        E 0 9e 4c 64
        E 206 84 4c 64
        E 0 85 49 64
        E 0 87 49 64
        E 0 8e 4c 64
        E 0 88 3d 64
        E 0 8d 39 64
        E 0 97 4c 64
        E 0 9e 4f 64
        E 0 98 3d 64
        E 0 9d 2d 64
        E 204 87 4c 64
        E 0 8e 4f 64
        E 0 97 49 64
        E 0 9e 4c 64
        E 203 87 49 64
        E 0 8e 4c 64
        E 0 88 3d 64
        E 0 8d 2d 64
        E 0 97 4c 64
        E 0 9e 4f 64
        E 1 98 3d 64
        E 0 9d 2d 64
        E 205 87 4c 64
        E 0 8e 4f 64
        E 0 97 49 64
        E 0 9e 4c 64
        E 204 87 49 64
        E 0 8e 4c 64
        E 0 88 3d 64
        E 0 8d 2d 64
        E 1 94 4c 64
        E 0 95 49 64
        E 0 97 4f 64
        E 0 9e 4c 64
        E 0 98 3d 64
        E 0 9d 2d 64
        E 201 87 4f 64
        E 0 8e 4c 64
        E 1 97 4c 64
        E 0 9e 49 64
        E 207 87 4c 64
        E 0 8e 49 64
        E 0 88 3d 64
        E 0 8d 2d 64
        E 0 97 4f 64
        E 0 9e 4c 64
        E 0 98 3d 64
        E 0 9d 39 64
        E 203 87 4f 64
        E 0 8e 4c 64
        E 0 97 4c 64
        E 0 9e 49 64
        E 204 84 4c 64
        E 0 85 49 64
        E 0 87 4c 64
        E 0 8e 49 64
        E 0 88 3d 64
        E 0 8d 39 64
        E 0 97 4f 64
        E 0 9e 4c 64
        E 0 98 3d 64
        E 0 9d 2d 64
        E 204 87 4f 64
        E 0 8e 4c 64
        E 0 97 4c 64
        E 1 9e 49 64
        E 202 87 4c 64
        E 0 8e 49 64
        E 0 88 3d 64
        E 0 8d 2d 64
        E 0 97 4f 64
        E 0 9e 4c 64
        E 0 98 3d 64
        E 0 9d 2d 64
        E 205 87 4f 64
        E 0 8e 4c 64
        E 1 97 4c 64
        E 0 9e 49 64
        E 204 87 4c 64
        E 1 8e 49 64
        E 0 88 3d 64
        E 0 8d 2d 64
        E 0 94 4c 64
        E 0 95 49 64
        E 0 97 49 64
        E 0 9e 43 64
        E 0 98 40 64
        E 0 9d 2d 64
        E 201 87 49 64
        E 0 8e 43 64
        E 0 97 43 64
        E 1 9e 40 64
        E 207 87 43 64
        E 0 8e 40 64
        E 0 88 40 64
        E 0 8d 2d 64
        E 0 97 49 64
        E 0 9e 43 64
        E 0 98 40 64
        E 0 9d 39 64
        E 201 87 49 64
        E 0 8e 43 64
        E 1 97 43 64
        E 0 9e 40 64
        E 205 84 4c 64
        E 0 85 49 64
        E 0 87 43 64
        E 0 8e 40 64
        E 0 88 40 64
        E 0 8d 39 64
        E 0 97 49 64
        E 0 9e 43 64
        E 0 98 40 64
        E 0 9d 2d 64
        E 203 87 49 64
        E 0 8e 43 64
        E 0 97 43 64
        E 0 9e 40 64
        E 204 87 43 64
        E 0 8e 40 64
        E 0 88 40 64
        E 0 8d 2d 64
        E 0 97 49 64
        E 1 9e 43 64
        E 1 98 40 64
        E 0 9d 2d 64
        E 204 87 49 64
        E 0 8e 43 64
        E 0 97 43 64
        E 0 9e 40 64
        E 203 87 43 64
        E 0 8e 40 64
        E 0 88 40 64
        E 0 8d 2d 64
        E 0 94 4c 64
        E 0 95 49 64
        E 0 97 40 64
        E 0 9e 3d 64
        E 0 98 34 64
        E 0 9d 2d 64
        E 205 87 40 64
        E 0 8e 3d 64
        E 0 97 3d 64
        E 0 9e 39 64
        E 205 87 3d 64
        E 0 8e 39 64
        E 0 88 34 64
        E 0 8d 2d 64
        E 0 97 40 64
        E 0 9e 3d 64
        E 0 98 34 64
        E 0 9d 39 64
        E 202 87 40 64
        E 0 8e 3d 64
        E 0 97 3d 64
        E 0 9e 39 64
        E 207 84 4c 64
        E 0 85 49 64
        E 0 87 3d 64
        E 0 8e 39 64
        E 0 88 34 64
        E 0 8d 39 64
        E 0 97 40 64
        E 0 9e 3d 64
        E 0 98 34 64
        E 0 9d 2d 64
        E 203 87 40 64
        E 0 8e 3d 64
        E 0 97 3d 64
        E 0 9e 39 64
        E 204 87 3d 64
        E 0 8e 39 64
        E 0 88 34 64
        E 0 8d 2d 64
        E 0 97 40 64
        E 0 9e 3d 64
        E 1 98 34 64
        E 0 9d 2d 64
        E 203 87 40 64
        E 0 8e 3d 64
        E 1 97 3d 64
        E 0 9e 39 64
        E 212 87 3d 64
        E 1 8e 39 64
        E 0 88 34 64
        E 0 8d 2d 64
        E 0 94 4c 64
        E 0 95 49 64
        E 0 97 37 64
        E 0 9e 3d 64
        E 0 98 34 64
        E 0 9d 2d 64
        E 807 84 4c 64
        E 0 85 49 64
        E 0 87 37 64
        E 0 8e 3d 64
        E 0 88 34 64
        E 0 8d 2d 64
        E 2452 94 4e 64
        E 1 95 4a 64
        E 0 97 51 64
        E 0 9e 4e 64
        E 0 98 45 64
        E 0 9d 32 64
        E 206 87 51 64
        E 1 8e 4e 64
        E 0 97 4e 64
        E 0 9e 4a 64
        E 200 84 4e 64
        E 0 85 4a 64
        E 0 87 4e 64
        E 0 8e 4a 64
        E 0 88 45 64
        E 0 8d 32 64
        E 0 94 4e 64
        E 1 95 4a 64
        E 0 97 51 64
        E 0 9e 4e 64
        E 0 98 45 64
        E 0 9d 3e 64
        E 205 87 51 64
        E 0 8e 4e 64
        E 1 97 4e 64
        E 0 9e 4a 64
        E 201 84 4e 64
        E 0 85 4a 64
        E 0 87 4e 64
        E 0 8e 4a 64
        E 0 88 45 64
        E 0 8d 3e 64
        E 0 94 4e 64
        E 0 95 4a 64
        E 0 97 51 64
        E 0 9e 4e 64
        E 0 98 45 64
        E 0 9d 32 64
        E 205 87 51 64
        E 0 8e 4e 64
        E 1 97 4e 64
        E 0 9e 4a 64
        E 206 84 4e 64
        E 0 85 4a 64
        E 0 87 4e 64
        E 0 8e 4a 64
        E 0 88 45 64
        E 0 8d 32 64
        E 1 94 4e 64
        E 0 95 4a 64
        E 0 97 51 64
        E 0 9e 4e 64
        E 0 98 45 64
        E 0 9d 32 64
        E 201 87 51 64
        E 0 8e 4e 64
        E 0 97 4e 64
        E 0 9e 4a 64
        E 202 84 4e 64
        E 0 85 4a 64
        E 0 87 4e 64
        E 0 8e 4a 64
        E 0 88 45 64
        E 0 8d 32 64
        E 0 94 4c 64
        E 0 95 4a 64
        E 0 97 51 64
        E 1 9e 4c 64
        E 0 98 45 64
        E 0 9d 2d 64
        E 205 87 51 64
        E 0 8e 4c 64
        E 0 97 4c 64
        E 0 9e 4a 64
        E 207 84 4c 64
        E 0 85 4a 64
        E 2 87 4c 64
        E 0 8e 4a 64
        E 0 88 45 64
        E 0 8d 2d 64
        E 1 94 4c 64
        E 0 95 4a 64
        E 0 97 51 64
        E 0 9e 4c 64
        E 0 98 45 64
        E 0 9d 39 64
        E 200 87 51 64
        E 0 8e 4c 64
        E 0 97 4c 64
        E 0 9e 4a 64
        E 202 84 4c 64
        E 0 85 4a 64
        E 0 87 4c 64
        E 0 8e 4a 64
        E 0 88 45 64
        E 0 8d 39 64
        E 0 94 4c 64
        E 0 95 4a 64
        E 0 97 51 64
        E 0 9e 4c 64
        E 0 98 45 64
        E 0 9d 2d 64
        E 204 87 51 64
        E 0 8e 4c 64
        E 0 97 4c 64
        E 0 9e 4a 64
        E 206 84 4c 64
        E 0 85 4a 64
        E 0 87 4c 64
        E 0 8e 4a 64
        E 0 88 45 64
        E 0 8d 2d 64
        E 0 94 4c 64
        E 0 95 4a 64
        E 0 97 51 64
        E 0 9e 4c 64
        E 0 98 45 64
        E 0 9d 2d 64
        E 203 87 51 64
        E 0 8e 4c 64
        E 0 97 4c 64
        E 0 9e 4a 64
        E 204 84 4c 64
        E 0 85 4a 64
        E 0 87 4c 64
        E 0 8e 4a 64
        E 0 88 45 64
        E 0 8d 2d 64
        E 0 94 4c 64
        E 0 95 49 64
        E 0 97 51 64
        E 0 9e 4c 64
        E 0 98 45 64
        E 0 9d 2d 64
        E 206 87 51 64
        E 0 8e 4c 64
        E 0 97 4c 64
        E 0 9e 49 64
        E 202 84 4c 64
        E 0 85 49 64
        E 0 87 4c 64
        E 0 8e 49 64
        E 0 88 45 64
        E 0 8d 2d 64
        E 1 94 4c 64
        E 0 95 49 64
        E 4 97 51 64
        E 0 9e 4c 64
        E 1 98 45 64
        E 0 9d 39 64
        E 200 87 51 64
        E 0 8e 4c 64
        E 0 97 4c 64
        E 0 9e 49 64
        E 203 84 4c 64
        E 1 85 49 64
        E 0 87 4c 64
        E 0 8e 49 64
        E 0 88 45 64
        E 0 8d 39 64
        E 0 94 4c 64
        E 0 95 49 64
        E 0 97 51 64
        E 0 9e 4c 64
        E 0 98 45 64
        E 0 9d 2d 64
        E 202 87 51 64
        E 0 8e 4c 64
        E 0 97 4c 64
        E 0 9e 49 64
        E 206 84 4c 64
        E 0 85 49 64
        E 0 87 4c 64
        E 0 8e 49 64
        E 0 88 45 64
        E 0 8d 2d 64
        E 0 94 4c 64
        E 0 95 49 64
        E 0 97 51 64
        E 0 9e 4c 64
        E 0 98 45 64
        E 0 9d 2d 64
        E 204 87 51 64
        E 0 8e 4c 64
        E 1 97 4c 64
        E 1 9e 49 64
        E 206 84 4c 64
        E 0 85 49 64
        E 0 87 4c 64
        E 0 8e 49 64
        E 0 88 45 64
        E 0 8d 2d 64
        E 0 90 4a 64
        E 0 91 42 64
        E 1 92 39 64
        E 0 93 32 64
        E 0 94 4e 64
        E 0 95 4a 64
        E 0 97 4e 64
        E 0 9e 4a 64
        E 0 98 4a 64
        E 0 9d 32 64
        E 403 84 4e 64
        E 0 85 4a 64
        E 0 87 4e 64
        E 0 8e 4a 64
        E 0 88 4a 64
        E 0 8d 32 64
        E 0 94 4a 64
        E 0 95 4a 64
        E 0 97 4a 64
        E 0 9e 4a 64
        E 0 98 4a 64
        E 0 9d 3e 64
        E 205 80 4a 64
        E 0 81 42 64
        E 0 82 39 64
        E 0 83 32 64
        E 0 90 4a 64
        E 1 91 42 64
        E 0 92 39 64
        E 0 93 32 64
        E 204 80 4a 64
        E 0 81 42 64
        E 0 82 39 64
        E 0 83 32 64
        E 0 84 4a 64
        E 0 85 4a 64
        E 0 87 4a 64
        E 0 8e 4a 64
        E 0 88 4a 64
        E 0 8d 3e 64
        E 0 90 4a 64
        E 0 91 42 64
        E 0 92 39 64
        E 0 93 32 64
        E 0 94 3e 64
        E 0 95 3e 64
        E 0 97 3e 64
        E 0 9e 3e 64
        E 0 98 3e 64
        E 1 9d 32 64
        E 408 84 3e 64
        E 0 85 3e 64
        E 0 87 3e 64
        E 0 8e 3e 64
        E 0 88 3e 64
        E 0 8d 32 64
        E 0 94 3e 64
        E 1 95 3e 64
        E 0 97 3e 64
        E 0 9e 3e 64
        E 0 98 3e 64
        E 0 9d 32 64
        E 410 80 4a 64
        E 0 81 42 64
        E 0 82 39 64
        E 0 83 32 64
        E 0 84 3e 64
        E 0 85 3e 64
        E 0 87 3e 64
        E 0 8e 3e 64
        E 0 88 3e 64
        E 0 8d 32 64
        E 0 90 4a 64
        E 0 91 42 64
        E 0 92 39 64
        E 0 93 32 64
        E 0 94 3e 64
        E 0 95 3e 64
        E 0 97 3e 64
        E 0 9e 3e 64
        E 1 98 3e 64
        E 0 9d 32 64
        E 405 84 3e 64
        E 0 85 3e 64
        E 0 87 3e 64
        E 0 8e 3e 64
        E 0 88 3e 64
        E 0 8d 32 64
        E 0 94 4a 64
        E 0 95 4a 64
        E 0 97 4a 64
        E 0 9e 4a 64
        E 0 98 4a 64
        E 0 9d 3e 64
        E 205 80 4a 64
        E 0 81 42 64
        E 0 82 39 64
        E 0 83 32 64
        E 1 90 4a 64
        E 0 91 42 64
        E 0 92 39 64
        E 0 93 32 64
        E 202 80 4a 64
        E 0 81 42 64
        E 0 82 39 64
        E 0 83 32 64
        E 0 84 4a 64
        E 0 85 4a 64
        E 0 87 4a 64
        E 0 8e 4a 64
        E 0 88 4a 64
        E 0 8d 3e 64
        E 0 90 4a 64
        E 0 91 42 64
        E 0 92 39 64
        E 0 93 32 64
        E 0 94 3e 64
        E 0 95 3e 64
        E 0 97 3e 64
        E 0 9e 3e 64
        E 0 98 3e 64
        E 0 9d 32 64
        E 409 84 3e 64
        E 0 85 3e 64
        E 0 87 3e 64
        E 0 8e 3e 64
        E 0 88 3e 64
        E 0 8d 32 64
        E 0 94 3e 64
        E 0 95 3e 64
        E 0 97 3e 64
        E 1 9e 3e 64
        E 0 98 3e 64
        E 0 9d 32 64
        E 411 80 4a 64
        E 1 81 42 64
        E 0 82 39 64
        E 0 83 32 64
        E 0 84 3e 64
        E 0 85 3e 64
        E 0 87 3e 64
        E 0 8e 3e 64
        E 0 88 3e 64
        E 0 8d 32 64
        E 5 94 3e 64
        E 1 95 3e 64
        E 0 97 3e 64
        E 0 9e 3e 64
        E 0 98 3e 64
        E 0 9d 32 64
        E 395 85 3e 64
        E 0 87 3e 64
        E 0 8e 3e 64
        E 1 95 4e 64
        E 0 97 4e 64
        E 0 9e 4a 64
        E 205 85 4e 64
        E 0 87 4e 64
        E 0 8e 4a 64
        E 0 95 4f 64
        E 0 97 4f 64
        E 0 9e 4c 64
        E 204 84 3e 64
        E 0 85 4f 64
        E 0 87 4f 64
        E 0 8e 4c 64
        E 0 88 3e 64
        E 0 8d 32 64
        E 0 95 51 64
        E 0 97 51 64
        E 0 9e 4e 64
        E 205 85 51 64
        E 0 87 51 64
        E 0 8e 4e 64
        E 1 95 4f 64
        E 0 97 4f 64
        E 1 9e 4c 64
        E 201 85 4f 64
        E 0 87 4f 64
        E 0 8e 4c 64
        E 0 95 51 64
        E 0 97 51 64
        E 1 9e 4e 64
        E 203 85 51 64
        E 1 87 51 64
        E 0 8e 4e 64
        E 0 95 4f 64
        E 0 97 4f 64
        E 0 9e 4c 64
        E 205 85 4f 64
        E 0 87 4f 64
        E 0 8e 4c 64
        E 1 95 4e 64
        E 0 97 4e 64
        E 0 9e 4a 64
        E 408 85 4e 64
        E 0 87 4e 64
        E 0 8e 4a 64
        E 1 95 4e 64
        E 0 97 4e 64
        E 0 9e 4a 64
        E 203 85 4e 64
        E 0 87 4e 64
        E 0 8e 4a 64
        E 0 95 4f 64
        E 0 97 4f 64
        E 0 9e 4c 64
        E 203 85 4f 64
        E 0 87 4f 64
        E 0 8e 4c 64
        E 0 95 51 64
        E 0 97 51 64
        E 0 9e 4e 64
        E 207 85 51 64
        E 0 87 51 64
        E 0 8e 4e 64
        E 0 95 4f 64
        E 0 97 4f 64
        E 1 9e 4c 64
        E 203 85 4f 64
        E 0 87 4f 64
        E 0 8e 4c 64
        E 0 95 51 64
        E 0 97 51 64
        E 0 9e 4e 64
        E 202 85 51 64
        E 0 87 51 64
        E 0 8e 4e 64
        E 0 95 4e 64
        E 0 97 4e 64
        E 0 9e 4a 64
        E 205 85 4e 64
        E 0 87 4e 64
        E 0 8e 4a 64
        E 0 90 49 64
        E 0 91 40 64
        E 0 92 39 64
        E 0 93 2d 64
        E 0 95 4c 64
        E 0 97 4c 64
        E 0 9e 49 64
        E 0 98 39 64
        E 0 9d 2d 64
        E 411 87 4c 64
        E 0 8e 49 64
        E 0 88 39 64
        E 0 8d 2d 64
        E 0 97 45 64
        E 0 9e 45 64
        E 0 98 45 64
        E 0 9d 39 64
        E 202 80 49 64
        E 0 81 40 64
        E 1 82 39 64
        E 0 83 2d 64
        E 0 90 49 64
        E 0 91 40 64
        E 0 92 39 64
        E 0 93 2d 64
        E 203 80 49 64
        E 0 81 40 64
        E 0 82 39 64
        E 0 83 2d 64
        E 0 85 4c 64
        E 0 87 45 64
        E 0 8e 45 64
        E 0 88 45 64
        E 0 8d 39 64
        E 0 90 49 64
        E 0 91 40 64
        E 0 92 39 64
        E 0 93 2d 64
        E 0 97 39 64
        E 0 9e 39 64
        E 0 98 39 64
        E 0 9d 2d 64
        E 408 87 39 64
        E 0 8e 39 64
        E 0 88 39 64
        E 0 8d 2d 64
        E 1 97 39 64
        E 0 9e 39 64
        E 0 98 39 64
        E 0 9d 2d 64
        E 408 80 49 64
        E 0 81 40 64
        E 0 82 39 64
        E 0 83 2d 64
        E 0 87 39 64
        E 0 8e 39 64
        E 0 88 39 64
        E 0 8d 2d 64
        E 0 90 49 64
        E 0 91 40 64
        E 0 92 39 64
        E 0 93 2d 64
        E 0 97 39 64
        E 0 9e 39 64
        E 0 98 39 64
        E 0 9d 2d 64
        E 408 87 39 64
        E 0 8e 39 64
        E 0 88 39 64
        E 0 8d 2d 64
        E 0 97 45 64
        E 0 9e 45 64
        E 0 98 45 64
        E 0 9d 39 64
        E 205 80 49 64
        E 0 81 40 64
        E 0 82 39 64
        E 0 83 2d 64
        E 0 90 49 64
        E 0 91 40 64
        E 0 92 39 64
        E 0 93 2d 64
        E 205 80 49 64
        E 0 81 40 64
        E 0 82 39 64
        E 0 83 2d 64
        E 0 87 45 64
        E 0 8e 45 64
        E 0 88 45 64
        E 0 8d 39 64
        E 0 90 49 64
        E 0 91 40 64
        E 0 92 39 64
        E 0 93 2d 64
        E 0 97 39 64
        E 1 9e 39 64
        E 0 98 39 64
        E 0 9d 2d 64
        E 405 87 39 64
        E 0 8e 39 64
        E 0 88 39 64
        E 0 8d 2d 64
        E 1 97 39 64
        E 0 9e 39 64
        E 0 98 39 64
        E 0 9d 2d 64
        E 409 80 49 64
        E 0 81 40 64
        E 0 82 39 64
        E 0 83 2d 64
        E 0 87 39 64
        E 0 8e 39 64
        E 0 88 39 64
        E 0 8d 2d 64
        E 0 97 39 64
        E 0 9e 39 64
        E 0 98 39 64
        E 0 9d 2d 64
        E 408 87 39 64
        E 0 8e 39 64
        E 0 95 4c 64
        E 1 97 4c 64
        E 0 9e 49 64
        E 204 85 4c 64
        E 0 87 4c 64
        E 0 8e 49 64
        E 0 95 4e 64
        E 3 97 4e 64
        E 1 9e 4a 64
        E 200 85 4e 64
        E 0 87 4e 64
        E 0 8e 4a 64
        E 0 88 39 64
        E 0 8d 2d 64
        E 0 95 4f 64
        E 0 97 4f 64
        E 0 9e 4c 64
        E 204 85 4f 64
        E 0 87 4f 64
        E 0 8e 4c 64
        E 0 95 4e 64
        E 0 97 4e 64
        E 0 9e 4a 64
        E 206 85 4e 64
        E 0 87 4e 64
        E 0 8e 4a 64
        E 0 95 4f 64
        E 0 97 4f 64
        E 0 9e 4c 64
        E 204 85 4f 64
        E 0 87 4f 64
        E 0 8e 4c 64
        E 0 95 4e 64
        E 1 97 4e 64
        E 0 9e 4a 64
        E 204 85 4e 64
        E 0 87 4e 64
        E 0 8e 4a 64
        E 0 95 4c 64
        E 0 97 4c 64
        E 0 9e 49 64
        E 407 85 4c 64
        E 0 87 4c 64
        E 0 8e 49 64
        E 1 95 4c 64
        E 0 97 4c 64
        E 0 9e 49 64
        E 202 85 4c 64
        E 0 87 4c 64
        E 0 8e 49 64
        E 0 95 4e 64
        E 1 97 4e 64
        E 1 9e 4a 64
        E 203 85 4e 64
        E 0 87 4e 64
        E 0 8e 4a 64
        E 1 95 4f 64
        E 0 97 4f 64
        E 0 9e 4c 64
        E 205 85 4f 64
        E 0 87 4f 64
        E 0 8e 4c 64
        E 5 95 4e 64
        E 0 97 4e 64
        E 0 9e 4a 64
        E 196 85 4e 64
        E 0 87 4e 64
        E 0 8e 4a 64
        E 0 95 4f 64
        E 0 97 4f 64
        E 0 9e 4c 64
        E 207 85 4f 64
        E 1 87 4f 64
        E 0 8e 4c 64
        E 0 95 4e 64
        E 0 97 4e 64
        E 0 9e 4a 64
        E 201 85 4e 64
        E 0 87 4e 64
        E 0 8e 4a 64
        E 0 90 49 64
        E 0 91 40 64
        E 0 92 3d 64
        E 0 93 39 64
        E 0 95 4c 64
        E 1 97 4c 64
        E 0 9e 49 64
        E 0 98 39 64
        E 0 9d 2d 64
        E 410 87 4c 64
        E 0 8e 49 64
        E 0 88 39 64
        E 0 8d 2d 64
        E 0 97 45 64
        E 0 9e 45 64
        E 0 98 45 64
        E 0 9d 39 64
        E 409 85 4c 64
        E 0 87 45 64
        E 0 8e 45 64
        E 0 88 45 64
        E 0 8d 39 64
        E 0 97 39 64
        E 0 9e 39 64
        E 0 98 39 64
        E 0 9d 2d 64
        E 407 87 39 64
        E 0 8e 39 64
        E 0 88 39 64
        E 0 8d 2d 64
        E 1 97 39 64
        E 1 9e 39 64
        E 1 98 39 64
        E 0 9d 2d 64
        E 406 80 49 64
        E 0 81 40 64
        E 0 82 3d 64
        E 0 83 39 64
        E 0 87 39 64
        E 0 8e 39 64
        E 0 88 39 64
        E 0 8d 2d 64
        E 1 90 4a 64
        E 0 91 42 64
        E 0 92 39 64
        E 0 93 39 64
        E 0 97 39 64
        E 0 9e 39 64
        E 0 98 39 64
        E 0 9d 2d 64
        E 407 87 39 64
        E 0 8e 39 64
        E 0 88 39 64
        E 0 8d 2d 64
        E 0 97 45 64
        E 1 9e 45 64
        E 0 98 45 64
        E 0 9d 39 64
        E 408 87 45 64
        E 0 8e 45 64
        E 0 88 45 64
        E 0 8d 39 64
        E 0 97 39 64
        E 0 9e 39 64
        E 0 98 39 64
        E 0 9d 2d 64
        E 406 87 39 64
        E 0 8e 39 64
        E 0 88 39 64
        E 0 8d 2d 64
        E 0 97 39 64
        E 0 9e 39 64
        E 0 98 39 64
        E 0 9d 2d 64
        E 412 80 4a 64
        E 0 81 42 64
        E 0 82 39 64
        E 0 83 39 64
        E 0 87 39 64
        E 0 8e 39 64
        E 0 88 39 64
        E 0 8d 2d 64
        E 0 90 4c 64
        E 0 91 43 64
        E 0 92 3d 64
        E 0 93 39 64
        E 0 97 39 64
        E 0 9e 39 64
        E 0 98 39 64
        E 0 9d 2d 64
        E 406 87 39 64
        E 0 8e 39 64
        E 1 88 39 64
        E 0 8d 2d 64
        E 0 97 45 64
        E 0 9e 45 64
        E 0 98 45 64
        E 0 9d 39 64
        E 409 87 45 64
        E 0 8e 45 64
        E 0 88 45 64
        E 0 8d 39 64
        E 0 97 39 64
        E 0 9e 39 64
        E 0 98 39 64
        E 0 9d 2d 64
        E 408 87 39 64
        E 0 8e 39 64
        E 0 88 39 64
        E 0 8d 2d 64
        E 0 97 39 64
        E 1 9e 39 64
        E 0 98 39 64
        E 0 9d 2d 64
        E 406 80 4c 64
        E 0 81 43 64
        E 0 82 3d 64
        E 0 83 39 64
        E 0 87 39 64
        E 0 8e 39 64
        E 1 88 39 64
        E 0 8d 2d 64
        E 2 90 4a 64
        E 1 91 42 64
        E 0 92 39 64
        E 0 93 39 64
        E 0 97 39 64
        E 0 9e 39 64
        E 0 98 39 64
        E 0 9d 2d 64
        E 406 87 39 64
        E 0 8e 39 64
        E 0 88 39 64
        E 0 8d 2d 64
        E 0 97 45 64
        E 0 9e 45 64
        E 0 98 45 64
        E 1 9d 39 64
        E 408 87 45 64
        E 2 8e 45 64
        E 1 88 45 64
        E 0 8d 39 64
        E 0 97 39 64
        E 0 9e 39 64
        E 0 98 39 64
        E 0 9d 2d 64
        E 405 87 39 64
        E 1 8e 39 64
        E 0 88 39 64
        E 0 8d 2d 64
        E 0 97 39 64
        E 0 9e 39 64
        E 0 98 39 64
        E 0 9d 2d 64
        E 407 80 4a 64
        E 0 81 42 64
        E 1 82 39 64
        E 0 83 39 64
        E 0 87 39 64
        E 0 8e 39 64
        E 0 88 39 64
        E 0 8d 2d 64
        E 0 90 4a 64
        E 0 91 40 64
        E 0 92 39 64
        E 1 93 39 64
        E 0 97 39 64
        E 0 9e 39 64
        E 0 98 39 64
        E 0 9d 2d 64
        E 407 87 39 64
        E 0 8e 39 64
        E 0 88 39 64
        E 0 8d 2d 64
        E 0 97 45 64
        E 0 9e 45 64
        E 0 98 45 64
        E 0 9d 39 64
        E 410 87 45 64
        E 0 8e 45 64
        E 0 88 45 64
        E 0 8d 39 64
        E 0 97 39 64
        E 0 9e 39 64
        E 0 98 39 64
        E 0 9d 2d 64
        E 409 87 39 64
        E 0 8e 39 64
        E 0 88 39 64
        E 0 8d 2d 64
        E 1 97 39 64
        E 0 9e 39 64
        E 0 98 39 64
        E 0 9d 2d 64
        E 404 80 4a 64
        E 0 81 40 64
        E 0 82 39 64
        E 0 83 39 64
        E 0 87 39 64
        E 0 8e 39 64
        E 0 88 39 64
        E 0 8d 2d 64
        E 0 90 49 64
        E 0 91 40 64
        E 0 92 39 64
        E 0 93 39 64
        E 0 97 39 64
        E 0 9e 39 64
        E 0 98 39 64
        E 0 9d 2d 64
        E 409 87 39 64
        E 0 8e 39 64
        E 0 88 39 64
        E 0 8d 2d 64
        E 0 97 45 64
        E 0 9e 45 64
        E 0 98 45 64
        E 0 9d 39 64
        E 409 87 45 64
        E 0 8e 45 64
        E 0 88 45 64
        E 0 8d 39 64
        E 1 97 39 64
        E 0 9e 39 64
        E 0 98 39 64
        E 0 9d 2d 64
        E 409 87 39 64
        E 1 8e 39 64
        E 0 88 39 64
        E 0 8d 2d 64
        E 0 97 39 64
        E 0 9e 39 64
        E 0 98 39 64
        E 0 9d 2d 64
        E 406 80 49 64
        E 0 81 40 64
        E 0 82 39 64
        E 0 83 39 64
        E 0 87 39 64
        E 0 8e 39 64
        E 0 88 39 64
        E 0 8d 2d 64
        E 1 97 39 64
        E 0 9e 39 64
        E 0 98 39 64
        E 0 9d 2d 64
        E 817 87 39 64
        E 0 8e 39 64
        E 0 88 39 64
        E 0 8d 2d 64
        E 815 90 49 64
        E 0 91 40 64
        E 0 92 3d 64
        E 0 93 39 64
        E 0 97 39 64
        E 0 9e 39 64
        E 0 98 39 64
        E 0 9d 2d 64
        E 410 87 39 64
        E 0 8e 39 64
        E 0 88 39 64
        E 0 8d 2d 64
        E 1 97 45 64
        E 0 9e 45 64
        E 0 98 45 64
        E 0 9d 39 64
        E 407 87 45 64
        E 0 8e 45 64
        E 0 88 45 64
        E 0 8d 39 64
        E 0 97 39 64
        E 0 9e 39 64
        E 0 98 39 64
        E 0 9d 2d 64
        E 409 87 39 64
        E 0 8e 39 64
        E 0 88 39 64
        E 0 8d 2d 64
        E 0 97 39 64
        E 1 9e 39 64
        E 0 98 39 64
        E 0 9d 2d 64
        E 409 80 49 64
        E 0 81 40 64
        E 0 82 3d 64
        E 0 83 39 64
        E 0 87 39 64
        E 0 8e 39 64
        E 0 88 39 64
        E 1 8d 2d 64
        E 0 90 4a 64
        E 0 91 42 64
        E 0 92 39 64
        E 0 93 39 64
        E 0 97 39 64
        E 0 9e 39 64
        E 0 98 39 64
        E 0 9d 2d 64
        E 405 87 39 64
        E 0 8e 39 64
        E 0 88 39 64
        E 0 8d 2d 64
        E 0 97 45 64
        E 0 9e 45 64
        E 0 98 45 64
        E 0 9d 39 64
        E 410 87 45 64
        E 0 8e 45 64
        E 0 88 45 64
        E 0 8d 39 64
        E 0 97 39 64
        E 0 9e 39 64
        E 0 98 39 64
        E 0 9d 2d 64
        E 409 87 39 64
        E 0 8e 39 64
        E 0 88 39 64
        E 0 8d 2d 64
        E 0 97 39 64
        E 0 9e 39 64
        E 1 98 39 64
        E 0 9d 2d 64
        E 407 80 4a 64
        E 0 81 42 64
        E 0 82 39 64
        E 1 83 39 64
        E 0 87 39 64
        E 0 8e 39 64
        E 0 88 39 64
        E 0 8d 2d 64
        E 0 90 4c 64
        E 0 91 43 64
        E 0 92 3d 64
        E 0 93 39 64
        E 0 97 39 64
        E 0 9e 39 64
        E 0 98 39 64
        E 0 9d 2d 64
        E 406 87 39 64
        E 0 8e 39 64
        E 0 88 39 64
        E 0 8d 2d 64
        E 0 97 45 64
        E 0 9e 45 64
        E 0 98 45 64
        E 0 9d 39 64
        E 409 87 45 64
        E 0 8e 45 64
        E 0 88 45 64
        E 0 8d 39 64
        E 0 97 39 64
        E 0 9e 39 64
        E 0 98 39 64
        E 0 9d 2d 64
        E 410 87 39 64
        E 0 8e 39 64
        E 0 88 39 64
        E 0 8d 2d 64
        E 0 97 39 64
        E 0 9e 39 64
        E 0 98 39 64
        E 0 9d 2d 64
        E 408 80 4c 64
        E 1 81 43 64
        E 0 82 3d 64
        E 0 83 39 64
        E 0 87 39 64
        E 0 8e 39 64
        E 0 88 39 64
        E 0 8d 2d 64
        E 1 90 4a 64
        E 3 91 42 64
        E 0 92 39 64
        E 1 93 39 64
        E 0 97 39 64
        E 0 9e 39 64
        E 0 98 39 64
        E 0 9d 2d 64
        E 402 87 39 64
        E 0 8e 39 64
        E 0 88 39 64
        E 0 8d 2d 64
        E 1 97 45 64
        E 0 9e 45 64
        E 0 98 45 64
        E 0 9d 39 64
        E 408 87 45 64
        E 0 8e 45 64
        E 0 88 45 64
        E 0 8d 39 64
        E 0 97 39 64
        E 0 9e 39 64
        E 0 98 39 64
        E 0 9d 2d 64
        E 407 87 39 64
        E 0 8e 39 64
        E 0 88 39 64
        E 0 8d 2d 64
        E 1 97 39 64
        E 0 9e 39 64
        E 0 98 39 64
        E 0 9d 2d 64
        E 410 80 4a 64
        E 0 81 42 64
        E 0 82 39 64
        E 0 83 39 64
        E 0 87 39 64
        E 0 8e 39 64
        E 0 88 39 64
        E 0 8d 2d 64
        E 0 90 4a 64
        E 0 91 40 64
        E 0 92 39 64
        E 0 93 39 64
        E 0 97 39 64
        E 0 9e 39 64
        E 0 98 39 64
        E 0 9d 2d 64
        E 405 87 39 64
        E 0 8e 39 64
        E 0 88 39 64
        E 1 8d 2d 64
        E 0 97 45 64
        E 0 9e 45 64
        E 0 98 45 64
        E 0 9d 39 64
        E 410 87 45 64
        E 0 8e 45 64
        E 0 88 45 64
        E 0 8d 39 64
        E 0 97 39 64
        E 0 9e 39 64
        E 0 98 39 64
        E 0 9d 2d 64
        E 409 87 39 64
        E 0 8e 39 64
        E 0 88 39 64
        E 0 8d 2d 64
        E 1 97 39 64
        E 0 9e 39 64
        E 0 98 39 64
        E 0 9d 2d 64
        E 407 80 4a 64
        E 0 81 40 64
        E 0 82 39 64
        E 0 83 39 64
        E 0 87 39 64
        E 0 8e 39 64
        E 0 88 39 64
        E 0 8d 2d 64
        E 0 90 49 64
        E 0 91 40 64
        E 0 92 39 64
        E 1 93 39 64
        E 0 97 39 64
        E 0 9e 39 64
        E 0 98 39 64
        E 0 9d 2d 64
        E 408 87 39 64
        E 0 8e 39 64
        E 0 88 39 64
        E 0 8d 2d 64
        E 0 97 45 64
        E 0 9e 45 64
        E 0 98 45 64
        E 0 9d 39 64
        E 406 87 45 64
        E 0 8e 45 64
        E 0 88 45 64
        E 0 8d 39 64
        E 1 97 39 64
        E 0 9e 39 64
        E 0 98 39 64
        E 0 9d 2d 64
        E 408 87 39 64
        E 1 8e 39 64
        E 0 88 39 64
        E 0 8d 2d 64
        E 2 97 39 64
        E 0 9e 39 64
        E 0 98 39 64
        E 0 9d 2d 64
        E 407 80 49 64
        E 0 81 40 64
        E 0 82 39 64
        E 0 83 39 64
        E 0 87 39 64
        E 0 8e 39 64
        E 0 88 39 64
        E 0 8d 2d 64
        E 0 97 39 64
        E 1 9e 39 64
        E 0 98 39 64
        E 0 9d 2d 64
        E 816 87 39 64
        E 0 8e 39 64
        E 0 88 39 64
        E 0 8d 2d 64
        E 816 90 45 64
        E 1 91 3e 64
        E 0 92 36 64
        E 0 93 32 64
        E 0 94 4a 64
        E 0 95 45 64
        E 0 97 42 64
        E 0 9e 3e 64
        E 0 98 39 64
        E 0 9d 32 64
        E 408 84 4a 64
        E 0 85 45 64
        E 0 87 42 64
        E 0 8e 3e 64
        E 0 88 39 64
        E 0 8d 32 64
        E 1 94 4a 64
        E 0 95 45 64
        E 0 97 4a 64
        E 0 9e 45 64
        E 0 98 42 64
        E 0 9d 3e 64
        E 407 84 4a 64
        E 0 85 45 64
        E 0 87 4a 64
        E 0 8e 45 64
        E 1 88 42 64
        E 0 8d 3e 64
        E 1 94 4a 64
        E 1 95 45 64
        E 0 97 42 64
        E 0 9e 3e 64
        E 0 98 39 64
        E 0 9d 32 64
        E 406 80 45 64
        E 0 81 3e 64
        E 0 82 36 64
        E 0 83 32 64
        E 0 84 4a 64
        E 0 85 45 64
        E 0 87 42 64
        E 0 8e 3e 64
        E 0 88 39 64
        E 0 8d 32 64
        E 0 90 45 64
        E 0 91 3e 64
        E 0 92 36 64
        E 0 93 32 64
        E 0 94 4a 64
        E 0 95 45 64
        E 0 97 42 64
        E 0 9e 3e 64
        E 0 98 39 64
        E 0 9d 32 64
        E 408 80 45 64
        E 0 81 3e 64
        E 0 82 36 64
        E 0 83 32 64
        E 0 84 4a 64
        E 0 85 45 64
        E 0 87 42 64
        E 0 8e 3e 64
        E 0 88 39 64
        E 0 8d 32 64
        E 0 90 45 64
        E 1 91 3e 64
        E 1 92 36 64
        E 1 93 32 64
        E 0 94 4a 64
        E 0 95 45 64
        E 0 97 42 64
        E 0 9e 3e 64
        E 0 98 39 64
        E 0 9d 32 64
        E 406 87 42 64
        E 0 8e 3e 64
        E 0 88 39 64
        E 0 8d 32 64
        E 0 97 4a 64
        E 0 9e 45 64
        E 0 98 42 64
        E 0 9d 3e 64
        E 409 84 4a 64
        E 0 85 45 64
        E 0 87 4a 64
        E 0 8e 45 64
        E 0 88 42 64
        E 0 8d 3e 64
        E 0 97 42 64
        E 0 9e 3e 64
        E 0 98 3e 64
        E 1 9d 32 64
        E 409 87 42 64
        E 0 8e 3e 64
        E 0 88 3e 64
        E 0 8d 32 64
        E 1 97 42 64
        E 0 9e 3e 64
        E 1 98 3e 64
        E 0 9d 32 64
        E 403 80 45 64
        E 0 81 3e 64
        E 0 82 36 64
        E 0 83 32 64
        E 0 87 42 64
        E 0 8e 3e 64
        E 0 88 3e 64
        E 0 8d 32 64
        E 0 90 47 64
        E 0 91 3e 64
        E 1 92 3b 64
        E 0 93 37 64
        E 0 94 4a 64
        E 0 95 47 64
        E 0 97 43 64
        E 0 9e 3e 64
        E 0 98 3e 64
        E 0 9d 2b 64
        E 409 84 4a 64
        E 0 85 47 64
        E 0 87 43 64
        E 0 8e 3e 64
        E 0 88 3e 64
        E 0 8d 2b 64
        E 0 94 4a 64
        E 0 95 47 64
        E 0 97 4a 64
        E 0 9e 47 64
        E 0 98 43 64
        E 0 9d 37 64
        E 409 84 4a 64
        E 0 85 47 64
        E 0 87 4a 64
        E 0 8e 47 64
        E 0 88 43 64
        E 0 8d 37 64
        E 0 94 4a 64
        E 0 95 47 64
        E 0 97 43 64
        E 0 9e 3e 64
        E 0 98 3b 64
        E 0 9d 2b 64
        E 407 80 47 64
        E 0 81 3e 64
        E 0 82 3b 64
        E 0 83 37 64
        E 0 84 4a 64
        E 0 85 47 64
        E 0 87 43 64
        E 0 8e 3e 64
        E 0 88 3b 64
        E 0 8d 2b 64
        E 0 90 47 64
        E 0 91 3e 64
        E 0 92 3b 64
        E 0 93 37 64
        E 0 94 4a 64
        E 1 95 47 64
        E 0 97 43 64
        E 0 9e 3e 64
        E 0 98 3b 64
        E 0 9d 2b 64
        E 408 80 47 64
        E 0 81 3e 64
        E 0 82 3b 64
        E 0 83 37 64
        E 0 84 4a 64
        E 0 85 47 64
        E 0 87 43 64
        E 0 8e 3e 64
        E 0 88 3b 64
        E 0 8d 2b 64
        E 0 90 47 64
        E 0 91 3e 64
        E 0 92 3b 64
        E 0 93 37 64
        E 0 94 4a 64
        E 0 95 47 64
        E 0 97 43 64
        E 0 9e 3e 64
        E 0 98 3b 64
        E 0 9d 2b 64
        E 410 87 43 64
        E 0 8e 3e 64
        E 0 88 3b 64
        E 0 8d 2b 64
        E 0 97 4a 64
        E 0 9e 47 64
        E 0 98 43 64
        E 0 9d 37 64
        E 408 84 4a 64
        E 0 85 47 64
        E 1 87 4a 64
        E 0 8e 47 64
        E 0 88 43 64
        E 0 8d 37 64
        E 0 97 43 64
        E 0 9e 3e 64
        E 0 98 3b 64
        E 0 9d 2b 64
        E 406 87 43 64
        E 0 8e 3e 64
        E 0 88 3b 64
        E 0 8d 2b 64
        E 0 97 43 64
        E 0 9e 3e 64
        E 0 98 3b 64
        E 0 9d 2b 64
        E 409 80 47 64
        E 0 81 3e 64
        E 0 82 3b 64
        E 0 83 37 64
        E 0 87 43 64
        E 0 8e 3e 64
        E 0 88 3b 64
        E 0 8d 2b 64
        E 0 90 47 64
        E 0 91 40 64
        E 0 92 38 64
        E 0 93 34 64
        E 0 94 4c 64
        E 0 95 47 64
        E 0 97 44 64
        E 0 9e 40 64
        E 0 98 3b 64
        E 0 9d 34 64
        E 409 84 4c 64
        E 0 85 47 64
        E 0 87 44 64
        E 0 8e 40 64
        E 0 88 3b 64
        E 0 8d 34 64
        E 0 94 4c 64
        E 0 95 47 64
        E 0 97 4c 64
        E 0 9e 47 64
        E 0 98 44 64
        E 0 9d 40 64
        E 410 84 4c 64
        E 0 85 47 64
        E 0 87 4c 64
        E 0 8e 47 64
        E 0 88 44 64
        E 0 8d 40 64
        E 0 94 4c 64
        E 0 95 47 64
        E 0 97 44 64
        E 0 9e 40 64
        E 1 98 3b 64
        E 0 9d 34 64
        E 405 80 47 64
        E 0 81 40 64
        E 0 82 38 64
        E 0 83 34 64
        E 0 84 4c 64
        E 0 85 47 64
        E 0 87 44 64
        E 0 8e 40 64
        E 0 88 3b 64
        E 0 8d 34 64
        E 2 90 47 64
        E 0 91 40 64
        E 0 92 38 64
        E 0 93 34 64
        E 0 94 4c 64
        E 0 95 47 64
        E 0 97 44 64
        E 0 9e 40 64
        E 1 98 3b 64
        E 2 9d 34 64
        E 405 80 47 64
        E 0 81 40 64
        E 0 82 38 64
        E 0 83 34 64
        E 0 84 4c 64
        E 0 85 47 64
        E 0 87 44 64
        E 0 8e 40 64
        E 0 88 3b 64
        E 0 8d 34 64
        E 0 90 47 64
        E 0 91 40 64
        E 0 92 38 64
        E 0 93 34 64
        E 0 94 4c 64
        E 0 95 47 64
        E 0 97 44 64
        E 0 9e 40 64
        E 0 98 3b 64
        E 0 9d 34 64
        E 409 87 44 64
        E 0 8e 40 64
        E 0 88 3b 64
        E 0 8d 34 64
        E 0 97 4c 64
        E 0 9e 47 64
        E 0 98 44 64
        E 1 9d 40 64
        E 411 84 4c 64
        E 0 85 47 64
        E 0 87 4c 64
        E 1 8e 47 64
        E 0 88 44 64
        E 0 8d 40 64
        E 0 97 44 64
        E 0 9e 40 64
        E 0 98 40 64
        E 0 9d 34 64
        E 403 87 44 64
        E 1 8e 40 64
        E 0 88 40 64
        E 0 8d 34 64
        E 0 97 44 64
        E 0 9e 40 64
        E 0 98 40 64
        E 0 9d 34 64
        E 406 80 47 64
        E 0 81 40 64
        E 1 82 38 64
        E 0 83 34 64
        E 0 87 44 64
        E 0 8e 40 64
        E 0 88 40 64
        E 0 8d 34 64
        E 0 90 49 64
        E 0 91 40 64
        E 0 92 3d 64
        E 0 93 39 64
        E 0 94 4c 64
        E 0 95 49 64
        E 0 97 45 64
        E 0 9e 40 64
        E 0 98 40 64
        E 0 9d 2d 64
        E 409 84 4c 64
        E 0 85 49 64
        E 0 87 45 64
        E 0 8e 40 64
        E 0 88 40 64
        E 0 8d 2d 64
        E 0 94 4c 64
        E 1 95 49 64
        E 0 97 4c 64
        E 0 9e 49 64
        E 0 98 45 64
        E 0 9d 39 64
        E 407 84 4c 64
        E 0 85 49 64
        E 0 87 4c 64
        E 0 8e 49 64
        E 0 88 45 64
        E 0 8d 39 64
        E 0 94 4c 64
        E 0 95 49 64
        E 0 97 45 64
        E 0 9e 40 64
        E 0 98 3d 64
        E 0 9d 2d 64
        E 16792 80 49 64
        E 0 81 40 64
        E 0 82 3d 64
        E 0 83 39 64
        E 0 84 4c 64
        E 0 85 49 64
        E 0 87 45 64
        E 0 8e 40 64
        E 0 88 3d 64
        E 0 8d 2d 64
        E 0 90 49 64
        E 0 91 40 64
        E 0 92 3d 64
        E 0 93 39 64
        E 0 94 4c 64
        E 0 95 49 64
        E 0 97 45 64
        E 0 9e 40 64
        E 0 98 3d 64
        E 0 9d 2d 64
        E 0 80 49 64
        E 0 81 40 64
        E 0 82 3d 64
        E 0 83 39 64
        E 0 84 4c 64
        E 0 85 49 64
        E 0 87 45 64
        E 0 8e 40 64
        E 0 88 3d 64
        E 0 8d 2d 64
        E 0 90 49 64
        E 0 91 40 64
        E 0 92 3d 64
        E 0 93 39 64
        E 0 94 4c 64
        E 0 95 49 64
        E 0 97 45 64
        E 0 9e 40 64
        E 0 98 3d 64
        E 0 9d 2d 64
        E 0 87 45 64
        E 0 8e 40 64
        E 0 88 3d 64
        E 0 8d 2d 64
        E 0 97 4c 64
        E 0 9e 49 64
        E 0 98 45 64
        E 0 9d 39 64
        E 0 84 4c 64
        E 0 85 49 64
        E 0 87 4c 64
        E 0 8e 49 64
        E 0 88 45 64
        E 0 8d 39 64
        E 0 97 45 64
        E 0 9e 40 64
        E 0 98 3d 64
        E 0 9d 2d 64
        E 0 87 45 64
        E 0 8e 40 64
        E 0 88 3d 64
        E 0 8d 2d 64
        E 0 97 45 64
        E 1 9e 40 64
        E 0 98 3d 64
        E 0 9d 2d 64
        E 0 80 49 64
        E 0 81 40 64
        E 0 82 3d 64
        E 0 83 39 64
        E 0 87 45 64
        E 0 8e 40 64
        E 0 88 3d 64
        E 0 8d 2d 64
        E 0 90 49 64
        E 0 91 42 64
        E 0 92 3a 64
        E 0 93 36 64
        E 0 94 4e 64
        E 0 95 49 64
        E 0 97 46 64
        E 0 9e 42 64
        E 0 98 3d 64
        E 0 9d 36 64
        E 0 84 4e 64
        E 0 85 49 64
        E 0 87 46 64
        E 0 8e 42 64
        E 0 88 3d 64
        E 0 8d 36 64
        E 0 94 4e 64
        E 0 95 49 64
        E 0 97 4e 64
        E 0 9e 49 64
        E 0 98 46 64
        E 0 9d 3a 64
        E 0 84 4e 64
        E 0 85 49 64
        E 0 87 4e 64
        E 0 8e 49 64
        E 0 88 46 64
        E 0 8d 3a 64
        E 0 94 4e 64
        E 0 95 49 64
        E 0 97 46 64
        E 0 9e 42 64
        E 0 98 3d 64
        E 0 9d 36 64
        E 0 84 4e 64
        E 0 85 49 64
        E 0 87 46 64
        E 0 8e 42 64
        E 0 88 3d 64
        E 0 8d 36 64
        E 0 94 4e 64
        E 0 95 49 64
        E 0 97 46 64
        E 0 9e 42 64
        E 0 98 3d 64
        E 0 9d 36 64
        E 0 80 49 64
        E 0 81 42 64
        E 0 82 3a 64
        E 0 83 36 64
        E 0 84 4e 64
        E 0 85 49 64
        E 0 87 46 64
        E 0 8e 42 64
        E 0 88 3d 64
        E 0 8d 36 64
        E 0 90 49 64
        E 1 91 42 64
        E 0 92 3a 64
        E 0 93 36 64
        E 0 94 4e 64
        E 0 95 49 64
        E 0 97 46 64
        E 0 9e 42 64
        E 0 98 3d 64
        E 0 9d 36 64
        E 0 87 46 64
        E 0 8e 42 64
        E 0 88 3d 64
        E 0 8d 36 64
        E 0 97 4e 64
        E 0 9e 49 64
        E 0 98 46 64
        E 0 9d 3a 64
        E 0 84 4e 64
        E 0 85 49 64
        E 0 87 4e 64
        E 0 8e 49 64
        E 0 88 46 64
        E 0 8d 3a 64
        E 0 97 46 64
        E 0 9e 42 64
        E 0 98 42 64
        E 0 9d 36 64
        E 0 87 46 64
        E 0 8e 42 64
        E 0 88 42 64
        E 0 8d 36 64
        E 0 97 46 64
        E 0 9e 42 64
        E 0 98 42 64
        E 0 9d 36 64
        E 0 80 49 64
        E 0 81 42 64
        E 0 82 3a 64
        E 0 83 36 64
        E 0 87 46 64
        E 0 8e 42 64
        E 0 88 42 64
        E 0 8d 36 64
        E 0 90 4a 64
        E 0 91 42 64
        E 0 92 3b 64
        E 0 93 36 64
        E 0 94 4e 64
        E 1 95 4a 64
        E 0 97 47 64
        E 0 9e 4a 64
        E 0 98 42 64
        E 0 9d 36 64
        E 0 84 4e 64
        E 0 85 4a 64
        E 0 87 47 64
        E 0 8e 4a 64
        E 0 88 42 64
        E 0 8d 36 64
        E 0 94 4e 64
        E 0 95 4a 64
        E 0 97 53 64
        E 0 9e 4e 64
        E 0 98 4a 64
        E 0 9d 3b 64
        E 0 84 4e 64
        E 0 85 4a 64
        E 0 87 53 64
        E 0 8e 4e 64
        E 0 88 4a 64
        E 0 8d 3b 64
        E 0 94 4e 64
        E 0 95 4a 64
        E 0 97 47 64
        E 0 9e 4a 64
        E 0 98 42 64
        E 0 9d 36 64
        E 0 84 4e 64
        E 0 85 4a 64
        E 0 87 47 64
        E 0 8e 4a 64
        E 0 88 42 64
        E 0 8d 36 64
        E 0 94 4e 64
        E 0 95 4a 64
        E 0 97 47 64
        E 0 9e 4a 64
        E 0 98 42 64
        E 0 9d 36 64
        E 0 80 4a 64
        E 0 81 42 64
        E 0 82 3b 64
        E 0 83 36 64
        E 0 84 4e 64
        E 0 85 4a 64
        E 0 87 47 64
        E 0 8e 4a 64
        E 0 88 42 64
        E 0 8d 36 64
        E 0 90 47 64
        E 0 91 42 64
        E 0 92 3e 64
        E 0 93 36 64
        E 0 94 4e 64
        E 0 95 4a 64
        E 1 97 47 64
        E 2 9e 4a 64
        E 0 98 42 64
        E 0 9d 36 64
        E 0 87 47 64
        E 0 8e 4a 64
        E 0 88 42 64
        E 0 8d 36 64
        E 0 97 53 64
        E 0 9e 4e 64
        E 0 98 4a 64
        E 0 9d 3b 64
        E 0 84 4e 64
        E 0 85 4a 64
        E 0 87 53 64
        E 0 8e 4e 64
        E 0 88 4a 64
        E 0 8d 3b 64
        E 0 97 47 64
        E 0 9e 4a 64
        E 0 98 42 64
        E 0 9d 36 64
        E 0 87 47 64
        E 0 8e 4a 64
        E 0 88 42 64
        E 0 8d 36 64
        E 0 97 47 64
        E 0 9e 4a 64
        E 0 98 42 64
        E 0 9d 36 64
        E 0 80 47 64
        E 0 81 42 64
        E 0 82 3e 64
        E 0 83 36 64
        E 0 87 47 64
        E 0 8e 4a 64
        E 0 88 42 64
        E 0 8d 36 64
        E 0 90 47 64
        E 1 91 42 64
        E 0 92 3d 64
        E 0 93 36 64
        E 0 94 4e 64
        E 0 95 49 64
        E 0 97 47 64
        E 0 9e 49 64
        E 0 98 42 64
        E 0 9d 36 64
        E 0 84 4e 64
        E 0 85 49 64
        E 0 87 47 64
        E 0 8e 49 64
        E 0 88 42 64
        E 0 8d 36 64
        E 0 94 4e 64
        E 0 95 49 64
        E 0 97 53 64
        E 0 9e 4e 64
        E 6 98 49 64
        E 0 9d 3b 64
        E 0 84 4e 64
        E 0 85 49 64
        E 0 87 53 64
        E 0 8e 4e 64
        E 0 88 49 64
        E 0 8d 3b 64
        E 0 94 4e 64
        E 0 95 49 64
        E 0 97 47 64
        E 0 9e 49 64
        E 0 98 42 64
        E 0 9d 36 64
        E 0 84 4e 64
        E 0 85 49 64
        E 0 87 47 64
        E 0 8e 49 64
        E 0 88 42 64
        E 0 8d 36 64
        E 0 94 4e 64
        E 0 95 49 64
        E 0 97 47 64
        E 0 9e 49 64
        E 0 98 42 64
        E 1 9d 36 64
        E 0 80 47 64
        E 0 81 42 64
        E 0 82 3d 64
        E 0 83 36 64
        E 0 84 4e 64
        E 0 85 49 64
        E 0 87 47 64
        E 0 8e 49 64
        E 0 88 42 64
        E 0 8d 36 64
        E 0 90 46 64
        E 0 91 42 64
        E 0 92 3d 64
        E 0 93 36 64
        E 0 94 4e 64
        E 0 95 49 64
        E 0 97 46 64
        E 0 9e 49 64
        E 0 98 42 64
        E 0 9d 36 64
        E 0 84 4e 64
        E 0 85 49 64
        E 0 87 46 64
        E 0 8e 49 64
        E 0 88 42 64
        E 0 8d 36 64
        E 0 94 4e 64
        E 0 95 49 64
        E 0 97 52 64
        E 0 9e 4e 64
        E 0 98 49 64
        E 0 9d 3a 64
        E 0 84 4e 64
        E 0 85 49 64
        E 0 87 52 64
        E 0 8e 4e 64
        E 0 88 49 64
        E 0 8d 3a 64
        E 0 94 4e 64
        E 0 95 49 64
        E 0 97 46 64
        E 0 9e 49 64
        E 0 98 42 64
        E 0 9d 36 64
        E 0 84 4e 64
        E 0 85 49 64
        E 0 87 46 64
        E 0 8e 49 64
        E 0 88 42 64
        E 0 8d 36 64
        E 0 94 4e 64
        E 0 95 49 64
        E 0 97 46 64
        E 0 9e 49 64
        E 0 98 42 64
        E 0 9d 36 64
        E 0 80 46 64
        E 0 81 42 64
        E 0 82 3d 64
        E 0 83 36 64
        E 0 84 4e 64
        E 0 85 49 64
        E 0 87 46 64
        E 0 8e 49 64
        E 0 88 42 64
        E 0 8d 36 64
        E 0 90 47 64
        E 0 91 42 64
        E 0 92 3e 64
        E 0 93 2f 64
        E 0 94 4e 64
        E 0 95 4a 64
        E 0 97 47 64
        E 0 9e 4a 64
        E 0 98 42 64
        E 0 9d 2f 64
        E 0 87 47 64
        E 0 8e 4a 64
        E 0 88 42 64
        E 0 8d 2f 64
        E 0 97 47 64
        E 0 9e 47 64
        E 0 98 47 64
        E 0 9d 3b 64
        E 0 84 4e 64
        E 0 85 4a 64
        E 0 87 47 64
        E 0 8e 47 64
        E 0 88 47 64
        E 0 8d 3b 64
        E 0 97 3b 64
        E 1 9e 3b 64
        E 0 98 3b 64
        E 0 9d 2f 64
        E 0 87 3b 64
        E 0 8e 3b 64
        E 0 88 3b 64
        E 0 8d 2f 64
        E 0 97 3b 64
        E 0 9e 3b 64
        E 0 98 3b 64
        E 0 9d 2f 64
        E 0 80 47 64
        E 0 81 42 64
        E 0 82 3e 64
        E 0 83 2f 64
        E 0 87 3b 64
        E 0 8e 3b 64
        E 0 88 3b 64
        E 0 8d 2f 64
        E 0 97 3b 64
        E 0 9e 3b 64
        E 0 98 3b 64
        E 0 9d 2f 64
        E 0 87 3b 64
        E 0 8e 3b 64
        E 0 95 4a 64
        E 0 97 4a 64
        E 0 9e 47 64
        E 0 85 4a 64
        E 0 87 4a 64
        E 0 8e 47 64
        E 0 95 4c 64
        E 0 97 4c 64
        E 0 9e 49 64
        E 0 85 4c 64
        E 0 87 4c 64
        E 0 8e 49 64
        E 0 88 3b 64
        E 0 8d 2f 64
        E 0 95 4e 64
        E 0 97 4e 64
        E 1 9e 4a 64
        E 0 85 4e 64
        E 0 87 4e 64
        E 0 8e 4a 64
        E 0 95 4c 64
        E 0 97 4c 64
        E 0 9e 49 64
        E 0 85 4c 64
        E 0 87 4c 64
        E 0 8e 49 64
        E 0 95 4e 64
        E 0 97 4e 64
        E 0 9e 4a 64
        E 0 85 4e 64
        E 0 87 4e 64
        E 0 8e 4a 64
        E 0 95 4c 64
        E 0 97 4c 64
        E 0 9e 49 64
        E 0 85 4c 64
        E 0 87 4c 64
        E 0 8e 49 64
        E 0 95 4a 64
        E 0 97 4a 64
        E 0 9e 47 64
        E 0 85 4a 64
        E 0 87 4a 64
        E 0 8e 47 64
        E 0 95 4a 64
        E 0 97 4a 64
        E 0 9e 47 64
        E 0 85 4a 64
        E 0 87 4a 64
        E 0 8e 47 64
        E 0 95 4c 64
        E 0 97 4c 64
        E 0 9e 49 64
        E 0 85 4c 64
        E 0 87 4c 64
        E 0 8e 49 64
        E 0 95 4e 64
        E 0 97 4e 64
        E 0 9e 4a 64
        E 0 85 4e 64
        E 0 87 4e 64
        E 0 8e 4a 64
        E 0 95 4c 64
        E 0 97 4c 64
        E 0 9e 49 64
        E 0 85 4c 64
        E 0 87 4c 64
        E 0 8e 49 64
        E 0 95 4e 64
        E 0 97 4e 64
        E 0 9e 4a 64
        E 19203 85 4e 64
        E 0 87 4e 64
        E 0 8e 4a 64
        E 0 95 4c 64
        E 0 97 4c 64
        E 0 9e 49 64
        E 0 85 4c 64
        E 0 87 4c 64
        E 0 8e 49 64
        E 0 95 4a 64
        E 0 97 4a 64
        E 0 9e 47 64
        E 0 98 42 64
        E 1 9d 2f 64
        E 0 85 4a 64
        E 0 87 4a 64
        E 0 8e 47 64
        E 0 95 4a 64
        E 0 97 4a 64
        E 0 9e 47 64
        E 0 85 4a 64
        E 0 87 4a 64
        E 0 8e 47 64
        E 0 95 4c 64
        E 0 97 4c 64
        E 0 9e 49 64
        E 0 85 4c 64
        E 0 87 4c 64
        E 0 8e 49 64
        E 0 88 42 64
        E 0 8d 2f 64
        E 0 95 4e 64
        E 0 97 4e 64
        E 0 9e 4a 64
        E 0 85 4e 64
        E 0 87 4e 64
        E 0 8e 4a 64
        E 0 95 4c 64
        E 0 97 4c 64
        E 0 9e 49 64
        E 0 85 4c 64
        E 0 87 4c 64
        E 0 8e 49 64
        E 0 95 4e 64
        E 0 97 4e 64
        E 0 9e 4a 64
        E 0 85 4e 64
        E 0 87 4e 64
        E 0 8e 4a 64
        E 0 95 4c 64
        E 0 97 4c 64
        E 0 9e 49 64
        E 0 85 4c 64
        E 0 87 4c 64
        E 0 8e 49 64
        E 0 95 4a 64
        E 0 97 4a 64
        E 0 9e 47 64
        E 0 85 4a 64
        E 0 87 4a 64
        E 0 8e 47 64
        E 0 95 4a 64
        E 0 97 4a 64
        E 0 9e 47 64
        E 0 85 4a 64
        E 0 87 4a 64
        E 0 8e 47 64
        E 0 95 4c 64
        E 0 97 4c 64
        E 0 9e 49 64
        E 0 85 4c 64
        E 0 87 4c 64
        E 0 8e 49 64
        E 0 95 4e 64
        E 0 97 4e 64
        E 0 9e 4a 64
        E 0 85 4e 64
        E 0 87 4e 64
        E 0 8e 4a 64
        E 0 95 4c 64
        E 0 97 4c 64
        E 0 9e 49 64
        E 1 85 4c 64
        E 0 87 4c 64
        E 0 8e 49 64
        E 0 95 4e 64
        E 0 97 4e 64
        E 0 9e 4a 64
        E 0 85 4e 64
        E 0 87 4e 64
        E 0 8e 4a 64
        E 0 95 4c 64
        E 0 97 4c 64
        E 0 9e 49 64
        E 0 85 4c 64
        E 0 87 4c 64
        E 0 8e 49 64
        E 0 90 47 64
        E 0 91 42 64
        E 0 92 3e 64
        E 0 93 3b 64
        E 0 95 4a 64
        E 0 97 4a 64
        E 0 9e 47 64
        E 1 98 42 64
        E 0 9d 2f 64
        E 0 85 4a 64
        E 0 87 4a 64
        E 0 8e 47 64
        E 0 88 42 64
        E 0 8d 2f 64
        E 1 95 4a 64
        E 0 97 4a 64
        E 0 9e 47 64
        E 0 98 42 64
        E 0 9d 3b 64
        E 0 85 4a 64
        E 0 87 4a 64
        E 0 8e 47 64
        E 0 88 42 64
        E 0 8d 3b 64
        E 0 95 42 64
        E 0 97 42 64
        E 0 9e 3e 64
        E 0 98 3b 64
        E 0 9d 2f 64
        E 0 80 47 64
        E 0 81 42 64
        E 0 82 3e 64
        E 0 83 3b 64
        E 0 85 42 64
        E 0 87 42 64
        E 0 8e 3e 64
        E 0 88 3b 64
        E 0 8d 2f 64
        E 0 90 47 64
        E 0 91 42 64
        E 0 92 3e 64
        E 0 93 3b 64
        E 0 95 42 64
        E 0 97 42 64
        E 0 9e 3e 64
        E 0 98 3b 64
        E 0 9d 2f 64
        E 0 80 47 64
        E 0 81 42 64
        E 0 82 3e 64
        E 0 83 3b 64
        E 0 85 42 64
        E 0 87 42 64
        E 0 8e 3e 64
        E 0 88 3b 64
        E 0 8d 2f 64
        E 0 90 47 64
        E 0 91 42 64
        E 0 92 3e 64
        E 0 93 3b 64
        E 0 95 42 64
        E 0 97 42 64
        E 0 9e 3e 64
        E 1 98 3b 64
        E 0 9d 2f 64
        E 0 85 42 64
        E 0 87 42 64
        E 0 8e 3e 64
        E 0 88 3b 64
        E 0 8d 2f 64
        E 0 95 4a 64
        E 0 97 4a 64
        E 0 9e 47 64
        E 0 98 42 64
        E 0 9d 3b 64
        E 0 85 4a 64
        E 0 87 4a 64
        E 0 8e 47 64
        E 0 88 42 64
        E 0 8d 3b 64
        E 0 95 42 64
        E 1 97 42 64
        E 0 9e 3e 64
        E 0 98 3b 64
        E 0 9d 2f 64
        E 0 85 42 64
        E 0 87 42 64
        E 0 8e 3e 64
        E 0 88 3b 64
        E 0 8d 2f 64
        E 0 95 42 64
        E 0 97 42 64
        E 0 9e 3e 64
        E 0 98 3b 64
        E 0 9d 2f 64
        E 0 80 47 64
        E 0 81 42 64
        E 0 82 3e 64
        E 0 83 3b 64
        E 0 85 42 64
        E 0 87 42 64
        E 0 8e 3e 64
        E 0 88 3b 64
        E 0 8d 2f 64
        E 0 90 47 64
        E 0 91 42 64
        E 0 92 3f 64
        E 0 93 39 64
        E 0 95 42 64
        E 0 97 42 64
        E 0 9e 3f 64
        E 0 98 3b 64
        E 0 9d 2d 64
        E 0 85 42 64
        E 0 87 42 64
        E 0 8e 3f 64
        E 0 88 3b 64
        E 0 8d 2d 64
        E 0 95 4b 64
        E 0 97 4b 64
        E 0 9e 47 64
        E 0 98 42 64
        E 0 9d 39 64
        E 0 85 4b 64
        E 0 87 4b 64
        E 0 8e 47 64
        E 0 88 42 64
        E 0 8d 39 64
        E 1 95 42 64
        E 0 97 42 64
        E 0 9e 3f 64
        E 0 98 3b 64
        E 0 9d 2d 64
        E 0 80 47 64
        E 0 81 42 64
        E 0 82 3f 64
        E 0 83 39 64
        E 0 85 42 64
        E 0 87 42 64
        E 0 8e 3f 64
        E 0 88 3b 64
        E 0 8d 2d 64
        E 0 90 47 64
        E 0 91 42 64
        E 0 92 3f 64
        E 0 93 39 64
        E 0 95 42 64
        E 0 97 42 64
        E 0 9e 3f 64
        E 0 98 3b 64
        E 0 9d 2d 64
        E 0 80 47 64
        E 0 81 42 64
        E 0 82 3f 64
        E 0 83 39 64
        E 0 85 42 64
        E 0 87 42 64
        E 0 8e 3f 64
        E 0 88 3b 64
        E 0 8d 2d 64
        E 0 90 47 64
        E 0 91 42 64
        E 0 92 3f 64
        E 0 93 39 64
        E 0 95 42 64
        E 0 97 42 64
        E 0 9e 3f 64
        E 0 98 3b 64
        E 0 9d 2d 64
        E 0 85 42 64
        E 0 87 42 64
        E 0 8e 3f 64
        E 0 88 3b 64
        E 0 8d 2d 64
        E 0 95 4b 64
        E 0 97 4b 64
        E 0 9e 47 64
        E 0 98 42 64
        E 0 9d 39 64
        E 0 85 4b 64
        E 0 87 4b 64
        E 0 8e 47 64
        E 0 88 42 64
        E 0 8d 39 64
        E 0 95 42 64
        E 0 97 42 64
        E 0 9e 3f 64
        E 0 98 3b 64
        E 0 9d 2d 64
        E 0 85 42 64
        E 0 87 42 64
        E 0 8e 3f 64
        E 0 88 3b 64
        E 0 8d 2d 64
        E 0 95 42 64
        E 0 97 42 64
        E 0 9e 3f 64
        E 1 98 3b 64
        E 0 9d 2d 64
        E 0 80 47 64
        E 0 81 42 64
        E 0 82 3f 64
        E 0 83 39 64
        E 0 85 42 64
        E 0 87 42 64
        E 0 8e 3f 64
        E 0 88 3b 64
        E 0 8d 2d 64
        E 0 90 47 64
        E 0 91 43 64
        E 0 92 40 64
        E 0 93 37 64
        E 0 95 43 64
        E 0 97 43 64
        E 0 9e 40 64
        E 0 98 3b 64
        E 0 9d 2b 64
        E 0 85 43 64
        E 0 87 43 64
        E 0 8e 40 64
        E 0 88 3b 64
        E 0 8d 2b 64
        E 0 95 4c 64
        E 0 97 4c 64
        E 0 9e 47 64
        E 0 98 43 64
        E 0 9d 37 64
        E 0 85 4c 64
        E 0 87 4c 64
        E 0 8e 47 64
        E 0 88 43 64
        E 0 8d 37 64
        E 0 95 43 64
        E 0 97 43 64
        E 0 9e 40 64
        E 0 98 3b 64
        E 0 9d 2b 64
        E 0 85 43 64
        E 0 87 43 64
        E 0 8e 40 64
        E 0 88 3b 64
        E 0 8d 2b 64
        E 0 95 43 64
        E 0 97 43 64
        E 0 9e 40 64
        E 0 98 3b 64
        E 0 9d 2b 64
        E 0 80 47 64
        E 0 81 43 64
        E 0 82 40 64
        E 0 83 37 64
        E 0 85 43 64
        E 0 87 43 64
        E 0 8e 40 64
        E 0 88 3b 64
        E 0 8d 2b 64
        E 0 90 47 64
        E 0 91 43 64
        E 0 92 40 64
        E 0 93 37 64
        E 0 95 43 64
        E 0 97 43 64
        E 0 9e 40 64
        E 0 98 3b 64
        E 0 9d 2b 64
        E 0 85 43 64
        E 0 87 43 64
        E 0 8e 40 64
        E 0 88 3b 64
        E 0 8d 2b 64
        E 0 95 4c 64
        E 0 97 4c 64
        E 0 9e 47 64
        E 0 98 43 64
        E 0 9d 37 64
        E 0 85 4c 64
        E 0 87 4c 64
        E 0 8e 47 64
        E 0 88 43 64
        E 0 8d 37 64
        E 0 95 43 64
        E 0 97 43 64
        E 0 9e 40 64
        E 0 98 3b 64
        E 0 9d 2b 64
        E 0 85 43 64
        E 0 87 43 64
        E 0 8e 40 64
        E 0 88 3b 64
        E 0 8d 2b 64
        E 0 95 43 64
        E 0 97 43 64
        E 0 9e 40 64
        E 0 98 3b 64
        E 0 9d 2b 64
        E 0 80 47 64
        E 0 81 43 64
        E 0 82 40 64
        E 0 83 37 64
        E 0 85 43 64
        E 0 87 43 64
        E 0 8e 40 64
        E 0 88 3b 64
        E 0 8d 2b 64
        E 0 90 47 64
        E 0 91 44 64
        E 0 92 41 63
        E 0 93 31 64
        E 0 95 44 64
        E 0 97 44 64
        E 0 9e 41 63
        E 0 98 3b 64
        E 1 9d 31 64
        E 0 85 44 64
        E 0 87 44 64
        E 0 8e 41 63
        E 0 88 3b 64
        E 0 8d 31 64
        E 0 95 4d 63
        E 0 97 4d 63
        E 0 9e 49 64
        E 0 98 44 64
        E 0 9d 3d 64
        E 0 85 4d 63
        E 0 87 4d 63
        E 0 8e 49 64
        E 0 88 44 64
        E 0 8d 3d 64
        E 0 95 44 64
        E 0 97 44 64
        E 0 9e 41 63
        E 0 98 3b 64
        E 0 9d 31 64
        E 0 85 44 64
        E 0 87 44 64
        E 0 8e 41 63
        E 0 88 3b 64
        E 0 8d 31 64
        E 0 95 44 64
        E 0 97 44 64
        E 0 9e 41 63
        E 0 98 3b 64
        E 0 9d 31 64
        E 0 85 44 64
        E 0 87 44 64
        E 0 8e 41 63
        E 0 88 3b 64
        E 0 8d 31 64
        E 0 95 44 64
        E 0 97 44 64
        E 0 9e 41 63
        E 0 98 3b 64
        E 0 9d 31 64
        E 0 85 44 64
        E 0 87 44 64
        E 0 8e 41 63
        E 0 88 3b 64
        E 0 8d 31 64
        E 0 95 4d 63
        E 0 97 4d 63
        E 0 9e 49 64
        E 0 98 44 64
        E 0 9d 3d 64
        E 0 85 4d 63
        E 0 87 4d 63
        E 0 8e 49 64
        E 0 88 44 64
        E 0 8d 3d 64
        E 0 95 44 64
        E 0 97 44 64
        E 0 9e 41 63
        E 0 98 41 63
        E 0 9d 31 64
        E 0 85 44 64
        E 0 87 44 64
        E 0 8e 41 63
        E 0 88 41 63
        E 0 8d 31 64
        E 0 95 44 64
        E 0 97 44 64
        E 0 9e 41 63
        E 0 98 41 63
        E 0 9d 31 64
        E 0 80 47 64
        E 0 81 44 64
        E 0 82 41 63
        E 0 83 31 64
        E 0 85 44 64
        E 0 87 44 64
        E 0 8e 41 63
        E 0 88 41 63
        E 0 8d 31 64
        E 0 90 46 64
        E 0 91 42 64
        E 0 92 3d 64
        E 0 93 36 64
        E 0 95 46 64
        E 0 97 46 64
        E 0 9e 42 64
        E 1 98 3d 64
        E 0 9d 2a 64
        E 0 85 46 64
        E 0 87 46 64
        E 0 8e 42 64
        E 0 88 3d 64
        E 0 8d 2a 64
        E 0 95 4e 64
        E 0 97 4e 64
        E 0 9e 49 64
        E 0 98 46 64
        E 0 9d 36 64
        E 0 85 4e 64
        E 0 87 4e 64
        E 0 8e 49 64
        E 0 88 46 64
        E 0 8d 36 64
        E 0 95 46 64
        E 0 97 46 64
        E 0 9e 42 64
        E 0 98 3d 64
        E 0 9d 2a 64
        E 0 85 46 64
        E 0 87 46 64
        E 0 8e 42 64
        E 0 88 3d 64
        E 0 8d 2a 64
        E 0 95 46 64
        E 0 97 46 64
        E 0 9e 42 64
        E 0 98 3d 64
        E 0 9d 2a 64
        E 0 81 42 64
        E 0 85 46 64
        E 0 87 46 64
        E 0 8e 42 64
        E 0 88 3d 64
        E 0 8d 2a 64
        E 0 91 40 64
        E 0 95 46 64
        E 0 97 46 64
        E 0 9e 42 64
        E 0 98 3d 64
        E 0 9d 2a 64
        E 0 85 46 64
        E 0 87 46 64
        E 0 8e 42 64
        E 0 88 3d 64
        E 0 8d 2a 64
        E 0 95 4e 64
        E 0 97 4e 64
        E 0 9e 49 64
        E 0 98 46 64
        E 0 9d 36 64
        E 0 85 4e 64
        E 0 87 4e 64
        E 0 8e 49 64
        E 0 88 46 64
        E 0 8d 36 64
        E 0 95 46 64
        E 0 97 46 64
        E 0 9e 42 64
        E 0 98 3d 64
        E 0 9d 2a 64
        E 19204 85 46 64
        E 0 87 46 64
        E 0 8e 42 64
        E 0 88 3d 64
        E 0 8d 2a 64
        E 0 95 46 64
        E 0 97 46 64
        E 0 9e 42 64
        E 0 98 3d 64
        E 0 9d 2a 64
        E 0 80 46 64
        E 0 81 40 64
        E 0 82 3d 64
        E 0 83 36 64
        E 0 85 46 64
        E 0 87 46 64
        E 0 8e 42 64
        E 0 88 3d 64
        E 0 8d 2a 64
        E 0 90 45 64
        E 0 91 3f 64
        E 0 92 3b 64
        E 0 93 36 64
        E 0 95 45 64
        E 0 97 45 64
        E 0 9e 42 64
        E 0 98 3f 64
        E 0 9d 2a 64
        E 0 85 45 64
        E 0 87 45 64
        E 0 8e 42 64
        E 0 88 3f 64
        E 0 8d 2a 64
        E 0 95 4e 64
        E 0 97 4e 64
        E 0 9e 4b 64
        E 0 98 45 64
        E 0 9d 36 64
        E 1 85 4e 64
        E 0 87 4e 64
        E 0 8e 4b 64
        E 0 88 45 64
        E 0 8d 36 64
        E 0 95 45 64
        E 0 97 45 64
        E 0 9e 42 64
        E 0 98 3f 64
        E 0 9d 2a 64
        E 0 85 45 64
        E 0 87 45 64
        E 0 8e 42 64
        E 0 88 3f 64
        E 0 8d 2a 64
        E 0 95 45 64
        E 0 97 45 64
        E 0 9e 42 64
        E 0 98 3f 64
        E 0 9d 2a 64
        E 0 85 45 64
        E 0 87 45 64
        E 0 8e 42 64
        E 0 88 3f 64
        E 0 8d 2a 64
        E 0 95 45 64
        E 0 97 45 64
        E 0 9e 42 64
        E 0 98 3f 64
        E 0 9d 2a 64
        E 0 85 45 64
        E 0 87 45 64
        E 0 8e 42 64
        E 0 88 3f 64
        E 0 8d 2a 64
        E 0 95 4e 64
        E 0 97 4e 64
        E 0 9e 4b 64
        E 0 98 45 64
        E 0 9d 36 64
        E 0 85 4e 64
        E 0 87 4e 64
        E 0 8e 4b 64
        E 0 88 45 64
        E 0 8d 36 64
        E 0 95 45 64
        E 0 97 45 64
        E 0 9e 42 64
        E 0 98 3f 64
        E 0 9d 2a 64
        E 0 85 45 64
        E 0 87 45 64
        E 0 8e 42 64
        E 0 88 3f 64
        E 0 8d 2a 64
        E 0 95 45 64
        E 0 97 45 64
        E 0 9e 42 64
        E 0 98 3f 64
        E 0 9d 2a 64
        E 0 80 45 64
        E 0 81 3f 64
        E 0 82 3b 64
        E 0 83 36 64
        E 0 85 45 64
        E 0 87 45 64
        E 0 8e 42 64
        E 0 88 3f 64
        E 0 8d 2a 64
        E 1 90 45 64
        E 0 91 3f 64
        E 0 92 3c 63
        E 0 93 36 64
        E 0 95 45 64
        E 0 97 45 64
        E 0 9e 42 64
        E 0 98 3f 64
        E 0 9d 2a 64
        E 0 85 45 64
        E 0 87 45 64
        E 0 8e 42 64
        E 0 88 3f 64
        E 0 8d 2a 64
        E 0 95 4e 64
        E 0 97 4e 64
        E 0 9e 4b 64
        E 0 98 45 64
        E 0 9d 36 64
        E 0 85 4e 64
        E 0 87 4e 64
        E 0 8e 4b 64
        E 0 88 45 64
        E 0 8d 36 64
        E 0 95 45 64
        E 0 97 45 64
        E 0 9e 42 64
        E 0 98 3f 64
        E 0 9d 2a 64
        E 0 85 45 64
        E 0 87 45 64
        E 0 8e 42 64
        E 0 88 3f 64
        E 0 8d 2a 64
        E 0 95 45 64
        E 0 97 45 64
        E 0 9e 42 64
        E 0 98 3f 64
        E 0 9d 2a 64
        E 0 85 45 64
        E 0 87 45 64
        E 0 8e 42 64
        E 0 88 3f 64
        E 0 8d 2a 64
        E 0 95 45 64
        E 0 97 45 64
        E 0 9e 42 64
        E 0 98 3f 64
        E 0 9d 2a 64
        E 0 85 45 64
        E 1 87 45 64
        E 0 8e 42 64
        E 0 88 3f 64
        E 0 8d 2a 64
        E 0 95 4e 64
        E 0 97 4e 64
        E 0 9e 4b 64
        E 0 98 45 64
        E 0 9d 36 64
        E 0 85 4e 64
        E 0 87 4e 64
        E 0 8e 4b 64
        E 0 88 45 64
        E 0 8d 36 64
        E 0 95 45 64
        E 0 97 45 64
        E 0 9e 42 64
        E 0 98 3f 64
        E 0 9d 2a 64
        E 0 85 45 64
        E 0 87 45 64
        E 0 8e 42 64
        E 0 88 3f 64
        E 0 8d 2a 64
        E 0 95 45 64
        E 0 97 45 64
        E 0 9e 42 64
        E 0 98 3f 64
        E 0 9d 2a 64
        E 0 80 45 64
        E 0 81 3f 64
        E 0 82 3c 63
        E 0 83 36 64
        E 0 85 45 64
        E 0 87 45 64
        E 0 8e 42 64
        E 0 88 3f 64
        E 1 8d 2a 64
        E 0 90 44 64
        E 0 91 40 64
        E 0 92 3d 64
        E 0 93 31 64
        E 0 95 44 64
        E 0 97 44 64
        E 0 9e 40 64
        E 0 98 40 64
        E 0 9d 31 64
        E 0 85 44 64
        E 0 87 44 64
        E 0 8e 40 64
        E 0 88 40 64
        E 0 8d 31 64
        E 0 95 4c 64
        E 0 97 4c 64
        E 0 9e 49 64
        E 0 98 44 64
        E 0 9d 3d 64
        E 0 85 4c 64
        E 0 87 4c 64
        E 0 8e 49 64
        E 0 88 44 64
        E 0 8d 3d 64
        E 0 95 44 64
        E 0 97 44 64
        E 0 9e 40 64
        E 0 98 40 64
        E 0 9d 31 64
        E 0 85 44 64
        E 0 87 44 64
        E 0 8e 40 64
        E 0 88 40 64
        E 0 8d 31 64
        E 0 95 44 64
        E 0 97 44 64
        E 0 9e 40 64
        E 0 98 40 64
        E 0 9d 31 64
        E 0 85 44 64
        E 0 87 44 64
        E 0 8e 40 64
        E 0 88 40 64
        E 0 8d 31 64
        E 0 95 44 64
        E 0 97 44 64
        E 1 9e 40 64
        E 0 98 40 64
        E 0 9d 31 64
        E 0 85 44 64
        E 0 87 44 64
        E 0 8e 40 64
        E 0 88 40 64
        E 0 8d 31 64
        E 0 95 4c 64
        E 0 97 4c 64
        E 0 9e 49 64
        E 0 98 44 64
        E 0 9d 3d 64
        E 0 85 4c 64
        E 0 87 4c 64
        E 0 8e 49 64
        E 0 88 44 64
        E 0 8d 3d 64
        E 0 95 44 64
        E 0 97 44 64
        E 0 9e 40 64
        E 0 98 40 64
        E 0 9d 31 64
        E 0 85 44 64
        E 0 87 44 64
        E 0 8e 40 64
        E 0 88 40 64
        E 0 8d 31 64
        E 0 95 44 64
        E 0 97 44 64
        E 0 9e 40 64
        E 0 98 40 64
        E 0 9d 31 64
        E 0 80 44 64
        E 0 81 40 64
        E 0 82 3d 64
        E 0 83 31 64
        E 0 85 44 64
        E 0 87 44 64
        E 0 8e 40 64
        E 0 88 40 64
        E 0 8d 31 64
        E 0 90 44 64
        E 0 91 3f 64
        E 0 92 3d 64
        E 0 93 38 64
        E 0 95 44 64
        E 0 97 44 64
        E 0 9e 3f 64
        E 0 98 3f 64
        E 0 9d 2c 64
        E 0 85 44 64
        E 0 87 44 64
        E 0 8e 3f 64
        E 0 88 3f 64
        E 0 8d 2c 64
        E 0 95 4b 64
        E 0 97 4b 64
        E 1 9e 49 64
        E 0 98 44 64
        E 0 9d 38 64
        E 0 85 4b 64
        E 0 87 4b 64
        E 0 8e 49 64
        E 0 88 44 64
        E 0 8d 38 64
        E 0 95 44 64
        E 0 97 44 64
        E 0 9e 3f 64
        E 0 98 3f 64
        E 0 9d 2c 64
        E 0 85 44 64
        E 0 87 44 64
        E 0 8e 3f 64
        E 0 88 3f 64
        E 0 8d 2c 64
        E 0 95 44 64
        E 0 97 44 64
        E 0 9e 3f 64
        E 0 98 3f 64
        E 0 9d 2c 64
        E 0 85 44 64
        E 0 87 44 64
        E 0 8e 3f 64
        E 0 88 3f 64
        E 0 8d 2c 64
        E 0 95 44 64
        E 0 97 44 64
        E 0 9e 3f 64
        E 0 98 3f 64
        E 0 9d 2c 64
        E 0 85 44 64
        E 0 87 44 64
        E 0 8e 3f 64
        E 0 88 3f 64
        E 0 8d 2c 64
        E 0 95 4b 64
        E 0 97 4b 64
        E 0 9e 49 64
        E 0 98 44 64
        E 0 9d 38 64
        E 0 85 4b 64
        E 0 87 4b 64
        E 0 8e 49 64
        E 0 88 44 64
        E 0 8d 38 64
        E 0 95 44 64
        E 0 97 44 64
        E 0 9e 3f 64
        E 0 98 3f 64
        E 0 9d 2c 64
        E 0 85 44 64
        E 0 87 44 64
        E 0 8e 3f 64
        E 0 88 3f 64
        E 0 8d 2c 64
        E 0 95 44 64
        E 0 97 44 64
        E 0 9e 3f 64
        E 0 98 3f 64
        E 0 9d 2c 64
        E 0 80 44 64
        E 0 81 3f 64
        E 0 82 3d 64
        E 0 83 38 64
        E 0 85 44 64
        E 0 87 44 64
        E 0 8e 3f 64
        E 0 88 3f 64
        E 0 8d 2c 64
        E 0 90 44 64
        E 1 91 3f 64
        E 0 92 3c 63
        E 0 93 38 64
        E 0 95 44 64
        E 0 97 44 64
        E 0 9e 3f 64
        E 0 98 3c 63
        E 0 9d 2c 64
        E 0 85 44 64
        E 0 87 44 64
        E 0 8e 3f 64
        E 0 88 3c 63
        E 0 8d 2c 64
        E 0 95 4b 64
        E 0 97 4b 64
        E 0 9e 48 63
        E 0 98 44 64
        E 0 9d 38 64
        E 0 85 4b 64
        E 0 87 4b 64
        E 0 8e 48 63
        E 0 88 44 64
        E 0 8d 38 64
        E 0 95 44 64
        E 0 97 44 64
        E 0 9e 3f 64
        E 0 98 3c 63
        E 0 9d 2c 64
        E 0 85 44 64
        E 0 87 44 64
        E 0 8e 3f 64
        E 0 88 3c 63
        E 0 8d 2c 64
        E 0 95 44 64
        E 0 97 44 64
        E 0 9e 3f 64
        E 0 98 3c 63
        E 0 9d 2c 64
        E 0 85 44 64
        E 0 87 44 64
        E 0 8e 3f 64
        E 0 88 3c 63
        E 0 8d 2c 64
        E 0 95 44 64
        E 0 97 44 64
        E 0 9e 3f 64
        E 0 98 3c 63
        E 0 9d 2c 64
        E 0 85 44 64
        E 0 87 44 64
        E 0 8e 3f 64
        E 0 88 3c 63
        E 0 8d 2c 64
        E 0 95 4b 64
        E 0 97 4b 64
        E 0 9e 48 63
        E 0 98 44 64
        E 0 9d 38 64
        E 0 85 4b 64
        E 0 87 4b 64
        E 0 8e 48 63
        E 0 88 44 64
        E 0 8d 38 64
        E 0 95 44 64
        E 1 97 44 64
        E 0 9e 3f 64
        E 0 98 3c 63
        E 0 9d 2c 64
        E 0 85 44 64
        E 0 87 44 64
        E 0 8e 3f 64
        E 0 88 3c 63
        E 0 8d 2c 64
        E 0 95 44 64
        E 0 97 44 64
        E 0 9e 3f 64
        E 0 98 3c 63
        E 0 9d 2c 64
        E 0 80 44 64
        E 0 81 3f 64
        E 0 82 3c 63
        E 0 83 38 64
        E 0 85 44 64
        E 0 87 44 64
        E 0 8e 3f 64
        E 0 88 3c 63
        E 0 8d 2c 64
        E 0 90 44 64
        E 0 91 40 64
        E 0 92 3d 64
        E 0 93 31 64
        E 0 95 44 64
        E 0 97 44 64
        E 0 9e 40 64
        E 0 98 3d 64
        E 0 9d 31 64
        E 0 85 44 64
        E 0 87 44 64
        E 0 8e 40 64
        E 0 88 3d 64
        E 0 8d 31 64
        E 0 95 49 64
        E 0 97 49 64
        E 0 9e 49 64
        E 0 98 49 64
        E 0 9d 3d 64
        E 0 85 49 64
        E 0 87 49 64
        E 0 8e 49 64
        E 0 88 49 64
        E 0 8d 3d 64
        E 0 95 3d 64
        E 0 97 3d 64
        E 1 9e 3d 64
        E 0 98 3d 64
        E 0 9d 31 64
        E 0 85 3d 64
        E 0 87 3d 64
        E 0 8e 3d 64
        E 0 88 3d 64
        E 0 8d 31 64
        E 0 95 3d 64
        E 0 97 3d 64
        E 0 9e 3d 64
        E 0 98 3d 64
        E 0 9d 31 64
        E 0 85 3d 64
        E 0 87 3d 64
        E 0 8e 3d 64
        E 0 88 3d 64
        E 0 8d 31 64
        E 0 95 3d 64
        E 0 97 3d 64
        E 0 9e 3d 64
        E 0 98 3d 64
        E 0 9d 31 64
        E 0 85 3d 64
        E 0 87 3d 64
        E 0 8e 3d 64
        E 0 88 3d 64
        E 0 8d 31 64
        E 0 95 49 64
        E 0 97 49 64
        E 0 9e 49 64
        E 0 98 49 64
        E 0 9d 3d 64
        E 19203 85 49 64
        E 0 87 49 64
        E 0 8e 49 64
        E 0 88 49 64
        E 0 8d 3d 64
        E 0 95 3d 64
        E 0 97 3d 64
        E 0 9e 3d 64
        E 0 98 3d 64
        E 0 9d 31 64
        E 0 85 3d 64
        E 0 87 3d 64
        E 0 8e 3d 64
        E 0 88 3d 64
        E 0 8d 31 64
        E 0 95 3d 64
        E 0 97 3d 64
        E 0 9e 3d 64
        E 0 98 3d 64
        E 0 9d 31 64
        E 0 80 44 64
        E 0 81 40 64
        E 0 82 3d 64
        E 0 83 31 64
        E 0 85 3d 64
        E 0 87 3d 64
        E 0 8e 3d 64
        E 0 88 3d 64
        E 0 8d 31 64
        E 0 95 3d 64
        E 0 97 3d 64
        E 0 9e 3d 64
        E 0 98 3d 64
        E 0 9d 31 64
        E 0 85 3d 64
        E 1 87 3d 64
        E 0 8e 3d 64
        E 0 95 4c 64
        E 0 97 4c 64
        E 0 9e 49 64
        E 0 85 4c 64
        E 0 87 4c 64
        E 0 8e 49 64
        E 0 95 4e 64
        E 0 97 4e 64
        E 0 9e 4b 64
        E 0 85 4e 64
        E 0 87 4e 64
        E 0 8e 4b 64
        E 0 88 3d 64
        E 0 8d 31 64
        E 0 95 50 64
        E 0 97 50 64
        E 0 9e 4c 64
        E 0 85 50 64
        E 0 87 50 64
        E 0 8e 4c 64
        E 0 95 4e 64
        E 0 97 4e 64
        E 0 9e 4b 64
        E 0 85 4e 64
        E 0 87 4e 64
        E 0 8e 4b 64
        E 0 95 50 64
        E 0 97 50 64
        E 0 9e 4c 64
        E 0 85 50 64
        E 0 87 50 64
        E 0 8e 4c 64
        E 0 95 4e 64
        E 1 97 4e 64
        E 0 9e 4b 64
        E 0 85 4e 64
        E 0 87 4e 64
        E 0 8e 4b 64
        E 0 95 4c 64
        E 0 97 4c 64
        E 0 9e 49 64
        E 0 85 4c 64
        E 0 87 4c 64
        E 0 8e 49 64
        E 0 95 4c 64
        E 0 97 4c 64
        E 0 9e 49 64
        E 0 85 4c 64
        E 0 87 4c 64
        E 0 8e 49 64
        E 0 95 4e 64
        E 0 97 4e 64
        E 0 9e 4b 64
        E 0 85 4e 64
        E 0 87 4e 64
        E 0 8e 4b 64
        E 0 95 50 64
        E 0 97 50 64
        E 0 9e 4c 64
        E 0 85 50 64
        E 0 87 50 64
        E 0 8e 4c 64
        E 0 95 4e 64
        E 0 97 4e 64
        E 0 9e 4b 64
        E 0 85 4e 64
        E 0 87 4e 64
        E 0 8e 4b 64
        E 0 95 50 64
        E 0 97 50 64
        E 0 9e 4c 64
        E 0 85 50 64
        E 0 87 50 64
        E 0 8e 4c 64
        E 0 95 4e 64
        E 0 97 4e 64
        E 0 9e 4b 64
        E 0 85 4e 64
        E 0 87 4e 64
        E 0 8e 4b 64
        E 0 90 49 64
        E 0 91 42 64
        E 0 92 3d 64
        E 0 93 3a 64
        E 0 95 4c 64
        E 0 97 4c 64
        E 0 9e 49 64
        E 0 98 46 64
        E 1 9d 2e 64
        E 0 85 4c 64
        E 0 87 4c 64
        E 0 8e 49 64
        E 0 8d 2e 64
        E 0 95 4c 64
        E 0 97 4c 64
        E 0 9e 49 64
        E 0 9d 3a 64
        E 0 85 4c 64
        E 0 87 4c 64
        E 0 8e 49 64
        E 0 95 4e 64
        E 0 97 4e 64
        E 0 9e 4a 64
        E 0 80 49 64
        E 0 81 42 64
        E 0 82 3d 64
        E 0 83 3a 64
        E 0 85 4e 64
        E 0 87 4e 64
        E 0 8e 4a 64
        E 0 88 46 64
        E 0 8d 3a 64
        E 0 90 49 64
        E 0 91 42 64
        E 0 92 3d 64
        E 0 93 3a 64
        E 0 95 4f 64
        E 0 97 4f 64
        E 0 9e 4c 64
        E 0 9d 2e 64
        E 0 85 4f 64
        E 0 87 4f 64
        E 0 8e 4c 64
        E 0 95 4e 64
        E 0 97 4e 64
        E 0 9e 4a 64
        E 0 80 49 64
        E 0 81 42 64
        E 0 82 3d 64
        E 0 83 3a 64
        E 1 85 4e 64
        E 0 87 4e 64
        E 0 8e 4a 64
        E 0 8d 2e 64
        E 0 90 49 64
        E 0 91 42 64
        E 0 92 3d 64
        E 0 93 3a 64
        E 0 95 4f 64
        E 0 97 4f 64
        E 0 9e 4c 64
        E 0 9d 2e 64
        E 0 85 4f 64
        E 0 87 4f 64
        E 0 8e 4c 64
        E 0 95 4e 64
        E 0 97 4e 64
        E 0 9e 4a 64
        E 0 80 49 64
        E 0 81 42 64
        E 0 82 3d 64
        E 0 83 3a 64
        E 0 85 4e 64
        E 0 87 4e 64
        E 0 8e 4a 64
        E 0 8d 2e 64
        E 0 90 49 64
        E 0 91 42 64
        E 0 92 40 64
        E 0 93 3a 64
        E 0 95 4c 64
        E 0 97 4c 64
        E 0 9e 49 64
        E 0 98 42 64
        E 0 9d 2e 64
        E 0 8d 2e 64
        E 0 9d 3a 64
        E 0 80 49 64
        E 0 81 42 64
        E 0 82 40 64
        E 0 83 3a 64
        E 0 85 4c 64
        E 0 87 4c 64
        E 0 8e 49 64
        E 0 88 42 64
        E 0 8d 3a 64
        E 0 90 49 64
        E 0 91 42 64
        E 0 92 40 64
        E 0 93 3a 64
        E 0 9d 2e 64
        E 1 8d 2e 64
        E 0 9d 2e 64
        E 0 80 49 64
        E 0 81 42 64
        E 0 82 40 64
        E 0 83 3a 64
        E 0 8d 2e 64
        E 0 90 4a 64
        E 0 91 42 64
        E 0 92 3e 64
        E 0 93 3b 64
        E 1 95 47 64
        E 0 97 47 64
        E 0 9e 42 64
        E 0 98 3e 64
        E 0 9d 2f 64
        E 0 85 47 64
        E 0 87 47 64
        E 0 8e 42 64
        E 0 88 3e 64
        E 0 8d 2f 64
        E 0 95 4e 64
        E 0 97 4e 64
        E 0 9e 4a 64
        E 0 98 47 64
        E 0 9d 3b 64
        E 0 85 4e 64
        E 1 87 4e 64
        E 0 8e 4a 64
        E 0 88 47 64
        E 0 8d 3b 64
        E 0 95 47 64
        E 0 97 47 64
        E 0 9e 42 64
        E 0 98 3e 64
        E 0 9d 2f 64
        E 0 85 47 64
        E 0 87 47 64
        E 0 8e 42 64
        E 0 88 3e 64
        E 0 8d 2f 64
        E 0 95 47 64
        E 0 97 47 64
        E 1 9e 42 64
        E 0 98 3e 64
        E 0 9d 2f 64
        E 0 80 4a 64
        E 0 81 42 64
        E 0 82 3e 64
        E 0 83 3b 64
        E 0 85 47 64
        E 0 87 47 64
        E 0 8e 42 64
        E 0 88 3e 64
        E 0 8d 2f 64
        E 0 90 4a 64
        E 0 91 42 64
        E 0 92 3e 64
        E 0 93 3b 64
        E 0 95 47 64
        E 0 97 47 64
        E 0 9e 42 64
        E 0 98 3e 64
        E 0 9d 2f 64
        E 0 85 47 64
        E 0 87 47 64
        E 0 8e 42 64
        E 0 88 3e 64
        E 0 8d 2f 64
        E 0 95 4e 64
        E 0 97 4e 64
        E 0 9e 4a 64
        E 0 98 47 64
        E 0 9d 3b 64
        E 0 85 4e 64
        E 0 87 4e 64
        E 0 8e 4a 64
        E 0 88 47 64
        E 0 8d 3b 64
        E 0 95 47 64
        E 0 97 47 64
        E 0 9e 42 64
        E 0 98 3e 64
        E 1 9d 2f 64
        E 0 85 47 64
        E 0 87 47 64
        E 0 8e 42 64
        E 0 88 3e 64
        E 0 8d 2f 64
        E 0 95 47 64
        E 0 97 47 64
        E 0 9e 42 64
        E 0 98 3e 64
        E 0 9d 2f 64
        E 0 80 4a 64
        E 0 81 42 64
        E 0 82 3e 64
        E 0 83 3b 64
        E 0 85 47 64
        E 0 87 47 64
        E 0 8e 42 64
        E 0 88 3e 64
        E 0 8d 2f 64
        E 0 90 47 64
        E 0 91 40 64
        E 1 92 3e 64
        E 0 93 38 64
        E 0 95 47 64
        E 0 97 47 64
        E 0 9e 40 64
        E 0 98 3e 64
        E 0 9d 2c 64
        E 0 85 47 64
        E 0 87 47 64
        E 0 8e 40 64
        E 0 8d 2c 64
        E 0 95 4a 64
        E 0 97 4a 64
        E 0 9e 47 64
        E 0 9d 38 64
        E 0 85 4a 64
        E 0 87 4a 64
        E 0 8e 47 64
        E 0 95 4c 64
        E 0 97 4c 64
        E 0 9e 49 64
        E 0 80 47 64
        E 0 81 40 64
        E 0 82 3e 64
        E 0 83 38 64
        E 0 85 4c 64
        E 0 87 4c 64
        E 0 8e 49 64
        E 0 88 3e 64
        E 0 8d 38 64
        E 0 90 47 64
        E 0 91 40 64
        E 1 92 3e 64
        E 0 93 38 64
        E 0 95 4e 64
        E 0 97 4e 64
        E 0 9e 4a 64
        E 0 9d 2c 64
        E 0 85 4e 64
        E 0 87 4e 64
        E 0 8e 4a 64
        E 0 95 4c 64
        E 0 97 4c 64
        E 0 9e 49 64
        E 0 80 47 64
        E 0 81 40 64
        E 0 82 3e 64
        E 0 83 38 64
        E 0 85 4c 64
        E 0 87 4c 64
        E 0 8e 49 64
        E 0 8d 2c 64
        E 0 90 47 64
        E 0 91 40 64
        E 0 92 3e 64
        E 0 93 38 64
        E 0 95 4e 64
        E 1 97 4e 64
        E 0 9e 4a 64
        E 0 9d 2c 64
        E 0 85 4e 64
        E 0 87 4e 64
        E 0 8e 4a 64
        E 0 95 4c 64
        E 1 97 4c 64
        E 0 9e 49 64
        E 0 80 47 64
        E 0 81 40 64
        E 0 82 3e 64
        E 0 83 38 64
        E 0 85 4c 64
        E 0 87 4c 64
        E 0 8e 49 64
        E 0 8d 2c 64
        E 0 90 47 64
        E 0 91 40 64
        E 0 92 3e 64
        E 0 93 38 64
        E 0 95 4a 64
        E 1 97 4a 64
        E 0 9e 47 64
        E 0 98 3e 64
        E 0 9d 2c 64
        E 0 8d 2c 64
        E 0 9d 38 64
        E 0 80 47 64
        E 0 81 40 64
        E 0 82 3e 64
        E 0 83 38 64
        E 0 85 4a 64
        E 0 87 4a 64
        E 0 8e 47 64
        E 0 88 3e 64
        E 0 8d 38 64
        E 0 90 47 64
        E 1 91 40 64
        E 0 92 3e 64
        E 0 93 38 64
        E 0 9d 2c 64
        E 0 8d 2c 64
        E 0 9d 2c 64
        E 0 80 47 64
        E 0 81 40 64
        E 0 82 3e 64
        E 0 83 38 64
        E 0 8d 2c 64
        E 0 90 49 64
        E 0 91 40 64
        E 0 92 3d 64
        E 0 93 39 64
        E 0 95 45 64
        E 0 97 45 64
        E 1 9e 40 64
        E 0 98 3d 64
        E 0 9d 2d 64
        E 0 85 45 64
        E 0 87 45 64
        E 0 8e 40 64
        E 0 88 3d 64
        E 0 8d 2d 64
        E 0 95 4c 64
        E 0 97 4c 64
        E 0 9e 49 64
        E 0 98 45 64
        E 0 9d 39 64
        E 0 85 4c 64
        E 0 87 4c 64
        E 0 8e 49 64
        E 0 88 45 64
        E 0 8d 39 64
        E 0 95 45 64
        E 0 97 45 64
        E 0 9e 40 64
        E 0 98 3d 64
        E 0 9d 2d 64
        E 0 85 45 64
        E 0 87 45 64
        E 0 8e 40 64
        E 0 88 3d 64
        E 0 8d 2d 64
        E 1 95 45 64
        E 0 97 45 64
        E 0 9e 40 64
        E 0 98 3d 64
        E 0 9d 2d 64
        E 0 80 49 64
        E 0 81 40 64
        E 0 82 3d 64
        E 0 83 39 64
        E 0 85 45 64
        E 0 87 45 64
        E 0 8e 40 64
        E 0 88 3d 64
        E 0 8d 2d 64
        E 0 90 49 64
        E 0 91 45 64
        E 0 92 40 64
        E 0 93 39 64
        E 0 95 45 64
        E 0 97 45 64
        E 0 9e 40 64
        E 0 98 3d 64
        E 0 9d 2d 64
        E 0 85 45 64
        E 0 87 45 64
        E 0 8e 40 64
        E 0 88 3d 64
        E 0 8d 2d 64
        E 0 95 4c 64
        E 0 97 4c 64
        E 1 9e 49 64
        E 0 98 45 64
        E 0 9d 39 64
        E 0 85 4c 64
        E 0 87 4c 64
        E 0 8e 49 64
        E 0 88 45 64
        E 0 8d 39 64
        E 0 95 45 64
        E 0 97 45 64
        E 0 9e 40 64
        E 0 98 3d 64
        E 1 9d 2d 64
        E 0 85 45 64
        E 0 87 45 64
        E 0 8e 40 64
        E 0 88 3d 64
        E 0 8d 2d 64
        E 0 95 45 64
        E 0 97 45 64
        E 0 9e 40 64
        E 0 98 3d 64
        E 1 9d 2d 64
        E 0 80 49 64
        E 0 81 45 64
        E 0 82 40 64
        E 0 83 39 64
        E 0 85 45 64
        E 0 87 45 64
        E 0 8e 40 64
        E 0 88 3d 64
        E 0 8d 2d 64
        E 0 90 49 64
        E 0 91 45 64
        E 0 92 42 64
        E 0 93 33 64
        E 1 95 45 64
        E 0 97 45 64
        E 0 9e 42 64
        E 0 98 3f 64
        E 0 9d 33 64
        E 0 85 45 64
        E 1 87 45 64
        E 0 8e 42 64
        E 0 88 3f 64
        E 0 8d 33 64
        E 0 95 4e 64
        E 0 97 4e 64
        E 0 9e 4b 64
        E 0 98 45 64
        E 0 9d 3f 64
        E 0 85 4e 64
        E 0 87 4e 64
        E 0 8e 4b 64
        E 0 88 45 64
        E 0 8d 3f 64
        E 0 95 45 64
        E 0 97 45 64
        E 0 9e 42 64
        E 0 98 3f 64
        E 0 9d 33 64
        E 0 85 45 64
        E 0 87 45 64
        E 0 8e 42 64
        E 0 88 3f 64
        E 0 8d 33 64
        E 0 95 45 64
        E 0 97 45 64
        E 1 9e 42 64
        E 0 98 3f 64
        E 0 9d 33 64
        E 0 85 45 64
        E 0 87 45 64
        E 0 8e 42 64
        E 0 88 3f 64
        E 0 8d 33 64
        E 0 95 45 64
        E 0 97 45 64
        E 0 9e 42 64
        E 0 98 3f 64
        E 0 9d 33 64
        E 15003 85 45 64
        E 0 87 45 64
        E 0 8e 42 64
        E 0 88 3f 64
        E 0 8d 33 64
        E 0 95 4e 64
        E 0 97 4e 64
        E 1 9e 4b 64
        E 0 98 45 64
        E 0 9d 3f 64
        E 0 85 4e 64
        E 0 87 4e 64
        E 0 8e 4b 64
        E 0 88 45 64
        E 0 8d 3f 64
        E 0 95 45 64
        E 0 97 45 64
        E 0 9e 42 64
        E 0 98 3f 64
        E 0 9d 33 64
        E 0 85 45 64
        E 0 87 45 64
        E 0 8e 42 64
        E 1 88 3f 64
        E 0 8d 33 64
        E 0 95 45 64
        E 0 97 45 64
        E 0 9e 42 64
        E 0 98 3f 64
        E 0 9d 33 64
        E 0 80 49 64
        E 0 81 45 64
        E 0 82 42 64
        E 0 83 33 64
        E 0 85 45 64
        E 0 87 45 64
        E 0 8e 42 64
        E 0 88 3f 64
        E 0 8d 33 64
        E 0 90 47 64
        E 0 91 44 64
        E 0 92 3b 64
        E 0 93 34 64
        E 0 95 44 64
        E 0 97 44 64
        E 0 9e 40 64
        E 0 98 3b 64
        E 1 9d 34 64
        E 0 85 44 64
        E 0 87 44 64
        E 0 8e 40 64
        E 0 88 3b 64
        E 0 8d 34 64
        E 0 95 4c 64
        E 0 97 4c 64
        E 0 9e 4c 64
        E 0 98 4c 64
        E 0 9d 40 64
        E 0 85 4c 64
        E 0 87 4c 64
        E 0 8e 4c 64
        E 0 88 4c 64
        E 0 8d 40 64
        E 0 95 40 64
        E 0 97 40 64
        E 0 9e 40 64
        E 0 98 40 64
        E 0 9d 34 64
        E 0 85 40 64
        E 0 87 40 64
        E 0 8e 40 64
        E 0 88 40 64
        E 0 8d 34 64
        E 1 95 40 64
        E 0 97 40 64
        E 0 9e 40 64
        E 0 98 40 64
        E 0 9d 34 64
        E 0 80 47 64
        E 0 81 44 64
        E 0 82 3b 64
        E 0 83 34 64
        E 0 85 40 64
        E 0 87 40 64
        E 0 8e 40 64
        E 0 88 40 64
        E 1 8d 34 64
        E 0 95 40 64
        E 0 97 40 64
        E 0 9e 40 64
        E 0 98 40 64
        E 0 9d 34 64
        E 0 85 40 64
        E 0 87 40 64
        E 0 8e 40 64
        E 0 88 40 64
        E 0 8d 34 64
        E 0 95 4c 64
        E 0 97 4c 64
        E 0 9e 4c 64
        E 0 98 4c 64
        E 0 9d 40 64
        E 0 85 4c 64
        E 0 87 4c 64
        E 0 8e 4c 64
        E 0 88 4c 64
        E 0 8d 40 64
        E 0 95 40 64
        E 0 97 40 64
        E 1 9e 40 64
        E 0 98 40 64
        E 0 9d 34 64
        E 0 85 40 64
        E 0 87 40 64
        E 0 8e 40 64
        E 0 88 40 64
        E 0 8d 34 64
        E 0 95 40 64
        E 0 97 40 64
        E 1 9e 40 64
        E 0 98 40 64
        E 0 9d 34 64
        E 0 85 40 64
        E 0 87 40 64
        E 0 8e 40 64
        E 0 88 40 64
        E 0 8d 34 64
        E 0 90 4a 64
        E 0 91 44 64
        E 0 92 3b 64
        E 0 93 34 64
        E 0 95 40 64
        E 0 97 40 64
        E 0 9e 40 64
        E 0 98 40 64
        E 0 9d 34 64
        E 0 85 40 64
        E 0 87 40 64
        E 0 8e 40 64
        E 0 8d 34 64
        E 0 95 50 64
        E 0 97 50 64
        E 0 9e 4c 64
        E 0 9d 40 64
        E 0 85 50 64
        E 0 87 50 64
        E 0 8e 4c 64
        E 0 95 51 64
        E 0 97 51 64
        E 0 9e 4e 64
        E 0 80 4a 64
        E 0 81 44 64
        E 0 82 3b 64
        E 0 83 34 64
        E 0 85 51 64
        E 0 87 51 64
        E 0 8e 4e 64
        E 0 88 40 64
        E 0 8d 40 64
        E 0 90 4a 64
        E 1 91 44 64
        E 0 92 3b 64
        E 0 93 34 64
        E 0 95 53 64
        E 0 97 53 64
        E 0 9e 50 64
        E 0 9d 34 64
        E 0 85 53 64
        E 0 87 53 64
        E 0 8e 50 64
        E 0 95 51 64
        E 0 97 51 64
        E 0 9e 4e 64
        E 0 80 4a 64
        E 0 81 44 64
        E 0 82 3b 64
        E 0 83 34 64
        E 0 85 51 64
        E 0 87 51 64
        E 0 8e 4e 64
        E 0 8d 34 64
        E 0 90 4a 64
        E 0 91 44 64
        E 0 92 3b 64
        E 0 93 34 64
        E 0 95 53 64
        E 0 97 53 64
        E 0 9e 50 64
        E 0 9d 34 64
        E 1 85 53 64
        E 0 87 53 64
        E 0 8e 50 64
        E 0 95 51 64
        E 0 97 51 64
        E 0 9e 4e 64
        E 0 80 4a 64
        E 0 81 44 64
        E 0 82 3b 64
        E 0 83 34 64
        E 0 85 51 64
        E 0 87 51 64
        E 0 8e 4e 64
        E 0 8d 34 64
        E 0 90 4a 64
        E 0 91 44 64
        E 0 92 3b 64
        E 0 93 34 64
        E 0 95 50 64
        E 0 97 50 64
        E 0 9e 4c 64
        E 0 98 47 64
        E 0 9d 34 64
        E 0 8d 34 64
        E 0 9d 40 64
        E 0 80 4a 64
        E 0 81 44 64
        E 0 82 3b 64
        E 0 83 34 64
        E 0 85 50 64
        E 0 87 50 64
        E 0 8e 4c 64
        E 0 88 47 64
        E 0 8d 40 64
        E 0 90 4a 64
        E 0 91 44 64
        E 1 92 40 64
        E 0 93 34 64
        E 0 9d 34 64
        E 0 8d 34 64
        E 0 9d 34 64
        E 0 80 4a 64
        E 0 81 44 64
        E 0 82 40 64
        E 0 83 34 64
        E 0 8d 34 64
        E 0 90 49 64
        E 0 91 43 64
        E 0 92 40 64
        E 0 93 2d 64
        E 0 94 4c 64
        E 0 95 49 64
        E 0 97 4c 64
        E 0 9e 49 64
        E 0 98 45 64
        E 0 9d 2d 64
        E 0 84 4c 64
        E 0 85 49 64
        E 0 87 4c 64
        E 0 8e 49 64
        E 0 88 45 64
        E 0 8d 2d 64
        E 0 94 51 64
        E 0 95 4c 64
        E 0 97 51 64
        E 0 9e 4c 64
        E 0 98 49 64
        E 0 9d 39 64
        E 0 82 40 64
        E 0 84 51 64
        E 0 85 4c 64
        E 0 87 51 64
        E 0 8e 4c 64
        E 0 88 49 64
        E 0 8d 39 64
        E 0 92 3d 64
        E 1 94 4c 64
        E 0 95 49 64
        E 0 97 4c 64
        E 0 9e 49 64
        E 0 98 45 64
        E 0 9d 2d 64
        E 0 84 4c 64
        E 0 85 49 64
        E 0 87 4c 64
        E 0 8e 49 64
        E 0 88 45 64
        E 0 8d 2d 64
        E 0 94 4c 64
        E 0 95 49 64
        E 0 97 4c 64
        E 0 9e 49 64
        E 0 98 45 64
        E 5 9d 2d 64
        E 0 80 49 64
        E 0 81 43 64
        E 0 82 3d 64
        E 0 83 2d 64
        E 0 84 4c 64
        E 0 85 49 64
        E 0 87 4c 64
        E 0 8e 49 64
        E 0 88 45 64
        E 0 8d 2d 64
        E 0 90 4a 64
        E 0 91 42 64
        E 0 92 39 64
        E 0 93 32 64
        E 0 94 4e 64
        E 0 95 4a 64
        E 0 97 4e 64
        E 0 9e 4a 64
        E 0 98 45 64
        E 0 9d 32 64
        E 0 84 4e 64
        E 0 85 4a 64
        E 0 87 4e 64
        E 0 8e 4a 64
        E 0 88 45 64
        E 0 8d 32 64
        E 1 94 51 64
        E 0 95 4e 64
        E 1 97 51 64
        E 4 9e 4e 64
        E 0 98 4a 64
        E 0 9d 3e 64
        E 0 84 51 64
        E 0 85 4e 64
        E 2 87 51 64
        E 0 8e 4e 64
        E 0 88 4a 64
        E 0 8d 3e 64
        E 0 94 4e 64
        E 0 95 4a 64
        E 0 97 4e 64
        E 1 9e 4a 64
        E 0 98 45 64
        E 0 9d 32 64
        E 0 84 4e 64
        E 0 85 4a 64
        E 1 87 4e 64
        E 0 8e 4a 64
        E 0 88 45 64
        E 0 8d 32 64
        E 0 94 4e 64
        E 0 95 4a 64
        E 0 97 4e 64
        E 0 9e 4a 64
        E 0 98 45 64
        E 0 9d 32 64
        E 0 80 4a 64
        E 0 81 42 64
        E 0 82 39 64
        E 0 83 32 64
        E 0 84 4e 64
        E 0 85 4a 64
        E 0 87 4e 64
        E 0 8e 4a 64
        E 0 88 45 64
        E 0 8d 32 64
        E 0 90 4a 64
        E 0 91 40 64
        E 0 92 39 64
        E 0 93 39 64
        E 0 94 4c 64
        E 0 95 4a 64
        E 0 97 4c 64
        E 0 9e 4a 64
        E 1 98 45 64
        E 0 9d 2d 64
        E 0 84 4c 64
        E 0 85 4a 64
        E 0 87 4c 64
        E 0 8e 4a 64
        E 0 88 45 64
        E 0 8d 2d 64
        E 0 94 51 64
        E 0 95 4c 64
        E 0 97 51 64
        E 0 9e 4c 64
        E 0 98 4a 64
        E 0 9d 39 64
        E 0 84 51 64
        E 0 85 4c 64
        E 0 87 51 64
        E 6 8e 4c 64
        E 0 88 4a 64
        E 0 8d 39 64
        E 0 94 4c 64
        E 0 95 4a 64
        E 0 97 4c 64
        E 1 9e 4a 64
        E 0 98 45 64
        E 0 9d 2d 64
        E 0 84 4c 64
        E 0 85 4a 64
        E 0 87 4c 64
        E 0 8e 4a 64
        E 0 88 45 64
        E 0 8d 2d 64
        E 0 94 4c 64
        E 0 95 4a 64
        E 0 97 4c 64
        E 0 9e 4a 64
        E 0 98 45 64
        E 0 9d 2d 64
        E 0 80 4a 64
        E 1 83 39 64
        E 0 84 4c 64
        E 0 85 4a 64
        E 0 87 4c 64
        E 0 8e 4a 64
        E 0 88 45 64
        E 0 8d 2d 64
        E 0 90 49 64
        E 0 93 2d 64
        E 0 94 4c 64
        E 0 95 49 64
        E 0 97 4c 64
        E 0 9e 49 64
        E 0 98 45 64
        E 0 9d 2d 64
        E 1 84 4c 64
        E 0 85 49 64
        E 0 87 4c 64
        E 0 8e 49 64
        E 0 88 45 64
        E 0 8d 2d 64
        E 0 94 51 64
        E 0 95 4c 64
        E 0 97 51 64
        E 0 9e 4c 64
        E 0 98 49 64
        E 0 9d 39 64
        E 0 84 51 64
        E 0 85 4c 64
        E 0 87 51 64
        E 0 8e 4c 64
        E 0 88 49 64
        E 0 8d 39 64
        E 0 94 4c 64
        E 0 95 49 64
        E 0 97 4c 64
        E 0 9e 49 64
        E 0 98 45 64
        E 0 9d 2d 64
        E 0 84 4c 64
        E 0 85 49 64
        E 0 87 4c 64
        E 0 8e 49 64
        E 0 88 45 64
        E 0 8d 2d 64
        E 0 94 4c 64
        E 0 95 49 64
        E 0 97 4c 64
        E 2 9e 49 64
        E 0 98 45 64
        E 0 9d 2d 64
        E 0 80 49 64
        E 0 81 40 64
        E 0 82 39 64
        E 0 83 2d 64
        E 0 84 4c 64
        E 0 85 49 64
        E 0 87 4c 64
        E 0 8e 49 64
        E 0 88 45 64
        E 0 8d 2d 64
        E 0 90 4a 64
        E 0 91 42 64
        E 0 92 39 64
        E 0 93 32 64
        E 0 94 4e 64
        E 0 95 4a 64
        E 0 97 4e 64
        E 0 9e 4a 64
        E 0 98 45 64
        E 0 9d 32 64
        E 1 84 4e 64
        E 0 85 4a 64
        E 0 87 4e 64
        E 0 8e 4a 64
        E 0 88 45 64
        E 0 8d 32 64
        E 0 94 4a 64
        E 0 95 4a 64
        E 0 97 4a 64
        E 0 9e 4a 64
        E 0 98 4a 64
        E 0 9d 3e 64
        E 371 84 4a 64
        E 0 85 4a 64
        E 0 87 4a 64
        E 0 8e 4a 64
        E 0 88 4a 64
        E 0 8d 3e 64
        E 0 94 3e 64
        E 0 95 3e 64
        E 0 97 3e 64
        E 0 9e 3e 64
        E 0 98 3e 64
        E 0 9d 32 64
        E 409 84 3e 64
        E 0 85 3e 64
        E 0 87 3e 64
        E 0 8e 3e 64
        E 0 88 3e 64
        E 0 8d 32 64
        E 0 94 3e 64
        E 0 95 3e 64
        E 0 97 3e 64
        E 0 9e 3e 64
        E 0 98 3e 64
        E 0 9d 32 64
        E 407 80 4a 64
        E 0 81 42 64
        E 0 82 39 64
        E 0 83 32 64
        E 0 84 3e 64
        E 0 85 3e 64
        E 0 87 3e 64
        E 0 8e 3e 64
        E 0 88 3e 64
        E 0 8d 32 64
        E 0 94 3e 64
        E 0 95 3e 64
        E 1 97 3e 64
        E 0 9e 3e 64
        E 0 98 3e 64
        E 0 9d 32 64
        E 409 84 3e 64
        E 0 85 3e 64
        E 0 87 3e 64
        E 0 8e 3e 64
        E 0 88 3e 64
        E 0 8d 32 64
        E 0 94 4a 64
        E 0 95 4a 64
        E 0 97 4a 64
        E 0 9e 4a 64
        E 0 98 4a 64
        E 0 9d 3e 64
        E 407 84 4a 64
        E 0 85 4a 64
        E 0 87 4a 64
        E 0 8e 4a 64
        E 0 88 4a 64
        E 0 8d 3e 64
        E 0 94 3e 64
        E 0 95 3e 64
        E 0 97 3e 64
        E 0 9e 3e 64
        E 0 98 3e 64
        E 0 9d 32 64
        E 409 84 3e 64
        E 0 85 3e 64
        E 0 87 3e 64
        E 0 8e 3e 64
        E 0 88 3e 64
        E 0 8d 32 64
        E 0 94 3e 64
        E 0 95 3e 64
        E 0 97 3e 64
        E 0 9e 3e 64
        E 0 98 3e 64
        E 0 9d 32 64
        E 409 84 3e 64
        E 0 85 3e 64
        E 0 87 3e 64
        E 0 8e 3e 64
        E 0 88 3e 64
        E 0 8d 32 64
        E 0 94 3e 64
        E 0 95 3e 64
        E 0 97 3e 64
        E 0 9e 3e 64
        E 0 98 3e 64
        E 0 9d 32 64
        E 410 85 3e 64
        E 0 87 3e 64
        E 0 8e 3e 64
        E 0 88 3e 64
        E 0 8d 32 64
        E 0 95 42 64
        E 0 97 42 64
        E 0 9e 42 64
        E 0 98 3e 64
        E 0 9d 32 64
        E 202 85 42 64
        E 0 87 42 64
        E 0 8e 42 64
        E 0 88 3e 64
        E 0 8d 32 64
        E 0 95 43 64
        E 1 97 43 64
        E 0 9e 43 64
        E 0 98 40 64
        E 0 9d 34 64
        E 204 84 3e 64
        E 0 85 43 64
        E 0 87 43 64
        E 0 8e 43 64
        E 0 88 40 64
        E 0 8d 34 64
        E 0 95 45 64
        E 0 97 45 64
        E 0 9e 45 64
        E 0 98 42 64
        E 1 9d 36 64
        E 407 85 45 64
        E 0 87 45 64
        E 0 8e 45 64
        E 0 88 42 64
        E 0 8d 36 64
        E 0 95 43 64
        E 0 97 43 64
        E 0 9e 43 64
        E 0 98 40 64
        E 0 9d 34 64
        E 409 85 43 64
        E 1 87 43 64
        E 0 8e 43 64
        E 0 88 40 64
        E 0 8d 34 64
        E 0 95 42 64
        E 0 97 42 64
        E 0 9e 42 64
        E 0 98 3e 64
        E 0 9d 32 64
        E 408 85 42 64
        E 0 87 42 64
        E 0 8e 42 64
        E 0 88 3e 64
        E 0 8d 32 64
        E 0 95 42 64
        E 0 97 42 64
        E 0 9e 42 64
        E 0 98 3e 64
        E 0 9d 32 64
        E 203 85 42 64
        E 0 87 42 64
        E 0 8e 42 64
        E 0 88 3e 64
        E 0 8d 32 64
        E 0 95 43 64
        E 0 97 43 64
        E 0 9e 43 64
        E 0 98 40 64
        E 0 9d 34 64
        E 205 85 43 64
        E 0 87 43 64
        E 0 8e 43 64
        E 0 88 40 64
        E 0 8d 34 64
        E 0 95 45 64
        E 1 97 45 64
        E 0 9e 45 64
        E 0 98 42 64
        E 0 9d 36 64
        E 407 85 45 64
        E 0 87 45 64
        E 0 8e 45 64
        E 0 88 42 64
        E 0 8d 36 64
        E 0 95 43 64
        E 0 97 43 64
        E 0 9e 43 64
        E 0 98 40 64
        E 0 9d 34 64
        E 409 85 43 64
        E 0 87 43 64
        E 0 8e 43 64
        E 0 88 40 64
        E 0 8d 34 64
        E 0 94 3e 64
        E 0 95 42 64
        E 1 97 42 64
        E 0 9e 42 64
        E 0 98 3e 64
        E 0 9d 32 64
        E 411 84 3e 64
        E 0 85 42 64
        E 0 87 42 64
        E 0 8e 42 64
        E 0 88 3e 64
        E 0 8d 32 64
        E 0 94 4a 64
        E 0 95 4a 64
        E 0 97 4a 64
        E 0 9e 4a 64
        E 0 98 4a 64
        E 0 9d 3e 64
        E 404 84 4a 64
        E 0 85 4a 64
        E 0 87 4a 64
        E 0 8e 4a 64
        E 0 88 4a 64
        E 0 8d 3e 64
        E 0 94 3e 64
        E 0 95 3e 64
        E 0 97 3e 64
        E 0 9e 3e 64
        E 0 98 3e 64
        E 0 9d 32 64
        E 410 84 3e 64
        E 0 85 3e 64
        E 0 87 3e 64
        E 0 8e 3e 64
        E 0 88 3e 64
        E 0 8d 32 64
        E 0 94 3e 64
        E 0 95 3e 64
        E 0 97 3e 64
        E 0 9e 3e 64
        E 1 98 3e 64
        E 0 9d 32 64
        E 406 84 3e 64
        E 0 85 3e 64
        E 0 87 3e 64
        E 0 8e 3e 64
        E 0 88 3e 64
        E 0 8d 32 64
        E 0 94 3e 64
        E 0 95 3e 64
        E 0 97 3e 64
        E 0 9e 3e 64
        E 0 98 3e 64
        E 0 9d 32 64
        E 410 84 3e 64
        E 1 85 3e 64
        E 0 87 3e 64
        E 0 8e 3e 64
        E 0 88 3e 64
        E 0 8d 32 64
        E 0 94 4a 64
        E 0 95 4a 64
        E 0 97 4a 64
        E 0 9e 4a 64
        E 0 98 4a 64
        E 0 9d 3e 64
        E 407 84 4a 64
        E 0 85 4a 64
        E 0 87 4a 64
        E 0 8e 4a 64
        E 0 88 4a 64
        E 0 8d 3e 64
        E 0 94 3e 64
        E 0 95 3e 64
        E 0 97 3e 64
        E 0 9e 3e 64
        E 0 98 3e 64
        E 0 9d 32 64
        E 408 84 3e 64
        E 0 85 3e 64
        E 0 87 3e 64
        E 0 8e 3e 64
        E 0 88 3e 64
        E 0 8d 32 64
        E 0 94 3e 64
        E 0 95 3e 64
        E 0 97 3e 64
        E 0 9e 3e 64
        E 0 98 3e 64
        E 0 9d 32 64
        E 408 84 3e 64
        E 0 85 3e 64
        E 0 87 3e 64
        E 0 8e 3e 64
        E 0 88 3e 64
        E 0 8d 32 64
        E 1 90 45 64
        E 0 92 3e 64
        E 0 94 3e 64
        E 0 95 3e 64
        E 0 97 4a 64
        E 0 9e 3e 64
        E 0 98 3e 64
        E 0 9d 32 64
        E 409 87 4a 64
        E 0 8e 3e 64
        E 0 88 3e 64
        E 0 8d 32 64
        E 0 97 4e 64
        E 0 9e 4a 64
        E 0 98 45 64
        E 0 9d 3e 64
        E 203 87 4e 64
        E 0 8e 4a 64
        E 0 97 4f 64
        E 0 9e 4c 64
        E 207 80 45 64
        E 0 84 3e 64
        E 0 85 3e 64
        E 0 87 4f 64
        E 0 8e 4c 64
        E 0 88 45 64
        E 0 8d 3e 64
        E 0 90 45 64
        E 0 97 51 64
        E 0 9e 4e 64
        E 0 98 45 64
        E 0 9d 32 64
        E 201 87 51 64
        E 0 8e 4e 64
        E 0 97 4f 64
        E 1 9e 4c 64
        E 203 87 4f 64
        E 1 8e 4c 64
        E 0 88 45 64
        E 0 8d 32 64
        E 0 94 51 64
        E 0 95 4e 64
        E 0 97 51 64
        E 0 9e 4e 64
        E 0 98 45 64
        E 0 9d 32 64
        E 206 87 51 64
        E 1 8e 4e 64
        E 0 97 4e 64
        E 5 9e 4a 64
        E 198 80 45 64
        E 0 82 3e 64
        E 0 84 51 64
        E 0 85 4e 64
        E 1 87 4e 64
        E 0 8e 4a 64
        E 0 88 45 64
        E 0 8d 32 64
        E 0 90 47 64
        E 0 91 42 64
        E 0 92 3e 64
        E 0 93 32 64
        E 0 94 53 64
        E 0 95 4e 64
        E 0 97 53 64
        E 0 9e 4e 64
        E 0 98 42 64
        E 0 9d 32 64
        E 204 87 53 64
        E 0 8e 4e 64
        E 0 97 4e 64
        E 0 9e 4a 64
        E 203 84 53 64
        E 0 85 4e 64
        E 0 87 4e 64
        E 0 8e 4a 64
        E 0 88 42 64
        E 0 8d 32 64
        E 1 94 53 64
        E 0 95 4e 64
        E 0 97 53 64
        E 0 9e 4e 64
        E 0 98 42 64
        E 0 9d 3e 64
        E 202 87 53 64
        E 0 8e 4e 64
        E 1 97 4e 64
        E 0 9e 4a 64
        E 205 81 42 64
        E 0 83 32 64
        E 0 84 53 64
        E 0 85 4e 64
        E 0 87 4e 64
        E 0 8e 4a 64
        E 0 88 42 64
        E 0 8d 3e 64
        E 0 91 42 64
        E 0 93 32 64
        E 0 94 53 64
        E 0 95 4e 64
        E 0 97 53 64
        E 0 9e 4e 64
        E 0 98 42 64
        E 0 9d 32 64
        E 203 87 53 64
        E 0 8e 4e 64
        E 0 97 4e 64
        E 0 9e 4a 64
        E 203 84 53 64
        E 0 85 4e 64
        E 1 87 4e 64
        E 0 8e 4a 64
        E 0 88 42 64
        E 0 8d 32 64
        E 0 94 53 64
        E 0 95 4e 64
        E 0 97 53 64
        E 0 9e 4e 64
        E 0 98 42 64
        E 0 9d 32 64
        E 204 87 53 64
        E 1 8e 4e 64
        E 0 97 4e 64
        E 0 9e 4a 64
        E 203 80 47 64
        E 0 81 42 64
        E 0 82 3e 64
        E 0 83 32 64
        E 0 84 53 64
        E 0 85 4e 64
        E 0 87 4e 64
        E 0 8e 4a 64
        E 0 88 42 64
        E 0 8d 32 64
        E 0 90 47 64
        E 0 91 43 64
        E 0 92 40 64
        E 0 93 31 64
        E 0 94 53 64
        E 0 95 4f 64
        E 1 97 53 64
        E 0 9e 4f 64
        E 0 98 40 64
        E 0 9d 31 64
        E 211 87 53 64
        E 0 8e 4f 64
        E 0 97 4f 64
        E 0 9e 4c 64
        E 198 84 53 64
        E 0 85 4f 64
        E 0 87 4f 64
        E 0 8e 4c 64
        E 0 88 40 64
        E 0 8d 31 64
        E 1 94 53 64
        E 0 95 4f 64
        E 0 97 53 64
        E 0 9e 4f 64
        E 0 98 40 64
        E 0 9d 3d 64
        E 203 87 53 64
        E 0 8e 4f 64
        E 0 97 4f 64
        E 0 9e 4c 64
        E 209 84 53 64
        E 0 85 4f 64
        E 0 87 4f 64
        E 0 8e 4c 64
        E 0 88 40 64
        E 0 8d 3d 64
        E 0 94 53 64
        E 0 95 4f 64
        E 0 97 53 64
        E 0 9e 4f 64
        E 0 98 40 64
        E 0 9d 31 64
        E 199 87 53 64
        E 0 8e 4f 64
        E 0 97 4f 64
        E 0 9e 4c 64
        E 204 84 53 64
        E 0 85 4f 64
        E 0 87 4f 64
        E 0 8e 4c 64
        E 0 88 40 64
        E 0 8d 31 64
        E 0 94 53 64
        E 0 95 4f 64
        E 0 97 53 64
        E 0 9e 4f 64
        E 0 98 40 64
        E 0 9d 31 64
        E 205 87 53 64
        E 0 8e 4f 64
        E 0 97 4f 64
        E 0 9e 4c 64
        E 203 80 47 64
        E 0 81 43 64
        E 0 84 53 64
        E 0 85 4f 64
        E 0 87 4f 64
        E 0 8e 4c 64
        E 0 88 40 64
        E 0 8d 31 64
        E 0 90 45 64
        E 0 91 40 64
        E 1 94 51 64
        E 0 95 4c 64
        E 0 97 51 64
        E 0 9e 4c 64
        E 0 98 45 64
        E 0 9d 31 64
        E 206 87 51 64
        E 0 8e 4c 64
        E 0 97 4c 64
        E 0 9e 49 64
        E 202 84 51 64
        E 0 85 4c 64
        E 0 87 4c 64
        E 0 8e 49 64
        E 0 88 45 64
        E 0 8d 31 64
        E 1 94 51 64
        E 0 95 4c 64
        E 0 97 51 64
        E 0 9e 4c 64
        E 0 98 45 64
        E 1 9d 3d 64
        E 202 87 51 64
        E 0 8e 4c 64
        E 0 97 4c 64
        E 0 9e 49 64
        E 205 84 51 64
        E 0 85 4c 64
        E 0 87 4c 64
        E 0 8e 49 64
        E 0 88 45 64
        E 0 8d 3d 64
        E 0 94 51 64
        E 0 95 4c 64
        E 0 97 51 64
        E 0 9e 4c 64
        E 0 98 45 64
        E 0 9d 31 64
        E 204 87 51 64
        E 0 8e 4c 64
        E 1 97 4c 64
        E 0 9e 49 64
        E 205 84 51 64
        E 0 85 4c 64
        E 0 87 4c 64
        E 1 8e 49 64
        E 0 88 45 64
        E 0 8d 31 64
        E 0 94 51 64
        E 0 95 4c 64
        E 0 97 51 64
        E 0 9e 4c 64
        E 0 98 45 64
        E 0 9d 31 64
        E 202 87 51 64
        E 0 8e 4c 64
        E 0 97 4c 64
        E 0 9e 49 64
        E 203 80 45 64
        E 0 81 40 64
        E 0 82 40 64
        E 0 83 31 64
        E 0 84 51 64
        E 0 85 4c 64
        E 0 87 4c 64
        E 0 8e 49 64
        E 0 88 45 64
        E 0 8d 31 64
        E 0 90 45 64
        E 0 91 42 64
        E 0 92 3e 64
        E 0 93 2f 64
        E 0 94 51 64
        E 0 95 4e 64
        E 0 97 51 64
        E 1 9e 4e 64
        E 0 98 3e 64
        E 0 9d 2f 64
        E 205 87 51 64
        E 0 8e 4e 64
        E 0 97 4e 64
        E 0 9e 4a 64
        E 205 84 51 64
        E 0 85 4e 64
        E 0 87 4e 64
        E 0 8e 4a 64
        E 0 88 3e 64
        E 0 8d 2f 64
        E 0 94 51 64
        E 0 95 4e 64
        E 0 97 51 64
        E 0 9e 4e 64
        E 0 98 3e 64
        E 0 9d 3b 64
        E 202 87 51 64
        E 0 8e 4e 64
        E 0 97 4e 64
        E 0 9e 4a 64
        E 205 84 51 64
        E 0 85 4e 64
        E 0 87 4e 64
        E 0 8e 4a 64
        E 0 88 3e 64
        E 0 8d 3b 64
        E 0 94 51 64
        E 0 95 4e 64
        E 0 97 51 64
        E 0 9e 4e 64
        E 0 98 3e 64
        E 0 9d 2f 64
        E 205 87 51 64
        E 0 8e 4e 64
        E 0 97 4e 64
        E 0 9e 4a 64
        E 204 84 51 64
        E 0 85 4e 64
        E 1 87 4e 64
        E 0 8e 4a 64
        E 0 88 3e 64
        E 0 8d 2f 64
        E 0 94 51 64
        E 0 95 4e 64
        E 0 97 51 64
        E 0 9e 4e 64
        E 0 98 3e 64
        E 0 9d 2f 64
        E 202 87 51 64
        E 1 8e 4e 64
        E 0 97 4e 64
        E 0 9e 4a 64
        E 205 80 45 64
        E 0 81 42 64
        E 0 84 51 64
        E 0 85 4e 64
        E 0 87 4e 64
        E 0 8e 4a 64
        E 0 88 3e 64
        E 0 8d 2f 64
        E 0 90 43 64
        E 0 91 3e 64
        E 0 94 4f 64
        E 0 95 4a 64
        E 0 97 4f 64
        E 0 9e 4a 64
        E 0 98 43 64
        E 0 9d 2f 64
        E 204 87 4f 64
        E 0 8e 4a 64
        E 0 97 4a 64
        E 0 9e 47 64
        E 204 84 4f 64
        E 0 85 4a 64
        E 0 87 4a 64
        E 0 8e 47 64
        E 0 88 43 64
        E 0 8d 2f 64
        E 0 94 4f 64
        E 0 95 4a 64
        E 0 97 4f 64
        E 0 9e 4a 64
        E 0 98 43 64
        E 0 9d 3b 64
        E 205 87 4f 64
        E 0 8e 4a 64
        E 0 97 4a 64
        E 0 9e 47 64
        E 203 84 4f 64
        E 0 85 4a 64
        E 0 87 4a 64
        E 0 8e 47 64
        E 0 88 43 64
        E 0 8d 3b 64
        E 0 94 4f 64
        E 0 95 4a 64
        E 0 97 4f 64
        E 0 9e 4a 64
        E 0 98 43 64
        E 0 9d 2f 64
        E 205 87 4f 64
        E 0 8e 4a 64
        E 0 97 4a 64
        E 0 9e 47 64
        E 204 84 4f 64
        E 0 85 4a 64
        E 0 87 4a 64
        E 0 8e 47 64
        E 0 88 43 64
        E 0 8d 2f 64
        E 0 94 4f 64
        E 0 95 4a 64
        E 0 97 4f 64
        E 0 9e 4a 64
        E 0 98 43 64
        E 0 9d 2f 64
        E 204 87 4f 64
        E 0 8e 4a 64
        E 0 97 4a 64
        E 0 9e 47 64
        E 203 80 43 64
        E 0 81 3e 64
        E 0 82 3e 64
        E 0 83 2f 64
        E 0 84 4f 64
        E 0 85 4a 64
        E 0 87 4a 64
        E 0 8e 47 64
        E 0 88 43 64
        E 0 8d 2f 64
        E 0 90 43 64
        E 0 91 40 64
        E 1 92 3d 64
        E 0 93 2d 64
        E 0 94 4f 64
        E 0 95 4c 64
        E 0 97 4f 64
        E 0 9e 4c 64
        E 0 98 3d 64
        E 0 9d 2d 64
        E 205 87 4f 64
        E 0 97 4c 64
        E 203 87 4c 64
        E 0 88 3d 64
        E 0 8d 2d 64
        E 0 97 4f 64
        E 0 98 3d 64
        E 0 9d 39 64
        E 206 87 4f 64
        E 0 97 4c 64
        E 203 84 4f 64
        E 0 85 4c 64
        E 0 87 4c 64
        E 0 8e 4c 64
        E 0 88 3d 64
        E 0 8d 39 64
        E 1 97 4f 64
        E 0 98 3d 64
        E 0 9d 2d 64
        E 203 87 4f 64
        E 0 97 4c 64
        E 205 87 4c 64
        E 0 88 3d 64
        E 0 8d 2d 64
        E 0 97 4f 64
        E 0 98 3d 64
        E 0 9d 2d 64
        E 205 87 4f 64
        E 2 97 4c 64
        E 202 87 4c 64
        E 0 88 3d 64
        E 0 8d 2d 64
        E 0 94 4f 64
        E 0 95 4c 64
        E 0 97 4c 64
        E 0 9e 4f 64
        E 0 98 3d 64
        E 0 9d 2d 64
        E 204 87 4c 64
        E 0 8e 4f 64
        E 0 97 49 64
        E 0 9e 4c 64
        E 203 87 49 64
        E 0 8e 4c 64
        E 0 88 3d 64
        E 0 8d 2d 64
        E 1 97 4c 64
        E 0 9e 4f 64
        E 0 98 3d 64
        E 0 9d 39 64
        E 205 87 4c 64
        E 0 8e 4f 64
        E 0 97 49 64
        E 1 9e 4c 64
        E 205 84 4f 64
        E 0 85 4c 64
        E 0 87 49 64
        E 0 8e 4c 64
        E 0 88 3d 64
        E 0 8d 39 64
        E 1 97 4c 64
        E 0 9e 4f 64
        E 1 98 3d 64
        E 2 9d 2d 64
        E 196 87 4c 64
        E 0 8e 4f 64
        E 0 97 49 64
        E 0 9e 4c 64
        E 207 87 49 64
        E 0 8e 4c 64
        E 0 88 3d 64
        E 0 8d 2d 64
        E 0 97 4c 64
        E 0 9e 4f 64
        E 0 98 3d 64
        E 0 9d 2d 64
        E 202 87 4c 64
        E 0 8e 4f 64
        E 0 97 49 64
        E 1 9e 4c 64
        E 205 80 43 64
        E 0 81 40 64
        E 0 82 3d 64
        E 0 83 2d 64
        E 0 87 49 64
        E 0 8e 4c 64
        E 0 88 3d 64
        E 0 8d 2d 64
        E 0 90 43 64
        E 0 91 40 64
        E 0 92 3d 64
        E 0 93 2d 64
        E 0 94 4f 64
        E 0 95 4c 64
        E 0 97 49 64
        E 0 9e 4c 64
        E 0 98 3d 64
        E 0 9d 2d 64
        E 203 87 49 64
        E 0 8e 4c 64
        E 0 97 43 64
        E 0 9e 49 64
        E 204 87 43 64
        E 0 8e 49 64
        E 0 88 3d 64
        E 0 8d 2d 64
        E 0 97 49 64
        E 0 9e 4c 64
        E 0 98 3d 64
        E 0 9d 39 64
        E 207 87 49 64
        E 0 8e 4c 64
        E 0 97 43 64
        E 0 9e 49 64
        E 203 84 4f 64
        E 0 85 4c 64
        E 0 87 43 64
        E 0 8e 49 64
        E 0 88 3d 64
        E 0 8d 39 64
        E 1 97 49 64
        E 0 9e 4c 64
        E 0 98 3d 64
        E 0 9d 2d 64
        E 201 87 49 64
        E 0 8e 4c 64
        E 0 97 43 64
        E 0 9e 49 64
        E 207 87 43 64
        E 0 8e 49 64
        E 0 88 3d 64
        E 0 8d 2d 64
        E 0 97 49 64
        E 0 9e 4c 64
        E 0 98 3d 64
        E 0 9d 2d 64
        E 202 87 49 64
        E 0 8e 4c 64
        E 1 97 43 64
        E 0 9e 49 64
        E 206 87 43 64
        E 0 8e 49 64
        E 0 88 3d 64
        E 0 8d 2d 64
        E 0 94 4f 64
        E 0 95 4c 64
        E 0 97 40 64
        E 0 9e 49 64
        E 0 98 3d 64
        E 0 9d 2d 64
        E 206 87 40 64
        E 0 8e 49 64
        E 1 97 3d 64
        E 0 9e 43 64
        E 200 87 3d 64
        E 0 8e 43 64
        E 1 88 3d 64
        E 0 8d 2d 64
        E 0 97 40 64
        E 0 9e 49 64
        E 0 98 3d 64
        E 0 9d 39 64
        E 204 87 40 64
        E 0 8e 49 64
        E 0 97 3d 64
        E 0 9e 43 64
        E 203 84 4f 64
        E 0 85 4c 64
        E 0 87 3d 64
        E 0 8e 43 64
        E 0 88 3d 64
        E 0 8d 39 64
        E 0 97 40 64
        E 0 9e 49 64
        E 0 98 3d 64
        E 0 9d 2d 64
        E 206 87 40 64
        E 0 8e 49 64
        E 1 97 3d 64
        E 0 9e 43 64
        E 201 87 3d 64
        E 0 8e 43 64
        E 0 88 3d 64
        E 0 8d 2d 64
        E 0 97 40 64
        E 0 9e 49 64
        E 1 98 3d 64
        E 0 9d 2d 64
        E 205 87 40 64
        E 0 8e 49 64
        E 0 97 3d 64
        E 1 9e 43 64
        E 204 80 43 64
        E 0 81 40 64
        E 1 82 3d 64
        E 0 83 2d 64
        E 0 87 3d 64
        E 0 8e 43 64
        E 0 88 3d 64
        E 0 8d 2d 64
        E 0 90 43 64
        E 1 91 40 64
        E 3 92 3d 64
        E 0 93 2d 64
        E 0 94 4f 64
        E 0 95 4c 64
        E 0 97 37 64
        E 1 9e 40 64
        E 1 98 3d 64
        E 0 9d 2d 64
        E 807 80 43 64
        E 0 81 40 64
        E 0 82 3d 64
        E 0 83 2d 64
        E 0 84 4f 64
        E 0 85 4c 64
        E 0 87 37 64
        E 0 8e 40 64
        E 0 88 3d 64
        E 1 8d 2d 64
        E 3269 90 4a 64
        E 0 91 42 64
        E 0 92 39 64
        E 1 93 32 64
        E 0 94 4e 64
        E 0 95 4a 64
        E 0 97 51 64
        E 0 9e 4e 64
        E 0 98 45 64
        E 0 9d 32 64
        E 203 87 51 64
        E 0 8e 4e 64
        E 0 97 4e 64
        E 0 9e 4a 64
        E 204 84 4e 64
        E 0 85 4a 64
        E 0 87 4e 64
        E 0 8e 4a 64
        E 0 88 45 64
        E 0 8d 32 64
        E 0 94 4e 64
        E 0 95 4a 64
        E 0 97 51 64
        E 0 9e 4e 64
        E 0 98 45 64
        E 0 9d 3e 64
        E 203 80 4a 64
        E 0 81 42 64
        E 0 82 39 64
        E 0 83 32 64
        E 0 87 51 64
        E 0 8e 4e 64
        E 0 90 4a 64
        E 0 91 42 64
        E 0 92 39 64
        E 0 93 32 64
        E 0 97 4e 64
        E 0 9e 4a 64
        E 206 80 4a 64
        E 0 81 42 64
        E 0 82 39 64
        E 0 83 32 64
        E 0 84 4e 64
        E 0 85 4a 64
        E 0 87 4e 64
        E 0 8e 4a 64
        E 0 88 45 64
        E 0 8d 3e 64
        E 0 90 4a 64
        E 0 91 42 64
        E 0 92 39 64
        E 0 93 32 64
        E 0 94 4e 64
        E 0 95 4a 64
        E 0 97 51 64
        E 0 9e 4e 64
        E 0 98 45 64
        E 0 9d 32 64
        E 203 87 51 64
        E 0 8e 4e 64
        E 0 97 4e 64
        E 0 9e 4a 64
        E 206 84 4e 64
        E 0 85 4a 64
        E 0 87 4e 64
        E 0 8e 4a 64
        E 0 88 45 64
        E 0 8d 32 64
        E 0 94 4e 64
        E 0 95 4a 64
        E 0 97 51 64
        E 0 9e 4e 64
        E 0 98 45 64
        E 0 9d 32 64
        E 203 87 51 64
        E 0 8e 4e 64
        E 0 97 4e 64
        E 0 9e 4a 64
        E 204 80 4a 64
        E 0 81 42 64
        E 0 82 39 64
        E 0 83 32 64
        E 0 84 4e 64
        E 0 85 4a 64
        E 0 87 4e 64
        E 0 8e 4a 64
        E 0 88 45 64
        E 0 8d 32 64
        E 0 90 4a 64
        E 0 91 40 64
        E 0 92 39 64
        E 0 93 39 64
        E 0 94 4c 64
        E 0 95 4a 64
        E 0 97 51 64
        E 0 9e 4c 64
        E 0 98 45 64
        E 1 9d 2d 64
        E 206 87 51 64
        E 0 8e 4c 64
        E 0 97 4c 64
        E 0 9e 4a 64
        E 203 80 4a 64
        E 0 81 40 64
        E 0 82 39 64
        E 0 83 39 64
        E 0 84 4c 64
        E 0 85 4a 64
        E 0 87 4c 64
        E 0 8e 4a 64
        E 0 88 45 64
        E 0 8d 2d 64
        E 0 90 4a 64
        E 0 91 40 64
        E 0 92 39 64
        E 0 93 39 64
        E 0 94 4c 64
        E 0 95 4a 64
        E 0 97 51 64
        E 0 9e 4c 64
        E 0 98 45 64
        E 0 9d 39 64
        E 204 87 51 64
        E 0 8e 4c 64
        E 0 97 4c 64
        E 0 9e 4a 64
        E 203 80 4a 64
        E 0 81 40 64
        E 0 82 39 64
        E 0 83 39 64
        E 0 84 4c 64
        E 0 85 4a 64
        E 0 87 4c 64
        E 0 8e 4a 64
        E 0 88 45 64
        E 0 8d 39 64
        E 0 90 4a 64
        E 0 91 40 64
        E 0 92 39 64
        E 0 93 39 64
        E 0 94 4c 64
        E 1 95 4a 64
        E 0 97 51 64
        E 0 9e 4c 64
        E 0 98 45 64
        E 0 9d 2d 64
        E 203 87 51 64
        E 0 8e 4c 64
        E 0 97 4c 64
        E 0 9e 4a 64
        E 205 80 4a 64
        E 0 81 40 64
        E 0 82 39 64
        E 0 83 39 64
        E 0 84 4c 64
        E 0 85 4a 64
        E 0 87 4c 64
        E 0 8e 4a 64
        E 1 88 45 64
        E 0 8d 2d 64
        E 0 90 4a 64
        E 0 91 40 64
        E 0 92 39 64
        E 0 93 39 64
        E 0 94 4c 64
        E 0 95 4a 64
        E 0 97 51 64
        E 0 9e 4c 64
        E 0 98 45 64
        E 0 9d 2d 64
        E 202 87 51 64
        E 0 8e 4c 64
        E 1 97 4c 64
        E 0 9e 4a 64
        E 209 80 4a 64
        E 0 81 40 64
        E 0 82 39 64
        E 0 83 39 64
        E 0 84 4c 64
        E 0 85 4a 64
        E 0 87 4c 64
        E 0 8e 4a 64
        E 0 88 45 64
        E 0 8d 2d 64
        E 0 90 49 64
        E 0 91 40 64
        E 0 92 39 64
        E 0 93 2d 64
        E 0 94 4c 64
        E 0 95 49 64
        E 0 97 51 64
        E 0 9e 4c 64
        E 0 98 45 64
        E 0 9d 2d 64
        E 200 87 51 64
        E 0 8e 4c 64
        E 0 97 4c 64
        E 0 9e 49 64
        E 203 84 4c 64
        E 0 85 49 64
        E 0 87 4c 64
        E 0 8e 49 64
        E 0 88 45 64
        E 0 8d 2d 64
        E 0 94 4c 64
        E 0 95 49 64
        E 0 97 51 64
        E 0 9e 4c 64
        E 0 98 45 64
        E 0 9d 39 64
        E 206 87 51 64
        E 0 8e 4c 64
        E 0 97 4c 64
        E 0 9e 49 64
        E 204 84 4c 64
        E 0 85 49 64
        E 0 87 4c 64
        E 0 8e 49 64
        E 0 88 45 64
        E 0 8d 39 64
        E 0 94 4c 64
        E 0 95 49 64
        E 0 97 51 64
        E 0 9e 4c 64
        E 0 98 45 64
        E 0 9d 2d 64
        E 203 87 51 64
        E 0 8e 4c 64
        E 0 97 4c 64
        E 0 9e 49 64
        E 206 84 4c 64
        E 0 85 49 64
        E 0 87 4c 64
        E 0 8e 49 64
        E 0 88 45 64
        E 0 8d 2d 64
        E 0 94 4c 64
        E 1 95 49 64
        E 0 97 51 64
        E 0 9e 4c 64
        E 0 98 45 64
        E 0 9d 2d 64
        E 201 87 51 64
        E 0 8e 4c 64
        E 0 97 4c 64
        E 0 9e 49 64
        E 209 80 49 64
        E 0 81 40 64
        E 0 82 39 64
        E 0 83 2d 64
        E 0 84 4c 64
        E 0 85 49 64
        E 0 87 4c 64
        E 0 8e 49 64
        E 0 88 45 64
        E 0 8d 2d 64
        E 1 90 4a 64
        E 0 91 42 64
        E 1 92 39 64
        E 0 93 32 64
        E 0 94 4e 64
        E 0 95 4a 64
        E 0 97 4e 64
        E 0 9e 4a 64
        E 0 98 45 64
        E 0 9d 32 64
        E 200 87 4e 64
        E 0 97 51 64
        E 202 87 51 64
        E 0 97 4e 64
        E 206 87 4e 64
        E 1 97 51 64
        E 201 84 4e 64
        E 0 85 4a 64
        E 1 87 51 64
        E 0 8e 4a 64
        E 0 88 45 64
        E 0 8d 32 64
        E 0 97 4a 64
        E 0 9e 4e 64
        E 203 87 4a 64
        E 0 8e 4e 64
        E 0 97 4e 64
        E 0 9e 51 64
        E 206 87 4e 64
        E 0 8e 51 64
        E 0 97 4a 64
        E 0 9e 4e 64
        E 204 87 4a 64
        E 0 8e 4e 64
        E 0 97 4e 64
        E 0 9e 51 64
        E 206 80 4a 64
        E 0 81 42 64
        E 0 82 39 64
        E 0 83 32 64
        E 0 87 4e 64
        E 0 8e 51 64
        E 0 94 4e 64
        E 0 95 4a 64
        E 0 97 45 64
        E 0 9e 4a 64
        E 0 98 42 64
        E 0 9d 32 64
        E 203 87 45 64
        E 0 8e 4a 64
        E 0 97 4a 64
        E 1 9e 4e 64
        E 203 87 4a 64
        E 0 8e 4e 64
        E 0 97 45 64
        E 0 9e 4a 64
        E 206 87 45 64
        E 0 8e 4a 64
        E 0 97 4a 64
        E 0 9e 4e 64
        E 202 84 4e 64
        E 0 85 4a 64
        E 0 87 4a 64
        E 0 8e 4e 64
        E 0 88 42 64
        E 0 8d 32 64
        E 1 97 42 64
        E 0 9e 45 64
        E 204 87 42 64
        E 0 8e 45 64
        E 1 97 45 64
        E 0 9e 4a 64
        E 206 87 45 64
        E 0 8e 4a 64
        E 0 97 42 64
        E 0 9e 45 64
        E 201 87 42 64
        E 0 8e 45 64
        E 1 97 45 64
        E 0 9e 4a 64
        E 204 87 45 64
        E 0 8e 4a 64
        E 0 94 3e 64
        E 0 95 3e 64
        E 0 97 3e 64
        E 0 9e 42 64
        E 0 98 3e 64
        E 0 9d 32 64
        E 407 85 3e 64
        E 0 87 3e 64
        E 0 8e 42 64
        E 0 88 3e 64
        E 0 8d 32 64
        E 1 95 3e 64
        E 0 97 3e 64
        E 0 9e 3e 64
        E 0 98 3e 64
        E 0 9d 32 64
        E 205 85 3e 64
        E 0 87 3e 64
        E 0 8e 3e 64
        E 0 88 3e 64
        E 0 8d 32 64
        E 0 95 40 64
        E 0 97 40 64
        E 0 9e 40 64
        E 0 98 40 64
        E 0 9d 34 64
        E 203 84 3e 64
        E 0 85 40 64
        E 0 87 40 64
        E 0 8e 40 64
        E 0 88 40 64
        E 0 8d 34 64
        E 0 94 42 64
        E 0 95 42 64
        E 0 97 42 64
        E 0 9e 42 64
        E 0 98 42 64
        E 0 9d 36 64
        E 409 85 42 64
        E 1 87 42 64
        E 0 8e 42 64
        E 0 88 42 64
        E 0 8d 36 64
        E 0 95 42 64
        E 0 97 42 64
        E 0 9e 42 64
        E 0 98 42 64
        E 0 9d 36 64
        E 202 85 42 64
        E 0 87 42 64
        E 1 8e 42 64
        E 0 88 42 64
        E 0 8d 36 64
        E 0 95 43 64
        E 0 97 43 64
        E 0 9e 43 64
        E 0 98 43 64
        E 0 9d 37 64
        E 205 84 42 64
        E 0 85 43 64
        E 0 87 43 64
        E 0 8e 43 64
        E 0 88 43 64
        E 0 8d 37 64
        E 0 94 45 64
        E 0 95 45 64
        E 0 97 45 64
        E 0 9e 45 64
        E 0 98 45 64
        E 0 9d 39 64
        E 816 84 45 64
        E 0 85 45 64
        E 0 87 45 64
        E 0 8e 45 64
        E 0 88 45 64
        E 0 8d 39 64
        E 410 94 3e 64
        E 0 95 3e 64
        E 0 97 3e 64
        E 0 9e 3e 64
        E 0 98 3e 64
        E 0 9d 32 64
        E 409 84 3e 64
        E 0 85 3e 64
        E 0 87 3e 64
        E 0 8e 3e 64
        E 0 88 3e 64
        E 0 8d 32 64
        E 0 94 45 64
        E 2 95 45 64
        E 0 97 45 64
        E 0 9e 45 64
        E 0 98 45 64
        E 0 9d 39 64
        E 815 84 45 64
        E 0 85 45 64
        E 0 87 45 64
        E 0 8e 45 64
        E 0 88 45 64
        E 0 8d 39 64
        E 0 94 45 64
        E 0 95 45 64
        E 0 97 39 64
        E 0 9e 39 64
        E 0 98 39 64
        E 0 9d 2d 64
        E 816 84 45 64
        E 0 85 45 64
        E 0 87 39 64
        E 0 8e 39 64
        E 0 88 39 64
        E 0 8d 2d 64
        E 0 94 3e 64
        E 0 95 3e 64
        E 2 97 3e 64
        E 0 9e 3e 64
        E 0 98 3e 64
        E 0 9d 32 64
        E 1223 84 3e 64
        E 0 85 3e 64
        E 0 87 3e 64
        E 0 8e 3e 64
        E 0 88 3e 64
        E 0 8d 32 64
        E 5720 97 47 64
        E 0 98 42 64
        E 0 9d 2f 64
        E 737 88 42 64
        E 0 8d 2f 64
        E 0 98 42 64
        E 0 9d 2f 64
        E 742 87 47 64
        E 1 88 42 64
        E 0 8d 2f 64
        E 0 97 42 64
        E 1 98 3e 64
        E 0 9d 2f 64
        E 735 88 3e 64
        E 0 8d 2f 64
        E 0 98 3e 64
        E 0 9d 2f 64
        E 738 87 42 64
        E 0 88 3e 64
        E 0 8d 2f 64
        E 0 97 3e 64
        E 0 98 3b 64
        E 0 9d 2f 64
        E 738 88 3b 64
        E 1 8d 2f 64
        E 0 98 3b 64
        E 1 9d 2f 64
        E 739 87 3e 64
        E 0 88 3b 64
        E 0 8d 2f 64
        E 0 97 3b 64
        E 0 9e 47 64
        E 0 98 36 64
        E 0 9d 2f 64
        E 735 88 36 64
        E 0 8d 2f 64
        E 0 98 36 64
        E 0 9d 2f 64
        E 741 87 3b 64
        E 0 8e 47 64
        E 0 88 36 64
        E 0 8d 2f 64
        E 0 9e 42 64
        E 0 98 3e 64
        E 0 9d 2f 64
        E 737 88 3e 64
        E 0 8d 2f 64
        E 0 98 3e 64
        E 0 9d 2f 64
        E 738 8e 42 64
        E 0 88 3e 64
        E 0 8d 2f 64
        E 0 9e 3e 64
        E 0 98 3b 64
        E 0 9d 2f 64
        E 740 88 3b 64
        E 0 8d 2f 64
        E 0 98 3b 64
        E 1 9d 2f 64
        E 735 8e 3e 64
        E 0 88 3b 64
        E 0 8d 2f 64
        E 0 97 47 64
        E 0 9e 3b 64
        E 0 98 36 64
        E 0 9d 2f 64
        E 740 87 47 64
        E 0 88 36 64
        E 0 8d 2f 64
        E 0 97 42 64
        E 0 98 36 64
        E 0 9d 2f 64
        E 738 87 42 64
        E 0 8e 3b 64
        E 0 88 36 64
        E 0 8d 2f 64
        E 0 97 47 64
        E 0 98 3e 64
        E 0 9d 2f 64
        E 739 87 47 64
        E 0 88 3e 64
        E 0 8d 2f 64
        E 1 97 4a 64
        E 0 98 3e 64
        E 0 9d 2f 64
        E 737 87 4a 64
        E 0 88 3e 64
        E 0 8d 2f 64
        E 0 97 4e 64
        E 0 98 3e 64
        E 0 9d 2f 64
        E 739 87 4e 64
        E 0 88 3e 64
        E 0 8d 2f 64
        E 0 97 47 64
        E 0 98 3e 64
        E 1 9d 2f 64
        E 740 87 47 64
        E 0 88 3e 64
        E 0 8d 2f 64
        E 1 97 49 64
        E 0 9e 46 64
        E 0 98 3d 64
        E 0 9d 36 64
        E 735 8e 46 64
        E 0 88 3d 64
        E 0 8d 36 64
        E 0 9e 42 64
        E 0 98 3d 64
        E 0 9d 36 64
        E 743 87 49 64
        E 1 8e 42 64
        E 0 88 3d 64
        E 0 8d 36 64
        E 0 9e 46 64
        E 0 98 3d 64
        E 0 9d 36 64
        E 732 8e 46 64
        E 0 88 3d 64
        E 0 8d 36 64
        E 1 9e 49 64
        E 1 98 3d 64
        E 0 9d 36 64
        E 736 8e 49 64
        E 0 88 3d 64
        E 0 8d 36 64
        E 0 9e 4e 64
        E 0 98 46 64
        E 0 9d 36 64
        E 739 8e 4e 64
        E 0 88 46 64
        E 0 8d 36 64
        E 1 9e 49 64
        E 0 98 46 64
        E 0 9d 36 64
        E 738 8e 49 64
        E 0 88 46 64
        E 0 8d 36 64
        E 1 9e 4a 64
        E 0 98 42 64
        E 0 9d 2f 64
        E 369 97 47 64
        E 369 87 47 64
        E 2 88 42 64
        E 0 8d 2f 64
        E 0 97 47 64
        E 1 98 42 64
        E 0 9d 2f 64
        E 368 87 47 64
        E 0 97 47 64
        E 366 87 47 64
        E 0 8e 4a 64
        E 0 88 42 64
        E 0 8d 2f 64
        E 0 97 4a 64
        E 0 98 42 64
        E 0 9d 2f 64
        E 370 87 4a 64
        E 0 97 47 64
        E 368 87 47 64
        E 0 88 42 64
        E 0 8d 2f 64
        E 0 97 47 64
        E 0 98 42 64
        E 0 9d 2f 64
        E 372 87 47 64
        E 0 97 47 64
        E 368 87 47 64
        E 0 88 42 64
        E 0 8d 2f 64
        E 0 97 42 64
        E 0 98 3e 64
        E 0 9d 2f 64
        E 369 87 42 64
        E 0 97 47 64
        E 369 87 47 64
        E 0 88 3e 64
        E 0 8d 2f 64
        E 0 97 47 64
        E 0 98 3e 64
        E 0 9d 2f 64
        E 370 87 47 64
        E 0 97 47 64
        E 369 87 47 64
        E 1 88 3e 64
        E 0 8d 2f 64
        E 0 97 43 64
        E 0 98 3b 64
        E 0 9d 34 64
        E 375 9e 4c 64
        E 363 8e 4c 64
        E 0 88 3b 64
        E 0 8d 34 64
        E 0 9e 4c 64
        E 0 98 3b 64
        E 0 9d 34 64
        E 367 8e 4c 64
        E 0 9e 4c 64
        E 373 87 43 64
        E 0 8e 4c 64
        E 0 88 3b 64
        E 0 8d 34 64
        E 0 9e 4f 64
        E 0 98 3b 64
        E 0 9d 34 64
        E 366 8e 4f 64
        E 1 9e 4c 64
        E 369 8e 4c 64
        E 0 88 3b 64
        E 0 8d 34 64
        E 1 9e 4c 64
        E 0 98 3b 64
        E 0 9d 34 64
        E 366 8e 4c 64
        E 2 9e 4c 64
        E 369 8e 4c 64
        E 0 88 3b 64
        E 0 8d 34 64
        E 0 9e 47 64
        E 0 98 43 64
        E 0 9d 34 64
        E 369 8e 47 64
        E 1 9e 4c 64
        E 367 8e 4c 64
        E 0 88 43 64
        E 0 8d 34 64
        E 0 9e 4c 64
        E 1 98 43 64
        E 0 9d 34 64
        E 370 8e 4c 64
        E 0 9e 4c 64
        E 369 8e 4c 64
        E 0 88 43 64
        E 0 8d 34 64
        E 0 9e 49 64
        E 0 98 3a 64
        E 0 9d 36 64
        E 369 8e 49 64
        E 0 97 4e 64
        E 0 9e 49 64
        E 370 87 4e 64
        E 0 8e 49 64
        E 1 88 3a 64
        E 0 8d 36 64
        E 1 97 4e 64
        E 0 9e 49 64
        E 0 98 3a 64
        E 0 9d 36 64
        E 368 87 4e 64
        E 1 8e 49 64
        E 1 97 4e 64
        E 0 9e 49 64
        E 365 87 4e 64
        E 0 8e 49 64
        E 0 88 3a 64
        E 0 8d 36 64
        E 0 97 52 64
        E 0 9e 4e 64
        E 0 98 3d 64
        E 0 9d 36 64
        E 371 87 52 64
        E 0 8e 4e 64
        E 0 97 4e 64
        E 3 9e 49 64
        E 365 87 4e 64
        E 0 8e 49 64
        E 0 88 3d 64
        E 0 8d 36 64
        E 1 97 4e 64
        E 0 9e 49 64
        E 0 98 3a 64
        E 0 9d 36 64
        E 368 87 4e 64
        E 0 8e 49 64
        E 0 97 4e 64
        E 0 9e 49 64
        E 370 87 4e 64
        E 0 8e 49 64
        E 0 88 3a 64
        E 0 8d 36 64
        E 0 97 52 64
        E 0 9e 4e 64
        E 1 98 3d 64
        E 0 9d 34 64
        E 369 87 52 64
        E 0 8e 4e 64
        E 0 97 4e 64
        E 0 9e 49 64
        E 369 87 4e 64
        E 0 8e 49 64
        E 0 88 3d 64
        E 0 8d 34 64
        E 0 97 4e 64
        E 0 9e 49 64
        E 0 98 3d 64
        E 0 9d 34 64
        E 368 87 4e 64
        E 0 8e 49 64
        E 1 97 4e 64
        E 0 9e 49 64
        E 369 87 4e 64
        E 1 8e 49 64
        E 0 88 3d 64
        E 0 8d 34 64
        E 0 97 53 64
        E 0 9e 4e 64
        E 0 98 3e 64
        E 0 9d 32 64
        E 737 87 53 64
        E 0 8e 4e 64
        E 0 88 3e 64
        E 0 8d 32 64
        E 1 97 4e 64
        E 0 9e 4a 64
        E 0 98 42 64
        E 0 9d 32 64
        E 737 87 4e 64
        E 0 8e 4a 64
        E 0 88 42 64
        E 0 8d 32 64
        E 0 97 53 64
        E 0 9e 49 64
        E 0 98 43 64
        E 0 9d 34 64
        E 739 87 53 64
        E 0 8e 49 64
        E 0 88 43 64
        E 0 8d 34 64
        E 1 97 4a 64
        E 0 9e 47 64
        E 0 98 43 64
        E 0 9d 34 64
        E 739 87 4a 64
        E 0 8e 47 64
        E 0 88 43 64
        E 2 8d 34 64
        E 0 97 49 64
        E 1 9e 46 64
        E 0 98 3d 64
        E 0 9d 36 64
        E 735 87 49 64
        E 0 8e 46 64
        E 0 88 3d 64
        E 0 8d 36 64
        E 0 97 52 64
        E 1 9e 49 64
        E 0 98 42 64
        E 0 9d 36 64
        E 736 87 52 64
        E 0 8e 49 64
        E 0 88 42 64
        E 0 8d 36 64
        E 0 97 53 64
        E 0 9e 4a 64
        E 0 98 42 64
        E 0 9d 2f 64
        E 739 88 42 64
        E 0 8d 2f 64
        E 0 98 42 64
        E 0 9d 2f 64
        E 739 87 53 64
        E 0 8e 4a 64
        E 0 88 42 64
        E 0 8d 2f 64
        E 0 93 36 64
        E 0 97 4e 64
        E 0 98 3e 64
        E 0 9d 2f 64
        E 738 88 3e 64
        E 0 8d 2f 64
        E 1 98 3e 64
        E 1 9d 2f 64
        E 740 83 36 64
        E 0 87 4e 64
        E 0 88 3e 64
        E 0 8d 2f 64
        E 0 93 36 64
        E 0 97 4a 64
        E 0 98 42 64
        E 0 9d 2f 64
        E 733 88 42 64
        E 0 8d 2f 64
        E 0 98 42 64
        E 0 9d 2f 64
        E 741 83 36 64
        E 1 87 4a 64
        E 0 88 42 64
        E 0 8d 2f 64
        E 0 93 37 64
        E 0 97 47 64
        E 0 9e 53 64
        E 0 98 40 64
        E 0 9d 34 64
        E 737 88 40 64
        E 0 8d 34 64
        E 0 98 40 64
        E 0 9d 34 64
        E 738 87 47 64
        E 0 8e 53 64
        E 0 88 40 64
        E 0 8d 34 64
        E 0 92 3b 64
        E 0 9e 4f 64
        E 0 98 40 64
        E 0 9d 34 64
        E 740 88 40 64
        E 0 8d 34 64
        E 0 98 40 64
        E 0 9d 34 64
        E 738 82 3b 64
        E 0 8e 4f 64
        E 0 88 40 64
        E 0 8d 34 64
        E 0 92 3b 64
        E 0 9e 4c 64
        E 0 98 40 64
        E 0 9d 34 64
        E 738 88 40 64
        E 0 8d 34 64
        E 0 98 40 64
        E 0 9d 34 64
        E 738 82 3b 64
        E 0 83 37 64
        E 0 8e 4c 64
        E 0 88 40 64
        E 0 8d 34 64
        E 0 92 3c 64
        E 0 93 37 64
        E 0 9e 48 64
        E 0 98 40 64
        E 0 9d 34 64
        E 738 88 40 64
        E 0 8d 34 64
        E 0 97 43 64
        E 1 98 40 64
        E 0 9d 34 64
        E 738 87 43 64
        E 0 8e 48 64
        E 0 88 40 64
        E 1 8d 34 64
        E 0 97 48 64
        E 0 98 43 64
        E 0 9d 34 64
        E 737 87 48 64
        E 0 88 43 64
        E 0 8d 34 64
        E 0 97 4c 64
        E 1 98 43 64
        E 0 9d 34 64
        E 738 82 3c 64
        E 0 83 37 64
        E 0 87 4c 64
        E 0 88 43 64
        E 0 8d 34 64
        E 1 92 3b 64
        E 0 93 37 64
        E 0 97 4f 64
        E 0 98 43 64
        E 0 9d 34 64
        E 739 87 4f 64
        E 0 88 43 64
        E 0 8d 34 64
        E 0 97 53 64
        E 0 98 43 64
        E 0 9d 34 64
        E 736 82 3b 64
        E 0 83 37 64
        E 0 87 53 64
        E 0 88 43 64
        E 0 8d 34 64
        E 0 92 3a 64
        E 0 93 37 64
        E 0 97 49 64
        E 0 98 42 64
        E 0 9d 2a 64
        E 739 88 42 64
        E 0 8d 2a 64
        E 0 9e 42 64
        E 0 98 42 64
        E 0 9d 2a 64
        E 739 83 37 64
        E 0 87 49 64
        E 0 8e 42 64
        E 0 88 42 64
        E 0 8d 2a 64
        E 0 93 36 64
        E 0 9e 46 64
        E 0 98 3d 64
        E 0 9d 2a 64
        E 738 8e 46 64
        E 1 88 3d 64
        E 0 8d 2a 64
        E 0 9e 49 64
        E 1 98 3d 64
        E 0 9d 2a 64
        E 740 82 3a 64
        E 0 83 36 64
        E 0 8e 49 64
        E 0 88 3d 64
        E 0 8d 2a 64
        E 0 92 3a 64
        E 0 93 34 64
        E 0 9e 4e 64
        E 0 98 3d 64
        E 0 9d 2a 64
        E 736 8e 4e 64
        E 0 88 3d 64
        E 0 8d 2a 64
        E 1 9e 46 64
        E 0 98 3d 64
        E 0 9d 2a 64
        E 738 82 3a 64
        E 0 83 34 64
        E 0 8e 46 64
        E 0 88 3d 64
        E 0 8d 2a 64
        E 0 92 3b 64
        E 0 93 32 64
        E 0 97 53 64
        E 0 9e 42 64
        E 0 98 3e 64
        E 0 9d 2f 64
        E 739 88 3e 64
        E 0 8d 2f 64
        E 0 98 3e 64
        E 0 9d 2f 64
        E 738 87 53 64
        E 0 8e 42 64
        E 0 88 3e 64
        E 0 8d 2f 64
        E 0 91 42 64
        E 0 97 4e 64
        E 0 98 3e 64
        E 0 9d 2f 64
        E 737 82 3b 64
        E 0 83 32 64
        E 0 88 3e 64
        E 0 8d 2f 64
        E 0 92 3b 64
        E 0 93 31 64
        E 0 98 3e 64
        E 0 9d 2f 64
        E 740 81 42 64
        E 0 82 3b 64
        E 0 83 31 64
        E 0 87 4e 64
        E 0 88 3e 64
        E 0 8d 2f 64
        E 0 91 42 64
        E 0 92 3b 64
        E 0 93 2f 64
        E 0 97 4a 64
        E 0 98 42 64
        E 0 9d 2f 64
        E 737 88 42 64
        E 0 8d 2f 64
        E 0 98 42 64
        E 0 9d 2f 64
        E 739 81 42 64
        E 0 82 3b 64
        E 0 83 2f 64
        E 0 87 4a 64
        E 0 88 42 64
        E 0 8d 2f 64
        E 0 91 43 64
        E 0 97 47 64
        E 0 9e 53 64
        E 0 98 40 64
        E 0 9d 34 64
        E 736 88 40 64
        E 0 8d 34 64
        E 1 98 40 64
        E 0 9d 34 64
        E 740 87 47 64
        E 0 8e 53 64
        E 0 88 40 64
        E 0 8d 34 64
        E 0 90 47 64
        E 0 9e 4f 64
        E 0 98 40 64
        E 0 9d 34 64
        E 739 88 40 64
        E 0 8d 34 64
        E 0 98 40 64
        E 0 9d 34 64
        E 737 80 47 64
        E 1 8e 4f 64
        E 0 88 40 64
        E 0 8d 34 64
        E 0 90 47 64
        E 0 9e 4c 64
        E 0 98 40 64
        E 0 9d 34 64
        E 737 88 40 64
        E 0 8d 34 64
        E 1 98 40 64
        E 0 9d 34 64
        E 739 80 47 64
        E 0 81 43 64
        E 0 8e 4c 64
        E 0 88 40 64
        E 0 8d 34 64
        E 1 90 48 64
        E 0 91 43 64
        E 0 9e 48 64
        E 0 98 40 64
        E 0 9d 34 64
        E 736 88 40 64
        E 0 8d 34 64
        E 1 97 43 64
        E 0 98 40 64
        E 0 9d 34 64
        E 740 87 43 64
        E 0 8e 48 64
        E 0 88 40 64
        E 0 8d 34 64
        E 0 93 34 64
        E 0 97 48 64
        E 0 98 43 64
        E 0 9d 34 64
        E 736 87 48 64
        E 0 88 43 64
        E 0 8d 34 64
        E 0 97 4c 64
        E 0 98 43 64
        E 0 9d 34 64
        E 742 80 48 64
        E 0 81 43 64
        E 0 83 34 64
        E 0 87 4c 64
        E 0 88 43 64
        E 0 8d 34 64
        E 1 90 47 64
        E 0 91 43 64
        E 0 93 34 64
        E 0 97 4f 64
        E 0 98 43 64
        E 0 9d 34 64
        E 735 87 4f 64
        E 0 88 43 64
        E 0 8d 34 64
        E 0 97 53 64
        E 0 98 43 64
        E 0 9d 34 64
        E 739 80 47 64
        E 0 81 43 64
        E 0 83 34 64
        E 0 87 53 64
        E 0 88 43 64
        E 0 8d 34 64
        E 0 90 46 64
        E 0 91 43 64
        E 0 93 36 64
        E 0 97 49 64
        E 0 98 42 64
        E 0 9d 36 64
        E 737 88 42 64
        E 0 8d 36 64
        E 0 9e 42 64
        E 0 98 42 64
        E 0 9d 36 64
        E 738 81 43 64
        E 0 87 49 64
        E 0 8e 42 64
        E 0 88 42 64
        E 0 8d 36 64
        E 0 91 42 64
        E 0 92 3d 64
        E 0 9e 46 64
        E 1 98 3d 64
        E 0 9d 36 64
        E 739 8e 46 64
        E 4 88 3d 64
        E 0 8d 36 64
        E 0 9e 49 64
        E 2 98 3d 64
        E 0 9d 36 64
        E 732 80 46 64
        E 0 81 42 64
        E 0 82 3d 64
        E 0 83 36 64
        E 0 8e 49 64
        E 0 88 3d 64
        E 0 8d 36 64
        E 0 90 46 64
        E 0 91 40 64
        E 0 92 3d 64
        E 0 93 36 64
        E 0 9e 4e 64
        E 0 98 3d 64
        E 0 9d 36 64
        E 737 8e 4e 64
        E 0 88 3d 64
        E 0 8d 36 64
        E 0 9e 46 64
        E 0 98 3d 64
        E 0 9d 36 64
        E 742 80 46 64
        E 0 81 40 64
        E 0 82 3d 64
        E 0 83 36 64
        E 0 8e 46 64
        E 0 88 3d 64
        E 0 8d 36 64
        E 0 90 47 64
        E 0 91 3e 64
        E 0 92 3e 64
        E 0 93 2f 64
        E 0 9e 42 64
        E 0 98 3b 64
        E 0 9d 2f 64
        E 737 88 3b 64
        E 0 8d 2f 64
        E 0 97 47 64
        E 0 98 3b 64
        E 0 9d 2f 64
        E 737 87 47 64
        E 0 8e 42 64
        E 0 88 3b 64
        E 0 8d 2f 64
        E 0 97 4a 64
        E 0 98 42 64
        E 0 9d 2f 64
        E 738 80 47 64
        E 1 81 3e 64
        E 0 87 4a 64
        E 0 88 42 64
        E 0 8d 2f 64
        E 0 90 47 64
        E 0 91 3d 64
        E 0 97 4e 64
        E 0 98 42 64
        E 0 9d 2f 64
        E 738 80 47 64
        E 0 81 3d 64
        E 0 83 2f 64
        E 0 87 4e 64
        E 0 88 42 64
        E 0 8d 2f 64
        E 0 90 47 64
        E 0 91 3b 64
        E 0 93 2f 64
        E 0 97 53 64
        E 0 98 42 64
        E 0 9d 2f 64
        E 739 87 53 64
        E 0 88 42 64
        E 2 8d 2f 64
        E 1 97 4e 64
        E 0 98 42 64
        E 1 9d 2f 64
        E 735 80 47 64
        E 0 81 3b 64
        E 0 82 3e 64
        E 0 83 2f 64
        E 0 87 4e 64
        E 0 88 42 64
        E 0 8d 2f 64
        E 0 92 3f 64
        E 0 93 2f 64
        E 0 97 4b 64
        E 0 98 42 64
        E 0 9d 2d 64
        E 737 88 42 64
        E 1 8d 2d 64
        E 0 9e 47 64
        E 0 98 42 64
        E 0 9d 2d 64
        E 739 87 4b 64
        E 0 8e 47 64
        E 0 88 42 64
        E 0 8d 2d 64
        E 0 91 42 64
        E 0 9e 4b 64
        E 0 98 3b 64
        E 0 9d 2d 64
        E 737 8e 4b 64
        E 0 88 3b 64
        E 0 8d 2d 64
        E 0 9e 4e 64
        E 0 98 3b 64
        E 0 9d 2d 64
        E 738 81 42 64
        E 0 83 2f 64
        E 0 8e 4e 64
        E 0 88 3b 64
        E 0 8d 2d 64
        E 0 91 42 64
        E 1 93 2f 64
        E 0 9e 53 64
        E 0 98 3b 64
        E 0 9d 2d 64
        E 740 8e 53 64
        E 0 88 3b 64
        E 0 8d 2d 64
        E 0 9e 4e 64
        E 0 98 3b 64
        E 0 9d 2d 64
        E 736 81 42 64
        E 0 82 3f 64
        E 0 83 2f 64
        E 0 8e 4e 64
        E 0 88 3b 64
        E 0 8d 2d 64
        E 0 91 43 64
        E 0 92 40 64
        E 0 93 2f 64
        E 1 9e 47 64
        E 0 98 3b 64
        E 0 9d 2b 64
        E 370 97 4f 64
        E 368 87 4f 64
        E 0 88 3b 64
        E 1 8d 2b 64
        E 0 97 4f 64
        E 0 98 3b 64
        E 0 9d 2b 64
        E 368 87 4f 64
        E 1 97 4f 64
        E 369 87 4f 64
        E 0 8e 47 64
        E 0 88 3b 64
        E 0 8d 2b 64
        E 0 90 47 64
        E 1 97 53 64
        E 0 98 40 64
        E 0 9d 2b 64
        E 368 87 53 64
        E 1 97 4f 64
        E 369 87 4f 64
        E 1 88 40 64
        E 0 8d 2b 64
        E 0 97 4f 64
        E 0 98 40 64
        E 0 9d 2b 64
        E 367 87 4f 64
        E 0 97 4f 64
        E 371 80 47 64
        E 0 83 2f 64
        E 0 87 4f 64
        E 0 88 40 64
        E 0 8d 2b 64
        E 0 90 47 64
        E 0 97 53 64
        E 0 98 3d 64
        E 0 9d 2b 64
        E 369 87 53 64
        E 1 97 4f 64
        E 367 87 4f 64
        E 0 88 3d 64
        E 0 8d 2b 64
        E 1 97 4f 64
        E 3 98 3d 64
        E 1 9d 2b 64
        E 365 87 4f 64
        E 0 97 4f 64
        E 371 80 47 64
        E 0 81 43 64
        E 0 82 40 64
        E 0 87 4f 64
        E 0 88 3d 64
        E 0 8d 2b 64
        E 0 90 47 64
        E 0 91 44 64
        E 0 92 41 63
        E 0 97 53 64
        E 0 98 41 63
        E 0 9d 31 64
        E 367 9e 50 64
        E 370 8e 50 64
        E 0 88 41 63
        E 0 8d 31 64
        E 0 9e 50 64
        E 1 98 41 63
        E 0 9d 31 64
        E 368 8e 50 64
        E 0 9e 50 64
        E 370 80 47 64
        E 0 87 53 64
        E 0 8e 50 64
        E 0 88 41 63
        E 0 8d 31 64
        E 0 90 47 64
        E 0 9e 53 64
        E 0 98 41 63
        E 0 9d 31 64
        E 369 8e 53 64
        E 0 9e 50 64
        E 370 8e 50 64
        E 0 88 41 63
        E 0 8d 31 64
        E 1 9e 50 64
        E 0 98 41 63
        E 0 9d 31 64
        E 368 8e 50 64
        E 1 9e 50 64
        E 370 80 47 64
        E 2 8e 50 64
        E 3 88 41 63
        E 0 8d 31 64
        E 2 90 47 64
        E 1 9e 53 64
        E 0 98 41 63
        E 0 9d 31 64
        E 358 8e 53 64
        E 0 9e 50 64
        E 368 80 47 64
        E 0 8e 50 64
        E 0 88 41 63
        E 0 8d 31 64
        E 1 90 47 64
        E 0 9e 50 64
        E 0 98 41 63
        E 0 9d 31 64
        E 369 8e 50 64
        E 0 9e 50 64
        E 371 80 47 64
        E 0 81 44 64
        E 0 82 41 63
        E 0 8e 50 64
        E 0 88 41 63
        E 0 8d 31 64
        E 1 90 45 64
        E 0 91 45 64
        E 0 92 42 64
        E 0 97 4e 64
        E 0 9e 49 64
        E 0 98 42 64
        E 0 9d 36 64
        E 736 88 42 64
        E 0 8d 36 64
        E 1 98 42 64
        E 0 9d 36 64
        E 370 80 45 64
        E 0 90 47 64
        E 369 80 47 64
        E 0 82 42 64
        E 0 87 4e 64
        E 0 8e 49 64
        E 0 88 42 64
        E 0 8d 36 64
        E 0 90 49 64
        E 0 92 36 64
        E 0 93 36 64
        E 0 97 49 64
        E 0 98 42 64
        E 0 9d 36 64
        E 737 88 42 64
        E 0 8d 36 64
        E 0 98 42 64
        E 1 9d 36 64
        E 3726 83 36 64
        E 0 87 49 64
        E 1 88 42 64
        E 0 8d 36 64
        E 0 93 36 64
        E 0 97 45 64
        E 0 98 3d 64
        E 0 9d 36 64
        E 0 88 3d 64
        E 0 8d 36 64
        E 0 98 3d 64
        E 0 9d 36 64
        E 0 80 49 64
        E 0 81 45 64
        E 0 82 36 64
        E 0 83 36 64
        E 0 87 45 64
        E 0 88 3d 64
        E 0 8d 36 64
        E 0 91 46 64
        E 0 93 36 64
        E 0 97 3d 64
        E 0 9e 4e 64
        E 0 98 3d 64
        E 0 9d 36 64
        E 0 88 3d 64
        E 0 8d 36 64
        E 0 98 3d 64
        E 1 9d 36 64
        E 0 83 36 64
        E 0 87 3d 64
        E 0 8e 4e 64
        E 0 88 3d 64
        E 0 8d 36 64
        E 0 90 49 64
        E 0 93 36 64
        E 0 9e 49 64
        E 0 98 3d 64
        E 0 9d 36 64
        E 12215 88 3d 64
        E 0 8d 36 64
        E 0 98 3d 64
        E 0 9d 36 64
        E 0 80 49 64
        E 0 83 36 64
        E 0 8e 49 64
        E 0 88 3d 64
        E 0 8d 36 64
        E 0 90 49 64
        E 0 93 34 64
        E 0 9e 46 64
        E 0 98 3d 64
        E 1 9d 34 64
        E 0 83 34 64
        E 0 88 3d 64
        E 0 8d 34 64
        E 0 93 34 64
        E 0 98 3d 64
        E 0 9d 34 64
        E 0 80 49 64
        E 0 81 46 64
        E 0 83 34 64
        E 0 8e 46 64
        E 0 88 3d 64
        E 0 8d 34 64
        E 0 90 4a 64
        E 0 91 47 64
        E 0 93 32 64
        E 0 9e 42 64
        E 0 98 3b 64
        E 0 9d 32 64
        E 0 88 3b 64
        E 0 8d 32 64
        E 0 97 47 64
        E 0 98 3b 64
        E 0 9d 32 64
        E 0 81 47 64
        E 0 87 47 64
        E 0 8e 42 64
        E 0 88 3b 64
        E 0 8d 32 64
        E 0 91 3b 64
        E 0 97 4a 64
        E 0 98 42 64
        E 0 9d 32 64
        E 0 83 32 64
        E 0 87 4a 64
        E 0 88 42 64
        E 0 8d 32 64
        E 0 93 31 64
        E 0 97 4e 64
        E 0 98 42 64
        E 0 9d 32 64
        E 0 83 31 64
        E 0 87 4e 64
        E 0 88 42 64
        E 0 8d 32 64
        E 0 93 2f 64
        E 0 97 53 64
        E 0 98 42 64
        E 0 9d 2f 64
        E 0 87 53 64
        E 0 88 42 64
        E 0 8d 2f 64
        E 0 97 4e 64
        E 0 98 42 64
        E 0 9d 2f 64
        E 0 80 4a 64
        E 0 81 3b 64
        E 0 83 2f 64
        E 0 87 4e 64
        E 0 88 42 64
        E 0 8d 2f 64
        E 0 90 4b 64
        E 0 97 47 64
        E 0 98 42 64
        E 0 9d 2d 64
        E 0 88 42 64
        E 0 8d 2d 64
        E 0 9e 47 64
        E 0 98 42 64
        E 0 9d 2d 64
        E 0 87 47 64
        E 0 8e 47 64
        E 0 88 42 64
        E 0 8d 2d 64
        E 0 93 36 64
        E 0 9e 4b 64
        E 0 98 42 64
        E 0 9d 2d 64
        E 0 8e 4b 64
        E 0 88 42 64
        E 0 8d 2d 64
        E 0 9e 4e 64
        E 0 98 42 64
        E 0 9d 2d 64
        E 1 83 36 64
        E 0 8e 4e 64
        E 0 88 42 64
        E 0 8d 2d 64
        E 0 93 36 64
        E 0 9e 53 64
        E 0 98 42 64
        E 1 9d 2d 64
        E 0 8e 53 64
        E 0 88 42 64
        E 0 8d 2d 64
        E 0 9e 4e 64
        E 0 98 42 64
        E 0 9d 2d 64
        E 0 80 4b 64
        E 0 83 36 64
        E 0 8e 4e 64
        E 0 88 42 64
        E 0 8d 2d 64
        E 0 90 4c 64
        E 0 93 37 64
        E 0 9e 47 64
        E 0 98 43 64
        E 0 9d 2b 64
        E 0 97 4f 64
        E 19212 87 4f 64
        E 0 88 43 64
        E 0 8d 2b 64
        E 1 97 4f 64
        E 0 98 43 64
        E 0 9d 2b 64
        E 0 87 4f 64
        E 0 97 4f 64
        E 0 87 4f 64
        E 0 8e 47 64
        E 0 88 43 64
        E 0 8d 2b 64
        E 0 92 3b 64
        E 0 97 53 64
        E 0 98 43 64
        E 0 9d 2b 64
        E 0 87 53 64
        E 0 97 4f 64
        E 0 87 4f 64
        E 0 88 43 64
        E 0 8d 2b 64
        E 0 97 4f 64
        E 0 98 43 64
        E 0 9d 2b 64
        E 0 87 4f 64
        E 0 97 4f 64
        E 0 82 3b 64
        E 0 87 4f 64
        E 0 88 43 64
        E 0 8d 2b 64
        E 0 92 3b 64
        E 0 97 53 64
        E 0 98 43 64
        E 0 9d 37 64
        E 0 87 53 64
        E 0 97 4f 64
        E 0 87 4f 64
        E 0 88 43 64
        E 0 8d 37 64
        E 0 97 4f 64
        E 0 98 43 64
        E 0 9d 37 64
        E 0 87 4f 64
        E 0 97 4f 64
        E 0 80 4c 64
        E 0 82 3b 64
        E 0 83 37 64
        E 0 87 4f 64
        E 0 88 43 64
        E 0 8d 37 64
        E 0 90 4d 63
        E 0 92 3b 64
        E 0 93 38 64
        E 0 97 53 64
        E 0 98 41 63
        E 0 9d 31 64
        E 0 9e 50 64
        E 0 8e 50 64
        E 0 88 41 63
        E 0 8d 31 64
        E 1 9e 50 64
        E 0 98 41 63
        E 0 9d 31 64
        E 0 8e 50 64
        E 0 9e 50 64
        E 0 82 3b 64
        E 0 87 53 64
        E 0 8e 50 64
        E 0 88 41 63
        E 0 8d 31 64
        E 0 92 3b 64
        E 0 9e 53 64
        E 0 98 41 63
        E 0 9d 31 64
        E 0 8e 53 64
        E 0 9e 50 64
        E 0 8e 50 64
        E 0 88 41 63
        E 0 8d 31 64
        E 0 9e 50 64
        E 0 98 41 63
        E 0 9d 31 64
        E 0 8e 50 64
        E 0 9e 50 64
        E 0 82 3b 64
        E 0 8e 50 64
        E 0 88 41 63
        E 0 8d 31 64
        E 0 92 3b 64
        E 0 9e 53 64
        E 0 98 41 63
        E 0 9d 31 64
        E 0 8e 53 64
        E 0 9e 50 64
        E 0 82 3b 64
        E 0 8e 50 64
        E 0 88 41 63
        E 0 8d 31 64
        E 0 92 3b 64
        E 0 9e 50 64
        E 0 98 41 63
        E 0 9d 31 64
        E 0 8e 50 64
        E 0 9e 50 64
        E 0 80 4d 63
        E 0 82 3b 64
        E 0 83 38 64
        E 0 8e 50 64
        E 0 88 41 63
        E 0 8d 31 64
        E 0 90 4e 64
        E 0 92 39 64
        E 0 93 39 64
        E 0 97 4e 64
        E 0 9e 51 64
        E 1 98 3d 64
        E 0 9d 36 64
        E 0 88 3d 64
        E 0 8d 36 64
        E 0 98 3d 64
        E 0 9d 36 64
        E 0 82 39 64
        E 0 92 3b 64
        E 0 80 4e 64
        E 0 82 3b 64
        E 0 87 4e 64
        E 0 8e 51 64
        E 0 88 3d 64
        E 0 8d 36 64
        E 0 90 42 64
        E 0 91 42 64
        E 0 92 3d 64
        E 0 97 49 64
        E 0 98 3d 64
        E 0 9d 36 64
        E 0 88 3d 64
        E 0 8d 36 64
        E 0 98 3d 64
        E 0 9d 36 64
        E 0 81 42 64
        E 0 87 49 64
        E 0 88 3d 64
        E 0 8d 36 64
        E 0 91 42 64
        E 0 97 45 64
        E 0 98 3d 64
        E 0 9d 36 64
        E 0 88 3d 64
        E 0 8d 36 64
        E 0 98 3d 64
        E 0 9d 36 64
        E 0 80 42 64
        E 0 81 42 64
        E 0 82 3d 64
        E 0 83 39 64
        E 0 87 45 64
        E 0 88 3d 64
        E 0 8d 36 64
        E 0 91 42 64
        E 0 93 3a 64
        E 0 97 3d 64
        E 1 9e 4e 64
        E 0 98 3d 64
        E 0 9d 36 64
        E 0 88 3d 64
        E 0 8d 36 64
        E 0 98 3d 64
        E 0 9d 36 64
        E 0 81 42 64
        E 0 87 3d 64
        E 0 8e 4e 64
        E 0 88 3d 64
        E 0 8d 36 64
        E 0 90 42 64
        E 0 91 42 64
        E 0 9e 49 64
        E 0 98 3d 64
        E 0 9d 36 64
        E 0 88 3d 64
        E 1 8d 36 64
        E 0 98 3d 64
        E 0 9d 36 64
        E 0 80 42 64
        E 0 81 42 64
        E 0 8e 49 64
        E 0 88 3d 64
        E 0 8d 36 64
        E 0 90 42 64
        E 0 91 40 64
        E 0 9e 46 64
        E 0 98 3d 64
        E 0 9d 36 64
        E 0 81 40 64
        E 0 88 3d 64
        E 0 8d 36 64
        E 0 91 40 64
        E 0 98 3d 64
        E 0 9d 36 64
        E 1 80 42 64
        E 0 81 40 64
        E 0 83 3a 64
        E 0 8e 46 64
        E 0 88 3d 64
        E 0 8d 36 64
        E 0 90 42 64
        E 0 91 3e 64
        E 0 92 3e 64
        E 0 93 3b 64
        E 0 9e 42 64
        E 0 98 3e 64
        E 0 9d 2f 64
        E 0 88 3e 64
        E 0 8d 2f 64
        E 0 97 4a 64
        E 0 98 3e 64
        E 1 9d 2f 64
        E 0 83 3b 64
        E 0 87 4a 64
        E 0 8e 42 64
        E 0 88 3e 64
        E 0 8d 2f 64
        E 0 93 2f 64
        E 0 97 4e 64
        E 0 98 3e 64
        E 0 9d 2f 64
        E 9684 80 42 64
        E 1 81 3e 64
        E 0 87 4e 64
        E 0 88 3e 64
        E 0 8d 2f 64
        E 0 90 42 64
        E 0 91 40 64
        E 0 97 53 64
        E 0 98 3e 64
        E 0 9d 2f 64
        E 0 80 42 64
        E 0 81 40 64
        E 0 82 3e 64
        E 0 87 53 64
        E 0 88 3e 64
        E 0 8d 2f 64
        E 0 90 42 64
        E 0 91 42 64
        E 0 92 3e 64
        E 0 97 4e 64
        E 0 98 3e 64
        E 0 9d 2f 64
        E 0 87 4e 64
        E 0 88 3e 64
        E 0 8d 2f 64
        E 0 97 4a 64
        E 0 98 3e 64
        E 0 9d 2f 64
        E 0 80 42 64
        E 0 81 42 64
        E 0 82 3e 64
        E 0 83 2f 64
        E 0 87 4a 64
        E 0 88 3e 64
        E 0 8d 2f 64
        E 1 91 42 64
        E 0 92 3e 64
        E 0 93 2f 64
        E 0 97 47 64
        E 0 98 42 64
        E 0 9d 2f 64
        E 0 88 42 64
        E 0 8d 2f 64
        E 0 9e 4a 64
        E 0 98 42 64
        E 0 9d 2f 64
        E 0 87 47 64
        E 0 8e 4a 64
        E 0 88 42 64
        E 0 8d 2f 64
        E 0 90 47 64
        E 0 9e 4e 64
        E 0 98 42 64
        E 0 9d 2f 64
        E 0 8e 4e 64
        E 0 88 42 64
        E 0 8d 2f 64
        E 0 9e 53 64
        E 0 98 42 64
        E 0 9d 2f 64
        E 0 80 47 64
        E 0 81 42 64
        E 0 82 3e 64
        E 0 83 2f 64
        E 0 8e 53 64
        E 0 88 42 64
        E 0 8d 2f 64
        E 0 90 47 64
        E 0 91 42 64
        E 1 92 3e 64
        E 0 93 2f 64
        E 0 9e 4e 64
        E 0 98 47 64
        E 0 9d 2f 64
        E 0 8e 4e 64
        E 0 88 47 64
        E 0 8d 2f 64
        E 0 9e 4a 64
        E 0 98 47 64
        E 0 9d 2f 64
        E 0 80 47 64
        E 0 81 42 64
        E 0 82 3e 64
        E 0 83 2f 64
        E 0 8e 4a 64
        E 0 88 47 64
        E 0 8d 2f 64
        E 0 90 47 64
        E 0 91 41 63
        E 0 92 38 64
        E 0 93 31 64
        E 0 9e 49 64
        E 0 98 44 64
        E 0 9d 31 64
        E 0 97 4d 63
        E 0 87 4d 63
        E 0 88 44 64
        E 0 8d 31 64
        E 0 97 4d 63
        E 0 98 44 64
        E 1 9d 31 64
        E 0 87 4d 63
        E 0 97 4d 63
        E 0 82 38 64
        E 0 87 4d 63
        E 0 8e 49 64
        E 0 88 44 64
        E 0 8d 31 64
        E 0 92 3d 64
        E 0 97 50 64
        E 0 98 41 63
        E 0 9d 31 64
        E 0 87 50 64
        E 0 97 49 64
        E 0 81 41 63
        E 0 87 49 64
        E 0 88 41 63
        E 0 8d 31 64
        E 0 91 41 63
        E 1 97 49 64
        E 0 98 41 63
        E 0 9d 31 64
        E 1 87 49 64
        E 0 97 49 64
        E 190 80 47 64
        E 0 81 41 63
        E 0 83 31 64
        E 0 87 49 64
        E 0 88 41 63
        E 0 8d 31 64
        E 0 90 45 64
        E 0 91 42 64
        E 0 93 36 64
        E 0 97 51 64
        E 0 98 3d 64
        E 0 9d 36 64
        E 369 87 51 64
        E 0 97 49 64
        E 370 87 49 64
        E 0 88 3d 64
        E 0 8d 36 64
        E 0 97 49 64
        E 0 98 3d 64
        E 0 9d 36 64
        E 370 87 49 64
        E 0 97 49 64
        E 368 80 45 64
        E 0 81 42 64
        E 0 82 3d 64
        E 0 83 36 64
        E 0 87 49 64
        E 0 88 3d 64
        E 0 8d 36 64
        E 0 90 45 64
        E 0 91 42 64
        E 0 93 31 64
        E 0 97 51 64
        E 0 98 3d 64
        E 0 9d 31 64
        E 371 9e 49 64
        E 368 8e 49 64
        E 0 88 3d 64
        E 0 8d 31 64
        E 0 9e 49 64
        E 0 98 3d 64
        E 0 9d 31 64
        E 368 8e 49 64
        E 0 9e 49 64
        E 371 80 45 64
        E 0 81 42 64
        E 0 87 51 64
        E 0 8e 49 64
        E 0 88 3d 64
        E 0 8d 31 64
        E 0 90 44 64
        E 0 91 41 63
        E 1 92 3d 64
        E 0 9e 50 64
        E 0 98 41 63
        E 0 9d 31 64
        E 368 8e 50 64
        E 0 9e 49 64
        E 368 8e 49 64
        E 0 88 41 63
        E 0 8d 31 64
        E 0 9e 49 64
        E 0 98 41 63
        E 0 9d 31 64
        E 369 8e 49 64
        E 1 9e 49 64
        E 369 82 3d 64
        E 0 8e 49 64
        E 0 88 41 63
        E 0 8d 31 64
        E 0 92 3d 64
        E 0 9e 4d 63
        E 0 98 44 64
        E 0 9d 31 64
        E 369 8e 4d 63
        E 0 9e 49 64
        E 369 8e 49 64
        E 0 88 44 64
        E 0 8d 31 64
        E 0 9e 49 64
        E 1 98 44 64
        E 0 9d 31 64
        E 370 8e 49 64
        E 0 9e 49 64
        E 369 80 44 64
        E 0 81 41 63
        E 0 82 3d 64
        E 0 83 31 64
        E 0 8e 49 64
        E 0 88 44 64
        E 0 8d 31 64
        E 0 90 42 64
        E 0 91 42 64
        E 0 92 3e 64
        E 0 93 36 64
        E 0 97 4e 64
        E 0 9e 51 64
        E 0 98 42 64
        E 0 9d 36 64
        E 738 88 42 64
        E 0 8d 36 64
        E 1 98 42 64
        E 1 9d 36 64
        E 737 81 42 64
        E 0 87 4e 64
        E 0 8e 51 64
        E 0 88 42 64
        E 0 8d 36 64
        E 0 91 42 64
        E 5 97 4a 64
        E 0 98 45 64
        E 0 9d 36 64
        E 732 88 45 64
        E 0 8d 36 64
        E 1 98 45 64
        E 0 9d 36 64
        E 738 81 42 64
        E 0 87 4a 64
        E 0 88 45 64
        E 0 8d 36 64
        E 0 91 42 64
        E 0 97 45 64
        E 0 98 42 64
        E 0 9d 36 64
        E 739 88 42 64
        E 0 8d 36 64
        E 0 98 42 64
        E 1 9d 36 64
        E 737 80 42 64
        E 0 81 42 64
        E 0 82 3e 64
        E 0 83 36 64
        E 0 87 45 64
        E 0 88 42 64
        E 0 8d 36 64
        E 0 91 43 64
        E 0 92 3e 64
        E 0 97 43 64
        E 0 9e 4f 64
        E 0 98 3e 64
        E 0 9d 2f 64
        E 739 88 3e 64
        E 0 8d 2f 64
        E 1 98 3e 64
        E 0 9d 2f 64
        E 738 87 43 64
        E 0 8e 4f 64
        E 0 88 3e 64
        E 0 8d 2f 64
        E 0 9e 4a 64
        E 0 98 3e 64
        E 0 9d 2f 64
        E 736 88 3e 64
        E 0 8d 2f 64
        E 0 98 3e 64
        E 0 9d 2f 64
        E 741 81 43 64
        E 0 82 3e 64
        E 0 8e 4a 64
        E 0 88 3e 64
        E 0 8d 2f 64
        E 0 91 42 64
        E 0 92 3e 64
        E 0 9e 47 64
        E 0 98 3e 64
        E 0 9d 2f 64
        E 737 88 3e 64
        E 0 8d 2f 64
        E 0 98 3e 64
        E 0 9d 2f 64
        E 738 81 42 64
        E 0 82 3e 64
        E 0 8e 47 64
        E 0 88 3e 64
        E 0 8d 2f 64
        E 0 91 41 63
        E 1 92 3e 64
        E 1 9e 44 64
        E 0 98 3d 64
        E 0 9d 31 64
        E 738 88 3d 64
        E 0 8d 31 64
        E 0 97 44 64
        E 0 98 3d 64
        E 0 9d 31 64
        E 738 82 3e 64
        E 0 87 44 64
        E 0 8e 44 64
        E 0 88 3d 64
        E 0 8d 31 64
        E 0 92 3d 64
        E 0 93 31 64
        E 0 97 49 64
        E 0 98 3d 64
        E 0 9d 31 64
        E 738 87 49 64
        E 0 88 3d 64
        E 0 8d 31 64
        E 0 97 4d 63
        E 0 98 3d 64
        E 0 9d 31 64
        E 738 81 41 63
        E 0 82 3d 64
        E 0 83 31 64
        E 0 87 4d 63
        E 1 88 3d 64
        E 0 8d 31 64
        E 0 91 41 63
        E 0 92 3b 64
        E 0 93 31 64
        E 0 97 50 64
        E 0 98 3d 64
        E 0 9d 31 64
        E 737 87 50 64
        E 0 88 3d 64
        E 0 8d 31 64
        E 1 97 4d 63
        E 0 98 3d 64
        E 0 9d 31 64
        E 739 81 41 63
        E 0 82 3b 64
        E 0 83 31 64
        E 0 87 4d 63
        E 0 88 3d 64
        E 0 8d 31 64
        E 0 91 42 64
        E 0 92 39 64
        E 0 93 36 64
        E 0 97 49 64
        E 0 98 3d 64
        E 0 9d 36 64
        E 739 88 3d 64
        E 0 8d 36 64
        E 1 9e 45 64
        E 0 98 3d 64
        E 0 9d 36 64
        E 736 87 49 64
        E 0 8e 45 64
        E 0 88 3d 64
        E 0 8d 36 64
        E 0 9e 49 64
        E 0 98 3d 64
        E 0 9d 36 64
        E 738 81 42 64
        E 0 82 39 64
        E 0 83 36 64
        E 0 8e 49 64
        E 0 88 3d 64
        E 0 8d 36 64
        E 0 91 42 64
        E 0 92 38 64
        E 1 93 36 64
        E 0 9e 4e 64
        E 0 98 3d 64
        E 0 9d 36 64
        E 738 81 42 64
        E 1 82 38 64
        E 0 83 36 64
        E 0 8e 4e 64
        E 0 88 3d 64
        E 0 8d 36 64
        E 0 91 42 64
        E 0 92 36 64
        E 0 93 36 64
        E 0 9e 51 64
        E 0 98 3d 64
        E 0 9d 36 64
        E 737 8e 51 64
        E 0 88 3d 64
        E 0 8d 36 64
        E 1 9e 4e 64
        E 0 98 3d 64
        E 0 9d 36 64
        E 739 81 42 64
        E 2 82 36 64
        E 0 83 36 64
        E 0 8e 4e 64
        E 0 88 3d 64
        E 0 8d 36 64
        E 0 90 4a 64
        E 0 9e 45 64
        E 0 98 42 64
        E 0 9d 36 64
        E 366 97 45 64
        E 368 87 45 64
        E 0 88 42 64
        E 0 8d 36 64
        E 0 97 45 64
        E 1 98 42 64
        E 0 9d 36 64
        E 371 87 45 64
        E 0 97 45 64
        E 369 87 45 64
        E 0 8e 45 64
        E 0 88 42 64
        E 0 8d 36 64
        E 0 93 36 64
        E 0 97 4e 64
        E 0 98 45 64
        E 0 9d 36 64
        E 369 87 4e 64
        E 0 97 45 64
        E 369 87 45 64
        E 0 88 45 64
        E 0 8d 36 64
        E 0 97 45 64
        E 0 98 45 64
        E 1 9d 36 64
        E 368 87 45 64
        E 0 97 45 64
        E 368 80 4a 64
        E 0 83 36 64
        E 0 87 45 64
        E 0 88 45 64
        E 0 8d 36 64
        E 0 90 49 64
        E 0 93 36 64
        E 0 97 4e 64
        E 1 98 45 64
        E 0 9d 36 64
        E 368 87 4e 64
        E 0 97 45 64
        E 371 87 45 64
        E 0 88 45 64
        E 0 8d 36 64
        E 0 97 45 64
        E 0 98 45 64
        E 0 9d 36 64
        E 369 87 45 64
        E 0 97 45 64
        E 367 80 49 64
        E 0 83 36 64
        E 0 87 45 64
        E 0 88 45 64
        E 0 8d 36 64
        E 0 90 48 63
        E 0 93 38 64
        E 0 97 4b 64
        E 0 98 44 64
        E 0 9d 38 64
        E 371 9e 4b 64
        E 370 8e 4b 64
        E 0 88 44 64
        E 0 8d 38 64
        E 0 9e 4b 64
        E 0 98 44 64
        E 0 9d 38 64
        E 368 8e 4b 64
        E 0 9e 4b 64
        E 371 87 4b 64
        E 0 8e 4b 64
        E 1 88 44 64
        E 0 8d 38 64
        E 0 91 44 64
        E 0 92 3f 64
        E 0 9e 50 64
        E 0 98 48 63
        E 0 9d 38 64
        E 369 8e 50 64
        E 1 9e 4b 64
        E 365 8e 4b 64
        E 0 88 48 63
        E 0 8d 38 64
        E 0 9e 4b 64
        E 0 98 48 63
        E 1 9d 38 64
        E 371 8e 4b 64
        E 1 9e 4b 64
        E 368 81 44 64
        E 0 82 3f 64
        E 0 8e 4b 64
        E 0 88 48 63
        E 0 8d 38 64
        E 1 91 42 64
        E 0 92 3c 63
        E 0 9e 50 64
        E 0 98 48 63
        E 0 9d 38 64
        E 367 8e 50 64
        E 2 9e 4b 64
        E 367 8e 4b 64
        E 0 88 48 63
        E 0 8d 38 64
        E 0 9e 4b 64
        E 0 98 48 63
        E 0 9d 38 64
        E 370 8e 4b 64
        E 0 9e 4b 64
        E 369 80 48 63
        E 0 81 42 64
        E 0 82 3c 63
        E 0 83 38 64
        E 0 8e 4b 64
        E 0 88 48 63
        E 0 8d 38 64
        E 0 90 49 64
        E 0 91 40 64
        E 0 92 38 64
        E 0 93 31 64
        E 1 9e 4c 64
        E 0 98 44 64
        E 0 9d 31 64
        E 368 97 44 64
        E 370 81 40 64
        E 0 82 38 64
        E 0 87 44 64
        E 0 88 44 64
        E 0 8d 31 64
        E 1 91 3d 64
        E 0 92 38 64
        E 0 97 44 64
        E 0 98 44 64
        E 0 9d 31 64
        E 367 87 44 64
        E 0 97 44 64
        E 369 80 49 64
        E 0 81 3d 64
        E 0 82 38 64
        E 0 83 31 64
        E 0 87 44 64
        E 0 8e 4c 64
        E 0 88 44 64
        E 0 8d 31 64
        E 0 90 48 63
        E 0 91 3f 64
        E 0 92 38 64
        E 0 93 38 64
        E 0 97 48 63
        E 0 98 44 64
        E 0 9d 38 64
        E 370 87 48 63
        E 0 97 44 64
        E 369 87 44 64
        E 0 88 44 64
        E 3 8d 38 64
        E 0 97 44 64
        E 2 98 44 64
        E 0 9d 38 64
        E 365 87 44 64
        E 0 97 44 64
        E 369 87 44 64
        E 0 88 44 64
        E 0 8d 38 64
        E 0 97 4b 64
        E 0 98 44 64
        E 0 9d 2c 64
        E 373 87 4b 64
        E 0 97 44 64
        E 367 87 44 64
        E 0 88 44 64
        E 0 8d 2c 64
        E 0 97 44 64
        E 1 98 44 64
        E 3 9d 2c 64
        E 362 87 44 64
        E 0 97 44 64
        E 371 80 48 63
        E 0 81 3f 64
        E 0 82 38 64
        E 0 83 38 64
        E 0 87 44 64
        E 0 88 44 64
        E 0 8d 2c 64
        E 0 90 49 64
        E 0 91 3d 64
        E 0 92 38 64
        E 0 93 31 64
        E 1 97 4c 64
        E 9 9e 49 64
        E 0 98 44 64
        E 0 9d 31 64
        E 728 88 44 64
        E 0 8d 31 64
        E 0 98 44 64
        E 0 9d 31 64
        E 737 81 3d 64
        E 1 87 4c 64
        E 1 8e 49 64
        E 0 88 44 64
        E 1 8d 31 64
        E 0 91 44 64
        E 0 9e 44 64
        E 0 98 41 63
        E 0 9d 31 64
        E 739 88 41 63
        E 0 8d 31 64
        E 1 98 41 63
        E 0 9d 31 64
        E 738 81 44 64
        E 0 8e 44 64
        E 0 88 41 63
        E 0 8d 31 64
        E 0 91 44 64
        E 1 9e 41 63
        E 0 98 3d 64
        E 0 9d 31 64
        E 734 88 3d 64
        E 0 8d 31 64
        E 0 98 3d 64
        E 1 9d 31 64
        E 737 80 49 64
        E 0 81 44 64
        E 0 82 38 64
        E 0 83 31 64
        E 0 8e 41 63
        E 0 88 3d 64
        E 0 8d 31 64
        E 1 91 45 64
        E 0 97 49 64
        E 0 9e 3d 64
        E 0 98 3d 64
        E 0 9d 36 64
        E 737 88 3d 64
        E 0 8d 36 64
        E 1 98 3d 64
        E 0 9d 36 64
        E 739 87 49 64
        E 0 8e 3d 64
        E 0 88 3d 64
        E 0 8d 36 64
        E 0 90 49 64
        E 1 97 45 64
        E 0 98 3d 64
        E 0 9d 36 64
        E 736 88 3d 64
        E 0 8d 36 64
        E 0 98 3d 64
        E 0 9d 36 64
        E 740 80 49 64
        E 0 87 45 64
        E 0 88 3d 64
        E 0 8d 36 64
        E 0 90 49 64
        E 2 97 42 64
        E 0 98 3d 64
        E 0 9d 36 64
        E 738 88 3d 64
        E 0 8d 36 64
        E 0 98 3d 64
        E 0 9d 36 64
        E 736 80 49 64
        E 0 81 45 64
        E 0 87 42 64
        E 0 88 3d 64
        E 0 8d 36 64
        E 0 90 4a 64
        E 0 91 45 64
        E 0 97 3e 64
        E 0 98 39 64
        E 0 9d 36 64
        E 740 88 39 64
        E 0 8d 36 64
        E 0 9e 45 64
        E 0 98 39 64
        E 1 9d 36 64
        E 735 87 3e 64
        E 0 8e 45 64
        E 0 88 39 64
        E 0 8d 36 64
        E 1 93 36 64
        E 0 9e 4a 64
        E 0 98 45 64
        E 0 9d 36 64
        E 739 8e 4a 64
        E 0 88 45 64
        E 0 8d 36 64
        E 0 9e 4e 64
        E 0 98 45 64
        E 0 9d 36 64
        E 740 80 4a 64
        E 0 81 45 64
        E 0 83 36 64
        E 0 8e 4e 64
        E 0 88 45 64
        E 0 8d 36 64
        E 0 90 49 64
        E 0 91 45 64
        E 0 93 36 64
        E 0 9e 51 64
        E 0 98 45 64
        E 0 9d 36 64
        E 737 8e 51 64
        E 0 88 45 64
        E 0 8d 36 64
        E 0 9e 4e 64
        E 0 98 45 64
        E 0 9d 36 64
        E 738 80 49 64
        E 0 81 45 64
        E 0 83 36 64
        E 0 8e 4e 64
        E 0 88 45 64
        E 0 8d 36 64
        E 0 90 48 63
        E 0 91 45 64
        E 0 93 38 64
        E 0 9e 4b 64
        E 0 98 44 64
        E 0 9d 38 64
        E 739 88 44 64
        E 0 8d 38 64
        E 0 97 48 63
        E 0 98 44 64
        E 0 9d 38 64
        E 740 81 45 64
        E 0 87 48 63
        E 0 8e 4b 64
        E 0 88 44 64
        E 0 8d 38 64
        E 0 91 44 64
        E 0 97 4b 64
        E 0 98 44 64
        E 0 9d 38 64
        E 737 87 4b 64
        E 0 88 44 64
        E 1 8d 38 64
        E 0 97 50 64
        E 0 98 44 64
        E 0 9d 38 64
        E 736 80 48 63
        E 0 81 44 64
        E 0 83 38 64
        E 0 87 50 64
        E 0 88 44 64
        E 0 8d 38 64
        E 0 90 48 63
        E 1 91 42 64
        E 0 93 38 64
        E 0 97 4b 64
        E 0 98 44 64
        E 0 9d 38 64
        E 738 87 4b 64
        E 0 88 44 64
        E 0 8d 38 64
        E 1 97 48 63
        E 0 98 44 64
        E 0 9d 38 64
        E 739 80 48 63
        E 0 81 42 64
        E 0 83 38 64
        E 0 87 48 63
        E 0 88 44 64
        E 0 8d 38 64
        E 0 90 49 64
        E 0 91 40 64
        E 0 93 31 64
        E 0 97 44 64
        E 0 98 44 64
        E 0 9d 31 64
        E 368 9e 44 64
        E 370 8e 44 64
        E 0 88 44 64
        E 0 8d 31 64
        E 0 9e 44 64
        E 0 98 44 64
        E 1 9d 31 64
        E 367 8e 44 64
        E 0 9e 44 64
        E 373 87 44 64
        E 0 8e 44 64
        E 0 88 44 64
        E 0 8d 31 64
        E 0 92 38 64
        E 0 9e 49 64
        E 0 98 44 64
        E 0 9d 31 64
        E 367 8e 49 64
        E 0 9e 44 64
        E 368 80 49 64
        E 0 81 40 64
        E 0 8e 44 64
        E 0 88 44 64
        E 0 8d 31 64
        E 0 90 49 64
        E 0 91 3f 64
        E 1 9e 44 64
        E 0 98 44 64
        E 0 9d 31 64
        E 369 8e 44 64
        E 1 9e 44 64
        E 369 80 49 64
        E 0 81 3f 64
        E 0 82 38 64
        E 0 83 31 64
        E 0 8e 44 64
        E 0 88 44 64
        E 0 8d 31 64
        E 0 90 49 64
        E 0 91 3d 64
        E 0 92 38 64
        E 0 93 31 64
        E 0 9e 4c 64
        E 0 98 3d 64
        E 0 9d 31 64
        E 368 8e 4c 64
        E 1 9e 49 64
        E 371 8e 49 64
        E 0 88 3d 64
        E 0 8d 31 64
        E 0 9e 49 64
        E 0 98 3d 64
        E 0 9d 31 64
        E 367 8e 49 64
        E 0 9e 49 64
        E 369 80 49 64
        E 0 81 3d 64
        E 0 82 38 64
        E 0 83 31 64
        E 0 8e 49 64
        E 0 88 3d 64
        E 0 8d 31 64
        E 0 92 39 64
        E 0 93 36 64
        E 0 9e 51 64
        E 0 98 3d 64
        E 0 9d 2a 64
        E 370 97 49 64
        E 368 87 49 64
        E 0 88 3d 64
        E 0 8d 2a 64
        E 1 97 49 64
        E 0 98 3d 64
        E 0 9d 2a 64
        E 369 87 49 64
        E 0 97 49 64
        E 370 87 49 64
        E 0 8e 51 64
        E 0 88 3d 64
        E 0 8d 2a 64
        E 0 90 45 64
        E 0 97 51 64
        E 0 98 3d 64
        E 0 9d 2a 64
        E 368 87 51 64
        E 0 97 49 64
        E 370 83 36 64
        E 0 87 49 64
        E 0 88 3d 64
        E 0 8d 2a 64
        E 0 93 36 64
        E 1 97 49 64
        E 0 98 3d 64
        E 0 9d 2a 64
        E 369 87 49 64
        E 0 97 49 64
        E 369 80 45 64
        E 0 83 36 64
        E 0 87 49 64
        E 0 88 3d 64
        E 0 8d 2a 64
        E 0 90 4e 64
        E 0 93 36 64
        E 0 97 51 64
        E 0 98 3d 64
        E 0 9d 2a 64
        E 370 87 51 64
        E 0 97 49 64
        E 368 87 49 64
        E 0 88 3d 64
        E 0 8d 2a 64
        E 0 97 49 64
        E 0 98 3d 64
        E 0 9d 2a 64
        E 369 87 49 64
        E 1 97 49 64
        E 368 80 4e 64
        E 0 82 39 64
        E 0 83 36 64
        E 0 87 49 64
        E 0 88 3d 64
        E 0 8d 2a 64
        E 0 90 4c 64
        E 0 92 3a 64
        E 0 97 3d 64
        E 0 9e 4c 64
        E 0 98 3d 64
        E 0 9d 2a 64
        E 740 88 3d 64
        E 0 8d 2a 64
        E 0 98 3d 64
        E 0 9d 2a 64
        E 736 87 3d 64
        E 0 8e 4c 64
        E 0 88 3d 64
        E 0 8d 2a 64
        E 0 93 31 64
        E 0 9e 49 64
        E 0 98 3d 64
        E 0 9d 2a 64
        E 740 88 3d 64
        E 0 8d 2a 64
        E 0 98 3d 64
        E 1 9d 2a 64
        E 736 80 4c 64
        E 0 83 31 64
        E 0 8e 49 64
        E 0 88 3d 64
        E 0 8d 2a 64
        E 0 90 4c 64
        E 0 93 31 64
        E 0 9e 46 64
        E 0 98 3d 64
        E 0 9d 2a 64
        E 739 88 3d 64
        E 0 8d 2a 64
        E 1 98 3d 64
        E 0 9d 2a 64
        E 739 80 4c 64
        E 0 82 3a 64
        E 0 83 31 64
        E 0 8e 46 64
        E 0 88 3d 64
        E 0 8d 2a 64
        E 0 90 4a 64
        E 0 92 3b 64
        E 0 93 32 64
        E 0 97 4e 64
        E 0 9e 42 64
        E 0 98 3b 64
        E 0 9d 2f 64
        E 738 88 3b 64
        E 0 8d 2f 64
        E 0 98 3b 64
        E 0 9d 2f 64
        E 739 87 4e 64
        E 0 8e 42 64
        E 0 88 3b 64
        E 0 8d 2f 64
        E 1 91 42 64
        E 0 97 4a 64
        E 0 98 3b 64
        E 1 9d 2f 64
        E 735 88 3b 64
        E 0 8d 2f 64
        E 0 98 3b 64
        E 0 9d 2f 64
        E 739 81 42 64
        E 0 87 4a 64
        E 0 88 3b 64
        E 0 8d 2f 64
        E 0 91 42 64
        E 0 97 47 64
        E 1 98 36 64
        E 0 9d 2f 64
        E 739 88 36 64
        E 0 8d 2f 64
        E 0 98 36 64
        E 0 9d 2f 64
        E 736 80 4a 64
        E 0 81 42 64
        E 0 82 3b 64
        E 0 83 32 64
        E 0 87 47 64
        E 0 88 36 64
        E 0 8d 2f 64
        E 0 91 42 64
        E 0 92 3c 63
        E 0 93 33 64
        E 0 97 3f 64
        E 0 98 38 64
        E 0 9d 2c 64
        E 744 88 38 64
        E 0 8d 2c 64
        E 0 9e 42 64
        E 0 98 38 64
        E 0 9d 2c 64
        E 733 81 42 64
        E 3 87 3f 64
        E 2 8e 42 64
        E 0 88 38 64
        E 0 8d 2c 64
        E 0 91 42 64
        E 7 9e 48 63
        E 0 98 38 64
        E 0 9d 2c 64
        E 726 8e 48 63
        E 0 88 38 64
        E 0 8d 2c 64
        E 0 9e 4b 64
        E 0 98 38 64
        E 0 9d 2c 64
        E 744 81 42 64
        E 0 8e 4b 64
        E 0 88 38 64
        E 0 8d 2c 64
        E 1 91 42 64
        E 0 9e 4e 64
        E 0 98 38 64
        E 0 9d 2c 64
        E 732 81 42 64
        E 0 8e 4e 64
        E 0 88 38 64
        E 0 8d 2c 64
        E 0 91 42 64
        E 0 9e 48 63
        E 0 98 38 64
        E 0 9d 2c 64
        E 738 81 42 64
        E 0 82 3c 63
        E 0 83 33 64
        E 0 8e 48 63
        E 0 88 38 64
        E 0 8d 2c 64
        E 0 91 40 64
        E 0 92 3d 64
        E 0 93 34 64
        E 0 9e 44 64
        E 0 98 38 64
        E 0 9d 31 64
        E 741 88 38 64
        E 0 8d 31 64
        E 0 97 49 64
        E 0 98 38 64
        E 0 9d 31 64
        E 369 81 40 64
        E 0 91 42 64
        E 367 81 42 64
        E 0 82 3d 64
        E 0 87 49 64
        E 0 8e 44 64
        E 0 88 38 64
        E 0 8d 31 64
        E 0 90 49 64
        E 0 91 44 64
        E 0 92 31 64
        E 0 97 4c 64
        E 0 98 38 64
        E 0 9d 31 64
        E 740 87 4c 64
        E 0 88 38 64
        E 0 8d 31 64
        E 0 97 50 64
        E 0 98 38 64
        E 0 9d 31 64
        E 737 80 49 64
        E 0 87 50 64
        E 0 88 38 64
        E 0 8d 31 64
        E 1 90 49 64
        E 0 97 4c 64
        E 0 98 38 64
        E 0 9d 31 64
        E 740 87 4c 64
        E 0 88 38 64
        E 0 8d 31 64
        E 0 97 49 64
        E 0 98 38 64
        E 0 9d 31 64
        E 739 80 49 64
        E 0 81 44 64
        E 0 82 31 64
        E 0 83 34 64
        E 0 87 49 64
        E 0 88 38 64
        E 0 8d 31 64
        E 0 90 49 64
        E 0 91 44 64
        E 0 93 35 63
        E 0 97 44 64
        E 0 98 38 64
        E 0 9d 31 64
        E 366 9e 49 64
        E 371 8e 49 64
        E 0 88 38 64
        E 0 8d 31 64
        E 0 9e 49 64
        E 0 98 38 64
        E 0 9d 31 64
        E 370 8e 49 64
        E 1 9e 49 64
        E 367 80 49 64
        E 0 87 44 64
        E 0 8e 49 64
        E 0 88 38 64
        E 0 8d 31 64
        E 1 90 49 64
        E 0 9e 4d 63
        E 0 98 38 64
        E 0 9d 31 64
        E 367 8e 4d 63
        E 0 9e 49 64
        E 371 81 44 64
        E 0 8e 49 64
        E 0 88 38 64
        E 0 8d 31 64
        E 1 91 44 64
        E 0 9e 49 64
        E 0 98 38 64
        E 0 9d 31 64
        E 368 8e 49 64
        E 0 9e 49 64
        E 369 80 49 64
        E 0 81 44 64
        E 0 8e 49 64
        E 0 88 38 64
        E 0 8d 31 64
        E 0 90 47 64
        E 0 91 44 64
        E 0 9e 50 64
        E 0 98 41 63
        E 0 9d 31 64
        E 369 8e 50 64
        E 0 9e 49 64
        E 369 80 47 64
        E 0 81 44 64
        E 0 8e 49 64
        E 0 88 41 63
        E 0 8d 31 64
        E 0 90 47 64
        E 0 91 44 64
        E 0 9e 49 64
        E 1 98 41 63
        E 0 9d 31 64
        E 368 8e 49 64
        E 0 9e 49 64
        E 370 80 47 64
        E 0 81 44 64
        E 0 83 35 63
        E 0 8e 49 64
        E 0 88 41 63
        E 0 8d 31 64
        E 0 90 45 64
        E 1 91 3d 64
        E 0 93 36 64
        E 0 9e 51 64
        E 0 98 3d 64
        E 0 9d 2a 64
        E 370 97 49 64
        E 367 87 49 64
        E 0 88 3d 64
        E 0 8d 2a 64
        E 0 97 49 64
        E 0 98 3d 64
        E 1 9d 2a 64
        E 369 80 45 64
        E 0 87 49 64
        E 0 90 47 64
        E 0 97 49 64
        E 370 80 47 64
        E 0 81 3d 64
        E 0 83 36 64
        E 0 87 49 64
        E 0 8e 51 64
        E 0 88 3d 64
        E 0 8d 2a 64
        E 0 90 49 64
        E 0 91 3d 64
        E 0 92 3d 64
        E 0 93 2a 64
        E 0 97 51 64
        E 0 98 3d 64
        E 0 9d 2a 64
        E 367 87 51 64
        E 1 97 49 64
        E 370 87 49 64
        E 0 88 3d 64
        E 0 8d 2a 64
        E 0 97 49 64
        E 0 98 3d 64
        E 0 9d 2a 64
        E 369 87 49 64
        E 0 97 49 64
        E 370 80 49 64
        E 0 81 3d 64
        E 0 82 3d 64
        E 0 87 49 64
        E 0 88 3d 64
        E 0 8d 2a 64
        E 0 92 3e 64
        E 0 97 51 64
        E 0 98 42 64
        E 0 9d 2a 64
        E 367 87 51 64
        E 0 97 49 64
        E 374 87 49 64
        E 0 88 42 64
        E 1 8d 2a 64
        E 4 97 49 64
        E 0 98 42 64
        E 1 9d 2a 64
        E 359 87 49 64
        E 0 97 49 64
        E 369 82 3e 64
        E 0 83 2a 64
        E 0 87 49 64
        E 0 88 42 64
        E 0 8d 2a 64
        E 0 90 44 64
        E 0 92 3e 64
        E 0 97 47 64
        E 0 98 44 64
        E 0 9d 28 64
        E 740 88 44 64
        E 0 8d 28 64
        E 1 9e 47 64
        E 0 98 44 64
        E 0 9d 28 64
        E 367 80 44 64
        E 1 90 45 64
        E 368 80 45 64
        E 0 87 47 64
        E 0 8e 47 64
        E 0 88 44 64
        E 0 8d 28 64
        E 0 90 47 64
        E 1 91 44 64
        E 0 93 34 64
        E 0 9e 4c 64
        E 0 98 44 64
        E 0 9d 28 64
        E 739 8e 4c 64
        E 0 88 44 64
        E 0 8d 28 64
        E 0 9e 50 64
        E 0 98 40 64
        E 0 9d 28 64
        E 738 80 47 64
        E 0 81 44 64
        E 3 82 3e 64
        E 0 83 34 64
        E 0 8e 50 64
        E 0 88 40 64
        E 0 8d 28 64
        E 2 90 49 64
        E 3 91 45 64
        E 0 92 3d 64
        E 0 93 2d 64
        E 0 9e 4c 64
        E 0 98 40 64
        E 1 9d 2d 64
        E 730 8e 4c 64
        E 0 88 40 64
        E 0 8d 2d 64
        E 0 9e 49 64
        E 0 98 40 64
        E 0 9d 2d 64
        E 367 80 49 64
        E 0 90 4a 64
        E 371 80 4a 64
        E 0 81 45 64
        E 0 82 3d 64
        E 0 83 2d 64
        E 0 8e 49 64
        E 0 88 40 64
        E 0 8d 2d 64
        E 0 90 4c 64
        E 0 91 43 64
        E 0 92 3d 64
        E 0 93 2d 64
        E 0 9e 45 64
        E 0 98 40 64
        E 0 9d 2d 64
        E 738 88 40 64
        E 0 8d 2d 64
        E 0 97 45 64
        E 0 98 40 64
        E 0 9d 2d 64
        E 738 87 45 64
        E 0 8e 45 64
        E 0 88 40 64
        E 0 8d 2d 64
        E 0 97 49 64
        E 0 98 45 64
        E 0 9d 2d 64
        E 739 80 4c 64
        E 0 87 49 64
        E 0 88 45 64
        E 0 8d 2d 64
        E 1 90 49 64
        E 0 97 4c 64
        E 0 98 45 64
        E 0 9d 2d 64
        E 736 80 49 64
        E 0 81 43 64
        E 0 82 3d 64
        E 0 83 2d 64
        E 0 87 4c 64
        E 0 88 45 64
        E 0 8d 2d 64
        E 0 90 45 64
        E 0 91 42 64
        E 0 92 3e 64
        E 0 93 32 64
        E 0 97 51 64
        E 0 98 45 64
        E 0 9d 32 64
        E 740 87 51 64
        E 1 88 45 64
        E 0 8d 32 64
        E 0 97 4e 64
        E 0 98 45 64
        E 0 9d 32 64
        E 736 80 45 64
        E 0 81 42 64
        E 0 82 3e 64
        E 0 83 32 64
        E 0 87 4e 64
        E 1 88 45 64
        E 0 8d 32 64
        E 0 90 45 64
        E 0 91 42 64
        E 0 92 3e 64
        E 0 93 2d 64
        E 0 97 45 64
        E 0 98 45 64
        E 0 9d 2d 64
        E 738 88 45 64
        E 0 8d 2d 64
        E 0 9e 45 64
        E 0 98 45 64
        E 0 9d 2d 64
        E 740 80 45 64
        E 0 81 42 64
        E 0 82 3e 64
        E 0 87 45 64
        E 0 8e 45 64
        E 0 88 45 64
        E 0 8d 2d 64
        E 0 90 45 64
        E 0 91 40 64
        E 0 92 3d 64
        E 0 9e 49 64
        E 0 98 45 64
        E 0 9d 2d 64
        E 737 8e 49 64
        E 0 88 45 64
        E 0 8d 2d 64
        E 0 9e 4c 64
        E 0 98 45 64
        E 0 9d 2d 64
        E 738 81 40 64
        E 0 8e 4c 64
        E 0 88 45 64
        E 0 8d 2d 64
        E 0 91 40 64
        E 0 9e 51 64
        E 0 98 45 64
        E 0 9d 2d 64
        E 740 8e 51 64
        E 0 88 45 64
        E 0 8d 2d 64
        E 0 9e 49 64
        E 0 98 45 64
        E 1 9d 2d 64
        E 737 80 45 64
        E 0 81 40 64
        E 0 82 3d 64
        E 0 83 2d 64
        E 0 8e 49 64
        E 0 88 45 64
        E 0 8d 2d 64
        E 0 90 45 64
        E 0 91 41 64
        E 0 92 3e 64
        E 0 93 32 64
        E 0 97 4a 64
        E 0 9e 45 64
        E 0 98 41 64
        E 0 9d 32 64
        E 738 88 41 64
        E 0 8d 32 64
        E 0 98 41 64
        E 0 9d 32 64
        E 737 80 45 64
        E 0 87 4a 64
        E 0 8e 45 64
        E 0 88 41 64
        E 0 8d 32 64
        E 1 90 45 64
        E 0 97 45 64
        E 0 98 41 64
        E 0 9d 32 64
        E 740 88 41 64
        E 0 8d 32 64
        E 0 98 41 64
        E 0 9d 32 64
        E 737 80 45 64
        E 1 87 45 64
        E 0 88 41 64
        E 0 8d 32 64
        E 0 90 45 64
        E 0 97 41 64
        E 0 98 3e 64
        E 0 9d 32 64
        E 737 88 3e 64
        E 0 8d 32 64
        E 0 98 3e 64
        E 0 9d 32 64
        E 744 80 45 64
        E 1 81 41 64
        E 0 82 3e 64
        E 0 83 32 64
        E 0 87 41 64
        E 0 88 3e 64
        E 0 8d 32 64
        E 0 90 46 66
        E 0 91 41 64
        E 0 97 3e 64
        E 0 9e 4a 64
        E 0 98 3a 66
        E 0 9d 37 64
        E 732 88 3a 66
        E 0 8d 37 64
        E 0 98 3a 66
        E 1 9d 37 64
        E 742 87 3e 64
        E 0 8e 4a 64
        E 0 88 3a 66
        E 0 8d 37 64
        E 1 9e 46 66
        E 0 98 3a 66
        E 0 9d 37 64
        E 735 88 3a 66
        E 1 8d 37 64
        E 1 98 3a 66
        E 0 9d 37 64
        E 735 81 41 64
        E 0 8e 46 66
        E 0 88 3a 66
        E 0 8d 37 64
        E 0 91 41 64
        E 0 9e 41 64
        E 0 98 3a 66
        E 0 9d 37 64
        E 740 88 3a 66
        E 0 8d 37 64
        E 0 98 3a 66
        E 0 9d 37 64
        E 736 80 46 66
        E 1 81 41 64
        E 0 8e 41 64
        E 0 88 3a 66
        E 0 8d 37 64
        E 0 90 46 66
        E 0 91 3f 66
        E 0 9e 3a 66
        E 0 98 3a 66
        E 0 9d 37 64
        E 739 88 3a 66
        E 1 8d 37 64
        E 0 97 3f 66
        E 0 98 3a 66
        E 0 9d 37 64
        E 739 87 3f 66
        E 0 8e 3a 66
        E 1 88 3a 66
        E 1 8d 37 64
        E 1 93 37 64
        E 0 97 43 64
        E 0 98 3f 66
        E 0 9d 37 64
        E 733 87 43 64
        E 0 88 3f 66
        E 0 8d 37 64
        E 0 97 46 66
        E 0 98 3f 66
        E 0 9d 37 64
        E 739 80 46 66
        E 0 81 3f 66
        E 0 83 37 64
        E 0 87 46 66
        E 0 88 3f 66
        E 0 8d 37 64
        E 1 90 46 66
        E 0 91 3e 64
        E 0 93 37 64
        E 0 97 4a 64
        E 0 98 3f 66
        E 0 9d 37 64
        E 739 87 4a 64
        E 1 88 3f 66
        E 1 8d 37 64
        E 0 97 46 66
        E 0 98 3f 66
        E 0 9d 37 64
        E 735 80 46 66
        E 0 81 3e 64
        E 0 83 37 64
        E 0 87 46 66
        E 0 88 3f 66
        E 0 8d 37 64
        E 0 90 46 66
        E 0 91 3d 64
        E 0 93 39 64
        E 0 97 40 64
        E 0 98 40 64
        E 0 9d 39 64
        E 739 88 40 64
        E 0 8d 39 64
        E 0 9e 40 64
        E 0 98 40 64
        E 0 9d 39 64
        E 739 80 46 66
        E 0 87 40 64
        E 0 8e 40 64
        E 0 88 40 64
        E 0 8d 39 64
        E 0 90 45 64
        E 0 9e 45 64
        E 0 98 40 64
        E 0 9d 39 64
        E 737 8e 45 64
        E 0 88 40 64
        E 0 8d 39 64
        E 0 9e 49 64
        E 0 98 40 64
        E 0 9d 39 64
        E 740 80 45 64
        E 0 81 3d 64
        E 0 83 39 64
        E 0 8e 49 64
        E 0 88 40 64
        E 0 8d 39 64
        E 0 90 43 64
        E 0 91 3d 64
        E 0 93 39 64
        E 0 9e 4c 64
        E 0 98 40 64
        E 0 9d 39 64
        E 738 8e 4c 64
        E 0 88 40 64
        E 0 8d 39 64
        E 0 9e 49 64
        E 0 98 40 64
        E 0 9d 39 64
        E 738 80 43 64
        E 0 81 3d 64
        E 0 83 39 64
        E 0 8e 49 64
        E 0 88 40 64
        E 0 8d 39 64
        E 0 90 42 64
        E 0 91 3e 64
        E 0 93 32 64
        E 0 9e 45 64
        E 0 98 42 64
        E 0 9d 32 64
        E 369 97 45 64
        E 368 87 45 64
        E 0 88 42 64
        E 0 8d 32 64
        E 1 97 45 64
        E 0 98 42 64
        E 1 9d 32 64
        E 370 87 45 64
        E 1 97 45 64
        E 367 87 45 64
        E 0 8e 45 64
        E 0 88 42 64
        E 0 8d 32 64
        E 0 97 4a 64
        E 0 98 42 64
        E 0 9d 32 64
        E 367 87 4a 64
        E 1 97 45 64
        E 372 80 42 64
        E 0 87 45 64
        E 0 88 42 64
        E 0 8d 32 64
        E 0 90 40 64
        E 0 97 45 64
        E 0 98 42 64
        E 0 9d 32 64
        E 369 87 45 64
        E 0 97 45 64
        E 367 80 40 64
        E 0 87 45 64
        E 0 88 42 64
        E 0 8d 32 64
        E 1 90 3e 64
        E 0 97 4a 64
        E 0 98 42 64
        E 0 9d 32 64
        E 369 87 4a 64
        E 0 97 45 64
        E 369 87 45 64
        E 0 88 42 64
        E 0 8d 32 64
        E 0 97 45 64
        E 0 98 42 64
        E 0 9d 32 64
        E 369 87 45 64
        E 0 97 45 64
        E 371 80 3e 64
        E 0 81 3e 64
        E 0 83 32 64
        E 0 87 45 64
        E 0 88 42 64
        E 0 8d 32 64
        E 1 90 48 64
        E 0 91 45 64
        E 1 92 42 64
        E 3 93 32 64
        E 0 97 4e 64
        E 0 9e 48 64
        E 0 98 3e 64
        E 0 9d 32 64
        E 363 87 4e 64
        E 0 8e 48 64
        E 0 97 48 64
        E 0 9e 45 64
        E 369 87 48 64
        E 0 8e 45 64
        E 0 88 3e 64
        E 0 8d 32 64
        E 0 97 48 64
        E 0 9e 45 64
        E 0 98 3e 64
        E 0 9d 32 64
        E 369 87 48 64
        E 0 8e 45 64
        E 0 97 48 64
        E 0 9e 45 64
        E 370 87 48 64
        E 0 8e 45 64
        E 0 88 3e 64
        E 0 8d 32 64
        E 0 97 4e 64
        E 0 9e 48 64
        E 0 98 3e 64
        E 0 9d 32 64
        E 368 87 4e 64
        E 0 8e 48 64
        E 0 97 48 64
        E 0 9e 45 64
        E 372 80 48 64
        E 0 81 45 64
        E 0 82 42 64
        E 1 83 32 64
        E 0 87 48 64
        E 0 8e 45 64
        E 0 88 3e 64
        E 0 8d 32 64
        E 0 90 48 64
        E 0 91 45 64
        E 0 92 42 64
        E 1 93 32 64
        E 0 97 48 64
        E 0 9e 45 64
        E 0 98 3e 64
        E 1 9d 32 64
        E 365 87 48 64
        E 0 8e 45 64
        E 0 97 48 64
        E 0 9e 45 64
        E 368 80 48 64
        E 0 81 45 64
        E 0 82 42 64
        E 0 83 32 64
        E 0 87 48 64
        E 0 8e 45 64
        E 0 88 3e 64
        E 0 8d 32 64
        E 0 90 48 64
        E 0 91 45 64
        E 0 92 42 64
        E 0 93 32 64
        E 0 97 51 64
        E 0 9e 4e 64
        E 0 98 3e 64
        E 0 9d 32 64
        E 19475 87 51 64
        E 0 8e 4e 64
        E 0 97 4e 64
        E 0 9e 45 64
        E 0 80 48 64
        E 0 81 45 64
        E 0 82 42 64
        E 0 83 32 64
        E 0 87 4e 64
        E 0 8e 45 64
        E 0 88 3e 64
        E 0 8d 32 64
        E 0 90 48 64
        E 0 91 45 64
        E 0 92 42 64
        E 0 93 32 64
        E 0 97 4e 64
        E 0 9e 45 64
        E 0 98 3e 64
        E 1 9d 32 64
        E 0 87 4e 64
        E 0 8e 45 64
        E 0 97 4e 64
        E 0 9e 45 64
        E 0 80 48 64
        E 0 81 45 64
        E 0 82 42 64
        E 0 83 32 64
        E 0 87 4e 64
        E 0 8e 45 64
        E 0 88 3e 64
        E 0 8d 32 64
        E 0 90 46 66
        E 0 91 43 64
        E 0 92 3e 64
        E 0 93 37 64
        E 0 97 4f 64
        E 0 9e 46 66
        E 0 98 3e 64
        E 0 9d 37 64
        E 0 87 4f 64
        E 0 8e 46 66
        E 0 97 4a 64
        E 0 9e 46 66
        E 0 87 4a 64
        E 0 8e 46 66
        E 0 88 3e 64
        E 0 8d 37 64
        E 0 97 4a 64
        E 0 9e 46 66
        E 0 98 3e 64
        E 0 9d 37 64
        E 0 87 4a 64
        E 0 8e 46 66
        E 0 97 4a 64
        E 0 9e 46 66
        E 1 87 4a 64
        E 0 8e 46 66
        E 0 88 3e 64
        E 0 8d 37 64
        E 0 97 4f 64
        E 0 9e 4a 64
        E 0 98 3e 64
        E 0 9d 37 64
        E 0 87 4f 64
        E 0 8e 4a 64
        E 0 97 4a 64
        E 0 9e 46 66
        E 0 87 4a 64
        E 0 8e 46 66
        E 0 88 3e 64
        E 0 8d 37 64
        E 0 97 4a 64
        E 0 9e 46 66
        E 0 98 3e 64
        E 0 9d 37 64
        E 0 87 4a 64
        E 0 8e 46 66
        E 0 97 4a 64
        E 0 9e 46 66
        E 0 87 4a 64
        E 0 8e 46 66
        E 0 88 3e 64
        E 0 8d 37 64
        E 0 97 4f 64
        E 0 9e 4a 64
        E 0 98 3e 64
        E 0 9d 37 64
        E 0 87 4f 64
        E 0 8e 4a 64
        E 0 97 4a 64
        E 0 9e 46 66
        E 0 87 4a 64
        E 0 8e 46 66
        E 0 88 3e 64
        E 0 8d 37 64
        E 0 97 4a 64
        E 0 9e 46 66
        E 0 98 3e 64
        E 0 9d 37 64
        E 0 87 4a 64
        E 0 8e 46 66
        E 0 97 4a 64
        E 0 9e 46 66
        E 0 80 46 66
        E 0 81 43 64
        E 0 82 3e 64
        E 0 83 37 64
        E 0 87 4a 64
        E 0 8e 46 66
        E 0 88 3e 64
        E 0 8d 37 64
        E 0 90 4b 66
        E 0 91 43 64
        E 0 92 3a 66
        E 0 93 37 64
        E 0 97 4f 64
        E 0 9e 4b 66
        E 0 98 3f 66
        E 0 9d 37 64
        E 0 87 4f 64
        E 0 8e 4b 66
        E 0 97 4b 66
        E 0 9e 46 66
        E 0 87 4b 66
        E 1 8e 46 66
        E 0 88 3f 66
        E 0 8d 37 64
        E 0 97 4b 66
        E 0 9e 46 66
        E 0 98 3f 66
        E 0 9d 37 64
        E 1 87 4b 66
        E 0 8e 46 66
        E 0 97 4b 66
        E 0 9e 46 66
        E 0 87 4b 66
        E 0 8e 46 66
        E 0 88 3f 66
        E 0 8d 37 64
        E 3 97 4f 64
        E 0 9e 4b 66
        E 0 98 3f 66
        E 1 9d 37 64
        E 0 87 4f 64
        E 0 8e 4b 66
        E 0 97 4b 66
        E 0 9e 46 66
        E 0 87 4b 66
        E 0 8e 46 66
        E 0 88 3f 66
        E 0 8d 37 64
        E 0 97 4b 66
        E 0 9e 46 66
        E 0 98 3f 66
        E 0 9d 37 64
        E 0 87 4b 66
        E 0 8e 46 66
        E 0 97 4b 66
        E 0 9e 46 66
        E 0 80 4b 66
        E 0 87 4b 66
        E 0 8e 46 66
        E 0 88 3f 66
        E 0 8d 37 64
        E 0 90 4a 64
        E 0 97 4f 64
        E 0 9e 4a 64
        E 0 98 3f 66
        E 0 9d 37 64
        E 1 87 4f 64
        E 0 8e 4a 64
        E 0 97 4a 64
        E 0 9e 46 66
        E 0 87 4a 64
        E 0 8e 46 66
        E 0 88 3f 66
        E 0 8d 37 64
        E 0 97 4a 64
        E 0 9e 46 66
        E 0 98 3f 66
        E 0 9d 37 64
        E 1 87 4a 64
        E 0 8e 46 66
        E 0 97 4a 64
        E 0 9e 46 66
        E 0 80 4a 64
        E 0 81 43 64
        E 0 82 3a 66
        E 0 83 37 64
        E 0 87 4a 64
        E 0 8e 46 66
        E 0 88 3f 66
        E 0 8d 37 64
        E 0 90 49 64
        E 0 91 40 64
        E 0 92 3a 66
        E 0 93 37 64
        E 0 97 4f 64
        E 1 9e 4c 64
        E 0 98 40 64
        E 0 9d 37 64
        E 0 87 4f 64
        E 0 8e 4c 64
        E 0 97 4c 64
        E 2 9e 49 64
        E 0 87 4c 64
        E 0 8e 49 64
        E 0 88 40 64
        E 0 8d 37 64
        E 0 97 4c 64
        E 0 9e 49 64
        E 1 98 40 64
        E 0 9d 37 64
        E 0 87 4c 64
        E 0 8e 49 64
        E 0 97 4c 64
        E 0 9e 49 64
        E 0 87 4c 64
        E 0 8e 49 64
        E 0 88 40 64
        E 0 8d 37 64
        E 0 97 4f 64
        E 0 9e 4c 64
        E 0 98 40 64
        E 0 9d 37 64
        E 0 87 4f 64
        E 0 8e 4c 64
        E 0 97 4c 64
        E 1 9e 49 64
        E 0 87 4c 64
        E 0 8e 49 64
        E 0 88 40 64
        E 0 8d 37 64
        E 0 97 4c 64
        E 0 9e 49 64
        E 0 98 40 64
        E 0 9d 37 64
        E 0 87 4c 64
        E 0 8e 49 64
        E 0 97 4c 64
        E 0 9e 49 64
        E 0 87 4c 64
        E 0 8e 49 64
        E 0 88 40 64
        E 0 8d 37 64
        E 0 97 4f 64
        E 0 9e 4c 64
        E 0 98 40 64
        E 1 9d 37 64
        E 0 87 4f 64
        E 0 8e 4c 64
        E 0 97 4c 64
        E 0 9e 49 64
        E 0 87 4c 64
        E 0 8e 49 64
        E 0 88 40 64
        E 0 8d 37 64
        E 0 97 4c 64
        E 0 9e 49 64
        E 0 98 40 64
        E 0 9d 37 64
        E 0 87 4c 64
        E 0 8e 49 64
        E 0 97 4c 64
        E 1 9e 49 64
        E 0 80 49 64
        E 0 81 40 64
        E 0 82 3a 66
        E 0 83 37 64
        E 0 87 4c 64
        E 0 8e 49 64
        E 0 88 40 64
        E 0 8d 37 64
        E 0 90 4a 64
        E 0 91 43 64
        E 0 92 3b 64
        E 0 93 35 64
        E 0 97 4f 64
        E 0 9e 4a 64
        E 0 98 41 64
        E 1 9d 35 64
        E 0 87 4f 64
        E 0 8e 4a 64
        E 0 97 4a 64
        E 0 9e 47 64
        E 0 87 4a 64
        E 0 8e 47 64
        E 0 88 41 64
        E 0 8d 35 64
        E 0 97 4a 64
        E 0 9e 47 64
        E 0 98 41 64
        E 0 9d 35 64
        E 0 87 4a 64
        E 0 8e 47 64
        E 0 97 4a 64
        E 0 9e 47 64
        E 0 87 4a 64
        E 0 8e 47 64
        E 0 88 41 64
        E 0 8d 35 64
        E 0 97 4f 64
        E 0 9e 4a 64
        E 0 98 41 64
        E 0 9d 35 64
        E 0 87 4f 64
        E 0 8e 4a 64
        E 1 97 4a 64
        E 0 9e 47 64
        E 0 87 4a 64
        E 0 8e 47 64
        E 0 88 41 64
        E 0 8d 35 64
        E 0 97 4a 64
        E 0 9e 47 64
        E 0 98 41 64
        E 0 9d 35 64
        E 0 87 4a 64
        E 0 8e 47 64
        E 1 97 4a 64
        E 0 9e 47 64
        E 0 87 4a 64
        E 0 8e 47 64
        E 0 88 41 64
        E 0 8d 35 64
        E 0 97 4f 64
        E 0 9e 4a 64
        E 0 98 41 64
        E 0 9d 35 64
        E 0 87 4f 64
        E 0 8e 4a 64
        E 0 97 4a 64
        E 0 9e 47 64
        E 0 87 4a 64
        E 0 8e 47 64
        E 1 88 41 64
        E 0 8d 35 64
        E 0 97 4a 64
        E 0 9e 47 64
        E 0 98 41 64
        E 0 9d 35 64
        E 0 87 4a 64
        E 0 8e 47 64
        E 0 97 4a 64
        E 0 9e 47 64
        E 0 80 4a 64
        E 0 81 43 64
        E 0 82 3b 64
        E 0 83 35 64
        E 0 87 4a 64
        E 0 8e 47 64
        E 0 88 41 64
        E 0 8d 35 64
        E 0 90 49 64
        E 0 91 43 64
        E 0 92 3b 64
        E 0 93 36 64
        E 0 97 4f 64
        E 0 9e 49 64
        E 0 98 42 64
        E 0 9d 36 64
        E 19203 87 4f 64
        E 0 8e 49 64
        E 0 97 49 64
        E 0 9e 47 64
        E 0 87 49 64
        E 0 8e 47 64
        E 0 88 42 64
        E 0 8d 36 64
        E 0 97 49 64
        E 0 9e 47 64
        E 0 98 42 64
        E 0 9d 36 64
        E 0 87 49 64
        E 0 8e 47 64
        E 0 97 49 64
        E 0 9e 47 64
        E 0 87 49 64
        E 0 8e 47 64
        E 0 88 42 64
        E 0 8d 36 64
        E 0 97 4f 64
        E 0 9e 49 64
        E 0 98 42 64
        E 0 9d 36 64
        E 0 87 4f 64
        E 0 8e 49 64
        E 0 97 49 64
        E 1 9e 47 64
        E 0 87 49 64
        E 0 8e 47 64
        E 0 88 42 64
        E 0 8d 36 64
        E 0 97 49 64
        E 0 9e 47 64
        E 0 98 42 64
        E 0 9d 36 64
        E 0 87 49 64
        E 0 8e 47 64
        E 0 97 49 64
        E 0 9e 47 64
        E 0 87 49 64
        E 0 8e 47 64
        E 0 88 42 64
        E 0 8d 36 64
        E 0 97 4f 64
        E 0 9e 49 64
        E 0 98 42 64
        E 0 9d 36 64
        E 0 87 4f 64
        E 0 8e 49 64
        E 0 97 49 64
        E 0 9e 47 64
        E 0 87 49 64
        E 0 8e 47 64
        E 0 88 42 64
        E 0 8d 36 64
        E 0 97 49 64
        E 0 9e 47 64
        E 0 98 42 64
        E 0 9d 36 64
        E 0 87 49 64
        E 0 8e 47 64
        E 0 97 49 64
        E 0 9e 47 64
        E 0 80 49 64
        E 0 81 43 64
        E 0 82 3b 64
        E 0 83 36 64
        E 0 87 49 64
        E 0 8e 47 64
        E 0 88 42 64
        E 0 8d 36 64
        E 0 90 49 64
        E 0 91 42 64
        E 0 92 3a 64
        E 0 93 36 64
        E 0 97 4e 64
        E 0 9e 49 64
        E 0 98 42 64
        E 0 9d 36 64
        E 1 87 4e 64
        E 0 8e 49 64
        E 0 97 49 64
        E 0 9e 46 64
        E 0 87 49 64
        E 0 8e 46 64
        E 0 88 42 64
        E 0 8d 36 64
        E 0 97 49 64
        E 0 9e 46 64
        E 0 98 42 64
        E 0 9d 36 64
        E 0 87 49 64
        E 0 8e 46 64
        E 0 97 49 64
        E 0 9e 46 64
        E 0 87 49 64
        E 0 8e 46 64
        E 0 88 42 64
        E 0 8d 36 64
        E 0 97 4e 64
        E 0 9e 49 64
        E 0 98 42 64
        E 0 9d 36 64
        E 0 87 4e 64
        E 0 8e 49 64
        E 0 97 49 64
        E 1 9e 46 64
        E 0 87 49 64
        E 0 8e 46 64
        E 0 88 42 64
        E 0 8d 36 64
        E 0 97 49 64
        E 0 9e 46 64
        E 0 98 42 64
        E 0 9d 36 64
        E 0 87 49 64
        E 0 8e 46 64
        E 0 97 49 64
        E 0 9e 46 64
        E 0 80 49 64
        E 0 87 49 64
        E 0 8e 46 64
        E 0 88 42 64
        E 0 8d 36 64
        E 0 90 46 64
        E 0 97 4e 64
        E 0 9e 49 64
        E 0 98 42 64
        E 0 9d 36 64
        E 0 87 4e 64
        E 0 8e 49 64
        E 0 97 49 64
        E 0 9e 46 64
        E 0 87 49 64
        E 0 8e 46 64
        E 0 88 42 64
        E 0 8d 36 64
        E 1 97 49 64
        E 0 9e 46 64
        E 0 98 42 64
        E 0 9d 36 64
        E 0 87 49 64
        E 0 8e 46 64
        E 0 97 49 64
        E 0 9e 46 64
        E 0 80 46 64
        E 0 81 42 64
        E 0 82 3a 64
        E 0 83 36 64
        E 0 87 49 64
        E 0 8e 46 64
        E 0 88 42 64
        E 0 8d 36 64
        E 0 90 42 64
        E 0 91 3f 64
        E 1 92 39 64
        E 0 93 2f 64
        E 0 97 4b 64
        E 0 9e 47 64
        E 0 98 42 64
        E 1 9d 2f 64
        E 0 87 4b 64
        E 0 8e 47 64
        E 0 97 47 64
        E 0 9e 42 64
        E 0 87 47 64
        E 0 8e 42 64
        E 0 88 42 64
        E 0 8d 2f 64
        E 0 97 47 64
        E 0 9e 42 64
        E 0 98 42 64
        E 0 9d 2f 64
        E 0 87 47 64
        E 0 8e 42 64
        E 0 97 47 64
        E 0 9e 42 64
        E 0 87 47 64
        E 0 8e 42 64
        E 0 88 42 64
        E 0 8d 2f 64
        E 0 97 4b 64
        E 0 9e 47 64
        E 0 98 3f 64
        E 0 9d 2f 64
        E 0 87 4b 64
        E 0 8e 47 64
        E 0 97 47 64
        E 0 9e 42 64
        E 0 87 47 64
        E 0 8e 42 64
        E 0 88 3f 64
        E 0 8d 2f 64
        E 1 97 47 64
        E 0 9e 42 64
        E 0 98 3f 64
        E 0 9d 2f 64
        E 0 87 47 64
        E 0 8e 42 64
        E 0 97 47 64
        E 0 9e 42 64
        E 0 80 42 64
        E 0 81 3f 64
        E 0 82 39 64
        E 0 87 47 64
        E 0 8e 42 64
        E 0 88 3f 64
        E 0 8d 2f 64
        E 0 90 43 64
        E 0 91 40 64
        E 0 92 37 64
        E 1 97 4c 64
        E 0 9e 47 64
        E 1 98 3b 64
        E 0 9d 2f 64
        E 0 87 4c 64
        E 0 8e 47 64
        E 0 97 47 64
        E 0 9e 43 64
        E 0 87 47 64
        E 0 8e 43 64
        E 0 88 3b 64
        E 0 8d 2f 64
        E 0 97 47 64
        E 1 9e 43 64
        E 0 98 3b 64
        E 0 9d 2f 64
        E 0 87 47 64
        E 0 8e 43 64
        E 0 97 47 64
        E 0 9e 43 64
        E 0 80 43 64
        E 0 81 40 64
        E 0 82 37 64
        E 0 83 2f 64
        E 0 87 47 64
        E 0 8e 43 64
        E 0 88 3b 64
        E 0 8d 2f 64
        E 0 90 43 64
        E 0 91 40 64
        E 0 92 3b 64
        E 0 93 2f 64
        E 0 97 4f 64
        E 0 9e 4c 64
        E 0 98 3b 64
        E 1 9d 2f 64
        E 0 87 4f 64
        E 0 8e 4c 64
        E 0 97 4c 64
        E 0 9e 47 64
        E 0 87 4c 64
        E 0 8e 47 64
        E 0 88 3b 64
        E 0 8d 2f 64
        E 0 97 4c 64
        E 0 9e 47 64
        E 0 98 3b 64
        E 0 9d 2f 64
        E 1 87 4c 64
        E 0 8e 47 64
        E 1 97 4c 64
        E 0 9e 47 64
        E 0 80 43 64
        E 0 81 40 64
        E 0 87 4c 64
        E 0 8e 47 64
        E 0 88 3b 64
        E 0 8d 2f 64
        E 0 90 42 64
        E 0 91 3f 64
        E 0 97 51 64
        E 0 9e 4e 64
        E 0 98 3b 64
        E 1 9d 2f 64
        E 0 87 51 64
        E 0 8e 4e 64
        E 0 97 4e 64
        E 0 9e 4b 64
        E 0 87 4e 64
        E 0 8e 4b 64
        E 0 88 3b 64
        E 0 8d 2f 64
        E 0 97 4e 64
        E 0 9e 4b 64
        E 0 98 3b 64
        E 1 9d 2f 64
        E 0 87 4e 64
        E 0 8e 4b 64
        E 0 97 4e 64
        E 0 9e 4b 64
        E 0 87 4e 64
        E 0 8e 4b 64
        E 0 88 3b 64
        E 0 8d 2f 64
        E 0 97 51 64
        E 0 9e 4e 64
        E 0 98 3b 64
        E 0 9d 2f 64
        E 0 87 51 64
        E 0 8e 4e 64
        E 1 97 4e 64
        E 0 9e 4b 64
        E 0 87 4e 64
        E 0 8e 4b 64
        E 0 88 3b 64
        E 0 8d 2f 64
        E 0 97 4e 64
        E 0 9e 4b 64
        E 0 98 3b 64
        E 0 9d 2f 64
        E 0 87 4e 64
        E 0 8e 4b 64
        E 0 97 4e 64
        E 0 9e 4b 64
        E 0 80 42 64
        E 0 81 3f 64
        E 0 82 3b 64
        E 0 83 2f 64
        E 0 87 4e 64
        E 0 8e 4b 64
        E 0 88 3b 64
        E 0 8d 2f 64
        E 0 90 43 64
        E 0 91 40 64
        E 0 92 3b 64
        E 0 93 34 64
        E 0 97 4c 64
        E 0 9e 4c 64
        E 0 98 3b 64
        E 0 9d 34 64
        E 0 88 3b 64
        E 0 8d 34 64
        E 1 98 3b 64
        E 0 9d 34 64
        E 0 82 3b 64
        E 0 87 4c 64
        E 0 8e 4c 64
        E 0 88 3b 64
        E 0 8d 34 64
        E 0 92 3b 64
        E 0 97 47 64
        E 0 98 43 64
        E 0 9d 34 64
        E 19203 88 43 64
        E 1 8d 34 64
        E 0 98 43 64
        E 0 9d 34 64
        E 0 82 3b 64
        E 0 87 47 64
        E 0 88 43 64
        E 0 8d 34 64
        E 0 92 3b 64
        E 0 97 43 64
        E 0 98 40 64
        E 0 9d 34 64
        E 0 88 40 64
        E 0 8d 34 64
        E 0 98 40 64
        E 0 9d 34 64
        E 0 80 43 64
        E 0 81 40 64
        E 0 82 3b 64
        E 0 83 34 64
        E 0 87 43 64
        E 0 88 40 64
        E 0 8d 34 64
        E 0 92 3c 64
        E 0 97 40 64
        E 0 9e 4c 64
        E 0 98 3c 64
        E 0 9d 2d 64
        E 0 88 3c 64
        E 0 8d 2d 64
        E 0 98 3c 64
        E 0 9d 2d 64
        E 1 87 40 64
        E 0 8e 4c 64
        E 0 88 3c 64
        E 0 8d 2d 64
        E 0 93 34 64
        E 0 9e 48 64
        E 0 98 39 64
        E 0 9d 2d 64
        E 0 88 39 64
        E 0 8d 2d 64
        E 0 98 39 64
        E 0 9d 2d 64
        E 0 83 34 64
        E 0 8e 48 64
        E 0 88 39 64
        E 0 8d 2d 64
        E 0 93 34 64
        E 0 9e 45 64
        E 0 98 39 64
        E 0 9d 2d 64
        E 0 88 39 64
        E 0 8d 2d 64
        E 0 98 39 64
        E 0 9d 2d 64
        E 0 82 3c 64
        E 0 83 34 64
        E 0 8e 45 64
        E 0 88 39 64
        E 0 8d 2d 64
        E 0 92 3c 64
        E 0 93 35 64
        E 0 9e 41 64
        E 0 98 39 64
        E 0 9d 2d 64
        E 0 88 39 64
        E 0 8d 2d 64
        E 0 97 41 64
        E 0 98 39 64
        E 0 9d 2d 64
        E 0 87 41 64
        E 0 8e 41 64
        E 0 88 39 64
        E 0 8d 2d 64
        E 1 97 45 64
        E 0 98 41 64
        E 0 9d 2d 64
        E 0 87 45 64
        E 0 88 41 64
        E 0 8d 2d 64
        E 0 97 48 64
        E 0 98 41 64
        E 0 9d 2d 64
        E 0 82 3c 64
        E 0 83 35 64
        E 0 87 48 64
        E 0 88 41 64
        E 0 8d 2d 64
        E 0 92 3c 64
        E 0 93 34 64
        E 0 97 4c 64
        E 0 98 41 64
        E 0 9d 2d 64
        E 0 87 4c 64
        E 0 88 41 64
        E 0 8d 2d 64
        E 0 97 48 64
        E 0 98 41 64
        E 0 9d 2d 64
        E 0 82 3c 64
        E 0 83 34 64
        E 0 87 48 64
        E 0 88 41 64
        E 0 8d 2d 64
        E 0 92 3c 64
        E 0 93 33 64
        E 0 97 42 64
        E 0 98 42 64
        E 0 9d 2f 64
        E 0 88 42 64
        E 0 8d 2f 64
        E 0 9e 42 64
        E 0 98 42 64
        E 0 9d 2f 64
        E 0 82 3c 64
        E 0 87 42 64
        E 0 8e 42 64
        E 0 88 42 64
        E 0 8d 2f 64
        E 0 91 42 64
        E 0 92 3b 64
        E 0 9e 47 64
        E 0 98 42 64
        E 0 9d 2f 64
        E 0 8e 47 64
        E 0 88 42 64
        E 0 8d 2f 64
        E 0 9e 4b 64
        E 0 98 42 64
        E 0 9d 2f 64
        E 0 81 42 64
        E 0 82 3b 64
        E 0 83 33 64
        E 0 8e 4b 64
        E 0 88 42 64
        E 0 8d 2f 64
        E 0 91 42 64
        E 0 92 39 64
        E 0 93 33 64
        E 1 9e 4e 64
        E 0 98 42 64
        E 0 9d 2f 64
        E 0 8e 4e 64
        E 0 88 42 64
        E 0 8d 2f 64
        E 0 9e 4b 64
        E 0 98 42 64
        E 0 9d 2f 64
        E 0 81 42 64
        E 0 82 39 64
        E 0 83 33 64
        E 0 8e 4b 64
        E 0 88 42 64
        E 0 8d 2f 64
        E 0 91 43 64
        E 0 92 37 64
        E 0 93 34 64
        E 0 9e 47 64
        E 0 98 40 64
        E 0 9d 34 64
        E 0 97 4c 64
        E 0 87 4c 64
        E 0 88 40 64
        E 0 8d 34 64
        E 0 97 4c 64
        E 0 98 40 64
        E 0 9d 34 64
        E 0 87 4c 64
        E 0 97 4c 64
        E 0 87 4c 64
        E 0 8e 47 64
        E 0 88 40 64
        E 0 8d 34 64
        E 0 90 47 64
        E 0 97 4f 64
        E 0 98 40 64
        E 0 9d 34 64
        E 0 87 4f 64
        E 0 97 4c 64
        E 0 82 37 64
        E 0 83 34 64
        E 0 87 4c 64
        E 0 88 40 64
        E 0 8d 34 64
        E 0 92 36 64
        E 0 93 34 64
        E 0 97 4c 64
        E 0 98 40 64
        E 0 9d 34 64
        E 0 87 4c 64
        E 0 97 4c 64
        E 1 80 47 64
        E 0 82 36 64
        E 0 83 34 64
        E 0 87 4c 64
        E 0 88 40 64
        E 0 8d 34 64
        E 0 90 47 64
        E 0 92 34 64
        E 0 93 34 64
        E 0 97 53 64
        E 0 98 40 64
        E 0 9d 34 64
        E 2663 87 53 64
        E 0 97 4c 64
        E 0 87 4c 64
        E 0 88 40 64
        E 0 8d 34 64
        E 0 97 4c 64
        E 0 98 40 64
        E 0 9d 34 64
        E 0 87 4c 64
        E 0 97 4c 64
        E 0 80 47 64
        E 0 81 43 64
        E 0 82 34 64
        E 0 83 34 64
        E 0 87 4c 64
        E 0 88 40 64
        E 0 8d 34 64
        E 0 90 48 64
        E 0 91 43 64
        E 0 97 48 64
        E 0 98 40 64
        E 0 9d 34 64
        E 0 9e 43 64
        E 0 8e 43 64
        E 0 88 40 64
        E 0 8d 34 64
        E 0 9e 43 64
        E 0 98 40 64
        E 0 9d 34 64
        E 0 8e 43 64
        E 0 9e 43 64
        E 0 87 48 64
        E 0 8e 43 64
        E 0 88 40 64
        E 0 8d 34 64
        E 0 92 3c 64
        E 0 93 34 64
        E 0 9e 48 64
        E 0 98 40 64
        E 0 9d 34 64
        E 7079 8e 48 64
        E 0 9e 4c 64
        E 0 8e 4c 64
        E 0 88 40 64
        E 0 8d 34 64
        E 1 9e 4c 64
        E 0 98 40 64
        E 0 9d 34 64
        E 0 8e 4c 64
        E 0 9e 4c 64
        E 0 80 48 64
        E 0 81 43 64
        E 0 82 3c 64
        E 0 83 34 64
        E 0 8e 4c 64
        E 0 88 40 64
        E 0 8d 34 64
        E 0 90 47 64
        E 0 91 43 64
        E 0 92 3c 64
        E 0 93 34 64
        E 0 9e 4f 64
        E 0 98 40 64
        E 0 9d 34 64
        E 0 8e 4f 64
        E 0 9e 48 64
        E 0 8e 48 64
        E 0 88 40 64
        E 0 8d 34 64
        E 0 9e 48 64
        E 0 98 40 64
        E 0 9d 34 64
        E 0 8e 48 64
        E 0 9e 48 64
        E 0 80 47 64
        E 0 81 43 64
        E 0 82 3c 64
        E 0 83 34 64
        E 0 8e 48 64
        E 0 88 40 64
        E 0 8d 34 64
        E 0 90 46 64
        E 0 91 43 64
        E 0 92 3d 64
        E 0 93 36 64
        E 0 97 52 64
        E 0 9e 4e 64
        E 0 98 3d 64
        E 0 9d 36 64
        E 0 88 3d 64
        E 0 8d 36 64
        E 0 98 3d 64
        E 0 9d 36 64
        E 0 81 43 64
        E 0 87 52 64
        E 0 8e 4e 64
        E 0 88 3d 64
        E 0 8d 36 64
        E 1 91 42 64
        E 0 97 4e 64
        E 0 98 3d 64
        E 0 9d 36 64
        E 0 88 3d 64
        E 0 8d 36 64
        E 0 98 3d 64
        E 0 9d 36 64
        E 0 80 46 64
        E 0 81 42 64
        E 0 82 3d 64
        E 0 83 36 64
        E 0 87 4e 64
        E 0 88 3d 64
        E 0 8d 36 64
        E 0 90 46 64
        E 0 91 40 64
        E 0 92 3a 64
        E 0 93 36 64
        E 0 97 49 64
        E 0 98 42 64
        E 0 9d 36 64
        E 0 88 42 64
        E 0 8d 36 64
        E 0 98 42 64
        E 0 9d 36 64
        E 19202 80 46 64
        E 1 81 40 64
        E 0 82 3a 64
        E 0 83 36 64
        E 0 87 49 64
        E 0 88 42 64
        E 0 8d 36 64
        E 0 90 47 64
        E 0 91 3e 64
        E 0 92 36 64
        E 0 93 2f 64
        E 0 97 4a 64
        E 0 9e 53 64
        E 1 98 42 64
        E 0 9d 2f 64
        E 0 88 42 64
        E 0 8d 2f 64
        E 0 98 42 64
        E 0 9d 2f 64
        E 0 87 4a 64
        E 0 8e 53 64
        E 0 88 42 64
        E 0 8d 2f 64
        E 0 9e 4e 64
        E 0 98 3e 64
        E 0 9d 2f 64
        E 0 80 47 64
        E 0 81 3e 64
        E 0 88 3e 64
        E 0 8d 2f 64
        E 0 90 47 64
        E 0 91 3d 64
        E 0 98 3e 64
        E 0 9d 2f 64
        E 0 80 47 64
        E 0 81 3d 64
        E 0 82 36 64
        E 0 8e 4e 64
        E 0 88 3e 64
        E 0 8d 2f 64
        E 0 90 47 64
        E 0 91 3b 64
        E 1 92 36 64
        E 0 9e 4a 64
        E 0 98 3e 64
        E 0 9d 2f 64
        E 0 88 3e 64
        E 0 8d 2f 64
        E 0 98 3e 64
        E 0 9d 2f 64
        E 0 80 47 64
        E 0 81 3b 64
        E 0 82 36 64
        E 0 83 2f 64
        E 0 8e 4a 64
        E 0 88 3e 64
        E 0 8d 2f 64
        E 0 92 3b 64
        E 0 9e 3e 64
        E 0 98 3e 64
        E 0 9d 2f 64
        E 0 88 3e 64
        E 0 8d 2f 64
        E 1 97 42 64
        E 0 98 3e 64
        E 0 9d 2f 64
        E 0 87 42 64
        E 0 8e 3e 64
        E 0 88 3e 64
        E 0 8d 2f 64
        E 0 91 3e 64
        E 0 97 47 64
        E 0 98 3e 64
        E 0 9d 2f 64
        E 0 87 47 64
        E 0 88 3e 64
        E 0 8d 2f 64
        E 0 97 4a 64
        E 0 98 3e 64
        E 0 9d 2f 64
        E 0 87 4a 64
        E 0 88 3e 64
        E 0 8d 2f 64
        E 0 93 2f 64
        E 0 97 4e 64
        E 0 98 3b 64
        E 0 9d 2f 64
        E 0 87 4e 64
        E 0 88 3b 64
        E 0 8d 2f 64
        E 0 97 42 64
        E 0 98 3b 64
        E 0 9d 2f 64
        E 0 81 3e 64
        E 0 82 3b 64
        E 0 83 2f 64
        E 0 87 42 64
        E 0 88 3b 64
        E 0 8d 2f 64
        E 1 91 3e 64
        E 0 92 3b 64
        E 1 93 34 64
        E 1 97 43 64
        E 0 9e 47 64
        E 0 98 37 64
        E 0 9d 34 64
        E 0 87 43 64
        E 0 8e 47 64
        E 0 97 47 64
        E 0 9e 43 64
        E 0 87 47 64
        E 0 8e 43 64
        E 0 88 37 64
        E 0 8d 34 64
        E 0 97 47 64
        E 0 9e 43 64
        E 0 98 37 64
        E 0 9d 34 64
        E 0 87 47 64
        E 0 8e 43 64
        E 0 97 47 64
        E 0 9e 43 64
        E 1 81 3e 64
        E 0 82 3b 64
        E 0 87 47 64
        E 0 8e 43 64
        E 0 88 37 64
        E 0 8d 34 64
        E 0 90 43 64
        E 0 91 3d 64
        E 0 92 39 64
        E 0 97 4a 64
        E 0 9e 47 64
        E 0 98 37 64
        E 0 9d 34 64
        E 0 87 4a 64
        E 0 8e 47 64
        E 0 97 47 64
        E 0 9e 43 64
        E 0 87 47 64
        E 0 8e 43 64
        E 0 88 37 64
        E 0 8d 34 64
        E 0 97 47 64
        E 0 9e 43 64
        E 0 98 37 64
        E 0 9d 34 64
        E 0 87 47 64
        E 0 8e 43 64
        E 0 97 47 64
        E 0 9e 43 64
        E 0 81 3d 64
        E 0 82 39 64
        E 0 87 47 64
        E 0 8e 43 64
        E 0 88 37 64
        E 0 8d 34 64
        E 0 91 3e 64
        E 0 92 3b 64
        E 1 97 4a 64
        E 0 9e 47 64
        E 0 98 40 64
        E 0 9d 34 64
        E 0 87 4a 64
        E 0 8e 47 64
        E 0 97 47 64
        E 0 9e 43 64
        E 0 87 47 64
        E 0 8e 43 64
        E 0 88 40 64
        E 0 8d 34 64
        E 0 97 47 64
        E 0 9e 43 64
        E 0 98 40 64
        E 0 9d 34 64
        E 0 87 47 64
        E 0 8e 43 64
        E 0 97 47 64
        E 0 9e 43 64
        E 0 80 43 64
        E 0 81 3e 64
        E 0 82 3b 64
        E 1 83 34 64
        E 0 87 47 64
        E 0 8e 43 64
        E 0 88 40 64
        E 0 8d 34 64
        E 0 90 43 64
        E 0 91 40 64
        E 0 92 3d 64
        E 0 93 34 64
        E 0 97 4f 64
        E 0 9e 40 64
        E 0 98 40 64
        E 0 9d 34 64
        E 0 87 4f 64
        E 1 8e 40 64
        E 0 97 4c 64
        E 0 9e 43 64
        E 0 87 4c 64
        E 0 8e 43 64
        E 0 88 40 64
        E 0 8d 34 64
        E 0 97 4c 64
        E 0 9e 43 64
        E 0 98 40 64
        E 0 9d 34 64
        E 0 87 4c 64
        E 0 8e 43 64
        E 0 97 4c 64
        E 0 9e 43 64
        E 0 80 43 64
        E 0 83 34 64
        E 0 87 4c 64
        E 0 8e 43 64
        E 0 88 40 64
        E 0 8d 34 64
        E 0 90 42 64
        E 0 93 32 64
        E 0 97 4f 64
        E 0 9e 49 64
        E 1 98 40 64
        E 0 9d 34 64
        E 0 87 4f 64
        E 0 8e 49 64
        E 3 97 4c 64
        E 0 9e 43 64
        E 0 87 4c 64
        E 0 8e 43 64
        E 0 88 40 64
        E 0 8d 34 64
        E 0 97 4c 64
        E 0 9e 43 64
        E 0 98 40 64
        E 0 9d 34 64
        E 0 87 4c 64
        E 0 8e 43 64
        E 0 97 4c 64
        E 0 9e 43 64
        E 0 80 42 64
        E 0 83 32 64
        E 0 87 4c 64
        E 0 8e 43 64
        E 0 88 40 64
        E 0 8d 34 64
        E 0 90 43 64
        E 0 93 34 64
        E 0 97 4f 64
        E 0 9e 49 64
        E 0 98 3d 64
        E 0 9d 34 64
        E 0 87 4f 64
        E 0 8e 49 64
        E 0 97 4c 64
        E 0 9e 43 64
        E 0 87 4c 64
        E 0 8e 43 64
        E 0 88 3d 64
        E 0 8d 34 64
        E 0 97 4c 64
        E 0 9e 43 64
        E 0 98 3d 64
        E 0 9d 34 64
        E 0 87 4c 64
        E 0 8e 43 64
        E 0 97 4c 64
        E 0 9e 43 64
        E 0 80 43 64
        E 1 81 40 64
        E 0 82 3d 64
        E 0 83 34 64
        E 0 87 4c 64
        E 0 8e 43 64
        E 0 88 3d 64
        E 0 8d 34 64
        E 0 90 45 64
        E 0 91 40 64
        E 0 92 3d 64
        E 0 93 36 64
        E 0 97 4c 64
        E 0 9e 49 64
        E 0 98 39 64
        E 0 9d 36 64
        E 0 87 4c 64
        E 0 8e 49 64
        E 0 97 49 64
        E 0 9e 45 64
        E 0 87 49 64
        E 0 8e 45 64
        E 0 88 39 64
        E 0 8d 36 64
        E 0 97 49 64
        E 0 9e 45 64
        E 0 98 39 64
        E 0 9d 36 64
        E 0 87 49 64
        E 0 8e 45 64
        E 0 97 49 64
        E 0 9e 45 64
        E 369 81 40 64
        E 0 82 3d 64
        E 0 87 49 64
        E 0 8e 45 64
        E 0 88 39 64
        E 0 8d 36 64
        E 0 91 3e 64
        E 0 92 3b 64
        E 0 97 4c 64
        E 0 9e 49 64
        E 0 98 39 64
        E 0 9d 36 64
        E 19202 87 4c 64
        E 0 8e 49 64
        E 0 97 49 64
        E 0 9e 45 64
        E 0 87 49 64
        E 0 8e 45 64
        E 0 88 39 64
        E 0 8d 36 64
        E 0 97 49 64
        E 0 9e 45 64
        E 0 98 39 64
        E 0 9d 36 64
        E 0 87 49 64
        E 0 8e 45 64
        E 0 97 49 64
        E 0 9e 45 64
        E 0 81 3e 64
        E 0 82 3b 64
        E 0 87 49 64
        E 0 8e 45 64
        E 0 88 39 64
        E 0 8d 36 64
        E 0 91 40 64
        E 0 92 3d 64
        E 0 97 4c 64
        E 0 9e 49 64
        E 0 98 42 64
        E 0 9d 36 64
        E 0 87 4c 64
        E 0 8e 49 64
        E 0 97 49 64
        E 0 9e 45 64
        E 0 87 49 64
        E 0 8e 45 64
        E 0 88 42 64
        E 0 8d 36 64
        E 0 97 49 64
        E 0 9e 45 64
        E 0 98 42 64
        E 0 9d 36 64
        E 0 87 49 64
        E 0 8e 45 64
        E 0 97 49 64
        E 0 9e 45 64
        E 0 80 45 64
        E 0 81 40 64
        E 0 82 3d 64
        E 0 83 36 64
        E 0 87 49 64
        E 0 8e 45 64
        E 0 88 42 64
        E 0 8d 36 64
        E 0 90 45 64
        E 0 91 42 64
        E 0 92 3e 64
        E 0 93 36 64
        E 0 97 51 64
        E 0 9e 42 64
        E 0 98 42 64
        E 0 9d 36 64
        E 0 87 51 64
        E 0 8e 42 64
        E 0 97 4e 64
        E 0 9e 45 64
        E 0 87 4e 64
        E 0 8e 45 64
        E 0 88 42 64
        E 0 8d 36 64
        E 0 97 4e 64
        E 0 9e 45 64
        E 0 98 42 64
        E 0 9d 36 64
        E 0 87 4e 64
        E 0 8e 45 64
        E 0 97 4e 64
        E 0 9e 45 64
        E 0 80 45 64
        E 0 83 36 64
        E 0 87 4e 64
        E 0 8e 45 64
        E 0 88 42 64
        E 0 8d 36 64
        E 0 90 43 64
        E 0 93 34 64
        E 0 97 51 64
        E 0 9e 4a 64
        E 0 98 42 64
        E 0 9d 36 64
        E 0 87 51 64
        E 0 8e 4a 64
        E 0 97 4e 64
        E 1 9e 45 64
        E 0 87 4e 64
        E 0 8e 45 64
        E 0 88 42 64
        E 0 8d 36 64
        E 0 97 4e 64
        E 0 9e 45 64
        E 0 98 42 64
        E 0 9d 36 64
        E 0 87 4e 64
        E 0 8e 45 64
        E 0 97 4e 64
        E 0 9e 45 64
        E 0 80 43 64
        E 0 83 34 64
        E 0 87 4e 64
        E 0 8e 45 64
        E 0 88 42 64
        E 0 8d 36 64
        E 0 90 45 64
        E 0 93 36 64
        E 0 97 51 64
        E 0 9e 4a 64
        E 0 98 3e 64
        E 0 9d 36 64
        E 0 87 51 64
        E 0 8e 4a 64
        E 0 97 4e 64
        E 0 9e 45 64
        E 0 87 4e 64
        E 0 8e 45 64
        E 0 88 3e 64
        E 0 8d 36 64
        E 0 97 4e 64
        E 0 9e 45 64
        E 0 98 3e 64
        E 0 9d 36 64
        E 0 87 4e 64
        E 0 8e 45 64
        E 0 97 4e 64
        E 0 9e 45 64
        E 0 80 45 64
        E 0 81 42 64
        E 0 82 3e 64
        E 0 83 36 64
        E 0 87 4e 64
        E 0 8e 45 64
        E 0 88 3e 64
        E 0 8d 36 64
        E 0 90 47 64
        E 0 91 42 64
        E 0 92 3e 64
        E 0 93 37 64
        E 0 97 4e 64
        E 0 9e 4a 64
        E 0 98 3b 64
        E 0 9d 37 64
        E 0 87 4e 64
        E 0 8e 4a 64
        E 0 97 4a 64
        E 0 9e 47 64
        E 0 87 4a 64
        E 0 8e 47 64
        E 0 88 3b 64
        E 0 8d 37 64
        E 0 97 4a 64
        E 0 9e 47 64
        E 0 98 3b 64
        E 0 9d 37 64
        E 0 87 4a 64
        E 0 8e 47 64
        E 0 97 4a 64
        E 0 9e 47 64
        E 0 81 42 64
        E 0 82 3e 64
        E 0 87 4a 64
        E 0 8e 47 64
        E 0 88 3b 64
        E 0 8d 37 64
        E 0 91 40 64
        E 1 92 3d 64
        E 0 97 4e 64
        E 0 9e 4a 64
        E 0 98 3b 64
        E 0 9d 37 64
        E 0 87 4e 64
        E 0 8e 4a 64
        E 0 97 4a 64
        E 0 9e 47 64
        E 0 87 4a 64
        E 0 8e 47 64
        E 0 88 3b 64
        E 0 8d 37 64
        E 0 97 4a 64
        E 0 9e 47 64
        E 0 98 3b 64
        E 0 9d 37 64
        E 0 87 4a 64
        E 0 8e 47 64
        E 0 97 4a 64
        E 0 9e 47 64
        E 0 81 40 64
        E 0 82 3d 64
        E 0 87 4a 64
        E 0 8e 47 64
        E 0 88 3b 64
        E 0 8d 37 64
        E 0 91 42 64
        E 0 92 3e 64
        E 0 97 4e 64
        E 0 9e 4a 64
        E 0 98 3b 64
        E 0 9d 37 64
        E 0 87 4e 64
        E 0 8e 4a 64
        E 0 97 4a 64
        E 0 9e 47 64
        E 0 87 4a 64
        E 0 8e 47 64
        E 0 88 3b 64
        E 0 8d 37 64
        E 0 97 4a 64
        E 0 9e 47 64
        E 0 98 3b 64
        E 0 9d 37 64
        E 0 87 4a 64
        E 0 8e 47 64
        E 1 97 4a 64
        E 0 9e 47 64
        E 0 80 47 64
        E 0 81 42 64
        E 0 82 3e 64
        E 0 83 37 64
        E 0 87 4a 64
        E 0 8e 47 64
        E 0 88 3b 64
        E 0 8d 37 64
        E 0 90 47 64
        E 0 91 43 64
        E 0 92 40 64
        E 0 93 37 64
        E 0 97 4f 64
        E 0 9e 4a 64
        E 0 98 3b 64
        E 0 9d 37 64
        E 0 87 4f 64
        E 0 8e 4a 64
        E 0 97 4a 64
        E 0 9e 47 64
        E 0 87 4a 64
        E 0 8e 47 64
        E 0 88 3b 64
        E 0 8d 37 64
        E 0 97 4a 64
        E 0 9e 47 64
        E 0 98 3b 64
        E 0 9d 37 64
        E 0 87 4a 64
        E 0 8e 47 64
        E 0 97 4a 64
        E 0 9e 47 64
        E 0 80 47 64
        E 0 83 37 64
        E 0 87 4a 64
        E 0 8e 47 64
        E 0 88 3b 64
        E 0 8d 37 64
        E 0 90 48 64
        E 0 93 34 64
        E 0 97 4c 64
        E 1 9e 48 64
        E 0 98 43 64
        E 0 9d 34 64
        E 0 87 4c 64
        E 0 8e 48 64
        E 0 97 48 64
        E 0 9e 43 64
        E 0 87 48 64
        E 0 8e 43 64
        E 0 88 43 64
        E 0 8d 34 64
        E 0 97 48 64
        E 0 9e 43 64
        E 0 98 43 64
        E 0 9d 34 64
        E 0 87 48 64
        E 0 8e 43 64
        E 0 97 48 64
        E 0 9e 43 64
        E 0 80 48 64
        E 0 87 48 64
        E 0 8e 43 64
        E 0 88 43 64
        E 0 8d 34 64
        E 0 90 47 64
        E 0 97 4f 64
        E 0 9e 47 64
        E 0 98 43 64
        E 0 9d 34 64
        E 0 87 4f 64
        E 0 8e 47 64
        E 0 97 4c 64
        E 0 9e 43 64
        E 0 87 4c 64
        E 0 8e 43 64
        E 0 88 43 64
        E 0 8d 34 64
        E 0 97 4c 64
        E 0 9e 43 64
        E 0 98 43 64
        E 0 9d 34 64
        E 0 87 4c 64
        E 0 8e 43 64
        E 0 97 4c 64
        E 0 9e 43 64
        E 0 80 47 64
        E 0 81 43 64
        E 1 82 40 64
        E 0 83 34 64
        E 0 87 4c 64
        E 0 8e 43 64
        E 0 88 43 64
        E 0 8d 34 64
        E 0 90 46 64
        E 0 91 43 64
        E 0 92 40 64
        E 0 93 36 64
        E 0 97 49 64
        E 0 9e 46 64
        E 0 98 42 64
        E 0 9d 36 64
        E 0 87 49 64
        E 0 8e 46 64
        E 0 97 46 64
        E 0 9e 42 64
        E 0 87 46 64
        E 0 8e 42 64
        E 0 88 42 64
        E 0 8d 36 64
        E 0 97 46 64
        E 0 9e 42 64
        E 0 98 42 64
        E 0 9d 36 64
        E 0 87 46 64
        E 0 8e 42 64
        E 0 97 46 64
        E 0 9e 42 64
        E 0 87 46 64
        E 0 8e 42 64
        E 0 88 42 64
        E 0 8d 36 64
        E 0 97 49 64
        E 0 9e 46 64
        E 0 98 42 64
        E 0 9d 36 64
        E 0 87 49 64
        E 0 8e 46 64
        E 0 97 46 64
        E 0 9e 42 64
        E 0 87 46 64
        E 0 8e 42 64
        E 0 88 42 64
        E 0 8d 36 64
        E 0 97 46 64
        E 0 9e 42 64
        E 0 98 42 64
        E 0 9d 36 64
        E 0 87 46 64
        E 0 8e 42 64
        E 0 97 46 64
        E 0 9e 42 64
        E 0 80 46 64
        E 0 81 43 64
        E 1 82 40 64
        E 0 87 46 64
        E 0 8e 42 64
        E 0 88 42 64
        E 0 8d 36 64
        E 0 90 47 64
        E 0 91 42 64
        E 0 92 3e 64
        E 0 97 4a 64
        E 0 9e 47 64
        E 0 98 42 64
        E 0 9d 36 64
        E 19202 87 4a 64
        E 0 8e 47 64
        E 0 97 47 64
        E 0 9e 42 64
        E 0 87 47 64
        E 1 8e 42 64
        E 0 88 42 64
        E 0 8d 36 64
        E 0 97 47 64
        E 0 9e 42 64
        E 0 98 42 64
        E 0 9d 36 64
        E 0 87 47 64
        E 0 8e 42 64
        E 0 97 47 64
        E 0 9e 42 64
        E 0 80 47 64
        E 0 81 42 64
        E 0 82 3e 64
        E 0 83 36 64
        E 0 87 47 64
        E 0 8e 42 64
        E 0 88 42 64
        E 0 8d 36 64
        E 0 90 49 64
        E 0 91 40 64
        E 0 92 3d 64
        E 0 93 36 64
        E 0 97 4c 64
        E 0 9e 49 64
        E 0 98 46 64
        E 0 9d 36 64
        E 0 87 4c 64
        E 0 8e 49 64
        E 0 97 49 64
        E 0 9e 42 64
        E 0 87 49 64
        E 0 8e 42 64
        E 0 88 46 64
        E 0 8d 36 64
        E 0 97 49 64
        E 0 9e 42 64
        E 0 98 42 64
        E 0 9d 36 64
        E 0 87 49 64
        E 0 8e 42 64
        E 0 97 49 64
        E 0 9e 42 64
        E 0 80 49 64
        E 0 81 40 64
        E 0 82 3d 64
        E 0 87 49 64
        E 0 8e 42 64
        E 0 88 42 64
        E 0 8d 36 64
        E 0 90 4a 64
        E 1 91 42 64
        E 0 92 3b 64
        E 0 97 4e 64
        E 0 9e 4a 64
        E 0 98 42 64
        E 0 9d 36 64
        E 0 87 4e 64
        E 0 8e 4a 64
        E 0 97 4a 64
        E 0 9e 42 64
        E 0 87 4a 64
        E 0 8e 42 64
        E 0 88 42 64
        E 0 8d 36 64
        E 0 97 4a 64
        E 0 9e 42 64
        E 0 98 42 64
        E 0 9d 36 64
        E 0 87 4a 64
        E 0 8e 42 64
        E 0 97 4a 64
        E 0 9e 42 64
        E 0 80 4a 64
        E 0 81 42 64
        E 0 82 3b 64
        E 0 87 4a 64
        E 0 8e 42 64
        E 0 88 42 64
        E 0 8d 36 64
        E 0 90 4c 64
        E 0 91 43 64
        E 0 92 3a 64
        E 0 97 4f 64
        E 0 9e 4c 64
        E 0 98 42 64
        E 0 9d 36 64
        E 0 87 4f 64
        E 0 8e 4c 64
        E 1 97 4c 64
        E 0 9e 42 64
        E 0 87 4c 64
        E 0 8e 42 64
        E 0 88 42 64
        E 0 8d 36 64
        E 0 97 4c 64
        E 0 9e 42 64
        E 0 98 42 64
        E 0 9d 36 64
        E 0 87 4c 64
        E 0 8e 42 64
        E 0 97 4c 64
        E 0 9e 42 64
        E 0 80 4c 64
        E 0 81 43 64
        E 0 82 3a 64
        E 0 83 36 64
        E 0 87 4c 64
        E 0 8e 42 64
        E 0 88 42 64
        E 0 8d 36 64
        E 0 90 4a 64
        E 0 91 42 64
        E 0 92 3b 64
        E 0 93 36 64
        E 0 97 4e 64
        E 0 9e 4a 64
        E 0 98 42 64
        E 0 9d 36 64
        E 0 87 4e 64
        E 0 8e 4a 64
        E 0 97 4a 64
        E 0 9e 42 64
        E 0 87 4a 64
        E 0 8e 42 64
        E 0 88 42 64
        E 0 8d 36 64
        E 0 97 4a 64
        E 0 9e 42 64
        E 0 98 42 64
        E 0 9d 36 64
        E 1 87 4a 64
        E 0 8e 42 64
        E 0 97 4a 64
        E 0 9e 42 64
        E 0 80 4a 64
        E 0 81 42 64
        E 0 82 3b 64
        E 0 87 4a 64
        E 0 8e 42 64
        E 0 88 42 64
        E 0 8d 36 64
        E 0 90 49 64
        E 0 91 40 64
        E 0 92 3d 64
        E 0 97 4c 64
        E 0 9e 49 64
        E 0 98 42 64
        E 0 9d 36 64
        E 0 87 4c 64
        E 0 8e 49 64
        E 0 97 49 64
        E 0 9e 42 64
        E 0 87 49 64
        E 0 8e 42 64
        E 0 88 42 64
        E 0 8d 36 64
        E 0 97 49 64
        E 0 9e 42 64
        E 0 98 42 64
        E 0 9d 36 64
        E 0 87 49 64
        E 0 8e 42 64
        E 0 97 49 64
        E 1 9e 42 64
        E 0 80 49 64
        E 0 81 40 64
        E 0 82 3d 64
        E 0 87 49 64
        E 0 8e 42 64
        E 0 88 42 64
        E 0 8d 36 64
        E 0 90 47 64
        E 0 91 3e 64
        E 0 92 3e 64
        E 0 97 4a 64
        E 0 9e 47 64
        E 0 98 42 64
        E 0 9d 36 64
        E 0 87 4a 64
        E 0 8e 47 64
        E 0 97 47 64
        E 0 9e 42 64
        E 0 87 47 64
        E 0 8e 42 64
        E 0 88 42 64
        E 0 8d 36 64
        E 1 97 47 64
        E 0 9e 42 64
        E 0 98 42 64
        E 0 9d 36 64
        E 0 87 47 64
        E 0 8e 42 64
        E 0 97 47 64
        E 0 9e 42 64
        E 0 83 36 64
        E 0 80 47 64
        E 0 81 3e 64
        E 0 82 3e 64
        E 0 87 47 64
        E 0 8e 42 64
        E 0 88 42 64
        E 0 8d 36 64
        E 1 93 36 64
        E 0 90 46 64
        E 0 91 3d 64
        E 0 92 36 64
        E 0 97 49 64
        E 0 9e 46 64
        E 0 98 42 64
        E 0 9d 36 64
        E 0 87 49 64
        E 0 8e 46 64
        E 0 97 46 64
        E 0 9e 42 64
        E 0 87 46 64
        E 0 8e 42 64
        E 0 88 42 64
        E 0 8d 36 64
        E 0 97 46 64
        E 1 9e 42 64
        E 0 98 42 64
        E 0 9d 36 64
        E 0 87 46 64
        E 0 8e 42 64
        E 0 97 46 64
        E 0 9e 42 64
        E 0 87 46 64
        E 0 8e 42 64
        E 0 88 42 64
        E 0 8d 36 64
        E 1 97 49 64
        E 0 9e 46 64
        E 0 98 42 64
        E 0 9d 36 64
        E 0 87 49 64
        E 0 8e 46 64
        E 0 97 46 64
        E 0 9e 42 64
        E 0 87 46 64
        E 0 8e 42 64
        E 0 88 42 64
        E 0 8d 36 64
        E 0 97 46 64
        E 0 9e 42 64
        E 0 98 42 64
        E 0 9d 36 64
        E 0 87 46 64
        E 0 8e 42 64
        E 0 97 46 64
        E 0 9e 42 64
        E 0 80 46 64
        E 0 81 3d 64
        E 0 87 46 64
        E 0 8e 42 64
        E 0 88 42 64
        E 0 8d 36 64
        E 0 90 47 64
        E 0 91 3e 64
        E 1 97 4a 64
        E 0 9e 47 64
        E 0 98 42 64
        E 0 9d 36 64
        E 0 87 4a 64
        E 0 8e 47 64
        E 0 97 47 64
        E 0 9e 42 64
        E 1 87 47 64
        E 0 8e 42 64
        E 0 88 42 64
        E 0 8d 36 64
        E 0 97 47 64
        E 0 9e 42 64
        E 0 98 42 64
        E 0 9d 36 64
        E 0 87 47 64
        E 0 8e 42 64
        E 0 97 47 64
        E 0 9e 42 64
        E 0 83 36 64
        E 0 80 47 64
        E 0 81 3e 64
        E 0 82 36 64
        E 0 87 47 64
        E 0 8e 42 64
        E 0 88 42 64
        E 0 8d 36 64
        E 0 93 36 64
        E 0 90 47 64
        E 1 91 3d 64
        E 0 92 36 64
        E 0 97 49 64
        E 0 9e 47 64
        E 0 98 42 64
        E 1 9d 36 64
        E 0 87 49 64
        E 0 8e 47 64
        E 0 97 47 64
        E 0 9e 42 64
        E 0 87 47 64
        E 0 8e 42 64
        E 0 88 42 64
        E 0 8d 36 64
        E 0 97 47 64
        E 0 9e 42 64
        E 1 98 42 64
        E 0 9d 36 64
        E 0 87 47 64
        E 0 8e 42 64
        E 0 97 47 64
        E 1 9e 42 64
        E 0 80 47 64
        E 0 87 47 64
        E 0 8e 42 64
        E 0 88 42 64
        E 0 8d 36 64
        E 0 90 46 64
        E 0 97 49 64
        E 0 9e 46 64
        E 0 98 42 64
        E 0 9d 36 64
        E 0 87 49 64
        E 0 8e 46 64
        E 0 97 46 64
        E 1 9e 42 64
        E 0 87 46 64
        E 0 8e 42 64
        E 0 88 42 64
        E 0 8d 36 64
        E 0 97 46 64
        E 0 9e 42 64
        E 0 98 42 64
        E 0 9d 36 64
        E 0 87 46 64
        E 0 8e 42 64
        E 0 97 46 64
        E 0 9e 42 64
        E 0 87 46 64
        E 0 8e 42 64
        E 0 88 42 64
        E 1 8d 36 64
        E 0 97 49 64
        E 0 9e 46 64
        E 0 98 42 64
        E 0 9d 36 64
        E 0 87 49 64
        E 0 8e 46 64
        E 0 97 46 64
        E 0 9e 42 64
        E 0 87 46 64
        E 0 8e 42 64
        E 0 88 42 64
        E 0 8d 36 64
        E 0 97 46 64
        E 0 9e 42 64
        E 1 98 42 64
        E 0 9d 36 64
        E 0 87 46 64
        E 0 8e 42 64
        E 0 97 46 64
        E 0 9e 42 64
        E 0 80 46 64
        E 0 81 3d 64
        E 0 82 36 64
        E 0 83 36 64
        E 0 87 46 64
        E 0 8e 42 64
        E 0 88 42 64
        E 0 8d 36 64
        E 0 90 47 64
        E 0 91 3e 64
        E 0 92 36 64
        E 0 93 2f 64
        E 0 97 4e 64
        E 0 9e 4a 64
        E 1 98 42 64
        E 0 9d 2f 64
        E 19202 8d 2f 64
        E 1 9d 2f 64
        E 0 87 4e 64
        E 0 8e 4a 64
        E 0 88 42 64
        E 0 8d 2f 64
        E 0 97 4a 64
        E 0 9e 47 64
        E 0 98 42 64
        E 0 9d 2f 64
        E 0 8d 2f 64
        E 0 9d 2f 64
        E 0 87 4a 64
        E 0 8e 47 64
        E 0 88 42 64
        E 0 8d 2f 64
        E 0 97 47 64
        E 0 9e 42 64
        E 0 98 3e 64
        E 0 9d 2f 64
        E 0 8d 2f 64
        E 0 9d 2f 64
        E 0 80 47 64
        E 0 81 3e 64
        E 0 82 36 64
        E 0 83 2f 64
        E 0 87 47 64
        E 0 8e 42 64
        E 0 88 3e 64
        E 0 8d 2f 64
        E 0 97 53 64
        E 0 9e 4e 64
        E 0 98 3e 64
        E 0 9d 2f 64
        E 0 8d 2f 64
        E 0 9d 2f 64
        E 0 87 53 64
        E 0 8e 4e 64
        E 0 88 3e 64
        E 0 8d 2f 64
        E 0 97 4e 64
        E 0 9e 4a 64
        E 0 98 47 64
        E 0 9d 2f 64
        E 0 8d 2f 64
        E 0 9d 2f 64
        E 0 87 4e 64
        E 0 8e 4a 64
        E 0 88 47 64
        E 0 8d 2f 64
        E 0 97 4a 64
        E 0 9e 47 64
        E 0 98 42 64
        E 0 9d 2f 64
        E 0 8d 2f 64
        E 0 9d 2f 64
        E 0 87 4a 64
        E 0 8e 47 64
        E 0 88 42 64
        E 0 8d 2f 64
        E 0 97 47 64
        E 0 9e 4a 64
        E 1 98 42 64
        E 0 9d 2f 64
        E 0 8d 2f 64
        E 0 9d 2f 64
        E 0 87 47 64
        E 0 8e 4a 64
        E 0 88 42 64
        E 0 8d 2f 64
        E 0 97 42 64
        E 0 9e 47 64
        E 0 98 3e 64
        E 0 9d 2f 64
        E 0 8d 2f 64
        E 0 9d 2f 64
        E 0 87 42 64
        E 0 8e 47 64
        E 0 88 3e 64
        E 0 8d 2f 64
        E 0 97 3e 64
        E 0 9e 42 64
        E 0 98 3b 64
        E 0 9d 2f 64
        E 0 8d 2f 64
        E 0 9d 2f 64
        E 0 87 3e 64
        E 0 8e 42 64
        E 0 88 3b 64
        E 0 8d 2f 64
        E 0 97 3b 64
        E 0 9e 3e 64
        E 0 98 36 64
        E 0 9d 2f 64
        E 19203 87 3b 64
        E 0 8e 3e 64
        E 0 88 36 64
        E 0 8d 2f 64
        E 0 98 3e 64
        E 0 9d 37 64
        E 0 88 3e 64
        E 0 8d 37 64
        E 0 98 40 64
        E 0 9d 30 64
        E 0 88 40 64
        E 0 8d 30 64
        E 0 98 3b 64
        E 0 9d 2b 64
        E 1 88 3b 64
        E 0 8d 2b 64
        E 0 98 47 64
        E 0 9d 37 64
        E 0 88 47 64
        E 0 8d 37 64
        E 0 98 45 64
        E 0 9d 36 64
        E 0 88 45 64
        E 0 8d 36 64
        E 0 98 3e 64
        E 0 9d 37 64
        E 0 88 3e 64
        E 0 8d 37 64
        E 0 98 42 64
        E 0 9d 36 64
        E 0 88 42 64
        E 0 8d 36 64
        E 0 98 40 64
        E 0 9d 34 64
        E 0 88 40 64
        E 0 8d 34 64
        E 0 98 3e 64
        E 0 9d 32 64
        E 0 88 3e 64
        E 0 8d 32 64
        E 0 98 3c 64
        E 0 9d 30 64
        E 0 88 3c 64
        E 0 8d 30 64
        E 0 98 3b 64
        E 0 9d 2f 64
        E 0 88 3b 64
        E 0 8d 2f 64
        E 0 98 39 64
        E 0 9d 2d 64
        E 0 88 39 64
        E 0 8d 2d 64
        E 0 98 37 64
        E 0 9d 2b 64
        E 0 88 37 64
        E 0 8d 2b 64
        E 0 98 3e 64
        E 0 9d 32 64
        E 7127 88 3e 64
        E 0 8d 32 64
        E 0 98 45 64
        E 0 9d 32 64
        E 0 88 45 64
        E 0 8d 32 64
        E 0 98 45 64
        E 1 9d 30 64
        E 0 88 45 64
        E 0 8d 30 64
        E 0 98 3e 64
        E 0 9d 2f 64
        E 0 88 3e 64
        E 0 8d 2f 64
        E 0 98 3c 64
        E 0 9d 2d 64
        E 0 88 3c 64
        E 0 8d 2d 64
        E 0 98 3e 64
        E 0 9d 2f 64
        E 0 88 3e 64
        E 0 8d 2f 64
        E 0 98 3b 64
        E 0 9d 2b 64
        E 0 88 3b 64
        E 0 8d 2b 64
        E 0 98 37 64
        E 0 9d 30 64
        E 0 88 37 64
        E 0 98 43 64
        E 0 88 43 64
        E 0 8d 30 64
        E 0 98 40 64
        E 0 9d 31 64
        E 0 88 40 64
        E 0 8d 31 64
        E 0 98 3e 64
        E 0 9d 2f 64
        E 0 88 3e 64
        E 0 8d 2f 64
        E 1 98 40 64
        E 0 9d 31 64
        E 0 88 40 64
        E 0 8d 31 64
        E 0 98 3d 64
        E 0 9d 2d 64
        E 0 88 3d 64
        E 0 8d 2d 64
        E 0 98 39 64
        E 0 9d 32 64
        E 17491 88 39 64
        E 0 98 42 64
        E 0 88 42 64
        E 0 8d 32 64
        E 0 98 40 64
        E 0 9d 39 64
        E 0 8d 39 64
        E 0 9d 37 64
        E 0 88 40 64
        E 0 8d 37 64
        E 0 98 45 64
        E 0 9d 36 64
        E 0 88 45 64
        E 0 8d 36 64
        E 0 98 42 64
        E 0 9d 32 64
        E 0 88 42 64
        E 0 8d 32 64
        E 0 98 3e 64
        E 1 9d 37 64
        E 0 8d 37 64
        E 0 9d 35 64
        E 0 88 3e 64
        E 0 8d 35 64
        E 0 98 43 64
        E 0 9d 34 64
        E 0 88 43 64
        E 0 8d 34 64
        E 0 98 40 64
        E 0 9d 30 64
        E 0 88 40 64
        E 0 8d 30 64
        E 0 98 3c 64
        E 1 9d 35 64
        E 0 8d 35 64
        E 0 9d 33 66
        E 0 88 3c 64
        E 0 8d 33 66
        E 0 98 41 64
        E 0 9d 32 64
        E 0 88 41 64
        E 0 8d 32 64
        E 0 98 3e 64
        E 0 9d 2e 66
        E 0 88 3e 64
        E 0 8d 2e 66
        E 1 98 3a 66
        E 0 9d 33 66
        E 0 8d 33 66
        E 0 9d 32 64
        E 0 88 3a 66
        E 0 8d 32 64
        E 0 98 40 64
        E 0 9d 31 64
        E 0 88 40 64
        E 0 8d 31 64
        E 0 98 3d 64
        E 0 9d 2d 64
        E 0 88 3d 64
        E 0 8d 2d 64
        E 0 98 39 64
        E 0 9d 32 64
        E 0 88 39 64
        E 0 8d 32 64
        E 0 98 45 64
        E 0 9d 36 64
        E 0 88 45 64
        E 0 8d 36 64
        E 0 98 3e 64
        E 0 9d 37 64
        E 0 88 3e 64
        E 0 8d 37 64
        E 0 98 3e 64
        E 0 9d 2f 64
        E 1 88 3e 64
        E 1 8d 2f 64
        E 0 98 40 64
        E 0 9d 30 64
        E 0 88 40 64
        E 0 8d 30 64
        E 0 98 3e 64
        E 0 9d 32 64
        E 0 88 3e 64
        E 0 8d 32 64
        E 0 98 39 64
        E 0 9d 26 64
        E 0 88 39 64
        E 0 8d 26 64
        E 0 98 3b 64
        E 0 9d 2b 64
        E 0 8d 2b 64
        E 0 9d 37 64
        E 0 88 3b 64
        E 0 8d 37 64
        E 0 9d 2b 64
        E 0 98 43 64
        E 0 9a 43 64
        E 0 88 43 64
        E 0 8a 43 64
        E 0 8d 2b 64
        E 0 98 37 64
        E 2 9a 47 64
        E 1 9d 37 64
        E 0 88 37 64
        E 0 8a 47 64
        E 0 8d 37 64
        E 0 9a 48 64
        E 0 9d 2b 64
        E 0 98 43 64
        E 0 88 43 64
        E 0 8a 48 64
        E 0 8d 2b 64
        E 0 98 37 64
        E 0 9a 4a 64
        E 170 9d 37 64
        E 479 88 37 64
        E 0 8d 37 64
        E 0 9d 2b 64
        E 482 98 43 64
        E 0 9b 43 64
        E 480 88 43 64
        E 0 8a 4a 64
        E 0 8b 43 64
        E 0 8d 2b 64
        E 0 98 37 64
        E 0 9b 47 64
        E 478 9d 37 64
        E 482 88 37 64
        E 0 8b 47 64
        E 0 8d 37 64
        E 0 9b 48 64
        E 0 9d 2b 64
        E 480 98 43 64
        E 480 88 43 64
        E 0 8b 48 64
        E 0 8d 2b 64
        E 0 98 37 64
        E 0 9a 4a 64
        E 0 9b 4a 64
        E 480 9d 37 64
        E 480 88 37 64
        E 0 8d 37 64
        E 0 9d 2b 64
        E 480 8a 4a 64
        E 0 98 43 64
        E 1 9a 4c 64
        E 478 88 43 64
        E 0 8a 4c 64
        E 0 8b 4a 64
        E 0 8d 2b 64
        E 0 98 37 64
        E 0 9a 48 64
        E 480 9d 37 64
        E 479 88 37 64
        E 0 8a 48 64
        E 0 8d 37 64
        E 0 9a 48 64
        E 0 9d 2b 64
        E 482 8a 48 64
        E 0 98 43 64
        E 1 9a 4a 64
        E 479 88 43 64
        E 0 8a 4a 64
        E 0 8d 2b 64
        E 1 98 37 64
        E 0 9a 47 64
        E 0 9b 4a 64
        E 478 9d 37 64
        E 479 88 37 64
        E 0 8d 37 64
        E 0 9d 2b 64
        E 482 8b 4a 64
        E 0 98 43 64
        E 1 9b 4c 64
        E 478 88 43 64
        E 0 8a 47 64
        E 0 8b 4c 64
        E 0 8d 2b 64
        E 0 98 37 64
        E 0 9b 48 64
        E 480 9d 37 64
        E 481 88 37 64
        E 0 8b 48 64
        E 0 8d 37 64
        E 0 9b 48 64
        E 0 9d 2b 64
        E 479 8b 48 64
        E 0 98 43 64
        E 1 9b 4a 64
        E 478 88 43 64
        E 0 8b 4a 64
        E 0 8d 2b 64
        E 0 98 37 64
        E 0 9a 43 64
        E 0 9b 47 64
        E 481 8a 43 64
        E 0 9a 47 64
        E 0 9d 37 64
        E 481 88 37 64
        E 0 8a 47 64
        E 0 8b 47 64
        E 0 8d 37 64
        E 1 9a 45 64
        E 0 9d 2b 64
        E 479 8a 45 64
        E 0 98 43 64
        E 0 9a 48 64
        E 483 88 43 64
        E 1 8a 48 64
        E 0 8d 2b 64
        E 0 98 37 64
        E 0 9a 47 64
        E 0 9b 43 64
        E 474 8a 47 64
        E 0 8b 43 64
        E 1 9a 4a 64
        E 0 9b 47 64
        E 0 9d 37 64
        E 480 88 37 64
        E 0 8a 4a 64
        E 0 8b 47 64
        E 0 8d 37 64
        E 0 9a 49 64
        E 0 9b 45 64
        E 0 9d 2b 64
        E 481 8a 49 64
        E 0 8b 45 64
        E 0 98 43 64
        E 0 9a 4c 64
        E 0 9b 43 64
        E 480 88 43 64
        E 0 8a 4c 64
        E 0 8b 43 64
        E 0 8d 2b 64
        E 0 98 3e 64
        E 0 9a 4a 64
        E 0 9b 42 64
        E 480 9d 3e 64
        E 480 88 3e 64
        E 0 8d 3e 64
        E 0 9d 32 64
        E 479 8a 4a 64
        E 0 98 3e 64
        E 0 9a 4a 64
        E 481 88 3e 64
        E 0 8a 4a 64
        E 0 8b 42 64
        E 0 8d 32 64
        E 0 98 39 64
        E 0 9a 49 64
        E 479 8a 49 64
        E 0 9a 47 64
        E 0 9d 39 64
        E 479 88 39 64
        E 0 8a 47 64
        E 0 8d 39 64
        E 0 9a 45 64
        E 0 9d 2d 64
        E 480 8a 45 64
        E 0 98 45 64
        E 1 9a 43 64
        E 481 88 45 64
        E 0 8a 43 64
        E 0 8d 2d 64
        E 0 98 3e 64
        E 0 9a 42 64
        E 479 9d 3e 64
        E 482 88 3e 64
        E 0 8d 3e 64
        E 0 9d 32 64
        E 478 8a 42 64
        E 0 98 3e 64
        E 0 9a 4e 64
        E 0 9b 4a 64
        E 479 88 3e 64
        E 0 8a 4e 64
        E 0 8b 4a 64
        E 0 8d 32 64
        E 0 98 39 64
        E 0 9a 4c 64
        E 0 9b 49 64
        E 482 8a 4c 64
        E 0 8b 49 64
        E 0 9a 4a 64
        E 0 9b 47 64
        E 0 9d 39 64
        E 479 88 39 64
        E 0 8a 4a 64
        E 0 8b 47 64
        E 0 8d 39 64
        E 0 9a 49 64
        E 0 9b 45 64
        E 0 9d 2d 64
        E 479 8a 49 64
        E 0 8b 45 64
        E 0 98 45 64
        E 0 9a 47 64
        E 0 9b 43 64
        E 481 88 45 64
        E 0 8a 47 64
        E 0 8b 43 64
        E 0 8d 2d 64
        E 0 98 39 64
        E 0 9a 45 64
        E 0 9b 42 64
        E 480 8a 45 64
        E 0 8b 42 64
        E 0 9a 47 64
        E 0 9b 43 64
        E 1 9d 39 64
        E 478 88 39 64
        E 0 8a 47 64
        E 1 8b 43 64
        E 0 8d 39 64
        E 0 9a 47 64
        E 0 9b 43 64
        E 0 9d 2d 64
        E 479 8a 47 64
        E 0 8b 43 64
        E 0 98 45 64
        E 0 9a 49 64
        E 0 9b 45 64
        E 481 88 45 64
        E 0 8a 49 64
        E 0 8b 45 64
        E 0 8d 2d 64
        E 0 98 39 64
        E 0 9a 49 64
        E 0 9b 45 64
        E 480 8a 49 64
        E 1 8b 45 64
        E 0 9a 4a 64
        E 0 9b 47 64
        E 0 9d 39 64
        E 486 88 39 64
        E 0 8a 4a 64
        E 0 8b 47 64
        E 0 8d 39 64
        E 0 9a 4a 64
        E 0 9b 47 64
        E 0 9d 2d 64
        E 473 8a 4a 64
        E 0 8b 47 64
        E 0 98 45 64
        E 0 9a 4c 64
        E 0 9b 49 64
        E 480 88 45 64
        E 0 8a 4c 64
        E 0 8b 49 64
        E 0 8d 2d 64
        E 0 98 39 64
        E 0 9a 4c 64
        E 0 9b 49 64
        E 479 8a 4c 64
        E 0 8b 49 64
        E 1 9a 4a 64
        E 0 9b 47 64
        E 0 9d 39 64
        E 241 8a 4a 64
        E 1 8b 47 64
        E 1 9a 49 64
        E 0 9b 45 64
        E 236 88 39 64
        E 0 8a 49 64
        E 0 8b 45 64
        E 0 8d 39 64
        E 0 9a 4e 64
        E 0 9b 4a 64
        E 0 9d 2d 64
        E 481 8a 4e 64
        E 0 98 45 64
        E 1 9a 4a 64
        E 480 88 45 64
        E 0 8a 4a 64
        E 0 8b 4a 64
        E 0 8d 2d 64
        E 0 98 39 64
        E 0 9a 4c 64
        E 0 9b 49 64
        E 480 8a 4c 64
        E 0 8b 49 64
        E 0 9a 4a 64
        E 0 9b 47 64
        E 1 9d 39 64
        E 238 8a 4a 64
        E 0 8b 47 64
        E 0 9a 49 64
        E 0 9b 45 64
        E 241 88 39 64
        E 0 8a 49 64
        E 1 8b 45 64
        E 0 8d 39 64
        E 0 9a 4e 64
        E 0 9b 4a 64
        E 0 9d 2d 64
        E 478 8a 4e 64
        E 0 98 45 64
        E 0 9a 4a 64
        E 480 88 45 64
        E 0 8a 4a 64
        E 0 8b 4a 64
        E 0 8d 2d 64
        E 0 98 39 64
        E 0 9a 4c 64
        E 0 9b 49 64
        E 480 88 39 64
        E 0 98 45 64
        E 0 9d 39 64
        E 481 88 45 64
        E 0 8d 39 64
        E 0 98 39 64
        E 0 9d 2d 64
        E 480 88 39 64
        E 0 8a 4c 64
        E 0 8b 49 64
        E 0 8d 2d 64
        E 0 98 45 64
        E 0 9a 4a 64
        E 0 9b 4a 64
        E 0 9d 39 64
        E 479 88 45 64
        E 0 8a 4a 64
        E 0 8b 4a 64
        E 0 8d 39 64
        E 0 98 3e 64
        E 0 9a 4a 64
        E 0 9b 4a 64
        E 0 9d 32 64
        E 960 88 3e 64
        E 961 8a 4a 64
        E 0 8b 4a 64
        E 0 8d 32 64
        E 0 98 45 64
        E 0 9d 3e 64
        E 959 88 45 64
        E 0 8d 3e 64
        E 0 98 47 64
        E 0 9d 37 64
        E 960 88 47 64
        E 1 8d 37 64
        E 3 98 42 64
        E 0 9d 32 64
        E 956 88 42 64
        E 3 8d 32 64
        E 958 98 42 64
        E 0 9d 32 64
        E 958 88 42 64
        E 0 8d 32 64
        E 0 98 40 64
        E 0 9d 31 64
        E 962 88 40 64
        E 0 8d 31 64
        E 0 98 39 64
        E 0 9d 32 64
        E 479 88 39 64
        E 1 8d 32 64
        E 0 98 4a 64
        E 0 9d 3e 64
        E 479 88 4a 64
        E 0 8d 3e 64
        E 0 98 49 64
        E 0 9d 3d 64
        E 480 88 49 64
        E 0 8d 3d 64
        E 0 98 47 64
        E 1 9d 3b 64
        E 481 88 47 64
        E 0 8d 3b 64
        E 0 98 45 64
        E 0 9d 39 64
        E 479 88 45 64
        E 0 8d 39 64
        E 1 98 43 64
        E 1 9d 37 64
        E 236 88 43 64
        E 0 8d 37 64
        E 0 98 42 64
        E 0 9d 36 64
        E 242 88 42 64
        E 1 8d 36 64
        E 0 98 40 64
        E 0 9d 34 64
        E 478 88 40 64
        E 0 8d 34 64
        E 1 98 3e 64
        E 0 9d 32 64
        E 481 88 3e 64
        E 1 8d 32 64
        E 0 98 45 64
        E 0 9d 39 64
        E 477 8d 39 64
        E 0 9d 39 64
        E 480 88 45 64
        E 0 8d 39 64
        E 0 9d 32 64
        E 480 98 4a 64
        E 0 9a 45 64
        E 0 9b 42 64
        E 480 88 4a 64
        E 0 8a 45 64
        E 0 8b 42 64
        E 0 8d 32 64
        E 0 98 3e 64
        E 0 9a 47 64
        E 0 9b 43 64
        E 481 9d 3e 64
        E 480 88 3e 64
        E 0 8a 47 64
        E 0 8b 43 64
        E 0 8d 3e 64
        E 0 9a 47 64
        E 0 9b 43 64
        E 1 9d 32 64
        E 477 98 4a 64
        E 481 88 4a 64
        E 0 8a 47 64
        E 0 8b 43 64
        E 0 8d 32 64
        E 0 98 3e 64
        E 0 9a 45 64
        E 0 9b 42 64
        E 481 9d 3e 64
        E 480 88 3e 64
        E 0 8a 45 64
        E 0 8b 42 64
        E 0 8d 3e 64
        E 0 9a 4a 64
        E 0 9b 42 64
        E 0 9d 32 64
        E 479 8a 4a 64
        E 0 8b 42 64
        E 0 98 4a 64
        E 0 9a 45 64
        E 1 9b 42 64
        E 479 88 4a 64
        E 0 8a 45 64
        E 1 8b 42 64
        E 0 8d 32 64
        E 0 98 3e 64
        E 0 9a 47 64
        E 0 9b 43 64
        E 479 9d 3e 64
        E 480 88 3e 64
        E 0 8a 47 64
        E 0 8b 43 64
        E 0 8d 3e 64
        E 0 9a 47 64
        E 0 9b 43 64
        E 0 9d 32 64
        E 480 8a 47 64
        E 0 8b 43 64
        E 0 98 4a 64
        E 0 9a 47 64
        E 0 9b 43 64
        E 480 88 4a 64
        E 0 8a 47 64
        E 0 8b 43 64
        E 0 8d 32 64
        E 0 98 3e 64
        E 0 9a 45 64
        E 0 9b 42 64
        E 480 9d 3e 64
        E 480 88 3e 64
        E 0 8a 45 64
        E 0 8b 42 64
        E 0 8d 3e 64
        E 0 9a 4a 64
        E 0 9d 32 64
        E 481 98 3e 64
        E 480 88 3e 64
        E 0 8a 4a 64
        E 0 8d 32 64
        E 0 98 38 64
        E 0 9a 4a 64
        E 0 9b 4c 64
        E 480 8a 4a 64
        E 0 8b 4c 64
        E 0 9a 4d 64
        E 0 9b 4a 64
        E 0 9d 38 64
        E 479 88 38 64
        E 0 8a 4d 64
        E 0 8b 4a 64
        E 0 8d 38 64
        E 0 9a 4c 64
        E 1 9b 48 64
        E 0 9d 2c 64
        E 479 8a 4c 64
        E 0 8b 48 64
        E 0 98 40 64
        E 0 9a 4a 64
        E 0 9b 47 64
        E 479 88 40 64
        E 0 8a 4a 64
        E 0 8b 47 64
        E 0 8d 2c 64
        E 0 98 39 64
        E 0 9a 48 64
        E 0 9b 45 64
        E 0 9d 2d 64
        E 481 8d 2d 64
        E 0 9d 2f 64
        E 480 88 39 64
        E 0 8a 48 64
        E 0 8d 2f 64
        E 1 9a 4c 64
        E 0 9d 30 64
        E 479 8d 30 64
        E 1 9d 2f 64
        E 480 8a 4c 64
        E 0 8b 45 64
        E 0 8d 2f 64
        E 0 9a 48 64
        E 0 9d 2d 64
        E 480 8a 48 64
        E 0 8d 2d 64
        E 0 9a 47 64
        E 0 9d 2f 64
        E 479 8a 47 64
        E 0 8d 2f 64
        E 0 9a 45 64
        E 0 9d 30 64
        E 480 8a 45 64
        E 0 8d 30 64
        E 0 9a 44 64
        E 0 9d 32 64
        E 241 8d 32 64
        E 1 9d 34 64
        E 238 8a 44 64
        E 0 8d 34 64
        E 1 9a 45 64
        E 0 9d 35 64
        E 482 98 4a 64
        E 477 88 4a 64
        E 0 8d 35 64
        E 1 98 41 64
        E 0 9b 4d 64
        E 479 9d 3e 64
        E 480 88 41 64
        E 0 8a 45 64
        E 0 8b 4d 64
        E 0 8d 3e 64
        E 0 9a 45 64
        E 0 9b 4a 64
        E 0 9d 35 64
        E 479 8b 4a 64
        E 0 98 4a 64
        E 1 9b 48 64
        E 480 88 4a 64
        E 0 8b 48 64
        E 0 8d 35 64
        E 0 98 41 64
        E 0 9b 47 64
        E 480 8b 47 64
        E 1 9b 45 64
        E 0 9d 3e 64
        E 483 88 41 64
        E 0 8a 45 64
        E 0 8b 45 64
        E 0 8d 3e 64
        E 0 9a 44 64
        E 0 9b 47 64
        E 0 9d 34 64
        E 478 8a 44 64
        E 0 8b 47 64
        E 0 98 4c 64
        E 0 9a 45 64
        E 1 9b 48 64
        E 477 88 4c 64
        E 0 8a 45 64
        E 0 8b 48 64
        E 0 8d 34 64
        E 0 98 40 64
        E 0 9a 45 64
        E 0 9b 48 64
        E 480 8a 45 64
        E 0 8b 48 64
        E 1 9a 47 64
        E 0 9b 4a 64
        E 0 9d 40 64
        E 479 88 40 64
        E 0 8a 47 64
        E 0 8b 4a 64
        E 0 8d 40 64
        E 0 9a 47 64
        E 0 9b 4a 64
        E 0 9d 34 64
        E 480 8a 47 64
        E 0 8b 4a 64
        E 0 98 4c 64
        E 1 9a 45 64
        E 0 9b 48 64
        E 479 88 4c 64
        E 0 8a 45 64
        E 0 8b 48 64
        E 0 8d 34 64
        E 0 98 40 64
        E 0 9a 45 64
        E 0 9b 48 64
        E 480 8a 45 64
        E 0 8b 48 64
        E 0 9a 44 64
        E 1 9b 47 64
        E 0 9d 40 64
        E 479 88 40 64
        E 0 8a 44 64
        E 0 8b 47 64
        E 0 8d 40 64
        E 0 9a 44 64
        E 0 9b 47 64
        E 0 9d 34 64
        E 481 8d 34 64
        E 0 9d 40 64
        E 479 8a 44 64
        E 0 8b 47 64
        E 0 8d 40 64
        E 0 9b 4c 64
        E 0 9d 3c 64
        E 479 8d 3c 64
        E 1 9d 39 64
        E 480 8b 4c 64
        E 0 8d 39 64
        E 0 9a 4d 64
        E 0 9b 4c 64
        E 0 9d 2d 64
        E 480 8b 4c 64
        E 0 98 45 64
        E 0 9b 4a 64
        E 241 8b 4a 64
        E 0 9b 48 64
        E 240 88 45 64
        E 0 8b 48 64
        E 0 8d 2d 64
        E 0 98 39 64
        E 0 9b 4a 64
        E 480 8a 4d 64
        E 0 9a 4c 64
        E 0 9d 39 64
        E 239 8a 4c 64
        E 0 9a 4a 64
        E 241 88 39 64
        E 0 8a 4a 64
        E 0 8b 4a 64
        E 0 8d 39 64
        E 0 9a 4c 64
        E 0 9b 4a 64
        E 0 9d 2d 64
        E 479 8b 4a 64
        E 1 98 45 64
        E 0 9b 48 64
        E 241 8b 48 64
        E 0 9b 47 64
        E 237 88 45 64
        E 0 8b 47 64
        E 0 8d 2d 64
        E 0 98 39 64
        E 0 9b 48 64
        E 482 8a 4c 64
        E 0 9a 4a 64
        E 0 9d 39 64
        E 238 8a 4a 64
        E 0 9a 48 64
        E 241 88 39 64
        E 0 8a 48 64
        E 0 8b 48 64
        E 0 8d 39 64
        E 0 9a 4a 64
        E 0 9b 48 64
        E 0 9d 2d 64
        E 481 8b 48 64
        E 0 98 45 64
        E 0 9b 47 64
        E 239 8b 47 64
        E 0 9b 45 64
        E 240 88 45 64
        E 0 8b 45 64
        E 0 8d 2d 64
        E 0 98 39 64
        E 0 9b 47 64
        E 481 8a 4a 64
        E 0 9a 48 64
        E 0 9d 39 64
        E 240 8a 48 64
        E 1 9a 47 64
        E 238 88 39 64
        E 0 8a 47 64
        E 1 8b 47 64
        E 0 8d 39 64
        E 0 9a 49 64
        E 1 9b 47 64
        E 0 9d 2d 64
        E 480 98 45 64
        E 478 88 45 64
        E 0 8a 49 64
        E 0 8b 47 64
        E 0 8d 2d 64
        E 0 98 39 64
        E 0 9a 4b 64
        E 0 9b 47 64
        E 480 9d 39 64
        E 480 88 39 64
        E 1 8a 4b 64
        E 0 8b 47 64
        E 0 8d 39 64
        E 0 9a 4c 64
        E 0 9b 47 64
        E 0 9d 37 64
        E 479 8a 4c 64
        E 0 8d 37 64
        E 0 9a 47 64
        E 0 9d 36 64
        E 481 8a 47 64
        E 0 8b 47 64
        E 0 8d 36 64
        E 5 9d 37 64
        E 474 8d 37 64
        E 0 9a 47 64
        E 0 9b 43 64
        E 0 9d 34 64
        E 479 8a 47 64
        E 0 8b 43 64
        E 0 8d 34 64
        E 0 9a 49 64
        E 0 9b 43 64
        E 0 9d 39 64
        E 481 8a 49 64
        E 0 8b 43 64
        E 0 9a 4b 64
        E 0 9b 42 64
        E 480 8a 4b 64
        E 0 8b 42 64
        E 0 9a 4c 64
        E 0 9b 45 64
        E 480 8a 4c 64
        E 0 8b 45 64
        E 0 9a 4e 64
        E 0 9b 43 64
        E 485 8a 4e 64
        E 0 8b 43 64
        E 0 8d 39 64
        E 0 9a 4b 64
        E 0 9b 42 64
        E 0 9d 3b 64
        E 958 8d 3b 64
        E 0 9d 2f 64
        E 477 8a 4b 64
        E 0 8b 42 64
        E 0 9a 4c 64
        E 0 9b 42 64
        E 482 8a 4c 64
        E 0 8b 42 64
        E 0 8d 2f 64
        E 0 98 43 64
        E 0 9a 4c 64
        E 0 9b 40 64
        E 0 9d 28 64
        E 959 88 43 64
        E 0 8d 28 64
        E 0 98 3f 64
        E 0 9d 2f 64
        E 959 88 3f 64
        E 0 8a 4c 64
        E 0 8b 40 64
        E 0 8d 2f 64
        E 0 98 3b 64
        E 0 9d 34 64
        E 959 88 3b 64
        E 0 8d 34 64
        E 481 98 4b 64
        E 1 9d 3b 64
        E 480 88 4b 64
        E 0 8d 3b 64
        E 0 98 4c 64
        E 0 9d 40 64
        E 481 88 4c 64
        E 0 8d 40 64
        E 0 98 4a 64
        E 0 9d 3e 64
        E 239 88 4a 64
        E 0 8d 3e 64
        E 0 98 48 64
        E 1 9d 3c 64
        E 239 88 48 64
        E 0 8d 3c 64
        E 0 98 47 64
        E 0 9d 3b 64
        E 480 88 47 64
        E 1 8d 3b 64
        E 0 98 45 64
        E 0 9d 39 64
        E 479 88 45 64
        E 0 8d 39 64
        E 0 98 43 64
        E 0 9d 37 64
        E 481 88 43 64
        E 0 8d 37 64
        E 0 98 42 64
        E 0 9d 36 64
        E 238 88 42 64
        E 0 8d 36 64
        E 1 98 40 64
        E 0 9d 34 64
        E 239 88 40 64
        E 0 8d 34 64
        E 0 98 43 64
        E 0 9d 37 64
        E 480 88 43 64
        E 0 8d 37 64
        E 0 98 45 64
        E 1 9d 39 64
        E 481 88 45 64
        E 0 8d 39 64
        E 0 98 47 64
        E 0 9d 3b 64
        E 479 88 47 64
        E 0 8d 3b 64
        E 0 98 44 64
        E 478 88 44 64
        E 0 98 47 64
        E 0 9a 47 64
        E 481 88 47 64
        E 0 8a 47 64
        E 0 98 44 64
        E 0 9a 4c 64
        E 480 88 44 64
        E 0 8a 4c 64
        E 0 98 40 64
        E 0 9a 49 64
        E 0 9d 39 64
        E 479 8d 39 64
        E 1 9d 2d 64
        E 480 88 40 64
        E 1 8d 2d 64
        E 0 98 40 64
        E 0 9d 31 64
        E 479 88 40 64
        E 0 8a 49 64
        E 0 8d 31 64
        E 0 98 3d 64
        E 0 9a 49 64
        E 0 9d 2d 64
        E 481 88 3d 64
        E 0 8a 49 64
        E 0 8d 2d 64
        E 0 98 39 64
        E 0 9a 4a 64
        E 0 9d 32 64
        E 961 88 39 64
        E 0 8a 4a 64
        E 0 8d 32 64
        E 1 9a 45 64
        E 477 8a 45 64
        E 1 98 42 64
        E 0 9a 4a 64
        E 0 9d 32 64
        E 479 88 42 64
        E 0 8a 4a 64
        E 0 8d 32 64
        E 0 98 3e 64
        E 0 9a 47 64
        E 1 9d 37 64
        E 480 8d 37 64
        E 0 9d 2b 64
        E 480 88 3e 64
        E 0 8d 2b 64
        E 0 98 3e 64
        E 0 9d 2f 64
        E 479 88 3e 64
        E 0 8a 47 64
        E 0 8d 2f 64
        E 0 98 3b 64
        E 0 9a 47 64
        E 0 9d 2b 64
        E 481 88 3b 64
        E 0 8a 47 64
        E 0 8d 2b 64
        E 0 98 37 64
        E 0 9a 48 64
        E 0 9b 4c 64
        E 0 9d 30 64
        E 960 88 37 64
        E 0 8a 48 64
        E 0 8b 4c 64
        E 0 9b 48 64
        E 479 8b 48 64
        E 0 8d 30 64
        E 0 9b 46 66
        E 0 9d 30 64
        E 480 8b 46 66
        E 0 8d 30 64
        E 0 9b 45 64
        E 0 9d 35 64
        E 480 8b 45 64
        E 1 9b 4d 64
        E 19341 8b 4d 64
        E 0 8d 35 64
        E 4 9b 4a 64
        E 0 9d 36 64
        E 0 8b 4a 64
        E 1 9b 48 64
        E 0 8b 48 64
        E 0 8d 36 64
        E 0 9b 47 64
        E 0 9d 37 64
        E 0 9b 45 64
        E 0 8b 47 64
        E 0 9b 43 64
        E 0 8b 45 64
        E 0 8d 37 64
        E 0 9b 4c 64
        E 0 9d 3c 64
        E 0 8b 43 64
        E 0 9b 4a 64
        E 0 8b 4c 64
        E 0 9b 48 64
        E 0 8b 4a 64
        E 0 8d 3c 64
        E 0 9b 47 64
        E 0 9d 37 64
        E 0 8b 48 64
        E 0 8d 37 64
        E 0 9d 2b 64
        E 0 8b 47 64
        E 0 9b 48 64
        E 0 8b 48 64
        E 1 8d 2b 64
        E 0 9b 48 64
        E 0 9d 30 64
        E 0 8d 30 64
        E 0 8b 48 64
        E 0 98 43 64
        E 0 9d 3c 64
        E 0 88 43 64
        E 0 8d 3c 64
        E 0 98 45 64
        E 0 9d 35 64
        E 0 88 45 64
        E 0 8d 35 64
        E 0 98 40 64
        E 0 9d 30 64
        E 0 88 40 64
        E 0 8d 30 64
        E 0 98 40 64
        E 0 9d 3c 64
        E 0 88 40 64
        E 0 8d 3c 64
        E 0 98 3e 64
        E 0 9d 3b 64
        E 0 88 3e 64
        E 0 8d 3b 64
        E 0 98 43 64
        E 0 9d 3c 64
        E 0 88 43 64
        E 0 8d 3c 64
        E 0 98 47 64
        E 0 9d 3b 64
        E 0 88 47 64
        E 0 8d 3b 64
        E 0 98 45 64
        E 0 9d 39 64
        E 0 88 45 64
        E 0 8d 39 64
        E 0 98 43 64
        E 0 9d 37 64
        E 0 88 43 64
        E 0 8d 37 64
        E 0 98 41 64
        E 0 9d 35 64
        E 0 88 41 64
        E 0 8d 35 64
        E 0 98 40 64
        E 0 9d 34 64
        E 0 88 40 64
        E 0 8d 34 64
        E 0 98 3e 64
        E 0 9d 32 64
        E 0 88 3e 64
        E 0 8d 32 64
        E 0 98 3c 64
        E 1 9d 30 64
        E 0 88 3c 64
        E 0 8d 30 64
        E 0 98 37 64
        E 0 9d 2b 64
        E 0 8d 2b 64
        E 0 9d 37 64
        E 0 88 37 64
        E 0 8d 37 64
        E 0 9d 2b 64
        E 0 98 43 64
        E 0 9a 4a 64
        E 0 9b 47 64
        E 0 88 43 64
        E 0 8a 4a 64
        E 0 8b 47 64
        E 0 8d 2b 64
        E 3 98 37 64
        E 0 9a 4c 64
        E 0 9b 48 64
        E 0 8a 4c 64
        E 1 8b 48 64
        E 0 9a 4a 64
        E 0 9b 47 64
        E 0 9d 37 64
        E 19202 88 37 64
        E 0 8a 4a 64
        E 0 8b 47 64
        E 0 8d 37 64
        E 1 9a 4c 64
        E 0 9b 48 64
        E 0 9d 2b 64
        E 0 8a 4c 64
        E 0 8b 48 64
        E 0 98 43 64
        E 0 9a 4d 64
        E 0 9b 4a 64
        E 0 88 43 64
        E 0 8a 4d 64
        E 0 8b 4a 64
        E 0 8d 2b 64
        E 0 98 37 64
        E 0 9a 4a 64
        E 0 9b 47 64
        E 0 9d 37 64
        E 0 88 37 64
        E 0 8a 4a 64
        E 0 8b 47 64
        E 0 8d 37 64
        E 0 9a 48 64
        E 0 9b 45 64
        E 0 9d 2b 64
        E 0 8a 48 64
        E 0 8b 45 64
        E 0 98 43 64
        E 0 9a 4a 64
        E 0 9b 47 64
        E 0 88 43 64
        E 0 8a 4a 64
        E 0 8b 47 64
        E 0 8d 2b 64
        E 0 98 37 64
        E 0 9a 4c 64
        E 0 9b 48 64
        E 0 9d 37 64
        E 0 88 37 64
        E 0 8a 4c 64
        E 0 8b 48 64
        E 0 8d 37 64
        E 0 9a 4d 64
        E 0 9b 4a 64
        E 0 9d 2b 64
        E 0 8a 4d 64
        E 0 8b 4a 64
        E 0 98 43 64
        E 0 9a 4c 64
        E 0 9b 48 64
        E 0 88 43 64
        E 0 8a 4c 64
        E 0 8b 48 64
        E 0 8d 2b 64
        E 0 98 37 64
        E 1 9a 4a 64
        E 0 9b 47 64
        E 0 9d 37 64
        E 0 88 37 64
        E 0 8a 4a 64
        E 0 8b 47 64
        E 0 8d 37 64
        E 0 9a 4c 64
        E 0 9b 48 64
        E 0 9d 2b 64
        E 0 8a 4c 64
        E 0 8b 48 64
        E 0 98 43 64
        E 0 9a 4a 64
        E 0 9b 47 64
        E 0 88 43 64
        E 0 8a 4a 64
        E 0 8b 47 64
        E 0 8d 2b 64
        E 0 98 37 64
        E 0 9a 48 64
        E 0 9b 45 64
        E 0 9d 37 64
        E 0 88 37 64
        E 0 8a 48 64
        E 0 8b 45 64
        E 0 8d 37 64
        E 0 9a 4a 64
        E 0 9b 47 64
        E 0 9d 2b 64
        E 0 8a 4a 64
        E 0 8b 47 64
        E 0 98 43 64
        E 0 9a 48 64
        E 0 9b 45 64
        E 0 88 43 64
        E 0 8a 48 64
        E 0 8b 45 64
        E 0 8d 2b 64
        E 0 98 37 64
        E 0 9a 47 64
        E 0 9b 43 64
        E 0 8a 47 64
        E 0 8b 43 64
        E 0 9a 47 64
        E 0 9b 43 64
        E 0 9d 37 64
        E 0 88 37 64
        E 0 8a 47 64
        E 0 8b 43 64
        E 0 8d 37 64
        E 0 9a 48 64
        E 0 9b 45 64
        E 0 9d 2b 64
        E 1 8a 48 64
        E 0 8b 45 64
        E 0 98 43 64
        E 0 9a 4a 64
        E 0 9b 47 64
        E 0 88 43 64
        E 0 8a 4a 64
        E 0 8b 47 64
        E 0 8d 2b 64
        E 0 98 37 64
        E 0 9a 48 64
        E 0 9b 45 64
        E 0 9d 37 64
        E 0 88 37 64
        E 0 8a 48 64
        E 0 8b 45 64
        E 0 8d 37 64
        E 0 9a 47 64
        E 0 9b 43 64
        E 0 9d 2b 64
        E 0 98 43 64
        E 0 88 43 64
        E 0 8a 47 64
        E 0 8b 43 64
        E 0 8d 2b 64
        E 0 98 3e 64
        E 0 9a 45 64
        E 0 9b 42 64
        E 0 9d 32 64
        E 0 8d 32 64
        E 0 9d 34 64
        E 0 88 3e 64
        E 0 8a 45 64
        E 0 8b 42 64
        E 0 8d 34 64
        E 0 9a 4e 64
        E 0 9b 4a 64
        E 0 9d 36 64
        E 0 8d 36 64
        E 0 9d 32 64
        E 0 8a 4e 64
        E 0 8b 4a 64
        E 0 9a 4e 64
        E 0 9b 4a 64
        E 0 8a 4e 64
        E 0 8b 4a 64
        E 0 8d 32 64
        E 0 9a 4a 64
        E 0 9b 47 64
        E 0 9d 2b 64
        E 0 8a 4a 64
        E 0 8b 47 64
        E 0 9a 47 64
        E 1 9b 43 64
        E 0 8d 2b 64
        E 0 9d 2b 64
        E 0 8a 47 64
        E 0 8b 43 64
        E 0 8d 2b 64
        E 0 9a 43 64
        E 0 9b 40 64
        E 0 9d 30 64
        E 0 8a 43 64
        E 0 8b 40 64
        E 0 9a 4c 64
        E 0 9b 43 64
        E 0 8d 30 64
        E 0 9d 30 64
        E 0 8a 4c 64
        E 0 8b 43 64
        E 0 9a 4c 64
        E 0 9b 43 64
        E 0 8a 4c 64
        E 0 8b 43 64
        E 0 8d 30 64
        E 0 9a 4c 64
        E 0 9b 49 64
        E 0 9d 2d 64
        E 1211 8a 4c 64
        E 0 8b 49 64
        E 0 9a 49 64
        E 0 9b 45 64
        E 0 8d 2d 64
        E 0 9d 2d 64
        E 1251 8a 49 64
        E 0 8b 45 64
        E 0 8d 2d 64
        E 0 9a 45 64
        E 0 9b 42 64
        E 0 9d 32 64
        E 966 8d 32 64
        E 0 98 42 64
        E 0 9d 32 64
        E 0 88 42 64
        E 0 8a 45 64
        E 0 8b 42 64
        E 0 8d 32 64
        E 0 98 40 64
        E 0 9d 39 64
        E 254 8d 39 64
        E 0 9d 37 64
        E 480 88 40 64
        E 0 8d 37 64
        E 0 98 45 64
        E 0 9d 36 64
        E 478 88 45 64
        E 0 8d 36 64
        E 1 98 42 64
        E 0 9d 32 64
        E 482 88 42 64
        E 0 8d 32 64
        E 0 98 3e 64
        E 0 9d 37 64
        E 478 8d 37 64
        E 0 9d 37 64
        E 480 88 3e 64
        E 0 8d 37 64
        E 0 9a 4a 64
        E 0 9d 2b 64
        E 959 8a 4a 64
        E 0 8d 2b 64
        E 0 9a 4a 64
        E 0 9b 4c 64
        E 0 9d 37 64
        E 481 8a 4a 64
        E 0 9a 48 64
        E 239 8a 48 64
        E 1 9a 47 64
        E 240 8a 47 64
        E 0 8d 37 64
        E 1 9a 48 64
        E 0 9d 39 64
        E 480 8b 4c 64
        E 0 9b 4a 64
        E 240 8b 4a 64
        E 0 9b 48 64
        E 240 8a 48 64
        E 0 8b 48 64
        E 0 8d 39 64
        E 0 9a 48 64
        E 0 9b 4a 64
        E 0 9d 36 64
        E 480 8a 48 64
        E 0 9a 47 64
        E 240 8a 47 64
        E 0 9a 45 64
        E 238 8a 45 64
        E 0 8d 36 64
        E 0 9a 47 64
        E 0 9d 37 64
        E 480 8b 4a 64
        E 0 9b 48 64
        E 242 8b 48 64
        E 0 9b 47 64
        E 239 8a 47 64
        E 0 8b 47 64
        E 0 8d 37 64
        E 0 9a 47 64
        E 0 9b 48 64
        E 0 9d 39 64
        E 479 8a 47 64
        E 1 9a 45 64
        E 239 8a 45 64
        E 1 9a 43 64
        E 240 8a 43 64
        E 0 8d 39 64
        E 0 9a 45 64
        E 0 9d 36 64
        E 480 8b 48 64
        E 0 9b 47 64
        E 239 8b 47 64
        E 0 9b 45 64
        E 242 8a 45 64
        E 0 8b 45 64
        E 0 8d 36 64
        E 0 9a 45 64
        E 0 9b 47 64
        E 0 9d 37 64
        E 479 8a 45 64
        E 0 9a 43 64
        E 239 8a 43 64
        E 1 9a 42 64
        E 239 8a 42 64
        E 0 8d 37 64
        E 0 9a 43 64
        E 0 9d 2f 64
        E 480 8b 47 64
        E 0 9b 45 64
        E 240 8b 45 64
        E 1 9b 43 64
        E 241 8a 43 64
        E 0 8b 43 64
        E 0 8d 2f 64
        E 0 9a 43 64
        E 0 9b 45 64
        E 0 9d 30 64
        E 958 8a 43 64
        E 0 8d 30 64
        E 0 9a 42 64
        E 0 9d 32 64
        E 482 8b 45 64
        E 0 9b 45 64
        E 479 8a 42 64
        E 0 8b 45 64
        E 0 8d 32 64
        E 0 98 3e 64
        E 0 9a 43 64
        E 0 9b 43 64
        E 0 9d 2b 64
        E 959 8a 43 64
        E 1 8b 43 64
        E 0 8d 2b 64
        E 481 88 3e 64
        E 1 98 3e 64
        E 0 9d 3b 64
        E 479 88 3e 64
        E 0 8d 3b 64
        E 0 98 40 64
        E 1 9d 39 64
        E 477 8d 39 64
        E 1 9d 37 64
        E 481 88 40 64
        E 0 8d 37 64
        E 0 98 45 64
        E 1 9d 36 64
        E 478 88 45 64
        E 0 8d 36 64
        E 0 98 42 64
        E 0 9d 32 64
        E 483 88 42 64
        E 0 8d 32 64
        E 0 98 3e 64
        E 0 9d 2b 64
        E 479 8d 2b 64
        E 0 9d 37 64
        E 479 88 3e 64
        E 0 8d 37 64
        E 0 9b 4a 64
        E 0 9d 2b 64
        E 959 8b 4a 64
        E 0 8d 2b 64
        E 0 9a 4c 64
        E 0 9b 4a 64
        E 0 9d 37 64
        E 480 8b 4a 64
        E 0 9b 48 64
        E 241 8b 48 64
        E 0 9b 47 64
        E 238 8b 47 64
        E 0 8d 37 64
        E 0 9b 48 64
        E 0 9d 39 64
        E 480 8a 4c 64
        E 0 9a 4a 64
        E 242 8a 4a 64
        E 0 9a 48 64
        E 238 8a 48 64
        E 1 8b 48 64
        E 0 8d 39 64
        E 0 9a 4a 64
        E 0 9b 48 64
        E 0 9d 36 64
        E 480 8b 48 64
        E 0 9b 47 64
        E 239 8b 47 64
        E 1 9b 45 64
        E 240 8b 45 64
        E 0 8d 36 64
        E 0 9b 47 64
        E 0 9d 37 64
        E 480 8a 4a 64
        E 0 9a 48 64
        E 241 8a 48 64
        E 1 9a 47 64
        E 240 8a 47 64
        E 0 8b 47 64
        E 0 8d 37 64
        E 0 9a 48 64
        E 0 9b 47 64
        E 0 9d 39 64
        E 478 8b 47 64
        E 0 9b 45 64
        E 240 8b 45 64
        E 0 9b 43 64
        E 240 8b 43 64
        E 0 8d 39 64
        E 0 9b 45 64
        E 0 9d 36 64
        E 480 8a 48 64
        E 0 9a 47 64
        E 241 8a 47 64
        E 0 9a 45 64
        E 240 8a 45 64
        E 1 8b 45 64
        E 0 8d 36 64
        E 0 9a 47 64
        E 0 9b 45 64
        E 0 9d 37 64
        E 478 8b 45 64
        E 0 9b 43 64
        E 240 8b 43 64
        E 1 9b 42 64
        E 239 8b 42 64
        E 0 8d 37 64
        E 1 9b 43 64
        E 0 9d 2f 64
        E 479 8a 47 64
        E 0 9a 45 64
        E 239 8a 45 64
        E 0 9a 43 64
        E 243 8a 43 64
        E 0 8b 43 64
        E 0 8d 2f 64
        E 0 9a 45 64
        E 0 9b 43 64
        E 0 9d 30 64
        E 960 8b 43 64
        E 0 8d 30 64
        E 0 9b 42 64
        E 0 9d 32 64
        E 478 8a 45 64
        E 0 9a 45 64
        E 481 8a 45 64
        E 0 8b 42 64
        E 0 8d 32 64
        E 1 9a 43 64
        E 0 9b 43 64
        E 0 9d 2b 64
        E 958 8d 2b 64
        E 960 8a 43 64
        E 0 8b 43 64
        E 0 98 3e 64
        E 0 9d 37 64
        E 960 88 3e 64
        E 0 8d 37 64
        E 0 98 40 64
        E 0 9d 30 64
        E 960 88 40 64
        E 0 8d 30 64
        E 0 98 3b 64
        E 0 9d 2b 64
        E 960 88 3b 64
        E 0 8d 2b 64
        E 960 98 47 64
        E 0 9d 37 64
        E 960 88 47 64
        E 0 8d 37 64
        E 0 98 45 64
        E 0 9d 36 64
        E 961 88 45 64
        E 0 8d 36 64
        E 0 98 3e 64
        E 0 9d 37 64
        E 960 88 3e 64
        E 0 8d 37 64
        E 0 98 42 64
        E 0 9d 36 64
        E 479 88 42 64
        E 0 8d 36 64
        E 0 98 40 64
        E 0 9d 34 64
        E 481 88 40 64
        E 0 8d 34 64
        E 1 98 3e 64
        E 0 9d 32 64
        E 478 88 3e 64
        E 0 8d 32 64
        E 0 98 3c 64
        E 1 9d 30 64
        E 239 88 3c 64
        E 0 8d 30 64
        E 0 98 3b 64
        E 0 9d 2f 64
        E 240 88 3b 64
        E 0 8d 2f 64
        E 0 98 39 64
        E 0 9d 2d 64
        E 479 88 39 64
        E 0 8d 2d 64
        E 0 98 37 64
        E 0 9d 2b 64
        E 482 88 37 64
        E 0 8d 2b 64
        E 0 98 3e 64
        E 0 9d 32 64
        E 959 88 3e 64
        E 0 8d 32 64
        E 0 98 45 64
        E 0 9d 32 64
        E 484 88 45 64
        E 0 8d 32 64
        E 0 98 45 64
        E 1 9d 30 64
        E 476 88 45 64
        E 0 8d 30 64
        E 0 98 3e 64
        E 0 9d 2f 64
        E 479 88 3e 64
        E 0 8d 2f 64
        E 0 98 3c 64
        E 0 9d 2d 64
        E 480 88 3c 64
        E 0 8d 2d 64
        E 0 98 3e 64
        E 0 9d 2f 64
        E 481 88 3e 64
        E 0 8d 2f 64
        E 0 98 3b 64
        E 1 9d 2b 64
        E 477 88 3b 64
        E 1 8d 2b 64
        E 0 98 37 64
        E 0 9d 30 64
        E 1441 88 37 64
        E 0 98 43 64
        E 479 88 43 64
        E 0 8d 30 64
        E 0 98 40 64
        E 0 9d 31 64
        E 479 88 40 64
        E 0 8d 31 64
        E 0 98 3e 64
        E 0 9d 2f 64
        E 480 88 3e 64
        E 1 8d 2f 64
        E 0 98 40 64
        E 0 9d 31 64
        E 481 88 40 64
        E 0 8d 31 64
        E 0 98 3d 64
        E 0 9d 2d 64
        E 478 88 3d 64
        E 0 8d 2d 64
        E 1 98 39 64
        E 0 9d 32 64
        E 1440 88 39 64
        E 0 98 42 64
        E 480 88 42 64
        E 0 8d 32 64
        E 0 98 40 64
        E 0 9d 39 64
        E 481 8d 39 64
        E 0 9d 37 64
        E 478 88 40 64
        E 0 8d 37 64
        E 0 98 45 64
        E 0 9d 36 64
        E 481 88 45 64
        E 0 8d 36 64
        E 1 98 42 64
        E 0 9d 32 64
        E 482 88 42 64
        E 0 8d 32 64
        E 0 98 3e 64
        E 1 9d 37 64
        E 476 8d 37 64
        E 0 9d 35 64
        E 481 88 3e 64
        E 0 8d 35 64
        E 0 98 43 64
        E 0 9d 34 64
        E 479 88 43 64
        E 0 8d 34 64
        E 1 98 40 64
        E 0 9d 30 64
        E 479 88 40 64
        E 0 8d 30 64
        E 0 98 3c 64
        E 0 9d 35 64
        E 482 8d 35 64
        E 0 9d 33 66
        E 480 88 3c 64
        E 0 8d 33 66
        E 0 98 41 64
        E 1 9d 32 64
        E 477 88 41 64
        E 0 8d 32 64
        E 1 98 3e 64
        E 0 9d 2e 66
        E 479 88 3e 64
        E 0 8d 2e 66
        E 0 98 3a 66
        E 0 9d 33 66
        E 480 8d 33 66
        E 0 9d 32 64
        E 480 88 3a 66
        E 0 8d 32 64
        E 0 98 40 64
        E 0 9d 31 64
        E 481 88 40 64
        E 0 8d 31 64
        E 0 98 3d 64
        E 0 9d 2d 64
        E 480 88 3d 64
        E 0 8d 2d 64
        E 0 98 39 64
        E 0 9d 32 64
        E 1440 88 39 64
        E 0 8d 32 64
        E 1 98 45 64
        E 0 9d 36 64
        E 479 88 45 64
        E 0 8d 36 64
        E 1 98 3e 64
        E 0 9d 37 64
        E 479 88 3e 64
        E 0 8d 37 64
        E 0 98 3e 64
        E 0 9d 2f 64
        E 240 88 3e 64
        E 0 8d 2f 64
        E 0 98 40 64
        E 1 9d 30 64
        E 239 88 40 64
        E 0 8d 30 64
        E 0 98 3e 64
        E 0 9d 32 64
        E 479 88 3e 64
        E 0 8d 32 64
        E 0 98 39 64
        E 0 9d 26 64
        E 480 88 39 64
        E 0 8d 26 64
        E 0 98 3b 64
        E 0 9d 2b 64
        E 2880 88 3b 64
        E 0 8d 2b 64
        E 3839 90 47 64
        E 0 91 43 64
        E 1 92 3b 64
        E 0 93 34 64
        E 0 97 4f 64
        E 0 9e 47 64
        E 0 98 40 64
        E 0 9d 34 64
        E 3072 80 47 64
        E 0 81 43 64
        E 0 82 3b 64
        E 0 83 34 64
        E 0 87 4f 64
        E 0 8e 47 64
        E 0 88 40 64
        E 0 8d 34 64
        E 0 90 47 64
        E 0 91 43 64
        E 0 92 3b 64
        E 0 93 34 64
        E 0 97 4f 64
        E 0 9e 47 64
        E 0 98 40 64
        E 0 9d 34 64
        E 1537 80 47 64
        E 0 81 43 64
        E 0 82 3b 64
        E 0 83 34 64
        E 0 87 4f 64
        E 0 8e 47 64
        E 0 88 40 64
        E 0 8d 34 64
        E 0 90 47 64
        E 0 91 43 64
        E 0 92 3b 64
        E 0 93 34 64
        E 1 97 4f 64
        E 0 9e 47 64
        E 0 98 40 64
        E 0 9d 34 64
        E 1534 80 47 64
        E 0 81 43 64
        E 0 82 3b 64
        E 0 83 34 64
        E 0 87 4f 64
        E 0 8e 47 64
        E 0 88 40 64
        E 0 8d 34 64
        E 0 90 48 64
        E 0 91 43 64
        E 0 92 40 64
        E 0 93 34 64
        E 1 97 4f 64
        E 0 9e 48 64
        E 0 98 40 64
        E 0 9d 34 64
        E 3072 80 48 64
        E 0 81 43 64
        E 0 82 40 64
        E 0 83 34 64
        E 0 87 4f 64
        E 0 8e 48 64
        E 0 88 40 64
        E 0 8d 34 64
        E 1 90 48 64
        E 0 91 43 64
        E 0 92 40 64
        E 0 93 34 64
        E 0 97 4f 64
        E 0 9e 48 64
        E 0 98 40 64
        E 0 9d 34 64
        E 1534 80 48 64
        E 0 81 43 64
        E 0 82 40 64
        E 0 83 34 64
        E 0 87 4f 64
        E 0 8e 48 64
        E 0 88 40 64
        E 1 8d 34 64
        E 0 90 48 64
        E 0 91 43 64
        E 0 92 40 64
        E 0 93 34 64
        E 0 97 4f 64
        E 0 9e 48 64
        E 0 98 40 64
        E 0 9d 34 64
        E 1536 80 48 64
        E 0 81 43 64
        E 0 82 40 64
        E 0 83 34 64
        E 0 87 4f 64
        E 0 8e 48 64
        E 0 88 40 64
        E 0 8d 34 64
        E 0 90 49 64
        E 0 91 43 64
        E 0 92 40 64
        E 0 93 39 64
        E 0 97 4f 64
        E 0 9e 49 64
        E 0 98 40 64
        E 0 9d 2d 64
        E 3072 80 49 64
        E 0 81 43 64
        E 0 82 40 64
        E 0 83 39 64
        E 0 87 4f 64
        E 0 8e 49 64
        E 0 88 40 64
        E 0 8d 2d 64
        E 0 90 49 64
        E 0 91 43 64
        E 0 92 40 64
        E 0 93 39 64
        E 1 97 4f 64
        E 0 9e 49 64
        E 0 98 40 64
        E 0 9d 2d 64
        E 4606 80 49 64
        E 0 81 43 64
        E 0 82 40 64
        E 0 83 39 64
        E 0 87 4f 64
        E 0 8e 49 64
        E 0 88 40 64
        E 0 8d 2d 64
        E 0 90 4b 64
        E 0 91 42 64
        E 0 92 3b 64
        E 0 93 39 64
        E 0 97 4e 64
        E 0 9e 4b 64
        E 0 98 47 64
        E 0 9d 2d 64
        E 3071 80 4b 64
        E 0 81 42 64
        E 0 82 3b 64
        E 0 83 39 64
        E 0 87 4e 64
        E 0 8e 4b 64
        E 0 88 47 64
        E 0 8d 2d 64
        E 1 90 4b 64
        E 0 91 42 64
        E 0 92 3b 64
        E 0 93 39 64
        E 0 97 4e 64
        E 0 9e 4b 64
        E 0 98 47 64
        E 0 9d 2d 64
        E 1537 80 4b 64
        E 0 81 42 64
        E 0 82 3b 64
        E 0 83 39 64
        E 0 87 4e 64
        E 0 8e 4b 64
        E 0 88 47 64
        E 0 8d 2d 64
        E 0 90 4b 64
        E 0 91 42 64
        E 0 92 3b 64
        E 0 93 39 64
        E 0 97 4e 64
        E 0 9e 4b 64
        E 0 98 47 64
        E 0 9d 2d 64
        E 1536 80 4b 64
        E 0 81 42 64
        E 0 82 3b 64
        E 0 83 39 64
        E 0 87 4e 64
        E 0 8e 4b 64
        E 0 88 47 64
        E 0 8d 2d 64
        E 0 90 4c 64
        E 0 91 42 64
        E 0 92 3d 64
        E 0 93 3a 64
        E 0 97 4e 64
        E 0 9e 4c 64
        E 1 98 49 64
        E 0 9d 2e 64
        E 3070 80 4c 64
        E 0 81 42 64
        E 0 82 3d 64
        E 0 83 3a 64
        E 0 87 4e 64
        E 0 8e 4c 64
        E 0 88 49 64
        E 0 8d 2e 64
        E 0 90 4c 64
        E 0 91 42 64
        E 1 92 3d 64
        E 1 93 3a 64
        E 0 97 4e 64
        E 0 9e 4c 64
        E 0 98 49 64
        E 0 9d 2e 64
        E 1535 80 4c 64
        E 0 81 42 64
        E 0 82 3d 64
        E 0 83 3a 64
        E 0 87 4e 64
        E 0 8e 4c 64
        E 0 88 49 64
        E 0 8d 2e 64
        E 0 90 4c 64
        E 0 91 42 64
        E 0 92 3d 64
        E 0 93 3a 64
        E 1 97 4e 64
        E 0 9e 4c 64
        E 0 98 49 64
        E 0 9d 2e 64
        E 1536 80 4c 64
        E 0 81 42 64
        E 0 82 3d 64
        E 0 83 3a 64
        E 0 87 4e 64
        E 0 8e 4c 64
        E 0 88 49 64
        E 0 8d 2e 64
        E 0 90 4b 64
        E 0 91 42 64
        E 0 92 3b 64
        E 0 93 3b 64
        E 0 97 4e 64
        E 0 9e 4b 64
        E 0 98 47 64
        E 0 9d 2f 64
        E 3072 80 4b 64
        E 0 81 42 64
        E 0 82 3b 64
        E 0 83 3b 64
        E 0 87 4e 64
        E 0 8e 4b 64
        E 0 88 47 64
        E 0 8d 2f 64
        E 0 90 4b 64
        E 0 91 42 64
        E 0 92 3b 64
        E 0 93 3b 64
        E 0 97 4e 64
        E 0 9e 4b 64
        E 0 98 47 64
        E 0 9d 2f 64
        E 4607 80 4b 64
        E 0 81 42 64
        E 0 82 3b 64
        E 0 83 3b 64
        E 0 87 4e 64
        E 0 8e 4b 64
        E 0 88 47 64
        E 0 8d 2f 64
        E 6144 90 47 64
        E 0 9e 47 64
        E 569 80 47 64
        E 0 8e 47 64
        E 0 90 47 64
        E 0 9e 47 64
        E 570 80 47 64
        E 0 8e 47 64
        E 0 90 47 64
        E 0 9e 47 64
        E 570 80 47 64
        E 1 8e 47 64
        E 0 90 47 64
        E 0 9e 47 64
        E 570 80 47 64
        E 0 8e 47 64
        E 0 90 4c 64
        E 0 9e 4c 64
        E 1143 80 4c 64
        E 0 8e 4c 64
        E 0 90 4c 64
        E 0 9e 4c 64
        E 283 80 4c 64
        E 0 8e 4c 64
        E 0 90 4a 64
        E 0 9e 4a 64
        E 287 80 4a 64
        E 0 8e 4a 64
        E 0 90 4c 64
        E 0 9e 4c 64
        E 284 80 4c 64
        E 0 8e 4c 64
        E 0 90 4e 64
        E 0 9e 4e 64
        E 285 80 4e 64
        E 0 8e 4e 64
        E 0 90 4c 64
        E 0 91 40 64
        E 0 97 4c 64
        E 0 9e 4c 64
        E 285 80 4c 64
        E 0 8e 4c 64
        E 0 90 4a 64
        E 1 9e 4a 64
        E 284 80 4a 64
        E 1 81 40 64
        E 0 87 4c 64
        E 0 8e 4a 64
        E 0 90 4c 64
        E 0 91 40 64
        E 0 97 4c 64
        E 0 9e 4c 64
        E 284 80 4c 64
        E 0 8e 4c 64
        E 0 90 4e 64
        E 0 9e 4e 64
        E 288 80 4e 64
        E 0 81 40 64
        E 0 87 4c 64
        E 0 8e 4e 64
        E 0 90 4c 64
        E 0 91 40 64
        E 0 97 4c 64
        E 0 9e 4c 64
        E 283 80 4c 64
        E 0 8e 4c 64
        E 0 90 4f 64
        E 1 9e 4f 64
        E 285 80 4f 64
        E 0 81 40 64
        E 0 87 4c 64
        E 0 8e 4f 64
        E 0 90 4e 64
        E 1 91 40 64
        E 0 97 4c 64
        E 0 9e 4e 64
        E 283 80 4e 64
        E 0 8e 4e 64
        E 1 90 4c 64
        E 0 9e 4c 64
        E 286 80 4c 64
        E 0 81 40 64
        E 0 87 4c 64
        E 0 8e 4c 64
        E 0 90 4b 64
        E 0 91 47 64
        E 0 97 53 64
        E 0 9e 4b 64
        E 854 80 4b 64
        E 0 8e 4b 64
        E 0 90 49 64
        E 0 9e 49 64
        E 285 80 49 64
        E 0 81 47 64
        E 0 87 53 64
        E 0 8e 49 64
        E 0 90 47 64
        E 0 91 47 64
        E 0 97 53 64
        E 0 9e 47 64
        E 284 81 47 64
        E 0 87 53 64
        E 0 91 45 64
        E 0 97 51 64
        E 287 81 45 64
        E 0 87 51 64
        E 1 91 47 64
        E 0 97 53 64
        E 283 81 47 64
        E 1 87 53 64
        E 0 91 48 64
        E 0 97 54 64
        E 285 80 47 64
        E 0 81 48 64
        E 0 87 54 64
        E 0 8e 47 64
        E 0 91 47 64
        E 0 92 3b 64
        E 0 97 53 64
        E 0 98 3b 64
        E 283 81 47 64
        E 0 87 53 64
        E 1 91 45 64
        E 0 97 51 64
        E 286 81 45 64
        E 0 82 3b 64
        E 0 87 51 64
        E 0 88 3b 64
        E 0 91 47 64
        E 0 92 3b 64
        E 0 97 53 64
        E 0 98 3b 64
        E 284 81 47 64
        E 0 87 53 64
        E 0 91 48 64
        E 0 97 54 64
        E 287 81 48 64
        E 0 82 3b 64
        E 0 87 54 64
        E 0 88 3b 64
        E 0 91 47 64
        E 0 92 3b 64
        E 0 97 53 64
        E 0 98 3b 64
        E 284 81 47 64
        E 0 87 53 64
        E 0 91 45 64
        E 0 97 51 64
        E 287 81 45 64
        E 0 82 3b 64
        E 0 87 51 64
        E 0 88 3b 64
        E 0 91 43 64
        E 0 92 3b 64
        E 0 97 4f 64
        E 0 98 3b 64
        E 283 81 43 64
        E 0 87 4f 64
        E 0 91 42 64
        E 0 97 4e 64
        E 286 81 42 64
        E 1 82 3b 64
        E 0 87 4e 64
        E 0 88 3b 64
        E 5 91 43 64
        E 0 92 40 64
        E 0 97 4f 64
        E 0 98 40 64
        E 847 81 43 64
        E 0 87 4f 64
        E 1 91 42 64
        E 0 97 4e 64
        E 286 81 42 64
        E 0 82 40 64
        E 0 87 4e 64
        E 0 88 40 64
        E 0 91 40 64
        E 0 92 40 64
        E 0 97 4c 64
        E 0 98 40 64
        E 287 82 40 64
        E 0 88 40 64
        E 0 92 3e 64
        E 0 98 3e 64
        E 284 82 3e 64
        E 0 88 3e 64
        E 0 92 40 64
        E 0 98 40 64
        E 286 82 40 64
        E 0 88 40 64
        E 0 92 42 64
        E 0 98 42 64
        E 285 81 40 64
        E 0 82 42 64
        E 0 87 4c 64
        E 0 88 42 64
        E 0 91 43 64
        E 0 92 40 64
        E 0 93 34 64
        E 0 97 4f 64
        E 0 98 40 64
        E 0 9d 34 64
        E 287 82 40 64
        E 0 88 40 64
        E 0 92 3e 64
        E 1 98 3e 64
        E 281 81 43 64
        E 0 82 3e 64
        E 0 83 34 64
        E 0 87 4f 64
        E 0 88 3e 64
        E 0 8d 34 64
        E 0 91 43 64
        E 0 92 40 64
        E 0 93 34 64
        E 0 97 4f 64
        E 1 98 40 64
        E 0 9d 34 64
        E 286 82 40 64
        E 0 88 40 64
        E 0 92 42 64
        E 0 98 42 64
        E 283 81 43 64
        E 0 82 42 64
        E 0 83 34 64
        E 1 87 4f 64
        E 0 88 42 64
        E 0 8d 34 64
        E 0 91 43 64
        E 0 92 40 64
        E 0 93 34 64
        E 0 97 4f 64
        E 0 98 40 64
        E 0 9d 34 64
        E 285 82 40 64
        E 0 88 40 64
        E 1 92 43 64
        E 0 98 43 64
        E 283 81 43 64
        E 0 82 43 64
        E 0 83 34 64
        E 0 87 4f 64
        E 0 88 43 64
        E 0 8d 34 64
        E 0 91 43 64
        E 0 92 42 64
        E 0 93 34 64
        E 0 97 4f 64
        E 0 98 42 64
        E 0 9d 34 64
        E 286 82 42 64
        E 0 88 42 64
        E 0 92 40 64
        E 0 98 40 64
        E 286 81 43 64
        E 0 82 40 64
        E 0 83 34 64
        E 0 87 4f 64
        E 0 88 40 64
        E 0 8d 34 64
        E 0 91 42 64
        E 0 92 3f 64
        E 0 93 3b 64
        E 0 97 4e 64
        E 0 98 3f 64
        E 0 9d 3b 64
        E 855 81 42 64
        E 1 82 3f 64
        E 0 87 4e 64
        E 0 88 3f 64
        E 0 91 42 64
        E 0 92 3d 64
        E 0 97 4e 64
        E 0 98 3d 64
        E 283 81 42 64
        E 0 82 3d 64
        E 0 83 3b 64
        E 0 87 4e 64
        E 0 88 3d 64
        E 0 8d 3b 64
        E 0 91 42 64
        E 0 92 3b 64
        E 0 93 3b 64
        E 0 97 4e 64
        E 0 98 3b 64
        E 0 9d 3b 64
        E 288 83 3b 64
        E 0 8d 3b 64
        E 0 93 39 64
        E 0 9d 39 64
        E 282 83 39 64
        E 0 8d 39 64
        E 1 93 3b 64
        E 0 9d 3b 64
        E 287 83 3b 64
        E 0 8d 3b 64
        E 2 93 3c 64
        E 1 9d 3c 64
        E 279 81 42 64
        E 0 82 3b 64
        E 0 83 3c 64
        E 0 87 4e 64
        E 0 88 3b 64
        E 0 8d 3c 64
        E 0 90 47 64
        E 0 91 42 64
        E 0 92 3f 64
        E 0 93 3b 64
        E 0 97 4e 64
        E 0 9e 47 64
        E 0 98 3f 64
        E 0 9d 3b 64
        E 287 83 3b 64
        E 1 8d 3b 64
        E 0 93 39 64
        E 0 9d 39 64
        E 283 80 47 64
        E 0 82 3f 64
        E 1 83 39 64
        E 0 8e 47 64
        E 0 88 3f 64
        E 0 8d 39 64
        E 0 90 47 64
        E 0 92 3f 64
        E 0 93 3b 64
        E 0 9e 47 64
        E 0 98 3f 64
        E 0 9d 3b 64
        E 285 83 3b 64
        E 0 8d 3b 64
        E 0 93 3c 64
        E 0 9d 3c 64
        E 285 80 47 64
        E 0 81 42 64
        E 0 82 3f 64
        E 0 83 3c 64
        E 0 87 4e 64
        E 0 8e 47 64
        E 1 88 3f 64
        E 0 8d 3c 64
        E 0 90 47 64
        E 0 91 42 64
        E 0 92 3f 64
        E 0 93 3b 64
        E 0 97 4e 64
        E 0 9e 47 64
        E 0 98 3f 64
        E 0 9d 3b 64
        E 285 83 3b 64
        E 0 8d 3b 64
        E 0 93 39 64
        E 1 9d 39 64
        E 284 80 47 64
        E 0 82 3f 64
        E 0 83 39 64
        E 0 8e 47 64
        E 0 88 3f 64
        E 0 8d 39 64
        E 0 90 47 64
        E 1 92 3f 64
        E 0 93 37 64
        E 1 9e 47 64
        E 0 98 3f 64
        E 0 9d 37 64
        E 283 83 37 64
        E 0 8d 37 64
        E 0 93 36 64
        E 0 9d 36 64
        E 283 80 47 64
        E 0 81 42 64
        E 0 82 3f 64
        E 0 83 36 64
        E 0 87 4e 64
        E 0 8e 47 64
        E 0 88 3f 64
        E 0 8d 36 64
        E 0 90 4c 64
        E 0 92 3b 64
        E 0 93 37 64
        E 0 9e 4c 64
        E 0 98 3b 64
        E 0 9d 37 64
        E 858 82 3b 64
        E 0 83 37 64
        E 0 88 3b 64
        E 0 8d 37 64
        E 0 92 3b 64
        E 0 93 36 64
        E 0 98 3b 64
        E 0 9d 36 64
        E 284 80 4c 64
        E 0 82 3b 64
        E 0 83 36 64
        E 0 8e 4c 64
        E 0 88 3b 64
        E 0 8d 36 64
        E 0 90 4c 64
        E 1 92 3b 64
        E 0 93 34 64
        E 0 9e 4c 64
        E 0 98 3b 64
        E 0 9d 34 64
        E 284 80 4c 64
        E 0 8e 4c 64
        E 0 90 4a 64
        E 0 9e 4a 64
        E 287 80 4a 64
        E 1 8e 4a 64
        E 0 90 4c 64
        E 0 9e 4c 64
        E 284 80 4c 64
        E 0 8e 4c 64
        E 0 90 4d 64
        E 0 9e 4d 64
        E 285 80 4d 64
        E 0 82 3b 64
        E 0 83 34 64
        E 0 8e 4d 64
        E 0 88 3b 64
        E 0 8d 34 64
        E 1 90 4c 64
        E 0 91 44 64
        E 0 92 3b 64
        E 0 93 34 64
        E 0 97 50 64
        E 0 9e 4c 64
        E 0 98 3b 64
        E 0 9d 34 64
        E 283 80 4c 64
        E 0 8e 4c 64
        E 1 90 4a 64
        E 0 9e 4a 64
        E 284 80 4a 64
        E 0 81 44 64
        E 0 82 3b 64
        E 0 83 34 64
        E 0 87 50 64
        E 0 8e 4a 64
        E 0 88 3b 64
        E 0 8d 34 64
        E 1 90 4c 64
        E 0 91 44 64
        E 0 92 3b 64
        E 0 93 34 64
        E 0 97 50 64
        E 0 9e 4c 64
        E 0 98 3b 64
        E 0 9d 34 64
        E 284 80 4c 64
        E 1 8e 4c 64
        E 0 90 4d 64
        E 0 9e 4d 64
        E 285 80 4d 64
        E 0 81 44 64
        E 0 82 3b 64
        E 0 83 34 64
        E 0 87 50 64
        E 0 8e 4d 64
        E 0 88 3b 64
        E 0 8d 34 64
        E 0 90 4c 64
        E 0 91 44 64
        E 0 92 3b 64
        E 0 93 34 64
        E 0 97 50 64
        E 0 9e 4c 64
        E 0 98 3b 64
        E 0 9d 34 64
        E 284 80 4c 64
        E 0 8e 4c 64
        E 0 90 4a 64
        E 0 9e 4a 64
        E 286 80 4a 64
        E 0 81 44 64
        E 0 82 3b 64
        E 0 83 34 64
        E 0 87 50 64
        E 0 8e 4a 64
        E 0 88 3b 64
        E 0 8d 34 64
        E 0 90 48 64
        E 0 91 44 64
        E 0 92 40 64
        E 0 93 34 64
        E 0 97 50 64
        E 0 9e 48 64
        E 0 98 40 64
        E 0 9d 34 64
        E 284 80 48 64
        E 0 8e 48 64
        E 1 90 47 64
        E 0 9e 47 64
        E 287 80 47 64
        E 0 81 44 64
        E 0 82 40 64
        E 0 83 34 64
        E 0 87 50 64
        E 0 8e 47 64
        E 0 88 40 64
        E 0 8d 34 64
        E 0 90 48 64
        E 0 91 40 64
        E 1 92 3c 64
        E 0 93 39 64
        E 0 97 4c 64
        E 0 9e 48 64
        E 0 98 3c 64
        E 0 9d 39 64
        E 859 80 48 64
        E 0 81 40 64
        E 0 87 4c 64
        E 0 8e 48 64
        E 1 90 47 64
        E 0 91 40 64
        E 0 97 4c 64
        E 1 9e 47 64
        E 278 80 47 64
        E 0 81 40 64
        E 0 82 3c 64
        E 0 83 39 64
        E 0 87 4c 64
        E 0 8e 47 64
        E 0 88 3c 64
        E 0 8d 39 64
        E 0 90 45 64
        E 0 91 40 64
        E 0 92 3c 64
        E 0 93 39 64
        E 0 97 4c 64
        E 0 9e 45 64
        E 1 98 3c 64
        E 0 9d 39 64
        E 282 82 3c 64
        E 0 83 39 64
        E 0 88 3c 64
        E 0 8d 39 64
        E 0 92 3b 64
        E 0 93 37 64
        E 0 98 3b 64
        E 0 9d 37 64
        E 286 82 3b 64
        E 0 83 37 64
        E 0 88 3b 64
        E 0 8d 37 64
        E 1 92 3c 64
        E 0 93 39 64
        E 0 98 3c 64
        E 0 9d 39 64
        E 283 82 3c 64
        E 0 83 39 64
        E 0 88 3c 64
        E 0 8d 39 64
        E 0 92 3e 64
        E 0 93 3b 64
        E 0 98 3e 64
        E 0 9d 3b 64
        E 287 80 45 64
        E 0 81 40 64
        E 0 82 3e 64
        E 0 83 3b 64
        E 0 87 4c 64
        E 0 8e 45 64
        E 0 88 3e 64
        E 0 8d 3b 64
        E 0 91 40 64
        E 0 92 3c 64
        E 0 93 39 64
        E 0 97 4c 64
        E 0 98 3c 64
        E 0 9d 39 64
        E 283 82 3c 64
        E 1 83 39 64
        E 0 88 3c 64
        E 0 8d 39 64
        E 0 92 3b 64
        E 0 93 37 64
        E 0 98 3b 64
        E 0 9d 37 64
        E 285 81 40 64
        E 0 82 3b 64
        E 0 83 37 64
        E 0 87 4c 64
        E 0 88 3b 64
        E 0 8d 37 64
        E 0 91 40 64
        E 0 92 3c 64
        E 0 93 39 64
        E 1 97 4c 64
        E 0 98 3c 64
        E 0 9d 39 64
        E 283 82 3c 64
        E 0 83 39 64
        E 0 88 3c 64
        E 0 8d 39 64
        E 0 92 3e 64
        E 1 93 3b 64
        E 0 98 3e 64
        E 0 9d 3b 64
        E 286 81 40 64
        E 0 82 3e 64
        E 0 83 3b 64
        E 0 87 4c 64
        E 0 88 3e 64
        E 0 8d 3b 64
        E 0 91 40 64
        E 0 92 3c 64
        E 0 93 39 64
        E 0 97 4c 64
        E 0 98 3c 64
        E 1 9d 39 64
        E 283 82 3c 64
        E 0 83 39 64
        E 0 88 3c 64
        E 0 8d 39 64
        E 2 92 3b 64
        E 1 93 37 64
        E 0 98 3b 64
        E 0 9d 37 64
        E 283 81 40 64
        E 0 82 3b 64
        E 0 83 37 64
        E 0 87 4c 64
        E 0 88 3b 64
        E 0 8d 37 64
        E 0 91 40 64
        E 0 92 39 64
        E 0 93 36 64
        E 1 97 4c 64
        E 0 98 39 64
        E 0 9d 36 64
        E 282 82 39 64
        E 0 83 36 64
        E 0 88 39 64
        E 0 8d 36 64
        E 0 92 37 64
        E 1 93 34 64
        E 0 98 37 64
        E 0 9d 34 64
        E 286 81 40 64
        E 1 82 37 64
        E 0 83 34 64
        E 0 87 4c 64
        E 0 88 37 64
        E 0 8d 34 64
        E 0 91 45 64
        E 0 92 39 64
        E 0 93 36 64
        E 1 97 51 64
        E 0 98 39 64
        E 0 9d 36 64
        E 852 82 39 64
        E 0 83 36 64
        E 0 88 39 64
        E 0 8d 36 64
        E 0 92 37 64
        E 0 93 34 64
        E 0 98 37 64
        E 1 9d 34 64
        E 286 81 45 64
        E 0 82 37 64
        E 0 83 34 64
        E 0 87 51 64
        E 0 88 37 64
        E 0 8d 34 64
        E 0 91 45 64
        E 0 92 36 64
        E 1 93 32 64
        E 0 97 51 64
        E 0 98 36 64
        E 0 9d 32 64
        E 283 81 45 64
        E 0 87 51 64
        E 0 91 43 64
        E 0 97 4f 64
        E 286 81 43 64
        E 0 87 4f 64
        E 0 91 45 64
        E 0 97 51 64
        E 285 81 45 64
        E 0 87 51 64
        E 0 91 47 64
        E 0 97 53 64
        E 286 81 47 64
        E 0 82 36 64
        E 0 83 32 64
        E 1 87 53 64
        E 0 88 36 64
        E 0 8d 32 64
        E 0 90 49 64
        E 0 91 45 64
        E 0 92 40 64
        E 0 93 2d 64
        E 0 97 51 64
        E 0 9e 49 64
        E 0 98 40 64
        E 0 9d 2d 64
        E 284 81 45 64
        E 0 87 51 64
        E 0 91 43 64
        E 0 97 4f 64
        E 284 80 49 64
        E 0 81 43 64
        E 0 82 40 64
        E 0 83 2d 64
        E 0 87 4f 64
        E 0 8e 49 64
        E 0 88 40 64
        E 0 8d 2d 64
        E 0 90 49 64
        E 0 91 45 64
        E 1 92 40 64
        E 0 93 2d 64
        E 0 97 51 64
        E 0 9e 49 64
        E 0 98 40 64
        E 0 9d 2d 64
        E 285 81 45 64
        E 0 87 51 64
        E 0 91 47 64
        E 0 97 53 64
        E 285 80 49 64
        E 2 81 47 64
        E 1 82 40 64
        E 1 83 2d 64
        E 0 87 53 64
        E 0 8e 49 64
        E 0 88 40 64
        E 0 8d 2d 64
        E 0 90 49 64
        E 0 91 45 64
        E 0 92 3d 64
        E 0 93 2d 64
        E 0 97 51 64
        E 0 9e 49 64
        E 0 98 3d 64
        E 0 9d 2d 64
        E 283 81 45 64
        E 0 87 51 64
        E 0 91 43 64
        E 0 97 4f 64
        E 283 80 49 64
        E 0 81 43 64
        E 0 82 3d 64
        E 0 83 2d 64
        E 0 87 4f 64
        E 0 8e 49 64
        E 0 88 3d 64
        E 0 8d 2d 64
        E 0 90 49 64
        E 0 91 42 64
        E 0 92 3d 64
        E 0 93 2d 64
        E 0 97 4e 64
        E 0 9e 49 64
        E 0 98 3d 64
        E 0 9d 2d 64
        E 286 81 42 64
        E 0 87 4e 64
        E 0 91 40 64
        E 0 97 4c 64
        E 285 80 49 64
        E 0 81 40 64
        E 0 82 3d 64
        E 0 83 2d 64
        E 0 87 4c 64
        E 0 8e 49 64
        E 0 88 3d 64
        E 1 8d 2d 64
        E 0 90 4a 64
        E 0 91 42 64
        E 0 92 39 64
        E 0 93 36 64
        E 0 97 4e 64
        E 0 9e 4a 64
        E 0 98 45 64
        E 0 9d 36 64
        E 855 81 42 64
        E 0 82 39 64
        E 0 87 4e 64
        E 0 88 45 64
        E 0 91 40 64
        E 0 92 39 64
        E 0 97 4c 64
        E 0 98 45 64
        E 283 80 4a 64
        E 0 81 40 64
        E 0 82 39 64
        E 0 83 36 64
        E 0 87 4c 64
        E 0 8e 4a 64
        E 0 88 45 64
        E 0 8d 36 64
        E 1 90 4a 64
        E 0 91 3e 64
        E 0 92 39 64
        E 0 93 36 64
        E 0 97 4a 64
        E 0 9e 4a 64
        E 0 98 45 64
        E 0 9d 36 64
        E 285 80 4a 64
        E 0 83 36 64
        E 0 8e 4a 64
        E 0 8d 36 64
        E 0 90 49 64
        E 1 93 34 64
        E 0 9e 49 64
        E 0 9d 34 64
        E 283 80 49 64
        E 0 83 34 64
        E 0 8e 49 64
        E 0 8d 34 64
        E 1 90 4a 64
        E 0 93 36 64
        E 0 9e 4a 64
        E 0 9d 36 64
        E 286 80 4a 64
        E 0 83 36 64
        E 0 8e 4a 64
        E 0 8d 36 64
        E 0 90 4c 64
        E 0 93 37 64
        E 0 9e 4c 64
        E 0 9d 37 64
        E 284 80 4c 64
        E 0 81 3e 64
        E 0 82 39 64
        E 0 83 37 64
        E 0 87 4a 64
        E 0 8e 4c 64
        E 0 88 45 64
        E 0 8d 37 64
        E 0 90 4a 64
        E 0 92 3a 64
        E 0 93 36 64
        E 0 9e 4a 64
        E 0 98 46 64
        E 0 9d 36 64
        E 286 80 4a 64
        E 0 83 36 64
        E 0 8e 4a 64
        E 0 8d 36 64
        E 0 90 49 64
        E 0 93 34 64
        E 0 9e 49 64
        E 0 9d 34 64
        E 285 80 49 64
        E 0 83 34 64
        E 0 8e 49 64
        E 0 8d 34 64
        E 0 90 4a 64
        E 0 93 36 64
        E 0 9e 4a 64
        E 0 9d 36 64
        E 286 80 4a 64
        E 0 83 36 64
        E 0 8e 4a 64
        E 0 8d 36 64
        E 0 90 4c 64
        E 0 93 37 64
        E 1 9e 4c 64
        E 0 9d 37 64
        E 285 80 4c 64
        E 0 82 3a 64
        E 0 83 37 64
        E 0 8e 4c 64
        E 0 88 46 64
        E 0 8d 37 64
        E 0 90 4a 64
        E 0 92 3a 64
        E 0 93 36 64
        E 0 9e 4a 64
        E 0 98 46 64
        E 0 9d 36 64
        E 284 80 4a 64
        E 0 83 36 64
        E 0 8e 4a 64
        E 0 8d 36 64
        E 0 90 49 64
        E 0 93 34 64
        E 0 9e 49 64
        E 0 9d 34 64
        E 284 80 49 64
        E 0 82 3a 64
        E 0 83 34 64
        E 0 8e 49 64
        E 0 88 46 64
        E 0 8d 34 64
        E 0 90 47 64
        E 1 92 3a 64
        E 0 93 32 64
        E 0 9e 47 64
        E 0 98 46 64
        E 0 9d 32 64
        E 285 80 47 64
        E 0 83 32 64
        E 0 8e 47 64
        E 0 8d 32 64
        E 1 90 46 64
        E 0 93 31 64
        E 0 9e 46 64
        E 0 9d 31 64
        E 284 80 46 64
        E 0 82 3a 64
        E 0 83 31 64
        E 0 8e 46 64
        E 0 88 46 64
        E 0 8d 31 64
        E 0 90 47 64
        E 0 91 42 64
        E 0 92 36 64
        E 0 93 32 64
        E 0 97 4e 64
        E 0 9e 47 64
        E 0 98 42 64
        E 0 9d 32 64
        E 569 81 42 64
        E 1 87 4e 64
        E 0 91 42 64
        E 0 97 4e 64
        E 285 80 47 64
        E 0 83 32 64
        E 0 8e 47 64
        E 0 8d 32 64
        E 0 90 47 64
        E 0 93 31 64
        E 0 9e 47 64
        E 0 9d 31 64
        E 285 80 47 64
        E 0 81 42 64
        E 0 82 36 64
        E 0 83 31 64
        E 0 87 4e 64
        E 0 8e 47 64
        E 0 88 42 64
        E 0 8d 31 64
        E 2 90 47 64
        E 2 91 42 64
        E 1 92 36 64
        E 0 93 2f 64
        E 0 97 4e 64
        E 0 9e 47 64
        E 0 98 42 64
        E 0 9d 2f 64
        E 565 81 42 64
        E 0 87 4e 64
        E 0 91 42 64
        E 0 97 4e 64
        E 570 80 47 64
        E 0 81 42 64
        E 0 82 36 64
        E 0 83 2f 64
        E 0 87 4e 64
        E 0 8e 47 64
        E 0 88 42 64
        E 0 8d 2f 64
        E 0 90 47 64
        E 0 91 43 64
        E 0 92 3e 64
        E 0 93 2f 64
        E 0 97 4f 64
        E 0 9e 47 64
        E 0 98 3e 64
        E 0 9d 2f 64
        E 570 80 47 64
        E 0 82 3e 64
        E 0 83 2f 64
        E 0 8e 47 64
        E 0 88 3e 64
        E 0 8d 2f 64
        E 0 90 47 64
        E 0 92 3e 64
        E 0 93 2f 64
        E 0 9e 47 64
        E 0 98 3e 64
        E 0 9d 2f 64
        E 572 80 47 64
        E 0 82 3e 64
        E 0 83 2f 64
        E 0 8e 47 64
        E 0 88 3e 64
        E 0 8d 2f 64
        E 0 90 47 64
        E 0 92 3e 64
        E 0 93 2f 64
        E 0 9e 47 64
        E 0 98 3e 64
        E 0 9d 2f 64
        E 572 80 47 64
        E 0 82 3e 64
        E 0 83 2f 64
        E 0 8e 47 64
        E 0 88 3e 64
        E 0 8d 2f 64
        E 0 90 47 64
        E 0 92 3e 64
        E 0 93 2f 64
        E 0 9e 47 64
        E 0 98 3e 64
        E 1 9d 2f 64
        E 567 80 47 64
        E 0 81 43 64
        E 0 82 3e 64
        E 0 83 2f 64
        E 0 87 4f 64
        E 0 8e 47 64
        E 0 88 3e 64
        E 0 8d 2f 64
        E 0 90 45 64
        E 0 91 43 64
        E 0 92 40 64
        E 0 93 30 64
        E 0 97 4f 64
        E 0 9e 45 64
        E 1 98 40 64
        E 0 9d 30 64
        E 1141 81 43 64
        E 0 82 40 64
        E 0 83 30 64
        E 0 87 4f 64
        E 0 88 40 64
        E 0 8d 30 64
        E 0 91 42 64
        E 0 92 42 64
        E 0 93 32 64
        E 0 97 4e 64
        E 0 98 42 64
        E 0 9d 32 64
        E 1141 80 45 64
        E 0 81 42 64
        E 0 82 42 64
        E 0 83 32 64
        E 0 87 4e 64
        E 0 8e 45 64
        E 0 88 42 64
        E 0 8d 32 64
        E 0 90 43 64
        E 0 91 42 64
        E 0 92 3e 64
        E 0 93 2f 64
        E 0 97 4e 64
        E 0 9e 43 64
        E 0 98 3e 64
        E 0 9d 2f 64
        E 1139 80 43 64
        E 0 81 42 64
        E 0 82 3e 64
        E 0 83 2f 64
        E 0 87 4e 64
        E 0 88 3e 64
        E 0 8d 2f 64
        E 0 90 43 64
        E 0 91 40 64
        E 0 92 40 64
        E 0 93 30 64
        E 0 97 4c 64
        E 0 98 40 64
        E 1 9d 30 64
        E 1141 80 43 64
        E 0 81 40 64
        E 0 82 40 64
        E 0 83 30 64
        E 0 87 4c 64
        E 0 8e 43 64
        E 0 88 40 64
        E 0 8d 30 64
        E 0 90 42 64
        E 0 91 40 64
        E 0 92 3c 64
        E 0 93 2d 64
        E 1 97 4c 64
        E 0 9e 42 64
        E 0 98 3c 64
        E 0 9d 2d 64
        E 1139 80 42 64
        E 0 81 40 64
        E 1 82 3c 64
        E 0 83 2d 64
        E 0 87 4c 64
        E 0 88 3c 64
        E 0 8d 2d 64
        E 0 90 42 64
        E 0 91 3f 64
        E 0 92 3b 64
        E 0 93 2f 64
        E 0 97 4b 64
        E 0 98 3b 64
        E 1 9d 2f 64
        E 1137 80 42 64
        E 0 81 3f 64
        E 0 82 3b 64
        E 0 83 2f 64
        E 0 87 4b 64
        E 0 8e 42 64
        E 0 88 3b 64
        E 0 8d 2f 64
        E 0 92 40 64
        E 0 98 4c 64
        E 573 82 40 64
        E 0 88 4c 64
        E 1 92 40 64
        E 0 98 4c 64
        E 568 82 40 64
        E 0 88 4c 64
        E 0 92 40 64
        E 0 93 34 64
        E 0 98 4c 64
        E 0 9d 34 64
        E 569 82 40 64
        E 0 83 34 64
        E 0 88 4c 64
        E 0 8d 34 64
        E 0 92 40 64
        E 0 93 34 64
        E 1 98 4c 64
        E 0 9d 34 64
        E 571 82 40 64
        E 0 83 34 64
        E 0 88 4c 64
        E 0 8d 34 64
        E 0 91 47 64
        E 0 92 3f 64
        E 0 93 2f 64
        E 0 97 53 64
        E 0 98 4b 64
        E 0 9d 2f 64
        E 570 81 47 64
        E 0 82 3f 64
        E 0 87 53 64
        E 0 88 4b 64
        E 0 91 47 64
        E 0 92 3b 64
        E 0 97 53 64
        E 0 98 47 64
        E 286 82 3b 64
        E 0 88 47 64
        E 0 92 3d 64
        E 0 98 49 64
        E 283 81 47 64
        E 0 82 3d 64
        E 1 83 2f 64
        E 0 87 53 64
        E 0 88 49 64
        E 0 8d 2f 64
        E 0 91 47 64
        E 0 92 3e 64
        E 0 93 2f 64
        E 0 97 53 64
        E 0 98 4a 64
        E 0 9d 2f 64
        E 569 81 47 64
        E 0 87 53 64
        E 0 91 47 64
        E 0 97 53 64
        E 571 81 47 64
        E 0 82 3e 64
        E 0 83 2f 64
        E 0 87 53 64
        E 0 88 4a 64
        E 0 8d 2f 64
        E 0 91 46 64
        E 0 92 3d 64
        E 0 93 36 64
        E 0 97 52 64
        E 0 98 49 64
        E 0 9d 36 64
        E 571 81 46 64
        E 0 82 3d 64
        E 0 87 52 64
        E 0 88 49 64
        E 0 91 42 64
        E 0 92 39 64
        E 0 97 4e 64
        E 0 98 45 64
        E 285 81 42 64
        E 0 82 39 64
        E 0 87 4e 64
        E 0 88 45 64
        E 0 91 44 64
        E 0 92 3b 64
        E 0 97 50 64
        E 0 98 47 64
        E 284 81 44 64
        E 0 82 3b 64
        E 0 83 36 64
        E 0 87 50 64
        E 0 88 47 64
        E 0 8d 36 64
        E 1 91 45 64
        E 0 92 3c 64
        E 0 93 33 64
        E 0 97 51 64
        E 0 98 48 64
        E 0 9d 33 64
        E 1140 81 45 64
        E 0 82 3c 64
        E 0 83 33 64
        E 0 87 51 64
        E 0 88 48 64
        E 0 8d 33 64
        E 0 90 4c 64
        E 0 91 44 64
        E 0 92 3b 64
        E 0 93 34 64
        E 0 97 50 64
        E 0 9e 4c 64
        E 0 98 47 64
        E 0 9d 34 64
        E 570 80 4c 64
        E 0 81 44 64
        E 0 87 50 64
        E 0 8e 4c 64
        E 1 90 4c 64
        E 0 91 40 64
        E 0 97 4c 64
        E 0 9e 4c 64
        E 286 81 40 64
        E 0 87 4c 64
        E 0 91 42 64
        E 0 97 4e 64
        E 285 80 4c 64
        E 0 81 42 64
        E 0 82 3b 64
        E 0 83 34 64
        E 0 87 4e 64
        E 0 8e 4c 64
        E 0 88 47 64
        E 0 8d 34 64
        E 0 90 4c 64
        E 0 91 43 64
        E 0 92 3d 64
        E 0 93 2e 66
        E 0 97 4f 64
        E 0 9e 4c 64
        E 0 98 49 64
        E 0 9d 2e 64
        E 568 80 4c 64
        E 0 8e 4c 64
        E 0 90 4c 64
        E 1 9e 4c 64
        E 572 80 4c 64
        E 0 81 43 64
        E 0 82 3d 64
        E 0 83 2e 66
        E 0 87 4f 64
        E 0 8e 4c 64
        E 0 88 49 64
        E 0 8d 2e 64
        E 0 90 4b 64
        E 0 91 42 64
        E 0 92 36 64
        E 0 93 2f 64
        E 1 97 4e 64
        E 0 9e 4b 64
        E 0 98 42 64
        E 0 9d 2f 64
        E 567 80 4b 64
        E 0 81 42 64
        E 0 87 4e 64
        E 0 8e 4b 64
        E 0 90 47 64
        E 0 91 3e 64
        E 0 97 4a 64
        E 0 9e 47 64
        E 286 80 47 64
        E 0 81 3e 64
        E 0 87 4a 64
        E 0 8e 47 64
        E 0 90 49 64
        E 0 91 40 64
        E 0 97 4c 64
        E 0 9e 49 64
        E 285 80 49 64
        E 0 81 40 64
        E 0 82 36 64
        E 0 83 2f 64
        E 0 87 4c 64
        E 0 8e 49 64
        E 0 88 42 64
        E 0 8d 2f 64
        E 0 90 4a 64
        E 0 91 41 64
        E 0 92 3b 64
        E 0 93 2c 64
        E 0 97 4d 64
        E 0 9e 4a 64
        E 0 98 47 64
        E 0 9d 2c 64
        E 1142 80 4a 64
        E 0 81 41 64
        E 0 82 3b 64
        E 0 83 2c 64
        E 0 87 4d 64
        E 0 8e 4a 64
        E 0 88 47 64
        E 0 8d 2c 64
        E 0 90 49 64
        E 1 91 40 64
        E 1 92 34 64
        E 0 93 2d 64
        E 0 97 4c 64
        E 0 9e 49 64
        E 0 98 40 64
        E 0 9d 2d 64
        E 569 80 49 64
        E 0 8e 49 64
        E 0 90 45 64
        E 0 9e 45 64
        E 282 80 45 64
        E 0 8e 45 64
        E 1 90 47 64
        E 0 9e 47 64
        E 286 80 47 64
        E 0 82 34 64
        E 0 83 2d 64
        E 0 8e 47 64
        E 0 88 40 64
        E 0 8d 2d 64
        E 0 90 48 64
        E 0 92 39 64
        E 0 93 39 64
        E 0 9e 48 64
        E 0 98 39 64
        E 0 9d 39 64
        E 571 80 48 64
        E 1 82 39 64
        E 0 83 39 64
        E 0 8e 48 64
        E 0 88 39 64
        E 0 8d 39 64
        E 0 90 47 64
        E 0 92 3b 64
        E 0 93 37 64
        E 0 9e 47 64
        E 1 98 3b 64
        E 0 9d 37 64
        E 568 80 47 64
        E 0 81 40 64
        E 0 82 3b 64
        E 0 83 37 64
        E 0 87 4c 64
        E 0 8e 47 64
        E 0 88 3b 64
        E 0 8d 37 64
        E 0 90 45 64
        E 1 91 40 64
        E 0 92 3c 64
        E 0 93 36 64
        E 0 97 4c 64
        E 0 9e 45 64
        E 1 98 3c 64
        E 0 9d 36 64
        E 567 80 45 64
        E 0 81 40 64
        E 0 87 4c 64
        E 0 8e 45 64
        E 0 90 47 64
        E 0 91 3f 64
        E 0 97 4b 64
        E 0 9e 47 64
        E 571 80 47 64
        E 0 81 3f 64
        E 0 82 3c 64
        E 0 87 4b 64
        E 0 8e 47 64
        E 0 88 3c 64
        E 0 90 49 64
        E 0 91 40 64
        E 0 92 39 64
        E 0 97 4c 64
        E 0 9e 49 64
        E 0 98 45 64
        E 570 80 49 64
        E 0 81 40 64
        E 0 87 4c 64
        E 0 8e 49 64
        E 0 90 4b 64
        E 0 91 42 64
        E 1 97 4e 64
        E 0 9e 4b 64
        E 570 80 4b 64
        E 0 81 42 64
        E 0 82 39 64
        E 0 83 36 64
        E 0 87 4e 64
        E 0 8e 4b 64
        E 0 88 45 64
        E 0 8d 36 64
        E 1 90 4c 64
        E 0 91 43 64
        E 0 92 3b 64
        E 0 93 34 64
        E 0 97 4f 64
        E 0 9e 4c 64
        E 0 98 47 64
        E 0 9d 34 64
        E 569 83 34 64
        E 0 8d 34 64
        E 0 93 36 64
        E 0 9d 36 64
        E 570 83 36 64
        E 0 8d 36 64
        E 0 93 37 64
        E 0 9d 37 64
        E 569 83 37 64
        E 0 8d 37 64
        E 1 93 39 64
        E 0 9d 39 64
        E 571 80 4c 64
        E 0 81 43 64
        E 0 82 3b 64
        E 0 83 39 64
        E 0 87 4f 64
        E 0 8e 4c 64
        E 0 88 47 64
        E 0 8d 39 64
        E 0 90 4b 64
        E 0 91 42 64
        E 0 92 3b 64
        E 0 93 2f 64
        E 0 97 4e 64
        E 0 9e 4b 64
        E 0 98 47 64
        E 0 9d 2f 64
        E 1139 80 4b 64
        E 0 81 42 64
        E 0 87 4e 64
        E 0 8e 4b 64
        E 0 90 4c 64
        E 1 91 43 64
        E 0 97 4f 64
        E 0 9e 4c 64
        E 1141 80 4c 64
        E 0 81 43 64
        E 0 82 3b 64
        E 0 87 4f 64
        E 0 8e 4c 64
        E 1 90 4b 64
        E 0 91 42 64
        E 0 92 3b 64
        E 0 97 4e 64
        E 0 9e 4b 64
        E 1139 80 4b 64
        E 0 81 42 64
        E 0 87 4e 64
        E 0 8e 4b 64
        E 0 90 4c 64
        E 0 91 43 64
        E 0 97 4f 64
        E 0 9e 4c 64
        E 1142 80 4c 64
        E 0 81 43 64
        E 0 82 3b 64
        E 0 83 2f 64
        E 0 87 4f 64
        E 0 8e 4c 64
        E 0 88 47 64
        E 0 8d 2f 64
        E 0 90 4b 64
        E 0 91 42 64
        E 0 92 3b 64
        E 0 93 2f 64
        E 0 97 4e 64
        E 0 9e 4b 64
        E 1 98 47 64
        E 0 9d 2f 64
        E 1137 81 42 64
        E 0 87 4e 64
        E 1 91 47 64
        E 0 97 53 64
        E 1140 80 4b 64
        E 0 81 47 64
        E 0 83 2f 64
        E 0 87 53 64
        E 0 8e 4b 64
        E 0 90 4c 64
        E 0 91 43 64
        E 0 93 2f 64
        E 0 97 4f 64
        E 0 9e 4c 64
        E 1140 80 4c 64
        E 0 81 43 64
        E 0 87 4f 64
        E 0 8e 4c 64
        E 0 90 4c 64
        E 0 91 42 64
        E 0 97 4e 64
        E 0 9e 4c 64
        E 572 81 42 64
        E 0 87 4e 64
        E 0 91 40 64
        E 1 97 4c 64
        E 568 80 4c 64
        E 0 81 40 64
        E 0 82 3b 64
        E 0 83 2f 64
        E 0 87 4c 64
        E 0 8e 4c 64
        E 0 88 47 64
        E 0 8d 2f 64
        E 1 90 4c 64
        E 0 91 42 64
        E 0 92 3b 64
        E 0 93 2f 64
        E 0 97 4e 64
        E 0 9e 4c 64
        E 0 98 47 64
        E 0 9d 2f 64
        E 2280 80 4c 64
        E 0 8e 4c 64
        E 0 90 4b 64
        E 0 9e 4b 64
        E 2283 80 4b 64
        E 0 81 42 64
        E 0 82 3b 64
        E 0 83 2f 64
        E 0 87 4e 64
        E 0 8e 4b 64
        E 0 88 47 64
        E 0 8d 2f 64
        E 0 90 4c 64
        E 0 91 44 64
        E 0 92 3b 64
        E 0 93 34 64
        E 0 97 50 64
        E 0 9e 4c 64
        E 0 98 47 64
        E 0 9d 28 64
        E 6843 80 4c 64
        E 0 81 44 64
        E 0 82 3b 64
        E 0 83 34 64
        E 0 87 50 64
        E 0 8e 4c 64
        E 0 88 47 64
        E 0 8d 28 64
        E 2281 95 48 64
        E 0 9d 30 64
        E 1152 8d 30 64
        E 0 9d 3c 64
        E 576 85 48 64
        E 0 95 4a 64
        E 576 85 4a 64
        E 0 8d 3c 64
        E 0 95 48 64
        E 0 9d 30 64
        E 1152 85 48 64
        E 0 8d 30 64
        E 0 95 4f 64
        E 0 9d 30 64
        E 1153 8d 30 64
        E 0 9d 3c 64
        E 1152 85 4f 64
        E 0 8d 3c 64
        E 0 95 48 64
        E 0 9d 30 64
        E 1150 85 48 64
        E 1 8d 30 64
        E 0 95 47 64
        E 0 9d 2b 64
        E 1151 8d 2b 64
        E 1 9d 37 64
        E 1153 8d 37 64
        E 0 9d 35 64
        E 1151 85 47 64
        E 0 8d 35 64
        E 0 95 48 64
        E 0 9d 34 64
        E 1152 8d 34 64
        E 0 9d 3c 64
        E 1151 8d 3c 64
        E 0 9d 34 64
        E 1153 85 48 64
        E 0 8d 34 64
        E 0 95 4a 64
        E 0 9d 32 64
        E 1152 8d 32 64
        E 0 9d 2f 64
        E 577 85 4a 64
        E 1 95 4c 64
        E 574 85 4c 64
        E 0 8d 2f 64
        E 0 95 4d 64
        E 0 9d 2d 64
        E 1152 85 4d 64
        E 0 8d 2d 64
        E 0 95 47 64
        E 0 9d 2b 64
        E 1151 8d 2b 64
        E 0 9d 37 64
        E 577 85 47 64
        E 0 95 48 64
        E 576 85 48 64
        E 0 8d 37 64
        E 0 95 4a 64
        E 0 9d 2b 64
        E 1152 85 4a 64
        E 0 8d 2b 64
        E 0 95 4c 64
        E 0 9d 30 64
        E 1153 8d 30 64
        E 0 9d 3c 64
        E 1151 85 4c 64
        E 0 8d 3c 64
        E 0 95 4a 64
        E 0 9d 30 64
        E 1153 85 4a 64
        E 0 8d 30 64
        E 1 95 48 64
        E 0 9d 30 64
        E 1151 8d 30 64
        E 0 9d 3c 64
        E 1152 8d 3c 64
        E 1 9d 30 64
        E 1151 85 48 64
        E 0 8d 30 64
        E 0 95 4c 64
        E 0 9d 2b 64
        E 1152 8d 2b 64
        E 0 9d 37 64
        E 575 85 4c 64
        E 0 95 4d 64
        E 575 85 4d 64
        E 0 8d 37 64
        E 1 95 4c 64
        E 0 9d 2b 64
        E 1153 85 4c 64
        E 0 8d 2b 64
        E 1 95 4f 64
        E 0 9d 2b 64
        E 1150 8d 2b 64
        E 0 9d 37 64
        E 1151 85 4f 64
        E 0 8d 37 64
        E 0 95 4c 64
        E 1 9d 2b 64
        E 1152 85 4c 64
        E 0 8d 2b 64
        E 0 95 49 64
        E 0 9d 2b 64
        E 1152 8d 2b 64
        E 0 9d 37 64
        E 1153 8d 37 64
        E 0 9d 2b 64
        E 1151 85 49 64
        E 0 8d 2b 64
        E 0 95 49 64
        E 0 9d 2b 64
        E 1152 8d 2b 64
        E 0 9d 37 64
        E 575 85 49 64
        E 0 95 47 64
        E 577 85 47 64
        E 0 8d 37 64
        E 0 95 45 64
        E 0 9d 2b 64
        E 1151 85 45 64
        E 0 8d 2b 64
        E 1 95 4d 64
        E 0 9d 2c 64
        E 19277 8d 2c 64
        E 1 9d 38 64
        E 0 85 4d 64
        E 0 95 4c 64
        E 0 85 4c 64
        E 0 8d 38 64
        E 0 95 4a 64
        E 0 9d 2c 64
        E 0 85 4a 64
        E 0 8d 2c 64
        E 0 95 4a 64
        E 0 9d 2d 64
        E 0 8d 2d 64
        E 0 9d 39 64
        E 0 85 4a 64
        E 0 95 4c 64
        E 0 85 4c 64
        E 0 8d 39 64
        E 0 95 49 64
        E 0 9d 2d 64
        E 1 85 49 64
        E 0 8d 2d 64
        E 0 95 4a 64
        E 0 9d 32 64
        E 0 8d 32 64
        E 0 9d 3e 64
        E 0 8d 3e 64
        E 0 9d 32 64
        E 0 85 4a 64
        E 0 8d 32 64
        E 0 9d 30 64
        E 0 8d 30 64
        E 0 9d 3c 64
        E 0 8d 3c 64
        E 0 9d 30 64
        E 0 8d 30 64
        E 0 95 4a 64
        E 0 9d 2f 64
        E 0 8d 2f 64
        E 0 9d 3b 64
        E 0 85 4a 64
        E 0 95 4c 64
        E 0 85 4c 64
        E 0 8d 3b 64
        E 0 95 4a 64
        E 0 9d 2f 64
        E 0 85 4a 64
        E 0 8d 2f 64
        E 0 95 4f 64
        E 0 9d 2f 64
        E 0 8d 2f 64
        E 0 9d 3b 64
        E 19203 85 4f 64
        E 0 8d 3b 64
        E 0 95 4d 64
        E 0 9d 2f 64
        E 0 85 4d 64
        E 0 8d 2f 64
        E 0 95 4d 64
        E 0 9d 30 64
        E 0 8d 30 64
        E 0 9d 3c 64
        E 0 85 4d 64
        E 0 8d 3c 64
        E 0 95 4c 64
        E 0 9d 30 64
        E 0 85 4c 64
        E 0 8d 30 64
        E 0 95 4c 64
        E 0 9d 30 64
        E 0 8d 30 64
        E 0 9d 3c 64
        E 1 85 4c 64
        E 0 95 4d 64
        E 0 85 4d 64
        E 0 8d 3c 64
        E 0 95 4f 64
        E 0 9d 30 64
        E 0 85 4f 64
        E 0 8d 30 64
        E 0 95 4a 64
        E 0 9d 2f 64
        E 0 8d 2f 64
        E 0 9d 3b 64
        E 0 85 4a 64
        E 0 95 4c 64
        E 0 85 4c 64
        E 0 8d 3b 64
        E 0 95 4a 64
        E 0 9d 2f 64
        E 0 85 4a 64
        E 0 8d 2f 64
        E 0 95 4f 64
        E 0 9d 2f 64
        E 0 8d 2f 64
        E 0 9d 3b 64
        E 0 85 4f 64
        E 0 8d 3b 64
        E 0 95 4a 64
        E 0 9d 2f 64
        E 0 85 4a 64
        E 0 8d 2f 64
        E 0 95 48 64
        E 0 9d 2d 64
        E 0 8d 2d 64
        E 0 9d 39 64
        E 0 85 48 64
        E 0 95 4a 64
        E 0 85 4a 64
        E 0 8d 39 64
        E 1 95 48 64
        E 0 9d 2d 64
        E 0 85 48 64
        E 0 8d 2d 64
        E 0 95 4d 64
        E 0 9d 2d 64
        E 19202 8d 2d 64
        E 0 9d 39 64
        E 0 85 4d 64
        E 0 8d 39 64
        E 0 95 48 64
        E 0 9d 2d 64
        E 0 85 48 64
        E 0 8d 2d 64
        E 0 95 47 64
        E 0 9d 2b 64
        E 0 85 47 64
        E 0 8d 2b 64
        E 0 95 43 64
        E 0 9d 37 64
        E 0 85 43 64
        E 0 8d 37 64
        E 0 95 47 64
        E 0 9d 2b 64
        E 0 85 47 64
        E 0 8d 2b 64
        E 0 95 4a 64
        E 1 9d 2b 64
        E 0 85 4a 64
        E 0 8d 2b 64
        E 0 95 4d 64
        E 0 9d 37 64
        E 0 85 4d 64
        E 0 8d 37 64
        E 0 95 4f 64
        E 0 9d 2b 64
        E 0 85 4f 64
        E 0 8d 2b 64
        E 0 95 4c 64
        E 0 9d 30 64
        E 0 85 4c 64
        E 0 8d 30 64
        E 0 95 4f 64
        E 0 9d 3c 64
        E 0 85 4f 64
        E 0 8d 3c 64
        E 0 95 4d 64
        E 0 9d 30 64
        E 0 85 4d 64
        E 0 8d 30 64
        E 0 95 4c 64
        E 0 9d 30 64
        E 0 85 4c 64
        E 0 8d 30 64
        E 0 95 4a 64
        E 0 9d 3c 64
        E 0 85 4a 64
        E 0 8d 3c 64
        E 0 95 48 64
        E 0 9d 30 64
        E 0 85 48 64
        E 0 8d 30 64
        E 0 95 47 64
        E 0 9d 2b 64
        E 0 85 47 64
        E 0 8d 2b 64
        E 1 95 43 64
        E 0 9d 37 64
        E 0 85 43 64
        E 0 8d 37 64
        E 0 95 47 64
        E 0 9d 2b 64
        E 19202 85 47 64
        E 0 8d 2b 64
        E 0 95 4a 64
        E 0 9d 2b 64
        E 0 85 4a 64
        E 0 8d 2b 64
        E 0 95 4d 64
        E 0 9d 37 64
        E 1 85 4d 64
        E 0 8d 37 64
        E 0 95 4f 64
        E 0 9d 2b 64
        E 0 85 4f 64
        E 0 8d 2b 64
        E 0 95 4c 64
        E 0 9d 30 64
        E 0 8d 30 64
        E 0 9d 3c 64
        E 0 85 4c 64
        E 0 95 4a 64
        E 0 85 4a 64
        E 0 8d 3c 64
        E 0 95 48 64
        E 0 9d 30 64
        E 0 85 48 64
        E 0 8d 30 64
        E 0 95 48 64
        E 0 9d 2b 64
        E 0 8d 2b 64
        E 0 9d 37 64
        E 0 85 48 64
        E 0 95 4a 64
        E 0 85 4a 64
        E 0 8d 37 64
        E 0 95 47 64
        E 0 9d 2b 64
        E 0 85 47 64
        E 0 8d 2b 64
        E 0 95 48 64
        E 0 9d 30 64
        E 0 8d 30 64
        E 0 9d 3c 64
        E 0 85 48 64
        E 0 95 4a 64
        E 0 85 4a 64
        E 0 8d 3c 64
        E 0 95 47 64
        E 0 9d 30 64
        E 0 85 47 64
        E 0 8d 30 64
        E 0 95 48 64
        E 1 9d 30 64
        E 0 8d 30 64
        E 0 9d 3c 64
        E 0 8d 3c 64
        E 0 9d 30 64
        E 0 85 48 64
        E 0 8d 30 64
        E 0 9a 43 64
        E 0 9d 30 64
        E 19203 8d 30 64
        E 0 9d 3c 64
        E 0 8a 43 64
        E 0 9a 45 64
        E 0 8a 45 64
        E 0 8d 3c 64
        E 0 9a 43 64
        E 0 9d 30 64
        E 0 8a 43 64
        E 0 8d 30 64
        E 0 9a 4c 64
        E 0 9d 30 64
        E 0 8d 30 64
        E 0 9d 3c 64
        E 0 8a 4c 64
        E 0 8d 3c 64
        E 0 9a 48 64
        E 0 9d 30 64
        E 0 8a 48 64
        E 0 8d 30 64
        E 0 9a 47 64
        E 0 9d 2b 64
        E 0 8d 2b 64
        E 0 9d 37 64
        E 0 8d 37 64
        E 0 9d 35 64
        E 0 8a 47 64
        E 0 8d 35 64
        E 0 9a 48 64
        E 0 9d 34 64
        E 0 8d 34 64
        E 0 9d 3c 64
        E 0 8d 3c 64
        E 0 9d 34 64
        E 0 8a 48 64
        E 0 8d 34 64
        E 0 9a 4a 64
        E 0 9d 32 64
        E 0 8d 32 64
        E 0 9d 2f 64
        E 0 8a 4a 64
        E 0 8d 2f 64
        E 0 9a 4c 64
        E 0 9d 2d 64
        E 0 8a 4c 64
        E 1 8d 2d 64
        E 0 9a 4d 64
        E 0 9d 2b 64
        E 0 8d 2b 64
        E 0 9d 37 64
        E 0 8a 4d 64
        E 0 9a 4c 64
        E 0 8a 4c 64
        E 0 8d 37 64
        E 0 9a 4a 64
        E 0 9d 2f 64
        E 3636 8a 4a 64
        E 0 8d 2f 64
        E 0 9a 4c 64
        E 0 9d 30 64
        E 0 8d 30 64
        E 0 9d 3c 64
        E 0 8d 3c 64
        E 0 9d 30 64
        E 506 8d 30 64
        E 0 9d 30 64
        E 19201 8d 30 64
        E 0 9d 3c 64
        E 0 8d 3c 64
        E 0 9d 30 64
        E 1 8a 4c 64
        E 0 8d 30 64
        E 0 9a 48 64
        E 0 9d 30 64
        E 0 8d 30 64
        E 0 9d 3c 64
        E 0 8d 3c 64
        E 0 9d 30 64
        E 0 8a 48 64
        E 0 8d 30 64
        E 0 9a 48 64
        E 0 9d 30 64
        E 0 8d 30 64
        E 0 9d 3c 64
        E 0 8a 48 64
        E 0 8d 3c 64
        E 0 9a 4c 64
        E 0 9d 30 64
        E 0 8a 4c 64
        E 0 8d 30 64
        E 0 9a 4a 64
        E 0 9d 2f 64
        E 0 8d 2f 64
        E 0 9d 3b 64
        E 0 8a 4a 64
        E 0 8d 3b 64
        E 0 9a 47 64
        E 0 9d 2f 64
        E 0 8a 47 64
        E 0 8d 2f 64
        E 0 9a 43 64
        E 0 9d 2f 64
        E 0 8d 2f 64
        E 0 9d 3b 64
        E 0 8d 3b 64
        E 0 9d 2f 64
        E 0 8a 43 64
        E 0 8d 2f 64
        E 0 9a 48 64
        E 0 9d 2d 64
        E 0 8d 2d 64
        E 0 9d 39 64
        E 1310 8d 39 64
        E 0 9d 2d 64
        E 19214 8a 48 64
        E 0 8d 2d 64
        E 0 9a 48 64
        E 0 9d 2d 64
        E 0 8d 2d 64
        E 0 9d 39 64
        E 0 8a 48 64
        E 0 9a 47 64
        E 0 8a 47 64
        E 0 8d 39 64
        E 0 9a 45 64
        E 0 9d 2d 64
        E 0 8a 45 64
        E 0 8d 2d 64
        E 0 9a 47 64
        E 0 9d 2b 64
        E 0 8a 47 64
        E 0 8d 2b 64
        E 0 9a 4a 64
        E 0 9d 37 64
        E 0 8a 4a 64
        E 0 8d 37 64
        E 0 9a 48 64
        E 0 9d 2b 64
        E 0 8a 48 64
        E 0 8d 2b 64
        E 0 9a 47 64
        E 0 9d 2b 64
        E 0 8a 47 64
        E 0 8d 2b 64
        E 0 9a 45 64
        E 0 9d 37 64
        E 0 8a 45 64
        E 0 8d 37 64
        E 0 9a 43 64
        E 0 9d 2b 64
        E 0 8a 43 64
        E 0 8d 2b 64
        E 0 9a 48 64
        E 1 9d 2d 64
        E 0 8a 48 64
        E 0 8d 2d 64
        E 0 9a 4c 64
        E 0 9d 39 64
        E 0 8a 4c 64
        E 0 8d 39 64
        E 0 9a 4a 64
        E 0 9d 2d 64
        E 0 8a 4a 64
        E 0 8d 2d 64
        E 0 9a 48 64
        E 0 9d 2d 64
        E 0 8a 48 64
        E 0 8d 2d 64
        E 0 9a 47 64
        E 0 9d 39 64
        E 0 8a 47 64
        E 0 8d 39 64
        E 0 9a 45 64
        E 0 9d 2d 64
        E 0 8a 45 64
        E 0 8d 2d 64
        E 0 9a 4a 64
        E 0 9d 2a 64
        E 0 8d 2a 64
        E 0 9d 36 64
        E 16456 8d 36 64
        E 0 9d 2a 64
        E 0 8a 4a 64
        E 0 8d 2a 64
        E 0 9a 4a 64
        E 0 9d 2a 64
        E 0 8d 2a 64
        E 0 9d 36 64
        E 0 8a 4a 64
        E 0 8d 36 64
        E 0 9a 48 64
        E 0 9d 2a 64
        E 0 8a 48 64
        E 0 8d 2a 64
        E 0 9a 47 64
        E 0 9d 2b 64
        E 0 8a 47 64
        E 0 8d 2b 64
        E 1 9a 45 64
        E 0 9d 37 64
        E 0 8a 45 64
        E 0 8d 37 64
        E 0 9a 43 64
        E 0 9d 2b 64
        E 0 8a 43 64
        E 0 8d 2b 64
        E 0 9a 45 64
        E 0 9d 32 64
        E 0 8d 32 64
        E 0 9d 3e 64
        E 0 8a 45 64
        E 0 8d 3e 64
        E 0 9a 43 64
        E 0 9d 32 64
        E 0 8a 43 64
        E 0 8d 32 64
        E 0 95 4a 64
        E 0 9a 43 64
        E 0 9d 2b 64
        E 0 8d 2b 64
        E 0 9d 37 64
        E 0 85 4a 64
        E 0 95 4c 64
        E 0 85 4c 64
        E 0 8d 37 64
        E 0 95 4a 64
        E 0 9d 2b 64
        E 0 85 4a 64
        E 0 8d 2b 64
        E 0 95 4c 64
        E 0 9d 2b 64
        E 16348 8d 2b 64
        E 0 9d 37 64
        E 0 85 4c 64
        E 0 8d 37 64
        E 1 95 4c 64
        E 0 9d 2b 64
        E 0 85 4c 64
        E 0 8a 43 64
        E 0 8d 2b 64
        E 0 95 4c 64
        E 0 9d 2b 64
        E 0 8d 2b 64
        E 0 9d 37 64
        E 0 85 4c 64
        E 0 8d 37 64
        E 0 95 4a 64
        E 0 9d 2b 64
        E 0 85 4a 64
        E 0 8d 2b 64
        E 0 95 4a 64
        E 0 9d 2b 64
        E 0 8d 2b 64
        E 0 9d 37 64
        E 0 8d 37 64
        E 0 9d 2b 64
        E 0 85 4a 64
        E 0 8d 2b 64
        E 0 95 48 64
        E 0 9d 2d 64
        E 0 8d 2d 64
        E 0 9d 39 64
        E 0 85 48 64
        E 0 95 4a 64
        E 0 85 4a 64
        E 0 8d 39 64
        E 0 95 48 64
        E 0 9d 2d 64
        E 0 85 48 64
        E 0 8d 2d 64
        E 0 95 51 64
        E 0 9d 2a 64
        E 0 8d 2a 64
        E 0 9d 36 64
        E 0 85 51 64
        E 0 8d 36 64
        E 0 95 48 64
        E 0 9d 2a 64
        E 19206 85 48 64
        E 2 8d 2a 64
        E 0 95 48 64
        E 0 9d 2b 64
        E 0 8d 2b 64
        E 0 9d 37 64
        E 0 85 48 64
        E 0 8d 37 64
        E 0 95 47 64
        E 0 9d 2b 64
        E 0 85 47 64
        E 0 8d 2b 64
        E 0 95 47 64
        E 1 9a 4a 64
        E 0 9d 2b 64
        E 1 8d 2b 64
        E 0 9d 37 64
        E 0 8d 37 64
        E 0 9d 2b 64
        E 0 85 47 64
        E 0 8a 4a 64
        E 0 8d 2b 64
        E 1 95 47 64
        E 0 9a 4a 64
        E 0 9d 2c 64
        E 0 8d 2c 64
        E 0 9d 38 64
        E 0 85 47 64
        E 0 8a 4a 64
        E 0 95 48 64
        E 0 9a 4c 64
        E 0 85 48 64
        E 0 8a 4c 64
        E 0 8d 38 64
        E 0 95 4a 64
        E 1 9a 4d 64
        E 0 9d 2c 64
        E 0 85 4a 64
        E 0 8a 4d 64
        E 0 8d 2c 64
        E 0 95 48 64
        E 0 9a 4c 64
        E 1 9d 2c 64
        E 0 8d 2c 64
        E 0 9d 38 64
        E 0 85 48 64
        E 1 8a 4c 64
        E 0 8d 38 64
        E 0 95 47 64
        E 0 9a 4a 64
        E 0 9d 2c 64
        E 0 85 47 64
        E 1 8a 4a 64
        E 0 8d 2c 64
        E 0 95 45 64
        E 0 9a 48 64
        E 0 9d 2d 64
        E 0 8d 2d 64
        E 0 9d 39 64
        E 0 85 45 64
        E 0 8a 48 64
        E 0 8d 39 64
        E 0 95 44 64
        E 0 9a 47 64
        E 0 9d 34 64
        E 0 85 44 64
        E 0 8a 47 64
        E 0 8d 34 64
        E 0 95 45 64
        E 0 9a 48 64
        E 0 9d 2d 64
        E 0 8d 2d 64
        E 0 9d 39 64
        E 19204 85 45 64
        E 0 8a 48 64
        E 0 8d 39 64
        E 0 95 47 64
        E 0 9a 4a 64
        E 0 9d 34 64
        E 0 85 47 64
        E 0 8a 4a 64
        E 0 8d 34 64
        E 0 95 48 64
        E 0 9a 4c 64
        E 0 9d 2d 64
        E 0 85 48 64
        E 0 8a 4c 64
        E 0 8d 2d 64
        E 0 95 47 64
        E 0 9a 4a 64
        E 0 9d 39 64
        E 0 85 47 64
        E 0 8a 4a 64
        E 0 8d 39 64
        E 1 95 45 64
        E 0 9a 48 64
        E 0 9d 2d 64
        E 0 85 45 64
        E 0 8a 48 64
        E 0 8d 2d 64
        E 0 95 4d 64
        E 0 9a 47 64
        E 0 9d 32 64
        E 0 8a 47 64
        E 0 8d 32 64
        E 0 9a 48 64
        E 0 9d 3e 64
        E 0 8a 48 64
        E 0 8d 3e 64
        E 0 9a 45 64
        E 0 9d 32 64
        E 0 85 4d 64
        E 0 8a 45 64
        E 0 8d 32 64
        E 0 95 47 64
        E 0 9a 45 64
        E 0 9d 34 64
        E 0 8d 34 64
        E 0 9d 40 64
        E 0 85 47 64
        E 0 95 48 64
        E 0 85 48 64
        E 0 8a 45 64
        E 0 8d 40 64
        E 0 95 47 64
        E 0 9a 44 64
        E 0 9d 34 64
        E 0 85 47 64
        E 0 8a 44 64
        E 0 8d 34 64
        E 0 95 47 64
        E 0 9d 32 64
        E 0 8d 32 64
        E 0 9d 3e 64
        E 0 85 47 64
        E 0 95 48 64
        E 0 85 48 64
        E 0 8d 3e 64
        E 0 95 47 64
        E 0 9d 32 64
        E 0 85 47 64
        E 0 8d 32 64
        E 0 95 4c 64
        E 0 9a 45 64
        E 0 9d 31 64
        E 0 8d 31 64
        E 0 9d 3d 64
        E 0 85 4c 64
        E 0 8d 3d 64
        E 0 95 45 64
        E 1 9d 31 64
        E 0 85 45 64
        E 0 8a 45 64
        E 0 8d 31 64
        E 0 9a 45 64
        E 0 9d 31 64
        E 19202 8d 31 64
        E 0 9d 3d 64
        E 0 8a 45 64
        E 0 8d 3d 64
        E 0 9a 4c 64
        E 0 9d 31 64
        E 0 8a 4c 64
        E 0 8d 31 64
        E 0 9a 41 64
        E 0 9d 32 64
        E 1 8d 32 64
        E 0 9d 3e 64
        E 0 8d 3e 64
        E 0 9d 32 64
        E 0 8a 41 64
        E 0 8d 32 64
        E 0 9a 41 64
        E 0 9d 32 64
        E 0 8a 41 64
        E 0 8d 32 64
        E 0 9a 46 66
        E 0 9d 3e 64
        E 0 8a 46 66
        E 0 8d 3e 64
        E 0 9a 45 64
        E 0 9d 32 64
        E 0 8a 45 64
        E 0 8d 32 64
        E 0 9a 43 64
        E 0 9d 34 64
        E 0 8d 34 64
        E 0 9d 3c 64
        E 0 8d 3c 64
        E 0 9d 34 64
        E 0 8a 43 64
        E 0 8d 34 64
        E 0 9a 43 64
        E 0 9d 34 64
        E 0 8a 43 64
        E 0 8d 34 64
        E 0 9a 48 64
        E 0 9d 3c 64
        E 0 8a 48 64
        E 0 8d 3c 64
        E 0 9a 46 66
        E 0 9d 34 64
        E 0 8a 46 66
        E 0 8d 34 64
        E 0 9a 45 64
        E 0 9d 35 64
        E 0 8d 35 64
        E 0 9d 3c 64
        E 4249 8d 3c 64
        E 0 9d 35 64
        E 0 8a 45 64
        E 0 8d 35 64
        E 0 9a 45 64
        E 0 9d 36 64
        E 0 8a 45 64
        E 0 8d 36 64
        E 0 9a 4a 64
        E 1 9d 3e 64
        E 0 8a 4a 64
        E 0 8d 3e 64
        E 0 9a 48 64
        E 0 9d 36 64
        E 19556 8a 48 64
        E 0 8d 36 64
        E 0 9a 47 64
        E 0 9d 37 64
        E 0 8d 37 64
        E 0 9d 3e 64
        E 0 8d 3e 64
        E 0 9d 37 64
        E 0 8a 47 64
        E 0 8d 37 64
        E 0 9a 47 64
        E 0 9d 38 64
        E 0 8a 47 64
        E 0 8d 38 64
        E 0 9a 4c 64
        E 0 9d 40 64
        E 0 8a 4c 64
        E 0 8d 40 64
        E 0 9a 4a 64
        E 0 9d 38 64
        E 1 8a 4a 64
        E 0 8d 38 64
        E 0 9a 49 64
        E 0 9d 2d 64
        E 0 8a 49 64
        E 0 8d 2d 64
        E 0 9a 47 64
        E 0 9d 39 64
        E 0 8a 47 64
        E 0 8d 39 64
        E 0 9a 45 64
        E 0 9d 2d 64
        E 0 8a 45 64
        E 0 8d 2d 64
        E 0 9d 2d 64
        E 0 8d 2d 64
        E 0 9d 39 64
        E 0 8d 39 64
        E 0 9a 4c 64
        E 0 9d 2d 64
        E 0 8a 4c 64
        E 0 8d 2d 64
        E 0 9a 4d 64
        E 0 9d 2c 64
        E 0 8d 2c 64
        E 0 9d 38 64
        E 0 8a 4d 64
        E 0 9a 4c 64
        E 0 8a 4c 64
        E 0 8d 38 64
        E 0 9a 4a 64
        E 0 9d 2c 64
        E 0 8a 4a 64
        E 0 8d 2c 64
        E 0 9a 4a 64
        E 0 9d 2d 64
        E 0 8a 4a 64
        E 0 8d 2d 64
        E 0 9a 4c 64
        E 0 9d 39 64
        E 3417 8a 4c 64
        E 0 8d 39 64
        E 0 9a 49 64
        E 0 9d 2d 64
        E 1 8a 49 64
        E 0 8d 2d 64
        E 0 95 4a 64
        E 0 9a 4a 64
        E 0 9d 32 64
        E 0 8d 32 64
        E 0 9d 3e 64
        E 0 85 4a 64
        E 0 95 4c 64
        E 11062 85 4c 64
        E 0 8d 3e 64
        E 0 95 4a 64
        E 0 9d 32 64
        E 0 85 4a 64
        E 0 8d 32 64
        E 0 95 4d 64
        E 0 9d 32 64
        E 0 8d 32 64
        E 1 9d 3e 64
        E 0 85 4d 64
        E 0 8d 3e 64
        E 0 95 4a 64
        E 0 9d 32 64
        E 0 85 4a 64
        E 0 8a 4a 64
        E 0 8d 32 64
        E 0 95 46 66
        E 0 9d 2b 64
        E 0 8d 2b 64
        E 0 9d 37 64
        E 0 85 46 66
        E 0 95 48 64
        E 0 85 48 64
        E 0 8d 37 64
        E 0 95 46 66
        E 0 9d 2b 64
        E 0 85 46 66
        E 0 8d 2b 64
        E 0 95 46 66
        E 0 9d 2b 64
        E 0 8d 2b 64
        E 0 9d 37 64
        E 0 85 46 66
        E 0 8d 37 64
        E 0 95 46 66
        E 0 9d 2b 64
        E 19201 85 46 66
        E 0 8d 2b 64
        E 0 95 4c 64
        E 0 9d 30 64
        E 0 8d 30 64
        E 0 9d 3c 64
        E 0 85 4c 64
        E 0 95 4d 64
        E 0 85 4d 64
        E 0 8d 3c 64
        E 0 95 4c 64
        E 0 9d 30 64
        E 0 85 4c 64
        E 0 8d 30 64
        E 0 95 4f 64
        E 0 9d 30 64
        E 0 8d 30 64
        E 0 9d 3c 64
        E 0 85 4f 64
        E 1 8d 3c 64
        E 0 95 46 66
        E 0 9d 30 64
        E 0 85 46 66
        E 0 8d 30 64
        E 0 95 46 66
        E 0 9d 29 64
        E 0 8d 29 64
        E 0 9d 35 64
        E 0 85 46 66
        E 0 8d 35 64
        E 0 95 45 64
        E 0 9d 29 64
        E 0 85 45 64
        E 0 8d 29 64
        E 0 95 45 64
        E 0 9a 48 64
        E 0 9d 29 64
        E 0 8d 29 64
        E 0 9d 35 64
        E 0 8d 35 64
        E 0 9d 29 64
        E 0 85 45 64
        E 0 8a 48 64
        E 0 8d 29 64
        E 0 9a 48 64
        E 0 9d 2a 64
        E 0 8a 48 64
        E 0 8d 2a 64
        E 0 9a 4c 64
        E 0 9d 36 64
        E 0 8a 4c 64
        E 0 8d 36 64
        E 0 9a 4a 64
        E 0 9d 2a 64
        E 0 8a 4a 64
        E 0 8d 2a 64
        E 0 9a 48 64
        E 0 9d 2a 64
        E 19201 8a 48 64
        E 0 8d 2a 64
        E 0 9a 47 64
        E 0 9d 36 64
        E 0 8a 47 64
        E 0 8d 36 64
        E 0 9a 45 64
        E 0 9d 2a 64
        E 0 8a 45 64
        E 0 8d 2a 64
        E 0 9a 47 64
        E 0 9d 2b 64
        E 0 8a 47 64
        E 0 8d 2b 64
        E 1 9a 45 64
        E 0 9d 37 64
        E 0 8a 45 64
        E 0 8d 37 64
        E 0 9a 43 64
        E 0 9d 2b 64
        E 0 8a 43 64
        E 0 8d 2b 64
        E 0 9a 4a 64
        E 0 9d 2b 64
        E 0 8d 2b 64
        E 0 9d 37 64
        E 0 8d 37 64
        E 0 9d 2b 64
        E 0 8a 4a 64
        E 0 8d 2b 64
        E 0 9a 4a 64
        E 0 9d 2c 64
        E 0 8a 4a 64
        E 0 8d 2c 64
        E 0 9a 4d 64
        E 0 9d 38 64
        E 0 8a 4d 64
        E 0 8d 38 64
        E 0 9a 4c 64
        E 0 9d 2c 64
        E 0 8a 4c 64
        E 0 8d 2c 64
        E 0 9a 4a 64
        E 0 9d 2c 64
        E 0 8a 4a 64
        E 0 8d 2c 64
        E 0 9a 48 64
        E 0 9d 38 64
        E 0 8a 48 64
        E 0 8d 38 64
        E 0 9a 47 64
        E 0 9d 2c 64
        E 0 8a 47 64
        E 0 8d 2c 64
        E 0 9a 48 64
        E 0 9d 2d 64
        E 0 8a 48 64
        E 0 8d 2d 64
        E 0 9a 47 64
        E 0 9d 39 64
        E 0 8a 47 64
        E 0 8d 39 64
        E 0 9a 45 64
        E 0 9d 2d 64
        E 19151 8a 45 64
        E 0 8d 2d 64
        E 0 9a 4a 64
        E 0 9d 2a 64
        E 0 8d 2a 64
        E 0 9d 36 64
        E 0 8a 4a 64
        E 0 8d 36 64
        E 0 9a 48 64
        E 0 9d 2a 64
        E 0 8a 48 64
        E 0 8d 2a 64
        E 0 9a 47 64
        E 0 9d 2b 64
        E 0 8d 2b 64
        E 0 9d 37 64
        E 0 8a 47 64
        E 0 8d 37 64
        E 0 9a 45 64
        E 0 9d 2b 64
        E 0 8a 45 64
        E 0 8d 2b 64
        E 0 95 4a 64
        E 0 9a 43 64
        E 0 9d 2b 64
        E 0 8d 2b 64
        E 0 9d 37 64
        E 0 85 4a 64
        E 0 8d 37 64
        E 0 95 48 64
        E 0 9d 2b 64
        E 0 85 48 64
        E 0 8a 43 64
        E 0 8d 2b 64
        E 0 95 47 64
        E 0 9d 2b 64
        E 0 85 47 64
        E 0 8d 2b 64
        E 0 95 45 64
        E 0 9d 37 64
        E 0 85 45 64
        E 0 8d 37 64
        E 0 95 43 64
        E 0 9d 2b 64
        E 0 85 43 64
        E 0 8d 2b 64
        E 0 95 4a 64
        E 0 9a 47 64
        E 1 9d 2b 64
        E 0 8d 2b 64
        E 0 9d 37 64
        E 0 85 4a 64
        E 0 8a 47 64
        E 0 8d 37 64
        E 0 95 4c 64
        E 0 9a 48 64
        E 0 9d 2b 64
        E 0 85 4c 64
        E 0 8a 48 64
        E 0 8d 2b 64
        E 0 95 4c 64
        E 0 9a 48 64
        E 0 9d 2b 64
        E 0 8d 2b 64
        E 0 9d 37 64
        E 19203 85 4c 64
        E 0 8a 48 64
        E 0 8d 37 64
        E 0 95 4a 64
        E 0 9a 47 64
        E 0 9d 2b 64
        E 0 85 4a 64
        E 0 8a 47 64
        E 0 8d 2b 64
        E 0 95 47 64
        E 0 9a 4a 64
        E 0 9d 2b 64
        E 0 8d 2b 64
        E 0 9d 37 64
        E 0 85 47 64
        E 0 8a 4a 64
        E 0 8d 37 64
        E 0 95 48 64
        E 0 9a 4c 64
        E 0 9d 2b 64
        E 0 85 48 64
        E 0 8a 4c 64
        E 0 8d 2b 64
        E 0 95 48 64
        E 1 9a 4c 64
        E 0 9d 2b 64
        E 0 8d 2b 64
        E 0 9d 37 64
        E 0 85 48 64
        E 0 8a 4c 64
        E 0 8d 37 64
        E 0 95 47 64
        E 0 9a 4a 64
        E 0 9d 2b 64
        E 0 85 47 64
        E 0 8a 4a 64
        E 0 8d 2b 64
        E 0 9d 2b 64
        E 0 8d 2b 64
        E 0 9d 37 64
        E 0 8d 37 64
        E 0 9d 2b 64
        E 0 8d 2b 64
        E 0 95 4a 64
        E 0 9a 47 64
        E 0 9d 2b 64
        E 0 85 4a 64
        E 0 8a 47 64
        E 0 8d 2b 64
        E 0 95 4d 64
        E 0 9a 4a 64
        E 0 9d 37 64
        E 0 85 4d 64
        E 0 8a 4a 64
        E 0 8d 37 64
        E 0 95 4c 64
        E 0 9a 48 64
        E 0 9d 2b 64
        E 0 85 4c 64
        E 0 8a 48 64
        E 0 8d 2b 64
        E 0 95 4a 64
        E 1 9a 47 64
        E 0 9d 2b 64
        E 0 85 4a 64
        E 0 8a 47 64
        E 0 8d 2b 64
        E 0 95 48 64
        E 0 9a 45 64
        E 0 9d 37 64
        E 0 85 48 64
        E 0 8a 45 64
        E 0 8d 37 64
        E 0 95 47 64
        E 0 9a 43 64
        E 0 9d 2b 64
        E 12709 85 47 64
        E 0 8a 43 64
        E 0 8d 2b 64
        E 1 95 4c 64
        E 0 9a 48 64
        E 0 9d 2b 64
        E 0 85 4c 64
        E 0 8a 48 64
        E 0 8d 2b 64
        E 0 95 4f 64
        E 0 9a 4c 64
        E 0 9d 37 64
        E 0 85 4f 64
        E 0 8a 4c 64
        E 0 8d 37 64
        E 0 95 4d 64
        E 0 9a 4a 64
        E 0 9d 2b 64
        E 0 85 4d 64
        E 0 8a 4a 64
        E 0 8d 2b 64
        E 0 95 4c 64
        E 0 9a 48 64
        E 0 9d 2b 64
        E 0 85 4c 64
        E 0 8a 48 64
        E 0 8d 2b 64
        E 0 95 4a 64
        E 0 9a 4a 64
        E 0 9d 37 64
        E 0 85 4a 64
        E 0 8a 4a 64
        E 0 8d 37 64
        E 0 95 48 64
        E 0 9a 4c 64
        E 0 9d 2b 64
        E 0 85 48 64
        E 0 8a 4c 64
        E 0 8d 2b 64
        E 0 95 4a 64
        E 0 9a 47 64
        E 0 9d 2b 64
        E 0 85 4a 64
        E 0 8a 47 64
        E 1 8d 2b 64
        E 0 95 4d 64
        E 0 9a 4a 64
        E 0 9d 37 64
        E 0 85 4d 64
        E 0 8a 4a 64
        E 0 8d 37 64
        E 0 95 4c 64
        E 0 9a 48 64
        E 0 9d 2b 64
        E 0 85 4c 64
        E 0 8a 48 64
        E 0 8d 2b 64
        E 0 95 4a 64
        E 0 9a 47 64
        E 0 9d 2b 64
        E 0 85 4a 64
        E 0 8a 47 64
        E 0 8d 2b 64
        E 0 95 48 64
        E 0 9a 45 64
        E 0 9d 37 64
        E 994 85 48 64
        E 0 8a 45 64
        E 0 8d 37 64
        E 1 95 47 64
        E 0 9a 43 64
        E 0 9d 2b 64
        E 19201 85 47 64
        E 0 8a 43 64
        E 0 8d 2b 64
        E 0 95 4c 64
        E 0 9a 48 64
        E 0 9d 2b 64
        E 0 85 4c 64
        E 0 8a 48 64
        E 0 8d 2b 64
        E 0 95 4f 64
        E 0 9a 4c 64
        E 0 9d 37 64
        E 0 85 4f 64
        E 0 8a 4c 64
        E 0 8d 37 64
        E 0 95 4d 64
        E 0 9a 4a 64
        E 0 9d 2b 64
        E 0 85 4d 64
        E 0 8a 4a 64
        E 0 8d 2b 64
        E 0 95 4c 64
        E 0 9a 48 64
        E 0 9d 2b 64
        E 0 85 4c 64
        E 0 8a 48 64
        E 0 8d 2b 64
        E 0 95 4a 64
        E 0 9a 4a 64
        E 0 9d 37 64
        E 0 85 4a 64
        E 0 8a 4a 64
        E 0 8d 37 64
        E 0 95 48 64
        E 0 9a 4c 64
        E 0 9d 2b 64
        E 0 85 48 64
        E 0 8a 4c 64
        E 0 8d 2b 64
        E 0 95 4a 64
        E 0 9a 47 64
        E 1 9d 2b 64
        E 0 8a 47 64
        E 0 8d 2b 64
        E 0 9a 45 64
        E 0 9d 37 64
        E 0 8a 45 64
        E 0 8d 37 64
        E 0 9a 43 64
        E 0 9d 2b 64
        E 0 85 4a 64
        E 0 8a 43 64
        E 0 8d 2b 64
        E 0 9d 2b 64
        E 0 8d 2b 64
        E 0 9d 37 64
        E 0 8d 37 64
        E 0 95 4a 64
        E 0 9a 4d 64
        E 0 9d 2b 64
        E 0 85 4a 64
        E 0 8a 4d 64
        E 0 8d 2b 64
        E 0 95 48 64
        E 0 9a 4c 64
        E 0 9d 30 64
        E 0 85 48 64
        E 0 8a 4c 64
        E 0 8d 30 64
        E 0 95 4a 64
        E 0 9a 4a 64
        E 0 9d 3c 64
        E 0 85 4a 64
        E 0 8a 4a 64
        E 0 8d 3c 64
        E 0 95 4c 64
        E 0 9a 48 64
        E 0 9d 30 64
        E 0 85 4c 64
        E 0 8a 48 64
        E 0 8d 30 64
        E 0 95 47 64
        E 0 9a 4a 64
        E 0 9d 2b 64
        E 0 8d 2b 64
        E 0 9d 37 64
        E 7018 85 47 64
        E 0 8a 4a 64
        E 0 8d 37 64
        E 0 95 48 64
        E 0 9a 48 64
        E 0 9d 2b 64
        E 0 85 48 64
        E 0 8a 48 64
        E 0 8d 2b 64
        E 0 95 48 64
        E 0 9a 48 64
        E 0 9d 30 64
        E 0 85 48 64
        E 0 8d 30 64
        E 0 95 4f 64
        E 0 9d 3c 64
        E 0 85 4f 64
        E 0 8d 3c 64
        E 0 95 4d 64
        E 0 9d 30 64
        E 0 85 4d 64
        E 0 8d 30 64
        E 0 95 4c 64
        E 0 9d 30 64
        E 0 85 4c 64
        E 0 8d 30 64
        E 0 95 4a 64
        E 0 9d 3c 64
        E 17753 85 4a 64
        E 0 8d 3c 64
        E 0 95 48 64
        E 0 9d 30 64
        E 0 85 48 64
        E 0 8a 48 64
        E 0 8d 30 64
        E 0 95 47 64
        E 0 9d 2b 64
        E 1 85 47 64
        E 0 8d 2b 64
        E 0 95 4a 64
        E 0 9d 37 64
        E 0 85 4a 64
        E 0 8d 37 64
        E 0 95 48 64
        E 0 9d 2b 64
        E 0 85 48 64
        E 0 8d 2b 64
        E 0 95 47 64
        E 0 9d 2b 64
        E 0 85 47 64
        E 0 8d 2b 64
        E 0 95 45 64
        E 0 9d 37 64
        E 0 85 45 64
        E 0 8d 37 64
        E 0 95 43 64
        E 0 9d 2b 64
        E 0 85 43 64
        E 0 8d 2b 64
        E 0 95 4c 64
        E 0 9a 43 64
        E 0 9d 30 64
        E 0 85 4c 64
        E 0 8d 30 64
        E 0 95 4a 64
        E 0 9d 3c 64
        E 0 85 4a 64
        E 0 8d 3c 64
        E 0 95 48 64
        E 0 9d 30 64
        E 0 85 48 64
        E 0 8a 43 64
        E 0 8d 30 64
        E 0 9a 43 64
        E 1 9d 30 64
        E 0 8d 30 64
        E 0 9d 3c 64
        E 0 8a 43 64
        E 0 8d 3c 64
        E 0 9a 48 64
        E 0 9d 30 64
        E 0 8a 48 64
        E 0 8d 30 64
        E 0 9a 45 64
        E 0 9d 35 64
        E 0 8a 45 64
        E 0 8d 35 64
        E 0 9a 41 64
        E 0 9d 39 64
        E 7826 8a 41 64
        E 1 8d 39 64
        E 3 9a 43 64
        E 0 9d 37 64
        E 1 8a 43 64
        E 0 8d 37 64
        E 0 9a 45 64
        E 0 9d 36 64
        E 0 8a 45 64
        E 0 8d 36 64
        E 0 9a 4a 64
        E 0 9d 32 64
        E 0 8a 4a 64
        E 0 8d 32 64
        E 0 9a 48 64
        E 0 9d 36 64
        E 0 8a 48 64
        E 0 8d 36 64
        E 0 9a 47 64
        E 1 9d 37 64
        E 0 8a 47 64
        E 0 8d 37 64
        E 0 9a 43 64
        E 0 9d 3b 64
        E 0 8a 43 64
        E 0 8d 3b 64
        E 0 9a 45 64
        E 0 9d 39 64
        E 870 8a 45 64
        E 0 8d 39 64
        E 0 9a 47 64
        E 0 9d 38 64
        E 19205 8a 47 64
        E 0 8d 38 64
        E 0 9a 4c 64
        E 1 9d 34 64
        E 0 8a 4c 64
        E 0 8d 34 64
        E 0 9a 4a 64
        E 0 9d 38 64
        E 0 8a 4a 64
        E 0 8d 38 64
        E 0 9a 48 64
        E 0 9d 39 64
        E 0 8a 48 64
        E 0 8d 39 64
        E 0 9a 45 64
        E 0 9d 3c 64
        E 0 8a 45 64
        E 0 8d 3c 64
        E 0 9a 47 64
        E 0 9d 3b 64
        E 1 8a 47 64
        E 0 8d 3b 64
        E 0 9a 48 64
        E 0 9d 39 64
        E 0 8a 48 64
        E 0 8d 39 64
        E 0 9a 4d 64
        E 0 9d 35 64
        E 0 8a 4d 64
        E 0 8d 35 64
        E 0 9a 4c 64
        E 0 9d 30 64
        E 0 8a 4c 64
        E 0 8d 30 64
        E 0 9a 4a 64
        E 1 9d 2b 64
        E 0 8d 2b 64
        E 0 9d 37 64
        E 0 8d 37 64
        E 0 9d 2b 64
        E 0 8a 4a 64
        E 0 8d 2b 64
        E 0 9a 4a 64
        E 0 9d 2b 64
        E 0 8a 4a 64
        E 0 8d 2b 64
        E 0 9a 47 64
        E 0 9d 37 64
        E 0 8a 47 64
        E 0 8d 37 64
        E 0 9a 48 64
        E 0 9d 2b 64
        E 0 8a 48 64
        E 0 8d 2b 64
        E 0 9a 4a 64
        E 0 9d 2b 64
        E 0 8d 2b 64
        E 0 9d 37 64
        E 0 8d 37 64
        E 1 9d 2b 64
        E 19203 8a 4a 64
        E 0 8d 2b 64
        E 0 9a 4a 64
        E 0 9d 2b 64
        E 0 8a 4a 64
        E 0 8d 2b 64
        E 0 9a 47 64
        E 0 9d 37 64
        E 0 8a 47 64
        E 0 8d 37 64
        E 0 9a 48 64
        E 0 9d 2b 64
        E 0 8a 48 64
        E 0 8d 2b 64
        E 0 9a 4a 64
        E 0 9d 2b 64
        E 0 8d 2b 64
        E 0 9d 37 64
        E 0 8a 4a 64
        E 0 8d 37 64
        E 0 9a 43 64
        E 0 9d 2b 64
        E 0 8a 43 64
        E 0 8d 2b 64
        E 0 9d 2b 64
        E 0 8d 2b 64
        E 0 9d 37 64
        E 0 8d 37 64
        E 0 9a 4a 64
        E 0 9d 2b 64
        E 0 8a 4a 64
        E 0 8d 2b 64
        E 0 9a 4c 64
        E 0 9d 30 64
        E 0 8a 4c 64
        E 0 8d 30 64
        E 0 9a 4a 64
        E 0 9d 3c 64
        E 0 8a 4a 64
        E 0 8d 3c 64
        E 0 9a 48 64
        E 0 9d 30 64
        E 0 8a 48 64
        E 0 8d 30 64
        E 0 9a 48 64
        E 0 9d 2b 64
        E 0 8a 48 64
        E 0 8d 2b 64
        E 1 9a 4a 64
        E 0 9d 37 64
        E 0 8a 4a 64
        E 0 8d 37 64
        E 0 9a 47 64
        E 0 9d 2b 64
        E 0 8a 47 64
        E 0 8d 2b 64
        E 0 9a 48 64
        E 0 9d 30 64
        E 19203 8a 48 64
        E 0 8d 30 64
        E 0 95 48 64
        E 1 9d 30 64
        E 0 8d 30 64
        E 0 9d 3c 64
        E 1 85 48 64
        E 0 95 4a 64
        E 0 85 4a 64
        E 0 8d 3c 64
        E 0 95 48 64
        E 0 9d 30 64
        E 0 85 48 64
        E 0 8d 30 64
        E 0 95 4f 64
        E 0 9d 30 64
        E 0 8d 30 64
        E 0 9d 3c 64
        E 0 85 4f 64
        E 0 8d 3c 64
        E 0 95 48 64
        E 0 9d 30 64
        E 0 85 48 64
        E 0 8d 30 64
        E 0 95 47 64
        E 0 9d 2b 64
        E 0 8d 2b 64
        E 0 9d 37 64
        E 0 8d 37 64
        E 0 9d 35 64
        E 0 85 47 64
        E 0 8d 35 64
        E 0 95 48 64
        E 0 9d 34 64
        E 0 8d 34 64
        E 0 9d 3c 64
        E 0 8d 3c 64
        E 0 9d 34 64
        E 10677 85 48 64
        E 0 8d 34 64
        E 0 95 4a 64
        E 0 9d 32 64
        E 0 8d 32 64
        E 0 9d 2f 64
        E 0 85 4a 64
        E 0 95 4c 64
        E 0 85 4c 64
        E 0 8d 2f 64
        E 0 95 4d 64
        E 0 9d 2d 64
        E 0 85 4d 64
        E 0 8d 2d 64
        E 0 95 47 64
        E 0 9d 2b 64
        E 0 8d 2b 64
        E 0 9d 37 64
        E 0 85 47 64
        E 0 95 48 64
        E 0 85 48 64
        E 0 8d 37 64
        E 0 95 4a 64
        E 0 9d 2b 64
        E 0 85 4a 64
        E 0 8d 2b 64
        E 0 95 4c 64
        E 0 9d 30 64
        E 0 8d 30 64
        E 0 9d 3c 64
        E 0 85 4c 64
        E 0 8d 3c 64
        E 0 95 4a 64
        E 0 9d 30 64
        E 357 85 4a 64
        E 0 8d 30 64
        E 1 95 48 64
        E 0 9d 30 64
        E 19202 8d 30 64
        E 0 9d 3c 64
        E 0 8d 3c 64
        E 0 9d 30 64
        E 0 85 48 64
        E 0 8d 30 64
        E 0 95 4c 64
        E 0 9d 30 64
        E 0 8d 30 64
        E 0 9d 3c 64
        E 0 85 4c 64
        E 0 95 4d 64
        E 0 85 4d 64
        E 0 8d 3c 64
        E 0 95 4c 64
        E 0 9d 30 64
        E 0 85 4c 64
        E 0 8d 30 64
        E 0 95 4f 64
        E 0 9d 30 64
        E 0 8d 30 64
        E 0 9d 3c 64
        E 0 85 4f 64
        E 0 8d 3c 64
        E 0 95 4c 64
        E 0 9d 30 64
        E 0 85 4c 64
        E 0 8d 30 64
        E 0 95 4a 64
        E 0 9d 2f 64
        E 0 8d 2f 64
        E 0 9d 3b 64
        E 0 85 4a 64
        E 0 95 4c 64
        E 0 85 4c 64
        E 0 8d 3b 64
        E 0 95 4a 64
        E 0 9d 2f 64
        E 0 85 4a 64
        E 0 8d 2f 64
        E 1 95 4f 64
        E 0 9d 2f 64
        E 0 8d 2f 64
        E 0 9d 3b 64
        E 0 85 4f 64
        E 0 8d 3b 64
        E 0 95 4a 64
        E 0 9d 2f 64
        E 0 85 4a 64
        E 0 8d 2f 64
        E 0 95 48 64
        E 0 9d 2d 64
        E 0 8d 2d 64
        E 0 9d 39 64
        E 0 85 48 64
        E 0 95 4a 64
        E 788 85 4a 64
        E 0 8d 39 64
        E 0 95 48 64
        E 1 9d 2d 64
        E 19201 85 48 64
        E 0 8d 2d 64
        E 0 95 4d 64
        E 1 9d 2d 64
        E 0 8d 2d 64
        E 0 9d 39 64
        E 0 85 4d 64
        E 0 8d 39 64
        E 0 95 48 64
        E 0 9d 2d 64
        E 0 85 48 64
        E 0 8d 2d 64
        E 0 95 47 64
        E 0 9d 2b 64
        E 0 85 47 64
        E 0 8d 2b 64
        E 0 95 43 64
        E 0 9d 37 64
        E 0 85 43 64
        E 0 8d 37 64
        E 0 95 45 64
        E 0 9d 2b 64
        E 0 85 45 64
        E 0 8d 2b 64
        E 0 95 47 64
        E 0 9d 2b 64
        E 0 85 47 64
        E 0 8d 2b 64
        E 0 95 48 64
        E 0 9d 37 64
        E 0 85 48 64
        E 0 8d 37 64
        E 0 95 4a 64
        E 0 9d 2b 64
        E 0 85 4a 64
        E 0 8d 2b 64
        E 0 95 4c 64
        E 0 9d 2b 64
        E 0 85 4c 64
        E 0 8d 2b 64
        E 0 95 4f 64
        E 0 9d 37 64
        E 0 85 4f 64
        E 0 8d 37 64
        E 0 95 4d 64
        E 0 9d 2b 64
        E 0 85 4d 64
        E 0 8d 2b 64
        E 0 95 4c 64
        E 0 9d 2b 64
        E 0 85 4c 64
        E 0 8d 2b 64
        E 0 95 4a 64
        E 0 9d 37 64
        E 0 85 4a 64
        E 0 8d 37 64
        E 1 95 48 64
        E 0 9d 2b 64
        E 0 85 48 64
        E 0 8d 2b 64
        E 0 95 47 64
        E 0 9d 2b 64
        E 0 85 47 64
        E 0 8d 2b 64
        E 0 95 43 64
        E 0 9d 37 64
        E 7760 85 43 64
        E 0 8d 37 64
        E 0 95 45 64
        E 0 9d 2b 64
        E 0 85 45 64
        E 0 8d 2b 64
        E 0 95 47 64
        E 0 9d 2b 64
        E 0 85 47 64
        E 0 8d 2b 64
        E 0 95 48 64
        E 0 9d 37 64
        E 0 85 48 64
        E 0 8d 37 64
        E 0 95 4a 64
        E 0 9d 2b 64
        E 0 85 4a 64
        E 0 8d 2b 64
        E 0 95 4c 64
        E 0 9d 2b 64
        E 0 85 4c 64
        E 0 8d 2b 64
        E 0 95 4f 64
        E 0 9d 37 64
        E 38404 85 4f 64
        E 0 8d 37 64
        E 0 95 4d 64
        E 0 9d 2b 64
        E 0 85 4d 64
        E 0 8d 2b 64
        E 0 95 4c 64
        E 0 9d 2b 64
        E 0 85 4c 64
        E 0 8d 2b 64
        E 0 95 4a 64
        E 0 9d 37 64
        E 0 85 4a 64
        E 0 8d 37 64
        E 0 95 48 64
        E 0 9d 2b 64
        E 0 85 48 64
        E 0 8d 2b 64
        E 0 95 47 64
        E 0 9d 2b 64
        E 0 85 47 64
        E 0 8d 2b 64
        E 0 95 45 64
        E 0 9d 37 64
        E 0 85 45 64
        E 0 8d 37 64
        E 0 95 43 64
        E 0 9d 2b 64
        E 0 85 43 64
        E 0 8d 2b 64
        E 0 9d 2b 64
        E 0 8d 2b 64
        E 0 9d 37 64
        E 0 8d 37 64
        E 0 95 4f 64
        E 0 9d 2b 64
        E 0 85 4f 64
        E 0 8d 2b 64
        E 0 95 4c 64
        E 0 9d 30 64
        E 0 8d 30 64
        E 0 9d 3c 64
        E 0 85 4c 64
        E 1 95 4a 64
        E 0 85 4a 64
        E 0 8d 3c 64
        E 0 95 48 64
        E 0 9d 30 64
        E 0 85 48 64
        E 0 8d 30 64
        E 0 95 48 64
        E 0 9d 2b 64
        E 0 8d 2b 64
        E 0 9d 37 64
        E 0 85 48 64
        E 0 95 4a 64
        E 0 85 4a 64
        E 0 8d 37 64
        E 0 95 47 64
        E 0 9d 2b 64
        E 0 85 47 64
        E 0 8d 2b 64
        E 0 95 48 64
        E 0 9d 30 64
        E 0 85 48 64
        E 0 8d 30 64
        E 0 97 41 64
        E 0 98 39 64
        E 0 9d 35 64
        E 38410 88 39 64
        E 0 8d 35 64
        E 0 98 39 64
        E 0 9d 35 64
        E 0 87 41 64
        E 0 88 39 64
        E 0 8d 35 64
        E 0 97 41 64
        E 0 98 39 64
        E 0 9d 35 64
        E 0 87 41 64
        E 0 88 39 64
        E 0 8d 35 64
        E 0 97 43 64
        E 0 98 39 64
        E 0 9d 35 64
        E 0 87 43 64
        E 0 88 39 64
        E 0 8d 35 64
        E 0 97 45 64
        E 0 98 39 64
        E 0 9d 35 64
        E 0 87 45 64
        E 0 88 39 64
        E 0 8d 35 64
        E 0 97 46 66
        E 0 98 39 64
        E 0 9d 35 64
        E 0 87 46 66
        E 0 88 39 64
        E 0 8d 35 64
        E 0 97 48 64
        E 0 98 37 64
        E 0 9d 34 64
        E 0 87 48 64
        E 0 88 37 64
        E 0 8d 34 64
        E 0 97 46 66
        E 0 98 37 64
        E 0 9d 34 64
        E 0 87 46 66
        E 0 88 37 64
        E 0 8d 34 64
        E 0 97 48 64
        E 0 9e 4f 64
        E 0 98 37 64
        E 0 9d 34 64
        E 0 87 48 64
        E 0 88 37 64
        E 0 8d 34 64
        E 0 97 4a 64
        E 0 98 37 64
        E 0 9d 34 64
        E 0 87 4a 64
        E 0 8e 4f 64
        E 0 88 37 64
        E 0 8d 34 64
        E 0 97 4c 64
        E 0 9e 54 64
        E 0 98 43 64
        E 0 9d 34 64
        E 0 87 4c 64
        E 0 88 43 64
        E 0 8d 34 64
        E 1 97 48 64
        E 0 98 43 64
        E 0 9d 34 64
        E 0 87 48 64
        E 0 8e 54 64
        E 0 88 43 64
        E 0 8d 34 64
        E 0 97 4d 64
        E 0 9e 54 64
        E 0 98 45 64
        E 0 9d 32 64
        E 0 87 4d 64
        E 0 88 45 64
        E 0 8d 32 64
        E 0 97 4c 64
        E 0 98 45 64
        E 0 9d 32 64
        E 0 87 4c 64
        E 0 8e 54 64
        E 0 88 45 64
        E 0 8d 32 64
        E 0 97 4d 64
        E 0 9e 53 64
        E 0 98 41 64
        E 0 9d 32 64
        E 0 87 4d 64
        E 0 88 41 64
        E 0 8d 32 64
        E 0 97 4f 64
        E 0 98 41 64
        E 0 9d 32 64
        E 0 87 4f 64
        E 0 88 41 64
        E 0 8d 32 64
        E 0 97 51 64
        E 0 98 3e 64
        E 0 9d 32 64
        E 0 87 51 64
        E 0 88 3e 64
        E 0 8d 32 64
        E 0 97 52 66
        E 0 98 3e 64
        E 0 9d 32 64
        E 0 87 52 66
        E 0 8e 53 64
        E 0 88 3e 64
        E 0 8d 32 64
        E 0 97 54 64
        E 0 98 40 64
        E 1 9d 30 64
        E 0 88 40 64
        E 0 8d 30 64
        E 0 98 40 64
        E 0 9d 30 64
        E 0 87 54 64
        E 0 88 40 64
        E 0 8d 30 64
        E 0 97 48 64
        E 0 9e 4c 64
        E 0 98 45 64
        E 0 9d 30 64
        E 0 88 45 64
        E 0 8d 30 64
        E 0 98 45 64
        E 0 9d 30 64
        E 0 87 48 64
        E 0 8e 4c 64
        E 0 88 45 64
        E 0 8d 30 64
        E 0 97 48 64
        E 0 9e 51 64
        E 0 98 40 64
        E 0 9d 30 64
        E 0 88 40 64
        E 0 8d 30 64
        E 0 98 40 64
        E 0 9d 30 64
        E 0 87 48 64
        E 0 8e 51 64
        E 0 88 40 64
        E 0 8d 30 64
        E 0 97 4a 64
        E 0 9e 51 64
        E 0 98 41 64
        E 0 9d 2e 66
        E 0 88 41 64
        E 0 8d 2e 66
        E 0 98 41 64
        E 0 9d 2e 66
        E 0 87 4a 64
        E 0 8e 51 64
        E 0 88 41 64
        E 0 8d 2e 66
        E 0 97 46 66
        E 0 9e 4f 64
        E 0 98 3e 64
        E 0 9d 2e 66
        E 0 87 46 66
        E 0 88 3e 64
        E 0 8d 2e 66
        E 0 97 48 64
        E 0 98 3e 64
        E 0 9d 2e 66
        E 0 87 48 64
        E 0 88 3e 64
        E 0 8d 2e 66
        E 0 97 4a 64
        E 0 98 3a 66
        E 0 9d 2e 66
        E 0 87 4a 64
        E 0 88 3a 66
        E 0 8d 2e 66
        E 0 97 4c 64
        E 1 98 3a 66
        E 0 9d 2e 66
        E 0 87 4c 64
        E 0 8e 4f 64
        E 0 88 3a 66
        E 0 8d 2e 66
        E 0 97 4d 64
        E 0 98 3c 64
        E 0 9d 2d 64
        E 0 87 4d 64
        E 0 88 3c 64
        E 0 8d 2d 64
        E 0 97 4c 64
        E 0 98 3c 64
        E 0 9d 2d 64
        E 0 87 4c 64
        E 0 88 3c 64
        E 0 8d 2d 64
        E 0 97 4d 64
        E 0 9e 48 64
        E 0 98 3c 64
        E 0 9d 2d 64
        E 0 87 4d 64
        E 0 88 3c 64
        E 0 8d 2d 64
        E 0 97 4f 64
        E 0 98 3c 64
        E 0 9d 2d 64
        E 0 87 4f 64
        E 0 8e 48 64
        E 0 88 3c 64
        E 0 8d 2d 64
        E 0 97 51 64
        E 0 9e 4d 64
        E 0 98 3c 64
        E 0 9d 2d 64
        E 0 87 51 64
        E 0 88 3c 64
        E 0 8d 2d 64
        E 0 97 4d 64
        E 0 98 3c 64
        E 0 9d 2d 64
        E 0 87 4d 64
        E 0 8e 4d 64
        E 0 88 3c 64
        E 0 8d 2d 64
        E 0 97 52 66
        E 0 9e 4d 64
        E 0 98 3e 64
        E 0 9d 2b 64
        E 0 87 52 66
        E 0 88 3e 64
        E 0 8d 2b 64
        E 0 97 51 64
        E 0 98 3e 64
        E 1 9d 2b 64
        E 0 87 51 64
        E 0 8e 4d 64
        E 0 88 3e 64
        E 0 8d 2b 64
        E 0 97 52 66
        E 0 9e 4c 64
        E 0 98 43 64
        E 0 9d 2b 64
        E 0 87 52 66
        E 0 88 43 64
        E 0 8d 2b 64
        E 0 97 4f 64
        E 0 98 43 64
        E 0 9d 2b 64
        E 0 87 4f 64
        E 0 88 43 64
        E 0 8d 2b 64
        E 0 97 51 64
        E 0 98 3a 66
        E 0 9d 2b 64
        E 0 87 51 64
        E 0 88 3a 66
        E 0 8d 2b 64
        E 0 97 52 66
        E 0 98 3a 66
        E 0 9d 2b 64
        E 0 87 52 66
        E 0 8e 4c 64
        E 0 88 3a 66
        E 0 8d 2b 64
        E 0 97 51 64
        E 0 9e 4d 64
        E 0 98 3c 64
        E 0 9d 29 64
        E 0 87 51 64
        E 0 8e 4d 64
        E 0 88 3c 64
        E 0 8d 29 64
        E 0 97 4d 64
        E 0 9e 4a 64
        E 0 98 3e 64
        E 0 9d 2e 66
        E 0 87 4d 64
        E 0 8e 4a 64
        E 0 88 3e 64
        E 0 8d 2e 66
        E 0 97 4c 64
        E 0 9e 43 64
        E 0 98 3c 64
        E 0 9d 30 64
        E 0 8d 30 64
        E 0 9d 24 64
        E 1 87 4c 64
        E 0 8e 43 64
        E 0 88 3c 64
        E 0 97 4d 64
        E 0 9e 45 64
        E 0 98 3c 64
        E 0 87 4d 64
        E 0 8e 45 64
        E 0 88 3c 64
        E 0 8d 24 64
        E 0 91 41 64
        E 0 93 35 64
        E 0 97 4d 64
        E 0 9e 45 64
        E 0 98 3c 64
        E 0 9d 35 64
        E 0 8d 35 64
        E 0 9d 35 64
        E 0 81 41 64
        E 0 83 35 64
        E 0 87 4d 64
        E 0 8e 45 64
        E 0 88 3c 64
        E 0 8d 35 64
        E 0 91 41 64
        E 0 93 35 64
        E 0 98 41 64
        E 0 9d 35 64
        E 0 81 41 64
        E 0 88 41 64
        E 0 8d 35 64
        E 0 91 43 64
        E 0 98 43 64
        E 0 9d 35 64
        E 0 81 43 64
        E 0 88 43 64
        E 0 8d 35 64
        E 0 91 45 64
        E 0 98 45 64
        E 0 9d 35 64
        E 0 83 35 64
        E 0 93 35 64
        E 0 81 45 64
        E 0 88 45 64
        E 0 8d 35 64
        E 0 91 46 66
        E 0 98 46 66
        E 0 9d 35 64
        E 0 81 46 66
        E 1 83 35 64
        E 0 88 46 66
        E 0 8d 35 64
        E 0 91 48 64
        E 0 93 34 64
        E 0 9e 4f 64
        E 0 98 48 64
        E 0 9d 34 64
        E 0 8d 34 64
        E 0 9d 34 64
        E 0 81 48 64
        E 0 83 34 64
        E 0 8e 4f 64
        E 0 88 48 64
        E 0 8d 34 64
        E 0 91 3c 64
        E 0 93 34 64
        E 0 97 54 64
        E 0 9e 4c 64
        E 0 98 3c 64
        E 0 9d 34 64
        E 0 8d 34 64
        E 0 9d 34 64
        E 0 81 3c 64
        E 0 8e 4c 64
        E 0 88 3c 64
        E 0 8d 34 64
        E 0 91 3e 64
        E 0 9e 48 64
        E 0 98 3e 64
        E 0 9d 34 64
        E 0 81 3e 64
        E 0 88 3e 64
        E 0 8d 34 64
        E 0 91 40 64
        E 0 98 40 64
        E 0 9d 34 64
        E 0 81 40 64
        E 0 83 34 64
        E 0 87 54 64
        E 0 8e 48 64
        E 0 88 40 64
        E 0 8d 34 64
        E 0 91 41 64
        E 0 93 32 64
        E 0 97 54 64
        E 0 9e 51 64
        E 0 98 41 64
        E 0 9d 32 64
        E 0 8d 32 64
        E 0 9d 32 64
        E 0 81 41 64
        E 0 83 32 64
        E 0 87 54 64
        E 0 8e 51 64
        E 0 88 41 64
        E 0 8d 32 64
        E 0 91 41 64
        E 1 93 32 64
        E 0 97 4a 64
        E 0 9e 4d 64
        E 0 98 41 64
        E 0 9d 32 64
        E 0 81 41 64
        E 0 88 41 64
        E 0 8d 32 64
        E 0 91 40 64
        E 0 98 40 64
        E 0 9d 32 64
        E 0 81 40 64
        E 0 87 4a 64
        E 0 8e 4d 64
        E 0 88 40 64
        E 0 8d 32 64
        E 0 91 41 64
        E 0 97 52 66
        E 0 9e 4a 64
        E 0 98 41 64
        E 0 9d 32 64
        E 0 81 41 64
        E 0 88 41 64
        E 0 8d 32 64
        E 0 91 43 64
        E 0 98 43 64
        E 0 9d 32 64
        E 0 81 43 64
        E 0 83 32 64
        E 0 87 52 66
        E 0 8e 4a 64
        E 0 88 43 64
        E 0 8d 32 64
        E 0 91 40 64
        E 0 93 30 64
        E 0 97 52 66
        E 0 9e 4f 64
        E 0 98 40 64
        E 0 9d 30 64
        E 0 8d 30 64
        E 0 9d 30 64
        E 0 81 40 64
        E 0 87 52 66
        E 0 8e 4f 64
        E 0 88 40 64
        E 0 8d 30 64
        E 0 91 45 64
        E 0 97 48 64
        E 0 9e 4c 64
        E 0 98 45 64
        E 0 9d 30 64
        E 0 83 30 64
        E 1 93 30 64
        E 0 81 45 64
        E 0 88 45 64
        E 0 8d 30 64
        E 0 91 43 64
        E 0 98 43 64
        E 0 9d 30 64
        E 0 81 43 64
        E 0 83 30 64
        E 0 87 48 64
        E 0 8e 4c 64
        E 0 88 43 64
        E 0 8d 30 64
        E 0 91 45 64
        E 0 93 30 64
        E 0 97 51 64
        E 0 9e 48 64
        E 0 98 45 64
        E 0 9d 30 64
        E 0 8d 30 64
        E 0 9d 30 64
        E 0 81 45 64
        E 0 83 30 64
        E 0 87 51 64
        E 0 8e 48 64
        E 0 88 45 64
        E 0 8d 30 64
        E 0 91 3e 64
        E 0 93 3a 66
        E 0 97 51 64
        E 0 9e 4d 64
        E 0 98 3e 64
        E 0 9d 2e 66
        E 0 8d 2e 66
        E 0 9d 2e 66
        E 0 81 3e 64
        E 0 87 51 64
        E 0 8e 4d 64
        E 0 88 3e 64
        E 0 8d 2e 66
        E 0 91 43 64
        E 0 97 46 66
        E 0 9e 4a 64
        E 0 98 43 64
        E 0 9d 2e 66
        E 0 81 43 64
        E 0 88 43 64
        E 0 8d 2e 66
        E 1 91 41 64
        E 0 98 41 64
        E 0 9d 2e 66
        E 0 81 41 64
        E 0 87 46 66
        E 0 8e 4a 64
        E 0 88 41 64
        E 0 8d 2e 66
        E 0 91 43 64
        E 0 97 4f 64
        E 0 9e 46 66
        E 0 98 43 64
        E 0 9d 2e 66
        E 0 8d 2e 66
        E 0 9d 2e 66
        E 0 81 43 64
        E 0 83 3a 66
        E 0 87 4f 64
        E 0 8e 46 66
        E 0 88 43 64
        E 0 8d 2e 66
        E 0 91 3c 64
        E 0 93 39 64
        E 0 97 4f 64
        E 0 9e 4c 64
        E 0 98 3c 64
        E 0 9d 2d 64
        E 0 8d 2d 64
        E 0 9d 2d 64
        E 0 81 3c 64
        E 0 87 4f 64
        E 0 8e 4c 64
        E 0 88 3c 64
        E 0 8d 2d 64
        E 0 91 41 64
        E 0 97 45 64
        E 0 9e 48 64
        E 0 98 41 64
        E 0 9d 2d 64
        E 0 81 41 64
        E 0 88 41 64
        E 0 8d 2d 64
        E 0 91 40 64
        E 0 98 40 64
        E 0 9d 2d 64
        E 0 81 40 64
        E 0 87 45 64
        E 0 8e 48 64
        E 0 88 40 64
        E 0 8d 2d 64
        E 0 91 41 64
        E 0 97 4d 64
        E 0 9e 45 64
        E 0 98 41 64
        E 0 9d 2d 64
        E 0 8d 2d 64
        E 0 9d 2d 64
        E 0 81 41 64
        E 0 83 39 64
        E 0 87 4d 64
        E 0 8e 45 64
        E 0 88 41 64
        E 0 8d 2d 64
        E 0 91 46 66
        E 0 93 37 64
        E 0 97 4d 64
        E 0 9e 4a 64
        E 1 98 46 66
        E 0 9d 2b 64
        E 0 81 46 66
        E 0 88 46 66
        E 0 8d 2b 64
        E 0 91 45 64
        E 0 98 45 64
        E 0 9d 2b 64
        E 0 81 45 64
        E 0 87 4d 64
        E 0 8e 4a 64
        E 0 88 45 64
        E 0 8d 2b 64
        E 0 91 46 66
        E 0 97 4c 64
        E 0 9e 46 66
        E 0 98 46 66
        E 0 9d 2b 64
        E 0 81 46 66
        E 0 88 46 66
        E 0 8d 2b 64
        E 0 91 43 64
        E 0 98 43 64
        E 0 9d 2b 64
        E 0 81 43 64
        E 0 8e 46 66
        E 0 88 43 64
        E 0 8d 2b 64
        E 0 91 45 64
        E 1 9e 43 64
        E 0 98 45 64
        E 0 9d 2b 64
        E 0 81 45 64
        E 0 88 45 64
        E 0 8d 2b 64
        E 0 91 46 66
        E 0 98 46 66
        E 0 9d 2b 64
        E 29288 81 46 66
        E 0 83 37 64
        E 0 87 4c 64
        E 0 8e 43 64
        E 0 88 46 66
        E 0 8d 2b 64
        E 0 91 45 64
        E 0 93 35 64
        E 0 97 4d 64
        E 0 9e 48 64
        E 0 98 45 64
        E 0 9d 29 64
        E 0 81 45 64
        E 0 83 35 64
        E 0 88 45 64
        E 0 91 43 64
        E 0 93 2e 66
        E 0 98 43 64
        E 0 81 43 64
        E 0 87 4d 64
        E 0 88 43 64
        E 0 8d 29 64
        E 0 91 41 64
        E 0 97 45 64
        E 0 98 41 64
        E 0 9d 2e 66
        E 0 81 41 64
        E 0 83 2e 66
        E 0 87 45 64
        E 0 88 41 64
        E 0 8d 2e 66
        E 0 91 40 64
        E 0 93 30 64
        E 0 97 43 64
        E 0 98 40 64
        E 0 9d 30 64
        E 0 87 43 64
        E 0 97 45 64
        E 0 87 45 64
        E 0 8d 30 64
        E 0 97 46 66
        E 0 9d 24 64
        E 0 88 40 64
        E 0 98 41 64
        E 0 87 46 66
        E 0 97 48 64
        E 0 8e 48 64
        E 0 81 40 64
        E 0 83 30 64
        E 0 87 48 64
        E 0 88 41 64
        E 0 8d 24 64
        E 0 9e 48 64
        E 0 91 41 64
        E 0 93 35 64
        E 0 97 45 64
        E 0 98 41 64
        E 0 9d 35 64
        E 0 87 45 64
        E 0 8d 35 64
        E 0 97 43 64
        E 0 9d 34 64
        E 0 87 43 64
        E 0 8d 34 64
        E 0 97 45 64
        E 0 9d 35 64
        E 0 8e 48 64
        E 0 9e 47 64
        E 0 87 45 64
        E 0 8d 35 64
        E 0 97 47 64
        E 0 9d 37 64
        E 0 8e 47 64
        E 0 87 47 64
        E 0 8d 37 64
        E 0 9e 45 64
        E 0 97 48 64
        E 0 9d 39 64
        E 0 87 48 64
        E 0 8d 39 64
        E 0 97 4a 64
        E 0 9d 3b 64
        E 0 81 41 64
        E 0 83 35 64
        E 0 87 4a 64
        E 0 8e 45 64
        E 0 88 41 64
        E 0 8d 3b 64
        E 0 90 48 64
        E 0 92 3c 64
        E 0 97 4c 64
        E 0 9e 43 64
        E 0 9d 3c 64
        E 0 8d 3c 64
        E 0 9d 3c 64
        E 0 80 48 64
        E 0 82 3c 64
        E 0 87 4c 64
        E 0 8e 43 64
        E 0 8d 3c 64
        E 0 90 48 64
        E 0 92 3c 64
        E 0 9e 48 64
        E 0 9d 3c 64
        E 0 80 48 64
        E 0 8e 48 64
        E 0 8d 3c 64
        E 0 90 4a 64
        E 0 9e 4a 64
        E 0 9d 3c 64
        E 0 80 4a 64
        E 0 8e 4a 64
        E 0 8d 3c 64
        E 0 90 4c 64
        E 0 9e 4c 64
        E 0 9d 3c 64
        E 0 82 3c 64
        E 0 92 3c 64
        E 0 80 4c 64
        E 0 8e 4c 64
        E 0 8d 3c 64
        E 0 90 4d 64
        E 0 9e 4d 64
        E 0 9d 3c 64
        E 0 80 4d 64
        E 0 82 3c 64
        E 0 8e 4d 64
        E 0 8d 3c 64
        E 0 90 4f 64
        E 0 92 3b 64
        E 0 9e 4f 64
        E 0 98 3e 64
        E 0 9d 3b 64
        E 0 8d 3b 64
        E 0 9d 3b 64
        E 0 80 4f 64
        E 0 82 3b 64
        E 0 8e 4f 64
        E 0 88 3e 64
        E 0 8d 3b 64
        E 0 90 43 64
        E 0 92 3b 64
        E 0 97 4f 64
        E 0 9e 43 64
        E 0 98 3b 64
        E 0 9d 3b 64
        E 0 8d 3b 64
        E 0 9d 3b 64
        E 0 80 43 64
        E 0 8e 43 64
        E 0 88 3b 64
        E 0 8d 3b 64
        E 0 90 45 64
        E 0 9e 45 64
        E 0 98 37 64
        E 0 9d 3b 64
        E 0 80 45 64
        E 0 8e 45 64
        E 0 8d 3b 64
        E 0 90 47 64
        E 0 9e 47 64
        E 0 9d 3b 64
        E 0 80 47 64
        E 0 82 3b 64
        E 0 87 4f 64
        E 1 8e 47 64
        E 0 88 37 64
        E 0 8d 3b 64
        E 0 90 48 64
        E 0 92 39 64
        E 0 97 4f 64
        E 0 9e 48 64
        E 0 98 40 64
        E 0 9d 39 64
        E 0 8d 39 64
        E 0 9d 39 64
        E 0 80 48 64
        E 0 82 39 64
        E 0 87 4f 64
        E 0 8e 48 64
        E 0 88 40 64
        E 0 8d 39 64
        E 0 90 48 64
        E 0 92 39 64
        E 0 97 45 64
        E 0 9e 48 64
        E 0 98 3c 64
        E 0 9d 39 64
        E 0 80 48 64
        E 0 8e 48 64
        E 0 8d 39 64
        E 0 90 47 64
        E 0 9e 47 64
        E 0 9d 39 64
        E 0 80 47 64
        E 0 87 45 64
        E 0 8e 47 64
        E 0 88 3c 64
        E 0 8d 39 64
        E 0 90 48 64
        E 0 97 4d 64
        E 0 9e 48 64
        E 0 98 39 64
        E 0 9d 39 64
        E 0 80 48 64
        E 0 8e 48 64
        E 0 8d 39 64
        E 0 90 4a 64
        E 0 9e 4a 64
        E 0 9d 39 64
        E 0 80 4a 64
        E 0 82 39 64
        E 0 87 4d 64
        E 0 8e 4a 64
        E 0 88 39 64
        E 0 8d 39 64
        E 0 90 47 64
        E 0 92 37 64
        E 0 97 4d 64
        E 0 9e 47 64
        E 0 98 3e 64
        E 0 9d 37 64
        E 0 8d 37 64
        E 0 9d 37 64
        E 0 80 47 64
        E 0 87 4d 64
        E 0 8e 47 64
        E 0 88 3e 64
        E 0 8d 37 64
        E 0 90 4c 64
        E 0 97 43 64
        E 0 9e 4c 64
        E 0 98 3b 64
        E 0 9d 37 64
        E 0 82 37 64
        E 0 92 37 64
        E 0 80 4c 64
        E 0 8e 4c 64
        E 0 8d 37 64
        E 0 90 4a 64
        E 0 9e 4a 64
        E 0 9d 37 64
        E 0 80 4a 64
        E 0 82 37 64
        E 0 87 43 64
        E 0 8e 4a 64
        E 0 88 3b 64
        E 0 8d 37 64
        E 0 90 4c 64
        E 0 92 37 64
        E 1 97 4c 64
        E 0 9e 4c 64
        E 0 98 37 64
        E 0 9d 37 64
        E 0 8d 37 64
        E 0 9d 37 64
        E 0 80 4c 64
        E 0 82 37 64
        E 0 87 4c 64
        E 0 8e 4c 64
        E 0 88 37 64
        E 0 8d 37 64
        E 0 90 45 64
        E 0 92 41 64
        E 0 97 4c 64
        E 0 9e 45 64
        E 0 98 48 64
        E 0 9d 35 64
        E 0 8d 35 64
        E 1 9d 35 64
        E 0 80 45 64
        E 0 87 4c 64
        E 0 8e 45 64
        E 0 88 48 64
        E 0 8d 35 64
        E 0 90 4a 64
        E 0 97 41 64
        E 0 9e 4a 64
        E 0 98 45 64
        E 0 9d 35 64
        E 0 80 4a 64
        E 0 8e 4a 64
        E 0 8d 35 64
        E 0 90 48 64
        E 0 9e 48 64
        E 0 9d 35 64
        E 0 80 48 64
        E 0 87 41 64
        E 0 8e 48 64
        E 0 88 45 64
        E 0 8d 35 64
        E 0 90 4a 64
        E 0 97 4a 64
        E 0 9e 4a 64
        E 0 98 41 64
        E 0 9d 35 64
        E 0 8d 35 64
        E 0 9d 35 64
        E 0 80 4a 64
        E 0 82 41 64
        E 0 87 4a 64
        E 0 8e 4a 64
        E 0 88 41 64
        E 0 8d 35 64
        E 0 90 43 64
        E 0 92 40 64
        E 0 97 4a 64
        E 0 9e 43 64
        E 0 98 47 64
        E 0 9d 34 64
        E 0 8d 34 64
        E 0 9d 34 64
        E 0 80 43 64
        E 0 87 4a 64
        E 0 8e 43 64
        E 0 88 47 64
        E 0 8d 34 64
        E 0 90 48 64
        E 0 97 40 64
        E 0 9e 48 64
        E 0 98 43 64
        E 0 9d 34 64
        E 0 80 48 64
        E 0 87 40 64
        E 0 8e 48 64
        E 0 8d 34 64
        E 0 90 47 64
        E 0 97 43 64
        E 0 9e 47 64
        E 0 9d 34 64
        E 0 80 47 64
        E 0 87 43 64
        E 0 8e 47 64
        E 0 88 43 64
        E 0 8d 34 64
        E 0 90 48 64
        E 1 97 48 64
        E 0 9e 48 64
        E 0 98 40 64
        E 0 9d 34 64
        E 0 87 48 64
        E 0 8d 34 64
        E 0 97 4c 64
        E 0 9d 34 64
        E 0 80 48 64
        E 0 82 40 64
        E 0 87 4c 64
        E 0 8e 48 64
        E 0 88 40 64
        E 0 8d 34 64
        E 0 90 4d 64
        E 0 92 3e 64
        E 0 97 4d 64
        E 0 9e 4a 64
        E 0 98 47 64
        E 0 9d 32 64
        E 0 80 4d 64
        E 0 87 4d 64
        E 0 8e 4a 64
        E 0 8d 32 64
        E 0 90 4c 64
        E 0 97 4c 64
        E 0 9e 48 64
        E 0 9d 32 64
        E 0 80 4c 64
        E 0 87 4c 64
        E 0 8e 48 64
        E 0 8d 32 64
        E 0 90 4d 64
        E 0 97 4d 64
        E 0 9e 4a 64
        E 0 9d 32 64
        E 0 80 4d 64
        E 0 87 4d 64
        E 0 8e 4a 64
        E 0 8d 32 64
        E 0 90 4a 64
        E 0 97 4a 64
        E 0 9e 47 64
        E 0 9d 32 64
        E 0 80 4a 64
        E 0 87 4a 64
        E 0 8e 47 64
        E 0 88 47 64
        E 0 8d 32 64
        E 0 90 4c 64
        E 0 97 4c 64
        E 0 9e 48 64
        E 0 98 43 64
        E 0 9d 32 64
        E 0 80 4c 64
        E 0 87 4c 64
        E 0 8e 48 64
        E 0 8d 32 64
        E 0 90 4d 64
        E 0 97 4d 64
        E 0 9e 4a 64
        E 0 9d 32 64
        E 0 80 4d 64
        E 0 82 3e 64
        E 0 87 4d 64
        E 0 8e 4a 64
        E 0 88 43 64
        E 0 8d 32 64
        E 0 90 4c 64
        E 0 92 3c 64
        E 0 97 4f 64
        E 0 9e 4c 64
        E 0 98 43 64
        E 0 9d 30 64
        E 0 80 4c 64
        E 0 82 3c 64
        E 0 87 4f 64
        E 0 8e 4c 64
        E 0 90 4a 64
        E 0 92 35 64
        E 0 97 4d 64
        E 0 9e 4a 64
        E 0 80 4a 64
        E 0 87 4d 64
        E 0 8e 4a 64
        E 0 88 43 64
        E 0 8d 30 64
        E 0 90 48 64
        E 0 97 4c 64
        E 0 9e 48 64
        E 0 98 45 64
        E 0 9d 35 64
        E 0 80 48 64
        E 0 82 35 64
        E 0 87 4c 64
        E 0 8e 48 64
        E 0 88 45 64
        E 0 8d 35 64
        E 0 90 47 64
        E 0 92 37 64
        E 0 97 4a 64
        E 0 9e 47 64
        E 0 98 3b 64
        E 0 9d 37 64
        E 0 87 4a 64
        E 0 8e 47 64
        E 0 97 4c 64
        E 0 9e 48 64
        E 0 87 4c 64
        E 0 8e 48 64
        E 0 88 3b 64
        E 0 8d 37 64
        E 0 97 4d 64
        E 0 9e 4a 64
        E 0 98 43 64
        E 0 9d 2b 64
        E 0 87 4d 64
        E 0 8e 4a 64
        E 0 97 4a 64
        E 0 9e 47 64
        E 0 80 47 64
        E 0 82 37 64
        E 0 87 4a 64
        E 0 8e 47 64
        E 0 88 43 64
        E 0 8d 2b 64
        E 0 90 48 64
        E 0 91 43 64
        E 0 92 3c 64
        E 0 93 30 64
        E 0 97 4c 64
        E 0 9e 48 64
        E 0 98 43 64
        E 0 9d 30 64
        E 0 87 4c 64
        E 0 8d 30 64
        E 0 97 4f 64
        E 0 9d 30 64
        E 0 81 43 64
        E 0 87 4f 64
        E 0 8d 30 64
        E 0 91 41 64
        E 0 97 4d 64
        E 0 9d 30 64
        E 0 81 41 64
        E 0 87 4d 64
        E 0 8d 30 64
        E 0 91 40 64
        E 0 97 4c 64
        E 0 9d 30 64
        E 0 81 40 64
        E 0 83 30 64
        E 0 87 4c 64
        E 0 88 43 64
        E 0 8d 30 64
        E 0 91 41 64
        E 0 93 32 64
        E 0 97 4d 64
        E 0 9d 32 64
        E 0 81 41 64
        E 0 83 32 64
        E 0 87 4d 64
        E 0 8d 32 64
        E 0 91 43 64
        E 0 93 34 64
        E 0 97 4f 64
        E 0 9d 34 64
        E 0 80 48 64
        E 0 81 43 64
        E 0 82 3c 64
        E 0 83 34 64
        E 0 87 4f 64
        E 0 8e 48 64
        E 0 8d 34 64
        E 0 90 48 64
        E 0 91 45 64
        E 0 93 35 64
        E 0 97 51 64
        E 0 9e 48 64
        E 0 9d 35 64
        E 0 8d 35 64
        E 0 9d 35 64
        E 1 80 48 64
        E 0 83 35 64
        E 0 8e 48 64
        E 0 8d 35 64
        E 0 90 46 66
        E 0 93 35 64
        E 0 9e 46 66
        E 0 9d 35 64
        E 684 80 46 66
        E 0 8e 46 66
        E 0 8d 35 64
        E 0 90 45 64
        E 0 9e 45 64
        E 0 9d 35 64
        E 372 80 45 64
        E 0 83 35 64
        E 0 8e 45 64
        E 0 8d 35 64
        E 0 90 46 66
        E 0 93 35 64
        E 1 9e 46 66
        E 0 9d 35 64
        E 24638 80 46 66
        E 0 83 35 64
        E 0 8e 46 66
        E 0 8d 35 64
        E 0 90 48 64
        E 0 93 35 64
        E 0 9e 48 64
        E 0 9d 35 64
        E 0 80 48 64
        E 0 81 45 64
        E 0 83 35 64
        E 0 87 51 64
        E 0 8e 48 64
        E 0 8d 35 64
        E 0 90 4a 64
        E 0 91 45 64
        E 0 92 41 64
        E 0 93 3a 66
        E 0 97 51 64
        E 0 9e 4a 64
        E 0 98 41 64
        E 0 9d 3a 66
        E 0 8e 4a 64
        E 0 8d 3a 66
        E 0 9e 48 64
        E 1 9d 3a 66
        E 0 81 45 64
        E 0 82 41 64
        E 0 83 3a 66
        E 0 87 51 64
        E 0 8e 48 64
        E 0 88 41 64
        E 0 8d 3a 66
        E 0 91 43 64
        E 0 92 3e 64
        E 0 93 3a 66
        E 0 97 4f 64
        E 0 9e 46 66
        E 0 98 3e 64
        E 0 9d 3a 66
        E 0 8e 46 66
        E 0 8d 3a 66
        E 0 9e 45 64
        E 0 9d 3a 66
        E 0 82 3e 64
        E 0 8e 45 64
        E 0 88 3e 64
        E 0 8d 3a 66
        E 0 92 3a 66
        E 0 9e 43 64
        E 0 98 3a 66
        E 0 9d 3a 66
        E 0 83 3a 66
        E 0 93 3a 66
        E 0 8e 43 64
        E 0 8d 3a 66
        E 0 9e 4a 64
        E 0 9d 3a 66
        E 0 80 4a 64
        E 0 81 43 64
        E 0 82 3a 66
        E 0 83 3a 66
        E 0 87 4f 64
        E 0 8e 4a 64
        E 0 88 3a 66
        E 0 8d 3a 66
        E 0 90 4a 64
        E 1 92 37 64
        E 0 93 34 64
        E 0 97 4f 64
        E 0 9e 4a 64
        E 0 98 46 66
        E 0 9d 34 64
        E 0 87 4f 64
        E 0 8d 34 64
        E 0 97 4d 64
        E 0 9d 34 64
        E 0 80 4a 64
        E 0 82 37 64
        E 0 83 34 64
        E 0 87 4d 64
        E 0 8e 4a 64
        E 0 88 46 66
        E 0 8d 34 64
        E 0 90 48 64
        E 0 91 43 64
        E 0 92 37 64
        E 0 93 34 64
        E 0 97 4c 64
        E 0 9e 48 64
        E 0 98 43 64
        E 0 9d 34 64
        E 0 87 4c 64
        E 0 8e 48 64
        E 0 8d 34 64
        E 0 97 4a 64
        E 0 9e 46 66
        E 0 9d 34 64
        E 0 81 43 64
        E 0 82 37 64
        E 0 83 34 64
        E 0 87 4a 64
        E 0 8e 46 66
        E 0 88 43 64
        E 0 8d 34 64
        E 0 91 43 64
        E 0 93 34 64
        E 0 97 48 64
        E 0 9e 48 64
        E 0 98 40 64
        E 0 9d 34 64
        E 0 83 34 64
        E 0 87 48 64
        E 0 8d 34 64
        E 0 93 34 64
        E 0 97 4f 64
        E 0 9d 34 64
        E 0 80 48 64
        E 0 81 43 64
        E 0 83 34 64
        E 0 87 4f 64
        E 0 8e 48 64
        E 0 88 40 64
        E 0 8d 34 64
        E 0 91 43 64
        E 0 92 40 64
        E 0 93 39 64
        E 0 97 4f 64
        E 0 9e 48 64
        E 0 98 40 64
        E 0 9d 39 64
        E 0 8e 48 64
        E 0 8d 39 64
        E 0 9e 46 66
        E 0 9d 39 64
        E 0 81 43 64
        E 0 82 40 64
        E 0 83 39 64
        E 0 87 4f 64
        E 0 8e 46 66
        E 0 88 40 64
        E 0 8d 39 64
        E 1 90 48 64
        E 0 91 41 64
        E 0 92 3c 64
        E 0 93 39 64
        E 0 97 4d 64
        E 0 9e 45 64
        E 0 98 3c 64
        E 0 9d 39 64
        E 0 81 41 64
        E 0 87 4d 64
        E 0 8e 45 64
        E 0 8d 39 64
        E 0 91 40 64
        E 0 97 4c 64
        E 0 9e 43 64
        E 0 9d 39 64
        E 0 80 48 64
        E 0 81 40 64
        E 0 82 3c 64
        E 0 87 4c 64
        E 0 8e 43 64
        E 0 88 3c 64
        E 0 8d 39 64
        E 0 90 48 64
        E 0 91 41 64
        E 0 92 39 64
        E 0 97 4d 64
        E 0 9e 41 64
        E 0 98 39 64
        E 0 9d 39 64
        E 0 83 39 64
        E 0 93 39 64
        E 1 8e 41 64
        E 0 8d 39 64
        E 0 9e 48 64
        E 0 9d 39 64
        E 0 80 48 64
        E 0 81 41 64
        E 0 82 39 64
        E 0 83 39 64
        E 0 87 4d 64
        E 0 8e 48 64
        E 0 88 39 64
        E 0 8d 39 64
        E 0 90 48 64
        E 0 92 35 64
        E 0 93 32 64
        E 0 97 4d 64
        E 0 9e 48 64
        E 0 98 45 64
        E 0 9d 32 64
        E 0 87 4d 64
        E 0 8d 32 64
        E 0 97 4c 64
        E 0 9d 32 64
        E 0 80 48 64
        E 0 82 35 64
        E 0 83 32 64
        E 0 87 4c 64
        E 0 8e 48 64
        E 0 88 45 64
        E 0 8d 32 64
        E 0 90 46 66
        E 0 91 41 64
        E 0 92 35 64
        E 0 93 32 64
        E 0 97 4a 64
        E 0 9e 46 66
        E 0 98 41 64
        E 1 9d 32 64
        E 0 80 46 66
        E 0 87 4a 64
        E 0 8e 46 66
        E 0 8d 32 64
        E 0 90 45 64
        E 0 97 48 64
        E 0 9e 45 64
        E 0 9d 32 64
        E 0 80 45 64
        E 0 81 41 64
        E 0 82 35 64
        E 0 87 48 64
        E 0 8e 45 64
        E 0 88 41 64
        E 0 8d 32 64
        E 0 90 46 66
        E 0 91 41 64
        E 0 97 46 66
        E 0 9e 46 66
        E 0 98 3e 64
        E 0 9d 32 64
        E 0 87 46 66
        E 0 8d 32 64
        E 0 97 4d 64
        E 0 9d 32 64
        E 0 80 46 66
        E 0 81 41 64
        E 0 83 32 64
        E 0 87 4d 64
        E 0 8e 46 66
        E 0 88 3e 64
        E 0 8d 32 64
        E 0 91 41 64
        E 0 92 3e 64
        E 0 93 37 64
        E 0 97 4d 64
        E 0 9e 46 66
        E 0 98 3e 64
        E 0 9d 37 64
        E 0 8e 46 66
        E 0 8d 37 64
        E 0 9e 45 64
        E 0 9d 37 64
        E 0 81 41 64
        E 0 82 3e 64
        E 0 87 4d 64
        E 0 8e 45 64
        E 0 88 3e 64
        E 0 8d 37 64
        E 0 90 46 66
        E 0 91 40 64
        E 0 92 3a 66
        E 0 97 4c 64
        E 0 9e 43 64
        E 0 98 3a 66
        E 0 9d 37 64
        E 0 81 40 64
        E 0 87 4c 64
        E 0 8e 43 64
        E 0 8d 37 64
        E 0 91 3e 64
        E 0 97 4a 64
        E 0 9e 41 64
        E 0 9d 37 64
        E 0 80 46 66
        E 0 81 3e 64
        E 0 82 3a 66
        E 1 87 4a 64
        E 0 8e 41 64
        E 0 88 3a 66
        E 0 8d 37 64
        E 0 90 46 66
        E 0 91 40 64
        E 0 92 37 64
        E 0 97 4c 64
        E 0 9e 40 64
        E 0 98 37 64
        E 0 9d 37 64
        E 0 8e 40 64
        E 0 8d 37 64
        E 0 9e 46 66
        E 0 9d 37 64
        E 0 80 46 66
        E 0 81 40 64
        E 0 82 37 64
        E 0 83 37 64
        E 0 87 4c 64
        E 0 8e 46 66
        E 0 88 37 64
        E 0 8d 37 64
        E 0 90 46 66
        E 0 92 40 64
        E 0 93 30 64
        E 0 9e 46 66
        E 0 98 40 64
        E 0 9d 30 64
        E 0 88 40 64
        E 0 8d 30 64
        E 0 98 3e 64
        E 0 9d 30 64
        E 0 80 46 66
        E 0 82 40 64
        E 0 83 30 64
        E 0 8e 46 66
        E 0 88 3e 64
        E 0 8d 30 64
        E 0 90 45 64
        E 0 91 41 64
        E 0 92 3c 64
        E 0 93 35 64
        E 0 97 4d 64
        E 0 9e 45 64
        E 0 98 3c 64
        E 1 9d 35 64
        E 0 80 45 64
        E 0 8e 45 64
        E 0 8d 35 64
        E 0 90 43 64
        E 0 9e 43 64
        E 0 9d 35 64
        E 1 80 43 64
        E 0 82 3c 64
        E 0 8e 43 64
        E 0 88 3c 64
        E 0 8d 35 64
        E 0 90 45 64
        E 0 92 41 64
        E 0 9e 45 64
        E 0 98 41 64
        E 0 9d 35 64
        E 0 8d 35 64
        E 0 9d 35 64
        E 0 80 45 64
        E 0 81 41 64
        E 0 82 41 64
        E 0 83 35 64
        E 0 87 4d 64
        E 0 8e 45 64
        E 0 88 41 64
        E 0 8d 35 64
        E 0 90 47 64
        E 0 91 41 64
        E 0 92 3e 64
        E 0 93 37 64
        E 0 97 4d 64
        E 0 9e 47 64
        E 0 98 3e 64
        E 0 9d 37 64
        E 0 8d 37 64
        E 0 9d 37 64
        E 0 80 47 64
        E 0 81 41 64
        E 0 82 3e 64
        E 0 87 4d 64
        E 0 8e 47 64
        E 0 88 3e 64
        E 0 8d 37 64
        E 0 90 49 64
        E 0 91 40 64
        E 0 92 39 64
        E 0 97 4c 64
        E 0 9e 49 64
        E 0 98 39 64
        E 0 9d 37 64
        E 0 82 39 64
        E 0 88 39 64
        E 0 8d 37 64
        E 0 92 3b 64
        E 0 98 3b 64
        E 0 9d 37 64
        E 0 82 3b 64
        E 0 88 3b 64
        E 0 8d 37 64
        E 0 92 3d 64
        E 0 98 3d 64
        E 0 9d 37 64
        E 0 8d 37 64
        E 0 9d 37 64
        E 0 80 49 64
        E 0 81 40 64
        E 0 82 3d 64
        E 0 83 37 64
        E 0 87 4c 64
        E 0 8e 49 64
        E 0 88 3d 64
        E 0 8d 37 64
        E 0 90 4a 64
        E 0 91 41 64
        E 0 92 3b 64
        E 1 93 38 64
        E 0 97 4d 64
        E 0 9e 4a 64
        E 0 98 3b 64
        E 0 9d 38 64
        E 0 8d 38 64
        E 0 9d 38 64
        E 0 8d 38 64
        E 0 9d 38 64
        E 0 8d 38 64
        E 0 9d 38 64
        E 0 80 4a 64
        E 0 81 41 64
        E 0 82 3b 64
        E 0 83 38 64
        E 0 87 4d 64
        E 0 8e 4a 64
        E 0 88 3b 64
        E 0 8d 38 64
        E 0 90 48 64
        E 0 91 40 64
        E 0 92 3c 64
        E 0 93 39 64
        E 0 97 4c 64
        E 0 9e 48 64
        E 0 98 3c 64
        E 0 9d 39 64
        E 0 8d 39 64
        E 0 9d 39 64
        E 0 80 48 64
        E 0 81 40 64
        E 0 82 3c 64
        E 0 83 39 64
        E 0 87 4c 64
        E 0 8e 48 64
        E 0 88 3c 64
        E 0 8d 39 64
        E 0 90 48 64
        E 0 91 40 64
        E 0 92 3c 64
        E 0 93 39 64
        E 0 97 4c 64
        E 0 9e 48 64
        E 0 98 3e 64
        E 0 9d 39 64
        E 0 8d 39 64
        E 0 9d 39 64
        E 0 80 48 64
        E 0 81 40 64
        E 0 82 3c 64
        E 0 83 39 64
        E 0 87 4c 64
        E 0 8e 48 64
        E 0 8d 39 64
        E 0 90 47 64
        E 1 91 44 64
        E 0 92 40 64
        E 0 93 34 64
        E 0 97 4a 64
        E 0 9e 47 64
        E 0 9d 34 64
        E 0 87 4a 64
        E 0 8e 47 64
        E 0 8d 34 64
        E 0 97 48 64
        E 0 9e 45 64
        E 0 9d 34 64
        E 0 87 48 64
        E 0 8e 45 64
        E 0 8d 34 64
        E 0 97 47 64
        E 0 9e 44 64
        E 0 9d 34 64
        E 0 87 47 64
        E 0 8e 44 64
        E 0 8d 34 64
        E 0 97 4a 64
        E 0 9e 47 64
        E 0 9d 34 64
        E 0 80 47 64
        E 0 81 44 64
        E 0 82 40 64
        E 0 83 34 64
        E 0 87 4a 64
        E 0 8e 47 64
        E 0 88 3e 64
        E 0 8d 34 64
        E 0 90 48 64
        E 0 91 45 64
        E 0 92 40 64
        E 0 93 2d 64
        E 0 97 48 64
        E 0 9e 45 64
        E 0 98 40 64
        E 0 9d 2d 64
        E 0 88 40 64
        E 0 8d 2d 64
        E 0 98 40 64
        E 0 9d 39 64
        E 38407 87 48 64
        E 0 8e 45 64
        E 0 88 40 64
        E 0 8d 39 64
        E 0 97 45 64
        E 0 9e 45 64
        E 0 98 3c 64
        E 0 9d 39 64
        E 0 87 45 64
        E 0 8e 45 64
        E 0 88 3c 64
        E 0 8d 39 64
        E 0 97 47 64
        E 0 9e 47 64
        E 0 98 3c 64
        E 0 9d 39 64
        E 0 87 47 64
        E 0 8e 47 64
        E 0 88 3c 64
        E 0 8d 39 64
        E 0 97 48 64
        E 0 9e 48 64
        E 0 98 3c 64
        E 1 9d 39 64
        E 0 87 48 64
        E 0 8e 48 64
        E 0 88 3c 64
        E 0 8d 39 64
        E 0 97 4a 64
        E 0 9e 4a 64
        E 0 98 3c 64
        E 0 9d 39 64
        E 0 80 48 64
        E 0 81 45 64
        E 0 82 40 64
        E 0 83 2d 64
        E 0 87 4a 64
        E 0 8e 4a 64
        E 0 88 3c 64
        E 0 8d 39 64
        E 0 97 4c 64
        E 0 9e 4c 64
        E 0 98 3b 64
        E 0 9d 38 64
        E 0 87 4c 64
        E 0 8e 4c 64
        E 0 88 3b 64
        E 0 8d 38 64
        E 0 97 4a 64
        E 0 9e 4a 64
        E 0 98 3b 64
        E 0 9d 38 64
        E 0 87 4a 64
        E 0 8e 4a 64
        E 0 88 3b 64
        E 0 8d 38 64
        E 0 97 4c 64
        E 0 9e 4c 64
        E 0 98 47 64
        E 0 9d 37 64
        E 0 87 4c 64
        E 0 8e 4c 64
        E 0 88 47 64
        E 0 8d 37 64
        E 0 97 4d 64
        E 0 9e 4d 64
        E 0 98 47 64
        E 0 9d 37 64
        E 0 87 4d 64
        E 0 8e 4d 64
        E 0 88 47 64
        E 0 8d 37 64
        E 0 97 4f 64
        E 1 9e 4f 64
        E 0 98 40 64
        E 0 9d 37 64
        E 0 87 4f 64
        E 0 8e 4f 64
        E 0 88 40 64
        E 0 8d 37 64
        E 0 97 4c 64
        E 0 9e 4c 64
        E 0 98 40 64
        E 0 9d 37 64
        E 0 87 4c 64
        E 0 8e 4c 64
        E 0 88 40 64
        E 0 8d 37 64
        E 0 97 51 64
        E 0 9e 51 64
        E 0 98 40 64
        E 1 9d 36 64
        E 0 87 51 64
        E 0 8e 51 64
        E 0 88 40 64
        E 0 8d 36 64
        E 0 97 50 64
        E 0 9e 50 64
        E 0 98 40 64
        E 0 9d 36 64
        E 0 87 50 64
        E 0 8e 50 64
        E 0 88 40 64
        E 0 8d 36 64
        E 0 97 51 64
        E 0 9e 51 64
        E 0 98 3e 64
        E 0 9d 35 64
        E 0 87 51 64
        E 0 8e 51 64
        E 0 88 3e 64
        E 0 8d 35 64
        E 0 97 53 64
        E 0 9e 53 64
        E 0 98 3e 64
        E 0 9d 35 64
        E 0 87 53 64
        E 0 8e 53 64
        E 0 88 3e 64
        E 0 8d 35 64
        E 0 97 54 64
        E 0 9e 54 64
        E 0 98 45 64
        E 0 9d 35 64
        E 0 87 54 64
        E 0 8e 54 64
        E 0 88 45 64
        E 0 8d 35 64
        E 0 97 56 64
        E 0 9e 56 64
        E 0 98 45 64
        E 0 9d 35 64
        E 0 87 56 64
        E 0 8e 56 64
        E 0 88 45 64
        E 1 8d 35 64
        E 0 90 4c 64
        E 0 92 3b 64
        E 0 97 58 64
        E 0 9e 4c 64
        E 0 98 44 64
        E 0 9d 34 64
        E 0 8d 34 64
        E 0 9d 34 64
        E 0 80 4c 64
        E 0 82 3b 64
        E 0 87 58 64
        E 0 8e 4c 64
        E 0 88 44 64
        E 0 8d 34 64
        E 0 90 4c 64
        E 0 92 3c 64
        E 0 97 4c 64
        E 0 9e 48 64
        E 0 98 40 64
        E 0 9d 39 64
        E 0 87 4c 64
        E 0 8e 48 64
        E 0 8d 39 64
        E 0 97 4a 64
        E 0 9e 47 64
        E 0 9d 39 64
        E 0 87 4a 64
        E 0 8e 47 64
        E 0 8d 39 64
        E 0 97 48 64
        E 0 9e 45 64
        E 0 9d 39 64
        E 0 80 4c 64
        E 0 82 3c 64
        E 0 90 4c 64
        E 0 92 3c 64
        E 0 87 48 64
        E 0 8e 45 64
        E 0 8d 39 64
        E 0 97 4c 64
        E 0 9e 48 64
        E 0 9d 39 64
        E 0 80 4c 64
        E 0 82 3c 64
        E 0 87 4c 64
        E 0 8e 48 64
        E 0 88 40 64
        E 0 8d 39 64
        E 0 90 4d 64
        E 0 92 3e 64
        E 0 93 38 64
        E 0 97 4d 64
        E 0 9e 4a 64
        E 0 98 3b 64
        E 1 9d 38 64
        E 0 87 4d 64
        E 0 8e 4a 64
        E 0 88 3b 64
        E 0 8d 38 64
        E 0 97 4c 64
        E 0 9e 48 64
        E 0 98 3c 64
        E 0 9d 38 64
        E 0 83 38 64
        E 0 87 4c 64
        E 0 8e 48 64
        E 0 88 3c 64
        E 0 8d 38 64
        E 0 93 38 64
        E 0 97 4a 64
        E 0 9e 47 64
        E 0 98 3e 64
        E 0 9d 38 64
        E 0 87 4a 64
        E 0 8e 47 64
        E 0 88 3e 64
        E 0 8d 38 64
        E 0 97 48 64
        E 0 9e 45 64
        E 0 98 40 64
        E 0 9d 38 64
        E 0 87 48 64
        E 0 8e 45 64
        E 0 88 40 64
        E 0 8d 38 64
        E 0 97 4a 64
        E 0 9e 47 64
        E 0 98 3e 64
        E 0 9d 38 64
        E 0 83 38 64
        E 0 93 38 64
        E 0 87 4a 64
        E 0 8e 47 64
        E 0 88 3e 64
        E 0 8d 38 64
        E 1 97 4c 64
        E 0 9e 48 64
        E 0 98 3c 64
        E 0 9d 38 64
        E 0 80 4d 64
        E 0 82 3e 64
        E 0 83 38 64
        E 0 87 4c 64
        E 0 8e 48 64
        E 0 88 3c 64
        E 0 8d 38 64
        E 0 90 4d 64
        E 0 92 3e 64
        E 0 93 38 64
        E 0 97 4d 64
        E 0 9e 4a 64
        E 0 98 3b 64
        E 0 9d 38 64
        E 0 8d 38 64
        E 0 9d 38 64
        E 0 80 4d 64
        E 0 82 3e 64
        E 0 83 38 64
        E 0 8d 38 64
        E 0 90 4c 64
        E 0 92 3b 64
        E 0 93 38 64
        E 0 9d 38 64
        E 0 80 4c 64
        E 0 90 4a 64
        E 0 8d 38 64
        E 0 9d 38 64
        E 0 80 4a 64
        E 0 82 3b 64
        E 0 83 38 64
        E 0 8d 38 64
        E 0 90 48 64
        E 0 92 3b 64
        E 0 93 38 64
        E 0 9d 38 64
        E 0 80 48 64
        E 0 83 38 64
        E 0 90 47 64
        E 0 93 38 64
        E 0 8d 38 64
        E 1 9d 38 64
        E 0 80 47 64
        E 0 82 3b 64
        E 0 83 38 64
        E 0 87 4d 64
        E 0 8e 4a 64
        E 0 88 3b 64
        E 0 8d 38 64
        E 0 90 48 64
        E 0 91 45 64
        E 0 92 40 64
        E 0 93 39 64
        E 0 97 4c 64
        E 0 9e 48 64
        E 0 98 39 64
        E 0 9d 39 64
        E 0 8d 39 64
        E 0 9d 39 64
        E 0 81 45 64
        E 0 87 4c 64
        E 0 8e 48 64
        E 0 88 39 64
        E 0 8d 39 64
        E 0 91 45 64
        E 0 97 51 64
        E 0 9e 48 64
        E 0 98 40 64
        E 0 9d 39 64
        E 0 80 48 64
        E 0 82 40 64
        E 0 83 39 64
        E 0 90 47 64
        E 0 92 40 64
        E 0 93 39 64
        E 0 87 51 64
        E 0 8e 48 64
        E 0 8d 39 64
        E 0 97 53 64
        E 0 9e 4a 64
        E 0 9d 39 64
        E 0 80 47 64
        E 0 82 40 64
        E 0 83 39 64
        E 0 87 53 64
        E 0 8e 4a 64
        E 0 8d 39 64
        E 0 90 45 64
        E 0 92 40 64
        E 0 93 39 64
        E 0 97 54 64
        E 0 9e 4c 64
        E 0 9d 39 64
        E 0 81 45 64
        E 1 88 40 64
        E 0 91 45 64
        E 0 98 40 64
        E 0 87 54 64
        E 0 8e 4c 64
        E 0 8d 39 64
        E 0 97 51 64
        E 0 9e 48 64
        E 0 9d 39 64
        E 0 80 45 64
        E 0 81 45 64
        E 0 82 40 64
        E 0 83 39 64
        E 0 87 51 64
        E 0 8e 48 64
        E 0 88 40 64
        E 0 8d 39 64
        E 0 91 46 66
        E 0 93 31 64
        E 0 97 52 66
        E 0 9e 4f 64
        E 0 98 40 64
        E 0 9d 31 64
        E 0 87 52 66
        E 0 8e 4f 64
        E 0 88 40 64
        E 0 8d 31 64
        E 0 97 51 64
        E 0 9e 4d 64
        E 0 98 41 64
        E 0 9d 31 64
        E 0 83 31 64
        E 0 87 51 64
        E 0 8e 4d 64
        E 0 88 41 64
        E 0 8d 31 64
        E 0 93 31 64
        E 0 97 4f 64
        E 0 9e 4c 64
        E 0 98 43 64
        E 0 9d 31 64
        E 0 87 4f 64
        E 0 8e 4c 64
        E 0 88 43 64
        E 0 8d 31 64
        E 0 97 4d 64
        E 0 9e 4a 64
        E 0 98 45 64
        E 0 9d 31 64
        E 0 87 4d 64
        E 0 8e 4a 64
        E 0 88 45 64
        E 0 8d 31 64
        E 0 97 4f 64
        E 0 9e 4c 64
        E 0 98 43 64
        E 0 9d 31 64
        E 0 83 31 64
        E 0 93 31 64
        E 0 87 4f 64
        E 0 8e 4c 64
        E 0 88 43 64
        E 1 8d 31 64
        E 0 97 51 64
        E 0 9e 4d 64
        E 0 98 41 64
        E 0 9d 31 64
        E 0 81 46 66
        E 0 83 31 64
        E 0 87 51 64
        E 0 8e 4d 64
        E 0 88 41 64
        E 0 8d 31 64
        E 0 91 46 66
        E 0 93 31 64
        E 0 97 52 66
        E 0 9e 4f 64
        E 0 98 40 64
        E 0 9d 31 64
        E 0 8d 31 64
        E 0 9d 31 64
        E 0 81 46 66
        E 0 83 31 64
        E 0 8d 31 64
        E 0 91 45 64
        E 0 93 31 64
        E 0 9d 31 64
        E 0 81 45 64
        E 0 91 43 64
        E 0 8d 31 64
        E 0 9d 31 64
        E 0 81 43 64
        E 1 83 31 64
        E 0 8d 31 64
        E 0 91 41 64
        E 0 93 31 64
        E 0 9d 31 64
        E 0 81 41 64
        E 0 83 31 64
        E 0 91 40 64
        E 0 93 31 64
        E 0 8d 31 64
        E 0 9d 31 64
        E 0 81 40 64
        E 0 83 31 64
        E 0 87 52 66
        E 0 8e 4f 64
        E 0 88 40 64
        E 0 8d 31 64
        E 0 90 4a 64
        E 0 91 41 64
        E 0 92 39 64
        E 0 93 32 64
        E 0 97 51 64
        E 0 9e 4d 64
        E 0 98 41 64
        E 0 9d 32 64
        E 0 8d 32 64
        E 0 9d 32 64
        E 0 80 4a 64
        E 0 82 39 64
        E 0 87 51 64
        E 0 8e 4d 64
        E 0 88 41 64
        E 0 8d 32 64
        E 0 90 4a 64
        E 0 92 3e 64
        E 0 97 4d 64
        E 0 9e 4a 64
        E 0 98 39 64
        E 0 9d 32 64
        E 0 81 41 64
        E 0 83 32 64
        E 0 91 40 64
        E 0 93 32 64
        E 0 87 4d 64
        E 0 8e 4a 64
        E 0 8d 32 64
        E 0 97 4f 64
        E 0 9e 4c 64
        E 0 9d 32 64
        E 0 81 40 64
        E 0 83 32 64
        E 0 87 4f 64
        E 0 8e 4c 64
        E 0 8d 32 64
        E 0 91 3e 64
        E 0 93 32 64
        E 0 97 51 64
        E 0 9e 4d 64
        E 1 9d 32 64
        E 0 80 4a 64
        E 0 82 3e 64
        E 0 88 39 64
        E 0 90 4a 64
        E 0 92 3e 64
        E 0 98 39 64
        E 0 87 51 64
        E 0 8e 4d 64
        E 0 8d 32 64
        E 0 97 4d 64
        E 0 9e 4a 64
        E 0 9d 32 64
        E 0 80 4a 64
        E 0 81 3e 64
        E 0 82 3e 64
        E 0 83 32 64
        E 0 87 4d 64
        E 0 8e 4a 64
        E 0 88 39 64
        E 0 8d 32 64
        E 0 90 4b 66
        E 0 91 45 64
        E 0 92 3c 64
        E 0 93 36 64
        E 0 97 4b 66
        E 0 9e 48 64
        E 0 98 39 64
        E 0 9d 36 64
        E 0 87 4b 66
        E 0 8e 48 64
        E 0 88 39 64
        E 0 8d 36 64
        E 0 97 4a 64
        E 0 9e 46 66
        E 0 98 3a 66
        E 0 9d 36 64
        E 0 81 45 64
        E 0 83 36 64
        E 0 87 4a 64
        E 0 8e 46 66
        E 0 88 3a 66
        E 0 8d 36 64
        E 0 91 45 64
        E 0 93 36 64
        E 1 97 48 64
        E 0 9e 45 64
        E 0 98 3c 64
        E 0 9d 36 64
        E 0 87 48 64
        E 0 8e 45 64
        E 0 88 3c 64
        E 0 8d 36 64
        E 0 97 46 66
        E 0 9e 43 64
        E 0 98 3e 64
        E 0 9d 36 64
        E 0 87 46 66
        E 0 8e 43 64
        E 0 88 3e 64
        E 0 8d 36 64
        E 0 97 48 64
        E 0 9e 45 64
        E 0 98 3c 64
        E 0 9d 36 64
        E 0 81 45 64
        E 0 83 36 64
        E 0 91 45 64
        E 0 93 36 64
        E 0 87 48 64
        E 0 8e 45 64
        E 0 88 3c 64
        E 0 8d 36 64
        E 0 97 4a 64
        E 0 9e 46 66
        E 0 98 3b 64
        E 0 9d 36 64
        E 0 80 4b 66
        E 0 81 45 64
        E 0 82 3c 64
        E 0 83 36 64
        E 0 87 4a 64
        E 0 8e 46 66
        E 0 88 3b 64
        E 0 8d 36 64
        E 0 90 4b 66
        E 0 91 45 64
        E 0 92 3c 64
        E 0 93 36 64
        E 0 97 4b 66
        E 0 9e 48 64
        E 0 98 39 64
        E 0 9d 36 64
        E 0 83 36 64
        E 0 93 36 64
        E 0 8d 36 64
        E 0 9d 36 64
        E 0 80 4b 66
        E 0 82 3c 64
        E 0 83 36 64
        E 0 88 39 64
        E 0 8d 36 64
        E 0 90 4a 64
        E 0 92 39 64
        E 0 93 36 64
        E 0 98 45 64
        E 0 9d 36 64
        E 0 80 4a 64
        E 0 90 48 64
        E 0 8d 36 64
        E 0 9d 36 64
        E 1 80 48 64
        E 0 82 39 64
        E 0 8d 36 64
        E 0 90 47 64
        E 0 92 39 64
        E 0 9d 36 64
        E 0 80 47 64
        E 0 83 36 64
        E 0 90 45 64
        E 0 93 36 64
        E 0 8d 36 64
        E 0 9d 36 64
        E 0 80 45 64
        E 0 81 45 64
        E 0 82 39 64
        E 0 83 36 64
        E 0 87 4b 66
        E 0 8e 48 64
        E 0 88 45 64
        E 0 8d 36 64
        E 0 90 47 64
        E 0 91 43 64
        E 0 92 3e 64
        E 0 93 35 64
        E 0 97 4a 64
        E 0 9e 47 64
        E 0 98 43 64
        E 0 9d 35 64
        E 0 87 4a 64
        E 0 8e 47 64
        E 0 8d 35 64
        E 0 97 48 64
        E 0 9e 45 64
        E 0 9d 35 64
        E 0 87 48 64
        E 0 8e 45 64
        E 0 8d 35 64
        E 0 97 4a 64
        E 0 9e 47 64
        E 0 9d 35 64
        E 0 80 47 64
        E 0 82 3e 64
        E 0 83 35 64
        E 0 90 47 64
        E 0 92 3e 64
        E 0 93 35 64
        E 0 87 4a 64
        E 0 8e 47 64
        E 0 8d 35 64
        E 0 97 47 64
        E 0 9e 43 64
        E 0 9d 35 64
        E 0 80 47 64
        E 0 82 3e 64
        E 0 83 35 64
        E 0 87 47 64
        E 0 8e 43 64
        E 0 8d 35 64
        E 0 90 47 64
        E 0 92 3e 64
        E 1 93 35 64
        E 0 97 48 64
        E 0 9e 45 64
        E 0 9d 35 64
        E 0 87 48 64
        E 0 8e 45 64
        E 0 8d 35 64
        E 0 97 4a 64
        E 0 9e 47 64
        E 0 9d 35 64
        E 0 80 47 64
        E 0 81 43 64
        E 0 82 3e 64
        E 0 83 35 64
        E 0 87 4a 64
        E 0 8e 47 64
        E 0 88 43 64
        E 0 8d 35 64
        E 0 90 48 64
        E 0 91 43 64
        E 0 92 3c 64
        E 0 93 34 64
        E 0 97 4c 64
        E 0 9e 48 64
        E 0 98 43 64
        E 0 9d 34 64
        E 0 87 4c 64
        E 0 8e 48 64
        E 0 8d 34 64
        E 0 97 4a 64
        E 0 9e 47 64
        E 0 9d 34 64
        E 0 81 43 64
        E 0 87 4a 64
        E 0 8e 47 64
        E 0 8d 34 64
        E 0 91 43 64
        E 0 97 4c 64
        E 0 9e 48 64
        E 0 9d 34 64
        E 0 87 4c 64
        E 0 8e 48 64
        E 0 8d 34 64
        E 0 97 4d 64
        E 0 9e 4a 64
        E 0 9d 34 64
        E 0 80 48 64
        E 0 82 3c 64
        E 0 87 4d 64
        E 0 8e 4a 64
        E 0 88 43 64
        E 0 8d 34 64
        E 0 90 46 66
        E 0 92 3c 64
        E 0 97 4f 64
        E 1 9e 4c 64
        E 0 98 40 64
        E 0 9d 34 64
        E 0 87 4f 64
        E 0 8e 4c 64
        E 0 8d 34 64
        E 0 97 4c 64
        E 0 9e 48 64
        E 0 9d 34 64
        E 0 80 46 66
        E 0 81 43 64
        E 0 82 3c 64
        E 0 83 34 64
        E 0 87 4c 64
        E 0 8e 48 64
        E 0 88 40 64
        E 0 8d 34 64
        E 0 90 45 64
        E 0 91 41 64
        E 0 92 3c 64
        E 0 93 33 66
        E 0 97 51 64
        E 0 9e 4d 64
        E 0 98 3c 64
        E 0 9d 33 66
        E 0 87 51 64
        E 0 8d 33 66
        E 0 97 52 66
        E 0 9d 33 66
        E 0 87 52 66
        E 0 8d 33 66
        E 0 97 51 64
        E 0 9d 33 66
        E 0 81 41 64
        E 0 91 41 64
        E 0 87 51 64
        E 0 8d 33 66
        E 0 97 4f 64
        E 0 9d 33 66
        E 0 80 45 64
        E 0 81 41 64
        E 0 82 3c 64
        E 0 83 33 66
        E 0 87 4f 64
        E 0 8e 4d 64
        E 0 88 3c 64
        E 0 8d 33 66
        E 0 90 46 66
        E 0 91 41 64
        E 0 92 3e 64
        E 0 93 32 64
        E 0 97 4d 64
        E 0 9e 46 66
        E 0 98 3e 64
        E 0 9d 32 64
        E 0 8d 32 64
        E 0 9d 32 64
        E 0 80 46 66
        E 0 81 41 64
        E 0 82 3e 64
        E 0 83 32 64
        E 0 87 4d 64
        E 0 8e 46 66
        E 0 88 3e 64
        E 0 8d 32 64
        E 0 90 46 66
        E 0 91 3e 64
        E 0 93 2e 66
        E 1 97 4d 64
        E 0 9e 46 66
        E 0 98 3e 64
        E 0 9d 2e 66
        E 0 81 3e 64
        E 0 83 2e 66
        E 0 91 3f 66
        E 0 93 33 66
        E 38404 87 4d 64
        E 0 88 3e 64
        E 0 8d 2e 66
        E 0 97 4f 64
        E 0 98 43 64
        E 0 9d 33 66
        E 0 80 46 66
        E 0 81 3f 66
        E 0 83 33 66
        E 0 87 4f 64
        E 0 8e 46 66
        E 0 88 43 64
        E 0 8d 33 66
        E 0 90 45 64
        E 0 91 3c 64
        E 0 93 35 64
        E 0 97 48 64
        E 0 9e 45 64
        E 0 98 41 64
        E 0 9d 35 64
        E 0 87 48 64
        E 0 8e 45 64
        E 0 8d 35 64
        E 0 97 4a 64
        E 0 9e 46 66
        E 0 9d 35 64
        E 0 87 4a 64
        E 0 8e 46 66
        E 0 8d 35 64
        E 0 97 4b 66
        E 0 9e 48 64
        E 0 9d 29 64
        E 0 87 4b 66
        E 0 8e 48 64
        E 0 8d 29 64
        E 0 97 4d 64
        E 0 9e 45 64
        E 0 9d 29 64
        E 0 80 45 64
        E 0 81 3c 64
        E 0 83 35 64
        E 0 87 4d 64
        E 0 8e 45 64
        E 0 88 41 64
        E 0 8d 29 64
        E 0 90 46 66
        E 0 91 3e 64
        E 0 92 3a 66
        E 1 93 2e 66
        E 0 97 4a 64
        E 0 9e 46 66
        E 0 98 41 64
        E 0 9d 2e 66
        E 0 8d 2e 66
        E 0 9d 2e 66
        E 0 82 3a 66
        E 0 83 2e 66
        E 0 8d 2e 66
        E 0 92 3a 66
        E 0 93 2e 66
        E 0 9d 2e 66
        E 0 82 3a 66
        E 0 8d 2e 66
        E 0 92 3c 64
        E 0 9d 2e 66
        E 0 82 3c 64
        E 0 83 2e 66
        E 0 87 4a 64
        E 0 8e 46 66
        E 0 88 41 64
        E 0 8d 2e 66
        E 0 92 3e 64
        E 0 93 2e 66
        E 0 9d 2e 66
        E 0 82 3e 64
        E 0 83 2e 66
        E 0 8d 2e 66
        E 0 92 3f 66
        E 1 93 2e 66
        E 0 9d 2e 66
        E 0 80 46 66
        E 0 81 3e 64
        E 0 82 3f 66
        E 0 83 2e 66
        E 0 8d 2e 66
        E 0 92 41 64
        E 0 93 2d 64
        E 0 98 48 64
        E 0 9d 2d 64
        E 0 8d 2d 64
        E 0 9d 2d 64
        E 0 82 41 64
        E 0 83 2d 64
        E 0 88 48 64
        E 0 8d 2d 64
        E 0 92 35 64
        E 0 93 2d 64
        E 0 9e 4d 64
        E 0 98 45 64
        E 0 9d 2d 64
        E 0 8d 2d 64
        E 0 9d 2d 64
        E 0 82 35 64
        E 0 88 45 64
        E 0 8d 2d 64
        E 0 92 37 64
        E 0 98 41 64
        E 0 9d 2d 64
        E 0 82 37 64
        E 0 8d 2d 64
        E 0 92 39 64
        E 0 9d 2d 64
        E 0 82 39 64
        E 0 83 2d 64
        E 0 8e 4d 64
        E 0 88 41 64
        E 0 8d 2d 64
        E 0 92 3a 66
        E 0 93 37 64
        E 0 9e 4d 64
        E 0 98 4a 64
        E 0 9d 2b 64
        E 0 8d 2b 64
        E 0 9d 2b 64
        E 0 82 3a 66
        E 0 83 37 64
        E 0 8e 4d 64
        E 0 88 4a 64
        E 0 8d 2b 64
        E 0 92 3a 66
        E 0 93 37 64
        E 0 9e 43 64
        E 0 98 46 66
        E 0 9d 2b 64
        E 0 82 3a 66
        E 0 8d 2b 64
        E 0 92 39 64
        E 0 9d 2b 64
        E 1 82 39 64
        E 0 8e 43 64
        E 0 88 46 66
        E 0 8d 2b 64
        E 0 92 3a 66
        E 0 9e 4b 66
        E 0 98 43 64
        E 0 9d 2b 64
        E 0 82 3a 66
        E 0 8d 2b 64
        E 0 92 3c 64
        E 0 9d 2b 64
        E 0 82 3c 64
        E 0 83 37 64
        E 0 8e 4b 66
        E 0 88 43 64
        E 0 8d 2b 64
        E 0 92 39 64
        E 0 93 35 64
        E 0 9e 4b 66
        E 0 98 48 64
        E 0 9d 29 64
        E 0 8d 29 64
        E 0 9d 29 64
        E 0 82 39 64
        E 0 8e 4b 66
        E 0 88 48 64
        E 0 8d 29 64
        E 0 92 3e 64
        E 0 9e 41 64
        E 0 98 45 64
        E 0 9d 29 64
        E 0 83 35 64
        E 0 93 35 64
        E 0 82 3e 64
        E 0 8d 29 64
        E 0 92 3c 64
        E 0 9d 29 64
        E 0 82 3c 64
        E 0 83 35 64
        E 0 8e 41 64
        E 0 88 45 64
        E 0 8d 29 64
        E 0 92 3e 64
        E 0 93 35 64
        E 0 9e 4a 64
        E 0 98 41 64
        E 1 9d 29 64
        E 0 8d 29 64
        E 0 9d 29 64
        E 0 82 3e 64
        E 0 83 35 64
        E 0 8e 4a 64
        E 0 88 41 64
        E 0 8d 29 64
        E 0 92 37 64
        E 0 93 33 66
        E 0 9e 4a 64
        E 0 98 46 66
        E 0 9d 33 66
        E 0 8d 33 66
        E 0 9d 33 66
        E 1 82 37 64
        E 0 8e 4a 64
        E 0 88 46 66
        E 0 8d 33 66
        E 0 92 3c 64
        E 0 9e 3f 66
        E 0 98 43 64
        E 0 9d 33 66
        E 0 82 3c 64
        E 0 8d 33 66
        E 0 92 3a 66
        E 0 9d 33 66
        E 0 82 3a 66
        E 0 8e 3f 66
        E 0 88 43 64
        E 0 8d 33 66
        E 0 92 3c 64
        E 0 9e 48 64
        E 0 98 3f 66
        E 0 9d 33 66
        E 0 8d 33 66
        E 0 9d 33 66
        E 0 82 3c 64
        E 0 83 33 66
        E 0 8e 48 64
        E 0 88 3f 66
        E 0 8d 33 66
        E 0 92 35 64
        E 0 93 32 64
        E 0 9e 48 64
        E 0 98 45 64
        E 0 9d 32 64
        E 0 8d 32 64
        E 0 9d 32 64
        E 0 82 35 64
        E 0 8e 48 64
        E 0 88 45 64
        E 0 8d 32 64
        E 0 92 3a 66
        E 0 9e 3e 64
        E 0 98 41 64
        E 1 9d 32 64
        E 0 82 3a 66
        E 0 8d 32 64
        E 0 92 39 64
        E 0 9d 32 64
        E 0 82 39 64
        E 0 8e 3e 64
        E 0 88 41 64
        E 0 8d 32 64
        E 0 92 3a 66
        E 0 9e 46 66
        E 0 98 3e 64
        E 0 9d 32 64
        E 0 8d 32 64
        E 0 9d 32 64
        E 0 82 3a 66
        E 0 83 32 64
        E 0 8e 46 66
        E 0 88 3e 64
        E 0 8d 32 64
        E 0 92 3f 66
        E 0 93 30 64
        E 0 9e 46 66
        E 0 98 3f 66
        E 0 9d 30 64
        E 0 82 3f 66
        E 0 88 3f 66
        E 0 8d 30 64
        E 0 92 3e 64
        E 0 98 3e 64
        E 0 9d 30 64
        E 0 82 3e 64
        E 0 8e 46 66
        E 0 88 3e 64
        E 0 8d 30 64
        E 0 92 3f 66
        E 0 9e 45 64
        E 0 98 3f 66
        E 0 9d 30 64
        E 0 82 3f 66
        E 0 88 3f 66
        E 0 8d 30 64
        E 0 92 3c 64
        E 0 98 3c 64
        E 0 9d 30 64
        E 0 82 3c 64
        E 0 88 3c 64
        E 0 8d 30 64
        E 0 92 3e 64
        E 0 98 3e 64
        E 0 9d 30 64
        E 0 82 3e 64
        E 0 88 3e 64
        E 0 8d 30 64
        E 0 92 3f 66
        E 0 98 3f 66
        E 0 9d 30 64
        E 0 82 3f 66
        E 0 83 30 64
        E 0 8e 45 64
        E 0 88 3f 66
        E 0 8d 30 64
        E 0 92 3e 64
        E 0 93 2e 66
        E 0 97 4d 64
        E 0 98 3e 64
        E 0 9d 2e 66
        E 1 82 3e 64
        E 0 83 2e 66
        E 0 88 3e 64
        E 0 92 3c 64
        E 0 93 33 66
        E 0 98 3c 64
        E 0 82 3c 64
        E 0 87 4d 64
        E 0 88 3c 64
        E 0 8d 2e 66
        E 0 92 3a 66
        E 0 97 4f 64
        E 0 98 3a 66
        E 0 9d 33 66
        E 0 82 3a 66
        E 0 83 33 66
        E 0 87 4f 64
        E 0 88 3a 66
        E 0 8d 33 66
        E 0 92 39 64
        E 0 93 35 64
        E 0 97 48 64
        E 0 9e 4d 64
        E 0 98 39 64
        E 0 9d 35 64
        E 0 87 48 64
        E 0 8d 35 64
        E 0 97 4a 64
        E 0 9d 35 64
        E 0 87 4a 64
        E 0 8d 35 64
        E 0 97 4b 66
        E 0 9d 29 64
        E 0 88 39 64
        E 0 98 39 64
        E 0 87 4b 66
        E 0 8d 29 64
        E 0 97 4d 64
        E 0 9d 29 64
        E 0 82 39 64
        E 0 83 35 64
        E 0 87 4d 64
        E 0 8e 4d 64
        E 0 88 39 64
        E 0 8d 29 64
        E 0 92 3a 66
        E 0 93 2e 66
        E 0 97 4a 64
        E 1 9e 4d 64
        E 0 98 3a 66
        E 0 9d 2e 66
        E 0 87 4a 64
        E 0 8d 2e 66
        E 0 97 48 64
        E 0 9d 2d 64
        E 0 87 48 64
        E 0 8d 2d 64
        E 0 97 4a 64
        E 0 9d 2e 66
        E 0 8e 4d 64
        E 0 9e 4c 64
        E 0 87 4a 64
        E 0 8d 2e 66
        E 0 97 4c 64
        E 0 9d 30 64
        E 0 87 4c 64
        E 0 8e 4c 64
        E 0 8d 30 64
        E 0 97 4d 64
        E 0 9e 4a 64
        E 0 9d 32 64
        E 0 87 4d 64
        E 0 8d 32 64
        E 0 97 4f 64
        E 0 9d 34 64
        E 0 82 3a 66
        E 0 83 2e 66
        E 0 87 4f 64
        E 0 8e 4a 64
        E 0 88 3a 66
        E 0 8d 34 64
        E 0 92 3c 64
        E 0 93 35 64
        E 0 97 51 64
        E 0 9e 48 64
        E 0 9d 35 64
        E 0 8d 35 64
        E 0 9d 34 64
        E 0 82 3c 64
        E 0 83 35 64
        E 0 87 51 64
        E 0 8d 34 64
        E 0 92 41 64
        E 0 93 35 64
        E 0 97 4d 64
        E 0 98 41 64
        E 0 9d 35 64
        E 0 83 35 64
        E 0 8d 35 64
        E 0 93 37 64
        E 0 9d 37 64
        E 0 82 41 64
        E 1 83 37 64
        E 0 87 4d 64
        E 0 8e 48 64
        E 0 8d 37 64
        E 0 92 41 64
        E 0 93 39 64
        E 0 9d 39 64
        E 0 83 39 64
        E 0 8d 39 64
        E 0 93 3a 66
        E 0 9d 3a 66
        E 0 82 41 64
        E 0 83 3a 66
        E 0 88 41 64
        E 0 8d 3a 66
        E 0 92 41 64
        E 0 93 3c 64
        E 0 97 4f 64
        E 0 98 41 64
        E 0 9d 3c 64
        E 0 8d 3c 64
        E 0 9d 30 64
        E 0 82 41 64
        E 0 83 3c 64
        E 0 88 41 64
        E 0 8d 30 64
        E 0 92 40 64
        E 0 93 30 64
        E 0 98 40 64
        E 0 9d 30 64
        E 0 8d 30 64
        E 0 9d 30 64
        E 0 83 30 64
        E 0 8d 30 64
        E 0 93 32 64
        E 0 9d 32 64
        E 0 83 32 64
        E 0 8d 32 64
        E 0 93 34 64
        E 0 9d 34 64
        E 0 82 40 64
        E 0 83 34 64
        E 0 87 4f 64
        E 0 88 40 64
        E 0 8d 34 64
        E 0 92 40 64
        E 0 93 35 64
        E 0 97 51 64
        E 0 98 40 64
        E 0 9d 35 64
        E 0 8d 35 64
        E 0 9d 35 64
        E 1 82 40 64
        E 0 83 35 64
        E 0 87 51 64
        E 0 88 40 64
        E 0 8d 35 64
        E 0 92 3e 64
        E 0 93 35 64
        E 0 97 51 64
        E 0 98 3e 64
        E 0 9d 35 64
        E 0 8d 35 64
        E 0 9d 35 64
        E 0 87 51 64
        E 0 8d 35 64
        E 0 97 51 64
        E 0 9d 35 64
        E 0 83 35 64
        E 0 93 37 64
        E 0 87 51 64
        E 0 8d 35 64
        E 0 97 52 66
        E 0 9d 35 64
        E 0 82 3e 64
        E 0 83 37 64
        E 0 87 52 66
        E 0 88 3e 64
        E 0 8d 35 64
        E 0 92 3e 64
        E 0 93 34 64
        E 0 97 4f 64
        E 0 98 3e 64
        E 0 9d 34 64
        E 0 8d 34 64
        E 0 9d 34 64
        E 0 82 3e 64
        E 0 83 34 64
        E 1 87 4f 64
        E 0 88 3e 64
        E 0 8d 34 64
        E 0 92 3c 64
        E 0 93 39 64
        E 0 97 4f 64
        E 0 98 3c 64
        E 0 9d 39 64
        E 0 82 3c 64
        E 0 83 39 64
        E 0 8d 39 64
        E 0 92 3a 66
        E 0 93 37 64
        E 0 9d 37 64
        E 0 82 3a 66
        E 0 83 37 64
        E 0 87 4f 64
        E 0 8d 37 64
        E 0 92 3c 64
        E 0 93 39 64
        E 0 97 4f 64
        E 0 9d 39 64
        E 0 87 4f 64
        E 0 8d 39 64
        E 0 97 51 64
        E 0 9d 2d 64
        E 0 82 3c 64
        E 0 83 39 64
        E 0 87 51 64
        E 0 88 3c 64
        E 0 8d 2d 64
        E 0 92 3c 64
        E 0 93 32 64
        E 0 97 4d 64
        E 0 98 3c 64
        E 0 9d 32 64
        E 0 8d 32 64
        E 0 9d 32 64
        E 0 82 3c 64
        E 0 83 32 64
        E 0 87 4d 64
        E 0 88 3c 64
        E 0 8d 32 64
        E 0 92 3a 66
        E 1 93 37 64
        E 0 97 4d 64
        E 0 98 3a 66
        E 0 9d 37 64
        E 0 82 3a 66
        E 0 83 37 64
        E 0 8d 37 64
        E 0 92 39 64
        E 0 93 35 64
        E 0 9d 35 64
        E 0 82 39 64
        E 0 83 35 64
        E 0 87 4d 64
        E 0 8d 35 64
        E 0 92 3a 66
        E 0 93 37 64
        E 0 97 4d 64
        E 0 9d 37 64
        E 0 87 4d 64
        E 0 8d 37 64
        E 0 97 4f 64
        E 0 9d 2b 64
        E 0 82 3a 66
        E 0 83 37 64
        E 0 87 4f 64
        E 0 88 3a 66
        E 0 8d 2b 64
        E 0 92 3a 66
        E 0 93 30 64
        E 1 97 4c 64
        E 0 98 3a 66
        E 0 9d 30 64
        E 21047 8d 30 64
        E 0 9d 30 64
        E 0 82 3a 66
        E 0 83 30 64
        E 0 87 4c 64
        E 0 88 3a 66
        E 0 8d 30 64
        E 0 92 39 64
        E 0 93 35 64
        E 0 97 48 64
        E 0 98 39 64
        E 0 9d 35 64
        E 0 82 39 64
        E 0 83 35 64
        E 0 8d 35 64
        E 0 92 37 64
        E 0 93 34 64
        E 0 9d 34 64
        E 0 82 37 64
        E 0 83 34 64
        E 0 87 48 64
        E 0 8d 34 64
        E 0 92 39 64
        E 0 93 35 64
        E 0 97 4d 64
        E 0 9d 35 64
        E 0 8d 35 64
        E 0 9d 39 64
        E 0 82 39 64
        E 0 83 35 64
        E 0 87 4d 64
        E 0 88 39 64
        E 0 8d 39 64
        E 0 92 39 64
        E 0 93 3a 66
        E 0 97 4a 64
        E 0 98 39 64
        E 0 9d 3a 66
        E 0 83 3a 66
        E 0 87 4a 64
        E 0 8d 3a 66
        E 0 93 39 64
        E 0 97 48 64
        E 0 9d 39 64
        E 0 82 39 64
        E 0 83 39 64
        E 0 87 48 64
        E 0 88 39 64
        E 0 8d 39 64
        E 0 92 37 64
        E 0 93 3a 66
        E 0 97 4a 64
        E 0 98 37 64
        E 0 9d 3a 66
        E 0 83 3a 66
        E 0 87 4a 64
        E 0 8d 3a 66
        E 0 93 37 64
        E 0 97 46 66
        E 0 9d 37 64
        E 0 83 37 64
        E 0 87 46 66
        E 0 88 37 64
        E 0 8d 37 64
        E 0 93 39 64
        E 0 97 48 64
        E 0 98 43 64
        E 0 9d 39 64
        E 0 83 39 64
        E 0 87 48 64
        E 0 8d 39 64
        E 0 93 3a 66
        E 0 97 4a 64
        E 0 9d 3a 66
        E 0 82 37 64
        E 0 83 3a 66
        E 0 87 4a 64
        E 0 88 43 64
        E 0 8d 3a 66
        E 0 92 35 64
        E 0 93 39 64
        E 0 97 48 64
        E 0 98 3c 64
        E 0 9d 39 64
        E 0 82 35 64
        E 0 83 39 64
        E 0 87 48 64
        E 0 8d 39 64
        E 0 92 39 64
        E 1 93 35 64
        E 0 97 4d 64
        E 0 9d 35 64
        E 0 82 39 64
        E 0 83 35 64
        E 0 87 4d 64
        E 0 8d 35 64
        E 0 92 37 64
        E 0 93 30 64
        E 0 97 4c 64
        E 0 9d 30 64
        E 0 87 4c 64
        E 0 97 4d 64
        E 0 87 4d 64
        E 0 8d 30 64
        E 0 97 4f 64
        E 0 9d 30 64
        E 0 87 4f 64
        E 0 97 4c 64
        E 0 82 37 64
        E 0 83 30 64
        E 0 87 4c 64
        E 0 88 3c 64
        E 0 8d 30 64
        E 0 90 48 64
        E 0 91 45 64
        E 0 92 39 64
        E 0 93 35 64
        E 0 97 51 64
        E 0 9e 4d 64
        E 0 98 3c 64
        E 0 9d 29 64
        E 0 80 48 64
        E 0 81 45 64
        E 0 8d 29 64
        E 0 90 47 64
        E 0 91 43 64
        E 0 9d 35 64
        E 0 80 47 64
        E 0 81 43 64
        E 0 8d 35 64
        E 0 90 48 64
        E 0 91 45 64
        E 0 9d 35 64
        E 0 80 48 64
        E 0 81 45 64
        E 0 8d 35 64
        E 0 90 45 64
        E 0 91 41 64
        E 0 9d 35 64
        E 0 80 45 64
        E 0 81 41 64
        E 0 88 3c 64
        E 0 8d 35 64
        E 0 90 47 64
        E 0 91 43 64
        E 0 98 41 64
        E 0 9d 35 64
        E 0 80 47 64
        E 0 81 43 64
        E 0 8d 35 64
        E 0 90 48 64
        E 0 91 45 64
        E 0 9d 35 64
        E 0 80 48 64
        E 0 81 45 64
        E 0 82 39 64
        E 0 83 35 64
        E 0 87 51 64
        E 0 8e 4d 64
        E 0 88 41 64
        E 0 8d 35 64
        E 0 90 4a 64
        E 0 91 46 66
        E 0 92 3e 64
        E 0 93 3a 66
        E 0 97 51 64
        E 0 9e 4a 64
        E 0 98 41 64
        E 0 9d 3a 66
        E 0 82 3e 64
        E 0 83 3a 66
        E 0 8d 3a 66
        E 0 92 3c 64
        E 0 93 39 64
        E 0 9d 39 64
        E 0 80 4a 64
        E 0 81 46 66
        E 0 82 3c 64
        E 0 83 39 64
        E 0 8d 39 64
        E 0 90 4a 64
        E 0 91 46 66
        E 0 92 3e 64
        E 0 93 3a 66
        E 0 9d 3a 66
        E 0 82 3e 64
        E 0 83 3a 66
        E 1 8d 3a 66
        E 0 92 3a 66
        E 0 93 37 64
        E 0 9d 37 64
        E 0 82 3a 66
        E 0 83 37 64
        E 0 88 41 64
        E 0 8d 37 64
        E 0 92 3c 64
        E 0 93 39 64
        E 0 98 3e 64
        E 0 9d 39 64
        E 0 82 3c 64
        E 0 83 39 64
        E 0 8d 39 64
        E 0 92 3e 64
        E 0 93 3a 66
        E 0 9d 3a 66
        E 0 80 4a 64
        E 0 81 46 66
        E 0 82 3e 64
        E 0 83 3a 66
        E 0 87 51 64
        E 0 8e 4a 64
        E 0 88 3e 64
        E 0 8d 3a 66
        E 0 90 46 66
        E 0 91 43 64
        E 0 92 3e 64
        E 0 93 34 64
        E 0 97 4f 64
        E 0 9e 4a 64
        E 0 98 46 66
        E 0 9d 34 64
        E 0 80 46 66
        E 0 81 43 64
        E 0 8d 34 64
        E 0 90 45 64
        E 0 91 41 64
        E 0 9d 34 64
        E 0 80 45 64
        E 0 81 41 64
        E 0 83 34 64
        E 0 8d 34 64
        E 0 90 46 66
        E 0 91 43 64
        E 0 93 34 64
        E 0 9d 34 64
        E 0 80 46 66
        E 0 81 43 64
        E 0 8d 34 64
        E 0 90 43 64
        E 0 91 40 64
        E 0 9d 34 64
        E 0 80 43 64
        E 0 81 40 64
        E 0 82 3e 64
        E 0 88 46 66
        E 0 8d 34 64
        E 0 90 45 64
        E 0 91 41 64
        E 0 92 37 64
        E 0 98 43 64
        E 0 9d 34 64
        E 0 80 45 64
        E 0 81 41 64
        E 0 8d 34 64
        E 0 90 46 66
        E 0 91 43 64
        E 0 9d 34 64
        E 0 80 46 66
        E 0 81 43 64
        E 0 82 37 64
        E 0 83 34 64
        E 0 87 4f 64
        E 0 8e 4a 64
        E 0 88 43 64
        E 0 8d 34 64
        E 0 90 48 64
        E 0 91 45 64
        E 0 92 3c 64
        E 1 93 39 64
        E 0 97 4f 64
        E 0 9e 48 64
        E 0 98 40 64
        E 0 9d 39 64
        E 0 82 3c 64
        E 0 83 39 64
        E 0 8d 39 64
        E 0 92 3a 66
        E 0 93 37 64
        E 0 9d 37 64
        E 0 80 48 64
        E 0 81 45 64
        E 0 82 3a 66
        E 0 83 37 64
        E 0 8d 37 64
        E 0 90 48 64
        E 0 91 45 64
        E 0 92 3c 64
        E 0 93 39 64
        E 0 9d 39 64
        E 0 82 3c 64
        E 0 83 39 64
        E 0 8d 39 64
        E 0 92 39 64
        E 0 93 35 64
        E 0 9d 35 64
        E 0 82 39 64
        E 0 83 35 64
        E 0 88 40 64
        E 0 8d 35 64
        E 0 92 3a 66
        E 0 93 37 64
        E 0 98 3c 64
        E 0 9d 37 64
        E 0 82 3a 66
        E 0 83 37 64
        E 0 8d 37 64
        E 0 92 3c 64
        E 0 93 39 64
        E 0 9d 39 64
        E 0 80 48 64
        E 0 81 45 64
        E 0 82 3c 64
        E 0 83 39 64
        E 0 87 4f 64
        E 0 8e 48 64
        E 0 88 3c 64
        E 0 8d 39 64
        E 0 90 48 64
        E 0 91 41 64
        E 0 92 3c 64
        E 0 93 32 64
        E 0 97 4d 64
        E 0 9e 48 64
        E 0 98 45 64
        E 0 9d 32 64
        E 0 8d 32 64
        E 0 9d 32 64
        E 0 80 48 64
        E 0 81 41 64
        E 0 82 3c 64
        E 0 83 32 64
        E 1 8d 32 64
        E 0 90 48 64
        E 0 91 41 64
        E 0 92 3c 64
        E 0 93 32 64
        E 0 9d 32 64
        E 0 8d 32 64
        E 0 9d 32 64
        E 0 82 3c 64
        E 0 83 32 64
        E 0 8d 32 64
        E 0 92 3c 64
        E 0 93 32 64
        E 0 9d 32 64
        E 0 82 3c 64
        E 0 83 32 64
        E 0 8d 32 64
        E 0 92 3c 64
        E 0 93 32 64
        E 0 9d 32 64
        E 0 80 48 64
        E 0 81 41 64
        E 0 82 3c 64
        E 0 83 32 64
        E 0 87 4d 64
        E 0 8e 48 64
        E 0 88 45 64
        E 0 8d 32 64
        E 0 90 46 66
        E 0 91 43 64
        E 0 92 3c 64
        E 0 93 34 64
        E 0 97 4f 64
        E 0 9e 48 64
        E 0 98 43 64
        E 0 9d 34 64
        E 0 8d 34 64
        E 0 9d 34 64
        E 373 88 43 64
        E 0 8d 34 64
        E 1 98 40 64
        E 0 9d 34 64
        E 38404 80 46 66
        E 0 81 43 64
        E 0 82 3c 64
        E 0 83 34 64
        E 0 90 46 66
        E 0 91 43 64
        E 0 92 3c 64
        E 0 93 34 64
        E 0 8d 34 64
        E 0 9d 34 64
        E 0 80 46 66
        E 0 81 43 64
        E 0 82 3c 64
        E 0 83 34 64
        E 0 87 4f 64
        E 0 8e 48 64
        E 0 88 40 64
        E 0 8d 34 64
        E 0 90 45 64
        E 0 91 41 64
        E 0 92 3c 64
        E 0 93 35 64
        E 0 97 51 64
        E 0 9e 4d 64
        E 0 98 3c 64
        E 0 9d 35 64
        E 0 8d 35 64
        E 0 9d 35 64
        E 0 80 45 64
        E 0 81 41 64
        E 0 82 3c 64
        E 0 83 35 64
        E 0 87 51 64
        E 0 8e 4d 64
        E 0 88 3c 64
        E 0 8d 35 64
        E 1 90 45 64
        E 0 91 41 64
        E 0 92 3e 64
        E 0 93 2f 64
        E 0 97 51 64
        E 0 9e 4d 64
        E 0 98 3e 64
        E 0 9d 2f 64
        E 0 87 51 64
        E 0 8e 4d 64
        E 0 8d 2f 64
        E 0 97 4f 64
        E 0 9e 4c 64
        E 0 9d 2f 64
        E 0 81 41 64
        E 0 83 2f 64
        E 0 87 4f 64
        E 0 8e 4c 64
        E 0 8d 2f 64
        E 0 91 41 64
        E 0 93 2f 64
        E 0 97 4d 64
        E 0 9e 4a 64
        E 0 9d 2f 64
        E 0 87 4d 64
        E 0 8e 4a 64
        E 0 8d 2f 64
        E 0 97 4f 64
        E 0 9e 4c 64
        E 0 9d 2f 64
        E 0 80 45 64
        E 0 82 3e 64
        E 0 87 4f 64
        E 0 8e 4c 64
        E 0 8d 2f 64
        E 0 90 45 64
        E 0 92 3e 64
        E 0 97 51 64
        E 0 9e 4d 64
        E 0 9d 2f 64
        E 0 8d 2f 64
        E 0 9d 2f 64
        E 0 87 51 64
        E 0 8e 4d 64
        E 0 80 45 64
        E 0 81 41 64
        E 0 82 3e 64
        E 0 83 2f 64
        E 0 88 3e 64
        E 0 8d 2f 64
        E 1 97 51 64
        E 0 9e 4d 64
        E 0 90 45 64
        E 0 91 41 64
        E 0 92 3c 64
        E 0 93 30 64
        E 0 98 3c 64
        E 0 9d 30 64
        E 0 87 51 64
        E 0 8e 4d 64
        E 0 8d 30 64
        E 0 97 4f 64
        E 0 9e 4c 64
        E 0 9d 30 64
        E 0 87 4f 64
        E 0 8e 4c 64
        E 0 8d 30 64
        E 0 97 51 64
        E 0 9e 4d 64
        E 0 9d 30 64
        E 0 87 51 64
        E 0 8e 4d 64
        E 0 8d 30 64
        E 0 97 4d 64
        E 0 9e 48 64
        E 0 9d 30 64
        E 0 87 4d 64
        E 0 8e 48 64
        E 0 8d 30 64
        E 0 97 4f 64
        E 0 9e 4c 64
        E 0 9d 30 64
        E 0 87 4f 64
        E 0 8e 4c 64
        E 0 8d 30 64
        E 0 97 51 64
        E 0 9e 4d 64
        E 0 9d 30 64
        E 0 80 45 64
        E 0 81 41 64
        E 0 82 3c 64
        E 0 83 30 64
        E 0 87 51 64
        E 0 8e 4d 64
        E 0 88 3c 64
        E 0 8d 30 64
        E 0 90 43 64
        E 0 91 40 64
        E 0 92 3c 64
        E 0 93 30 64
        E 0 97 4f 64
        E 1 9e 4c 64
        E 0 98 3c 64
        E 0 9d 30 64
        E 0 87 4f 64
        E 0 8e 4c 64
        E 0 8d 30 64
        E 0 97 4d 64
        E 0 9e 4a 64
        E 0 9d 30 64
        E 0 87 4d 64
        E 0 8e 4a 64
        E 0 8d 30 64
        E 0 97 4f 64
        E 0 9e 4c 64
        E 0 9d 30 64
        E 0 87 4f 64
        E 0 8e 4c 64
        E 0 8d 30 64
        E 0 97 4c 64
        E 0 9e 48 64
        E 0 9d 30 64
        E 0 87 4c 64
        E 0 8e 48 64
        E 0 8d 30 64
        E 0 97 4d 64
        E 0 9e 4a 64
        E 0 9d 30 64
        E 0 87 4d 64
        E 0 8e 4a 64
        E 0 8d 30 64
        E 0 97 4f 64
        E 0 9e 4c 64
        E 0 9d 30 64
        E 0 80 43 64
        E 0 81 40 64
        E 0 82 3c 64
        E 0 83 30 64
        E 0 87 4f 64
        E 0 8e 4c 64
        E 0 88 3c 64
        E 0 8d 30 64
        E 0 91 45 64
        E 0 92 3c 64
        E 0 93 35 64
        E 0 97 51 64
        E 0 9e 4d 64
        E 0 98 48 64
        E 0 9d 35 64
        E 0 81 45 64
        E 0 87 51 64
        E 0 8d 35 64
        E 0 91 46 66
        E 0 97 52 66
        E 1 9d 35 64
        E 0 81 46 66
        E 0 82 3c 64
        E 0 83 35 64
        E 0 87 52 66
        E 0 8e 4d 64
        E 0 88 48 64
        E 0 8d 35 64
        E 0 90 4a 64
        E 0 91 45 64
        E 0 92 39 64
        E 0 93 35 64
        E 0 97 51 64
        E 0 9e 4a 64
        E 0 98 45 64
        E 0 9d 35 64
        E 0 81 45 64
        E 0 87 51 64
        E 0 8d 35 64
        E 0 91 43 64
        E 0 97 4f 64
        E 0 9d 35 64
        E 0 81 43 64
        E 0 87 4f 64
        E 0 88 45 64
        E 0 8d 35 64
        E 0 91 45 64
        E 0 97 51 64
        E 0 98 41 64
        E 0 9d 35 64
        E 0 82 39 64
        E 0 83 35 64
        E 0 92 39 64
        E 0 93 35 64
        E 0 81 45 64
        E 0 87 51 64
        E 0 8d 35 64
        E 0 91 41 64
        E 0 97 4d 64
        E 0 9d 35 64
        E 0 80 4a 64
        E 0 81 41 64
        E 0 82 39 64
        E 0 83 35 64
        E 0 87 4d 64
        E 0 8e 4a 64
        E 0 88 41 64
        E 0 8d 35 64
        E 0 90 4a 64
        E 0 91 43 64
        E 0 92 3a 66
        E 0 93 34 64
        E 0 97 4f 64
        E 0 9e 4a 64
        E 0 98 46 66
        E 0 9d 34 64
        E 0 81 43 64
        E 0 87 4f 64
        E 0 8d 34 64
        E 0 91 45 64
        E 0 97 51 64
        E 1 9d 34 64
        E 0 80 4a 64
        E 0 81 45 64
        E 0 82 3a 66
        E 0 87 51 64
        E 0 8e 4a 64
        E 0 88 46 66
        E 0 8d 34 64
        E 0 90 48 64
        E 0 91 43 64
        E 0 92 37 64
        E 0 97 4f 64
        E 0 9e 48 64
        E 0 98 43 64
        E 0 9d 34 64
        E 0 81 43 64
        E 0 87 4f 64
        E 0 8d 34 64
        E 0 91 41 64
        E 0 97 4d 64
        E 0 9d 34 64
        E 0 81 41 64
        E 0 83 34 64
        E 0 87 4d 64
        E 0 88 43 64
        E 0 8d 34 64
        E 0 91 43 64
        E 0 93 34 64
        E 0 97 4f 64
        E 0 98 40 64
        E 0 9d 34 64
        E 0 81 43 64
        E 0 87 4f 64
        E 0 8d 34 64
        E 0 91 40 64
        E 0 97 4c 64
        E 0 9d 34 64
        E 0 80 48 64
        E 0 81 40 64
        E 0 82 37 64
        E 0 83 34 64
        E 0 87 4c 64
        E 0 8e 48 64
        E 0 88 40 64
        E 0 8d 34 64
        E 0 90 48 64
        E 0 91 41 64
        E 0 92 39 64
        E 0 93 32 64
        E 0 97 4d 64
        E 0 9e 48 64
        E 0 98 45 64
        E 0 9d 32 64
        E 0 81 41 64
        E 0 87 4d 64
        E 0 8d 32 64
        E 0 91 43 64
        E 0 97 4f 64
        E 0 9d 32 64
        E 0 80 48 64
        E 0 81 43 64
        E 0 82 39 64
        E 0 83 32 64
        E 0 87 4f 64
        E 0 8e 48 64
        E 0 88 45 64
        E 0 8d 32 64
        E 0 90 46 66
        E 0 91 41 64
        E 0 92 35 64
        E 0 93 32 64
        E 0 97 4d 64
        E 1 9e 46 66
        E 0 98 41 64
        E 0 9d 32 64
        E 0 81 41 64
        E 0 87 4d 64
        E 0 8d 32 64
        E 0 91 40 64
        E 1 97 4c 64
        E 0 9d 32 64
        E 0 81 40 64
        E 0 87 4c 64
        E 0 88 41 64
        E 0 8d 32 64
        E 0 91 41 64
        E 0 97 4d 64
        E 0 98 3e 64
        E 0 9d 32 64
        E 0 81 41 64
        E 0 87 4d 64
        E 0 8d 32 64
        E 0 91 3e 64
        E 0 97 4a 64
        E 0 9d 32 64
        E 0 80 46 66
        E 0 81 3e 64
        E 0 82 35 64
        E 0 83 32 64
        E 0 87 4a 64
        E 0 8e 46 66
        E 0 88 3e 64
        E 0 8d 32 64
        E 0 90 46 66
        E 0 91 40 64
        E 0 92 37 64
        E 0 93 30 64
        E 0 97 4c 64
        E 0 9e 46 66
        E 0 98 43 64
        E 0 9d 30 64
        E 0 87 4c 64
        E 0 8d 30 64
        E 0 97 4d 64
        E 1 9d 30 64
        E 0 82 37 64
        E 0 87 4d 64
        E 0 88 43 64
        E 0 8d 30 64
        E 0 92 40 64
        E 0 97 4f 64
        E 0 98 40 64
        E 0 9d 30 64
        E 0 83 30 64
        E 0 93 30 64
        E 0 87 4f 64
        E 0 8d 30 64
        E 0 97 4c 64
        E 0 9d 30 64
        E 0 80 46 66
        E 0 81 40 64
        E 0 82 40 64
        E 0 83 30 64
        E 0 87 4c 64
        E 0 8e 46 66
        E 0 88 40 64
        E 0 8d 30 64
        E 0 90 45 64
        E 1 91 41 64
        E 0 92 3c 64
        E 0 93 35 64
        E 0 97 4d 64
        E 0 9e 45 64
        E 0 98 3c 64
        E 0 9d 35 64
        E 0 8d 35 64
        E 0 9d 35 64
        E 0 80 45 64
        E 0 81 41 64
        E 0 82 3c 64
        E 0 83 35 64
        E 0 87 4d 64
        E 0 8e 45 64
        E 0 88 3c 64
        E 0 8d 35 64
        E 0 90 45 64
        E 0 91 41 64
        E 0 92 3e 64
        E 0 93 2e 66
        E 0 97 4d 64
        E 0 9e 45 64
        E 0 98 3e 64
        E 0 9d 2e 66
        E 0 82 3e 64
        E 0 83 2e 66
        E 0 87 4d 64
        E 0 8d 2e 66
        E 0 92 3e 64
        E 0 93 2e 66
        E 0 97 4f 64
        E 1 9d 2e 66
        E 0 80 45 64
        E 0 81 41 64
        E 0 82 3e 64
        E 0 83 2e 66
        E 0 87 4f 64
        E 0 8e 45 64
        E 0 88 3e 64
        E 0 8d 2e 66
        E 0 90 43 64
        E 0 91 40 64
        E 0 92 37 64
        E 0 93 30 64
        E 0 97 4c 64
        E 0 9e 43 64
        E 0 98 40 64
        E 0 9d 30 64
        E 0 87 4c 64
        E 0 8e 43 64
        E 0 8d 30 64
        E 0 97 4d 64
        E 0 9e 45 64
        E 0 9d 30 64
        E 0 82 37 64
        E 0 87 4d 64
        E 0 8e 45 64
        E 0 88 40 64
        E 0 8d 30 64
        E 0 92 3c 64
        E 0 97 4f 64
        E 0 9e 46 66
        E 0 98 3c 64
        E 0 9d 30 64
        E 0 87 4f 64
        E 0 8e 46 66
        E 0 8d 30 64
        E 0 97 4c 64
        E 0 9e 43 64
        E 0 9d 30 64
        E 0 80 43 64
        E 0 81 40 64
        E 0 82 3c 64
        E 0 83 30 64
        E 0 87 4c 64
        E 0 8e 43 64
        E 0 88 3c 64
        E 0 8d 30 64
        E 0 90 45 64
        E 0 91 41 64
        E 0 92 3c 64
        E 0 93 35 64
        E 0 97 4d 64
        E 0 9e 45 64
        E 0 98 3c 64
        E 0 9d 29 64
        E 0 8d 29 64
        E 0 9d 29 64
        E 0 87 4d 64
        E 0 8e 45 64
        E 0 8d 29 64
        E 0 97 51 64
        E 0 9e 4d 64
        E 0 9d 29 64
        E 0 87 51 64
        E 0 8e 4d 64
        E 0 8d 29 64
        E 0 97 52 66
        E 0 9e 4f 64
        E 0 9d 29 64
        E 0 87 52 66
        E 1 8e 4f 64
        E 0 8d 29 64
        E 0 97 54 64
        E 0 9e 51 64
        E 0 9d 29 64
        E 0 87 54 64
        E 0 8e 51 64
        E 0 8d 29 64
        E 0 97 52 66
        E 0 9e 4f 64
        E 0 9d 29 64
        E 0 80 45 64
        E 0 81 41 64
        E 0 82 3c 64
        E 0 83 35 64
        E 0 87 52 66
        E 0 8e 4f 64
        E 0 88 3c 64
        E 0 8d 29 64
        E 0 91 45 64
        E 0 92 3c 64
        E 0 93 35 64
        E 0 97 51 64
        E 0 9e 4d 64
        E 0 98 48 64
        E 0 9d 35 64
        E 0 81 45 64
        E 0 87 51 64
        E 0 8d 35 64
        E 0 91 46 66
        E 0 97 52 66
        E 0 9d 35 64
        E 0 81 46 66
        E 0 82 3c 64
        E 0 83 35 64
        E 0 87 52 66
        E 0 8e 4d 64
        E 0 88 48 64
        E 0 8d 35 64
        E 0 90 4a 64
        E 0 91 45 64
        E 0 92 39 64
        E 0 93 35 64
        E 0 97 51 64
        E 0 9e 4a 64
        E 0 98 45 64
        E 0 9d 35 64
        E 0 81 45 64
        E 0 87 51 64
        E 0 8d 35 64
        E 0 91 43 64
        E 0 97 4f 64
        E 0 9d 35 64
        E 0 81 43 64
        E 0 87 4f 64
        E 0 88 45 64
        E 0 8d 35 64
        E 0 91 45 64
        E 0 97 51 64
        E 0 98 41 64
        E 1 9d 35 64
        E 0 82 39 64
        E 0 83 35 64
        E 0 92 39 64
        E 0 93 35 64
        E 0 81 45 64
        E 0 87 51 64
        E 0 8d 35 64
        E 0 91 41 64
        E 0 97 4d 64
        E 0 9d 35 64
        E 0 80 4a 64
        E 0 81 41 64
        E 0 82 39 64
        E 0 83 35 64
        E 0 87 4d 64
        E 0 8e 4a 64
        E 0 88 41 64
        E 0 8d 35 64
        E 0 90 4a 64
        E 0 91 43 64
        E 0 92 3a 66
        E 0 93 34 64
        E 0 97 4f 64
        E 0 9e 4a 64
        E 0 98 46 66
        E 0 9d 34 64
        E 0 81 43 64
        E 0 87 4f 64
        E 0 8d 34 64
        E 0 91 45 64
        E 0 97 51 64
        E 0 9d 34 64
        E 0 80 4a 64
        E 0 81 45 64
        E 0 82 3a 66
        E 0 83 34 64
        E 0 87 51 64
        E 0 8e 4a 64
        E 0 88 46 66
        E 0 8d 34 64
        E 0 90 48 64
        E 0 91 43 64
        E 0 92 37 64
        E 0 93 34 64
        E 0 97 4f 64
        E 0 9e 48 64
        E 0 98 43 64
        E 0 9d 34 64
        E 0 81 43 64
        E 0 87 4f 64
        E 0 8d 34 64
        E 0 91 41 64
        E 0 97 4d 64
        E 0 9d 34 64
        E 0 81 41 64
        E 0 87 4d 64
        E 0 88 43 64
        E 0 8d 34 64
        E 0 91 43 64
        E 0 97 4f 64
        E 0 98 40 64
        E 0 9d 34 64
        E 0 81 43 64
        E 0 87 4f 64
        E 1 8d 34 64
        E 0 91 40 64
        E 0 97 4c 64
        E 0 9d 34 64
        E 0 80 48 64
        E 0 81 40 64
        E 0 82 37 64
        E 0 83 34 64
        E 0 87 4c 64
        E 0 8e 48 64
        E 0 88 40 64
        E 0 8d 34 64
        E 2 90 48 64
        E 0 91 41 64
        E 3 92 39 64
        E 0 93 32 64
        E 0 97 4d 64
        E 0 9e 48 64
        E 1 98 45 64
        E 0 9d 32 64
        E 0 81 41 64
        E 0 87 4d 64
        E 0 8d 32 64
        E 1 91 43 64
        E 1 97 4f 64
        E 0 9d 32 64
        E 0 80 48 64
        E 0 81 43 64
        E 0 82 39 64
        E 0 83 32 64
        E 0 87 4f 64
        E 0 8e 48 64
        E 0 88 45 64
        E 0 8d 32 64
        E 0 90 46 66
        E 0 91 41 64
        E 0 92 35 64
        E 0 93 32 64
        E 0 97 4d 64
        E 0 9e 46 66
        E 0 98 41 64
        E 0 9d 32 64
        E 0 81 41 64
        E 0 87 4d 64
        E 0 8d 32 64
        E 0 91 40 64
        E 0 97 4c 64
        E 0 9d 32 64
        E 0 81 40 64
        E 0 87 4c 64
        E 0 88 41 64
        E 0 8d 32 64
        E 0 91 41 64
        E 0 97 4d 64
        E 0 98 3e 64
        E 0 9d 32 64
        E 1 81 41 64
        E 0 87 4d 64
        E 2 8d 32 64
        E 0 91 3e 64
        E 1 97 4a 64
        E 1 9d 32 64
        E 0 80 46 66
        E 0 81 3e 64
        E 0 82 35 64
        E 0 83 32 64
        E 0 87 4a 64
        E 0 8e 46 66
        E 0 88 3e 64
        E 0 8d 32 64
        E 0 90 46 66
        E 0 91 40 64
        E 0 92 37 64
        E 0 93 30 64
        E 0 97 4c 64
        E 1 9e 46 66
        E 0 98 43 64
        E 0 9d 30 64
        E 0 87 4c 64
        E 0 8d 30 64
        E 0 97 4d 64
        E 0 9d 30 64
        E 0 82 37 64
        E 0 87 4d 64
        E 0 88 43 64
        E 0 8d 30 64
        E 0 92 40 64
        E 0 97 4f 64
        E 0 98 40 64
        E 0 9d 30 64
        E 0 83 30 64
        E 0 93 30 64
        E 0 87 4f 64
        E 0 8d 30 64
        E 0 97 4c 64
        E 0 9d 30 64
        E 0 80 46 66
        E 0 81 40 64
        E 0 82 40 64
        E 0 83 30 64
        E 0 87 4c 64
        E 0 8e 46 66
        E 0 88 40 64
        E 0 8d 30 64
        E 0 90 45 64
        E 0 91 41 64
        E 0 92 3c 64
        E 0 93 35 64
        E 0 97 4d 64
        E 0 9e 45 64
        E 0 98 3c 64
        E 0 9d 35 64
        E 0 8d 35 64
        E 0 9d 35 64
        E 0 80 45 64
        E 0 81 41 64
        E 0 82 3c 64
        E 0 83 35 64
        E 0 87 4d 64
        E 0 8e 45 64
        E 0 88 3c 64
        E 0 8d 35 64
        E 0 90 45 64
        E 0 91 41 64
        E 0 92 3e 64
        E 0 93 2e 66
        E 0 97 4d 64
        E 0 9e 45 64
        E 0 98 3e 64
        E 0 9d 2e 66
        E 0 82 3e 64
        E 0 83 2e 66
        E 0 87 4d 64
        E 0 8d 2e 66
        E 1 92 3e 64
        E 0 93 2e 66
        E 0 97 4f 64
        E 0 9d 2e 66
        E 0 80 45 64
        E 0 81 41 64
        E 0 82 3e 64
        E 0 83 2e 66
        E 0 87 4f 64
        E 0 8e 45 64
        E 0 88 3e 64
        E 0 8d 2e 66
        E 0 90 43 64
        E 0 91 40 64
        E 0 92 37 64
        E 0 93 30 64
        E 0 97 4c 64
        E 0 9e 43 64
        E 0 98 40 64
        E 0 9d 30 64
        E 0 87 4c 64
        E 0 8e 43 64
        E 0 8d 30 64
        E 0 97 4d 64
        E 0 9e 45 64
        E 0 9d 30 64
        E 0 82 37 64
        E 0 87 4d 64
        E 0 8e 45 64
        E 0 88 40 64
        E 0 8d 30 64
        E 0 92 3c 64
        E 0 97 4f 64
        E 0 9e 46 66
        E 0 98 3c 64
        E 0 9d 24 64
        E 0 87 4f 64
        E 0 8e 46 66
        E 0 8d 24 64
        E 0 97 4c 64
        E 0 9e 43 64
        E 0 9d 24 64
        E 0 80 43 64
        E 0 81 40 64
        E 0 82 3c 64
        E 0 83 30 64
        E 0 87 4c 64
        E 0 8e 43 64
        E 0 88 3c 64
        E 0 8d 24 64
        E 1 90 45 64
        E 0 91 41 64
        E 0 92 3c 64
        E 0 93 35 64
        E 0 97 4d 64
        E 0 9e 45 64
        E 0 98 3c 64
        E 0 9d 29 64
        E 0 8d 29 64
        E 0 9d 35 64
        E 28268 87 4d 64
        E 0 8e 45 64
        E 0 88 3c 64
        E 0 8d 35 64
        E 0 97 41 64
        E 0 98 39 64
        E 0 9d 35 64
        E 0 87 41 64
        E 0 88 39 64
        E 0 8d 35 64
        E 0 97 43 64
        E 0 98 39 64
        E 0 9d 35 64
        E 0 87 43 64
        E 0 88 39 64
        E 0 8d 35 64
        E 0 97 45 64
        E 0 98 39 64
        E 0 9d 35 64
        E 0 87 45 64
        E 0 88 39 64
        E 0 8d 35 64
        E 0 97 46 66
        E 0 98 39 64
        E 0 9d 35 64
        E 0 80 45 64
        E 0 81 41 64
        E 0 82 3c 64
        E 0 83 35 64
        E 0 87 46 66
        E 0 88 39 64
        E 0 8d 35 64
        E 0 97 48 64
        E 0 98 37 64
        E 0 9d 34 64
        E 0 87 48 64
        E 0 88 37 64
        E 0 8d 34 64
        E 3 97 46 66
        E 0 98 37 64
        E 0 9d 34 64
        E 0 87 46 66
        E 0 88 37 64
        E 0 8d 34 64
        E 0 97 48 64
        E 0 9e 4f 64
        E 0 98 37 64
        E 0 9d 34 64
        E 0 87 48 64
        E 0 88 37 64
        E 0 8d 34 64
        E 0 97 4a 64
        E 0 98 37 64
        E 0 9d 34 64
        E 0 87 4a 64
        E 0 8e 4f 64
        E 0 88 37 64
        E 0 8d 34 64
        E 0 97 4c 64
        E 0 9e 54 64
        E 0 98 43 64
        E 0 9d 34 64
        E 0 87 4c 64
        E 0 88 43 64
        E 0 8d 34 64
        E 0 97 48 64
        E 0 98 43 64
        E 0 9d 34 64
        E 0 87 48 64
        E 0 8e 54 64
        E 0 88 43 64
        E 0 8d 34 64
        E 0 97 4d 64
        E 1 9e 54 64
        E 0 98 45 64
        E 0 9d 32 64
        E 0 87 4d 64
        E 0 88 45 64
        E 0 8d 32 64
        E 0 97 4c 64
        E 0 98 45 64
        E 0 9d 32 64
        E 0 87 4c 64
        E 0 8e 54 64
        E 0 88 45 64
        E 0 8d 32 64
        E 0 97 4d 64
        E 0 9e 52 66
        E 0 98 41 64
        E 0 9d 32 64
        E 0 87 4d 64
        E 0 88 41 64
        E 0 8d 32 64
        E 0 97 4f 64
        E 0 98 41 64
        E 0 9d 32 64
        E 0 87 4f 64
        E 0 88 41 64
        E 0 8d 32 64
        E 0 97 51 64
        E 0 98 3e 64
        E 0 9d 32 64
        E 0 87 51 64
        E 0 88 3e 64
        E 0 8d 32 64
        E 0 97 52 66
        E 0 98 3e 64
        E 0 9d 32 64
        E 0 87 52 66
        E 0 8e 52 66
        E 0 88 3e 64
        E 0 8d 32 64
        E 0 97 54 64
        E 0 98 40 64
        E 0 9d 30 64
        E 0 88 40 64
        E 0 8d 30 64
        E 0 98 40 64
        E 0 9d 30 64
        E 0 87 54 64
        E 0 88 40 64
        E 0 8d 30 64
        E 0 97 48 64
        E 0 9e 4c 64
        E 0 98 45 64
        E 1 9d 30 64
        E 0 88 45 64
        E 0 8d 30 64
        E 0 98 45 64
        E 0 9d 30 64
        E 0 87 48 64
        E 0 8e 4c 64
        E 0 88 45 64
        E 0 8d 30 64
        E 0 97 48 64
        E 0 9e 51 64
        E 0 98 40 64
        E 0 9d 30 64
        E 0 88 40 64
        E 0 8d 30 64
        E 0 98 40 64
        E 0 9d 30 64
        E 0 87 48 64
        E 0 8e 51 64
        E 0 88 40 64
        E 0 8d 30 64
        E 0 97 4a 64
        E 0 9e 51 64
        E 0 98 41 64
        E 0 9d 2e 66
        E 0 88 41 64
        E 0 8d 2e 66
        E 0 98 41 64
        E 0 9d 2e 66
        E 0 87 4a 64
        E 0 8e 51 64
        E 0 88 41 64
        E 0 8d 2e 66
        E 1 97 46 66
        E 0 9e 4f 64
        E 0 98 3e 64
        E 0 9d 2e 66
        E 0 87 46 66
        E 0 88 3e 64
        E 0 8d 2e 66
        E 0 97 48 64
        E 0 98 3e 64
        E 0 9d 2e 66
        E 0 87 48 64
        E 0 88 3e 64
        E 0 8d 2e 66
        E 0 97 4a 64
        E 0 98 3a 66
        E 0 9d 2e 66
        E 0 87 4a 64
        E 0 88 3a 66
        E 0 8d 2e 66
        E 0 97 4c 64
        E 0 98 3a 66
        E 0 9d 2e 66
        E 0 87 4c 64
        E 0 8e 4f 64
        E 0 88 3a 66
        E 0 8d 2e 66
        E 0 97 4d 64
        E 0 98 3c 64
        E 0 9d 2d 64
        E 0 87 4d 64
        E 0 88 3c 64
        E 0 8d 2d 64
        E 0 97 4c 64
        E 0 98 3c 64
        E 0 9d 2d 64
        E 0 87 4c 64
        E 0 88 3c 64
        E 0 8d 2d 64
        E 0 97 4d 64
        E 0 9e 48 64
        E 0 98 3c 64
        E 0 9d 2d 64
        E 0 87 4d 64
        E 0 88 3c 64
        E 0 8d 2d 64
        E 0 97 4f 64
        E 0 98 3c 64
        E 0 9d 2d 64
        E 0 87 4f 64
        E 0 8e 48 64
        E 0 88 3c 64
        E 0 8d 2d 64
        E 0 97 51 64
        E 0 9e 4d 64
        E 0 98 3c 64
        E 0 9d 2d 64
        E 0 87 51 64
        E 0 88 3c 64
        E 0 8d 2d 64
        E 0 97 4d 64
        E 0 98 3c 64
        E 0 9d 2d 64
        E 0 87 4d 64
        E 0 8e 4d 64
        E 0 88 3c 64
        E 0 8d 2d 64
        E 0 97 52 66
        E 0 9e 4d 64
        E 0 98 3e 64
        E 0 9d 2b 64
        E 0 87 52 66
        E 0 88 3e 64
        E 0 8d 2b 64
        E 0 97 51 64
        E 0 98 3e 64
        E 1 9d 2b 64
        E 0 87 51 64
        E 0 8e 4d 64
        E 0 88 3e 64
        E 0 8d 2b 64
        E 0 97 52 66
        E 0 9e 4c 64
        E 0 98 43 64
        E 0 9d 2b 64
        E 0 87 52 66
        E 0 88 43 64
        E 0 8d 2b 64
        E 0 97 4f 64
        E 0 98 43 64
        E 0 9d 2b 64
        E 0 87 4f 64
        E 0 88 43 64
        E 0 8d 2b 64
        E 0 97 51 64
        E 0 98 3a 66
        E 0 9d 2b 64
        E 0 87 51 64
        E 0 88 3a 66
        E 0 8d 2b 64
        E 0 97 52 66
        E 0 98 3a 66
        E 0 9d 2b 64
        E 0 87 52 66
        E 0 8e 4c 64
        E 0 88 3a 66
        E 0 8d 2b 64
        E 0 97 51 64
        E 0 9e 4d 64
        E 0 98 3c 64
        E 0 9d 29 64
        E 0 87 51 64
        E 0 8e 4d 64
        E 0 88 3c 64
        E 0 8d 29 64
        E 0 97 4d 64
        E 0 9e 4a 64
        E 0 98 3e 64
        E 0 9d 2e 66
        E 0 87 4d 64
        E 0 8e 4a 64
        E 0 88 3e 64
        E 0 8d 2e 66
        E 0 97 4c 64
        E 0 9e 43 64
        E 0 98 3c 64
        E 0 9d 30 64
        E 0 8d 30 64
        E 0 9d 24 64
        E 0 87 4c 64
        E 0 8e 43 64
        E 0 88 3c 64
        E 0 97 4d 64
        E 0 9e 48 64
        E 0 98 3c 64
        E 0 87 4d 64
        E 0 8e 48 64
        E 0 88 3c 64
        E 0 8d 24 64
        E 0 97 4d 64
        E 0 9e 45 64
        E 0 98 3c 64
        E 0 9d 29 64
        E 1 87 4d 64
        E 0 8e 45 64
        E 0 88 3c 64
        E 0 8d 29 64
        E 0 9d 3e 64
        E 0 8d 3e 64
        E 0 9d 39 64
        E 38405 8d 39 64
        E 0 9d 35 64
        E 0 8d 35 64
        E 0 9d 34 64
        E 0 8d 34 64
        E 0 9d 32 64
        E 0 8d 32 64
        E 0 9d 31 64
        E 0 8d 31 64
        E 0 9d 2f 64
        E 0 8d 2f 64
        E 0 9d 2d 64
        E 0 8d 2d 64
        E 0 9d 39 64
        E 0 8d 39 64
        E 0 9d 3a 66
        E 0 8d 3a 66
        E 0 9d 3e 64
        E 0 8d 3e 64
        E 0 9d 34 64
        E 0 8d 34 64
        E 0 9d 3c 64
        E 0 8d 3c 64
        E 0 9d 39 64
        E 0 8d 39 64
        E 0 9d 3c 64
        E 0 8d 3c 64
        E 1 9d 32 64
        E 0 8d 32 64
        E 0 9d 3a 66
        E 0 8d 3a 66
        E 0 9d 37 64
        E 0 8d 37 64
        E 0 9d 3a 66
        E 0 8d 3a 66
        E 0 9d 31 64
        E 0 8d 31 64
        E 0 9d 39 64
        E 0 8d 39 64
        E 0 9d 35 64
        E 0 8d 35 64
        E 0 9d 3e 64
        E 0 8d 3e 64
        E 0 9d 36 64
        E 0 8d 36 64
        E 0 9d 37 64
        E 0 8d 37 64
        E 0 9d 40 64
        E 0 8d 40 64
        E 0 9d 38 64
        E 0 8d 38 64
        E 0 9d 39 64
        E 0 8d 39 64
        E 0 9d 37 64
        E 0 8d 37 64
        E 0 9d 35 64
        E 0 8d 35 64
        E 0 9d 34 64
        E 1306 8d 34 64
        E 0 9d 32 64
        E 0 8d 32 64
        E 1 9d 30 64
        E 38401 8d 30 64
        E 0 9d 2e 66
        E 0 8d 2e 66
        E 0 9d 2d 64
        E 0 8d 2d 64
        E 0 9d 2b 64
        E 0 8d 2b 64
        E 1 9d 29 64
        E 0 8d 29 64
        E 0 9d 28 64
        E 0 8d 28 64
        E 0 9d 26 64
        E 0 8d 26 64
        E 0 9d 2d 64
        E 0 8d 2d 64
        E 0 9d 2d 64
        E 0 8d 2d 64
        E 0 9c 45 64
        E 0 9d 26 64
        E 0 8d 26 64
        E 0 8c 45 64
        E 0 9c 45 64
        E 0 8c 45 64
        E 0 9c 43 64
        E 0 8c 43 64
        E 0 9c 41 64
        E 0 8c 41 64
        E 0 9c 40 64
        E 0 8c 40 64
        E 0 9c 3e 64
        E 0 8c 3e 64
        E 0 9c 3d 64
        E 0 8c 3d 64
        E 0 9c 3e 64
        E 0 8c 3e 64
        E 0 9d 3e 64
        E 0 8d 3e 64
        E 0 9d 39 64
        E 1 8d 39 64
        E 0 9d 35 64
        E 0 8d 35 64
        E 0 9d 34 64
        E 0 8d 34 64
        E 0 9d 32 64
        E 0 8d 32 64
        E 0 9c 45 64
        E 0 9d 31 64
        E 0 8d 31 64
        E 0 9d 2f 64
        E 0 8d 2f 64
        E 0 9d 2d 64
        E 0 8d 2d 64
        E 0 8c 45 64
        E 0 9c 43 64
        E 0 9d 39 64
        E 0 8c 43 64
        E 0 8d 39 64
        E 0 9c 41 64
        E 0 9d 32 64
        E 0 8c 41 64
        E 0 8d 32 64
        E 0 9c 40 64
        E 0 9d 39 64
        E 0 8c 40 64
        E 0 8d 39 64
        E 0 9c 41 64
        E 0 9d 32 64
        E 11379 8c 41 64
        E 1 8d 32 64
        E 1 9c 43 64
        E 0 9d 39 64
        E 0 8c 43 64
        E 0 9c 40 64
        E 0 8c 40 64
        E 0 8d 39 64
        E 0 9c 41 64
        E 0 9d 38 64
        E 0 8c 41 64
        E 0 8d 38 64
        E 0 9c 40 64
        E 0 9d 39 64
        E 0 8d 39 64
        E 0 9d 34 64
        E 1 8c 40 64
        E 0 8d 34 64
        E 0 9d 31 64
        E 0 8d 31 64
        E 0 9d 2f 64
        E 15116 8d 2f 64
        E 0 9d 2d 64
        E 0 8d 2d 64
        E 0 9c 42 64
        E 0 9d 3e 64
        E 0 8d 3e 64
        E 0 9d 39 64
        E 0 8c 42 64
        E 0 8d 39 64
        E 0 9c 45 64
        E 0 9d 36 64
        E 0 8c 45 64
        E 0 8d 36 64
        E 0 9c 42 64
        E 1 9d 34 64
        E 0 8d 34 64
        E 0 9d 32 64
        E 0 8c 42 64
        E 0 8d 32 64
        E 0 9c 43 64
        E 0 9d 37 64
        E 0 8c 43 64
        E 0 9c 42 64
        E 0 8c 42 64
        E 0 8d 37 64
        E 0 9c 43 64
        E 0 9d 32 64
        E 0 8c 43 64
        E 0 8d 32 64
        E 0 9d 2f 64
        E 0 8d 2f 64
        E 0 9d 2d 64
        E 0 8d 2d 64
        E 0 9d 2b 64
        E 0 8d 2b 64
        E 0 9c 40 64
        E 0 9d 3c 64
        E 0 8d 3c 64
        E 0 9d 37 64
        E 0 8c 40 64
        E 0 8d 37 64
        E 0 9c 43 64
        E 0 9d 34 64
        E 1561 8c 43 64
        E 0 8d 34 64
        E 0 9c 40 64
        E 0 9d 32 64
        E 32577 8d 32 64
        E 0 9d 30 64
        E 1 8c 40 64
        E 0 8d 30 64
        E 0 9c 41 64
        E 0 9d 35 64
        E 0 8c 41 64
        E 0 9c 40 64
        E 0 8c 40 64
        E 0 8d 35 64
        E 0 9c 41 64
        E 0 9d 30 64
        E 0 8c 41 64
        E 0 8d 30 64
        E 0 9d 2d 64
        E 0 8d 2d 64
        E 0 9d 2b 64
        E 0 8d 2b 64
        E 0 9d 29 64
        E 0 8d 29 64
        E 0 9c 46 66
        E 0 9d 3e 64
        E 0 8d 3e 64
        E 0 9d 35 64
        E 0 8d 35 64
        E 0 9d 32 64
        E 0 8c 46 66
        E 0 8d 32 64
        E 0 9c 45 64
        E 0 9d 34 64
        E 0 8d 34 64
        E 0 9d 35 64
        E 0 8c 45 64
        E 0 8d 35 64
        E 0 9c 44 64
        E 0 9d 34 64
        E 0 8c 44 64
        E 0 8d 34 64
        E 0 9c 40 64
        E 0 9d 40 64
        E 0 8c 40 64
        E 0 8d 40 64
        E 0 9c 45 64
        E 0 9d 3c 64
        E 0 8d 3c 64
        E 0 9d 3b 64
        E 0 8d 3b 64
        E 0 9d 39 64
        E 0 8c 45 64
        E 0 8d 39 64
        E 0 9c 45 64
        E 0 9d 3e 64
        E 0 8c 45 64
        E 0 8d 3e 64
        E 0 9c 47 64
        E 0 9d 3b 64
        E 0 8c 47 64
        E 0 9c 42 64
        E 0 8c 42 64
        E 0 8d 3b 64
        E 0 9c 44 64
        E 1 9d 40 64
        E 0 8d 40 64
        E 0 9d 34 64
        E 0 8c 44 64
        E 0 8d 34 64
        E 0 9c 45 64
        E 0 9d 2d 64
        E 0 8c 45 64
        E 0 8d 2d 64
        E 0 90 48 64
        E 0 91 42 64
        E 0 92 39 64
        E 0 93 32 64
        E 0 97 4e 64
        E 0 9e 48 64
        E 0 98 45 64
        E 0 9d 32 64
        E 0 80 48 64
        E 0 81 42 64
        E 0 82 39 64
        E 0 83 32 64
        E 0 87 4e 64
        E 0 8e 48 64
        E 0 88 45 64
        E 0 8d 32 64
        E 0 90 48 64
        E 0 91 42 64
        E 0 92 39 64
        E 0 93 32 64
        E 0 97 4e 64
        E 0 9e 48 64
        E 0 98 45 64
        E 0 9d 32 64
        E 0 80 48 64
        E 0 81 42 64
        E 0 82 39 64
        E 0 83 32 64
        E 0 87 4e 64
        E 0 8e 48 64
        E 0 88 45 64
        E 0 8d 32 64
        E 0 90 48 64
        E 0 91 42 64
        E 0 92 39 64
        E 0 93 32 64
        E 0 97 4e 64
        E 0 9e 48 64
        E 0 98 45 64
        E 0 9d 32 64
        E 38406 80 48 64
        E 0 81 42 64
        E 0 82 39 64
        E 0 83 32 64
        E 0 87 4e 64
        E 0 8e 48 64
        E 0 88 45 64
        E 0 8d 32 64
        E 0 90 48 64
        E 1 91 42 64
        E 0 92 39 64
        E 0 93 32 64
        E 0 97 4e 64
        E 0 9e 48 64
        E 1 98 45 64
        E 0 9d 32 64
        E 0 80 48 64
        E 0 81 42 64
        E 0 82 39 64
        E 0 83 32 64
        E 0 87 4e 64
        E 0 8e 48 64
        E 0 88 45 64
        E 0 8d 32 64
        E 0 90 48 64
        E 0 91 3e 64
        E 0 92 39 64
        E 0 93 37 64
        E 0 97 4a 64
        E 0 9e 48 64
        E 0 98 45 64
        E 0 9d 37 64
        E 0 80 48 64
        E 0 81 3e 64
        E 0 82 39 64
        E 0 83 37 64
        E 0 87 4a 64
        E 0 8e 48 64
        E 0 88 45 64
        E 0 8d 37 64
        E 0 90 46 66
        E 0 91 3e 64
        E 0 92 37 64
        E 0 93 2b 64
        E 0 97 4a 64
        E 0 9e 46 66
        E 0 98 43 64
        E 0 9d 2b 64
        E 0 80 46 66
        E 0 81 3e 64
        E 0 82 37 64
        E 0 83 2b 64
        E 0 87 4a 64
        E 0 8e 46 66
        E 0 88 43 64
        E 0 8d 2b 64
        E 0 9c 43 64
        E 0 9d 2e 66
        E 1 8c 43 64
        E 0 8d 2e 66
        E 0 9c 46 66
        E 0 8c 46 66
        E 0 9c 45 64
        E 0 8c 45 64
        E 0 9c 43 64
        E 0 8c 43 64
        E 0 9c 41 64
        E 0 8c 41 64
        E 0 9c 40 64
        E 0 9d 3c 64
        E 0 8c 40 64
        E 0 8d 3c 64
        E 0 9c 3e 64
        E 0 9d 37 64
        E 0 8c 3e 64
        E 0 8d 37 64
        E 0 9c 3c 64
        E 0 9d 34 64
        E 0 8c 3c 64
        E 0 8d 34 64
        E 0 9c 46 66
        E 0 9d 32 64
        E 0 8d 32 64
        E 0 9d 30 64
        E 0 8c 46 66
        E 0 8d 30 64
        E 0 9c 45 64
        E 0 9d 35 64
        E 0 8c 45 64
        E 0 9c 43 64
        E 0 8c 43 64
        E 0 9c 45 64
        E 0 8c 45 64
        E 0 8d 35 64
        E 0 90 48 64
        E 0 91 41 64
        E 0 92 3c 64
        E 0 93 39 64
        E 1 97 4d 64
        E 0 9e 48 64
        E 0 98 45 64
        E 0 9d 39 64
        E 0 80 48 64
        E 0 81 41 64
        E 0 82 3c 64
        E 0 83 39 64
        E 0 87 4d 64
        E 0 8e 48 64
        E 0 88 45 64
        E 0 8d 39 64
        E 0 90 4b 66
        E 0 91 41 64
        E 0 92 3c 64
        E 0 93 39 64
        E 0 97 4d 64
        E 0 9e 4b 66
        E 0 98 48 64
        E 0 9d 39 64
        E 0 8d 39 64
        E 0 9d 35 64
        E 0 80 4b 66
        E 0 81 41 64
        E 0 82 3c 64
        E 0 83 39 64
        E 0 87 4d 64
        E 0 8e 4b 66
        E 0 88 48 64
        E 0 8d 35 64
        E 0 90 4b 66
        E 0 91 41 64
        E 0 92 3c 64
        E 1 93 39 64
        E 0 97 4d 64
        E 0 9e 4b 66
        E 0 98 48 64
        E 0 9d 30 64
        E 1 80 4b 66
        E 0 81 41 64
        E 0 82 3c 64
        E 0 83 39 64
        E 0 87 4d 64
        E 0 8e 4b 66
        E 0 88 48 64
        E 0 8d 30 64
        E 0 90 4b 66
        E 0 91 41 64
        E 0 92 3c 64
        E 0 93 39 64
        E 0 97 4d 64
        E 0 9e 4b 66
        E 0 98 48 64
        E 0 9d 2d 64
        E 0 80 4b 66
        E 0 81 41 64
        E 0 82 3c 64
        E 0 83 39 64
        E 0 87 4d 64
        E 0 8e 4b 66
        E 0 88 48 64
        E 0 8d 2d 64
        E 1 90 4a 64
        E 0 91 41 64
        E 0 92 3a 66
        E 1 93 3a 66
        E 0 97 4d 64
        E 0 9e 4a 64
        E 0 98 46 66
        E 0 9d 3a 66
        E 0 8d 3a 66
        E 0 9d 35 64
        E 0 80 4a 64
        E 0 81 41 64
        E 0 82 3a 66
        E 0 83 3a 66
        E 0 87 4d 64
        E 0 8e 4a 64
        E 0 88 46 66
        E 0 8d 35 64
        E 0 90 4a 64
        E 0 91 41 64
        E 0 92 3a 66
        E 0 93 2e 66
        E 0 97 4d 64
        E 0 9e 4a 64
        E 1 98 46 66
        E 0 9d 32 64
        E 0 8d 32 64
        E 0 9d 2e 66
        E 0 80 4a 64
        E 0 81 41 64
        E 0 82 3a 66
        E 0 83 2e 66
        E 0 87 4d 64
        E 0 8e 4a 64
        E 0 88 46 66
        E 0 8d 2e 66
        E 0 9c 41 64
        E 0 9d 2e 66
        E 0 8c 41 64
        E 0 8d 2e 66
        E 0 9c 44 66
        E 0 8c 44 66
        E 0 9c 43 64
        E 24232 8c 43 64
        E 3 9c 41 64
        E 0 8c 41 64
        E 0 9c 3f 66
        E 0 8c 3f 66
        E 0 9c 3e 64
        E 0 9d 3a 66
        E 0 8c 3e 64
        E 0 8d 3a 66
        E 1 9c 3c 64
        E 0 9d 35 64
        E 0 8c 3c 64
        E 0 8d 35 64
        E 0 9c 3a 66
        E 0 9d 32 64
        E 0 8c 3a 66
        E 0 8d 32 64
        E 0 9c 44 66
        E 0 9d 30 64
        E 0 8d 30 64
        E 0 9d 2e 66
        E 0 8c 44 66
        E 0 8d 2e 66
        E 0 9c 43 64
        E 0 9d 33 66
        E 0 8c 43 64
        E 0 9c 41 64
        E 0 8c 41 64
        E 0 8d 33 66
        E 0 9c 43 64
        E 0 8c 43 64
        E 0 90 46 66
        E 0 91 3f 66
        E 0 92 3a 66
        E 0 93 37 64
        E 0 97 4b 66
        E 0 9e 46 66
        E 0 98 43 64
        E 0 9d 37 64
        E 0 80 46 66
        E 0 81 3f 66
        E 0 82 3a 66
        E 0 83 37 64
        E 0 87 4b 66
        E 0 8e 46 66
        E 0 88 43 64
        E 0 8d 37 64
        E 0 90 49 66
        E 0 91 3f 66
        E 0 92 3a 66
        E 0 93 37 64
        E 0 97 4b 66
        E 0 9e 49 66
        E 0 98 46 66
        E 0 9d 37 64
        E 0 8d 37 64
        E 0 9d 33 66
        E 0 80 49 66
        E 0 81 3f 66
        E 0 82 3a 66
        E 0 83 37 64
        E 0 87 4b 66
        E 0 8e 49 66
        E 0 88 46 66
        E 0 8d 33 66
        E 0 90 49 66
        E 1 91 3f 66
        E 0 92 3a 66
        E 0 93 37 64
        E 0 97 4b 66
        E 0 9e 49 66
        E 0 98 46 66
        E 0 9d 2e 66
        E 0 80 49 66
        E 0 81 3f 66
        E 0 82 3a 66
        E 0 83 37 64
        E 0 87 4b 66
        E 0 8e 49 66
        E 0 88 46 66
        E 0 8d 2e 66
        E 0 90 49 66
        E 0 91 3f 66
        E 0 92 3a 66
        E 0 93 37 64
        E 0 97 4b 66
        E 0 9e 49 66
        E 0 98 46 66
        E 0 9d 2b 64
        E 0 80 49 66
        E 0 81 3f 66
        E 0 82 3a 66
        E 0 83 37 64
        E 0 87 4b 66
        E 0 8e 49 66
        E 0 88 46 66
        E 0 8d 2b 64
        E 0 90 48 64
        E 0 91 3f 66
        E 0 92 38 66
        E 0 93 38 66
        E 0 97 4b 66
        E 0 9e 48 64
        E 0 98 44 66
        E 0 9d 38 66
        E 0 8d 38 66
        E 0 9d 33 66
        E 0 80 48 64
        E 0 81 3f 66
        E 0 82 38 66
        E 0 83 38 66
        E 0 87 4b 66
        E 0 8e 48 64
        E 0 88 44 66
        E 0 8d 33 66
        E 0 90 48 64
        E 0 91 3f 66
        E 0 92 38 66
        E 0 93 2c 66
        E 0 97 4b 66
        E 0 9e 48 64
        E 0 98 44 66
        E 0 9d 30 64
        E 0 8d 30 64
        E 0 9d 2c 66
        E 0 80 48 64
        E 0 81 3f 66
        E 0 82 38 66
        E 0 83 2c 66
        E 0 87 4b 66
        E 0 8e 48 64
        E 0 88 44 66
        E 0 8d 2c 66
        E 0 9c 41 64
        E 0 9d 35 64
        E 3845 8c 41 64
        E 0 8d 35 64
        E 0 9c 44 66
        E 0 8c 44 66
        E 0 9c 43 64
        E 0 8c 43 64
        E 0 9c 41 64
        E 1131 8c 41 64
        E 1 9c 3f 66
        E 0 8c 3f 66
        E 0 9c 3e 64
        E 0 9d 3a 66
        E 38401 8d 3a 66
        E 0 9d 35 64
        E 0 8c 3e 64
        E 0 8d 35 64
        E 0 9c 3e 64
        E 0 9d 32 64
        E 0 8d 32 64
        E 0 9d 30 64
        E 0 8d 30 64
        E 0 9d 2f 64
        E 0 8c 3e 64
        E 0 8d 2f 64
        E 0 9c 43 64
        E 0 9d 2f 64
        E 0 8c 43 64
        E 0 8d 2f 64
        E 0 9c 47 64
        E 0 8c 47 64
        E 0 9c 45 64
        E 0 8c 45 64
        E 1 9c 43 64
        E 0 8c 43 64
        E 0 9c 41 64
        E 0 8c 41 64
        E 0 9c 41 64
        E 0 9d 3c 64
        E 0 8d 3c 64
        E 0 9d 37 64
        E 0 8c 41 64
        E 0 8d 37 64
        E 0 9c 3f 66
        E 0 9d 33 66
        E 0 8d 33 66
        E 0 9d 32 64
        E 0 8d 32 64
        E 0 9d 30 64
        E 0 8c 3f 66
        E 0 8d 30 64
        E 0 9c 44 66
        E 0 9d 3c 64
        E 0 8d 3c 64
        E 0 9d 33 66
        E 0 8d 33 66
        E 0 9d 30 64
        E 0 8c 44 66
        E 0 8d 30 64
        E 0 9c 43 64
        E 0 9d 32 64
        E 0 8d 32 64
        E 0 9d 33 66
        E 0 8c 43 64
        E 0 8d 33 66
        E 0 9c 42 64
        E 0 9d 32 64
        E 0 8c 42 64
        E 0 8d 32 64
        E 0 9c 3e 64
        E 0 9d 3e 64
        E 0 8c 3e 64
        E 0 8d 3e 64
        E 0 9c 43 64
        E 0 9d 3a 66
        E 0 8d 3a 66
        E 1 9d 39 64
        E 0 8d 39 64
        E 0 9d 37 64
        E 0 8c 43 64
        E 0 8d 37 64
        E 0 9c 43 64
        E 0 9d 3c 64
        E 0 8c 43 64
        E 0 8d 3c 64
        E 0 9c 45 64
        E 0 9d 39 64
        E 0 8c 45 64
        E 0 9c 40 64
        E 0 8c 40 64
        E 0 8d 39 64
        E 0 9c 42 64
        E 0 9d 3e 64
        E 0 8d 3e 64
        E 0 9d 32 64
        E 0 8c 42 64
        E 0 8d 32 64
        E 0 9c 43 64
        E 0 9d 37 64
        E 0 8d 37 64
        E 0 9d 32 64
        E 0 8c 43 64
        E 0 8d 32 64
        E 0 9d 2e 66
        E 0 8d 2e 66
        E 0 90 46 66
        E 0 91 43 64
        E 0 92 3e 64
        E 0 93 37 64
        E 0 97 4f 64
        E 0 9e 46 66
        E 0 98 3e 64
        E 0 9d 2b 64
        E 0 80 46 66
        E 0 81 43 64
        E 0 82 3e 64
        E 0 83 37 64
        E 0 87 4f 64
        E 0 8e 46 66
        E 0 88 3e 64
        E 0 8d 2b 64
        E 0 90 46 66
        E 0 91 43 64
        E 0 92 3e 64
        E 0 93 37 64
        E 0 97 4f 64
        E 0 9e 46 66
        E 0 98 3e 64
        E 1 9d 37 64
        E 38402 8d 37 64
        E 0 9d 32 64
        E 0 80 46 66
        E 1 81 43 64
        E 0 82 3e 64
        E 0 83 37 64
        E 0 87 4f 64
        E 0 8e 46 66
        E 0 88 3e 64
        E 0 8d 32 64
        E 0 90 46 66
        E 0 91 43 64
        E 0 92 3e 64
        E 0 93 37 64
        E 0 97 4f 64
        E 0 9e 46 66
        E 0 98 3e 64
        E 0 9d 2e 66
        E 0 80 46 66
        E 0 81 43 64
        E 0 82 3e 64
        E 0 83 37 64
        E 0 87 4f 64
        E 0 8e 46 66
        E 1 88 3e 64
        E 0 8d 2e 66
        E 0 90 46 66
        E 0 91 43 64
        E 0 92 3e 64
        E 0 93 37 64
        E 0 97 4f 64
        E 0 9e 46 66
        E 0 98 3e 64
        E 0 9d 2b 64
        E 0 80 46 66
        E 0 81 43 64
        E 0 82 3e 64
        E 0 83 37 64
        E 0 87 4f 64
        E 0 8e 46 66
        E 0 88 3e 64
        E 0 8d 2b 64
        E 0 90 46 66
        E 0 91 43 64
        E 0 92 40 64
        E 0 93 30 64
        E 0 97 4f 64
        E 0 9e 46 66
        E 0 98 40 64
        E 0 9d 30 64
        E 0 8d 30 64
        E 0 9d 2b 64
        E 0 80 46 66
        E 0 81 43 64
        E 0 82 40 64
        E 0 83 30 64
        E 0 87 4f 64
        E 0 8e 46 66
        E 0 88 40 64
        E 0 8d 2b 64
        E 0 90 46 66
        E 1 91 43 64
        E 0 92 40 64
        E 0 93 30 64
        E 0 97 4f 64
        E 0 9e 46 66
        E 0 98 40 64
        E 1 9d 28 64
        E 0 8d 28 64
        E 0 9d 24 64
        E 0 80 46 66
        E 0 81 43 64
        E 0 82 40 64
        E 0 83 30 64
        E 0 87 4f 64
        E 0 8e 46 66
        E 0 88 40 64
        E 0 8d 24 64
        E 0 90 45 64
        E 0 91 41 64
        E 0 92 3c 64
        E 0 93 35 64
        E 0 97 4d 64
        E 0 9e 45 64
        E 1 98 3c 64
        E 0 9d 35 64
        E 0 8d 35 64
        E 0 9d 30 64
        E 0 80 45 64
        E 0 81 41 64
        E 0 82 3c 64
        E 0 83 35 64
        E 0 87 4d 64
        E 0 8e 45 64
        E 0 88 3c 64
        E 0 8d 30 64
        E 1 90 45 64
        E 0 91 41 64
        E 0 92 3c 64
        E 0 93 35 64
        E 0 97 4d 64
        E 0 9e 45 64
        E 0 98 3c 64
        E 0 9d 2d 64
        E 0 8d 2d 64
        E 0 9d 29 64
        E 0 80 45 64
        E 0 81 41 64
        E 0 82 3c 64
        E 0 83 35 64
        E 0 87 4d 64
        E 0 8e 45 64
        E 0 88 3c 64
        E 0 8d 29 64
        E 0 9c 41 64
        E 0 9d 32 64
        E 0 8c 41 64
        E 0 9c 43 64
        E 0 8c 43 64
        E 0 8d 32 64
        E 0 9c 45 64
        E 0 8c 45 64
        E 0 9c 41 64
        E 0 8c 41 64
        E 0 9c 3e 64
        E 0 9d 3e 64
        E 0 8d 3e 64
        E 0 9d 39 64
        E 0 8c 3e 64
        E 0 8d 39 64
        E 0 9c 3e 64
        E 0 9d 35 64
        E 0 8d 35 64
        E 1 9d 32 64
        E 0 8c 3e 64
        E 0 8d 32 64
        E 0 90 4a 64
        E 0 91 43 64
        E 0 92 3e 64
        E 0 93 3a 66
        E 0 97 4f 64
        E 0 9e 4a 64
        E 0 98 3e 64
        E 0 9d 3a 66
        E 0 8d 3a 66
        E 1 9d 37 64
        E 0 80 4a 64
        E 0 81 43 64
        E 0 82 3e 64
        E 0 83 3a 66
        E 0 87 4f 64
        E 0 8e 4a 64
        E 0 88 3e 64
        E 0 8d 37 64
        E 0 90 4a 64
        E 0 91 43 64
        E 1 92 3e 64
        E 0 93 3a 66
        E 0 97 4f 64
        E 0 9e 4a 64
        E 0 98 3e 64
        E 0 9d 32 64
        E 0 8d 32 64
        E 0 9d 2e 66
        E 0 80 4a 64
        E 0 81 43 64
        E 0 82 3e 64
        E 0 83 3a 66
        E 0 87 4f 64
        E 0 8e 4a 64
        E 0 88 3e 64
        E 0 8d 2e 66
        E 0 90 4c 64
        E 0 91 43 64
        E 0 92 3d 64
        E 0 93 39 64
        E 0 97 4f 64
        E 1 9e 4c 64
        E 0 98 49 64
        E 0 9d 39 64
        E 0 8d 39 64
        E 0 9d 34 64
        E 0 80 4c 64
        E 0 81 43 64
        E 0 82 3d 64
        E 0 83 39 64
        E 0 87 4f 64
        E 0 8e 4c 64
        E 0 88 49 64
        E 0 8d 34 64
        E 0 90 4c 64
        E 0 91 43 64
        E 0 92 3d 64
        E 0 93 39 64
        E 0 97 4f 64
        E 1 9e 4c 64
        E 0 98 49 64
        E 1 9d 31 64
        E 0 8d 31 64
        E 0 9d 2d 64
        E 0 80 4c 64
        E 0 81 43 64
        E 0 82 3d 64
        E 0 83 39 64
        E 0 87 4f 64
        E 0 8e 4c 64
        E 0 88 49 64
        E 0 8d 2d 64
        E 0 9c 43 64
        E 0 9d 2d 64
        E 38402 8c 43 64
        E 0 8d 2d 64
        E 0 9c 45 64
        E 0 8c 45 64
        E 0 9c 46 66
        E 0 8c 46 66
        E 1 9c 3d 64
        E 0 9d 39 64
        E 0 8d 39 64
        E 0 9d 34 64
        E 0 8c 3d 64
        E 0 8d 34 64
        E 0 9c 3d 64
        E 0 9d 31 64
        E 0 8d 31 64
        E 0 9d 2d 64
        E 0 8c 3d 64
        E 0 8d 2d 64
        E 0 90 4c 64
        E 0 91 43 64
        E 0 92 3d 64
        E 0 93 39 64
        E 0 97 4f 64
        E 0 9e 4c 64
        E 0 98 49 64
        E 0 9d 39 64
        E 0 8d 39 64
        E 0 9d 34 64
        E 0 80 4c 64
        E 0 81 43 64
        E 0 82 3d 64
        E 0 83 39 64
        E 0 87 4f 64
        E 0 8e 4c 64
        E 0 88 49 64
        E 0 8d 34 64
        E 0 90 4c 64
        E 0 91 43 64
        E 0 92 3d 64
        E 0 93 39 64
        E 0 97 4f 64
        E 0 9e 4c 64
        E 0 98 49 64
        E 0 9d 31 64
        E 0 80 4c 64
        E 0 81 43 64
        E 0 82 3d 64
        E 0 83 39 64
        E 0 87 4f 64
        E 0 8e 4c 64
        E 0 88 49 64
        E 0 8d 31 64
        E 0 90 4c 64
        E 0 91 43 64
        E 0 92 3d 64
        E 0 93 39 64
        E 0 97 4f 64
        E 0 9e 4c 64
        E 1 98 49 64
        E 0 9d 2d 64
        E 0 80 4c 64
        E 0 81 43 64
        E 0 82 3d 64
        E 0 83 39 64
        E 0 87 4f 64
        E 0 8e 4c 64
        E 0 88 49 64
        E 0 8d 2d 64
        E 0 90 4a 64
        E 0 91 41 64
        E 0 92 39 64
        E 0 93 32 64
        E 0 97 4d 64
        E 0 9e 4a 64
        E 0 98 45 64
        E 0 9d 32 64
        E 0 8d 32 64
        E 0 9d 2d 64
        E 0 80 4a 64
        E 0 81 41 64
        E 0 82 39 64
        E 0 83 32 64
        E 0 87 4d 64
        E 0 8e 4a 64
        E 0 88 45 64
        E 0 8d 2d 64
        E 0 90 4a 64
        E 0 91 41 64
        E 0 92 39 64
        E 0 93 32 64
        E 0 97 4d 64
        E 0 9e 4a 64
        E 0 98 45 64
        E 0 9d 29 64
        E 0 8d 29 64
        E 0 9d 26 64
        E 0 80 4a 64
        E 0 81 41 64
        E 0 82 39 64
        E 0 83 32 64
        E 0 87 4d 64
        E 0 8e 4a 64
        E 0 88 45 64
        E 0 8d 26 64
        E 0 9c 41 64
        E 0 9d 32 64
        E 0 8c 41 64
        E 0 9c 45 64
        E 0 8c 45 64
        E 0 8d 32 64
        E 0 9c 43 64
        E 0 8c 43 64
        E 0 9c 41 64
        E 0 9d 32 64
        E 0 8c 41 64
        E 1 8d 32 64
        E 0 9c 46 66
        E 0 9d 37 64
        E 0 8c 46 66
        E 0 8d 37 64
        E 0 9c 3d 64
        E 0 9d 39 64
        E 0 8c 3d 64
        E 0 8d 39 64
        E 0 9c 3e 64
        E 0 9d 35 64
        E 0 8c 3e 64
        E 0 8d 35 64
        E 0 9c 43 64
        E 0 9d 31 64
        E 0 8c 43 64
        E 0 8d 31 64
        E 0 9c 41 64
        E 0 9d 32 64
        E 0 8d 32 64
        E 0 9d 37 64
        E 0 8c 41 64
        E 0 8d 37 64
        E 0 9c 40 64
        E 0 9d 39 64
        E 0 8d 39 64
        E 0 9d 2d 64
        E 0 8c 40 64
        E 0 8d 2d 64
        E 0 9c 3e 64
        E 0 9d 3e 64
        E 4715 8d 3e 64
        E 0 9d 39 64
        E 0 8d 39 64
        E 0 9d 35 64
        E 0 8d 35 64
        E 0 9d 32 64
        E 38782 8c 3e 64
        E 0 8d 32 64
        E 1 90 45 64
        E 0 91 42 64
        E 0 92 39 64
        E 0 93 32 64
        E 0 97 4e 64
        E 0 9e 45 64
        E 0 98 45 64
        E 0 9d 32 64
        E 0 8d 32 64
        E 0 9d 2d 64
        E 0 80 45 64
        E 0 81 42 64
        E 0 82 39 64
        E 0 83 32 64
        E 0 87 4e 64
        E 0 8e 45 64
        E 0 88 45 64
        E 0 8d 2d 64
        E 0 90 45 64
        E 0 91 42 64
        E 0 92 39 64
        E 0 93 32 64
        E 0 97 4e 64
        E 0 9e 45 64
        E 0 98 45 64
        E 0 9d 2a 64
        E 0 8d 2a 64
        E 0 9d 26 64
        E 0 80 45 64
        E 0 81 42 64
        E 0 82 39 64
        E 0 83 32 64
        E 0 87 4e 64
        E 0 8e 45 64
        E 0 88 45 64
        E 0 8d 26 64
        E 0 90 47 64
        E 0 91 40 64
        E 0 92 38 64
        E 0 93 32 64
        E 0 97 4c 64
        E 1 9e 47 64
        E 0 98 44 64
        E 0 9d 32 64
        E 0 8d 32 64
        E 0 9d 2f 64
        E 0 80 47 64
        E 0 81 40 64
        E 0 82 38 64
        E 0 83 32 64
        E 0 87 4c 64
        E 0 8e 47 64
        E 0 88 44 64
        E 0 8d 2f 64
        E 0 90 47 64
        E 0 91 40 64
        E 0 92 38 64
        E 0 93 32 64
        E 0 97 4c 64
        E 0 9e 47 64
        E 0 98 44 64
        E 0 9d 2c 64
        E 0 8d 2c 64
        E 0 9d 28 64
        E 0 80 47 64
        E 0 81 40 64
        E 0 82 38 64
        E 0 83 32 64
        E 0 87 4c 64
        E 0 8e 47 64
        E 0 88 44 64
        E 0 8d 28 64
        E 0 90 47 64
        E 0 91 40 64
        E 0 92 38 64
        E 0 93 32 64
        E 0 97 4c 64
        E 0 9e 47 64
        E 0 98 44 64
        E 0 9d 32 64
        E 0 8d 32 64
        E 0 9d 2f 64
        E 0 80 47 64
        E 0 81 40 64
        E 0 82 38 64
        E 0 83 32 64
        E 0 87 4c 64
        E 0 8e 47 64
        E 0 88 44 64
        E 0 8d 2f 64
        E 0 90 47 64
        E 1 91 40 64
        E 0 92 38 64
        E 0 93 32 64
        E 0 97 4c 64
        E 0 9e 47 64
        E 0 98 44 64
        E 0 9d 2c 64
        E 0 8d 2c 64
        E 0 9d 28 64
        E 0 80 47 64
        E 0 81 40 64
        E 0 82 38 64
        E 0 83 32 64
        E 0 87 4c 64
        E 0 8e 47 64
        E 0 88 44 64
        E 0 8d 28 64
        E 0 90 49 64
        E 0 91 40 64
        E 0 92 39 64
        E 0 93 31 64
        E 0 97 4c 64
        E 0 9e 49 64
        E 0 98 45 64
        E 0 9d 31 64
        E 0 8d 31 64
        E 0 9d 2d 64
        E 0 80 49 64
        E 0 81 40 64
        E 0 82 39 64
        E 0 83 31 64
        E 0 87 4c 64
        E 0 8e 49 64
        E 0 88 45 64
        E 0 8d 2d 64
        E 0 90 49 64
        E 0 91 40 64
        E 0 92 39 64
        E 0 93 31 64
        E 0 97 4c 64
        E 0 9e 49 64
        E 0 98 45 64
        E 0 9d 28 64
        E 0 8d 28 64
        E 0 9d 25 64
        E 0 80 49 64
        E 0 81 40 64
        E 0 82 39 64
        E 0 83 31 64
        E 0 87 4c 64
        E 0 8e 49 64
        E 0 88 45 64
        E 0 8d 25 64
        E 0 9c 41 64
        E 0 9d 32 64
        E 0 8c 41 64
        E 0 9c 45 64
        E 0 8c 45 64
        E 0 8d 32 64
        E 0 9c 43 64
        E 0 8c 43 64
        E 0 9c 41 64
        E 0 9d 32 64
        E 0 8c 41 64
        E 0 8d 32 64
        E 1 9c 46 66
        E 0 9d 37 64
        E 0 8c 46 66
        E 0 8d 37 64
        E 0 9c 3d 64
        E 0 9d 39 64
        E 0 8c 3d 64
        E 0 8d 39 64
        E 0 9c 3e 64
        E 0 9d 35 64
        E 0 8c 3e 64
        E 0 8d 35 64
        E 0 9c 43 64
        E 0 9d 31 64
        E 0 8c 43 64
        E 0 8d 31 64
        E 0 9c 41 64
        E 0 9d 32 64
        E 0 8d 32 64
        E 0 9d 37 64
        E 0 8c 41 64
        E 0 8d 37 64
        E 0 9c 40 64
        E 0 9d 39 64
        E 0 8d 39 64
        E 1 9d 2d 64
        E 20184 8c 40 64
        E 0 8d 2d 64
        E 1 9c 3e 64
        E 0 9d 3e 64
        E 0 8d 3e 64
        E 0 9d 39 64
        E 0 8d 39 64
        E 0 9d 35 64
        E 0 8d 35 64
        E 0 9d 32 64
        E 0 8c 3e 64
        E 0 8d 32 64
        E 0 90 4a 64
        E 0 91 41 64
        E 0 92 3b 64
        E 0 93 38 64
        E 0 97 4d 64
        E 0 9e 4a 64
        E 4 98 47 64
        E 0 9d 38 64
        E 0 80 4a 64
        E 0 81 41 64
        E 0 82 3b 64
        E 0 83 38 64
        E 0 87 4d 64
        E 0 8e 4a 64
        E 0 88 47 64
        E 0 8d 38 64
        E 0 90 4a 64
        E 0 91 41 64
        E 1 92 3b 64
        E 0 93 38 64
        E 0 97 4d 64
        E 0 9e 4a 64
        E 0 98 47 64
        E 0 9d 38 64
        E 0 80 4a 64
        E 0 81 41 64
        E 0 82 3b 64
        E 0 83 38 64
        E 0 87 4d 64
        E 0 8e 4a 64
        E 0 88 47 64
        E 0 8d 38 64
        E 0 90 4a 64
        E 0 91 41 64
        E 0 92 3b 64
        E 0 93 38 64
        E 0 97 4d 64
        E 1 9e 4a 64
        E 0 98 47 64
        E 1 9d 38 64
        E 0 80 4a 64
        E 0 81 41 64
        E 0 82 3b 64
        E 0 83 38 64
        E 0 87 4d 64
        E 0 8e 4a 64
        E 0 88 47 64
        E 0 8d 38 64
        E 0 90 4a 64
        E 0 91 41 64
        E 0 92 3b 64
        E 0 93 38 64
        E 0 97 4d 64
        E 0 9e 4a 64
        E 0 98 47 64
        E 0 9d 38 64
        E 0 80 4a 64
        E 0 81 41 64
        E 0 82 3b 64
        E 0 83 38 64
        E 0 87 4d 64
        E 0 8e 4a 64
        E 0 88 47 64
        E 0 8d 38 64
        E 0 90 4a 64
        E 0 91 40 64
        E 0 92 39 64
        E 0 93 39 64
        E 0 97 4c 64
        E 1 9e 4a 64
        E 0 98 45 64
        E 0 9d 39 64
        E 0 80 4a 64
        E 0 83 39 64
        E 0 8e 4a 64
        E 0 8d 39 64
        E 0 90 49 64
        E 0 93 2d 64
        E 0 9e 49 64
        E 0 9d 2d 64
        E 0 80 49 64
        E 0 81 40 64
        E 0 82 39 64
        E 0 83 2d 64
        E 0 87 4c 64
        E 0 8e 49 64
        E 0 88 45 64
        E 0 8d 2d 64
        E 0 90 4a 64
        E 0 91 41 64
        E 0 92 39 64
        E 0 93 32 64
        E 0 97 4d 64
        E 0 9e 4a 64
        E 0 98 45 64
        E 0 9d 3e 64
        E 0 8d 3e 64
        E 0 9d 39 64
        E 0 8d 39 64
        E 0 9d 35 64
        E 25350 8d 35 64
        E 0 9d 34 64
        E 0 8d 34 64
        E 1 9d 32 64
        E 0 80 4a 64
        E 0 81 41 64
        E 0 82 39 64
        E 0 83 32 64
        E 0 87 4d 64
        E 0 8e 4a 64
        E 0 88 45 64
        E 0 8d 32 64
        E 0 9d 31 64
        E 0 8d 31 64
        E 0 9d 2f 64
        E 0 8d 2f 64
        E 0 9d 2d 64
        E 0 8d 2d 64
        E 0 9d 39 64
        E 0 8d 39 64
        E 0 9d 3a 66
        E 0 8d 3a 66
        E 0 9d 3e 64
        E 0 8d 3e 64
        E 0 9d 34 64
        E 0 8d 34 64
        E 0 9d 3c 64
        E 0 8d 3c 64
        E 0 9d 39 64
        E 0 8d 39 64
        E 0 9d 3c 64
        E 0 8d 3c 64
        E 0 9d 32 64
        E 0 8d 32 64
        E 0 9d 3a 66
        E 0 8d 3a 66
        E 0 9d 37 64
        E 0 8d 37 64
        E 0 9d 3a 66
        E 0 8d 3a 66
        E 0 9d 31 64
        E 0 8d 31 64
        E 0 9d 39 64
        E 0 8d 39 64
        E 3 9d 35 64
        E 0 8d 35 64
        E 0 9d 3e 64
        E 38412 8d 3e 64
        E 0 9d 36 64
        E 0 8d 36 64
        E 0 9d 37 64
        E 0 8d 37 64
        E 0 9d 40 64
        E 0 8d 40 64
        E 0 9d 38 64
        E 0 8d 38 64
        E 0 9d 39 64
        E 0 8d 39 64
        E 0 9d 37 64
        E 0 8d 37 64
        E 0 9d 35 64
        E 0 8d 35 64
        E 0 9d 34 64
        E 0 8d 34 64
        E 0 9d 32 64
        E 0 8d 32 64
        E 1 9d 30 64
        E 0 8d 30 64
        E 0 9d 2e 66
        E 0 8d 2e 66
        E 0 9d 2d 64
        E 0 8d 2d 64
        E 0 9d 2b 64
        E 0 8d 2b 64
        E 0 9d 29 64
        E 0 8d 29 64
        E 0 9d 28 64
        E 0 8d 28 64
        E 0 9d 26 64
        E 0 8d 26 64
        E 0 9d 2d 64
        E 0 8d 2d 64
        E 0 9d 2d 64
        E 0 8d 2d 64
        E 0 9d 26 64
        E 0 8d 26 64
        E 22107 90 48 64
        E 0 91 40 64
        E 0 92 39 64
        E 0 93 39 64
        E 0 97 4c 64
        E 0 9e 48 64
        E 0 98 45 64
        E 0 9d 39 64
        E 0 80 48 64
        E 0 81 40 64
        E 0 82 39 64
        E 0 83 39 64
        E 0 87 4c 64
        E 0 8e 48 64
        E 0 88 45 64
        E 0 8d 39 64
        E 0 90 48 64
        E 0 91 42 64
        E 0 92 39 64
        E 0 93 33 64
        E 0 97 4e 64
        E 0 9e 48 64
        E 0 98 45 64
        E 0 9d 33 64
        E 0 80 48 64
        E 0 81 42 64
        E 0 82 39 64
        E 0 83 33 64
        E 0 87 4e 64
        E 0 8e 48 64
        E 0 88 45 64
        E 0 8d 33 64
        E 0 90 48 64
        E 0 91 42 64
        E 0 92 39 64
        E 0 93 33 64
        E 0 97 4e 64
        E 1 9e 48 64
        E 0 98 45 64
        E 0 9d 33 64
        E 0 80 48 64
        E 0 81 42 64
        E 0 82 39 64
        E 0 83 33 64
        E 0 87 4e 64
        E 0 8e 48 64
        E 0 88 45 64
        E 0 8d 33 64
        E 0 90 48 64
        E 0 91 42 64
        E 0 92 39 64
        E 0 93 33 64
        E 0 97 4e 64
        E 0 9e 48 64
        E 0 98 39 64
        E 0 9d 33 64
        E 0 80 48 64
        E 0 81 42 64
        E 0 82 39 64
        E 0 83 33 64
        E 0 87 4e 64
        E 0 8e 48 64
        E 0 88 39 64
        E 0 8d 33 64
        E 0 90 46 66
        E 0 91 43 64
        E 0 92 3a 66
        E 0 93 33 64
        E 0 97 4f 64
        E 0 9e 46 66
        E 0 98 3a 66
        E 0 9d 33 64
        E 0 80 46 66
        E 0 81 43 64
        E 0 82 3a 66
        E 0 83 33 64
        E 0 87 4f 64
        E 0 8e 46 66
        E 0 88 3a 66
        E 0 8d 33 64
        E 0 90 45 64
        E 0 91 42 64
        E 0 92 3c 64
        E 0 93 33 64
        E 0 97 4e 64
        E 0 9e 45 64
        E 0 98 3c 64
        E 0 9d 33 64
        E 0 80 45 64
        E 0 81 42 64
        E 0 82 3c 64
        E 0 83 33 64
        E 0 87 4e 64
        E 0 8e 45 64
        E 0 88 3c 64
        E 0 8d 33 64
        E 0 90 44 64
        E 1 91 40 64
        E 0 92 3b 64
        E 0 93 32 64
        E 0 97 4c 64
        E 0 9e 44 64
        E 0 98 3b 64
        E 0 9d 32 64
        E 39521 80 44 64
        E 0 81 40 64
        E 0 82 3b 64
        E 0 83 32 64
        E 0 87 4c 64
        E 1 8e 44 64
        E 0 88 3b 64
        E 0 8d 32 64
        E 0 90 44 64
        E 0 91 40 64
        E 0 92 3b 64
        E 0 93 32 64
        E 1 97 4c 64
        E 0 9e 44 64
        E 0 98 3b 64
        E 0 9d 32 64
        E 0 80 44 64
        E 0 81 40 64
        E 0 82 3b 64
        E 0 83 32 64
        E 0 87 4c 64
        E 0 8e 44 64
        E 0 88 3b 64
        E 0 8d 32 64
        E 0 90 4a 64
        E 0 80 4a 64
        E 0 90 48 64
        E 0 80 48 64
        E 0 90 47 64
        E 0 80 47 64
        E 1 90 46 64
        E 0 91 42 64
        E 0 92 3d 64
        E 0 93 36 64
        E 0 97 4e 64
        E 0 9e 46 64
        E 0 98 3d 64
        E 0 9d 36 64
        E 0 80 46 64
        E 0 81 42 64
        E 0 82 3d 64
        E 0 83 36 64
        E 0 87 4e 64
        E 0 8e 46 64
        E 0 88 3d 64
        E 0 8d 36 64
        E 0 90 46 64
        E 0 91 42 64
        E 0 92 3d 64
        E 0 93 34 64
        E 0 97 4e 64
        E 0 9e 46 64
        E 0 98 3d 64
        E 1 9d 34 64
        E 0 81 42 64
        E 0 82 3d 64
        E 0 83 34 64
        E 0 87 4e 64
        E 0 8e 46 64
        E 0 88 3d 64
        E 0 8d 34 64
        E 0 91 42 64
        E 0 92 3d 64
        E 0 93 34 64
        E 0 97 4e 64
        E 0 9e 46 64
        E 0 98 3d 64
        E 0 9d 34 64
        E 0 80 46 64
        E 0 81 42 64
        E 0 82 3d 64
        E 0 83 34 64
        E 0 87 4e 64
        E 0 8e 46 64
        E 0 88 3d 64
        E 0 8d 34 64
        E 0 90 47 64
        E 0 91 42 64
        E 0 92 3b 64
        E 0 93 33 64
        E 0 97 4e 64
        E 0 9e 47 64
        E 0 98 3f 64
        E 0 9d 33 64
        E 0 80 47 64
        E 0 90 47 64
        E 0 80 47 64
        E 0 81 42 64
        E 0 82 3b 64
        E 0 83 33 64
        E 0 87 4e 64
        E 0 8e 47 64
        E 0 88 3f 64
        E 0 8d 33 64
        E 0 90 47 64
        E 0 91 42 64
        E 0 92 3b 64
        E 0 93 33 64
        E 0 97 4e 64
        E 0 9e 47 64
        E 0 98 3f 64
        E 0 9d 33 64
        E 0 80 47 64
        E 0 81 42 64
        E 0 82 3b 64
        E 0 83 33 64
        E 0 87 4e 64
        E 0 8e 47 64
        E 0 88 3f 64
        E 0 8d 33 64
        E 0 90 47 64
        E 0 91 43 64
        E 0 92 3b 64
        E 0 93 34 64
        E 0 97 4f 64
        E 1 9e 47 64
        E 0 98 47 64
        E 0 9d 34 64
        E 0 80 47 64
        E 0 81 43 64
        E 0 82 3b 64
        E 0 83 34 64
        E 0 87 4f 64
        E 0 8e 47 64
        E 0 88 47 64
        E 0 8d 34 64
        E 0 90 47 64
        E 0 91 43 64
        E 0 92 3b 64
        E 0 93 34 64
        E 0 97 4f 64
        E 0 9e 47 64
        E 0 98 47 64
        E 0 9d 34 64
        E 0 80 47 64
        E 0 81 43 64
        E 0 82 3b 64
        E 0 83 34 64
        E 0 87 4f 64
        E 0 8e 47 64
        E 0 88 47 64
        E 0 8d 34 64
        E 0 90 47 64
        E 0 91 43 64
        E 0 92 3b 64
        E 0 93 34 64
        E 0 97 4f 64
        E 0 9e 47 64
        E 0 98 47 64
        E 0 9d 34 64
        E 0 80 47 64
        E 0 81 43 64
        E 0 82 3b 64
        E 0 83 34 64
        E 0 87 4f 64
        E 0 8e 47 64
        E 0 88 47 64
        E 0 8d 34 64
        E 0 90 48 64
        E 0 91 40 64
        E 0 92 39 64
        E 0 93 39 64
        E 0 97 4c 64
        E 0 9e 48 64
        E 1 98 45 64
        E 0 9d 39 64
        E 0 80 48 64
        E 0 81 40 64
        E 0 82 39 64
        E 0 83 39 64
        E 0 87 4c 64
        E 0 8e 48 64
        E 0 88 45 64
        E 0 8d 39 64
        E 0 90 48 64
        E 0 91 40 64
        E 0 92 39 64
        E 0 93 39 64
        E 0 97 4c 64
        E 0 9e 48 64
        E 0 98 45 64
        E 0 9d 39 64
        E 38402 80 48 64
        E 0 81 40 64
        E 0 82 39 64
        E 0 83 39 64
        E 0 87 4c 64
        E 0 8e 48 64
        E 0 88 45 64
        E 0 8d 39 64
        E 1 90 48 64
        E 0 91 40 64
        E 0 92 39 64
        E 0 93 39 64
        E 0 97 4c 64
        E 0 9e 48 64
        E 0 98 45 64
        E 0 9d 39 64
        E 0 80 48 64
        E 0 81 40 64
        E 0 82 39 64
        E 0 83 39 64
        E 0 87 4c 64
        E 0 8e 48 64
        E 0 88 45 64
        E 0 8d 39 64
        E 0 90 49 64
        E 0 91 40 64
        E 0 92 39 64
        E 0 93 37 64
        E 0 97 4c 64
        E 0 9e 49 64
        E 0 98 45 64
        E 0 9d 37 64
        E 0 80 49 64
        E 0 81 40 64
        E 0 82 39 64
        E 0 83 37 64
        E 0 87 4c 64
        E 0 8e 49 64
        E 0 88 45 64
        E 0 8d 37 64
        E 0 90 49 64
        E 0 91 40 64
        E 0 92 39 64
        E 0 93 37 64
        E 0 97 4c 64
        E 0 9e 49 64
        E 0 98 45 64
        E 0 9d 37 64
        E 0 80 49 64
        E 0 81 40 64
        E 0 82 39 64
        E 0 83 37 64
        E 0 87 4c 64
        E 0 8e 49 64
        E 0 88 45 64
        E 0 8d 37 64
        E 0 90 49 64
        E 0 91 40 64
        E 0 92 39 64
        E 0 93 37 64
        E 0 97 4c 64
        E 0 9e 49 64
        E 0 98 45 64
        E 0 9d 37 64
        E 0 80 49 64
        E 0 81 40 64
        E 0 82 39 64
        E 0 83 37 64
        E 0 87 4c 64
        E 0 8e 49 64
        E 0 88 45 64
        E 0 8d 37 64
        E 0 90 49 64
        E 0 91 40 64
        E 0 92 39 64
        E 0 93 37 64
        E 0 97 4c 64
        E 0 9e 49 64
        E 0 98 45 64
        E 0 9d 37 64
        E 0 80 49 64
        E 0 81 40 64
        E 0 82 39 64
        E 0 83 37 64
        E 0 87 4c 64
        E 0 8e 49 64
        E 0 88 45 64
        E 0 8d 37 64
        E 0 90 4a 64
        E 1 91 42 64
        E 0 92 39 64
        E 0 93 36 64
        E 0 97 4e 64
        E 0 9e 4a 64
        E 0 98 45 64
        E 0 9d 36 64
        E 0 80 4a 64
        E 0 81 42 64
        E 0 82 39 64
        E 0 83 36 64
        E 0 87 4e 64
        E 0 8e 4a 64
        E 0 88 45 64
        E 0 8d 36 64
        E 0 90 4a 64
        E 1 91 42 64
        E 0 92 39 64
        E 0 93 36 64
        E 0 97 4e 64
        E 0 9e 4a 64
        E 0 98 45 64
        E 0 9d 36 64
        E 0 80 4a 64
        E 0 81 42 64
        E 0 82 39 64
        E 0 83 36 64
        E 0 87 4e 64
        E 0 8e 4a 64
        E 0 88 45 64
        E 0 8d 36 64
        E 0 90 4b 64
        E 0 91 42 64
        E 0 92 3b 64
        E 0 93 3b 64
        E 0 97 4e 64
        E 0 9e 4b 64
        E 0 98 47 64
        E 0 9d 3b 64
        E 0 80 4b 64
        E 0 81 42 64
        E 0 82 3b 64
        E 0 83 3b 64
        E 0 87 4e 64
        E 0 8e 4b 64
        E 0 88 47 64
        E 0 8d 3b 64
        E 0 90 4b 64
        E 0 91 42 64
        E 0 92 3b 64
        E 0 93 3b 64
        E 0 97 4e 64
        E 0 9e 4b 64
        E 0 98 47 64
        E 0 9d 3b 64
        E 0 80 4b 64
        E 0 81 42 64
        E 0 82 3b 64
        E 0 83 3b 64
        E 0 87 4e 64
        E 0 8e 4b 64
        E 0 88 47 64
        E 0 8d 3b 64
        E 0 90 4b 64
        E 0 91 42 64
        E 0 92 3b 64
        E 0 93 39 64
        E 0 97 4e 64
        E 0 9e 4b 64
        E 0 98 47 64
        E 0 9d 39 64
        E 0 80 4b 64
        E 0 81 42 64
        E 0 82 3b 64
        E 0 83 39 64
        E 0 87 4e 64
        E 0 8e 4b 64
        E 0 88 47 64
        E 0 8d 39 64
        E 0 90 4b 64
        E 0 91 42 64
        E 0 92 3b 64
        E 0 93 39 64
        E 0 97 4e 64
        E 0 9e 4b 64
        E 0 98 47 64
        E 0 9d 39 64
        E 0 80 4b 64
        E 0 81 42 64
        E 0 82 3b 64
        E 0 83 39 64
        E 0 87 4e 64
        E 0 8e 4b 64
        E 0 88 47 64
        E 0 8d 39 64
        E 0 90 4c 64
        E 0 91 43 64
        E 0 92 3b 64
        E 0 93 37 64
        E 0 97 4f 64
        E 0 9e 4c 64
        E 0 98 47 64
        E 0 9d 37 64
        E 0 80 4c 64
        E 1 81 43 64
        E 0 82 3b 64
        E 0 83 37 64
        E 0 87 4f 64
        E 0 8e 4c 64
        E 0 88 47 64
        E 0 8d 37 64
        E 0 90 4c 64
        E 0 91 43 64
        E 0 92 3d 64
        E 0 93 2e 64
        E 0 97 4f 64
        E 0 9e 4c 64
        E 0 98 49 64
        E 0 9d 2e 64
        E 35641 80 4c 64
        E 0 81 43 64
        E 0 82 3d 64
        E 0 83 2e 64
        E 1 87 4f 64
        E 0 8e 4c 64
        E 0 88 49 64
        E 0 8d 2e 64
        E 0 90 4c 64
        E 0 91 43 64
        E 0 92 3b 64
        E 0 93 2f 64
        E 2 97 4f 64
        E 0 9e 4c 64
        E 0 98 47 64
        E 0 9d 2f 64
        E 0 81 43 64
        E 0 87 4f 64
        E 0 91 42 64
        E 0 97 4e 64
        E 0 80 4c 64
        E 0 8e 4c 64
        E 1 90 4b 64
        E 0 9e 4b 64
        E 0 80 4b 64
        E 0 81 42 64
        E 0 82 3b 64
        E 0 83 2f 64
        E 0 87 4e 64
        E 0 8e 4b 64
        E 0 88 47 64
        E 0 8d 2f 64
        E 0 90 4c 64
        E 0 91 43 64
        E 0 92 3b 64
        E 0 93 34 64
        E 0 97 4f 64
        E 0 9e 4c 64
        E 0 98 47 64
        E 0 9d 34 64
        E 0 80 4c 64
        E 0 81 43 64
        E 0 82 3b 64
        E 0 83 34 64
        E 0 87 4f 64
        E 0 8e 4c 64
        E 0 88 47 64
        E 0 8d 34 64
        E 0 90 45 64
        E 0 80 45 64
        E 0 90 45 64
        E 0 80 45 64
        E 0 90 45 64
        E 0 80 45 64
        E 0 90 45 64
        E 0 80 45 64
        E 0 90 4b 64
        E 0 91 42 64
        E 0 92 3b 64
        E 0 93 3b 64
        E 0 97 4e 64
        E 0 9e 4b 64
        E 0 98 47 64
        E 0 9d 3b 64
        E 0 81 42 64
        E 0 82 3b 64
        E 0 83 3b 64
        E 0 87 4e 64
        E 0 8e 4b 64
        E 0 88 47 64
        E 0 8d 3b 64
        E 0 91 42 64
        E 0 92 3b 64
        E 0 93 3b 64
        E 0 97 4e 64
        E 0 9e 4b 64
        E 0 98 47 64
        E 0 9d 3b 64
        E 0 81 42 64
        E 0 82 3b 64
        E 0 83 3b 64
        E 0 87 4e 64
        E 0 8e 4b 64
        E 0 88 47 64
        E 0 8d 3b 64
        E 0 91 42 64
        E 0 92 3b 64
        E 0 93 39 64
        E 1 97 4e 64
        E 0 9e 4b 64
        E 0 98 47 64
        E 0 9d 39 64
        E 2743 81 42 64
        E 0 82 3b 64
        E 0 83 39 64
        E 0 87 4e 64
        E 0 8e 4b 64
        E 0 88 47 64
        E 0 8d 39 64
        E 1 91 42 64
        E 0 92 3b 64
        E 0 93 39 64
        E 0 97 4e 64
        E 0 9e 4b 64
        E 0 98 47 64
        E 0 9d 39 64
        E 0 80 4b 64
        E 0 81 42 64
        E 0 82 3b 64
        E 0 83 39 64
        E 0 87 4e 64
        E 0 8e 4b 64
        E 0 88 47 64
        E 0 8d 39 64
        E 0 90 4c 64
        E 0 91 43 64
        E 0 92 3b 64
        E 0 93 37 64
        E 0 97 4f 64
        E 0 9e 4c 64
        E 0 98 47 64
        E 0 9d 37 64
        E 21566 81 43 64
        E 0 82 3b 64
        E 0 83 37 64
        E 0 87 4f 64
        E 0 8e 4c 64
        E 0 88 47 64
        E 0 8d 37 64
        E 0 91 43 64
        E 0 92 3d 64
        E 0 93 2e 64
        E 0 97 4f 64
        E 0 9e 4c 64
        E 0 98 49 64
        E 0 9d 2e 64
        E 0 80 4c 64
        E 0 81 43 64
        E 0 82 3d 64
        E 0 83 2e 64
        E 0 87 4f 64
        E 0 8e 4c 64
        E 0 88 49 64
        E 0 8d 2e 64
        E 0 90 4c 64
        E 0 91 43 64
        E 0 92 3b 64
        E 0 93 2f 64
        E 0 97 4f 64
        E 0 9e 4c 64
        E 0 98 47 64
        E 1 9d 2f 64
        E 0 81 43 64
        E 0 87 4f 64
        E 0 91 42 64
        E 0 97 4e 64
        E 0 80 4c 64
        E 0 8e 4c 64
        E 0 90 4b 64
        E 0 9e 4b 64
        E 0 80 4b 64
        E 0 81 42 64
        E 0 82 3b 64
        E 0 83 2f 64
        E 0 87 4e 64
        E 0 8e 4b 64
        E 0 88 47 64
        E 0 8d 2f 64
        E 0 90 4c 64
        E 0 91 44 64
        E 0 92 3b 64
        E 0 93 34 64
        E 0 97 50 64
        E 0 9e 4c 64
        E 0 98 47 64
        E 0 9d 28 64
        E 8657 80 4c 64
        E 0 81 44 64
        E 0 82 3b 64
        E 0 83 34 64
        E 0 87 50 64
        E 0 8e 4c 64
        E 0 88 47 64
        E 0 8d 28 64
        E 5984 98 3e 64
        E 1 9d 2f 64
        E 504 88 3e 64
        E 2 98 42 64
        E 504 88 42 64
        E 0 8d 2f 64
        E 0 98 46 64
        E 0 9d 36 64
        E 505 88 46 64
        E 0 8d 36 64
        E 1 98 42 64
        E 0 9d 2f 64
        E 504 88 42 64
        E 0 98 3e 64
        E 504 88 3e 64
        E 0 8d 2f 64
        E 1 98 3d 64
        E 0 9d 36 64
        E 505 88 3d 64
        E 0 8d 36 64
        E 0 98 3b 64
        E 0 9d 2f 64
        E 1011 88 3b 64
        E 0 8d 2f 64
        E 0 98 36 64
        E 1 9d 2e 64
        E 505 88 36 64
        E 0 8d 2e 64
        E 0 98 3b 64
        E 0 9d 2f 64
        E 253 88 3b 64
        E 0 8d 2f 64
        E 0 98 3d 64
        E 0 9d 31 64
        E 253 88 3d 64
        E 0 8d 31 64
        E 0 98 3e 64
        E 0 9d 32 64
        E 503 88 3e 64
        E 1 8d 32 64
        E 0 98 3d 64
        E 3 9d 31 64
        E 501 88 3d 64
        E 0 8d 31 64
        E 0 98 3b 64
        E 0 9d 2f 64
        E 254 88 3b 64
        E 0 8d 2f 64
        E 0 98 3d 64
        E 0 9d 31 64
        E 253 88 3d 64
        E 0 8d 31 64
        E 0 98 3e 64
        E 0 9d 32 64
        E 505 88 3e 64
        E 0 8d 32 64
        E 0 98 3d 64
        E 0 9d 31 64
        E 506 88 3d 64
        E 0 8d 31 64
        E 0 98 3b 64
        E 0 9d 2f 64
        E 250 88 3b 64
        E 0 8d 2f 64
        E 0 98 3d 64
        E 0 9d 31 64
        E 253 88 3d 64
        E 0 8d 31 64
        E 2 98 3e 64
        E 0 9d 32 64
        E 505 88 3e 64
        E 0 8d 32 64
        E 2 98 40 64
        E 0 9d 34 64
        E 508 88 40 64
        E 0 8d 34 64
        E 0 98 42 64
        E 0 9d 36 64
        E 1511 88 42 64
        E 0 8d 36 64
        E 1 98 3f 64
        E 0 9d 3b 64
        E 256 88 3f 64
        E 0 8d 3b 64
        E 0 98 40 64
        E 0 9d 3d 64
        E 252 88 40 64
        E 0 8d 3d 64
        E 1 98 42 64
        E 2 9d 3f 64
        E 498 88 42 64
        E 6 8d 3f 64
        E 1 98 3f 64
        E 3 9d 3b 64
        E 495 88 3f 64
        E 0 8d 3b 64
        E 0 98 3b 64
        E 0 9d 34 64
        E 506 88 3b 64
        E 0 98 47 64
        E 506 88 47 64
        E 0 98 43 64
        E 504 88 43 64
        E 0 8d 34 64
        E 0 98 40 64
        E 0 9d 39 64
        E 252 88 40 64
        E 0 8d 39 64
        E 0 98 3e 64
        E 0 9d 3b 64
        E 255 88 3e 64
        E 0 8d 3b 64
        E 0 98 40 64
        E 0 9d 3d 64
        E 503 88 40 64
        E 0 8d 3d 64
        E 0 98 3d 64
        E 0 9d 39 64
        E 506 88 3d 64
        E 0 8d 39 64
        E 2 98 39 64
        E 0 9d 32 64
        E 503 88 39 64
        E 0 98 45 64
        E 507 88 45 64
        E 0 8d 32 64
        E 0 98 42 64
        E 505 88 42 64
        E 1 98 3e 64
        E 0 9d 37 64
        E 249 88 3e 64
        E 0 8d 37 64
        E 0 98 3d 64
        E 0 9d 39 64
        E 256 88 3d 64
        E 0 8d 39 64
        E 0 98 3e 64
        E 0 9d 3b 64
        E 503 88 3e 64
        E 0 8d 3b 64
        E 0 98 3b 64
        E 0 9d 37 64
        E 506 88 3b 64
        E 0 8d 37 64
        E 0 98 3a 64
        E 0 9d 31 64
        E 1011 88 3a 64
        E 0 8d 31 64
        E 506 98 49 64
        E 0 9d 36 64
        E 250 88 49 64
        E 1 8d 36 64
        E 0 98 47 64
        E 0 9d 38 64
        E 252 88 47 64
        E 0 8d 38 64
        E 0 98 49 64
        E 0 9d 3a 64
        E 507 88 49 64
        E 0 8d 3a 64
        E 0 98 46 64
        E 0 9d 36 64
        E 503 88 46 64
        E 0 8d 36 64
        E 0 98 42 64
        E 6 9d 32 64
        E 248 88 42 64
        E 0 8d 32 64
        E 0 98 40 64
        E 0 9d 31 64
        E 253 88 40 64
        E 0 8d 31 64
        E 0 98 3e 64
        E 0 9d 2f 64
        E 503 88 3e 64
        E 0 8d 2f 64
        E 0 98 47 64
        E 0 9d 32 64
        E 512 88 47 64
        E 0 8d 32 64
        E 0 98 47 64
        E 0 9d 34 64
        E 500 88 47 64
        E 0 8d 34 64
        E 0 98 47 64
        E 1 9d 32 64
        E 1009 88 47 64
        E 0 8d 32 64
        E 0 98 42 64
        E 0 9d 32 64
        E 253 88 42 64
        E 0 8d 32 64
        E 0 98 40 64
        E 0 9d 31 64
        E 254 88 40 64
        E 0 8d 31 64
        E 1 98 3e 64
        E 0 9d 2f 64
        E 503 88 3e 64
        E 0 8d 2f 64
        E 0 98 42 64
        E 0 9d 32 64
        E 505 88 42 64
        E 0 8d 32 64
        E 0 98 43 64
        E 1 9d 34 64
        E 504 88 43 64
        E 1 8d 34 64
        E 0 98 42 64
        E 0 9d 32 64
        E 1010 88 42 64
        E 0 8d 32 64
        E 0 98 3b 64
        E 0 9d 34 64
        E 509 88 3b 64
        E 0 8d 34 64
        E 0 98 47 64
        E 0 9d 32 64
        E 1008 88 47 64
        E 0 8d 32 64
        E 0 98 3d 64
        E 0 9d 36 64
        E 251 8d 36 64
        E 0 9d 37 64
        E 254 8d 37 64
        E 0 9d 36 64
        E 252 8d 36 64
        E 0 9d 34 64
        E 253 88 3d 64
        E 0 8d 34 64
        E 0 98 42 64
        E 0 9d 32 64
        E 250 8d 32 64
        E 0 9d 31 64
        E 255 88 42 64
        E 0 8d 31 64
        E 0 98 42 64
        E 0 9d 2f 64
        E 253 88 42 64
        E 0 8d 2f 64
        E 1 98 43 64
        E 0 9d 34 64
        E 252 88 43 64
        E 0 8d 34 64
        E 1 98 3a 64
        E 0 9d 36 64
        E 503 88 3a 64
        E 0 8d 36 64
        E 1 98 42 64
        E 0 9d 2a 64
        E 504 88 42 64
        E 0 8d 2a 64
        E 0 98 47 64
        E 0 9d 3b 64
        E 508 88 47 64
        E 0 8d 3b 64
        E 0 98 45 64
        E 0 9d 39 64
        E 504 88 45 64
        E 0 8d 39 64
        E 0 98 43 64
        E 1 9d 37 64
        E 504 88 43 64
        E 0 8d 37 64
        E 0 98 42 64
        E 0 9d 36 64
        E 503 88 42 64
        E 0 8d 36 64
        E 0 98 40 64
        E 1 9d 34 64
        E 505 88 40 64
        E 0 8d 34 64
        E 1 98 3e 64
        E 0 9d 32 64
        E 505 88 3e 64
        E 0 8d 32 64
        E 0 98 43 64
        E 0 9d 37 64
        E 506 88 43 64
        E 0 8d 37 64
        E 0 98 42 64
        E 1 9d 36 64
        E 506 88 42 64
        E 0 8d 36 64
        E 0 98 40 64
        E 0 9d 34 64
        E 503 88 40 64
        E 0 8d 34 64
        E 0 98 3e 64
        E 0 9d 32 64
        E 504 88 3e 64
        E 0 8d 32 64
        E 1 98 3d 64
        E 0 9d 31 64
        E 506 88 3d 64
        E 0 8d 31 64
        E 0 98 3b 64
        E 0 9d 2f 64
        E 504 88 3b 64
        E 0 8d 2f 64
        E 0 98 3e 64
        E 0 9d 32 64
        E 253 88 3e 64
        E 1 8d 32 64
        E 0 98 40 64
        E 0 9d 34 64
        E 253 88 40 64
        E 0 8d 34 64
        E 0 98 42 64
        E 0 9d 36 64
        E 505 88 42 64
        E 0 8d 36 64
        E 1 98 36 64
        E 0 9d 2a 64
        E 504 88 36 64
        E 0 8d 2a 64
        E 0 98 3b 64
        E 0 9d 2f 64
        E 1010 88 3b 64
        E 0 8d 2f 64
        E 0 9c 47 64
        E 505 8c 47 64
        E 0 9c 42 64
        E 1516 8c 42 64
        E 1 98 3b 64
        E 0 9c 42 64
        E 251 88 3b 64
        E 0 98 3d 64
        E 255 88 3d 64
        E 0 98 3e 64
        E 504 88 3e 64
        E 0 98 3d 64
        E 506 88 3d 64
        E 0 8c 42 64
        E 0 98 3b 64
        E 0 9c 42 64
        E 253 88 3b 64
        E 1 98 3d 64
        E 249 88 3d 64
        E 0 98 3e 64
        E 507 88 3e 64
        E 0 98 3d 64
        E 506 88 3d 64
        E 0 8c 42 64
        E 0 98 3b 64
        E 0 9c 42 64
        E 250 88 3b 64
        E 0 98 3d 64
        E 255 88 3d 64
        E 0 98 3e 64
        E 507 88 3e 64
        E 0 8c 42 64
        E 0 98 3d 64
        E 0 9c 42 64
        E 503 88 3d 64
        E 0 8c 42 64
        E 1 98 3b 64
        E 0 9c 47 64
        E 0 9d 2f 64
        E 251 8c 47 64
        E 0 9c 49 64
        E 253 8c 49 64
        E 0 9c 4a 64
        E 505 88 3b 64
        E 0 8c 4a 64
        E 0 8d 2f 64
        E 0 9c 49 64
        E 0 9d 2e 64
        E 506 8c 49 64
        E 1 8d 2e 64
        E 0 9c 47 64
        E 0 9d 2f 64
        E 503 8c 47 64
        E 0 8d 2f 64
        E 0 9c 45 64
        E 0 9d 31 64
        E 506 8c 45 64
        E 0 9c 43 64
        E 506 8c 43 64
        E 0 8d 31 64
        E 0 9c 42 64
        E 0 9d 32 64
        E 253 8d 32 64
        E 1 9d 31 64
        E 249 8c 42 64
        E 0 8d 31 64
        E 0 9c 47 64
        E 0 9d 2f 64
        E 505 8c 47 64
        E 0 8d 2f 64
        E 0 9c 49 64
        E 0 9d 2e 64
        E 508 8c 49 64
        E 0 8d 2e 64
        E 0 9c 4a 64
        E 0 9d 2f 64
        E 505 8c 4a 64
        E 1 9c 49 64
        E 504 8c 49 64
        E 0 9c 47 64
        E 504 8c 47 64
        E 0 8d 2f 64
        E 1 98 3b 64
        E 0 9d 2f 64
        E 253 88 3b 64
        E 0 8d 2f 64
        E 0 98 3d 64
        E 0 9d 31 64
        E 252 88 3d 64
        E 0 8d 31 64
        E 0 98 3e 64
        E 0 9d 32 64
        E 505 88 3e 64
        E 0 8d 32 64
        E 0 98 3d 64
        E 1 9d 31 64
        E 505 88 3d 64
        E 0 8d 31 64
        E 0 98 3b 64
        E 0 9d 2f 64
        E 253 88 3b 64
        E 0 8d 2f 64
        E 1 98 3d 64
        E 0 9d 31 64
        E 251 88 3d 64
        E 0 8d 31 64
        E 0 98 3e 64
        E 0 9d 32 64
        E 504 88 3e 64
        E 0 8d 32 64
        E 0 98 3d 64
        E 0 9d 31 64
        E 507 88 3d 64
        E 0 8d 31 64
        E 0 98 3b 64
        E 1 9c 42 64
        E 0 9d 2f 64
        E 1008 88 3b 64
        E 0 8c 42 64
        E 0 8d 2f 64
        E 0 9c 42 64
        E 506 8c 42 64
        E 0 98 40 64
        E 0 9c 43 64
        E 251 88 40 64
        E 1 98 42 64
        E 254 88 42 64
        E 0 98 43 64
        E 505 88 43 64
        E 0 98 42 64
        E 505 88 42 64
        E 0 8c 43 64
        E 1 98 40 64
        E 0 9c 43 64
        E 253 88 40 64
        E 0 98 42 64
        E 251 88 42 64
        E 0 98 43 64
        E 504 88 43 64
        E 1 98 40 64
        E 504 88 40 64
        E 0 8c 43 64
        E 0 98 39 64
        E 0 9c 43 64
        E 1 9d 2d 64
        E 252 8c 43 64
        E 1 9c 45 64
        E 254 8c 45 64
        E 0 9c 47 64
        E 505 88 39 64
        E 0 8c 47 64
        E 0 8d 2d 64
        E 0 9c 45 64
        E 504 8c 45 64
        E 0 9c 43 64
        E 0 9d 2d 64
        E 252 8c 43 64
        E 0 9c 45 64
        E 253 8c 45 64
        E 0 9c 47 64
        E 506 8c 47 64
        E 0 8d 2d 64
        E 0 9c 43 64
        E 505 8c 43 64
        E 0 98 3e 64
        E 0 9c 42 64
        E 0 9d 32 64
        E 254 88 3e 64
        E 0 98 40 64
        E 253 88 40 64
        E 0 98 42 64
        E 503 88 42 64
        E 0 8d 32 64
        E 1 98 40 64
        E 506 88 40 64
        E 0 8c 42 64
        E 0 98 3e 64
        E 2 9c 42 64
        E 249 88 3e 64
        E 0 98 40 64
        E 252 88 40 64
        E 1 98 42 64
        E 504 88 42 64
        E 1 98 3e 64
        E 506 88 3e 64
        E 0 8c 42 64
        E 0 98 37 64
        E 0 9c 42 64
        E 0 9d 2b 64
        E 252 8c 42 64
        E 1 9c 43 64
        E 251 8c 43 64
        E 0 9c 45 64
        E 508 88 37 64
        E 1 8c 45 64
        E 0 8d 2b 64
        E 0 9c 43 64
        E 504 8c 43 64
        E 0 9c 42 64
        E 0 9d 37 64
        E 250 8c 42 64
        E 0 9c 43 64
        E 255 8c 43 64
        E 0 9c 45 64
        E 505 8c 45 64
        E 0 8d 37 64
        E 2 9c 42 64
        E 502 8c 42 64
        E 0 98 40 64
        E 0 9c 40 64
        E 0 9d 37 64
        E 253 88 40 64
        E 0 98 42 64
        E 252 88 42 64
        E 0 98 43 64
        E 508 88 43 64
        E 0 8d 37 64
        E 0 98 42 64
        E 503 88 42 64
        E 0 8c 40 64
        E 0 98 40 64
        E 0 9c 40 64
        E 251 88 40 64
        E 0 98 42 64
        E 254 88 42 64
        E 1 98 43 64
        E 504 88 43 64
        E 0 98 40 64
        E 507 88 40 64
        E 0 8c 40 64
        E 0 98 3a 64
        E 0 9c 40 64
        E 0 9d 36 64
        E 252 8c 40 64
        E 0 9c 42 64
        E 251 8c 42 64
        E 0 9c 43 64
        E 508 88 3a 64
        E 0 8c 43 64
        E 0 8d 36 64
        E 1 9c 42 64
        E 503 8c 42 64
        E 1 9c 40 64
        E 0 9d 36 64
        E 252 8c 40 64
        E 0 9c 42 64
        E 251 8c 42 64
        E 0 9c 43 64
        E 506 8c 43 64
        E 0 8d 36 64
        E 0 9c 40 64
        E 507 8c 40 64
        E 0 9c 3e 64
        E 0 9d 2f 64
        E 502 8c 3e 64
        E 0 9c 3d 64
        E 507 8c 3d 64
        E 0 8d 2f 64
        E 0 9c 3e 64
        E 508 8c 3e 64
        E 0 98 3b 64
        E 0 9d 2f 64
        E 248 88 3b 64
        E 1 8d 2f 64
        E 0 98 3d 64
        E 0 9d 31 64
        E 254 88 3d 64
        E 0 8d 31 64
        E 1 98 3e 64
        E 0 9d 32 64
        E 505 88 3e 64
        E 0 8d 32 64
        E 1 98 3d 64
        E 0 9d 31 64
        E 503 88 3d 64
        E 0 8d 31 64
        E 0 98 3b 64
        E 0 9c 47 64
        E 0 9d 2f 64
        E 254 88 3b 64
        E 0 8d 2f 64
        E 0 98 3d 64
        E 1 9d 31 64
        E 251 88 3d 64
        E 0 8d 31 64
        E 0 98 3e 64
        E 0 9d 32 64
        E 503 88 3e 64
        E 0 8c 47 64
        E 0 8d 32 64
        E 0 98 3b 64
        E 0 9c 47 64
        E 1 9d 2f 64
        E 507 88 3b 64
        E 0 8c 47 64
        E 0 8d 2f 64
        E 0 98 41 63
        E 1 9c 47 64
        E 0 9d 31 64
        E 504 8c 47 64
        E 0 8d 31 64
        E 0 9c 45 64
        E 0 9d 33 64
        E 505 88 41 63
        E 0 8c 45 64
        E 0 8d 33 64
        E 0 9c 44 64
        E 0 9d 35 63
        E 505 8c 44 64
        E 0 8d 35 63
        E 0 9c 45 64
        E 0 9d 36 64
        E 252 8d 36 64
        E 0 9d 38 64
        E 254 8c 45 64
        E 0 8d 38 64
        E 0 9c 44 64
        E 0 9d 39 64
        E 503 8c 44 64
        E 0 8d 39 64
        E 0 9c 42 64
        E 0 9d 3b 64
        E 506 8c 42 64
        E 0 8d 3b 64
        E 0 9c 41 63
        E 0 9d 3d 64
        E 758 8d 3d 64
        E 0 9d 3b 64
        E 254 8c 41 63
        E 0 8d 3b 64
        E 0 9c 42 64
        E 1 9d 39 64
        E 251 8d 39 64
        E 0 9d 38 64
        E 253 8c 42 64
        E 0 8d 38 64
        E 0 9c 42 64
        E 0 9d 36 64
        E 503 8c 42 64
        E 0 8d 36 64
        E 0 9c 44 64
        E 0 9d 3d 64
        E 507 8d 3d 64
        E 0 9d 31 64
        E 505 8c 44 64
        E 1 8d 31 64
        E 0 98 45 64
        E 0 9c 42 64
        E 0 9d 36 64
        E 504 88 45 64
        E 0 98 49 64
        E 506 88 49 64
        E 0 8d 36 64
        E 0 98 41 63
        E 1 9d 3d 64
        E 506 88 41 63
        E 3 8c 42 64
        E 0 8d 3d 64
        E 0 98 3d 64
        E 0 9d 36 64
        E 499 88 3d 64
        E 1 98 45 64
        E 504 88 45 64
        E 0 8d 36 64
        E 1 98 41 63
        E 0 9d 3d 64
        E 505 88 41 63
        E 0 8d 3d 64
        E 0 98 3d 64
        E 0 9d 36 64
        E 1011 88 3d 64
        E 0 8d 36 64
        E 0 98 3d 64
        E 0 9d 31 64
        E 505 88 3d 64
        E 0 8d 31 64
        E 0 98 42 64
        E 0 9d 36 64
        E 252 88 42 64
        E 1 8d 36 64
        E 0 98 44 64
        E 0 9d 38 64
        E 251 88 44 64
        E 0 8d 38 64
        E 1 98 45 64
        E 0 9d 39 64
        E 505 88 45 64
        E 0 8d 39 64
        E 0 98 44 64
        E 0 9d 38 64
        E 507 88 44 64
        E 0 8d 38 64
        E 0 98 42 64
        E 1 9d 36 64
        E 251 88 42 64
        E 0 8d 36 64
        E 1 98 44 64
        E 0 9d 38 64
        E 252 88 44 64
        E 0 8d 38 64
        E 0 98 45 64
        E 1 9d 39 64
        E 505 88 45 64
        E 0 8d 39 64
        E 1 98 44 64
        E 0 9d 38 64
        E 509 88 44 64
        E 0 8d 38 64
        E 0 98 42 64
        E 0 9d 36 64
        E 245 88 42 64
        E 0 8d 36 64
        E 0 98 44 64
        E 0 9d 38 64
        E 253 88 44 64
        E 0 8d 38 64
        E 0 98 45 64
        E 1 9d 39 64
        E 506 88 45 64
        E 0 8d 39 64
        E 0 98 47 64
        E 0 9d 3b 64
        E 504 88 47 64
        E 0 8d 3b 64
        E 0 98 49 64
        E 0 9c 44 64
        E 0 9d 3d 64
        E 1517 88 49 64
        E 0 8c 44 64
        E 0 8d 3d 64
        E 0 9c 44 64
        E 0 9d 35 63
        E 251 8d 35 63
        E 0 9d 36 64
        E 253 8d 36 64
        E 1 9d 38 64
        E 504 8d 38 64
        E 1 9d 36 64
        E 505 8c 44 64
        E 0 8d 36 64
        E 0 9c 3d 64
        E 0 9d 35 63
        E 504 8d 35 63
        E 1 9d 33 64
        E 507 8c 3d 64
        E 0 8d 33 64
        E 1 9c 47 64
        E 0 9d 31 64
        E 503 8c 47 64
        E 0 8d 31 64
        E 0 9c 45 64
        E 0 9d 36 64
        E 506 8c 45 64
        E 0 9c 44 64
        E 504 8c 44 64
        E 0 9c 42 64
        E 505 8c 42 64
        E 0 8d 36 64
        E 0 9c 47 64
        E 0 9d 35 63
        E 253 8d 35 63
        E 1 9d 36 64
        E 251 8d 36 64
        E 0 9d 38 64
        E 507 8c 47 64
        E 0 8d 38 64
        E 0 9c 44 64
        E 0 9d 35 63
        E 506 8c 44 64
        E 0 8d 35 63
        E 0 98 42 64
        E 0 9c 45 64
        E 0 9d 36 64
        E 251 88 42 64
        E 0 98 44 64
        E 253 88 44 64
        E 0 98 45 64
        E 504 88 45 64
        E 0 8d 36 64
        E 0 98 44 64
        E 507 88 44 64
        E 0 8c 45 64
        E 0 98 42 64
        E 252 88 42 64
        E 0 98 44 64
        E 252 88 44 64
        E 0 98 45 64
        E 505 88 45 64
        E 0 98 44 64
        E 507 88 44 64
        E 0 98 42 64
        E 0 9c 45 64
        E 0 9d 36 64
        E 250 8d 36 64
        E 1 9d 37 64
        E 253 8d 37 64
        E 0 9d 39 64
        E 506 88 42 64
        E 0 8c 45 64
        E 0 8d 39 64
        E 0 9c 45 64
        E 0 9d 36 64
        E 507 8c 45 64
        E 0 8d 36 64
        E 0 9c 45 64
        E 0 9d 33 64
        E 252 8d 33 64
        E 0 9d 34 64
        E 251 8d 34 64
        E 0 9d 36 64
        E 504 8d 36 64
        E 0 9d 33 64
        E 508 8c 45 64
        E 0 8d 33 64
        E 0 9c 45 64
        E 0 9d 2f 64
        E 506 8c 45 64
        E 0 9c 43 64
        E 251 8c 43 64
        E 0 9c 42 64
        E 251 8c 42 64
        E 1 9c 40 64
        E 251 8c 40 64
        E 0 9c 3f 64
        E 255 8c 3f 64
        E 0 8d 2f 64
        E 0 9c 47 64
        E 0 9d 37 64
        E 253 8d 37 64
        E 0 9d 39 64
        E 251 8d 39 64
        E 0 9d 3b 64
        E 505 8d 3b 64
        E 1 9d 37 64
        E 508 8c 47 64
        E 0 8d 37 64
        E 0 9c 47 64
        E 0 9d 34 64
        E 503 8c 47 64
        E 1 9c 45 64
        E 251 8c 45 64
        E 0 9c 43 64
        E 252 8c 43 64
        E 0 9c 42 64
        E 253 8c 42 64
        E 0 9c 40 64
        E 255 8c 40 64
        E 0 8d 34 64
        E 0 9c 48 64
        E 0 9d 39 64
        E 250 8d 39 64
        E 1 9d 3b 64
        E 251 8d 3b 64
        E 1 9d 3c 64
        E 506 8d 3c 64
        E 0 9d 3b 64
        E 505 8c 48 64
        E 0 8d 3b 64
        E 0 9c 48 64
        E 1 9d 39 64
        E 251 8c 48 64
        E 0 9c 47 64
        E 254 8c 47 64
        E 0 9c 45 64
        E 253 8c 45 64
        E 0 9c 43 64
        E 252 8c 43 64
        E 1 9c 42 64
        E 251 8c 42 64
        E 1 9c 40 64
        E 253 8c 40 64
        E 0 8d 39 64
        E 1 9c 3f 64
        E 0 9d 3b 64
        E 250 8d 3b 64
        E 0 9d 39 64
        E 252 8c 3f 64
        E 0 8d 39 64
        E 0 9c 40 64
        E 0 9d 37 64
        E 255 8d 37 64
        E 0 9d 36 64
        E 251 8c 40 64
        E 0 8d 36 64
        E 0 9c 45 64
        E 0 9d 34 64
        E 254 8d 34 64
        E 0 9d 33 64
        E 251 8c 45 64
        E 0 8d 33 64
        E 1 9c 43 64
        E 0 9d 34 64
        E 251 8d 34 64
        E 0 9d 39 64
        E 255 8c 43 64
        E 0 8d 39 64
        E 0 9c 42 64
        E 0 9d 3b 64
        E 505 8d 3b 64
        E 0 9d 2f 64
        E 505 8c 42 64
        E 1 8d 2f 64
        E 0 98 43 64
        E 0 9c 40 64
        E 0 9d 34 64
        E 504 88 43 64
        E 0 98 47 64
        E 504 88 47 64
        E 0 8d 34 64
        E 0 98 3f 64
        E 0 9d 3b 64
        E 506 88 3f 64
        E 0 8c 40 64
        E 0 8d 3b 64
        E 0 98 3b 64
        E 0 9d 34 64
        E 504 88 3b 64
        E 0 98 43 64
        E 507 88 43 64
        E 0 8d 34 64
        E 0 98 3f 64
        E 0 9d 3b 64
        E 506 88 3f 64
        E 0 8d 3b 64
        E 0 98 3b 64
        E 0 9d 34 64
        E 1010 88 3b 64
        E 1 8d 34 64
        E 0 98 3b 64
        E 0 9d 2f 64
        E 505 88 3b 64
        E 0 8d 2f 64
        E 1 98 40 64
        E 0 9d 34 64
        E 250 88 40 64
        E 0 8d 34 64
        E 0 98 42 64
        E 0 9d 36 64
        E 251 88 42 64
        E 0 8d 36 64
        E 0 98 43 64
        E 1 9d 37 64
        E 506 88 43 64
        E 0 8d 37 64
        E 0 98 42 64
        E 0 9d 36 64
        E 505 88 42 64
        E 0 8d 36 64
        E 0 98 40 64
        E 0 9d 34 64
        E 253 88 40 64
        E 0 8d 34 64
        E 0 98 42 64
        E 0 9d 36 64
        E 252 88 42 64
        E 0 8d 36 64
        E 0 98 43 64
        E 0 9d 37 64
        E 506 88 43 64
        E 0 8d 37 64
        E 1 98 42 64
        E 0 9d 36 64
        E 504 88 42 64
        E 0 8d 36 64
        E 0 98 40 64
        E 0 9c 47 64
        E 0 9d 34 64
        E 505 8c 47 64
        E 0 9c 43 64
        E 506 88 40 64
        E 0 8c 43 64
        E 0 8d 34 64
        E 1 9c 42 64
        E 0 9d 36 64
        E 504 8c 42 64
        E 0 8d 36 64
        E 1 9c 40 64
        E 0 9d 37 64
        E 504 8c 40 64
        E 0 9c 42 64
        E 505 8c 42 64
        E 0 8d 37 64
        E 0 9c 3e 64
        E 0 9d 38 64
        E 506 8c 3e 64
        E 0 8d 38 64
        E 0 9c 3d 64
        E 0 9d 39 64
        E 252 8c 3d 64
        E 1 9c 3e 64
        E 251 8c 3e 64
        E 0 9c 40 64
        E 506 8c 40 64
        E 0 8d 39 64
        E 0 9c 42 64
        E 0 9d 32 64
        E 507 8c 42 64
        E 0 8d 32 64
        E 0 9c 40 64
        E 0 9d 31 64
        E 251 8c 40 64
        E 0 8d 31 64
        E 0 9c 42 64
        E 0 9d 32 64
        E 253 8c 42 64
        E 2 8d 32 64
        E 0 9c 43 64
        E 0 9d 34 64
        E 504 8c 43 64
        E 0 8d 34 64
        E 0 9c 45 64
        E 0 9d 31 64
        E 505 8c 45 64
        E 0 8d 31 64
        E 0 9c 42 64
        E 0 9d 32 64
        E 252 8c 42 64
        E 0 9c 40 64
        E 252 8c 40 64
        E 0 9c 3e 64
        E 254 8c 3e 64
        E 1 9c 40 64
        E 250 8c 40 64
        E 0 8d 32 64
        E 1 9c 42 64
        E 253 8c 42 64
        E 0 9c 43 64
        E 253 8c 43 64
        E 0 9c 45 64
        E 0 9d 32 64
        E 505 8c 45 64
        E 2 9c 47 64
        E 249 8c 47 64
        E 1 9c 49 64
        E 253 8c 49 64
        E 0 8d 32 64
        E 0 9c 4a 64
        E 504 8c 4a 64
        E 0 9c 3e 64
        E 0 9d 32 64
        E 505 8c 3e 64
        E 0 8d 32 64
        E 0 9c 40 64
        E 0 9d 39 64
        E 505 8d 39 64
        E 0 9d 2d 64
        E 507 8c 40 64
        E 0 8d 2d 64
        E 0 98 42 64
        E 0 9c 3e 64
        E 0 9d 32 64
        E 506 88 42 64
        E 0 98 45 64
        E 504 88 45 64
        E 0 8d 32 64
        E 0 98 3d 64
        E 0 9d 39 64
        E 507 88 3d 64
        E 0 8c 3e 64
        E 0 8d 39 64
        E 0 98 39 64
        E 0 9d 32 64
        E 504 88 39 64
        E 1 98 42 64
        E 503 88 42 64
        E 0 8d 32 64
        E 0 98 3d 64
        E 0 9d 39 64
        E 507 88 3d 64
        E 0 8d 39 64
        E 0 98 39 64
        E 0 9d 32 64
        E 1010 88 39 64
        E 0 8d 32 64
        E 0 98 39 64
        E 0 9d 2d 64
        E 505 88 39 64
        E 0 8d 2d 64
        E 0 98 3e 64
        E 0 9d 32 64
        E 256 88 3e 64
        E 0 8d 32 64
        E 0 98 40 64
        E 0 9d 34 64
        E 248 88 40 64
        E 0 8d 34 64
        E 0 98 42 64
        E 0 9d 36 64
        E 506 88 42 64
        E 0 8d 36 64
        E 0 98 40 64
        E 0 9d 34 64
        E 505 88 40 64
        E 0 8d 34 64
        E 0 98 3e 64
        E 0 9d 32 64
        E 253 88 3e 64
        E 0 8d 32 64
        E 0 98 40 64
        E 0 9d 34 64
        E 254 88 40 64
        E 0 8d 34 64
        E 0 98 42 64
        E 0 9d 36 64
        E 505 88 42 64
        E 0 8d 36 64
        E 0 98 40 64
        E 0 9d 34 64
        E 505 88 40 64
        E 1 8d 34 64
        E 2 98 3e 64
        E 0 9c 42 64
        E 0 9d 32 64
        E 1007 88 3e 64
        E 0 8d 32 64
        E 504 8c 42 64
        E 1 9c 42 64
        E 1517 8c 42 64
        E 0 98 3b 64
        E 0 9c 42 64
        E 252 88 3b 64
        E 0 98 3d 64
        E 253 88 3d 64
        E 0 98 3e 64
        E 504 88 3e 64
        E 0 98 3d 64
        E 507 88 3d 64
        E 0 8c 42 64
        E 0 98 3b 64
        E 0 9c 42 64
        E 252 88 3b 64
        E 0 98 3d 64
        E 250 88 3d 64
        E 1 98 3e 64
        E 508 88 3e 64
        E 0 98 3d 64
        E 506 88 3d 64
        E 0 8c 42 64
        E 0 98 3b 64
        E 0 9c 42 64
        E 249 88 3b 64
        E 0 98 3d 64
        E 254 88 3d 64
        E 0 98 3e 64
        E 506 88 3e 64
        E 0 8c 42 64
        E 0 98 3d 64
        E 0 9c 42 64
        E 509 88 3d 64
        E 0 8c 42 64
        E 0 98 3b 64
        E 0 9c 47 64
        E 0 9d 2f 64
        E 248 8c 47 64
        E 0 9c 49 64
        E 253 8c 49 64
        E 0 9c 4a 64
        E 506 88 3b 64
        E 0 8c 4a 64
        E 0 8d 2f 64
        E 0 9c 49 64
        E 0 9d 2e 64
        E 507 8c 49 64
        E 0 8d 2e 64
        E 0 9c 47 64
        E 0 9d 2f 64
        E 502 8c 47 64
        E 0 8d 2f 64
        E 0 9c 45 64
        E 0 9d 31 64
        E 506 8c 45 64
        E 0 9c 43 64
        E 506 8c 43 64
        E 0 8d 31 64
        E 0 9c 42 64
        E 0 9d 32 64
        E 252 8d 32 64
        E 0 9d 31 64
        E 252 8c 42 64
        E 0 8d 31 64
        E 0 9c 47 64
        E 0 9d 2f 64
        E 506 8c 47 64
        E 0 8d 2f 64
        E 0 9c 49 64
        E 0 9d 2e 64
        E 506 8c 49 64
        E 0 8d 2e 64
        E 0 9c 4a 64
        E 0 9d 2f 64
        E 505 8c 4a 64
        E 0 9c 49 64
        E 506 8c 49 64
        E 0 9c 47 64
        E 503 8c 47 64
        E 0 8d 2f 64
        E 0 98 3b 64
        E 0 9d 2f 64
        E 254 88 3b 64
        E 1 8d 2f 64
        E 1 98 3d 64
        E 1 9d 31 64
        E 249 88 3d 64
        E 0 8d 31 64
        E 0 98 3e 64
        E 0 9c 42 64
        E 0 9d 32 64
        E 505 88 3e 64
        E 0 8c 42 64
        E 0 8d 32 64
        E 0 98 3b 64
        E 0 9c 47 64
        E 0 9d 2f 64
        E 507 88 3b 64
        E 0 8c 47 64
        E 0 8d 2f 64
        E 0 98 40 64
        E 0 9c 43 64
        E 0 9d 34 64
        E 251 88 40 64
        E 0 8d 34 64
        E 0 98 42 64
        E 0 9d 36 64
        E 252 88 42 64
        E 0 8d 36 64
        E 0 98 43 64
        E 0 9d 37 64
        E 507 88 43 64
        E 0 8d 37 64
        E 0 98 42 64
        E 0 9d 36 64
        E 505 88 42 64
        E 0 8c 43 64
        E 0 8d 36 64
        E 0 98 40 64
        E 0 9c 43 64
        E 0 9d 34 64
        E 505 8c 43 64
        E 1 9c 47 64
        E 504 88 40 64
        E 0 8c 47 64
        E 0 8d 34 64
        E 0 9c 45 64
        E 507 8c 45 64
        E 0 98 3e 64
        E 0 9c 44 64
        E 0 9d 32 64
        E 504 8c 44 64
        E 0 9c 42 64
        E 506 88 3e 64
        E 0 8c 42 64
        E 0 8d 32 64
        E 0 9c 40 64
        E 505 8c 40 64
        E 1 98 39 64
        E 0 9c 45 64
        E 0 9d 2d 64
        E 251 88 39 64
        E 0 8d 2d 64
        E 1 98 3b 64
        E 0 9d 2f 64
        E 251 88 3b 64
        E 0 8d 2f 64
        E 0 98 3d 64
        E 0 9d 31 64
        E 505 88 3d 64
        E 0 8d 31 64
        E 0 98 3b 64
        E 0 9d 2f 64
        E 508 88 3b 64
        E 0 8c 45 64
        E 0 8d 2f 64
        E 0 98 39 64
        E 0 9c 45 64
        E 0 9d 2d 64
        E 504 8c 45 64
        E 0 9c 49 64
        E 505 88 39 64
        E 0 8c 49 64
        E 0 8d 2d 64
        E 0 9c 47 64
        E 507 8c 47 64
        E 0 98 42 64
        E 0 9c 46 64
        E 0 9d 36 64
        E 503 8c 46 64
        E 0 9c 44 64
        E 505 88 42 64
        E 1 8c 44 64
        E 0 8d 36 64
        E 0 98 40 64
        E 0 9c 42 64
        E 0 9d 34 64
        E 504 88 40 64
        E 0 8c 42 64
        E 0 8d 34 64
        E 0 98 3b 64
        E 0 9c 47 64
        E 0 9d 2f 64
        E 254 88 3b 64
        E 0 8d 2f 64
        E 0 98 3d 64
        E 0 9d 31 64
        E 253 88 3d 64
        E 0 8d 31 64
        E 0 98 3e 64
        E 0 9d 32 64
        E 505 88 3e 64
        E 0 8c 47 64
        E 0 8d 32 64
        E 0 98 3d 64
        E 0 9c 42 64
        E 0 9d 31 64
        E 506 88 3d 64
        E 0 8c 42 64
        E 0 8d 31 64
        E 0 98 3b 64
        E 0 9d 2f 64
        E 251 88 3b 64
        E 0 8d 2f 64
        E 0 98 3d 64
        E 0 9d 31 64
        E 253 88 3d 64
        E 0 8d 31 64
        E 1 98 3e 64
        E 0 9d 32 64
        E 503 88 3e 64
        E 0 8d 32 64
        E 0 98 3d 64
        E 1 9d 31 64
        E 504 88 3d 64
        E 0 8d 31 64
        E 0 98 3b 64
        E 0 9d 2f 64
        E 253 88 3b 64
        E 0 8d 2f 64
        E 0 98 3d 64
        E 0 9d 31 64
        E 255 88 3d 64
        E 0 8d 31 64
        E 1 98 3e 64
        E 0 9d 32 64
        E 503 88 3e 64
        E 0 8d 32 64
        E 0 98 3b 64
        E 0 9d 2f 64
        E 505 88 3b 64
        E 0 8d 2f 64
        E 0 98 43 64
        E 0 9c 40 64
        E 0 9d 34 64
        E 251 8c 40 64
        E 0 9c 42 64
        E 254 8c 42 64
        E 0 9c 43 64
        E 506 88 43 64
        E 0 8c 43 64
        E 0 8d 34 64
        E 0 98 3b 64
        E 0 9c 42 64
        E 504 88 3b 64
        E 0 8c 42 64
        E 0 98 40 64
        E 0 9c 40 64
        E 254 8c 40 64
        E 0 9c 42 64
        E 253 8c 42 64
        E 0 9c 43 64
        E 504 88 40 64
        E 1 8c 43 64
        E 0 98 3b 64
        E 0 9c 42 64
        E 504 88 3b 64
        E 0 8c 42 64
        E 0 98 40 64
        E 0 9c 40 64
        E 253 8c 40 64
        E 0 9c 42 64
        E 252 8c 42 64
        E 0 9c 43 64
        E 505 88 40 64
        E 0 8c 43 64
        E 0 98 40 64
        E 0 9c 40 64
        E 506 88 40 64
        E 0 8c 40 64
        E 0 98 42 64
        E 0 9c 46 64
        E 757 88 42 64
        E 1 98 40 64
        E 254 88 40 64
        E 0 8c 46 64
        E 0 98 3e 64
        E 0 9c 47 64
        E 252 88 3e 64
        E 0 98 3d 64
        E 252 88 3d 64
        E 0 8c 47 64
        E 0 98 3b 64
        E 0 9c 47 64
        E 253 88 3b 64
        E 0 8c 47 64
        E 0 98 40 64
        E 0 9c 44 64
        E 251 88 40 64
        E 0 8c 44 64
        E 1 98 42 64
        E 0 9c 46 64
        E 505 88 42 64
        E 1 98 36 64
        E 505 88 36 64
        E 0 8c 46 64
        E 0 98 3b 64
        E 0 9c 47 64
        E 0 9d 2f 64
        E 253 88 3b 64
        E 0 8d 2f 64
        E 0 98 3d 64
        E 0 9d 31 64
        E 251 88 3d 64
        E 0 8d 31 64
        E 0 98 3e 64
        E 0 9d 32 64
        E 507 88 3e 64
        E 0 8d 32 64
        E 1 98 3d 64
        E 1 9d 31 64
        E 504 88 3d 64
        E 0 8c 47 64
        E 0 8d 31 64
        E 0 98 3b 64
        E 1 9d 2f 64
        E 248 88 3b 64
        E 0 8d 2f 64
        E 1 98 3d 64
        E 0 9d 31 64
        E 255 88 3d 64
        E 0 8d 31 64
        E 0 98 3e 64
        E 0 9d 32 64
        E 503 88 3e 64
        E 0 8d 32 64
        E 0 98 3d 64
        E 1 9d 31 64
        E 504 88 3d 64
        E 0 8d 31 64
        E 1 98 3b 64
        E 0 9d 2f 64
        E 253 88 3b 64
        E 0 8d 2f 64
        E 0 98 3d 64
        E 1 9d 31 64
        E 251 88 3d 64
        E 0 8d 31 64
        E 0 98 3e 64
        E 0 9d 32 64
        E 506 88 3e 64
        E 0 8d 32 64
        E 0 98 3d 64
        E 0 9d 31 64
        E 507 88 3d 64
        E 0 8d 31 64
        E 0 98 3b 64
        E 0 9c 47 64
        E 0 9d 2f 64
        E 251 8d 2f 64
        E 0 9d 31 64
        E 252 8c 47 64
        E 0 8d 31 64
        E 0 9c 42 64
        E 1 9d 32 64
        E 504 88 3b 64
        E 0 8d 32 64
        E 0 9d 2f 64
        E 505 8c 42 64
        E 0 8d 2f 64
        E 0 9c 43 64
        E 0 9d 34 64
        E 507 8c 43 64
        E 0 8d 34 64
        E 0 9c 42 64
        E 0 9d 2f 64
        E 1011 8c 42 64
        E 5 8d 2f 64
        E 0 9c 47 64
        E 0 9d 2f 64
        E 246 8d 2f 64
        E 0 9d 31 64
        E 252 8c 47 64
        E 0 8d 31 64
        E 0 9c 3e 64
        E 1 9d 32 64
        E 505 8d 32 64
        E 0 9d 2f 64
        E 506 8c 3e 64
        E 0 8d 2f 64
        E 0 9c 40 64
        E 0 9d 34 64
        E 505 8c 40 64
        E 0 8d 34 64
        E 0 9c 3e 64
        E 0 9d 2f 64
        E 1011 8c 3e 64
        E 0 8d 2f 64
        E 0 9c 43 64
        E 0 9d 34 64
        E 506 8c 43 64
        E 0 9c 42 64
        E 504 8c 42 64
        E 0 9c 40 64
        E 510 8c 40 64
        E 0 8d 34 64
        E 1 9c 46 64
        E 0 9d 36 64
        E 753 8d 36 64
        E 1 9d 34 64
        E 251 8c 46 64
        E 0 8d 34 64
        E 0 9c 47 64
        E 0 9d 32 64
        E 504 8c 47 64
        E 0 8d 32 64
        E 0 9c 47 64
        E 0 9d 34 64
        E 506 8c 47 64
        E 0 8d 34 64
        E 0 9c 46 64
        E 0 9d 36 64
        E 506 8d 36 64
        E 0 9d 2a 64
        E 505 8c 46 64
        E 0 8d 2a 64
        E 0 98 42 64
        E 0 9c 47 64
        E 0 9d 2f 64
        E 254 88 42 64
        E 0 8d 2f 64
        E 1 98 40 64
        E 0 9d 31 64
        E 250 88 40 64
        E 0 8d 31 64
        E 1 98 42 64
        E 0 9d 33 64
        E 503 88 42 64
        E 0 8d 33 64
        E 0 98 3f 64
        E 0 9d 2f 64
        E 505 88 3f 64
        E 0 8c 47 64
        E 0 8d 2f 64
        E 0 98 3b 64
        E 0 9d 34 64
        E 508 88 3b 64
        E 0 98 47 64
        E 504 88 47 64
        E 0 8d 34 64
        E 0 98 43 64
        E 505 88 43 64
        E 0 98 40 64
        E 0 9d 39 64
        E 252 88 40 64
        E 0 8d 39 64
        E 0 98 3e 64
        E 1 9d 3b 64
        E 252 88 3e 64
        E 0 8d 3b 64
        E 0 98 40 64
        E 1 9d 3d 64
        E 505 88 40 64
        E 1 8d 3d 64
        E 0 98 3d 64
        E 0 9d 39 64
        E 503 88 3d 64
        E 0 8d 39 64
        E 0 98 39 64
        E 0 9d 32 64
        E 509 88 39 64
        E 0 98 45 64
        E 502 88 45 64
        E 0 8d 32 64
        E 0 98 42 64
        E 507 88 42 64
        E 0 98 3e 64
        E 0 9d 37 64
        E 250 88 3e 64
        E 0 8d 37 64
        E 0 98 3d 64
        E 0 9d 39 64
        E 255 88 3d 64
        E 0 8d 39 64
        E 0 98 3e 64
        E 0 9d 3b 64
        E 504 88 3e 64
        E 0 8d 3b 64
        E 0 98 3b 64
        E 0 9d 37 64
        E 505 88 3b 64
        E 0 8d 37 64
        E 0 98 3a 64
        E 0 9d 31 64
        E 1012 88 3a 64
        E 0 8d 31 64
        E 506 98 49 64
        E 0 9d 36 64
        E 252 88 49 64
        E 0 8d 36 64
        E 0 98 47 64
        E 0 9d 38 64
        E 251 88 47 64
        E 0 8d 38 64
        E 0 98 49 64
        E 0 9d 3a 64
        E 505 88 49 64
        E 0 8d 3a 64
        E 0 98 46 64
        E 1 9d 36 64
        E 505 88 46 64
        E 0 8d 36 64
        E 0 98 42 64
        E 0 9d 32 64
        E 255 88 42 64
        E 0 8d 32 64
        E 0 98 40 64
        E 0 9d 31 64
        E 251 88 40 64
        E 0 8d 31 64
        E 0 98 3e 64
        E 0 9d 2f 64
        E 505 88 3e 64
        E 0 8d 2f 64
        E 0 98 47 64
        E 0 9d 32 64
        E 507 88 47 64
        E 0 8d 32 64
        E 0 98 47 64
        E 0 9d 34 64
        E 503 88 47 64
        E 0 8d 34 64
        E 0 98 47 64
        E 0 9d 32 64
        E 1010 88 47 64
        E 0 8d 32 64
        E 0 98 42 64
        E 0 9d 32 64
        E 253 88 42 64
        E 0 8d 32 64
        E 0 98 40 64
        E 0 9d 31 64
        E 252 88 40 64
        E 0 8d 31 64
        E 0 98 3e 64
        E 0 9d 2f 64
        E 506 88 3e 64
        E 0 8d 2f 64
        E 0 98 42 64
        E 0 9d 32 64
        E 505 88 42 64
        E 0 8d 32 64
        E 1 98 43 64
        E 0 9d 34 64
        E 507 88 43 64
        E 0 8d 34 64
        E 1 98 42 64
        E 0 9d 32 64
        E 1008 88 42 64
        E 0 8d 32 64
        E 0 98 3b 64
        E 0 9d 34 64
        E 504 88 3b 64
        E 0 8d 34 64
        E 0 98 47 64
        E 0 9d 32 64
        E 1012 88 47 64
        E 0 8d 32 64
        E 1 98 3d 64
        E 0 9d 36 64
        E 251 8d 36 64
        E 0 9d 37 64
        E 252 8d 37 64
        E 0 9d 36 64
        E 252 8d 36 64
        E 0 9d 34 64
        E 255 88 3d 64
        E 0 8d 34 64
        E 0 98 42 64
        E 0 9d 32 64
        E 256 8d 32 64
        E 1 9d 31 64
        E 248 88 42 64
        E 0 8d 31 64
        E 0 98 42 64
        E 0 9d 2f 64
        E 253 88 42 64
        E 0 8d 2f 64
        E 0 98 43 64
        E 0 9d 34 64
        E 251 88 43 64
        E 0 8d 34 64
        E 1 98 3a 64
        E 0 9d 36 64
        E 504 88 3a 64
        E 0 8d 36 64
        E 0 98 42 64
        E 0 9d 2a 64
        E 509 88 42 64
        E 0 8d 2a 64
        E 0 98 47 64
        E 0 9d 3b 64
        E 502 88 47 64
        E 0 8d 3b 64
        E 2 98 45 64
        E 1 9d 39 64
        E 502 88 45 64
        E 0 8d 39 64
        E 0 98 43 64
        E 0 9d 37 64
        E 506 88 43 64
        E 0 8d 37 64
        E 0 98 42 64
        E 0 9d 36 64
        E 504 88 42 64
        E 1 8d 36 64
        E 0 98 40 64
        E 0 9d 34 64
        E 504 88 40 64
        E 0 8d 34 64
        E 0 98 3e 64
        E 0 9d 32 64
        E 507 88 3e 64
        E 0 8d 32 64
        E 0 98 43 64
        E 0 9d 37 64
        E 504 88 43 64
        E 0 8d 37 64
        E 0 98 42 64
        E 0 9d 36 64
        E 505 88 42 64
        E 0 8d 36 64
        E 0 98 40 64
        E 0 9d 34 64
        E 510 88 40 64
        E 0 8d 34 64
        E 0 98 3e 64
        E 0 9d 32 64
        E 503 88 3e 64
        E 0 8d 32 64
        E 0 98 3d 64
        E 0 9d 31 64
        E 502 88 3d 64
        E 0 8d 31 64
        E 0 98 3b 64
        E 0 9d 2f 64
        E 505 88 3b 64
        E 0 8d 2f 64
        E 0 98 3e 64
        E 0 9d 32 64
        E 253 88 3e 64
        E 0 8d 32 64
        E 0 98 40 64
        E 0 9d 34 64
        E 254 88 40 64
        E 0 8d 34 64
        E 0 98 42 64
        E 0 9d 36 64
        E 505 88 42 64
        E 0 8d 36 64
        E 0 98 36 64
        E 0 9d 2a 64
        E 506 88 36 64
        E 0 8d 2a 64
        E 0 98 3b 64
        E 0 9d 2f 64
        E 2274 88 3b 64
        E 0 8d 2f 64
        E 4041 94 3e 64
        E 0 95 3e 64
        E 0 97 3e 64
        E 0 9e 3e 64
        E 0 98 3e 64
        E 1 9d 32 64
        E 411 84 3e 64
        E 1 85 3e 64
        E 0 87 3e 64
        E 0 8e 3e 64
        E 0 88 3e 64
        E 0 8d 32 64
        E 0 94 4a 64
        E 0 95 4a 64
        E 0 97 4a 64
        E 0 9e 4a 64
        E 0 98 4a 64
        E 0 9d 3e 64
        E 410 84 4a 64
        E 0 85 4a 64
        E 0 87 4a 64
        E 0 8e 4a 64
        E 0 88 4a 64
        E 0 8d 3e 64
        E 0 94 3e 64
        E 0 95 3e 64
        E 0 97 3e 64
        E 0 9e 3e 64
        E 0 98 3e 64
        E 0 9d 32 64
        E 411 84 3e 64
        E 0 85 3e 64
        E 0 87 3e 64
        E 0 8e 3e 64
        E 0 88 3e 64
        E 0 8d 32 64
        E 0 94 3e 64
        E 0 95 3e 64
        E 0 97 3e 64
        E 0 9e 3e 64
        E 0 98 3e 64
        E 0 9d 32 64
        E 413 84 3e 64
        E 1 85 3e 64
        E 0 87 3e 64
        E 0 8e 3e 64
        E 0 88 3e 64
        E 0 8d 32 64
        E 0 94 3e 64
        E 0 95 3e 64
        E 0 97 3e 64
        E 0 9e 3e 64
        E 0 98 3e 64
        E 0 9d 32 64
        E 411 84 3e 64
        E 0 85 3e 64
        E 0 87 3e 64
        E 0 8e 3e 64
        E 0 88 3e 64
        E 0 8d 32 64
        E 0 94 4a 64
        E 1 95 4a 64
        E 1 97 4a 64
        E 0 9e 4a 64
        E 0 98 4a 64
        E 0 9d 3e 64
        E 410 84 4a 64
        E 0 85 4a 64
        E 0 87 4a 64
        E 0 8e 4a 64
        E 0 88 4a 64
        E 0 8d 3e 64
        E 1 94 3e 64
        E 0 95 3e 64
        E 0 97 3e 64
        E 0 9e 3e 64
        E 0 98 3e 64
        E 0 9d 32 64
        E 409 84 3e 64
        E 0 85 3e 64
        E 0 87 3e 64
        E 0 8e 3e 64
        E 0 88 3e 64
        E 0 8d 32 64
        E 0 94 3e 64
        E 0 95 3e 64
        E 0 97 3e 64
        E 0 9e 3e 64
        E 0 98 3e 64
        E 0 9d 32 64
        E 411 84 3e 64
        E 0 85 3e 64
        E 0 87 3e 64
        E 0 8e 3e 64
        E 0 88 3e 64
        E 0 8d 32 64
        E 0 94 3e 64
        E 0 95 3e 64
        E 0 97 3e 64
        E 0 9e 3e 64
        E 0 98 3e 64
        E 0 9d 32 64
        E 412 85 3e 64
        E 0 87 3e 64
        E 0 8e 3e 64
        E 0 88 3e 64
        E 0 8d 32 64
        E 0 95 42 64
        E 0 97 42 64
        E 0 9e 42 64
        E 0 98 3e 64
        E 0 9d 32 64
        E 203 85 42 64
        E 0 87 42 64
        E 0 8e 42 64
        E 0 88 3e 64
        E 0 8d 32 64
        E 0 95 43 64
        E 1 97 43 64
        E 0 9e 43 64
        E 0 98 40 64
        E 0 9d 34 64
        E 207 84 3e 64
        E 0 85 43 64
        E 0 87 43 64
        E 0 8e 43 64
        E 0 88 40 64
        E 0 8d 34 64
        E 0 95 45 64
        E 0 97 45 64
        E 1 9e 45 64
        E 0 98 42 64
        E 0 9d 36 64
        E 411 85 45 64
        E 0 87 45 64
        E 0 8e 45 64
        E 0 88 42 64
        E 0 8d 36 64
        E 1 95 43 64
        E 0 97 43 64
        E 0 9e 43 64
        E 1 98 40 64
        E 0 9d 34 64
        E 409 85 43 64
        E 0 87 43 64
        E 0 8e 43 64
        E 0 88 40 64
        E 0 8d 34 64
        E 0 95 42 64
        E 0 97 42 64
        E 0 9e 42 64
        E 0 98 3e 64
        E 1 9d 32 64
        E 409 85 42 64
        E 0 87 42 64
        E 0 8e 42 64
        E 0 88 3e 64
        E 0 8d 32 64
        E 0 95 42 64
        E 0 97 42 64
        E 0 9e 42 64
        E 0 98 3e 64
        E 0 9d 32 64
        E 206 85 42 64
        E 0 87 42 64
        E 0 8e 42 64
        E 0 88 3e 64
        E 0 8d 32 64
        E 0 95 43 64
        E 1 97 43 64
        E 0 9e 43 64
        E 0 98 40 64
        E 0 9d 34 64
        E 204 85 43 64
        E 0 87 43 64
        E 0 8e 43 64
        E 0 88 40 64
        E 0 8d 34 64
        E 0 95 45 64
        E 0 97 45 64
        E 0 9e 45 64
        E 0 98 42 64
        E 0 9d 36 64
        E 414 85 45 64
        E 0 87 45 64
        E 0 8e 45 64
        E 0 88 42 64
        E 0 8d 36 64
        E 0 95 43 64
        E 1 97 43 64
        E 0 9e 43 64
        E 0 98 40 64
        E 0 9d 34 64
        E 410 85 43 64
        E 0 87 43 64
        E 0 8e 43 64
        E 0 88 40 64
        E 0 8d 34 64
        E 0 95 42 64
        E 0 97 42 64
        E 0 9e 42 64
        E 0 98 3e 64
        E 0 9d 32 64
        E 410 85 42 64
        E 0 94 4e 64
        E 0 95 4a 64
        E 206 84 4e 64
        E 0 85 4a 64
        E 0 94 4f 64
        E 0 95 4c 64
        E 206 84 4f 64
        E 0 85 4c 64
        E 0 87 42 64
        E 0 8e 42 64
        E 0 88 3e 64
        E 0 8d 32 64
        E 0 94 51 64
        E 0 95 4e 64
        E 206 84 51 64
        E 0 85 4e 64
        E 0 94 4f 64
        E 0 95 4c 64
        E 205 84 4f 64
        E 0 85 4c 64
        E 0 94 51 64
        E 0 95 4e 64
        E 206 84 51 64
        E 0 85 4e 64
        E 0 94 4f 64
        E 0 95 4c 64
        E 206 84 4f 64
        E 0 85 4c 64
        E 0 94 4e 64
        E 0 95 4a 64
        E 411 84 4e 64
        E 1 85 4a 64
        E 0 94 4e 64
        E 0 95 4a 64
        E 205 84 4e 64
        E 0 85 4a 64
        E 0 94 4f 64
        E 1 95 4c 64
        E 205 84 4f 64
        E 0 85 4c 64
        E 0 94 51 64
        E 0 95 4e 64
        E 205 84 51 64
        E 0 85 4e 64
        E 0 94 4f 64
        E 1 95 4c 64
        E 204 84 4f 64
        E 0 85 4c 64
        E 0 94 51 64
        E 0 95 4e 64
        E 207 84 51 64
        E 0 85 4e 64
        E 0 94 4f 64
        E 0 95 4c 64
        E 205 84 4f 64
        E 0 85 4c 64
        E 0 94 4e 64
        E 1 95 4a 64
        E 0 97 3e 64
        E 0 9e 3e 64
        E 0 98 3e 64
        E 0 9d 32 64
        E 411 84 4e 64
        E 0 85 4a 64
        E 0 87 3e 64
        E 0 8e 3e 64
        E 0 88 3e 64
        E 0 8d 32 64
        E 0 94 4a 64
        E 0 95 4a 64
        E 0 97 4a 64
        E 0 9e 4a 64
        E 0 98 4a 64
        E 0 9d 3e 64
        E 413 84 4a 64
        E 1 85 4a 64
        E 0 87 4a 64
        E 0 8e 4a 64
        E 0 88 4a 64
        E 0 8d 3e 64
        E 0 94 3e 64
        E 0 95 3e 64
        E 0 97 3e 64
        E 0 9e 3e 64
        E 0 98 3e 64
        E 0 9d 32 64
        E 408 84 3e 64
        E 0 85 3e 64
        E 0 87 3e 64
        E 0 8e 3e 64
        E 0 88 3e 64
        E 0 8d 32 64
        E 0 94 3e 64
        E 1 95 3e 64
        E 0 97 3e 64
        E 0 9e 3e 64
        E 0 98 3e 64
        E 0 9d 32 64
        E 411 84 3e 64
        E 4 85 3e 64
        E 1 87 3e 64
        E 2 8e 3e 64
        E 0 88 3e 64
        E 0 8d 32 64
        E 0 94 3e 64
        E 0 95 3e 64
        E 5 97 3e 64
        E 3 9e 3e 64
        E 1 98 3e 64
        E 0 9d 32 64
        E 396 84 3e 64
        E 0 85 3e 64
        E 0 87 3e 64
        E 0 8e 3e 64
        E 0 88 3e 64
        E 0 8d 32 64
        E 0 94 4a 64
        E 0 95 4a 64
        E 1 97 4a 64
        E 0 9e 4a 64
        E 0 98 4a 64
        E 0 9d 3e 64
        E 412 84 4a 64
        E 0 85 4a 64
        E 0 87 4a 64
        E 0 8e 4a 64
        E 0 88 4a 64
        E 0 8d 3e 64
        E 0 94 3e 64
        E 10 95 3e 64
        E 0 97 3e 64
        E 0 9e 3e 64
        E 1 98 3e 64
        E 0 9d 32 64
        E 399 84 3e 64
        E 0 85 3e 64
        E 0 87 3e 64
        E 0 8e 3e 64
        E 0 88 3e 64
        E 0 8d 32 64
        E 0 94 3e 64
        E 0 95 3e 64
        E 0 97 3e 64
        E 1 9e 3e 64
        E 0 98 3e 64
        E 0 9d 32 64
        E 410 84 3e 64
        E 1 85 3e 64
        E 0 87 3e 64
        E 0 8e 3e 64
        E 0 88 3e 64
        E 0 8d 32 64
        E 0 94 3e 64
        E 0 95 3e 64
        E 0 97 3e 64
        E 0 9e 3e 64
        E 0 98 3e 64
        E 0 9d 32 64
        E 410 84 3e 64
        E 0 85 3e 64
        E 0 87 3e 64
        E 0 8e 3e 64
        E 0 88 3e 64
        E 0 8d 32 64
        E 1 94 4e 64
        E 0 95 4a 64
        E 3 97 4e 64
        E 1 9e 4a 64
        E 0 98 45 64
        E 0 9d 3e 64
        E 200 87 4e 64
        E 1 8e 4a 64
        E 0 97 4f 64
        E 0 9e 4c 64
        E 207 84 4e 64
        E 0 85 4a 64
        E 0 87 4f 64
        E 0 8e 4c 64
        E 0 88 45 64
        E 0 8d 3e 64
        E 0 94 4e 64
        E 0 95 4a 64
        E 0 97 51 64
        E 0 9e 4e 64
        E 0 98 45 64
        E 0 9d 32 64
        E 204 87 51 64
        E 0 8e 4e 64
        E 0 97 4e 64
        E 0 9e 4c 64
        E 205 84 4e 64
        E 0 85 4a 64
        E 0 87 4e 64
        E 0 8e 4c 64
        E 0 88 45 64
        E 0 8d 32 64
        E 0 94 4e 64
        E 0 95 4a 64
        E 0 97 51 64
        E 0 9e 4e 64
        E 0 98 45 64
        E 0 9d 32 64
        E 207 87 51 64
        E 0 8e 4e 64
        E 0 97 4e 64
        E 1 9e 4a 64
        E 205 84 4e 64
        E 0 85 4a 64
        E 0 87 4e 64
        E 0 8e 4a 64
        E 0 88 45 64
        E 0 8d 32 64
        E 0 94 4c 64
        E 0 95 4a 64
        E 0 97 51 64
        E 0 9e 4c 64
        E 0 98 45 64
        E 0 9d 2d 64
        E 205 87 51 64
        E 0 8e 4c 64
        E 0 97 4c 64
        E 0 9e 4a 64
        E 206 84 4c 64
        E 0 85 4a 64
        E 0 87 4c 64
        E 0 8e 4a 64
        E 0 88 45 64
        E 0 8d 2d 64
        E 0 94 4c 64
        E 0 95 4a 64
        E 0 97 51 64
        E 0 9e 4c 64
        E 0 98 45 64
        E 0 9d 39 64
        E 205 87 51 64
        E 0 8e 4c 64
        E 2 97 4c 64
        E 0 9e 4a 64
        E 204 84 4c 64
        E 0 85 4a 64
        E 0 87 4c 64
        E 0 8e 4a 64
        E 0 88 45 64
        E 0 8d 39 64
        E 0 94 4c 64
        E 0 95 4a 64
        E 0 97 51 64
        E 0 9e 4c 64
        E 0 98 45 64
        E 0 9d 2d 64
        E 205 87 51 64
        E 0 8e 4c 64
        E 0 97 4c 64
        E 0 9e 4a 64
        E 207 84 4c 64
        E 0 85 4a 64
        E 0 87 4c 64
        E 0 8e 4a 64
        E 0 88 45 64
        E 0 8d 2d 64
        E 0 94 4c 64
        E 0 95 4a 64
        E 0 97 51 64
        E 0 9e 4c 64
        E 0 98 45 64
        E 0 9d 2d 64
        E 205 87 51 64
        E 0 8e 4c 64
        E 1 97 4c 64
        E 0 9e 4a 64
        E 207 84 4c 64
        E 3 85 4a 64
        E 0 87 4c 64
        E 0 8e 4a 64
        E 0 88 45 64
        E 0 8d 2d 64
        E 0 94 4c 64
        E 1 95 49 64
        E 0 97 51 64
        E 0 9e 4c 64
        E 0 98 45 64
        E 0 9d 2d 64
        E 200 87 51 64
        E 0 8e 4c 64
        E 0 97 4c 64
        E 0 9e 49 64
        E 206 84 4c 64
        E 0 85 49 64
        E 0 87 4c 64
        E 0 8e 49 64
        E 0 88 45 64
        E 0 8d 2d 64
        E 0 94 4c 64
        E 0 95 49 64
        E 1 97 51 64
        E 0 9e 4c 64
        E 0 98 45 64
        E 0 9d 39 64
        E 205 87 51 64
        E 0 8e 4c 64
        E 0 97 4c 64
        E 0 9e 49 64
        E 204 84 4c 64
        E 0 85 49 64
        E 0 87 4c 64
        E 0 8e 49 64
        E 0 88 45 64
        E 0 8d 39 64
        E 0 94 4c 64
        E 0 95 49 64
        E 0 97 51 64
        E 0 9e 4c 64
        E 0 98 45 64
        E 0 9d 2d 64
        E 208 87 51 64
        E 0 8e 4c 64
        E 0 97 4c 64
        E 1 9e 49 64
        E 205 84 4c 64
        E 0 85 49 64
        E 0 87 4c 64
        E 0 8e 49 64
        E 0 88 45 64
        E 0 8d 2d 64
        E 1 94 4c 64
        E 0 95 49 64
        E 0 97 51 64
        E 0 9e 4c 64
        E 0 98 45 64
        E 0 9d 2d 64
        E 205 87 51 64
        E 0 8e 4c 64
        E 1 97 4c 64
        E 0 9e 49 64
        E 203 84 4c 64
        E 0 85 49 64
        E 0 87 4c 64
        E 0 8e 49 64
        E 0 88 45 64
        E 0 8d 2d 64
        E 1 90 4a 64
        E 0 91 42 64
        E 0 92 39 64
        E 0 93 32 64
        E 0 94 4e 64
        E 0 95 4a 64
        E 0 97 4e 64
        E 0 9e 4a 64
        E 0 98 45 64
        E 0 9d 32 64
        E 410 84 4e 64
        E 0 85 4a 64
        E 0 87 4e 64
        E 0 8e 4a 64
        E 0 88 45 64
        E 0 8d 32 64
        E 1 94 4a 64
        E 0 95 4a 64
        E 0 97 4a 64
        E 0 9e 4a 64
        E 0 98 4a 64
        E 0 9d 3e 64
        E 204 80 4a 64
        E 0 81 42 64
        E 0 82 39 64
        E 0 83 32 64
        E 0 90 4a 64
        E 0 91 42 64
        E 0 92 39 64
        E 0 93 32 64
        E 209 80 4a 64
        E 0 81 42 64
        E 0 82 39 64
        E 0 83 32 64
        E 0 84 4a 64
        E 0 85 4a 64
        E 0 87 4a 64
        E 0 8e 4a 64
        E 0 88 4a 64
        E 0 8d 3e 64
        E 0 90 4a 64
        E 0 91 42 64
        E 1 92 39 64
        E 0 93 32 64
        E 0 94 3e 64
        E 0 95 3e 64
        E 0 97 3e 64
        E 0 9e 3e 64
        E 0 98 3e 64
        E 0 9d 32 64
        E 410 80 4a 64
        E 1 81 42 64
        E 0 82 39 64
        E 0 83 32 64
        E 0 84 3e 64
        E 0 85 3e 64
        E 0 87 3e 64
        E 0 8e 3e 64
        E 0 88 3e 64
        E 0 8d 32 64
        E 2 90 4a 64
        E 0 91 42 64
        E 0 92 39 64
        E 0 93 32 64
        E 0 94 3e 64
        E 0 95 3e 64
        E 0 97 3e 64
        E 0 9e 3e 64
        E 0 98 3e 64
        E 1 9d 32 64
        E 406 80 4a 64
        E 0 81 42 64
        E 0 82 39 64
        E 0 83 32 64
        E 0 84 3e 64
        E 0 85 3e 64
        E 0 87 3e 64
        E 0 8e 3e 64
        E 0 88 3e 64
        E 0 8d 32 64
        E 0 90 4a 64
        E 0 91 42 64
        E 0 92 39 64
        E 0 93 32 64
        E 0 94 3e 64
        E 0 95 3e 64
        E 0 97 3e 64
        E 0 9e 3e 64
        E 1 98 3e 64
        E 0 9d 32 64
        E 409 80 4a 64
        E 0 81 42 64
        E 0 82 39 64
        E 1 83 32 64
        E 0 84 3e 64
        E 0 85 3e 64
        E 0 87 3e 64
        E 0 8e 3e 64
        E 0 88 3e 64
        E 0 8d 32 64
        E 0 90 4a 64
        E 0 91 42 64
        E 0 92 39 64
        E 0 93 32 64
        E 0 94 4a 64
        E 0 95 4a 64
        E 0 97 4a 64
        E 0 9e 4a 64
        E 0 98 4a 64
        E 0 9d 3e 64
        E 413 80 4a 64
        E 0 81 42 64
        E 0 82 39 64
        E 0 83 32 64
        E 0 84 4a 64
        E 0 85 4a 64
        E 0 87 4a 64
        E 0 8e 4a 64
        E 0 88 4a 64
        E 0 8d 3e 64
        E 0 90 4a 64
        E 0 91 42 64
        E 0 92 39 64
        E 0 93 32 64
        E 0 94 3e 64
        E 0 95 3e 64
        E 0 97 3e 64
        E 0 9e 3e 64
        E 0 98 3e 64
        E 0 9d 32 64
        E 410 84 3e 64
        E 0 85 3e 64
        E 0 87 3e 64
        E 0 8e 3e 64
        E 0 88 3e 64
        E 0 8d 32 64
        E 0 94 3e 64
        E 0 95 3e 64
        E 0 97 3e 64
        E 0 9e 3e 64
        E 0 98 3e 64
        E 0 9d 32 64
        E 410 80 4a 64
        E 1 81 42 64
        E 0 82 39 64
        E 0 83 32 64
        E 0 84 3e 64
        E 0 85 3e 64
        E 0 87 3e 64
        E 0 8e 3e 64
        E 0 88 3e 64
        E 0 8d 32 64
        E 0 90 4a 64
        E 0 91 42 64
        E 0 92 39 64
        E 0 93 32 64
        E 0 94 3e 64
        E 0 95 3e 64
        E 0 97 3e 64
        E 0 9e 3e 64
        E 0 98 3e 64
        E 0 9d 32 64
        E 413 85 3e 64
        E 0 87 3e 64
        E 0 8e 3e 64
        E 0 95 4e 64
        E 0 97 4e 64
        E 0 9e 4a 64
        E 205 85 4e 64
        E 0 87 4e 64
        E 0 8e 4a 64
        E 0 95 4f 64
        E 0 97 4f 64
        E 0 9e 4c 64
        E 206 80 4a 64
        E 0 81 42 64
        E 0 82 39 64
        E 0 83 32 64
        E 0 84 3e 64
        E 0 85 4f 64
        E 0 87 4f 64
        E 0 8e 4c 64
        E 0 88 3e 64
        E 0 8d 32 64
        E 0 95 51 64
        E 0 97 51 64
        E 0 9e 4e 64
        E 204 85 51 64
        E 0 87 51 64
        E 0 8e 4e 64
        E 0 95 4f 64
        E 0 97 4f 64
        E 1 9e 4c 64
        E 205 85 4f 64
        E 0 87 4f 64
        E 0 8e 4c 64
        E 1 95 51 64
        E 0 97 51 64
        E 0 9e 4e 64
        E 205 85 51 64
        E 0 87 51 64
        E 0 8e 4e 64
        E 0 95 4f 64
        E 0 97 4f 64
        E 0 9e 4c 64
        E 207 85 4f 64
        E 0 87 4f 64
        E 0 8e 4c 64
        E 0 95 4e 64
        E 0 97 4e 64
        E 0 9e 4a 64
        E 412 85 4e 64
        E 0 87 4e 64
        E 0 8e 4a 64
        E 0 95 4e 64
        E 0 97 4e 64
        E 1 9e 4a 64
        E 204 85 4e 64
        E 0 87 4e 64
        E 0 8e 4a 64
        E 0 95 4f 64
        E 0 97 4f 64
        E 0 9e 4c 64
        E 206 85 4f 64
        E 0 87 4f 64
        E 0 8e 4c 64
        E 0 95 51 64
        E 0 97 51 64
        E 0 9e 4e 64
        E 205 85 51 64
        E 1 87 51 64
        E 0 8e 4e 64
        E 0 95 4f 64
        E 0 97 4f 64
        E 0 9e 4c 64
        E 204 85 4f 64
        E 0 87 4f 64
        E 0 8e 4c 64
        E 0 95 51 64
        E 0 97 51 64
        E 0 9e 4e 64
        E 205 85 51 64
        E 0 87 51 64
        E 0 8e 4e 64
        E 0 95 4e 64
        E 0 97 4e 64
        E 0 9e 4a 64
        E 208 85 4e 64
        E 0 87 4e 64
        E 0 8e 4a 64
        E 0 90 49 64
        E 0 91 40 64
        E 0 92 39 64
        E 0 93 2d 64
        E 0 95 4c 64
        E 0 97 4c 64
        E 0 9e 49 64
        E 0 98 39 64
        E 0 9d 2d 64
        E 412 87 4c 64
        E 1 8e 49 64
        E 0 88 39 64
        E 1 8d 2d 64
        E 0 97 45 64
        E 1 9e 45 64
        E 0 98 45 64
        E 2 9d 39 64
        E 200 80 49 64
        E 0 81 40 64
        E 0 82 39 64
        E 0 83 2d 64
        E 0 90 49 64
        E 0 91 40 64
        E 0 92 39 64
        E 0 93 2d 64
        E 205 80 49 64
        E 0 81 40 64
        E 0 82 39 64
        E 0 83 2d 64
        E 0 85 4c 64
        E 0 87 45 64
        E 0 8e 45 64
        E 0 88 45 64
        E 0 8d 39 64
        E 0 90 49 64
        E 0 91 40 64
        E 0 92 39 64
        E 0 93 2d 64
        E 0 97 39 64
        E 0 9e 39 64
        E 0 98 39 64
        E 0 9d 2d 64
        E 410 80 49 64
        E 0 81 40 64
        E 0 82 39 64
        E 0 83 2d 64
        E 0 87 39 64
        E 0 8e 39 64
        E 0 88 39 64
        E 0 8d 2d 64
        E 1 90 49 64
        E 0 91 40 64
        E 0 92 39 64
        E 0 93 2d 64
        E 0 97 39 64
        E 0 9e 39 64
        E 0 98 39 64
        E 0 9d 2d 64
        E 412 80 49 64
        E 0 81 40 64
        E 0 82 39 64
        E 0 83 2d 64
        E 0 87 39 64
        E 0 8e 39 64
        E 0 88 39 64
        E 0 8d 2d 64
        E 0 90 49 64
        E 0 91 40 64
        E 0 92 39 64
        E 0 93 2d 64
        E 0 97 39 64
        E 0 9e 39 64
        E 0 98 39 64
        E 0 9d 2d 64
        E 412 80 49 64
        E 0 81 40 64
        E 0 82 39 64
        E 0 83 2d 64
        E 0 87 39 64
        E 0 8e 39 64
        E 0 88 39 64
        E 0 8d 2d 64
        E 1 90 49 64
        E 0 91 40 64
        E 0 92 39 64
        E 0 93 2d 64
        E 0 97 45 64
        E 1 9e 45 64
        E 0 98 45 64
        E 0 9d 39 64
        E 408 80 49 64
        E 0 81 40 64
        E 0 82 39 64
        E 0 83 2d 64
        E 0 87 45 64
        E 0 8e 45 64
        E 0 88 45 64
        E 0 8d 39 64
        E 0 90 49 64
        E 0 91 40 64
        E 0 92 39 64
        E 0 93 2d 64
        E 0 97 39 64
        E 0 9e 39 64
        E 1 98 39 64
        E 0 9d 2d 64
        E 411 87 39 64
        E 0 8e 39 64
        E 0 88 39 64
        E 0 8d 2d 64
        E 0 97 39 64
        E 0 9e 39 64
        E 0 98 39 64
        E 0 9d 2d 64
        E 412 80 49 64
        E 0 81 40 64
        E 0 82 39 64
        E 0 83 2d 64
        E 0 87 39 64
        E 0 8e 39 64
        E 0 88 39 64
        E 0 8d 2d 64
        E 1 90 49 64
        E 0 91 40 64
        E 0 92 39 64
        E 0 93 2d 64
        E 0 97 39 64
        E 0 9e 39 64
        E 0 98 39 64
        E 0 9d 2d 64
        E 411 87 39 64
        E 0 8e 39 64
        E 0 95 4c 64
        E 0 97 4c 64
        E 0 9e 49 64
        E 204 85 4c 64
        E 0 87 4c 64
        E 0 8e 49 64
        E 0 95 4e 64
        E 0 97 4e 64
        E 1 9e 4a 64
        E 204 80 49 64
        E 0 81 40 64
        E 0 82 39 64
        E 0 83 2d 64
        E 0 85 4e 64
        E 0 87 4e 64
        E 0 8e 4a 64
        E 0 88 39 64
        E 0 8d 2d 64
        E 0 95 4f 64
        E 0 97 4f 64
        E 0 9e 4c 64
        E 208 85 4f 64
        E 0 87 4f 64
        E 0 8e 4c 64
        E 0 95 4e 64
        E 0 97 4e 64
        E 0 9e 4a 64
        E 206 85 4e 64
        E 0 87 4e 64
        E 0 8e 4a 64
        E 0 95 4f 64
        E 0 97 4f 64
        E 0 9e 4c 64
        E 203 85 4f 64
        E 0 87 4f 64
        E 0 8e 4c 64
        E 1 95 4e 64
        E 0 97 4e 64
        E 0 9e 4a 64
        E 207 85 4e 64
        E 0 87 4e 64
        E 0 8e 4a 64
        E 0 95 4c 64
        E 0 97 4c 64
        E 0 9e 49 64
        E 410 85 4c 64
        E 0 87 4c 64
        E 0 8e 49 64
        E 0 95 4c 64
        E 0 97 4c 64
        E 0 9e 49 64
        E 206 85 4c 64
        E 1 87 4c 64
        E 0 8e 49 64
        E 0 95 4e 64
        E 0 97 4e 64
        E 0 9e 4a 64
        E 205 85 4e 64
        E 0 87 4e 64
        E 0 8e 4a 64
        E 0 95 4f 64
        E 0 97 4f 64
        E 0 9e 4c 64
        E 206 85 4f 64
        E 0 87 4f 64
        E 0 8e 4c 64
        E 0 95 4e 64
        E 0 97 4e 64
        E 0 9e 4a 64
        E 204 85 4e 64
        E 0 87 4e 64
        E 0 8e 4a 64
        E 1 95 4f 64
        E 0 97 4f 64
        E 0 9e 4c 64
        E 206 85 4f 64
        E 0 87 4f 64
        E 0 8e 4c 64
        E 0 95 4e 64
        E 0 97 4e 64
        E 0 9e 4a 64
        E 208 85 4e 64
        E 0 87 4e 64
        E 0 8e 4a 64
        E 0 90 49 64
        E 1 91 40 64
        E 0 92 3d 64
        E 0 93 39 64
        E 0 95 4c 64
        E 0 97 4c 64
        E 0 9e 49 64
        E 0 98 39 64
        E 0 9d 2d 64
        E 407 87 4c 64
        E 0 8e 49 64
        E 0 88 39 64
        E 0 8d 2d 64
        E 0 97 45 64
        E 0 9e 45 64
        E 0 98 45 64
        E 0 9d 39 64
        E 413 85 4c 64
        E 1 87 45 64
        E 0 8e 45 64
        E 0 88 45 64
        E 0 8d 39 64
        E 0 97 39 64
        E 0 9e 39 64
        E 0 98 39 64
        E 0 9d 2d 64
        E 410 87 39 64
        E 0 8e 39 64
        E 0 88 39 64
        E 0 8d 2d 64
        E 0 97 39 64
        E 0 9e 39 64
        E 0 98 39 64
        E 0 9d 2d 64
        E 412 80 49 64
        E 0 81 40 64
        E 0 82 3d 64
        E 0 83 39 64
        E 0 87 39 64
        E 0 8e 39 64
        E 0 88 39 64
        E 0 8d 2d 64
        E 0 90 4a 64
        E 0 91 42 64
        E 0 92 39 64
        E 0 93 39 64
        E 0 97 39 64
        E 1 9e 39 64
        E 0 98 39 64
        E 0 9d 2d 64
        E 410 87 39 64
        E 0 8e 39 64
        E 0 88 39 64
        E 0 8d 2d 64
        E 1 97 45 64
        E 0 9e 45 64
        E 0 98 45 64
        E 0 9d 39 64
        E 410 87 45 64
        E 0 8e 45 64
        E 0 88 45 64
        E 0 8d 39 64
        E 0 97 39 64
        E 0 9e 39 64
        E 0 98 39 64
        E 0 9d 2d 64
        E 411 87 39 64
        E 0 8e 39 64
        E 0 88 39 64
        E 0 8d 2d 64
        E 0 97 39 64
        E 0 9e 39 64
        E 0 98 39 64
        E 0 9d 2d 64
        E 412 80 4a 64
        E 0 81 42 64
        E 0 82 39 64
        E 0 83 39 64
        E 0 87 39 64
        E 0 8e 39 64
        E 0 88 39 64
        E 0 8d 2d 64
        E 0 90 4c 64
        E 0 91 43 64
        E 1 92 3d 64
        E 0 93 39 64
        E 0 97 39 64
        E 0 9e 39 64
        E 0 98 39 64
        E 0 9d 2d 64
        E 411 87 39 64
        E 0 8e 39 64
        E 0 88 39 64
        E 0 8d 2d 64
        E 0 97 45 64
        E 0 9e 45 64
        E 0 98 45 64
        E 1 9d 39 64
        E 411 87 45 64
        E 0 8e 45 64
        E 0 88 45 64
        E 0 8d 39 64
        E 0 97 39 64
        E 0 9e 39 64
        E 0 98 39 64
        E 0 9d 2d 64
        E 411 87 39 64
        E 0 8e 39 64
        E 0 88 39 64
        E 0 8d 2d 64
        E 0 97 39 64
        E 0 9e 39 64
        E 0 98 39 64
        E 0 9d 2d 64
        E 412 80 4c 64
        E 0 81 43 64
        E 0 82 3d 64
        E 0 83 39 64
        E 0 87 39 64
        E 0 8e 39 64
        E 0 88 39 64
        E 0 8d 2d 64
        E 0 90 4a 64
        E 0 91 42 64
        E 0 92 39 64
        E 0 93 39 64
        E 0 97 39 64
        E 0 9e 39 64
        E 0 98 39 64
        E 0 9d 2d 64
        E 411 87 39 64
        E 0 8e 39 64
        E 0 88 39 64
        E 0 8d 2d 64
        E 0 97 45 64
        E 0 9e 45 64
        E 1 98 45 64
        E 0 9d 39 64
        E 409 87 45 64
        E 0 8e 45 64
        E 0 88 45 64
        E 0 8d 39 64
        E 0 97 39 64
        E 0 9e 39 64
        E 0 98 39 64
        E 0 9d 2d 64
        E 413 87 39 64
        E 0 8e 39 64
        E 0 88 39 64
        E 0 8d 2d 64
        E 0 97 39 64
        E 0 9e 39 64
        E 0 98 39 64
        E 0 9d 2d 64
        E 412 80 4a 64
        E 0 81 42 64
        E 1 82 39 64
        E 0 83 39 64
        E 0 87 39 64
        E 0 8e 39 64
        E 0 88 39 64
        E 0 8d 2d 64
        E 0 90 4a 64
        E 0 91 40 64
        E 0 92 39 64
        E 0 93 39 64
        E 0 97 39 64
        E 0 9e 39 64
        E 0 98 39 64
        E 0 9d 2d 64
        E 409 87 39 64
        E 0 8e 39 64
        E 0 88 39 64
        E 0 8d 2d 64
        E 0 97 45 64
        E 0 9e 45 64
        E 0 98 45 64
        E 0 9d 39 64
        E 411 87 45 64
        E 0 8e 45 64
        E 0 88 45 64
        E 0 8d 39 64
        E 0 97 39 64
        E 0 9e 39 64
        E 0 98 39 64
        E 0 9d 2d 64
        E 413 87 39 64
        E 0 8e 39 64
        E 0 88 39 64
        E 0 8d 2d 64
        E 0 97 39 64
        E 1 9e 39 64
        E 0 98 39 64
        E 0 9d 2d 64
        E 409 80 4a 64
        E 0 81 40 64
        E 0 82 39 64
        E 0 83 39 64
        E 0 87 39 64
        E 0 8e 39 64
        E 0 88 39 64
        E 0 8d 2d 64
        E 0 90 49 64
        E 0 91 40 64
        E 0 92 39 64
        E 0 93 39 64
        E 0 97 39 64
        E 0 9e 39 64
        E 0 98 39 64
        E 0 9d 2d 64
        E 412 87 39 64
        E 0 8e 39 64
        E 0 88 39 64
        E 0 8d 2d 64
        E 0 97 45 64
        E 0 9e 45 64
        E 0 98 45 64
        E 0 9d 39 64
        E 410 87 45 64
        E 0 8e 45 64
        E 0 88 45 64
        E 0 8d 39 64
        E 0 97 39 64
        E 1 9e 39 64
        E 0 98 39 64
        E 0 9d 2d 64
        E 411 87 39 64
        E 0 8e 39 64
        E 0 88 39 64
        E 0 8d 2d 64
        E 0 97 39 64
        E 0 9e 39 64
        E 0 98 39 64
        E 0 9d 2d 64
        E 413 80 49 64
        E 0 81 40 64
        E 0 82 39 64
        E 0 83 39 64
        E 0 87 39 64
        E 0 8e 39 64
        E 0 88 39 64
        E 0 8d 2d 64
        E 0 97 39 64
        E 0 9e 39 64
        E 0 98 39 64
        E 0 9d 2d 64
        E 823 87 39 64
        E 0 8e 39 64
        E 0 88 39 64
        E 0 8d 2d 64
        E 821 90 49 64
        E 0 91 40 64
        E 0 92 3d 64
        E 1 93 39 64
        E 0 97 39 64
        E 0 9e 39 64
        E 0 98 39 64
        E 0 9d 2d 64
        E 410 87 39 64
        E 0 8e 39 64
        E 0 88 39 64
        E 0 8d 2d 64
        E 0 97 45 64
        E 0 9e 45 64
        E 0 98 45 64
        E 0 9d 39 64
        E 412 87 45 64
        E 0 8e 45 64
        E 0 88 45 64
        E 0 8d 39 64
        E 0 97 39 64
        E 0 9e 39 64
        E 0 98 39 64
        E 0 9d 2d 64
        E 412 87 39 64
        E 0 8e 39 64
        E 0 88 39 64
        E 0 8d 2d 64
        E 0 97 39 64
        E 0 9e 39 64
        E 0 98 39 64
        E 0 9d 2d 64
        E 411 80 49 64
        E 0 81 40 64
        E 0 82 3d 64
        E 0 83 39 64
        E 0 87 39 64
        E 0 8e 39 64
        E 0 88 39 64
        E 0 8d 2d 64
        E 0 90 4a 64
        E 0 91 42 64
        E 0 92 39 64
        E 0 93 39 64
        E 0 97 39 64
        E 1 9e 39 64
        E 0 98 39 64
        E 0 9d 2d 64
        E 410 87 39 64
        E 1 8e 39 64
        E 0 88 39 64
        E 0 8d 2d 64
        E 0 97 45 64
        E 0 9e 45 64
        E 0 98 45 64
        E 0 9d 39 64
        E 411 87 45 64
        E 0 8e 45 64
        E 0 88 45 64
        E 0 8d 39 64
        E 0 97 39 64
        E 0 9e 39 64
        E 0 98 39 64
        E 0 9d 2d 64
        E 411 87 39 64
        E 0 8e 39 64
        E 0 88 39 64
        E 0 8d 2d 64
        E 0 97 39 64
        E 0 9e 39 64
        E 0 98 39 64
        E 0 9d 2d 64
        E 410 80 4a 64
        E 0 81 42 64
        E 2 82 39 64
        E 0 83 39 64
        E 0 87 39 64
        E 0 8e 39 64
        E 0 88 39 64
        E 0 8d 2d 64
        E 1 90 4c 64
        E 0 91 43 64
        E 0 92 3d 64
        E 0 93 39 64
        E 0 97 39 64
        E 0 9e 39 64
        E 0 98 39 64
        E 0 9d 2d 64
        E 413 87 39 64
        E 0 8e 39 64
        E 0 88 39 64
        E 0 8d 2d 64
        E 0 97 45 64
        E 0 9e 45 64
        E 0 98 45 64
        E 0 9d 39 64
        E 410 87 45 64
        E 0 8e 45 64
        E 0 88 45 64
        E 0 8d 39 64
        E 0 97 39 64
        E 0 9e 39 64
        E 0 98 39 64
        E 0 9d 2d 64
        E 409 87 39 64
        E 0 8e 39 64
        E 0 88 39 64
        E 0 8d 2d 64
        E 0 97 39 64
        E 0 9e 39 64
        E 0 98 39 64
        E 1 9d 2d 64
        E 413 80 4c 64
        E 0 81 43 64
        E 1 82 3d 64
        E 0 83 39 64
        E 0 87 39 64
        E 0 8e 39 64
        E 0 88 39 64
        E 0 8d 2d 64
        E 0 90 4a 64
        E 0 91 42 64
        E 0 92 39 64
        E 0 93 39 64
        E 0 97 39 64
        E 1 9e 39 64
        E 0 98 39 64
        E 0 9d 2d 64
        E 408 87 39 64
        E 0 8e 39 64
        E 0 88 39 64
        E 0 8d 2d 64
        E 0 97 45 64
        E 0 9e 45 64
        E 0 98 45 64
        E 1 9d 39 64
        E 412 87 45 64
        E 0 8e 45 64
        E 0 88 45 64
        E 1 8d 39 64
        E 0 97 39 64
        E 0 9e 39 64
        E 0 98 39 64
        E 0 9d 2d 64
        E 407 87 39 64
        E 0 8e 39 64
        E 0 88 39 64
        E 0 8d 2d 64
        E 0 97 39 64
        E 1 9e 39 64
        E 0 98 39 64
        E 0 9d 2d 64
        E 415 80 4a 64
        E 0 81 42 64
        E 0 82 39 64
        E 0 83 39 64
        E 0 87 39 64
        E 0 8e 39 64
        E 0 88 39 64
        E 0 8d 2d 64
        E 0 90 4a 64
        E 0 91 40 64
        E 0 92 39 64
        E 0 93 39 64
        E 0 97 39 64
        E 0 9e 39 64
        E 0 98 39 64
        E 0 9d 2d 64
        E 408 87 39 64
        E 0 8e 39 64
        E 0 88 39 64
        E 1 8d 2d 64
        E 0 97 45 64
        E 0 9e 45 64
        E 0 98 45 64
        E 0 9d 39 64
        E 411 87 45 64
        E 0 8e 45 64
        E 0 88 45 64
        E 0 8d 39 64
        E 0 97 39 64
        E 0 9e 39 64
        E 0 98 39 64
        E 0 9d 2d 64
        E 413 80 4a 64
        E 0 81 40 64
        E 0 82 39 64
        E 0 83 39 64
        E 0 87 39 64
        E 0 8e 39 64
        E 0 88 39 64
        E 0 8d 2d 64
        E 0 90 4a 64
        E 0 91 40 64
        E 0 92 39 64
        E 1 93 39 64
        E 0 97 39 64
        E 0 9e 39 64
        E 0 98 39 64
        E 0 9d 2d 64
        E 411 80 4a 64
        E 0 81 40 64
        E 0 82 39 64
        E 0 83 39 64
        E 0 87 39 64
        E 0 8e 39 64
        E 0 88 39 64
        E 0 8d 2d 64
        E 0 90 49 64
        E 0 91 40 64
        E 0 92 39 64
        E 0 93 39 64
        E 0 97 39 64
        E 0 9e 39 64
        E 0 98 39 64
        E 0 9d 2d 64
        E 409 87 39 64
        E 1 8e 39 64
        E 1 88 39 64
        E 0 8d 2d 64
        E 1 97 45 64
        E 0 9e 45 64
        E 0 98 45 64
        E 0 9d 39 64
        E 408 87 45 64
        E 0 8e 45 64
        E 0 88 45 64
        E 0 8d 39 64
        E 0 97 39 64
        E 0 9e 39 64
        E 0 98 39 64
        E 0 9d 2d 64
        E 413 87 39 64
        E 0 8e 39 64
        E 0 88 39 64
        E 0 8d 2d 64
        E 0 97 39 64
        E 0 9e 39 64
        E 0 98 39 64
        E 0 9d 2d 64
        E 412 80 49 64
        E 0 81 40 64
        E 0 82 39 64
        E 0 83 39 64
        E 0 87 39 64
        E 0 8e 39 64
        E 0 88 39 64
        E 0 8d 2d 64
        E 0 90 4c 64
        E 0 91 43 64
        E 0 92 39 64
        E 0 93 39 64
        E 0 94 4c 64
        E 1 95 49 64
        E 0 97 4c 64
        E 0 9e 49 64
        E 0 98 45 64
        E 0 9d 2d 64
        E 409 84 4c 64
        E 0 85 49 64
        E 0 87 4c 64
        E 0 8e 49 64
        E 0 88 45 64
        E 0 8d 2d 64
        E 0 94 51 64
        E 0 95 4c 64
        E 0 97 51 64
        E 0 9e 4c 64
        E 0 98 49 64
        E 0 9d 39 64
        E 412 82 39 64
        E 0 84 51 64
        E 0 85 4c 64
        E 0 87 51 64
        E 0 8e 4c 64
        E 0 88 49 64
        E 0 8d 39 64
        E 0 92 3d 64
        E 0 94 4c 64
        E 1 95 49 64
        E 0 97 4c 64
        E 0 9e 49 64
        E 0 98 45 64
        E 0 9d 2d 64
        E 410 84 4c 64
        E 0 85 49 64
        E 0 87 4c 64
        E 0 8e 49 64
        E 0 88 45 64
        E 0 8d 2d 64
        E 0 94 4c 64
        E 0 95 49 64
        E 0 97 4c 64
        E 1 9e 49 64
        E 1 98 45 64
        E 0 9d 2d 64
        E 411 80 4c 64
        E 0 81 43 64
        E 0 82 3d 64
        E 0 83 39 64
        E 0 84 4c 64
        E 0 85 49 64
        E 0 87 4c 64
        E 0 8e 49 64
        E 0 88 45 64
        E 0 8d 2d 64
        E 1 90 4a 64
        E 0 91 42 64
        E 0 92 39 64
        E 0 93 32 64
        E 0 94 4e 64
        E 0 95 4a 64
        E 0 97 4e 64
        E 0 9e 4a 64
        E 0 98 45 64
        E 0 9d 32 64
        E 408 84 4e 64
        E 0 85 4a 64
        E 0 87 4e 64
        E 0 8e 4a 64
        E 0 88 45 64
        E 0 8d 32 64
        E 0 94 51 64
        E 0 95 4e 64
        E 0 97 51 64
        E 0 9e 4e 64
        E 0 98 4a 64
        E 0 9d 3e 64
        E 413 84 51 64
        E 0 85 4e 64
        E 0 87 51 64
        E 0 8e 4e 64
        E 0 88 4a 64
        E 0 8d 3e 64
        E 0 94 4e 64
        E 0 95 4a 64
        E 0 97 4e 64
        E 0 9e 4a 64
        E 0 98 45 64
        E 0 9d 32 64
        E 412 84 4e 64
        E 0 85 4a 64
        E 0 87 4e 64
        E 0 8e 4a 64
        E 0 88 45 64
        E 0 8d 32 64
        E 0 94 4e 64
        E 0 95 4a 64
        E 0 97 4e 64
        E 0 9e 4a 64
        E 0 98 45 64
        E 0 9d 32 64
        E 409 80 4a 64
        E 0 81 42 64
        E 1 82 39 64
        E 0 83 32 64
        E 0 84 4e 64
        E 0 85 4a 64
        E 0 87 4e 64
        E 0 8e 4a 64
        E 0 88 45 64
        E 0 8d 32 64
        E 0 90 4a 64
        E 0 91 40 64
        E 0 92 39 64
        E 0 93 39 64
        E 1 94 4c 64
        E 0 95 4a 64
        E 0 97 4c 64
        E 0 9e 4a 64
        E 0 98 45 64
        E 0 9d 2d 64
        E 412 84 4c 64
        E 0 85 4a 64
        E 0 87 4c 64
        E 0 8e 4a 64
        E 0 88 45 64
        E 0 8d 2d 64
        E 0 94 51 64
        E 0 95 4c 64
        E 0 97 51 64
        E 0 9e 4c 64
        E 0 98 4a 64
        E 0 9d 39 64
        E 410 84 51 64
        E 0 85 4c 64
        E 0 87 51 64
        E 0 8e 4c 64
        E 0 88 4a 64
        E 0 8d 39 64
        E 0 94 4c 64
        E 0 95 4a 64
        E 0 97 4c 64
        E 1 9e 4a 64
        E 0 98 45 64
        E 0 9d 2d 64
        E 411 84 4c 64
        E 0 85 4a 64
        E 0 87 4c 64
        E 0 8e 4a 64
        E 0 88 45 64
        E 0 8d 2d 64
        E 0 94 4c 64
        E 0 95 4a 64
        E 0 97 4c 64
        E 0 9e 4a 64
        E 0 98 45 64
        E 0 9d 2d 64
        E 411 80 4a 64
        E 0 83 39 64
        E 0 84 4c 64
        E 0 85 4a 64
        E 0 87 4c 64
        E 0 8e 4a 64
        E 0 88 45 64
        E 0 8d 2d 64
        E 0 90 49 64
        E 0 93 2d 64
        E 0 94 4c 64
        E 0 95 49 64
        E 0 97 4c 64
        E 0 9e 49 64
        E 0 98 45 64
        E 0 9d 2d 64
        E 414 84 4c 64
        E 0 85 49 64
        E 0 87 4c 64
        E 0 8e 49 64
        E 0 88 45 64
        E 0 8d 2d 64
        E 0 94 51 64
        E 0 95 4c 64
        E 0 97 51 64
        E 0 9e 4c 64
        E 0 98 49 64
        E 1 9d 39 64
        E 409 84 51 64
        E 0 85 4c 64
        E 0 87 51 64
        E 0 8e 4c 64
        E 0 88 49 64
        E 0 8d 39 64
        E 0 94 4c 64
        E 0 95 49 64
        E 0 97 4c 64
        E 0 9e 49 64
        E 0 98 45 64
        E 0 9d 2d 64
        E 410 84 4c 64
        E 0 85 49 64
        E 0 87 4c 64
        E 0 8e 49 64
        E 0 88 45 64
        E 0 8d 2d 64
        E 0 94 4c 64
        E 0 95 49 64
        E 0 97 4c 64
        E 0 9e 49 64
        E 0 98 45 64
        E 0 9d 2d 64
        E 412 80 49 64
        E 1 81 40 64
        E 0 82 39 64
        E 0 83 2d 64
        E 0 84 4c 64
        E 0 85 49 64
        E 0 87 4c 64
        E 0 8e 49 64
        E 0 88 45 64
        E 0 8d 2d 64
        E 0 90 4a 64
        E 0 91 42 64
        E 0 92 39 64
        E 0 93 32 64
        E 0 94 4e 64
        E 0 95 4a 64
        E 0 97 4e 64
        E 0 9e 4a 64
        E 0 98 45 64
        E 0 9d 32 64
        E 411 84 4e 64
        E 0 85 4a 64
        E 0 87 4e 64
        E 0 8e 4a 64
        E 0 88 45 64
        E 0 8d 32 64
        E 1 94 4a 64
        E 0 95 4a 64
        E 0 97 4a 64
        E 0 9e 4a 64
        E 0 98 4a 64
        E 0 9d 3e 64
        E 410 84 4a 64
        E 0 85 4a 64
        E 0 87 4a 64
        E 0 8e 4a 64
        E 0 88 4a 64
        E 1 8d 3e 64
        E 0 94 3e 64
        E 0 95 3e 64
        E 0 97 3e 64
        E 0 9e 3e 64
        E 0 98 3e 64
        E 0 9d 32 64
        E 410 84 3e 64
        E 0 85 3e 64
        E 0 87 3e 64
        E 0 8e 3e 64
        E 0 88 3e 64
        E 0 8d 32 64
        E 0 94 3e 64
        E 0 95 3e 64
        E 0 97 3e 64
        E 1 9e 3e 64
        E 0 98 3e 64
        E 0 9d 32 64
        E 411 80 4a 64
        E 0 81 42 64
        E 0 82 39 64
        E 0 83 32 64
        E 0 84 3e 64
        E 0 85 3e 64
        E 0 87 3e 64
        E 0 8e 3e 64
        E 0 88 3e 64
        E 0 8d 32 64
        E 0 94 3e 64
        E 0 95 3e 64
        E 0 97 3e 64
        E 0 9e 3e 64
        E 0 98 3e 64
        E 0 9d 32 64
        E 411 84 3e 64
        E 0 85 3e 64
        E 0 87 3e 64
        E 0 8e 3e 64
        E 0 88 3e 64
        E 0 8d 32 64
        E 0 94 4a 64
        E 0 95 4a 64
        E 0 97 4a 64
        E 0 9e 4a 64
        E 0 98 4a 64
        E 0 9d 3e 64
        E 411 84 4a 64
        E 0 85 4a 64
        E 0 87 4a 64
        E 0 8e 4a 64
        E 0 88 4a 64
        E 0 8d 3e 64
        E 0 94 3e 64
        E 0 95 3e 64
        E 0 97 3e 64
        E 1 9e 3e 64
        E 0 98 3e 64
        E 0 9d 32 64
        E 411 84 3e 64
        E 0 85 3e 64
        E 0 87 3e 64
        E 0 8e 3e 64
        E 0 88 3e 64
        E 0 8d 32 64
        E 1 94 3e 64
        E 0 95 3e 64
        E 0 97 3e 64
        E 0 9e 3e 64
        E 0 98 3e 64
        E 0 9d 32 64
        E 411 84 3e 64
        E 0 85 3e 64
        E 0 87 3e 64
        E 0 8e 3e 64
        E 0 88 3e 64
        E 0 8d 32 64
        E 0 90 4a 64
        E 0 91 42 64
        E 0 92 39 64
        E 0 93 32 64
        E 0 94 3e 64
        E 0 95 3e 64
        E 0 97 3e 64
        E 1 9e 3e 64
        E 0 98 3e 64
        E 0 9d 32 64
        E 410 84 3e 64
        E 0 85 3e 64
        E 0 87 3e 64
        E 0 8e 3e 64
        E 0 8d 32 64
        E 0 94 51 64
        E 0 95 4a 64
        E 0 97 51 64
        E 0 9e 4e 64
        E 1 9d 3e 64
        E 205 84 51 64
        E 0 87 51 64
        E 0 8e 4e 64
        E 0 94 4e 64
        E 0 97 4e 64
        E 0 9e 4a 64
        E 204 84 4e 64
        E 0 85 4a 64
        E 0 87 4e 64
        E 0 8e 4a 64
        E 0 88 3e 64
        E 0 8d 3e 64
        E 0 94 51 64
        E 0 95 4a 64
        E 0 97 51 64
        E 0 9e 4e 64
        E 0 98 45 64
        E 0 9d 32 64
        E 208 84 51 64
        E 0 87 51 64
        E 0 8e 4e 64
        E 0 94 4e 64
        E 0 97 4e 64
        E 0 9e 4a 64
        E 205 84 4e 64
        E 0 85 4a 64
        E 0 87 4e 64
        E 0 8e 4a 64
        E 0 88 45 64
        E 0 8d 32 64
        E 0 94 51 64
        E 0 95 4a 64
        E 0 97 51 64
        E 0 9e 4e 64
        E 1 98 45 64
        E 0 9d 32 64
        E 204 84 51 64
        E 0 87 51 64
        E 0 8e 4e 64
        E 0 94 4e 64
        E 0 97 4e 64
        E 0 9e 4a 64
        E 207 80 4a 64
        E 0 81 42 64
        E 0 82 39 64
        E 0 83 32 64
        E 0 84 4e 64
        E 0 85 4a 64
        E 0 87 4e 64
        E 0 8e 4a 64
        E 0 88 45 64
        E 0 8d 32 64
        E 0 90 4a 64
        E 1 91 40 64
        E 0 92 39 64
        E 0 93 39 64
        E 0 94 4c 64
        E 0 95 4a 64
        E 0 97 51 64
        E 0 9e 4c 64
        E 0 98 45 64
        E 0 9d 2d 64
        E 202 87 51 64
        E 0 8e 4c 64
        E 0 97 4c 64
        E 0 9e 4a 64
        E 207 84 4c 64
        E 0 85 4a 64
        E 0 87 4c 64
        E 0 8e 4a 64
        E 0 88 45 64
        E 0 8d 2d 64
        E 0 94 4c 64
        E 0 95 4a 64
        E 0 97 51 64
        E 0 9e 4c 64
        E 0 98 45 64
        E 0 9d 39 64
        E 206 87 51 64
        E 0 8e 4c 64
        E 1 97 4c 64
        E 0 9e 4a 64
        E 207 84 4c 64
        E 0 85 4a 64
        E 0 87 4c 64
        E 0 8e 4a 64
        E 0 88 45 64
        E 0 8d 39 64
        E 0 94 4c 64
        E 0 95 4a 64
        E 0 97 51 64
        E 0 9e 4c 64
        E 0 98 45 64
        E 0 9d 2d 64
        E 204 87 51 64
        E 0 8e 4c 64
        E 0 97 4c 64
        E 0 9e 4a 64
        E 206 84 4c 64
        E 0 85 4a 64
        E 0 87 4c 64
        E 0 8e 4a 64
        E 0 88 45 64
        E 0 8d 2d 64
        E 0 94 4c 64
        E 1 95 4a 64
        E 0 97 51 64
        E 1 9e 4c 64
        E 0 98 45 64
        E 0 9d 2d 64
        E 203 87 51 64
        E 0 8e 4c 64
        E 0 97 4c 64
        E 0 9e 4a 64
        E 205 80 4a 64
        E 0 81 40 64
        E 0 82 39 64
        E 1 83 39 64
        E 0 84 4c 64
        E 0 85 4a 64
        E 0 87 4c 64
        E 0 8e 4a 64
        E 0 88 45 64
        E 0 8d 2d 64
        E 0 90 49 64
        E 0 91 40 64
        E 0 92 39 64
        E 0 93 2d 64
        E 0 94 4c 64
        E 1 95 49 64
        E 0 97 51 64
        E 0 9e 4c 64
        E 0 98 45 64
        E 0 9d 2d 64
        E 204 87 51 64
        E 0 8e 4c 64
        E 0 97 4c 64
        E 0 9e 49 64
        E 205 84 4c 64
        E 0 85 49 64
        E 0 87 4c 64
        E 0 8e 49 64
        E 0 88 45 64
        E 0 8d 2d 64
        E 0 94 4c 64
        E 1 95 49 64
        E 0 97 51 64
        E 0 9e 4c 64
        E 0 98 45 64
        E 0 9d 39 64
        E 206 87 51 64
        E 0 8e 4c 64
        E 0 97 4c 64
        E 0 9e 49 64
        E 207 84 4c 64
        E 0 85 49 64
        E 0 87 4c 64
        E 0 8e 49 64
        E 0 88 45 64
        E 0 8d 39 64
        E 1 94 4c 64
        E 0 95 49 64
        E 0 97 51 64
        E 0 9e 4c 64
        E 0 98 45 64
        E 0 9d 2d 64
        E 203 87 51 64
        E 0 8e 4c 64
        E 0 97 4c 64
        E 0 9e 49 64
        E 205 84 4c 64
        E 0 85 49 64
        E 0 87 4c 64
        E 0 8e 49 64
        E 0 88 45 64
        E 0 8d 2d 64
        E 1 94 4c 64
        E 0 95 49 64
        E 0 97 51 64
        E 0 9e 4c 64
        E 0 98 45 64
        E 0 9d 2d 64
        E 205 87 51 64
        E 0 8e 4c 64
        E 0 97 4c 64
        E 0 9e 49 64
        E 206 80 49 64
        E 0 81 40 64
        E 0 82 39 64
        E 0 83 2d 64
        E 0 84 4c 64
        E 0 85 49 64
        E 0 87 4c 64
        E 0 8e 49 64
        E 0 88 45 64
        E 0 8d 2d 64
        E 0 90 4a 64
        E 0 91 42 64
        E 0 92 39 64
        E 1 93 32 64
        E 0 94 4e 64
        E 0 95 4a 64
        E 0 97 4e 64
        E 0 9e 4a 64
        E 0 98 45 64
        E 0 9d 32 64
        E 204 87 4e 64
        E 0 97 51 64
        E 207 87 51 64
        E 0 97 4e 64
        E 207 87 4e 64
        E 0 97 51 64
        E 204 84 4e 64
        E 0 85 4a 64
        E 0 87 51 64
        E 0 8e 4a 64
        E 0 88 45 64
        E 0 8d 32 64
        E 0 97 4a 64
        E 0 9e 4e 64
        E 207 87 4a 64
        E 0 8e 4e 64
        E 0 97 4e 64
        E 0 9e 51 64
        E 205 87 4e 64
        E 0 8e 51 64
        E 2 97 4a 64
        E 1 9e 4e 64
        E 201 87 4a 64
        E 0 8e 4e 64
        E 0 97 4e 64
        E 0 9e 51 64
        E 207 80 4a 64
        E 0 81 42 64
        E 0 82 39 64
        E 0 83 32 64
        E 0 87 4e 64
        E 0 8e 51 64
        E 0 94 4e 64
        E 0 95 4a 64
        E 0 97 45 64
        E 0 9e 4a 64
        E 0 98 42 64
        E 0 9d 32 64
        E 207 87 45 64
        E 0 8e 4a 64
        E 0 97 4a 64
        E 0 9e 4e 64
        E 204 87 4a 64
        E 0 8e 4e 64
        E 0 97 45 64
        E 0 9e 4a 64
        E 207 87 45 64
        E 0 8e 4a 64
        E 0 97 4a 64
        E 0 9e 4e 64
        E 206 84 4e 64
        E 0 85 4a 64
        E 0 87 4a 64
        E 0 8e 4e 64
        E 0 88 42 64
        E 0 8d 32 64
        E 0 97 42 64
        E 0 9e 45 64
        E 205 87 42 64
        E 0 8e 45 64
        E 0 97 45 64
        E 1 9e 4a 64
        E 205 87 45 64
        E 0 8e 4a 64
        E 0 97 42 64
        E 0 9e 45 64
        E 204 87 42 64
        E 0 8e 45 64
        E 0 97 45 64
        E 0 9e 4a 64
        E 207 87 45 64
        E 0 8e 4a 64
        E 0 94 3e 64
        E 0 95 3e 64
        E 0 97 3e 64
        E 0 9e 42 64
        E 0 98 3e 64
        E 0 9d 32 64
        E 411 85 3e 64
        E 0 87 3e 64
        E 0 8e 42 64
        E 0 88 3e 64
        E 0 8d 32 64
        E 0 95 3e 64
        E 0 97 3e 64
        E 0 9e 3e 64
        E 0 98 3e 64
        E 0 9d 32 64
        E 207 85 3e 64
        E 0 87 3e 64
        E 0 8e 3e 64
        E 0 88 3e 64
        E 0 8d 32 64
        E 1 95 40 64
        E 0 97 40 64
        E 0 9e 40 64
        E 0 98 40 64
        E 0 9d 34 64
        E 204 84 3e 64
        E 0 85 40 64
        E 0 87 40 64
        E 0 8e 40 64
        E 0 88 40 64
        E 0 8d 34 64
        E 0 94 42 64
        E 0 95 42 64
        E 0 97 42 64
        E 0 9e 42 64
        E 0 98 42 64
        E 1 9d 36 64
        E 410 85 42 64
        E 0 87 42 64
        E 0 8e 42 64
        E 0 88 42 64
        E 0 8d 36 64
        E 1 95 42 64
        E 1 97 42 64
        E 0 9e 42 64
        E 0 98 42 64
        E 0 9d 36 64
        E 205 85 42 64
        E 0 87 42 64
        E 0 8e 42 64
        E 0 88 42 64
        E 0 8d 36 64
        E 0 95 43 64
        E 0 97 43 64
        E 0 9e 43 64
        E 0 98 43 64
        E 0 9d 37 64
        E 205 84 42 64
        E 0 85 43 64
        E 0 87 43 64
        E 0 8e 43 64
        E 0 88 43 64
        E 0 8d 37 64
        E 0 94 45 64
        E 0 95 45 64
        E 0 97 45 64
        E 0 9e 45 64
        E 0 98 45 64
        E 0 9d 39 64
        E 823 84 45 64
        E 0 85 45 64
        E 0 87 45 64
        E 0 8e 45 64
        E 0 88 45 64
        E 0 8d 39 64
        E 0 94 45 64
        E 0 95 45 64
        E 0 97 39 64
        E 0 9e 39 64
        E 0 98 39 64
        E 1 9d 2d 64
        E 821 84 45 64
        E 0 85 45 64
        E 0 87 39 64
        E 0 8e 39 64
        E 0 88 39 64
        E 0 8d 2d 64
        E 0 94 3e 64
        E 0 95 3e 64
        E 0 97 3e 64
        E 0 9e 3e 64
        E 0 98 3e 64
        E 0 9d 26 64
        E 2469 84 3e 64
        E 0 85 3e 64
        E 0 87 3e 64
        E 0 8e 3e 64
        E 0 88 3e 64
        E 0 8d 26 64
        E 3293 93 32 64
        E 0 9d 32 64
        E 2018 83 32 64
        E 0 8d 32 64
        E 0 93 36 64
        E 0 9d 36 64
        E 1014 83 36 64
        E 0 8d 36 64
        E 0 93 34 64
        E 0 9d 34 64
        E 1008 83 34 64
        E 0 8d 34 64
        E 0 93 32 64
        E 0 9d 32 64
        E 1517 83 32 64
        E 0 8d 32 64
        E 1 93 32 64
        E 1 9d 32 64
        E 505 83 32 64
        E 0 8d 32 64
        E 0 93 31 64
        E 0 9d 31 64
        E 503 90 45 64
        E 506 80 45 64
        E 0 90 45 64
        E 503 80 45 64
        E 0 90 45 64
        E 507 80 45 64
        E 0 83 31 64
        E 0 8d 31 64
        E 0 90 42 64
        E 0 93 32 64
        E 0 9d 32 64
        E 758 80 42 64
        E 0 90 40 64
        E 252 80 40 64
        E 0 90 3e 64
        E 505 80 3e 64
        E 0 90 42 64
        E 506 80 42 64
        E 0 83 32 64
        E 0 8d 32 64
        E 0 90 43 64
        E 0 93 2f 64
        E 0 9d 2f 64
        E 504 80 43 64
        E 0 90 43 64
        E 255 80 43 64
        E 0 90 43 64
        E 251 80 43 64
        E 0 83 2f 64
        E 0 8d 2f 64
        E 0 90 43 64
        E 0 93 2f 64
        E 0 9d 2f 64
        E 504 80 43 64
        E 0 83 2f 64
        E 0 8d 2f 64
        E 0 90 43 64
        E 0 93 2f 64
        E 0 9d 2f 64
        E 508 80 43 64
        E 0 83 2f 64
        E 0 8d 2f 64
        E 0 90 40 64
        E 0 93 34 64
        E 0 9d 34 64
        E 1008 80 40 64
        E 0 83 34 64
        E 0 8d 34 64
        E 0 90 40 64
        E 0 93 34 64
        E 0 9d 34 64
        E 505 80 40 64
        E 0 90 40 64
        E 506 80 40 64
        E 0 83 34 64
        E 0 8d 34 64
        E 0 90 45 64
        E 0 93 31 64
        E 0 9d 31 64
        E 504 80 45 64
        E 0 90 45 64
        E 255 80 45 64
        E 0 90 45 64
        E 253 80 45 64
        E 0 83 31 64
        E 0 8d 31 64
        E 0 90 45 64
        E 0 93 31 64
        E 0 9d 31 64
        E 505 80 45 64
        E 0 90 45 64
        E 506 80 45 64
        E 0 83 31 64
        E 0 8d 31 64
        E 0 90 42 64
        E 0 93 32 64
        E 0 9d 32 64
        E 503 80 42 64
        E 1 83 32 64
        E 0 8d 32 64
        E 0 90 44 64
        E 0 93 32 64
        E 1 9d 32 64
        E 505 80 44 64
        E 0 83 32 64
        E 0 8d 32 64
        E 0 90 45 64
        E 0 93 31 64
        E 0 9d 31 64
        E 504 83 31 64
        E 0 8d 31 64
        E 0 93 31 64
        E 0 9d 31 64
        E 505 83 31 64
        E 1 8d 31 64
        E 0 93 2f 64
        E 0 9d 2f 64
        E 1012 80 45 64
        E 0 90 44 64
        E 1009 80 44 64
        E 0 83 2f 64
        E 0 8d 2f 64
        E 0 90 45 64
        E 0 91 45 64
        E 0 93 2d 64
        E 0 9d 2d 64
        E 2023 80 45 64
        E 0 81 45 64
        E 0 83 2d 64
        E 0 8d 2d 64
        E 2 91 47 64
        E 1007 81 47 64
        E 0 91 45 64
        E 504 90 45 64
        E 505 80 45 64
        E 0 81 45 64
        E 0 90 47 64
        E 0 91 43 64
        E 505 80 47 64
        E 1 90 45 64
        E 506 80 45 64
        E 0 90 47 64
        E 504 80 47 64
        E 0 81 43 64
        E 0 90 49 64
        E 1 91 43 64
        E 506 80 49 64
        E 0 81 43 64
        E 0 90 4a 64
        E 0 91 42 64
        E 504 80 4a 64
        E 0 90 45 64
        E 0 92 3e 64
        E 504 80 45 64
        E 0 82 3e 64
        E 1 90 4a 64
        E 0 92 3e 64
        E 505 80 4a 64
        E 0 82 3e 64
        E 0 90 4e 64
        E 0 92 3e 64
        E 507 80 4e 64
        E 1 81 42 64
        E 0 82 3e 64
        E 0 90 4c 64
        E 0 91 45 64
        E 0 92 3d 64
        E 756 82 3d 64
        E 0 92 3b 64
        E 253 82 3b 64
        E 0 92 39 64
        E 505 82 39 64
        E 0 92 3d 64
        E 505 80 4c 64
        E 0 81 45 64
        E 0 82 3d 64
        E 0 90 45 64
        E 0 91 42 64
        E 0 92 3e 64
        E 504 82 3e 64
        E 1 92 3e 64
        E 253 82 3e 64
        E 0 92 3e 64
        E 253 80 45 64
        E 0 81 42 64
        E 0 82 3e 64
        E 0 90 4a 64
        E 0 91 42 64
        E 0 92 3e 64
        E 505 81 42 64
        E 1 82 3e 64
        E 0 91 42 64
        E 0 92 3e 64
        E 504 80 4a 64
        E 0 81 42 64
        E 0 82 3e 64
        E 0 90 4a 64
        E 0 91 47 64
        E 1 92 3b 64
        E 1008 80 4a 64
        E 0 81 47 64
        E 0 82 3b 64
        E 0 90 47 64
        E 1 91 47 64
        E 0 92 3b 64
        E 505 82 3b 64
        E 0 92 3b 64
        E 504 81 47 64
        E 0 82 3b 64
        E 0 91 44 64
        E 0 92 40 64
        E 508 82 40 64
        E 0 92 40 64
        E 252 82 40 64
        E 0 92 40 64
        E 252 80 47 64
        E 0 81 44 64
        E 0 82 40 64
        E 1 90 4c 64
        E 0 91 44 64
        E 0 92 40 64
        E 505 82 40 64
        E 0 92 40 64
        E 505 80 4c 64
        E 0 81 44 64
        E 0 82 40 64
        E 0 90 4c 64
        E 0 91 45 64
        E 0 92 3d 64
        E 506 81 45 64
        E 0 91 45 64
        E 505 80 4c 64
        E 0 81 45 64
        E 0 82 3d 64
        E 0 90 45 64
        E 0 91 42 64
        E 0 92 3e 64
        E 505 81 42 64
        E 0 91 42 64
        E 506 80 45 64
        E 0 81 42 64
        E 0 91 40 64
        E 1010 82 3e 64
        E 0 92 3d 64
        E 1009 81 40 64
        E 0 82 3d 64
        E 0 90 4a 64
        E 1 91 3e 64
        E 0 92 3e 64
        E 1013 82 3e 64
        E 0 92 3e 64
        E 1009 80 4a 64
        E 0 81 3e 64
        E 0 90 4e 64
        E 1009 80 4e 64
        E 0 82 3e 64
        E 0 90 4c 64
        E 0 91 45 64
        E 0 92 3d 64
        E 1012 80 4c 64
        E 0 81 45 64
        E 0 82 3d 64
        E 0 90 4a 64
        E 0 91 45 64
        E 1 92 3e 64
        E 1009 81 45 64
        E 0 82 3e 64
        E 0 91 44 64
        E 0 92 40 64
        E 506 80 4a 64
        E 0 90 4a 64
        E 504 80 4a 64
        E 1 81 44 64
        E 1 82 40 64
        E 1 90 49 64
        E 0 91 45 64
        E 0 92 39 64
        E 502 93 39 64
        E 1 95 4c 64
        E 0 97 4c 64
        E 0 9e 49 64
        E 0 98 45 64
        E 0 9d 39 64
        E 505 81 45 64
        E 0 82 39 64
        E 0 83 39 64
        E 0 85 4c 64
        E 0 87 4c 64
        E 0 8e 49 64
        E 0 88 45 64
        E 0 8d 39 64
        E 0 92 39 64
        E 0 93 39 64
        E 0 95 4c 64
        E 0 97 4c 64
        E 0 9e 49 64
        E 1 98 45 64
        E 0 9d 39 64
        E 505 83 39 64
        E 0 85 4c 64
        E 0 87 4c 64
        E 0 8e 49 64
        E 0 88 45 64
        E 0 8d 39 64
        E 0 93 39 64
        E 0 95 4c 64
        E 1 97 4c 64
        E 0 9e 49 64
        E 0 98 45 64
        E 0 9d 39 64
        E 504 80 49 64
        E 0 82 39 64
        E 0 83 39 64
        E 0 85 4c 64
        E 0 87 4c 64
        E 0 8e 49 64
        E 0 88 45 64
        E 0 8d 39 64
        E 0 90 4a 64
        E 0 91 45 64
        E 0 92 39 64
        E 0 93 36 64
        E 0 95 4e 64
        E 0 97 4e 64
        E 0 9e 4a 64
        E 0 98 45 64
        E 0 9d 36 64
        E 757 83 36 64
        E 0 85 4e 64
        E 0 87 4e 64
        E 0 8e 4a 64
        E 0 88 45 64
        E 0 8d 36 64
        E 1 93 34 64
        E 0 95 4e 64
        E 0 97 4e 64
        E 0 9e 4a 64
        E 0 98 45 64
        E 0 9d 34 64
        E 252 82 39 64
        E 0 83 34 64
        E 0 85 4e 64
        E 0 87 4e 64
        E 0 8e 4a 64
        E 0 88 45 64
        E 0 8d 34 64
        E 0 92 3e 64
        E 0 93 32 64
        E 1 95 4e 64
        E 0 97 4e 64
        E 0 9e 4a 64
        E 0 98 45 64
        E 0 9d 32 64
        E 504 83 32 64
        E 0 85 4e 64
        E 0 87 4e 64
        E 0 8e 4a 64
        E 0 88 45 64
        E 0 8d 32 64
        E 1 93 36 64
        E 0 95 51 64
        E 0 97 51 64
        E 0 9e 4a 64
        E 0 98 45 64
        E 0 9d 36 64
        E 503 80 4a 64
        E 0 81 45 64
        E 0 83 36 64
        E 0 85 51 64
        E 0 87 51 64
        E 0 8e 4a 64
        E 0 88 45 64
        E 0 8d 36 64
        E 0 90 47 64
        E 0 91 43 64
        E 0 93 37 64
        E 0 95 4a 64
        E 0 97 4a 64
        E 0 9e 47 64
        E 0 98 43 64
        E 0 9d 37 64
        E 508 83 37 64
        E 0 85 4a 64
        E 0 87 4a 64
        E 0 8e 47 64
        E 0 88 43 64
        E 0 8d 37 64
        E 0 93 37 64
        E 0 95 4a 64
        E 0 97 4a 64
        E 0 9e 47 64
        E 0 98 43 64
        E 1 9d 37 64
        E 251 83 37 64
        E 0 85 4a 64
        E 0 87 4a 64
        E 0 8e 47 64
        E 0 88 43 64
        E 0 8d 37 64
        E 0 93 37 64
        E 0 95 4a 64
        E 0 97 4a 64
        E 0 9e 47 64
        E 0 98 43 64
        E 0 9d 37 64
        E 251 80 47 64
        E 0 82 3e 64
        E 0 83 37 64
        E 0 85 4a 64
        E 0 87 4a 64
        E 0 8e 47 64
        E 0 88 43 64
        E 0 8d 37 64
        E 0 90 47 64
        E 0 92 3b 64
        E 0 93 37 64
        E 0 95 4a 64
        E 0 97 4a 64
        E 0 9e 47 64
        E 0 98 43 64
        E 0 9d 37 64
        E 506 80 47 64
        E 0 83 37 64
        E 0 85 4a 64
        E 0 87 4a 64
        E 0 8e 47 64
        E 0 88 43 64
        E 0 8d 37 64
        E 0 90 47 64
        E 0 93 37 64
        E 0 95 4a 64
        E 0 97 4a 64
        E 0 9e 47 64
        E 0 98 43 64
        E 0 9d 37 64
        E 505 80 47 64
        E 0 81 43 64
        E 0 82 3b 64
        E 0 83 37 64
        E 0 85 4a 64
        E 0 87 4a 64
        E 0 8e 47 64
        E 0 88 43 64
        E 0 8d 37 64
        E 0 90 4c 64
        E 0 91 44 64
        E 0 92 3b 64
        E 0 93 34 64
        E 0 95 50 64
        E 0 97 50 64
        E 0 9e 4c 64
        E 0 98 47 64
        E 0 9d 34 64
        E 1011 80 4c 64
        E 0 82 3b 64
        E 0 83 34 64
        E 0 85 50 64
        E 0 87 50 64
        E 0 8e 4c 64
        E 0 88 47 64
        E 0 8d 34 64
        E 0 90 4c 64
        E 0 92 40 64
        E 0 93 34 64
        E 1 95 50 64
        E 0 97 50 64
        E 0 9e 4c 64
        E 0 98 47 64
        E 0 9d 34 64
        E 505 83 34 64
        E 0 85 50 64
        E 0 87 50 64
        E 0 8e 4c 64
        E 0 88 47 64
        E 0 8d 34 64
        E 0 93 34 64
        E 0 95 50 64
        E 0 97 50 64
        E 0 9e 4c 64
        E 0 98 47 64
        E 0 9d 34 64
        E 506 80 4c 64
        E 0 81 44 64
        E 0 83 34 64
        E 0 85 50 64
        E 0 87 50 64
        E 0 8e 4c 64
        E 0 88 47 64
        E 0 8d 34 64
        E 0 90 49 64
        E 0 91 45 64
        E 0 93 39 64
        E 0 95 4c 64
        E 0 97 4c 64
        E 0 9e 49 64
        E 0 98 45 64
        E 0 9d 39 64
        E 505 83 39 64
        E 0 85 4c 64
        E 0 87 4c 64
        E 0 8e 49 64
        E 0 88 45 64
        E 0 8d 39 64
        E 0 93 39 64
        E 0 95 4c 64
        E 0 97 4c 64
        E 0 9e 49 64
        E 0 98 45 64
        E 0 9d 39 64
        E 251 83 39 64
        E 0 85 4c 64
        E 1 87 4c 64
        E 0 8e 49 64
        E 0 88 45 64
        E 0 8d 39 64
        E 0 93 39 64
        E 0 95 4c 64
        E 0 97 4c 64
        E 0 9e 49 64
        E 0 98 45 64
        E 0 9d 39 64
        E 253 80 49 64
        E 0 82 40 64
        E 0 83 39 64
        E 0 85 4c 64
        E 0 87 4c 64
        E 0 8e 49 64
        E 0 88 45 64
        E 0 8d 39 64
        E 0 90 49 64
        E 0 92 3d 64
        E 0 93 39 64
        E 0 95 4c 64
        E 0 97 4c 64
        E 0 9e 49 64
        E 0 98 45 64
        E 0 9d 39 64
        E 504 83 39 64
        E 0 85 4c 64
        E 0 87 4c 64
        E 0 8e 49 64
        E 0 88 45 64
        E 0 8d 39 64
        E 0 93 39 64
        E 0 95 4c 64
        E 0 97 4c 64
        E 0 9e 49 64
        E 0 98 45 64
        E 0 9d 39 64
        E 504 80 49 64
        E 0 81 45 64
        E 0 82 3d 64
        E 0 83 39 64
        E 0 85 4c 64
        E 0 87 4c 64
        E 0 8e 49 64
        E 0 88 45 64
        E 0 8d 39 64
        E 1 90 4a 64
        E 0 91 45 64
        E 0 92 42 64
        E 0 93 36 64
        E 0 95 51 64
        E 0 97 51 64
        E 0 9e 4a 64
        E 0 98 45 64
        E 0 9d 36 64
        E 508 80 4a 64
        E 0 83 36 64
        E 0 8d 36 64
        E 0 90 4a 64
        E 0 93 38 64
        E 0 9d 38 64
        E 504 80 4a 64
        E 0 82 42 64
        E 0 83 38 64
        E 0 85 51 64
        E 0 87 51 64
        E 0 8e 4a 64
        E 0 88 45 64
        E 0 8d 38 64
        E 0 90 49 64
        E 0 92 40 64
        E 0 93 39 64
        E 0 95 4c 64
        E 0 97 4c 64
        E 0 9e 49 64
        E 0 98 45 64
        E 0 9d 39 64
        E 504 80 49 64
        E 0 90 49 64
        E 507 80 49 64
        E 0 81 45 64
        E 0 82 40 64
        E 0 85 4c 64
        E 0 87 4c 64
        E 0 8e 49 64
        E 0 88 45 64
        E 0 90 47 64
        E 0 91 42 64
        E 0 92 3e 64
        E 0 95 4e 64
        E 0 97 4e 64
        E 0 9e 47 64
        E 0 98 42 64
        E 1008 81 42 64
        E 0 83 39 64
        E 0 85 4e 64
        E 0 87 4e 64
        E 0 88 42 64
        E 0 8d 39 64
        E 0 91 47 64
        E 0 93 38 64
        E 0 95 4c 64
        E 0 97 4c 64
        E 0 98 47 64
        E 0 9d 38 64
        E 1013 80 47 64
        E 0 81 47 64
        E 0 82 3e 64
        E 0 83 38 64
        E 0 85 4c 64
        E 0 87 4c 64
        E 0 8e 47 64
        E 0 88 47 64
        E 0 8d 38 64
        E 0 90 45 64
        E 0 91 40 64
        E 0 92 3d 64
        E 0 93 39 64
        E 0 95 4c 64
        E 0 97 4c 64
        E 0 9e 49 64
        E 0 98 45 64
        E 0 9d 39 64
        E 1009 85 4c 64
        E 0 95 51 64
        E 1011 80 45 64
        E 0 81 40 64
        E 0 82 3d 64
        E 0 83 39 64
        E 0 87 4c 64
        E 0 8e 49 64
        E 0 88 45 64
        E 0 8d 39 64
        E 0 9e 4a 64
        E 503 85 51 64
        E 1 95 4f 64
        E 506 85 4f 64
        E 1 95 4e 64
        E 504 8e 4a 64
        E 0 9e 49 64
        E 507 85 4e 64
        E 0 8e 49 64
        E 0 95 4e 64
        E 0 9e 47 64
        E 503 85 4e 64
        E 1 8e 47 64
        E 0 95 4c 64
        E 0 9e 49 64
        E 504 85 4c 64
        E 0 8e 49 64
        E 0 95 4e 64
        E 1 9e 4a 64
        E 504 85 4e 64
        E 0 95 4a 64
        E 508 85 4a 64
        E 0 95 4c 64
        E 0 98 45 64
        E 1011 8e 4a 64
        E 0 97 51 64
        E 0 9e 49 64
        E 503 88 45 64
        E 0 98 43 64
        E 505 85 4c 64
        E 0 87 51 64
        E 0 8e 49 64
        E 0 88 43 64
        E 0 97 51 64
        E 0 9e 4a 64
        E 0 98 42 64
        E 505 87 51 64
        E 0 88 42 64
        E 0 97 4f 64
        E 0 98 40 64
        E 505 87 4f 64
        E 0 88 40 64
        E 0 97 4e 64
        E 0 98 3e 64
        E 508 87 4e 64
        E 0 97 4c 64
        E 504 87 4c 64
        E 0 8e 4a 64
        E 0 88 3e 64
        E 0 94 51 64
        E 0 97 4a 64
        E 1009 87 4a 64
        E 0 97 51 64
        E 1011 84 51 64
        E 0 87 51 64
        E 0 94 53 64
        E 0 97 53 64
        E 1011 84 53 64
        E 0 87 53 64
        E 0 94 51 64
        E 0 97 51 64
        E 0 9d 3e 64
        E 506 95 45 64
        E 0 9e 45 64
        E 505 84 51 64
        E 0 85 45 64
        E 0 87 51 64
        E 0 8e 45 64
        E 1 94 4f 64
        E 0 95 47 64
        E 0 97 4f 64
        E 0 9e 47 64
        E 505 85 47 64
        E 0 8e 47 64
        E 1 95 45 64
        E 0 9e 45 64
        E 502 85 45 64
        E 0 8e 45 64
        E 0 8d 3e 64
        E 0 95 47 64
        E 0 9e 47 64
        E 1 9d 3d 64
        E 506 84 4f 64
        E 0 85 47 64
        E 0 87 4f 64
        E 0 8e 47 64
        E 0 94 4f 64
        E 0 95 49 64
        E 1 97 4f 64
        E 0 9e 49 64
        E 504 84 4f 64
        E 0 85 49 64
        E 1 87 4f 64
        E 0 8e 49 64
        E 0 8d 3d 64
        E 0 94 4e 64
        E 0 95 4a 64
        E 0 97 4e 64
        E 0 9e 4a 64
        E 0 9d 3e 64
        E 504 85 4a 64
        E 1 8e 4a 64
        E 0 95 45 64
        E 0 9e 45 64
        E 0 98 3e 64
        E 504 85 45 64
        E 0 8e 45 64
        E 0 88 3e 64
        E 0 8d 3e 64
        E 0 95 4a 64
        E 0 9e 4a 64
        E 0 98 3e 64
        E 0 9d 3e 64
        E 505 85 4a 64
        E 0 8e 4a 64
        E 0 88 3e 64
        E 0 95 4e 64
        E 0 9e 4e 64
        E 0 98 3e 64
        E 505 84 4e 64
        E 0 85 4e 64
        E 0 87 4e 64
        E 0 8e 4e 64
        E 0 88 3e 64
        E 0 8d 3e 64
        E 0 94 51 64
        E 0 95 4c 64
        E 0 97 51 64
        E 0 9e 4c 64
        E 0 98 3d 64
        E 0 9d 39 64
        E 759 88 3d 64
        E 0 98 3b 64
        E 253 88 3b 64
        E 1 8d 39 64
        E 0 98 39 64
        E 0 9d 39 64
        E 504 88 39 64
        E 0 98 3d 64
        E 504 84 51 64
        E 0 85 4c 64
        E 0 87 51 64
        E 0 8e 4c 64
        E 0 88 3d 64
        E 0 8d 39 64
        E 0 94 4e 64
        E 0 95 45 64
        E 0 97 4e 64
        E 0 9e 45 64
        E 0 98 3e 64
        E 1 9d 3b 64
        E 505 88 3e 64
        E 0 98 3e 64
        E 253 88 3e 64
        E 1 98 3e 64
        E 252 84 4e 64
        E 1 85 45 64
        E 0 87 4e 64
        E 0 8e 45 64
        E 0 88 3e 64
        E 0 8d 3b 64
        E 0 94 4e 64
        E 0 95 4a 64
        E 1 97 4e 64
        E 0 9e 4a 64
        E 0 98 3e 64
        E 0 9d 3b 64
        E 503 84 4e 64
        E 0 87 4e 64
        E 0 88 3e 64
        E 0 94 4e 64
        E 0 97 4e 64
        E 0 98 3e 64
        E 507 84 4e 64
        E 0 87 4e 64
        E 0 88 3e 64
        E 0 8d 3b 64
        E 0 94 53 64
        E 0 97 53 64
        E 0 98 3b 64
        E 0 9d 3b 64
        E 1009 84 53 64
        E 0 85 4a 64
        E 0 87 53 64
        E 0 8e 4a 64
        E 0 88 3b 64
        E 0 8d 3b 64
        E 0 94 53 64
        E 0 95 47 64
        E 0 97 53 64
        E 0 9e 47 64
        E 0 98 3b 64
        E 0 9d 40 64
        E 505 88 3b 64
        E 0 98 3b 64
        E 506 84 53 64
        E 0 85 47 64
        E 0 87 53 64
        E 0 8e 47 64
        E 0 88 3b 64
        E 0 8d 40 64
        E 0 94 50 64
        E 0 95 47 64
        E 0 97 50 64
        E 0 9e 47 64
        E 0 98 40 64
        E 0 9d 40 64
        E 503 88 40 64
        E 0 98 40 64
        E 254 88 40 64
        E 1 98 40 64
        E 252 84 50 64
        E 0 85 47 64
        E 0 87 50 64
        E 0 8e 47 64
        E 0 88 40 64
        E 0 8d 40 64
        E 0 94 50 64
        E 0 95 4c 64
        E 1 97 50 64
        E 0 9e 4c 64
        E 0 98 40 64
        E 0 9d 40 64
        E 504 88 40 64
        E 0 98 40 64
        E 507 84 50 64
        E 0 87 50 64
        E 0 88 40 64
        E 0 8d 40 64
        E 0 94 51 64
        E 0 97 51 64
        E 0 98 3d 64
        E 0 9d 39 64
        E 503 84 51 64
        E 0 87 51 64
        E 0 94 51 64
        E 0 97 51 64
        E 506 84 51 64
        E 0 85 4c 64
        E 0 87 51 64
        E 0 8e 4c 64
        E 0 88 3d 64
        E 0 8d 39 64
        E 1 94 4e 64
        E 0 95 45 64
        E 0 97 4e 64
        E 0 9e 45 64
        E 0 98 3e 64
        E 0 9d 32 64
        E 504 84 4e 64
        E 0 87 4e 64
        E 0 94 4e 64
        E 0 97 4e 64
        E 503 84 4e 64
        E 0 85 45 64
        E 0 87 4e 64
        E 0 8e 45 64
        E 0 88 3e 64
        E 0 8d 32 64
        E 0 94 4c 64
        E 0 95 45 64
        E 0 97 4c 64
        E 0 9e 45 64
        E 1 98 3e 64
        E 0 9d 2d 64
        E 1012 88 3e 64
        E 0 98 3d 64
        E 1011 84 4c 64
        E 0 85 45 64
        E 0 87 4c 64
        E 0 8e 45 64
        E 0 88 3d 64
        E 0 8d 2d 64
        E 0 92 3e 64
        E 0 94 4e 64
        E 0 95 45 64
        E 1 97 4e 64
        E 0 9e 45 64
        E 0 98 3e 64
        E 0 9d 32 64
        E 1008 84 4e 64
        E 0 85 45 64
        E 0 87 4e 64
        E 0 8e 45 64
        E 0 8d 32 64
        E 1013 82 3e 64
        E 0 88 3e 64
        E 0 92 42 64
        E 0 98 42 64
        E 1009 82 42 64
        E 0 88 42 64
        E 0 92 40 64
        E 0 93 39 64
        E 0 95 49 64
        E 0 97 49 64
        E 0 98 40 64
        E 0 9d 39 64
        E 1009 82 40 64
        E 0 85 49 64
        E 0 87 49 64
        E 0 88 40 64
        E 0 92 3e 64
        E 0 95 47 64
        E 1 97 47 64
        E 0 98 3e 64
        E 1012 83 39 64
        E 0 8d 39 64
        E 0 93 38 64
        E 1 9d 38 64
        E 504 82 3e 64
        E 0 88 3e 64
        E 0 92 3e 64
        E 0 98 3e 64
        E 504 82 3e 64
        E 0 83 38 64
        E 0 85 47 64
        E 0 87 47 64
        E 0 88 3e 64
        E 0 8d 38 64
        E 0 90 4c 64
        E 0 92 3d 64
        E 0 93 39 64
        E 0 94 4c 64
        E 0 95 45 64
        E 0 97 45 64
        E 1 9e 4c 64
        E 0 98 3d 64
        E 0 9d 39 64
        E 504 85 45 64
        E 0 87 45 64
        E 0 91 45 64
        E 0 95 51 64
        E 0 97 51 64
        E 505 81 45 64
        E 0 85 51 64
        E 0 87 51 64
        E 0 91 45 64
        E 0 95 51 64
        E 0 97 51 64
        E 506 81 45 64
        E 0 85 51 64
        E 0 87 51 64
        E 0 91 45 64
        E 0 95 51 64
        E 0 97 51 64
        E 507 80 4c 64
        E 0 81 45 64
        E 0 82 3d 64
        E 0 83 39 64
        E 0 84 4c 64
        E 0 85 51 64
        E 0 87 51 64
        E 0 8e 4c 64
        E 0 88 3d 64
        E 0 8d 39 64
        E 0 90 45 64
        E 0 91 42 64
        E 0 92 3e 64
        E 0 94 45 64
        E 0 95 4e 64
        E 0 97 4e 64
        E 1 9e 45 64
        E 0 98 3e 64
        E 0 9d 3e 64
        E 756 81 42 64
        E 0 85 4e 64
        E 0 87 4e 64
        E 0 91 40 64
        E 0 95 4c 64
        E 0 97 4c 64
        E 253 80 45 64
        E 0 81 40 64
        E 0 84 45 64
        E 0 85 4c 64
        E 0 87 4c 64
        E 0 8e 45 64
        E 0 90 4a 64
        E 0 91 3e 64
        E 0 94 4a 64
        E 0 95 4a 64
        E 0 97 4a 64
        E 0 9e 4a 64
        E 505 81 3e 64
        E 1 85 4a 64
        E 0 87 4a 64
        E 0 91 42 64
        E 1 95 4e 64
        E 0 97 4e 64
        E 503 80 4a 64
        E 0 81 42 64
        E 0 82 3e 64
        E 0 84 4a 64
        E 0 85 4e 64
        E 0 87 4e 64
        E 0 8e 4a 64
        E 0 88 3e 64
        E 0 8d 3e 64
        E 0 90 4a 64
        E 0 91 43 64
        E 0 92 3b 64
        E 0 94 4a 64
        E 0 95 4f 64
        E 0 97 4f 64
        E 0 9e 4a 64
        E 0 98 3b 64
        E 0 9d 3b 64
        E 505 81 43 64
        E 0 85 4f 64
        E 0 87 4f 64
        E 0 91 43 64
        E 0 95 4f 64
        E 0 97 4f 64
        E 252 81 43 64
        E 0 85 4f 64
        E 0 87 4f 64
        E 1 91 43 64
        E 0 95 4f 64
        E 0 97 4f 64
        E 254 80 4a 64
        E 0 81 43 64
        E 0 82 3b 64
        E 0 84 4a 64
        E 0 85 4f 64
        E 0 87 4f 64
        E 0 8e 4a 64
        E 0 88 3b 64
        E 0 8d 3b 64
        E 0 90 47 64
        E 0 91 43 64
        E 0 92 3b 64
        E 0 94 47 64
        E 0 95 4f 64
        E 1 97 4f 64
        E 0 9e 47 64
        E 0 98 3b 64
        E 0 9d 3b 64
        E 502 81 43 64
        E 0 82 3b 64
        E 0 85 4f 64
        E 0 87 4f 64
        E 0 88 3b 64
        E 0 8d 3b 64
        E 1 91 43 64
        E 0 92 3b 64
        E 0 95 4f 64
        E 0 97 4f 64
        E 0 98 3b 64
        E 0 9d 3b 64
        E 504 81 43 64
        E 1 82 3b 64
        E 0 85 4f 64
        E 0 87 4f 64
        E 0 88 3b 64
        E 0 8d 3b 64
        E 0 91 40 64
        E 0 92 40 64
        E 0 95 4c 64
        E 1 97 4c 64
        E 0 98 40 64
        E 0 9d 40 64
        E 1008 80 47 64
        E 1 81 40 64
        E 0 82 40 64
        E 0 84 47 64
        E 0 85 4c 64
        E 0 87 4c 64
        E 0 8e 47 64
        E 0 88 40 64
        E 0 8d 40 64
        E 0 90 4c 64
        E 0 91 40 64
        E 0 92 40 64
        E 0 94 4c 64
        E 0 95 4c 64
        E 0 97 4c 64
        E 1 9e 4c 64
        E 0 98 40 64
        E 0 9d 40 64
        E 503 81 40 64
        E 0 85 4c 64
        E 0 87 4c 64
        E 0 91 40 64
        E 1 95 4c 64
        E 0 97 4c 64
        E 505 80 4c 64
        E 0 81 40 64
        E 0 82 40 64
        E 0 84 4c 64
        E 0 85 4c 64
        E 0 87 4c 64
        E 0 8e 4c 64
        E 0 88 40 64
        E 0 8d 40 64
        E 0 90 4c 64
        E 0 91 45 64
        E 0 92 3d 64
        E 0 94 4c 64
        E 0 95 51 64
        E 0 97 51 64
        E 0 9e 4c 64
        E 0 98 3d 64
        E 0 9d 3d 64
        E 508 81 45 64
        E 0 85 51 64
        E 0 87 51 64
        E 0 91 45 64
        E 0 95 51 64
        E 0 97 51 64
        E 251 81 45 64
        E 0 85 51 64
        E 0 87 51 64
        E 0 91 45 64
        E 0 95 51 64
        E 0 97 51 64
        E 253 80 4c 64
        E 0 81 45 64
        E 0 82 3d 64
        E 0 84 4c 64
        E 0 85 51 64
        E 0 87 51 64
        E 0 8e 4c 64
        E 0 88 3d 64
        E 0 8d 3d 64
        E 0 90 49 64
        E 0 91 45 64
        E 0 92 3d 64
        E 0 94 49 64
        E 0 95 51 64
        E 0 97 51 64
        E 0 9e 49 64
        E 0 98 3d 64
        E 0 9d 3d 64
        E 504 81 45 64
        E 0 85 51 64
        E 0 87 51 64
        E 0 91 45 64
        E 0 95 51 64
        E 0 97 51 64
        E 505 80 49 64
        E 0 81 45 64
        E 0 82 3d 64
        E 0 84 49 64
        E 0 85 51 64
        E 0 87 51 64
        E 0 8e 49 64
        E 0 88 3d 64
        E 0 8d 3d 64
        E 0 90 4e 64
        E 0 91 42 64
        E 0 92 3e 64
        E 0 94 4e 64
        E 0 95 4e 64
        E 0 97 4e 64
        E 0 9e 4e 64
        E 0 98 3e 64
        E 0 9d 3e 64
        E 505 81 42 64
        E 0 82 3e 64
        E 0 85 4e 64
        E 0 87 4e 64
        E 0 88 3e 64
        E 0 8d 3e 64
        E 0 91 44 64
        E 0 92 3e 64
        E 0 95 50 64
        E 1 97 50 64
        E 0 98 3e 64
        E 0 9d 3e 64
        E 505 80 4e 64
        E 0 81 44 64
        E 0 82 3e 64
        E 0 84 4e 64
        E 0 85 50 64
        E 0 87 50 64
        E 0 8e 4e 64
        E 0 88 3e 64
        E 0 8d 3e 64
        E 0 90 4c 64
        E 0 91 45 64
        E 0 92 3d 64
        E 0 94 4c 64
        E 1 95 51 64
        E 0 97 51 64
        E 0 9e 4c 64
        E 0 98 3d 64
        E 0 9d 3d 64
        E 506 82 3d 64
        E 0 88 3d 64
        E 0 8d 3d 64
        E 1 92 3d 64
        E 0 98 3d 64
        E 0 9d 3d 64
        E 504 80 4c 64
        E 0 81 45 64
        E 0 82 3d 64
        E 0 84 4c 64
        E 0 85 51 64
        E 0 87 51 64
        E 0 8e 4c 64
        E 0 88 3d 64
        E 0 8d 3d 64
        E 0 90 4a 64
        E 0 91 45 64
        E 0 92 3b 64
        E 0 94 4a 64
        E 0 95 51 64
        E 0 97 51 64
        E 0 9e 4a 64
        E 0 98 3b 64
        E 0 9d 3b 64
        E 1011 81 45 64
        E 0 85 51 64
        E 0 87 51 64
        E 0 91 44 64
        E 0 95 50 64
        E 0 97 50 64
        E 1008 80 4a 64
        E 0 81 44 64
        E 0 82 3b 64
        E 0 84 4a 64
        E 0 85 50 64
        E 0 87 50 64
        E 0 8e 4a 64
        E 0 88 3b 64
        E 0 8d 3b 64
        E 0 90 49 64
        E 0 91 45 64
        E 0 92 39 64
        E 0 93 39 64
        E 0 94 49 64
        E 0 95 51 64
        E 0 97 51 64
        E 0 9e 49 64
        E 0 98 39 64
        E 0 9d 39 64
        E 506 82 39 64
        E 0 88 39 64
        E 0 92 39 64
        E 0 98 39 64
        E 506 82 39 64
        E 0 88 39 64
        E 0 92 3b 64
        E 0 98 3b 64
        E 505 82 3b 64
        E 0 88 3b 64
        E 0 92 3d 64
        E 0 98 3d 64
        E 505 80 49 64
        E 0 81 45 64
        E 0 82 3d 64
        E 0 83 39 64
        E 0 84 49 64
        E 0 85 51 64
        E 0 87 51 64
        E 0 8e 49 64
        E 0 88 3d 64
        E 0 8d 39 64
        E 0 91 42 64
        E 0 92 3e 64
        E 0 93 3b 64
        E 0 95 4e 64
        E 0 97 4e 64
        E 0 98 3e 64
        E 0 9d 3b 64
        E 1010 83 3b 64
        E 0 8d 3b 64
        E 0 93 39 64
        E 0 9d 39 64
        E 1012 81 42 64
        E 0 83 39 64
        E 0 85 4e 64
        E 0 87 4e 64
        E 0 8d 39 64
        E 0 91 47 64
        E 0 93 37 64
        E 0 95 53 64
        E 0 97 53 64
        E 0 9d 37 64
        E 1009 81 47 64
        E 0 82 3e 64
        E 0 85 53 64
        E 0 87 53 64
        E 0 88 3e 64
        E 0 91 40 64
        E 0 92 3d 64
        E 0 95 4c 64
        E 0 97 4c 64
        E 0 98 3d 64
        E 506 83 37 64
        E 0 8d 37 64
        E 1 93 37 64
        E 0 9d 37 64
        E 503 81 40 64
        E 0 82 3d 64
        E 0 83 37 64
        E 0 85 4c 64
        E 0 87 4c 64
        E 0 88 3d 64
        E 0 8d 37 64
        E 0 91 45 64
        E 0 92 3e 64
        E 0 93 36 64
        E 0 95 51 64
        E 0 97 51 64
        E 0 98 3e 64
        E 0 9d 36 64
        E 505 90 4a 64
        E 0 94 4a 64
        E 1 9e 4a 64
        E 506 80 4a 64
        E 0 82 3e 64
        E 0 84 4a 64
        E 0 8e 4a 64
        E 0 88 3e 64
        E 0 90 4a 64
        E 1 92 39 64
        E 0 94 4a 64
        E 0 9e 4a 64
        E 0 98 39 64
        E 504 80 4a 64
        E 0 82 39 64
        E 0 84 4a 64
        E 0 8e 4a 64
        E 0 88 39 64
        E 0 90 4a 64
        E 0 92 3b 64
        E 0 94 4a 64
        E 0 9e 4a 64
        E 0 98 3b 64
        E 505 80 4a 64
        E 0 81 45 64
        E 0 82 3b 64
        E 0 83 36 64
        E 0 84 4a 64
        E 0 85 51 64
        E 0 87 51 64
        E 0 8e 4a 64
        E 0 88 3b 64
        E 0 8d 36 64
        E 0 90 49 64
        E 0 91 40 64
        E 0 92 3d 64
        E 0 93 39 64
        E 0 94 49 64
        E 0 95 4c 64
        E 0 97 4c 64
        E 0 9e 49 64
        E 0 98 3d 64
        E 0 9d 39 64
        E 505 82 3d 64
        E 0 88 3d 64
        E 0 92 3e 64
        E 0 98 3e 64
        E 254 80 49 64
        E 0 84 49 64
        E 0 8e 49 64
        E 0 90 47 64
        E 0 94 47 64
        E 0 9e 47 64
        E 251 80 47 64
        E 0 82 3e 64
        E 0 84 47 64
        E 0 8e 47 64
        E 0 88 3e 64
        E 0 90 45 64
        E 0 92 40 64
        E 0 94 45 64
        E 0 9e 45 64
        E 0 98 40 64
        E 505 80 45 64
        E 0 81 40 64
        E 0 84 45 64
        E 0 85 4c 64
        E 0 87 4c 64
        E 0 8e 45 64
        E 0 90 49 64
        E 0 91 45 64
        E 0 94 49 64
        E 0 95 51 64
        E 0 97 51 64
        E 0 9e 49 64
        E 506 80 49 64
        E 0 81 45 64
        E 0 82 40 64
        E 0 83 39 64
        E 0 84 49 64
        E 0 85 51 64
        E 0 87 51 64
        E 0 8e 49 64
        E 0 88 40 64
        E 0 8d 39 64
        E 0 90 4a 64
        E 0 91 45 64
        E 0 92 39 64
        E 1 93 36 64
        E 0 94 4a 64
        E 0 95 51 64
        E 0 97 51 64
        E 0 9e 4a 64
        E 0 98 39 64
        E 0 9d 36 64
        E 504 80 4a 64
        E 0 81 45 64
        E 0 84 4a 64
        E 0 85 51 64
        E 0 87 51 64
        E 0 8e 4a 64
        E 0 90 4a 64
        E 0 91 43 64
        E 0 94 4a 64
        E 0 95 4f 64
        E 0 97 4f 64
        E 0 9e 4a 64
        E 253 80 4a 64
        E 0 84 4a 64
        E 0 8e 4a 64
        E 0 90 4a 64
        E 0 94 4a 64
        E 0 9e 4a 64
        E 253 80 4a 64
        E 0 81 43 64
        E 0 82 39 64
        E 0 83 36 64
        E 0 84 4a 64
        E 0 85 4f 64
        E 0 87 4f 64
        E 0 8e 4a 64
        E 0 88 39 64
        E 0 8d 36 64
        E 0 90 4a 64
        E 0 91 42 64
        E 0 92 3e 64
        E 1 93 36 64
        E 0 94 4a 64
        E 0 95 4e 64
        E 0 97 4e 64
        E 0 9e 4a 64
        E 0 98 3e 64
        E 0 9d 36 64
        E 504 80 4a 64
        E 1 81 42 64
        E 0 83 36 64
        E 0 84 4a 64
        E 0 85 4e 64
        E 0 87 4e 64
        E 0 8e 4a 64
        E 0 8d 36 64
        E 0 90 4a 64
        E 0 91 45 64
        E 0 93 36 64
        E 0 94 4a 64
        E 0 95 51 64
        E 0 97 51 64
        E 0 9e 4a 64
        E 0 9d 36 64
        E 504 80 4a 64
        E 0 81 45 64
        E 0 83 36 64
        E 0 84 4a 64
        E 0 85 51 64
        E 0 87 51 64
        E 0 8e 4a 64
        E 0 8d 36 64
        E 0 90 47 64
        E 0 91 43 64
        E 0 93 37 64
        E 0 94 47 64
        E 0 95 4f 64
        E 0 97 4f 64
        E 0 9e 47 64
        E 0 9d 37 64
        E 504 83 37 64
        E 0 8d 37 64
        E 0 93 37 64
        E 1 9d 37 64
        E 505 80 47 64
        E 0 82 3e 64
        E 0 83 37 64
        E 0 84 47 64
        E 0 8e 47 64
        E 0 88 3e 64
        E 0 8d 37 64
        E 1 90 47 64
        E 0 92 40 64
        E 0 93 34 64
        E 0 94 47 64
        E 0 9e 47 64
        E 0 98 40 64
        E 1 9d 34 64
        E 505 83 34 64
        E 0 8d 34 64
        E 0 93 34 64
        E 0 9d 34 64
        E 504 80 47 64
        E 0 81 43 64
        E 0 82 40 64
        E 0 83 34 64
        E 0 84 47 64
        E 0 85 4f 64
        E 0 87 4f 64
        E 0 8e 47 64
        E 0 88 40 64
        E 0 8d 34 64
        E 0 90 47 64
        E 1 91 42 64
        E 0 92 3d 64
        E 0 93 36 64
        E 0 95 4e 64
        E 0 97 4e 64
        E 0 9e 47 64
        E 0 98 3d 64
        E 0 9d 36 64
        E 1009 80 47 64
        E 0 8e 47 64
        E 1 90 46 64
        E 0 9e 46 64
        E 1009 80 46 64
        E 0 81 42 64
        E 0 82 3d 64
        E 0 83 36 64
        E 0 85 4e 64
        E 0 87 4e 64
        E 0 8e 46 64
        E 0 88 3d 64
        E 0 8d 36 64
        E 0 90 47 64
        E 0 91 42 64
        E 0 92 3e 64
        E 0 93 2f 64
        E 0 95 4e 64
        E 0 97 4e 64
        E 0 9e 47 64
        E 0 98 3e 64
        E 0 9d 2f 64
        E 508 85 4e 64
        E 0 87 4e 64
        E 0 94 53 64
        E 0 95 53 64
        E 0 97 53 64
        E 505 80 47 64
        E 0 81 42 64
        E 0 82 3e 64
        E 0 83 2f 64
        E 0 84 53 64
        E 0 85 53 64
        E 0 87 53 64
        E 0 8e 47 64
        E 0 94 53 64
        E 0 95 53 64
        E 0 97 53 64
        E 505 84 53 64
        E 0 85 53 64
        E 0 87 53 64
        E 0 94 53 64
        E 0 95 53 64
        E 0 97 53 64
        E 505 84 53 64
        E 0 85 53 64
        E 0 87 53 64
        E 0 88 3e 64
        E 0 8d 2f 64
        E 0 94 53 64
        E 0 95 50 64
        E 0 97 50 64
        E 0 98 3b 64
        E 0 9d 34 64
        E 505 9e 4c 64
        E 254 85 50 64
        E 0 87 50 64
        E 0 95 4e 64
        E 0 97 4e 64
        E 250 84 53 64
        E 0 85 4e 64
        E 0 87 4e 64
        E 0 8e 4c 64
        E 0 88 3b 64
        E 0 95 4c 64
        E 0 97 4c 64
        E 0 9e 4c 64
        E 0 98 44 64
        E 505 85 4c 64
        E 0 87 4c 64
        E 0 8e 4c 64
        E 0 95 50 64
        E 0 97 50 64
        E 0 9e 4c 64
        E 506 85 50 64
        E 0 87 50 64
        E 0 8e 4c 64
        E 0 88 44 64
        E 0 8d 34 64
        E 0 94 51 64
        E 0 95 51 64
        E 0 97 51 64
        E 0 9e 49 64
        E 0 98 40 64
        E 0 9d 2d 64
        E 506 84 51 64
        E 0 85 51 64
        E 0 87 51 64
        E 1 94 51 64
        E 0 95 51 64
        E 0 97 51 64
        E 250 84 51 64
        E 0 85 51 64
        E 0 87 51 64
        E 0 8e 49 64
        E 0 94 51 64
        E 1 95 51 64
        E 0 97 51 64
        E 0 9e 47 64
        E 253 84 51 64
        E 0 85 51 64
        E 0 87 51 64
        E 0 8e 47 64
        E 0 88 40 64
        E 0 94 51 64
        E 0 95 51 64
        E 0 97 51 64
        E 0 9e 45 64
        E 0 98 3d 64
        E 505 84 51 64
        E 0 85 51 64
        E 0 87 51 64
        E 0 8e 45 64
        E 0 94 51 64
        E 0 95 51 64
        E 1 97 51 64
        E 0 9e 49 64
        E 504 84 51 64
        E 0 85 51 64
        E 0 87 51 64
        E 0 8e 49 64
        E 0 88 3d 64
        E 0 8d 2d 64
        E 0 94 51 64
        E 0 95 4e 64
        E 0 97 4e 64
        E 0 9e 4a 64
        E 0 98 39 64
        E 0 9d 32 64
        E 505 8e 4a 64
        E 0 9e 4a 64
        E 252 85 4e 64
        E 0 87 4e 64
        E 0 8e 4a 64
        E 0 95 4c 64
        E 1 97 4c 64
        E 0 9e 4a 64
        E 253 84 51 64
        E 0 85 4c 64
        E 0 87 4c 64
        E 0 8e 4a 64
        E 1 88 39 64
        E 0 95 4a 64
        E 0 97 4a 64
        E 0 9e 4a 64
        E 0 98 42 64
        E 504 85 4a 64
        E 0 87 4a 64
        E 0 8e 4a 64
        E 0 95 4e 64
        E 0 97 4e 64
        E 0 9e 4a 64
        E 506 85 4e 64
        E 0 87 4e 64
        E 0 8e 4a 64
        E 0 88 42 64
        E 0 8d 32 64
        E 0 94 4f 64
        E 0 95 4f 64
        E 0 97 4f 64
        E 0 9e 4c 64
        E 0 98 47 64
        E 0 9d 2b 64
        E 504 84 4f 64
        E 0 85 4f 64
        E 0 87 4f 64
        E 0 8e 4c 64
        E 0 94 4f 64
        E 0 95 4f 64
        E 0 97 4f 64
        E 0 9e 4a 64
        E 254 84 4f 64
        E 0 85 4f 64
        E 0 87 4f 64
        E 0 94 4e 64
        E 0 95 4e 64
        E 0 97 4e 64
        E 251 84 4e 64
        E 0 85 4e 64
        E 0 87 4e 64
        E 0 8e 4a 64
        E 0 88 47 64
        E 0 94 4f 64
        E 0 95 4c 64
        E 0 97 4c 64
        E 0 9e 4f 64
        E 0 98 3b 64
        E 506 84 4f 64
        E 0 85 4c 64
        E 0 87 4c 64
        E 0 8e 4f 64
        E 0 94 4e 64
        E 1 95 4a 64
        E 0 97 4a 64
        E 0 9e 4e 64
        E 505 84 4e 64
        E 0 85 4a 64
        E 0 87 4a 64
        E 0 8e 4e 64
        E 0 88 3b 64
        E 0 8d 2b 64
        E 0 94 4c 64
        E 0 95 49 64
        E 0 97 49 64
        E 0 9e 4c 64
        E 0 98 3d 64
        E 0 9d 2d 64
        E 507 85 49 64
        E 0 87 49 64
        E 0 8e 4c 64
        E 0 95 51 64
        E 0 97 51 64
        E 0 9e 45 64
        E 503 85 51 64
        E 0 87 51 64
        E 0 8e 45 64
        E 0 88 3d 64
        E 0 95 4c 64
        E 0 97 4c 64
        E 0 9e 49 64
        E 0 98 45 64
        E 504 84 4c 64
        E 0 85 4c 64
        E 0 87 4c 64
        E 0 8e 49 64
        E 0 94 51 64
        E 0 95 55 64
        E 0 97 55 64
        E 0 9e 51 64
        E 507 84 51 64
        E 0 85 55 64
        E 0 87 55 64
        E 0 8e 51 64
        E 0 8d 2d 64
        E 0 94 51 64
        E 0 95 56 64
        E 0 97 56 64
        E 0 9e 4e 64
        E 0 9d 32 64
        E 504 84 51 64
        E 0 85 56 64
        E 0 87 56 64
        E 0 8e 4e 64
        E 0 94 4e 64
        E 1 95 4e 64
        E 0 97 4e 64
        E 0 9e 4a 64
        E 504 84 4e 64
        E 0 85 4e 64
        E 0 87 4e 64
        E 0 88 45 64
        E 0 8d 32 64
        E 0 94 4c 64
        E 1 95 4c 64
        E 0 97 4c 64
        E 0 98 45 64
        E 0 9d 2d 64
        E 506 8e 4a 64
        E 0 9e 49 64
        E 506 84 4c 64
        E 0 85 4c 64
        E 0 87 4c 64
        E 0 8e 49 64
        E 0 88 45 64
        E 0 8d 2d 64
        E 0 91 3e 64
        E 0 94 4a 64
        E 0 95 4a 64
        E 0 97 4a 64
        E 0 9e 4a 64
        E 0 98 45 64
        E 0 9d 32 64
        E 1008 8e 4a 64
        E 0 90 4a 64
        E 0 9e 4a 64
        E 1010 81 3e 64
        E 0 84 4a 64
        E 0 85 4a 64
        E 0 87 4a 64
        E 0 88 45 64
        E 0 8d 32 64
        E 0 91 42 64
        E 0 95 4e 64
        E 0 97 4e 64
        E 1012 80 4a 64
        E 1 81 42 64
        E 0 85 4e 64
        E 0 87 4e 64
        E 0 8e 4a 64
        E 0 90 49 64
        E 0 91 40 64
        E 0 92 39 64
        E 0 95 4c 64
        E 0 97 4c 64
        E 0 9e 49 64
        E 0 98 45 64
        E 0 9d 39 64
        E 1009 80 49 64
        E 0 81 40 64
        E 0 82 39 64
        E 0 85 4c 64
        E 0 87 4c 64
        E 0 8e 49 64
        E 0 88 45 64
        E 0 8d 39 64
        E 0 90 4e 64
        E 0 91 3e 64
        E 0 92 39 64
        E 0 95 4a 64
        E 0 97 4a 64
        E 0 9e 4e 64
        E 1 98 45 64
        E 0 9d 39 64
        E 1009 82 39 64
        E 0 88 45 64
        E 0 8d 39 64
        E 1 92 38 64
        E 0 98 44 64
        E 0 9d 38 64
        E 505 81 3e 64
        E 0 85 4a 64
        E 0 87 4a 64
        E 0 91 3e 64
        E 1 95 4a 64
        E 0 97 4a 64
        E 506 80 4e 64
        E 0 81 3e 64
        E 0 82 38 64
        E 0 85 4a 64
        E 0 87 4a 64
        E 0 8e 4e 64
        E 0 88 44 64
        E 0 8d 38 64
        E 0 90 4c 64
        E 0 91 3d 64
        E 0 92 39 64
        E 0 95 49 64
        E 0 97 49 64
        E 0 9e 4c 64
        E 0 98 45 64
        E 0 9d 39 64
        E 503 8d 39 64
        E 0 93 39 64
        E 0 9d 39 64
        E 506 80 4c 64
        E 0 83 39 64
        E 0 8e 4c 64
        E 0 8d 39 64
        E 0 93 39 64
        E 0 9d 39 64
        E 505 81 3d 64
        E 0 83 39 64
        E 0 85 49 64
        E 0 87 49 64
        E 0 8d 39 64
        E 0 91 3d 64
        E 0 93 39 64
        E 0 95 49 64
        E 0 97 49 64
        E 0 9d 39 64
        E 506 81 3d 64
        E 0 82 39 64
        E 0 83 39 64
        E 0 85 49 64
        E 0 87 49 64
        E 0 88 45 64
        E 0 8d 39 64
        E 0 90 45 64
        E 0 91 3e 64
        E 0 93 36 64
        E 0 95 4a 64
        E 0 97 4a 64
        E 0 9e 45 64
        E 0 9d 36 64
        E 504 81 3e 64
        E 0 85 4a 64
        E 0 87 4a 64
        E 0 91 40 64
        E 0 95 4c 64
        E 0 97 4c 64
        E 253 83 36 64
        E 0 8d 36 64
        E 0 93 34 64
        E 0 9d 34 64
        E 257 81 40 64
        E 0 83 34 64
        E 0 85 4c 64
        E 0 87 4c 64
        E 0 8d 34 64
        E 0 91 42 64
        E 0 92 3e 64
        E 0 93 32 64
        E 0 95 4e 64
        E 0 97 4e 64
        E 0 98 3e 64
        E 0 9d 32 64
        E 502 83 32 64
        E 0 8d 32 64
        E 0 93 36 64
        E 0 9d 36 64
        E 506 80 45 64
        E 0 81 42 64
        E 0 82 3e 64
        E 0 83 36 64
        E 0 85 4e 64
        E 0 87 4e 64
        E 0 8e 45 64
        E 0 88 3e 64
        E 0 8d 36 64
        E 0 90 47 64
        E 0 91 3e 64
        E 0 92 3b 64
        E 0 93 37 64
        E 0 95 4a 64
        E 1 97 4a 64
        E 0 9e 47 64
        E 0 98 3b 64
        E 0 9d 37 64
        E 502 83 37 64
        E 0 93 37 64
        E 253 83 37 64
        E 1 93 37 64
        E 252 80 47 64
        E 0 81 3e 64
        E 0 82 3b 64
        E 0 83 37 64
        E 0 85 4a 64
        E 0 87 4a 64
        E 0 8e 47 64
        E 0 88 3b 64
        E 0 8d 37 64
        E 0 90 45 64
        E 0 91 42 64
        E 0 92 3e 64
        E 0 93 36 64
        E 0 95 4e 64
        E 0 97 4e 64
        E 0 9e 45 64
        E 0 98 3e 64
        E 0 9d 36 64
        E 505 83 36 64
        E 1 93 36 64
        E 505 80 45 64
        E 0 81 42 64
        E 0 82 3e 64
        E 0 83 36 64
        E 0 85 4e 64
        E 0 87 4e 64
        E 0 8e 45 64
        E 0 88 3e 64
        E 0 8d 36 64
        E 0 90 43 64
        E 0 91 3b 64
        E 0 92 3e 64
        E 0 93 34 64
        E 0 95 47 64
        E 0 97 47 64
        E 0 9e 43 64
        E 0 98 3e 64
        E 0 9d 34 64
        E 505 83 34 64
        E 0 93 34 64
        E 506 81 3b 64
        E 1 82 3e 64
        E 0 83 34 64
        E 0 85 47 64
        E 0 87 47 64
        E 0 88 3e 64
        E 0 8d 34 64
        E 0 91 3d 64
        E 0 92 3d 64
        E 0 93 39 64
        E 0 95 49 64
        E 0 97 49 64
        E 0 98 3d 64
        E 0 9d 39 64
        E 503 80 43 64
        E 0 8e 43 64
        E 0 90 43 64
        E 0 9e 43 64
        E 506 80 43 64
        E 0 81 3d 64
        E 0 82 3d 64
        E 0 83 39 64
        E 0 85 49 64
        E 0 87 49 64
        E 0 8e 43 64
        E 0 88 3d 64
        E 0 8d 39 64
        E 0 90 42 64
        E 0 91 3e 64
        E 0 93 32 64
        E 0 95 4a 64
        E 0 97 4a 64
        E 0 9e 42 64
        E 0 98 39 64
        E 0 9d 32 64
        E 505 83 32 64
        E 0 8d 32 64
        E 0 93 3e 64
        E 0 9d 3e 64
        E 504 81 3e 64
        E 0 83 3e 64
        E 0 85 4a 64
        E 0 87 4a 64
        E 0 88 39 64
        E 0 8d 3e 64
        E 0 91 42 64
        E 0 93 3e 64
        E 0 95 4e 64
        E 0 97 4e 64
        E 0 9d 3e 64
        E 507 80 42 64
        E 0 83 3e 64
        E 0 8e 42 64
        E 0 8d 3e 64
        E 0 90 42 64
        E 0 93 3e 64
        E 0 9e 42 64
        E 0 9d 3e 64
        E 505 80 42 64
        E 1 81 42 64
        E 0 83 3e 64
        E 1 85 4e 64
        E 0 87 4e 64
        E 0 8e 42 64
        E 0 8d 3e 64
        E 0 90 45 64
        E 0 91 40 64
        E 0 93 3d 64
        E 0 95 4c 64
        E 0 97 4c 64
        E 1 9e 45 64
        E 0 9d 3d 64
        E 502 80 45 64
        E 0 8e 45 64
        E 0 90 45 64
        E 0 9e 45 64
        E 255 80 45 64
        E 0 83 3d 64
        E 0 8e 45 64
        E 0 8d 3d 64
        E 0 90 45 64
        E 0 93 3b 64
        E 0 9e 45 64
        E 0 9d 3b 64
        E 250 80 45 64
        E 0 83 3b 64
        E 0 8e 45 64
        E 0 8d 3b 64
        E 1 90 45 64
        E 0 93 39 64
        E 0 9e 45 64
        E 0 9d 39 64
        E 504 80 45 64
        E 0 83 39 64
        E 0 8e 45 64
        E 0 8d 39 64
        E 0 90 45 64
        E 1 93 3d 64
        E 0 9e 45 64
        E 0 9d 3d 64
        E 503 80 45 64
        E 0 81 40 64
        E 0 83 3d 64
        E 0 85 4c 64
        E 0 87 4c 64
        E 0 8e 45 64
        E 0 8d 3d 64
        E 0 90 45 64
        E 0 91 3e 64
        E 0 92 42 64
        E 0 93 3e 64
        E 0 95 4a 64
        E 1 97 4a 64
        E 0 9e 45 64
        E 0 98 42 64
        E 0 9d 3e 64
        E 507 83 3e 64
        E 0 93 3e 64
        E 251 83 3e 64
        E 1 93 3e 64
        E 252 80 45 64
        E 0 81 3e 64
        E 0 82 42 64
        E 0 83 3e 64
        E 0 85 4a 64
        E 0 87 4a 64
        E 0 8e 45 64
        E 0 88 42 64
        E 0 8d 3e 64
        E 0 90 45 64
        E 0 91 40 64
        E 0 92 40 64
        E 0 93 3d 64
        E 0 95 4c 64
        E 0 97 4c 64
        E 0 9e 45 64
        E 0 98 40 64
        E 0 9d 3d 64
        E 506 83 3d 64
        E 0 93 3d 64
        E 505 80 45 64
        E 0 81 40 64
        E 0 82 40 64
        E 0 83 3d 64
        E 0 85 4c 64
        E 0 87 4c 64
        E 0 8e 45 64
        E 0 88 40 64
        E 0 8d 3d 64
        E 0 90 45 64
        E 0 91 42 64
        E 0 92 3e 64
        E 2 93 3b 64
        E 0 95 4e 64
        E 0 97 4e 64
        E 0 9e 45 64
        E 0 98 3e 64
        E 0 9d 3b 64
        E 1008 80 45 64
        E 1 81 42 64
        E 0 85 4e 64
        E 0 87 4e 64
        E 0 8e 45 64
        E 0 90 44 64
        E 0 91 47 64
        E 0 95 53 64
        E 0 97 53 64
        E 0 9e 44 64
        E 1014 80 44 64
        E 0 81 47 64
        E 0 82 3e 64
        E 0 83 3b 64
        E 0 85 53 64
        E 0 87 53 64
        E 0 8e 44 64
        E 0 88 3e 64
        E 0 8d 3b 64
        E 2 90 45 64
        E 0 91 40 64
        E 2 92 3d 64
        E 0 93 39 64
        E 0 95 4c 64
        E 0 97 4c 64
        E 0 9e 45 64
        E 2 98 3d 64
        E 0 9d 39 64
        E 495 80 45 64
        E 0 8e 45 64
        E 0 90 49 64
        E 0 9e 49 64
        E 506 81 40 64
        E 0 83 39 64
        E 0 85 4c 64
        E 0 87 4c 64
        E 0 8d 39 64
        E 0 91 42 64
        E 1 93 3a 64
        E 0 95 4e 64
        E 0 97 4e 64
        E 0 9d 3a 64
        E 503 80 49 64
        E 0 8e 49 64
        E 0 90 4e 64
        E 0 9e 4e 64
        E 508 80 4e 64
        E 0 81 42 64
        E 0 82 3d 64
        E 0 83 3a 64
        E 0 85 4e 64
        E 0 87 4e 64
        E 0 8e 4e 64
        E 0 88 3d 64
        E 0 8d 3a 64
        E 0 90 4e 64
        E 0 91 42 64
        E 0 92 3e 64
        E 0 93 3b 64
        E 0 95 4e 64
        E 0 97 4e 64
        E 0 9e 4e 64
        E 0 98 3e 64
        E 0 9d 3b 64
        E 501 80 4e 64
        E 0 8e 4e 64
        E 0 90 4a 64
        E 1 9e 4a 64
        E 508 80 4a 64
        E 0 81 42 64
        E 0 82 3e 64
        E 0 83 3b 64
        E 0 85 4e 64
        E 0 87 4e 64
        E 0 8e 4a 64
        E 0 88 3e 64
        E 0 8d 3b 64
        E 0 90 47 64
        E 0 91 43 64
        E 0 92 40 64
        E 0 93 37 64
        E 0 95 4f 64
        E 0 97 4f 64
        E 0 9e 47 64
        E 0 98 40 64
        E 0 9d 37 64
        E 505 83 37 64
        E 0 8d 37 64
        E 0 93 34 64
        E 0 9d 34 64
        E 505 81 43 64
        E 0 82 40 64
        E 0 83 34 64
        E 0 85 4f 64
        E 0 87 4f 64
        E 0 88 40 64
        E 0 8d 34 64
        E 1 91 42 64
        E 0 92 3d 64
        E 0 93 36 64
        E 0 95 4e 64
        E 0 97 4e 64
        E 0 98 3d 64
        E 0 9d 36 64
        E 1008 80 47 64
        E 0 8e 47 64
        E 0 90 46 64
        E 0 9e 46 64
        E 1013 80 46 64
        E 0 81 42 64
        E 0 82 3d 64
        E 0 83 36 64
        E 0 85 4e 64
        E 0 87 4e 64
        E 0 8e 46 64
        E 0 88 3d 64
        E 0 8d 36 64
        E 0 90 47 64
        E 0 91 42 64
        E 0 92 3e 64
        E 0 93 2f 64
        E 0 95 4e 64
        E 0 97 4e 64
        E 0 9e 47 64
        E 1 98 3e 64
        E 0 9d 2f 64
        E 1008 81 42 64
        E 0 82 3e 64
        E 0 83 2f 64
        E 0 85 4e 64
        E 0 87 4e 64
        E 0 88 3e 64
        E 0 8d 2f 64
        E 1 93 32 64
        E 0 9d 32 64
        E 504 80 47 64
        E 0 8e 47 64
        E 0 90 45 64
        E 0 9e 45 64
        E 506 80 45 64
        E 0 8e 45 64
        E 0 90 44 64
        E 0 91 40 64
        E 0 92 3b 64
        E 1 95 4c 64
        E 0 97 4c 64
        E 0 9e 44 64
        E 0 98 3b 64
        E 1008 80 44 64
        E 0 82 3b 64
        E 0 83 32 64
        E 0 8e 44 64
        E 0 88 3b 64
        E 0 8d 32 64
        E 0 90 45 64
        E 0 92 3d 64
        E 0 93 31 64
        E 0 9e 45 64
        E 0 98 3d 64
        E 0 9d 31 64
        E 508 83 31 64
        E 0 8d 31 64
        E 0 93 32 64
        E 0 9d 32 64
        E 504 80 45 64
        E 0 81 40 64
        E 0 82 3d 64
        E 0 83 32 64
        E 0 85 4c 64
        E 0 87 4c 64
        E 0 8e 45 64
        E 0 88 3d 64
        E 0 8d 32 64
        E 0 90 45 64
        E 0 91 40 64
        E 0 92 3b 64
        E 0 93 34 64
        E 0 95 4c 64
        E 0 97 4c 64
        E 0 9e 45 64
        E 0 98 3b 64
        E 0 9d 34 64
        E 1009 80 45 64
        E 1 8e 45 64
        E 0 90 44 64
        E 0 9e 44 64
        E 1009 80 44 64
        E 0 81 40 64
        E 0 82 3b 64
        E 0 83 34 64
        E 0 8e 44 64
        E 0 88 3b 64
        E 0 8d 34 64
        E 0 90 45 64
        E 0 91 40 64
        E 0 92 3d 64
        E 0 93 2d 64
        E 0 9e 45 64
        E 0 98 3d 64
        E 0 9d 2d 64
        E 1012 81 40 64
        E 0 82 3d 64
        E 0 83 2d 64
        E 0 85 4c 64
        E 0 87 4c 64
        E 0 88 3d 64
        E 0 8d 2d 64
        E 0 91 42 64
        E 0 93 32 64
        E 0 95 4e 64
        E 0 97 4e 64
        E 0 9d 32 64
        E 505 83 32 64
        E 0 8d 32 64
        E 0 93 2f 64
        E 1 9d 2f 64
        E 503 80 45 64
        E 0 81 42 64
        E 0 83 2f 64
        E 0 85 4e 64
        E 0 87 4e 64
        E 0 8e 45 64
        E 0 8d 2f 64
        E 0 90 44 64
        E 1 91 42 64
        E 0 92 3d 64
        E 0 93 31 64
        E 0 95 4e 64
        E 0 97 4e 64
        E 0 9e 44 64
        E 0 98 3d 64
        E 0 9d 31 64
        E 1010 81 42 64
        E 0 85 4e 64
        E 0 87 4e 64
        E 0 91 41 63
        E 0 95 4d 63
        E 0 97 4d 63
        E 1012 80 44 64
        E 0 81 41 63
        E 0 82 3d 64
        E 0 83 31 64
        E 0 85 4d 63
        E 0 87 4d 63
        E 0 8e 44 64
        E 0 88 3d 64
        E 0 8d 31 64
        E 0 90 42 64
        E 0 91 42 64
        E 0 92 3d 64
        E 0 93 36 64
        E 0 95 4e 64
        E 0 97 4e 64
        E 0 9e 45 64
        E 0 98 3d 64
        E 0 9d 2a 64
        E 505 85 4e 64
        E 0 87 4e 64
        E 0 95 4e 64
        E 0 97 4e 64
        E 504 80 42 64
        E 0 81 42 64
        E 0 82 3d 64
        E 0 83 36 64
        E 0 85 4e 64
        E 0 87 4e 64
        E 0 8e 45 64
        E 0 88 3d 64
        E 0 95 4e 64
        E 0 97 4e 64
        E 0 98 46 64
        E 507 85 4e 64
        E 0 87 4e 64
        E 0 95 4e 64
        E 0 97 4e 64
        E 504 85 4e 64
        E 0 87 4e 64
        E 0 88 46 64
        E 0 8d 2a 64
        E 0 95 4b 64
        E 0 97 4b 64
        E 0 98 42 64
        E 0 9d 2f 64
        E 505 9e 47 64
        E 254 85 4b 64
        E 0 87 4b 64
        E 0 95 49 64
        E 0 97 49 64
        E 254 85 49 64
        E 0 87 49 64
        E 0 8e 47 64
        E 0 88 42 64
        E 0 95 47 64
        E 0 97 47 64
        E 0 9e 47 64
        E 0 98 3f 64
        E 504 85 47 64
        E 0 87 47 64
        E 0 8e 47 64
        E 0 95 4b 64
        E 0 97 4b 64
        E 1 9e 47 64
        E 503 85 4b 64
        E 0 87 4b 64
        E 0 8e 47 64
        E 0 88 3f 64
        E 0 8d 2f 64
        E 0 95 4c 64
        E 0 97 4c 64
        E 0 9e 44 64
        E 0 98 3b 64
        E 0 9d 34 64
        E 506 85 4c 64
        E 0 87 4c 64
        E 0 95 4c 64
        E 0 97 4c 64
        E 254 85 4c 64
        E 0 87 4c 64
        E 0 8e 44 64
        E 0 95 4c 64
        E 0 97 4c 64
        E 0 9e 42 64
        E 252 85 4c 64
        E 0 87 4c 64
        E 0 8e 42 64
        E 0 88 3b 64
        E 0 95 4c 64
        E 0 97 4c 64
        E 0 9e 40 64
        E 0 98 38 64
        E 504 85 4c 64
        E 0 87 4c 64
        E 0 8e 40 64
        E 0 95 4c 64
        E 0 97 4c 64
        E 0 9e 44 64
        E 506 85 4c 64
        E 0 87 4c 64
        E 0 8e 44 64
        E 0 88 38 64
        E 0 8d 34 64
        E 0 95 49 64
        E 0 97 49 64
        E 0 9e 45 64
        E 0 98 40 64
        E 0 9d 2d 64
        E 505 8e 45 64
        E 0 9e 45 64
        E 251 85 49 64
        E 0 87 49 64
        E 0 8e 45 64
        E 0 95 47 64
        E 0 97 47 64
        E 0 9e 45 64
        E 254 85 47 64
        E 0 87 47 64
        E 0 8e 45 64
        E 0 88 40 64
        E 0 95 45 64
        E 0 97 45 64
        E 0 9e 45 64
        E 0 98 3d 64
        E 505 85 45 64
        E 0 87 45 64
        E 0 8e 45 64
        E 0 95 49 64
        E 0 97 49 64
        E 0 9e 45 64
        E 505 85 49 64
        E 0 87 49 64
        E 0 8e 45 64
        E 0 88 3d 64
        E 0 8d 2d 64
        E 0 95 4a 64
        E 0 97 4a 64
        E 0 9e 42 64
        E 0 98 39 64
        E 0 9d 32 64
        E 506 85 4a 64
        E 0 87 4a 64
        E 0 95 4a 64
        E 0 97 4a 64
        E 254 85 4a 64
        E 0 87 4a 64
        E 0 8e 42 64
        E 0 95 4a 64
        E 0 97 4a 64
        E 0 9e 40 64
        E 251 85 4a 64
        E 0 87 4a 64
        E 1 8e 40 64
        E 0 88 39 64
        E 0 95 4a 64
        E 0 97 4a 64
        E 0 9e 3e 64
        E 0 98 36 64
        E 505 85 4a 64
        E 0 87 4a 64
        E 0 8e 3e 64
        E 0 95 4a 64
        E 0 97 4a 64
        E 0 9e 42 64
        E 505 85 4a 64
        E 0 87 4a 64
        E 0 8e 42 64
        E 0 88 36 64
        E 0 8d 32 64
        E 0 95 47 64
        E 0 97 47 64
        E 0 9e 43 64
        E 0 98 3e 64
        E 0 9d 2b 64
        E 504 8e 43 64
        E 0 88 3e 64
        E 0 9e 43 64
        E 1 98 3e 64
        E 253 85 47 64
        E 0 87 47 64
        E 0 8e 43 64
        E 0 88 3e 64
        E 0 95 45 64
        E 0 97 45 64
        E 0 9e 43 64
        E 0 98 3e 64
        E 253 85 45 64
        E 0 87 45 64
        E 0 8e 43 64
        E 0 88 3e 64
        E 0 95 43 64
        E 0 97 43 64
        E 0 9e 43 64
        E 0 98 3e 64
        E 504 85 43 64
        E 0 87 43 64
        E 0 8e 43 64
        E 0 88 3e 64
        E 0 95 47 64
        E 0 97 47 64
        E 0 9e 43 64
        E 0 98 3e 64
        E 505 85 47 64
        E 0 87 47 64
        E 0 8e 43 64
        E 0 88 3e 64
        E 0 8d 2b 64
        E 0 95 48 64
        E 0 97 48 64
        E 0 9e 43 64
        E 0 98 40 64
        E 0 9d 30 64
        E 1010 85 48 64
        E 0 87 48 64
        E 0 88 40 64
        E 0 8d 30 64
        E 1 95 47 64
        E 0 97 47 64
        E 0 98 3e 64
        E 0 9d 2b 64
        E 1011 85 47 64
        E 0 87 47 64
        E 0 8e 43 64
        E 0 88 3e 64
        E 0 8d 2b 64
        E 0 95 47 64
        E 0 97 47 64
        E 0 9e 43 64
        E 0 98 40 64
        E 0 9d 30 64
        E 1011 85 47 64
        E 0 87 47 64
        E 0 8e 43 64
        E 0 95 45 64
        E 0 97 45 64
        E 0 9e 48 64
        E 1010 85 45 64
        E 0 87 45 64
        E 0 8e 48 64
        E 0 88 40 64
        E 0 8d 30 64
        E 0 95 47 64
        E 0 97 47 64
        E 0 9e 42 64
        E 0 98 3f 64
        E 0 9d 2f 64
        E 1010 8e 42 64
        E 0 88 3f 64
        E 0 8d 2f 64
        E 0 9e 40 64
        E 0 98 37 64
        E 0 9d 34 64
        E 1011 85 47 64
        E 0 87 47 64
        E 0 8e 40 64
        E 0 88 37 64
        E 0 8d 34 64
        E 0 95 47 64
        E 0 97 47 64
        E 0 9e 40 64
        E 0 98 36 64
        E 0 9d 2f 64
        E 1010 8e 40 64
        E 0 88 36 64
        E 0 9e 3f 64
        E 0 98 3b 64
        E 506 85 47 64
        E 0 87 47 64
        E 0 95 45 64
        E 0 97 45 64
        E 504 85 45 64
        E 0 87 45 64
        E 0 8e 3f 64
        E 0 88 3b 64
        E 0 8d 2f 64
        E 0 95 43 64
        E 0 97 43 64
        E 0 9e 40 64
        E 0 98 3b 64
        E 0 9d 34 64
        E 505 90 4c 64
        E 506 80 4c 64
        E 0 85 43 64
        E 0 87 43 64
        E 0 8e 40 64
        E 0 88 3b 64
        E 0 8d 34 64
        E 0 90 4c 64
        E 0 93 38 64
        E 0 9d 38 64
        E 505 80 4c 64
        E 0 90 4c 64
        E 506 80 4c 64
        E 0 83 38 64
        E 0 8d 38 64
        E 0 90 49 64
        E 0 93 39 64
        E 0 9d 39 64
        E 505 91 45 64
        E 252 80 49 64
        E 0 90 49 64
        E 254 80 49 64
        E 0 81 45 64
        E 0 90 49 64
        E 0 91 45 64
        E 0 92 39 64
        E 505 81 45 64
        E 0 91 45 64
        E 505 80 49 64
        E 0 81 45 64
        E 0 82 39 64
        E 0 83 39 64
        E 0 8d 39 64
        E 0 91 42 64
        E 0 92 3e 64
        E 504 90 4a 64
        E 254 81 42 64
        E 0 91 42 64
        E 253 80 4a 64
        E 0 81 42 64
        E 0 90 4a 64
        E 0 91 42 64
        E 0 93 36 64
        E 0 9d 36 64
        E 504 80 4a 64
        E 1 90 4a 64
        E 505 80 4a 64
        E 0 81 42 64
        E 0 82 3e 64
        E 0 83 36 64
        E 0 8d 36 64
        E 0 90 47 64
        E 0 93 37 64
        E 0 9d 37 64
        E 759 80 47 64
        E 0 90 47 64
        E 252 80 47 64
        E 0 90 47 64
        E 0 91 43 64
        E 1009 80 47 64
        E 0 83 37 64
        E 0 8d 37 64
        E 0 90 45 64
        E 0 92 3e 64
        E 1 93 32 64
        E 0 9d 32 64
        E 1011 81 43 64
        E 0 91 42 64
        E 1012 80 45 64
        E 0 81 42 64
        E 0 82 3e 64
        E 0 83 32 64
        E 0 8d 32 64
        E 0 90 47 64
        E 0 91 43 64
        E 0 92 3e 64
        E 0 93 37 64
        E 0 9d 37 64
        E 1007 80 47 64
        E 0 81 43 64
        E 0 82 3e 64
        E 0 83 37 64
        E 0 8d 37 64
        E 1 90 4a 64
        E 0 92 42 64
        E 0 93 36 64
        E 0 9d 36 64
        E 1011 82 42 64
        E 1 83 36 64
        E 0 8d 36 64
        E 0 91 43 64
        E 0 92 3b 64
        E 0 93 34 64
        E 0 9d 34 64
        E 1011 80 4a 64
        E 0 82 3b 64
        E 0 90 49 64
        E 0 92 40 64
        E 1010 80 49 64
        E 0 81 43 64
        E 0 82 40 64
        E 0 83 34 64
        E 0 8d 34 64
        E 0 90 4a 64
        E 0 91 42 64
        E 0 92 39 64
        E 0 93 32 64
        E 0 94 51 64
        E 0 95 4a 64
        E 0 97 4a 64
        E 0 9d 32 64
        E 1013 98 3e 64
        E 1008 80 4a 64
        E 0 81 42 64
        E 0 82 39 64
        E 0 83 32 64
        E 0 84 51 64
        E 0 85 4a 64
        E 0 87 4a 64
        E 0 8d 32 64
        E 0 94 51 64
        E 0 95 4e 64
        E 0 97 4e 64
        E 0 9e 45 64
        E 1009 84 51 64
        E 0 85 4e 64
        E 0 87 4e 64
        E 0 8e 45 64
        E 0 88 3e 64
        E 0 94 51 64
        E 0 95 4c 64
        E 0 97 4c 64
        E 0 9e 49 64
        E 0 98 3d 64
        E 0 9d 39 64
        E 1012 84 51 64
        E 0 85 4c 64
        E 0 87 4c 64
        E 0 8e 49 64
        E 0 88 3d 64
        E 0 8d 39 64
        E 0 94 53 64
        E 0 95 4a 64
        E 0 97 4a 64
        E 0 9e 42 64
        E 0 98 3b 64
        E 0 9d 39 64
        E 1011 84 53 64
        E 0 8e 42 64
        E 0 8d 39 64
        E 0 94 4c 64
        E 0 9e 47 64
        E 1 9d 38 64
        E 502 85 4a 64
        E 0 87 4a 64
        E 0 95 4a 64
        E 0 97 4a 64
        E 507 84 4c 64
        E 0 85 4a 64
        E 0 87 4a 64
        E 0 8e 47 64
        E 0 88 3b 64
        E 0 8d 38 64
        E 0 93 39 64
        E 0 94 4c 64
        E 0 95 49 64
        E 0 97 49 64
        E 0 9e 40 64
        E 0 98 39 64
        E 0 9d 39 64
        E 504 88 39 64
        E 1 92 39 64
        E 0 98 39 64
        E 505 82 39 64
        E 0 84 4c 64
        E 0 88 39 64
        E 0 92 3b 64
        E 0 98 3b 64
        E 507 82 3b 64
        E 0 88 3b 64
        E 0 92 3d 64
        E 0 98 3d 64
        E 505 82 3d 64
        E 0 83 39 64
        E 0 85 49 64
        E 0 87 49 64
        E 0 8e 40 64
        E 0 88 3d 64
        E 0 8d 39 64
        E 0 92 3e 64
        E 0 93 3b 64
        E 0 98 3e 64
        E 0 9d 3b 64
        E 504 91 42 64
        E 0 94 4e 64
        E 0 95 4e 64
        E 0 97 4e 64
        E 252 82 3e 64
        E 0 88 3e 64
        E 0 92 3e 64
        E 0 98 3e 64
        E 252 81 42 64
        E 0 82 3e 64
        E 0 83 3b 64
        E 0 84 4e 64
        E 0 85 4e 64
        E 0 87 4e 64
        E 0 88 3e 64
        E 0 8d 3b 64
        E 0 90 45 64
        E 0 91 42 64
        E 1 92 3e 64
        E 0 93 39 64
        E 0 94 4e 64
        E 0 95 4e 64
        E 0 97 4e 64
        E 0 9e 45 64
        E 0 98 3e 64
        E 0 9d 39 64
        E 504 81 42 64
        E 0 82 3e 64
        E 0 84 4e 64
        E 0 85 4e 64
        E 0 87 4e 64
        E 0 88 3e 64
        E 0 91 42 64
        E 0 92 3e 64
        E 0 94 4e 64
        E 0 95 4e 64
        E 0 97 4e 64
        E 0 98 3e 64
        E 508 80 45 64
        E 0 81 42 64
        E 0 82 3e 64
        E 0 83 39 64
        E 0 84 4e 64
        E 0 85 4e 64
        E 0 87 4e 64
        E 0 8e 45 64
        E 0 88 3e 64
        E 0 8d 39 64
        E 0 90 47 64
        E 0 91 43 64
        E 0 92 3e 64
        E 0 93 37 64
        E 0 94 4f 64
        E 0 95 4f 64
        E 1 97 4f 64
        E 0 9e 47 64
        E 0 98 3e 64
        E 0 9d 37 64
        E 503 82 3e 64
        E 0 88 3e 64
        E 0 92 3e 64
        E 0 98 3e 64
        E 251 81 43 64
        E 0 82 3e 64
        E 0 84 4f 64
        E 0 85 4f 64
        E 0 87 4f 64
        E 0 88 3e 64
        E 0 91 42 64
        E 0 92 3e 64
        E 0 94 4e 64
        E 0 95 4e 64
        E 0 97 4e 64
        E 1 98 3e 64
        E 253 80 47 64
        E 0 81 42 64
        E 0 82 3e 64
        E 0 84 4e 64
        E 0 85 4e 64
        E 0 87 4e 64
        E 0 8e 47 64
        E 0 88 3e 64
        E 0 90 49 64
        E 0 91 40 64
        E 0 92 40 64
        E 0 94 4c 64
        E 0 95 4c 64
        E 0 97 4c 64
        E 0 9e 49 64
        E 0 98 40 64
        E 506 81 40 64
        E 0 82 40 64
        E 0 83 37 64
        E 0 84 4c 64
        E 0 85 4c 64
        E 0 87 4c 64
        E 0 88 40 64
        E 0 8d 37 64
        E 0 91 40 64
        E 0 92 40 64
        E 0 93 37 64
        E 0 94 4c 64
        E 0 95 4c 64
        E 0 97 4c 64
        E 0 98 40 64
        E 0 9d 37 64
        E 505 80 49 64
        E 0 81 40 64
        E 0 82 40 64
        E 0 83 37 64
        E 0 84 4c 64
        E 0 85 4c 64
        E 0 87 4c 64
        E 0 8e 49 64
        E 0 88 40 64
        E 0 8d 37 64
        E 0 90 4a 64
        E 0 91 42 64
        E 0 92 39 64
        E 0 93 36 64
        E 0 94 4e 64
        E 0 95 4e 64
        E 0 97 4e 64
        E 0 9e 4a 64
        E 0 98 39 64
        E 0 9d 36 64
        E 503 81 42 64
        E 0 82 39 64
        E 0 84 4e 64
        E 0 85 4e 64
        E 0 87 4e 64
        E 0 88 39 64
        E 0 91 42 64
        E 0 92 39 64
        E 0 94 4e 64
        E 1 95 4e 64
        E 0 97 4e 64
        E 0 98 39 64
        E 253 81 42 64
        E 0 84 4e 64
        E 0 85 4e 64
        E 0 87 4e 64
        E 0 91 42 64
        E 0 94 4e 64
        E 0 95 4e 64
        E 0 97 4e 64
        E 252 81 42 64
        E 0 82 39 64
        E 0 84 4e 64
        E 0 85 4e 64
        E 0 87 4e 64
        E 0 88 39 64
        E 0 91 43 64
        E 0 92 39 64
        E 0 94 4f 64
        E 0 95 4f 64
        E 0 97 4f 64
        E 0 98 39 64
        E 507 80 4a 64
        E 0 81 43 64
        E 0 84 4f 64
        E 0 85 4f 64
        E 0 87 4f 64
        E 0 8e 4a 64
        E 0 90 4a 64
        E 0 91 42 64
        E 0 94 4e 64
        E 0 95 4e 64
        E 0 97 4e 64
        E 0 9e 4a 64
        E 505 80 4a 64
        E 0 81 42 64
        E 0 83 36 64
        E 0 84 4e 64
        E 0 85 4e 64
        E 0 87 4e 64
        E 0 8e 4a 64
        E 0 8d 36 64
        E 0 90 49 64
        E 0 91 40 64
        E 0 94 4c 64
        E 0 95 4c 64
        E 0 97 4c 64
        E 0 9e 49 64
        E 505 81 40 64
        E 0 85 4c 64
        E 0 87 4c 64
        E 0 91 40 64
        E 0 93 39 64
        E 0 95 4c 64
        E 0 97 4c 64
        E 0 9d 39 64
        E 505 80 49 64
        E 0 81 40 64
        E 0 82 39 64
        E 0 83 39 64
        E 0 85 4c 64
        E 0 87 4c 64
        E 0 8e 49 64
        E 0 88 39 64
        E 0 8d 39 64
        E 0 90 49 64
        E 0 92 39 64
        E 0 93 39 64
        E 0 9e 49 64
        E 0 98 39 64
        E 0 9d 39 64
        E 504 83 39 64
        E 0 8d 39 64
        E 0 93 39 64
        E 0 9d 39 64
        E 506 80 49 64
        E 0 82 39 64
        E 0 83 39 64
        E 0 84 4c 64
        E 0 8e 49 64
        E 0 88 39 64
        E 0 8d 39 64
        E 0 90 4a 64
        E 0 91 45 64
        E 0 92 39 64
        E 0 93 36 64
        E 0 95 51 64
        E 0 97 51 64
        E 0 9e 4a 64
        E 0 98 39 64
        E 0 9d 36 64
        E 758 83 36 64
        E 0 8d 36 64
        E 0 93 34 64
        E 0 9d 34 64
        E 254 80 4a 64
        E 0 82 39 64
        E 0 83 34 64
        E 0 8e 4a 64
        E 0 88 39 64
        E 0 8d 34 64
        E 0 90 4a 64
        E 0 92 3e 64
        E 0 93 32 64
        E 0 9e 4a 64
        E 0 98 3e 64
        E 0 9d 32 64
        E 504 80 4a 64
        E 0 83 32 64
        E 0 8e 4a 64
        E 0 8d 32 64
        E 0 90 4a 64
        E 0 93 36 64
        E 0 9e 4a 64
        E 0 9d 36 64
        E 505 80 4a 64
        E 0 81 45 64
        E 0 83 36 64
        E 0 85 51 64
        E 0 87 51 64
        E 0 8e 4a 64
        E 0 8d 36 64
        E 0 90 47 64
        E 1 91 43 64
        E 0 93 37 64
        E 0 95 4f 64
        E 0 97 4f 64
        E 0 9e 47 64
        E 0 9d 37 64
        E 503 83 37 64
        E 0 8d 37 64
        E 1 93 37 64
        E 0 9d 37 64
        E 253 83 37 64
        E 0 8d 37 64
        E 0 93 37 64
        E 1 9d 37 64
        E 251 80 47 64
        E 0 82 3e 64
        E 0 83 37 64
        E 0 8e 47 64
        E 0 88 3e 64
        E 0 8d 37 64
        E 0 90 47 64
        E 0 92 3b 64
        E 0 93 37 64
        E 0 9e 47 64
        E 0 98 3b 64
        E 0 9d 37 64
        E 507 83 37 64
        E 0 8d 37 64
        E 0 93 37 64
        E 0 9d 37 64
        E 505 80 47 64
        E 0 81 43 64
        E 0 82 3b 64
        E 0 83 37 64
        E 0 85 4f 64
        E 0 87 4f 64
        E 0 8e 47 64
        E 0 88 3b 64
        E 0 8d 37 64
        E 0 90 4c 64
        E 0 91 44 64
        E 0 92 3b 64
        E 0 93 34 64
        E 0 95 50 64
        E 0 97 50 64
        E 0 9e 4c 64
        E 0 98 3b 64
        E 0 9d 34 64
        E 1010 80 4c 64
        E 0 82 3b 64
        E 0 83 34 64
        E 0 8e 4c 64
        E 0 88 3b 64
        E 0 8d 34 64
        E 1 90 4c 64
        E 0 92 40 64
        E 0 93 34 64
        E 0 9e 4c 64
        E 0 98 40 64
        E 0 9d 34 64
        E 505 83 34 64
        E 0 8d 34 64
        E 0 93 34 64
        E 0 9d 34 64
        E 504 80 4c 64
        E 0 81 44 64
        E 0 83 34 64
        E 0 85 50 64
        E 0 87 50 64
        E 0 8e 4c 64
        E 0 8d 34 64
        E 0 90 49 64
        E 0 91 45 64
        E 0 93 39 64
        E 0 95 51 64
        E 0 97 51 64
        E 1 9e 49 64
        E 0 9d 39 64
        E 503 83 39 64
        E 0 8d 39 64
        E 0 93 39 64
        E 0 9d 39 64
        E 254 83 39 64
        E 0 8d 39 64
        E 0 93 39 64
        E 0 9d 39 64
        E 254 80 49 64
        E 0 82 40 64
        E 0 83 39 64
        E 0 8e 49 64
        E 0 88 40 64
        E 0 8d 39 64
        E 0 90 49 64
        E 0 92 3d 64
        E 0 93 39 64
        E 0 9e 49 64
        E 0 98 3d 64
        E 0 9d 39 64
        E 505 83 39 64
        E 0 8d 39 64
        E 0 93 39 64
        E 1 9d 39 64
        E 503 80 49 64
        E 0 81 45 64
        E 0 82 3d 64
        E 0 83 39 64
        E 0 85 51 64
        E 0 87 51 64
        E 0 8e 49 64
        E 0 88 3d 64
        E 0 8d 39 64
        E 0 90 4a 64
        E 0 91 45 64
        E 0 92 42 64
        E 0 93 36 64
        E 0 95 51 64
        E 1 97 51 64
        E 0 9e 4a 64
        E 0 98 42 64
        E 0 9d 36 64
        E 1009 80 4a 64
        E 0 81 45 64
        E 0 82 42 64
        E 0 83 36 64
        E 0 85 51 64
        E 0 87 51 64
        E 0 8e 4a 64
        E 0 88 42 64
        E 0 8d 36 64
        E 1 90 4a 64
        E 0 91 45 64
        E 1 92 42 64
        E 0 93 32 64
        E 0 95 51 64
        E 0 97 51 64
        E 0 9e 4a 64
        E 1 98 42 64
        E 0 9d 32 64
        E 1011 80 4a 64
        E 0 81 45 64
        E 0 82 42 64
        E 0 83 32 64
        E 0 85 51 64
        E 0 87 51 64
        E 0 8e 4a 64
        E 0 88 42 64
        E 0 8d 32 64
        E 0 90 4a 64
        E 0 91 45 64
        E 0 92 40 64
        E 0 93 39 64
        E 0 94 51 64
        E 0 95 51 64
        E 0 97 51 64
        E 0 9e 4a 64
        E 0 98 40 64
        E 0 9d 39 64
        E 505 84 51 64
        E 0 94 51 64
        E 249 84 51 64
        E 0 94 51 64
        E 255 80 4a 64
        E 0 84 51 64
        E 0 8e 4a 64
        E 0 90 49 64
        E 0 94 51 64
        E 0 9e 49 64
        E 504 84 51 64
        E 1 94 51 64
        E 504 80 49 64
        E 0 81 45 64
        E 0 82 40 64
        E 0 83 39 64
        E 0 84 51 64
        E 0 85 51 64
        E 0 87 51 64
        E 0 8e 49 64
        E 0 88 40 64
        E 0 8d 39 64
        E 0 90 4a 64
        E 0 91 45 64
        E 0 92 42 64
        E 0 93 32 64
        E 0 94 4e 64
        E 0 95 51 64
        E 0 97 51 64
        E 0 9e 4a 64
        E 0 98 42 64
        E 0 9d 32 64
        E 758 84 4e 64
        E 0 94 4e 64
        E 253 80 4a 64
        E 0 81 45 64
        E 0 83 32 64
        E 0 84 4e 64
        E 0 85 51 64
        E 0 87 51 64
        E 0 8e 4a 64
        E 0 8d 32 64
        E 2 90 47 64
        E 0 91 42 64
        E 0 93 33 64
        E 0 94 4e 64
        E 0 95 4e 64
        E 0 97 4e 64
        E 0 9e 47 64
        E 0 9d 33 64
        E 504 84 4e 64
        E 0 94 4e 64
        E 505 81 42 64
        E 0 82 42 64
        E 0 83 33 64
        E 0 84 4e 64
        E 0 85 4e 64
        E 0 87 4e 64
        E 0 88 42 64
        E 0 8d 33 64
        E 0 91 43 64
        E 0 92 3b 64
        E 1 93 34 64
        E 0 94 4f 64
        E 0 95 4f 64
        E 0 97 4f 64
        E 0 98 3b 64
        E 0 9d 34 64
        E 504 84 4f 64
        E 0 94 4f 64
        E 253 84 4f 64
        E 0 94 4f 64
        E 254 80 47 64
        E 0 81 43 64
        E 0 82 3b 64
        E 0 83 34 64
        E 0 84 4f 64
        E 0 85 4f 64
        E 0 87 4f 64
        E 0 8e 47 64
        E 0 88 3b 64
        E 0 8d 34 64
        E 0 90 47 64
        E 0 91 42 64
        E 0 92 3e 64
        E 0 93 3b 64
        E 0 94 4e 64
        E 0 95 4e 64
        E 0 97 4e 64
        E 0 9e 47 64
        E 0 98 3e 64
        E 1 9d 3b 64
        E 503 84 4e 64
        E 0 94 4e 64
        E 504 80 47 64
        E 0 81 42 64
        E 0 82 3e 64
        E 0 83 3b 64
        E 0 84 4e 64
        E 0 85 4e 64
        E 0 87 4e 64
        E 0 8e 47 64
        E 0 88 3e 64
        E 0 8d 3b 64
        E 0 90 47 64
        E 0 91 42 64
        E 0 92 3d 64
        E 0 93 36 64
        E 0 94 4e 64
        E 0 95 4e 64
        E 0 97 4e 64
        E 0 9e 47 64
        E 0 98 3d 64
        E 0 9d 36 64
        E 1012 80 47 64
        E 0 8e 47 64
        E 0 90 46 64
        E 0 9e 46 64
        E 506 84 4e 64
        E 0 94 4c 64
        E 505 80 46 64
        E 0 81 42 64
        E 0 82 3d 64
        E 0 83 36 64
        E 0 84 4c 64
        E 0 85 4e 64
        E 0 87 4e 64
        E 0 8e 46 64
        E 0 88 3d 64
        E 0 8d 36 64
        E 0 90 47 64
        E 0 91 42 64
        E 0 92 3e 64
        E 0 93 3b 64
        E 1 94 4a 64
        E 0 95 4e 64
        E 0 97 4e 64
        E 0 9e 47 64
        E 0 98 3e 64
        E 0 9d 3b 64
        E 1007 81 42 64
        E 0 82 3e 64
        E 0 83 3b 64
        E 0 84 4a 64
        E 0 85 4e 64
        E 0 87 4e 64
        E 0 88 3e 64
        E 0 8d 3b 64
        E 0 92 40 64
        E 0 93 38 64
        E 0 98 40 64
        E 0 9d 38 64
        E 1011 80 47 64
        E 0 82 40 64
        E 0 83 38 64
        E 0 8e 47 64
        E 0 88 40 64
        E 0 8d 38 64
        E 1 90 48 64
        E 0 91 45 64
        E 0 92 40 64
        E 0 93 39 64
        E 0 94 51 64
        E 0 95 51 64
        E 0 97 51 64
        E 0 9e 48 64
        E 0 98 40 64
        E 0 9d 39 64
        E 506 84 51 64
        E 0 94 51 64
        E 251 84 51 64
        E 0 94 51 64
        E 253 80 48 64
        E 0 81 45 64
        E 0 82 40 64
        E 0 83 39 64
        E 0 84 51 64
        E 0 85 51 64
        E 0 87 51 64
        E 0 8e 48 64
        E 0 88 40 64
        E 0 8d 39 64
        E 0 90 47 64
        E 1 91 43 64
        E 0 92 40 64
        E 0 93 34 64
        E 0 94 4f 64
        E 0 95 4f 64
        E 0 97 4f 64
        E 0 9e 47 64
        E 0 98 40 64
        E 0 9d 34 64
        E 504 84 4f 64
        E 0 94 4f 64
        E 504 80 47 64
        E 0 81 43 64
        E 0 82 40 64
        E 1 83 34 64
        E 0 84 4f 64
        E 0 85 4f 64
        E 0 87 4f 64
        E 0 8e 47 64
        E 0 8d 34 64
        E 0 90 47 64
        E 0 91 42 64
        E 0 92 40 64
        E 0 93 2f 64
        E 0 94 4e 64
        E 0 95 4e 64
        E 0 97 4e 64
        E 0 9e 47 64
        E 0 9d 2f 64
        E 1012 82 40 64
        E 1 84 4e 64
        E 0 88 40 64
        E 0 92 3f 64
        E 0 98 3f 64
        E 1010 80 47 64
        E 0 81 42 64
        E 0 82 3f 64
        E 0 83 2f 64
        E 0 85 4e 64
        E 0 87 4e 64
        E 0 8e 47 64
        E 0 88 3f 64
        E 0 8d 2f 64
        E 0 90 47 64
        E 0 91 43 64
        E 0 92 40 64
        E 0 93 34 64
        E 0 95 4f 64
        E 0 97 4f 64
        E 0 9e 47 64
        E 0 98 40 64
        E 0 9d 34 64
        E 1009 80 47 64
        E 0 81 43 64
        E 0 82 40 64
        E 0 85 4f 64
        E 0 87 4f 64
        E 0 8e 47 64
        E 0 88 40 64
        E 0 91 43 64
        E 0 92 40 64
        E 0 95 4f 64
        E 0 97 4f 64
        E 0 98 40 64
        E 506 83 34 64
        E 0 8d 34 64
        E 0 93 32 64
        E 1 9d 32 64
        E 505 83 32 64
        E 0 8d 32 64
        E 0 93 31 64
        E 0 94 4f 64
        E 0 9d 31 64
        E 506 84 4f 64
        E 0 94 4f 64
        E 251 84 4f 64
        E 0 94 4f 64
        E 253 81 43 64
        E 0 82 40 64
        E 1 83 31 64
        E 0 84 4f 64
        E 0 85 4f 64
        E 0 87 4f 64
        E 0 88 40 64
        E 0 8d 31 64
        E 0 91 42 64
        E 0 92 3e 64
        E 0 93 32 64
        E 0 94 4e 64
        E 0 95 4e 64
        E 0 97 4e 64
        E 0 98 3e 64
        E 0 9d 32 64
        E 503 84 4e 64
        E 1 94 4e 64
        E 505 81 42 64
        E 0 82 3e 64
        E 0 83 32 64
        E 0 84 4e 64
        E 0 85 4e 64
        E 1 87 4e 64
        E 0 88 3e 64
        E 0 8d 32 64
        E 0 91 40 64
        E 0 92 3e 64
        E 0 93 39 64
        E 0 94 4c 64
        E 0 95 4c 64
        E 0 97 4c 64
        E 0 98 3e 64
        E 0 9d 39 64
        E 1009 82 3e 64
        E 0 83 39 64
        E 0 84 4c 64
        E 0 88 3e 64
        E 0 8d 39 64
        E 0 92 3d 64
        E 0 93 3a 64
        E 0 98 3d 64
        E 0 9d 3a 64
        E 506 81 40 64
        E 0 85 4c 64
        E 0 87 4c 64
        E 1 91 42 64
        E 0 95 4e 64
        E 0 97 4e 64
        E 252 81 42 64
        E 0 85 4e 64
        E 0 87 4e 64
        E 0 91 40 64
        E 1 95 4c 64
        E 0 97 4c 64
        E 252 81 40 64
        E 0 83 3a 64
        E 0 85 4c 64
        E 0 87 4c 64
        E 0 8d 3a 64
        E 0 91 3e 64
        E 0 93 3b 64
        E 0 95 4a 64
        E 0 97 4a 64
        E 0 9d 3b 64
        E 1011 82 3d 64
        E 0 88 3d 64
        E 0 92 3b 64
        E 0 98 3b 64
        E 503 81 3e 64
        E 0 85 4a 64
        E 1 87 4a 64
        E 0 91 40 64
        E 0 95 4c 64
        E 0 97 4c 64
        E 254 81 40 64
        E 0 85 4c 64
        E 0 87 4c 64
        E 0 91 3e 64
        E 0 95 4a 64
        E 0 97 4a 64
        E 251 82 3b 64
        E 0 88 3b 64
        E 0 81 3e 64
        E 0 83 3b 64
        E 0 85 4a 64
        E 0 87 4a 64
        E 0 8d 3b 64
        E 0 92 3b 64
        E 0 98 3b 64
        E 0 91 3d 64
        E 1 93 36 64
        E 0 95 49 64
        E 0 97 49 64
        E 0 9d 36 64
        E 1011 82 3b 64
        E 0 88 3b 64
        E 0 81 3d 64
        E 0 85 49 64
        E 0 87 49 64
        E 0 92 3a 64
        E 0 98 3a 64
        E 0 91 42 64
        E 0 95 4e 64
        E 0 97 4e 64
        E 1010 82 3a 64
        E 0 88 3a 64
        E 0 83 36 64
        E 0 8d 36 64
        E 0 92 3b 64
        E 0 98 3b 64
        E 0 90 47 64
        E 0 93 37 64
        E 0 9e 47 64
        E 0 9d 37 64
        E 1010 81 42 64
        E 0 85 4e 64
        E 1 87 4e 64
        E 0 91 40 64
        E 0 95 4c 64
        E 0 97 4c 64
        E 1009 80 47 64
        E 0 81 40 64
        E 0 82 3b 64
        E 0 83 37 64
        E 0 85 4c 64
        E 0 87 4c 64
        E 0 8e 47 64
        E 0 88 3b 64
        E 0 8d 37 64
        E 0 90 46 64
        E 0 91 42 64
        E 0 92 3d 64
        E 1 93 36 64
        E 0 95 4e 64
        E 0 97 4e 64
        E 0 9e 46 64
        E 0 98 3d 64
        E 0 9d 36 64
        E 504 83 36 64
        E 0 8d 36 64
        E 0 93 36 64
        E 1 9d 36 64
        E 506 81 42 64
        E 0 83 36 64
        E 0 85 4e 64
        E 0 87 4e 64
        E 0 8d 36 64
        E 0 91 42 64
        E 0 93 36 64
        E 0 94 4e 64
        E 0 95 4e 64
        E 0 97 4e 64
        E 0 9d 36 64
        E 504 83 36 64
        E 0 8d 36 64
        E 0 93 36 64
        E 0 9d 36 64
        E 504 80 46 64
        E 0 82 3d 64
        E 1 83 36 64
        E 0 8e 46 64
        E 0 88 3d 64
        E 0 8d 36 64
        E 0 92 42 64
        E 0 93 33 64
        E 0 98 42 64
        E 0 9d 33 64
        E 504 90 47 64
        E 0 9e 47 64
        E 255 83 33 64
        E 0 8d 33 64
        E 0 93 33 64
        E 0 9d 33 64
        E 253 80 47 64
        E 0 81 42 64
        E 0 83 33 64
        E 0 84 4e 64
        E 0 85 4e 64
        E 0 87 4e 64
        E 0 8e 47 64
        E 0 8d 33 64
        E 0 90 47 64
        E 0 91 47 64
        E 1 93 33 64
        E 0 94 53 64
        E 0 95 53 64
        E 0 97 53 64
        E 0 9e 47 64
        E 0 9d 33 64
        E 503 80 47 64
        E 0 8e 47 64
        E 0 90 47 64
        E 0 9e 47 64
        E 506 80 47 64
        E 0 81 47 64
        E 0 82 42 64
        E 0 83 33 64
        E 0 84 53 64
        E 0 85 53 64
        E 0 87 53 64
        E 0 8e 47 64
        E 0 88 42 64
        E 0 8d 33 64
        E 0 90 44 64
        E 0 91 47 64
        E 0 92 3b 64
        E 0 94 53 64
        E 0 95 53 64
        E 0 97 53 64
        E 0 9e 44 64
        E 0 98 3b 64
        E 504 93 34 64
        E 1 9d 34 64
        E 254 80 44 64
        E 0 8e 44 64
        E 0 90 44 64
        E 0 9e 44 64
        E 250 80 44 64
        E 0 81 47 64
        E 0 83 34 64
        E 0 84 53 64
        E 0 85 53 64
        E 0 87 53 64
        E 0 8e 44 64
        E 0 8d 34 64
        E 0 90 44 64
        E 0 91 40 64
        E 0 93 34 64
        E 0 94 4c 64
        E 0 95 4c 64
        E 0 97 4c 64
        E 0 9e 44 64
        E 0 9d 34 64
        E 505 83 34 64
        E 0 8d 34 64
        E 0 93 34 64
        E 0 9d 34 64
        E 507 80 44 64
        E 0 82 3b 64
        E 0 83 34 64
        E 0 8e 44 64
        E 0 88 3b 64
        E 0 8d 34 64
        E 0 92 40 64
        E 0 93 31 64
        E 0 98 40 64
        E 0 9d 31 64
        E 505 90 45 64
        E 1 9e 45 64
        E 252 83 31 64
        E 0 8d 31 64
        E 0 93 31 64
        E 0 9d 31 64
        E 253 80 45 64
        E 0 81 40 64
        E 0 83 31 64
        E 0 84 4c 64
        E 0 85 4c 64
        E 0 87 4c 64
        E 0 8e 45 64
        E 0 8d 31 64
        E 0 90 45 64
        E 0 91 45 64
        E 0 93 31 64
        E 0 94 51 64
        E 0 95 51 64
        E 0 97 51 64
        E 0 9e 45 64
        E 0 9d 31 64
        E 505 80 45 64
        E 0 8e 45 64
        E 0 90 45 64
        E 0 9e 45 64
        E 504 80 45 64
        E 0 81 45 64
        E 0 82 40 64
        E 0 83 31 64
        E 0 84 51 64
        E 0 85 51 64
        E 0 87 51 64
        E 0 8e 45 64
        E 0 88 40 64
        E 0 8d 31 64
        E 0 90 42 64
        E 0 91 45 64
        E 0 92 39 64
        E 0 94 51 64
        E 0 95 51 64
        E 0 97 51 64
        E 0 9e 42 64
        E 0 98 39 64
        E 507 93 32 64
        E 0 9d 32 64
        E 252 80 42 64
        E 0 8e 42 64
        E 1 90 42 64
        E 0 9e 42 64
        E 252 80 42 64
        E 0 81 45 64
        E 0 83 32 64
        E 0 84 51 64
        E 0 85 51 64
        E 0 87 51 64
        E 0 8e 42 64
        E 0 8d 32 64
        E 0 90 42 64
        E 0 91 3e 64
        E 0 93 32 64
        E 0 94 4a 64
        E 0 95 4a 64
        E 0 97 4a 64
        E 0 9e 42 64
        E 0 9d 32 64
        E 505 83 32 64
        E 0 8d 32 64
        E 0 93 32 64
        E 0 9d 32 64
        E 504 80 42 64
        E 2 82 39 64
        E 1 83 32 64
        E 1 8e 42 64
        E 0 88 39 64
        E 0 8d 32 64
        E 0 93 2f 64
        E 0 9d 2f 64
        E 502 83 2f 64
        E 0 8d 2f 64
        E 0 93 2d 64
        E 1 9d 2d 64
        E 503 81 3e 64
        E 0 83 2d 64
        E 0 84 4a 64
        E 0 85 4a 64
        E 0 87 4a 64
        E 0 8d 2d 64
        E 0 91 43 64
        E 0 93 2f 64
        E 0 94 4f 64
        E 0 95 4f 64
        E 1 97 4f 64
        E 0 9d 2f 64
        E 504 83 2f 64
        E 1 8d 2f 64
        E 0 93 31 64
        E 0 9d 31 64
        E 507 81 43 64
        E 0 83 31 64
        E 0 84 4f 64
        E 0 85 4f 64
        E 0 87 4f 64
        E 0 8d 31 64
        E 0 91 43 64
        E 0 93 32 64
        E 0 94 4f 64
        E 0 95 4f 64
        E 0 97 4f 64
        E 0 98 45 64
        E 0 9d 32 64
        E 505 83 32 64
        E 0 88 45 64
        E 0 8d 32 64
        E 0 93 32 64
        E 0 98 45 64
        E 0 9d 32 64
        E 251 83 32 64
        E 0 88 45 64
        E 0 8d 32 64
        E 0 93 32 64
        E 0 98 45 64
        E 0 9d 32 64
        E 253 81 43 64
        E 1 83 32 64
        E 0 84 4f 64
        E 0 85 4f 64
        E 0 87 4f 64
        E 0 88 45 64
        E 0 8d 32 64
        E 0 91 42 64
        E 0 93 32 64
        E 0 94 4e 64
        E 0 95 4e 64
        E 0 97 4e 64
        E 0 98 45 64
        E 0 9d 32 64
        E 504 83 32 64
        E 0 88 45 64
        E 0 8d 32 64
        E 0 93 32 64
        E 0 98 45 64
        E 1 9d 32 64
        E 505 81 42 64
        E 0 83 32 64
        E 0 84 4e 64
        E 0 85 4e 64
        E 0 87 4e 64
        E 0 88 45 64
        E 0 8d 32 64
        E 0 91 40 64
        E 0 93 32 64
        E 0 94 4c 64
        E 0 95 4c 64
        E 0 97 4c 64
        E 0 98 43 64
        E 0 9d 32 64
        E 505 83 32 64
        E 0 88 43 64
        E 0 8d 32 64
        E 1 93 32 64
        E 0 98 43 64
        E 0 9d 32 64
        E 505 83 32 64
        E 0 88 43 64
        E 0 8d 32 64
        E 0 93 31 64
        E 0 98 45 64
        E 0 9d 31 64
        E 1011 81 40 64
        E 0 83 31 64
        E 0 84 4c 64
        E 0 85 4c 64
        E 0 87 4c 64
        E 0 88 45 64
        E 0 8d 31 64
        E 0 91 3e 64
        E 0 93 32 64
        E 0 94 4a 64
        E 0 95 4a 64
        E 0 97 4a 64
        E 0 98 42 64
        E 0 9d 32 64
        E 1009 81 3e 64
        E 0 83 32 64
        E 0 84 4a 64
        E 0 85 4a 64
        E 0 87 4a 64
        E 0 88 42 64
        E 0 8d 32 64
        E 0 91 3d 64
        E 0 92 39 64
        E 0 93 36 64
        E 0 95 49 64
        E 0 97 49 64
        E 0 98 45 64
        E 0 9d 36 64
        E 1011 81 3d 64
        E 0 83 36 64
        E 0 85 49 64
        E 0 87 49 64
        E 0 8d 36 64
        E 0 91 3e 64
        E 0 93 2f 64
        E 0 95 4a 64
        E 0 97 4a 64
        E 0 9d 2f 64
        E 1011 82 39 64
        E 0 88 45 64
        E 0 92 38 64
        E 0 98 44 64
        E 1012 81 3e 64
        E 0 82 38 64
        E 0 83 2f 64
        E 0 85 4a 64
        E 0 87 4a 64
        E 0 88 44 64
        E 0 8d 2f 64
        E 0 90 45 64
        E 0 91 3d 64
        E 0 92 39 64
        E 1 93 2d 64
        E 0 95 49 64
        E 0 97 49 64
        E 0 9e 45 64
        E 0 98 45 64
        E 0 9d 2d 64
        E 2018 80 45 64
        E 2 81 3d 64
        E 0 82 39 64
        E 0 83 2d 64
        E 0 85 49 64
        E 0 87 49 64
        E 0 8e 45 64
        E 0 88 45 64
        E 0 8d 2d 64
        E 0 90 47 64
        E 0 9e 47 64
        E 1009 80 47 64
        E 0 8e 47 64
        E 0 90 45 64
        E 0 92 3e 64
        E 0 9e 45 64
        E 0 98 3e 64
        E 1010 80 45 64
        E 0 82 3e 64
        E 0 8e 45 64
        E 0 88 3e 64
        E 0 90 43 64
        E 0 92 3e 64
        E 0 9e 43 64
        E 0 98 3e 64
        E 1012 82 3e 64
        E 0 88 3e 64
        E 0 92 3d 64
        E 0 98 3d 64
        E 505 80 43 64
        E 0 8e 43 64
        E 0 90 43 64
        E 0 9e 43 64
        E 505 80 43 64
        E 0 82 3d 64
        E 0 8e 43 64
        E 0 88 3d 64
        E 0 90 42 64
        E 0 92 3e 64
        E 0 9e 42 64
        E 0 98 3e 64
        E 504 82 3e 64
        E 1 88 3e 64
        E 0 91 3e 64
        E 0 92 39 64
        E 0 93 32 64
        E 0 94 51 64
        E 0 95 4a 64
        E 0 97 4a 64
        E 0 98 39 64
        E 0 9d 32 64
        E 504 81 3e 64
        E 0 82 39 64
        E 0 83 32 64
        E 0 84 51 64
        E 0 85 4a 64
        E 0 87 4a 64
        E 0 88 39 64
        E 0 8d 32 64
        E 0 91 3e 64
        E 0 92 39 64
        E 0 93 32 64
        E 0 94 51 64
        E 0 95 4a 64
        E 0 97 4a 64
        E 0 98 39 64
        E 0 9d 32 64
        E 504 81 3e 64
        E 1 82 39 64
        E 0 83 32 64
        E 0 84 51 64
        E 0 85 4a 64
        E 0 87 4a 64
        E 0 88 39 64
        E 0 8d 32 64
        E 0 91 3e 64
        E 0 92 39 64
        E 0 93 32 64
        E 0 94 51 64
        E 0 95 4a 64
        E 0 97 4a 64
        E 0 98 39 64
        E 0 9d 32 64
        E 505 80 42 64
        E 0 81 3e 64
        E 0 82 39 64
        E 0 83 32 64
        E 0 84 51 64
        E 0 85 4a 64
        E 0 87 4a 64
        E 0 8e 42 64
        E 0 88 39 64
        E 0 8d 32 64
        E 0 90 45 64
        E 0 91 40 64
        E 0 92 39 64
        E 1 93 31 64
        E 0 94 51 64
        E 0 95 4c 64
        E 0 97 4c 64
        E 0 9e 45 64
        E 0 98 39 64
        E 0 9d 31 64
        E 756 81 40 64
        E 0 82 39 64
        E 0 83 31 64
        E 0 84 51 64
        E 0 85 4c 64
        E 0 87 4c 64
        E 0 88 39 64
        E 0 8d 31 64
        E 0 91 40 64
        E 0 92 39 64
        E 1 93 2f 64
        E 0 94 51 64
        E 0 95 4c 64
        E 0 97 4c 64
        E 0 98 39 64
        E 0 9d 2f 64
        E 253 81 40 64
        E 0 82 39 64
        E 0 83 2f 64
        E 0 84 51 64
        E 0 85 4c 64
        E 0 87 4c 64
        E 0 88 39 64
        E 0 8d 2f 64
        E 0 91 40 64
        E 0 92 39 64
        E 0 93 2d 64
        E 0 94 51 64
        E 0 95 4c 64
        E 0 97 4c 64
        E 0 98 39 64
        E 0 9d 2d 64
        E 506 81 40 64
        E 0 82 39 64
        E 0 83 2d 64
        E 0 84 51 64
        E 0 85 4c 64
        E 0 87 4c 64
        E 0 88 39 64
        E 0 8d 2d 64
        E 0 91 40 64
        E 0 92 39 64
        E 0 93 31 64
        E 0 94 51 64
        E 1 95 4c 64
        E 0 97 4c 64
        E 0 98 39 64
        E 0 9d 31 64
        E 503 80 45 64
        E 0 81 40 64
        E 0 82 39 64
        E 0 83 31 64
        E 0 84 51 64
        E 0 85 4c 64
        E 0 87 4c 64
        E 0 8e 45 64
        E 0 88 39 64
        E 0 8d 31 64
        E 0 90 42 64
        E 0 91 3e 64
        E 0 92 39 64
        E 0 93 32 64
        E 0 94 51 64
        E 0 95 4a 64
        E 1 97 4a 64
        E 0 9e 42 64
        E 0 98 39 64
        E 0 9d 32 64
        E 505 81 3e 64
        E 0 82 39 64
        E 0 83 32 64
        E 0 84 51 64
        E 0 85 4a 64
        E 0 87 4a 64
        E 0 88 39 64
        E 0 8d 32 64
        E 0 91 3e 64
        E 0 92 39 64
        E 0 93 32 64
        E 0 94 51 64
        E 0 95 4a 64
        E 0 97 4a 64
        E 0 98 39 64
        E 0 9d 32 64
        E 254 81 3e 64
        E 0 82 39 64
        E 0 83 32 64
        E 0 84 51 64
        E 0 85 4a 64
        E 0 87 4a 64
        E 0 88 39 64
        E 0 8d 32 64
        E 0 91 3e 64
        E 0 92 39 64
        E 0 93 32 64
        E 0 94 51 64
        E 0 95 4a 64
        E 0 97 4a 64
        E 0 98 39 64
        E 1 9d 32 64
        E 249 80 42 64
        E 1 81 3e 64
        E 0 82 39 64
        E 0 83 32 64
        E 0 84 51 64
        E 0 85 4a 64
        E 0 87 4a 64
        E 0 8e 42 64
        E 0 88 39 64
        E 0 8d 32 64
        E 0 90 42 64
        E 1 91 3e 64
        E 1 92 3e 64
        E 0 93 32 64
        E 0 94 51 64
        E 0 95 4a 64
        E 1 97 4a 64
        E 0 9e 42 64
        E 0 98 3e 64
        E 0 9d 32 64
        E 503 80 42 64
        E 0 81 3e 64
        E 0 82 3e 64
        E 0 83 32 64
        E 0 84 51 64
        E 0 85 4a 64
        E 0 87 4a 64
        E 0 8e 42 64
        E 0 88 3e 64
        E 0 8d 32 64
        E 0 90 42 64
        E 1 91 3e 64
        E 0 92 3e 64
        E 0 93 32 64
        E 0 94 51 64
        E 0 95 4a 64
        E 0 97 4a 64
        E 0 9e 42 64
        E 0 98 3e 64
        E 0 9d 32 64
        E 505 80 42 64
        E 0 81 3e 64
        E 0 82 3e 64
        E 0 83 32 64
        E 0 84 51 64
        E 0 85 4a 64
        E 0 87 4a 64
        E 0 8e 42 64
        E 0 88 3e 64
        E 0 8d 32 64
        E 0 90 47 64
        E 0 91 43 64
        E 0 92 3e 64
        E 0 93 2f 64
        E 0 94 53 64
        E 0 95 4f 64
        E 0 97 4f 64
        E 0 9e 47 64
        E 0 98 3e 64
        E 1 9d 2f 64
        E 1009 80 47 64
        E 0 81 43 64
        E 0 82 3e 64
        E 0 83 2f 64
        E 0 84 53 64
        E 0 85 4f 64
        E 0 87 4f 64
        E 0 8e 47 64
        E 0 88 3e 64
        E 0 8d 2f 64
        E 0 90 47 64
        E 0 91 43 64
        E 0 92 3b 64
        E 0 93 2f 64
        E 0 94 53 64
        E 0 95 4f 64
        E 0 97 4f 64
        E 0 9e 47 64
        E 0 98 3b 64
        E 0 9d 2f 64
        E 505 81 43 64
        E 0 82 3b 64
        E 0 83 2f 64
        E 0 84 53 64
        E 0 85 4f 64
        E 0 87 4f 64
        E 0 88 3b 64
        E 0 8d 2f 64
        E 0 91 43 64
        E 1 92 3b 64
        E 0 93 2f 64
        E 0 94 53 64
        E 0 95 4f 64
        E 0 97 4f 64
        E 0 98 3b 64
        E 0 9d 2f 64
        E 503 80 47 64
        E 0 81 43 64
        E 0 82 3b 64
        E 0 83 2f 64
        E 0 84 53 64
        E 0 85 4f 64
        E 0 87 4f 64
        E 0 8e 47 64
        E 0 88 3b 64
        E 0 8d 2f 64
        E 0 90 44 64
        E 0 91 40 64
        E 0 92 3b 64
        E 0 93 34 64
        E 0 94 53 64
        E 0 95 4c 64
        E 0 97 4c 64
        E 0 9e 44 64
        E 0 98 3b 64
        E 0 9d 34 64
        E 508 81 40 64
        E 0 82 3b 64
        E 0 83 34 64
        E 0 84 53 64
        E 0 85 4c 64
        E 0 87 4c 64
        E 0 88 3b 64
        E 0 8d 34 64
        E 0 91 40 64
        E 0 92 3b 64
        E 0 93 34 64
        E 0 94 53 64
        E 0 95 4c 64
        E 0 97 4c 64
        E 1 98 3b 64
        E 0 9d 34 64
        E 249 81 40 64
        E 0 82 3b 64
        E 0 83 34 64
        E 0 84 53 64
        E 0 85 4c 64
        E 0 87 4c 64
        E 0 88 3b 64
        E 0 8d 34 64
        E 1 91 40 64
        E 0 92 3b 64
        E 0 93 34 64
        E 0 94 53 64
        E 0 95 4c 64
        E 0 97 4c 64
        E 0 98 3b 64
        E 0 9d 34 64
        E 254 80 44 64
        E 0 81 40 64
        E 0 82 3b 64
        E 0 83 34 64
        E 0 84 53 64
        E 0 85 4c 64
        E 0 87 4c 64
        E 0 8e 44 64
        E 0 88 3b 64
        E 0 8d 34 64
        E 0 90 44 64
        E 0 91 40 64
        E 0 92 3b 64
        E 0 93 34 64
        E 0 94 53 64
        E 0 95 4c 64
        E 0 97 4c 64
        E 0 9e 44 64
        E 0 98 3b 64
        E 0 9d 34 64
        E 503 81 40 64
        E 1 82 3b 64
        E 0 83 34 64
        E 0 84 53 64
        E 0 85 4c 64
        E 0 87 4c 64
        E 0 88 3b 64
        E 0 8d 34 64
        E 0 91 40 64
        E 0 92 3b 64
        E 0 93 34 64
        E 0 94 53 64
        E 0 95 4c 64
        E 0 97 4c 64
        E 0 98 3b 64
        E 0 9d 34 64
        E 505 80 44 64
        E 0 81 40 64
        E 0 82 3b 64
        E 0 83 34 64
        E 0 84 53 64
        E 0 85 4c 64
        E 0 87 4c 64
        E 0 8e 44 64
        E 0 88 3b 64
        E 0 8d 34 64
        E 0 90 45 64
        E 0 91 40 64
        E 1 92 40 64
        E 0 93 31 64
        E 0 94 51 64
        E 0 95 4c 64
        E 0 97 4c 64
        E 0 9e 45 64
        E 0 98 40 64
        E 0 9d 31 64
        E 505 80 45 64
        E 0 8e 45 64
        E 0 90 45 64
        E 0 9e 45 64
        E 503 80 45 64
        E 0 81 40 64
        E 0 82 40 64
        E 0 83 31 64
        E 1 85 4c 64
        E 0 87 4c 64
        E 0 8e 45 64
        E 0 88 40 64
        E 0 8d 31 64
        E 0 90 45 64
        E 0 91 42 64
        E 0 92 3e 64
        E 0 93 32 64
        E 0 95 4e 64
        E 0 97 4e 64
        E 0 9e 45 64
        E 1 98 3e 64
        E 0 9d 32 64
        E 504 80 45 64
        E 0 82 3e 64
        E 0 8e 45 64
        E 0 88 3e 64
        E 0 90 45 64
        E 0 92 42 64
        E 0 9e 45 64
        E 0 98 42 64
        E 507 80 45 64
        E 0 81 42 64
        E 0 82 42 64
        E 0 83 32 64
        E 0 85 4e 64
        E 0 87 4e 64
        E 0 8e 45 64
        E 0 88 42 64
        E 0 90 47 64
        E 0 91 43 64
        E 0 92 40 64
        E 0 93 32 64
        E 0 95 4f 64
        E 0 97 4f 64
        E 0 9e 47 64
        E 0 98 40 64
        E 1008 80 47 64
        E 0 83 32 64
        E 0 8e 47 64
        E 0 8d 32 64
        E 1 90 4c 64
        E 0 93 31 64
        E 0 9e 4c 64
        E 0 9d 31 64
        E 1010 80 4c 64
        E 0 81 43 64
        E 1 82 40 64
        E 0 83 31 64
        E 0 84 51 64
        E 0 85 4f 64
        E 0 87 4f 64
        E 0 8e 4c 64
        E 0 88 40 64
        E 0 8d 31 64
        E 0 90 45 64
        E 0 91 42 64
        E 0 92 3e 64
        E 0 93 32 64
        E 0 94 51 64
        E 0 95 4e 64
        E 0 97 4e 64
        E 0 9e 45 64
        E 0 98 3e 64
        E 0 9d 32 64
        E 1011 80 45 64
        E 0 82 3e 64
        E 0 8e 45 64
        E 0 88 3e 64
        E 0 90 4a 64
        E 0 92 39 64
        E 0 9e 4a 64
        E 0 98 45 64
        E 1012 81 42 64
        E 0 83 32 64
        E 0 85 4e 64
        E 0 87 4e 64
        E 0 8d 32 64
        E 0 91 40 64
        E 0 93 2d 64
        E 0 95 4c 64
        E 0 97 4c 64
        E 0 9d 2d 64
        E 1008 80 4a 64
        E 0 82 39 64
        E 0 8e 4a 64
        E 0 88 45 64
        E 0 90 49 64
        E 0 92 39 64
        E 0 9e 49 64
        E 0 98 45 64
        E 1013 80 49 64
        E 0 81 40 64
        E 0 82 39 64
        E 0 83 2d 64
        E 0 84 51 64
        E 0 85 4c 64
        E 0 87 4c 64
        E 0 8e 49 64
        E 0 88 45 64
        E 0 8d 2d 64
        E 0 90 4a 64
        E 0 91 42 64
        E 0 92 39 64
        E 0 93 32 64
        E 0 94 4e 64
        E 1 95 4e 64
        E 0 97 4e 64
        E 0 9e 4a 64
        E 0 98 45 64
        E 0 9d 32 64
        E 6060 80 4a 64
        E 0 81 42 64
        E 0 82 39 64
        E 0 83 32 64
        E 0 84 4e 64
        E 0 85 4e 64
        E 0 87 4e 64
        E 0 8e 4a 64
        E 0 88 45 64
        E 0 8d 32 64
        E 88 b0 7b 00
        E 0 b1 7b 00
        E 0 b2 7b 00
        E 0 b3 7b 00
        E 0 b4 7b 00
        E 0 b5 7b 00
        E 0 b6 7b 00
        E 0 b7 7b 00
        E 0 b8 7b 00
        E 0 b9 7b 00
        E 0 ba 7b 00
        E 0 bb 7b 00
        E 0 bc 7b 00
        E 0 bd 7b 00
        E 0 be 7b 00
        E 0 bf 7b 00
        E 200 b0 79 00
        E 0 b1 79 00
        E 0 b2 79 00
        E 0 b3 79 00
        E 0 b4 79 00
        E 0 b5 79 00
        E 0 b6 79 00
        E 0 b7 79 00
        E 0 b8 79 00
        E 0 b9 79 00
        E 0 ba 79 00
        E 0 bb 79 00
        E 0 bc 79 00
        E 0 bd 79 00
        E 0 be 79 00
        E 0 bf 79 00
        E 38854 b0 7b 00
        CCINTERP 32
        CHASE_CC_TAKEOFFS 1
        GUID {841D9CA9-08C8-4A4A-B64F-FAAC85A99AC9}
        IGNTEMPO 0 120 4 4
        SRCCOLOR 5
        VELLANE 129 9 0
        VELLANE 107 9 0
      >
    >
  >
  <TRACK {1F92AAE6-011E-6E4B-8DB0-60F00D52C522}
    NAME "vivaldi gloria orchestra"
    PEAKCOL 16576
    BEAT -1
    AUTOMODE 0
    VOLPAN 1 0 -1 -1 1
    MUTESOLO 0 0 0
    IPHASE 0
    PLAYOFFS 0 1
    ISBUS 0 0
    BUSCOMP 0 0 0 0 0
    SHOWINMIX 1 0.6667 0.5 1 0.5 -1 -1 -1
    FREEMODE 0
    SEL 0
    REC 0 4256 1 0 0 0 0
    VU 2
    TRACKHEIGHT 140 0 0 0 0 0
    INQ 0 0 0 0.5 100 0 0 100
    NCHAN 2
    FX 1
    TRACKID {1F92AAE6-011E-6E4B-8DB0-60F00D52C522}
    PERF 0
    MIDIOUT 160
    MAINSEND 1 0
    <ITEM
      POSITION 0
      SNAPOFFS 0
      LENGTH 1690.4536458333334
      LOOP 1
      ALLTAKES 0
      FADEIN 1 0 0 1 0 0 0
      FADEOUT 1 0 0 1 0 0 0
      MUTE 0 0
      SEL 0
      IGUID {C38C62EA-5EDA-F649-B915-FFD51F881A4F}
      IID 3
      NAME "02-Recorded MIDI"
      VOLPAN 1 0 1 -1
      SOFFS 0 0
      PLAYRATE 1 1 0 -1 0 0.0025
      CHANMODE 0
      GUID {53CC1ECF-EF2B-2742-9ED6-2BA8F8FBB2DB}
      RECPASS 3
      <SOURCE MIDI
        HASDATA 1 960 QN
        CCINTERP 32
        POOLEDEVTS {6AA63452-BACB-964A-94D9-3B246383DAEF}
        E 12004 b0 7b 00
        E 0 b1 7b 00
        E 0 b2 7b 00
        E 0 b3 7b 00
        E 0 b4 7b 00
        E 0 b5 7b 00
        E 0 b6 7b 00
        E 0 b7 7b 00
        E 0 b8 7b 00
        E 0 b9 7b 00
        E 0 ba 7b 00
        E 0 bb 7b 00
        E 0 bc 7b 00
        E 0 bd 7b 00
        E 0 be 7b 00
        E 0 bf 7b 00
        E 201 c9 00 00
        E 0 c0 34 00
        E 0 c1 34 00
        E 0 c2 34 00
        E 0 c3 34 00
        E 0 c4 38 00
        E 0 c5 44 00
        E 0 c6 28 00
        E 0 c7 30 00
        E 0 ce 30 00
        E 0 c8 30 00
        E 0 ca 34 00
        E 0 cb 34 00
        E 0 cc 34 00
        E 0 cd 30 00
        E 22 b0 07 64
        E 0 b0 0a 10
        E 0 b0 5b 3b
        E 0 b0 5d 00
        E 0 b1 07 64
        E 0 b1 0a 29
        E 0 b1 5b 3b
        E 0 b1 5d 00
        E 0 b2 07 64
        E 0 b2 0a 56
        E 22 b2 5b 3b
        E 0 b2 5d 00
        E 0 b3 07 64
        E 0 b3 0a 6f
        E 0 b3 5b 3b
        E 0 b3 5d 00
        E 0 b4 07 69
        E 0 b4 0a 51
        E 0 b4 5b 3b
        E 0 b4 5d 00
        E 0 b5 07 5f
        E 0 b5 0a 36
        E 0 b5 5b 3b
        E 0 b5 5d 00
        E 0 b6 07 64
        E 0 b6 0a 20
        E 0 b6 5b 3b
        E 0 b6 5d 00
        E 0 b7 07 64
        E 0 b7 0a 10
        E 0 b7 5b 3b
        E 0 b7 5d 00
        E 0 be 07 5f
        E 0 be 0a 6f
        E 0 be 5b 3b
        E 0 be 5d 00
        E 0 b8 07 5a
        E 0 b8 0a 20
        E 0 b8 5b 3b
        E 0 b8 5d 00
        E 0 ba 07 64
        E 0 ba 0a 10
        E 0 ba 5b 3b
        E 0 ba 5d 00
        E 0 bb 07 64
        E 0 bb 0a 10
        E 0 bb 5b 3b
        E 0 bb 5d 00
        E 0 bc 07 64
        E 0 bc 0a 29
        E 0 bc 5b 3b
        E 0 bc 5d 00
        E 0 bd 07 5a
        E 0 bd 0a 5f
        E 0 bd 5b 3b
        E 0 bd 5d 00
        E 883 c4 38 00
        E 0 c4 38 00
        E 0 c5 44 00
        E 0 c5 44 00
        E 0 c6 28 00
        E 0 c6 28 00
        E 0 c7 30 00
        E 0 c7 30 00
        E 0 ce 30 00
        E 0 ce 30 00
        E 0 c8 30 00
        E 0 c8 30 00
        E 0 ca 34 00
        E 0 ca 34 00
        E 0 cb 34 00
        E 0 cb 34 00
        E 0 cc 34 00
        E 0 cc 34 00
        E 0 cd 30 00
        E 0 cd 30 00
        E 0 94 3e 64
        E 0 95 3e 64
        E 0 97 3e 64
        E 0 9e 3e 64
        E 0 98 3e 64
        E 0 9d 32 64
        E 406 84 3e 64
        E 0 85 3e 64
        E 0 87 3e 64
        E 0 8e 3e 64
        E 0 88 3e 64
        E 0 8d 32 64
        E 0 94 4a 64
        E 0 95 4a 64
        E 1 97 4a 64
        E 0 9e 4a 64
        E 0 98 4a 64
        E 0 9d 3e 64
        E 409 84 4a 64
        E 0 85 4a 64
        E 0 87 4a 64
        E 0 8e 4a 64
        E 0 88 4a 64
        E 0 8d 3e 64
        E 0 94 3e 64
        E 0 95 3e 64
        E 0 97 3e 64
        E 0 9e 3e 64
        E 0 98 3e 64
        E 0 9d 32 64
        E 408 84 3e 64
        E 1 85 3e 64
        E 0 87 3e 64
        E 0 8e 3e 64
        E 0 88 3e 64
        E 0 8d 32 64
        E 0 94 3e 64
        E 0 95 3e 64
        E 0 97 3e 64
        E 0 9e 3e 64
        E 0 98 3e 64
        E 0 9d 32 64
        E 408 84 3e 64
        E 0 85 3e 64
        E 0 87 3e 64
        E 0 8e 3e 64
        E 0 88 3e 64
        E 0 8d 32 64
        E 0 94 3e 64
        E 0 95 3e 64
        E 0 97 3e 64
        E 0 9e 3e 64
        E 0 98 3e 64
        E 0 9d 32 64
        E 408 84 3e 64
        E 0 85 3e 64
        E 0 87 3e 64
        E 0 8e 3e 64
        E 0 88 3e 64
        E 0 8d 32 64
        E 0 94 4a 64
        E 0 95 4a 64
        E 0 97 4a 64
        E 0 9e 4a 64
        E 0 98 4a 64
        E 0 9d 3e 64
        E 409 84 4a 64
        E 0 85 4a 64
        E 0 87 4a 64
        E 0 8e 4a 64
        E 0 88 4a 64
        E 0 8d 3e 64
        E 0 94 3e 64
        E 1 95 3e 64
        E 0 97 3e 64
        E 0 9e 3e 64
        E 0 98 3e 64
        E 0 9d 32 64
        E 408 84 3e 64
        E 0 85 3e 64
        E 0 87 3e 64
        E 0 8e 3e 64
        E 0 88 3e 64
        E 0 8d 32 64
        E 0 94 3e 64
        E 0 95 3e 64
        E 0 97 3e 64
        E 0 9e 3e 64
        E 0 98 3e 64
        E 0 9d 32 64
        E 408 84 3e 64
        E 0 85 3e 64
        E 1 87 3e 64
        E 0 8e 3e 64
        E 0 88 3e 64
        E 0 8d 32 64
        E 1 94 3e 64
        E 0 95 3e 64
        E 0 97 3e 64
        E 0 9e 3e 64
        E 0 98 3e 64
        E 0 9d 32 64
        E 405 85 3e 64
        E 0 87 3e 64
        E 0 8e 3e 64
        E 0 88 3e 64
        E 0 8d 32 64
        E 0 95 42 64
        E 0 97 42 64
        E 0 9e 42 64
        E 0 98 3e 64
        E 0 9d 32 64
        E 206 85 42 64
        E 0 87 42 64
        E 0 8e 42 64
        E 0 88 3e 64
        E 0 8d 32 64
        E 0 95 43 64
        E 0 97 43 64
        E 0 9e 43 64
        E 0 98 40 64
        E 0 9d 34 64
        E 205 84 3e 64
        E 0 85 43 64
        E 0 87 43 64
        E 0 8e 43 64
        E 0 88 40 64
        E 0 8d 34 64
        E 0 95 45 64
        E 0 97 45 64
        E 0 9e 45 64
        E 0 98 42 64
        E 0 9d 36 64
        E 407 85 45 64
        E 0 87 45 64
        E 0 8e 45 64
        E 0 88 42 64
        E 0 8d 36 64
        E 0 95 43 64
        E 0 97 43 64
        E 0 9e 43 64
        E 0 98 40 64
        E 0 9d 34 64
        E 411 85 43 64
        E 0 87 43 64
        E 0 8e 43 64
        E 0 88 40 64
        E 0 8d 34 64
        E 0 95 42 64
        E 0 97 42 64
        E 0 9e 42 64
        E 0 98 3e 64
        E 0 9d 32 64
        E 408 85 42 64
        E 0 87 42 64
        E 0 8e 42 64
        E 0 88 3e 64
        E 0 8d 32 64
        E 1 95 42 64
        E 0 97 42 64
        E 0 9e 42 64
        E 0 98 3e 64
        E 0 9d 32 64
        E 202 85 42 64
        E 0 87 42 64
        E 0 8e 42 64
        E 0 88 3e 64
        E 0 8d 32 64
        E 0 95 43 64
        E 0 97 43 64
        E 2 9e 43 64
        E 1 98 40 64
        E 0 9d 34 64
        E 201 85 43 64
        E 0 87 43 64
        E 0 8e 43 64
        E 0 88 40 64
        E 0 8d 34 64
        E 0 95 45 64
        E 0 97 45 64
        E 1 9e 45 64
        E 0 98 42 64
        E 0 9d 36 64
        E 407 85 45 64
        E 0 87 45 64
        E 0 8e 45 64
        E 0 88 42 64
        E 0 8d 36 64
        E 0 95 43 64
        E 0 97 43 64
        E 1 9e 43 64
        E 0 98 40 64
        E 0 9d 34 64
        E 409 85 43 64
        E 0 87 43 64
        E 0 8e 43 64
        E 0 88 40 64
        E 0 8d 34 64
        E 0 94 3e 64
        E 0 95 42 64
        E 0 97 42 64
        E 0 9e 42 64
        E 0 98 3e 64
        E 0 9d 32 64
        E 409 84 3e 64
        E 0 85 42 64
        E 0 87 42 64
        E 0 8e 42 64
        E 0 88 3e 64
        E 0 8d 32 64
        E 0 94 4a 64
        E 0 95 4a 64
        E 0 97 4a 64
        E 0 9e 4a 64
        E 0 98 4a 64
        E 0 9d 3e 64
        E 405 84 4a 64
        E 0 85 4a 64
        E 0 87 4a 64
        E 0 8e 4a 64
        E 0 88 4a 64
        E 0 8d 3e 64
        E 1 94 3e 64
        E 0 95 3e 64
        E 0 97 3e 64
        E 0 9e 3e 64
        E 0 98 3e 64
        E 0 9d 32 64
        E 409 84 3e 64
        E 0 85 3e 64
        E 0 87 3e 64
        E 0 8e 3e 64
        E 0 88 3e 64
        E 0 8d 32 64
        E 0 94 3e 64
        E 0 95 3e 64
        E 1 97 3e 64
        E 0 9e 3e 64
        E 0 98 3e 64
        E 0 9d 32 64
        E 408 84 3e 64
        E 0 85 3e 64
        E 0 87 3e 64
        E 0 8e 3e 64
        E 0 88 3e 64
        E 0 8d 32 64
        E 0 94 3e 64
        E 0 95 3e 64
        E 0 97 3e 64
        E 0 9e 3e 64
        E 0 98 3e 64
        E 0 9d 32 64
        E 410 84 3e 64
        E 0 85 3e 64
        E 0 87 3e 64
        E 0 8e 3e 64
        E 0 88 3e 64
        E 0 8d 32 64
        E 0 94 4a 64
        E 1 95 4a 64
        E 0 97 4a 64
        E 0 9e 4a 64
        E 0 98 4a 64
        E 0 9d 3e 64
        E 406 84 4a 64
        E 0 85 4a 64
        E 0 87 4a 64
        E 0 8e 4a 64
        E 0 88 4a 64
        E 0 8d 3e 64
        E 0 94 3e 64
        E 0 95 3e 64
        E 0 97 3e 64
        E 0 9e 3e 64
        E 0 98 3e 64
        E 1 9d 32 64
        E 406 84 3e 64
        E 0 85 3e 64
        E 1 87 3e 64
        E 0 8e 3e 64
        E 0 88 3e 64
        E 0 8d 32 64
        E 0 94 3e 64
        E 0 95 3e 64
        E 0 97 3e 64
        E 0 9e 3e 64
        E 0 98 3e 64
        E 0 9d 32 64
        E 410 84 3e 64
        E 0 85 3e 64
        E 0 87 3e 64
        E 0 8e 3e 64
        E 0 88 3e 64
        E 0 8d 32 64
        E 0 94 3e 64
        E 0 95 3e 64
        E 0 97 3e 64
        E 0 9e 3e 64
        E 0 98 3e 64
        E 0 9d 32 64
        E 408 87 3e 64
        E 0 8e 3e 64
        E 0 97 4e 64
        E 0 9e 4a 64
        E 203 87 4e 64
        E 0 8e 4a 64
        E 0 97 4f 64
        E 0 9e 4c 64
        E 206 84 3e 64
        E 0 85 3e 64
        E 0 87 4f 64
        E 0 8e 4c 64
        E 0 88 3e 64
        E 0 8d 32 64
        E 0 97 51 64
        E 0 9e 4e 64
        E 203 87 51 64
        E 0 8e 4e 64
        E 0 97 4f 64
        E 0 9e 4c 64
        E 204 87 4f 64
        E 0 8e 4c 64
        E 0 97 51 64
        E 0 9e 4e 64
        E 206 87 51 64
        E 0 8e 4e 64
        E 0 97 4f 64
        E 0 9e 4c 64
        E 203 87 4f 64
        E 0 8e 4c 64
        E 0 97 4e 64
        E 0 9e 4a 64
        E 408 87 4e 64
        E 0 8e 4a 64
        E 0 97 4e 64
        E 0 9e 4a 64
        E 204 87 4e 64
        E 0 8e 4a 64
        E 0 97 4f 64
        E 0 9e 4c 64
        E 205 87 4f 64
        E 0 8e 4c 64
        E 0 97 51 64
        E 0 9e 4e 64
        E 205 87 51 64
        E 0 8e 4e 64
        E 0 97 4f 64
        E 0 9e 4c 64
        E 203 87 4f 64
        E 0 8e 4c 64
        E 0 97 51 64
        E 1 9e 4e 64
        E 204 87 51 64
        E 0 8e 4e 64
        E 0 97 4f 64
        E 0 9e 4c 64
        E 204 87 4f 64
        E 0 8e 4c 64
        E 0 94 3e 64
        E 0 95 3e 64
        E 0 97 4e 64
        E 0 9e 4a 64
        E 0 98 3e 64
        E 0 9d 32 64
        E 409 84 3e 64
        E 0 85 3e 64
        E 1 87 4e 64
        E 0 8e 4a 64
        E 0 88 3e 64
        E 0 8d 32 64
        E 0 94 4a 64
        E 1 95 4a 64
        E 0 97 4a 64
        E 1 9e 4a 64
        E 0 98 4a 64
        E 0 9d 3e 64
        E 405 84 4a 64
        E 0 85 4a 64
        E 0 87 4a 64
        E 0 8e 4a 64
        E 0 88 4a 64
        E 0 8d 3e 64
        E 0 94 3e 64
        E 0 95 3e 64
        E 0 97 3e 64
        E 0 9e 3e 64
        E 0 98 3e 64
        E 0 9d 32 64
        E 407 84 3e 64
        E 0 85 3e 64
        E 0 87 3e 64
        E 0 8e 3e 64
        E 0 88 3e 64
        E 0 8d 32 64
        E 1 94 3e 64
        E 0 95 3e 64
        E 1 97 3e 64
        E 0 9e 3e 64
        E 0 98 3e 64
        E 1 9d 32 64
        E 407 84 3e 64
        E 0 85 3e 64
        E 0 87 3e 64
        E 0 8e 3e 64
        E 0 88 3e 64
        E 0 8d 32 64
        E 0 94 3e 64
        E 1 95 3e 64
        E 0 97 3e 64
        E 0 9e 3e 64
        E 0 98 3e 64
        E 0 9d 32 64
        E 407 84 3e 64
        E 0 85 3e 64
        E 0 87 3e 64
        E 0 8e 3e 64
        E 0 88 3e 64
        E 0 8d 32 64
        E 0 94 4a 64
        E 0 95 4a 64
        E 0 97 4a 64
        E 0 9e 4a 64
        E 0 98 4a 64
        E 0 9d 3e 64
        E 410 84 4a 64
        E 0 85 4a 64
        E 0 87 4a 64
        E 0 8e 4a 64
        E 0 88 4a 64
        E 0 8d 3e 64
        E 0 94 3e 64
        E 0 95 3e 64
        E 3 97 3e 64
        E 0 9e 3e 64
        E 0 98 3e 64
        E 0 9d 32 64
        E 403 84 3e 64
        E 0 85 3e 64
        E 0 87 3e 64
        E 0 8e 3e 64
        E 0 88 3e 64
        E 0 8d 32 64
        E 0 94 3e 64
        E 1 95 3e 64
        E 0 97 3e 64
        E 0 9e 3e 64
        E 0 98 3e 64
        E 0 9d 32 64
        E 410 84 3e 64
        E 0 85 3e 64
        E 0 87 3e 64
        E 0 8e 3e 64
        E 0 88 3e 64
        E 0 8d 32 64
        E 0 94 3e 64
        E 0 95 3e 64
        E 0 97 3e 64
        E 0 9e 3e 64
        E 0 98 3e 64
        E 0 9d 32 64
        E 408 84 3e 64
        E 0 85 3e 64
        E 1 94 4e 64
        E 0 95 4a 64
        E 204 84 4e 64
        E 0 85 4a 64
        E 0 94 4f 64
        E 0 95 4c 64
        E 204 84 4f 64
        E 0 85 4c 64
        E 0 87 3e 64
        E 0 8e 3e 64
        E 0 88 3e 64
        E 0 8d 32 64
        E 0 94 51 64
        E 0 95 4e 64
        E 204 84 51 64
        E 0 85 4e 64
        E 0 94 4f 64
        E 1 95 4c 64
        E 202 84 4f 64
        E 0 85 4c 64
        E 0 94 51 64
        E 0 95 4e 64
        E 205 84 51 64
        E 0 85 4e 64
        E 1 94 4f 64
        E 1 95 4c 64
        E 201 84 4f 64
        E 0 85 4c 64
        E 0 94 4e 64
        E 0 95 4a 64
        E 411 84 4e 64
        E 0 85 4a 64
        E 0 94 4e 64
        E 0 95 4a 64
        E 203 84 4e 64
        E 0 85 4a 64
        E 0 94 4f 64
        E 0 95 4c 64
        E 205 84 4f 64
        E 0 85 4c 64
        E 0 94 51 64
        E 0 95 4e 64
        E 202 84 51 64
        E 0 85 4e 64
        E 0 94 4f 64
        E 0 95 4c 64
        E 203 84 4f 64
        E 0 85 4c 64
        E 1 94 51 64
        E 0 95 4e 64
        E 207 84 51 64
        E 0 85 4e 64
        E 0 94 4f 64
        E 0 95 4c 64
        E 202 84 4f 64
        E 0 85 4c 64
        E 0 94 4e 64
        E 0 95 4a 64
        E 0 97 3e 64
        E 0 9e 3e 64
        E 0 98 3e 64
        E 0 9d 32 64
        E 409 84 4e 64
        E 0 85 4a 64
        E 0 87 3e 64
        E 0 8e 3e 64
        E 0 88 3e 64
        E 0 8d 32 64
        E 0 94 4a 64
        E 0 95 4a 64
        E 0 97 4a 64
        E 0 9e 4a 64
        E 0 98 4a 64
        E 0 9d 3e 64
        E 409 84 4a 64
        E 0 85 4a 64
        E 0 87 4a 64
        E 0 8e 4a 64
        E 0 88 4a 64
        E 0 8d 3e 64
        E 0 94 3e 64
        E 0 95 3e 64
        E 0 97 3e 64
        E 0 9e 3e 64
        E 0 98 3e 64
        E 0 9d 32 64
        E 410 84 3e 64
        E 0 85 3e 64
        E 0 87 3e 64
        E 0 8e 3e 64
        E 0 88 3e 64
        E 0 8d 32 64
        E 0 94 3e 64
        E 0 95 3e 64
        E 0 97 3e 64
        E 0 9e 3e 64
        E 0 98 3e 64
        E 0 9d 32 64
        E 406 84 3e 64
        E 0 85 3e 64
        E 0 87 3e 64
        E 0 8e 3e 64
        E 0 88 3e 64
        E 0 8d 32 64
        E 0 94 3e 64
        E 0 95 3e 64
        E 0 97 3e 64
        E 0 9e 3e 64
        E 0 98 3e 64
        E 0 9d 32 64
        E 408 84 3e 64
        E 0 85 3e 64
        E 0 87 3e 64
        E 0 8e 3e 64
        E 0 88 3e 64
        E 0 8d 32 64
        E 0 94 4a 64
        E 1 95 4a 64
        E 0 97 4a 64
        E 0 9e 4a 64
        E 0 98 4a 64
        E 0 9d 3e 64
        E 410 84 4a 64
        E 0 85 4a 64
        E 0 87 4a 64
        E 0 8e 4a 64
        E 0 88 4a 64
        E 0 8d 3e 64
        E 0 94 3e 64
        E 0 95 3e 64
        E 0 97 3e 64
        E 0 9e 3e 64
        E 0 98 3e 64
        E 0 9d 32 64
        E 411 84 3e 64
        E 0 85 3e 64
        E 0 87 3e 64
        E 0 8e 3e 64
        E 0 88 3e 64
        E 0 8d 32 64
        E 1 94 3e 64
        E 1 95 3e 64
        E 0 97 3e 64
        E 1 9e 3e 64
        E 0 98 3e 64
        E 0 9d 32 64
        E 401 84 3e 64
        E 0 85 3e 64
        E 0 87 3e 64
        E 0 8e 3e 64
        E 0 88 3e 64
        E 0 8d 32 64
        E 0 94 3e 64
        E 0 95 3e 64
        E 0 97 3e 64
        E 0 9e 3e 64
        E 0 98 3e 64
        E 0 9d 32 64
        E 409 87 3e 64
        E 0 8e 3e 64
        E 0 88 3e 64
        E 0 8d 32 64
        E 0 97 4e 64
        E 0 9e 4a 64
        E 0 98 45 64
        E 0 9d 3e 64
        E 205 87 4e 64
        E 0 8e 4a 64
        E 0 97 4f 64
        E 0 9e 4c 64
        E 204 84 3e 64
        E 0 85 3e 64
        E 0 87 4f 64
        E 0 8e 4c 64
        E 0 88 45 64
        E 0 8d 3e 64
        E 0 97 51 64
        E 0 9e 4e 64
        E 0 98 45 64
        E 0 9d 32 64
        E 204 87 51 64
        E 0 8e 4e 64
        E 0 97 4f 64
        E 0 9e 4c 64
        E 205 87 4f 64
        E 0 8e 4c 64
        E 0 88 45 64
        E 0 8d 32 64
        E 0 94 51 64
        E 0 95 4e 64
        E 0 97 51 64
        E 0 9e 4e 64
        E 0 98 45 64
        E 0 9d 32 64
        E 203 87 51 64
        E 0 8e 4e 64
        E 0 97 4e 64
        E 1 9e 4a 64
        E 203 84 51 64
        E 0 85 4e 64
        E 0 87 4e 64
        E 0 8e 4a 64
        E 0 88 45 64
        E 0 8d 32 64
        E 0 94 53 64
        E 0 95 4e 64
        E 0 97 53 64
        E 0 9e 4e 64
        E 0 98 42 64
        E 0 9d 32 64
        E 204 87 53 64
        E 0 8e 4e 64
        E 1 97 4e 64
        E 0 9e 4a 64
        E 206 84 53 64
        E 0 85 4e 64
        E 0 87 4e 64
        E 0 8e 4a 64
        E 0 88 42 64
        E 0 8d 32 64
        E 2 94 53 64
        E 0 95 4e 64
        E 0 97 53 64
        E 0 9e 4e 64
        E 1 98 42 64
        E 0 9d 3e 64
        E 202 87 53 64
        E 0 8e 4e 64
        E 0 97 4e 64
        E 0 9e 4a 64
        E 202 84 53 64
        E 0 85 4e 64
        E 0 87 4e 64
        E 0 8e 4a 64
        E 0 88 42 64
        E 0 8d 3e 64
        E 0 94 53 64
        E 0 95 4e 64
        E 0 97 53 64
        E 0 9e 4e 64
        E 0 98 42 64
        E 0 9d 32 64
        E 204 87 53 64
        E 0 8e 4e 64
        E 0 97 4e 64
        E 1 9e 4a 64
        E 204 84 53 64
        E 0 85 4e 64
        E 0 87 4e 64
        E 0 8e 4a 64
        E 0 88 42 64
        E 0 8d 32 64
        E 0 94 53 64
        E 0 95 4e 64
        E 0 97 53 64
        E 0 9e 4e 64
        E 0 98 42 64
        E 1 9d 32 64
        E 203 87 53 64
        E 0 8e 4e 64
        E 0 97 4e 64
        E 0 9e 4a 64
        E 204 84 53 64
        E 0 85 4e 64
        E 0 87 4e 64
        E 0 8e 4a 64
        E 0 88 42 64
        E 0 8d 32 64
        E 0 94 53 64
        E 0 95 4f 64
        E 0 97 53 64
        E 0 9e 4f 64
        E 0 98 40 64
        E 0 9d 31 64
        E 206 87 53 64
        E 0 8e 4f 64
        E 5 97 4f 64
        E 1 9e 4c 64
        E 196 84 53 64
        E 1 85 4f 64
        E 0 87 4f 64
        E 0 8e 4c 64
        E 0 88 40 64
        E 0 8d 31 64
        E 0 94 53 64
        E 0 95 4f 64
        E 0 97 53 64
        E 0 9e 4f 64
        E 0 98 40 64
        E 0 9d 3d 64
        E 203 87 53 64
        E 0 8e 4f 64
        E 0 97 4f 64
        E 0 9e 4c 64
        E 206 84 53 64
        E 0 85 4f 64
        E 0 87 4f 64
        E 0 8e 4c 64
        E 0 88 40 64
        E 0 8d 3d 64
        E 0 94 53 64
        E 0 95 4f 64
        E 0 97 53 64
        E 0 9e 4f 64
        E 0 98 40 64
        E 0 9d 31 64
        E 204 87 53 64
        E 0 8e 4f 64
        E 0 97 4f 64
        E 0 9e 4c 64
        E 204 84 53 64
        E 0 85 4f 64
        E 0 87 4f 64
        E 0 8e 4c 64
        E 0 88 40 64
        E 0 8d 31 64
        E 0 94 53 64
        E 0 95 4f 64
        E 0 97 53 64
        E 1 9e 4f 64
        E 0 98 40 64
        E 0 9d 31 64
        E 204 87 53 64
        E 0 8e 4f 64
        E 1 97 4f 64
        E 0 9e 4c 64
        E 205 84 53 64
        E 0 85 4f 64
        E 0 87 4f 64
        E 0 8e 4c 64
        E 0 88 40 64
        E 0 8d 31 64
        E 0 94 51 64
        E 0 95 4c 64
        E 0 97 51 64
        E 0 9e 4c 64
        E 0 98 45 64
        E 0 9d 31 64
        E 202 87 51 64
        E 0 8e 4c 64
        E 0 97 4c 64
        E 0 9e 49 64
        E 203 84 51 64
        E 0 85 4c 64
        E 0 87 4c 64
        E 0 8e 49 64
        E 0 88 45 64
        E 0 8d 31 64
        E 0 94 51 64
        E 0 95 4c 64
        E 0 97 51 64
        E 0 9e 4c 64
        E 1 98 45 64
        E 0 9d 3d 64
        E 204 87 51 64
        E 0 8e 4c 64
        E 0 97 4c 64
        E 0 9e 49 64
        E 206 84 51 64
        E 0 85 4c 64
        E 0 87 4c 64
        E 0 8e 49 64
        E 0 88 45 64
        E 0 8d 3d 64
        E 0 94 51 64
        E 0 95 4c 64
        E 0 97 51 64
        E 0 9e 4c 64
        E 0 98 45 64
        E 0 9d 31 64
        E 200 87 51 64
        E 0 8e 4c 64
        E 1 97 4c 64
        E 0 9e 49 64
        E 206 84 51 64
        E 0 85 4c 64
        E 0 87 4c 64
        E 0 8e 49 64
        E 0 88 45 64
        E 0 8d 31 64
        E 0 94 51 64
        E 1 95 4c 64
        E 0 97 51 64
        E 0 9e 4c 64
        E 0 98 45 64
        E 0 9d 31 64
        E 201 87 51 64
        E 1 8e 4c 64
        E 0 97 4c 64
        E 0 9e 49 64
        E 206 84 51 64
        E 0 85 4c 64
        E 0 87 4c 64
        E 0 8e 49 64
        E 0 88 45 64
        E 0 8d 31 64
        E 0 94 51 64
        E 0 95 4e 64
        E 0 97 51 64
        E 0 9e 4e 64
        E 0 98 3e 64
        E 0 9d 2f 64
        E 205 87 51 64
        E 0 8e 4e 64
        E 0 97 4e 64
        E 0 9e 4a 64
        E 202 84 51 64
        E 0 85 4e 64
        E 0 87 4e 64
        E 0 8e 4a 64
        E 0 88 3e 64
        E 0 8d 2f 64
        E 0 94 51 64
        E 0 95 4e 64
        E 0 97 51 64
        E 0 9e 4e 64
        E 0 98 3e 64
        E 0 9d 3b 64
        E 205 87 51 64
        E 0 8e 4e 64
        E 0 97 4e 64
        E 0 9e 4a 64
        E 203 84 51 64
        E 0 85 4e 64
        E 0 87 4e 64
        E 0 8e 4a 64
        E 0 88 3e 64
        E 0 8d 3b 64
        E 0 94 51 64
        E 0 95 4e 64
        E 0 97 51 64
        E 0 9e 4e 64
        E 0 98 3e 64
        E 0 9d 2f 64
        E 206 87 51 64
        E 0 8e 4e 64
        E 0 97 4e 64
        E 0 9e 4a 64
        E 203 84 51 64
        E 0 85 4e 64
        E 0 87 4e 64
        E 0 8e 4a 64
        E 0 88 3e 64
        E 0 8d 2f 64
        E 0 94 51 64
        E 0 95 4e 64
        E 0 97 51 64
        E 0 9e 4e 64
        E 1 98 3e 64
        E 0 9d 2f 64
        E 203 87 51 64
        E 0 8e 4e 64
        E 0 97 4e 64
        E 1 9e 4a 64
        E 204 84 51 64
        E 0 85 4e 64
        E 0 87 4e 64
        E 0 8e 4a 64
        E 0 88 3e 64
        E 0 8d 2f 64
        E 0 94 4f 64
        E 0 95 4a 64
        E 0 97 4f 64
        E 0 9e 4a 64
        E 0 98 43 64
        E 0 9d 2f 64
        E 204 87 4f 64
        E 0 8e 4a 64
        E 0 97 4a 64
        E 1 9e 47 64
        E 203 84 4f 64
        E 0 85 4a 64
        E 0 87 4a 64
        E 0 8e 47 64
        E 0 88 43 64
        E 0 8d 2f 64
        E 0 94 4f 64
        E 0 95 4a 64
        E 0 97 4f 64
        E 0 9e 4a 64
        E 0 98 43 64
        E 0 9d 3b 64
        E 206 87 4f 64
        E 0 8e 4a 64
        E 0 97 4a 64
        E 0 9e 47 64
        E 203 84 4f 64
        E 0 85 4a 64
        E 0 87 4a 64
        E 0 8e 47 64
        E 0 88 43 64
        E 0 8d 3b 64
        E 0 94 4f 64
        E 0 95 4a 64
        E 0 97 4f 64
        E 0 9e 4a 64
        E 0 98 43 64
        E 0 9d 2f 64
        E 207 87 4f 64
        E 0 8e 4a 64
        E 0 97 4a 64
        E 0 9e 47 64
        E 205 84 4f 64
        E 0 85 4a 64
        E 0 87 4a 64
        E 0 8e 47 64
        E 0 88 43 64
        E 0 8d 2f 64
        E 1 94 4f 64
        E 0 95 4a 64
        E 0 97 4f 64
        E 0 9e 4a 64
        E 0 98 43 64
        E 0 9d 2f 64
        E 199 87 4f 64
        E 0 8e 4a 64
        E 0 97 4a 64
        E 1 9e 47 64
        E 205 84 4f 64
        E 0 85 4a 64
        E 0 87 4a 64
        E 0 8e 47 64
        E 0 88 43 64
        E 0 8d 2f 64
        E 0 94 4f 64
        E 0 95 4c 64
        E 0 97 4f 64
        E 0 9e 4c 64
        E 0 98 3d 64
        E 0 9d 2d 64
        E 203 87 4f 64
        E 0 8e 4c 64
        E 0 97 4c 64
        E 0 9e 49 64
        E 205 84 4f 64
        E 0 85 4c 64
        E 0 87 4c 64
        E 0 8e 49 64
        E 0 88 3d 64
        E 0 8d 2d 64
        E 0 94 4f 64
        E 0 95 4c 64
        E 0 97 4f 64
        E 0 9e 4c 64
        E 0 98 3d 64
        E 0 9d 39 64
        E 204 87 4f 64
        E 0 8e 4c 64
        E 0 97 4c 64
        E 0 9e 49 64
        E 203 84 4f 64
        E 0 85 4c 64
        E 1 87 4c 64
        E 0 8e 49 64
        E 0 88 3d 64
        E 0 8d 39 64
        E 0 94 4f 64
        E 0 95 4c 64
        E 0 97 4f 64
        E 0 9e 4c 64
        E 0 98 3d 64
        E 0 9d 2d 64
        E 206 87 4f 64
        E 0 8e 4c 64
        E 0 97 4c 64
        E 0 9e 49 64
        E 202 84 4f 64
        E 0 85 4c 64
        E 0 87 4c 64
        E 0 8e 49 64
        E 0 88 3d 64
        E 0 8d 2d 64
        E 1 94 4f 64
        E 0 95 4c 64
        E 0 97 4f 64
        E 0 9e 4c 64
        E 0 98 3d 64
        E 0 9d 2d 64
        E 203 87 4f 64
        E 0 8e 4c 64
        E 0 97 4c 64
        E 0 9e 49 64
        E 207 84 4f 64
        E 0 85 4c 64
        E 0 87 4c 64
        E 0 8e 49 64
        E 0 88 3d 64
        E 0 8d 2d 64
        E 0 94 4e 64
        E 0 95 49 64
        E 0 97 4e 64
        E 0 9e 49 64
        E 0 98 42 64
        E 0 9d 2d 64
        E 202 87 4e 64
        E 0 8e 49 64
        E 0 97 49 64
        E 0 9e 45 64
        E 206 84 4e 64
        E 1 85 49 64
        E 0 87 49 64
        E 0 8e 45 64
        E 0 88 42 64
        E 0 8d 2d 64
        E 0 94 4e 64
        E 1 95 49 64
        E 0 97 4e 64
        E 0 9e 49 64
        E 0 98 42 64
        E 0 9d 39 64
        E 201 87 4e 64
        E 0 8e 49 64
        E 0 97 49 64
        E 0 9e 45 64
        E 206 84 4e 64
        E 0 85 49 64
        E 2 87 49 64
        E 0 8e 45 64
        E 2 88 42 64
        E 0 8d 39 64
        E 1 94 4e 64
        E 0 95 49 64
        E 1 97 4e 64
        E 0 9e 49 64
        E 0 98 42 64
        E 0 9d 2d 64
        E 196 87 4e 64
        E 0 8e 49 64
        E 0 97 49 64
        E 1 9e 45 64
        E 204 84 4e 64
        E 0 85 49 64
        E 0 87 49 64
        E 0 8e 45 64
        E 0 88 42 64
        E 0 8d 2d 64
        E 0 94 4e 64
        E 1 95 49 64
        E 0 97 4e 64
        E 0 9e 49 64
        E 0 98 42 64
        E 0 9d 2d 64
        E 201 87 4e 64
        E 0 8e 49 64
        E 3 97 49 64
        E 1 9e 45 64
        E 204 84 4e 64
        E 0 85 49 64
        E 0 87 49 64
        E 0 8e 45 64
        E 0 88 42 64
        E 0 8d 2d 64
        E 0 94 4e 64
        E 0 95 4a 64
        E 0 97 4e 64
        E 0 9e 4a 64
        E 0 98 3b 64
        E 0 9d 2b 64
        E 201 87 4e 64
        E 0 8e 4a 64
        E 1 97 4a 64
        E 0 9e 47 64
        E 206 84 4e 64
        E 1 85 4a 64
        E 0 87 4a 64
        E 0 8e 47 64
        E 0 88 3b 64
        E 0 8d 2b 64
        E 0 94 4e 64
        E 0 95 4a 64
        E 0 97 4e 64
        E 0 9e 4a 64
        E 0 98 3b 64
        E 0 9d 37 64
        E 202 87 4e 64
        E 0 8e 4a 64
        E 0 97 4a 64
        E 0 9e 47 64
        E 205 84 4e 64
        E 1 85 4a 64
        E 0 87 4a 64
        E 0 8e 47 64
        E 0 88 3b 64
        E 0 8d 37 64
        E 0 94 4e 64
        E 0 95 4a 64
        E 0 97 4e 64
        E 0 9e 4a 64
        E 0 98 3b 64
        E 0 9d 2b 64
        E 205 87 4e 64
        E 0 8e 4a 64
        E 0 97 4a 64
        E 0 9e 47 64
        E 203 84 4e 64
        E 0 85 4a 64
        E 0 87 4a 64
        E 0 8e 47 64
        E 0 88 3b 64
        E 0 8d 2b 64
        E 0 94 4e 64
        E 0 95 4a 64
        E 0 97 4e 64
        E 0 9e 4a 64
        E 0 98 3b 64
        E 0 9d 2b 64
        E 205 87 4e 64
        E 0 8e 4a 64
        E 0 97 4a 64
        E 0 9e 47 64
        E 204 84 4e 64
        E 0 85 4a 64
        E 0 87 4a 64
        E 0 8e 47 64
        E 0 88 3b 64
        E 0 8d 2b 64
        E 0 94 4c 64
        E 0 95 47 64
        E 0 97 4c 64
        E 0 9e 47 64
        E 0 98 40 64
        E 0 9d 2b 64
        E 203 87 4c 64
        E 0 8e 47 64
        E 0 97 47 64
        E 0 9e 43 64
        E 205 84 4c 64
        E 0 85 47 64
        E 0 87 47 64
        E 0 8e 43 64
        E 0 88 40 64
        E 0 8d 2b 64
        E 0 94 4c 64
        E 0 95 47 64
        E 0 97 4c 64
        E 0 9e 47 64
        E 0 98 40 64
        E 0 9d 37 64
        E 203 87 4c 64
        E 0 8e 47 64
        E 0 97 47 64
        E 0 9e 43 64
        E 204 84 4c 64
        E 1 85 47 64
        E 0 87 47 64
        E 0 8e 43 64
        E 0 88 40 64
        E 0 8d 37 64
        E 0 94 4c 64
        E 0 95 47 64
        E 1 97 4c 64
        E 0 9e 47 64
        E 0 98 40 64
        E 0 9d 2b 64
        E 202 87 4c 64
        E 1 8e 47 64
        E 0 97 47 64
        E 0 9e 43 64
        E 203 84 4c 64
        E 0 85 47 64
        E 0 87 47 64
        E 0 8e 43 64
        E 0 88 40 64
        E 0 8d 2b 64
        E 0 94 4c 64
        E 0 95 47 64
        E 0 97 4c 64
        E 1 9e 47 64
        E 0 98 40 64
        E 0 9d 2b 64
        E 205 87 4c 64
        E 0 8e 47 64
        E 0 97 47 64
        E 0 9e 43 64
        E 203 84 4c 64
        E 0 85 47 64
        E 0 87 47 64
        E 0 8e 43 64
        E 0 88 40 64
        E 0 8d 2b 64
        E 0 94 4c 64
        E 0 95 49 64
        E 0 97 4c 64
        E 0 9e 4f 64
        E 0 98 3d 64
        E 0 9d 2d 64
        E 204 87 4c 64
        E 0 8e 4f 64
        E 3 97 49 64
        E 0 9e 4c 64
        E 203 87 49 64
        E 0 8e 4c 64
        E 0 88 3d 64
        E 0 8d 2d 64
        E 0 97 4c 64
        E 0 9e 4f 64
        E 0 98 3d 64
        E 0 9d 39 64
        E 203 87 4c 64
        E 0 8e 4f 64
        E 0 97 49 64
        E 0 9e 4c 64
        E 205 84 4c 64
        E 0 85 49 64
        E 1 87 49 64
        E 0 8e 4c 64
        E 0 88 3d 64
        E 0 8d 39 64
        E 0 97 4c 64
        E 0 9e 4f 64
        E 0 98 3d 64
        E 0 9d 2d 64
        E 202 87 4c 64
        E 0 8e 4f 64
        E 0 97 49 64
        E 0 9e 4c 64
        E 205 87 49 64
        E 0 8e 4c 64
        E 0 88 3d 64
        E 0 8d 2d 64
        E 0 97 4c 64
        E 0 9e 4f 64
        E 0 98 3d 64
        E 0 9d 2d 64
        E 204 87 4c 64
        E 0 8e 4f 64
        E 0 97 49 64
        E 0 9e 4c 64
        E 205 87 49 64
        E 0 8e 4c 64
        E 0 88 3d 64
        E 0 8d 2d 64
        E 0 94 4c 64
        E 0 95 49 64
        E 0 97 4f 64
        E 0 9e 4c 64
        E 0 98 3d 64
        E 0 9d 2d 64
        E 202 87 4f 64
        E 0 8e 4c 64
        E 0 97 4c 64
        E 0 9e 49 64
        E 206 87 4c 64
        E 0 8e 49 64
        E 0 88 3d 64
        E 0 8d 2d 64
        E 0 97 4f 64
        E 0 9e 4c 64
        E 0 98 3d 64
        E 0 9d 39 64
        E 204 87 4f 64
        E 0 8e 4c 64
        E 1 97 4c 64
        E 0 9e 49 64
        E 206 84 4c 64
        E 0 85 49 64
        E 0 87 4c 64
        E 0 8e 49 64
        E 0 88 3d 64
        E 0 8d 39 64
        E 1 97 4f 64
        E 0 9e 4c 64
        E 0 98 3d 64
        E 0 9d 2d 64
        E 202 87 4f 64
        E 0 8e 4c 64
        E 0 97 4c 64
        E 0 9e 49 64
        E 203 87 4c 64
        E 0 8e 49 64
        E 0 88 3d 64
        E 0 8d 2d 64
        E 0 97 4f 64
        E 0 9e 4c 64
        E 0 98 3d 64
        E 0 9d 2d 64
        E 209 87 4f 64
        E 0 8e 4c 64
        E 0 97 4c 64
        E 0 9e 49 64
        E 200 87 4c 64
        E 0 8e 49 64
        E 0 88 3d 64
        E 0 8d 2d 64
        E 0 94 4c 64
        E 1 95 49 64
        E 0 97 49 64
        E 0 9e 43 64
        E 0 98 40 64
        E 0 9d 2d 64
        E 201 87 49 64
        E 0 8e 43 64
        E 0 97 43 64
        E 0 9e 40 64
        E 208 87 43 64
        E 0 8e 40 64
        E 0 88 40 64
        E 0 8d 2d 64
        E 1 97 49 64
        E 0 9e 43 64
        E 0 98 40 64
        E 0 9d 39 64
        E 201 87 49 64
        E 0 8e 43 64
        E 0 97 43 64
        E 0 9e 40 64
        E 205 84 4c 64
        E 0 85 49 64
        E 0 87 43 64
        E 0 8e 40 64
        E 0 88 40 64
        E 0 8d 39 64
        E 0 97 49 64
        E 0 9e 43 64
        E 0 98 40 64
        E 0 9d 2d 64
        E 204 87 49 64
        E 0 8e 43 64
        E 0 97 43 64
        E 1 9e 40 64
        E 201 87 43 64
        E 0 8e 40 64
        E 0 88 40 64
        E 0 8d 2d 64
        E 0 97 49 64
        E 1 9e 43 64
        E 0 98 40 64
        E 0 9d 2d 64
        E 206 87 49 64
        E 0 8e 43 64
        E 1 97 43 64
        E 0 9e 40 64
        E 202 87 43 64
        E 0 8e 40 64
        E 0 88 40 64
        E 0 8d 2d 64
        E 0 94 4c 64
        E 0 95 49 64
        E 0 97 40 64
        E 0 9e 3d 64
        E 0 98 34 64
        E 0 9d 2d 64
        E 205 87 40 64
        E 0 8e 3d 64
        E 0 97 3d 64
        E 0 9e 39 64
        E 206 87 3d 64
        E 0 8e 39 64
        E 0 88 34 64
        E 0 8d 2d 64
        E 0 97 40 64
        E 0 9e 3d 64
        E 1 98 34 64
        E 0 9d 39 64
        E 202 87 40 64
        E 0 8e 3d 64
        E 0 97 3d 64
        E 0 9e 39 64
        E 203 84 4c 64
        E 1 85 49 64
        E 0 87 3d 64
        E 0 8e 39 64
        E 0 88 34 64
        E 0 8d 39 64
        E 1 97 40 64
        E 0 9e 3d 64
        E 0 98 34 64
        E 0 9d 2d 64
        E 202 87 40 64
        E 0 8e 3d 64
        E 0 97 3d 64
        E 0 9e 39 64
        E 205 87 3d 64
        E 1 8e 39 64
        E 0 88 34 64
        E 0 8d 2d 64
        E 0 97 40 64
        E 0 9e 3d 64
        E 0 98 34 64
        E 0 9d 2d 64
        E 204 87 40 64
        E 0 8e 3d 64
        E 1 97 3d 64
        E 0 9e 39 64
        E 202 87 3d 64
        E 0 8e 39 64
        E 0 88 34 64
        E 0 8d 2d 64
        E 0 94 4c 64
        E 0 95 49 64
        E 0 97 37 64
        E 0 9e 3d 64
        E 0 98 34 64
        E 0 9d 2d 64
        E 822 84 4c 64
        E 0 85 49 64
        E 0 87 37 64
        E 0 8e 3d 64
        E 0 88 34 64
        E 0 8d 2d 64
        E 2445 94 4e 64
        E 0 95 4a 64
        E 0 97 51 64
        E 0 9e 4e 64
        E 0 98 45 64
        E 0 9d 32 64
        E 206 87 51 64
        E 0 8e 4e 64
        E 0 97 4e 64
        E 0 9e 4a 64
        E 203 84 4e 64
        E 1 85 4a 64
        E 0 87 4e 64
        E 0 8e 4a 64
        E 0 88 45 64
        E 0 8d 32 64
        E 0 94 4e 64
        E 0 95 4a 64
        E 0 97 51 64
        E 0 9e 4e 64
        E 0 98 45 64
        E 0 9d 3e 64
        E 206 87 51 64
        E 0 8e 4e 64
        E 0 97 4e 64
        E 0 9e 4a 64
        E 204 84 4e 64
        E 0 85 4a 64
        E 0 87 4e 64
        E 0 8e 4a 64
        E 0 88 45 64
        E 0 8d 3e 64
        E 1 94 4e 64
        E 0 95 4a 64
        E 0 97 51 64
        E 0 9e 4e 64
        E 0 98 45 64
        E 0 9d 32 64
        E 202 87 51 64
        E 0 8e 4e 64
        E 0 97 4e 64
        E 0 9e 4a 64
        E 205 84 4e 64
        E 0 85 4a 64
        E 0 87 4e 64
        E 0 8e 4a 64
        E 0 88 45 64
        E 0 8d 32 64
        E 0 94 4e 64
        E 0 95 4a 64
        E 0 97 51 64
        E 4 9e 4e 64
        E 0 98 45 64
        E 0 9d 32 64
        E 201 87 51 64
        E 0 8e 4e 64
        E 0 97 4e 64
        E 1 9e 4a 64
        E 200 84 4e 64
        E 0 85 4a 64
        E 0 87 4e 64
        E 0 8e 4a 64
        E 0 88 45 64
        E 0 8d 32 64
        E 0 94 4c 64
        E 0 95 4a 64
        E 0 97 51 64
        E 0 9e 4c 64
        E 0 98 45 64
        E 0 9d 2d 64
        E 206 87 51 64
        E 0 8e 4c 64
        E 0 97 4c 64
        E 0 9e 4a 64
        E 204 84 4c 64
        E 0 85 4a 64
        E 0 87 4c 64
        E 0 8e 4a 64
        E 1 88 45 64
        E 0 8d 2d 64
        E 0 94 4c 64
        E 0 95 4a 64
        E 0 97 51 64
        E 0 9e 4c 64
        E 0 98 45 64
        E 0 9d 39 64
        E 203 87 51 64
        E 0 8e 4c 64
        E 1 97 4c 64
        E 0 9e 4a 64
        E 203 84 4c 64
        E 0 85 4a 64
        E 0 87 4c 64
        E 0 8e 4a 64
        E 0 88 45 64
        E 0 8d 39 64
        E 0 94 4c 64
        E 1 95 4a 64
        E 0 97 51 64
        E 0 9e 4c 64
        E 0 98 45 64
        E 0 9d 2d 64
        E 203 87 51 64
        E 0 8e 4c 64
        E 0 97 4c 64
        E 0 9e 4a 64
        E 206 84 4c 64
        E 0 85 4a 64
        E 0 87 4c 64
        E 0 8e 4a 64
        E 0 88 45 64
        E 0 8d 2d 64
        E 0 94 4c 64
        E 0 95 4a 64
        E 0 97 51 64
        E 0 9e 4c 64
        E 0 98 45 64
        E 0 9d 2d 64
        E 203 87 51 64
        E 0 8e 4c 64
        E 0 97 4c 64
        E 0 9e 4a 64
        E 203 84 4c 64
        E 1 85 4a 64
        E 0 87 4c 64
        E 0 8e 4a 64
        E 0 88 45 64
        E 0 8d 2d 64
        E 0 94 4c 64
        E 0 95 49 64
        E 0 97 51 64
        E 0 9e 4c 64
        E 0 98 45 64
        E 0 9d 2d 64
        E 206 87 51 64
        E 1 8e 4c 64
        E 0 97 4c 64
        E 0 9e 49 64
        E 201 84 4c 64
        E 0 85 49 64
        E 0 87 4c 64
        E 0 8e 49 64
        E 0 88 45 64
        E 0 8d 2d 64
        E 0 94 4c 64
        E 1 95 49 64
        E 0 97 51 64
        E 0 9e 4c 64
        E 0 98 45 64
        E 0 9d 39 64
        E 205 87 51 64
        E 0 8e 4c 64
        E 0 97 4c 64
        E 0 9e 49 64
        E 204 84 4c 64
        E 0 85 49 64
        E 0 87 4c 64
        E 0 8e 49 64
        E 0 88 45 64
        E 0 8d 39 64
        E 0 94 4c 64
        E 0 95 49 64
        E 0 97 51 64
        E 0 9e 4c 64
        E 0 98 45 64
        E 0 9d 2d 64
        E 204 87 51 64
        E 0 8e 4c 64
        E 0 97 4c 64
        E 1 9e 49 64
        E 203 84 4c 64
        E 0 85 49 64
        E 0 87 4c 64
        E 0 8e 49 64
        E 0 88 45 64
        E 0 8d 2d 64
        E 0 94 4c 64
        E 1 95 49 64
        E 0 97 51 64
        E 0 9e 4c 64
        E 1 98 45 64
        E 0 9d 2d 64
        E 204 87 51 64
        E 0 8e 4c 64
        E 1 97 4c 64
        E 0 9e 49 64
        E 203 84 4c 64
        E 0 85 49 64
        E 0 87 4c 64
        E 0 8e 49 64
        E 0 88 45 64
        E 0 8d 2d 64
        E 0 94 4e 64
        E 0 95 4a 64
        E 0 97 4e 64
        E 0 9e 4a 64
        E 0 98 4a 64
        E 0 9d 32 64
        E 406 84 4e 64
        E 0 85 4a 64
        E 0 87 4e 64
        E 0 8e 4a 64
        E 0 88 4a 64
        E 0 8d 32 64
        E 0 94 4a 64
        E 0 95 4a 64
        E 0 97 4a 64
        E 0 9e 4a 64
        E 0 98 4a 64
        E 0 9d 3e 64
        E 410 84 4a 64
        E 0 85 4a 64
        E 0 87 4a 64
        E 0 8e 4a 64
        E 0 88 4a 64
        E 0 8d 3e 64
        E 0 94 3e 64
        E 0 95 3e 64
        E 0 97 3e 64
        E 0 9e 3e 64
        E 0 98 3e 64
        E 0 9d 32 64
        E 409 84 3e 64
        E 0 85 3e 64
        E 0 87 3e 64
        E 0 8e 3e 64
        E 0 88 3e 64
        E 0 8d 32 64
        E 0 94 3e 64
        E 0 95 3e 64
        E 0 97 3e 64
        E 0 9e 3e 64
        E 0 98 3e 64
        E 0 9d 32 64
        E 409 84 3e 64
        E 0 85 3e 64
        E 0 87 3e 64
        E 0 8e 3e 64
        E 0 88 3e 64
        E 0 8d 32 64
        E 0 94 3e 64
        E 0 95 3e 64
        E 0 97 3e 64
        E 0 9e 3e 64
        E 1 98 3e 64
        E 0 9d 32 64
        E 405 84 3e 64
        E 0 85 3e 64
        E 0 87 3e 64
        E 0 8e 3e 64
        E 0 88 3e 64
        E 0 8d 32 64
        E 1 94 4a 64
        E 0 95 4a 64
        E 0 97 4a 64
        E 0 9e 4a 64
        E 0 98 4a 64
        E 0 9d 3e 64
        E 409 84 4a 64
        E 0 85 4a 64
        E 0 87 4a 64
        E 0 8e 4a 64
        E 0 88 4a 64
        E 0 8d 3e 64
        E 0 94 3e 64
        E 0 95 3e 64
        E 0 97 3e 64
        E 0 9e 3e 64
        E 0 98 3e 64
        E 0 9d 32 64
        E 410 84 3e 64
        E 0 85 3e 64
        E 0 87 3e 64
        E 0 8e 3e 64
        E 0 88 3e 64
        E 0 8d 32 64
        E 0 94 3e 64
        E 0 95 3e 64
        E 0 97 3e 64
        E 0 9e 3e 64
        E 1 98 3e 64
        E 0 9d 32 64
        E 406 84 3e 64
        E 0 85 3e 64
        E 0 87 3e 64
        E 0 8e 3e 64
        E 0 88 3e 64
        E 0 8d 32 64
        E 0 94 3e 64
        E 0 95 3e 64
        E 0 97 3e 64
        E 0 9e 3e 64
        E 0 98 3e 64
        E 0 9d 32 64
        E 408 85 3e 64
        E 0 87 3e 64
        E 0 8e 3e 64
        E 0 95 4e 64
        E 0 97 4e 64
        E 0 9e 4a 64
        E 206 85 4e 64
        E 0 87 4e 64
        E 0 8e 4a 64
        E 0 95 4f 64
        E 0 97 4f 64
        E 0 9e 4c 64
        E 204 84 3e 64
        E 0 85 4f 64
        E 0 87 4f 64
        E 0 8e 4c 64
        E 0 88 3e 64
        E 0 8d 32 64
        E 0 95 51 64
        E 0 97 51 64
        E 0 9e 4e 64
        E 204 85 51 64
        E 0 87 51 64
        E 0 8e 4e 64
        E 0 95 4f 64
        E 0 97 4f 64
        E 0 9e 4c 64
        E 203 85 4f 64
        E 0 87 4f 64
        E 0 8e 4c 64
        E 0 95 51 64
        E 0 97 51 64
        E 0 9e 4e 64
        E 203 85 51 64
        E 0 87 51 64
        E 0 8e 4e 64
        E 0 95 4f 64
        E 0 97 4f 64
        E 0 9e 4c 64
        E 207 85 4f 64
        E 0 87 4f 64
        E 0 8e 4c 64
        E 0 95 4e 64
        E 0 97 4e 64
        E 0 9e 4a 64
        E 410 85 4e 64
        E 0 87 4e 64
        E 0 8e 4a 64
        E 0 95 4e 64
        E 0 97 4e 64
        E 1 9e 4a 64
        E 200 85 4e 64
        E 0 87 4e 64
        E 0 8e 4a 64
        E 0 95 4f 64
        E 0 97 4f 64
        E 1 9e 4c 64
        E 204 85 4f 64
        E 0 87 4f 64
        E 0 8e 4c 64
        E 0 95 51 64
        E 0 97 51 64
        E 0 9e 4e 64
        E 205 85 51 64
        E 0 87 51 64
        E 0 8e 4e 64
        E 0 95 4f 64
        E 0 97 4f 64
        E 0 9e 4c 64
        E 202 85 4f 64
        E 0 87 4f 64
        E 0 8e 4c 64
        E 1 95 51 64
        E 0 97 51 64
        E 0 9e 4e 64
        E 204 85 51 64
        E 1 87 51 64
        E 0 8e 4e 64
        E 2 95 4e 64
        E 1 97 4e 64
        E 1 9e 4a 64
        E 200 85 4e 64
        E 0 87 4e 64
        E 0 8e 4a 64
        E 0 95 4c 64
        E 0 97 4c 64
        E 0 9e 49 64
        E 0 98 39 64
        E 0 9d 2d 64
        E 408 87 4c 64
        E 0 8e 49 64
        E 0 88 39 64
        E 0 8d 2d 64
        E 1 97 45 64
        E 0 9e 45 64
        E 0 98 45 64
        E 0 9d 39 64
        E 408 85 4c 64
        E 0 87 45 64
        E 0 8e 45 64
        E 0 88 45 64
        E 0 8d 39 64
        E 0 97 39 64
        E 0 9e 39 64
        E 0 98 39 64
        E 0 9d 2d 64
        E 407 87 39 64
        E 0 8e 39 64
        E 0 88 39 64
        E 1 8d 2d 64
        E 0 97 39 64
        E 0 9e 39 64
        E 0 98 39 64
        E 0 9d 2d 64
        E 409 87 39 64
        E 0 8e 39 64
        E 0 88 39 64
        E 0 8d 2d 64
        E 0 97 39 64
        E 0 9e 39 64
        E 0 98 39 64
        E 0 9d 2d 64
        E 409 87 39 64
        E 0 8e 39 64
        E 0 88 39 64
        E 0 8d 2d 64
        E 1 97 45 64
        E 0 9e 45 64
        E 0 98 45 64
        E 0 9d 39 64
        E 405 87 45 64
        E 0 8e 45 64
        E 0 88 45 64
        E 0 8d 39 64
        E 0 97 39 64
        E 0 9e 39 64
        E 0 98 39 64
        E 0 9d 2d 64
        E 410 87 39 64
        E 0 8e 39 64
        E 0 88 39 64
        E 0 8d 2d 64
        E 0 97 39 64
        E 0 9e 39 64
        E 0 98 39 64
        E 0 9d 2d 64
        E 410 87 39 64
        E 0 8e 39 64
        E 0 88 39 64
        E 0 8d 2d 64
        E 0 97 39 64
        E 0 9e 39 64
        E 0 98 39 64
        E 0 9d 2d 64
        E 410 87 39 64
        E 0 8e 39 64
        E 0 95 4c 64
        E 1 97 4c 64
        E 1 9e 49 64
        E 200 85 4c 64
        E 0 87 4c 64
        E 0 8e 49 64
        E 0 95 4e 64
        E 0 97 4e 64
        E 0 9e 4a 64
        E 204 85 4e 64
        E 0 87 4e 64
        E 0 8e 4a 64
        E 0 88 39 64
        E 0 8d 2d 64
        E 0 95 4f 64
        E 0 97 4f 64
        E 0 9e 4c 64
        E 206 85 4f 64
        E 5 87 4f 64
        E 0 8e 4c 64
        E 0 95 4e 64
        E 0 97 4e 64
        E 0 9e 4a 64
        E 197 85 4e 64
        E 0 87 4e 64
        E 0 8e 4a 64
        E 0 95 4f 64
        E 0 97 4f 64
        E 0 9e 4c 64
        E 205 85 4f 64
        E 0 87 4f 64
        E 0 8e 4c 64
        E 0 95 4e 64
        E 0 97 4e 64
        E 0 9e 4a 64
        E 205 85 4e 64
        E 0 87 4e 64
        E 0 8e 4a 64
        E 0 95 4c 64
        E 0 97 4c 64
        E 0 9e 49 64
        E 408 85 4c 64
        E 0 87 4c 64
        E 0 8e 49 64
        E 0 95 4c 64
        E 0 97 4c 64
        E 0 9e 49 64
        E 203 85 4c 64
        E 0 87 4c 64
        E 0 8e 49 64
        E 1 95 4e 64
        E 0 97 4e 64
        E 0 9e 4a 64
        E 205 85 4e 64
        E 0 87 4e 64
        E 0 8e 4a 64
        E 0 95 4f 64
        E 0 97 4f 64
        E 0 9e 4c 64
        E 203 85 4f 64
        E 1 87 4f 64
        E 0 8e 4c 64
        E 0 95 4e 64
        E 1 97 4e 64
        E 0 9e 4a 64
        E 201 85 4e 64
        E 0 87 4e 64
        E 0 8e 4a 64
        E 0 95 4f 64
        E 0 97 4f 64
        E 0 9e 4c 64
        E 208 85 4f 64
        E 0 87 4f 64
        E 0 8e 4c 64
        E 0 95 4e 64
        E 0 97 4e 64
        E 0 9e 4a 64
        E 201 85 4e 64
        E 0 87 4e 64
        E 0 8e 4a 64
        E 1 95 4c 64
        E 0 97 4c 64
        E 0 9e 49 64
        E 0 98 39 64
        E 0 9d 2d 64
        E 409 87 4c 64
        E 0 8e 49 64
        E 0 88 39 64
        E 0 8d 2d 64
        E 0 97 45 64
        E 0 9e 45 64
        E 0 98 45 64
        E 0 9d 39 64
        E 409 85 4c 64
        E 0 87 45 64
        E 0 8e 45 64
        E 0 88 45 64
        E 1 8d 39 64
        E 0 97 39 64
        E 0 9e 39 64
        E 0 98 39 64
        E 0 9d 2d 64
        E 405 87 39 64
        E 0 8e 39 64
        E 0 88 39 64
        E 0 8d 2d 64
        E 0 97 39 64
        E 0 9e 39 64
        E 0 98 39 64
        E 0 9d 2d 64
        E 410 87 39 64
        E 0 8e 39 64
        E 0 88 39 64
        E 0 8d 2d 64
        E 0 97 39 64
        E 0 9e 39 64
        E 0 98 39 64
        E 0 9d 2d 64
        E 410 87 39 64
        E 1 8e 39 64
        E 0 88 39 64
        E 0 8d 2d 64
        E 0 97 45 64
        E 2 9e 45 64
        E 0 98 45 64
        E 0 9d 39 64
        E 404 87 45 64
        E 0 8e 45 64
        E 0 88 45 64
        E 0 8d 39 64
        E 0 97 39 64
        E 0 9e 39 64
        E 0 98 39 64
        E 0 9d 2d 64
        E 407 87 39 64
        E 0 8e 39 64
        E 0 88 39 64
        E 0 8d 2d 64
        E 0 97 39 64
        E 0 9e 39 64
        E 0 98 39 64
        E 0 9d 2d 64
        E 411 87 39 64
        E 0 8e 39 64
        E 0 88 39 64
        E 0 8d 2d 64
        E 0 97 39 64
        E 0 9e 39 64
        E 0 98 39 64
        E 0 9d 2d 64
        E 408 87 39 64
        E 0 8e 39 64
        E 0 88 39 64
        E 0 8d 2d 64
        E 0 97 45 64
        E 0 9e 45 64
        E 0 98 45 64
        E 1 9d 39 64
        E 408 87 45 64
        E 0 8e 45 64
        E 1 88 45 64
        E 0 8d 39 64
        E 0 97 39 64
        E 0 9e 39 64
        E 0 98 39 64
        E 0 9d 2d 64
        E 406 87 39 64
        E 0 8e 39 64
        E 0 88 39 64
        E 0 8d 2d 64
        E 0 97 39 64
        E 0 9e 39 64
        E 0 98 39 64
        E 0 9d 2d 64
        E 409 87 39 64
        E 0 8e 39 64
        E 0 88 39 64
        E 0 8d 2d 64
        E 0 97 39 64
        E 0 9e 39 64
        E 0 98 39 64
        E 0 9d 2d 64
        E 408 87 39 64
        E 0 8e 39 64
        E 0 88 39 64
        E 0 8d 2d 64
        E 0 97 45 64
        E 0 9e 45 64
        E 0 98 45 64
        E 1 9d 39 64
        E 409 87 45 64
        E 0 8e 45 64
        E 0 88 45 64
        E 0 8d 39 64
        E 0 97 39 64
        E 0 9e 39 64
        E 0 98 39 64
        E 0 9d 2d 64
        E 408 87 39 64
        E 0 8e 39 64
        E 0 88 39 64
        E 0 8d 2d 64
        E 0 97 39 64
        E 1 9e 39 64
        E 0 98 39 64
        E 0 9d 2d 64
        E 406 87 39 64
        E 0 8e 39 64
        E 0 88 39 64
        E 0 8d 2d 64
        E 1 97 39 64
        E 0 9e 39 64
        E 0 98 39 64
        E 0 9d 2d 64
        E 408 87 39 64
        E 1 8e 39 64
        E 0 88 39 64
        E 0 8d 2d 64
        E 0 97 45 64
        E 0 9e 45 64
        E 0 98 45 64
        E 0 9d 39 64
        E 409 87 45 64
        E 0 8e 45 64
        E 0 88 45 64
        E 0 8d 39 64
        E 0 97 39 64
        E 0 9e 39 64
        E 0 98 39 64
        E 0 9d 2d 64
        E 409 87 39 64
        E 0 8e 39 64
        E 0 88 39 64
        E 0 8d 2d 64
        E 0 97 39 64
        E 0 9e 39 64
        E 0 98 39 64
        E 0 9d 2d 64
        E 406 87 39 64
        E 0 8e 39 64
        E 0 88 39 64
        E 0 8d 2d 64
        E 0 97 39 64
        E 0 9e 39 64
        E 0 98 39 64
        E 1 9d 2d 64
        E 409 87 39 64
        E 0 8e 39 64
        E 0 88 39 64
        E 0 8d 2d 64
        E 1 97 45 64
        E 0 9e 45 64
        E 0 98 45 64
        E 0 9d 39 64
        E 407 87 45 64
        E 0 8e 45 64
        E 0 88 45 64
        E 0 8d 39 64
        E 0 97 39 64
        E 0 9e 39 64
        E 0 98 39 64
        E 0 9d 2d 64
        E 409 87 39 64
        E 0 8e 39 64
        E 0 88 39 64
        E 0 8d 2d 64
        E 0 97 39 64
        E 0 9e 39 64
        E 1 98 39 64
        E 0 9d 2d 64
        E 407 87 39 64
        E 0 8e 39 64
        E 0 88 39 64
        E 0 8d 2d 64
        E 0 97 39 64
        E 1 9e 39 64
        E 0 98 39 64
        E 0 9d 2d 64
        E 816 87 39 64
        E 0 8e 39 64
        E 0 88 39 64
        E 0 8d 2d 64
        E 818 97 39 64
        E 0 9e 39 64
        E 0 98 39 64
        E 0 9d 2d 64
        E 408 87 39 64
        E 0 8e 39 64
        E 0 88 39 64
        E 0 8d 2d 64
        E 0 97 45 64
        E 0 9e 45 64
        E 0 98 45 64
        E 0 9d 39 64
        E 409 87 45 64
        E 0 8e 45 64
        E 0 88 45 64
        E 0 8d 39 64
        E 0 97 39 64
        E 0 9e 39 64
        E 0 98 39 64
        E 0 9d 2d 64
        E 407 87 39 64
        E 0 8e 39 64
        E 0 88 39 64
        E 0 8d 2d 64
        E 1 97 39 64
        E 0 9e 39 64
        E 0 98 39 64
        E 0 9d 2d 64
        E 410 87 39 64
        E 3 8e 39 64
        E 0 88 39 64
        E 0 8d 2d 64
        E 0 97 39 64
        E 0 9e 39 64
        E 0 98 39 64
        E 0 9d 2d 64
        E 403 87 39 64
        E 0 8e 39 64
        E 0 88 39 64
        E 0 8d 2d 64
        E 1 97 45 64
        E 1 9e 45 64
        E 1 98 45 64
        E 0 9d 39 64
        E 406 87 45 64
        E 1 8e 45 64
        E 0 88 45 64
        E 0 8d 39 64
        E 0 97 39 64
        E 0 9e 39 64
        E 0 98 39 64
        E 0 9d 2d 64
        E 410 87 39 64
        E 0 8e 39 64
        E 0 88 39 64
        E 0 8d 2d 64
        E 0 97 39 64
        E 0 9e 39 64
        E 1 98 39 64
        E 0 9d 2d 64
        E 408 87 39 64
        E 1 8e 39 64
        E 0 88 39 64
        E 0 8d 2d 64
        E 0 97 39 64
        E 0 9e 39 64
        E 1 98 39 64
        E 0 9d 2d 64
        E 403 87 39 64
        E 0 8e 39 64
        E 0 88 39 64
        E 0 8d 2d 64
        E 0 97 45 64
        E 0 9e 45 64
        E 0 98 45 64
        E 0 9d 39 64
        E 409 87 45 64
        E 0 8e 45 64
        E 0 88 45 64
        E 0 8d 39 64
        E 0 97 39 64
        E 0 9e 39 64
        E 0 98 39 64
        E 0 9d 2d 64
        E 410 87 39 64
        E 0 8e 39 64
        E 0 88 39 64
        E 0 8d 2d 64
        E 0 97 39 64
        E 0 9e 39 64
        E 0 98 39 64
        E 0 9d 2d 64
        E 409 87 39 64
        E 0 8e 39 64
        E 0 88 39 64
        E 0 8d 2d 64
        E 0 97 39 64
        E 0 9e 39 64
        E 0 98 39 64
        E 0 9d 2d 64
        E 406 87 39 64
        E 0 8e 39 64
        E 0 88 39 64
        E 0 8d 2d 64
        E 0 97 45 64
        E 0 9e 45 64
        E 0 98 45 64
        E 0 9d 39 64
        E 410 87 45 64
        E 0 8e 45 64
        E 0 88 45 64
        E 0 8d 39 64
        E 0 97 39 64
        E 0 9e 39 64
        E 0 98 39 64
        E 0 9d 2d 64
        E 410 87 39 64
        E 0 8e 39 64
        E 0 88 39 64
        E 0 8d 2d 64
        E 0 97 39 64
        E 1 9e 39 64
        E 0 98 39 64
        E 0 9d 2d 64
        E 406 87 39 64
        E 0 8e 39 64
        E 0 88 39 64
        E 0 8d 2d 64
        E 0 97 39 64
        E 0 9e 39 64
        E 0 98 39 64
        E 0 9d 2d 64
        E 407 87 39 64
        E 0 8e 39 64
        E 0 88 39 64
        E 0 8d 2d 64
        E 0 97 45 64
        E 0 9e 45 64
        E 0 98 45 64
        E 1 9d 39 64
        E 410 87 45 64
        E 0 8e 45 64
        E 0 88 45 64
        E 0 8d 39 64
        E 1 97 39 64
        E 0 9e 39 64
        E 0 98 39 64
        E 0 9d 2d 64
        E 406 87 39 64
        E 0 8e 39 64
        E 0 88 39 64
        E 0 8d 2d 64
        E 0 97 39 64
        E 0 9e 39 64
        E 0 98 39 64
        E 0 9d 2d 64
        E 409 87 39 64
        E 0 8e 39 64
        E 0 88 39 64
        E 0 8d 2d 64
        E 0 97 39 64
        E 0 9e 39 64
        E 3 98 39 64
        E 0 9d 2d 64
        E 409 87 39 64
        E 0 8e 39 64
        E 0 88 39 64
        E 0 8d 2d 64
        E 0 97 45 64
        E 1 9e 45 64
        E 0 98 45 64
        E 0 9d 39 64
        E 404 87 45 64
        E 0 8e 45 64
        E 0 88 45 64
        E 0 8d 39 64
        E 0 97 39 64
        E 0 9e 39 64
        E 0 98 39 64
        E 0 9d 2d 64
        E 408 87 39 64
        E 0 8e 39 64
        E 0 88 39 64
        E 0 8d 2d 64
        E 0 97 39 64
        E 0 9e 39 64
        E 0 98 39 64
        E 0 9d 2d 64
        E 409 87 39 64
        E 0 8e 39 64
        E 0 88 39 64
        E 0 8d 2d 64
        E 1 97 39 64
        E 0 9e 39 64
        E 0 98 39 64
        E 0 9d 2d 64
        E 816 87 39 64
        E 0 8e 39 64
        E 0 88 39 64
        E 0 8d 2d 64
        E 817 94 4a 64
        E 0 95 45 64
        E 0 97 42 64
        E 0 9e 3e 64
        E 0 98 39 64
        E 0 9d 32 64
        E 408 84 4a 64
        E 0 85 45 64
        E 0 87 42 64
        E 0 8e 3e 64
        E 0 88 39 64
        E 0 8d 32 64
        E 1 94 4a 64
        E 0 95 45 64
        E 0 97 4a 64
        E 0 9e 45 64
        E 0 98 42 64
        E 0 9d 3e 64
        E 407 84 4a 64
        E 1 85 45 64
        E 0 87 4a 64
        E 0 8e 45 64
        E 0 88 42 64
        E 0 8d 3e 64
        E 0 94 4a 64
        E 0 95 45 64
        E 0 97 42 64
        E 0 9e 3e 64
        E 0 98 39 64
        E 0 9d 32 64
        E 408 84 4a 64
        E 0 85 45 64
        E 0 87 42 64
        E 0 8e 3e 64
        E 0 88 39 64
        E 0 8d 32 64
        E 0 94 4a 64
        E 0 95 45 64
        E 0 97 42 64
        E 0 9e 3e 64
        E 0 98 39 64
        E 0 9d 32 64
        E 410 84 4a 64
        E 1 85 45 64
        E 0 87 42 64
        E 0 8e 3e 64
        E 0 88 39 64
        E 0 8d 32 64
        E 0 94 4a 64
        E 0 95 45 64
        E 0 97 42 64
        E 0 9e 3e 64
        E 0 98 39 64
        E 0 9d 32 64
        E 407 87 42 64
        E 0 8e 3e 64
        E 0 88 39 64
        E 0 8d 32 64
        E 0 97 4a 64
        E 0 9e 45 64
        E 0 98 42 64
        E 0 9d 3e 64
        E 2109 84 4a 64
        E 0 85 45 64
        E 0 87 4a 64
        E 0 8e 45 64
        E 0 88 42 64
        E 0 8d 3e 64
        E 0 97 42 64
        E 0 9e 3e 64
        E 0 98 3e 64
        E 0 9d 32 64
        E 0 87 42 64
        E 0 8e 3e 64
        E 0 88 3e 64
        E 0 8d 32 64
        E 0 97 42 64
        E 0 9e 3e 64
        E 0 98 3e 64
        E 0 9d 32 64
        E 0 87 42 64
        E 0 8e 3e 64
        E 0 88 3e 64
        E 0 8d 32 64
        E 0 94 4a 64
        E 0 95 47 64
        E 0 97 43 64
        E 1 9e 3e 64
        E 0 98 3e 64
        E 0 9d 2b 64
        E 0 84 4a 64
        E 0 85 47 64
        E 0 87 43 64
        E 0 8e 3e 64
        E 0 88 3e 64
        E 0 8d 2b 64
        E 0 94 4a 64
        E 0 95 47 64
        E 0 97 4a 64
        E 0 9e 47 64
        E 0 98 43 64
        E 0 9d 37 64
        E 0 84 4a 64
        E 0 85 47 64
        E 0 87 4a 64
        E 0 8e 47 64
        E 0 88 43 64
        E 0 8d 37 64
        E 0 94 4a 64
        E 0 95 47 64
        E 0 97 43 64
        E 0 9e 3e 64
        E 0 98 3b 64
        E 0 9d 2b 64
        E 19228 84 4a 64
        E 0 85 47 64
        E 0 87 43 64
        E 0 8e 3e 64
        E 0 88 3b 64
        E 0 8d 2b 64
        E 0 94 4a 64
        E 0 95 47 64
        E 0 97 43 64
        E 0 9e 3e 64
        E 0 98 3b 64
        E 0 9d 2b 64
        E 0 84 4a 64
        E 0 85 47 64
        E 0 87 43 64
        E 0 8e 3e 64
        E 0 88 3b 64
        E 0 8d 2b 64
        E 0 94 4a 64
        E 0 95 47 64
        E 0 97 43 64
        E 0 9e 3e 64
        E 0 98 3b 64
        E 0 9d 2b 64
        E 0 87 43 64
        E 0 8e 3e 64
        E 0 88 3b 64
        E 0 8d 2b 64
        E 0 97 4a 64
        E 0 9e 47 64
        E 0 98 43 64
        E 0 9d 37 64
        E 0 84 4a 64
        E 0 85 47 64
        E 0 87 4a 64
        E 0 8e 47 64
        E 0 88 43 64
        E 0 8d 37 64
        E 0 97 43 64
        E 0 9e 3e 64
        E 0 98 3b 64
        E 1 9d 2b 64
        E 0 87 43 64
        E 0 8e 3e 64
        E 0 88 3b 64
        E 0 8d 2b 64
        E 0 97 43 64
        E 0 9e 3e 64
        E 0 98 3b 64
        E 0 9d 2b 64
        E 0 87 43 64
        E 0 8e 3e 64
        E 0 88 3b 64
        E 0 8d 2b 64
        E 0 94 4c 64
        E 0 95 47 64
        E 0 97 44 64
        E 0 9e 40 64
        E 0 98 3b 64
        E 0 9d 34 64
        E 0 84 4c 64
        E 0 85 47 64
        E 0 87 44 64
        E 0 8e 40 64
        E 0 88 3b 64
        E 0 8d 34 64
        E 0 94 4c 64
        E 0 95 47 64
        E 0 97 4c 64
        E 0 9e 47 64
        E 0 98 44 64
        E 0 9d 40 64
        E 0 84 4c 64
        E 0 85 47 64
        E 0 87 4c 64
        E 0 8e 47 64
        E 0 88 44 64
        E 0 8d 40 64
        E 0 94 4c 64
        E 0 95 47 64
        E 0 97 44 64
        E 0 9e 40 64
        E 0 98 3b 64
        E 0 9d 34 64
        E 0 84 4c 64
        E 0 85 47 64
        E 1 87 44 64
        E 0 8e 40 64
        E 0 88 3b 64
        E 0 8d 34 64
        E 0 94 4c 64
        E 0 95 47 64
        E 0 97 44 64
        E 0 9e 40 64
        E 0 98 3b 64
        E 0 9d 34 64
        E 0 84 4c 64
        E 0 85 47 64
        E 0 87 44 64
        E 0 8e 40 64
        E 0 88 3b 64
        E 0 8d 34 64
        E 0 94 4c 64
        E 0 95 47 64
        E 0 97 44 64
        E 0 9e 40 64
        E 0 98 3b 64
        E 0 9d 34 64
        E 0 87 44 64
        E 0 8e 40 64
        E 0 88 3b 64
        E 0 8d 34 64
        E 0 97 4c 64
        E 0 9e 47 64
        E 0 98 44 64
        E 0 9d 40 64
        E 0 84 4c 64
        E 0 85 47 64
        E 0 87 4c 64
        E 0 8e 47 64
        E 0 88 44 64
        E 0 8d 40 64
        E 0 97 44 64
        E 0 9e 40 64
        E 0 98 40 64
        E 0 9d 34 64
        E 0 87 44 64
        E 0 8e 40 64
        E 0 88 40 64
        E 0 8d 34 64
        E 0 97 44 64
        E 0 9e 40 64
        E 0 98 40 64
        E 1 9d 34 64
        E 0 87 44 64
        E 0 8e 40 64
        E 0 88 40 64
        E 0 8d 34 64
        E 0 94 4c 64
        E 0 95 49 64
        E 0 97 45 64
        E 0 9e 40 64
        E 0 98 40 64
        E 0 9d 2d 64
        E 0 84 4c 64
        E 0 85 49 64
        E 0 87 45 64
        E 0 8e 40 64
        E 0 88 40 64
        E 0 8d 2d 64
        E 0 94 4c 64
        E 0 95 49 64
        E 0 97 4c 64
        E 0 9e 49 64
        E 0 98 45 64
        E 0 9d 39 64
        E 0 84 4c 64
        E 0 85 49 64
        E 0 87 4c 64
        E 0 8e 49 64
        E 0 88 45 64
        E 0 8d 39 64
        E 0 94 4c 64
        E 0 95 49 64
        E 0 97 45 64
        E 0 9e 40 64
        E 0 98 3d 64
        E 0 9d 2d 64
        E 0 84 4c 64
        E 0 85 49 64
        E 0 87 45 64
        E 0 8e 40 64
        E 0 88 3d 64
        E 0 8d 2d 64
        E 0 94 4c 64
        E 0 95 49 64
        E 0 97 45 64
        E 1 9e 40 64
        E 0 98 3d 64
        E 0 9d 2d 64
        E 0 84 4c 64
        E 0 85 49 64
        E 0 87 45 64
        E 0 8e 40 64
        E 0 88 3d 64
        E 0 8d 2d 64
        E 0 94 4c 64
        E 0 95 49 64
        E 0 97 45 64
        E 0 9e 40 64
        E 0 98 3d 64
        E 0 9d 2d 64
        E 0 87 45 64
        E 0 8e 40 64
        E 0 88 3d 64
        E 0 8d 2d 64
        E 0 97 4c 64
        E 1 9e 49 64
        E 0 98 45 64
        E 0 9d 39 64
        E 0 84 4c 64
        E 0 85 49 64
        E 0 87 4c 64
        E 0 8e 49 64
        E 0 88 45 64
        E 0 8d 39 64
        E 0 97 45 64
        E 0 9e 40 64
        E 0 98 3d 64
        E 0 9d 2d 64
        E 0 87 45 64
        E 0 8e 40 64
        E 0 88 3d 64
        E 0 8d 2d 64
        E 0 97 45 64
        E 0 9e 40 64
        E 0 98 3d 64
        E 1 9d 2d 64
        E 0 87 45 64
        E 0 8e 40 64
        E 0 88 3d 64
        E 0 8d 2d 64
        E 0 94 4e 64
        E 0 95 49 64
        E 0 97 46 64
        E 0 9e 42 64
        E 0 98 3d 64
        E 0 9d 36 64
        E 0 84 4e 64
        E 0 85 49 64
        E 0 87 46 64
        E 0 8e 42 64
        E 0 88 3d 64
        E 0 8d 36 64
        E 0 94 4e 64
        E 0 95 49 64
        E 0 97 4e 64
        E 0 9e 49 64
        E 0 98 46 64
        E 1 9d 3a 64
        E 0 84 4e 64
        E 0 85 49 64
        E 0 87 4e 64
        E 0 8e 49 64
        E 0 88 46 64
        E 0 8d 3a 64
        E 0 94 4e 64
        E 0 95 49 64
        E 0 97 46 64
        E 0 9e 42 64
        E 0 98 3d 64
        E 0 9d 36 64
        E 0 84 4e 64
        E 0 85 49 64
        E 0 87 46 64
        E 0 8e 42 64
        E 0 88 3d 64
        E 0 8d 36 64
        E 2 94 4e 64
        E 0 95 49 64
        E 0 97 46 64
        E 0 9e 42 64
        E 0 98 3d 64
        E 1 9d 36 64
        E 0 84 4e 64
        E 0 85 49 64
        E 0 87 46 64
        E 0 8e 42 64
        E 0 88 3d 64
        E 0 8d 36 64
        E 0 94 4e 64
        E 0 95 49 64
        E 0 97 46 64
        E 0 9e 42 64
        E 0 98 3d 64
        E 0 9d 36 64
        E 0 87 46 64
        E 0 8e 42 64
        E 0 88 3d 64
        E 0 8d 36 64
        E 0 97 4e 64
        E 0 9e 49 64
        E 1 98 46 64
        E 0 9d 3a 64
        E 0 84 4e 64
        E 0 85 49 64
        E 0 87 4e 64
        E 0 8e 49 64
        E 0 88 46 64
        E 0 8d 3a 64
        E 0 97 46 64
        E 0 9e 42 64
        E 0 98 42 64
        E 0 9d 36 64
        E 0 87 46 64
        E 0 8e 42 64
        E 0 88 42 64
        E 0 8d 36 64
        E 0 97 46 64
        E 7 9e 42 64
        E 3 98 42 64
        E 1 9d 36 64
        E 0 87 46 64
        E 0 8e 42 64
        E 0 88 42 64
        E 0 8d 36 64
        E 0 94 4e 64
        E 0 95 4a 64
        E 0 97 47 64
        E 0 9e 4a 64
        E 0 98 42 64
        E 0 9d 36 64
        E 0 84 4e 64
        E 0 85 4a 64
        E 0 87 47 64
        E 0 8e 4a 64
        E 0 88 42 64
        E 0 8d 36 64
        E 0 94 4e 64
        E 0 95 4a 64
        E 0 97 53 64
        E 1 9e 4e 64
        E 0 98 4a 64
        E 0 9d 3b 64
        E 0 84 4e 64
        E 1 85 4a 64
        E 0 87 53 64
        E 0 8e 4e 64
        E 0 88 4a 64
        E 0 8d 3b 64
        E 0 94 4e 64
        E 0 95 4a 64
        E 2 97 47 64
        E 0 9e 4a 64
        E 1 98 42 64
        E 0 9d 36 64
        E 0 84 4e 64
        E 0 85 4a 64
        E 0 87 47 64
        E 0 8e 4a 64
        E 0 88 42 64
        E 0 8d 36 64
        E 0 94 4e 64
        E 0 95 4a 64
        E 0 97 47 64
        E 0 9e 4a 64
        E 1 98 42 64
        E 0 9d 36 64
        E 0 84 4e 64
        E 0 85 4a 64
        E 0 87 47 64
        E 0 8e 4a 64
        E 0 88 42 64
        E 0 8d 36 64
        E 0 94 4e 64
        E 0 95 4a 64
        E 0 97 47 64
        E 0 9e 4a 64
        E 0 98 42 64
        E 0 9d 36 64
        E 0 87 47 64
        E 0 8e 4a 64
        E 0 88 42 64
        E 0 8d 36 64
        E 0 97 53 64
        E 0 9e 4e 64
        E 0 98 4a 64
        E 0 9d 3b 64
        E 0 84 4e 64
        E 0 85 4a 64
        E 0 87 53 64
        E 0 8e 4e 64
        E 0 88 4a 64
        E 0 8d 3b 64
        E 0 97 47 64
        E 1 9e 4a 64
        E 0 98 42 64
        E 0 9d 36 64
        E 0 87 47 64
        E 0 8e 4a 64
        E 0 88 42 64
        E 0 8d 36 64
        E 0 97 47 64
        E 0 9e 4a 64
        E 0 98 42 64
        E 0 9d 36 64
        E 0 87 47 64
        E 0 8e 4a 64
        E 0 88 42 64
        E 0 8d 36 64
        E 1 94 4e 64
        E 1 95 49 64
        E 0 97 47 64
        E 0 9e 49 64
        E 0 98 42 64
        E 0 9d 36 64
        E 0 84 4e 64
        E 0 85 49 64
        E 0 87 47 64
        E 0 8e 49 64
        E 0 88 42 64
        E 0 8d 36 64
        E 1 94 4e 64
        E 0 95 49 64
        E 0 97 53 64
        E 0 9e 4e 64
        E 0 98 49 64
        E 0 9d 3b 64
        E 0 84 4e 64
        E 0 85 49 64
        E 0 87 53 64
        E 0 8e 4e 64
        E 0 88 49 64
        E 0 8d 3b 64
        E 0 94 4e 64
        E 0 95 49 64
        E 0 97 47 64
        E 0 9e 49 64
        E 0 98 42 64
        E 0 9d 36 64
        E 0 84 4e 64
        E 0 85 49 64
        E 0 87 47 64
        E 0 8e 49 64
        E 0 88 42 64
        E 0 8d 36 64
        E 0 94 4e 64
        E 0 95 49 64
        E 0 97 47 64
        E 0 9e 49 64
        E 0 98 42 64
        E 0 9d 36 64
        E 0 84 4e 64
        E 0 85 49 64
        E 0 87 47 64
        E 0 8e 49 64
        E 0 88 42 64
        E 0 8d 36 64
        E 0 94 4e 64
        E 0 95 49 64
        E 0 97 46 64
        E 0 9e 49 64
        E 0 98 42 64
        E 0 9d 36 64
        E 0 84 4e 64
        E 0 85 49 64
        E 0 87 46 64
        E 0 8e 49 64
        E 0 88 42 64
        E 0 8d 36 64
        E 0 94 4e 64
        E 0 95 49 64
        E 0 97 52 64
        E 0 9e 4e 64
        E 0 98 49 64
        E 1 9d 3a 64
        E 0 84 4e 64
        E 0 85 49 64
        E 0 87 52 64
        E 0 8e 4e 64
        E 0 88 49 64
        E 0 8d 3a 64
        E 0 94 4e 64
        E 0 95 49 64
        E 0 97 46 64
        E 0 9e 49 64
        E 0 98 42 64
        E 0 9d 36 64
        E 0 84 4e 64
        E 0 85 49 64
        E 0 87 46 64
        E 0 8e 49 64
        E 0 88 42 64
        E 0 8d 36 64
        E 0 94 4e 64
        E 0 95 49 64
        E 0 97 46 64
        E 0 9e 49 64
        E 0 98 42 64
        E 0 9d 36 64
        E 0 84 4e 64
        E 0 85 49 64
        E 0 87 46 64
        E 0 8e 49 64
        E 0 88 42 64
        E 0 8d 36 64
        E 0 94 4e 64
        E 0 95 4a 64
        E 0 97 47 64
        E 0 9e 4a 64
        E 0 98 42 64
        E 0 9d 2f 64
        E 0 87 47 64
        E 0 8e 4a 64
        E 0 88 42 64
        E 0 8d 2f 64
        E 0 97 47 64
        E 0 9e 47 64
        E 0 98 47 64
        E 0 9d 3b 64
        E 19204 84 4e 64
        E 0 85 4a 64
        E 0 87 47 64
        E 0 8e 47 64
        E 0 88 47 64
        E 0 8d 3b 64
        E 0 97 3b 64
        E 0 9e 3b 64
        E 0 98 3b 64
        E 0 9d 2f 64
        E 0 87 3b 64
        E 0 8e 3b 64
        E 0 88 3b 64
        E 0 8d 2f 64
        E 0 97 3b 64
        E 0 9e 3b 64
        E 0 98 3b 64
        E 0 9d 2f 64
        E 0 87 3b 64
        E 0 8e 3b 64
        E 0 88 3b 64
        E 0 8d 2f 64
        E 0 97 3b 64
        E 0 9e 3b 64
        E 0 98 3b 64
        E 0 9d 2f 64
        E 0 87 3b 64
        E 0 8e 3b 64
        E 0 95 4a 64
        E 0 97 4a 64
        E 0 9e 47 64
        E 0 85 4a 64
        E 0 87 4a 64
        E 0 8e 47 64
        E 0 95 4c 64
        E 0 97 4c 64
        E 0 9e 49 64
        E 0 85 4c 64
        E 0 87 4c 64
        E 0 8e 49 64
        E 0 88 3b 64
        E 0 8d 2f 64
        E 0 95 4e 64
        E 0 97 4e 64
        E 0 9e 4a 64
        E 0 85 4e 64
        E 0 87 4e 64
        E 0 8e 4a 64
        E 0 95 4c 64
        E 0 97 4c 64
        E 0 9e 49 64
        E 0 85 4c 64
        E 0 87 4c 64
        E 0 8e 49 64
        E 0 95 4e 64
        E 0 97 4e 64
        E 0 9e 4a 64
        E 0 85 4e 64
        E 0 87 4e 64
        E 0 8e 4a 64
        E 0 95 4c 64
        E 0 97 4c 64
        E 0 9e 49 64
        E 0 85 4c 64
        E 0 87 4c 64
        E 0 8e 49 64
        E 0 95 4a 64
        E 0 97 4a 64
        E 1 9e 47 64
        E 0 85 4a 64
        E 0 87 4a 64
        E 0 8e 47 64
        E 0 95 4a 64
        E 0 97 4a 64
        E 0 9e 47 64
        E 0 85 4a 64
        E 0 87 4a 64
        E 0 8e 47 64
        E 0 95 4c 64
        E 0 97 4c 64
        E 0 9e 49 64
        E 0 85 4c 64
        E 0 87 4c 64
        E 0 8e 49 64
        E 0 95 4e 64
        E 0 97 4e 64
        E 0 9e 4a 64
        E 0 85 4e 64
        E 0 87 4e 64
        E 0 8e 4a 64
        E 0 95 4c 64
        E 0 97 4c 64
        E 0 9e 49 64
        E 0 85 4c 64
        E 0 87 4c 64
        E 0 8e 49 64
        E 0 95 4e 64
        E 0 97 4e 64
        E 0 9e 4a 64
        E 0 85 4e 64
        E 0 87 4e 64
        E 0 8e 4a 64
        E 0 95 4c 64
        E 0 97 4c 64
        E 0 9e 49 64
        E 0 85 4c 64
        E 0 87 4c 64
        E 0 8e 49 64
        E 0 95 4a 64
        E 0 97 4a 64
        E 0 9e 47 64
        E 0 98 42 64
        E 0 9d 2f 64
        E 0 85 4a 64
        E 0 87 4a 64
        E 0 8e 47 64
        E 0 95 4a 64
        E 0 97 4a 64
        E 0 9e 47 64
        E 0 85 4a 64
        E 0 87 4a 64
        E 0 8e 47 64
        E 0 95 4c 64
        E 0 97 4c 64
        E 0 9e 49 64
        E 0 85 4c 64
        E 0 87 4c 64
        E 0 8e 49 64
        E 0 88 42 64
        E 0 8d 2f 64
        E 0 95 4e 64
        E 0 97 4e 64
        E 0 9e 4a 64
        E 0 85 4e 64
        E 0 87 4e 64
        E 0 8e 4a 64
        E 0 95 4c 64
        E 1 97 4c 64
        E 0 9e 49 64
        E 0 85 4c 64
        E 0 87 4c 64
        E 0 8e 49 64
        E 0 95 4e 64
        E 0 97 4e 64
        E 0 9e 4a 64
        E 0 85 4e 64
        E 0 87 4e 64
        E 0 8e 4a 64
        E 0 95 4c 64
        E 0 97 4c 64
        E 0 9e 49 64
        E 0 85 4c 64
        E 0 87 4c 64
        E 0 8e 49 64
        E 0 95 4a 64
        E 0 97 4a 64
        E 0 9e 47 64
        E 1 85 4a 64
        E 0 87 4a 64
        E 0 8e 47 64
        E 0 95 4a 64
        E 0 97 4a 64
        E 0 9e 47 64
        E 0 85 4a 64
        E 0 87 4a 64
        E 0 8e 47 64
        E 0 95 4c 64
        E 0 97 4c 64
        E 0 9e 49 64
        E 0 85 4c 64
        E 1 87 4c 64
        E 0 8e 49 64
        E 3 95 4e 64
        E 1 97 4e 64
        E 7 9e 4a 64
        E 0 85 4e 64
        E 1 87 4e 64
        E 0 8e 4a 64
        E 0 95 4c 64
        E 0 97 4c 64
        E 0 9e 49 64
        E 0 85 4c 64
        E 0 87 4c 64
        E 0 8e 49 64
        E 0 95 4e 64
        E 0 97 4e 64
        E 0 9e 4a 64
        E 0 85 4e 64
        E 0 87 4e 64
        E 0 8e 4a 64
        E 0 95 4c 64
        E 0 97 4c 64
        E 0 9e 49 64
        E 0 85 4c 64
        E 0 87 4c 64
        E 0 8e 49 64
        E 0 95 4a 64
        E 0 97 4a 64
        E 0 9e 47 64
        E 0 98 42 64
        E 0 9d 2f 64
        E 0 85 4a 64
        E 0 87 4a 64
        E 0 8e 47 64
        E 0 88 42 64
        E 0 8d 2f 64
        E 0 95 4a 64
        E 0 97 4a 64
        E 0 9e 47 64
        E 1 98 42 64
        E 0 9d 3b 64
        E 0 85 4a 64
        E 0 87 4a 64
        E 0 8e 47 64
        E 0 88 42 64
        E 0 8d 3b 64
        E 0 95 42 64
        E 0 97 42 64
        E 0 9e 3e 64
        E 0 98 3b 64
        E 0 9d 2f 64
        E 0 85 42 64
        E 0 87 42 64
        E 0 8e 3e 64
        E 0 88 3b 64
        E 0 8d 2f 64
        E 0 95 42 64
        E 0 97 42 64
        E 0 9e 3e 64
        E 0 98 3b 64
        E 0 9d 2f 64
        E 0 85 42 64
        E 0 87 42 64
        E 0 8e 3e 64
        E 0 88 3b 64
        E 0 8d 2f 64
        E 0 95 42 64
        E 0 97 42 64
        E 0 9e 3e 64
        E 0 98 3b 64
        E 0 9d 2f 64
        E 0 85 42 64
        E 0 87 42 64
        E 0 8e 3e 64
        E 0 88 3b 64
        E 0 8d 2f 64
        E 0 95 4a 64
        E 1 97 4a 64
        E 0 9e 47 64
        E 0 98 42 64
        E 0 9d 3b 64
        E 0 85 4a 64
        E 0 87 4a 64
        E 0 8e 47 64
        E 0 88 42 64
        E 0 8d 3b 64
        E 0 95 42 64
        E 0 97 42 64
        E 0 9e 3e 64
        E 0 98 3b 64
        E 0 9d 2f 64
        E 0 85 42 64
        E 0 87 42 64
        E 0 8e 3e 64
        E 0 88 3b 64
        E 0 8d 2f 64
        E 0 95 42 64
        E 0 97 42 64
        E 0 9e 3e 64
        E 0 98 3b 64
        E 0 9d 2f 64
        E 0 85 42 64
        E 0 87 42 64
        E 0 8e 3e 64
        E 0 88 3b 64
        E 0 8d 2f 64
        E 0 95 42 64
        E 0 97 42 64
        E 0 9e 3f 64
        E 0 98 3b 64
        E 0 9d 2d 64
        E 0 85 42 64
        E 0 87 42 64
        E 0 8e 3f 64
        E 0 88 3b 64
        E 0 8d 2d 64
        E 0 95 4b 64
        E 0 97 4b 64
        E 0 9e 47 64
        E 0 98 42 64
        E 0 9d 39 64
        E 0 85 4b 64
        E 0 87 4b 64
        E 0 8e 47 64
        E 0 88 42 64
        E 0 8d 39 64
        E 0 95 42 64
        E 0 97 42 64
        E 0 9e 3f 64
        E 0 98 3b 64
        E 0 9d 2d 64
        E 0 85 42 64
        E 0 87 42 64
        E 0 8e 3f 64
        E 0 88 3b 64
        E 0 8d 2d 64
        E 0 95 42 64
        E 0 97 42 64
        E 0 9e 3f 64
        E 0 98 3b 64
        E 1 9d 2d 64
        E 0 85 42 64
        E 0 87 42 64
        E 0 8e 3f 64
        E 0 88 3b 64
        E 0 8d 2d 64
        E 0 95 42 64
        E 0 97 42 64
        E 0 9e 3f 64
        E 0 98 3b 64
        E 0 9d 2d 64
        E 0 85 42 64
        E 0 87 42 64
        E 0 8e 3f 64
        E 0 88 3b 64
        E 0 8d 2d 64
        E 0 95 4b 64
        E 0 97 4b 64
        E 0 9e 47 64
        E 0 98 42 64
        E 1 9d 39 64
        E 0 85 4b 64
        E 0 87 4b 64
        E 0 8e 47 64
        E 0 88 42 64
        E 0 8d 39 64
        E 0 95 42 64
        E 0 97 42 64
        E 0 9e 3f 64
        E 0 98 3b 64
        E 0 9d 2d 64
        E 0 85 42 64
        E 0 87 42 64
        E 0 8e 3f 64
        E 0 88 3b 64
        E 0 8d 2d 64
        E 0 95 42 64
        E 0 97 42 64
        E 0 9e 3f 64
        E 0 98 3b 64
        E 0 9d 2d 64
        E 0 85 42 64
        E 0 87 42 64
        E 0 8e 3f 64
        E 0 88 3b 64
        E 0 8d 2d 64
        E 0 95 43 64
        E 0 97 43 64
        E 0 9e 40 64
        E 0 98 3b 64
        E 0 9d 2b 64
        E 0 85 43 64
        E 0 87 43 64
        E 0 8e 40 64
        E 0 88 3b 64
        E 0 8d 2b 64
        E 0 95 4c 64
        E 0 97 4c 64
        E 0 9e 47 64
        E 0 98 43 64
        E 0 9d 37 64
        E 0 85 4c 64
        E 0 87 4c 64
        E 0 8e 47 64
        E 0 88 43 64
        E 0 8d 37 64
        E 0 95 43 64
        E 0 97 43 64
        E 0 9e 40 64
        E 0 98 3b 64
        E 0 9d 2b 64
        E 0 85 43 64
        E 0 87 43 64
        E 0 8e 40 64
        E 0 88 3b 64
        E 0 8d 2b 64
        E 0 95 43 64
        E 0 97 43 64
        E 0 9e 40 64
        E 0 98 3b 64
        E 0 9d 2b 64
        E 0 85 43 64
        E 0 87 43 64
        E 0 8e 40 64
        E 0 88 3b 64
        E 0 8d 2b 64
        E 0 95 43 64
        E 0 97 43 64
        E 0 9e 40 64
        E 0 98 3b 64
        E 0 9d 2b 64
        E 0 85 43 64
        E 0 87 43 64
        E 0 8e 40 64
        E 0 88 3b 64
        E 0 8d 2b 64
        E 0 95 4c 64
        E 0 97 4c 64
        E 0 9e 47 64
        E 0 98 43 64
        E 1 9d 37 64
        E 0 85 4c 64
        E 0 87 4c 64
        E 0 8e 47 64
        E 0 88 43 64
        E 0 8d 37 64
        E 0 95 43 64
        E 0 97 43 64
        E 0 9e 40 64
        E 0 98 3b 64
        E 0 9d 2b 64
        E 0 85 43 64
        E 0 87 43 64
        E 0 8e 40 64
        E 0 88 3b 64
        E 0 8d 2b 64
        E 0 95 43 64
        E 0 97 43 64
        E 0 9e 40 64
        E 0 98 3b 64
        E 0 9d 2b 64
        E 0 85 43 64
        E 0 87 43 64
        E 0 8e 40 64
        E 0 88 3b 64
        E 0 8d 2b 64
        E 0 95 44 64
        E 0 97 44 64
        E 0 9e 41 63
        E 0 98 3b 64
        E 0 9d 31 64
        E 0 85 44 64
        E 0 87 44 64
        E 0 8e 41 63
        E 0 88 3b 64
        E 0 8d 31 64
        E 0 95 4d 63
        E 0 97 4d 63
        E 0 9e 49 64
        E 0 98 44 64
        E 0 9d 3d 64
        E 0 85 4d 63
        E 0 87 4d 63
        E 0 8e 49 64
        E 0 88 44 64
        E 0 8d 3d 64
        E 0 95 44 64
        E 0 97 44 64
        E 0 9e 41 63
        E 0 98 3b 64
        E 0 9d 31 64
        E 0 85 44 64
        E 0 87 44 64
        E 0 8e 41 63
        E 0 88 3b 64
        E 0 8d 31 64
        E 0 95 44 64
        E 0 97 44 64
        E 0 9e 41 63
        E 0 98 3b 64
        E 0 9d 31 64
        E 0 85 44 64
        E 0 87 44 64
        E 0 8e 41 63
        E 0 88 3b 64
        E 0 8d 31 64
        E 0 95 44 64
        E 0 97 44 64
        E 0 9e 41 63
        E 0 98 3b 64
        E 1 9d 31 64
        E 3268 85 44 64
        E 0 87 44 64
        E 0 8e 41 63
        E 0 88 3b 64
        E 0 8d 31 64
        E 0 95 4d 63
        E 0 97 4d 63
        E 0 9e 49 64
        E 0 98 44 64
        E 0 9d 3d 64
        E 0 85 4d 63
        E 0 87 4d 63
        E 0 8e 49 64
        E 0 88 44 64
        E 0 8d 3d 64
        E 0 95 44 64
        E 0 97 44 64
        E 0 9e 41 63
        E 0 98 41 63
        E 0 9d 31 64
        E 0 85 44 64
        E 0 87 44 64
        E 0 8e 41 63
        E 0 88 41 63
        E 0 8d 31 64
        E 0 95 44 64
        E 0 97 44 64
        E 0 9e 41 63
        E 1 98 41 63
        E 0 9d 31 64
        E 0 85 44 64
        E 0 87 44 64
        E 0 8e 41 63
        E 0 88 41 63
        E 0 8d 31 64
        E 0 95 46 64
        E 0 97 46 64
        E 0 9e 42 64
        E 0 98 3d 64
        E 2 9d 2a 64
        E 0 85 46 64
        E 0 87 46 64
        E 0 8e 42 64
        E 0 88 3d 64
        E 0 8d 2a 64
        E 1 95 4e 64
        E 0 97 4e 64
        E 0 9e 49 64
        E 0 98 46 64
        E 0 9d 36 64
        E 0 85 4e 64
        E 0 87 4e 64
        E 0 8e 49 64
        E 0 88 46 64
        E 0 8d 36 64
        E 0 95 46 64
        E 0 97 46 64
        E 0 9e 42 64
        E 0 98 3d 64
        E 0 9d 2a 64
        E 0 85 46 64
        E 0 87 46 64
        E 0 8e 42 64
        E 0 88 3d 64
        E 0 8d 2a 64
        E 0 95 46 64
        E 0 97 46 64
        E 0 9e 42 64
        E 0 98 3d 64
        E 0 9d 2a 64
        E 0 85 46 64
        E 0 87 46 64
        E 0 8e 42 64
        E 0 88 3d 64
        E 0 8d 2a 64
        E 0 95 46 64
        E 1 97 46 64
        E 1 9e 42 64
        E 2 98 3d 64
        E 0 9d 2a 64
        E 19203 85 46 64
        E 0 87 46 64
        E 0 8e 42 64
        E 0 88 3d 64
        E 0 8d 2a 64
        E 0 95 4e 64
        E 0 97 4e 64
        E 0 9e 49 64
        E 0 98 46 64
        E 0 9d 36 64
        E 0 85 4e 64
        E 0 87 4e 64
        E 0 8e 49 64
        E 0 88 46 64
        E 0 8d 36 64
        E 0 95 46 64
        E 0 97 46 64
        E 0 9e 42 64
        E 0 98 3d 64
        E 0 9d 2a 64
        E 0 85 46 64
        E 0 87 46 64
        E 0 8e 42 64
        E 0 88 3d 64
        E 0 8d 2a 64
        E 0 95 46 64
        E 0 97 46 64
        E 0 9e 42 64
        E 0 98 3d 64
        E 1 9d 2a 64
        E 0 85 46 64
        E 0 87 46 64
        E 0 8e 42 64
        E 0 88 3d 64
        E 0 8d 2a 64
        E 0 95 45 64
        E 0 97 45 64
        E 0 9e 42 64
        E 0 98 3f 64
        E 0 9d 2a 64
        E 0 85 45 64
        E 0 87 45 64
        E 0 8e 42 64
        E 0 88 3f 64
        E 0 8d 2a 64
        E 0 95 4e 64
        E 0 97 4e 64
        E 0 9e 4b 64
        E 0 98 45 64
        E 0 9d 36 64
        E 0 85 4e 64
        E 0 87 4e 64
        E 0 8e 4b 64
        E 0 88 45 64
        E 0 8d 36 64
        E 0 95 45 64
        E 0 97 45 64
        E 0 9e 42 64
        E 0 98 3f 64
        E 0 9d 2a 64
        E 0 85 45 64
        E 0 87 45 64
        E 0 8e 42 64
        E 0 88 3f 64
        E 0 8d 2a 64
        E 0 95 45 64
        E 0 97 45 64
        E 0 9e 42 64
        E 0 98 3f 64
        E 0 9d 2a 64
        E 0 85 45 64
        E 0 87 45 64
        E 0 8e 42 64
        E 0 88 3f 64
        E 0 8d 2a 64
        E 0 95 45 64
        E 0 97 45 64
        E 0 9e 42 64
        E 1 98 3f 64
        E 0 9d 2a 64
        E 0 85 45 64
        E 0 87 45 64
        E 0 8e 42 64
        E 0 88 3f 64
        E 0 8d 2a 64
        E 0 95 4e 64
        E 0 97 4e 64
        E 0 9e 4b 64
        E 0 98 45 64
        E 0 9d 36 64
        E 0 85 4e 64
        E 0 87 4e 64
        E 0 8e 4b 64
        E 0 88 45 64
        E 0 8d 36 64
        E 0 95 45 64
        E 0 97 45 64
        E 0 9e 42 64
        E 0 98 3f 64
        E 0 9d 2a 64
        E 0 85 45 64
        E 0 87 45 64
        E 0 8e 42 64
        E 0 88 3f 64
        E 0 8d 2a 64
        E 0 95 45 64
        E 0 97 45 64
        E 0 9e 42 64
        E 0 98 3f 64
        E 0 9d 2a 64
        E 0 85 45 64
        E 0 87 45 64
        E 0 8e 42 64
        E 0 88 3f 64
        E 0 8d 2a 64
        E 0 95 45 64
        E 0 97 45 64
        E 0 9e 42 64
        E 0 98 3f 64
        E 0 9d 2a 64
        E 0 85 45 64
        E 0 87 45 64
        E 0 8e 42 64
        E 0 88 3f 64
        E 0 8d 2a 64
        E 0 95 4e 64
        E 0 97 4e 64
        E 0 9e 4b 64
        E 0 98 45 64
        E 1 9d 36 64
        E 0 85 4e 64
        E 0 87 4e 64
        E 0 8e 4b 64
        E 0 88 45 64
        E 0 8d 36 64
        E 0 95 45 64
        E 0 97 45 64
        E 0 9e 42 64
        E 0 98 3f 64
        E 0 9d 2a 64
        E 0 85 45 64
        E 0 87 45 64
        E 0 8e 42 64
        E 0 88 3f 64
        E 0 8d 2a 64
        E 0 95 45 64
        E 0 97 45 64
        E 0 9e 42 64
        E 0 98 3f 64
        E 0 9d 2a 64
        E 0 85 45 64
        E 0 87 45 64
        E 0 8e 42 64
        E 0 88 3f 64
        E 0 8d 2a 64
        E 0 95 45 64
        E 0 97 45 64
        E 0 9e 42 64
        E 0 98 3f 64
        E 0 9d 2a 64
        E 0 85 45 64
        E 0 87 45 64
        E 0 8e 42 64
        E 0 88 3f 64
        E 0 8d 2a 64
        E 0 95 4e 64
        E 0 97 4e 64
        E 0 9e 4b 64
        E 1 98 45 64
        E 0 9d 36 64
        E 0 85 4e 64
        E 0 87 4e 64
        E 0 8e 4b 64
        E 0 88 45 64
        E 0 8d 36 64
        E 0 95 45 64
        E 0 97 45 64
        E 0 9e 42 64
        E 0 98 3f 64
        E 0 9d 2a 64
        E 0 85 45 64
        E 0 87 45 64
        E 0 8e 42 64
        E 0 88 3f 64
        E 0 8d 2a 64
        E 0 95 45 64
        E 0 97 45 64
        E 0 9e 42 64
        E 0 98 3f 64
        E 0 9d 2a 64
        E 0 85 45 64
        E 0 87 45 64
        E 0 8e 42 64
        E 0 88 3f 64
        E 0 8d 2a 64
        E 0 95 44 64
        E 0 97 44 64
        E 0 9e 40 64
        E 0 98 40 64
        E 0 9d 31 64
        E 0 85 44 64
        E 0 87 44 64
        E 0 8e 40 64
        E 0 88 40 64
        E 0 8d 31 64
        E 0 95 4c 64
        E 0 97 4c 64
        E 0 9e 49 64
        E 0 98 44 64
        E 0 9d 3d 64
        E 0 85 4c 64
        E 0 87 4c 64
        E 0 8e 49 64
        E 0 88 44 64
        E 0 8d 3d 64
        E 1 95 44 64
        E 0 97 44 64
        E 0 9e 40 64
        E 0 98 40 64
        E 0 9d 31 64
        E 0 85 44 64
        E 0 87 44 64
        E 0 8e 40 64
        E 0 88 40 64
        E 0 8d 31 64
        E 0 95 44 64
        E 0 97 44 64
        E 0 9e 40 64
        E 0 98 40 64
        E 0 9d 31 64
        E 0 85 44 64
        E 0 87 44 64
        E 0 8e 40 64
        E 0 88 40 64
        E 0 8d 31 64
        E 0 95 44 64
        E 0 97 44 64
        E 0 9e 40 64
        E 0 98 40 64
        E 0 9d 31 64
        E 0 85 44 64
        E 0 87 44 64
        E 0 8e 40 64
        E 0 88 40 64
        E 0 8d 31 64
        E 0 95 4c 64
        E 0 97 4c 64
        E 0 9e 49 64
        E 0 98 44 64
        E 0 9d 3d 64
        E 0 85 4c 64
        E 0 87 4c 64
        E 0 8e 49 64
        E 0 88 44 64
        E 0 8d 3d 64
        E 1 95 44 64
        E 0 97 44 64
        E 0 9e 40 64
        E 0 98 40 64
        E 0 9d 31 64
        E 0 85 44 64
        E 0 87 44 64
        E 0 8e 40 64
        E 0 88 40 64
        E 0 8d 31 64
        E 0 95 44 64
        E 0 97 44 64
        E 0 9e 40 64
        E 0 98 40 64
        E 0 9d 31 64
        E 1 85 44 64
        E 0 87 44 64
        E 0 8e 40 64
        E 0 88 40 64
        E 0 8d 31 64
        E 0 95 44 64
        E 0 97 44 64
        E 0 9e 3f 64
        E 0 98 3f 64
        E 0 9d 2c 64
        E 0 85 44 64
        E 0 87 44 64
        E 0 8e 3f 64
        E 0 88 3f 64
        E 0 8d 2c 64
        E 0 95 4b 64
        E 0 97 4b 64
        E 0 9e 49 64
        E 0 98 44 64
        E 0 9d 38 64
        E 0 85 4b 64
        E 0 87 4b 64
        E 0 8e 49 64
        E 0 88 44 64
        E 0 8d 38 64
        E 0 95 44 64
        E 0 97 44 64
        E 1 9e 3f 64
        E 0 98 3f 64
        E 0 9d 2c 64
        E 0 85 44 64
        E 0 87 44 64
        E 0 8e 3f 64
        E 0 88 3f 64
        E 0 8d 2c 64
        E 0 95 44 64
        E 0 97 44 64
        E 0 9e 3f 64
        E 0 98 3f 64
        E 0 9d 2c 64
        E 0 85 44 64
        E 0 87 44 64
        E 0 8e 3f 64
        E 0 88 3f 64
        E 0 8d 2c 64
        E 0 95 44 64
        E 1 97 44 64
        E 0 9e 3f 64
        E 0 98 3f 64
        E 0 9d 2c 64
        E 0 85 44 64
        E 0 87 44 64
        E 0 8e 3f 64
        E 0 88 3f 64
        E 0 8d 2c 64
        E 0 95 4b 64
        E 0 97 4b 64
        E 1 9e 49 64
        E 0 98 44 64
        E 0 9d 38 64
        E 0 85 4b 64
        E 0 87 4b 64
        E 0 8e 49 64
        E 0 88 44 64
        E 0 8d 38 64
        E 0 95 44 64
        E 0 97 44 64
        E 0 9e 3f 64
        E 0 98 3f 64
        E 0 9d 2c 64
        E 0 85 44 64
        E 0 87 44 64
        E 0 8e 3f 64
        E 0 88 3f 64
        E 0 8d 2c 64
        E 0 95 44 64
        E 1 97 44 64
        E 0 9e 3f 64
        E 0 98 3f 64
        E 0 9d 2c 64
        E 0 85 44 64
        E 0 87 44 64
        E 0 8e 3f 64
        E 0 88 3f 64
        E 0 8d 2c 64
        E 0 95 44 64
        E 0 97 44 64
        E 0 9e 3f 64
        E 0 98 3c 63
        E 0 9d 2c 64
        E 0 85 44 64
        E 0 87 44 64
        E 0 8e 3f 64
        E 0 88 3c 63
        E 0 8d 2c 64
        E 1 95 4b 64
        E 0 97 4b 64
        E 0 9e 48 63
        E 0 98 44 64
        E 0 9d 38 64
        E 0 85 4b 64
        E 0 87 4b 64
        E 0 8e 48 63
        E 0 88 44 64
        E 0 8d 38 64
        E 0 95 44 64
        E 0 97 44 64
        E 0 9e 3f 64
        E 0 98 3c 63
        E 0 9d 2c 64
        E 0 85 44 64
        E 0 87 44 64
        E 0 8e 3f 64
        E 0 88 3c 63
        E 0 8d 2c 64
        E 0 95 44 64
        E 0 97 44 64
        E 1 9e 3f 64
        E 0 98 3c 63
        E 0 9d 2c 64
        E 0 85 44 64
        E 0 87 44 64
        E 0 8e 3f 64
        E 0 88 3c 63
        E 0 8d 2c 64
        E 0 95 44 64
        E 0 97 44 64
        E 0 9e 3f 64
        E 0 98 3c 63
        E 0 9d 2c 64
        E 0 85 44 64
        E 0 87 44 64
        E 0 8e 3f 64
        E 0 88 3c 63
        E 0 8d 2c 64
        E 0 95 4b 64
        E 0 97 4b 64
        E 0 9e 48 63
        E 0 98 44 64
        E 0 9d 38 64
        E 0 85 4b 64
        E 0 87 4b 64
        E 0 8e 48 63
        E 0 88 44 64
        E 0 8d 38 64
        E 0 95 44 64
        E 0 97 44 64
        E 0 9e 3f 64
        E 1 98 3c 63
        E 0 9d 2c 64
        E 0 85 44 64
        E 0 87 44 64
        E 0 8e 3f 64
        E 0 88 3c 63
        E 0 8d 2c 64
        E 0 95 44 64
        E 0 97 44 64
        E 0 9e 3f 64
        E 0 98 3c 63
        E 0 9d 2c 64
        E 0 85 44 64
        E 0 87 44 64
        E 0 8e 3f 64
        E 0 88 3c 63
        E 0 8d 2c 64
        E 0 95 44 64
        E 0 97 44 64
        E 0 9e 40 64
        E 0 98 3d 64
        E 0 9d 31 64
        E 0 85 44 64
        E 0 87 44 64
        E 0 8e 40 64
        E 0 88 3d 64
        E 0 8d 31 64
        E 0 95 49 64
        E 0 97 49 64
        E 1 9e 49 64
        E 0 98 49 64
        E 0 9d 3d 64
        E 0 85 49 64
        E 0 87 49 64
        E 0 8e 49 64
        E 0 88 49 64
        E 0 8d 3d 64
        E 0 95 3d 64
        E 0 97 3d 64
        E 0 9e 3d 64
        E 0 98 3d 64
        E 1 9d 31 64
        E 0 85 3d 64
        E 0 87 3d 64
        E 0 8e 3d 64
        E 0 88 3d 64
        E 0 8d 31 64
        E 0 95 3d 64
        E 0 97 3d 64
        E 0 9e 3d 64
        E 0 98 3d 64
        E 0 9d 31 64
        E 19203 85 3d 64
        E 0 87 3d 64
        E 1 8e 3d 64
        E 0 88 3d 64
        E 0 8d 31 64
        E 0 95 3d 64
        E 0 97 3d 64
        E 0 9e 3d 64
        E 0 98 3d 64
        E 0 9d 31 64
        E 0 85 3d 64
        E 0 87 3d 64
        E 0 8e 3d 64
        E 0 88 3d 64
        E 0 8d 31 64
        E 0 95 49 64
        E 0 97 49 64
        E 0 9e 49 64
        E 0 98 49 64
        E 0 9d 3d 64
        E 0 85 49 64
        E 0 87 49 64
        E 0 8e 49 64
        E 0 88 49 64
        E 0 8d 3d 64
        E 0 95 3d 64
        E 0 97 3d 64
        E 0 9e 3d 64
        E 0 98 3d 64
        E 0 9d 31 64
        E 0 85 3d 64
        E 0 87 3d 64
        E 0 8e 3d 64
        E 0 88 3d 64
        E 0 8d 31 64
        E 0 95 3d 64
        E 0 97 3d 64
        E 0 9e 3d 64
        E 0 98 3d 64
        E 0 9d 31 64
        E 0 85 3d 64
        E 0 87 3d 64
        E 0 8e 3d 64
        E 0 88 3d 64
        E 0 8d 31 64
        E 0 95 3d 64
        E 0 97 3d 64
        E 0 9e 3d 64
        E 0 98 3d 64
        E 0 9d 31 64
        E 0 85 3d 64
        E 0 87 3d 64
        E 0 8e 3d 64
        E 0 95 4c 64
        E 0 97 4c 64
        E 0 9e 49 64
        E 0 85 4c 64
        E 0 87 4c 64
        E 0 8e 49 64
        E 0 95 4e 64
        E 0 97 4e 64
        E 0 9e 4b 64
        E 0 85 4e 64
        E 0 87 4e 64
        E 0 8e 4b 64
        E 0 88 3d 64
        E 0 8d 31 64
        E 0 95 50 64
        E 1 97 50 64
        E 0 9e 4c 64
        E 0 85 50 64
        E 0 87 50 64
        E 0 8e 4c 64
        E 0 95 4e 64
        E 0 97 4e 64
        E 0 9e 4b 64
        E 0 85 4e 64
        E 0 87 4e 64
        E 0 8e 4b 64
        E 0 95 50 64
        E 0 97 50 64
        E 0 9e 4c 64
        E 0 85 50 64
        E 0 87 50 64
        E 0 8e 4c 64
        E 0 95 4e 64
        E 0 97 4e 64
        E 0 9e 4b 64
        E 0 85 4e 64
        E 0 87 4e 64
        E 0 8e 4b 64
        E 0 95 4c 64
        E 0 97 4c 64
        E 0 9e 49 64
        E 0 85 4c 64
        E 0 87 4c 64
        E 0 8e 49 64
        E 0 95 4c 64
        E 0 97 4c 64
        E 0 9e 49 64
        E 0 85 4c 64
        E 0 87 4c 64
        E 0 8e 49 64
        E 0 95 4e 64
        E 0 97 4e 64
        E 0 9e 4b 64
        E 0 85 4e 64
        E 0 87 4e 64
        E 0 8e 4b 64
        E 0 95 50 64
        E 0 97 50 64
        E 0 9e 4c 64
        E 0 85 50 64
        E 0 87 50 64
        E 0 8e 4c 64
        E 0 95 4e 64
        E 0 97 4e 64
        E 0 9e 4b 64
        E 0 85 4e 64
        E 0 87 4e 64
        E 0 8e 4b 64
        E 0 95 50 64
        E 1 97 50 64
        E 0 9e 4c 64
        E 0 85 50 64
        E 0 87 50 64
        E 0 8e 4c 64
        E 0 95 4e 64
        E 0 97 4e 64
        E 0 9e 4b 64
        E 0 85 4e 64
        E 0 87 4e 64
        E 0 8e 4b 64
        E 0 95 4c 64
        E 0 97 4c 64
        E 0 9e 49 64
        E 0 98 46 64
        E 0 9d 2e 64
        E 0 85 4c 64
        E 0 87 4c 64
        E 0 8e 49 64
        E 0 8d 2e 64
        E 0 95 4c 64
        E 0 97 4c 64
        E 0 9e 49 64
        E 0 9d 3a 64
        E 0 85 4c 64
        E 0 87 4c 64
        E 0 8e 49 64
        E 0 95 4e 64
        E 0 97 4e 64
        E 0 9e 4a 64
        E 0 85 4e 64
        E 0 87 4e 64
        E 0 8e 4a 64
        E 0 88 46 64
        E 0 8d 3a 64
        E 0 95 4f 64
        E 0 97 4f 64
        E 0 9e 4c 64
        E 0 9d 2e 64
        E 0 85 4f 64
        E 0 87 4f 64
        E 0 8e 4c 64
        E 0 95 4e 64
        E 0 97 4e 64
        E 0 9e 4a 64
        E 0 85 4e 64
        E 0 87 4e 64
        E 0 8e 4a 64
        E 0 8d 2e 64
        E 0 95 4f 64
        E 0 97 4f 64
        E 0 9e 4c 64
        E 0 9d 2e 64
        E 0 85 4f 64
        E 0 87 4f 64
        E 0 8e 4c 64
        E 0 95 4e 64
        E 0 97 4e 64
        E 0 9e 4a 64
        E 0 85 4e 64
        E 0 87 4e 64
        E 0 8e 4a 64
        E 0 8d 2e 64
        E 1 95 4c 64
        E 0 97 4c 64
        E 0 9e 49 64
        E 0 98 42 64
        E 0 9d 2e 64
        E 0 8d 2e 64
        E 0 9d 3a 64
        E 0 85 4c 64
        E 0 87 4c 64
        E 0 8e 49 64
        E 0 88 42 64
        E 0 8d 3a 64
        E 0 9d 2e 64
        E 0 8d 2e 64
        E 0 9d 2e 64
        E 0 8d 2e 64
        E 0 95 47 64
        E 0 97 47 64
        E 0 9e 42 64
        E 0 98 3e 64
        E 0 9d 2f 64
        E 0 85 47 64
        E 0 87 47 64
        E 0 8e 42 64
        E 0 88 3e 64
        E 0 8d 2f 64
        E 0 95 4e 64
        E 0 97 4e 64
        E 0 9e 4a 64
        E 0 98 47 64
        E 0 9d 3b 64
        E 0 85 4e 64
        E 0 87 4e 64
        E 0 8e 4a 64
        E 0 88 47 64
        E 0 8d 3b 64
        E 0 95 47 64
        E 0 97 47 64
        E 0 9e 42 64
        E 0 98 3e 64
        E 0 9d 2f 64
        E 0 85 47 64
        E 0 87 47 64
        E 0 8e 42 64
        E 0 88 3e 64
        E 0 8d 2f 64
        E 1 95 47 64
        E 0 97 47 64
        E 0 9e 42 64
        E 0 98 3e 64
        E 0 9d 2f 64
        E 0 85 47 64
        E 0 87 47 64
        E 0 8e 42 64
        E 0 88 3e 64
        E 0 8d 2f 64
        E 0 95 47 64
        E 0 97 47 64
        E 0 9e 42 64
        E 0 98 3e 64
        E 0 9d 2f 64
        E 0 85 47 64
        E 0 87 47 64
        E 0 8e 42 64
        E 0 88 3e 64
        E 0 8d 2f 64
        E 0 95 4e 64
        E 1 97 4e 64
        E 0 9e 4a 64
        E 0 98 47 64
        E 0 9d 3b 64
        E 0 85 4e 64
        E 0 87 4e 64
        E 0 8e 4a 64
        E 0 88 47 64
        E 0 8d 3b 64
        E 0 95 47 64
        E 0 97 47 64
        E 0 9e 42 64
        E 1 98 3e 64
        E 0 9d 2f 64
        E 0 85 47 64
        E 0 87 47 64
        E 0 8e 42 64
        E 0 88 3e 64
        E 0 8d 2f 64
        E 0 95 47 64
        E 0 97 47 64
        E 0 9e 42 64
        E 0 98 3e 64
        E 1 9d 2f 64
        E 0 85 47 64
        E 0 87 47 64
        E 0 8e 42 64
        E 0 88 3e 64
        E 0 8d 2f 64
        E 0 95 47 64
        E 0 97 47 64
        E 0 9e 40 64
        E 0 98 3e 64
        E 0 9d 2c 64
        E 0 85 47 64
        E 0 87 47 64
        E 0 8e 40 64
        E 0 8d 2c 64
        E 0 95 4a 64
        E 0 97 4a 64
        E 0 9e 47 64
        E 0 9d 38 64
        E 0 85 4a 64
        E 0 87 4a 64
        E 0 8e 47 64
        E 0 95 4c 64
        E 0 97 4c 64
        E 0 9e 49 64
        E 0 85 4c 64
        E 0 87 4c 64
        E 0 8e 49 64
        E 0 88 3e 64
        E 0 8d 38 64
        E 0 95 4e 64
        E 1 97 4e 64
        E 0 9e 4a 64
        E 0 9d 2c 64
        E 0 85 4e 64
        E 0 87 4e 64
        E 0 8e 4a 64
        E 0 95 4c 64
        E 0 97 4c 64
        E 0 9e 49 64
        E 0 85 4c 64
        E 0 87 4c 64
        E 0 8e 49 64
        E 0 8d 2c 64
        E 0 95 4e 64
        E 0 97 4e 64
        E 0 9e 4a 64
        E 1 9d 2c 64
        E 0 85 4e 64
        E 0 87 4e 64
        E 0 8e 4a 64
        E 0 95 4c 64
        E 0 97 4c 64
        E 0 9e 49 64
        E 0 85 4c 64
        E 0 87 4c 64
        E 0 8e 49 64
        E 0 8d 2c 64
        E 0 95 4a 64
        E 0 97 4a 64
        E 1 9e 47 64
        E 0 98 3e 64
        E 0 9d 2c 64
        E 0 8d 2c 64
        E 0 9d 38 64
        E 0 85 4a 64
        E 0 87 4a 64
        E 0 8e 47 64
        E 0 88 3e 64
        E 0 8d 38 64
        E 0 9d 2c 64
        E 0 8d 2c 64
        E 0 9d 2c 64
        E 0 8d 2c 64
        E 1 95 45 64
        E 0 97 45 64
        E 0 9e 40 64
        E 0 98 3d 64
        E 0 9d 2d 64
        E 0 85 45 64
        E 0 87 45 64
        E 0 8e 40 64
        E 0 88 3d 64
        E 0 8d 2d 64
        E 0 95 4c 64
        E 0 97 4c 64
        E 0 9e 49 64
        E 0 98 45 64
        E 0 9d 39 64
        E 0 85 4c 64
        E 0 87 4c 64
        E 0 8e 49 64
        E 0 88 45 64
        E 0 8d 39 64
        E 0 95 45 64
        E 0 97 45 64
        E 0 9e 40 64
        E 0 98 3d 64
        E 0 9d 2d 64
        E 0 85 45 64
        E 1 87 45 64
        E 0 8e 40 64
        E 0 88 3d 64
        E 0 8d 2d 64
        E 0 95 45 64
        E 0 97 45 64
        E 0 9e 40 64
        E 0 98 3d 64
        E 0 9d 2d 64
        E 0 85 45 64
        E 0 87 45 64
        E 0 8e 40 64
        E 0 88 3d 64
        E 0 8d 2d 64
        E 0 95 45 64
        E 0 97 45 64
        E 0 9e 40 64
        E 0 98 3d 64
        E 1 9d 2d 64
        E 0 85 45 64
        E 0 87 45 64
        E 0 8e 40 64
        E 0 88 3d 64
        E 0 8d 2d 64
        E 0 95 4c 64
        E 0 97 4c 64
        E 0 9e 49 64
        E 0 98 45 64
        E 0 9d 39 64
        E 0 85 4c 64
        E 0 87 4c 64
        E 0 8e 49 64
        E 0 88 45 64
        E 0 8d 39 64
        E 0 95 45 64
        E 0 97 45 64
        E 0 9e 40 64
        E 0 98 3d 64
        E 0 9d 2d 64
        E 0 85 45 64
        E 0 87 45 64
        E 0 8e 40 64
        E 0 88 3d 64
        E 0 8d 2d 64
        E 0 95 45 64
        E 0 97 45 64
        E 0 9e 40 64
        E 1 98 3d 64
        E 0 9d 2d 64
        E 0 85 45 64
        E 0 87 45 64
        E 0 8e 40 64
        E 0 88 3d 64
        E 0 8d 2d 64
        E 0 95 45 64
        E 0 97 45 64
        E 0 9e 42 64
        E 0 98 3f 64
        E 0 9d 33 64
        E 1 85 45 64
        E 0 87 45 64
        E 0 8e 42 64
        E 0 88 3f 64
        E 0 8d 33 64
        E 0 95 4e 64
        E 0 97 4e 64
        E 0 9e 4b 64
        E 0 98 45 64
        E 0 9d 3f 64
        E 0 85 4e 64
        E 0 87 4e 64
        E 0 8e 4b 64
        E 0 88 45 64
        E 0 8d 3f 64
        E 0 95 45 64
        E 0 97 45 64
        E 0 9e 42 64
        E 0 98 3f 64
        E 0 9d 33 64
        E 3968 85 45 64
        E 1 87 45 64
        E 0 8e 42 64
        E 0 88 3f 64
        E 0 8d 33 64
        E 0 95 45 64
        E 0 97 45 64
        E 0 9e 42 64
        E 0 98 3f 64
        E 0 9d 33 64
        E 0 85 45 64
        E 0 87 45 64
        E 0 8e 42 64
        E 0 88 3f 64
        E 0 8d 33 64
        E 0 95 45 64
        E 0 97 45 64
        E 0 9e 42 64
        E 0 98 3f 64
        E 0 9d 33 64
        E 0 85 45 64
        E 0 87 45 64
        E 0 8e 42 64
        E 0 88 3f 64
        E 0 8d 33 64
        E 0 95 4e 64
        E 0 97 4e 64
        E 0 9e 4b 64
        E 0 98 45 64
        E 0 9d 3f 64
        E 0 85 4e 64
        E 0 87 4e 64
        E 0 8e 4b 64
        E 0 88 45 64
        E 0 8d 3f 64
        E 0 95 45 64
        E 0 97 45 64
        E 0 9e 42 64
        E 0 98 3f 64
        E 0 9d 33 64
        E 0 85 45 64
        E 0 87 45 64
        E 0 8e 42 64
        E 0 88 3f 64
        E 0 8d 33 64
        E 0 95 45 64
        E 0 97 45 64
        E 0 9e 42 64
        E 1 98 3f 64
        E 0 9d 33 64
        E 0 85 45 64
        E 0 87 45 64
        E 0 8e 42 64
        E 0 88 3f 64
        E 0 8d 33 64
        E 0 95 44 64
        E 0 97 44 64
        E 0 9e 40 64
        E 0 98 3b 64
        E 0 9d 34 64
        E 0 85 44 64
        E 0 87 44 64
        E 0 8e 40 64
        E 0 88 3b 64
        E 0 8d 34 64
        E 0 95 4c 64
        E 0 97 4c 64
        E 0 9e 4c 64
        E 0 98 4c 64
        E 0 9d 40 64
        E 0 85 4c 64
        E 0 87 4c 64
        E 0 8e 4c 64
        E 0 88 4c 64
        E 0 8d 40 64
        E 0 95 40 64
        E 0 97 40 64
        E 0 9e 40 64
        E 0 98 40 64
        E 0 9d 34 64
        E 0 85 40 64
        E 0 87 40 64
        E 0 8e 40 64
        E 0 88 40 64
        E 0 8d 34 64
        E 1 95 40 64
        E 0 97 40 64
        E 0 9e 40 64
        E 0 98 40 64
        E 0 9d 34 64
        E 0 85 40 64
        E 0 87 40 64
        E 0 8e 40 64
        E 0 88 40 64
        E 0 8d 34 64
        E 0 95 40 64
        E 0 97 40 64
        E 0 9e 40 64
        E 0 98 40 64
        E 0 9d 34 64
        E 19208 85 40 64
        E 0 87 40 64
        E 0 8e 40 64
        E 0 88 40 64
        E 0 8d 34 64
        E 0 95 4c 64
        E 0 97 4c 64
        E 0 9e 4c 64
        E 0 98 4c 64
        E 0 9d 40 64
        E 0 85 4c 64
        E 0 87 4c 64
        E 0 8e 4c 64
        E 0 88 4c 64
        E 0 8d 40 64
        E 0 95 40 64
        E 0 97 40 64
        E 0 9e 40 64
        E 0 98 40 64
        E 0 9d 34 64
        E 0 85 40 64
        E 0 87 40 64
        E 0 8e 40 64
        E 0 88 40 64
        E 0 8d 34 64
        E 0 95 40 64
        E 1 97 40 64
        E 0 9e 40 64
        E 0 98 40 64
        E 0 9d 34 64
        E 0 85 40 64
        E 0 87 40 64
        E 0 8e 40 64
        E 0 88 40 64
        E 0 8d 34 64
        E 0 95 40 64
        E 0 97 40 64
        E 0 9e 40 64
        E 0 98 40 64
        E 0 9d 34 64
        E 0 85 40 64
        E 0 87 40 64
        E 0 8e 40 64
        E 0 8d 34 64
        E 0 95 50 64
        E 0 97 50 64
        E 0 9e 4c 64
        E 0 9d 40 64
        E 0 85 50 64
        E 0 87 50 64
        E 0 8e 4c 64
        E 0 95 51 64
        E 0 97 51 64
        E 0 9e 4e 64
        E 0 85 51 64
        E 0 87 51 64
        E 0 8e 4e 64
        E 0 88 40 64
        E 0 8d 40 64
        E 0 95 53 64
        E 0 97 53 64
        E 0 9e 50 64
        E 0 9d 34 64
        E 0 85 53 64
        E 0 87 53 64
        E 0 8e 50 64
        E 0 95 51 64
        E 0 97 51 64
        E 0 9e 4e 64
        E 0 85 51 64
        E 0 87 51 64
        E 0 8e 4e 64
        E 0 8d 34 64
        E 0 95 53 64
        E 0 97 53 64
        E 0 9e 50 64
        E 0 9d 34 64
        E 0 85 53 64
        E 0 87 53 64
        E 0 8e 50 64
        E 0 95 51 64
        E 0 97 51 64
        E 0 9e 4e 64
        E 0 85 51 64
        E 0 87 51 64
        E 0 8e 4e 64
        E 0 8d 34 64
        E 0 95 50 64
        E 0 97 50 64
        E 0 9e 4c 64
        E 0 98 47 64
        E 0 9d 34 64
        E 0 8d 34 64
        E 0 9d 40 64
        E 0 85 50 64
        E 0 87 50 64
        E 0 8e 4c 64
        E 0 88 47 64
        E 0 8d 40 64
        E 0 9d 34 64
        E 0 8d 34 64
        E 0 9d 34 64
        E 0 8d 34 64
        E 0 94 4c 64
        E 0 95 49 64
        E 1 97 4c 64
        E 0 9e 49 64
        E 0 98 45 64
        E 0 9d 2d 64
        E 0 84 4c 64
        E 0 85 49 64
        E 0 87 4c 64
        E 0 8e 49 64
        E 0 88 45 64
        E 0 8d 2d 64
        E 0 94 51 64
        E 0 95 4c 64
        E 0 97 51 64
        E 0 9e 4c 64
        E 0 98 49 64
        E 0 9d 39 64
        E 0 84 51 64
        E 0 85 4c 64
        E 0 87 51 64
        E 0 8e 4c 64
        E 0 88 49 64
        E 0 8d 39 64
        E 0 94 4c 64
        E 0 95 49 64
        E 0 97 4c 64
        E 0 9e 49 64
        E 0 98 45 64
        E 0 9d 2d 64
        E 0 84 4c 64
        E 0 85 49 64
        E 0 87 4c 64
        E 0 8e 49 64
        E 0 88 45 64
        E 0 8d 2d 64
        E 0 94 4c 64
        E 0 95 49 64
        E 0 97 4c 64
        E 0 9e 49 64
        E 0 98 45 64
        E 0 9d 2d 64
        E 0 84 4c 64
        E 0 85 49 64
        E 0 87 4c 64
        E 0 8e 49 64
        E 0 88 45 64
        E 0 8d 2d 64
        E 0 94 4e 64
        E 0 95 4a 64
        E 0 97 4e 64
        E 0 9e 4a 64
        E 0 98 45 64
        E 1 9d 32 64
        E 0 84 4e 64
        E 0 85 4a 64
        E 0 87 4e 64
        E 0 8e 4a 64
        E 0 88 45 64
        E 0 8d 32 64
        E 0 94 51 64
        E 0 95 4e 64
        E 0 97 51 64
        E 0 9e 4e 64
        E 0 98 4a 64
        E 0 9d 3e 64
        E 0 84 51 64
        E 0 85 4e 64
        E 0 87 51 64
        E 0 8e 4e 64
        E 0 88 4a 64
        E 0 8d 3e 64
        E 0 94 4e 64
        E 0 95 4a 64
        E 0 97 4e 64
        E 0 9e 4a 64
        E 0 98 45 64
        E 0 9d 32 64
        E 0 84 4e 64
        E 0 85 4a 64
        E 0 87 4e 64
        E 0 8e 4a 64
        E 0 88 45 64
        E 0 8d 32 64
        E 0 94 4e 64
        E 0 95 4a 64
        E 0 97 4e 64
        E 0 9e 4a 64
        E 0 98 45 64
        E 0 9d 32 64
        E 0 84 4e 64
        E 0 85 4a 64
        E 0 87 4e 64
        E 0 8e 4a 64
        E 0 88 45 64
        E 0 8d 32 64
        E 0 94 4c 64
        E 0 95 4a 64
        E 0 97 4c 64
        E 0 9e 4a 64
        E 0 98 45 64
        E 0 9d 2d 64
        E 0 84 4c 64
        E 0 85 4a 64
        E 0 87 4c 64
        E 0 8e 4a 64
        E 0 88 45 64
        E 0 8d 2d 64
        E 1 94 51 64
        E 0 95 4c 64
        E 0 97 51 64
        E 0 9e 4c 64
        E 0 98 4a 64
        E 0 9d 39 64
        E 0 84 51 64
        E 0 85 4c 64
        E 0 87 51 64
        E 0 8e 4c 64
        E 0 88 4a 64
        E 0 8d 39 64
        E 0 94 4c 64
        E 0 95 4a 64
        E 0 97 4c 64
        E 0 9e 4a 64
        E 0 98 45 64
        E 0 9d 2d 64
        E 0 84 4c 64
        E 0 85 4a 64
        E 0 87 4c 64
        E 0 8e 4a 64
        E 0 88 45 64
        E 0 8d 2d 64
        E 0 94 4c 64
        E 0 95 4a 64
        E 0 97 4c 64
        E 0 9e 4a 64
        E 0 98 45 64
        E 0 9d 2d 64
        E 0 84 4c 64
        E 0 85 4a 64
        E 0 87 4c 64
        E 0 8e 4a 64
        E 0 88 45 64
        E 0 8d 2d 64
        E 0 94 4c 64
        E 0 95 49 64
        E 0 97 4c 64
        E 0 9e 49 64
        E 0 98 45 64
        E 0 9d 2d 64
        E 0 84 4c 64
        E 0 85 49 64
        E 0 87 4c 64
        E 0 8e 49 64
        E 0 88 45 64
        E 0 8d 2d 64
        E 0 94 51 64
        E 0 95 4c 64
        E 0 97 51 64
        E 0 9e 4c 64
        E 0 98 49 64
        E 0 9d 39 64
        E 0 84 51 64
        E 0 85 4c 64
        E 0 87 51 64
        E 0 8e 4c 64
        E 0 88 49 64
        E 0 8d 39 64
        E 0 94 4c 64
        E 0 95 49 64
        E 0 97 4c 64
        E 0 9e 49 64
        E 0 98 45 64
        E 0 9d 2d 64
        E 0 84 4c 64
        E 0 85 49 64
        E 0 87 4c 64
        E 0 8e 49 64
        E 0 88 45 64
        E 0 8d 2d 64
        E 0 94 4c 64
        E 0 95 49 64
        E 0 97 4c 64
        E 0 9e 49 64
        E 1 98 45 64
        E 0 9d 2d 64
        E 0 84 4c 64
        E 0 85 49 64
        E 0 87 4c 64
        E 0 8e 49 64
        E 0 88 45 64
        E 0 8d 2d 64
        E 0 94 4e 64
        E 0 95 4a 64
        E 0 97 4e 64
        E 0 9e 4a 64
        E 0 98 45 64
        E 0 9d 32 64
        E 0 84 4e 64
        E 0 85 4a 64
        E 0 87 4e 64
        E 0 8e 4a 64
        E 0 88 45 64
        E 0 8d 32 64
        E 0 94 4a 64
        E 0 95 4a 64
        E 0 97 4a 64
        E 0 9e 4a 64
        E 0 98 4a 64
        E 0 9d 3e 64
        E 0 84 4a 64
        E 0 85 4a 64
        E 0 87 4a 64
        E 0 8e 4a 64
        E 0 88 4a 64
        E 0 8d 3e 64
        E 0 94 3e 64
        E 0 95 3e 64
        E 0 97 3e 64
        E 0 9e 3e 64
        E 0 98 3e 64
        E 0 9d 32 64
        E 0 84 3e 64
        E 0 85 3e 64
        E 0 87 3e 64
        E 0 8e 3e 64
        E 0 88 3e 64
        E 0 8d 32 64
        E 0 94 3e 64
        E 1 95 3e 64
        E 0 97 3e 64
        E 0 9e 3e 64
        E 0 98 3e 64
        E 0 9d 32 64
        E 0 84 3e 64
        E 0 85 3e 64
        E 0 87 3e 64
        E 0 8e 3e 64
        E 0 88 3e 64
        E 0 8d 32 64
        E 0 94 3e 64
        E 0 95 3e 64
        E 0 97 3e 64
        E 0 9e 3e 64
        E 4 98 3e 64
        E 0 9d 32 64
        E 0 84 3e 64
        E 0 85 3e 64
        E 0 87 3e 64
        E 0 8e 3e 64
        E 0 88 3e 64
        E 0 8d 32 64
        E 0 94 4a 64
        E 0 95 4a 64
        E 0 97 4a 64
        E 0 9e 4a 64
        E 0 98 4a 64
        E 0 9d 3e 64
        E 0 84 4a 64
        E 0 85 4a 64
        E 0 87 4a 64
        E 0 8e 4a 64
        E 0 88 4a 64
        E 0 8d 3e 64
        E 0 94 3e 64
        E 0 95 3e 64
        E 0 97 3e 64
        E 0 9e 3e 64
        E 0 98 3e 64
        E 0 9d 32 64
        E 0 84 3e 64
        E 0 85 3e 64
        E 0 87 3e 64
        E 0 8e 3e 64
        E 0 88 3e 64
        E 0 8d 32 64
        E 0 94 3e 64
        E 0 95 3e 64
        E 0 97 3e 64
        E 0 9e 3e 64
        E 0 98 3e 64
        E 0 9d 32 64
        E 0 84 3e 64
        E 1 85 3e 64
        E 0 87 3e 64
        E 0 8e 3e 64
        E 0 88 3e 64
        E 0 8d 32 64
        E 0 94 3e 64
        E 0 95 3e 64
        E 0 97 3e 64
        E 0 9e 3e 64
        E 0 98 3e 64
        E 0 9d 32 64
        E 0 85 3e 64
        E 0 87 3e 64
        E 0 8e 3e 64
        E 0 88 3e 64
        E 0 8d 32 64
        E 0 95 42 64
        E 0 97 42 64
        E 0 9e 42 64
        E 0 98 3e 64
        E 0 9d 32 64
        E 0 85 42 64
        E 0 87 42 64
        E 0 8e 42 64
        E 0 88 3e 64
        E 0 8d 32 64
        E 0 95 43 64
        E 0 97 43 64
        E 0 9e 43 64
        E 0 98 40 64
        E 0 9d 34 64
        E 0 84 3e 64
        E 1 85 43 64
        E 0 87 43 64
        E 0 8e 43 64
        E 0 88 40 64
        E 0 8d 34 64
        E 0 95 45 64
        E 0 97 45 64
        E 0 9e 45 64
        E 0 98 42 64
        E 0 9d 36 64
        E 0 85 45 64
        E 0 87 45 64
        E 0 8e 45 64
        E 0 88 42 64
        E 0 8d 36 64
        E 0 95 43 64
        E 0 97 43 64
        E 0 9e 43 64
        E 0 98 40 64
        E 0 9d 34 64
        E 0 85 43 64
        E 0 87 43 64
        E 0 8e 43 64
        E 0 88 40 64
        E 0 8d 34 64
        E 0 95 42 64
        E 0 97 42 64
        E 0 9e 42 64
        E 0 98 3e 64
        E 0 9d 32 64
        E 0 85 42 64
        E 0 87 42 64
        E 0 8e 42 64
        E 0 88 3e 64
        E 0 8d 32 64
        E 0 95 42 64
        E 0 97 42 64
        E 0 9e 42 64
        E 0 98 3e 64
        E 0 9d 32 64
        E 0 85 42 64
        E 0 87 42 64
        E 0 8e 42 64
        E 0 88 3e 64
        E 0 8d 32 64
        E 0 95 43 64
        E 0 97 43 64
        E 0 9e 43 64
        E 0 98 40 64
        E 0 9d 34 64
        E 0 85 43 64
        E 0 87 43 64
        E 0 8e 43 64
        E 0 88 40 64
        E 0 8d 34 64
        E 0 95 45 64
        E 0 97 45 64
        E 0 9e 45 64
        E 0 98 42 64
        E 0 9d 36 64
        E 0 85 45 64
        E 0 87 45 64
        E 0 8e 45 64
        E 0 88 42 64
        E 0 8d 36 64
        E 0 95 43 64
        E 1 97 43 64
        E 0 9e 43 64
        E 0 98 40 64
        E 0 9d 34 64
        E 0 85 43 64
        E 0 87 43 64
        E 0 8e 43 64
        E 0 88 40 64
        E 0 8d 34 64
        E 0 94 3e 64
        E 0 95 42 64
        E 0 97 42 64
        E 0 9e 42 64
        E 0 98 3e 64
        E 0 9d 32 64
        E 0 84 3e 64
        E 0 85 42 64
        E 0 87 42 64
        E 0 8e 42 64
        E 0 88 3e 64
        E 0 8d 32 64
        E 0 94 4a 64
        E 0 95 4a 64
        E 0 97 4a 64
        E 0 9e 4a 64
        E 0 98 4a 64
        E 0 9d 3e 64
        E 0 84 4a 64
        E 0 85 4a 64
        E 0 87 4a 64
        E 0 8e 4a 64
        E 0 88 4a 64
        E 0 8d 3e 64
        E 0 94 3e 64
        E 0 95 3e 64
        E 0 97 3e 64
        E 0 9e 3e 64
        E 0 98 3e 64
        E 0 9d 32 64
        E 0 84 3e 64
        E 0 85 3e 64
        E 0 87 3e 64
        E 0 8e 3e 64
        E 0 88 3e 64
        E 0 8d 32 64
        E 0 94 3e 64
        E 0 95 3e 64
        E 0 97 3e 64
        E 0 9e 3e 64
        E 0 98 3e 64
        E 0 9d 32 64
        E 340 84 3e 64
        E 0 85 3e 64
        E 0 87 3e 64
        E 0 8e 3e 64
        E 0 88 3e 64
        E 0 8d 32 64
        E 0 94 3e 64
        E 0 95 3e 64
        E 0 97 3e 64
        E 0 9e 3e 64
        E 0 98 3e 64
        E 0 9d 32 64
        E 19202 84 3e 64
        E 0 85 3e 64
        E 0 87 3e 64
        E 0 8e 3e 64
        E 0 88 3e 64
        E 0 8d 32 64
        E 0 94 4a 64
        E 0 95 4a 64
        E 0 97 4a 64
        E 0 9e 4a 64
        E 0 98 4a 64
        E 0 9d 3e 64
        E 0 84 4a 64
        E 0 85 4a 64
        E 0 87 4a 64
        E 0 8e 4a 64
        E 0 88 4a 64
        E 0 8d 3e 64
        E 0 94 3e 64
        E 0 95 3e 64
        E 0 97 3e 64
        E 0 9e 3e 64
        E 0 98 3e 64
        E 0 9d 32 64
        E 0 84 3e 64
        E 0 85 3e 64
        E 0 87 3e 64
        E 0 8e 3e 64
        E 0 88 3e 64
        E 0 8d 32 64
        E 1 94 3e 64
        E 0 95 3e 64
        E 0 97 3e 64
        E 0 9e 3e 64
        E 0 98 3e 64
        E 0 9d 32 64
        E 0 84 3e 64
        E 0 85 3e 64
        E 0 87 3e 64
        E 0 8e 3e 64
        E 0 88 3e 64
        E 0 8d 32 64
        E 0 94 3e 64
        E 0 95 3e 64
        E 0 97 4a 64
        E 0 9e 3e 64
        E 0 98 3e 64
        E 0 9d 32 64
        E 0 87 4a 64
        E 0 8e 3e 64
        E 0 88 3e 64
        E 0 8d 32 64
        E 0 97 4e 64
        E 0 9e 4a 64
        E 0 98 45 64
        E 0 9d 3e 64
        E 0 87 4e 64
        E 0 8e 4a 64
        E 0 97 4f 64
        E 0 9e 4c 64
        E 0 84 3e 64
        E 0 85 3e 64
        E 0 87 4f 64
        E 0 8e 4c 64
        E 0 88 45 64
        E 0 8d 3e 64
        E 0 97 51 64
        E 0 9e 4e 64
        E 0 98 45 64
        E 0 9d 32 64
        E 0 87 51 64
        E 0 8e 4e 64
        E 0 97 4f 64
        E 0 9e 4c 64
        E 0 87 4f 64
        E 0 8e 4c 64
        E 0 88 45 64
        E 0 8d 32 64
        E 1 94 51 64
        E 0 95 4e 64
        E 0 97 51 64
        E 0 9e 4e 64
        E 0 98 45 64
        E 0 9d 32 64
        E 0 87 51 64
        E 0 8e 4e 64
        E 0 97 4e 64
        E 0 9e 4a 64
        E 0 84 51 64
        E 0 85 4e 64
        E 0 87 4e 64
        E 0 8e 4a 64
        E 0 88 45 64
        E 0 8d 32 64
        E 0 94 53 64
        E 0 95 4e 64
        E 0 97 53 64
        E 0 9e 4e 64
        E 0 98 42 64
        E 0 9d 32 64
        E 0 87 53 64
        E 0 8e 4e 64
        E 0 97 4e 64
        E 0 9e 4a 64
        E 0 84 53 64
        E 0 85 4e 64
        E 0 87 4e 64
        E 0 8e 4a 64
        E 0 88 42 64
        E 0 8d 32 64
        E 0 94 53 64
        E 0 95 4e 64
        E 0 97 53 64
        E 0 9e 4e 64
        E 0 98 42 64
        E 0 9d 3e 64
        E 0 87 53 64
        E 0 8e 4e 64
        E 0 97 4e 64
        E 0 9e 4a 64
        E 0 84 53 64
        E 0 85 4e 64
        E 0 87 4e 64
        E 0 8e 4a 64
        E 0 88 42 64
        E 0 8d 3e 64
        E 0 94 53 64
        E 0 95 4e 64
        E 0 97 53 64
        E 0 9e 4e 64
        E 0 98 42 64
        E 0 9d 32 64
        E 0 87 53 64
        E 0 8e 4e 64
        E 1 97 4e 64
        E 0 9e 4a 64
        E 0 84 53 64
        E 0 85 4e 64
        E 0 87 4e 64
        E 0 8e 4a 64
        E 0 88 42 64
        E 0 8d 32 64
        E 0 94 53 64
        E 0 95 4e 64
        E 0 97 53 64
        E 0 9e 4e 64
        E 0 98 42 64
        E 0 9d 32 64
        E 0 87 53 64
        E 0 8e 4e 64
        E 0 97 4e 64
        E 0 9e 4a 64
        E 0 84 53 64
        E 0 85 4e 64
        E 0 87 4e 64
        E 0 8e 4a 64
        E 0 88 42 64
        E 0 8d 32 64
        E 0 94 53 64
        E 0 95 4f 64
        E 0 97 53 64
        E 0 9e 4f 64
        E 0 98 40 64
        E 0 9d 31 64
        E 0 87 53 64
        E 0 8e 4f 64
        E 0 97 4f 64
        E 0 9e 4c 64
        E 0 84 53 64
        E 0 85 4f 64
        E 0 87 4f 64
        E 0 8e 4c 64
        E 0 88 40 64
        E 0 8d 31 64
        E 0 94 53 64
        E 0 95 4f 64
        E 0 97 53 64
        E 0 9e 4f 64
        E 0 98 40 64
        E 0 9d 3d 64
        E 0 87 53 64
        E 0 8e 4f 64
        E 1 97 4f 64
        E 0 9e 4c 64
        E 0 84 53 64
        E 0 85 4f 64
        E 0 87 4f 64
        E 0 8e 4c 64
        E 0 88 40 64
        E 0 8d 3d 64
        E 0 94 53 64
        E 0 95 4f 64
        E 0 97 53 64
        E 0 9e 4f 64
        E 0 98 40 64
        E 0 9d 31 64
        E 0 87 53 64
        E 0 8e 4f 64
        E 0 97 4f 64
        E 0 9e 4c 64
        E 0 84 53 64
        E 0 85 4f 64
        E 0 87 4f 64
        E 0 8e 4c 64
        E 0 88 40 64
        E 0 8d 31 64
        E 0 94 53 64
        E 0 95 4f 64
        E 0 97 53 64
        E 0 9e 4f 64
        E 0 98 40 64
        E 0 9d 31 64
        E 0 87 53 64
        E 0 8e 4f 64
        E 0 97 4f 64
        E 0 9e 4c 64
        E 0 84 53 64
        E 0 85 4f 64
        E 0 87 4f 64
        E 0 8e 4c 64
        E 0 88 40 64
        E 0 8d 31 64
        E 0 94 51 64
        E 0 95 4c 64
        E 0 97 51 64
        E 0 9e 4c 64
        E 0 98 45 64
        E 0 9d 31 64
        E 0 87 51 64
        E 0 8e 4c 64
        E 0 97 4c 64
        E 0 9e 49 64
        E 0 84 51 64
        E 0 85 4c 64
        E 0 87 4c 64
        E 1 8e 49 64
        E 0 88 45 64
        E 0 8d 31 64
        E 0 94 51 64
        E 0 95 4c 64
        E 0 97 51 64
        E 0 9e 4c 64
        E 0 98 45 64
        E 0 9d 3d 64
        E 0 87 51 64
        E 0 8e 4c 64
        E 0 97 4c 64
        E 0 9e 49 64
        E 0 84 51 64
        E 0 85 4c 64
        E 0 87 4c 64
        E 0 8e 49 64
        E 0 88 45 64
        E 0 8d 3d 64
        E 0 94 51 64
        E 0 95 4c 64
        E 1 97 51 64
        E 0 9e 4c 64
        E 0 98 45 64
        E 0 9d 31 64
        E 0 87 51 64
        E 0 8e 4c 64
        E 0 97 4c 64
        E 0 9e 49 64
        E 0 84 51 64
        E 0 85 4c 64
        E 0 87 4c 64
        E 0 8e 49 64
        E 0 88 45 64
        E 0 8d 31 64
        E 0 94 51 64
        E 0 95 4c 64
        E 0 97 51 64
        E 0 9e 4c 64
        E 0 98 45 64
        E 0 9d 31 64
        E 0 87 51 64
        E 0 8e 4c 64
        E 0 97 4c 64
        E 0 9e 49 64
        E 0 84 51 64
        E 0 85 4c 64
        E 0 87 4c 64
        E 0 8e 49 64
        E 0 88 45 64
        E 0 8d 31 64
        E 0 94 51 64
        E 0 95 4e 64
        E 0 97 51 64
        E 0 9e 4e 64
        E 0 98 3e 64
        E 0 9d 2f 64
        E 0 87 51 64
        E 0 8e 4e 64
        E 0 97 4e 64
        E 0 9e 4a 64
        E 0 84 51 64
        E 0 85 4e 64
        E 0 87 4e 64
        E 0 8e 4a 64
        E 0 88 3e 64
        E 0 8d 2f 64
        E 0 94 51 64
        E 0 95 4e 64
        E 0 97 51 64
        E 0 9e 4e 64
        E 0 98 3e 64
        E 0 9d 3b 64
        E 0 87 51 64
        E 0 8e 4e 64
        E 0 97 4e 64
        E 0 9e 4a 64
        E 0 84 51 64
        E 0 85 4e 64
        E 0 87 4e 64
        E 0 8e 4a 64
        E 0 88 3e 64
        E 0 8d 3b 64
        E 0 94 51 64
        E 0 95 4e 64
        E 0 97 51 64
        E 0 9e 4e 64
        E 0 98 3e 64
        E 0 9d 2f 64
        E 1 87 51 64
        E 0 8e 4e 64
        E 0 97 4e 64
        E 0 9e 4a 64
        E 0 84 51 64
        E 0 85 4e 64
        E 0 87 4e 64
        E 0 8e 4a 64
        E 0 88 3e 64
        E 0 8d 2f 64
        E 0 94 51 64
        E 0 95 4e 64
        E 0 97 51 64
        E 0 9e 4e 64
        E 0 98 3e 64
        E 0 9d 2f 64
        E 0 87 51 64
        E 0 8e 4e 64
        E 0 97 4e 64
        E 0 9e 4a 64
        E 0 84 51 64
        E 0 85 4e 64
        E 0 87 4e 64
        E 0 8e 4a 64
        E 0 88 3e 64
        E 0 8d 2f 64
        E 0 94 4f 64
        E 0 95 4a 64
        E 0 97 4f 64
        E 0 9e 4a 64
        E 0 98 43 64
        E 0 9d 2f 64
        E 0 87 4f 64
        E 0 8e 4a 64
        E 0 97 4a 64
        E 0 9e 47 64
        E 0 84 4f 64
        E 0 85 4a 64
        E 0 87 4a 64
        E 0 8e 47 64
        E 0 88 43 64
        E 0 8d 2f 64
        E 0 94 4f 64
        E 0 95 4a 64
        E 0 97 4f 64
        E 0 9e 4a 64
        E 0 98 43 64
        E 0 9d 3b 64
        E 0 87 4f 64
        E 0 8e 4a 64
        E 0 97 4a 64
        E 0 9e 47 64
        E 0 84 4f 64
        E 0 85 4a 64
        E 0 87 4a 64
        E 0 8e 47 64
        E 0 88 43 64
        E 0 8d 3b 64
        E 0 94 4f 64
        E 0 95 4a 64
        E 0 97 4f 64
        E 1 9e 4a 64
        E 0 98 43 64
        E 0 9d 2f 64
        E 0 87 4f 64
        E 0 8e 4a 64
        E 0 97 4a 64
        E 0 9e 47 64
        E 0 84 4f 64
        E 0 85 4a 64
        E 0 87 4a 64
        E 0 8e 47 64
        E 0 88 43 64
        E 0 8d 2f 64
        E 0 94 4f 64
        E 0 95 4a 64
        E 0 97 4f 64
        E 0 9e 4a 64
        E 0 98 43 64
        E 0 9d 2f 64
        E 0 87 4f 64
        E 0 8e 4a 64
        E 0 97 4a 64
        E 0 9e 47 64
        E 0 84 4f 64
        E 0 85 4a 64
        E 0 87 4a 64
        E 0 8e 47 64
        E 0 88 43 64
        E 0 8d 2f 64
        E 0 94 4f 64
        E 0 95 4c 64
        E 0 97 4f 64
        E 0 9e 4c 64
        E 0 98 3d 64
        E 0 9d 2d 64
        E 0 87 4f 64
        E 0 97 4c 64
        E 0 87 4c 64
        E 0 88 3d 64
        E 0 8d 2d 64
        E 0 97 4f 64
        E 0 98 3d 64
        E 0 9d 39 64
        E 0 87 4f 64
        E 0 97 4c 64
        E 0 84 4f 64
        E 0 85 4c 64
        E 0 87 4c 64
        E 0 8e 4c 64
        E 0 88 3d 64
        E 0 8d 39 64
        E 0 97 4f 64
        E 0 98 3d 64
        E 1 9d 2d 64
        E 0 87 4f 64
        E 0 97 4c 64
        E 0 87 4c 64
        E 0 88 3d 64
        E 0 8d 2d 64
        E 0 97 4f 64
        E 0 98 3d 64
        E 0 9d 2d 64
        E 0 87 4f 64
        E 0 97 4c 64
        E 0 87 4c 64
        E 0 88 3d 64
        E 0 8d 2d 64
        E 0 94 4f 64
        E 0 95 4c 64
        E 0 97 4c 64
        E 0 9e 4f 64
        E 0 98 3d 64
        E 0 9d 2d 64
        E 0 87 4c 64
        E 0 8e 4f 64
        E 0 97 49 64
        E 0 9e 4c 64
        E 0 87 49 64
        E 0 8e 4c 64
        E 0 88 3d 64
        E 0 8d 2d 64
        E 0 97 4c 64
        E 0 9e 4f 64
        E 0 98 3d 64
        E 0 9d 39 64
        E 0 87 4c 64
        E 0 8e 4f 64
        E 0 97 49 64
        E 0 9e 4c 64
        E 0 84 4f 64
        E 0 85 4c 64
        E 0 87 49 64
        E 0 8e 4c 64
        E 0 88 3d 64
        E 0 8d 39 64
        E 0 97 4c 64
        E 0 9e 4f 64
        E 0 98 3d 64
        E 0 9d 2d 64
        E 0 87 4c 64
        E 0 8e 4f 64
        E 0 97 49 64
        E 0 9e 4c 64
        E 0 87 49 64
        E 0 8e 4c 64
        E 0 88 3d 64
        E 0 8d 2d 64
        E 1 97 4c 64
        E 0 9e 4f 64
        E 0 98 3d 64
        E 1 9d 2d 64
        E 1 87 4c 64
        E 0 8e 4f 64
        E 0 97 49 64
        E 0 9e 4c 64
        E 0 87 49 64
        E 0 8e 4c 64
        E 0 88 3d 64
        E 0 8d 2d 64
        E 0 94 4f 64
        E 0 95 4c 64
        E 0 97 49 64
        E 0 9e 4c 64
        E 0 98 3d 64
        E 0 9d 2d 64
        E 0 87 49 64
        E 0 8e 4c 64
        E 0 97 43 64
        E 0 9e 49 64
        E 0 87 43 64
        E 0 8e 49 64
        E 0 88 3d 64
        E 0 8d 2d 64
        E 0 97 49 64
        E 0 9e 4c 64
        E 0 98 3d 64
        E 0 9d 39 64
        E 0 87 49 64
        E 0 8e 4c 64
        E 0 97 43 64
        E 0 9e 49 64
        E 0 84 4f 64
        E 0 85 4c 64
        E 0 87 43 64
        E 0 8e 49 64
        E 0 88 3d 64
        E 0 8d 39 64
        E 0 97 49 64
        E 0 9e 4c 64
        E 0 98 3d 64
        E 0 9d 2d 64
        E 0 87 49 64
        E 0 8e 4c 64
        E 0 97 43 64
        E 0 9e 49 64
        E 0 87 43 64
        E 0 8e 49 64
        E 0 88 3d 64
        E 0 8d 2d 64
        E 1 97 49 64
        E 0 9e 4c 64
        E 0 98 3d 64
        E 0 9d 2d 64
        E 0 87 49 64
        E 0 8e 4c 64
        E 0 97 43 64
        E 0 9e 49 64
        E 0 87 43 64
        E 0 8e 49 64
        E 0 88 3d 64
        E 0 8d 2d 64
        E 0 94 4f 64
        E 0 95 4c 64
        E 0 97 40 64
        E 0 9e 49 64
        E 0 98 3d 64
        E 0 9d 2d 64
        E 0 87 40 64
        E 0 8e 49 64
        E 0 97 3d 64
        E 0 9e 43 64
        E 0 87 3d 64
        E 0 8e 43 64
        E 0 88 3d 64
        E 0 8d 2d 64
        E 0 97 40 64
        E 0 9e 49 64
        E 0 98 3d 64
        E 0 9d 39 64
        E 0 87 40 64
        E 0 8e 49 64
        E 0 97 3d 64
        E 0 9e 43 64
        E 0 84 4f 64
        E 0 85 4c 64
        E 0 87 3d 64
        E 0 8e 43 64
        E 0 88 3d 64
        E 0 8d 39 64
        E 0 97 40 64
        E 1 9e 49 64
        E 0 98 3d 64
        E 0 9d 2d 64
        E 0 87 40 64
        E 0 8e 49 64
        E 0 97 3d 64
        E 0 9e 43 64
        E 0 87 3d 64
        E 0 8e 43 64
        E 0 88 3d 64
        E 0 8d 2d 64
        E 0 97 40 64
        E 0 9e 49 64
        E 0 98 3d 64
        E 0 9d 2d 64
        E 0 87 40 64
        E 0 8e 49 64
        E 0 97 3d 64
        E 0 9e 43 64
        E 0 87 3d 64
        E 0 8e 43 64
        E 0 88 3d 64
        E 0 8d 2d 64
        E 0 94 4f 64
        E 0 95 4c 64
        E 0 97 37 64
        E 0 9e 40 64
        E 0 98 3d 64
        E 0 9d 2d 64
        E 0 84 4f 64
        E 0 85 4c 64
        E 0 87 37 64
        E 0 8e 40 64
        E 0 88 3d 64
        E 0 8d 2d 64
        E 19203 94 4e 64
        E 1 95 4a 64
        E 0 97 51 64
        E 0 9e 4e 64
        E 0 98 45 64
        E 0 9d 32 64
        E 0 87 51 64
        E 0 8e 4e 64
        E 0 97 4e 64
        E 0 9e 4a 64
        E 0 84 4e 64
        E 0 85 4a 64
        E 0 87 4e 64
        E 0 8e 4a 64
        E 0 88 45 64
        E 0 8d 32 64
        E 0 94 4e 64
        E 0 95 4a 64
        E 0 97 51 64
        E 0 9e 4e 64
        E 0 98 45 64
        E 1 9d 3e 64
        E 0 87 51 64
        E 0 8e 4e 64
        E 0 97 4e 64
        E 0 9e 4a 64
        E 0 84 4e 64
        E 0 85 4a 64
        E 0 87 4e 64
        E 0 8e 4a 64
        E 0 88 45 64
        E 0 8d 3e 64
        E 0 94 4e 64
        E 0 95 4a 64
        E 0 97 51 64
        E 0 9e 4e 64
        E 0 98 45 64
        E 0 9d 32 64
        E 0 87 51 64
        E 0 8e 4e 64
        E 0 97 4e 64
        E 0 9e 4a 64
        E 0 84 4e 64
        E 0 85 4a 64
        E 0 87 4e 64
        E 0 8e 4a 64
        E 0 88 45 64
        E 0 8d 32 64
        E 0 94 4e 64
        E 1 95 4a 64
        E 0 97 51 64
        E 0 9e 4e 64
        E 0 98 45 64
        E 0 9d 32 64
        E 0 87 51 64
        E 0 8e 4e 64
        E 0 97 4e 64
        E 0 9e 4a 64
        E 0 84 4e 64
        E 0 85 4a 64
        E 0 87 4e 64
        E 0 8e 4a 64
        E 0 88 45 64
        E 0 8d 32 64
        E 2 94 4c 64
        E 1 95 4a 64
        E 0 97 51 64
        E 0 9e 4c 64
        E 1 98 45 64
        E 0 9d 2d 64
        E 0 87 51 64
        E 0 8e 4c 64
        E 0 97 4c 64
        E 0 9e 4a 64
        E 0 84 4c 64
        E 0 85 4a 64
        E 0 87 4c 64
        E 0 8e 4a 64
        E 0 88 45 64
        E 0 8d 2d 64
        E 0 94 4c 64
        E 0 95 4a 64
        E 0 97 51 64
        E 0 9e 4c 64
        E 0 98 45 64
        E 0 9d 39 64
        E 0 87 51 64
        E 0 8e 4c 64
        E 0 97 4c 64
        E 1 9e 4a 64
        E 2 84 4c 64
        E 0 85 4a 64
        E 0 87 4c 64
        E 0 8e 4a 64
        E 0 88 45 64
        E 0 8d 39 64
        E 1 94 4c 64
        E 0 95 4a 64
        E 0 97 51 64
        E 0 9e 4c 64
        E 0 98 45 64
        E 0 9d 2d 64
        E 0 87 51 64
        E 0 8e 4c 64
        E 0 97 4c 64
        E 0 9e 4a 64
        E 0 84 4c 64
        E 0 85 4a 64
        E 0 87 4c 64
        E 0 8e 4a 64
        E 0 88 45 64
        E 0 8d 2d 64
        E 0 94 4c 64
        E 0 95 4a 64
        E 0 97 51 64
        E 0 9e 4c 64
        E 0 98 45 64
        E 0 9d 2d 64
        E 0 87 51 64
        E 0 8e 4c 64
        E 0 97 4c 64
        E 0 9e 4a 64
        E 0 84 4c 64
        E 0 85 4a 64
        E 0 87 4c 64
        E 0 8e 4a 64
        E 0 88 45 64
        E 0 8d 2d 64
        E 0 94 4c 64
        E 0 95 49 64
        E 0 97 51 64
        E 1 9e 4c 64
        E 0 98 45 64
        E 0 9d 2d 64
        E 0 87 51 64
        E 0 8e 4c 64
        E 0 97 4c 64
        E 0 9e 49 64
        E 0 84 4c 64
        E 0 85 49 64
        E 0 87 4c 64
        E 0 8e 49 64
        E 0 88 45 64
        E 0 8d 2d 64
        E 0 94 4c 64
        E 0 95 49 64
        E 0 97 51 64
        E 0 9e 4c 64
        E 0 98 45 64
        E 0 9d 39 64
        E 0 87 51 64
        E 0 8e 4c 64
        E 0 97 4c 64
        E 0 9e 49 64
        E 1 84 4c 64
        E 0 85 49 64
        E 0 87 4c 64
        E 0 8e 49 64
        E 0 88 45 64
        E 0 8d 39 64
        E 0 94 4c 64
        E 0 95 49 64
        E 0 97 51 64
        E 0 9e 4c 64
        E 0 98 45 64
        E 0 9d 2d 64
        E 0 87 51 64
        E 0 8e 4c 64
        E 0 97 4c 64
        E 0 9e 49 64
        E 0 84 4c 64
        E 0 85 49 64
        E 0 87 4c 64
        E 0 8e 49 64
        E 0 88 45 64
        E 0 8d 2d 64
        E 0 94 4c 64
        E 0 95 49 64
        E 0 97 51 64
        E 0 9e 4c 64
        E 0 98 45 64
        E 0 9d 2d 64
        E 0 87 51 64
        E 0 8e 4c 64
        E 0 97 4c 64
        E 0 9e 49 64
        E 0 84 4c 64
        E 0 85 49 64
        E 0 87 4c 64
        E 0 8e 49 64
        E 0 88 45 64
        E 0 8d 2d 64
        E 0 94 4e 64
        E 0 95 4a 64
        E 1 97 4e 64
        E 0 9e 4a 64
        E 0 98 45 64
        E 0 9d 32 64
        E 0 87 4e 64
        E 0 97 51 64
        E 0 87 51 64
        E 0 97 4e 64
        E 0 87 4e 64
        E 0 97 51 64
        E 0 84 4e 64
        E 0 85 4a 64
        E 0 87 51 64
        E 0 8e 4a 64
        E 0 88 45 64
        E 0 8d 32 64
        E 0 97 4a 64
        E 0 9e 4e 64
        E 0 87 4a 64
        E 0 8e 4e 64
        E 0 97 4e 64
        E 0 9e 51 64
        E 0 87 4e 64
        E 0 8e 51 64
        E 0 97 4a 64
        E 0 9e 4e 64
        E 0 87 4a 64
        E 0 8e 4e 64
        E 0 97 4e 64
        E 1 9e 51 64
        E 0 87 4e 64
        E 0 8e 51 64
        E 0 94 4e 64
        E 0 95 4a 64
        E 0 97 45 64
        E 0 9e 4a 64
        E 0 98 42 64
        E 0 9d 32 64
        E 0 87 45 64
        E 0 8e 4a 64
        E 0 97 4a 64
        E 0 9e 4e 64
        E 0 87 4a 64
        E 0 8e 4e 64
        E 0 97 45 64
        E 0 9e 4a 64
        E 0 87 45 64
        E 0 8e 4a 64
        E 0 97 4a 64
        E 0 9e 4e 64
        E 0 84 4e 64
        E 0 85 4a 64
        E 0 87 4a 64
        E 0 8e 4e 64
        E 0 88 42 64
        E 0 8d 32 64
        E 0 97 42 64
        E 0 9e 45 64
        E 0 87 42 64
        E 0 8e 45 64
        E 0 97 45 64
        E 0 9e 4a 64
        E 0 87 45 64
        E 0 8e 4a 64
        E 0 97 42 64
        E 0 9e 45 64
        E 0 87 42 64
        E 0 8e 45 64
        E 0 97 45 64
        E 0 9e 4a 64
        E 0 87 45 64
        E 0 8e 4a 64
        E 0 94 3e 64
        E 0 95 3e 64
        E 0 97 3e 64
        E 0 9e 42 64
        E 0 98 3e 64
        E 0 9d 32 64
        E 0 85 3e 64
        E 0 87 3e 64
        E 0 8e 42 64
        E 0 88 3e 64
        E 0 8d 32 64
        E 0 95 3e 64
        E 0 97 3e 64
        E 0 9e 3e 64
        E 0 98 3e 64
        E 0 9d 32 64
        E 0 85 3e 64
        E 0 87 3e 64
        E 0 8e 3e 64
        E 0 88 3e 64
        E 0 8d 32 64
        E 0 95 40 64
        E 0 97 40 64
        E 0 9e 40 64
        E 1 98 40 64
        E 0 9d 34 64
        E 0 84 3e 64
        E 0 85 40 64
        E 0 87 40 64
        E 0 8e 40 64
        E 0 88 40 64
        E 0 8d 34 64
        E 0 94 42 64
        E 0 95 42 64
        E 0 97 42 64
        E 0 9e 42 64
        E 0 98 42 64
        E 0 9d 36 64
        E 0 85 42 64
        E 0 87 42 64
        E 0 8e 42 64
        E 0 88 42 64
        E 0 8d 36 64
        E 0 95 42 64
        E 0 97 42 64
        E 0 9e 42 64
        E 0 98 42 64
        E 0 9d 36 64
        E 0 85 42 64
        E 0 87 42 64
        E 0 8e 42 64
        E 0 88 42 64
        E 0 8d 36 64
        E 0 95 43 64
        E 0 97 43 64
        E 0 9e 43 64
        E 0 98 43 64
        E 0 9d 37 64
        E 0 84 42 64
        E 0 85 43 64
        E 0 87 43 64
        E 0 8e 43 64
        E 0 88 43 64
        E 0 8d 37 64
        E 0 94 45 64
        E 0 95 45 64
        E 0 97 45 64
        E 0 9e 45 64
        E 0 98 45 64
        E 0 9d 39 64
        E 0 84 45 64
        E 0 85 45 64
        E 0 87 45 64
        E 0 8e 45 64
        E 0 88 45 64
        E 0 8d 39 64
        E 0 94 3e 64
        E 0 95 3e 64
        E 0 97 3e 64
        E 0 9e 3e 64
        E 0 98 3e 64
        E 1 9d 32 64
        E 0 84 3e 64
        E 0 85 3e 64
        E 0 87 3e 64
        E 0 8e 3e 64
        E 0 88 3e 64
        E 0 8d 32 64
        E 0 94 45 64
        E 0 95 45 64
        E 0 97 45 64
        E 0 9e 45 64
        E 0 98 45 64
        E 0 9d 39 64
        E 0 84 45 64
        E 0 85 45 64
        E 0 87 45 64
        E 0 8e 45 64
        E 0 88 45 64
        E 0 8d 39 64
        E 0 94 45 64
        E 0 95 45 64
        E 0 97 39 64
        E 0 9e 39 64
        E 0 98 39 64
        E 0 9d 2d 64
        E 0 84 45 64
        E 0 85 45 64
        E 0 87 39 64
        E 0 8e 39 64
        E 0 88 39 64
        E 0 8d 2d 64
        E 0 94 3e 64
        E 0 95 3e 64
        E 0 97 3e 64
        E 0 9e 3e 64
        E 0 98 3e 64
        E 0 9d 32 64
        E 0 84 3e 64
        E 0 85 3e 64
        E 0 87 3e 64
        E 0 8e 3e 64
        E 0 88 3e 64
        E 0 8d 32 64
        E 19202 97 47 64
        E 0 98 42 64
        E 0 9d 2f 64
        E 0 88 42 64
        E 0 8d 2f 64
        E 0 98 42 64
        E 0 9d 2f 64
        E 0 87 47 64
        E 0 88 42 64
        E 0 8d 2f 64
        E 0 97 42 64
        E 1 98 3e 64
        E 0 9d 2f 64
        E 0 88 3e 64
        E 0 8d 2f 64
        E 0 98 3e 64
        E 0 9d 2f 64
        E 0 87 42 64
        E 0 88 3e 64
        E 0 8d 2f 64
        E 0 97 3e 64
        E 0 98 3b 64
        E 0 9d 2f 64
        E 0 88 3b 64
        E 0 8d 2f 64
        E 0 98 3b 64
        E 0 9d 2f 64
        E 0 87 3e 64
        E 0 88 3b 64
        E 0 8d 2f 64
        E 0 97 3b 64
        E 0 9e 47 64
        E 0 98 36 64
        E 0 9d 2f 64
        E 0 88 36 64
        E 0 8d 2f 64
        E 0 98 36 64
        E 0 9d 2f 64
        E 0 87 3b 64
        E 0 8e 47 64
        E 0 88 36 64
        E 0 8d 2f 64
        E 0 9e 42 64
        E 0 98 3e 64
        E 0 9d 2f 64
        E 0 88 3e 64
        E 1 8d 2f 64
        E 0 98 3e 64
        E 0 9d 2f 64
        E 0 8e 42 64
        E 0 88 3e 64
        E 0 8d 2f 64
        E 0 9e 3e 64
        E 0 98 3b 64
        E 0 9d 2f 64
        E 0 88 3b 64
        E 0 8d 2f 64
        E 0 98 3b 64
        E 0 9d 2f 64
        E 0 8e 3e 64
        E 0 88 3b 64
        E 0 8d 2f 64
        E 0 97 47 64
        E 0 9e 3b 64
        E 0 98 36 64
        E 0 9d 2f 64
        E 0 87 47 64
        E 0 88 36 64
        E 0 8d 2f 64
        E 0 97 42 64
        E 0 98 36 64
        E 0 9d 2f 64
        E 0 87 42 64
        E 0 8e 3b 64
        E 0 88 36 64
        E 0 8d 2f 64
        E 0 97 47 64
        E 0 98 3e 64
        E 0 9d 2f 64
        E 0 87 47 64
        E 0 88 3e 64
        E 0 8d 2f 64
        E 0 97 4a 64
        E 0 98 3e 64
        E 0 9d 2f 64
        E 0 87 4a 64
        E 0 88 3e 64
        E 0 8d 2f 64
        E 0 97 4e 64
        E 0 98 3e 64
        E 0 9d 2f 64
        E 0 87 4e 64
        E 0 88 3e 64
        E 0 8d 2f 64
        E 0 97 47 64
        E 0 98 3e 64
        E 1 9d 2f 64
        E 0 87 47 64
        E 0 88 3e 64
        E 0 8d 2f 64
        E 0 97 49 64
        E 0 9e 46 64
        E 0 98 3d 64
        E 0 9d 36 64
        E 0 8e 46 64
        E 0 88 3d 64
        E 0 8d 36 64
        E 0 9e 42 64
        E 0 98 3d 64
        E 0 9d 36 64
        E 0 87 49 64
        E 0 8e 42 64
        E 0 88 3d 64
        E 0 8d 36 64
        E 0 9e 46 64
        E 0 98 3d 64
        E 0 9d 36 64
        E 0 8e 46 64
        E 0 88 3d 64
        E 0 8d 36 64
        E 0 9e 49 64
        E 0 98 3d 64
        E 0 9d 36 64
        E 4778 8e 49 64
        E 0 88 3d 64
        E 0 8d 36 64
        E 1 9e 4e 64
        E 0 98 46 64
        E 0 9d 36 64
        E 0 8e 4e 64
        E 0 88 46 64
        E 0 8d 36 64
        E 0 9e 49 64
        E 0 98 46 64
        E 0 9d 36 64
        E 0 8e 49 64
        E 0 88 46 64
        E 0 8d 36 64
        E 0 9e 4a 64
        E 0 98 42 64
        E 0 9d 2f 64
        E 0 97 47 64
        E 0 87 47 64
        E 0 88 42 64
        E 0 8d 2f 64
        E 0 97 47 64
        E 0 98 42 64
        E 0 9d 2f 64
        E 0 87 47 64
        E 0 97 47 64
        E 0 87 47 64
        E 0 8e 4a 64
        E 0 88 42 64
        E 0 8d 2f 64
        E 0 97 4a 64
        E 0 98 42 64
        E 0 9d 2f 64
        E 0 87 4a 64
        E 0 97 47 64
        E 0 87 47 64
        E 0 88 42 64
        E 0 8d 2f 64
        E 0 97 47 64
        E 0 98 42 64
        E 0 9d 2f 64
        E 0 87 47 64
        E 0 97 47 64
        E 19213 87 47 64
        E 0 88 42 64
        E 0 8d 2f 64
        E 0 97 42 64
        E 0 98 3e 64
        E 0 9d 2f 64
        E 0 87 42 64
        E 0 97 47 64
        E 0 87 47 64
        E 0 88 3e 64
        E 0 8d 2f 64
        E 0 97 47 64
        E 0 98 3e 64
        E 0 9d 2f 64
        E 0 87 47 64
        E 0 97 47 64
        E 0 87 47 64
        E 0 88 3e 64
        E 0 8d 2f 64
        E 0 97 43 64
        E 0 98 3b 64
        E 0 9d 34 64
        E 0 9e 4c 64
        E 0 8e 4c 64
        E 0 88 3b 64
        E 1 8d 34 64
        E 0 9e 4c 64
        E 0 98 3b 64
        E 0 9d 34 64
        E 0 8e 4c 64
        E 0 9e 4c 64
        E 0 87 43 64
        E 0 8e 4c 64
        E 0 88 3b 64
        E 0 8d 34 64
        E 0 9e 4f 64
        E 0 98 3b 64
        E 0 9d 34 64
        E 0 8e 4f 64
        E 0 9e 4c 64
        E 0 8e 4c 64
        E 0 88 3b 64
        E 0 8d 34 64
        E 0 9e 4c 64
        E 0 98 3b 64
        E 0 9d 34 64
        E 0 8e 4c 64
        E 0 9e 4c 64
        E 0 8e 4c 64
        E 0 88 3b 64
        E 0 8d 34 64
        E 0 9e 47 64
        E 0 98 43 64
        E 0 9d 34 64
        E 0 8e 47 64
        E 0 9e 4c 64
        E 0 8e 4c 64
        E 0 88 43 64
        E 0 8d 34 64
        E 0 9e 4c 64
        E 0 98 43 64
        E 1 9d 34 64
        E 0 8e 4c 64
        E 0 9e 4c 64
        E 0 8e 4c 64
        E 0 88 43 64
        E 0 8d 34 64
        E 0 9e 49 64
        E 0 98 3a 64
        E 0 9d 36 64
        E 0 8e 49 64
        E 0 97 4e 64
        E 0 9e 49 64
        E 0 87 4e 64
        E 0 8e 49 64
        E 0 88 3a 64
        E 0 8d 36 64
        E 0 97 4e 64
        E 0 9e 49 64
        E 0 98 3a 64
        E 0 9d 36 64
        E 0 87 4e 64
        E 0 8e 49 64
        E 0 97 4e 64
        E 0 9e 49 64
        E 0 87 4e 64
        E 0 8e 49 64
        E 0 88 3a 64
        E 0 8d 36 64
        E 0 97 52 64
        E 0 9e 4e 64
        E 0 98 3d 64
        E 0 9d 36 64
        E 0 87 52 64
        E 0 8e 4e 64
        E 0 97 4e 64
        E 0 9e 49 64
        E 0 87 4e 64
        E 0 8e 49 64
        E 0 88 3d 64
        E 0 8d 36 64
        E 0 97 4e 64
        E 0 9e 49 64
        E 0 98 3a 64
        E 0 9d 36 64
        E 0 87 4e 64
        E 0 8e 49 64
        E 0 97 4e 64
        E 0 9e 49 64
        E 0 87 4e 64
        E 0 8e 49 64
        E 0 88 3a 64
        E 0 8d 36 64
        E 0 97 52 64
        E 0 9e 4e 64
        E 0 98 3d 64
        E 0 9d 34 64
        E 0 87 52 64
        E 0 8e 4e 64
        E 0 97 4e 64
        E 0 9e 49 64
        E 1 87 4e 64
        E 0 8e 49 64
        E 0 88 3d 64
        E 0 8d 34 64
        E 0 97 4e 64
        E 0 9e 49 64
        E 0 98 3d 64
        E 0 9d 34 64
        E 0 87 4e 64
        E 0 8e 49 64
        E 0 97 4e 64
        E 0 9e 49 64
        E 0 87 4e 64
        E 0 8e 49 64
        E 0 88 3d 64
        E 0 8d 34 64
        E 0 97 53 64
        E 0 9e 4e 64
        E 0 98 3e 64
        E 0 9d 32 64
        E 0 87 53 64
        E 0 8e 4e 64
        E 0 88 3e 64
        E 0 8d 32 64
        E 0 97 4e 64
        E 0 9e 4a 64
        E 1 98 42 64
        E 0 9d 32 64
        E 0 87 4e 64
        E 0 8e 4a 64
        E 0 88 42 64
        E 0 8d 32 64
        E 0 97 53 64
        E 0 9e 49 64
        E 0 98 43 64
        E 0 9d 34 64
        E 0 87 53 64
        E 0 8e 49 64
        E 0 88 43 64
        E 0 8d 34 64
        E 0 97 4a 64
        E 0 9e 47 64
        E 0 98 43 64
        E 0 9d 34 64
        E 0 87 4a 64
        E 0 8e 47 64
        E 0 88 43 64
        E 0 8d 34 64
        E 0 97 49 64
        E 0 9e 46 64
        E 0 98 3d 64
        E 0 9d 36 64
        E 0 87 49 64
        E 0 8e 46 64
        E 0 88 3d 64
        E 0 8d 36 64
        E 0 97 52 64
        E 0 9e 49 64
        E 0 98 42 64
        E 0 9d 36 64
        E 0 87 52 64
        E 0 8e 49 64
        E 0 88 42 64
        E 0 8d 36 64
        E 0 97 53 64
        E 0 9e 4a 64
        E 0 98 42 64
        E 0 9d 2f 64
        E 0 88 42 64
        E 0 8d 2f 64
        E 0 98 42 64
        E 0 9d 2f 64
        E 0 87 53 64
        E 0 8e 4a 64
        E 0 88 42 64
        E 0 8d 2f 64
        E 0 97 4e 64
        E 0 98 3e 64
        E 0 9d 2f 64
        E 0 88 3e 64
        E 0 8d 2f 64
        E 0 98 3e 64
        E 1 9d 2f 64
        E 0 87 4e 64
        E 0 88 3e 64
        E 0 8d 2f 64
        E 0 97 4a 64
        E 0 98 42 64
        E 0 9d 2f 64
        E 0 88 42 64
        E 0 8d 2f 64
        E 0 98 42 64
        E 0 9d 2f 64
        E 19202 87 4a 64
        E 0 88 42 64
        E 0 8d 2f 64
        E 1 97 47 64
        E 0 9e 53 64
        E 0 98 40 64
        E 0 9d 34 64
        E 0 88 40 64
        E 0 8d 34 64
        E 0 98 40 64
        E 0 9d 34 64
        E 0 87 47 64
        E 0 8e 53 64
        E 0 88 40 64
        E 0 8d 34 64
        E 0 9e 4f 64
        E 0 98 40 64
        E 0 9d 34 64
        E 0 88 40 64
        E 0 8d 34 64
        E 0 98 40 64
        E 0 9d 34 64
        E 0 8e 4f 64
        E 0 88 40 64
        E 0 8d 34 64
        E 0 9e 4c 64
        E 0 98 40 64
        E 0 9d 34 64
        E 0 88 40 64
        E 0 8d 34 64
        E 0 98 40 64
        E 0 9d 34 64
        E 0 8e 4c 64
        E 0 88 40 64
        E 0 8d 34 64
        E 0 9e 48 64
        E 0 98 40 64
        E 0 9d 34 64
        E 0 88 40 64
        E 0 8d 34 64
        E 0 97 43 64
        E 0 98 40 64
        E 0 9d 34 64
        E 0 87 43 64
        E 0 8e 48 64
        E 0 88 40 64
        E 0 8d 34 64
        E 0 97 48 64
        E 0 98 43 64
        E 0 9d 34 64
        E 0 87 48 64
        E 0 88 43 64
        E 0 8d 34 64
        E 0 97 4c 64
        E 0 98 43 64
        E 0 9d 34 64
        E 0 87 4c 64
        E 1 88 43 64
        E 0 8d 34 64
        E 0 97 4f 64
        E 0 98 43 64
        E 0 9d 34 64
        E 0 87 4f 64
        E 0 88 43 64
        E 0 8d 34 64
        E 0 97 53 64
        E 0 98 43 64
        E 0 9d 34 64
        E 0 87 53 64
        E 0 88 43 64
        E 0 8d 34 64
        E 0 97 49 64
        E 0 98 42 64
        E 0 9d 2a 64
        E 0 88 42 64
        E 0 8d 2a 64
        E 0 9e 42 64
        E 0 98 42 64
        E 0 9d 2a 64
        E 0 87 49 64
        E 0 8e 42 64
        E 0 88 42 64
        E 0 8d 2a 64
        E 0 9e 46 64
        E 0 98 3d 64
        E 0 9d 2a 64
        E 0 8e 46 64
        E 0 88 3d 64
        E 0 8d 2a 64
        E 0 9e 49 64
        E 0 98 3d 64
        E 1 9d 2a 64
        E 0 8e 49 64
        E 0 88 3d 64
        E 0 8d 2a 64
        E 0 9e 4e 64
        E 0 98 3d 64
        E 0 9d 2a 64
        E 0 8e 4e 64
        E 0 88 3d 64
        E 0 8d 2a 64
        E 0 9e 46 64
        E 0 98 3d 64
        E 0 9d 2a 64
        E 0 8e 46 64
        E 0 88 3d 64
        E 0 8d 2a 64
        E 0 97 53 64
        E 0 9e 42 64
        E 0 98 3e 64
        E 0 9d 2f 64
        E 0 88 3e 64
        E 0 8d 2f 64
        E 0 98 3e 64
        E 0 9d 2f 64
        E 0 87 53 64
        E 0 8e 42 64
        E 0 88 3e 64
        E 0 8d 2f 64
        E 0 97 4e 64
        E 0 98 3e 64
        E 0 9d 2f 64
        E 0 88 3e 64
        E 0 8d 2f 64
        E 1 98 3e 64
        E 0 9d 2f 64
        E 0 87 4e 64
        E 0 88 3e 64
        E 0 8d 2f 64
        E 0 97 4a 64
        E 0 98 42 64
        E 0 9d 2f 64
        E 0 88 42 64
        E 0 8d 2f 64
        E 0 98 42 64
        E 0 9d 2f 64
        E 0 87 4a 64
        E 0 88 42 64
        E 0 8d 2f 64
        E 0 97 47 64
        E 0 9e 53 64
        E 0 98 40 64
        E 0 9d 34 64
        E 0 88 40 64
        E 0 8d 34 64
        E 0 98 40 64
        E 0 9d 34 64
        E 1160 87 47 64
        E 0 8e 53 64
        E 0 88 40 64
        E 0 8d 34 64
        E 0 9e 4f 64
        E 0 98 40 64
        E 0 9d 34 64
        E 0 88 40 64
        E 0 8d 34 64
        E 0 98 40 64
        E 0 9d 34 64
        E 19203 8e 4f 64
        E 0 88 40 64
        E 0 8d 34 64
        E 0 9e 4c 64
        E 0 98 40 64
        E 0 9d 34 64
        E 0 88 40 64
        E 0 8d 34 64
        E 0 98 40 64
        E 0 9d 34 64
        E 0 8e 4c 64
        E 0 88 40 64
        E 0 8d 34 64
        E 0 9e 48 64
        E 0 98 40 64
        E 0 9d 34 64
        E 0 88 40 64
        E 0 8d 34 64
        E 0 97 43 64
        E 0 98 40 64
        E 0 9d 34 64
        E 0 87 43 64
        E 0 8e 48 64
        E 0 88 40 64
        E 0 8d 34 64
        E 0 97 48 64
        E 0 98 43 64
        E 0 9d 34 64
        E 0 87 48 64
        E 0 88 43 64
        E 0 8d 34 64
        E 0 97 4c 64
        E 0 98 43 64
        E 0 9d 34 64
        E 0 87 4c 64
        E 0 88 43 64
        E 0 8d 34 64
        E 0 97 4f 64
        E 0 98 43 64
        E 0 9d 34 64
        E 0 87 4f 64
        E 0 88 43 64
        E 0 8d 34 64
        E 0 97 53 64
        E 0 98 43 64
        E 0 9d 34 64
        E 0 87 53 64
        E 0 88 43 64
        E 0 8d 34 64
        E 0 97 49 64
        E 0 98 42 64
        E 0 9d 36 64
        E 0 88 42 64
        E 0 8d 36 64
        E 0 9e 42 64
        E 0 98 42 64
        E 0 9d 36 64
        E 0 87 49 64
        E 0 8e 42 64
        E 0 88 42 64
        E 0 8d 36 64
        E 1 9e 46 64
        E 0 98 3d 64
        E 0 9d 36 64
        E 0 8e 46 64
        E 0 88 3d 64
        E 0 8d 36 64
        E 0 9e 49 64
        E 0 98 3d 64
        E 0 9d 36 64
        E 0 8e 49 64
        E 0 88 3d 64
        E 0 8d 36 64
        E 0 9e 4e 64
        E 0 98 3d 64
        E 0 9d 36 64
        E 0 8e 4e 64
        E 0 88 3d 64
        E 0 8d 36 64
        E 0 9e 46 64
        E 0 98 3d 64
        E 0 9d 36 64
        E 0 8e 46 64
        E 0 88 3d 64
        E 0 8d 36 64
        E 0 9e 42 64
        E 0 98 3b 64
        E 0 9d 2f 64
        E 0 88 3b 64
        E 0 8d 2f 64
        E 0 97 47 64
        E 0 98 3b 64
        E 0 9d 2f 64
        E 0 87 47 64
        E 0 8e 42 64
        E 0 88 3b 64
        E 0 8d 2f 64
        E 0 97 4a 64
        E 0 98 42 64
        E 0 9d 2f 64
        E 0 87 4a 64
        E 0 88 42 64
        E 0 8d 2f 64
        E 0 97 4e 64
        E 0 98 42 64
        E 0 9d 2f 64
        E 0 87 4e 64
        E 0 88 42 64
        E 0 8d 2f 64
        E 0 97 53 64
        E 0 98 42 64
        E 0 9d 2f 64
        E 0 87 53 64
        E 0 88 42 64
        E 0 8d 2f 64
        E 0 97 4e 64
        E 0 98 42 64
        E 0 9d 2f 64
        E 0 87 4e 64
        E 0 88 42 64
        E 0 8d 2f 64
        E 0 97 4b 64
        E 0 98 42 64
        E 0 9d 2d 64
        E 0 88 42 64
        E 0 8d 2d 64
        E 0 9e 47 64
        E 0 98 42 64
        E 1 9d 2d 64
        E 0 87 4b 64
        E 0 8e 47 64
        E 0 88 42 64
        E 0 8d 2d 64
        E 0 9e 4b 64
        E 0 98 3b 64
        E 0 9d 2d 64
        E 0 8e 4b 64
        E 0 88 3b 64
        E 0 8d 2d 64
        E 0 9e 4e 64
        E 0 98 3b 64
        E 0 9d 2d 64
        E 0 8e 4e 64
        E 0 88 3b 64
        E 0 8d 2d 64
        E 0 9e 53 64
        E 0 98 3b 64
        E 0 9d 2d 64
        E 0 8e 53 64
        E 0 88 3b 64
        E 0 8d 2d 64
        E 0 9e 4e 64
        E 0 98 3b 64
        E 0 9d 2d 64
        E 13208 8e 4e 64
        E 1 88 3b 64
        E 0 8d 2d 64
        E 0 9e 47 64
        E 0 98 3b 64
        E 0 9d 2b 64
        E 0 97 4f 64
        E 0 87 4f 64
        E 0 88 3b 64
        E 0 8d 2b 64
        E 0 97 4f 64
        E 0 98 3b 64
        E 0 9d 2b 64
        E 0 87 4f 64
        E 0 97 4f 64
        E 0 87 4f 64
        E 0 8e 47 64
        E 0 88 3b 64
        E 0 8d 2b 64
        E 0 97 53 64
        E 0 98 40 64
        E 0 9d 2b 64
        E 0 87 53 64
        E 0 97 4f 64
        E 0 87 4f 64
        E 0 88 40 64
        E 0 8d 2b 64
        E 0 97 4f 64
        E 0 98 40 64
        E 0 9d 2b 64
        E 0 87 4f 64
        E 0 97 4f 64
        E 0 87 4f 64
        E 0 88 40 64
        E 0 8d 2b 64
        E 0 97 53 64
        E 0 98 3d 64
        E 0 9d 2b 64
        E 0 87 53 64
        E 0 97 4f 64
        E 0 87 4f 64
        E 0 88 3d 64
        E 0 8d 2b 64
        E 0 97 4f 64
        E 0 98 3d 64
        E 0 9d 2b 64
        E 0 87 4f 64
        E 0 97 4f 64
        E 0 87 4f 64
        E 0 88 3d 64
        E 0 8d 2b 64
        E 0 97 53 64
        E 0 98 41 63
        E 0 9d 31 64
        E 0 9e 50 64
        E 0 8e 50 64
        E 0 88 41 63
        E 0 8d 31 64
        E 0 9e 50 64
        E 1 98 41 63
        E 0 9d 31 64
        E 0 8e 50 64
        E 0 9e 50 64
        E 0 87 53 64
        E 0 8e 50 64
        E 0 88 41 63
        E 0 8d 31 64
        E 0 9e 53 64
        E 0 98 41 63
        E 0 9d 31 64
        E 0 8e 53 64
        E 0 9e 50 64
        E 0 8e 50 64
        E 0 88 41 63
        E 0 8d 31 64
        E 0 9e 50 64
        E 0 98 41 63
        E 0 9d 31 64
        E 0 8e 50 64
        E 0 9e 50 64
        E 0 8e 50 64
        E 0 88 41 63
        E 0 8d 31 64
        E 0 9e 53 64
        E 0 98 41 63
        E 0 9d 31 64
        E 0 8e 53 64
        E 0 9e 50 64
        E 0 8e 50 64
        E 0 88 41 63
        E 0 8d 31 64
        E 0 9e 50 64
        E 0 98 41 63
        E 0 9d 31 64
        E 0 8e 50 64
        E 0 9e 50 64
        E 0 8e 50 64
        E 0 88 41 63
        E 0 8d 31 64
        E 0 97 4e 64
        E 0 9e 49 64
        E 0 98 42 64
        E 0 9d 36 64
        E 0 88 42 64
        E 0 8d 36 64
        E 0 98 42 64
        E 0 9d 36 64
        E 0 87 4e 64
        E 0 8e 49 64
        E 0 88 42 64
        E 0 8d 36 64
        E 0 97 49 64
        E 0 98 42 64
        E 0 9d 36 64
        E 0 88 42 64
        E 0 8d 36 64
        E 0 98 42 64
        E 1 9d 36 64
        E 0 87 49 64
        E 0 88 42 64
        E 0 8d 36 64
        E 0 97 45 64
        E 0 98 3d 64
        E 0 9d 36 64
        E 0 88 3d 64
        E 0 8d 36 64
        E 9 98 3d 64
        E 0 9d 36 64
        E 3488 87 45 64
        E 0 88 3d 64
        E 0 8d 36 64
        E 0 97 3d 64
        E 0 9e 4e 64
        E 0 98 3d 64
        E 0 9d 36 64
        E 0 88 3d 64
        E 0 8d 36 64
        E 0 98 3d 64
        E 0 9d 36 64
        E 0 87 3d 64
        E 0 8e 4e 64
        E 0 88 3d 64
        E 0 8d 36 64
        E 0 9e 49 64
        E 0 98 3d 64
        E 0 9d 36 64
        E 0 88 3d 64
        E 0 8d 36 64
        E 0 98 3d 64
        E 0 9d 36 64
        E 19202 8e 49 64
        E 0 88 3d 64
        E 0 8d 36 64
        E 0 9e 46 64
        E 0 98 3d 64
        E 0 9d 34 64
        E 0 88 3d 64
        E 0 8d 34 64
        E 0 98 3d 64
        E 0 9d 34 64
        E 0 8e 46 64
        E 0 88 3d 64
        E 0 8d 34 64
        E 0 9e 42 64
        E 0 98 3b 64
        E 0 9d 32 64
        E 0 88 3b 64
        E 0 8d 32 64
        E 0 97 47 64
        E 0 98 3b 64
        E 0 9d 32 64
        E 0 87 47 64
        E 0 8e 42 64
        E 0 88 3b 64
        E 0 8d 32 64
        E 0 97 4a 64
        E 0 98 42 64
        E 0 9d 32 64
        E 1 87 4a 64
        E 0 88 42 64
        E 0 8d 32 64
        E 0 97 4e 64
        E 0 98 42 64
        E 0 9d 32 64
        E 0 87 4e 64
        E 0 88 42 64
        E 0 8d 32 64
        E 0 97 53 64
        E 0 98 42 64
        E 0 9d 2f 64
        E 0 87 53 64
        E 0 88 42 64
        E 0 8d 2f 64
        E 0 97 4e 64
        E 0 98 42 64
        E 0 9d 2f 64
        E 0 87 4e 64
        E 0 88 42 64
        E 0 8d 2f 64
        E 0 97 47 64
        E 0 98 42 64
        E 0 9d 2d 64
        E 0 88 42 64
        E 0 8d 2d 64
        E 1 9e 47 64
        E 0 98 42 64
        E 0 9d 2d 64
        E 0 87 47 64
        E 0 8e 47 64
        E 0 88 42 64
        E 0 8d 2d 64
        E 0 9e 4b 64
        E 0 98 42 64
        E 0 9d 2d 64
        E 0 8e 4b 64
        E 0 88 42 64
        E 0 8d 2d 64
        E 0 9e 4e 64
        E 0 98 42 64
        E 0 9d 2d 64
        E 0 8e 4e 64
        E 0 88 42 64
        E 0 8d 2d 64
        E 0 9e 53 64
        E 0 98 42 64
        E 0 9d 2d 64
        E 0 8e 53 64
        E 0 88 42 64
        E 0 8d 2d 64
        E 0 9e 4e 64
        E 0 98 42 64
        E 0 9d 2d 64
        E 0 8e 4e 64
        E 0 88 42 64
        E 0 8d 2d 64
        E 0 9e 47 64
        E 0 98 43 64
        E 0 9d 2b 64
        E 0 97 4f 64
        E 0 87 4f 64
        E 0 88 43 64
        E 0 8d 2b 64
        E 0 97 4f 64
        E 0 98 43 64
        E 0 9d 2b 64
        E 0 87 4f 64
        E 0 97 4f 64
        E 0 87 4f 64
        E 0 8e 47 64
        E 0 88 43 64
        E 1 8d 2b 64
        E 0 97 53 64
        E 0 98 43 64
        E 0 9d 2b 64
        E 0 87 53 64
        E 0 97 4f 64
        E 0 87 4f 64
        E 0 88 43 64
        E 0 8d 2b 64
        E 0 97 4f 64
        E 0 98 43 64
        E 0 9d 2b 64
        E 0 87 4f 64
        E 1 97 4f 64
        E 0 87 4f 64
        E 0 88 43 64
        E 0 8d 2b 64
        E 0 97 53 64
        E 0 98 43 64
        E 0 9d 37 64
        E 0 87 53 64
        E 0 97 4f 64
        E 0 87 4f 64
        E 0 88 43 64
        E 0 8d 37 64
        E 0 97 4f 64
        E 0 98 43 64
        E 0 9d 37 64
        E 0 87 4f 64
        E 0 97 4f 64
        E 0 87 4f 64
        E 0 88 43 64
        E 0 8d 37 64
        E 0 97 53 64
        E 0 98 41 63
        E 0 9d 31 64
        E 0 9e 50 64
        E 0 8e 50 64
        E 0 88 41 63
        E 0 8d 31 64
        E 0 9e 50 64
        E 0 98 41 63
        E 0 9d 31 64
        E 0 8e 50 64
        E 0 9e 50 64
        E 0 87 53 64
        E 0 8e 50 64
        E 0 88 41 63
        E 0 8d 31 64
        E 0 9e 53 64
        E 0 98 41 63
        E 0 9d 31 64
        E 0 8e 53 64
        E 0 9e 50 64
        E 0 8e 50 64
        E 0 88 41 63
        E 0 8d 31 64
        E 0 9e 50 64
        E 0 98 41 63
        E 0 9d 31 64
        E 0 8e 50 64
        E 0 9e 50 64
        E 0 8e 50 64
        E 0 88 41 63
        E 0 8d 31 64
        E 0 9e 53 64
        E 0 98 41 63
        E 0 9d 31 64
        E 0 8e 53 64
        E 0 9e 50 64
        E 0 8e 50 64
        E 0 88 41 63
        E 0 8d 31 64
        E 0 9e 50 64
        E 0 98 41 63
        E 0 9d 31 64
        E 0 8e 50 64
        E 0 9e 50 64
        E 11268 8e 50 64
        E 0 88 41 63
        E 0 8d 31 64
        E 0 97 4e 64
        E 0 9e 51 64
        E 0 98 3d 64
        E 0 9d 36 64
        E 0 88 3d 64
        E 0 8d 36 64
        E 0 98 3d 64
        E 0 9d 36 64
        E 0 87 4e 64
        E 0 8e 51 64
        E 0 88 3d 64
        E 0 8d 36 64
        E 0 97 49 64
        E 0 98 3d 64
        E 0 9d 36 64
        E 0 88 3d 64
        E 0 8d 36 64
        E 0 98 3d 64
        E 0 9d 36 64
        E 0 87 49 64
        E 0 88 3d 64
        E 0 8d 36 64
        E 1 97 45 64
        E 0 98 3d 64
        E 0 9d 36 64
        E 0 88 3d 64
        E 0 8d 36 64
        E 0 98 3d 64
        E 0 9d 36 64
        E 0 87 45 64
        E 0 88 3d 64
        E 0 8d 36 64
        E 0 97 3d 64
        E 0 9e 4e 64
        E 0 98 3d 64
        E 0 9d 36 64
        E 0 88 3d 64
        E 0 8d 36 64
        E 0 98 3d 64
        E 0 9d 36 64
        E 0 87 3d 64
        E 0 8e 4e 64
        E 0 88 3d 64
        E 0 8d 36 64
        E 0 9e 49 64
        E 0 98 3d 64
        E 0 9d 36 64
        E 0 88 3d 64
        E 0 8d 36 64
        E 0 98 3d 64
        E 0 9d 36 64
        E 0 8e 49 64
        E 0 88 3d 64
        E 0 8d 36 64
        E 0 9e 46 64
        E 0 98 3d 64
        E 0 9d 36 64
        E 0 88 3d 64
        E 0 8d 36 64
        E 0 98 3d 64
        E 0 9d 36 64
        E 0 8e 46 64
        E 0 88 3d 64
        E 0 8d 36 64
        E 0 9e 42 64
        E 0 98 3e 64
        E 0 9d 2f 64
        E 0 88 3e 64
        E 0 8d 2f 64
        E 0 97 4a 64
        E 0 98 3e 64
        E 0 9d 2f 64
        E 0 87 4a 64
        E 0 8e 42 64
        E 0 88 3e 64
        E 0 8d 2f 64
        E 0 97 4e 64
        E 0 98 3e 64
        E 0 9d 2f 64
        E 0 87 4e 64
        E 0 88 3e 64
        E 0 8d 2f 64
        E 0 97 53 64
        E 0 98 3e 64
        E 0 9d 2f 64
        E 19203 87 53 64
        E 0 88 3e 64
        E 0 8d 2f 64
        E 0 97 4e 64
        E 0 98 3e 64
        E 0 9d 2f 64
        E 0 87 4e 64
        E 0 88 3e 64
        E 0 8d 2f 64
        E 0 97 4a 64
        E 0 98 3e 64
        E 0 9d 2f 64
        E 0 87 4a 64
        E 0 88 3e 64
        E 0 8d 2f 64
        E 0 97 47 64
        E 0 98 42 64
        E 0 9d 2f 64
        E 0 88 42 64
        E 0 8d 2f 64
        E 0 9e 4a 64
        E 0 98 42 64
        E 0 9d 2f 64
        E 0 87 47 64
        E 0 8e 4a 64
        E 0 88 42 64
        E 0 8d 2f 64
        E 0 9e 4e 64
        E 0 98 42 64
        E 0 9d 2f 64
        E 0 8e 4e 64
        E 0 88 42 64
        E 0 8d 2f 64
        E 1 9e 53 64
        E 0 98 42 64
        E 0 9d 2f 64
        E 0 8e 53 64
        E 0 88 42 64
        E 0 8d 2f 64
        E 0 9e 4e 64
        E 0 98 47 64
        E 0 9d 2f 64
        E 0 8e 4e 64
        E 0 88 47 64
        E 0 8d 2f 64
        E 0 9e 4a 64
        E 0 98 47 64
        E 0 9d 2f 64
        E 0 8e 4a 64
        E 0 88 47 64
        E 0 8d 2f 64
        E 0 9e 49 64
        E 0 98 44 64
        E 0 9d 31 64
        E 0 97 4d 63
        E 0 87 4d 63
        E 0 88 44 64
        E 0 8d 31 64
        E 0 97 4d 63
        E 0 98 44 64
        E 0 9d 31 64
        E 0 87 4d 63
        E 0 97 4d 63
        E 0 87 4d 63
        E 0 8e 49 64
        E 0 88 44 64
        E 0 8d 31 64
        E 0 97 50 64
        E 0 98 41 63
        E 0 9d 31 64
        E 0 87 50 64
        E 0 97 49 64
        E 0 87 49 64
        E 0 88 41 63
        E 0 8d 31 64
        E 0 97 49 64
        E 0 98 41 63
        E 0 9d 31 64
        E 0 87 49 64
        E 1 97 49 64
        E 0 87 49 64
        E 0 88 41 63
        E 0 8d 31 64
        E 0 97 51 64
        E 0 98 3d 64
        E 0 9d 36 64
        E 0 87 51 64
        E 0 97 49 64
        E 0 87 49 64
        E 0 88 3d 64
        E 0 8d 36 64
        E 0 97 49 64
        E 0 98 3d 64
        E 0 9d 36 64
        E 0 87 49 64
        E 0 97 49 64
        E 0 87 49 64
        E 0 88 3d 64
        E 0 8d 36 64
        E 0 97 51 64
        E 0 98 3d 64
        E 0 9d 31 64
        E 0 9e 49 64
        E 0 8e 49 64
        E 0 88 3d 64
        E 0 8d 31 64
        E 0 9e 49 64
        E 0 98 3d 64
        E 0 9d 31 64
        E 0 8e 49 64
        E 0 9e 49 64
        E 0 87 51 64
        E 0 8e 49 64
        E 0 88 3d 64
        E 0 8d 31 64
        E 0 9e 50 64
        E 0 98 41 63
        E 0 9d 31 64
        E 0 8e 50 64
        E 0 9e 49 64
        E 0 8e 49 64
        E 0 88 41 63
        E 0 8d 31 64
        E 0 9e 49 64
        E 1 98 41 63
        E 0 9d 31 64
        E 0 8e 49 64
        E 0 9e 49 64
        E 0 8e 49 64
        E 0 88 41 63
        E 0 8d 31 64
        E 0 9e 4d 63
        E 0 98 44 64
        E 0 9d 31 64
        E 0 8e 4d 63
        E 0 9e 49 64
        E 0 8e 49 64
        E 0 88 44 64
        E 0 8d 31 64
        E 0 9e 49 64
        E 0 98 44 64
        E 0 9d 31 64
        E 0 8e 49 64
        E 0 9e 49 64
        E 0 8e 49 64
        E 0 88 44 64
        E 0 8d 31 64
        E 0 97 4e 64
        E 0 9e 51 64
        E 0 98 42 64
        E 0 9d 36 64
        E 0 88 42 64
        E 0 8d 36 64
        E 0 98 42 64
        E 0 9d 36 64
        E 0 87 4e 64
        E 0 8e 51 64
        E 0 88 42 64
        E 0 8d 36 64
        E 0 97 4a 64
        E 0 98 45 64
        E 0 9d 36 64
        E 0 88 45 64
        E 0 8d 36 64
        E 0 98 45 64
        E 0 9d 36 64
        E 0 87 4a 64
        E 0 88 45 64
        E 0 8d 36 64
        E 0 97 45 64
        E 0 98 42 64
        E 0 9d 36 64
        E 0 88 42 64
        E 0 8d 36 64
        E 0 98 42 64
        E 0 9d 36 64
        E 19203 87 45 64
        E 0 88 42 64
        E 0 8d 36 64
        E 0 97 43 64
        E 0 9e 4f 64
        E 0 98 3e 64
        E 0 9d 2f 64
        E 0 88 3e 64
        E 0 8d 2f 64
        E 0 98 3e 64
        E 0 9d 2f 64
        E 1 87 43 64
        E 0 8e 4f 64
        E 0 88 3e 64
        E 0 8d 2f 64
        E 0 9e 4a 64
        E 0 98 3e 64
        E 0 9d 2f 64
        E 0 88 3e 64
        E 0 8d 2f 64
        E 0 98 3e 64
        E 0 9d 2f 64
        E 0 8e 4a 64
        E 0 88 3e 64
        E 0 8d 2f 64
        E 0 9e 47 64
        E 0 98 3e 64
        E 0 9d 2f 64
        E 0 88 3e 64
        E 0 8d 2f 64
        E 0 98 3e 64
        E 0 9d 2f 64
        E 0 8e 47 64
        E 0 88 3e 64
        E 0 8d 2f 64
        E 0 9e 44 64
        E 0 98 3d 64
        E 0 9d 31 64
        E 0 88 3d 64
        E 0 8d 31 64
        E 0 97 44 64
        E 0 98 3d 64
        E 0 9d 31 64
        E 0 87 44 64
        E 0 8e 44 64
        E 0 88 3d 64
        E 0 8d 31 64
        E 0 97 49 64
        E 0 98 3d 64
        E 0 9d 31 64
        E 0 87 49 64
        E 0 88 3d 64
        E 0 8d 31 64
        E 0 97 4d 63
        E 0 98 3d 64
        E 0 9d 31 64
        E 0 87 4d 63
        E 0 88 3d 64
        E 0 8d 31 64
        E 0 97 50 64
        E 0 98 3d 64
        E 0 9d 31 64
        E 0 87 50 64
        E 0 88 3d 64
        E 0 8d 31 64
        E 0 97 4d 63
        E 0 98 3d 64
        E 0 9d 31 64
        E 0 87 4d 63
        E 0 88 3d 64
        E 0 8d 31 64
        E 0 97 49 64
        E 1 98 3d 64
        E 0 9d 36 64
        E 0 88 3d 64
        E 0 8d 36 64
        E 0 9e 45 64
        E 0 98 3d 64
        E 0 9d 36 64
        E 0 87 49 64
        E 0 8e 45 64
        E 0 88 3d 64
        E 0 8d 36 64
        E 0 9e 49 64
        E 0 98 3d 64
        E 0 9d 36 64
        E 0 8e 49 64
        E 0 88 3d 64
        E 0 8d 36 64
        E 0 9e 4e 64
        E 0 98 3d 64
        E 0 9d 36 64
        E 0 8e 4e 64
        E 0 88 3d 64
        E 0 8d 36 64
        E 0 9e 51 64
        E 0 98 3d 64
        E 0 9d 36 64
        E 0 8e 51 64
        E 0 88 3d 64
        E 0 8d 36 64
        E 0 9e 4e 64
        E 0 98 3d 64
        E 0 9d 36 64
        E 0 8e 4e 64
        E 0 88 3d 64
        E 0 8d 36 64
        E 0 9e 45 64
        E 0 98 42 64
        E 0 9d 36 64
        E 0 97 45 64
        E 0 87 45 64
        E 0 88 42 64
        E 0 8d 36 64
        E 0 97 45 64
        E 0 98 42 64
        E 0 9d 36 64
        E 0 87 45 64
        E 0 97 45 64
        E 0 87 45 64
        E 0 8e 45 64
        E 0 88 42 64
        E 0 8d 36 64
        E 1 97 4e 64
        E 0 98 45 64
        E 0 9d 36 64
        E 0 87 4e 64
        E 0 97 45 64
        E 0 87 45 64
        E 0 88 45 64
        E 0 8d 36 64
        E 0 97 45 64
        E 0 98 45 64
        E 0 9d 36 64
        E 0 87 45 64
        E 0 97 45 64
        E 0 87 45 64
        E 0 88 45 64
        E 0 8d 36 64
        E 0 97 4e 64
        E 0 98 45 64
        E 0 9d 36 64
        E 0 87 4e 64
        E 0 97 45 64
        E 0 87 45 64
        E 0 88 45 64
        E 0 8d 36 64
        E 0 97 45 64
        E 0 98 45 64
        E 0 9d 36 64
        E 0 87 45 64
        E 0 97 45 64
        E 0 87 45 64
        E 0 88 45 64
        E 0 8d 36 64
        E 0 97 4b 64
        E 0 98 44 64
        E 0 9d 38 64
        E 0 9e 4b 64
        E 0 8e 4b 64
        E 0 88 44 64
        E 0 8d 38 64
        E 0 9e 4b 64
        E 0 98 44 64
        E 1 9d 38 64
        E 19202 8e 4b 64
        E 0 9e 4b 64
        E 1 87 4b 64
        E 0 8e 4b 64
        E 0 88 44 64
        E 0 8d 38 64
        E 0 9e 50 64
        E 0 98 48 63
        E 0 9d 38 64
        E 0 8e 50 64
        E 0 9e 4b 64
        E 0 8e 4b 64
        E 0 88 48 63
        E 0 8d 38 64
        E 0 9e 4b 64
        E 0 98 48 63
        E 0 9d 38 64
        E 0 8e 4b 64
        E 0 9e 4b 64
        E 0 8e 4b 64
        E 0 88 48 63
        E 0 8d 38 64
        E 0 9e 50 64
        E 0 98 48 63
        E 0 9d 38 64
        E 0 8e 50 64
        E 0 9e 4b 64
        E 0 8e 4b 64
        E 0 88 48 63
        E 0 8d 38 64
        E 0 9e 4b 64
        E 0 98 48 63
        E 0 9d 38 64
        E 0 8e 4b 64
        E 0 9e 4b 64
        E 0 8e 4b 64
        E 0 88 48 63
        E 0 8d 38 64
        E 0 9e 4c 64
        E 0 98 44 64
        E 0 9d 31 64
        E 0 97 44 64
        E 0 87 44 64
        E 1 88 44 64
        E 0 8d 31 64
        E 0 97 44 64
        E 0 98 44 64
        E 0 9d 31 64
        E 0 87 44 64
        E 0 97 44 64
        E 0 87 44 64
        E 0 8e 4c 64
        E 0 88 44 64
        E 0 8d 31 64
        E 0 97 48 63
        E 0 98 44 64
        E 0 9d 38 64
        E 0 87 48 63
        E 0 97 44 64
        E 0 87 44 64
        E 0 88 44 64
        E 0 8d 38 64
        E 0 97 44 64
        E 0 98 44 64
        E 0 9d 38 64
        E 0 87 44 64
        E 0 97 44 64
        E 0 87 44 64
        E 0 88 44 64
        E 0 8d 38 64
        E 0 97 4b 64
        E 0 98 44 64
        E 0 9d 2c 64
        E 1 87 4b 64
        E 0 97 44 64
        E 0 87 44 64
        E 0 88 44 64
        E 0 8d 2c 64
        E 0 97 44 64
        E 0 98 44 64
        E 0 9d 2c 64
        E 0 87 44 64
        E 0 97 44 64
        E 0 87 44 64
        E 0 88 44 64
        E 0 8d 2c 64
        E 0 97 4c 64
        E 0 9e 49 64
        E 0 98 44 64
        E 0 9d 31 64
        E 0 88 44 64
        E 0 8d 31 64
        E 0 98 44 64
        E 0 9d 31 64
        E 0 87 4c 64
        E 0 8e 49 64
        E 0 88 44 64
        E 0 8d 31 64
        E 0 9e 44 64
        E 0 98 41 63
        E 0 9d 31 64
        E 0 88 41 63
        E 0 8d 31 64
        E 0 98 41 63
        E 0 9d 31 64
        E 0 8e 44 64
        E 0 88 41 63
        E 0 8d 31 64
        E 0 9e 41 63
        E 0 98 3d 64
        E 0 9d 31 64
        E 0 88 3d 64
        E 0 8d 31 64
        E 0 98 3d 64
        E 0 9d 31 64
        E 0 8e 41 63
        E 0 88 3d 64
        E 0 8d 31 64
        E 0 97 49 64
        E 0 9e 3d 64
        E 0 98 3d 64
        E 0 9d 36 64
        E 0 88 3d 64
        E 0 8d 36 64
        E 0 98 3d 64
        E 0 9d 36 64
        E 0 87 49 64
        E 0 8e 3d 64
        E 0 88 3d 64
        E 0 8d 36 64
        E 0 97 45 64
        E 0 98 3d 64
        E 0 9d 36 64
        E 0 88 3d 64
        E 0 8d 36 64
        E 0 98 3d 64
        E 0 9d 36 64
        E 0 87 45 64
        E 0 88 3d 64
        E 0 8d 36 64
        E 0 97 42 64
        E 0 98 3d 64
        E 0 9d 36 64
        E 0 88 3d 64
        E 0 8d 36 64
        E 0 98 3d 64
        E 0 9d 36 64
        E 0 87 42 64
        E 1 88 3d 64
        E 0 8d 36 64
        E 0 97 3e 64
        E 0 98 39 64
        E 0 9d 36 64
        E 0 88 39 64
        E 0 8d 36 64
        E 0 9e 45 64
        E 0 98 39 64
        E 0 9d 36 64
        E 0 87 3e 64
        E 0 8e 45 64
        E 0 88 39 64
        E 0 8d 36 64
        E 0 9e 4a 64
        E 0 98 45 64
        E 0 9d 36 64
        E 0 8e 4a 64
        E 0 88 45 64
        E 0 8d 36 64
        E 0 9e 4e 64
        E 0 98 45 64
        E 0 9d 36 64
        E 19203 8e 4e 64
        E 0 88 45 64
        E 0 8d 36 64
        E 0 9e 51 64
        E 0 98 45 64
        E 0 9d 36 64
        E 0 8e 51 64
        E 0 88 45 64
        E 0 8d 36 64
        E 0 9e 4e 64
        E 0 98 45 64
        E 0 9d 36 64
        E 0 8e 4e 64
        E 0 88 45 64
        E 0 8d 36 64
        E 0 9e 4b 64
        E 0 98 44 64
        E 0 9d 38 64
        E 0 88 44 64
        E 0 8d 38 64
        E 0 97 48 63
        E 0 98 44 64
        E 0 9d 38 64
        E 0 87 48 63
        E 0 8e 4b 64
        E 0 88 44 64
        E 0 8d 38 64
        E 0 97 4b 64
        E 0 98 44 64
        E 1 9d 38 64
        E 0 87 4b 64
        E 0 88 44 64
        E 0 8d 38 64
        E 0 97 50 64
        E 0 98 44 64
        E 0 9d 38 64
        E 0 87 50 64
        E 0 88 44 64
        E 0 8d 38 64
        E 0 97 4b 64
        E 0 98 44 64
        E 0 9d 38 64
        E 0 87 4b 64
        E 0 88 44 64
        E 0 8d 38 64
        E 0 97 48 63
        E 0 98 44 64
        E 0 9d 38 64
        E 0 87 48 63
        E 0 88 44 64
        E 0 8d 38 64
        E 0 97 44 64
        E 0 98 44 64
        E 0 9d 31 64
        E 0 9e 44 64
        E 0 8e 44 64
        E 0 88 44 64
        E 0 8d 31 64
        E 0 9e 44 64
        E 0 98 44 64
        E 0 9d 31 64
        E 0 8e 44 64
        E 0 9e 44 64
        E 0 87 44 64
        E 1 8e 44 64
        E 0 88 44 64
        E 0 8d 31 64
        E 0 9e 49 64
        E 0 98 44 64
        E 0 9d 31 64
        E 0 8e 49 64
        E 0 9e 44 64
        E 0 8e 44 64
        E 0 88 44 64
        E 0 8d 31 64
        E 0 9e 44 64
        E 0 98 44 64
        E 0 9d 31 64
        E 0 8e 44 64
        E 0 9e 44 64
        E 0 8e 44 64
        E 0 88 44 64
        E 0 8d 31 64
        E 0 9e 4c 64
        E 0 98 3d 64
        E 0 9d 31 64
        E 0 8e 4c 64
        E 0 9e 49 64
        E 0 8e 49 64
        E 0 88 3d 64
        E 0 8d 31 64
        E 0 9e 49 64
        E 0 98 3d 64
        E 0 9d 31 64
        E 0 8e 49 64
        E 0 9e 49 64
        E 0 8e 49 64
        E 0 88 3d 64
        E 0 8d 31 64
        E 0 9e 51 64
        E 0 98 3d 64
        E 0 9d 2a 64
        E 0 97 49 64
        E 0 87 49 64
        E 0 88 3d 64
        E 0 8d 2a 64
        E 0 97 49 64
        E 0 98 3d 64
        E 0 9d 2a 64
        E 0 87 49 64
        E 0 97 49 64
        E 0 87 49 64
        E 0 8e 51 64
        E 0 88 3d 64
        E 0 8d 2a 64
        E 0 97 51 64
        E 1 98 3d 64
        E 0 9d 2a 64
        E 0 87 51 64
        E 0 97 49 64
        E 0 87 49 64
        E 0 88 3d 64
        E 0 8d 2a 64
        E 0 97 49 64
        E 0 98 3d 64
        E 0 9d 2a 64
        E 0 87 49 64
        E 0 97 49 64
        E 0 87 49 64
        E 0 88 3d 64
        E 0 8d 2a 64
        E 0 97 51 64
        E 0 98 3d 64
        E 0 9d 2a 64
        E 0 87 51 64
        E 0 97 49 64
        E 0 87 49 64
        E 0 88 3d 64
        E 0 8d 2a 64
        E 0 97 49 64
        E 0 98 3d 64
        E 0 9d 2a 64
        E 0 87 49 64
        E 0 97 49 64
        E 0 87 49 64
        E 0 88 3d 64
        E 0 8d 2a 64
        E 0 97 3d 64
        E 0 9e 4c 64
        E 0 98 3d 64
        E 0 9d 2a 64
        E 0 88 3d 64
        E 0 8d 2a 64
        E 0 98 3d 64
        E 0 9d 2a 64
        E 0 87 3d 64
        E 0 8e 4c 64
        E 0 88 3d 64
        E 0 8d 2a 64
        E 0 9e 49 64
        E 1 98 3d 64
        E 0 9d 2a 64
        E 0 88 3d 64
        E 0 8d 2a 64
        E 0 98 3d 64
        E 0 9d 2a 64
        E 0 8e 49 64
        E 0 88 3d 64
        E 0 8d 2a 64
        E 0 9e 46 64
        E 0 98 3d 64
        E 0 9d 2a 64
        E 0 88 3d 64
        E 0 8d 2a 64
        E 0 98 3d 64
        E 0 9d 2a 64
        E 19203 8e 46 64
        E 0 88 3d 64
        E 0 8d 2a 64
        E 0 97 4e 64
        E 0 9e 42 64
        E 0 98 3b 64
        E 0 9d 2f 64
        E 0 88 3b 64
        E 0 8d 2f 64
        E 0 98 3b 64
        E 0 9d 2f 64
        E 0 87 4e 64
        E 0 8e 42 64
        E 0 88 3b 64
        E 0 8d 2f 64
        E 0 97 4a 64
        E 0 98 3b 64
        E 0 9d 2f 64
        E 0 88 3b 64
        E 0 8d 2f 64
        E 0 98 3b 64
        E 0 9d 2f 64
        E 0 87 4a 64
        E 0 88 3b 64
        E 0 8d 2f 64
        E 0 97 47 64
        E 0 98 36 64
        E 0 9d 2f 64
        E 0 88 36 64
        E 0 8d 2f 64
        E 0 98 36 64
        E 0 9d 2f 64
        E 0 87 47 64
        E 0 88 36 64
        E 0 8d 2f 64
        E 0 97 3f 64
        E 0 98 38 64
        E 0 9d 2c 64
        E 0 88 38 64
        E 0 8d 2c 64
        E 0 9e 42 64
        E 0 98 38 64
        E 0 9d 2c 64
        E 0 87 3f 64
        E 0 8e 42 64
        E 0 88 38 64
        E 0 8d 2c 64
        E 0 9e 48 63
        E 0 98 38 64
        E 0 9d 2c 64
        E 0 8e 48 63
        E 1 88 38 64
        E 0 8d 2c 64
        E 0 9e 4b 64
        E 0 98 38 64
        E 0 9d 2c 64
        E 0 8e 4b 64
        E 0 88 38 64
        E 0 8d 2c 64
        E 0 9e 4e 64
        E 0 98 38 64
        E 0 9d 2c 64
        E 0 8e 4e 64
        E 0 88 38 64
        E 0 8d 2c 64
        E 0 9e 48 63
        E 0 98 38 64
        E 0 9d 2c 64
        E 0 8e 48 63
        E 0 88 38 64
        E 0 8d 2c 64
        E 0 9e 44 64
        E 0 98 38 64
        E 0 9d 31 64
        E 0 88 38 64
        E 0 8d 31 64
        E 0 97 49 64
        E 0 98 38 64
        E 0 9d 31 64
        E 0 87 49 64
        E 0 8e 44 64
        E 0 88 38 64
        E 0 8d 31 64
        E 0 97 4c 64
        E 0 98 38 64
        E 1 9d 31 64
        E 0 87 4c 64
        E 0 88 38 64
        E 0 8d 31 64
        E 0 97 50 64
        E 0 98 38 64
        E 0 9d 31 64
        E 0 87 50 64
        E 0 88 38 64
        E 0 8d 31 64
        E 0 97 4c 64
        E 0 98 38 64
        E 0 9d 31 64
        E 0 87 4c 64
        E 0 88 38 64
        E 0 8d 31 64
        E 0 97 49 64
        E 0 98 38 64
        E 0 9d 31 64
        E 0 87 49 64
        E 0 88 38 64
        E 0 8d 31 64
        E 0 97 44 64
        E 1 98 38 64
        E 0 9d 31 64
        E 0 9e 49 64
        E 0 8e 49 64
        E 0 88 38 64
        E 0 8d 31 64
        E 0 9e 49 64
        E 0 98 38 64
        E 0 9d 31 64
        E 0 8e 49 64
        E 0 9e 49 64
        E 0 87 44 64
        E 1 8e 49 64
        E 0 88 38 64
        E 0 8d 31 64
        E 0 9e 4d 63
        E 0 98 38 64
        E 0 9d 31 64
        E 0 8e 4d 63
        E 0 9e 49 64
        E 0 8e 49 64
        E 0 88 38 64
        E 0 8d 31 64
        E 0 9e 49 64
        E 1 98 38 64
        E 0 9d 31 64
        E 0 8e 49 64
        E 0 9e 49 64
        E 0 8e 49 64
        E 0 88 38 64
        E 0 8d 31 64
        E 0 9e 50 64
        E 0 98 41 63
        E 0 9d 31 64
        E 0 8e 50 64
        E 0 9e 49 64
        E 0 8e 49 64
        E 0 88 41 63
        E 0 8d 31 64
        E 0 9e 49 64
        E 0 98 41 63
        E 0 9d 31 64
        E 0 8e 49 64
        E 1 9e 49 64
        E 0 8e 49 64
        E 0 88 41 63
        E 0 8d 31 64
        E 0 9e 51 64
        E 0 98 3d 64
        E 0 9d 2a 64
        E 0 97 49 64
        E 0 87 49 64
        E 0 88 3d 64
        E 0 8d 2a 64
        E 0 97 49 64
        E 0 98 3d 64
        E 0 9d 2a 64
        E 4768 87 49 64
        E 0 97 49 64
        E 0 87 49 64
        E 0 8e 51 64
        E 0 88 3d 64
        E 0 8d 2a 64
        E 0 97 51 64
        E 0 98 3d 64
        E 0 9d 2a 64
        E 0 87 51 64
        E 0 97 49 64
        E 0 87 49 64
        E 0 88 3d 64
        E 0 8d 2a 64
        E 0 97 49 64
        E 0 98 3d 64
        E 0 9d 2a 64
        E 0 87 49 64
        E 0 97 49 64
        E 0 87 49 64
        E 0 88 3d 64
        E 0 8d 2a 64
        E 0 97 51 64
        E 0 98 42 64
        E 1 9d 2a 64
        E 0 87 51 64
        E 0 97 49 64
        E 0 87 49 64
        E 0 88 42 64
        E 0 8d 2a 64
        E 0 97 49 64
        E 0 98 42 64
        E 0 9d 2a 64
        E 0 87 49 64
        E 0 97 49 64
        E 0 87 49 64
        E 0 88 42 64
        E 0 8d 2a 64
        E 0 97 47 64
        E 0 98 44 64
        E 0 9d 28 64
        E 0 88 44 64
        E 0 8d 28 64
        E 0 9e 47 64
        E 0 98 44 64
        E 0 9d 28 64
        E 352 87 47 64
        E 0 8e 47 64
        E 0 88 44 64
        E 0 8d 28 64
        E 0 9e 4c 64
        E 0 98 44 64
        E 0 9d 28 64
        E 14052 8e 4c 64
        E 0 88 44 64
        E 0 8d 28 64
        E 0 9e 50 64
        E 0 98 40 64
        E 0 9d 28 64
        E 0 8e 50 64
        E 0 88 40 64
        E 0 8d 28 64
        E 0 9e 4c 64
        E 0 98 40 64
        E 0 9d 2d 64
        E 0 8e 4c 64
        E 0 88 40 64
        E 0 8d 2d 64
        E 0 9e 49 64
        E 0 98 40 64
        E 0 9d 2d 64
        E 0 8e 49 64
        E 0 88 40 64
        E 0 8d 2d 64
        E 0 9e 45 64
        E 0 98 40 64
        E 0 9d 2d 64
        E 0 88 40 64
        E 0 8d 2d 64
        E 0 97 45 64
        E 0 98 40 64
        E 0 9d 2d 64
        E 0 87 45 64
        E 0 8e 45 64
        E 0 88 40 64
        E 0 8d 2d 64
        E 0 97 49 64
        E 0 98 45 64
        E 0 9d 2d 64
        E 0 87 49 64
        E 0 88 45 64
        E 0 8d 2d 64
        E 0 97 4c 64
        E 0 98 45 64
        E 0 9d 2d 64
        E 0 87 4c 64
        E 0 88 45 64
        E 0 8d 2d 64
        E 1 97 51 64
        E 0 98 45 64
        E 0 9d 32 64
        E 0 87 51 64
        E 0 88 45 64
        E 0 8d 32 64
        E 0 97 4e 64
        E 0 98 45 64
        E 0 9d 32 64
        E 0 87 4e 64
        E 0 88 45 64
        E 0 8d 32 64
        E 0 97 45 64
        E 0 98 45 64
        E 0 9d 2d 64
        E 0 88 45 64
        E 0 8d 2d 64
        E 0 9e 45 64
        E 0 98 45 64
        E 0 9d 2d 64
        E 0 87 45 64
        E 0 8e 45 64
        E 0 88 45 64
        E 0 8d 2d 64
        E 0 9e 49 64
        E 0 98 45 64
        E 0 9d 2d 64
        E 0 8e 49 64
        E 0 88 45 64
        E 0 8d 2d 64
        E 0 9e 4c 64
        E 0 98 45 64
        E 1 9d 2d 64
        E 0 8e 4c 64
        E 0 88 45 64
        E 0 8d 2d 64
        E 0 9e 51 64
        E 0 98 45 64
        E 0 9d 2d 64
        E 0 8e 51 64
        E 0 88 45 64
        E 0 8d 2d 64
        E 0 9e 49 64
        E 0 98 45 64
        E 0 9d 2d 64
        E 0 8e 49 64
        E 0 88 45 64
        E 0 8d 2d 64
        E 0 97 4a 64
        E 0 9e 45 64
        E 0 98 41 64
        E 0 9d 32 64
        E 0 88 41 64
        E 0 8d 32 64
        E 0 98 41 64
        E 0 9d 32 64
        E 0 87 4a 64
        E 0 8e 45 64
        E 0 88 41 64
        E 0 8d 32 64
        E 0 97 45 64
        E 0 98 41 64
        E 0 9d 32 64
        E 0 88 41 64
        E 0 8d 32 64
        E 0 98 41 64
        E 0 9d 32 64
        E 19794 87 45 64
        E 0 88 41 64
        E 0 8d 32 64
        E 0 97 41 64
        E 0 98 3e 64
        E 0 9d 32 64
        E 0 88 3e 64
        E 0 8d 32 64
        E 0 98 3e 64
        E 0 9d 32 64
        E 0 87 41 64
        E 0 88 3e 64
        E 0 8d 32 64
        E 0 97 3e 64
        E 0 9e 4a 64
        E 0 98 3a 66
        E 0 9d 37 64
        E 0 88 3a 66
        E 0 8d 37 64
        E 0 98 3a 66
        E 0 9d 37 64
        E 0 87 3e 64
        E 0 8e 4a 64
        E 0 88 3a 66
        E 0 8d 37 64
        E 0 9e 46 66
        E 0 98 3a 66
        E 0 9d 37 64
        E 0 88 3a 66
        E 0 8d 37 64
        E 0 98 3a 66
        E 1 9d 37 64
        E 0 8e 46 66
        E 0 88 3a 66
        E 0 8d 37 64
        E 0 9e 41 64
        E 0 98 3a 66
        E 0 9d 37 64
        E 0 88 3a 66
        E 0 8d 37 64
        E 0 98 3a 66
        E 0 9d 37 64
        E 0 8e 41 64
        E 0 88 3a 66
        E 0 8d 37 64
        E 0 9e 3a 66
        E 0 98 3a 66
        E 0 9d 37 64
        E 0 88 3a 66
        E 0 8d 37 64
        E 0 97 3f 66
        E 0 98 3a 66
        E 0 9d 37 64
        E 0 87 3f 66
        E 0 8e 3a 66
        E 0 88 3a 66
        E 0 8d 37 64
        E 0 97 43 64
        E 0 98 3f 66
        E 0 9d 37 64
        E 0 87 43 64
        E 0 88 3f 66
        E 0 8d 37 64
        E 0 97 46 66
        E 0 98 3f 66
        E 0 9d 37 64
        E 0 87 46 66
        E 0 88 3f 66
        E 0 8d 37 64
        E 0 97 4a 64
        E 0 98 3f 66
        E 0 9d 37 64
        E 0 87 4a 64
        E 0 88 3f 66
        E 0 8d 37 64
        E 0 97 46 66
        E 0 98 3f 66
        E 0 9d 37 64
        E 0 87 46 66
        E 0 88 3f 66
        E 0 8d 37 64
        E 0 97 40 64
        E 0 98 40 64
        E 0 9d 39 64
        E 0 88 40 64
        E 0 8d 39 64
        E 0 9e 40 64
        E 0 98 40 64
        E 1 9d 39 64
        E 0 87 40 64
        E 0 8e 40 64
        E 0 88 40 64
        E 0 8d 39 64
        E 0 9e 45 64
        E 0 98 40 64
        E 0 9d 39 64
        E 0 8e 45 64
        E 0 88 40 64
        E 0 8d 39 64
        E 0 9e 49 64
        E 0 98 40 64
        E 0 9d 39 64
        E 0 8e 49 64
        E 0 88 40 64
        E 0 8d 39 64
        E 0 9e 4c 64
        E 0 98 40 64
        E 0 9d 39 64
        E 0 8e 4c 64
        E 1 88 40 64
        E 0 8d 39 64
        E 0 9e 49 64
        E 0 98 40 64
        E 0 9d 39 64
        E 0 8e 49 64
        E 0 88 40 64
        E 0 8d 39 64
        E 0 9e 45 64
        E 0 98 42 64
        E 0 9d 32 64
        E 0 97 45 64
        E 0 87 45 64
        E 0 88 42 64
        E 0 8d 32 64
        E 0 97 45 64
        E 0 98 42 64
        E 0 9d 32 64
        E 0 87 45 64
        E 0 97 45 64
        E 0 87 45 64
        E 0 8e 45 64
        E 0 88 42 64
        E 0 8d 32 64
        E 0 97 4a 64
        E 0 98 42 64
        E 0 9d 32 64
        E 0 87 4a 64
        E 0 97 45 64
        E 0 87 45 64
        E 0 88 42 64
        E 0 8d 32 64
        E 0 97 45 64
        E 0 98 42 64
        E 0 9d 32 64
        E 0 87 45 64
        E 0 97 45 64
        E 0 87 45 64
        E 0 88 42 64
        E 0 8d 32 64
        E 0 97 4a 64
        E 0 98 42 64
        E 0 9d 32 64
        E 0 87 4a 64
        E 0 97 45 64
        E 0 87 45 64
        E 0 88 42 64
        E 0 8d 32 64
        E 0 97 45 64
        E 0 98 42 64
        E 0 9d 32 64
        E 0 87 45 64
        E 0 97 45 64
        E 19208 87 45 64
        E 0 88 42 64
        E 0 8d 32 64
        E 0 97 4e 64
        E 0 9e 48 64
        E 0 98 3e 64
        E 0 9d 32 64
        E 0 87 4e 64
        E 0 8e 48 64
        E 0 97 48 64
        E 0 9e 45 64
        E 0 87 48 64
        E 0 8e 45 64
        E 0 88 3e 64
        E 0 8d 32 64
        E 0 97 48 64
        E 0 9e 45 64
        E 0 98 3e 64
        E 0 9d 32 64
        E 0 87 48 64
        E 0 8e 45 64
        E 0 97 48 64
        E 0 9e 45 64
        E 0 87 48 64
        E 0 8e 45 64
        E 0 88 3e 64
        E 0 8d 32 64
        E 0 97 4e 64
        E 0 9e 48 64
        E 0 98 3e 64
        E 0 9d 32 64
        E 0 87 4e 64
        E 0 8e 48 64
        E 0 97 48 64
        E 0 9e 45 64
        E 0 87 48 64
        E 1 8e 45 64
        E 0 88 3e 64
        E 0 8d 32 64
        E 0 97 48 64
        E 0 9e 45 64
        E 0 98 3e 64
        E 0 9d 32 64
        E 0 87 48 64
        E 0 8e 45 64
        E 0 97 48 64
        E 0 9e 45 64
        E 0 87 48 64
        E 0 8e 45 64
        E 0 88 3e 64
        E 0 8d 32 64
        E 0 97 51 64
        E 0 9e 4e 64
        E 0 98 3e 64
        E 0 9d 32 64
        E 0 87 51 64
        E 0 8e 4e 64
        E 0 97 4e 64
        E 0 9e 45 64
        E 0 87 4e 64
        E 0 8e 45 64
        E 0 88 3e 64
        E 0 8d 32 64
        E 1 97 4e 64
        E 0 9e 45 64
        E 0 98 3e 64
        E 0 9d 32 64
        E 0 87 4e 64
        E 0 8e 45 64
        E 0 97 4e 64
        E 0 9e 45 64
        E 0 87 4e 64
        E 0 8e 45 64
        E 0 88 3e 64
        E 0 8d 32 64
        E 0 97 4f 64
        E 0 9e 46 66
        E 0 98 3e 64
        E 0 9d 37 64
        E 0 87 4f 64
        E 0 8e 46 66
        E 0 97 4a 64
        E 0 9e 46 66
        E 0 87 4a 64
        E 0 8e 46 66
        E 0 88 3e 64
        E 0 8d 37 64
        E 0 97 4a 64
        E 0 9e 46 66
        E 0 98 3e 64
        E 0 9d 37 64
        E 0 87 4a 64
        E 0 8e 46 66
        E 0 97 4a 64
        E 0 9e 46 66
        E 0 87 4a 64
        E 0 8e 46 66
        E 0 88 3e 64
        E 0 8d 37 64
        E 0 97 4f 64
        E 0 9e 4a 64
        E 0 98 3e 64
        E 0 9d 37 64
        E 0 87 4f 64
        E 0 8e 4a 64
        E 0 97 4a 64
        E 0 9e 46 66
        E 0 87 4a 64
        E 0 8e 46 66
        E 0 88 3e 64
        E 0 8d 37 64
        E 0 97 4a 64
        E 0 9e 46 66
        E 0 98 3e 64
        E 1 9d 37 64
        E 0 87 4a 64
        E 0 8e 46 66
        E 0 97 4a 64
        E 0 9e 46 66
        E 0 87 4a 64
        E 0 8e 46 66
        E 0 88 3e 64
        E 0 8d 37 64
        E 0 97 4f 64
        E 0 9e 4a 64
        E 0 98 3e 64
        E 0 9d 37 64
        E 0 87 4f 64
        E 0 8e 4a 64
        E 0 97 4a 64
        E 0 9e 46 66
        E 0 87 4a 64
        E 0 8e 46 66
        E 0 88 3e 64
        E 0 8d 37 64
        E 0 97 4a 64
        E 0 9e 46 66
        E 0 98 3e 64
        E 0 9d 37 64
        E 0 87 4a 64
        E 0 8e 46 66
        E 0 97 4a 64
        E 0 9e 46 66
        E 0 87 4a 64
        E 0 8e 46 66
        E 0 88 3e 64
        E 0 8d 37 64
        E 1 97 4f 64
        E 0 9e 4b 66
        E 0 98 3f 66
        E 0 9d 37 64
        E 0 87 4f 64
        E 0 8e 4b 66
        E 0 97 4b 66
        E 0 9e 46 66
        E 0 87 4b 66
        E 0 8e 46 66
        E 0 88 3f 66
        E 0 8d 37 64
        E 0 97 4b 66
        E 0 9e 46 66
        E 0 98 3f 66
        E 0 9d 37 64
        E 0 87 4b 66
        E 0 8e 46 66
        E 0 97 4b 66
        E 0 9e 46 66
        E 0 87 4b 66
        E 0 8e 46 66
        E 0 88 3f 66
        E 0 8d 37 64
        E 0 97 4f 64
        E 0 9e 4b 66
        E 0 98 3f 66
        E 0 9d 37 64
        E 0 87 4f 64
        E 0 8e 4b 66
        E 0 97 4b 66
        E 0 9e 46 66
        E 0 87 4b 66
        E 0 8e 46 66
        E 0 88 3f 66
        E 0 8d 37 64
        E 0 97 4b 66
        E 0 9e 46 66
        E 0 98 3f 66
        E 0 9d 37 64
        E 0 87 4b 66
        E 0 8e 46 66
        E 0 97 4b 66
        E 0 9e 46 66
        E 0 87 4b 66
        E 0 8e 46 66
        E 0 88 3f 66
        E 0 8d 37 64
        E 0 97 4f 64
        E 0 9e 4a 64
        E 0 98 3f 66
        E 0 9d 37 64
        E 0 87 4f 64
        E 0 8e 4a 64
        E 0 97 4a 64
        E 0 9e 46 66
        E 0 87 4a 64
        E 0 8e 46 66
        E 0 88 3f 66
        E 0 8d 37 64
        E 0 97 4a 64
        E 0 9e 46 66
        E 0 98 3f 66
        E 0 9d 37 64
        E 0 87 4a 64
        E 0 8e 46 66
        E 0 97 4a 64
        E 0 9e 46 66
        E 0 87 4a 64
        E 0 8e 46 66
        E 0 88 3f 66
        E 0 8d 37 64
        E 0 97 4f 64
        E 0 9e 4c 64
        E 0 98 40 64
        E 0 9d 37 64
        E 0 87 4f 64
        E 0 8e 4c 64
        E 0 97 4c 64
        E 0 9e 49 64
        E 0 87 4c 64
        E 0 8e 49 64
        E 0 88 40 64
        E 0 8d 37 64
        E 0 97 4c 64
        E 0 9e 49 64
        E 1 98 40 64
        E 0 9d 37 64
        E 0 87 4c 64
        E 0 8e 49 64
        E 0 97 4c 64
        E 0 9e 49 64
        E 0 87 4c 64
        E 0 8e 49 64
        E 0 88 40 64
        E 0 8d 37 64
        E 0 97 4f 64
        E 0 9e 4c 64
        E 0 98 40 64
        E 0 9d 37 64
        E 0 87 4f 64
        E 0 8e 4c 64
        E 0 97 4c 64
        E 0 9e 49 64
        E 0 87 4c 64
        E 0 8e 49 64
        E 0 88 40 64
        E 0 8d 37 64
        E 0 97 4c 64
        E 0 9e 49 64
        E 0 98 40 64
        E 0 9d 37 64
        E 1 87 4c 64
        E 0 8e 49 64
        E 0 97 4c 64
        E 0 9e 49 64
        E 0 87 4c 64
        E 0 8e 49 64
        E 0 88 40 64
        E 0 8d 37 64
        E 0 97 4f 64
        E 0 9e 4c 64
        E 0 98 40 64
        E 1 9d 37 64
        E 0 87 4f 64
        E 0 8e 4c 64
        E 0 97 4c 64
        E 0 9e 49 64
        E 0 87 4c 64
        E 0 8e 49 64
        E 0 88 40 64
        E 0 8d 37 64
        E 0 97 4c 64
        E 0 9e 49 64
        E 1 98 40 64
        E 0 9d 37 64
        E 0 87 4c 64
        E 0 8e 49 64
        E 0 97 4c 64
        E 0 9e 49 64
        E 0 87 4c 64
        E 0 8e 49 64
        E 0 88 40 64
        E 0 8d 37 64
        E 0 97 4f 64
        E 0 9e 4a 64
        E 0 98 41 64
        E 1 9d 35 64
        E 0 87 4f 64
        E 0 8e 4a 64
        E 0 97 4a 64
        E 0 9e 47 64
        E 0 87 4a 64
        E 0 8e 47 64
        E 0 88 41 64
        E 0 8d 35 64
        E 0 97 4a 64
        E 0 9e 47 64
        E 0 98 41 64
        E 0 9d 35 64
        E 0 87 4a 64
        E 0 8e 47 64
        E 2 97 4a 64
        E 0 9e 47 64
        E 19202 87 4a 64
        E 0 8e 47 64
        E 0 88 41 64
        E 0 8d 35 64
        E 0 97 4f 64
        E 0 9e 4a 64
        E 0 98 41 64
        E 0 9d 35 64
        E 0 87 4f 64
        E 0 8e 4a 64
        E 0 97 4a 64
        E 0 9e 47 64
        E 0 87 4a 64
        E 0 8e 47 64
        E 0 88 41 64
        E 0 8d 35 64
        E 0 97 4a 64
        E 1 9e 47 64
        E 0 98 41 64
        E 0 9d 35 64
        E 0 87 4a 64
        E 0 8e 47 64
        E 0 97 4a 64
        E 0 9e 47 64
        E 0 87 4a 64
        E 0 8e 47 64
        E 0 88 41 64
        E 0 8d 35 64
        E 0 97 4f 64
        E 0 9e 4a 64
        E 0 98 41 64
        E 0 9d 35 64
        E 0 87 4f 64
        E 0 8e 4a 64
        E 0 97 4a 64
        E 0 9e 47 64
        E 0 87 4a 64
        E 0 8e 47 64
        E 0 88 41 64
        E 0 8d 35 64
        E 0 97 4a 64
        E 0 9e 47 64
        E 0 98 41 64
        E 0 9d 35 64
        E 0 87 4a 64
        E 0 8e 47 64
        E 0 97 4a 64
        E 0 9e 47 64
        E 0 87 4a 64
        E 0 8e 47 64
        E 0 88 41 64
        E 0 8d 35 64
        E 0 97 4f 64
        E 0 9e 49 64
        E 0 98 42 64
        E 0 9d 36 64
        E 0 87 4f 64
        E 0 8e 49 64
        E 0 97 49 64
        E 0 9e 47 64
        E 0 87 49 64
        E 0 8e 47 64
        E 0 88 42 64
        E 0 8d 36 64
        E 0 97 49 64
        E 0 9e 47 64
        E 0 98 42 64
        E 0 9d 36 64
        E 0 87 49 64
        E 0 8e 47 64
        E 1 97 49 64
        E 0 9e 47 64
        E 0 87 49 64
        E 0 8e 47 64
        E 0 88 42 64
        E 0 8d 36 64
        E 0 97 4f 64
        E 0 9e 49 64
        E 0 98 42 64
        E 0 9d 36 64
        E 0 87 4f 64
        E 0 8e 49 64
        E 0 97 49 64
        E 0 9e 47 64
        E 0 87 49 64
        E 0 8e 47 64
        E 0 88 42 64
        E 0 8d 36 64
        E 0 97 49 64
        E 0 9e 47 64
        E 0 98 42 64
        E 0 9d 36 64
        E 0 87 49 64
        E 0 8e 47 64
        E 0 97 49 64
        E 0 9e 47 64
        E 0 87 49 64
        E 0 8e 47 64
        E 0 88 42 64
        E 0 8d 36 64
        E 0 97 4f 64
        E 0 9e 49 64
        E 0 98 42 64
        E 0 9d 36 64
        E 0 87 4f 64
        E 0 8e 49 64
        E 0 97 49 64
        E 0 9e 47 64
        E 0 87 49 64
        E 0 8e 47 64
        E 0 88 42 64
        E 0 8d 36 64
        E 0 97 49 64
        E 0 9e 47 64
        E 0 98 42 64
        E 0 9d 36 64
        E 0 87 49 64
        E 0 8e 47 64
        E 0 97 49 64
        E 0 9e 47 64
        E 0 87 49 64
        E 0 8e 47 64
        E 0 88 42 64
        E 0 8d 36 64
        E 0 97 4e 64
        E 0 9e 49 64
        E 0 98 42 64
        E 0 9d 36 64
        E 0 87 4e 64
        E 0 8e 49 64
        E 0 97 49 64
        E 0 9e 46 64
        E 0 87 49 64
        E 0 8e 46 64
        E 0 88 42 64
        E 0 8d 36 64
        E 0 97 49 64
        E 0 9e 46 64
        E 0 98 42 64
        E 0 9d 36 64
        E 0 87 49 64
        E 0 8e 46 64
        E 0 97 49 64
        E 0 9e 46 64
        E 0 87 49 64
        E 0 8e 46 64
        E 0 88 42 64
        E 0 8d 36 64
        E 0 97 4e 64
        E 1 9e 49 64
        E 0 98 42 64
        E 0 9d 36 64
        E 0 87 4e 64
        E 0 8e 49 64
        E 0 97 49 64
        E 0 9e 46 64
        E 0 87 49 64
        E 0 8e 46 64
        E 0 88 42 64
        E 0 8d 36 64
        E 0 97 49 64
        E 0 9e 46 64
        E 0 98 42 64
        E 0 9d 36 64
        E 0 87 49 64
        E 0 8e 46 64
        E 0 97 49 64
        E 0 9e 46 64
        E 0 87 49 64
        E 0 8e 46 64
        E 0 88 42 64
        E 0 8d 36 64
        E 0 97 4e 64
        E 0 9e 49 64
        E 0 98 42 64
        E 0 9d 36 64
        E 0 87 4e 64
        E 0 8e 49 64
        E 0 97 49 64
        E 0 9e 46 64
        E 0 87 49 64
        E 0 8e 46 64
        E 0 88 42 64
        E 0 8d 36 64
        E 0 97 49 64
        E 0 9e 46 64
        E 0 98 42 64
        E 0 9d 36 64
        E 0 87 49 64
        E 0 8e 46 64
        E 0 97 49 64
        E 0 9e 46 64
        E 0 87 49 64
        E 0 8e 46 64
        E 0 88 42 64
        E 0 8d 36 64
        E 0 97 4b 64
        E 0 9e 47 64
        E 0 98 42 64
        E 0 9d 2f 64
        E 0 87 4b 64
        E 0 8e 47 64
        E 1 97 47 64
        E 0 9e 42 64
        E 0 87 47 64
        E 0 8e 42 64
        E 0 88 42 64
        E 0 8d 2f 64
        E 0 97 47 64
        E 0 9e 42 64
        E 0 98 42 64
        E 0 9d 2f 64
        E 0 87 47 64
        E 0 8e 42 64
        E 0 97 47 64
        E 0 9e 42 64
        E 0 87 47 64
        E 0 8e 42 64
        E 0 88 42 64
        E 0 8d 2f 64
        E 0 97 4b 64
        E 0 9e 47 64
        E 0 98 3f 64
        E 0 9d 2f 64
        E 0 87 4b 64
        E 0 8e 47 64
        E 0 97 47 64
        E 0 9e 42 64
        E 0 87 47 64
        E 0 8e 42 64
        E 0 88 3f 64
        E 0 8d 2f 64
        E 0 97 47 64
        E 0 9e 42 64
        E 0 98 3f 64
        E 0 9d 2f 64
        E 0 87 47 64
        E 0 8e 42 64
        E 0 97 47 64
        E 0 9e 42 64
        E 0 87 47 64
        E 0 8e 42 64
        E 0 88 3f 64
        E 0 8d 2f 64
        E 0 97 4c 64
        E 0 9e 47 64
        E 0 98 3b 64
        E 0 9d 2f 64
        E 0 87 4c 64
        E 0 8e 47 64
        E 0 97 47 64
        E 0 9e 43 64
        E 0 87 47 64
        E 0 8e 43 64
        E 0 88 3b 64
        E 0 8d 2f 64
        E 0 97 47 64
        E 0 9e 43 64
        E 1 98 3b 64
        E 0 9d 2f 64
        E 0 87 47 64
        E 0 8e 43 64
        E 0 97 47 64
        E 0 9e 43 64
        E 0 87 47 64
        E 0 8e 43 64
        E 0 88 3b 64
        E 0 8d 2f 64
        E 0 97 4f 64
        E 0 9e 4c 64
        E 0 98 3b 64
        E 0 9d 2f 64
        E 0 87 4f 64
        E 0 8e 4c 64
        E 0 97 4c 64
        E 0 9e 47 64
        E 0 87 4c 64
        E 0 8e 47 64
        E 1 88 3b 64
        E 0 8d 2f 64
        E 0 97 4c 64
        E 0 9e 47 64
        E 0 98 3b 64
        E 0 9d 2f 64
        E 0 87 4c 64
        E 0 8e 47 64
        E 0 97 4c 64
        E 0 9e 47 64
        E 0 87 4c 64
        E 0 8e 47 64
        E 0 88 3b 64
        E 0 8d 2f 64
        E 0 97 51 64
        E 0 9e 4e 64
        E 0 98 3b 64
        E 0 9d 2f 64
        E 0 87 51 64
        E 0 8e 4e 64
        E 0 97 4e 64
        E 0 9e 4b 64
        E 0 87 4e 64
        E 0 8e 4b 64
        E 0 88 3b 64
        E 0 8d 2f 64
        E 0 97 4e 64
        E 0 9e 4b 64
        E 0 98 3b 64
        E 0 9d 2f 64
        E 0 87 4e 64
        E 0 8e 4b 64
        E 0 97 4e 64
        E 0 9e 4b 64
        E 19203 87 4e 64
        E 0 8e 4b 64
        E 0 88 3b 64
        E 0 8d 2f 64
        E 0 97 51 64
        E 0 9e 4e 64
        E 0 98 3b 64
        E 0 9d 2f 64
        E 0 87 51 64
        E 0 8e 4e 64
        E 0 97 4e 64
        E 0 9e 4b 64
        E 0 87 4e 64
        E 0 8e 4b 64
        E 0 88 3b 64
        E 0 8d 2f 64
        E 0 97 4e 64
        E 0 9e 4b 64
        E 0 98 3b 64
        E 0 9d 2f 64
        E 0 87 4e 64
        E 0 8e 4b 64
        E 0 97 4e 64
        E 0 9e 4b 64
        E 0 87 4e 64
        E 0 8e 4b 64
        E 0 88 3b 64
        E 0 8d 2f 64
        E 0 97 4c 64
        E 0 9e 4c 64
        E 0 98 3b 64
        E 0 9d 34 64
        E 0 88 3b 64
        E 0 8d 34 64
        E 0 98 3b 64
        E 0 9d 34 64
        E 0 87 4c 64
        E 0 8e 4c 64
        E 0 88 3b 64
        E 0 8d 34 64
        E 0 97 47 64
        E 0 98 43 64
        E 0 9d 34 64
        E 0 88 43 64
        E 0 8d 34 64
        E 1 98 43 64
        E 0 9d 34 64
        E 0 87 47 64
        E 0 88 43 64
        E 0 8d 34 64
        E 0 97 43 64
        E 0 98 40 64
        E 0 9d 34 64
        E 0 88 40 64
        E 0 8d 34 64
        E 0 98 40 64
        E 0 9d 34 64
        E 0 87 43 64
        E 0 88 40 64
        E 0 8d 34 64
        E 0 97 40 64
        E 0 9e 4c 64
        E 0 98 3c 64
        E 0 9d 2d 64
        E 0 88 3c 64
        E 0 8d 2d 64
        E 0 98 3c 64
        E 0 9d 2d 64
        E 0 87 40 64
        E 0 8e 4c 64
        E 0 88 3c 64
        E 0 8d 2d 64
        E 1 9e 48 64
        E 0 98 39 64
        E 0 9d 2d 64
        E 0 88 39 64
        E 1 8d 2d 64
        E 0 98 39 64
        E 0 9d 2d 64
        E 0 8e 48 64
        E 0 88 39 64
        E 0 8d 2d 64
        E 0 9e 45 64
        E 0 98 39 64
        E 0 9d 2d 64
        E 0 88 39 64
        E 0 8d 2d 64
        E 0 98 39 64
        E 0 9d 2d 64
        E 0 8e 45 64
        E 0 88 39 64
        E 0 8d 2d 64
        E 0 9e 41 64
        E 0 98 39 64
        E 0 9d 2d 64
        E 0 88 39 64
        E 0 8d 2d 64
        E 0 97 41 64
        E 0 98 39 64
        E 0 9d 2d 64
        E 0 87 41 64
        E 0 8e 41 64
        E 0 88 39 64
        E 0 8d 2d 64
        E 0 97 45 64
        E 0 98 41 64
        E 0 9d 2d 64
        E 0 87 45 64
        E 0 88 41 64
        E 0 8d 2d 64
        E 0 97 48 64
        E 0 98 41 64
        E 0 9d 2d 64
        E 0 87 48 64
        E 1 88 41 64
        E 0 8d 2d 64
        E 0 97 4c 64
        E 0 98 41 64
        E 0 9d 2d 64
        E 0 87 4c 64
        E 0 88 41 64
        E 0 8d 2d 64
        E 0 97 48 64
        E 0 98 41 64
        E 0 9d 2d 64
        E 0 87 48 64
        E 0 88 41 64
        E 0 8d 2d 64
        E 0 97 42 64
        E 0 98 42 64
        E 0 9d 2f 64
        E 0 88 42 64
        E 0 8d 2f 64
        E 0 9e 42 64
        E 0 98 42 64
        E 0 9d 2f 64
        E 0 87 42 64
        E 0 8e 42 64
        E 0 88 42 64
        E 0 8d 2f 64
        E 0 9e 47 64
        E 0 98 42 64
        E 0 9d 2f 64
        E 0 8e 47 64
        E 0 88 42 64
        E 0 8d 2f 64
        E 0 9e 4b 64
        E 0 98 42 64
        E 0 9d 2f 64
        E 0 8e 4b 64
        E 0 88 42 64
        E 0 8d 2f 64
        E 1 9e 4e 64
        E 0 98 42 64
        E 0 9d 2f 64
        E 0 8e 4e 64
        E 0 88 42 64
        E 0 8d 2f 64
        E 0 9e 4b 64
        E 0 98 42 64
        E 0 9d 2f 64
        E 19202 8e 4b 64
        E 0 88 42 64
        E 0 8d 2f 64
        E 0 9e 47 64
        E 0 98 40 64
        E 0 9d 34 64
        E 0 97 4c 64
        E 0 87 4c 64
        E 0 88 40 64
        E 0 8d 34 64
        E 0 97 4c 64
        E 0 98 40 64
        E 0 9d 34 64
        E 0 87 4c 64
        E 0 97 4c 64
        E 0 87 4c 64
        E 0 8e 47 64
        E 0 88 40 64
        E 0 8d 34 64
        E 0 97 4f 64
        E 0 98 40 64
        E 0 9d 34 64
        E 0 87 4f 64
        E 0 97 4c 64
        E 0 87 4c 64
        E 0 88 40 64
        E 0 8d 34 64
        E 1 97 4c 64
        E 0 98 40 64
        E 0 9d 34 64
        E 0 87 4c 64
        E 0 97 4c 64
        E 0 87 4c 64
        E 0 88 40 64
        E 0 8d 34 64
        E 0 97 53 64
        E 0 98 40 64
        E 0 9d 34 64
        E 0 87 53 64
        E 0 97 4c 64
        E 0 87 4c 64
        E 0 88 40 64
        E 0 8d 34 64
        E 0 97 4c 64
        E 0 98 40 64
        E 0 9d 34 64
        E 0 87 4c 64
        E 0 97 4c 64
        E 0 87 4c 64
        E 0 88 40 64
        E 0 8d 34 64
        E 0 97 48 64
        E 0 98 40 64
        E 0 9d 34 64
        E 0 9e 43 64
        E 0 8e 43 64
        E 0 88 40 64
        E 0 8d 34 64
        E 0 9e 43 64
        E 0 98 40 64
        E 0 9d 34 64
        E 0 8e 43 64
        E 0 9e 43 64
        E 0 87 48 64
        E 0 8e 43 64
        E 0 88 40 64
        E 0 8d 34 64
        E 1 9e 48 64
        E 0 98 40 64
        E 0 9d 34 64
        E 0 8e 48 64
        E 0 9e 4c 64
        E 0 8e 4c 64
        E 0 88 40 64
        E 0 8d 34 64
        E 0 9e 4c 64
        E 0 98 40 64
        E 0 9d 34 64
        E 0 8e 4c 64
        E 0 9e 4c 64
        E 0 8e 4c 64
        E 0 88 40 64
        E 0 8d 34 64
        E 0 9e 4f 64
        E 0 98 40 64
        E 0 9d 34 64
        E 0 8e 4f 64
        E 0 9e 48 64
        E 0 8e 48 64
        E 0 88 40 64
        E 0 8d 34 64
        E 0 9e 48 64
        E 0 98 40 64
        E 0 9d 34 64
        E 0 8e 48 64
        E 0 9e 48 64
        E 0 8e 48 64
        E 0 88 40 64
        E 0 8d 34 64
        E 0 97 52 64
        E 0 9e 4e 64
        E 0 98 3d 64
        E 0 9d 36 64
        E 0 88 3d 64
        E 0 8d 36 64
        E 0 98 3d 64
        E 0 9d 36 64
        E 0 87 52 64
        E 0 8e 4e 64
        E 0 88 3d 64
        E 0 8d 36 64
        E 0 97 4e 64
        E 0 98 3d 64
        E 0 9d 36 64
        E 0 88 3d 64
        E 0 8d 36 64
        E 0 98 3d 64
        E 0 9d 36 64
        E 0 87 4e 64
        E 0 88 3d 64
        E 0 8d 36 64
        E 0 97 49 64
        E 0 98 42 64
        E 0 9d 36 64
        E 0 88 42 64
        E 0 8d 36 64
        E 0 98 42 64
        E 0 9d 36 64
        E 0 87 49 64
        E 0 88 42 64
        E 0 8d 36 64
        E 1 97 4a 64
        E 0 9e 53 64
        E 0 98 42 64
        E 0 9d 2f 64
        E 0 88 42 64
        E 0 8d 2f 64
        E 0 98 42 64
        E 0 9d 2f 64
        E 0 87 4a 64
        E 0 8e 53 64
        E 0 88 42 64
        E 0 8d 2f 64
        E 0 9e 4e 64
        E 0 98 3e 64
        E 0 9d 2f 64
        E 0 88 3e 64
        E 0 8d 2f 64
        E 0 98 3e 64
        E 2 9d 2f 64
        E 0 8e 4e 64
        E 0 88 3e 64
        E 0 8d 2f 64
        E 0 9e 4a 64
        E 0 98 3e 64
        E 0 9d 2f 64
        E 0 88 3e 64
        E 0 8d 2f 64
        E 0 98 3e 64
        E 0 9d 2f 64
        E 0 8e 4a 64
        E 0 88 3e 64
        E 0 8d 2f 64
        E 1 9e 3e 64
        E 0 98 3e 64
        E 0 9d 2f 64
        E 0 88 3e 64
        E 0 8d 2f 64
        E 0 97 42 64
        E 0 98 3e 64
        E 0 9d 2f 64
        E 19203 87 42 64
        E 0 8e 3e 64
        E 0 88 3e 64
        E 0 8d 2f 64
        E 0 97 47 64
        E 1 98 3e 64
        E 0 9d 2f 64
        E 0 87 47 64
        E 0 88 3e 64
        E 0 8d 2f 64
        E 0 97 4a 64
        E 0 98 3e 64
        E 0 9d 2f 64
        E 0 87 4a 64
        E 0 88 3e 64
        E 0 8d 2f 64
        E 0 97 4e 64
        E 0 98 3b 64
        E 0 9d 2f 64
        E 0 87 4e 64
        E 0 88 3b 64
        E 0 8d 2f 64
        E 0 97 42 64
        E 0 98 3b 64
        E 0 9d 2f 64
        E 0 87 42 64
        E 0 88 3b 64
        E 0 8d 2f 64
        E 0 97 43 64
        E 0 9e 47 64
        E 0 98 37 64
        E 0 9d 34 64
        E 0 87 43 64
        E 0 8e 47 64
        E 0 97 47 64
        E 0 9e 43 64
        E 0 87 47 64
        E 0 8e 43 64
        E 0 88 37 64
        E 0 8d 34 64
        E 0 97 47 64
        E 0 9e 43 64
        E 1 98 37 64
        E 0 9d 34 64
        E 0 87 47 64
        E 0 8e 43 64
        E 0 97 47 64
        E 0 9e 43 64
        E 0 87 47 64
        E 0 8e 43 64
        E 0 88 37 64
        E 0 8d 34 64
        E 0 97 4a 64
        E 0 9e 47 64
        E 0 98 37 64
        E 0 9d 34 64
        E 0 87 4a 64
        E 0 8e 47 64
        E 0 97 47 64
        E 0 9e 43 64
        E 0 87 47 64
        E 0 8e 43 64
        E 0 88 37 64
        E 0 8d 34 64
        E 0 97 47 64
        E 0 9e 43 64
        E 0 98 37 64
        E 0 9d 34 64
        E 0 87 47 64
        E 0 8e 43 64
        E 0 97 47 64
        E 0 9e 43 64
        E 0 87 47 64
        E 0 8e 43 64
        E 0 88 37 64
        E 0 8d 34 64
        E 0 97 4a 64
        E 0 9e 47 64
        E 0 98 40 64
        E 0 9d 34 64
        E 0 87 4a 64
        E 0 8e 47 64
        E 1 97 47 64
        E 0 9e 43 64
        E 0 87 47 64
        E 0 8e 43 64
        E 0 88 40 64
        E 0 8d 34 64
        E 0 97 47 64
        E 0 9e 43 64
        E 0 98 40 64
        E 0 9d 34 64
        E 0 87 47 64
        E 0 8e 43 64
        E 0 97 47 64
        E 0 9e 43 64
        E 0 87 47 64
        E 0 8e 43 64
        E 0 88 40 64
        E 0 8d 34 64
        E 1 97 4f 64
        E 0 9e 40 64
        E 0 98 40 64
        E 0 9d 34 64
        E 0 87 4f 64
        E 0 8e 40 64
        E 0 97 4c 64
        E 0 9e 43 64
        E 0 87 4c 64
        E 0 8e 43 64
        E 0 88 40 64
        E 0 8d 34 64
        E 0 97 4c 64
        E 0 9e 43 64
        E 0 98 40 64
        E 0 9d 34 64
        E 0 87 4c 64
        E 0 8e 43 64
        E 0 97 4c 64
        E 0 9e 43 64
        E 0 87 4c 64
        E 0 8e 43 64
        E 0 88 40 64
        E 0 8d 34 64
        E 0 97 4f 64
        E 0 9e 49 64
        E 0 98 40 64
        E 0 9d 34 64
        E 0 87 4f 64
        E 0 8e 49 64
        E 0 97 4c 64
        E 0 9e 43 64
        E 0 87 4c 64
        E 0 8e 43 64
        E 0 88 40 64
        E 0 8d 34 64
        E 0 97 4c 64
        E 0 9e 43 64
        E 0 98 40 64
        E 0 9d 34 64
        E 0 87 4c 64
        E 0 8e 43 64
        E 0 97 4c 64
        E 0 9e 43 64
        E 0 87 4c 64
        E 0 8e 43 64
        E 0 88 40 64
        E 0 8d 34 64
        E 0 97 4f 64
        E 0 9e 49 64
        E 0 98 3d 64
        E 1 9d 34 64
        E 0 87 4f 64
        E 0 8e 49 64
        E 0 97 4c 64
        E 0 9e 43 64
        E 0 87 4c 64
        E 0 8e 43 64
        E 0 88 3d 64
        E 0 8d 34 64
        E 0 97 4c 64
        E 0 9e 43 64
        E 0 98 3d 64
        E 0 9d 34 64
        E 0 87 4c 64
        E 0 8e 43 64
        E 0 97 4c 64
        E 0 9e 43 64
        E 0 87 4c 64
        E 0 8e 43 64
        E 0 88 3d 64
        E 0 8d 34 64
        E 0 97 4c 64
        E 0 9e 49 64
        E 0 98 39 64
        E 0 9d 36 64
        E 0 87 4c 64
        E 0 8e 49 64
        E 0 97 49 64
        E 0 9e 45 64
        E 0 87 49 64
        E 0 8e 45 64
        E 0 88 39 64
        E 0 8d 36 64
        E 0 97 49 64
        E 0 9e 45 64
        E 0 98 39 64
        E 0 9d 36 64
        E 0 87 49 64
        E 0 8e 45 64
        E 0 97 49 64
        E 0 9e 45 64
        E 0 87 49 64
        E 0 8e 45 64
        E 0 88 39 64
        E 0 8d 36 64
        E 1 97 4c 64
        E 0 9e 49 64
        E 0 98 39 64
        E 2 9d 36 64
        E 5 87 4c 64
        E 1 8e 49 64
        E 0 97 49 64
        E 0 9e 45 64
        E 0 87 49 64
        E 0 8e 45 64
        E 0 88 39 64
        E 0 8d 36 64
        E 0 97 49 64
        E 0 9e 45 64
        E 0 98 39 64
        E 0 9d 36 64
        E 0 87 49 64
        E 0 8e 45 64
        E 0 97 49 64
        E 0 9e 45 64
        E 1 87 49 64
        E 0 8e 45 64
        E 0 88 39 64
        E 0 8d 36 64
        E 0 97 4c 64
        E 0 9e 49 64
        E 0 98 42 64
        E 0 9d 36 64
        E 0 87 4c 64
        E 0 8e 49 64
        E 0 97 49 64
        E 1 9e 45 64
        E 0 87 49 64
        E 0 8e 45 64
        E 0 88 42 64
        E 0 8d 36 64
        E 0 97 49 64
        E 0 9e 45 64
        E 0 98 42 64
        E 0 9d 36 64
        E 0 87 49 64
        E 0 8e 45 64
        E 0 97 49 64
        E 0 9e 45 64
        E 0 87 49 64
        E 0 8e 45 64
        E 0 88 42 64
        E 0 8d 36 64
        E 0 97 51 64
        E 0 9e 42 64
        E 0 98 42 64
        E 0 9d 36 64
        E 0 87 51 64
        E 0 8e 42 64
        E 1 97 4e 64
        E 0 9e 45 64
        E 0 87 4e 64
        E 0 8e 45 64
        E 0 88 42 64
        E 0 8d 36 64
        E 1 97 4e 64
        E 0 9e 45 64
        E 0 98 42 64
        E 0 9d 36 64
        E 0 87 4e 64
        E 0 8e 45 64
        E 0 97 4e 64
        E 1 9e 45 64
        E 0 87 4e 64
        E 0 8e 45 64
        E 0 88 42 64
        E 0 8d 36 64
        E 0 97 51 64
        E 0 9e 4a 64
        E 1 98 42 64
        E 0 9d 36 64
        E 0 87 51 64
        E 0 8e 4a 64
        E 0 97 4e 64
        E 0 9e 45 64
        E 0 87 4e 64
        E 0 8e 45 64
        E 0 88 42 64
        E 0 8d 36 64
        E 0 97 4e 64
        E 0 9e 45 64
        E 0 98 42 64
        E 0 9d 36 64
        E 0 87 4e 64
        E 0 8e 45 64
        E 0 97 4e 64
        E 0 9e 45 64
        E 0 87 4e 64
        E 1 8e 45 64
        E 0 88 42 64
        E 0 8d 36 64
        E 0 97 51 64
        E 0 9e 4a 64
        E 0 98 3e 64
        E 0 9d 36 64
        E 4498 87 51 64
        E 0 8e 4a 64
        E 0 97 4e 64
        E 0 9e 45 64
        E 0 87 4e 64
        E 0 8e 45 64
        E 0 88 3e 64
        E 0 8d 36 64
        E 0 97 4e 64
        E 0 9e 45 64
        E 0 98 3e 64
        E 0 9d 36 64
        E 0 87 4e 64
        E 0 8e 45 64
        E 1 97 4e 64
        E 0 9e 45 64
        E 0 87 4e 64
        E 0 8e 45 64
        E 0 88 3e 64
        E 0 8d 36 64
        E 0 97 4e 64
        E 0 9e 4a 64
        E 0 98 3b 64
        E 0 9d 37 64
        E 0 87 4e 64
        E 0 8e 4a 64
        E 0 97 4a 64
        E 0 9e 47 64
        E 0 87 4a 64
        E 0 8e 47 64
        E 0 88 3b 64
        E 0 8d 37 64
        E 0 97 4a 64
        E 0 9e 47 64
        E 0 98 3b 64
        E 0 9d 37 64
        E 0 87 4a 64
        E 0 8e 47 64
        E 0 97 4a 64
        E 0 9e 47 64
        E 0 87 4a 64
        E 0 8e 47 64
        E 0 88 3b 64
        E 0 8d 37 64
        E 1 97 4e 64
        E 0 9e 4a 64
        E 0 98 3b 64
        E 0 9d 37 64
        E 0 87 4e 64
        E 0 8e 4a 64
        E 0 97 4a 64
        E 0 9e 47 64
        E 0 87 4a 64
        E 0 8e 47 64
        E 0 88 3b 64
        E 0 8d 37 64
        E 0 97 4a 64
        E 0 9e 47 64
        E 0 98 3b 64
        E 0 9d 37 64
        E 0 87 4a 64
        E 0 8e 47 64
        E 0 97 4a 64
        E 0 9e 47 64
        E 0 87 4a 64
        E 0 8e 47 64
        E 0 88 3b 64
        E 0 8d 37 64
        E 0 97 4e 64
        E 0 9e 4a 64
        E 0 98 3b 64
        E 0 9d 37 64
        E 357 87 4e 64
        E 0 8e 4a 64
        E 1 97 4a 64
        E 0 9e 47 64
        E 16541 87 4a 64
        E 0 8e 47 64
        E 0 88 3b 64
        E 0 8d 37 64
        E 3 97 4a 64
        E 1 9e 47 64
        E 0 98 3b 64
        E 0 9d 37 64
        E 0 87 4a 64
        E 0 8e 47 64
        E 0 97 4a 64
        E 0 9e 47 64
        E 0 87 4a 64
        E 0 8e 47 64
        E 3 88 3b 64
        E 0 8d 37 64
        E 0 97 4f 64
        E 0 9e 4a 64
        E 1 98 3b 64
        E 0 9d 37 64
        E 0 87 4f 64
        E 1 8e 4a 64
        E 0 97 4a 64
        E 0 9e 47 64
        E 0 87 4a 64
        E 0 8e 47 64
        E 0 88 3b 64
        E 0 8d 37 64
        E 0 97 4a 64
        E 0 9e 47 64
        E 0 98 3b 64
        E 0 9d 37 64
        E 0 87 4a 64
        E 0 8e 47 64
        E 0 97 4a 64
        E 0 9e 47 64
        E 0 87 4a 64
        E 0 8e 47 64
        E 0 88 3b 64
        E 0 8d 37 64
        E 0 97 4c 64
        E 0 9e 48 64
        E 0 98 43 64
        E 0 9d 34 64
        E 0 87 4c 64
        E 0 8e 48 64
        E 0 97 48 64
        E 0 9e 43 64
        E 0 87 48 64
        E 0 8e 43 64
        E 0 88 43 64
        E 0 8d 34 64
        E 1 97 48 64
        E 0 9e 43 64
        E 0 98 43 64
        E 0 9d 34 64
        E 0 87 48 64
        E 0 8e 43 64
        E 0 97 48 64
        E 0 9e 43 64
        E 0 87 48 64
        E 0 8e 43 64
        E 0 88 43 64
        E 0 8d 34 64
        E 0 97 4f 64
        E 0 9e 47 64
        E 0 98 43 64
        E 0 9d 34 64
        E 0 87 4f 64
        E 0 8e 47 64
        E 0 97 4c 64
        E 0 9e 43 64
        E 0 87 4c 64
        E 0 8e 43 64
        E 0 88 43 64
        E 0 8d 34 64
        E 0 97 4c 64
        E 0 9e 43 64
        E 0 98 43 64
        E 0 9d 34 64
        E 0 87 4c 64
        E 0 8e 43 64
        E 0 97 4c 64
        E 0 9e 43 64
        E 0 87 4c 64
        E 0 8e 43 64
        E 0 88 43 64
        E 0 8d 34 64
        E 0 97 49 64
        E 0 9e 46 64
        E 0 98 42 64
        E 0 9d 36 64
        E 0 87 49 64
        E 0 8e 46 64
        E 0 97 46 64
        E 0 9e 42 64
        E 0 87 46 64
        E 0 8e 42 64
        E 0 88 42 64
        E 0 8d 36 64
        E 0 97 46 64
        E 0 9e 42 64
        E 0 98 42 64
        E 1 9d 36 64
        E 0 87 46 64
        E 0 8e 42 64
        E 0 97 46 64
        E 0 9e 42 64
        E 0 87 46 64
        E 0 8e 42 64
        E 0 88 42 64
        E 0 8d 36 64
        E 0 97 49 64
        E 0 9e 46 64
        E 0 98 42 64
        E 0 9d 36 64
        E 0 87 49 64
        E 0 8e 46 64
        E 0 97 46 64
        E 0 9e 42 64
        E 0 87 46 64
        E 0 8e 42 64
        E 0 88 42 64
        E 0 8d 36 64
        E 0 97 46 64
        E 0 9e 42 64
        E 1 98 42 64
        E 1 9d 36 64
        E 0 87 46 64
        E 0 8e 42 64
        E 1 97 46 64
        E 0 9e 42 64
        E 0 87 46 64
        E 0 8e 42 64
        E 0 88 42 64
        E 0 8d 36 64
        E 0 97 4a 64
        E 0 9e 47 64
        E 0 98 42 64
        E 0 9d 36 64
        E 0 87 4a 64
        E 0 8e 47 64
        E 0 97 47 64
        E 0 9e 42 64
        E 0 87 47 64
        E 0 8e 42 64
        E 0 88 42 64
        E 0 8d 36 64
        E 0 97 47 64
        E 0 9e 42 64
        E 0 98 42 64
        E 1 9d 36 64
        E 0 87 47 64
        E 0 8e 42 64
        E 0 97 47 64
        E 0 9e 42 64
        E 0 87 47 64
        E 0 8e 42 64
        E 0 88 42 64
        E 0 8d 36 64
        E 0 97 4c 64
        E 0 9e 49 64
        E 0 98 46 64
        E 0 9d 36 64
        E 0 87 4c 64
        E 0 8e 49 64
        E 0 97 49 64
        E 0 9e 42 64
        E 0 87 49 64
        E 0 8e 42 64
        E 0 88 46 64
        E 0 8d 36 64
        E 0 97 49 64
        E 0 9e 42 64
        E 0 98 42 64
        E 0 9d 36 64
        E 0 87 49 64
        E 0 8e 42 64
        E 0 97 49 64
        E 0 9e 42 64
        E 0 87 49 64
        E 0 8e 42 64
        E 0 88 42 64
        E 0 8d 36 64
        E 0 97 4e 64
        E 0 9e 4a 64
        E 0 98 42 64
        E 0 9d 36 64
        E 0 87 4e 64
        E 0 8e 4a 64
        E 0 97 4a 64
        E 0 9e 42 64
        E 0 87 4a 64
        E 0 8e 42 64
        E 0 88 42 64
        E 0 8d 36 64
        E 0 97 4a 64
        E 0 9e 42 64
        E 0 98 42 64
        E 0 9d 36 64
        E 0 87 4a 64
        E 0 8e 42 64
        E 0 97 4a 64
        E 0 9e 42 64
        E 0 87 4a 64
        E 0 8e 42 64
        E 0 88 42 64
        E 0 8d 36 64
        E 0 97 4f 64
        E 0 9e 4c 64
        E 0 98 42 64
        E 0 9d 36 64
        E 0 87 4f 64
        E 0 8e 4c 64
        E 0 97 4c 64
        E 1 9e 42 64
        E 0 87 4c 64
        E 0 8e 42 64
        E 0 88 42 64
        E 0 8d 36 64
        E 0 97 4c 64
        E 0 9e 42 64
        E 0 98 42 64
        E 0 9d 36 64
        E 0 87 4c 64
        E 0 8e 42 64
        E 0 97 4c 64
        E 0 9e 42 64
        E 0 87 4c 64
        E 0 8e 42 64
        E 0 88 42 64
        E 0 8d 36 64
        E 0 97 4e 64
        E 0 9e 4a 64
        E 0 98 42 64
        E 0 9d 36 64
        E 0 87 4e 64
        E 0 8e 4a 64
        E 0 97 4a 64
        E 0 9e 42 64
        E 0 87 4a 64
        E 0 8e 42 64
        E 1 88 42 64
        E 0 8d 36 64
        E 0 97 4a 64
        E 0 9e 42 64
        E 0 98 42 64
        E 0 9d 36 64
        E 0 87 4a 64
        E 0 8e 42 64
        E 0 97 4a 64
        E 0 9e 42 64
        E 0 87 4a 64
        E 0 8e 42 64
        E 0 88 42 64
        E 0 8d 36 64
        E 1 97 4c 64
        E 0 9e 49 64
        E 0 98 42 64
        E 0 9d 36 64
        E 0 87 4c 64
        E 0 8e 49 64
        E 0 97 49 64
        E 0 9e 42 64
        E 0 87 49 64
        E 0 8e 42 64
        E 0 88 42 64
        E 0 8d 36 64
        E 0 97 49 64
        E 0 9e 42 64
        E 0 98 42 64
        E 0 9d 36 64
        E 354 87 49 64
        E 0 8e 42 64
        E 0 97 49 64
        E 0 9e 42 64
        E 368 87 49 64
        E 0 8e 42 64
        E 0 88 42 64
        E 0 8d 36 64
        E 0 97 4a 64
        E 0 9e 47 64
        E 0 98 42 64
        E 1 9d 36 64
        E 368 87 4a 64
        E 0 8e 47 64
        E 0 97 47 64
        E 0 9e 42 64
        E 370 87 47 64
        E 0 8e 42 64
        E 0 88 42 64
        E 0 8d 36 64
        E 1 97 47 64
        E 0 9e 42 64
        E 0 98 42 64
        E 0 9d 36 64
        E 368 87 47 64
        E 0 8e 42 64
        E 0 97 47 64
        E 1 9e 42 64
        E 368 87 47 64
        E 0 8e 42 64
        E 0 88 42 64
        E 0 8d 36 64
        E 0 97 49 64
        E 0 9e 46 64
        E 0 98 42 64
        E 0 9d 36 64
        E 372 87 49 64
        E 0 8e 46 64
        E 0 97 46 64
        E 0 9e 42 64
        E 368 87 46 64
        E 0 8e 42 64
        E 0 88 42 64
        E 0 8d 36 64
        E 0 97 46 64
        E 0 9e 42 64
        E 0 98 42 64
        E 0 9d 36 64
        E 369 87 46 64
        E 0 8e 42 64
        E 0 97 46 64
        E 0 9e 42 64
        E 368 87 46 64
        E 0 8e 42 64
        E 0 88 42 64
        E 0 8d 36 64
        E 0 97 49 64
        E 0 9e 46 64
        E 0 98 42 64
        E 0 9d 36 64
        E 370 87 49 64
        E 0 8e 46 64
        E 1 97 46 64
        E 0 9e 42 64
        E 367 87 46 64
        E 0 8e 42 64
        E 0 88 42 64
        E 0 8d 36 64
        E 0 97 46 64
        E 0 9e 42 64
        E 0 98 42 64
        E 0 9d 36 64
        E 370 87 46 64
        E 0 8e 42 64
        E 0 97 46 64
        E 1 9e 42 64
        E 368 87 46 64
        E 0 8e 42 64
        E 1 88 42 64
        E 0 8d 36 64
        E 0 97 4a 64
        E 0 9e 47 64
        E 0 98 42 64
        E 0 9d 36 64
        E 369 87 4a 64
        E 0 8e 47 64
        E 0 97 47 64
        E 0 9e 42 64
        E 368 87 47 64
        E 0 8e 42 64
        E 0 88 42 64
        E 1 8d 36 64
        E 0 97 47 64
        E 0 9e 42 64
        E 0 98 42 64
        E 0 9d 36 64
        E 370 87 47 64
        E 0 8e 42 64
        E 0 97 47 64
        E 0 9e 42 64
        E 369 87 47 64
        E 0 8e 42 64
        E 0 88 42 64
        E 1 8d 36 64
        E 0 97 49 64
        E 0 9e 47 64
        E 0 98 42 64
        E 0 9d 36 64
        E 368 87 49 64
        E 0 8e 47 64
        E 0 97 47 64
        E 0 9e 42 64
        E 370 87 47 64
        E 0 8e 42 64
        E 0 88 42 64
        E 0 8d 36 64
        E 0 97 47 64
        E 0 9e 42 64
        E 1 98 42 64
        E 0 9d 36 64
        E 368 87 47 64
        E 0 8e 42 64
        E 0 97 47 64
        E 0 9e 42 64
        E 368 87 47 64
        E 0 8e 42 64
        E 0 88 42 64
        E 0 8d 36 64
        E 0 97 49 64
        E 0 9e 46 64
        E 1 98 42 64
        E 0 9d 36 64
        E 369 87 49 64
        E 0 8e 46 64
        E 0 97 46 64
        E 0 9e 42 64
        E 370 87 46 64
        E 0 8e 42 64
        E 0 88 42 64
        E 0 8d 36 64
        E 0 97 46 64
        E 0 9e 42 64
        E 0 98 42 64
        E 0 9d 36 64
        E 371 87 46 64
        E 2 8e 42 64
        E 0 97 46 64
        E 1 9e 42 64
        E 363 87 46 64
        E 0 8e 42 64
        E 1 88 42 64
        E 0 8d 36 64
        E 0 97 49 64
        E 0 9e 46 64
        E 3 98 42 64
        E 1 9d 36 64
        E 366 87 49 64
        E 0 8e 46 64
        E 0 97 46 64
        E 1 9e 42 64
        E 368 87 46 64
        E 0 8e 42 64
        E 0 88 42 64
        E 0 8d 36 64
        E 0 97 46 64
        E 0 9e 42 64
        E 0 98 42 64
        E 1 9d 36 64
        E 368 87 46 64
        E 0 8e 42 64
        E 0 97 46 64
        E 0 9e 42 64
        E 369 87 46 64
        E 0 8e 42 64
        E 0 88 42 64
        E 0 8d 36 64
        E 0 97 4e 64
        E 0 9e 4a 64
        E 0 98 42 64
        E 0 9d 2f 64
        E 738 8d 2f 64
        E 0 9d 2f 64
        E 739 87 4e 64
        E 0 8e 4a 64
        E 0 88 42 64
        E 0 8d 2f 64
        E 0 97 4a 64
        E 0 9e 47 64
        E 1 98 42 64
        E 0 9d 2f 64
        E 736 8d 2f 64
        E 1 9d 2f 64
        E 737 87 4a 64
        E 0 8e 47 64
        E 0 88 42 64
        E 0 8d 2f 64
        E 1 97 47 64
        E 0 9e 42 64
        E 0 98 3e 64
        E 0 9d 2f 64
        E 738 8d 2f 64
        E 1 9d 2f 64
        E 2953 87 47 64
        E 0 8e 42 64
        E 0 88 3e 64
        E 0 8d 2f 64
        E 0 97 53 64
        E 0 9e 4e 64
        E 0 98 3e 64
        E 0 9d 2f 64
        E 738 8d 2f 64
        E 0 9d 2f 64
        E 738 87 53 64
        E 0 8e 4e 64
        E 0 88 3e 64
        E 0 8d 2f 64
        E 0 97 4e 64
        E 0 9e 4a 64
        E 0 98 47 64
        E 0 9d 2f 64
        E 740 8d 2f 64
        E 0 9d 2f 64
        E 738 87 4e 64
        E 0 8e 4a 64
        E 0 88 47 64
        E 0 8d 2f 64
        E 0 97 4a 64
        E 0 9e 47 64
        E 0 98 42 64
        E 0 9d 2f 64
        E 738 8d 2f 64
        E 1 9d 2f 64
        E 738 87 4a 64
        E 0 8e 47 64
        E 0 88 42 64
        E 0 8d 2f 64
        E 0 97 47 64
        E 0 9e 4a 64
        E 0 98 42 64
        E 0 9d 2f 64
        E 737 8d 2f 64
        E 0 9d 2f 64
        E 740 87 47 64
        E 0 8e 4a 64
        E 0 88 42 64
        E 0 8d 2f 64
        E 1 97 42 64
        E 0 9e 47 64
        E 0 98 3e 64
        E 0 9d 2f 64
        E 738 8d 2f 64
        E 0 9d 2f 64
        E 738 87 42 64
        E 0 8e 47 64
        E 0 88 3e 64
        E 0 8d 2f 64
        E 0 97 3e 64
        E 1 9e 42 64
        E 2 98 3b 64
        E 0 9d 2f 64
        E 735 8d 2f 64
        E 1 9d 2f 64
        E 738 87 3e 64
        E 0 8e 42 64
        E 0 88 3b 64
        E 0 8d 2f 64
        E 0 97 3b 64
        E 0 9e 3e 64
        E 0 98 36 64
        E 0 9d 2f 64
        E 6646 87 3b 64
        E 0 8e 3e 64
        E 0 88 36 64
        E 0 8d 2f 64
        E 6158 98 3e 64
        E 0 9d 37 64
        E 962 88 3e 64
        E 1 8d 37 64
        E 0 98 40 64
        E 0 9d 30 64
        E 957 88 40 64
        E 0 8d 30 64
        E 0 98 3b 64
        E 0 9d 2b 64
        E 959 88 3b 64
        E 0 8d 2b 64
        E 960 98 47 64
        E 0 9d 37 64
        E 960 88 47 64
        E 0 8d 37 64
        E 0 98 45 64
        E 0 9d 36 64
        E 965 88 45 64
        E 0 8d 36 64
        E 0 98 3e 64
        E 1 9d 37 64
        E 955 88 3e 64
        E 0 8d 37 64
        E 0 98 42 64
        E 1 9d 36 64
        E 479 88 42 64
        E 0 8d 36 64
        E 0 98 40 64
        E 0 9d 34 64
        E 478 88 40 64
        E 0 8d 34 64
        E 0 98 3e 64
        E 0 9d 32 64
        E 480 88 3e 64
        E 0 8d 32 64
        E 1 98 3c 64
        E 0 9d 30 64
        E 239 88 3c 64
        E 0 8d 30 64
        E 1 98 3b 64
        E 0 9d 2f 64
        E 241 88 3b 64
        E 0 8d 2f 64
        E 1 98 39 64
        E 0 9d 2d 64
        E 478 88 39 64
        E 0 8d 2d 64
        E 0 98 37 64
        E 1 9d 2b 64
        E 480 88 37 64
        E 0 8d 2b 64
        E 1 98 3e 64
        E 0 9d 32 64
        E 957 88 3e 64
        E 0 8d 32 64
        E 1 98 45 64
        E 0 9d 32 64
        E 481 88 45 64
        E 0 8d 32 64
        E 0 98 45 64
        E 0 9d 30 64
        E 481 88 45 64
        E 0 8d 30 64
        E 0 98 3e 64
        E 0 9d 2f 64
        E 478 88 3e 64
        E 0 8d 2f 64
        E 0 98 3c 64
        E 0 9d 2d 64
        E 480 88 3c 64
        E 0 8d 2d 64
        E 0 98 3e 64
        E 0 9d 2f 64
        E 480 88 3e 64
        E 0 8d 2f 64
        E 0 98 3b 64
        E 0 9d 2b 64
        E 480 88 3b 64
        E 0 8d 2b 64
        E 0 98 37 64
        E 0 9d 30 64
        E 1440 88 37 64
        E 0 98 43 64
        E 481 88 43 64
        E 0 8d 30 64
        E 0 98 40 64
        E 1 9d 31 64
        E 478 88 40 64
        E 0 8d 31 64
        E 0 98 3e 64
        E 0 9d 2f 64
        E 480 88 3e 64
        E 0 8d 2f 64
        E 1 98 40 64
        E 0 9d 31 64
        E 481 88 40 64
        E 0 8d 31 64
        E 0 98 3d 64
        E 0 9d 2d 64
        E 478 88 3d 64
        E 0 8d 2d 64
        E 0 98 39 64
        E 0 9d 32 64
        E 1441 88 39 64
        E 0 98 42 64
        E 480 88 42 64
        E 0 8d 32 64
        E 0 98 40 64
        E 1 9d 39 64
        E 478 8d 39 64
        E 0 9d 37 64
        E 481 88 40 64
        E 0 8d 37 64
        E 1 98 45 64
        E 0 9d 36 64
        E 479 88 45 64
        E 0 8d 36 64
        E 0 98 42 64
        E 0 9d 32 64
        E 479 88 42 64
        E 0 8d 32 64
        E 0 98 3e 64
        E 0 9d 37 64
        E 480 8d 37 64
        E 0 9d 35 64
        E 480 88 3e 64
        E 0 8d 35 64
        E 1 98 43 64
        E 0 9d 34 64
        E 478 88 43 64
        E 0 8d 34 64
        E 1 98 40 64
        E 0 9d 30 64
        E 481 88 40 64
        E 0 8d 30 64
        E 0 98 3c 64
        E 0 9d 35 64
        E 480 8d 35 64
        E 1 9d 33 66
        E 478 88 3c 64
        E 0 8d 33 66
        E 0 98 41 64
        E 0 9d 32 64
        E 480 88 41 64
        E 0 8d 32 64
        E 0 98 3e 64
        E 0 9d 2e 66
        E 480 88 3e 64
        E 0 8d 2e 66
        E 0 98 3a 66
        E 0 9d 33 66
        E 479 8d 33 66
        E 0 9d 32 64
        E 482 88 3a 66
        E 0 8d 32 64
        E 1 98 40 64
        E 0 9d 31 64
        E 480 88 40 64
        E 0 8d 31 64
        E 0 98 3d 64
        E 0 9d 2d 64
        E 479 88 3d 64
        E 0 8d 2d 64
        E 0 98 39 64
        E 0 9d 32 64
        E 1440 88 39 64
        E 0 8d 32 64
        E 0 98 45 64
        E 0 9d 36 64
        E 480 88 45 64
        E 0 8d 36 64
        E 0 98 3e 64
        E 0 9d 37 64
        E 481 88 3e 64
        E 0 8d 37 64
        E 0 98 3e 64
        E 0 9d 2f 64
        E 241 88 3e 64
        E 6 8d 2f 64
        E 0 98 40 64
        E 0 9d 30 64
        E 232 88 40 64
        E 0 8d 30 64
        E 0 98 3e 64
        E 0 9d 32 64
        E 479 88 3e 64
        E 0 8d 32 64
        E 0 98 39 64
        E 0 9d 26 64
        E 480 88 39 64
        E 0 8d 26 64
        E 1 98 3b 64
        E 0 9d 2b 64
        E 480 8d 2b 64
        E 0 9d 37 64
        E 480 88 3b 64
        E 0 8d 37 64
        E 2 9d 2b 64
        E 478 98 43 64
        E 0 9a 43 64
        E 480 88 43 64
        E 0 8a 43 64
        E 0 8d 2b 64
        E 0 98 37 64
        E 0 9a 47 64
        E 478 9d 37 64
        E 481 88 37 64
        E 0 8a 47 64
        E 0 8d 37 64
        E 0 9a 48 64
        E 0 9d 2b 64
        E 480 98 43 64
        E 480 88 43 64
        E 0 8a 48 64
        E 0 8d 2b 64
        E 0 98 37 64
        E 0 9a 4a 64
        E 480 9d 37 64
        E 480 88 37 64
        E 0 8d 37 64
        E 0 9d 2b 64
        E 480 98 43 64
        E 0 9b 43 64
        E 481 88 43 64
        E 0 8a 4a 64
        E 0 8b 43 64
        E 0 8d 2b 64
        E 0 98 37 64
        E 0 9b 47 64
        E 479 9d 37 64
        E 480 88 37 64
        E 0 8b 47 64
        E 0 8d 37 64
        E 1 9b 48 64
        E 0 9d 2b 64
        E 480 98 43 64
        E 479 88 43 64
        E 0 8b 48 64
        E 0 8d 2b 64
        E 0 98 37 64
        E 0 9a 4a 64
        E 0 9b 4a 64
        E 481 9d 37 64
        E 482 88 37 64
        E 0 8d 37 64
        E 0 9d 2b 64
        E 477 8a 4a 64
        E 0 98 43 64
        E 0 9a 4c 64
        E 480 88 43 64
        E 0 8a 4c 64
        E 0 8b 4a 64
        E 0 8d 2b 64
        E 0 98 37 64
        E 0 9a 48 64
        E 480 9d 37 64
        E 480 88 37 64
        E 0 8a 48 64
        E 0 8d 37 64
        E 0 9a 48 64
        E 1 9d 2b 64
        E 478 8a 48 64
        E 0 98 43 64
        E 0 9a 4a 64
        E 481 88 43 64
        E 0 8a 4a 64
        E 0 8d 2b 64
        E 0 98 37 64
        E 0 9a 47 64
        E 0 9b 4a 64
        E 480 9d 37 64
        E 480 88 37 64
        E 0 8d 37 64
        E 0 9d 2b 64
        E 481 8b 4a 64
        E 0 98 43 64
        E 0 9b 4c 64
        E 481 88 43 64
        E 0 8a 47 64
        E 1 8b 4c 64
        E 0 8d 2b 64
        E 0 98 37 64
        E 0 9b 48 64
        E 476 9d 37 64
        E 481 88 37 64
        E 0 8b 48 64
        E 1 8d 37 64
        E 0 9b 48 64
        E 0 9d 2b 64
        E 480 8b 48 64
        E 0 98 43 64
        E 0 9b 4a 64
        E 478 88 43 64
        E 0 8b 4a 64
        E 0 8d 2b 64
        E 0 98 37 64
        E 0 9a 43 64
        E 0 9b 47 64
        E 481 8a 43 64
        E 1 9a 47 64
        E 0 9d 37 64
        E 479 88 37 64
        E 1 8a 47 64
        E 0 8b 47 64
        E 0 8d 37 64
        E 0 9a 45 64
        E 0 9d 2b 64
        E 479 8a 45 64
        E 0 98 43 64
        E 0 9a 48 64
        E 481 88 43 64
        E 0 8a 48 64
        E 0 8d 2b 64
        E 1 98 37 64
        E 0 9a 47 64
        E 0 9b 43 64
        E 479 8a 47 64
        E 0 8b 43 64
        E 1 9a 4a 64
        E 1 9b 47 64
        E 0 9d 37 64
        E 477 88 37 64
        E 0 8a 4a 64
        E 0 8b 47 64
        E 0 8d 37 64
        E 0 9a 49 64
        E 0 9b 45 64
        E 0 9d 2b 64
        E 481 8a 49 64
        E 0 8b 45 64
        E 1 98 43 64
        E 3 9a 4c 64
        E 1 9b 43 64
        E 477 88 43 64
        E 0 8a 4c 64
        E 0 8b 43 64
        E 0 8d 2b 64
        E 0 98 3e 64
        E 0 9a 4a 64
        E 1 9b 42 64
        E 475 9d 3e 64
        E 482 88 3e 64
        E 1 8d 3e 64
        E 1 9d 32 64
        E 476 8a 4a 64
        E 2 98 3e 64
        E 3 9a 4a 64
        E 478 88 3e 64
        E 0 8a 4a 64
        E 0 8b 42 64
        E 0 8d 32 64
        E 0 98 39 64
        E 0 9a 49 64
        E 477 8a 49 64
        E 1 9a 47 64
        E 3 9d 39 64
        E 479 88 39 64
        E 0 8a 47 64
        E 0 8d 39 64
        E 0 9a 45 64
        E 0 9d 2d 64
        E 479 8a 45 64
        E 2 98 45 64
        E 0 9a 43 64
        E 478 88 45 64
        E 0 8a 43 64
        E 0 8d 2d 64
        E 0 98 3e 64
        E 0 9a 42 64
        E 482 9d 3e 64
        E 480 88 3e 64
        E 0 8d 3e 64
        E 0 9d 32 64
        E 478 8a 42 64
        E 0 98 3e 64
        E 1 9a 4e 64
        E 0 9b 4a 64
        E 479 88 3e 64
        E 0 8a 4e 64
        E 0 8b 4a 64
        E 0 8d 32 64
        E 0 98 39 64
        E 0 9a 4c 64
        E 0 9b 49 64
        E 479 8a 4c 64
        E 0 8b 49 64
        E 0 9a 4a 64
        E 1 9b 47 64
        E 4 9d 39 64
        E 477 88 39 64
        E 5 8a 4a 64
        E 0 8b 47 64
        E 0 8d 39 64
        E 0 9a 49 64
        E 0 9b 45 64
        E 0 9d 2d 64
        E 472 8a 49 64
        E 0 8b 45 64
        E 2 98 45 64
        E 0 9a 47 64
        E 0 9b 43 64
        E 479 88 45 64
        E 0 8a 47 64
        E 0 8b 43 64
        E 1 8d 2d 64
        E 0 98 39 64
        E 0 9a 45 64
        E 0 9b 42 64
        E 479 8a 45 64
        E 0 8b 42 64
        E 1 9a 47 64
        E 0 9b 43 64
        E 0 9d 39 64
        E 479 88 39 64
        E 0 8a 47 64
        E 0 8b 43 64
        E 0 8d 39 64
        E 0 9a 47 64
        E 1 9b 43 64
        E 0 9d 2d 64
        E 479 8a 47 64
        E 1 8b 43 64
        E 0 98 45 64
        E 1 9a 49 64
        E 0 9b 45 64
        E 477 88 45 64
        E 0 8a 49 64
        E 0 8b 45 64
        E 0 8d 2d 64
        E 0 98 39 64
        E 1 9a 49 64
        E 0 9b 45 64
        E 481 8a 49 64
        E 0 8b 45 64
        E 0 9a 4a 64
        E 0 9b 47 64
        E 0 9d 39 64
        E 480 88 39 64
        E 0 8a 4a 64
        E 0 8b 47 64
        E 0 8d 39 64
        E 0 9a 4a 64
        E 0 9b 47 64
        E 0 9d 2d 64
        E 478 8a 4a 64
        E 1 8b 47 64
        E 0 98 45 64
        E 0 9a 4c 64
        E 0 9b 49 64
        E 480 88 45 64
        E 0 8a 4c 64
        E 0 8b 49 64
        E 0 8d 2d 64
        E 0 98 39 64
        E 0 9a 4c 64
        E 0 9b 49 64
        E 483 8a 4c 64
        E 1 8b 49 64
        E 0 9a 4a 64
        E 0 9b 47 64
        E 1 9d 39 64
        E 236 8a 4a 64
        E 0 8b 47 64
        E 0 9a 49 64
        E 0 9b 45 64
        E 240 88 39 64
        E 0 8a 49 64
        E 0 8b 45 64
        E 0 8d 39 64
        E 0 9a 4e 64
        E 0 9b 4a 64
        E 0 9d 2d 64
        E 480 8a 4e 64
        E 0 98 45 64
        E 0 9a 4a 64
        E 480 88 45 64
        E 1 8a 4a 64
        E 0 8b 4a 64
        E 0 8d 2d 64
        E 0 98 39 64
        E 0 9a 4c 64
        E 0 9b 49 64
        E 479 8a 4c 64
        E 0 8b 49 64
        E 0 9a 4a 64
        E 0 9b 47 64
        E 0 9d 39 64
        E 240 8a 4a 64
        E 0 8b 47 64
        E 0 9a 49 64
        E 0 9b 45 64
        E 240 88 39 64
        E 0 8a 49 64
        E 0 8b 45 64
        E 0 8d 39 64
        E 0 9a 4e 64
        E 3 9b 4a 64
        E 1 9d 2d 64
        E 475 8a 4e 64
        E 1 98 45 64
        E 0 9a 4a 64
        E 479 88 45 64
        E 1 8a 4a 64
        E 0 8b 4a 64
        E 0 8d 2d 64
        E 0 98 39 64
        E 0 9a 4c 64
        E 0 9b 49 64
        E 479 88 39 64
        E 0 98 45 64
        E 1 9d 39 64
        E 480 88 45 64
        E 0 8d 39 64
        E 0 98 39 64
        E 0 9d 2d 64
        E 480 88 39 64
        E 0 8a 4c 64
        E 0 8b 49 64
        E 0 8d 2d 64
        E 0 98 45 64
        E 0 9a 4a 64
        E 0 9b 4a 64
        E 0 9d 39 64
        E 479 88 45 64
        E 0 8a 4a 64
        E 0 8b 4a 64
        E 0 8d 39 64
        E 0 98 3e 64
        E 0 9a 4a 64
        E 0 9b 4a 64
        E 0 9d 32 64
        E 960 88 3e 64
        E 960 8a 4a 64
        E 0 8b 4a 64
        E 0 8d 32 64
        E 0 98 45 64
        E 0 9d 3e 64
        E 960 88 45 64
        E 0 8d 3e 64
        E 0 98 47 64
        E 0 9d 37 64
        E 961 88 47 64
        E 0 8d 37 64
        E 0 98 42 64
        E 0 9d 32 64
        E 960 88 42 64
        E 0 8d 32 64
        E 959 98 42 64
        E 0 9d 32 64
        E 959 88 42 64
        E 0 8d 32 64
        E 0 98 40 64
        E 0 9d 31 64
        E 960 88 40 64
        E 0 8d 31 64
        E 0 98 39 64
        E 0 9d 32 64
        E 482 88 39 64
        E 0 8d 32 64
        E 0 98 4a 64
        E 0 9d 3e 64
        E 480 88 4a 64
        E 0 8d 3e 64
        E 0 98 49 64
        E 0 9d 3d 64
        E 480 88 49 64
        E 0 8d 3d 64
        E 0 98 47 64
        E 0 9d 3b 64
        E 480 88 47 64
        E 0 8d 3b 64
        E 1 98 45 64
        E 0 9d 39 64
        E 478 88 45 64
        E 0 8d 39 64
        E 0 98 43 64
        E 0 9d 37 64
        E 241 88 43 64
        E 0 8d 37 64
        E 0 98 42 64
        E 0 9d 36 64
        E 239 88 42 64
        E 0 8d 36 64
        E 0 98 40 64
        E 0 9d 34 64
        E 481 88 40 64
        E 0 8d 34 64
        E 0 98 3e 64
        E 0 9d 32 64
        E 479 88 3e 64
        E 0 8d 32 64
        E 0 98 45 64
        E 0 9d 39 64
        E 480 8d 39 64
        E 0 9d 39 64
        E 481 88 45 64
        E 0 8d 39 64
        E 0 9d 32 64
        E 478 98 4a 64
        E 0 9a 45 64
        E 0 9b 42 64
        E 482 88 4a 64
        E 0 8a 45 64
        E 0 8b 42 64
        E 0 8d 32 64
        E 0 98 3e 64
        E 1 9a 47 64
        E 0 9b 43 64
        E 478 9d 3e 64
        E 480 88 3e 64
        E 0 8a 47 64
        E 0 8b 43 64
        E 0 8d 3e 64
        E 0 9a 47 64
        E 0 9b 43 64
        E 0 9d 32 64
        E 480 98 4a 64
        E 481 88 4a 64
        E 0 8a 47 64
        E 0 8b 43 64
        E 0 8d 32 64
        E 0 98 3e 64
        E 1 9a 45 64
        E 0 9b 42 64
        E 479 9d 3e 64
        E 478 88 3e 64
        E 0 8a 45 64
        E 0 8b 42 64
        E 0 8d 3e 64
        E 1 9a 4a 64
        E 0 9b 42 64
        E 0 9d 32 64
        E 482 8a 4a 64
        E 0 8b 42 64
        E 0 98 4a 64
        E 0 9a 45 64
        E 0 9b 42 64
        E 478 88 4a 64
        E 0 8a 45 64
        E 0 8b 42 64
        E 0 8d 32 64
        E 0 98 3e 64
        E 0 9a 47 64
        E 0 9b 43 64
        E 479 9d 3e 64
        E 480 88 3e 64
        E 1 8a 47 64
        E 0 8b 43 64
        E 0 8d 3e 64
        E 0 9a 47 64
        E 0 9b 43 64
        E 0 9d 32 64
        E 480 8a 47 64
        E 0 8b 43 64
        E 0 98 4a 64
        E 0 9a 47 64
        E 0 9b 43 64
        E 481 88 4a 64
        E 0 8a 47 64
        E 0 8b 43 64
        E 0 8d 32 64
        E 1 98 3e 64
        E 0 9a 45 64
        E 0 9b 42 64
        E 479 9d 3e 64
        E 480 88 3e 64
        E 0 8a 45 64
        E 0 8b 42 64
        E 0 8d 3e 64
        E 0 9a 4a 64
        E 0 9d 32 64
        E 479 98 3e 64
        E 481 88 3e 64
        E 0 8a 4a 64
        E 0 8d 32 64
        E 1 98 38 64
        E 0 9a 4a 64
        E 0 9b 4c 64
        E 477 8a 4a 64
        E 0 8b 4c 64
        E 0 9a 4d 64
        E 0 9b 4a 64
        E 1 9d 38 64
        E 482 88 38 64
        E 0 8a 4d 64
        E 0 8b 4a 64
        E 0 8d 38 64
        E 0 9a 4c 64
        E 0 9b 48 64
        E 0 9d 2c 64
        E 479 8a 4c 64
        E 3 8b 48 64
        E 0 98 40 64
        E 0 9a 4a 64
        E 1 9b 47 64
        E 476 88 40 64
        E 0 8a 4a 64
        E 0 8b 47 64
        E 0 8d 2c 64
        E 0 98 39 64
        E 0 9a 48 64
        E 0 9b 45 64
        E 0 9d 2d 64
        E 479 8d 2d 64
        E 1 9d 2f 64
        E 481 88 39 64
        E 0 8a 48 64
        E 0 8d 2f 64
        E 0 9a 4c 64
        E 0 9d 30 64
        E 478 8d 30 64
        E 0 9d 2f 64
        E 479 8a 4c 64
        E 0 8b 45 64
        E 0 8d 2f 64
        E 0 9a 48 64
        E 0 9d 2d 64
        E 482 8a 48 64
        E 0 8d 2d 64
        E 0 9a 47 64
        E 0 9d 2f 64
        E 480 8a 47 64
        E 0 8d 2f 64
        E 0 9a 45 64
        E 0 9d 30 64
        E 479 8a 45 64
        E 1 8d 30 64
        E 0 9a 44 64
        E 0 9d 32 64
        E 239 8d 32 64
        E 0 9d 34 64
        E 241 8a 44 64
        E 0 8d 34 64
        E 0 9a 45 64
        E 0 9d 35 64
        E 478 98 4a 64
        E 482 88 4a 64
        E 0 8d 35 64
        E 0 98 41 64
        E 0 9b 4d 64
        E 479 9d 3e 64
        E 480 88 41 64
        E 1 8a 45 64
        E 0 8b 4d 64
        E 0 8d 3e 64
        E 0 9a 45 64
        E 0 9b 4a 64
        E 0 9d 35 64
        E 480 8b 4a 64
        E 0 98 4a 64
        E 0 9b 48 64
        E 479 88 4a 64
        E 0 8b 48 64
        E 0 8d 35 64
        E 0 98 41 64
        E 0 9b 47 64
        E 480 8b 47 64
        E 0 9b 45 64
        E 0 9d 3e 64
        E 479 88 41 64
        E 0 8a 45 64
        E 0 8b 45 64
        E 0 8d 3e 64
        E 0 9a 44 64
        E 0 9b 47 64
        E 0 9d 34 64
        E 481 8a 44 64
        E 0 8b 47 64
        E 0 98 4c 64
        E 0 9a 45 64
        E 0 9b 48 64
        E 480 88 4c 64
        E 0 8a 45 64
        E 0 8b 48 64
        E 0 8d 34 64
        E 0 98 40 64
        E 0 9a 45 64
        E 0 9b 48 64
        E 480 8a 45 64
        E 0 8b 48 64
        E 0 9a 47 64
        E 0 9b 4a 64
        E 0 9d 40 64
        E 480 88 40 64
        E 0 8a 47 64
        E 0 8b 4a 64
        E 0 8d 40 64
        E 1 9a 47 64
        E 0 9b 4a 64
        E 0 9d 34 64
        E 479 8a 47 64
        E 0 8b 4a 64
        E 0 98 4c 64
        E 0 9a 45 64
        E 0 9b 48 64
        E 480 88 4c 64
        E 0 8a 45 64
        E 0 8b 48 64
        E 0 8d 34 64
        E 0 98 40 64
        E 0 9a 45 64
        E 0 9b 48 64
        E 480 8a 45 64
        E 0 8b 48 64
        E 1 9a 44 64
        E 0 9b 47 64
        E 0 9d 40 64
        E 479 88 40 64
        E 0 8a 44 64
        E 0 8b 47 64
        E 0 8d 40 64
        E 0 9a 44 64
        E 0 9b 47 64
        E 0 9d 34 64
        E 479 8d 34 64
        E 0 9d 40 64
        E 481 8a 44 64
        E 1 8b 47 64
        E 0 8d 40 64
        E 0 9b 4c 64
        E 0 9d 3c 64
        E 479 8d 3c 64
        E 0 9d 39 64
        E 480 8b 4c 64
        E 0 8d 39 64
        E 0 9a 4d 64
        E 0 9b 4c 64
        E 0 9d 2d 64
        E 479 8b 4c 64
        E 1 98 45 64
        E 0 9b 4a 64
        E 239 8b 4a 64
        E 0 9b 48 64
        E 242 88 45 64
        E 0 8b 48 64
        E 0 8d 2d 64
        E 0 98 39 64
        E 0 9b 4a 64
        E 479 8a 4d 64
        E 0 9a 4c 64
        E 0 9d 39 64
        E 239 8a 4c 64
        E 1 9a 4a 64
        E 242 88 39 64
        E 0 8a 4a 64
        E 0 8b 4a 64
        E 0 8d 39 64
        E 0 9a 4c 64
        E 0 9b 4a 64
        E 0 9d 2d 64
        E 478 8b 4a 64
        E 0 98 45 64
        E 1 9b 48 64
        E 239 8b 48 64
        E 0 9b 47 64
        E 241 88 45 64
        E 0 8b 47 64
        E 0 8d 2d 64
        E 0 98 39 64
        E 1 9b 48 64
        E 479 8a 4c 64
        E 0 9a 4a 64
        E 0 9d 39 64
        E 239 8a 4a 64
        E 0 9a 48 64
        E 244 88 39 64
        E 0 8a 48 64
        E 0 8b 48 64
        E 0 8d 39 64
        E 0 9a 4a 64
        E 0 9b 48 64
        E 0 9d 2d 64
        E 476 8b 48 64
        E 0 98 45 64
        E 0 9b 47 64
        E 241 8b 47 64
        E 1 9b 45 64
        E 238 88 45 64
        E 0 8b 45 64
        E 0 8d 2d 64
        E 0 98 39 64
        E 0 9b 47 64
        E 480 8a 4a 64
        E 0 9a 48 64
        E 0 9d 39 64
        E 240 8a 48 64
        E 0 9a 47 64
        E 239 88 39 64
        E 0 8a 47 64
        E 0 8b 47 64
        E 0 8d 39 64
        E 0 9a 49 64
        E 0 9b 47 64
        E 0 9d 2d 64
        E 482 98 45 64
        E 479 88 45 64
        E 0 8a 49 64
        E 0 8b 47 64
        E 0 8d 2d 64
        E 0 98 39 64
        E 0 9a 4b 64
        E 0 9b 47 64
        E 481 9d 39 64
        E 483 88 39 64
        E 0 8a 4b 64
        E 0 8b 47 64
        E 0 8d 39 64
        E 0 9a 4c 64
        E 0 9b 47 64
        E 0 9d 37 64
        E 476 8a 4c 64
        E 0 8d 37 64
        E 1 9a 47 64
        E 0 9d 36 64
        E 480 8a 47 64
        E 0 8b 47 64
        E 0 8d 36 64
        E 0 9d 37 64
        E 480 8d 37 64
        E 0 9a 47 64
        E 0 9b 43 64
        E 0 9d 34 64
        E 482 8a 47 64
        E 0 8b 43 64
        E 0 8d 34 64
        E 0 9a 49 64
        E 0 9b 43 64
        E 0 9d 39 64
        E 476 8a 49 64
        E 0 8b 43 64
        E 1 9a 4b 64
        E 0 9b 42 64
        E 480 8a 4b 64
        E 0 8b 42 64
        E 0 9a 4c 64
        E 0 9b 45 64
        E 480 8a 4c 64
        E 0 8b 45 64
        E 0 9a 4e 64
        E 0 9b 43 64
        E 479 8a 4e 64
        E 0 8b 43 64
        E 0 8d 39 64
        E 0 9a 4b 64
        E 0 9b 42 64
        E 0 9d 3b 64
        E 962 8d 3b 64
        E 0 9d 2f 64
        E 480 8a 4b 64
        E 0 8b 42 64
        E 0 9a 4c 64
        E 0 9b 42 64
        E 480 8a 4c 64
        E 0 8b 42 64
        E 0 8d 2f 64
        E 0 98 43 64
        E 0 9a 4c 64
        E 0 9b 40 64
        E 1 9d 28 64
        E 960 88 43 64
        E 0 8d 28 64
        E 0 98 3f 64
        E 0 9d 2f 64
        E 959 88 3f 64
        E 0 8a 4c 64
        E 0 8b 40 64
        E 0 8d 2f 64
        E 0 98 3b 64
        E 1 9d 34 64
        E 957 88 3b 64
        E 1 8d 34 64
        E 480 98 4b 64
        E 0 9d 3b 64
        E 483 88 4b 64
        E 1 8d 3b 64
        E 0 98 4c 64
        E 0 9d 40 64
        E 476 88 4c 64
        E 0 8d 40 64
        E 0 98 4a 64
        E 0 9d 3e 64
        E 239 88 4a 64
        E 0 8d 3e 64
        E 0 98 48 64
        E 0 9d 3c 64
        E 241 88 48 64
        E 0 8d 3c 64
        E 0 98 47 64
        E 0 9d 3b 64
        E 480 88 47 64
        E 0 8d 3b 64
        E 0 98 45 64
        E 0 9d 39 64
        E 479 88 45 64
        E 0 8d 39 64
        E 0 98 43 64
        E 0 9d 37 64
        E 482 88 43 64
        E 0 8d 37 64
        E 0 98 42 64
        E 0 9d 36 64
        E 240 88 42 64
        E 0 8d 36 64
        E 0 98 40 64
        E 0 9d 34 64
        E 240 88 40 64
        E 0 8d 34 64
        E 0 98 43 64
        E 0 9d 37 64
        E 480 88 43 64
        E 0 8d 37 64
        E 0 98 45 64
        E 0 9d 39 64
        E 478 88 45 64
        E 0 8d 39 64
        E 0 98 47 64
        E 1 9d 3b 64
        E 481 88 47 64
        E 0 8d 3b 64
        E 0 98 44 64
        E 479 88 44 64
        E 0 98 47 64
        E 0 9a 47 64
        E 481 88 47 64
        E 0 8a 47 64
        E 0 98 44 64
        E 0 9a 4c 64
        E 480 88 44 64
        E 0 8a 4c 64
        E 0 98 40 64
        E 0 9a 49 64
        E 0 9d 39 64
        E 480 8d 39 64
        E 0 9d 2d 64
        E 481 88 40 64
        E 0 8d 2d 64
        E 1 98 40 64
        E 0 9d 31 64
        E 477 88 40 64
        E 0 8a 49 64
        E 0 8d 31 64
        E 1 98 3d 64
        E 0 9a 49 64
        E 0 9d 2d 64
        E 480 88 3d 64
        E 0 8a 49 64
        E 0 8d 2d 64
        E 0 98 39 64
        E 0 9a 4a 64
        E 0 9d 32 64
        E 959 88 39 64
        E 0 8a 4a 64
        E 0 8d 32 64
        E 0 9a 45 64
        E 481 8a 45 64
        E 0 98 42 64
        E 0 9a 4a 64
        E 0 9d 32 64
        E 481 88 42 64
        E 0 8a 4a 64
        E 0 8d 32 64
        E 0 98 3e 64
        E 0 9a 47 64
        E 0 9d 37 64
        E 479 8d 37 64
        E 1 9d 2b 64
        E 478 88 3e 64
        E 0 8d 2b 64
        E 0 98 3e 64
        E 0 9d 2f 64
        E 481 88 3e 64
        E 0 8a 47 64
        E 0 8d 2f 64
        E 0 98 3b 64
        E 0 9a 47 64
        E 0 9d 2b 64
        E 481 88 3b 64
        E 0 8a 47 64
        E 0 8d 2b 64
        E 1 98 37 64
        E 1 9a 48 64
        E 0 9b 4c 64
        E 0 9d 30 64
        E 957 88 37 64
        E 0 8a 48 64
        E 0 8b 4c 64
        E 0 9b 48 64
        E 480 8b 48 64
        E 0 8d 30 64
        E 0 9b 46 66
        E 0 9d 30 64
        E 479 8b 46 66
        E 0 8d 30 64
        E 0 9b 45 64
        E 0 9d 35 64
        E 480 8b 45 64
        E 1 9b 4d 64
        E 479 8b 4d 64
        E 0 8d 35 64
        E 0 9b 4a 64
        E 0 9d 36 64
        E 479 8b 4a 64
        E 0 9b 48 64
        E 480 8b 48 64
        E 0 8d 36 64
        E 0 9b 47 64
        E 0 9d 37 64
        E 320 9b 45 64
        E 162 8b 47 64
        E 157 9b 43 64
        E 162 8b 45 64
        E 160 8d 37 64
        E 0 9b 4c 64
        E 0 9d 3c 64
        E 157 8b 43 64
        E 161 9b 4a 64
        E 163 8b 4c 64
        E 157 9b 48 64
        E 161 8b 4a 64
        E 161 8d 3c 64
        E 0 9b 47 64
        E 0 9d 37 64
        E 159 8b 48 64
        E 801 8d 37 64
        E 0 9d 2b 64
        E 480 8b 47 64
        E 1 9b 48 64
        E 479 8b 48 64
        E 0 8d 2b 64
        E 0 9b 48 64
        E 0 9d 30 64
        E 960 8d 30 64
        E 960 8b 48 64
        E 1 98 43 64
        E 0 9d 3c 64
        E 959 88 43 64
        E 0 8d 3c 64
        E 0 98 45 64
        E 0 9d 35 64
        E 960 88 45 64
        E 0 8d 35 64
        E 0 98 40 64
        E 1 9d 30 64
        E 960 88 40 64
        E 0 8d 30 64
        E 960 98 40 64
        E 0 9d 3c 64
        E 959 88 40 64
        E 0 8d 3c 64
        E 1 98 3e 64
        E 0 9d 3b 64
        E 959 88 3e 64
        E 0 8d 3b 64
        E 0 98 43 64
        E 0 9d 3c 64
        E 960 88 43 64
        E 0 8d 3c 64
        E 0 98 47 64
        E 0 9d 3b 64
        E 481 88 47 64
        E 0 8d 3b 64
        E 0 98 45 64
        E 0 9d 39 64
        E 479 88 45 64
        E 0 8d 39 64
        E 0 98 43 64
        E 0 9d 37 64
        E 481 88 43 64
        E 0 8d 37 64
        E 1 98 41 64
        E 0 9d 35 64
        E 240 88 41 64
        E 0 8d 35 64
        E 0 98 40 64
        E 0 9d 34 64
        E 237 88 40 64
        E 0 8d 34 64
        E 0 98 3e 64
        E 0 9d 32 64
        E 482 88 3e 64
        E 0 8d 32 64
        E 0 98 3c 64
        E 0 9d 30 64
        E 480 88 3c 64
        E 0 8d 30 64
        E 0 98 37 64
        E 1 9d 2b 64
        E 479 8d 2b 64
        E 0 9d 37 64
        E 479 88 37 64
        E 0 8d 37 64
        E 0 9d 2b 64
        E 481 98 43 64
        E 0 9a 4a 64
        E 0 9b 47 64
        E 480 88 43 64
        E 0 8a 4a 64
        E 0 8b 47 64
        E 0 8d 2b 64
        E 0 98 37 64
        E 0 9a 4c 64
        E 0 9b 48 64
        E 478 8a 4c 64
        E 0 8b 48 64
        E 0 9a 4a 64
        E 1 9b 47 64
        E 0 9d 37 64
        E 480 88 37 64
        E 0 8a 4a 64
        E 0 8b 47 64
        E 0 8d 37 64
        E 1 9a 4c 64
        E 0 9b 48 64
        E 0 9d 2b 64
        E 480 8a 4c 64
        E 0 8b 48 64
        E 0 98 43 64
        E 1 9a 4d 64
        E 1 9b 4a 64
        E 477 88 43 64
        E 0 8a 4d 64
        E 0 8b 4a 64
        E 0 8d 2b 64
        E 1 98 37 64
        E 0 9a 4a 64
        E 0 9b 47 64
        E 480 9d 37 64
        E 479 88 37 64
        E 0 8a 4a 64
        E 0 8b 47 64
        E 0 8d 37 64
        E 0 9a 48 64
        E 0 9b 45 64
        E 0 9d 2b 64
        E 480 8a 48 64
        E 0 8b 45 64
        E 0 98 43 64
        E 0 9a 4a 64
        E 0 9b 47 64
        E 482 88 43 64
        E 0 8a 4a 64
        E 0 8b 47 64
        E 0 8d 2b 64
        E 0 98 37 64
        E 1 9a 4c 64
        E 0 9b 48 64
        E 478 9d 37 64
        E 479 88 37 64
        E 0 8a 4c 64
        E 0 8b 48 64
        E 0 8d 37 64
        E 0 9a 4d 64
        E 0 9b 4a 64
        E 0 9d 2b 64
        E 480 8a 4d 64
        E 0 8b 4a 64
        E 0 98 43 64
        E 0 9a 4c 64
        E 0 9b 48 64
        E 480 88 43 64
        E 1 8a 4c 64
        E 0 8b 48 64
        E 0 8d 2b 64
        E 0 98 37 64
        E 0 9a 4a 64
        E 0 9b 47 64
        E 478 9d 37 64
        E 482 88 37 64
        E 0 8a 4a 64
        E 0 8b 47 64
        E 0 8d 37 64
        E 1 9a 4c 64
        E 0 9b 48 64
        E 0 9d 2b 64
        E 479 8a 4c 64
        E 1 8b 48 64
        E 0 98 43 64
        E 0 9a 4a 64
        E 0 9b 47 64
        E 478 88 43 64
        E 0 8a 4a 64
        E 0 8b 47 64
        E 0 8d 2b 64
        E 0 98 37 64
        E 0 9a 48 64
        E 0 9b 45 64
        E 480 9d 37 64
        E 481 88 37 64
        E 0 8a 48 64
        E 0 8b 45 64
        E 0 8d 37 64
        E 0 9a 4a 64
        E 1 9b 47 64
        E 0 9d 2b 64
        E 478 8a 4a 64
        E 0 8b 47 64
        E 0 98 43 64
        E 0 9a 48 64
        E 0 9b 45 64
        E 482 88 43 64
        E 0 8a 48 64
        E 0 8b 45 64
        E 0 8d 2b 64
        E 0 98 37 64
        E 0 9a 47 64
        E 0 9b 43 64
        E 479 8a 47 64
        E 0 8b 43 64
        E 0 9a 47 64
        E 0 9b 43 64
        E 0 9d 37 64
        E 479 88 37 64
        E 0 8a 47 64
        E 0 8b 43 64
        E 0 8d 37 64
        E 0 9a 48 64
        E 0 9b 45 64
        E 0 9d 2b 64
        E 481 8a 48 64
        E 0 8b 45 64
        E 0 98 43 64
        E 0 9a 4a 64
        E 0 9b 47 64
        E 480 88 43 64
        E 0 8a 4a 64
        E 0 8b 47 64
        E 0 8d 2b 64
        E 0 98 37 64
        E 0 9a 48 64
        E 0 9b 45 64
        E 479 9d 37 64
        E 480 88 37 64
        E 0 8a 48 64
        E 0 8b 45 64
        E 0 8d 37 64
        E 0 9a 47 64
        E 0 9b 43 64
        E 0 9d 2b 64
        E 482 98 43 64
        E 478 88 43 64
        E 0 8a 47 64
        E 0 8b 43 64
        E 0 8d 2b 64
        E 0 98 3e 64
        E 0 9a 45 64
        E 0 9b 42 64
        E 0 9d 32 64
        E 484 8d 32 64
        E 0 9d 34 64
        E 476 88 3e 64
        E 1 8a 45 64
        E 0 8b 42 64
        E 0 8d 34 64
        E 0 9a 4e 64
        E 0 9b 4a 64
        E 0 9d 36 64
        E 479 8d 36 64
        E 0 9d 32 64
        E 240 8a 4e 64
        E 0 8b 4a 64
        E 0 9a 4e 64
        E 0 9b 4a 64
        E 241 8a 4e 64
        E 0 8b 4a 64
        E 0 8d 32 64
        E 0 9a 4a 64
        E 0 9b 47 64
        E 0 9d 2b 64
        E 959 8a 4a 64
        E 1 8b 47 64
        E 0 9a 47 64
        E 0 9b 43 64
        E 480 8d 2b 64
        E 1 9d 2b 64
        E 479 8a 47 64
        E 0 8b 43 64
        E 0 8d 2b 64
        E 0 9a 43 64
        E 0 9b 40 64
        E 0 9d 30 64
        E 960 8a 43 64
        E 0 8b 40 64
        E 0 9a 4c 64
        E 0 9b 43 64
        E 479 8d 30 64
        E 0 9d 30 64
        E 240 8a 4c 64
        E 0 8b 43 64
        E 0 9a 4c 64
        E 0 9b 43 64
        E 239 8a 4c 64
        E 0 8b 43 64
        E 0 8d 30 64
        E 0 9a 4c 64
        E 0 9b 49 64
        E 0 9d 2d 64
        E 962 8a 4c 64
        E 0 8b 49 64
        E 1 9a 49 64
        E 0 9b 45 64
        E 477 8d 2d 64
        E 1 9d 2d 64
        E 480 8a 49 64
        E 0 8b 45 64
        E 0 8d 2d 64
        E 0 9a 45 64
        E 0 9b 42 64
        E 0 9d 32 64
        E 1440 8d 32 64
        E 1 98 42 64
        E 0 9d 32 64
        E 480 88 42 64
        E 0 8a 45 64
        E 0 8b 42 64
        E 0 8d 32 64
        E 0 98 40 64
        E 0 9d 39 64
        E 479 8d 39 64
        E 0 9d 37 64
        E 481 88 40 64
        E 0 8d 37 64
        E 0 98 45 64
        E 0 9d 36 64
        E 479 88 45 64
        E 0 8d 36 64
        E 0 98 42 64
        E 0 9d 32 64
        E 479 88 42 64
        E 0 8d 32 64
        E 0 98 3e 64
        E 0 9d 37 64
        E 481 8d 37 64
        E 0 9d 37 64
        E 481 88 3e 64
        E 0 8d 37 64
        E 0 9a 4a 64
        E 0 9d 2b 64
        E 960 8a 4a 64
        E 0 8d 2b 64
        E 0 9a 4a 64
        E 0 9b 4c 64
        E 0 9d 37 64
        E 479 8a 4a 64
        E 0 9a 48 64
        E 241 8a 48 64
        E 0 9a 47 64
        E 240 8a 47 64
        E 0 8d 37 64
        E 0 9a 48 64
        E 0 9d 39 64
        E 478 8b 4c 64
        E 1 9b 4a 64
        E 240 8b 4a 64
        E 0 9b 48 64
        E 240 8a 48 64
        E 0 8b 48 64
        E 0 8d 39 64
        E 0 9a 48 64
        E 0 9b 4a 64
        E 0 9d 36 64
        E 482 8a 48 64
        E 0 9a 47 64
        E 239 8a 47 64
        E 0 9a 45 64
        E 238 8a 45 64
        E 0 8d 36 64
        E 0 9a 47 64
        E 0 9d 37 64
        E 481 8b 4a 64
        E 1 9b 48 64
        E 240 8b 48 64
        E 0 9b 47 64
        E 240 8a 47 64
        E 0 8b 47 64
        E 0 8d 37 64
        E 0 9a 47 64
        E 0 9b 48 64
        E 0 9d 39 64
        E 479 8a 47 64
        E 0 9a 45 64
        E 241 8a 45 64
        E 0 9a 43 64
        E 239 8a 43 64
        E 0 8d 39 64
        E 0 9a 45 64
        E 0 9d 36 64
        E 480 8b 48 64
        E 0 9b 47 64
        E 241 8b 47 64
        E 0 9b 45 64
        E 239 8a 45 64
        E 0 8b 45 64
        E 0 8d 36 64
        E 0 9a 45 64
        E 0 9b 47 64
        E 0 9d 37 64
        E 481 8a 45 64
        E 0 9a 43 64
        E 240 8a 43 64
        E 0 9a 42 64
        E 238 8a 42 64
        E 0 8d 37 64
        E 0 9a 43 64
        E 0 9d 2f 64
        E 481 8b 47 64
        E 0 9b 45 64
        E 239 8b 45 64
        E 1 9b 43 64
        E 240 8a 43 64
        E 0 8b 43 64
        E 0 8d 2f 64
        E 0 9a 43 64
        E 0 9b 45 64
        E 0 9d 30 64
        E 960 8a 43 64
        E 0 8d 30 64
        E 0 9a 42 64
        E 0 9d 32 64
        E 480 8b 45 64
        E 0 9b 45 64
        E 480 8a 42 64
        E 0 8b 45 64
        E 0 8d 32 64
        E 0 98 3e 64
        E 0 9a 43 64
        E 0 9b 43 64
        E 0 9d 2b 64
        E 960 8a 43 64
        E 0 8b 43 64
        E 0 8d 2b 64
        E 480 88 3e 64
        E 0 98 3e 64
        E 0 9d 3b 64
        E 480 88 3e 64
        E 0 8d 3b 64
        E 0 98 40 64
        E 0 9d 39 64
        E 481 8d 39 64
        E 0 9d 37 64
        E 480 88 40 64
        E 0 8d 37 64
        E 0 98 45 64
        E 0 9d 36 64
        E 479 88 45 64
        E 0 8d 36 64
        E 0 98 42 64
        E 0 9d 32 64
        E 480 88 42 64
        E 0 8d 32 64
        E 1 98 3e 64
        E 0 9d 2b 64
        E 480 8d 2b 64
        E 0 9d 37 64
        E 479 88 3e 64
        E 0 8d 37 64
        E 1 9b 4a 64
        E 2 9d 2b 64
        E 957 8b 4a 64
        E 0 8d 2b 64
        E 0 9a 4c 64
        E 0 9b 4a 64
        E 0 9d 37 64
        E 479 8b 4a 64
        E 1 9b 48 64
        E 241 8b 48 64
        E 0 9b 47 64
        E 239 8b 47 64
        E 0 8d 37 64
        E 0 9b 48 64
        E 0 9d 39 64
        E 479 8a 4c 64
        E 1 9a 4a 64
        E 240 8a 4a 64
        E 0 9a 48 64
        E 239 8a 48 64
        E 1 8b 48 64
        E 0 8d 39 64
        E 0 9a 4a 64
        E 0 9b 48 64
        E 0 9d 36 64
        E 481 8b 48 64
        E 1 9b 47 64
        E 239 8b 47 64
        E 0 9b 45 64
        E 240 8b 45 64
        E 0 8d 36 64
        E 0 9b 47 64
        E 0 9d 37 64
        E 479 8a 4a 64
        E 0 9a 48 64
        E 240 8a 48 64
        E 0 9a 47 64
        E 240 8a 47 64
        E 0 8b 47 64
        E 0 8d 37 64
        E 0 9a 48 64
        E 0 9b 47 64
        E 0 9d 39 64
        E 480 8b 47 64
        E 0 9b 45 64
        E 240 8b 45 64
        E 0 9b 43 64
        E 241 8b 43 64
        E 0 8d 39 64
        E 0 9b 45 64
        E 0 9d 36 64
        E 479 8a 48 64
        E 0 9a 47 64
        E 241 8a 47 64
        E 0 9a 45 64
        E 239 8a 45 64
        E 0 8b 45 64
        E 0 8d 36 64
        E 0 9a 47 64
        E 0 9b 45 64
        E 0 9d 37 64
        E 480 8b 45 64
        E 0 9b 43 64
        E 241 8b 43 64
        E 0 9b 42 64
        E 238 8b 42 64
        E 0 8d 37 64
        E 0 9b 43 64
        E 0 9d 2f 64
        E 482 8a 47 64
        E 1 9a 45 64
        E 239 8a 45 64
        E 0 9a 43 64
        E 239 8a 43 64
        E 0 8b 43 64
        E 2 8d 2f 64
        E 0 9a 45 64
        E 1 9b 43 64
        E 0 9d 30 64
        E 958 8b 43 64
        E 0 8d 30 64
        E 0 9b 42 64
        E 0 9d 32 64
        E 480 8a 45 64
        E 0 9a 45 64
        E 479 8a 45 64
        E 0 8b 42 64
        E 0 8d 32 64
        E 0 9a 43 64
        E 0 9b 43 64
        E 0 9d 2b 64
        E 959 8d 2b 64
        E 961 8a 43 64
        E 0 8b 43 64
        E 0 98 3e 64
        E 0 9d 37 64
        E 959 88 3e 64
        E 1 8d 37 64
        E 0 98 40 64
        E 0 9d 30 64
        E 962 88 40 64
        E 0 8d 30 64
        E 0 98 3b 64
        E 0 9d 2b 64
        E 960 88 3b 64
        E 0 8d 2b 64
        E 957 98 47 64
        E 1 9d 37 64
        E 960 88 47 64
        E 0 8d 37 64
        E 0 98 45 64
        E 0 9d 36 64
        E 961 88 45 64
        E 0 8d 36 64
        E 0 98 3e 64
        E 0 9d 37 64
        E 960 88 3e 64
        E 0 8d 37 64
        E 0 98 42 64
        E 0 9d 36 64
        E 480 88 42 64
        E 0 8d 36 64
        E 0 98 40 64
        E 0 9d 34 64
        E 479 88 40 64
        E 0 8d 34 64
        E 0 98 3e 64
        E 0 9d 32 64
        E 480 88 3e 64
        E 0 8d 32 64
        E 1 98 3c 64
        E 0 9d 30 64
        E 240 88 3c 64
        E 0 8d 30 64
        E 0 98 3b 64
        E 0 9d 2f 64
        E 239 88 3b 64
        E 0 8d 2f 64
        E 0 98 39 64
        E 0 9d 2d 64
        E 480 88 39 64
        E 0 8d 2d 64
        E 1 98 37 64
        E 0 9d 2b 64
        E 480 88 37 64
        E 0 8d 2b 64
        E 0 98 3e 64
        E 0 9d 32 64
        E 959 88 3e 64
        E 0 8d 32 64
        E 0 98 45 64
        E 0 9d 32 64
        E 480 88 45 64
        E 0 8d 32 64
        E 0 98 45 64
        E 0 9d 30 64
        E 480 88 45 64
        E 0 8d 30 64
        E 0 98 3e 64
        E 0 9d 2f 64
        E 479 88 3e 64
        E 1 8d 2f 64
        E 0 98 3c 64
        E 0 9d 2d 64
        E 480 88 3c 64
        E 0 8d 2d 64
        E 0 98 3e 64
        E 0 9d 2f 64
        E 480 88 3e 64
        E 0 8d 2f 64
        E 0 98 3b 64
        E 0 9d 2b 64
        E 482 88 3b 64
        E 0 8d 2b 64
        E 0 98 37 64
        E 0 9d 30 64
        E 1439 88 37 64
        E 1 98 43 64
        E 480 88 43 64
        E 0 8d 30 64
        E 0 98 40 64
        E 0 9d 31 64
        E 478 88 40 64
        E 0 8d 31 64
        E 0 98 3e 64
        E 1 9d 2f 64
        E 480 88 3e 64
        E 0 8d 2f 64
        E 1 98 40 64
        E 0 9d 31 64
        E 477 88 40 64
        E 0 8d 31 64
        E 1 98 3d 64
        E 0 9d 2d 64
        E 480 88 3d 64
        E 0 8d 2d 64
        E 0 98 39 64
        E 0 9d 32 64
        E 1440 88 39 64
        E 1 98 42 64
        E 480 88 42 64
        E 0 8d 32 64
        E 0 98 40 64
        E 0 9d 39 64
        E 480 8d 39 64
        E 0 9d 37 64
        E 479 88 40 64
        E 0 8d 37 64
        E 0 98 45 64
        E 0 9d 36 64
        E 481 88 45 64
        E 0 8d 36 64
        E 0 98 42 64
        E 1 9d 32 64
        E 478 88 42 64
        E 0 8d 32 64
        E 0 98 3e 64
        E 0 9d 37 64
        E 480 8d 37 64
        E 0 9d 35 64
        E 480 88 3e 64
        E 0 8d 35 64
        E 0 98 43 64
        E 0 9d 34 64
        E 479 88 43 64
        E 0 8d 34 64
        E 1 98 40 64
        E 0 9d 30 64
        E 481 88 40 64
        E 0 8d 30 64
        E 0 98 3c 64
        E 0 9d 35 64
        E 479 8d 35 64
        E 0 9d 33 66
        E 481 88 3c 64
        E 0 8d 33 66
        E 1 98 41 64
        E 0 9d 32 64
        E 479 88 41 64
        E 0 8d 32 64
        E 0 98 3e 64
        E 1 9d 2e 66
        E 478 88 3e 64
        E 0 8d 2e 66
        E 0 98 3a 66
        E 0 9d 33 66
        E 480 8d 33 66
        E 0 9d 32 64
        E 481 88 3a 66
        E 0 8d 32 64
        E 0 98 40 64
        E 0 9d 31 64
        E 479 88 40 64
        E 0 8d 31 64
        E 0 98 3d 64
        E 0 9d 2d 64
        E 482 88 3d 64
        E 0 8d 2d 64
        E 0 98 39 64
        E 1 9d 32 64
        E 1437 88 39 64
        E 0 8d 32 64
        E 0 98 45 64
        E 1 9d 36 64
        E 478 88 45 64
        E 0 8d 36 64
        E 0 98 3e 64
        E 0 9d 37 64
        E 481 88 3e 64
        E 0 8d 37 64
        E 1 98 3e 64
        E 0 9d 2f 64
        E 239 88 3e 64
        E 0 8d 2f 64
        E 0 98 40 64
        E 0 9d 30 64
        E 239 88 40 64
        E 0 8d 30 64
        E 0 98 3e 64
        E 0 9d 32 64
        E 482 88 3e 64
        E 0 8d 32 64
        E 0 98 39 64
        E 0 9d 26 64
        E 481 88 39 64
        E 0 8d 26 64
        E 0 98 3b 64
        E 0 9d 2b 64
        E 2878 88 3b 64
        E 0 8d 2b 64
        E 3842 97 4f 64
        E 0 9e 47 64
        E 0 98 40 64
        E 0 9d 34 64
        E 3070 87 4f 64
        E 0 8e 47 64
        E 0 88 40 64
        E 0 8d 34 64
        E 0 97 4f 64
        E 0 9e 47 64
        E 0 98 40 64
        E 0 9d 34 64
        E 1536 87 4f 64
        E 0 8e 47 64
        E 0 88 40 64
        E 0 8d 34 64
        E 0 97 4f 64
        E 0 9e 47 64
        E 0 98 40 64
        E 0 9d 34 64
        E 1536 87 4f 64
        E 0 8e 47 64
        E 0 88 40 64
        E 0 8d 34 64
        E 0 97 4f 64
        E 0 9e 48 64
        E 0 98 40 64
        E 0 9d 34 64
        E 3072 87 4f 64
        E 0 8e 48 64
        E 0 88 40 64
        E 0 8d 34 64
        E 0 97 4f 64
        E 0 9e 48 64
        E 0 98 40 64
        E 0 9d 34 64
        E 1537 87 4f 64
        E 0 8e 48 64
        E 0 88 40 64
        E 0 8d 34 64
        E 0 97 4f 64
        E 1 9e 48 64
        E 0 98 40 64
        E 0 9d 34 64
        E 1535 87 4f 64
        E 0 8e 48 64
        E 0 88 40 64
        E 0 8d 34 64
        E 2 97 4f 64
        E 0 9e 49 64
        E 0 98 40 64
        E 0 9d 2d 64
        E 3070 87 4f 64
        E 0 8e 49 64
        E 0 88 40 64
        E 0 8d 2d 64
        E 0 97 4f 64
        E 0 9e 49 64
        E 0 98 40 64
        E 0 9d 2d 64
        E 4607 87 4f 64
        E 0 8e 49 64
        E 0 88 40 64
        E 0 8d 2d 64
        E 0 97 4e 64
        E 0 9e 4b 64
        E 0 98 47 64
        E 0 9d 2d 64
        E 3072 87 4e 64
        E 0 8e 4b 64
        E 0 88 47 64
        E 0 8d 2d 64
        E 0 97 4e 64
        E 0 9e 4b 64
        E 1 98 47 64
        E 0 9d 2d 64
        E 1535 87 4e 64
        E 0 8e 4b 64
        E 0 88 47 64
        E 0 8d 2d 64
        E 0 97 4e 64
        E 0 9e 4b 64
        E 0 98 47 64
        E 0 9d 2d 64
        E 1537 87 4e 64
        E 0 8e 4b 64
        E 0 88 47 64
        E 0 8d 2d 64
        E 0 97 4e 64
        E 0 9e 4c 64
        E 0 98 49 64
        E 0 9d 2e 64
        E 3071 87 4e 64
        E 0 8e 4c 64
        E 0 88 49 64
        E 0 8d 2e 64
        E 0 97 4e 64
        E 0 9e 4c 64
        E 0 98 49 64
        E 0 9d 2e 64
        E 1537 87 4e 64
        E 0 8e 4c 64
        E 0 88 49 64
        E 0 8d 2e 64
        E 1 97 4e 64
        E 0 9e 4c 64
        E 0 98 49 64
        E 0 9d 2e 64
        E 1535 87 4e 64
        E 0 8e 4c 64
        E 0 88 49 64
        E 0 8d 2e 64
        E 0 97 4e 64
        E 0 9e 4b 64
        E 0 98 47 64
        E 0 9d 2f 64
        E 3071 87 4e 64
        E 0 8e 4b 64
        E 0 88 47 64
        E 0 8d 2f 64
        E 0 97 4e 64
        E 0 9e 4b 64
        E 0 98 47 64
        E 0 9d 2f 64
        E 4608 87 4e 64
        E 0 8e 4b 64
        E 0 88 47 64
        E 0 8d 2f 64
        E 6144 9e 47 64
        E 571 8e 47 64
        E 0 9e 47 64
        E 569 8e 47 64
        E 0 9e 47 64
        E 572 8e 47 64
        E 0 9e 47 64
        E 570 8e 47 64
        E 0 9e 4c 64
        E 1142 8e 4c 64
        E 1 9e 4c 64
        E 283 8e 4c 64
        E 0 9e 4a 64
        E 286 8e 4a 64
        E 0 9e 4c 64
        E 284 8e 4c 64
        E 0 9e 4e 64
        E 286 8e 4e 64
        E 0 97 4c 64
        E 0 9e 4c 64
        E 284 8e 4c 64
        E 1 9e 4a 64
        E 286 87 4c 64
        E 0 8e 4a 64
        E 0 97 4c 64
        E 1 9e 4c 64
        E 283 8e 4c 64
        E 0 9e 4e 64
        E 286 87 4c 64
        E 1 8e 4e 64
        E 0 97 4c 64
        E 0 9e 4c 64
        E 282 8e 4c 64
        E 0 9e 4f 64
        E 286 87 4c 64
        E 0 8e 4f 64
        E 0 97 4c 64
        E 0 9e 4e 64
        E 285 8e 4e 64
        E 0 9e 4c 64
        E 286 87 4c 64
        E 0 8e 4c 64
        E 0 97 53 64
        E 0 9e 4b 64
        E 854 8e 4b 64
        E 0 9e 49 64
        E 286 87 53 64
        E 0 8e 49 64
        E 0 97 53 64
        E 0 9e 47 64
        E 284 87 53 64
        E 0 97 51 64
        E 287 87 51 64
        E 0 97 53 64
        E 285 87 53 64
        E 0 97 54 64
        E 286 87 54 64
        E 1 8e 47 64
        E 0 97 53 64
        E 0 98 3b 64
        E 281 87 53 64
        E 1 97 51 64
        E 286 87 51 64
        E 0 88 3b 64
        E 0 97 53 64
        E 0 98 3b 64
        E 285 87 53 64
        E 0 97 54 64
        E 284 87 54 64
        E 0 88 3b 64
        E 1 97 53 64
        E 0 98 3b 64
        E 284 87 53 64
        E 0 97 51 64
        E 286 87 51 64
        E 0 88 3b 64
        E 0 97 4f 64
        E 0 98 3b 64
        E 286 87 4f 64
        E 0 97 4e 64
        E 285 87 4e 64
        E 0 88 3b 64
        E 0 97 4f 64
        E 0 98 40 64
        E 856 87 4f 64
        E 0 97 4e 64
        E 285 87 4e 64
        E 0 88 40 64
        E 0 97 4c 64
        E 0 98 40 64
        E 285 88 40 64
        E 1 98 3e 64
        E 285 88 3e 64
        E 0 98 40 64
        E 285 88 40 64
        E 1 98 42 64
        E 282 87 4c 64
        E 0 88 42 64
        E 0 97 4f 64
        E 0 98 40 64
        E 0 9d 34 64
        E 287 88 40 64
        E 0 98 3e 64
        E 283 87 4f 64
        E 0 88 3e 64
        E 0 8d 34 64
        E 0 97 4f 64
        E 1 98 40 64
        E 0 9d 34 64
        E 287 88 40 64
        E 0 98 42 64
        E 283 87 4f 64
        E 0 88 42 64
        E 0 8d 34 64
        E 0 97 4f 64
        E 0 98 40 64
        E 0 9d 34 64
        E 286 88 40 64
        E 0 98 43 64
        E 286 87 4f 64
        E 0 88 43 64
        E 0 8d 34 64
        E 0 97 4f 64
        E 0 98 42 64
        E 0 9d 34 64
        E 284 88 42 64
        E 1 98 40 64
        E 283 87 4f 64
        E 0 88 40 64
        E 0 8d 34 64
        E 0 97 4e 64
        E 0 98 3f 64
        E 0 9d 3b 64
        E 858 87 4e 64
        E 0 88 3f 64
        E 0 97 4e 64
        E 0 98 3d 64
        E 282 87 4e 64
        E 0 88 3d 64
        E 0 8d 3b 64
        E 0 97 4e 64
        E 0 98 3b 64
        E 1 9d 3b 64
        E 286 8d 3b 64
        E 0 9d 39 64
        E 284 8d 39 64
        E 0 9d 3b 64
        E 285 8d 3b 64
        E 1 9d 3c 64
        E 286 87 4e 64
        E 0 88 3b 64
        E 0 8d 3c 64
        E 0 97 4e 64
        E 0 9e 47 64
        E 0 98 3f 64
        E 0 9d 3b 64
        E 284 8d 3b 64
        E 0 9d 39 64
        E 284 8e 47 64
        E 0 88 3f 64
        E 0 8d 39 64
        E 0 9e 47 64
        E 1 98 3f 64
        E 0 9d 3b 64
        E 286 8d 3b 64
        E 0 9d 3c 64
        E 285 87 4e 64
        E 0 8e 47 64
        E 0 88 3f 64
        E 0 8d 3c 64
        E 0 97 4e 64
        E 0 9e 47 64
        E 0 98 3f 64
        E 0 9d 3b 64
        E 285 8d 3b 64
        E 0 9d 39 64
        E 283 8e 47 64
        E 1 88 3f 64
        E 0 8d 39 64
        E 0 9e 47 64
        E 0 98 3f 64
        E 0 9d 37 64
        E 285 8d 37 64
        E 1 9d 36 64
        E 285 87 4e 64
        E 0 8e 47 64
        E 0 88 3f 64
        E 0 8d 36 64
        E 0 9e 4c 64
        E 0 98 3b 64
        E 0 9d 37 64
        E 855 88 3b 64
        E 0 8d 37 64
        E 0 98 3b 64
        E 0 9d 36 64
        E 285 8e 4c 64
        E 0 88 3b 64
        E 0 8d 36 64
        E 0 9e 4c 64
        E 0 98 3b 64
        E 0 9d 34 64
        E 286 8e 4c 64
        E 1 9e 4a 64
        E 285 8e 4a 64
        E 0 9e 4c 64
        E 284 8e 4c 64
        E 0 9e 4d 64
        E 288 8e 4d 64
        E 0 88 3b 64
        E 0 8d 34 64
        E 1 97 50 64
        E 0 9e 4c 64
        E 0 98 3b 64
        E 0 9d 34 64
        E 281 8e 4c 64
        E 0 9e 4a 64
        E 286 87 50 64
        E 0 8e 4a 64
        E 0 88 3b 64
        E 0 8d 34 64
        E 0 97 50 64
        E 0 9e 4c 64
        E 1 98 3b 64
        E 0 9d 34 64
        E 284 8e 4c 64
        E 0 9e 4d 64
        E 288 87 50 64
        E 0 8e 4d 64
        E 0 88 3b 64
        E 0 8d 34 64
        E 0 97 50 64
        E 0 9e 4c 64
        E 0 98 3b 64
        E 0 9d 34 64
        E 282 8e 4c 64
        E 0 9e 4a 64
        E 285 87 50 64
        E 0 8e 4a 64
        E 0 88 3b 64
        E 0 8d 34 64
        E 1 97 50 64
        E 0 9e 48 64
        E 0 98 40 64
        E 0 9d 34 64
        E 285 8e 48 64
        E 0 9e 47 64
        E 286 87 50 64
        E 0 8e 47 64
        E 0 88 40 64
        E 0 8d 34 64
        E 0 97 4c 64
        E 0 9e 48 64
        E 0 98 3c 64
        E 0 9d 39 64
        E 855 87 4c 64
        E 0 8e 48 64
        E 0 97 4c 64
        E 0 9e 47 64
        E 285 87 4c 64
        E 0 8e 47 64
        E 0 88 3c 64
        E 0 8d 39 64
        E 1 97 4c 64
        E 0 9e 45 64
        E 0 98 3c 64
        E 0 9d 39 64
        E 285 88 3c 64
        E 0 8d 39 64
        E 0 98 3b 64
        E 0 9d 37 64
        E 285 88 3b 64
        E 0 8d 37 64
        E 0 98 3c 64
        E 0 9d 39 64
        E 284 88 3c 64
        E 0 8d 39 64
        E 0 98 3e 64
        E 0 9d 3b 64
        E 285 87 4c 64
        E 1 8e 45 64
        E 0 88 3e 64
        E 0 8d 3b 64
        E 0 97 4c 64
        E 0 98 3c 64
        E 0 9d 39 64
        E 285 88 3c 64
        E 0 8d 39 64
        E 2 98 3b 64
        E 0 9d 37 64
        E 284 87 4c 64
        E 0 88 3b 64
        E 0 8d 37 64
        E 0 97 4c 64
        E 1 98 3c 64
        E 0 9d 39 64
        E 282 88 3c 64
        E 0 8d 39 64
        E 0 98 3e 64
        E 0 9d 3b 64
        E 286 87 4c 64
        E 0 88 3e 64
        E 0 8d 3b 64
        E 0 97 4c 64
        E 0 98 3c 64
        E 0 9d 39 64
        E 284 88 3c 64
        E 0 8d 39 64
        E 0 98 3b 64
        E 0 9d 37 64
        E 287 87 4c 64
        E 0 88 3b 64
        E 0 8d 37 64
        E 1 97 4c 64
        E 0 98 39 64
        E 0 9d 36 64
        E 282 88 39 64
        E 1 8d 36 64
        E 0 98 37 64
        E 0 9d 34 64
        E 287 87 4c 64
        E 0 88 37 64
        E 0 8d 34 64
        E 0 97 51 64
        E 0 98 39 64
        E 0 9d 36 64
        E 854 88 39 64
        E 0 8d 36 64
        E 0 98 37 64
        E 0 9d 34 64
        E 285 87 51 64
        E 0 88 37 64
        E 0 8d 34 64
        E 0 97 51 64
        E 0 98 36 64
        E 0 9d 32 64
        E 284 87 51 64
        E 0 97 4f 64
        E 287 87 4f 64
        E 0 97 51 64
        E 286 87 51 64
        E 0 97 53 64
        E 283 87 53 64
        E 0 88 36 64
        E 0 8d 32 64
        E 1 97 51 64
        E 0 9e 49 64
        E 0 98 40 64
        E 0 9d 2d 64
        E 287 87 51 64
        E 0 97 4f 64
        E 283 87 4f 64
        E 0 8e 49 64
        E 0 88 40 64
        E 0 8d 2d 64
        E 0 97 51 64
        E 0 9e 49 64
        E 0 98 40 64
        E 0 9d 2d 64
        E 286 87 51 64
        E 0 97 53 64
        E 285 87 53 64
        E 0 8e 49 64
        E 0 88 40 64
        E 0 8d 2d 64
        E 0 97 51 64
        E 0 9e 49 64
        E 0 98 3d 64
        E 0 9d 2d 64
        E 284 87 51 64
        E 0 97 4f 64
        E 286 87 4f 64
        E 0 8e 49 64
        E 0 88 3d 64
        E 0 8d 2d 64
        E 0 97 4e 64
        E 1 9e 49 64
        E 0 98 3d 64
        E 0 9d 2d 64
        E 286 87 4e 64
        E 0 97 4c 64
        E 284 87 4c 64
        E 0 8e 49 64
        E 0 88 3d 64
        E 0 8d 2d 64
        E 0 97 4e 64
        E 0 9e 4a 64
        E 0 98 45 64
        E 0 9d 36 64
        E 855 87 4e 64
        E 0 88 45 64
        E 0 97 4c 64
        E 0 98 45 64
        E 284 87 4c 64
        E 0 8e 4a 64
        E 0 88 45 64
        E 0 8d 36 64
        E 0 97 4a 64
        E 0 9e 4a 64
        E 0 98 45 64
        E 0 9d 36 64
        E 286 8e 4a 64
        E 0 8d 36 64
        E 0 9e 49 64
        E 1 9d 34 64
        E 283 8e 49 64
        E 0 8d 34 64
        E 0 9e 4a 64
        E 0 9d 36 64
        E 287 8e 4a 64
        E 0 8d 36 64
        E 0 9e 4c 64
        E 0 9d 37 64
        E 286 87 4a 64
        E 0 8e 4c 64
        E 0 88 45 64
        E 0 8d 37 64
        E 0 9e 4a 64
        E 0 98 46 64
        E 1 9d 36 64
        E 283 8e 4a 64
        E 0 8d 36 64
        E 0 9e 49 64
        E 0 9d 34 64
        E 284 8e 49 64
        E 0 8d 34 64
        E 1 9e 4a 64
        E 0 9d 36 64
        E 285 8e 4a 64
        E 0 8d 36 64
        E 0 9e 4c 64
        E 0 9d 37 64
        E 284 8e 4c 64
        E 0 88 46 64
        E 0 8d 37 64
        E 0 9e 4a 64
        E 0 98 46 64
        E 0 9d 36 64
        E 287 8e 4a 64
        E 0 8d 36 64
        E 0 9e 49 64
        E 0 9d 34 64
        E 284 8e 49 64
        E 0 88 46 64
        E 0 8d 34 64
        E 1 9e 47 64
        E 0 98 46 64
        E 0 9d 32 64
        E 285 8e 47 64
        E 0 8d 32 64
        E 0 9e 46 64
        E 1 9d 31 64
        E 284 8e 46 64
        E 0 88 46 64
        E 0 8d 31 64
        E 0 97 4e 64
        E 1 9e 47 64
        E 0 98 42 64
        E 0 9d 32 64
        E 568 87 4e 64
        E 0 97 4e 64
        E 285 8e 47 64
        E 0 8d 32 64
        E 0 9e 47 64
        E 0 9d 31 64
        E 284 87 4e 64
        E 0 8e 47 64
        E 0 88 42 64
        E 0 8d 31 64
        E 1 97 4e 64
        E 0 9e 47 64
        E 0 98 42 64
        E 0 9d 2f 64
        E 571 87 4e 64
        E 0 97 4e 64
        E 569 87 4e 64
        E 0 8e 47 64
        E 0 88 42 64
        E 0 8d 2f 64
        E 0 97 4f 64
        E 0 9e 47 64
        E 0 98 3e 64
        E 0 9d 2f 64
        E 571 8e 47 64
        E 0 88 3e 64
        E 0 8d 2f 64
        E 0 9e 47 64
        E 1 98 3e 64
        E 0 9d 2f 64
        E 571 8e 47 64
        E 0 88 3e 64
        E 0 8d 2f 64
        E 0 9e 47 64
        E 0 98 3e 64
        E 0 9d 2f 64
        E 570 8e 47 64
        E 1 88 3e 64
        E 0 8d 2f 64
        E 0 9e 47 64
        E 0 98 3e 64
        E 0 9d 2f 64
        E 569 87 4f 64
        E 0 8e 47 64
        E 0 88 3e 64
        E 0 8d 2f 64
        E 0 97 4f 64
        E 0 9e 45 64
        E 0 98 40 64
        E 0 9d 30 64
        E 1141 87 4f 64
        E 0 88 40 64
        E 0 8d 30 64
        E 0 97 4e 64
        E 0 98 42 64
        E 0 9d 32 64
        E 1142 87 4e 64
        E 0 8e 45 64
        E 0 88 42 64
        E 0 8d 32 64
        E 0 97 4e 64
        E 0 9e 43 64
        E 0 98 3e 64
        E 0 9d 2f 64
        E 1139 87 4e 64
        E 0 88 3e 64
        E 0 8d 2f 64
        E 0 97 4c 64
        E 0 98 40 64
        E 0 9d 30 64
        E 1140 87 4c 64
        E 0 8e 43 64
        E 0 88 40 64
        E 0 8d 30 64
        E 0 97 4c 64
        E 0 9e 42 64
        E 0 98 3c 64
        E 0 9d 2d 64
        E 1140 87 4c 64
        E 0 88 3c 64
        E 0 8d 2d 64
        E 0 97 4b 64
        E 0 98 3b 64
        E 0 9d 2f 64
        E 1141 87 4b 64
        E 0 8e 42 64
        E 0 88 3b 64
        E 0 8d 2f 64
        E 0 98 4c 64
        E 570 88 4c 64
        E 0 98 4c 64
        E 571 88 4c 64
        E 0 98 4c 64
        E 0 9d 34 64
        E 570 88 4c 64
        E 0 8d 34 64
        E 0 98 4c 64
        E 0 9d 34 64
        E 572 88 4c 64
        E 0 8d 34 64
        E 0 97 53 64
        E 0 98 4b 64
        E 0 9d 2f 64
        E 568 87 53 64
        E 0 88 4b 64
        E 0 97 53 64
        E 0 98 47 64
        E 287 88 47 64
        E 0 98 49 64
        E 283 87 53 64
        E 0 88 49 64
        E 0 8d 2f 64
        E 1 97 53 64
        E 0 98 4a 64
        E 0 9d 2f 64
        E 571 87 53 64
        E 0 97 53 64
        E 570 87 53 64
        E 0 88 4a 64
        E 0 8d 2f 64
        E 0 97 52 64
        E 0 98 49 64
        E 0 9d 36 64
        E 569 87 52 64
        E 0 88 49 64
        E 1 97 4e 64
        E 0 98 45 64
        E 285 87 4e 64
        E 0 88 45 64
        E 0 97 50 64
        E 0 98 47 64
        E 284 87 50 64
        E 0 88 47 64
        E 0 8d 36 64
        E 0 97 51 64
        E 0 98 48 64
        E 0 9d 33 64
        E 1140 87 51 64
        E 0 88 48 64
        E 0 8d 33 64
        E 0 97 50 64
        E 0 9e 4c 64
        E 0 98 47 64
        E 0 9d 34 64
        E 571 87 50 64
        E 1 8e 4c 64
        E 0 97 4c 64
        E 0 9e 4c 64
        E 286 87 4c 64
        E 0 97 4e 64
        E 285 87 4e 64
        E 0 8e 4c 64
        E 0 88 47 64
        E 0 8d 34 64
        E 0 97 4f 64
        E 0 9e 4c 64
        E 0 98 49 64
        E 0 9d 2e 64
        E 568 8e 4c 64
        E 1 9e 4c 64
        E 570 87 4f 64
        E 0 8e 4c 64
        E 0 88 49 64
        E 0 8d 2e 64
        E 0 97 4e 64
        E 0 9e 4b 64
        E 1 98 42 64
        E 0 9d 2f 64
        E 570 87 4e 64
        E 0 8e 4b 64
        E 0 97 4a 64
        E 0 9e 47 64
        E 285 87 4a 64
        E 0 8e 47 64
        E 1 97 4c 64
        E 0 9e 49 64
        E 284 87 4c 64
        E 0 8e 49 64
        E 0 88 42 64
        E 0 8d 2f 64
        E 0 97 4d 64
        E 0 9e 4a 64
        E 0 98 47 64
        E 0 9d 2c 64
        E 1142 87 4d 64
        E 0 8e 4a 64
        E 0 88 47 64
        E 0 8d 2c 64
        E 0 97 4c 64
        E 0 9e 49 64
        E 0 98 40 64
        E 0 9d 2d 64
        E 571 8e 49 64
        E 0 9e 45 64
        E 284 8e 45 64
        E 0 9e 47 64
        E 285 8e 47 64
        E 0 88 40 64
        E 0 8d 2d 64
        E 1 9e 48 64
        E 0 98 39 64
        E 0 9d 39 64
        E 569 8e 48 64
        E 0 88 39 64
        E 0 8d 39 64
        E 0 9e 47 64
        E 1 98 3b 64
        E 0 9d 37 64
        E 571 87 4c 64
        E 0 8e 47 64
        E 0 88 3b 64
        E 0 8d 37 64
        E 0 97 4c 64
        E 0 9e 45 64
        E 0 98 3c 64
        E 0 9d 36 64
        E 568 87 4c 64
        E 0 8e 45 64
        E 1 97 4b 64
        E 0 9e 47 64
        E 571 87 4b 64
        E 0 8e 47 64
        E 0 88 3c 64
        E 0 97 4c 64
        E 0 9e 49 64
        E 0 98 45 64
        E 570 87 4c 64
        E 0 8e 49 64
        E 0 97 4e 64
        E 0 9e 4b 64
        E 571 87 4e 64
        E 0 8e 4b 64
        E 0 88 45 64
        E 0 8d 36 64
        E 0 97 4f 64
        E 0 9e 4c 64
        E 0 98 47 64
        E 0 9d 34 64
        E 570 8d 34 64
        E 0 9d 36 64
        E 568 8d 36 64
        E 0 9d 37 64
        E 572 8d 37 64
        E 0 9d 39 64
        E 571 87 4f 64
        E 0 8e 4c 64
        E 0 88 47 64
        E 0 8d 39 64
        E 0 97 4e 64
        E 0 9e 4b 64
        E 0 98 47 64
        E 0 9d 2f 64
        E 1138 87 4e 64
        E 0 8e 4b 64
        E 0 97 4f 64
        E 0 9e 4c 64
        E 1141 87 4f 64
        E 0 8e 4c 64
        E 0 97 4e 64
        E 0 9e 4b 64
        E 1142 87 4e 64
        E 0 8e 4b 64
        E 2 97 4f 64
        E 0 9e 4c 64
        E 1137 87 4f 64
        E 0 8e 4c 64
        E 0 88 47 64
        E 0 8d 2f 64
        E 0 97 4e 64
        E 0 9e 4b 64
        E 0 98 47 64
        E 0 9d 2f 64
        E 1141 87 4e 64
        E 0 97 53 64
        E 1141 87 53 64
        E 0 8e 4b 64
        E 0 97 4f 64
        E 0 9e 4c 64
        E 1139 87 4f 64
        E 0 8e 4c 64
        E 0 97 4e 64
        E 0 9e 4c 64
        E 570 87 4e 64
        E 0 97 4c 64
        E 571 87 4c 64
        E 0 8e 4c 64
        E 0 88 47 64
        E 0 8d 2f 64
        E 0 97 4e 64
        E 0 9e 4c 64
        E 0 98 47 64
        E 0 9d 2f 64
        E 2282 8e 4c 64
        E 0 9e 4b 64
        E 2283 87 4e 64
        E 0 8e 4b 64
        E 0 88 47 64
        E 0 8d 2f 64
        E 0 97 50 64
        E 0 9e 4c 64
        E 1 98 47 64
        E 0 9d 28 64
        E 6842 87 50 64
        E 0 8e 4c 64
        E 0 88 47 64
        E 0 8d 28 64
        E 2280 95 48 64
        E 0 9d 30 64
        E 1153 8d 30 64
        E 0 9d 3c 64
        E 575 85 48 64
        E 1 95 4a 64
        E 575 85 4a 64
        E 0 8d 3c 64
        E 0 95 48 64
        E 0 9d 30 64
        E 1152 85 48 64
        E 0 8d 30 64
        E 0 95 4f 64
        E 0 9d 30 64
        E 1153 8d 30 64
        E 0 9d 3c 64
        E 1151 85 4f 64
        E 0 8d 3c 64
        E 0 95 48 64
        E 0 9d 30 64
        E 1153 85 48 64
        E 0 8d 30 64
        E 0 95 47 64
        E 0 9d 2b 64
        E 1152 8d 2b 64
        E 0 9d 37 64
        E 1152 8d 37 64
        E 0 9d 35 64
        E 1151 85 47 64
        E 0 8d 35 64
        E 0 95 48 64
        E 0 9d 34 64
        E 1153 8d 34 64
        E 0 9d 3c 64
        E 1150 8d 3c 64
        E 1 9d 34 64
        E 1152 85 48 64
        E 0 8d 34 64
        E 0 95 4a 64
        E 0 9d 32 64
        E 1151 8d 32 64
        E 0 9d 2f 64
        E 577 85 4a 64
        E 0 95 4c 64
        E 576 85 4c 64
        E 0 8d 2f 64
        E 0 95 4d 64
        E 0 9d 2d 64
        E 1151 85 4d 64
        E 0 8d 2d 64
        E 0 95 47 64
        E 0 9d 2b 64
        E 1153 8d 2b 64
        E 0 9d 37 64
        E 577 85 47 64
        E 1 95 48 64
        E 574 85 48 64
        E 0 8d 37 64
        E 1 95 4a 64
        E 0 9d 2b 64
        E 1153 85 4a 64
        E 0 8d 2b 64
        E 0 95 4c 64
        E 0 9d 30 64
        E 1150 8d 30 64
        E 1 9d 3c 64
        E 1152 85 4c 64
        E 0 8d 3c 64
        E 0 95 4a 64
        E 0 9d 30 64
        E 1151 85 4a 64
        E 0 8d 30 64
        E 0 95 48 64
        E 0 9d 30 64
        E 1152 8d 30 64
        E 0 9d 3c 64
        E 1153 8d 3c 64
        E 0 9d 30 64
        E 1151 85 48 64
        E 0 8d 30 64
        E 0 95 4c 64
        E 0 9d 2b 64
        E 1152 8d 2b 64
        E 0 9d 37 64
        E 577 85 4c 64
        E 1 95 4d 64
        E 575 85 4d 64
        E 0 8d 37 64
        E 1 95 4c 64
        E 0 9d 2b 64
        E 1150 85 4c 64
        E 0 8d 2b 64
        E 0 95 4f 64
        E 0 9d 2b 64
        E 1152 8d 2b 64
        E 0 9d 37 64
        E 1153 85 4f 64
        E 0 8d 37 64
        E 0 95 4c 64
        E 1 9d 2b 64
        E 1151 85 4c 64
        E 1 8d 2b 64
        E 0 95 49 64
        E 0 9d 2b 64
        E 1150 8d 2b 64
        E 0 9d 37 64
        E 1152 8d 37 64
        E 0 9d 2b 64
        E 1152 85 49 64
        E 0 8d 2b 64
        E 0 95 49 64
        E 0 9d 2b 64
        E 1151 8d 2b 64
        E 1 9d 37 64
        E 575 85 49 64
        E 0 95 47 64
        E 577 85 47 64
        E 0 8d 37 64
        E 0 95 45 64
        E 0 9d 2b 64
        E 1152 85 45 64
        E 0 8d 2b 64
        E 0 95 4d 64
        E 0 9d 2c 64
        E 1152 8d 2c 64
        E 0 9d 38 64
        E 576 85 4d 64
        E 1 95 4c 64
        E 575 85 4c 64
        E 0 8d 38 64
        E 0 95 4a 64
        E 1 9d 2c 64
        E 1151 85 4a 64
        E 0 8d 2c 64
        E 0 95 4a 64
        E 0 9d 2d 64
        E 1152 8d 2d 64
        E 0 9d 39 64
        E 576 85 4a 64
        E 1 95 4c 64
        E 574 85 4c 64
        E 0 8d 39 64
        E 0 95 49 64
        E 0 9d 2d 64
        E 1154 85 49 64
        E 0 8d 2d 64
        E 0 95 4a 64
        E 0 9d 32 64
        E 1151 8d 32 64
        E 0 9d 3e 64
        E 1152 8d 3e 64
        E 0 9d 32 64
        E 1154 85 4a 64
        E 0 8d 32 64
        E 0 9d 30 64
        E 1150 8d 30 64
        E 0 9d 3c 64
        E 1152 8d 3c 64
        E 0 9d 30 64
        E 1153 8d 30 64
        E 0 95 4a 64
        E 0 9d 2f 64
        E 1151 8d 2f 64
        E 0 9d 3b 64
        E 576 85 4a 64
        E 0 95 4c 64
        E 577 85 4c 64
        E 1 8d 3b 64
        E 0 95 4a 64
        E 0 9d 2f 64
        E 1150 85 4a 64
        E 0 8d 2f 64
        E 0 95 4f 64
        E 0 9d 2f 64
        E 1152 8d 2f 64
        E 0 9d 3b 64
        E 1152 85 4f 64
        E 0 8d 3b 64
        E 0 95 4d 64
        E 0 9d 2f 64
        E 1153 85 4d 64
        E 0 8d 2f 64
        E 0 95 4d 64
        E 0 9d 30 64
        E 1152 8d 30 64
        E 1 9d 3c 64
        E 1149 85 4d 64
        E 0 8d 3c 64
        E 1 95 4c 64
        E 0 9d 30 64
        E 1152 85 4c 64
        E 0 8d 30 64
        E 0 95 4c 64
        E 0 9d 30 64
        E 1151 8d 30 64
        E 0 9d 3c 64
        E 578 85 4c 64
        E 0 95 4d 64
        E 576 85 4d 64
        E 0 8d 3c 64
        E 0 95 4f 64
        E 0 9d 30 64
        E 1151 85 4f 64
        E 0 8d 30 64
        E 0 95 4a 64
        E 0 9d 2f 64
        E 1152 8d 2f 64
        E 1 9d 3b 64
        E 575 85 4a 64
        E 0 95 4c 64
        E 576 85 4c 64
        E 0 8d 3b 64
        E 0 95 4a 64
        E 0 9d 2f 64
        E 1153 85 4a 64
        E 0 8d 2f 64
        E 0 95 4f 64
        E 0 9d 2f 64
        E 1151 8d 2f 64
        E 0 9d 3b 64
        E 1153 85 4f 64
        E 0 8d 3b 64
        E 0 95 4a 64
        E 0 9d 2f 64
        E 1151 85 4a 64
        E 0 8d 2f 64
        E 0 95 48 64
        E 0 9d 2d 64
        E 1153 8d 2d 64
        E 0 9d 39 64
        E 574 85 48 64
        E 0 95 4a 64
        E 577 85 4a 64
        E 1 8d 39 64
        E 0 95 48 64
        E 0 9d 2d 64
        E 1151 85 48 64
        E 0 8d 2d 64
        E 0 95 4d 64
        E 0 9d 2d 64
        E 1152 8d 2d 64
        E 1 9d 39 64
        E 1151 85 4d 64
        E 0 8d 39 64
        E 1 95 48 64
        E 0 9d 2d 64
        E 1153 85 48 64
        E 0 8d 2d 64
        E 0 95 47 64
        E 0 9d 2b 64
        E 1150 85 47 64
        E 0 8d 2b 64
        E 0 95 43 64
        E 0 9d 37 64
        E 1153 85 43 64
        E 0 8d 37 64
        E 0 95 47 64
        E 0 9d 2b 64
        E 1152 85 47 64
        E 0 8d 2b 64
        E 0 95 4a 64
        E 0 9d 2b 64
        E 1152 85 4a 64
        E 1 8d 2b 64
        E 0 95 4d 64
        E 0 9d 37 64
        E 1151 85 4d 64
        E 0 8d 37 64
        E 0 95 4f 64
        E 0 9d 2b 64
        E 1152 85 4f 64
        E 0 8d 2b 64
        E 0 95 4c 64
        E 0 9d 30 64
        E 1150 85 4c 64
        E 0 8d 30 64
        E 0 95 4f 64
        E 0 9d 3c 64
        E 1152 85 4f 64
        E 0 8d 3c 64
        E 0 95 4d 64
        E 1 9d 30 64
        E 1152 85 4d 64
        E 0 8d 30 64
        E 1 95 4c 64
        E 0 9d 30 64
        E 1151 85 4c 64
        E 0 8d 30 64
        E 0 95 4a 64
        E 0 9d 3c 64
        E 1154 85 4a 64
        E 0 8d 3c 64
        E 0 95 48 64
        E 0 9d 30 64
        E 1150 85 48 64
        E 0 8d 30 64
        E 0 95 47 64
        E 0 9d 2b 64
        E 1151 85 47 64
        E 0 8d 2b 64
        E 0 95 43 64
        E 1 9d 37 64
        E 1152 85 43 64
        E 1 8d 37 64
        E 0 95 47 64
        E 0 9d 2b 64
        E 1152 85 47 64
        E 0 8d 2b 64
        E 0 95 4a 64
        E 0 9d 2b 64
        E 1151 85 4a 64
        E 0 8d 2b 64
        E 0 95 4d 64
        E 0 9d 37 64
        E 1153 85 4d 64
        E 0 8d 37 64
        E 0 95 4f 64
        E 1 9d 2b 64
        E 1150 85 4f 64
        E 0 8d 2b 64
        E 0 95 4c 64
        E 0 9d 30 64
        E 1152 8d 30 64
        E 0 9d 3c 64
        E 576 85 4c 64
        E 0 95 4a 64
        E 576 85 4a 64
        E 0 8d 3c 64
        E 0 95 48 64
        E 1 9d 30 64
        E 1151 85 48 64
        E 1 8d 30 64
        E 0 95 48 64
        E 0 9d 2b 64
        E 1152 8d 2b 64
        E 1 9d 37 64
        E 574 85 48 64
        E 0 95 4a 64
        E 575 85 4a 64
        E 0 8d 37 64
        E 1 95 47 64
        E 0 9d 2b 64
        E 1153 85 47 64
        E 0 8d 2b 64
        E 0 95 48 64
        E 0 9d 30 64
        E 1151 8d 30 64
        E 1 9d 3c 64
        E 575 85 48 64
        E 0 95 4a 64
        E 577 85 4a 64
        E 0 8d 3c 64
        E 0 95 47 64
        E 0 9d 30 64
        E 1152 85 47 64
        E 0 8d 30 64
        E 0 95 48 64
        E 0 9d 30 64
        E 1153 8d 30 64
        E 0 9d 3c 64
        E 1151 8d 3c 64
        E 0 9d 30 64
        E 1152 85 48 64
        E 0 8d 30 64
        E 0 9a 43 64
        E 0 9d 30 64
        E 1152 8d 30 64
        E 0 9d 3c 64
        E 576 8a 43 64
        E 0 9a 45 64
        E 576 8a 45 64
        E 0 8d 3c 64
        E 1 9a 43 64
        E 0 9d 30 64
        E 1152 8a 43 64
        E 0 8d 30 64
        E 0 9a 4c 64
        E 0 9d 30 64
        E 1152 8d 30 64
        E 0 9d 3c 64
        E 1151 8a 4c 64
        E 0 8d 3c 64
        E 0 9a 48 64
        E 0 9d 30 64
        E 1151 8a 48 64
        E 0 8d 30 64
        E 0 9a 47 64
        E 0 9d 2b 64
        E 1153 8d 2b 64
        E 0 9d 37 64
        E 1152 8d 37 64
        E 0 9d 35 64
        E 1152 8a 47 64
        E 0 8d 35 64
        E 0 9a 48 64
        E 0 9d 34 64
        E 1151 8d 34 64
        E 0 9d 3c 64
        E 1152 8d 3c 64
        E 0 9d 34 64
        E 1153 8a 48 64
        E 0 8d 34 64
        E 0 9a 4a 64
        E 0 9d 32 64
        E 1155 8d 32 64
        E 1 9d 2f 64
        E 1148 8a 4a 64
        E 0 8d 2f 64
        E 1 9a 4c 64
        E 0 9d 2d 64
        E 1151 8a 4c 64
        E 0 8d 2d 64
        E 5 9a 4d 64
        E 1 9d 2b 64
        E 1146 8d 2b 64
        E 1 9d 37 64
        E 573 8a 4d 64
        E 0 9a 4c 64
        E 577 8a 4c 64
        E 0 8d 37 64
        E 0 9a 4a 64
        E 0 9d 2f 64
        E 1154 8a 4a 64
        E 0 8d 2f 64
        E 0 9a 4c 64
        E 0 9d 30 64
        E 1151 8d 30 64
        E 1 9d 3c 64
        E 1151 8d 3c 64
        E 0 9d 30 64
        E 1152 8d 30 64
        E 0 9d 30 64
        E 1152 8d 30 64
        E 0 9d 3c 64
        E 1151 8d 3c 64
        E 0 9d 30 64
        E 1152 8a 4c 64
        E 0 8d 30 64
        E 0 9a 48 64
        E 0 9d 30 64
        E 1153 8d 30 64
        E 0 9d 3c 64
        E 1151 8d 3c 64
        E 0 9d 30 64
        E 1151 8a 48 64
        E 0 8d 30 64
        E 0 9a 48 64
        E 0 9d 30 64
        E 1153 8d 30 64
        E 0 9d 3c 64
        E 1152 8a 48 64
        E 0 8d 3c 64
        E 0 9a 4c 64
        E 0 9d 30 64
        E 1159 8a 4c 64
        E 0 8d 30 64
        E 0 9a 4a 64
        E 0 9d 2f 64
        E 1145 8d 2f 64
        E 0 9d 3b 64
        E 1151 8a 4a 64
        E 0 8d 3b 64
        E 0 9a 47 64
        E 0 9d 2f 64
        E 1154 8a 47 64
        E 0 8d 2f 64
        E 0 9a 43 64
        E 0 9d 2f 64
        E 1150 8d 2f 64
        E 1 9d 3b 64
        E 1152 8d 3b 64
        E 0 9d 2f 64
        E 1153 8a 43 64
        E 0 8d 2f 64
        E 0 9a 48 64
        E 3 9d 2d 64
        E 1148 8d 2d 64
        E 0 9d 39 64
        E 1151 8d 39 64
        E 0 9d 2d 64
        E 1154 8a 48 64
        E 0 8d 2d 64
        E 0 9a 48 64
        E 0 9d 2d 64
        E 1152 8d 2d 64
        E 0 9d 39 64
        E 575 8a 48 64
        E 0 9a 47 64
        E 576 8a 47 64
        E 0 8d 39 64
        E 0 9a 45 64
        E 0 9d 2d 64
        E 1152 8a 45 64
        E 0 8d 2d 64
        E 0 9a 47 64
        E 0 9d 2b 64
        E 1152 8a 47 64
        E 0 8d 2b 64
        E 0 9a 4a 64
        E 0 9d 37 64
        E 1152 8a 4a 64
        E 0 8d 37 64
        E 0 9a 48 64
        E 0 9d 2b 64
        E 1152 8a 48 64
        E 0 8d 2b 64
        E 0 9a 47 64
        E 0 9d 2b 64
        E 1153 8a 47 64
        E 0 8d 2b 64
        E 1 9a 45 64
        E 0 9d 37 64
        E 1150 8a 45 64
        E 0 8d 37 64
        E 0 9a 43 64
        E 0 9d 2b 64
        E 1155 8a 43 64
        E 0 8d 2b 64
        E 0 9a 48 64
        E 0 9d 2d 64
        E 1148 8a 48 64
        E 0 8d 2d 64
        E 1 9a 4c 64
        E 0 9d 39 64
        E 1152 8a 4c 64
        E 0 8d 39 64
        E 1 9a 4a 64
        E 0 9d 2d 64
        E 1151 8a 4a 64
        E 0 8d 2d 64
        E 0 9a 48 64
        E 0 9d 2d 64
        E 1152 8a 48 64
        E 1 8d 2d 64
        E 0 9a 47 64
        E 0 9d 39 64
        E 1151 8a 47 64
        E 0 8d 39 64
        E 0 9a 45 64
        E 0 9d 2d 64
        E 1153 8a 45 64
        E 0 8d 2d 64
        E 0 9a 4a 64
        E 0 9d 2a 64
        E 1152 8d 2a 64
        E 0 9d 36 64
        E 1150 8d 36 64
        E 0 9d 2a 64
        E 1152 8a 4a 64
        E 0 8d 2a 64
        E 1 9a 4a 64
        E 0 9d 2a 64
        E 1152 8d 2a 64
        E 0 9d 36 64
        E 1152 8a 4a 64
        E 0 8d 36 64
        E 0 9a 48 64
        E 0 9d 2a 64
        E 1153 8a 48 64
        E 0 8d 2a 64
        E 0 9a 47 64
        E 0 9d 2b 64
        E 1151 8a 47 64
        E 0 8d 2b 64
        E 0 9a 45 64
        E 0 9d 37 64
        E 1151 8a 45 64
        E 0 8d 37 64
        E 0 9a 43 64
        E 1 9d 2b 64
        E 1152 8a 43 64
        E 0 8d 2b 64
        E 0 9a 45 64
        E 0 9d 32 64
        E 1152 8d 32 64
        E 0 9d 3e 64
        E 1152 8a 45 64
        E 0 8d 3e 64
        E 0 9a 43 64
        E 0 9d 32 64
        E 1152 8a 43 64
        E 0 8d 32 64
        E 0 95 4a 64
        E 0 9a 43 64
        E 0 9d 2b 64
        E 1153 8d 2b 64
        E 1 9d 37 64
        E 574 85 4a 64
        E 0 95 4c 64
        E 575 85 4c 64
        E 0 8d 37 64
        E 1 95 4a 64
        E 1 9d 2b 64
        E 1151 85 4a 64
        E 17 8d 2b 64
        E 0 95 4c 64
        E 1 9d 2b 64
        E 1136 8d 2b 64
        E 0 9d 37 64
        E 1151 85 4c 64
        E 0 8d 37 64
        E 0 95 4c 64
        E 0 9d 2b 64
        E 1150 85 4c 64
        E 1 8a 43 64
        E 0 8d 2b 64
        E 0 95 4c 64
        E 0 9d 2b 64
        E 1152 8d 2b 64
        E 0 9d 37 64
        E 1152 85 4c 64
        E 1 8d 37 64
        E 0 95 4a 64
        E 0 9d 2b 64
        E 1152 85 4a 64
        E 0 8d 2b 64
        E 0 95 4a 64
        E 0 9d 2b 64
        E 1151 8d 2b 64
        E 0 9d 37 64
        E 1152 8d 37 64
        E 0 9d 2b 64
        E 1151 85 4a 64
        E 1 8d 2b 64
        E 0 95 48 64
        E 0 9d 2d 64
        E 1153 8d 2d 64
        E 0 9d 39 64
        E 575 85 48 64
        E 0 95 4a 64
        E 577 85 4a 64
        E 0 8d 39 64
        E 0 95 48 64
        E 0 9d 2d 64
        E 1153 85 48 64
        E 0 8d 2d 64
        E 0 95 51 64
        E 0 9d 2a 64
        E 1149 8d 2a 64
        E 1 9d 36 64
        E 1152 85 51 64
        E 0 8d 36 64
        E 0 95 48 64
        E 0 9d 2a 64
        E 1154 85 48 64
        E 0 8d 2a 64
        E 5 95 48 64
        E 2 9d 2b 64
        E 1142 8d 2b 64
        E 0 9d 37 64
        E 1153 85 48 64
        E 0 8d 37 64
        E 0 95 47 64
        E 0 9d 2b 64
        E 1152 85 47 64
        E 0 8d 2b 64
        E 0 95 47 64
        E 0 9a 4a 64
        E 0 9d 2b 64
        E 1152 8d 2b 64
        E 0 9d 37 64
        E 1151 8d 37 64
        E 0 9d 2b 64
        E 1154 85 47 64
        E 0 8a 4a 64
        E 1 8d 2b 64
        E 0 95 47 64
        E 0 9a 4a 64
        E 0 9d 2c 64
        E 1151 8d 2c 64
        E 0 9d 38 64
        E 575 85 47 64
        E 0 8a 4a 64
        E 0 95 48 64
        E 0 9a 4c 64
        E 578 85 48 64
        E 0 8a 4c 64
        E 0 8d 38 64
        E 0 95 4a 64
        E 1 9a 4d 64
        E 0 9d 2c 64
        E 1148 85 4a 64
        E 0 8a 4d 64
        E 0 8d 2c 64
        E 0 95 48 64
        E 0 9a 4c 64
        E 0 9d 2c 64
        E 1154 8d 2c 64
        E 0 9d 38 64
        E 1151 85 48 64
        E 0 8a 4c 64
        E 0 8d 38 64
        E 0 95 47 64
        E 0 9a 4a 64
        E 0 9d 2c 64
        E 1154 85 47 64
        E 0 8a 4a 64
        E 0 8d 2c 64
        E 0 95 45 64
        E 0 9a 48 64
        E 0 9d 2d 64
        E 1151 8d 2d 64
        E 0 9d 39 64
        E 1150 85 45 64
        E 0 8a 48 64
        E 0 8d 39 64
        E 1 95 44 64
        E 0 9a 47 64
        E 0 9d 34 64
        E 1153 85 44 64
        E 0 8a 47 64
        E 0 8d 34 64
        E 0 95 45 64
        E 0 9a 48 64
        E 0 9d 2d 64
        E 1151 8d 2d 64
        E 0 9d 39 64
        E 1152 85 45 64
        E 0 8a 48 64
        E 0 8d 39 64
        E 0 95 47 64
        E 0 9a 4a 64
        E 0 9d 34 64
        E 1151 85 47 64
        E 0 8a 4a 64
        E 0 8d 34 64
        E 1 95 48 64
        E 0 9a 4c 64
        E 0 9d 2d 64
        E 1152 85 48 64
        E 0 8a 4c 64
        E 0 8d 2d 64
        E 0 95 47 64
        E 0 9a 4a 64
        E 0 9d 39 64
        E 1153 85 47 64
        E 0 8a 4a 64
        E 0 8d 39 64
        E 0 95 45 64
        E 0 9a 48 64
        E 0 9d 2d 64
        E 1152 85 45 64
        E 0 8a 48 64
        E 0 8d 2d 64
        E 0 95 4d 64
        E 0 9a 47 64
        E 0 9d 32 64
        E 1151 8a 47 64
        E 0 8d 32 64
        E 0 9a 48 64
        E 0 9d 3e 64
        E 1152 8a 48 64
        E 0 8d 3e 64
        E 0 9a 45 64
        E 0 9d 32 64
        E 1152 85 4d 64
        E 0 8a 45 64
        E 0 8d 32 64
        E 0 95 47 64
        E 1 9a 45 64
        E 0 9d 34 64
        E 1150 8d 34 64
        E 0 9d 40 64
        E 578 85 47 64
        E 1 95 48 64
        E 574 85 48 64
        E 0 8a 45 64
        E 0 8d 40 64
        E 0 95 47 64
        E 1 9a 44 64
        E 0 9d 34 64
        E 1152 85 47 64
        E 0 8a 44 64
        E 0 8d 34 64
        E 1 95 47 64
        E 1 9d 32 64
        E 1149 8d 32 64
        E 0 9d 3e 64
        E 575 85 47 64
        E 1 95 48 64
        E 576 85 48 64
        E 0 8d 3e 64
        E 1 95 47 64
        E 0 9d 32 64
        E 1151 85 47 64
        E 0 8d 32 64
        E 0 95 4c 64
        E 0 9a 45 64
        E 0 9d 31 64
        E 1152 8d 31 64
        E 0 9d 3d 64
        E 1151 85 4c 64
        E 0 8d 3d 64
        E 0 95 45 64
        E 0 9d 31 64
        E 1153 85 45 64
        E 0 8a 45 64
        E 0 8d 31 64
        E 0 9a 45 64
        E 0 9d 31 64
        E 1152 8d 31 64
        E 0 9d 3d 64
        E 1153 8a 45 64
        E 0 8d 3d 64
        E 0 9a 4c 64
        E 0 9d 31 64
        E 1151 8a 4c 64
        E 0 8d 31 64
        E 0 9a 41 64
        E 0 9d 32 64
        E 1151 8d 32 64
        E 0 9d 3e 64
        E 1153 8d 3e 64
        E 1 9d 32 64
        E 1150 8a 41 64
        E 0 8d 32 64
        E 0 9a 41 64
        E 0 9d 32 64
        E 1154 8a 41 64
        E 0 8d 32 64
        E 0 9a 46 66
        E 0 9d 3e 64
        E 1152 8a 46 66
        E 0 8d 3e 64
        E 0 9a 45 64
        E 1 9d 32 64
        E 1151 8a 45 64
        E 0 8d 32 64
        E 0 9a 43 64
        E 0 9d 34 64
        E 1151 8d 34 64
        E 0 9d 3c 64
        E 1152 8d 3c 64
        E 0 9d 34 64
        E 1153 8a 43 64
        E 0 8d 34 64
        E 0 9a 43 64
        E 0 9d 34 64
        E 1151 8a 43 64
        E 1 8d 34 64
        E 0 9a 48 64
        E 0 9d 3c 64
        E 1152 8a 48 64
        E 0 8d 3c 64
        E 0 9a 46 66
        E 0 9d 34 64
        E 1152 8a 46 66
        E 0 8d 34 64
        E 0 9a 45 64
        E 0 9d 35 64
        E 1151 8d 35 64
        E 0 9d 3c 64
        E 1152 8d 3c 64
        E 0 9d 35 64
        E 1153 8a 45 64
        E 0 8d 35 64
        E 1 9a 45 64
        E 0 9d 36 64
        E 1152 8a 45 64
        E 0 8d 36 64
        E 0 9a 4a 64
        E 0 9d 3e 64
        E 1151 8a 4a 64
        E 0 8d 3e 64
        E 0 9a 48 64
        E 0 9d 36 64
        E 1153 8a 48 64
        E 0 8d 36 64
        E 0 9a 47 64
        E 0 9d 37 64
        E 1151 8d 37 64
        E 0 9d 3e 64
        E 1150 8d 3e 64
        E 1 9d 37 64
        E 1152 8a 47 64
        E 0 8d 37 64
        E 0 9a 47 64
        E 0 9d 38 64
        E 1152 8a 47 64
        E 0 8d 38 64
        E 0 9a 4c 64
        E 0 9d 40 64
        E 1152 8a 4c 64
        E 0 8d 40 64
        E 0 9a 4a 64
        E 0 9d 38 64
        E 1153 8a 4a 64
        E 0 8d 38 64
        E 0 9a 49 64
        E 0 9d 2d 64
        E 1152 8a 49 64
        E 0 8d 2d 64
        E 0 9a 47 64
        E 0 9d 39 64
        E 1151 8a 47 64
        E 0 8d 39 64
        E 0 9a 45 64
        E 0 9d 2d 64
        E 1153 8a 45 64
        E 1 8d 2d 64
        E 1 9d 2d 64
        E 1149 8d 2d 64
        E 0 9d 39 64
        E 1154 8d 39 64
        E 0 9a 4c 64
        E 0 9d 2d 64
        E 1152 8a 4c 64
        E 0 8d 2d 64
        E 0 9a 4d 64
        E 0 9d 2c 64
        E 1150 8d 2c 64
        E 0 9d 38 64
        E 577 8a 4d 64
        E 0 9a 4c 64
        E 577 8a 4c 64
        E 0 8d 38 64
        E 0 9a 4a 64
        E 0 9d 2c 64
        E 1149 8a 4a 64
        E 0 8d 2c 64
        E 0 9a 4a 64
        E 0 9d 2d 64
        E 1152 8a 4a 64
        E 0 8d 2d 64
        E 1 9a 4c 64
        E 0 9d 39 64
        E 1152 8a 4c 64
        E 0 8d 39 64
        E 0 9a 49 64
        E 0 9d 2d 64
        E 1152 8a 49 64
        E 0 8d 2d 64
        E 0 95 4a 64
        E 0 9a 4a 64
        E 0 9d 32 64
        E 1153 8d 32 64
        E 0 9d 3e 64
        E 574 85 4a 64
        E 1 95 4c 64
        E 577 85 4c 64
        E 0 8d 3e 64
        E 0 95 4a 64
        E 1 9d 32 64
        E 1150 85 4a 64
        E 0 8d 32 64
        E 0 95 4d 64
        E 0 9d 32 64
        E 1152 8d 32 64
        E 0 9d 3e 64
        E 1153 85 4d 64
        E 0 8d 3e 64
        E 0 95 4a 64
        E 0 9d 32 64
        E 1152 85 4a 64
        E 0 8a 4a 64
        E 1 8d 32 64
        E 0 95 46 66
        E 0 9d 2b 64
        E 1149 8d 2b 64
        E 1 9d 37 64
        E 575 85 46 66
        E 0 95 48 64
        E 578 85 48 64
        E 0 8d 37 64
        E 1 95 46 66
        E 0 9d 2b 64
        E 1149 85 46 66
        E 0 8d 2b 64
        E 0 95 46 66
        E 0 9d 2b 64
        E 1153 8d 2b 64
        E 0 9d 37 64
        E 1151 85 46 66
        E 0 8d 37 64
        E 0 95 46 66
        E 0 9d 2b 64
        E 1153 85 46 66
        E 9 8d 2b 64
        E 4 95 4c 64
        E 0 9d 30 64
        E 1140 8d 30 64
        E 0 9d 3c 64
        E 576 85 4c 64
        E 0 95 4d 64
        E 576 85 4d 64
        E 0 8d 3c 64
        E 0 95 4c 64
        E 0 9d 30 64
        E 1152 85 4c 64
        E 1 8d 30 64
        E 0 95 4f 64
        E 0 9d 30 64
        E 1149 8d 30 64
        E 1 9d 3c 64
        E 1153 85 4f 64
        E 0 8d 3c 64
        E 0 95 46 66
        E 0 9d 30 64
        E 1155 85 46 66
        E 0 8d 30 64
        E 0 95 46 66
        E 0 9d 29 64
        E 1148 8d 29 64
        E 0 9d 35 64
        E 1153 85 46 66
        E 0 8d 35 64
        E 0 95 45 64
        E 0 9d 29 64
        E 1151 85 45 64
        E 5 8d 29 64
        E 5 95 45 64
        E 5 9a 48 64
        E 1 9d 29 64
        E 1136 8d 29 64
        E 0 9d 35 64
        E 1153 8d 35 64
        E 1 9d 29 64
        E 1152 85 45 64
        E 0 8a 48 64
        E 0 8d 29 64
        E 0 9a 48 64
        E 0 9d 2a 64
        E 1151 8a 48 64
        E 0 8d 2a 64
        E 0 9a 4c 64
        E 1 9d 36 64
        E 1152 8a 4c 64
        E 0 8d 36 64
        E 0 9a 4a 64
        E 0 9d 2a 64
        E 1150 8a 4a 64
        E 0 8d 2a 64
        E 0 9a 48 64
        E 0 9d 2a 64
        E 1154 8a 48 64
        E 0 8d 2a 64
        E 0 9a 47 64
        E 0 9d 36 64
        E 1150 8a 47 64
        E 0 8d 36 64
        E 0 9a 45 64
        E 1 9d 2a 64
        E 1153 8a 45 64
        E 0 8d 2a 64
        E 1 9a 47 64
        E 0 9d 2b 64
        E 1150 8a 47 64
        E 0 8d 2b 64
        E 0 9a 45 64
        E 1 9d 37 64
        E 1150 8a 45 64
        E 0 8d 37 64
        E 0 9a 43 64
        E 0 9d 2b 64
        E 1153 8a 43 64
        E 0 8d 2b 64
        E 0 9a 4a 64
        E 1 9d 2b 64
        E 1151 8d 2b 64
        E 0 9d 37 64
        E 1151 8d 37 64
        E 0 9d 2b 64
        E 1151 8a 4a 64
        E 0 8d 2b 64
        E 0 9a 4a 64
        E 0 9d 2c 64
        E 1154 8a 4a 64
        E 0 8d 2c 64
        E 1 9a 4d 64
        E 0 9d 38 64
        E 1150 8a 4d 64
        E 0 8d 38 64
        E 0 9a 4c 64
        E 0 9d 2c 64
        E 1151 8a 4c 64
        E 0 8d 2c 64
        E 0 9a 4a 64
        E 0 9d 2c 64
        E 1153 8a 4a 64
        E 0 8d 2c 64
        E 1 9a 48 64
        E 0 9d 38 64
        E 1151 8a 48 64
        E 0 8d 38 64
        E 0 9a 47 64
        E 0 9d 2c 64
        E 1152 8a 47 64
        E 0 8d 2c 64
        E 0 9a 48 64
        E 0 9d 2d 64
        E 1151 8a 48 64
        E 0 8d 2d 64
        E 0 9a 47 64
        E 1 9d 39 64
        E 1154 8a 47 64
        E 0 8d 39 64
        E 0 9a 45 64
        E 0 9d 2d 64
        E 1151 8a 45 64
        E 0 8d 2d 64
        E 0 9a 4a 64
        E 0 9d 2a 64
        E 1153 8d 2a 64
        E 0 9d 36 64
        E 1151 8a 4a 64
        E 0 8d 36 64
        E 0 9a 48 64
        E 0 9d 2a 64
        E 1152 8a 48 64
        E 0 8d 2a 64
        E 0 9a 47 64
        E 0 9d 2b 64
        E 1152 8d 2b 64
        E 0 9d 37 64
        E 1152 8a 47 64
        E 0 8d 37 64
        E 0 9a 45 64
        E 1 9d 2b 64
        E 1151 8a 45 64
        E 0 8d 2b 64
        E 0 95 4a 64
        E 1 9a 43 64
        E 0 9d 2b 64
        E 1150 8d 2b 64
        E 0 9d 37 64
        E 1155 85 4a 64
        E 0 8d 37 64
        E 0 95 48 64
        E 2 9d 2b 64
        E 1149 85 48 64
        E 5 8a 43 64
        E 0 8d 2b 64
        E 0 95 47 64
        E 0 9d 2b 64
        E 1145 85 47 64
        E 0 8d 2b 64
        E 0 95 45 64
        E 1 9d 37 64
        E 1152 85 45 64
        E 0 8d 37 64
        E 0 95 43 64
        E 0 9d 2b 64
        E 1153 85 43 64
        E 0 8d 2b 64
        E 0 95 4a 64
        E 0 9a 47 64
        E 0 9d 2b 64
        E 1149 8d 2b 64
        E 1 9d 37 64
        E 1152 85 4a 64
        E 0 8a 47 64
        E 0 8d 37 64
        E 1 95 4c 64
        E 0 9a 48 64
        E 0 9d 2b 64
        E 1151 85 4c 64
        E 0 8a 48 64
        E 0 8d 2b 64
        E 0 95 4c 64
        E 0 9a 48 64
        E 0 9d 2b 64
        E 1152 8d 2b 64
        E 0 9d 37 64
        E 1153 85 4c 64
        E 0 8a 48 64
        E 0 8d 37 64
        E 0 95 4a 64
        E 1 9a 47 64
        E 0 9d 2b 64
        E 1152 85 4a 64
        E 0 8a 47 64
        E 0 8d 2b 64
        E 0 95 47 64
        E 1 9a 4a 64
        E 0 9d 2b 64
        E 1149 8d 2b 64
        E 0 9d 37 64
        E 1153 85 47 64
        E 0 8a 4a 64
        E 0 8d 37 64
        E 0 95 48 64
        E 0 9a 4c 64
        E 0 9d 2b 64
        E 1152 85 48 64
        E 0 8a 4c 64
        E 0 8d 2b 64
        E 0 95 48 64
        E 0 9a 4c 64
        E 0 9d 2b 64
        E 1153 8d 2b 64
        E 0 9d 37 64
        E 1149 85 48 64
        E 0 8a 4c 64
        E 0 8d 37 64
        E 1 95 47 64
        E 0 9a 4a 64
        E 0 9d 2b 64
        E 1152 85 47 64
        E 0 8a 4a 64
        E 0 8d 2b 64
        E 0 9d 2b 64
        E 1152 8d 2b 64
        E 1 9d 37 64
        E 1152 8d 37 64
        E 3 9d 2b 64
        E 1149 8d 2b 64
        E 0 95 4a 64
        E 0 9a 47 64
        E 0 9d 2b 64
        E 1153 85 4a 64
        E 0 8a 47 64
        E 0 8d 2b 64
        E 0 95 4d 64
        E 0 9a 4a 64
        E 0 9d 37 64
        E 1149 85 4d 64
        E 0 8a 4a 64
        E 0 8d 37 64
        E 1 95 4c 64
        E 0 9a 48 64
        E 0 9d 2b 64
        E 1152 85 4c 64
        E 0 8a 48 64
        E 0 8d 2b 64
        E 0 95 4a 64
        E 0 9a 47 64
        E 0 9d 2b 64
        E 1152 85 4a 64
        E 0 8a 47 64
        E 0 8d 2b 64
        E 0 95 48 64
        E 0 9a 45 64
        E 0 9d 37 64
        E 1152 85 48 64
        E 0 8a 45 64
        E 0 8d 37 64
        E 0 95 47 64
        E 1 9a 43 64
        E 0 9d 2b 64
        E 1151 85 47 64
        E 0 8a 43 64
        E 0 8d 2b 64
        E 0 95 4c 64
        E 0 9a 48 64
        E 1 9d 2b 64
        E 1151 85 4c 64
        E 0 8a 48 64
        E 0 8d 2b 64
        E 0 95 4f 64
        E 0 9a 4c 64
        E 0 9d 37 64
        E 1151 85 4f 64
        E 1 8a 4c 64
        E 0 8d 37 64
        E 0 95 4d 64
        E 0 9a 4a 64
        E 0 9d 2b 64
        E 1153 85 4d 64
        E 0 8a 4a 64
        E 0 8d 2b 64
        E 1 95 4c 64
        E 0 9a 48 64
        E 0 9d 2b 64
        E 1150 85 4c 64
        E 0 8a 48 64
        E 0 8d 2b 64
        E 0 95 4a 64
        E 0 9a 4a 64
        E 0 9d 37 64
        E 1152 85 4a 64
        E 0 8a 4a 64
        E 0 8d 37 64
        E 0 95 48 64
        E 0 9a 4c 64
        E 0 9d 2b 64
        E 1152 85 48 64
        E 1 8a 4c 64
        E 0 8d 2b 64
        E 0 95 4a 64
        E 0 9a 47 64
        E 0 9d 2b 64
        E 1150 85 4a 64
        E 0 8a 47 64
        E 0 8d 2b 64
        E 0 95 4d 64
        E 1 9a 4a 64
        E 0 9d 37 64
        E 1152 85 4d 64
        E 0 8a 4a 64
        E 0 8d 37 64
        E 0 95 4c 64
        E 1 9a 48 64
        E 0 9d 2b 64
        E 1151 85 4c 64
        E 0 8a 48 64
        E 0 8d 2b 64
        E 0 95 4a 64
        E 0 9a 47 64
        E 0 9d 2b 64
        E 1153 85 4a 64
        E 0 8a 47 64
        E 0 8d 2b 64
        E 0 95 48 64
        E 0 9a 45 64
        E 0 9d 37 64
        E 1151 85 48 64
        E 0 8a 45 64
        E 0 8d 37 64
        E 0 95 47 64
        E 0 9a 43 64
        E 0 9d 2b 64
        E 1153 85 47 64
        E 0 8a 43 64
        E 0 8d 2b 64
        E 0 95 4c 64
        E 0 9a 48 64
        E 0 9d 2b 64
        E 1151 85 4c 64
        E 0 8a 48 64
        E 0 8d 2b 64
        E 0 95 4f 64
        E 0 9a 4c 64
        E 0 9d 37 64
        E 1154 85 4f 64
        E 0 8a 4c 64
        E 0 8d 37 64
        E 0 95 4d 64
        E 0 9a 4a 64
        E 0 9d 2b 64
        E 1150 85 4d 64
        E 0 8a 4a 64
        E 0 8d 2b 64
        E 0 95 4c 64
        E 0 9a 48 64
        E 0 9d 2b 64
        E 1152 85 4c 64
        E 0 8a 48 64
        E 1 8d 2b 64
        E 0 95 4a 64
        E 0 9a 4a 64
        E 0 9d 37 64
        E 1151 85 4a 64
        E 0 8a 4a 64
        E 0 8d 37 64
        E 0 95 48 64
        E 1 9a 4c 64
        E 1 9d 2b 64
        E 1149 85 48 64
        E 0 8a 4c 64
        E 0 8d 2b 64
        E 0 95 4a 64
        E 1 9a 47 64
        E 0 9d 2b 64
        E 1153 8a 47 64
        E 0 8d 2b 64
        E 0 9a 45 64
        E 1 9d 37 64
        E 1152 8a 45 64
        E 0 8d 37 64
        E 0 9a 43 64
        E 0 9d 2b 64
        E 1150 85 4a 64
        E 0 8a 43 64
        E 0 8d 2b 64
        E 1 9d 2b 64
        E 1153 8d 2b 64
        E 0 9d 37 64
        E 1152 8d 37 64
        E 0 95 4a 64
        E 0 9a 4d 64
        E 0 9d 2b 64
        E 1150 85 4a 64
        E 1 8a 4d 64
        E 0 8d 2b 64
        E 0 95 48 64
        E 0 9a 4c 64
        E 0 9d 30 64
        E 1151 85 48 64
        E 0 8a 4c 64
        E 0 8d 30 64
        E 0 95 4a 64
        E 0 9a 4a 64
        E 0 9d 3c 64
        E 1152 85 4a 64
        E 0 8a 4a 64
        E 0 8d 3c 64
        E 0 95 4c 64
        E 0 9a 48 64
        E 0 9d 30 64
        E 1153 85 4c 64
        E 0 8a 48 64
        E 0 8d 30 64
        E 0 95 47 64
        E 0 9a 4a 64
        E 0 9d 2b 64
        E 1153 8d 2b 64
        E 0 9d 37 64
        E 1150 85 47 64
        E 0 8a 4a 64
        E 0 8d 37 64
        E 0 95 48 64
        E 0 9a 48 64
        E 0 9d 2b 64
        E 1153 85 48 64
        E 0 8a 48 64
        E 0 8d 2b 64
        E 6 95 48 64
        E 0 9a 48 64
        E 0 9d 30 64
        E 1146 85 48 64
        E 0 8d 30 64
        E 0 95 4f 64
        E 0 9d 3c 64
        E 1150 85 4f 64
        E 0 8d 3c 64
        E 0 95 4d 64
        E 1 9d 30 64
        E 1152 85 4d 64
        E 0 8d 30 64
        E 0 95 4c 64
        E 0 9d 30 64
        E 1154 85 4c 64
        E 0 8d 30 64
        E 0 95 4a 64
        E 0 9d 3c 64
        E 1150 85 4a 64
        E 0 8d 3c 64
        E 1 95 48 64
        E 0 9d 30 64
        E 1151 85 48 64
        E 0 8a 48 64
        E 0 8d 30 64
        E 0 95 47 64
        E 0 9d 2b 64
        E 1153 85 47 64
        E 0 8d 2b 64
        E 0 95 4a 64
        E 0 9d 37 64
        E 1151 85 4a 64
        E 0 8d 37 64
        E 0 95 48 64
        E 1 9d 2b 64
        E 1151 85 48 64
        E 0 8d 2b 64
        E 0 95 47 64
        E 0 9d 2b 64
        E 1152 85 47 64
        E 0 8d 2b 64
        E 0 95 45 64
        E 0 9d 37 64
        E 1151 85 45 64
        E 0 8d 37 64
        E 0 95 43 64
        E 1 9d 2b 64
        E 1152 85 43 64
        E 0 8d 2b 64
        E 0 95 4c 64
        E 0 9a 43 64
        E 0 9d 30 64
        E 1153 85 4c 64
        E 1 8d 30 64
        E 0 95 4a 64
        E 0 9d 3c 64
        E 1150 85 4a 64
        E 0 8d 3c 64
        E 0 95 48 64
        E 1 9d 30 64
        E 1151 85 48 64
        E 0 8a 43 64
        E 0 8d 30 64
        E 0 9a 43 64
        E 0 9d 30 64
        E 1154 8d 30 64
        E 0 9d 3c 64
        E 1150 8a 43 64
        E 0 8d 3c 64
        E 0 9a 48 64
        E 0 9d 30 64
        E 1152 8a 48 64
        E 0 8d 30 64
        E 0 9a 45 64
        E 0 9d 35 64
        E 1153 8a 45 64
        E 0 8d 35 64
        E 0 9a 41 64
        E 0 9d 39 64
        E 1152 8a 41 64
        E 0 8d 39 64
        E 1 9a 43 64
        E 0 9d 37 64
        E 1151 8a 43 64
        E 0 8d 37 64
        E 0 9a 45 64
        E 1 9d 36 64
        E 1150 8a 45 64
        E 0 8d 36 64
        E 0 9a 4a 64
        E 0 9d 32 64
        E 1151 8a 4a 64
        E 0 8d 32 64
        E 1 9a 48 64
        E 0 9d 36 64
        E 1151 8a 48 64
        E 0 8d 36 64
        E 1 9a 47 64
        E 0 9d 37 64
        E 1154 8a 47 64
        E 0 8d 37 64
        E 1 9a 43 64
        E 0 9d 3b 64
        E 1150 8a 43 64
        E 0 8d 3b 64
        E 0 9a 45 64
        E 0 9d 39 64
        E 1154 8a 45 64
        E 0 8d 39 64
        E 1 9a 47 64
        E 0 9d 38 64
        E 1148 8a 47 64
        E 0 8d 38 64
        E 0 9a 4c 64
        E 0 9d 34 64
        E 1154 8a 4c 64
        E 0 8d 34 64
        E 1 9a 4a 64
        E 0 9d 38 64
        E 1151 8a 4a 64
        E 0 8d 38 64
        E 0 9a 48 64
        E 0 9d 39 64
        E 1152 8a 48 64
        E 0 8d 39 64
        E 0 9a 45 64
        E 0 9d 3c 64
        E 1149 8a 45 64
        E 0 8d 3c 64
        E 0 9a 47 64
        E 0 9d 3b 64
        E 1153 8a 47 64
        E 1 8d 3b 64
        E 0 9a 48 64
        E 0 9d 39 64
        E 1151 8a 48 64
        E 1 8d 39 64
        E 0 9a 4d 64
        E 1 9d 35 64
        E 1150 8a 4d 64
        E 0 8d 35 64
        E 0 9a 4c 64
        E 0 9d 30 64
        E 1153 8a 4c 64
        E 0 8d 30 64
        E 0 9a 4a 64
        E 0 9d 2b 64
        E 1152 8d 2b 64
        E 0 9d 37 64
        E 1150 8d 37 64
        E 0 9d 2b 64
        E 1152 8a 4a 64
        E 0 8d 2b 64
        E 0 9a 4a 64
        E 0 9d 2b 64
        E 1152 8a 4a 64
        E 0 8d 2b 64
        E 0 9a 47 64
        E 0 9d 37 64
        E 1154 8a 47 64
        E 0 8d 37 64
        E 0 9a 48 64
        E 0 9d 2b 64
        E 1151 8a 48 64
        E 0 8d 2b 64
        E 0 9a 4a 64
        E 1 9d 2b 64
        E 1151 8d 2b 64
        E 0 9d 37 64
        E 1153 8d 37 64
        E 0 9d 2b 64
        E 1152 8a 4a 64
        E 0 8d 2b 64
        E 0 9a 4a 64
        E 0 9d 2b 64
        E 1153 8a 4a 64
        E 0 8d 2b 64
        E 0 9a 47 64
        E 1 9d 37 64
        E 1151 8a 47 64
        E 0 8d 37 64
        E 0 9a 48 64
        E 0 9d 2b 64
        E 1150 8a 48 64
        E 0 8d 2b 64
        E 0 9a 4a 64
        E 0 9d 2b 64
        E 1152 8d 2b 64
        E 0 9d 37 64
        E 1153 8a 4a 64
        E 0 8d 37 64
        E 0 9a 43 64
        E 0 9d 2b 64
        E 1152 8a 43 64
        E 0 8d 2b 64
        E 1 9d 2b 64
        E 1149 8d 2b 64
        E 1 9d 37 64
        E 1152 8d 37 64
        E 0 9a 4a 64
        E 0 9d 2b 64
        E 1152 8a 4a 64
        E 0 8d 2b 64
        E 0 9a 4c 64
        E 0 9d 30 64
        E 1154 8a 4c 64
        E 0 8d 30 64
        E 0 9a 4a 64
        E 0 9d 3c 64
        E 1150 8a 4a 64
        E 0 8d 3c 64
        E 0 9a 48 64
        E 1 9d 30 64
        E 1151 8a 48 64
        E 0 8d 30 64
        E 0 9a 48 64
        E 0 9d 2b 64
        E 1153 8a 48 64
        E 0 8d 2b 64
        E 0 9a 4a 64
        E 0 9d 37 64
        E 1151 8a 4a 64
        E 0 8d 37 64
        E 0 9a 47 64
        E 0 9d 2b 64
        E 1153 8a 47 64
        E 0 8d 2b 64
        E 0 9a 48 64
        E 0 9d 30 64
        E 6912 8a 48 64
        E 0 8d 30 64
        E 0 95 48 64
        E 0 9d 30 64
        E 1152 8d 30 64
        E 0 9d 3c 64
        E 576 85 48 64
        E 0 95 4a 64
        E 575 85 4a 64
        E 0 8d 3c 64
        E 0 95 48 64
        E 0 9d 30 64
        E 1152 85 48 64
        E 0 8d 30 64
        E 1 95 4f 64
        E 0 9d 30 64
        E 1151 8d 30 64
        E 1 9d 3c 64
        E 1151 85 4f 64
        E 0 8d 3c 64
        E 0 95 48 64
        E 0 9d 30 64
        E 1152 85 48 64
        E 0 8d 30 64
        E 1 95 47 64
        E 0 9d 2b 64
        E 1151 8d 2b 64
        E 0 9d 37 64
        E 1152 8d 37 64
        E 0 9d 35 64
        E 1152 85 47 64
        E 0 8d 35 64
        E 0 95 48 64
        E 0 9d 34 64
        E 1153 8d 34 64
        E 0 9d 3c 64
        E 1151 8d 3c 64
        E 0 9d 34 64
        E 1152 85 48 64
        E 0 8d 34 64
        E 0 95 4a 64
        E 0 9d 32 64
        E 1152 8d 32 64
        E 0 9d 2f 64
        E 577 85 4a 64
        E 1 95 4c 64
        E 573 85 4c 64
        E 0 8d 2f 64
        E 0 95 4d 64
        E 1 9d 2d 64
        E 1155 85 4d 64
        E 0 8d 2d 64
        E 1 95 47 64
        E 0 9d 2b 64
        E 1149 8d 2b 64
        E 0 9d 37 64
        E 575 85 47 64
        E 1 95 48 64
        E 576 85 48 64
        E 0 8d 37 64
        E 0 95 4a 64
        E 1 9d 2b 64
        E 1150 85 4a 64
        E 1 8d 2b 64
        E 0 95 4c 64
        E 0 9d 30 64
        E 1152 8d 30 64
        E 0 9d 3c 64
        E 1152 85 4c 64
        E 0 8d 3c 64
        E 0 95 4a 64
        E 0 9d 30 64
        E 1153 85 4a 64
        E 0 8d 30 64
        E 0 95 48 64
        E 0 9d 30 64
        E 1150 8d 30 64
        E 0 9d 3c 64
        E 1152 8d 3c 64
        E 1 9d 30 64
        E 1152 85 48 64
        E 0 8d 30 64
        E 1 95 4c 64
        E 0 9d 30 64
        E 1153 8d 30 64
        E 0 9d 3c 64
        E 573 85 4c 64
        E 0 95 4d 64
        E 576 85 4d 64
        E 0 8d 3c 64
        E 0 95 4c 64
        E 0 9d 30 64
        E 1154 85 4c 64
        E 1 8d 30 64
        E 0 95 4f 64
        E 0 9d 30 64
        E 1149 8d 30 64
        E 0 9d 3c 64
        E 1152 85 4f 64
        E 0 8d 3c 64
        E 1 95 4c 64
        E 0 9d 30 64
        E 1151 85 4c 64
        E 0 8d 30 64
        E 0 95 4a 64
        E 0 9d 2f 64
        E 1154 8d 2f 64
        E 0 9d 3b 64
        E 574 85 4a 64
        E 1 95 4c 64
        E 574 85 4c 64
        E 0 8d 3b 64
        E 0 95 4a 64
        E 1 9d 2f 64
        E 1152 85 4a 64
        E 0 8d 2f 64
        E 1 95 4f 64
        E 0 9d 2f 64
        E 1151 8d 2f 64
        E 0 9d 3b 64
        E 1152 85 4f 64
        E 0 8d 3b 64
        E 0 95 4a 64
        E 0 9d 2f 64
        E 1153 85 4a 64
        E 0 8d 2f 64
        E 0 95 48 64
        E 0 9d 2d 64
        E 1151 8d 2d 64
        E 1 9d 39 64
        E 576 85 48 64
        E 0 95 4a 64
        E 575 85 4a 64
        E 0 8d 39 64
        E 0 95 48 64
        E 0 9d 2d 64
        E 1154 85 48 64
        E 0 8d 2d 64
        E 0 95 4d 64
        E 0 9d 2d 64
        E 1150 8d 2d 64
        E 0 9d 39 64
        E 1153 85 4d 64
        E 0 8d 39 64
        E 0 95 48 64
        E 1 9d 2d 64
        E 1152 85 48 64
        E 0 8d 2d 64
        E 0 95 47 64
        E 1 9d 2b 64
        E 1149 85 47 64
        E 0 8d 2b 64
        E 0 95 43 64
        E 0 9d 37 64
        E 1151 85 43 64
        E 1 8d 37 64
        E 0 95 45 64
        E 0 9d 2b 64
        E 1153 85 45 64
        E 0 8d 2b 64
        E 0 95 47 64
        E 0 9d 2b 64
        E 1151 85 47 64
        E 0 8d 2b 64
        E 0 95 48 64
        E 0 9d 37 64
        E 1152 85 48 64
        E 0 8d 37 64
        E 1 95 4a 64
        E 0 9d 2b 64
        E 1152 85 4a 64
        E 0 8d 2b 64
        E 0 95 4c 64
        E 0 9d 2b 64
        E 1152 85 4c 64
        E 0 8d 2b 64
        E 0 95 4f 64
        E 0 9d 37 64
        E 1152 85 4f 64
        E 0 8d 37 64
        E 0 95 4d 64
        E 0 9d 2b 64
        E 1151 85 4d 64
        E 0 8d 2b 64
        E 0 95 4c 64
        E 0 9d 2b 64
        E 1152 85 4c 64
        E 1 8d 2b 64
        E 0 95 4a 64
        E 0 9d 37 64
        E 1152 85 4a 64
        E 1 8d 37 64
        E 0 95 48 64
        E 0 9d 2b 64
        E 1152 85 48 64
        E 0 8d 2b 64
        E 0 95 47 64
        E 0 9d 2b 64
        E 1152 85 47 64
        E 0 8d 2b 64
        E 0 95 43 64
        E 0 9d 37 64
        E 1149 85 43 64
        E 0 8d 37 64
        E 0 95 45 64
        E 1 9d 2b 64
        E 1152 85 45 64
        E 0 8d 2b 64
        E 0 95 47 64
        E 0 9d 2b 64
        E 1152 85 47 64
        E 0 8d 2b 64
        E 0 95 48 64
        E 1 9d 37 64
        E 1153 85 48 64
        E 0 8d 37 64
        E 0 95 4a 64
        E 0 9d 2b 64
        E 1152 85 4a 64
        E 0 8d 2b 64
        E 0 95 4c 64
        E 0 9d 2b 64
        E 1150 85 4c 64
        E 0 8d 2b 64
        E 0 95 4f 64
        E 0 9d 37 64
        E 1152 85 4f 64
        E 0 8d 37 64
        E 0 95 4d 64
        E 0 9d 2b 64
        E 1153 85 4d 64
        E 0 8d 2b 64
        E 0 95 4c 64
        E 0 9d 2b 64
        E 1152 85 4c 64
        E 0 8d 2b 64
        E 0 95 4a 64
        E 1 9d 37 64
        E 1150 85 4a 64
        E 0 8d 37 64
        E 0 95 48 64
        E 0 9d 2b 64
        E 1153 85 48 64
        E 0 8d 2b 64
        E 0 95 47 64
        E 2 9d 2b 64
        E 1149 85 47 64
        E 0 8d 2b 64
        E 0 95 45 64
        E 0 9d 37 64
        E 1153 85 45 64
        E 0 8d 37 64
        E 0 95 43 64
        E 0 9d 2b 64
        E 1152 85 43 64
        E 0 8d 2b 64
        E 0 9d 2b 64
        E 1152 8d 2b 64
        E 0 9d 37 64
        E 1150 8d 37 64
        E 0 95 4f 64
        E 0 9d 2b 64
        E 1155 85 4f 64
        E 0 8d 2b 64
        E 0 95 4c 64
        E 0 9d 30 64
        E 1151 8d 30 64
        E 0 9d 3c 64
        E 575 85 4c 64
        E 0 95 4a 64
        E 576 85 4a 64
        E 0 8d 3c 64
        E 0 95 48 64
        E 0 9d 30 64
        E 1154 85 48 64
        E 0 8d 30 64
        E 0 95 48 64
        E 0 9d 2b 64
        E 1152 8d 2b 64
        E 0 9d 37 64
        E 574 85 48 64
        E 1 95 4a 64
        E 576 85 4a 64
        E 0 8d 37 64
        E 0 95 47 64
        E 0 9d 2b 64
        E 1151 85 47 64
        E 0 8d 2b 64
        E 0 95 48 64
        E 0 9d 30 64
        E 10369 85 48 64
        E 0 8d 30 64
        E 9216 97 41 64
        E 0 98 39 64
        E 0 9d 35 64
        E 643 88 39 64
        E 0 8d 35 64
        E 0 98 39 64
        E 0 9d 35 64
        E 216 87 41 64
        E 0 88 39 64
        E 0 8d 35 64
        E 1 97 41 64
        E 0 98 39 64
        E 0 9d 35 64
        E 644 87 41 64
        E 0 88 39 64
        E 0 8d 35 64
        E 0 97 43 64
        E 0 98 39 64
        E 0 9d 35 64
        E 215 87 43 64
        E 0 88 39 64
        E 0 8d 35 64
        E 0 97 45 64
        E 0 98 39 64
        E 0 9d 35 64
        E 645 87 45 64
        E 0 88 39 64
        E 0 8d 35 64
        E 0 97 46 66
        E 0 98 39 64
        E 1 9d 35 64
        E 212 87 46 66
        E 0 88 39 64
        E 0 8d 35 64
        E 0 97 48 64
        E 1 98 37 64
        E 0 9d 34 64
        E 645 87 48 64
        E 0 88 37 64
        E 0 8d 34 64
        E 1 97 46 66
        E 0 98 37 64
        E 0 9d 34 64
        E 215 87 46 66
        E 0 88 37 64
        E 0 8d 34 64
        E 0 97 48 64
        E 0 9e 4f 64
        E 0 98 37 64
        E 0 9d 34 64
        E 644 87 48 64
        E 0 88 37 64
        E 0 8d 34 64
        E 0 97 4a 64
        E 1 98 37 64
        E 0 9d 34 64
        E 215 87 4a 64
        E 0 8e 4f 64
        E 0 88 37 64
        E 0 8d 34 64
        E 0 97 4c 64
        E 1 9e 54 64
        E 0 98 43 64
        E 0 9d 34 64
        E 642 87 4c 64
        E 1 88 43 64
        E 0 8d 34 64
        E 0 97 48 64
        E 0 98 43 64
        E 0 9d 34 64
        E 215 87 48 64
        E 0 8e 54 64
        E 0 88 43 64
        E 0 8d 34 64
        E 0 97 4d 64
        E 0 9e 54 64
        E 0 98 45 64
        E 0 9d 32 64
        E 644 87 4d 64
        E 0 88 45 64
        E 0 8d 32 64
        E 1 97 4c 64
        E 0 98 45 64
        E 0 9d 32 64
        E 213 87 4c 64
        E 0 8e 54 64
        E 0 88 45 64
        E 0 8d 32 64
        E 0 97 4d 64
        E 0 9e 53 64
        E 0 98 41 64
        E 0 9d 32 64
        E 647 87 4d 64
        E 0 88 41 64
        E 0 8d 32 64
        E 0 97 4f 64
        E 1 98 41 64
        E 0 9d 32 64
        E 214 87 4f 64
        E 0 88 41 64
        E 0 8d 32 64
        E 0 97 51 64
        E 0 98 3e 64
        E 0 9d 32 64
        E 644 87 51 64
        E 0 88 3e 64
        E 0 8d 32 64
        E 0 97 52 66
        E 0 98 3e 64
        E 0 9d 32 64
        E 214 87 52 66
        E 0 8e 53 64
        E 0 88 3e 64
        E 0 8d 32 64
        E 0 97 54 64
        E 0 98 40 64
        E 0 9d 30 64
        E 647 88 40 64
        E 0 8d 30 64
        E 0 98 40 64
        E 0 9d 30 64
        E 214 87 54 64
        E 0 88 40 64
        E 0 8d 30 64
        E 0 97 48 64
        E 0 9e 4c 64
        E 0 98 45 64
        E 0 9d 30 64
        E 644 88 45 64
        E 1 8d 30 64
        E 0 98 45 64
        E 0 9d 30 64
        E 213 87 48 64
        E 0 8e 4c 64
        E 0 88 45 64
        E 0 8d 30 64
        E 0 97 48 64
        E 0 9e 51 64
        E 0 98 40 64
        E 0 9d 30 64
        E 645 88 40 64
        E 0 8d 30 64
        E 0 98 40 64
        E 0 9d 30 64
        E 215 87 48 64
        E 0 8e 51 64
        E 0 88 40 64
        E 0 8d 30 64
        E 0 97 4a 64
        E 0 9e 51 64
        E 0 98 41 64
        E 0 9d 2e 66
        E 646 88 41 64
        E 0 8d 2e 66
        E 0 98 41 64
        E 0 9d 2e 66
        E 215 87 4a 64
        E 0 8e 51 64
        E 0 88 41 64
        E 0 8d 2e 66
        E 0 97 46 66
        E 0 9e 4f 64
        E 0 98 3e 64
        E 0 9d 2e 66
        E 645 87 46 66
        E 0 88 3e 64
        E 0 8d 2e 66
        E 1 97 48 64
        E 0 98 3e 64
        E 0 9d 2e 66
        E 215 87 48 64
        E 0 88 3e 64
        E 0 8d 2e 66
        E 0 97 4a 64
        E 0 98 3a 66
        E 0 9d 2e 66
        E 642 87 4a 64
        E 0 88 3a 66
        E 0 8d 2e 66
        E 0 97 4c 64
        E 0 98 3a 66
        E 0 9d 2e 66
        E 216 87 4c 64
        E 0 8e 4f 64
        E 0 88 3a 66
        E 0 8d 2e 66
        E 0 97 4d 64
        E 0 98 3c 64
        E 0 9d 2d 64
        E 644 87 4d 64
        E 0 88 3c 64
        E 0 8d 2d 64
        E 1 97 4c 64
        E 0 98 3c 64
        E 0 9d 2d 64
        E 214 87 4c 64
        E 0 88 3c 64
        E 1 8d 2d 64
        E 0 97 4d 64
        E 0 9e 48 64
        E 0 98 3c 64
        E 0 9d 2d 64
        E 644 87 4d 64
        E 0 88 3c 64
        E 0 8d 2d 64
        E 0 97 4f 64
        E 1 98 3c 64
        E 1 9d 2d 64
        E 213 87 4f 64
        E 0 8e 48 64
        E 0 88 3c 64
        E 0 8d 2d 64
        E 0 97 51 64
        E 0 9e 4d 64
        E 0 98 3c 64
        E 1 9d 2d 64
        E 645 87 51 64
        E 0 88 3c 64
        E 0 8d 2d 64
        E 0 97 4d 64
        E 0 98 3c 64
        E 0 9d 2d 64
        E 214 87 4d 64
        E 0 8e 4d 64
        E 0 88 3c 64
        E 0 8d 2d 64
        E 0 97 52 66
        E 0 9e 4d 64
        E 0 98 3e 64
        E 0 9d 2b 64
        E 645 87 52 66
        E 0 88 3e 64
        E 0 8d 2b 64
        E 0 97 51 64
        E 0 98 3e 64
        E 0 9d 2b 64
        E 214 87 51 64
        E 0 8e 4d 64
        E 0 88 3e 64
        E 0 8d 2b 64
        E 0 97 52 66
        E 0 9e 4c 64
        E 0 98 43 64
        E 1 9d 2b 64
        E 643 87 52 66
        E 0 88 43 64
        E 0 8d 2b 64
        E 0 97 4f 64
        E 1 98 43 64
        E 0 9d 2b 64
        E 216 87 4f 64
        E 0 88 43 64
        E 0 8d 2b 64
        E 0 97 51 64
        E 0 98 3a 66
        E 0 9d 2b 64
        E 644 87 51 64
        E 0 88 3a 66
        E 0 8d 2b 64
        E 0 97 52 66
        E 0 98 3a 66
        E 0 9d 2b 64
        E 215 87 52 66
        E 0 8e 4c 64
        E 0 88 3a 66
        E 0 8d 2b 64
        E 0 97 51 64
        E 0 9e 4d 64
        E 0 98 3c 64
        E 0 9d 29 64
        E 645 87 51 64
        E 0 8e 4d 64
        E 0 88 3c 64
        E 0 8d 29 64
        E 0 97 4d 64
        E 0 9e 4a 64
        E 0 98 3e 64
        E 0 9d 2e 66
        E 216 87 4d 64
        E 1 8e 4a 64
        E 0 88 3e 64
        E 0 8d 2e 66
        E 0 97 4c 64
        E 0 9e 43 64
        E 0 98 3c 64
        E 0 9d 30 64
        E 860 8d 30 64
        E 0 9d 24 64
        E 428 87 4c 64
        E 0 8e 43 64
        E 0 88 3c 64
        E 0 97 4d 64
        E 0 9e 45 64
        E 0 98 3c 64
        E 430 87 4d 64
        E 0 8e 45 64
        E 0 88 3c 64
        E 0 8d 24 64
        E 0 97 4d 64
        E 0 9e 45 64
        E 0 98 3c 64
        E 0 9d 35 64
        E 643 8d 35 64
        E 1 9d 35 64
        E 215 87 4d 64
        E 0 8e 45 64
        E 0 88 3c 64
        E 0 8d 35 64
        E 0 98 41 64
        E 0 9d 35 64
        E 645 88 41 64
        E 0 8d 35 64
        E 0 98 43 64
        E 0 9d 35 64
        E 215 88 43 64
        E 0 8d 35 64
        E 0 98 45 64
        E 0 9d 35 64
        E 645 88 45 64
        E 0 8d 35 64
        E 0 98 46 66
        E 0 9d 35 64
        E 216 88 46 66
        E 0 8d 35 64
        E 0 9e 4f 64
        E 0 98 48 64
        E 0 9d 34 64
        E 642 8d 34 64
        E 0 9d 34 64
        E 215 8e 4f 64
        E 0 88 48 64
        E 0 8d 34 64
        E 0 97 54 64
        E 0 9e 4c 64
        E 0 98 3c 64
        E 0 9d 34 64
        E 647 8d 34 64
        E 0 9d 34 64
        E 214 8e 4c 64
        E 0 88 3c 64
        E 0 8d 34 64
        E 1 9e 48 64
        E 0 98 3e 64
        E 0 9d 34 64
        E 643 88 3e 64
        E 0 8d 34 64
        E 0 98 40 64
        E 0 9d 34 64
        E 217 87 54 64
        E 0 8e 48 64
        E 0 88 40 64
        E 0 8d 34 64
        E 0 97 54 64
        E 0 9e 51 64
        E 0 98 41 64
        E 0 9d 32 64
        E 645 8d 32 64
        E 0 9d 32 64
        E 214 87 54 64
        E 0 8e 51 64
        E 0 88 41 64
        E 0 8d 32 64
        E 0 97 4a 64
        E 0 9e 4d 64
        E 0 98 41 64
        E 0 9d 32 64
        E 644 88 41 64
        E 0 8d 32 64
        E 0 98 40 64
        E 0 9d 32 64
        E 214 87 4a 64
        E 0 8e 4d 64
        E 0 88 40 64
        E 0 8d 32 64
        E 0 97 52 66
        E 0 9e 4a 64
        E 0 98 41 64
        E 0 9d 32 64
        E 645 88 41 64
        E 0 8d 32 64
        E 0 98 43 64
        E 0 9d 32 64
        E 216 87 52 66
        E 0 8e 4a 64
        E 1 88 43 64
        E 0 8d 32 64
        E 0 97 52 66
        E 0 9e 4f 64
        E 0 98 40 64
        E 0 9d 30 64
        E 644 8d 30 64
        E 0 9d 30 64
        E 214 87 52 66
        E 1 8e 4f 64
        E 0 88 40 64
        E 0 8d 30 64
        E 0 97 48 64
        E 0 9e 4c 64
        E 0 98 45 64
        E 0 9d 30 64
        E 645 88 45 64
        E 0 8d 30 64
        E 0 98 43 64
        E 0 9d 30 64
        E 215 87 48 64
        E 0 8e 4c 64
        E 0 88 43 64
        E 0 8d 30 64
        E 0 97 51 64
        E 0 9e 48 64
        E 0 98 45 64
        E 0 9d 30 64
        E 643 8d 30 64
        E 0 9d 30 64
        E 214 87 51 64
        E 1 8e 48 64
        E 0 88 45 64
        E 0 8d 30 64
        E 0 97 51 64
        E 0 9e 4d 64
        E 0 98 3e 64
        E 0 9d 2e 66
        E 645 8d 2e 66
        E 0 9d 2e 66
        E 216 87 51 64
        E 0 8e 4d 64
        E 0 88 3e 64
        E 0 8d 2e 66
        E 0 97 46 66
        E 0 9e 4a 64
        E 0 98 43 64
        E 1 9d 2e 66
        E 643 88 43 64
        E 0 8d 2e 66
        E 0 98 41 64
        E 0 9d 2e 66
        E 216 87 46 66
        E 0 8e 4a 64
        E 0 88 41 64
        E 0 8d 2e 66
        E 0 97 4f 64
        E 0 9e 46 66
        E 0 98 43 64
        E 1 9d 2e 66
        E 643 8d 2e 66
        E 1 9d 2e 66
        E 214 87 4f 64
        E 0 8e 46 66
        E 0 88 43 64
        E 0 8d 2e 66
        E 0 97 4f 64
        E 0 9e 4c 64
        E 0 98 3c 64
        E 0 9d 2d 64
        E 647 8d 2d 64
        E 0 9d 2d 64
        E 211 87 4f 64
        E 0 8e 4c 64
        E 0 88 3c 64
        E 0 8d 2d 64
        E 1 97 45 64
        E 0 9e 48 64
        E 0 98 41 64
        E 0 9d 2d 64
        E 644 88 41 64
        E 0 8d 2d 64
        E 0 98 40 64
        E 0 9d 2d 64
        E 215 87 45 64
        E 0 8e 48 64
        E 0 88 40 64
        E 0 8d 2d 64
        E 0 97 4d 64
        E 0 9e 45 64
        E 0 98 41 64
        E 0 9d 2d 64
        E 644 8d 2d 64
        E 1 9d 2d 64
        E 218 87 4d 64
        E 0 8e 45 64
        E 0 88 41 64
        E 0 8d 2d 64
        E 0 97 4d 64
        E 0 9e 4a 64
        E 0 98 46 66
        E 0 9d 2b 64
        E 643 88 46 66
        E 0 8d 2b 64
        E 0 98 45 64
        E 0 9d 2b 64
        E 214 87 4d 64
        E 0 8e 4a 64
        E 0 88 45 64
        E 0 8d 2b 64
        E 1 97 4c 64
        E 0 9e 46 66
        E 0 98 46 66
        E 0 9d 2b 64
        E 646 88 46 66
        E 0 8d 2b 64
        E 0 98 43 64
        E 0 9d 2b 64
        E 212 8e 46 66
        E 0 88 43 64
        E 0 8d 2b 64
        E 1 9e 43 64
        E 1 98 45 64
        E 2 9d 2b 64
        E 641 88 45 64
        E 0 8d 2b 64
        E 0 98 46 66
        E 0 9d 2b 64
        E 216 87 4c 64
        E 0 8e 43 64
        E 0 88 46 66
        E 0 8d 2b 64
        E 0 97 4d 64
        E 0 9e 48 64
        E 0 98 45 64
        E 0 9d 29 64
        E 430 88 45 64
        E 0 98 43 64
        E 215 87 4d 64
        E 0 88 43 64
        E 0 8d 29 64
        E 1 97 45 64
        E 1 98 41 64
        E 0 9d 2e 66
        E 211 87 45 64
        E 0 88 41 64
        E 0 8d 2e 66
        E 0 97 43 64
        E 0 98 40 64
        E 0 9d 30 64
        E 647 87 43 64
        E 0 97 45 64
        E 214 87 45 64
        E 0 8d 30 64
        E 0 97 46 66
        E 0 9d 24 64
        E 431 88 40 64
        E 0 98 41 64
        E 215 87 46 66
        E 1 97 48 64
        E 214 8e 48 64
        E 0 87 48 64
        E 0 88 41 64
        E 0 8d 24 64
        E 0 9e 48 64
        E 0 97 45 64
        E 0 98 41 64
        E 0 9d 35 64
        E 642 87 45 64
        E 0 8d 35 64
        E 0 97 43 64
        E 0 9d 34 64
        E 217 87 43 64
        E 0 8d 34 64
        E 0 97 45 64
        E 0 9d 35 64
        E 428 8e 48 64
        E 1 9e 47 64
        E 219 87 45 64
        E 0 8d 35 64
        E 0 97 47 64
        E 1 9d 37 64
        E 212 8e 47 64
        E 0 87 47 64
        E 0 8d 37 64
        E 0 9e 45 64
        E 0 97 48 64
        E 0 9d 39 64
        E 645 87 48 64
        E 0 8d 39 64
        E 0 97 4a 64
        E 0 9d 3b 64
        E 213 87 4a 64
        E 0 8e 45 64
        E 0 88 41 64
        E 0 8d 3b 64
        E 0 97 4c 64
        E 0 9e 43 64
        E 1 9d 3c 64
        E 643 8d 3c 64
        E 0 9d 3c 64
        E 216 87 4c 64
        E 0 8e 43 64
        E 0 8d 3c 64
        E 1 9e 48 64
        E 0 9d 3c 64
        E 642 8e 48 64
        E 0 8d 3c 64
        E 0 9e 4a 64
        E 1 9d 3c 64
        E 217 8e 4a 64
        E 0 8d 3c 64
        E 1 9e 4c 64
        E 0 9d 3c 64
        E 643 8e 4c 64
        E 0 8d 3c 64
        E 0 9e 4d 64
        E 0 9d 3c 64
        E 214 8e 4d 64
        E 0 8d 3c 64
        E 0 9e 4f 64
        E 0 98 3e 64
        E 0 9d 3b 64
        E 646 8d 3b 64
        E 0 9d 3b 64
        E 214 8e 4f 64
        E 0 88 3e 64
        E 0 8d 3b 64
        E 0 97 4f 64
        E 0 9e 43 64
        E 0 98 3b 64
        E 0 9d 3b 64
        E 647 8d 3b 64
        E 0 9d 3b 64
        E 213 8e 43 64
        E 0 88 3b 64
        E 0 8d 3b 64
        E 0 9e 45 64
        E 0 98 37 64
        E 0 9d 3b 64
        E 643 8e 45 64
        E 0 8d 3b 64
        E 1 9e 47 64
        E 0 9d 3b 64
        E 214 87 4f 64
        E 0 8e 47 64
        E 0 88 37 64
        E 0 8d 3b 64
        E 0 97 4f 64
        E 0 9e 48 64
        E 0 98 40 64
        E 0 9d 39 64
        E 646 8d 39 64
        E 1 9d 39 64
        E 214 87 4f 64
        E 0 8e 48 64
        E 0 88 40 64
        E 0 8d 39 64
        E 0 97 45 64
        E 0 9e 48 64
        E 0 98 3c 64
        E 0 9d 39 64
        E 645 8e 48 64
        E 0 8d 39 64
        E 0 9e 47 64
        E 0 9d 39 64
        E 215 87 45 64
        E 0 8e 47 64
        E 0 88 3c 64
        E 0 8d 39 64
        E 0 97 4d 64
        E 0 9e 48 64
        E 0 98 39 64
        E 0 9d 39 64
        E 645 8e 48 64
        E 0 8d 39 64
        E 0 9e 4a 64
        E 1 9d 39 64
        E 216 87 4d 64
        E 0 8e 4a 64
        E 0 88 39 64
        E 0 8d 39 64
        E 0 97 4d 64
        E 0 9e 47 64
        E 0 98 3e 64
        E 0 9d 37 64
        E 642 8d 37 64
        E 0 9d 37 64
        E 215 87 4d 64
        E 0 8e 47 64
        E 0 88 3e 64
        E 0 8d 37 64
        E 0 97 43 64
        E 0 9e 4c 64
        E 0 98 3b 64
        E 0 9d 37 64
        E 644 8e 4c 64
        E 0 8d 37 64
        E 0 9e 4a 64
        E 0 9d 37 64
        E 218 87 43 64
        E 0 8e 4a 64
        E 0 88 3b 64
        E 0 8d 37 64
        E 0 97 4c 64
        E 0 9e 4c 64
        E 0 98 37 64
        E 0 9d 37 64
        E 642 8d 37 64
        E 0 9d 37 64
        E 215 87 4c 64
        E 0 8e 4c 64
        E 0 88 37 64
        E 0 8d 37 64
        E 0 97 4c 64
        E 0 9e 45 64
        E 0 98 48 64
        E 0 9d 35 64
        E 645 8d 35 64
        E 1 9d 35 64
        E 216 87 4c 64
        E 0 8e 45 64
        E 0 88 48 64
        E 0 8d 35 64
        E 0 97 41 64
        E 0 9e 4a 64
        E 0 98 45 64
        E 0 9d 35 64
        E 644 8e 4a 64
        E 0 8d 35 64
        E 0 9e 48 64
        E 0 9d 35 64
        E 213 87 41 64
        E 0 8e 48 64
        E 0 88 45 64
        E 0 8d 35 64
        E 0 97 4a 64
        E 0 9e 4a 64
        E 0 98 41 64
        E 1 9d 35 64
        E 644 8d 35 64
        E 0 9d 35 64
        E 215 87 4a 64
        E 0 8e 4a 64
        E 0 88 41 64
        E 0 8d 35 64
        E 0 97 4a 64
        E 0 9e 43 64
        E 0 98 47 64
        E 0 9d 34 64
        E 645 8d 34 64
        E 0 9d 34 64
        E 216 87 4a 64
        E 0 8e 43 64
        E 0 88 47 64
        E 0 8d 34 64
        E 0 97 40 64
        E 0 9e 48 64
        E 0 98 43 64
        E 1 9d 34 64
        E 644 87 40 64
        E 0 8e 48 64
        E 0 8d 34 64
        E 0 97 43 64
        E 0 9e 47 64
        E 0 9d 34 64
        E 215 87 43 64
        E 0 8e 47 64
        E 0 88 43 64
        E 0 8d 34 64
        E 0 97 48 64
        E 0 9e 48 64
        E 0 98 40 64
        E 0 9d 34 64
        E 645 87 48 64
        E 0 8d 34 64
        E 0 97 4c 64
        E 1 9d 34 64
        E 214 87 4c 64
        E 0 8e 48 64
        E 0 88 40 64
        E 0 8d 34 64
        E 0 97 4d 64
        E 0 9e 4a 64
        E 0 98 47 64
        E 0 9d 32 64
        E 643 87 4d 64
        E 0 8e 4a 64
        E 0 8d 32 64
        E 0 97 4c 64
        E 0 9e 48 64
        E 0 9d 32 64
        E 216 87 4c 64
        E 0 8e 48 64
        E 0 8d 32 64
        E 0 97 4d 64
        E 0 9e 4a 64
        E 0 9d 32 64
        E 644 87 4d 64
        E 3 8e 4a 64
        E 1 8d 32 64
        E 0 97 4a 64
        E 1 9e 47 64
        E 0 9d 32 64
        E 210 87 4a 64
        E 0 8e 47 64
        E 0 88 47 64
        E 0 8d 32 64
        E 0 97 4c 64
        E 0 9e 48 64
        E 0 98 43 64
        E 0 9d 32 64
        E 647 87 4c 64
        E 0 8e 48 64
        E 0 8d 32 64
        E 0 97 4d 64
        E 0 9e 4a 64
        E 1 9d 32 64
        E 214 87 4d 64
        E 0 8e 4a 64
        E 0 88 43 64
        E 0 8d 32 64
        E 0 97 4f 64
        E 0 9e 4c 64
        E 0 98 43 64
        E 0 9d 30 64
        E 428 87 4f 64
        E 0 8e 4c 64
        E 0 97 4d 64
        E 0 9e 4a 64
        E 215 87 4d 64
        E 0 8e 4a 64
        E 0 88 43 64
        E 0 8d 30 64
        E 0 97 4c 64
        E 0 9e 48 64
        E 1 98 45 64
        E 0 9d 35 64
        E 216 87 4c 64
        E 0 8e 48 64
        E 0 88 45 64
        E 0 8d 35 64
        E 0 97 4a 64
        E 0 9e 47 64
        E 0 98 3b 64
        E 0 9d 37 64
        E 642 87 4a 64
        E 0 8e 47 64
        E 0 97 4c 64
        E 0 9e 48 64
        E 214 87 4c 64
        E 0 8e 48 64
        E 0 88 3b 64
        E 0 8d 37 64
        E 0 97 4d 64
        E 0 9e 4a 64
        E 0 98 43 64
        E 0 9d 2b 64
        E 645 87 4d 64
        E 0 8e 4a 64
        E 1 97 4a 64
        E 0 9e 47 64
        E 214 87 4a 64
        E 0 8e 47 64
        E 0 88 43 64
        E 0 8d 2b 64
        E 0 97 4c 64
        E 0 9e 48 64
        E 0 98 43 64
        E 0 9d 30 64
        E 645 87 4c 64
        E 0 8d 30 64
        E 0 97 4f 64
        E 0 9d 30 64
        E 217 87 4f 64
        E 0 8d 30 64
        E 1 97 4d 64
        E 0 9d 30 64
        E 644 87 4d 64
        E 0 8d 30 64
        E 0 97 4c 64
        E 0 9d 30 64
        E 213 87 4c 64
        E 0 88 43 64
        E 0 8d 30 64
        E 0 97 4d 64
        E 0 9d 32 64
        E 645 87 4d 64
        E 0 8d 32 64
        E 1 97 4f 64
        E 0 9d 34 64
        E 214 87 4f 64
        E 0 8e 48 64
        E 0 8d 34 64
        E 0 97 51 64
        E 0 9e 48 64
        E 0 9d 35 64
        E 644 8d 35 64
        E 0 9d 35 64
        E 214 8e 48 64
        E 0 8d 35 64
        E 0 9e 46 66
        E 0 9d 35 64
        E 647 8e 46 66
        E 0 8d 35 64
        E 1 9e 45 64
        E 0 9d 35 64
        E 215 8e 45 64
        E 1 8d 35 64
        E 0 9e 46 66
        E 0 9d 35 64
        E 644 8e 46 66
        E 0 8d 35 64
        E 0 9e 48 64
        E 0 9d 35 64
        E 216 87 51 64
        E 0 8e 48 64
        E 0 8d 35 64
        E 0 97 51 64
        E 0 9e 4a 64
        E 0 98 41 64
        E 0 9d 3a 66
        E 643 8e 4a 64
        E 0 8d 3a 66
        E 0 9e 48 64
        E 0 9d 3a 66
        E 213 87 51 64
        E 0 8e 48 64
        E 0 88 41 64
        E 0 8d 3a 66
        E 0 97 4f 64
        E 1 9e 46 66
        E 0 98 3e 64
        E 1 9d 3a 66
        E 643 8e 46 66
        E 0 8d 3a 66
        E 0 9e 45 64
        E 0 9d 3a 66
        E 216 8e 45 64
        E 0 88 3e 64
        E 0 8d 3a 66
        E 0 9e 43 64
        E 0 98 3a 66
        E 0 9d 3a 66
        E 645 8e 43 64
        E 0 8d 3a 66
        E 0 9e 4a 64
        E 0 9d 3a 66
        E 214 87 4f 64
        E 0 8e 4a 64
        E 0 88 3a 66
        E 0 8d 3a 66
        E 0 97 4f 64
        E 0 9e 4a 64
        E 0 98 46 66
        E 1 9d 34 64
        E 645 87 4f 64
        E 0 8d 34 64
        E 1 97 4d 64
        E 0 9d 34 64
        E 213 87 4d 64
        E 0 8e 4a 64
        E 0 88 46 66
        E 0 8d 34 64
        E 0 97 4c 64
        E 0 9e 48 64
        E 0 98 43 64
        E 0 9d 34 64
        E 645 87 4c 64
        E 0 8e 48 64
        E 0 8d 34 64
        E 0 97 4a 64
        E 0 9e 46 66
        E 0 9d 34 64
        E 215 87 4a 64
        E 0 8e 46 66
        E 0 88 43 64
        E 0 8d 34 64
        E 0 97 48 64
        E 0 9e 48 64
        E 0 98 40 64
        E 0 9d 34 64
        E 643 87 48 64
        E 0 8d 34 64
        E 1 97 4f 64
        E 0 9d 34 64
        E 216 87 4f 64
        E 0 8e 48 64
        E 0 88 40 64
        E 0 8d 34 64
        E 0 97 4f 64
        E 0 9e 48 64
        E 0 98 40 64
        E 0 9d 39 64
        E 643 8e 48 64
        E 0 8d 39 64
        E 1 9e 46 66
        E 0 9d 39 64
        E 216 87 4f 64
        E 0 8e 46 66
        E 0 88 40 64
        E 0 8d 39 64
        E 0 97 4d 64
        E 0 9e 45 64
        E 0 98 3c 64
        E 0 9d 39 64
        E 646 87 4d 64
        E 0 8e 45 64
        E 0 8d 39 64
        E 0 97 4c 64
        E 0 9e 43 64
        E 0 9d 39 64
        E 214 87 4c 64
        E 0 8e 43 64
        E 0 88 3c 64
        E 0 8d 39 64
        E 0 97 4d 64
        E 0 9e 41 64
        E 0 98 39 64
        E 0 9d 39 64
        E 644 8e 41 64
        E 0 8d 39 64
        E 0 9e 48 64
        E 1 9d 39 64
        E 214 87 4d 64
        E 0 8e 48 64
        E 0 88 39 64
        E 0 8d 39 64
        E 0 97 4d 64
        E 0 9e 48 64
        E 0 98 45 64
        E 0 9d 32 64
        E 643 87 4d 64
        E 0 8d 32 64
        E 0 97 4c 64
        E 0 9d 32 64
        E 215 87 4c 64
        E 0 8e 48 64
        E 0 88 45 64
        E 1 8d 32 64
        E 0 97 4a 64
        E 0 9e 46 66
        E 0 98 41 64
        E 0 9d 32 64
        E 644 87 4a 64
        E 0 8e 46 66
        E 0 8d 32 64
        E 0 97 48 64
        E 1 9e 45 64
        E 0 9d 32 64
        E 216 87 48 64
        E 0 8e 45 64
        E 0 88 41 64
        E 0 8d 32 64
        E 0 97 46 66
        E 0 9e 46 66
        E 0 98 3e 64
        E 0 9d 32 64
        E 646 87 46 66
        E 0 8d 32 64
        E 0 97 4d 64
        E 0 9d 32 64
        E 215 87 4d 64
        E 1 8e 46 66
        E 0 88 3e 64
        E 0 8d 32 64
        E 0 97 4d 64
        E 0 9e 46 66
        E 0 98 3e 64
        E 0 9d 37 64
        E 642 8e 46 66
        E 0 8d 37 64
        E 0 9e 45 64
        E 0 9d 37 64
        E 216 87 4d 64
        E 0 8e 45 64
        E 0 88 3e 64
        E 0 8d 37 64
        E 0 97 4c 64
        E 0 9e 43 64
        E 0 98 3a 66
        E 0 9d 37 64
        E 641 87 4c 64
        E 0 8e 43 64
        E 0 8d 37 64
        E 1 97 4a 64
        E 0 9e 41 64
        E 0 9d 37 64
        E 217 87 4a 64
        E 0 8e 41 64
        E 0 88 3a 66
        E 0 8d 37 64
        E 0 97 4c 64
        E 0 9e 40 64
        E 0 98 37 64
        E 0 9d 37 64
        E 643 8e 40 64
        E 0 8d 37 64
        E 0 9e 46 66
        E 0 9d 37 64
        E 233 87 4c 64
        E 0 8e 46 66
        E 0 88 37 64
        E 0 8d 37 64
        E 0 9e 46 66
        E 0 98 40 64
        E 0 9d 30 64
        E 628 88 40 64
        E 0 8d 30 64
        E 0 98 3e 64
        E 1 9d 30 64
        E 213 8e 46 66
        E 0 88 3e 64
        E 1 8d 30 64
        E 0 97 4d 64
        E 0 9e 45 64
        E 0 98 3c 64
        E 0 9d 35 64
        E 647 8e 45 64
        E 0 8d 35 64
        E 0 9e 43 64
        E 0 9d 35 64
        E 213 8e 43 64
        E 0 88 3c 64
        E 0 8d 35 64
        E 0 9e 45 64
        E 0 98 41 64
        E 0 9d 35 64
        E 643 8d 35 64
        E 0 9d 35 64
        E 215 87 4d 64
        E 0 8e 45 64
        E 0 88 41 64
        E 0 8d 35 64
        E 0 97 4d 64
        E 0 9e 47 64
        E 0 98 3e 64
        E 0 9d 37 64
        E 646 8d 37 64
        E 0 9d 37 64
        E 215 87 4d 64
        E 0 8e 47 64
        E 0 88 3e 64
        E 0 8d 37 64
        E 0 97 4c 64
        E 0 9e 49 64
        E 0 98 39 64
        E 0 9d 37 64
        E 644 88 39 64
        E 0 8d 37 64
        E 1 98 3b 64
        E 0 9d 37 64
        E 215 88 3b 64
        E 0 8d 37 64
        E 0 98 3d 64
        E 0 9d 37 64
        E 645 8d 37 64
        E 1 9d 37 64
        E 214 87 4c 64
        E 0 8e 49 64
        E 0 88 3d 64
        E 0 8d 37 64
        E 0 97 4d 64
        E 0 9e 4a 64
        E 0 98 3b 64
        E 0 9d 38 64
        E 644 8d 38 64
        E 0 9d 38 64
        E 213 8d 38 64
        E 1 9d 38 64
        E 646 8d 38 64
        E 0 9d 38 64
        E 214 87 4d 64
        E 0 8e 4a 64
        E 0 88 3b 64
        E 0 8d 38 64
        E 0 97 4c 64
        E 0 9e 48 64
        E 0 98 3c 64
        E 0 9d 39 64
        E 645 8d 39 64
        E 0 9d 39 64
        E 216 87 4c 64
        E 0 8e 48 64
        E 0 88 3c 64
        E 0 8d 39 64
        E 0 97 4c 64
        E 0 9e 48 64
        E 0 98 3e 64
        E 0 9d 39 64
        E 644 8d 39 64
        E 0 9d 39 64
        E 216 87 4c 64
        E 0 8e 48 64
        E 0 8d 39 64
        E 0 97 4a 64
        E 0 9e 47 64
        E 0 9d 34 64
        E 644 87 4a 64
        E 0 8e 47 64
        E 0 8d 34 64
        E 1 97 48 64
        E 0 9e 45 64
        E 0 9d 34 64
        E 213 87 48 64
        E 0 8e 45 64
        E 0 8d 34 64
        E 0 97 47 64
        E 0 9e 44 64
        E 0 9d 34 64
        E 645 87 47 64
        E 0 8e 44 64
        E 0 8d 34 64
        E 0 97 4a 64
        E 0 9e 47 64
        E 0 9d 34 64
        E 215 87 4a 64
        E 0 8e 47 64
        E 0 88 3e 64
        E 0 8d 34 64
        E 0 97 48 64
        E 0 9e 45 64
        E 0 98 40 64
        E 0 9d 2d 64
        E 645 88 40 64
        E 0 8d 2d 64
        E 0 98 40 64
        E 0 9d 39 64
        E 216 87 48 64
        E 0 8e 45 64
        E 0 88 40 64
        E 0 8d 39 64
        E 0 97 45 64
        E 0 9e 45 64
        E 0 98 3c 64
        E 1 9d 39 64
        E 643 87 45 64
        E 0 8e 45 64
        E 0 88 3c 64
        E 0 8d 39 64
        E 2 97 47 64
        E 0 9e 47 64
        E 1 98 3c 64
        E 0 9d 39 64
        E 212 87 47 64
        E 0 8e 47 64
        E 0 88 3c 64
        E 0 8d 39 64
        E 0 97 48 64
        E 0 9e 48 64
        E 0 98 3c 64
        E 0 9d 39 64
        E 645 87 48 64
        E 0 8e 48 64
        E 0 88 3c 64
        E 0 8d 39 64
        E 0 97 4a 64
        E 1 9e 4a 64
        E 0 98 3c 64
        E 0 9d 39 64
        E 211 87 4a 64
        E 0 8e 4a 64
        E 0 88 3c 64
        E 0 8d 39 64
        E 1 97 4c 64
        E 0 9e 4c 64
        E 0 98 3b 64
        E 0 9d 38 64
        E 646 87 4c 64
        E 0 8e 4c 64
        E 0 88 3b 64
        E 0 8d 38 64
        E 1 97 4a 64
        E 0 9e 4a 64
        E 0 98 3b 64
        E 0 9d 38 64
        E 214 87 4a 64
        E 0 8e 4a 64
        E 0 88 3b 64
        E 0 8d 38 64
        E 0 97 4c 64
        E 0 9e 4c 64
        E 0 98 47 64
        E 0 9d 37 64
        E 646 87 4c 64
        E 0 8e 4c 64
        E 0 88 47 64
        E 0 8d 37 64
        E 0 97 4d 64
        E 0 9e 4d 64
        E 1 98 47 64
        E 0 9d 37 64
        E 212 87 4d 64
        E 0 8e 4d 64
        E 0 88 47 64
        E 0 8d 37 64
        E 0 97 4f 64
        E 0 9e 4f 64
        E 0 98 40 64
        E 0 9d 37 64
        E 646 87 4f 64
        E 0 8e 4f 64
        E 0 88 40 64
        E 0 8d 37 64
        E 0 97 4c 64
        E 0 9e 4c 64
        E 0 98 40 64
        E 0 9d 37 64
        E 214 87 4c 64
        E 0 8e 4c 64
        E 0 88 40 64
        E 0 8d 37 64
        E 0 97 51 64
        E 0 9e 51 64
        E 1 98 40 64
        E 0 9d 36 64
        E 645 87 51 64
        E 0 8e 51 64
        E 0 88 40 64
        E 0 8d 36 64
        E 0 97 50 64
        E 0 9e 50 64
        E 0 98 40 64
        E 0 9d 36 64
        E 216 87 50 64
        E 0 8e 50 64
        E 0 88 40 64
        E 0 8d 36 64
        E 0 97 51 64
        E 0 9e 51 64
        E 0 98 3e 64
        E 0 9d 35 64
        E 643 87 51 64
        E 0 8e 51 64
        E 0 88 3e 64
        E 0 8d 35 64
        E 0 97 53 64
        E 0 9e 53 64
        E 0 98 3e 64
        E 1 9d 35 64
        E 214 87 53 64
        E 0 8e 53 64
        E 0 88 3e 64
        E 0 8d 35 64
        E 0 97 54 64
        E 0 9e 54 64
        E 0 98 45 64
        E 0 9d 35 64
        E 643 87 54 64
        E 0 8e 54 64
        E 0 88 45 64
        E 0 8d 35 64
        E 1 97 56 64
        E 0 9e 56 64
        E 0 98 45 64
        E 0 9d 35 64
        E 216 87 56 64
        E 0 8e 56 64
        E 0 88 45 64
        E 0 8d 35 64
        E 0 97 58 64
        E 0 9e 4c 64
        E 0 98 44 64
        E 0 9d 34 64
        E 644 8d 34 64
        E 0 9d 34 64
        E 214 87 58 64
        E 0 8e 4c 64
        E 0 88 44 64
        E 0 8d 34 64
        E 0 97 4c 64
        E 0 9e 48 64
        E 0 98 40 64
        E 0 9d 39 64
        E 648 87 4c 64
        E 0 8e 48 64
        E 0 8d 39 64
        E 0 97 4a 64
        E 0 9e 47 64
        E 0 9d 39 64
        E 213 87 4a 64
        E 0 8e 47 64
        E 0 8d 39 64
        E 0 97 48 64
        E 0 9e 45 64
        E 0 9d 39 64
        E 645 87 48 64
        E 0 8e 45 64
        E 0 8d 39 64
        E 0 97 4c 64
        E 0 9e 48 64
        E 0 9d 39 64
        E 216 87 4c 64
        E 0 8e 48 64
        E 0 88 40 64
        E 1 8d 39 64
        E 0 97 4d 64
        E 0 9e 4a 64
        E 0 98 3b 64
        E 0 9d 38 64
        E 642 87 4d 64
        E 0 8e 4a 64
        E 0 88 3b 64
        E 0 8d 38 64
        E 0 97 4c 64
        E 1 9e 48 64
        E 0 98 3c 64
        E 0 9d 38 64
        E 214 87 4c 64
        E 0 8e 48 64
        E 0 88 3c 64
        E 0 8d 38 64
        E 0 97 4a 64
        E 0 9e 47 64
        E 0 98 3e 64
        E 0 9d 38 64
        E 644 87 4a 64
        E 1 8e 47 64
        E 0 88 3e 64
        E 0 8d 38 64
        E 0 97 48 64
        E 0 9e 45 64
        E 0 98 40 64
        E 0 9d 38 64
        E 217 87 48 64
        E 0 8e 45 64
        E 0 88 40 64
        E 0 8d 38 64
        E 0 97 4a 64
        E 1 9e 47 64
        E 0 98 3e 64
        E 0 9d 38 64
        E 642 87 4a 64
        E 0 8e 47 64
        E 0 88 3e 64
        E 0 8d 38 64
        E 0 97 4c 64
        E 0 9e 48 64
        E 0 98 3c 64
        E 0 9d 38 64
        E 215 87 4c 64
        E 0 8e 48 64
        E 0 88 3c 64
        E 0 8d 38 64
        E 0 97 4d 64
        E 0 9e 4a 64
        E 0 98 3b 64
        E 0 9d 38 64
        E 644 8d 38 64
        E 0 9d 38 64
        E 214 8d 38 64
        E 1 9d 38 64
        E 644 8d 38 64
        E 0 9d 38 64
        E 215 8d 38 64
        E 0 9d 38 64
        E 646 8d 38 64
        E 0 9d 38 64
        E 215 87 4d 64
        E 0 8e 4a 64
        E 0 88 3b 64
        E 0 8d 38 64
        E 0 97 4c 64
        E 0 9e 48 64
        E 0 98 39 64
        E 0 9d 39 64
        E 645 8d 39 64
        E 0 9d 39 64
        E 216 87 4c 64
        E 0 8e 48 64
        E 0 88 39 64
        E 0 8d 39 64
        E 0 97 51 64
        E 1 9e 48 64
        E 0 98 40 64
        E 0 9d 39 64
        E 640 87 51 64
        E 0 8e 48 64
        E 0 8d 39 64
        E 0 97 53 64
        E 1 9e 4a 64
        E 0 9d 39 64
        E 217 87 53 64
        E 0 8e 4a 64
        E 0 8d 39 64
        E 0 97 54 64
        E 0 9e 4c 64
        E 0 9d 39 64
        E 428 88 40 64
        E 0 98 40 64
        E 215 87 54 64
        E 0 8e 4c 64
        E 0 8d 39 64
        E 0 97 51 64
        E 1 9e 48 64
        E 0 9d 39 64
        E 214 87 51 64
        E 0 8e 48 64
        E 0 88 40 64
        E 0 8d 39 64
        E 1 97 52 66
        E 0 9e 4f 64
        E 0 98 40 64
        E 0 9d 31 64
        E 647 87 52 66
        E 0 8e 4f 64
        E 0 88 40 64
        E 0 8d 31 64
        E 0 97 51 64
        E 0 9e 4d 64
        E 0 98 41 64
        E 0 9d 31 64
        E 214 87 51 64
        E 0 8e 4d 64
        E 0 88 41 64
        E 0 8d 31 64
        E 0 97 4f 64
        E 0 9e 4c 64
        E 0 98 43 64
        E 0 9d 31 64
        E 643 87 4f 64
        E 0 8e 4c 64
        E 1 88 43 64
        E 0 8d 31 64
        E 0 97 4d 64
        E 1 9e 4a 64
        E 1 98 45 64
        E 0 9d 31 64
        E 215 87 4d 64
        E 0 8e 4a 64
        E 0 88 45 64
        E 0 8d 31 64
        E 0 97 4f 64
        E 0 9e 4c 64
        E 1 98 43 64
        E 0 9d 31 64
        E 643 87 4f 64
        E 0 8e 4c 64
        E 0 88 43 64
        E 0 8d 31 64
        E 0 97 51 64
        E 0 9e 4d 64
        E 0 98 41 64
        E 0 9d 31 64
        E 212 87 51 64
        E 0 8e 4d 64
        E 0 88 41 64
        E 0 8d 31 64
        E 0 97 52 66
        E 0 9e 4f 64
        E 0 98 40 64
        E 0 9d 31 64
        E 645 8d 31 64
        E 0 9d 31 64
        E 215 8d 31 64
        E 1 9d 31 64
        E 645 8d 31 64
        E 0 9d 31 64
        E 215 8d 31 64
        E 1 9d 31 64
        E 643 8d 31 64
        E 0 9d 31 64
        E 215 87 52 66
        E 0 8e 4f 64
        E 0 88 40 64
        E 0 8d 31 64
        E 0 97 51 64
        E 0 9e 4d 64
        E 0 98 41 64
        E 0 9d 32 64
        E 646 8d 32 64
        E 0 9d 32 64
        E 216 87 51 64
        E 0 8e 4d 64
        E 0 88 41 64
        E 0 8d 32 64
        E 0 97 4d 64
        E 0 9e 4a 64
        E 0 98 39 64
        E 0 9d 32 64
        E 643 87 4d 64
        E 1 8e 4a 64
        E 0 8d 32 64
        E 1 97 4f 64
        E 0 9e 4c 64
        E 1 9d 32 64
        E 210 87 4f 64
        E 0 8e 4c 64
        E 0 8d 32 64
        E 0 97 51 64
        E 0 9e 4d 64
        E 0 9d 32 64
        E 431 88 39 64
        E 0 98 39 64
        E 215 87 51 64
        E 0 8e 4d 64
        E 0 8d 32 64
        E 0 97 4d 64
        E 0 9e 4a 64
        E 0 9d 32 64
        E 216 87 4d 64
        E 0 8e 4a 64
        E 0 88 39 64
        E 0 8d 32 64
        E 0 97 4b 66
        E 0 9e 48 64
        E 0 98 39 64
        E 0 9d 36 64
        E 644 87 4b 66
        E 0 8e 48 64
        E 0 88 39 64
        E 0 8d 36 64
        E 0 97 4a 64
        E 0 9e 46 66
        E 0 98 3a 66
        E 0 9d 36 64
        E 216 87 4a 64
        E 0 8e 46 66
        E 0 88 3a 66
        E 0 8d 36 64
        E 0 97 48 64
        E 0 9e 45 64
        E 0 98 3c 64
        E 0 9d 36 64
        E 643 87 48 64
        E 0 8e 45 64
        E 0 88 3c 64
        E 0 8d 36 64
        E 0 97 46 66
        E 0 9e 43 64
        E 0 98 3e 64
        E 0 9d 36 64
        E 218 87 46 66
        E 0 8e 43 64
        E 0 88 3e 64
        E 0 8d 36 64
        E 0 97 48 64
        E 0 9e 45 64
        E 0 98 3c 64
        E 0 9d 36 64
        E 642 87 48 64
        E 0 8e 45 64
        E 0 88 3c 64
        E 0 8d 36 64
        E 0 97 4a 64
        E 0 9e 46 66
        E 0 98 3b 64
        E 0 9d 36 64
        E 214 87 4a 64
        E 0 8e 46 66
        E 0 88 3b 64
        E 0 8d 36 64
        E 1 97 4b 66
        E 0 9e 48 64
        E 0 98 39 64
        E 0 9d 36 64
        E 644 8d 36 64
        E 0 9d 36 64
        E 216 88 39 64
        E 0 8d 36 64
        E 0 98 45 64
        E 0 9d 36 64
        E 646 8d 36 64
        E 1 9d 36 64
        E 215 8d 36 64
        E 0 9d 36 64
        E 643 8d 36 64
        E 0 9d 36 64
        E 214 87 4b 66
        E 0 8e 48 64
        E 0 88 45 64
        E 0 8d 36 64
        E 1 97 4a 64
        E 0 9e 47 64
        E 0 98 43 64
        E 0 9d 35 64
        E 643 87 4a 64
        E 0 8e 47 64
        E 0 8d 35 64
        E 0 97 48 64
        E 0 9e 45 64
        E 0 9d 35 64
        E 214 87 48 64
        E 0 8e 45 64
        E 0 8d 35 64
        E 0 97 4a 64
        E 0 9e 47 64
        E 0 9d 35 64
        E 646 87 4a 64
        E 0 8e 47 64
        E 0 8d 35 64
        E 1 97 47 64
        E 0 9e 43 64
        E 0 9d 35 64
        E 216 87 47 64
        E 0 8e 43 64
        E 0 8d 35 64
        E 0 97 48 64
        E 0 9e 45 64
        E 0 9d 35 64
        E 644 87 48 64
        E 3 8e 45 64
        E 0 8d 35 64
        E 1 97 4a 64
        E 0 9e 47 64
        E 0 9d 35 64
        E 212 87 4a 64
        E 0 8e 47 64
        E 18 88 43 64
        E 0 8d 35 64
        E 0 97 4c 64
        E 0 9e 48 64
        E 0 98 43 64
        E 0 9d 34 64
        E 626 87 4c 64
        E 0 8e 48 64
        E 0 8d 34 64
        E 0 97 4a 64
        E 1 9e 47 64
        E 0 9d 34 64
        E 215 87 4a 64
        E 0 8e 47 64
        E 0 8d 34 64
        E 1 97 4c 64
        E 0 9e 48 64
        E 0 9d 34 64
        E 641 87 4c 64
        E 0 8e 48 64
        E 0 8d 34 64
        E 0 97 4d 64
        E 0 9e 4a 64
        E 1 9d 34 64
        E 215 87 4d 64
        E 0 8e 4a 64
        E 0 88 43 64
        E 1 8d 34 64
        E 0 97 4f 64
        E 0 9e 4c 64
        E 0 98 40 64
        E 0 9d 34 64
        E 644 87 4f 64
        E 0 8e 4c 64
        E 0 8d 34 64
        E 0 97 4c 64
        E 0 9e 48 64
        E 1 9d 34 64
        E 213 87 4c 64
        E 0 8e 48 64
        E 0 88 40 64
        E 0 8d 34 64
        E 0 97 51 64
        E 0 9e 4d 64
        E 0 98 3c 64
        E 0 9d 33 66
        E 647 87 51 64
        E 0 8d 33 66
        E 0 97 52 66
        E 0 9d 33 66
        E 214 87 52 66
        E 0 8d 33 66
        E 0 97 51 64
        E 0 9d 33 66
        E 644 87 51 64
        E 0 8d 33 66
        E 0 97 4f 64
        E 0 9d 33 66
        E 215 87 4f 64
        E 0 8e 4d 64
        E 0 88 3c 64
        E 0 8d 33 66
        E 0 97 4d 64
        E 0 9e 46 66
        E 0 98 3e 64
        E 0 9d 32 64
        E 647 8d 32 64
        E 0 9d 32 64
        E 212 87 4d 64
        E 0 8e 46 66
        E 0 88 3e 64
        E 0 8d 32 64
        E 0 97 4d 64
        E 0 9e 46 66
        E 0 98 3e 64
        E 0 9d 2e 66
        E 644 87 4d 64
        E 0 88 3e 64
        E 0 8d 2e 66
        E 0 97 4f 64
        E 0 98 43 64
        E 0 9d 33 66
        E 215 87 4f 64
        E 0 8e 46 66
        E 0 88 43 64
        E 0 8d 33 66
        E 1 97 48 64
        E 0 9e 45 64
        E 0 98 41 64
        E 0 9d 35 64
        E 645 87 48 64
        E 0 8e 45 64
        E 0 8d 35 64
        E 0 97 4a 64
        E 0 9e 46 66
        E 0 9d 35 64
        E 215 87 4a 64
        E 0 8e 46 66
        E 0 8d 35 64
        E 0 97 4b 66
        E 0 9e 48 64
        E 0 9d 29 64
        E 645 87 4b 66
        E 0 8e 48 64
        E 0 8d 29 64
        E 0 97 4d 64
        E 0 9e 45 64
        E 0 9d 29 64
        E 215 87 4d 64
        E 0 8e 45 64
        E 0 88 41 64
        E 0 8d 29 64
        E 0 97 4a 64
        E 0 9e 46 66
        E 0 98 41 64
        E 0 9d 2e 66
        E 647 8d 2e 66
        E 0 9d 2e 66
        E 212 8d 2e 66
        E 0 9d 2e 66
        E 644 8d 2e 66
        E 1 9d 2e 66
        E 215 87 4a 64
        E 0 8e 46 66
        E 0 88 41 64
        E 0 8d 2e 66
        E 0 9d 2e 66
        E 645 8d 2e 66
        E 0 9d 2e 66
        E 215 8d 2e 66
        E 0 98 48 64
        E 0 9d 2d 64
        E 645 8d 2d 64
        E 0 9d 2d 64
        E 216 88 48 64
        E 0 8d 2d 64
        E 0 9e 4d 64
        E 0 98 45 64
        E 0 9d 2d 64
        E 644 8d 2d 64
        E 1 9d 2d 64
        E 215 88 45 64
        E 1 8d 2d 64
        E 0 98 41 64
        E 0 9d 2d 64
        E 642 8d 2d 64
        E 0 9d 2d 64
        E 216 8e 4d 64
        E 0 88 41 64
        E 0 8d 2d 64
        E 0 9e 4d 64
        E 0 98 4a 64
        E 0 9d 2b 64
        E 642 8d 2b 64
        E 0 9d 2b 64
        E 220 8e 4d 64
        E 0 88 4a 64
        E 0 8d 2b 64
        E 0 9e 43 64
        E 0 98 46 66
        E 0 9d 2b 64
        E 640 8d 2b 64
        E 0 9d 2b 64
        E 216 8e 43 64
        E 0 88 46 66
        E 0 8d 2b 64
        E 0 9e 4b 66
        E 1 98 43 64
        E 0 9d 2b 64
        E 646 8d 2b 64
        E 0 9d 2b 64
        E 214 8e 4b 66
        E 0 88 43 64
        E 0 8d 2b 64
        E 0 9e 4b 66
        E 0 98 48 64
        E 0 9d 29 64
        E 644 8d 29 64
        E 0 9d 29 64
        E 215 8e 4b 66
        E 0 88 48 64
        E 0 8d 29 64
        E 0 9e 41 64
        E 0 98 45 64
        E 0 9d 29 64
        E 645 8d 29 64
        E 0 9d 29 64
        E 214 8e 41 64
        E 0 88 45 64
        E 0 8d 29 64
        E 0 9e 4a 64
        E 0 98 41 64
        E 0 9d 29 64
        E 644 8d 29 64
        E 1 9d 29 64
        E 215 8e 4a 64
        E 0 88 41 64
        E 0 8d 29 64
        E 0 9e 4a 64
        E 0 98 46 66
        E 1 9d 33 66
        E 644 8d 33 66
        E 1 9d 33 66
        E 214 8e 4a 64
        E 0 88 46 66
        E 0 8d 33 66
        E 0 9e 3f 66
        E 0 98 43 64
        E 0 9d 33 66
        E 644 8d 33 66
        E 0 9d 33 66
        E 215 8e 3f 66
        E 0 88 43 64
        E 0 8d 33 66
        E 0 9e 48 64
        E 0 98 3f 66
        E 0 9d 33 66
        E 645 8d 33 66
        E 0 9d 33 66
        E 214 8e 48 64
        E 0 88 3f 66
        E 0 8d 33 66
        E 0 9e 48 64
        E 0 98 45 64
        E 0 9d 32 64
        E 646 8d 32 64
        E 0 9d 32 64
        E 215 8e 48 64
        E 0 88 45 64
        E 0 8d 32 64
        E 0 9e 3e 64
        E 0 98 41 64
        E 0 9d 32 64
        E 644 8d 32 64
        E 0 9d 32 64
        E 218 8e 3e 64
        E 0 88 41 64
        E 0 8d 32 64
        E 0 9e 46 66
        E 0 98 3e 64
        E 0 9d 32 64
        E 643 8d 32 64
        E 0 9d 32 64
        E 213 8e 46 66
        E 0 88 3e 64
        E 0 8d 32 64
        E 0 9e 46 66
        E 0 98 3f 66
        E 0 9d 30 64
        E 645 88 3f 66
        E 0 8d 30 64
        E 0 98 3e 64
        E 0 9d 30 64
        E 215 8e 46 66
        E 0 88 3e 64
        E 0 8d 30 64
        E 0 9e 45 64
        E 0 98 3f 66
        E 0 9d 30 64
        E 647 88 3f 66
        E 0 8d 30 64
        E 0 98 3c 64
        E 0 9d 30 64
        E 213 88 3c 64
        E 0 8d 30 64
        E 0 98 3e 64
        E 0 9d 30 64
        E 647 88 3e 64
        E 0 8d 30 64
        E 0 98 3f 66
        E 0 9d 30 64
        E 214 8e 45 64
        E 0 88 3f 66
        E 0 8d 30 64
        E 0 97 4d 64
        E 0 98 3e 64
        E 0 9d 2e 66
        E 429 88 3e 64
        E 1 98 3c 64
        E 215 87 4d 64
        E 0 88 3c 64
        E 0 8d 2e 66
        E 0 97 4f 64
        E 0 98 3a 66
        E 0 9d 33 66
        E 213 87 4f 64
        E 0 88 3a 66
        E 0 8d 33 66
        E 1 97 48 64
        E 0 9e 4d 64
        E 0 98 39 64
        E 0 9d 35 64
        E 644 87 48 64
        E 0 8d 35 64
        E 0 97 4a 64
        E 0 9d 35 64
        E 217 87 4a 64
        E 1 8d 35 64
        E 0 97 4b 66
        E 0 9d 29 64
        E 428 88 39 64
        E 1 98 39 64
        E 214 87 4b 66
        E 0 8d 29 64
        E 0 97 4d 64
        E 0 9d 29 64
        E 214 87 4d 64
        E 0 8e 4d 64
        E 0 88 39 64
        E 0 8d 29 64
        E 0 97 4a 64
        E 0 9e 4d 64
        E 0 98 3a 66
        E 0 9d 2e 66
        E 645 87 4a 64
        E 0 8d 2e 66
        E 0 97 48 64
        E 0 9d 2d 64
        E 216 87 48 64
        E 0 8d 2d 64
        E 0 97 4a 64
        E 0 9d 2e 66
        E 430 8e 4d 64
        E 0 9e 4c 64
        E 216 87 4a 64
        E 0 8d 2e 66
        E 0 97 4c 64
        E 1 9d 30 64
        E 214 87 4c 64
        E 0 8e 4c 64
        E 0 8d 30 64
        E 1 97 4d 64
        E 0 9e 4a 64
        E 0 9d 32 64
        E 642 87 4d 64
        E 0 8d 32 64
        E 1 97 4f 64
        E 0 9d 34 64
        E 214 87 4f 64
        E 0 8e 4a 64
        E 0 88 3a 66
        E 0 8d 34 64
        E 0 97 51 64
        E 0 9e 48 64
        E 0 9d 35 64
        E 645 8d 35 64
        E 0 9d 34 64
        E 215 87 51 64
        E 0 8d 34 64
        E 0 97 4d 64
        E 1 98 41 64
        E 0 9d 35 64
        E 644 8d 35 64
        E 0 9d 37 64
        E 216 87 4d 64
        E 0 8e 48 64
        E 0 8d 37 64
        E 0 9d 39 64
        E 643 8d 39 64
        E 1 9d 3a 66
        E 215 88 41 64
        E 0 8d 3a 66
        E 0 97 4f 64
        E 0 98 41 64
        E 0 9d 3c 64
        E 643 8d 3c 64
        E 0 9d 30 64
        E 216 88 41 64
        E 0 8d 30 64
        E 0 98 40 64
        E 0 9d 30 64
        E 645 8d 30 64
        E 0 9d 30 64
        E 214 8d 30 64
        E 0 9d 32 64
        E 645 8d 32 64
        E 0 9d 34 64
        E 215 87 4f 64
        E 0 88 40 64
        E 0 8d 34 64
        E 0 97 51 64
        E 0 98 40 64
        E 0 9d 35 64
        E 646 8d 35 64
        E 1 9d 35 64
        E 213 87 51 64
        E 0 88 40 64
        E 0 8d 35 64
        E 0 97 51 64
        E 1 98 3e 64
        E 0 9d 35 64
        E 643 8d 35 64
        E 0 9d 35 64
        E 216 87 51 64
        E 0 8d 35 64
        E 0 97 51 64
        E 0 9d 35 64
        E 643 87 51 64
        E 0 8d 35 64
        E 0 97 52 66
        E 0 9d 35 64
        E 217 87 52 66
        E 0 88 3e 64
        E 0 8d 35 64
        E 0 97 4f 64
        E 0 98 3e 64
        E 0 9d 34 64
        E 643 8d 34 64
        E 0 9d 34 64
        E 217 87 4f 64
        E 0 88 3e 64
        E 0 8d 34 64
        E 0 97 4f 64
        E 0 98 3c 64
        E 0 9d 39 64
        E 643 8d 39 64
        E 1 9d 37 64
        E 216 87 4f 64
        E 0 8d 37 64
        E 0 97 4f 64
        E 0 9d 39 64
        E 641 87 4f 64
        E 0 8d 39 64
        E 0 97 51 64
        E 0 9d 2d 64
        E 216 87 51 64
        E 0 88 3c 64
        E 0 8d 2d 64
        E 0 97 4d 64
        E 0 98 3c 64
        E 0 9d 32 64
        E 646 8d 32 64
        E 0 9d 32 64
        E 214 87 4d 64
        E 0 88 3c 64
        E 0 8d 32 64
        E 0 97 4d 64
        E 0 98 3a 66
        E 0 9d 37 64
        E 646 8d 37 64
        E 0 9d 35 64
        E 216 87 4d 64
        E 0 8d 35 64
        E 0 97 4d 64
        E 0 9d 37 64
        E 643 87 4d 64
        E 0 8d 37 64
        E 0 97 4f 64
        E 0 9d 2b 64
        E 218 87 4f 64
        E 0 88 3a 66
        E 0 8d 2b 64
        E 0 97 4c 64
        E 0 98 3a 66
        E 0 9d 30 64
        E 644 8d 30 64
        E 0 9d 30 64
        E 211 87 4c 64
        E 0 88 3a 66
        E 0 8d 30 64
        E 0 97 48 64
        E 0 98 39 64
        E 1 9d 35 64
        E 646 8d 35 64
        E 0 9d 34 64
        E 215 87 48 64
        E 0 8d 34 64
        E 0 97 4d 64
        E 0 9d 35 64
        E 645 8d 35 64
        E 0 9d 39 64
        E 216 87 4d 64
        E 0 88 39 64
        E 0 8d 39 64
        E 0 97 4a 64
        E 0 98 39 64
        E 0 9d 3a 66
        E 644 87 4a 64
        E 0 8d 3a 66
        E 0 97 48 64
        E 0 9d 39 64
        E 214 87 48 64
        E 0 88 39 64
        E 0 8d 39 64
        E 0 97 4a 64
        E 0 98 37 64
        E 0 9d 3a 66
        E 645 87 4a 64
        E 0 8d 3a 66
        E 1 97 46 66
        E 0 9d 37 64
        E 213 87 46 66
        E 0 88 37 64
        E 0 8d 37 64
        E 0 97 48 64
        E 0 98 43 64
        E 0 9d 39 64
        E 646 87 48 64
        E 0 8d 39 64
        E 0 97 4a 64
        E 0 9d 3a 66
        E 213 87 4a 64
        E 0 88 43 64
        E 0 8d 3a 66
        E 0 97 48 64
        E 0 98 3c 64
        E 0 9d 39 64
        E 647 87 48 64
        E 0 8d 39 64
        E 0 97 4d 64
        E 0 9d 35 64
        E 214 87 4d 64
        E 0 8d 35 64
        E 0 97 4c 64
        E 0 9d 30 64
        E 645 87 4c 64
        E 0 97 4d 64
        E 217 87 4d 64
        E 0 8d 30 64
        E 0 97 4f 64
        E 0 9d 30 64
        E 644 87 4f 64
        E 0 97 4c 64
        E 214 87 4c 64
        E 0 88 3c 64
        E 0 8d 30 64
        E 0 97 51 64
        E 0 9e 4d 64
        E 0 98 3c 64
        E 0 9d 29 64
        E 643 8d 29 64
        E 0 9d 35 64
        E 215 8d 35 64
        E 0 9d 35 64
        E 646 8d 35 64
        E 0 9d 35 64
        E 215 88 3c 64
        E 0 8d 35 64
        E 0 98 41 64
        E 0 9d 35 64
        E 647 8d 35 64
        E 0 9d 35 64
        E 213 87 51 64
        E 0 8e 4d 64
        E 0 88 41 64
        E 0 8d 35 64
        E 0 97 51 64
        E 0 9e 4a 64
        E 0 98 41 64
        E 0 9d 3a 66
        E 646 8d 3a 66
        E 0 9d 39 64
        E 213 8d 39 64
        E 1 9d 3a 66
        E 643 8d 3a 66
        E 0 9d 37 64
        E 215 88 41 64
        E 0 8d 37 64
        E 0 98 3e 64
        E 0 9d 39 64
        E 645 8d 39 64
        E 0 9d 3a 66
        E 216 87 51 64
        E 0 8e 4a 64
        E 0 88 3e 64
        E 0 8d 3a 66
        E 0 97 4f 64
        E 0 9e 4a 64
        E 0 98 46 66
        E 0 9d 34 64
        E 643 8d 34 64
        E 0 9d 34 64
        E 217 8d 34 64
        E 0 9d 34 64
        E 646 8d 34 64
        E 0 9d 34 64
        E 213 88 46 66
        E 0 8d 34 64
        E 0 98 43 64
        E 0 9d 34 64
        E 644 8d 34 64
        E 0 9d 34 64
        E 216 87 4f 64
        E 0 8e 4a 64
        E 0 88 43 64
        E 0 8d 34 64
        E 0 97 4f 64
        E 0 9e 48 64
        E 0 98 40 64
        E 0 9d 39 64
        E 644 8d 39 64
        E 0 9d 37 64
        E 216 8d 37 64
        E 0 9d 39 64
        E 644 8d 39 64
        E 0 9d 35 64
        E 215 88 40 64
        E 0 8d 35 64
        E 0 98 3c 64
        E 0 9d 37 64
        E 646 8d 37 64
        E 0 9d 39 64
        E 214 87 4f 64
        E 0 8e 48 64
        E 0 88 3c 64
        E 0 8d 39 64
        E 0 97 4d 64
        E 0 9e 48 64
        E 0 98 45 64
        E 0 9d 32 64
        E 643 8d 32 64
        E 0 9d 32 64
        E 217 8d 32 64
        E 0 9d 32 64
        E 643 8d 32 64
        E 1 9d 32 64
        E 215 8d 32 64
        E 0 9d 32 64
        E 646 8d 32 64
        E 1 9d 32 64
        E 214 87 4d 64
        E 0 8e 48 64
        E 0 88 45 64
        E 0 8d 32 64
        E 0 97 4f 64
        E 0 9e 48 64
        E 0 98 43 64
        E 0 9d 34 64
        E 643 8d 34 64
        E 1 9d 34 64
        E 215 88 43 64
        E 0 8d 34 64
        E 0 98 40 64
        E 0 9d 34 64
        E 644 8d 34 64
        E 1 9d 34 64
        E 213 87 4f 64
        E 0 8e 48 64
        E 0 88 40 64
        E 0 8d 34 64
        E 0 97 51 64
        E 1 9e 4d 64
        E 0 98 3c 64
        E 0 9d 35 64
        E 644 8d 35 64
        E 1 9d 35 64
        E 214 87 51 64
        E 0 8e 4d 64
        E 0 88 3c 64
        E 0 8d 35 64
        E 0 97 51 64
        E 1 9e 4d 64
        E 0 98 3e 64
        E 0 9d 2f 64
        E 645 87 51 64
        E 0 8e 4d 64
        E 0 8d 2f 64
        E 1 97 4f 64
        E 0 9e 4c 64
        E 0 9d 2f 64
        E 216 87 4f 64
        E 0 8e 4c 64
        E 0 8d 2f 64
        E 0 97 4d 64
        E 0 9e 4a 64
        E 1 9d 2f 64
        E 641 87 4d 64
        E 0 8e 4a 64
        E 0 8d 2f 64
        E 0 97 4f 64
        E 0 9e 4c 64
        E 0 9d 2f 64
        E 216 87 4f 64
        E 0 8e 4c 64
        E 0 8d 2f 64
        E 0 97 51 64
        E 0 9e 4d 64
        E 0 9d 2f 64
        E 644 8d 2f 64
        E 1 9d 2f 64
        E 215 87 51 64
        E 0 8e 4d 64
        E 0 88 3e 64
        E 0 8d 2f 64
        E 0 97 51 64
        E 0 9e 4d 64
        E 0 98 3c 64
        E 0 9d 30 64
        E 643 87 51 64
        E 0 8e 4d 64
        E 0 8d 30 64
        E 0 97 4f 64
        E 0 9e 4c 64
        E 0 9d 30 64
        E 215 87 4f 64
        E 0 8e 4c 64
        E 0 8d 30 64
        E 0 97 51 64
        E 0 9e 4d 64
        E 0 9d 30 64
        E 646 87 51 64
        E 0 8e 4d 64
        E 0 8d 30 64
        E 0 97 4d 64
        E 0 9e 48 64
        E 0 9d 30 64
        E 217 87 4d 64
        E 0 8e 48 64
        E 0 8d 30 64
        E 0 97 4f 64
        E 0 9e 4c 64
        E 0 9d 30 64
        E 642 87 4f 64
        E 0 8e 4c 64
        E 0 8d 30 64
        E 0 97 51 64
        E 0 9e 4d 64
        E 1 9d 30 64
        E 215 87 51 64
        E 0 8e 4d 64
        E 0 88 3c 64
        E 0 8d 30 64
        E 0 97 4f 64
        E 0 9e 4c 64
        E 0 98 3c 64
        E 0 9d 30 64
        E 646 87 4f 64
        E 0 8e 4c 64
        E 0 8d 30 64
        E 0 97 4d 64
        E 0 9e 4a 64
        E 0 9d 30 64
        E 216 87 4d 64
        E 0 8e 4a 64
        E 0 8d 30 64
        E 0 97 4f 64
        E 0 9e 4c 64
        E 0 9d 30 64
        E 641 87 4f 64
        E 0 8e 4c 64
        E 0 8d 30 64
        E 0 97 4c 64
        E 0 9e 48 64
        E 0 9d 30 64
        E 214 87 4c 64
        E 0 8e 48 64
        E 0 8d 30 64
        E 0 97 4d 64
        E 0 9e 4a 64
        E 0 9d 30 64
        E 645 87 4d 64
        E 0 8e 4a 64
        E 0 8d 30 64
        E 1 97 4f 64
        E 0 9e 4c 64
        E 0 9d 30 64
        E 216 87 4f 64
        E 0 8e 4c 64
        E 0 88 3c 64
        E 0 8d 30 64
        E 0 97 51 64
        E 1 9e 4d 64
        E 0 98 48 64
        E 1 9d 35 64
        E 643 87 51 64
        E 0 8d 35 64
        E 0 97 52 66
        E 1 9d 35 64
        E 214 87 52 66
        E 0 8e 4d 64
        E 0 88 48 64
        E 0 8d 35 64
        E 0 97 51 64
        E 1 9e 4a 64
        E 0 98 45 64
        E 0 9d 35 64
        E 642 87 51 64
        E 0 8d 35 64
        E 0 97 4f 64
        E 1 9d 35 64
        E 217 87 4f 64
        E 0 88 45 64
        E 0 8d 35 64
        E 0 97 51 64
        E 0 98 41 64
        E 0 9d 35 64
        E 642 87 51 64
        E 0 8d 35 64
        E 0 97 4d 64
        E 0 9d 35 64
        E 216 87 4d 64
        E 0 8e 4a 64
        E 0 88 41 64
        E 0 8d 35 64
        E 0 97 4f 64
        E 0 9e 4a 64
        E 0 98 46 66
        E 0 9d 34 64
        E 643 87 4f 64
        E 1 8d 34 64
        E 0 97 51 64
        E 0 9d 34 64
        E 214 87 51 64
        E 0 8e 4a 64
        E 0 88 46 66
        E 0 8d 34 64
        E 0 97 4f 64
        E 1 9e 48 64
        E 0 98 43 64
        E 0 9d 34 64
        E 646 87 4f 64
        E 0 8d 34 64
        E 0 97 4d 64
        E 1 9d 34 64
        E 215 87 4d 64
        E 0 88 43 64
        E 0 8d 34 64
        E 0 97 4f 64
        E 0 98 40 64
        E 0 9d 34 64
        E 644 87 4f 64
        E 0 8d 34 64
        E 1 97 4c 64
        E 0 9d 34 64
        E 214 87 4c 64
        E 0 8e 48 64
        E 0 88 40 64
        E 0 8d 34 64
        E 0 97 4d 64
        E 1 9e 48 64
        E 0 98 45 64
        E 0 9d 32 64
        E 643 87 4d 64
        E 0 8d 32 64
        E 0 97 4f 64
        E 0 9d 32 64
        E 214 87 4f 64
        E 0 8e 48 64
        E 0 88 45 64
        E 0 8d 32 64
        E 0 97 4d 64
        E 0 9e 46 66
        E 0 98 41 64
        E 0 9d 32 64
        E 645 87 4d 64
        E 0 8d 32 64
        E 0 97 4c 64
        E 0 9d 32 64
        E 216 87 4c 64
        E 0 88 41 64
        E 2 8d 32 64
        E 0 97 4d 64
        E 0 98 3e 64
        E 0 9d 32 64
        E 642 87 4d 64
        E 0 8d 32 64
        E 1 97 4a 64
        E 0 9d 32 64
        E 216 87 4a 64
        E 0 8e 46 66
        E 0 88 3e 64
        E 0 8d 32 64
        E 0 97 4c 64
        E 0 9e 46 66
        E 0 98 43 64
        E 0 9d 30 64
        E 642 87 4c 64
        E 0 8d 30 64
        E 1 97 4d 64
        E 0 9d 30 64
        E 215 87 4d 64
        E 0 88 43 64
        E 0 8d 30 64
        E 0 97 4f 64
        E 0 98 40 64
        E 0 9d 30 64
        E 644 87 4f 64
        E 0 8d 30 64
        E 0 97 4c 64
        E 1 9d 30 64
        E 214 87 4c 64
        E 0 8e 46 66
        E 1 88 40 64
        E 0 8d 30 64
        E 1 97 4d 64
        E 0 9e 45 64
        E 0 98 3c 64
        E 0 9d 35 64
        E 641 8d 35 64
        E 1 9d 35 64
        E 217 87 4d 64
        E 0 8e 45 64
        E 0 88 3c 64
        E 0 8d 35 64
        E 0 97 4d 64
        E 0 9e 45 64
        E 0 98 3e 64
        E 0 9d 2e 66
        E 643 87 4d 64
        E 0 8d 2e 66
        E 0 97 4f 64
        E 0 9d 2e 66
        E 215 87 4f 64
        E 0 8e 45 64
        E 0 88 3e 64
        E 0 8d 2e 66
        E 0 97 4c 64
        E 0 9e 43 64
        E 0 98 40 64
        E 0 9d 30 64
        E 646 87 4c 64
        E 0 8e 43 64
        E 0 8d 30 64
        E 1 97 4d 64
        E 0 9e 45 64
        E 0 9d 30 64
        E 214 87 4d 64
        E 0 8e 45 64
        E 0 88 40 64
        E 0 8d 30 64
        E 1 97 4f 64
        E 0 9e 46 66
        E 0 98 3c 64
        E 0 9d 30 64
        E 645 87 4f 64
        E 0 8e 46 66
        E 0 8d 30 64
        E 0 97 4c 64
        E 0 9e 43 64
        E 0 9d 30 64
        E 216 87 4c 64
        E 0 8e 43 64
        E 0 88 3c 64
        E 0 8d 30 64
        E 0 97 4d 64
        E 0 9e 45 64
        E 0 98 3c 64
        E 0 9d 29 64
        E 642 8d 29 64
        E 0 9d 29 64
        E 217 87 4d 64
        E 0 8e 45 64
        E 0 8d 29 64
        E 1 97 51 64
        E 0 9e 4d 64
        E 0 9d 29 64
        E 641 87 51 64
        E 0 8e 4d 64
        E 0 8d 29 64
        E 1 97 52 66
        E 0 9e 4f 64
        E 0 9d 29 64
        E 214 87 52 66
        E 0 8e 4f 64
        E 0 8d 29 64
        E 1 97 54 64
        E 0 9e 51 64
        E 0 9d 29 64
        E 645 87 54 64
        E 0 8e 51 64
        E 0 8d 29 64
        E 1 97 52 66
        E 0 9e 4f 64
        E 0 9d 29 64
        E 213 87 52 66
        E 0 8e 4f 64
        E 0 88 3c 64
        E 0 8d 29 64
        E 0 97 51 64
        E 0 9e 4d 64
        E 0 98 48 64
        E 0 9d 35 64
        E 646 87 51 64
        E 0 8d 35 64
        E 0 97 52 66
        E 0 9d 35 64
        E 214 87 52 66
        E 0 8e 4d 64
        E 0 88 48 64
        E 0 8d 35 64
        E 0 97 51 64
        E 0 9e 4a 64
        E 0 98 45 64
        E 0 9d 35 64
        E 644 87 51 64
        E 0 8d 35 64
        E 0 97 4f 64
        E 1 9d 35 64
        E 215 87 4f 64
        E 0 88 45 64
        E 0 8d 35 64
        E 0 97 51 64
        E 0 98 41 64
        E 0 9d 35 64
        E 643 87 51 64
        E 1 8d 35 64
        E 0 97 4d 64
        E 0 9d 35 64
        E 215 87 4d 64
        E 0 8e 4a 64
        E 0 88 41 64
        E 0 8d 35 64
        E 0 97 4f 64
        E 0 9e 4a 64
        E 0 98 46 66
        E 0 9d 34 64
        E 646 87 4f 64
        E 0 8d 34 64
        E 0 97 51 64
        E 1 9d 34 64
        E 212 87 51 64
        E 0 8e 4a 64
        E 0 88 46 66
        E 0 8d 34 64
        E 0 97 4f 64
        E 0 9e 48 64
        E 0 98 43 64
        E 0 9d 34 64
        E 647 87 4f 64
        E 1 8d 34 64
        E 1 97 4d 64
        E 1 9d 34 64
        E 211 87 4d 64
        E 0 88 43 64
        E 0 8d 34 64
        E 0 97 4f 64
        E 0 98 40 64
        E 0 9d 34 64
        E 645 87 4f 64
        E 0 8d 34 64
        E 0 97 4c 64
        E 0 9d 34 64
        E 213 87 4c 64
        E 0 8e 48 64
        E 0 88 40 64
        E 0 8d 34 64
        E 0 97 4d 64
        E 0 9e 48 64
        E 0 98 45 64
        E 0 9d 32 64
        E 646 87 4d 64
        E 0 8d 32 64
        E 1 97 4f 64
        E 0 9d 32 64
        E 214 87 4f 64
        E 0 8e 48 64
        E 0 88 45 64
        E 0 8d 32 64
        E 0 97 4d 64
        E 0 9e 46 66
        E 0 98 41 64
        E 0 9d 32 64
        E 645 87 4d 64
        E 0 8d 32 64
        E 0 97 4c 64
        E 0 9d 32 64
        E 216 87 4c 64
        E 0 88 41 64
        E 0 8d 32 64
        E 0 97 4d 64
        E 0 98 3e 64
        E 0 9d 32 64
        E 644 87 4d 64
        E 0 8d 32 64
        E 0 97 4a 64
        E 1 9d 32 64
        E 215 87 4a 64
        E 0 8e 46 66
        E 0 88 3e 64
        E 0 8d 32 64
        E 0 97 4c 64
        E 0 9e 46 66
        E 0 98 43 64
        E 0 9d 30 64
        E 642 87 4c 64
        E 0 8d 30 64
        E 1 97 4d 64
        E 0 9d 30 64
        E 215 87 4d 64
        E 0 88 43 64
        E 0 8d 30 64
        E 0 97 4f 64
        E 0 98 40 64
        E 0 9d 30 64
        E 644 87 4f 64
        E 0 8d 30 64
        E 0 97 4c 64
        E 0 9d 30 64
        E 216 87 4c 64
        E 0 8e 46 66
        E 0 88 40 64
        E 0 8d 30 64
        E 0 97 4d 64
        E 0 9e 45 64
        E 0 98 3c 64
        E 0 9d 35 64
        E 645 8d 35 64
        E 0 9d 35 64
        E 214 87 4d 64
        E 0 8e 45 64
        E 0 88 3c 64
        E 0 8d 35 64
        E 0 97 4d 64
        E 0 9e 45 64
        E 0 98 3e 64
        E 1 9d 2e 66
        E 645 87 4d 64
        E 0 8d 2e 66
        E 0 97 4f 64
        E 1 9d 2e 66
        E 214 87 4f 64
        E 0 8e 45 64
        E 0 88 3e 64
        E 1 8d 2e 66
        E 0 97 4c 64
        E 0 9e 43 64
        E 0 98 40 64
        E 0 9d 30 64
        E 643 87 4c 64
        E 0 8e 43 64
        E 0 8d 30 64
        E 0 97 4d 64
        E 0 9e 45 64
        E 0 9d 30 64
        E 214 87 4d 64
        E 0 8e 45 64
        E 0 88 40 64
        E 0 8d 30 64
        E 0 97 4f 64
        E 0 9e 46 66
        E 0 98 3c 64
        E 0 9d 24 64
        E 645 87 4f 64
        E 0 8e 46 66
        E 0 8d 24 64
        E 0 97 4c 64
        E 0 9e 43 64
        E 0 9d 24 64
        E 215 87 4c 64
        E 1 8e 43 64
        E 0 88 3c 64
        E 0 8d 24 64
        E 0 97 4d 64
        E 0 9e 45 64
        E 0 98 3c 64
        E 0 9d 29 64
        E 643 8d 29 64
        E 1 9d 35 64
        E 215 87 4d 64
        E 0 8e 45 64
        E 0 88 3c 64
        E 0 8d 35 64
        E 0 97 41 64
        E 0 98 39 64
        E 0 9d 35 64
        E 645 87 41 64
        E 0 88 39 64
        E 0 8d 35 64
        E 0 97 43 64
        E 0 98 39 64
        E 0 9d 35 64
        E 215 87 43 64
        E 0 88 39 64
        E 0 8d 35 64
        E 0 97 45 64
        E 0 98 39 64
        E 0 9d 35 64
        E 647 87 45 64
        E 1 88 39 64
        E 0 8d 35 64
        E 0 97 46 66
        E 0 98 39 64
        E 0 9d 35 64
        E 211 87 46 66
        E 0 88 39 64
        E 0 8d 35 64
        E 0 97 48 64
        E 0 98 37 64
        E 0 9d 34 64
        E 646 87 48 64
        E 0 88 37 64
        E 0 8d 34 64
        E 0 97 46 66
        E 0 98 37 64
        E 0 9d 34 64
        E 215 87 46 66
        E 0 88 37 64
        E 0 8d 34 64
        E 0 97 48 64
        E 0 9e 4f 64
        E 0 98 37 64
        E 0 9d 34 64
        E 646 87 48 64
        E 0 88 37 64
        E 0 8d 34 64
        E 0 97 4a 64
        E 0 98 37 64
        E 0 9d 34 64
        E 214 87 4a 64
        E 0 8e 4f 64
        E 1 88 37 64
        E 0 8d 34 64
        E 1 97 4c 64
        E 1 9e 54 64
        E 0 98 43 64
        E 0 9d 34 64
        E 641 87 4c 64
        E 0 88 43 64
        E 0 8d 34 64
        E 0 97 48 64
        E 0 98 43 64
        E 0 9d 34 64
        E 216 87 48 64
        E 0 8e 54 64
        E 0 88 43 64
        E 0 8d 34 64
        E 0 97 4d 64
        E 0 9e 54 64
        E 0 98 45 64
        E 0 9d 32 64
        E 645 87 4d 64
        E 0 88 45 64
        E 0 8d 32 64
        E 0 97 4c 64
        E 0 98 45 64
        E 0 9d 32 64
        E 214 87 4c 64
        E 0 8e 54 64
        E 0 88 45 64
        E 0 8d 32 64
        E 0 97 4d 64
        E 0 9e 52 66
        E 0 98 41 64
        E 0 9d 32 64
        E 643 87 4d 64
        E 0 88 41 64
        E 0 8d 32 64
        E 0 97 4f 64
        E 0 98 41 64
        E 0 9d 32 64
        E 216 87 4f 64
        E 0 88 41 64
        E 0 8d 32 64
        E 0 97 51 64
        E 0 98 3e 64
        E 0 9d 32 64
        E 646 87 51 64
        E 0 88 3e 64
        E 0 8d 32 64
        E 0 97 52 66
        E 0 98 3e 64
        E 0 9d 32 64
        E 215 87 52 66
        E 0 8e 52 66
        E 0 88 3e 64
        E 0 8d 32 64
        E 0 97 54 64
        E 0 98 40 64
        E 0 9d 30 64
        E 643 88 40 64
        E 0 8d 30 64
        E 0 98 40 64
        E 0 9d 30 64
        E 216 87 54 64
        E 0 88 40 64
        E 0 8d 30 64
        E 0 97 48 64
        E 1 9e 4c 64
        E 0 98 45 64
        E 0 9d 30 64
        E 644 88 45 64
        E 1 8d 30 64
        E 1 98 45 64
        E 0 9d 30 64
        E 213 87 48 64
        E 0 8e 4c 64
        E 0 88 45 64
        E 0 8d 30 64
        E 0 97 48 64
        E 0 9e 51 64
        E 0 98 40 64
        E 0 9d 30 64
        E 643 88 40 64
        E 0 8d 30 64
        E 0 98 40 64
        E 0 9d 30 64
        E 215 87 48 64
        E 0 8e 51 64
        E 0 88 40 64
        E 0 8d 30 64
        E 0 97 4a 64
        E 0 9e 51 64
        E 0 98 41 64
        E 0 9d 2e 66
        E 647 88 41 64
        E 0 8d 2e 66
        E 0 98 41 64
        E 0 9d 2e 66
        E 214 87 4a 64
        E 0 8e 51 64
        E 0 88 41 64
        E 0 8d 2e 66
        E 0 97 46 66
        E 0 9e 4f 64
        E 0 98 3e 64
        E 0 9d 2e 66
        E 646 87 46 66
        E 0 88 3e 64
        E 0 8d 2e 66
        E 1 97 48 64
        E 0 98 3e 64
        E 0 9d 2e 66
        E 212 87 48 64
        E 0 88 3e 64
        E 0 8d 2e 66
        E 0 97 4a 64
        E 0 98 3a 66
        E 0 9d 2e 66
        E 646 87 4a 64
        E 0 88 3a 66
        E 0 8d 2e 66
        E 0 97 4c 64
        E 0 98 3a 66
        E 0 9d 2e 66
        E 215 87 4c 64
        E 0 8e 4f 64
        E 0 88 3a 66
        E 0 8d 2e 66
        E 0 97 4d 64
        E 0 98 3c 64
        E 0 9d 2d 64
        E 643 87 4d 64
        E 0 88 3c 64
        E 0 8d 2d 64
        E 0 97 4c 64
        E 0 98 3c 64
        E 1 9d 2d 64
        E 215 87 4c 64
        E 0 88 3c 64
        E 0 8d 2d 64
        E 1 97 4d 64
        E 0 9e 48 64
        E 0 98 3c 64
        E 0 9d 2d 64
        E 643 87 4d 64
        E 0 88 3c 64
        E 0 8d 2d 64
        E 0 97 4f 64
        E 0 98 3c 64
        E 0 9d 2d 64
        E 216 87 4f 64
        E 0 8e 48 64
        E 0 88 3c 64
        E 0 8d 2d 64
        E 0 97 51 64
        E 0 9e 4d 64
        E 0 98 3c 64
        E 0 9d 2d 64
        E 643 87 51 64
        E 0 88 3c 64
        E 1 8d 2d 64
        E 0 97 4d 64
        E 0 98 3c 64
        E 0 9d 2d 64
        E 215 87 4d 64
        E 0 8e 4d 64
        E 0 88 3c 64
        E 0 8d 2d 64
        E 0 97 52 66
        E 0 9e 4d 64
        E 0 98 3e 64
        E 0 9d 2b 64
        E 645 87 52 66
        E 0 88 3e 64
        E 0 8d 2b 64
        E 0 97 51 64
        E 0 98 3e 64
        E 1 9d 2b 64
        E 214 87 51 64
        E 0 8e 4d 64
        E 0 88 3e 64
        E 0 8d 2b 64
        E 0 97 52 66
        E 0 9e 4c 64
        E 0 98 43 64
        E 0 9d 2b 64
        E 643 87 52 66
        E 1 88 43 64
        E 0 8d 2b 64
        E 0 97 4f 64
        E 0 98 43 64
        E 0 9d 2b 64
        E 216 87 4f 64
        E 0 88 43 64
        E 0 8d 2b 64
        E 0 97 51 64
        E 0 98 3a 66
        E 0 9d 2b 64
        E 644 87 51 64
        E 0 88 3a 66
        E 0 8d 2b 64
        E 0 97 52 66
        E 0 98 3a 66
        E 0 9d 2b 64
        E 215 87 52 66
        E 4 8e 4c 64
        E 0 88 3a 66
        E 0 8d 2b 64
        E 0 97 51 64
        E 0 9e 4d 64
        E 0 98 3c 64
        E 0 9d 29 64
        E 640 87 51 64
        E 0 8e 4d 64
        E 0 88 3c 64
        E 0 8d 29 64
        E 0 97 4d 64
        E 0 9e 4a 64
        E 0 98 3e 64
        E 1 9d 2e 66
        E 215 87 4d 64
        E 0 8e 4a 64
        E 0 88 3e 64
        E 0 8d 2e 66
        E 0 97 4c 64
        E 0 9e 43 64
        E 0 98 3c 64
        E 0 9d 30 64
        E 862 8d 30 64
        E 0 9d 24 64
        E 428 87 4c 64
        E 0 8e 43 64
        E 0 88 3c 64
        E 0 97 4d 64
        E 0 9e 48 64
        E 0 98 3c 64
        E 429 87 4d 64
        E 0 8e 48 64
        E 0 88 3c 64
        E 0 8d 24 64
        E 1 97 4d 64
        E 0 9e 45 64
        E 0 98 3c 64
        E 0 9d 29 64
        E 2580 87 4d 64
        E 1 8e 45 64
        E 0 88 3c 64
        E 0 8d 29 64
        E 3437 9d 3e 64
        E 1370 8d 3e 64
        E 1 9d 39 64
        E 1372 8d 39 64
        E 0 9d 35 64
        E 1370 8d 35 64
        E 1 9d 34 64
        E 685 8d 34 64
        E 0 9d 32 64
        E 686 8d 32 64
        E 0 9d 31 64
        E 688 8d 31 64
        E 0 9d 2f 64
        E 683 8d 2f 64
        E 0 9d 2d 64
        E 1373 8d 2d 64
        E 1371 9d 39 64
        E 1371 8d 39 64
        E 0 9d 3a 66
        E 1371 8d 3a 66
        E 1 9d 3e 64
        E 1371 8d 3e 64
        E 0 9d 34 64
        E 1372 8d 34 64
        E 0 9d 3c 64
        E 1369 8d 3c 64
        E 0 9d 39 64
        E 1374 8d 39 64
        E 1 9d 3c 64
        E 1369 8d 3c 64
        E 0 9d 32 64
        E 1372 8d 32 64
        E 0 9d 3a 66
        E 1370 8d 3a 66
        E 0 9d 37 64
        E 1373 8d 37 64
        E 0 9d 3a 66
        E 1371 8d 3a 66
        E 0 9d 31 64
        E 1370 8d 31 64
        E 1 9d 39 64
        E 1373 8d 39 64
        E 0 9d 35 64
        E 1370 8d 35 64
        E 0 9d 3e 64
        E 1373 8d 3e 64
        E 1371 9d 36 64
        E 1371 8d 36 64
        E 0 9d 37 64
        E 1371 8d 37 64
        E 0 9d 40 64
        E 1371 8d 40 64
        E 1374 9d 38 64
        E 1370 8d 38 64
        E 1 9d 39 64
        E 684 8d 39 64
        E 0 9d 37 64
        E 686 8d 37 64
        E 0 9d 35 64
        E 685 8d 35 64
        E 0 9d 34 64
        E 688 8d 34 64
        E 2 9d 32 64
        E 684 8d 32 64
        E 0 9d 30 64
        E 684 8d 30 64
        E 0 9d 2e 66
        E 685 8d 2e 66
        E 1 9d 2d 64
        E 687 8d 2d 64
        E 0 9d 2b 64
        E 683 8d 2b 64
        E 1 9d 29 64
        E 684 8d 29 64
        E 0 9d 28 64
        E 686 8d 28 64
        E 0 9d 26 64
        E 689 8d 26 64
        E 0 9d 2d 64
        E 1371 8d 2d 64
        E 0 9d 2d 64
        E 1371 8d 2d 64
        E 1 9c 45 64
        E 0 9d 26 64
        E 2740 8d 26 64
        E 2743 8c 45 64
        E 0 9c 45 64
        E 2745 8c 45 64
        E 1 9c 43 64
        E 684 8c 43 64
        E 1 9c 41 64
        E 683 8c 41 64
        E 0 9c 40 64
        E 686 8c 40 64
        E 0 9c 3e 64
        E 685 8c 3e 64
        E 0 9c 3d 64
        E 2745 8c 3d 64
        E 0 9c 3e 64
        E 2741 8c 3e 64
        E 0 9d 3e 64
        E 1373 8d 3e 64
        E 0 9d 39 64
        E 1372 8d 39 64
        E 0 9d 35 64
        E 1369 8d 35 64
        E 0 9d 34 64
        E 686 8d 34 64
        E 0 9d 32 64
        E 686 8d 32 64
        E 0 9c 45 64
        E 0 9d 31 64
        E 688 8d 31 64
        E 1 9d 2f 64
        E 685 8d 2f 64
        E 2 9d 2d 64
        E 1366 8d 2d 64
        E 1372 8c 45 64
        E 0 9c 43 64
        E 0 9d 39 64
        E 1372 8c 43 64
        E 0 8d 39 64
        E 0 9c 41 64
        E 1 9d 32 64
        E 1370 8c 41 64
        E 0 8d 32 64
        E 0 9c 40 64
        E 0 9d 39 64
        E 1371 8c 40 64
        E 0 8d 39 64
        E 0 9c 41 64
        E 1 9d 32 64
        E 1371 8c 41 64
        E 0 8d 32 64
        E 0 9c 43 64
        E 1 9d 39 64
        E 685 8c 43 64
        E 0 9c 40 64
        E 685 8c 40 64
        E 0 8d 39 64
        E 0 9c 41 64
        E 0 9d 38 64
        E 5488 8c 41 64
        E 0 8d 38 64
        E 0 9c 40 64
        E 0 9d 39 64
        E 1369 8d 39 64
        E 0 9d 34 64
        E 1374 8c 40 64
        E 1 8d 34 64
        E 0 9d 31 64
        E 1369 8d 31 64
        E 0 9d 2f 64
        E 686 8d 2f 64
        E 0 9d 2d 64
        E 684 8d 2d 64
        E 0 9c 42 64
        E 0 9d 3e 64
        E 1372 8d 3e 64
        E 0 9d 39 64
        E 1373 8c 42 64
        E 0 8d 39 64
        E 0 9c 45 64
        E 0 9d 36 64
        E 1371 8c 45 64
        E 0 8d 36 64
        E 0 9c 42 64
        E 0 9d 34 64
        E 686 8d 34 64
        E 0 9d 32 64
        E 686 8c 42 64
        E 0 8d 32 64
        E 0 9c 43 64
        E 0 9d 37 64
        E 685 8c 43 64
        E 0 9c 42 64
        E 685 8c 42 64
        E 0 8d 37 64
        E 0 9c 43 64
        E 0 9d 32 64
        E 1373 8c 43 64
        E 0 8d 32 64
        E 0 9d 2f 64
        E 1369 8d 2f 64
        E 0 9d 2d 64
        E 686 8d 2d 64
        E 1 9d 2b 64
        E 684 8d 2b 64
        E 0 9c 40 64
        E 0 9d 3c 64
        E 1375 8d 3c 64
        E 0 9d 37 64
        E 1370 8c 40 64
        E 0 8d 37 64
        E 0 9c 43 64
        E 0 9d 34 64
        E 1371 8c 43 64
        E 0 8d 34 64
        E 0 9c 40 64
        E 2 9d 32 64
        E 683 8d 32 64
        E 0 9d 30 64
        E 688 8c 40 64
        E 1 8d 30 64
        E 0 9c 41 64
        E 0 9d 35 64
        E 684 8c 41 64
        E 1 9c 40 64
        E 684 8c 40 64
        E 0 8d 35 64
        E 0 9c 41 64
        E 0 9d 30 64
        E 1371 8c 41 64
        E 0 8d 30 64
        E 0 9d 2d 64
        E 1371 8d 2d 64
        E 0 9d 2b 64
        E 687 8d 2b 64
        E 0 9d 29 64
        E 687 8d 29 64
        E 1 9c 46 66
        E 0 9d 3e 64
        E 1369 8d 3e 64
        E 1 9d 35 64
        E 1369 8d 35 64
        E 1 9d 32 64
        E 1373 8c 46 66
        E 0 8d 32 64
        E 0 9c 45 64
        E 0 9d 34 64
        E 684 8d 34 64
        E 1 9d 35 64
        E 685 8c 45 64
        E 0 8d 35 64
        E 1 9c 44 64
        E 0 9d 34 64
        E 1369 8c 44 64
        E 0 8d 34 64
        E 0 9c 40 64
        E 1 9d 40 64
        E 1371 8c 40 64
        E 1 8d 40 64
        E 0 9c 45 64
        E 0 9d 3c 64
        E 1372 8d 3c 64
        E 1 9d 3b 64
        E 684 8d 3b 64
        E 0 9d 39 64
        E 687 8c 45 64
        E 0 8d 39 64
        E 0 9c 45 64
        E 0 9d 3e 64
        E 1369 8c 45 64
        E 0 8d 3e 64
        E 0 9c 47 64
        E 0 9d 3b 64
        E 687 8c 47 64
        E 0 9c 42 64
        E 687 8c 42 64
        E 0 8d 3b 64
        E 0 9c 44 64
        E 0 9d 40 64
        E 1369 8d 40 64
        E 1 9d 34 64
        E 1370 8c 44 64
        E 0 8d 34 64
        E 0 9c 45 64
        E 0 9d 2d 64
        E 2745 8c 45 64
        E 0 8d 2d 64
        E 1371 97 4e 64
        E 0 9e 48 64
        E 0 98 45 64
        E 0 9d 32 64
        E 1371 87 4e 64
        E 0 8e 48 64
        E 0 88 45 64
        E 0 8d 32 64
        E 0 97 4e 64
        E 0 9e 48 64
        E 0 98 45 64
        E 0 9d 32 64
        E 2744 87 4e 64
        E 0 8e 48 64
        E 0 88 45 64
        E 0 8d 32 64
        E 0 97 4e 64
        E 0 9e 48 64
        E 0 98 45 64
        E 0 9d 32 64
        E 1371 87 4e 64
        E 0 8e 48 64
        E 0 88 45 64
        E 0 8d 32 64
        E 0 97 4e 64
        E 0 9e 48 64
        E 0 98 45 64
        E 1 9d 32 64
        E 1369 87 4e 64
        E 0 8e 48 64
        E 0 88 45 64
        E 0 8d 32 64
        E 1 97 4a 64
        E 0 9e 48 64
        E 0 98 45 64
        E 0 9d 37 64
        E 2744 87 4a 64
        E 0 8e 48 64
        E 0 88 45 64
        E 0 8d 37 64
        E 0 97 4a 64
        E 0 9e 46 66
        E 0 98 43 64
        E 0 9d 2b 64
        E 2743 87 4a 64
        E 0 8e 46 66
        E 0 88 43 64
        E 0 8d 2b 64
        E 0 9c 43 64
        E 0 9d 2e 66
        E 2740 8c 43 64
        E 0 8d 2e 66
        E 0 9c 46 66
        E 687 8c 46 66
        E 0 9c 45 64
        E 686 8c 45 64
        E 0 9c 43 64
        E 688 8c 43 64
        E 0 9c 41 64
        E 685 8c 41 64
        E 0 9c 40 64
        E 0 9d 3c 64
        E 1369 8c 40 64
        E 0 8d 3c 64
        E 0 9c 3e 64
        E 0 9d 37 64
        E 1371 8c 3e 64
        E 0 8d 37 64
        E 1 9c 3c 64
        E 0 9d 34 64
        E 1372 8c 3c 64
        E 0 8d 34 64
        E 0 9c 46 66
        E 0 9d 32 64
        E 685 8d 32 64
        E 0 9d 30 64
        E 686 8c 46 66
        E 0 8d 30 64
        E 0 9c 45 64
        E 0 9d 35 64
        E 686 8c 45 64
        E 0 9c 43 64
        E 684 8c 43 64
        E 0 9c 45 64
        E 1372 8c 45 64
        E 0 8d 35 64
        E 1373 97 4d 64
        E 0 9e 48 64
        E 1 98 45 64
        E 0 9d 39 64
        E 1371 87 4d 64
        E 0 8e 48 64
        E 0 88 45 64
        E 0 8d 39 64
        E 0 97 4d 64
        E 0 9e 4b 66
        E 0 98 48 64
        E 1 9d 39 64
        E 1369 8d 39 64
        E 0 9d 35 64
        E 1372 87 4d 64
        E 0 8e 4b 66
        E 0 88 48 64
        E 0 8d 35 64
        E 0 97 4d 64
        E 0 9e 4b 66
        E 0 98 48 64
        E 0 9d 30 64
        E 1372 87 4d 64
        E 0 8e 4b 66
        E 0 88 48 64
        E 0 8d 30 64
        E 0 97 4d 64
        E 0 9e 4b 66
        E 0 98 48 64
        E 0 9d 2d 64
        E 1370 87 4d 64
        E 0 8e 4b 66
        E 0 88 48 64
        E 0 8d 2d 64
        E 0 97 4d 64
        E 0 9e 4a 64
        E 0 98 46 66
        E 0 9d 3a 66
        E 1372 8d 3a 66
        E 0 9d 35 64
        E 1371 87 4d 64
        E 0 8e 4a 64
        E 0 88 46 66
        E 0 8d 35 64
        E 0 97 4d 64
        E 0 9e 4a 64
        E 0 98 46 66
        E 0 9d 32 64
        E 1373 8d 32 64
        E 0 9d 2e 66
        E 1369 87 4d 64
        E 0 8e 4a 64
        E 0 88 46 66
        E 0 8d 2e 66
        E 0 9c 41 64
        E 0 9d 2e 66
        E 2745 8c 41 64
        E 0 8d 2e 66
        E 0 9c 44 66
        E 686 8c 44 66
        E 1 9c 43 64
        E 683 8c 43 64
        E 0 9c 41 64
        E 686 8c 41 64
        E 0 9c 3f 66
        E 685 8c 3f 66
        E 0 9c 3e 64
        E 1 9d 3a 66
        E 1373 8c 3e 64
        E 0 8d 3a 66
        E 0 9c 3c 64
        E 0 9d 35 64
        E 1369 8c 3c 64
        E 0 8d 35 64
        E 1 9c 3a 66
        E 0 9d 32 64
        E 1370 8c 3a 66
        E 0 8d 32 64
        E 0 9c 44 66
        E 0 9d 30 64
        E 686 8d 30 64
        E 0 9d 2e 66
        E 687 8c 44 66
        E 0 8d 2e 66
        E 0 9c 43 64
        E 0 9d 33 66
        E 2058 8c 43 64
        E 0 9c 41 64
        E 684 8c 41 64
        E 0 8d 33 66
        E 0 9c 43 64
        E 1372 8c 43 64
        E 0 97 4b 66
        E 1 9e 46 66
        E 0 98 43 64
        E 0 9d 37 64
        E 1370 87 4b 66
        E 0 8e 46 66
        E 0 88 43 64
        E 0 8d 37 64
        E 0 97 4b 66
        E 1 9e 49 66
        E 0 98 46 66
        E 0 9d 37 64
        E 1371 8d 37 64
        E 0 9d 33 66
        E 1371 87 4b 66
        E 0 8e 49 66
        E 0 88 46 66
        E 0 8d 33 66
        E 0 97 4b 66
        E 0 9e 49 66
        E 1 98 46 66
        E 0 9d 2e 66
        E 1372 87 4b 66
        E 0 8e 49 66
        E 1 88 46 66
        E 0 8d 2e 66
        E 0 97 4b 66
        E 0 9e 49 66
        E 0 98 46 66
        E 0 9d 2b 64
        E 1371 87 4b 66
        E 0 8e 49 66
        E 0 88 46 66
        E 0 8d 2b 64
        E 0 97 4b 66
        E 0 9e 48 64
        E 0 98 44 66
        E 0 9d 38 66
        E 1370 8d 38 66
        E 1 9d 33 66
        E 1369 87 4b 66
        E 0 8e 48 64
        E 0 88 44 66
        E 0 8d 33 66
        E 0 97 4b 66
        E 0 9e 48 64
        E 0 98 44 66
        E 0 9d 30 64
        E 1372 8d 30 64
        E 1 9d 2c 66
        E 1371 87 4b 66
        E 0 8e 48 64
        E 0 88 44 66
        E 0 8d 2c 66
        E 0 9c 41 64
        E 0 9d 35 64
        E 2743 8c 41 64
        E 0 8d 35 64
        E 1 9c 44 66
        E 686 8c 44 66
        E 0 9c 43 64
        E 684 8c 43 64
        E 0 9c 41 64
        E 686 8c 41 64
        E 0 9c 3f 66
        E 684 8c 3f 66
        E 1 9c 3e 64
        E 0 9d 3a 66
        E 1373 8d 3a 66
        E 0 9d 35 64
        E 1372 8c 3e 64
        E 0 8d 35 64
        E 0 9c 3e 64
        E 0 9d 32 64
        E 1371 8d 32 64
        E 0 9d 30 64
        E 684 8d 30 64
        E 0 9d 2f 64
        E 687 8c 3e 64
        E 0 8d 2f 64
        E 0 9c 43 64
        E 0 9d 2f 64
        E 2742 8c 43 64
        E 0 8d 2f 64
        E 0 9c 47 64
        E 685 8c 47 64
        E 0 9c 45 64
        E 686 8c 45 64
        E 1 9c 43 64
        E 684 8c 43 64
        E 1 9c 41 64
        E 684 8c 41 64
        E 0 9c 41 64
        E 0 9d 3c 64
        E 1374 8d 3c 64
        E 0 9d 37 64
        E 1370 8c 41 64
        E 0 8d 37 64
        E 0 9c 3f 66
        E 0 9d 33 66
        E 1372 8d 33 66
        E 0 9d 32 64
        E 684 8d 32 64
        E 0 9d 30 64
        E 688 8c 3f 66
        E 0 8d 30 64
        E 0 9c 44 66
        E 0 9d 3c 64
        E 1371 8d 3c 64
        E 0 9d 33 66
        E 1371 8d 33 66
        E 0 9d 30 64
        E 1371 8c 44 66
        E 0 8d 30 64
        E 0 9c 43 64
        E 0 9d 32 64
        E 689 8d 32 64
        E 0 9d 33 66
        E 683 8c 43 64
        E 0 8d 33 66
        E 0 9c 42 64
        E 0 9d 32 64
        E 1371 8c 42 64
        E 0 8d 32 64
        E 0 9c 3e 64
        E 0 9d 3e 64
        E 1372 8c 3e 64
        E 0 8d 3e 64
        E 0 9c 43 64
        E 0 9d 3a 66
        E 1372 8d 3a 66
        E 1 9d 39 64
        E 685 8d 39 64
        E 0 9d 37 64
        E 686 8c 43 64
        E 1 8d 37 64
        E 0 9c 43 64
        E 0 9d 3c 64
        E 1368 8c 43 64
        E 0 8d 3c 64
        E 1 9c 45 64
        E 0 9d 39 64
        E 686 8c 45 64
        E 1 9c 40 64
        E 684 8c 40 64
        E 0 8d 39 64
        E 0 9c 42 64
        E 0 9d 3e 64
        E 1374 8d 3e 64
        E 1 9d 32 64
        E 1368 8c 42 64
        E 0 8d 32 64
        E 0 9c 43 64
        E 0 9d 37 64
        E 1371 8d 37 64
        E 0 9d 32 64
        E 1374 8c 43 64
        E 0 8d 32 64
        E 0 9d 2e 66
        E 1370 8d 2e 66
        E 0 97 4f 64
        E 0 9e 46 66
        E 0 98 3e 64
        E 0 9d 2b 64
        E 1371 87 4f 64
        E 0 8e 46 66
        E 0 88 3e 64
        E 0 8d 2b 64
        E 0 97 4f 64
        E 0 9e 46 66
        E 0 98 3e 64
        E 0 9d 37 64
        E 1371 8d 37 64
        E 0 9d 32 64
        E 1374 87 4f 64
        E 0 8e 46 66
        E 0 88 3e 64
        E 0 8d 32 64
        E 0 97 4f 64
        E 0 9e 46 66
        E 0 98 3e 64
        E 0 9d 2e 66
        E 1370 87 4f 64
        E 0 8e 46 66
        E 0 88 3e 64
        E 0 8d 2e 66
        E 0 97 4f 64
        E 1 9e 46 66
        E 0 98 3e 64
        E 0 9d 2b 64
        E 1370 87 4f 64
        E 0 8e 46 66
        E 0 88 3e 64
        E 0 8d 2b 64
        E 1 97 4f 64
        E 0 9e 46 66
        E 0 98 40 64
        E 0 9d 30 64
        E 1370 8d 30 64
        E 0 9d 2b 64
        E 1373 87 4f 64
        E 0 8e 46 66
        E 1 88 40 64
        E 0 8d 2b 64
        E 0 97 4f 64
        E 0 9e 46 66
        E 0 98 40 64
        E 0 9d 28 64
        E 1369 8d 28 64
        E 1 9d 24 64
        E 1370 87 4f 64
        E 0 8e 46 66
        E 1 88 40 64
        E 0 8d 24 64
        E 0 97 4d 64
        E 0 9e 45 64
        E 0 98 3c 64
        E 0 9d 35 64
        E 1373 8d 35 64
        E 0 9d 30 64
        E 1369 87 4d 64
        E 0 8e 45 64
        E 0 88 3c 64
        E 0 8d 30 64
        E 0 97 4d 64
        E 0 9e 45 64
        E 0 98 3c 64
        E 1 9d 2d 64
        E 1370 8d 2d 64
        E 0 9d 29 64
        E 1374 87 4d 64
        E 0 8e 45 64
        E 0 88 3c 64
        E 0 8d 29 64
        E 0 9c 41 64
        E 0 9d 32 64
        E 1371 8c 41 64
        E 0 9c 43 64
        E 1370 8c 43 64
        E 0 8d 32 64
        E 0 9c 45 64
        E 1371 8c 45 64
        E 0 9c 41 64
        E 1372 8c 41 64
        E 1 9c 3e 64
        E 0 9d 3e 64
        E 1370 8d 3e 64
        E 1 9d 39 64
        E 1370 8c 3e 64
        E 0 8d 39 64
        E 0 9c 3e 64
        E 1 9d 35 64
        E 1373 8d 35 64
        E 0 9d 32 64
        E 1369 8c 3e 64
        E 0 8d 32 64
        E 1 97 4f 64
        E 0 9e 4a 64
        E 0 98 3e 64
        E 0 9d 3a 66
        E 1371 8d 3a 66
        E 0 9d 37 64
        E 1370 87 4f 64
        E 0 8e 4a 64
        E 0 88 3e 64
        E 0 8d 37 64
        E 0 97 4f 64
        E 0 9e 4a 64
        E 0 98 3e 64
        E 0 9d 32 64
        E 1375 8d 32 64
        E 0 9d 2e 66
        E 1370 87 4f 64
        E 0 8e 4a 64
        E 0 88 3e 64
        E 0 8d 2e 66
        E 0 97 4f 64
        E 0 9e 4c 64
        E 0 98 49 64
        E 0 9d 39 64
        E 1371 8d 39 64
        E 0 9d 34 64
        E 1374 87 4f 64
        E 0 8e 4c 64
        E 0 88 49 64
        E 0 8d 34 64
        E 0 97 4f 64
        E 0 9e 4c 64
        E 0 98 49 64
        E 0 9d 31 64
        E 1369 8d 31 64
        E 0 9d 2d 64
        E 1370 87 4f 64
        E 0 8e 4c 64
        E 0 88 49 64
        E 0 8d 2d 64
        E 0 9c 43 64
        E 0 9d 2d 64
        E 2745 8c 43 64
        E 0 8d 2d 64
        E 0 9c 45 64
        E 1370 8c 45 64
        E 0 9c 46 66
        E 1373 8c 46 66
        E 0 9c 3d 64
        E 0 9d 39 64
        E 1375 8d 39 64
        E 0 9d 34 64
        E 1371 8c 3d 64
        E 1 8d 34 64
        E 0 9c 3d 64
        E 0 9d 31 64
        E 1366 8d 31 64
        E 0 9d 2d 64
        E 1371 8c 3d 64
        E 0 8d 2d 64
        E 0 97 4f 64
        E 0 9e 4c 64
        E 0 98 49 64
        E 0 9d 39 64
        E 1372 8d 39 64
        E 0 9d 34 64
        E 1373 87 4f 64
        E 0 8e 4c 64
        E 0 88 49 64
        E 0 8d 34 64
        E 0 97 4f 64
        E 0 9e 4c 64
        E 0 98 49 64
        E 0 9d 31 64
        E 1370 87 4f 64
        E 0 8e 4c 64
        E 1 88 49 64
        E 0 8d 31 64
        E 0 97 4f 64
        E 0 9e 4c 64
        E 0 98 49 64
        E 0 9d 2d 64
        E 1371 87 4f 64
        E 0 8e 4c 64
        E 0 88 49 64
        E 0 8d 2d 64
        E 0 97 4d 64
        E 0 9e 4a 64
        E 0 98 45 64
        E 0 9d 32 64
        E 1371 8d 32 64
        E 0 9d 2d 64
        E 1371 87 4d 64
        E 0 8e 4a 64
        E 0 88 45 64
        E 0 8d 2d 64
        E 0 97 4d 64
        E 0 9e 4a 64
        E 0 98 45 64
        E 1 9d 29 64
        E 1371 8d 29 64
        E 0 9d 26 64
        E 1372 87 4d 64
        E 0 8e 4a 64
        E 0 88 45 64
        E 0 8d 26 64
        E 0 9c 41 64
        E 0 9d 32 64
        E 1371 8c 41 64
        E 1 9c 45 64
        E 1369 8c 45 64
        E 0 8d 32 64
        E 0 9c 43 64
        E 1372 8c 43 64
        E 1 9c 41 64
        E 0 9d 32 64
        E 1371 8c 41 64
        E 0 8d 32 64
        E 0 9c 46 66
        E 0 9d 37 64
        E 1370 8c 46 66
        E 0 8d 37 64
        E 0 9c 3d 64
        E 0 9d 39 64
        E 1372 8c 3d 64
        E 0 8d 39 64
        E 0 9c 3e 64
        E 0 9d 35 64
        E 1373 8c 3e 64
        E 0 8d 35 64
        E 0 9c 43 64
        E 0 9d 31 64
        E 1370 8c 43 64
        E 0 8d 31 64
        E 1 9c 41 64
        E 0 9d 32 64
        E 1370 8d 32 64
        E 0 9d 37 64
        E 1373 8c 41 64
        E 0 8d 37 64
        E 0 9c 40 64
        E 0 9d 39 64
        E 1370 8d 39 64
        E 0 9d 2d 64
        E 1373 8c 40 64
        E 0 8d 2d 64
        E 0 9c 3e 64
        E 1 9d 3e 64
        E 1369 8d 3e 64
        E 0 9d 39 64
        E 1372 8d 39 64
        E 0 9d 35 64
        E 1372 8d 35 64
        E 0 9d 32 64
        E 1370 8c 3e 64
        E 0 8d 32 64
        E 0 97 4e 64
        E 0 9e 45 64
        E 0 98 45 64
        E 0 9d 32 64
        E 1374 8d 32 64
        E 1 9d 2d 64
        E 1369 87 4e 64
        E 1 8e 45 64
        E 0 88 45 64
        E 0 8d 2d 64
        E 0 97 4e 64
        E 0 9e 45 64
        E 0 98 45 64
        E 0 9d 2a 64
        E 1369 8d 2a 64
        E 0 9d 26 64
        E 1372 87 4e 64
        E 0 8e 45 64
        E 0 88 45 64
        E 0 8d 26 64
        E 0 97 4c 64
        E 0 9e 47 64
        E 0 98 44 64
        E 0 9d 32 64
        E 1372 8d 32 64
        E 1 9d 2f 64
        E 1372 87 4c 64
        E 0 8e 47 64
        E 0 88 44 64
        E 0 8d 2f 64
        E 0 97 4c 64
        E 0 9e 47 64
        E 0 98 44 64
        E 0 9d 2c 64
        E 1369 8d 2c 64
        E 1 9d 28 64
        E 1373 87 4c 64
        E 0 8e 47 64
        E 0 88 44 64
        E 0 8d 28 64
        E 0 97 4c 64
        E 0 9e 47 64
        E 0 98 44 64
        E 0 9d 32 64
        E 1370 8d 32 64
        E 0 9d 2f 64
        E 1371 87 4c 64
        E 0 8e 47 64
        E 0 88 44 64
        E 0 8d 2f 64
        E 0 97 4c 64
        E 0 9e 47 64
        E 0 98 44 64
        E 0 9d 2c 64
        E 1373 8d 2c 64
        E 0 9d 28 64
        E 1370 87 4c 64
        E 0 8e 47 64
        E 1 88 44 64
        E 0 8d 28 64
        E 0 97 4c 64
        E 0 9e 49 64
        E 0 98 45 64
        E 0 9d 31 64
        E 1371 8d 31 64
        E 0 9d 2d 64
        E 1371 87 4c 64
        E 0 8e 49 64
        E 0 88 45 64
        E 0 8d 2d 64
        E 1 97 4c 64
        E 0 9e 49 64
        E 0 98 45 64
        E 0 9d 28 64
        E 1372 8d 28 64
        E 0 9d 25 64
        E 1370 87 4c 64
        E 0 8e 49 64
        E 0 88 45 64
        E 0 8d 25 64
        E 0 9c 41 64
        E 0 9d 32 64
        E 1371 8c 41 64
        E 0 9c 45 64
        E 1377 8c 45 64
        E 0 8d 32 64
        E 0 9c 43 64
        E 1368 8c 43 64
        E 0 9c 41 64
        E 0 9d 32 64
        E 1370 8c 41 64
        E 0 8d 32 64
        E 0 9c 46 66
        E 0 9d 37 64
        E 1370 8c 46 66
        E 0 8d 37 64
        E 0 9c 3d 64
        E 0 9d 39 64
        E 1373 8c 3d 64
        E 0 8d 39 64
        E 0 9c 3e 64
        E 0 9d 35 64
        E 1372 8c 3e 64
        E 1 8d 35 64
        E 1 9c 43 64
        E 1 9d 31 64
        E 1367 8c 43 64
        E 0 8d 31 64
        E 0 9c 41 64
        E 0 9d 32 64
        E 1371 8d 32 64
        E 0 9d 37 64
        E 1374 8c 41 64
        E 0 8d 37 64
        E 0 9c 40 64
        E 0 9d 39 64
        E 1369 8d 39 64
        E 0 9d 2d 64
        E 1371 8c 40 64
        E 0 8d 2d 64
        E 0 9c 3e 64
        E 0 9d 3e 64
        E 1373 8d 3e 64
        E 0 9d 39 64
        E 1371 8d 39 64
        E 0 9d 35 64
        E 1370 8d 35 64
        E 0 9d 32 64
        E 1372 8c 3e 64
        E 0 8d 32 64
        E 0 97 4d 64
        E 0 9e 4a 64
        E 0 98 47 64
        E 0 9d 38 64
        E 1372 87 4d 64
        E 0 8e 4a 64
        E 0 88 47 64
        E 0 8d 38 64
        E 0 97 4d 64
        E 0 9e 4a 64
        E 0 98 47 64
        E 1 9d 38 64
        E 1370 87 4d 64
        E 0 8e 4a 64
        E 1 88 47 64
        E 0 8d 38 64
        E 0 97 4d 64
        E 0 9e 4a 64
        E 0 98 47 64
        E 0 9d 38 64
        E 1369 87 4d 64
        E 1 8e 4a 64
        E 0 88 47 64
        E 0 8d 38 64
        E 0 97 4d 64
        E 0 9e 4a 64
        E 0 98 47 64
        E 0 9d 38 64
        E 1374 87 4d 64
        E 0 8e 4a 64
        E 0 88 47 64
        E 0 8d 38 64
        E 0 97 4c 64
        E 0 9e 4a 64
        E 0 98 45 64
        E 0 9d 39 64
        E 2741 8e 4a 64
        E 0 8d 39 64
        E 0 9e 49 64
        E 1 9d 2d 64
        E 2744 87 4c 64
        E 0 8e 49 64
        E 0 88 45 64
        E 0 8d 2d 64
        E 0 97 4d 64
        E 0 9e 4a 64
        E 0 98 45 64
        E 0 9d 3e 64
        E 1369 8d 3e 64
        E 0 9d 39 64
        E 1371 8d 39 64
        E 1 9d 35 64
        E 1372 8d 35 64
        E 0 9d 34 64
        E 686 8d 34 64
        E 1 9d 32 64
        E 685 87 4d 64
        E 0 8e 4a 64
        E 0 88 45 64
        E 0 8d 32 64
        E 1 9d 31 64
        E 683 8d 31 64
        E 1 9d 2f 64
        E 684 8d 2f 64
        E 0 9d 2d 64
        E 1372 8d 2d 64
        E 1374 9d 39 64
        E 1369 8d 39 64
        E 0 9d 3a 66
        E 1371 8d 3a 66
        E 0 9d 3e 64
        E 1374 8d 3e 64
        E 0 9d 34 64
        E 1371 8d 34 64
        E 0 9d 3c 64
        E 1370 8d 3c 64
        E 0 9d 39 64
        E 1370 8d 39 64
        E 0 9d 3c 64
        E 1374 8d 3c 64
        E 0 9d 32 64
        E 1371 8d 32 64
        E 0 9d 3a 66
        E 1370 8d 3a 66
        E 0 9d 37 64
        E 1374 8d 37 64
        E 0 9d 3a 66
        E 1371 8d 3a 66
        E 0 9d 31 64
        E 1370 8d 31 64
        E 0 9d 39 64
        E 1371 8d 39 64
        E 0 9d 35 64
        E 1372 8d 35 64
        E 0 9d 3e 64
        E 1371 8d 3e 64
        E 1371 9d 36 64
        E 1373 8d 36 64
        E 0 9d 37 64
        E 1370 8d 37 64
        E 1 9d 40 64
        E 1372 8d 40 64
        E 1369 9d 38 64
        E 1374 8d 38 64
        E 0 9d 39 64
        E 686 8d 39 64
        E 0 9d 37 64
        E 684 8d 37 64
        E 0 9d 35 64
        E 685 8d 35 64
        E 0 9d 34 64
        E 685 8d 34 64
        E 0 9d 32 64
        E 686 8d 32 64
        E 0 9d 30 64
        E 689 8d 30 64
        E 1 9d 2e 66
        E 683 8d 2e 66
        E 0 9d 2d 64
        E 686 8d 2d 64
        E 0 9d 2b 64
        E 685 8d 2b 64
        E 0 9d 29 64
        E 686 8d 29 64
        E 0 9d 28 64
        E 684 8d 28 64
        E 1 9d 26 64
        E 686 8d 26 64
        E 0 9d 2d 64
        E 1373 8d 2d 64
        E 0 9d 2d 64
        E 1371 8d 2d 64
        E 0 9d 26 64
        E 8230 8d 26 64
        E 13961 97 4c 64
        E 0 9e 48 64
        E 0 98 45 64
        E 0 9d 39 64
        E 2993 87 4c 64
        E 0 8e 48 64
        E 0 88 45 64
        E 0 8d 39 64
        E 0 97 4e 64
        E 0 9e 48 64
        E 0 98 45 64
        E 0 9d 33 64
        E 2992 87 4e 64
        E 0 8e 48 64
        E 0 88 45 64
        E 0 8d 33 64
        E 0 97 4e 64
        E 0 9e 48 64
        E 0 98 45 64
        E 0 9d 33 64
        E 4490 87 4e 64
        E 0 8e 48 64
        E 0 88 45 64
        E 0 8d 33 64
        E 1495 97 4e 64
        E 0 9e 48 64
        E 0 98 39 64
        E 0 9d 33 64
        E 1496 87 4e 64
        E 0 8e 48 64
        E 0 88 39 64
        E 0 8d 33 64
        E 0 97 4f 64
        E 0 9e 46 66
        E 0 98 3a 66
        E 0 9d 33 64
        E 1496 87 4f 64
        E 0 8e 46 66
        E 0 88 3a 66
        E 0 8d 33 64
        E 0 97 4e 64
        E 0 9e 45 64
        E 0 98 3c 64
        E 0 9d 33 64
        E 1496 87 4e 64
        E 0 8e 45 64
        E 0 88 3c 64
        E 0 8d 33 64
        E 0 97 4c 64
        E 0 9e 44 64
        E 0 98 3b 64
        E 0 9d 32 64
        E 2992 87 4c 64
        E 0 8e 44 64
        E 0 88 3b 64
        E 0 8d 32 64
        E 0 97 4c 64
        E 0 9e 44 64
        E 0 98 3b 64
        E 0 9d 32 64
        E 4487 87 4c 64
        E 0 8e 44 64
        E 0 88 3b 64
        E 0 8d 32 64
        E 7482 97 4e 64
        E 0 9e 46 64
        E 0 98 3d 64
        E 0 9d 36 64
        E 1495 87 4e 64
        E 0 8e 46 64
        E 0 88 3d 64
        E 0 8d 36 64
        E 0 97 4e 64
        E 0 9e 46 64
        E 0 98 3d 64
        E 0 9d 34 64
        E 1497 87 4e 64
        E 0 8e 46 64
        E 0 88 3d 64
        E 0 8d 34 64
        E 0 97 4e 64
        E 0 9e 46 64
        E 0 98 3d 64
        E 0 9d 34 64
        E 1496 87 4e 64
        E 0 8e 46 64
        E 0 88 3d 64
        E 0 8d 34 64
        E 0 97 4e 64
        E 0 9e 47 64
        E 0 98 3f 64
        E 0 9d 33 64
        E 2991 87 4e 64
        E 0 8e 47 64
        E 0 88 3f 64
        E 0 8d 33 64
        E 1 97 4e 64
        E 0 9e 47 64
        E 0 98 3f 64
        E 0 9d 33 64
        E 4489 87 4e 64
        E 0 8e 47 64
        E 0 88 3f 64
        E 0 8d 33 64
        E 0 97 4f 64
        E 1 9e 47 64
        E 0 98 47 64
        E 0 9d 34 64
        E 4486 87 4f 64
        E 0 8e 47 64
        E 0 88 47 64
        E 0 8d 34 64
        E 0 97 4f 64
        E 1 9e 47 64
        E 0 98 47 64
        E 0 9d 34 64
        E 1497 87 4f 64
        E 1 8e 47 64
        E 0 88 47 64
        E 0 8d 34 64
        E 0 97 4f 64
        E 0 9e 47 64
        E 0 98 47 64
        E 0 9d 34 64
        E 2991 87 4f 64
        E 0 8e 47 64
        E 0 88 47 64
        E 0 8d 34 64
        E 0 97 4c 64
        E 0 9e 48 64
        E 0 98 45 64
        E 0 9d 39 64
        E 4488 87 4c 64
        E 0 8e 48 64
        E 0 88 45 64
        E 0 8d 39 64
        E 1 97 4c 64
        E 0 9e 48 64
        E 0 98 45 64
        E 0 9d 39 64
        E 1495 87 4c 64
        E 1 8e 48 64
        E 0 88 45 64
        E 0 8d 39 64
        E 0 97 4c 64
        E 0 9e 48 64
        E 0 98 45 64
        E 0 9d 39 64
        E 2990 87 4c 64
        E 0 8e 48 64
        E 0 88 45 64
        E 0 8d 39 64
        E 0 97 4c 64
        E 0 9e 49 64
        E 0 98 45 64
        E 1 9d 37 64
        E 4488 87 4c 64
        E 0 8e 49 64
        E 0 88 45 64
        E 0 8d 37 64
        E 0 97 4c 64
        E 0 9e 49 64
        E 0 98 45 64
        E 0 9d 37 64
        E 1495 87 4c 64
        E 0 8e 49 64
        E 0 88 45 64
        E 0 8d 37 64
        E 1 97 4c 64
        E 0 9e 49 64
        E 0 98 45 64
        E 0 9d 37 64
        E 1496 87 4c 64
        E 0 8e 49 64
        E 0 88 45 64
        E 0 8d 37 64
        E 1 97 4c 64
        E 0 9e 49 64
        E 0 98 45 64
        E 0 9d 37 64
        E 1497 87 4c 64
        E 0 8e 49 64
        E 0 88 45 64
        E 0 8d 37 64
        E 0 97 4e 64
        E 0 9e 4a 64
        E 0 98 45 64
        E 0 9d 36 64
        E 2990 87 4e 64
        E 0 8e 4a 64
        E 0 88 45 64
        E 0 8d 36 64
        E 0 97 4e 64
        E 0 9e 4a 64
        E 0 98 45 64
        E 0 9d 36 64
        E 5987 87 4e 64
        E 0 8e 4a 64
        E 0 88 45 64
        E 0 8d 36 64
        E 0 97 4e 64
        E 0 9e 4b 64
        E 0 98 47 64
        E 0 9d 3b 64
        E 4487 87 4e 64
        E 0 8e 4b 64
        E 0 88 47 64
        E 0 8d 3b 64
        E 1 97 4e 64
        E 0 9e 4b 64
        E 0 98 47 64
        E 0 9d 3b 64
        E 1495 87 4e 64
        E 0 8e 4b 64
        E 0 88 47 64
        E 0 8d 3b 64
        E 0 97 4e 64
        E 0 9e 4b 64
        E 0 98 47 64
        E 0 9d 39 64
        E 1495 87 4e 64
        E 0 8e 4b 64
        E 0 88 47 64
        E 0 8d 39 64
        E 0 97 4e 64
        E 0 9e 4b 64
        E 1 98 47 64
        E 0 9d 39 64
        E 1496 87 4e 64
        E 0 8e 4b 64
        E 0 88 47 64
        E 0 8d 39 64
        E 0 97 4f 64
        E 0 9e 4c 64
        E 0 98 47 64
        E 0 9d 37 64
        E 5983 87 4f 64
        E 0 8e 4c 64
        E 0 88 47 64
        E 0 8d 37 64
        E 0 97 4f 64
        E 1 9e 4c 64
        E 0 98 49 64
        E 0 9d 2e 64
        E 2992 87 4f 64
        E 0 8e 4c 64
        E 0 88 49 64
        E 0 8d 2e 64
        E 0 97 4f 64
        E 0 9e 4c 64
        E 0 98 47 64
        E 0 9d 2f 64
        E 2992 87 4f 64
        E 0 97 4e 64
        E 2993 8e 4c 64
        E 0 9e 4b 64
        E 2992 87 4e 64
        E 0 8e 4b 64
        E 0 88 47 64
        E 0 8d 2f 64
        E 0 97 4f 64
        E 0 9e 4c 64
        E 0 98 47 64
        E 0 9d 34 64
        E 8976 87 4f 64
        E 0 8e 4c 64
        E 0 88 47 64
        E 0 8d 34 64
        E 8977 97 4e 64
        E 0 9e 4b 64
        E 0 98 47 64
        E 0 9d 3b 64
        E 4487 87 4e 64
        E 0 8e 4b 64
        E 0 88 47 64
        E 0 8d 3b 64
        E 0 97 4e 64
        E 0 9e 4b 64
        E 0 98 47 64
        E 0 9d 3b 64
        E 1498 87 4e 64
        E 0 8e 4b 64
        E 0 88 47 64
        E 0 8d 3b 64
        E 0 97 4e 64
        E 1 9e 4b 64
        E 0 98 47 64
        E 0 9d 39 64
        E 1495 87 4e 64
        E 0 8e 4b 64
        E 0 88 47 64
        E 0 8d 39 64
        E 0 97 4e 64
        E 0 9e 4b 64
        E 0 98 47 64
        E 0 9d 39 64
        E 1496 87 4e 64
        E 0 8e 4b 64
        E 0 88 47 64
        E 0 8d 39 64
        E 0 97 4f 64
        E 0 9e 4c 64
        E 0 98 47 64
        E 0 9d 37 64
        E 5985 87 4f 64
        E 0 8e 4c 64
        E 0 88 47 64
        E 0 8d 37 64
        E 1 97 4f 64
        E 0 9e 4c 64
        E 0 98 49 64
        E 0 9d 2e 64
        E 2991 87 4f 64
        E 0 8e 4c 64
        E 0 88 49 64
        E 0 8d 2e 64
        E 0 97 4f 64
        E 0 9e 4c 64
        E 1 98 47 64
        E 0 9d 2f 64
        E 2992 87 4f 64
        E 0 97 4e 64
        E 2990 8e 4c 64
        E 0 9e 4b 64
        E 2993 87 4e 64
        E 0 8e 4b 64
        E 0 88 47 64
        E 0 8d 2f 64
        E 0 97 50 64
        E 0 9e 4c 64
        E 0 98 47 64
        E 0 9d 28 64
        E 13466 87 50 64
        E 0 8e 4c 64
        E 0 88 47 64
        E 0 8d 28 64
        E 5985 98 3e 64
        E 0 9d 2f 64
        E 504 88 3e 64
        E 0 98 42 64
        E 506 88 42 64
        E 0 8d 2f 64
        E 0 98 46 64
        E 0 9d 36 64
        E 504 88 46 64
        E 0 8d 36 64
        E 0 98 42 64
        E 0 9d 2f 64
        E 505 88 42 64
        E 0 98 3e 64
        E 506 88 3e 64
        E 0 8d 2f 64
        E 0 98 3d 64
        E 0 9d 36 64
        E 504 88 3d 64
        E 0 8d 36 64
        E 0 98 3b 64
        E 0 9d 2f 64
        E 1013 88 3b 64
        E 0 8d 2f 64
        E 0 98 36 64
        E 0 9d 2e 64
        E 504 88 36 64
        E 0 8d 2e 64
        E 0 98 3b 64
        E 0 9d 2f 64
        E 254 88 3b 64
        E 0 8d 2f 64
        E 0 98 3d 64
        E 0 9d 31 64
        E 251 88 3d 64
        E 0 8d 31 64
        E 1 98 3e 64
        E 0 9d 32 64
        E 503 88 3e 64
        E 0 8d 32 64
        E 0 98 3d 64
        E 0 9d 31 64
        E 507 88 3d 64
        E 0 8d 31 64
        E 0 98 3b 64
        E 0 9d 2f 64
        E 253 88 3b 64
        E 0 8d 2f 64
        E 0 98 3d 64
        E 0 9d 31 64
        E 254 88 3d 64
        E 0 8d 31 64
        E 0 98 3e 64
        E 0 9d 32 64
        E 504 88 3e 64
        E 0 8d 32 64
        E 0 98 3d 64
        E 0 9d 31 64
        E 504 88 3d 64
        E 0 8d 31 64
        E 0 98 3b 64
        E 0 9d 2f 64
        E 253 88 3b 64
        E 0 8d 2f 64
        E 0 98 3d 64
        E 0 9d 31 64
        E 253 88 3d 64
        E 0 8d 31 64
        E 0 98 3e 64
        E 0 9d 32 64
        E 504 88 3e 64
        E 0 8d 32 64
        E 0 98 40 64
        E 0 9d 34 64
        E 505 88 40 64
        E 0 8d 34 64
        E 0 98 42 64
        E 0 9d 36 64
        E 1516 88 42 64
        E 0 8d 36 64
        E 0 98 3f 64
        E 0 9d 3b 64
        E 252 88 3f 64
        E 0 8d 3b 64
        E 0 98 40 64
        E 0 9d 3d 64
        E 254 88 40 64
        E 0 8d 3d 64
        E 0 98 42 64
        E 0 9d 3f 64
        E 506 88 42 64
        E 0 8d 3f 64
        E 0 98 3f 64
        E 0 9d 3b 64
        E 504 88 3f 64
        E 0 8d 3b 64
        E 0 98 3b 64
        E 0 9d 34 64
        E 504 88 3b 64
        E 1 98 47 64
        E 506 88 47 64
        E 0 98 43 64
        E 507 88 43 64
        E 0 8d 34 64
        E 0 98 40 64
        E 0 9d 39 64
        E 249 88 40 64
        E 0 8d 39 64
        E 1 98 3e 64
        E 0 9d 3b 64
        E 253 88 3e 64
        E 0 8d 3b 64
        E 0 98 40 64
        E 0 9d 3d 64
        E 507 88 40 64
        E 0 8d 3d 64
        E 0 98 3d 64
        E 0 9d 39 64
        E 504 88 3d 64
        E 0 8d 39 64
        E 0 98 39 64
        E 0 9d 32 64
        E 506 88 39 64
        E 0 98 45 64
        E 505 88 45 64
        E 0 8d 32 64
        E 0 98 42 64
        E 505 88 42 64
        E 0 98 3e 64
        E 0 9d 37 64
        E 251 88 3e 64
        E 0 8d 37 64
        E 1 98 3d 64
        E 0 9d 39 64
        E 254 88 3d 64
        E 0 8d 39 64
        E 0 98 3e 64
        E 0 9d 3b 64
        E 504 88 3e 64
        E 1 8d 3b 64
        E 0 98 3b 64
        E 0 9d 37 64
        E 505 88 3b 64
        E 0 8d 37 64
        E 0 98 3a 64
        E 0 9d 31 64
        E 1011 88 3a 64
        E 0 8d 31 64
        E 505 98 49 64
        E 0 9d 36 64
        E 251 88 49 64
        E 0 8d 36 64
        E 1 98 47 64
        E 0 9d 38 64
        E 253 88 47 64
        E 0 8d 38 64
        E 1 98 49 64
        E 0 9d 3a 64
        E 505 88 49 64
        E 0 8d 3a 64
        E 0 98 46 64
        E 0 9d 36 64
        E 504 88 46 64
        E 0 8d 36 64
        E 0 98 42 64
        E 0 9d 32 64
        E 253 88 42 64
        E 0 8d 32 64
        E 0 98 40 64
        E 0 9d 31 64
        E 251 88 40 64
        E 0 8d 31 64
        E 0 98 3e 64
        E 0 9d 2f 64
        E 506 88 3e 64
        E 0 8d 2f 64
        E 0 98 47 64
        E 0 9d 32 64
        E 509 88 47 64
        E 0 8d 32 64
        E 0 98 47 64
        E 0 9d 34 64
        E 502 88 47 64
        E 0 8d 34 64
        E 1 98 47 64
        E 0 9d 32 64
        E 1009 88 47 64
        E 0 8d 32 64
        E 0 98 42 64
        E 0 9d 32 64
        E 254 88 42 64
        E 0 8d 32 64
        E 0 98 40 64
        E 1 9d 31 64
        E 250 88 40 64
        E 0 8d 31 64
        E 0 98 3e 64
        E 0 9d 2f 64
        E 505 88 3e 64
        E 0 8d 2f 64
        E 0 98 42 64
        E 0 9d 32 64
        E 507 88 42 64
        E 0 8d 32 64
        E 0 98 43 64
        E 0 9d 34 64
        E 506 88 43 64
        E 0 8d 34 64
        E 0 98 42 64
        E 0 9d 32 64
        E 1009 88 42 64
        E 0 8d 32 64
        E 0 98 3b 64
        E 0 9d 34 64
        E 504 88 3b 64
        E 0 8d 34 64
        E 1 98 47 64
        E 0 9d 32 64
        E 1012 88 47 64
        E 0 8d 32 64
        E 0 98 3d 64
        E 0 9d 36 64
        E 252 8d 36 64
        E 0 9d 37 64
        E 254 8d 37 64
        E 0 9d 36 64
        E 251 8d 36 64
        E 0 9d 34 64
        E 253 88 3d 64
        E 0 8d 34 64
        E 0 98 42 64
        E 0 9d 32 64
        E 251 8d 32 64
        E 0 9d 31 64
        E 254 88 42 64
        E 0 8d 31 64
        E 0 98 42 64
        E 0 9d 2f 64
        E 253 88 42 64
        E 0 8d 2f 64
        E 0 98 43 64
        E 0 9d 34 64
        E 252 88 43 64
        E 0 8d 34 64
        E 1 98 3a 64
        E 0 9d 36 64
        E 504 88 3a 64
        E 0 8d 36 64
        E 0 98 42 64
        E 0 9d 2a 64
        E 504 88 42 64
        E 0 8d 2a 64
        E 0 98 47 64
        E 0 9d 3b 64
        E 508 88 47 64
        E 0 8d 3b 64
        E 0 98 45 64
        E 0 9d 39 64
        E 506 88 45 64
        E 0 8d 39 64
        E 1 98 43 64
        E 0 9d 37 64
        E 503 88 43 64
        E 0 8d 37 64
        E 0 98 42 64
        E 0 9d 36 64
        E 504 88 42 64
        E 1 8d 36 64
        E 0 98 40 64
        E 0 9d 34 64
        E 505 88 40 64
        E 0 8d 34 64
        E 0 98 3e 64
        E 0 9d 32 64
        E 506 88 3e 64
        E 0 8d 32 64
        E 0 98 43 64
        E 0 9d 37 64
        E 505 88 43 64
        E 0 8d 37 64
        E 0 98 42 64
        E 0 9d 36 64
        E 506 88 42 64
        E 0 8d 36 64
        E 0 98 40 64
        E 0 9d 34 64
        E 506 88 40 64
        E 0 8d 34 64
        E 0 98 3e 64
        E 0 9d 32 64
        E 504 88 3e 64
        E 0 8d 32 64
        E 0 98 3d 64
        E 0 9d 31 64
        E 504 88 3d 64
        E 0 8d 31 64
        E 0 98 3b 64
        E 0 9d 2f 64
        E 506 88 3b 64
        E 0 8d 2f 64
        E 0 98 3e 64
        E 0 9d 32 64
        E 254 88 3e 64
        E 0 8d 32 64
        E 0 98 40 64
        E 0 9d 34 64
        E 253 88 40 64
        E 0 8d 34 64
        E 0 98 42 64
        E 0 9d 36 64
        E 504 88 42 64
        E 0 8d 36 64
        E 0 98 36 64
        E 0 9d 2a 64
        E 505 88 36 64
        E 0 8d 2a 64
        E 0 98 3b 64
        E 0 9d 2f 64
        E 1010 88 3b 64
        E 0 8d 2f 64
        E 0 9c 47 64
        E 506 8c 47 64
        E 0 9c 42 64
        E 1516 8c 42 64
        E 0 98 3b 64
        E 0 9c 42 64
        E 251 88 3b 64
        E 0 98 3d 64
        E 252 88 3d 64
        E 1 98 3e 64
        E 506 88 3e 64
        E 0 98 3d 64
        E 504 88 3d 64
        E 0 8c 42 64
        E 0 98 3b 64
        E 0 9c 42 64
        E 253 88 3b 64
        E 0 98 3d 64
        E 253 88 3d 64
        E 0 98 3e 64
        E 507 88 3e 64
        E 0 98 3d 64
        E 505 88 3d 64
        E 0 8c 42 64
        E 0 98 3b 64
        E 0 9c 42 64
        E 251 88 3b 64
        E 0 98 3d 64
        E 253 88 3d 64
        E 0 98 3e 64
        E 505 88 3e 64
        E 0 8c 42 64
        E 0 98 3d 64
        E 0 9c 42 64
        E 506 88 3d 64
        E 0 8c 42 64
        E 0 98 3b 64
        E 0 9c 47 64
        E 0 9d 2f 64
        E 252 8c 47 64
        E 1 9c 49 64
        E 252 8c 49 64
        E 0 9c 4a 64
        E 503 88 3b 64
        E 0 8c 4a 64
        E 0 8d 2f 64
        E 1 9c 49 64
        E 0 9d 2e 64
        E 507 8c 49 64
        E 0 8d 2e 64
        E 0 9c 47 64
        E 0 9d 2f 64
        E 504 8c 47 64
        E 0 8d 2f 64
        E 1 9c 45 64
        E 0 9d 31 64
        E 505 8c 45 64
        E 1 9c 43 64
        E 504 8c 43 64
        E 0 8d 31 64
        E 0 9c 42 64
        E 0 9d 32 64
        E 253 8d 32 64
        E 0 9d 31 64
        E 253 8c 42 64
        E 0 8d 31 64
        E 1 9c 47 64
        E 0 9d 2f 64
        E 503 8c 47 64
        E 0 8d 2f 64
        E 0 9c 49 64
        E 0 9d 2e 64
        E 507 8c 49 64
        E 0 8d 2e 64
        E 0 9c 4a 64
        E 0 9d 2f 64
        E 504 8c 4a 64
        E 0 9c 49 64
        E 505 8c 49 64
        E 0 9c 47 64
        E 505 8c 47 64
        E 0 8d 2f 64
        E 0 98 3b 64
        E 0 9d 2f 64
        E 255 88 3b 64
        E 0 8d 2f 64
        E 0 98 3d 64
        E 0 9d 31 64
        E 250 88 3d 64
        E 0 8d 31 64
        E 0 98 3e 64
        E 0 9d 32 64
        E 505 88 3e 64
        E 0 8d 32 64
        E 1 98 3d 64
        E 0 9d 31 64
        E 508 88 3d 64
        E 1 8d 31 64
        E 0 98 3b 64
        E 0 9d 2f 64
        E 248 88 3b 64
        E 1 8d 2f 64
        E 0 98 3d 64
        E 0 9d 31 64
        E 253 88 3d 64
        E 0 8d 31 64
        E 0 98 3e 64
        E 1 9d 32 64
        E 504 88 3e 64
        E 0 8d 32 64
        E 0 98 3d 64
        E 1 9d 31 64
        E 504 88 3d 64
        E 0 8d 31 64
        E 0 98 3b 64
        E 0 9c 42 64
        E 0 9d 2f 64
        E 1011 88 3b 64
        E 0 8c 42 64
        E 0 8d 2f 64
        E 0 9c 42 64
        E 504 8c 42 64
        E 0 98 40 64
        E 0 9c 43 64
        E 254 88 40 64
        E 0 98 42 64
        E 254 88 42 64
        E 0 98 43 64
        E 505 88 43 64
        E 0 98 42 64
        E 504 88 42 64
        E 0 8c 43 64
        E 0 98 40 64
        E 0 9c 43 64
        E 253 88 40 64
        E 0 98 42 64
        E 252 88 42 64
        E 0 98 43 64
        E 505 88 43 64
        E 0 98 40 64
        E 505 88 40 64
        E 0 8c 43 64
        E 0 98 39 64
        E 0 9c 43 64
        E 0 9d 2d 64
        E 253 8c 43 64
        E 0 9c 45 64
        E 254 8c 45 64
        E 0 9c 47 64
        E 505 88 39 64
        E 0 8c 47 64
        E 0 8d 2d 64
        E 0 9c 45 64
        E 505 8c 45 64
        E 0 9c 43 64
        E 0 9d 2d 64
        E 251 8c 43 64
        E 0 9c 45 64
        E 254 8c 45 64
        E 0 9c 47 64
        E 505 8c 47 64
        E 0 8d 2d 64
        E 0 9c 43 64
        E 504 8c 43 64
        E 0 98 3e 64
        E 1 9c 42 64
        E 0 9d 32 64
        E 253 88 3e 64
        E 1 98 40 64
        E 252 88 40 64
        E 0 98 42 64
        E 505 88 42 64
        E 0 8d 32 64
        E 0 98 40 64
        E 505 88 40 64
        E 0 8c 42 64
        E 0 98 3e 64
        E 0 9c 42 64
        E 251 88 3e 64
        E 1 98 40 64
        E 254 88 40 64
        E 0 98 42 64
        E 504 88 42 64
        E 0 98 3e 64
        E 504 88 3e 64
        E 0 8c 42 64
        E 0 98 37 64
        E 0 9c 42 64
        E 0 9d 2b 64
        E 254 8c 42 64
        E 1 9c 43 64
        E 252 8c 43 64
        E 1 9c 45 64
        E 506 88 37 64
        E 0 8c 45 64
        E 0 8d 2b 64
        E 0 9c 43 64
        E 504 8c 43 64
        E 0 9c 42 64
        E 0 9d 37 64
        E 251 8c 42 64
        E 0 9c 43 64
        E 254 8c 43 64
        E 0 9c 45 64
        E 505 8c 45 64
        E 0 8d 37 64
        E 0 9c 42 64
        E 506 8c 42 64
        E 1 98 40 64
        E 0 9c 40 64
        E 0 9d 37 64
        E 251 88 40 64
        E 0 98 42 64
        E 253 88 42 64
        E 0 98 43 64
        E 506 88 43 64
        E 0 8d 37 64
        E 0 98 42 64
        E 504 88 42 64
        E 0 8c 40 64
        E 0 98 40 64
        E 1 9c 40 64
        E 250 88 40 64
        E 1 98 42 64
        E 255 88 42 64
        E 0 98 43 64
        E 504 88 43 64
        E 0 98 40 64
        E 506 88 40 64
        E 0 8c 40 64
        E 0 98 3a 64
        E 0 9c 40 64
        E 0 9d 36 64
        E 251 8c 40 64
        E 1 9c 42 64
        E 252 8c 42 64
        E 0 9c 43 64
        E 507 88 3a 64
        E 1 8c 43 64
        E 0 8d 36 64
        E 0 9c 42 64
        E 504 8c 42 64
        E 0 9c 40 64
        E 0 9d 36 64
        E 251 8c 40 64
        E 1 9c 42 64
        E 252 8c 42 64
        E 0 9c 43 64
        E 504 8c 43 64
        E 0 8d 36 64
        E 1 9c 40 64
        E 505 8c 40 64
        E 0 9c 3e 64
        E 0 9d 2f 64
        E 506 8c 3e 64
        E 0 9c 3d 64
        E 504 8c 3d 64
        E 0 8d 2f 64
        E 0 9c 3e 64
        E 507 8c 3e 64
        E 0 98 3b 64
        E 1 9d 2f 64
        E 250 88 3b 64
        E 0 8d 2f 64
        E 0 98 3d 64
        E 0 9d 31 64
        E 254 88 3d 64
        E 0 8d 31 64
        E 0 98 3e 64
        E 0 9d 32 64
        E 505 88 3e 64
        E 0 8d 32 64
        E 0 98 3d 64
        E 1 9d 31 64
        E 505 88 3d 64
        E 0 8d 31 64
        E 0 98 3b 64
        E 0 9c 47 64
        E 0 9d 2f 64
        E 253 88 3b 64
        E 0 8d 2f 64
        E 1 98 3d 64
        E 0 9d 31 64
        E 251 88 3d 64
        E 0 8d 31 64
        E 1 98 3e 64
        E 0 9d 32 64
        E 503 88 3e 64
        E 0 8c 47 64
        E 0 8d 32 64
        E 0 98 3b 64
        E 0 9c 47 64
        E 0 9d 2f 64
        E 506 88 3b 64
        E 0 8c 47 64
        E 0 8d 2f 64
        E 0 98 41 63
        E 0 9c 47 64
        E 0 9d 31 64
        E 506 8c 47 64
        E 0 8d 31 64
        E 0 9c 45 64
        E 0 9d 33 64
        E 505 88 41 63
        E 0 8c 45 64
        E 0 8d 33 64
        E 0 9c 44 64
        E 1 9d 35 63
        E 504 8c 44 64
        E 0 8d 35 63
        E 0 9c 45 64
        E 0 9d 36 64
        E 252 8d 36 64
        E 0 9d 38 64
        E 253 8c 45 64
        E 0 8d 38 64
        E 0 9c 44 64
        E 0 9d 39 64
        E 504 8c 44 64
        E 0 8d 39 64
        E 0 9c 42 64
        E 0 9d 3b 64
        E 507 8c 42 64
        E 0 8d 3b 64
        E 0 9c 41 63
        E 0 9d 3d 64
        E 757 8d 3d 64
        E 0 9d 3b 64
        E 253 8c 41 63
        E 0 8d 3b 64
        E 0 9c 42 64
        E 0 9d 39 64
        E 251 8d 39 64
        E 1 9d 38 64
        E 253 8c 42 64
        E 0 8d 38 64
        E 0 9c 42 64
        E 0 9d 36 64
        E 505 8c 42 64
        E 0 8d 36 64
        E 0 9c 44 64
        E 0 9d 3d 64
        E 505 8d 3d 64
        E 0 9d 31 64
        E 507 8c 44 64
        E 0 8d 31 64
        E 0 98 45 64
        E 0 9c 42 64
        E 0 9d 36 64
        E 505 88 45 64
        E 0 98 49 64
        E 505 88 49 64
        E 0 8d 36 64
        E 1 98 41 63
        E 1 9d 3d 64
        E 504 88 41 63
        E 0 8c 42 64
        E 0 8d 3d 64
        E 0 98 3d 64
        E 0 9d 36 64
        E 504 88 3d 64
        E 0 98 45 64
        E 504 88 45 64
        E 1 8d 36 64
        E 0 98 41 63
        E 0 9d 3d 64
        E 505 88 41 63
        E 0 8d 3d 64
        E 0 98 3d 64
        E 1 9d 36 64
        E 1009 88 3d 64
        E 0 8d 36 64
        E 0 98 3d 64
        E 0 9d 31 64
        E 506 88 3d 64
        E 1 8d 31 64
        E 0 98 42 64
        E 0 9d 36 64
        E 252 88 42 64
        E 0 8d 36 64
        E 0 98 44 64
        E 1 9d 38 64
        E 252 88 44 64
        E 0 8d 38 64
        E 0 98 45 64
        E 0 9d 39 64
        E 504 88 45 64
        E 0 8d 39 64
        E 0 98 44 64
        E 0 9d 38 64
        E 505 88 44 64
        E 0 8d 38 64
        E 0 98 42 64
        E 0 9d 36 64
        E 254 88 42 64
        E 0 8d 36 64
        E 1 98 44 64
        E 0 9d 38 64
        E 253 88 44 64
        E 0 8d 38 64
        E 0 98 45 64
        E 0 9d 39 64
        E 505 88 45 64
        E 0 8d 39 64
        E 1 98 44 64
        E 0 9d 38 64
        E 503 88 44 64
        E 0 8d 38 64
        E 0 98 42 64
        E 0 9d 36 64
        E 252 88 42 64
        E 0 8d 36 64
        E 0 98 44 64
        E 0 9d 38 64
        E 254 88 44 64
        E 0 8d 38 64
        E 0 98 45 64
        E 0 9d 39 64
        E 503 88 45 64
        E 0 8d 39 64
        E 1 98 47 64
        E 0 9d 3b 64
        E 504 88 47 64
        E 0 8d 3b 64
        E 0 98 49 64
        E 0 9c 44 64
        E 1 9d 3d 64
        E 1517 88 49 64
        E 0 8c 44 64
        E 0 8d 3d 64
        E 0 9c 44 64
        E 0 9d 35 63
        E 252 8d 35 63
        E 0 9d 36 64
        E 253 8d 36 64
        E 0 9d 38 64
        E 505 8d 38 64
        E 0 9d 36 64
        E 504 8c 44 64
        E 0 8d 36 64
        E 0 9c 3d 64
        E 0 9d 35 63
        E 507 8d 35 63
        E 0 9d 33 64
        E 506 8c 3d 64
        E 0 8d 33 64
        E 0 9c 47 64
        E 0 9d 31 64
        E 505 8c 47 64
        E 0 8d 31 64
        E 0 9c 45 64
        E 0 9d 36 64
        E 506 8c 45 64
        E 0 9c 44 64
        E 503 8c 44 64
        E 0 9c 42 64
        E 506 8c 42 64
        E 0 8d 36 64
        E 0 9c 47 64
        E 1 9d 35 63
        E 252 8d 35 63
        E 1 9d 36 64
        E 250 8d 36 64
        E 0 9d 38 64
        E 506 8c 47 64
        E 0 8d 38 64
        E 0 9c 44 64
        E 0 9d 35 63
        E 507 8c 44 64
        E 0 8d 35 63
        E 0 98 42 64
        E 0 9c 45 64
        E 0 9d 36 64
        E 250 88 42 64
        E 0 98 44 64
        E 255 88 44 64
        E 0 98 45 64
        E 504 88 45 64
        E 0 8d 36 64
        E 0 98 44 64
        E 505 88 44 64
        E 0 8c 45 64
        E 0 98 42 64
        E 255 88 42 64
        E 0 98 44 64
        E 251 88 44 64
        E 0 98 45 64
        E 504 88 45 64
        E 0 98 44 64
        E 509 88 44 64
        E 0 98 42 64
        E 0 9c 45 64
        E 0 9d 36 64
        E 249 8d 36 64
        E 0 9d 37 64
        E 254 8d 37 64
        E 0 9d 39 64
        E 506 88 42 64
        E 0 8c 45 64
        E 0 8d 39 64
        E 0 9c 45 64
        E 0 9d 36 64
        E 504 8c 45 64
        E 0 8d 36 64
        E 0 9c 45 64
        E 0 9d 33 64
        E 254 8d 33 64
        E 0 9d 34 64
        E 252 8d 34 64
        E 1 9d 36 64
        E 503 8d 36 64
        E 0 9d 33 64
        E 506 8c 45 64
        E 0 8d 33 64
        E 0 9c 45 64
        E 1 9d 2f 64
        E 504 8c 45 64
        E 0 9c 43 64
        E 252 8c 43 64
        E 0 9c 42 64
        E 254 8c 42 64
        E 1 9c 40 64
        E 249 8c 40 64
        E 0 9c 3f 64
        E 256 8c 3f 64
        E 0 8d 2f 64
        E 0 9c 47 64
        E 0 9d 37 64
        E 252 8d 37 64
        E 0 9d 39 64
        E 251 8d 39 64
        E 0 9d 3b 64
        E 505 8d 3b 64
        E 0 9d 37 64
        E 507 8c 47 64
        E 0 8d 37 64
        E 0 9c 47 64
        E 0 9d 34 64
        E 505 8c 47 64
        E 0 9c 45 64
        E 252 8c 45 64
        E 1 9c 43 64
        E 253 8c 43 64
        E 0 9c 42 64
        E 251 8c 42 64
        E 0 9c 40 64
        E 253 8c 40 64
        E 0 8d 34 64
        E 0 9c 48 64
        E 0 9d 39 64
        E 253 8d 39 64
        E 0 9d 3b 64
        E 252 8d 3b 64
        E 0 9d 3c 64
        E 506 8d 3c 64
        E 0 9d 3b 64
        E 504 8c 48 64
        E 0 8d 3b 64
        E 0 9c 48 64
        E 0 9d 39 64
        E 253 8c 48 64
        E 1 9c 47 64
        E 253 8c 47 64
        E 0 9c 45 64
        E 251 8c 45 64
        E 0 9c 43 64
        E 254 8c 43 64
        E 0 9c 42 64
        E 251 8c 42 64
        E 0 9c 40 64
        E 255 8c 40 64
        E 0 8d 39 64
        E 0 9c 3f 64
        E 0 9d 3b 64
        E 249 8d 3b 64
        E 1 9d 39 64
        E 253 8c 3f 64
        E 0 8d 39 64
        E 0 9c 40 64
        E 1 9d 37 64
        E 253 8d 37 64
        E 0 9d 36 64
        E 252 8c 40 64
        E 1 8d 36 64
        E 0 9c 45 64
        E 0 9d 34 64
        E 252 8d 34 64
        E 0 9d 33 64
        E 253 8c 45 64
        E 0 8d 33 64
        E 0 9c 43 64
        E 0 9d 34 64
        E 253 8d 34 64
        E 0 9d 39 64
        E 252 8c 43 64
        E 0 8d 39 64
        E 0 9c 42 64
        E 1 9d 3b 64
        E 504 8d 3b 64
        E 0 9d 2f 64
        E 506 8c 42 64
        E 0 8d 2f 64
        E 0 98 43 64
        E 0 9c 40 64
        E 0 9d 34 64
        E 504 88 43 64
        E 0 98 47 64
        E 505 88 47 64
        E 0 8d 34 64
        E 0 98 3f 64
        E 0 9d 3b 64
        E 507 88 3f 64
        E 0 8c 40 64
        E 0 8d 3b 64
        E 0 98 3b 64
        E 0 9d 34 64
        E 504 88 3b 64
        E 1 98 43 64
        E 506 88 43 64
        E 0 8d 34 64
        E 1 98 3f 64
        E 0 9d 3b 64
        E 504 88 3f 64
        E 0 8d 3b 64
        E 0 98 3b 64
        E 0 9d 34 64
        E 1009 88 3b 64
        E 0 8d 34 64
        E 0 98 3b 64
        E 0 9d 2f 64
        E 505 88 3b 64
        E 0 8d 2f 64
        E 0 98 40 64
        E 0 9d 34 64
        E 253 88 40 64
        E 0 8d 34 64
        E 0 98 42 64
        E 0 9d 36 64
        E 254 88 42 64
        E 0 8d 36 64
        E 0 98 43 64
        E 0 9d 37 64
        E 506 88 43 64
        E 0 8d 37 64
        E 0 98 42 64
        E 1 9d 36 64
        E 503 88 42 64
        E 0 8d 36 64
        E 0 98 40 64
        E 0 9d 34 64
        E 252 88 40 64
        E 0 8d 34 64
        E 0 98 42 64
        E 0 9d 36 64
        E 253 88 42 64
        E 0 8d 36 64
        E 0 98 43 64
        E 1 9d 37 64
        E 504 88 43 64
        E 0 8d 37 64
        E 0 98 42 64
        E 0 9d 36 64
        E 506 88 42 64
        E 0 8d 36 64
        E 1 98 40 64
        E 0 9c 47 64
        E 0 9d 34 64
        E 504 8c 47 64
        E 0 9c 43 64
        E 506 88 40 64
        E 0 8c 43 64
        E 0 8d 34 64
        E 0 9c 42 64
        E 0 9d 36 64
        E 505 8c 42 64
        E 0 8d 36 64
        E 0 9c 40 64
        E 0 9d 37 64
        E 506 8c 40 64
        E 0 9c 42 64
        E 502 8c 42 64
        E 0 8d 37 64
        E 1 9c 3e 64
        E 0 9d 38 64
        E 505 8c 3e 64
        E 0 8d 38 64
        E 0 9c 3d 64
        E 0 9d 39 64
        E 254 8c 3d 64
        E 1 9c 3e 64
        E 251 8c 3e 64
        E 0 9c 40 64
        E 505 8c 40 64
        E 0 8d 39 64
        E 0 9c 42 64
        E 0 9d 32 64
        E 506 8c 42 64
        E 0 8d 32 64
        E 0 9c 40 64
        E 0 9d 31 64
        E 252 8c 40 64
        E 0 8d 31 64
        E 1 9c 42 64
        E 0 9d 32 64
        E 251 8c 42 64
        E 0 8d 32 64
        E 0 9c 43 64
        E 1 9d 34 64
        E 506 8c 43 64
        E 0 8d 34 64
        E 0 9c 45 64
        E 0 9d 31 64
        E 504 8c 45 64
        E 0 8d 31 64
        E 0 9c 42 64
        E 0 9d 32 64
        E 254 8c 42 64
        E 0 9c 40 64
        E 251 8c 40 64
        E 0 9c 3e 64
        E 254 8c 3e 64
        E 0 9c 40 64
        E 250 8c 40 64
        E 0 8d 32 64
        E 0 9c 42 64
        E 255 8c 42 64
        E 0 9c 43 64
        E 253 8c 43 64
        E 0 9c 45 64
        E 0 9d 32 64
        E 505 8c 45 64
        E 0 9c 47 64
        E 252 8c 47 64
        E 0 9c 49 64
        E 253 8c 49 64
        E 0 8d 32 64
        E 0 9c 4a 64
        E 505 8c 4a 64
        E 0 9c 3e 64
        E 0 9d 32 64
        E 507 8c 3e 64
        E 0 8d 32 64
        E 0 9c 40 64
        E 0 9d 39 64
        E 502 8d 39 64
        E 0 9d 2d 64
        E 508 8c 40 64
        E 0 8d 2d 64
        E 0 98 42 64
        E 0 9c 3e 64
        E 0 9d 32 64
        E 505 88 42 64
        E 0 98 45 64
        E 506 88 45 64
        E 0 8d 32 64
        E 0 98 3d 64
        E 0 9d 39 64
        E 503 88 3d 64
        E 0 8c 3e 64
        E 0 8d 39 64
        E 0 98 39 64
        E 0 9d 32 64
        E 506 88 39 64
        E 0 98 42 64
        E 504 88 42 64
        E 0 8d 32 64
        E 0 98 3d 64
        E 0 9d 39 64
        E 506 88 3d 64
        E 0 8d 39 64
        E 0 98 39 64
        E 1 9d 32 64
        E 1010 88 39 64
        E 0 8d 32 64
        E 0 98 39 64
        E 0 9d 2d 64
        E 507 88 39 64
        E 0 8d 2d 64
        E 0 98 3e 64
        E 0 9d 32 64
        E 252 88 3e 64
        E 0 8d 32 64
        E 0 98 40 64
        E 0 9d 34 64
        E 252 88 40 64
        E 0 8d 34 64
        E 0 98 42 64
        E 0 9d 36 64
        E 503 88 42 64
        E 1 8d 36 64
        E 0 98 40 64
        E 1 9d 34 64
        E 505 88 40 64
        E 0 8d 34 64
        E 0 98 3e 64
        E 0 9d 32 64
        E 252 88 3e 64
        E 0 8d 32 64
        E 0 98 40 64
        E 1 9d 34 64
        E 254 88 40 64
        E 0 8d 34 64
        E 0 98 42 64
        E 0 9d 36 64
        E 505 88 42 64
        E 0 8d 36 64
        E 0 98 40 64
        E 0 9d 34 64
        E 504 88 40 64
        E 0 8d 34 64
        E 0 98 3e 64
        E 0 9c 42 64
        E 0 9d 32 64
        E 1011 88 3e 64
        E 0 8d 32 64
        E 504 8c 42 64
        E 0 9c 42 64
        E 1517 8c 42 64
        E 0 98 3b 64
        E 0 9c 42 64
        E 250 88 3b 64
        E 1 98 3d 64
        E 254 88 3d 64
        E 0 98 3e 64
        E 505 88 3e 64
        E 0 98 3d 64
        E 503 88 3d 64
        E 0 8c 42 64
        E 0 98 3b 64
        E 0 9c 42 64
        E 256 88 3b 64
        E 0 98 3d 64
        E 250 88 3d 64
        E 0 98 3e 64
        E 507 88 3e 64
        E 0 98 3d 64
        E 506 88 3d 64
        E 0 8c 42 64
        E 0 98 3b 64
        E 0 9c 42 64
        E 251 88 3b 64
        E 0 98 3d 64
        E 253 88 3d 64
        E 0 98 3e 64
        E 505 88 3e 64
        E 0 8c 42 64
        E 0 98 3d 64
        E 0 9c 42 64
        E 506 88 3d 64
        E 0 8c 42 64
        E 0 98 3b 64
        E 0 9c 47 64
        E 0 9d 2f 64
        E 253 8c 47 64
        E 0 9c 49 64
        E 252 8c 49 64
        E 0 9c 4a 64
        E 505 88 3b 64
        E 0 8c 4a 64
        E 0 8d 2f 64
        E 0 9c 49 64
        E 0 9d 2e 64
        E 505 8c 49 64
        E 0 8d 2e 64
        E 0 9c 47 64
        E 1 9d 2f 64
        E 506 8c 47 64
        E 0 8d 2f 64
        E 0 9c 45 64
        E 0 9d 31 64
        E 504 8c 45 64
        E 1 9c 43 64
        E 504 8c 43 64
        E 0 8d 31 64
        E 0 9c 42 64
        E 1 9d 32 64
        E 252 8d 32 64
        E 0 9d 31 64
        E 252 8c 42 64
        E 0 8d 31 64
        E 0 9c 47 64
        E 0 9d 2f 64
        E 506 8c 47 64
        E 0 8d 2f 64
        E 0 9c 49 64
        E 0 9d 2e 64
        E 507 8c 49 64
        E 0 8d 2e 64
        E 0 9c 4a 64
        E 0 9d 2f 64
        E 503 8c 4a 64
        E 0 9c 49 64
        E 505 8c 49 64
        E 0 9c 47 64
        E 506 8c 47 64
        E 0 8d 2f 64
        E 0 98 3b 64
        E 0 9d 2f 64
        E 253 88 3b 64
        E 0 8d 2f 64
        E 0 98 3d 64
        E 0 9d 31 64
        E 252 88 3d 64
        E 0 8d 31 64
        E 1 98 3e 64
        E 0 9c 42 64
        E 0 9d 32 64
        E 505 88 3e 64
        E 0 8c 42 64
        E 0 8d 32 64
        E 0 98 3b 64
        E 0 9c 47 64
        E 0 9d 2f 64
        E 505 88 3b 64
        E 0 8c 47 64
        E 0 8d 2f 64
        E 0 98 40 64
        E 0 9c 43 64
        E 0 9d 34 64
        E 253 88 40 64
        E 0 8d 34 64
        E 0 98 42 64
        E 1 9d 36 64
        E 253 88 42 64
        E 0 8d 36 64
        E 0 98 43 64
        E 0 9d 37 64
        E 503 88 43 64
        E 0 8d 37 64
        E 0 98 42 64
        E 0 9d 36 64
        E 505 88 42 64
        E 0 8c 43 64
        E 0 8d 36 64
        E 0 98 40 64
        E 0 9c 43 64
        E 0 9d 34 64
        E 504 8c 43 64
        E 1 9c 47 64
        E 506 88 40 64
        E 1 8c 47 64
        E 0 8d 34 64
        E 2 9c 45 64
        E 503 8c 45 64
        E 0 98 3e 64
        E 0 9c 44 64
        E 0 9d 32 64
        E 505 8c 44 64
        E 0 9c 42 64
        E 505 88 3e 64
        E 0 8c 42 64
        E 0 8d 32 64
        E 0 9c 40 64
        E 506 8c 40 64
        E 0 98 39 64
        E 0 9c 45 64
        E 0 9d 2d 64
        E 251 88 39 64
        E 0 8d 2d 64
        E 0 98 3b 64
        E 1 9d 2f 64
        E 252 88 3b 64
        E 1 8d 2f 64
        E 0 98 3d 64
        E 1 9d 31 64
        E 502 88 3d 64
        E 0 8d 31 64
        E 1 98 3b 64
        E 0 9d 2f 64
        E 506 88 3b 64
        E 0 8c 45 64
        E 0 8d 2f 64
        E 0 98 39 64
        E 0 9c 45 64
        E 0 9d 2d 64
        E 505 8c 45 64
        E 0 9c 49 64
        E 505 88 39 64
        E 0 8c 49 64
        E 0 8d 2d 64
        E 1 9c 47 64
        E 506 8c 47 64
        E 0 98 42 64
        E 0 9c 46 64
        E 0 9d 36 64
        E 503 8c 46 64
        E 1 9c 44 64
        E 504 88 42 64
        E 0 8c 44 64
        E 0 8d 36 64
        E 1 98 40 64
        E 0 9c 42 64
        E 0 9d 34 64
        E 505 88 40 64
        E 0 8c 42 64
        E 0 8d 34 64
        E 0 98 3b 64
        E 0 9c 47 64
        E 0 9d 2f 64
        E 252 88 3b 64
        E 0 8d 2f 64
        E 0 98 3d 64
        E 1 9d 31 64
        E 254 88 3d 64
        E 0 8d 31 64
        E 0 98 3e 64
        E 0 9d 32 64
        E 504 88 3e 64
        E 0 8c 47 64
        E 0 8d 32 64
        E 0 98 3d 64
        E 0 9c 42 64
        E 0 9d 31 64
        E 504 88 3d 64
        E 0 8c 42 64
        E 0 8d 31 64
        E 0 98 3b 64
        E 0 9d 2f 64
        E 255 88 3b 64
        E 0 8d 2f 64
        E 1 98 3d 64
        E 0 9d 31 64
        E 250 88 3d 64
        E 0 8d 31 64
        E 0 98 3e 64
        E 0 9d 32 64
        E 506 88 3e 64
        E 0 8d 32 64
        E 0 98 3d 64
        E 0 9d 31 64
        E 504 88 3d 64
        E 0 8d 31 64
        E 0 98 3b 64
        E 0 9d 2f 64
        E 253 88 3b 64
        E 0 8d 2f 64
        E 0 98 3d 64
        E 1 9d 31 64
        E 253 88 3d 64
        E 0 8d 31 64
        E 0 98 3e 64
        E 0 9d 32 64
        E 504 88 3e 64
        E 0 8d 32 64
        E 1 98 3b 64
        E 0 9d 2f 64
        E 506 88 3b 64
        E 0 8d 2f 64
        E 0 98 43 64
        E 0 9c 40 64
        E 0 9d 34 64
        E 249 8c 40 64
        E 0 9c 42 64
        E 254 8c 42 64
        E 0 9c 43 64
        E 507 88 43 64
        E 0 8c 43 64
        E 0 8d 34 64
        E 0 98 3b 64
        E 0 9c 42 64
        E 504 88 3b 64
        E 0 8c 42 64
        E 0 98 40 64
        E 0 9c 40 64
        E 253 8c 40 64
        E 0 9c 42 64
        E 254 8c 42 64
        E 1 9c 43 64
        E 503 88 40 64
        E 0 8c 43 64
        E 0 98 3b 64
        E 0 9c 42 64
        E 507 88 3b 64
        E 0 8c 42 64
        E 0 98 40 64
        E 0 9c 40 64
        E 250 8c 40 64
        E 0 9c 42 64
        E 253 8c 42 64
        E 1 9c 43 64
        E 505 88 40 64
        E 0 8c 43 64
        E 0 98 40 64
        E 0 9c 40 64
        E 504 88 40 64
        E 0 8c 40 64
        E 0 98 42 64
        E 0 9c 46 64
        E 759 88 42 64
        E 0 98 40 64
        E 253 88 40 64
        E 0 8c 46 64
        E 0 98 3e 64
        E 0 9c 47 64
        E 252 88 3e 64
        E 0 98 3d 64
        E 253 88 3d 64
        E 0 8c 47 64
        E 0 98 3b 64
        E 0 9c 47 64
        E 253 88 3b 64
        E 0 8c 47 64
        E 0 98 40 64
        E 0 9c 44 64
        E 253 88 40 64
        E 0 8c 44 64
        E 0 98 42 64
        E 0 9c 46 64
        E 505 88 42 64
        E 0 98 36 64
        E 504 88 36 64
        E 1 8c 46 64
        E 0 98 3b 64
        E 0 9c 47 64
        E 0 9d 2f 64
        E 253 88 3b 64
        E 0 8d 2f 64
        E 0 98 3d 64
        E 0 9d 31 64
        E 251 88 3d 64
        E 1 8d 31 64
        E 0 98 3e 64
        E 0 9d 32 64
        E 505 88 3e 64
        E 0 8d 32 64
        E 1 98 3d 64
        E 0 9d 31 64
        E 505 88 3d 64
        E 0 8c 47 64
        E 0 8d 31 64
        E 0 98 3b 64
        E 0 9d 2f 64
        E 251 88 3b 64
        E 0 8d 2f 64
        E 1 98 3d 64
        E 0 9d 31 64
        E 253 88 3d 64
        E 0 8d 31 64
        E 0 98 3e 64
        E 1 9d 32 64
        E 505 88 3e 64
        E 0 8d 32 64
        E 0 98 3d 64
        E 0 9d 31 64
        E 504 88 3d 64
        E 0 8d 31 64
        E 0 98 3b 64
        E 0 9d 2f 64
        E 252 88 3b 64
        E 0 8d 2f 64
        E 1 98 3d 64
        E 0 9d 31 64
        E 252 88 3d 64
        E 0 8d 31 64
        E 1 98 3e 64
        E 0 9d 32 64
        E 503 88 3e 64
        E 0 8d 32 64
        E 0 98 3d 64
        E 0 9d 31 64
        E 509 88 3d 64
        E 0 8d 31 64
        E 0 98 3b 64
        E 0 9c 47 64
        E 0 9d 2f 64
        E 249 8d 2f 64
        E 1 9d 31 64
        E 255 8c 47 64
        E 0 8d 31 64
        E 0 9c 42 64
        E 0 9d 32 64
        E 503 88 3b 64
        E 0 8d 32 64
        E 0 9d 2f 64
        E 507 8c 42 64
        E 0 8d 2f 64
        E 0 9c 43 64
        E 0 9d 34 64
        E 505 8c 43 64
        E 0 8d 34 64
        E 0 9c 42 64
        E 0 9d 2f 64
        E 1011 8c 42 64
        E 0 8d 2f 64
        E 0 9c 47 64
        E 0 9d 2f 64
        E 251 8d 2f 64
        E 0 9d 31 64
        E 253 8c 47 64
        E 1 8d 31 64
        E 0 9c 3e 64
        E 0 9d 32 64
        E 504 8d 32 64
        E 0 9d 2f 64
        E 506 8c 3e 64
        E 0 8d 2f 64
        E 0 9c 40 64
        E 0 9d 34 64
        E 505 8c 40 64
        E 0 8d 34 64
        E 0 9c 3e 64
        E 0 9d 2f 64
        E 1011 8c 3e 64
        E 0 8d 2f 64
        E 0 9c 43 64
        E 0 9d 34 64
        E 504 8c 43 64
        E 1 9c 42 64
        E 504 8c 42 64
        E 0 9c 40 64
        E 506 8c 40 64
        E 0 8d 34 64
        E 0 9c 46 64
        E 0 9d 36 64
        E 757 8d 36 64
        E 0 9d 34 64
        E 253 8c 46 64
        E 0 8d 34 64
        E 0 9c 47 64
        E 0 9d 32 64
        E 506 8c 47 64
        E 0 8d 32 64
        E 0 9c 47 64
        E 0 9d 34 64
        E 505 8c 47 64
        E 0 8d 34 64
        E 0 9c 46 64
        E 0 9d 36 64
        E 506 8d 36 64
        E 0 9d 2a 64
        E 504 8c 46 64
        E 0 8d 2a 64
        E 0 98 42 64
        E 0 9c 47 64
        E 0 9d 2f 64
        E 255 88 42 64
        E 0 8d 2f 64
        E 0 98 40 64
        E 0 9d 31 64
        E 252 88 40 64
        E 0 8d 31 64
        E 0 98 42 64
        E 0 9d 33 64
        E 503 88 42 64
        E 0 8d 33 64
        E 0 98 3f 64
        E 0 9d 2f 64
        E 506 88 3f 64
        E 0 8c 47 64
        E 0 8d 2f 64
        E 0 98 3b 64
        E 0 9d 34 64
        E 505 88 3b 64
        E 1 98 47 64
        E 505 88 47 64
        E 0 8d 34 64
        E 0 98 43 64
        E 505 88 43 64
        E 0 98 40 64
        E 0 9d 39 64
        E 253 88 40 64
        E 0 8d 39 64
        E 0 98 3e 64
        E 0 9d 3b 64
        E 252 88 3e 64
        E 0 8d 3b 64
        E 0 98 40 64
        E 0 9d 3d 64
        E 504 88 40 64
        E 0 8d 3d 64
        E 0 98 3d 64
        E 0 9d 39 64
        E 507 88 3d 64
        E 0 8d 39 64
        E 0 98 39 64
        E 1 9d 32 64
        E 504 88 39 64
        E 1 98 45 64
        E 505 88 45 64
        E 0 8d 32 64
        E 0 98 42 64
        E 504 88 42 64
        E 0 98 3e 64
        E 0 9d 37 64
        E 253 88 3e 64
        E 0 8d 37 64
        E 1 98 3d 64
        E 0 9d 39 64
        E 252 88 3d 64
        E 0 8d 39 64
        E 0 98 3e 64
        E 0 9d 3b 64
        E 507 88 3e 64
        E 0 8d 3b 64
        E 0 98 3b 64
        E 0 9d 37 64
        E 502 88 3b 64
        E 0 8d 37 64
        E 0 98 3a 64
        E 0 9d 31 64
        E 1012 88 3a 64
        E 0 8d 31 64
        E 506 98 49 64
        E 0 9d 36 64
        E 252 88 49 64
        E 0 8d 36 64
        E 0 98 47 64
        E 0 9d 38 64
        E 253 88 47 64
        E 0 8d 38 64
        E 0 98 49 64
        E 0 9d 3a 64
        E 505 88 49 64
        E 0 8d 3a 64
        E 0 98 46 64
        E 0 9d 36 64
        E 507 88 46 64
        E 1 8d 36 64
        E 0 98 42 64
        E 0 9d 32 64
        E 250 88 42 64
        E 0 8d 32 64
        E 0 98 40 64
        E 0 9d 31 64
        E 251 88 40 64
        E 0 8d 31 64
        E 0 98 3e 64
        E 0 9d 2f 64
        E 506 88 3e 64
        E 0 8d 2f 64
        E 0 98 47 64
        E 1 9d 32 64
        E 506 88 47 64
        E 0 8d 32 64
        E 0 98 47 64
        E 0 9d 34 64
        E 505 88 47 64
        E 0 8d 34 64
        E 0 98 47 64
        E 0 9d 32 64
        E 1009 88 47 64
        E 0 8d 32 64
        E 0 98 42 64
        E 0 9d 32 64
        E 255 88 42 64
        E 0 8d 32 64
        E 0 98 40 64
        E 0 9d 31 64
        E 251 88 40 64
        E 0 8d 31 64
        E 0 98 3e 64
        E 0 9d 2f 64
        E 507 88 3e 64
        E 0 8d 2f 64
        E 0 98 42 64
        E 0 9d 32 64
        E 504 88 42 64
        E 0 8d 32 64
        E 1 98 43 64
        E 0 9d 34 64
        E 504 88 43 64
        E 0 8d 34 64
        E 0 98 42 64
        E 0 9d 32 64
        E 1009 88 42 64
        E 0 8d 32 64
        E 0 98 3b 64
        E 0 9d 34 64
        E 506 88 3b 64
        E 0 8d 34 64
        E 0 98 47 64
        E 0 9d 32 64
        E 1013 88 47 64
        E 0 8d 32 64
        E 0 98 3d 64
        E 0 9d 36 64
        E 250 8d 36 64
        E 1 9d 37 64
        E 252 8d 37 64
        E 0 9d 36 64
        E 252 8d 36 64
        E 0 9d 34 64
        E 253 88 3d 64
        E 0 8d 34 64
        E 1 98 42 64
        E 0 9d 32 64
        E 254 8d 32 64
        E 1 9d 31 64
        E 249 88 42 64
        E 1 8d 31 64
        E 0 98 42 64
        E 0 9d 2f 64
        E 253 88 42 64
        E 0 8d 2f 64
        E 0 98 43 64
        E 0 9d 34 64
        E 252 88 43 64
        E 0 8d 34 64
        E 0 98 3a 64
        E 0 9d 36 64
        E 503 88 3a 64
        E 0 8d 36 64
        E 0 98 42 64
        E 1 9d 2a 64
        E 508 88 42 64
        E 0 8d 2a 64
        E 0 98 47 64
        E 0 9d 3b 64
        E 505 88 47 64
        E 0 8d 3b 64
        E 0 98 45 64
        E 0 9d 39 64
        E 504 88 45 64
        E 0 8d 39 64
        E 0 98 43 64
        E 0 9d 37 64
        E 505 88 43 64
        E 0 8d 37 64
        E 0 98 42 64
        E 0 9d 36 64
        E 505 88 42 64
        E 0 8d 36 64
        E 1 98 40 64
        E 0 9d 34 64
        E 503 88 40 64
        E 0 8d 34 64
        E 0 98 3e 64
        E 0 9d 32 64
        E 509 88 3e 64
        E 0 8d 32 64
        E 0 98 43 64
        E 0 9d 37 64
        E 505 88 43 64
        E 0 8d 37 64
        E 0 98 42 64
        E 0 9d 36 64
        E 504 88 42 64
        E 0 8d 36 64
        E 0 98 40 64
        E 0 9d 34 64
        E 506 88 40 64
        E 0 8d 34 64
        E 0 98 3e 64
        E 0 9d 32 64
        E 504 88 3e 64
        E 0 8d 32 64
        E 0 98 3d 64
        E 1 9d 31 64
        E 505 88 3d 64
        E 0 8d 31 64
        E 0 98 3b 64
        E 0 9d 2f 64
        E 504 88 3b 64
        E 0 8d 2f 64
        E 0 98 3e 64
        E 0 9d 32 64
        E 253 88 3e 64
        E 0 8d 32 64
        E 0 98 40 64
        E 0 9d 34 64
        E 253 88 40 64
        E 0 8d 34 64
        E 0 98 42 64
        E 0 9d 36 64
        E 507 88 42 64
        E 0 8d 36 64
        E 0 98 36 64
        E 0 9d 2a 64
        E 505 88 36 64
        E 0 8d 2a 64
        E 0 98 3b 64
        E 0 9d 2f 64
        E 2271 88 3b 64
        E 0 8d 2f 64
        E 4042 94 3e 64
        E 0 95 3e 64
        E 0 97 3e 64
        E 0 9e 3e 64
        E 0 98 3e 64
        E 0 9d 32 64
        E 413 84 3e 64
        E 0 85 3e 64
        E 0 87 3e 64
        E 0 8e 3e 64
        E 0 88 3e 64
        E 0 8d 32 64
        E 1 94 4a 64
        E 0 95 4a 64
        E 0 97 4a 64
        E 0 9e 4a 64
        E 0 98 4a 64
        E 0 9d 3e 64
        E 411 84 4a 64
        E 0 85 4a 64
        E 0 87 4a 64
        E 0 8e 4a 64
        E 0 88 4a 64
        E 0 8d 3e 64
        E 0 94 3e 64
        E 0 95 3e 64
        E 0 97 3e 64
        E 0 9e 3e 64
        E 0 98 3e 64
        E 0 9d 32 64
        E 410 84 3e 64
        E 1 85 3e 64
        E 0 87 3e 64
        E 0 8e 3e 64
        E 0 88 3e 64
        E 0 8d 32 64
        E 0 94 3e 64
        E 0 95 3e 64
        E 0 97 3e 64
        E 0 9e 3e 64
        E 0 98 3e 64
        E 0 9d 32 64
        E 413 84 3e 64
        E 0 85 3e 64
        E 0 87 3e 64
        E 1 8e 3e 64
        E 0 88 3e 64
        E 0 8d 32 64
        E 0 94 3e 64
        E 0 95 3e 64
        E 0 97 3e 64
        E 0 9e 3e 64
        E 0 98 3e 64
        E 0 9d 32 64
        E 410 84 3e 64
        E 0 85 3e 64
        E 0 87 3e 64
        E 0 8e 3e 64
        E 0 88 3e 64
        E 0 8d 32 64
        E 0 94 4a 64
        E 1 95 4a 64
        E 0 97 4a 64
        E 0 9e 4a 64
        E 0 98 4a 64
        E 0 9d 3e 64
        E 409 84 4a 64
        E 0 85 4a 64
        E 0 87 4a 64
        E 0 8e 4a 64
        E 0 88 4a 64
        E 0 8d 3e 64
        E 0 94 3e 64
        E 0 95 3e 64
        E 0 97 3e 64
        E 0 9e 3e 64
        E 0 98 3e 64
        E 0 9d 32 64
        E 410 84 3e 64
        E 0 85 3e 64
        E 0 87 3e 64
        E 0 8e 3e 64
        E 0 88 3e 64
        E 0 8d 32 64
        E 0 94 3e 64
        E 0 95 3e 64
        E 0 97 3e 64
        E 0 9e 3e 64
        E 0 98 3e 64
        E 1 9d 32 64
        E 411 84 3e 64
        E 0 85 3e 64
        E 0 87 3e 64
        E 0 8e 3e 64
        E 0 88 3e 64
        E 0 8d 32 64
        E 1 94 3e 64
        E 0 95 3e 64
        E 0 97 3e 64
        E 0 9e 3e 64
        E 0 98 3e 64
        E 0 9d 32 64
        E 411 85 3e 64
        E 0 87 3e 64
        E 0 8e 3e 64
        E 0 88 3e 64
        E 0 8d 32 64
        E 1 95 42 64
        E 0 97 42 64
        E 0 9e 42 64
        E 0 98 3e 64
        E 0 9d 32 64
        E 204 85 42 64
        E 0 87 42 64
        E 0 8e 42 64
        E 0 88 3e 64
        E 0 8d 32 64
        E 0 95 43 64
        E 1 97 43 64
        E 0 9e 43 64
        E 0 98 40 64
        E 0 9d 34 64
        E 205 84 3e 64
        E 0 85 43 64
        E 0 87 43 64
        E 0 8e 43 64
        E 0 88 40 64
        E 0 8d 34 64
        E 0 95 45 64
        E 0 97 45 64
        E 0 9e 45 64
        E 0 98 42 64
        E 0 9d 36 64
        E 412 85 45 64
        E 0 87 45 64
        E 0 8e 45 64
        E 0 88 42 64
        E 0 8d 36 64
        E 1 95 43 64
        E 0 97 43 64
        E 0 9e 43 64
        E 0 98 40 64
        E 0 9d 34 64
        E 411 85 43 64
        E 0 87 43 64
        E 0 8e 43 64
        E 0 88 40 64
        E 0 8d 34 64
        E 0 95 42 64
        E 0 97 42 64
        E 0 9e 42 64
        E 0 98 3e 64
        E 0 9d 32 64
        E 410 85 42 64
        E 0 87 42 64
        E 1 8e 42 64
        E 0 88 3e 64
        E 0 8d 32 64
        E 0 95 42 64
        E 0 97 42 64
        E 0 9e 42 64
        E 0 98 3e 64
        E 0 9d 32 64
        E 205 85 42 64
        E 0 87 42 64
        E 0 8e 42 64
        E 0 88 3e 64
        E 0 8d 32 64
        E 0 95 43 64
        E 0 97 43 64
        E 0 9e 43 64
        E 0 98 40 64
        E 0 9d 34 64
        E 204 85 43 64
        E 0 87 43 64
        E 0 8e 43 64
        E 0 88 40 64
        E 0 8d 34 64
        E 0 95 45 64
        E 1 97 45 64
        E 0 9e 45 64
        E 0 98 42 64
        E 0 9d 36 64
        E 414 85 45 64
        E 0 87 45 64
        E 0 8e 45 64
        E 0 88 42 64
        E 0 8d 36 64
        E 0 95 43 64
        E 0 97 43 64
        E 0 9e 43 64
        E 0 98 40 64
        E 1 9d 34 64
        E 409 85 43 64
        E 0 87 43 64
        E 0 8e 43 64
        E 0 88 40 64
        E 0 8d 34 64
        E 0 95 42 64
        E 0 97 42 64
        E 0 9e 42 64
        E 0 98 3e 64
        E 0 9d 32 64
        E 410 85 42 64
        E 0 94 4e 64
        E 0 95 4a 64
        E 206 84 4e 64
        E 0 85 4a 64
        E 0 94 4f 64
        E 0 95 4c 64
        E 207 84 4f 64
        E 0 85 4c 64
        E 0 87 42 64
        E 0 8e 42 64
        E 0 88 3e 64
        E 0 8d 32 64
        E 0 94 51 64
        E 0 95 4e 64
        E 207 84 51 64
        E 0 85 4e 64
        E 0 94 4f 64
        E 1 95 4c 64
        E 205 84 4f 64
        E 0 85 4c 64
        E 0 94 51 64
        E 0 95 4e 64
        E 205 84 51 64
        E 0 85 4e 64
        E 0 94 4f 64
        E 0 95 4c 64
        E 205 84 4f 64
        E 0 85 4c 64
        E 0 94 4e 64
        E 0 95 4a 64
        E 410 84 4e 64
        E 0 85 4a 64
        E 0 94 4e 64
        E 0 95 4a 64
        E 208 84 4e 64
        E 0 85 4a 64
        E 0 94 4f 64
        E 0 95 4c 64
        E 205 84 4f 64
        E 0 85 4c 64
        E 0 94 51 64
        E 1 95 4e 64
        E 206 84 51 64
        E 0 85 4e 64
        E 0 94 4f 64
        E 0 95 4c 64
        E 204 84 4f 64
        E 0 85 4c 64
        E 0 94 51 64
        E 0 95 4e 64
        E 204 84 51 64
        E 0 85 4e 64
        E 1 94 4f 64
        E 0 95 4c 64
        E 206 84 4f 64
        E 0 85 4c 64
        E 0 94 4e 64
        E 0 95 4a 64
        E 0 97 3e 64
        E 0 9e 3e 64
        E 0 98 3e 64
        E 0 9d 32 64
        E 413 84 4e 64
        E 0 85 4a 64
        E 0 87 3e 64
        E 0 8e 3e 64
        E 0 88 3e 64
        E 0 8d 32 64
        E 0 94 4a 64
        E 0 95 4a 64
        E 0 97 4a 64
        E 1 9e 4a 64
        E 0 98 4a 64
        E 0 9d 3e 64
        E 409 84 4a 64
        E 0 85 4a 64
        E 0 87 4a 64
        E 0 8e 4a 64
        E 0 88 4a 64
        E 0 8d 3e 64
        E 0 94 3e 64
        E 0 95 3e 64
        E 0 97 3e 64
        E 0 9e 3e 64
        E 0 98 3e 64
        E 0 9d 32 64
        E 412 84 3e 64
        E 0 85 3e 64
        E 0 87 3e 64
        E 0 8e 3e 64
        E 0 88 3e 64
        E 0 8d 32 64
        E 0 94 3e 64
        E 0 95 3e 64
        E 1 97 3e 64
        E 0 9e 3e 64
        E 0 98 3e 64
        E 0 9d 32 64
        E 410 84 3e 64
        E 0 85 3e 64
        E 0 87 3e 64
        E 0 8e 3e 64
        E 0 88 3e 64
        E 0 8d 32 64
        E 0 94 3e 64
        E 0 95 3e 64
        E 0 97 3e 64
        E 0 9e 3e 64
        E 0 98 3e 64
        E 0 9d 32 64
        E 412 84 3e 64
        E 0 85 3e 64
        E 0 87 3e 64
        E 0 8e 3e 64
        E 0 88 3e 64
        E 0 8d 32 64
        E 0 94 4a 64
        E 0 95 4a 64
        E 0 97 4a 64
        E 0 9e 4a 64
        E 0 98 4a 64
        E 0 9d 3e 64
        E 412 84 4a 64
        E 0 85 4a 64
        E 0 87 4a 64
        E 0 8e 4a 64
        E 0 88 4a 64
        E 0 8d 3e 64
        E 0 94 3e 64
        E 0 95 3e 64
        E 0 97 3e 64
        E 0 9e 3e 64
        E 0 98 3e 64
        E 0 9d 32 64
        E 410 84 3e 64
        E 0 85 3e 64
        E 0 87 3e 64
        E 0 8e 3e 64
        E 0 88 3e 64
        E 0 8d 32 64
        E 0 94 3e 64
        E 0 95 3e 64
        E 0 97 3e 64
        E 0 9e 3e 64
        E 0 98 3e 64
        E 0 9d 32 64
        E 413 84 3e 64
        E 0 85 3e 64
        E 0 87 3e 64
        E 0 8e 3e 64
        E 0 88 3e 64
        E 0 8d 32 64
        E 0 94 3e 64
        E 0 95 3e 64
        E 0 97 3e 64
        E 0 9e 3e 64
        E 0 98 3e 64
        E 0 9d 32 64
        E 410 84 3e 64
        E 1 85 3e 64
        E 0 87 3e 64
        E 0 8e 3e 64
        E 0 88 3e 64
        E 0 8d 32 64
        E 0 94 4e 64
        E 0 95 4a 64
        E 0 97 4e 64
        E 0 9e 4a 64
        E 0 98 45 64
        E 0 9d 3e 64
        E 205 87 4e 64
        E 0 8e 4a 64
        E 0 97 4f 64
        E 0 9e 4c 64
        E 205 84 4e 64
        E 0 85 4a 64
        E 0 87 4f 64
        E 0 8e 4c 64
        E 0 88 45 64
        E 0 8d 3e 64
        E 0 94 4e 64
        E 0 95 4a 64
        E 0 97 51 64
        E 0 9e 4e 64
        E 0 98 45 64
        E 0 9d 32 64
        E 205 87 51 64
        E 0 8e 4e 64
        E 0 97 4e 64
        E 0 9e 4c 64
        E 206 84 4e 64
        E 0 85 4a 64
        E 0 87 4e 64
        E 0 8e 4c 64
        E 0 88 45 64
        E 0 8d 32 64
        E 0 94 4e 64
        E 0 95 4a 64
        E 0 97 51 64
        E 0 9e 4e 64
        E 1 98 45 64
        E 0 9d 32 64
        E 208 87 51 64
        E 0 8e 4e 64
        E 1 97 4e 64
        E 0 9e 4a 64
        E 202 84 4e 64
        E 0 85 4a 64
        E 0 87 4e 64
        E 0 8e 4a 64
        E 0 88 45 64
        E 0 8d 32 64
        E 0 94 4c 64
        E 1 95 4a 64
        E 0 97 51 64
        E 0 9e 4c 64
        E 0 98 45 64
        E 0 9d 2d 64
        E 206 87 51 64
        E 0 8e 4c 64
        E 0 97 4c 64
        E 0 9e 4a 64
        E 205 84 4c 64
        E 0 85 4a 64
        E 0 87 4c 64
        E 0 8e 4a 64
        E 0 88 45 64
        E 0 8d 2d 64
        E 0 94 4c 64
        E 0 95 4a 64
        E 0 97 51 64
        E 1 9e 4c 64
        E 0 98 45 64
        E 0 9d 39 64
        E 203 87 51 64
        E 1 8e 4c 64
        E 0 97 4c 64
        E 0 9e 4a 64
        E 206 84 4c 64
        E 0 85 4a 64
        E 0 87 4c 64
        E 0 8e 4a 64
        E 0 88 45 64
        E 0 8d 39 64
        E 0 94 4c 64
        E 0 95 4a 64
        E 0 97 51 64
        E 0 9e 4c 64
        E 0 98 45 64
        E 0 9d 2d 64
        E 205 87 51 64
        E 0 8e 4c 64
        E 0 97 4c 64
        E 0 9e 4a 64
        E 208 84 4c 64
        E 0 85 4a 64
        E 0 87 4c 64
        E 0 8e 4a 64
        E 0 88 45 64
        E 0 8d 2d 64
        E 0 94 4c 64
        E 0 95 4a 64
        E 0 97 51 64
        E 0 9e 4c 64
        E 0 98 45 64
        E 0 9d 2d 64
        E 206 87 51 64
        E 0 8e 4c 64
        E 0 97 4c 64
        E 0 9e 4a 64
        E 205 84 4c 64
        E 0 85 4a 64
        E 0 87 4c 64
        E 0 8e 4a 64
        E 0 88 45 64
        E 0 8d 2d 64
        E 0 94 4c 64
        E 0 95 49 64
        E 0 97 51 64
        E 0 9e 4c 64
        E 0 98 45 64
        E 0 9d 2d 64
        E 206 87 51 64
        E 0 8e 4c 64
        E 0 97 4c 64
        E 0 9e 49 64
        E 206 84 4c 64
        E 0 85 49 64
        E 0 87 4c 64
        E 0 8e 49 64
        E 0 88 45 64
        E 0 8d 2d 64
        E 0 94 4c 64
        E 0 95 49 64
        E 0 97 51 64
        E 0 9e 4c 64
        E 0 98 45 64
        E 0 9d 39 64
        E 204 87 51 64
        E 0 8e 4c 64
        E 0 97 4c 64
        E 0 9e 49 64
        E 205 84 4c 64
        E 0 85 49 64
        E 0 87 4c 64
        E 0 8e 49 64
        E 0 88 45 64
        E 0 8d 39 64
        E 0 94 4c 64
        E 1 95 49 64
        E 0 97 51 64
        E 0 9e 4c 64
        E 0 98 45 64
        E 0 9d 2d 64
        E 208 87 51 64
        E 0 8e 4c 64
        E 0 97 4c 64
        E 1 9e 49 64
        E 203 84 4c 64
        E 0 85 49 64
        E 0 87 4c 64
        E 0 8e 49 64
        E 0 88 45 64
        E 0 8d 2d 64
        E 0 94 4c 64
        E 0 95 49 64
        E 0 97 51 64
        E 0 9e 4c 64
        E 0 98 45 64
        E 0 9d 2d 64
        E 206 87 51 64
        E 0 8e 4c 64
        E 0 97 4c 64
        E 1 9e 49 64
        E 204 84 4c 64
        E 0 85 49 64
        E 0 87 4c 64
        E 0 8e 49 64
        E 0 88 45 64
        E 0 8d 2d 64
        E 0 94 4e 64
        E 0 95 4a 64
        E 0 97 4e 64
        E 0 9e 4a 64
        E 0 98 45 64
        E 0 9d 32 64
        E 410 84 4e 64
        E 0 85 4a 64
        E 0 87 4e 64
        E 0 8e 4a 64
        E 0 88 45 64
        E 0 8d 32 64
        E 0 94 4a 64
        E 1 95 4a 64
        E 0 97 4a 64
        E 0 9e 4a 64
        E 0 98 4a 64
        E 0 9d 3e 64
        E 413 84 4a 64
        E 0 85 4a 64
        E 0 87 4a 64
        E 0 8e 4a 64
        E 0 88 4a 64
        E 0 8d 3e 64
        E 1 94 3e 64
        E 0 95 3e 64
        E 0 97 3e 64
        E 0 9e 3e 64
        E 0 98 3e 64
        E 0 9d 32 64
        E 409 84 3e 64
        E 0 85 3e 64
        E 0 87 3e 64
        E 0 8e 3e 64
        E 0 88 3e 64
        E 0 8d 32 64
        E 0 94 3e 64
        E 0 95 3e 64
        E 0 97 3e 64
        E 0 9e 3e 64
        E 0 98 3e 64
        E 0 9d 32 64
        E 413 84 3e 64
        E 0 85 3e 64
        E 0 87 3e 64
        E 0 8e 3e 64
        E 0 88 3e 64
        E 0 8d 32 64
        E 0 94 3e 64
        E 0 95 3e 64
        E 0 97 3e 64
        E 0 9e 3e 64
        E 0 98 3e 64
        E 0 9d 32 64
        E 409 84 3e 64
        E 0 85 3e 64
        E 0 87 3e 64
        E 0 8e 3e 64
        E 0 88 3e 64
        E 0 8d 32 64
        E 0 94 4a 64
        E 0 95 4a 64
        E 1 97 4a 64
        E 0 9e 4a 64
        E 0 98 4a 64
        E 0 9d 3e 64
        E 413 84 4a 64
        E 0 85 4a 64
        E 0 87 4a 64
        E 0 8e 4a 64
        E 0 88 4a 64
        E 0 8d 3e 64
        E 0 94 3e 64
        E 0 95 3e 64
        E 0 97 3e 64
        E 0 9e 3e 64
        E 0 98 3e 64
        E 0 9d 32 64
        E 409 84 3e 64
        E 0 85 3e 64
        E 0 87 3e 64
        E 0 8e 3e 64
        E 0 88 3e 64
        E 0 8d 32 64
        E 0 94 3e 64
        E 0 95 3e 64
        E 0 97 3e 64
        E 0 9e 3e 64
        E 0 98 3e 64
        E 0 9d 32 64
        E 412 84 3e 64
        E 0 85 3e 64
        E 0 87 3e 64
        E 0 8e 3e 64
        E 0 88 3e 64
        E 0 8d 32 64
        E 0 94 3e 64
        E 0 95 3e 64
        E 0 97 3e 64
        E 0 9e 3e 64
        E 0 98 3e 64
        E 0 9d 32 64
        E 413 85 3e 64
        E 0 87 3e 64
        E 0 8e 3e 64
        E 0 95 4e 64
        E 0 97 4e 64
        E 0 9e 4a 64
        E 206 85 4e 64
        E 0 87 4e 64
        E 0 8e 4a 64
        E 0 95 4f 64
        E 0 97 4f 64
        E 0 9e 4c 64
        E 206 84 3e 64
        E 0 85 4f 64
        E 0 87 4f 64
        E 0 8e 4c 64
        E 0 88 3e 64
        E 0 8d 32 64
        E 0 95 51 64
        E 0 97 51 64
        E 0 9e 4e 64
        E 204 85 51 64
        E 0 87 51 64
        E 0 8e 4e 64
        E 0 95 4f 64
        E 0 97 4f 64
        E 0 9e 4c 64
        E 204 85 4f 64
        E 0 87 4f 64
        E 0 8e 4c 64
        E 1 95 51 64
        E 0 97 51 64
        E 0 9e 4e 64
        E 206 85 51 64
        E 0 87 51 64
        E 0 8e 4e 64
        E 0 95 4f 64
        E 0 97 4f 64
        E 0 9e 4c 64
        E 205 85 4f 64
        E 0 87 4f 64
        E 0 8e 4c 64
        E 0 95 4e 64
        E 0 97 4e 64
        E 0 9e 4a 64
        E 414 85 4e 64
        E 0 87 4e 64
        E 0 8e 4a 64
        E 0 95 4e 64
        E 1 97 4e 64
        E 0 9e 4a 64
        E 204 85 4e 64
        E 1 87 4e 64
        E 0 8e 4a 64
        E 0 95 4f 64
        E 0 97 4f 64
        E 0 9e 4c 64
        E 204 85 4f 64
        E 0 87 4f 64
        E 0 8e 4c 64
        E 0 95 51 64
        E 0 97 51 64
        E 0 9e 4e 64
        E 205 85 51 64
        E 0 87 51 64
        E 0 8e 4e 64
        E 0 95 4f 64
        E 0 97 4f 64
        E 0 9e 4c 64
        E 205 85 4f 64
        E 1 87 4f 64
        E 0 8e 4c 64
        E 0 95 51 64
        E 0 97 51 64
        E 0 9e 4e 64
        E 206 85 51 64
        E 1 87 51 64
        E 0 8e 4e 64
        E 0 95 4e 64
        E 0 97 4e 64
        E 0 9e 4a 64
        E 206 85 4e 64
        E 0 87 4e 64
        E 0 8e 4a 64
        E 0 95 4c 64
        E 0 97 4c 64
        E 0 9e 49 64
        E 0 98 39 64
        E 0 9d 2d 64
        E 411 87 4c 64
        E 1 8e 49 64
        E 0 88 39 64
        E 0 8d 2d 64
        E 0 97 45 64
        E 0 9e 45 64
        E 0 98 45 64
        E 0 9d 39 64
        E 411 85 4c 64
        E 0 87 45 64
        E 0 8e 45 64
        E 0 88 45 64
        E 0 8d 39 64
        E 1 97 39 64
        E 0 9e 39 64
        E 0 98 39 64
        E 0 9d 2d 64
        E 408 87 39 64
        E 0 8e 39 64
        E 0 88 39 64
        E 0 8d 2d 64
        E 0 97 39 64
        E 1 9e 39 64
        E 0 98 39 64
        E 0 9d 2d 64
        E 412 87 39 64
        E 0 8e 39 64
        E 0 88 39 64
        E 0 8d 2d 64
        E 0 97 39 64
        E 0 9e 39 64
        E 0 98 39 64
        E 0 9d 2d 64
        E 412 87 39 64
        E 0 8e 39 64
        E 0 88 39 64
        E 0 8d 2d 64
        E 0 97 45 64
        E 0 9e 45 64
        E 0 98 45 64
        E 1 9d 39 64
        E 409 87 45 64
        E 0 8e 45 64
        E 0 88 45 64
        E 0 8d 39 64
        E 0 97 39 64
        E 0 9e 39 64
        E 0 98 39 64
        E 0 9d 2d 64
        E 412 87 39 64
        E 0 8e 39 64
        E 0 88 39 64
        E 0 8d 2d 64
        E 1 97 39 64
        E 0 9e 39 64
        E 0 98 39 64
        E 0 9d 2d 64
        E 411 87 39 64
        E 0 8e 39 64
        E 0 88 39 64
        E 0 8d 2d 64
        E 0 97 39 64
        E 1 9e 39 64
        E 0 98 39 64
        E 0 9d 2d 64
        E 410 87 39 64
        E 0 8e 39 64
        E 0 95 4c 64
        E 2 97 4c 64
        E 0 9e 49 64
        E 204 85 4c 64
        E 0 87 4c 64
        E 0 8e 49 64
        E 0 95 4e 64
        E 1 97 4e 64
        E 0 9e 4a 64
        E 203 85 4e 64
        E 0 87 4e 64
        E 0 8e 4a 64
        E 0 88 39 64
        E 0 8d 2d 64
        E 0 95 4f 64
        E 0 97 4f 64
        E 0 9e 4c 64
        E 207 85 4f 64
        E 0 87 4f 64
        E 0 8e 4c 64
        E 0 95 4e 64
        E 1 97 4e 64
        E 0 9e 4a 64
        E 206 85 4e 64
        E 0 87 4e 64
        E 0 8e 4a 64
        E 0 95 4f 64
        E 0 97 4f 64
        E 0 9e 4c 64
        E 204 85 4f 64
        E 0 87 4f 64
        E 0 8e 4c 64
        E 0 95 4e 64
        E 0 97 4e 64
        E 0 9e 4a 64
        E 206 85 4e 64
        E 0 87 4e 64
        E 0 8e 4a 64
        E 1 95 4c 64
        E 0 97 4c 64
        E 0 9e 49 64
        E 410 85 4c 64
        E 0 87 4c 64
        E 0 8e 49 64
        E 0 95 4c 64
        E 0 97 4c 64
        E 0 9e 49 64
        E 205 85 4c 64
        E 0 87 4c 64
        E 0 8e 49 64
        E 0 95 4e 64
        E 0 97 4e 64
        E 0 9e 4a 64
        E 208 85 4e 64
        E 0 87 4e 64
        E 0 8e 4a 64
        E 0 95 4f 64
        E 0 97 4f 64
        E 0 9e 4c 64
        E 205 85 4f 64
        E 0 87 4f 64
        E 0 8e 4c 64
        E 0 95 4e 64
        E 0 97 4e 64
        E 0 9e 4a 64
        E 207 85 4e 64
        E 0 87 4e 64
        E 0 8e 4a 64
        E 0 95 4f 64
        E 0 97 4f 64
        E 0 9e 4c 64
        E 205 85 4f 64
        E 0 87 4f 64
        E 0 8e 4c 64
        E 0 95 4e 64
        E 0 97 4e 64
        E 0 9e 4a 64
        E 205 85 4e 64
        E 0 87 4e 64
        E 0 8e 4a 64
        E 0 95 4c 64
        E 0 97 4c 64
        E 0 9e 49 64
        E 4 98 39 64
        E 0 9d 2d 64
        E 406 87 4c 64
        E 0 8e 49 64
        E 0 88 39 64
        E 0 8d 2d 64
        E 0 97 45 64
        E 0 9e 45 64
        E 0 98 45 64
        E 0 9d 39 64
        E 413 85 4c 64
        E 0 87 45 64
        E 0 8e 45 64
        E 0 88 45 64
        E 0 8d 39 64
        E 0 97 39 64
        E 0 9e 39 64
        E 0 98 39 64
        E 0 9d 2d 64
        E 410 87 39 64
        E 0 8e 39 64
        E 0 88 39 64
        E 0 8d 2d 64
        E 0 97 39 64
        E 0 9e 39 64
        E 0 98 39 64
        E 0 9d 2d 64
        E 412 87 39 64
        E 0 8e 39 64
        E 0 88 39 64
        E 0 8d 2d 64
        E 1 97 39 64
        E 0 9e 39 64
        E 0 98 39 64
        E 0 9d 2d 64
        E 411 87 39 64
        E 1 8e 39 64
        E 0 88 39 64
        E 0 8d 2d 64
        E 0 97 45 64
        E 0 9e 45 64
        E 0 98 45 64
        E 0 9d 39 64
        E 411 87 45 64
        E 0 8e 45 64
        E 0 88 45 64
        E 0 8d 39 64
        E 0 97 39 64
        E 0 9e 39 64
        E 0 98 39 64
        E 0 9d 2d 64
        E 412 87 39 64
        E 0 8e 39 64
        E 0 88 39 64
        E 0 8d 2d 64
        E 0 97 39 64
        E 0 9e 39 64
        E 0 98 39 64
        E 0 9d 2d 64
        E 410 87 39 64
        E 0 8e 39 64
        E 0 88 39 64
        E 0 8d 2d 64
        E 0 97 39 64
        E 0 9e 39 64
        E 0 98 39 64
        E 0 9d 2d 64
        E 412 87 39 64
        E 0 8e 39 64
        E 0 88 39 64
        E 0 8d 2d 64
        E 0 97 45 64
        E 0 9e 45 64
        E 0 98 45 64
        E 0 9d 39 64
        E 412 87 45 64
        E 0 8e 45 64
        E 0 88 45 64
        E 0 8d 39 64
        E 0 97 39 64
        E 0 9e 39 64
        E 0 98 39 64
        E 0 9d 2d 64
        E 410 87 39 64
        E 0 8e 39 64
        E 0 88 39 64
        E 0 8d 2d 64
        E 0 97 39 64
        E 0 9e 39 64
        E 0 98 39 64
        E 0 9d 2d 64
        E 413 87 39 64
        E 0 8e 39 64
        E 0 88 39 64
        E 0 8d 2d 64
        E 0 97 39 64
        E 0 9e 39 64
        E 0 98 39 64
        E 0 9d 2d 64
        E 411 87 39 64
        E 0 8e 39 64
        E 0 88 39 64
        E 0 8d 2d 64
        E 0 97 45 64
        E 1 9e 45 64
        E 0 98 45 64
        E 0 9d 39 64
        E 410 87 45 64
        E 0 8e 45 64
        E 0 88 45 64
        E 1 8d 39 64
        E 0 97 39 64
        E 0 9e 39 64
        E 0 98 39 64
        E 0 9d 2d 64
        E 408 87 39 64
        E 0 8e 39 64
        E 0 88 39 64
        E 0 8d 2d 64
        E 0 97 39 64
        E 1 9e 39 64
        E 0 98 39 64
        E 0 9d 2d 64
        E 414 87 39 64
        E 1 8e 39 64
        E 0 88 39 64
        E 0 8d 2d 64
        E 0 97 39 64
        E 0 9e 39 64
        E 0 98 39 64
        E 0 9d 2d 64
        E 409 87 39 64
        E 0 8e 39 64
        E 0 88 39 64
        E 0 8d 2d 64
        E 0 97 45 64
        E 0 9e 45 64
        E 0 98 45 64
        E 0 9d 39 64
        E 411 87 45 64
        E 0 8e 45 64
        E 0 88 45 64
        E 0 8d 39 64
        E 0 97 39 64
        E 0 9e 39 64
        E 0 98 39 64
        E 0 9d 2d 64
        E 413 87 39 64
        E 0 8e 39 64
        E 0 88 39 64
        E 0 8d 2d 64
        E 0 97 39 64
        E 0 9e 39 64
        E 0 98 39 64
        E 1 9d 2d 64
        E 411 87 39 64
        E 0 8e 39 64
        E 0 88 39 64
        E 0 8d 2d 64
        E 1 97 39 64
        E 0 9e 39 64
        E 0 98 39 64
        E 0 9d 2d 64
        E 408 87 39 64
        E 0 8e 39 64
        E 0 88 39 64
        E 0 8d 2d 64
        E 0 97 45 64
        E 1 9e 45 64
        E 0 98 45 64
        E 0 9d 39 64
        E 410 87 45 64
        E 0 8e 45 64
        E 0 88 45 64
        E 0 8d 39 64
        E 0 97 39 64
        E 0 9e 39 64
        E 1 98 39 64
        E 0 9d 2d 64
        E 412 87 39 64
        E 0 8e 39 64
        E 0 88 39 64
        E 0 8d 2d 64
        E 0 97 39 64
        E 0 9e 39 64
        E 0 98 39 64
        E 0 9d 2d 64
        E 412 87 39 64
        E 0 8e 39 64
        E 0 88 39 64
        E 0 8d 2d 64
        E 0 97 39 64
        E 1 9e 39 64
        E 0 98 39 64
        E 0 9d 2d 64
        E 822 87 39 64
        E 0 8e 39 64
        E 0 88 39 64
        E 0 8d 2d 64
        E 823 97 39 64
        E 0 9e 39 64
        E 1 98 39 64
        E 0 9d 2d 64
        E 407 87 39 64
        E 0 8e 39 64
        E 0 88 39 64
        E 0 8d 2d 64
        E 1 97 45 64
        E 0 9e 45 64
        E 0 98 45 64
        E 0 9d 39 64
        E 413 87 45 64
        E 0 8e 45 64
        E 0 88 45 64
        E 0 8d 39 64
        E 0 97 39 64
        E 0 9e 39 64
        E 0 98 39 64
        E 0 9d 2d 64
        E 412 87 39 64
        E 0 8e 39 64
        E 0 88 39 64
        E 0 8d 2d 64
        E 0 97 39 64
        E 0 9e 39 64
        E 0 98 39 64
        E 0 9d 2d 64
        E 410 87 39 64
        E 0 8e 39 64
        E 0 88 39 64
        E 0 8d 2d 64
        E 0 97 39 64
        E 0 9e 39 64
        E 0 98 39 64
        E 0 9d 2d 64
        E 413 87 39 64
        E 0 8e 39 64
        E 0 88 39 64
        E 0 8d 2d 64
        E 0 97 45 64
        E 0 9e 45 64
        E 0 98 45 64
        E 0 9d 39 64
        E 412 87 45 64
        E 0 8e 45 64
        E 0 88 45 64
        E 0 8d 39 64
        E 0 97 39 64
        E 0 9e 39 64
        E 0 98 39 64
        E 0 9d 2d 64
        E 410 87 39 64
        E 0 8e 39 64
        E 0 88 39 64
        E 0 8d 2d 64
        E 0 97 39 64
        E 0 9e 39 64
        E 1 98 39 64
        E 0 9d 2d 64
        E 409 87 39 64
        E 0 8e 39 64
        E 0 88 39 64
        E 0 8d 2d 64
        E 0 97 39 64
        E 1 9e 39 64
        E 0 98 39 64
        E 0 9d 2d 64
        E 411 87 39 64
        E 0 8e 39 64
        E 0 88 39 64
        E 0 8d 2d 64
        E 0 97 45 64
        E 0 9e 45 64
        E 0 98 45 64
        E 0 9d 39 64
        E 412 87 45 64
        E 0 8e 45 64
        E 0 88 45 64
        E 0 8d 39 64
        E 0 97 39 64
        E 0 9e 39 64
        E 0 98 39 64
        E 0 9d 2d 64
        E 411 87 39 64
        E 0 8e 39 64
        E 0 88 39 64
        E 0 8d 2d 64
        E 0 97 39 64
        E 0 9e 39 64
        E 0 98 39 64
        E 1 9d 2d 64
        E 412 87 39 64
        E 0 8e 39 64
        E 0 88 39 64
        E 0 8d 2d 64
        E 0 97 39 64
        E 0 9e 39 64
        E 0 98 39 64
        E 0 9d 2d 64
        E 410 87 39 64
        E 0 8e 39 64
        E 0 88 39 64
        E 0 8d 2d 64
        E 1 97 45 64
        E 0 9e 45 64
        E 0 98 45 64
        E 0 9d 39 64
        E 411 87 45 64
        E 0 8e 45 64
        E 0 88 45 64
        E 0 8d 39 64
        E 0 97 39 64
        E 0 9e 39 64
        E 0 98 39 64
        E 0 9d 2d 64
        E 412 87 39 64
        E 0 8e 39 64
        E 0 88 39 64
        E 0 8d 2d 64
        E 0 97 39 64
        E 0 9e 39 64
        E 0 98 39 64
        E 0 9d 2d 64
        E 411 87 39 64
        E 0 8e 39 64
        E 0 88 39 64
        E 0 8d 2d 64
        E 0 97 39 64
        E 0 9e 39 64
        E 0 98 39 64
        E 0 9d 2d 64
        E 411 87 39 64
        E 0 8e 39 64
        E 0 88 39 64
        E 0 8d 2d 64
        E 0 97 45 64
        E 0 9e 45 64
        E 0 98 45 64
        E 0 9d 39 64
        E 412 87 45 64
        E 0 8e 45 64
        E 0 88 45 64
        E 0 8d 39 64
        E 0 97 39 64
        E 0 9e 39 64
        E 0 98 39 64
        E 0 9d 2d 64
        E 412 87 39 64
        E 0 8e 39 64
        E 0 88 39 64
        E 0 8d 2d 64
        E 0 97 39 64
        E 0 9e 39 64
        E 0 98 39 64
        E 0 9d 2d 64
        E 411 87 39 64
        E 0 8e 39 64
        E 0 88 39 64
        E 0 8d 2d 64
        E 1 97 39 64
        E 0 9e 39 64
        E 0 98 39 64
        E 0 9d 2d 64
        E 409 87 39 64
        E 0 8e 39 64
        E 0 88 39 64
        E 0 8d 2d 64
        E 0 97 45 64
        E 0 9e 45 64
        E 0 98 45 64
        E 0 9d 39 64
        E 411 87 45 64
        E 0 8e 45 64
        E 0 88 45 64
        E 0 8d 39 64
        E 1 97 39 64
        E 0 9e 39 64
        E 0 98 39 64
        E 0 9d 2d 64
        E 411 87 39 64
        E 0 8e 39 64
        E 0 88 39 64
        E 0 8d 2d 64
        E 0 97 39 64
        E 0 9e 39 64
        E 0 98 39 64
        E 1 9d 2d 64
        E 411 87 39 64
        E 0 8e 39 64
        E 0 88 39 64
        E 0 8d 2d 64
        E 0 94 4c 64
        E 0 95 49 64
        E 0 97 4c 64
        E 0 9e 49 64
        E 0 98 45 64
        E 0 9d 2d 64
        E 411 84 4c 64
        E 0 85 49 64
        E 0 87 4c 64
        E 0 8e 49 64
        E 0 88 45 64
        E 0 8d 2d 64
        E 0 94 51 64
        E 0 95 4c 64
        E 0 97 51 64
        E 0 9e 4c 64
        E 0 98 49 64
        E 1 9d 39 64
        E 411 84 51 64
        E 0 85 4c 64
        E 0 87 51 64
        E 0 8e 4c 64
        E 0 88 49 64
        E 0 8d 39 64
        E 0 94 4c 64
        E 0 95 49 64
        E 0 97 4c 64
        E 0 9e 49 64
        E 0 98 45 64
        E 0 9d 2d 64
        E 411 84 4c 64
        E 0 85 49 64
        E 0 87 4c 64
        E 0 8e 49 64
        E 0 88 45 64
        E 0 8d 2d 64
        E 0 94 4c 64
        E 1 95 49 64
        E 0 97 4c 64
        E 0 9e 49 64
        E 0 98 45 64
        E 0 9d 2d 64
        E 412 84 4c 64
        E 0 85 49 64
        E 0 87 4c 64
        E 0 8e 49 64
        E 0 88 45 64
        E 0 8d 2d 64
        E 0 94 4e 64
        E 0 95 4a 64
        E 0 97 4e 64
        E 1 9e 4a 64
        E 0 98 45 64
        E 0 9d 32 64
        E 408 84 4e 64
        E 0 85 4a 64
        E 0 87 4e 64
        E 0 8e 4a 64
        E 0 88 45 64
        E 0 8d 32 64
        E 0 94 51 64
        E 1 95 4e 64
        E 0 97 51 64
        E 0 9e 4e 64
        E 0 98 4a 64
        E 0 9d 3e 64
        E 413 84 51 64
        E 0 85 4e 64
        E 0 87 51 64
        E 0 8e 4e 64
        E 0 88 4a 64
        E 0 8d 3e 64
        E 0 94 4e 64
        E 0 95 4a 64
        E 0 97 4e 64
        E 0 9e 4a 64
        E 0 98 45 64
        E 0 9d 32 64
        E 411 84 4e 64
        E 0 85 4a 64
        E 0 87 4e 64
        E 0 8e 4a 64
        E 0 88 45 64
        E 0 8d 32 64
        E 1 94 4e 64
        E 0 95 4a 64
        E 0 97 4e 64
        E 0 9e 4a 64
        E 0 98 45 64
        E 0 9d 32 64
        E 410 84 4e 64
        E 0 85 4a 64
        E 0 87 4e 64
        E 0 8e 4a 64
        E 0 88 45 64
        E 0 8d 32 64
        E 0 94 4c 64
        E 0 95 4a 64
        E 0 97 4c 64
        E 0 9e 4a 64
        E 0 98 45 64
        E 0 9d 2d 64
        E 413 84 4c 64
        E 0 85 4a 64
        E 0 87 4c 64
        E 0 8e 4a 64
        E 0 88 45 64
        E 0 8d 2d 64
        E 0 94 51 64
        E 0 95 4c 64
        E 0 97 51 64
        E 1 9e 4c 64
        E 0 98 4a 64
        E 0 9d 39 64
        E 410 84 51 64
        E 0 85 4c 64
        E 0 87 51 64
        E 0 8e 4c 64
        E 0 88 4a 64
        E 0 8d 39 64
        E 0 94 4c 64
        E 0 95 4a 64
        E 0 97 4c 64
        E 0 9e 4a 64
        E 0 98 45 64
        E 0 9d 2d 64
        E 410 84 4c 64
        E 0 85 4a 64
        E 0 87 4c 64
        E 0 8e 4a 64
        E 0 88 45 64
        E 0 8d 2d 64
        E 0 94 4c 64
        E 0 95 4a 64
        E 0 97 4c 64
        E 0 9e 4a 64
        E 0 98 45 64
        E 0 9d 2d 64
        E 412 84 4c 64
        E 1 85 4a 64
        E 0 87 4c 64
        E 0 8e 4a 64
        E 0 88 45 64
        E 0 8d 2d 64
        E 0 94 4c 64
        E 0 95 49 64
        E 0 97 4c 64
        E 0 9e 49 64
        E 0 98 45 64
        E 0 9d 2d 64
        E 411 84 4c 64
        E 0 85 49 64
        E 0 87 4c 64
        E 0 8e 49 64
        E 0 88 45 64
        E 0 8d 2d 64
        E 0 94 51 64
        E 0 95 4c 64
        E 0 97 51 64
        E 0 9e 4c 64
        E 0 98 49 64
        E 0 9d 39 64
        E 411 84 51 64
        E 0 85 4c 64
        E 0 87 51 64
        E 0 8e 4c 64
        E 0 88 49 64
        E 0 8d 39 64
        E 0 94 4c 64
        E 0 95 49 64
        E 0 97 4c 64
        E 0 9e 49 64
        E 0 98 45 64
        E 0 9d 2d 64
        E 410 84 4c 64
        E 0 85 49 64
        E 0 87 4c 64
        E 0 8e 49 64
        E 0 88 45 64
        E 0 8d 2d 64
        E 0 94 4c 64
        E 0 95 49 64
        E 0 97 4c 64
        E 0 9e 49 64
        E 0 98 45 64
        E 0 9d 2d 64
        E 413 84 4c 64
        E 0 85 49 64
        E 0 87 4c 64
        E 0 8e 49 64
        E 0 88 45 64
        E 0 8d 2d 64
        E 0 94 4e 64
        E 0 95 4a 64
        E 0 97 4e 64
        E 0 9e 4a 64
        E 0 98 45 64
        E 0 9d 32 64
        E 411 84 4e 64
        E 0 85 4a 64
        E 0 87 4e 64
        E 0 8e 4a 64
        E 0 88 45 64
        E 0 8d 32 64
        E 0 94 4a 64
        E 0 95 4a 64
        E 0 97 4a 64
        E 0 9e 4a 64
        E 0 98 4a 64
        E 1 9d 3e 64
        E 410 84 4a 64
        E 0 85 4a 64
        E 0 87 4a 64
        E 0 8e 4a 64
        E 0 88 4a 64
        E 0 8d 3e 64
        E 0 94 3e 64
        E 1 95 3e 64
        E 0 97 3e 64
        E 0 9e 3e 64
        E 0 98 3e 64
        E 0 9d 32 64
        E 409 84 3e 64
        E 0 85 3e 64
        E 0 87 3e 64
        E 0 8e 3e 64
        E 0 88 3e 64
        E 0 8d 32 64
        E 0 94 3e 64
        E 0 95 3e 64
        E 0 97 3e 64
        E 1 9e 3e 64
        E 0 98 3e 64
        E 0 9d 32 64
        E 413 84 3e 64
        E 0 85 3e 64
        E 0 87 3e 64
        E 0 8e 3e 64
        E 0 88 3e 64
        E 0 8d 32 64
        E 0 94 3e 64
        E 0 95 3e 64
        E 0 97 3e 64
        E 1 9e 3e 64
        E 0 98 3e 64
        E 0 9d 32 64
        E 411 84 3e 64
        E 0 85 3e 64
        E 0 87 3e 64
        E 0 8e 3e 64
        E 0 88 3e 64
        E 0 8d 32 64
        E 0 94 4a 64
        E 0 95 4a 64
        E 0 97 4a 64
        E 0 9e 4a 64
        E 0 98 4a 64
        E 0 9d 3e 64
        E 409 84 4a 64
        E 0 85 4a 64
        E 0 87 4a 64
        E 0 8e 4a 64
        E 0 88 4a 64
        E 0 8d 3e 64
        E 0 94 3e 64
        E 0 95 3e 64
        E 0 97 3e 64
        E 0 9e 3e 64
        E 0 98 3e 64
        E 0 9d 32 64
        E 413 84 3e 64
        E 1 85 3e 64
        E 0 87 3e 64
        E 0 8e 3e 64
        E 0 88 3e 64
        E 0 8d 32 64
        E 0 94 3e 64
        E 0 95 3e 64
        E 0 97 3e 64
        E 0 9e 3e 64
        E 0 98 3e 64
        E 0 9d 32 64
        E 410 84 3e 64
        E 0 85 3e 64
        E 0 87 3e 64
        E 0 8e 3e 64
        E 0 88 3e 64
        E 0 8d 32 64
        E 0 94 3e 64
        E 0 95 3e 64
        E 0 97 3e 64
        E 0 9e 3e 64
        E 0 98 3e 64
        E 0 9d 32 64
        E 411 84 3e 64
        E 0 85 3e 64
        E 0 87 3e 64
        E 0 8e 3e 64
        E 0 8d 32 64
        E 0 94 51 64
        E 0 95 4a 64
        E 0 97 51 64
        E 0 9e 4e 64
        E 1 9d 3e 64
        E 204 84 51 64
        E 0 87 51 64
        E 0 8e 4e 64
        E 0 94 4e 64
        E 1 97 4e 64
        E 0 9e 4a 64
        E 205 84 4e 64
        E 0 85 4a 64
        E 0 87 4e 64
        E 0 8e 4a 64
        E 0 88 3e 64
        E 0 8d 3e 64
        E 0 94 51 64
        E 0 95 4a 64
        E 0 97 51 64
        E 0 9e 4e 64
        E 0 98 45 64
        E 0 9d 32 64
        E 207 84 51 64
        E 0 87 51 64
        E 0 8e 4e 64
        E 0 94 4e 64
        E 0 97 4e 64
        E 0 9e 4a 64
        E 206 84 4e 64
        E 0 85 4a 64
        E 0 87 4e 64
        E 0 8e 4a 64
        E 0 88 45 64
        E 0 8d 32 64
        E 0 94 51 64
        E 1 95 4a 64
        E 0 97 51 64
        E 0 9e 4e 64
        E 0 98 45 64
        E 0 9d 32 64
        E 205 84 51 64
        E 0 87 51 64
        E 0 8e 4e 64
        E 0 94 4e 64
        E 0 97 4e 64
        E 0 9e 4a 64
        E 205 84 4e 64
        E 0 85 4a 64
        E 0 87 4e 64
        E 0 8e 4a 64
        E 0 88 45 64
        E 0 8d 32 64
        E 0 94 4c 64
        E 0 95 4a 64
        E 1 97 51 64
        E 0 9e 4c 64
        E 0 98 45 64
        E 0 9d 2d 64
        E 205 87 51 64
        E 0 8e 4c 64
        E 0 97 4c 64
        E 0 9e 4a 64
        E 204 84 4c 64
        E 0 85 4a 64
        E 0 87 4c 64
        E 0 8e 4a 64
        E 0 88 45 64
        E 0 8d 2d 64
        E 0 94 4c 64
        E 0 95 4a 64
        E 0 97 51 64
        E 0 9e 4c 64
        E 0 98 45 64
        E 0 9d 39 64
        E 205 87 51 64
        E 0 8e 4c 64
        E 0 97 4c 64
        E 0 9e 4a 64
        E 208 84 4c 64
        E 0 85 4a 64
        E 0 87 4c 64
        E 0 8e 4a 64
        E 0 88 45 64
        E 0 8d 39 64
        E 0 94 4c 64
        E 0 95 4a 64
        E 1 97 51 64
        E 0 9e 4c 64
        E 0 98 45 64
        E 0 9d 2d 64
        E 205 87 51 64
        E 0 8e 4c 64
        E 0 97 4c 64
        E 1 9e 4a 64
        E 203 84 4c 64
        E 0 85 4a 64
        E 0 87 4c 64
        E 0 8e 4a 64
        E 0 88 45 64
        E 0 8d 2d 64
        E 0 94 4c 64
        E 0 95 4a 64
        E 0 97 51 64
        E 0 9e 4c 64
        E 0 98 45 64
        E 1 9d 2d 64
        E 206 87 51 64
        E 0 8e 4c 64
        E 0 97 4c 64
        E 0 9e 4a 64
        E 206 84 4c 64
        E 0 85 4a 64
        E 0 87 4c 64
        E 0 8e 4a 64
        E 0 88 45 64
        E 0 8d 2d 64
        E 0 94 4c 64
        E 0 95 49 64
        E 0 97 51 64
        E 0 9e 4c 64
        E 0 98 45 64
        E 0 9d 2d 64
        E 204 87 51 64
        E 0 8e 4c 64
        E 0 97 4c 64
        E 0 9e 49 64
        E 204 84 4c 64
        E 0 85 49 64
        E 1 87 4c 64
        E 0 8e 49 64
        E 0 88 45 64
        E 0 8d 2d 64
        E 0 94 4c 64
        E 0 95 49 64
        E 0 97 51 64
        E 0 9e 4c 64
        E 0 98 45 64
        E 0 9d 39 64
        E 207 87 51 64
        E 0 8e 4c 64
        E 1 97 4c 64
        E 0 9e 49 64
        E 206 84 4c 64
        E 0 85 49 64
        E 0 87 4c 64
        E 0 8e 49 64
        E 0 88 45 64
        E 0 8d 39 64
        E 0 94 4c 64
        E 0 95 49 64
        E 0 97 51 64
        E 0 9e 4c 64
        E 0 98 45 64
        E 0 9d 2d 64
        E 204 87 51 64
        E 0 8e 4c 64
        E 0 97 4c 64
        E 0 9e 49 64
        E 207 84 4c 64
        E 0 85 49 64
        E 0 87 4c 64
        E 0 8e 49 64
        E 0 88 45 64
        E 0 8d 2d 64
        E 1 94 4c 64
        E 0 95 49 64
        E 0 97 51 64
        E 1 9e 4c 64
        E 0 98 45 64
        E 0 9d 2d 64
        E 202 87 51 64
        E 0 8e 4c 64
        E 0 97 4c 64
        E 0 9e 49 64
        E 205 84 4c 64
        E 0 85 49 64
        E 0 87 4c 64
        E 0 8e 49 64
        E 0 88 45 64
        E 0 8d 2d 64
        E 0 94 4e 64
        E 0 95 4a 64
        E 0 97 4e 64
        E 0 9e 4a 64
        E 0 98 45 64
        E 1 9d 32 64
        E 205 87 4e 64
        E 0 97 51 64
        E 207 87 51 64
        E 0 97 4e 64
        E 207 87 4e 64
        E 0 97 51 64
        E 205 84 4e 64
        E 0 85 4a 64
        E 0 87 51 64
        E 0 8e 4a 64
        E 0 88 45 64
        E 0 8d 32 64
        E 0 97 4a 64
        E 0 9e 4e 64
        E 204 87 4a 64
        E 0 8e 4e 64
        E 0 97 4e 64
        E 1 9e 51 64
        E 205 87 4e 64
        E 1 8e 51 64
        E 0 97 4a 64
        E 0 9e 4e 64
        E 204 87 4a 64
        E 0 8e 4e 64
        E 0 97 4e 64
        E 0 9e 51 64
        E 207 87 4e 64
        E 0 8e 51 64
        E 0 94 4e 64
        E 0 95 4a 64
        E 0 97 45 64
        E 0 9e 4a 64
        E 0 98 42 64
        E 0 9d 32 64
        E 207 87 45 64
        E 0 8e 4a 64
        E 0 97 4a 64
        E 0 9e 4e 64
        E 206 87 4a 64
        E 0 8e 4e 64
        E 0 97 45 64
        E 0 9e 4a 64
        E 205 87 45 64
        E 0 8e 4a 64
        E 0 97 4a 64
        E 0 9e 4e 64
        E 207 84 4e 64
        E 0 85 4a 64
        E 0 87 4a 64
        E 0 8e 4e 64
        E 0 88 42 64
        E 0 8d 32 64
        E 0 97 42 64
        E 0 9e 45 64
        E 203 87 42 64
        E 0 8e 45 64
        E 0 97 45 64
        E 0 9e 4a 64
        E 207 87 45 64
        E 0 8e 4a 64
        E 0 97 42 64
        E 0 9e 45 64
        E 204 87 42 64
        E 0 8e 45 64
        E 0 97 45 64
        E 0 9e 4a 64
        E 207 87 45 64
        E 0 8e 4a 64
        E 0 94 3e 64
        E 0 95 3e 64
        E 0 97 3e 64
        E 0 9e 42 64
        E 0 98 3e 64
        E 0 9d 32 64
        E 413 85 3e 64
        E 0 87 3e 64
        E 0 8e 42 64
        E 0 88 3e 64
        E 0 8d 32 64
        E 0 95 3e 64
        E 0 97 3e 64
        E 0 9e 3e 64
        E 0 98 3e 64
        E 0 9d 32 64
        E 205 85 3e 64
        E 0 87 3e 64
        E 0 8e 3e 64
        E 0 88 3e 64
        E 0 8d 32 64
        E 0 95 40 64
        E 0 97 40 64
        E 1 9e 40 64
        E 0 98 40 64
        E 0 9d 34 64
        E 206 84 3e 64
        E 0 85 40 64
        E 0 87 40 64
        E 0 8e 40 64
        E 0 88 40 64
        E 0 8d 34 64
        E 1 94 42 64
        E 0 95 42 64
        E 0 97 42 64
        E 0 9e 42 64
        E 0 98 42 64
        E 0 9d 36 64
        E 407 85 42 64
        E 0 87 42 64
        E 0 8e 42 64
        E 0 88 42 64
        E 0 8d 36 64
        E 0 95 42 64
        E 0 97 42 64
        E 0 9e 42 64
        E 1 98 42 64
        E 0 9d 36 64
        E 207 85 42 64
        E 0 87 42 64
        E 0 8e 42 64
        E 0 88 42 64
        E 0 8d 36 64
        E 0 95 43 64
        E 1 97 43 64
        E 0 9e 43 64
        E 0 98 43 64
        E 0 9d 37 64
        E 204 84 42 64
        E 0 85 43 64
        E 0 87 43 64
        E 0 8e 43 64
        E 0 88 43 64
        E 0 8d 37 64
        E 0 94 45 64
        E 0 95 45 64
        E 0 97 45 64
        E 0 9e 45 64
        E 0 98 45 64
        E 1 9d 39 64
        E 822 84 45 64
        E 0 85 45 64
        E 0 87 45 64
        E 0 8e 45 64
        E 0 88 45 64
        E 0 8d 39 64
        E 0 94 45 64
        E 0 95 45 64
        E 0 97 39 64
        E 0 9e 39 64
        E 0 98 39 64
        E 0 9d 2d 64
        E 824 84 45 64
        E 0 85 45 64
        E 0 87 39 64
        E 0 8e 39 64
        E 0 88 39 64
        E 0 8d 2d 64
        E 0 94 3e 64
        E 0 95 3e 64
        E 0 97 3e 64
        E 0 9e 3e 64
        E 1 98 3e 64
        E 0 9d 26 64
        E 2466 84 3e 64
        E 0 85 3e 64
        E 0 87 3e 64
        E 0 8e 3e 64
        E 0 88 3e 64
        E 0 8d 26 64
        E 3291 9d 32 64
        E 2022 8d 32 64
        E 0 9d 36 64
        E 1011 8d 36 64
        E 1 9d 34 64
        E 1009 8d 34 64
        E 0 9d 32 64
        E 1516 8d 32 64
        E 0 9d 32 64
        E 505 8d 32 64
        E 0 9d 31 64
        E 2020 8d 31 64
        E 0 9d 32 64
        E 2024 8d 32 64
        E 0 9d 2f 64
        E 1008 8d 2f 64
        E 0 9d 2f 64
        E 506 8d 2f 64
        E 0 9d 2f 64
        E 505 8d 2f 64
        E 0 9d 34 64
        E 1009 8d 34 64
        E 0 9d 34 64
        E 1011 8d 34 64
        E 0 9d 31 64
        E 1012 8d 31 64
        E 0 9d 31 64
        E 1010 8d 31 64
        E 0 9d 32 64
        E 507 8d 32 64
        E 0 9d 32 64
        E 503 8d 32 64
        E 0 9d 31 64
        E 504 8d 31 64
        E 0 9d 31 64
        E 506 8d 31 64
        E 0 9d 2f 64
        E 2022 8d 2f 64
        E 0 9d 2d 64
        E 2022 8d 2d 64
        E 24755 95 4c 64
        E 0 97 4c 64
        E 0 9e 49 64
        E 0 98 45 64
        E 1 9d 39 64
        E 507 85 4c 64
        E 1 87 4c 64
        E 0 8e 49 64
        E 0 88 45 64
        E 0 8d 39 64
        E 1 95 4c 64
        E 0 97 4c 64
        E 0 9e 49 64
        E 0 98 45 64
        E 0 9d 39 64
        E 503 85 4c 64
        E 0 87 4c 64
        E 0 8e 49 64
        E 0 88 45 64
        E 0 8d 39 64
        E 0 95 4c 64
        E 0 97 4c 64
        E 0 9e 49 64
        E 0 98 45 64
        E 3 9d 39 64
        E 503 85 4c 64
        E 1 87 4c 64
        E 0 8e 49 64
        E 0 88 45 64
        E 0 8d 39 64
        E 0 95 4e 64
        E 0 97 4e 64
        E 0 9e 4a 64
        E 0 98 45 64
        E 0 9d 36 64
        E 756 85 4e 64
        E 0 87 4e 64
        E 0 8e 4a 64
        E 0 88 45 64
        E 0 8d 36 64
        E 0 95 4e 64
        E 0 97 4e 64
        E 1 9e 4a 64
        E 0 98 45 64
        E 0 9d 34 64
        E 251 85 4e 64
        E 0 87 4e 64
        E 0 8e 4a 64
        E 0 88 45 64
        E 0 8d 34 64
        E 0 95 4e 64
        E 0 97 4e 64
        E 0 9e 4a 64
        E 0 98 45 64
        E 0 9d 32 64
        E 504 85 4e 64
        E 0 87 4e 64
        E 0 8e 4a 64
        E 0 88 45 64
        E 0 8d 32 64
        E 1 95 51 64
        E 0 97 51 64
        E 0 9e 4a 64
        E 0 98 45 64
        E 0 9d 36 64
        E 506 85 51 64
        E 0 87 51 64
        E 0 8e 4a 64
        E 0 88 45 64
        E 0 8d 36 64
        E 0 95 4a 64
        E 1 97 4a 64
        E 0 9e 47 64
        E 0 98 43 64
        E 0 9d 37 64
        E 503 85 4a 64
        E 0 87 4a 64
        E 0 8e 47 64
        E 0 88 43 64
        E 0 8d 37 64
        E 0 95 4a 64
        E 1 97 4a 64
        E 0 9e 47 64
        E 0 98 43 64
        E 0 9d 37 64
        E 253 85 4a 64
        E 0 87 4a 64
        E 0 8e 47 64
        E 0 88 43 64
        E 0 8d 37 64
        E 0 95 4a 64
        E 0 97 4a 64
        E 0 9e 47 64
        E 1 98 43 64
        E 0 9d 37 64
        E 251 85 4a 64
        E 0 87 4a 64
        E 0 8e 47 64
        E 0 88 43 64
        E 0 8d 37 64
        E 0 95 4a 64
        E 0 97 4a 64
        E 0 9e 47 64
        E 0 98 43 64
        E 0 9d 37 64
        E 506 85 4a 64
        E 0 87 4a 64
        E 0 8e 47 64
        E 0 88 43 64
        E 0 8d 37 64
        E 0 95 4a 64
        E 0 97 4a 64
        E 0 9e 47 64
        E 0 98 43 64
        E 0 9d 37 64
        E 504 85 4a 64
        E 0 87 4a 64
        E 0 8e 47 64
        E 0 88 43 64
        E 0 8d 37 64
        E 0 95 50 64
        E 0 97 50 64
        E 0 9e 4c 64
        E 0 98 47 64
        E 0 9d 34 64
        E 1010 85 50 64
        E 0 87 50 64
        E 0 8e 4c 64
        E 0 88 47 64
        E 0 8d 34 64
        E 0 95 50 64
        E 0 97 50 64
        E 0 9e 4c 64
        E 0 98 47 64
        E 0 9d 34 64
        E 508 85 50 64
        E 0 87 50 64
        E 0 8e 4c 64
        E 0 88 47 64
        E 0 8d 34 64
        E 0 95 50 64
        E 0 97 50 64
        E 0 9e 4c 64
        E 1 98 47 64
        E 0 9d 34 64
        E 502 85 50 64
        E 0 87 50 64
        E 0 8e 4c 64
        E 0 88 47 64
        E 0 8d 34 64
        E 0 95 4c 64
        E 0 97 4c 64
        E 0 9e 49 64
        E 0 98 45 64
        E 0 9d 39 64
        E 506 85 4c 64
        E 0 87 4c 64
        E 0 8e 49 64
        E 1 88 45 64
        E 0 8d 39 64
        E 0 95 4c 64
        E 0 97 4c 64
        E 0 9e 49 64
        E 0 98 45 64
        E 0 9d 39 64
        E 251 85 4c 64
        E 1 87 4c 64
        E 0 8e 49 64
        E 0 88 45 64
        E 0 8d 39 64
        E 0 95 4c 64
        E 0 97 4c 64
        E 0 9e 49 64
        E 0 98 45 64
        E 0 9d 39 64
        E 251 85 4c 64
        E 0 87 4c 64
        E 0 8e 49 64
        E 0 88 45 64
        E 0 8d 39 64
        E 1 95 4c 64
        E 0 97 4c 64
        E 0 9e 49 64
        E 0 98 45 64
        E 0 9d 39 64
        E 505 85 4c 64
        E 0 87 4c 64
        E 0 8e 49 64
        E 0 88 45 64
        E 0 8d 39 64
        E 1 95 4c 64
        E 0 97 4c 64
        E 0 9e 49 64
        E 0 98 45 64
        E 0 9d 39 64
        E 503 85 4c 64
        E 0 87 4c 64
        E 0 8e 49 64
        E 0 88 45 64
        E 0 8d 39 64
        E 0 95 51 64
        E 1 97 51 64
        E 0 9e 4a 64
        E 0 98 45 64
        E 0 9d 36 64
        E 509 8d 36 64
        E 0 9d 38 64
        E 504 85 51 64
        E 0 87 51 64
        E 0 8e 4a 64
        E 0 88 45 64
        E 0 8d 38 64
        E 0 95 4c 64
        E 0 97 4c 64
        E 0 9e 49 64
        E 0 98 45 64
        E 0 9d 39 64
        E 1008 85 4c 64
        E 0 87 4c 64
        E 0 8e 49 64
        E 0 88 45 64
        E 0 95 4e 64
        E 0 97 4e 64
        E 0 9e 47 64
        E 1 98 42 64
        E 1011 85 4e 64
        E 0 87 4e 64
        E 0 88 42 64
        E 0 8d 39 64
        E 1 95 4c 64
        E 0 97 4c 64
        E 0 98 47 64
        E 0 9d 38 64
        E 1011 85 4c 64
        E 0 87 4c 64
        E 0 8e 47 64
        E 0 88 47 64
        E 0 8d 38 64
        E 0 95 4c 64
        E 0 97 4c 64
        E 1 9e 49 64
        E 0 98 45 64
        E 0 9d 39 64
        E 1007 85 4c 64
        E 0 95 51 64
        E 1009 87 4c 64
        E 0 8e 49 64
        E 0 88 45 64
        E 0 8d 39 64
        E 0 9e 4a 64
        E 506 85 51 64
        E 0 95 4f 64
        E 507 85 4f 64
        E 0 95 4e 64
        E 504 8e 4a 64
        E 0 9e 49 64
        E 505 85 4e 64
        E 0 8e 49 64
        E 2 95 4e 64
        E 0 9e 47 64
        E 504 85 4e 64
        E 0 8e 47 64
        E 0 95 4c 64
        E 1 9e 49 64
        E 503 85 4c 64
        E 0 8e 49 64
        E 0 95 4e 64
        E 0 9e 4a 64
        E 506 85 4e 64
        E 0 95 4a 64
        E 506 85 4a 64
        E 0 95 4c 64
        E 0 98 45 64
        E 1012 8e 4a 64
        E 0 97 51 64
        E 0 9e 49 64
        E 504 88 45 64
        E 0 98 43 64
        E 505 85 4c 64
        E 0 87 51 64
        E 0 8e 49 64
        E 0 88 43 64
        E 0 97 51 64
        E 0 9e 4a 64
        E 0 98 42 64
        E 506 87 51 64
        E 0 88 42 64
        E 1 97 4f 64
        E 0 98 40 64
        E 502 87 4f 64
        E 0 88 40 64
        E 0 97 4e 64
        E 1 98 3e 64
        E 507 87 4e 64
        E 0 97 4c 64
        E 504 87 4c 64
        E 0 8e 4a 64
        E 0 88 3e 64
        E 0 94 51 64
        E 0 97 4a 64
        E 1010 87 4a 64
        E 1 97 51 64
        E 1009 84 51 64
        E 0 87 51 64
        E 0 94 53 64
        E 0 97 53 64
        E 1012 84 53 64
        E 0 87 53 64
        E 0 94 51 64
        E 0 97 51 64
        E 0 9d 3e 64
        E 507 95 45 64
        E 0 9e 45 64
        E 503 84 51 64
        E 0 85 45 64
        E 0 87 51 64
        E 0 8e 45 64
        E 0 94 4f 64
        E 0 95 47 64
        E 0 97 4f 64
        E 0 9e 47 64
        E 505 85 47 64
        E 0 8e 47 64
        E 0 95 45 64
        E 0 9e 45 64
        E 504 85 45 64
        E 0 8e 45 64
        E 0 8d 3e 64
        E 0 95 47 64
        E 0 9e 47 64
        E 0 9d 3d 64
        E 508 84 4f 64
        E 0 85 47 64
        E 0 87 4f 64
        E 0 8e 47 64
        E 0 94 4f 64
        E 0 95 49 64
        E 0 97 4f 64
        E 0 9e 49 64
        E 507 84 4f 64
        E 0 85 49 64
        E 0 87 4f 64
        E 0 8e 49 64
        E 0 8d 3d 64
        E 0 94 4e 64
        E 0 95 4a 64
        E 0 97 4e 64
        E 0 9e 4a 64
        E 0 9d 3e 64
        E 502 85 4a 64
        E 0 8e 4a 64
        E 0 95 45 64
        E 0 9e 45 64
        E 0 98 3e 64
        E 507 85 45 64
        E 0 8e 45 64
        E 0 88 3e 64
        E 0 8d 3e 64
        E 0 95 4a 64
        E 0 9e 4a 64
        E 0 98 3e 64
        E 0 9d 3e 64
        E 504 85 4a 64
        E 0 8e 4a 64
        E 0 88 3e 64
        E 0 95 4e 64
        E 0 9e 4e 64
        E 0 98 3e 64
        E 505 84 4e 64
        E 0 85 4e 64
        E 0 87 4e 64
        E 0 8e 4e 64
        E 0 88 3e 64
        E 0 8d 3e 64
        E 0 94 51 64
        E 0 95 4c 64
        E 0 97 51 64
        E 0 9e 4c 64
        E 0 98 3d 64
        E 0 9d 39 64
        E 760 88 3d 64
        E 0 98 3b 64
        E 253 88 3b 64
        E 0 8d 39 64
        E 0 98 39 64
        E 0 9d 39 64
        E 504 88 39 64
        E 1 98 3d 64
        E 505 84 51 64
        E 0 85 4c 64
        E 0 87 51 64
        E 0 8e 4c 64
        E 0 88 3d 64
        E 0 8d 39 64
        E 0 94 4e 64
        E 0 95 45 64
        E 0 97 4e 64
        E 0 9e 45 64
        E 0 98 3e 64
        E 0 9d 3b 64
        E 503 88 3e 64
        E 0 98 3e 64
        E 254 88 3e 64
        E 0 98 3e 64
        E 252 84 4e 64
        E 0 85 45 64
        E 0 87 4e 64
        E 0 8e 45 64
        E 0 88 3e 64
        E 0 8d 3b 64
        E 0 94 4e 64
        E 0 95 4a 64
        E 0 97 4e 64
        E 0 9e 4a 64
        E 0 98 3e 64
        E 0 9d 3b 64
        E 503 84 4e 64
        E 0 87 4e 64
        E 0 88 3e 64
        E 0 94 4e 64
        E 1 97 4e 64
        E 0 98 3e 64
        E 506 84 4e 64
        E 0 87 4e 64
        E 0 88 3e 64
        E 0 8d 3b 64
        E 0 94 53 64
        E 0 97 53 64
        E 0 98 3b 64
        E 0 9d 3b 64
        E 1011 84 53 64
        E 0 85 4a 64
        E 0 87 53 64
        E 0 8e 4a 64
        E 0 88 3b 64
        E 0 8d 3b 64
        E 0 94 53 64
        E 0 95 47 64
        E 0 97 53 64
        E 0 9e 47 64
        E 0 98 3b 64
        E 0 9d 40 64
        E 506 88 3b 64
        E 1 98 3b 64
        E 504 84 53 64
        E 0 85 47 64
        E 0 87 53 64
        E 0 8e 47 64
        E 0 88 3b 64
        E 0 8d 40 64
        E 0 94 50 64
        E 0 95 47 64
        E 0 97 50 64
        E 0 9e 47 64
        E 0 98 40 64
        E 0 9d 40 64
        E 503 88 40 64
        E 0 98 40 64
        E 255 88 40 64
        E 0 98 40 64
        E 251 84 50 64
        E 0 85 47 64
        E 0 87 50 64
        E 0 8e 47 64
        E 0 88 40 64
        E 0 8d 40 64
        E 1 94 50 64
        E 0 95 4c 64
        E 0 97 50 64
        E 0 9e 4c 64
        E 0 98 40 64
        E 0 9d 40 64
        E 507 88 40 64
        E 0 98 40 64
        E 505 84 50 64
        E 0 87 50 64
        E 0 88 40 64
        E 0 8d 40 64
        E 1 94 51 64
        E 0 97 51 64
        E 0 98 3d 64
        E 0 9d 39 64
        E 504 84 51 64
        E 0 87 51 64
        E 0 94 51 64
        E 0 97 51 64
        E 503 84 51 64
        E 0 85 4c 64
        E 0 87 51 64
        E 0 8e 4c 64
        E 0 88 3d 64
        E 0 8d 39 64
        E 1 94 4e 64
        E 0 95 45 64
        E 0 97 4e 64
        E 0 9e 45 64
        E 0 98 3e 64
        E 0 9d 32 64
        E 507 84 4e 64
        E 0 87 4e 64
        E 0 94 4e 64
        E 0 97 4e 64
        E 503 84 4e 64
        E 0 85 45 64
        E 0 87 4e 64
        E 0 8e 45 64
        E 0 88 3e 64
        E 0 8d 32 64
        E 0 94 4c 64
        E 0 95 45 64
        E 0 97 4c 64
        E 0 9e 45 64
        E 0 98 3e 64
        E 0 9d 2d 64
        E 1014 88 3e 64
        E 0 98 3d 64
        E 1007 84 4c 64
        E 0 85 45 64
        E 0 87 4c 64
        E 0 8e 45 64
        E 0 88 3d 64
        E 0 8d 2d 64
        E 0 94 4e 64
        E 0 95 45 64
        E 0 97 4e 64
        E 0 9e 45 64
        E 0 98 3e 64
        E 0 9d 32 64
        E 1010 84 4e 64
        E 2 85 45 64
        E 0 87 4e 64
        E 0 8e 45 64
        E 0 8d 32 64
        E 1010 88 3e 64
        E 0 98 42 64
        E 1012 88 42 64
        E 0 95 49 64
        E 0 97 49 64
        E 0 98 40 64
        E 0 9d 39 64
        E 1008 85 49 64
        E 0 87 49 64
        E 0 88 40 64
        E 1 95 47 64
        E 0 97 47 64
        E 0 98 3e 64
        E 1010 8d 39 64
        E 0 9d 38 64
        E 508 88 3e 64
        E 0 98 3e 64
        E 503 85 47 64
        E 0 87 47 64
        E 0 88 3e 64
        E 0 8d 38 64
        E 0 94 4c 64
        E 0 95 45 64
        E 0 97 45 64
        E 0 9e 4c 64
        E 0 98 3d 64
        E 0 9d 39 64
        E 506 85 45 64
        E 0 87 45 64
        E 0 95 51 64
        E 0 97 51 64
        E 505 85 51 64
        E 0 87 51 64
        E 0 95 51 64
        E 0 97 51 64
        E 503 85 51 64
        E 0 87 51 64
        E 0 95 51 64
        E 0 97 51 64
        E 507 84 4c 64
        E 0 85 51 64
        E 0 87 51 64
        E 0 8e 4c 64
        E 0 88 3d 64
        E 0 8d 39 64
        E 0 94 45 64
        E 0 95 4e 64
        E 0 97 4e 64
        E 0 9e 45 64
        E 0 98 3e 64
        E 0 9d 3e 64
        E 756 85 4e 64
        E 0 87 4e 64
        E 0 95 4c 64
        E 1 97 4c 64
        E 253 84 45 64
        E 0 85 4c 64
        E 0 87 4c 64
        E 0 8e 45 64
        E 1 94 4a 64
        E 0 95 4a 64
        E 0 97 4a 64
        E 0 9e 4a 64
        E 506 85 4a 64
        E 0 87 4a 64
        E 0 95 4e 64
        E 0 97 4e 64
        E 504 84 4a 64
        E 0 85 4e 64
        E 0 87 4e 64
        E 0 8e 4a 64
        E 0 88 3e 64
        E 0 8d 3e 64
        E 0 94 4a 64
        E 0 95 4f 64
        E 0 97 4f 64
        E 0 9e 4a 64
        E 0 98 3b 64
        E 0 9d 3b 64
        E 505 85 4f 64
        E 0 87 4f 64
        E 1 95 4f 64
        E 0 97 4f 64
        E 251 85 4f 64
        E 0 87 4f 64
        E 0 95 4f 64
        E 0 97 4f 64
        E 253 84 4a 64
        E 1 85 4f 64
        E 0 87 4f 64
        E 0 8e 4a 64
        E 0 88 3b 64
        E 0 8d 3b 64
        E 0 94 47 64
        E 0 95 4f 64
        E 0 97 4f 64
        E 0 9e 47 64
        E 0 98 3b 64
        E 0 9d 3b 64
        E 506 85 4f 64
        E 0 87 4f 64
        E 0 88 3b 64
        E 0 8d 3b 64
        E 0 95 4f 64
        E 0 97 4f 64
        E 0 98 3b 64
        E 0 9d 3b 64
        E 505 85 4f 64
        E 0 87 4f 64
        E 0 88 3b 64
        E 1 8d 3b 64
        E 0 95 4c 64
        E 0 97 4c 64
        E 0 98 40 64
        E 0 9d 40 64
        E 1008 84 47 64
        E 0 85 4c 64
        E 0 87 4c 64
        E 0 8e 47 64
        E 0 88 40 64
        E 0 8d 40 64
        E 0 94 4c 64
        E 0 95 4c 64
        E 0 97 4c 64
        E 1 9e 4c 64
        E 0 98 40 64
        E 0 9d 40 64
        E 503 85 4c 64
        E 0 87 4c 64
        E 0 95 4c 64
        E 0 97 4c 64
        E 505 84 4c 64
        E 0 85 4c 64
        E 1 87 4c 64
        E 0 8e 4c 64
        E 0 88 40 64
        E 0 8d 40 64
        E 0 94 4c 64
        E 0 95 51 64
        E 0 97 51 64
        E 0 9e 4c 64
        E 0 98 3d 64
        E 0 9d 3d 64
        E 509 85 51 64
        E 0 87 51 64
        E 0 95 51 64
        E 0 97 51 64
        E 250 85 51 64
        E 0 87 51 64
        E 0 95 51 64
        E 0 97 51 64
        E 255 84 4c 64
        E 0 85 51 64
        E 0 87 51 64
        E 0 8e 4c 64
        E 0 88 3d 64
        E 0 8d 3d 64
        E 0 94 49 64
        E 0 95 51 64
        E 0 97 51 64
        E 0 9e 49 64
        E 0 98 3d 64
        E 0 9d 3d 64
        E 504 85 51 64
        E 0 87 51 64
        E 0 95 51 64
        E 0 97 51 64
        E 503 84 49 64
        E 0 85 51 64
        E 0 87 51 64
        E 0 8e 49 64
        E 0 88 3d 64
        E 0 8d 3d 64
        E 0 94 4e 64
        E 1 95 4e 64
        E 0 97 4e 64
        E 0 9e 4e 64
        E 0 98 3e 64
        E 0 9d 3e 64
        E 505 85 4e 64
        E 0 87 4e 64
        E 0 88 3e 64
        E 0 8d 3e 64
        E 0 95 50 64
        E 0 97 50 64
        E 0 98 3e 64
        E 0 9d 3e 64
        E 504 84 4e 64
        E 0 85 50 64
        E 0 87 50 64
        E 0 8e 4e 64
        E 0 88 3e 64
        E 0 8d 3e 64
        E 0 94 4c 64
        E 0 95 51 64
        E 1 97 51 64
        E 0 9e 4c 64
        E 0 98 3d 64
        E 0 9d 3d 64
        E 508 88 3d 64
        E 0 8d 3d 64
        E 0 98 3d 64
        E 0 9d 3d 64
        E 504 84 4c 64
        E 2 85 51 64
        E 0 87 51 64
        E 0 8e 4c 64
        E 0 88 3d 64
        E 0 8d 3d 64
        E 0 94 4a 64
        E 0 95 51 64
        E 0 97 51 64
        E 0 9e 4a 64
        E 0 98 3b 64
        E 1 9d 3b 64
        E 1006 85 51 64
        E 0 87 51 64
        E 1 95 50 64
        E 0 97 50 64
        E 1010 84 4a 64
        E 0 85 50 64
        E 0 87 50 64
        E 0 8e 4a 64
        E 0 88 3b 64
        E 0 8d 3b 64
        E 0 94 49 64
        E 0 95 51 64
        E 0 97 51 64
        E 0 9e 49 64
        E 0 98 39 64
        E 0 9d 39 64
        E 504 88 39 64
        E 1 98 39 64
        E 506 88 39 64
        E 0 98 3b 64
        E 507 88 3b 64
        E 0 98 3d 64
        E 503 84 49 64
        E 0 85 51 64
        E 0 87 51 64
        E 0 8e 49 64
        E 0 88 3d 64
        E 0 8d 39 64
        E 0 95 4e 64
        E 0 97 4e 64
        E 0 98 3e 64
        E 0 9d 3b 64
        E 1011 8d 3b 64
        E 0 9d 39 64
        E 1013 85 4e 64
        E 0 87 4e 64
        E 0 8d 39 64
        E 0 95 53 64
        E 0 97 53 64
        E 0 9d 37 64
        E 1007 85 53 64
        E 1 87 53 64
        E 0 88 3e 64
        E 0 95 4c 64
        E 0 97 4c 64
        E 0 98 3d 64
        E 505 8d 37 64
        E 0 9d 37 64
        E 505 85 4c 64
        E 0 87 4c 64
        E 0 88 3d 64
        E 0 8d 37 64
        E 0 95 51 64
        E 1 97 51 64
        E 0 98 3e 64
        E 0 9d 36 64
        E 504 94 4a 64
        E 0 9e 4a 64
        E 506 84 4a 64
        E 0 8e 4a 64
        E 0 88 3e 64
        E 1 94 4a 64
        E 0 9e 4a 64
        E 0 98 39 64
        E 505 84 4a 64
        E 0 8e 4a 64
        E 1 88 39 64
        E 0 94 4a 64
        E 0 9e 4a 64
        E 0 98 3b 64
        E 503 84 4a 64
        E 0 85 51 64
        E 0 87 51 64
        E 0 8e 4a 64
        E 0 88 3b 64
        E 0 8d 36 64
        E 0 94 49 64
        E 1 95 4c 64
        E 0 97 4c 64
        E 0 9e 49 64
        E 0 98 3d 64
        E 0 9d 39 64
        E 503 88 3d 64
        E 0 98 3e 64
        E 255 84 49 64
        E 0 8e 49 64
        E 0 94 47 64
        E 0 9e 47 64
        E 252 84 47 64
        E 0 8e 47 64
        E 0 88 3e 64
        E 0 94 45 64
        E 0 9e 45 64
        E 0 98 40 64
        E 505 84 45 64
        E 0 85 4c 64
        E 0 87 4c 64
        E 0 8e 45 64
        E 0 94 49 64
        E 0 95 51 64
        E 0 97 51 64
        E 0 9e 49 64
        E 505 84 49 64
        E 0 85 51 64
        E 0 87 51 64
        E 0 8e 49 64
        E 0 88 40 64
        E 0 8d 39 64
        E 0 94 4a 64
        E 0 95 51 64
        E 0 97 51 64
        E 0 9e 4a 64
        E 0 98 39 64
        E 0 9d 36 64
        E 507 84 4a 64
        E 0 85 51 64
        E 0 87 51 64
        E 0 8e 4a 64
        E 0 94 4a 64
        E 0 95 4f 64
        E 0 97 4f 64
        E 0 9e 4a 64
        E 250 84 4a 64
        E 0 8e 4a 64
        E 1 94 4a 64
        E 0 9e 4a 64
        E 253 84 4a 64
        E 0 85 4f 64
        E 1 87 4f 64
        E 0 8e 4a 64
        E 0 88 39 64
        E 0 8d 36 64
        E 0 94 4a 64
        E 0 95 4e 64
        E 0 97 4e 64
        E 0 9e 4a 64
        E 0 98 3e 64
        E 0 9d 36 64
        E 503 84 4a 64
        E 1 85 4e 64
        E 0 87 4e 64
        E 0 8e 4a 64
        E 0 8d 36 64
        E 0 94 4a 64
        E 0 95 51 64
        E 0 97 51 64
        E 0 9e 4a 64
        E 0 9d 36 64
        E 507 84 4a 64
        E 0 85 51 64
        E 0 87 51 64
        E 0 8e 4a 64
        E 0 8d 36 64
        E 0 94 47 64
        E 0 95 4f 64
        E 0 97 4f 64
        E 0 9e 47 64
        E 0 9d 37 64
        E 503 8d 37 64
        E 0 9d 37 64
        E 506 84 47 64
        E 0 8e 47 64
        E 0 88 3e 64
        E 0 8d 37 64
        E 0 94 47 64
        E 0 9e 47 64
        E 0 98 40 64
        E 0 9d 34 64
        E 506 8d 34 64
        E 0 9d 34 64
        E 506 84 47 64
        E 0 85 4f 64
        E 0 87 4f 64
        E 0 8e 47 64
        E 0 88 40 64
        E 0 8d 34 64
        E 0 95 4e 64
        E 0 97 4e 64
        E 0 9e 47 64
        E 0 98 3d 64
        E 0 9d 36 64
        E 1009 8e 47 64
        E 0 9e 46 64
        E 1010 85 4e 64
        E 0 87 4e 64
        E 0 8e 46 64
        E 0 88 3d 64
        E 0 8d 36 64
        E 0 95 4e 64
        E 0 97 4e 64
        E 0 9e 47 64
        E 0 98 3e 64
        E 0 9d 2f 64
        E 507 85 4e 64
        E 0 87 4e 64
        E 0 94 53 64
        E 0 95 53 64
        E 0 97 53 64
        E 506 84 53 64
        E 0 85 53 64
        E 0 87 53 64
        E 0 8e 47 64
        E 0 94 53 64
        E 1 95 53 64
        E 0 97 53 64
        E 503 84 53 64
        E 0 85 53 64
        E 0 87 53 64
        E 0 94 53 64
        E 0 95 53 64
        E 0 97 53 64
        E 506 84 53 64
        E 0 85 53 64
        E 0 87 53 64
        E 0 88 3e 64
        E 0 8d 2f 64
        E 0 94 53 64
        E 0 95 50 64
        E 0 97 50 64
        E 0 98 3b 64
        E 0 9d 34 64
        E 504 9e 4c 64
        E 252 85 50 64
        E 1 87 50 64
        E 0 95 4e 64
        E 2 97 4e 64
        E 250 84 53 64
        E 0 85 4e 64
        E 0 87 4e 64
        E 0 8e 4c 64
        E 0 88 3b 64
        E 0 95 4c 64
        E 0 97 4c 64
        E 0 9e 4c 64
        E 0 98 44 64
        E 506 85 4c 64
        E 0 87 4c 64
        E 0 8e 4c 64
        E 0 95 50 64
        E 0 97 50 64
        E 0 9e 4c 64
        E 505 85 50 64
        E 0 87 50 64
        E 0 8e 4c 64
        E 0 88 44 64
        E 0 8d 34 64
        E 0 94 51 64
        E 0 95 51 64
        E 0 97 51 64
        E 0 9e 49 64
        E 0 98 40 64
        E 0 9d 2d 64
        E 506 84 51 64
        E 0 85 51 64
        E 0 87 51 64
        E 0 94 51 64
        E 0 95 51 64
        E 0 97 51 64
        E 251 84 51 64
        E 0 85 51 64
        E 0 87 51 64
        E 0 8e 49 64
        E 0 94 51 64
        E 0 95 51 64
        E 0 97 51 64
        E 0 9e 47 64
        E 253 84 51 64
        E 0 85 51 64
        E 0 87 51 64
        E 0 8e 47 64
        E 0 88 40 64
        E 0 94 51 64
        E 0 95 51 64
        E 0 97 51 64
        E 0 9e 45 64
        E 0 98 3d 64
        E 503 84 51 64
        E 0 85 51 64
        E 0 87 51 64
        E 0 8e 45 64
        E 1 94 51 64
        E 0 95 51 64
        E 0 97 51 64
        E 0 9e 49 64
        E 507 84 51 64
        E 0 85 51 64
        E 0 87 51 64
        E 0 8e 49 64
        E 0 88 3d 64
        E 0 8d 2d 64
        E 0 94 51 64
        E 0 95 4e 64
        E 0 97 4e 64
        E 0 9e 4a 64
        E 0 98 39 64
        E 0 9d 32 64
        E 503 8e 4a 64
        E 0 9e 4a 64
        E 255 85 4e 64
        E 0 87 4e 64
        E 0 8e 4a 64
        E 0 95 4c 64
        E 1 97 4c 64
        E 0 9e 4a 64
        E 252 84 51 64
        E 0 85 4c 64
        E 0 87 4c 64
        E 0 8e 4a 64
        E 0 88 39 64
        E 0 95 4a 64
        E 0 97 4a 64
        E 0 9e 4a 64
        E 0 98 42 64
        E 505 85 4a 64
        E 0 87 4a 64
        E 0 8e 4a 64
        E 0 95 4e 64
        E 0 97 4e 64
        E 0 9e 4a 64
        E 504 85 4e 64
        E 0 87 4e 64
        E 0 8e 4a 64
        E 0 88 42 64
        E 0 8d 32 64
        E 0 94 4f 64
        E 0 95 4f 64
        E 0 97 4f 64
        E 0 9e 4c 64
        E 0 98 47 64
        E 0 9d 2b 64
        E 506 84 4f 64
        E 0 85 4f 64
        E 0 87 4f 64
        E 0 8e 4c 64
        E 0 94 4f 64
        E 0 95 4f 64
        E 1 97 4f 64
        E 0 9e 4a 64
        E 252 84 4f 64
        E 0 85 4f 64
        E 0 87 4f 64
        E 0 94 4e 64
        E 0 95 4e 64
        E 0 97 4e 64
        E 252 84 4e 64
        E 0 85 4e 64
        E 0 87 4e 64
        E 0 8e 4a 64
        E 0 88 47 64
        E 0 94 4f 64
        E 0 95 4c 64
        E 0 97 4c 64
        E 0 9e 4f 64
        E 0 98 3b 64
        E 504 84 4f 64
        E 0 85 4c 64
        E 0 87 4c 64
        E 0 8e 4f 64
        E 0 94 4e 64
        E 1 95 4a 64
        E 0 97 4a 64
        E 0 9e 4e 64
        E 506 84 4e 64
        E 0 85 4a 64
        E 0 87 4a 64
        E 0 8e 4e 64
        E 0 88 3b 64
        E 0 8d 2b 64
        E 0 94 4c 64
        E 0 95 49 64
        E 0 97 49 64
        E 0 9e 4c 64
        E 0 98 3d 64
        E 0 9d 2d 64
        E 505 85 49 64
        E 0 87 49 64
        E 0 8e 4c 64
        E 0 95 51 64
        E 0 97 51 64
        E 0 9e 45 64
        E 506 85 51 64
        E 0 87 51 64
        E 0 8e 45 64
        E 0 88 3d 64
        E 0 95 4c 64
        E 0 97 4c 64
        E 0 9e 49 64
        E 0 98 45 64
        E 504 84 4c 64
        E 0 85 4c 64
        E 0 87 4c 64
        E 0 8e 49 64
        E 0 94 51 64
        E 1 95 55 64
        E 0 97 55 64
        E 0 9e 51 64
        E 505 84 51 64
        E 0 85 55 64
        E 0 87 55 64
        E 0 8e 51 64
        E 0 8d 2d 64
        E 1 94 51 64
        E 0 95 56 64
        E 0 97 56 64
        E 0 9e 4e 64
        E 0 9d 32 64
        E 504 84 51 64
        E 0 85 56 64
        E 0 87 56 64
        E 0 8e 4e 64
        E 0 94 4e 64
        E 0 95 4e 64
        E 0 97 4e 64
        E 0 9e 4a 64
        E 505 84 4e 64
        E 0 85 4e 64
        E 0 87 4e 64
        E 0 88 45 64
        E 0 8d 32 64
        E 1 94 4c 64
        E 0 95 4c 64
        E 0 97 4c 64
        E 0 98 45 64
        E 0 9d 2d 64
        E 505 8e 4a 64
        E 0 9e 49 64
        E 507 84 4c 64
        E 0 85 4c 64
        E 0 87 4c 64
        E 0 8e 49 64
        E 0 88 45 64
        E 0 8d 2d 64
        E 0 94 4a 64
        E 0 95 4a 64
        E 0 97 4a 64
        E 0 9e 4a 64
        E 0 98 45 64
        E 0 9d 32 64
        E 1008 8e 4a 64
        E 0 9e 4a 64
        E 1011 84 4a 64
        E 0 85 4a 64
        E 1 87 4a 64
        E 0 88 45 64
        E 0 8d 32 64
        E 0 95 4e 64
        E 0 97 4e 64
        E 1010 85 4e 64
        E 0 87 4e 64
        E 0 8e 4a 64
        E 0 95 4c 64
        E 0 97 4c 64
        E 0 9e 49 64
        E 0 98 45 64
        E 3 9d 39 64
        E 1007 85 4c 64
        E 0 87 4c 64
        E 0 8e 49 64
        E 0 88 45 64
        E 0 8d 39 64
        E 0 95 4a 64
        E 0 97 4a 64
        E 0 9e 4e 64
        E 0 98 45 64
        E 0 9d 39 64
        E 1010 88 45 64
        E 0 8d 39 64
        E 1 98 44 64
        E 0 9d 38 64
        E 503 85 4a 64
        E 0 87 4a 64
        E 0 95 4a 64
        E 0 97 4a 64
        E 506 85 4a 64
        E 0 87 4a 64
        E 4 8e 4e 64
        E 0 88 44 64
        E 0 8d 38 64
        E 1 95 49 64
        E 1 97 49 64
        E 0 9e 4c 64
        E 0 98 45 64
        E 0 9d 39 64
        E 500 8d 39 64
        E 1 9d 39 64
        E 504 8e 4c 64
        E 0 8d 39 64
        E 1 9d 39 64
        E 503 85 49 64
        E 0 87 49 64
        E 0 8d 39 64
        E 0 95 49 64
        E 1 97 49 64
        E 0 9d 39 64
        E 506 85 49 64
        E 0 87 49 64
        E 0 88 45 64
        E 0 8d 39 64
        E 0 95 4a 64
        E 1 97 4a 64
        E 0 9e 45 64
        E 0 9d 36 64
        E 503 85 4a 64
        E 0 87 4a 64
        E 1 95 4c 64
        E 0 97 4c 64
        E 252 8d 36 64
        E 1 9d 34 64
        E 254 85 4c 64
        E 0 87 4c 64
        E 0 8d 34 64
        E 0 95 4e 64
        E 1 97 4e 64
        E 0 98 3e 64
        E 0 9d 32 64
        E 503 8d 32 64
        E 0 9d 36 64
        E 506 85 4e 64
        E 0 87 4e 64
        E 0 8e 45 64
        E 0 88 3e 64
        E 0 8d 36 64
        E 0 95 4a 64
        E 0 97 4a 64
        E 0 9e 47 64
        E 0 98 3b 64
        E 0 9d 37 64
        E 1009 85 4a 64
        E 0 87 4a 64
        E 0 8e 47 64
        E 0 88 3b 64
        E 0 8d 37 64
        E 0 95 4e 64
        E 1 97 4e 64
        E 0 9e 45 64
        E 0 98 3e 64
        E 0 9d 36 64
        E 1012 85 4e 64
        E 0 87 4e 64
        E 0 8e 45 64
        E 0 88 3e 64
        E 0 8d 36 64
        E 0 95 47 64
        E 0 97 47 64
        E 0 9e 43 64
        E 0 98 3e 64
        E 0 9d 34 64
        E 1008 85 47 64
        E 0 87 47 64
        E 0 88 3e 64
        E 0 8d 34 64
        E 0 95 49 64
        E 1 97 49 64
        E 0 98 3d 64
        E 0 9d 39 64
        E 506 8e 43 64
        E 0 9e 43 64
        E 504 85 49 64
        E 0 87 49 64
        E 0 8e 43 64
        E 0 88 3d 64
        E 0 8d 39 64
        E 0 95 4a 64
        E 0 97 4a 64
        E 0 9e 42 64
        E 1 98 39 64
        E 0 9d 32 64
        E 504 8d 32 64
        E 0 9d 3e 64
        E 503 85 4a 64
        E 0 87 4a 64
        E 0 88 39 64
        E 0 8d 3e 64
        E 0 95 4e 64
        E 0 97 4e 64
        E 0 9d 3e 64
        E 509 8e 42 64
        E 0 8d 3e 64
        E 0 9e 42 64
        E 0 9d 3e 64
        E 506 85 4e 64
        E 0 87 4e 64
        E 0 8e 42 64
        E 0 8d 3e 64
        E 1 95 4c 64
        E 0 97 4c 64
        E 0 9e 45 64
        E 0 9d 3d 64
        E 502 8e 45 64
        E 0 9e 45 64
        E 255 8e 45 64
        E 0 8d 3d 64
        E 0 9e 45 64
        E 0 9d 3b 64
        E 251 8e 45 64
        E 0 8d 3b 64
        E 0 9e 45 64
        E 0 9d 39 64
        E 505 8e 45 64
        E 0 8d 39 64
        E 0 9e 45 64
        E 0 9d 3d 64
        E 506 85 4c 64
        E 0 87 4c 64
        E 0 8e 45 64
        E 0 8d 3d 64
        E 0 95 4a 64
        E 0 97 4a 64
        E 0 9e 45 64
        E 0 98 42 64
        E 0 9d 3e 64
        E 1010 85 4a 64
        E 0 87 4a 64
        E 0 8e 45 64
        E 0 88 42 64
        E 0 8d 3e 64
        E 0 95 4c 64
        E 0 97 4c 64
        E 0 9e 45 64
        E 0 98 40 64
        E 0 9d 3d 64
        E 1011 85 4c 64
        E 0 87 4c 64
        E 0 8e 45 64
        E 0 88 40 64
        E 0 8d 3d 64
        E 0 95 4e 64
        E 0 97 4e 64
        E 0 9e 45 64
        E 0 98 3e 64
        E 0 9d 3b 64
        E 1009 85 4e 64
        E 0 87 4e 64
        E 0 8e 45 64
        E 0 95 53 64
        E 0 97 53 64
        E 0 9e 44 64
        E 1011 85 53 64
        E 0 87 53 64
        E 0 8e 44 64
        E 0 88 3e 64
        E 0 8d 3b 64
        E 1 95 4c 64
        E 0 97 4c 64
        E 0 9e 45 64
        E 0 98 3d 64
        E 0 9d 39 64
        E 505 8e 45 64
        E 0 9e 49 64
        E 505 85 4c 64
        E 0 87 4c 64
        E 0 8d 39 64
        E 0 95 4e 64
        E 0 97 4e 64
        E 0 9d 3a 64
        E 505 8e 49 64
        E 0 9e 4e 64
        E 505 85 4e 64
        E 0 87 4e 64
        E 0 8e 4e 64
        E 0 88 3d 64
        E 0 8d 3a 64
        E 0 95 4e 64
        E 0 97 4e 64
        E 0 9e 4e 64
        E 0 98 3e 64
        E 0 9d 3b 64
        E 505 8e 4e 64
        E 0 9e 4a 64
        E 509 85 4e 64
        E 0 87 4e 64
        E 0 8e 4a 64
        E 0 88 3e 64
        E 0 8d 3b 64
        E 1 95 4f 64
        E 0 97 4f 64
        E 0 9e 47 64
        E 0 98 40 64
        E 0 9d 37 64
        E 500 8d 37 64
        E 0 9d 34 64
        E 507 85 4f 64
        E 0 87 4f 64
        E 0 88 40 64
        E 0 8d 34 64
        E 0 95 4e 64
        E 0 97 4e 64
        E 0 98 3d 64
        E 0 9d 36 64
        E 1010 8e 47 64
        E 0 9e 46 64
        E 1012 85 4e 64
        E 0 87 4e 64
        E 0 8e 46 64
        E 0 88 3d 64
        E 0 8d 36 64
        E 0 95 4e 64
        E 0 97 4e 64
        E 0 9e 47 64
        E 0 98 3e 64
        E 0 9d 2f 64
        E 1009 85 4e 64
        E 0 87 4e 64
        E 0 88 3e 64
        E 0 8d 2f 64
        E 0 9d 32 64
        E 505 8e 47 64
        E 1 9e 45 64
        E 504 8e 45 64
        E 0 95 4c 64
        E 0 97 4c 64
        E 0 9e 44 64
        E 0 98 3b 64
        E 1010 8e 44 64
        E 0 88 3b 64
        E 0 8d 32 64
        E 0 9e 45 64
        E 0 98 3d 64
        E 0 9d 31 64
        E 507 8d 31 64
        E 1 9d 32 64
        E 502 85 4c 64
        E 0 87 4c 64
        E 0 8e 45 64
        E 0 88 3d 64
        E 0 8d 32 64
        E 0 95 4c 64
        E 0 97 4c 64
        E 0 9e 45 64
        E 1 98 3b 64
        E 0 9d 34 64
        E 1010 8e 45 64
        E 0 9e 44 64
        E 1014 8e 44 64
        E 0 88 3b 64
        E 0 8d 34 64
        E 0 9e 45 64
        E 0 98 3d 64
        E 0 9d 2d 64
        E 1008 85 4c 64
        E 0 87 4c 64
        E 0 88 3d 64
        E 0 8d 2d 64
        E 0 95 4e 64
        E 1 97 4e 64
        E 0 9d 32 64
        E 503 8d 32 64
        E 1 9d 2f 64
        E 506 85 4e 64
        E 0 87 4e 64
        E 0 8e 45 64
        E 0 8d 2f 64
        E 0 95 4e 64
        E 0 97 4e 64
        E 1 9e 44 64
        E 0 98 3d 64
        E 0 9d 31 64
        E 1009 85 4e 64
        E 1 87 4e 64
        E 0 95 4d 63
        E 0 97 4d 63
        E 1011 85 4d 63
        E 1 87 4d 63
        E 0 8e 44 64
        E 0 88 3d 64
        E 0 8d 31 64
        E 0 95 4e 64
        E 0 97 4e 64
        E 0 9e 45 64
        E 0 98 3d 64
        E 0 9d 2a 64
        E 503 85 4e 64
        E 0 87 4e 64
        E 0 95 4e 64
        E 0 97 4e 64
        E 506 85 4e 64
        E 0 87 4e 64
        E 0 8e 45 64
        E 0 88 3d 64
        E 0 95 4e 64
        E 0 97 4e 64
        E 0 98 46 64
        E 504 85 4e 64
        E 0 87 4e 64
        E 0 95 4e 64
        E 0 97 4e 64
        E 506 85 4e 64
        E 0 87 4e 64
        E 0 88 46 64
        E 0 8d 2a 64
        E 0 95 4b 64
        E 0 97 4b 64
        E 0 98 42 64
        E 0 9d 2f 64
        E 504 9e 47 64
        E 254 85 4b 64
        E 0 87 4b 64
        E 0 95 49 64
        E 0 97 49 64
        E 253 85 49 64
        E 0 87 49 64
        E 0 8e 47 64
        E 0 88 42 64
        E 0 95 47 64
        E 0 97 47 64
        E 0 9e 47 64
        E 0 98 3f 64
        E 506 85 47 64
        E 0 87 47 64
        E 0 8e 47 64
        E 0 95 4b 64
        E 0 97 4b 64
        E 0 9e 47 64
        E 503 85 4b 64
        E 0 87 4b 64
        E 0 8e 47 64
        E 0 88 3f 64
        E 0 8d 2f 64
        E 0 95 4c 64
        E 0 97 4c 64
        E 0 9e 44 64
        E 1 98 3b 64
        E 0 9d 34 64
        E 503 85 4c 64
        E 0 87 4c 64
        E 0 95 4c 64
        E 0 97 4c 64
        E 255 85 4c 64
        E 0 87 4c 64
        E 0 8e 44 64
        E 0 95 4c 64
        E 0 97 4c 64
        E 0 9e 42 64
        E 251 85 4c 64
        E 0 87 4c 64
        E 0 8e 42 64
        E 0 88 3b 64
        E 0 95 4c 64
        E 0 97 4c 64
        E 0 9e 40 64
        E 0 98 38 64
        E 508 85 4c 64
        E 0 87 4c 64
        E 0 8e 40 64
        E 0 95 4c 64
        E 0 97 4c 64
        E 0 9e 44 64
        E 504 85 4c 64
        E 0 87 4c 64
        E 0 8e 44 64
        E 0 88 38 64
        E 0 8d 34 64
        E 0 95 49 64
        E 1 97 49 64
        E 0 9e 45 64
        E 0 98 40 64
        E 0 9d 2d 64
        E 505 8e 45 64
        E 0 9e 45 64
        E 252 85 49 64
        E 0 87 49 64
        E 0 8e 45 64
        E 0 95 47 64
        E 0 97 47 64
        E 0 9e 45 64
        E 252 85 47 64
        E 0 87 47 64
        E 0 8e 45 64
        E 0 88 40 64
        E 0 95 45 64
        E 0 97 45 64
        E 0 9e 45 64
        E 0 98 3d 64
        E 505 85 45 64
        E 0 87 45 64
        E 0 8e 45 64
        E 0 95 49 64
        E 1 97 49 64
        E 0 9e 45 64
        E 505 85 49 64
        E 0 87 49 64
        E 0 8e 45 64
        E 0 88 3d 64
        E 0 8d 2d 64
        E 0 95 4a 64
        E 0 97 4a 64
        E 0 9e 42 64
        E 0 98 39 64
        E 0 9d 32 64
        E 504 85 4a 64
        E 0 87 4a 64
        E 0 95 4a 64
        E 1 97 4a 64
        E 252 85 4a 64
        E 0 87 4a 64
        E 0 8e 42 64
        E 0 95 4a 64
        E 0 97 4a 64
        E 1 9e 40 64
        E 252 85 4a 64
        E 0 87 4a 64
        E 0 8e 40 64
        E 0 88 39 64
        E 1 95 4a 64
        E 0 97 4a 64
        E 0 9e 3e 64
        E 0 98 36 64
        E 506 85 4a 64
        E 0 87 4a 64
        E 0 8e 3e 64
        E 0 95 4a 64
        E 0 97 4a 64
        E 0 9e 42 64
        E 503 85 4a 64
        E 0 87 4a 64
        E 0 8e 42 64
        E 0 88 36 64
        E 0 8d 32 64
        E 0 95 47 64
        E 1 97 47 64
        E 0 9e 43 64
        E 0 98 3e 64
        E 0 9d 2b 64
        E 505 8e 43 64
        E 0 88 3e 64
        E 0 9e 43 64
        E 0 98 3e 64
        E 253 85 47 64
        E 0 87 47 64
        E 0 8e 43 64
        E 0 88 3e 64
        E 0 95 45 64
        E 1 97 45 64
        E 0 9e 43 64
        E 0 98 3e 64
        E 252 85 45 64
        E 0 87 45 64
        E 0 8e 43 64
        E 0 88 3e 64
        E 0 95 43 64
        E 0 97 43 64
        E 0 9e 43 64
        E 0 98 3e 64
        E 504 85 43 64
        E 0 87 43 64
        E 0 8e 43 64
        E 0 88 3e 64
        E 0 95 47 64
        E 0 97 47 64
        E 0 9e 43 64
        E 0 98 3e 64
        E 506 85 47 64
        E 0 87 47 64
        E 0 8e 43 64
        E 0 88 3e 64
        E 0 8d 2b 64
        E 0 95 48 64
        E 0 97 48 64
        E 1 9e 43 64
        E 0 98 40 64
        E 0 9d 30 64
        E 1012 85 48 64
        E 0 87 48 64
        E 0 88 40 64
        E 0 8d 30 64
        E 0 95 47 64
        E 0 97 47 64
        E 0 98 3e 64
        E 0 9d 2b 64
        E 1009 85 47 64
        E 0 87 47 64
        E 0 8e 43 64
        E 0 88 3e 64
        E 0 8d 2b 64
        E 0 95 47 64
        E 0 97 47 64
        E 0 9e 43 64
        E 0 98 40 64
        E 0 9d 30 64
        E 1008 85 47 64
        E 0 87 47 64
        E 0 8e 43 64
        E 0 95 45 64
        E 0 97 45 64
        E 0 9e 48 64
        E 1013 85 45 64
        E 0 87 45 64
        E 0 8e 48 64
        E 0 88 40 64
        E 0 8d 30 64
        E 1 95 47 64
        E 0 97 47 64
        E 0 9e 42 64
        E 0 98 3f 64
        E 0 9d 2f 64
        E 1009 8e 42 64
        E 0 88 3f 64
        E 0 8d 2f 64
        E 0 9e 40 64
        E 0 98 37 64
        E 0 9d 34 64
        E 1008 85 47 64
        E 1 87 47 64
        E 0 8e 40 64
        E 0 88 37 64
        E 0 8d 34 64
        E 0 95 47 64
        E 0 97 47 64
        E 0 9e 40 64
        E 0 98 36 64
        E 0 9d 2f 64
        E 1013 8e 40 64
        E 0 88 36 64
        E 0 9e 3f 64
        E 1 98 3b 64
        E 503 85 47 64
        E 0 87 47 64
        E 0 95 45 64
        E 1 97 45 64
        E 505 85 45 64
        E 0 87 45 64
        E 0 8e 3f 64
        E 0 88 3b 64
        E 0 8d 2f 64
        E 0 95 43 64
        E 0 97 43 64
        E 0 9e 40 64
        E 0 98 3b 64
        E 0 9d 34 64
        E 1010 85 43 64
        E 0 87 43 64
        E 0 8e 40 64
        E 0 88 3b 64
        E 0 8d 34 64
        E 0 9d 38 64
        E 1011 8d 38 64
        E 0 9d 39 64
        E 2019 8d 39 64
        E 1013 9d 36 64
        E 1010 8d 36 64
        E 0 9d 37 64
        E 2019 8d 37 64
        E 0 9d 32 64
        E 2023 8d 32 64
        E 0 9d 37 64
        E 1009 8d 37 64
        E 0 9d 36 64
        E 1012 8d 36 64
        E 0 9d 34 64
        E 2020 8d 34 64
        E 0 94 51 64
        E 0 95 4a 64
        E 0 97 4a 64
        E 0 9d 32 64
        E 1013 98 3e 64
        E 1008 84 51 64
        E 0 85 4a 64
        E 0 87 4a 64
        E 0 8d 32 64
        E 0 94 51 64
        E 1 95 4e 64
        E 0 97 4e 64
        E 0 9e 45 64
        E 1010 84 51 64
        E 0 85 4e 64
        E 0 87 4e 64
        E 0 8e 45 64
        E 0 88 3e 64
        E 0 94 51 64
        E 0 95 4c 64
        E 0 97 4c 64
        E 0 9e 49 64
        E 0 98 3d 64
        E 0 9d 39 64
        E 1011 84 51 64
        E 0 85 4c 64
        E 0 87 4c 64
        E 0 8e 49 64
        E 0 88 3d 64
        E 0 8d 39 64
        E 0 94 53 64
        E 0 95 4a 64
        E 0 97 4a 64
        E 0 9e 42 64
        E 1 98 3b 64
        E 0 9d 39 64
        E 1010 84 53 64
        E 0 8e 42 64
        E 0 8d 39 64
        E 0 94 4c 64
        E 0 9e 47 64
        E 0 9d 38 64
        E 505 85 4a 64
        E 0 87 4a 64
        E 0 95 4a 64
        E 0 97 4a 64
        E 505 84 4c 64
        E 0 85 4a 64
        E 1 87 4a 64
        E 0 8e 47 64
        E 0 88 3b 64
        E 0 8d 38 64
        E 0 94 4c 64
        E 0 95 49 64
        E 0 97 49 64
        E 0 9e 40 64
        E 0 98 39 64
        E 0 9d 39 64
        E 502 88 39 64
        E 1 98 39 64
        E 507 84 4c 64
        E 0 88 39 64
        E 0 98 3b 64
        E 506 88 3b 64
        E 0 98 3d 64
        E 504 85 49 64
        E 1 87 49 64
        E 0 8e 40 64
        E 0 88 3d 64
        E 0 8d 39 64
        E 0 98 3e 64
        E 0 9d 3b 64
        E 504 94 4e 64
        E 0 95 4e 64
        E 0 97 4e 64
        E 253 88 3e 64
        E 0 98 3e 64
        E 252 84 4e 64
        E 0 85 4e 64
        E 0 87 4e 64
        E 0 88 3e 64
        E 0 8d 3b 64
        E 0 94 4e 64
        E 1 95 4e 64
        E 0 97 4e 64
        E 0 9e 45 64
        E 0 98 3e 64
        E 0 9d 39 64
        E 505 84 4e 64
        E 0 85 4e 64
        E 0 87 4e 64
        E 0 88 3e 64
        E 0 94 4e 64
        E 0 95 4e 64
        E 1 97 4e 64
        E 0 98 3e 64
        E 506 84 4e 64
        E 0 85 4e 64
        E 0 87 4e 64
        E 0 8e 45 64
        E 0 88 3e 64
        E 0 8d 39 64
        E 1 94 4f 64
        E 0 95 4f 64
        E 1 97 4f 64
        E 0 9e 47 64
        E 0 98 3e 64
        E 1 9d 37 64
        E 501 88 3e 64
        E 1 98 3e 64
        E 250 84 4f 64
        E 0 85 4f 64
        E 0 87 4f 64
        E 0 88 3e 64
        E 0 94 4e 64
        E 0 95 4e 64
        E 0 97 4e 64
        E 0 98 3e 64
        E 254 84 4e 64
        E 0 85 4e 64
        E 0 87 4e 64
        E 0 8e 47 64
        E 0 88 3e 64
        E 0 94 4c 64
        E 0 95 4c 64
        E 0 97 4c 64
        E 0 9e 49 64
        E 0 98 40 64
        E 504 84 4c 64
        E 0 85 4c 64
        E 0 87 4c 64
        E 0 88 40 64
        E 0 8d 37 64
        E 1 94 4c 64
        E 0 95 4c 64
        E 0 97 4c 64
        E 0 98 40 64
        E 0 9d 37 64
        E 505 84 4c 64
        E 0 85 4c 64
        E 0 87 4c 64
        E 0 8e 49 64
        E 0 88 40 64
        E 0 8d 37 64
        E 0 94 4e 64
        E 0 95 4e 64
        E 0 97 4e 64
        E 0 9e 4a 64
        E 0 98 39 64
        E 0 9d 36 64
        E 503 84 4e 64
        E 0 85 4e 64
        E 0 87 4e 64
        E 0 88 39 64
        E 0 94 4e 64
        E 1 95 4e 64
        E 0 97 4e 64
        E 0 98 39 64
        E 254 84 4e 64
        E 0 85 4e 64
        E 0 87 4e 64
        E 0 94 4e 64
        E 0 95 4e 64
        E 0 97 4e 64
        E 251 84 4e 64
        E 0 85 4e 64
        E 0 87 4e 64
        E 0 88 39 64
        E 0 94 4f 64
        E 0 95 4f 64
        E 1 97 4f 64
        E 0 98 39 64
        E 505 84 4f 64
        E 0 85 4f 64
        E 0 87 4f 64
        E 0 8e 4a 64
        E 0 94 4e 64
        E 0 95 4e 64
        E 0 97 4e 64
        E 0 9e 4a 64
        E 506 84 4e 64
        E 1 85 4e 64
        E 0 87 4e 64
        E 0 8e 4a 64
        E 0 8d 36 64
        E 0 94 4c 64
        E 0 95 4c 64
        E 0 97 4c 64
        E 0 9e 49 64
        E 504 85 4c 64
        E 0 87 4c 64
        E 0 95 4c 64
        E 0 97 4c 64
        E 0 9d 39 64
        E 504 85 4c 64
        E 0 87 4c 64
        E 0 8e 49 64
        E 0 88 39 64
        E 0 8d 39 64
        E 0 9e 49 64
        E 0 98 39 64
        E 0 9d 39 64
        E 506 8d 39 64
        E 1 9d 39 64
        E 506 84 4c 64
        E 0 8e 49 64
        E 0 88 39 64
        E 0 8d 39 64
        E 0 95 51 64
        E 0 97 51 64
        E 0 9e 4a 64
        E 0 98 39 64
        E 0 9d 36 64
        E 756 8d 36 64
        E 0 9d 34 64
        E 254 8e 4a 64
        E 0 88 39 64
        E 0 8d 34 64
        E 0 9e 4a 64
        E 0 98 3e 64
        E 0 9d 32 64
        E 504 8e 4a 64
        E 0 8d 32 64
        E 0 9e 4a 64
        E 0 9d 36 64
        E 506 85 51 64
        E 0 87 51 64
        E 0 8e 4a 64
        E 0 8d 36 64
        E 0 95 4f 64
        E 0 97 4f 64
        E 0 9e 47 64
        E 0 9d 37 64
        E 506 8d 37 64
        E 0 9d 37 64
        E 251 8d 37 64
        E 0 9d 37 64
        E 254 8e 47 64
        E 0 88 3e 64
        E 0 8d 37 64
        E 1 9e 47 64
        E 0 98 3b 64
        E 0 9d 37 64
        E 502 8d 37 64
        E 0 9d 37 64
        E 508 85 4f 64
        E 0 87 4f 64
        E 0 8e 47 64
        E 0 88 3b 64
        E 0 8d 37 64
        E 0 95 50 64
        E 0 97 50 64
        E 0 9e 4c 64
        E 0 98 3b 64
        E 1 9d 34 64
        E 1009 8e 4c 64
        E 0 88 3b 64
        E 0 8d 34 64
        E 1 9e 4c 64
        E 0 98 40 64
        E 0 9d 34 64
        E 502 8d 34 64
        E 1 9d 34 64
        E 505 85 50 64
        E 0 87 50 64
        E 0 8e 4c 64
        E 0 8d 34 64
        E 0 95 51 64
        E 0 97 51 64
        E 0 9e 49 64
        E 1 9d 39 64
        E 504 8d 39 64
        E 0 9d 39 64
        E 253 8d 39 64
        E 1 9d 39 64
        E 253 8e 49 64
        E 0 88 40 64
        E 0 8d 39 64
        E 0 9e 49 64
        E 0 98 3d 64
        E 0 9d 39 64
        E 505 8d 39 64
        E 0 9d 39 64
        E 505 85 51 64
        E 0 87 51 64
        E 0 8e 49 64
        E 0 88 3d 64
        E 0 8d 39 64
        E 0 95 51 64
        E 0 97 51 64
        E 0 9e 4a 64
        E 0 98 42 64
        E 0 9d 36 64
        E 1010 85 51 64
        E 0 87 51 64
        E 0 8e 4a 64
        E 0 88 42 64
        E 0 8d 36 64
        E 0 95 51 64
        E 0 97 51 64
        E 0 9e 4a 64
        E 0 98 42 64
        E 0 9d 32 64
        E 1012 85 51 64
        E 0 87 51 64
        E 0 8e 4a 64
        E 0 88 42 64
        E 0 8d 32 64
        E 0 94 51 64
        E 0 95 51 64
        E 0 97 51 64
        E 0 9e 4a 64
        E 0 98 40 64
        E 0 9d 39 64
        E 506 84 51 64
        E 0 94 51 64
        E 251 84 51 64
        E 1 94 51 64
        E 251 84 51 64
        E 1 8e 4a 64
        E 0 94 51 64
        E 0 9e 49 64
        E 505 84 51 64
        E 1 94 51 64
        E 504 84 51 64
        E 0 85 51 64
        E 0 87 51 64
        E 0 8e 49 64
        E 0 88 40 64
        E 0 8d 39 64
        E 0 94 4e 64
        E 0 95 51 64
        E 0 97 51 64
        E 1 9e 4a 64
        E 0 98 42 64
        E 0 9d 32 64
        E 758 84 4e 64
        E 0 94 4e 64
        E 250 84 4e 64
        E 0 85 51 64
        E 0 87 51 64
        E 0 8e 4a 64
        E 0 8d 32 64
        E 0 94 4e 64
        E 0 95 4e 64
        E 0 97 4e 64
        E 0 9e 47 64
        E 0 9d 33 64
        E 508 84 4e 64
        E 1 94 4e 64
        E 503 84 4e 64
        E 0 85 4e 64
        E 0 87 4e 64
        E 0 88 42 64
        E 0 8d 33 64
        E 0 94 4f 64
        E 0 95 4f 64
        E 0 97 4f 64
        E 0 98 3b 64
        E 0 9d 34 64
        E 506 84 4f 64
        E 0 94 4f 64
        E 254 84 4f 64
        E 1 94 4f 64
        E 250 84 4f 64
        E 0 85 4f 64
        E 0 87 4f 64
        E 0 8e 47 64
        E 1 88 3b 64
        E 0 8d 34 64
        E 0 94 4e 64
        E 0 95 4e 64
        E 0 97 4e 64
        E 0 9e 47 64
        E 0 98 3e 64
        E 0 9d 3b 64
        E 503 84 4e 64
        E 1 94 4e 64
        E 503 84 4e 64
        E 1 85 4e 64
        E 0 87 4e 64
        E 0 8e 47 64
        E 0 88 3e 64
        E 0 8d 3b 64
        E 0 94 4e 64
        E 0 95 4e 64
        E 0 97 4e 64
        E 0 9e 47 64
        E 0 98 3d 64
        E 0 9d 36 64
        E 1014 8e 47 64
        E 0 9e 46 64
        E 503 84 4e 64
        E 1 94 4c 64
        E 505 84 4c 64
        E 0 85 4e 64
        E 0 87 4e 64
        E 0 8e 46 64
        E 0 88 3d 64
        E 0 8d 36 64
        E 0 94 4a 64
        E 0 95 4e 64
        E 0 97 4e 64
        E 1 9e 47 64
        E 0 98 3e 64
        E 0 9d 3b 64
        E 1007 84 4a 64
        E 0 85 4e 64
        E 0 87 4e 64
        E 0 88 3e 64
        E 0 8d 3b 64
        E 0 98 40 64
        E 1 9d 38 64
        E 1013 8e 47 64
        E 0 88 40 64
        E 0 8d 38 64
        E 0 94 51 64
        E 1 95 51 64
        E 0 97 51 64
        E 0 9e 48 64
        E 0 98 40 64
        E 0 9d 39 64
        E 503 84 51 64
        E 1 94 51 64
        E 250 84 51 64
        E 0 94 51 64
        E 254 84 51 64
        E 0 85 51 64
        E 0 87 51 64
        E 0 8e 48 64
        E 0 88 40 64
        E 0 8d 39 64
        E 0 94 4f 64
        E 1 95 4f 64
        E 0 97 4f 64
        E 0 9e 47 64
        E 0 98 40 64
        E 0 9d 34 64
        E 504 84 4f 64
        E 0 94 4f 64
        E 506 84 4f 64
        E 0 85 4f 64
        E 0 87 4f 64
        E 0 8e 47 64
        E 0 8d 34 64
        E 0 94 4e 64
        E 0 95 4e 64
        E 1 97 4e 64
        E 0 9e 47 64
        E 0 9d 2f 64
        E 1010 84 4e 64
        E 0 88 40 64
        E 0 98 3f 64
        E 1010 85 4e 64
        E 0 87 4e 64
        E 0 8e 47 64
        E 0 88 3f 64
        E 0 8d 2f 64
        E 0 95 4f 64
        E 0 97 4f 64
        E 0 9e 47 64
        E 1 98 40 64
        E 0 9d 34 64
        E 1010 85 4f 64
        E 0 87 4f 64
        E 0 8e 47 64
        E 0 88 40 64
        E 0 95 4f 64
        E 0 97 4f 64
        E 0 98 40 64
        E 502 8d 34 64
        E 0 9d 32 64
        E 507 8d 32 64
        E 0 94 4f 64
        E 1 9d 31 64
        E 505 84 4f 64
        E 1 94 4f 64
        E 251 84 4f 64
        E 0 94 4f 64
        E 254 84 4f 64
        E 0 85 4f 64
        E 0 87 4f 64
        E 0 88 40 64
        E 0 8d 31 64
        E 0 94 4e 64
        E 0 95 4e 64
        E 0 97 4e 64
        E 0 98 3e 64
        E 0 9d 32 64
        E 504 84 4e 64
        E 0 94 4e 64
        E 506 84 4e 64
        E 0 85 4e 64
        E 1 87 4e 64
        E 0 88 3e 64
        E 0 8d 32 64
        E 0 94 4c 64
        E 0 95 4c 64
        E 0 97 4c 64
        E 0 98 3e 64
        E 0 9d 39 64
        E 1007 84 4c 64
        E 0 88 3e 64
        E 1 8d 39 64
        E 0 98 3d 64
        E 0 9d 3a 64
        E 507 85 4c 64
        E 0 87 4c 64
        E 0 95 4e 64
        E 0 97 4e 64
        E 251 85 4e 64
        E 0 87 4e 64
        E 1 95 4c 64
        E 0 97 4c 64
        E 253 85 4c 64
        E 0 87 4c 64
        E 0 8d 3a 64
        E 1 95 4a 64
        E 0 97 4a 64
        E 0 9d 3b 64
        E 1010 88 3d 64
        E 1 98 3b 64
        E 502 85 4a 64
        E 0 87 4a 64
        E 0 95 4c 64
        E 0 97 4c 64
        E 252 85 4c 64
        E 1 87 4c 64
        E 0 95 4a 64
        E 0 97 4a 64
        E 252 88 3b 64
        E 0 85 4a 64
        E 0 87 4a 64
        E 0 8d 3b 64
        E 0 98 3b 64
        E 0 95 49 64
        E 0 97 49 64
        E 1 9d 36 64
        E 1012 88 3b 64
        E 0 85 49 64
        E 0 87 49 64
        E 0 98 3a 64
        E 0 95 4e 64
        E 2 97 4e 64
        E 1008 88 3a 64
        E 0 8d 36 64
        E 1 98 3b 64
        E 0 9e 47 64
        E 0 9d 37 64
        E 1007 85 4e 64
        E 0 87 4e 64
        E 1 95 4c 64
        E 0 97 4c 64
        E 1013 85 4c 64
        E 0 87 4c 64
        E 0 8e 47 64
        E 0 88 3b 64
        E 0 8d 37 64
        E 0 95 4e 64
        E 0 97 4e 64
        E 0 9e 46 64
        E 0 98 3d 64
        E 0 9d 36 64
        E 504 8d 36 64
        E 0 9d 36 64
        E 504 85 4e 64
        E 0 87 4e 64
        E 0 8d 36 64
        E 0 94 4e 64
        E 1 95 4e 64
        E 0 97 4e 64
        E 0 9d 36 64
        E 505 8d 36 64
        E 0 9d 36 64
        E 505 8e 46 64
        E 0 88 3d 64
        E 0 8d 36 64
        E 1 98 42 64
        E 0 9d 33 64
        E 504 9e 47 64
        E 252 8d 33 64
        E 0 9d 33 64
        E 255 84 4e 64
        E 0 85 4e 64
        E 0 87 4e 64
        E 0 8e 47 64
        E 0 8d 33 64
        E 0 94 53 64
        E 0 95 53 64
        E 0 97 53 64
        E 1 9e 47 64
        E 0 9d 33 64
        E 503 8e 47 64
        E 0 9e 47 64
        E 506 84 53 64
        E 0 85 53 64
        E 0 87 53 64
        E 0 8e 47 64
        E 0 88 42 64
        E 0 8d 33 64
        E 3 94 53 64
        E 1 95 53 64
        E 0 97 53 64
        E 1 9e 44 64
        E 0 98 3b 64
        E 500 9d 34 64
        E 251 8e 44 64
        E 1 9e 44 64
        E 253 84 53 64
        E 0 85 53 64
        E 0 87 53 64
        E 0 8e 44 64
        E 0 8d 34 64
        E 0 94 4c 64
        E 0 95 4c 64
        E 0 97 4c 64
        E 0 9e 44 64
        E 0 9d 34 64
        E 505 8d 34 64
        E 0 9d 34 64
        E 505 8e 44 64
        E 0 88 3b 64
        E 0 8d 34 64
        E 1 98 40 64
        E 0 9d 31 64
        E 504 9e 45 64
        E 252 8d 31 64
        E 0 9d 31 64
        E 256 84 4c 64
        E 0 85 4c 64
        E 0 87 4c 64
        E 0 8e 45 64
        E 0 8d 31 64
        E 0 94 51 64
        E 0 95 51 64
        E 0 97 51 64
        E 0 9e 45 64
        E 0 9d 31 64
        E 502 8e 45 64
        E 0 9e 45 64
        E 506 84 51 64
        E 0 85 51 64
        E 0 87 51 64
        E 0 8e 45 64
        E 0 88 40 64
        E 0 8d 31 64
        E 0 94 51 64
        E 0 95 51 64
        E 0 97 51 64
        E 0 9e 42 64
        E 0 98 39 64
        E 507 9d 32 64
        E 250 8e 42 64
        E 0 9e 42 64
        E 255 84 51 64
        E 1 85 51 64
        E 0 87 51 64
        E 0 8e 42 64
        E 0 8d 32 64
        E 0 94 4a 64
        E 0 95 4a 64
        E 0 97 4a 64
        E 0 9e 42 64
        E 0 9d 32 64
        E 504 8d 32 64
        E 0 9d 32 64
        E 504 8e 42 64
        E 0 88 39 64
        E 0 8d 32 64
        E 0 9d 2f 64
        E 506 8d 2f 64
        E 0 9d 2d 64
        E 505 84 4a 64
        E 0 85 4a 64
        E 0 87 4a 64
        E 0 8d 2d 64
        E 0 94 4f 64
        E 0 95 4f 64
        E 0 97 4f 64
        E 0 9d 2f 64
        E 504 8d 2f 64
        E 1 9d 31 64
        E 504 84 4f 64
        E 0 85 4f 64
        E 0 87 4f 64
        E 0 8d 31 64
        E 0 94 4f 64
        E 0 95 4f 64
        E 0 97 4f 64
        E 0 98 45 64
        E 0 9d 32 64
        E 508 88 45 64
        E 0 8d 32 64
        E 0 98 45 64
        E 0 9d 32 64
        E 252 88 45 64
        E 0 8d 32 64
        E 1 98 45 64
        E 0 9d 32 64
        E 253 84 4f 64
        E 0 85 4f 64
        E 1 87 4f 64
        E 0 88 45 64
        E 0 8d 32 64
        E 0 94 4e 64
        E 0 95 4e 64
        E 0 97 4e 64
        E 0 98 45 64
        E 0 9d 32 64
        E 504 88 45 64
        E 0 8d 32 64
        E 0 98 45 64
        E 0 9d 32 64
        E 503 84 4e 64
        E 0 85 4e 64
        E 0 87 4e 64
        E 0 88 45 64
        E 0 8d 32 64
        E 0 94 4c 64
        E 0 95 4c 64
        E 0 97 4c 64
        E 0 98 43 64
        E 0 9d 32 64
        E 507 88 43 64
        E 0 8d 32 64
        E 0 98 43 64
        E 0 9d 32 64
        E 505 88 43 64
        E 0 8d 32 64
        E 0 98 45 64
        E 0 9d 31 64
        E 1011 84 4c 64
        E 0 85 4c 64
        E 0 87 4c 64
        E 0 88 45 64
        E 0 8d 31 64
        E 0 94 4a 64
        E 0 95 4a 64
        E 1 97 4a 64
        E 0 98 42 64
        E 0 9d 32 64
        E 1009 84 4a 64
        E 0 85 4a 64
        E 0 87 4a 64
        E 0 88 42 64
        E 0 8d 32 64
        E 0 95 49 64
        E 0 97 49 64
        E 0 98 45 64
        E 0 9d 36 64
        E 1009 85 49 64
        E 0 87 49 64
        E 0 8d 36 64
        E 0 95 4a 64
        E 0 97 4a 64
        E 0 9d 2f 64
        E 1012 88 45 64
        E 1 98 44 64
        E 1008 85 4a 64
        E 0 87 4a 64
        E 0 88 44 64
        E 0 8d 2f 64
        E 0 95 49 64
        E 1 97 49 64
        E 0 9e 45 64
        E 0 98 45 64
        E 0 9d 2d 64
        E 2022 85 49 64
        E 0 87 49 64
        E 0 8e 45 64
        E 0 88 45 64
        E 0 8d 2d 64
        E 0 9e 47 64
        E 1010 8e 47 64
        E 0 9e 45 64
        E 0 98 3e 64
        E 1011 8e 45 64
        E 0 88 3e 64
        E 0 9e 43 64
        E 1 98 3e 64
        E 1010 88 3e 64
        E 0 98 3d 64
        E 504 8e 43 64
        E 0 9e 43 64
        E 506 8e 43 64
        E 0 88 3d 64
        E 0 9e 42 64
        E 0 98 3e 64
        E 505 88 3e 64
        E 0 94 51 64
        E 0 95 4a 64
        E 0 97 4a 64
        E 0 98 39 64
        E 1 9d 32 64
        E 505 84 51 64
        E 0 85 4a 64
        E 0 87 4a 64
        E 0 88 39 64
        E 0 8d 32 64
        E 0 94 51 64
        E 0 95 4a 64
        E 0 97 4a 64
        E 0 98 39 64
        E 0 9d 32 64
        E 504 84 51 64
        E 0 85 4a 64
        E 0 87 4a 64
        E 0 88 39 64
        E 0 8d 32 64
        E 0 94 51 64
        E 0 95 4a 64
        E 0 97 4a 64
        E 1 98 39 64
        E 0 9d 32 64
        E 505 84 51 64
        E 1 85 4a 64
        E 0 87 4a 64
        E 0 8e 42 64
        E 0 88 39 64
        E 0 8d 32 64
        E 0 94 51 64
        E 0 95 4c 64
        E 0 97 4c 64
        E 0 9e 45 64
        E 0 98 39 64
        E 0 9d 31 64
        E 758 84 51 64
        E 0 85 4c 64
        E 0 87 4c 64
        E 0 88 39 64
        E 0 8d 31 64
        E 0 94 51 64
        E 0 95 4c 64
        E 0 97 4c 64
        E 0 98 39 64
        E 0 9d 2f 64
        E 251 84 51 64
        E 0 85 4c 64
        E 0 87 4c 64
        E 0 88 39 64
        E 0 8d 2f 64
        E 0 94 51 64
        E 0 95 4c 64
        E 0 97 4c 64
        E 0 98 39 64
        E 1 9d 2d 64
        E 503 84 51 64
        E 0 85 4c 64
        E 0 87 4c 64
        E 0 88 39 64
        E 0 8d 2d 64
        E 0 94 51 64
        E 1 95 4c 64
        E 0 97 4c 64
        E 0 98 39 64
        E 0 9d 31 64
        E 507 84 51 64
        E 0 85 4c 64
        E 0 87 4c 64
        E 0 8e 45 64
        E 0 88 39 64
        E 0 8d 31 64
        E 0 94 51 64
        E 0 95 4a 64
        E 0 97 4a 64
        E 0 9e 42 64
        E 0 98 39 64
        E 0 9d 32 64
        E 504 84 51 64
        E 0 85 4a 64
        E 0 87 4a 64
        E 0 88 39 64
        E 0 8d 32 64
        E 0 94 51 64
        E 0 95 4a 64
        E 0 97 4a 64
        E 0 98 39 64
        E 0 9d 32 64
        E 253 84 51 64
        E 0 85 4a 64
        E 1 87 4a 64
        E 0 88 39 64
        E 0 8d 32 64
        E 0 94 51 64
        E 0 95 4a 64
        E 0 97 4a 64
        E 0 98 39 64
        E 0 9d 32 64
        E 250 84 51 64
        E 0 85 4a 64
        E 0 87 4a 64
        E 0 8e 42 64
        E 0 88 39 64
        E 0 8d 32 64
        E 0 94 51 64
        E 0 95 4a 64
        E 0 97 4a 64
        E 0 9e 42 64
        E 0 98 3e 64
        E 0 9d 32 64
        E 506 84 51 64
        E 1 85 4a 64
        E 0 87 4a 64
        E 0 8e 42 64
        E 0 88 3e 64
        E 0 8d 32 64
        E 0 94 51 64
        E 0 95 4a 64
        E 0 97 4a 64
        E 0 9e 42 64
        E 0 98 3e 64
        E 0 9d 32 64
        E 505 84 51 64
        E 0 85 4a 64
        E 0 87 4a 64
        E 0 8e 42 64
        E 0 88 3e 64
        E 0 8d 32 64
        E 0 94 53 64
        E 0 95 4f 64
        E 0 97 4f 64
        E 0 9e 47 64
        E 0 98 3e 64
        E 0 9d 2f 64
        E 1011 84 53 64
        E 0 85 4f 64
        E 0 87 4f 64
        E 0 8e 47 64
        E 0 88 3e 64
        E 0 8d 2f 64
        E 0 94 53 64
        E 0 95 4f 64
        E 0 97 4f 64
        E 0 9e 47 64
        E 0 98 3b 64
        E 0 9d 2f 64
        E 504 84 53 64
        E 0 85 4f 64
        E 0 87 4f 64
        E 0 88 3b 64
        E 0 8d 2f 64
        E 0 94 53 64
        E 0 95 4f 64
        E 0 97 4f 64
        E 0 98 3b 64
        E 0 9d 2f 64
        E 504 84 53 64
        E 0 85 4f 64
        E 0 87 4f 64
        E 0 8e 47 64
        E 0 88 3b 64
        E 0 8d 2f 64
        E 0 94 53 64
        E 0 95 4c 64
        E 0 97 4c 64
        E 0 9e 44 64
        E 0 98 3b 64
        E 0 9d 34 64
        E 508 84 53 64
        E 0 85 4c 64
        E 0 87 4c 64
        E 0 88 3b 64
        E 0 8d 34 64
        E 0 94 53 64
        E 0 95 4c 64
        E 1 97 4c 64
        E 0 98 3b 64
        E 0 9d 34 64
        E 249 84 53 64
        E 1 85 4c 64
        E 0 87 4c 64
        E 0 88 3b 64
        E 0 8d 34 64
        E 0 94 53 64
        E 0 95 4c 64
        E 0 97 4c 64
        E 0 98 3b 64
        E 0 9d 34 64
        E 254 84 53 64
        E 0 85 4c 64
        E 0 87 4c 64
        E 0 8e 44 64
        E 0 88 3b 64
        E 0 8d 34 64
        E 0 94 53 64
        E 0 95 4c 64
        E 0 97 4c 64
        E 0 9e 44 64
        E 0 98 3b 64
        E 0 9d 34 64
        E 505 84 53 64
        E 0 85 4c 64
        E 0 87 4c 64
        E 0 88 3b 64
        E 0 8d 34 64
        E 0 94 53 64
        E 1 95 4c 64
        E 0 97 4c 64
        E 0 98 3b 64
        E 0 9d 34 64
        E 504 84 53 64
        E 0 85 4c 64
        E 0 87 4c 64
        E 0 8e 44 64
        E 0 88 3b 64
        E 0 8d 34 64
        E 0 94 51 64
        E 0 95 4c 64
        E 0 97 4c 64
        E 0 9e 45 64
        E 0 98 40 64
        E 0 9d 31 64
        E 504 8e 45 64
        E 0 9e 45 64
        E 505 85 4c 64
        E 0 87 4c 64
        E 1 8e 45 64
        E 0 88 40 64
        E 0 8d 31 64
        E 0 95 4e 64
        E 0 97 4e 64
        E 0 9e 45 64
        E 0 98 3e 64
        E 0 9d 32 64
        E 504 8e 45 64
        E 0 88 3e 64
        E 0 9e 45 64
        E 0 98 42 64
        E 507 85 4e 64
        E 0 87 4e 64
        E 0 8e 45 64
        E 0 88 42 64
        E 0 95 4f 64
        E 0 97 4f 64
        E 0 9e 47 64
        E 0 98 40 64
        E 1011 8e 47 64
        E 1 8d 32 64
        E 0 9e 4c 64
        E 0 9d 31 64
        E 1009 84 51 64
        E 0 85 4f 64
        E 0 87 4f 64
        E 0 8e 4c 64
        E 0 88 40 64
        E 0 8d 31 64
        E 0 94 51 64
        E 0 95 4e 64
        E 0 97 4e 64
        E 0 9e 45 64
        E 1 98 3e 64
        E 0 9d 32 64
        E 1011 8e 45 64
        E 0 88 3e 64
        E 0 9e 4a 64
        E 0 98 45 64
        E 1009 85 4e 64
        E 0 87 4e 64
        E 0 8d 32 64
        E 0 95 4c 64
        E 0 97 4c 64
        E 0 9d 2d 64
        E 1008 8e 4a 64
        E 1 88 45 64
        E 0 9e 49 64
        E 0 98 45 64
        E 1014 84 51 64
        E 0 85 4c 64
        E 0 87 4c 64
        E 0 8e 49 64
        E 0 88 45 64
        E 0 8d 2d 64
        E 0 94 4e 64
        E 0 95 4e 64
        E 0 97 4e 64
        E 0 9e 4a 64
        E 1 98 45 64
        E 0 9d 32 64
        E 6059 84 4e 64
        E 0 85 4e 64
        E 0 87 4e 64
        E 0 8e 4a 64
        E 0 88 45 64
        E 0 8d 32 64
        E 90 b0 7b 00
        E 0 b1 7b 00
        E 0 b2 7b 00
        E 0 b3 7b 00
        E 0 b4 7b 00
        E 0 b5 7b 00
        E 0 b6 7b 00
        E 0 b7 7b 00
        E 0 b8 7b 00
        E 0 b9 7b 00
        E 0 ba 7b 00
        E 0 bb 7b 00
        E 0 bc 7b 00
        E 0 bd 7b 00
        E 0 be 7b 00
        E 0 bf 7b 00
        E 201 b0 79 00
        E 0 b1 79 00
        E 0 b2 79 00
        E 0 b3 79 00
        E 0 b4 79 00
        E 0 b5 79 00
        E 0 b6 79 00
        E 0 b7 79 00
        E 0 b8 79 00
        E 0 b9 79 00
        E 0 ba 79 00
        E 0 bb 79 00
        E 0 bc 79 00
        E 0 bd 79 00
        E 0 be 79 00
        E 0 bf 79 00
        E 73405 b0 7b 00
        CCINTERP 32
        CHASE_CC_TAKEOFFS 1
        GUID {CFD10CAA-780D-474B-9A1A-10251C0D627B}
        IGNTEMPO 0 120 4 4
        SRCCOLOR 8
        VELLANE 129 9 0
        VELLANE 107 9 0
      >
    >
  >
  <TRACK {62D2B8F4-B7CD-FD45-962F-0BBA1C554384}
    NAME ""
    PEAKCOL 16576
    BEAT -1
    AUTOMODE 0
    VOLPAN 1 0 -1 -1 1
    MUTESOLO 0 0 0
    IPHASE 0
    PLAYOFFS 0 1
    ISBUS 0 0
    BUSCOMP 0 0 0 0 0
    SHOWINMIX 1 0.6667 0.5 1 0.5 -1 -1 -1
    FREEMODE 0
    SEL 1
    REC 0 4256 1 0 0 0 0
    VU 2
    TRACKHEIGHT 159 0 0 0 0 0
    INQ 0 0 0 0.5 100 0 0 100
    NCHAN 2
    FX 1
    TRACKID {62D2B8F4-B7CD-FD45-962F-0BBA1C554384}
    PERF 0
    MIDIOUT 160
    MAINSEND 1 0
    <ITEM
      POSITION 0
      SNAPOFFS 0
      LENGTH 2339.2536458333334
      LOOP 1
      ALLTAKES 0
      FADEIN 1 0 0 1 0 0 0
      FADEOUT 1 0 0 1 0 0 0
      MUTE 0 0
      SEL 1
      IGUID {620B5417-928F-AF4A-A589-A4F78655D53E}
      IID 4
      NAME "03-Recorded MIDI"
      VOLPAN 1 0 1 -1
      SOFFS 0 0
      PLAYRATE 1 1 0 -1 0 0.0025
      CHANMODE 0
      GUID {8523961A-7309-B24C-9DBF-E09985C3C007}
      RECPASS 4
      <SOURCE MIDI
        HASDATA 1 960 QN
        CCINTERP 32
        POOLEDEVTS {9B84B19A-4BBF-0D4E-868E-296C621FECEE}
        E 20921 92 48 64
        E 0 93 40 5a
        E 0 9f 30 3d
        E 121 82 48 64
        E 1 92 48 64
        E 117 82 48 64
        E 0 92 4a 64
        E 120 82 4a 64
        E 0 92 48 64
        E 121 82 48 64
        E 0 83 40 64
        E 0 8f 30 00
        E 0 92 48 64
        E 0 93 40 5a
        E 0 9f 30 40
        E 125 82 48 64
        E 0 92 48 64
        E 114 82 48 64
        E 0 92 4a 64
        E 120 82 4a 64
        E 0 92 48 64
        E 124 82 48 64
        E 1 83 40 64
        E 0 8f 30 00
        E 0 92 48 64
        E 0 93 40 5a
        E 0 9f 30 44
        E 115 82 48 64
        E 0 92 48 64
        E 121 82 48 64
        E 0 92 4a 64
        E 120 82 4a 64
        E 0 92 48 64
        E 120 82 48 64
        E 0 83 40 64
        E 0 8f 30 00
        E 1 92 48 64
        E 0 93 40 5a
        E 0 9f 30 43
        E 117 82 48 64
        E 1 92 48 64
        E 120 82 48 64
        E 0 92 4a 64
        E 119 82 4a 64
        E 0 92 48 64
        E 122 82 48 64
        E 0 83 40 64
        E 0 8f 30 00
        E 0 92 48 64
        E 0 93 40 5a
        E 0 9f 30 46
        E 118 82 48 64
        E 1 92 48 64
        E 120 82 48 64
        E 0 92 4a 64
        E 120 82 4a 64
        E 0 92 48 64
        E 120 82 48 64
        E 0 83 40 64
        E 0 8f 30 00
        E 0 92 48 64
        E 0 93 40 5a
        E 0 9f 30 43
        E 119 82 48 64
        E 1 92 48 64
        E 119 82 48 64
        E 0 92 4a 64
        E 121 82 4a 64
        E 0 92 48 64
        E 121 82 48 64
        E 0 83 40 64
        E 0 8f 30 00
        E 0 92 48 64
        E 0 93 40 5a
        E 0 9f 30 44
        E 118 82 48 64
        E 0 92 48 64
        E 123 82 48 64
        E 0 92 4a 64
        E 118 82 4a 64
        E 0 92 48 64
        E 122 82 48 64
        E 0 83 40 64
        E 0 8f 30 00
        E 0 92 48 64
        E 0 93 40 5a
        E 0 9f 30 42
        E 119 82 48 64
        E 0 92 48 64
        E 121 82 48 64
        E 0 92 4a 64
        E 118 82 4a 64
        E 2 92 48 64
        E 119 82 48 64
        E 0 83 40 64
        E 0 8f 30 00
        E 0 92 4f 64
        E 0 93 3e 5a
        E 1 9f 2f 58
        E 118 82 4f 64
        E 0 92 4f 64
        E 122 82 4f 64
        E 0 92 51 64
        E 117 82 51 64
        E 0 92 4f 64
        E 122 82 4f 64
        E 0 83 3e 64
        E 0 8f 2f 00
        E 0 92 4f 64
        E 0 93 3e 5a
        E 0 9f 2f 57
        E 120 82 4f 64
        E 0 92 4f 64
        E 120 82 4f 64
        E 0 92 51 64
        E 119 82 51 64
        E 0 92 4f 64
        E 120 82 4f 64
        E 0 83 3e 64
        E 0 8f 2f 00
        E 0 92 4f 64
        E 0 93 3e 5a
        E 0 9f 2f 5a
        E 120 82 4f 64
        E 0 92 4f 64
        E 120 82 4f 64
        E 0 92 51 64
        E 119 82 51 64
        E 0 92 4f 64
        E 122 82 4f 64
        E 0 83 3e 64
        E 0 8f 2f 00
        E 0 92 4f 64
        E 0 93 3e 5a
        E 0 9f 2f 5a
        E 118 82 4f 64
        E 0 92 4f 64
        E 122 82 4f 64
        E 0 92 51 64
        E 119 82 51 64
        E 0 92 4f 64
        E 121 82 4f 64
        E 0 83 3e 64
        E 0 8f 2f 00
        E 0 92 4f 64
        E 1 93 3e 5a
        E 0 9f 2f 56
        E 118 82 4f 64
        E 0 92 4f 64
        E 121 82 4f 64
        E 0 92 51 64
        E 119 82 51 64
        E 0 92 4f 64
        E 120 82 4f 64
        E 0 83 3e 64
        E 0 8f 2f 00
        E 0 92 4f 64
        E 0 93 3e 5a
        E 1 9f 2f 56
        E 120 82 4f 64
        E 0 92 4f 64
        E 120 82 4f 64
        E 0 92 51 64
        E 117 82 51 64
        E 1 92 4f 64
        E 123 82 4f 64
        E 0 83 3e 64
        E 0 8f 2f 00
        E 0 92 4f 64
        E 0 93 3e 5a
        E 0 9f 2f 5a
        E 117 82 4f 64
        E 0 92 4f 64
        E 122 82 4f 64
        E 0 92 51 64
        E 119 82 51 64
        E 0 92 4f 64
        E 120 82 4f 64
        E 0 83 3e 64
        E 0 8f 2f 00
        E 0 92 4f 64
        E 0 93 3e 5a
        E 0 9f 2f 55
        E 120 82 4f 64
        E 0 92 4f 64
        E 121 82 4f 64
        E 0 92 51 64
        E 119 82 51 64
        E 1 92 4f 64
        E 119 82 4f 64
        E 0 83 3e 64
        E 0 8f 2f 00
        E 0 92 54 64
        E 0 93 3c 5a
        E 0 9f 2d 56
        E 121 82 54 64
        E 0 92 54 64
        E 119 82 54 64
        E 0 92 56 64
        E 120 82 56 64
        E 1 92 54 64
        E 120 82 54 64
        E 1 83 3c 64
        E 0 8f 2d 00
        E 0 92 54 64
        E 0 93 3c 5a
        E 0 9f 2d 54
        E 119 82 54 64
        E 0 92 54 64
        E 121 82 54 64
        E 1 92 56 64
        E 117 82 56 64
        E 0 92 54 64
        E 120 82 54 64
        E 0 83 3c 64
        E 0 8f 2d 00
        E 0 92 54 64
        E 0 93 3c 5a
        E 0 9f 2d 5a
        E 120 82 54 64
        E 0 92 54 64
        E 120 82 54 64
        E 0 92 56 64
        E 122 82 56 64
        E 1 92 54 64
        E 119 82 54 64
        E 0 83 3c 64
        E 0 8f 2d 00
        E 1 92 54 64
        E 0 93 3c 5a
        E 0 9f 2d 5a
        E 118 82 54 64
        E 1 92 54 64
        E 119 82 54 64
        E 1 92 56 64
        E 118 82 56 64
        E 0 92 54 64
        E 121 82 54 64
        E 0 83 3c 64
        E 0 8f 2d 00
        E 0 92 54 64
        E 0 93 3c 5a
        E 0 9f 2d 58
        E 118 82 54 64
        E 0 92 54 64
        E 123 82 54 64
        E 1 92 56 64
        E 119 82 56 64
        E 0 92 54 64
        E 120 82 54 64
        E 0 83 3c 64
        E 0 8f 2d 00
        E 0 92 54 64
        E 0 93 3c 5a
        E 0 9f 2d 5a
        E 117 82 54 64
        E 0 92 54 64
        E 122 82 54 64
        E 0 92 56 64
        E 118 82 56 64
        E 0 92 54 64
        E 121 82 54 64
        E 0 83 3c 64
        E 0 8f 2d 00
        E 0 92 54 64
        E 1 93 3c 5a
        E 0 9f 2d 5b
        E 119 82 54 64
        E 1 92 54 64
        E 120 82 54 64
        E 0 92 56 64
        E 119 82 56 64
        E 0 92 54 64
        E 122 82 54 64
        E 0 83 3c 64
        E 0 8f 2d 00
        E 0 92 54 64
        E 0 93 3c 5a
        E 0 9f 2d 53
        E 119 82 54 64
        E 0 92 54 64
        E 119 82 54 64
        E 1 92 56 64
        E 119 82 56 64
        E 0 92 54 64
        E 121 82 54 64
        E 0 83 3c 64
        E 0 8f 2d 00
        E 0 92 53 64
        E 0 93 3b 5a
        E 0 9f 2b 56
        E 119 8f 2b 00
        E 0 9f 2b 59
        E 121 83 3b 64
        E 0 8f 2b 00
        E 0 93 3b 5a
        E 0 9f 2d 57
        E 119 8f 2d 00
        E 0 9f 2b 53
        E 120 82 53 64
        E 0 83 3b 64
        E 0 8f 2b 00
        E 0 92 37 64
        E 0 93 3b 5a
        E 0 9f 2b 59
        E 119 8f 2b 00
        E 1 9f 2b 5a
        E 120 83 3b 64
        E 0 8f 2b 00
        E 0 93 3b 5a
        E 0 9f 2d 5c
        E 120 8f 2d 00
        E 0 9f 2b 55
        E 123 82 37 64
        E 0 83 3b 64
        E 0 8f 2b 00
        E 0 93 3b 5a
        E 0 9f 2b 5a
        E 118 8f 2b 00
        E 0 9f 2b 58
        E 120 83 3b 64
        E 0 8f 2b 00
        E 0 92 4f 64
        E 0 93 3b 5a
        E 0 9f 2d 59
        E 118 8f 2d 00
        E 0 9f 2b 57
        E 121 82 4f 64
        E 0 83 3b 64
        E 0 8f 2b 00
        E 0 92 4a 64
        E 1 93 3b 5a
        E 0 9f 2b 55
        E 118 8f 2b 00
        E 1 9f 2b 5a
        E 121 82 4a 64
        E 0 83 3b 64
        E 0 8f 2b 00
        E 0 92 47 64
        E 0 93 3b 5a
        E 0 9f 2d 5a
        E 118 8f 2d 00
        E 0 9f 2b 57
        E 121 82 47 64
        E 0 83 3b 64
        E 0 8f 2b 00
        E 0 92 37 64
        E 0 93 3b 5a
        E 0 9f 2b 5b
        E 120 8f 2b 00
        E 0 9f 2b 5a
        E 121 83 3b 64
        E 0 8f 2b 00
        E 0 93 3b 5a
        E 0 9f 2d 5a
        E 118 8f 2d 00
        E 0 9f 2b 56
        E 121 83 3b 64
        E 0 8f 2b 00
        E 0 93 3b 5a
        E 0 9f 2b 56
        E 119 8f 2b 00
        E 0 9f 2b 58
        E 123 83 3b 64
        E 0 8f 2b 00
        E 0 93 3b 5a
        E 0 9f 2d 60
        E 118 8f 2d 00
        E 0 9f 2b 57
        E 125 82 37 64
        E 0 83 3b 64
        E 0 8f 2b 00
        E 0 93 3b 5a
        E 0 9f 2b 5a
        E 114 8f 2b 00
        E 1 9f 2b 5a
        E 121 83 3b 64
        E 0 8f 2b 00
        E 0 92 4d 64
        E 0 93 3b 5a
        E 0 9f 2d 5a
        E 119 8f 2d 00
        E 1 9f 2b 56
        E 119 82 4d 64
        E 0 83 3b 64
        E 0 8f 2b 00
        E 0 92 4a 64
        E 0 93 3b 5a
        E 0 9f 2b 5b
        E 120 8f 2b 00
        E 0 9f 2b 5a
        E 121 82 4a 64
        E 0 83 3b 64
        E 0 8f 2b 00
        E 0 92 47 64
        E 0 93 3b 5a
        E 0 9f 2d 5c
        E 119 8f 2d 00
        E 0 9f 2b 55
        E 122 82 47 64
        E 0 83 3b 64
        E 0 8f 2b 00
        E 0 92 37 64
        E 0 93 3c 5a
        E 0 9f 2b 59
        E 118 8f 2b 00
        E 0 9f 2b 5a
        E 121 83 3c 64
        E 1 8f 2b 00
        E 0 93 3c 5a
        E 0 9f 2d 59
        E 119 8f 2d 00
        E 0 9f 2b 54
        E 120 83 3c 64
        E 0 8f 2b 00
        E 0 93 3c 5a
        E 0 9f 2b 5a
        E 119 8f 2b 00
        E 0 9f 2b 59
        E 121 83 3c 64
        E 0 8f 2b 00
        E 0 93 3c 5a
        E 0 9f 2d 5c
        E 119 8f 2d 00
        E 0 9f 2b 55
        E 122 82 37 64
        E 0 83 3c 64
        E 0 8f 2b 00
        E 0 93 3c 5a
        E 0 9f 2b 57
        E 119 8f 2b 00
        E 0 9f 2b 57
        E 121 83 3c 64
        E 0 8f 2b 00
        E 0 92 4c 64
        E 0 93 3c 5a
        E 0 9f 2d 59
        E 118 8f 2d 00
        E 0 9f 2b 54
        E 120 82 4c 64
        E 1 83 3c 64
        E 0 8f 2b 00
        E 0 92 48 64
        E 0 93 3c 5a
        E 0 9f 2b 58
        E 119 8f 2b 00
        E 0 9f 2b 56
        E 120 82 48 64
        E 0 83 3c 64
        E 0 8f 2b 00
        E 1 92 43 64
        E 0 93 3c 5a
        E 0 9f 2d 58
        E 119 8f 2d 00
        E 1 9f 2b 51
        E 121 82 43 64
        E 0 83 3c 64
        E 0 8f 2b 00
        E 0 92 37 64
        E 0 93 37 5a
        E 0 9f 2b 56
        E 958 82 37 64
        E 0 83 37 64
        E 0 8f 2b 00
        E 1442 92 48 64
        E 0 93 3c 5a
        E 0 9f 34 4e
        E 118 82 48 64
        E 0 92 48 64
        E 121 82 48 64
        E 0 83 3c 64
        E 0 8f 34 00
        E 1 92 4a 64
        E 0 93 3c 5a
        E 0 9f 34 5a
        E 117 82 4a 64
        E 0 92 48 64
        E 121 82 48 64
        E 0 83 3c 64
        E 0 8f 34 00
        E 0 92 48 64
        E 1 93 3c 5a
        E 0 9f 34 55
        E 119 82 48 64
        E 0 92 48 64
        E 120 82 48 64
        E 0 83 3c 64
        E 0 8f 34 00
        E 0 92 4a 64
        E 0 93 3c 5a
        E 0 9f 34 5a
        E 120 82 4a 64
        E 0 92 48 64
        E 121 82 48 64
        E 0 83 3c 64
        E 0 8f 34 00
        E 0 92 48 64
        E 0 93 3c 5a
        E 0 9f 34 55
        E 119 82 48 64
        E 0 92 48 64
        E 127 82 48 64
        E 0 83 3c 64
        E 4 8f 34 00
        E 1 92 4a 64
        E 0 93 3c 5a
        E 0 9f 34 57
        E 110 82 4a 64
        E 1 92 48 64
        E 117 82 48 64
        E 0 83 3c 64
        E 0 8f 34 00
        E 1 92 48 64
        E 0 93 3c 5a
        E 0 9f 34 5a
        E 118 82 48 64
        E 0 92 48 64
        E 121 82 48 64
        E 0 83 3c 64
        E 0 8f 34 00
        E 0 92 4a 64
        E 0 93 3c 5a
        E 0 9f 34 59
        E 119 82 4a 64
        E 0 92 48 64
        E 121 82 48 64
        E 1 83 3c 64
        E 0 8f 34 00
        E 0 92 46 66
        E 0 93 3c 5a
        E 0 9f 34 55
        E 118 82 46 66
        E 0 92 46 66
        E 123 82 46 66
        E 0 83 3c 64
        E 0 8f 34 00
        E 0 92 48 64
        E 0 93 3c 5a
        E 0 9f 34 59
        E 117 82 48 64
        E 0 92 46 66
        E 121 82 46 66
        E 0 83 3c 64
        E 0 8f 34 00
        E 0 92 46 66
        E 0 93 3c 5a
        E 0 9f 34 55
        E 120 82 46 66
        E 0 92 46 66
        E 121 82 46 66
        E 0 83 3c 64
        E 0 8f 34 00
        E 0 92 48 64
        E 0 93 3c 5a
        E 0 9f 34 56
        E 120 82 48 64
        E 0 92 46 66
        E 121 82 46 66
        E 0 83 3c 64
        E 0 8f 34 00
        E 0 92 46 66
        E 0 93 3c 5a
        E 0 9f 34 5a
        E 117 82 46 66
        E 0 92 46 66
        E 121 82 46 66
        E 0 83 3c 64
        E 0 8f 34 00
        E 0 92 48 64
        E 0 93 3c 5a
        E 3 9f 34 59
        E 118 82 48 64
        E 0 92 46 66
        E 120 82 46 66
        E 0 83 3c 64
        E 0 8f 34 00
        E 0 92 46 66
        E 0 93 3c 5a
        E 0 9f 34 57
        E 118 82 46 66
        E 0 92 46 66
        E 121 82 46 66
        E 0 83 3c 64
        E 0 8f 34 00
        E 0 92 48 64
        E 0 93 3c 5a
        E 0 9f 34 5b
        E 120 82 48 64
        E 0 92 46 66
        E 120 82 46 66
        E 0 83 3c 64
        E 0 8f 34 00
        E 0 92 45 64
        E 1 93 3c 5a
        E 0 9f 35 5a
        E 120 82 45 64
        E 0 8f 35 00
        E 0 92 41 64
        E 0 9f 35 5a
        E 120 82 41 64
        E 0 83 3c 64
        E 0 8f 35 00
        E 0 92 43 64
        E 0 93 39 5a
        E 0 9f 37 5b
        E 119 82 43 64
        E 0 8f 37 00
        E 0 92 41 64
        E 0 9f 35 50
        E 121 82 41 64
        E 0 83 39 64
        E 0 8f 35 00
        E 0 92 41 64
        E 0 93 39 5a
        E 0 9f 35 5a
        E 119 82 41 64
        E 0 8f 35 00
        E 0 92 41 64
        E 0 9f 35 59
        E 121 82 41 64
        E 0 83 39 64
        E 0 8f 35 00
        E 0 92 43 64
        E 0 93 39 5a
        E 0 9f 37 5a
        E 118 82 43 64
        E 0 8f 37 00
        E 1 92 41 64
        E 0 9f 35 52
        E 121 82 41 64
        E 0 83 39 64
        E 0 8f 35 00
        E 0 92 41 64
        E 0 93 39 5a
        E 0 9f 35 5a
        E 120 82 41 64
        E 2 8f 35 00
        E 1 92 41 64
        E 0 9f 35 58
        E 117 82 41 64
        E 1 83 39 64
        E 0 8f 35 00
        E 0 92 43 64
        E 0 93 39 5a
        E 0 9f 37 59
        E 118 82 43 64
        E 0 8f 37 00
        E 0 92 41 64
        E 0 9f 35 54
        E 121 82 41 64
        E 0 83 39 64
        E 0 8f 35 00
        E 0 92 41 64
        E 0 93 39 5a
        E 1 9f 35 59
        E 117 82 41 64
        E 0 8f 35 00
        E 0 92 41 64
        E 0 9f 35 57
        E 122 82 41 64
        E 1 83 39 64
        E 0 8f 35 00
        E 0 92 43 64
        E 0 93 39 5a
        E 0 9f 37 5c
        E 118 82 43 64
        E 0 8f 37 00
        E 1 92 41 64
        E 0 9f 35 55
        E 119 82 41 64
        E 0 83 39 64
        E 0 8f 35 00
        E 0 92 4a 64
        E 1 93 3e 5a
        E 0 9f 36 57
        E 120 82 4a 64
        E 0 92 4a 64
        E 119 82 4a 64
        E 0 83 3e 64
        E 0 8f 36 00
        E 1 92 4c 64
        E 0 93 3e 5a
        E 0 9f 36 5b
        E 118 82 4c 64
        E 1 92 4a 64
        E 121 82 4a 64
        E 0 83 3e 64
        E 0 8f 36 00
        E 0 92 4a 64
        E 0 93 3e 5a
        E 0 9f 36 5a
        E 120 82 4a 64
        E 0 92 4a 64
        E 121 82 4a 64
        E 0 83 3e 64
        E 0 8f 36 00
        E 0 92 4c 64
        E 0 93 3e 5a
        E 0 9f 36 59
        E 117 82 4c 64
        E 0 92 4a 64
        E 122 82 4a 64
        E 0 83 3e 64
        E 0 8f 36 00
        E 0 92 4a 64
        E 0 93 3e 5a
        E 0 9f 36 56
        E 118 82 4a 64
        E 0 92 4a 64
        E 122 82 4a 64
        E 0 83 3e 64
        E 0 8f 36 00
        E 0 92 4c 64
        E 0 93 3e 5a
        E 1 9f 36 57
        E 119 82 4c 64
        E 0 92 4a 64
        E 120 82 4a 64
        E 0 83 3e 64
        E 0 8f 36 00
        E 0 92 4a 64
        E 0 93 3e 5a
        E 0 9f 36 5a
        E 119 82 4a 64
        E 0 92 4a 64
        E 120 82 4a 64
        E 0 83 3e 64
        E 0 8f 36 00
        E 0 92 4c 64
        E 0 93 3e 5a
        E 0 9f 36 55
        E 119 82 4c 64
        E 0 92 4a 64
        E 122 82 4a 64
        E 0 83 3e 64
        E 0 8f 36 00
        E 0 92 48 64
        E 0 93 3e 5a
        E 0 9f 36 57
        E 120 82 48 64
        E 0 92 48 64
        E 120 82 48 64
        E 0 83 3e 64
        E 0 8f 36 00
        E 0 92 4a 64
        E 0 93 3e 5a
        E 0 9f 36 57
        E 118 82 4a 64
        E 0 92 48 64
        E 122 82 48 64
        E 1 83 3e 64
        E 0 8f 36 00
        E 0 92 48 64
        E 0 93 3e 5a
        E 1 9f 36 59
        E 118 82 48 64
        E 0 92 48 64
        E 119 82 48 64
        E 0 83 3e 64
        E 0 8f 36 00
        E 0 92 4a 64
        E 0 93 3e 5a
        E 0 9f 36 58
        E 119 82 4a 64
        E 0 92 48 64
        E 122 82 48 64
        E 0 83 3e 64
        E 0 8f 36 00
        E 0 92 48 64
        E 0 93 3e 5a
        E 0 9f 36 57
        E 120 82 48 64
        E 0 92 48 64
        E 119 82 48 64
        E 0 83 3e 64
        E 0 8f 36 00
        E 0 92 4a 64
        E 0 93 3e 5a
        E 0 9f 36 57
        E 120 82 4a 64
        E 0 92 48 64
        E 122 82 48 64
        E 0 83 3e 64
        E 0 8f 36 00
        E 0 92 48 64
        E 0 93 3e 5a
        E 0 9f 36 59
        E 118 82 48 64
        E 0 92 48 64
        E 122 82 48 64
        E 0 83 3e 64
        E 0 8f 36 00
        E 0 92 4a 64
        E 0 93 3e 5a
        E 0 9f 36 55
        E 117 82 4a 64
        E 0 92 48 64
        E 123 82 48 64
        E 0 83 3e 64
        E 0 8f 36 00
        E 0 92 47 64
        E 0 93 3e 5a
        E 0 9f 37 5a
        E 118 82 47 64
        E 0 8f 37 00
        E 0 92 43 64
        E 0 9f 37 5a
        E 120 82 43 64
        E 1 83 3e 64
        E 0 8f 37 00
        E 0 92 45 64
        E 0 93 3b 5a
        E 0 9f 39 57
        E 118 82 45 64
        E 0 8f 39 00
        E 0 92 43 64
        E 1 9f 37 53
        E 121 82 43 64
        E 2 83 3b 64
        E 0 8f 37 00
        E 0 92 43 64
        E 0 93 3b 5a
        E 0 9f 37 55
        E 117 82 43 64
        E 0 8f 37 00
        E 0 92 43 64
        E 0 9f 37 55
        E 121 82 43 64
        E 0 83 3b 64
        E 0 8f 37 00
        E 0 92 45 64
        E 0 93 3b 5a
        E 0 9f 39 5c
        E 117 82 45 64
        E 0 8f 39 00
        E 1 92 43 64
        E 0 9f 37 57
        E 127 82 43 64
        E 0 83 3b 64
        E 0 8f 37 00
        E 0 92 43 64
        E 1 93 3b 5a
        E 0 9f 37 5a
        E 112 82 43 64
        E 0 8f 37 00
        E 0 92 43 64
        E 0 9f 37 58
        E 121 82 43 64
        E 0 83 3b 64
        E 0 8f 37 00
        E 0 92 45 64
        E 1 93 3b 5a
        E 0 9f 39 58
        E 119 82 45 64
        E 0 8f 39 00
        E 0 92 43 64
        E 0 9f 37 57
        E 119 82 43 64
        E 0 83 3b 64
        E 0 8f 37 00
        E 0 92 43 64
        E 0 93 3b 5a
        E 0 9f 37 55
        E 121 82 43 64
        E 0 8f 37 00
        E 0 92 43 64
        E 0 9f 37 57
        E 121 82 43 64
        E 0 83 3b 64
        E 0 8f 37 00
        E 0 92 45 64
        E 0 93 3b 5a
        E 0 9f 39 58
        E 119 82 45 64
        E 0 8f 39 00
        E 0 92 43 64
        E 0 9f 37 56
        E 121 82 43 64
        E 0 83 3b 64
        E 0 8f 37 00
        E 0 93 43 5a
        E 0 9f 2b 46
        E 120 8f 2b 00
        E 1 9f 2b 59
        E 119 8f 2b 00
        E 0 9f 2c 5a
        E 120 8f 2c 00
        E 0 9f 2b 56
        E 119 83 43 64
        E 0 8f 2b 00
        E 0 93 43 5a
        E 0 9f 2b 5a
        E 480 83 43 64
        E 1 8f 2b 00
        E 0 93 43 5a
        E 481 83 43 64
        E 0 93 43 5a
        E 479 83 43 64
        E 0 92 54 64
        E 1 93 44 5b
        E 0 9f 2b 4e
        E 118 8f 2b 00
        E 0 9f 2b 52
        E 38 92 53 64
        E 82 82 54 64
        E 0 8f 2b 00
        E 1 9f 2c 59
        E 79 92 54 64
        E 40 8f 2c 00
        E 0 9f 2b 59
        E 38 82 53 64
        E 82 83 44 66
        E 0 8f 2b 00
        E 0 92 54 64
        E 0 93 44 5b
        E 0 9f 2b 53
        E 81 82 54 64
        E 77 92 53 64
        E 83 82 54 64
        E 78 92 54 64
        E 79 82 53 64
        E 82 83 44 66
        E 0 8f 2b 00
        E 0 92 54 64
        E 0 93 44 5b
        E 80 82 54 64
        E 79 92 53 64
        E 81 82 54 64
        E 81 92 54 64
        E 77 82 53 64
        E 83 83 44 66
        E 0 92 54 64
        E 0 93 44 5b
        E 78 82 54 64
        E 79 92 53 64
        E 82 82 54 64
        E 80 92 54 64
        E 79 82 53 64
        E 81 83 44 66
        E 0 92 54 64
        E 0 93 3e 5a
        E 0 9f 2b 4e
        E 80 82 54 64
        E 40 8f 2b 00
        E 0 9f 2b 57
        E 121 82 54 64
        E 0 8f 2b 00
        E 0 92 54 64
        E 0 9f 2c 5c
        E 120 8f 2c 00
        E 0 9f 2b 55
        E 121 82 54 64
        E 0 83 3e 64
        E 0 8f 2b 00
        E 0 92 50 66
        E 0 93 3e 5a
        E 0 9f 2b 52
        E 240 82 50 66
        E 0 92 50 66
        E 239 82 50 66
        E 0 83 3e 64
        E 0 8f 2b 00
        E 0 92 4d 64
        E 0 93 3e 5a
        E 240 82 4d 64
        E 0 92 4d 64
        E 239 82 4d 64
        E 0 83 3e 64
        E 0 92 4a 64
        E 0 93 3e 5a
        E 242 82 4a 64
        E 2 92 4a 64
        E 236 82 4a 64
        E 0 83 3e 64
        E 0 92 52 66
        E 0 93 43 5a
        E 0 9f 2b 4c
        E 119 8f 2b 00
        E 0 9f 2b 53
        E 41 92 51 64
        E 82 82 52 66
        E 0 8f 2b 00
        E 0 9f 2c 59
        E 78 92 52 66
        E 40 8f 2c 00
        E 0 9f 2b 58
        E 38 82 51 64
        E 84 83 43 64
        E 0 8f 2b 00
        E 0 92 52 66
        E 0 93 43 5a
        E 0 9f 2b 57
        E 76 82 52 66
        E 82 92 51 64
        E 81 82 52 66
        E 79 92 52 66
        E 79 82 51 64
        E 81 83 43 64
        E 0 8f 2b 00
        E 0 92 52 66
        E 0 93 43 5a
        E 78 82 52 66
        E 79 92 51 64
        E 84 82 52 66
        E 79 92 52 66
        E 78 82 51 64
        E 82 83 43 64
        E 0 92 52 66
        E 0 93 43 5a
        E 79 82 52 66
        E 80 92 51 64
        E 81 82 52 66
        E 79 92 52 66
        E 80 82 51 64
        E 82 83 43 64
        E 0 92 52 66
        E 0 93 3c 5a
        E 0 9f 2b 4b
        E 80 82 52 66
        E 38 8f 2b 00
        E 0 9f 2b 55
        E 121 82 52 66
        E 0 8f 2b 00
        E 0 92 52 66
        E 0 9f 2c 5a
        E 119 8f 2c 00
        E 1 9f 2b 59
        E 122 82 52 66
        E 0 83 3c 64
        E 0 8f 2b 00
        E 1 92 4f 64
        E 0 93 3c 5a
        E 0 9f 2b 58
        E 239 82 4f 64
        E 0 92 4f 64
        E 239 82 4f 64
        E 0 83 3c 64
        E 0 8f 2b 00
        E 0 92 4b 66
        E 0 93 3c 5a
        E 239 82 4b 66
        E 0 92 4b 66
        E 241 82 4b 66
        E 0 83 3c 64
        E 0 92 48 64
        E 0 93 3c 5a
        E 241 82 48 64
        E 0 92 48 64
        E 239 82 48 64
        E 1 83 3c 64
        E 0 92 50 66
        E 0 93 41 5a
        E 0 9f 2b 50
        E 117 8f 2b 00
        E 0 9f 2b 55
        E 38 92 4f 64
        E 84 82 50 66
        E 0 8f 2b 00
        E 0 9f 2c 5a
        E 79 92 50 66
        E 40 8f 2c 00
        E 0 9f 2b 57
        E 38 82 4f 64
        E 84 83 41 64
        E 0 8f 2b 00
        E 0 92 50 66
        E 0 93 41 5a
        E 0 9f 2b 57
        E 77 82 50 66
        E 80 92 4f 64
        E 82 82 50 66
        E 78 92 50 66
        E 79 82 4f 64
        E 84 83 41 64
        E 0 8f 2b 00
        E 0 92 50 66
        E 0 93 41 5a
        E 78 82 50 66
        E 77 92 4f 64
        E 84 82 50 66
        E 81 92 50 66
        E 78 82 4f 64
        E 81 83 41 64
        E 0 92 50 66
        E 0 93 41 5a
        E 79 82 50 66
        E 79 92 4f 64
        E 82 82 50 66
        E 79 92 50 66
        E 77 82 4f 64
        E 83 83 41 64
        E 0 92 4e 64
        E 0 93 44 5b
        E 0 9f 2b 50
        E 80 82 50 66
        E 40 8f 2b 00
        E 0 9f 2b 53
        E 40 92 4c 64
        E 80 82 4e 64
        E 0 8f 2b 00
        E 0 9f 2c 57
        E 88 92 4e 64
        E 31 8f 2c 00
        E 0 9f 2b 5a
        E 39 82 4c 64
        E 83 83 44 66
        E 0 8f 2b 00
        E 0 92 4e 64
        E 0 93 44 5b
        E 0 9f 2b 5a
        E 79 82 4e 64
        E 78 92 4c 64
        E 83 82 4e 64
        E 80 92 4e 64
        E 77 82 4c 64
        E 82 83 44 66
        E 0 8f 2b 00
        E 0 92 4e 64
        E 0 93 44 5b
        E 80 82 4e 64
        E 78 92 4c 64
        E 83 82 4e 64
        E 79 92 4e 64
        E 78 82 4c 64
        E 84 83 44 66
        E 0 92 4e 64
        E 0 93 44 5b
        E 77 82 4e 64
        E 81 92 4c 64
        E 80 82 4e 64
        E 81 92 4e 64
        E 78 82 4c 64
        E 82 83 44 66
        E 0 92 4f 64
        E 0 93 43 5a
        E 0 9f 2b 52
        E 79 82 4e 64
        E 40 82 4f 64
        E 0 92 4f 64
        E 120 82 4f 64
        E 0 83 43 64
        E 0 8f 2b 00
        E 0 92 51 64
        E 0 93 43 5a
        E 0 9f 2b 55
        E 119 82 51 64
        E 0 92 4f 64
        E 122 82 4f 64
        E 0 83 43 64
        E 0 8f 2b 00
        E 0 92 4a 64
        E 0 93 43 5a
        E 0 9f 2b 59
        E 120 82 4a 64
        E 5 92 4a 64
        E 115 82 4a 64
        E 0 83 43 64
        E 0 8f 2b 00
        E 0 92 4c 64
        E 0 93 43 5a
        E 0 9f 2b 58
        E 119 82 4c 64
        E 0 92 4a 64
        E 120 82 4a 64
        E 0 83 43 64
        E 0 8f 2b 00
        E 0 92 47 64
        E 0 93 3e 5a
        E 0 9f 2b 59
        E 120 82 47 64
        E 0 92 47 64
        E 130 82 47 64
        E 0 83 3e 64
        E 0 8f 2b 00
        E 0 92 48 64
        E 0 93 3e 5a
        E 0 9f 2b 58
        E 110 82 48 64
        E 0 92 47 64
        E 120 82 47 64
        E 0 83 3e 64
        E 0 8f 2b 00
        E 0 92 43 64
        E 0 93 3b 5a
        E 0 9f 2b 5a
        E 121 82 43 64
        E 0 92 43 64
        E 120 82 43 64
        E 0 83 3b 64
        E 0 8f 2b 00
        E 0 92 45 64
        E 0 93 3b 5a
        E 0 9f 2b 59
        E 118 82 45 64
        E 0 92 43 64
        E 121 82 43 64
        E 0 83 3b 64
        E 0 8f 2b 00
        E 1 92 3e 64
        E 0 93 3e 5a
        E 0 9f 32 60
        E 119 8f 32 00
        E 0 9f 32 5b
        E 122 82 3e 64
        E 0 83 3e 64
        E 0 8f 32 00
        E 0 92 51 64
        E 0 93 3e 5a
        E 0 9f 34 5e
        E 120 8f 34 00
        E 0 9f 32 5b
        E 118 82 51 64
        E 0 83 3e 64
        E 0 8f 32 00
        E 0 92 4e 64
        E 1 93 3e 5a
        E 0 9f 32 53
        E 119 8f 32 00
        E 0 9f 32 53
        E 120 82 4e 64
        E 0 83 3e 64
        E 0 8f 32 00
        E 0 92 4a 64
        E 0 93 3e 5a
        E 0 9f 34 5a
        E 121 8f 34 00
        E 0 9f 32 52
        E 120 82 4a 64
        E 0 83 3e 64
        E 0 8f 32 00
        E 0 92 3e 64
        E 0 93 3e 5a
        E 0 9f 32 55
        E 119 8f 32 00
        E 0 9f 32 58
        E 120 82 3e 64
        E 0 83 3e 64
        E 0 8f 32 00
        E 0 92 53 64
        E 0 93 3e 5a
        E 0 9f 34 5a
        E 121 8f 34 00
        E 0 9f 32 54
        E 121 82 53 64
        E 0 83 3e 64
        E 0 8f 32 00
        E 1 92 4f 64
        E 2 93 3e 5a
        E 0 9f 32 5a
        E 115 8f 32 00
        E 1 9f 32 56
        E 120 82 4f 64
        E 0 83 3e 64
        E 0 8f 32 00
        E 0 92 4a 64
        E 1 93 3e 5a
        E 0 9f 34 5c
        E 117 8f 34 00
        E 0 9f 32 52
        E 121 82 4a 64
        E 0 83 3e 64
        E 0 8f 32 00
        E 0 92 3e 64
        E 0 93 3e 5a
        E 0 9f 32 54
        E 121 8f 32 00
        E 0 9f 32 55
        E 119 82 3e 64
        E 0 83 3e 64
        E 1 8f 32 00
        E 0 92 51 64
        E 0 93 3e 5a
        E 0 9f 34 5f
        E 119 8f 34 00
        E 1 9f 32 57
        E 120 82 51 64
        E 0 83 3e 64
        E 0 8f 32 00
        E 0 92 4e 64
        E 0 93 3e 5a
        E 1 9f 32 54
        E 117 8f 32 00
        E 1 9f 32 59
        E 124 82 4e 64
        E 0 83 3e 64
        E 0 8f 32 00
        E 1 92 4a 64
        E 0 93 3e 5a
        E 0 9f 34 5a
        E 115 8f 34 00
        E 0 9f 32 53
        E 122 82 4a 64
        E 0 83 3e 64
        E 0 8f 32 00
        E 0 92 3e 64
        E 0 93 3e 5a
        E 0 9f 32 56
        E 119 8f 32 00
        E 0 9f 32 57
        E 123 82 3e 64
        E 0 83 3e 64
        E 0 8f 32 00
        E 0 92 53 64
        E 1 93 3e 5a
        E 0 9f 34 59
        E 115 8f 34 00
        E 0 9f 32 56
        E 120 82 53 64
        E 0 83 3e 64
        E 0 8f 32 00
        E 0 92 4f 64
        E 0 93 3e 5a
        E 0 9f 32 5c
        E 120 8f 32 00
        E 0 9f 32 56
        E 121 82 4f 64
        E 0 83 3e 64
        E 0 8f 32 00
        E 0 92 4a 64
        E 0 93 3e 5a
        E 0 9f 34 5a
        E 118 8f 34 00
        E 0 9f 32 54
        E 122 82 4a 64
        E 0 83 3e 64
        E 0 8f 32 00
        E 0 92 3e 64
        E 0 93 42 5a
        E 0 9f 32 52
        E 238 82 3e 64
        E 1 83 42 64
        E 0 8f 32 00
        E 0 92 48 64
        E 0 93 42 5a
        E 0 9f 32 57
        E 240 82 48 64
        E 1 83 42 64
        E 0 8f 32 00
        E 0 92 4a 64
        E 0 92 48 64
        E 0 93 42 5a
        E 0 9f 32 5b
        E 241 82 48 64
        E 0 83 42 64
        E 0 8f 32 00
        E 0 92 47 64
        E 0 93 42 5a
        E 0 9f 32 58
        E 118 82 47 64
        E 0 92 45 64
        E 120 82 4a 64
        E 0 82 45 64
        E 0 83 42 64
        E 0 8f 32 00
        E 0 92 4a 64
        E 0 92 48 64
        E 0 93 42 5a
        E 0 9f 32 5a
        E 240 82 48 64
        E 0 83 42 64
        E 0 8f 32 00
        E 0 92 47 64
        E 0 93 42 5a
        E 0 9f 32 58
        E 120 82 47 64
        E 0 92 45 64
        E 119 82 4a 64
        E 1 82 45 64
        E 0 83 42 64
        E 0 8f 32 00
        E 0 92 4a 64
        E 0 92 48 64
        E 0 93 42 5a
        E 0 9f 32 57
        E 241 82 48 64
        E 0 83 42 64
        E 0 8f 32 00
        E 0 92 47 64
        E 0 93 42 5a
        E 0 9f 32 58
        E 118 82 47 64
        E 0 92 45 64
        E 122 82 4a 64
        E 0 82 45 64
        E 0 83 42 64
        E 0 8f 32 00
        E 0 92 47 64
        E 0 93 3e 5a
        E 0 9f 2b 51
        E 241 82 47 64
        E 0 83 3e 64
        E 0 8f 2b 00
        E 0 92 4f 64
        E 0 93 3e 5a
        E 0 9f 2b 55
        E 118 82 4f 64
        E 0 92 4e 64
        E 122 82 4e 64
        E 0 83 3e 64
        E 0 8f 2b 00
        E 0 92 4c 64
        E 0 93 3e 5a
        E 0 9f 2b 56
        E 118 82 4c 64
        E 0 92 4a 64
        E 121 82 4a 64
        E 0 83 3e 64
        E 0 8f 2b 00
        E 0 92 48 64
        E 0 93 3e 5a
        E 0 9f 2b 5b
        E 119 82 48 64
        E 0 92 47 64
        E 122 82 47 64
        E 0 83 3e 64
        E 0 8f 2b 00
        E 0 92 45 64
        E 0 93 42 5a
        E 0 9f 32 61
        E 239 82 45 64
        E 0 83 42 64
        E 0 8f 32 00
        E 0 92 42 64
        E 0 93 42 5a
        E 0 9f 32 57
        E 240 82 42 64
        E 0 83 42 64
        E 0 8f 32 00
        E 2 92 3e 64
        E 2 93 42 5a
        E 0 9f 32 58
        E 235 82 3e 64
        E 0 83 42 64
        E 0 8f 32 00
        E 0 92 4e 64
        E 0 93 42 5a
        E 0 9f 32 5a
        E 240 82 4e 64
        E 0 83 42 64
        E 0 8f 32 00
        E 0 92 4a 64
        E 1 92 48 64
        E 0 93 42 5a
        E 0 9f 32 5a
        E 241 82 48 64
        E 0 83 42 64
        E 0 8f 32 00
        E 0 92 47 64
        E 0 93 42 5a
        E 0 9f 32 56
        E 117 82 47 64
        E 0 92 45 64
        E 122 82 4a 64
        E 0 82 45 64
        E 0 83 42 64
        E 0 8f 32 00
        E 0 92 4a 64
        E 0 92 48 64
        E 0 93 42 5a
        E 0 9f 32 56
        E 240 82 48 64
        E 0 83 42 64
        E 0 8f 32 00
        E 0 92 47 64
        E 0 93 42 5a
        E 0 9f 32 57
        E 119 82 47 64
        E 0 92 45 64
        E 122 82 4a 64
        E 1 82 45 64
        E 0 83 42 64
        E 0 8f 32 00
        E 0 92 4a 64
        E 0 92 48 64
        E 0 93 42 5a
        E 0 9f 32 56
        E 238 82 48 64
        E 0 83 42 64
        E 0 8f 32 00
        E 0 92 47 64
        E 0 93 42 5a
        E 0 9f 32 5a
        E 119 82 47 64
        E 0 92 45 64
        E 121 82 4a 64
        E 0 82 45 64
        E 0 83 42 64
        E 0 8f 32 00
        E 0 92 4a 64
        E 0 92 48 64
        E 0 93 42 5a
        E 0 9f 32 57
        E 249 82 48 64
        E 0 83 42 64
        E 0 8f 32 00
        E 0 92 47 64
        E 0 93 42 5a
        E 0 9f 32 5a
        E 110 82 47 64
        E 1 92 45 64
        E 120 82 4a 64
        E 0 82 45 64
        E 0 83 42 64
        E 0 8f 32 00
        E 0 92 47 64
        E 0 93 3e 5a
        E 0 9f 2b 51
        E 239 82 47 64
        E 0 83 3e 64
        E 0 8f 2b 00
        E 0 92 4f 64
        E 1 93 3e 5a
        E 0 9f 2b 57
        E 121 82 4f 64
        E 0 92 4e 64
        E 118 82 4e 64
        E 0 83 3e 64
        E 0 8f 2b 00
        E 0 92 4c 64
        E 1 93 3e 5a
        E 0 9f 2b 57
        E 119 82 4c 64
        E 0 92 4a 64
        E 121 82 4a 64
        E 0 83 3e 64
        E 0 8f 2b 00
        E 0 92 48 64
        E 0 93 3e 5a
        E 1 9f 2b 56
        E 117 82 48 64
        E 1 92 47 64
        E 122 82 47 64
        E 0 83 3e 64
        E 0 8f 2b 00
        E 0 92 45 64
        E 0 93 3e 5a
        E 0 9f 32 5f
        E 238 82 45 64
        E 1 83 3e 64
        E 0 8f 32 00
        E 0 92 42 64
        E 0 93 3e 5a
        E 0 9f 32 56
        E 240 82 42 64
        E 0 83 3e 64
        E 0 8f 32 00
        E 0 92 3e 64
        E 0 93 3e 5a
        E 0 9f 32 5a
        E 240 82 3e 64
        E 0 83 3e 64
        E 0 8f 32 00
        E 1 92 4e 64
        E 0 93 3e 5a
        E 0 9f 32 55
        E 244 82 4e 64
        E 0 83 3e 64
        E 0 8f 32 00
        E 0 92 43 64
        E 0 93 3b 5a
        E 0 9f 37 5e
        E 112 82 43 64
        E 1 92 43 64
        E 122 82 43 64
        E 0 83 3b 64
        E 0 92 45 64
        E 0 93 3b 5a
        E 119 82 45 64
        E 0 92 43 64
        E 121 82 43 64
        E 0 83 3b 64
        E 0 8f 37 00
        E 0 92 43 64
        E 0 93 3b 5a
        E 0 9f 37 59
        E 123 82 43 64
        E 0 92 43 64
        E 117 82 43 64
        E 1 83 3b 64
        E 0 92 45 64
        E 0 93 3b 5a
        E 118 82 45 64
        E 0 92 43 64
        E 122 82 43 64
        E 0 83 3b 64
        E 0 8f 37 00
        E 0 92 43 64
        E 0 93 3b 5a
        E 0 9f 37 58
        E 119 82 43 64
        E 0 92 43 64
        E 119 82 43 64
        E 0 83 3b 64
        E 0 92 45 64
        E 0 93 3b 5a
        E 120 82 45 64
        E 0 92 43 64
        E 120 82 43 64
        E 0 83 3b 64
        E 0 8f 37 00
        E 0 92 43 64
        E 0 93 3b 5a
        E 0 9f 37 56
        E 121 82 43 64
        E 0 92 43 64
        E 121 82 43 64
        E 0 83 3b 64
        E 0 92 45 64
        E 0 93 3b 5a
        E 119 82 45 64
        E 1 92 43 64
        E 120 82 43 64
        E 0 83 3b 64
        E 0 8f 37 00
        E 0 92 43 64
        E 0 93 3b 5a
        E 0 9f 37 5a
        E 118 82 43 64
        E 0 92 43 64
        E 121 82 43 64
        E 0 83 3b 64
        E 0 92 45 64
        E 0 93 3b 5a
        E 120 82 45 64
        E 0 92 43 64
        E 120 82 43 64
        E 0 83 3b 64
        E 0 8f 37 00
        E 0 92 43 64
        E 0 93 3b 5a
        E 0 9f 37 56
        E 119 82 43 64
        E 0 92 43 64
        E 121 82 43 64
        E 0 83 3b 64
        E 1 92 45 64
        E 0 93 3b 5a
        E 119 82 45 64
        E 0 92 43 64
        E 120 82 43 64
        E 0 83 3b 64
        E 0 8f 37 00
        E 0 92 43 64
        E 0 93 3b 5a
        E 0 9f 37 56
        E 118 82 43 64
        E 0 92 43 64
        E 123 82 43 64
        E 0 83 3b 64
        E 0 92 45 64
        E 0 93 3b 5a
        E 119 82 45 64
        E 0 92 43 64
        E 119 82 43 64
        E 0 83 3b 64
        E 0 8f 37 00
        E 0 92 43 64
        E 0 93 3b 5a
        E 0 9f 37 5a
        E 121 82 43 64
        E 0 92 43 64
        E 119 82 43 64
        E 0 83 3b 64
        E 0 92 45 64
        E 1 93 3b 5a
        E 120 82 45 64
        E 0 92 43 64
        E 121 82 43 64
        E 0 83 3b 64
        E 0 8f 37 00
        E 0 92 4a 64
        E 0 93 39 5a
        E 0 9f 36 57
        E 117 82 4a 64
        E 1 92 4a 64
        E 121 82 4a 64
        E 0 83 39 64
        E 0 92 4c 64
        E 0 93 39 5a
        E 119 82 4c 64
        E 0 92 4a 64
        E 120 82 4a 64
        E 0 83 39 64
        E 0 8f 36 00
        E 0 92 4a 64
        E 0 93 39 5a
        E 0 9f 36 56
        E 121 82 4a 64
        E 0 92 4a 64
        E 120 82 4a 64
        E 0 83 39 64
        E 0 92 4c 64
        E 1 93 39 5a
        E 117 82 4c 64
        E 0 92 4a 64
        E 122 82 4a 64
        E 0 83 39 64
        E 0 8f 36 00
        E 0 92 4a 64
        E 0 93 39 5a
        E 0 9f 36 5a
        E 120 82 4a 64
        E 0 92 4a 64
        E 120 82 4a 64
        E 0 83 39 64
        E 0 92 4c 64
        E 0 93 39 5a
        E 119 82 4c 64
        E 1 92 4a 64
        E 119 82 4a 64
        E 0 83 39 64
        E 0 8f 36 00
        E 1 92 4a 64
        E 0 93 39 5a
        E 0 9f 36 59
        E 119 82 4a 64
        E 0 92 4a 64
        E 120 82 4a 64
        E 1 83 39 64
        E 0 92 4c 64
        E 0 93 39 5a
        E 119 82 4c 64
        E 0 92 4a 64
        E 120 82 4a 64
        E 0 83 39 64
        E 0 8f 36 00
        E 0 92 4f 64
        E 0 93 37 5a
        E 0 9f 34 53
        E 119 82 4f 64
        E 0 92 4f 64
        E 123 82 4f 64
        E 0 83 37 64
        E 0 92 51 64
        E 0 93 37 5a
        E 118 82 51 64
        E 0 92 4f 64
        E 121 82 4f 64
        E 0 83 37 64
        E 0 8f 34 00
        E 0 92 4f 64
        E 0 93 37 5a
        E 0 9f 34 59
        E 118 82 4f 64
        E 0 92 4f 64
        E 122 82 4f 64
        E 0 83 37 64
        E 0 92 51 64
        E 0 93 37 5a
        E 118 82 51 64
        E 0 92 4f 64
        E 123 82 4f 64
        E 0 83 37 64
        E 0 8f 34 00
        E 0 92 4f 64
        E 0 93 37 5a
        E 0 9f 34 5a
        E 119 82 4f 64
        E 0 92 4f 64
        E 119 82 4f 64
        E 0 83 37 64
        E 1 92 51 64
        E 1 93 37 5a
        E 119 82 51 64
        E 1 92 4f 64
        E 118 82 4f 64
        E 0 83 37 64
        E 0 8f 34 00
        E 0 92 4f 64
        E 1 93 37 5a
        E 0 9f 34 5a
        E 119 82 4f 64
        E 0 92 4f 64
        E 122 82 4f 64
        E 0 83 37 64
        E 0 92 51 64
        E 0 93 37 5a
        E 117 82 51 64
        E 0 92 4f 64
        E 122 8f 34 00
        E 0 82 4f 64
        E 0 83 37 64
        E 0 92 56 64
        E 0 93 42 5a
        E 0 9f 32 5a
        E 119 8f 32 00
        E 0 9f 32 5a
        E 121 83 42 64
        E 0 8f 32 00
        E 0 93 42 5a
        E 0 9f 34 5a
        E 119 8f 34 00
        E 0 9f 32 54
        E 120 82 56 64
        E 1 83 42 64
        E 0 8f 32 00
        E 0 92 4a 64
        E 0 93 42 5a
        E 0 9f 32 57
        E 119 8f 32 00
        E 0 9f 32 54
        E 120 83 42 64
        E 0 8f 32 00
        E 0 93 42 5a
        E 0 9f 34 58
        E 119 8f 34 00
        E 0 9f 32 53
        E 122 82 4a 64
        E 0 83 42 64
        E 0 8f 32 00
        E 0 93 42 5a
        E 0 9f 32 59
        E 120 8f 32 00
        E 1 9f 32 58
        E 118 83 42 64
        E 0 8f 32 00
        E 0 92 56 64
        E 0 93 42 5a
        E 0 9f 34 5a
        E 120 8f 34 00
        E 0 9f 32 54
        E 120 82 56 64
        E 0 83 42 64
        E 0 8f 32 00
        E 0 92 51 64
        E 0 93 42 5a
        E 0 9f 32 58
        E 120 8f 32 00
        E 0 9f 32 55
        E 121 82 51 64
        E 0 83 42 64
        E 0 8f 32 00
        E 0 92 4e 64
        E 0 93 42 5a
        E 0 9f 34 5a
        E 118 8f 34 00
        E 0 9f 32 55
        E 122 82 4e 64
        E 0 83 42 64
        E 0 8f 32 00
        E 0 92 3e 64
        E 0 93 42 5a
        E 0 9f 32 5a
        E 118 8f 32 00
        E 0 9f 32 55
        E 122 83 42 64
        E 0 8f 32 00
        E 0 93 42 5a
        E 0 9f 34 5a
        E 120 8f 34 00
        E 1 9f 32 53
        E 121 83 42 64
        E 0 8f 32 00
        E 0 93 42 5a
        E 0 9f 32 59
        E 116 8f 32 00
        E 0 9f 32 5a
        E 123 83 42 64
        E 0 8f 32 00
        E 0 93 42 5a
        E 0 9f 34 5a
        E 117 8f 34 00
        E 0 9f 32 58
        E 122 82 3e 64
        E 0 83 42 64
        E 0 8f 32 00
        E 0 93 42 5a
        E 0 9f 32 57
        E 118 8f 32 00
        E 1 9f 32 57
        E 120 83 42 64
        E 0 8f 32 00
        E 1 92 54 64
        E 0 93 42 5a
        E 0 9f 34 58
        E 118 8f 34 00
        E 1 9f 32 58
        E 121 82 54 64
        E 0 83 42 64
        E 0 8f 32 00
        E 0 92 51 64
        E 0 93 42 5a
        E 0 9f 32 56
        E 121 8f 32 00
        E 0 9f 32 58
        E 120 82 51 64
        E 0 83 42 64
        E 0 8f 32 00
        E 0 92 4e 64
        E 0 93 42 5a
        E 0 9f 34 58
        E 118 8f 34 00
        E 0 9f 32 53
        E 123 82 4e 64
        E 0 83 42 64
        E 0 8f 32 00
        E 0 92 3e 64
        E 0 93 43 5a
        E 0 9f 32 58
        E 125 8f 32 00
        E 0 9f 32 5a
        E 114 83 43 64
        E 0 8f 32 00
        E 0 93 43 5a
        E 0 9f 34 59
        E 118 8f 34 00
        E 0 9f 32 53
        E 122 83 43 64
        E 0 8f 32 00
        E 0 93 43 5a
        E 0 9f 32 59
        E 118 8f 32 00
        E 0 9f 32 57
        E 120 83 43 64
        E 1 8f 32 00
        E 0 93 43 5a
        E 0 9f 34 5b
        E 119 8f 34 00
        E 0 9f 32 54
        E 121 82 3e 64
        E 0 83 43 64
        E 0 8f 32 00
        E 0 93 43 5a
        E 0 9f 32 59
        E 118 8f 32 00
        E 1 9f 32 56
        E 121 83 43 64
        E 0 8f 32 00
        E 0 92 53 64
        E 0 93 43 5a
        E 0 9f 34 58
        E 119 8f 34 00
        E 1 9f 32 55
        E 121 82 53 64
        E 0 83 43 64
        E 0 8f 32 00
        E 2 92 4f 64
        E 1 93 43 5a
        E 0 9f 32 56
        E 114 8f 32 00
        E 0 9f 32 54
        E 122 82 4f 64
        E 0 83 43 64
        E 0 8f 32 00
        E 0 92 4a 64
        E 0 93 43 5a
        E 0 9f 34 5e
        E 117 8f 34 00
        E 0 9f 32 52
        E 122 82 4a 64
        E 0 83 43 64
        E 0 8f 32 00
        E 1 92 3e 64
        E 0 93 42 5a
        E 0 9f 32 56
        E 239 82 3e 64
        E 1 92 45 64
        E 238 82 45 64
        E 0 83 42 64
        E 0 8f 32 00
        E 0 92 4a 64
        E 0 93 42 5a
        E 0 9f 32 59
        E 241 82 4a 64
        E 0 92 4e 64
        E 240 82 4e 64
        E 0 83 42 64
        E 1 8f 32 00
        E 0 92 51 64
        E 0 93 42 5a
        E 0 9f 32 59
        E 240 82 51 64
        E 0 92 4e 64
        E 239 82 4e 64
        E 0 83 42 64
        E 0 8f 32 00
        E 0 92 4a 64
        E 0 93 42 5a
        E 0 9f 32 59
        E 241 82 4a 64
        E 1 92 45 64
        E 239 82 45 64
        E 0 83 42 64
        E 0 8f 32 00
        E 0 92 3f 64
        E 0 93 42 5a
        E 0 9f 2f 58
        E 240 82 3f 64
        E 0 92 42 64
        E 239 82 42 64
        E 0 83 42 64
        E 0 8f 2f 00
        E 2 92 47 64
        E 1 93 42 5a
        E 0 9f 2f 5b
        E 237 82 47 64
        E 0 92 4b 64
        E 242 82 4b 64
        E 0 83 42 64
        E 0 8f 2f 00
        E 0 92 4e 64
        E 0 93 3f 5a
        E 0 9f 2f 59
        E 240 82 4e 64
        E 0 92 51 64
        E 238 82 51 64
        E 0 83 3f 64
        E 0 8f 2f 00
        E 0 92 53 64
        E 0 93 3f 5a
        E 0 9f 2f 55
        E 242 82 53 64
        E 0 92 4e 64
        E 237 82 4e 64
        E 0 83 3f 64
        E 0 8f 2f 00
        E 0 92 40 64
        E 1 93 3b 5a
        E 0 9f 34 5d
        E 242 82 40 64
        E 0 92 43 64
        E 238 82 43 64
        E 0 83 3b 64
        E 0 8f 34 00
        E 0 92 47 64
        E 0 93 3b 5a
        E 0 9f 34 5a
        E 241 82 47 64
        E 0 92 4c 64
        E 239 82 4c 64
        E 1 83 3b 64
        E 0 8f 34 00
        E 0 92 4f 64
        E 0 93 3b 5a
        E 0 9f 34 58
        E 240 82 4f 64
        E 0 92 53 64
        E 240 82 53 64
        E 0 83 3b 64
        E 0 8f 34 00
        E 0 92 4f 64
        E 0 93 3b 5a
        E 0 9f 34 53
        E 241 82 4f 64
        E 0 92 4c 64
        E 240 82 4c 64
        E 0 83 3b 64
        E 0 8f 34 00
        E 0 92 39 64
        E 0 93 3c 5a
        E 0 9f 2d 4d
        E 239 82 39 64
        E 0 92 3c 64
        E 240 82 3c 64
        E 0 83 3c 64
        E 0 8f 2d 00
        E 0 92 40 64
        E 0 93 3c 5a
        E 0 9f 2d 54
        E 241 82 40 64
        E 0 92 45 64
        E 239 82 45 64
        E 0 83 3c 64
        E 0 8f 2d 00
        E 0 92 48 64
        E 0 93 3c 5a
        E 0 9f 2d 5a
        E 240 82 48 64
        E 1 92 4c 64
        E 239 82 4c 64
        E 0 83 3c 64
        E 0 8f 2d 00
        E 0 92 51 64
        E 0 93 48 5a
        E 0 9f 2d 5a
        E 240 82 51 64
        E 1 92 4c 64
        E 238 82 4c 64
        E 0 83 48 64
        E 0 8f 2d 00
        E 0 92 4c 64
        E 0 92 4b 64
        E 0 93 42 5a
        E 0 9f 2f 59
        E 240 82 4b 64
        E 1 83 42 64
        E 0 8f 2f 00
        E 0 92 49 64
        E 0 93 42 5a
        E 0 9f 2f 58
        E 119 82 49 64
        E 1 92 47 64
        E 119 82 4c 64
        E 0 82 47 64
        E 0 83 42 64
        E 0 8f 2f 00
        E 0 92 4c 64
        E 0 92 4b 64
        E 0 93 42 5a
        E 0 9f 2f 57
        E 240 82 4b 64
        E 0 83 42 64
        E 0 8f 2f 00
        E 0 92 49 64
        E 0 93 42 5a
        E 0 9f 2f 58
        E 120 82 49 64
        E 0 92 47 64
        E 122 82 4c 64
        E 0 82 47 64
        E 0 83 42 64
        E 0 8f 2f 00
        E 0 92 4c 64
        E 1 92 4b 64
        E 0 93 42 5a
        E 0 9f 2f 55
        E 238 82 4b 64
        E 0 83 42 64
        E 0 8f 2f 00
        E 0 92 49 64
        E 0 93 42 5a
        E 0 9f 2f 57
        E 118 82 49 64
        E 0 92 47 64
        E 122 82 4c 64
        E 0 82 47 64
        E 0 83 42 64
        E 0 8f 2f 00
        E 0 92 4c 64
        E 0 92 4b 64
        E 0 93 42 5a
        E 0 9f 2f 5b
        E 241 82 4b 64
        E 0 83 42 64
        E 0 8f 2f 00
        E 3 92 49 64
        E 0 93 42 5a
        E 0 9f 2f 59
        E 115 82 49 64
        E 0 92 47 64
        E 120 82 4c 64
        E 0 82 47 64
        E 2 83 42 64
        E 0 8f 2f 00
        E 0 92 53 64
        E 0 92 51 64
        E 1 93 42 5a
        E 0 9f 2f 5b
        E 238 82 51 64
        E 0 83 42 64
        E 0 8f 2f 00
        E 1 92 4f 64
        E 0 93 42 5a
        E 0 9f 2f 56
        E 117 82 4f 64
        E 0 92 4e 64
        E 121 82 53 64
        E 0 82 4e 64
        E 0 83 42 64
        E 0 8f 2f 00
        E 0 92 53 64
        E 0 92 51 64
        E 0 93 42 5a
        E 0 9f 2f 57
        E 241 82 51 64
        E 0 83 42 64
        E 0 8f 2f 00
        E 0 92 4f 64
        E 0 93 42 5a
        E 0 9f 2f 5a
        E 119 82 4f 64
        E 0 92 4e 64
        E 121 82 53 64
        E 0 82 4e 64
        E 0 83 42 64
        E 0 8f 2f 00
        E 0 92 53 64
        E 0 92 51 64
        E 0 93 42 5a
        E 0 9f 2f 5a
        E 240 82 51 64
        E 0 83 42 64
        E 0 8f 2f 00
        E 0 92 4f 64
        E 0 93 42 5a
        E 0 9f 2f 51
        E 119 82 4f 64
        E 0 92 4e 64
        E 121 82 53 64
        E 0 82 4e 64
        E 0 83 42 64
        E 0 8f 2f 00
        E 0 92 53 64
        E 0 92 51 64
        E 0 93 3f 5a
        E 0 9f 2f 59
        E 239 82 51 64
        E 0 83 3f 64
        E 0 8f 2f 00
        E 0 92 4f 64
        E 1 93 3f 5a
        E 0 9f 2f 55
        E 120 82 4f 64
        E 0 92 4e 64
        E 119 82 53 64
        E 0 82 4e 64
        E 0 83 3f 64
        E 0 8f 2f 00
        E 0 92 4f 64
        E 0 93 3b 5a
        E 0 9f 34 5a
        E 121 82 4f 64
        E 0 92 4f 64
        E 120 82 4f 64
        E 0 83 3b 64
        E 0 8f 34 00
        E 0 92 53 64
        E 0 93 3b 5a
        E 0 9f 34 5a
        E 119 82 53 64
        E 0 92 4f 64
        E 122 82 4f 64
        E 0 83 3b 64
        E 0 8f 34 00
        E 0 92 4c 64
        E 0 93 3b 5a
        E 0 9f 34 54
        E 118 82 4c 64
        E 0 92 4c 64
        E 120 82 4c 64
        E 0 83 3b 64
        E 0 8f 34 00
        E 0 92 4f 64
        E 0 93 3b 5a
        E 0 9f 34 57
        E 121 82 4f 64
        E 0 92 4c 64
        E 120 82 4c 64
        E 0 83 3b 64
        E 0 8f 34 00
        E 0 92 47 64
        E 0 93 3b 5a
        E 0 9f 34 56
        E 119 82 47 64
        E 0 92 47 64
        E 121 82 47 64
        E 0 83 3b 64
        E 0 8f 34 00
        E 0 92 4c 64
        E 0 93 3b 5a
        E 0 9f 34 57
        E 119 82 4c 64
        E 0 92 47 64
        E 122 82 47 64
        E 0 83 3b 64
        E 0 8f 34 00
        E 0 92 43 64
        E 0 93 3b 5a
        E 0 9f 34 5a
        E 117 82 43 64
        E 0 92 43 64
        E 123 82 43 64
        E 0 83 3b 64
        E 0 8f 34 00
        E 0 92 47 64
        E 1 93 3b 5a
        E 0 9f 34 54
        E 117 82 47 64
        E 0 92 43 64
        E 122 82 43 64
        E 0 83 3b 64
        E 0 8f 34 00
        E 0 92 40 64
        E 0 93 34 5a
        E 0 9f 34 58
        E 119 82 40 64
        E 0 83 34 64
        E 0 8f 34 00
        E 0 92 40 64
        E 0 93 34 5a
        E 0 9f 34 55
        E 121 82 40 64
        E 0 83 34 64
        E 0 8f 34 00
        E 0 92 42 64
        E 0 93 36 5a
        E 0 9f 36 58
        E 119 82 42 64
        E 0 83 36 64
        E 0 8f 36 00
        E 0 92 40 64
        E 0 93 34 5a
        E 0 9f 34 53
        E 121 82 40 64
        E 0 83 34 64
        E 0 8f 34 00
        E 0 92 40 64
        E 0 93 34 5a
        E 0 9f 34 57
        E 117 82 40 64
        E 0 83 34 64
        E 0 8f 34 00
        E 0 92 40 64
        E 0 93 34 5a
        E 0 9f 34 56
        E 121 82 40 64
        E 0 83 34 64
        E 0 8f 34 00
        E 0 92 42 64
        E 0 93 36 5a
        E 0 9f 36 5c
        E 120 82 42 64
        E 0 83 36 64
        E 0 8f 36 00
        E 0 92 40 64
        E 0 93 34 5a
        E 0 9f 34 58
        E 120 82 40 64
        E 0 83 34 64
        E 0 8f 34 00
        E 0 92 40 64
        E 0 93 34 5a
        E 0 9f 34 58
        E 121 82 40 64
        E 0 83 34 64
        E 0 8f 34 00
        E 0 92 40 64
        E 0 93 34 5a
        E 0 9f 34 54
        E 120 82 40 64
        E 0 83 34 64
        E 0 8f 34 00
        E 0 92 42 64
        E 0 93 36 5a
        E 0 9f 36 58
        E 117 82 42 64
        E 0 83 36 64
        E 0 8f 36 00
        E 0 92 40 64
        E 0 93 34 5a
        E 0 9f 34 51
        E 124 82 40 64
        E 0 83 34 64
        E 1 8f 34 00
        E 0 92 40 64
        E 0 93 34 5a
        E 0 9f 34 5a
        E 116 82 40 64
        E 0 83 34 64
        E 0 8f 34 00
        E 0 92 40 64
        E 0 93 34 5a
        E 0 9f 34 5a
        E 121 82 40 64
        E 1 83 34 64
        E 0 8f 34 00
        E 0 92 42 64
        E 0 93 36 5a
        E 0 9f 36 5a
        E 117 82 42 64
        E 0 83 36 64
        E 0 8f 36 00
        E 1 92 40 64
        E 0 93 34 5a
        E 0 9f 34 51
        E 122 82 40 64
        E 0 83 34 64
        E 0 8f 34 00
        E 0 93 47 5a
        E 0 9f 2f 4f
        E 120 8f 2f 00
        E 0 9f 2f 5a
        E 120 8f 2f 00
        E 0 9f 30 58
        E 120 8f 30 00
        E 0 9f 2f 59
        E 119 83 47 64
        E 0 8f 2f 00
        E 0 93 47 5a
        E 0 9f 2f 55
        E 483 83 47 64
        E 0 8f 2f 00
        E 0 93 47 5a
        E 477 83 47 64
        E 0 93 47 5a
        E 482 83 47 64
        E 0 92 58 64
        E 1 93 48 5a
        E 0 9f 2f 51
        E 117 8f 2f 00
        E 0 9f 2f 56
        E 38 92 57 64
        E 84 82 58 64
        E 0 8f 2f 00
        E 0 9f 30 59
        E 76 92 58 64
        E 42 8f 30 00
        E 0 9f 2f 54
        E 40 82 57 64
        E 82 83 48 64
        E 0 8f 2f 00
        E 0 92 58 64
        E 0 93 48 5a
        E 0 9f 2f 5a
        E 77 82 58 64
        E 78 92 57 64
        E 83 82 58 64
        E 79 92 58 64
        E 78 82 57 64
        E 83 83 48 64
        E 0 8f 2f 00
        E 0 92 58 64
        E 0 93 48 5a
        E 81 82 58 64
        E 77 92 57 64
        E 83 82 58 64
        E 79 92 58 64
        E 78 82 57 64
        E 82 83 48 64
        E 0 92 58 64
        E 0 93 48 5a
        E 80 82 58 64
        E 80 92 57 64
        E 81 82 58 64
        E 79 92 58 64
        E 80 82 57 64
        E 80 83 48 64
        E 0 92 58 64
        E 0 93 42 5a
        E 0 9f 2f 4f
        E 80 82 58 64
        E 40 8f 2f 00
        E 0 9f 2f 52
        E 121 82 58 64
        E 0 8f 2f 00
        E 0 92 58 64
        E 0 9f 30 5a
        E 119 8f 30 00
        E 0 9f 2f 55
        E 120 82 58 64
        E 0 83 42 64
        E 0 8f 2f 00
        E 0 92 54 64
        E 0 93 42 5a
        E 1 9f 2f 59
        E 239 82 54 64
        E 0 92 54 64
        E 241 82 54 64
        E 0 83 42 64
        E 0 8f 2f 00
        E 0 92 51 64
        E 0 93 42 5a
        E 240 82 51 64
        E 0 92 51 64
        E 240 82 51 64
        E 0 83 42 64
        E 0 92 4e 64
        E 0 93 42 5a
        E 241 82 4e 64
        E 0 92 4e 64
        E 239 82 4e 64
        E 0 83 42 64
        E 0 92 56 64
        E 0 93 47 5a
        E 0 9f 2f 51
        E 119 8f 2f 00
        E 0 9f 2f 59
        E 38 92 54 64
        E 82 82 56 64
        E 1 8f 2f 00
        E 0 9f 30 5a
        E 79 92 56 64
        E 41 8f 30 00
        E 0 9f 2f 57
        E 36 82 54 64
        E 83 83 47 64
        E 0 8f 2f 00
        E 0 92 56 64
        E 0 93 47 5a
        E 0 9f 2f 5b
        E 80 82 56 64
        E 79 92 54 64
        E 82 82 56 64
        E 78 92 56 64
        E 80 82 54 64
        E 82 83 47 64
        E 0 8f 2f 00
        E 0 92 56 64
        E 0 93 47 5a
        E 78 82 56 64
        E 79 92 54 64
        E 84 82 56 64
        E 77 92 56 64
        E 78 82 54 64
        E 84 83 47 64
        E 0 92 56 64
        E 0 93 47 5a
        E 78 82 56 64
        E 78 92 54 64
        E 85 82 56 64
        E 78 92 56 64
        E 78 82 54 64
        E 84 83 47 64
        E 0 92 56 64
        E 0 93 40 5a
        E 0 9f 2f 49
        E 76 82 56 64
        E 41 8f 2f 00
        E 0 9f 2f 5a
        E 122 82 56 64
        E 0 8f 2f 00
        E 0 92 56 64
        E 0 9f 30 5a
        E 118 8f 30 00
        E 0 9f 2f 57
        E 122 82 56 64
        E 0 83 40 64
        E 0 8f 2f 00
        E 1 92 53 64
        E 0 93 40 5a
        E 0 9f 2f 56
        E 238 82 53 64
        E 0 92 53 64
        E 242 82 53 64
        E 0 83 40 64
        E 0 8f 2f 00
        E 0 92 4f 64
        E 0 93 40 5a
        E 240 82 4f 64
        E 0 92 4f 64
        E 238 82 4f 64
        E 0 83 40 64
        E 0 92 4c 64
        E 0 93 40 5a
        E 241 82 4c 64
        E 0 92 4c 64
        E 241 82 4c 64
        E 0 83 40 64
        E 0 92 54 64
        E 0 93 45 5a
        E 0 9f 2f 51
        E 118 8f 2f 00
        E 0 9f 2f 53
        E 44 92 53 64
        E 78 82 54 64
        E 0 8f 2f 00
        E 0 9f 30 5a
        E 80 92 54 64
        E 39 8f 30 00
        E 1 9f 2f 55
        E 36 82 53 64
        E 85 83 45 64
        E 0 8f 2f 00
        E 0 92 54 64
        E 0 93 45 5a
        E 0 9f 2f 54
        E 76 82 54 64
        E 78 92 53 64
        E 84 82 54 64
        E 79 92 54 64
        E 78 82 53 64
        E 83 83 45 64
        E 0 8f 2f 00
        E 0 92 54 64
        E 1 93 45 5a
        E 79 82 54 64
        E 78 92 53 64
        E 85 82 54 64
        E 75 92 54 64
        E 80 82 53 64
        E 81 83 45 64
        E 1 92 54 64
        E 0 93 45 5a
        E 78 82 54 64
        E 79 92 53 64
        E 84 82 54 64
        E 78 92 54 64
        E 77 82 53 64
        E 85 83 45 64
        E 0 92 54 64
        E 0 93 3f 5a
        E 0 9f 2f 4d
        E 78 82 54 64
        E 39 8f 2f 00
        E 0 9f 2f 57
        E 122 82 54 64
        E 0 8f 2f 00
        E 1 92 54 64
        E 0 9f 30 5d
        E 118 8f 30 00
        E 0 9f 2f 54
        E 120 82 54 64
        E 1 83 3f 64
        E 0 8f 2f 00
        E 0 92 51 64
        E 0 93 3f 5a
        E 0 9f 2f 57
        E 241 82 51 64
        E 0 92 51 64
        E 241 82 51 64
        E 0 83 3f 64
        E 0 8f 2f 00
        E 0 92 4e 64
        E 0 93 3f 5a
        E 239 82 4e 64
        E 0 92 4e 64
        E 242 82 4e 64
        E 0 83 3f 64
        E 1 92 4b 64
        E 0 93 3f 5a
        E 235 82 4b 64
        E 1 92 4b 64
        E 240 82 4b 64
        E 0 83 3f 64
        E 0 92 37 64
        E 0 93 37 5a
        E 0 9f 34 50
        E 119 82 37 64
        E 0 92 40 64
        E 121 82 40 64
        E 0 92 47 64
        E 119 82 47 64
        E 1 92 47 64
        E 119 82 47 64
        E 0 83 37 64
        E 0 8f 34 00
        E 0 92 37 64
        E 0 93 37 5a
        E 1 9f 34 51
        E 119 82 37 64
        E 0 92 40 64
        E 122 82 40 64
        E 0 92 47 64
        E 117 82 47 64
        E 0 92 47 64
        E 122 82 47 64
        E 0 83 37 64
        E 0 8f 34 00
        E 0 92 37 64
        E 0 93 37 5a
        E 0 9f 34 58
        E 119 82 37 64
        E 1 92 40 64
        E 120 82 40 64
        E 1 92 47 64
        E 117 82 47 64
        E 0 92 47 64
        E 122 82 47 64
        E 0 83 37 64
        E 0 8f 34 00
        E 0 92 37 64
        E 0 93 37 5a
        E 0 9f 34 57
        E 121 82 37 64
        E 0 92 40 64
        E 119 82 40 64
        E 0 92 47 64
        E 118 82 47 64
        E 0 92 47 64
        E 121 82 47 64
        E 1 83 37 64
        E 0 8f 34 00
        E 0 92 39 64
        E 0 93 39 5a
        E 0 9f 34 58
        E 120 82 39 64
        E 0 92 40 64
        E 119 82 40 64
        E 0 92 48 64
        E 120 82 48 64
        E 1 92 48 64
        E 121 82 48 64
        E 0 83 39 64
        E 0 8f 34 00
        E 0 92 39 64
        E 0 93 39 5a
        E 0 9f 34 59
        E 119 82 39 64
        E 0 92 40 64
        E 120 82 40 64
        E 0 92 48 64
        E 119 82 48 64
        E 0 92 48 64
        E 121 82 48 64
        E 0 83 39 64
        E 0 8f 34 00
        E 0 92 39 64
        E 0 93 39 5a
        E 0 9f 34 57
        E 118 82 39 64
        E 0 92 40 64
        E 122 82 40 64
        E 0 92 48 64
        E 121 82 48 64
        E 0 92 48 64
        E 119 82 48 64
        E 0 83 39 64
        E 0 8f 34 00
        E 0 92 39 64
        E 0 93 39 5a
        E 0 9f 34 59
        E 119 82 39 64
        E 0 92 40 64
        E 122 82 40 64
        E 0 92 48 64
        E 118 82 48 64
        E 0 92 48 64
        E 121 82 48 64
        E 0 83 39 64
        E 1 8f 34 00
        E 1 92 37 64
        E 0 93 37 5a
        E 0 9f 34 53
        E 118 82 37 64
        E 0 92 40 64
        E 120 82 40 64
        E 0 92 47 64
        E 118 82 47 64
        E 0 92 47 64
        E 122 82 47 64
        E 0 83 37 64
        E 0 8f 34 00
        E 0 92 37 64
        E 0 93 37 5a
        E 0 9f 34 5b
        E 119 82 37 64
        E 1 92 40 64
        E 119 82 40 64
        E 1 92 47 64
        E 118 82 47 64
        E 0 92 47 64
        E 123 82 47 64
        E 0 83 37 64
        E 0 8f 34 00
        E 0 92 37 64
        E 0 93 37 5a
        E 0 9f 34 5a
        E 118 82 37 64
        E 0 92 40 64
        E 121 82 40 64
        E 0 92 47 64
        E 119 82 47 64
        E 0 92 47 64
        E 121 82 47 64
        E 0 83 37 64
        E 0 8f 34 00
        E 1 92 37 64
        E 0 93 37 5a
        E 0 9f 34 5a
        E 117 82 37 64
        E 0 92 40 64
        E 122 82 40 64
        E 0 92 47 64
        E 120 82 47 64
        E 0 92 47 64
        E 120 82 47 64
        E 0 83 37 64
        E 0 8f 34 00
        E 0 92 39 64
        E 0 93 39 5a
        E 0 9f 34 56
        E 119 82 39 64
        E 0 92 40 64
        E 121 82 40 64
        E 0 92 48 64
        E 119 82 48 64
        E 0 92 48 64
        E 122 82 48 64
        E 0 83 39 64
        E 0 8f 34 00
        E 0 92 39 64
        E 0 93 39 5a
        E 0 9f 34 54
        E 118 82 39 64
        E 0 92 40 64
        E 120 82 40 64
        E 0 92 48 64
        E 119 82 48 64
        E 0 92 48 64
        E 126 82 48 64
        E 0 83 39 64
        E 0 8f 34 00
        E 1 92 39 64
        E 0 93 39 5a
        E 0 9f 34 57
        E 114 82 39 64
        E 1 92 40 64
        E 121 82 40 64
        E 0 92 48 64
        E 117 82 48 64
        E 0 92 48 64
        E 121 82 48 64
        E 0 83 39 64
        E 0 8f 34 00
        E 1 92 39 64
        E 0 93 39 5a
        E 0 9f 34 51
        E 119 82 39 64
        E 0 92 40 64
        E 121 82 40 64
        E 0 92 48 64
        E 119 82 48 64
        E 0 92 48 64
        E 121 82 48 64
        E 1 83 39 64
        E 0 8f 34 00
        E 0 92 40 64
        E 0 92 47 64
        E 0 92 37 64
        E 0 93 37 5a
        E 0 9f 34 5d
        E 238 82 37 64
        E 0 92 4c 64
        E 242 82 4c 64
        E 0 83 37 64
        E 0 8f 34 00
        E 0 92 47 64
        E 0 93 37 5a
        E 0 9f 34 5a
        E 239 82 47 64
        E 1 92 43 64
        E 239 82 40 64
        E 0 82 47 64
        E 0 82 43 64
        E 0 83 37 64
        E 1 8f 34 00
        E 2 92 37 64
        E 0 93 37 5a
        E 0 9f 2b 50
        E 239 82 37 64
        E 1 92 4c 64
        E 239 82 4c 64
        E 1 83 37 64
        E 0 8f 2b 00
        E 0 92 47 64
        E 0 93 37 5a
        E 0 9f 2b 57
        E 236 82 47 64
        E 0 92 43 64
        E 242 82 43 64
        E 0 83 37 64
        E 0 8f 2b 00
        E 0 92 39 64
        E 0 93 39 5a
        E 0 9f 2d 58
        E 238 82 39 64
        E 1 92 4c 64
        E 242 82 4c 64
        E 0 83 39 64
        E 0 8f 2d 00
        E 0 92 48 64
        E 0 93 39 5a
        E 0 9f 2d 55
        E 238 82 48 64
        E 0 92 45 64
        E 240 82 45 64
        E 0 83 39 64
        E 0 8f 2d 00
        E 0 92 3b 64
        E 0 93 3b 5a
        E 0 9f 2f 59
        E 246 82 3b 64
        E 0 92 4b 64
        E 233 82 4b 64
        E 1 83 3b 64
        E 0 8f 2f 00
        E 0 92 47 64
        E 0 93 3b 5a
        E 0 9f 2f 54
        E 241 82 47 64
        E 0 92 3b 64
        E 239 82 3b 64
        E 0 83 3b 64
        E 0 8f 2f 00
        E 0 92 40 64
        E 0 93 34 5a
        E 0 9f 28 51
        E 960 82 40 64
        E 0 83 34 64
        E 0 8f 28 00
        E 960 92 48 64
        E 0 93 40 5a
        E 0 9f 30 52
        E 120 82 48 64
        E 0 92 48 64
        E 123 82 48 64
        E 0 92 4a 64
        E 116 82 4a 64
        E 0 92 48 64
        E 122 82 48 64
        E 0 83 40 64
        E 0 8f 30 00
        E 0 92 48 64
        E 0 93 40 5a
        E 0 9f 30 58
        E 117 82 48 64
        E 0 92 48 64
        E 122 82 48 64
        E 1 92 4a 64
        E 119 82 4a 64
        E 0 92 48 64
        E 119 82 48 64
        E 0 83 40 64
        E 0 8f 30 00
        E 0 92 48 64
        E 0 93 40 5a
        E 0 9f 30 5a
        E 119 82 48 64
        E 0 92 48 64
        E 122 82 48 64
        E 0 92 4a 64
        E 121 82 4a 64
        E 0 92 48 64
        E 119 82 48 64
        E 1 83 40 64
        E 0 8f 30 00
        E 0 92 48 64
        E 0 93 40 5a
        E 0 9f 30 56
        E 117 82 48 64
        E 0 92 48 64
        E 122 82 48 64
        E 0 92 4a 64
        E 119 82 4a 64
        E 0 92 48 64
        E 126 82 48 64
        E 0 83 40 64
        E 0 8f 30 00
        E 1 92 4f 64
        E 0 93 3e 5a
        E 0 9f 2f 54
        E 115 82 4f 64
        E 0 92 4f 64
        E 118 82 4f 64
        E 0 92 51 64
        E 119 82 51 64
        E 0 92 4f 64
        E 122 82 4f 64
        E 0 83 3e 64
        E 0 8f 2f 00
        E 0 92 4f 64
        E 0 93 3e 5a
        E 0 9f 2f 5c
        E 119 82 4f 64
        E 0 92 4f 64
        E 121 82 4f 64
        E 0 92 51 64
        E 120 82 51 64
        E 0 92 4f 64
        E 120 82 4f 64
        E 0 83 3e 64
        E 0 8f 2f 00
        E 0 92 4f 64
        E 0 93 3e 5a
        E 0 9f 2f 5b
        E 118 82 4f 64
        E 1 92 4f 64
        E 123 82 4f 64
        E 0 92 51 64
        E 117 82 51 64
        E 1 92 4f 64
        E 120 82 4f 64
        E 0 83 3e 64
        E 0 8f 2f 00
        E 0 92 4f 64
        E 0 93 3e 5a
        E 0 9f 2f 53
        E 118 82 4f 64
        E 0 92 4f 64
        E 121 82 4f 64
        E 1 92 51 64
        E 118 82 51 64
        E 0 92 4f 64
        E 123 82 4f 64
        E 0 83 3e 64
        E 0 8f 2f 00
        E 0 92 54 64
        E 1 93 3c 5a
        E 0 9f 2d 54
        E 117 82 54 64
        E 0 92 54 64
        E 122 82 54 64
        E 0 92 56 64
        E 119 82 56 64
        E 0 92 54 64
        E 121 82 54 64
        E 0 83 3c 64
        E 0 8f 2d 00
        E 0 92 54 64
        E 0 93 3c 5a
        E 0 9f 2d 56
        E 118 82 54 64
        E 0 92 54 64
        E 121 82 54 64
        E 0 92 56 64
        E 119 82 56 64
        E 0 92 54 64
        E 121 82 54 64
        E 1 83 3c 64
        E 0 8f 2d 00
        E 0 92 54 64
        E 0 93 3c 5a
        E 0 9f 2d 59
        E 118 82 54 64
        E 0 92 54 64
        E 121 82 54 64
        E 0 92 56 64
        E 118 82 56 64
        E 0 92 54 64
        E 122 82 54 64
        E 0 83 3c 64
        E 0 8f 2d 00
        E 0 92 54 64
        E 0 93 3c 5a
        E 0 9f 2d 56
        E 118 82 54 64
        E 1 92 54 64
        E 121 82 54 64
        E 0 92 56 64
        E 119 82 56 64
        E 0 92 54 64
        E 120 82 54 64
        E 0 83 3c 64
        E 0 8f 2d 00
        E 0 92 53 64
        E 0 93 3e 5a
        E 0 9f 2b 56
        E 240 82 53 64
        E 1 92 4f 64
        E 240 82 4f 64
        E 0 83 3e 64
        E 0 8f 2b 00
        E 0 92 51 64
        E 0 92 4f 64
        E 0 93 4c 5a
        E 0 9f 3c 72
        E 241 82 4f 64
        E 0 92 4d 64
        E 119 82 4d 64
        E 0 92 4f 64
        E 119 82 51 64
        E 0 82 4f 64
        E 0 83 4c 64
        E 0 8f 3c 00
        E 0 92 4c 64
        E 0 93 4c 5a
        E 0 9f 3c 5c
        E 241 82 4c 64
        E 0 92 4f 64
        E 240 82 4f 64
        E 0 83 4c 64
        E 0 8f 3c 00
        E 0 92 51 64
        E 0 92 4f 64
        E 0 93 4c 5a
        E 0 9f 3c 58
        E 239 82 4f 64
        E 0 92 4d 64
        E 121 82 4d 64
        E 0 92 4f 64
        E 119 82 51 64
        E 0 82 4f 64
        E 0 83 4c 64
        E 0 8f 3c 00
        E 0 92 4a 64
        E 0 93 4a 5a
        E 0 9f 3b 58
        E 241 82 4a 64
        E 0 92 4f 64
        E 241 82 4f 64
        E 0 83 4a 64
        E 0 8f 3b 00
        E 0 92 51 64
        E 0 92 4f 64
        E 0 93 4a 5a
        E 0 9f 3b 5a
        E 239 82 4f 64
        E 0 92 4d 64
        E 119 82 4d 64
        E 0 92 4f 64
        E 120 82 51 64
        E 0 82 4f 64
        E 0 83 4a 64
        E 0 8f 3b 00
        E 0 92 48 64
        E 0 93 48 5a
        E 0 9f 39 57
        E 242 82 48 64
        E 0 92 4f 64
        E 239 82 4f 64
        E 0 83 48 64
        E 0 8f 39 00
        E 0 92 51 64
        E 0 92 4f 64
        E 0 93 48 5a
        E 0 9f 39 59
        E 241 82 4f 64
        E 0 92 4d 64
        E 118 82 4d 64
        E 1 92 4f 64
        E 120 82 51 64
        E 0 82 4f 64
        E 0 83 48 64
        E 0 8f 39 00
        E 0 92 47 64
        E 0 93 47 5a
        E 0 9f 37 54
        E 241 82 47 64
        E 0 92 4f 64
        E 240 82 4f 64
        E 0 83 47 64
        E 0 8f 37 00
        E 0 92 51 64
        E 0 92 4f 64
        E 0 93 4c 5a
        E 0 9f 3c 61
        E 238 82 4f 64
        E 1 92 4d 64
        E 120 82 4d 64
        E 0 92 4f 64
        E 122 82 51 64
        E 1 82 4f 64
        E 0 83 4c 64
        E 0 8f 3c 00
        E 0 92 4c 64
        E 1 93 4c 5a
        E 1 9f 3c 5a
        E 234 82 4c 64
        E 0 92 4f 64
        E 243 82 4f 64
        E 0 83 4c 64
        E 0 8f 3c 00
        E 0 92 51 64
        E 0 92 4f 64
        E 0 93 4c 5a
        E 0 9f 3c 58
        E 238 82 4f 64
        E 0 92 4d 64
        E 118 82 4d 64
        E 0 92 4f 64
        E 122 82 51 64
        E 0 82 4f 64
        E 0 83 4c 64
        E 0 8f 3c 00
        E 0 92 4a 64
        E 0 93 4a 5a
        E 0 9f 3b 54
        E 241 82 4a 64
        E 0 92 4f 64
        E 239 82 4f 64
        E 0 83 4a 64
        E 0 8f 3b 00
        E 0 92 51 64
        E 0 92 4f 64
        E 0 93 4a 5a
        E 0 9f 3b 5a
        E 241 82 4f 64
        E 0 92 4d 64
        E 118 82 4d 64
        E 0 92 4f 64
        E 122 82 51 64
        E 0 82 4f 64
        E 0 83 4a 64
        E 0 8f 3b 00
        E 0 92 48 64
        E 0 93 48 5a
        E 0 9f 39 56
        E 239 82 48 64
        E 0 92 4f 64
        E 240 82 4f 64
        E 0 83 48 64
        E 0 8f 39 00
        E 0 92 51 64
        E 0 92 4f 64
        E 0 93 48 5a
        E 0 9f 39 5a
        E 239 82 4f 64
        E 0 92 4d 64
        E 119 82 4d 64
        E 1 92 4f 64
        E 126 82 51 64
        E 0 82 4f 64
        E 0 83 48 64
        E 0 8f 39 00
        E 0 92 47 64
        E 0 93 47 5a
        E 0 9f 37 52
        E 115 82 47 64
        E 0 83 47 64
        E 0 8f 37 00
        E 0 92 43 64
        E 0 93 43 5a
        E 0 9f 37 57
        E 120 82 43 64
        E 1 83 43 64
        E 0 8f 37 00
        E 0 92 41 64
        E 0 93 41 5a
        E 0 9f 35 55
        E 116 82 41 64
        E 0 83 41 64
        E 1 8f 35 00
        E 0 92 40 64
        E 0 93 40 5a
        E 0 9f 34 56
        E 122 82 40 64
        E 0 83 40 64
        E 0 8f 34 00
        E 0 92 3e 64
        E 0 93 3e 5a
        E 0 9f 32 52
        E 119 82 3e 64
        E 0 83 3e 64
        E 0 8f 32 00
        E 0 92 3c 64
        E 0 93 3c 5a
        E 0 9f 30 51
        E 122 82 3c 64
        E 0 83 3c 64
        E 0 8f 30 00
        E 0 92 3b 64
        E 0 93 3b 5a
        E 0 9f 2f 57
        E 119 82 3b 64
        E 0 83 3b 64
        E 0 8f 2f 00
        E 0 92 39 64
        E 0 93 39 5a
        E 0 9f 2d 50
        E 119 82 39 64
        E 0 83 39 64
        E 0 8f 2d 00
        E 0 92 37 64
        E 0 93 37 5a
        E 0 9f 2b 57
        E 120 8f 2b 00
        E 0 9f 2b 5a
        E 120 82 37 64
        E 0 83 37 64
        E 0 8f 2b 00
        E 0 92 4f 64
        E 1 93 3b 5a
        E 0 9f 2d 5d
        E 119 8f 2d 00
        E 0 9f 2b 54
        E 120 82 4f 64
        E 1 83 3b 64
        E 0 8f 2b 00
        E 0 92 4a 64
        E 0 93 3b 5a
        E 0 9f 2b 53
        E 119 8f 2b 00
        E 0 9f 2b 56
        E 120 82 4a 64
        E 0 83 3b 64
        E 0 8f 2b 00
        E 0 92 47 64
        E 0 93 3b 5a
        E 0 9f 2d 5b
        E 119 8f 2d 00
        E 1 9f 2b 57
        E 121 82 47 64
        E 0 83 3b 64
        E 0 8f 2b 00
        E 0 92 43 64
        E 0 93 37 5a
        E 0 9f 2b 55
        E 119 8f 2b 00
        E 0 9f 2b 59
        E 122 82 43 64
        E 0 83 37 64
        E 0 8f 2b 00
        E 0 92 4d 64
        E 1 93 3b 5a
        E 0 9f 2d 5b
        E 118 8f 2d 00
        E 0 9f 2b 57
        E 120 82 4d 64
        E 0 83 3b 64
        E 0 8f 2b 00
        E 0 92 4a 64
        E 0 93 3b 5a
        E 0 9f 2b 55
        E 118 8f 2b 00
        E 1 9f 2b 59
        E 121 82 4a 64
        E 0 83 3b 64
        E 0 8f 2b 00
        E 0 92 47 64
        E 0 93 3b 5a
        E 0 9f 2d 59
        E 118 8f 2d 00
        E 0 9f 2b 56
        E 121 82 47 64
        E 0 83 3b 64
        E 0 8f 2b 00
        E 0 92 37 64
        E 0 93 37 5a
        E 0 9f 2b 5b
        E 119 8f 2b 00
        E 0 9f 2b 53
        E 123 82 37 64
        E 0 83 37 64
        E 0 8f 2b 00
        E 0 92 4c 64
        E 0 93 43 5a
        E 0 9f 2d 5b
        E 116 8f 2d 00
        E 0 9f 2b 53
        E 124 82 4c 64
        E 0 83 43 64
        E 0 8f 2b 00
        E 0 92 48 64
        E 1 93 40 5a
        E 0 9f 2b 57
        E 118 8f 2b 00
        E 0 9f 2b 58
        E 119 82 48 64
        E 0 83 40 64
        E 0 8f 2b 00
        E 0 92 43 64
        E 0 93 3c 5a
        E 0 9f 2d 5a
        E 120 8f 2d 00
        E 0 9f 2b 53
        E 120 82 43 64
        E 0 83 3c 64
        E 0 8f 2b 00
        E 0 92 4f 64
        E 157 92 4d 64
        E 84 82 4f 64
        E 79 92 4f 64
        E 79 82 4d 64
        E 81 92 4f 64
        E 79 82 4f 64
        E 80 92 4d 64
        E 90 82 4f 64
        E 70 92 4f 64
        E 80 82 4d 64
        E 81 92 4f 64
        E 80 82 4f 64
        E 80 92 4d 64
        E 80 82 4f 64
        E 80 92 4f 64
        E 78 82 4d 64
        E 82 92 4f 64
        E 79 82 4f 64
        E 79 92 4d 64
        E 81 82 4f 64
        E 81 92 4f 64
        E 78 82 4d 64
        E 84 92 4c 64
        E 1 93 30 5a
        E 0 9f 30 4e
        E 76 82 4f 64
        E 41 82 4c 64
        E 0 92 48 64
        E 121 82 48 64
        E 0 83 30 64
        E 0 8f 30 00
        E 0 92 47 64
        E 0 93 30 5a
        E 0 9f 30 58
        E 119 82 47 64
        E 0 92 48 64
        E 122 82 48 64
        E 0 83 30 64
        E 1 8f 30 00
        E 0 92 40 64
        E 0 93 34 5a
        E 0 9f 34 5c
        E 117 82 40 64
        E 0 92 48 64
        E 120 82 48 64
        E 0 83 34 64
        E 0 8f 34 00
        E 0 92 47 64
        E 3 93 34 5a
        E 0 9f 34 57
        E 116 82 47 64
        E 0 92 48 64
        E 123 82 48 64
        E 0 83 34 64
        E 0 8f 34 00
        E 0 92 41 64
        E 0 93 35 5a
        E 0 9f 35 59
        E 119 82 41 64
        E 0 92 48 64
        E 121 82 48 64
        E 0 83 35 64
        E 0 8f 35 00
        E 2 92 47 64
        E 0 93 35 5a
        E 0 9f 35 5a
        E 116 82 47 64
        E 0 92 48 64
        E 121 82 48 64
        E 0 83 35 64
        E 0 8f 35 00
        E 1 92 43 64
        E 0 93 37 5a
        E 0 9f 37 5a
        E 118 82 43 64
        E 0 92 47 64
        E 120 82 47 64
        E 0 83 37 64
        E 0 8f 37 00
        E 0 92 45 64
        E 0 93 37 5a
        E 0 9f 37 57
        E 120 82 45 64
        E 0 92 47 64
        E 120 82 47 64
        E 0 83 37 64
        E 0 8f 37 00
        E 0 92 4f 64
        E 0 93 30 5a
        E 0 9f 30 4b
        E 158 92 4d 64
        E 83 82 4f 64
        E 78 92 4f 64
        E 78 82 4d 64
        E 85 92 4f 64
        E 79 82 4f 64
        E 77 92 4d 64
        E 82 82 4f 64
        E 81 92 4f 64
        E 77 82 4d 64
        E 84 83 30 64
        E 0 8f 30 00
        E 0 92 4f 64
        E 78 82 4f 64
        E 77 92 4d 64
        E 85 82 4f 64
        E 81 92 4f 64
        E 76 82 4d 64
        E 81 92 4f 64
        E 80 82 4f 64
        E 79 92 4d 64
        E 83 82 4f 64
        E 77 92 4f 64
        E 79 82 4d 64
        E 84 92 4c 64
        E 0 93 30 5a
        E 0 9f 30 4a
        E 77 82 4f 64
        E 43 82 4c 64
        E 0 92 48 64
        E 118 82 48 64
        E 0 83 30 64
        E 0 8f 30 00
        E 0 92 47 64
        E 1 93 30 5a
        E 0 9f 30 59
        E 119 82 47 64
        E 0 92 48 64
        E 122 82 48 64
        E 0 83 30 64
        E 4 8f 30 00
        E 0 92 40 64
        E 0 93 34 5a
        E 0 9f 34 5a
        E 117 82 40 64
        E 1 92 48 64
        E 117 82 48 64
        E 0 83 34 64
        E 0 8f 34 00
        E 0 92 47 64
        E 0 93 34 5a
        E 0 9f 34 5a
        E 119 82 47 64
        E 1 92 48 64
        E 119 82 48 64
        E 0 83 34 64
        E 0 8f 34 00
        E 0 92 41 64
        E 0 93 35 5a
        E 0 9f 35 5a
        E 120 82 41 64
        E 0 92 48 64
        E 122 82 48 64
        E 0 83 35 64
        E 0 8f 35 00
        E 0 92 47 64
        E 0 93 35 5a
        E 0 9f 35 59
        E 117 82 47 64
        E 0 92 48 64
        E 122 82 48 64
        E 1 83 35 64
        E 0 8f 35 00
        E 0 92 43 64
        E 0 93 37 5a
        E 0 9f 37 59
        E 117 82 43 64
        E 0 92 47 64
        E 122 82 47 64
        E 0 83 37 64
        E 0 8f 37 00
        E 0 92 45 64
        E 0 93 37 5a
        E 0 9f 37 5a
        E 119 82 45 64
        E 1 92 47 64
        E 120 82 47 64
        E 0 83 37 64
        E 0 8f 37 00
        E 0 92 3c 64
        E 0 93 30 5a
        E 0 9f 30 51
        E 5760 82 3c 64
        E 0 83 30 64
        E 0 8f 30 00
        E 5039 92 4f 64
        E 0 93 3f 5b
        E 721 82 4f 64
        E 0 83 3f 66
        E 0 92 4f 64
        E 0 93 3f 5b
        E 0 9f 30 51
        E 719 83 3f 66
        E 0 8f 30 00
        E 0 93 3f 5b
        E 0 9f 30 55
        E 359 82 4f 64
        E 1 92 4d 64
        E 180 82 4d 64
        E 0 92 4f 64
        E 180 82 4f 64
        E 0 83 3f 66
        E 0 8f 30 00
        E 0 92 50 66
        E 0 93 41 5a
        E 0 9f 30 58
        E 720 82 50 66
        E 0 83 41 64
        E 0 8f 30 00
        E 0 92 48 64
        E 0 93 3f 5b
        E 0 9f 30 5a
        E 720 82 48 64
        E 0 83 3f 66
        E 0 8f 30 00
        E 0 92 47 64
        E 0 93 3e 5a
        E 0 9f 37 5d
        E 721 82 47 64
        E 0 83 3e 64
        E 0 8f 37 00
        E 0 92 48 64
        E 0 93 3f 5b
        E 0 9f 30 51
        E 722 82 48 64
        E 3 83 3f 66
        E 0 8f 30 00
        E 0 92 4d 64
        E 0 93 3e 5a
        E 0 9f 2b 4d
        E 715 83 3e 64
        E 0 8f 2b 00
        E 0 93 47 5a
        E 0 9f 2b 58
        E 358 82 4d 64
        E 0 92 4f 64
        E 181 82 4f 64
        E 0 92 50 66
        E 181 82 50 66
        E 1 83 47 64
        E 0 8f 2b 00
        E 0 92 50 66
        E 0 93 47 5a
        E 0 9f 2b 5a
        E 720 83 47 64
        E 0 8f 2b 00
        E 0 93 47 5a
        E 0 9f 2b 58
        E 717 82 50 66
        E 0 83 47 64
        E 0 8f 2b 00
        E 0 92 4f 64
        E 0 93 47 5a
        E 1 9f 2b 56
        E 361 82 4f 64
        E 0 92 4d 64
        E 178 82 4d 64
        E 0 92 4b 66
        E 181 82 4b 66
        E 0 83 47 64
        E 0 8f 2b 00
        E 0 92 4d 64
        E 0 93 47 5a
        E 0 9f 2b 5a
        E 360 82 4d 64
        E 0 92 4a 64
        E 362 82 4a 64
        E 0 83 47 64
        E 0 8f 2b 00
        E 0 92 4b 66
        E 0 93 43 5a
        E 0 9f 30 5e
        E 718 82 4b 66
        E 0 83 43 64
        E 0 8f 30 00
        E 0 92 4a 64
        E 0 93 47 5a
        E 0 9f 2b 51
        E 722 82 4a 64
        E 0 83 47 64
        E 0 8f 2b 00
        E 1 92 4d 64
        E 0 93 47 5a
        E 0 9f 2b 5a
        E 719 83 47 64
        E 0 8f 2b 00
        E 0 93 47 5a
        E 0 9f 2b 59
        E 357 82 4d 64
        E 0 92 4f 64
        E 182 82 4f 64
        E 1 92 50 66
        E 178 8f 2b 00
        E 0 82 50 66
        E 0 83 47 64
        E 0 92 50 66
        E 0 93 47 5a
        E 0 9f 2b 54
        E 721 83 47 64
        E 0 8f 2b 00
        E 0 93 47 5a
        E 0 9f 2b 58
        E 725 82 50 66
        E 0 83 47 64
        E 0 8f 2b 00
        E 0 92 4f 64
        E 0 93 47 5a
        E 0 9f 2b 58
        E 354 82 4f 64
        E 0 92 4d 64
        E 180 82 4d 64
        E 0 92 4b 66
        E 181 82 4b 66
        E 0 83 47 64
        E 0 8f 2b 00
        E 0 92 4d 64
        E 0 93 47 5a
        E 0 9f 2b 55
        E 359 82 4d 64
        E 0 92 4a 64
        E 361 82 4a 64
        E 0 83 47 64
        E 0 8f 2b 00
        E 0 92 4b 66
        E 0 93 43 5a
        E 0 9f 30 5d
        E 719 82 4b 66
        E 0 83 43 64
        E 0 8f 30 00
        E 1 92 48 64
        E 0 93 3f 5b
        E 0 9f 30 57
        E 721 82 48 64
        E 1 83 3f 66
        E 3 8f 30 00
        E 0 93 3f 5b
        E 0 9f 30 5a
        E 716 83 3f 66
        E 0 8f 30 00
        E 0 92 4f 64
        E 0 93 3f 5b
        E 0 9f 30 5b
        E 719 82 4f 64
        E 0 83 3f 66
        E 0 8f 30 00
        E 0 92 52 66
        E 0 93 40 5a
        E 0 9f 30 5b
        E 360 82 52 66
        E 0 92 50 66
        E 360 82 50 66
        E 0 83 40 64
        E 0 8f 30 00
        E 0 92 4f 64
        E 0 93 40 5a
        E 0 9f 30 57
        E 358 82 4f 64
        E 0 92 4d 64
        E 363 82 4d 64
        E 0 83 40 64
        E 0 8f 30 00
        E 0 92 4c 64
        E 0 93 40 5a
        E 0 9f 30 59
        E 358 82 4c 64
        E 0 92 49 66
        E 363 82 49 66
        E 0 83 40 64
        E 0 8f 30 00
        E 0 92 48 64
        E 0 93 40 5a
        E 0 9f 30 55
        E 357 82 48 64
        E 0 92 46 66
        E 360 82 46 66
        E 0 83 40 64
        E 0 8f 30 00
        E 0 92 3c 64
        E 0 93 40 5a
        E 0 9f 30 5b
        E 721 82 3c 64
        E 0 83 40 64
        E 0 8f 30 00
        E 1 92 52 66
        E 0 93 40 5a
        E 0 9f 30 58
        E 236 92 4f 64
        E 121 82 52 66
        E 119 92 4c 64
        E 118 82 4f 64
        E 125 83 40 64
        E 0 8f 30 00
        E 0 92 52 66
        E 1 93 40 5a
        E 0 9f 30 56
        E 119 82 4c 64
        E 117 92 4f 64
        E 122 82 52 66
        E 118 92 4c 64
        E 117 82 4f 64
        E 127 83 40 64
        E 0 8f 30 00
        E 0 92 52 66
        E 0 93 40 5a
        E 0 9f 30 5d
        E 117 82 4c 64
        E 117 92 4f 64
        E 125 82 52 66
        E 120 92 4c 64
        E 115 82 4f 64
        E 124 83 40 64
        E 0 8f 30 00
        E 0 92 55 66
        E 0 93 40 5a
        E 0 9f 30 57
        E 116 82 4c 64
        E 606 83 40 64
        E 0 8f 30 00
        E 0 93 40 5a
        E 0 9f 30 57
        E 719 82 55 66
        E 1 83 40 64
        E 0 8f 30 00
        E 0 92 55 66
        E 0 93 40 5a
        E 0 9f 30 58
        E 359 82 55 66
        E 0 92 54 64
        E 179 82 54 64
        E 0 92 52 66
        E 181 82 52 66
        E 0 83 40 64
        E 0 8f 30 00
        E 0 92 50 66
        E 0 93 40 5a
        E 0 9f 30 58
        E 359 82 50 66
        E 1 92 4f 64
        E 359 82 4f 64
        E 0 83 40 64
        E 0 8f 30 00
        E 0 92 50 66
        E 0 93 3c 5a
        E 0 9f 35 60
        E 360 82 50 66
        E 0 92 4d 64
        E 361 82 4d 64
        E 0 83 3c 64
        E 0 8f 35 00
        E 0 92 48 64
        E 1 93 38 5b
        E 0 9f 35 58
        E 358 82 48 64
        E 0 92 44 66
        E 360 82 44 66
        E 4 83 38 66
        E 0 8f 35 00
        E 1 92 41 64
        E 0 93 38 5b
        E 0 9f 35 5a
        E 716 82 41 64
        E 1 83 38 66
        E 0 8f 35 00
        E 0 92 4d 64
        E 0 93 38 5b
        E 0 9f 35 5a
        E 719 82 4d 64
        E 0 83 38 66
        E 0 8f 35 00
        E 0 92 50 66
        E 0 93 3c 5a
        E 0 9f 35 5a
        E 361 82 50 66
        E 1 92 4f 64
        E 356 82 4f 64
        E 0 83 3c 64
        E 0 8f 35 00
        E 0 92 4d 64
        E 0 93 3c 5a
        E 0 9f 35 5a
        E 362 82 4d 64
        E 0 92 4b 66
        E 362 82 4b 66
        E 0 83 3c 64
        E 0 8f 35 00
        E 4 92 4a 64
        E 0 93 3c 5a
        E 0 9f 35 5a
        E 352 82 4a 64
        E 0 92 48 64
        E 363 82 48 64
        E 0 83 3c 64
        E 0 8f 35 00
        E 0 92 46 66
        E 0 93 3c 5a
        E 0 9f 35 55
        E 358 82 46 66
        E 0 92 44 66
        E 361 82 44 66
        E 0 83 3c 64
        E 0 8f 35 00
        E 0 92 3a 66
        E 0 93 3e 5a
        E 0 9f 2e 51
        E 718 82 3a 66
        E 0 83 3e 64
        E 0 8f 2e 00
        E 1 92 4d 64
        E 0 93 3e 5a
        E 0 9f 2e 57
        E 724 82 4d 64
        E 0 83 3e 64
        E 0 8f 2e 00
        E 0 92 4d 64
        E 1 93 3e 5a
        E 0 9f 2e 56
        E 716 82 4d 64
        E 0 83 3e 64
        E 0 8f 2e 00
        E 0 92 4d 64
        E 0 93 3e 5a
        E 0 9f 2e 58
        E 178 82 4d 64
        E 1 92 4c 64
        E 181 82 4c 64
        E 1 92 4d 64
        E 179 82 4d 64
        E 0 92 4f 64
        E 181 82 4f 64
        E 0 83 3e 64
        E 0 8f 2e 00
        E 0 92 50 66
        E 0 93 3e 5a
        E 0 9f 2e 5a
        E 718 83 3e 64
        E 0 8f 2e 00
        E 1 93 3e 5a
        E 0 9f 2e 57
        E 720 83 3e 64
        E 0 8f 2e 00
        E 0 93 3e 5a
        E 0 9f 2e 59
        E 719 83 3e 64
        E 0 8f 2e 00
        E 0 93 3e 5a
        E 0 9f 2e 57
        E 727 82 50 66
        E 0 83 3e 64
        E 0 8f 2e 00
        E 1 92 51 64
        E 0 93 3c 5a
        E 0 9f 35 5f
        E 711 83 3c 64
        E 1 8f 35 00
        E 0 93 3c 5a
        E 0 9f 35 57
        E 725 83 3c 64
        E 0 8f 35 00
        E 0 93 3c 5a
        E 0 9f 33 54
        E 716 83 3c 64
        E 1 8f 33 00
        E 0 93 3c 5a
        E 0 9f 33 55
        E 718 82 51 64
        E 0 83 3c 64
        E 0 8f 33 00
        E 0 92 52 66
        E 1 93 41 5a
        E 0 9f 32 58
        E 359 82 52 66
        E 1 92 4d 64
        E 361 82 4d 64
        E 0 83 41 64
        E 0 8f 32 00
        E 0 92 4f 64
        E 0 93 3e 5a
        E 0 9f 2e 53
        E 357 82 4f 64
        E 0 92 4a 64
        E 363 82 4a 64
        E 0 83 3e 64
        E 0 8f 2e 00
        E 0 92 4b 66
        E 0 93 3a 5b
        E 0 9f 2e 57
        E 358 82 4b 66
        E 0 92 46 66
        E 360 82 46 66
        E 0 83 3a 66
        E 0 8f 2e 00
        E 0 92 48 64
        E 1 93 3a 5b
        E 0 9f 2e 58
        E 359 82 48 64
        E 0 92 43 64
        E 362 82 43 64
        E 0 83 3a 66
        E 0 8f 2e 00
        E 0 92 44 66
        E 0 93 3a 5b
        E 0 9f 2e 5a
        E 357 82 44 66
        E 0 92 41 64
        E 362 82 41 64
        E 1 83 3a 66
        E 0 8f 2e 00
        E 0 92 43 64
        E 0 93 3a 5b
        E 0 9f 2e 58
        E 358 82 43 64
        E 0 92 3f 66
        E 362 82 3f 66
        E 0 83 3a 66
        E 0 8f 2e 00
        E 0 92 41 64
        E 0 93 3a 5b
        E 0 9f 2e 57
        E 358 82 41 64
        E 0 92 3e 64
        E 361 82 3e 64
        E 0 83 3a 66
        E 0 8f 2e 00
        E 0 92 3f 66
        E 0 93 3a 5b
        E 0 9f 2e 59
        E 359 82 3f 66
        E 0 92 3c 64
        E 360 82 3c 64
        E 0 83 3a 66
        E 0 8f 2e 00
        E 0 92 3a 66
        E 0 93 3a 5b
        E 0 9f 2e 59
        E 720 82 3a 66
        E 0 83 3a 66
        E 0 8f 2e 00
        E 1 93 3a 5b
        E 0 9f 2e 52
        E 722 83 3a 66
        E 0 8f 2e 00
        E 0 92 50 66
        E 0 93 41 5a
        E 0 9f 2e 5b
        E 719 83 41 64
        E 0 8f 2e 00
        E 1 93 3e 5a
        E 2 9f 2e 56
        E 359 82 50 66
        E 0 92 4f 64
        E 196 82 4f 64
        E 2 92 4d 64
        E 158 82 4d 64
        E 5 83 3e 64
        E 0 8f 2e 00
        E 0 92 4f 64
        E 1 93 3f 5b
        E 0 9f 2e 59
        E 714 82 4f 64
        E 2 83 3f 66
        E 2 8f 2e 00
        E 0 93 3f 5b
        E 0 9f 2e 59
        E 718 83 3f 66
        E 0 8f 2e 00
        E 0 92 50 66
        E 0 93 41 5a
        E 0 9f 2e 5a
        E 719 83 41 64
        E 1 8f 2e 00
        E 0 93 3e 5a
        E 0 9f 2e 58
        E 358 82 50 66
        E 0 92 4f 64
        E 181 82 4f 64
        E 0 92 4d 64
        E 178 82 4d 64
        E 0 83 3e 64
        E 0 8f 2e 00
        E 0 92 4f 64
        E 0 93 3f 5b
        E 0 9f 2e 55
        E 540 82 4f 64
        E 0 92 52 66
        E 182 82 52 66
        E 0 83 3f 66
        E 0 8f 2e 00
        E 0 92 46 66
        E 0 93 3f 5b
        E 0 9f 2e 57
        E 541 82 46 66
        E 0 92 50 66
        E 178 82 50 66
        E 0 83 3f 66
        E 1 8f 2e 00
        E 0 92 4f 64
        E 0 93 3f 5b
        E 1 9f 2d 55
        E 719 83 3f 66
        E 0 8f 2d 00
        E 0 93 3f 5b
        E 0 9f 2d 55
        E 719 82 4f 64
        E 0 83 3f 66
        E 0 8f 2d 00
        E 0 92 4d 64
        E 0 93 3e 5a
        E 0 9f 2e 5a
        E 539 82 4d 64
        E 0 92 52 66
        E 182 82 52 66
        E 0 83 3e 64
        E 0 8f 2e 00
        E 0 92 46 66
        E 0 93 3e 5a
        E 0 9f 2e 56
        E 539 82 46 66
        E 0 92 50 66
        E 183 82 50 66
        E 0 83 3e 64
        E 0 8f 2e 00
        E 0 92 4f 64
        E 0 93 3f 5b
        E 1 9f 2d 55
        E 716 83 3f 66
        E 0 8f 2d 00
        E 0 93 3f 5b
        E 0 9f 2d 58
        E 722 82 4f 64
        E 0 83 3f 66
        E 0 8f 2d 00
        E 0 92 4d 64
        E 0 93 3e 5a
        E 0 9f 2e 5b
        E 720 83 3e 64
        E 0 8f 2e 00
        E 0 93 3e 5a
        E 0 9f 2e 5a
        E 719 82 4d 64
        E 0 83 3e 64
        E 0 8f 2e 00
        E 0 92 4d 64
        E 0 93 3c 5a
        E 0 9f 2c 56
        E 719 82 4d 64
        E 0 83 3c 64
        E 0 8f 2c 00
        E 0 92 4d 64
        E 0 93 3c 5a
        E 0 9f 2c 57
        E 180 82 4d 64
        E 0 92 4d 64
        E 179 82 4d 64
        E 0 92 4f 64
        E 182 82 4f 64
        E 0 92 50 66
        E 179 82 50 66
        E 0 83 3c 64
        E 0 8f 2c 00
        E 0 92 52 66
        E 0 93 3a 5b
        E 0 9f 2b 53
        E 360 82 52 66
        E 0 92 50 66
        E 362 82 50 66
        E 0 83 3a 66
        E 0 8f 2b 00
        E 0 92 4f 64
        E 1 93 3a 5b
        E 0 9f 2b 5a
        E 357 82 4f 64
        E 0 92 4d 64
        E 360 82 4d 64
        E 0 83 3a 66
        E 0 8f 2b 00
        E 0 92 4f 64
        E 0 93 3a 5b
        E 0 9f 2b 59
        E 360 82 4f 64
        E 0 92 4d 64
        E 360 82 4d 64
        E 0 83 3a 66
        E 0 8f 2b 00
        E 1 92 4b 66
        E 0 93 3a 5b
        E 0 9f 2b 57
        E 358 82 4b 66
        E 1 92 4a 64
        E 360 82 4a 64
        E 0 83 3a 66
        E 0 8f 2b 00
        E 1 92 4b 66
        E 0 93 3a 5b
        E 0 9f 2b 5a
        E 359 82 4b 66
        E 0 92 4a 64
        E 361 82 4a 64
        E 0 83 3a 66
        E 0 8f 2b 00
        E 0 92 48 64
        E 0 93 3a 5b
        E 0 9f 2b 5a
        E 359 82 48 64
        E 1 92 46 66
        E 362 82 46 66
        E 0 83 3a 66
        E 0 8f 2b 00
        E 1 92 44 66
        E 1 93 3c 5a
        E 0 9f 2c 5a
        E 355 82 44 66
        E 1 92 43 64
        E 359 82 43 64
        E 0 83 3c 64
        E 0 8f 2c 00
        E 0 92 41 64
        E 0 93 3c 5a
        E 0 9f 2c 59
        E 361 82 41 64
        E 0 92 3f 66
        E 360 82 3f 66
        E 0 83 3c 64
        E 0 8f 2c 00
        E 0 92 3a 66
        E 0 93 3a 5b
        E 0 9f 2e 5a
        E 720 82 3a 66
        E 0 83 3a 66
        E 0 8f 2e 00
        E 0 92 3f 66
        E 0 93 3a 5b
        E 0 9f 2b 52
        E 539 82 3f 66
        E 0 92 41 64
        E 180 82 41 64
        E 0 83 3a 66
        E 0 8f 2b 00
        E 0 92 41 64
        E 0 93 3c 5a
        E 0 9f 2c 5b
        E 722 83 3c 64
        E 0 8f 2c 00
        E 0 93 3a 5b
        E 0 9f 2e 5b
        E 720 82 41 64
        E 0 83 3a 66
        E 0 8f 2e 00
        E 0 92 3f 66
        E 0 93 37 5a
        E 0 9f 33 5e
        E 719 82 3f 66
        E 0 83 37 64
        E 1 8f 33 00
        E 0 93 3a 5b
        E 0 9f 2b 4f
        E 720 83 3a 66
        E 0 8f 2b 00
        E 0 92 52 66
        E 0 93 3a 5b
        E 0 9f 2b 57
        E 176 82 52 66
        E 0 92 50 66
        E 184 82 50 66
        E 0 92 4f 64
        E 178 82 4f 64
        E 0 92 4d 64
        E 181 82 4d 64
        E 0 83 3a 66
        E 0 8f 2b 00
        E 0 92 4f 64
        E 0 93 3a 5b
        E 0 9f 2b 57
        E 178 82 4f 64
        E 0 92 4d 64
        E 181 82 4d 64
        E 0 92 4b 66
        E 181 82 4b 66
        E 0 92 4a 64
        E 180 82 4a 64
        E 0 83 3a 66
        E 0 8f 2b 00
        E 0 92 4b 66
        E 0 93 3a 5b
        E 0 9f 2b 57
        E 180 82 4b 66
        E 0 92 4a 64
        E 178 82 4a 64
        E 0 92 48 64
        E 180 82 48 64
        E 0 92 46 66
        E 182 82 46 66
        E 0 83 3a 66
        E 0 8f 2b 00
        E 0 92 48 64
        E 0 93 43 5a
        E 0 9f 33 60
        E 178 82 48 64
        E 0 92 46 66
        E 182 82 46 66
        E 0 92 44 66
        E 180 82 44 66
        E 0 92 43 64
        E 179 82 43 64
        E 0 83 43 64
        E 0 8f 33 00
        E 0 92 44 66
        E 0 93 3f 5b
        E 0 9f 30 52
        E 180 82 44 66
        E 0 92 43 64
        E 179 82 43 64
        E 1 92 41 64
        E 180 82 41 64
        E 0 92 3f 66
        E 182 82 3f 66
        E 0 83 3f 66
        E 0 8f 30 00
        E 0 92 41 64
        E 0 93 3c 5a
        E 0 9f 2d 56
        E 178 82 41 64
        E 0 92 3f 66
        E 180 82 3f 66
        E 0 92 3e 64
        E 180 82 3e 64
        E 1 92 3c 64
        E 180 82 3c 64
        E 0 83 3c 64
        E 0 8f 2d 00
        E 0 92 3a 66
        E 0 93 35 5a
        E 0 9f 2e 5c
        E 719 82 3a 66
        E 0 83 35 64
        E 1 8f 2e 00
        E 0 92 3f 66
        E 0 93 3a 5b
        E 0 9f 2b 55
        E 539 82 3f 66
        E 0 92 41 64
        E 180 82 41 64
        E 0 83 3a 66
        E 0 8f 2b 00
        E 0 92 41 64
        E 0 93 3c 5a
        E 0 9f 2c 5a
        E 720 83 3c 64
        E 0 8f 2c 00
        E 0 93 3a 5b
        E 0 9f 2e 5f
        E 722 82 41 64
        E 0 83 3a 66
        E 0 8f 2e 00
        E 0 92 3f 66
        E 0 93 37 5a
        E 0 9f 27 4d
        E 1438 82 3f 66
        E 0 83 37 64
        E 0 8f 27 00
        E 721 92 4f 64
        E 0 93 3f 5b
        E 0 9f 30 4d
        E 721 82 4f 64
        E 0 83 3f 66
        E 0 8f 30 00
        E 0 92 4f 64
        E 0 93 3f 5b
        E 0 9f 30 52
        E 719 83 3f 66
        E 0 8f 30 00
        E 1 93 3f 5b
        E 0 9f 30 55
        E 357 82 4f 64
        E 0 92 4d 64
        E 182 82 4d 64
        E 0 92 4f 64
        E 179 82 4f 64
        E 0 83 3f 66
        E 0 8f 30 00
        E 0 92 50 66
        E 0 93 41 5a
        E 0 9f 30 58
        E 721 82 50 66
        E 0 83 41 64
        E 0 8f 30 00
        E 0 92 48 64
        E 0 93 3f 5b
        E 0 9f 30 57
        E 721 82 48 64
        E 0 83 3f 66
        E 0 8f 30 00
        E 0 92 47 64
        E 0 93 3e 5a
        E 0 9f 37 5e
        E 719 82 47 64
        E 0 83 3e 64
        E 1 8f 37 00
        E 0 92 48 64
        E 0 93 3f 5b
        E 0 9f 30 54
        E 719 82 48 64
        E 0 83 3f 66
        E 0 8f 30 00
        E 0 92 50 66
        E 0 93 3c 5a
        E 0 9f 35 5f
        E 236 92 4d 64
        E 122 82 50 66
        E 120 92 4f 64
        E 116 82 4d 64
        E 128 83 3c 64
        E 0 8f 35 00
        E 0 92 50 66
        E 0 93 41 5a
        E 0 9f 35 58
        E 115 82 4f 64
        E 120 92 4d 64
        E 121 82 50 66
        E 120 92 4a 64
        E 118 82 4d 64
        E 134 83 41 64
        E 0 8f 35 00
        E 0 92 47 64
        E 0 93 3e 5a
        E 0 9f 37 59
        E 107 82 4a 64
        E 602 82 47 64
        E 0 83 3e 64
        E 0 8f 37 00
        E 0 92 48 64
        E 0 93 3f 5b
        E 0 9f 30 4f
        E 721 82 48 64
        E 0 83 3f 66
        E 0 8f 30 00
        E 1 92 50 66
        E 0 93 3c 5a
        E 0 9f 35 5b
        E 235 92 4d 64
        E 124 82 50 66
        E 117 92 4f 64
        E 117 82 4d 64
        E 125 83 3c 64
        E 0 8f 35 00
        E 0 92 50 66
        E 0 93 41 5a
        E 0 9f 35 58
        E 117 82 4f 64
        E 120 92 4d 64
        E 125 82 50 66
        E 117 92 4a 64
        E 116 82 4d 64
        E 126 83 41 64
        E 0 8f 35 00
        E 1 92 47 64
        E 0 93 3e 5a
        E 0 9f 37 5b
        E 119 82 4a 64
        E 599 82 47 64
        E 1 83 3e 64
        E 0 8f 37 00
        E 0 92 48 64
        E 0 93 3f 5b
        E 0 9f 30 50
        E 719 82 48 64
        E 0 83 3f 66
        E 0 8f 30 00
        E 0 93 3f 5b
        E 0 9f 30 59
        E 721 83 3f 66
        E 1 8f 30 00
        E 0 92 4f 64
        E 0 93 3f 5b
        E 0 9f 30 58
        E 718 82 4f 64
        E 0 83 3f 66
        E 0 8f 30 00
        E 0 92 4f 64
        E 0 93 3c 5a
        E 0 9f 33 5b
        E 360 82 4f 64
        E 0 92 48 64
        E 360 82 48 64
        E 0 83 3c 64
        E 0 8f 33 00
        E 0 92 3f 66
        E 0 93 3c 5a
        E 0 9f 33 55
        E 361 82 3f 66
        E 0 92 48 64
        E 360 82 48 64
        E 0 83 3c 64
        E 0 8f 33 00
        E 0 92 4f 64
        E 1 93 3c 5a
        E 2 9f 33 5d
        E 722 82 4f 64
        E 0 83 3c 64
        E 0 8f 33 00
        E 1 93 3c 5a
        E 0 9f 33 58
        E 715 83 3c 64
        E 0 8f 33 00
        E 0 92 50 66
        E 0 93 3c 5a
        E 0 9f 35 5a
        E 357 82 50 66
        E 0 92 48 64
        E 362 82 48 64
        E 0 83 3c 64
        E 0 8f 35 00
        E 0 92 41 64
        E 0 93 3c 5a
        E 0 9f 35 52
        E 359 82 41 64
        E 1 92 48 64
        E 360 82 48 64
        E 0 83 3c 64
        E 0 8f 35 00
        E 0 92 50 66
        E 0 93 3c 5a
        E 0 9f 35 56
        E 720 82 50 66
        E 0 83 3c 64
        E 0 8f 35 00
        E 0 93 3c 5a
        E 0 9f 35 59
        E 720 83 3c 64
        E 0 8f 35 00
        E 0 92 51 64
        E 1 93 3e 5a
        E 0 9f 36 57
        E 357 82 51 64
        E 0 92 48 64
        E 364 82 48 64
        E 0 83 3e 64
        E 0 8f 36 00
        E 0 92 42 64
        E 0 93 3e 5a
        E 0 9f 36 59
        E 357 82 42 64
        E 0 92 48 64
        E 360 82 48 64
        E 0 83 3e 64
        E 0 8f 36 00
        E 1 92 51 64
        E 0 93 3e 5a
        E 0 9f 36 5a
        E 719 82 51 64
        E 0 83 3e 64
        E 0 8f 36 00
        E 0 93 3e 5a
        E 0 9f 36 55
        E 722 83 3e 64
        E 0 8f 36 00
        E 0 92 53 64
        E 1 93 3e 5a
        E 0 9f 37 53
        E 356 82 53 64
        E 0 92 4a 64
        E 362 82 4a 64
        E 0 83 3e 64
        E 0 8f 37 00
        E 0 92 43 64
        E 0 93 3e 5a
        E 0 9f 37 56
        E 360 82 43 64
        E 0 92 4a 64
        E 359 82 4a 64
        E 0 83 3e 64
        E 0 8f 37 00
        E 0 92 53 64
        E 0 93 3e 5a
        E 0 9f 37 5a
        E 722 82 53 64
        E 0 83 3e 64
        E 0 8f 37 00
        E 0 93 3e 5a
        E 0 9f 37 57
        E 719 83 3e 64
        E 1 8f 37 00
        E 0 92 4f 64
        E 0 93 3c 5a
        E 0 9f 33 53
        E 359 82 4f 64
        E 0 92 4f 64
        E 180 82 4f 64
        E 1 92 4d 64
        E 179 82 4d 64
        E 0 83 3c 64
        E 0 8f 33 00
        E 0 92 4b 66
        E 0 93 3c 5a
        E 0 9f 33 54
        E 360 82 4b 66
        E 0 92 4b 66
        E 180 82 4b 66
        E 1 92 4a 64
        E 178 82 4a 64
        E 0 83 3c 64
        E 0 8f 33 00
        E 0 92 48 64
        E 0 93 3c 5a
        E 0 9f 33 58
        E 360 82 48 64
        E 0 92 48 64
        E 180 82 48 64
        E 1 92 46 66
        E 180 82 46 66
        E 0 83 3c 64
        E 0 8f 33 00
        E 0 92 44 66
        E 1 93 3c 5a
        E 0 9f 33 59
        E 358 82 44 66
        E 0 92 44 66
        E 181 82 44 66
        E 0 92 43 64
        E 181 82 43 64
        E 0 83 3c 64
        E 0 8f 33 00
        E 0 92 41 64
        E 0 93 3c 5a
        E 0 9f 2c 4e
        E 357 82 41 64
        E 0 92 41 64
        E 181 82 41 64
        E 0 92 40 64
        E 181 82 40 64
        E 0 83 3c 64
        E 0 8f 2c 00
        E 0 92 41 64
        E 0 93 3c 5a
        E 0 9f 2c 59
        E 360 82 41 64
        E 0 92 41 64
        E 180 82 41 64
        E 0 92 40 64
        E 181 82 40 64
        E 3 83 3c 64
        E 0 8f 2c 00
        E 0 92 41 64
        E 0 93 3c 5a
        E 0 9f 2c 56
        E 716 83 3c 64
        E 0 8f 2c 00
        E 0 93 3c 5a
        E 0 9f 2c 5a
        E 721 82 41 64
        E 0 83 3c 64
        E 0 8f 2c 00
        E 0 92 50 66
        E 0 93 3e 5a
        E 0 9f 35 63
        E 235 92 50 66
        E 122 82 50 66
        E 120 92 4f 64
        E 116 82 50 66
        E 126 83 3e 64
        E 0 8f 35 00
        E 1 92 4d 64
        E 0 93 3e 5a
        E 0 9f 35 57
        E 116 82 4f 64
        E 120 92 4d 64
        E 123 82 4d 64
        E 118 92 4b 66
        E 118 82 4d 64
        E 124 83 3e 64
        E 0 8f 35 00
        E 0 92 4a 64
        E 0 93 3e 5a
        E 0 9f 35 58
        E 117 82 4b 66
        E 122 92 4a 64
        E 120 82 4a 64
        E 119 92 48 64
        E 117 82 4a 64
        E 125 83 3e 64
        E 0 8f 35 00
        E 0 92 47 64
        E 0 93 3e 5a
        E 0 9f 35 58
        E 117 82 48 64
        E 119 92 47 64
        E 122 82 47 64
        E 120 92 45 64
        E 118 82 47 64
        E 125 83 3e 64
        E 0 8f 35 00
        E 0 92 43 64
        E 0 93 3e 5a
        E 0 9f 37 5d
        E 115 82 45 64
        E 118 92 43 64
        E 123 82 43 64
        E 122 92 42 64
        E 115 82 43 64
        E 126 83 3e 64
        E 0 8f 37 00
        E 0 92 43 64
        E 1 93 3e 5a
        E 0 9f 37 57
        E 116 82 42 64
        E 119 92 43 64
        E 122 82 43 64
        E 120 92 42 64
        E 116 82 43 64
        E 126 83 3e 64
        E 0 8f 37 00
        E 0 92 43 64
        E 0 93 3e 5a
        E 0 9f 37 56
        E 117 82 42 64
        E 604 82 43 64
        E 0 83 3e 64
        E 0 8f 37 00
        E 0 93 3e 5a
        E 0 9f 35 56
        E 720 83 3e 64
        E 0 8f 35 00
        E 0 92 48 64
        E 0 93 43 5a
        E 0 9f 33 57
        E 358 82 48 64
        E 0 92 48 64
        E 180 82 48 64
        E 0 92 47 64
        E 180 82 47 64
        E 0 83 43 64
        E 0 8f 33 00
        E 1 92 48 64
        E 0 93 43 5a
        E 0 9f 33 56
        E 359 82 48 64
        E 0 92 48 64
        E 181 82 48 64
        E 0 92 47 64
        E 180 82 47 64
        E 0 83 43 64
        E 0 8f 33 00
        E 0 92 48 64
        E 0 93 43 5a
        E 0 9f 33 59
        E 719 82 48 64
        E 1 83 43 64
        E 0 8f 33 00
        E 0 92 4f 64
        E 0 93 43 5a
        E 0 9f 33 59
        E 720 82 4f 64
        E 0 83 43 64
        E 0 8f 33 00
        E 0 92 49 66
        E 1 93 44 5b
        E 0 9f 35 5d
        E 358 82 49 66
        E 0 92 49 66
        E 181 82 49 66
        E 0 92 48 64
        E 180 82 48 64
        E 0 83 44 66
        E 0 8f 35 00
        E 0 92 49 66
        E 0 93 44 5b
        E 0 9f 35 5b
        E 359 82 49 66
        E 0 92 49 66
        E 180 82 49 66
        E 0 92 48 64
        E 180 82 48 64
        E 0 83 44 66
        E 1 8f 35 00
        E 0 92 49 66
        E 0 93 44 5b
        E 0 9f 35 5a
        E 721 82 49 66
        E 0 83 44 66
        E 0 8f 35 00
        E 0 92 50 66
        E 0 93 44 5b
        E 0 9f 35 5b
        E 718 82 50 66
        E 0 83 44 66
        E 0 8f 35 00
        E 0 92 4c 64
        E 0 93 46 5b
        E 0 9f 37 5c
        E 361 82 4c 64
        E 0 92 52 66
        E 179 82 52 66
        E 0 92 4f 64
        E 181 82 4f 64
        E 0 83 46 66
        E 0 8f 37 00
        E 0 92 4c 64
        E 0 93 46 5b
        E 0 9f 37 58
        E 359 82 4c 64
        E 0 92 52 66
        E 179 82 52 66
        E 0 92 4f 64
        E 182 82 4f 64
        E 0 83 46 66
        E 0 8f 37 00
        E 0 92 4c 64
        E 0 93 46 5b
        E 0 9f 37 57
        E 359 82 4c 64
        E 0 92 52 66
        E 181 82 52 66
        E 0 92 4f 64
        E 180 82 4f 64
        E 0 83 46 66
        E 0 8f 37 00
        E 0 92 4c 64
        E 0 93 46 5b
        E 0 9f 37 58
        E 358 82 4c 64
        E 1 92 52 66
        E 183 82 52 66
        E 0 92 4f 64
        E 178 82 4f 64
        E 0 83 46 66
        E 0 8f 37 00
        E 0 92 50 66
        E 0 93 48 5a
        E 0 9f 35 53
        E 359 82 50 66
        E 0 92 50 66
        E 181 82 50 66
        E 0 92 4f 64
        E 180 82 4f 64
        E 1 83 48 64
        E 0 8f 35 00
        E 0 92 4d 64
        E 0 93 48 5a
        E 0 9f 35 56
        E 358 82 4d 64
        E 0 92 4d 64
        E 181 82 4d 64
        E 0 92 4b 66
        E 179 82 4b 66
        E 0 83 48 64
        E 0 8f 35 00
        E 0 92 4a 64
        E 0 93 47 5a
        E 0 9f 36 5a
        E 360 82 4a 64
        E 0 92 4a 64
        E 179 82 4a 64
        E 0 92 48 64
        E 181 82 48 64
        E 0 83 47 64
        E 1 8f 36 00
        E 0 92 47 64
        E 0 93 47 5a
        E 0 9f 36 56
        E 359 82 47 64
        E 0 92 47 64
        E 181 82 47 64
        E 0 92 45 64
        E 180 82 45 64
        E 1 83 47 64
        E 0 8f 36 00
        E 0 92 43 64
        E 0 93 3e 5a
        E 0 9f 37 5b
        E 719 83 3e 64
        E 0 8f 37 00
        E 0 93 3b 5a
        E 0 9f 37 57
        E 719 82 43 64
        E 0 83 3b 64
        E 0 8f 37 00
        E 0 93 3c 5a
        E 0 9f 39 59
        E 721 83 3c 64
        E 0 8f 39 00
        E 0 93 3e 5a
        E 0 9f 3b 5b
        E 721 83 3e 64
        E 0 8f 3b 00
        E 0 92 48 64
        E 0 93 3f 5b
        E 0 9f 3c 5c
        E 236 92 4b 66
        E 122 82 48 64
        E 119 92 4a 64
        E 119 82 4b 66
        E 123 83 3f 66
        E 0 8f 3c 00
        E 0 92 48 64
        E 0 93 3f 5b
        E 0 9f 3c 5a
        E 117 82 4a 64
        E 120 92 47 64
        E 123 82 48 64
        E 118 92 48 64
        E 117 82 47 64
        E 125 83 3f 66
        E 0 8f 3c 00
        E 0 92 48 64
        E 0 93 3e 5a
        E 0 9f 3a 53
        E 118 82 48 64
        E 117 92 4b 66
        E 123 82 48 64
        E 118 92 4a 64
        E 120 82 4b 66
        E 125 83 3e 64
        E 0 8f 3a 00
        E 0 92 48 64
        E 0 93 3e 5a
        E 0 9f 3a 51
        E 116 82 4a 64
        E 118 92 47 64
        E 123 82 48 64
        E 121 92 48 64
        E 116 82 47 64
        E 124 83 3e 64
        E 1 8f 3a 00
        E 0 92 48 64
        E 0 93 3c 5a
        E 0 9f 38 4f
        E 117 82 48 64
        E 119 92 4b 66
        E 123 82 48 64
        E 118 92 4a 64
        E 118 82 4b 66
        E 124 83 3c 64
        E 0 8f 38 00
        E 0 92 48 64
        E 0 93 3c 5a
        E 0 9f 38 59
        E 119 82 4a 64
        E 119 92 47 64
        E 122 82 48 64
        E 118 92 48 64
        E 119 82 47 64
        E 124 83 3c 64
        E 0 8f 38 00
        E 0 92 48 64
        E 0 93 3e 5a
        E 0 9f 37 50
        E 117 82 48 64
        E 119 92 4b 66
        E 123 82 48 64
        E 117 92 4a 64
        E 126 82 4b 66
        E 117 83 3e 64
        E 0 8f 37 00
        E 0 92 48 64
        E 1 93 3e 5a
        E 0 9f 36 53
        E 117 82 4a 64
        E 118 92 46 66
        E 124 82 48 64
        E 119 92 44 66
        E 117 82 46 66
        E 124 83 3e 64
        E 0 8f 36 00
        E 1 92 43 64
        E 0 93 3e 5a
        E 0 9f 37 5b
        E 116 82 44 66
        E 603 82 43 64
        E 0 83 3e 64
        E 0 8f 37 00
        E 0 92 48 64
        E 0 93 43 5a
        E 0 9f 33 51
        E 541 82 48 64
        E 0 92 4a 64
        E 183 82 4a 64
        E 1 83 43 64
        E 0 8f 33 00
        E 0 92 4a 64
        E 0 93 44 5b
        E 0 9f 35 5a
        E 716 83 44 66
        E 0 8f 35 00
        E 0 93 43 5a
        E 0 9f 37 57
        E 719 82 4a 64
        E 0 83 43 64
        E 0 8f 37 00
        E 0 92 48 64
        E 0 93 3f 5b
        E 0 9f 30 52
        E 722 83 3f 66
        E 0 8f 30 00
        E 0 93 43 5a
        E 0 9f 3f 6e
        E 719 83 43 64
        E 0 8f 3f 00
        E 0 93 43 5a
        E 1 9f 3f 5e
        E 719 83 43 64
        E 0 8f 3f 00
        E 0 93 41 5a
        E 0 9f 3e 54
        E 720 82 48 64
        E 0 83 41 64
        E 0 8f 3e 00
        E 0 92 4f 64
        E 0 93 3f 5b
        E 0 9f 3c 56
        E 236 92 4b 66
        E 124 82 4f 64
        E 117 92 4a 64
        E 117 82 4b 66
        E 126 83 3f 66
        E 0 8f 3c 00
        E 1 92 48 64
        E 0 93 3f 5b
        E 0 9f 3c 55
        E 118 82 4a 64
        E 119 92 47 64
        E 121 82 48 64
        E 118 92 48 64
        E 118 82 47 64
        E 125 83 3f 66
        E 0 8f 3c 00
        E 0 92 4f 64
        E 0 93 3e 5a
        E 0 9f 3a 59
        E 117 82 48 64
        E 118 92 4b 66
        E 124 82 4f 64
        E 119 92 4a 64
        E 118 82 4b 66
        E 123 83 3e 64
        E 0 8f 3a 00
        E 0 92 48 64
        E 0 93 3e 5a
        E 0 9f 3a 5a
        E 118 82 4a 64
        E 119 92 47 64
        E 121 82 48 64
        E 120 92 48 64
        E 117 82 47 64
        E 126 83 3e 64
        E 0 8f 3a 00
        E 0 92 4f 64
        E 0 93 3c 5a
        E 0 9f 38 54
        E 116 82 48 64
        E 121 92 4b 66
        E 123 82 4f 64
        E 118 92 4a 64
        E 116 82 4b 66
        E 126 83 3c 64
        E 0 8f 38 00
        E 0 92 48 64
        E 0 93 3c 5a
        E 0 9f 38 59
        E 118 82 4a 64
        E 119 92 47 64
        E 122 82 48 64
        E 119 92 48 64
        E 116 82 47 64
        E 128 83 3c 64
        E 1 8f 38 00
        E 0 92 4f 64
        E 0 93 3e 5a
        E 0 9f 37 55
        E 115 82 48 64
        E 124 92 4b 66
        E 117 82 4f 64
        E 120 92 4a 64
        E 116 82 4b 66
        E 126 83 3e 64
        E 0 8f 37 00
        E 0 92 48 64
        E 0 93 3e 5a
        E 0 9f 36 54
        E 116 82 4a 64
        E 120 92 47 64
        E 122 82 48 64
        E 118 92 45 64
        E 118 82 47 64
        E 126 83 3e 64
        E 0 8f 36 00
        E 0 92 43 64
        E 0 93 3f 5b
        E 0 9f 37 59
        E 115 82 45 64
        E 604 82 43 64
        E 0 83 3f 66
        E 0 8f 37 00
        E 0 92 48 64
        E 0 93 43 5a
        E 0 9f 33 53
        E 540 82 48 64
        E 0 92 4a 64
        E 183 82 4a 64
        E 0 83 43 64
        E 0 8f 33 00
        E 0 92 4a 64
        E 1 93 44 5b
        E 0 9f 35 59
        E 716 83 44 66
        E 0 8f 35 00
        E 1 93 43 5a
        E 0 9f 37 58
        E 719 8f 37 00
        E 0 82 4a 64
        E 0 83 43 64
        E 0 92 48 64
        E 0 93 3f 5b
        E 0 9f 30 5a
        E 8644 82 48 64
        E 0 83 3f 66
        E 0 8f 30 64
        E 957 92 4f 64
        E 0 93 40 5a
        E 0 9f 30 5a
        E 478 82 4f 64
        E 0 83 40 64
        E 0 8f 30 64
        E 0 92 47 64
        E 0 93 3e 5a
        E 0 9f 37 5a
        E 481 82 47 64
        E 0 83 3e 64
        E 0 8f 37 64
        E 0 92 48 64
        E 0 93 40 5a
        E 0 9f 30 5a
        E 241 8f 30 64
        E 0 9f 32 5a
        E 239 82 48 64
        E 0 83 40 64
        E 0 8f 32 64
        E 0 92 4f 64
        E 0 93 40 5a
        E 0 9f 34 5a
        E 240 8f 34 64
        E 0 9f 30 5a
        E 238 82 4f 64
        E 0 83 40 64
        E 0 8f 30 64
        E 0 92 4d 64
        E 0 93 3b 5a
        E 0 9f 2b 5a
        E 483 82 4d 64
        E 0 83 3b 64
        E 0 8f 2b 64
        E 0 92 4c 64
        E 0 93 37 5a
        E 0 9f 30 5a
        E 237 8f 30 64
        E 0 9f 32 5a
        E 241 82 4c 64
        E 0 83 37 64
        E 1 8f 32 64
        E 0 92 48 64
        E 0 93 43 5a
        E 0 9f 34 5a
        E 240 8f 34 64
        E 0 9f 35 5a
        E 240 82 48 64
        E 0 83 43 64
        E 3 8f 35 64
        E 1 92 47 64
        E 0 93 3e 5a
        E 0 9f 37 5a
        E 236 82 47 64
        E 0 92 48 64
        E 240 82 48 64
        E 0 83 3e 64
        E 0 8f 37 64
        E 0 92 4a 64
        E 0 93 3b 5a
        E 0 9f 2b 5a
        E 240 82 4a 64
        E 0 92 41 64
        E 240 82 41 64
        E 0 83 3b 64
        E 0 8f 2b 64
        E 0 92 40 64
        E 0 93 3e 5a
        E 0 9f 2f 5a
        E 241 82 40 64
        E 0 92 3e 64
        E 238 82 3e 64
        E 0 83 3e 64
        E 0 8f 2f 64
        E 0 92 40 64
        E 0 93 37 5a
        E 0 9f 30 5a
        E 240 8f 30 64
        E 0 9f 2f 5a
        E 240 82 40 64
        E 0 8f 2f 64
        E 0 92 3c 64
        E 1 9f 30 5a
        E 238 8f 30 64
        E 0 9f 32 5a
        E 246 82 3c 64
        E 0 83 37 64
        E 0 8f 32 64
        E 0 92 48 64
        E 0 93 40 5a
        E 0 9f 34 5a
        E 235 8f 34 64
        E 0 9f 30 5a
        E 243 82 48 64
        E 0 83 40 64
        E 0 8f 30 64
        E 0 92 47 64
        E 1 92 48 64
        E 1 92 4a 64
        E 1 93 41 5a
        E 0 9f 37 5a
        E 235 82 47 64
        E 0 82 48 64
        E 240 82 4a 64
        E 0 83 41 64
        E 0 8f 37 64
        E 0 92 48 64
        E 0 93 40 5a
        E 0 9f 30 5a
        E 240 8f 30 64
        E 0 9f 32 5a
        E 239 82 48 64
        E 0 83 40 64
        E 0 8f 32 64
        E 0 92 48 64
        E 0 93 40 5a
        E 1 9f 34 5a
        E 240 8f 34 64
        E 0 9f 30 5a
        E 241 82 48 64
        E 0 83 40 64
        E 0 8f 30 64
        E 0 92 47 64
        E 0 92 48 64
        E 0 92 4a 64
        E 0 93 41 5a
        E 0 9f 37 5a
        E 239 82 47 64
        E 0 82 48 64
        E 239 82 4a 64
        E 0 83 41 64
        E 0 8f 37 64
        E 0 92 48 64
        E 0 93 40 5a
        E 0 9f 30 5a
        E 241 8f 30 64
        E 0 9f 32 5a
        E 241 82 48 64
        E 0 83 40 64
        E 0 8f 32 64
        E 0 92 40 64
        E 0 93 3c 5a
        E 0 9f 34 5a
        E 239 8f 34 64
        E 0 9f 30 5a
        E 242 82 40 64
        E 0 83 3c 64
        E 0 8f 30 64
        E 0 92 3e 64
        E 0 93 3b 5a
        E 0 9f 37 5a
        E 238 82 3e 64
        E 0 92 40 64
        E 241 82 40 64
        E 0 83 3b 64
        E 0 8f 37 64
        E 0 92 41 64
        E 0 93 3e 5a
        E 0 9f 2f 5a
        E 239 82 41 64
        E 0 92 3e 64
        E 239 82 3e 64
        E 0 83 3e 64
        E 0 8f 2f 64
        E 0 92 40 64
        E 0 93 37 5a
        E 0 9f 30 5a
        E 242 82 40 64
        E 0 92 3c 64
        E 239 82 3c 64
        E 0 83 37 64
        E 0 8f 30 64
        E 0 92 37 64
        E 0 93 37 5a
        E 0 9f 2b 5a
        E 960 82 37 64
        E 0 83 37 64
        E 0 8f 2b 64
        E 0 92 4f 64
        E 0 93 48 5a
        E 480 82 4f 64
        E 1 83 48 64
        E 0 92 50 66
        E 0 93 47 5a
        E 481 82 50 66
        E 0 83 47 64
        E 0 92 4f 64
        E 0 93 48 5a
        E 239 83 48 64
        E 0 93 47 5a
        E 239 83 47 64
        E 0 93 48 5a
        E 479 82 4f 64
        E 1 83 48 64
        E 0 92 4d 64
        E 0 93 43 5a
        E 480 82 4d 64
        E 0 83 43 64
        E 0 92 4b 66
        E 1 93 48 5a
        E 239 83 48 64
        E 0 93 47 5a
        E 240 83 47 64
        E 0 93 48 5a
        E 479 82 4b 66
        E 0 83 48 64
        E 0 92 4a 64
        E 0 93 43 5a
        E 241 82 4a 64
        E 0 92 4b 66
        E 239 82 4b 66
        E 0 83 43 64
        E 0 92 4d 64
        E 0 93 37 5a
        E 479 82 4d 64
        E 0 83 37 64
        E 0 92 4f 64
        E 0 93 48 5a
        E 480 82 4f 64
        E 1 83 48 64
        E 0 92 50 66
        E 0 93 41 5a
        E 481 82 50 66
        E 0 83 41 64
        E 0 92 47 64
        E 0 93 43 5a
        E 480 82 47 64
        E 0 83 43 64
        E 0 92 48 64
        E 0 93 3c 5a
        E 483 82 48 64
        E 0 83 3c 64
        E 0 92 4a 64
        E 0 93 37 5a
        E 238 82 4a 64
        E 0 92 4b 66
        E 240 82 4b 66
        E 0 83 37 64
        E 0 92 4d 64
        E 1 93 43 5a
        E 478 82 4d 64
        E 0 83 43 64
        E 0 92 4f 64
        E 0 93 48 5a
        E 479 82 4f 64
        E 0 83 48 64
        E 0 92 50 66
        E 0 93 41 5a
        E 481 82 50 66
        E 0 83 41 64
        E 1 92 47 64
        E 0 93 43 5a
        E 479 82 47 64
        E 0 83 43 64
        E 0 92 48 64
        E 0 93 3c 5a
        E 482 82 48 64
        E 0 83 3c 64
        E 0 92 4a 64
        E 1 93 37 5a
        E 241 82 4a 64
        E 0 92 4b 66
        E 236 82 4b 66
        E 0 83 37 64
        E 0 92 4d 64
        E 0 93 43 5a
        E 480 82 4d 64
        E 0 83 43 64
        E 0 92 4b 66
        E 0 93 3c 5a
        E 479 82 4b 66
        E 0 83 3c 64
        E 0 92 4b 66
        E 1 93 43 5a
        E 479 82 4b 66
        E 1 83 43 64
        E 0 92 4a 64
        E 0 93 37 5a
        E 479 82 4a 64
        E 0 83 37 64
        E 0 92 43 64
        E 0 93 37 5a
        E 485 82 43 64
        E 0 83 37 64
        E 0 92 4f 64
        E 0 93 43 5a
        E 0 9f 37 5a
        E 236 82 4f 64
        E 0 83 43 64
        E 0 8f 37 64
        E 0 92 4e 64
        E 0 93 42 5a
        E 0 9f 36 5a
        E 240 82 4e 64
        E 0 83 42 64
        E 0 8f 36 64
        E 0 92 4c 64
        E 1 93 40 5a
        E 0 9f 34 5a
        E 239 82 4c 64
        E 0 83 40 64
        E 0 8f 34 64
        E 0 92 4a 64
        E 1 93 3e 5a
        E 0 9f 32 5a
        E 239 82 4a 64
        E 0 83 3e 64
        E 0 8f 32 64
        E 0 92 48 64
        E 0 93 3c 5a
        E 0 9f 30 5a
        E 240 82 48 64
        E 0 83 3c 64
        E 0 8f 30 64
        E 1 92 47 64
        E 0 93 3b 5a
        E 0 9f 2f 5a
        E 240 82 47 64
        E 0 83 3b 64
        E 0 8f 2f 64
        E 0 92 51 64
        E 0 93 45 5a
        E 0 9f 39 5a
        E 240 82 51 64
        E 0 83 45 64
        E 0 8f 39 64
        E 0 92 4f 64
        E 0 93 43 5a
        E 0 9f 37 5a
        E 239 82 4f 64
        E 0 83 43 64
        E 0 8f 37 64
        E 0 92 4e 64
        E 0 93 42 5a
        E 0 9f 36 5a
        E 240 82 4e 64
        E 0 83 42 64
        E 0 8f 36 64
        E 0 92 4c 64
        E 0 93 40 5a
        E 0 9f 34 5a
        E 239 82 4c 64
        E 0 83 40 64
        E 1 8f 34 64
        E 0 92 4a 64
        E 0 93 3e 5a
        E 0 9f 32 5a
        E 480 82 4a 64
        E 0 83 3e 64
        E 0 8f 32 64
        E 0 92 4f 64
        E 0 93 43 5a
        E 0 9f 37 5a
        E 479 82 4f 64
        E 0 83 43 64
        E 0 8f 37 64
        E 0 92 48 64
        E 0 93 3c 5a
        E 0 9f 30 5a
        E 480 82 48 64
        E 0 83 3c 64
        E 0 8f 30 64
        E 0 92 4a 64
        E 0 93 3e 5a
        E 1 9f 32 5a
        E 479 82 4a 64
        E 0 83 3e 64
        E 0 8f 32 64
        E 0 92 43 64
        E 0 93 37 5a
        E 0 9f 2b 5a
        E 1441 82 43 64
        E 0 83 37 64
        E 0 8f 2b 64
        E 959 92 4a 64
        E 0 93 3e 5a
        E 0 9f 37 5a
        E 480 82 4a 64
        E 0 83 3e 64
        E 0 8f 37 64
        E 0 92 47 64
        E 0 93 3e 5a
        E 0 9f 2b 5a
        E 241 82 47 64
        E 0 92 48 64
        E 239 82 48 64
        E 0 8f 2b 64
        E 0 92 4a 64
        E 0 9f 37 5a
        E 481 82 4a 64
        E 0 83 3e 64
        E 0 8f 37 64
        E 0 92 4c 64
        E 0 93 45 5a
        E 0 9f 36 5a
        E 485 82 4c 64
        E 0 83 45 64
        E 0 8f 36 64
        E 0 92 4a 64
        E 0 93 47 5a
        E 0 9f 37 5a
        E 475 82 4a 64
        E 0 83 47 64
        E 0 8f 37 64
        E 1 92 4e 64
        E 0 93 45 5a
        E 0 9f 32 5a
        E 478 82 4e 64
        E 1 83 45 64
        E 0 8f 32 64
        E 0 92 4f 64
        E 0 93 47 5a
        E 0 9f 2b 5a
        E 479 82 4f 64
        E 0 83 47 64
        E 0 8f 2b 64
        E 0 92 45 64
        E 0 93 45 5a
        E 0 9f 26 5a
        E 242 82 45 64
        E 0 92 47 64
        E 239 82 47 64
        E 0 8f 26 64
        E 0 92 48 64
        E 0 9f 32 5a
        E 481 82 48 64
        E 0 83 45 64
        E 0 8f 32 64
        E 0 92 4a 64
        E 0 93 45 5a
        E 0 9f 36 5a
        E 478 82 4a 64
        E 0 83 45 64
        E 0 8f 36 64
        E 0 92 47 64
        E 0 93 3e 5a
        E 0 9f 37 5a
        E 480 82 47 64
        E 2 83 3e 64
        E 0 8f 37 64
        E 0 92 4e 64
        E 0 93 45 5a
        E 0 9f 32 5a
        E 478 82 4e 64
        E 1 83 45 64
        E 0 8f 32 64
        E 0 92 4f 64
        E 0 93 47 5a
        E 0 9f 2b 5a
        E 480 82 4f 64
        E 0 83 47 64
        E 0 8f 2b 64
        E 0 92 45 64
        E 0 93 45 5a
        E 0 9f 26 5a
        E 240 82 45 64
        E 0 92 47 64
        E 240 82 47 64
        E 0 8f 26 64
        E 0 92 48 64
        E 0 9f 32 5a
        E 480 82 48 64
        E 0 83 45 64
        E 0 8f 32 64
        E 0 92 4a 64
        E 0 93 42 5a
        E 0 9f 36 5a
        E 484 82 4a 64
        E 0 83 42 64
        E 0 8f 36 64
        E 0 92 47 64
        E 0 93 3e 5a
        E 0 9f 37 5a
        E 235 82 47 64
        E 0 83 3e 64
        E 0 8f 37 64
        E 0 92 4a 64
        E 0 93 4a 5a
        E 0 9f 3e 5a
        E 243 82 4a 64
        E 1 83 4a 64
        E 0 8f 3e 64
        E 1 92 48 64
        E 0 93 48 5a
        E 0 9f 3c 5a
        E 235 82 48 64
        E 0 83 48 64
        E 0 8f 3c 64
        E 0 92 47 64
        E 1 93 47 5a
        E 0 9f 3b 5a
        E 241 82 47 64
        E 0 83 47 64
        E 0 8f 3b 64
        E 1 92 45 64
        E 0 93 45 5a
        E 0 9f 39 5a
        E 237 82 45 64
        E 0 83 45 64
        E 0 8f 39 64
        E 0 92 43 64
        E 1 93 43 5a
        E 0 9f 37 5a
        E 242 82 43 64
        E 0 83 43 64
        E 0 8f 37 64
        E 0 92 47 64
        E 0 93 47 5a
        E 0 9f 3b 5a
        E 238 82 47 64
        E 0 83 47 64
        E 0 8f 3b 64
        E 0 92 4a 64
        E 0 93 4a 5a
        E 0 9f 3e 5a
        E 239 82 4a 64
        E 0 83 4a 64
        E 0 8f 3e 64
        E 1 92 48 64
        E 0 93 48 5a
        E 0 9f 3c 5a
        E 240 82 48 64
        E 0 83 48 64
        E 0 8f 3c 64
        E 0 92 47 64
        E 0 93 47 5a
        E 1 9f 3b 5a
        E 238 82 47 64
        E 0 83 47 64
        E 0 8f 3b 64
        E 1 92 45 64
        E 0 93 45 5a
        E 0 9f 39 5a
        E 239 82 45 64
        E 0 83 45 64
        E 0 8f 39 64
        E 1 92 43 64
        E 0 93 43 5a
        E 0 9f 37 5a
        E 241 82 43 64
        E 0 83 43 64
        E 0 8f 37 64
        E 0 92 42 64
        E 0 93 42 5a
        E 0 9f 36 5a
        E 479 82 42 64
        E 0 83 42 64
        E 0 8f 36 64
        E 0 92 40 64
        E 0 93 40 5a
        E 0 9f 34 5a
        E 480 82 40 64
        E 0 83 40 64
        E 0 8f 34 64
        E 0 92 3e 64
        E 1 93 3e 5a
        E 0 9f 32 5a
        E 479 82 3e 64
        E 0 83 3e 64
        E 0 8f 32 64
        E 0 92 4f 64
        E 0 93 48 5a
        E 479 82 4f 64
        E 0 83 48 64
        E 0 92 50 66
        E 0 93 48 5a
        E 481 82 50 66
        E 0 83 48 64
        E 0 92 4b 66
        E 0 93 48 5a
        E 481 82 4b 66
        E 0 83 48 64
        E 0 92 4d 64
        E 0 93 48 5a
        E 479 82 4d 64
        E 0 83 48 64
        E 0 92 4f 64
        E 0 93 46 5b
        E 479 82 4f 64
        E 0 83 46 66
        E 0 92 4a 64
        E 0 93 46 5b
        E 482 82 4a 64
        E 0 83 46 66
        E 0 92 4b 66
        E 0 93 46 5b
        E 478 82 4b 66
        E 0 83 46 66
        E 0 92 4d 64
        E 0 93 44 5b
        E 481 82 4d 64
        E 0 83 44 66
        E 0 92 48 64
        E 0 93 44 5b
        E 479 82 48 64
        E 0 83 44 66
        E 0 92 47 64
        E 0 93 43 5a
        E 482 82 47 64
        E 0 83 43 64
        E 0 92 45 64
        E 0 93 37 5a
        E 240 82 45 64
        E 0 92 47 64
        E 239 82 47 64
        E 0 83 37 64
        E 0 92 43 64
        E 0 93 37 5a
        E 481 82 43 64
        E 0 83 37 64
        E 0 92 48 64
        E 0 93 48 5a
        E 0 9f 3c 5a
        E 239 82 48 64
        E 0 83 48 64
        E 0 8f 3c 64
        E 0 92 47 64
        E 0 93 47 5a
        E 0 9f 3b 5a
        E 241 82 47 64
        E 0 83 47 64
        E 0 8f 3b 64
        E 0 92 45 64
        E 0 93 45 5a
        E 0 9f 39 5a
        E 239 82 45 64
        E 0 83 45 64
        E 0 8f 39 64
        E 0 92 43 64
        E 0 93 43 5a
        E 0 9f 37 5a
        E 240 82 43 64
        E 0 83 43 64
        E 0 8f 37 64
        E 0 92 41 64
        E 0 93 41 5a
        E 0 9f 35 5a
        E 241 82 41 64
        E 0 83 41 64
        E 0 8f 35 64
        E 0 92 40 64
        E 0 93 40 5a
        E 0 9f 34 5a
        E 241 82 40 64
        E 1 83 40 64
        E 2 8f 34 64
        E 0 92 45 64
        E 0 93 45 5a
        E 0 9f 39 5a
        E 235 82 45 64
        E 0 83 45 64
        E 0 8f 39 64
        E 0 92 43 64
        E 0 93 43 5a
        E 1 9f 37 5a
        E 239 82 43 64
        E 0 83 43 64
        E 0 8f 37 64
        E 0 92 41 64
        E 0 93 41 5a
        E 0 9f 35 5a
        E 240 82 41 64
        E 0 83 41 64
        E 0 8f 35 64
        E 0 92 40 64
        E 0 93 40 5a
        E 0 9f 34 5a
        E 241 82 40 64
        E 0 83 40 64
        E 0 8f 34 64
        E 0 92 3e 64
        E 0 93 3e 5a
        E 0 9f 32 5a
        E 238 82 3e 64
        E 0 83 3e 64
        E 0 8f 32 64
        E 0 92 3c 64
        E 0 93 3c 5a
        E 0 9f 30 5a
        E 241 82 3c 64
        E 0 83 3c 64
        E 0 8f 30 64
        E 0 92 41 64
        E 0 93 41 5a
        E 0 9f 35 5a
        E 480 82 41 64
        E 0 83 41 64
        E 0 8f 35 64
        E 0 92 43 64
        E 0 93 43 5a
        E 0 9f 37 5a
        E 479 82 43 64
        E 0 83 43 64
        E 0 8f 37 64
        E 0 92 37 64
        E 0 93 37 5a
        E 0 9f 2b 5a
        E 480 82 37 64
        E 5 83 37 64
        E 0 8f 2b 64
        E 1 92 3c 64
        E 0 93 3c 5a
        E 0 9f 30 5a
        E 1435 82 3c 64
        E 0 83 3c 64
        E 0 8f 30 64
        E 1441 92 48 64
        E 479 82 48 64
        E 0 92 4c 64
        E 0 93 3c 5a
        E 0 9f 30 5a
        E 479 82 4c 64
        E 0 83 3c 64
        E 0 8f 30 64
        E 0 92 4a 64
        E 1 93 3e 5a
        E 0 9f 32 5a
        E 240 82 4a 64
        E 0 92 48 64
        E 246 82 48 64
        E 1 83 3e 64
        E 0 8f 32 64
        E 0 92 4f 64
        E 0 93 40 5a
        E 0 9f 34 5a
        E 473 82 4f 64
        E 0 83 40 64
        E 0 8f 34 64
        E 0 92 4c 64
        E 0 93 3c 5a
        E 0 9f 30 5a
        E 479 82 4c 64
        E 0 83 3c 64
        E 0 8f 30 64
        E 0 92 4a 64
        E 0 93 43 5a
        E 0 9f 37 5a
        E 482 82 4a 64
        E 0 83 43 64
        E 0 8f 37 64
        E 0 92 47 64
        E 0 93 37 5a
        E 0 9f 2b 5a
        E 479 82 47 64
        E 0 83 37 64
        E 0 8f 2b 64
        E 0 92 45 64
        E 1 93 39 5a
        E 0 9f 2d 5a
        E 479 82 45 64
        E 0 83 39 64
        E 0 8f 2d 64
        E 0 92 43 64
        E 0 93 3b 5a
        E 0 9f 2f 5a
        E 483 82 43 64
        E 0 83 3b 64
        E 1 8f 2f 64
        E 0 92 4c 64
        E 0 93 3c 5a
        E 0 9f 30 5a
        E 477 82 4c 64
        E 0 83 3c 64
        E 0 8f 30 64
        E 0 92 4a 64
        E 0 93 3e 5a
        E 0 9f 32 5a
        E 238 82 4a 64
        E 0 92 48 64
        E 239 82 48 64
        E 0 83 3e 64
        E 0 8f 32 64
        E 1 92 4f 64
        E 0 93 40 5a
        E 0 9f 34 5a
        E 482 82 4f 64
        E 0 83 40 64
        E 0 8f 34 64
        E 0 92 4c 64
        E 0 93 3c 5a
        E 0 9f 30 5a
        E 480 82 4c 64
        E 0 83 3c 64
        E 0 8f 30 64
        E 0 92 4a 64
        E 0 93 43 5a
        E 0 9f 37 5a
        E 479 82 4a 64
        E 1 83 43 64
        E 0 8f 37 64
        E 0 92 47 64
        E 0 93 37 5a
        E 0 9f 2b 5a
        E 479 82 47 64
        E 0 83 37 64
        E 0 8f 2b 64
        E 0 92 45 64
        E 0 93 39 5a
        E 0 9f 2d 5a
        E 482 82 45 64
        E 0 83 39 64
        E 0 8f 2d 64
        E 0 92 43 64
        E 0 93 3b 5a
        E 0 9f 2f 5a
        E 478 82 43 64
        E 0 83 3b 64
        E 0 8f 2f 64
        E 0 92 4f 64
        E 0 93 3c 5a
        E 0 9f 30 5a
        E 478 82 4f 64
        E 0 83 3c 64
        E 0 8f 30 64
        E 0 92 4d 64
        E 0 93 48 5a
        E 0 9f 3c 5a
        E 242 82 4d 64
        E 0 92 4c 64
        E 240 82 4c 64
        E 0 83 48 64
        E 0 8f 3c 64
        E 0 92 4d 64
        E 0 93 47 5a
        E 0 9f 3b 5a
        E 240 82 4d 64
        E 0 92 4f 64
        E 240 82 4f 64
        E 0 83 47 64
        E 0 8f 3b 64
        E 0 92 51 64
        E 1 93 43 5a
        E 0 9f 37 5a
        E 238 82 51 64
        E 0 92 53 64
        E 248 82 53 64
        E 0 83 43 64
        E 0 8f 37 64
        E 0 92 54 64
        E 0 93 40 5a
        E 0 9f 34 5a
        E 472 82 54 64
        E 1 83 40 64
        E 0 8f 34 64
        E 0 92 53 64
        E 0 93 3c 5a
        E 0 9f 30 5a
        E 240 82 53 64
        E 0 92 51 64
        E 240 82 51 64
        E 0 83 3c 64
        E 0 8f 30 64
        E 0 92 4f 64
        E 0 93 3b 5a
        E 0 9f 2f 5a
        E 480 82 4f 64
        E 0 83 3b 64
        E 0 8f 2f 64
        E 1 92 4d 64
        E 0 93 37 5a
        E 0 9f 2b 5a
        E 478 82 4d 64
        E 0 83 37 64
        E 0 8f 2b 64
        E 0 92 4c 64
        E 0 93 3c 5a
        E 0 9f 30 5a
        E 482 82 4c 64
        E 0 83 3c 64
        E 0 8f 30 64
        E 0 92 4a 64
        E 0 93 48 5a
        E 0 9f 3c 5a
        E 240 82 4a 64
        E 0 92 48 64
        E 239 82 48 64
        E 0 83 48 64
        E 0 8f 3c 64
        E 0 92 4a 64
        E 0 93 43 5a
        E 0 9f 37 5a
        E 480 82 4a 64
        E 0 83 43 64
        E 0 8f 37 64
        E 0 92 47 64
        E 0 93 37 5a
        E 1 9f 2b 5a
        E 480 82 47 64
        E 0 83 37 64
        E 0 8f 2b 64
        E 0 92 48 64
        E 0 93 30 5a
        E 0 9f 24 5a
        E 480 82 48 64
        E 0 83 30 64
        E 0 8f 24 64
        E 0 92 43 64
        E 0 93 3c 5a
        E 0 9f 30 5a
        E 478 82 43 64
        E 0 83 3c 64
        E 0 8f 30 64
        E 0 92 40 64
        E 0 93 40 5a
        E 0 9f 34 5a
        E 482 82 40 64
        E 0 83 40 64
        E 0 8f 34 64
        E 0 92 3c 64
        E 0 93 41 5a
        E 0 9f 35 5a
        E 478 82 3c 64
        E 0 83 41 64
        E 0 8f 35 64
        E 3 92 4a 64
        E 0 93 43 5a
        E 0 9f 37 5a
        E 479 82 4a 64
        E 0 83 43 64
        E 0 8f 37 64
        E 0 92 48 64
        E 0 93 41 5a
        E 0 9f 35 5a
        E 238 82 48 64
        E 0 92 47 64
        E 241 82 47 64
        E 0 83 41 64
        E 0 8f 35 64
        E 0 92 48 64
        E 0 93 40 5a
        E 0 9f 34 5a
        E 480 82 48 64
        E 0 83 40 64
        E 0 8f 34 64
        E 0 92 4a 64
        E 0 93 3e 5a
        E 0 9f 32 5a
        E 480 82 4a 64
        E 0 83 3e 64
        E 0 8f 32 64
        E 0 92 4c 64
        E 0 93 3c 5a
        E 0 9f 30 5a
        E 480 82 4c 64
        E 0 83 3c 64
        E 0 8f 30 64
        E 1 92 4a 64
        E 0 93 40 5a
        E 0 9f 34 5a
        E 239 82 4a 64
        E 0 92 48 64
        E 240 82 48 64
        E 0 83 40 64
        E 0 8f 34 64
        E 0 92 4c 64
        E 0 93 3e 5a
        E 0 9f 32 5a
        E 481 82 4c 64
        E 0 83 3e 64
        E 0 8f 32 64
        E 0 92 4e 64
        E 0 93 3c 5a
        E 0 9f 30 5a
        E 479 82 4e 64
        E 0 83 3c 64
        E 0 8f 30 64
        E 0 92 4f 64
        E 0 93 3b 5a
        E 0 9f 2f 5a
        E 478 82 4f 64
        E 1 83 3b 64
        E 0 8f 2f 64
        E 0 92 4d 64
        E 0 93 43 5a
        E 0 9f 37 5a
        E 241 82 4d 64
        E 0 92 4c 64
        E 241 82 4c 64
        E 0 83 43 64
        E 0 8f 37 64
        E 0 92 4a 64
        E 0 93 42 5a
        E 0 9f 36 5a
        E 240 82 4a 64
        E 0 92 48 64
        E 239 82 48 64
        E 0 83 42 64
        E 0 8f 36 64
        E 0 92 47 64
        E 0 93 3e 5a
        E 0 9f 32 5a
        E 241 82 47 64
        E 0 92 45 64
        E 239 82 45 64
        E 0 83 3e 64
        E 0 8f 32 64
        E 1 92 47 64
        E 0 93 43 5a
        E 1 9f 37 5a
        E 479 82 47 64
        E 0 83 43 64
        E 0 8f 37 64
        E 0 92 45 64
        E 0 93 3b 5a
        E 0 9f 2f 5a
        E 240 82 45 64
        E 0 92 43 64
        E 239 82 43 64
        E 0 83 3b 64
        E 0 8f 2f 64
        E 0 92 45 64
        E 0 93 3c 5a
        E 0 9f 30 5a
        E 480 82 45 64
        E 0 83 3c 64
        E 0 8f 30 64
        E 0 92 42 64
        E 0 93 3e 5a
        E 0 9f 32 5a
        E 482 82 42 64
        E 0 83 3e 64
        E 0 8f 32 64
        E 0 92 4f 64
        E 0 93 37 5a
        E 0 9f 2b 5a
        E 478 82 4f 64
        E 0 83 37 64
        E 0 8f 2b 64
        E 0 92 4d 64
        E 0 93 43 5a
        E 0 9f 37 5a
        E 240 82 4d 64
        E 0 92 4c 64
        E 240 82 4c 64
        E 0 83 43 64
        E 0 8f 37 64
        E 0 92 4a 64
        E 0 93 42 5a
        E 0 9f 36 5a
        E 240 82 4a 64
        E 0 92 48 64
        E 239 82 48 64
        E 0 83 42 64
        E 0 8f 36 64
        E 0 92 47 64
        E 0 93 3e 5a
        E 0 9f 32 5a
        E 241 82 47 64
        E 0 92 45 64
        E 241 82 45 64
        E 0 83 3e 64
        E 0 8f 32 64
        E 0 92 47 64
        E 0 93 43 5a
        E 0 9f 37 5a
        E 478 82 47 64
        E 0 83 43 64
        E 0 8f 37 64
        E 1 92 45 64
        E 0 93 3b 5a
        E 0 9f 2f 5a
        E 240 82 45 64
        E 0 92 43 64
        E 240 82 43 64
        E 0 83 3b 64
        E 0 8f 2f 64
        E 0 92 45 64
        E 0 93 3c 5a
        E 0 9f 30 5a
        E 480 82 45 64
        E 0 83 3c 64
        E 0 8f 30 64
        E 0 92 42 64
        E 0 93 3e 5a
        E 0 9f 32 5a
        E 480 82 42 64
        E 0 83 3e 64
        E 0 8f 32 64
        E 0 92 4f 64
        E 0 93 37 5a
        E 0 9f 2b 5a
        E 481 82 4f 64
        E 0 83 37 64
        E 0 8f 2b 64
        E 0 92 4d 64
        E 0 93 43 5a
        E 0 9f 37 5a
        E 238 82 4d 64
        E 0 92 4c 64
        E 241 82 4c 64
        E 0 83 43 64
        E 0 8f 37 64
        E 0 92 4a 64
        E 0 93 42 5a
        E 0 9f 36 5a
        E 241 82 4a 64
        E 0 92 48 64
        E 238 82 48 64
        E 1 83 42 64
        E 0 8f 36 64
        E 0 92 47 64
        E 0 93 3e 5a
        E 0 9f 32 5a
        E 241 82 47 64
        E 0 92 45 64
        E 239 82 45 64
        E 0 83 3e 64
        E 0 8f 32 64
        E 0 92 47 64
        E 1 93 43 5a
        E 0 9f 37 5a
        E 478 82 47 64
        E 0 83 43 64
        E 0 8f 37 64
        E 0 92 45 64
        E 0 93 3b 5a
        E 0 9f 2f 5a
        E 240 82 45 64
        E 1 92 43 64
        E 239 82 43 64
        E 0 83 3b 64
        E 0 8f 2f 64
        E 1 92 45 64
        E 0 93 3c 5a
        E 0 9f 30 5a
        E 480 82 45 64
        E 0 83 3c 64
        E 0 8f 30 64
        E 0 92 42 64
        E 0 93 3e 5a
        E 0 9f 32 5a
        E 480 82 42 64
        E 0 83 3e 64
        E 0 8f 32 64
        E 0 92 43 64
        E 0 93 37 5a
        E 0 9f 2b 5a
        E 1440 82 43 64
        E 0 83 37 64
        E 0 8f 2b 64
        E 1918 92 4f 64
        E 483 82 4f 64
        E 0 92 53 64
        E 0 93 37 5a
        E 0 9f 2b 5a
        E 480 82 53 64
        E 0 83 37 64
        E 0 8f 2b 64
        E 0 92 51 64
        E 0 93 43 5a
        E 0 9f 37 5a
        E 239 82 51 64
        E 0 92 4f 64
        E 240 82 4f 64
        E 0 83 43 64
        E 0 8f 37 64
        E 0 92 51 64
        E 0 93 4a 5a
        E 0 9f 3e 5a
        E 481 82 51 64
        E 0 83 4a 64
        E 0 8f 3e 64
        E 0 92 4e 64
        E 0 93 3e 5a
        E 0 9f 32 5a
        E 479 82 4e 64
        E 0 83 3e 64
        E 0 8f 32 64
        E 0 92 4f 64
        E 0 93 37 5a
        E 1 9f 2b 5a
        E 477 82 4f 64
        E 0 83 37 64
        E 0 8f 2b 64
        E 0 92 4a 64
        E 0 93 47 5a
        E 0 9f 3b 5a
        E 482 82 4a 64
        E 0 83 47 64
        E 0 8f 3b 64
        E 0 92 48 64
        E 0 93 45 5a
        E 0 9f 39 5a
        E 479 82 48 64
        E 0 83 45 64
        E 0 8f 39 64
        E 0 92 47 64
        E 0 93 43 5a
        E 0 9f 37 5a
        E 481 82 47 64
        E 0 83 43 64
        E 0 8f 37 64
        E 0 92 53 64
        E 0 93 37 5a
        E 0 9f 2b 5a
        E 480 82 53 64
        E 0 83 37 64
        E 0 8f 2b 64
        E 0 92 51 64
        E 0 93 43 5a
        E 0 9f 37 5a
        E 240 82 51 64
        E 0 92 4f 64
        E 241 82 4f 64
        E 0 83 43 64
        E 0 8f 37 64
        E 0 92 51 64
        E 0 93 4a 5a
        E 0 9f 3e 5a
        E 479 82 51 64
        E 0 83 4a 64
        E 0 8f 3e 64
        E 0 92 4e 64
        E 1 93 3e 5a
        E 0 9f 32 5a
        E 478 82 4e 64
        E 0 83 3e 64
        E 0 8f 32 64
        E 0 92 4f 64
        E 0 93 37 5a
        E 0 9f 2b 5a
        E 481 82 4f 64
        E 0 83 37 64
        E 0 8f 2b 64
        E 0 92 4a 64
        E 0 93 47 5a
        E 0 9f 3b 5a
        E 481 82 4a 64
        E 0 83 47 64
        E 0 8f 3b 64
        E 0 92 48 64
        E 0 93 45 5a
        E 0 9f 39 5a
        E 479 82 48 64
        E 0 83 45 64
        E 0 8f 39 64
        E 0 92 47 64
        E 0 93 43 5a
        E 0 9f 37 5a
        E 479 82 47 64
        E 0 83 43 64
        E 1 8f 37 64
        E 0 92 4c 64
        E 0 93 3c 5a
        E 0 9f 30 5a
        E 479 82 4c 64
        E 0 83 3c 64
        E 0 8f 30 64
        E 1 92 4a 64
        E 0 93 3e 5a
        E 0 9f 32 5a
        E 241 82 4a 64
        E 0 92 48 64
        E 240 82 48 64
        E 0 83 3e 64
        E 0 8f 32 64
        E 0 92 4f 64
        E 0 93 40 5a
        E 0 9f 34 5a
        E 480 82 4f 64
        E 0 83 40 64
        E 0 8f 34 64
        E 0 92 4c 64
        E 0 93 3c 5a
        E 0 9f 30 5a
        E 478 82 4c 64
        E 0 83 3c 64
        E 0 8f 30 64
        E 0 92 4a 64
        E 0 93 43 5a
        E 0 9f 37 5a
        E 481 82 4a 64
        E 0 83 43 64
        E 0 8f 37 64
        E 0 92 47 64
        E 0 93 37 5a
        E 0 9f 2b 5a
        E 480 82 47 64
        E 0 83 37 64
        E 0 8f 2b 64
        E 0 92 45 64
        E 0 93 39 5a
        E 0 9f 2d 5a
        E 480 82 45 64
        E 0 83 39 64
        E 0 8f 2d 64
        E 0 92 43 64
        E 0 93 3b 5a
        E 0 9f 2f 5a
        E 480 82 43 64
        E 0 83 3b 64
        E 0 8f 2f 64
        E 1 92 4c 64
        E 0 93 3c 5a
        E 0 9f 30 5a
        E 478 82 4c 64
        E 0 83 3c 64
        E 0 8f 30 64
        E 0 92 4a 64
        E 0 93 3e 5a
        E 0 9f 32 5a
        E 241 82 4a 64
        E 0 92 48 64
        E 240 82 48 64
        E 0 83 3e 64
        E 0 8f 32 64
        E 0 92 4f 64
        E 0 93 40 5a
        E 0 9f 34 5a
        E 480 82 4f 64
        E 0 83 40 64
        E 0 8f 34 64
        E 1 92 4c 64
        E 0 93 3c 5a
        E 0 9f 30 5a
        E 479 82 4c 64
        E 0 83 3c 64
        E 0 8f 30 64
        E 0 92 4a 64
        E 1 93 43 5a
        E 0 9f 37 5a
        E 480 83 43 64
        E 0 8f 37 64
        E 0 93 41 5a
        E 0 9f 35 5a
        E 479 82 4a 64
        E 0 83 41 64
        E 0 8f 35 64
        E 0 93 3f 5b
        E 0 9f 33 5b
        E 481 83 3f 66
        E 0 8f 33 66
        E 0 92 43 64
        E 0 93 3e 5a
        E 0 9f 32 5a
        E 478 82 43 64
        E 0 83 3e 64
        E 0 8f 32 64
        E 0 92 4b 66
        E 1 93 3c 5a
        E 0 9f 30 5a
        E 480 82 4b 66
        E 0 83 3c 64
        E 0 8f 30 64
        E 0 92 4a 64
        E 0 93 48 5a
        E 0 9f 3c 5a
        E 239 82 4a 64
        E 0 92 48 64
        E 240 82 48 64
        E 1 83 48 64
        E 0 8f 3c 64
        E 0 92 4a 64
        E 0 93 43 5a
        E 0 9f 37 5a
        E 479 82 4a 64
        E 1 83 43 64
        E 0 8f 37 64
        E 0 92 47 64
        E 0 93 37 5a
        E 0 9f 2b 5a
        E 480 82 47 64
        E 1 83 37 64
        E 0 8f 2b 64
        E 0 92 48 64
        E 0 93 3c 5a
        E 0 9f 30 5a
        E 240 82 48 64
        E 0 92 4a 64
        E 240 82 4a 64
        E 0 83 3c 64
        E 0 8f 30 64
        E 0 92 4b 66
        E 0 93 3e 5a
        E 0 9f 32 5a
        E 240 82 4b 66
        E 0 92 4d 64
        E 239 82 4d 64
        E 0 83 3e 64
        E 0 8f 32 64
        E 1 92 4f 64
        E 0 93 3f 5b
        E 0 9f 33 5b
        E 479 82 4f 64
        E 0 83 3f 66
        E 0 8f 33 66
        E 0 92 48 64
        E 0 93 3c 5a
        E 1 9f 30 5a
        E 479 82 48 64
        E 0 83 3c 64
        E 0 8f 30 64
        E 0 92 4b 66
        E 1 93 3c 5a
        E 0 9f 30 5a
        E 478 82 4b 66
        E 0 83 3c 64
        E 0 8f 30 64
        E 1 92 4a 64
        E 0 93 48 5a
        E 0 9f 3c 5a
        E 240 82 4a 64
        E 1 92 48 64
        E 238 82 48 64
        E 0 83 48 64
        E 0 8f 3c 64
        E 0 92 4a 64
        E 0 93 43 5a
        E 0 9f 37 5a
        E 480 82 4a 64
        E 0 83 43 64
        E 1 8f 37 64
        E 0 92 47 64
        E 0 93 37 5a
        E 0 9f 2b 5a
        E 480 82 47 64
        E 0 83 37 64
        E 0 8f 2b 64
        E 1 92 48 64
        E 0 93 3c 5a
        E 0 9f 30 5a
        E 239 82 48 64
        E 0 92 4a 64
        E 241 82 4a 64
        E 0 83 3c 64
        E 0 8f 30 64
        E 0 92 4b 66
        E 0 93 48 5a
        E 0 9f 3c 5a
        E 238 82 4b 66
        E 0 92 4d 64
        E 241 82 4d 64
        E 0 83 48 64
        E 0 8f 3c 64
        E 0 92 4f 64
        E 0 93 47 5a
        E 0 9f 3b 5a
        E 479 82 4f 64
        E 0 83 47 64
        E 0 8f 3b 64
        E 0 92 4d 64
        E 1 93 43 5a
        E 0 9f 37 5a
        E 479 82 4d 64
        E 0 83 43 64
        E 0 8f 37 64
        E 0 92 4c 64
        E 0 93 3c 5a
        E 0 9f 30 5a
        E 479 82 4c 64
        E 0 83 3c 64
        E 0 8f 30 64
        E 0 92 4a 64
        E 0 93 3e 5a
        E 1 9f 32 5a
        E 241 82 4a 64
        E 0 92 48 64
        E 241 82 48 64
        E 0 83 3e 64
        E 0 8f 32 64
        E 0 92 4f 64
        E 0 93 40 5a
        E 0 9f 34 5a
        E 479 82 4f 64
        E 0 83 40 64
        E 0 8f 34 64
        E 0 92 4d 64
        E 0 93 3e 5a
        E 0 9f 32 5a
        E 239 82 4d 64
        E 1 92 4c 64
        E 239 82 4c 64
        E 0 83 3e 64
        E 0 8f 32 64
        E 0 92 54 64
        E 0 93 3c 5a
        E 1 9f 30 5a
        E 481 82 54 64
        E 0 83 3c 64
        E 0 8f 30 64
        E 0 92 53 64
        E 0 93 48 5a
        E 0 9f 3c 5a
        E 240 82 53 64
        E 0 92 51 64
        E 244 82 51 64
        E 0 83 48 64
        E 1 8f 3c 64
        E 21 92 4f 64
        E 0 93 47 5a
        E 0 9f 3b 5a
        E 214 82 4f 64
        E 0 92 4d 64
        E 238 82 4d 64
        E 0 83 47 64
        E 0 8f 3b 64
        E 0 92 4c 64
        E 0 93 43 5a
        E 0 9f 37 5a
        E 242 82 4c 64
        E 0 92 4a 64
        E 239 82 4a 64
        E 0 83 43 64
        E 0 8f 37 64
        E 0 92 4c 64
        E 0 93 48 5a
        E 0 9f 3c 5a
        E 479 82 4c 64
        E 0 83 48 64
        E 0 8f 3c 64
        E 0 92 4a 64
        E 0 93 40 5a
        E 0 9f 34 5a
        E 242 82 4a 64
        E 0 92 48 64
        E 239 82 48 64
        E 0 83 40 64
        E 0 8f 34 64
        E 1 92 4a 64
        E 0 93 41 5a
        E 0 9f 35 5a
        E 481 82 4a 64
        E 0 83 41 64
        E 0 8f 35 64
        E 0 92 47 64
        E 1 93 43 5a
        E 0 9f 37 5a
        E 478 82 47 64
        E 0 83 43 64
        E 0 8f 37 64
        E 0 92 48 64
        E 0 93 3c 5a
        E 0 9f 30 5a
        E 478 82 48 64
        E 0 83 3c 64
        E 0 8f 30 64
        E 0 92 47 64
        E 0 93 3c 5a
        E 0 9f 30 5a
        E 242 82 47 64
        E 0 92 45 64
        E 241 82 45 64
        E 3 83 3c 64
        E 0 8f 30 64
        E 0 92 43 64
        E 0 93 3b 5a
        E 0 9f 2f 5a
        E 235 82 43 64
        E 0 92 41 64
        E 239 82 41 64
        E 0 83 3b 64
        E 0 8f 2f 64
        E 0 92 40 64
        E 1 93 37 5a
        E 0 9f 2b 5a
        E 239 82 40 64
        E 0 92 3e 64
        E 261 82 3e 64
        E 1 83 37 64
        E 0 8f 2b 64
        E 0 92 40 64
        E 0 93 3c 5a
        E 0 9f 30 5a
        E 460 82 40 64
        E 0 83 3c 64
        E 0 8f 30 64
        E 0 92 3e 64
        E 1 93 34 5a
        E 0 9f 28 5a
        E 238 82 3e 64
        E 0 92 3c 64
        E 239 82 3c 64
        E 0 83 34 64
        E 0 8f 28 64
        E 3 92 3e 64
        E 1 93 35 5a
        E 4 9f 29 5a
        E 474 82 3e 64
        E 0 83 35 64
        E 0 8f 29 64
        E 0 92 3b 64
        E 0 93 37 5a
        E 0 9f 2b 5a
        E 478 82 3b 64
        E 0 83 37 64
        E 0 8f 2b 64
        E 0 92 3c 64
        E 0 93 30 5a
        E 0 9f 24 5a
        E 1921 82 3c 64
        E 0 83 30 64
        E 0 8f 24 64
        E 0 96 47 64
        E 1 9d 47 64
        E 0 9f 34 5a
        E 479 86 47 64
        E 0 8d 47 64
        E 0 96 47 64
        E 0 9d 47 64
        E 241 86 47 64
        E 0 8d 47 64
        E 1 96 47 64
        E 0 9d 47 64
        E 238 86 47 64
        E 0 8d 47 64
        E 0 96 45 64
        E 0 9d 45 64
        E 480 86 45 64
        E 0 8d 45 64
        E 0 96 47 64
        E 0 9d 47 64
        E 481 86 47 64
        E 0 8d 47 64
        E 0 96 43 64
        E 0 9d 43 64
        E 479 86 43 64
        E 0 8d 43 64
        E 0 96 43 64
        E 0 9d 43 64
        E 482 86 43 64
        E 0 8d 43 64
        E 961 8f 34 64
        E 0 96 48 64
        E 1 9d 48 64
        E 0 9f 2d 5a
        E 476 86 48 64
        E 0 8d 48 64
        E 0 96 48 64
        E 0 9d 48 64
        E 480 86 48 64
        E 0 8d 48 64
        E 0 96 45 64
        E 0 9d 45 64
        E 480 86 45 64
        E 0 8d 45 64
        E 0 96 45 64
        E 0 9d 45 64
        E 241 86 45 64
        E 0 8d 45 64
        E 0 96 43 64
        E 0 9d 43 64
        E 241 86 43 64
        E 0 8d 43 64
        E 0 8f 2d 64
        E 0 96 40 64
        E 0 9d 40 64
        E 0 9f 2f 5a
        E 957 86 40 64
        E 0 8d 40 64
        E 0 8f 2f 64
        E 0 9f 34 5a
        E 961 8f 34 64
        E 0 98 37 64
        E 0 9d 43 64
        E 0 9f 34 5a
        E 480 88 37 64
        E 0 8d 43 64
        E 0 98 37 64
        E 0 9d 43 64
        E 481 88 37 64
        E 0 8d 43 64
        E 0 98 37 64
        E 0 9d 43 64
        E 479 88 37 64
        E 0 8d 43 64
        E 0 98 3b 64
        E 1 9d 47 64
        E 480 88 3b 64
        E 0 8d 47 64
        E 0 98 34 64
        E 0 9d 40 64
        E 478 88 34 64
        E 0 8d 40 64
        E 0 98 34 64
        E 0 9d 40 64
        E 482 88 34 64
        E 0 8d 40 64
        E 478 98 3b 64
        E 1 9d 47 64
        E 480 88 3b 64
        E 0 8d 47 64
        E 0 8f 34 64
        E 0 98 37 64
        E 0 9d 43 64
        E 0 9f 34 5a
        E 480 88 37 64
        E 0 8d 43 64
        E 0 98 37 64
        E 0 9d 43 64
        E 480 88 37 64
        E 0 8d 43 64
        E 0 98 37 64
        E 0 9d 43 64
        E 479 88 37 64
        E 0 8d 43 64
        E 0 98 36 64
        E 0 9d 42 64
        E 482 88 36 64
        E 0 8d 42 64
        E 0 8f 34 64
        E 0 98 36 64
        E 0 9d 42 64
        E 0 9f 2e 5a
        E 479 88 36 64
        E 0 8d 42 64
        E 0 98 36 64
        E 0 9d 42 64
        E 480 88 36 64
        E 0 8d 42 64
        E 964 8f 2e 64
        E 1 98 36 64
        E 0 9d 42 64
        E 0 9f 2e 5a
        E 475 88 36 64
        E 0 8d 42 64
        E 0 98 36 64
        E 0 9d 42 64
        E 480 88 36 64
        E 0 8d 42 64
        E 0 98 36 64
        E 0 9d 42 64
        E 481 88 36 64
        E 0 8d 42 64
        E 0 98 36 64
        E 0 9d 42 64
        E 239 88 36 64
        E 0 8d 42 64
        E 0 98 38 64
        E 0 9d 44 64
        E 241 88 38 64
        E 0 8d 44 64
        E 0 8f 2e 64
        E 1 98 34 64
        E 0 9d 45 64
        E 0 9f 29 5a
        E 477 88 34 64
        E 0 8d 45 64
        E 0 98 34 64
        E 0 9d 45 64
        E 480 88 34 64
        E 1 8d 45 64
        E 961 8f 29 64
        E 0 98 3a 64
        E 0 9d 49 64
        E 0 9f 29 5a
        E 479 88 3a 64
        E 0 8d 49 64
        E 0 98 3a 64
        E 0 9d 49 64
        E 238 88 3a 64
        E 0 8d 49 64
        E 1 98 3a 64
        E 0 9d 49 64
        E 242 88 3a 64
        E 0 8d 49 64
        E 0 98 3a 64
        E 0 9d 49 64
        E 480 88 3a 64
        E 0 8d 49 64
        E 0 98 3b 64
        E 0 9d 4a 64
        E 480 88 3b 64
        E 0 8d 4a 64
        E 0 8f 29 64
        E 0 98 36 64
        E 0 9d 47 64
        E 0 9f 32 5a
        E 478 88 36 64
        E 0 8d 47 64
        E 0 98 36 64
        E 0 9d 47 64
        E 482 88 36 64
        E 0 8d 47 64
        E 240 96 47 64
        E 0 9d 47 64
        E 238 86 47 64
        E 0 8d 47 64
        E 1 96 47 64
        E 0 9d 47 64
        E 241 86 47 64
        E 0 8d 47 64
        E 0 96 47 64
        E 0 9d 47 64
        E 241 86 47 64
        E 0 8d 47 64
        E 0 8f 32 64
        E 0 96 43 64
        E 0 9d 43 64
        E 0 9f 34 5a
        E 477 86 43 64
        E 1 8d 43 64
        E 0 96 43 64
        E 0 9d 43 64
        E 480 86 43 64
        E 0 8d 43 64
        E 479 96 40 64
        E 0 9d 40 64
        E 240 86 40 64
        E 0 8d 40 64
        E 0 96 40 64
        E 1 9d 40 64
        E 241 86 40 64
        E 0 8d 40 64
        E 0 8f 34 64
        E 0 96 45 64
        E 0 9d 45 64
        E 1 9f 30 5a
        E 958 86 45 64
        E 0 8d 45 64
        E 1 96 45 64
        E 0 9d 45 64
        E 480 86 45 64
        E 0 8d 45 64
        E 0 96 40 64
        E 0 9d 40 64
        E 479 86 40 64
        E 0 8d 40 64
        E 0 8f 30 64
        E 0 96 42 64
        E 0 9d 42 64
        E 0 9f 2f 5a
        E 961 86 42 64
        E 0 8d 42 64
        E 239 96 47 64
        E 1 9d 47 64
        E 239 86 47 64
        E 0 8d 47 64
        E 0 96 47 64
        E 1 9d 47 64
        E 239 86 47 64
        E 0 8d 47 64
        E 0 96 47 64
        E 0 9d 47 64
        E 244 86 47 64
        E 0 8d 47 64
        E 1 96 42 64
        E 0 9d 42 64
        E 475 86 42 64
        E 0 8d 42 64
        E 0 96 42 64
        E 0 9d 42 64
        E 481 86 42 64
        E 0 8d 42 64
        E 478 96 48 64
        E 0 9d 48 64
        E 481 86 48 64
        E 0 8d 48 64
        E 0 8f 2f 64
        E 0 96 45 64
        E 0 9d 45 64
        E 0 9f 2f 5a
        E 480 86 45 64
        E 0 8d 45 64
        E 0 96 45 64
        E 1 9d 45 64
        E 479 86 45 64
        E 0 8d 45 64
        E 0 96 45 64
        E 0 9d 45 64
        E 480 86 45 64
        E 0 8d 45 64
        E 0 96 47 64
        E 0 9d 47 64
        E 479 86 47 64
        E 0 8d 47 64
        E 0 8f 2f 64
        E 1 96 44 64
        E 0 9d 44 64
        E 0 9f 32 5a
        E 479 86 44 64
        E 0 8d 44 64
        E 0 96 44 64
        E 0 9d 44 64
        E 483 86 44 64
        E 0 8d 44 64
        E 478 96 40 64
        E 0 9d 40 64
        E 241 86 40 64
        E 0 8d 40 64
        E 0 96 40 64
        E 0 9d 40 64
        E 239 86 40 64
        E 0 8d 40 64
        E 0 8f 32 64
        E 0 96 47 64
        E 0 9d 47 64
        E 0 9f 32 5a
        E 959 86 47 64
        E 0 8d 47 64
        E 0 96 47 64
        E 0 9d 47 64
        E 481 86 47 64
        E 0 8d 47 64
        E 0 96 48 64
        E 0 9d 48 64
        E 479 86 48 64
        E 0 8d 48 64
        E 0 8f 32 64
        E 0 96 45 64
        E 0 9d 45 64
        E 0 9f 30 5a
        E 480 86 45 64
        E 0 8d 45 64
        E 1 96 45 64
        E 0 9d 45 64
        E 481 86 45 64
        E 0 8d 45 64
        E 478 96 45 64
        E 0 9d 45 64
        E 481 86 45 64
        E 0 8d 45 64
        E 0 8f 30 64
        E 0 96 40 64
        E 0 9d 40 64
        E 0 9f 30 5a
        E 960 86 40 64
        E 0 8d 40 64
        E 481 96 45 64
        E 0 9d 45 64
        E 478 86 45 64
        E 0 8d 45 64
        E 0 8f 30 64
        E 0 96 41 64
        E 0 9d 41 64
        E 1 9f 32 5a
        E 481 86 41 64
        E 0 8d 41 64
        E 0 96 41 64
        E 0 9d 41 64
        E 479 86 41 64
        E 0 8d 41 64
        E 479 96 45 64
        E 0 9d 45 64
        E 241 86 45 64
        E 0 8d 45 64
        E 0 96 45 64
        E 0 9d 45 64
        E 241 8f 32 64
        E 0 86 45 64
        E 0 8d 45 64
        E 0 9f 32 5a
        E 0 96 4a 64
        E 0 9d 4a 64
        E 961 86 4a 64
        E 0 8d 4a 64
        E 0 96 4a 64
        E 0 9d 4a 64
        E 478 86 4a 64
        E 0 8d 4a 64
        E 1 96 48 64
        E 0 9d 48 64
        E 483 8f 32 64
        E 0 86 48 64
        E 0 8d 48 64
        E 0 9f 34 5a
        E 0 96 45 64
        E 0 9d 45 64
        E 476 86 45 64
        E 0 8d 45 64
        E 0 96 45 64
        E 1 9d 45 64
        E 480 8f 34 64
        E 0 86 45 64
        E 0 8d 45 64
        E 1 9f 2d 5a
        E 239 98 39 64
        E 0 9d 45 64
        E 239 88 39 64
        E 0 8d 45 64
        E 0 98 39 64
        E 1 9d 45 64
        E 239 88 39 64
        E 0 8d 45 64
        E 0 98 37 64
        E 1 9d 43 64
        E 239 88 37 64
        E 0 8d 43 64
        E 0 8f 2d 64
        E 0 98 37 64
        E 0 9d 43 64
        E 0 9f 2f 5a
        E 481 88 37 64
        E 0 8d 43 64
        E 0 98 37 64
        E 0 9d 43 64
        E 482 88 37 64
        E 0 8d 43 64
        E 477 98 37 64
        E 0 9d 43 64
        E 241 88 37 64
        E 0 8d 43 64
        E 0 98 37 64
        E 0 9d 43 64
        E 238 88 37 64
        E 0 8d 43 64
        E 0 98 3b 64
        E 0 9d 47 64
        E 962 88 3b 64
        E 1 8d 47 64
        E 0 98 3b 64
        E 0 9d 47 64
        E 479 88 3b 64
        E 0 8d 47 64
        E 0 98 3c 64
        E 0 9d 48 64
        E 483 88 3c 64
        E 0 8d 48 64
        E 0 8f 2f 64
        E 1 98 37 64
        E 0 9d 43 64
        E 0 9f 30 5a
        E 957 88 37 64
        E 0 8d 43 64
        E 958 98 34 64
        E 0 9d 4c 64
        E 960 88 34 64
        E 0 8d 4c 64
        E 0 98 34 64
        E 0 9d 4c 64
        E 480 88 34 64
        E 0 8d 4c 64
        E 0 98 35 64
        E 0 9d 4c 64
        E 480 88 35 64
        E 0 8d 4c 64
        E 0 8f 30 64
        E 0 98 37 64
        E 0 9d 48 64
        E 1 9f 30 5a
        E 479 88 37 64
        E 0 8d 48 64
        E 0 98 37 64
        E 0 9d 48 64
        E 479 88 37 64
        E 0 8d 48 64
        E 963 98 37 64
        E 0 9d 48 64
        E 478 88 37 64
        E 0 8d 48 64
        E 0 98 37 64
        E 1 9d 48 64
        E 479 88 37 64
        E 0 8d 48 64
        E 0 98 37 64
        E 0 9d 48 64
        E 480 88 37 64
        E 0 8d 48 64
        E 1 98 37 64
        E 0 9d 48 64
        E 240 88 37 64
        E 0 8d 48 64
        E 0 98 39 64
        E 0 9d 4a 64
        E 240 88 39 64
        E 1 8d 4a 64
        E 0 8f 30 64
        E 0 98 3a 66
        E 0 9d 46 66
        E 0 9f 30 5a
        E 479 88 3a 66
        E 0 8d 46 66
        E 0 98 3a 66
        E 0 9d 46 66
        E 482 88 3a 66
        E 0 8d 46 66
        E 957 98 3a 66
        E 1 9d 46 66
        E 477 88 3a 66
        E 0 8d 46 66
        E 1 98 3a 66
        E 0 9d 46 66
        E 241 88 3a 66
        E 0 8d 46 66
        E 0 98 3a 66
        E 0 9d 46 66
        E 241 88 3a 66
        E 0 8d 46 66
        E 0 98 3a 66
        E 1 9d 46 66
        E 478 88 3a 66
        E 0 8d 46 66
        E 0 98 39 64
        E 0 9d 45 64
        E 480 88 39 64
        E 1 8d 45 64
        E 2 8f 30 64
        E 2 98 39 64
        E 0 9d 45 64
        E 0 9f 31 5a
        E 475 88 39 64
        E 0 8d 45 64
        E 0 98 39 64
        E 0 9d 45 64
        E 481 88 39 64
        E 0 8d 45 64
        E 479 98 34 64
        E 0 9d 45 64
        E 480 88 34 64
        E 0 8d 45 64
        E 0 98 37 64
        E 0 9d 49 64
        E 481 88 37 64
        E 0 8d 49 64
        E 0 98 37 64
        E 0 9d 49 64
        E 481 88 37 64
        E 0 8d 49 64
        E 0 98 37 64
        E 0 9d 49 64
        E 478 88 37 64
        E 0 8d 49 64
        E 0 98 35 64
        E 0 9d 4a 64
        E 478 88 35 64
        E 0 8d 4a 64
        E 0 8f 31 64
        E 1 98 32 64
        E 0 9d 45 64
        E 0 9f 32 5a
        E 960 88 32 64
        E 2 8d 45 64
        E 959 98 39 64
        E 0 9d 45 64
        E 958 88 39 64
        E 0 8d 45 64
        E 0 98 39 64
        E 0 9d 45 64
        E 482 88 39 64
        E 0 8d 45 64
        E 4 98 39 64
        E 0 9d 45 64
        E 475 88 39 64
        E 0 8d 45 64
        E 0 8f 32 64
        E 0 98 36 64
        E 0 9d 42 64
        E 0 9f 33 5a
        E 481 88 36 64
        E 0 8d 42 64
        E 0 98 36 64
        E 1 9d 42 64
        E 480 88 36 64
        E 0 8d 42 64
        E 478 98 3c 64
        E 0 9d 48 64
        E 480 88 3c 64
        E 0 8d 48 64
        E 0 98 39 64
        E 0 9d 45 64
        E 481 88 39 64
        E 0 8d 45 64
        E 0 98 39 64
        E 1 9d 45 64
        E 479 88 39 64
        E 0 8d 45 64
        E 1 98 39 64
        E 0 9d 45 64
        E 479 88 39 64
        E 1 8d 45 64
        E 0 98 37 64
        E 0 9d 43 64
        E 478 88 37 64
        E 0 8d 43 64
        E 1 8f 33 64
        E 0 98 34 64
        E 1 9d 40 64
        E 0 9f 34 5a
        E 959 88 34 64
        E 0 8d 40 64
        E 480 98 3b 64
        E 0 9d 47 64
        E 479 88 3b 64
        E 0 8d 47 64
        E 0 98 3b 64
        E 1 9d 47 64
        E 479 88 3b 64
        E 1 8d 47 64
        E 0 98 3b 64
        E 0 9d 47 64
        E 479 88 3b 64
        E 0 8d 47 64
        E 0 98 39 64
        E 0 9d 45 64
        E 481 88 39 64
        E 0 8d 45 64
        E 1 98 3b 64
        E 0 9d 47 64
        E 477 88 3b 64
        E 0 8d 47 64
        E 0 8f 34 64
        E 0 98 34 64
        E 1 9d 43 64
        E 0 9f 34 5a
        E 960 88 34 64
        E 0 8d 43 64
        E 241 98 34 64
        E 0 9d 4c 64
        E 241 88 34 64
        E 0 8d 4c 64
        E 0 98 34 64
        E 0 9d 4c 64
        E 238 88 34 64
        E 0 8d 4c 64
        E 0 98 36 64
        E 0 9d 4c 64
        E 240 88 36 64
        E 1 8d 4c 64
        E 0 98 37 64
        E 0 9d 47 64
        E 479 88 37 64
        E 0 8d 47 64
        E 0 98 37 64
        E 0 9d 47 64
        E 484 88 37 64
        E 0 8d 47 64
        E 956 8f 34 64
        E 1 98 37 64
        E 0 9d 47 64
        E 0 9f 34 5a
        E 481 88 37 64
        E 0 8d 47 64
        E 0 98 37 64
        E 0 9d 47 64
        E 478 88 37 64
        E 1 8d 47 64
        E 0 98 37 64
        E 0 9d 47 64
        E 480 88 37 64
        E 0 8d 47 64
        E 0 98 35 64
        E 0 9d 47 64
        E 239 88 35 64
        E 0 8d 47 64
        E 0 98 34 64
        E 0 9d 49 64
        E 242 88 34 64
        E 0 8d 49 64
        E 0 98 3a 64
        E 0 9d 46 64
        E 479 88 3a 64
        E 0 8d 46 64
        E 1 98 3a 64
        E 0 9d 46 64
        E 482 88 3a 64
        E 0 8d 46 64
        E 0 98 3a 64
        E 0 9d 46 64
        E 478 88 3a 64
        E 0 8d 46 64
        E 0 98 38 64
        E 0 9d 44 64
        E 239 88 38 64
        E 0 8d 44 64
        E 1 98 36 64
        E 0 9d 42 64
        E 238 88 36 64
        E 0 8d 42 64
        E 0 8f 34 64
        E 0 98 3b 64
        E 1 9d 47 64
        E 0 9f 32 5a
        E 480 88 3b 64
        E 0 8d 47 64
        E 1 98 3b 64
        E 0 9d 47 64
        E 479 88 3b 64
        E 1 8d 47 64
        E 478 98 3b 64
        E 0 9d 47 64
        E 480 88 3b 64
        E 0 8d 47 64
        E 0 8f 32 64
        E 0 98 37 64
        E 0 9d 43 64
        E 0 9f 34 5a
        E 480 88 37 64
        E 0 8d 43 64
        E 0 98 37 64
        E 0 9d 43 64
        E 482 88 37 64
        E 0 8d 43 64
        E 0 98 39 64
        E 0 9d 45 64
        E 478 88 39 64
        E 0 8d 45 64
        E 1 98 3b 64
        E 0 9d 47 64
        E 480 88 3b 64
        E 0 8d 47 64
        E 0 8f 34 64
        E 0 98 36 64
        E 0 9d 42 64
        E 0 9f 36 5a
        E 479 88 36 64
        E 0 8d 42 64
        E 0 98 36 64
        E 1 9d 42 64
        E 479 88 36 64
        E 0 8d 42 64
        E 0 8f 36 64
        E 0 9f 2f 5a
        E 480 96 3e 64
        E 0 9d 3e 64
        E 481 86 3e 64
        E 0 8d 3e 64
        E 0 8f 2f 64
        E 0 96 42 64
        E 0 9d 42 64
        E 0 9f 2f 5a
        E 480 86 42 64
        E 0 8d 42 64
        E 0 96 42 64
        E 1 9d 42 64
        E 480 86 42 64
        E 0 8d 42 64
        E 0 96 42 64
        E 0 9d 42 64
        E 480 86 42 64
        E 0 8d 42 64
        E 1 96 44 64
        E 0 9d 44 64
        E 477 86 44 64
        E 0 8d 44 64
        E 0 8f 2f 64
        E 0 96 44 64
        E 0 9d 44 64
        E 0 9f 35 59
        E 480 86 44 64
        E 0 8d 44 64
        E 0 96 44 64
        E 0 9d 44 64
        E 481 86 44 64
        E 0 8d 44 64
        E 481 96 44 64
        E 0 9d 44 64
        E 480 86 44 64
        E 0 8d 44 64
        E 0 96 44 64
        E 0 9d 44 64
        E 481 86 44 64
        E 1 8d 44 64
        E 0 96 44 64
        E 1 9d 44 64
        E 476 86 44 64
        E 0 8d 44 64
        E 0 96 42 64
        E 0 9d 42 64
        E 479 86 42 64
        E 0 8d 42 64
        E 0 96 44 64
        E 0 9d 44 64
        E 480 86 44 64
        E 0 8d 44 64
        E 0 8f 35 63
        E 0 96 45 64
        E 0 9d 45 64
        E 0 9f 36 5a
        E 481 86 45 64
        E 0 8d 45 64
        E 0 96 45 64
        E 0 9d 45 64
        E 480 86 45 64
        E 0 8d 45 64
        E 0 96 45 64
        E 0 9d 45 64
        E 479 86 45 64
        E 0 8d 45 64
        E 1 96 45 64
        E 0 9d 45 64
        E 239 86 45 64
        E 0 8d 45 64
        E 0 96 49 64
        E 0 9d 49 64
        E 241 86 49 64
        E 0 8d 49 64
        E 0 96 42 64
        E 0 9d 42 64
        E 480 86 42 64
        E 0 8d 42 64
        E 0 96 42 64
        E 0 9d 42 64
        E 480 86 42 64
        E 0 8d 42 64
        E 961 8f 36 64
        E 1 96 47 64
        E 0 9d 47 64
        E 0 9f 32 5a
        E 478 86 47 64
        E 1 8d 47 64
        E 0 96 47 64
        E 0 9d 47 64
        E 240 86 47 64
        E 1 8d 47 64
        E 0 96 47 64
        E 0 9d 47 64
        E 238 86 47 64
        E 0 8d 47 64
        E 0 96 47 64
        E 0 9d 47 64
        E 480 86 47 64
        E 0 8d 47 64
        E 0 96 42 64
        E 0 9d 42 64
        E 479 86 42 64
        E 0 8d 42 64
        E 1 8f 32 64
        E 0 96 44 64
        E 0 9d 44 64
        E 0 9f 31 5a
        E 238 86 44 64
        E 0 8d 44 64
        E 1 96 44 64
        E 0 9d 44 64
        E 241 86 44 64
        E 0 8d 44 64
        E 0 96 44 64
        E 0 9d 44 64
        E 480 86 44 64
        E 0 8d 44 64
        E 480 96 49 64
        E 0 9d 49 64
        E 480 86 49 64
        E 0 8d 49 64
        E 0 8f 31 64
        E 0 96 44 64
        E 0 9d 44 64
        E 0 9f 31 5a
        E 481 86 44 64
        E 0 8d 44 64
        E 0 96 44 64
        E 0 9d 44 64
        E 479 86 44 64
        E 0 8d 44 64
        E 480 96 49 64
        E 0 9d 49 64
        E 481 86 49 64
        E 0 8d 49 64
        E 0 8f 31 64
        E 0 96 45 64
        E 0 9d 45 64
        E 0 9f 36 5a
        E 481 86 45 64
        E 0 8d 45 64
        E 1 96 45 64
        E 0 9d 45 64
        E 476 86 45 64
        E 0 8d 45 64
        E 480 96 42 64
        E 0 9d 42 64
        E 482 86 42 64
        E 0 8d 42 64
        E 0 8f 36 64
        E 0 96 45 64
        E 0 9d 45 64
        E 0 9f 36 5a
        E 480 86 45 64
        E 0 8d 45 64
        E 0 96 45 64
        E 0 9d 45 64
        E 480 86 45 64
        E 0 8d 45 64
        E 0 96 45 64
        E 0 9d 45 64
        E 482 86 45 64
        E 0 8d 45 64
        E 0 96 44 64
        E 1 9d 44 64
        E 477 86 44 64
        E 0 8d 44 64
        E 0 8f 36 64
        E 0 96 47 64
        E 0 9d 47 64
        E 0 9f 34 5a
        E 958 86 47 64
        E 0 8d 47 64
        E 240 96 47 64
        E 0 9d 47 64
        E 240 86 47 64
        E 0 8d 47 64
        E 0 96 47 64
        E 0 9d 47 64
        E 242 86 47 64
        E 0 8d 47 64
        E 0 96 47 64
        E 0 9d 47 64
        E 240 86 47 64
        E 0 8d 47 64
        E 0 8f 34 64
        E 0 96 44 64
        E 0 9d 44 64
        E 0 9f 30 59
        E 479 86 44 64
        E 0 8d 44 64
        E 1 96 44 64
        E 3 9d 44 64
        E 476 86 44 64
        E 0 8d 44 64
        E 479 96 45 64
        E 0 9d 45 64
        E 483 86 45 64
        E 0 8d 45 64
        E 0 96 42 64
        E 0 9d 42 64
        E 478 86 42 64
        E 0 8d 42 64
        E 0 96 42 64
        E 0 9d 42 64
        E 481 86 42 64
        E 0 8d 42 64
        E 0 96 42 64
        E 0 9d 42 64
        E 478 86 42 64
        E 0 8d 42 64
        E 1 96 44 64
        E 0 9d 44 64
        E 479 86 44 64
        E 0 8d 44 64
        E 0 8f 30 63
        E 0 96 40 64
        E 0 9d 40 64
        E 0 9f 31 5a
        E 480 86 40 64
        E 0 8d 40 64
        E 1 96 40 64
        E 0 9d 40 64
        E 481 86 40 64
        E 0 8d 40 64
        E 479 96 49 64
        E 0 9d 49 64
        E 479 86 49 64
        E 0 8d 49 64
        E 0 8f 31 64
        E 0 96 42 64
        E 0 9d 42 64
        E 0 9f 2d 5a
        E 481 86 42 64
        E 0 8d 42 64
        E 1 96 42 64
        E 1 9d 42 64
        E 477 86 42 64
        E 0 8d 42 64
        E 1 96 42 64
        E 0 9d 42 64
        E 479 86 42 64
        E 0 8d 42 64
        E 0 96 44 64
        E 0 9d 44 64
        E 481 86 44 64
        E 1 8d 44 64
        E 0 8f 2d 64
        E 0 96 44 64
        E 1 9d 44 64
        E 0 9f 2c 5a
        E 479 86 44 64
        E 0 8d 44 64
        E 0 96 44 64
        E 0 9d 44 64
        E 478 86 44 64
        E 0 8d 44 64
        E 483 98 3c 63
        E 0 9d 48 63
        E 478 88 3c 63
        E 0 8d 48 63
        E 0 98 38 64
        E 0 9d 44 64
        E 959 88 38 64
        E 0 8d 44 64
        E 481 96 44 64
        E 0 9d 44 64
        E 480 86 44 64
        E 0 8d 44 64
        E 0 8f 2c 64
        E 0 96 49 64
        E 0 9d 49 64
        E 0 9f 34 5a
        E 483 86 49 64
        E 0 8d 49 64
        E 0 96 49 64
        E 1 9d 49 64
        E 477 86 49 64
        E 0 8d 49 64
        E 478 96 49 64
        E 1 9d 49 64
        E 479 86 49 64
        E 0 8d 49 64
        E 0 96 46 64
        E 0 9d 46 64
        E 482 86 46 64
        E 0 8d 46 64
        E 0 96 46 64
        E 0 9d 46 64
        E 478 86 46 64
        E 0 8d 46 64
        E 0 96 46 64
        E 0 9d 46 64
        E 481 86 46 64
        E 0 8d 46 64
        E 4 96 44 64
        E 0 9d 44 64
        E 236 86 44 64
        E 1 8d 44 64
        E 0 96 42 64
        E 0 9d 42 64
        E 239 86 42 64
        E 0 8d 42 64
        E 0 8f 34 64
        E 0 96 47 64
        E 0 9d 47 64
        E 0 9f 32 5a
        E 478 86 47 64
        E 0 8d 47 64
        E 1 96 47 64
        E 0 9d 47 64
        E 482 86 47 64
        E 0 8d 47 64
        E 958 96 47 64
        E 0 9d 47 64
        E 486 86 47 64
        E 0 8d 47 64
        E 1 96 47 64
        E 0 9d 47 64
        E 475 86 47 64
        E 0 8d 47 64
        E 0 96 47 64
        E 0 9d 47 64
        E 479 86 47 64
        E 0 8d 47 64
        E 0 96 47 64
        E 0 9d 47 64
        E 240 86 47 64
        E 0 8d 47 64
        E 1 96 48 64
        E 0 9d 48 64
        E 239 86 48 64
        E 0 8d 48 64
        E 0 8f 32 64
        E 0 96 45 64
        E 0 9d 45 64
        E 0 9f 30 5a
        E 480 86 45 64
        E 0 8d 45 64
        E 0 96 45 64
        E 0 9d 45 64
        E 481 86 45 64
        E 0 8d 45 64
        E 479 96 40 64
        E 1 9d 40 64
        E 240 86 40 64
        E 0 8d 40 64
        E 0 96 40 64
        E 0 9d 40 64
        E 239 86 40 64
        E 0 8d 40 64
        E 0 96 45 64
        E 0 9d 45 64
        E 961 86 45 64
        E 0 8d 45 64
        E 0 96 45 64
        E 0 9d 45 64
        E 479 86 45 64
        E 0 8d 45 64
        E 0 96 45 64
        E 0 9d 45 64
        E 480 86 45 64
        E 0 8d 45 64
        E 0 8f 30 64
        E 0 96 42 64
        E 0 9d 42 64
        E 1 9f 2f 5a
        E 959 86 42 64
        E 0 8d 42 64
        E 960 8f 2f 64
        E 0 96 47 64
        E 0 9d 47 64
        E 0 9f 33 5a
        E 480 86 47 64
        E 0 8d 47 64
        E 0 96 42 64
        E 0 9d 42 64
        E 480 86 42 64
        E 0 8d 42 64
        E 482 96 42 64
        E 2 9d 42 64
        E 476 86 42 64
        E 0 8d 42 64
        E 0 8f 33 64
        E 0 96 42 64
        E 0 9d 42 64
        E 0 9f 33 5a
        E 481 86 42 64
        E 0 8d 42 64
        E 0 96 42 64
        E 0 9d 42 64
        E 480 86 42 64
        E 1 8d 42 64
        E 0 96 40 64
        E 0 9d 40 64
        E 478 86 40 64
        E 0 8d 40 64
        E 0 96 42 64
        E 0 9d 42 64
        E 480 86 42 64
        E 0 8d 42 64
        E 0 8f 33 64
        E 0 96 43 64
        E 0 9d 43 64
        E 0 9f 34 5a
        E 961 86 43 64
        E 0 8d 43 64
        E 240 96 48 64
        E 0 9d 48 64
        E 238 86 48 64
        E 0 8d 48 64
        E 1 96 48 64
        E 0 9d 48 64
        E 240 86 48 64
        E 0 8d 48 64
        E 0 96 43 64
        E 0 9d 43 64
        E 240 86 43 64
        E 0 8d 43 64
        E 0 8f 34 64
        E 0 96 45 64
        E 0 9d 45 64
        E 0 9f 32 5a
        E 961 86 45 64
        E 0 8d 45 64
        E 481 9d 45 64
        E 478 8d 45 64
        E 0 98 32 64
        E 0 9d 4a 64
        E 481 88 32 64
        E 0 8d 4a 64
        E 1 98 39 64
        E 0 9d 4a 64
        E 479 88 39 64
        E 0 8d 4a 64
        E 0 98 39 64
        E 479 88 39 64
        E 0 98 39 64
        E 0 9d 45 64
        E 479 88 39 64
        E 1 8d 45 64
        E 0 8f 32 64
        E 0 98 39 64
        E 0 9d 45 64
        E 0 9f 32 5a
        E 480 88 39 64
        E 0 8d 45 64
        E 0 98 39 64
        E 0 9d 45 64
        E 481 88 39 64
        E 0 8d 45 64
        E 0 98 37 64
        E 0 9d 43 64
        E 480 88 37 64
        E 0 8d 43 64
        E 0 98 39 64
        E 0 9d 45 64
        E 481 88 39 64
        E 0 8d 45 64
        E 0 8f 32 64
        E 0 98 3b 64
        E 0 9d 47 64
        E 0 9f 2b 5a
        E 479 88 3b 64
        E 0 8d 47 64
        E 1 98 3b 64
        E 0 9d 47 64
        E 479 88 3b 64
        E 0 8d 47 64
        E 239 96 43 64
        E 0 9d 43 64
        E 240 86 43 64
        E 0 8d 43 64
        E 0 96 43 64
        E 0 9d 43 64
        E 239 86 43 64
        E 0 8d 43 64
        E 0 96 45 64
        E 0 9d 45 64
        E 243 86 45 64
        E 0 8d 45 64
        E 0 8f 2b 64
        E 0 96 41 64
        E 0 9d 41 64
        E 0 9f 2b 5a
        E 479 86 41 64
        E 0 8d 41 64
        E 0 96 41 64
        E 0 9d 41 64
        E 478 86 41 64
        E 0 8d 41 64
        E 963 96 3e 64
        E 0 9d 3e 64
        E 478 86 3e 64
        E 1 8d 3e 64
        E 0 96 40 64
        E 0 9d 40 64
        E 479 86 40 64
        E 0 8d 40 64
        E 0 96 41 64
        E 0 9d 41 64
        E 482 86 41 64
        E 1 8d 41 64
        E 0 96 41 64
        E 0 9d 41 64
        E 238 86 41 64
        E 0 8d 41 64
        E 0 96 40 64
        E 0 9d 40 64
        E 239 86 40 64
        E 0 8d 40 64
        E 0 8f 2b 64
        E 0 96 3c 64
        E 0 9d 3c 64
        E 0 9f 30 5a
        E 479 86 3c 64
        E 0 8d 3c 64
        E 0 96 3c 64
        E 0 9d 3c 64
        E 481 86 3c 64
        E 0 8d 3c 64
        E 480 98 34 64
        E 0 9d 48 64
        E 480 88 34 64
        E 0 8d 48 64
        E 0 98 37 64
        E 0 9d 4c 64
        E 482 88 37 64
        E 0 8d 4c 64
        E 0 98 37 64
        E 0 9d 4c 64
        E 477 88 37 64
        E 1 8d 4c 64
        E 479 96 48 64
        E 0 9d 48 64
        E 480 86 48 64
        E 0 8d 48 64
        E 0 8f 30 64
        E 0 96 43 64
        E 0 9d 43 64
        E 0 9f 30 5a
        E 481 86 43 64
        E 0 8d 43 64
        E 1 96 43 64
        E 0 9d 43 64
        E 478 86 43 64
        E 0 8d 43 64
        E 959 96 43 64
        E 1 9d 43 64
        E 480 86 43 64
        E 0 8d 43 64
        E 0 96 45 64
        E 0 9d 45 64
        E 482 86 45 64
        E 0 8d 45 64
        E 1 96 46 66
        E 0 9d 46 66
        E 479 86 46 66
        E 0 8d 46 66
        E 0 96 46 66
        E 0 9d 46 66
        E 239 86 46 66
        E 0 8d 46 66
        E 0 96 45 64
        E 0 9d 45 64
        E 240 86 45 64
        E 0 8d 45 64
        E 0 8f 30 64
        E 0 96 41 64
        E 0 9d 41 64
        E 0 9f 35 5a
        E 959 86 41 64
        E 0 8d 41 64
        E 243 96 48 64
        E 0 9d 48 64
        E 238 86 48 64
        E 0 8d 48 64
        E 0 96 48 64
        E 0 9d 48 64
        E 240 86 48 64
        E 0 8d 48 64
        E 0 96 48 64
        E 0 9d 48 64
        E 240 86 48 64
        E 0 8d 48 64
        E 1 96 45 64
        E 0 9d 45 64
        E 480 86 45 64
        E 0 8d 45 64
        E 0 96 45 64
        E 0 9d 45 64
        E 238 86 45 64
        E 0 8d 45 64
        E 1 96 45 64
        E 0 9d 45 64
        E 241 86 45 64
        E 1 8d 45 64
        E 0 96 45 64
        E 0 9d 45 64
        E 479 86 45 64
        E 0 8d 45 64
        E 0 96 47 64
        E 0 9d 47 64
        E 480 86 47 64
        E 0 8d 47 64
        E 0 8f 35 64
        E 0 96 48 64
        E 0 9d 48 64
        E 0 9f 36 5a
        E 479 86 48 64
        E 0 8d 48 64
        E 0 96 48 64
        E 0 9d 48 64
        E 479 86 48 64
        E 0 8d 48 64
        E 482 96 48 64
        E 0 9d 48 64
        E 481 86 48 64
        E 0 8d 48 64
        E 0 96 45 64
        E 0 9d 45 64
        E 477 86 45 64
        E 0 8d 45 64
        E 1 96 45 64
        E 0 9d 45 64
        E 482 86 45 64
        E 0 8d 45 64
        E 0 96 43 64
        E 0 9d 43 64
        E 478 86 43 64
        E 0 8d 43 64
        E 0 96 45 64
        E 0 9d 45 64
        E 479 86 45 64
        E 0 8d 45 64
        E 0 8f 36 64
        E 0 96 47 64
        E 0 9d 47 64
        E 0 9f 37 5a
        E 482 86 47 64
        E 0 8d 47 64
        E 0 96 47 64
        E 0 9d 47 64
        E 479 86 47 64
        E 0 8d 47 64
        E 480 96 43 64
        E 0 9d 43 64
        E 480 86 43 64
        E 0 8d 43 64
        E 0 96 49 64
        E 0 9d 49 64
        E 481 86 49 64
        E 0 8d 49 64
        E 0 96 49 64
        E 0 9d 49 64
        E 481 86 49 64
        E 0 8d 49 64
        E 0 96 49 64
        E 0 9d 49 64
        E 477 86 49 64
        E 0 8d 49 64
        E 1 96 4a 64
        E 0 9d 4a 64
        E 479 86 4a 64
        E 0 8d 4a 64
        E 0 8f 37 64
        E 0 96 45 64
        E 0 9d 45 64
        E 0 9f 39 5a
        E 962 86 45 64
        E 0 8d 45 64
        E 0 8f 39 64
        E 0 9f 32 5a
        E 960 8f 32 64
        E 1 96 42 64
        E 0 9d 42 64
        E 0 9f 32 5a
        E 958 86 42 64
        E 0 8d 42 64
        E 0 96 42 64
        E 0 9d 42 64
        E 480 86 42 64
        E 0 8d 42 64
        E 0 96 43 64
        E 0 9d 43 64
        E 481 86 43 64
        E 0 8d 43 64
        E 0 8f 32 64
        E 0 96 45 64
        E 0 9d 45 64
        E 0 9f 32 5a
        E 479 86 45 64
        E 0 8d 45 64
        E 0 96 45 64
        E 0 9d 45 64
        E 479 86 45 64
        E 1 8d 45 64
        E 240 96 48 64
        E 0 9d 48 64
        E 240 86 48 64
        E 0 8d 48 64
        E 0 96 48 64
        E 0 9d 48 64
        E 239 86 48 64
        E 0 8d 48 64
        E 0 96 45 64
        E 0 9d 45 64
        E 240 86 45 64
        E 0 8d 45 64
        E 0 8f 32 64
        E 0 96 47 64
        E 0 9d 47 64
        E 0 9f 2b 5a
        E 482 86 47 64
        E 0 8d 47 64
        E 0 96 47 64
        E 0 9d 47 64
        E 480 86 47 64
        E 0 8d 47 64
        E 959 8f 2b 64
        E 0 96 3e 64
        E 1 9d 3e 64
        E 0 9f 2b 5a
        E 479 86 3e 64
        E 0 8d 3e 64
        E 1 96 3e 64
        E 0 9d 3e 64
        E 241 86 3e 64
        E 0 8d 3e 64
        E 0 96 3e 64
        E 0 9d 3e 64
        E 240 86 3e 64
        E 0 8d 3e 64
        E 0 96 43 64
        E 0 9d 43 64
        E 479 86 43 64
        E 0 8d 43 64
        E 0 96 45 64
        E 0 9d 45 64
        E 480 86 45 64
        E 0 8d 45 64
        E 0 96 47 64
        E 0 9d 47 64
        E 479 86 47 64
        E 0 8d 47 64
        E 0 96 47 64
        E 0 9d 47 64
        E 479 86 47 64
        E 0 8d 47 64
        E 1 96 47 64
        E 0 9d 47 64
        E 480 86 47 64
        E 0 8d 47 64
        E 0 96 48 64
        E 0 9d 48 64
        E 239 86 48 64
        E 0 8d 48 64
        E 0 96 4a 64
        E 0 9d 4a 64
        E 243 86 4a 64
        E 0 8d 4a 64
        E 0 8f 2b 64
        E 0 96 43 64
        E 0 9d 43 64
        E 0 9f 2b 5a
        E 478 86 43 64
        E 0 8d 43 64
        E 0 96 43 64
        E 0 9d 43 64
        E 479 86 43 64
        E 0 8d 43 64
        E 962 96 43 64
        E 0 9d 43 64
        E 478 86 43 64
        E 0 8d 43 64
        E 1 96 43 64
        E 0 9d 43 64
        E 479 86 43 64
        E 0 8d 43 64
        E 0 96 43 64
        E 0 9d 43 64
        E 481 86 43 64
        E 0 8d 43 64
        E 0 96 45 64
        E 0 9d 45 64
        E 480 86 45 64
        E 0 8d 45 64
        E 0 8f 2b 64
        E 0 96 41 64
        E 0 9d 41 64
        E 0 9f 2b 5a
        E 479 86 41 64
        E 0 8d 41 64
        E 0 96 41 64
        E 0 9d 41 64
        E 482 86 41 64
        E 0 8d 41 64
        E 479 96 41 64
        E 0 9d 41 64
        E 480 86 41 64
        E 0 8d 41 64
        E 0 96 47 64
        E 1 9d 47 64
        E 479 86 47 64
        E 0 8d 47 64
        E 0 96 47 64
        E 0 9d 47 64
        E 481 86 47 64
        E 0 8d 47 64
        E 0 96 47 64
        E 0 9d 47 64
        E 479 86 47 64
        E 0 8d 47 64
        E 0 96 48 64
        E 0 9d 48 64
        E 481 86 48 64
        E 0 8d 48 64
        E 0 8f 2b 64
        E 0 96 43 64
        E 0 9d 43 64
        E 0 9f 30 5a
        E 480 86 43 64
        E 0 8d 43 64
        E 0 96 43 64
        E 0 9d 43 64
        E 478 86 43 64
        E 0 8d 43 64
        E 240 96 40 64
        E 0 9d 40 64
        E 242 86 40 64
        E 1 8d 40 64
        E 0 96 40 64
        E 0 9d 40 64
        E 239 86 40 64
        E 0 8d 40 64
        E 0 96 41 64
        E 0 9d 41 64
        E 240 86 41 64
        E 0 8d 41 64
        E 0 96 43 64
        E 0 9d 43 64
        E 479 86 43 64
        E 0 8d 43 64
        E 0 96 43 64
        E 0 9d 43 64
        E 482 86 43 64
        E 0 8d 43 64
        E 959 8f 30 64
        E 0 96 43 64
        E 0 9d 43 64
        E 0 9f 30 5a
        E 478 86 43 64
        E 0 8d 43 64
        E 0 96 45 64
        E 1 9d 45 64
        E 481 86 45 64
        E 0 8d 45 64
        E 0 96 46 66
        E 0 9d 46 66
        E 479 86 46 66
        E 0 8d 46 66
        E 0 96 46 66
        E 0 9d 46 66
        E 241 86 46 66
        E 0 8d 46 66
        E 0 96 45 64
        E 0 9d 45 64
        E 238 86 45 64
        E 0 8d 45 64
        E 0 8f 30 64
        E 0 96 41 64
        E 0 9d 41 64
        E 0 9f 35 5a
        E 480 86 41 64
        E 0 8d 41 64
        E 0 96 41 64
        E 0 9d 41 64
        E 481 86 41 64
        E 0 8d 41 64
        E 0 96 48 64
        E 0 9d 48 64
        E 480 86 48 64
        E 0 8d 48 64
        E 0 96 48 64
        E 0 9d 48 64
        E 241 86 48 64
        E 0 8d 48 64
        E 0 96 48 64
        E 0 9d 48 64
        E 239 86 48 64
        E 0 8d 48 64
        E 0 8f 35 64
        E 0 96 45 64
        E 0 9d 45 64
        E 0 9f 36 5a
        E 479 86 45 64
        E 0 8d 45 64
        E 0 96 45 64
        E 0 9d 45 64
        E 480 86 45 64
        E 0 8d 45 64
        E 481 96 45 64
        E 1 9d 45 64
        E 239 86 45 64
        E 0 8d 45 64
        E 0 96 47 64
        E 0 9d 47 64
        E 241 86 47 64
        E 0 8d 47 64
        E 0 96 48 64
        E 0 9d 48 64
        E 959 86 48 64
        E 5 8d 48 64
        E 0 96 48 64
        E 0 9d 48 64
        E 474 86 48 64
        E 0 8d 48 64
        E 0 96 47 64
        E 0 9d 47 64
        E 481 86 47 64
        E 0 8d 47 64
        E 0 8f 36 64
        E 0 96 43 64
        E 0 9d 43 64
        E 0 9f 37 5a
        E 479 86 43 64
        E 0 8d 43 64
        E 1 96 43 64
        E 0 9d 43 64
        E 478 86 43 64
        E 0 8d 43 64
        E 244 96 43 64
        E 0 9d 43 64
        E 238 86 43 64
        E 0 8d 43 64
        E 0 96 43 64
        E 0 9d 43 64
        E 240 86 43 64
        E 0 8d 43 64
        E 0 96 45 64
        E 0 9d 45 64
        E 244 86 45 64
        E 0 8d 45 64
        E 0 8f 37 64
        E 4 96 47 64
        E 0 9d 47 64
        E 0 9f 38 5a
        E 473 86 47 64
        E 1 8d 47 64
        E 0 96 47 64
        E 0 9d 47 64
        E 478 86 47 64
        E 0 8d 47 64
        E 959 8f 38 64
        E 0 96 47 64
        E 0 9d 47 64
        E 0 9f 38 5a
        E 481 86 47 64
        E 0 8d 47 64
        E 0 96 47 64
        E 1 9d 47 64
        E 478 86 47 64
        E 0 8d 47 64
        E 0 96 47 64
        E 0 9d 47 64
        E 481 86 47 64
        E 0 8d 47 64
        E 0 96 47 64
        E 0 9d 47 64
        E 240 86 47 64
        E 0 8d 47 64
        E 0 96 48 64
        E 0 9d 48 64
        E 242 86 48 64
        E 0 8d 48 64
        E 0 8f 38 64
        E 0 96 45 64
        E 0 9d 45 64
        E 0 9f 39 5a
        E 477 86 45 64
        E 0 8d 45 64
        E 0 96 45 64
        E 0 9d 45 64
        E 480 86 45 64
        E 0 8d 45 64
        E 963 8f 39 64
        E 0 96 40 64
        E 0 9d 40 64
        E 0 9f 39 5a
        E 957 86 40 64
        E 1 8d 40 64
        E 0 96 40 64
        E 0 9d 40 64
        E 479 86 40 64
        E 1 8d 40 64
        E 0 96 40 64
        E 0 9d 40 64
        E 480 86 40 64
        E 0 8d 40 64
        E 0 8f 39 64
        E 0 96 46 64
        E 0 9d 46 64
        E 0 9f 34 5a
        E 480 86 46 64
        E 0 8d 46 64
        E 0 96 46 64
        E 0 9d 46 64
        E 479 86 46 64
        E 0 8d 46 64
        E 962 8f 34 64
        E 1 96 46 64
        E 0 9d 46 64
        E 0 9f 34 5a
        E 477 86 46 64
        E 0 8d 46 64
        E 0 96 46 64
        E 0 9d 46 64
        E 241 86 46 64
        E 1 8d 46 64
        E 0 96 46 64
        E 0 9d 46 64
        E 238 86 46 64
        E 0 8d 46 64
        E 0 96 44 64
        E 0 9d 44 64
        E 480 86 44 64
        E 0 8d 44 64
        E 1 96 42 64
        E 0 9d 42 64
        E 481 86 42 64
        E 1 8d 42 64
        E 0 8f 34 64
        E 0 96 47 64
        E 0 9d 47 64
        E 0 9f 35 59
        E 958 86 47 64
        E 0 8d 47 64
        E 240 96 47 64
        E 0 9d 47 64
        E 240 86 47 64
        E 0 8d 47 64
        E 0 96 46 64
        E 0 9d 46 64
        E 241 86 46 64
        E 0 8d 46 64
        E 1 96 47 64
        E 0 9d 47 64
        E 237 86 47 64
        E 0 8d 47 64
        E 0 8f 35 63
        E 0 96 42 64
        E 0 9d 42 64
        E 0 9f 36 5a
        E 480 86 42 64
        E 0 8d 42 64
        E 1 96 42 64
        E 0 9d 42 64
        E 480 86 42 64
        E 0 8d 42 64
        E 3 8f 36 64
        E 0 9f 2f 5a
        E 477 98 36 64
        E 0 9d 42 64
        E 241 88 36 64
        E 0 8d 42 64
        E 0 98 36 64
        E 0 9d 42 64
        E 238 88 36 64
        E 0 8d 42 64
        E 0 8f 2f 64
        E 0 98 3b 64
        E 1 9d 47 64
        E 0 9f 2f 5a
        E 480 88 3b 64
        E 0 8d 47 64
        E 0 98 3b 64
        E 0 9d 47 64
        E 480 88 3b 64
        E 0 8d 47 64
        E 479 96 42 64
        E 0 9d 42 64
        E 242 86 42 64
        E 0 8d 42 64
        E 1 96 43 64
        E 0 9d 43 64
        E 238 86 43 64
        E 0 8d 43 64
        E 0 8f 2f 64
        E 0 96 45 64
        E 0 9d 45 64
        E 0 9f 31 5a
        E 481 86 45 64
        E 0 8d 45 64
        E 0 96 45 64
        E 0 9d 45 64
        E 481 86 45 64
        E 0 8d 45 64
        E 957 96 45 64
        E 0 9d 45 64
        E 481 86 45 64
        E 0 8d 45 64
        E 0 96 40 64
        E 0 9d 40 64
        E 241 86 40 64
        E 0 8d 40 64
        E 0 96 40 64
        E 1 9d 40 64
        E 239 86 40 64
        E 0 8d 40 64
        E 0 96 43 64
        E 0 9d 43 64
        E 479 86 43 64
        E 0 8d 43 64
        E 0 96 42 64
        E 1 9d 42 64
        E 479 86 42 64
        E 0 8d 42 64
        E 0 8f 31 64
        E 0 96 3e 64
        E 0 9d 3e 64
        E 0 9f 32 5a
        E 479 86 3e 64
        E 0 8d 3e 64
        E 0 96 3e 64
        E 1 9d 3e 64
        E 481 86 3e 64
        E 0 8d 3e 64
        E 240 96 45 64
        E 0 9d 45 64
        E 238 86 45 64
        E 0 8d 45 64
        E 0 96 45 64
        E 0 9d 45 64
        E 242 86 45 64
        E 0 8d 45 64
        E 0 96 45 64
        E 1 9d 45 64
        E 242 86 45 64
        E 0 8d 45 64
        E 1 96 42 64
        E 0 9d 42 64
        E 476 86 42 64
        E 0 8d 42 64
        E 0 96 42 64
        E 0 9d 42 64
        E 481 86 42 64
        E 0 8d 42 64
        E 478 96 48 64
        E 1 9d 48 64
        E 238 86 48 64
        E 0 8d 48 64
        E 1 96 48 64
        E 0 9d 48 64
        E 239 86 48 64
        E 1 8d 48 64
        E 0 8f 32 64
        E 0 96 45 64
        E 0 9d 45 64
        E 0 9f 32 5a
        E 959 86 45 64
        E 0 8d 45 64
        E 0 96 45 64
        E 0 9d 45 64
        E 480 86 45 64
        E 0 8d 45 64
        E 0 96 47 64
        E 1 9d 47 64
        E 480 86 47 64
        E 0 8d 47 64
        E 0 8f 32 64
        E 0 96 43 64
        E 0 9d 43 64
        E 0 9f 2b 5a
        E 480 86 43 64
        E 0 8d 43 64
        E 1 96 43 64
        E 0 9d 43 64
        E 479 86 43 64
        E 0 8d 43 64
        E 239 98 32 64
        E 0 9d 4a 64
        E 240 88 32 64
        E 0 8d 4a 64
        E 0 98 32 64
        E 1 9d 4a 64
        E 240 88 32 64
        E 0 8d 4a 64
        E 0 98 32 64
        E 0 9d 4a 64
        E 241 88 32 64
        E 0 8d 4a 64
        E 0 8f 2b 64
        E 0 98 37 64
        E 0 9d 47 64
        E 0 9f 2b 5a
        E 478 88 37 64
        E 0 8d 47 64
        E 0 98 37 64
        E 0 9d 47 64
        E 481 88 37 64
        E 0 8d 47 64
        E 0 98 37 64
        E 0 9d 48 64
        E 480 88 37 64
        E 0 8d 48 64
        E 0 98 39 64
        E 0 9d 4a 64
        E 481 88 39 64
        E 0 8d 4a 64
        E 0 98 3b 64
        E 0 9d 43 64
        E 478 88 3b 64
        E 0 8d 43 64
        E 0 98 3b 64
        E 0 9d 43 64
        E 484 88 3b 64
        E 0 8d 43 64
        E 476 96 43 64
        E 0 9d 43 64
        E 480 86 43 64
        E 1 8d 43 64
        E 0 8f 2b 64
        E 0 96 3e 64
        E 0 9d 3e 64
        E 0 9f 2b 5a
        E 481 86 3e 64
        E 0 8d 3e 64
        E 0 96 3e 64
        E 0 9d 3e 64
        E 477 86 3e 64
        E 0 8d 3e 64
        E 241 96 43 64
        E 0 9d 43 64
        E 241 86 43 64
        E 0 8d 43 64
        E 0 96 43 64
        E 0 9d 43 64
        E 239 86 43 64
        E 0 8d 43 64
        E 0 96 47 64
        E 1 9d 47 64
        E 239 86 47 64
        E 0 8d 47 64
        E 0 8f 2b 64
        E 0 96 44 64
        E 0 9d 44 64
        E 0 9f 32 5a
        E 481 86 44 64
        E 0 8d 44 64
        E 0 96 44 64
        E 0 9d 44 64
        E 480 86 44 64
        E 0 8d 44 64
        E 960 8f 32 64
        E 0 96 44 64
        E 0 9d 44 64
        E 0 9f 32 5a
        E 480 86 44 64
        E 0 8d 44 64
        E 0 96 44 64
        E 1 9d 44 64
        E 480 86 44 64
        E 0 8d 44 64
        E 0 96 44 64
        E 0 9d 44 64
        E 479 86 44 64
        E 0 8d 44 64
        E 0 96 44 64
        E 0 9d 44 64
        E 241 86 44 64
        E 0 8d 44 64
        E 0 96 45 64
        E 1 9d 45 64
        E 240 86 45 64
        E 0 8d 45 64
        E 0 8f 32 64
        E 0 96 47 64
        E 0 9d 47 64
        E 0 9f 2c 5a
        E 478 86 47 64
        E 0 8d 47 64
        E 0 96 47 64
        E 1 9d 47 64
        E 479 86 47 64
        E 0 8d 47 64
        E 964 8f 2c 64
        E 0 96 47 64
        E 0 9d 47 64
        E 0 9f 2c 5a
        E 475 86 47 64
        E 0 8d 47 64
        E 0 96 47 64
        E 0 9d 47 64
        E 481 86 47 64
        E 0 8d 47 64
        E 0 96 47 64
        E 0 9d 47 64
        E 479 86 47 64
        E 0 8d 47 64
        E 0 96 47 64
        E 0 9d 47 64
        E 241 86 47 64
        E 0 8d 47 64
        E 0 96 48 64
        E 0 9d 48 64
        E 239 86 48 64
        E 0 8d 48 64
        E 0 8f 2c 64
        E 0 96 45 64
        E 0 9d 45 64
        E 0 9f 2d 5a
        E 480 86 45 64
        E 0 8d 45 64
        E 1 96 45 64
        E 0 9d 45 64
        E 479 86 45 64
        E 0 8d 45 64
        E 480 96 45 64
        E 0 9d 45 64
        E 480 86 45 64
        E 0 8d 45 64
        E 0 8f 2d 64
        E 0 96 45 64
        E 1 9d 45 64
        E 0 9f 2d 5a
        E 481 86 45 64
        E 0 8d 45 64
        E 0 96 40 64
        E 1 9d 40 64
        E 479 86 40 64
        E 0 8d 40 64
        E 479 98 3c 64
        E 1 9d 48 64
        E 480 88 3c 64
        E 0 8d 48 64
        E 0 98 39 64
        E 0 9d 45 64
        E 479 88 39 64
        E 0 8d 45 64
        E 0 98 39 64
        E 0 9d 45 64
        E 481 88 39 64
        E 0 8d 45 64
        E 478 96 40 64
        E 1 9d 40 64
        E 480 86 40 64
        E 0 8d 40 64
        E 0 8f 2d 64
        E 0 96 45 64
        E 0 9d 45 64
        E 1 9f 2d 5a
        E 960 86 45 64
        E 0 8d 45 64
        E 0 98 34 64
        E 0 9d 4c 64
        E 479 88 34 64
        E 0 8d 4c 64
        E 0 98 34 64
        E 1 9d 4c 64
        E 238 88 34 64
        E 0 8d 4c 64
        E 1 98 36 64
        E 0 9d 4c 64
        E 240 88 36 64
        E 0 8d 4c 64
        E 0 8f 2d 64
        E 0 98 36 64
        E 0 9d 4a 64
        E 0 9f 32 5a
        E 481 88 36 64
        E 0 8d 4a 64
        E 1 98 36 64
        E 0 9d 4a 64
        E 480 88 36 64
        E 0 8d 4a 64
        E 0 96 45 64
        E 0 9d 45 64
        E 958 86 45 64
        E 0 8d 45 64
        E 0 8f 32 64
        E 1 98 3e 64
        E 2 9d 4a 64
        E 0 9f 32 5a
        E 477 88 3e 64
        E 0 8d 4a 64
        E 0 98 3b 64
        E 0 9d 45 64
        E 479 88 3b 64
        E 0 8d 45 64
        E 0 98 3b 64
        E 0 9d 45 64
        E 480 88 3b 64
        E 0 8d 45 64
        E 481 8f 32 64
        E 0 9f 32 5a
        E 481 96 45 64
        E 0 9d 45 64
        E 484 86 45 64
        E 0 8d 45 64
        E 0 8f 32 64
        E 0 96 47 64
        E 0 9d 47 64
        E 0 9f 2b 5a
        E 956 86 47 64
        E 0 8d 47 64
        E 0 8f 2b 64
        E 0 98 37 64
        E 0 9d 43 64
        E 0 9f 2b 5a
        E 960 88 37 64
        E 0 8d 43 64
        E 0 98 37 64
        E 0 9d 43 64
        E 479 88 37 64
        E 0 8d 43 64
        E 0 98 39 64
        E 0 9d 45 64
        E 479 88 39 64
        E 0 8d 45 64
        E 0 98 35 64
        E 0 9d 41 64
        E 480 88 35 64
        E 0 8d 41 64
        E 0 98 35 64
        E 0 9d 41 64
        E 481 88 35 64
        E 0 8d 41 64
        E 960 8f 2b 64
        E 0 98 3b 64
        E 0 9d 47 64
        E 0 9f 2b 5a
        E 479 88 3b 64
        E 0 8d 47 64
        E 0 98 3b 64
        E 0 9d 47 64
        E 481 88 3b 64
        E 0 8d 47 64
        E 960 98 35 64
        E 0 9d 4a 64
        E 961 88 35 64
        E 0 8d 4a 64
        E 0 98 35 64
        E 0 9d 47 64
        E 479 88 35 64
        E 0 8d 47 64
        E 0 98 34 64
        E 0 9d 48 64
        E 481 88 34 64
        E 0 8d 48 64
        E 0 8f 2b 64
        E 0 98 30 64
        E 1 9d 43 64
        E 0 9f 30 5a
        E 477 88 30 64
        E 0 8d 43 64
        E 0 98 30 64
        E 0 9d 43 64
        E 481 88 30 64
        E 0 8d 43 64
        E 0 96 43 64
        E 0 9d 43 64
        E 482 86 43 64
        E 0 8d 43 64
        E 0 96 43 64
        E 0 9d 43 64
        E 237 86 43 64
        E 0 8d 43 64
        E 0 96 48 64
        E 0 9d 48 64
        E 241 86 48 64
        E 0 8d 48 64
        E 0 8f 30 64
        E 0 96 45 64
        E 0 9d 45 64
        E 0 9f 35 5a
        E 480 86 45 64
        E 0 8d 45 64
        E 0 96 45 64
        E 0 9d 45 64
        E 479 86 45 64
        E 1 8d 45 64
        E 959 8f 35 64
        E 3 96 45 64
        E 0 9d 45 64
        E 0 9f 35 5a
        E 477 86 45 64
        E 0 8d 45 64
        E 0 96 45 64
        E 0 9d 45 64
        E 483 86 45 64
        E 0 8d 45 64
        E 0 96 45 64
        E 0 9d 45 64
        E 478 86 45 64
        E 0 8d 45 64
        E 0 96 44 64
        E 0 9d 44 64
        E 241 86 44 64
        E 0 8d 44 64
        E 0 96 45 64
        E 1 9d 45 64
        E 238 86 45 64
        E 0 8d 45 64
        E 0 8f 35 64
        E 0 96 40 64
        E 0 9d 40 64
        E 0 9f 34 5a
        E 480 86 40 64
        E 0 8d 40 64
        E 0 96 40 64
        E 0 9d 40 64
        E 480 86 40 64
        E 0 8d 40 64
        E 0 8f 34 64
        E 0 9f 2d 5a
        E 241 96 45 64
        E 0 9d 45 64
        E 240 86 45 64
        E 0 8d 45 64
        E 2 96 45 64
        E 1 9d 45 64
        E 236 86 45 64
        E 0 8d 45 64
        E 0 96 45 64
        E 1 9d 45 64
        E 240 86 45 64
        E 0 8d 45 64
        E 0 8f 2d 64
        E 0 96 42 64
        E 0 9d 42 64
        E 0 9f 30 5a
        E 479 86 42 64
        E 0 8d 42 64
        E 0 96 42 64
        E 0 9d 42 64
        E 481 86 42 64
        E 0 8d 42 64
        E 961 96 45 64
        E 0 9d 45 64
        E 479 86 45 64
        E 0 8d 45 64
        E 0 96 46 66
        E 0 9d 46 66
        E 480 86 46 66
        E 1 8d 46 66
        E 0 96 48 64
        E 0 9d 48 64
        E 479 86 48 64
        E 0 8d 48 64
        E 0 96 48 64
        E 0 9d 48 64
        E 239 86 48 64
        E 0 8d 48 64
        E 0 96 46 66
        E 0 9d 46 66
        E 239 86 46 66
        E 0 8d 46 66
        E 0 8f 30 64
        E 1 96 43 64
        E 0 9d 43 64
        E 0 9f 2e 5b
        E 478 86 43 64
        E 1 8d 43 64
        E 0 96 43 64
        E 0 9d 43 64
        E 481 86 43 64
        E 0 8d 43 64
        E 961 8f 2e 66
        E 1919 9f 2e 5b
        E 1441 97 43 64
        E 0 9d 43 64
        E 479 87 43 64
        E 1 8d 43 64
        E 0 97 49 64
        E 0 9d 49 64
        E 958 87 49 64
        E 0 8d 49 64
        E 0 97 49 64
        E 0 9d 49 64
        E 481 87 49 64
        E 3 8d 49 64
        E 0 97 4a 64
        E 1 9d 4a 64
        E 476 87 4a 64
        E 0 8d 4a 64
        E 0 8f 2e 66
        E 0 97 45 64
        E 0 9d 45 64
        E 0 9f 2d 5a
        E 479 87 45 64
        E 0 8d 45 64
        E 1 97 45 64
        E 0 9d 45 64
        E 481 87 45 64
        E 0 8d 45 64
        E 0 8f 2d 64
        E 0 9f 32 5a
        E 479 96 41 64
        E 0 9d 41 64
        E 240 86 41 64
        E 0 8d 41 64
        E 0 96 45 64
        E 0 9d 45 64
        E 240 86 45 64
        E 0 8d 45 64
        E 0 8f 32 64
        E 0 96 3e 64
        E 0 9d 3e 64
        E 0 9f 32 5a
        E 480 86 3e 64
        E 0 8d 3e 64
        E 1 96 3e 64
        E 1 9d 3e 64
        E 477 86 3e 64
        E 0 8d 3e 64
        E 963 8f 32 64
        E 0 97 4a 64
        E 0 9d 4a 64
        E 0 9f 32 5a
        E 479 87 4a 64
        E 0 8d 4a 64
        E 0 97 45 64
        E 0 9d 45 64
        E 479 87 45 64
        E 0 8d 45 64
        E 241 96 45 64
        E 0 9d 45 64
        E 239 86 45 64
        E 1 8d 45 64
        E 0 96 45 64
        E 2 9d 45 64
        E 236 86 45 64
        E 0 8d 45 64
        E 0 96 45 64
        E 2 9d 45 64
        E 239 86 45 64
        E 0 8d 45 64
        E 0 8f 32 64
        E 0 96 42 64
        E 0 9d 42 64
        E 0 9f 33 5a
        E 479 86 42 64
        E 0 8d 42 64
        E 0 96 42 64
        E 0 9d 42 64
        E 481 86 42 64
        E 0 8d 42 64
        E 960 8f 33 64
        E 0 96 48 64
        E 0 9d 48 64
        E 0 9f 33 5a
        E 961 86 48 64
        E 0 8d 48 64
        E 0 96 45 64
        E 0 9d 45 64
        E 480 86 45 64
        E 0 8d 45 64
        E 0 96 43 64
        E 0 9d 43 64
        E 480 86 43 64
        E 0 8d 43 64
        E 0 8f 33 64
        E 0 96 40 64
        E 0 9d 40 64
        E 0 9f 34 5a
        E 479 86 40 64
        E 0 8d 40 64
        E 0 96 40 64
        E 1 9d 40 64
        E 479 86 40 64
        E 0 8d 40 64
        E 961 8f 34 64
        E 0 96 47 64
        E 0 9d 47 64
        E 0 9f 34 5a
        E 960 86 47 64
        E 0 8d 47 64
        E 0 96 47 64
        E 0 9d 47 64
        E 478 86 47 64
        E 0 8d 47 64
        E 1 96 48 64
        E 0 9d 48 64
        E 480 86 48 64
        E 0 8d 48 64
        E 0 8f 34 64
        E 0 96 48 64
        E 0 9d 48 64
        E 0 9f 2d 5a
        E 479 86 48 64
        E 0 8d 48 64
        E 0 96 48 64
        E 1 9d 48 64
        E 479 86 48 64
        E 0 8d 48 64
        E 963 8f 2d 64
        E 0 96 45 64
        E 0 9d 45 64
        E 0 9f 2d 5a
        E 479 86 45 64
        E 0 8d 45 64
        E 0 96 45 64
        E 0 9d 45 64
        E 479 86 45 64
        E 0 8d 45 64
        E 0 96 45 64
        E 0 9d 45 64
        E 479 86 45 64
        E 0 8d 45 64
        E 0 96 45 64
        E 0 9d 45 64
        E 242 86 45 64
        E 0 8d 45 64
        E 0 96 43 64
        E 0 9d 43 64
        E 239 86 43 64
        E 0 8d 43 64
        E 0 8f 2d 64
        E 0 96 40 64
        E 0 9d 40 64
        E 0 9f 2f 5a
        E 480 86 40 64
        E 0 8d 40 64
        E 0 96 40 64
        E 0 9d 40 64
        E 480 86 40 64
        E 0 8d 40 64
        E 1 8f 2f 64
        E 1 9f 34 5a
        E 238 97 47 64
        E 0 9d 47 64
        E 241 87 47 64
        E 0 8d 47 64
        E 0 97 47 64
        E 0 9d 47 64
        E 238 87 47 64
        E 0 8d 47 64
        E 0 97 47 64
        E 1 9d 47 64
        E 240 87 47 64
        E 0 8d 47 64
        E 0 8f 34 64
        E 0 97 44 64
        E 0 9d 44 64
        E 0 9f 32 5a
        E 481 87 44 64
        E 0 8d 44 64
        E 0 97 44 64
        E 0 9d 44 64
        E 479 87 44 64
        E 0 8d 44 64
        E 481 97 4a 64
        E 0 9d 4a 64
        E 482 87 4a 64
        E 0 8d 4a 64
        E 0 97 47 64
        E 1 9d 47 64
        E 956 87 47 64
        E 0 8d 47 64
        E 0 97 47 64
        E 0 9d 47 64
        E 481 87 47 64
        E 0 8d 47 64
        E 0 97 45 64
        E 1 9d 45 64
        E 238 87 45 64
        E 0 8d 45 64
        E 0 97 47 64
        E 0 9d 47 64
        E 240 87 47 64
        E 0 8d 47 64
        E 0 8f 32 64
        E 0 97 48 64
        E 0 9d 48 64
        E 0 9f 2d 5a
        E 480 87 48 64
        E 0 8d 48 64
        E 0 97 48 64
        E 0 9d 48 64
        E 480 87 48 64
        E 0 8d 48 64
        E 482 97 45 64
        E 0 9d 45 64
        E 477 87 45 64
        E 0 8d 45 64
        E 0 8f 2d 64
        E 1 97 4a 64
        E 0 9d 4a 64
        E 0 9f 35 5a
        E 479 87 4a 64
        E 0 8d 4a 64
        E 1 97 45 64
        E 0 9d 45 64
        E 480 87 45 64
        E 0 8d 45 64
        E 0 97 45 64
        E 0 9d 45 64
        E 480 87 45 64
        E 0 8d 45 64
        E 0 97 45 64
        E 0 9d 45 64
        E 239 87 45 64
        E 0 8d 45 64
        E 0 97 44 64
        E 0 9d 44 64
        E 240 87 44 64
        E 1 8d 44 64
        E 0 8f 35 64
        E 0 97 47 64
        E 0 9d 47 64
        E 0 9f 34 5a
        E 482 87 47 64
        E 0 8d 47 64
        E 0 97 47 64
        E 0 9d 47 64
        E 478 87 47 64
        E 0 8d 47 64
        E 480 96 47 64
        E 0 9d 47 64
        E 480 86 47 64
        E 0 8d 47 64
        E 0 96 44 64
        E 0 9d 44 64
        E 480 86 44 64
        E 0 8d 44 64
        E 0 96 44 64
        E 0 9d 44 64
        E 479 86 44 64
        E 0 8d 44 64
        E 481 96 40 64
        E 0 9d 40 64
        E 480 86 40 64
        E 0 8d 40 64
        E 0 8f 34 64
        E 0 96 48 64
        E 0 9d 48 64
        E 0 9f 39 5a
        E 481 86 48 64
        E 0 8d 48 64
        E 0 96 48 64
        E 0 9d 48 64
        E 480 86 48 64
        E 0 8d 48 64
        E 958 96 45 64
        E 1 9d 45 64
        E 479 86 45 64
        E 1 8d 45 64
        E 0 96 45 64
        E 0 9d 45 64
        E 480 86 45 64
        E 0 8d 45 64
        E 0 96 45 64
        E 0 9d 45 64
        E 480 86 45 64
        E 0 8d 45 64
        E 0 96 47 64
        E 1 9d 47 64
        E 240 86 47 64
        E 0 8d 47 64
        E 0 96 48 64
        E 0 9d 48 64
        E 239 86 48 64
        E 0 8d 48 64
        E 0 8f 39 64
        E 0 96 43 64
        E 0 9d 43 64
        E 0 9f 37 5a
        E 479 86 43 64
        E 0 8d 43 64
        E 0 96 43 64
        E 0 9d 43 64
        E 484 86 43 64
        E 0 8d 43 64
        E 0 8f 37 64
        E 1 97 4c 64
        E 1 9d 4c 64
        E 0 9f 30 5a
        E 475 87 4c 64
        E 0 8d 4c 64
        E 0 97 48 64
        E 0 9d 48 64
        E 479 87 48 64
        E 0 8d 48 64
        E 0 8f 30 64
        E 0 9f 30 5a
        E 480 96 40 64
        E 0 9d 40 64
        E 482 86 40 64
        E 0 8d 40 64
        E 0 96 43 64
        E 0 9d 43 64
        E 479 86 43 64
        E 0 8d 43 64
        E 0 96 43 64
        E 0 9d 43 64
        E 482 86 43 64
        E 0 8d 43 64
        E 1 8f 30 64
        E 0 96 43 64
        E 0 9d 43 64
        E 0 9f 30 5a
        E 477 86 43 64
        E 0 8d 43 64
        E 1 96 45 64
        E 0 9d 45 64
        E 480 86 45 64
        E 0 8d 45 64
        E 0 96 46 66
        E 0 9d 46 66
        E 478 86 46 66
        E 0 8d 46 66
        E 0 96 46 66
        E 0 9d 46 66
        E 240 86 46 66
        E 0 8d 46 66
        E 0 96 45 64
        E 0 9d 45 64
        E 241 86 45 64
        E 0 8d 45 64
        E 0 8f 30 64
        E 0 96 45 64
        E 0 9d 45 64
        E 0 9f 35 5a
        E 480 86 45 64
        E 0 8d 45 64
        E 0 96 45 64
        E 0 9d 45 64
        E 484 86 45 64
        E 0 8d 45 64
        E 476 96 4a 64
        E 0 9d 4a 64
        E 478 86 4a 64
        E 0 8d 4a 64
        E 0 8f 35 64
        E 0 96 46 66
        E 0 9d 46 66
        E 1 9f 32 5a
        E 481 86 46 66
        E 0 8d 46 66
        E 0 96 46 66
        E 0 9d 46 66
        E 480 86 46 66
        E 0 8d 46 66
        E 0 96 46 66
        E 0 9d 46 66
        E 479 86 46 66
        E 0 8d 46 66
        E 0 96 45 64
        E 0 9d 45 64
        E 480 86 45 64
        E 0 8d 45 64
        E 0 8f 32 64
        E 0 96 41 64
        E 0 9d 41 64
        E 0 9f 30 5a
        E 481 86 41 64
        E 0 8d 41 64
        E 0 96 41 64
        E 0 9d 41 64
        E 480 86 41 64
        E 0 8d 41 64
        E 0 8f 30 64
        E 0 9f 35 5a
        E 240 97 48 64
        E 0 9d 48 64
        E 238 87 48 64
        E 0 8d 48 64
        E 1 97 48 64
        E 0 9d 48 64
        E 241 87 48 64
        E 0 8d 48 64
        E 0 97 48 64
        E 0 9d 48 64
        E 239 87 48 64
        E 0 8d 48 64
        E 0 8f 35 64
        E 0 97 45 64
        E 0 9d 45 64
        E 0 9f 35 5a
        E 481 87 45 64
        E 0 8d 45 64
        E 0 97 45 64
        E 0 9d 45 64
        E 479 87 45 64
        E 2 8d 45 64
        E 478 97 45 64
        E 1 9d 45 64
        E 241 87 45 64
        E 0 8d 45 64
        E 1 97 45 64
        E 0 9d 45 64
        E 239 87 45 64
        E 1 8d 45 64
        E 0 8f 35 64
        E 0 97 4a 64
        E 0 9d 4a 64
        E 0 9f 2e 5b
        E 957 87 4a 64
        E 0 8d 4a 64
        E 0 97 4a 64
        E 0 9d 4a 64
        E 481 87 4a 64
        E 0 8d 4a 64
        E 1 97 43 64
        E 0 9d 43 64
        E 480 87 43 64
        E 3 8d 43 64
        E 0 8f 2e 66
        E 1 97 45 64
        E 0 9d 45 64
        E 0 9f 2d 5a
        E 475 87 45 64
        E 0 8d 45 64
        E 479 96 40 64
        E 0 9d 40 64
        E 962 86 40 64
        E 0 8d 40 64
        E 1440 97 45 64
        E 1 9d 45 64
        E 239 87 45 64
        E 0 8d 45 64
        E 0 97 47 64
        E 0 9d 47 64
        E 239 87 47 64
        E 0 8d 47 64
        E 0 8f 2d 64
        E 0 97 49 64
        E 0 9d 49 64
        E 1 9f 2b 5a
        E 479 87 49 64
        E 0 8d 49 64
        E 0 97 49 64
        E 0 9d 49 64
        E 481 87 49 64
        E 0 8d 49 64
        E 1 97 47 64
        E 0 9d 47 64
        E 478 87 47 64
        E 0 8d 47 64
        E 0 97 45 64
        E 0 9d 45 64
        E 484 87 45 64
        E 0 8d 45 64
        E 0 8f 2b 64
        E 0 97 4a 64
        E 0 9d 4a 64
        E 0 9f 2a 5a
        E 476 87 4a 64
        E 0 8d 4a 64
        E 0 97 4a 64
        E 0 9d 4a 64
        E 480 87 4a 64
        E 0 8d 4a 64
        E 241 96 45 64
        E 0 9d 45 64
        E 238 86 45 64
        E 0 8d 45 64
        E 0 96 48 64
        E 0 9d 48 64
        E 241 86 48 64
        E 0 8d 48 64
        E 0 96 47 64
        E 0 9d 47 64
        E 240 86 47 64
        E 0 8d 47 64
        E 0 8f 2a 64
        E 0 96 43 64
        E 0 9d 43 64
        E 0 9f 2b 5a
        E 480 86 43 64
        E 0 8d 43 64
        E 0 96 43 64
        E 0 9d 43 64
        E 480 86 43 64
        E 0 8d 43 64
        E 480 96 3e 64
        E 0 9d 3e 64
        E 480 86 3e 64
        E 1 8d 3e 64
        E 0 96 43 64
        E 0 9d 43 64
        E 479 86 43 64
        E 0 8d 43 64
        E 0 96 43 64
        E 0 9d 43 64
        E 480 86 43 64
        E 0 8d 43 64
        E 960 8f 2b 64
        E 1 96 43 64
        E 1 9d 43 64
        E 0 9f 29 5a
        E 478 86 43 64
        E 0 8d 43 64
        E 0 96 43 64
        E 0 9d 43 64
        E 479 86 43 64
        E 0 8d 43 64
        E 1 96 47 64
        E 0 9d 47 64
        E 480 86 47 64
        E 0 8d 47 64
        E 1 96 47 64
        E 0 9d 47 64
        E 239 86 47 64
        E 0 8d 47 64
        E 0 96 48 64
        E 0 9d 48 64
        E 240 86 48 64
        E 0 8d 48 64
        E 0 8f 29 64
        E 1 96 43 64
        E 0 9d 43 64
        E 0 9f 28 5a
        E 479 86 43 64
        E 0 8d 43 64
        E 0 96 43 64
        E 1 9d 43 64
        E 481 86 43 64
        E 0 8d 43 64
        E 959 8f 28 64
        E 0 9f 28 5a
        E 481 96 40 64
        E 0 9d 40 64
        E 477 86 40 64
        E 0 8d 40 64
        E 0 96 40 64
        E 0 9d 40 64
        E 482 86 40 64
        E 0 8d 40 64
        E 0 96 41 64
        E 0 9d 41 64
        E 479 86 41 64
        E 0 8d 41 64
        E 0 96 43 64
        E 0 9d 43 64
        E 479 86 43 64
        E 0 8d 43 64
        E 1 96 43 64
        E 0 9d 43 64
        E 480 86 43 64
        E 0 8d 43 64
        E 960 8f 28 64
        E 0 96 43 64
        E 1 9d 43 64
        E 0 9f 28 5a
        E 479 86 43 64
        E 0 8d 43 64
        E 0 96 43 64
        E 0 9d 43 64
        E 241 86 43 64
        E 0 8d 43 64
        E 0 96 43 64
        E 0 9d 43 64
        E 243 86 43 64
        E 0 8d 43 64
        E 1 96 43 64
        E 0 9d 43 64
        E 474 86 43 64
        E 1 8d 43 64
        E 0 96 45 64
        E 0 9d 45 64
        E 479 86 45 64
        E 0 8d 45 64
        E 0 8f 28 64
        E 0 96 45 64
        E 0 9d 45 64
        E 1 9f 31 5a
        E 480 86 45 64
        E 0 8d 45 64
        E 0 96 45 64
        E 0 9d 45 64
        E 480 86 45 64
        E 0 8d 45 64
        E 961 8f 31 64
        E 4 96 40 64
        E 0 9d 40 64
        E 0 9f 31 5a
        E 475 86 40 64
        E 0 8d 40 64
        E 0 96 42 64
        E 0 9d 42 64
        E 480 86 42 64
        E 0 8d 42 64
        E 1 96 43 64
        E 0 9d 43 64
        E 479 86 43 64
        E 0 8d 43 64
        E 0 96 43 64
        E 0 9d 43 64
        E 239 86 43 64
        E 0 8d 43 64
        E 1 96 42 64
        E 0 9d 42 64
        E 239 86 42 64
        E 0 8d 42 64
        E 0 8f 31 64
        E 1 96 3e 64
        E 0 9d 3e 64
        E 0 9f 32 5a
        E 480 86 3e 64
        E 0 8d 3e 64
        E 0 96 3e 64
        E 0 9d 3e 64
        E 479 86 3e 64
        E 1 8d 3e 64
        E 961 8f 32 64
        E 1 96 47 64
        E 0 9d 47 64
        E 0 9f 33 5a
        E 957 86 47 64
        E 0 8d 47 64
        E 0 96 42 64
        E 0 9d 42 64
        E 482 86 42 64
        E 0 8d 42 64
        E 0 96 43 64
        E 0 9d 43 64
        E 480 86 43 64
        E 1 8d 43 64
        E 0 8f 33 64
        E 0 96 40 64
        E 0 9d 40 64
        E 0 9f 34 5a
        E 477 86 40 64
        E 0 8d 40 64
        E 0 96 40 64
        E 0 9d 40 64
        E 481 86 40 64
        E 0 8d 40 64
        E 960 8f 34 64
        E 0 96 47 64
        E 0 9d 47 64
        E 0 9f 34 5a
        E 479 86 47 64
        E 0 8d 47 64
        E 0 96 47 64
        E 0 9d 47 64
        E 481 86 47 64
        E 0 8d 47 64
        E 0 96 47 64
        E 0 9d 47 64
        E 480 86 47 64
        E 0 8d 47 64
        E 0 96 45 64
        E 0 9d 45 64
        E 239 86 45 64
        E 0 8d 45 64
        E 0 96 47 64
        E 0 9d 47 64
        E 241 86 47 64
        E 0 8d 47 64
        E 0 96 43 64
        E 0 9d 43 64
        E 479 86 43 64
        E 0 8d 43 64
        E 1 96 43 64
        E 0 9d 43 64
        E 479 86 43 64
        E 0 8d 43 64
        E 242 96 47 64
        E 3 9d 47 64
        E 236 86 47 64
        E 0 8d 47 64
        E 0 96 47 64
        E 1 9d 47 64
        E 239 86 47 64
        E 0 8d 47 64
        E 0 96 49 64
        E 0 9d 49 64
        E 241 86 49 64
        E 0 8d 49 64
        E 0 8f 34 64
        E 0 96 45 64
        E 0 9d 45 64
        E 0 9f 36 5a
        E 479 86 45 64
        E 0 8d 45 64
        E 0 96 45 64
        E 0 9d 45 64
        E 480 86 45 64
        E 0 8d 45 64
        E 481 96 42 64
        E 1 9d 42 64
        E 479 86 42 64
        E 0 8d 42 64
        E 0 96 45 64
        E 0 9d 45 64
        E 478 86 45 64
        E 0 8d 45 64
        E 0 96 45 64
        E 0 9d 45 64
        E 481 86 45 64
        E 0 8d 45 64
        E 0 96 45 64
        E 0 9d 45 64
        E 481 86 45 64
        E 0 8d 45 64
        E 1 96 47 64
        E 0 9d 47 64
        E 479 86 47 64
        E 0 8d 47 64
        E 0 8f 36 64
        E 0 96 48 64
        E 0 9d 48 64
        E 0 9f 36 5a
        E 479 86 48 64
        E 0 8d 48 64
        E 0 96 48 64
        E 0 9d 48 64
        E 481 86 48 64
        E 0 8d 48 64
        E 2 96 48 64
        E 0 9d 48 64
        E 475 86 48 64
        E 0 8d 48 64
        E 1 96 47 64
        E 0 9d 47 64
        E 481 86 47 64
        E 0 8d 47 64
        E 0 8f 36 64
        E 0 96 43 64
        E 0 9d 43 64
        E 0 9f 37 5a
        E 480 86 43 64
        E 0 8d 43 64
        E 0 96 43 64
        E 0 9d 43 64
        E 479 86 43 64
        E 0 8d 43 64
        E 961 8f 37 64
        E 0 96 48 64
        E 0 9d 48 64
        E 1 9f 34 5a
        E 479 86 48 64
        E 0 8d 48 64
        E 0 96 43 64
        E 0 9d 43 64
        E 480 86 43 64
        E 0 8d 43 64
        E 959 96 46 66
        E 0 9d 46 66
        E 961 86 46 66
        E 0 8d 46 66
        E 0 96 46 66
        E 0 9d 46 66
        E 479 86 46 66
        E 1 8d 46 66
        E 0 96 45 64
        E 0 9d 45 64
        E 480 86 45 64
        E 0 8d 45 64
        E 0 8f 34 64
        E 0 96 45 64
        E 0 9d 45 64
        E 0 9f 35 5a
        E 479 86 45 64
        E 0 8d 45 64
        E 0 96 45 64
        E 0 9d 45 64
        E 483 86 45 64
        E 0 8d 45 64
        E 0 8f 35 64
        E 0 96 4a 64
        E 0 9d 4a 64
        E 0 9f 2e 5b
        E 478 86 4a 64
        E 0 8d 4a 64
        E 0 96 46 66
        E 0 9d 46 66
        E 241 86 46 66
        E 0 8d 46 66
        E 0 96 45 64
        E 0 9d 45 64
        E 241 86 45 64
        E 0 8d 45 64
        E 0 8f 2e 66
        E 0 96 41 64
        E 0 9d 41 64
        E 0 9f 30 5a
        E 479 86 41 64
        E 0 8d 41 64
        E 0 96 41 64
        E 0 9d 41 64
        E 479 86 41 64
        E 0 8d 41 64
        E 0 8f 30 64
        E 0 9f 29 5a
        E 1441 8f 29 64
        E 3359 92 43 64
        E 0 93 43 5a
        E 0 9f 37 5a
        E 480 82 43 64
        E 0 83 43 64
        E 0 8f 37 64
        E 1 92 48 64
        E 1 93 48 5a
        E 0 9f 3c 5a
        E 477 82 48 64
        E 1 83 48 64
        E 0 8f 3c 64
        E 0 92 40 64
        E 1 93 40 5a
        E 0 9f 34 5a
        E 479 82 40 64
        E 0 83 40 64
        E 0 8f 34 64
        E 0 92 41 64
        E 0 93 41 5a
        E 0 9f 35 5a
        E 482 82 41 64
        E 0 83 41 64
        E 0 8f 35 64
        E 0 92 43 64
        E 0 93 43 5a
        E 0 9f 37 5a
        E 477 82 43 64
        E 0 83 43 64
        E 0 8f 37 64
        E 1 92 40 64
        E 0 93 40 5a
        E 0 9f 34 5a
        E 482 82 40 64
        E 0 83 40 64
        E 0 8f 34 64
        E 0 92 3c 64
        E 0 93 3c 5a
        E 0 9f 30 5a
        E 238 8f 30 64
        E 1 9f 32 5a
        E 239 82 3c 64
        E 0 83 3c 64
        E 0 8f 32 64
        E 0 93 43 5a
        E 0 9f 34 5a
        E 481 83 43 64
        E 0 8f 34 64
        E 1 92 4f 64
        E 0 93 40 5a
        E 0 9f 30 5a
        E 477 82 4f 64
        E 0 83 40 64
        E 0 8f 30 64
        E 0 92 54 64
        E 241 82 54 64
        E 0 92 4f 64
        E 239 82 4f 64
        E 0 92 4c 64
        E 0 93 40 5a
        E 1 9f 30 5a
        E 239 82 4c 64
        E 0 92 48 64
        E 241 82 48 64
        E 0 83 40 64
        E 0 8f 30 64
        E 0 92 3e 64
        E 0 93 3e 5a
        E 0 9f 2f 5a
        E 481 82 3e 64
        E 1 83 3e 64
        E 0 8f 2f 64
        E 0 92 41 64
        E 0 93 3b 5a
        E 0 9f 2b 5a
        E 479 82 41 64
        E 0 83 3b 64
        E 0 8f 2b 64
        E 0 92 40 64
        E 478 82 40 64
        E 1 92 3c 64
        E 0 93 40 5a
        E 0 9f 30 5a
        E 239 83 40 64
        E 0 8f 30 64
        E 1 93 41 5a
        E 0 9f 32 5a
        E 241 82 3c 64
        E 0 83 41 64
        E 1 8f 32 64
        E 0 93 43 5a
        E 0 9f 34 5a
        E 479 83 43 64
        E 0 8f 34 64
        E 0 92 4f 64
        E 1 93 40 5a
        E 0 9f 30 5a
        E 478 82 4f 64
        E 0 83 40 64
        E 0 8f 30 64
        E 0 92 54 64
        E 239 82 54 64
        E 1 92 4f 64
        E 239 82 4f 64
        E 0 92 4c 64
        E 0 93 40 5a
        E 0 9f 30 5a
        E 241 82 4c 64
        E 0 92 48 64
        E 241 82 48 64
        E 0 83 40 64
        E 0 8f 30 64
        E 0 92 3e 64
        E 0 93 3e 5a
        E 1 9f 2f 5a
        E 478 82 3e 64
        E 0 83 3e 64
        E 0 8f 2f 64
        E 0 92 41 64
        E 0 93 3b 5a
        E 0 9f 2b 5a
        E 482 82 41 64
        E 0 83 3b 64
        E 0 8f 2b 64
        E 0 92 40 64
        E 478 82 40 64
        E 0 92 3c 64
        E 0 93 40 5a
        E 0 9f 30 5a
        E 239 83 40 64
        E 0 8f 30 64
        E 0 93 41 5a
        E 0 9f 32 5a
        E 241 82 3c 64
        E 0 83 41 64
        E 0 8f 32 64
        E 0 93 43 5a
        E 0 9f 34 5a
        E 481 83 43 64
        E 0 8f 34 64
        E 0 92 4c 64
        E 1 93 40 5a
        E 0 9f 30 5a
        E 479 82 4c 64
        E 0 83 40 64
        E 0 8f 30 64
        E 0 92 4d 64
        E 0 93 48 5a
        E 0 9f 39 5a
        E 157 92 51 64
        E 82 82 4d 64
        E 78 92 4d 64
        E 80 82 51 64
        E 81 83 48 64
        E 0 8f 39 64
        E 0 92 4c 64
        E 0 93 47 5a
        E 0 9f 37 5a
        E 80 82 4d 64
        E 79 92 4f 64
        E 82 82 4c 64
        E 80 92 4c 64
        E 77 82 4f 64
        E 81 83 47 64
        E 0 8f 37 64
        E 1 92 4a 64
        E 0 93 45 5a
        E 0 9f 35 5a
        E 79 82 4c 64
        E 80 92 4d 64
        E 82 82 4a 64
        E 79 92 4a 64
        E 78 82 4d 64
        E 84 83 45 64
        E 0 8f 35 64
        E 0 92 48 64
        E 0 93 43 5a
        E 0 9f 34 5a
        E 78 82 4a 64
        E 79 92 4c 64
        E 83 82 48 64
        E 79 92 48 64
        E 77 82 4c 64
        E 83 83 43 64
        E 0 8f 34 64
        E 0 92 47 64
        E 0 93 41 5a
        E 0 9f 32 5a
        E 80 82 48 64
        E 78 92 4a 64
        E 83 82 47 64
        E 77 92 47 64
        E 79 82 4a 64
        E 85 83 41 64
        E 0 8f 32 64
        E 0 92 45 64
        E 0 93 40 5a
        E 0 9f 30 5a
        E 77 82 47 64
        E 78 92 48 64
        E 82 82 45 64
        E 80 92 45 64
        E 78 82 48 64
        E 83 83 40 64
        E 1 8f 30 64
        E 0 92 43 64
        E 0 93 3e 5a
        E 0 9f 2f 5a
        E 80 82 45 64
        E 76 92 47 64
        E 84 82 43 64
        E 77 92 43 64
        E 81 82 47 64
        E 81 83 3e 64
        E 0 8f 2f 64
        E 0 92 41 64
        E 0 93 3b 5a
        E 0 9f 2b 5a
        E 78 82 43 64
        E 81 92 45 64
        E 81 82 41 64
        E 79 92 41 64
        E 78 82 45 64
        E 83 83 3b 64
        E 0 8f 2b 64
        E 0 92 40 64
        E 0 93 37 5a
        E 0 9f 30 5a
        E 77 82 41 64
        E 403 82 40 64
        E 0 83 37 64
        E 0 8f 30 64
        E 0 92 48 64
        E 0 93 41 5a
        E 0 9f 32 5a
        E 480 82 48 64
        E 0 83 41 64
        E 0 8f 32 64
        E 0 92 48 64
        E 0 93 43 5a
        E 0 9f 34 5a
        E 479 83 43 64
        E 0 8f 34 64
        E 0 93 41 5a
        E 0 9f 32 5a
        E 241 82 48 64
        E 0 92 47 64
        E 119 82 47 64
        E 0 92 48 64
        E 121 82 48 64
        E 0 83 41 64
        E 0 8f 32 64
        E 0 92 4f 64
        E 0 93 40 5a
        E 0 9f 30 5a
        E 479 83 40 64
        E 0 8f 30 64
        E 0 93 41 5a
        E 0 9f 32 5a
        E 480 82 4f 64
        E 0 83 41 64
        E 0 8f 32 64
        E 1 93 43 5a
        E 0 9f 34 5a
        E 159 92 4d 64
        E 159 92 4c 64
        E 80 82 4d 64
        E 81 83 43 64
        E 0 8f 34 64
        E 1 92 4a 64
        E 0 93 40 5a
        E 0 9f 30 5a
        E 80 82 4c 64
        E 77 92 48 64
        E 83 82 4a 64
        E 79 92 46 66
        E 78 82 48 64
        E 82 83 40 64
        E 0 8f 30 64
        E 0 92 45 64
        E 0 93 3c 5a
        E 0 9f 35 5a
        E 78 82 46 66
        E 404 82 45 64
        E 0 83 3c 64
        E 0 8f 35 64
        E 0 92 4a 64
        E 0 93 47 5a
        E 1 9f 37 5a
        E 482 82 4a 64
        E 0 83 47 64
        E 0 8f 37 64
        E 0 92 4a 64
        E 0 93 45 5a
        E 0 9f 36 5a
        E 476 83 45 64
        E 0 8f 36 64
        E 0 93 43 5a
        E 0 9f 34 5a
        E 240 82 4a 64
        E 0 92 49 64
        E 118 82 49 64
        E 0 92 4a 64
        E 122 82 4a 64
        E 0 83 43 64
        E 0 8f 34 64
        E 0 92 51 64
        E 0 93 42 5a
        E 0 9f 32 5a
        E 481 83 42 64
        E 0 8f 32 64
        E 0 93 43 5a
        E 0 9f 34 5a
        E 481 82 51 64
        E 0 83 43 64
        E 0 8f 34 64
        E 0 93 45 5a
        E 0 9f 36 5a
        E 156 92 4f 64
        E 162 92 4e 64
        E 78 82 4f 64
        E 82 83 45 64
        E 0 8f 36 64
        E 0 92 4c 64
        E 0 93 42 5a
        E 0 9f 32 5a
        E 80 82 4e 64
        E 78 92 4a 64
        E 82 82 4c 64
        E 77 92 48 64
        E 81 82 4a 64
        E 83 83 42 64
        E 0 8f 32 64
        E 0 92 37 64
        E 0 93 3e 5a
        E 0 9f 37 5a
        E 77 82 48 64
        E 163 82 37 64
        E 1 92 3e 64
        E 238 82 3e 64
        E 0 8f 37 64
        E 0 92 47 64
        E 0 9f 39 5a
        E 480 82 47 64
        E 0 8f 39 64
        E 0 92 47 64
        E 0 9f 37 5a
        E 479 83 3e 64
        E 0 8f 37 64
        E 0 93 3e 5a
        E 0 9f 35 5a
        E 241 82 47 64
        E 0 92 45 64
        E 119 82 45 64
        E 0 92 47 64
        E 122 82 47 64
        E 0 83 3e 64
        E 0 8f 35 64
        E 1 92 37 64
        E 0 93 3c 5a
        E 0 9f 34 5a
        E 238 82 37 64
        E 0 92 40 64
        E 241 82 40 64
        E 0 8f 34 64
        E 1 92 48 64
        E 0 9f 32 5a
        E 479 82 48 64
        E 0 83 3c 64
        E 0 8f 32 64
        E 0 92 48 64
        E 0 93 43 5a
        E 0 9f 34 5a
        E 479 83 43 64
        E 0 8f 34 64
        E 0 93 45 5a
        E 0 9f 36 5a
        E 240 82 48 64
        E 0 92 47 64
        E 119 82 47 64
        E 1 92 48 64
        E 119 82 48 64
        E 0 83 45 64
        E 0 8f 36 64
        E 0 92 37 64
        E 0 93 3e 5a
        E 0 9f 37 5a
        E 240 82 37 64
        E 1 92 41 64
        E 241 82 41 64
        E 0 8f 37 64
        E 0 92 4a 64
        E 0 9f 39 5a
        E 480 82 4a 64
        E 0 83 3e 64
        E 0 8f 39 64
        E 0 92 4a 64
        E 0 93 47 5a
        E 0 9f 3b 5a
        E 478 8f 3b 64
        E 1 9f 37 5a
        E 240 82 4a 64
        E 0 92 48 64
        E 119 82 48 64
        E 0 92 4a 64
        E 122 82 4a 64
        E 0 83 47 64
        E 0 8f 37 64
        E 0 92 4c 64
        E 0 93 43 5a
        E 0 9f 3c 5a
        E 240 82 4c 64
        E 0 92 4d 64
        E 240 82 4d 64
        E 0 83 43 64
        E 1 8f 3c 64
        E 0 92 4f 64
        E 239 82 4f 64
        E 0 92 4a 64
        E 239 82 4a 64
        E 0 92 4c 64
        E 0 93 43 5a
        E 0 9f 30 5a
        E 239 82 4c 64
        E 1 92 47 64
        E 239 82 47 64
        E 0 83 43 64
        E 0 8f 30 64
        E 0 92 48 64
        E 241 82 48 64
        E 0 92 40 64
        E 240 82 40 64
        E 0 92 41 64
        E 0 93 3b 5a
        E 0 9f 2b 5a
        E 479 82 41 64
        E 0 92 4d 64
        E 482 82 4d 64
        E 0 92 4f 64
        E 480 82 4f 64
        E 0 92 51 64
        E 478 82 51 64
        E 0 83 3b 64
        E 0 8f 2b 64
        E 0 92 47 64
        E 0 93 3b 5a
        E 0 9f 2b 5a
        E 158 92 48 64
        E 83 82 47 64
        E 78 92 4a 64
        E 79 82 48 64
        E 83 83 3b 64
        E 0 8f 2b 64
        E 0 92 41 64
        E 1 93 3b 5a
        E 0 9f 2b 5a
        E 77 82 4a 64
        E 80 92 43 64
        E 82 82 41 64
        E 78 92 45 64
        E 80 82 43 64
        E 82 83 3b 64
        E 0 8f 2b 64
        E 0 92 37 64
        E 0 93 37 5a
        E 0 9f 37 5a
        E 80 82 45 64
        E 400 82 37 64
        E 0 83 37 64
        E 0 8f 37 64
        E 0 92 47 64
        E 0 93 43 5a
        E 0 9f 2b 5a
        E 481 82 47 64
        E 0 83 43 64
        E 0 8f 2b 64
        E 1 92 48 64
        E 0 93 40 5a
        E 0 9f 30 5a
        E 959 82 48 64
        E 0 83 40 64
        E 1 8f 30 64
        E 478 92 43 64
        E 0 93 43 5a
        E 0 97 43 64
        E 0 9f 37 5a
        E 481 82 43 64
        E 0 83 43 64
        E 0 87 43 64
        E 0 8f 37 64
        E 1 92 48 64
        E 0 93 48 5a
        E 0 97 48 64
        E 0 9f 3c 5a
        E 480 82 48 64
        E 0 83 48 64
        E 0 87 48 64
        E 0 8f 3c 64
        E 0 92 40 64
        E 0 93 40 5a
        E 0 97 40 64
        E 0 9f 34 5a
        E 479 82 40 64
        E 0 83 40 64
        E 0 87 40 64
        E 0 8f 34 64
        E 0 92 41 64
        E 0 93 41 5a
        E 0 97 41 64
        E 0 9f 35 5a
        E 480 82 41 64
        E 2 83 41 64
        E 0 87 41 64
        E 0 8f 35 64
        E 1 92 43 64
        E 0 93 43 5a
        E 0 97 43 64
        E 0 9f 37 5a
        E 476 82 43 64
        E 0 83 43 64
        E 0 87 43 64
        E 0 8f 37 64
        E 0 92 40 64
        E 1 93 40 5a
        E 0 97 40 64
        E 0 9f 34 5a
        E 479 82 40 64
        E 0 83 40 64
        E 0 87 40 64
        E 0 8f 34 64
        E 0 92 3c 64
        E 0 93 3c 5a
        E 0 97 3c 64
        E 0 9f 30 5a
        E 239 8f 30 64
        E 0 9f 32 5a
        E 241 82 3c 64
        E 0 83 3c 64
        E 0 87 3c 64
        E 0 8f 32 64
        E 0 9f 34 5a
        E 481 8f 34 64
        E 1 92 43 64
        E 0 93 40 5a
        E 0 97 43 64
        E 0 9f 30 5a
        E 477 82 43 64
        E 1 83 40 64
        E 0 87 43 64
        E 0 8f 30 64
        E 1 92 37 64
        E 0 93 40 5a
        E 0 97 48 64
        E 0 9f 30 5a
        E 238 82 37 64
        E 1 92 40 64
        E 242 82 40 64
        E 0 87 48 64
        E 0 8f 30 64
        E 2 92 48 64
        E 0 97 48 64
        E 1 9f 32 5a
        E 474 82 48 64
        E 0 87 48 64
        E 0 8f 32 64
        E 0 92 48 64
        E 0 97 48 64
        E 1 9f 34 5a
        E 479 83 40 64
        E 0 87 48 64
        E 0 8f 34 64
        E 0 93 40 5a
        E 0 97 47 64
        E 0 9f 30 5a
        E 243 82 48 64
        E 0 87 47 64
        E 0 92 47 64
        E 0 97 48 64
        E 118 82 47 64
        E 0 92 48 64
        E 119 82 48 64
        E 0 83 40 64
        E 0 87 48 64
        E 0 8f 30 64
        E 0 92 37 64
        E 0 93 3e 5a
        E 0 97 4a 64
        E 0 9f 2b 5a
        E 242 82 37 64
        E 0 92 3e 64
        E 240 82 3e 64
        E 0 87 4a 64
        E 0 8f 2b 64
        E 1 92 47 64
        E 0 97 43 64
        E 0 9f 2d 5a
        E 479 82 47 64
        E 0 87 43 64
        E 0 8f 2d 64
        E 0 92 47 64
        E 0 9f 2f 5a
        E 480 83 3e 64
        E 0 8f 2f 64
        E 1 93 3e 5a
        E 0 97 43 64
        E 0 9f 2d 5a
        E 237 82 47 64
        E 1 92 45 64
        E 119 82 45 64
        E 0 92 47 64
        E 121 82 47 64
        E 0 83 3e 64
        E 0 87 43 64
        E 0 8f 2d 64
        E 0 92 37 64
        E 0 93 3b 5a
        E 0 97 4a 64
        E 0 9f 2b 5a
        E 241 82 37 64
        E 0 92 41 64
        E 237 82 41 64
        E 1 87 4a 64
        E 0 8f 2b 64
        E 0 92 4a 64
        E 0 97 4a 64
        E 0 9f 2d 5a
        E 480 82 4a 64
        E 0 87 4a 64
        E 0 8f 2d 64
        E 0 92 4a 64
        E 0 97 4a 64
        E 0 9f 2f 5a
        E 481 83 3b 64
        E 0 87 4a 64
        E 0 8f 2f 64
        E 0 93 3b 5a
        E 0 97 48 64
        E 0 9f 2b 5a
        E 241 82 4a 64
        E 0 87 48 64
        E 1 92 48 64
        E 1 97 4a 64
        E 117 82 48 64
        E 0 92 4a 64
        E 119 82 4a 64
        E 0 83 3b 64
        E 0 87 4a 64
        E 0 8f 2b 64
        E 0 92 3c 64
        E 1 93 37 5a
        E 0 97 4c 64
        E 0 9f 30 5a
        E 239 82 3c 64
        E 0 87 4c 64
        E 1 92 43 64
        E 0 97 4a 64
        E 240 82 43 64
        E 0 87 4a 64
        E 0 8f 30 64
        E 0 92 4c 64
        E 0 97 48 64
        E 1 9f 32 5a
        E 481 82 4c 64
        E 0 87 48 64
        E 0 8f 32 64
        E 0 92 4c 64
        E 0 9f 34 5a
        E 478 83 37 64
        E 0 8f 34 64
        E 0 93 43 5a
        E 1 97 43 64
        E 0 9f 30 5a
        E 238 82 4c 64
        E 0 92 4a 64
        E 120 82 4a 64
        E 0 92 4c 64
        E 122 82 4c 64
        E 0 83 43 64
        E 0 87 43 64
        E 0 8f 30 64
        E 0 92 4c 64
        E 0 93 43 5a
        E 0 97 4c 64
        E 0 9f 30 5a
        E 238 82 4c 64
        E 0 87 4c 64
        E 1 92 4a 64
        E 0 97 4a 64
        E 241 82 4a 64
        E 0 87 4a 64
        E 1 8f 30 64
        E 0 92 48 64
        E 0 97 48 64
        E 0 9f 2f 5a
        E 238 82 48 64
        E 0 87 48 64
        E 0 92 47 64
        E 0 97 47 64
        E 240 82 47 64
        E 0 87 47 64
        E 0 8f 2f 64
        E 0 92 45 64
        E 0 97 45 64
        E 0 9f 30 5a
        E 481 82 45 64
        E 0 83 43 64
        E 0 87 45 64
        E 0 8f 30 64
        E 0 92 43 64
        E 0 93 40 5a
        E 0 97 43 64
        E 0 9f 31 5a
        E 479 82 43 64
        E 0 83 40 64
        E 0 87 43 64
        E 0 8f 31 64
        E 0 92 43 64
        E 0 93 39 5a
        E 0 97 43 64
        E 0 9f 32 5a
        E 478 82 43 64
        E 0 83 39 64
        E 1 87 43 64
        E 0 8f 32 64
        E 0 92 42 64
        E 0 93 43 5a
        E 0 97 42 64
        E 0 9f 34 5a
        E 479 82 42 64
        E 0 83 43 64
        E 0 87 42 64
        E 0 8f 34 64
        E 1 93 45 5a
        E 0 9f 36 5a
        E 480 83 45 64
        E 0 8f 36 64
        E 0 92 4a 64
        E 0 93 42 5a
        E 1 97 4a 64
        E 0 9f 32 5a
        E 481 82 4a 64
        E 0 83 42 64
        E 0 87 4a 64
        E 0 8f 32 64
        E 0 92 48 64
        E 0 93 45 5a
        E 0 97 48 64
        E 0 9f 39 5a
        E 158 92 4c 64
        E 79 82 48 64
        E 82 92 48 64
        E 77 82 4c 64
        E 83 83 45 64
        E 0 87 48 64
        E 0 8f 39 64
        E 0 92 47 64
        E 0 93 43 5a
        E 0 97 47 64
        E 0 9f 37 5a
        E 78 82 48 64
        E 80 92 4a 64
        E 83 82 47 64
        E 78 92 47 64
        E 78 82 4a 64
        E 83 83 43 64
        E 1 87 47 64
        E 0 8f 37 64
        E 0 92 45 64
        E 0 93 42 5a
        E 0 97 45 64
        E 0 9f 36 5a
        E 77 82 47 64
        E 79 92 48 64
        E 83 82 45 64
        E 78 92 45 64
        E 79 82 48 64
        E 83 83 42 64
        E 0 87 45 64
        E 0 8f 36 64
        E 0 92 43 64
        E 0 93 40 5a
        E 0 97 43 64
        E 0 9f 34 5a
        E 79 82 45 64
        E 78 92 47 64
        E 82 82 43 64
        E 81 92 43 64
        E 76 82 47 64
        E 83 83 40 64
        E 0 87 43 64
        E 0 8f 34 64
        E 0 92 42 64
        E 0 93 3e 5a
        E 0 97 42 64
        E 0 9f 32 5a
        E 78 82 43 64
        E 80 92 45 64
        E 84 82 42 64
        E 78 92 42 64
        E 78 82 45 64
        E 84 83 3e 64
        E 0 87 42 64
        E 0 8f 32 64
        E 0 92 40 64
        E 0 93 3c 5a
        E 1 97 40 64
        E 0 9f 30 5a
        E 77 82 42 64
        E 78 92 43 64
        E 81 82 40 64
        E 81 92 40 64
        E 77 82 43 64
        E 85 83 3c 64
        E 0 87 40 64
        E 0 8f 30 64
        E 0 92 3e 64
        E 0 93 3b 5a
        E 0 97 3e 64
        E 0 9f 2f 5a
        E 77 82 40 64
        E 79 92 42 64
        E 82 82 3e 64
        E 80 92 3e 64
        E 79 82 42 64
        E 82 83 3b 64
        E 0 87 3e 64
        E 0 8f 2f 64
        E 1 92 3c 64
        E 4 93 39 5a
        E 0 97 3c 64
        E 0 9f 2d 5a
        E 74 82 3e 64
        E 79 92 40 64
        E 81 82 3c 64
        E 78 92 3c 64
        E 80 82 40 64
        E 82 83 39 64
        E 0 87 3c 64
        E 0 8f 2d 64
        E 0 92 3b 64
        E 0 93 37 5a
        E 0 97 3b 64
        E 1 9f 2b 5a
        E 79 82 3c 64
        E 400 82 3b 64
        E 0 83 37 64
        E 0 87 3b 64
        E 0 8f 2b 64
        E 0 92 37 64
        E 0 93 43 5a
        E 0 97 37 64
        E 0 9f 37 5a
        E 481 82 37 64
        E 0 83 43 64
        E 0 87 37 64
        E 0 8f 37 64
        E 0 92 43 64
        E 0 93 47 5a
        E 0 97 43 64
        E 0 9f 3b 5a
        E 479 83 47 64
        E 0 8f 3b 64
        E 0 93 43 5a
        E 0 9f 37 5a
        E 482 82 43 64
        E 0 83 43 64
        E 0 87 43 64
        E 0 8f 37 64
        E 0 92 43 64
        E 0 93 40 5a
        E 0 97 43 64
        E 0 9f 34 5a
        E 479 82 43 64
        E 0 83 40 64
        E 0 87 43 64
        E 0 8f 34 64
        E 5 92 45 64
        E 0 93 43 5a
        E 0 97 45 64
        E 0 9f 37 5a
        E 234 82 45 64
        E 0 87 45 64
        E 0 92 47 64
        E 0 97 47 64
        E 241 82 47 64
        E 0 83 43 64
        E 0 87 47 64
        E 0 8f 37 64
        E 0 92 48 64
        E 0 93 45 5a
        E 0 97 48 64
        E 0 9f 39 5a
        E 479 82 48 64
        E 0 83 45 64
        E 0 87 48 64
        E 0 8f 39 64
        E 0 92 47 64
        E 0 93 3e 5a
        E 0 97 47 64
        E 0 9f 32 5a
        E 240 82 47 64
        E 0 87 47 64
        E 0 92 45 64
        E 1 97 45 64
        E 242 82 45 64
        E 0 83 3e 64
        E 0 87 45 64
        E 0 8f 32 64
        E 0 92 47 64
        E 0 93 43 5a
        E 0 97 47 64
        E 0 9f 37 5a
        E 478 82 47 64
        E 0 83 43 64
        E 0 87 47 64
        E 0 8f 37 64
        E 1 92 45 64
        E 0 93 45 5a
        E 0 97 45 64
        E 0 9f 39 5a
        E 479 82 45 64
        E 0 83 45 64
        E 0 87 45 64
        E 0 8f 39 64
        E 0 92 43 64
        E 0 93 47 5a
        E 0 97 43 64
        E 0 9f 3b 5a
        E 480 83 47 64
        E 0 8f 3b 64
        E 0 93 43 5a
        E 1 9f 37 5a
        E 480 82 43 64
        E 0 83 43 64
        E 1 87 43 64
        E 0 8f 37 64
        E 0 92 43 64
        E 0 93 40 5a
        E 0 97 43 64
        E 0 9f 34 5a
        E 477 82 43 64
        E 0 83 40 64
        E 0 87 43 64
        E 0 8f 34 64
        E 1 92 45 64
        E 0 93 43 5a
        E 0 97 45 64
        E 0 9f 37 5a
        E 241 82 45 64
        E 0 87 45 64
        E 0 92 47 64
        E 0 97 47 64
        E 239 82 47 64
        E 0 83 43 64
        E 0 87 47 64
        E 0 8f 37 64
        E 0 92 48 64
        E 0 93 45 5a
        E 0 97 48 64
        E 0 9f 39 5a
        E 479 82 48 64
        E 0 83 45 64
        E 0 87 48 64
        E 0 8f 39 64
        E 0 92 47 64
        E 1 93 3e 5a
        E 0 97 47 64
        E 0 9f 32 5a
        E 239 82 47 64
        E 1 87 47 64
        E 0 92 45 64
        E 0 97 45 64
        E 241 82 45 64
        E 1 83 3e 64
        E 0 87 45 64
        E 0 8f 32 64
        E 0 92 47 64
        E 0 93 43 5a
        E 0 97 47 64
        E 0 9f 37 5a
        E 477 82 47 64
        E 0 83 43 64
        E 0 87 47 64
        E 0 8f 37 64
        E 0 92 43 64
        E 0 93 45 5a
        E 0 97 43 64
        E 0 9f 39 5a
        E 481 82 43 64
        E 0 83 45 64
        E 0 87 43 64
        E 0 8f 39 64
        E 0 92 4f 64
        E 0 93 47 5a
        E 0 97 4f 64
        E 0 9f 3b 5a
        E 479 83 47 64
        E 0 8f 3b 64
        E 0 93 43 5a
        E 0 9f 37 5a
        E 480 82 4f 64
        E 0 83 43 64
        E 0 87 4f 64
        E 0 8f 37 64
        E 0 92 4f 64
        E 0 93 45 5a
        E 0 97 4f 64
        E 0 9f 39 5a
        E 481 82 4f 64
        E 0 83 45 64
        E 0 87 4f 64
        E 0 8f 39 64
        E 0 92 4e 64
        E 0 93 43 5a
        E 0 97 4e 64
        E 1 9f 37 5a
        E 239 82 4e 64
        E 0 87 4e 64
        E 0 92 4c 64
        E 0 97 4c 64
        E 241 82 4c 64
        E 0 83 43 64
        E 0 87 4c 64
        E 0 8f 37 64
        E 0 92 4a 64
        E 0 93 42 5a
        E 0 97 4a 64
        E 0 9f 36 5a
        E 479 82 4a 64
        E 0 83 42 64
        E 0 87 4a 64
        E 0 8f 36 64
        E 0 92 49 64
        E 2 93 40 5a
        E 0 97 49 64
        E 0 9f 34 5a
        E 478 82 49 64
        E 0 83 40 64
        E 0 87 49 64
        E 0 8f 34 64
        E 0 92 4a 64
        E 0 93 3e 5a
        E 0 97 4a 64
        E 0 9f 32 5a
        E 480 83 3e 64
        E 0 8f 32 64
        E 0 93 40 5a
        E 0 9f 34 5a
        E 480 82 4a 64
        E 0 83 40 64
        E 0 87 4a 64
        E 0 8f 34 64
        E 24 92 45 64
        E 2 93 42 5a
        E 0 97 45 64
        E 0 9f 36 5a
        E 453 83 42 64
        E 0 8f 36 64
        E 0 93 3e 5a
        E 0 9f 32 5a
        E 243 82 45 64
        E 0 87 45 64
        E 1 92 47 64
        E 1 97 47 64
        E 115 82 47 64
        E 0 87 47 64
        E 0 92 48 64
        E 0 97 48 64
        E 122 82 48 64
        E 0 83 3e 64
        E 0 87 48 64
        E 0 8f 32 64
        E 0 92 47 64
        E 0 93 37 5a
        E 0 97 47 64
        E 0 9f 2b 5a
        E 479 82 47 64
        E 0 83 37 64
        E 0 87 47 64
        E 0 8f 2b 64
        E 0 92 45 64
        E 0 93 43 5a
        E 0 97 45 64
        E 0 9f 37 5a
        E 239 82 45 64
        E 0 87 45 64
        E 1 92 43 64
        E 0 97 43 64
        E 239 82 43 64
        E 0 83 43 64
        E 0 87 43 64
        E 0 8f 37 64
        E 0 92 45 64
        E 0 93 3c 5a
        E 0 97 45 64
        E 1 9f 30 5a
        E 481 82 45 64
        E 0 83 3c 64
        E 0 87 45 64
        E 0 8f 30 64
        E 0 92 43 64
        E 0 93 3e 5a
        E 0 97 43 64
        E 0 9f 32 5a
        E 241 82 43 64
        E 0 87 43 64
        E 0 92 42 64
        E 0 97 42 64
        E 237 82 42 64
        E 0 83 3e 64
        E 0 87 42 64
        E 0 8f 32 64
        E 0 92 43 64
        E 0 93 37 5a
        E 0 97 43 64
        E 0 9f 2b 5a
        E 481 83 37 64
        E 0 8f 2b 64
        E 0 93 43 5a
        E 0 9f 37 5a
        E 481 82 43 64
        E 0 83 43 64
        E 0 87 43 64
        E 0 8f 37 64
        E 0 92 45 64
        E 0 93 3e 5a
        E 0 97 45 64
        E 0 9f 32 5a
        E 479 83 3e 64
        E 0 8f 32 64
        E 0 93 32 5a
        E 0 9f 26 5a
        E 239 82 45 64
        E 0 87 45 64
        E 0 92 47 64
        E 0 97 47 64
        E 120 82 47 64
        E 0 87 47 64
        E 0 92 48 64
        E 0 97 48 64
        E 121 82 48 64
        E 0 83 32 64
        E 0 87 48 64
        E 0 8f 26 64
        E 0 92 47 64
        E 0 93 37 5a
        E 0 97 47 64
        E 0 9f 2b 5a
        E 483 82 47 64
        E 0 83 37 64
        E 0 87 47 64
        E 0 8f 2b 64
        E 0 92 45 64
        E 0 93 43 5a
        E 0 97 45 64
        E 0 9f 37 5a
        E 236 82 45 64
        E 0 87 45 64
        E 0 92 43 64
        E 0 97 43 64
        E 246 82 43 64
        E 0 83 43 64
        E 0 87 43 64
        E 0 8f 37 64
        E 0 92 45 64
        E 0 93 3c 5a
        E 0 97 45 64
        E 0 9f 30 5a
        E 475 82 45 64
        E 0 83 3c 64
        E 0 87 45 64
        E 0 8f 30 64
        E 0 92 43 64
        E 0 93 3e 5a
        E 0 97 43 64
        E 0 9f 32 5a
        E 243 82 43 64
        E 0 87 43 64
        E 0 92 42 64
        E 0 97 42 64
        E 238 82 42 64
        E 0 83 3e 64
        E 0 87 42 64
        E 0 8f 32 64
        E 0 92 4f 64
        E 0 93 3e 5a
        E 0 97 43 64
        E 0 9f 2b 5a
        E 239 82 4f 64
        E 0 92 4a 64
        E 240 82 4a 64
        E 0 83 3e 64
        E 0 8f 2b 64
        E 1 92 47 64
        E 0 93 3e 5a
        E 0 9f 37 5a
        E 239 82 47 64
        E 0 92 43 64
        E 242 82 43 64
        E 0 83 3e 64
        E 0 87 43 64
        E 0 8f 37 64
        E 0 92 3e 64
        E 0 93 3e 5a
        E 0 9f 3e 5a
        E 478 82 3e 64
        E 0 83 3e 64
        E 0 8f 3e 64
        E 0 92 48 64
        E 0 93 3e 5a
        E 0 9f 32 5a
        E 485 82 48 64
        E 0 83 3e 64
        E 0 8f 32 64
        E 0 92 47 64
        E 0 93 3e 5a
        E 474 82 47 64
        E 1 83 3e 64
        E 0 92 43 64
        E 0 93 3b 5a
        E 0 9f 37 5a
        E 240 8f 37 64
        E 0 9f 39 5a
        E 241 82 43 64
        E 0 83 3b 64
        E 1 8f 39 64
        E 0 9f 3b 5a
        E 478 8f 3b 64
        E 0 92 4a 64
        E 0 93 43 5a
        E 0 9f 37 5a
        E 480 82 4a 64
        E 0 83 43 64
        E 1 8f 37 64
        E 0 92 4f 64
        E 0 93 47 5a
        E 238 82 4f 64
        E 1 92 4a 64
        E 240 82 4a 64
        E 0 83 47 64
        E 1 92 47 64
        E 1 93 3e 5a
        E 0 9f 2b 5a
        E 238 82 47 64
        E 0 92 43 64
        E 242 82 43 64
        E 0 83 3e 64
        E 0 8f 2b 64
        E 0 92 3e 64
        E 1 93 3e 5a
        E 0 9f 32 5a
        E 477 82 3e 64
        E 0 83 3e 64
        E 0 8f 32 64
        E 0 92 54 64
        E 0 93 3e 5a
        E 0 9f 26 5a
        E 480 82 54 64
        E 0 83 3e 64
        E 0 8f 26 64
        E 0 92 53 64
        E 0 93 43 5a
        E 0 9f 37 5a
        E 159 92 56 64
        E 83 82 53 64
        E 76 92 53 64
        E 79 82 56 64
        E 83 83 43 64
        E 0 8f 37 64
        E 0 92 51 64
        E 1 93 42 5a
        E 4 9f 36 5a
        E 74 82 53 64
        E 79 92 54 64
        E 81 82 51 64
        E 80 92 51 64
        E 78 82 54 64
        E 83 83 42 64
        E 1 8f 36 64
        E 0 92 4f 64
        E 0 93 40 5a
        E 0 9f 34 5a
        E 78 82 51 64
        E 79 92 53 64
        E 82 82 4f 64
        E 80 92 4f 64
        E 78 82 53 64
        E 83 83 40 64
        E 0 8f 34 64
        E 1 92 4e 64
        E 0 93 3e 5a
        E 0 9f 32 5a
        E 77 82 4f 64
        E 77 92 51 64
        E 84 82 4e 64
        E 80 92 4e 64
        E 76 82 51 64
        E 83 83 3e 64
        E 1 8f 32 64
        E 0 92 4c 64
        E 0 93 3c 5a
        E 0 9f 30 5a
        E 80 82 4e 64
        E 78 92 4f 64
        E 81 82 4c 64
        E 81 92 4c 64
        E 77 82 4f 64
        E 81 83 3c 64
        E 0 8f 30 64
        E 1 92 4a 64
        E 0 93 3b 5a
        E 0 9f 2f 5a
        E 79 82 4c 64
        E 79 92 4e 64
        E 84 82 4a 64
        E 78 92 4a 64
        E 78 82 4e 64
        E 82 83 3b 64
        E 0 8f 2f 64
        E 0 92 48 64
        E 0 93 39 5a
        E 0 9f 2d 5a
        E 81 82 4a 64
        E 77 92 4c 64
        E 82 82 48 64
        E 79 92 48 64
        E 80 82 4c 64
        E 82 83 39 64
        E 1 8f 2d 64
        E 1 92 47 64
        E 0 93 37 5a
        E 0 9f 2b 5a
        E 78 82 48 64
        E 78 92 4a 64
        E 81 82 47 64
        E 81 92 47 64
        E 78 82 4a 64
        E 82 83 37 64
        E 0 8f 2b 64
        E 0 92 45 64
        E 0 93 3e 5a
        E 0 9f 32 5a
        E 78 82 47 64
        E 163 82 45 64
        E 0 92 4e 64
        E 239 82 4e 64
        E 0 83 3e 64
        E 0 8f 32 64
        E 0 92 4f 64
        E 0 93 3c 5a
        E 0 9f 30 5a
        E 241 82 4f 64
        E 0 92 51 64
        E 239 82 51 64
        E 0 83 3c 64
        E 0 8f 30 64
        E 0 92 4a 64
        E 0 93 3e 5a
        E 0 9f 32 5a
        E 480 82 4a 64
        E 0 83 3e 64
        E 0 8f 32 64
        E 0 92 4e 64
        E 0 93 32 5a
        E 1 97 4a 64
        E 0 9f 26 5a
        E 480 82 4e 64
        E 0 83 32 64
        E 0 87 4a 64
        E 0 8f 26 64
        E 0 92 4f 64
        E 0 93 43 5a
        E 0 97 4f 64
        E 0 9f 37 5a
        E 478 82 4f 64
        E 0 83 43 64
        E 1 87 4f 64
        E 0 8f 37 64
        E 1 92 47 64
        E 0 93 47 5a
        E 0 97 47 64
        E 0 9f 3b 5a
        E 479 82 47 64
        E 0 83 47 64
        E 0 87 47 64
        E 0 8f 3b 64
        E 0 92 48 64
        E 0 93 48 5a
        E 0 97 48 64
        E 0 9f 3c 5a
        E 480 82 48 64
        E 0 83 48 64
        E 0 87 48 64
        E 0 8f 3c 64
        E 0 92 4a 64
        E 0 93 4a 5a
        E 0 97 4a 64
        E 0 9f 3e 5a
        E 482 82 4a 64
        E 0 83 4a 64
        E 0 87 4a 64
        E 0 8f 3e 64
        E 0 92 47 64
        E 0 93 47 5a
        E 0 97 47 64
        E 0 9f 3b 5a
        E 478 82 47 64
        E 1 83 47 64
        E 0 87 47 64
        E 0 8f 3b 64
        E 0 92 43 64
        E 0 93 3b 5a
        E 0 97 43 64
        E 0 9f 37 5a
        E 240 83 3b 64
        E 0 8f 37 64
        E 0 93 3c 5a
        E 0 9f 39 5a
        E 240 82 43 64
        E 0 83 3c 64
        E 0 87 43 64
        E 0 8f 39 64
        E 0 93 3e 5a
        E 0 9f 3b 5a
        E 479 83 3e 64
        E 0 8f 3b 64
        E 1 92 4f 64
        E 3 93 3b 5a
        E 0 97 3e 64
        E 1 9f 37 5a
        E 477 82 4f 64
        E 0 83 3b 64
        E 0 87 3e 64
        E 0 8f 37 64
        E 0 92 3e 64
        E 0 93 3e 5a
        E 0 97 43 64
        E 236 82 3e 64
        E 0 92 47 64
        E 242 82 47 64
        E 0 87 43 64
        E 0 92 4f 64
        E 0 97 43 64
        E 0 9f 2b 5a
        E 239 8f 2b 64
        E 0 9f 2d 5a
        E 241 82 4f 64
        E 0 87 43 64
        E 0 8f 2d 64
        E 0 92 4f 64
        E 0 97 43 64
        E 0 9f 2f 5a
        E 479 83 3e 64
        E 0 87 43 64
        E 0 8f 2f 64
        E 1 93 3e 5a
        E 0 97 42 64
        E 0 9f 2b 5a
        E 240 82 4f 64
        E 0 87 42 64
        E 1 92 4e 64
        E 0 97 43 64
        E 118 82 4e 64
        E 0 92 4f 64
        E 122 82 4f 64
        E 0 83 3e 64
        E 0 87 43 64
        E 0 8f 2b 64
        E 0 92 3e 64
        E 1 93 3e 5a
        E 0 97 45 64
        E 237 82 3e 64
        E 0 87 45 64
        E 0 92 45 64
        E 0 97 43 64
        E 241 82 45 64
        E 0 87 43 64
        E 1 92 4e 64
        E 0 97 45 64
        E 1 9f 32 5a
        E 238 8f 32 64
        E 0 9f 34 5a
        E 242 82 4e 64
        E 0 87 45 64
        E 0 8f 34 64
        E 0 92 4e 64
        E 0 9f 36 5a
        E 478 83 3e 64
        E 0 8f 36 64
        E 0 93 3e 5a
        E 0 97 3e 64
        E 0 9f 32 5a
        E 239 82 4e 64
        E 1 92 4c 64
        E 119 82 4c 64
        E 0 92 4e 64
        E 122 82 4e 64
        E 0 83 3e 64
        E 0 87 3e 64
        E 0 8f 32 64
        E 0 92 3e 64
        E 0 93 42 5a
        E 0 97 48 64
        E 240 82 3e 64
        E 0 92 45 64
        E 240 82 45 64
        E 0 87 48 64
        E 0 92 51 64
        E 0 97 48 64
        E 0 9f 32 5a
        E 240 8f 32 64
        E 0 9f 34 5a
        E 240 82 51 64
        E 0 87 48 64
        E 0 8f 34 64
        E 0 92 51 64
        E 0 97 48 64
        E 0 9f 36 5a
        E 479 83 42 64
        E 0 87 48 64
        E 0 8f 36 64
        E 4 93 42 5a
        E 0 97 47 64
        E 0 9f 32 5a
        E 234 82 51 64
        E 0 87 47 64
        E 0 92 4f 64
        E 0 97 45 64
        E 121 82 4f 64
        E 0 92 51 64
        E 121 82 51 64
        E 0 83 42 64
        E 0 87 45 64
        E 0 8f 32 64
        E 0 92 3e 64
        E 0 93 3e 5a
        E 0 97 47 64
        E 240 82 3e 64
        E 0 87 47 64
        E 0 92 47 64
        E 0 97 45 64
        E 240 82 47 64
        E 1 87 45 64
        E 0 92 4f 64
        E 0 97 43 64
        E 0 9f 37 5a
        E 239 8f 37 64
        E 0 9f 39 5a
        E 241 82 4f 64
        E 0 87 43 64
        E 0 8f 39 64
        E 0 92 4f 64
        E 1 9f 3b 5a
        E 479 83 3e 64
        E 0 8f 3b 64
        E 0 93 3e 5a
        E 0 97 43 64
        E 0 9f 37 5a
        E 240 82 4f 64
        E 0 92 4e 64
        E 117 82 4e 64
        E 0 92 4f 64
        E 123 82 4f 64
        E 0 83 3e 64
        E 0 87 43 64
        E 0 8f 37 64
        E 0 92 4d 64
        E 0 93 48 5a
        E 0 97 4d 64
        E 0 9f 39 5a
        E 157 92 51 64
        E 81 82 4d 64
        E 79 92 4d 64
        E 80 82 51 64
        E 81 83 48 64
        E 0 87 4d 64
        E 0 8f 39 64
        E 0 92 4c 64
        E 0 93 47 5a
        E 0 97 4c 64
        E 0 9f 37 5a
        E 79 82 4d 64
        E 81 92 4f 64
        E 82 82 4c 64
        E 79 92 4c 64
        E 77 82 4f 64
        E 84 83 47 64
        E 0 87 4c 64
        E 0 8f 37 64
        E 0 92 4a 64
        E 0 93 45 5a
        E 0 97 4a 64
        E 0 9f 35 5a
        E 79 82 4c 64
        E 77 92 4d 64
        E 87 82 4a 64
        E 75 92 4a 64
        E 78 82 4d 64
        E 84 83 45 64
        E 0 87 4a 64
        E 0 8f 35 64
        E 0 92 48 64
        E 0 93 43 5a
        E 0 97 48 64
        E 1 9f 34 5a
        E 77 82 4a 64
        E 78 92 4c 64
        E 85 82 48 64
        E 78 92 48 64
        E 79 82 4c 64
        E 83 83 43 64
        E 0 87 48 64
        E 0 8f 34 64
        E 0 92 47 64
        E 0 93 41 5a
        E 0 97 47 64
        E 0 9f 32 5a
        E 77 82 48 64
        E 79 92 4a 64
        E 82 82 47 64
        E 79 92 47 64
        E 77 82 4a 64
        E 84 83 41 64
        E 0 87 47 64
        E 0 8f 32 64
        E 0 92 45 64
        E 0 93 40 5a
        E 1 97 45 64
        E 0 9f 30 5a
        E 79 82 47 64
        E 79 92 48 64
        E 81 82 45 64
        E 79 92 45 64
        E 79 82 48 64
        E 82 83 40 64
        E 0 87 45 64
        E 0 8f 30 64
        E 0 92 43 64
        E 0 93 3e 5a
        E 2 97 43 64
        E 0 9f 2f 5a
        E 77 82 45 64
        E 79 92 47 64
        E 82 82 43 64
        E 80 92 43 64
        E 76 82 47 64
        E 89 83 3e 64
        E 0 87 43 64
        E 0 8f 2f 64
        E 1 92 41 64
        E 0 93 3b 5a
        E 0 97 41 64
        E 1 9f 2b 5a
        E 71 82 43 64
        E 81 92 45 64
        E 81 82 41 64
        E 79 92 41 64
        E 79 82 45 64
        E 82 83 3b 64
        E 0 87 41 64
        E 0 8f 2b 64
        E 0 92 40 64
        E 0 93 3c 5a
        E 0 97 40 64
        E 0 9f 30 5a
        E 79 82 41 64
        E 401 82 40 64
        E 0 83 3c 64
        E 0 87 40 64
        E 0 8f 30 64
        E 0 92 3c 64
        E 0 93 3c 5a
        E 0 97 3c 64
        E 0 9f 30 5a
        E 240 83 3c 64
        E 0 8f 30 64
        E 0 93 3e 5a
        E 0 9f 32 5a
        E 242 82 3c 64
        E 0 83 3e 64
        E 0 87 3c 64
        E 0 8f 32 64
        E 0 92 43 64
        E 0 93 40 5a
        E 0 97 43 64
        E 0 9f 34 5a
        E 478 83 40 64
        E 0 8f 34 64
        E 0 93 3c 5a
        E 0 9f 30 5a
        E 480 82 43 64
        E 0 83 3c 64
        E 0 87 43 64
        E 0 8f 30 64
        E 0 92 43 64
        E 0 93 40 5a
        E 1 97 43 64
        E 0 9f 34 5a
        E 478 82 43 64
        E 1 83 40 64
        E 0 87 43 64
        E 0 8f 34 64
        E 0 92 45 64
        E 0 93 3e 5a
        E 0 97 45 64
        E 0 9f 32 5a
        E 241 82 45 64
        E 0 87 45 64
        E 0 92 47 64
        E 0 97 47 64
        E 239 82 47 64
        E 0 83 3e 64
        E 0 87 47 64
        E 0 8f 32 64
        E 0 92 48 64
        E 0 93 40 5a
        E 0 97 48 64
        E 0 9f 34 5a
        E 480 82 48 64
        E 0 83 40 64
        E 0 87 48 64
        E 0 8f 34 64
        E 1 92 46 66
        E 0 93 3c 5a
        E 0 97 46 66
        E 0 9f 30 5a
        E 478 82 46 66
        E 0 83 3c 64
        E 0 87 46 66
        E 0 8f 30 64
        E 0 92 45 64
        E 0 93 41 5a
        E 0 97 45 64
        E 0 9f 35 5a
        E 479 82 45 64
        E 0 83 41 64
        E 0 87 45 64
        E 0 8f 35 64
        E 0 92 43 64
        E 1 93 40 5a
        E 0 97 43 64
        E 0 9f 34 5a
        E 242 82 43 64
        E 1 87 43 64
        E 0 92 41 64
        E 0 97 41 64
        E 238 82 41 64
        E 0 83 40 64
        E 0 87 41 64
        E 0 8f 34 64
        E 0 92 45 64
        E 0 93 41 5a
        E 1 97 45 64
        E 0 9f 35 5a
        E 478 83 41 64
        E 0 8f 35 64
        E 0 93 35 5a
        E 1 9f 29 5a
        E 481 82 45 64
        E 0 87 45 64
        E 0 83 35 64
        E 0 8f 29 64
        E 0 92 45 64
        E 0 97 45 64
        E 0 93 42 5a
        E 0 9f 36 5a
        E 479 82 45 64
        E 0 87 45 64
        E 0 83 42 64
        E 0 8f 36 64
        E 0 92 47 64
        E 0 97 47 64
        E 0 93 40 5a
        E 0 9f 34 5a
        E 241 82 47 64
        E 0 87 47 64
        E 0 92 48 64
        E 1 97 48 64
        E 238 82 48 64
        E 0 87 48 64
        E 0 83 40 64
        E 0 8f 34 64
        E 0 92 4a 64
        E 0 97 4a 64
        E 1 93 42 5a
        E 0 9f 36 5a
        E 479 82 4a 64
        E 0 87 4a 64
        E 0 83 42 64
        E 0 8f 36 64
        E 0 92 48 64
        E 0 97 48 64
        E 0 93 3e 5a
        E 0 9f 32 5a
        E 479 82 48 64
        E 0 87 48 64
        E 0 83 3e 64
        E 0 8f 32 64
        E 0 92 47 64
        E 0 97 47 64
        E 0 93 43 5a
        E 0 9f 37 5a
        E 480 82 47 64
        E 0 87 47 64
        E 0 83 43 64
        E 0 8f 37 64
        E 0 92 45 64
        E 2 97 45 64
        E 0 93 42 5a
        E 0 9f 36 5a
        E 240 82 45 64
        E 0 87 45 64
        E 1 92 43 64
        E 0 97 43 64
        E 238 82 43 64
        E 0 87 43 64
        E 0 83 42 64
        E 0 8f 36 64
        E 0 92 47 64
        E 0 97 47 64
        E 1 93 43 5a
        E 0 9f 37 5a
        E 479 83 43 64
        E 0 8f 37 64
        E 0 93 37 5a
        E 0 9f 2b 5a
        E 480 82 47 64
        E 0 87 47 64
        E 0 83 37 64
        E 0 8f 2b 64
        E 0 92 47 64
        E 0 97 47 64
        E 0 93 44 5a
        E 0 9f 38 5a
        E 481 82 47 64
        E 0 87 47 64
        E 0 83 44 64
        E 0 8f 38 64
        E 1 92 48 64
        E 0 97 48 64
        E 0 93 42 5a
        E 0 9f 36 5a
        E 239 82 48 64
        E 0 87 48 64
        E 0 92 4a 64
        E 1 97 4a 64
        E 238 82 4a 64
        E 0 87 4a 64
        E 0 83 42 64
        E 0 8f 36 64
        E 0 92 4c 64
        E 0 97 4c 64
        E 0 93 44 5a
        E 0 9f 38 5a
        E 480 82 4c 64
        E 0 87 4c 64
        E 0 83 44 64
        E 0 8f 38 64
        E 0 92 4a 64
        E 0 97 4a 64
        E 0 93 40 5a
        E 0 9f 34 5a
        E 480 82 4a 64
        E 0 87 4a 64
        E 0 83 40 64
        E 0 8f 34 64
        E 0 92 48 64
        E 0 97 48 64
        E 0 93 45 5a
        E 0 9f 39 5a
        E 481 82 48 64
        E 0 87 48 64
        E 0 83 45 64
        E 0 8f 39 64
        E 0 92 45 64
        E 1 97 45 64
        E 0 93 44 5a
        E 0 9f 38 5a
        E 478 82 45 64
        E 0 87 45 64
        E 0 83 44 64
        E 0 8f 38 64
        E 0 93 45 5a
        E 0 9f 39 5a
        E 480 83 45 64
        E 0 8f 39 64
        E 0 92 45 64
        E 1 97 45 64
        E 0 93 39 5a
        E 0 9f 2d 5a
        E 478 82 45 64
        E 0 83 39 64
        E 0 87 45 64
        E 0 8f 2d 64
        E 0 92 41 64
        E 0 93 45 5a
        E 0 97 41 64
        E 0 9f 39 5a
        E 242 82 41 64
        E 0 87 41 64
        E 1 92 43 64
        E 0 97 43 64
        E 241 82 43 64
        E 0 83 45 64
        E 0 87 43 64
        E 0 8f 39 64
        E 1 92 45 64
        E 1 93 43 5a
        E 0 97 45 64
        E 0 9f 37 5a
        E 234 82 45 64
        E 0 87 45 64
        E 0 92 47 64
        E 0 97 47 64
        E 241 82 47 64
        E 0 83 43 64
        E 0 87 47 64
        E 0 8f 37 64
        E 0 92 48 64
        E 0 93 45 5a
        E 0 97 48 64
        E 0 9f 39 5a
        E 240 82 48 64
        E 0 87 48 64
        E 1 92 4a 64
        E 1 97 4a 64
        E 238 82 4a 64
        E 0 83 45 64
        E 0 87 4a 64
        E 0 8f 39 64
        E 0 92 4c 64
        E 0 93 41 5a
        E 0 97 4c 64
        E 0 9f 35 5a
        E 240 82 4c 64
        E 0 87 4c 64
        E 0 92 4d 64
        E 0 97 4d 64
        E 239 82 4d 64
        E 1 83 41 64
        E 0 87 4d 64
        E 0 8f 35 64
        E 0 92 47 64
        E 0 93 43 5a
        E 0 97 47 64
        E 0 9f 37 5a
        E 481 82 47 64
        E 0 83 43 64
        E 0 87 47 64
        E 0 8f 37 64
        E 0 92 43 64
        E 0 93 41 5a
        E 0 97 43 64
        E 0 9f 35 5a
        E 479 82 43 64
        E 0 83 41 64
        E 0 87 43 64
        E 0 8f 35 64
        E 0 92 4a 64
        E 0 93 43 5a
        E 1 97 4a 64
        E 0 9f 37 5a
        E 479 83 43 64
        E 0 8f 37 64
        E 1 93 37 5a
        E 0 9f 2b 5a
        E 240 82 4a 64
        E 0 87 4a 64
        E 0 92 4c 64
        E 1 97 4c 64
        E 116 82 4c 64
        E 0 87 4c 64
        E 1 92 4d 64
        E 0 97 4d 64
        E 121 82 4d 64
        E 0 83 37 64
        E 0 87 4d 64
        E 0 8f 2b 64
        E 0 92 4c 64
        E 0 93 37 5a
        E 0 97 4c 64
        E 0 9f 24 5a
        E 480 82 4c 64
        E 0 83 37 64
        E 0 87 4c 64
        E 0 8f 24 64
        E 0 92 4a 64
        E 0 93 37 5a
        E 0 97 4a 64
        E 0 9f 30 5a
        E 240 82 4a 64
        E 0 87 4a 64
        E 0 92 48 64
        E 0 97 48 64
        E 241 82 48 64
        E 0 83 37 64
        E 0 87 48 64
        E 0 8f 30 64
        E 0 92 4a 64
        E 0 93 39 5a
        E 0 97 4a 64
        E 0 9f 29 5a
        E 479 82 4a 64
        E 0 83 39 64
        E 0 87 4a 64
        E 0 8f 29 64
        E 0 92 48 64
        E 0 93 37 5a
        E 0 97 48 64
        E 0 9f 2b 5a
        E 241 82 48 64
        E 0 87 48 64
        E 0 92 47 64
        E 0 97 47 64
        E 239 82 47 64
        E 0 83 37 64
        E 0 87 47 64
        E 0 8f 2b 64
        E 0 92 48 64
        E 0 93 37 5a
        E 0 97 48 64
        E 0 9f 24 5a
        E 481 8f 24 64
        E 1 9f 30 5a
        E 238 8f 30 64
        E 0 9f 2f 5a
        E 240 82 48 64
        E 0 83 37 64
        E 0 87 48 64
        E 0 8f 2f 64
        E 0 9f 30 5a
        E 479 8f 30 64
        E 1 92 43 64
        E 0 97 43 64
        E 0 9f 30 5a
        E 482 82 43 64
        E 0 87 43 64
        E 0 8f 30 64
        E 0 92 4d 64
        E 0 93 48 5a
        E 0 97 4d 64
        E 0 9f 39 5a
        E 154 92 51 64
        E 85 82 4d 64
        E 77 92 4d 64
        E 79 82 51 64
        E 83 83 48 64
        E 0 87 4d 64
        E 0 8f 39 64
        E 0 92 4c 64
        E 0 93 47 5a
        E 1 97 4c 64
        E 0 9f 37 5a
        E 77 82 4d 64
        E 83 92 4f 64
        E 79 82 4c 64
        E 78 92 4c 64
        E 80 82 4f 64
        E 83 83 47 64
        E 0 87 4c 64
        E 0 8f 37 64
        E 0 92 4a 64
        E 0 93 45 5a
        E 0 97 4a 64
        E 0 9f 35 5a
        E 77 82 4c 64
        E 83 92 4d 64
        E 79 82 4a 64
        E 79 92 4a 64
        E 78 82 4d 64
        E 83 83 45 64
        E 0 87 4a 64
        E 0 8f 35 64
        E 1 92 48 64
        E 3 93 43 5a
        E 0 97 48 64
        E 0 9f 34 5a
        E 75 82 4a 64
        E 79 92 4c 64
        E 83 82 48 64
        E 78 92 48 64
        E 77 82 4c 64
        E 84 83 43 64
        E 0 87 48 64
        E 0 8f 34 64
        E 0 92 47 64
        E 0 93 41 5a
        E 0 97 47 64
        E 0 9f 32 5a
        E 78 82 48 64
        E 84 92 4a 64
        E 79 82 47 64
        E 78 92 47 64
        E 77 82 4a 64
        E 85 83 41 64
        E 0 87 47 64
        E 0 8f 32 64
        E 0 92 45 64
        E 0 93 40 5a
        E 0 97 45 64
        E 0 9f 30 5a
        E 77 82 47 64
        E 79 92 48 64
        E 81 82 45 64
        E 81 92 45 64
        E 80 82 48 64
        E 82 83 40 64
        E 0 87 45 64
        E 0 8f 30 64
        E 0 92 43 64
        E 0 93 3e 5a
        E 0 97 43 64
        E 0 9f 2f 5a
        E 77 82 45 64
        E 78 92 47 64
        E 84 82 43 64
        E 78 92 43 64
        E 79 82 47 64
        E 82 83 3e 64
        E 0 87 43 64
        E 0 8f 2f 64
        E 0 92 41 64
        E 0 93 3b 5a
        E 0 97 41 64
        E 0 9f 2b 5a
        E 80 82 43 64
        E 78 92 45 64
        E 85 82 41 64
        E 75 92 41 64
        E 81 82 45 64
        E 82 83 3b 64
        E 0 87 41 64
        E 0 8f 2b 64
        E 0 92 40 64
        E 0 93 37 5a
        E 0 97 40 64
        E 0 9f 30 5a
        E 79 82 41 64
        E 399 82 40 64
        E 0 83 37 64
        E 0 87 40 64
        E 0 8f 30 64
        E 0 92 3c 64
        E 1 93 37 5a
        E 0 97 3c 64
        E 0 9f 34 5a
        E 481 82 3c 64
        E 0 83 37 64
        E 0 87 3c 64
        E 0 8f 34 64
        E 0 92 4a 64
        E 0 93 37 5a
        E 0 97 4a 64
        E 0 9f 2f 5a
        E 480 8f 2f 64
        E 0 9f 2b 5a
        E 241 82 4a 64
        E 0 87 4a 64
        E 0 92 4c 64
        E 0 97 4c 64
        E 119 82 4c 64
        E 0 87 4c 64
        E 0 92 4d 64
        E 0 97 4d 64
        E 121 82 4d 64
        E 1 83 37 64
        E 0 87 4d 64
        E 0 8f 2b 64
        E 0 92 48 64
        E 0 93 37 5a
        E 0 97 4c 64
        E 0 9f 24 5a
        E 478 82 48 64
        E 0 83 37 64
        E 0 87 4c 64
        E 0 8f 24 64
        E 0 92 40 64
        E 1 93 37 5a
        E 0 97 4a 64
        E 0 9f 30 5a
        E 238 87 4a 64
        E 1 97 48 64
        E 241 82 40 64
        E 0 83 37 64
        E 0 87 48 64
        E 0 8f 30 64
        E 0 92 41 64
        E 0 93 39 5a
        E 0 97 4a 64
        E 0 9f 29 5a
        E 479 82 41 64
        E 1 83 39 64
        E 0 87 4a 64
        E 0 8f 29 64
        E 1 92 3e 64
        E 1 93 37 5a
        E 0 97 48 64
        E 0 9f 2b 5a
        E 238 87 48 64
        E 0 97 47 64
        E 240 82 3e 64
        E 0 83 37 64
        E 0 87 47 64
        E 0 8f 2b 64
        E 0 92 40 64
        E 0 93 37 5a
        E 0 97 48 64
        E 0 9f 30 5a
        E 479 87 48 64
        E 0 8f 30 64
        E 0 97 43 64
        E 0 9f 34 5a
        E 482 82 40 64
        E 0 83 37 64
        E 0 87 43 64
        E 0 8f 34 64
        E 0 92 47 64
        E 0 93 37 5a
        E 0 97 4a 64
        E 0 9f 2f 5a
        E 478 8f 2f 64
        E 0 9f 2b 5a
        E 241 82 47 64
        E 0 87 4a 64
        E 0 92 48 64
        E 0 97 4c 64
        E 116 82 48 64
        E 0 87 4c 64
        E 1 92 4a 64
        E 0 97 4d 64
        E 122 82 4a 64
        E 0 83 37 64
        E 0 87 4d 64
        E 0 8f 2b 64
        E 0 92 4c 64
        E 1 93 37 5a
        E 0 97 4c 64
        E 0 9f 24 5a
        E 479 82 4c 64
        E 0 83 37 64
        E 0 87 4c 64
        E 0 8f 24 64
        E 5 92 4a 64
        E 0 93 37 5a
        E 1 97 4a 64
        E 0 9f 30 5a
        E 235 82 4a 64
        E 0 87 4a 64
        E 0 92 48 64
        E 1 97 48 64
        E 238 82 48 64
        E 0 83 37 64
        E 0 87 48 64
        E 0 8f 30 64
        E 0 92 4a 64
        E 0 93 39 5a
        E 0 97 4a 64
        E 0 9f 29 5a
        E 480 82 4a 64
        E 0 83 39 64
        E 0 87 4a 64
        E 0 8f 29 64
        E 0 92 48 64
        E 0 93 37 5a
        E 0 97 48 64
        E 0 9f 2b 5a
        E 240 82 48 64
        E 0 87 48 64
        E 0 92 47 64
        E 0 97 47 64
        E 242 82 47 64
        E 0 83 37 64
        E 0 87 47 64
        E 0 8f 2b 64
        E 0 92 48 64
        E 0 93 3c 5a
        E 0 97 48 64
        E 0 9f 30 5a
        E 479 87 48 64
        E 0 8f 30 64
        E 0 97 43 64
        E 0 9f 34 5a
        E 479 82 48 64
        E 0 83 3c 64
        E 0 87 43 64
        E 0 8f 34 64
        E 0 92 47 64
        E 0 93 37 5a
        E 0 97 4a 64
        E 0 9f 2f 5a
        E 482 8f 2f 64
        E 1 9f 2b 5a
        E 237 82 47 64
        E 0 87 4a 64
        E 0 92 48 64
        E 0 97 4c 64
        E 119 82 48 64
        E 0 87 4c 64
        E 0 92 4a 64
        E 0 97 4d 64
        E 121 82 4a 64
        E 0 83 37 64
        E 0 87 4d 64
        E 0 8f 2b 64
        E 0 92 4c 64
        E 0 93 37 5a
        E 0 97 4c 64
        E 0 9f 24 5a
        E 479 82 4c 64
        E 0 83 37 64
        E 0 87 4c 64
        E 0 8f 24 64
        E 1 92 4a 64
        E 0 93 37 5a
        E 0 97 4a 64
        E 0 9f 30 5a
        E 241 82 4a 64
        E 0 87 4a 64
        E 0 92 48 64
        E 1 97 48 64
        E 238 82 48 64
        E 0 83 37 64
        E 1 87 48 64
        E 0 8f 30 64
        E 0 92 4a 64
        E 0 93 39 5a
        E 0 97 4a 64
        E 0 9f 29 5a
        E 478 82 4a 64
        E 0 83 39 64
        E 0 87 4a 64
        E 0 8f 29 64
        E 0 92 48 64
        E 1 93 37 5a
        E 0 97 48 64
        E 0 9f 2b 5a
        E 240 82 48 64
        E 0 87 48 64
        E 0 92 47 64
        E 0 97 47 64
        E 242 82 47 64
        E 0 83 37 64
        E 0 87 47 64
        E 0 8f 2b 64
        E 0 92 48 64
        E 0 93 3c 5a
        E 0 97 48 64
        E 0 9f 3c 5a
        E 479 82 48 64
        E 0 83 3c 64
        E 0 8f 3c 64
        E 0 92 40 64
        E 0 93 34 5a
        E 0 9f 34 5a
        E 478 82 40 64
        E 0 83 34 64
        E 0 87 48 64
        E 0 8f 34 64
        E 0 92 41 64
        E 1 93 35 5a
        E 0 9f 35 5a
        E 480 82 41 64
        E 0 83 35 64
        E 0 8f 35 64
        E 1 92 43 64
        E 0 93 37 5a
        E 0 9f 37 5a
        E 480 82 43 64
        E 0 83 37 64
        E 0 8f 37 64
        E 0 92 40 64
        E 0 93 34 5a
        E 1 9f 34 5a
        E 480 82 40 64
        E 0 83 34 64
        E 0 8f 34 64
        E 0 92 3c 64
        E 0 93 30 5a
        E 0 9f 30 5a
        E 236 83 30 64
        E 0 8f 30 64
        E 0 93 32 5a
        E 1 9f 32 5a
        E 240 82 3c 64
        E 0 83 32 64
        E 0 8f 32 64
        E 0 93 34 5a
        E 0 9f 34 5a
        E 481 83 34 64
        E 0 8f 34 64
        E 0 92 4f 64
        E 0 93 30 5a
        E 0 9f 30 5a
        E 480 82 4f 64
        E 0 83 30 64
        E 0 8f 30 64
        E 0 92 54 64
        E 241 82 54 64
        E 0 92 4f 64
        E 240 82 4f 64
        E 1 92 4c 64
        E 0 93 40 5a
        E 0 9f 30 5a
        E 239 82 4c 64
        E 1 92 48 64
        E 240 82 48 64
        E 0 83 40 64
        E 0 8f 30 64
        E 1 92 3e 64
        E 0 93 3e 5a
        E 0 9f 2f 5a
        E 478 82 3e 64
        E 0 83 3e 64
        E 0 8f 2f 64
        E 0 92 41 64
        E 0 93 3b 5a
        E 0 9f 2b 5a
        E 480 82 41 64
        E 0 83 3b 64
        E 0 8f 2b 64
        E 0 92 40 64
        E 480 82 40 64
        E 0 92 3c 64
        E 0 93 40 5a
        E 0 9f 30 5a
        E 240 83 40 64
        E 0 8f 30 64
        E 0 93 41 5a
        E 0 9f 32 5a
        E 239 82 3c 64
        E 0 83 41 64
        E 0 8f 32 64
        E 0 93 43 5a
        E 0 9f 34 5a
        E 479 83 43 64
        E 0 8f 34 64
        E 0 92 4c 64
        E 0 93 40 5a
        E 0 9f 30 5a
        E 486 82 4c 64
        E 0 83 40 64
        E 0 8f 30 64
        E 0 92 4d 64
        E 0 93 48 5a
        E 0 9f 39 5a
        E 151 92 51 64
        E 83 82 4d 64
        E 81 92 4d 64
        E 78 82 51 64
        E 82 83 48 64
        E 0 8f 39 64
        E 1 92 4c 64
        E 0 93 47 5a
        E 0 9f 37 5a
        E 79 82 4d 64
        E 78 92 4f 64
        E 83 82 4c 64
        E 79 92 4c 64
        E 77 82 4f 64
        E 84 83 47 64
        E 0 8f 37 64
        E 0 92 4a 64
        E 0 93 45 5a
        E 0 9f 35 5a
        E 79 82 4c 64
        E 78 92 4d 64
        E 83 82 4a 64
        E 79 92 4a 64
        E 77 82 4d 64
        E 83 83 45 64
        E 0 8f 35 64
        E 0 92 48 64
        E 0 93 43 5a
        E 0 9f 34 5a
        E 78 82 4a 64
        E 79 92 4c 64
        E 82 82 48 64
        E 79 92 48 64
        E 78 82 4c 64
        E 83 83 43 64
        E 0 8f 34 64
        E 0 92 47 64
        E 0 93 41 5a
        E 0 9f 32 5a
        E 79 82 48 64
        E 80 92 4a 64
        E 83 82 47 64
        E 79 92 47 64
        E 78 82 4a 64
        E 82 83 41 64
        E 0 8f 32 64
        E 0 92 45 64
        E 0 93 40 5a
        E 0 9f 30 5a
        E 78 82 47 64
        E 79 92 48 64
        E 83 82 45 64
        E 79 92 45 64
        E 79 82 48 64
        E 84 83 40 64
        E 0 8f 30 64
        E 1 92 43 64
        E 0 93 3e 5a
        E 1 9f 2f 5a
        E 74 82 45 64
        E 78 92 47 64
        E 85 82 43 64
        E 78 92 43 64
        E 80 82 47 64
        E 80 83 3e 64
        E 0 8f 2f 64
        E 1 92 41 64
        E 0 93 3b 5a
        E 0 9f 2b 5a
        E 78 82 43 64
        E 80 92 45 64
        E 83 82 41 64
        E 76 92 41 64
        E 81 82 45 64
        E 82 83 3b 64
        E 0 8f 2b 64
        E 0 92 40 64
        E 0 93 37 5a
        E 0 9f 30 5a
        E 79 82 41 64
        E 162 82 40 64
        E 1 92 4c 64
        E 238 82 4c 64
        E 0 83 37 64
        E 0 8f 30 64
        E 0 92 4f 64
        E 240 82 4f 64
        E 0 92 4a 64
        E 240 82 4a 64
        E 0 92 4c 64
        E 0 93 37 5a
        E 0 9f 30 5a
        E 241 82 4c 64
        E 1 92 47 64
        E 237 82 47 64
        E 0 83 37 64
        E 0 8f 30 64
        E 0 92 48 64
        E 242 82 48 64
        E 0 92 40 64
        E 238 82 40 64
        E 0 92 41 64
        E 0 93 3b 5a
        E 1 9f 2b 5a
        E 480 82 41 64
        E 0 92 4d 64
        E 480 82 4d 64
        E 0 92 4f 64
        E 482 82 4f 64
        E 0 92 51 64
        E 478 82 51 64
        E 0 83 3b 64
        E 0 8f 2b 64
        E 0 92 47 64
        E 0 93 3b 5a
        E 0 9f 2b 5a
        E 156 92 48 64
        E 84 82 47 64
        E 78 92 4a 64
        E 80 82 48 64
        E 81 83 3b 64
        E 0 8f 2b 64
        E 0 92 41 64
        E 0 93 3b 5a
        E 0 9f 37 5a
        E 80 82 4a 64
        E 80 92 43 64
        E 82 82 41 64
        E 78 92 45 64
        E 79 82 43 64
        E 83 83 3b 64
        E 1 8f 37 64
        E 2 92 37 64
        E 1 93 3b 5a
        E 0 9f 37 5a
        E 73 82 45 64
        E 401 82 37 64
        E 0 83 3b 64
        E 0 8f 37 64
        E 0 92 47 64
        E 0 93 3b 5a
        E 0 9f 2b 5a
        E 482 82 47 64
        E 0 83 3b 64
        E 0 8f 2b 64
        E 0 92 48 64
        E 0 93 37 5a
        E 1 9f 30 5a
        E 1438 82 48 64
        E 0 83 37 64
        E 0 8f 30 64
        E 482 92 45 64
        E 0 93 45 5a
        E 0 97 45 64
        E 0 9f 39 5a
        E 477 82 45 64
        E 0 83 45 64
        E 0 87 45 64
        E 0 8f 39 64
        E 0 92 48 64
        E 0 93 48 5a
        E 0 97 48 64
        E 0 9f 3c 5a
        E 480 82 48 64
        E 0 83 48 64
        E 0 87 48 64
        E 0 8f 3c 64
        E 0 92 45 64
        E 0 93 45 5a
        E 0 97 45 64
        E 0 9f 39 5a
        E 481 82 45 64
        E 0 83 45 64
        E 0 87 45 64
        E 0 8f 39 64
        E 0 92 4c 64
        E 0 93 4c 5a
        E 0 97 4c 64
        E 0 9f 40 5a
        E 479 82 4c 64
        E 0 83 4c 64
        E 0 87 4c 64
        E 0 8f 40 64
        E 1 92 40 64
        E 1 93 40 5a
        E 0 97 40 64
        E 0 9f 34 5a
        E 480 82 40 64
        E 0 83 40 64
        E 0 87 40 64
        E 0 8f 34 64
        E 0 92 45 64
        E 0 93 45 5a
        E 0 97 45 64
        E 0 9f 39 5a
        E 479 82 45 64
        E 0 83 45 64
        E 0 87 45 64
        E 0 8f 39 64
        E 0 92 39 64
        E 1 93 3c 5a
        E 3 97 39 64
        E 1 9f 2d 5a
        E 236 83 3c 64
        E 1 8f 2d 64
        E 0 93 3e 5a
        E 0 9f 2f 5a
        E 239 82 39 64
        E 0 83 3e 64
        E 0 87 39 64
        E 1 8f 2f 64
        E 0 93 40 5a
        E 0 9f 30 5a
        E 478 83 40 64
        E 0 8f 30 64
        E 0 92 45 64
        E 0 93 3c 5a
        E 0 97 45 64
        E 0 9f 2d 5a
        E 480 82 45 64
        E 0 83 3c 64
        E 0 87 45 64
        E 0 8f 2d 64
        E 0 92 47 64
        E 0 97 47 64
        E 480 82 47 64
        E 0 87 47 64
        E 0 92 45 64
        E 0 92 44 64
        E 0 93 38 5a
        E 0 97 45 64
        E 0 97 44 64
        E 0 9f 34 5a
        E 240 83 38 64
        E 0 8f 34 64
        E 0 93 39 5a
        E 1 9f 36 5a
        E 239 82 45 64
        E 0 82 44 64
        E 0 83 39 64
        E 0 87 45 64
        E 0 87 44 64
        E 0 8f 36 64
        E 0 92 42 64
        E 0 92 40 64
        E 0 93 3b 5a
        E 0 97 42 64
        E 0 97 40 64
        E 0 9f 38 5a
        E 481 82 42 64
        E 0 82 40 64
        E 0 83 3b 64
        E 0 87 42 64
        E 0 87 40 64
        E 0 8f 38 64
        E 1 92 4a 64
        E 0 93 38 5a
        E 1 97 4a 64
        E 1 9f 34 5a
        E 478 82 4a 64
        E 0 83 38 64
        E 0 87 4a 64
        E 0 8f 34 64
        E 0 92 4c 64
        E 0 97 48 64
        E 156 92 51 64
        E 80 82 4c 64
        E 82 92 4c 64
        E 78 82 51 64
        E 81 87 48 64
        E 1 92 48 64
        E 0 93 40 5a
        E 0 97 45 64
        E 0 9f 2d 5a
        E 79 82 4c 64
        E 79 92 4c 64
        E 82 82 48 64
        E 0 8f 2d 64
        E 0 9f 2c 5a
        E 78 92 48 64
        E 80 82 4c 64
        E 82 83 40 64
        E 0 87 45 64
        E 0 8f 2c 64
        E 0 92 45 64
        E 0 93 3c 5a
        E 0 9f 2d 5a
        E 79 82 48 64
        E 78 92 48 64
        E 83 82 45 64
        E 79 92 45 64
        E 79 82 48 64
        E 82 83 3c 64
        E 0 8f 2d 64
        E 0 92 40 64
        E 0 93 3c 5a
        E 0 9f 2d 5a
        E 78 82 45 64
        E 80 92 45 64
        E 83 82 40 64
        E 77 92 40 64
        E 78 82 45 64
        E 83 83 3c 64
        E 0 8f 2d 64
        E 0 92 39 64
        E 0 97 49 64
        E 79 82 40 64
        E 401 87 49 64
        E 0 93 40 5a
        E 1 97 45 64
        E 0 9f 39 5a
        E 241 87 45 64
        E 1 8f 39 64
        E 0 97 45 64
        E 0 9f 37 5a
        E 238 82 39 64
        E 0 83 40 64
        E 0 87 45 64
        E 0 8f 37 64
        E 0 93 40 5a
        E 0 97 45 64
        E 0 9f 39 5a
        E 481 83 40 64
        E 0 87 45 64
        E 0 8f 39 64
        E 0 93 3d 5a
        E 0 97 4c 64
        E 0 9f 2d 5a
        E 479 83 3d 64
        E 0 87 4c 64
        E 0 8f 2d 64
        E 0 92 4d 64
        E 0 97 4d 64
        E 158 92 51 64
        E 81 82 4d 64
        E 79 92 4d 64
        E 80 82 51 64
        E 81 87 4d 64
        E 1 92 4a 64
        E 0 93 41 5a
        E 0 97 4a 64
        E 0 9f 32 5a
        E 79 82 4d 64
        E 79 92 4d 64
        E 82 82 4a 64
        E 0 8f 32 64
        E 1 9f 31 5a
        E 78 92 4a 64
        E 79 82 4d 64
        E 83 83 41 64
        E 0 87 4a 64
        E 0 8f 31 64
        E 0 92 45 64
        E 0 93 41 5a
        E 0 9f 32 5a
        E 78 82 4a 64
        E 79 92 4a 64
        E 83 82 45 64
        E 78 92 45 64
        E 78 82 4a 64
        E 82 83 41 64
        E 0 8f 32 64
        E 0 92 41 64
        E 0 93 41 5a
        E 0 97 45 64
        E 0 9f 26 5a
        E 79 82 45 64
        E 79 92 45 64
        E 83 82 41 64
        E 79 92 41 64
        E 79 82 45 64
        E 81 83 41 64
        E 0 87 45 64
        E 0 8f 26 64
        E 1 92 4f 64
        E 0 97 46 66
        E 79 82 41 64
        E 79 92 52 66
        E 80 82 4f 64
        E 81 92 4f 64
        E 78 82 52 66
        E 84 87 46 66
        E 0 92 4a 64
        E 0 93 3e 5a
        E 0 97 43 64
        E 1 9f 37 5a
        E 77 82 4f 64
        E 78 92 4f 64
        E 83 82 4a 64
        E 1 8f 37 64
        E 0 9f 35 5a
        E 78 92 4a 64
        E 80 82 4f 64
        E 82 83 3e 64
        E 0 87 43 64
        E 0 8f 35 64
        E 0 92 46 66
        E 0 93 3e 5a
        E 1 9f 37 5a
        E 77 82 4a 64
        E 79 92 4a 64
        E 82 82 46 66
        E 78 92 46 66
        E 78 82 4a 64
        E 85 83 3e 64
        E 0 8f 37 64
        E 0 92 43 64
        E 0 93 3a 5b
        E 0 97 4a 64
        E 1 9f 2b 5a
        E 76 82 46 66
        E 80 92 46 66
        E 83 82 43 64
        E 77 92 43 64
        E 79 82 46 66
        E 83 83 3a 66
        E 0 87 4a 64
        E 0 8f 2b 64
        E 0 92 49 64
        E 0 97 49 64
        E 0 9f 2d 5a
        E 79 82 43 64
        E 162 82 49 64
        E 0 87 49 64
        E 0 92 45 64
        E 1 97 45 64
        E 237 82 45 64
        E 0 87 45 64
        E 0 8f 2d 64
        E 0 92 4d 64
        E 0 93 41 5a
        E 0 97 4d 64
        E 0 9f 32 5a
        E 241 82 4d 64
        E 0 87 4d 64
        E 0 92 4a 64
        E 2 97 4a 64
        E 239 82 4a 64
        E 0 83 41 64
        E 0 87 4a 64
        E 0 8f 32 64
        E 0 92 49 64
        E 0 93 41 5a
        E 0 97 49 64
        E 0 9f 39 5a
        E 480 83 41 64
        E 0 8f 39 64
        E 0 93 40 5a
        E 0 9f 2d 5a
        E 240 82 49 64
        E 0 87 49 64
        E 0 92 4a 64
        E 0 97 4a 64
        E 240 82 4a 64
        E 0 83 40 64
        E 0 87 4a 64
        E 0 8f 2d 64
        E 0 92 4a 64
        E 0 93 41 5a
        E 0 97 4a 64
        E 0 9f 26 5a
        E 480 83 41 64
        E 0 8f 26 64
        E 0 93 41 5a
        E 0 9f 32 5a
        E 239 83 41 64
        E 0 8f 32 64
        E 2 93 40 5a
        E 0 9f 31 5a
        E 238 82 4a 64
        E 0 83 40 64
        E 0 87 4a 64
        E 0 8f 31 64
        E 0 93 41 5a
        E 0 9f 32 5a
        E 481 83 41 64
        E 0 8f 32 64
        E 0 92 45 64
        E 0 93 45 5a
        E 0 97 45 64
        E 0 9f 39 5a
        E 479 82 45 64
        E 0 83 45 64
        E 0 87 45 64
        E 0 8f 39 64
        E 0 92 4d 64
        E 0 93 41 5a
        E 0 97 4d 64
        E 0 9f 41 5a
        E 480 82 4d 64
        E 0 83 41 64
        E 0 87 4d 64
        E 0 8f 41 64
        E 0 92 44 64
        E 1 93 44 5a
        E 0 97 44 64
        E 0 9f 38 5a
        E 479 82 44 64
        E 0 83 44 64
        E 0 87 44 64
        E 0 8f 38 64
        E 0 92 45 64
        E 0 93 45 5a
        E 0 97 45 64
        E 0 9f 39 5a
        E 480 82 45 64
        E 0 83 45 64
        E 0 87 45 64
        E 0 8f 39 64
        E 0 92 47 64
        E 0 93 47 5a
        E 0 97 47 64
        E 0 9f 3b 5a
        E 480 82 47 64
        E 0 83 47 64
        E 0 87 47 64
        E 0 8f 3b 64
        E 0 92 48 64
        E 0 93 48 5a
        E 0 97 48 64
        E 0 9f 3c 5a
        E 480 82 48 64
        E 1 83 48 64
        E 0 87 48 64
        E 0 8f 3c 64
        E 1 92 45 64
        E 0 93 40 5a
        E 0 97 45 64
        E 1 9f 39 5a
        E 237 8f 39 64
        E 1 9f 38 5a
        E 239 82 45 64
        E 0 83 40 64
        E 0 87 45 64
        E 0 8f 38 64
        E 0 93 40 5a
        E 0 9f 39 5a
        E 480 83 40 64
        E 0 8f 39 64
        E 0 92 4c 64
        E 0 93 40 5a
        E 0 97 45 64
        E 0 9f 2d 5a
        E 481 82 4c 64
        E 0 83 40 64
        E 0 87 45 64
        E 0 8f 2d 64
        E 0 92 4d 64
        E 0 93 48 5a
        E 0 97 4d 64
        E 0 9f 39 5a
        E 156 92 51 64
        E 83 82 4d 64
        E 79 92 4d 64
        E 79 82 51 64
        E 82 83 48 64
        E 0 87 4d 64
        E 0 8f 39 64
        E 0 92 4c 64
        E 0 93 47 5a
        E 0 97 4c 64
        E 0 9f 37 5a
        E 80 82 4d 64
        E 79 92 4f 64
        E 81 82 4c 64
        E 79 92 4c 64
        E 77 82 4f 64
        E 85 83 47 64
        E 0 87 4c 64
        E 0 8f 37 64
        E 0 92 4a 64
        E 0 93 45 5a
        E 0 97 4a 64
        E 0 9f 35 5a
        E 78 82 4c 64
        E 77 92 4d 64
        E 84 82 4a 64
        E 78 92 4a 64
        E 79 82 4d 64
        E 82 83 45 64
        E 0 87 4a 64
        E 0 8f 35 64
        E 0 92 48 64
        E 1 93 43 5a
        E 0 97 48 64
        E 1 9f 34 5a
        E 78 82 4a 64
        E 78 92 4c 64
        E 82 82 48 64
        E 80 92 48 64
        E 78 82 4c 64
        E 84 83 43 64
        E 0 87 48 64
        E 0 8f 34 64
        E 0 92 47 64
        E 0 93 41 5a
        E 0 97 47 64
        E 0 9f 32 5a
        E 78 82 48 64
        E 78 92 4a 64
        E 83 82 47 64
        E 79 92 47 64
        E 78 82 4a 64
        E 82 83 41 64
        E 0 87 47 64
        E 0 8f 32 64
        E 0 92 45 64
        E 0 93 40 5a
        E 1 97 45 64
        E 0 9f 30 5a
        E 79 82 47 64
        E 78 92 48 64
        E 83 82 45 64
        E 78 92 45 64
        E 81 82 48 64
        E 80 83 40 64
        E 0 87 45 64
        E 0 8f 30 64
        E 1 92 44 64
        E 0 93 3e 5a
        E 0 97 44 64
        E 0 9f 2f 5a
        E 80 82 45 64
        E 78 92 47 64
        E 83 82 44 64
        E 78 92 44 64
        E 77 82 47 64
        E 85 83 3e 64
        E 0 87 44 64
        E 0 8f 2f 64
        E 0 92 42 64
        E 1 93 3c 5a
        E 0 97 42 64
        E 0 9f 2d 5a
        E 77 82 44 64
        E 78 92 45 64
        E 84 82 42 64
        E 78 92 42 64
        E 78 82 45 64
        E 84 83 3c 64
        E 0 87 42 64
        E 0 8f 2d 64
        E 0 92 40 64
        E 0 93 3b 5a
        E 0 97 40 64
        E 0 9f 2c 5a
        E 77 82 42 64
        E 401 83 3b 64
        E 1 8f 2c 64
        E 0 93 3b 5a
        E 0 9f 34 5a
        E 480 82 40 64
        E 0 83 3b 64
        E 0 87 40 64
        E 0 8f 34 64
        E 0 92 47 64
        E 0 93 3b 5a
        E 0 97 47 64
        E 0 9f 38 5a
        E 480 83 3b 64
        E 0 8f 38 64
        E 0 93 3b 5a
        E 0 9f 36 5a
        E 479 82 47 64
        E 0 83 3b 64
        E 0 87 47 64
        E 0 8f 36 64
        E 0 92 47 64
        E 0 93 44 5a
        E 0 97 47 64
        E 0 9f 34 5a
        E 480 82 47 64
        E 0 87 47 64
        E 1 92 48 64
        E 0 97 48 64
        E 239 82 48 64
        E 0 87 48 64
        E 0 92 4a 64
        E 0 97 4a 64
        E 241 82 4a 64
        E 0 87 4a 64
        E 0 92 4c 64
        E 0 97 4c 64
        E 480 82 4c 64
        E 1 83 44 64
        E 0 87 4c 64
        E 0 8f 34 64
        E 0 92 47 64
        E 1 93 40 5a
        E 0 97 47 64
        E 0 9f 38 5a
        E 477 82 47 64
        E 0 83 40 64
        E 0 87 47 64
        E 0 8f 38 64
        E 0 92 48 64
        E 0 93 40 5a
        E 0 97 48 64
        E 0 9f 39 5a
        E 482 82 48 64
        E 0 83 40 64
        E 0 87 48 64
        E 0 8f 39 64
        E 0 92 45 64
        E 0 93 3c 5a
        E 0 97 45 64
        E 0 9f 2d 5a
        E 478 82 45 64
        E 0 83 3c 64
        E 0 87 45 64
        E 0 8f 2d 64
        E 0 93 3b 5a
        E 0 9f 2c 5a
        E 481 83 3b 64
        E 0 8f 2c 64
        E 0 92 4c 64
        E 0 93 47 5a
        E 0 97 4c 64
        E 0 9f 38 5a
        E 480 82 4c 64
        E 0 83 47 64
        E 0 87 4c 64
        E 0 8f 38 64
        E 0 92 48 64
        E 0 93 40 5a
        E 0 97 48 64
        E 0 9f 39 5a
        E 479 82 48 64
        E 0 87 48 64
        E 0 92 47 64
        E 0 97 47 64
        E 241 82 47 64
        E 0 87 47 64
        E 0 92 45 64
        E 0 97 45 64
        E 240 82 45 64
        E 0 83 40 64
        E 0 87 45 64
        E 0 8f 39 64
        E 0 92 47 64
        E 0 93 44 5a
        E 0 97 47 64
        E 0 9f 34 5a
        E 720 82 47 64
        E 0 87 47 64
        E 0 92 45 64
        E 0 97 45 64
        E 240 82 45 64
        E 0 83 44 64
        E 0 87 45 64
        E 0 8f 34 64
        E 0 92 45 64
        E 0 93 40 5a
        E 0 97 45 64
        E 0 9f 2d 5a
        E 2881 82 45 64
        E 0 83 40 64
        E 0 87 45 64
        E 0 8f 2d 64
        E 0 96 46 66
        E 0 9d 46 66
        E 0 9f 34 5a
        E 479 86 46 66
        E 0 8d 46 66
        E 0 96 46 66
        E 0 9d 46 66
        E 239 86 46 66
        E 0 8d 46 66
        E 1 96 46 66
        E 0 9d 46 66
        E 240 ce 34 00
        E 0 be 07 64
        E 0 be 0a 40
        E 0 be 5b 3b
        E 0 86 46 66
        E 0 8e 46 66
        E 0 96 46 66
        E 0 9e 46 66
        E 478 86 46 66
        E 0 8e 46 66
        E 1 96 46 66
        E 0 9e 46 66
        E 482 86 46 66
        E 0 8e 46 66
        E 1 96 43 64
        E 0 9e 43 64
        E 477 86 43 64
        E 0 8e 43 64
        E 0 96 43 64
        E 1 9e 43 64
        E 480 86 43 64
        E 0 8e 43 64
        E 481 96 46 66
        E 1 9e 46 66
        E 237 86 46 66
        E 0 8e 46 66
        E 0 96 48 64
        E 1 9e 48 64
        E 241 8f 34 64
        E 0 86 48 64
        E 0 8e 48 64
        E 0 9f 34 5a
        E 0 96 43 64
        E 0 9e 43 64
        E 958 86 43 64
        E 0 8e 43 64
        E 1 96 43 64
        E 0 9e 43 64
        E 484 86 43 64
        E 0 8e 43 64
        E 0 96 45 64
        E 0 9e 45 64
        E 475 8f 34 64
        E 0 86 45 64
        E 0 8e 45 64
        E 0 9f 35 5a
        E 0 96 41 64
        E 0 9e 41 64
        E 961 86 41 64
        E 0 8e 41 64
        E 241 98 35 64
        E 0 9e 41 64
        E 238 88 35 64
        E 0 8e 41 64
        E 0 98 35 64
        E 0 9e 41 64
        E 240 88 35 64
        E 1 8e 41 64
        E 0 98 37 64
        E 2 9e 43 64
        E 238 8f 35 64
        E 0 88 37 64
        E 1 8e 43 64
        E 0 9f 35 5a
        E 0 98 39 64
        E 0 9e 45 64
        E 959 88 39 64
        E 0 8e 45 64
        E 960 8f 35 64
        E 0 9f 35 5a
        E 0 98 39 64
        E 0 9e 45 64
        E 479 88 39 64
        E 0 8e 45 64
        E 0 98 39 64
        E 0 9e 45 64
        E 479 88 39 64
        E 0 8e 45 64
        E 0 98 39 64
        E 0 9e 45 64
        E 482 88 39 64
        E 0 8e 45 64
        E 0 98 3b 64
        E 1 9e 47 64
        E 238 88 3b 64
        E 0 8e 47 64
        E 1 98 3c 64
        E 1 9e 48 64
        E 239 88 3c 64
        E 0 8e 48 64
        E 0 8f 35 64
        E 0 98 37 64
        E 0 9e 43 64
        E 0 9f 37 5a
        E 479 88 37 64
        E 1 8e 43 64
        E 0 98 37 64
        E 0 9e 43 64
        E 480 88 37 64
        E 0 8e 43 64
        E 0 8f 37 64
        E 0 9f 30 5a
        E 960 8f 30 64
        E 0 96 40 64
        E 0 9e 40 64
        E 0 9f 30 5a
        E 961 86 40 64
        E 0 8e 40 64
        E 0 96 40 64
        E 0 9e 40 64
        E 479 86 40 64
        E 0 8e 40 64
        E 0 96 40 64
        E 0 9e 40 64
        E 480 86 40 64
        E 0 8e 40 64
        E 0 8f 30 64
        E 0 96 45 64
        E 0 9e 45 64
        E 0 9f 31 5a
        E 479 86 45 64
        E 0 8e 45 64
        E 0 96 45 64
        E 0 9e 45 64
        E 481 86 45 64
        E 0 8e 45 64
        E 959 96 45 64
        E 0 9e 45 64
        E 481 86 45 64
        E 0 8e 45 64
        E 0 96 46 66
        E 0 9e 46 66
        E 481 86 46 66
        E 0 8e 46 66
        E 0 96 43 64
        E 0 9e 43 64
        E 481 86 43 64
        E 0 8e 43 64
        E 0 96 43 64
        E 0 9e 43 64
        E 239 86 43 64
        E 1 8e 43 64
        E 0 96 41 64
        E 0 9e 41 64
        E 238 86 41 64
        E 0 8e 41 64
        E 0 8f 31 64
        E 0 96 3e 64
        E 0 9e 3e 64
        E 0 9f 32 5a
        E 481 86 3e 64
        E 0 8e 3e 64
        E 1 96 3e 64
        E 0 9e 3e 64
        E 477 86 3e 64
        E 0 8e 3e 64
        E 963 96 45 64
        E 0 9e 45 64
        E 479 86 45 64
        E 0 8e 45 64
        E 1 96 3e 64
        E 0 9e 3e 64
        E 479 86 3e 64
        E 0 8e 3e 64
        E 239 96 45 64
        E 0 9e 45 64
        E 239 86 45 64
        E 0 8e 45 64
        E 0 96 45 64
        E 1 9e 45 64
        E 240 86 45 64
        E 0 8e 45 64
        E 0 96 45 64
        E 1 9e 45 64
        E 238 86 45 64
        E 0 8e 45 64
        E 0 8f 32 64
        E 0 96 42 64
        E 0 9e 42 64
        E 1 9f 30 5a
        E 479 86 42 64
        E 1 8e 42 64
        E 0 96 42 64
        E 0 9e 42 64
        E 480 86 42 64
        E 0 8e 42 64
        E 960 96 48 64
        E 0 9e 48 64
        E 481 86 48 64
        E 0 8e 48 64
        E 0 96 48 64
        E 0 9e 48 64
        E 479 86 48 64
        E 0 8e 48 64
        E 0 96 45 64
        E 0 9e 45 64
        E 479 86 45 64
        E 1 8e 45 64
        E 0 96 45 64
        E 0 9e 45 64
        E 240 86 45 64
        E 0 8e 45 64
        E 0 96 46 66
        E 0 9e 46 66
        E 240 86 46 66
        E 0 8e 46 66
        E 0 8f 30 64
        E 0 96 43 64
        E 0 9e 43 64
        E 0 9f 2e 5b
        E 481 86 43 64
        E 0 8e 43 64
        E 0 96 43 64
        E 0 9e 43 64
        E 477 86 43 64
        E 0 8e 43 64
        E 963 96 46 66
        E 0 9e 46 66
        E 959 86 46 66
        E 0 8e 46 66
        E 0 96 46 66
        E 0 9e 46 66
        E 479 86 46 66
        E 0 8e 46 66
        E 1 96 45 64
        E 0 9e 45 64
        E 481 86 45 64
        E 0 8e 45 64
        E 0 8f 2e 66
        E 0 96 44 64
        E 0 9e 44 64
        E 0 9f 32 5a
        E 479 86 44 64
        E 0 8e 44 64
        E 0 96 44 64
        E 0 9e 44 64
        E 480 86 44 64
        E 0 8e 44 64
        E 959 96 44 64
        E 0 9e 44 64
        E 481 86 44 64
        E 0 8e 44 64
        E 0 96 44 64
        E 0 9e 44 64
        E 241 86 44 64
        E 0 8e 44 64
        E 0 96 44 64
        E 0 9e 44 64
        E 237 86 44 64
        E 0 8e 44 64
        E 0 96 45 64
        E 0 9e 45 64
        E 482 86 45 64
        E 0 8e 45 64
        E 0 96 47 64
        E 0 9e 47 64
        E 480 86 47 64
        E 0 8e 47 64
        E 0 8f 32 64
        E 0 96 40 64
        E 0 9e 40 64
        E 0 9f 32 5a
        E 480 86 40 64
        E 0 8e 40 64
        E 0 96 40 64
        E 1 9e 40 64
        E 478 86 40 64
        E 0 8e 40 64
        E 482 96 40 64
        E 0 9e 40 64
        E 241 86 40 64
        E 0 8e 40 64
        E 0 96 40 64
        E 0 9e 40 64
        E 236 86 40 64
        E 0 8e 40 64
        E 0 96 47 64
        E 1 9e 47 64
        E 960 86 47 64
        E 7 8e 47 64
        E 0 96 47 64
        E 0 9e 47 64
        E 474 86 47 64
        E 0 8e 47 64
        E 0 96 48 64
        E 0 9e 48 64
        E 480 86 48 64
        E 0 8e 48 64
        E 0 8f 32 64
        E 0 96 45 64
        E 0 9e 45 64
        E 0 9f 34 5a
        E 960 86 45 64
        E 0 8e 45 64
        E 0 8f 34 64
        E 0 9f 2d 5a
        E 481 98 34 64
        E 0 9e 40 64
        E 478 88 34 64
        E 0 8e 40 64
        E 0 8f 2d 64
        E 1 98 39 64
        E 0 9e 45 64
        E 0 9f 2d 5a
        E 960 88 39 64
        E 0 8e 45 64
        E 0 98 39 64
        E 0 9e 45 64
        E 480 88 39 64
        E 1 8e 45 64
        E 0 98 39 64
        E 0 9e 45 64
        E 479 88 39 64
        E 0 8e 45 64
        E 0 8f 2d 64
        E 1 98 36 64
        E 0 9e 42 64
        E 0 9f 33 5a
        E 478 88 36 64
        E 0 8e 42 64
        E 1 98 36 64
        E 0 9e 42 64
        E 479 88 36 64
        E 0 8e 42 64
        E 482 98 3c 64
        E 0 9e 48 64
        E 479 88 3c 64
        E 0 8e 48 64
        E 0 98 39 64
        E 0 9e 45 64
        E 481 88 39 64
        E 0 8e 45 64
        E 1 98 39 64
        E 0 9e 45 64
        E 479 88 39 64
        E 0 8e 45 64
        E 0 98 39 64
        E 1 9e 45 64
        E 480 88 39 64
        E 0 8e 45 64
        E 0 98 37 64
        E 0 9e 43 64
        E 479 88 37 64
        E 0 8e 43 64
        E 0 8f 33 64
        E 0 98 34 64
        E 0 9e 40 64
        E 0 9f 34 5a
        E 478 88 34 64
        E 0 8e 40 64
        E 0 98 34 64
        E 0 9e 40 64
        E 480 88 34 64
        E 0 8e 40 64
        E 242 98 3b 64
        E 0 9e 47 64
        E 238 88 3b 64
        E 0 8e 47 64
        E 0 98 3b 64
        E 0 9e 47 64
        E 241 88 3b 64
        E 1 8e 47 64
        E 1 98 3b 64
        E 0 9e 47 64
        E 239 88 3b 64
        E 0 8e 47 64
        E 0 98 37 64
        E 0 9e 43 64
        E 479 88 37 64
        E 0 8e 43 64
        E 0 98 37 64
        E 0 9e 43 64
        E 482 88 37 64
        E 0 8e 43 64
        E 957 8f 34 64
        E 0 98 37 64
        E 0 9e 43 64
        E 0 9f 34 5a
        E 482 88 37 64
        E 0 8e 43 64
        E 0 98 37 64
        E 0 9e 43 64
        E 240 88 37 64
        E 0 8e 43 64
        E 0 98 37 64
        E 0 9e 43 64
        E 239 88 37 64
        E 0 8e 43 64
        E 1 98 39 64
        E 0 9e 45 64
        E 480 88 39 64
        E 0 8e 45 64
        E 0 98 3b 64
        E 0 9e 47 64
        E 479 88 3b 64
        E 0 8e 47 64
        E 0 98 34 64
        E 0 9e 40 64
        E 961 88 34 64
        E 0 8e 40 64
        E 239 98 3b 64
        E 0 9e 47 64
        E 242 88 3b 64
        E 0 8e 47 64
        E 0 98 3b 64
        E 0 9e 47 64
        E 239 88 3b 64
        E 0 8e 47 64
        E 1 98 3d 64
        E 0 9e 49 64
        E 238 88 3d 64
        E 0 8e 49 64
        E 0 8f 34 64
        E 0 98 38 64
        E 0 9e 44 64
        E 0 9f 35 59
        E 481 88 38 64
        E 0 8e 44 64
        E 0 98 38 64
        E 0 9e 44 64
        E 478 88 38 64
        E 0 8e 44 64
        E 0 98 3b 64
        E 0 9e 47 64
        E 480 88 3b 64
        E 0 8e 47 64
        E 1 98 3b 64
        E 0 9e 47 64
        E 241 88 3b 64
        E 1 8e 47 64
        E 0 98 39 64
        E 0 9e 45 64
        E 239 88 39 64
        E 1 8e 45 64
        E 0 8f 35 63
        E 0 98 36 64
        E 0 9e 42 64
        E 0 9f 36 5a
        E 479 88 36 64
        E 0 8e 42 64
        E 1 98 36 64
        E 0 9e 42 64
        E 480 88 36 64
        E 0 8e 42 64
        E 957 8f 36 64
        E 0 98 39 64
        E 0 9e 45 64
        E 0 9f 36 5a
        E 482 88 39 64
        E 0 8e 45 64
        E 0 98 39 64
        E 0 9e 45 64
        E 240 88 39 64
        E 0 8e 45 64
        E 0 98 39 64
        E 0 9e 45 64
        E 238 88 39 64
        E 0 8e 45 64
        E 0 98 39 64
        E 0 9e 45 64
        E 480 88 39 64
        E 0 8e 45 64
        E 0 98 38 64
        E 0 9e 44 64
        E 483 88 38 64
        E 0 8e 44 64
        E 0 8f 36 64
        E 0 98 38 64
        E 0 9e 44 64
        E 0 9f 30 59
        E 478 88 38 64
        E 0 8e 44 64
        E 0 98 38 64
        E 0 9e 44 64
        E 481 88 38 64
        E 0 8e 44 64
        E 479 98 38 64
        E 0 9e 44 64
        E 479 88 38 64
        E 0 8e 44 64
        E 0 8f 30 63
        E 0 98 3c 63
        E 0 9e 48 63
        E 0 9f 30 59
        E 482 88 3c 63
        E 0 8e 48 63
        E 1 98 3c 63
        E 0 9e 48 63
        E 479 88 3c 63
        E 0 8e 48 63
        E 0 98 3c 63
        E 0 9e 48 63
        E 480 88 3c 63
        E 0 8e 48 63
        E 0 98 3d 64
        E 0 9e 49 64
        E 480 88 3d 64
        E 0 8e 49 64
        E 0 8f 30 63
        E 0 98 38 64
        E 0 9e 44 64
        E 0 9f 34 5a
        E 959 88 38 64
        E 0 8e 44 64
        E 961 8f 34 64
        E 0 98 34 64
        E 0 9e 40 64
        E 0 9f 34 5a
        E 960 88 34 64
        E 0 8e 40 64
        E 1 98 34 64
        E 0 9e 40 64
        E 479 88 34 64
        E 0 8e 40 64
        E 0 98 34 64
        E 0 9e 40 64
        E 479 88 34 64
        E 0 8e 40 64
        E 0 8f 34 64
        E 0 98 39 64
        E 0 9e 45 64
        E 0 9f 31 5a
        E 480 88 39 64
        E 0 8e 45 64
        E 0 98 39 64
        E 0 9e 45 64
        E 481 88 39 64
        E 0 8e 45 64
        E 239 98 3b 64
        E 0 9e 49 64
        E 241 88 3b 64
        E 0 8e 49 64
        E 0 98 37 64
        E 0 9e 49 64
        E 240 88 37 64
        E 0 8e 49 64
        E 0 98 36 64
        E 1 9e 4a 64
        E 238 88 36 64
        E 0 8e 4a 64
        E 0 8f 31 64
        E 0 98 32 64
        E 0 9e 45 64
        E 1 9f 32 5a
        E 961 88 32 64
        E 0 8e 45 64
        E 958 98 36 64
        E 0 9e 42 64
        E 960 88 36 64
        E 0 8e 42 64
        E 480 98 36 64
        E 0 9e 42 64
        E 480 88 36 64
        E 0 8e 42 64
        E 0 8f 32 64
        E 0 98 36 64
        E 0 9e 42 64
        E 0 9f 32 5a
        E 479 88 36 64
        E 0 8e 42 64
        E 1 98 36 64
        E 0 9e 42 64
        E 479 88 36 64
        E 0 8e 42 64
        E 0 98 36 64
        E 0 9e 42 64
        E 480 88 36 64
        E 0 8e 42 64
        E 1 98 37 64
        E 0 9e 43 64
        E 480 88 37 64
        E 0 8e 43 64
        E 0 98 39 64
        E 0 9e 45 64
        E 481 88 39 64
        E 0 8e 45 64
        E 0 98 39 64
        E 0 9e 45 64
        E 479 88 39 64
        E 0 8e 45 64
        E 961 8f 32 64
        E 0 98 39 64
        E 0 9e 45 64
        E 0 9f 32 5a
        E 479 88 39 64
        E 0 8e 45 64
        E 0 98 39 64
        E 0 9e 45 64
        E 241 88 39 64
        E 0 8e 45 64
        E 0 98 39 64
        E 0 9e 45 64
        E 239 88 39 64
        E 0 8e 45 64
        E 0 98 3b 64
        E 0 9e 47 64
        E 479 88 3b 64
        E 0 8e 47 64
        E 0 98 3c 64
        E 0 9e 48 64
        E 481 88 3c 64
        E 0 8e 48 64
        E 0 8f 32 64
        E 0 98 36 64
        E 0 9e 42 64
        E 0 9f 30 5a
        E 481 88 36 64
        E 0 8e 42 64
        E 0 98 36 64
        E 0 9e 42 64
        E 478 88 36 64
        E 0 8e 42 64
        E 481 98 39 64
        E 0 9e 4a 64
        E 483 88 39 64
        E 0 8e 4a 64
        E 0 8f 30 64
        E 0 98 32 64
        E 0 9e 45 64
        E 0 9f 30 5a
        E 478 88 32 64
        E 0 8e 45 64
        E 1 98 32 64
        E 0 9e 45 64
        E 478 88 32 64
        E 0 8e 45 64
        E 481 98 3b 64
        E 0 9e 47 64
        E 481 88 3b 64
        E 0 8e 47 64
        E 0 8f 30 64
        E 0 98 37 64
        E 0 9e 43 64
        E 0 9f 2f 5a
        E 478 88 37 64
        E 0 8e 43 64
        E 0 98 37 64
        E 0 9e 43 64
        E 479 88 37 64
        E 0 8e 43 64
        E 482 98 32 64
        E 0 9e 43 64
        E 478 88 32 64
        E 0 8e 43 64
        E 0 8f 2f 64
        E 0 98 37 64
        E 0 9e 47 64
        E 0 9f 2f 5a
        E 483 88 37 64
        E 0 8e 47 64
        E 0 98 37 64
        E 1 9e 47 64
        E 479 88 37 64
        E 0 8e 47 64
        E 0 98 35 64
        E 0 9e 48 64
        E 480 88 35 64
        E 0 8e 48 64
        E 0 98 37 64
        E 0 9e 4a 64
        E 481 88 37 64
        E 0 8e 4a 64
        E 0 8f 2f 64
        E 0 98 34 64
        E 1 9e 4c 64
        E 0 9f 30 5a
        E 955 88 34 64
        E 0 8e 4c 64
        E 241 98 3c 64
        E 0 9e 4c 64
        E 241 88 3c 64
        E 0 8e 4c 64
        E 0 98 39 64
        E 1 9e 4b 64
        E 238 88 39 64
        E 1 8e 4b 64
        E 0 98 37 64
        E 1 9e 4c 64
        E 240 88 37 64
        E 0 8e 4c 64
        E 0 8f 30 64
        E 0 98 34 64
        E 0 9e 47 64
        E 0 9f 2f 5a
        E 478 88 34 64
        E 0 8e 47 64
        E 0 98 34 64
        E 0 9e 47 64
        E 482 88 34 64
        E 0 8e 47 64
        E 0 8f 2f 64
        E 1 9f 34 5a
        E 957 8f 34 64
        E 0 96 47 64
        E 0 9e 47 64
        E 0 9f 34 5a
        E 479 86 47 64
        E 0 8e 47 64
        E 0 96 47 64
        E 0 9e 47 64
        E 482 86 47 64
        E 0 8e 47 64
        E 0 96 43 64
        E 0 9e 43 64
        E 481 86 43 64
        E 0 8e 43 64
        E 0 96 43 64
        E 0 9e 43 64
        E 238 86 43 64
        E 1 8e 43 64
        E 1 96 42 64
        E 0 9e 42 64
        E 238 86 42 64
        E 0 8e 42 64
        E 0 8f 34 64
        E 0 96 42 64
        E 0 9e 42 64
        E 0 9f 2e 5a
        E 480 86 42 64
        E 0 8e 42 64
        E 0 96 42 64
        E 1 9e 42 64
        E 479 86 42 64
        E 0 8e 42 64
        E 481 96 42 64
        E 0 9e 42 64
        E 479 86 42 64
        E 0 8e 42 64
        E 0 96 42 64
        E 0 9e 42 64
        E 480 86 42 64
        E 0 8e 42 64
        E 0 96 42 64
        E 0 9e 42 64
        E 485 86 42 64
        E 1 8e 42 64
        E 0 96 42 64
        E 0 9e 42 64
        E 473 86 42 64
        E 0 8e 42 64
        E 0 96 43 64
        E 0 9e 43 64
        E 481 8f 2e 64
        E 0 86 43 64
        E 0 8e 43 64
        E 0 9f 2e 5a
        E 0 96 40 64
        E 0 9e 40 64
        E 479 86 40 64
        E 0 8e 40 64
        E 0 96 40 64
        E 0 9e 40 64
        E 483 86 40 64
        E 0 8e 40 64
        E 478 96 40 64
        E 0 9e 40 64
        E 482 86 40 64
        E 1 8e 40 64
        E 2 96 46 64
        E 0 9e 46 64
        E 475 86 46 64
        E 0 8e 46 64
        E 0 96 46 64
        E 0 9e 46 64
        E 482 86 46 64
        E 0 8e 46 64
        E 0 96 46 64
        E 0 9e 46 64
        E 479 86 46 64
        E 0 8e 46 64
        E 0 96 47 64
        E 0 9e 47 64
        E 480 86 47 64
        E 0 8e 47 64
        E 0 8f 2e 64
        E 0 96 42 64
        E 0 9e 42 64
        E 0 9f 32 5a
        E 958 86 42 64
        E 1 8e 42 64
        E 1438 96 47 64
        E 1 9e 47 64
        E 480 86 47 64
        E 0 8e 47 64
        E 0 96 47 64
        E 0 9e 47 64
        E 481 86 47 64
        E 0 8e 47 64
        E 0 96 47 64
        E 0 9e 47 64
        E 480 86 47 64
        E 0 8e 47 64
        E 0 8f 32 64
        E 0 96 44 64
        E 0 9e 44 64
        E 0 9f 32 5a
        E 480 86 44 64
        E 0 8e 44 64
        E 0 96 44 64
        E 0 9e 44 64
        E 481 86 44 64
        E 0 8e 44 64
        E 478 96 40 64
        E 0 9e 40 64
        E 243 86 40 64
        E 0 8e 40 64
        E 1 96 40 64
        E 0 9e 40 64
        E 237 86 40 64
        E 0 8e 40 64
        E 0 96 47 64
        E 0 9e 47 64
        E 962 86 47 64
        E 0 8e 47 64
        E 0 96 47 64
        E 0 9e 47 64
        E 477 86 47 64
        E 0 8e 47 64
        E 1 96 48 64
        E 0 9e 48 64
        E 487 86 48 64
        E 0 8e 48 64
        E 0 8f 32 64
        E 0 96 45 64
        E 0 9e 45 64
        E 0 9f 30 5a
        E 473 86 45 64
        E 0 8e 45 64
        E 0 96 45 64
        E 0 9e 45 64
        E 482 86 45 64
        E 0 8e 45 64
        E 237 96 40 64
        E 1 9e 40 64
        E 240 86 40 64
        E 0 8e 40 64
        E 0 96 40 64
        E 1 9e 40 64
        E 238 86 40 64
        E 0 8e 40 64
        E 2 96 41 64
        E 0 9e 41 64
        E 240 86 41 64
        E 0 8e 41 64
        E 0 8f 30 64
        E 1 96 41 64
        E 0 9e 41 64
        E 0 9f 2b 5a
        E 478 86 41 64
        E 0 8e 41 64
        E 0 96 41 64
        E 0 9e 41 64
        E 480 86 41 64
        E 0 8e 41 64
        E 479 96 3e 64
        E 0 9e 3e 64
        E 481 86 3e 64
        E 0 8e 3e 64
        E 0 8f 2b 64
        E 0 96 41 64
        E 0 9e 41 64
        E 0 9f 2b 5a
        E 481 86 41 64
        E 0 8e 41 64
        E 0 96 41 64
        E 1 9e 41 64
        E 479 86 41 64
        E 0 8e 41 64
        E 1 96 41 64
        E 0 9e 41 64
        E 478 86 41 64
        E 0 8e 41 64
        E 1 96 40 64
        E 0 9e 40 64
        E 480 86 40 64
        E 0 8e 40 64
        E 0 8f 2b 64
        E 0 96 40 64
        E 0 9e 40 64
        E 0 9f 30 5a
        E 479 86 40 64
        E 0 8e 40 64
        E 0 96 40 64
        E 0 9e 40 64
        E 480 86 40 64
        E 0 8e 40 64
        E 961 8f 30 64
        E 0 96 43 64
        E 0 9e 43 64
        E 0 9f 30 5a
        E 479 86 43 64
        E 0 8e 43 64
        E 0 96 43 64
        E 0 9e 43 64
        E 479 86 43 64
        E 0 8e 43 64
        E 0 96 43 64
        E 0 9e 43 64
        E 479 86 43 64
        E 0 8e 43 64
        E 0 96 41 64
        E 0 9e 41 64
        E 242 86 41 64
        E 1 8e 41 64
        E 0 96 43 64
        E 1 9e 43 64
        E 240 86 43 64
        E 0 8e 43 64
        E 0 8f 30 64
        E 0 96 45 64
        E 0 9e 45 64
        E 0 9f 35 5a
        E 479 86 45 64
        E 0 8e 45 64
        E 0 96 45 64
        E 0 9e 45 64
        E 479 86 45 64
        E 0 8e 45 64
        E 959 8f 35 64
        E 0 96 48 64
        E 0 9e 48 64
        E 0 9f 35 5a
        E 961 86 48 64
        E 0 8e 48 64
        E 0 96 47 64
        E 0 9e 47 64
        E 479 86 47 64
        E 0 8e 47 64
        E 0 96 48 64
        E 1 9e 48 64
        E 482 86 48 64
        E 0 8e 48 64
        E 0 8f 35 64
        E 1 96 43 64
        E 0 9e 43 64
        E 0 9f 37 5a
        E 476 86 43 64
        E 0 8e 43 64
        E 0 96 43 64
        E 0 9e 43 64
        E 481 86 43 64
        E 0 8e 43 64
        E 0 8f 37 64
        E 0 9f 30 5a
        E 1441 8f 30 64
        E 0 92 43 64
        E 0 93 3e 5a
        E 0 9f 37 5a
        E 239 8f 37 64
        E 0 9f 37 5a
        E 244 82 43 64
        E 1 83 3e 64
        E 0 8f 37 64
        E 0 92 45 64
        E 0 93 3e 5a
        E 1 9f 37 5a
        E 235 8f 37 64
        E 1 9f 37 5a
        E 239 82 45 64
        E 0 83 3e 64
        E 0 8f 37 64
        E 0 92 47 64
        E 0 93 3e 5a
        E 0 9f 37 5a
        E 238 8f 37 64
        E 0 9f 37 5a
        E 240 82 47 64
        E 1 83 3e 64
        E 0 8f 37 64
        E 0 92 48 64
        E 0 93 3e 5a
        E 0 9f 37 5a
        E 241 8f 37 64
        E 0 9f 37 5a
        E 239 82 48 64
        E 0 83 3e 64
        E 0 8f 37 64
        E 0 92 4a 64
        E 0 93 47 5a
        E 1 9f 37 5a
        E 239 8f 37 64
        E 0 9f 37 5a
        E 239 83 47 64
        E 0 8f 37 64
        E 1 93 47 5a
        E 0 9f 37 5a
        E 241 8f 37 64
        E 0 9f 37 5a
        E 239 82 4a 64
        E 0 83 47 64
        E 0 8f 37 64
        E 0 92 4a 64
        E 0 93 47 5a
        E 0 9f 37 5a
        E 238 8f 37 64
        E 0 9f 37 5a
        E 241 82 4a 64
        E 0 83 47 64
        E 0 8f 37 64
        E 1 92 4f 64
        E 0 93 47 5a
        E 0 9f 37 5a
        E 240 8f 37 64
        E 0 9f 37 5a
        E 240 82 4f 64
        E 0 83 47 64
        E 0 8f 37 64
        E 0 92 48 64
        E 0 93 45 5a
        E 0 9f 39 5a
        E 240 8f 39 64
        E 0 9f 39 5a
        E 241 83 45 64
        E 0 8f 39 64
        E 0 93 45 5a
        E 1 9f 39 5a
        E 237 8f 39 64
        E 0 9f 39 5a
        E 243 82 48 64
        E 0 83 45 64
        E 0 8f 39 64
        E 0 92 48 64
        E 0 93 42 5a
        E 0 9f 32 5a
        E 239 8f 32 64
        E 1 9f 32 5a
        E 238 82 48 64
        E 0 83 42 64
        E 0 8f 32 64
        E 1 92 51 64
        E 0 93 42 5a
        E 0 9f 32 5a
        E 239 8f 32 64
        E 0 9f 32 5a
        E 239 82 51 64
        E 0 83 42 64
        E 0 8f 32 64
        E 0 92 47 64
        E 0 93 3e 5a
        E 1 9f 2b 5a
        E 241 8f 2b 64
        E 0 9f 2b 5a
        E 239 82 47 64
        E 0 83 3e 64
        E 0 8f 2b 64
        E 1 92 45 64
        E 0 93 3e 5a
        E 2 9f 2b 5a
        E 238 8f 2b 64
        E 0 9f 2b 5a
        E 239 82 45 64
        E 0 83 3e 64
        E 0 8f 2b 64
        E 0 92 43 64
        E 0 93 3e 5a
        E 0 9f 2b 5a
        E 240 8f 2b 64
        E 0 9f 2b 5a
        E 240 83 3e 64
        E 0 8f 2b 64
        E 0 93 3e 5a
        E 0 9f 2b 5a
        E 239 8f 2b 64
        E 1 9f 2b 5a
        E 240 82 43 64
        E 0 83 3e 64
        E 0 8f 2b 64
        E 0 92 43 64
        E 0 93 3e 5a
        E 0 9f 2b 5a
        E 240 8f 2b 64
        E 0 9f 2b 5a
        E 238 82 43 64
        E 1 83 3e 64
        E 0 8f 2b 64
        E 0 92 42 64
        E 0 93 3e 5a
        E 0 9f 2b 5a
        E 241 8f 2b 64
        E 0 9f 2b 5a
        E 241 82 42 64
        E 0 83 3e 64
        E 0 8f 2b 64
        E 0 92 40 64
        E 0 93 3e 5a
        E 0 9f 2b 5a
        E 238 8f 2b 64
        E 0 9f 2b 5a
        E 241 82 40 64
        E 0 83 3e 64
        E 0 8f 2b 64
        E 1 92 3e 64
        E 2 93 3e 5a
        E 0 9f 2b 5a
        E 237 8f 2b 64
        E 0 9f 2b 5a
        E 240 82 3e 64
        E 0 83 3e 64
        E 0 8f 2b 64
        E 0 92 40 64
        E 0 93 3c 5a
        E 0 9f 2b 5a
        E 239 8f 2b 64
        E 0 9f 2b 5a
        E 243 83 3c 64
        E 0 8f 2b 64
        E 0 93 3c 5a
        E 0 9f 2b 5a
        E 239 8f 2b 64
        E 0 9f 2b 5a
        E 239 82 40 64
        E 0 83 3c 64
        E 0 8f 2b 64
        E 0 92 3e 64
        E 0 93 37 5a
        E 0 9f 2b 5a
        E 241 8f 2b 64
        E 1 9f 2b 5a
        E 238 82 3e 64
        E 0 83 37 64
        E 0 8f 2b 64
        E 0 92 43 64
        E 1 93 37 5a
        E 0 9f 2b 5a
        E 240 8f 2b 64
        E 0 9f 2b 5a
        E 239 82 43 64
        E 0 83 37 64
        E 0 8f 2b 64
        E 0 92 40 64
        E 0 93 3c 5a
        E 0 9f 2b 5a
        E 241 8f 2b 64
        E 0 9f 2b 5a
        E 238 83 3c 64
        E 1 8f 2b 64
        E 0 93 3c 5a
        E 0 9f 2b 5a
        E 241 8f 2b 64
        E 0 9f 2b 5a
        E 239 82 40 64
        E 0 83 3c 64
        E 0 8f 2b 64
        E 0 92 3e 64
        E 0 93 37 5a
        E 0 9f 2b 5a
        E 240 8f 2b 64
        E 0 9f 2b 5a
        E 240 82 3e 64
        E 0 83 37 64
        E 0 8f 2b 64
        E 0 92 43 64
        E 0 93 37 5a
        E 0 9f 2b 5a
        E 239 8f 2b 64
        E 0 9f 2b 5a
        E 240 82 43 64
        E 0 83 37 64
        E 1 8f 2b 64
        E 0 92 40 64
        E 0 93 3c 5a
        E 0 9f 2b 5a
        E 241 8f 2b 64
        E 0 9f 2b 5a
        E 239 83 3c 64
        E 0 8f 2b 64
        E 0 93 3c 5a
        E 0 9f 2b 5a
        E 241 8f 2b 64
        E 0 9f 2b 5a
        E 239 82 40 64
        E 0 83 3c 64
        E 0 8f 2b 64
        E 0 92 3e 64
        E 0 93 37 5a
        E 0 9f 2b 5a
        E 240 8f 2b 64
        E 0 9f 2b 5a
        E 241 83 37 64
        E 0 8f 2b 64
        E 2 93 37 5a
        E 0 9f 2b 5a
        E 237 8f 2b 64
        E 0 9f 2b 5a
        E 242 82 3e 64
        E 0 83 37 64
        E 0 8f 2b 64
        E 0 92 4a 64
        E 0 93 42 5a
        E 0 9f 32 5a
        E 237 8f 32 64
        E 0 9f 32 5a
        E 241 82 4a 64
        E 1 83 42 64
        E 0 8f 32 64
        E 0 92 49 64
        E 0 93 42 5a
        E 0 9f 32 5a
        E 241 8f 32 64
        E 0 9f 32 5a
        E 236 82 49 64
        E 1 83 42 64
        E 0 8f 32 64
        E 0 92 47 64
        E 0 93 42 5a
        E 0 9f 32 5a
        E 241 8f 32 64
        E 0 9f 32 5a
        E 239 82 47 64
        E 0 83 42 64
        E 0 8f 32 64
        E 0 92 45 64
        E 1 93 42 5a
        E 0 9f 32 5a
        E 240 8f 32 64
        E 0 9f 32 5a
        E 241 82 45 64
        E 0 83 42 64
        E 0 8f 32 64
        E 0 92 47 64
        E 0 93 43 5a
        E 0 9f 32 5a
        E 240 8f 32 64
        E 0 9f 32 5a
        E 238 83 43 64
        E 0 8f 32 64
        E 0 93 43 5a
        E 0 9f 32 5a
        E 241 8f 32 64
        E 0 9f 32 5a
        E 240 82 47 64
        E 1 83 43 64
        E 0 8f 32 64
        E 0 92 45 64
        E 0 93 3e 5a
        E 0 9f 32 5a
        E 239 8f 32 64
        E 0 9f 32 5a
        E 240 82 45 64
        E 0 83 3e 64
        E 0 8f 32 64
        E 0 92 4a 64
        E 0 93 3e 5a
        E 0 9f 32 5a
        E 239 8f 32 64
        E 0 9f 32 5a
        E 240 82 4a 64
        E 0 83 3e 64
        E 0 8f 32 64
        E 0 92 47 64
        E 0 93 43 5a
        E 0 9f 32 5a
        E 242 8f 32 64
        E 0 9f 32 5a
        E 239 83 43 64
        E 0 8f 32 64
        E 1 93 43 5a
        E 0 9f 32 5a
        E 239 8f 32 64
        E 0 9f 32 5a
        E 240 82 47 64
        E 0 83 43 64
        E 0 8f 32 64
        E 0 92 45 64
        E 0 93 3e 5a
        E 0 9f 32 5a
        E 242 8f 32 64
        E 0 9f 32 5a
        E 240 82 45 64
        E 0 83 3e 64
        E 0 8f 32 64
        E 0 92 4a 64
        E 0 93 3e 5a
        E 0 9f 32 5a
        E 239 8f 32 64
        E 0 9f 32 5a
        E 241 82 4a 64
        E 0 83 3e 64
        E 0 8f 32 64
        E 0 92 47 64
        E 0 93 43 5a
        E 0 9f 32 5a
        E 239 8f 32 64
        E 2 9f 32 5a
        E 238 83 43 64
        E 0 8f 32 64
        E 0 93 43 5a
        E 0 9f 32 5a
        E 240 8f 32 64
        E 0 9f 32 5a
        E 239 82 47 64
        E 0 83 43 64
        E 0 8f 32 64
        E 0 92 45 64
        E 0 93 3e 5a
        E 0 9f 32 5a
        E 241 8f 32 64
        E 0 9f 32 5a
        E 238 83 3e 64
        E 0 8f 32 64
        E 0 93 3e 5a
        E 0 9f 32 5a
        E 241 8f 32 64
        E 0 9f 32 5a
        E 241 82 45 64
        E 0 83 3e 64
        E 0 8f 32 64
        E 0 92 56 64
        E 0 93 42 5a
        E 0 9f 3e 5a
        E 238 8f 3e 64
        E 0 9f 3e 5a
        E 241 83 42 64
        E 0 8f 3e 64
        E 0 93 42 5a
        E 0 9f 3e 5a
        E 239 8f 3e 64
        E 0 9f 3e 5a
        E 241 82 56 64
        E 0 83 42 64
        E 0 8f 3e 64
        E 0 92 56 64
        E 0 93 40 5a
        E 0 9f 3d 5a
        E 240 8f 3d 64
        E 1 9f 3d 5a
        E 241 83 40 64
        E 0 8f 3d 64
        E 0 93 40 5a
        E 0 9f 3d 5a
        E 239 8f 3d 64
        E 1 9f 3d 5a
        E 239 82 56 64
        E 0 83 40 64
        E 0 8f 3d 64
        E 0 92 56 64
        E 0 93 3e 5a
        E 0 9f 3b 5a
        E 240 8f 3b 64
        E 0 9f 3b 5a
        E 239 83 3e 64
        E 0 8f 3b 64
        E 0 93 3e 5a
        E 0 9f 3b 5a
        E 241 8f 3b 64
        E 0 9f 3b 5a
        E 239 82 56 64
        E 0 83 3e 64
        E 0 8f 3b 64
        E 1 92 56 64
        E 0 93 3d 5a
        E 0 9f 39 5a
        E 240 8f 39 64
        E 1 9f 39 5a
        E 238 83 3d 64
        E 1 8f 39 64
        E 1 93 3d 5a
        E 0 9f 39 5a
        E 238 8f 39 64
        E 0 9f 39 5a
        E 241 82 56 64
        E 0 83 3d 64
        E 0 8f 39 64
        E 0 92 56 64
        E 0 93 3b 5a
        E 0 9f 37 5a
        E 238 8f 37 64
        E 1 9f 37 5a
        E 240 83 3b 64
        E 0 8f 37 64
        E 0 93 3b 5a
        E 0 9f 37 5a
        E 239 8f 37 64
        E 1 9f 37 5a
        E 241 82 56 64
        E 0 83 3b 64
        E 0 8f 37 64
        E 0 92 56 64
        E 0 93 39 5a
        E 0 9f 36 5a
        E 241 8f 36 64
        E 0 9f 36 5a
        E 239 83 39 64
        E 0 8f 36 64
        E 0 93 39 5a
        E 1 9f 36 5a
        E 239 8f 36 64
        E 0 9f 36 5a
        E 240 82 56 64
        E 0 83 39 64
        E 0 8f 36 64
        E 0 92 56 64
        E 0 93 37 5a
        E 0 9f 34 5a
        E 239 8f 34 64
        E 0 9f 34 5a
        E 241 83 37 64
        E 0 8f 34 64
        E 3 93 37 5a
        E 0 9f 34 5a
        E 236 8f 34 64
        E 1 9f 34 5a
        E 241 82 56 64
        E 0 83 37 64
        E 0 8f 34 64
        E 0 92 56 64
        E 0 93 36 5a
        E 0 9f 32 5a
        E 237 8f 32 64
        E 0 9f 32 5a
        E 241 82 56 64
        E 0 83 36 64
        E 0 8f 32 64
        E 0 92 51 64
        E 1 93 36 5a
        E 0 9f 32 5a
        E 238 8f 32 64
        E 0 9f 32 5a
        E 243 82 51 64
        E 0 83 36 64
        E 0 8f 32 64
        E 0 92 4f 64
        E 0 93 3e 5a
        E 0 9f 32 5a
        E 239 8f 32 64
        E 1 9f 31 5a
        E 236 82 4f 64
        E 0 83 3e 64
        E 1 8f 31 64
        E 0 92 4e 64
        E 0 93 3e 5a
        E 0 9f 32 5a
        E 242 8f 32 64
        E 0 9f 34 5a
        E 240 82 4e 64
        E 0 83 3e 64
        E 0 8f 34 64
        E 0 92 4c 64
        E 0 93 3e 5a
        E 0 9f 36 5a
        E 239 8f 36 64
        E 0 9f 34 5a
        E 240 82 4c 64
        E 1 83 3e 64
        E 0 8f 34 64
        E 1 92 4a 64
        E 0 93 3e 5a
        E 0 9f 36 5a
        E 238 8f 36 64
        E 1 9f 37 5a
        E 239 82 4a 64
        E 0 83 3e 64
        E 0 8f 37 64
        E 0 92 51 64
        E 0 93 3d 5a
        E 1 9f 39 5a
        E 240 8f 39 64
        E 0 9f 37 5a
        E 240 83 3d 64
        E 0 8f 37 64
        E 0 93 3d 5a
        E 1 9f 39 5a
        E 238 8f 39 64
        E 1 9f 3b 5a
        E 240 82 51 64
        E 0 83 3d 64
        E 0 8f 3b 64
        E 0 93 39 5a
        E 0 9f 39 5a
        E 239 8f 39 64
        E 0 9f 37 5a
        E 241 83 39 64
        E 0 8f 37 64
        E 0 92 45 64
        E 0 93 3e 5a
        E 0 9f 36 5a
        E 239 8f 36 64
        E 0 9f 34 5a
        E 240 82 45 64
        E 0 83 3e 64
        E 0 8f 34 64
        E 0 92 47 64
        E 0 93 3e 5a
        E 0 9f 32 5a
        E 239 8f 32 64
        E 0 9f 32 5a
        E 240 83 3e 64
        E 0 8f 32 64
        E 0 93 3e 5a
        E 1 9f 32 5a
        E 241 8f 32 64
        E 1 9f 32 5a
        E 240 82 47 64
        E 0 83 3e 64
        E 0 8f 32 64
        E 0 92 45 64
        E 0 93 3e 5a
        E 0 9f 32 5a
        E 239 8f 32 64
        E 1 9f 32 5a
        E 238 82 45 64
        E 0 83 3e 64
        E 0 8f 32 64
        E 0 92 4a 64
        E 0 93 3e 5a
        E 1 9f 32 5a
        E 239 8f 32 64
        E 0 9f 32 5a
        E 240 82 4a 64
        E 0 83 3e 64
        E 0 8f 32 64
        E 1 92 43 64
        E 0 93 3e 5a
        E 0 9f 32 5a
        E 238 8f 32 64
        E 1 9f 32 5a
        E 239 83 3e 64
        E 0 8f 32 64
        E 0 93 3e 5a
        E 0 9f 32 5a
        E 243 8f 32 64
        E 0 9f 32 5a
        E 238 82 43 64
        E 0 83 3e 64
        E 0 8f 32 64
        E 1 92 42 64
        E 0 93 3e 5a
        E 0 9f 32 5a
        E 239 8f 32 64
        E 0 9f 32 5a
        E 239 82 42 64
        E 0 83 3e 64
        E 0 8f 32 64
        E 0 92 45 64
        E 0 93 3e 5a
        E 0 9f 32 5a
        E 241 8f 32 64
        E 0 9f 32 5a
        E 239 82 45 64
        E 0 83 3e 64
        E 0 8f 32 64
        E 1 92 4a 64
        E 0 93 42 5a
        E 0 9f 32 5a
        E 240 8f 32 64
        E 0 9f 32 5a
        E 242 82 4a 64
        E 0 83 42 64
        E 0 8f 32 64
        E 0 92 49 64
        E 0 93 42 5a
        E 0 9f 32 5a
        E 239 82 49 64
        E 0 8f 32 64
        E 0 92 4a 64
        E 0 9f 32 5a
        E 239 82 4a 64
        E 0 83 42 64
        E 0 8f 32 64
        E 0 92 40 64
        E 0 93 3d 5a
        E 0 9f 2d 5a
        E 240 8f 2d 64
        E 0 9f 2d 5a
        E 240 82 40 64
        E 0 83 3d 64
        E 0 8f 2d 64
        E 0 92 43 64
        E 0 93 3d 5a
        E 0 9f 2d 5a
        E 239 8f 2d 64
        E 1 9f 2d 5a
        E 240 82 43 64
        E 0 83 3d 64
        E 0 8f 2d 64
        E 0 92 42 64
        E 0 93 39 5a
        E 0 9f 32 5a
        E 241 8f 32 64
        E 0 9f 32 5a
        E 238 82 42 64
        E 0 83 39 64
        E 0 8f 32 64
        E 0 92 40 64
        E 0 93 39 5a
        E 0 9f 32 5a
        E 241 8f 32 64
        E 0 9f 32 5a
        E 239 82 40 64
        E 0 83 39 64
        E 0 8f 32 64
        E 0 92 3e 64
        E 1 93 39 5a
        E 0 9f 32 5a
        E 238 8f 32 64
        E 0 9f 32 5a
        E 242 82 3e 64
        E 0 83 39 64
        E 0 8f 32 64
        E 1 92 51 64
        E 0 93 39 5a
        E 0 9f 32 5a
        E 238 8f 32 64
        E 0 9f 32 5a
        E 241 82 51 64
        E 0 83 39 64
        E 0 8f 32 64
        E 0 92 51 64
        E 0 93 48 5a
        E 0 9f 39 5a
        E 238 8f 39 64
        E 1 9f 39 5a
        E 241 83 48 64
        E 0 8f 39 64
        E 0 93 48 5a
        E 0 9f 39 5a
        E 240 8f 39 64
        E 0 9f 39 5a
        E 241 82 51 64
        E 0 83 48 64
        E 0 8f 39 64
        E 0 92 51 64
        E 0 93 47 5a
        E 0 9f 37 5a
        E 239 8f 37 64
        E 0 9f 37 5a
        E 239 83 47 64
        E 0 8f 37 64
        E 0 93 47 5a
        E 0 9f 37 5a
        E 241 8f 37 64
        E 1 9f 37 5a
        E 238 82 51 64
        E 0 83 47 64
        E 1 8f 37 64
        E 0 92 51 64
        E 0 93 45 5a
        E 0 9f 36 5a
        E 238 8f 36 64
        E 1 9f 36 5a
        E 242 83 45 64
        E 0 8f 36 64
        E 0 93 45 5a
        E 0 9f 36 5a
        E 240 8f 36 64
        E 1 9f 36 5a
        E 238 82 51 64
        E 0 83 45 64
        E 0 8f 36 64
        E 0 92 51 64
        E 0 93 43 5a
        E 0 9f 34 5a
        E 241 8f 34 64
        E 1 9f 34 5a
        E 240 83 43 64
        E 0 8f 34 64
        E 0 93 43 5a
        E 0 9f 34 5a
        E 238 8f 34 64
        E 0 9f 34 5a
        E 240 82 51 64
        E 0 83 43 64
        E 0 8f 34 64
        E 0 92 51 64
        E 0 93 42 5a
        E 0 9f 32 5a
        E 240 8f 32 64
        E 0 9f 32 5a
        E 243 83 42 64
        E 0 8f 32 64
        E 0 93 42 5a
        E 0 9f 32 5a
        E 238 8f 32 64
        E 0 9f 32 5a
        E 238 82 51 64
        E 0 83 42 64
        E 0 8f 32 64
        E 0 92 51 64
        E 0 93 40 5a
        E 0 9f 31 5a
        E 241 8f 31 64
        E 0 9f 31 5a
        E 240 83 40 64
        E 0 8f 31 64
        E 0 93 40 5a
        E 0 9f 31 5a
        E 239 8f 31 64
        E 0 9f 31 5a
        E 242 82 51 64
        E 0 83 40 64
        E 0 8f 31 64
        E 0 92 56 64
        E 0 93 42 5a
        E 1 9f 32 5a
        E 237 8f 32 64
        E 0 9f 32 5a
        E 242 82 56 64
        E 0 83 42 64
        E 0 8f 32 64
        E 0 92 55 64
        E 0 93 42 5a
        E 0 9f 32 5a
        E 238 82 55 64
        E 1 8f 32 64
        E 0 92 53 64
        E 0 9f 32 5a
        E 240 82 53 64
        E 0 83 42 64
        E 0 8f 32 64
        E 0 92 51 64
        E 0 93 40 5a
        E 0 9f 31 5a
        E 239 8f 31 64
        E 1 9f 31 5a
        E 239 82 51 64
        E 0 83 40 64
        E 0 8f 31 64
        E 1 92 4f 64
        E 0 93 40 5a
        E 1 9f 31 5a
        E 241 8f 31 64
        E 0 9f 31 5a
        E 240 82 4f 64
        E 0 83 40 64
        E 0 8f 31 64
        E 0 92 4e 64
        E 0 93 39 5a
        E 0 9f 32 5a
        E 238 8f 32 64
        E 0 9f 32 5a
        E 240 82 4e 64
        E 0 83 39 64
        E 0 8f 32 64
        E 0 92 4c 64
        E 0 93 39 5a
        E 1 9f 32 5a
        E 239 82 4c 64
        E 0 8f 32 64
        E 0 92 4a 64
        E 0 9f 32 5a
        E 240 82 4a 64
        E 0 83 39 64
        E 0 8f 32 64
        E 0 92 4c 64
        E 0 93 3d 5a
        E 0 9f 2d 5a
        E 239 8f 2d 64
        E 1 9f 2d 5a
        E 242 83 3d 64
        E 0 8f 2d 64
        E 0 93 3d 5a
        E 0 9f 2d 5a
        E 239 8f 2d 64
        E 0 9f 2d 5a
        E 240 82 4c 64
        E 0 83 3d 64
        E 0 8f 2d 64
        E 0 92 4a 64
        E 0 93 3e 5a
        E 0 9f 32 5a
        E 959 82 4a 64
        E 0 83 3e 64
        E 0 8f 32 64
        E 962 92 43 64
        E 0 93 3e 5a
        E 0 96 43 64
        E 0 9f 37 5a
        E 239 8f 37 64
        E 0 9f 37 5a
        E 239 82 43 64
        E 0 83 3e 64
        E 0 86 43 64
        E 0 8f 37 64
        E 0 92 45 64
        E 0 93 3e 5a
        E 0 96 45 64
        E 0 9f 37 5a
        E 240 8f 37 64
        E 0 9f 37 5a
        E 241 82 45 64
        E 0 83 3e 64
        E 0 86 45 64
        E 0 8f 37 64
        E 0 92 47 64
        E 0 93 3e 5a
        E 0 96 47 64
        E 0 9f 37 5a
        E 238 8f 37 64
        E 1 9f 37 5a
        E 239 82 47 64
        E 0 83 3e 64
        E 0 86 47 64
        E 0 8f 37 64
        E 0 92 48 64
        E 0 93 3e 5a
        E 0 96 48 64
        E 0 9f 37 5a
        E 241 8f 37 64
        E 0 9f 37 5a
        E 241 82 48 64
        E 0 83 3e 64
        E 0 86 48 64
        E 0 8f 37 64
        E 0 92 4a 64
        E 0 93 47 5a
        E 0 96 4a 64
        E 0 9f 37 5a
        E 239 8f 37 64
        E 0 9f 37 5a
        E 241 83 47 64
        E 0 8f 37 64
        E 1 93 47 5a
        E 0 9f 37 5a
        E 238 8f 37 64
        E 0 9f 37 5a
        E 241 82 4a 64
        E 0 83 47 64
        E 0 86 4a 64
        E 0 8f 37 64
        E 0 92 4a 64
        E 1 93 47 5a
        E 0 96 4a 64
        E 0 9f 37 5a
        E 239 8f 37 64
        E 2 9f 37 5a
        E 238 82 4a 64
        E 0 83 47 64
        E 0 86 4a 64
        E 0 8f 37 64
        E 0 92 4f 64
        E 0 93 47 5a
        E 0 96 48 64
        E 0 9f 37 5a
        E 239 86 48 64
        E 0 8f 37 64
        E 0 96 47 64
        E 0 9f 37 5a
        E 238 82 4f 64
        E 0 83 47 64
        E 0 86 47 64
        E 0 8f 37 64
        E 0 92 48 64
        E 0 93 45 5a
        E 0 96 48 64
        E 0 9f 39 5a
        E 241 8f 39 64
        E 1 9f 39 5a
        E 240 83 45 64
        E 0 8f 39 64
        E 0 93 45 5a
        E 0 9f 39 5a
        E 241 8f 39 64
        E 0 9f 39 5a
        E 238 82 48 64
        E 0 83 45 64
        E 0 86 48 64
        E 0 8f 39 64
        E 0 92 48 64
        E 0 93 42 5a
        E 1 96 48 64
        E 0 9f 32 5a
        E 241 8f 32 64
        E 2 9f 32 5a
        E 237 82 48 64
        E 0 83 42 64
        E 0 86 48 64
        E 0 8f 32 64
        E 0 92 51 64
        E 0 93 42 5a
        E 1 96 47 64
        E 0 9f 32 5a
        E 238 86 47 64
        E 0 8f 32 64
        E 0 96 45 64
        E 0 9f 32 5a
        E 241 82 51 64
        E 0 83 42 64
        E 0 86 45 64
        E 0 8f 32 64
        E 0 92 47 64
        E 0 93 3e 5a
        E 0 96 47 64
        E 0 9f 2b 5a
        E 240 8f 2b 64
        E 0 9f 2b 5a
        E 242 82 47 64
        E 0 83 3e 64
        E 0 86 47 64
        E 0 8f 2b 64
        E 0 92 45 64
        E 0 93 3e 5a
        E 1 96 45 64
        E 0 9f 2b 5a
        E 238 8f 2b 64
        E 0 9f 2b 5a
        E 239 82 45 64
        E 0 83 3e 64
        E 0 86 45 64
        E 0 8f 2b 64
        E 0 92 43 64
        E 0 93 3e 5a
        E 0 96 43 64
        E 0 9f 2b 5a
        E 241 8f 2b 64
        E 2 9f 2b 5a
        E 237 83 3e 64
        E 0 8f 2b 64
        E 0 93 3e 5a
        E 0 9f 2b 5a
        E 240 8f 2b 64
        E 0 9f 2b 5a
        E 240 82 43 64
        E 0 83 3e 64
        E 0 86 43 64
        E 0 8f 2b 64
        E 0 92 43 64
        E 0 93 3e 5a
        E 0 96 43 64
        E 0 9f 2b 5a
        E 242 8f 2b 64
        E 0 9f 2b 5a
        E 238 82 43 64
        E 0 83 3e 64
        E 0 86 43 64
        E 0 8f 2b 64
        E 0 92 42 64
        E 0 93 3e 5a
        E 0 96 42 64
        E 0 9f 2b 5a
        E 238 8f 2b 64
        E 1 9f 2b 5a
        E 241 82 42 64
        E 0 83 3e 64
        E 0 86 42 64
        E 0 8f 2b 64
        E 0 92 40 64
        E 0 93 3e 5a
        E 0 96 40 64
        E 0 9f 2b 5a
        E 239 8f 2b 64
        E 0 9f 2b 5a
        E 241 82 40 64
        E 0 83 3e 64
        E 0 86 40 64
        E 0 8f 2b 64
        E 0 92 3e 64
        E 0 93 3e 5a
        E 0 96 3e 64
        E 0 9f 2b 5a
        E 239 8f 2b 64
        E 1 9f 2b 5a
        E 240 82 3e 64
        E 0 83 3e 64
        E 0 86 3e 64
        E 0 8f 2b 64
        E 0 92 40 64
        E 0 93 3c 5a
        E 0 96 40 64
        E 0 9f 2b 5a
        E 241 8f 2b 64
        E 0 9f 2b 5a
        E 240 83 3c 64
        E 0 8f 2b 64
        E 0 93 3c 5a
        E 0 9f 2b 5a
        E 240 8f 2b 64
        E 1 9f 2b 5a
        E 237 82 40 64
        E 0 83 3c 64
        E 0 86 40 64
        E 0 8f 2b 64
        E 0 92 3e 64
        E 0 93 37 5a
        E 0 96 3e 64
        E 0 9f 2b 5a
        E 240 8f 2b 64
        E 0 9f 2b 5a
        E 241 82 3e 64
        E 0 83 37 64
        E 0 86 3e 64
        E 0 8f 2b 64
        E 0 92 43 64
        E 0 93 37 5a
        E 0 96 43 64
        E 0 9f 2b 5a
        E 239 8f 2b 64
        E 1 9f 2b 5a
        E 241 82 43 64
        E 0 83 37 64
        E 0 86 43 64
        E 0 8f 2b 64
        E 0 92 40 64
        E 0 93 3c 5a
        E 0 96 40 64
        E 0 9f 2b 5a
        E 238 8f 2b 64
        E 1 9f 2b 5a
        E 241 83 3c 64
        E 0 8f 2b 64
        E 0 93 3c 5a
        E 0 9f 2b 5a
        E 239 8f 2b 64
        E 0 9f 2b 5a
        E 242 82 40 64
        E 0 83 3c 64
        E 0 86 40 64
        E 0 8f 2b 64
        E 0 92 3e 64
        E 0 93 37 5a
        E 0 96 3e 64
        E 0 9f 2b 5a
        E 238 8f 2b 64
        E 0 9f 2b 5a
        E 240 82 3e 64
        E 0 83 37 64
        E 0 86 3e 64
        E 0 8f 2b 64
        E 0 92 43 64
        E 0 93 37 5a
        E 0 96 43 64
        E 0 9f 2b 5a
        E 240 8f 2b 64
        E 0 9f 2b 5a
        E 239 82 43 64
        E 0 83 37 64
        E 0 86 43 64
        E 0 8f 2b 64
        E 0 92 40 64
        E 0 93 3c 5a
        E 0 96 40 64
        E 0 9f 2b 5a
        E 241 8f 2b 64
        E 0 9f 2b 5a
        E 240 83 3c 64
        E 0 8f 2b 64
        E 0 93 3c 5a
        E 0 9f 2b 5a
        E 238 8f 2b 64
        E 0 9f 2b 5a
        E 243 82 40 64
        E 0 83 3c 64
        E 0 86 40 64
        E 0 8f 2b 64
        E 0 92 3e 64
        E 1 93 37 5a
        E 0 96 3e 64
        E 0 9f 2b 5a
        E 239 8f 2b 64
        E 0 9f 2b 5a
        E 240 83 37 64
        E 0 8f 2b 64
        E 0 93 37 5a
        E 0 9f 2b 5a
        E 240 8f 2b 64
        E 0 9f 2b 5a
        E 239 82 3e 64
        E 0 83 37 64
        E 0 86 3e 64
        E 0 8f 2b 64
        E 0 92 4a 64
        E 0 93 42 5a
        E 1 96 4a 64
        E 0 9f 32 5a
        E 240 8f 32 64
        E 0 9f 32 5a
        E 239 82 4a 64
        E 0 83 42 64
        E 0 86 4a 64
        E 0 8f 32 64
        E 0 92 48 64
        E 0 93 42 5a
        E 0 96 48 64
        E 0 9f 32 5a
        E 239 8f 32 64
        E 0 9f 32 5a
        E 240 82 48 64
        E 0 83 42 64
        E 0 86 48 64
        E 0 8f 32 64
        E 1 92 47 64
        E 0 93 42 5a
        E 0 96 47 64
        E 0 9f 32 5a
        E 240 8f 32 64
        E 0 9f 32 5a
        E 240 82 47 64
        E 0 83 42 64
        E 0 86 47 64
        E 0 8f 32 64
        E 0 92 45 64
        E 0 93 42 5a
        E 0 96 45 64
        E 0 9f 32 5a
        E 240 8f 32 64
        E 0 9f 32 5a
        E 244 82 45 64
        E 0 83 42 64
        E 0 86 45 64
        E 0 8f 32 64
        E 0 92 47 64
        E 0 93 43 5a
        E 0 96 47 64
        E 0 9f 32 5a
        E 235 8f 32 64
        E 1 9f 32 5a
        E 241 83 43 64
        E 0 8f 32 64
        E 1 93 43 5a
        E 0 9f 32 5a
        E 239 8f 32 64
        E 0 9f 32 5a
        E 239 82 47 64
        E 0 83 43 64
        E 0 86 47 64
        E 0 8f 32 64
        E 0 92 45 64
        E 0 93 3e 5a
        E 0 96 45 64
        E 0 9f 32 5a
        E 241 8f 32 64
        E 1 9f 32 5a
        E 239 82 45 64
        E 0 83 3e 64
        E 0 86 45 64
        E 0 8f 32 64
        E 0 92 4a 64
        E 0 93 3e 5a
        E 0 96 4a 64
        E 0 9f 32 5a
        E 238 8f 32 64
        E 1 9f 32 5a
        E 240 82 4a 64
        E 0 83 3e 64
        E 0 86 4a 64
        E 0 8f 32 64
        E 0 92 47 64
        E 0 93 43 5a
        E 0 96 47 64
        E 0 9f 32 5a
        E 242 8f 32 64
        E 0 9f 32 5a
        E 237 83 43 64
        E 0 8f 32 64
        E 0 93 43 5a
        E 0 9f 32 5a
        E 242 8f 32 64
        E 0 9f 32 5a
        E 240 82 47 64
        E 0 83 43 64
        E 0 86 47 64
        E 0 8f 32 64
        E 0 92 45 64
        E 0 93 3e 5a
        E 0 96 45 64
        E 0 9f 32 5a
        E 238 8f 32 64
        E 0 9f 32 5a
        E 242 82 45 64
        E 0 83 3e 64
        E 0 86 45 64
        E 0 8f 32 64
        E 0 92 4a 64
        E 0 93 3e 5a
        E 0 96 4a 64
        E 0 9f 32 5a
        E 239 8f 32 64
        E 0 9f 32 5a
        E 240 82 4a 64
        E 0 83 3e 64
        E 0 86 4a 64
        E 0 8f 32 64
        E 0 92 47 64
        E 0 93 43 5a
        E 0 96 47 64
        E 0 9f 32 5a
        E 240 8f 32 64
        E 0 9f 32 5a
        E 239 83 43 64
        E 0 8f 32 64
        E 0 93 43 5a
        E 0 9f 32 5a
        E 242 8f 32 64
        E 0 9f 32 5a
        E 239 82 47 64
        E 0 83 43 64
        E 0 86 47 64
        E 0 8f 32 64
        E 0 92 45 64
        E 1 93 3e 5a
        E 0 96 45 64
        E 0 9f 32 5a
        E 239 8f 32 64
        E 0 9f 32 5a
        E 240 83 3e 64
        E 0 8f 32 64
        E 0 93 3e 5a
        E 0 9f 32 5a
        E 239 8f 32 64
        E 1 9f 32 5a
        E 242 82 45 64
        E 0 83 3e 64
        E 0 86 45 64
        E 0 8f 32 64
        E 0 92 56 64
        E 0 93 42 5a
        E 0 96 4a 64
        E 0 9f 3e 5a
        E 237 8f 3e 64
        E 0 9f 3e 5a
        E 242 83 42 64
        E 0 8f 3e 64
        E 0 93 42 5a
        E 1 9f 3e 5a
        E 238 8f 3e 64
        E 0 9f 3e 5a
        E 242 82 56 64
        E 0 83 42 64
        E 0 86 4a 64
        E 0 8f 3e 64
        E 0 92 56 64
        E 0 93 40 5a
        E 0 96 4a 64
        E 0 9f 3d 5a
        E 238 8f 3d 64
        E 1 9f 3d 5a
        E 238 83 40 64
        E 1 8f 3d 64
        E 0 93 40 5a
        E 0 9f 3d 5a
        E 239 8f 3d 64
        E 1 9f 3d 5a
        E 241 82 56 64
        E 0 83 40 64
        E 0 86 4a 64
        E 0 8f 3d 64
        E 0 92 56 64
        E 0 93 3e 5a
        E 0 96 4a 64
        E 0 9f 3b 5a
        E 240 8f 3b 64
        E 0 9f 3b 5a
        E 239 83 3e 64
        E 1 8f 3b 64
        E 0 93 3e 5a
        E 0 9f 3b 5a
        E 239 8f 3b 64
        E 0 9f 3b 5a
        E 241 82 56 64
        E 0 83 3e 64
        E 0 86 4a 64
        E 0 8f 3b 64
        E 0 92 56 64
        E 0 93 3d 5a
        E 0 96 4a 64
        E 0 9f 39 5a
        E 239 8f 39 64
        E 1 9f 39 5a
        E 239 83 3d 64
        E 0 8f 39 64
        E 0 93 3d 5a
        E 0 9f 39 5a
        E 239 8f 39 64
        E 0 9f 39 5a
        E 243 82 56 64
        E 0 83 3d 64
        E 0 86 4a 64
        E 0 8f 39 64
        E 4 92 56 64
        E 0 93 3b 5a
        E 0 96 4a 64
        E 0 9f 37 5a
        E 235 8f 37 64
        E 1 9f 37 5a
        E 238 83 3b 64
        E 0 8f 37 64
        E 0 93 3b 5a
        E 0 9f 37 5a
        E 240 8f 37 64
        E 0 9f 37 5a
        E 242 82 56 64
        E 0 83 3b 64
        E 0 86 4a 64
        E 0 8f 37 64
        E 0 92 56 64
        E 0 93 39 5a
        E 0 96 4a 64
        E 0 9f 36 5a
        E 238 8f 36 64
        E 0 9f 36 5a
        E 240 83 39 64
        E 0 8f 36 64
        E 0 93 39 5a
        E 0 9f 36 5a
        E 241 8f 36 64
        E 1 9f 36 5a
        E 239 82 56 64
        E 0 83 39 64
        E 0 86 4a 64
        E 0 8f 36 64
        E 0 92 56 64
        E 0 93 37 5a
        E 0 96 4a 64
        E 0 9f 34 5a
        E 239 8f 34 64
        E 0 9f 34 5a
        E 241 83 37 64
        E 0 8f 34 64
        E 0 93 37 5a
        E 0 9f 34 5a
        E 240 8f 34 64
        E 0 9f 34 5a
        E 239 82 56 64
        E 0 83 37 64
        E 0 86 4a 64
        E 0 8f 34 64
        E 0 92 56 64
        E 0 93 36 5a
        E 0 96 4a 64
        E 0 9f 32 5a
        E 240 8f 32 64
        E 0 9f 32 5a
        E 242 82 56 64
        E 0 83 36 64
        E 0 86 4a 64
        E 0 8f 32 64
        E 0 92 51 64
        E 0 93 36 5a
        E 0 96 45 64
        E 0 9f 32 5a
        E 238 8f 32 64
        E 1 9f 32 5a
        E 238 82 51 64
        E 0 83 36 64
        E 0 86 45 64
        E 0 8f 32 64
        E 0 92 4f 64
        E 0 93 3e 5a
        E 0 96 43 64
        E 0 9f 32 5a
        E 242 8f 32 64
        E 0 9f 31 5a
        E 238 82 4f 64
        E 0 83 3e 64
        E 0 86 43 64
        E 0 8f 31 64
        E 0 92 4e 64
        E 0 93 3e 5a
        E 0 96 42 64
        E 0 9f 32 5a
        E 241 8f 32 64
        E 0 9f 34 5a
        E 240 82 4e 64
        E 0 83 3e 64
        E 0 86 42 64
        E 0 8f 34 64
        E 0 92 4c 64
        E 0 93 3e 5a
        E 0 96 40 64
        E 0 9f 36 5a
        E 241 8f 36 64
        E 0 9f 34 5a
        E 239 82 4c 64
        E 0 83 3e 64
        E 0 86 40 64
        E 0 8f 34 64
        E 0 92 4a 64
        E 0 93 3e 5a
        E 0 96 3e 64
        E 0 9f 36 5a
        E 241 8f 36 64
        E 1 9f 37 5a
        E 239 82 4a 64
        E 0 83 3e 64
        E 0 86 3e 64
        E 0 8f 37 64
        E 0 92 51 64
        E 0 93 3d 5a
        E 0 96 45 64
        E 0 9f 39 5a
        E 239 8f 39 64
        E 1 9f 37 5a
        E 239 83 3d 64
        E 0 8f 37 64
        E 0 93 3d 5a
        E 1 9f 39 5a
        E 240 8f 39 64
        E 0 9f 3b 5a
        E 239 82 51 64
        E 0 83 3d 64
        E 0 86 45 64
        E 0 8f 3b 64
        E 0 93 39 5a
        E 0 9f 39 5a
        E 241 8f 39 64
        E 2 9f 37 5a
        E 236 83 39 64
        E 0 8f 37 64
        E 0 92 4a 64
        E 0 93 39 5a
        E 0 96 4a 64
        E 1 9f 36 5a
        E 241 8f 36 64
        E 0 9f 34 5a
        E 239 82 4a 64
        E 0 83 39 64
        E 0 86 4a 64
        E 0 8f 34 64
        E 0 92 47 64
        E 0 93 3e 5a
        E 0 96 47 64
        E 0 9f 32 5a
        E 240 8f 32 64
        E 2 9f 32 5a
        E 237 83 3e 64
        E 0 8f 32 64
        E 0 93 3e 5a
        E 1 9f 32 5a
        E 241 8f 32 64
        E 0 9f 32 5a
        E 238 82 47 64
        E 0 83 3e 64
        E 0 86 47 64
        E 0 8f 32 64
        E 0 92 45 64
        E 0 93 3e 5a
        E 0 96 45 64
        E 0 9f 32 5a
        E 240 8f 32 64
        E 0 9f 32 5a
        E 242 82 45 64
        E 0 83 3e 64
        E 0 86 45 64
        E 0 8f 32 64
        E 0 92 4a 64
        E 0 93 3e 5a
        E 0 96 4a 64
        E 0 9f 32 5a
        E 238 8f 32 64
        E 0 9f 32 5a
        E 242 82 4a 64
        E 0 83 3e 64
        E 0 86 4a 64
        E 0 8f 32 64
        E 0 92 43 64
        E 0 93 3e 5a
        E 0 96 43 64
        E 0 9f 32 5a
        E 239 8f 32 64
        E 0 9f 32 5a
        E 240 83 3e 64
        E 0 8f 32 64
        E 0 93 3e 5a
        E 0 9f 32 5a
        E 241 8f 32 64
        E 0 9f 32 5a
        E 241 82 43 64
        E 0 83 3e 64
        E 0 86 43 64
        E 0 8f 32 64
        E 0 92 42 64
        E 0 93 3e 5a
        E 0 96 42 64
        E 0 9f 32 5a
        E 238 8f 32 64
        E 0 9f 32 5a
        E 240 82 42 64
        E 0 83 3e 64
        E 0 86 42 64
        E 0 8f 32 64
        E 0 92 4a 64
        E 0 93 3e 5a
        E 0 96 4a 64
        E 0 9f 32 5a
        E 240 8f 32 64
        E 0 9f 32 5a
        E 240 82 4a 64
        E 0 83 3e 64
        E 0 86 4a 64
        E 0 8f 32 64
        E 0 92 47 64
        E 0 93 3e 5a
        E 0 96 47 64
        E 0 9f 32 5a
        E 240 8f 32 64
        E 0 9f 32 5a
        E 240 83 3e 64
        E 0 8f 32 64
        E 0 93 3e 5a
        E 0 9f 32 5a
        E 241 8f 32 64
        E 0 9f 32 5a
        E 239 82 47 64
        E 0 83 3e 64
        E 0 86 47 64
        E 0 8f 32 64
        E 0 92 45 64
        E 0 93 3e 5a
        E 0 96 45 64
        E 0 9f 32 5a
        E 240 8f 32 64
        E 1 9f 32 5a
        E 240 82 45 64
        E 0 83 3e 64
        E 0 86 45 64
        E 0 8f 32 64
        E 0 92 4c 64
        E 0 93 3e 5a
        E 0 96 4c 64
        E 0 9f 32 5a
        E 239 8f 32 64
        E 0 9f 32 5a
        E 241 82 4c 64
        E 0 83 3e 64
        E 0 86 4c 64
        E 0 8f 32 64
        E 0 92 43 64
        E 0 93 3e 5a
        E 0 96 43 64
        E 0 9f 32 5a
        E 240 8f 32 64
        E 0 9f 32 5a
        E 238 83 3e 64
        E 0 8f 32 64
        E 0 93 3e 5a
        E 1 9f 32 5a
        E 241 8f 32 64
        E 0 9f 32 5a
        E 239 82 43 64
        E 0 83 3e 64
        E 1 86 43 64
        E 0 8f 32 64
        E 0 92 42 64
        E 0 93 3e 5a
        E 0 96 42 64
        E 0 9f 32 5a
        E 240 8f 32 64
        E 0 9f 32 5a
        E 238 83 3e 64
        E 1 8f 32 64
        E 0 93 3e 5a
        E 0 9f 32 5a
        E 240 8f 32 64
        E 0 9f 32 5a
        E 241 82 42 64
        E 0 83 3e 64
        E 0 86 42 64
        E 0 8f 32 64
        E 0 92 45 64
        E 0 93 3e 5a
        E 0 96 45 64
        E 0 9f 32 5a
        E 239 8f 32 64
        E 0 9f 32 5a
        E 240 83 3e 64
        E 0 8f 32 64
        E 0 93 3e 5a
        E 0 9f 32 5a
        E 241 8f 32 64
        E 0 9f 32 5a
        E 239 82 45 64
        E 0 83 3e 64
        E 0 86 45 64
        E 0 8f 32 64
        E 0 92 45 64
        E 0 93 3e 5a
        E 0 96 45 64
        E 0 9f 32 5a
        E 239 8f 32 64
        E 1 9f 32 5a
        E 241 83 3e 64
        E 0 8f 32 64
        E 0 93 3e 5a
        E 0 9f 32 5a
        E 239 8f 32 64
        E 0 9f 32 5a
        E 240 82 45 64
        E 0 83 3e 64
        E 0 86 45 64
        E 0 8f 32 64
        E 0 92 51 64
        E 0 93 49 5a
        E 0 96 45 64
        E 0 9f 39 5a
        E 240 8f 39 64
        E 0 9f 39 5a
        E 240 83 49 64
        E 0 8f 39 64
        E 0 93 49 5a
        E 0 9f 39 5a
        E 238 8f 39 64
        E 1 9f 39 5a
        E 241 82 51 64
        E 0 83 49 64
        E 0 86 45 64
        E 0 8f 39 64
        E 0 92 51 64
        E 0 93 47 5a
        E 0 96 45 64
        E 0 9f 37 5a
        E 240 8f 37 64
        E 0 9f 37 5a
        E 240 83 47 64
        E 0 8f 37 64
        E 0 93 47 5a
        E 0 9f 37 5a
        E 241 8f 37 64
        E 0 9f 37 5a
        E 238 82 51 64
        E 0 83 47 64
        E 0 86 45 64
        E 0 8f 37 64
        E 0 92 51 64
        E 0 93 45 5a
        E 0 96 45 64
        E 0 9f 36 5a
        E 242 8f 36 64
        E 1 9f 36 5a
        E 239 82 51 64
        E 1 83 45 64
        E 0 8f 36 64
        E 0 92 51 64
        E 0 93 45 5a
        E 0 9f 36 5a
        E 239 8f 36 64
        E 1 9f 36 5a
        E 239 82 51 64
        E 0 83 45 64
        E 0 86 45 64
        E 0 8f 36 64
        E 0 92 4f 64
        E 0 93 43 5a
        E 0 96 45 64
        E 0 9f 34 5a
        E 238 8f 34 64
        E 1 9f 34 5a
        E 240 82 4f 64
        E 0 83 43 64
        E 0 8f 34 64
        E 0 92 4f 64
        E 1 93 43 5a
        E 0 9f 34 5a
        E 241 8f 34 64
        E 0 9f 34 5a
        E 237 82 4f 64
        E 0 83 43 64
        E 0 86 45 64
        E 0 8f 34 64
        E 1 92 4e 64
        E 0 93 42 5a
        E 0 96 4a 64
        E 0 9f 32 5a
        E 239 8f 32 64
        E 1 9f 32 5a
        E 239 82 4e 64
        E 0 83 42 64
        E 0 86 4a 64
        E 0 8f 32 64
        E 0 92 4e 64
        E 0 93 42 5a
        E 0 96 49 64
        E 0 9f 32 5a
        E 242 86 49 64
        E 0 8f 32 64
        E 0 96 47 64
        E 0 9f 32 5a
        E 240 82 4e 64
        E 0 83 42 64
        E 0 86 47 64
        E 0 8f 32 64
        E 0 92 4c 64
        E 0 93 40 5a
        E 0 96 45 64
        E 0 9f 31 5a
        E 239 8f 31 64
        E 1 9f 31 5a
        E 239 82 4c 64
        E 0 83 40 64
        E 0 86 45 64
        E 0 8f 31 64
        E 0 92 4c 64
        E 1 93 40 5a
        E 0 96 43 64
        E 0 9f 31 5a
        E 239 8f 31 64
        E 1 9f 31 5a
        E 239 82 4c 64
        E 0 83 40 64
        E 0 86 43 64
        E 0 8f 31 64
        E 0 92 4e 64
        E 0 93 42 5a
        E 0 96 42 64
        E 0 9f 32 5a
        E 239 8f 32 64
        E 1 9f 32 5a
        E 240 82 4e 64
        E 0 83 42 64
        E 0 86 42 64
        E 0 8f 32 64
        E 0 92 4e 64
        E 0 93 42 5a
        E 0 96 40 64
        E 0 9f 32 5a
        E 241 86 40 64
        E 0 8f 32 64
        E 0 96 3e 64
        E 0 9f 32 5a
        E 239 82 4e 64
        E 0 83 42 64
        E 0 86 3e 64
        E 0 8f 32 64
        E 0 92 4c 64
        E 0 93 40 5a
        E 0 96 40 64
        E 0 9f 31 5a
        E 242 8f 31 64
        E 0 9f 31 5a
        E 238 82 4c 64
        E 0 83 40 64
        E 0 86 40 64
        E 0 8f 31 64
        E 1 92 4c 64
        E 0 93 40 5a
        E 0 96 3d 64
        E 0 9f 31 5a
        E 239 8f 31 64
        E 1 9f 31 5a
        E 239 82 4c 64
        E 1 83 40 64
        E 0 86 3d 64
        E 0 8f 31 64
        E 0 92 45 64
        E 0 93 39 5a
        E 0 96 3e 64
        E 0 9f 32 5a
        E 240 8f 32 64
        E 0 9f 32 5a
        E 239 82 45 64
        E 0 83 39 64
        E 0 8f 32 64
        E 0 92 45 64
        E 0 93 39 5a
        E 0 9f 32 5a
        E 240 8f 32 64
        E 0 9f 32 5a
        E 239 82 45 64
        E 0 83 39 64
        E 0 86 3e 64
        E 0 8f 32 64
        E 0 92 45 64
        E 0 93 39 5a
        E 0 9f 2d 5a
        E 241 8f 2d 64
        E 0 9f 2d 5a
        E 242 82 45 64
        E 0 83 39 64
        E 0 8f 2d 64
        E 0 92 45 64
        E 0 93 39 5a
        E 1 9f 2d 5a
        E 238 8f 2d 64
        E 0 9f 2d 5a
        E 240 82 45 64
        E 0 83 39 64
        E 0 8f 2d 64
        E 0 92 4a 64
        E 0 93 39 5a
        E 0 9f 32 5a
        E 239 8f 32 64
        E 0 9f 32 5a
        E 241 82 4a 64
        E 0 83 39 64
        E 0 8f 32 64
        E 0 92 4c 64
        E 0 93 39 5a
        E 0 9f 32 5a
        E 238 8f 32 64
        E 1 9f 32 5a
        E 243 82 4c 64
        E 0 83 39 64
        E 0 8f 32 64
        E 0 92 4e 64
        E 0 93 39 5a
        E 0 9f 32 5a
        E 238 8f 32 64
        E 1 9f 32 5a
        E 238 82 4e 64
        E 0 83 39 64
        E 0 8f 32 64
        E 0 92 4f 64
        E 1 93 39 5a
        E 0 9f 32 5a
        E 240 8f 32 64
        E 0 9f 32 5a
        E 240 82 4f 64
        E 0 83 39 64
        E 0 8f 32 64
        E 0 92 51 64
        E 0 93 42 5a
        E 0 9f 32 5a
        E 238 8f 32 64
        E 0 9f 32 5a
        E 242 83 42 64
        E 0 8f 32 64
        E 0 93 42 5a
        E 1 9f 32 5a
        E 238 8f 32 64
        E 0 9f 32 5a
        E 240 82 51 64
        E 0 83 42 64
        E 0 8f 32 64
        E 0 92 51 64
        E 0 93 42 5a
        E 0 9f 32 5a
        E 240 8f 32 64
        E 0 9f 32 5a
        E 240 82 51 64
        E 0 83 42 64
        E 0 8f 32 64
        E 0 92 4f 64
        E 0 93 42 5a
        E 0 9f 32 5a
        E 240 82 4f 64
        E 0 8f 32 64
        E 0 92 4e 64
        E 0 9f 32 5a
        E 240 82 4e 64
        E 0 83 42 64
        E 0 8f 32 64
        E 0 92 4f 64
        E 0 93 40 5a
        E 0 9f 34 5a
        E 241 8f 34 64
        E 0 9f 34 5a
        E 239 83 40 64
        E 0 8f 34 64
        E 0 93 40 5a
        E 0 9f 34 5a
        E 239 8f 34 64
        E 0 9f 34 5a
        E 242 82 4f 64
        E 0 83 40 64
        E 0 8f 34 64
        E 0 92 4f 64
        E 0 93 3d 5a
        E 0 9f 2d 5a
        E 241 8f 2d 64
        E 0 9f 2d 5a
        E 238 82 4f 64
        E 0 83 3d 64
        E 0 8f 2d 64
        E 0 92 4e 64
        E 0 93 3d 5a
        E 0 9f 2d 5a
        E 238 82 4e 64
        E 1 8f 2d 64
        E 0 92 4c 64
        E 0 9f 2d 5a
        E 243 82 4c 64
        E 0 83 3d 64
        E 0 8f 2d 64
        E 0 92 4e 64
        E 0 93 39 5a
        E 0 9f 32 5a
        E 238 8f 32 64
        E 0 9f 32 5a
        E 240 82 4e 64
        E 0 83 39 64
        E 0 8f 32 64
        E 0 92 4c 64
        E 0 93 39 5a
        E 0 9f 32 5a
        E 240 8f 32 64
        E 0 9f 32 5a
        E 241 82 4c 64
        E 0 83 39 64
        E 0 8f 32 64
        E 0 92 4a 64
        E 0 93 42 5a
        E 0 9f 32 5a
        E 239 8f 32 64
        E 0 9f 32 5a
        E 240 82 4a 64
        E 0 83 42 64
        E 0 8f 32 64
        E 0 92 49 64
        E 0 93 42 5a
        E 0 9f 32 5a
        E 241 8f 32 64
        E 0 9f 32 5a
        E 240 82 49 64
        E 0 83 42 64
        E 0 8f 32 64
        E 0 92 47 64
        E 1 93 43 5a
        E 0 9f 32 5a
        E 238 8f 32 64
        E 0 9f 32 5a
        E 240 83 43 64
        E 0 8f 32 64
        E 0 93 43 5a
        E 0 9f 32 5a
        E 240 8f 32 64
        E 0 9f 32 5a
        E 240 82 47 64
        E 0 83 43 64
        E 0 8f 32 64
        E 0 92 45 64
        E 0 93 3e 5a
        E 0 9f 32 5a
        E 240 8f 32 64
        E 0 9f 32 5a
        E 240 82 45 64
        E 0 83 3e 64
        E 0 8f 32 64
        E 0 92 4a 64
        E 0 93 3e 5a
        E 0 9f 32 5a
        E 241 8f 32 64
        E 0 9f 32 5a
        E 238 82 4a 64
        E 0 83 3e 64
        E 0 8f 32 64
        E 0 92 47 64
        E 0 93 43 5a
        E 0 9f 32 5a
        E 241 8f 32 64
        E 0 9f 32 5a
        E 240 83 43 64
        E 0 8f 32 64
        E 0 93 43 5a
        E 0 9f 32 5a
        E 240 8f 32 64
        E 0 9f 32 5a
        E 239 82 47 64
        E 0 83 43 64
        E 0 8f 32 64
        E 0 92 45 64
        E 0 93 3e 5a
        E 0 9f 32 5a
        E 240 8f 32 64
        E 0 9f 32 5a
        E 241 82 45 64
        E 0 83 3e 64
        E 0 8f 32 64
        E 0 92 51 64
        E 0 93 3e 5a
        E 0 9f 32 5a
        E 241 8f 32 64
        E 0 9f 32 5a
        E 241 82 51 64
        E 0 83 3e 64
        E 0 8f 32 64
        E 0 92 56 64
        E 0 93 42 5a
        E 0 9f 32 5a
        E 237 8f 32 64
        E 0 9f 32 5a
        E 239 82 56 64
        E 0 83 42 64
        E 0 8f 32 64
        E 0 92 55 64
        E 0 93 42 5a
        E 0 9f 32 5a
        E 242 82 55 64
        E 0 8f 32 64
        E 0 92 53 64
        E 0 9f 32 5a
        E 242 82 53 64
        E 0 83 42 64
        E 0 8f 32 64
        E 0 92 51 64
        E 1 93 40 5a
        E 0 9f 31 5a
        E 237 8f 31 64
        E 0 9f 31 5a
        E 240 82 51 64
        E 0 83 40 64
        E 0 8f 31 64
        E 0 92 4f 64
        E 0 93 40 5a
        E 0 9f 31 5a
        E 241 8f 31 64
        E 0 9f 31 5a
        E 239 82 4f 64
        E 0 83 40 64
        E 0 8f 31 64
        E 0 92 4e 64
        E 0 93 42 5a
        E 0 9f 32 5a
        E 240 8f 32 64
        E 0 9f 32 5a
        E 242 82 4e 64
        E 0 83 42 64
        E 0 8f 32 64
        E 0 92 4c 64
        E 0 93 42 5a
        E 0 9f 32 5a
        E 237 82 4c 64
        E 0 8f 32 64
        E 0 92 4a 64
        E 0 9f 32 5a
        E 243 82 4a 64
        E 0 83 42 64
        E 0 8f 32 64
        E 0 92 4c 64
        E 0 93 3d 5a
        E 0 9f 2d 5a
        E 237 8f 2d 64
        E 1 9f 2d 5a
        E 240 82 4c 64
        E 0 83 3d 64
        E 0 8f 2d 64
        E 0 92 49 64
        E 0 93 3d 5a
        E 0 9f 2d 5a
        E 240 8f 2d 64
        E 1 9f 2d 5a
        E 242 82 49 64
        E 0 83 3d 64
        E 0 8f 2d 64
        E 0 92 4a 64
        E 0 93 39 5a
        E 0 96 3e 64
        E 0 9f 32 5a
        E 237 8f 32 64
        E 0 9f 32 5a
        E 241 82 4a 64
        E 0 83 39 64
        E 0 86 3e 64
        E 0 8f 32 64
        E 0 92 4c 64
        E 1 93 39 5a
        E 0 96 40 64
        E 0 9f 32 5a
        E 239 8f 32 64
        E 0 9f 32 5a
        E 239 82 4c 64
        E 0 83 39 64
        E 0 86 40 64
        E 0 8f 32 64
        E 0 92 4e 64
        E 0 93 39 5a
        E 0 96 42 64
        E 0 9f 32 5a
        E 239 8f 32 64
        E 0 9f 32 5a
        E 242 82 4e 64
        E 0 83 39 64
        E 0 86 42 64
        E 0 8f 32 64
        E 0 92 4f 64
        E 0 93 39 5a
        E 1 96 43 64
        E 0 9f 32 5a
        E 238 8f 32 64
        E 1 9f 32 5a
        E 239 82 4f 64
        E 0 83 39 64
        E 0 86 43 64
        E 0 8f 32 64
        E 0 92 51 64
        E 0 93 42 5a
        E 0 96 45 64
        E 0 9f 32 5a
        E 240 8f 32 64
        E 0 9f 32 5a
        E 242 83 42 64
        E 0 8f 32 64
        E 0 93 42 5a
        E 0 9f 32 5a
        E 237 8f 32 64
        E 0 9f 32 5a
        E 241 82 51 64
        E 0 83 42 64
        E 0 86 45 64
        E 0 8f 32 64
        E 0 92 51 64
        E 0 93 42 5a
        E 0 96 45 64
        E 0 9f 32 5a
        E 243 8f 32 64
        E 0 9f 32 5a
        E 237 82 51 64
        E 0 83 42 64
        E 0 86 45 64
        E 0 8f 32 64
        E 1 92 56 64
        E 0 93 42 5a
        E 0 96 43 64
        E 0 9f 32 5a
        E 239 86 43 64
        E 0 8f 32 64
        E 0 96 42 64
        E 0 9f 32 5a
        E 240 82 56 64
        E 0 83 42 64
        E 0 86 42 64
        E 0 8f 32 64
        E 0 92 4f 64
        E 0 93 40 5a
        E 0 96 43 64
        E 0 9f 34 5a
        E 240 8f 34 64
        E 0 9f 34 5a
        E 239 83 40 64
        E 0 8f 34 64
        E 0 93 40 5a
        E 0 9f 34 5a
        E 240 8f 34 64
        E 0 9f 34 5a
        E 241 82 4f 64
        E 0 83 40 64
        E 0 86 43 64
        E 0 8f 34 64
        E 0 92 4f 64
        E 0 93 3d 5a
        E 0 96 43 64
        E 0 9f 2d 5a
        E 240 8f 2d 64
        E 1 9f 2d 5a
        E 239 82 4f 64
        E 0 83 3d 64
        E 0 86 43 64
        E 0 8f 2d 64
        E 0 92 4e 64
        E 0 93 3d 5a
        E 1 96 42 64
        E 0 9f 2d 5a
        E 239 82 4e 64
        E 0 86 42 64
        E 0 8f 2d 64
        E 0 92 4c 64
        E 0 96 40 64
        E 0 9f 2d 5a
        E 242 82 4c 64
        E 0 83 3d 64
        E 0 86 40 64
        E 0 8f 2d 64
        E 0 92 4e 64
        E 0 93 39 5a
        E 0 96 42 64
        E 0 9f 32 5a
        E 238 8f 32 64
        E 0 9f 32 5a
        E 239 82 4e 64
        E 0 83 39 64
        E 0 86 42 64
        E 0 8f 32 64
        E 0 92 4c 64
        E 0 93 39 5a
        E 0 96 40 64
        E 0 9f 32 5a
        E 242 8f 32 64
        E 0 9f 32 5a
        E 239 82 4c 64
        E 0 83 39 64
        E 0 86 40 64
        E 0 8f 32 64
        E 0 92 4a 64
        E 0 93 42 5a
        E 0 96 3e 64
        E 1 9f 32 5a
        E 238 8f 32 64
        E 1 9f 32 5a
        E 240 83 42 64
        E 0 8f 32 64
        E 0 93 42 5a
        E 0 9f 34 5a
        E 240 8f 34 64
        E 0 9f 36 5a
        E 242 82 4a 64
        E 0 83 42 64
        E 0 86 3e 64
        E 0 8f 36 64
        E 0 92 43 64
        E 0 93 3e 5a
        E 0 96 43 64
        E 0 9f 37 5a
        E 239 8f 37 64
        E 0 9f 37 5a
        E 240 82 43 64
        E 0 83 3e 64
        E 0 86 43 64
        E 0 8f 37 64
        E 0 92 45 64
        E 0 93 3e 5a
        E 0 96 45 64
        E 0 9f 37 5a
        E 240 8f 37 64
        E 0 9f 37 5a
        E 240 82 45 64
        E 0 83 3e 64
        E 0 86 45 64
        E 0 8f 37 64
        E 2 92 47 64
        E 0 93 3e 5a
        E 0 96 47 64
        E 0 9f 37 5a
        E 237 8f 37 64
        E 0 9f 37 5a
        E 239 82 47 64
        E 0 83 3e 64
        E 0 86 47 64
        E 0 8f 37 64
        E 1 92 48 64
        E 0 93 3e 5a
        E 0 96 48 64
        E 0 9f 37 5a
        E 240 8f 37 64
        E 0 9f 37 5a
        E 239 82 48 64
        E 0 83 3e 64
        E 0 86 48 64
        E 0 8f 37 64
        E 0 92 4a 64
        E 0 93 47 5a
        E 0 96 4a 64
        E 0 9f 37 5a
        E 241 8f 37 64
        E 0 9f 37 5a
        E 241 83 47 64
        E 1 8f 37 64
        E 0 93 47 5a
        E 0 9f 37 5a
        E 238 8f 37 64
        E 0 9f 37 5a
        E 241 82 4a 64
        E 0 83 47 64
        E 0 86 4a 64
        E 0 8f 37 64
        E 0 92 4a 64
        E 0 93 47 5a
        E 0 96 4a 64
        E 0 9f 37 5a
        E 239 8f 37 64
        E 2 9f 37 5a
        E 238 82 4a 64
        E 0 83 47 64
        E 0 86 4a 64
        E 0 8f 37 64
        E 0 92 4f 64
        E 0 93 47 5a
        E 0 96 48 64
        E 0 9f 37 5a
        E 239 86 48 64
        E 1 8f 37 64
        E 0 96 47 64
        E 0 9f 37 5a
        E 239 82 4f 64
        E 0 83 47 64
        E 0 86 47 64
        E 0 8f 37 64
        E 0 92 48 64
        E 0 93 45 5a
        E 0 96 48 64
        E 0 9f 39 5a
        E 242 8f 39 64
        E 0 9f 39 5a
        E 239 83 45 64
        E 0 8f 39 64
        E 0 93 45 5a
        E 0 9f 39 5a
        E 240 8f 39 64
        E 0 9f 39 5a
        E 240 82 48 64
        E 0 83 45 64
        E 0 86 48 64
        E 0 8f 39 64
        E 0 92 48 64
        E 0 93 42 5a
        E 0 96 48 64
        E 0 9f 32 5a
        E 241 8f 32 64
        E 0 9f 32 5a
        E 239 82 48 64
        E 0 83 42 64
        E 0 86 48 64
        E 0 8f 32 64
        E 0 92 51 64
        E 1 93 42 5a
        E 0 96 47 64
        E 0 9f 32 5a
        E 240 86 47 64
        E 0 8f 32 64
        E 0 96 45 64
        E 0 9f 32 5a
        E 239 82 51 64
        E 0 83 42 64
        E 0 86 45 64
        E 0 8f 32 64
        E 0 92 47 64
        E 0 93 3e 5a
        E 0 96 47 64
        E 0 9f 37 5a
        E 241 8f 37 64
        E 0 9f 2b 5a
        E 239 82 47 64
        E 0 83 3e 64
        E 0 86 47 64
        E 0 8f 2b 64
        E 0 92 45 64
        E 0 93 3e 5a
        E 0 96 45 64
        E 0 9f 2b 5a
        E 240 8f 2b 64
        E 0 9f 2b 5a
        E 245 82 45 64
        E 0 83 3e 64
        E 0 86 45 64
        E 0 8f 2b 64
        E 0 92 43 64
        E 0 93 3e 5a
        E 0 96 43 64
        E 0 9f 2b 5a
        E 234 8f 2b 64
        E 0 9f 2b 5a
        E 242 83 3e 64
        E 0 8f 2b 64
        E 0 93 3e 5a
        E 0 9f 2b 5a
        E 239 8f 2b 64
        E 0 9f 2b 5a
        E 241 82 43 64
        E 0 83 3e 64
        E 0 86 43 64
        E 0 8f 2b 64
        E 0 92 4a 64
        E 0 93 37 5a
        E 0 96 4a 64
        E 0 9f 2b 5a
        E 239 8f 2b 64
        E 0 9f 2b 5a
        E 241 82 4a 64
        E 0 83 37 64
        E 0 86 4a 64
        E 0 8f 2b 64
        E 0 92 47 64
        E 0 93 37 5a
        E 0 96 47 64
        E 0 9f 2b 5a
        E 239 8f 2b 64
        E 0 9f 2b 5a
        E 240 82 47 64
        E 0 83 37 64
        E 0 86 47 64
        E 0 8f 2b 64
        E 0 92 45 64
        E 0 93 37 5a
        E 0 96 45 64
        E 0 9f 2b 5a
        E 241 8f 2b 64
        E 1 9f 2b 5a
        E 240 82 45 64
        E 0 83 37 64
        E 0 86 45 64
        E 0 8f 2b 64
        E 0 92 43 64
        E 0 93 37 5a
        E 0 96 43 64
        E 0 9f 2b 5a
        E 239 8f 2b 64
        E 0 9f 2b 5a
        E 237 82 43 64
        E 0 83 37 64
        E 0 86 43 64
        E 1 8f 2b 64
        E 0 92 41 64
        E 0 93 37 5a
        E 0 96 41 64
        E 0 9f 2b 5a
        E 241 8f 2b 64
        E 0 9f 2b 5a
        E 240 83 37 64
        E 0 8f 2b 64
        E 0 93 37 5a
        E 0 9f 2b 5a
        E 240 8f 2b 64
        E 1 9f 2b 5a
        E 239 82 41 64
        E 0 83 37 64
        E 0 86 41 64
        E 0 8f 2b 64
        E 0 92 40 64
        E 1 93 37 5a
        E 0 96 40 64
        E 0 9f 30 5a
        E 242 8f 30 64
        E 0 9f 30 5a
        E 237 82 40 64
        E 0 83 37 64
        E 0 86 40 64
        E 0 8f 30 64
        E 0 92 43 64
        E 0 93 37 5a
        E 0 96 43 64
        E 0 9f 30 5a
        E 240 8f 30 64
        E 0 9f 30 5a
        E 239 82 43 64
        E 0 83 37 64
        E 0 86 43 64
        E 0 8f 30 64
        E 0 92 41 64
        E 0 93 37 5a
        E 0 96 41 64
        E 0 9f 2b 5a
        E 241 8f 2b 64
        E 0 9f 2b 5a
        E 241 83 37 64
        E 0 8f 2b 64
        E 0 93 37 5a
        E 0 9f 2b 5a
        E 239 8f 2b 64
        E 0 9f 2b 5a
        E 240 82 41 64
        E 0 83 37 64
        E 0 86 41 64
        E 0 8f 2b 64
        E 2 92 40 64
        E 0 93 37 5a
        E 0 96 40 64
        E 0 9f 30 5a
        E 239 8f 30 64
        E 0 9f 30 5a
        E 239 82 40 64
        E 0 83 37 64
        E 0 86 40 64
        E 0 8f 30 64
        E 0 92 43 64
        E 0 93 37 5a
        E 0 96 43 64
        E 0 9f 30 5a
        E 240 8f 30 64
        E 0 9f 30 5a
        E 240 82 43 64
        E 0 83 37 64
        E 0 86 43 64
        E 0 8f 30 64
        E 0 92 41 64
        E 0 93 37 5a
        E 0 96 41 64
        E 0 9f 2b 5a
        E 239 8f 2b 64
        E 0 9f 2b 5a
        E 241 83 37 64
        E 0 8f 2b 64
        E 1 93 37 5a
        E 0 9f 2b 5a
        E 239 8f 2b 64
        E 0 9f 2b 5a
        E 239 82 41 64
        E 0 83 37 64
        E 0 86 41 64
        E 0 8f 2b 64
        E 0 92 40 64
        E 0 93 37 5a
        E 0 96 40 64
        E 0 9f 30 5a
        E 241 8f 30 64
        E 1 9f 30 5a
        E 240 83 37 64
        E 0 8f 30 64
        E 0 93 37 5a
        E 0 9f 30 5a
        E 238 8f 30 64
        E 0 9f 30 5a
        E 243 82 40 64
        E 0 83 37 64
        E 0 86 40 64
        E 0 8f 30 64
        E 0 92 4c 64
        E 0 93 39 5a
        E 1 96 4c 64
        E 0 9f 2d 5a
        E 237 8f 2d 64
        E 1 9f 2d 5a
        E 237 82 4c 64
        E 0 83 39 64
        E 0 86 4c 64
        E 0 8f 2d 64
        E 0 92 49 64
        E 0 93 39 5a
        E 0 96 49 64
        E 0 9f 2d 5a
        E 243 8f 2d 64
        E 0 9f 2d 5a
        E 239 82 49 64
        E 0 83 39 64
        E 0 86 49 64
        E 0 8f 2d 64
        E 0 92 47 64
        E 0 93 39 5a
        E 0 96 47 64
        E 0 9f 2d 5a
        E 239 8f 2d 64
        E 1 9f 2d 5a
        E 241 82 47 64
        E 1 83 39 64
        E 0 86 47 64
        E 0 8f 2d 64
        E 0 92 45 64
        E 0 93 39 5a
        E 0 96 45 64
        E 0 9f 2d 5a
        E 238 8f 2d 64
        E 0 9f 2d 5a
        E 241 82 45 64
        E 0 83 39 64
        E 0 86 45 64
        E 0 8f 2d 64
        E 0 92 43 64
        E 0 93 39 5a
        E 0 96 43 64
        E 0 9f 2d 5a
        E 239 8f 2d 64
        E 0 9f 2d 5a
        E 240 83 39 64
        E 0 8f 2d 64
        E 0 93 39 5a
        E 0 9f 2d 5a
        E 240 8f 2d 64
        E 0 9f 2d 5a
        E 242 82 43 64
        E 1 83 39 64
        E 0 86 43 64
        E 0 8f 2d 64
        E 1 92 42 64
        E 0 93 39 5a
        E 0 96 42 64
        E 0 9f 32 5a
        E 236 8f 32 64
        E 0 9f 32 5a
        E 241 82 42 64
        E 0 83 39 64
        E 0 86 42 64
        E 0 8f 32 64
        E 1 92 45 64
        E 0 93 39 5a
        E 0 96 45 64
        E 0 9f 32 5a
        E 239 8f 32 64
        E 0 9f 32 5a
        E 240 82 45 64
        E 0 83 39 64
        E 0 86 45 64
        E 0 8f 32 64
        E 0 92 43 64
        E 0 93 39 5a
        E 0 96 43 64
        E 0 9f 2d 5a
        E 246 8f 2d 64
        E 6 9f 2d 5a
        E 226 83 39 64
        E 0 8f 2d 64
        E 0 93 39 5a
        E 0 9f 2d 5a
        E 245 8f 2d 64
        E 1 9f 2d 5a
        E 235 82 43 64
        E 0 83 39 64
        E 0 86 43 64
        E 0 8f 2d 64
        E 0 92 42 64
        E 0 93 39 5a
        E 0 96 42 64
        E 0 9f 32 5a
        E 240 8f 32 64
        E 0 9f 32 5a
        E 241 82 42 64
        E 0 83 39 64
        E 0 86 42 64
        E 0 8f 32 64
        E 0 92 45 64
        E 1 93 39 5a
        E 0 96 45 64
        E 0 9f 32 5a
        E 238 8f 32 64
        E 0 9f 32 5a
        E 245 82 45 64
        E 0 83 39 64
        E 0 86 45 64
        E 0 8f 32 64
        E 0 92 43 64
        E 0 93 39 5a
        E 0 96 43 64
        E 0 9f 2d 5a
        E 235 8f 2d 64
        E 0 9f 2d 5a
        E 238 83 39 64
        E 1 8f 2d 64
        E 0 93 39 5a
        E 0 9f 2d 5a
        E 240 8f 2d 64
        E 0 9f 2d 5a
        E 240 82 43 64
        E 0 83 39 64
        E 0 86 43 64
        E 0 8f 2d 64
        E 0 92 42 64
        E 0 93 39 5a
        E 0 96 42 64
        E 0 9f 32 5a
        E 242 8f 32 64
        E 1 9f 32 5a
        E 239 83 39 64
        E 0 8f 32 64
        E 0 93 39 5a
        E 0 9f 32 5a
        E 239 8f 32 64
        E 0 9f 32 5a
        E 239 82 42 64
        E 0 83 39 64
        E 1 86 42 64
        E 0 8f 32 64
        E 0 92 56 64
        E 0 93 47 5a
        E 0 96 4a 64
        E 0 9f 2b 5a
        E 241 8f 2b 64
        E 0 9f 2b 5a
        E 238 83 47 64
        E 0 8f 2b 64
        E 0 93 47 5a
        E 0 9f 2b 5a
        E 240 8f 2b 64
        E 0 9f 2b 5a
        E 244 82 56 64
        E 0 83 47 64
        E 0 86 4a 64
        E 0 8f 2b 64
        E 0 92 56 64
        E 1 93 47 5a
        E 0 96 4a 64
        E 0 9f 37 5a
        E 239 8f 37 64
        E 0 9f 37 5a
        E 237 83 47 64
        E 0 8f 37 64
        E 0 93 47 5a
        E 0 9f 37 5a
        E 241 8f 37 64
        E 0 9f 37 5a
        E 239 82 56 64
        E 0 83 47 64
        E 0 86 4a 64
        E 0 8f 37 64
        E 0 92 45 64
        E 0 93 45 5a
        E 0 96 4a 64
        E 0 9f 36 5a
        E 240 8f 36 64
        E 0 9f 36 5a
        E 239 82 45 64
        E 0 83 45 64
        E 0 8f 36 64
        E 1 92 45 64
        E 0 93 45 5a
        E 0 9f 36 5a
        E 241 8f 36 64
        E 0 9f 36 5a
        E 240 82 45 64
        E 1 83 45 64
        E 0 86 4a 64
        E 0 8f 36 64
        E 0 92 43 64
        E 0 93 43 5a
        E 0 96 4a 64
        E 0 9f 34 5a
        E 239 8f 34 64
        E 0 9f 34 5a
        E 238 82 43 64
        E 0 83 43 64
        E 0 8f 34 64
        E 0 92 43 64
        E 0 93 43 5a
        E 1 9f 34 5a
        E 240 8f 34 64
        E 0 9f 34 5a
        E 240 82 43 64
        E 0 83 43 64
        E 1 86 4a 64
        E 0 8f 34 64
        E 0 92 42 64
        E 1 93 42 5a
        E 3 96 4a 64
        E 0 9f 32 5a
        E 236 8f 32 64
        E 1 9f 32 5a
        E 236 82 42 64
        E 0 83 42 64
        E 0 8f 32 64
        E 0 92 42 64
        E 0 93 42 5a
        E 0 9f 32 5a
        E 243 8f 32 64
        E 1 9f 32 5a
        E 237 82 42 64
        E 0 83 42 64
        E 0 86 4a 64
        E 0 8f 32 64
        E 0 92 40 64
        E 0 93 40 5a
        E 0 96 4a 64
        E 0 9f 30 5a
        E 241 8f 30 64
        E 0 9f 30 5a
        E 240 82 40 64
        E 0 83 40 64
        E 1 8f 30 64
        E 0 92 40 64
        E 0 93 40 5a
        E 0 9f 30 5a
        E 239 8f 30 64
        E 0 9f 30 5a
        E 240 82 40 64
        E 0 83 40 64
        E 0 86 4a 64
        E 0 8f 30 64
        E 0 92 3e 64
        E 0 93 3e 5a
        E 0 96 4a 64
        E 0 9f 2f 5a
        E 239 8f 2f 64
        E 1 9f 2f 5a
        E 239 82 3e 64
        E 0 83 3e 64
        E 0 8f 2f 64
        E 1 92 3e 64
        E 0 93 3e 5a
        E 0 9f 2f 5a
        E 241 8f 2f 64
        E 0 9f 2f 5a
        E 239 82 3e 64
        E 0 83 3e 64
        E 0 86 4a 64
        E 0 8f 2f 64
        E 0 92 42 64
        E 0 93 42 5a
        E 0 96 3e 64
        E 0 9f 2d 5a
        E 241 8f 2d 64
        E 1 9f 2d 5a
        E 238 82 42 64
        E 0 83 42 64
        E 0 86 3e 64
        E 0 8f 2d 64
        E 0 92 42 64
        E 0 93 42 5a
        E 0 96 48 64
        E 0 9f 2d 5a
        E 240 8f 2d 64
        E 0 9f 2d 5a
        E 240 82 42 64
        E 0 83 42 64
        E 0 86 48 64
        E 0 8f 2d 64
        E 0 92 3e 64
        E 0 93 3e 5a
        E 0 96 47 64
        E 0 9f 2b 5a
        E 239 8f 2b 64
        E 0 9f 2b 5a
        E 241 82 3e 64
        E 0 83 3e 64
        E 0 86 47 64
        E 0 8f 2b 64
        E 0 92 3e 64
        E 0 93 3e 5a
        E 0 96 45 64
        E 0 9f 2b 5a
        E 241 86 45 64
        E 0 8f 2b 64
        E 0 96 43 64
        E 1 9f 2b 5a
        E 239 82 3e 64
        E 0 83 3e 64
        E 0 86 43 64
        E 0 8f 2b 64
        E 0 92 3e 64
        E 0 93 3e 5a
        E 0 96 45 64
        E 0 9f 32 5a
        E 240 8f 32 64
        E 0 9f 32 5a
        E 238 82 3e 64
        E 0 83 3e 64
        E 1 86 45 64
        E 0 8f 32 64
        E 0 92 3e 64
        E 0 93 3e 5a
        E 0 96 43 64
        E 0 9f 32 5a
        E 240 86 43 64
        E 0 8f 32 64
        E 0 96 42 64
        E 1 9f 32 5a
        E 241 82 3e 64
        E 1 83 3e 64
        E 0 86 42 64
        E 0 8f 32 64
        E 0 92 4f 64
        E 0 93 3b 5a
        E 0 96 43 64
        E 0 9f 2b 5a
        E 238 8f 2b 64
        E 0 9f 2b 5a
        E 238 83 3b 64
        E 0 8f 2b 64
        E 0 93 3b 5a
        E 0 9f 2b 5a
        E 241 8f 2b 64
        E 1 9f 2b 5a
        E 238 82 4f 64
        E 0 83 3b 64
        E 0 86 43 64
        E 0 8f 2b 64
        E 1 93 3b 5a
        E 0 9f 2b 5a
        E 241 8f 2b 64
        E 0 9f 2b 5a
        E 239 83 3b 64
        E 0 8f 2b 64
        E 0 92 43 64
        E 0 93 3b 5a
        E 0 96 43 64
        E 0 9f 2b 5a
        E 240 8f 2b 64
        E 0 9f 2b 5a
        E 241 82 43 64
        E 0 83 3b 64
        E 0 86 43 64
        E 0 8f 2b 64
        E 0 92 40 64
        E 0 93 3c 5a
        E 0 96 40 64
        E 0 9f 2b 5a
        E 240 8f 2b 64
        E 0 9f 2b 5a
        E 240 83 3c 64
        E 0 8f 2b 64
        E 0 93 3c 5a
        E 0 9f 2b 5a
        E 239 8f 2b 64
        E 0 9f 2b 5a
        E 244 82 40 64
        E 0 83 3c 64
        E 0 86 40 64
        E 0 8f 2b 64
        E 1 92 3e 64
        E 0 93 37 5a
        E 0 96 3e 64
        E 0 9f 2b 5a
        E 235 8f 2b 64
        E 0 9f 2b 5a
        E 240 82 3e 64
        E 0 83 37 64
        E 0 86 3e 64
        E 0 8f 2b 64
        E 0 92 43 64
        E 0 93 37 5a
        E 0 96 43 64
        E 0 9f 2b 5a
        E 240 8f 2b 64
        E 0 9f 2b 5a
        E 241 82 43 64
        E 1 83 37 64
        E 0 86 43 64
        E 0 8f 2b 64
        E 0 92 40 64
        E 0 93 3c 5a
        E 0 96 40 64
        E 0 9f 2b 5a
        E 239 8f 2b 64
        E 0 9f 2b 5a
        E 240 83 3c 64
        E 0 8f 2b 64
        E 0 93 3c 5a
        E 0 9f 2b 5a
        E 239 8f 2b 64
        E 0 9f 2b 5a
        E 239 82 40 64
        E 1 83 3c 64
        E 0 86 40 64
        E 0 8f 2b 64
        E 0 92 3e 64
        E 0 93 37 5a
        E 0 96 3e 64
        E 0 9f 2b 5a
        E 240 8f 2b 64
        E 0 9f 2b 5a
        E 239 83 37 64
        E 0 8f 2b 64
        E 0 93 37 5a
        E 0 9f 2b 5a
        E 240 8f 2b 64
        E 1 9f 2b 5a
        E 243 82 3e 64
        E 0 83 37 64
        E 0 86 3e 64
        E 0 8f 2b 64
        E 1 92 56 64
        E 0 93 47 5a
        E 0 96 4a 64
        E 0 9f 2b 5a
        E 236 8f 2b 64
        E 0 9f 2b 5a
        E 240 83 47 64
        E 0 8f 2b 64
        E 0 93 47 5a
        E 0 9f 2b 5a
        E 240 8f 2b 64
        E 0 9f 2b 5a
        E 239 82 56 64
        E 0 83 47 64
        E 1 86 4a 64
        E 0 8f 2b 64
        E 0 92 56 64
        E 0 93 47 5a
        E 0 96 4a 64
        E 0 9f 37 5a
        E 241 8f 37 64
        E 0 9f 37 5a
        E 240 83 47 64
        E 0 8f 37 64
        E 0 93 47 5a
        E 0 9f 37 5a
        E 240 8f 37 64
        E 0 9f 37 5a
        E 241 82 56 64
        E 0 83 47 64
        E 0 86 4a 64
        E 0 8f 37 64
        E 0 92 45 64
        E 0 93 45 5a
        E 0 96 4a 64
        E 0 9f 36 5a
        E 236 8f 36 64
        E 1 9f 36 5a
        E 240 82 45 64
        E 0 83 45 64
        E 0 8f 36 64
        E 0 92 45 64
        E 0 93 45 5a
        E 0 9f 36 5a
        E 242 8f 36 64
        E 0 9f 36 5a
        E 241 82 45 64
        E 0 83 45 64
        E 0 86 4a 64
        E 0 8f 36 64
        E 1 92 43 64
        E 0 93 43 5a
        E 0 96 4a 64
        E 1 9f 34 5a
        E 236 8f 34 64
        E 0 9f 34 5a
        E 240 82 43 64
        E 0 83 43 64
        E 0 8f 34 64
        E 0 92 43 64
        E 0 93 43 5a
        E 0 9f 34 5a
        E 241 8f 34 64
        E 0 9f 34 5a
        E 238 82 43 64
        E 0 83 43 64
        E 0 86 4a 64
        E 0 8f 34 64
        E 0 92 42 64
        E 0 93 42 5a
        E 0 96 4a 64
        E 0 9f 32 5a
        E 242 8f 32 64
        E 0 9f 32 5a
        E 239 82 42 64
        E 0 83 42 64
        E 0 8f 32 64
        E 1 92 42 64
        E 0 93 42 5a
        E 0 9f 32 5a
        E 239 8f 32 64
        E 0 9f 32 5a
        E 240 82 42 64
        E 0 83 42 64
        E 0 86 4a 64
        E 0 8f 32 64
        E 0 92 40 64
        E 0 93 40 5a
        E 0 96 4a 64
        E 0 9f 30 5a
        E 240 8f 30 64
        E 1 9f 30 5a
        E 240 82 40 64
        E 0 83 40 64
        E 0 8f 30 64
        E 0 92 40 64
        E 0 93 40 5a
        E 1 9f 30 5a
        E 236 8f 30 64
        E 1 9f 30 5a
        E 243 82 40 64
        E 0 83 40 64
        E 0 86 4a 64
        E 0 8f 30 64
        E 0 92 3e 64
        E 1 93 3e 5a
        E 0 96 4a 64
        E 0 9f 2f 5a
        E 238 8f 2f 64
        E 0 9f 2f 5a
        E 240 82 3e 64
        E 1 83 3e 64
        E 0 8f 2f 64
        E 0 92 3e 64
        E 0 93 3e 5a
        E 0 9f 2f 5a
        E 239 8f 2f 64
        E 0 9f 2f 5a
        E 239 82 3e 64
        E 0 83 3e 64
        E 0 86 4a 64
        E 0 8f 2f 64
        E 0 92 42 64
        E 0 93 42 5a
        E 0 96 3e 64
        E 0 9f 2d 5a
        E 241 8f 2d 64
        E 0 9f 2d 5a
        E 238 82 42 64
        E 1 83 42 64
        E 0 86 3e 64
        E 0 8f 2d 64
        E 0 92 42 64
        E 0 93 42 5a
        E 0 96 48 64
        E 0 9f 2d 5a
        E 241 8f 2d 64
        E 0 9f 2d 5a
        E 240 82 42 64
        E 0 83 42 64
        E 0 86 48 64
        E 0 8f 2d 64
        E 0 92 3e 64
        E 0 93 3e 5a
        E 0 96 47 64
        E 0 9f 2b 5a
        E 240 8f 2b 64
        E 0 9f 2b 5a
        E 239 82 3e 64
        E 0 83 3e 64
        E 0 86 47 64
        E 0 8f 2b 64
        E 1 92 3e 64
        E 0 93 3e 5a
        E 0 96 45 64
        E 0 9f 2b 5a
        E 239 86 45 64
        E 0 8f 2b 64
        E 0 96 43 64
        E 0 9f 2b 5a
        E 241 82 3e 64
        E 0 83 3e 64
        E 0 86 43 64
        E 0 8f 2b 64
        E 0 92 3e 64
        E 0 93 3e 5a
        E 0 96 45 64
        E 0 9f 32 5a
        E 238 8f 32 64
        E 0 9f 32 5a
        E 242 82 3e 64
        E 0 83 3e 64
        E 0 86 45 64
        E 0 8f 32 64
        E 1 92 3e 64
        E 0 93 3e 5a
        E 0 96 43 64
        E 0 9f 32 5a
        E 238 86 43 64
        E 0 8f 32 64
        E 0 96 42 64
        E 0 9f 32 5a
        E 239 82 3e 64
        E 0 83 3e 64
        E 0 86 42 64
        E 0 8f 32 64
        E 0 92 4f 64
        E 0 93 3e 5a
        E 0 96 43 64
        E 0 9f 37 5a
        E 241 8f 37 64
        E 0 9f 37 5a
        E 240 82 4f 64
        E 0 83 3e 64
        E 0 86 43 64
        E 0 8f 37 64
        E 0 92 4e 64
        E 0 93 3e 5a
        E 0 96 42 64
        E 0 9f 37 5a
        E 239 82 4e 64
        E 0 86 42 64
        E 0 8f 37 64
        E 0 92 4c 64
        E 0 96 40 64
        E 0 9f 37 5a
        E 241 82 4c 64
        E 0 83 3e 64
        E 0 86 40 64
        E 0 8f 37 64
        E 0 92 4a 64
        E 0 93 3e 5a
        E 0 96 3e 64
        E 0 9f 36 5a
        E 239 8f 36 64
        E 0 9f 36 5a
        E 242 82 4a 64
        E 1 83 3e 64
        E 0 86 3e 64
        E 0 8f 36 64
        E 0 92 48 64
        E 0 93 3e 5a
        E 0 96 48 64
        E 0 9f 36 5a
        E 238 8f 36 64
        E 0 9f 36 5a
        E 245 82 48 64
        E 0 83 3e 64
        E 0 86 48 64
        E 0 8f 36 64
        E 0 92 47 64
        E 0 93 3e 5a
        E 0 96 47 64
        E 0 9f 37 5a
        E 235 8f 37 64
        E 1 9f 37 5a
        E 239 82 47 64
        E 0 83 3e 64
        E 0 86 47 64
        E 0 8f 37 64
        E 0 92 45 64
        E 0 93 3e 5a
        E 0 96 45 64
        E 0 9f 37 5a
        E 241 82 45 64
        E 0 86 45 64
        E 0 8f 37 64
        E 1 92 43 64
        E 0 96 43 64
        E 0 9f 37 5a
        E 237 82 43 64
        E 0 83 3e 64
        E 0 86 43 64
        E 0 8f 37 64
        E 0 92 45 64
        E 0 93 3e 5a
        E 0 96 45 64
        E 0 9f 32 5a
        E 242 8f 32 64
        E 0 9f 32 5a
        E 240 82 45 64
        E 0 83 3e 64
        E 0 86 45 64
        E 0 8f 32 64
        E 0 92 42 64
        E 0 93 3e 5a
        E 1 96 43 64
        E 0 9f 32 5a
        E 238 86 43 64
        E 0 8f 32 64
        E 0 96 42 64
        E 0 9f 32 5a
        E 240 82 42 64
        E 0 83 3e 64
        E 0 86 42 64
        E 0 8f 32 64
        E 0 92 43 64
        E 1 93 3e 5a
        E 0 96 43 64
        E 0 9f 2b 5a
        E 239 8f 2b 64
        E 0 9f 37 5a
        E 239 82 43 64
        E 0 83 3e 64
        E 0 8f 37 64
        E 0 92 45 64
        E 0 93 3e 5a
        E 0 9f 37 5a
        E 240 8f 37 64
        E 0 9f 37 5a
        E 241 82 45 64
        E 0 83 3e 64
        E 0 86 43 64
        E 0 8f 37 64
        E 0 92 47 64
        E 0 93 3e 5a
        E 0 9f 37 5a
        E 240 8f 37 64
        E 0 9f 37 5a
        E 241 82 47 64
        E 0 83 3e 64
        E 0 8f 37 64
        E 0 92 48 64
        E 0 93 3e 5a
        E 0 9f 37 5a
        E 239 8f 37 64
        E 1 9f 37 5a
        E 239 82 48 64
        E 0 83 3e 64
        E 0 8f 37 64
        E 0 92 4a 64
        E 0 93 47 5a
        E 0 9f 37 5a
        E 240 8f 37 64
        E 0 9f 37 5a
        E 240 83 47 64
        E 0 8f 37 64
        E 0 93 47 5a
        E 0 9f 37 5a
        E 239 8f 37 64
        E 0 9f 37 5a
        E 243 82 4a 64
        E 0 83 47 64
        E 0 8f 37 64
        E 0 92 4a 64
        E 0 93 47 5a
        E 0 9f 37 5a
        E 239 8f 37 64
        E 1 9f 37 5a
        E 239 82 4a 64
        E 0 83 47 64
        E 0 8f 37 64
        E 0 92 4f 64
        E 0 93 47 5a
        E 0 9f 37 5a
        E 239 8f 37 64
        E 0 9f 37 5a
        E 241 82 4f 64
        E 0 83 47 64
        E 0 8f 37 64
        E 0 92 48 64
        E 3 93 45 5a
        E 1 9f 39 5a
        E 234 8f 39 64
        E 0 9f 39 5a
        E 241 83 45 64
        E 0 8f 39 64
        E 0 93 45 5a
        E 0 9f 39 5a
        E 241 8f 39 64
        E 0 9f 39 5a
        E 239 82 48 64
        E 0 83 45 64
        E 0 8f 39 64
        E 0 92 48 64
        E 0 93 42 5a
        E 0 9f 32 5a
        E 239 8f 32 64
        E 0 9f 32 5a
        E 241 82 48 64
        E 1 83 42 64
        E 0 8f 32 64
        E 0 92 51 64
        E 0 93 42 5a
        E 0 9f 32 5a
        E 239 8f 32 64
        E 0 9f 32 5a
        E 240 82 51 64
        E 0 83 42 64
        E 1 8f 32 64
        E 0 92 47 64
        E 0 93 3e 5a
        E 0 9f 37 5a
        E 238 8f 37 64
        E 1 9f 2b 5a
        E 239 82 47 64
        E 1 83 3e 64
        E 0 8f 2b 64
        E 1 92 45 64
        E 0 93 3e 5a
        E 0 9f 2b 5a
        E 238 8f 2b 64
        E 0 9f 2b 5a
        E 243 82 45 64
        E 0 83 3e 64
        E 0 8f 2b 64
        E 0 92 43 64
        E 0 93 3e 5a
        E 0 9f 2b 5a
        E 237 8f 2b 64
        E 0 9f 2b 5a
        E 240 83 3e 64
        E 0 8f 2b 64
        E 1 93 3e 5a
        E 0 9f 2b 5a
        E 240 8f 2b 64
        E 0 9f 2b 5a
        E 240 82 43 64
        E 0 83 3e 64
        E 0 8f 2b 64
        E 0 92 43 64
        E 0 93 3e 5a
        E 0 9f 2b 5a
        E 239 8f 2b 64
        E 1 9f 2b 5a
        E 241 82 43 64
        E 0 83 3e 64
        E 0 8f 2b 64
        E 0 92 42 64
        E 0 93 3e 5a
        E 1 9f 2b 5a
        E 237 8f 2b 64
        E 0 9f 2b 5a
        E 241 82 42 64
        E 0 83 3e 64
        E 0 8f 2b 64
        E 0 92 40 64
        E 0 93 3e 5a
        E 0 9f 2b 5a
        E 240 8f 2b 64
        E 0 9f 2b 5a
        E 239 82 40 64
        E 0 83 3e 64
        E 0 8f 2b 64
        E 0 92 3e 64
        E 0 93 3e 5a
        E 0 9f 2b 5a
        E 241 8f 2b 64
        E 0 9f 2b 5a
        E 243 82 3e 64
        E 0 83 3e 64
        E 0 8f 2b 64
        E 0 92 40 64
        E 0 93 3c 5a
        E 0 9f 2b 5a
        E 236 8f 2b 64
        E 0 9f 2b 5a
        E 242 83 3c 64
        E 1 8f 2b 64
        E 0 93 3c 5a
        E 0 9f 2b 5a
        E 238 8f 2b 64
        E 0 9f 2b 5a
        E 241 82 40 64
        E 0 83 3c 64
        E 0 8f 2b 64
        E 0 92 3e 64
        E 0 93 37 5a
        E 0 9f 2b 5a
        E 239 8f 2b 64
        E 0 9f 2b 5a
        E 240 82 3e 64
        E 0 83 37 64
        E 0 8f 2b 64
        E 1 92 43 64
        E 0 93 37 5a
        E 0 9f 2b 5a
        E 239 8f 2b 64
        E 0 9f 2b 5a
        E 239 82 43 64
        E 1 83 37 64
        E 0 8f 2b 64
        E 0 92 40 64
        E 0 93 3c 5a
        E 0 9f 2b 5a
        E 240 8f 2b 64
        E 0 9f 2b 5a
        E 239 83 3c 64
        E 0 8f 2b 64
        E 0 93 3c 5a
        E 0 9f 2b 5a
        E 241 8f 2b 64
        E 0 9f 2b 5a
        E 242 82 40 64
        E 0 83 3c 64
        E 0 8f 2b 64
        E 0 92 3e 64
        E 0 93 37 5a
        E 0 9f 2b 5a
        E 239 8f 2b 64
        E 0 9f 2b 5a
        E 241 82 3e 64
        E 0 83 37 64
        E 0 8f 2b 64
        E 0 92 43 64
        E 0 93 37 5a
        E 0 9f 2b 5a
        E 239 8f 2b 64
        E 0 9f 2b 5a
        E 239 82 43 64
        E 0 83 37 64
        E 0 8f 2b 64
        E 0 92 40 64
        E 0 93 3c 5a
        E 0 9f 2b 5a
        E 241 8f 2b 64
        E 0 9f 2b 5a
        E 238 83 3c 64
        E 0 8f 2b 64
        E 0 93 3c 5a
        E 0 9f 2b 5a
        E 241 8f 2b 64
        E 0 9f 2b 5a
        E 240 82 40 64
        E 0 83 3c 64
        E 0 8f 2b 64
        E 0 92 3e 64
        E 0 93 37 5a
        E 0 9f 2b 5a
        E 241 8f 2b 64
        E 0 9f 2b 5a
        E 239 82 3e 64
        E 0 83 37 64
        E 0 8f 2b 64
        E 0 92 4a 64
        E 0 93 37 5a
        E 0 9f 2b 5a
        E 241 8f 2b 64
        E 0 9f 2b 5a
        E 243 82 4a 64
        E 0 83 37 64
        E 0 8f 2b 64
        E 0 92 4f 64
        E 0 93 3b 5a
        E 0 9f 37 5a
        E 235 8f 37 64
        E 0 9f 37 5a
        E 241 82 4f 64
        E 0 83 3b 64
        E 0 8f 37 64
        E 0 92 4e 64
        E 0 93 3b 5a
        E 0 9f 37 5a
        E 240 82 4e 64
        E 1 8f 37 64
        E 0 92 4f 64
        E 0 9f 37 5a
        E 239 82 4f 64
        E 0 83 3b 64
        E 1 8f 37 64
        E 0 92 45 64
        E 0 93 3e 5a
        E 0 9f 36 5a
        E 240 8f 36 64
        E 0 9f 36 5a
        E 239 82 45 64
        E 0 83 3e 64
        E 0 8f 36 64
        E 0 92 48 64
        E 0 93 3e 5a
        E 0 9f 36 5a
        E 239 8f 36 64
        E 0 9f 36 5a
        E 240 82 48 64
        E 0 83 3e 64
        E 1 8f 36 64
        E 0 92 47 64
        E 0 93 3e 5a
        E 0 9f 37 5a
        E 241 8f 37 64
        E 0 9f 2b 5a
        E 240 82 47 64
        E 0 83 3e 64
        E 0 8f 2b 64
        E 0 92 45 64
        E 0 93 3e 5a
        E 1 9f 2b 5a
        E 239 8f 2b 64
        E 0 9f 2b 5a
        E 240 82 45 64
        E 0 83 3e 64
        E 0 8f 2b 64
        E 0 92 43 64
        E 1 93 3b 5a
        E 0 9f 2b 5a
        E 238 8f 2b 64
        E 0 9f 2b 5a
        E 241 82 43 64
        E 0 83 3b 64
        E 0 8f 2b 64
        E 0 92 4a 64
        E 1 93 3b 5a
        E 0 9f 2b 5a
        E 237 8f 2b 64
        E 0 9f 2b 5a
        E 242 82 4a 64
        E 1 83 3b 64
        E 0 8f 2b 64
        E 0 92 4f 64
        E 0 93 3b 5a
        E 0 9f 37 5a
        E 238 8f 37 64
        E 0 9f 37 5a
        E 240 82 4f 64
        E 0 83 3b 64
        E 0 8f 37 64
        E 0 92 4e 64
        E 0 93 3b 5a
        E 0 9f 37 5a
        E 240 82 4e 64
        E 0 8f 37 64
        E 1 92 4f 64
        E 0 9f 37 5a
        E 239 82 4f 64
        E 0 83 3b 64
        E 0 8f 37 64
        E 0 92 45 64
        E 0 93 3e 5a
        E 0 9f 36 5a
        E 240 8f 36 64
        E 0 9f 36 5a
        E 241 82 45 64
        E 0 83 3e 64
        E 0 8f 36 64
        E 0 92 48 64
        E 1 93 3e 5a
        E 0 9f 36 5a
        E 239 8f 36 64
        E 1 9f 36 5a
        E 236 82 48 64
        E 1 83 3e 64
        E 0 8f 36 64
        E 0 92 47 64
        E 0 93 3e 5a
        E 0 9f 37 5a
        E 240 8f 37 64
        E 0 9f 2b 5a
        E 241 82 47 64
        E 0 83 3e 64
        E 0 8f 2b 64
        E 0 92 45 64
        E 0 93 3e 5a
        E 0 9f 2b 5a
        E 240 8f 2b 64
        E 0 9f 2b 5a
        E 240 82 45 64
        E 0 83 3e 64
        E 0 8f 2b 64
        E 0 92 43 64
        E 0 93 3b 5a
        E 0 9f 2b 5a
        E 239 8f 2b 64
        E 0 9f 2b 5a
        E 242 82 43 64
        E 0 83 3b 64
        E 0 8f 2b 64
        E 0 92 4a 64
        E 0 93 3b 5a
        E 0 9f 2b 5a
        E 239 8f 2b 64
        E 0 9f 2b 5a
        E 241 82 4a 64
        E 0 83 3b 64
        E 0 8f 2b 64
        E 0 92 4f 64
        E 0 93 3b 5a
        E 0 9f 37 5a
        E 239 8f 37 64
        E 1 9f 37 5a
        E 239 83 3b 64
        E 0 8f 37 64
        E 0 93 3b 5a
        E 0 9f 37 5a
        E 239 8f 37 64
        E 0 9f 37 5a
        E 241 82 4f 64
        E 3 83 3b 64
        E 1 8f 37 64
        E 0 92 4f 64
        E 0 93 3e 5a
        E 0 9f 3b 5a
        E 235 8f 3b 64
        E 0 9f 3b 5a
        E 242 83 3e 64
        E 0 8f 3b 64
        E 0 93 3e 5a
        E 1 9f 3b 5a
        E 239 8f 3b 64
        E 0 9f 3b 5a
        E 238 82 4f 64
        E 0 83 3e 64
        E 0 8f 3b 64
        E 0 92 4f 64
        E 0 93 40 5a
        E 0 9f 3c 5a
        E 241 8f 3c 64
        E 0 9f 3c 5a
        E 239 82 4f 64
        E 0 83 40 64
        E 0 8f 3c 64
        E 0 92 4e 64
        E 0 93 40 5a
        E 0 9f 3c 5a
        E 240 82 4e 64
        E 0 8f 3c 64
        E 0 92 4c 64
        E 1 9f 3c 5a
        E 240 82 4c 64
        E 0 83 40 64
        E 0 8f 3c 64
        E 0 92 4a 64
        E 0 93 45 5a
        E 0 9f 36 5a
        E 241 8f 36 64
        E 1 9f 36 5a
        E 239 82 4a 64
        E 0 83 45 64
        E 0 8f 36 64
        E 0 92 48 64
        E 0 93 45 5a
        E 0 9f 36 5a
        E 239 8f 36 64
        E 0 9f 36 5a
        E 239 82 48 64
        E 0 83 45 64
        E 0 8f 36 64
        E 0 92 47 64
        E 0 93 3e 5a
        E 0 9f 37 5a
        E 242 8f 37 64
        E 0 9f 37 5a
        E 240 82 47 64
        E 0 83 3e 64
        E 0 8f 37 64
        E 0 92 45 64
        E 0 93 3e 5a
        E 1 9f 37 5a
        E 239 82 45 64
        E 0 8f 37 64
        E 0 92 43 64
        E 0 9f 37 5a
        E 240 82 43 64
        E 0 83 3e 64
        E 0 8f 37 64
        E 1 92 45 64
        E 0 93 3e 5a
        E 0 9f 32 5a
        E 237 8f 32 64
        E 1 9f 32 5a
        E 240 82 45 64
        E 0 83 3e 64
        E 0 8f 32 64
        E 0 92 42 64
        E 0 93 3e 5a
        E 0 9f 32 5a
        E 241 8f 32 64
        E 1 9f 32 5a
        E 237 82 42 64
        E 0 83 3e 64
        E 0 8f 32 64
        E 0 92 37 64
        E 0 93 3b 5a
        E 0 9f 2b 5a
        E 1442 82 37 64
        E 0 83 3b 64
        E 0 8f 2b 64
        E 959 92 40 64
        E 0 93 40 5a
        E 0 96 40 64
        E 0 9f 34 5a
        E 480 82 40 64
        E 0 86 40 64
        E 0 92 42 64
        E 0 96 42 64
        E 481 82 42 64
        E 0 83 40 64
        E 0 86 42 64
        E 0 8f 34 64
        E 1 92 43 64
        E 0 96 43 64
        E 478 82 43 64
        E 0 86 43 64
        E 0 92 45 64
        E 0 96 45 64
        E 479 82 45 64
        E 0 86 45 64
        E 0 92 47 64
        E 0 93 40 5a
        E 0 96 47 64
        E 0 9f 34 5a
        E 481 83 40 64
        E 0 8f 34 64
        E 0 93 42 5a
        E 0 9f 36 5a
        E 481 82 47 64
        E 1 83 42 64
        E 1 86 47 64
        E 0 8f 36 64
        E 1 92 47 64
        E 2 93 43 5a
        E 0 96 47 64
        E 0 9f 37 5a
        E 475 82 47 64
        E 0 83 43 64
        E 0 86 47 64
        E 0 8f 37 64
        E 0 92 45 64
        E 0 93 40 5a
        E 1 96 45 64
        E 0 9f 34 5a
        E 238 82 45 64
        E 0 86 45 64
        E 0 92 43 64
        E 0 96 43 64
        E 240 82 43 64
        E 0 83 40 64
        E 0 86 43 64
        E 0 8f 34 64
        E 1 92 45 64
        E 0 93 42 5a
        E 0 96 45 64
        E 0 9f 36 5a
        E 478 83 42 64
        E 0 8f 36 64
        E 0 93 40 5a
        E 0 9f 34 5a
        E 482 82 45 64
        E 0 83 40 64
        E 0 86 45 64
        E 0 8f 34 64
        E 0 92 45 64
        E 0 93 42 5a
        E 0 96 45 64
        E 0 9f 36 5a
        E 479 82 45 64
        E 0 83 42 64
        E 0 86 45 64
        E 0 8f 36 64
        E 0 92 43 64
        E 0 93 3b 5a
        E 0 96 43 64
        E 0 9f 2f 5a
        E 240 82 43 64
        E 0 86 43 64
        E 0 92 42 64
        E 0 96 42 64
        E 242 82 42 64
        E 0 83 3b 64
        E 0 86 42 64
        E 0 8f 2f 64
        E 0 92 43 64
        E 0 93 40 5a
        E 0 96 43 64
        E 0 9f 34 5a
        E 479 82 43 64
        E 0 83 40 64
        E 0 86 43 64
        E 0 8f 34 64
        E 1 92 42 64
        E 0 93 42 5a
        E 0 96 42 64
        E 0 9f 36 5a
        E 477 82 42 64
        E 0 83 42 64
        E 0 86 42 64
        E 0 8f 36 64
        E 0 92 40 64
        E 0 93 43 5a
        E 0 96 40 64
        E 0 9f 37 5a
        E 483 83 43 64
        E 0 8f 37 64
        E 1 93 42 5a
        E 0 9f 36 5a
        E 477 82 40 64
        E 0 83 42 64
        E 0 86 40 64
        E 0 8f 36 64
        E 0 92 4c 64
        E 0 93 40 5a
        E 0 96 4c 64
        E 0 9f 34 5a
        E 481 83 40 64
        E 0 8f 34 64
        E 0 93 42 5a
        E 0 9f 36 5a
        E 478 82 4c 64
        E 1 83 42 64
        E 0 86 4c 64
        E 0 8f 36 64
        E 0 92 40 64
        E 0 93 44 5a
        E 0 96 40 64
        E 0 9f 38 5a
        E 479 83 44 64
        E 0 8f 38 64
        E 0 93 40 5a
        E 0 9f 34 5a
        E 481 82 40 64
        E 0 83 40 64
        E 0 86 40 64
        E 0 8f 34 64
        E 0 92 48 64
        E 0 93 39 5a
        E 0 96 48 64
        E 0 9f 2d 5a
        E 479 82 48 64
        E 0 83 39 64
        E 0 86 48 64
        E 0 8f 2d 64
        E 0 92 47 64
        E 0 93 3b 5a
        E 0 96 47 64
        E 0 9f 2f 5a
        E 480 82 47 64
        E 0 83 3b 64
        E 0 86 47 64
        E 0 8f 2f 64
        E 0 92 45 64
        E 0 93 3c 5a
        E 0 96 45 64
        E 0 9f 30 5a
        E 481 82 45 64
        E 0 83 3c 64
        E 0 86 45 64
        E 0 8f 30 64
        E 0 92 40 64
        E 0 93 39 5a
        E 0 96 40 64
        E 0 9f 2d 5a
        E 480 82 40 64
        E 0 83 39 64
        E 0 86 40 64
        E 0 8f 2d 64
        E 0 92 41 64
        E 0 93 3e 5a
        E 0 96 41 64
        E 0 9f 32 5a
        E 480 82 41 64
        E 0 83 3e 64
        E 0 86 41 64
        E 0 8f 32 64
        E 0 92 40 64
        E 0 93 40 5a
        E 0 96 40 64
        E 0 9f 34 5a
        E 480 82 40 64
        E 0 83 40 64
        E 0 86 40 64
        E 0 8f 34 64
        E 0 92 3e 64
        E 0 93 41 5a
        E 0 96 3e 64
        E 0 9f 35 5a
        E 479 82 3e 64
        E 0 83 41 64
        E 0 86 3e 64
        E 0 8f 35 64
        E 0 92 4a 64
        E 0 93 3e 5a
        E 0 96 4a 64
        E 0 9f 32 5a
        E 481 82 4a 64
        E 0 83 3e 64
        E 0 86 4a 64
        E 0 8f 32 64
        E 0 92 44 64
        E 0 93 40 5a
        E 0 96 44 64
        E 0 9f 34 5a
        E 481 82 44 64
        E 0 83 40 64
        E 0 86 44 64
        E 0 8f 34 64
        E 0 92 42 64
        E 0 93 42 5a
        E 0 96 42 64
        E 0 9f 36 5a
        E 480 82 42 64
        E 0 83 42 64
        E 1 86 42 64
        E 0 8f 36 64
        E 0 92 40 64
        E 0 93 44 5a
        E 0 96 40 64
        E 0 9f 38 5a
        E 477 83 44 64
        E 1 8f 38 64
        E 0 93 40 5a
        E 0 9f 34 5a
        E 480 82 40 64
        E 0 83 40 64
        E 0 86 40 64
        E 0 8f 34 64
        E 0 92 45 64
        E 0 93 3c 5a
        E 0 96 45 64
        E 0 9f 30 5a
        E 479 82 45 64
        E 0 83 3c 64
        E 0 86 45 64
        E 0 8f 30 64
        E 1 92 43 64
        E 0 93 3b 5a
        E 0 96 43 64
        E 0 9f 2f 5a
        E 480 82 43 64
        E 0 83 3b 64
        E 0 86 43 64
        E 0 8f 2f 64
        E 0 92 41 64
        E 0 93 39 5a
        E 0 96 41 64
        E 0 9f 2d 5a
        E 479 82 41 64
        E 0 83 39 64
        E 0 86 41 64
        E 0 8f 2d 64
        E 1 92 40 64
        E 0 93 3c 5a
        E 0 96 40 64
        E 0 9f 30 5a
        E 481 82 40 64
        E 0 83 3c 64
        E 0 86 40 64
        E 0 8f 30 64
        E 0 92 41 64
        E 0 93 3e 5a
        E 1 96 41 64
        E 0 9f 32 5a
        E 477 83 3e 64
        E 0 8f 32 64
        E 0 93 38 5a
        E 0 9f 2c 5a
        E 481 82 41 64
        E 0 83 38 64
        E 0 86 41 64
        E 0 8f 2c 64
        E 0 92 40 64
        E 0 93 39 5a
        E 0 96 40 64
        E 0 9f 2d 5a
        E 480 82 40 64
        E 1 83 39 64
        E 0 86 40 64
        E 0 8f 2d 64
        E 0 92 45 64
        E 1 93 41 5a
        E 1 96 45 64
        E 0 9f 35 5a
        E 477 82 45 64
        E 0 83 41 64
        E 0 86 45 64
        E 0 8f 35 64
        E 0 92 41 64
        E 0 93 3e 5a
        E 0 96 41 64
        E 0 9f 32 5a
        E 480 83 3e 64
        E 0 8f 32 64
        E 0 93 38 5a
        E 0 9f 2c 5a
        E 482 82 41 64
        E 0 83 38 64
        E 0 86 41 64
        E 0 8f 2c 64
        E 0 92 40 64
        E 0 93 39 5a
        E 0 96 40 64
        E 0 9f 2d 5a
        E 478 82 40 64
        E 0 83 39 64
        E 0 86 40 64
        E 0 8f 2d 64
        E 0 92 45 64
        E 0 93 41 5a
        E 0 96 45 64
        E 0 9f 35 5a
        E 481 82 45 64
        E 0 83 41 64
        E 0 86 45 64
        E 0 8f 35 64
        E 0 92 41 64
        E 0 93 3e 5a
        E 0 96 41 64
        E 0 9f 32 5a
        E 478 83 3e 64
        E 0 8f 32 64
        E 1 93 38 5a
        E 0 9f 2c 5a
        E 480 82 41 64
        E 0 83 38 64
        E 0 86 41 64
        E 0 8f 2c 64
        E 0 92 40 64
        E 0 93 39 5a
        E 0 96 40 64
        E 0 9f 2d 5a
        E 480 83 39 64
        E 0 8f 2d 64
        E 1 93 3c 5a
        E 0 9f 30 5a
        E 479 82 40 64
        E 0 83 3c 64
        E 0 86 40 64
        E 1 8f 30 64
        E 0 92 45 64
        E 0 93 41 5a
        E 0 96 45 64
        E 0 9f 35 5a
        E 479 83 41 64
        E 0 8f 35 64
        E 0 93 41 5a
        E 0 9f 35 5a
        E 479 82 45 64
        E 0 83 41 64
        E 0 86 45 64
        E 0 8f 35 64
        E 1 92 45 64
        E 0 93 40 5a
        E 0 96 45 64
        E 0 9f 34 5a
        E 479 83 40 64
        E 0 8f 34 64
        E 1 93 40 5a
        E 0 9f 34 5a
        E 482 82 45 64
        E 0 83 40 64
        E 0 86 45 64
        E 0 8f 34 64
        E 0 92 45 64
        E 0 93 3e 5a
        E 0 96 45 64
        E 0 9f 32 5a
        E 477 83 3e 64
        E 0 8f 32 64
        E 1 93 3e 5a
        E 0 9f 32 5a
        E 481 82 45 64
        E 0 83 3e 64
        E 0 86 45 64
        E 0 8f 32 64
        E 0 92 45 64
        E 0 93 3c 5a
        E 0 96 45 64
        E 0 9f 30 5a
        E 479 83 3c 64
        E 0 8f 30 64
        E 0 93 3c 5a
        E 0 9f 30 5a
        E 479 82 45 64
        E 0 83 3c 64
        E 0 86 45 64
        E 1 8f 30 64
        E 0 92 45 64
        E 0 93 3b 5a
        E 0 96 45 64
        E 0 9f 2f 5a
        E 479 83 3b 64
        E 0 8f 2f 64
        E 2 93 3b 5a
        E 3 9f 2f 5a
        E 475 82 45 64
        E 0 83 3b 64
        E 0 86 45 64
        E 0 8f 2f 64
        E 1 92 45 64
        E 0 93 39 5a
        E 0 96 45 64
        E 0 9f 2d 5a
        E 479 83 39 64
        E 2 8f 2d 64
        E 0 93 39 5a
        E 0 9f 2d 5a
        E 479 82 45 64
        E 0 83 39 64
        E 0 86 45 64
        E 0 8f 2d 64
        E 0 92 4a 64
        E 0 93 38 5a
        E 0 96 4a 64
        E 0 9f 2c 5a
        E 480 83 38 64
        E 0 8f 2c 64
        E 0 93 36 5a
        E 0 9f 2a 5a
        E 480 82 4a 64
        E 0 83 36 64
        E 0 86 4a 64
        E 0 8f 2a 64
        E 0 92 40 64
        E 0 93 38 5a
        E 0 96 40 64
        E 0 9f 2c 5a
        E 479 82 40 64
        E 0 83 38 64
        E 0 86 40 64
        E 0 8f 2c 64
        E 0 92 47 64
        E 0 93 34 5a
        E 0 96 47 64
        E 0 9f 28 5a
        E 481 82 47 64
        E 0 83 34 64
        E 0 86 47 64
        E 0 8f 28 64
        E 0 92 48 64
        E 0 93 39 5a
        E 0 96 48 64
        E 0 9f 2d 5a
        E 480 82 48 64
        E 0 83 39 64
        E 0 86 48 64
        E 0 8f 2d 64
        E 0 92 47 64
        E 1 93 3c 5a
        E 0 96 47 64
        E 0 9f 30 5a
        E 240 82 47 64
        E 0 86 47 64
        E 1 92 45 64
        E 0 96 45 64
        E 238 82 45 64
        E 0 83 3c 64
        E 0 86 45 64
        E 0 8f 30 64
        E 0 92 47 64
        E 0 93 3e 5a
        E 0 96 47 64
        E 0 9f 32 5a
        E 480 82 47 64
        E 0 83 3e 64
        E 0 86 47 64
        E 0 8f 32 64
        E 0 92 45 64
        E 0 93 40 5a
        E 0 96 45 64
        E 0 9f 34 5a
        E 241 82 45 64
        E 0 86 45 64
        E 0 92 44 64
        E 0 96 44 64
        E 239 82 44 64
        E 0 83 40 64
        E 0 86 44 64
        E 0 8f 34 64
        E 0 92 45 64
        E 0 93 39 5a
        E 1 96 45 64
        E 0 9f 2d 5a
        E 478 83 39 64
        E 0 8f 2d 64
        E 0 93 3b 5a
        E 0 9f 2f 5a
        E 482 82 45 64
        E 0 83 3b 64
        E 0 86 45 64
        E 0 8f 2f 64
        E 0 93 3c 5a
        E 0 9f 30 5a
        E 479 83 3c 64
        E 0 8f 30 64
        E 1 92 45 64
        E 0 93 39 5a
        E 0 96 45 64
        E 0 9f 2d 5a
        E 484 82 45 64
        E 0 83 39 64
        E 0 86 45 64
        E 0 8f 2d 64
        E 1 92 3e 64
        E 0 93 3e 5a
        E 0 96 41 64
        E 0 9f 32 5a
        E 474 82 3e 64
        E 0 83 3e 64
        E 0 8f 32 64
        E 0 92 38 64
        E 0 93 38 5a
        E 0 9f 2c 5a
        E 479 82 38 64
        E 0 83 38 64
        E 0 86 41 64
        E 0 8f 2c 64
        E 0 92 39 64
        E 0 93 39 5a
        E 0 96 40 64
        E 0 9f 2d 5a
        E 481 82 39 64
        E 0 83 39 64
        E 0 86 40 64
        E 0 8f 2d 64
        E 0 92 41 64
        E 0 93 41 5a
        E 4 96 45 64
        E 0 9f 35 5a
        E 476 82 41 64
        E 1 83 41 64
        E 0 86 45 64
        E 0 8f 35 64
        E 0 92 3e 64
        E 0 93 3e 5a
        E 0 96 41 64
        E 0 9f 32 5a
        E 478 82 3e 64
        E 0 83 3e 64
        E 0 8f 32 64
        E 0 92 38 64
        E 0 93 38 5a
        E 0 9f 2c 5a
        E 481 82 38 64
        E 0 83 38 64
        E 0 86 41 64
        E 0 8f 2c 64
        E 0 92 39 64
        E 0 93 39 5a
        E 0 96 40 64
        E 0 9f 2d 5a
        E 480 82 39 64
        E 0 83 39 64
        E 0 86 40 64
        E 0 8f 2d 64
        E 0 92 45 64
        E 0 93 45 5a
        E 1 96 48 64
        E 0 9f 39 5a
        E 478 82 45 64
        E 0 83 45 64
        E 1 86 48 64
        E 0 8f 39 64
        E 0 92 40 64
        E 0 93 40 5a
        E 0 96 47 64
        E 0 9f 34 5a
        E 483 82 40 64
        E 0 83 40 64
        E 0 86 47 64
        E 0 8f 34 64
        E 1 92 3c 64
        E 0 93 3c 5a
        E 0 96 45 64
        E 0 9f 30 5a
        E 476 82 3c 64
        E 0 83 3c 64
        E 0 86 45 64
        E 0 8f 30 64
        E 0 92 3e 64
        E 0 93 3e 5a
        E 0 96 47 64
        E 0 9f 32 5a
        E 480 82 3e 64
        E 0 83 3e 64
        E 0 86 47 64
        E 0 8f 32 64
        E 1 92 40 64
        E 0 93 40 5a
        E 0 96 45 64
        E 0 9f 34 5a
        E 237 86 45 64
        E 0 96 44 64
        E 244 82 40 64
        E 0 83 40 64
        E 0 86 44 64
        E 0 8f 34 64
        E 0 92 39 64
        E 0 93 39 5a
        E 0 96 45 64
        E 0 9f 2d 5a
        E 2878 82 39 64
        E 0 83 39 64
        E 3 86 45 64
        E 0 8f 2d 64
        E 0 98 45 64
        E 0 9e 45 64
        E 0 9f 32 5a
        E 478 88 45 64
        E 0 8e 45 64
        E 0 98 45 64
        E 0 9e 45 64
        E 481 88 45 64
        E 0 8e 45 64
        E 0 98 42 64
        E 0 9e 42 64
        E 478 88 42 64
        E 0 8e 42 64
        E 0 98 42 64
        E 0 9e 42 64
        E 240 88 42 64
        E 0 8e 42 64
        E 0 98 43 64
        E 0 9e 43 64
        E 240 88 43 64
        E 0 8e 43 64
        E 0 98 45 64
        E 0 9e 45 64
        E 960 88 45 64
        E 1 8e 45 64
        E 4 98 48 64
        E 0 9e 48 64
        E 475 88 48 64
        E 0 8e 48 64
        E 0 98 48 64
        E 0 9e 48 64
        E 239 88 48 64
        E 0 8e 48 64
        E 0 98 47 64
        E 0 9e 47 64
        E 241 88 47 64
        E 0 8e 47 64
        E 0 8f 32 64
        E 0 98 47 64
        E 0 9e 47 64
        E 0 9f 33 5a
        E 482 88 47 64
        E 0 8e 47 64
        E 0 98 47 64
        E 0 9e 47 64
        E 478 88 47 64
        E 0 8e 47 64
        E 960 98 47 64
        E 0 9e 47 64
        E 479 88 47 64
        E 0 8e 47 64
        E 0 98 48 64
        E 0 9e 48 64
        E 482 88 48 64
        E 0 8e 48 64
        E 0 98 45 64
        E 0 9e 45 64
        E 477 88 45 64
        E 0 8e 45 64
        E 0 98 45 64
        E 0 9e 45 64
        E 242 88 45 64
        E 0 8e 45 64
        E 0 98 43 64
        E 0 9e 43 64
        E 240 88 43 64
        E 0 8e 43 64
        E 0 8f 33 64
        E 0 98 43 64
        E 0 9e 43 64
        E 0 9f 2e 5a
        E 480 88 43 64
        E 0 8e 43 64
        E 0 98 43 64
        E 1 9e 43 64
        E 478 88 43 64
        E 0 8e 43 64
        E 242 98 4c 64
        E 0 9e 4c 64
        E 240 88 4c 64
        E 0 8e 4c 64
        E 1 98 4b 66
        E 0 9e 4b 66
        E 238 88 4b 66
        E 0 8e 4b 66
        E 0 98 4c 64
        E 0 9e 4c 64
        E 239 88 4c 64
        E 0 8e 4c 64
        E 0 8f 2e 64
        E 0 98 47 64
        E 0 9e 47 64
        E 0 9f 2f 5a
        E 481 88 47 64
        E 0 8e 47 64
        E 0 98 47 64
        E 0 9e 47 64
        E 481 88 47 64
        E 0 8e 47 64
        E 0 8f 2f 64
        E 0 9f 34 5a
        E 479 98 43 64
        E 0 9e 43 64
        E 480 88 43 64
        E 0 8e 43 64
        E 0 8f 34 64
        E 0 98 47 64
        E 0 9e 47 64
        E 0 9f 34 5a
        E 479 88 47 64
        E 0 8e 47 64
        E 0 98 47 64
        E 0 9e 47 64
        E 481 88 47 64
        E 0 8e 47 64
        E 0 98 47 64
        E 0 9e 47 64
        E 479 88 47 64
        E 0 8e 47 64
        E 0 98 49 64
        E 0 9e 49 64
        E 481 88 49 64
        E 0 8e 49 64
        E 0 8f 34 64
        E 0 98 49 64
        E 0 9e 49 64
        E 0 9f 2e 5a
        E 481 88 49 64
        E 0 8e 49 64
        E 0 98 49 64
        E 0 9e 49 64
        E 480 88 49 64
        E 0 8e 49 64
        E 961 8f 2e 64
        E 0 98 4c 64
        E 0 9e 4c 64
        E 0 9f 2e 5a
        E 478 88 4c 64
        E 0 8e 4c 64
        E 1 98 49 64
        E 0 9e 49 64
        E 240 88 49 64
        E 0 8e 49 64
        E 0 98 49 64
        E 0 9e 49 64
        E 239 88 49 64
        E 0 8e 49 64
        E 0 98 47 64
        E 0 9e 47 64
        E 479 88 47 64
        E 0 8e 47 64
        E 0 98 49 64
        E 1 9e 49 64
        E 482 88 49 64
        E 0 8e 49 64
        E 0 8f 2e 64
        E 1 98 4a 64
        E 0 9e 4a 64
        E 0 9f 2f 5a
        E 477 88 4a 64
        E 0 8e 4a 64
        E 0 98 4a 64
        E 0 9e 4a 64
        E 480 88 4a 64
        E 0 8e 4a 64
        E 0 98 47 64
        E 0 9e 47 64
        E 480 88 47 64
        E 0 8e 47 64
        E 0 98 45 64
        E 0 9e 45 64
        E 241 88 45 64
        E 0 8e 45 64
        E 0 98 47 64
        E 0 9e 47 64
        E 239 88 47 64
        E 0 8e 47 64
        E 0 8f 2f 64
        E 1 98 43 64
        E 0 9e 43 64
        E 0 9f 34 5a
        E 478 88 43 64
        E 0 8e 43 64
        E 0 98 43 64
        E 0 9e 43 64
        E 482 88 43 64
        E 0 8e 43 64
        E 960 98 4c 64
        E 0 9e 4c 64
        E 479 88 4c 64
        E 0 8e 4c 64
        E 1 98 46 64
        E 0 9e 46 64
        E 239 88 46 64
        E 0 8e 46 64
        E 0 98 46 64
        E 0 9e 46 64
        E 241 88 46 64
        E 0 8e 46 64
        E 0 98 46 64
        E 0 9e 46 64
        E 478 88 46 64
        E 0 8e 46 64
        E 0 98 47 64
        E 0 9e 47 64
        E 482 88 47 64
        E 0 8e 47 64
        E 0 8f 34 64
        E 0 98 42 64
        E 0 9e 42 64
        E 0 9f 36 5a
        E 479 88 42 64
        E 0 8e 42 64
        E 0 98 42 64
        E 0 9e 42 64
        E 481 88 42 64
        E 0 8e 42 64
        E 959 8f 36 64
        E 1 9f 2f 5a
        E 2880 8f 2f 64
        E 0 93 40 5a
        E 0 9f 39 5a
        E 1151 83 40 64
        E 0 8f 39 64
        E 0 92 4c 64
        E 1 93 3d 5a
        E 0 9f 2d 5a
        E 1150 82 4c 64
        E 1 83 3d 64
        E 0 8f 2d 64
        E 0 92 51 64
        E 2304 82 51 64
        E 0 92 51 64
        E 289 82 51 64
        E 0 92 51 64
        E 285 82 51 64
        E 1 92 50 64
        E 288 82 50 64
        E 0 92 51 64
        E 287 82 51 64
        E 1 92 49 64
        E 0 93 3d 5a
        E 0 9f 2d 5a
        E 289 82 49 64
        E 0 92 49 64
        E 290 82 49 64
        E 0 92 4a 64
        E 285 82 4a 64
        E 0 92 4c 64
        E 289 82 4c 64
        E 0 83 3d 64
        E 0 8f 2d 64
        E 0 92 4a 64
        E 0 93 42 5a
        E 0 9f 32 5a
        E 287 82 4a 64
        E 0 92 4a 64
        E 289 82 4a 64
        E 0 92 4c 64
        E 288 82 4c 64
        E 0 92 4e 64
        E 290 82 4e 64
        E 0 83 42 64
        E 0 8f 32 64
        E 0 92 47 64
        E 0 93 40 5a
        E 0 9f 34 5a
        E 285 82 47 64
        E 0 92 47 64
        E 289 82 47 64
        E 0 92 49 64
        E 288 82 49 64
        E 0 92 4a 64
        E 290 82 4a 64
        E 0 83 40 64
        E 0 8f 34 64
        E 0 92 49 64
        E 0 93 40 5a
        E 0 9f 39 5a
        E 1149 82 49 64
        E 0 83 40 64
        E 0 8f 39 64
        E 0 92 45 64
        E 0 93 3d 5a
        E 0 9f 2d 5a
        E 1153 82 45 64
        E 0 83 3d 64
        E 0 8f 2d 64
        E 0 92 50 64
        E 0 92 51 64
        E 1151 82 50 64
        E 1152 82 51 64
        E 0 92 51 64
        E 288 82 51 64
        E 0 92 51 64
        E 291 82 51 64
        E 0 92 50 64
        E 287 82 50 64
        E 0 92 51 64
        E 288 82 51 64
        E 1 92 49 64
        E 0 93 3d 5a
        E 0 9f 2d 5a
        E 287 82 49 64
        E 2 92 49 64
        E 285 82 49 64
        E 1 92 4a 64
        E 288 82 4a 64
        E 0 92 4c 64
        E 287 82 4c 64
        E 0 83 3d 64
        E 0 8f 2d 64
        E 0 92 4a 64
        E 0 93 42 5a
        E 0 9f 32 5a
        E 287 82 4a 64
        E 1 92 4a 64
        E 287 82 4a 64
        E 1 92 4c 64
        E 286 82 4c 64
        E 0 92 4e 64
        E 290 82 4e 64
        E 0 83 42 64
        E 0 8f 32 64
        E 0 92 47 64
        E 0 93 40 5a
        E 0 9f 34 5a
        E 289 82 47 64
        E 1 92 47 64
        E 287 82 47 64
        E 0 92 49 64
        E 287 82 49 64
        E 0 92 4a 64
        E 290 82 4a 64
        E 0 83 40 64
        E 0 8f 34 64
        E 0 92 49 64
        E 0 93 40 5a
        E 0 9f 39 5a
        E 1150 83 40 64
        E 0 8f 39 64
        E 0 93 3d 5a
        E 0 9f 2d 5a
        E 576 82 49 64
        E 1 92 47 64
        E 288 82 47 64
        E 0 92 45 64
        E 286 82 45 64
        E 0 83 3d 64
        E 0 8f 2d 64
        E 0 92 51 64
        E 0 93 40 5a
        E 0 9f 31 5a
        E 1154 82 51 64
        E 0 83 40 64
        E 0 8f 31 64
        E 0 92 39 64
        E 0 93 39 5a
        E 0 9f 2d 5a
        E 1150 82 39 64
        E 1 83 39 64
        E 0 8f 2d 64
        E 0 92 50 64
        E 0 93 3b 5a
        E 0 9f 28 5a
        E 1153 83 3b 64
        E 0 8f 28 64
        E 1 93 44 5a
        E 0 9f 34 5a
        E 574 82 50 64
        E 0 92 4e 64
        E 288 82 4e 64
        E 1 92 4c 64
        E 286 82 4c 64
        E 0 83 44 64
        E 0 8f 34 64
        E 0 92 53 64
        E 0 93 40 5a
        E 0 9f 38 5a
        E 1155 82 53 64
        E 0 83 40 64
        E 0 8f 38 64
        E 0 92 40 64
        E 0 93 40 5a
        E 0 9f 34 5a
        E 1150 82 40 64
        E 0 83 40 64
        E 0 8f 34 64
        E 0 92 49 64
        E 0 93 40 5a
        E 0 9f 2d 5a
        E 575 82 49 64
        E 0 92 45 64
        E 578 82 45 64
        E 1 83 40 64
        E 0 8f 2d 64
        E 0 92 50 64
        E 0 93 40 5a
        E 0 9f 34 5a
        E 574 82 50 64
        E 0 92 51 64
        E 576 82 51 64
        E 1 83 40 64
        E 0 8f 34 64
        E 0 92 49 64
        E 0 93 40 5a
        E 0 9f 2d 5a
        E 575 82 49 64
        E 1 92 4a 64
        E 573 82 4a 64
        E 0 83 40 64
        E 0 8f 2d 64
        E 0 92 52 64
        E 0 93 42 5a
        E 0 9f 36 5a
        E 578 82 52 64
        E 0 92 53 64
        E 577 82 53 64
        E 0 83 42 64
        E 0 8f 36 64
        E 0 92 4b 64
        E 0 93 42 5a
        E 0 9f 2f 5a
        E 576 82 4b 64
        E 0 92 4c 64
        E 573 82 4c 64
        E 0 83 42 64
        E 0 8f 2f 64
        E 0 92 54 63
        E 0 93 44 5a
        E 0 9f 38 5a
        E 577 82 54 63
        E 0 92 55 64
        E 578 82 55 64
        E 0 83 44 64
        E 0 8f 38 64
        E 0 92 4d 63
        E 0 93 44 5a
        E 0 9f 31 5a
        E 575 82 4d 63
        E 0 92 4e 64
        E 576 82 4e 64
        E 0 83 44 64
        E 0 8f 31 64
        E 0 92 55 64
        E 1 93 45 5a
        E 0 9f 39 5a
        E 575 82 55 64
        E 0 92 56 64
        E 576 82 56 64
        E 0 83 45 64
        E 0 8f 39 64
        E 0 92 50 64
        E 0 93 47 5a
        E 0 9f 34 5a
        E 288 82 50 64
        E 2 92 4c 64
        E 285 82 4c 64
        E 1 8f 34 64
        E 0 92 4e 64
        E 0 9f 32 5a
        E 290 82 4e 64
        E 0 92 50 64
        E 287 82 50 64
        E 0 83 47 64
        E 0 8f 32 64
        E 0 92 51 64
        E 0 93 40 5a
        E 0 9f 31 5a
        E 287 82 51 64
        E 1 92 49 64
        E 286 82 49 64
        E 1 8f 31 64
        E 0 92 47 64
        E 1 9f 32 5a
        E 285 82 47 64
        E 1 92 45 64
        E 288 82 45 64
        E 0 83 40 64
        E 0 8f 32 64
        E 1 92 44 64
        E 0 93 3b 5a
        E 0 9f 34 5a
        E 289 82 44 64
        E 0 92 47 64
        E 287 82 47 64
        E 0 8f 34 64
        E 0 92 4c 64
        E 0 9f 36 5a
        E 289 82 4c 64
        E 0 92 50 64
        E 288 82 50 64
        E 0 83 3b 64
        E 0 8f 36 64
        E 0 92 53 64
        E 0 93 40 5a
        E 0 9f 38 5a
        E 574 82 53 64
        E 0 8f 38 64
        E 0 9f 34 5a
        E 576 83 40 64
        E 0 8f 34 64
        E 0 92 49 64
        E 0 93 40 5a
        E 0 9f 39 5a
        E 289 82 49 64
        E 0 92 4c 64
        E 288 82 4c 64
        E 0 8f 39 64
        E 1 92 4e 64
        E 0 9f 34 5a
        E 286 82 4e 64
        E 1 92 50 64
        E 290 82 50 64
        E 0 83 40 64
        E 0 8f 34 64
        E 0 92 51 64
        E 0 93 40 5a
        E 0 9f 31 5a
        E 285 82 51 64
        E 0 92 49 64
        E 288 82 49 64
        E 0 8f 31 64
        E 0 92 47 64
        E 0 9f 32 5a
        E 291 82 47 64
        E 1 92 45 64
        E 285 82 45 64
        E 0 83 40 64
        E 0 8f 32 64
        E 0 92 44 64
        E 0 93 3b 5a
        E 1 9f 34 5a
        E 288 82 44 64
        E 0 92 47 64
        E 287 82 47 64
        E 0 8f 34 64
        E 0 92 4c 64
        E 0 9f 36 5a
        E 289 82 4c 64
        E 0 92 50 64
        E 286 82 50 64
        E 0 83 3b 64
        E 0 8f 36 64
        E 0 92 53 64
        E 0 93 40 5a
        E 0 9f 38 5a
        E 576 82 53 64
        E 0 8f 38 64
        E 0 9f 34 5a
        E 577 83 40 64
        E 0 8f 34 64
        E 0 92 49 64
        E 0 93 40 5a
        E 0 9f 39 5a
        E 189 92 47 64
        E 99 82 49 64
        E 88 92 45 64
        E 99 82 47 64
        E 100 8f 39 64
        E 0 92 4c 64
        E 0 9f 2d 5a
        E 89 82 45 64
        E 102 92 4a 64
        E 98 82 4c 64
        E 88 92 49 64
        E 100 82 4a 64
        E 101 83 40 64
        E 0 8f 2d 64
        E 0 92 51 64
        E 0 93 40 5a
        E 0 9f 31 5a
        E 86 82 49 64
        E 488 82 51 64
        E 0 83 40 64
        E 0 8f 31 64
        E 1 92 45 64
        E 1 93 42 5a
        E 0 9f 32 5a
        E 576 82 45 64
        E 0 83 42 64
        E 0 8f 32 64
        E 0 92 40 64
        E 0 93 3b 5a
        E 0 9f 34 5a
        E 1153 82 40 64
        E 0 83 3b 64
        E 0 8f 34 64
        E 0 92 47 64
        E 0 93 44 5a
        E 0 9f 28 5a
        E 1151 82 47 64
        E 0 83 44 64
        E 0 8f 28 64
        E 0 92 45 64
        E 0 93 40 5a
        E 0 9f 2d 5a
        E 2305 82 45 64
        E 0 83 40 64
        E 0 8f 2d 64
        E 0 98 4c 64
        E 1150 88 4c 64
        E 0 98 40 64
        E 1152 88 40 64
        E 0 98 45 64
        E 0 9f 2d 5a
        E 4611 88 45 64
        E 0 98 45 64
        E 1150 88 45 64
        E 0 98 4e 64
        E 1152 88 4e 64
        E 0 98 4c 64
        E 575 88 4c 64
        E 0 98 4a 64
        E 577 88 4a 64
        E 0 98 49 64
        E 575 88 49 64
        E 0 98 47 64
        E 575 88 47 64
        E 0 8f 2d 64
        E 0 98 49 64
        E 0 9f 2d 5a
        E 867 88 49 64
        E 0 98 47 64
        E 575 88 47 64
        E 1 98 45 64
        E 1150 88 45 64
        E 0 8f 2d 64
        E 1153 92 49 64
        E 1 93 40 5a
        E 0 98 45 64
        E 0 9f 2d 5a
        E 573 88 45 64
        E 0 98 49 64
        E 578 82 49 64
        E 0 83 40 64
        E 0 88 49 64
        E 0 8f 2d 64
        E 1 92 47 64
        E 1 93 40 5a
        E 0 98 47 64
        E 0 9f 34 5a
        E 1149 82 47 64
        E 0 83 40 64
        E 0 88 47 64
        E 0 8f 34 64
        E 0 92 47 64
        E 0 93 40 5a
        E 0 98 40 64
        E 0 9f 34 5a
        E 1153 82 47 64
        E 1 83 40 64
        E 0 88 40 64
        E 0 8f 34 64
        E 0 92 47 64
        E 1 93 40 5a
        E 0 98 4a 64
        E 0 9f 34 5a
        E 1150 82 47 64
        E 0 83 40 64
        E 0 88 4a 64
        E 0 8f 34 64
        E 0 92 47 64
        E 0 93 40 5a
        E 0 98 49 64
        E 0 9f 34 5a
        E 576 88 49 64
        E 0 98 47 64
        E 575 82 47 64
        E 0 83 40 64
        E 0 88 47 64
        E 0 8f 34 64
        E 0 92 49 64
        E 0 93 40 5a
        E 0 98 49 64
        E 0 9f 2d 5a
        E 289 82 49 64
        E 0 92 51 64
        E 287 82 51 64
        E 0 88 49 64
        E 0 92 50 64
        E 0 98 47 64
        E 288 82 50 64
        E 0 92 51 64
        E 287 82 51 64
        E 0 83 40 64
        E 0 88 47 64
        E 0 8f 2d 64
        E 1 92 49 64
        E 0 93 40 5a
        E 0 98 45 64
        E 0 9f 2d 5a
        E 288 82 49 64
        E 0 92 49 64
        E 288 82 49 64
        E 0 92 4a 64
        E 286 82 4a 64
        E 0 92 4c 64
        E 291 82 4c 64
        E 0 83 40 64
        E 0 88 45 64
        E 0 8f 2d 64
        E 1 92 45 64
        E 0 93 3d 5a
        E 0 9f 2d 5a
        E 286 82 45 64
        E 0 92 51 64
        E 288 82 51 64
        E 0 92 50 64
        E 288 82 50 64
        E 0 92 51 64
        E 287 82 51 64
        E 0 83 3d 64
        E 0 8f 2d 64
        E 0 92 49 64
        E 0 93 40 5a
        E 0 98 45 64
        E 1 9f 2d 5a
        E 288 82 49 64
        E 0 92 49 64
        E 286 82 49 64
        E 0 88 45 64
        E 0 92 4a 64
        E 1 98 49 64
        E 290 82 4a 64
        E 0 92 4c 64
        E 286 82 4c 64
        E 0 83 40 64
        E 0 88 49 64
        E 0 8f 2d 64
        E 0 92 44 64
        E 0 93 40 5a
        E 0 98 47 64
        E 1 9f 34 5a
        E 1151 82 44 64
        E 0 83 40 64
        E 0 88 47 64
        E 0 8f 34 64
        E 1 92 47 64
        E 0 93 40 5a
        E 0 98 4c 64
        E 0 9f 34 5a
        E 1154 82 47 64
        E 0 83 40 64
        E 0 88 4c 64
        E 0 8f 34 64
        E 1 92 47 64
        E 0 93 40 5a
        E 0 98 4c 64
        E 0 9f 34 5a
        E 1150 82 47 64
        E 0 83 40 64
        E 0 88 4c 64
        E 0 8f 34 64
        E 0 92 47 64
        E 0 93 40 5a
        E 1 98 44 64
        E 0 9f 34 5a
        E 1149 82 47 64
        E 0 83 40 64
        E 0 88 44 64
        E 0 8f 34 64
        E 0 92 4b 64
        E 0 93 3f 5a
        E 0 98 45 64
        E 0 9f 36 5a
        E 1153 82 4b 64
        E 0 83 3f 64
        E 0 88 45 64
        E 0 8f 36 64
        E 0 92 4b 64
        E 0 93 3f 5a
        E 0 98 44 64
        E 0 9f 36 5a
        E 576 88 44 64
        E 0 98 42 64
        E 575 82 4b 64
        E 0 83 3f 64
        E 0 88 42 64
        E 0 8f 36 64
        E 0 92 4b 64
        E 0 93 42 5a
        E 0 98 4e 64
        E 0 9f 2f 5a
        E 1152 82 4b 64
        E 0 83 42 64
        E 0 88 4e 64
        E 0 8f 2f 64
        E 0 92 4b 64
        E 0 93 42 5a
        E 0 98 45 64
        E 0 9f 2f 5a
        E 1152 82 4b 64
        E 0 83 42 64
        E 0 88 45 64
        E 0 8f 2f 64
        E 0 92 47 64
        E 1 93 40 5a
        E 0 98 44 64
        E 0 9f 34 5a
        E 289 82 47 64
        E 1 92 50 64
        E 285 82 50 64
        E 0 88 44 64
        E 0 92 51 64
        E 0 98 42 64
        E 290 82 51 64
        E 1 92 53 64
        E 285 82 53 64
        E 0 83 40 64
        E 0 88 42 64
        E 0 8f 34 64
        E 0 92 4c 64
        E 0 93 44 5a
        E 0 98 44 64
        E 0 9f 34 5a
        E 288 82 4c 64
        E 0 92 4c 64
        E 288 82 4c 64
        E 1 92 4e 64
        E 289 82 4e 64
        E 1 92 50 64
        E 286 82 50 64
        E 0 83 44 64
        E 0 88 44 64
        E 0 8f 34 64
        E 0 92 47 64
        E 0 93 44 5a
        E 0 9f 34 5a
        E 289 82 47 64
        E 0 92 47 64
        E 288 82 47 64
        E 0 92 49 64
        E 287 82 49 64
        E 0 92 4a 64
        E 288 82 4a 64
        E 0 83 44 64
        E 0 8f 34 64
        E 0 92 44 64
        E 0 93 44 5a
        E 0 98 40 64
        E 0 9f 34 5a
        E 288 82 44 64
        E 0 92 47 64
        E 288 82 47 64
        E 0 88 40 64
        E 1 92 49 64
        E 0 98 47 64
        E 288 82 49 64
        E 1 92 4a 64
        E 287 82 4a 64
        E 0 83 44 64
        E 0 88 47 64
        E 0 8f 34 64
        E 0 92 49 64
        E 0 93 40 5a
        E 0 98 49 64
        E 0 9f 2d 5a
        E 286 82 49 64
        E 1 92 4c 64
        E 288 82 4c 64
        E 0 92 4a 64
        E 290 82 4a 64
        E 0 92 49 64
        E 285 82 49 64
        E 0 83 40 64
        E 0 8f 2d 64
        E 0 92 51 64
        E 0 93 3d 5a
        E 0 9f 2d 5a
        E 290 82 51 64
        E 0 92 4c 64
        E 286 82 4c 64
        E 0 92 4a 64
        E 289 82 4a 64
        E 1 92 49 64
        E 287 82 49 64
        E 1 83 3d 64
        E 1 88 49 64
        E 0 8f 2d 64
        E 0 92 51 64
        E 0 93 3d 5a
        E 0 98 49 64
        E 1 9f 2d 5a
        E 574 88 49 64
        E 1 98 47 64
        E 286 88 47 64
        E 0 98 45 64
        E 289 82 51 64
        E 0 83 3d 64
        E 0 88 45 64
        E 0 8f 2d 64
        E 0 92 3d 64
        E 0 93 36 5a
        E 0 98 44 64
        E 0 9f 2d 5a
        E 575 88 44 64
        E 0 98 42 64
        E 576 82 3d 64
        E 0 83 36 64
        E 0 88 42 64
        E 0 8f 2d 64
        E 0 93 42 5a
        E 0 98 4b 64
        E 0 9f 2f 5a
        E 287 92 4e 64
        E 289 82 4e 64
        E 0 92 4c 64
        E 287 82 4c 64
        E 0 92 4b 64
        E 289 82 4b 64
        E 0 83 42 64
        E 0 8f 2f 64
        E 0 92 53 64
        E 1 93 3f 5a
        E 0 9f 2f 5a
        E 288 82 53 64
        E 0 92 4e 64
        E 288 82 4e 64
        E 0 92 4c 64
        E 289 82 4c 64
        E 0 92 4b 64
        E 287 82 4b 64
        E 0 83 3f 64
        E 0 88 4b 64
        E 0 8f 2f 64
        E 0 92 53 64
        E 0 93 3f 5a
        E 0 98 4b 64
        E 0 9f 2f 5a
        E 575 88 4b 64
        E 0 98 49 64
        E 288 88 49 64
        E 0 98 47 64
        E 287 82 53 64
        E 0 83 3f 64
        E 1 88 47 64
        E 0 8f 2f 64
        E 0 92 3f 64
        E 0 93 38 5a
        E 0 98 45 64
        E 0 9f 2f 5a
        E 577 88 45 64
        E 0 98 44 64
        E 575 82 3f 64
        E 0 83 38 64
        E 0 88 44 64
        E 0 8f 2f 64
        E 0 93 44 5a
        E 0 98 4c 64
        E 0 9f 31 5a
        E 289 92 50 64
        E 286 82 50 64
        E 0 92 4e 64
        E 289 82 4e 64
        E 0 92 4c 64
        E 288 82 4c 64
        E 0 83 44 64
        E 0 8f 31 64
        E 0 92 55 64
        E 0 93 40 5a
        E 0 9f 31 5a
        E 289 82 55 64
        E 0 92 50 64
        E 286 82 50 64
        E 0 92 4e 64
        E 288 82 4e 64
        E 0 92 4c 64
        E 289 82 4c 64
        E 0 83 40 64
        E 0 88 4c 64
        E 0 8f 31 64
        E 0 92 55 64
        E 0 93 40 5a
        E 0 98 4c 64
        E 0 9f 31 5a
        E 575 88 4c 64
        E 1 98 4b 64
        E 288 88 4b 64
        E 1 98 49 64
        E 288 82 55 64
        E 0 83 40 64
        E 0 88 49 64
        E 0 8f 31 64
        E 0 92 40 64
        E 1 93 39 5a
        E 0 98 47 64
        E 0 9f 31 5a
        E 574 88 47 64
        E 0 98 45 64
        E 575 82 40 64
        E 0 83 39 64
        E 0 88 45 64
        E 1 8f 31 64
        E 0 93 45 5a
        E 0 98 4e 64
        E 2 9f 33 5a
        E 574 88 4e 64
        E 1 92 50 64
        E 0 98 4c 64
        E 575 82 50 64
        E 0 83 45 64
        E 0 88 4c 64
        E 0 8f 33 64
        E 0 92 4e 64
        E 0 93 42 5a
        E 0 98 4b 64
        E 0 9f 33 5a
        E 576 82 4e 64
        E 0 88 4b 64
        E 0 92 4c 64
        E 0 98 49 64
        E 575 82 4c 64
        E 0 83 42 64
        E 0 88 49 64
        E 0 8f 33 64
        E 0 92 4b 64
        E 0 93 42 5a
        E 0 98 47 64
        E 0 9f 33 5a
        E 577 82 4b 64
        E 0 88 47 64
        E 0 92 49 64
        E 0 98 45 64
        E 574 82 49 64
        E 0 83 42 64
        E 0 88 45 64
        E 0 8f 33 64
        E 0 92 47 64
        E 0 93 3b 5a
        E 0 98 44 64
        E 0 9f 33 5a
        E 578 82 47 64
        E 0 88 44 64
        E 0 92 45 64
        E 0 98 42 64
        E 575 82 45 64
        E 0 83 3b 64
        E 0 88 42 64
        E 0 8f 33 64
        E 0 92 44 64
        E 0 93 3b 5a
        E 0 98 44 64
        E 0 9f 34 5a
        E 1154 82 44 64
        E 0 83 3b 64
        E 0 88 44 64
        E 0 8f 34 64
        E 0 92 4c 64
        E 0 93 3b 5a
        E 0 98 4c 64
        E 1 9f 34 5a
        E 1152 82 4c 64
        E 0 83 3b 64
        E 0 88 4c 64
        E 0 8f 34 64
        E 0 92 44 64
        E 0 93 3b 5a
        E 0 98 44 64
        E 0 9f 2f 5a
        E 1151 82 44 64
        E 0 83 3b 64
        E 0 88 44 64
        E 0 8f 2f 64
        E 0 92 42 64
        E 0 93 3b 5a
        E 0 98 42 64
        E 0 9f 2f 5a
        E 1153 82 42 64
        E 0 83 3b 64
        E 0 88 42 64
        E 0 8f 2f 64
        E 0 92 4c 64
        E 0 93 3b 5a
        E 0 98 40 64
        E 0 9f 34 5a
        E 286 82 4c 64
        E 0 92 4e 64
        E 289 82 4e 64
        E 0 92 50 64
        E 289 82 50 64
        E 0 92 51 64
        E 286 82 51 64
        E 0 83 3b 64
        E 0 8f 34 64
        E 0 92 53 64
        E 0 93 3b 5a
        E 0 9f 34 5a
        E 289 82 53 64
        E 0 92 50 64
        E 288 82 50 64
        E 0 92 4e 64
        E 289 82 4e 64
        E 0 92 4c 64
        E 285 82 4c 64
        E 0 83 3b 64
        E 0 88 40 64
        E 0 8f 34 64
        E 0 92 47 64
        E 0 93 3b 5a
        E 0 9f 33 5a
        E 290 82 47 64
        E 0 92 4b 64
        E 287 82 4b 64
        E 0 92 4e 64
        E 288 82 4e 64
        E 0 92 51 64
        E 287 82 51 64
        E 0 83 3b 64
        E 0 8f 33 64
        E 0 92 53 64
        E 0 93 3b 5a
        E 0 9f 33 5a
        E 578 82 53 64
        E 576 83 3b 64
        E 0 8f 33 64
        E 0 92 50 64
        E 0 93 3b 5a
        E 0 9f 34 5a
        E 286 82 50 64
        E 0 92 4c 64
        E 290 82 4c 64
        E 0 92 50 64
        E 286 82 50 64
        E 0 92 51 64
        E 289 82 51 64
        E 0 83 3b 64
        E 0 8f 34 64
        E 0 92 53 64
        E 0 93 3b 5a
        E 0 9f 38 5a
        E 288 82 53 64
        E 0 92 50 64
        E 287 82 50 64
        E 0 92 4e 64
        E 289 82 4e 64
        E 0 92 4c 64
        E 288 82 4c 64
        E 0 83 3b 64
        E 0 8f 38 64
        E 0 92 47 64
        E 0 93 3f 5a
        E 0 9f 3b 5a
        E 1152 82 47 64
        E 0 83 3f 64
        E 0 8f 3b 64
        E 0 92 4e 64
        E 0 93 3f 5a
        E 0 9f 2f 5a
        E 1152 82 4e 64
        E 0 83 3f 64
        E 0 8f 2f 64
        E 1 92 4c 64
        E 0 93 3b 5a
        E 0 9f 34 5a
        E 1152 82 4c 64
        E 0 83 3b 64
        E 0 8f 34 64
        E 0 92 47 64
        E 0 93 3b 5a
        E 0 9f 34 5a
        E 1151 82 47 64
        E 0 83 3b 64
        E 0 8f 34 64
        E 1 92 47 64
        E 0 93 3b 5a
        E 0 98 4c 64
        E 0 9f 34 5a
        E 1152 82 47 64
        E 0 83 3b 64
        E 0 88 4c 64
        E 0 8f 34 64
        E 0 92 47 64
        E 1 93 3b 5a
        E 0 98 50 64
        E 0 9f 34 5a
        E 1151 82 47 64
        E 0 83 3b 64
        E 0 88 50 64
        E 0 8f 34 64
        E 0 92 53 64
        E 0 93 3b 5a
        E 0 98 4e 64
        E 0 9f 2f 5a
        E 575 82 53 64
        E 0 88 4e 64
        E 0 92 51 64
        E 0 98 4b 64
        E 577 82 51 64
        E 0 83 3b 64
        E 0 88 4b 64
        E 0 8f 2f 64
        E 0 92 4b 64
        E 0 93 3b 5a
        E 0 98 47 64
        E 0 9f 2f 5a
        E 575 82 4b 64
        E 0 92 4e 64
        E 578 82 4e 64
        E 0 83 3b 64
        E 0 88 47 64
        E 0 8f 2f 64
        E 0 92 45 64
        E 0 93 3b 5a
        E 0 98 45 64
        E 0 9f 2f 5a
        E 574 82 45 64
        E 0 92 49 64
        E 575 82 49 64
        E 1 83 3b 64
        E 0 8f 2f 64
        E 0 92 42 64
        E 0 93 3b 5a
        E 0 9f 2f 5a
        E 576 82 42 64
        E 0 92 45 64
        E 578 82 45 64
        E 0 83 3b 64
        E 0 88 45 64
        E 0 8f 2f 64
        E 0 92 42 64
        E 0 93 3b 5a
        E 0 98 45 64
        E 0 9f 2f 5a
        E 1149 83 3b 64
        E 1 88 45 64
        E 0 8f 2f 64
        E 0 93 3b 5a
        E 0 98 4b 64
        E 0 9f 2f 5a
        E 1152 82 42 64
        E 0 83 3b 64
        E 0 88 4b 64
        E 0 8f 2f 64
        E 0 92 51 64
        E 0 93 3b 5a
        E 0 98 4e 64
        E 0 9f 2f 5a
        E 1152 83 3b 64
        E 0 88 4e 64
        E 0 8f 2f 64
        E 0 93 3b 5a
        E 1 98 45 64
        E 0 9f 2f 5a
        E 575 82 51 64
        E 0 92 50 64
        E 290 82 50 64
        E 0 92 4e 64
        E 287 82 4e 64
        E 0 83 3b 64
        E 0 88 45 64
        E 0 8f 2f 64
        E 0 92 50 64
        E 0 93 3b 5a
        E 0 98 44 64
        E 0 9f 34 5a
        E 576 82 50 64
        E 0 88 44 64
        E 3 92 53 64
        E 0 98 42 64
        E 572 82 53 64
        E 0 83 3b 64
        E 0 88 42 64
        E 0 8f 34 64
        E 0 92 4c 64
        E 1 93 3b 5a
        E 0 98 40 64
        E 0 9f 34 5a
        E 574 82 4c 64
        E 0 92 50 64
        E 578 82 50 64
        E 0 83 3b 64
        E 0 88 40 64
        E 0 8f 34 64
        E 0 92 47 64
        E 0 93 3b 5a
        E 0 9f 34 5a
        E 576 82 47 64
        E 0 92 4c 64
        E 575 82 4c 64
        E 0 83 3b 64
        E 0 8f 34 64
        E 0 92 44 64
        E 0 93 3b 5a
        E 0 98 47 64
        E 0 9f 34 5a
        E 576 82 44 64
        E 0 88 47 64
        E 0 92 47 64
        E 1 98 4c 64
        E 575 82 47 64
        E 0 83 3b 64
        E 0 88 4c 64
        E 0 8f 34 64
        E 0 92 3e 64
        E 0 93 38 5a
        E 0 98 4a 64
        E 0 9f 34 5a
        E 1154 83 38 64
        E 0 88 4a 64
        E 0 8f 34 64
        E 0 93 38 5a
        E 0 98 47 64
        E 0 9f 34 5a
        E 1150 82 3e 64
        E 0 83 38 64
        E 0 88 47 64
        E 0 8f 34 64
        E 0 92 4a 64
        E 0 93 38 5a
        E 0 98 40 64
        E 0 9f 34 5a
        E 1154 83 38 64
        E 0 88 40 64
        E 0 8f 34 64
        E 0 93 38 5a
        E 0 98 4a 64
        E 0 9f 34 5a
        E 575 82 4a 64
        E 0 92 49 64
        E 289 82 49 64
        E 0 92 47 64
        E 285 82 47 64
        E 0 83 38 64
        E 0 88 4a 64
        E 0 8f 34 64
        E 0 92 49 64
        E 0 93 40 5a
        E 0 98 49 64
        E 0 9f 2d 5a
        E 290 82 49 64
        E 0 92 49 64
        E 286 82 49 64
        E 0 88 49 64
        E 0 92 4a 64
        E 0 98 47 64
        E 288 82 4a 64
        E 0 92 4c 64
        E 289 82 4c 64
        E 0 83 40 64
        E 0 88 47 64
        E 0 8f 2d 64
        E 0 92 45 64
        E 0 93 40 5a
        E 0 98 45 64
        E 0 9f 2d 5a
        E 287 82 45 64
        E 0 92 4c 64
        E 288 82 4c 64
        E 0 92 4e 64
        E 289 82 4e 64
        E 0 92 50 64
        E 288 82 50 64
        E 0 83 40 64
        E 0 88 45 64
        E 0 8f 2d 64
        E 0 92 49 64
        E 0 93 40 5a
        E 0 9f 2d 5a
        E 288 82 49 64
        E 0 92 49 64
        E 288 82 49 64
        E 0 92 4a 64
        E 288 82 4a 64
        E 1 92 4c 64
        E 288 82 4c 64
        E 0 83 40 64
        E 0 8f 2d 64
        E 0 92 45 64
        E 1 93 3d 5a
        E 0 98 45 64
        E 0 9f 2d 5a
        E 287 82 45 64
        E 1 92 4c 64
        E 286 82 4c 64
        E 0 88 45 64
        E 1 92 4e 64
        E 0 98 40 64
        E 287 82 4e 64
        E 1 92 4f 64
        E 287 82 4f 64
        E 0 83 3d 64
        E 0 88 40 64
        E 0 8f 2d 64
        E 0 92 4e 64
        E 0 93 39 5a
        E 0 98 42 64
        E 0 9f 32 5a
        E 578 82 4e 64
        E 0 92 51 64
        E 574 82 51 64
        E 0 83 39 64
        E 0 8f 32 64
        E 0 92 4a 64
        E 0 93 39 5a
        E 0 9f 32 5a
        E 575 82 4a 64
        E 0 92 4e 64
        E 579 82 4e 64
        E 0 83 39 64
        E 0 88 42 64
        E 0 8f 32 64
        E 0 92 47 64
        E 0 93 3e 5a
        E 0 98 42 64
        E 0 9f 32 5a
        E 575 88 42 64
        E 0 98 4a 64
        E 575 82 47 64
        E 0 83 3e 64
        E 0 88 4a 64
        E 0 8f 32 64
        E 0 92 47 64
        E 0 93 3e 5a
        E 0 98 47 64
        E 0 9f 32 5a
        E 576 88 47 64
        E 0 98 45 64
        E 576 82 47 64
        E 0 83 3e 64
        E 0 88 45 64
        E 0 8f 32 64
        E 0 92 50 64
        E 0 93 3b 5a
        E 0 98 44 64
        E 0 9f 34 5a
        E 576 82 50 64
        E 0 92 53 64
        E 577 82 53 64
        E 0 83 3b 64
        E 0 8f 34 64
        E 0 92 4c 64
        E 0 93 3b 5a
        E 0 9f 34 5a
        E 576 82 4c 64
        E 0 92 50 64
        E 576 82 50 64
        E 0 83 3b 64
        E 0 88 44 64
        E 0 8f 34 64
        E 0 92 49 64
        E 0 93 40 5a
        E 0 98 44 64
        E 0 9f 34 5a
        E 574 88 44 64
        E 0 98 4c 64
        E 577 82 49 64
        E 0 83 40 64
        E 0 88 4c 64
        E 0 8f 34 64
        E 0 92 49 64
        E 0 93 40 5a
        E 1 98 49 64
        E 0 9f 34 5a
        E 574 88 49 64
        E 0 98 47 64
        E 577 82 49 64
        E 0 83 40 64
        E 0 88 47 64
        E 0 8f 34 64
        E 0 92 51 64
        E 0 93 3d 5a
        E 0 98 45 64
        E 0 9f 36 5a
        E 575 82 51 64
        E 0 92 55 64
        E 577 82 55 64
        E 0 83 3d 64
        E 0 8f 36 64
        E 0 92 4e 64
        E 0 93 3d 5a
        E 0 9f 36 5a
        E 575 82 4e 64
        E 0 92 51 64
        E 577 82 51 64
        E 0 83 3d 64
        E 0 88 45 64
        E 0 8f 36 64
        E 0 92 4a 64
        E 0 93 42 5a
        E 0 98 45 64
        E 0 9f 36 5a
        E 575 88 45 64
        E 0 98 4e 64
        E 579 82 4a 64
        E 0 83 42 64
        E 0 88 4e 64
        E 0 8f 36 64
        E 1 92 4a 64
        E 1 93 42 5a
        E 5 98 4a 64
        E 0 9f 36 5a
        E 566 88 4a 64
        E 0 98 49 64
        E 578 82 4a 64
        E 0 83 42 64
        E 0 88 49 64
        E 0 8f 36 64
        E 0 92 53 64
        E 0 93 3e 5a
        E 0 98 47 64
        E 0 9f 38 5a
        E 576 82 53 64
        E 1 92 56 64
        E 575 82 56 64
        E 0 83 3e 64
        E 0 8f 38 64
        E 0 92 50 64
        E 1 93 3e 5a
        E 0 9f 38 5a
        E 574 82 50 64
        E 0 92 53 64
        E 575 82 53 64
        E 0 83 3e 64
        E 0 88 47 64
        E 0 8f 38 64
        E 0 92 4c 64
        E 0 93 44 5a
        E 0 98 47 64
        E 0 9f 38 5a
        E 576 88 47 64
        E 0 98 50 64
        E 578 82 4c 64
        E 0 83 44 64
        E 0 88 50 64
        E 0 8f 38 64
        E 0 92 4c 64
        E 0 93 44 5a
        E 0 98 4c 64
        E 1 9f 38 5a
        E 574 88 4c 64
        E 0 98 4a 64
        E 576 82 4c 64
        E 0 83 44 64
        E 0 88 4a 64
        E 0 8f 38 64
        E 0 92 4c 64
        E 1 93 40 5a
        E 0 98 49 64
        E 0 9f 39 5a
        E 576 88 49 64
        E 0 98 47 64
        E 575 82 4c 64
        E 0 83 40 64
        E 0 88 47 64
        E 0 8f 39 64
        E 0 92 4c 64
        E 0 93 44 5a
        E 0 98 45 64
        E 0 9f 34 5a
        E 577 88 45 64
        E 0 98 44 64
        E 574 82 4c 64
        E 0 83 44 64
        E 0 88 44 64
        E 0 8f 34 64
        E 0 92 4a 64
        E 0 93 42 5a
        E 0 98 45 64
        E 0 9f 36 5a
        E 1153 82 4a 64
        E 0 83 42 64
        E 0 88 45 64
        E 0 8f 36 64
        E 0 92 4a 64
        E 0 93 40 5a
        E 0 98 4a 64
        E 0 9f 2c 5a
        E 1153 82 4a 64
        E 0 83 40 64
        E 0 88 4a 64
        E 0 8f 2c 64
        E 0 92 49 64
        E 0 93 40 5a
        E 0 98 49 64
        E 0 9f 2d 5a
        E 1152 82 49 64
        E 0 83 40 64
        E 0 88 49 64
        E 0 8f 2d 64
        E 0 92 49 64
        E 0 93 40 5a
        E 0 98 47 64
        E 0 9f 39 5a
        E 575 88 47 64
        E 0 98 45 64
        E 576 82 49 64
        E 0 83 40 64
        E 0 88 45 64
        E 0 8f 39 64
        E 0 92 47 64
        E 0 93 40 5a
        E 0 98 47 64
        E 0 9f 34 5a
        E 1152 82 47 64
        E 0 83 40 64
        E 0 8f 34 64
        E 0 92 47 64
        E 0 93 40 5a
        E 0 9f 28 5a
        E 1152 82 47 64
        E 0 83 40 64
        E 0 88 47 64
        E 0 8f 28 64
        E 0 92 49 64
        E 0 93 40 5a
        E 0 98 45 64
        E 0 9f 39 5a
        E 289 82 49 64
        E 1 92 4c 64
        E 286 82 4c 64
        E 0 8f 39 64
        E 0 92 4e 64
        E 0 9f 34 5a
        E 288 82 4e 64
        E 0 92 50 64
        E 290 82 50 64
        E 0 83 40 64
        E 0 8f 34 64
        E 0 92 51 64
        E 0 93 40 5a
        E 0 9f 31 5a
        E 286 82 51 64
        E 0 92 49 64
        E 289 82 49 64
        E 0 8f 31 64
        E 0 92 47 64
        E 0 9f 32 5a
        E 286 82 47 64
        E 1 92 45 64
        E 288 82 45 64
        E 0 83 40 64
        E 0 88 45 64
        E 0 8f 32 64
        E 1 92 44 64
        E 0 93 3b 5a
        E 0 9f 34 5a
        E 286 82 44 64
        E 0 92 47 64
        E 289 82 47 64
        E 0 8f 34 64
        E 0 92 4c 64
        E 1 9f 36 5a
        E 288 82 4c 64
        E 1 92 50 64
        E 287 82 50 64
        E 0 83 3b 64
        E 0 8f 36 64
        E 0 92 53 64
        E 0 93 40 5a
        E 0 98 4c 64
        E 0 9f 38 5a
        E 575 82 53 64
        E 0 8f 38 64
        E 0 9f 34 5a
        E 577 83 40 64
        E 0 88 4c 64
        E 0 8f 34 64
        E 0 92 49 64
        E 0 93 40 5a
        E 0 98 40 64
        E 0 9f 39 5a
        E 288 82 49 64
        E 0 92 4c 64
        E 287 82 4c 64
        E 0 8f 39 64
        E 0 92 4e 64
        E 0 9f 34 5a
        E 288 82 4e 64
        E 0 92 50 64
        E 287 82 50 64
        E 0 83 40 64
        E 0 8f 34 64
        E 0 92 51 64
        E 0 93 40 5a
        E 1 9f 31 5a
        E 289 82 51 64
        E 0 92 49 64
        E 287 82 49 64
        E 0 8f 31 64
        E 0 92 47 64
        E 0 9f 32 5a
        E 287 82 47 64
        E 2 92 45 64
        E 286 82 45 64
        E 1 83 40 64
        E 1 8f 32 64
        E 2 92 44 64
        E 1 93 40 5a
        E 0 9f 34 5a
        E 283 82 44 64
        E 0 92 47 64
        E 289 82 47 64
        E 0 8f 34 64
        E 0 92 4c 64
        E 0 9f 36 5a
        E 287 82 4c 64
        E 0 92 50 64
        E 291 82 50 64
        E 0 83 40 64
        E 0 88 40 64
        E 0 8f 36 64
        E 0 92 53 64
        E 0 93 40 5a
        E 0 98 4a 64
        E 0 9f 38 5a
        E 574 82 53 64
        E 0 8f 38 64
        E 0 9f 34 5a
        E 577 83 40 64
        E 0 88 4a 64
        E 0 8f 34 64
        E 0 92 49 64
        E 0 93 40 5a
        E 0 98 49 64
        E 0 9f 39 5a
        E 1151 83 40 64
        E 0 8f 39 64
        E 0 93 40 5a
        E 0 9f 2d 5a
        E 1153 82 49 64
        E 0 83 40 64
        E 0 88 49 64
        E 0 8f 2d 64
        E 0 92 47 64
        E 0 93 40 5a
        E 0 98 47 64
        E 0 9f 34 5a
        E 1151 83 40 64
        E 0 8f 34 64
        E 0 93 40 5a
        E 0 9f 28 5a
        E 1152 82 47 64
        E 0 83 40 64
        E 0 88 47 64
        E 0 8f 28 64
        E 0 92 45 64
        E 0 93 3d 5a
        E 0 98 45 64
        E 0 9f 2d 5a
        E 1153 82 45 64
        E 0 83 3d 64
        E 0 8f 2d 64
        E 0 92 4c 64
        E 0 93 3e 5a
        E 0 9f 2f 5a
        E 1152 82 4c 64
        E 0 83 3e 64
        E 0 8f 2f 64
        E 1 92 51 64
        E 0 93 40 5a
        E 0 9f 31 5a
        E 1151 83 40 64
        E 0 8f 31 64
        E 0 93 3d 5a
        E 0 9f 2d 5a
        E 1151 82 51 64
        E 0 83 3d 64
        E 0 88 45 64
        E 0 8f 2d 64
        E 0 92 51 64
        E 287 82 51 64
        E 0 92 51 64
        E 290 82 51 64
        E 0 92 50 64
        E 288 82 50 64
        E 1 92 51 64
        E 286 82 51 64
        E 0 92 49 64
        E 0 93 3d 5a
        E 0 9f 2d 5a
        E 287 82 49 64
        E 0 92 49 64
        E 290 82 49 64
        E 1 92 4a 64
        E 287 82 4a 64
        E 0 92 4c 64
        E 289 82 4c 64
        E 0 83 3d 64
        E 0 8f 2d 64
        E 0 92 4a 64
        E 0 93 42 5a
        E 0 9f 32 5a
        E 286 82 4a 64
        E 0 92 4a 64
        E 288 82 4a 64
        E 0 92 4c 64
        E 289 82 4c 64
        E 0 92 4e 64
        E 286 82 4e 64
        E 0 83 42 64
        E 0 8f 32 64
        E 0 92 47 64
        E 0 93 40 5a
        E 0 9f 34 5a
        E 289 82 47 64
        E 0 92 47 64
        E 287 82 47 64
        E 0 92 49 64
        E 287 82 49 64
        E 0 92 4a 64
        E 290 82 4a 64
        E 0 83 40 64
        E 0 8f 34 64
        E 0 92 49 64
        E 0 93 40 5a
        E 0 9f 2d 5a
        E 576 82 49 64
        E 0 92 45 64
        E 576 82 45 64
        E 0 83 40 64
        E 0 8f 2d 64
        E 0 92 50 64
        E 0 93 40 5a
        E 0 9f 34 5a
        E 576 82 50 64
        E 0 92 51 64
        E 576 82 51 64
        E 0 83 40 64
        E 0 8f 34 64
        E 0 92 49 64
        E 0 93 40 5a
        E 0 9f 2d 5a
        E 577 82 49 64
        E 1 92 4a 64
        E 574 82 4a 64
        E 0 83 40 64
        E 0 8f 2d 64
        E 0 92 52 64
        E 0 93 42 5a
        E 0 9f 36 5a
        E 576 82 52 64
        E 0 92 53 64
        E 575 82 53 64
        E 0 83 42 64
        E 0 8f 36 64
        E 0 92 4b 64
        E 0 93 42 5a
        E 0 9f 2f 5a
        E 577 82 4b 64
        E 0 92 4c 64
        E 575 82 4c 64
        E 0 83 42 64
        E 0 8f 2f 64
        E 0 92 54 63
        E 1 93 44 5a
        E 0 9f 38 5a
        E 576 82 54 63
        E 0 92 55 64
        E 578 82 55 64
        E 0 83 44 64
        E 0 8f 38 64
        E 0 92 4d 63
        E 0 93 44 5a
        E 0 9f 31 5a
        E 573 82 4d 63
        E 0 92 4e 64
        E 577 82 4e 64
        E 0 83 44 64
        E 0 8f 31 64
        E 1 92 55 64
        E 0 93 45 5a
        E 0 9f 39 5a
        E 577 82 55 64
        E 0 92 56 64
        E 573 82 56 64
        E 0 83 45 64
        E 0 8f 39 64
        E 0 92 50 64
        E 0 93 47 5a
        E 0 9f 34 5a
        E 290 82 50 64
        E 0 92 4c 64
        E 287 82 4c 64
        E 0 8f 34 64
        E 0 92 4e 64
        E 0 9f 32 5a
        E 287 82 4e 64
        E 0 92 50 64
        E 288 82 50 64
        E 0 83 47 64
        E 0 8f 32 64
        E 0 92 51 64
        E 0 93 40 5a
        E 1 9f 31 5a
        E 287 82 51 64
        E 1 92 49 64
        E 287 82 49 64
        E 1 8f 31 64
        E 0 92 47 64
        E 0 9f 32 5a
        E 289 82 47 64
        E 0 92 45 64
        E 288 82 45 64
        E 0 83 40 64
        E 0 8f 32 64
        E 1 92 44 64
        E 0 93 3b 5a
        E 0 9f 34 5a
        E 285 82 44 64
        E 1 92 47 64
        E 288 82 47 64
        E 0 8f 34 64
        E 0 92 4c 64
        E 0 9f 36 5a
        E 287 82 4c 64
        E 0 92 50 64
        E 289 82 50 64
        E 0 83 3b 64
        E 0 8f 36 64
        E 0 92 53 64
        E 0 93 40 5a
        E 0 9f 38 5a
        E 288 82 53 64
        E 0 92 4a 64
        E 289 82 4a 64
        E 0 8f 38 64
        E 0 92 49 64
        E 0 9f 34 5a
        E 285 82 49 64
        E 0 92 47 64
        E 289 82 47 64
        E 0 83 40 64
        E 0 8f 34 64
        E 0 92 49 64
        E 0 93 40 5a
        E 0 9f 39 5a
        E 865 82 49 64
        E 0 92 4c 64
        E 288 82 4c 64
        E 1 83 40 64
        E 0 8f 39 64
        E 0 92 51 64
        E 0 93 40 5a
        E 0 9f 2d 5a
        E 864 82 51 64
        E 0 92 45 64
        E 287 82 45 64
        E 0 83 40 64
        E 0 8f 2d 64
        E 0 92 47 64
        E 1 93 44 5a
        E 0 9f 34 5a
        E 1152 83 44 64
        E 0 8f 34 64
        E 1 93 44 5a
        E 0 9f 28 5a
        E 573 82 47 64
        E 0 92 45 64
        E 577 82 45 64
        E 0 83 44 64
        E 0 8f 28 64
        E 0 92 45 64
        E 0 93 40 5a
        E 0 9f 2d 5a
        E 1152 98 49 64
        E 2303 82 45 64
        E 0 83 40 64
        E 0 88 49 64
        E 0 8f 2d 64
        E 0 98 45 64
        E 1154 88 45 64
        E 1 98 42 64
        E 1151 88 42 64
        E 1 98 4a 64
        E 1152 88 4a 64
        E 0 92 4a 64
        E 0 93 42 5a
        E 0 98 4a 64
        E 0 9f 36 5a
        E 1149 82 4a 64
        E 0 83 42 64
        E 0 88 4a 64
        E 0 8f 36 64
        E 0 92 4a 64
        E 0 93 42 5a
        E 0 98 4a 64
        E 0 9f 36 5a
        E 1154 82 4a 64
        E 0 83 42 64
        E 0 88 4a 64
        E 0 8f 36 64
        E 0 92 4a 64
        E 0 93 42 5a
        E 0 98 4a 64
        E 0 9f 36 5a
        E 1152 82 4a 64
        E 0 83 42 64
        E 0 88 4a 64
        E 0 8f 36 64
        E 0 92 4a 64
        E 0 93 42 5a
        E 0 98 4a 64
        E 0 9f 36 5a
        E 1151 82 4a 64
        E 0 83 42 64
        E 0 88 4a 64
        E 0 8f 36 64
        E 0 92 49 64
        E 0 93 42 5a
        E 0 98 49 64
        E 0 9f 36 5a
        E 1153 82 49 64
        E 0 83 42 64
        E 0 88 49 64
        E 0 8f 36 64
        E 0 92 49 64
        E 0 93 42 5a
        E 0 98 49 64
        E 0 9f 36 5a
        E 1150 82 49 64
        E 0 83 42 64
        E 0 88 49 64
        E 0 8f 36 64
        E 0 92 49 64
        E 0 93 42 5a
        E 0 98 42 64
        E 0 9f 36 5a
        E 1154 82 49 64
        E 0 83 42 64
        E 0 88 42 64
        E 1 8f 36 64
        E 0 92 51 64
        E 0 93 49 5a
        E 0 98 51 64
        E 0 9f 36 5a
        E 1149 82 51 64
        E 0 83 49 64
        E 0 88 51 64
        E 0 8f 36 64
        E 1 92 4e 64
        E 0 93 45 5a
        E 0 98 50 64
        E 0 98 4e 64
        E 0 9f 36 5a
        E 1152 82 4e 64
        E 0 83 45 64
        E 0 88 50 64
        E 0 88 4e 64
        E 0 8f 36 64
        E 0 92 4e 64
        E 0 93 45 5a
        E 0 98 4c 64
        E 0 98 4b 64
        E 0 9f 36 5a
        E 1152 82 4e 64
        E 0 83 45 64
        E 0 88 4c 64
        E 0 88 4b 64
        E 0 8f 36 64
        E 0 92 4c 64
        E 0 93 46 5a
        E 0 98 49 64
        E 0 9f 36 5a
        E 1151 82 4c 64
        E 0 83 46 64
        E 0 88 49 64
        E 0 8f 36 64
        E 0 92 4c 64
        E 0 93 44 5a
        E 0 98 4b 64
        E 0 98 49 64
        E 0 9f 38 5a
        E 1154 82 4c 64
        E 0 83 44 64
        E 0 88 4b 64
        E 1 88 49 64
        E 0 8f 38 64
        E 0 92 4b 64
        E 0 93 44 5a
        E 0 98 48 63
        E 0 9f 38 5a
        E 1151 82 4b 64
        E 0 83 44 64
        E 0 88 48 63
        E 0 8f 38 64
        E 0 92 4e 64
        E 0 93 44 5a
        E 0 9f 38 5a
        E 289 82 4e 64
        E 0 92 4e 64
        E 285 82 4e 64
        E 0 92 50 64
        E 287 82 50 64
        E 0 92 51 64
        E 290 82 51 64
        E 0 83 44 64
        E 0 8f 38 64
        E 0 92 4b 64
        E 0 93 44 5a
        E 0 98 4b 64
        E 0 9f 38 5a
        E 287 82 4b 64
        E 0 92 4b 64
        E 290 82 4b 64
        E 0 88 4b 64
        E 0 92 4c 64
        E 0 98 4e 64
        E 288 82 4c 64
        E 0 92 4e 64
        E 287 82 4e 64
        E 1 83 44 64
        E 0 88 4e 64
        E 0 8f 38 64
        E 0 92 4c 64
        E 0 93 44 5a
        E 0 98 4c 64
        E 0 9f 31 5a
        E 1151 82 4c 64
        E 0 83 44 64
        E 0 88 4c 64
        E 0 8f 31 64
        E 0 92 4c 64
        E 0 93 44 5a
        E 1 98 4b 64
        E 0 9f 31 5a
        E 574 88 4b 64
        E 0 98 49 64
        E 578 82 4c 64
        E 0 83 44 64
        E 0 88 49 64
        E 0 8f 31 64
        E 0 92 4b 64
        E 0 93 45 5a
        E 0 98 4b 64
        E 0 9f 36 5a
        E 1151 82 4b 64
        E 0 83 45 64
        E 0 88 4b 64
        E 0 8f 36 64
        E 0 92 4b 64
        E 0 93 44 5a
        E 0 98 49 64
        E 0 9f 38 5a
        E 575 88 49 64
        E 0 98 48 63
        E 577 82 4b 64
        E 0 83 44 64
        E 0 88 48 63
        E 0 8f 38 64
        E 0 92 4c 64
        E 0 93 44 5a
        E 0 98 49 64
        E 1 9f 31 5a
        E 288 82 4c 64
        E 0 92 4c 64
        E 288 82 4c 64
        E 1 92 4e 64
        E 286 82 4e 64
        E 1 92 50 64
        E 287 82 50 64
        E 0 83 44 64
        E 0 8f 31 64
        E 0 92 50 64
        E 0 93 40 5a
        E 0 9f 31 5a
        E 287 82 50 64
        E 0 92 4c 64
        E 289 82 4c 64
        E 0 92 4e 64
        E 289 82 4e 64
        E 0 92 50 64
        E 288 82 50 64
        E 0 83 40 64
        E 0 88 49 64
        E 0 8f 31 64
        E 0 92 50 64
        E 0 93 40 5a
        E 0 9f 31 5a
        E 576 98 50 64
        E 577 82 50 64
        E 0 83 40 64
        E 0 88 50 64
        E 0 8f 31 64
        E 0 92 49 64
        E 0 93 40 5a
        E 0 98 4c 64
        E 0 9f 31 5a
        E 575 88 4c 64
        E 0 98 49 64
        E 574 82 49 64
        E 0 83 40 64
        E 0 88 49 64
        E 0 8f 31 64
        E 0 93 3f 5a
        E 0 98 45 64
        E 0 9f 36 5a
        E 288 92 4e 64
        E 289 82 4e 64
        E 0 92 50 64
        E 287 82 50 64
        E 0 92 51 64
        E 289 82 51 64
        E 0 83 3f 64
        E 0 8f 36 64
        E 0 92 51 64
        E 1 93 3f 5a
        E 0 9f 36 5a
        E 287 82 51 64
        E 0 92 4e 64
        E 288 82 4e 64
        E 0 92 50 64
        E 290 82 50 64
        E 0 92 51 64
        E 288 82 51 64
        E 0 83 3f 64
        E 0 88 45 64
        E 0 8f 36 64
        E 0 92 51 64
        E 0 93 3f 5a
        E 0 98 45 64
        E 0 9f 36 5a
        E 574 88 45 64
        E 0 98 51 64
        E 576 82 51 64
        E 0 83 3f 64
        E 0 88 51 64
        E 0 8f 36 64
        E 0 92 4b 64
        E 0 93 3f 5a
        E 0 98 4e 64
        E 0 9f 36 5a
        E 577 88 4e 64
        E 0 98 49 64
        E 577 82 4b 64
        E 0 83 3f 64
        E 0 88 49 64
        E 0 8f 36 64
        E 0 93 3f 5a
        E 0 98 48 63
        E 0 9f 38 5a
        E 286 92 4b 64
        E 288 82 4b 64
        E 0 92 4c 64
        E 288 82 4c 64
        E 0 92 4e 64
        E 288 82 4e 64
        E 0 83 3f 64
        E 0 8f 38 64
        E 0 92 4e 64
        E 0 93 3f 5a
        E 0 9f 38 5a
        E 288 82 4e 64
        E 0 92 4b 64
        E 287 82 4b 64
        E 0 92 4c 64
        E 287 82 4c 64
        E 0 92 4e 64
        E 290 82 4e 64
        E 0 83 3f 64
        E 0 88 48 63
        E 0 8f 38 64
        E 0 92 4e 64
        E 0 93 3c 59
        E 0 98 48 63
        E 0 9f 38 5a
        E 577 88 48 63
        E 0 98 44 64
        E 575 82 4e 64
        E 0 83 3c 63
        E 0 88 44 64
        E 0 8f 38 64
        E 0 92 4b 64
        E 0 93 3c 59
        E 1 98 48 63
        E 0 9f 38 5a
        E 575 88 48 63
        E 0 98 4e 64
        E 575 82 4b 64
        E 0 83 3c 63
        E 0 88 4e 64
        E 0 8f 38 64
        E 0 92 4c 64
        E 0 93 38 5a
        E 0 98 4c 64
        E 0 9f 31 5a
        E 287 82 4c 64
        E 1 92 4c 64
        E 287 82 4c 64
        E 0 88 4c 64
        E 1 92 4e 64
        E 0 98 4b 64
        E 289 82 4e 64
        E 0 92 50 64
        E 287 82 50 64
        E 0 83 38 64
        E 0 88 4b 64
        E 0 8f 31 64
        E 0 92 49 64
        E 0 93 38 5a
        E 0 98 49 64
        E 0 9f 31 5a
        E 290 82 49 64
        E 0 92 49 64
        E 286 82 49 64
        E 1 92 4b 64
        E 289 82 4b 64
        E 1 92 4c 64
        E 285 82 4c 64
        E 0 83 38 64
        E 0 88 49 64
        E 0 8f 31 64
        E 0 92 44 64
        E 0 93 38 5a
        E 0 98 44 64
        E 0 9f 31 5a
        E 288 82 44 64
        E 0 92 4c 64
        E 289 82 4c 64
        E 0 92 4e 64
        E 288 82 4e 64
        E 0 92 50 64
        E 288 82 50 64
        E 0 83 38 64
        E 0 8f 31 64
        E 0 92 49 64
        E 0 93 38 5a
        E 0 9f 31 5a
        E 287 82 49 64
        E 0 92 49 64
        E 288 82 49 64
        E 0 92 4b 64
        E 288 82 4b 64
        E 0 92 4c 64
        E 288 82 4c 64
        E 0 83 38 64
        E 0 88 44 64
        E 0 8f 31 64
        E 0 92 44 64
        E 0 93 38 5a
        E 0 98 44 64
        E 0 9f 2c 5a
        E 1153 82 44 64
        E 0 83 38 64
        E 0 88 44 64
        E 0 8f 2c 64
        E 0 92 49 64
        E 0 93 38 5a
        E 0 98 40 64
        E 0 9f 2c 5a
        E 576 88 40 64
        E 1 98 49 64
        E 574 83 38 64
        E 0 88 49 64
        E 0 8f 2c 64
        E 0 93 38 5a
        E 0 98 4c 64
        E 0 9f 2c 5a
        E 1153 82 49 64
        E 0 83 38 64
        E 0 88 4c 64
        E 0 8f 2c 64
        E 0 92 48 63
        E 1 93 38 5a
        E 0 98 4b 64
        E 0 9f 2c 5a
        E 1153 82 48 63
        E 0 83 38 64
        E 0 88 4b 64
        E 0 8f 2c 64
        E 0 92 49 64
        E 0 93 38 5a
        E 0 98 49 64
        E 0 9f 31 5a
        E 1149 83 38 64
        E 1 8f 31 64
        E 0 93 38 5a
        E 0 9f 31 5a
        E 1151 82 49 64
        E 0 83 38 64
        E 0 88 49 64
        E 0 8f 31 64
        E 1 92 50 64
        E 0 93 38 5a
        E 0 98 50 64
        E 0 9f 30 59
        E 1152 83 38 64
        E 0 8f 30 63
        E 0 93 38 5a
        E 1 9f 30 59
        E 1150 82 50 64
        E 1 83 38 64
        E 0 88 50 64
        E 0 8f 30 63
        E 0 92 4c 64
        E 0 93 38 5a
        E 0 98 4c 64
        E 0 9f 31 5a
        E 1152 83 38 64
        E 0 88 4c 64
        E 0 8f 31 64
        E 0 93 38 5a
        E 1 98 4b 64
        E 0 9f 31 5a
        E 576 88 4b 64
        E 0 98 49 64
        E 576 82 4c 64
        E 0 83 38 64
        E 0 88 49 64
        E 0 8f 31 64
        E 0 92 4b 64
        E 0 93 38 5a
        E 0 98 4b 64
        E 1 9f 2c 5a
        E 1148 83 38 64
        E 0 8f 2c 64
        E 1 93 38 5a
        E 0 9f 2c 5a
        E 1153 82 4b 64
        E 0 83 38 64
        E 0 88 4b 64
        E 0 8f 2c 64
        E 0 92 49 64
        E 0 93 38 5a
        E 0 98 49 64
        E 1 9f 31 5a
        E 6911 82 49 64
        E 0 83 38 64
        E 0 88 49 64
        E 0 8f 31 64
        E 3456 92 40 64
        E 1152 82 40 64
        E 0 92 45 64
        E 0 93 3d 5a
        E 0 9f 2d 5a
        E 1153 82 45 64
        E 0 83 3d 64
        E 0 8f 2d 64
        E 0 92 44 64
        E 0 93 40 5a
        E 0 9f 39 5a
        E 575 82 44 64
        E 0 92 45 64
        E 575 82 45 64
        E 0 83 40 64
        E 0 8f 39 64
        E 0 92 47 64
        E 0 93 40 5a
        E 0 9f 38 5a
        E 1154 82 47 64
        E 0 83 40 64
        E 0 8f 38 64
        E 0 92 49 64
        E 0 93 44 5a
        E 0 9f 34 5a
        E 574 82 49 64
        E 0 92 4a 64
        E 576 82 4a 64
        E 0 83 44 64
        E 0 8f 34 64
        E 0 92 49 64
        E 0 93 40 5a
        E 1 9f 2d 5a
        E 1152 82 49 64
        E 0 8f 2d 64
        E 0 92 47 64
        E 0 9f 2f 5a
        E 1152 82 47 64
        E 0 8f 2f 64
        E 1 92 45 64
        E 0 9f 31 5a
        E 1150 82 45 64
        E 0 83 40 64
        E 0 8f 31 64
        E 0 92 4e 64
        E 0 93 4a 5a
        E 0 9f 2c 5a
        E 1153 82 4e 64
        E 0 83 4a 64
        E 0 8f 2c 64
        E 0 92 4c 64
        E 0 93 49 5a
        E 0 9f 2d 5a
        E 1151 82 4c 64
        E 0 83 49 64
        E 1 8f 2d 64
        E 0 92 4a 64
        E 0 93 40 5a
        E 0 9f 39 5a
        E 577 82 4a 64
        E 0 92 49 64
        E 576 82 49 64
        E 0 83 40 64
        E 0 8f 39 64
        E 0 92 4a 64
        E 0 93 42 5a
        E 0 9f 32 5a
        E 1152 82 4a 64
        E 0 83 42 64
        E 0 8f 32 64
        E 0 92 49 64
        E 0 93 40 5a
        E 0 9f 34 5a
        E 577 82 49 64
        E 0 92 47 64
        E 574 82 47 64
        E 0 83 40 64
        E 0 8f 34 64
        E 0 92 49 64
        E 1 93 40 5a
        E 0 9f 2d 5a
        E 1151 82 49 64
        E 0 8f 2d 64
        E 0 92 47 64
        E 0 9f 2f 5a
        E 1151 82 47 64
        E 0 8f 2f 64
        E 0 92 45 64
        E 0 9f 31 5a
        E 1152 82 45 64
        E 0 83 40 64
        E 0 8f 31 64
        E 1 92 4e 64
        E 0 93 4a 5a
        E 0 9f 2c 5a
        E 1153 82 4e 64
        E 0 83 4a 64
        E 0 8f 2c 64
        E 0 92 4c 64
        E 1 93 49 5a
        E 0 9f 2d 5a
        E 1150 82 4c 64
        E 0 83 49 64
        E 0 8f 2d 64
        E 1 92 4a 64
        E 0 93 40 5a
        E 0 9f 39 5a
        E 575 82 4a 64
        E 0 92 49 64
        E 576 82 49 64
        E 0 83 40 64
        E 0 8f 39 64
        E 0 92 4a 64
        E 0 93 42 5a
        E 0 9f 32 5a
        E 1153 82 4a 64
        E 0 83 42 64
        E 0 8f 32 64
        E 0 92 49 64
        E 0 93 40 5a
        E 1 9f 34 5a
        E 573 82 49 64
        E 0 92 47 64
        E 577 82 47 64
        E 0 83 40 64
        E 0 8f 34 64
        E 0 92 49 64
        E 0 93 40 5a
        E 0 9f 2d 5a
        E 1151 82 49 64
        E 0 8f 2d 64
        E 0 92 47 64
        E 0 9f 2f 5a
        E 1154 82 47 64
        E 0 8f 2f 64
        E 0 92 45 64
        E 2 9f 31 5a
        E 1149 82 45 64
        E 0 83 40 64
        E 0 8f 31 64
        E 0 92 4c 64
        E 0 93 45 5a
        E 0 9f 2f 5a
        E 1152 82 4c 64
        E 0 83 45 64
        E 0 8f 2f 64
        E 0 92 51 64
        E 0 93 49 5a
        E 0 9f 2d 5a
        E 1152 82 51 64
        E 0 83 49 64
        E 0 8f 2d 64
        E 0 92 50 64
        E 1 93 45 5a
        E 0 9f 3e 5a
        E 575 82 50 64
        E 0 92 4e 64
        E 577 82 4e 64
        E 0 83 45 64
        E 0 8f 3e 64
        E 0 92 4c 64
        E 0 93 47 5a
        E 0 9f 38 5a
        E 1151 82 4c 64
        E 0 83 47 64
        E 0 8f 38 64
        E 0 92 4a 64
        E 0 93 44 5a
        E 0 9f 34 5a
        E 1151 82 4a 64
        E 0 83 44 64
        E 0 8f 34 64
        E 0 92 49 64
        E 0 93 40 5a
        E 0 9f 39 5a
        E 1152 82 49 64
        E 0 83 40 64
        E 0 8f 39 64
        E 0 92 47 64
        E 1 93 40 5a
        E 0 9f 31 5a
        E 577 82 47 64
        E 0 92 45 64
        E 575 82 45 64
        E 0 83 40 64
        E 0 8f 31 64
        E 0 92 47 64
        E 1 93 42 5a
        E 0 9f 32 5a
        E 1152 82 47 64
        E 0 83 42 64
        E 0 8f 32 64
        E 0 92 45 64
        E 0 93 3b 5a
        E 0 9f 34 5a
        E 576 82 45 64
        E 0 92 44 64
        E 577 82 44 64
        E 0 83 3b 64
        E 0 8f 34 64
        E 0 92 45 64
        E 0 93 3d 5a
        E 0 9f 2d 5a
        E 2303 82 45 64
        E 0 83 3d 64
        E 1 8f 2d 64
        E 5759 92 40 64
        E 0 94 40 64
        E 1151 82 40 64
        E 0 84 40 64
        E 0 92 45 64
        E 0 93 3d 5a
        E 0 94 45 64
        E 0 9f 2d 5a
        E 1153 82 45 64
        E 1 83 3d 64
        E 0 84 45 64
        E 0 8f 2d 64
        E 0 92 44 64
        E 0 93 3d 5a
        E 0 94 44 64
        E 0 9f 39 5a
        E 574 82 44 64
        E 0 84 44 64
        E 0 92 45 64
        E 0 94 45 64
        E 577 82 45 64
        E 0 83 3d 64
        E 0 84 45 64
        E 0 8f 39 64
        E 0 92 47 64
        E 0 93 40 5a
        E 0 94 47 64
        E 0 9f 38 5a
        E 1151 82 47 64
        E 0 83 40 64
        E 0 84 47 64
        E 0 8f 38 64
        E 0 92 49 64
        E 0 93 44 5a
        E 0 94 49 64
        E 0 9f 34 5a
        E 577 82 49 64
        E 0 84 49 64
        E 0 92 4a 64
        E 0 94 4a 64
        E 576 82 4a 64
        E 0 83 44 64
        E 0 84 4a 64
        E 0 8f 34 64
        E 0 92 49 64
        E 0 93 40 5a
        E 0 94 49 64
        E 0 9f 2d 5a
        E 1151 82 49 64
        E 0 84 49 64
        E 0 8f 2d 64
        E 0 92 47 64
        E 0 94 47 64
        E 0 9f 2f 5a
        E 1153 82 47 64
        E 0 84 47 64
        E 1 8f 2f 64
        E 0 92 45 64
        E 0 94 45 64
        E 0 9f 31 5a
        E 1149 82 45 64
        E 0 83 40 64
        E 0 84 45 64
        E 0 8f 31 64
        E 0 92 4a 64
        E 0 93 47 5a
        E 0 94 4a 64
        E 0 9f 2c 5a
        E 1155 82 4a 64
        E 0 83 47 64
        E 0 84 4a 64
        E 0 8f 2c 64
        E 0 92 49 64
        E 0 93 40 5a
        E 0 94 49 64
        E 0 9f 2d 5a
        E 1150 82 49 64
        E 0 84 49 64
        E 0 8f 2d 64
        E 1 92 44 64
        E 0 94 44 64
        E 0 9f 34 5a
        E 1152 82 44 64
        E 0 83 40 64
        E 0 84 44 64
        E 0 8f 34 64
        E 0 92 45 64
        E 0 93 40 5a
        E 0 94 45 64
        E 0 9f 31 5a
        E 1150 82 45 64
        E 1 83 40 64
        E 0 84 45 64
        E 0 8f 31 64
        E 0 92 4c 64
        E 0 93 47 5a
        E 0 94 4c 64
        E 0 9f 2c 5a
        E 1151 82 4c 64
        E 1 83 47 64
        E 0 84 4c 64
        E 0 8f 2c 64
        E 0 92 49 64
        E 0 93 40 5a
        E 0 94 49 64
        E 0 9f 2d 5a
        E 1152 82 49 64
        E 0 83 40 64
        E 0 84 49 64
        E 0 8f 2d 64
        E 0 92 47 64
        E 0 93 40 5a
        E 0 94 47 64
        E 0 9f 39 5a
        E 576 82 47 64
        E 0 84 47 64
        E 0 92 45 64
        E 0 94 45 64
        E 576 82 45 64
        E 0 83 40 64
        E 0 84 45 64
        E 0 8f 39 64
        E 0 92 47 64
        E 0 93 42 5a
        E 0 94 47 64
        E 0 9f 32 5a
        E 1151 82 47 64
        E 0 83 42 64
        E 0 84 47 64
        E 0 8f 32 64
        E 0 92 45 64
        E 0 93 40 5a
        E 0 94 45 64
        E 0 9f 34 5a
        E 578 82 45 64
        E 0 84 45 64
        E 1 92 44 64
        E 0 94 44 64
        E 575 82 44 64
        E 0 83 40 64
        E 0 84 44 64
        E 0 8f 34 64
        E 0 92 45 64
        E 0 93 3d 5a
        E 0 94 45 64
        E 0 9f 2d 5a
        E 2304 82 45 64
        E 0 83 3d 64
        E 0 84 45 64
        E 0 8f 2d 64
        E 1151 92 3d 64
        E 0 93 39 5a
        E 0 95 3d 64
        E 1154 82 3d 64
        E 0 83 39 64
        E 0 85 3d 64
        E 0 92 45 64
        E 0 93 39 5a
        E 0 95 45 64
        E 1149 82 45 64
        E 0 83 39 64
        E 0 85 45 64
        E 0 92 45 64
        E 0 93 39 5a
        E 0 95 45 64
        E 1152 82 45 64
        E 0 83 39 64
        E 1 85 45 64
        E 0 92 49 64
        E 0 93 39 5a
        E 0 95 49 64
        E 1152 82 49 64
        E 0 83 39 64
        E 0 85 49 64
        E 0 92 47 64
        E 0 93 39 5a
        E 1 95 47 64
        E 576 82 47 64
        E 0 85 47 64
        E 0 92 45 64
        E 0 95 45 64
        E 576 82 45 64
        E 0 83 39 64
        E 0 85 45 64
        E 0 92 47 64
        E 0 93 40 5a
        E 0 95 47 64
        E 1151 82 47 64
        E 0 83 40 64
        E 0 85 47 64
        E 0 92 44 64
        E 0 93 40 5a
        E 0 95 44 64
        E 1153 82 44 64
        E 0 83 40 64
        E 0 85 44 64
        E 0 92 42 64
        E 0 93 40 5a
        E 0 95 42 64
        E 1151 82 42 64
        E 0 83 40 64
        E 0 85 42 64
        E 0 92 40 64
        E 0 93 40 5a
        E 0 95 40 64
        E 1152 82 40 64
        E 0 83 40 64
        E 0 85 40 64
        E 0 92 47 64
        E 0 93 40 5a
        E 0 95 47 64
        E 1151 82 47 64
        E 0 83 40 64
        E 0 85 47 64
        E 0 92 47 64
        E 0 93 40 5a
        E 0 95 47 64
        E 577 82 47 64
        E 0 85 47 64
        E 1 92 49 64
        E 0 95 49 64
        E 575 82 49 64
        E 0 83 40 64
        E 0 85 49 64
        E 0 92 4a 64
        E 0 93 40 5a
        E 0 95 4a 64
        E 1152 82 4a 64
        E 0 83 40 64
        E 0 85 4a 64
        E 0 92 49 64
        E 0 93 40 5a
        E 0 95 49 64
        E 576 82 49 64
        E 0 85 49 64
        E 0 92 47 64
        E 0 95 47 64
        E 575 82 47 64
        E 0 83 40 64
        E 0 85 47 64
        E 0 92 49 64
        E 0 93 39 5a
        E 0 95 49 64
        E 577 82 49 64
        E 0 85 49 64
        E 0 92 47 64
        E 1 95 47 64
        E 574 82 47 64
        E 1 83 39 64
        E 0 85 47 64
        E 0 92 49 64
        E 0 93 39 5a
        E 0 95 45 64
        E 576 82 49 64
        E 0 92 4a 64
        E 576 82 4a 64
        E 0 83 39 64
        E 0 85 45 64
        E 0 92 4c 64
        E 0 93 39 5a
        E 1152 82 4c 64
        E 0 83 39 64
        E 0 92 45 64
        E 0 93 39 5a
        E 0 95 45 64
        E 1153 82 45 64
        E 0 83 39 64
        E 0 85 45 64
        E 0 92 45 64
        E 0 93 45 5a
        E 1 95 45 64
        E 1149 82 45 64
        E 0 83 45 64
        E 0 85 45 64
        E 0 92 45 64
        E 0 93 42 5a
        E 0 95 45 64
        E 1153 82 45 64
        E 0 83 42 64
        E 0 85 45 64
        E 0 92 45 64
        E 0 93 40 5a
        E 0 95 45 64
        E 1151 82 45 64
        E 1 83 40 64
        E 0 85 45 64
        E 0 92 45 64
        E 0 93 3f 5a
        E 0 95 45 64
        E 1153 82 45 64
        E 0 83 3f 64
        E 0 85 45 64
        E 0 92 4c 64
        E 0 93 40 5a
        E 0 95 4c 64
        E 1152 82 4c 64
        E 0 83 40 64
        E 0 85 4c 64
        E 0 92 4b 64
        E 0 93 45 5a
        E 0 95 4b 64
        E 574 82 4b 64
        E 0 85 4b 64
        E 0 92 49 64
        E 0 95 49 64
        E 576 82 49 64
        E 0 83 45 64
        E 0 85 49 64
        E 0 92 47 64
        E 0 93 3f 5a
        E 0 95 47 64
        E 1153 82 47 64
        E 0 83 3f 64
        E 0 85 47 64
        E 0 92 45 64
        E 0 93 3b 5a
        E 0 95 45 64
        E 1152 82 45 64
        E 0 83 3b 64
        E 0 85 45 64
        E 0 92 44 64
        E 0 93 40 5a
        E 0 95 44 64
        E 1153 82 44 64
        E 0 83 40 64
        E 0 85 44 64
        E 0 92 42 64
        E 1 93 38 5a
        E 0 95 42 64
        E 573 82 42 64
        E 0 85 42 64
        E 1 92 40 64
        E 0 95 40 64
        E 576 82 40 64
        E 0 83 38 64
        E 0 85 40 64
        E 1 92 42 64
        E 0 93 39 5a
        E 0 95 42 64
        E 1150 82 42 64
        E 0 83 39 64
        E 0 85 42 64
        E 0 92 40 64
        E 0 93 3b 5a
        E 0 95 40 64
        E 577 82 40 64
        E 0 85 40 64
        E 0 92 3f 64
        E 0 95 3f 64
        E 577 82 3f 64
        E 0 83 3b 64
        E 0 85 3f 64
        E 0 92 40 64
        E 0 93 34 5a
        E 0 95 40 64
        E 2302 82 40 64
        E 0 83 34 64
        E 0 85 40 64
        E 1152 92 40 64
        E 0 94 40 64
        E 1155 82 40 64
        E 0 84 40 64
        E 0 92 45 64
        E 0 93 3d 5a
        E 0 94 45 64
        E 0 9f 2d 5a
        E 1150 82 45 64
        E 0 83 3d 64
        E 0 84 45 64
        E 0 8f 2d 64
        E 0 92 44 64
        E 0 93 3d 5a
        E 0 94 44 64
        E 0 9f 39 5a
        E 578 82 44 64
        E 0 84 44 64
        E 0 92 45 64
        E 0 94 45 64
        E 575 82 45 64
        E 0 83 3d 64
        E 0 84 45 64
        E 0 8f 39 64
        E 0 92 47 64
        E 0 93 40 5a
        E 0 94 47 64
        E 0 9f 38 5a
        E 1152 82 47 64
        E 0 83 40 64
        E 0 84 47 64
        E 0 8f 38 64
        E 0 92 49 64
        E 0 93 44 5a
        E 0 94 49 64
        E 0 9f 34 5a
        E 575 82 49 64
        E 0 84 49 64
        E 0 92 4a 64
        E 0 94 4a 64
        E 576 82 4a 64
        E 0 83 44 64
        E 0 84 4a 64
        E 0 8f 34 64
        E 0 92 49 64
        E 0 93 40 5a
        E 0 94 49 64
        E 0 9f 2d 5a
        E 1153 82 49 64
        E 0 84 49 64
        E 0 8f 2d 64
        E 1 92 47 64
        E 0 94 47 64
        E 0 9f 2f 5a
        E 1150 82 47 64
        E 0 84 47 64
        E 0 8f 2f 64
        E 0 92 45 64
        E 0 94 45 64
        E 0 9f 31 5a
        E 1151 82 45 64
        E 0 83 40 64
        E 0 84 45 64
        E 0 8f 31 64
        E 0 92 4a 64
        E 0 93 47 5a
        E 0 94 4a 64
        E 0 9f 2c 5a
        E 1154 82 4a 64
        E 0 83 47 64
        E 0 84 4a 64
        E 0 8f 2c 64
        E 0 92 49 64
        E 0 93 40 5a
        E 0 94 49 64
        E 0 9f 2d 5a
        E 1150 82 49 64
        E 0 84 49 64
        E 0 8f 2d 64
        E 1 92 44 64
        E 0 94 44 64
        E 0 9f 34 5a
        E 1152 82 44 64
        E 0 83 40 64
        E 0 84 44 64
        E 0 8f 34 64
        E 0 92 45 64
        E 0 93 40 5a
        E 0 94 45 64
        E 0 9f 31 5a
        E 1152 82 45 64
        E 0 83 40 64
        E 0 84 45 64
        E 0 8f 31 64
        E 0 92 4c 64
        E 0 93 47 5a
        E 0 94 4c 64
        E 0 9f 2c 5a
        E 1152 82 4c 64
        E 0 83 47 64
        E 0 84 4c 64
        E 0 8f 2c 64
        E 0 92 49 64
        E 0 93 40 5a
        E 0 94 49 64
        E 0 9f 2d 5a
        E 1152 82 49 64
        E 0 83 40 64
        E 0 84 49 64
        E 0 8f 2d 64
        E 0 92 47 64
        E 0 93 40 5a
        E 0 94 47 64
        E 0 9f 39 5a
        E 575 82 47 64
        E 0 84 47 64
        E 0 92 45 64
        E 1 94 45 64
        E 575 82 45 64
        E 0 83 40 64
        E 0 84 45 64
        E 0 8f 39 64
        E 0 92 47 64
        E 0 93 42 5a
        E 0 94 47 64
        E 0 9f 32 5a
        E 1153 82 47 64
        E 0 83 42 64
        E 0 84 47 64
        E 0 8f 32 64
        E 0 92 45 64
        E 0 93 40 5a
        E 0 94 45 64
        E 0 9f 34 5a
        E 576 82 45 64
        E 0 84 45 64
        E 0 92 44 64
        E 0 94 44 64
        E 579 82 44 64
        E 0 83 40 64
        E 0 84 44 64
        E 0 8f 34 64
        E 0 92 45 64
        E 0 93 3d 5a
        E 0 94 45 64
        E 0 9f 2d 5a
        E 2302 82 45 64
        E 0 83 3d 64
        E 0 84 45 64
        E 0 8f 2d 64
        E 1152 92 3d 64
        E 0 93 39 5a
        E 0 95 3d 64
        E 1151 82 3d 64
        E 0 83 39 64
        E 0 85 3d 64
        E 0 92 45 64
        E 0 93 39 5a
        E 0 95 45 64
        E 1153 82 45 64
        E 0 83 39 64
        E 0 85 45 64
        E 0 92 45 64
        E 0 93 39 5a
        E 0 95 45 64
        E 1150 82 45 64
        E 1 83 39 64
        E 0 85 45 64
        E 0 92 49 64
        E 0 93 39 5a
        E 0 95 49 64
        E 1153 82 49 64
        E 0 83 39 64
        E 0 85 49 64
        E 1 92 47 64
        E 0 93 39 5a
        E 0 95 47 64
        E 574 82 47 64
        E 0 85 47 64
        E 0 92 45 64
        E 0 95 45 64
        E 578 82 45 64
        E 0 83 39 64
        E 1 85 45 64
        E 0 92 47 64
        E 0 93 40 5a
        E 0 95 47 64
        E 1151 82 47 64
        E 0 83 40 64
        E 0 85 47 64
        E 0 92 44 64
        E 0 93 40 5a
        E 0 95 44 64
        E 1152 82 44 64
        E 0 83 40 64
        E 0 85 44 64
        E 0 92 42 64
        E 0 93 40 5a
        E 0 95 42 64
        E 1150 82 42 64
        E 0 83 40 64
        E 0 85 42 64
        E 0 92 40 64
        E 0 93 40 5a
        E 0 95 40 64
        E 1154 82 40 64
        E 0 83 40 64
        E 0 85 40 64
        E 0 92 47 64
        E 0 93 40 5a
        E 0 95 47 64
        E 1148 82 47 64
        E 0 83 40 64
        E 0 85 47 64
        E 1 92 47 64
        E 0 93 40 5a
        E 0 95 47 64
        E 577 82 47 64
        E 0 85 47 64
        E 0 92 49 64
        E 0 95 49 64
        E 578 82 49 64
        E 0 83 40 64
        E 0 85 49 64
        E 0 92 4a 64
        E 0 93 40 5a
        E 0 95 4a 64
        E 1149 82 4a 64
        E 0 83 40 64
        E 0 85 4a 64
        E 0 92 49 64
        E 0 93 40 5a
        E 0 95 49 64
        E 575 82 49 64
        E 0 85 49 64
        E 1 92 47 64
        E 0 95 47 64
        E 576 82 47 64
        E 0 83 40 64
        E 0 85 47 64
        E 0 92 49 64
        E 0 93 39 5a
        E 0 95 49 64
        E 578 82 49 64
        E 0 85 49 64
        E 0 92 47 64
        E 0 95 47 64
        E 575 82 47 64
        E 0 83 39 64
        E 0 85 47 64
        E 0 92 49 64
        E 0 93 39 5a
        E 0 95 45 64
        E 578 82 49 64
        E 0 92 4a 64
        E 575 82 4a 64
        E 0 83 39 64
        E 0 85 45 64
        E 0 92 4c 64
        E 0 93 39 5a
        E 1151 82 4c 64
        E 0 83 39 64
        E 0 92 45 64
        E 0 93 39 5a
        E 0 95 45 64
        E 1151 82 45 64
        E 0 83 39 64
        E 0 85 45 64
        E 0 92 45 64
        E 0 93 45 5a
        E 0 95 45 64
        E 1154 82 45 64
        E 0 83 45 64
        E 0 85 45 64
        E 0 92 45 64
        E 0 93 42 5a
        E 0 95 45 64
        E 1150 82 45 64
        E 0 83 42 64
        E 0 85 45 64
        E 0 92 45 64
        E 0 93 40 5a
        E 0 95 45 64
        E 1153 82 45 64
        E 0 83 40 64
        E 0 85 45 64
        E 0 92 45 64
        E 0 93 3f 5a
        E 0 95 45 64
        E 1153 82 45 64
        E 0 83 3f 64
        E 0 85 45 64
        E 0 92 4c 64
        E 0 93 40 5a
        E 0 95 4c 64
        E 1150 82 4c 64
        E 0 83 40 64
        E 0 85 4c 64
        E 1 92 4b 64
        E 0 93 45 5a
        E 0 95 4b 64
        E 576 82 4b 64
        E 0 85 4b 64
        E 0 92 49 64
        E 0 95 49 64
        E 576 82 49 64
        E 0 83 45 64
        E 0 85 49 64
        E 0 92 47 64
        E 0 93 3f 5a
        E 0 95 47 64
        E 1151 82 47 64
        E 0 83 3f 64
        E 0 85 47 64
        E 1 92 45 64
        E 0 93 3b 5a
        E 0 95 45 64
        E 1152 82 45 64
        E 1 83 3b 64
        E 0 85 45 64
        E 0 92 44 64
        E 0 93 40 5a
        E 0 95 44 64
        E 1152 82 44 64
        E 0 83 40 64
        E 0 85 44 64
        E 0 92 42 64
        E 1 93 38 5a
        E 0 95 42 64
        E 575 82 42 64
        E 0 85 42 64
        E 0 92 40 64
        E 1 95 40 64
        E 573 82 40 64
        E 0 83 38 64
        E 0 85 40 64
        E 0 92 42 64
        E 0 93 39 5a
        E 0 95 42 64
        E 1152 82 42 64
        E 0 83 39 64
        E 0 85 42 64
        E 0 92 40 64
        E 0 93 3b 5a
        E 0 95 40 64
        E 576 82 40 64
        E 1 85 40 64
        E 0 92 3f 64
        E 0 95 3f 64
        E 575 82 3f 64
        E 0 83 3b 64
        E 0 85 3f 64
        E 0 92 40 64
        E 0 93 34 5a
        E 0 95 40 64
        E 2307 82 40 64
        E 0 83 34 64
        E 0 85 40 64
        E 1150 92 40 64
        E 0 94 40 64
        E 1152 82 40 64
        E 0 84 40 64
        E 0 92 45 64
        E 0 93 3d 5a
        E 0 94 45 64
        E 0 9f 2d 5a
        E 1153 82 45 64
        E 0 83 3d 64
        E 0 84 45 64
        E 0 8f 2d 64
        E 0 92 44 64
        E 1 93 3d 5a
        E 0 94 44 64
        E 0 9f 39 5a
        E 573 82 44 64
        E 1 84 44 64
        E 0 92 45 64
        E 0 94 45 64
        E 578 82 45 64
        E 0 83 3d 64
        E 0 84 45 64
        E 0 8f 39 64
        E 0 92 47 64
        E 0 93 40 5a
        E 0 94 47 64
        E 0 9f 38 5a
        E 1152 82 47 64
        E 0 83 40 64
        E 0 84 47 64
        E 0 8f 38 64
        E 0 92 49 64
        E 0 93 44 5a
        E 0 94 49 64
        E 0 9f 34 5a
        E 573 82 49 64
        E 0 84 49 64
        E 0 92 4a 64
        E 0 94 4a 64
        E 577 82 4a 64
        E 0 83 44 64
        E 0 84 4a 64
        E 0 8f 34 64
        E 0 92 49 64
        E 0 93 40 5a
        E 0 94 49 64
        E 0 9f 2d 5a
        E 1152 82 49 64
        E 0 84 49 64
        E 0 8f 2d 64
        E 0 92 47 64
        E 0 94 47 64
        E 0 9f 2f 5a
        E 1150 82 47 64
        E 0 84 47 64
        E 0 8f 2f 64
        E 0 92 45 64
        E 0 94 45 64
        E 0 9f 31 5a
        E 1156 82 45 64
        E 0 83 40 64
        E 0 84 45 64
        E 0 8f 31 64
        E 0 92 4a 64
        E 0 93 47 5a
        E 0 94 4a 64
        E 0 9f 2c 5a
        E 1150 82 4a 64
        E 0 83 47 64
        E 0 84 4a 64
        E 0 8f 2c 64
        E 0 92 49 64
        E 0 93 40 5a
        E 0 94 49 64
        E 0 9f 2d 5a
        E 1151 82 49 64
        E 0 84 49 64
        E 0 8f 2d 64
        E 0 92 44 64
        E 0 94 44 64
        E 0 9f 34 5a
        E 1154 82 44 64
        E 0 83 40 64
        E 0 84 44 64
        E 0 8f 34 64
        E 0 92 45 64
        E 0 93 40 5a
        E 0 94 45 64
        E 1 9f 31 5a
        E 1150 82 45 64
        E 0 83 40 64
        E 0 84 45 64
        E 0 8f 31 64
        E 0 92 4c 64
        E 0 93 47 5a
        E 0 94 4c 64
        E 1 9f 2c 5a
        E 1150 82 4c 64
        E 0 83 47 64
        E 0 84 4c 64
        E 1 8f 2c 64
        E 0 92 49 64
        E 0 93 40 5a
        E 0 94 49 64
        E 0 9f 2d 5a
        E 1152 82 49 64
        E 0 83 40 64
        E 0 84 49 64
        E 0 8f 2d 64
        E 0 92 47 64
        E 0 93 40 5a
        E 0 94 47 64
        E 0 9f 39 5a
        E 576 82 47 64
        E 0 84 47 64
        E 0 92 45 64
        E 0 94 45 64
        E 578 82 45 64
        E 0 83 40 64
        E 0 84 45 64
        E 0 8f 39 64
        E 0 92 47 64
        E 0 93 42 5a
        E 0 94 47 64
        E 0 9f 32 5a
        E 1151 82 47 64
        E 0 83 42 64
        E 0 84 47 64
        E 0 8f 32 64
        E 1 92 45 64
        E 1 93 40 5a
        E 0 94 45 64
        E 0 9f 34 5a
        E 572 82 45 64
        E 0 84 45 64
        E 0 92 44 64
        E 0 94 44 64
        E 576 82 44 64
        E 0 83 40 64
        E 1 84 44 64
        E 0 8f 34 64
        E 0 92 45 64
        E 0 93 3d 5a
        E 0 94 45 64
        E 0 9f 2d 5a
        E 2303 82 45 64
        E 1 83 3d 64
        E 0 84 45 64
        E 0 8f 2d 64
        E 1151 92 3d 64
        E 0 93 39 5a
        E 0 95 3d 64
        E 1152 82 3d 64
        E 0 83 39 64
        E 0 85 3d 64
        E 0 92 45 64
        E 0 93 39 5a
        E 0 95 45 64
        E 1152 82 45 64
        E 0 83 39 64
        E 1 85 45 64
        E 0 92 45 64
        E 0 93 39 5a
        E 0 95 45 64
        E 1152 82 45 64
        E 0 83 39 64
        E 0 85 45 64
        E 0 92 49 64
        E 0 93 39 5a
        E 0 95 49 64
        E 1151 82 49 64
        E 0 83 39 64
        E 0 85 49 64
        E 0 92 47 64
        E 0 93 39 5a
        E 0 95 47 64
        E 577 82 47 64
        E 0 85 47 64
        E 0 92 45 64
        E 1 95 45 64
        E 577 82 45 64
        E 0 83 39 64
        E 0 85 45 64
        E 0 92 47 64
        E 0 93 40 5a
        E 0 95 47 64
        E 1150 82 47 64
        E 0 83 40 64
        E 0 85 47 64
        E 0 92 44 64
        E 0 93 40 5a
        E 1 95 44 64
        E 1150 82 44 64
        E 0 83 40 64
        E 0 85 44 64
        E 0 92 42 64
        E 0 93 40 5a
        E 0 95 42 64
        E 1155 82 42 64
        E 0 83 40 64
        E 0 85 42 64
        E 0 92 40 64
        E 0 93 40 5a
        E 0 95 40 64
        E 1149 82 40 64
        E 0 83 40 64
        E 0 85 40 64
        E 0 92 47 64
        E 0 93 40 5a
        E 0 95 47 64
        E 1152 82 47 64
        E 0 83 40 64
        E 0 85 47 64
        E 0 92 47 64
        E 0 93 40 5a
        E 0 95 47 64
        E 578 82 47 64
        E 0 85 47 64
        E 0 92 49 64
        E 0 95 49 64
        E 575 82 49 64
        E 0 83 40 64
        E 0 85 49 64
        E 0 92 4a 64
        E 0 93 40 5a
        E 0 95 4a 64
        E 1150 82 4a 64
        E 0 83 40 64
        E 0 85 4a 64
        E 0 92 49 64
        E 0 93 40 5a
        E 0 95 49 64
        E 577 82 49 64
        E 0 85 49 64
        E 1 92 47 64
        E 0 95 47 64
        E 576 82 47 64
        E 0 83 40 64
        E 0 85 47 64
        E 0 92 49 64
        E 0 93 39 5a
        E 0 95 49 64
        E 575 82 49 64
        E 0 85 49 64
        E 0 92 47 64
        E 0 95 47 64
        E 577 82 47 64
        E 0 83 39 64
        E 0 85 47 64
        E 0 92 49 64
        E 0 93 39 5a
        E 0 95 45 64
        E 578 82 49 64
        E 0 92 4a 64
        E 574 82 4a 64
        E 0 83 39 64
        E 0 85 45 64
        E 0 92 4c 64
        E 0 93 39 5a
        E 1153 82 4c 64
        E 0 83 39 64
        E 0 92 45 64
        E 0 93 39 5a
        E 0 95 45 64
        E 1152 82 45 64
        E 0 83 39 64
        E 0 85 45 64
        E 0 92 45 64
        E 0 93 45 5a
        E 0 95 45 64
        E 1151 82 45 64
        E 0 83 45 64
        E 0 85 45 64
        E 0 92 45 64
        E 0 93 42 5a
        E 0 95 45 64
        E 1153 82 45 64
        E 0 83 42 64
        E 0 85 45 64
        E 0 92 45 64
        E 0 93 40 5a
        E 0 95 45 64
        E 1151 82 45 64
        E 0 83 40 64
        E 0 85 45 64
        E 0 92 45 64
        E 0 93 3f 5a
        E 0 95 45 64
        E 1153 82 45 64
        E 0 83 3f 64
        E 0 85 45 64
        E 0 92 4c 64
        E 1 93 40 5a
        E 0 95 4c 64
        E 1149 82 4c 64
        E 0 83 40 64
        E 0 85 4c 64
        E 0 92 4b 64
        E 0 93 45 5a
        E 0 95 4b 64
        E 577 82 4b 64
        E 1 85 4b 64
        E 0 92 49 64
        E 0 95 49 64
        E 576 82 49 64
        E 0 83 45 64
        E 0 85 49 64
        E 0 92 47 64
        E 0 93 3f 5a
        E 0 95 47 64
        E 1151 82 47 64
        E 0 83 3f 64
        E 0 85 47 64
        E 0 92 45 64
        E 1 93 3b 5a
        E 0 95 45 64
        E 1152 82 45 64
        E 1 83 3b 64
        E 0 85 45 64
        E 0 92 44 64
        E 0 93 40 5a
        E 0 95 44 64
        E 1149 82 44 64
        E 0 83 40 64
        E 0 85 44 64
        E 0 92 42 64
        E 0 93 38 5a
        E 1 95 42 64
        E 576 82 42 64
        E 0 85 42 64
        E 0 92 40 64
        E 0 95 40 64
        E 577 82 40 64
        E 0 83 38 64
        E 0 85 40 64
        E 0 92 42 64
        E 0 93 39 5a
        E 0 95 42 64
        E 1151 82 42 64
        E 0 83 39 64
        E 0 85 42 64
        E 0 92 40 64
        E 1 93 3b 5a
        E 1 95 40 64
        E 572 82 40 64
        E 0 85 40 64
        E 1 92 3f 64
        E 0 95 3f 64
        E 576 82 3f 64
        E 1 83 3b 64
        E 0 85 3f 64
        E 0 92 40 64
        E 0 93 34 5a
        E 0 95 40 64
        E 2304 82 40 64
        E 0 83 34 64
        E 0 85 40 64
        E 1154 92 40 64
        E 0 94 40 64
        E 1150 82 40 64
        E 0 84 40 64
        E 0 92 45 64
        E 0 93 3d 5a
        E 0 94 45 64
        E 0 9f 2d 5a
        E 1150 82 45 64
        E 0 83 3d 64
        E 0 84 45 64
        E 0 8f 2d 64
        E 0 92 44 64
        E 0 93 3d 5a
        E 0 94 44 64
        E 0 9f 39 5a
        E 577 82 44 64
        E 0 84 44 64
        E 1 92 45 64
        E 0 94 45 64
        E 575 82 45 64
        E 0 83 3d 64
        E 0 84 45 64
        E 0 8f 39 64
        E 0 92 47 64
        E 0 93 40 5a
        E 1 94 47 64
        E 0 9f 38 5a
        E 1154 82 47 64
        E 0 83 40 64
        E 0 84 47 64
        E 0 8f 38 64
        E 0 92 49 64
        E 0 93 44 5a
        E 0 94 49 64
        E 0 9f 34 5a
        E 574 82 49 64
        E 0 84 49 64
        E 0 92 4a 64
        E 1 94 4a 64
        E 577 82 4a 64
        E 0 83 44 64
        E 0 84 4a 64
        E 0 8f 34 64
        E 0 92 49 64
        E 0 93 40 5a
        E 0 94 49 64
        E 0 9f 2d 5a
        E 1150 82 49 64
        E 0 84 49 64
        E 0 8f 2d 64
        E 0 92 47 64
        E 0 94 47 64
        E 0 9f 2f 5a
        E 1152 82 47 64
        E 0 84 47 64
        E 0 8f 2f 64
        E 0 92 45 64
        E 0 94 45 64
        E 0 9f 31 5a
        E 1152 82 45 64
        E 0 83 40 64
        E 0 84 45 64
        E 0 8f 31 64
        E 0 92 4a 64
        E 0 93 47 5a
        E 0 94 4a 64
        E 0 9f 2c 5a
        E 1151 82 4a 64
        E 0 83 47 64
        E 0 84 4a 64
        E 0 8f 2c 64
        E 0 92 49 64
        E 0 93 40 5a
        E 0 94 49 64
        E 0 9f 2d 5a
        E 1153 82 49 64
        E 0 84 49 64
        E 0 8f 2d 64
        E 0 92 44 64
        E 0 94 44 64
        E 0 9f 34 5a
        E 1151 82 44 64
        E 0 83 40 64
        E 0 84 44 64
        E 0 8f 34 64
        E 0 92 45 64
        E 0 93 40 5a
        E 0 94 45 64
        E 0 9f 31 5a
        E 1153 82 45 64
        E 0 83 40 64
        E 0 84 45 64
        E 0 8f 31 64
        E 0 92 4c 64
        E 0 93 47 5a
        E 0 94 4c 64
        E 0 9f 2c 5a
        E 1153 82 4c 64
        E 0 83 47 64
        E 0 84 4c 64
        E 0 8f 2c 64
        E 0 92 49 64
        E 0 93 40 5a
        E 0 94 49 64
        E 0 9f 2d 5a
        E 1149 82 49 64
        E 0 83 40 64
        E 0 84 49 64
        E 0 8f 2d 64
        E 0 92 47 64
        E 0 93 40 5a
        E 0 94 47 64
        E 0 9f 39 5a
        E 580 82 47 64
        E 0 84 47 64
        E 0 92 45 64
        E 0 94 45 64
        E 573 82 45 64
        E 0 83 40 64
        E 0 84 45 64
        E 0 8f 39 64
        E 1 92 47 64
        E 0 93 42 5a
        E 0 94 47 64
        E 0 9f 32 5a
        E 1151 82 47 64
        E 0 83 42 64
        E 0 84 47 64
        E 0 8f 32 64
        E 0 92 45 64
        E 0 93 40 5a
        E 0 94 45 64
        E 0 9f 34 5a
        E 576 82 45 64
        E 0 84 45 64
        E 0 92 44 64
        E 0 94 44 64
        E 577 82 44 64
        E 0 83 40 64
        E 0 84 44 64
        E 0 8f 34 64
        E 0 92 45 64
        E 0 93 3d 5a
        E 0 94 45 64
        E 0 9f 2d 5a
        E 2304 82 45 64
        E 0 83 3d 64
        E 0 84 45 64
        E 0 8f 2d 64
        E 1153 92 3d 64
        E 1 93 39 5a
        E 0 95 3d 64
        E 1151 82 3d 64
        E 0 83 39 64
        E 0 85 3d 64
        E 0 92 45 64
        E 0 93 39 5a
        E 0 95 45 64
        E 1152 82 45 64
        E 0 83 39 64
        E 0 85 45 64
        E 0 92 45 64
        E 0 93 39 5a
        E 1 95 45 64
        E 1149 82 45 64
        E 0 83 39 64
        E 0 85 45 64
        E 0 92 49 64
        E 0 93 39 5a
        E 0 95 49 64
        E 1153 82 49 64
        E 1 83 39 64
        E 0 85 49 64
        E 0 92 47 64
        E 0 93 39 5a
        E 0 95 47 64
        E 576 82 47 64
        E 0 85 47 64
        E 1 92 45 64
        E 0 95 45 64
        E 575 82 45 64
        E 0 83 39 64
        E 0 85 45 64
        E 0 92 47 64
        E 0 93 40 5a
        E 1 95 47 64
        E 1151 82 47 64
        E 0 83 40 64
        E 0 85 47 64
        E 0 92 44 64
        E 0 93 40 5a
        E 0 95 44 64
        E 1151 82 44 64
        E 0 83 40 64
        E 0 85 44 64
        E 0 92 42 64
        E 0 93 40 5a
        E 0 95 42 64
        E 1152 82 42 64
        E 0 83 40 64
        E 0 85 42 64
        E 0 92 40 64
        E 0 93 40 5a
        E 0 95 40 64
        E 1152 82 40 64
        E 0 83 40 64
        E 0 85 40 64
        E 0 92 47 64
        E 0 93 40 5a
        E 0 95 47 64
        E 1153 82 47 64
        E 0 83 40 64
        E 0 85 47 64
        E 0 92 47 64
        E 0 93 40 5a
        E 1 95 47 64
        E 1149 82 47 64
        E 0 83 40 64
        E 0 85 47 64
        E 2305 9f 32 5a
        E 2303 95 45 64
        E 1 9e 45 64
        E 1151 85 45 64
        E 0 8e 45 64
        E 1 95 45 64
        E 0 9e 45 64
        E 577 85 45 64
        E 0 8e 45 64
        E 0 95 45 64
        E 0 9e 45 64
        E 577 85 45 64
        E 0 8e 45 64
        E 0 95 42 64
        E 0 9e 42 64
        E 1150 85 42 64
        E 0 8e 42 64
        E 0 95 42 64
        E 0 9e 42 64
        E 1154 85 42 64
        E 0 8e 42 64
        E 0 9a 45 64
        E 0 9e 45 64
        E 1149 8a 45 64
        E 0 8e 45 64
        E 0 9a 45 64
        E 1 9e 45 64
        E 576 8a 45 64
        E 0 8e 45 64
        E 0 9a 47 64
        E 0 9e 47 64
        E 576 8a 47 64
        E 0 8e 47 64
        E 0 8f 32 64
        E 0 9a 43 64
        E 0 9e 43 64
        E 0 9f 2b 5a
        E 1152 8a 43 64
        E 1 8e 43 64
        E 0 9a 43 64
        E 0 9e 43 64
        E 1152 8a 43 64
        E 0 8e 43 64
        E 1151 95 3e 64
        E 1 9e 3e 64
        E 1151 85 3e 64
        E 0 8e 3e 64
        E 0 95 43 64
        E 0 9e 43 64
        E 1152 85 43 64
        E 0 8e 43 64
        E 0 95 43 64
        E 0 9e 43 64
        E 1153 85 43 64
        E 0 8e 43 64
        E 1 95 43 64
        E 0 9e 43 64
        E 1149 85 43 64
        E 0 8e 43 64
        E 0 95 45 64
        E 0 9e 45 64
        E 1152 85 45 64
        E 0 8e 45 64
        E 0 8f 2b 64
        E 1 95 47 64
        E 0 9e 47 64
        E 0 9f 2b 5a
        E 1150 85 47 64
        E 0 8e 47 64
        E 1 95 47 64
        E 0 9e 47 64
        E 1154 85 47 64
        E 0 8e 47 64
        E 2303 95 47 64
        E 0 9e 47 64
        E 1152 85 47 64
        E 0 8e 47 64
        E 0 95 47 64
        E 0 9e 47 64
        E 1151 85 47 64
        E 0 8e 47 64
        E 0 95 43 64
        E 0 9e 43 64
        E 1155 85 43 64
        E 0 8e 43 64
        E 0 95 42 64
        E 0 9e 42 64
        E 574 85 42 64
        E 0 8e 42 64
        E 0 95 40 64
        E 0 9e 40 64
        E 575 85 40 64
        E 0 8e 40 64
        E 0 8f 2b 64
        E 0 95 45 64
        E 0 9e 45 64
        E 0 9f 30 5a
        E 1153 85 45 64
        E 0 8e 45 64
        E 1 95 45 64
        E 0 9e 45 64
        E 1150 85 45 64
        E 0 8e 45 64
        E 1 95 45 64
        E 0 9e 45 64
        E 1152 85 45 64
        E 0 8e 45 64
        E 0 95 40 64
        E 0 9e 40 64
        E 1154 85 40 64
        E 0 8e 40 64
        E 0 8f 30 64
        E 1 95 42 64
        E 0 9e 42 64
        E 0 9f 2f 5a
        E 1147 85 42 64
        E 0 8e 42 64
        E 1 95 42 64
        E 0 9e 42 64
        E 1152 85 42 64
        E 0 8e 42 64
        E 2304 8f 2f 64
        E 1 9a 3f 64
        E 0 9e 3f 64
        E 0 9f 2f 5a
        E 1152 8a 3f 64
        E 0 8e 3f 64
        E 0 9a 3f 64
        E 0 9e 3f 64
        E 1152 8a 3f 64
        E 0 8e 3f 64
        E 0 9a 42 64
        E 0 9e 42 64
        E 1151 8a 42 64
        E 1 8e 42 64
        E 0 9a 42 64
        E 0 9e 42 64
        E 575 8a 42 64
        E 0 8e 42 64
        E 0 9a 43 64
        E 0 9e 43 64
        E 577 8a 43 64
        E 0 8e 43 64
        E 0 9a 45 64
        E 0 9e 45 64
        E 1153 8a 45 64
        E 0 8e 45 64
        E 0 9a 45 64
        E 0 9e 45 64
        E 1153 8a 45 64
        E 0 8e 45 64
        E 575 9a 45 64
        E 1 9e 45 64
        E 573 8a 45 64
        E 0 8e 45 64
        E 0 9a 47 64
        E 0 9e 47 64
        E 578 8a 47 64
        E 1 8e 47 64
        E 0 9a 48 64
        E 0 9e 48 64
        E 573 8a 48 64
        E 0 8e 48 64
        E 0 8f 2f 64
        E 0 9a 42 64
        E 0 9e 42 64
        E 0 9f 2f 5a
        E 2305 8a 42 64
        E 0 8e 42 64
        E 0 9a 45 64
        E 0 9e 45 64
        E 1151 8a 45 64
        E 0 8e 45 64
        E 0 9a 45 64
        E 1 9e 45 64
        E 576 8a 45 64
        E 0 8e 45 64
        E 0 9a 43 64
        E 0 9e 43 64
        E 576 8a 43 64
        E 0 8e 43 64
        E 0 8f 2f 64
        E 0 9a 40 64
        E 0 9e 40 64
        E 0 9f 34 5a
        E 1153 8a 40 64
        E 0 8e 40 64
        E 0 9a 40 64
        E 0 9e 40 64
        E 1152 8a 40 64
        E 0 8e 40 64
        E 1150 9a 47 64
        E 0 9e 47 64
        E 1153 8a 47 64
        E 0 8e 47 64
        E 0 8f 34 64
        E 1 9a 44 64
        E 0 9e 44 64
        E 0 9f 32 5a
        E 1152 8a 44 64
        E 0 8e 44 64
        E 0 9a 44 64
        E 1 9e 44 64
        E 1152 8a 44 64
        E 0 8e 44 64
        E 2304 9a 40 64
        E 0 9e 40 64
        E 1149 8a 40 64
        E 1 8e 40 64
        E 0 9a 40 64
        E 0 9e 40 64
        E 1153 8a 40 64
        E 0 8e 40 64
        E 0 9a 47 64
        E 0 9e 47 64
        E 1150 8a 47 64
        E 0 8e 47 64
        E 0 9a 47 64
        E 1 9e 47 64
        E 578 8a 47 64
        E 0 8e 47 64
        E 0 9a 48 64
        E 0 9e 48 64
        E 574 8a 48 64
        E 0 8e 48 64
        E 0 8f 32 64
        E 0 9a 45 64
        E 0 9e 45 64
        E 0 9f 35 5a
        E 1152 8a 45 64
        E 0 8e 45 64
        E 0 9a 45 64
        E 0 9e 45 64
        E 1154 8a 45 64
        E 0 8e 45 64
        E 2301 9a 45 64
        E 1 9e 45 64
        E 1152 8a 45 64
        E 1 8e 45 64
        E 0 9a 45 64
        E 0 9e 45 64
        E 575 8a 45 64
        E 0 8e 45 64
        E 0 9a 45 64
        E 0 9e 45 64
        E 576 8a 45 64
        E 0 8e 45 64
        E 0 9a 47 64
        E 0 9e 47 64
        E 1151 8a 47 64
        E 1 8e 47 64
        E 0 9a 48 64
        E 0 9e 48 64
        E 1152 8a 48 64
        E 0 8e 48 64
        E 0 8f 35 64
        E 0 9a 43 64
        E 0 9e 43 64
        E 0 9f 37 5a
        E 1152 8a 43 64
        E 0 8e 43 64
        E 1 9a 43 64
        E 0 9e 43 64
        E 1152 8a 43 64
        E 0 8e 43 64
        E 0 8f 37 64
        E 0 9f 30 5a
        E 573 95 40 64
        E 1 9e 40 64
        E 578 85 40 64
        E 0 8e 40 64
        E 0 95 40 64
        E 0 9e 40 64
        E 575 85 40 64
        E 0 8e 40 64
        E 0 95 41 64
        E 0 9e 41 64
        E 578 85 41 64
        E 0 8e 41 64
        E 0 8f 30 64
        E 0 95 43 64
        E 0 9e 43 64
        E 0 9f 30 5a
        E 1149 85 43 64
        E 0 8e 43 64
        E 0 95 43 64
        E 0 9e 43 64
        E 1155 85 43 64
        E 0 8e 43 64
        E 1149 95 46 66
        E 0 9e 46 66
        E 578 85 46 66
        E 0 8e 46 66
        E 0 95 46 66
        E 0 9e 46 66
        E 577 85 46 66
        E 0 8e 46 66
        E 0 8f 30 64
        E 0 95 43 64
        E 0 9e 43 64
        E 0 9f 30 5a
        E 2302 85 43 64
        E 0 8e 43 64
        E 0 95 43 64
        E 0 9e 43 64
        E 1153 85 43 64
        E 0 8e 43 64
        E 0 95 45 64
        E 0 9e 45 64
        E 1151 85 45 64
        E 0 8e 45 64
        E 0 8f 30 64
        E 0 95 41 64
        E 0 9e 41 64
        E 0 9f 35 5a
        E 2303 85 41 64
        E 0 8e 41 64
        E 578 95 48 64
        E 0 9e 48 64
        E 577 85 48 64
        E 0 8e 48 64
        E 0 95 48 64
        E 0 9e 48 64
        E 575 85 48 64
        E 0 8e 48 64
        E 0 95 48 64
        E 0 9e 48 64
        E 575 85 48 64
        E 0 8e 48 64
        E 1 8f 35 64
        E 0 95 45 64
        E 0 9e 45 64
        E 0 9f 35 5a
        E 1150 85 45 64
        E 0 8e 45 64
        E 0 95 45 64
        E 0 9e 45 64
        E 1153 85 45 64
        E 0 8e 45 64
        E 1153 95 45 64
        E 0 9e 45 64
        E 1153 85 45 64
        E 0 8e 45 64
        E 0 95 45 64
        E 0 9e 45 64
        E 1152 85 45 64
        E 0 8e 45 64
        E 0 95 45 64
        E 0 9e 45 64
        E 1149 85 45 64
        E 0 8e 45 64
        E 0 95 43 64
        E 0 9e 43 64
        E 1153 85 43 64
        E 0 8e 43 64
        E 0 95 41 64
        E 0 9e 41 64
        E 1151 85 41 64
        E 0 8e 41 64
        E 0 8f 35 64
        E 0 95 46 66
        E 0 9e 46 66
        E 0 9f 32 5a
        E 1152 85 46 66
        E 0 8e 46 66
        E 1 95 46 66
        E 0 9e 46 66
        E 1153 85 46 66
        E 0 8e 46 66
        E 1152 95 46 66
        E 0 9e 46 66
        E 575 85 46 66
        E 0 8e 46 66
        E 0 95 46 66
        E 0 9e 46 66
        E 575 85 46 66
        E 0 8e 46 66
        E 0 8f 32 64
        E 0 95 43 64
        E 1 9e 43 64
        E 0 9f 33 5b
        E 2303 85 43 64
        E 0 8e 43 64
        E 0 95 43 64
        E 0 9e 43 64
        E 1152 85 43 64
        E 0 8e 43 64
        E 0 95 42 64
        E 0 9e 42 64
        E 1152 85 42 64
        E 0 8e 42 64
        E 0 8f 33 66
        E 1 95 45 64
        E 0 9e 45 64
        E 0 9f 32 5a
        E 1151 85 45 64
        E 0 8e 45 64
        E 0 95 45 64
        E 0 9e 45 64
        E 1152 85 45 64
        E 0 8e 45 64
        E 576 95 45 64
        E 0 9e 45 64
        E 578 85 45 64
        E 0 8e 45 64
        E 0 95 48 64
        E 0 9e 48 64
        E 576 85 48 64
        E 0 8e 48 64
        E 0 95 47 64
        E 1 9e 47 64
        E 573 85 47 64
        E 0 8e 47 64
        E 0 8f 32 64
        E 0 95 47 64
        E 0 9e 47 64
        E 0 9f 33 5a
        E 1152 85 47 64
        E 0 8e 47 64
        E 1 95 47 64
        E 0 9e 47 64
        E 1151 85 47 64
        E 0 8e 47 64
        E 2306 8f 33 64
        E 0 95 42 64
        E 0 9e 42 64
        E 0 9f 33 5a
        E 1151 85 42 64
        E 0 8e 42 64
        E 0 95 43 64
        E 1 9e 43 64
        E 1152 85 43 64
        E 0 8e 43 64
        E 1 95 45 64
        E 0 9e 45 64
        E 1150 85 45 64
        E 0 8e 45 64
        E 0 95 45 64
        E 0 9e 45 64
        E 576 85 45 64
        E 0 8e 45 64
        E 0 95 43 64
        E 1 9e 43 64
        E 576 85 43 64
        E 0 8e 43 64
        E 0 8f 33 64
        E 0 95 43 64
        E 0 9e 43 64
        E 0 9f 34 5a
        E 1150 85 43 64
        E 0 8e 43 64
        E 1 95 43 64
        E 0 9e 43 64
        E 1151 85 43 64
        E 0 8e 43 64
        E 2305 8f 34 64
        E 0 95 47 64
        E 0 9e 47 64
        E 0 9f 34 5a
        E 1151 85 47 64
        E 0 8e 47 64
        E 1 95 47 64
        E 0 9e 47 64
        E 1153 85 47 64
        E 0 8e 47 64
        E 0 95 47 64
        E 0 9e 47 64
        E 1151 85 47 64
        E 0 8e 47 64
        E 0 95 45 64
        E 0 9e 45 64
        E 576 85 45 64
        E 0 8e 45 64
        E 0 95 47 64
        E 0 9e 47 64
        E 576 85 47 64
        E 0 8e 47 64
        E 0 8f 34 64
        E 0 95 48 64
        E 0 9e 48 64
        E 0 9f 2d 5a
        E 1151 85 48 64
        E 0 8e 48 64
        E 1 95 48 64
        E 0 9e 48 64
        E 1151 85 48 64
        E 0 8e 48 64
        E 0 95 45 64
        E 0 9e 45 64
        E 1152 85 45 64
        E 0 8e 45 64
        E 0 95 45 64
        E 0 9e 45 64
        E 577 85 45 64
        E 0 8e 45 64
        E 0 95 43 64
        E 0 9e 43 64
        E 576 85 43 64
        E 0 8e 43 64
        E 0 8f 2d 64
        E 0 95 40 64
        E 0 9e 40 64
        E 0 9f 2f 5a
        E 1151 85 40 64
        E 0 8e 40 64
        E 1 95 40 64
        E 0 9e 40 64
        E 1153 85 40 64
        E 0 8e 40 64
        E 1 8f 2f 64
        E 0 9f 34 5a
        E 2303 8f 34 64
        E 0 9a 43 64
        E 0 9e 43 64
        E 0 9f 34 5a
        E 1149 8a 43 64
        E 0 8e 43 64
        E 1 9a 43 64
        E 0 9e 43 64
        E 1153 8a 43 64
        E 0 8e 43 64
        E 0 9a 43 64
        E 0 9e 43 64
        E 1151 8a 43 64
        E 0 8e 43 64
        E 1 9a 43 64
        E 0 9e 43 64
        E 576 8a 43 64
        E 0 8e 43 64
        E 0 9a 45 64
        E 0 9e 45 64
        E 576 8a 45 64
        E 0 8e 45 64
        E 0 8f 34 64
        E 0 9a 40 64
        E 0 9e 40 64
        E 0 9f 34 5a
        E 2305 8a 40 64
        E 0 8e 40 64
        E 2304 9a 43 64
        E 0 9e 43 64
        E 2303 8a 43 64
        E 0 8e 43 64
        E 0 9a 43 64
        E 0 9e 43 64
        E 1152 8a 43 64
        E 0 8e 43 64
        E 0 9a 45 64
        E 0 9e 45 64
        E 1153 8a 45 64
        E 1 8e 45 64
        E 0 8f 34 64
        E 0 9a 45 64
        E 0 9e 45 64
        E 0 9f 31 5a
        E 1150 8a 45 64
        E 0 8e 45 64
        E 1 9a 45 64
        E 0 9e 45 64
        E 1150 8a 45 64
        E 0 8e 45 64
        E 2305 9a 40 64
        E 0 9e 40 64
        E 1153 8a 40 64
        E 0 8e 40 64
        E 1 9a 40 64
        E 0 9e 40 64
        E 1149 8a 40 64
        E 0 8e 40 64
        E 0 9a 40 64
        E 0 9e 40 64
        E 1153 8a 40 64
        E 0 8e 40 64
        E 0 9a 40 64
        E 0 9e 40 64
        E 576 8a 40 64
        E 0 8e 40 64
        E 0 9a 42 64
        E 0 9e 42 64
        E 577 8a 42 64
        E 0 8e 42 64
        E 0 8f 31 64
        E 0 9a 43 64
        E 0 9e 43 64
        E 0 9f 31 5a
        E 576 8a 43 64
        E 0 8e 43 64
        E 0 9a 43 64
        E 0 9e 43 64
        E 575 8a 43 64
        E 1 8e 43 64
        E 0 9a 43 64
        E 0 9e 43 64
        E 1150 8a 43 64
        E 1 8e 43 64
        E 1152 9a 47 64
        E 0 9e 47 64
        E 1153 8a 47 64
        E 0 8e 47 64
        E 0 9a 43 64
        E 0 9e 43 64
        E 1151 8a 43 64
        E 0 8e 43 64
        E 0 9a 43 64
        E 0 9e 43 64
        E 1153 8a 43 64
        E 0 8e 43 64
        E 0 9a 43 64
        E 0 9e 43 64
        E 1150 8a 43 64
        E 0 8e 43 64
        E 0 9a 42 64
        E 0 9e 42 64
        E 1152 8a 42 64
        E 0 8e 42 64
        E 0 8f 31 64
        E 0 9a 3e 64
        E 0 9e 3e 64
        E 0 9f 32 5a
        E 2305 8a 3e 64
        E 0 8e 3e 64
        E 2304 9a 45 64
        E 0 9e 45 64
        E 2304 8a 45 64
        E 0 8e 45 64
        E 0 9a 43 64
        E 0 9e 43 64
        E 1152 8a 43 64
        E 0 8e 43 64
        E 0 9a 45 64
        E 0 9e 45 64
        E 1152 8a 45 64
        E 0 8e 45 64
        E 0 8f 32 64
        E 0 9a 42 64
        E 0 9e 42 64
        E 0 9f 32 5a
        E 1152 8a 42 64
        E 0 8e 42 64
        E 0 9a 42 64
        E 0 9e 42 64
        E 1153 8a 42 64
        E 0 8e 42 64
        E 2302 9a 3e 64
        E 1 9e 3e 64
        E 1152 8a 3e 64
        E 0 8e 3e 64
        E 0 9a 3e 64
        E 0 9e 3e 64
        E 1154 8a 3e 64
        E 0 8e 3e 64
        E 0 9a 42 64
        E 0 9e 42 64
        E 1151 8a 42 64
        E 0 8e 42 64
        E 0 9a 42 64
        E 0 9e 42 64
        E 576 8a 42 64
        E 0 8e 42 64
        E 1 9a 43 64
        E 0 9e 43 64
        E 575 8a 43 64
        E 0 8e 43 64
        E 0 8f 32 64
        E 0 9a 45 64
        E 0 9e 45 64
        E 0 9f 32 5a
        E 1150 8a 45 64
        E 0 8e 45 64
        E 0 9a 45 64
        E 0 9e 45 64
        E 1155 8a 45 64
        E 0 8e 45 64
        E 1152 9a 48 64
        E 0 9e 48 64
        E 1150 8a 48 64
        E 0 8e 48 64
        E 0 9a 45 64
        E 0 9e 45 64
        E 2302 8a 45 64
        E 1 8e 45 64
        E 0 9a 45 64
        E 0 9e 45 64
        E 1154 8a 45 64
        E 0 8e 45 64
        E 0 9a 47 64
        E 0 9e 47 64
        E 1150 8a 47 64
        E 0 8e 47 64
        E 0 8f 32 64
        E 0 9a 43 64
        E 0 9e 43 64
        E 0 9f 2b 5a
        E 1153 8a 43 64
        E 1 8e 43 64
        E 0 9a 43 64
        E 0 9e 43 64
        E 1153 8a 43 64
        E 0 8e 43 64
        E 576 9a 3e 64
        E 0 9e 3e 64
        E 575 8a 3e 64
        E 0 8e 3e 64
        E 1 9a 3e 64
        E 0 9e 3e 64
        E 574 8a 3e 64
        E 0 8e 3e 64
        E 0 9a 3e 64
        E 0 9e 3e 64
        E 577 8a 3e 64
        E 1 8e 3e 64
        E 0 9a 43 64
        E 0 9e 43 64
        E 2304 8a 43 64
        E 0 8e 43 64
        E 0 9a 43 64
        E 0 9e 43 64
        E 1149 8a 43 64
        E 0 8e 43 64
        E 0 9a 45 64
        E 0 9e 45 64
        E 1153 8a 45 64
        E 0 8e 45 64
        E 0 8f 2b 64
        E 0 9a 41 64
        E 0 9e 41 64
        E 0 9f 2b 5a
        E 1152 8a 41 64
        E 0 8e 41 64
        E 0 9a 41 64
        E 0 9e 41 64
        E 1151 8a 41 64
        E 0 8e 41 64
        E 2306 9a 3e 64
        E 0 9e 3e 64
        E 1151 8a 3e 64
        E 0 8e 3e 64
        E 0 9a 3e 64
        E 1 9e 3e 64
        E 1151 8a 3e 64
        E 0 8e 3e 64
        E 0 9a 41 64
        E 0 9e 41 64
        E 1154 8a 41 64
        E 0 8e 41 64
        E 0 9a 41 64
        E 0 9e 41 64
        E 573 8a 41 64
        E 0 8e 41 64
        E 0 9a 40 64
        E 1 9e 40 64
        E 575 8a 40 64
        E 0 8e 40 64
        E 0 8f 2b 64
        E 0 9a 3c 64
        E 0 9e 3c 64
        E 0 9f 30 5a
        E 1153 8a 3c 64
        E 0 8e 3c 64
        E 0 9a 3c 64
        E 1 9e 3c 64
        E 1152 8a 3c 64
        E 0 8e 3c 64
        E 575 9a 40 64
        E 0 9e 40 64
        E 575 8a 40 64
        E 0 8e 40 64
        E 0 9a 40 64
        E 0 9e 40 64
        E 577 8a 40 64
        E 0 8e 40 64
        E 0 9a 41 64
        E 0 9e 41 64
        E 576 8a 41 64
        E 0 8e 41 64
        E 0 9a 43 64
        E 0 9e 43 64
        E 1152 8a 43 64
        E 0 8e 43 64
        E 0 9a 43 64
        E 0 9e 43 64
        E 1152 8a 43 64
        E 0 8e 43 64
        E 577 9a 46 66
        E 0 9e 46 66
        E 577 8a 46 66
        E 0 8e 46 66
        E 0 9a 43 64
        E 0 9e 43 64
        E 574 8a 43 64
        E 0 8e 43 64
        E 0 9a 45 64
        E 0 9e 45 64
        E 575 8a 45 64
        E 0 8e 45 64
        E 0 8f 30 64
        E 0 9a 41 64
        E 0 9e 41 64
        E 0 9f 35 5a
        E 1153 8a 41 64
        E 0 8e 41 64
        E 0 9a 41 64
        E 0 9e 41 64
        E 1152 8a 41 64
        E 0 8e 41 64
        E 2304 9a 45 64
        E 0 9e 45 64
        E 1152 8a 45 64
        E 0 8e 45 64
        E 0 9a 45 64
        E 0 9e 45 64
        E 576 8a 45 64
        E 0 8e 45 64
        E 1 9a 45 64
        E 0 9e 45 64
        E 574 8a 45 64
        E 0 8e 45 64
        E 1 9a 46 66
        E 0 9e 46 66
        E 1153 8a 46 66
        E 0 8e 46 66
        E 0 9a 48 64
        E 0 9e 48 64
        E 1151 8a 48 64
        E 0 8e 48 64
        E 0 8f 35 64
        E 0 9a 41 64
        E 0 9e 41 64
        E 0 9f 35 5a
        E 1152 8a 41 64
        E 0 8e 41 64
        E 0 9a 41 64
        E 0 9e 41 64
        E 1151 8a 41 64
        E 0 8e 41 64
        E 2306 9a 41 64
        E 2 9e 41 64
        E 1148 8a 41 64
        E 0 8e 41 64
        E 0 9a 41 64
        E 0 9e 41 64
        E 1153 8a 41 64
        E 0 8e 41 64
        E 0 9a 41 64
        E 0 9e 41 64
        E 1151 8a 41 64
        E 0 8e 41 64
        E 0 9a 41 64
        E 0 9e 41 64
        E 578 8a 41 64
        E 0 8e 41 64
        E 0 9a 43 64
        E 0 9e 43 64
        E 577 8a 43 64
        E 0 8e 43 64
        E 0 8f 35 64
        E 0 9a 45 64
        E 0 9e 45 64
        E 0 9f 33 5b
        E 1151 8a 45 64
        E 0 8e 45 64
        E 0 9a 45 64
        E 0 9e 45 64
        E 1152 8a 45 64
        E 0 8e 45 64
        E 0 9a 43 64
        E 0 9e 43 64
        E 1150 8a 43 64
        E 0 8e 43 64
        E 0 9a 41 64
        E 0 9e 41 64
        E 1154 8a 41 64
        E 0 8e 41 64
        E 0 8f 33 66
        E 0 9a 46 66
        E 0 9e 46 66
        E 0 9f 32 5a
        E 1152 8a 46 66
        E 0 8e 46 66
        E 1 9a 46 66
        E 0 9e 46 66
        E 1150 8a 46 66
        E 0 8e 46 66
        E 2303 8f 32 64
        E 0 9a 43 64
        E 0 9e 43 64
        E 1 9f 33 5b
        E 1151 8a 43 64
        E 0 8e 43 64
        E 0 9a 43 64
        E 0 9e 43 64
        E 577 8a 43 64
        E 0 8e 43 64
        E 0 9a 43 64
        E 0 9e 43 64
        E 576 8a 43 64
        E 0 8e 43 64
        E 1 9a 45 64
        E 0 9e 45 64
        E 1151 8a 45 64
        E 0 8e 45 64
        E 0 9a 46 66
        E 0 9e 46 66
        E 1151 8a 46 66
        E 0 8e 46 66
        E 0 8f 33 66
        E 0 9a 41 64
        E 0 9e 41 64
        E 0 9f 35 5a
        E 1153 8a 41 64
        E 0 8e 41 64
        E 0 9a 41 64
        E 0 9e 41 64
        E 1152 8a 41 64
        E 0 8e 41 64
        E 0 8f 35 64
        E 0 9f 2e 5b
        E 2303 8f 2e 66
        E 0 95 46 66
        E 0 9e 46 66
        E 0 9f 2e 5b
        E 1152 85 46 66
        E 0 8e 46 66
        E 0 95 46 66
        E 1 9e 46 66
        E 1153 85 46 66
        E 0 8e 46 66
        E 0 95 46 66
        E 0 9e 46 66
        E 1152 85 46 66
        E 0 8e 46 66
        E 0 95 46 66
        E 0 9e 46 66
        E 576 85 46 66
        E 0 8e 46 66
        E 1 95 48 64
        E 0 9e 48 64
        E 574 85 48 64
        E 0 8e 48 64
        E 0 95 44 66
        E 0 9e 44 66
        E 2304 85 44 66
        E 0 8e 44 66
        E 2303 8f 2e 66
        E 0 95 41 64
        E 0 9e 41 64
        E 0 9f 2e 5b
        E 2305 85 41 64
        E 0 8e 41 64
        E 0 95 41 64
        E 0 9e 41 64
        E 1152 85 41 64
        E 0 8e 41 64
        E 0 95 43 64
        E 0 9e 43 64
        E 1151 85 43 64
        E 0 8e 43 64
        E 0 95 44 66
        E 0 9e 44 66
        E 1153 85 44 66
        E 0 8e 44 66
        E 0 95 44 66
        E 0 9e 44 66
        E 1152 85 44 66
        E 0 8e 44 66
        E 1152 95 48 64
        E 0 9e 48 64
        E 1154 85 48 64
        E 0 8e 48 64
        E 0 8f 2e 66
        E 0 95 44 66
        E 0 9e 44 66
        E 0 9f 2e 5b
        E 1150 85 44 66
        E 0 8e 44 66
        E 0 95 44 66
        E 0 9e 44 66
        E 1152 85 44 66
        E 0 8e 44 66
        E 0 95 44 66
        E 0 9e 44 66
        E 1152 85 44 66
        E 1 8e 44 66
        E 0 95 43 64
        E 0 9e 43 64
        E 1151 85 43 64
        E 0 8e 43 64
        E 0 8f 2e 66
        E 0 95 3f 66
        E 0 9e 3f 66
        E 0 9f 33 5b
        E 1151 85 3f 66
        E 0 8e 3f 66
        E 0 95 3f 66
        E 0 9e 3f 66
        E 1152 85 3f 66
        E 1 8e 3f 66
        E 576 95 46 66
        E 0 9e 46 66
        E 577 85 46 66
        E 0 8e 46 66
        E 0 95 46 66
        E 0 9e 46 66
        E 575 85 46 66
        E 0 8e 46 66
        E 0 95 46 66
        E 0 9e 46 66
        E 576 85 46 66
        E 0 8e 46 66
        E 0 8f 33 66
        E 0 95 43 64
        E 0 9e 43 64
        E 0 9f 33 5b
        E 1151 85 43 64
        E 0 8e 43 64
        E 0 95 43 64
        E 1 9e 43 64
        E 1152 85 43 64
        E 0 8e 43 64
        E 1153 95 49 66
        E 0 9e 49 66
        E 1151 85 49 66
        E 0 8e 49 66
        E 0 8f 33 66
        E 0 95 46 66
        E 0 9e 46 66
        E 1 9f 33 5b
        E 1151 85 46 66
        E 0 8e 46 66
        E 0 95 46 66
        E 0 9e 46 66
        E 1152 85 46 66
        E 0 8e 46 66
        E 0 95 46 66
        E 0 9e 46 66
        E 1152 85 46 66
        E 0 8e 46 66
        E 1 95 48 64
        E 0 9e 48 64
        E 1150 85 48 64
        E 0 8e 48 64
        E 0 8f 33 66
        E 0 95 44 66
        E 0 9e 44 66
        E 0 9f 2c 5b
        E 1153 85 44 66
        E 0 8e 44 66
        E 0 95 44 66
        E 0 9e 44 66
        E 1153 85 44 66
        E 0 8e 44 66
        E 574 95 48 64
        E 0 9e 48 64
        E 577 85 48 64
        E 0 8e 48 64
        E 0 95 48 64
        E 1 9e 48 64
        E 575 85 48 64
        E 0 8e 48 64
        E 0 95 48 64
        E 0 9e 48 64
        E 575 85 48 64
        E 0 8e 48 64
        E 0 8f 2c 66
        E 0 95 43 64
        E 0 9e 43 64
        E 0 9f 34 5a
        E 1153 85 43 64
        E 0 8e 43 64
        E 0 95 43 64
        E 0 9e 43 64
        E 1151 85 43 64
        E 0 8e 43 64
        E 578 95 43 64
        E 0 9e 43 64
        E 574 85 43 64
        E 0 8e 43 64
        E 0 95 46 66
        E 0 9e 46 66
        E 577 85 46 66
        E 0 8e 46 66
        E 0 95 44 66
        E 0 9e 44 66
        E 575 85 44 66
        E 0 8e 44 66
        E 0 8f 34 64
        E 0 95 41 64
        E 0 9e 41 64
        E 1 9f 35 5a
        E 1151 85 41 64
        E 0 8e 41 64
        E 0 95 41 64
        E 0 9e 41 64
        E 1152 85 41 64
        E 1 8e 41 64
        E 2305 95 44 66
        E 0 9e 44 66
        E 1151 85 44 66
        E 0 8e 44 66
        E 0 95 44 66
        E 0 9e 44 66
        E 576 85 44 66
        E 0 8e 44 66
        E 0 95 44 66
        E 0 9e 44 66
        E 578 85 44 66
        E 0 8e 44 66
        E 0 95 44 66
        E 0 9e 44 66
        E 1150 85 44 66
        E 0 8e 44 66
        E 0 95 46 66
        E 0 9e 46 66
        E 1153 85 46 66
        E 0 8e 46 66
        E 0 8f 35 64
        E 0 95 48 64
        E 0 9e 48 64
        E 0 9f 35 5a
        E 1151 85 48 64
        E 0 8e 48 64
        E 0 95 48 64
        E 0 9e 48 64
        E 1152 85 48 64
        E 0 8e 48 64
        E 2304 95 48 64
        E 0 9e 48 64
        E 1152 85 48 64
        E 0 8e 48 64
        E 0 95 48 64
        E 0 9e 48 64
        E 1151 85 48 64
        E 0 8e 48 64
        E 0 95 44 64
        E 1 9e 44 64
        E 1153 85 44 64
        E 0 8e 44 64
        E 1 95 43 64
        E 0 9e 43 64
        E 574 85 43 64
        E 0 8e 43 64
        E 0 95 41 64
        E 0 9e 41 64
        E 576 85 41 64
        E 0 8e 41 64
        E 0 8f 35 64
        E 0 95 47 64
        E 0 9e 47 64
        E 0 9f 35 5a
        E 1153 85 47 64
        E 0 8e 47 64
        E 0 95 47 64
        E 1 9e 47 64
        E 1151 85 47 64
        E 0 8e 47 64
        E 0 95 47 64
        E 0 9e 47 64
        E 1150 85 47 64
        E 0 8e 47 64
        E 0 95 48 64
        E 0 9e 48 64
        E 1154 85 48 64
        E 1 8e 48 64
        E 0 8f 35 64
        E 0 95 43 64
        E 0 9e 43 64
        E 0 9f 37 5a
        E 1150 85 43 64
        E 0 8e 43 64
        E 0 95 43 64
        E 0 9e 43 64
        E 1151 85 43 64
        E 0 8e 43 64
        E 0 8f 37 64
        E 0 9a 3f 66
        E 0 9e 3f 66
        E 0 9f 30 5a
        E 1155 8a 3f 66
        E 0 8e 3f 66
        E 0 9a 43 64
        E 0 9e 43 64
        E 1149 8a 43 64
        E 0 8e 43 64
        E 0 8f 30 64
        E 0 9a 3c 64
        E 0 9e 3c 64
        E 0 9f 30 5a
        E 2304 8a 3c 64
        E 0 8e 3c 64
        E 1153 95 48 64
        E 0 9e 48 64
        E 577 85 48 64
        E 0 8e 48 64
        E 0 95 48 64
        E 1 9e 48 64
        E 574 85 48 64
        E 0 8e 48 64
        E 0 8f 30 64
        E 0 95 45 64
        E 0 9e 45 64
        E 0 9f 2a 5a
        E 1153 85 45 64
        E 0 8e 45 64
        E 1 95 45 64
        E 0 9e 45 64
        E 1151 85 45 64
        E 0 8e 45 64
        E 1 95 4a 64
        E 0 9e 4a 64
        E 1149 85 4a 64
        E 0 8e 4a 64
        E 0 95 45 64
        E 0 9e 45 64
        E 578 85 45 64
        E 0 8e 45 64
        E 0 95 46 66
        E 0 9e 46 66
        E 574 85 46 66
        E 0 8e 46 66
        E 0 8f 2a 64
        E 0 95 43 64
        E 0 9e 43 64
        E 0 9f 2b 5a
        E 577 85 43 64
        E 0 8e 43 64
        E 2 95 43 64
        E 0 9e 43 64
        E 574 85 43 64
        E 0 8e 43 64
        E 0 95 43 64
        E 0 9e 43 64
        E 1151 85 43 64
        E 0 8e 43 64
        E 2305 95 3e 64
        E 0 9e 3e 64
        E 1152 85 3e 64
        E 0 8e 3e 64
        E 0 95 3e 64
        E 0 9e 3e 64
        E 1152 85 3e 64
        E 0 8e 3e 64
        E 0 95 3e 64
        E 0 9e 3e 64
        E 1152 85 3e 64
        E 0 8e 3e 64
        E 0 95 3e 64
        E 0 9e 3e 64
        E 1152 85 3e 64
        E 0 8e 3e 64
        E 0 8f 2b 64
        E 0 95 43 64
        E 0 9e 43 64
        E 0 9f 2b 5a
        E 1153 85 43 64
        E 0 8e 43 64
        E 0 95 43 64
        E 0 9e 43 64
        E 1153 85 43 64
        E 0 8e 43 64
        E 2301 95 46 66
        E 0 9e 46 66
        E 1153 85 46 66
        E 0 8e 46 66
        E 1 95 46 66
        E 0 9e 46 66
        E 574 85 46 66
        E 0 8e 46 66
        E 0 95 46 66
        E 0 9e 46 66
        E 576 85 46 66
        E 0 8e 46 66
        E 0 95 46 66
        E 0 9e 46 66
        E 1155 85 46 66
        E 0 8e 46 66
        E 0 95 45 64
        E 0 9e 45 64
        E 1149 85 45 64
        E 0 8e 45 64
        E 0 8f 2b 64
        E 0 95 45 64
        E 0 9e 45 64
        E 0 9f 2b 5a
        E 1152 85 45 64
        E 0 8e 45 64
        E 0 95 45 64
        E 1 9e 45 64
        E 1152 85 45 64
        E 1 8e 45 64
        E 575 95 45 64
        E 0 9e 45 64
        E 575 85 45 64
        E 0 8e 45 64
        E 0 95 45 64
        E 0 9e 45 64
        E 577 85 45 64
        E 1 8e 45 64
        E 0 95 46 66
        E 0 9e 46 66
        E 576 85 46 66
        E 0 8e 46 66
        E 0 95 48 64
        E 0 9e 48 64
        E 1151 85 48 64
        E 0 8e 48 64
        E 0 95 48 64
        E 0 9e 48 64
        E 1154 85 48 64
        E 0 8e 48 64
        E 574 95 48 64
        E 0 9e 48 64
        E 577 85 48 64
        E 0 8e 48 64
        E 0 95 45 64
        E 0 9e 45 64
        E 576 85 45 64
        E 0 8e 45 64
        E 0 95 46 66
        E 0 9e 46 66
        E 574 8f 2b 64
        E 0 85 46 66
        E 0 8e 46 66
        E 0 9f 2b 5a
        E 0 95 43 64
        E 0 9e 43 64
        E 1152 85 43 64
        E 0 8e 43 64
        E 0 95 43 64
        E 0 9e 43 64
        E 1153 85 43 64
        E 0 8e 43 64
        E 1152 95 46 66
        E 0 9e 46 66
        E 1152 85 46 66
        E 0 8e 46 66
        E 0 8f 2b 64
        E 0 95 43 64
        E 0 9e 43 64
        E 0 9f 31 5a
        E 1153 85 43 64
        E 0 8e 43 64
        E 1 95 43 64
        E 0 9e 43 64
        E 1149 85 43 64
        E 1 8e 43 64
        E 576 95 40 64
        E 0 9e 40 64
        E 575 85 40 64
        E 0 8e 40 64
        E 0 95 40 64
        E 0 9e 40 64
        E 578 85 40 64
        E 0 8e 40 64
        E 0 95 41 64
        E 0 9e 41 64
        E 574 85 41 64
        E 0 8e 41 64
        E 0 95 43 64
        E 0 9e 43 64
        E 1154 85 43 64
        E 0 8e 43 64
        E 0 95 43 64
        E 0 9e 43 64
        E 1152 85 43 64
        E 0 8e 43 64
        E 575 95 43 64
        E 0 9e 43 64
        E 577 85 43 64
        E 0 8e 43 64
        E 0 95 43 64
        E 0 9e 43 64
        E 575 85 43 64
        E 0 8e 43 64
        E 0 95 41 64
        E 0 9e 41 64
        E 575 85 41 64
        E 0 8e 41 64
        E 0 8f 31 64
        E 0 95 3e 64
        E 0 9e 3e 64
        E 0 9f 32 5a
        E 2305 85 3e 64
        E 0 8e 3e 64
        E 1152 95 45 64
        E 0 9e 45 64
        E 1151 85 45 64
        E 0 8e 45 64
        E 1 95 41 64
        E 0 9e 41 64
        E 1151 85 41 64
        E 0 8e 41 64
        E 0 95 41 64
        E 0 9e 41 64
        E 1153 85 41 64
        E 0 8e 41 64
        E 0 95 43 64
        E 0 9e 43 64
        E 1152 85 43 64
        E 0 8e 43 64
        E 0 95 45 64
        E 0 9e 45 64
        E 1154 85 45 64
        E 0 8e 45 64
        E 0 8f 32 64
        E 0 95 3e 64
        E 0 9e 3e 64
        E 0 9f 32 5a
        E 1150 85 3e 64
        E 0 8e 3e 64
        E 0 95 3e 64
        E 0 9e 3e 64
        E 1152 85 3e 64
        E 0 8e 3e 64
        E 1154 95 45 64
        E 0 9e 45 64
        E 1149 85 45 64
        E 0 8e 45 64
        E 0 95 45 64
        E 1 9e 45 64
        E 1153 85 45 64
        E 0 8e 45 64
        E 1 95 45 64
        E 0 9e 45 64
        E 1151 85 45 64
        E 0 8e 45 64
        E 0 95 45 64
        E 0 9e 45 64
        E 1152 85 45 64
        E 0 8e 45 64
        E 0 95 47 64
        E 0 9e 47 64
        E 1153 85 47 64
        E 0 8e 47 64
        E 0 8f 32 64
        E 0 95 44 64
        E 0 9e 44 64
        E 0 9f 32 5a
        E 1150 85 44 64
        E 0 8e 44 64
        E 0 95 44 64
        E 0 9e 44 64
        E 1152 85 44 64
        E 0 8e 44 64
        E 2305 95 44 64
        E 0 9e 44 64
        E 1150 85 44 64
        E 0 8e 44 64
        E 1 95 44 64
        E 0 9e 44 64
        E 1151 85 44 64
        E 0 8e 44 64
        E 0 95 44 64
        E 0 9e 44 64
        E 1152 85 44 64
        E 0 8e 44 64
        E 0 95 44 64
        E 0 9e 44 64
        E 578 85 44 64
        E 0 8e 44 64
        E 1 95 45 64
        E 0 9e 45 64
        E 574 85 45 64
        E 0 8e 45 64
        E 0 8f 32 64
        E 0 95 40 64
        E 0 9e 40 64
        E 0 9f 34 5a
        E 2304 85 40 64
        E 0 8e 40 64
        E 0 8f 34 64
        E 0 9f 2d 5a
        E 576 95 45 64
        E 0 9e 45 64
        E 574 85 45 64
        E 0 8e 45 64
        E 1 95 45 64
        E 0 9e 45 64
        E 577 85 45 64
        E 0 8e 45 64
        E 0 95 43 64
        E 0 9e 43 64
        E 576 85 43 64
        E 0 8e 43 64
        E 0 8f 2d 64
        E 0 95 43 64
        E 0 9e 43 64
        E 0 9f 2f 5a
        E 1153 85 43 64
        E 0 8e 43 64
        E 1 95 43 64
        E 0 9e 43 64
        E 1150 85 43 64
        E 0 8e 43 64
        E 576 95 43 64
        E 0 9e 43 64
        E 576 85 43 64
        E 0 8e 43 64
        E 0 95 43 64
        E 0 9e 43 64
        E 576 85 43 64
        E 0 8e 43 64
        E 0 95 43 64
        E 0 9e 43 64
        E 577 85 43 64
        E 0 8e 43 64
        E 0 8f 2f 64
        E 0 95 47 64
        E 0 9e 47 64
        E 0 9f 35 5a
        E 1152 85 47 64
        E 0 8e 47 64
        E 0 95 47 64
        E 0 9e 47 64
        E 1151 85 47 64
        E 0 8e 47 64
        E 0 95 47 64
        E 1 9e 47 64
        E 1150 85 47 64
        E 0 8e 47 64
        E 0 95 48 64
        E 0 9e 48 64
        E 1155 85 48 64
        E 0 8e 48 64
        E 0 8f 35 64
        E 0 95 43 64
        E 0 9e 43 64
        E 0 9f 34 5a
        E 1150 85 43 64
        E 0 8e 43 64
        E 0 95 43 64
        E 0 9e 43 64
        E 1153 85 43 64
        E 0 8e 43 64
        E 1151 95 48 64
        E 0 9e 48 64
        E 1152 85 48 64
        E 0 8e 48 64
        E 0 8f 34 64
        E 0 95 45 64
        E 0 9e 45 64
        E 0 9f 33 5b
        E 1153 85 45 64
        E 0 8e 45 64
        E 0 95 45 64
        E 0 9e 45 64
        E 1151 85 45 64
        E 0 8e 45 64
        E 1151 95 45 64
        E 0 9e 45 64
        E 1155 85 45 64
        E 0 8e 45 64
        E 0 8f 33 66
        E 0 95 45 64
        E 0 9e 45 64
        E 0 9f 33 5b
        E 1150 85 45 64
        E 0 8e 45 64
        E 0 95 45 64
        E 1 9e 45 64
        E 1152 85 45 64
        E 0 8e 45 64
        E 0 95 45 64
        E 0 9e 45 64
        E 1152 85 45 64
        E 0 8e 45 64
        E 1 95 46 66
        E 0 9e 46 66
        E 1150 85 46 66
        E 0 8e 46 66
        E 0 8f 33 66
        E 0 95 41 64
        E 0 9e 41 64
        E 0 9f 2e 5b
        E 2304 85 41 64
        E 0 8e 41 64
        E 576 95 3e 64
        E 0 9e 3e 64
        E 577 85 3e 64
        E 0 8e 3e 64
        E 0 95 3e 64
        E 0 9e 3e 64
        E 575 85 3e 64
        E 0 8e 3e 64
        E 0 95 3f 66
        E 0 9e 3f 66
        E 577 85 3f 66
        E 1 8e 3f 66
        E 0 95 41 64
        E 0 9e 41 64
        E 1150 85 41 64
        E 1 8e 41 64
        E 0 95 41 64
        E 0 9e 41 64
        E 1150 85 41 64
        E 0 8e 41 64
        E 2306 8f 2e 66
        E 0 95 41 64
        E 0 9e 41 64
        E 1 9f 2e 5b
        E 1151 85 41 64
        E 0 8e 41 64
        E 1 95 41 64
        E 0 9e 41 64
        E 1150 85 41 64
        E 0 8e 41 64
        E 0 95 41 64
        E 0 9e 41 64
        E 1151 85 41 64
        E 0 8e 41 64
        E 0 95 41 64
        E 0 9e 41 64
        E 578 85 41 64
        E 0 8e 41 64
        E 0 95 43 64
        E 0 9e 43 64
        E 575 85 43 64
        E 0 8e 43 64
        E 0 95 44 66
        E 0 9e 44 66
        E 1150 85 44 66
        E 0 8e 44 66
        E 1 95 44 66
        E 0 9e 44 66
        E 1152 85 44 66
        E 1 8e 44 66
        E 2305 8f 2e 66
        E 0 95 44 66
        E 0 9e 44 66
        E 0 9f 2e 5b
        E 1151 85 44 66
        E 0 8e 44 66
        E 0 95 44 66
        E 0 9e 44 66
        E 1151 85 44 66
        E 0 8e 44 66
        E 0 95 44 66
        E 0 9e 44 66
        E 1153 85 44 66
        E 0 8e 44 66
        E 0 95 44 66
        E 0 9e 44 66
        E 1151 85 44 66
        E 0 8e 44 66
        E 0 8f 2e 66
        E 0 95 43 64
        E 0 9e 43 64
        E 0 9f 33 5b
        E 1155 85 43 64
        E 0 8e 43 64
        E 0 95 43 64
        E 0 9e 43 64
        E 1151 85 43 64
        E 0 8e 43 64
        E 574 95 43 64
        E 0 9e 43 64
        E 578 85 43 64
        E 0 8e 43 64
        E 0 95 44 66
        E 0 9e 44 66
        E 575 85 44 66
        E 0 8e 44 66
        E 0 95 46 66
        E 0 9e 46 66
        E 576 85 46 66
        E 0 8e 46 66
        E 0 8f 33 66
        E 0 95 41 64
        E 0 9e 41 64
        E 0 9f 35 5a
        E 1152 85 41 64
        E 0 8e 41 64
        E 0 95 41 64
        E 0 9e 41 64
        E 1152 85 41 64
        E 0 8e 41 64
        E 0 8f 35 64
        E 0 9f 2e 5b
        E 575 95 41 64
        E 1 9e 41 64
        E 576 85 41 64
        E 0 8e 41 64
        E 0 95 41 64
        E 0 9e 41 64
        E 576 85 41 64
        E 0 8e 41 64
        E 0 95 41 64
        E 0 9e 41 64
        E 576 85 41 64
        E 0 8e 41 64
        E 0 8f 2e 66
        E 0 95 3e 64
        E 0 9e 3e 64
        E 0 9f 2e 5b
        E 2303 85 3e 64
        E 0 8e 3e 64
        E 575 95 41 64
        E 1 9e 41 64
        E 576 85 41 64
        E 0 8e 41 64
        E 0 95 46 66
        E 0 9e 46 66
        E 578 85 46 66
        E 0 8e 46 66
        E 1 95 4a 64
        E 0 9e 4a 64
        E 575 85 4a 64
        E 0 8e 4a 64
        E 0 8f 2e 66
        E 0 95 46 66
        E 0 9e 46 66
        E 0 9f 2e 5b
        E 1152 85 46 66
        E 0 8e 46 66
        E 1 95 46 66
        E 0 9e 46 66
        E 1149 85 46 66
        E 0 8e 46 66
        E 577 95 46 66
        E 0 9e 46 66
        E 575 85 46 66
        E 0 8e 46 66
        E 0 95 46 66
        E 0 9e 46 66
        E 578 85 46 66
        E 0 8e 46 66
        E 0 95 46 66
        E 0 9e 46 66
        E 577 85 46 66
        E 0 8e 46 66
        E 0 8f 2e 66
        E 0 95 43 64
        E 0 9e 43 64
        E 0 9f 34 5a
        E 1151 85 43 64
        E 0 8e 43 64
        E 0 95 43 64
        E 0 9e 43 64
        E 1151 85 43 64
        E 0 8e 43 64
        E 0 95 46 66
        E 0 9e 46 66
        E 1153 85 46 66
        E 0 8e 46 66
        E 0 95 44 66
        E 1 9e 44 66
        E 1150 85 44 66
        E 0 8e 44 66
        E 0 8f 34 64
        E 0 95 41 64
        E 0 9e 41 64
        E 0 9f 35 5a
        E 1151 85 41 64
        E 0 8e 41 64
        E 1 95 41 64
        E 0 9e 41 64
        E 1154 85 41 64
        E 0 8e 41 64
        E 575 95 41 64
        E 0 9e 41 64
        E 577 85 41 64
        E 0 8e 41 64
        E 0 95 41 64
        E 0 9e 41 64
        E 573 85 41 64
        E 0 8e 41 64
        E 1 95 43 64
        E 0 9e 43 64
        E 576 85 43 64
        E 0 8e 43 64
        E 0 95 44 66
        E 1 9e 44 66
        E 1151 85 44 66
        E 0 8e 44 66
        E 0 95 44 66
        E 0 9e 44 66
        E 1153 85 44 66
        E 0 8e 44 66
        E 1150 95 44 66
        E 0 9e 44 66
        E 576 85 44 66
        E 0 8e 44 66
        E 0 95 41 64
        E 1 9e 41 64
        E 577 85 41 64
        E 0 8e 41 64
        E 0 8f 35 64
        E 1 95 47 64
        E 0 9e 47 64
        E 0 9f 35 5a
        E 2300 85 47 64
        E 1 8e 47 64
        E 0 95 47 64
        E 0 9e 47 64
        E 1152 85 47 64
        E 0 8e 47 64
        E 0 95 48 64
        E 1 9e 48 64
        E 1152 85 48 64
        E 0 8e 48 64
        E 0 8f 35 64
        E 0 95 43 64
        E 0 9e 43 64
        E 0 9f 37 5a
        E 1152 85 43 64
        E 0 8e 43 64
        E 0 95 43 64
        E 0 9e 43 64
        E 1152 85 43 64
        E 0 8e 43 64
        E 0 8f 37 64
        E 0 9f 30 5a
        E 2303 8f 30 64
        E 0 95 3f 66
        E 0 9e 3f 66
        E 0 9f 30 5a
        E 2305 85 3f 66
        E 0 8e 3f 66
        E 0 95 3f 66
        E 0 9e 3f 66
        E 1154 85 3f 66
        E 0 8e 3f 66
        E 0 95 41 64
        E 0 9e 41 64
        E 1150 85 41 64
        E 0 8e 41 64
        E 0 95 43 64
        E 0 9e 43 64
        E 1152 85 43 64
        E 0 8e 43 64
        E 1 95 43 64
        E 0 9e 43 64
        E 1150 85 43 64
        E 0 8e 43 64
        E 0 95 43 64
        E 0 9e 43 64
        E 1154 85 43 64
        E 0 8e 43 64
        E 0 95 45 64
        E 0 9e 45 64
        E 1150 85 45 64
        E 0 8e 45 64
        E 0 8f 30 64
        E 0 95 45 64
        E 0 9e 45 64
        E 0 9f 36 5a
        E 577 85 45 64
        E 0 8e 45 64
        E 0 95 45 64
        E 0 9e 45 64
        E 576 85 45 64
        E 0 8e 45 64
        E 1 95 45 64
        E 0 9e 45 64
        E 1153 85 45 64
        E 0 8e 45 64
        E 1150 95 4a 64
        E 0 9e 4a 64
        E 1151 85 4a 64
        E 0 8e 4a 64
        E 0 95 45 64
        E 0 9e 45 64
        E 1152 85 45 64
        E 0 8e 45 64
        E 0 95 45 64
        E 0 9e 45 64
        E 1153 85 45 64
        E 0 8e 45 64
        E 1154 95 45 64
        E 0 9e 45 64
        E 576 85 45 64
        E 0 8e 45 64
        E 0 95 46 66
        E 0 9e 46 66
        E 573 85 46 66
        E 0 8e 46 66
        E 0 8f 36 64
        E 0 95 48 64
        E 0 9e 48 64
        E 0 9f 36 5a
        E 2304 85 48 64
        E 0 8e 48 64
        E 0 95 48 64
        E 0 9e 48 64
        E 1155 85 48 64
        E 0 8e 48 64
        E 0 95 46 66
        E 0 9e 46 66
        E 1150 85 46 66
        E 0 8e 46 66
        E 0 8f 36 64
        E 1 95 43 64
        E 0 9e 43 64
        E 0 9f 37 5a
        E 2303 85 43 64
        E 0 8e 43 64
        E 2305 8f 37 64
        E 0 95 3e 64
        E 0 9e 3e 64
        E 0 9f 37 5a
        E 2304 85 3e 64
        E 0 8e 3e 64
        E 0 95 3e 64
        E 0 9e 3e 64
        E 1151 85 3e 64
        E 0 8e 3e 64
        E 0 95 3e 64
        E 1 9e 3e 64
        E 1153 85 3e 64
        E 0 8e 3e 64
        E 0 95 43 64
        E 0 9e 43 64
        E 1150 85 43 64
        E 0 8e 43 64
        E 0 95 43 64
        E 0 9e 43 64
        E 1152 85 43 64
        E 0 8e 43 64
        E 0 95 46 66
        E 0 9e 46 66
        E 1152 85 46 66
        E 0 8e 46 66
        E 0 95 46 66
        E 0 9e 46 66
        E 576 85 46 66
        E 0 8e 46 66
        E 0 95 45 64
        E 0 9e 45 64
        E 577 85 45 64
        E 0 8e 45 64
        E 0 8f 37 64
        E 0 95 45 64
        E 0 9e 45 64
        E 0 9f 31 5a
        E 1150 85 45 64
        E 0 8e 45 64
        E 0 95 45 64
        E 0 9e 45 64
        E 1152 85 45 64
        E 0 8e 45 64
        E 577 95 49 64
        E 0 9e 49 64
        E 576 85 49 64
        E 0 8e 49 64
        E 0 95 49 64
        E 0 9e 49 64
        E 574 85 49 64
        E 0 8e 49 64
        E 0 95 4a 64
        E 0 9e 4a 64
        E 578 85 4a 64
        E 0 8e 4a 64
        E 0 8f 31 64
        E 0 95 45 64
        E 0 9e 45 64
        E 0 9f 35 5a
        E 1153 85 45 64
        E 0 8e 45 64
        E 0 95 45 64
        E 1 9e 45 64
        E 1150 85 45 64
        E 0 8e 45 64
        E 1153 95 47 64
        E 0 9e 47 64
        E 1150 85 47 64
        E 0 8e 47 64
        E 0 8f 35 64
        E 0 95 44 64
        E 0 9e 44 64
        E 0 9f 32 5a
        E 1152 85 44 64
        E 0 8e 44 64
        E 1 95 44 64
        E 0 9e 44 64
        E 1151 85 44 64
        E 0 8e 44 64
        E 576 95 44 64
        E 1 9e 44 64
        E 577 85 44 64
        E 0 8e 44 64
        E 0 95 44 64
        E 0 9e 44 64
        E 576 85 44 64
        E 0 8e 44 64
        E 0 95 45 64
        E 1 9e 45 64
        E 573 85 45 64
        E 0 8e 45 64
        E 0 95 47 64
        E 0 9e 47 64
        E 1153 85 47 64
        E 0 8e 47 64
        E 1 95 47 64
        E 0 9e 47 64
        E 1151 85 47 64
        E 0 8e 47 64
        E 576 95 47 64
        E 1 9e 47 64
        E 575 85 47 64
        E 0 8e 47 64
        E 0 95 4a 64
        E 0 9e 4a 64
        E 575 85 4a 64
        E 0 8e 4a 64
        E 0 95 48 64
        E 0 9e 48 64
        E 578 85 48 64
        E 0 8e 48 64
        E 0 8f 32 64
        E 0 95 45 64
        E 0 9e 45 64
        E 0 9f 39 5a
        E 1150 85 45 64
        E 1 8e 45 64
        E 0 95 45 64
        E 0 9e 45 64
        E 1151 85 45 64
        E 0 8e 45 64
        E 1154 95 45 64
        E 0 9e 45 64
        E 1152 85 45 64
        E 0 8e 45 64
        E 0 8f 39 64
        E 0 95 42 64
        E 0 9e 42 64
        E 0 9f 33 5a
        E 1151 85 42 64
        E 0 8e 42 64
        E 0 95 42 64
        E 0 9e 42 64
        E 1152 85 42 64
        E 0 8e 42 64
        E 1153 95 42 64
        E 0 9e 42 64
        E 1151 85 42 64
        E 0 8e 42 64
        E 0 8f 33 64
        E 0 95 42 64
        E 0 9e 42 64
        E 0 9f 33 5a
        E 1152 85 42 64
        E 0 8e 42 64
        E 0 95 42 64
        E 0 9e 42 64
        E 1152 85 42 64
        E 0 8e 42 64
        E 0 95 42 64
        E 1 9e 42 64
        E 1150 85 42 64
        E 0 8e 42 64
        E 0 95 43 64
        E 0 9e 43 64
        E 1151 85 43 64
        E 0 8e 43 64
        E 0 95 45 64
        E 1 9e 45 64
        E 1154 85 45 64
        E 0 8e 45 64
        E 0 95 45 64
        E 0 9e 45 64
        E 1152 85 45 64
        E 0 8e 45 64
        E 1152 95 48 64
        E 0 9e 48 64
        E 576 85 48 64
        E 0 8e 48 64
        E 1 95 48 64
        E 0 9e 48 64
        E 575 85 48 64
        E 0 8e 48 64
        E 0 8f 33 64
        E 0 95 45 64
        E 0 9e 45 64
        E 0 9f 33 5a
        E 2303 85 45 64
        E 0 8e 45 64
        E 0 95 45 64
        E 0 9e 45 64
        E 1152 85 45 64
        E 0 8e 45 64
        E 0 95 43 64
        E 0 9e 43 64
        E 1153 85 43 64
        E 0 8e 43 64
        E 0 8f 33 64
        E 0 95 40 64
        E 0 9e 40 64
        E 0 9f 34 5a
        E 1150 85 40 64
        E 0 8e 40 64
        E 0 95 40 64
        E 1 9e 40 64
        E 1151 85 40 64
        E 0 8e 40 64
        E 578 95 47 64
        E 1 9e 47 64
        E 575 85 47 64
        E 0 8e 47 64
        E 0 95 47 64
        E 0 9e 47 64
        E 574 85 47 64
        E 0 8e 47 64
        E 0 95 49 64
        E 0 9e 49 64
        E 577 85 49 64
        E 0 8e 49 64
        E 0 8f 34 64
        E 0 95 49 64
        E 0 9e 49 64
        E 0 9f 2e 5a
        E 1152 85 49 64
        E 0 8e 49 64
        E 0 95 42 64
        E 0 9e 42 64
        E 1151 85 42 64
        E 0 8e 42 64
        E 2304 95 42 64
        E 0 9e 42 64
        E 1153 85 42 64
        E 0 8e 42 64
        E 0 95 42 64
        E 0 9e 42 64
        E 1151 85 42 64
        E 0 8e 42 64
        E 0 95 42 64
        E 1 9e 42 64
        E 1152 85 42 64
        E 0 8e 42 64
        E 0 95 42 64
        E 0 9e 42 64
        E 576 85 42 64
        E 0 8e 42 64
        E 0 95 43 64
        E 0 9e 43 64
        E 577 85 43 64
        E 0 8e 43 64
        E 0 8f 2e 64
        E 1 95 40 64
        E 0 9e 40 64
        E 0 9f 2e 5a
        E 1151 85 40 64
        E 0 8e 40 64
        E 0 95 40 64
        E 0 9e 40 64
        E 1151 85 40 64
        E 0 8e 40 64
        E 0 95 46 64
        E 0 9e 46 64
        E 1152 85 46 64
        E 0 8e 46 64
        E 0 95 46 64
        E 0 9e 46 64
        E 575 85 46 64
        E 1 8e 46 64
        E 0 95 47 64
        E 0 9e 47 64
        E 576 85 47 64
        E 0 8e 47 64
        E 0 8f 2e 64
        E 1 95 42 64
        E 0 9e 42 64
        E 0 9f 32 5a
        E 1153 85 42 64
        E 0 8e 42 64
        E 0 95 42 64
        E 0 9e 42 64
        E 1150 85 42 64
        E 0 8e 42 64
        E 2305 8f 32 64
        E 0 95 47 64
        E 0 9e 47 64
        E 0 9f 32 5a
        E 2304 85 47 64
        E 0 8e 47 64
        E 0 95 47 64
        E 0 9e 47 64
        E 1151 85 47 64
        E 0 8e 47 64
        E 0 95 4a 64
        E 0 9e 4a 64
        E 1152 85 4a 64
        E 0 8e 4a 64
        E 0 95 47 64
        E 0 9e 47 64
        E 1152 85 47 64
        E 0 8e 47 64
        E 0 95 47 64
        E 0 9e 47 64
        E 1153 85 47 64
        E 0 8e 47 64
        E 2302 8f 32 64
        E 1 95 42 64
        E 0 9e 42 64
        E 0 9f 32 5a
        E 2304 85 42 64
        E 0 8e 42 64
        E 0 95 42 64
        E 0 9e 42 64
        E 1151 85 42 64
        E 1 8e 42 64
        E 0 95 44 64
        E 0 9e 44 64
        E 1152 85 44 64
        E 0 8e 44 64
        E 0 8f 32 64
        E 0 95 44 64
        E 1 9e 44 64
        E 0 9f 29 59
        E 1151 85 44 64
        E 0 8e 44 64
        E 0 95 44 64
        E 0 9e 44 64
        E 1153 85 44 64
        E 0 8e 44 64
        E 1151 95 44 64
        E 0 9e 44 64
        E 576 85 44 64
        E 0 8e 44 64
        E 1 95 45 64
        E 0 9e 45 64
        E 576 85 45 64
        E 0 8e 45 64
        E 0 8f 29 63
        E 0 95 47 64
        E 0 9e 47 64
        E 0 9f 29 5a
        E 1152 85 47 64
        E 0 8e 47 64
        E 0 95 47 64
        E 1 9e 47 64
        E 1150 85 47 64
        E 0 8e 47 64
        E 1152 95 47 64
        E 0 9e 47 64
        E 577 85 47 64
        E 0 8e 47 64
        E 0 95 44 64
        E 0 9e 44 64
        E 574 85 44 64
        E 0 8e 44 64
        E 0 8f 29 64
        E 0 95 41 63
        E 0 9e 41 63
        E 0 9f 2f 5a
        E 1153 85 41 63
        E 0 8e 41 63
        E 0 95 41 63
        E 0 9e 41 63
        E 1154 85 41 63
        E 0 8e 41 63
        E 2302 8f 2f 64
        E 0 95 41 63
        E 1 9e 41 63
        E 0 9f 2f 5a
        E 1150 85 41 63
        E 0 8e 41 63
        E 0 95 42 64
        E 0 9e 42 64
        E 1152 85 42 64
        E 0 8e 42 64
        E 0 95 44 64
        E 1 9e 44 64
        E 1151 85 44 64
        E 0 8e 44 64
        E 0 95 44 64
        E 0 9e 44 64
        E 577 85 44 64
        E 0 8e 44 64
        E 0 95 45 64
        E 0 9e 45 64
        E 577 85 45 64
        E 0 8e 45 64
        E 0 8f 2f 64
        E 0 95 42 64
        E 0 9e 42 64
        E 0 9f 2d 5a
        E 1151 85 42 64
        E 0 8e 42 64
        E 0 95 42 64
        E 0 9e 42 64
        E 1153 85 42 64
        E 0 8e 42 64
        E 575 95 49 64
        E 0 9e 49 64
        E 576 85 49 64
        E 0 8e 49 64
        E 0 95 49 64
        E 0 9e 49 64
        E 576 85 49 64
        E 0 8e 49 64
        E 0 95 49 64
        E 0 9e 49 64
        E 575 85 49 64
        E 0 8e 49 64
        E 0 8f 2d 64
        E 0 95 45 64
        E 0 9e 45 64
        E 0 9f 2d 5a
        E 1152 85 45 64
        E 0 8e 45 64
        E 0 95 45 64
        E 0 9e 45 64
        E 1153 85 45 64
        E 0 8e 45 64
        E 0 95 45 64
        E 0 9e 45 64
        E 1152 85 45 64
        E 0 8e 45 64
        E 0 95 45 64
        E 0 9e 45 64
        E 575 85 45 64
        E 0 8e 45 64
        E 0 95 47 64
        E 0 9e 47 64
        E 577 85 47 64
        E 0 8e 47 64
        E 0 8f 2d 64
        E 0 95 44 64
        E 0 9e 44 64
        E 0 9f 32 5a
        E 1153 85 44 64
        E 0 8e 44 64
        E 0 95 44 64
        E 0 9e 44 64
        E 1152 85 44 64
        E 0 8e 44 64
        E 577 95 47 64
        E 0 9e 47 64
        E 575 85 47 64
        E 0 8e 47 64
        E 0 95 4a 64
        E 0 9e 4a 64
        E 574 85 4a 64
        E 0 8e 4a 64
        E 0 95 49 64
        E 0 9e 49 64
        E 577 85 49 64
        E 0 8e 49 64
        E 0 8f 32 64
        E 0 95 45 64
        E 0 9e 45 64
        E 0 9f 31 5a
        E 1153 85 45 64
        E 0 8e 45 64
        E 0 95 45 64
        E 0 9e 45 64
        E 1151 85 45 64
        E 0 8e 45 64
        E 1151 95 45 64
        E 0 9e 45 64
        E 1153 85 45 64
        E 0 8e 45 64
        E 0 95 40 64
        E 0 9e 40 64
        E 1152 85 40 64
        E 0 8e 40 64
        E 1 95 40 64
        E 0 9e 40 64
        E 1151 85 40 64
        E 0 8e 40 64
        E 1152 95 40 64
        E 0 9e 40 64
        E 1152 85 40 64
        E 0 8e 40 64
        E 0 8f 31 64
        E 0 95 43 64
        E 0 9e 43 64
        E 0 9f 31 5a
        E 1152 85 43 64
        E 0 8e 43 64
        E 0 95 43 64
        E 0 9e 43 64
        E 1151 85 43 64
        E 0 8e 43 64
        E 0 95 43 64
        E 0 9e 43 64
        E 1153 85 43 64
        E 0 8e 43 64
        E 0 95 42 64
        E 0 9e 42 64
        E 1151 85 42 64
        E 0 8e 42 64
        E 0 8f 31 64
        E 0 95 3e 64
        E 0 9e 3e 64
        E 0 9f 32 5a
        E 1153 85 3e 64
        E 0 8e 3e 64
        E 0 95 3e 64
        E 1 9e 3e 64
        E 1152 85 3e 64
        E 0 8e 3e 64
        E 575 95 45 64
        E 0 9e 45 64
        E 574 85 45 64
        E 1 8e 45 64
        E 0 95 45 64
        E 0 9e 45 64
        E 579 85 45 64
        E 0 8e 45 64
        E 0 95 45 64
        E 0 9e 45 64
        E 574 85 45 64
        E 0 8e 45 64
        E 0 8f 32 64
        E 0 95 42 64
        E 0 9e 42 64
        E 0 9f 30 5a
        E 1152 85 42 64
        E 0 8e 42 64
        E 0 95 42 64
        E 0 9e 42 64
        E 1152 85 42 64
        E 0 8e 42 64
        E 2303 95 45 64
        E 0 9e 45 64
        E 1153 85 45 64
        E 0 8e 45 64
        E 0 95 47 64
        E 0 9e 47 64
        E 1152 85 47 64
        E 0 8e 47 64
        E 0 95 48 64
        E 0 9e 48 64
        E 1152 85 48 64
        E 0 8e 48 64
        E 0 95 48 64
        E 1 9e 48 64
        E 576 85 48 64
        E 0 8e 48 64
        E 0 95 47 64
        E 0 9e 47 64
        E 575 85 47 64
        E 0 8e 47 64
        E 0 8f 30 64
        E 0 95 43 64
        E 0 9e 43 64
        E 0 9f 2b 5a
        E 2305 85 43 64
        E 0 8e 43 64
        E 2302 95 3e 64
        E 1 9e 3e 64
        E 2305 85 3e 64
        E 0 8e 3e 64
        E 0 95 3e 64
        E 0 9e 3e 64
        E 1152 85 3e 64
        E 0 8e 3e 64
        E 0 95 3e 64
        E 0 9e 3e 64
        E 1150 85 3e 64
        E 0 8e 3e 64
        E 0 8f 2b 64
        E 1 95 43 64
        E 0 9e 43 64
        E 0 9f 2b 5a
        E 1152 85 43 64
        E 0 8e 43 64
        E 1 95 43 64
        E 0 9e 43 64
        E 1150 85 43 64
        E 0 8e 43 64
        E 2305 95 47 64
        E 0 9e 47 64
        E 1152 85 47 64
        E 0 8e 47 64
        E 0 95 47 64
        E 0 9e 47 64
        E 1153 85 47 64
        E 0 8e 47 64
        E 1 95 43 64
        E 0 9e 43 64
        E 1149 85 43 64
        E 0 8e 43 64
        E 0 95 42 64
        E 0 9e 42 64
        E 577 85 42 64
        E 0 8e 42 64
        E 1 95 43 64
        E 0 9e 43 64
        E 576 85 43 64
        E 1 8e 43 64
        E 0 8f 2b 64
        E 0 95 40 64
        E 0 9e 40 64
        E 0 9f 30 5a
        E 1150 85 40 64
        E 0 8e 40 64
        E 0 95 40 64
        E 0 9e 40 64
        E 1151 85 40 64
        E 0 8e 40 64
        E 2305 95 48 64
        E 0 9e 48 64
        E 2304 85 48 64
        E 0 8e 48 64
        E 0 95 42 64
        E 0 9e 42 64
        E 1152 85 42 64
        E 0 8e 42 64
        E 0 95 43 64
        E 0 9e 43 64
        E 1153 85 43 64
        E 0 8e 43 64
        E 0 8f 30 64
        E 0 95 3e 64
        E 1 9e 3e 64
        E 0 9f 32 5a
        E 1150 85 3e 64
        E 0 8e 3e 64
        E 0 95 3e 64
        E 0 9e 3e 64
        E 1152 85 3e 64
        E 0 8e 3e 64
        E 0 8f 32 64
        E 0 9f 2b 5a
        E 2305 8f 2b 64
        E 0 9f 2b 5a
        E 1151 9a 43 64
        E 0 9e 43 64
        E 1152 8a 43 64
        E 0 8e 43 64
        E 1 9a 47 64
        E 0 9e 47 64
        E 576 8a 47 64
        E 0 8e 47 64
        E 1 9a 47 64
        E 0 9e 47 64
        E 576 8a 47 64
        E 0 8e 47 64
        E 0 9a 47 64
        E 1 9e 47 64
        E 573 8a 47 64
        E 0 8e 47 64
        E 0 9a 48 64
        E 0 9e 48 64
        E 576 8a 48 64
        E 0 8e 48 64
        E 0 8f 2b 64
        E 0 9a 43 64
        E 0 9e 43 64
        E 0 9f 30 5a
        E 2305 8a 43 64
        E 0 8e 43 64
        E 2304 9a 40 64
        E 1 9e 40 64
        E 2302 8a 40 64
        E 0 8e 40 64
        E 0 9a 40 64
        E 0 9e 40 64
        E 1153 8a 40 64
        E 0 8e 40 64
        E 0 9a 41 64
        E 0 9e 41 64
        E 1151 8a 41 64
        E 0 8e 41 64
        E 0 8f 30 64
        E 0 9a 43 64
        E 0 9e 43 64
        E 0 9f 30 5a
        E 1151 8a 43 64
        E 0 8e 43 64
        E 0 9a 43 64
        E 0 9e 43 64
        E 1153 8a 43 64
        E 0 8e 43 64
        E 1151 9a 46 66
        E 0 9e 46 66
        E 578 8a 46 66
        E 0 8e 46 66
        E 0 9a 46 66
        E 0 9e 46 66
        E 575 8a 46 66
        E 0 8e 46 66
        E 0 9a 43 64
        E 0 9e 43 64
        E 2305 8a 43 64
        E 0 8e 43 64
        E 0 9a 43 64
        E 0 9e 43 64
        E 1150 8a 43 64
        E 0 8e 43 64
        E 0 9a 45 64
        E 0 9e 45 64
        E 1154 8a 45 64
        E 0 8e 45 64
        E 0 8f 30 64
        E 0 9a 41 64
        E 0 9e 41 64
        E 0 9f 35 5a
        E 2302 8a 41 64
        E 0 8e 41 64
        E 576 9a 45 64
        E 0 9e 45 64
        E 577 8a 45 64
        E 0 8e 45 64
        E 0 9a 45 64
        E 0 9e 45 64
        E 577 8a 45 64
        E 0 8e 45 64
        E 0 9a 43 64
        E 0 9e 43 64
        E 576 8a 43 64
        E 0 8e 43 64
        E 0 8f 35 64
        E 1 9a 43 64
        E 0 9e 43 64
        E 0 9f 2f 5a
        E 1151 8a 43 64
        E 0 8e 43 64
        E 0 9a 43 64
        E 1 9e 43 64
        E 1151 8a 43 64
        E 0 8e 43 64
        E 1151 9a 3e 64
        E 0 9e 3e 64
        E 1151 8a 3e 64
        E 0 8e 3e 64
        E 0 8f 2f 64
        E 0 9a 41 64
        E 1 9e 41 64
        E 0 9f 2f 5a
        E 1152 8a 41 64
        E 0 8e 41 64
        E 0 9a 41 64
        E 0 9e 41 64
        E 1152 8a 41 64
        E 0 8e 41 64
        E 0 9a 41 64
        E 0 9e 41 64
        E 1152 8a 41 64
        E 0 8e 41 64
        E 0 9a 40 64
        E 0 9e 40 64
        E 1153 8a 40 64
        E 0 8e 40 64
        E 0 8f 2f 64
        E 0 9a 40 64
        E 0 9e 40 64
        E 0 9f 2e 5b
        E 1149 8a 40 64
        E 0 8e 40 64
        E 1 9a 40 64
        E 0 9e 40 64
        E 1153 8a 40 64
        E 0 8e 40 64
        E 578 9a 43 64
        E 0 9e 43 64
        E 574 8a 43 64
        E 0 8e 43 64
        E 0 9a 43 64
        E 0 9e 43 64
        E 575 8a 43 64
        E 0 8e 43 64
        E 0 9a 45 64
        E 0 9e 45 64
        E 577 8a 45 64
        E 0 8e 45 64
        E 1 8f 2e 66
        E 0 9a 46 66
        E 0 9e 46 66
        E 0 9f 2e 5b
        E 2303 8a 46 66
        E 0 8e 46 66
        E 2303 95 43 64
        E 0 9e 43 64
        E 1154 85 43 64
        E 0 8e 43 64
        E 0 95 43 64
        E 0 9e 43 64
        E 576 85 43 64
        E 0 8e 43 64
        E 1 95 43 64
        E 0 9e 43 64
        E 574 85 43 64
        E 0 8e 43 64
        E 0 95 43 64
        E 0 9e 43 64
        E 1152 85 43 64
        E 0 8e 43 64
        E 0 95 43 64
        E 0 9e 43 64
        E 1153 85 43 64
        E 0 8e 43 64
        E 0 8f 2e 66
        E 0 95 48 64
        E 0 9e 48 64
        E 0 9f 33 5b
        E 1151 85 48 64
        E 0 8e 48 64
        E 4 95 48 64
        E 0 9e 48 64
        E 1149 85 48 64
        E 0 8e 48 64
        E 1152 95 48 64
        E 1 9e 48 64
        E 575 85 48 64
        E 0 8e 48 64
        E 0 95 48 64
        E 0 9e 48 64
        E 575 85 48 64
        E 0 8e 48 64
        E 0 95 43 64
        E 0 9e 43 64
        E 2305 85 43 64
        E 0 8e 43 64
        E 0 95 43 64
        E 0 9e 43 64
        E 1151 85 43 64
        E 0 8e 43 64
        E 0 95 42 64
        E 0 9e 42 64
        E 1154 85 42 64
        E 0 8e 42 64
        E 0 8f 33 66
        E 0 95 45 64
        E 0 9e 45 64
        E 0 9f 32 5a
        E 2305 85 45 64
        E 0 8e 45 64
        E 1149 9a 3e 64
        E 0 9e 3e 64
        E 1153 8a 3e 64
        E 0 8e 3e 64
        E 0 9a 42 64
        E 0 9e 42 64
        E 1151 8a 42 64
        E 1 8e 42 64
        E 0 9a 42 64
        E 0 9e 42 64
        E 1150 8a 42 64
        E 0 8e 42 64
        E 1154 9a 45 64
        E 0 9e 45 64
        E 1151 8a 45 64
        E 0 8e 45 64
        E 0 8f 32 64
        E 0 9a 3e 64
        E 0 9e 3e 64
        E 1 9f 32 5a
        E 1150 8a 3e 64
        E 0 8e 3e 64
        E 0 9a 3e 64
        E 0 9e 3e 64
        E 1153 8a 3e 64
        E 0 8e 3e 64
        E 2306 8f 32 64
        E 0 9a 45 64
        E 0 9e 45 64
        E 0 9f 35 5a
        E 1150 8a 45 64
        E 1 8e 45 64
        E 0 9a 45 64
        E 0 9e 45 64
        E 575 8a 45 64
        E 0 8e 45 64
        E 0 9a 45 64
        E 0 9e 45 64
        E 576 8a 45 64
        E 0 8e 45 64
        E 0 9a 45 64
        E 0 9e 45 64
        E 1152 8a 45 64
        E 0 8e 45 64
        E 0 9a 44 64
        E 0 9e 44 64
        E 1153 8a 44 64
        E 1 8e 44 64
        E 0 8f 35 64
        E 0 9a 47 64
        E 0 9e 47 64
        E 0 9f 34 5a
        E 1151 8a 47 64
        E 0 8e 47 64
        E 0 9a 47 64
        E 0 9e 47 64
        E 1152 8a 47 64
        E 1 8e 47 64
        E 2304 95 40 64
        E 0 9e 40 64
        E 1150 85 40 64
        E 0 8e 40 64
        E 0 95 40 64
        E 0 9e 40 64
        E 577 85 40 64
        E 0 8e 40 64
        E 1 95 40 64
        E 0 9e 40 64
        E 574 85 40 64
        E 0 8e 40 64
        E 0 95 40 64
        E 0 9e 40 64
        E 1153 85 40 64
        E 0 8e 40 64
        E 0 95 42 64
        E 0 9e 42 64
        E 1150 85 42 64
        E 0 8e 42 64
        E 0 8f 34 64
        E 0 95 44 64
        E 0 9e 44 64
        E 0 9f 34 5a
        E 1153 85 44 64
        E 0 8e 44 64
        E 0 95 44 64
        E 0 9e 44 64
        E 1154 85 44 64
        E 0 8e 44 64
        E 1152 95 44 64
        E 0 9e 44 64
        E 1149 85 44 64
        E 0 8e 44 64
        E 1 95 47 64
        E 0 9e 47 64
        E 1153 85 47 64
        E 0 8e 47 64
        E 0 95 47 64
        E 0 9e 47 64
        E 1151 85 47 64
        E 0 8e 47 64
        E 0 95 47 64
        E 0 9e 47 64
        E 1151 85 47 64
        E 0 8e 47 64
        E 0 95 49 64
        E 1 9e 49 64
        E 1151 85 49 64
        E 0 8e 49 64
        E 0 8f 34 64
        E 1 95 45 64
        E 0 9e 45 64
        E 2 9f 31 5a
        E 2304 85 45 64
        E 0 8e 45 64
        E 2303 95 40 64
        E 0 9e 40 64
        E 1151 85 40 64
        E 0 8e 40 64
        E 1 95 40 64
        E 0 9e 40 64
        E 1151 85 40 64
        E 0 8e 40 64
        E 0 95 40 64
        E 0 9e 40 64
        E 1153 85 40 64
        E 0 8e 40 64
        E 0 95 40 64
        E 0 9e 40 64
        E 575 85 40 64
        E 0 8e 40 64
        E 0 95 40 64
        E 0 9e 40 64
        E 575 85 40 64
        E 0 8e 40 64
        E 0 8f 31 64
        E 0 95 45 64
        E 0 9e 45 64
        E 0 9f 31 5a
        E 2305 85 45 64
        E 0 8e 45 64
        E 577 9a 40 64
        E 0 9e 40 64
        E 576 8a 40 64
        E 0 8e 40 64
        E 0 9a 43 64
        E 0 9e 43 64
        E 577 8a 43 64
        E 0 8e 43 64
        E 0 9a 42 64
        E 0 9e 42 64
        E 574 8a 42 64
        E 0 8e 42 64
        E 0 8f 31 64
        E 0 9a 42 64
        E 0 9e 42 64
        E 0 9f 32 5a
        E 578 8a 42 64
        E 0 8e 42 64
        E 0 9a 42 64
        E 0 9e 42 64
        E 573 8a 42 64
        E 0 8e 42 64
        E 0 9a 42 64
        E 0 9e 42 64
        E 1153 8a 42 64
        E 0 8e 42 64
        E 1152 95 45 64
        E 0 9e 45 64
        E 1152 85 45 64
        E 0 8e 45 64
        E 0 8f 32 64
        E 0 95 3e 64
        E 0 9e 3e 64
        E 0 9f 32 5a
        E 1152 85 3e 64
        E 0 8e 3e 64
        E 0 95 3e 64
        E 0 9e 3e 64
        E 1151 85 3e 64
        E 0 8e 3e 64
        E 1153 9a 45 64
        E 0 9e 45 64
        E 1153 8a 45 64
        E 0 8e 45 64
        E 0 8f 32 64
        E 0 9a 45 64
        E 0 9e 45 64
        E 0 9f 2e 5b
        E 1151 8a 45 64
        E 0 8e 45 64
        E 0 9a 43 64
        E 1 9e 43 64
        E 2303 8a 43 64
        E 0 8e 43 64
        E 0 9a 43 64
        E 0 9e 43 64
        E 577 8a 43 64
        E 0 8e 43 64
        E 0 9a 3e 64
        E 0 9e 3e 64
        E 576 8a 3e 64
        E 0 8e 3e 64
        E 0 8f 2e 66
        E 0 9a 40 64
        E 1 9e 40 64
        E 0 9f 2d 5a
        E 1150 8a 40 64
        E 0 8e 40 64
        E 0 9a 40 64
        E 0 9e 40 64
        E 1152 8a 40 64
        E 0 8e 40 64
        E 577 95 45 64
        E 0 9e 45 64
        E 577 85 45 64
        E 0 8e 45 64
        E 0 95 45 64
        E 0 9e 45 64
        E 573 85 45 64
        E 0 8e 45 64
        E 1 95 45 64
        E 0 9e 45 64
        E 576 85 45 64
        E 0 8e 45 64
        E 0 8f 2d 64
        E 0 95 42 64
        E 0 9e 42 64
        E 0 9f 30 5a
        E 1152 85 42 64
        E 0 8e 42 64
        E 0 95 42 64
        E 0 9e 42 64
        E 1153 85 42 64
        E 0 8e 42 64
        E 2304 8f 30 64
        E 1 95 42 64
        E 0 9e 42 64
        E 0 9f 30 5a
        E 1150 85 42 64
        E 0 8e 42 64
        E 0 95 42 64
        E 0 9e 42 64
        E 1154 85 42 64
        E 0 8e 42 64
        E 0 95 42 64
        E 0 9e 42 64
        E 1149 85 42 64
        E 0 8e 42 64
        E 0 95 42 64
        E 0 9e 42 64
        E 576 85 42 64
        E 0 8e 42 64
        E 0 95 43 64
        E 0 9e 43 64
        E 577 85 43 64
        E 0 8e 43 64
        E 1 95 45 64
        E 0 9e 45 64
        E 1150 85 45 64
        E 0 8e 45 64
        E 0 95 45 64
        E 0 9e 45 64
        E 1151 85 45 64
        E 0 8e 45 64
        E 1154 95 48 64
        E 0 9e 48 64
        E 1153 85 48 64
        E 0 8e 48 64
        E 0 8f 30 64
        E 0 95 45 64
        E 0 9e 45 64
        E 0 9f 30 5a
        E 2302 85 45 64
        E 0 8e 45 64
        E 1 95 45 64
        E 0 9e 45 64
        E 1151 85 45 64
        E 0 8e 45 64
        E 0 95 46 66
        E 0 9e 46 66
        E 1153 85 46 66
        E 0 8e 46 66
        E 0 8f 30 64
        E 2 95 43 64
        E 0 9e 43 64
        E 0 9f 2e 5b
        E 1149 85 43 64
        E 0 8e 43 64
        E 0 95 43 64
        E 0 9e 43 64
        E 1154 85 43 64
        E 0 8e 43 64
        E 2305 8f 2e 66
        E 0 9f 2e 5b
        E 1151 95 3e 64
        E 0 9e 3e 64
        E 1152 85 3e 64
        E 0 8e 3e 64
        E 0 95 41 64
        E 4 9e 41 64
        E 571 85 41 64
        E 0 8e 41 64
        E 0 95 41 64
        E 0 9e 41 64
        E 576 85 41 64
        E 0 8e 41 64
        E 0 95 41 64
        E 1 9e 41 64
        E 574 85 41 64
        E 0 8e 41 64
        E 0 95 43 64
        E 0 9e 43 64
        E 576 85 43 64
        E 0 8e 43 64
        E 0 95 44 66
        E 0 9e 44 66
        E 1153 85 44 66
        E 0 8e 44 66
        E 0 95 44 66
        E 1 9e 44 66
        E 1151 85 44 66
        E 0 8e 44 66
        E 1152 95 48 64
        E 0 9e 48 64
        E 1152 85 48 64
        E 0 8e 48 64
        E 1 8f 2e 66
        E 0 95 44 66
        E 0 9e 44 66
        E 1 9f 2e 5b
        E 1149 85 44 66
        E 0 8e 44 66
        E 0 95 44 66
        E 0 9e 44 66
        E 1155 85 44 66
        E 0 8e 44 66
        E 0 95 44 66
        E 0 9e 44 66
        E 1149 85 44 66
        E 0 8e 44 66
        E 0 95 43 64
        E 0 9e 43 64
        E 1154 85 43 64
        E 0 8e 43 64
        E 0 8f 2e 66
        E 0 95 3f 66
        E 0 9e 3f 66
        E 0 9f 33 5b
        E 1150 85 3f 66
        E 1 8e 3f 66
        E 0 95 3f 66
        E 0 9e 3f 66
        E 1153 85 3f 66
        E 0 8e 3f 66
        E 575 95 46 66
        E 1 9e 46 66
        E 575 85 46 66
        E 0 8e 46 66
        E 0 95 46 66
        E 0 9e 46 66
        E 577 85 46 66
        E 0 8e 46 66
        E 0 95 48 64
        E 0 9e 48 64
        E 575 85 48 64
        E 0 8e 48 64
        E 0 8f 33 66
        E 0 95 48 64
        E 0 9e 48 64
        E 0 9f 2c 5b
        E 1153 85 48 64
        E 0 8e 48 64
        E 0 95 48 64
        E 0 9e 48 64
        E 1150 85 48 64
        E 0 8e 48 64
        E 1152 95 48 64
        E 0 9e 48 64
        E 1154 85 48 64
        E 1 8e 48 64
        E 0 95 44 66
        E 0 9e 44 66
        E 1151 85 44 66
        E 0 8e 44 66
        E 0 95 44 66
        E 0 9e 44 66
        E 1150 85 44 66
        E 0 8e 44 66
        E 0 95 44 66
        E 0 9e 44 66
        E 1153 85 44 66
        E 0 8e 44 66
        E 0 95 43 64
        E 1 9e 43 64
        E 1151 85 43 64
        E 2 8e 43 64
        E 0 8f 2c 66
        E 0 95 3f 66
        E 0 9e 3f 66
        E 0 9f 2e 5b
        E 1149 85 3f 66
        E 0 8e 3f 66
        E 0 95 3f 66
        E 0 9e 3f 66
        E 1153 85 3f 66
        E 0 8e 3f 66
        E 1 8f 2e 66
        E 0 9f 33 5b
        E 2304 8f 33 66
        E 0 95 46 66
        E 0 9e 46 66
        E 2304 85 46 66
        E 0 8e 46 66
        E 0 95 46 66
        E 0 9e 46 66
        E 1151 85 46 66
        E 0 8e 46 66
        E 0 95 45 64
        E 0 9e 45 64
        E 1153 85 45 64
        E 0 8e 45 64
        E 0 95 45 64
        E 0 9e 45 64
        E 0 9f 31 5a
        E 1152 85 45 64
        E 0 8e 45 64
        E 0 95 45 64
        E 0 9e 45 64
        E 1150 85 45 64
        E 0 8e 45 64
        E 2308 95 45 64
        E 0 9e 45 64
        E 1150 85 45 64
        E 0 8e 45 64
        E 1 95 46 66
        E 0 9e 46 66
        E 1150 85 46 66
        E 0 8e 46 66
        E 0 95 43 64
        E 0 9e 43 64
        E 1151 85 43 64
        E 0 8e 43 64
        E 0 95 43 64
        E 0 9e 43 64
        E 577 85 43 64
        E 0 8e 43 64
        E 1 95 41 64
        E 0 9e 41 64
        E 575 85 41 64
        E 0 8e 41 64
        E 0 8f 31 64
        E 1 95 3e 64
        E 0 9e 3e 64
        E 0 9f 32 5a
        E 2303 85 3e 64
        E 0 8e 3e 64
        E 2303 95 45 64
        E 0 9e 45 64
        E 2306 85 45 64
        E 0 8e 45 64
        E 0 95 45 64
        E 0 9e 45 64
        E 1152 85 45 64
        E 0 8e 45 64
        E 0 95 45 64
        E 1 9e 45 64
        E 1151 85 45 64
        E 1 8e 45 64
        E 0 8f 32 64
        E 0 95 41 64
        E 0 9e 41 64
        E 0 9f 32 5a
        E 1150 85 41 64
        E 0 8e 41 64
        E 0 95 41 64
        E 0 9e 41 64
        E 1152 85 41 64
        E 0 8e 41 64
        E 1152 95 41 64
        E 0 9e 41 64
        E 577 85 41 64
        E 0 8e 41 64
        E 0 95 41 64
        E 0 9e 41 64
        E 576 85 41 64
        E 0 8e 41 64
        E 1 95 41 64
        E 0 9e 41 64
        E 2304 85 41 64
        E 0 8e 41 64
        E 0 95 43 64
        E 0 9e 43 64
        E 1151 85 43 64
        E 0 8e 43 64
        E 0 95 45 64
        E 0 9e 45 64
        E 1151 85 45 64
        E 0 8e 45 64
        E 1 8f 32 64
        E 0 95 3e 64
        E 0 9e 3e 64
        E 0 9f 32 5a
        E 1152 85 3e 64
        E 0 8e 3e 64
        E 1 95 3e 64
        E 0 9e 3e 64
        E 1150 85 3e 64
        E 0 8e 3e 64
        E 3454 95 45 64
        E 0 9e 45 64
        E 1153 85 45 64
        E 0 8e 45 64
        E 1 95 45 64
        E 0 9e 45 64
        E 1152 85 45 64
        E 0 8e 45 64
        E 0 95 47 64
        E 0 9e 47 64
        E 1154 85 47 64
        E 0 8e 47 64
        E 0 8f 32 64
        E 0 95 47 64
        E 0 9e 47 64
        E 0 9f 2c 5a
        E 1149 85 47 64
        E 0 8e 47 64
        E 0 95 47 64
        E 0 9e 47 64
        E 1154 85 47 64
        E 0 8e 47 64
        E 574 95 47 64
        E 0 9e 47 64
        E 578 85 47 64
        E 0 8e 47 64
        E 0 95 47 64
        E 0 9e 47 64
        E 575 85 47 64
        E 0 8e 47 64
        E 0 95 48 64
        E 0 9e 48 64
        E 576 85 48 64
        E 0 8e 48 64
        E 0 8f 2c 64
        E 0 95 45 64
        E 0 9e 45 64
        E 0 9f 2d 5a
        E 1152 85 45 64
        E 0 8e 45 64
        E 0 95 45 64
        E 0 9e 45 64
        E 1152 85 45 64
        E 0 8e 45 64
        E 2303 8f 2d 64
        E 1 95 40 64
        E 0 9e 40 64
        E 0 9f 2d 5a
        E 1152 85 40 64
        E 0 8e 40 64
        E 0 95 40 64
        E 0 9e 40 64
        E 577 85 40 64
        E 0 8e 40 64
        E 0 95 40 64
        E 0 9e 40 64
        E 576 85 40 64
        E 0 8e 40 64
        E 1 95 40 64
        E 0 9e 40 64
        E 1150 85 40 64
        E 0 8e 40 64
        E 0 95 40 64
        E 0 9e 40 64
        E 1152 85 40 64
        E 0 8e 40 64
        E 0 95 45 64
        E 0 9e 45 64
        E 1152 85 45 64
        E 0 8e 45 64
        E 1 95 45 64
        E 0 9e 45 64
        E 1151 85 45 64
        E 0 8e 45 64
        E 2304 8f 2d 64
        E 0 95 45 64
        E 0 9e 45 64
        E 0 9f 2d 5a
        E 1151 85 45 64
        E 0 8e 45 64
        E 0 95 45 64
        E 1 9e 45 64
        E 1154 85 45 64
        E 0 8e 45 64
        E 0 95 45 64
        E 0 9e 45 64
        E 1149 85 45 64
        E 0 8e 45 64
        E 0 95 43 64
        E 1 9e 43 64
        E 576 85 43 64
        E 0 8e 43 64
        E 0 95 45 64
        E 0 9e 45 64
        E 577 85 45 64
        E 0 8e 45 64
        E 0 8f 2d 64
        E 0 95 41 64
        E 1 9e 41 64
        E 0 9f 32 5a
        E 2302 85 41 64
        E 0 8e 41 64
        E 576 95 45 64
        E 0 9e 45 64
        E 574 85 45 64
        E 0 8e 45 64
        E 0 95 4a 64
        E 1 9e 4a 64
        E 577 85 4a 64
        E 0 8e 4a 64
        E 0 95 48 64
        E 0 9e 48 64
        E 577 85 48 64
        E 0 8e 48 64
        E 0 8f 32 64
        E 0 95 45 64
        E 0 9e 45 64
        E 0 9f 34 5a
        E 1150 85 45 64
        E 0 8e 45 64
        E 0 95 45 64
        E 0 9e 45 64
        E 1153 85 45 64
        E 0 8e 45 64
        E 0 8f 34 64
        E 0 9a 40 64
        E 0 9e 40 64
        E 0 9f 2d 5a
        E 2304 8a 40 64
        E 1 8e 40 64
        E 0 8f 2d 64
        E 0 9a 40 64
        E 0 9e 40 64
        E 0 9f 2d 5a
        E 1150 8a 40 64
        E 0 8e 40 64
        E 0 9a 40 64
        E 0 9e 40 64
        E 1153 8a 40 64
        E 0 8e 40 64
        E 0 9a 45 64
        E 0 9e 45 64
        E 1152 8a 45 64
        E 0 8e 45 64
        E 0 9a 45 64
        E 0 9e 45 64
        E 1154 8a 45 64
        E 0 8e 45 64
        E 0 8f 2d 64
        E 0 9a 41 64
        E 0 9e 41 64
        E 0 9f 32 5a
        E 1150 8a 41 64
        E 0 8e 41 64
        E 0 9a 41 64
        E 0 9e 41 64
        E 1153 8a 41 64
        E 0 8e 41 64
        E 576 9a 41 64
        E 0 9e 41 64
        E 575 8a 41 64
        E 0 8e 41 64
        E 0 9a 41 64
        E 0 9e 41 64
        E 576 8a 41 64
        E 0 8e 41 64
        E 0 9a 40 64
        E 0 9e 40 64
        E 575 8a 40 64
        E 0 8e 40 64
        E 0 8f 32 64
        E 0 9a 43 64
        E 0 9e 43 64
        E 0 9f 30 5a
        E 1152 8a 43 64
        E 0 8e 43 64
        E 0 9a 43 64
        E 0 9e 43 64
        E 1154 8a 43 64
        E 0 8e 43 64
        E 0 95 46 66
        E 0 9e 46 66
        E 1150 85 46 66
        E 0 8e 46 66
        E 0 95 46 66
        E 0 9e 46 66
        E 577 85 46 66
        E 0 8e 46 66
        E 0 95 45 64
        E 0 9e 45 64
        E 577 85 45 64
        E 0 8e 45 64
        E 0 8f 30 64
        E 0 95 41 64
        E 0 9e 41 64
        E 0 9f 35 5a
        E 1151 85 41 64
        E 0 8e 41 64
        E 0 95 41 64
        E 0 9e 41 64
        E 1153 85 41 64
        E 0 8e 41 64
        E 2303 95 3c 64
        E 0 9e 3c 64
        E 1152 85 3c 64
        E 0 8e 3c 64
        E 0 95 3c 64
        E 0 9e 3c 64
        E 1151 85 3c 64
        E 0 8e 3c 64
        E 0 95 41 64
        E 1 9e 41 64
        E 1152 85 41 64
        E 0 8e 41 64
        E 0 95 41 64
        E 0 9e 41 64
        E 576 85 41 64
        E 0 8e 41 64
        E 0 95 43 64
        E 0 9e 43 64
        E 576 85 43 64
        E 0 8e 43 64
        E 0 8f 35 64
        E 0 95 45 64
        E 0 9e 45 64
        E 0 9f 35 5a
        E 1152 85 45 64
        E 0 8e 45 64
        E 0 95 45 64
        E 0 9e 45 64
        E 1152 85 45 64
        E 0 8e 45 64
        E 576 95 45 64
        E 0 9e 45 64
        E 576 85 45 64
        E 0 8e 45 64
        E 0 95 46 66
        E 0 9e 46 66
        E 577 85 46 66
        E 0 8e 46 66
        E 0 95 48 64
        E 0 9e 48 64
        E 576 85 48 64
        E 0 8e 48 64
        E 0 95 41 64
        E 0 9e 41 64
        E 1152 85 41 64
        E 0 8e 41 64
        E 0 95 41 64
        E 0 9e 41 64
        E 1152 85 41 64
        E 0 8e 41 64
        E 1151 95 41 64
        E 0 9e 41 64
        E 1154 85 41 64
        E 0 8e 41 64
        E 0 8f 35 64
        E 0 95 46 66
        E 0 9e 46 66
        E 0 9f 32 5a
        E 1152 85 46 66
        E 0 8e 46 66
        E 0 95 46 66
        E 0 9e 46 66
        E 1149 85 46 66
        E 0 8e 46 66
        E 578 95 46 66
        E 0 9e 46 66
        E 575 85 46 66
        E 0 8e 46 66
        E 0 95 46 66
        E 0 9e 46 66
        E 576 85 46 66
        E 0 8e 46 66
        E 0 95 45 64
        E 0 9e 45 64
        E 576 85 45 64
        E 0 8e 45 64
        E 1 95 44 64
        E 0 9e 44 64
        E 2303 85 44 64
        E 0 8e 44 64
        E 1 95 47 64
        E 0 9e 47 64
        E 1151 85 47 64
        E 0 8e 47 64
        E 0 95 47 64
        E 0 9e 47 64
        E 576 85 47 64
        E 0 8e 47 64
        E 0 95 48 64
        E 0 9e 48 64
        E 576 85 48 64
        E 0 8e 48 64
        E 0 8f 32 64
        E 0 95 45 64
        E 0 9e 45 64
        E 0 9f 30 5a
        E 1152 85 45 64
        E 0 8e 45 64
        E 0 95 45 64
        E 0 9e 45 64
        E 1152 85 45 64
        E 0 8e 45 64
        E 1151 95 45 64
        E 0 9e 45 64
        E 1155 85 45 64
        E 0 8e 45 64
        E 0 8f 30 64
        E 0 95 42 64
        E 0 9e 42 64
        E 0 9f 33 5a
        E 1151 85 42 64
        E 0 8e 42 64
        E 0 95 42 64
        E 0 9e 42 64
        E 1152 85 42 64
        E 0 8e 42 64
        E 0 95 45 64
        E 0 9e 45 64
        E 1151 85 45 64
        E 0 8e 45 64
        E 0 95 45 64
        E 0 9e 45 64
        E 575 85 45 64
        E 0 8e 45 64
        E 0 95 43 64
        E 0 9e 43 64
        E 577 85 43 64
        E 0 8e 43 64
        E 0 8f 33 64
        E 0 95 40 64
        E 0 9e 40 64
        E 0 9f 34 5a
        E 2304 85 40 64
        E 0 8e 40 64
        E 1151 95 47 64
        E 0 9e 47 64
        E 1152 85 47 64
        E 0 8e 47 64
        E 1 95 43 64
        E 0 9e 43 64
        E 1152 85 43 64
        E 0 8e 43 64
        E 0 95 43 64
        E 0 9e 43 64
        E 1153 85 43 64
        E 0 8e 43 64
        E 0 95 43 64
        E 0 9e 43 64
        E 1151 85 43 64
        E 0 8e 43 64
        E 0 95 45 64
        E 0 9e 45 64
        E 577 85 45 64
        E 0 8e 45 64
        E 0 95 47 64
        E 0 9e 47 64
        E 575 8f 34 64
        E 0 85 47 64
        E 0 8e 47 64
        E 0 9f 34 5a
        E 0 95 40 64
        E 0 9e 40 64
        E 1152 85 40 64
        E 0 8e 40 64
        E 0 95 40 64
        E 0 9e 40 64
        E 1154 85 40 64
        E 0 8e 40 64
        E 1150 95 47 64
        E 0 9e 47 64
        E 1153 85 47 64
        E 1 8e 47 64
        E 0 95 47 64
        E 0 9e 47 64
        E 1151 85 47 64
        E 0 8e 47 64
        E 0 95 47 64
        E 0 9e 47 64
        E 1152 85 47 64
        E 0 8e 47 64
        E 0 95 47 64
        E 0 9e 47 64
        E 1151 85 47 64
        E 0 8e 47 64
        E 0 95 49 64
        E 0 9e 49 64
        E 1152 85 49 64
        E 0 8e 49 64
        E 0 8f 34 64
        E 0 95 44 64
        E 0 9e 44 64
        E 0 9f 35 59
        E 1153 85 44 64
        E 0 8e 44 64
        E 1 95 44 64
        E 0 9e 44 64
        E 1149 85 44 64
        E 1 8e 44 64
        E 2304 95 44 64
        E 0 9e 44 64
        E 1153 85 44 64
        E 0 8e 44 64
        E 0 95 44 64
        E 0 9e 44 64
        E 1149 85 44 64
        E 0 8e 44 64
        E 0 95 44 64
        E 0 9e 44 64
        E 1154 85 44 64
        E 0 8e 44 64
        E 0 95 44 64
        E 0 9e 44 64
        E 575 85 44 64
        E 0 8e 44 64
        E 0 95 45 64
        E 1 9e 45 64
        E 576 85 45 64
        E 0 8e 45 64
        E 0 8f 35 63
        E 0 95 42 64
        E 0 9e 42 64
        E 0 9f 36 5a
        E 2303 85 42 64
        E 0 8e 42 64
        E 2305 95 45 64
        E 1 9e 45 64
        E 2302 85 45 64
        E 0 8e 45 64
        E 1 95 45 64
        E 0 9e 45 64
        E 1153 85 45 64
        E 0 8e 45 64
        E 0 95 47 64
        E 0 9e 47 64
        E 1151 85 47 64
        E 0 8e 47 64
        E 1 8f 36 64
        E 0 95 49 64
        E 0 9e 49 64
        E 0 9f 36 5a
        E 1152 85 49 64
        E 0 8e 49 64
        E 0 95 49 64
        E 0 9e 49 64
        E 1151 85 49 64
        E 0 8e 49 64
        E 1152 95 49 64
        E 0 9e 49 64
        E 1151 85 49 64
        E 0 8e 49 64
        E 0 95 45 64
        E 0 9e 45 64
        E 1152 85 45 64
        E 0 8e 45 64
        E 0 95 45 64
        E 0 9e 45 64
        E 1154 85 45 64
        E 0 8e 45 64
        E 0 95 44 64
        E 0 9e 44 64
        E 1151 85 44 64
        E 0 8e 44 64
        E 0 95 42 64
        E 0 9e 42 64
        E 1153 85 42 64
        E 0 8e 42 64
        E 0 8f 36 64
        E 0 95 47 64
        E 0 9e 47 64
        E 0 9f 32 5a
        E 2305 85 47 64
        E 0 8e 47 64
        E 1150 95 42 64
        E 0 9e 42 64
        E 1151 85 42 64
        E 0 8e 42 64
        E 0 8f 32 64
        E 0 95 44 64
        E 0 9e 44 64
        E 0 9f 31 5a
        E 1154 85 44 64
        E 0 8e 44 64
        E 0 95 44 64
        E 0 9e 44 64
        E 1150 85 44 64
        E 0 8e 44 64
        E 1151 9a 47 64
        E 0 9e 47 64
        E 1154 8a 47 64
        E 0 8e 47 64
        E 0 8f 31 64
        E 0 9a 46 64
        E 0 9e 46 64
        E 0 9f 34 5a
        E 1152 8a 46 64
        E 0 8e 46 64
        E 0 9a 46 64
        E 0 9e 46 64
        E 1152 8a 46 64
        E 0 8e 46 64
        E 2303 9a 42 64
        E 0 9e 42 64
        E 1153 8a 42 64
        E 0 8e 42 64
        E 0 9a 42 64
        E 0 9e 42 64
        E 1151 8a 42 64
        E 0 8e 42 64
        E 0 9a 42 64
        E 0 9e 42 64
        E 1154 8a 42 64
        E 0 8e 42 64
        E 0 9a 42 64
        E 1 9e 42 64
        E 573 8a 42 64
        E 0 8e 42 64
        E 1 9a 42 64
        E 0 9e 42 64
        E 576 8a 42 64
        E 0 8e 42 64
        E 0 8f 34 64
        E 0 9a 47 64
        E 0 9e 47 64
        E 0 9f 35 59
        E 1152 8a 47 64
        E 0 8e 47 64
        E 0 9a 47 64
        E 0 9e 47 64
        E 1153 8a 47 64
        E 0 8e 47 64
        E 575 9a 47 64
        E 0 9e 47 64
        E 575 8a 47 64
        E 0 8e 47 64
        E 0 9a 46 64
        E 0 9e 46 64
        E 576 8a 46 64
        E 0 8e 46 64
        E 1 9a 47 64
        E 0 9e 47 64
        E 575 8a 47 64
        E 1 8e 47 64
        E 0 8f 35 63
        E 0 9a 42 64
        E 0 9e 42 64
        E 0 9f 36 5a
        E 1153 8a 42 64
        E 0 8e 42 64
        E 0 9a 42 64
        E 1 9e 42 64
        E 1150 8a 42 64
        E 0 8e 42 64
        E 0 8f 36 64
        E 0 9f 2f 5a
        E 1153 95 3e 64
        E 0 9e 3e 64
        E 1151 85 3e 64
        E 0 8e 3e 64
        E 0 8f 2f 64
        E 0 95 42 64
        E 0 9e 42 64
        E 0 9f 2f 5a
        E 1152 85 42 64
        E 0 8e 42 64
        E 0 95 42 64
        E 1 9e 42 64
        E 1151 85 42 64
        E 0 8e 42 64
        E 1154 9a 47 64
        E 0 9e 47 64
        E 1150 8a 47 64
        E 0 8e 47 64
        E 0 9a 43 64
        E 0 9e 43 64
        E 1151 8a 43 64
        E 1 8e 43 64
        E 0 9a 43 64
        E 0 9e 43 64
        E 1153 8a 43 64
        E 0 8e 43 64
        E 1152 9a 3e 64
        E 0 9e 3e 64
        E 1152 8a 3e 64
        E 0 8e 3e 64
        E 0 8f 2f 64
        E 0 9a 43 64
        E 0 9e 43 64
        E 0 9f 2f 5a
        E 2301 8a 43 64
        E 0 8e 43 64
        E 0 9a 43 64
        E 0 9e 43 64
        E 1154 8a 43 64
        E 0 8e 43 64
        E 0 9a 43 64
        E 1 9e 43 64
        E 575 8a 43 64
        E 0 8e 43 64
        E 0 9a 45 64
        E 0 9e 45 64
        E 575 8a 45 64
        E 0 8e 45 64
        E 0 9a 41 64
        E 0 9e 41 64
        E 2306 8a 41 64
        E 1 8e 41 64
        E 2302 8f 2f 64
        E 0 9a 41 64
        E 0 9e 41 64
        E 0 9f 2f 5a
        E 1150 8a 41 64
        E 0 8e 41 64
        E 0 9a 41 64
        E 1 9e 41 64
        E 577 8a 41 64
        E 0 8e 41 64
        E 1 9a 41 64
        E 0 9e 41 64
        E 574 8a 41 64
        E 1 8e 41 64
        E 0 9a 41 64
        E 0 9e 41 64
        E 1152 8a 41 64
        E 0 8e 41 64
        E 0 9a 40 64
        E 0 9e 40 64
        E 1152 8a 40 64
        E 1 8e 40 64
        E 0 8f 2f 64
        E 0 9a 40 64
        E 0 9e 40 64
        E 0 9f 30 5a
        E 1151 8a 40 64
        E 0 8e 40 64
        E 0 9a 40 64
        E 0 9e 40 64
        E 1152 8a 40 64
        E 0 8e 40 64
        E 2304 8f 30 64
        E 0 9a 40 64
        E 0 9e 40 64
        E 0 9f 30 5a
        E 1153 8a 40 64
        E 0 8e 40 64
        E 0 9a 40 64
        E 0 9e 40 64
        E 1152 8a 40 64
        E 0 8e 40 64
        E 0 9a 40 64
        E 0 9e 40 64
        E 1149 8a 40 64
        E 0 8e 40 64
        E 0 9a 40 64
        E 0 9e 40 64
        E 580 8a 40 64
        E 0 8e 40 64
        E 0 9a 42 64
        E 0 9e 42 64
        E 576 8a 42 64
        E 0 8e 42 64
        E 0 9a 42 64
        E 0 9e 42 64
        E 1150 8a 42 64
        E 0 8e 42 64
        E 0 9a 42 64
        E 1 9e 42 64
        E 1151 8a 42 64
        E 0 8e 42 64
        E 1152 9a 45 64
        E 0 9e 45 64
        E 1152 8a 45 64
        E 0 8e 45 64
        E 0 8f 30 64
        E 0 9a 42 64
        E 0 9e 42 64
        E 0 9f 30 5a
        E 1152 8a 42 64
        E 0 8e 42 64
        E 0 9a 42 64
        E 0 9e 42 64
        E 1152 8a 42 64
        E 0 8e 42 64
        E 0 9a 42 64
        E 0 9e 42 64
        E 1154 8a 42 64
        E 0 8e 42 64
        E 0 9a 43 64
        E 0 9e 43 64
        E 1149 8a 43 64
        E 0 8e 43 64
        E 0 8f 30 64
        E 0 9a 3e 64
        E 0 9e 3e 64
        E 0 9f 2f 5a
        E 1154 8a 3e 64
        E 0 8e 3e 64
        E 0 9a 3e 64
        E 1 9e 3e 64
        E 1149 8a 3e 64
        E 0 8e 3e 64
        E 576 9a 43 64
        E 0 9e 43 64
        E 577 8a 43 64
        E 0 8e 43 64
        E 0 9a 43 64
        E 0 9e 43 64
        E 576 8a 43 64
        E 0 8e 43 64
        E 0 9a 45 64
        E 0 9e 45 64
        E 578 8a 45 64
        E 0 8e 45 64
        E 0 8f 2f 64
        E 0 9a 47 64
        E 0 9e 47 64
        E 0 9f 2f 5a
        E 1151 8a 47 64
        E 0 8e 47 64
        E 1 9a 47 64
        E 0 9e 47 64
        E 1152 8a 47 64
        E 0 8e 47 64
        E 1149 9a 47 64
        E 1 9e 47 64
        E 1151 8a 47 64
        E 0 8e 47 64
        E 0 8f 2f 64
        E 0 9a 44 64
        E 1 9e 44 64
        E 0 9f 32 5a
        E 575 8a 44 64
        E 0 8e 44 64
        E 3 9a 44 64
        E 0 9e 44 64
        E 574 8a 44 64
        E 0 8e 44 64
        E 0 9a 44 64
        E 0 9e 44 64
        E 1151 8a 44 64
        E 0 8e 44 64
        E 1154 9a 40 64
        E 0 9e 40 64
        E 1151 8a 40 64
        E 0 8e 40 64
        E 0 8f 32 64
        E 0 9a 45 64
        E 0 9e 45 64
        E 0 9f 30 5a
        E 1150 8a 45 64
        E 0 8e 45 64
        E 0 9a 45 64
        E 0 9e 45 64
        E 1154 8a 45 64
        E 0 8e 45 64
        E 1151 9a 48 64
        E 0 9e 48 64
        E 576 8a 48 64
        E 0 8e 48 64
        E 0 9a 48 64
        E 0 9e 48 64
        E 576 8a 48 64
        E 1 8e 48 64
        E 0 9a 45 64
        E 0 9e 45 64
        E 2306 8a 45 64
        E 0 8e 45 64
        E 0 9a 45 64
        E 0 9e 45 64
        E 1150 8a 45 64
        E 0 8e 45 64
        E 0 9a 43 64
        E 0 9e 43 64
        E 1153 8a 43 64
        E 0 8e 43 64
        E 0 8f 30 64
        E 0 9a 40 64
        E 0 9e 40 64
        E 0 9f 2f 5a
        E 1152 8a 40 64
        E 0 8e 40 64
        E 0 9a 40 64
        E 0 9e 40 64
        E 1151 8a 40 64
        E 0 8e 40 64
        E 0 8f 2f 64
        E 1 9f 34 5a
        E 2305 8f 34 64
        E 0 9a 46 66
        E 0 9e 46 66
        E 0 9f 34 5a
        E 2303 8a 46 66
        E 0 8e 46 66
        E 0 9a 46 66
        E 0 9e 46 66
        E 1152 8a 46 66
        E 0 8e 46 66
        E 0 9a 45 64
        E 0 9e 45 64
        E 1151 8a 45 64
        E 0 8e 45 64
        E 0 8f 34 64
        E 0 9a 45 64
        E 0 9e 45 64
        E 0 9f 31 5a
        E 1151 8a 45 64
        E 0 8e 45 64
        E 0 9a 45 64
        E 0 9e 45 64
        E 1152 8a 45 64
        E 1 8e 45 64
        E 576 9a 40 64
        E 0 9e 40 64
        E 578 8a 40 64
        E 0 8e 40 64
        E 0 9a 43 64
        E 0 9e 43 64
        E 573 8a 43 64
        E 1 8e 43 64
        E 0 9a 41 64
        E 0 9e 41 64
        E 576 8a 41 64
        E 0 8e 41 64
        E 0 8f 31 64
        E 0 9a 3e 64
        E 0 9e 3e 64
        E 0 9f 32 5a
        E 2305 8a 3e 64
        E 0 8e 3e 64
        E 2305 8f 32 64
        E 0 9a 41 64
        E 0 9e 41 64
        E 0 9f 32 5a
        E 2301 8a 41 64
        E 0 8e 41 64
        E 0 9a 41 64
        E 0 9e 41 64
        E 1153 8a 41 64
        E 0 8e 41 64
        E 0 9a 45 64
        E 0 9e 45 64
        E 1151 8a 45 64
        E 0 8e 45 64
        E 1 9a 3e 64
        E 0 9e 3e 64
        E 1152 8a 3e 64
        E 0 8e 3e 64
        E 1 9a 3e 64
        E 0 9e 3e 64
        E 1151 8a 3e 64
        E 0 8e 3e 64
        E 1153 9a 45 64
        E 0 9e 45 64
        E 1151 8a 45 64
        E 0 8e 45 64
        E 0 8f 32 64
        E 0 9a 45 64
        E 0 9e 45 64
        E 0 9f 32 5a
        E 1150 8a 45 64
        E 0 8e 45 64
        E 0 9a 45 64
        E 1 9e 45 64
        E 1152 8a 45 64
        E 0 8e 45 64
        E 1 9a 45 64
        E 0 9e 45 64
        E 1150 8a 45 64
        E 0 8e 45 64
        E 1 9a 43 64
        E 0 9e 43 64
        E 577 8a 43 64
        E 0 8e 43 64
        E 0 9a 45 64
        E 0 9e 45 64
        E 575 8a 45 64
        E 0 8e 45 64
        E 0 8f 32 64
        E 1 9a 46 66
        E 0 9e 46 66
        E 0 9f 2b 5a
        E 2305 8a 46 66
        E 0 8e 46 66
        E 2304 8f 2b 64
        E 0 9a 43 64
        E 0 9e 43 64
        E 0 9f 2b 5a
        E 1152 8a 43 64
        E 0 8e 43 64
        E 0 9a 43 64
        E 0 9e 43 64
        E 576 8a 43 64
        E 0 8e 43 64
        E 0 9a 43 64
        E 0 9e 43 64
        E 574 8a 43 64
        E 0 8e 43 64
        E 0 9a 43 64
        E 0 9e 43 64
        E 1152 8a 43 64
        E 0 8e 43 64
        E 0 9a 41 64
        E 0 9e 41 64
        E 1152 8a 41 64
        E 0 8e 41 64
        E 0 8f 2b 64
        E 0 9a 3e 64
        E 0 9e 3e 64
        E 0 9f 2d 5a
        E 1155 8a 3e 64
        E 0 8e 3e 64
        E 0 9a 3e 64
        E 0 9e 3e 64
        E 1151 8a 3e 64
        E 0 8e 3e 64
        E 0 8f 2d 64
        E 0 9f 32 5a
        E 2302 8f 32 64
        E 1 9f 32 5a
        E 1152 95 41 64
        E 0 9e 41 64
        E 1152 85 41 64
        E 0 8e 41 64
        E 0 95 3e 64
        E 0 9e 3e 64
        E 2304 85 3e 64
        E 0 8e 3e 64
        E 0 95 41 64
        E 0 9e 41 64
        E 2305 85 41 64
        E 0 8e 41 64
        E 0 95 41 64
        E 0 9e 41 64
        E 1152 85 41 64
        E 0 8e 41 64
        E 0 95 41 64
        E 0 9e 41 64
        E 1152 85 41 64
        E 1 8e 41 64
        E 0 8f 32 64
        E 0 95 46 66
        E 0 9e 46 66
        E 0 9f 32 5a
        E 1150 85 46 66
        E 0 8e 46 66
        E 0 95 46 66
        E 0 9e 46 66
        E 1154 85 46 66
        E 0 8e 46 66
        E 1150 95 46 66
        E 0 9e 46 66
        E 577 85 46 66
        E 0 8e 46 66
        E 0 95 48 64
        E 1 9e 48 64
        E 574 85 48 64
        E 0 8e 48 64
        E 1 95 45 64
        E 0 9e 45 64
        E 2302 85 45 64
        E 0 8e 45 64
        E 0 95 45 64
        E 0 9e 45 64
        E 1154 85 45 64
        E 0 8e 45 64
        E 0 95 43 64
        E 0 9e 43 64
        E 1151 85 43 64
        E 0 8e 43 64
        E 0 8f 32 64
        E 0 95 3f 66
        E 0 9e 3f 66
        E 0 9f 33 5b
        E 1153 85 3f 66
        E 0 8e 3f 66
        E 0 95 3f 66
        E 1 9e 3f 66
        E 1150 85 3f 66
        E 0 8e 3f 66
        E 0 9a 43 64
        E 0 9e 43 64
        E 1151 8a 43 64
        E 0 8e 43 64
        E 0 9a 43 64
        E 0 9e 43 64
        E 577 8a 43 64
        E 0 8e 43 64
        E 0 9a 45 64
        E 0 9e 45 64
        E 576 8a 45 64
        E 0 8e 45 64
        E 0 8f 33 66
        E 0 9a 45 64
        E 0 9e 45 64
        E 0 9f 31 5a
        E 1153 8a 45 64
        E 0 8e 45 64
        E 0 9a 45 64
        E 0 9e 45 64
        E 1153 8a 45 64
        E 0 8e 45 64
        E 2304 8f 31 64
        E 0 9a 42 64
        E 0 9e 42 64
        E 0 9f 31 5a
        E 2302 8a 42 64
        E 0 8e 42 64
        E 0 9a 42 64
        E 0 9e 42 64
        E 1151 8a 42 64
        E 0 8e 42 64
        E 0 9a 43 64
        E 0 9e 43 64
        E 2305 8a 43 64
        E 0 8e 43 64
        E 0 9a 45 64
        E 0 9e 45 64
        E 2305 8a 45 64
        E 0 8e 45 64
        E 0 9a 48 64
        E 0 9e 48 64
        E 1151 8a 48 64
        E 0 8e 48 64
        E 0 8f 31 64
        E 0 9a 48 64
        E 0 9e 48 64
        E 0 9f 2e 5b
        E 576 8a 48 64
        E 0 8e 48 64
        E 1 9a 46 66
        E 0 9e 46 66
        E 575 8a 46 66
        E 0 8e 46 66
        E 0 9a 43 64
        E 1 9e 43 64
        E 1151 8a 43 64
        E 0 8e 43 64
        E 0 9a 43 64
        E 0 9e 43 64
        E 1152 8a 43 64
        E 0 8e 43 64
        E 1152 8f 2e 66
        E 0 95 46 66
        E 0 9e 46 66
        E 0 9f 33 5b
        E 1154 85 46 66
        E 0 8e 46 66
        E 0 95 45 64
        E 0 9e 45 64
        E 1149 85 45 64
        E 1 8e 45 64
        E 0 95 45 64
        E 0 9e 45 64
        E 1153 85 45 64
        E 0 8e 45 64
        E 1151 8f 33 66
        E 0 9f 33 5b
        E 1 95 41 64
        E 0 9e 41 64
        E 1151 85 41 64
        E 1 8e 41 64
        E 0 95 41 64
        E 1 9e 41 64
        E 1151 85 41 64
        E 1 8e 41 64
        E 0 95 45 64
        E 0 9e 45 64
        E 1149 85 45 64
        E 0 8e 45 64
        E 0 95 45 64
        E 0 9e 45 64
        E 578 85 45 64
        E 0 8e 45 64
        E 0 95 46 66
        E 0 9e 46 66
        E 574 8f 33 66
        E 0 85 46 66
        E 0 8e 46 66
        E 0 9f 32 5a
        E 1 95 41 64
        E 0 9e 41 64
        E 1152 85 41 64
        E 0 8e 41 64
        E 0 95 41 64
        E 0 9e 41 64
        E 1152 85 41 64
        E 0 8e 41 64
        E 576 95 46 66
        E 0 9e 46 66
        E 578 85 46 66
        E 0 8e 46 66
        E 0 95 46 66
        E 0 9e 46 66
        E 574 85 46 66
        E 0 8e 46 66
        E 0 95 46 66
        E 0 9e 46 66
        E 576 85 46 66
        E 0 8e 46 66
        E 0 8f 32 64
        E 0 95 43 64
        E 0 9e 43 64
        E 0 9f 33 5b
        E 1151 85 43 64
        E 0 8e 43 64
        E 0 95 43 64
        E 0 9e 43 64
        E 1153 85 43 64
        E 0 8e 43 64
        E 1152 95 43 64
        E 0 9e 43 64
        E 1152 85 43 64
        E 0 8e 43 64
        E 0 95 43 64
        E 0 9e 43 64
        E 1152 85 43 64
        E 0 8e 43 64
        E 0 95 43 64
        E 0 9e 43 64
        E 1152 85 43 64
        E 0 8e 43 64
        E 0 95 45 64
        E 0 9e 45 64
        E 1153 85 45 64
        E 0 8e 45 64
        E 0 95 46 66
        E 0 9e 46 66
        E 1151 85 46 66
        E 0 8e 46 66
        E 0 8f 33 66
        E 0 95 41 64
        E 0 9e 41 64
        E 0 9f 35 5a
        E 2303 85 41 64
        E 0 8e 41 64
        E 1 8f 35 64
        E 0 9f 2e 5b
        E 2304 8f 2e 66
        E 0 9a 41 64
        E 0 9e 41 64
        E 0 9f 2e 5b
        E 1152 8a 41 64
        E 0 8e 41 64
        E 0 9a 3e 64
        E 0 9e 3e 64
        E 1153 8a 3e 64
        E 0 8e 3e 64
        E 1152 95 46 66
        E 0 9e 46 66
        E 1150 85 46 66
        E 0 8e 46 66
        E 0 8f 2e 66
        E 0 95 43 64
        E 0 9e 43 64
        E 0 9f 2f 5a
        E 1154 85 43 64
        E 0 8e 43 64
        E 0 95 43 64
        E 0 9e 43 64
        E 1150 85 43 64
        E 0 8e 43 64
        E 0 95 43 64
        E 0 9e 43 64
        E 1154 85 43 64
        E 0 8e 43 64
        E 1 95 43 64
        E 0 9e 43 64
        E 1149 85 43 64
        E 0 8e 43 64
        E 0 8f 2f 64
        E 0 95 40 64
        E 0 9e 40 64
        E 1 9f 30 5a
        E 1151 85 40 64
        E 0 8e 40 64
        E 1 95 40 64
        E 0 9e 40 64
        E 1152 85 40 64
        E 0 8e 40 64
        E 1154 95 43 64
        E 0 9e 43 64
        E 1152 85 43 64
        E 0 8e 43 64
        E 0 8f 30 64
        E 0 95 46 66
        E 0 9e 46 66
        E 0 9f 30 5a
        E 1152 85 46 66
        E 0 8e 46 66
        E 0 95 46 66
        E 0 9e 46 66
        E 1151 85 46 66
        E 0 8e 46 66
        E 0 95 46 66
        E 0 9e 46 66
        E 1152 85 46 66
        E 0 8e 46 66
        E 0 95 45 64
        E 0 9e 45 64
        E 1152 85 45 64
        E 0 8e 45 64
        E 0 8f 30 64
        E 0 95 45 64
        E 0 9e 45 64
        E 0 9f 31 5a
        E 1152 85 45 64
        E 0 8e 45 64
        E 0 95 45 64
        E 0 9e 45 64
        E 1150 85 45 64
        E 1 8e 45 64
        E 2304 8f 31 64
        E 0 95 45 64
        E 0 9e 45 64
        E 0 9f 31 5a
        E 1153 85 45 64
        E 0 8e 45 64
        E 0 95 40 64
        E 0 9e 40 64
        E 576 85 40 64
        E 0 8e 40 64
        E 1 95 40 64
        E 0 9e 40 64
        E 575 85 40 64
        E 0 8e 40 64
        E 0 95 43 64
        E 0 9e 43 64
        E 1152 85 43 64
        E 0 8e 43 64
        E 0 95 41 64
        E 0 9e 41 64
        E 1151 85 41 64
        E 0 8e 41 64
        E 1 8f 31 64
        E 0 95 3e 64
        E 0 9e 3e 64
        E 0 9f 32 5a
        E 1150 85 3e 64
        E 0 8e 3e 64
        E 0 95 3e 64
        E 0 9e 3e 64
        E 1153 85 3e 64
        E 0 8e 3e 64
        E 575 95 45 64
        E 0 9e 45 64
        E 577 85 45 64
        E 0 8e 45 64
        E 0 95 43 64
        E 0 9e 43 64
        E 574 85 43 64
        E 0 8e 43 64
        E 0 95 45 64
        E 0 9e 45 64
        E 579 85 45 64
        E 0 8e 45 64
        E 0 8f 32 64
        E 0 95 41 64
        E 0 9e 41 64
        E 0 9f 32 5a
        E 1150 85 41 64
        E 0 8e 41 64
        E 0 95 41 64
        E 1 9e 41 64
        E 1150 85 41 64
        E 1 8e 41 64
        E 0 9a 45 64
        E 0 9e 45 64
        E 1154 8a 45 64
        E 0 8e 45 64
        E 0 9a 44 64
        E 0 9e 44 64
        E 576 8a 44 64
        E 0 8e 44 64
        E 0 9a 45 64
        E 0 9e 45 64
        E 577 8a 45 64
        E 0 8e 45 64
        E 0 8f 32 64
        E 0 9a 40 64
        E 0 9e 40 64
        E 0 9f 34 5a
        E 2302 8a 40 64
        E 0 8e 40 64
        E 1 8f 34 64
        E 0 9f 2d 5a
        E 1152 95 48 64
        E 0 9e 48 64
        E 1151 85 48 64
        E 0 8e 48 64
        E 0 8f 2d 64
        E 0 95 45 64
        E 0 9e 45 64
        E 0 9f 2d 5a
        E 1153 85 45 64
        E 0 8e 45 64
        E 0 95 45 64
        E 0 9e 45 64
        E 1151 85 45 64
        E 0 8e 45 64
        E 2304 95 45 64
        E 1 9e 45 64
        E 1152 85 45 64
        E 0 8e 45 64
        E 0 95 45 64
        E 0 9e 45 64
        E 1152 85 45 64
        E 0 8e 45 64
        E 0 95 45 64
        E 0 9e 45 64
        E 1151 85 45 64
        E 0 8e 45 64
        E 0 95 45 64
        E 0 9e 45 64
        E 575 85 45 64
        E 0 8e 45 64
        E 0 95 44 64
        E 0 9e 44 64
        E 576 85 44 64
        E 0 8e 44 64
        E 0 8f 2d 64
        E 0 95 47 64
        E 0 9e 47 64
        E 0 9f 34 5a
        E 1152 85 47 64
        E 1 8e 47 64
        E 0 95 47 64
        E 0 9e 47 64
        E 1154 85 47 64
        E 0 8e 47 64
        E 1150 9a 44 64
        E 0 9e 44 64
        E 1154 8a 44 64
        E 1 8e 44 64
        E 0 9a 40 64
        E 0 9e 40 64
        E 2302 8a 40 64
        E 0 8e 40 64
        E 1152 9a 48 64
        E 0 9e 48 64
        E 1151 8a 48 64
        E 0 8e 48 64
        E 0 8f 34 64
        E 0 9a 45 64
        E 0 9e 45 64
        E 0 9f 30 5a
        E 1153 8a 45 64
        E 0 8e 45 64
        E 0 9a 45 64
        E 0 9e 45 64
        E 1151 8a 45 64
        E 0 8e 45 64
        E 2305 9a 45 64
        E 0 9e 45 64
        E 1153 8a 45 64
        E 0 8e 45 64
        E 0 9a 45 64
        E 0 9e 45 64
        E 574 8a 45 64
        E 0 8e 45 64
        E 0 9a 45 64
        E 1 9e 45 64
        E 576 8a 45 64
        E 0 8e 45 64
        E 0 9a 45 64
        E 0 9e 45 64
        E 1153 8a 45 64
        E 0 8e 45 64
        E 0 9a 43 64
        E 0 9e 43 64
        E 1151 8a 43 64
        E 0 8e 43 64
        E 0 8f 30 64
        E 0 9a 40 64
        E 0 9e 40 64
        E 0 9f 2f 5a
        E 2302 8a 40 64
        E 0 8e 40 64
        E 0 8f 2f 64
        E 0 9f 34 5a
        E 2305 8f 34 64
        E 0 95 44 64
        E 0 9e 44 64
        E 0 9f 34 5a
        E 577 85 44 64
        E 0 8e 44 64
        E 0 95 40 64
        E 1 9e 40 64
        E 574 85 40 64
        E 0 8e 40 64
        E 0 95 40 64
        E 0 9e 40 64
        E 1153 85 40 64
        E 0 8e 40 64
        E 1150 95 49 64
        E 0 9e 49 64
        E 1152 85 49 64
        E 0 8e 49 64
        E 0 8f 34 64
        E 0 95 45 64
        E 0 9e 45 64
        E 0 9f 2d 5a
        E 1151 85 45 64
        E 0 8e 45 64
        E 1 95 45 64
        E 0 9e 45 64
        E 1153 85 45 64
        E 0 8e 45 64
        E 2304 8f 2d 64
        E 0 9b 3d 64
        E 0 9e 49 64
        E 0 9f 2d 5a
        E 1152 8b 3d 64
        E 0 8e 49 64
        E 0 9b 39 64
        E 0 9e 45 64
        E 1150 8b 39 64
        E 0 8e 45 64
        E 2307 9b 39 64
        E 0 9e 45 64
        E 2305 8b 39 64
        E 0 8e 45 64
        E 0 9b 39 64
        E 0 9e 45 64
        E 1152 8b 39 64
        E 0 8e 45 64
        E 0 9b 39 64
        E 0 9e 45 64
        E 1150 8b 39 64
        E 0 8e 45 64
        E 0 8f 2d 64
        E 1 9b 36 64
        E 0 9e 42 64
        E 0 9f 32 5a
        E 1151 8b 36 64
        E 0 8e 42 64
        E 0 9b 36 64
        E 0 9e 42 64
        E 1154 8b 36 64
        E 0 8e 42 64
        E 574 9b 39 64
        E 0 9e 45 64
        E 575 8b 39 64
        E 0 8e 45 64
        E 0 9b 39 64
        E 0 9e 45 64
        E 576 8b 39 64
        E 0 8e 45 64
        E 0 9b 3b 64
        E 1 9e 47 64
        E 576 8b 3b 64
        E 0 8e 47 64
        E 0 9b 3c 64
        E 0 9e 48 64
        E 1152 8b 3c 64
        E 0 8e 48 64
        E 0 9b 3c 64
        E 0 9e 48 64
        E 1151 8b 3c 64
        E 0 8e 48 64
        E 1154 9b 3c 64
        E 0 9e 48 64
        E 1151 8b 3c 64
        E 0 8e 48 64
        E 0 8f 32 64
        E 0 9b 39 64
        E 0 9e 45 64
        E 0 9f 32 5a
        E 1154 8b 39 64
        E 0 8e 45 64
        E 0 9b 39 64
        E 0 9e 45 64
        E 1151 8b 39 64
        E 0 8e 45 64
        E 0 9b 39 64
        E 0 9e 45 64
        E 1151 8b 39 64
        E 0 8e 45 64
        E 0 9b 3b 64
        E 0 9e 47 64
        E 1151 8b 3b 64
        E 1 8e 47 64
        E 0 8f 32 64
        E 0 9b 37 64
        E 0 9e 43 64
        E 0 9f 37 5a
        E 1152 8b 37 64
        E 0 8e 43 64
        E 0 9b 37 64
        E 0 9e 43 64
        E 1152 8b 37 64
        E 0 8e 43 64
        E 578 9b 37 64
        E 0 9e 43 64
        E 574 8b 37 64
        E 0 8e 43 64
        E 0 9b 37 64
        E 0 9e 43 64
        E 574 8b 37 64
        E 0 8e 43 64
        E 0 9b 39 64
        E 1 9e 45 64
        E 575 8b 39 64
        E 0 8e 45 64
        E 0 8f 37 64
        E 0 9b 3b 64
        E 0 9e 47 64
        E 0 9f 37 5a
        E 1153 8b 3b 64
        E 0 8e 47 64
        E 1 9b 3b 64
        E 0 9e 47 64
        E 1152 8b 3b 64
        E 0 8e 47 64
        E 2 9b 3b 64
        E 0 9e 47 64
        E 1151 8b 3b 64
        E 0 8e 47 64
        E 0 9b 3d 64
        E 0 9e 49 64
        E 575 8b 3d 64
        E 0 8e 49 64
        E 0 9b 3e 64
        E 0 9e 4a 64
        E 576 8b 3e 64
        E 0 8e 4a 64
        E 0 8f 37 64
        E 0 9b 39 64
        E 0 9e 45 64
        E 0 9f 39 5a
        E 1153 8b 39 64
        E 0 8e 45 64
        E 0 9b 39 64
        E 0 9e 45 64
        E 1151 8b 39 64
        E 0 8e 45 64
        E 0 8f 39 64
        E 0 9f 32 5a
        E 1154 9b 32 64
        E 0 9e 3e 64
        E 1150 8b 32 64
        E 0 8e 3e 64
        E 0 8f 32 64
        E 0 9b 36 64
        E 0 9e 42 64
        E 0 9f 32 5a
        E 1152 8b 36 64
        E 0 8e 42 64
        E 0 9b 36 64
        E 0 9e 42 64
        E 1153 8b 36 64
        E 0 8e 42 64
        E 0 9b 36 64
        E 0 9e 42 64
        E 1150 8b 36 64
        E 0 8e 42 64
        E 0 9b 37 64
        E 0 9e 43 64
        E 1151 8b 37 64
        E 0 8e 43 64
        E 0 9b 39 64
        E 0 9e 45 64
        E 1154 8b 39 64
        E 0 8e 45 64
        E 0 9b 39 64
        E 0 9e 45 64
        E 1153 8b 39 64
        E 0 8e 45 64
        E 2302 8f 32 64
        E 0 9b 39 64
        E 0 9e 45 64
        E 0 9f 32 5a
        E 1152 8b 39 64
        E 0 8e 45 64
        E 0 9b 39 64
        E 0 9e 45 64
        E 1153 8b 39 64
        E 0 8e 45 64
        E 0 9b 3c 64
        E 0 9e 48 64
        E 1151 8b 3c 64
        E 0 8e 48 64
        E 0 9b 3c 64
        E 0 9e 48 64
        E 576 8b 3c 64
        E 0 8e 48 64
        E 0 9b 3b 64
        E 0 9e 47 64
        E 579 8b 3b 64
        E 0 8e 47 64
        E 0 8f 32 64
        E 0 9b 3b 64
        E 0 9e 47 64
        E 0 9f 33 5a
        E 1150 8b 3b 64
        E 0 8e 47 64
        E 0 9b 3b 64
        E 0 9e 47 64
        E 1152 8b 3b 64
        E 0 8e 47 64
        E 2303 8f 33 64
        E 0 9b 3b 64
        E 0 9e 47 64
        E 0 9f 33 5a
        E 1153 8b 3b 64
        E 0 8e 47 64
        E 0 9b 3b 64
        E 0 9e 47 64
        E 1152 8b 3b 64
        E 0 8e 47 64
        E 0 9b 3b 64
        E 0 9e 47 64
        E 1152 8b 3b 64
        E 0 8e 47 64
        E 0 9b 3b 64
        E 0 9e 47 64
        E 576 8b 3b 64
        E 0 8e 47 64
        E 0 9b 3c 64
        E 0 9e 48 64
        E 577 8b 3c 64
        E 0 8e 48 64
        E 0 9b 39 64
        E 0 9e 45 64
        E 2304 8b 39 64
        E 0 8e 45 64
        E 577 9b 39 64
        E 0 9e 45 64
        E 574 8b 39 64
        E 0 8e 45 64
        E 0 9b 37 64
        E 0 9e 43 64
        E 574 8b 37 64
        E 0 8e 43 64
        E 0 9b 36 64
        E 0 9e 42 64
        E 577 8b 36 64
        E 1 8e 42 64
        E 0 8f 33 64
        E 0 9b 37 64
        E 0 9e 43 64
        E 1 9f 34 5a
        E 1150 8b 37 64
        E 0 8e 43 64
        E 1 9b 37 64
        E 0 9e 43 64
        E 1151 8b 37 64
        E 0 8e 43 64
        E 2306 9b 3b 64
        E 0 9e 47 64
        E 1151 8b 3b 64
        E 0 8e 47 64
        E 0 9b 3b 64
        E 0 9e 47 64
        E 1152 8b 3b 64
        E 0 8e 47 64
        E 0 9b 3b 64
        E 0 9e 47 64
        E 1153 8b 3b 64
        E 0 8e 47 64
        E 1 9b 3a 64
        E 0 9e 46 64
        E 574 8b 3a 64
        E 1 8e 46 64
        E 0 9b 3b 64
        E 0 9e 47 64
        E 575 8b 3b 64
        E 0 8e 47 64
        E 0 8f 34 64
        E 0 9b 36 64
        E 0 9e 42 64
        E 0 9f 36 5a
        E 2305 8b 36 64
        E 0 8e 42 64
        E 0 8f 36 64
        E 0 9f 2f 5a
        E 1152 9a 47 64
        E 0 9e 47 64
        E 1151 8a 47 64
        E 0 8e 47 64
        E 0 8f 2f 64
        E 0 9a 41 63
        E 0 9e 41 63
        E 0 9f 2f 5a
        E 1152 8a 41 63
        E 0 8e 41 63
        E 0 9a 41 63
        E 0 9e 41 63
        E 1151 8a 41 63
        E 0 8e 41 63
        E 1152 9a 45 64
        E 0 9e 45 64
        E 1152 8a 45 64
        E 0 8e 45 64
        E 0 8f 2f 64
        E 0 9a 42 64
        E 0 9e 42 64
        E 0 9f 31 5a
        E 1154 8a 42 64
        E 0 8e 42 64
        E 0 9a 42 64
        E 0 9e 42 64
        E 1150 8a 42 64
        E 0 8e 42 64
        E 0 8f 31 64
        E 0 9f 2a 5a
        E 1153 9b 3d 64
        E 0 9e 49 64
        E 1153 8b 3d 64
        E 0 8e 49 64
        E 1 8f 2a 64
        E 2 9b 39 64
        E 0 9e 45 64
        E 0 9f 2a 5a
        E 2299 8b 39 64
        E 0 8e 45 64
        E 0 9b 39 64
        E 0 9e 45 64
        E 1153 8b 39 64
        E 0 8e 45 64
        E 0 9b 39 64
        E 0 9e 45 64
        E 576 8b 39 64
        E 0 8e 45 64
        E 0 9b 38 64
        E 0 9e 44 64
        E 576 8b 38 64
        E 0 8e 44 64
        E 0 8f 2a 64
        E 0 9b 38 64
        E 0 9e 44 64
        E 0 9f 30 59
        E 1152 8b 38 64
        E 0 8e 44 64
        E 0 9b 38 64
        E 0 9e 44 64
        E 1152 8b 38 64
        E 0 8e 44 64
        E 575 9b 3c 63
        E 0 9e 48 63
        E 576 8b 3c 63
        E 0 8e 48 63
        E 1 9b 3c 63
        E 0 9e 48 63
        E 575 8b 3c 63
        E 1 8e 48 63
        E 0 9b 3d 64
        E 0 9e 49 64
        E 577 8b 3d 64
        E 0 8e 49 64
        E 0 8f 30 63
        E 0 9b 38 64
        E 0 9e 44 64
        E 1 9f 34 5a
        E 1151 8b 38 64
        E 0 8e 44 64
        E 0 9b 38 64
        E 0 9e 44 64
        E 1152 8b 38 64
        E 0 8e 44 64
        E 2305 8f 34 64
        E 0 9b 3d 64
        E 0 9e 49 64
        E 0 9f 34 5a
        E 1150 8b 3d 64
        E 0 8e 49 64
        E 1 9b 3d 64
        E 0 9e 49 64
        E 576 8b 3d 64
        E 0 8e 49 64
        E 0 9b 3d 64
        E 0 9e 49 64
        E 575 8b 3d 64
        E 0 8e 49 64
        E 0 9b 3d 64
        E 1 9e 49 64
        E 1152 8b 3d 64
        E 0 8e 49 64
        E 0 9b 3b 64
        E 0 9e 47 64
        E 1151 8b 3b 64
        E 0 8e 47 64
        E 0 8f 34 64
        E 0 9b 3b 64
        E 0 9e 47 64
        E 0 9f 2c 5a
        E 1153 8b 3b 64
        E 0 8e 47 64
        E 0 9b 3b 64
        E 0 9e 47 64
        E 1151 8b 3b 64
        E 0 8e 47 64
        E 0 9b 3b 64
        E 0 9e 47 64
        E 1151 8b 3b 64
        E 0 8e 47 64
        E 0 9b 38 64
        E 0 9e 44 64
        E 578 8b 38 64
        E 0 8e 44 64
        E 0 9b 39 64
        E 0 9e 45 64
        E 577 8f 2c 64
        E 0 8b 39 64
        E 0 8e 45 64
        E 0 9f 2c 5a
        E 0 9b 3b 64
        E 0 9e 47 64
        E 2303 8b 3b 64
        E 0 8e 47 64
        E 1151 9b 3e 64
        E 0 9e 4a 64
        E 576 8b 3e 64
        E 0 8e 4a 64
        E 0 9b 3e 64
        E 0 9e 4a 64
        E 576 8b 3e 64
        E 0 8e 4a 64
        E 0 9b 3b 64
        E 0 9e 47 64
        E 2304 8b 3b 64
        E 0 8e 47 64
        E 0 9b 3b 64
        E 0 9e 47 64
        E 1152 8b 3b 64
        E 0 8e 47 64
        E 0 9b 3d 64
        E 0 9e 49 64
        E 1153 8b 3d 64
        E 0 8e 49 64
        E 1 8f 2c 64
        E 0 9b 39 64
        E 0 9e 45 64
        E 0 9f 2d 5a
        E 1150 8b 39 64
        E 0 8e 45 64
        E 1 9b 39 64
        E 0 9e 45 64
        E 1150 8b 39 64
        E 0 8e 45 64
        E 1154 9b 40 64
        E 1 9e 4c 64
        E 1150 8b 40 64
        E 0 8e 4c 64
        E 0 9b 3d 64
        E 0 9e 49 64
        E 1153 8b 3d 64
        E 0 8e 49 64
        E 0 9b 3d 64
        E 0 9e 49 64
        E 1151 8b 3d 64
        E 0 8e 49 64
        E 0 9b 3b 64
        E 0 9e 47 64
        E 1151 8b 3b 64
        E 0 8e 47 64
        E 0 9b 3d 64
        E 0 9e 49 64
        E 1153 8b 3d 64
        E 0 8e 49 64
        E 0 8f 2d 64
        E 1 9b 39 64
        E 0 9e 45 64
        E 0 9f 2d 5a
        E 1152 8b 39 64
        E 0 8e 45 64
        E 0 9b 39 64
        E 0 9e 45 64
        E 1153 8b 39 64
        E 0 8e 45 64
        E 2303 9b 34 64
        E 0 9e 40 64
        E 1151 8b 34 64
        E 0 8e 40 64
        E 0 9b 34 64
        E 0 9e 40 64
        E 1152 8b 34 64
        E 0 8e 40 64
        E 0 9b 34 64
        E 0 9e 40 64
        E 1152 8b 34 64
        E 0 8e 40 64
        E 0 9b 34 64
        E 0 9e 40 64
        E 576 8b 34 64
        E 0 8e 40 64
        E 0 9b 34 64
        E 1 9e 40 64
        E 576 8b 34 64
        E 0 8e 40 64
        E 0 8f 2d 64
        E 0 9b 39 64
        E 0 9e 45 64
        E 0 9f 2d 5a
        E 1151 8b 39 64
        E 0 8e 45 64
        E 0 9b 39 64
        E 0 9e 45 64
        E 1153 8b 39 64
        E 0 8e 45 64
        E 0 9b 3d 64
        E 0 9e 49 64
        E 1152 8b 3d 64
        E 0 8e 49 64
        E 0 9b 3b 64
        E 0 9e 47 64
        E 575 8b 3b 64
        E 0 8e 47 64
        E 1 9b 39 64
        E 0 9e 45 64
        E 574 8b 39 64
        E 0 8e 45 64
        E 1 8f 2d 64
        E 0 9b 3e 64
        E 0 9e 4a 64
        E 0 9f 2a 5a
        E 1152 8b 3e 64
        E 1 8e 4a 64
        E 0 9b 3e 64
        E 0 9e 4a 64
        E 1151 8b 3e 64
        E 1 8e 4a 64
        E 2305 8f 2a 64
        E 0 9b 3c 64
        E 0 9e 48 64
        E 0 9f 2a 5a
        E 1149 8b 3c 64
        E 0 8e 48 64
        E 2 9b 3c 64
        E 0 9e 48 64
        E 576 8b 3c 64
        E 0 8e 48 64
        E 0 9b 3c 64
        E 1 9e 48 64
        E 574 8b 3c 64
        E 0 8e 48 64
        E 0 9b 3c 64
        E 0 9e 48 64
        E 1151 8b 3c 64
        E 0 8e 48 64
        E 0 9b 3b 64
        E 0 9e 47 64
        E 1152 8b 3b 64
        E 0 8e 47 64
        E 0 8f 2a 64
        E 0 9b 37 64
        E 1 9e 43 64
        E 0 9f 2b 5a
        E 1152 8b 37 64
        E 0 8e 43 64
        E 0 9b 37 64
        E 0 9e 43 64
        E 1151 8b 37 64
        E 0 8e 43 64
        E 578 9b 3b 64
        E 0 9e 47 64
        E 576 8b 3b 64
        E 0 8e 47 64
        E 1 9b 3b 64
        E 0 9e 47 64
        E 574 8b 3b 64
        E 0 8e 47 64
        E 0 9b 3c 64
        E 0 9e 48 64
        E 577 8b 3c 64
        E 0 8e 48 64
        E 0 8f 2b 64
        E 0 9b 3c 64
        E 0 9e 48 64
        E 0 9f 2d 5a
        E 1152 8b 3c 64
        E 0 8e 48 64
        E 0 9b 3c 64
        E 0 9e 48 64
        E 1151 8b 3c 64
        E 0 8e 48 64
        E 0 9b 39 64
        E 0 9e 45 64
        E 1153 8b 39 64
        E 0 8e 45 64
        E 0 9b 39 64
        E 0 9e 45 64
        E 576 8b 39 64
        E 0 8e 45 64
        E 1 9b 37 64
        E 0 9e 43 64
        E 574 8b 37 64
        E 0 8e 43 64
        E 0 8f 2d 64
        E 0 9b 34 64
        E 0 9e 40 64
        E 0 9f 2f 5a
        E 1152 8b 34 64
        E 0 8e 40 64
        E 0 9b 34 64
        E 0 9e 40 64
        E 1154 8b 34 64
        E 0 8e 40 64
        E 0 8f 2f 64
        E 0 95 47 64
        E 0 9e 47 64
        E 0 9f 34 5a
        E 2303 85 47 64
        E 0 8e 47 64
        E 0 8f 34 64
        E 0 9b 3b 64
        E 0 9e 47 64
        E 0 9f 34 5a
        E 1153 8b 3b 64
        E 0 8e 47 64
        E 0 9b 3b 64
        E 0 9e 47 64
        E 1149 8b 3b 64
        E 0 8e 47 64
        E 0 9b 3b 64
        E 0 9e 47 64
        E 1153 8b 3b 64
        E 0 8e 47 64
        E 0 9b 3d 64
        E 0 9e 49 64
        E 1152 8b 3d 64
        E 0 8e 49 64
        E 0 9b 3a 64
        E 0 9e 46 64
        E 1153 8b 3a 64
        E 0 8e 46 64
        E 1 9b 3a 64
        E 0 9e 46 64
        E 1150 8b 3a 64
        E 0 8e 46 64
        E 577 9b 3a 64
        E 0 9e 46 64
        E 575 8b 3a 64
        E 0 8e 46 64
        E 0 9b 3a 64
        E 0 9e 46 64
        E 576 8b 3a 64
        E 0 8e 46 64
        E 0 9b 3b 64
        E 1 9e 47 64
        E 575 8b 3b 64
        E 0 8e 47 64
        E 0 8f 34 64
        E 0 9b 36 64
        E 0 9e 42 64
        E 0 9f 36 5a
        E 1152 8b 36 64
        E 0 8e 42 64
        E 0 9b 36 64
        E 0 9e 42 64
        E 1152 8b 36 64
        E 0 8e 42 64
        E 0 8f 36 64
        E 0 9f 32 5a
        E 578 9a 42 64
        E 0 9e 42 64
        E 574 8a 42 64
        E 0 8e 42 64
        E 0 9a 42 64
        E 0 9e 42 64
        E 574 8a 42 64
        E 0 8e 42 64
        E 1 9a 41 63
        E 0 9e 41 63
        E 576 8a 41 63
        E 0 8e 41 63
        E 0 8f 32 64
        E 0 9a 42 64
        E 1 9e 42 64
        E 0 9f 31 5a
        E 1151 8a 42 64
        E 0 8e 42 64
        E 0 9a 42 64
        E 1 9e 42 64
        E 1151 8a 42 64
        E 0 8e 42 64
        E 1153 9b 3d 64
        E 0 9e 49 64
        E 1152 8b 3d 64
        E 0 8e 49 64
        E 0 8f 31 64
        E 1 9b 38 64
        E 0 9e 44 64
        E 0 9f 31 5a
        E 1151 8b 38 64
        E 0 8e 44 64
        E 0 9b 38 64
        E 0 9e 44 64
        E 1152 8b 38 64
        E 1 8e 44 64
        E 576 9b 38 64
        E 0 9e 44 64
        E 575 8b 38 64
        E 0 8e 44 64
        E 0 9b 3b 64
        E 0 9e 47 64
        E 575 8b 3b 64
        E 0 8e 47 64
        E 1 9b 39 64
        E 0 9e 45 64
        E 577 8b 39 64
        E 0 8e 45 64
        E 0 8f 31 64
        E 1 9b 36 64
        E 0 9e 42 64
        E 0 9f 36 5a
        E 1151 8b 36 64
        E 0 8e 42 64
        E 0 9b 36 64
        E 0 9e 42 64
        E 1151 8b 36 64
        E 0 8e 42 64
        E 2304 8f 36 64
        E 0 95 43 64
        E 0 9e 45 64
        E 0 9f 36 5a
        E 1152 85 43 64
        E 0 8e 45 64
        E 1 95 45 64
        E 0 9e 45 64
        E 574 85 45 64
        E 0 8e 45 64
        E 0 95 45 64
        E 0 9e 45 64
        E 576 85 45 64
        E 0 8e 45 64
        E 0 95 44 64
        E 0 9e 44 64
        E 1153 85 44 64
        E 0 8e 44 64
        E 0 95 45 64
        E 0 9e 45 64
        E 1152 85 45 64
        E 0 8e 45 64
        E 0 8f 36 64
        E 0 95 40 64
        E 0 9e 40 64
        E 0 9f 34 5a
        E 1152 85 40 64
        E 0 8e 40 64
        E 0 95 40 64
        E 0 9e 40 64
        E 1151 85 40 64
        E 0 8e 40 64
        E 0 8f 34 64
        E 0 9b 3d 64
        E 0 9e 49 64
        E 0 9f 2d 5a
        E 1154 8b 3d 64
        E 0 8e 49 64
        E 0 9b 3b 64
        E 0 9e 47 64
        E 574 8b 3b 64
        E 0 8e 47 64
        E 1 9b 3d 64
        E 0 9e 49 64
        E 577 8b 3d 64
        E 0 8e 49 64
        E 0 8f 2d 64
        E 0 9b 39 64
        E 0 9e 45 64
        E 0 9f 2d 5a
        E 1152 8b 39 64
        E 0 8e 45 64
        E 1 9b 39 64
        E 0 9e 45 64
        E 1150 8b 39 64
        E 0 8e 45 64
        E 2303 9a 40 64
        E 0 9e 40 64
        E 1153 8a 40 64
        E 0 8e 40 64
        E 0 9a 40 64
        E 0 9e 40 64
        E 575 8a 40 64
        E 0 8e 40 64
        E 0 9a 40 64
        E 0 9e 40 64
        E 578 8a 40 64
        E 0 8e 40 64
        E 0 9a 45 64
        E 0 9e 45 64
        E 1151 8a 45 64
        E 0 8e 45 64
        E 0 9a 45 64
        E 0 9e 45 64
        E 1151 8a 45 64
        E 0 8e 45 64
        E 0 8f 2d 64
        E 0 9a 42 64
        E 0 9e 42 64
        E 0 9f 33 5a
        E 1152 8a 42 64
        E 0 8e 42 64
        E 0 9a 42 64
        E 0 9e 42 64
        E 1153 8a 42 64
        E 0 8e 42 64
        E 576 9a 42 64
        E 0 9e 42 64
        E 577 8a 42 64
        E 0 8e 42 64
        E 0 9a 45 64
        E 0 9e 45 64
        E 576 8a 45 64
        E 0 8e 45 64
        E 1 9a 44 64
        E 0 9e 44 64
        E 574 8a 44 64
        E 0 8e 44 64
        E 0 8f 33 64
        E 0 9a 40 64
        E 0 9e 40 64
        E 0 9f 34 5a
        E 1152 8a 40 64
        E 0 8e 40 64
        E 0 9a 40 64
        E 0 9e 40 64
        E 1151 8a 40 64
        E 0 8e 40 64
        E 2305 8f 34 64
        E 0 9b 3b 64
        E 0 9e 47 64
        E 0 9f 34 5a
        E 1152 8b 3b 64
        E 0 8e 47 64
        E 0 9b 3b 64
        E 0 9e 47 64
        E 575 8b 3b 64
        E 0 8e 47 64
        E 0 9b 3b 64
        E 0 9e 47 64
        E 577 8b 3b 64
        E 0 8e 47 64
        E 0 9b 3b 64
        E 0 9e 47 64
        E 1150 8b 3b 64
        E 1 8e 47 64
        E 1 9b 3b 64
        E 0 9e 47 64
        E 1152 8b 3b 64
        E 0 8e 47 64
        E 0 9b 38 64
        E 0 9e 44 64
        E 1152 8b 38 64
        E 0 8e 44 64
        E 0 9b 38 64
        E 1 9e 44 64
        E 1150 8b 38 64
        E 1 8e 44 64
        E 0 9b 3e 64
        E 0 9e 4a 64
        E 1152 8b 3e 64
        E 0 8e 4a 64
        E 1 9b 3b 64
        E 0 9e 47 64
        E 575 8b 3b 64
        E 0 8e 47 64
        E 0 9b 3d 64
        E 0 9e 49 64
        E 576 8b 3d 64
        E 0 8e 49 64
        E 0 8f 34 64
        E 0 9b 39 64
        E 0 9e 45 64
        E 0 9f 2d 5a
        E 2304 8b 39 64
        E 0 8e 45 64
        E 2304 9b 3d 64
        E 0 9e 49 64
        E 1154 8b 3d 64
        E 0 8e 49 64
        E 0 9b 3d 64
        E 0 9e 49 64
        E 574 8b 3d 64
        E 0 8e 49 64
        E 0 9b 3d 64
        E 0 9e 49 64
        E 576 8b 3d 64
        E 0 8e 49 64
        E 0 9b 3d 64
        E 0 9e 49 64
        E 1151 8b 3d 64
        E 0 8e 49 64
        E 0 9b 3e 64
        E 1 9e 4a 64
        E 1153 8b 3e 64
        E 0 8e 4a 64
        E 0 8f 2d 64
        E 0 9b 39 64
        E 0 9e 45 64
        E 0 9f 2a 5a
        E 1152 8b 39 64
        E 0 8e 45 64
        E 0 9b 39 64
        E 0 9e 45 64
        E 1151 8b 39 64
        E 1 8e 45 64
        E 574 9b 39 64
        E 0 9e 45 64
        E 578 8b 39 64
        E 0 8e 45 64
        E 0 9b 3c 64
        E 0 9e 48 64
        E 575 8b 3c 64
        E 0 8e 48 64
        E 0 9b 3b 64
        E 0 9e 47 64
        E 575 8b 3b 64
        E 0 8e 47 64
        E 0 8f 2a 64
        E 0 9b 37 64
        E 0 9e 43 64
        E 0 9f 2b 5a
        E 1152 8b 37 64
        E 0 8e 43 64
        E 1 9b 37 64
        E 0 9e 43 64
        E 1152 8b 37 64
        E 0 8e 43 64
        E 2305 8f 2b 64
        E 0 9a 3e 64
        E 0 9e 3e 64
        E 0 9f 2b 5a
        E 1150 8a 3e 64
        E 0 8e 3e 64
        E 1 9a 3e 64
        E 0 9e 3e 64
        E 578 8a 3e 64
        E 0 8e 3e 64
        E 0 9a 3e 64
        E 0 9e 3e 64
        E 574 8a 3e 64
        E 0 8e 3e 64
        E 0 9a 43 64
        E 0 9e 43 64
        E 1153 8a 43 64
        E 0 8e 43 64
        E 0 9a 45 64
        E 0 9e 45 64
        E 1153 8a 45 64
        E 0 8e 45 64
        E 0 9a 47 64
        E 0 9e 47 64
        E 1150 8a 47 64
        E 0 8e 47 64
        E 0 9a 47 64
        E 0 9e 47 64
        E 1152 8a 47 64
        E 0 8e 47 64
        E 0 9a 47 64
        E 1 9e 47 64
        E 1151 8a 47 64
        E 0 8e 47 64
        E 0 9a 47 64
        E 0 9e 47 64
        E 576 8a 47 64
        E 0 8e 47 64
        E 0 9a 48 64
        E 0 9e 48 64
        E 575 8a 48 64
        E 0 8e 48 64
        E 0 8f 2b 64
        E 1 9a 43 64
        E 0 9e 43 64
        E 0 9f 34 5a
        E 1153 8a 43 64
        E 0 8e 43 64
        E 0 9a 43 64
        E 0 9e 43 64
        E 1150 8a 43 64
        E 1 8e 43 64
        E 2303 9a 40 64
        E 0 9e 40 64
        E 1152 8a 40 64
        E 0 8e 40 64
        E 1 9a 40 64
        E 0 9e 40 64
        E 577 8a 40 64
        E 0 8e 40 64
        E 0 9a 40 64
        E 0 9e 40 64
        E 577 8a 40 64
        E 0 8e 40 64
        E 0 9a 43 64
        E 0 9e 43 64
        E 1151 8a 43 64
        E 0 8e 43 64
        E 1 9a 45 64
        E 0 9e 45 64
        E 1149 8a 45 64
        E 0 8e 45 64
        E 0 8f 34 64
        E 1 9a 46 66
        E 0 9e 46 66
        E 0 9f 34 5a
        E 1153 8a 46 66
        E 0 8e 46 66
        E 0 9a 46 66
        E 0 9e 46 66
        E 1150 8a 46 66
        E 0 8e 46 66
        E 1153 9a 46 66
        E 0 9e 46 66
        E 1153 8a 46 66
        E 0 8e 46 66
        E 0 8f 34 64
        E 1 9a 46 66
        E 0 9e 46 66
        E 0 9f 30 5a
        E 2302 8a 46 66
        E 0 8e 46 66
        E 0 9a 40 64
        E 0 9e 40 64
        E 1151 8a 40 64
        E 0 8e 40 64
        E 0 9a 45 64
        E 1 9e 45 64
        E 1152 8a 45 64
        E 0 8e 45 64
        E 0 8f 30 64
        E 0 9a 41 64
        E 0 9e 41 64
        E 0 9f 35 5a
        E 1152 8a 41 64
        E 0 8e 41 64
        E 0 9a 41 64
        E 0 9e 41 64
        E 1152 8a 41 64
        E 0 8e 41 64
        E 1152 9a 48 64
        E 0 9e 48 64
        E 1152 8a 48 64
        E 0 8e 48 64
        E 0 9a 45 64
        E 0 9e 45 64
        E 1152 8a 45 64
        E 0 8e 45 64
        E 0 9a 45 64
        E 0 9e 45 64
        E 1151 8a 45 64
        E 0 8e 45 64
        E 1 9a 45 64
        E 0 9e 45 64
        E 1152 8a 45 64
        E 0 8e 45 64
        E 0 9a 45 64
        E 1 9e 45 64
        E 1153 8a 45 64
        E 0 8e 45 64
        E 0 8f 35 64
        E 0 9a 42 64
        E 0 9e 42 64
        E 0 9f 30 5a
        E 1149 8a 42 64
        E 0 8e 42 64
        E 0 9a 42 64
        E 1 9e 42 64
        E 1152 8a 42 64
        E 0 8e 42 64
        E 1152 9a 42 64
        E 0 9e 42 64
        E 576 8a 42 64
        E 0 8e 42 64
        E 0 9a 43 64
        E 1 9e 43 64
        E 577 8a 43 64
        E 0 8e 43 64
        E 0 8f 30 64
        E 0 9a 45 64
        E 0 9e 45 64
        E 0 9f 30 5a
        E 2302 8a 45 64
        E 0 8e 45 64
        E 0 9a 45 64
        E 0 9e 45 64
        E 1154 8a 45 64
        E 0 8e 45 64
        E 0 9a 46 66
        E 0 9e 46 66
        E 1149 8a 46 66
        E 0 8e 46 66
        E 0 8f 30 64
        E 1 9a 43 64
        E 0 9e 43 64
        E 0 9f 2e 5b
        E 1152 8a 43 64
        E 0 8e 43 64
        E 0 9a 43 64
        E 0 9e 43 64
        E 1152 8a 43 64
        E 0 8e 43 64
        E 2304 8f 2e 66
        E 0 9a 43 64
        E 0 9e 43 64
        E 0 9f 2e 5b
        E 1152 8a 43 64
        E 0 8e 43 64
        E 0 9a 43 64
        E 0 9e 43 64
        E 1154 8a 43 64
        E 0 8e 43 64
        E 0 9a 43 64
        E 0 9e 43 64
        E 1149 8a 43 64
        E 1 8e 43 64
        E 0 9a 41 64
        E 1 9e 41 64
        E 576 8a 41 64
        E 0 8e 41 64
        E 0 9a 43 64
        E 0 9e 43 64
        E 575 8a 43 64
        E 0 8e 43 64
        E 0 8f 2e 66
        E 0 9a 3f 66
        E 0 9e 3f 66
        E 0 9f 30 5a
        E 2305 8a 3f 66
        E 0 8e 3f 66
        E 0 9a 48 64
        E 0 9e 48 64
        E 1151 8a 48 64
        E 0 8e 48 64
        E 0 9a 42 64
        E 0 9e 42 64
        E 577 8a 42 64
        E 0 8e 42 64
        E 1 9a 43 64
        E 0 9e 43 64
        E 574 8a 43 64
        E 0 8e 43 64
        E 0 8f 30 64
        E 0 9a 3e 64
        E 0 9e 3e 64
        E 0 9f 32 5a
        E 1153 8a 3e 64
        E 0 8e 3e 64
        E 1 9a 3e 64
        E 0 9e 3e 64
        E 1152 8a 3e 64
        E 0 8e 3e 64
        E 0 8f 32 64
        E 0 9f 2b 5a
        E 2302 8f 2b 64
        E 0 9b 3a 66
        E 0 9e 46 66
        E 0 9f 2b 5a
        E 1150 8b 3a 66
        E 0 8e 46 66
        E 1 9b 3a 66
        E 0 9e 46 66
        E 1152 8b 3a 66
        E 0 8e 46 66
        E 0 9b 3a 66
        E 0 9e 46 66
        E 1153 8b 3a 66
        E 0 8e 46 66
        E 0 9b 39 64
        E 0 9e 45 64
        E 574 8b 39 64
        E 0 8e 45 64
        E 1 9b 3a 66
        E 0 9e 46 66
        E 580 8b 3a 66
        E 0 8e 46 66
        E 0 8f 2b 64
        E 0 9b 37 64
        E 0 9e 43 64
        E 0 9f 2b 5a
        E 2301 8b 37 64
        E 0 8e 43 64
        E 578 9b 3f 66
        E 0 9e 4b 66
        E 573 8b 3f 66
        E 0 8e 4b 66
        E 0 9b 39 64
        E 0 9e 45 64
        E 577 8b 39 64
        E 0 8e 45 64
        E 1 9b 3a 66
        E 0 9e 46 66
        E 576 8b 3a 66
        E 0 8e 46 66
        E 0 8f 2b 64
        E 0 9b 35 64
        E 0 9e 41 64
        E 0 9f 29 5a
        E 1151 8b 35 64
        E 0 8e 41 64
        E 0 9b 35 64
        E 0 9e 41 64
        E 1152 8b 35 64
        E 0 8e 41 64
        E 0 8f 29 64
        E 0 9f 2e 5b
        E 3455 8f 2e 66
        E 0 92 3f 66
        E 481 93 37 5a
        E 0 9f 33 5b
        E 239 82 3f 66
        E 0 8f 33 66
        E 0 92 48 64
        E 0 9f 32 5a
        E 241 82 48 64
        E 0 83 37 64
        E 0 8f 32 64
        E 0 92 46 66
        E 0 93 37 5a
        E 0 9f 33 5b
        E 240 82 46 66
        E 0 92 44 66
        E 241 82 44 66
        E 0 83 37 64
        E 0 8f 33 66
        E 0 92 43 64
        E 0 93 37 5a
        E 0 9f 27 5b
        E 239 82 43 64
        E 0 92 41 64
        E 241 82 41 64
        E 0 83 37 64
        E 0 8f 27 66
        E 0 92 3f 66
        E 479 93 37 5a
        E 0 9f 33 5b
        E 241 82 3f 66
        E 0 8f 33 66
        E 0 92 4b 66
        E 0 9f 32 5a
        E 239 82 4b 66
        E 0 83 37 64
        E 0 8f 32 64
        E 0 92 4a 64
        E 0 93 37 5a
        E 0 9f 33 5b
        E 239 82 4a 64
        E 0 92 48 64
        E 240 82 48 64
        E 0 83 37 64
        E 0 8f 33 66
        E 0 92 46 66
        E 0 93 37 5a
        E 0 9f 27 5b
        E 242 82 46 66
        E 0 92 44 66
        E 238 82 44 66
        E 0 83 37 64
        E 0 8f 27 66
        E 0 92 43 64
        E 481 93 37 5a
        E 0 9f 33 5b
        E 240 82 43 64
        E 0 8f 33 66
        E 1 92 4f 64
        E 0 9f 32 5a
        E 240 82 4f 64
        E 0 83 37 64
        E 0 8f 32 64
        E 0 92 4d 64
        E 0 93 37 5a
        E 0 9f 33 5b
        E 238 82 4d 64
        E 0 92 4b 66
        E 240 82 4b 66
        E 0 83 37 64
        E 0 8f 33 66
        E 0 92 4a 64
        E 0 93 37 5a
        E 0 9f 27 5b
        E 240 82 4a 64
        E 1 92 48 64
        E 241 82 48 64
        E 0 83 37 64
        E 0 8f 27 66
        E 0 92 46 66
        E 479 93 37 5a
        E 0 9f 33 5b
        E 241 8f 33 66
        E 0 9f 32 5a
        E 238 83 37 64
        E 2 8f 32 64
        E 3 93 37 5a
        E 2 9f 33 5b
        E 475 82 46 66
        E 0 83 37 64
        E 0 8f 33 66
        E 0 92 48 64
        E 0 93 37 5a
        E 0 9f 27 5b
        E 238 82 48 64
        E 0 92 4a 64
        E 241 82 4a 64
        E 0 83 37 64
        E 0 8f 27 66
        E 0 92 4b 66
        E 480 82 4b 66
        E 0 92 3f 66
        E 0 93 37 5a
        E 0 9f 33 5b
        E 240 8f 33 66
        E 0 9f 32 5a
        E 240 82 3f 66
        E 0 83 37 64
        E 0 8f 32 64
        E 0 93 37 5a
        E 0 9f 33 5b
        E 479 83 37 64
        E 0 8f 33 66
        E 1 92 43 64
        E 0 93 37 5a
        E 0 9f 27 5b
        E 481 82 43 64
        E 0 83 37 64
        E 0 8f 27 66
        E 0 92 44 66
        E 238 82 44 66
        E 0 92 41 64
        E 243 82 41 64
        E 0 92 3a 66
        E 0 93 3e 5a
        E 0 9f 3a 5b
        E 237 8f 3a 66
        E 1 9f 38 5b
        E 241 82 3a 66
        E 0 83 3e 64
        E 0 8f 38 66
        E 0 92 3a 66
        E 0 93 3e 5a
        E 0 9f 3a 5b
        E 240 82 3a 66
        E 0 92 48 64
        E 240 82 48 64
        E 0 83 3e 64
        E 0 8f 3a 66
        E 0 92 46 66
        E 1 93 3e 5a
        E 0 9f 2e 5b
        E 238 82 46 66
        E 0 92 44 66
        E 241 82 44 66
        E 0 83 3e 64
        E 0 8f 2e 66
        E 0 92 43 64
        E 240 82 43 64
        E 0 92 3f 66
        E 238 82 3f 66
        E 0 92 37 64
        E 1 93 3f 5b
        E 0 9f 3a 5b
        E 241 8f 3a 66
        E 0 9f 38 5b
        E 239 82 37 64
        E 0 83 3f 66
        E 0 8f 38 66
        E 0 92 37 64
        E 0 93 3f 5b
        E 0 9f 3a 5b
        E 239 82 37 64
        E 0 92 46 66
        E 241 82 46 66
        E 1 83 3f 66
        E 0 8f 3a 66
        E 0 92 4b 66
        E 0 93 3f 5b
        E 0 9f 2e 5b
        E 239 82 4b 66
        E 0 92 43 64
        E 239 82 43 64
        E 0 83 3f 66
        E 0 8f 2e 66
        E 0 92 44 66
        E 241 82 44 66
        E 0 92 41 64
        E 240 82 41 64
        E 0 92 3a 66
        E 0 93 3e 5a
        E 0 9f 3a 5b
        E 241 8f 3a 66
        E 0 9f 38 5b
        E 240 82 3a 66
        E 0 83 3e 64
        E 0 8f 38 66
        E 0 92 3a 66
        E 0 93 3e 5a
        E 0 9f 3a 5b
        E 238 82 3a 66
        E 0 92 48 64
        E 242 82 48 64
        E 0 83 3e 64
        E 0 8f 3a 66
        E 0 92 46 66
        E 1 93 3e 5a
        E 0 9f 2e 5b
        E 238 82 46 66
        E 0 92 44 66
        E 240 82 44 66
        E 0 83 3e 64
        E 0 8f 2e 66
        E 0 92 43 64
        E 241 82 43 64
        E 0 92 41 64
        E 240 82 41 64
        E 0 92 3f 66
        E 0 93 3a 5b
        E 0 9f 33 5b
        E 241 8f 33 66
        E 0 9f 32 5a
        E 238 82 3f 66
        E 0 83 3a 66
        E 0 8f 32 64
        E 0 93 3a 5b
        E 0 9f 33 5b
        E 481 83 3a 66
        E 0 8f 33 66
        E 0 93 3a 5b
        E 0 9f 27 5b
        E 478 83 3a 66
        E 1 8f 27 66
        E 0 92 52 66
        E 479 82 52 66
        E 0 92 51 64
        E 242 82 51 64
        E 0 92 4f 64
        E 239 82 4f 64
        E 0 92 4d 64
        E 240 82 4d 64
        E 0 92 4b 66
        E 240 82 4b 66
        E 0 92 4a 64
        E 240 82 4a 64
        E 0 92 48 64
        E 241 82 48 64
        E 0 92 46 66
        E 0 93 46 5b
        E 0 9f 3a 5b
        E 478 82 46 66
        E 0 83 46 66
        E 0 8f 3a 66
        E 0 92 3a 66
        E 1 93 45 5a
        E 0 9f 39 5a
        E 242 83 45 64
        E 0 8f 39 64
        E 0 93 43 5a
        E 0 9f 37 5a
        E 238 82 3a 66
        E 0 83 43 64
        E 0 8f 37 64
        E 0 92 3e 64
        E 0 93 41 5a
        E 0 9f 35 5a
        E 240 83 41 64
        E 0 8f 35 64
        E 0 93 3f 5b
        E 0 9f 33 5b
        E 240 82 3e 64
        E 0 83 3f 66
        E 0 8f 33 66
        E 0 92 41 64
        E 1 93 3e 5a
        E 0 9f 32 5a
        E 239 83 3e 64
        E 0 8f 32 64
        E 0 93 3c 5a
        E 0 9f 30 5a
        E 240 82 41 64
        E 0 83 3c 64
        E 0 8f 30 64
        E 0 92 46 66
        E 0 93 3a 5b
        E 0 9f 2e 5b
        E 240 82 46 66
        E 0 92 48 64
        E 241 82 48 64
        E 0 83 3a 66
        E 0 8f 2e 66
        E 0 92 4a 64
        E 0 93 3a 5b
        E 0 9f 2e 5b
        E 238 82 4a 64
        E 0 83 3a 66
        E 0 8f 2e 66
        E 0 92 4b 66
        E 0 93 3c 5a
        E 0 9f 30 5a
        E 242 82 4b 66
        E 0 83 3c 64
        E 0 8f 30 64
        E 0 92 4d 64
        E 0 93 3e 5a
        E 0 9f 32 5a
        E 480 82 4d 64
        E 1 83 3e 64
        E 0 8f 32 64
        E 0 92 41 64
        E 0 93 3a 5b
        E 0 9f 2e 5b
        E 479 82 41 64
        E 0 83 3a 66
        E 0 8f 2e 66
        E 0 92 43 64
        E 238 82 43 64
        E 0 92 3f 66
        E 241 82 3f 66
        E 0 92 37 64
        E 0 93 3a 5b
        E 0 9f 33 5b
        E 240 8f 33 66
        E 0 9f 32 5a
        E 241 82 37 64
        E 3 83 3a 66
        E 0 8f 32 64
        E 0 92 37 64
        E 0 93 3a 5b
        E 0 9f 33 5b
        E 236 82 37 64
        E 1 92 4a 64
        E 239 82 4a 64
        E 0 83 3a 66
        E 0 8f 33 66
        E 0 92 48 64
        E 0 93 3c 5a
        E 0 9f 34 5a
        E 241 82 48 64
        E 1 92 46 66
        E 239 82 46 66
        E 0 83 3c 64
        E 0 8f 34 64
        E 0 92 45 64
        E 237 82 45 64
        E 0 92 41 64
        E 243 82 41 64
        E 0 92 39 64
        E 0 93 3c 5a
        E 0 9f 35 5a
        E 239 8f 35 64
        E 0 9f 34 5a
        E 240 82 39 64
        E 0 83 3c 64
        E 1 8f 34 64
        E 0 92 39 64
        E 0 93 3c 5a
        E 0 9f 35 5a
        E 239 82 39 64
        E 0 92 4b 66
        E 241 82 4b 66
        E 0 83 3c 64
        E 0 8f 35 64
        E 0 92 4a 64
        E 1 93 3e 5a
        E 0 9f 36 5b
        E 239 82 4a 64
        E 0 92 48 64
        E 239 82 48 64
        E 0 83 3e 64
        E 0 8f 36 66
        E 0 92 46 66
        E 240 82 46 66
        E 0 92 43 64
        E 240 82 43 64
        E 1 92 3a 66
        E 0 93 3e 5a
        E 0 9f 37 5a
        E 239 8f 37 64
        E 0 9f 35 5a
        E 239 82 3a 66
        E 0 83 3e 64
        E 0 8f 35 64
        E 1 92 3a 66
        E 0 93 3e 5a
        E 0 9f 37 5a
        E 240 82 3a 66
        E 0 92 4d 64
        E 241 82 4d 64
        E 0 83 3e 64
        E 0 8f 37 64
        E 0 92 4b 66
        E 1 93 43 5a
        E 0 9f 33 5b
        E 239 82 4b 66
        E 0 92 4a 64
        E 238 82 4a 64
        E 0 83 43 64
        E 0 8f 33 66
        E 0 92 48 64
        E 241 82 48 64
        E 0 92 45 64
        E 240 82 45 64
        E 0 92 41 64
        E 0 93 3c 5a
        E 0 9f 35 5a
        E 240 8f 35 64
        E 0 9f 33 5b
        E 239 82 41 64
        E 0 83 3c 64
        E 1 8f 33 66
        E 0 92 41 64
        E 0 93 3c 5a
        E 0 9f 35 5a
        E 242 82 41 64
        E 0 92 4b 66
        E 238 82 4b 66
        E 0 83 3c 64
        E 0 8f 35 64
        E 0 92 4a 64
        E 0 93 3c 5a
        E 0 9f 29 5a
        E 239 82 4a 64
        E 0 92 48 64
        E 242 82 48 64
        E 0 83 3c 64
        E 0 8f 29 64
        E 0 92 4a 64
        E 239 82 4a 64
        E 0 92 46 66
        E 241 82 46 66
        E 0 92 41 64
        E 0 93 3e 5a
        E 0 9f 35 5a
        E 239 8f 35 64
        E 0 9f 33 5b
        E 240 82 41 64
        E 0 83 3e 64
        E 0 8f 33 66
        E 0 92 41 64
        E 0 93 3e 5a
        E 0 9f 35 5a
        E 240 82 41 64
        E 0 92 52 66
        E 240 82 52 66
        E 0 83 3e 64
        E 0 8f 35 64
        E 0 92 4d 64
        E 1 93 3e 5a
        E 0 9f 29 5a
        E 238 82 4d 64
        E 0 92 4a 64
        E 241 82 4a 64
        E 0 83 3e 64
        E 0 8f 29 64
        E 0 92 48 64
        E 242 82 48 64
        E 0 92 45 64
        E 237 82 45 64
        E 0 92 41 64
        E 0 93 3c 5a
        E 0 9f 35 5a
        E 241 8f 35 64
        E 0 9f 33 5b
        E 240 82 41 64
        E 0 83 3c 64
        E 0 8f 33 66
        E 0 92 41 64
        E 0 93 3c 5a
        E 0 9f 35 5a
        E 240 82 41 64
        E 0 92 4b 66
        E 239 82 4b 66
        E 0 83 3c 64
        E 0 8f 35 64
        E 0 92 4a 64
        E 0 93 41 5a
        E 0 9f 29 5a
        E 241 82 4a 64
        E 0 92 48 64
        E 242 82 48 64
        E 0 83 41 64
        E 0 8f 29 64
        E 0 92 4a 64
        E 0 93 41 5a
        E 0 9f 2e 5b
        E 238 82 4a 64
        E 0 8f 2e 66
        E 1 92 46 66
        E 0 9f 30 5a
        E 238 82 46 66
        E 0 83 41 64
        E 0 8f 30 64
        E 0 92 41 64
        E 0 93 46 5b
        E 0 9f 32 5a
        E 242 82 41 64
        E 0 8f 32 64
        E 0 92 4a 64
        E 1 9f 33 5b
        E 237 82 4a 64
        E 1 83 46 66
        E 0 8f 33 66
        E 0 92 48 64
        E 0 93 46 5b
        E 0 9f 35 5a
        E 241 82 48 64
        E 0 92 45 64
        E 239 82 45 64
        E 0 83 46 66
        E 0 8f 35 64
        E 0 92 41 64
        E 0 93 45 5a
        E 0 9f 29 5a
        E 239 82 41 64
        E 0 92 48 64
        E 242 82 48 64
        E 0 83 45 64
        E 0 8f 29 64
        E 0 92 4a 64
        E 0 93 46 5b
        E 0 9f 2e 5b
        E 240 82 4a 64
        E 0 8f 2e 66
        E 0 92 46 66
        E 0 9f 30 5a
        E 239 82 46 66
        E 0 83 46 66
        E 0 8f 30 64
        E 1 92 41 64
        E 0 93 46 5b
        E 0 9f 32 5a
        E 239 82 41 64
        E 0 8f 32 64
        E 0 92 4a 64
        E 0 9f 33 5b
        E 240 82 4a 64
        E 0 83 46 66
        E 0 8f 33 66
        E 0 92 48 64
        E 0 93 46 5b
        E 0 9f 35 5a
        E 242 82 48 64
        E 0 92 45 64
        E 237 82 45 64
        E 0 83 46 66
        E 0 8f 35 64
        E 0 92 41 64
        E 0 93 45 5a
        E 0 9f 29 5a
        E 241 82 41 64
        E 0 92 48 64
        E 239 82 48 64
        E 0 83 45 64
        E 0 8f 29 64
        E 0 92 46 66
        E 0 93 46 5b
        E 0 9f 2e 5b
        E 961 82 46 66
        E 0 83 46 66
        E 0 8f 2e 66
        E 962 92 46 66
        E 0 9b 46 66
        E 0 9f 27 5b
        E 478 8f 27 66
        E 0 93 37 5a
        E 0 9f 33 5b
        E 241 82 46 66
        E 0 8f 33 66
        E 0 92 48 64
        E 1 9f 32 5a
        E 243 82 48 64
        E 0 83 37 64
        E 0 8b 46 66
        E 0 8f 32 64
        E 0 92 46 66
        E 0 93 37 5a
        E 0 9b 43 64
        E 0 9f 33 5b
        E 236 82 46 66
        E 0 92 44 66
        E 240 82 44 66
        E 0 83 37 64
        E 0 8f 33 66
        E 0 92 43 64
        E 0 93 37 5a
        E 1 9f 27 5b
        E 238 82 43 64
        E 0 92 41 64
        E 240 82 41 64
        E 0 83 37 64
        E 0 8b 43 64
        E 0 8f 27 66
        E 0 92 3f 66
        E 0 9b 3f 66
        E 480 93 37 5a
        E 0 9f 33 5b
        E 239 82 3f 66
        E 0 8f 33 66
        E 0 92 4b 66
        E 0 9f 32 5a
        E 242 82 4b 66
        E 0 83 37 64
        E 0 8f 32 64
        E 0 92 4a 64
        E 0 93 37 5a
        E 0 9f 33 5b
        E 240 82 4a 64
        E 0 92 48 64
        E 240 82 48 64
        E 0 83 37 64
        E 0 8f 33 66
        E 0 92 46 66
        E 0 93 37 5a
        E 0 9f 27 5b
        E 239 82 46 66
        E 0 92 44 66
        E 239 82 44 66
        E 0 83 37 64
        E 0 8b 3f 66
        E 0 8f 27 66
        E 0 92 43 64
        E 0 9b 43 64
        E 481 93 3a 5b
        E 0 9f 33 5b
        E 239 82 43 64
        E 0 8f 33 66
        E 0 92 4f 64
        E 1 9f 32 5a
        E 241 82 4f 64
        E 0 83 3a 66
        E 0 8f 32 64
        E 1 92 4d 64
        E 0 93 3a 5b
        E 0 9f 33 5b
        E 238 82 4d 64
        E 0 92 4b 66
        E 239 82 4b 66
        E 0 83 3a 66
        E 0 8f 33 66
        E 0 92 4a 64
        E 0 93 3a 5b
        E 0 9f 27 5b
        E 239 82 4a 64
        E 1 92 48 64
        E 241 82 48 64
        E 0 83 3a 66
        E 0 8b 43 64
        E 0 8f 27 66
        E 0 92 46 66
        E 0 9b 46 66
        E 480 93 3a 5b
        E 1 9f 33 5b
        E 240 8f 33 66
        E 0 9f 32 5a
        E 240 83 3a 66
        E 0 8f 32 64
        E 0 93 3a 5b
        E 1 9f 33 5b
        E 479 82 46 66
        E 0 83 3a 66
        E 0 8b 46 66
        E 0 8f 33 66
        E 0 92 48 64
        E 0 93 3a 5b
        E 0 9b 48 64
        E 0 9f 27 5b
        E 239 82 48 64
        E 0 8b 48 64
        E 0 92 4a 64
        E 0 9b 4a 64
        E 241 82 4a 64
        E 0 83 3a 66
        E 0 8b 4a 64
        E 0 8f 27 66
        E 0 92 4b 66
        E 0 9b 4b 66
        E 480 82 4b 66
        E 0 8b 4b 66
        E 0 92 3f 66
        E 1 93 3a 5b
        E 0 9b 3f 66
        E 0 9f 33 5b
        E 237 8f 33 66
        E 0 9f 32 5a
        E 242 82 3f 66
        E 0 83 3a 66
        E 0 8b 3f 66
        E 0 8f 32 64
        E 0 93 3a 5b
        E 0 9f 33 5b
        E 478 83 3a 66
        E 0 8f 33 66
        E 1 92 43 64
        E 0 93 3a 5b
        E 0 9b 43 64
        E 0 9f 27 5b
        E 479 82 43 64
        E 0 83 3a 66
        E 0 8b 43 64
        E 0 8f 27 66
        E 0 92 44 66
        E 0 9b 44 66
        E 242 82 44 66
        E 0 8b 44 66
        E 0 92 41 64
        E 0 9b 41 64
        E 238 82 41 64
        E 0 8b 41 64
        E 0 92 3a 66
        E 1 93 3e 5a
        E 0 9b 46 66
        E 0 9f 2e 5b
        E 241 8f 2e 66
        E 0 9f 2d 5a
        E 240 82 3a 66
        E 0 83 3e 64
        E 0 8b 46 66
        E 0 8f 2d 64
        E 0 92 3a 66
        E 0 93 3e 5a
        E 0 9b 46 66
        E 0 9f 2e 5b
        E 238 82 3a 66
        E 0 8b 46 66
        E 1 92 48 64
        E 0 9b 44 66
        E 240 82 48 64
        E 1 83 3e 64
        E 0 8b 44 66
        E 0 8f 2e 66
        E 0 92 46 66
        E 0 93 3e 5a
        E 0 9b 43 64
        E 0 9f 2e 5b
        E 240 82 46 66
        E 0 8b 43 64
        E 0 92 44 66
        E 0 9b 41 64
        E 240 82 44 66
        E 0 83 3e 64
        E 0 8b 41 64
        E 0 8f 2e 66
        E 0 92 43 64
        E 0 9b 43 64
        E 239 82 43 64
        E 0 8b 43 64
        E 0 92 3f 66
        E 0 9b 3f 66
        E 241 82 3f 66
        E 0 8b 3f 66
        E 1 92 37 64
        E 0 93 37 5a
        E 0 9b 4b 66
        E 0 9f 2e 5b
        E 239 8f 2e 66
        E 0 9f 2d 5a
        E 243 82 37 64
        E 0 83 37 64
        E 0 8f 2d 64
        E 0 92 37 64
        E 0 93 37 5a
        E 0 9f 2e 5b
        E 235 82 37 64
        E 0 92 46 66
        E 241 82 46 66
        E 0 83 37 64
        E 0 8b 4b 66
        E 0 8f 2e 66
        E 0 92 4b 66
        E 0 93 37 5a
        E 1 9b 43 64
        E 0 9f 2e 5b
        E 238 82 4b 66
        E 1 92 43 64
        E 240 82 43 64
        E 0 83 37 64
        E 0 8b 43 64
        E 0 8f 2e 66
        E 0 92 46 66
        E 0 9b 44 66
        E 238 82 46 66
        E 1 8b 44 66
        E 0 92 41 64
        E 0 9b 41 64
        E 240 82 41 64
        E 0 8b 41 64
        E 1 92 3a 66
        E 0 93 3e 5a
        E 0 9b 46 66
        E 0 9f 2e 5b
        E 240 8f 2e 66
        E 0 9f 2d 5a
        E 239 82 3a 66
        E 0 83 3e 64
        E 0 8b 46 66
        E 0 8f 2d 64
        E 0 92 3a 66
        E 1 93 3e 5a
        E 0 9b 46 66
        E 0 9f 2e 5b
        E 240 82 3a 66
        E 0 8b 46 66
        E 0 92 48 64
        E 0 9b 44 66
        E 241 82 48 64
        E 0 83 3e 64
        E 0 8b 44 66
        E 0 8f 2e 66
        E 0 92 46 66
        E 0 93 3e 5a
        E 0 9b 43 64
        E 0 9f 2e 5b
        E 240 82 46 66
        E 0 8b 43 64
        E 1 92 44 66
        E 0 9b 41 64
        E 238 82 44 66
        E 0 83 3e 64
        E 0 8b 41 64
        E 0 8f 2e 66
        E 0 92 43 64
        E 0 9b 43 64
        E 241 82 43 64
        E 0 8b 43 64
        E 1 92 3f 66
        E 0 9b 41 64
        E 238 82 3f 66
        E 0 8b 41 64
        E 0 92 3a 66
        E 0 93 37 5a
        E 0 9b 3f 66
        E 0 9f 33 5b
        E 240 8f 33 66
        E 0 9f 32 5a
        E 240 82 3a 66
        E 0 83 37 64
        E 0 8b 3f 66
        E 0 8f 32 64
        E 0 92 3a 66
        E 0 93 37 5a
        E 0 9f 33 5b
        E 240 82 3a 66
        E 1 92 46 66
        E 238 82 46 66
        E 1 83 37 64
        E 0 8f 33 66
        E 0 92 4b 66
        E 0 93 37 5a
        E 0 9f 33 5b
        E 239 82 4b 66
        E 1 92 4f 64
        E 240 82 4f 64
        E 0 83 37 64
        E 0 8f 33 66
        E 0 92 4a 64
        E 0 93 41 5a
        E 0 9b 46 66
        E 480 9f 2e 5b
        E 239 8f 2e 66
        E 1 9f 2d 5a
        E 239 82 4a 64
        E 0 83 41 64
        E 0 8b 46 66
        E 0 8f 2d 64
        E 0 92 4a 64
        E 0 93 41 5a
        E 0 9b 46 66
        E 0 9f 2e 5b
        E 480 8f 2e 66
        E 1 9f 2e 5b
        E 482 82 4a 64
        E 0 83 41 64
        E 0 8b 46 66
        E 0 8f 2e 66
        E 0 92 4a 64
        E 0 93 41 5a
        E 0 9b 46 66
        E 0 9f 2e 5b
        E 478 82 4a 64
        E 0 83 41 64
        E 0 8b 46 66
        E 1 8f 2e 66
        E 0 92 48 64
        E 0 93 41 5a
        E 0 9b 45 64
        E 0 9f 2e 5b
        E 240 82 48 64
        E 0 8b 45 64
        E 0 92 4a 64
        E 0 9b 46 66
        E 239 82 4a 64
        E 0 83 41 64
        E 0 8b 46 66
        E 0 8f 2e 66
        E 0 92 4b 66
        E 0 93 45 5a
        E 0 9b 48 64
        E 0 9f 35 5a
        E 240 82 4b 66
        E 0 8b 48 64
        E 0 92 4a 64
        E 0 9b 46 66
        E 240 82 4a 64
        E 1 83 45 64
        E 0 8b 46 66
        E 0 8f 35 64
        E 0 92 4b 66
        E 0 93 45 5a
        E 0 9b 48 64
        E 0 9f 29 5a
        E 240 82 4b 66
        E 0 8b 48 64
        E 0 92 48 64
        E 0 9b 45 64
        E 239 82 48 64
        E 0 83 45 64
        E 0 8b 45 64
        E 0 8f 29 64
        E 1 92 4a 64
        E 0 93 41 5a
        E 1 9b 46 66
        E 1 9f 2e 5b
        E 476 82 4a 64
        E 0 83 41 64
        E 0 8b 46 66
        E 0 8f 2e 66
        E 1 92 48 64
        E 0 93 41 5a
        E 0 9b 45 64
        E 0 9f 2e 5b
        E 239 82 48 64
        E 1 8b 45 64
        E 0 92 4a 64
        E 0 9b 46 66
        E 240 82 4a 64
        E 0 83 41 64
        E 0 8b 46 66
        E 0 8f 2e 66
        E 0 92 4b 66
        E 0 93 45 5a
        E 0 9b 48 64
        E 0 9f 35 5a
        E 242 82 4b 66
        E 0 8b 48 64
        E 0 92 4a 64
        E 0 9b 46 66
        E 237 82 4a 64
        E 0 83 45 64
        E 0 8b 46 66
        E 0 8f 35 64
        E 0 92 4b 66
        E 1 93 45 5a
        E 0 9b 48 64
        E 0 9f 29 5a
        E 240 82 4b 66
        E 0 8b 48 64
        E 0 92 48 64
        E 0 9b 45 64
        E 241 82 48 64
        E 0 83 45 64
        E 0 8b 45 64
        E 0 8f 29 64
        E 0 92 4a 64
        E 0 93 41 5a
        E 0 9b 46 66
        E 0 9f 2e 5b
        E 481 82 4a 64
        E 0 8b 46 66
        E 0 92 48 64
        E 0 9b 45 64
        E 239 82 48 64
        E 0 8b 45 64
        E 0 92 46 66
        E 0 9b 43 64
        E 238 82 46 66
        E 0 83 41 64
        E 0 8b 43 64
        E 0 8f 2e 66
        E 0 92 45 64
        E 0 93 41 5a
        E 0 9b 41 64
        E 0 9f 2e 5b
        E 481 82 45 64
        E 0 8b 41 64
        E 0 92 43 64
        E 0 9b 3f 66
        E 480 82 43 64
        E 0 83 41 64
        E 0 8b 3f 66
        E 0 8f 2e 66
        E 0 92 43 64
        E 0 93 3a 5b
        E 1 9b 3e 64
        E 0 9f 2e 5b
        E 479 82 43 64
        E 0 83 3a 66
        E 0 8b 3e 64
        E 0 8f 2e 66
        E 0 92 41 64
        E 0 93 3e 5a
        E 0 9b 3c 64
        E 0 9f 2e 5b
        E 240 83 3e 64
        E 0 8f 2e 66
        E 0 93 3c 5a
        E 0 9f 2d 5a
        E 240 82 41 64
        E 0 83 3c 64
        E 0 8b 3c 64
        E 0 8f 2d 64
        E 0 93 3e 5a
        E 0 9f 2e 5b
        E 482 83 3e 64
        E 0 8f 2e 66
        E 0 93 3e 5a
        E 0 9f 2e 5b
        E 479 83 3e 64
        E 0 8f 2e 66
        E 0 92 3a 66
        E 0 93 3a 5b
        E 0 9b 3a 66
        E 0 9f 2e 5b
        E 959 82 3a 66
        E 0 83 3a 66
        E 0 8b 3a 66
        E 0 8f 2e 66
        E 0 92 3e 64
        E 0 93 3e 5a
        E 0 9b 3e 64
        E 0 9f 32 5a
        E 481 82 3e 64
        E 0 83 3e 64
        E 0 8b 3e 64
        E 0 8f 32 64
        E 0 92 41 64
        E 0 93 41 5a
        E 1 9b 41 64
        E 0 9f 35 5a
        E 479 82 41 64
        E 0 83 41 64
        E 0 8b 41 64
        E 0 8f 35 64
        E 0 92 46 66
        E 0 93 46 5b
        E 0 9b 46 66
        E 0 9f 3a 5b
        E 479 82 46 66
        E 0 83 46 66
        E 0 8b 46 66
        E 0 8f 3a 66
        E 0 92 4a 64
        E 0 93 4a 5a
        E 0 9b 4a 64
        E 0 9f 3e 5a
        E 240 82 4a 64
        E 1 83 4a 64
        E 0 8b 4a 64
        E 0 8f 3e 64
        E 0 92 4b 66
        E 0 93 4b 5b
        E 0 9b 4b 66
        E 0 9f 3f 5b
        E 239 82 4b 66
        E 0 83 4b 66
        E 0 8b 4b 66
        E 0 8f 3f 66
        E 0 92 4d 64
        E 0 93 4d 5a
        E 0 9b 4d 64
        E 0 9f 41 5a
        E 479 82 4d 64
        E 0 83 4d 64
        E 0 8b 4d 64
        E 0 8f 41 64
        E 0 92 41 64
        E 1 93 41 5a
        E 0 9b 41 64
        E 0 9f 35 5a
        E 480 82 41 64
        E 0 83 41 64
        E 0 8b 41 64
        E 0 8f 35 64
        E 0 92 43 64
        E 0 93 3a 5b
        E 0 9b 43 64
        E 0 9f 33 5b
        E 241 82 43 64
        E 0 92 3f 66
        E 239 82 3f 66
        E 0 83 3a 66
        E 0 8b 43 64
        E 0 8f 33 66
        E 0 92 3a 66
        E 0 93 37 5a
        E 1 9b 3f 66
        E 0 9f 33 5b
        E 240 8b 3f 66
        E 0 9b 41 64
        E 238 82 3a 66
        E 0 83 37 64
        E 0 8b 41 64
        E 0 8f 33 66
        E 0 92 3a 66
        E 0 93 37 5a
        E 0 9b 43 64
        E 0 9f 33 5b
        E 241 82 3a 66
        E 0 8b 43 64
        E 1 92 43 64
        E 0 9b 45 64
        E 240 82 43 64
        E 0 83 37 64
        E 0 8b 45 64
        E 0 8f 33 66
        E 0 92 45 64
        E 0 93 37 5a
        E 1 9b 46 66
        E 0 9f 27 5b
        E 238 82 45 64
        E 0 8b 46 66
        E 0 92 46 66
        E 0 9b 48 64
        E 241 82 46 66
        E 0 83 37 64
        E 0 8b 48 64
        E 0 8f 27 66
        E 1 92 45 64
        E 0 9b 45 64
        E 239 82 45 64
        E 0 92 41 64
        E 239 82 41 64
        E 0 8b 45 64
        E 0 92 3c 64
        E 0 93 39 5a
        E 0 9b 41 64
        E 0 9f 35 5a
        E 241 8b 41 64
        E 0 9b 43 64
        E 239 82 3c 64
        E 0 83 39 64
        E 0 8b 43 64
        E 0 8f 35 64
        E 0 92 3c 64
        E 0 93 39 5a
        E 0 9b 45 64
        E 0 9f 35 5a
        E 240 82 3c 64
        E 0 8b 45 64
        E 0 92 45 64
        E 0 9b 46 66
        E 241 82 45 64
        E 0 83 39 64
        E 0 8b 46 66
        E 0 8f 35 64
        E 0 92 46 66
        E 1 93 39 5a
        E 0 9b 48 64
        E 0 9f 29 5a
        E 238 82 46 66
        E 0 92 48 64
        E 240 82 48 64
        E 0 83 39 64
        E 0 8b 48 64
        E 0 8f 29 64
        E 0 92 46 66
        E 0 9b 46 66
        E 240 82 46 66
        E 0 92 43 64
        E 240 82 43 64
        E 0 8b 46 66
        E 1 92 3e 64
        E 0 93 3a 5b
        E 0 9b 43 64
        E 0 9f 37 5a
        E 238 8b 43 64
        E 0 9b 45 64
        E 242 82 3e 64
        E 0 83 3a 66
        E 0 8b 45 64
        E 0 8f 37 64
        E 0 92 3e 64
        E 0 93 3a 5b
        E 0 9b 46 66
        E 0 9f 37 5a
        E 239 82 3e 64
        E 1 8b 46 66
        E 0 92 46 66
        E 0 9b 48 64
        E 238 82 46 66
        E 0 83 3a 66
        E 0 8b 48 64
        E 0 8f 37 64
        E 1 92 48 64
        E 0 93 3a 5b
        E 0 9b 4a 64
        E 0 9f 2b 5a
        E 240 82 48 64
        E 0 92 4a 64
        E 240 82 4a 64
        E 0 83 3a 66
        E 0 8b 4a 64
        E 0 8f 2b 64
        E 0 92 48 64
        E 0 9b 48 64
        E 241 82 48 64
        E 0 92 45 64
        E 241 82 45 64
        E 0 8b 48 64
        E 0 92 3f 66
        E 0 93 3c 5a
        E 0 9b 45 64
        E 0 9f 39 5a
        E 236 8b 45 64
        E 0 9b 46 66
        E 242 82 3f 66
        E 0 83 3c 64
        E 0 8b 46 66
        E 0 8f 39 64
        E 0 92 3f 66
        E 0 93 3c 5a
        E 0 9b 48 64
        E 0 9f 39 5a
        E 239 82 3f 66
        E 0 8b 48 64
        E 1 92 48 64
        E 0 9b 4a 64
        E 240 82 48 64
        E 0 83 3c 64
        E 0 8b 4a 64
        E 0 8f 39 64
        E 1 92 4a 64
        E 0 93 39 5a
        E 0 9b 4b 66
        E 0 9f 35 5a
        E 239 82 4a 64
        E 0 92 4b 66
        E 241 82 4b 66
        E 1 83 39 64
        E 0 8b 4b 66
        E 0 8f 35 64
        E 1 92 4a 64
        E 0 93 46 5b
        E 0 9b 4a 64
        E 0 9f 3a 5b
        E 476 82 4a 64
        E 0 83 46 66
        E 0 8b 4a 64
        E 0 8f 3a 66
        E 0 92 48 64
        E 0 93 45 5a
        E 0 9b 48 64
        E 0 9f 39 5a
        E 240 82 48 64
        E 0 83 45 64
        E 0 8b 48 64
        E 0 8f 39 64
        E 0 92 46 66
        E 0 93 43 5a
        E 0 9b 46 66
        E 0 9f 37 5a
        E 241 82 46 66
        E 0 83 43 64
        E 0 8b 46 66
        E 0 8f 37 64
        E 0 92 45 64
        E 0 93 41 5a
        E 0 9b 45 64
        E 0 9f 35 5a
        E 240 82 45 64
        E 0 83 41 64
        E 0 8b 45 64
        E 0 8f 35 64
        E 0 92 43 64
        E 0 93 3f 5b
        E 0 9b 43 64
        E 0 9f 33 5b
        E 240 82 43 64
        E 0 83 3f 66
        E 0 8b 43 64
        E 0 8f 33 66
        E 0 92 41 64
        E 0 93 3e 5a
        E 0 9b 41 64
        E 0 9f 32 5a
        E 240 82 41 64
        E 0 83 3e 64
        E 0 8b 41 64
        E 0 8f 32 64
        E 0 92 3f 66
        E 0 93 3c 5a
        E 0 9b 3f 66
        E 0 9f 30 5a
        E 239 82 3f 66
        E 0 83 3c 64
        E 0 8b 3f 66
        E 0 8f 30 64
        E 0 92 3e 64
        E 0 93 3a 5b
        E 0 9b 3e 64
        E 1 9f 2e 5b
        E 480 82 3e 64
        E 0 83 3a 66
        E 0 8b 3e 64
        E 0 8f 2e 66
        E 0 92 46 66
        E 0 93 46 5b
        E 0 9b 46 66
        E 0 9f 3a 5b
        E 484 82 46 66
        E 0 83 46 66
        E 0 8b 46 66
        E 0 8f 3a 66
        E 0 92 48 64
        E 0 93 3f 5b
        E 0 9b 48 64
        E 0 9f 33 5b
        E 476 82 48 64
        E 0 83 3f 66
        E 0 8b 48 64
        E 0 8f 33 66
        E 1 92 46 66
        E 0 93 41 5a
        E 0 9b 46 66
        E 0 9f 35 5a
        E 239 82 46 66
        E 0 8b 46 66
        E 0 92 45 64
        E 0 9b 45 64
        E 241 82 45 64
        E 0 83 41 64
        E 0 8b 45 64
        E 0 8f 35 64
        E 0 92 46 66
        E 0 93 3a 5b
        E 0 9b 46 66
        E 0 9f 2e 5b
        E 480 83 3a 66
        E 0 8f 2e 66
        E 0 93 3e 5a
        E 0 9f 2e 5b
        E 240 82 46 66
        E 0 83 3e 64
        E 0 8f 2e 66
        E 0 92 43 64
        E 0 93 3c 5a
        E 0 9f 2d 5a
        E 240 82 43 64
        E 0 83 3c 64
        E 0 8b 46 66
        E 0 8f 2d 64
        E 1 92 41 64
        E 0 93 3e 5a
        E 0 9f 2e 5b
        E 239 82 41 64
        E 0 92 3f 66
        E 239 82 3f 66
        E 0 83 3e 64
        E 0 8f 2e 66
        E 0 92 3e 64
        E 0 93 3e 5a
        E 0 9f 2e 5b
        E 239 82 3e 64
        E 0 92 3c 64
        E 240 82 3c 64
        E 0 83 3e 64
        E 0 8f 2e 66
        E 0 92 3a 66
        E 480 93 3e 5a
        E 2 9f 2e 5b
        E 239 82 3a 66
        E 0 83 3e 64
        E 0 8f 2e 66
        E 0 92 46 66
        E 0 93 3c 5a
        E 0 9f 2d 5a
        E 241 82 46 66
        E 0 83 3c 64
        E 0 8f 2d 64
        E 0 92 45 64
        E 0 93 3e 5a
        E 0 9f 2e 5b
        E 239 82 45 64
        E 0 92 43 64
        E 240 82 43 64
        E 0 83 3e 64
        E 0 8f 2e 66
        E 0 92 41 64
        E 0 93 3e 5a
        E 0 9f 2e 5b
        E 241 82 41 64
        E 0 92 3f 66
        E 238 82 3f 66
        E 0 83 3e 64
        E 0 8f 2e 66
        E 0 92 3e 64
        E 482 93 3e 5a
        E 0 9f 2e 5b
        E 240 82 3e 64
        E 0 83 3e 64
        E 0 8f 2e 66
        E 0 92 4a 64
        E 0 93 3c 5a
        E 0 9f 2d 5a
        E 241 82 4a 64
        E 0 83 3c 64
        E 0 8f 2d 64
        E 0 92 48 64
        E 0 93 3e 5a
        E 0 9f 2e 5b
        E 238 82 48 64
        E 0 92 46 66
        E 240 82 46 66
        E 0 83 3e 64
        E 0 8f 2e 66
        E 0 92 45 64
        E 0 93 3e 5a
        E 0 9f 2e 5b
        E 239 82 45 64
        E 0 92 43 64
        E 242 82 43 64
        E 0 83 3e 64
        E 0 8f 2e 66
        E 0 92 41 64
        E 478 93 3e 5a
        E 1 9f 2e 5b
        E 240 82 41 64
        E 0 83 3e 64
        E 0 8f 2e 66
        E 0 92 4f 64
        E 0 93 3c 5a
        E 1 9f 2d 5a
        E 239 82 4f 64
        E 0 83 3c 64
        E 0 8f 2d 64
        E 0 92 4d 64
        E 0 93 3e 5a
        E 0 9f 2e 5b
        E 238 82 4d 64
        E 0 92 4b 66
        E 244 82 4b 66
        E 0 83 3e 64
        E 0 8f 2e 66
        E 0 92 4a 64
        E 0 93 3e 5a
        E 0 9f 2e 5b
        E 236 82 4a 64
        E 1 92 48 64
        E 241 82 48 64
        E 0 83 3e 64
        E 0 8f 2e 66
        E 0 92 4a 64
        E 240 82 4a 64
        E 0 92 46 66
        E 239 82 46 66
        E 0 92 41 64
        E 0 93 3e 5a
        E 0 9f 2e 5b
        E 242 83 3e 64
        E 0 8f 2e 66
        E 0 93 3c 5a
        E 0 9f 2d 5a
        E 239 82 41 64
        E 0 83 3c 64
        E 0 8f 2d 64
        E 0 92 41 64
        E 0 93 3e 5a
        E 0 9f 2e 5b
        E 241 82 41 64
        E 0 92 4d 64
        E 241 82 4d 64
        E 0 83 3e 64
        E 0 8f 2e 66
        E 0 92 52 66
        E 0 93 3e 5a
        E 0 9f 2e 5b
        E 240 82 52 66
        E 0 92 4a 64
        E 238 82 4a 64
        E 0 83 3e 64
        E 0 8f 2e 66
        E 0 92 48 64
        E 241 82 48 64
        E 0 92 45 64
        E 239 82 45 64
        E 0 92 41 64
        E 0 93 39 5a
        E 0 9f 35 5a
        E 241 83 39 64
        E 0 8f 35 64
        E 0 93 37 5a
        E 1 9f 33 5b
        E 240 82 41 64
        E 1 83 37 64
        E 0 8f 33 66
        E 0 92 41 64
        E 0 93 39 5a
        E 0 9f 35 5a
        E 238 82 41 64
        E 1 92 4d 64
        E 238 82 4d 64
        E 0 83 39 64
        E 0 8f 35 64
        E 1 92 51 64
        E 0 93 39 5a
        E 0 9f 35 5a
        E 240 82 51 64
        E 0 92 48 64
        E 238 82 48 64
        E 0 83 39 64
        E 0 8f 35 64
        E 0 92 4a 64
        E 0 93 35 5a
        E 0 9f 2e 5b
        E 480 82 4a 64
        E 0 83 35 64
        E 0 8f 2e 66
        E 0 92 52 66
        E 1 93 41 5a
        E 1 9f 2e 5b
        E 479 82 52 66
        E 0 83 41 64
        E 0 8f 2e 66
        E 0 92 48 64
        E 0 93 41 5a
        E 0 9f 35 5a
        E 482 82 48 64
        E 0 83 41 64
        E 0 8f 35 64
        E 0 92 51 64
        E 0 93 41 5a
        E 0 9f 29 5a
        E 482 82 51 64
        E 0 83 41 64
        E 0 8f 29 64
        E 0 92 46 66
        E 0 93 3e 5a
        E 0 9f 2e 5b
        E 476 83 3e 64
        E 0 8f 2e 66
        E 0 93 3e 5a
        E 0 9f 2e 5b
        E 240 82 46 66
        E 0 83 3e 64
        E 0 8f 2e 66
        E 0 92 4f 64
        E 1 93 3c 5a
        E 0 9f 2d 5a
        E 239 82 4f 64
        E 0 83 3c 64
        E 0 8f 2d 64
        E 0 92 4d 64
        E 0 93 3e 5a
        E 0 9f 2e 5b
        E 240 82 4d 64
        E 0 92 4b 66
        E 238 82 4b 66
        E 1 83 3e 64
        E 0 8f 2e 66
        E 0 92 4a 64
        E 0 93 3e 5a
        E 0 9f 2e 5b
        E 242 82 4a 64
        E 0 92 48 64
        E 238 82 48 64
        E 0 83 3e 64
        E 1 8f 2e 66
        E 0 92 46 66
        E 0 9b 46 66
        E 480 93 37 5a
        E 0 9f 33 5b
        E 239 82 46 66
        E 0 8f 33 66
        E 0 92 48 64
        E 0 9f 32 5a
        E 240 82 48 64
        E 0 83 37 64
        E 1 8b 46 66
        E 0 8f 32 64
        E 0 92 46 66
        E 0 93 37 5a
        E 0 9b 43 64
        E 0 9f 33 5b
        E 240 82 46 66
        E 0 92 44 66
        E 240 82 44 66
        E 0 83 37 64
        E 0 8f 33 66
        E 0 92 43 64
        E 0 93 37 5a
        E 0 9f 27 5b
        E 241 82 43 64
        E 0 92 41 64
        E 239 82 41 64
        E 0 83 37 64
        E 0 8b 43 64
        E 0 8f 27 66
        E 0 92 3f 66
        E 0 9b 3f 66
        E 480 93 37 5a
        E 0 9f 35 5a
        E 241 82 3f 66
        E 0 8f 35 64
        E 1 92 4b 66
        E 0 9f 33 5b
        E 237 82 4b 66
        E 0 83 37 64
        E 0 8f 33 66
        E 1 92 4a 64
        E 0 93 37 5a
        E 0 9f 35 5a
        E 240 82 4a 64
        E 0 92 48 64
        E 239 82 48 64
        E 0 83 37 64
        E 0 8f 35 64
        E 0 92 46 66
        E 0 93 37 5a
        E 0 9f 29 5a
        E 241 82 46 66
        E 0 92 44 66
        E 240 82 44 66
        E 0 83 37 64
        E 0 8b 3f 66
        E 0 8f 29 64
        E 0 92 43 64
        E 0 9b 43 64
        E 481 93 3a 5b
        E 1 9f 33 5b
        E 237 82 43 64
        E 0 8f 33 66
        E 0 92 4f 64
        E 0 9f 32 5a
        E 240 82 4f 64
        E 0 83 3a 66
        E 0 8f 32 64
        E 0 92 4d 64
        E 0 93 3a 5b
        E 0 9f 33 5b
        E 242 82 4d 64
        E 1 92 4b 66
        E 239 82 4b 66
        E 0 83 3a 66
        E 0 8f 33 66
        E 0 92 4a 64
        E 1 93 3a 5b
        E 0 9f 27 5b
        E 239 82 4a 64
        E 0 92 48 64
        E 239 82 48 64
        E 0 83 3a 66
        E 0 8b 43 64
        E 0 8f 27 66
        E 0 92 46 66
        E 0 9b 46 66
        E 481 93 37 5a
        E 0 9f 33 5b
        E 239 8f 33 66
        E 0 9f 32 5a
        E 239 83 37 64
        E 1 8f 32 64
        E 0 93 37 5a
        E 0 9f 33 5b
        E 480 82 46 66
        E 0 83 37 64
        E 0 8b 46 66
        E 0 8f 33 66
        E 0 92 48 64
        E 0 93 37 5a
        E 0 9b 48 64
        E 0 9f 27 5b
        E 239 82 48 64
        E 0 8b 48 64
        E 1 92 49 66
        E 0 9b 49 66
        E 239 82 49 66
        E 0 83 37 64
        E 0 8b 49 66
        E 0 8f 27 66
        E 0 92 48 64
        E 0 9b 48 64
        E 242 8b 48 64
        E 0 9b 46 66
        E 240 8b 46 66
        E 0 93 3f 5b
        E 1 9b 44 66
        E 0 9f 38 5b
        E 239 82 48 64
        E 0 8f 38 66
        E 0 92 50 66
        E 1 9f 37 5a
        E 238 82 50 66
        E 0 83 3f 66
        E 0 8b 44 66
        E 0 8f 37 64
        E 0 92 4f 64
        E 0 93 3f 5b
        E 1 9f 38 5b
        E 240 82 4f 64
        E 0 92 4d 64
        E 239 82 4d 64
        E 0 83 3f 66
        E 0 8f 38 66
        E 1 92 4b 66
        E 0 93 3f 5b
        E 0 9f 2c 5b
        E 239 82 4b 66
        E 0 92 49 66
        E 240 82 49 66
        E 0 83 3f 66
        E 0 8f 2c 66
        E 0 92 48 64
        E 1 9b 48 64
        E 479 93 39 5a
        E 0 9f 35 5a
        E 239 82 48 64
        E 0 8f 35 64
        E 0 92 4a 64
        E 0 9f 33 5b
        E 241 82 4a 64
        E 0 83 39 64
        E 0 8b 48 64
        E 0 8f 33 66
        E 0 92 48 64
        E 0 93 39 5a
        E 0 9b 45 64
        E 0 9f 35 5a
        E 241 82 48 64
        E 0 92 46 66
        E 239 82 46 66
        E 0 83 39 64
        E 0 8f 35 64
        E 0 92 45 64
        E 0 93 39 5a
        E 0 9f 29 5a
        E 241 82 45 64
        E 1 92 43 64
        E 237 82 43 64
        E 0 83 39 64
        E 0 8b 45 64
        E 0 8f 29 64
        E 0 92 41 64
        E 0 9b 41 64
        E 482 93 39 5a
        E 0 9f 35 5a
        E 239 82 41 64
        E 0 8f 35 64
        E 0 92 4d 64
        E 0 9f 33 5b
        E 240 82 4d 64
        E 0 83 39 64
        E 0 8f 33 66
        E 0 92 4b 66
        E 0 93 39 5a
        E 0 9f 35 5a
        E 240 82 4b 66
        E 0 92 4a 64
        E 240 82 4a 64
        E 0 83 39 64
        E 1 8f 35 64
        E 0 92 48 64
        E 0 93 39 5a
        E 0 9f 29 5a
        E 238 82 48 64
        E 1 92 46 66
        E 240 82 46 66
        E 0 83 39 64
        E 0 8b 41 64
        E 0 8f 29 64
        E 0 92 45 64
        E 0 9b 45 64
        E 480 93 3c 5a
        E 0 9f 35 5a
        E 240 82 45 64
        E 0 8f 35 64
        E 0 92 51 64
        E 0 9f 33 5b
        E 239 82 51 64
        E 0 83 3c 64
        E 0 8f 33 66
        E 1 92 4f 64
        E 0 93 3c 5a
        E 0 9f 35 5a
        E 241 82 4f 64
        E 0 92 4d 64
        E 238 82 4d 64
        E 1 83 3c 64
        E 0 8f 35 64
        E 0 92 4b 66
        E 0 93 3c 5a
        E 0 9f 29 5a
        E 239 82 4b 66
        E 1 92 4a 64
        E 240 82 4a 64
        E 0 83 3c 64
        E 0 8b 45 64
        E 0 8f 29 64
        E 0 92 48 64
        E 0 9b 48 64
        E 480 93 39 5a
        E 0 9f 35 5a
        E 240 8f 35 64
        E 0 9f 33 5b
        E 241 83 39 64
        E 0 8f 33 66
        E 0 93 39 5a
        E 0 9f 35 5a
        E 479 82 48 64
        E 0 83 39 64
        E 0 8b 48 64
        E 0 8f 35 64
        E 0 92 4a 64
        E 1 93 39 5a
        E 0 9b 4a 64
        E 0 9f 29 5a
        E 240 82 4a 64
        E 0 8b 4a 64
        E 1 92 4b 66
        E 0 9b 4b 66
        E 237 82 4b 66
        E 1 83 39 64
        E 0 8b 4b 66
        E 0 8f 29 64
        E 0 92 4a 64
        E 0 9b 4a 64
        E 241 82 4a 64
        E 0 8b 4a 64
        E 0 92 48 64
        E 0 9b 48 64
        E 239 82 48 64
        E 0 8b 48 64
        E 0 92 46 66
        E 0 93 41 5a
        E 0 9b 46 66
        E 0 9f 3a 5b
        E 238 8f 3a 66
        E 0 9f 38 5b
        E 243 82 46 66
        E 1 83 41 64
        E 0 8b 46 66
        E 0 8f 38 66
        E 4 93 3a 5b
        E 1 9f 37 5a
        E 475 83 3a 66
        E 0 8f 37 64
        E 1 92 43 64
        E 0 93 37 5a
        E 0 9b 43 64
        E 0 9f 33 5b
        E 477 82 43 64
        E 0 83 37 64
        E 0 8b 43 64
        E 0 8f 33 66
        E 0 92 44 66
        E 0 9b 44 66
        E 240 82 44 66
        E 0 8b 44 66
        E 0 92 41 64
        E 0 9b 41 64
        E 241 82 41 64
        E 0 8b 41 64
        E 0 92 3a 66
        E 0 93 3e 5a
        E 1 9b 46 66
        E 0 9f 2e 5b
        E 239 8f 2e 66
        E 0 9f 2d 5a
        E 239 82 3a 66
        E 0 83 3e 64
        E 0 8f 2d 64
        E 0 92 3a 66
        E 1 93 3e 5a
        E 0 9f 2e 5b
        E 239 82 3a 66
        E 0 92 48 64
        E 241 82 48 64
        E 0 83 3e 64
        E 0 8b 46 66
        E 0 8f 2e 66
        E 0 92 46 66
        E 0 93 3e 5a
        E 0 9b 41 64
        E 0 9f 2e 5b
        E 237 82 46 66
        E 1 92 44 66
        E 242 82 44 66
        E 0 83 3e 64
        E 0 8b 41 64
        E 0 8f 2e 66
        E 0 92 43 64
        E 0 9b 43 64
        E 239 82 43 64
        E 0 8b 43 64
        E 0 92 3f 66
        E 0 9b 41 64
        E 241 82 3f 66
        E 0 8b 41 64
        E 1 92 3a 66
        E 0 93 37 5a
        E 0 9b 4b 66
        E 0 9f 2e 5b
        E 239 8f 2e 66
        E 0 9f 2d 5a
        E 239 82 3a 66
        E 0 83 37 64
        E 0 8f 2d 64
        E 0 92 3a 66
        E 0 93 37 5a
        E 0 9f 2e 5b
        E 241 82 3a 66
        E 0 92 46 66
        E 240 82 46 66
        E 0 83 37 64
        E 0 8b 4b 66
        E 0 8f 2e 66
        E 0 92 4b 66
        E 0 93 37 5a
        E 1 9b 43 64
        E 0 9f 2e 5b
        E 239 82 4b 66
        E 0 92 43 64
        E 241 82 43 64
        E 0 83 37 64
        E 0 8b 43 64
        E 0 8f 2e 66
        E 0 92 44 66
        E 0 9b 44 66
        E 237 82 44 66
        E 1 8b 44 66
        E 0 92 41 64
        E 0 9b 41 64
        E 241 82 41 64
        E 0 8b 41 64
        E 0 92 3a 66
        E 0 93 3e 5a
        E 0 9b 46 66
        E 0 9f 2e 5b
        E 237 8f 2e 66
        E 0 9f 2d 5a
        E 242 82 3a 66
        E 0 83 3e 64
        E 0 8f 2d 64
        E 0 92 3a 66
        E 1 93 3e 5a
        E 0 9f 2e 5b
        E 240 82 3a 66
        E 1 92 48 64
        E 238 82 48 64
        E 0 83 3e 64
        E 0 8b 46 66
        E 0 8f 2e 66
        E 0 92 46 66
        E 0 93 3e 5a
        E 0 9b 41 64
        E 0 9f 2e 5b
        E 241 82 46 66
        E 0 92 44 66
        E 240 82 44 66
        E 0 83 3e 64
        E 0 8b 41 64
        E 0 8f 2e 66
        E 0 92 43 64
        E 0 9b 43 64
        E 239 82 43 64
        E 0 8b 43 64
        E 0 92 41 64
        E 0 9b 41 64
        E 240 82 41 64
        E 0 8b 41 64
        E 0 92 3f 66
        E 0 93 3a 5b
        E 0 9b 3f 66
        E 0 9f 33 5b
        E 240 8f 33 66
        E 0 9f 32 5a
        E 238 82 3f 66
        E 1 83 3a 66
        E 0 8b 3f 66
        E 0 8f 32 64
        E 0 92 46 66
        E 0 93 43 5a
        E 0 9b 46 66
        E 0 9f 33 5b
        E 479 82 46 66
        E 1 83 43 64
        E 0 8b 46 66
        E 0 8f 33 66
        E 0 92 46 66
        E 0 93 43 5a
        E 0 9b 46 66
        E 0 9f 27 5b
        E 481 82 46 66
        E 0 83 43 64
        E 0 8b 46 66
        E 0 8f 27 66
        E 0 92 48 64
        E 0 9b 48 64
        E 241 82 48 64
        E 0 8b 48 64
        E 0 92 46 66
        E 0 9b 46 66
        E 238 82 46 66
        E 0 8b 46 66
        E 0 92 44 66
        E 0 93 3f 5b
        E 0 9b 44 66
        E 0 9f 38 5b
        E 241 82 44 66
        E 0 8b 44 66
        E 0 8f 38 66
        E 0 92 46 66
        E 0 9b 46 66
        E 0 9f 37 5a
        E 240 82 46 66
        E 0 83 3f 66
        E 0 8b 46 66
        E 0 8f 37 64
        E 0 92 48 64
        E 0 93 3f 5b
        E 0 9b 48 64
        E 0 9f 38 5b
        E 479 82 48 64
        E 0 83 3f 66
        E 0 8b 48 64
        E 1 8f 38 66
        E 0 92 48 64
        E 0 93 3c 5a
        E 0 9b 48 64
        E 0 9f 2c 5b
        E 479 82 48 64
        E 1 83 3c 64
        E 0 8b 48 64
        E 0 8f 2c 66
        E 0 92 4a 64
        E 0 9b 4a 64
        E 239 82 4a 64
        E 0 8b 4a 64
        E 0 92 48 64
        E 0 9b 48 64
        E 241 82 48 64
        E 0 8b 48 64
        E 0 92 46 66
        E 0 93 41 5a
        E 0 9b 46 66
        E 0 9f 3a 5b
        E 239 82 46 66
        E 0 8b 46 66
        E 0 8f 3a 66
        E 0 92 48 64
        E 1 9b 48 64
        E 0 9f 3c 5a
        E 241 82 48 64
        E 1 83 41 64
        E 1 8b 48 64
        E 1 8f 3c 64
        E 0 92 4a 64
        E 0 93 41 5a
        E 0 9b 4a 64
        E 0 9f 3a 5b
        E 475 82 4a 64
        E 0 83 41 64
        E 0 8b 4a 64
        E 0 8f 3a 66
        E 0 92 4a 64
        E 1 93 41 5a
        E 0 9b 4a 64
        E 0 9f 38 5b
        E 480 82 4a 64
        E 0 83 41 64
        E 0 8b 4a 64
        E 0 8f 38 66
        E 0 92 4b 66
        E 0 93 3a 5b
        E 0 9b 4b 66
        E 0 9f 37 5a
        E 480 82 4b 66
        E 0 83 3a 66
        E 0 8b 4b 66
        E 0 8f 37 64
        E 0 92 4a 64
        E 0 93 3c 5a
        E 0 9b 4a 64
        E 0 9f 38 5b
        E 241 82 4a 64
        E 0 8b 4a 64
        E 1 92 48 64
        E 0 9b 48 64
        E 239 82 48 64
        E 0 83 3c 64
        E 0 8b 48 64
        E 0 8f 38 66
        E 0 92 46 66
        E 0 93 41 5a
        E 0 9b 46 66
        E 0 9f 32 5a
        E 240 82 46 66
        E 0 8b 46 66
        E 0 92 44 66
        E 0 9b 44 66
        E 240 82 44 66
        E 0 83 41 64
        E 0 8b 44 66
        E 0 8f 32 64
        E 0 92 43 64
        E 0 93 3e 5a
        E 0 9b 43 64
        E 0 9f 2e 5b
        E 239 82 43 64
        E 0 8b 43 64
        E 0 92 41 64
        E 0 9b 41 64
        E 242 82 41 64
        E 0 83 3e 64
        E 0 8b 41 64
        E 0 8f 2e 66
        E 0 92 43 64
        E 0 93 3a 5b
        E 0 9b 43 64
        E 0 9f 33 5b
        E 480 82 43 64
        E 0 83 3a 66
        E 0 8b 43 64
        E 0 8f 33 66
        E 0 92 41 64
        E 0 93 3a 5b
        E 1 9b 41 64
        E 0 9f 2b 5a
        E 236 82 41 64
        E 0 8b 41 64
        E 1 92 3f 66
        E 0 9b 3f 66
        E 242 82 3f 66
        E 0 83 3a 66
        E 0 8b 3f 66
        E 0 8f 2b 64
        E 0 92 41 64
        E 0 93 3c 5a
        E 0 9b 41 64
        E 0 9f 2c 5b
        E 479 82 41 64
        E 0 83 3c 64
        E 0 8b 41 64
        E 0 8f 2c 66
        E 0 92 3e 64
        E 1 93 3a 5b
        E 0 9b 3e 64
        E 0 9f 2e 5b
        E 478 82 3e 64
        E 0 83 3a 66
        E 0 8b 3e 64
        E 0 8f 2e 66
        E 0 92 3f 66
        E 0 93 3a 5b
        E 0 9b 3f 66
        E 0 9f 27 5b
        E 480 83 3a 66
        E 0 8f 27 66
        E 0 93 37 5a
        E 0 9f 33 5b
        E 241 8f 33 66
        E 0 9f 32 5a
        E 238 82 3f 66
        E 0 83 37 64
        E 0 8b 3f 66
        E 0 8f 32 64
        E 0 93 37 5a
        E 0 9f 33 5b
        E 480 83 37 64
        E 0 8f 33 66
        E 1 92 43 64
        E 0 93 37 5a
        E 0 9b 43 64
        E 0 9f 27 5b
        E 479 82 43 64
        E 0 83 37 64
        E 0 8b 43 64
        E 0 8f 27 66
        E 0 92 41 64
        E 0 9b 41 64
        E 241 82 41 64
        E 0 92 3e 64
        E 242 82 3e 64
        E 0 8b 41 64
        E 0 92 3a 66
        E 0 93 3e 5a
        E 0 9b 3e 64
        E 0 9f 2e 5b
        E 238 8b 3e 64
        E 0 9b 3f 66
        E 238 82 3a 66
        E 0 83 3e 64
        E 0 8b 3f 66
        E 0 8f 2e 66
        E 0 92 3a 66
        E 1 93 3e 5a
        E 0 9b 41 64
        E 0 9f 2e 5b
        E 242 82 3a 66
        E 0 8b 41 64
        E 0 92 41 64
        E 0 9b 43 64
        E 238 82 41 64
        E 0 83 3e 64
        E 0 8b 43 64
        E 0 8f 2e 66
        E 0 92 43 64
        E 0 93 3e 5a
        E 0 9b 44 66
        E 0 9f 2e 5b
        E 241 82 43 64
        E 0 92 44 66
        E 241 82 44 66
        E 0 83 3e 64
        E 0 8b 44 66
        E 0 8f 2e 66
        E 0 92 43 64
        E 0 9b 43 64
        E 238 82 43 64
        E 0 92 3f 66
        E 242 82 3f 66
        E 0 8b 43 64
        E 0 92 3a 66
        E 1 93 3f 5b
        E 0 9b 3f 66
        E 0 9f 2e 5b
        E 239 8b 3f 66
        E 0 9b 41 64
        E 240 82 3a 66
        E 0 83 3f 66
        E 0 8b 41 64
        E 0 8f 2e 66
        E 1 92 3a 66
        E 0 93 3f 5b
        E 0 9b 43 64
        E 0 9f 2e 5b
        E 239 82 3a 66
        E 0 8b 43 64
        E 0 92 43 64
        E 0 9b 44 66
        E 239 82 43 64
        E 0 83 3f 66
        E 0 8b 44 66
        E 0 8f 2e 66
        E 1 92 44 66
        E 0 93 3f 5b
        E 0 9b 46 66
        E 0 9f 2e 5b
        E 239 82 44 66
        E 0 92 46 66
        E 240 82 46 66
        E 0 83 3f 66
        E 0 8b 46 66
        E 0 8f 2e 66
        E 0 92 44 66
        E 0 9b 44 66
        E 240 82 44 66
        E 0 92 41 64
        E 238 82 41 64
        E 0 8b 44 66
        E 1 92 3a 66
        E 0 93 41 5a
        E 0 9b 41 64
        E 0 9f 2e 5b
        E 240 8b 41 64
        E 1 9b 43 64
        E 240 82 3a 66
        E 0 83 41 64
        E 0 8b 43 64
        E 0 8f 2e 66
        E 0 92 3a 66
        E 0 93 41 5a
        E 0 9b 44 66
        E 0 9f 2e 5b
        E 241 82 3a 66
        E 0 8b 44 66
        E 0 92 44 66
        E 0 9b 46 66
        E 239 82 44 66
        E 0 83 41 64
        E 0 8b 46 66
        E 0 8f 2e 66
        E 1 92 46 66
        E 0 93 41 5a
        E 0 9b 48 64
        E 0 9f 2e 5b
        E 239 82 46 66
        E 0 92 48 64
        E 240 82 48 64
        E 0 83 41 64
        E 0 8b 48 64
        E 0 8f 2e 66
        E 0 92 46 66
        E 0 9b 46 66
        E 241 82 46 66
        E 0 92 43 64
        E 240 82 43 64
        E 1 8b 46 66
        E 0 92 3a 66
        E 0 93 43 5a
        E 0 9b 43 64
        E 0 9f 2e 5b
        E 239 8b 43 64
        E 0 9b 44 66
        E 237 82 3a 66
        E 0 83 43 64
        E 0 8b 44 66
        E 0 8f 2e 66
        E 1 92 3a 66
        E 0 93 43 5a
        E 0 9b 46 66
        E 0 9f 2e 5b
        E 242 82 3a 66
        E 0 8b 46 66
        E 1 92 46 66
        E 0 9b 48 64
        E 239 82 46 66
        E 0 83 43 64
        E 0 8b 48 64
        E 0 8f 2e 66
        E 0 92 48 64
        E 0 93 43 5a
        E 0 9b 4a 64
        E 0 9f 2e 5b
        E 240 82 48 64
        E 0 92 4a 64
        E 240 82 4a 64
        E 0 83 43 64
        E 0 8b 4a 64
        E 0 8f 2e 66
        E 3 92 4b 66
        E 0 93 4b 5b
        E 1 9b 4b 66
        E 0 9f 3f 5b
        E 475 82 4b 66
        E 0 83 4b 66
        E 0 8b 4b 66
        E 0 8f 3f 66
        E 0 92 4a 64
        E 0 93 4a 5a
        E 0 9b 4a 64
        E 0 9f 3e 5a
        E 481 82 4a 64
        E 0 83 4a 64
        E 0 8b 4a 64
        E 0 8f 3e 64
        E 0 92 48 64
        E 0 93 48 5a
        E 0 9b 48 64
        E 0 9f 3c 5a
        E 479 82 48 64
        E 0 83 48 64
        E 0 8b 48 64
        E 0 8f 3c 64
        E 1 92 46 66
        E 0 93 46 5b
        E 0 9b 46 66
        E 0 9f 3a 5b
        E 481 82 46 66
        E 0 83 46 66
        E 0 8b 46 66
        E 0 8f 3a 66
        E 0 92 44 66
        E 0 93 44 5b
        E 0 9b 44 66
        E 0 9f 38 5b
        E 478 82 44 66
        E 0 83 44 66
        E 0 8b 44 66
        E 0 8f 38 66
        E 0 92 43 64
        E 0 93 43 5a
        E 0 9b 43 64
        E 0 9f 37 5a
        E 481 82 43 64
        E 0 83 43 64
        E 0 8b 43 64
        E 0 8f 37 64
        E 0 92 41 64
        E 0 93 41 5a
        E 0 9b 41 64
        E 1 9f 35 5a
        E 478 82 41 64
        E 0 83 41 64
        E 0 8b 41 64
        E 0 8f 35 64
        E 0 92 3f 66
        E 0 93 3f 5b
        E 0 9b 3f 66
        E 0 9f 33 5b
        E 481 82 3f 66
        E 0 83 3f 66
        E 0 8b 3f 66
        E 0 8f 33 66
        E 0 92 46 66
        E 0 93 46 5b
        E 0 9b 46 66
        E 0 9f 3a 5b
        E 479 83 46 66
        E 0 8f 3a 66
        E 0 93 3a 5b
        E 0 9f 2e 5b
        E 241 83 3a 66
        E 0 8f 2e 66
        E 0 93 39 5a
        E 0 9f 2d 5a
        E 238 83 39 64
        E 0 8b 46 66
        E 0 8f 2d 64
        E 0 93 3a 5b
        E 0 9f 2e 5b
        E 482 83 3a 66
        E 0 8f 2e 66
        E 0 93 3a 5b
        E 1 9f 2e 5b
        E 479 82 46 66
        E 0 83 3a 66
        E 0 8f 2e 66
        E 0 92 48 64
        E 0 92 46 66
        E 0 93 46 5b
        E 1 9b 48 64
        E 0 9b 46 66
        E 0 9f 3a 5b
        E 239 82 46 66
        E 0 8b 46 66
        E 0 92 45 64
        E 0 9b 45 64
        E 238 82 48 64
        E 0 82 45 64
        E 0 83 46 66
        E 0 8b 48 64
        E 0 8b 45 64
        E 0 8f 3a 66
        E 0 92 46 66
        E 0 93 46 5b
        E 0 9b 46 66
        E 0 9f 3a 5b
        E 481 82 46 66
        E 0 83 46 66
        E 0 8b 46 66
        E 0 8f 3a 66
        E 0 92 48 64
        E 0 92 46 66
        E 0 93 44 5b
        E 0 9b 48 64
        E 0 9b 46 66
        E 0 9f 38 5b
        E 240 82 46 66
        E 0 8b 46 66
        E 0 92 45 64
        E 0 9b 45 64
        E 242 82 48 64
        E 0 82 45 64
        E 0 83 44 66
        E 0 8b 48 64
        E 0 8b 45 64
        E 0 8f 38 66
        E 0 92 46 66
        E 0 93 44 5b
        E 0 9b 46 66
        E 0 9f 38 5b
        E 477 82 46 66
        E 0 83 44 66
        E 0 8b 46 66
        E 0 8f 38 66
        E 0 92 48 64
        E 0 92 46 66
        E 0 93 43 5a
        E 0 9b 48 64
        E 0 9b 46 66
        E 0 9f 37 5a
        E 240 82 46 66
        E 0 8b 46 66
        E 0 92 45 64
        E 1 9b 45 64
        E 240 82 48 64
        E 0 82 45 64
        E 0 83 43 64
        E 0 8b 48 64
        E 0 8b 45 64
        E 0 8f 37 64
        E 0 92 46 66
        E 0 93 43 5a
        E 0 9b 46 66
        E 0 9f 37 5a
        E 479 82 46 66
        E 0 83 43 64
        E 0 8b 46 66
        E 0 8f 37 64
        E 0 92 48 64
        E 0 92 46 66
        E 0 93 41 5a
        E 0 9b 48 64
        E 0 9b 46 66
        E 0 9f 35 5a
        E 241 82 46 66
        E 0 8b 46 66
        E 0 92 45 64
        E 0 9b 45 64
        E 240 82 48 64
        E 0 82 45 64
        E 0 83 41 64
        E 0 8b 48 64
        E 0 8b 45 64
        E 0 8f 35 64
        E 0 92 46 66
        E 0 93 41 5a
        E 0 9b 46 66
        E 0 9f 35 5a
        E 479 82 46 66
        E 0 83 41 64
        E 0 8b 46 66
        E 0 8f 35 64
        E 0 92 48 64
        E 0 92 46 66
        E 0 93 3f 5b
        E 0 9b 48 64
        E 0 9b 46 66
        E 0 9f 33 5b
        E 241 82 46 66
        E 0 8b 46 66
        E 0 92 45 64
        E 0 9b 45 64
        E 239 82 48 64
        E 0 82 45 64
        E 0 83 3f 66
        E 0 8b 48 64
        E 0 8b 45 64
        E 0 8f 33 66
        E 0 92 46 66
        E 0 93 3f 5b
        E 1 9b 46 66
        E 0 9f 33 5b
        E 480 82 46 66
        E 0 83 3f 66
        E 0 8b 46 66
        E 0 8f 33 66
        E 0 92 48 64
        E 0 92 46 66
        E 0 93 3e 5a
        E 0 9b 48 64
        E 0 9b 46 66
        E 0 9f 32 5a
        E 241 82 46 66
        E 0 8b 46 66
        E 0 92 45 64
        E 0 9b 45 64
        E 237 82 48 64
        E 0 82 45 64
        E 0 83 3e 64
        E 0 8b 48 64
        E 0 8b 45 64
        E 0 8f 32 64
        E 1 92 46 66
        E 0 93 3e 5a
        E 0 9b 46 66
        E 0 9f 32 5a
        E 482 82 46 66
        E 0 83 3e 64
        E 1 8b 46 66
        E 0 8f 32 64
        E 0 92 4b 66
        E 0 93 3c 5a
        E 0 9b 4b 66
        E 0 9f 30 5a
        E 478 82 4b 66
        E 0 83 3c 64
        E 0 8b 4b 66
        E 1 8f 30 64
        E 0 92 4a 64
        E 0 93 3c 5a
        E 0 9b 4a 64
        E 0 9f 30 5a
        E 239 82 4a 64
        E 0 8b 4a 64
        E 0 92 48 64
        E 0 9b 48 64
        E 240 82 48 64
        E 0 83 3c 64
        E 0 8b 48 64
        E 0 8f 30 64
        E 0 92 46 66
        E 0 93 3e 5a
        E 0 9b 46 66
        E 0 9f 32 5a
        E 482 82 46 66
        E 0 83 3e 64
        E 0 8b 46 66
        E 0 8f 32 64
        E 0 92 44 66
        E 0 93 3e 5a
        E 0 9b 44 66
        E 0 9f 32 5a
        E 480 82 44 66
        E 0 83 3e 64
        E 0 8b 44 66
        E 0 8f 32 64
        E 0 92 43 64
        E 0 93 3f 5b
        E 0 9b 43 64
        E 0 9f 33 5b
        E 478 82 43 64
        E 0 83 3f 66
        E 0 8b 43 64
        E 0 8f 33 66
        E 0 92 41 64
        E 0 93 37 5a
        E 0 9b 41 64
        E 0 9f 2b 5a
        E 239 82 41 64
        E 0 8b 41 64
        E 1 92 3f 66
        E 0 9b 3f 66
        E 239 82 3f 66
        E 0 83 37 64
        E 0 8b 3f 66
        E 0 8f 2b 64
        E 0 92 41 64
        E 0 93 38 5b
        E 0 9b 41 64
        E 0 9f 2c 5b
        E 480 82 41 64
        E 0 83 38 66
        E 0 8b 41 64
        E 0 8f 2c 66
        E 0 92 3e 64
        E 0 93 3a 5b
        E 0 9b 3e 64
        E 1 9f 2e 5b
        E 480 82 3e 64
        E 0 83 3a 66
        E 0 8b 3e 64
        E 0 8f 2e 66
        E 0 92 3f 66
        E 0 93 3a 5b
        E 0 9b 3f 66
        E 0 9f 27 5b
        E 480 83 3a 66
        E 0 8f 27 66
        E 0 93 37 5a
        E 0 9f 33 5b
        E 240 82 3f 66
        E 0 8f 33 66
        E 0 92 48 64
        E 0 9f 32 5a
        E 240 82 48 64
        E 0 83 37 64
        E 0 8b 3f 66
        E 0 8f 32 64
        E 0 92 46 66
        E 0 93 37 5a
        E 0 9f 33 5b
        E 240 82 46 66
        E 0 92 44 66
        E 241 82 44 66
        E 0 83 37 64
        E 0 8f 33 66
        E 1 92 43 64
        E 0 93 37 5a
        E 0 9f 27 5b
        E 239 82 43 64
        E 0 92 41 64
        E 237 82 41 64
        E 1 83 37 64
        E 0 8f 27 66
        E 0 92 3f 66
        E 481 93 37 5a
        E 0 9f 33 5b
        E 241 82 3f 66
        E 0 8f 33 66
        E 0 92 4b 66
        E 0 9f 32 5a
        E 241 82 4b 66
        E 0 83 37 64
        E 0 8f 32 64
        E 0 92 4a 64
        E 0 93 37 5a
        E 0 9f 33 5b
        E 239 82 4a 64
        E 0 92 48 64
        E 239 82 48 64
        E 0 83 37 64
        E 0 8f 33 66
        E 0 92 46 66
        E 0 93 37 5a
        E 0 9f 27 5b
        E 241 82 46 66
        E 0 92 44 66
        E 238 82 44 66
        E 0 83 37 64
        E 0 8f 27 66
        E 0 92 43 64
        E 481 93 3a 5b
        E 0 9f 33 5b
        E 240 82 43 64
        E 0 8f 33 66
        E 0 92 4f 64
        E 0 9f 32 5a
        E 241 82 4f 64
        E 0 83 3a 66
        E 0 8f 32 64
        E 1 92 4d 64
        E 0 93 3a 5b
        E 0 9f 33 5b
        E 239 82 4d 64
        E 0 92 4b 66
        E 238 82 4b 66
        E 1 83 3a 66
        E 0 8f 33 66
        E 0 92 4a 64
        E 0 93 3a 5b
        E 0 9f 27 5b
        E 241 82 4a 64
        E 0 92 48 64
        E 239 82 48 64
        E 0 83 3a 66
        E 0 8f 27 66
        E 0 92 46 66
        E 480 93 37 5a
        E 0 9f 33 5b
        E 241 8f 33 66
        E 0 9f 32 5a
        E 241 83 37 64
        E 0 8f 32 64
        E 0 93 37 5a
        E 0 9f 33 5b
        E 477 82 46 66
        E 0 83 37 64
        E 0 8f 33 66
        E 0 92 48 64
        E 0 93 37 5a
        E 0 9f 27 5b
        E 241 82 48 64
        E 1 92 4a 64
        E 239 82 4a 64
        E 0 83 37 64
        E 0 8f 27 66
        E 0 92 4b 66
        E 481 82 4b 66
        E 0 92 3f 66
        E 1 93 37 5a
        E 0 9f 33 5b
        E 237 8f 33 66
        E 0 9f 32 5a
        E 242 82 3f 66
        E 0 83 37 64
        E 0 8f 32 64
        E 0 93 37 5a
        E 0 9f 33 5b
        E 478 83 37 64
        E 0 8f 33 66
        E 0 92 43 64
        E 1 93 37 5a
        E 0 9f 27 5b
        E 479 82 43 64
        E 0 83 37 64
        E 0 8f 27 66
        E 0 92 44 66
        E 242 82 44 66
        E 0 92 41 64
        E 238 82 41 64
        E 0 92 3a 66
        E 0 93 3e 5a
        E 0 9f 2e 5b
        E 241 8f 2e 66
        E 0 9f 2d 5a
        E 240 82 3a 66
        E 0 83 3e 64
        E 0 8f 2d 64
        E 0 92 3a 66
        E 0 93 3e 5a
        E 0 9f 2e 5b
        E 241 82 3a 66
        E 0 92 48 64
        E 238 82 48 64
        E 0 83 3e 64
        E 0 8f 2e 66
        E 0 92 46 66
        E 0 93 3e 5a
        E 0 9f 2e 5b
        E 241 82 46 66
        E 0 92 44 66
        E 240 82 44 66
        E 0 83 3e 64
        E 0 8f 2e 66
        E 0 92 43 64
        E 240 82 43 64
        E 0 92 3f 66
        E 241 82 3f 66
        E 1 92 37 64
        E 0 93 3f 5b
        E 0 9f 2e 5b
        E 237 8f 2e 66
        E 0 9f 2d 5a
        E 241 82 37 64
        E 0 83 3f 66
        E 0 8f 2d 64
        E 0 92 37 64
        E 0 93 3f 5b
        E 1 9f 2e 5b
        E 239 82 37 64
        E 0 92 46 66
        E 240 82 46 66
        E 0 83 3f 66
        E 0 8f 2e 66
        E 0 92 4b 66
        E 0 93 3f 5b
        E 0 9f 2e 5b
        E 241 82 4b 66
        E 0 92 43 64
        E 240 82 43 64
        E 0 83 3f 66
        E 0 8f 2e 66
        E 0 92 44 66
        E 239 82 44 66
        E 0 92 41 64
        E 240 82 41 64
        E 0 92 3a 66
        E 0 93 3e 5a
        E 0 9f 2e 5b
        E 241 8f 2e 66
        E 0 9f 2d 5a
        E 240 82 3a 66
        E 0 83 3e 64
        E 0 8f 2d 64
        E 0 92 3a 66
        E 0 93 3e 5a
        E 0 9f 2e 5b
        E 239 82 3a 66
        E 1 92 48 64
        E 239 82 48 64
        E 0 83 3e 64
        E 0 8f 2e 66
        E 0 92 46 66
        E 0 93 3e 5a
        E 0 9f 2e 5b
        E 239 82 46 66
        E 0 92 44 66
        E 241 82 44 66
        E 0 83 3e 64
        E 0 8f 2e 66
        E 0 92 43 64
        E 0 9f 33 5b
        E 478 82 43 64
        E 0 8f 33 66
        E 0 92 3f 66
        E 1 93 3f 5b
        E 0 9f 33 5b
        E 482 82 3f 66
        E 0 83 3f 66
        E 0 8f 33 66
        E 0 92 43 64
        E 0 93 43 5a
        E 0 9f 37 5a
        E 479 82 43 64
        E 0 83 43 64
        E 0 8f 37 64
        E 0 92 46 66
        E 0 93 46 5b
        E 0 9f 3a 5b
        E 479 82 46 66
        E 0 83 46 66
        E 0 8f 3a 66
        E 0 92 4b 66
        E 0 93 4b 5b
        E 0 9f 3f 5b
        E 480 82 4b 66
        E 0 83 4b 66
        E 0 8f 3f 66
        E 0 92 4a 64
        E 0 93 4a 5a
        E 0 9f 3e 5a
        E 242 82 4a 64
        E 0 83 4a 64
        E 0 8f 3e 64
        E 0 92 48 64
        E 0 93 48 5a
        E 0 9f 3c 5a
        E 241 82 48 64
        E 0 83 48 64
        E 0 8f 3c 64
        E 0 92 46 66
        E 0 93 46 5b
        E 0 9f 3a 5b
        E 237 82 46 66
        E 0 83 46 66
        E 0 8f 3a 66
        E 0 92 44 66
        E 1 93 44 5b
        E 0 9f 38 5b
        E 238 82 44 66
        E 0 83 44 66
        E 0 8f 38 66
        E 0 92 43 64
        E 0 93 43 5a
        E 0 9f 37 5a
        E 242 82 43 64
        E 1 83 43 64
        E 0 8f 37 64
        E 0 92 41 64
        E 0 93 41 5a
        E 0 9f 35 5a
        E 238 82 41 64
        E 0 83 41 64
        E 0 8f 35 64
        E 0 92 43 64
        E 0 93 3f 5b
        E 0 9f 33 5b
        E 480 82 43 64
        E 0 83 3f 66
        E 0 8f 33 66
        E 0 92 3f 66
        E 0 93 37 5a
        E 0 9f 2b 5a
        E 481 82 3f 66
        E 0 83 37 64
        E 0 8f 2b 64
        E 0 92 41 64
        E 0 93 38 5b
        E 0 9f 2c 5b
        E 481 82 41 64
        E 0 83 38 66
        E 0 8f 2c 66
        E 1 92 3e 64
        E 0 93 3a 5b
        E 0 9f 2e 5b
        E 479 82 3e 64
        E 0 83 3a 66
        E 0 8f 2e 66
        E 0 92 3f 66
        E 0 93 33 5b
        E 0 9f 27 5b
        E 1439 82 3f 66
        E 0 83 33 66
        E 0 8f 27 66
        E 961 92 4a 64
        E 0 9b 4a 64
        E 479 93 3a 5b
        E 0 9f 37 5a
        E 240 82 4a 64
        E 0 8f 37 64
        E 0 92 4b 66
        E 0 9f 36 5a
        E 241 82 4b 66
        E 0 83 3a 66
        E 0 8b 4a 64
        E 0 8f 36 64
        E 0 92 4a 64
        E 0 93 3a 5b
        E 0 9b 46 66
        E 0 9f 37 5a
        E 239 82 4a 64
        E 0 92 48 64
        E 239 82 48 64
        E 0 83 3a 66
        E 0 8f 37 64
        E 0 92 46 66
        E 0 93 3a 5b
        E 0 9f 2b 5a
        E 242 82 46 66
        E 0 92 45 64
        E 239 82 45 64
        E 0 83 3a 66
        E 0 8b 46 66
        E 0 8f 2b 64
        E 0 92 43 64
        E 0 9b 43 64
        E 481 93 3a 5b
        E 0 9f 37 5a
        E 239 82 43 64
        E 0 8f 37 64
        E 0 92 4a 64
        E 0 9f 36 5a
        E 239 82 4a 64
        E 0 83 3a 66
        E 0 8b 43 64
        E 0 8f 36 64
        E 0 92 48 64
        E 0 93 3a 5b
        E 0 9f 37 5a
        E 241 82 48 64
        E 0 92 46 66
        E 241 82 46 66
        E 0 83 3a 66
        E 0 8f 37 64
        E 0 92 45 64
        E 0 93 3a 5b
        E 0 9b 43 64
        E 0 9f 2b 5a
        E 239 82 45 64
        E 0 92 43 64
        E 240 82 43 64
        E 0 83 3a 66
        E 0 8b 43 64
        E 0 8f 2b 64
        E 0 92 42 64
        E 0 9b 42 64
        E 241 82 42 64
        E 0 8b 42 64
        E 0 92 43 64
        E 1 9b 43 64
        E 238 82 43 64
        E 0 8b 43 64
        E 0 92 45 64
        E 0 93 39 5a
        E 0 9b 45 64
        E 0 9f 36 5a
        E 240 82 45 64
        E 0 8b 45 64
        E 0 8f 36 64
        E 0 92 46 66
        E 0 9b 46 66
        E 0 9f 34 5a
        E 239 82 46 66
        E 0 83 39 64
        E 0 8b 46 66
        E 0 8f 34 64
        E 0 92 48 64
        E 0 93 42 5a
        E 1 9b 48 64
        E 0 9f 32 5a
        E 481 82 48 64
        E 0 83 42 64
        E 0 8b 48 64
        E 0 8f 32 64
        E 0 92 45 64
        E 0 93 42 5a
        E 0 9b 45 64
        E 1 9f 26 5a
        E 478 82 45 64
        E 0 83 42 64
        E 0 8b 45 64
        E 0 8f 26 64
        E 0 92 46 66
        E 0 9b 46 66
        E 239 8b 46 66
        E 1 9b 45 64
        E 241 8b 45 64
        E 0 93 3e 5a
        E 0 9b 43 64
        E 1 9f 37 5a
        E 238 82 46 66
        E 0 8f 37 64
        E 0 92 4f 64
        E 1 9f 36 5a
        E 239 82 4f 64
        E 0 83 3e 64
        E 0 8b 43 64
        E 0 8f 36 64
        E 0 92 4d 64
        E 0 93 3e 5a
        E 0 9f 37 5a
        E 239 82 4d 64
        E 0 92 4b 66
        E 241 82 4b 66
        E 0 83 3e 64
        E 1 8f 37 64
        E 0 92 4a 64
        E 0 93 3e 5a
        E 0 9f 2b 5a
        E 241 82 4a 64
        E 0 92 48 64
        E 240 82 48 64
        E 0 83 3e 64
        E 0 8f 2b 64
        E 0 92 46 66
        E 0 9b 4a 64
        E 477 93 3e 5a
        E 0 9f 37 5a
        E 243 82 46 66
        E 0 8f 37 64
        E 0 92 4b 66
        E 0 9f 36 5a
        E 240 82 4b 66
        E 0 83 3e 64
        E 0 8b 4a 64
        E 0 8f 36 64
        E 0 92 4a 64
        E 0 93 3e 5a
        E 0 9b 46 66
        E 0 9f 37 5a
        E 239 82 4a 64
        E 0 92 48 64
        E 239 82 48 64
        E 0 83 3e 64
        E 0 8f 37 64
        E 0 92 46 66
        E 0 93 3e 5a
        E 0 9f 2b 5a
        E 240 82 46 66
        E 0 92 45 64
        E 240 82 45 64
        E 0 83 3e 64
        E 0 8b 46 66
        E 0 8f 2b 64
        E 0 92 43 64
        E 0 9b 43 64
        E 480 93 3e 5a
        E 0 9f 37 5a
        E 240 82 43 64
        E 0 8f 37 64
        E 0 92 4f 64
        E 0 9f 36 5a
        E 239 82 4f 64
        E 0 83 3e 64
        E 0 8f 36 64
        E 0 92 4d 64
        E 0 93 3e 5a
        E 0 9f 37 5a
        E 241 82 4d 64
        E 0 92 4b 66
        E 240 82 4b 66
        E 0 83 3e 64
        E 0 8f 37 64
        E 0 92 4a 64
        E 1 93 3e 5a
        E 0 9f 2b 5a
        E 239 82 4a 64
        E 0 92 48 64
        E 240 82 48 64
        E 0 83 3e 64
        E 0 8b 43 64
        E 0 8f 2b 64
        E 0 92 46 66
        E 0 9b 46 66
        E 479 93 3e 5a
        E 0 9f 37 5a
        E 241 82 46 66
        E 0 8f 37 64
        E 0 92 52 66
        E 0 9f 36 5a
        E 242 82 52 66
        E 0 83 3e 64
        E 0 8f 36 64
        E 0 92 51 64
        E 0 93 3e 5a
        E 0 9f 37 5a
        E 239 82 51 64
        E 0 92 4f 64
        E 239 82 4f 64
        E 0 83 3e 64
        E 0 8f 37 64
        E 1 92 4e 64
        E 0 93 3e 5a
        E 0 9f 2b 5a
        E 239 82 4e 64
        E 0 92 4c 64
        E 240 82 4c 64
        E 0 83 3e 64
        E 0 8b 46 66
        E 0 8f 2b 64
        E 0 92 4a 64
        E 0 9b 4a 64
        E 479 93 3a 5b
        E 0 9f 37 5a
        E 242 82 4a 64
        E 0 8f 37 64
        E 0 92 48 64
        E 0 9f 36 5a
        E 240 82 48 64
        E 0 83 3a 66
        E 0 8b 4a 64
        E 0 8f 36 64
        E 0 92 46 66
        E 0 93 3a 5b
        E 0 9b 3e 64
        E 0 9f 37 5a
        E 240 82 46 66
        E 0 92 45 64
        E 238 82 45 64
        E 0 83 3a 66
        E 0 8f 37 64
        E 0 92 43 64
        E 0 93 3a 5b
        E 0 9f 2b 5a
        E 240 82 43 64
        E 0 92 41 64
        E 243 82 41 64
        E 0 83 3a 66
        E 0 8b 3e 64
        E 0 8f 2b 64
        E 0 92 3f 66
        E 1 9b 3f 66
        E 477 93 37 5a
        E 0 9f 30 5a
        E 241 8f 30 64
        E 0 9f 2f 5a
        E 237 82 3f 66
        E 0 83 37 64
        E 0 8b 3f 66
        E 0 8f 2f 64
        E 0 92 3c 64
        E 0 93 37 5a
        E 1 9b 3c 64
        E 0 9f 30 5a
        E 482 83 37 64
        E 0 8f 30 64
        E 0 93 37 5a
        E 1 9f 24 5a
        E 477 82 3c 64
        E 0 83 37 64
        E 0 8b 3c 64
        E 0 8f 24 64
        E 0 92 43 64
        E 0 9b 43 64
        E 481 93 3e 5a
        E 0 9f 3a 5b
        E 241 8f 3a 66
        E 0 9f 39 5a
        E 238 83 3e 64
        E 0 8f 39 64
        E 0 93 3e 5a
        E 0 9f 3a 5b
        E 482 82 43 64
        E 0 83 3e 64
        E 0 8b 43 64
        E 0 8f 3a 66
        E 1 92 43 64
        E 0 93 3a 5b
        E 0 9b 43 64
        E 0 9f 37 5a
        E 480 82 43 64
        E 0 83 3a 66
        E 0 8b 43 64
        E 0 8f 37 64
        E 0 92 4b 66
        E 0 9b 4b 66
        E 478 82 4b 66
        E 0 8b 4b 66
        E 0 92 4a 64
        E 0 92 48 64
        E 0 93 37 5a
        E 0 9b 4a 64
        E 0 9b 48 64
        E 0 9f 3c 5a
        E 241 8f 3c 64
        E 0 9f 3a 5b
        E 238 82 4a 64
        E 0 82 48 64
        E 1 83 37 64
        E 0 8b 4a 64
        E 0 8b 48 64
        E 0 8f 3a 66
        E 0 92 46 66
        E 0 92 45 64
        E 0 93 39 5a
        E 0 9b 46 66
        E 0 9b 45 64
        E 0 9f 3c 5a
        E 481 82 46 66
        E 0 82 45 64
        E 0 83 39 64
        E 0 8b 46 66
        E 0 8b 45 64
        E 0 8f 3c 64
        E 0 92 43 64
        E 1 93 39 5a
        E 0 9b 43 64
        E 0 9f 30 5a
        E 480 82 43 64
        E 0 83 39 64
        E 0 8b 43 64
        E 0 8f 30 64
        E 0 92 43 64
        E 0 9b 43 64
        E 478 82 43 64
        E 0 8b 43 64
        E 0 92 42 64
        E 0 93 39 5a
        E 1 9b 42 64
        E 0 9f 32 5a
        E 240 8f 32 64
        E 0 9f 30 5a
        E 239 82 42 64
        E 0 83 39 64
        E 0 8b 42 64
        E 0 8f 30 64
        E 0 92 4a 64
        E 0 93 37 5a
        E 0 9b 4a 64
        E 0 9f 2e 5b
        E 479 82 4a 64
        E 0 83 37 64
        E 0 8b 4a 64
        E 0 8f 2e 66
        E 0 92 3e 64
        E 0 93 37 5a
        E 0 9b 3e 64
        E 1 9f 2b 5a
        E 480 82 3e 64
        E 0 83 37 64
        E 0 8b 3e 64
        E 0 8f 2b 64
        E 0 92 3f 66
        E 0 9b 3f 66
        E 481 93 37 5a
        E 0 9f 30 5a
        E 239 82 3f 66
        E 0 8b 3f 66
        E 0 8f 30 64
        E 0 92 4a 64
        E 0 9b 4a 64
        E 0 9f 2e 5b
        E 240 82 4a 64
        E 0 83 37 64
        E 0 8b 4a 64
        E 0 8f 2e 66
        E 0 92 48 64
        E 0 93 37 5a
        E 0 9b 48 64
        E 0 9f 30 5a
        E 240 82 48 64
        E 0 8b 48 64
        E 0 92 46 66
        E 0 9b 46 66
        E 241 82 46 66
        E 0 83 37 64
        E 0 8b 46 66
        E 0 8f 30 64
        E 0 92 45 64
        E 0 93 33 5b
        E 0 9b 45 64
        E 0 9f 24 5a
        E 239 82 45 64
        E 0 8b 45 64
        E 0 92 43 64
        E 0 9b 43 64
        E 239 82 43 64
        E 0 83 33 66
        E 0 8b 43 64
        E 0 8f 24 64
        E 0 92 42 64
        E 0 9b 42 64
        E 481 93 42 5a
        E 0 9f 32 5a
        E 241 82 42 64
        E 0 8b 42 64
        E 0 8f 32 64
        E 0 92 4b 66
        E 0 9b 4b 66
        E 1 9f 30 5a
        E 239 82 4b 66
        E 0 83 42 64
        E 0 8b 4b 66
        E 0 8f 30 64
        E 0 92 4a 64
        E 1 93 42 5a
        E 0 9b 4a 64
        E 0 9f 32 5a
        E 237 82 4a 64
        E 0 8b 4a 64
        E 0 92 48 64
        E 0 9b 48 64
        E 240 82 48 64
        E 0 83 42 64
        E 0 8b 48 64
        E 0 8f 32 64
        E 0 92 46 66
        E 0 93 42 5a
        E 0 9b 46 66
        E 0 9f 26 5a
        E 242 82 46 66
        E 0 8b 46 66
        E 1 92 45 64
        E 0 9b 45 64
        E 240 82 45 64
        E 0 83 42 64
        E 0 8b 45 64
        E 0 8f 26 64
        E 0 92 46 66
        E 0 93 3e 5a
        E 0 9b 46 66
        E 0 9f 2b 5a
        E 478 82 46 66
        E 0 83 3e 64
        E 0 8b 46 66
        E 0 8f 2b 64
        E 0 92 45 64
        E 0 93 3a 5b
        E 0 9b 45 64
        E 0 9f 2e 5b
        E 240 82 45 64
        E 0 8b 45 64
        E 0 92 43 64
        E 0 9b 43 64
        E 240 82 43 64
        E 0 83 3a 66
        E 0 8b 43 64
        E 0 8f 2e 66
        E 0 92 45 64
        E 0 93 3c 5a
        E 0 9b 45 64
        E 0 9f 30 5a
        E 481 82 45 64
        E 0 83 3c 64
        E 0 8b 45 64
        E 0 8f 30 64
        E 0 92 42 64
        E 1 93 3e 5a
        E 0 9b 42 64
        E 0 9f 32 5a
        E 478 82 42 64
        E 0 83 3e 64
        E 0 8b 42 64
        E 0 8f 32 64
        E 0 92 43 64
        E 0 93 37 5a
        E 1 9b 43 64
        E 0 9f 2b 5a
        E 480 82 43 64
        E 0 83 37 64
        E 1 8b 43 64
        E 0 8f 2b 64
        E 0 92 3a 66
        E 0 93 3a 5b
        E 0 9b 3a 66
        E 0 9f 2e 5b
        E 477 82 3a 66
        E 0 83 3a 66
        E 0 8b 3a 66
        E 0 8f 2e 66
        E 0 92 3c 64
        E 1 93 3c 5a
        E 0 9b 3c 64
        E 0 9f 30 5a
        E 480 82 3c 64
        E 0 83 3c 64
        E 0 8b 3c 64
        E 0 8f 30 64
        E 1 92 3e 64
        E 0 93 3e 5a
        E 0 9b 3e 64
        E 0 9f 32 5a
        E 479 82 3e 64
        E 0 83 3e 64
        E 0 8b 3e 64
        E 0 8f 32 64
        E 0 92 37 64
        E 0 93 37 5a
        E 0 9b 37 64
        E 0 9f 2b 5a
        E 2878 82 37 64
        E 0 83 37 64
        E 0 8b 37 64
        E 0 8f 2b 64
        E 0 9f 2b 5a
        E 1443 95 43 64
        E 0 9e 43 64
        E 478 85 43 64
        E 0 8e 43 64
        E 0 95 46 66
        E 0 9e 46 66
        E 481 85 46 66
        E 0 8e 46 66
        E 1 95 46 66
        E 0 9e 46 66
        E 479 85 46 66
        E 0 8e 46 66
        E 0 95 46 66
        E 0 9e 46 66
        E 479 85 46 66
        E 1 8e 46 66
        E 0 95 43 64
        E 0 9e 43 64
        E 479 85 43 64
        E 0 8e 43 64
        E 0 8f 2b 64
        E 0 95 45 64
        E 0 9e 45 64
        E 0 9f 32 5a
        E 482 85 45 64
        E 0 8e 45 64
        E 0 95 45 64
        E 0 9e 45 64
        E 479 85 45 64
        E 0 8e 45 64
        E 480 9a 48 64
        E 0 9e 48 64
        E 480 8a 48 64
        E 0 8e 48 64
        E 1 9a 45 64
        E 0 9e 45 64
        E 960 8a 45 64
        E 0 8e 45 64
        E 0 9a 45 64
        E 0 9e 45 64
        E 480 8a 45 64
        E 0 8e 45 64
        E 0 9a 47 64
        E 0 9e 47 64
        E 479 8a 47 64
        E 0 8e 47 64
        E 0 8f 32 64
        E 0 9a 43 64
        E 0 9e 43 64
        E 0 9f 2b 5a
        E 482 8a 43 64
        E 0 8e 43 64
        E 0 9a 43 64
        E 0 9e 43 64
        E 478 8a 43 64
        E 0 8e 43 64
        E 481 9a 3e 64
        E 0 9e 3e 64
        E 479 8a 3e 64
        E 0 8e 3e 64
        E 0 9a 41 64
        E 0 9e 41 64
        E 481 8a 41 64
        E 0 8e 41 64
        E 0 9a 41 64
        E 0 9e 41 64
        E 478 8a 41 64
        E 0 8e 41 64
        E 0 9a 41 64
        E 0 9e 41 64
        E 485 8a 41 64
        E 0 8e 41 64
        E 0 9a 40 64
        E 0 9e 40 64
        E 476 8a 40 64
        E 0 8e 40 64
        E 0 8f 2b 64
        E 0 9a 3c 64
        E 0 9e 3c 64
        E 1 9f 30 5a
        E 478 8a 3c 64
        E 1 8e 3c 64
        E 0 9a 3c 64
        E 0 9e 3c 64
        E 481 8a 3c 64
        E 0 8e 3c 64
        E 959 9a 43 64
        E 0 9e 43 64
        E 962 8a 43 64
        E 0 8e 43 64
        E 0 9a 43 64
        E 0 9e 43 64
        E 479 8a 43 64
        E 0 8e 43 64
        E 0 9a 43 64
        E 0 9e 43 64
        E 478 8a 43 64
        E 0 8e 43 64
        E 0 8f 30 64
        E 0 9a 40 64
        E 0 9e 40 64
        E 0 9f 30 5a
        E 481 8a 40 64
        E 0 8e 40 64
        E 0 9a 40 64
        E 0 9e 40 64
        E 481 8a 40 64
        E 0 8e 40 64
        E 482 9a 43 64
        E 0 9e 43 64
        E 477 8a 43 64
        E 0 8e 43 64
        E 0 9a 46 66
        E 0 9e 46 66
        E 479 8a 46 66
        E 1 8e 46 66
        E 0 9a 46 66
        E 0 9e 46 66
        E 480 8a 46 66
        E 0 8e 46 66
        E 0 9a 46 66
        E 0 9e 46 66
        E 481 8a 46 66
        E 0 8e 46 66
        E 0 9a 45 64
        E 0 9e 45 64
        E 479 8a 45 64
        E 0 8e 45 64
        E 0 8f 30 64
        E 1 9a 45 64
        E 0 9e 45 64
        E 0 9f 31 5a
        E 479 8a 45 64
        E 1 8e 45 64
        E 0 9a 45 64
        E 0 9e 45 64
        E 481 8a 45 64
        E 0 8e 45 64
        E 956 9a 40 64
        E 1 9e 40 64
        E 481 8a 40 64
        E 0 8e 40 64
        E 0 9a 40 64
        E 1 9e 40 64
        E 479 8a 40 64
        E 0 8e 40 64
        E 0 9a 40 64
        E 0 9e 40 64
        E 481 8a 40 64
        E 0 8e 40 64
        E 0 9a 40 64
        E 0 9e 40 64
        E 238 8a 40 64
        E 0 8e 40 64
        E 0 9a 41 64
        E 0 9e 41 64
        E 241 8a 41 64
        E 0 8e 41 64
        E 0 8f 31 64
        E 0 9a 43 64
        E 0 9e 43 64
        E 0 9f 31 5a
        E 480 8a 43 64
        E 0 8e 43 64
        E 0 9a 43 64
        E 0 9e 43 64
        E 480 8a 43 64
        E 0 8e 43 64
        E 1 9a 46 66
        E 0 9e 46 66
        E 480 8a 46 66
        E 0 8e 46 66
        E 0 9a 43 64
        E 1 9e 43 64
        E 239 8a 43 64
        E 0 8e 43 64
        E 0 9a 41 64
        E 1 9e 41 64
        E 238 8a 41 64
        E 0 8e 41 64
        E 2 8f 31 64
        E 0 9a 41 64
        E 2 9e 41 64
        E 0 9f 32 5a
        E 480 8a 41 64
        E 0 8e 41 64
        E 0 9a 41 64
        E 0 9e 41 64
        E 476 8a 41 64
        E 0 8e 41 64
        E 961 8f 32 64
        E 0 9a 45 64
        E 0 9e 45 64
        E 0 9f 32 5a
        E 477 8a 45 64
        E 1 8e 45 64
        E 0 9a 45 64
        E 0 9e 45 64
        E 242 8a 45 64
        E 0 8e 45 64
        E 0 9a 45 64
        E 0 9e 45 64
        E 239 8a 45 64
        E 0 8e 45 64
        E 0 9a 43 64
        E 0 9e 43 64
        E 482 8a 43 64
        E 0 8e 43 64
        E 0 9a 45 64
        E 1 9e 45 64
        E 477 8a 45 64
        E 0 8e 45 64
        E 0 8f 32 64
        E 0 9a 46 66
        E 0 9e 46 66
        E 0 9f 37 5a
        E 480 8a 46 66
        E 0 8e 46 66
        E 0 9a 46 66
        E 0 9e 46 66
        E 481 8a 46 66
        E 0 8e 46 66
        E 0 9a 46 66
        E 0 9e 46 66
        E 479 8a 46 66
        E 0 8e 46 66
        E 0 9a 48 64
        E 0 9e 48 64
        E 241 8a 48 64
        E 0 8e 48 64
        E 0 9a 4a 64
        E 0 9e 4a 64
        E 239 8a 4a 64
        E 0 8e 4a 64
        E 0 8f 37 64
        E 0 9a 45 64
        E 0 9e 45 64
        E 0 9f 39 5a
        E 480 8a 45 64
        E 1 8e 45 64
        E 2 9a 45 64
        E 0 9e 45 64
        E 477 8a 45 64
        E 0 8e 45 64
        E 959 8f 39 64
        E 0 9f 32 5a
        E 2880 8f 32 64
        E 722 92 41 64
        E 1 93 45 5a
        E 0 9f 29 5a
        E 357 82 41 64
        E 0 83 45 64
        E 0 8f 29 64
        E 0 92 41 64
        E 0 93 45 5a
        E 0 9f 29 5a
        E 180 82 41 64
        E 0 8f 29 64
        E 0 92 43 64
        E 0 9f 35 5a
        E 183 82 43 64
        E 0 83 45 64
        E 0 8f 35 64
        E 0 92 45 64
        E 0 93 41 5a
        E 0 9f 35 5a
        E 176 8f 35 64
        E 0 9f 35 5a
        E 182 82 45 64
        E 0 8f 35 64
        E 0 92 41 64
        E 0 9f 29 5a
        E 179 8f 29 64
        E 0 9f 35 5a
        E 181 82 41 64
        E 0 83 41 64
        E 0 8f 35 64
        E 0 92 43 64
        E 0 93 40 5a
        E 0 9f 24 5a
        E 180 83 40 64
        E 1 8f 24 64
        E 0 93 3e 5a
        E 0 9f 30 5a
        E 178 82 43 64
        E 0 83 3e 64
        E 0 8f 30 64
        E 0 92 4c 64
        E 0 93 3c 5a
        E 0 9f 30 5a
        E 181 8f 30 64
        E 0 9f 30 5a
        E 179 82 4c 64
        E 1 83 3c 64
        E 0 8f 30 64
        E 0 92 4f 64
        E 0 93 3c 5a
        E 0 9f 24 5a
        E 179 8f 24 64
        E 0 9f 30 5a
        E 182 82 4f 64
        E 0 83 3c 64
        E 0 8f 30 64
        E 0 92 43 64
        E 0 93 3c 5a
        E 0 9f 24 5a
        E 178 82 43 64
        E 0 8f 24 64
        E 0 92 45 64
        E 0 9f 30 5a
        E 182 82 45 64
        E 0 83 3c 64
        E 0 8f 30 64
        E 0 92 46 66
        E 0 93 3c 5a
        E 0 9f 30 5a
        E 177 8f 30 64
        E 0 9f 30 5a
        E 181 82 46 66
        E 0 8f 30 64
        E 0 92 43 64
        E 0 9f 24 5a
        E 182 8f 24 64
        E 1 9f 30 5a
        E 178 82 43 64
        E 0 83 3c 64
        E 0 8f 30 64
        E 0 92 45 64
        E 0 93 3c 5a
        E 0 9f 29 5a
        E 178 83 3c 64
        E 0 8f 29 64
        E 0 93 3a 5b
        E 1 9f 35 5a
        E 180 82 45 64
        E 0 83 3a 66
        E 0 8f 35 64
        E 0 92 4d 64
        E 0 93 39 5a
        E 0 9f 35 5a
        E 180 8f 35 64
        E 1 9f 35 5a
        E 181 82 4d 64
        E 0 83 39 64
        E 0 8f 35 64
        E 0 92 51 64
        E 0 93 3c 5a
        E 0 9f 29 5a
        E 177 8f 29 64
        E 0 9f 35 5a
        E 181 82 51 64
        E 0 83 3c 64
        E 0 8f 35 64
        E 0 92 45 64
        E 0 93 3c 5a
        E 0 9f 29 5a
        E 179 82 45 64
        E 0 8f 29 64
        E 0 92 46 66
        E 0 9f 35 5a
        E 182 82 46 66
        E 0 83 3c 64
        E 0 8f 35 64
        E 0 92 48 64
        E 0 93 3c 5a
        E 0 9f 35 5a
        E 178 8f 35 64
        E 0 9f 35 5a
        E 181 82 48 64
        E 0 8f 35 64
        E 0 92 45 64
        E 0 9f 29 5a
        E 181 8f 29 64
        E 0 9f 35 5a
        E 181 82 45 64
        E 0 83 3c 64
        E 0 8f 35 64
        E 0 92 43 64
        E 0 93 3c 5a
        E 0 9f 24 5a
        E 176 8f 24 64
        E 0 9f 30 5a
        E 182 8f 30 64
        E 0 9f 30 5a
        E 180 8f 30 64
        E 0 9f 30 5a
        E 183 82 43 64
        E 0 83 3c 64
        E 0 8f 30 64
        E 0 92 48 64
        E 0 93 40 5a
        E 0 9f 24 5a
        E 176 8f 24 64
        E 1 9f 30 5a
        E 179 82 48 64
        E 0 83 40 64
        E 0 8f 30 64
        E 0 92 48 64
        E 0 93 40 5a
        E 0 9f 24 5a
        E 182 82 48 64
        E 0 8f 24 64
        E 0 92 4c 64
        E 0 9f 30 5a
        E 181 82 4c 64
        E 0 8f 30 64
        E 0 92 4f 64
        E 0 9f 30 5a
        E 179 8f 30 64
        E 0 9f 30 5a
        E 181 82 4f 64
        E 0 83 40 64
        E 0 8f 30 64
        E 0 92 48 64
        E 0 93 40 5a
        E 0 9f 24 5a
        E 178 8f 24 64
        E 0 9f 30 5a
        E 179 82 48 64
        E 0 83 40 64
        E 0 8f 30 64
        E 0 92 46 66
        E 0 93 40 5a
        E 1 9f 24 5a
        E 179 82 46 66
        E 0 8f 24 64
        E 1 92 4c 64
        E 0 9f 2e 5b
        E 178 82 4c 64
        E 0 8f 2e 66
        E 0 92 4f 64
        E 1 9f 2e 5b
        E 181 8f 2e 66
        E 0 9f 2e 5b
        E 182 82 4f 64
        E 0 83 40 64
        E 0 8f 2e 66
        E 0 92 46 66
        E 0 93 40 5a
        E 1 9f 24 5a
        E 177 8f 24 64
        E 0 9f 2e 5b
        E 180 82 46 66
        E 0 83 40 64
        E 0 8f 2e 66
        E 0 92 45 64
        E 0 93 41 5a
        E 0 9f 24 5a
        E 180 82 45 64
        E 0 8f 24 64
        E 0 92 48 64
        E 0 9f 2d 5a
        E 181 82 48 64
        E 0 8f 2d 64
        E 0 92 4d 64
        E 0 9f 2d 5a
        E 177 8f 2d 64
        E 0 9f 2d 5a
        E 183 82 4d 64
        E 0 83 41 64
        E 1 8f 2d 64
        E 0 92 45 64
        E 0 93 41 5a
        E 0 9f 24 5a
        E 179 8f 24 64
        E 0 9f 2d 5a
        E 180 82 45 64
        E 0 83 41 64
        E 0 8f 2d 64
        E 0 92 43 64
        E 0 93 40 5a
        E 0 9f 24 5a
        E 178 82 43 64
        E 0 8f 24 64
        E 1 92 4c 64
        E 0 9f 2b 5a
        E 179 82 4c 64
        E 0 8f 2b 64
        E 1 92 4f 64
        E 0 9f 2b 5a
        E 179 8f 2b 64
        E 1 9f 2b 5a
        E 182 82 4f 64
        E 0 83 40 64
        E 0 8f 2b 64
        E 0 92 48 64
        E 1 93 40 5a
        E 0 9f 24 5a
        E 178 8f 24 64
        E 0 9f 30 5a
        E 180 82 48 64
        E 0 83 40 64
        E 0 8f 30 64
        E 0 92 46 66
        E 0 93 40 5a
        E 0 9f 24 5a
        E 178 82 46 66
        E 0 8f 24 64
        E 0 92 4c 64
        E 1 9f 2e 5b
        E 182 82 4c 64
        E 0 8f 2e 66
        E 0 92 4f 64
        E 0 9f 2e 5b
        E 178 8f 2e 66
        E 0 9f 2e 5b
        E 180 82 4f 64
        E 0 83 40 64
        E 0 8f 2e 66
        E 1 92 46 66
        E 0 93 40 5a
        E 0 9f 24 5a
        E 182 8f 24 64
        E 0 9f 2e 5b
        E 178 82 46 66
        E 2 83 40 64
        E 0 8f 2e 66
        E 0 92 45 64
        E 0 93 41 5a
        E 0 9f 24 5a
        E 176 82 45 64
        E 0 8f 24 64
        E 1 92 48 64
        E 0 9f 2d 5a
        E 180 82 48 64
        E 0 8f 2d 64
        E 0 92 4d 64
        E 0 9f 2d 5a
        E 181 8f 2d 64
        E 0 9f 2d 5a
        E 181 82 4d 64
        E 0 83 41 64
        E 0 8f 2d 64
        E 1 92 45 64
        E 0 93 41 5a
        E 0 9f 24 5a
        E 176 8f 24 64
        E 1 9f 2d 5a
        E 180 82 45 64
        E 0 83 41 64
        E 0 8f 2d 64
        E 0 92 43 64
        E 0 93 40 5a
        E 0 9f 24 5a
        E 363 82 43 64
        E 0 8f 24 64
        E 0 92 3c 64
        E 0 9f 30 5a
        E 358 82 3c 64
        E 0 83 40 64
        E 0 8f 30 64
        E 0 92 45 64
        E 0 93 45 5a
        E 0 9f 39 5a
        E 361 82 45 64
        E 1 83 45 64
        E 0 8f 39 64
        E 0 92 46 66
        E 0 93 46 5b
        E 0 9f 3a 5b
        E 356 82 46 66
        E 1 83 46 66
        E 0 8f 3a 66
        E 0 92 43 64
        E 0 93 43 5a
        E 0 9f 37 5a
        E 364 82 43 64
        E 0 83 43 64
        E 0 8f 37 64
        E 0 92 48 64
        E 1 93 48 5a
        E 0 9f 3c 5a
        E 356 82 48 64
        E 0 83 48 64
        E 0 8f 3c 64
        E 0 92 41 64
        E 0 93 35 5a
        E 0 9f 29 5a
        E 178 83 35 64
        E 1 8f 29 64
        E 0 93 41 5a
        E 0 9f 35 5a
        E 182 83 41 64
        E 0 8f 35 64
        E 1 93 41 5a
        E 0 9f 35 5a
        E 178 83 41 64
        E 0 8f 35 64
        E 0 93 41 5a
        E 3 9f 35 5a
        E 176 82 41 64
        E 0 83 41 64
        E 0 8f 35 64
        E 0 92 45 64
        E 0 93 35 5a
        E 1 9f 29 5a
        E 179 83 35 64
        E 0 8f 29 64
        E 1 93 41 5a
        E 0 9f 35 5a
        E 180 82 45 64
        E 0 83 41 64
        E 0 8f 35 64
        E 1 92 46 66
        E 0 93 46 5b
        E 0 9f 3a 5b
        E 357 82 46 66
        E 0 83 46 66
        E 0 8f 3a 66
        E 0 92 43 64
        E 0 93 43 5a
        E 0 9f 37 5a
        E 361 82 43 64
        E 0 83 43 64
        E 0 8f 37 64
        E 0 92 48 64
        E 0 93 48 5a
        E 0 9f 3c 5a
        E 362 82 48 64
        E 0 83 48 64
        E 0 8f 3c 64
        E 0 92 41 64
        E 0 93 41 5a
        E 0 9f 35 5a
        E 719 82 41 64
        E 0 83 41 64
        E 0 8f 35 64
        E 0 92 41 64
        E 0 93 41 5a
        E 0 9a 41 64
        E 1 9f 29 5a
        E 359 82 41 64
        E 0 83 41 64
        E 0 8a 41 64
        E 0 8f 29 64
        E 0 92 41 64
        E 0 93 41 5a
        E 0 9a 41 64
        E 0 9f 29 5a
        E 179 82 41 64
        E 0 83 41 64
        E 0 8a 41 64
        E 0 8f 29 64
        E 0 92 43 64
        E 1 93 43 5a
        E 0 9a 43 64
        E 0 9f 35 5a
        E 180 82 43 64
        E 0 83 43 64
        E 0 8a 43 64
        E 0 8f 35 64
        E 0 92 45 64
        E 0 93 45 5a
        E 0 9a 45 64
        E 0 9f 35 5a
        E 178 8f 35 64
        E 0 9f 35 5a
        E 182 82 45 64
        E 0 83 45 64
        E 0 8a 45 64
        E 0 8f 35 64
        E 0 92 41 64
        E 0 93 41 5a
        E 0 9a 41 64
        E 0 9f 29 5a
        E 179 8f 29 64
        E 1 9f 35 5a
        E 179 82 41 64
        E 0 83 41 64
        E 0 8a 41 64
        E 0 8f 35 64
        E 0 92 43 64
        E 0 93 43 5a
        E 0 9a 43 64
        E 0 9f 24 5a
        E 180 8f 24 64
        E 1 9f 30 5a
        E 180 82 43 64
        E 0 83 43 64
        E 0 8a 43 64
        E 0 8f 30 64
        E 0 92 4c 64
        E 0 93 3c 5a
        E 0 9a 3c 64
        E 1 9f 30 5a
        E 179 8f 30 64
        E 0 9f 30 5a
        E 179 82 4c 64
        E 0 83 3c 64
        E 0 8a 3c 64
        E 0 8f 30 64
        E 0 92 4f 64
        E 0 93 43 5a
        E 0 9a 43 64
        E 0 9f 24 5a
        E 181 8f 24 64
        E 0 9f 30 5a
        E 180 82 4f 64
        E 0 83 43 64
        E 0 8a 43 64
        E 0 8f 30 64
        E 0 92 43 64
        E 0 93 43 5a
        E 0 9a 43 64
        E 0 9f 24 5a
        E 178 82 43 64
        E 0 83 43 64
        E 0 8a 43 64
        E 0 8f 24 64
        E 1 92 45 64
        E 0 93 45 5a
        E 0 9a 45 64
        E 0 9f 30 5a
        E 179 82 45 64
        E 0 83 45 64
        E 0 8a 45 64
        E 0 8f 30 64
        E 1 92 46 66
        E 0 93 46 5b
        E 0 9a 46 66
        E 0 9f 30 5a
        E 181 8f 30 64
        E 0 9f 30 5a
        E 178 82 46 66
        E 0 83 46 66
        E 0 8a 46 66
        E 1 8f 30 64
        E 0 92 43 64
        E 0 93 43 5a
        E 0 9a 43 64
        E 0 9f 24 5a
        E 181 8f 24 64
        E 0 9f 30 5a
        E 179 82 43 64
        E 0 83 43 64
        E 0 8a 43 64
        E 0 8f 30 64
        E 0 92 45 64
        E 0 93 45 5a
        E 0 9a 45 64
        E 0 9f 29 5a
        E 180 8f 29 64
        E 1 9f 35 5a
        E 181 82 45 64
        E 0 83 45 64
        E 0 8a 45 64
        E 0 8f 35 64
        E 0 92 41 64
        E 0 93 41 5a
        E 0 9a 41 64
        E 1 9f 35 5a
        E 176 8f 35 64
        E 1 9f 35 5a
        E 178 82 41 64
        E 0 83 41 64
        E 0 8a 41 64
        E 0 8f 35 64
        E 1 92 48 64
        E 0 93 48 5a
        E 0 9a 48 64
        E 0 9f 29 5a
        E 181 8f 29 64
        E 1 9f 35 5a
        E 181 82 48 64
        E 1 83 48 64
        E 0 8a 48 64
        E 0 8f 35 64
        E 0 92 48 64
        E 0 93 48 5a
        E 0 9a 48 64
        E 0 9f 24 5a
        E 176 82 48 64
        E 0 8f 24 64
        E 0 92 4c 64
        E 0 9f 30 5a
        E 182 82 4c 64
        E 0 83 48 64
        E 0 8a 48 64
        E 0 8f 30 64
        E 0 92 4f 64
        E 0 93 3c 5a
        E 0 9a 3c 64
        E 0 9f 30 5a
        E 179 8f 30 64
        E 0 9f 30 5a
        E 180 82 4f 64
        E 0 83 3c 64
        E 0 8a 3c 64
        E 0 8f 30 64
        E 0 92 48 64
        E 0 93 48 5a
        E 0 9a 48 64
        E 0 9f 24 5a
        E 178 8f 24 64
        E 1 9f 30 5a
        E 181 82 48 64
        E 0 83 48 64
        E 0 8a 48 64
        E 0 8f 30 64
        E 0 92 46 66
        E 0 93 46 5b
        E 0 9a 46 66
        E 0 9f 24 5a
        E 180 82 46 66
        E 0 8f 24 64
        E 1 92 4c 64
        E 0 9f 2e 5b
        E 178 82 4c 64
        E 0 83 46 66
        E 0 8a 46 66
        E 0 8f 2e 66
        E 1 92 4f 64
        E 0 93 3c 5a
        E 0 9a 3c 64
        E 0 9f 2e 5b
        E 179 8f 2e 66
        E 0 9f 2e 5b
        E 181 82 4f 64
        E 1 83 3c 64
        E 0 8a 3c 64
        E 0 8f 2e 66
        E 0 92 46 66
        E 0 93 46 5b
        E 0 9a 46 66
        E 0 9f 24 5a
        E 179 8f 24 64
        E 0 9f 2e 5b
        E 182 82 46 66
        E 0 83 46 66
        E 0 8a 46 66
        E 0 8f 2e 66
        E 2 92 45 64
        E 1 93 45 5a
        E 0 9a 45 64
        E 0 9f 24 5a
        E 176 82 45 64
        E 0 8f 24 64
        E 0 92 48 64
        E 0 9f 2d 5a
        E 180 82 48 64
        E 0 83 45 64
        E 0 8a 45 64
        E 0 8f 2d 64
        E 0 92 4d 64
        E 0 93 3c 5a
        E 1 9a 3c 64
        E 0 9f 2d 5a
        E 180 8f 2d 64
        E 0 9f 2d 5a
        E 178 82 4d 64
        E 0 83 3c 64
        E 0 8a 3c 64
        E 0 8f 2d 64
        E 0 92 45 64
        E 1 93 45 5a
        E 0 9a 45 64
        E 0 9f 24 5a
        E 179 8f 24 64
        E 0 9f 2d 5a
        E 180 82 45 64
        E 0 83 45 64
        E 0 8a 45 64
        E 0 8f 2d 64
        E 0 92 43 64
        E 0 93 43 5a
        E 0 9a 43 64
        E 0 9f 24 5a
        E 182 82 43 64
        E 0 8f 24 64
        E 1 92 41 64
        E 0 9f 30 5a
        E 178 82 41 64
        E 0 83 43 64
        E 0 8a 43 64
        E 0 8f 30 64
        E 0 92 40 64
        E 0 93 3c 5a
        E 0 9a 3c 64
        E 0 9f 30 5a
        E 178 8f 30 64
        E 0 9f 30 5a
        E 181 83 3c 64
        E 0 8a 3c 64
        E 0 8f 30 64
        E 0 93 3c 5a
        E 0 9a 3c 64
        E 0 9f 24 5a
        E 181 8f 24 64
        E 0 9f 30 5a
        E 179 82 40 64
        E 0 83 3c 64
        E 0 8a 3c 64
        E 0 8f 30 64
        E 0 92 4f 64
        E 0 93 3c 5a
        E 0 9a 3c 64
        E 0 9f 24 5a
        E 179 82 4f 64
        E 0 8f 24 64
        E 1 92 4d 64
        E 0 9f 30 5a
        E 179 82 4d 64
        E 0 83 3c 64
        E 0 8a 3c 64
        E 0 8f 30 64
        E 0 92 4c 64
        E 0 93 3c 5a
        E 0 9a 3c 64
        E 0 9f 30 5a
        E 182 8f 30 64
        E 0 9f 30 5a
        E 180 83 3c 64
        E 0 8a 3c 64
        E 0 8f 30 64
        E 0 93 3c 5a
        E 0 9a 3c 64
        E 0 9f 24 5a
        E 180 8f 24 64
        E 0 9f 30 5a
        E 178 82 4c 64
        E 0 83 3c 64
        E 0 8a 3c 64
        E 0 8f 30 64
        E 2 92 43 64
        E 1 93 3c 5a
        E 0 9a 3c 64
        E 0 9f 24 5a
        E 179 82 43 64
        E 0 83 3c 64
        E 0 8a 3c 64
        E 0 8f 24 64
        E 1 92 41 64
        E 0 93 3e 5a
        E 0 9a 3e 64
        E 0 9f 30 5a
        E 180 82 41 64
        E 0 83 3e 64
        E 0 8a 3e 64
        E 0 8f 30 64
        E 0 92 40 64
        E 0 93 40 5a
        E 0 9a 40 64
        E 0 9f 30 5a
        E 179 8f 30 64
        E 0 9f 30 5a
        E 178 83 40 64
        E 0 8a 40 64
        E 0 8f 30 64
        E 1 93 40 5a
        E 0 9a 40 64
        E 0 9f 24 5a
        E 180 8f 24 64
        E 0 9f 30 5a
        E 184 82 40 64
        E 0 83 40 64
        E 0 8a 40 64
        E 0 8f 30 64
        E 0 92 4f 64
        E 0 93 40 5a
        E 0 9a 40 64
        E 0 9f 24 5a
        E 176 82 4f 64
        E 1 8f 24 64
        E 0 92 4d 64
        E 0 9f 30 5a
        E 178 82 4d 64
        E 0 83 40 64
        E 0 8a 40 64
        E 0 8f 30 64
        E 0 92 4c 64
        E 0 93 40 5a
        E 0 9a 40 64
        E 0 9f 30 5a
        E 181 8f 30 64
        E 0 9f 30 5a
        E 181 83 40 64
        E 0 8a 40 64
        E 0 8f 30 64
        E 0 93 40 5a
        E 0 9a 40 64
        E 0 9f 24 5a
        E 179 8f 24 64
        E 0 9f 30 5a
        E 180 82 4c 64
        E 0 83 40 64
        E 0 8a 40 64
        E 0 8f 30 64
        E 0 92 43 64
        E 0 93 40 5a
        E 0 9a 40 64
        E 0 9f 24 5a
        E 182 82 43 64
        E 0 83 40 64
        E 0 8a 40 64
        E 1 8f 24 64
        E 0 92 41 64
        E 1 93 41 5a
        E 0 9a 41 64
        E 0 9f 30 5a
        E 178 82 41 64
        E 0 83 41 64
        E 0 8a 41 64
        E 0 8f 30 64
        E 0 92 40 64
        E 0 93 43 5a
        E 0 9a 43 64
        E 0 9f 30 5a
        E 179 8f 30 64
        E 0 9f 30 5a
        E 179 82 40 64
        E 0 83 43 64
        E 0 8a 43 64
        E 0 8f 30 64
        E 0 92 48 64
        E 0 93 48 5a
        E 0 9a 48 64
        E 0 9f 3c 5a
        E 362 82 48 64
        E 0 83 48 64
        E 0 8a 48 64
        E 0 8f 3c 64
        E 0 92 41 64
        E 0 93 41 5a
        E 0 9a 41 64
        E 0 9f 35 5a
        E 358 82 41 64
        E 0 83 41 64
        E 0 8a 41 64
        E 0 8f 35 64
        E 0 92 3e 64
        E 0 93 3e 5a
        E 0 9a 3e 64
        E 0 9f 32 5a
        E 361 82 3e 64
        E 0 83 3e 64
        E 0 8a 3e 64
        E 0 8f 32 64
        E 0 92 43 64
        E 1 93 43 5a
        E 0 9a 43 64
        E 0 9f 37 5a
        E 359 82 43 64
        E 0 83 43 64
        E 0 8a 43 64
        E 0 8f 37 64
        E 0 92 40 64
        E 0 93 40 5a
        E 0 9a 40 64
        E 0 9f 24 5a
        E 180 8f 24 64
        E 0 9f 30 5a
        E 181 8f 30 64
        E 0 9f 30 5a
        E 177 8f 30 64
        E 0 9f 30 5a
        E 182 82 40 64
        E 0 83 40 64
        E 0 8a 40 64
        E 0 8f 30 64
        E 0 92 48 64
        E 0 93 48 5a
        E 0 9a 48 64
        E 0 9f 3c 5a
        E 360 82 48 64
        E 0 83 48 64
        E 0 8a 48 64
        E 0 8f 3c 64
        E 0 92 41 64
        E 0 93 41 5a
        E 0 9a 41 64
        E 0 9f 35 5a
        E 359 82 41 64
        E 0 83 41 64
        E 0 8a 41 64
        E 0 8f 35 64
        E 0 92 3e 64
        E 0 93 3e 5a
        E 0 9a 3e 64
        E 0 9f 32 5a
        E 362 82 3e 64
        E 0 83 3e 64
        E 0 8a 3e 64
        E 1 8f 32 64
        E 0 92 43 64
        E 0 93 43 5a
        E 0 9a 43 64
        E 0 9f 37 5a
        E 358 82 43 64
        E 0 83 43 64
        E 0 8a 43 64
        E 0 8f 37 64
        E 0 92 48 64
        E 0 93 3c 5a
        E 0 9a 3c 64
        E 0 9f 24 5a
        E 179 82 48 64
        E 1 8f 24 64
        E 0 92 4a 64
        E 0 9f 30 5a
        E 180 82 4a 64
        E 0 8f 30 64
        E 1 92 4c 64
        E 1 9f 30 5a
        E 177 8f 30 64
        E 0 9f 30 5a
        E 179 82 4c 64
        E 0 8f 30 64
        E 0 92 48 64
        E 1 9f 24 5a
        E 181 8f 24 64
        E 0 9f 30 5a
        E 179 82 48 64
        E 0 83 3c 64
        E 0 8a 3c 64
        E 0 8f 30 64
        E 0 92 4a 64
        E 0 93 3b 5a
        E 0 9f 2b 5a
        E 181 83 3b 64
        E 0 8f 2b 64
        E 0 93 39 5a
        E 0 9f 37 5a
        E 180 82 4a 64
        E 0 83 39 64
        E 0 8f 37 64
        E 1 92 53 64
        E 0 93 37 5a
        E 0 9f 37 5a
        E 178 8f 37 64
        E 0 9f 37 5a
        E 180 82 53 64
        E 0 83 37 64
        E 0 8f 37 64
        E 1 92 56 64
        E 0 93 37 5a
        E 0 9f 2b 5a
        E 181 8f 2b 64
        E 0 9f 37 5a
        E 177 82 56 64
        E 0 83 37 64
        E 0 8f 37 64
        E 0 92 4a 64
        E 0 93 43 5a
        E 0 9f 2b 5a
        E 181 82 4a 64
        E 0 8f 2b 64
        E 0 92 4c 64
        E 1 9f 37 5a
        E 181 82 4c 64
        E 0 83 43 64
        E 0 8f 37 64
        E 0 92 4d 64
        E 1 93 43 5a
        E 0 9f 37 5a
        E 177 8f 37 64
        E 0 9f 37 5a
        E 182 82 4d 64
        E 0 8f 37 64
        E 0 92 4a 64
        E 0 9f 2b 5a
        E 179 8f 2b 64
        E 1 9f 37 5a
        E 180 82 4a 64
        E 0 83 43 64
        E 0 8f 37 64
        E 1 92 4c 64
        E 1 93 43 5a
        E 0 9f 30 5a
        E 176 82 4c 64
        E 0 83 43 64
        E 0 8f 30 64
        E 0 92 4a 64
        E 1 93 41 5a
        E 0 9f 3c 5a
        E 180 82 4a 64
        E 0 83 41 64
        E 0 8f 3c 64
        E 1 92 48 64
        E 0 93 40 5a
        E 0 9f 3c 5a
        E 178 8f 3c 64
        E 0 9f 3c 5a
        E 181 82 48 64
        E 0 83 40 64
        E 0 8f 3c 64
        E 0 92 43 64
        E 0 93 40 5a
        E 0 9f 30 5a
        E 178 8f 30 64
        E 0 9f 3c 5a
        E 182 82 43 64
        E 0 83 40 64
        E 0 8f 3c 64
        E 0 92 43 64
        E 0 93 3b 5a
        E 0 9f 2b 5a
        E 179 82 43 64
        E 0 8f 2b 64
        E 0 92 47 64
        E 0 9f 37 5a
        E 180 82 47 64
        E 0 8f 37 64
        E 0 92 4a 64
        E 0 9f 37 5a
        E 179 8f 37 64
        E 0 9f 37 5a
        E 181 82 4a 64
        E 0 83 3b 64
        E 0 8f 37 64
        E 0 92 43 64
        E 0 93 3b 5a
        E 0 9f 2b 5a
        E 182 8f 2b 64
        E 0 9f 37 5a
        E 179 82 43 64
        E 0 83 3b 64
        E 0 8f 37 64
        E 0 92 41 64
        E 0 93 3b 5a
        E 0 9f 2b 5a
        E 181 82 41 64
        E 0 8f 2b 64
        E 0 92 47 64
        E 0 9f 35 5a
        E 179 82 47 64
        E 0 8f 35 64
        E 1 92 4a 64
        E 1 9f 35 5a
        E 179 8f 35 64
        E 0 9f 35 5a
        E 180 82 4a 64
        E 0 83 3b 64
        E 0 8f 35 64
        E 0 92 41 64
        E 0 93 3b 5a
        E 0 9f 2b 5a
        E 178 8f 2b 64
        E 0 9f 35 5a
        E 180 82 41 64
        E 0 83 3b 64
        E 0 8f 35 64
        E 0 92 40 64
        E 0 93 3c 5a
        E 0 9f 2b 5a
        E 181 82 40 64
        E 0 8f 2b 64
        E 0 92 43 64
        E 0 9f 34 5a
        E 179 82 43 64
        E 0 8f 34 64
        E 1 92 48 64
        E 0 9f 34 5a
        E 178 8f 34 64
        E 1 9f 34 5a
        E 180 82 48 64
        E 0 83 3c 64
        E 0 8f 34 64
        E 0 92 40 64
        E 0 93 40 5a
        E 0 9f 2b 5a
        E 182 8f 2b 64
        E 0 9f 34 5a
        E 180 82 40 64
        E 0 83 40 64
        E 0 8f 34 64
        E 0 92 41 64
        E 0 93 41 5a
        E 1 9f 35 5a
        E 357 82 41 64
        E 0 83 41 64
        E 0 8f 35 64
        E 0 92 3e 64
        E 0 93 3e 5a
        E 0 9f 32 5a
        E 359 82 3e 64
        E 1 83 3e 64
        E 0 8f 32 64
        E 0 92 43 64
        E 0 93 43 5a
        E 0 9f 37 5a
        E 360 82 43 64
        E 0 83 43 64
        E 0 8f 37 64
        E 0 92 3c 64
        E 0 93 3c 5a
        E 0 9f 30 5a
        E 721 82 3c 64
        E 0 83 3c 64
        E 0 8f 30 64
        E 1 92 3c 64
        E 0 93 3c 5a
        E 0 9a 3c 64
        E 0 9f 30 5a
        E 359 82 3c 64
        E 0 83 3c 64
        E 0 8a 3c 64
        E 0 8f 30 64
        E 0 92 3c 64
        E 0 93 3c 5a
        E 0 9a 3c 64
        E 0 9f 30 5a
        E 179 82 3c 64
        E 1 83 3c 64
        E 0 8a 3c 64
        E 0 8f 30 64
        E 0 92 3e 64
        E 0 93 3e 5a
        E 0 9a 3e 64
        E 0 9f 3c 5a
        E 179 82 3e 64
        E 0 83 3e 64
        E 0 8a 3e 64
        E 0 8f 3c 64
        E 0 92 40 64
        E 0 93 40 5a
        E 0 9a 40 64
        E 0 9f 3c 5a
        E 179 8f 3c 64
        E 0 9f 3c 5a
        E 183 82 40 64
        E 0 83 40 64
        E 0 8a 40 64
        E 0 8f 3c 64
        E 0 92 3c 64
        E 0 93 3c 5a
        E 0 9a 3c 64
        E 0 9f 30 5a
        E 176 8f 30 64
        E 0 9f 3c 5a
        E 180 82 3c 64
        E 1 83 3c 64
        E 0 8a 3c 64
        E 0 8f 3c 64
        E 0 92 43 64
        E 0 93 43 5a
        E 0 9a 43 64
        E 0 9f 2f 5a
        E 182 8f 2f 64
        E 1 9f 3b 5a
        E 179 82 43 64
        E 0 83 43 64
        E 0 8a 43 64
        E 0 8f 3b 64
        E 0 92 43 64
        E 0 93 43 5a
        E 0 9a 43 64
        E 0 9f 3b 5a
        E 178 8f 3b 64
        E 0 9f 3b 5a
        E 183 82 43 64
        E 0 83 43 64
        E 0 8a 43 64
        E 0 8f 3b 64
        E 0 92 43 64
        E 1 93 43 5a
        E 0 9a 43 64
        E 0 9f 2f 5a
        E 179 8f 2f 64
        E 0 9f 3b 5a
        E 180 82 43 64
        E 0 83 43 64
        E 0 8a 43 64
        E 0 8f 3b 64
        E 4 92 45 64
        E 0 93 45 5a
        E 0 9a 45 64
        E 0 9f 2d 5a
        E 175 82 45 64
        E 0 83 45 64
        E 0 8a 45 64
        E 0 8f 2d 64
        E 0 92 47 64
        E 1 93 47 5a
        E 0 9a 47 64
        E 0 9f 39 5a
        E 179 82 47 64
        E 0 83 47 64
        E 0 8a 47 64
        E 0 8f 39 64
        E 0 92 48 64
        E 0 93 48 5a
        E 1 9a 48 64
        E 0 9f 39 5a
        E 178 8f 39 64
        E 1 9f 39 5a
        E 180 82 48 64
        E 0 83 48 64
        E 0 8a 48 64
        E 0 8f 39 64
        E 0 92 48 64
        E 0 93 48 5a
        E 0 9a 48 64
        E 0 9f 2d 5a
        E 178 8f 2d 64
        E 0 9f 39 5a
        E 180 82 48 64
        E 0 83 48 64
        E 0 8a 48 64
        E 0 8f 39 64
        E 0 92 4a 64
        E 0 93 47 5a
        E 0 9a 47 64
        E 0 9f 2b 5a
        E 183 8f 2b 64
        E 0 9f 37 5a
        E 178 82 4a 64
        E 1 83 47 64
        E 0 8a 47 64
        E 0 8f 37 64
        E 0 92 4f 64
        E 0 93 43 5a
        E 0 9a 43 64
        E 0 9f 37 5a
        E 177 8f 37 64
        E 1 9f 37 5a
        E 181 82 4f 64
        E 0 83 43 64
        E 0 8a 43 64
        E 0 8f 37 64
        E 0 92 43 64
        E 0 93 43 5a
        E 0 9a 43 64
        E 0 9f 2b 5a
        E 181 8f 2b 64
        E 0 9f 37 5a
        E 179 82 43 64
        E 0 83 43 64
        E 0 8a 43 64
        E 0 8f 37 64
        E 0 92 43 64
        E 0 93 43 5a
        E 0 9a 43 64
        E 0 9f 2b 5a
        E 179 82 43 64
        E 0 8f 2b 64
        E 0 92 47 64
        E 0 9f 37 5a
        E 181 82 47 64
        E 0 83 43 64
        E 0 8a 43 64
        E 0 8f 37 64
        E 0 92 4a 64
        E 0 93 43 5a
        E 0 9a 43 64
        E 0 9f 37 5a
        E 181 8f 37 64
        E 0 9f 37 5a
        E 179 82 4a 64
        E 0 83 43 64
        E 0 8a 43 64
        E 0 8f 37 64
        E 0 92 43 64
        E 1 93 43 5a
        E 0 9a 43 64
        E 0 9f 2b 5a
        E 180 8f 2b 64
        E 0 9f 37 5a
        E 179 82 43 64
        E 0 83 43 64
        E 0 8a 43 64
        E 0 8f 37 64
        E 0 92 41 64
        E 0 93 41 5a
        E 0 9a 41 64
        E 0 9f 2b 5a
        E 179 82 41 64
        E 0 8f 2b 64
        E 0 92 47 64
        E 1 9f 35 5a
        E 182 82 47 64
        E 0 83 41 64
        E 0 8a 41 64
        E 0 8f 35 64
        E 0 92 4a 64
        E 0 93 41 5a
        E 0 9a 41 64
        E 0 9f 35 5a
        E 176 8f 35 64
        E 0 9f 35 5a
        E 181 82 4a 64
        E 0 83 41 64
        E 0 8a 41 64
        E 0 8f 35 64
        E 1 92 41 64
        E 0 93 41 5a
        E 0 9a 41 64
        E 0 9f 2b 5a
        E 180 8f 2b 64
        E 0 9f 35 5a
        E 180 82 41 64
        E 0 83 41 64
        E 0 8a 41 64
        E 0 8f 35 64
        E 0 92 40 64
        E 0 93 40 5a
        E 1 9a 40 64
        E 0 9f 2b 5a
        E 178 82 40 64
        E 0 8f 2b 64
        E 1 92 43 64
        E 0 9f 34 5a
        E 179 82 43 64
        E 0 83 40 64
        E 0 8a 40 64
        E 0 8f 34 64
        E 0 92 48 64
        E 0 93 40 5a
        E 1 9a 40 64
        E 0 9f 34 5a
        E 181 8f 34 64
        E 0 9f 34 5a
        E 181 82 48 64
        E 0 83 40 64
        E 0 8a 40 64
        E 0 8f 34 64
        E 0 92 40 64
        E 1 93 40 5a
        E 0 9a 40 64
        E 0 9f 2b 5a
        E 176 8f 2b 64
        E 0 9f 34 5a
        E 182 82 40 64
        E 0 83 40 64
        E 0 8a 40 64
        E 0 8f 34 64
        E 1 92 3e 64
        E 0 93 3e 5a
        E 0 9a 3e 64
        E 0 9f 2b 5a
        E 180 82 3e 64
        E 0 83 3e 64
        E 0 8a 3e 64
        E 0 8f 2b 64
        E 0 92 47 64
        E 0 93 3c 5a
        E 0 9a 3c 64
        E 0 9f 32 5a
        E 178 82 47 64
        E 0 83 3c 64
        E 0 8a 3c 64
        E 0 8f 32 64
        E 0 92 4a 64
        E 0 93 3e 5a
        E 0 9a 3e 64
        E 0 9f 32 5a
        E 180 8f 32 64
        E 0 9f 32 5a
        E 182 82 4a 64
        E 0 83 3e 64
        E 0 8a 3e 64
        E 0 8f 32 64
        E 0 92 47 64
        E 0 9f 2b 5a
        E 178 8f 2b 64
        E 1 9f 32 5a
        E 180 82 47 64
        E 0 8f 32 64
        E 0 92 48 64
        E 0 9f 24 5a
        E 180 82 48 64
        E 0 8f 24 64
        E 0 92 4c 64
        E 0 9f 30 5a
        E 180 82 4c 64
        E 0 8f 30 64
        E 0 92 4f 64
        E 0 9f 30 5a
        E 181 8f 30 64
        E 0 9f 30 5a
        E 178 82 4f 64
        E 0 8f 30 64
        E 0 92 4c 64
        E 0 93 48 5a
        E 0 9a 48 64
        E 0 9f 24 5a
        E 180 8f 24 64
        E 0 9f 30 5a
        E 181 82 4c 64
        E 0 83 48 64
        E 0 8a 48 64
        E 0 8f 30 64
        E 0 92 48 64
        E 0 93 48 5a
        E 0 9a 48 64
        E 0 9f 24 5a
        E 180 82 48 64
        E 0 8f 24 64
        E 1 92 4c 64
        E 0 9f 30 5a
        E 179 82 4c 64
        E 0 83 48 64
        E 0 8a 48 64
        E 0 8f 30 64
        E 0 92 4f 64
        E 0 93 3c 5a
        E 0 9a 3c 64
        E 0 9f 30 5a
        E 178 8f 30 64
        E 1 9f 30 5a
        E 180 82 4f 64
        E 0 83 3c 64
        E 0 8a 3c 64
        E 0 8f 30 64
        E 0 92 48 64
        E 0 93 48 5a
        E 0 9a 48 64
        E 0 9f 24 5a
        E 181 8f 24 64
        E 0 9f 30 5a
        E 180 82 48 64
        E 0 83 48 64
        E 1 8a 48 64
        E 0 8f 30 64
        E 0 92 46 66
        E 1 93 46 5b
        E 1 9a 46 66
        E 0 9f 24 5a
        E 177 82 46 66
        E 0 8f 24 64
        E 0 92 4c 64
        E 0 9f 2e 5b
        E 179 82 4c 64
        E 0 83 46 66
        E 0 8a 46 66
        E 0 8f 2e 66
        E 0 92 4f 64
        E 0 93 3c 5a
        E 0 9a 3c 64
        E 0 9f 2e 5b
        E 181 8f 2e 66
        E 0 9f 2e 5b
        E 181 82 4f 64
        E 0 83 3c 64
        E 0 8a 3c 64
        E 0 8f 2e 66
        E 0 92 46 66
        E 0 93 46 5b
        E 0 9a 46 66
        E 0 9f 24 5a
        E 179 8f 24 64
        E 0 9f 2e 5b
        E 179 82 46 66
        E 0 83 46 66
        E 0 8a 46 66
        E 0 8f 2e 66
        E 0 92 45 64
        E 0 93 45 5a
        E 0 9a 45 64
        E 0 9f 24 5a
        E 182 82 45 64
        E 0 8f 24 64
        E 0 92 48 64
        E 0 9f 2d 5a
        E 179 82 48 64
        E 0 83 45 64
        E 0 8a 45 64
        E 0 8f 2d 64
        E 0 92 4d 64
        E 0 93 3c 5a
        E 0 9a 3c 64
        E 0 9f 2d 5a
        E 178 8f 2d 64
        E 0 9f 2d 5a
        E 182 82 4d 64
        E 0 83 3c 64
        E 0 8a 3c 64
        E 0 8f 2d 64
        E 0 92 45 64
        E 0 93 45 5a
        E 0 9a 45 64
        E 0 9f 24 5a
        E 180 8f 24 64
        E 0 9f 2d 5a
        E 179 82 45 64
        E 0 83 45 64
        E 0 8a 45 64
        E 0 8f 2d 64
        E 0 92 43 64
        E 0 93 43 5a
        E 1 9a 43 64
        E 0 9f 24 5a
        E 179 82 43 64
        E 0 83 43 64
        E 0 8a 43 64
        E 0 8f 24 64
        E 0 92 4c 64
        E 0 93 41 5a
        E 0 9a 41 64
        E 0 9f 30 5a
        E 180 82 4c 64
        E 0 83 41 64
        E 0 8a 41 64
        E 0 8f 30 64
        E 0 92 4f 64
        E 0 93 43 5a
        E 0 9a 43 64
        E 0 9f 30 5a
        E 180 8f 30 64
        E 0 9f 30 5a
        E 182 82 4f 64
        E 0 83 43 64
        E 0 8a 43 64
        E 0 8f 30 64
        E 0 92 48 64
        E 1 9f 24 5a
        E 177 8f 24 64
        E 1 9f 30 5a
        E 181 82 48 64
        E 0 8f 30 64
        E 0 92 48 64
        E 0 9f 29 5a
        E 178 82 48 64
        E 0 8f 29 64
        E 0 92 46 66
        E 0 9f 35 5a
        E 182 82 46 66
        E 0 8f 35 64
        E 0 92 45 64
        E 0 9f 35 5a
        E 178 8f 35 64
        E 0 9f 35 5a
        E 180 8f 35 64
        E 0 93 41 5a
        E 0 9a 41 64
        E 0 9f 29 5a
        E 180 8f 29 64
        E 0 9f 35 5a
        E 182 82 45 64
        E 0 83 41 64
        E 0 8a 41 64
        E 0 8f 35 64
        E 1 92 54 64
        E 0 93 41 5a
        E 0 9a 41 64
        E 0 9f 29 5a
        E 175 82 54 64
        E 0 8f 29 64
        E 0 92 52 66
        E 0 9f 35 5a
        E 184 82 52 66
        E 0 83 41 64
        E 0 8a 41 64
        E 0 8f 35 64
        E 0 92 51 64
        E 0 93 41 5a
        E 0 9a 41 64
        E 0 9f 35 5a
        E 178 8f 35 64
        E 1 9f 35 5a
        E 180 83 41 64
        E 0 8a 41 64
        E 0 8f 35 64
        E 0 93 41 5a
        E 0 9a 41 64
        E 0 9f 29 5a
        E 178 8f 29 64
        E 0 9f 35 5a
        E 182 82 51 64
        E 0 83 41 64
        E 0 8a 41 64
        E 0 8f 35 64
        E 0 92 48 64
        E 0 93 41 5a
        E 0 9a 41 64
        E 0 9f 29 5a
        E 178 82 48 64
        E 0 83 41 64
        E 0 8a 41 64
        E 0 8f 29 64
        E 1 92 46 66
        E 0 93 43 5a
        E 0 9a 43 64
        E 0 9f 35 5a
        E 181 82 46 66
        E 0 83 43 64
        E 0 8a 43 64
        E 0 8f 35 64
        E 0 92 45 64
        E 0 93 45 5a
        E 0 9a 45 64
        E 0 9f 35 5a
        E 180 8f 35 64
        E 0 9f 35 5a
        E 178 83 45 64
        E 0 8a 45 64
        E 0 8f 35 64
        E 0 93 45 5a
        E 1 9a 45 64
        E 0 9f 29 5a
        E 180 8f 29 64
        E 0 9f 35 5a
        E 183 82 45 64
        E 0 83 45 64
        E 0 8a 45 64
        E 0 8f 35 64
        E 0 92 54 64
        E 0 93 45 5a
        E 0 9a 45 64
        E 0 9f 29 5a
        E 176 82 54 64
        E 0 8f 29 64
        E 0 92 52 66
        E 0 9f 35 5a
        E 181 82 52 66
        E 0 83 45 64
        E 0 8a 45 64
        E 0 8f 35 64
        E 0 92 51 64
        E 0 93 45 5a
        E 0 9a 45 64
        E 0 9f 35 5a
        E 182 8f 35 64
        E 1 9f 35 5a
        E 178 83 45 64
        E 0 8a 45 64
        E 0 8f 35 64
        E 0 93 45 5a
        E 0 9a 45 64
        E 0 9f 29 5a
        E 177 8f 29 64
        E 1 9f 35 5a
        E 181 82 51 64
        E 0 83 45 64
        E 0 8a 45 64
        E 0 8f 35 64
        E 0 92 45 64
        E 0 93 3c 5a
        E 0 9a 45 64
        E 0 9f 29 5a
        E 180 82 45 64
        E 0 8a 45 64
        E 0 8f 29 64
        E 1 92 46 66
        E 2 9a 46 66
        E 0 9f 35 5a
        E 179 82 46 66
        E 0 8a 46 66
        E 0 8f 35 64
        E 1 92 48 64
        E 0 9a 48 64
        E 0 9f 35 5a
        E 175 8f 35 64
        E 1 9f 35 5a
        E 180 82 48 64
        E 0 83 3c 64
        E 0 8a 48 64
        E 0 8f 35 64
        E 1 92 41 64
        E 0 93 41 5a
        E 0 9a 41 64
        E 0 9f 29 5a
        E 181 8f 29 64
        E 0 9f 35 5a
        E 181 82 41 64
        E 0 83 41 64
        E 0 8a 41 64
        E 3 8f 35 64
        E 0 92 43 64
        E 1 93 43 5a
        E 0 9a 43 64
        E 0 9f 37 5a
        E 355 82 43 64
        E 0 83 43 64
        E 0 8a 43 64
        E 0 8f 37 64
        E 0 92 3c 64
        E 0 93 3c 5a
        E 0 9a 3c 64
        E 0 9f 30 5a
        E 360 82 3c 64
        E 0 83 3c 64
        E 0 8a 3c 64
        E 0 8f 30 64
        E 0 92 40 64
        E 0 93 40 5a
        E 0 9a 40 64
        E 0 9f 24 5a
        E 359 82 40 64
        E 0 83 40 64
        E 0 8a 40 64
        E 0 8f 24 64
        E 0 92 41 64
        E 0 93 41 5a
        E 0 9a 41 64
        E 0 9f 29 5a
        E 180 8f 29 64
        E 0 9f 35 5a
        E 182 8f 35 64
        E 0 9f 35 5a
        E 177 8f 35 64
        E 0 9f 35 5a
        E 182 82 41 64
        E 0 83 41 64
        E 0 8a 41 64
        E 0 8f 35 64
        E 0 92 41 64
        E 0 9a 41 64
        E 0 9f 29 5a
        E 180 8f 29 64
        E 0 9f 35 5a
        E 180 82 41 64
        E 0 8a 41 64
        E 0 8f 35 64
        E 0 92 41 64
        E 0 9a 41 64
        E 0 9f 29 5a
        E 180 82 41 64
        E 0 8a 41 64
        E 0 8f 29 64
        E 0 92 43 64
        E 0 9a 43 64
        E 0 9f 35 5a
        E 178 82 43 64
        E 0 8a 43 64
        E 0 8f 35 64
        E 0 92 45 64
        E 0 9a 45 64
        E 0 9f 35 5a
        E 181 82 45 64
        E 0 8a 45 64
        E 0 8f 35 64
        E 0 92 46 66
        E 1 9a 46 66
        E 0 9f 35 5a
        E 180 82 46 66
        E 0 8a 46 66
        E 0 8f 35 64
        E 3 92 48 64
        E 0 9a 48 64
        E 1 9f 29 5a
        E 175 82 48 64
        E 0 8a 48 64
        E 0 8f 29 64
        E 0 92 4a 64
        E 1 9a 4a 64
        E 0 9f 35 5a
        E 178 82 4a 64
        E 0 8a 4a 64
        E 0 8f 35 64
        E 0 92 47 64
        E 0 93 47 5a
        E 0 9a 47 64
        E 0 9f 2b 5a
        E 181 8f 2b 64
        E 1 9f 37 5a
        E 181 82 47 64
        E 0 8a 47 64
        E 0 8f 37 64
        E 0 92 4a 64
        E 0 9a 4a 64
        E 0 9f 37 5a
        E 177 8f 37 64
        E 0 9f 37 5a
        E 179 82 4a 64
        E 1 8a 4a 64
        E 0 8f 37 64
        E 0 92 41 64
        E 0 9a 41 64
        E 0 9f 2b 5a
        E 183 8f 2b 64
        E 0 9f 37 5a
        E 180 82 41 64
        E 0 83 47 64
        E 0 8a 41 64
        E 0 8f 37 64
        E 0 92 40 64
        E 0 93 46 5b
        E 1 9a 40 64
        E 0 9f 30 5a
        E 177 82 40 64
        E 0 8a 40 64
        E 0 8f 30 64
        E 1 92 41 64
        E 0 9a 41 64
        E 0 9f 3c 5a
        E 179 82 41 64
        E 0 8a 41 64
        E 0 8f 3c 64
        E 0 92 43 64
        E 1 9a 43 64
        E 0 9f 3c 5a
        E 178 82 43 64
        E 0 8a 43 64
        E 0 8f 3c 64
        E 1 92 45 64
        E 0 9a 45 64
        E 0 9f 3c 5a
        E 182 82 45 64
        E 0 8a 45 64
        E 0 8f 3c 64
        E 1 92 46 66
        E 0 9a 46 66
        E 0 9f 30 5a
        E 178 82 46 66
        E 0 8a 46 66
        E 0 8f 30 64
        E 0 92 48 64
        E 0 9a 48 64
        E 0 9f 3c 5a
        E 179 82 48 64
        E 0 83 46 66
        E 0 8a 48 64
        E 0 8f 3c 64
        E 0 92 45 64
        E 0 93 45 5a
        E 0 9a 45 64
        E 0 9f 29 5a
        E 179 8f 29 64
        E 0 9f 35 5a
        E 181 82 45 64
        E 0 8a 45 64
        E 0 8f 35 64
        E 1 92 48 64
        E 0 9a 48 64
        E 0 9f 35 5a
        E 179 8f 35 64
        E 0 9f 35 5a
        E 181 82 48 64
        E 0 8a 48 64
        E 0 8f 35 64
        E 0 92 3f 66
        E 0 9a 3f 66
        E 1 9f 29 5a
        E 178 8f 29 64
        E 1 9f 35 5a
        E 181 82 3f 66
        E 0 83 45 64
        E 0 8a 3f 66
        E 0 8f 35 64
        E 0 92 3e 64
        E 0 93 45 5a
        E 0 9a 3e 64
        E 1 9f 2e 5b
        E 178 82 3e 64
        E 0 8a 3e 64
        E 0 8f 2e 66
        E 0 92 3f 66
        E 0 9a 3f 66
        E 0 9f 3a 5b
        E 178 82 3f 66
        E 0 8a 3f 66
        E 0 8f 3a 66
        E 1 92 41 64
        E 0 9a 41 64
        E 0 9f 3a 5b
        E 182 82 41 64
        E 0 8a 41 64
        E 0 8f 3a 66
        E 0 92 43 64
        E 0 9a 43 64
        E 0 9f 3a 5b
        E 178 82 43 64
        E 1 8a 43 64
        E 0 8f 3a 66
        E 0 92 45 64
        E 0 9a 45 64
        E 0 9f 2e 5b
        E 177 82 45 64
        E 0 8a 45 64
        E 1 8f 2e 66
        E 0 92 46 66
        E 0 9a 46 66
        E 0 9f 3a 5b
        E 181 82 46 66
        E 0 83 45 64
        E 0 8a 46 66
        E 0 8f 3a 66
        E 0 92 43 64
        E 0 93 43 5a
        E 0 9a 43 64
        E 0 9f 28 5a
        E 180 8f 28 64
        E 0 9f 34 5a
        E 180 82 43 64
        E 0 8a 43 64
        E 0 8f 34 64
        E 0 92 46 66
        E 0 9a 46 66
        E 0 9f 34 5a
        E 181 8f 34 64
        E 0 9f 34 5a
        E 179 82 46 66
        E 0 8a 46 66
        E 0 8f 34 64
        E 0 92 3e 64
        E 0 9a 3e 64
        E 1 9f 28 5a
        E 180 8f 28 64
        E 1 9f 34 5a
        E 179 82 3e 64
        E 0 83 43 64
        E 0 8a 3e 64
        E 0 8f 34 64
        E 0 92 3c 64
        E 0 93 43 5a
        E 0 9a 3c 64
        E 0 9f 2d 5a
        E 179 82 3c 64
        E 1 8a 3c 64
        E 0 8f 2d 64
        E 1 92 3e 64
        E 1 9a 3e 64
        E 0 9f 39 5a
        E 176 82 3e 64
        E 0 8a 3e 64
        E 0 8f 39 64
        E 0 92 40 64
        E 0 9a 40 64
        E 0 9f 39 5a
        E 181 82 40 64
        E 0 8a 40 64
        E 0 8f 39 64
        E 0 92 41 64
        E 0 9a 41 64
        E 0 9f 39 5a
        E 181 82 41 64
        E 0 8a 41 64
        E 0 8f 39 64
        E 0 92 43 64
        E 0 9a 43 64
        E 0 9f 2d 5a
        E 180 82 43 64
        E 0 8a 43 64
        E 0 8f 2d 64
        E 0 92 45 64
        E 0 9a 45 64
        E 0 9f 39 5a
        E 180 82 45 64
        E 0 83 43 64
        E 0 8a 45 64
        E 0 8f 39 64
        E 1 92 46 66
        E 0 93 43 5a
        E 0 9a 46 66
        E 0 9f 2b 5a
        E 178 82 46 66
        E 0 8a 46 66
        E 0 8f 2b 64
        E 0 92 4a 64
        E 0 9a 4a 64
        E 0 9f 30 5a
        E 181 82 4a 64
        E 0 8a 4a 64
        E 0 8f 30 64
        E 0 92 48 64
        E 0 9a 48 64
        E 0 9f 30 5a
        E 179 82 48 64
        E 0 8a 48 64
        E 0 8f 30 64
        E 2 92 46 66
        E 0 9a 46 66
        E 0 9f 30 5a
        E 177 82 46 66
        E 0 83 43 64
        E 0 8a 46 66
        E 0 8f 30 64
        E 0 92 45 64
        E 0 93 40 5a
        E 0 9a 45 64
        E 0 9f 24 5a
        E 181 82 45 64
        E 0 8a 45 64
        E 0 8f 24 64
        E 1 92 43 64
        E 0 9a 43 64
        E 0 9f 30 5a
        E 180 82 43 64
        E 0 83 40 64
        E 0 8a 43 64
        E 0 8f 30 64
        E 0 92 45 64
        E 0 93 3c 5a
        E 0 9a 45 64
        E 0 9f 29 5a
        E 359 82 45 64
        E 0 83 3c 64
        E 0 8a 45 64
        E 0 8f 29 64
        E 3 92 41 64
        E 0 93 41 5a
        E 0 9a 41 64
        E 1 9f 35 5a
        E 359 82 41 64
        E 0 83 41 64
        E 0 8a 41 64
        E 0 8f 35 64
        E 0 92 45 64
        E 0 93 45 5a
        E 0 9a 45 64
        E 0 9f 39 5a
        E 356 82 45 64
        E 0 83 45 64
        E 0 8a 45 64
        E 0 8f 39 64
        E 0 92 46 66
        E 0 93 46 5b
        E 0 9a 46 66
        E 0 9f 3a 5b
        E 363 82 46 66
        E 0 83 46 66
        E 1 8a 46 66
        E 0 8f 3a 66
        E 0 92 43 64
        E 0 93 43 5a
        E 0 9a 43 64
        E 0 9f 37 5a
        E 356 82 43 64
        E 0 83 43 64
        E 0 8a 43 64
        E 0 8f 37 64
        E 0 92 48 64
        E 0 93 48 5a
        E 0 9a 48 64
        E 0 9f 3c 5a
        E 362 82 48 64
        E 0 83 48 64
        E 0 8a 48 64
        E 0 8f 3c 64
        E 0 92 41 64
        E 0 93 41 5a
        E 0 9a 41 64
        E 0 9f 29 5a
        E 178 8f 29 64
        E 0 9f 35 5a
        E 180 8f 35 64
        E 1 9f 35 5a
        E 181 8f 35 64
        E 0 9f 35 5a
        E 179 82 41 64
        E 0 83 41 64
        E 0 8a 41 64
        E 0 8f 35 64
        E 0 92 45 64
        E 0 93 45 5a
        E 0 9a 45 64
        E 0 9f 29 5a
        E 181 8f 29 64
        E 0 9f 39 5a
        E 180 82 45 64
        E 0 83 45 64
        E 0 8a 45 64
        E 0 8f 39 64
        E 0 92 46 66
        E 0 93 46 5b
        E 0 9a 46 66
        E 0 9f 3a 5b
        E 361 82 46 66
        E 0 83 46 66
        E 0 8a 46 66
        E 0 8f 3a 66
        E 0 92 43 64
        E 0 93 43 5a
        E 0 9a 43 64
        E 0 9f 37 5a
        E 358 82 43 64
        E 0 83 43 64
        E 0 8a 43 64
        E 0 8f 37 64
        E 0 92 48 64
        E 0 93 48 5a
        E 0 9a 48 64
        E 0 9f 3c 5a
        E 362 82 48 64
        E 0 83 48 64
        E 0 8a 48 64
        E 0 8f 3c 64
        E 0 92 41 64
        E 0 93 45 5a
        E 0 9a 41 64
        E 0 9f 29 5a
        E 176 82 41 64
        E 0 8f 29 64
        E 0 92 43 64
        E 0 9f 35 5a
        E 182 82 43 64
        E 0 83 45 64
        E 0 8f 35 64
        E 0 92 45 64
        E 0 93 41 5a
        E 0 9f 35 5a
        E 182 8f 35 64
        E 0 9f 35 5a
        E 178 82 45 64
        E 1 8a 41 64
        E 0 8f 35 64
        E 0 92 41 64
        E 0 9f 29 5a
        E 178 8f 29 64
        E 0 9f 35 5a
        E 182 82 41 64
        E 0 83 41 64
        E 0 8f 35 64
        E 0 92 43 64
        E 0 93 40 5a
        E 0 9f 24 5a
        E 180 83 40 64
        E 0 8f 24 64
        E 1 93 3e 5a
        E 0 9f 30 5a
        E 179 82 43 64
        E 0 83 3e 64
        E 0 8f 30 64
        E 0 92 4c 64
        E 0 93 3c 5a
        E 0 9f 30 5a
        E 180 8f 30 64
        E 0 9f 30 5a
        E 178 82 4c 64
        E 0 83 3c 64
        E 0 8f 30 64
        E 0 92 4f 64
        E 0 93 3c 5a
        E 0 9f 24 5a
        E 182 8f 24 64
        E 0 9f 30 5a
        E 180 82 4f 64
        E 0 83 3c 64
        E 0 8f 30 64
        E 1 92 43 64
        E 2 93 3c 5a
        E 1 9f 24 5a
        E 175 82 43 64
        E 0 8f 24 64
        E 0 92 45 64
        E 0 9f 30 5a
        E 179 82 45 64
        E 0 83 3c 64
        E 0 8f 30 64
        E 0 92 46 66
        E 0 93 3c 5a
        E 0 9f 30 5a
        E 182 8f 30 64
        E 0 9f 30 5a
        E 180 82 46 66
        E 0 8f 30 64
        E 0 92 43 64
        E 0 9f 24 5a
        E 178 8f 24 64
        E 0 9f 30 5a
        E 181 82 43 64
        E 0 83 3c 64
        E 0 8f 30 64
        E 0 92 45 64
        E 0 93 3c 5a
        E 0 9f 29 5a
        E 182 83 3c 64
        E 0 8f 29 64
        E 1 93 3a 5b
        E 0 9f 35 5a
        E 178 82 45 64
        E 0 83 3a 66
        E 0 8f 35 64
        E 0 92 4d 64
        E 0 93 39 5a
        E 0 9f 35 5a
        E 177 8f 35 64
        E 0 9f 35 5a
        E 181 82 4d 64
        E 0 83 39 64
        E 0 8f 35 64
        E 1 92 51 64
        E 0 93 3c 5a
        E 0 9f 29 5a
        E 180 8f 29 64
        E 0 9f 35 5a
        E 181 82 51 64
        E 0 83 3c 64
        E 0 8f 35 64
        E 0 92 45 64
        E 0 93 3c 5a
        E 0 9f 29 5a
        E 179 82 45 64
        E 1 8f 29 64
        E 0 92 46 66
        E 0 9f 35 5a
        E 180 82 46 66
        E 0 83 3c 64
        E 0 8f 35 64
        E 1 92 48 64
        E 0 93 3c 5a
        E 0 9f 35 5a
        E 177 8f 35 64
        E 0 9f 35 5a
        E 182 82 48 64
        E 0 8f 35 64
        E 0 92 45 64
        E 0 9f 29 5a
        E 178 8f 29 64
        E 0 9f 35 5a
        E 181 82 45 64
        E 0 83 3c 64
        E 0 8f 35 64
        E 0 92 43 64
        E 0 93 3c 5a
        E 1 9f 24 5a
        E 181 8f 24 64
        E 0 9f 30 5a
        E 180 83 3c 64
        E 0 8f 30 64
        E 0 93 40 5a
        E 0 9f 30 5a
        E 179 8f 30 64
        E 0 9f 30 5a
        E 178 82 43 64
        E 0 8f 30 64
        E 0 92 48 64
        E 1 9f 24 5a
        E 182 8f 24 64
        E 0 9f 30 5a
        E 179 82 48 64
        E 0 83 40 64
        E 0 8f 30 64
        E 0 92 48 64
        E 0 93 40 5a
        E 0 9f 24 5a
        E 178 82 48 64
        E 0 8f 24 64
        E 1 92 4c 64
        E 0 9f 30 5a
        E 180 82 4c 64
        E 0 83 40 64
        E 0 8f 30 64
        E 0 92 4f 64
        E 0 93 40 5a
        E 0 9f 30 5a
        E 179 8f 30 64
        E 1 9f 30 5a
        E 182 82 4f 64
        E 0 8f 30 64
        E 0 92 48 64
        E 1 9f 24 5a
        E 178 8f 24 64
        E 0 9f 30 5a
        E 179 82 48 64
        E 0 83 40 64
        E 0 8f 30 64
        E 0 92 46 66
        E 0 93 40 5a
        E 0 9f 24 5a
        E 181 82 46 66
        E 0 8f 24 64
        E 0 92 4c 64
        E 0 9f 2e 5b
        E 179 82 4c 64
        E 0 83 40 64
        E 0 8f 2e 66
        E 1 92 4f 64
        E 0 93 40 5a
        E 0 9f 2e 5b
        E 179 8f 2e 66
        E 0 9f 2e 5b
        E 180 82 4f 64
        E 0 8f 2e 66
        E 0 92 46 66
        E 0 9f 24 5a
        E 180 8f 24 64
        E 0 9f 2e 5b
        E 181 82 46 66
        E 0 83 40 64
        E 0 8f 2e 66
        E 1 92 45 64
        E 0 93 41 5a
        E 0 9f 24 5a
        E 179 82 45 64
        E 0 8f 24 64
        E 0 92 48 64
        E 0 9f 2d 5a
        E 181 82 48 64
        E 0 83 41 64
        E 0 8f 2d 64
        E 0 92 4d 64
        E 1 93 41 5a
        E 0 9f 2d 5a
        E 178 8f 2d 64
        E 0 9f 2d 5a
        E 181 82 4d 64
        E 0 8f 2d 64
        E 0 92 45 64
        E 1 9f 24 5a
        E 177 8f 24 64
        E 1 9f 2d 5a
        E 178 82 45 64
        E 0 83 41 64
        E 0 8f 2d 64
        E 0 92 46 66
        E 0 93 46 5b
        E 0 9f 2e 5b
        E 363 82 46 66
        E 0 83 46 66
        E 0 8f 2e 66
        E 0 92 43 64
        E 0 93 43 5a
        E 0 9f 2b 5a
        E 358 82 43 64
        E 0 83 43 64
        E 0 8f 2b 64
        E 0 92 48 64
        E 0 93 48 5a
        E 0 9f 30 5a
        E 361 82 48 64
        E 0 83 48 64
        E 0 8f 30 64
        E 0 92 41 64
        E 0 93 41 5a
        E 1 9f 29 5a
        E 1080 82 41 64
        E 0 83 41 64
        E 0 8f 29 64
        E 0 93 3e 5a
        E 0 9a 3e 64
        E 359 83 3e 64
        E 0 8a 3e 64
        E 0 92 41 64
        E 0 93 3e 5a
        E 0 9a 3e 64
        E 180 82 41 64
        E 0 92 43 64
        E 180 82 43 64
        E 0 83 3e 64
        E 0 8a 3e 64
        E 0 92 41 64
        E 0 93 3e 5a
        E 1 9a 41 64
        E 180 82 41 64
        E 0 92 43 64
        E 178 82 43 64
        E 0 83 3e 64
        E 0 8a 41 64
        E 0 92 41 64
        E 0 93 3e 5a
        E 0 9a 45 64
        E 181 82 41 64
        E 0 92 43 64
        E 180 82 43 64
        E 0 83 3e 64
        E 0 8a 45 64
        E 0 92 45 64
        E 0 93 3e 5a
        E 0 9a 4a 64
        E 180 82 45 64
        E 0 92 46 66
        E 181 82 46 66
        E 0 83 3e 64
        E 0 8a 4a 64
        E 0 92 45 64
        E 1 93 3e 5a
        E 0 9a 3e 64
        E 176 82 45 64
        E 1 92 46 66
        E 181 82 46 66
        E 0 83 3e 64
        E 0 8a 3e 64
        E 0 92 45 64
        E 1 93 3e 5a
        E 0 9a 3e 64
        E 180 82 45 64
        E 0 92 43 64
        E 178 82 43 64
        E 1 83 3e 64
        E 0 8a 3e 64
        E 0 92 41 64
        E 0 93 3e 5a
        E 0 9a 3e 64
        E 177 82 41 64
        E 2 92 43 64
        E 180 82 43 64
        E 0 83 3e 64
        E 0 8a 3e 64
        E 0 92 41 64
        E 0 93 3e 5a
        E 0 9a 41 64
        E 180 82 41 64
        E 1 92 43 64
        E 180 82 43 64
        E 0 83 3e 64
        E 0 8a 41 64
        E 0 92 41 64
        E 0 93 3e 5a
        E 1 9a 45 64
        E 177 82 41 64
        E 0 92 43 64
        E 180 82 43 64
        E 0 83 3e 64
        E 0 8a 45 64
        E 0 92 45 64
        E 0 93 3e 5a
        E 0 9a 4a 64
        E 181 82 45 64
        E 1 92 46 66
        E 180 82 46 66
        E 0 83 3e 64
        E 0 8a 4a 64
        E 0 92 45 64
        E 0 93 3e 5a
        E 0 9a 3e 64
        E 180 82 45 64
        E 0 92 46 66
        E 178 82 46 66
        E 0 83 3e 64
        E 0 8a 3e 64
        E 0 92 45 64
        E 0 93 3e 5a
        E 1 9a 45 64
        E 0 9f 39 5a
        E 179 82 45 64
        E 0 92 43 64
        E 181 82 43 64
        E 1 83 3e 64
        E 0 8a 45 64
        E 0 8f 39 64
        E 0 92 41 64
        E 0 93 4a 5a
        E 0 9a 4a 64
        E 0 9f 3e 5a
        E 179 83 4a 64
        E 0 8a 4a 64
        E 0 8f 3e 64
        E 0 93 48 5a
        E 1 9a 48 64
        E 0 9f 3c 5a
        E 179 83 48 64
        E 0 8a 48 64
        E 0 8f 3c 64
        E 0 93 46 5b
        E 0 9a 46 66
        E 0 9f 3a 5b
        E 180 83 46 66
        E 0 8a 46 66
        E 0 8f 3a 66
        E 0 93 45 5a
        E 1 9a 45 64
        E 0 9f 39 5a
        E 180 82 41 64
        E 0 83 45 64
        E 0 8a 45 64
        E 0 8f 39 64
        E 0 93 43 5a
        E 0 9a 43 64
        E 0 9f 37 5a
        E 179 83 43 64
        E 0 8a 43 64
        E 0 8f 37 64
        E 0 93 41 5a
        E 0 9a 41 64
        E 0 9f 35 5a
        E 180 83 41 64
        E 0 8a 41 64
        E 0 8f 35 64
        E 0 92 46 66
        E 0 93 43 5a
        E 0 9a 43 64
        E 0 9f 37 5a
        E 179 82 46 66
        E 0 92 48 64
        E 182 82 48 64
        E 0 83 43 64
        E 0 8a 43 64
        E 0 8f 37 64
        E 0 92 4a 64
        E 0 93 40 5a
        E 0 9a 40 64
        E 0 9f 34 5a
        E 178 82 4a 64
        E 1 92 4c 64
        E 179 82 4c 64
        E 0 83 40 64
        E 0 8a 40 64
        E 0 8f 34 64
        E 0 92 4d 64
        E 0 93 3c 5a
        E 0 9a 40 64
        E 0 9f 30 5a
        E 182 82 4d 64
        E 0 92 4f 64
        E 182 82 4f 64
        E 0 83 3c 64
        E 0 8a 40 64
        E 0 8f 30 64
        E 0 92 4f 64
        E 0 93 48 5a
        E 0 9a 48 64
        E 0 9f 3c 5a
        E 176 83 48 64
        E 0 8a 48 64
        E 0 8f 3c 64
        E 0 93 46 5b
        E 0 9a 46 66
        E 1 9f 3a 5b
        E 180 83 46 66
        E 0 8a 46 66
        E 0 8f 3a 66
        E 0 93 45 5a
        E 0 9a 45 64
        E 0 9f 39 5a
        E 182 83 45 64
        E 0 8a 45 64
        E 0 8f 39 64
        E 0 93 43 5a
        E 0 9a 43 64
        E 0 9f 37 5a
        E 179 82 4f 64
        E 0 83 43 64
        E 0 8a 43 64
        E 0 8f 37 64
        E 0 93 41 5a
        E 0 9a 41 64
        E 0 9f 35 5a
        E 177 83 41 64
        E 1 8a 41 64
        E 0 8f 35 64
        E 0 93 40 5a
        E 1 9a 40 64
        E 0 9f 34 5a
        E 180 83 40 64
        E 0 8a 40 64
        E 0 8f 34 64
        E 0 92 45 64
        E 0 93 41 5a
        E 0 9a 41 64
        E 0 9f 35 5a
        E 181 82 45 64
        E 1 92 46 66
        E 179 82 46 66
        E 0 83 41 64
        E 0 8a 41 64
        E 0 8f 35 64
        E 1 92 48 64
        E 0 93 3e 5a
        E 0 9a 3e 64
        E 0 9f 32 5a
        E 179 82 48 64
        E 0 92 4a 64
        E 179 82 4a 64
        E 0 83 3e 64
        E 0 8a 3e 64
        E 0 8f 32 64
        E 0 92 4c 64
        E 0 93 3a 5b
        E 0 9a 3e 64
        E 0 9f 2e 5b
        E 179 82 4c 64
        E 1 92 4d 64
        E 182 82 4d 64
        E 0 83 3a 66
        E 0 8a 3e 64
        E 0 8f 2e 66
        E 0 92 4d 64
        E 0 93 46 5b
        E 0 9a 46 66
        E 0 9f 3a 5b
        E 180 83 46 66
        E 0 8a 46 66
        E 0 8f 3a 66
        E 1 93 45 5a
        E 0 9a 45 64
        E 0 9f 39 5a
        E 177 83 45 64
        E 0 8a 45 64
        E 0 8f 39 64
        E 0 93 43 5a
        E 0 9a 43 64
        E 0 9f 37 5a
        E 181 83 43 64
        E 0 8a 43 64
        E 0 8f 37 64
        E 0 93 41 5a
        E 0 9a 41 64
        E 0 9f 35 5a
        E 189 82 4d 64
        E 0 83 41 64
        E 0 8a 41 64
        E 0 8f 35 64
        E 0 93 40 5a
        E 0 9a 40 64
        E 1 9f 34 5a
        E 168 83 40 64
        E 0 8a 40 64
        E 0 8f 34 64
        E 1 93 3e 5a
        E 0 9a 3e 64
        E 1 9f 32 5a
        E 181 83 3e 64
        E 0 8a 3e 64
        E 0 8f 32 64
        E 0 92 43 64
        E 4 93 3d 5a
        E 0 9a 3d 64
        E 0 9f 31 5a
        E 176 82 43 64
        E 0 92 45 64
        E 182 82 45 64
        E 1 83 3d 64
        E 0 8a 3d 64
        E 0 8f 31 64
        E 0 92 47 64
        E 0 93 39 5a
        E 0 9a 39 64
        E 0 9f 2d 5a
        E 176 82 47 64
        E 0 92 49 64
        E 179 82 49 64
        E 0 83 39 64
        E 0 8a 39 64
        E 0 8f 2d 64
        E 0 92 4a 64
        E 0 93 45 5a
        E 0 9a 45 64
        E 0 9f 39 5a
        E 182 82 4a 64
        E 0 92 4c 64
        E 180 82 4c 64
        E 0 83 45 64
        E 0 8a 45 64
        E 0 8f 39 64
        E 0 92 4d 64
        E 0 93 4a 5a
        E 0 9a 4a 64
        E 0 9f 3e 5a
        E 359 82 4d 64
        E 0 83 4a 64
        E 0 8a 4a 64
        E 0 8f 3e 64
        E 1 92 43 64
        E 0 93 43 5a
        E 0 9a 43 64
        E 0 9f 37 5a
        E 359 82 43 64
        E 0 83 43 64
        E 0 8a 43 64
        E 0 8f 37 64
        E 0 92 45 64
        E 0 93 45 5a
        E 0 9a 45 64
        E 0 9f 39 5a
        E 359 82 45 64
        E 0 83 45 64
        E 0 8a 45 64
        E 0 8f 39 64
        E 2 92 3e 64
        E 0 93 3e 5a
        E 0 9a 3e 64
        E 0 9f 32 5a
        E 180 82 3e 64
        E 0 83 3e 64
        E 0 8f 32 64
        E 0 92 3d 64
        E 0 93 3d 5a
        E 1 9f 31 5a
        E 178 82 3d 64
        E 0 83 3d 64
        E 0 8f 31 64
        E 1 92 3e 64
        E 1 93 3e 5a
        E 0 9f 32 5a
        E 176 82 3e 64
        E 0 83 3e 64
        E 0 8f 32 64
        E 0 92 40 64
        E 0 93 40 5a
        E 0 9f 34 5a
        E 184 82 40 64
        E 0 83 40 64
        E 0 8a 3e 64
        E 0 8f 34 64
        E 0 92 41 64
        E 0 93 41 5a
        E 0 9a 45 64
        E 0 9f 35 5a
        E 179 82 41 64
        E 0 83 41 64
        E 0 8f 35 64
        E 0 92 3e 64
        E 0 93 3e 5a
        E 0 9f 32 5a
        E 181 82 3e 64
        E 0 83 3e 64
        E 0 8a 45 64
        E 0 8f 32 64
        E 0 92 4a 64
        E 2 93 4a 5a
        E 1 9a 4a 64
        E 0 9f 3e 5a
        E 172 82 4a 64
        E 1 83 4a 64
        E 0 8a 4a 64
        E 0 8f 3e 64
        E 0 92 48 64
        E 1 93 48 5a
        E 0 9a 48 64
        E 0 9f 3c 5a
        E 180 82 48 64
        E 0 83 48 64
        E 0 8a 48 64
        E 0 8f 3c 64
        E 0 92 47 64
        E 1 93 47 5a
        E 0 9a 47 64
        E 0 9f 3b 5a
        E 181 82 47 64
        E 0 83 47 64
        E 0 8a 47 64
        E 0 8f 3b 64
        E 0 92 45 64
        E 0 93 45 5a
        E 0 9a 45 64
        E 0 9f 39 5a
        E 179 82 45 64
        E 0 83 45 64
        E 0 8a 45 64
        E 0 8f 39 64
        E 0 92 44 64
        E 0 93 44 5a
        E 0 9a 44 64
        E 0 9f 38 5a
        E 177 82 44 64
        E 0 83 44 64
        E 0 8a 44 64
        E 0 8f 38 64
        E 0 92 42 64
        E 1 93 42 5a
        E 0 9a 42 64
        E 0 9f 36 5a
        E 182 82 42 64
        E 0 83 42 64
        E 1 8a 42 64
        E 0 8f 36 64
        E 5 92 40 64
        E 0 93 40 5a
        E 0 9a 40 64
        E 0 9f 34 5a
        E 175 82 40 64
        E 0 83 40 64
        E 0 8a 40 64
        E 0 8f 34 64
        E 0 92 3e 64
        E 0 93 3e 5a
        E 0 9a 3e 64
        E 0 9f 32 5a
        E 179 82 3e 64
        E 0 83 3e 64
        E 0 8a 3e 64
        E 0 8f 32 64
        E 0 92 40 64
        E 1 93 40 5a
        E 0 9a 40 64
        E 0 9f 34 5a
        E 179 82 40 64
        E 0 83 40 64
        E 0 8a 40 64
        E 0 8f 34 64
        E 1 92 42 64
        E 0 93 42 5a
        E 0 9a 42 64
        E 0 9f 36 5a
        E 178 82 42 64
        E 0 83 42 64
        E 0 8a 42 64
        E 0 8f 36 64
        E 0 92 44 64
        E 0 93 44 5a
        E 0 9a 44 64
        E 0 9f 38 5a
        E 179 82 44 64
        E 0 83 44 64
        E 0 8a 44 64
        E 0 8f 38 64
        E 0 92 40 64
        E 0 93 40 5a
        E 1 9a 40 64
        E 0 9f 34 5a
        E 182 82 40 64
        E 0 83 40 64
        E 0 8a 40 64
        E 0 8f 34 64
        E 1 92 45 64
        E 0 93 45 5a
        E 0 9a 45 64
        E 0 9f 39 5a
        E 357 82 45 64
        E 0 83 45 64
        E 0 8a 45 64
        E 0 8f 39 64
        E 1 92 39 64
        E 0 93 39 5a
        E 0 9a 39 64
        E 0 9f 2d 5a
        E 363 82 39 64
        E 0 83 39 64
        E 0 8a 39 64
        E 0 8f 2d 64
        E 0 92 3c 64
        E 2 93 3c 5a
        E 0 9a 3c 64
        E 0 9f 30 5a
        E 360 82 3c 64
        E 0 83 3c 64
        E 0 8a 3c 64
        E 0 8f 30 64
        E 0 92 3e 64
        E 0 93 3e 5a
        E 0 9a 3e 64
        E 0 9f 32 5a
        E 355 82 3e 64
        E 0 83 3e 64
        E 0 8a 3e 64
        E 0 8f 32 64
        E 0 92 40 64
        E 0 93 40 5a
        E 0 9a 40 64
        E 0 9f 34 5a
        E 540 82 40 64
        E 0 83 40 64
        E 0 8a 40 64
        E 0 8f 34 64
        E 1 92 40 64
        E 0 93 40 5a
        E 0 9a 40 64
        E 0 9f 34 5a
        E 222 82 40 64
        E 0 83 40 64
        E 0 8a 40 64
        E 0 8f 34 64
        E 0 92 39 64
        E 0 93 39 5a
        E 0 9a 39 64
        E 0 9f 2d 5a
        E 1576 82 39 64
        E 0 83 39 64
        E 0 8a 39 64
        E 0 8f 2d 64
        E 0 95 40 64
        E 0 9e 40 64
        E 0 9f 2d 5a
        E 361 85 40 64
        E 0 8e 40 64
        E 0 95 40 64
        E 0 9e 40 64
        E 359 85 40 64
        E 0 8e 40 64
        E 0 95 45 64
        E 0 9e 45 64
        E 361 85 45 64
        E 0 8e 45 64
        E 0 95 45 64
        E 0 9e 45 64
        E 180 85 45 64
        E 0 8e 45 64
        E 0 95 47 64
        E 0 9e 47 64
        E 181 85 47 64
        E 1 8e 47 64
        E 12 95 48 64
        E 0 9e 48 64
        E 344 85 48 64
        E 0 8e 48 64
        E 0 95 48 64
        E 0 9e 48 64
        E 361 85 48 64
        E 0 8e 48 64
        E 359 95 48 64
        E 1 9e 48 64
        E 182 85 48 64
        E 1 8e 48 64
        E 0 95 48 64
        E 1 9e 48 64
        E 177 85 48 64
        E 0 8e 48 64
        E 0 8f 2d 64
        E 0 95 45 64
        E 0 9e 45 64
        E 0 9f 2d 5a
        E 720 85 45 64
        E 0 8e 45 64
        E 0 95 45 64
        E 0 9e 45 64
        E 359 85 45 64
        E 0 8e 45 64
        E 1 95 44 64
        E 0 9e 44 64
        E 359 85 44 64
        E 0 8e 44 64
        E 0 8f 2d 64
        E 1 95 47 64
        E 0 9e 47 64
        E 0 9f 34 5a
        E 718 85 47 64
        E 1 8e 47 64
        E 721 8f 34 64
        E 0 95 44 64
        E 0 9e 44 64
        E 0 9f 34 5a
        E 718 85 44 64
        E 0 8e 44 64
        E 0 95 44 64
        E 0 9e 44 64
        E 362 85 44 64
        E 0 8e 44 64
        E 0 95 49 64
        E 0 9e 49 64
        E 359 85 49 64
        E 0 8e 49 64
        E 0 95 46 64
        E 0 9e 46 64
        E 361 85 46 64
        E 0 8e 46 64
        E 0 95 46 64
        E 0 9e 46 64
        E 358 85 46 64
        E 0 8e 46 64
        E 720 8f 34 64
        E 0 95 42 64
        E 0 9e 42 64
        E 0 9f 34 5a
        E 361 85 42 64
        E 0 8e 42 64
        E 0 95 42 64
        E 1 9e 42 64
        E 360 85 42 64
        E 0 8e 42 64
        E 0 95 42 64
        E 0 9e 42 64
        E 360 85 42 64
        E 0 8e 42 64
        E 1 95 42 64
        E 0 9e 42 64
        E 179 85 42 64
        E 0 8e 42 64
        E 0 95 42 64
        E 0 9e 42 64
        E 179 85 42 64
        E 0 8e 42 64
        E 0 8f 34 64
        E 0 95 47 64
        E 0 9e 47 64
        E 0 9f 32 5a
        E 361 85 47 64
        E 0 8e 47 64
        E 0 95 47 64
        E 0 9e 47 64
        E 358 85 47 64
        E 3 8e 47 64
        E 0 95 47 64
        E 0 9e 47 64
        E 361 85 47 64
        E 0 8e 47 64
        E 7 95 42 64
        E 1 9e 42 64
        E 349 85 42 64
        E 0 8e 42 64
        E 0 8f 32 64
        E 0 95 44 64
        E 0 9e 44 64
        E 0 9f 31 5a
        E 359 85 44 64
        E 0 8e 44 64
        E 1 95 44 64
        E 0 9e 44 64
        E 358 85 44 64
        E 0 8e 44 64
        E 724 95 49 64
        E 0 9e 49 64
        E 359 85 49 64
        E 0 8e 49 64
        E 0 95 49 64
        E 0 9e 49 64
        E 359 85 49 64
        E 0 8e 49 64
        E 0 95 44 64
        E 0 9e 44 64
        E 362 85 44 64
        E 0 8e 44 64
        E 0 95 44 64
        E 0 9e 44 64
        E 181 85 44 64
        E 0 8e 44 64
        E 0 95 44 64
        E 0 9e 44 64
        E 177 85 44 64
        E 0 8e 44 64
        E 0 8f 31 64
        E 0 95 41 63
        E 0 9e 41 63
        E 0 9f 2f 5a
        E 361 85 41 63
        E 0 8e 41 63
        E 0 95 41 63
        E 0 9e 41 63
        E 359 85 41 63
        E 0 8e 41 63
        E 719 95 44 64
        E 0 9e 44 64
        E 360 85 44 64
        E 0 8e 44 64
        E 0 95 45 64
        E 0 9e 45 64
        E 360 85 45 64
        E 0 8e 45 64
        E 0 95 47 64
        E 1 9e 47 64
        E 359 85 47 64
        E 0 8e 47 64
        E 0 95 47 64
        E 1 9e 47 64
        E 180 85 47 64
        E 1 8e 47 64
        E 0 95 45 64
        E 0 9e 45 64
        E 179 85 45 64
        E 0 8e 45 64
        E 0 8f 2f 64
        E 0 95 42 64
        E 0 9e 42 64
        E 0 9f 2d 5a
        E 360 85 42 64
        E 0 8e 42 64
        E 0 95 42 64
        E 0 9e 42 64
        E 361 85 42 64
        E 0 8e 42 64
        E 720 95 49 64
        E 0 9e 49 64
        E 718 85 49 64
        E 0 8e 49 64
        E 0 95 49 64
        E 0 9e 49 64
        E 363 85 49 64
        E 0 8e 49 64
        E 0 95 49 64
        E 0 9e 49 64
        E 359 85 49 64
        E 0 8e 49 64
        E 0 8f 2d 64
        E 0 95 45 64
        E 0 9e 45 64
        E 0 9f 31 5a
        E 361 85 45 64
        E 0 8e 45 64
        E 0 95 45 64
        E 0 9e 45 64
        E 357 85 45 64
        E 0 8e 45 64
        E 361 95 40 64
        E 0 9e 40 64
        E 359 85 40 64
        E 0 8e 40 64
        E 0 95 43 64
        E 0 9e 43 64
        E 362 85 43 64
        E 0 8e 43 64
        E 0 95 43 64
        E 0 9e 43 64
        E 358 85 43 64
        E 0 8e 43 64
        E 0 95 43 64
        E 0 9e 43 64
        E 362 85 43 64
        E 0 8e 43 64
        E 0 95 42 64
        E 0 9e 42 64
        E 359 85 42 64
        E 0 8e 42 64
        E 0 8f 31 64
        E 0 95 3e 64
        E 0 9e 3e 64
        E 0 9f 32 5a
        E 360 85 3e 64
        E 0 8e 3e 64
        E 0 95 3e 64
        E 0 9e 3e 64
        E 361 85 3e 64
        E 0 8e 3e 64
        E 180 95 42 64
        E 1 9e 42 64
        E 177 85 42 64
        E 0 8e 42 64
        E 0 95 42 64
        E 0 9e 42 64
        E 182 85 42 64
        E 0 8e 42 64
        E 1 95 43 64
        E 0 9e 43 64
        E 178 85 43 64
        E 0 8e 43 64
        E 0 95 45 64
        E 0 9e 45 64
        E 361 85 45 64
        E 0 8e 45 64
        E 0 95 45 64
        E 0 9e 45 64
        E 358 85 45 64
        E 0 8e 45 64
        E 362 95 45 64
        E 0 9e 45 64
        E 357 85 45 64
        E 0 8e 45 64
        E 0 8f 32 64
        E 0 95 42 64
        E 0 9e 42 64
        E 0 9f 32 5a
        E 721 85 42 64
        E 0 8e 42 64
        E 362 95 45 64
        E 0 9e 45 64
        E 359 85 45 64
        E 0 8e 45 64
        E 0 95 3e 64
        E 0 9e 3e 64
        E 360 85 3e 64
        E 0 8e 3e 64
        E 1 95 3e 64
        E 0 9e 3e 64
        E 358 85 3e 64
        E 0 8e 3e 64
        E 0 95 48 64
        E 1 9e 48 64
        E 360 85 48 64
        E 0 8e 48 64
        E 0 95 48 64
        E 0 9e 48 64
        E 181 85 48 64
        E 1 8e 48 64
        E 0 95 47 64
        E 0 9e 47 64
        E 179 85 47 64
        E 0 8e 47 64
        E 0 8f 32 64
        E 0 95 43 64
        E 0 9e 43 64
        E 0 9f 2b 5a
        E 360 85 43 64
        E 0 8e 43 64
        E 0 95 43 64
        E 0 9e 43 64
        E 360 85 43 64
        E 0 8e 43 64
        E 179 95 43 64
        E 0 9e 43 64
        E 180 85 43 64
        E 0 8e 43 64
        E 0 95 43 64
        E 1 9e 43 64
        E 180 85 43 64
        E 0 8e 43 64
        E 0 95 45 64
        E 0 9e 45 64
        E 179 85 45 64
        E 0 8e 45 64
        E 0 95 47 64
        E 0 9e 47 64
        E 362 85 47 64
        E 0 8e 47 64
        E 0 95 47 64
        E 1 9e 47 64
        E 356 85 47 64
        E 0 8e 47 64
        E 180 95 47 64
        E 1 9e 47 64
        E 180 85 47 64
        E 0 8e 47 64
        E 0 95 48 64
        E 0 9e 48 64
        E 181 85 48 64
        E 0 8e 48 64
        E 0 95 4a 64
        E 0 9e 4a 64
        E 178 85 4a 64
        E 0 8e 4a 64
        E 0 8f 2b 64
        E 0 95 43 64
        E 0 9e 43 64
        E 0 9f 2b 5a
        E 362 85 43 64
        E 0 8e 43 64
        E 0 95 43 64
        E 0 9e 43 64
        E 360 85 43 64
        E 0 8e 43 64
        E 179 95 43 64
        E 0 9e 43 64
        E 181 85 43 64
        E 0 8e 43 64
        E 0 95 43 64
        E 0 9e 43 64
        E 180 85 43 64
        E 0 8e 43 64
        E 0 95 45 64
        E 0 9e 45 64
        E 180 85 45 64
        E 0 8e 45 64
        E 0 95 41 64
        E 0 9e 41 64
        E 718 85 41 64
        E 0 8e 41 64
        E 0 95 47 64
        E 0 9e 47 64
        E 363 85 47 64
        E 0 8e 47 64
        E 0 95 47 64
        E 0 9e 47 64
        E 179 85 47 64
        E 0 8e 47 64
        E 1 95 48 64
        E 1 9e 48 64
        E 178 85 48 64
        E 0 8e 48 64
        E 0 8f 2b 64
        E 0 95 43 64
        E 0 9e 43 64
        E 1 9f 2b 5a
        E 359 85 43 64
        E 0 8e 43 64
        E 0 95 43 64
        E 0 9e 43 64
        E 359 85 43 64
        E 0 8e 43 64
        E 359 95 43 64
        E 0 9e 43 64
        E 362 85 43 64
        E 0 8e 43 64
        E 0 95 47 64
        E 0 9e 47 64
        E 360 85 47 64
        E 0 8e 47 64
        E 0 95 47 64
        E 0 9e 47 64
        E 358 85 47 64
        E 0 8e 47 64
        E 182 95 47 64
        E 1 9e 47 64
        E 180 85 47 64
        E 0 8e 47 64
        E 0 95 47 64
        E 0 9e 47 64
        E 178 85 47 64
        E 0 8e 47 64
        E 0 95 48 64
        E 0 9e 48 64
        E 179 85 48 64
        E 0 8e 48 64
        E 0 8f 2b 64
        E 0 95 45 64
        E 0 9e 45 64
        E 0 9f 33 5a
        E 719 85 45 64
        E 0 8e 45 64
        E 181 95 45 64
        E 0 9e 45 64
        E 180 85 45 64
        E 0 8e 45 64
        E 0 95 45 64
        E 1 9e 45 64
        E 180 85 45 64
        E 0 8e 45 64
        E 0 95 43 64
        E 0 9e 43 64
        E 180 85 43 64
        E 0 8e 43 64
        E 0 8f 33 64
        E 0 95 40 64
        E 0 9e 40 64
        E 0 9f 34 5a
        E 718 85 40 64
        E 1 8e 40 64
        E 362 95 47 64
        E 0 9e 47 64
        E 359 85 47 64
        E 1 8e 47 64
        E 0 8f 34 64
        E 0 95 43 64
        E 0 9e 43 64
        E 0 9f 34 5a
        E 359 85 43 64
        E 0 8e 43 64
        E 0 95 43 64
        E 0 9e 43 64
        E 361 85 43 64
        E 0 8e 43 64
        E 718 95 43 64
        E 0 9e 43 64
        E 362 85 43 64
        E 0 8e 43 64
        E 0 95 43 64
        E 0 9e 43 64
        E 180 85 43 64
        E 0 8e 43 64
        E 0 95 43 64
        E 0 9e 43 64
        E 181 85 43 64
        E 1 8e 43 64
        E 0 95 43 64
        E 0 9e 43 64
        E 357 85 43 64
        E 0 8e 43 64
        E 0 95 42 64
        E 0 9e 42 64
        E 359 85 42 64
        E 0 8e 42 64
        E 0 8f 34 64
        E 0 95 42 64
        E 0 9e 42 64
        E 0 9f 2e 5a
        E 361 85 42 64
        E 1 8e 42 64
        E 0 95 42 64
        E 0 9e 42 64
        E 359 85 42 64
        E 0 8e 42 64
        E 0 95 42 64
        E 0 9e 42 64
        E 362 85 42 64
        E 0 8e 42 64
        E 0 95 42 64
        E 0 9e 42 64
        E 179 85 42 64
        E 0 8e 42 64
        E 0 95 43 64
        E 0 9e 43 64
        E 178 85 43 64
        E 0 8e 43 64
        E 0 95 40 64
        E 0 9e 40 64
        E 720 85 40 64
        E 0 8e 40 64
        E 721 8f 2e 64
        E 0 95 46 64
        E 0 9e 46 64
        E 0 9f 2e 5a
        E 362 85 46 64
        E 0 8e 46 64
        E 0 95 46 64
        E 1 9e 46 64
        E 179 85 46 64
        E 0 8e 46 64
        E 0 95 46 64
        E 0 9e 46 64
        E 179 85 46 64
        E 0 8e 46 64
        E 0 95 46 64
        E 0 9e 46 64
        E 359 85 46 64
        E 0 8e 46 64
        E 0 95 47 64
        E 1 9e 47 64
        E 358 85 47 64
        E 0 8e 47 64
        E 0 8f 2e 64
        E 0 95 42 64
        E 0 9e 42 64
        E 0 9f 32 5a
        E 363 85 42 64
        E 0 8e 42 64
        E 0 95 42 64
        E 0 9e 42 64
        E 357 85 42 64
        E 0 8e 42 64
        E 363 95 4a 64
        E 0 9e 4a 64
        E 357 85 4a 64
        E 0 8e 4a 64
        E 0 8f 32 64
        E 0 95 47 64
        E 0 9e 47 64
        E 0 9f 32 5a
        E 363 85 47 64
        E 0 8e 47 64
        E 0 95 47 64
        E 0 9e 47 64
        E 357 85 47 64
        E 0 8e 47 64
        E 0 95 45 64
        E 0 9e 45 64
        E 362 85 45 64
        E 0 8e 45 64
        E 0 95 47 64
        E 0 9e 47 64
        E 358 85 47 64
        E 0 8e 47 64
        E 0 8f 32 64
        E 0 95 43 64
        E 0 9e 43 64
        E 0 9f 34 5a
        E 721 85 43 64
        E 0 8e 43 64
        E 180 95 47 64
        E 0 9e 47 64
        E 182 85 47 64
        E 0 8e 47 64
        E 0 95 46 64
        E 0 9e 46 64
        E 178 85 46 64
        E 0 8e 46 64
        E 0 95 47 64
        E 0 9e 47 64
        E 181 85 47 64
        E 0 8e 47 64
        E 0 8f 34 64
        E 0 95 42 64
        E 0 9e 42 64
        E 1 9f 36 5a
        E 358 85 42 64
        E 0 8e 42 64
        E 0 95 42 64
        E 0 9e 42 64
        E 359 85 42 64
        E 0 8e 42 64
        E 720 8f 36 64
        E 1 9f 2f 5a
        E 2161 8f 2f 64
        E 0 92 47 64
        E 0 93 43 5a
        E 0 9f 28 5a
        E 478 83 43 64
        E 0 8f 28 64
        E 0 93 43 5a
        E 0 9f 34 5a
        E 482 82 47 64
        E 0 83 43 64
        E 0 8f 34 64
        E 0 92 4a 64
        E 0 92 48 64
        E 1 93 40 5a
        E 0 9f 2d 5a
        E 478 82 4a 64
        E 0 82 48 64
        E 0 83 40 64
        E 0 8f 2d 64
        E 0 92 47 64
        E 0 93 3f 5a
        E 1 9f 2f 5a
        E 237 82 47 64
        E 1 92 45 64
        E 241 82 45 64
        E 0 83 3f 64
        E 1 8f 2f 64
        E 0 92 47 64
        E 0 93 43 5a
        E 0 9f 28 5a
        E 478 83 43 64
        E 0 8f 28 64
        E 0 93 43 5a
        E 0 9f 34 5a
        E 480 82 47 64
        E 0 83 43 64
        E 0 8f 34 64
        E 0 92 4a 64
        E 0 92 48 64
        E 1 93 40 5a
        E 0 9f 2d 5a
        E 480 82 4a 64
        E 0 82 48 64
        E 0 83 40 64
        E 0 8f 2d 64
        E 0 92 47 64
        E 0 93 3f 5a
        E 0 9f 2f 5a
        E 238 82 47 64
        E 1 92 45 64
        E 242 82 45 64
        E 0 83 3f 64
        E 0 8f 2f 64
        E 0 92 47 64
        E 0 93 43 5a
        E 0 9f 34 5a
        E 477 82 47 64
        E 0 83 43 64
        E 0 8f 34 64
        E 1 92 53 64
        E 0 93 43 5a
        E 1 9f 37 5a
        E 479 82 53 64
        E 0 83 43 64
        E 0 8f 37 64
        E 0 92 51 64
        E 0 93 45 5a
        E 1 9f 36 5a
        E 479 82 51 64
        E 0 83 45 64
        E 0 8f 36 64
        E 0 92 4f 64
        E 1 93 47 5a
        E 0 9f 34 5a
        E 480 82 4f 64
        E 0 83 47 64
        E 0 8f 34 64
        E 0 92 4e 64
        E 0 93 3f 5a
        E 0 9f 2f 5a
        E 480 83 3f 64
        E 0 8f 2f 64
        E 1 93 3f 5a
        E 0 9f 3b 5a
        E 479 82 4e 64
        E 2 83 3f 64
        E 0 8f 3b 64
        E 3 92 51 64
        E 0 92 4f 64
        E 0 93 3b 5a
        E 0 9f 34 5a
        E 474 82 51 64
        E 1 82 4f 64
        E 0 83 3b 64
        E 0 8f 34 64
        E 1 92 4e 64
        E 0 93 3b 5a
        E 0 9f 28 5a
        E 238 82 4e 64
        E 0 92 4c 64
        E 240 82 4c 64
        E 0 83 3b 64
        E 0 8f 28 64
        E 0 92 4e 64
        E 0 93 3f 5a
        E 1 9f 2f 5a
        E 481 83 3f 64
        E 0 8f 2f 64
        E 0 93 3f 5a
        E 0 9f 3b 5a
        E 479 82 4e 64
        E 0 83 3f 64
        E 0 8f 3b 64
        E 0 92 51 64
        E 0 92 4f 64
        E 0 93 3b 5a
        E 0 9f 34 5a
        E 481 82 51 64
        E 0 82 4f 64
        E 0 83 3b 64
        E 0 8f 34 64
        E 0 92 4e 64
        E 0 93 3d 5a
        E 0 9f 2e 5a
        E 238 82 4e 64
        E 0 92 4c 64
        E 241 82 4c 64
        E 0 83 3d 64
        E 0 8f 2e 64
        E 0 92 4b 64
        E 1 93 36 5a
        E 0 9f 2f 5a
        E 238 82 4b 64
        E 0 92 49 64
        E 240 82 49 64
        E 0 8f 2f 64
        E 0 92 47 64
        E 0 9f 3b 5a
        E 480 82 47 64
        E 1 83 36 64
        E 0 8f 3b 64
        E 0 9f 39 5a
        E 481 8f 39 64
        E 0 92 47 64
        E 0 93 43 5a
        E 0 9f 37 5a
        E 479 82 47 64
        E 0 83 43 64
        E 0 8f 37 64
        E 0 92 4a 64
        E 0 92 48 64
        E 0 93 42 5a
        E 0 9f 39 5a
        E 479 82 4a 64
        E 0 82 48 64
        E 0 83 42 64
        E 0 8f 39 64
        E 0 92 47 64
        E 0 93 42 5a
        E 0 9f 32 5a
        E 239 82 47 64
        E 0 92 48 64
        E 241 82 48 64
        E 0 83 42 64
        E 0 8f 32 64
        E 0 92 4a 64
        E 0 93 45 5a
        E 0 9f 36 5a
        E 480 82 4a 64
        E 0 83 45 64
        E 0 8f 36 64
        E 0 92 48 64
        E 0 93 42 5a
        E 0 9f 32 5a
        E 481 82 48 64
        E 1 83 42 64
        E 0 8f 32 64
        E 0 92 47 64
        E 0 93 3e 5a
        E 0 9f 37 5a
        E 479 82 47 64
        E 0 8f 37 64
        E 0 92 4e 64
        E 0 9f 36 5a
        E 479 82 4e 64
        E 0 83 3e 64
        E 0 8f 36 64
        E 0 92 4f 64
        E 0 9f 34 5a
        E 482 82 4f 64
        E 0 8f 34 64
        E 0 92 51 64
        E 1 93 42 5a
        E 0 9f 32 5a
        E 478 82 51 64
        E 0 83 42 64
        E 0 8f 32 64
        E 0 92 48 64
        E 0 93 42 5a
        E 0 9f 39 5a
        E 480 82 48 64
        E 0 83 42 64
        E 0 8f 39 64
        E 0 92 47 64
        E 0 93 42 5a
        E 0 9f 32 5a
        E 240 82 47 64
        E 0 92 48 64
        E 240 82 48 64
        E 0 83 42 64
        E 0 8f 32 64
        E 0 92 4a 64
        E 0 93 45 5a
        E 0 9f 36 5a
        E 479 82 4a 64
        E 0 83 45 64
        E 0 8f 36 64
        E 0 92 48 64
        E 0 93 42 5a
        E 0 9f 32 5a
        E 482 82 48 64
        E 0 83 42 64
        E 0 8f 32 64
        E 0 92 47 64
        E 0 93 3e 5a
        E 0 9f 37 5a
        E 479 82 47 64
        E 0 8f 37 64
        E 1 92 4e 64
        E 0 9f 36 5a
        E 480 82 4e 64
        E 0 83 3e 64
        E 0 8f 36 64
        E 0 92 4f 64
        E 0 9f 34 5a
        E 478 82 4f 64
        E 0 8f 34 64
        E 0 92 51 64
        E 0 93 42 5a
        E 1 9f 32 5a
        E 480 82 51 64
        E 0 83 42 64
        E 0 8f 32 64
        E 0 92 4f 64
        E 0 93 3e 5a
        E 0 9f 2b 5a
        E 479 82 4f 64
        E 0 83 3e 64
        E 0 8f 2b 64
        E 1 92 43 64
        E 0 93 3b 5a
        E 0 9f 37 5a
        E 240 82 43 64
        E 0 92 45 64
        E 241 82 45 64
        E 0 83 3b 64
        E 0 8f 37 64
        E 0 92 47 64
        E 0 93 39 5a
        E 0 9f 36 5a
        E 478 82 47 64
        E 0 83 39 64
        E 0 8f 36 64
        E 1 92 48 64
        E 0 93 37 5a
        E 0 9f 34 5a
        E 481 82 48 64
        E 0 83 37 64
        E 0 8f 34 64
        E 0 92 4a 64
        E 0 93 42 5a
        E 0 9f 32 5a
        E 478 83 42 64
        E 0 8f 32 64
        E 0 93 43 5a
        E 0 9f 34 5a
        E 480 83 43 64
        E 0 8f 34 64
        E 0 93 45 5a
        E 0 9f 36 5a
        E 481 83 45 64
        E 0 8f 36 64
        E 0 93 42 5a
        E 0 9f 32 5a
        E 481 82 4a 64
        E 0 83 42 64
        E 0 8f 32 64
        E 0 92 4c 64
        E 0 92 4a 64
        E 1 93 47 5a
        E 0 9f 37 5a
        E 477 82 4c 64
        E 0 82 4a 64
        E 0 83 47 64
        E 0 8f 37 64
        E 1 92 48 64
        E 0 93 43 5a
        E 0 9f 2b 5a
        E 239 82 48 64
        E 0 92 47 64
        E 240 82 47 64
        E 0 83 43 64
        E 0 8f 2b 64
        E 0 92 4a 64
        E 0 92 48 64
        E 0 93 40 5a
        E 0 9f 30 5a
        E 482 82 4a 64
        E 0 82 48 64
        E 0 83 40 64
        E 0 8f 30 64
        E 0 92 47 64
        E 0 93 42 5a
        E 0 9f 32 5a
        E 239 82 47 64
        E 0 92 45 64
        E 238 82 45 64
        E 0 83 42 64
        E 0 8f 32 64
        E 1 92 48 64
        E 0 92 47 64
        E 0 93 3e 5a
        E 0 9f 37 5a
        E 480 82 48 64
        E 0 82 47 64
        E 0 83 3e 64
        E 0 8f 37 64
        E 0 92 45 64
        E 0 93 3e 5a
        E 0 9f 2b 5a
        E 243 82 45 64
        E 0 92 43 64
        E 237 82 43 64
        E 1 83 3e 64
        E 0 8f 2b 64
        E 0 92 47 64
        E 0 92 45 64
        E 0 93 40 5a
        E 0 9f 30 5a
        E 479 82 47 64
        E 0 82 45 64
        E 0 83 40 64
        E 0 8f 30 64
        E 0 92 43 64
        E 0 93 3e 5a
        E 0 9f 32 5a
        E 239 82 43 64
        E 1 92 42 64
        E 240 82 42 64
        E 0 83 3e 64
        E 0 8f 32 64
        E 0 92 43 64
        E 0 93 3b 5a
        E 1 9f 37 5a
        E 240 82 43 64
        E 0 92 45 64
        E 239 82 45 64
        E 0 83 3b 64
        E 0 8f 37 64
        E 0 92 47 64
        E 0 93 3c 5a
        E 0 9f 39 5a
        E 240 82 47 64
        E 1 92 48 64
        E 238 82 48 64
        E 0 83 3c 64
        E 0 8f 39 64
        E 0 92 4a 64
        E 0 93 3e 5a
        E 0 9f 3b 5a
        E 480 82 4a 64
        E 0 83 3e 64
        E 0 8f 3b 64
        E 0 92 4f 64
        E 0 93 47 5a
        E 0 9f 37 5a
        E 482 82 4f 64
        E 0 83 47 64
        E 0 8f 37 64
        E 0 92 4e 64
        E 0 93 45 5a
        E 0 9f 3e 5a
        E 241 82 4e 64
        E 0 92 4f 64
        E 239 82 4f 64
        E 0 8f 3e 64
        E 0 92 51 64
        E 0 9f 3c 5a
        E 240 82 51 64
        E 0 92 4f 64
        E 239 82 4f 64
        E 0 8f 3c 64
        E 1 92 4e 64
        E 0 9f 3e 5a
        E 240 82 4e 64
        E 1 92 4c 64
        E 239 82 4c 64
        E 0 83 45 64
        E 0 8f 3e 64
        E 0 92 4a 64
        E 0 93 42 5a
        E 1 9f 32 5a
        E 238 82 4a 64
        E 0 92 48 64
        E 241 82 48 64
        E 0 83 42 64
        E 0 8f 32 64
        E 0 92 47 64
        E 0 93 3e 5a
        E 0 9f 37 5a
        E 480 82 47 64
        E 0 8f 37 64
        E 0 92 45 64
        E 0 9f 30 5a
        E 240 82 45 64
        E 1 92 43 64
        E 240 82 43 64
        E 0 8f 30 64
        E 0 92 3e 64
        E 0 9f 32 5a
        E 478 82 3e 64
        E 0 83 3e 64
        E 0 8f 32 64
        E 0 92 4e 64
        E 0 93 3e 5a
        E 0 9f 26 5a
        E 482 82 4e 64
        E 0 83 3e 64
        E 0 8f 26 64
        E 0 92 4f 64
        E 0 93 3b 5a
        E 0 9f 2b 5a
        E 959 82 4f 64
        E 1 83 3b 64
        E 0 8f 2b 64
        E 959 92 47 64
        E 0 93 43 5a
        E 0 95 47 64
        E 0 9f 28 5a
        E 480 83 43 64
        E 0 8f 28 64
        E 1 93 43 5a
        E 0 9f 34 5a
        E 479 82 47 64
        E 0 83 43 64
        E 0 85 47 64
        E 0 8f 34 64
        E 0 92 4a 64
        E 0 92 48 64
        E 0 93 40 5a
        E 0 95 4a 64
        E 0 95 48 64
        E 0 9f 2d 5a
        E 479 82 4a 64
        E 0 82 48 64
        E 0 83 40 64
        E 0 85 4a 64
        E 0 85 48 64
        E 0 8f 2d 64
        E 0 92 47 64
        E 1 93 3f 5a
        E 0 95 47 64
        E 0 9f 2f 5a
        E 240 82 47 64
        E 0 85 47 64
        E 0 92 45 64
        E 0 95 45 64
        E 241 82 45 64
        E 0 83 3f 64
        E 0 85 45 64
        E 0 8f 2f 64
        E 0 92 47 64
        E 0 93 37 5a
        E 0 95 47 64
        E 0 9f 34 5a
        E 479 82 47 64
        E 0 83 37 64
        E 0 85 47 64
        E 0 8f 34 64
        E 0 92 45 64
        E 0 92 43 64
        E 0 93 39 5a
        E 0 95 45 64
        E 0 95 43 64
        E 0 9f 36 5a
        E 480 82 45 64
        E 0 82 43 64
        E 0 83 39 64
        E 0 85 45 64
        E 0 85 43 64
        E 0 8f 36 64
        E 0 92 42 64
        E 1 92 40 64
        E 0 93 3b 5a
        E 0 95 42 64
        E 0 95 40 64
        E 0 9f 37 5a
        E 478 82 42 64
        E 0 83 3b 64
        E 0 85 42 64
        E 0 8f 37 64
        E 1 93 37 5a
        E 0 9f 34 5a
        E 480 82 40 64
        E 0 83 37 64
        E 0 85 40 64
        E 0 8f 34 64
        E 0 92 47 64
        E 0 93 43 5a
        E 1 95 47 64
        E 0 9f 28 5a
        E 479 83 43 64
        E 0 8f 28 64
        E 0 93 43 5a
        E 0 9f 34 5a
        E 481 82 47 64
        E 0 83 43 64
        E 0 85 47 64
        E 0 8f 34 64
        E 0 92 4a 64
        E 0 92 48 64
        E 0 93 40 5a
        E 0 95 4a 64
        E 0 95 48 64
        E 0 9f 2d 5a
        E 478 82 4a 64
        E 0 82 48 64
        E 0 83 40 64
        E 0 85 4a 64
        E 0 85 48 64
        E 0 8f 2d 64
        E 0 92 47 64
        E 0 93 3f 5a
        E 0 95 47 64
        E 0 9f 2f 5a
        E 242 82 47 64
        E 1 85 47 64
        E 0 92 45 64
        E 0 95 45 64
        E 237 82 45 64
        E 0 83 3f 64
        E 0 85 45 64
        E 0 8f 2f 64
        E 0 92 47 64
        E 0 93 37 5a
        E 0 95 47 64
        E 0 9f 28 5a
        E 480 82 47 64
        E 0 83 37 64
        E 0 85 47 64
        E 0 8f 28 64
        E 0 92 43 64
        E 0 93 37 5a
        E 0 95 43 64
        E 0 9f 34 5a
        E 481 82 43 64
        E 0 83 37 64
        E 0 85 43 64
        E 0 8f 34 64
        E 0 92 42 64
        E 0 93 39 5a
        E 0 95 42 64
        E 0 9f 36 5a
        E 479 82 42 64
        E 1 83 39 64
        E 0 85 42 64
        E 0 8f 36 64
        E 0 92 40 64
        E 0 93 3b 5a
        E 0 95 40 64
        E 1 9f 37 5a
        E 479 82 40 64
        E 0 83 3b 64
        E 0 85 40 64
        E 0 8f 37 64
        E 0 92 47 64
        E 0 93 36 5a
        E 0 95 47 64
        E 0 9f 33 5a
        E 479 82 47 64
        E 0 83 36 64
        E 1 85 47 64
        E 0 8f 33 64
        E 0 92 45 64
        E 0 93 3b 5a
        E 0 95 45 64
        E 0 9f 34 5a
        E 240 82 45 64
        E 0 85 45 64
        E 0 92 43 64
        E 0 95 43 64
        E 238 82 43 64
        E 0 83 3b 64
        E 0 85 43 64
        E 0 8f 34 64
        E 1 92 45 64
        E 0 93 39 5a
        E 0 95 45 64
        E 0 9f 36 5a
        E 482 82 45 64
        E 0 83 39 64
        E 0 85 45 64
        E 0 8f 36 64
        E 0 92 43 64
        E 1 93 3f 5a
        E 0 95 43 64
        E 0 9f 2f 5a
        E 237 82 43 64
        E 0 85 43 64
        E 0 92 42 64
        E 1 95 42 64
        E 240 82 42 64
        E 0 83 3f 64
        E 0 85 42 64
        E 0 8f 2f 64
        E 0 92 43 64
        E 0 93 3b 5a
        E 0 95 43 64
        E 0 9f 34 5a
        E 480 82 43 64
        E 0 85 43 64
        E 0 8f 34 64
        E 0 92 42 64
        E 0 95 42 64
        E 0 9f 32 5a
        E 480 82 42 64
        E 0 83 3b 64
        E 0 85 42 64
        E 0 8f 32 64
        E 0 92 40 64
        E 0 95 40 64
        E 0 9f 34 5a
        E 480 8f 34 64
        E 0 9f 36 5a
        E 481 82 40 64
        E 0 85 40 64
        E 0 8f 36 64
        E 0 92 43 64
        E 0 93 3e 5a
        E 0 95 43 64
        E 0 9f 37 5a
        E 479 8f 37 64
        E 0 9f 3b 5a
        E 480 82 43 64
        E 0 85 43 64
        E 0 8f 3b 64
        E 0 92 47 64
        E 0 95 47 64
        E 0 9f 39 5a
        E 479 83 3e 64
        E 0 8f 39 64
        E 0 93 40 5a
        E 0 9f 37 5a
        E 242 82 47 64
        E 0 85 47 64
        E 0 92 49 64
        E 0 95 49 64
        E 239 82 49 64
        E 0 83 40 64
        E 0 85 49 64
        E 0 8f 37 64
        E 0 92 4a 64
        E 0 93 45 5a
        E 0 95 4a 64
        E 0 9f 36 5a
        E 480 83 45 64
        E 0 8f 36 64
        E 0 93 42 5a
        E 0 9f 32 5a
        E 240 82 4a 64
        E 0 85 4a 64
        E 0 92 3e 64
        E 0 95 3e 64
        E 238 82 3e 64
        E 0 83 42 64
        E 0 85 3e 64
        E 0 8f 32 64
        E 1 92 3e 64
        E 0 93 43 5a
        E 0 95 3e 64
        E 0 9f 34 5a
        E 482 83 43 64
        E 0 8f 34 64
        E 0 93 45 5a
        E 0 9f 36 5a
        E 480 82 3e 64
        E 0 83 45 64
        E 0 85 3e 64
        E 0 8f 36 64
        E 0 92 43 64
        E 0 93 3e 5a
        E 0 95 43 64
        E 0 9f 37 5a
        E 478 8f 37 64
        E 0 9f 3b 5a
        E 480 82 43 64
        E 0 85 43 64
        E 0 8f 3b 64
        E 0 92 47 64
        E 0 95 47 64
        E 0 9f 39 5a
        E 481 83 3e 64
        E 0 8f 39 64
        E 0 93 40 5a
        E 0 9f 37 5a
        E 239 82 47 64
        E 0 85 47 64
        E 1 92 49 64
        E 0 95 49 64
        E 241 82 49 64
        E 0 83 40 64
        E 0 85 49 64
        E 0 8f 37 64
        E 0 92 4a 64
        E 0 93 45 5a
        E 0 95 4a 64
        E 0 9f 36 5a
        E 478 83 45 64
        E 1 8f 36 64
        E 0 93 43 5a
        E 0 9f 34 5a
        E 479 82 4a 64
        E 0 83 43 64
        E 0 85 4a 64
        E 0 8f 34 64
        E 0 92 3e 64
        E 0 93 45 5a
        E 0 95 3e 64
        E 0 9f 36 5a
        E 481 82 3e 64
        E 0 83 45 64
        E 0 85 3e 64
        E 0 8f 36 64
        E 0 92 3e 64
        E 1 93 42 5a
        E 0 95 3e 64
        E 0 9f 32 5a
        E 480 82 3e 64
        E 0 83 42 64
        E 0 85 3e 64
        E 0 8f 32 64
        E 0 92 4a 64
        E 0 92 48 64
        E 0 93 42 5a
        E 0 95 48 64
        E 0 9f 39 5a
        E 478 82 4a 64
        E 0 82 48 64
        E 0 83 42 64
        E 0 85 48 64
        E 0 8f 39 64
        E 1 92 47 64
        E 0 93 42 5a
        E 0 95 47 64
        E 0 9f 32 5a
        E 241 82 47 64
        E 0 85 47 64
        E 1 92 48 64
        E 0 95 48 64
        E 237 82 48 64
        E 0 83 42 64
        E 0 85 48 64
        E 0 8f 32 64
        E 0 92 4a 64
        E 0 93 45 5a
        E 0 95 4a 64
        E 0 9f 36 5a
        E 482 82 4a 64
        E 0 83 45 64
        E 0 85 4a 64
        E 0 8f 36 64
        E 0 92 48 64
        E 0 93 42 5a
        E 1 95 48 64
        E 0 9f 32 5a
        E 478 82 48 64
        E 0 83 42 64
        E 0 85 48 64
        E 0 8f 32 64
        E 0 92 47 64
        E 0 93 3e 5a
        E 0 95 47 64
        E 0 9f 37 5a
        E 480 82 47 64
        E 0 8f 37 64
        E 0 92 4e 64
        E 0 9f 32 5a
        E 239 85 47 64
        E 0 95 45 64
        E 242 82 4e 64
        E 0 83 3e 64
        E 0 85 45 64
        E 0 8f 32 64
        E 0 92 4f 64
        E 0 95 43 64
        E 0 9f 2b 5a
        E 478 82 4f 64
        E 0 85 43 64
        E 0 8f 2b 64
        E 0 92 51 64
        E 1 95 3e 64
        E 0 9f 36 5a
        E 480 82 51 64
        E 0 85 3e 64
        E 0 8f 36 64
        E 0 92 4a 64
        E 0 92 48 64
        E 0 93 42 5a
        E 0 95 48 64
        E 0 9f 39 5a
        E 481 82 4a 64
        E 0 82 48 64
        E 0 83 42 64
        E 0 85 48 64
        E 0 8f 39 64
        E 0 92 47 64
        E 0 93 42 5a
        E 0 95 47 64
        E 0 9f 32 5a
        E 238 82 47 64
        E 0 85 47 64
        E 0 92 48 64
        E 0 95 48 64
        E 241 82 48 64
        E 0 83 42 64
        E 0 85 48 64
        E 0 8f 32 64
        E 0 92 4a 64
        E 0 93 45 5a
        E 0 95 4a 64
        E 0 9f 36 5a
        E 481 82 4a 64
        E 0 83 45 64
        E 0 85 4a 64
        E 0 8f 36 64
        E 0 92 48 64
        E 0 93 42 5a
        E 0 95 48 64
        E 0 9f 32 5a
        E 478 82 48 64
        E 0 83 42 64
        E 0 85 48 64
        E 1 8f 32 64
        E 0 92 47 64
        E 0 93 3e 5a
        E 0 95 47 64
        E 0 9f 37 5a
        E 480 82 47 64
        E 0 8f 37 64
        E 0 92 4e 64
        E 1 9f 32 5a
        E 239 85 47 64
        E 0 95 45 64
        E 241 82 4e 64
        E 0 83 3e 64
        E 0 85 45 64
        E 0 8f 32 64
        E 0 92 4f 64
        E 0 95 43 64
        E 0 9f 2b 5a
        E 479 82 4f 64
        E 0 85 43 64
        E 0 8f 2b 64
        E 0 92 51 64
        E 0 95 48 64
        E 0 9f 36 5a
        E 479 82 51 64
        E 0 85 48 64
        E 0 8f 36 64
        E 0 92 47 64
        E 0 93 3e 5a
        E 0 95 47 64
        E 0 9f 37 5a
        E 480 82 47 64
        E 0 83 3e 64
        E 0 85 47 64
        E 0 8f 37 64
        E 0 92 45 64
        E 0 93 3e 5a
        E 0 95 45 64
        E 0 9f 2b 5a
        E 239 82 45 64
        E 1 85 45 64
        E 0 92 43 64
        E 0 95 43 64
        E 242 82 43 64
        E 0 83 3e 64
        E 0 85 43 64
        E 0 8f 2b 64
        E 0 92 45 64
        E 0 93 40 5a
        E 0 95 45 64
        E 0 9f 30 5a
        E 478 82 45 64
        E 0 83 40 64
        E 0 85 45 64
        E 0 8f 30 64
        E 0 92 43 64
        E 0 93 39 5a
        E 0 95 43 64
        E 0 9f 32 5a
        E 241 82 43 64
        E 0 85 43 64
        E 0 92 42 64
        E 0 95 42 64
        E 240 82 42 64
        E 0 83 39 64
        E 0 85 42 64
        E 0 8f 32 64
        E 0 92 43 64
        E 0 93 3b 5a
        E 0 95 43 64
        E 0 9f 37 5a
        E 478 83 3b 64
        E 0 8f 37 64
        E 1 93 3c 5a
        E 0 9f 39 5a
        E 482 82 43 64
        E 0 83 3c 64
        E 0 85 43 64
        E 0 8f 39 64
        E 0 93 3e 5a
        E 0 9f 3b 5a
        E 478 83 3e 64
        E 0 8f 3b 64
        E 1 92 43 64
        E 0 93 3b 5a
        E 0 95 43 64
        E 0 9f 37 5a
        E 479 82 43 64
        E 0 83 3b 64
        E 0 85 43 64
        E 0 8f 37 64
        E 1 92 4a 64
        E 0 93 39 5a
        E 0 95 4a 64
        E 0 9f 36 5a
        E 481 82 4a 64
        E 0 83 39 64
        E 0 85 4a 64
        E 0 8f 36 64
        E 0 92 48 64
        E 0 93 3e 5a
        E 1 95 48 64
        E 0 9f 37 5a
        E 236 82 48 64
        E 0 85 48 64
        E 1 92 47 64
        E 0 95 47 64
        E 242 82 47 64
        E 0 83 3e 64
        E 0 85 47 64
        E 0 8f 37 64
        E 0 92 48 64
        E 0 93 3c 5a
        E 0 95 48 64
        E 0 9f 39 5a
        E 478 82 48 64
        E 1 83 3c 64
        E 0 85 48 64
        E 0 8f 39 64
        E 0 92 47 64
        E 0 93 42 5a
        E 0 95 47 64
        E 0 9f 32 5a
        E 239 82 47 64
        E 0 85 47 64
        E 0 92 45 64
        E 0 95 45 64
        E 241 82 45 64
        E 0 83 42 64
        E 0 85 45 64
        E 1 8f 32 64
        E 0 92 47 64
        E 0 93 3e 5a
        E 0 95 47 64
        E 0 9f 37 5a
        E 480 82 47 64
        E 0 83 3e 64
        E 0 85 47 64
        E 0 8f 37 64
        E 0 92 45 64
        E 0 93 3e 5a
        E 0 95 45 64
        E 0 9f 32 5a
        E 480 82 45 64
        E 0 83 3e 64
        E 0 85 45 64
        E 0 8f 32 64
        E 0 92 43 64
        E 0 93 3b 5a
        E 0 95 43 64
        E 0 9f 2b 5a
        E 959 82 43 64
        E 0 83 3b 64
        E 0 85 43 64
        E 0 8f 2b 64
        E 481 92 45 64
        E 0 93 3e 5a
        E 0 95 45 64
        E 0 9f 36 5a
        E 239 82 45 64
        E 0 85 45 64
        E 0 92 47 64
        E 0 95 47 64
        E 240 82 47 64
        E 0 83 3e 64
        E 0 85 47 64
        E 0 8f 36 64
        E 0 92 48 64
        E 0 93 3e 5a
        E 0 95 48 64
        E 0 9f 39 5a
        E 479 82 48 64
        E 0 83 3e 64
        E 1 85 48 64
        E 0 8f 39 64
        E 0 92 47 64
        E 0 93 3e 5a
        E 0 95 47 64
        E 0 9f 36 5a
        E 239 82 47 64
        E 0 85 47 64
        E 0 92 45 64
        E 0 95 45 64
        E 240 82 45 64
        E 0 83 3e 64
        E 0 85 45 64
        E 0 8f 36 64
        E 0 92 47 64
        E 0 93 3e 5a
        E 0 95 47 64
        E 0 9f 37 5a
        E 482 82 47 64
        E 0 83 3e 64
        E 0 85 47 64
        E 0 8f 37 64
        E 0 92 45 64
        E 0 93 3e 5a
        E 0 95 45 64
        E 0 9f 32 5a
        E 478 82 45 64
        E 0 83 3e 64
        E 1 85 45 64
        E 0 8f 32 64
        E 0 92 43 64
        E 0 93 3b 5a
        E 0 95 43 64
        E 0 9f 2b 5a
        E 960 82 43 64
        E 0 83 3b 64
        E 0 85 43 64
        E 0 8f 2b 64
        E 481 92 45 64
        E 0 93 3e 5a
        E 0 95 45 64
        E 0 9f 36 5a
        E 238 82 45 64
        E 0 85 45 64
        E 0 92 47 64
        E 0 95 47 64
        E 241 82 47 64
        E 0 83 3e 64
        E 0 85 47 64
        E 0 8f 36 64
        E 1 92 48 64
        E 0 93 3e 5a
        E 0 95 48 64
        E 0 9f 39 5a
        E 479 82 48 64
        E 0 83 3e 64
        E 0 85 48 64
        E 0 8f 39 64
        E 0 92 47 64
        E 1 93 3e 5a
        E 0 95 47 64
        E 0 9f 36 5a
        E 237 82 47 64
        E 0 85 47 64
        E 1 92 45 64
        E 0 95 45 64
        E 242 82 45 64
        E 0 83 3e 64
        E 0 85 45 64
        E 0 8f 36 64
        E 0 92 47 64
        E 0 93 3e 5a
        E 0 95 47 64
        E 0 9f 37 5a
        E 478 82 47 64
        E 0 83 3e 64
        E 0 85 47 64
        E 0 8f 37 64
        E 0 92 45 64
        E 0 93 3e 5a
        E 0 95 45 64
        E 0 9f 32 5a
        E 480 82 45 64
        E 0 83 3e 64
        E 0 85 45 64
        E 0 8f 32 64
        E 1 92 43 64
        E 0 93 3b 5a
        E 0 95 43 64
        E 0 9f 2b 5a
        E 718 82 43 64
        E 1 83 3b 64
        E 0 85 43 64
        E 0 8f 2b 64
        E 0 92 43 64
        E 0 93 3b 5a
        E 0 95 43 64
        E 0 9f 2b 5a
        E 482 82 43 64
        E 0 83 3b 64
        E 0 85 43 64
        E 0 8f 2b 64
        E 0 92 4c 64
        E 0 93 37 5a
        E 0 95 4c 64
        E 0 9f 30 5a
        E 479 82 4c 64
        E 0 85 4c 64
        E 0 8f 30 64
        E 0 92 4c 64
        E 0 95 4c 64
        E 0 9f 32 5a
        E 479 82 4c 64
        E 0 85 4c 64
        E 0 8f 32 64
        E 0 92 4c 64
        E 0 95 4c 64
        E 0 9f 34 5a
        E 482 82 4c 64
        E 0 83 37 64
        E 0 85 4c 64
        E 0 8f 34 64
        E 1 92 4c 64
        E 0 93 40 5a
        E 0 95 4c 64
        E 0 9f 30 5a
        E 477 82 4c 64
        E 0 83 40 64
        E 0 85 4c 64
        E 0 8f 30 64
        E 0 92 42 64
        E 1 93 39 5a
        E 0 95 42 64
        E 0 9f 32 5a
        E 479 82 42 64
        E 1 83 39 64
        E 0 85 42 64
        E 0 8f 32 64
        E 0 92 43 64
        E 0 93 39 5a
        E 0 95 43 64
        E 0 9f 30 5a
        E 239 82 43 64
        E 0 85 43 64
        E 1 92 42 64
        E 0 95 42 64
        E 239 82 42 64
        E 0 83 39 64
        E 0 85 42 64
        E 0 8f 30 64
        E 0 92 43 64
        E 0 93 3e 5a
        E 0 95 43 64
        E 0 9f 2f 5a
        E 480 82 43 64
        E 0 83 3e 64
        E 0 85 43 64
        E 1 8f 2f 64
        E 0 92 48 64
        E 0 93 42 5a
        E 0 95 48 64
        E 0 9f 2d 5a
        E 480 82 48 64
        E 0 83 42 64
        E 0 85 48 64
        E 0 8f 2d 64
        E 0 92 47 64
        E 0 93 3e 5a
        E 0 95 47 64
        E 0 9f 2b 5a
        E 480 82 47 64
        E 0 83 3e 64
        E 0 85 47 64
        E 0 8f 2b 64
        E 1 92 45 64
        E 0 93 3e 5a
        E 0 95 45 64
        E 0 9f 2f 5a
        E 238 82 45 64
        E 0 85 45 64
        E 0 92 43 64
        E 1 95 43 64
        E 241 82 43 64
        E 0 83 3e 64
        E 0 85 43 64
        E 0 8f 2f 64
        E 0 92 45 64
        E 1 93 40 5a
        E 0 95 45 64
        E 0 9f 30 5a
        E 478 82 45 64
        E 0 83 40 64
        E 0 85 45 64
        E 0 8f 30 64
        E 0 92 43 64
        E 0 93 39 5a
        E 1 95 43 64
        E 0 9f 32 5a
        E 240 82 43 64
        E 0 85 43 64
        E 0 92 42 64
        E 0 95 42 64
        E 238 82 42 64
        E 0 83 39 64
        E 0 85 42 64
        E 0 8f 32 64
        E 0 92 43 64
        E 0 93 3b 5a
        E 0 95 43 64
        E 0 9f 2b 5a
        E 481 82 43 64
        E 1 83 3b 64
        E 0 8f 2b 64
        E 0 92 4f 64
        E 2 93 3b 5a
        E 0 9f 37 5a
        E 476 82 4f 64
        E 0 83 3b 64
        E 0 85 43 64
        E 0 8f 37 64
        E 0 92 51 64
        E 0 93 39 5a
        E 0 9f 36 5a
        E 481 82 51 64
        E 0 83 39 64
        E 0 8f 36 64
        E 0 92 53 64
        E 0 93 37 5a
        E 0 9f 34 5a
        E 480 82 53 64
        E 0 83 37 64
        E 0 8f 34 64
        E 0 92 47 64
        E 0 93 43 5a
        E 0 9f 28 5a
        E 478 83 43 64
        E 0 8f 28 64
        E 0 93 43 5a
        E 0 9f 34 5a
        E 482 82 47 64
        E 0 83 43 64
        E 0 8f 34 64
        E 0 92 4a 64
        E 0 92 48 64
        E 0 93 40 5a
        E 0 9f 2d 5a
        E 481 82 4a 64
        E 0 82 48 64
        E 0 83 40 64
        E 0 8f 2d 64
        E 0 92 47 64
        E 0 93 3f 5a
        E 0 9f 2f 5a
        E 238 82 47 64
        E 1 92 45 64
        E 241 82 45 64
        E 0 83 3f 64
        E 0 8f 2f 64
        E 0 92 47 64
        E 0 93 43 5a
        E 0 9f 28 5a
        E 479 83 43 64
        E 0 8f 28 64
        E 1 93 43 5a
        E 1 9f 34 5a
        E 477 82 47 64
        E 0 83 43 64
        E 0 8f 34 64
        E 0 92 4a 64
        E 0 92 48 64
        E 0 93 40 5a
        E 0 9f 2d 5a
        E 481 82 4a 64
        E 0 82 48 64
        E 0 83 40 64
        E 0 8f 2d 64
        E 0 92 47 64
        E 0 93 3f 5a
        E 0 9f 2f 5a
        E 240 82 47 64
        E 0 92 45 64
        E 241 82 45 64
        E 0 83 3f 64
        E 0 8f 2f 64
        E 0 92 47 64
        E 0 93 43 5a
        E 0 9f 28 5a
        E 477 82 47 64
        E 0 83 43 64
        E 1 8f 28 64
        E 0 92 53 64
        E 0 93 43 5a
        E 0 9f 37 5a
        E 481 82 53 64
        E 0 83 43 64
        E 0 8f 37 64
        E 0 92 51 64
        E 0 93 45 5a
        E 0 9f 36 5a
        E 481 82 51 64
        E 0 83 45 64
        E 0 8f 36 64
        E 0 92 4f 64
        E 0 93 47 5a
        E 0 9f 34 5a
        E 478 82 4f 64
        E 0 83 47 64
        E 0 8f 34 64
        E 0 92 4e 64
        E 0 93 3f 5a
        E 0 9f 2f 5a
        E 481 83 3f 64
        E 0 8f 2f 64
        E 1 93 3f 5a
        E 2 9f 3b 5a
        E 478 82 4e 64
        E 0 83 3f 64
        E 0 8f 3b 64
        E 0 92 51 64
        E 0 92 4f 64
        E 0 93 47 5a
        E 0 9f 40 5a
        E 479 82 51 64
        E 0 82 4f 64
        E 0 83 47 64
        E 0 8f 40 64
        E 0 92 4e 64
        E 0 93 47 5a
        E 0 9f 34 5a
        E 240 82 4e 64
        E 0 92 4c 64
        E 241 82 4c 64
        E 0 83 47 64
        E 0 8f 34 64
        E 0 92 4e 64
        E 0 93 3f 5a
        E 0 9f 2f 5a
        E 477 83 3f 64
        E 0 8f 2f 64
        E 1 93 3f 5a
        E 0 9f 3b 5a
        E 482 82 4e 64
        E 0 83 3f 64
        E 0 8f 3b 64
        E 0 92 51 64
        E 0 92 4f 64
        E 0 93 47 5a
        E 0 9f 34 5a
        E 479 82 51 64
        E 0 82 4f 64
        E 0 83 47 64
        E 0 8f 34 64
        E 0 92 4e 64
        E 0 93 49 5a
        E 1 9f 2e 5a
        E 238 82 4e 64
        E 0 92 4c 64
        E 241 82 4c 64
        E 0 83 49 64
        E 0 8f 2e 64
        E 0 92 4b 64
        E 0 93 42 5a
        E 0 9f 2f 5a
        E 241 82 4b 64
        E 0 92 49 64
        E 240 82 49 64
        E 1 8f 2f 64
        E 0 92 47 64
        E 0 9f 2d 5a
        E 477 82 47 64
        E 0 8f 2d 64
        E 0 9f 2b 5a
        E 481 83 42 64
        E 0 8f 2b 64
        E 0 93 42 5a
        E 0 9f 2a 5a
        E 479 83 42 64
        E 0 8f 2a 64
        E 0 92 47 64
        E 0 93 43 5a
        E 0 95 47 64
        E 0 9f 28 5a
        E 481 83 43 64
        E 0 8f 28 64
        E 0 93 43 5a
        E 1 9f 34 5a
        E 478 82 47 64
        E 0 83 43 64
        E 0 85 47 64
        E 0 8f 34 64
        E 0 92 4a 64
        E 0 92 48 64
        E 1 93 40 5a
        E 0 95 4a 64
        E 0 95 48 64
        E 0 9f 2d 5a
        E 479 82 4a 64
        E 0 82 48 64
        E 0 83 40 64
        E 0 85 4a 64
        E 0 85 48 64
        E 0 8f 2d 64
        E 0 92 47 64
        E 0 93 3f 5a
        E 0 95 47 64
        E 0 9f 2f 5a
        E 242 82 47 64
        E 0 85 47 64
        E 0 92 45 64
        E 0 95 45 64
        E 239 82 45 64
        E 0 83 3f 64
        E 0 85 45 64
        E 0 8f 2f 64
        E 0 92 47 64
        E 0 93 37 5a
        E 0 95 47 64
        E 0 9f 34 5a
        E 480 82 47 64
        E 0 83 37 64
        E 0 85 47 64
        E 0 8f 34 64
        E 2 92 45 64
        E 0 92 43 64
        E 0 93 39 5a
        E 0 95 45 64
        E 0 95 43 64
        E 0 9f 36 5a
        E 478 82 45 64
        E 0 82 43 64
        E 0 83 39 64
        E 1 85 45 64
        E 0 85 43 64
        E 0 8f 36 64
        E 0 92 42 64
        E 0 92 40 64
        E 0 93 3b 5a
        E 1 95 42 64
        E 0 95 40 64
        E 0 9f 37 5a
        E 477 82 42 64
        E 0 83 3b 64
        E 0 85 42 64
        E 0 8f 37 64
        E 0 93 37 5a
        E 0 9f 34 5a
        E 481 82 40 64
        E 0 83 37 64
        E 0 85 40 64
        E 0 8f 34 64
        E 0 92 47 64
        E 0 93 43 5a
        E 0 95 47 64
        E 0 9f 28 5a
        E 480 83 43 64
        E 0 8f 28 64
        E 1 93 43 5a
        E 0 9f 34 5a
        E 479 82 47 64
        E 0 83 43 64
        E 0 85 47 64
        E 0 8f 34 64
        E 0 92 4a 64
        E 0 92 48 64
        E 0 93 40 5a
        E 0 95 4a 64
        E 0 95 48 64
        E 0 9f 2d 5a
        E 479 82 4a 64
        E 0 82 48 64
        E 0 83 40 64
        E 0 85 4a 64
        E 0 85 48 64
        E 0 8f 2d 64
        E 1 92 47 64
        E 0 93 3f 5a
        E 0 95 47 64
        E 0 9f 2f 5a
        E 241 82 47 64
        E 0 85 47 64
        E 0 92 45 64
        E 0 95 45 64
        E 239 82 45 64
        E 0 83 3f 64
        E 0 85 45 64
        E 0 8f 2f 64
        E 0 92 47 64
        E 0 93 37 5a
        E 0 95 47 64
        E 0 9f 28 5a
        E 480 82 47 64
        E 0 83 37 64
        E 0 85 47 64
        E 0 8f 28 64
        E 0 92 43 64
        E 0 93 37 5a
        E 0 95 43 64
        E 0 9f 34 5a
        E 480 82 43 64
        E 0 83 37 64
        E 0 85 43 64
        E 0 8f 34 64
        E 0 92 42 64
        E 0 93 39 5a
        E 0 95 42 64
        E 0 9f 36 5a
        E 479 82 42 64
        E 0 83 39 64
        E 0 85 42 64
        E 0 8f 36 64
        E 0 92 40 64
        E 0 93 3b 5a
        E 0 95 40 64
        E 0 9f 37 5a
        E 481 82 40 64
        E 0 83 3b 64
        E 0 85 40 64
        E 0 8f 37 64
        E 0 92 47 64
        E 1 93 36 5a
        E 0 95 47 64
        E 0 9f 33 5a
        E 477 82 47 64
        E 0 85 47 64
        E 0 8f 33 64
        E 1 92 45 64
        E 0 95 45 64
        E 0 9f 34 5a
        E 241 82 45 64
        E 0 85 45 64
        E 0 92 43 64
        E 0 95 43 64
        E 241 82 43 64
        E 0 83 36 64
        E 0 85 43 64
        E 0 8f 34 64
        E 0 92 45 64
        E 0 93 3f 5a
        E 0 95 45 64
        E 0 9f 36 5a
        E 478 82 45 64
        E 0 85 45 64
        E 0 8f 36 64
        E 0 92 43 64
        E 0 95 43 64
        E 0 9f 2f 5a
        E 242 82 43 64
        E 0 85 43 64
        E 0 92 42 64
        E 0 95 42 64
        E 240 82 42 64
        E 0 83 3f 64
        E 0 85 42 64
        E 0 8f 2f 64
        E 0 92 43 64
        E 0 93 3b 5a
        E 0 95 43 64
        E 0 9f 34 5a
        E 477 82 43 64
        E 0 85 43 64
        E 0 8f 34 64
        E 0 92 42 64
        E 0 95 42 64
        E 0 9f 36 5a
        E 483 82 42 64
        E 0 85 42 64
        E 0 8f 36 64
        E 0 92 40 64
        E 1 95 40 64
        E 0 9f 37 5a
        E 478 83 3b 64
        E 1 8f 37 64
        E 0 93 39 5a
        E 1 9f 36 5a
        E 477 82 40 64
        E 0 83 39 64
        E 0 85 40 64
        E 0 8f 36 64
        E 0 92 44 64
        E 0 93 3b 5a
        E 0 95 44 64
        E 0 9f 34 5a
        E 240 82 44 64
        E 0 92 47 64
        E 240 82 47 64
        E 0 8f 34 64
        E 0 92 4c 64
        E 1 9f 32 5a
        E 239 82 4c 64
        E 0 92 50 64
        E 242 82 50 64
        E 0 85 44 64
        E 0 8f 32 64
        E 0 92 53 64
        E 0 95 44 64
        E 0 9f 34 5a
        E 479 82 53 64
        E 0 83 3b 64
        E 0 85 44 64
        E 0 8f 34 64
        E 0 92 4a 64
        E 0 93 40 5a
        E 0 95 44 64
        E 0 9f 28 5a
        E 480 82 4a 64
        E 0 83 40 64
        E 0 85 44 64
        E 0 8f 28 64
        E 0 92 45 64
        E 0 93 40 5a
        E 0 95 45 64
        E 0 9f 39 5a
        E 239 82 45 64
        E 0 85 45 64
        E 1 92 47 64
        E 0 95 47 64
        E 240 82 47 64
        E 0 85 47 64
        E 0 8f 39 64
        E 0 92 48 64
        E 0 95 48 64
        E 0 9f 38 5a
        E 240 82 48 64
        E 0 85 48 64
        E 0 92 47 64
        E 1 95 47 64
        E 240 82 47 64
        E 0 85 47 64
        E 0 8f 38 64
        E 0 92 45 64
        E 0 95 45 64
        E 0 9f 39 5a
        E 478 82 45 64
        E 0 83 40 64
        E 0 85 45 64
        E 0 8f 39 64
        E 0 93 3c 5a
        E 0 9f 2d 5a
        E 482 83 3c 64
        E 0 8f 2d 64
        E 0 92 46 64
        E 0 93 3d 5a
        E 0 95 46 64
        E 0 9f 36 5a
        E 238 82 46 64
        E 1 92 49 64
        E 239 82 49 64
        E 0 8f 36 64
        E 0 92 4c 64
        E 0 9f 34 5a
        E 240 82 4c 64
        E 0 92 52 64
        E 241 82 52 64
        E 0 85 46 64
        E 0 8f 34 64
        E 0 92 55 64
        E 0 95 46 64
        E 0 9f 36 5a
        E 479 82 55 64
        E 0 83 3d 64
        E 0 85 46 64
        E 0 8f 36 64
        E 0 92 4c 64
        E 0 93 42 5a
        E 0 95 46 64
        E 1 9f 2a 5a
        E 480 82 4c 64
        E 0 83 42 64
        E 0 85 46 64
        E 0 8f 2a 64
        E 0 92 47 64
        E 0 93 42 5a
        E 0 95 47 64
        E 0 9f 3b 5a
        E 240 82 47 64
        E 0 85 47 64
        E 1 92 49 64
        E 0 95 49 64
        E 239 82 49 64
        E 0 85 49 64
        E 0 8f 3b 64
        E 1 92 4b 64
        E 0 95 4b 64
        E 0 9f 39 5a
        E 239 82 4b 64
        E 0 85 4b 64
        E 0 92 49 64
        E 0 95 49 64
        E 240 82 49 64
        E 0 85 49 64
        E 0 8f 39 64
        E 0 92 47 64
        E 0 95 47 64
        E 0 9f 3b 5a
        E 481 82 47 64
        E 0 83 42 64
        E 0 85 47 64
        E 0 8f 3b 64
        E 0 92 47 64
        E 0 93 3f 5a
        E 0 95 47 64
        E 0 9f 2f 5a
        E 477 82 47 64
        E 0 83 3f 64
        E 0 85 47 64
        E 1 8f 2f 64
        E 0 92 48 64
        E 0 92 47 64
        E 0 93 40 5a
        E 0 95 48 64
        E 0 95 47 64
        E 0 9f 3b 5a
        E 481 82 48 64
        E 0 82 47 64
        E 0 85 48 64
        E 0 85 47 64
        E 0 8f 3b 64
        E 0 92 45 64
        E 0 95 45 64
        E 1 9f 2f 5a
        E 238 82 45 64
        E 0 85 45 64
        E 1 92 47 64
        E 0 95 47 64
        E 240 82 47 64
        E 0 85 47 64
        E 0 8f 2f 64
        E 0 92 48 64
        E 0 95 48 64
        E 0 9f 2f 5a
        E 479 82 48 64
        E 0 83 40 64
        E 0 85 48 64
        E 0 8f 2f 64
        E 0 92 47 64
        E 0 93 40 5a
        E 1 95 47 64
        E 0 9f 3b 5a
        E 480 82 47 64
        E 0 83 40 64
        E 0 85 47 64
        E 0 8f 3b 64
        E 0 92 45 64
        E 0 93 40 5a
        E 0 95 45 64
        E 0 9f 3b 5a
        E 478 82 45 64
        E 1 8f 3b 64
        E 0 92 4b 64
        E 0 9f 2f 5a
        E 242 85 45 64
        E 0 95 45 64
        E 237 82 4b 64
        E 0 85 45 64
        E 0 8f 2f 64
        E 0 92 4c 64
        E 0 95 45 64
        E 0 9f 2f 5a
        E 482 82 4c 64
        E 0 83 40 64
        E 0 85 45 64
        E 0 8f 2f 64
        E 0 92 4e 64
        E 1 93 40 5a
        E 0 95 45 64
        E 0 9f 3b 5a
        E 478 82 4e 64
        E 0 83 40 64
        E 0 85 45 64
        E 0 8f 3b 64
        E 0 92 45 64
        E 0 93 40 5a
        E 0 95 45 64
        E 0 9f 3b 5a
        E 480 82 45 64
        E 0 85 45 64
        E 0 8f 3b 64
        E 1 92 43 64
        E 0 95 43 64
        E 0 9f 2f 5a
        E 238 82 43 64
        E 0 85 43 64
        E 0 92 45 64
        E 0 95 45 64
        E 241 82 45 64
        E 0 85 45 64
        E 1 8f 2f 64
        E 0 92 47 64
        E 0 95 47 64
        E 0 9f 2f 5a
        E 479 82 47 64
        E 0 83 40 64
        E 0 85 47 64
        E 1 8f 2f 64
        E 0 92 45 64
        E 0 93 40 5a
        E 0 95 45 64
        E 0 9f 3b 5a
        E 480 82 45 64
        E 0 83 40 64
        E 0 85 45 64
        E 0 8f 3b 64
        E 0 92 43 64
        E 0 93 3b 5a
        E 0 95 43 64
        E 0 9f 34 5a
        E 478 82 43 64
        E 0 8f 34 64
        E 0 92 4f 64
        E 0 9f 37 5a
        E 243 85 43 64
        E 0 95 43 64
        E 240 82 4f 64
        E 0 85 43 64
        E 1 8f 37 64
        E 0 92 51 64
        E 0 95 43 64
        E 0 9f 36 5a
        E 479 82 51 64
        E 0 83 3b 64
        E 0 85 43 64
        E 0 8f 36 64
        E 0 92 53 64
        E 0 93 43 5a
        E 1 95 47 64
        E 0 9f 34 5a
        E 479 82 53 64
        E 0 83 43 64
        E 0 85 47 64
        E 0 8f 34 64
        E 0 92 48 64
        E 0 93 40 5a
        E 0 95 48 64
        E 0 9f 2d 5a
        E 477 82 48 64
        E 0 83 40 64
        E 0 8f 2d 64
        E 0 92 47 64
        E 0 93 3c 5a
        E 0 9f 39 5a
        E 243 82 47 64
        E 0 92 45 64
        E 239 82 45 64
        E 0 83 3c 64
        E 0 85 48 64
        E 0 8f 39 64
        E 0 92 4b 64
        E 0 93 42 5a
        E 0 95 4b 64
        E 0 9f 3b 5a
        E 480 82 4b 64
        E 0 83 42 64
        E 0 8f 3b 64
        E 0 92 48 64
        E 0 93 3f 5a
        E 0 9f 39 5a
        E 239 82 48 64
        E 1 92 47 64
        E 239 82 47 64
        E 0 83 3f 64
        E 0 85 4b 64
        E 0 8f 39 64
        E 0 92 4c 64
        E 0 93 3b 5a
        E 0 95 4c 64
        E 0 9f 37 5a
        E 481 82 4c 64
        E 0 83 3b 64
        E 0 85 4c 64
        E 0 8f 37 64
        E 1 92 4a 64
        E 0 93 40 5a
        E 0 95 4a 64
        E 0 9f 39 5a
        E 237 82 4a 64
        E 0 85 4a 64
        E 0 92 48 64
        E 0 95 48 64
        E 243 82 48 64
        E 0 83 40 64
        E 0 85 48 64
        E 0 8f 39 64
        E 0 92 47 64
        E 0 93 3f 5a
        E 0 95 47 64
        E 0 9f 33 5a
        E 479 82 47 64
        E 1 83 3f 64
        E 0 85 47 64
        E 0 8f 33 64
        E 0 92 45 64
        E 0 93 3b 5a
        E 0 95 45 64
        E 0 9f 2f 5a
        E 480 82 45 64
        E 1 83 3b 64
        E 0 85 45 64
        E 0 8f 2f 64
        E 0 92 43 64
        E 0 93 37 5a
        E 0 95 43 64
        E 0 9f 34 5a
        E 477 82 43 64
        E 0 83 37 64
        E 0 85 43 64
        E 0 8f 34 64
        E 0 92 42 64
        E 1 93 3b 5a
        E 0 95 42 64
        E 0 9f 2b 5a
        E 240 82 42 64
        E 0 85 42 64
        E 0 92 40 64
        E 0 95 40 64
        E 240 82 40 64
        E 0 83 3b 64
        E 0 85 40 64
        E 0 8f 2b 64
        E 0 92 42 64
        E 0 93 3c 5a
        E 0 95 42 64
        E 0 9f 2d 5a
        E 479 82 42 64
        E 0 83 3c 64
        E 0 85 42 64
        E 0 8f 2d 64
        E 0 92 3f 64
        E 1 93 3b 5a
        E 0 95 3f 64
        E 0 9f 2f 5a
        E 481 82 3f 64
        E 0 83 3b 64
        E 0 85 3f 64
        E 0 8f 2f 64
        E 0 92 40 64
        E 0 93 3b 5a
        E 0 95 40 64
        E 0 9f 34 5a
        E 479 83 3b 64
        E 0 8f 34 64
        E 0 93 39 5a
        E 0 9f 36 5a
        E 480 82 40 64
        E 0 83 39 64
        E 0 85 40 64
        E 0 8f 36 64
        E 0 93 3b 5a
        E 0 9f 37 5a
        E 479 83 3b 64
        E 0 8f 37 64
        E 0 92 40 64
        E 0 93 37 5a
        E 0 95 40 64
        E 0 9f 34 5a
        E 481 82 40 64
        E 0 83 37 64
        E 0 85 40 64
        E 0 8f 34 64
        E 0 92 47 64
        E 0 93 36 5a
        E 0 95 47 64
        E 0 9f 33 5a
        E 480 82 47 64
        E 0 85 47 64
        E 0 8f 33 64
        E 0 92 45 64
        E 0 95 45 64
        E 1 9f 34 5a
        E 237 82 45 64
        E 0 85 45 64
        E 1 92 43 64
        E 0 95 43 64
        E 241 82 43 64
        E 0 83 36 64
        E 0 85 43 64
        E 0 8f 34 64
        E 0 92 45 64
        E 0 93 3f 5a
        E 0 95 45 64
        E 0 9f 36 5a
        E 481 82 45 64
        E 0 85 45 64
        E 0 8f 36 64
        E 0 92 43 64
        E 0 95 43 64
        E 0 9f 2f 5a
        E 240 82 43 64
        E 0 85 43 64
        E 0 92 42 64
        E 0 95 42 64
        E 237 82 42 64
        E 0 83 3f 64
        E 0 85 42 64
        E 0 8f 2f 64
        E 1 92 43 64
        E 0 93 3b 5a
        E 0 95 43 64
        E 0 9f 34 5a
        E 479 82 43 64
        E 0 83 3b 64
        E 0 85 43 64
        E 0 8f 34 64
        E 0 92 42 64
        E 0 93 3b 5a
        E 0 95 42 64
        E 0 9f 3b 5a
        E 481 82 42 64
        E 1 83 3b 64
        E 0 85 42 64
        E 0 8f 3b 64
        E 0 92 40 64
        E 0 93 3b 5a
        E 0 95 40 64
        E 1 9f 34 5a
        E 481 8f 34 64
        E 479 82 40 64
        E 0 83 3b 64
        E 0 85 40 64
        E 479 92 42 64
        E 0 93 3b 5a
        E 0 95 42 64
        E 0 9f 33 5a
        E 239 82 42 64
        E 0 85 42 64
        E 0 92 43 64
        E 0 95 43 64
        E 239 82 43 64
        E 0 83 3b 64
        E 0 85 43 64
        E 0 8f 33 64
        E 0 92 45 64
        E 0 93 3b 5a
        E 0 95 45 64
        E 1 9f 36 5a
        E 480 82 45 64
        E 0 83 3b 64
        E 0 85 45 64
        E 0 8f 36 64
        E 0 92 43 64
        E 0 93 3b 5a
        E 0 95 43 64
        E 0 9f 2f 5a
        E 242 82 43 64
        E 0 85 43 64
        E 0 92 42 64
        E 0 95 42 64
        E 240 82 42 64
        E 0 83 3b 64
        E 0 85 42 64
        E 0 8f 2f 64
        E 0 92 43 64
        E 0 93 3b 5a
        E 0 95 43 64
        E 0 9f 34 5a
        E 478 82 43 64
        E 0 83 3b 64
        E 0 85 43 64
        E 0 8f 34 64
        E 0 92 42 64
        E 1 93 3b 5a
        E 0 95 42 64
        E 0 9f 3b 5a
        E 481 82 42 64
        E 0 83 3b 64
        E 0 85 42 64
        E 0 8f 3b 64
        E 0 92 40 64
        E 0 93 3b 5a
        E 0 95 40 64
        E 0 9f 34 5a
        E 478 8f 34 64
        E 481 82 40 64
        E 0 83 3b 64
        E 0 85 40 64
        E 481 92 42 64
        E 1 93 3b 5a
        E 1 95 42 64
        E 0 9f 33 5a
        E 237 82 42 64
        E 0 85 42 64
        E 0 92 43 64
        E 0 95 43 64
        E 241 82 43 64
        E 0 83 3b 64
        E 0 85 43 64
        E 0 8f 33 64
        E 0 92 45 64
        E 0 93 3b 5a
        E 0 95 45 64
        E 1 9f 36 5a
        E 477 82 45 64
        E 0 83 3b 64
        E 0 85 45 64
        E 0 8f 36 64
        E 1 92 43 64
        E 0 93 3b 5a
        E 0 95 43 64
        E 0 9f 2f 5a
        E 238 82 43 64
        E 0 85 43 64
        E 0 92 42 64
        E 0 95 42 64
        E 243 82 42 64
        E 0 83 3b 64
        E 0 85 42 64
        E 0 8f 2f 64
        E 0 92 43 64
        E 0 93 3b 5a
        E 0 95 43 64
        E 0 9f 34 5a
        E 478 82 43 64
        E 0 83 3b 64
        E 0 85 43 64
        E 0 8f 34 64
        E 0 92 42 64
        E 1 93 3b 5a
        E 0 95 42 64
        E 0 9f 2f 5a
        E 480 82 42 64
        E 0 83 3b 64
        E 0 85 42 64
        E 0 8f 2f 64
        E 0 92 40 64
        E 0 93 3b 5a
        E 0 95 40 64
        E 0 9f 28 5a
        E 719 82 40 64
        E 0 83 3b 64
        E 0 85 40 64
        E 0 8f 28 64
        E 0 92 40 64
        E 0 93 37 5a
        E 0 95 40 64
        E 0 9f 34 5a
        E 480 82 40 64
        E 0 83 37 64
        E 0 85 40 64
        E 0 8f 34 64
        E 0 92 48 64
        E 1 93 40 5a
        E 0 95 48 64
        E 0 9f 2d 5a
        E 479 82 48 64
        E 0 83 40 64
        E 0 85 48 64
        E 0 8f 2d 64
        E 0 92 48 64
        E 0 93 3c 5a
        E 0 95 48 64
        E 0 9f 39 5a
        E 480 82 48 64
        E 0 83 3c 64
        E 0 85 48 64
        E 0 8f 39 64
        E 0 92 4b 64
        E 0 93 42 5a
        E 0 95 4b 64
        E 0 9f 3b 5a
        E 480 82 4b 64
        E 0 83 42 64
        E 0 85 4b 64
        E 0 8f 3b 64
        E 1 92 4b 64
        E 0 93 3f 5a
        E 0 95 4b 64
        E 0 9f 39 5a
        E 480 82 4b 64
        E 0 83 3f 64
        E 0 85 4b 64
        E 0 8f 39 64
        E 0 92 4c 64
        E 0 93 3b 5a
        E 0 95 4c 64
        E 0 9f 37 5a
        E 481 82 4c 64
        E 0 83 3b 64
        E 0 85 4c 64
        E 0 8f 37 64
        E 0 92 4a 64
        E 0 93 40 5a
        E 0 95 4a 64
        E 0 9f 39 5a
        E 238 82 4a 64
        E 0 85 4a 64
        E 0 92 48 64
        E 0 95 48 64
        E 242 82 48 64
        E 0 83 40 64
        E 0 85 48 64
        E 0 8f 39 64
        E 0 92 47 64
        E 0 93 42 5a
        E 1 95 47 64
        E 0 9f 33 5a
        E 478 82 47 64
        E 0 83 42 64
        E 0 85 47 64
        E 0 8f 33 64
        E 0 92 45 64
        E 0 93 3f 5a
        E 0 95 45 64
        E 0 9f 2f 5a
        E 480 82 45 64
        E 0 83 3f 64
        E 0 85 45 64
        E 0 8f 2f 64
        E 0 92 43 64
        E 0 93 3b 5a
        E 0 95 43 64
        E 0 9f 34 5a
        E 478 82 43 64
        E 1 83 3b 64
        E 0 85 43 64
        E 0 8f 34 64
        E 0 92 42 64
        E 0 93 3b 5a
        E 0 95 42 64
        E 0 9f 2b 5a
        E 240 82 42 64
        E 0 85 42 64
        E 0 92 40 64
        E 0 95 40 64
        E 242 82 40 64
        E 0 83 3b 64
        E 0 85 40 64
        E 0 8f 2b 64
        E 0 92 42 64
        E 0 93 3c 5a
        E 0 95 42 64
        E 0 9f 2d 5a
        E 479 82 42 64
        E 0 83 3c 64
        E 0 85 42 64
        E 0 8f 2d 64
        E 0 92 3f 64
        E 0 93 3b 5a
        E 0 95 3f 64
        E 0 9f 2f 5a
        E 480 82 3f 64
        E 0 83 3b 64
        E 0 85 3f 64
        E 0 8f 2f 64
        E 0 92 47 64
        E 0 93 43 5a
        E 0 95 40 64
        E 0 9f 28 5a
        E 481 83 43 64
        E 0 8f 28 64
        E 1 93 43 5a
        E 0 9f 34 5a
        E 477 82 47 64
        E 0 83 43 64
        E 0 85 40 64
        E 0 8f 34 64
        E 0 92 4a 64
        E 0 92 48 64
        E 0 93 40 5a
        E 0 9f 2d 5a
        E 480 82 4a 64
        E 0 82 48 64
        E 0 83 40 64
        E 0 8f 2d 64
        E 0 92 47 64
        E 0 93 3f 5a
        E 0 9f 2f 5a
        E 240 82 47 64
        E 1 92 45 64
        E 239 82 45 64
        E 0 83 3f 64
        E 0 8f 2f 64
        E 0 92 47 64
        E 0 93 43 5a
        E 0 9f 28 5a
        E 482 83 43 64
        E 0 8f 28 64
        E 0 93 43 5a
        E 0 9f 34 5a
        E 479 82 47 64
        E 0 83 43 64
        E 0 8f 34 64
        E 0 92 4a 64
        E 0 92 48 64
        E 1 93 40 5a
        E 0 9f 2d 5a
        E 479 82 4a 64
        E 0 82 48 64
        E 0 83 40 64
        E 0 8f 2d 64
        E 0 92 47 64
        E 0 93 3f 5a
        E 0 9f 2f 5a
        E 239 82 47 64
        E 1 92 45 64
        E 238 82 45 64
        E 1 83 3f 64
        E 0 8f 2f 64
        E 0 92 47 64
        E 0 93 43 5a
        E 0 9f 28 5a
        E 480 82 47 64
        E 0 83 43 64
        E 0 8f 28 64
        E 0 92 53 64
        E 0 93 43 5a
        E 0 9f 37 5a
        E 479 82 53 64
        E 0 83 43 64
        E 0 8f 37 64
        E 1 92 51 64
        E 0 93 45 5a
        E 0 9f 36 5a
        E 482 82 51 64
        E 0 83 45 64
        E 0 8f 36 64
        E 1 92 4f 64
        E 0 93 47 5a
        E 0 9f 34 5a
        E 478 82 4f 64
        E 0 83 47 64
        E 0 8f 34 64
        E 0 92 4e 64
        E 0 93 3f 5a
        E 0 9f 2f 5a
        E 479 83 3f 64
        E 0 8f 2f 64
        E 1 93 3f 5a
        E 0 9f 3b 5a
        E 480 82 4e 64
        E 0 83 3f 64
        E 0 8f 3b 64
        E 0 92 51 64
        E 0 92 4f 64
        E 0 93 47 5a
        E 0 9f 34 5a
        E 479 82 51 64
        E 0 82 4f 64
        E 0 83 47 64
        E 0 8f 34 64
        E 0 92 4e 64
        E 0 93 47 5a
        E 0 9f 28 5a
        E 240 82 4e 64
        E 0 92 4c 64
        E 242 82 4c 64
        E 0 83 47 64
        E 0 8f 28 64
        E 0 92 4e 64
        E 0 93 3f 5a
        E 0 9f 2f 5a
        E 479 83 3f 64
        E 0 8f 2f 64
        E 0 93 3f 5a
        E 0 9f 3b 5a
        E 480 82 4e 64
        E 0 83 3f 64
        E 0 8f 3b 64
        E 0 92 51 64
        E 0 92 4f 64
        E 0 93 47 5a
        E 0 9f 34 5a
        E 481 82 51 64
        E 0 82 4f 64
        E 0 83 47 64
        E 0 8f 34 64
        E 0 92 4e 64
        E 0 93 49 5a
        E 1 9f 2e 5a
        E 237 82 4e 64
        E 0 92 4c 64
        E 240 82 4c 64
        E 0 83 49 64
        E 0 8f 2e 64
        E 0 92 4b 64
        E 0 93 42 5a
        E 1 9f 2f 5a
        E 240 82 4b 64
        E 1 92 49 64
        E 239 82 49 64
        E 0 83 42 64
        E 0 8f 2f 64
        E 0 92 47 64
        E 0 93 40 5a
        E 0 9f 31 5a
        E 479 82 47 64
        E 0 83 40 64
        E 0 8f 31 64
        E 0 93 42 5a
        E 0 9f 33 5a
        E 482 83 42 64
        E 0 8f 33 64
        E 0 92 4e 64
        E 1 93 40 5a
        E 0 9f 31 5a
        E 477 82 4e 64
        E 0 83 40 64
        E 0 8f 31 64
        E 0 92 45 64
        E 0 93 3e 5a
        E 0 9f 2f 5a
        E 480 82 45 64
        E 0 83 3e 64
        E 0 8f 2f 64
        E 0 92 43 64
        E 0 93 42 5a
        E 0 9f 3b 5a
        E 241 82 43 64
        E 0 92 45 64
        E 240 82 45 64
        E 0 83 42 64
        E 0 8f 3b 64
        E 0 92 47 64
        E 0 93 42 5a
        E 0 9f 3b 5a
        E 480 82 47 64
        E 0 83 42 64
        E 0 8f 3b 64
        E 1 92 45 64
        E 0 93 42 5a
        E 0 9f 2f 5a
        E 479 82 45 64
        E 0 83 42 64
        E 0 8f 2f 64
        E 0 92 43 64
        E 0 93 40 5a
        E 0 9f 2f 5a
        E 479 82 43 64
        E 0 8f 2f 64
        E 0 92 4b 64
        E 0 9f 3b 5a
        E 482 82 4b 64
        E 0 83 40 64
        E 0 8f 3b 64
        E 0 92 4c 64
        E 0 9f 3b 5a
        E 480 82 4c 64
        E 0 8f 3b 64
        E 0 92 4e 64
        E 0 9f 2f 5a
        E 478 82 4e 64
        E 0 8f 2f 64
        E 0 92 45 64
        E 1 93 42 5a
        E 0 9f 2f 5a
        E 479 82 45 64
        E 0 83 42 64
        E 0 8f 2f 64
        E 1 92 43 64
        E 0 93 42 5a
        E 0 9f 3b 5a
        E 239 82 43 64
        E 0 92 45 64
        E 240 82 45 64
        E 0 83 42 64
        E 0 8f 3b 64
        E 0 92 47 64
        E 0 93 42 5a
        E 1 9f 3b 5a
        E 478 82 47 64
        E 1 83 42 64
        E 0 8f 3b 64
        E 0 92 45 64
        E 0 93 42 5a
        E 0 9f 2f 5a
        E 481 82 45 64
        E 0 83 42 64
        E 0 8f 2f 64
        E 0 92 43 64
        E 0 93 40 5a
        E 0 9f 2f 5a
        E 480 82 43 64
        E 0 8f 2f 64
        E 0 92 4b 64
        E 0 9f 3b 5a
        E 481 82 4b 64
        E 0 83 40 64
        E 1 8f 3b 64
        E 0 92 4c 64
        E 0 9f 3b 5a
        E 479 82 4c 64
        E 0 8f 3b 64
        E 1 92 4e 64
        E 0 9f 2f 5a
        E 477 82 4e 64
        E 0 8f 2f 64
        E 0 92 4f 64
        E 0 93 40 5a
        E 0 9f 28 5a
        E 241 82 4f 64
        E 0 92 53 64
        E 240 82 53 64
        E 0 83 40 64
        E 0 8f 28 64
        E 0 92 51 64
        E 0 93 3b 5a
        E 0 9f 34 5a
        E 239 82 51 64
        E 1 92 4f 64
        E 240 82 4f 64
        E 0 83 3b 64
        E 0 8f 34 64
        E 0 92 4e 64
        E 0 93 3b 5a
        E 0 9f 33 5a
        E 239 82 4e 64
        E 1 92 4c 64
        E 240 82 4c 64
        E 0 83 3b 64
        E 0 8f 33 64
        E 0 92 4b 64
        E 0 93 3b 5a
        E 0 9f 2f 5a
        E 241 82 4b 64
        E 0 92 49 64
        E 239 82 49 64
        E 0 83 3b 64
        E 0 8f 2f 64
        E 0 92 47 64
        E 0 93 3b 5a
        E 0 9f 2b 5a
        E 480 82 47 64
        E 0 8f 2b 64
        E 0 92 4c 64
        E 0 9f 34 5a
        E 478 82 4c 64
        E 0 8f 34 64
        E 0 92 43 64
        E 0 9f 3b 5a
        E 482 82 43 64
        E 0 83 3b 64
        E 0 8f 3b 64
        E 0 92 42 64
        E 0 93 3b 5a
        E 0 9f 2f 5a
        E 479 82 42 64
        E 0 83 3b 64
        E 0 8f 2f 64
        E 0 92 40 64
        E 0 93 37 5a
        E 1 9f 28 5a
        E 1440 82 40 64
        E 0 83 37 64
        E 0 8f 28 64
        E 959 92 43 64
        E 0 93 3e 5a
        E 0 95 43 64
        E 0 9f 2b 5a
        E 482 83 3e 64
        E 0 8f 2b 64
        E 0 93 47 5a
        E 0 9f 37 5a
        E 478 82 43 64
        E 0 83 47 64
        E 0 85 43 64
        E 0 8f 37 64
        E 0 92 47 64
        E 0 93 45 5a
        E 0 95 47 64
        E 0 9f 36 5a
        E 482 83 45 64
        E 0 8f 36 64
        E 0 93 43 5a
        E 0 9f 34 5a
        E 239 82 47 64
        E 0 85 47 64
        E 0 92 48 64
        E 0 95 48 64
        E 241 82 48 64
        E 0 83 43 64
        E 0 85 48 64
        E 0 8f 34 64
        E 0 92 4a 64
        E 0 93 42 5a
        E 0 95 4a 64
        E 0 9f 32 5a
        E 478 83 42 64
        E 1 8f 32 64
        E 0 93 43 5a
        E 0 9f 34 5a
        E 481 82 4a 64
        E 0 83 43 64
        E 0 85 4a 64
        E 0 8f 34 64
        E 0 92 3e 64
        E 0 93 45 5a
        E 0 95 3e 64
        E 0 9f 36 5a
        E 480 83 45 64
        E 0 8f 36 64
        E 0 93 41 5a
        E 0 9f 32 5a
        E 480 82 3e 64
        E 0 83 41 64
        E 0 85 3e 64
        E 0 8f 32 64
        E 0 92 45 64
        E 1 93 40 5a
        E 0 95 45 64
        E 0 9f 30 5a
        E 479 83 40 64
        E 0 8f 30 64
        E 0 93 48 5a
        E 0 9f 39 5a
        E 478 82 45 64
        E 0 83 48 64
        E 0 85 45 64
        E 0 8f 39 64
        E 0 92 48 64
        E 1 93 47 5a
        E 0 95 48 64
        E 0 9f 37 5a
        E 479 83 47 64
        E 0 8f 37 64
        E 0 93 45 5a
        E 0 9f 35 5a
        E 242 82 48 64
        E 0 85 48 64
        E 0 92 4a 64
        E 0 95 4a 64
        E 238 82 4a 64
        E 0 83 45 64
        E 0 85 4a 64
        E 0 8f 35 64
        E 0 92 4c 64
        E 0 93 44 5a
        E 0 95 4c 64
        E 0 9f 34 5a
        E 481 83 44 64
        E 0 8f 34 64
        E 0 93 45 5a
        E 1 9f 36 5a
        E 479 82 4c 64
        E 0 83 45 64
        E 0 85 4c 64
        E 0 8f 36 64
        E 0 92 40 64
        E 0 93 47 5a
        E 0 95 40 64
        E 0 9f 38 5a
        E 478 83 47 64
        E 0 8f 38 64
        E 1 93 44 5a
        E 0 9f 34 5a
        E 480 82 40 64
        E 0 83 44 64
        E 0 85 40 64
        E 0 8f 34 64
        E 0 93 40 5a
        E 0 9f 39 5a
        E 481 8f 39 64
        E 0 92 45 64
        E 0 95 45 64
        E 1 9f 3b 5a
        E 479 82 45 64
        E 0 85 45 64
        E 0 8f 3b 64
        E 0 92 45 64
        E 0 95 45 64
        E 0 9f 3c 5a
        E 481 82 45 64
        E 0 83 40 64
        E 0 85 45 64
        E 0 8f 3c 64
        E 0 92 45 64
        E 0 93 3c 5a
        E 0 95 45 64
        E 0 9f 39 5a
        E 480 82 45 64
        E 0 83 3c 64
        E 0 85 45 64
        E 0 8f 39 64
        E 0 92 45 64
        E 0 93 3b 5a
        E 0 95 45 64
        E 0 9f 34 5a
        E 478 82 45 64
        E 0 85 45 64
        E 0 8f 34 64
        E 0 92 44 64
        E 0 95 44 64
        E 0 9f 36 5a
        E 240 82 44 64
        E 1 85 44 64
        E 0 92 45 64
        E 0 95 45 64
        E 240 82 45 64
        E 0 85 45 64
        E 0 8f 36 64
        E 0 92 47 64
        E 0 95 47 64
        E 0 9f 38 5a
        E 481 82 47 64
        E 0 83 3b 64
        E 0 85 47 64
        E 0 8f 38 64
        E 0 92 47 64
        E 0 93 44 5a
        E 1 95 47 64
        E 0 9f 34 5a
        E 478 82 47 64
        E 0 83 44 64
        E 0 85 47 64
        E 0 8f 34 64
        E 0 92 47 64
        E 0 93 40 5a
        E 0 95 47 64
        E 0 9f 39 5a
        E 479 82 47 64
        E 0 85 47 64
        E 0 8f 39 64
        E 0 92 45 64
        E 0 95 45 64
        E 0 9f 38 5a
        E 240 82 45 64
        E 0 85 45 64
        E 1 92 47 64
        E 0 95 47 64
        E 241 82 47 64
        E 1 85 47 64
        E 0 8f 38 64
        E 0 92 48 64
        E 0 95 48 64
        E 0 9f 39 5a
        E 479 82 48 64
        E 0 83 40 64
        E 0 85 48 64
        E 0 8f 39 64
        E 0 92 48 64
        E 0 93 3c 5a
        E 0 95 48 64
        E 0 9f 2d 5a
        E 479 82 48 64
        E 0 83 3c 64
        E 0 85 48 64
        E 0 8f 2d 64
        E 0 92 48 64
        E 0 93 3e 5a
        E 0 95 48 64
        E 0 9f 3b 5a
        E 479 82 48 64
        E 1 85 48 64
        E 0 8f 3b 64
        E 0 92 47 64
        E 0 95 47 64
        E 0 9f 3c 5a
        E 239 82 47 64
        E 0 85 47 64
        E 0 92 48 64
        E 0 95 48 64
        E 239 82 48 64
        E 1 85 48 64
        E 0 8f 3c 64
        E 0 92 4a 64
        E 0 95 4a 64
        E 0 9f 3b 5a
        E 480 82 4a 64
        E 0 83 3e 64
        E 0 85 4a 64
        E 0 8f 3b 64
        E 0 92 4a 64
        E 0 93 3e 5a
        E 0 95 4a 64
        E 0 9f 39 5a
        E 481 82 4a 64
        E 0 83 3e 64
        E 0 85 4a 64
        E 0 8f 39 64
        E 0 92 40 64
        E 0 93 3b 5a
        E 0 95 40 64
        E 0 9f 38 5a
        E 480 82 40 64
        E 0 85 40 64
        E 0 8f 38 64
        E 0 92 44 64
        E 0 95 44 64
        E 0 9f 34 5a
        E 481 82 44 64
        E 0 85 44 64
        E 0 8f 34 64
        E 0 92 47 64
        E 0 95 47 64
        E 0 9f 36 5a
        E 480 82 47 64
        E 0 83 3b 64
        E 0 85 47 64
        E 0 8f 36 64
        E 0 92 4a 64
        E 0 93 40 5a
        E 0 95 4a 64
        E 0 9f 38 5a
        E 479 82 4a 64
        E 0 83 40 64
        E 0 85 4a 64
        E 0 8f 38 64
        E 0 92 48 64
        E 0 93 40 5a
        E 0 95 48 64
        E 0 9f 39 5a
        E 479 82 48 64
        E 0 83 40 64
        E 0 85 48 64
        E 0 8f 39 64
        E 0 92 47 64
        E 1 93 40 5a
        E 0 95 47 64
        E 0 9f 30 5a
        E 240 82 47 64
        E 0 85 47 64
        E 0 92 45 64
        E 0 95 45 64
        E 240 82 45 64
        E 0 83 40 64
        E 0 85 45 64
        E 0 8f 30 64
        E 0 92 47 64
        E 0 93 41 5a
        E 0 95 47 64
        E 0 9f 32 5a
        E 480 82 47 64
        E 0 83 41 64
        E 0 85 47 64
        E 0 8f 32 64
        E 0 92 45 64
        E 0 93 3b 5a
        E 0 95 45 64
        E 0 9f 34 5a
        E 239 82 45 64
        E 0 85 45 64
        E 0 92 44 64
        E 0 95 44 64
        E 240 82 44 64
        E 0 83 3b 64
        E 0 85 44 64
        E 0 8f 34 64
        E 0 92 45 64
        E 0 93 3c 5a
        E 0 95 45 64
        E 0 9f 2d 5a
        E 480 83 3c 64
        E 0 8f 2d 64
        E 1 93 40 5a
        E 0 9f 3c 5a
        E 482 82 45 64
        E 0 83 40 64
        E 0 85 45 64
        E 0 8f 3c 64
        E 0 93 3e 5a
        E 0 9f 3b 5a
        E 478 83 3e 64
        E 0 8f 3b 64
        E 0 93 3d 5a
        E 1 9f 3a 5a
        E 479 83 3d 64
        E 0 8f 3a 64
        E 0 93 3e 5a
        E 0 9f 3b 5a
        E 481 83 3e 64
        E 0 8f 3b 64
        E 0 92 47 64
        E 0 93 40 5a
        E 0 95 47 64
        E 0 9f 3d 5a
        E 480 82 47 64
        E 0 83 40 64
        E 0 85 47 64
        E 0 8f 3d 64
        E 0 92 47 64
        E 0 93 42 5a
        E 1 95 47 64
        E 0 9f 3e 5a
        E 477 82 47 64
        E 0 83 42 64
        E 0 85 47 64
        E 0 8f 3e 64
        E 0 92 47 64
        E 0 93 3e 5a
        E 0 95 47 64
        E 0 9f 3b 5a
        E 482 82 47 64
        E 0 83 3e 64
        E 0 85 47 64
        E 0 8f 3b 64
        E 0 92 47 64
        E 0 93 3d 5a
        E 0 95 47 64
        E 0 9f 36 5a
        E 480 82 47 64
        E 0 85 47 64
        E 0 8f 36 64
        E 0 92 46 64
        E 0 95 46 64
        E 0 9f 38 5a
        E 240 82 46 64
        E 0 85 46 64
        E 0 92 47 64
        E 0 95 47 64
        E 240 82 47 64
        E 0 85 47 64
        E 0 8f 38 64
        E 0 92 49 64
        E 0 95 49 64
        E 0 9f 3a 5a
        E 479 82 49 64
        E 0 83 3d 64
        E 0 85 49 64
        E 0 8f 3a 64
        E 0 92 49 64
        E 0 93 46 5a
        E 0 95 49 64
        E 0 9f 36 5a
        E 479 82 49 64
        E 0 83 46 64
        E 0 85 49 64
        E 1 8f 36 64
        E 0 92 49 64
        E 0 93 42 5a
        E 0 95 49 64
        E 0 9f 3b 5a
        E 479 82 49 64
        E 0 85 49 64
        E 0 8f 3b 64
        E 0 92 47 64
        E 0 95 47 64
        E 0 9f 3a 5a
        E 241 82 47 64
        E 0 85 47 64
        E 1 92 49 64
        E 2 95 49 64
        E 237 82 49 64
        E 0 85 49 64
        E 0 8f 3a 64
        E 0 92 4a 64
        E 0 95 4a 64
        E 0 9f 3b 5a
        E 479 82 4a 64
        E 0 83 42 64
        E 0 85 4a 64
        E 0 8f 3b 64
        E 0 92 4a 64
        E 0 93 42 5a
        E 0 95 4a 64
        E 0 9f 2f 5a
        E 481 82 4a 64
        E 0 83 42 64
        E 0 85 4a 64
        E 0 8f 2f 64
        E 0 92 49 64
        E 0 93 3a 5a
        E 0 95 49 64
        E 0 9f 36 5a
        E 481 82 49 64
        E 0 85 49 64
        E 0 8f 36 64
        E 0 92 42 64
        E 0 95 42 64
        E 0 9f 34 5a
        E 479 82 42 64
        E 0 83 3a 64
        E 0 85 42 64
        E 0 8f 34 64
        E 0 9f 32 5a
        E 480 8f 32 64
        E 0 92 42 64
        E 0 93 3e 5a
        E 0 95 42 64
        E 0 9f 2f 5a
        E 479 82 42 64
        E 0 83 3e 64
        E 0 85 42 64
        E 0 8f 2f 64
        E 0 92 44 64
        E 0 93 40 5a
        E 0 95 44 64
        E 0 9f 34 5a
        E 961 82 44 64
        E 0 83 40 64
        E 0 85 44 64
        E 0 8f 34 64
        E 0 92 46 64
        E 0 93 42 5a
        E 0 95 46 64
        E 0 9f 36 5a
        E 961 82 46 64
        E 0 83 42 64
        E 0 85 46 64
        E 0 8f 36 64
        E 0 92 47 64
        E 0 93 43 5a
        E 0 95 47 64
        E 0 9f 37 5a
        E 960 82 47 64
        E 0 83 43 64
        E 0 85 47 64
        E 0 8f 37 64
        E 478 92 49 64
        E 0 93 40 5a
        E 0 95 49 64
        E 0 9f 34 5a
        E 480 82 49 64
        E 0 83 40 64
        E 0 85 49 64
        E 0 8f 34 64
        E 1 92 42 64
        E 0 93 42 5a
        E 0 95 42 64
        E 0 9f 36 5a
        E 961 82 42 64
        E 0 83 42 64
        E 0 85 42 64
        E 0 8f 36 64
        E 0 92 49 64
        E 0 93 42 5a
        E 0 95 49 64
        E 0 9f 2a 5a
        E 960 82 49 64
        E 0 83 42 64
        E 0 85 49 64
        E 0 8f 2a 64
        E 0 92 47 64
        E 0 93 3b 5a
        E 0 95 47 64
        E 0 9f 2f 5a
        E 2879 82 47 64
        E 0 83 3b 64
        E 0 85 47 64
        E 0 8f 2f 64
        E 0 97 48 64
        E 0 9e 48 64
        E 0 9f 30 5a
        E 240 87 48 64
        E 0 8e 48 64
        E 0 97 43 64
        E 0 9e 43 64
        E 241 87 43 64
        E 0 8e 43 64
        E 0 97 43 64
        E 0 9e 43 64
        E 479 87 43 64
        E 0 8e 43 64
        E 481 96 4c 64
        E 0 9e 4c 64
        E 479 86 4c 64
        E 0 8e 4c 64
        E 0 96 48 64
        E 0 9e 48 64
        E 480 86 48 64
        E 1 8e 48 64
        E 0 96 48 64
        E 0 9e 48 64
        E 479 86 48 64
        E 0 8e 48 64
        E 240 97 43 64
        E 1 9e 43 64
        E 238 87 43 64
        E 0 8e 43 64
        E 0 97 43 64
        E 0 9e 43 64
        E 240 87 43 64
        E 1 8e 43 64
        E 0 97 48 64
        E 0 9e 48 64
        E 240 87 48 64
        E 0 8e 48 64
        E 0 8f 30 64
        E 0 97 45 64
        E 0 9e 45 64
        E 0 9f 35 5a
        E 960 87 45 64
        E 0 8e 45 64
        E 481 96 41 64
        E 0 9e 41 64
        E 477 86 41 64
        E 1 8e 41 64
        E 0 96 45 64
        E 0 9e 45 64
        E 482 86 45 64
        E 0 8e 45 64
        E 0 96 45 64
        E 0 9e 45 64
        E 479 86 45 64
        E 0 8e 45 64
        E 959 8f 35 64
        E 0 97 48 64
        E 0 9e 48 64
        E 0 9f 35 5a
        E 962 87 48 64
        E 0 8e 48 64
        E 0 97 48 64
        E 0 9e 48 64
        E 477 87 48 64
        E 0 8e 48 64
        E 0 97 4a 64
        E 1 9e 4a 64
        E 480 87 4a 64
        E 0 8e 4a 64
        E 0 8f 35 64
        E 0 97 46 66
        E 0 9e 46 66
        E 0 9f 2e 5b
        E 961 87 46 66
        E 0 8e 46 66
        E 959 8f 2e 66
        E 0 97 41 64
        E 0 9e 41 64
        E 0 9f 2e 5b
        E 481 87 41 64
        E 0 8e 41 64
        E 0 97 41 64
        E 1 9e 41 64
        E 238 87 41 64
        E 0 8e 41 64
        E 0 97 41 64
        E 0 9e 41 64
        E 241 87 41 64
        E 0 8e 41 64
        E 0 97 46 66
        E 0 9e 46 66
        E 479 87 46 66
        E 0 8e 46 66
        E 0 97 48 64
        E 0 9e 48 64
        E 480 87 48 64
        E 0 8e 48 64
        E 0 8f 2e 66
        E 0 97 4a 64
        E 0 9e 4a 64
        E 0 9f 36 5a
        E 480 87 4a 64
        E 0 8e 4a 64
        E 0 97 4a 64
        E 0 9e 4a 64
        E 481 87 4a 64
        E 0 8e 4a 64
        E 479 97 4a 64
        E 0 9e 4a 64
        E 481 87 4a 64
        E 0 8e 4a 64
        E 0 8f 36 64
        E 0 97 45 64
        E 0 9e 45 64
        E 0 9f 36 5a
        E 479 87 45 64
        E 0 8e 45 64
        E 0 97 45 64
        E 1 9e 45 64
        E 481 87 45 64
        E 0 8e 45 64
        E 0 97 48 64
        E 0 9e 48 64
        E 478 87 48 64
        E 0 8e 48 64
        E 0 97 46 66
        E 0 9e 46 66
        E 481 87 46 66
        E 0 8e 46 66
        E 0 8f 36 64
        E 0 97 43 64
        E 0 9e 43 64
        E 0 9f 37 5a
        E 481 87 43 64
        E 0 8e 43 64
        E 0 97 43 64
        E 0 9e 43 64
        E 480 87 43 64
        E 0 8e 43 64
        E 239 97 4a 64
        E 1 9e 4a 64
        E 238 87 4a 64
        E 0 8e 4a 64
        E 0 97 4a 64
        E 0 9e 4a 64
        E 240 87 4a 64
        E 0 8e 4a 64
        E 0 97 48 64
        E 0 9e 48 64
        E 241 87 48 64
        E 0 8e 48 64
        E 0 8f 37 64
        E 0 97 48 64
        E 0 9e 48 64
        E 0 9f 34 5a
        E 481 87 48 64
        E 0 8e 48 64
        E 0 97 48 64
        E 0 9e 48 64
        E 478 87 48 64
        E 0 8e 48 64
        E 0 97 48 64
        E 0 9e 48 64
        E 481 87 48 64
        E 0 8e 48 64
        E 0 97 43 64
        E 0 9e 43 64
        E 241 87 43 64
        E 0 8e 43 64
        E 0 97 45 64
        E 0 9e 45 64
        E 239 87 45 64
        E 0 8e 45 64
        E 0 8f 34 64
        E 0 97 41 64
        E 0 9e 41 64
        E 0 9f 35 5a
        E 480 87 41 64
        E 0 8e 41 64
        E 0 97 41 64
        E 0 9e 41 64
        E 480 87 41 64
        E 0 8e 41 64
        E 481 97 41 64
        E 0 9e 41 64
        E 477 87 41 64
        E 0 8e 41 64
        E 0 8f 35 64
        E 0 97 45 64
        E 0 9e 45 64
        E 0 9f 35 5a
        E 480 87 45 64
        E 0 8e 45 64
        E 0 97 45 64
        E 1 9e 45 64
        E 482 87 45 64
        E 0 8e 45 64
        E 0 97 45 64
        E 0 9e 45 64
        E 479 87 45 64
        E 0 8e 45 64
        E 0 97 47 64
        E 0 9e 47 64
        E 480 87 47 64
        E 0 8e 47 64
        E 0 97 47 64
        E 0 9e 47 64
        E 479 87 47 64
        E 0 8e 47 64
        E 0 97 47 64
        E 1 9e 47 64
        E 481 87 47 64
        E 0 8e 47 64
        E 479 97 4a 64
        E 0 9e 4a 64
        E 241 87 4a 64
        E 0 8e 4a 64
        E 0 97 4a 64
        E 0 9e 4a 64
        E 240 87 4a 64
        E 0 8e 4a 64
        E 0 8f 35 64
        E 0 97 47 64
        E 0 9e 47 64
        E 0 9f 35 5a
        E 958 87 47 64
        E 0 8e 47 64
        E 1 97 45 64
        E 0 9e 45 64
        E 480 87 45 64
        E 0 8e 45 64
        E 0 97 43 64
        E 0 9e 43 64
        E 480 87 43 64
        E 0 8e 43 64
        E 0 8f 35 64
        E 0 97 48 64
        E 0 9e 48 64
        E 0 9f 34 5a
        E 479 87 48 64
        E 0 8e 48 64
        E 0 97 48 64
        E 0 9e 48 64
        E 480 87 48 64
        E 0 8e 48 64
        E 240 97 4c 64
        E 0 9e 4c 64
        E 242 87 4c 64
        E 0 8e 4c 64
        E 0 97 4c 64
        E 0 9e 4c 64
        E 238 87 4c 64
        E 0 8e 4c 64
        E 1 97 4c 64
        E 0 9e 4c 64
        E 240 87 4c 64
        E 0 8e 4c 64
        E 0 8f 34 64
        E 0 97 49 64
        E 0 9e 49 64
        E 0 9f 37 5a
        E 479 87 49 64
        E 0 8e 49 64
        E 0 97 49 64
        E 0 9e 49 64
        E 481 87 49 64
        E 0 8e 49 64
        E 960 97 49 64
        E 0 9e 49 64
        E 479 87 49 64
        E 0 8e 49 64
        E 0 97 49 64
        E 0 9e 49 64
        E 481 87 49 64
        E 1 8e 49 64
        E 0 97 49 64
        E 0 9e 49 64
        E 480 87 49 64
        E 0 8e 49 64
        E 0 97 49 64
        E 0 9e 49 64
        E 240 87 49 64
        E 0 8e 49 64
        E 1 97 4a 64
        E 0 9e 4a 64
        E 237 87 4a 64
        E 0 8e 4a 64
        E 0 8f 37 64
        E 0 97 45 64
        E 0 9e 45 64
        E 0 9f 39 5a
        E 479 87 45 64
        E 0 8e 45 64
        E 0 97 45 64
        E 0 9e 45 64
        E 481 87 45 64
        E 0 8e 45 64
        E 0 8f 39 64
        E 0 9f 32 5a
        E 962 8f 32 64
        E 0 96 41 64
        E 0 9e 41 64
        E 0 9f 32 5a
        E 960 86 41 64
        E 0 8e 41 64
        E 0 96 41 64
        E 0 9e 41 64
        E 479 86 41 64
        E 0 8e 41 64
        E 0 96 43 64
        E 0 9e 43 64
        E 481 86 43 64
        E 0 8e 43 64
        E 0 8f 32 64
        E 0 96 45 64
        E 0 9e 45 64
        E 0 9f 32 5a
        E 478 86 45 64
        E 0 8e 45 64
        E 0 96 45 64
        E 0 9e 45 64
        E 481 86 45 64
        E 0 8e 45 64
        E 240 96 45 64
        E 0 9e 45 64
        E 240 86 45 64
        E 0 8e 45 64
        E 0 96 45 64
        E 0 9e 45 64
        E 238 86 45 64
        E 0 8e 45 64
        E 0 96 46 66
        E 0 9e 46 66
        E 243 86 46 66
        E 0 8e 46 66
        E 0 8f 32 64
        E 0 96 48 64
        E 0 9e 48 64
        E 0 9f 36 5a
        E 479 86 48 64
        E 0 8e 48 64
        E 0 96 48 64
        E 1 9e 48 64
        E 479 86 48 64
        E 0 8e 48 64
        E 0 96 45 64
        E 0 9e 45 64
        E 239 86 45 64
        E 0 8e 45 64
        E 0 96 45 64
        E 0 9e 45 64
        E 240 86 45 64
        E 0 8e 45 64
        E 0 96 45 64
        E 0 9e 45 64
        E 239 86 45 64
        E 0 8e 45 64
        E 0 96 43 64
        E 0 9e 43 64
        E 241 86 43 64
        E 0 8e 43 64
        E 0 8f 36 64
        E 0 96 42 64
        E 0 9e 42 64
        E 0 9f 30 5a
        E 480 86 42 64
        E 0 8e 42 64
        E 0 96 42 64
        E 1 9e 42 64
        E 481 86 42 64
        E 0 8e 42 64
        E 479 96 45 64
        E 0 9e 45 64
        E 239 86 45 64
        E 0 8e 45 64
        E 0 96 46 66
        E 1 9e 46 66
        E 240 86 46 66
        E 0 8e 46 66
        E 0 96 48 64
        E 0 9e 48 64
        E 959 86 48 64
        E 0 8e 48 64
        E 0 96 48 64
        E 0 9e 48 64
        E 480 86 48 64
        E 0 8e 48 64
        E 0 96 46 66
        E 0 9e 46 66
        E 480 86 46 66
        E 0 8e 46 66
        E 0 8f 30 64
        E 0 96 43 64
        E 0 9e 43 64
        E 0 9f 2b 5a
        E 960 86 43 64
        E 0 8e 43 64
        E 480 97 46 66
        E 0 9e 46 66
        E 481 87 46 66
        E 0 8e 46 66
        E 1 97 4a 64
        E 0 9e 4a 64
        E 958 87 4a 64
        E 0 8e 4a 64
        E 241 96 3e 64
        E 0 9e 3e 64
        E 239 86 3e 64
        E 0 8e 3e 64
        E 0 96 3e 64
        E 0 9e 3e 64
        E 240 86 3e 64
        E 0 8e 3e 64
        E 0 96 3e 64
        E 0 9e 3e 64
        E 241 86 3e 64
        E 0 8e 3e 64
        E 0 8f 2b 64
        E 0 96 43 64
        E 0 9e 43 64
        E 0 9f 2b 5a
        E 479 86 43 64
        E 1 8e 43 64
        E 0 96 43 64
        E 0 9e 43 64
        E 479 86 43 64
        E 0 8e 43 64
        E 1 96 43 64
        E 0 9e 43 64
        E 479 86 43 64
        E 0 8e 43 64
        E 0 96 45 64
        E 0 9e 45 64
        E 482 86 45 64
        E 0 8e 45 64
        E 0 8f 2b 64
        E 0 96 45 64
        E 0 9e 45 64
        E 0 9f 31 5a
        E 478 86 45 64
        E 0 8e 45 64
        E 0 96 45 64
        E 0 9e 45 64
        E 480 86 45 64
        E 0 8e 45 64
        E 961 8f 31 64
        E 1 96 45 64
        E 0 9e 45 64
        E 0 9f 31 5a
        E 479 86 45 64
        E 0 8e 45 64
        E 0 96 40 64
        E 0 9e 40 64
        E 239 86 40 64
        E 0 8e 40 64
        E 3 96 40 64
        E 0 9e 40 64
        E 239 86 40 64
        E 0 8e 40 64
        E 0 96 43 64
        E 0 9e 43 64
        E 479 86 43 64
        E 0 8e 43 64
        E 1 96 41 64
        E 0 9e 41 64
        E 480 86 41 64
        E 0 8e 41 64
        E 0 8f 31 64
        E 0 96 3e 64
        E 0 9e 3e 64
        E 0 9f 32 5a
        E 960 86 3e 64
        E 0 8e 3e 64
        E 239 96 45 64
        E 0 9e 45 64
        E 240 86 45 64
        E 0 8e 45 64
        E 0 96 45 64
        E 0 9e 45 64
        E 239 86 45 64
        E 0 8e 45 64
        E 1 96 47 64
        E 0 9e 47 64
        E 240 86 47 64
        E 0 8e 47 64
        E 0 8f 32 64
        E 0 96 44 64
        E 0 9e 44 64
        E 0 9f 32 5a
        E 479 86 44 64
        E 1 8e 44 64
        E 0 96 44 64
        E 0 9e 44 64
        E 479 86 44 64
        E 0 8e 44 64
        E 482 96 40 64
        E 0 9e 40 64
        E 477 86 40 64
        E 0 8e 40 64
        E 1 96 47 64
        E 0 9e 47 64
        E 482 86 47 64
        E 0 8e 47 64
        E 0 96 47 64
        E 0 9e 47 64
        E 478 86 47 64
        E 0 8e 47 64
        E 0 96 47 64
        E 0 9e 47 64
        E 481 86 47 64
        E 0 8e 47 64
        E 1 96 48 64
        E 0 9e 48 64
        E 478 86 48 64
        E 0 8e 48 64
        E 0 8f 32 64
        E 0 96 45 64
        E 0 9e 45 64
        E 0 9f 2d 5a
        E 480 86 45 64
        E 0 8e 45 64
        E 1 96 45 64
        E 0 9e 45 64
        E 480 86 45 64
        E 1 8e 45 64
        E 958 96 48 64
        E 0 9e 48 64
        E 962 86 48 64
        E 0 8e 48 64
        E 0 96 48 64
        E 0 9e 48 64
        E 479 86 48 64
        E 0 8e 48 64
        E 0 96 47 64
        E 0 9e 47 64
        E 479 86 47 64
        E 0 8e 47 64
        E 1 8f 2d 64
        E 0 96 47 64
        E 0 9e 47 64
        E 0 9f 33 5a
        E 480 86 47 64
        E 0 8e 47 64
        E 0 96 47 64
        E 0 9e 47 64
        E 481 86 47 64
        E 0 8e 47 64
        E 960 96 47 64
        E 0 9e 47 64
        E 478 86 47 64
        E 0 8e 47 64
        E 1 96 48 64
        E 0 9e 48 64
        E 481 86 48 64
        E 0 8e 48 64
        E 0 96 45 64
        E 0 9e 45 64
        E 479 86 45 64
        E 0 8e 45 64
        E 0 96 45 64
        E 0 9e 45 64
        E 239 86 45 64
        E 0 8e 45 64
        E 1 96 43 64
        E 0 9e 43 64
        E 240 86 43 64
        E 0 8e 43 64
        E 0 8f 33 64
        E 0 96 43 64
        E 0 9e 43 64
        E 0 9f 34 5a
        E 480 86 43 64
        E 0 8e 43 64
        E 1 96 43 64
        E 0 9e 43 64
        E 478 86 43 64
        E 1 8e 43 64
        E 479 97 4c 64
        E 0 9e 4c 64
        E 480 87 4c 64
        E 0 8e 4c 64
        E 0 97 47 64
        E 0 9e 47 64
        E 482 87 47 64
        E 0 8e 47 64
        E 0 97 47 64
        E 0 9e 47 64
        E 479 87 47 64
        E 0 8e 47 64
        E 480 97 43 64
        E 0 9e 43 64
        E 480 87 43 64
        E 0 8e 43 64
        E 0 8f 34 64
        E 0 97 48 64
        E 0 9e 48 64
        E 0 9f 2d 5a
        E 481 87 48 64
        E 0 8e 48 64
        E 0 97 48 64
        E 0 9e 48 64
        E 477 87 48 64
        E 0 8e 48 64
        E 962 97 48 64
        E 0 9e 48 64
        E 481 87 48 64
        E 0 8e 48 64
        E 0 97 48 64
        E 1 9e 48 64
        E 479 87 48 64
        E 0 8e 48 64
        E 0 97 48 64
        E 0 9e 48 64
        E 478 87 48 64
        E 0 8e 48 64
        E 0 97 4a 64
        E 0 9e 4a 64
        E 240 87 4a 64
        E 0 8e 4a 64
        E 0 97 4c 64
        E 0 9e 4c 64
        E 241 87 4c 64
        E 0 8e 4c 64
        E 0 8f 2d 64
        E 0 97 47 64
        E 0 9e 47 64
        E 0 9f 2f 5a
        E 959 87 47 64
        E 0 8e 47 64
        E 0 8f 2f 64
        E 1 9f 34 5a
        E 960 8f 34 64
        E 0 96 40 64
        E 0 9e 40 64
        E 0 9f 34 5a
        E 960 86 40 64
        E 0 8e 40 64
        E 480 96 43 64
        E 0 9e 43 64
        E 239 86 43 64
        E 0 8e 43 64
        E 0 96 45 64
        E 0 9e 45 64
        E 241 8f 34 64
        E 0 86 45 64
        E 0 8e 45 64
        E 0 9f 34 5a
        E 0 96 47 64
        E 0 9e 47 64
        E 479 86 47 64
        E 0 8e 47 64
        E 0 96 47 64
        E 0 9e 47 64
        E 480 86 47 64
        E 0 8e 47 64
        E 480 96 47 64
        E 1 9e 47 64
        E 241 86 47 64
        E 0 8e 47 64
        E 0 96 47 64
        E 0 9e 47 64
        E 240 86 47 64
        E 0 8e 47 64
        E 0 96 43 64
        E 0 9e 43 64
        E 479 86 43 64
        E 0 8e 43 64
        E 0 96 43 64
        E 0 9e 43 64
        E 480 86 43 64
        E 0 8e 43 64
        E 481 96 43 64
        E 0 9e 43 64
        E 239 86 43 64
        E 0 8e 43 64
        E 0 96 42 64
        E 0 9e 42 64
        E 241 86 42 64
        E 0 8e 42 64
        E 0 8f 34 64
        E 0 96 42 64
        E 0 9e 42 64
        E 0 9f 2e 5a
        E 480 86 42 64
        E 0 8e 42 64
        E 0 96 42 64
        E 0 9e 42 64
        E 478 86 42 64
        E 0 8e 42 64
        E 241 96 46 64
        E 0 9e 46 64
        E 241 86 46 64
        E 0 8e 46 64
        E 1 96 44 64
        E 1 9e 44 64
        E 235 86 44 64
        E 0 8e 44 64
        E 0 96 42 64
        E 0 9e 42 64
        E 242 86 42 64
        E 0 8e 42 64
        E 0 8f 2e 64
        E 0 96 47 64
        E 0 9e 47 64
        E 0 9f 32 5a
        E 480 86 47 64
        E 0 8e 47 64
        E 0 96 47 64
        E 0 9e 47 64
        E 479 86 47 64
        E 0 8e 47 64
        E 960 8f 32 64
        E 0 96 47 64
        E 0 9e 47 64
        E 0 9f 32 5a
        E 481 86 47 64
        E 0 8e 47 64
        E 0 96 42 64
        E 0 9e 42 64
        E 241 86 42 64
        E 0 8e 42 64
        E 0 96 42 64
        E 2 9e 42 64
        E 235 86 42 64
        E 0 8e 42 64
        E 0 96 42 64
        E 0 9e 42 64
        E 483 86 42 64
        E 0 8e 42 64
        E 0 96 44 64
        E 0 9e 44 64
        E 479 86 44 64
        E 0 8e 44 64
        E 0 8f 32 64
        E 0 96 41 63
        E 0 9e 41 63
        E 0 9f 2f 5a
        E 480 86 41 63
        E 0 8e 41 63
        E 0 96 41 63
        E 0 9e 41 63
        E 479 86 41 63
        E 0 8e 41 63
        E 479 96 49 64
        E 0 9e 49 64
        E 481 86 49 64
        E 0 8e 49 64
        E 1 8f 2f 64
        E 0 96 45 64
        E 0 9e 45 64
        E 0 9f 36 5a
        E 479 86 45 64
        E 0 8e 45 64
        E 0 96 45 64
        E 0 9e 45 64
        E 481 86 45 64
        E 0 8e 45 64
        E 480 96 42 64
        E 1 9e 42 64
        E 479 86 42 64
        E 0 8e 42 64
        E 0 8f 36 64
        E 0 96 47 64
        E 0 9e 47 64
        E 0 9f 32 5a
        E 480 86 47 64
        E 0 8e 47 64
        E 0 96 47 64
        E 1 9e 47 64
        E 480 86 47 64
        E 0 8e 47 64
        E 480 96 4a 64
        E 0 9e 4a 64
        E 237 86 4a 64
        E 0 8e 4a 64
        E 0 96 4a 64
        E 1 9e 4a 64
        E 241 86 4a 64
        E 0 8e 4a 64
        E 0 8f 32 64
        E 0 96 47 64
        E 0 9e 47 64
        E 0 9f 32 5a
        E 959 86 47 64
        E 0 8e 47 64
        E 0 96 47 64
        E 0 9e 47 64
        E 480 86 47 64
        E 0 8e 47 64
        E 1 96 45 64
        E 0 9e 45 64
        E 481 86 45 64
        E 0 8e 45 64
        E 0 8f 32 64
        E 0 96 42 64
        E 0 9e 42 64
        E 0 9f 31 5a
        E 960 86 42 64
        E 0 8e 42 64
        E 0 8f 31 64
        E 0 9f 2a 5a
        E 958 8f 2a 64
        E 0 9f 2a 5a
        E 482 97 49 64
        E 0 9e 49 64
        E 478 87 49 64
        E 0 8e 49 64
        E 0 97 49 64
        E 0 9e 49 64
        E 480 87 49 64
        E 0 8e 49 64
        E 1 97 49 64
        E 0 9e 49 64
        E 479 87 49 64
        E 0 8e 49 64
        E 0 97 45 64
        E 0 9e 45 64
        E 481 87 45 64
        E 0 8e 45 64
        E 0 97 45 64
        E 0 9e 45 64
        E 480 87 45 64
        E 0 8e 45 64
        E 960 8f 2a 64
        E 0 97 45 64
        E 0 9e 45 64
        E 0 9f 2a 5a
        E 481 87 45 64
        E 0 8e 45 64
        E 0 97 45 64
        E 0 9e 45 64
        E 239 87 45 64
        E 0 8e 45 64
        E 0 97 45 64
        E 0 9e 45 64
        E 241 87 45 64
        E 0 8e 45 64
        E 0 97 45 64
        E 0 9e 45 64
        E 478 87 45 64
        E 0 8e 45 64
        E 1 97 45 64
        E 0 9e 45 64
        E 479 87 45 64
        E 0 8e 45 64
        E 0 97 4a 64
        E 0 9e 4a 64
        E 479 87 4a 64
        E 0 8e 4a 64
        E 0 97 4a 64
        E 0 9e 4a 64
        E 482 87 4a 64
        E 0 8e 4a 64
        E 239 97 4a 64
        E 0 9e 4a 64
        E 241 87 4a 64
        E 0 8e 4a 64
        E 0 97 4a 64
        E 0 9e 4a 64
        E 239 87 4a 64
        E 0 8e 4a 64
        E 0 97 4c 64
        E 0 9e 4c 64
        E 241 87 4c 64
        E 0 8e 4c 64
        E 0 8f 2a 64
        E 0 97 48 64
        E 0 9e 48 64
        E 0 9f 2a 5a
        E 479 87 48 64
        E 0 8e 48 64
        E 1 97 48 64
        E 0 9e 48 64
        E 479 87 48 64
        E 0 8e 48 64
        E 241 97 45 64
        E 0 9e 45 64
        E 239 87 45 64
        E 0 8e 45 64
        E 0 97 48 64
        E 0 9e 48 64
        E 241 87 48 64
        E 0 8e 48 64
        E 0 97 47 64
        E 1 9e 47 64
        E 239 87 47 64
        E 0 8e 47 64
        E 0 8f 2a 64
        E 0 97 43 64
        E 0 9e 43 64
        E 0 9f 2b 5a
        E 481 87 43 64
        E 0 8e 43 64
        E 0 97 43 64
        E 0 9e 43 64
        E 478 87 43 64
        E 0 8e 43 64
        E 482 97 4a 64
        E 0 9e 4a 64
        E 480 87 4a 64
        E 0 8e 4a 64
        E 0 8f 2b 64
        E 0 97 47 64
        E 0 9e 47 64
        E 0 9f 2b 5a
        E 479 87 47 64
        E 0 8e 47 64
        E 0 97 47 64
        E 0 9e 47 64
        E 479 87 47 64
        E 1 8e 47 64
        E 0 97 47 64
        E 0 9e 47 64
        E 479 87 47 64
        E 0 8e 47 64
        E 1 97 47 64
        E 0 9e 47 64
        E 238 87 47 64
        E 0 8e 47 64
        E 0 97 48 64
        E 1 9e 48 64
        E 242 87 48 64
        E 0 8e 48 64
        E 0 97 4a 64
        E 0 9e 4a 64
        E 478 87 4a 64
        E 0 8e 4a 64
        E 1 97 4a 64
        E 0 9e 4a 64
        E 479 87 4a 64
        E 0 8e 4a 64
        E 240 97 4a 64
        E 0 9e 4a 64
        E 239 87 4a 64
        E 0 8e 4a 64
        E 0 97 4d 64
        E 0 9e 4d 64
        E 243 87 4d 64
        E 0 8e 4d 64
        E 0 97 4c 64
        E 0 9e 4c 64
        E 240 87 4c 64
        E 0 8e 4c 64
        E 0 8f 2b 64
        E 0 97 48 64
        E 0 9e 48 64
        E 0 9f 30 5a
        E 480 87 48 64
        E 0 8e 48 64
        E 0 97 48 64
        E 0 9e 48 64
        E 479 87 48 64
        E 0 8e 48 64
        E 481 97 48 64
        E 0 9e 48 64
        E 480 87 48 64
        E 0 8e 48 64
        E 0 8f 30 64
        E 0 97 47 64
        E 0 9e 47 64
        E 0 9f 2c 5a
        E 479 87 47 64
        E 0 8e 47 64
        E 0 97 47 64
        E 0 9e 47 64
        E 479 87 47 64
        E 0 8e 47 64
        E 482 97 44 64
        E 0 9e 44 64
        E 479 87 44 64
        E 0 8e 44 64
        E 0 8f 2c 64
        E 0 97 47 64
        E 0 9e 47 64
        E 0 9f 2c 5a
        E 480 87 47 64
        E 0 8e 47 64
        E 0 97 47 64
        E 0 9e 47 64
        E 481 87 47 64
        E 0 8e 47 64
        E 0 97 47 64
        E 0 9e 47 64
        E 477 87 47 64
        E 0 8e 47 64
        E 0 97 48 64
        E 0 9e 48 64
        E 482 87 48 64
        E 0 8e 48 64
        E 0 8f 2c 64
        E 0 97 45 64
        E 0 9e 45 64
        E 0 9f 2d 5a
        E 479 87 45 64
        E 0 8e 45 64
        E 0 97 45 64
        E 0 9e 45 64
        E 481 87 45 64
        E 0 8e 45 64
        E 240 97 45 64
        E 0 9e 45 64
        E 240 87 45 64
        E 0 8e 45 64
        E 0 97 45 64
        E 1 9e 45 64
        E 238 87 45 64
        E 0 8e 45 64
        E 0 97 45 64
        E 0 9e 45 64
        E 241 87 45 64
        E 0 8e 45 64
        E 0 8f 2d 64
        E 0 97 42 64
        E 0 9e 42 64
        E 0 9f 30 5a
        E 479 87 42 64
        E 0 8e 42 64
        E 0 97 42 64
        E 0 9e 42 64
        E 481 87 42 64
        E 0 8e 42 64
        E 0 97 48 64
        E 0 9e 48 64
        E 481 87 48 64
        E 0 8e 48 64
        E 0 97 48 64
        E 9 9e 48 64
        E 230 87 48 64
        E 0 8e 48 64
        E 0 97 47 64
        E 1 9e 47 64
        E 239 87 47 64
        E 1 8e 47 64
        E 0 8f 30 64
        E 6 97 43 64
        E 16 9e 43 64
        E 1 9f 2b 5a
        E 936 87 43 64
        E 5 8e 43 64
        E 963 8f 2b 64
        E 0 97 4a 64
        E 1 9e 4a 64
        E 0 9f 2b 5a
        E 470 87 4a 64
        E 0 8e 4a 64
        E 0 97 43 64
        E 0 9e 43 64
        E 239 87 43 64
        E 0 8e 43 64
        E 0 97 43 64
        E 0 9e 43 64
        E 242 87 43 64
        E 1 8e 43 64
        E 0 97 43 64
        E 0 9e 43 64
        E 478 87 43 64
        E 0 8e 43 64
        E 0 97 45 64
        E 1 9e 45 64
        E 481 87 45 64
        E 0 8e 45 64
        E 0 8f 2b 64
        E 0 97 46 66
        E 0 9e 46 66
        E 0 9f 34 5a
        E 477 87 46 66
        E 0 8e 46 66
        E 0 97 46 66
        E 0 9e 46 66
        E 481 87 46 66
        E 0 8e 46 66
        E 481 97 4a 64
        E 0 9e 4a 64
        E 480 87 4a 64
        E 1 8e 4a 64
        E 0 8f 34 64
        E 0 97 46 66
        E 0 9e 46 66
        E 0 9f 34 5a
        E 525 87 46 66
        E 1 8e 46 66
        E 5 97 46 66
        E 4 9e 46 66
        E 424 87 46 66
        E 0 8e 46 66
        E 0 97 46 66
        E 0 9e 46 66
        E 479 87 46 66
        E 0 8e 46 66
        E 0 97 45 64
        E 0 9e 45 64
        E 481 87 45 64
        E 0 8e 45 64
        E 0 8f 34 64
        E 1 97 41 64
        E 0 9e 41 64
        E 0 9f 35 5a
        E 958 87 41 64
        E 0 8e 41 64
        E 0 96 48 64
        E 0 9e 48 64
        E 480 86 48 64
        E 0 8e 48 64
        E 1 96 48 64
        E 0 9e 48 64
        E 238 86 48 64
        E 0 8e 48 64
        E 0 96 48 64
        E 0 9e 48 64
        E 241 86 48 64
        E 0 8e 48 64
        E 0 8f 35 64
        E 1 96 45 64
        E 0 9e 45 64
        E 0 9f 35 5a
        E 480 86 45 64
        E 0 8e 45 64
        E 0 96 45 64
        E 0 9e 45 64
        E 479 86 45 64
        E 0 8e 45 64
        E 480 96 41 64
        E 0 9e 41 64
        E 482 86 41 64
        E 0 8e 41 64
        E 0 8f 35 64
        E 0 96 45 64
        E 0 9e 45 64
        E 0 9f 33 5b
        E 479 86 45 64
        E 0 8e 45 64
        E 0 96 45 64
        E 0 9e 45 64
        E 481 86 45 64
        E 0 8e 45 64
        E 959 8f 33 66
        E 0 96 45 64
        E 0 9e 45 64
        E 0 9f 33 5b
        E 480 86 45 64
        E 0 8e 45 64
        E 0 96 45 64
        E 0 9e 45 64
        E 480 86 45 64
        E 0 8e 45 64
        E 0 96 45 64
        E 0 9e 45 64
        E 479 86 45 64
        E 0 8e 45 64
        E 0 96 45 64
        E 0 9e 45 64
        E 241 86 45 64
        E 0 8e 45 64
        E 0 96 46 66
        E 1 9e 46 66
        E 239 86 46 66
        E 0 8e 46 66
        E 0 8f 33 66
        E 0 96 41 64
        E 0 9e 41 64
        E 0 9f 32 5a
        E 479 86 41 64
        E 0 8e 41 64
        E 0 96 41 64
        E 1 9e 41 64
        E 479 86 41 64
        E 0 8e 41 64
        E 0 97 46 66
        E 0 9e 46 66
        E 961 87 46 66
        E 0 8e 46 66
        E 0 8f 32 64
        E 0 96 41 64
        E 0 9e 41 64
        E 0 9f 32 5a
        E 480 86 41 64
        E 0 8e 41 64
        E 0 96 43 64
        E 1 9e 43 64
        E 478 86 43 64
        E 0 8e 43 64
        E 0 96 44 64
        E 0 9e 44 64
        E 239 86 44 64
        E 0 8e 44 64
        E 0 96 44 64
        E 0 9e 44 64
        E 241 86 44 64
        E 0 8e 44 64
        E 0 96 44 64
        E 0 9e 44 64
        E 240 86 44 64
        E 0 8e 44 64
        E 0 96 43 64
        E 0 9e 43 64
        E 239 86 43 64
        E 0 8e 43 64
        E 0 8f 32 64
        E 0 96 3f 66
        E 0 9e 3f 66
        E 0 9f 33 5b
        E 480 86 3f 66
        E 0 8e 3f 66
        E 0 96 3f 66
        E 0 9e 3f 66
        E 480 86 3f 66
        E 0 8e 3f 66
        E 962 8f 33 66
        E 0 97 48 64
        E 0 9e 48 64
        E 1 9f 33 5b
        E 480 87 48 64
        E 0 8e 48 64
        E 0 97 43 64
        E 0 9e 43 64
        E 478 87 43 64
        E 0 8e 43 64
        E 0 97 43 64
        E 0 9e 43 64
        E 481 87 43 64
        E 0 8e 43 64
        E 0 97 43 64
        E 0 9e 43 64
        E 482 87 43 64
        E 0 8e 43 64
        E 0 8f 33 66
        E 1 97 42 64
        E 0 9e 42 64
        E 0 9f 32 5a
        E 476 87 42 64
        E 0 8e 42 64
        E 1 97 45 64
        E 0 9e 45 64
        E 480 87 45 64
        E 0 8e 45 64
        E 0 97 45 64
        E 0 9e 45 64
        E 480 87 45 64
        E 0 8e 45 64
        E 0 96 45 64
        E 0 9e 45 64
        E 482 86 45 64
        E 0 8e 45 64
        E 0 8f 32 64
        E 0 96 3e 64
        E 0 9e 3e 64
        E 0 9f 32 5a
        E 478 86 3e 64
        E 0 8e 3e 64
        E 1 96 3e 64
        E 0 9e 3e 64
        E 479 86 3e 64
        E 0 8e 3e 64
        E 0 97 46 66
        E 0 9e 46 66
        E 479 87 46 66
        E 1 8e 46 66
        E 0 97 46 66
        E 0 9e 46 66
        E 238 87 46 66
        E 0 8e 46 66
        E 0 97 41 64
        E 0 9e 41 64
        E 242 87 41 64
        E 0 8e 41 64
        E 0 8f 32 64
        E 0 97 43 64
        E 0 9e 43 64
        E 0 9f 30 5a
        E 479 87 43 64
        E 0 8e 43 64
        E 0 97 43 64
        E 0 9e 43 64
        E 479 87 43 64
        E 0 8e 43 64
        E 1 96 48 64
        E 0 9e 48 64
        E 481 86 48 64
        E 0 8e 48 64
        E 0 96 48 64
        E 1 9e 48 64
        E 238 86 48 64
        E 0 8e 48 64
        E 0 96 48 64
        E 0 9e 48 64
        E 241 86 48 64
        E 0 8e 48 64
        E 0 8f 30 64
        E 0 96 43 64
        E 0 9e 43 64
        E 0 9f 30 5a
        E 479 86 43 64
        E 0 8e 43 64
        E 0 96 43 64
        E 0 9e 43 64
        E 481 86 43 64
        E 0 8e 43 64
        E 959 96 43 64
        E 0 9e 43 64
        E 480 86 43 64
        E 0 8e 43 64
        E 0 96 45 64
        E 0 9e 45 64
        E 480 86 45 64
        E 0 8e 45 64
        E 0 96 46 66
        E 0 9e 46 66
        E 480 86 46 66
        E 0 8e 46 66
        E 0 96 46 66
        E 1 9e 46 66
        E 238 86 46 66
        E 0 8e 46 66
        E 0 96 45 64
        E 0 9e 45 64
        E 241 86 45 64
        E 0 8e 45 64
        E 0 8f 30 64
        E 0 96 41 64
        E 0 9e 41 64
        E 0 9f 35 5a
        E 481 86 41 64
        E 0 8e 41 64
        E 0 96 41 64
        E 0 9e 41 64
        E 480 86 41 64
        E 0 8e 41 64
        E 240 96 45 64
        E 0 9e 45 64
        E 239 86 45 64
        E 0 8e 45 64
        E 0 96 45 64
        E 0 9e 45 64
        E 240 86 45 64
        E 0 8e 45 64
        E 0 96 46 66
        E 1 9e 46 66
        E 240 86 46 66
        E 0 8e 46 66
        E 0 8f 35 64
        E 0 96 46 66
        E 0 9e 46 66
        E 0 9f 37 5a
        E 475 86 46 00
        E 0 89 4c 00
        E 0 8d 46 00
        E 0 8e 46 00
        E 0 8f 37 00
        E 0 b0 7b 00
        E 0 b1 7b 00
        E 0 b2 7b 00
        E 0 b3 7b 00
        E 0 b4 7b 00
        E 0 b5 7b 00
        E 0 b6 7b 00
        E 0 b7 7b 00
        E 0 b8 7b 00
        E 0 b9 7b 00
        E 0 ba 7b 00
        E 0 bb 7b 00
        E 0 bc 7b 00
        E 0 bd 7b 00
        E 0 be 7b 00
        E 0 bf 7b 00
        E 201 b0 79 00
        E 0 b1 79 00
        E 0 b2 79 00
        E 0 b3 79 00
        E 0 b4 79 00
        E 0 b5 79 00
        E 0 b6 79 00
        E 0 b7 79 00
        E 0 b8 79 00
        E 0 b9 79 00
        E 0 ba 79 00
        E 0 bb 79 00
        E 0 bc 79 00
        E 0 bd 79 00
        E 0 be 79 00
        E 0 bf 79 00
        E 5639 b0 7b 00
        CCINTERP 32
        CHASE_CC_TAKEOFFS 1
        GUID {FAF5AB99-1CC8-6346-8F4F-3FB6DBE03B01}
        IGNTEMPO 0 120 4 4
        SRCCOLOR 11
        VELLANE 129 9 0
        VELLANE 107 9 0
      >
    >
  >
  <EXTENSIONS
  >
>
